<svg xmlns="http://www.w3.org/2000/svg" viewBox="0 0 480 480" xmlns:v="https://vecta.io/nano"><path d="M142 387.7l.3-.4c-.02-.01-.1.1-.3.4zm9.7 45.1h.08zm21.93-22.42l-.06-.01h.01a.09.09 0 0 1 .05.01zm54.13-81.53l.25-.3c-.02.02-.03.04-.04.05l-.2.26zm83.2 70.65l-.18-.42c-.01.01.03.12.18.42zm67.95 16.06l-.7-2.8-59.8 14.6.8 2.7c.3 1.4 1.8 2.2 3.1 1.9l54.7-13.3c1.4-.3 2.2-1.8 1.9-3.1zm-29.34 11.06l.1-.04h-.02zm28.84-14.06l-.7-2.8c-.5-1.3-1.9-2.2-3.2-1.8l-.8.2c.3-.22.78-.9.5-3-.33-2.4-3.2-2.6-8.14-2.78-.1-.3-.42-.54-.76-.62l-2.9-.3c-.02.26-.07.52-.13.77-.04 0-.07-.01-.1-.01.07-.28.1-.57.14-.86l-12.5-1.5c-.01.06-.01.13-.01.2l-2.8-.3c-.42 0-.9.22-1.03.58-4.1-.77-6.64-1.62-8.07-2.38-1.35-.63-7.92-14.87-9.2-17.63l4.3-1.77c1.4-.4 2.1-1.8 1.9-3.2-3.6-13.4-28.2-70.9-37.8-92.4l-29.56-66.74c1.05-5.32 1.66-9.36 1.66-9.36h-71s0 7.23 2.67 15.66l-5.17 39.24c-2.2 13.4-2.8 21-10.7 37.7-9.6 19.2-33.1 55.8-39.4 66.1-1 1.6-.6 3.5.8 4.7l4.7 3.85c-4.97 7.97-12.76 20.33-15.1 23.25-2.2 2.8-10.3 6.2-6.2 12.5l11.9 6.14-12.6-6.24c-1.3-.5-2.7 0-3.5 1.9-.3.6-1 2.5-1 2.5l.1.05-1.3 2.05c-.9 1.9-.1 2.8 1.8 3.8l22.8 10.9c.8.4 1.8.6 2.7.6l33.4.2a2.65 2.65 0 0 0 2.6-2.6v-2.7h.1v-2.8c-.1-1.6-1.3-2.8-2.7-2.8H170l2.7-.02 4.5.02v-.05l5.3-.05c1.6 0 1.6-1 1.6-1.8-.1-1.5-2.8-3.3-4.4-3.9l-2.5-.98c.07-.37-.04-.74-.5-.92l-2.82-1.26c.01-.01.01-.02.02-.04l-11.6-5.2c-.01.04-.02.08-.04.12a1.43 1.43 0 0 0-.2-.14.69.69 0 0 1 .03-.08l-1.47-1.18c-.46-.5-.73-1-.73-1.42 0-.97 5.4-8.72 9.65-14.7l3.15 2.6c.8.7 2.1.6 2.8-.3l50.7-62.8c9.1-10.5 14-20.1 16.9-25.9.24-.48.58-1.35 1-2.53 2.64 4.3 5.18 8.58 7.2 12.43 11.5 18.4 35.6 63.1 42.7 76.4.6 1.7 3 4 4.8 3.5l7.3-3c.88 1.56 7.14 12.78 9.1 17.6 1.3 3.1.52 13.12 4.77 13.96l-.17.04c-1.4.3-2.2 1.8-1.9 3.1l.7 2.8 59.8-14.6zm-16.13-12.46h-.05c.02 0 .03 0 .05-.01zm-82.37-35.5l-.57-1.16c-.01.03.12.33.57 1.16zm17.75-82.24c.04.1.1.2.14.27l-.14-.27z" fill="#fff"/><path d="M182.52 430.5h0l.14-.1zm-16.77-20.92h0l-.06.06zm214.02 5.75l-.02-.23-.06-.48-.34-1.35c.05-.01.1-.02.15-.04l-.7-2.7-.27-.94c-.18-.5-.36-.75-.6-1.06a3.49 3.49 0 0 0-1.67-1.15c-.58-.18-1.1-.14-1.44-.04-.1.03-.18.07-.25.1.07-.3.1-.57.1-.83a8.39 8.39 0 0 0-.04-1.34 3.1 3.1 0 0 0-.36-1.27 3.25 3.25 0 0 0-.4-.5l-.46-.34c-.95-.54-1.3-.58-1.62-.74-.33-.12-.7-.25-1.73-.3l-.8-.18c-.87-.08-.64.07-1.6-.02.06-.06-1.2-.1-.65-.14l-.55-.03c-.01-.02-.03-.04-.04-.05-.18-.17-.36-.26-.5-.32-.3-.1-.5-.07-.57 0s0 .17.13.32l-.83-.02.62.06c.13.03.25.1.36.16.13.18.26.44.15.64v2.07l-.06-.04c.2 1.25.35 2.02.8 2.8-.12.1-.07.35.01.62l.12.36c.02.05.03.1.01.12l-.03-.01a.46.46 0 0 1 .13.4c-.25.01-.4-.04-.5.1 0-.02-.01-.1.03-.12.01.02-.38.14-.6.2-.25.06-.44.08-.48 0-1.24.35-3 .7-3.73 1.15l.04-.06c-.4.3-.58.17-1.07.38-.03-.01-.07-.02-.07-.03-.45.3-1.44.38-1.83.55l-.05-.1-.98.27.38-.07c-.06.33-.8 0-1.46.36-.68.13-1.2.95-1.94.97-.3.22.24-.3-.23-.07-.05-.15.2-.15.05-.25-.47.2-.84.04-1.4.3l-.05-.1c-.73.4-1.52.2-2 .54-.8.3-.63-.23-1.42.2l-.37-.08c-.37.06-.2.26-.63.28 0-.1-.53.04-.3-.1-.94.06-1.78.67-3.04.7-.04.06-.15.12-.2.15-.02.03-.05.04-.08.06-.06.03-.12.05-.2.15.01-.1-.4.08-.04-.2.02-.02.04-.02.02.02l.1-.15c.02-.12.01-.1-.1-.01-.07.04-.16.05-.12-.05-.05.07-.06.14-.15.16l.05-.2c.03 0 .07 0 .1-.01l.07-.14c.01-.02.01.01.03-.1-.05.04-.1.07-.14.07.14-.37.4-.55.3-1.08-.05-.25-.25.4-.2-.1l.7-2.28c-.15.05-.1-.16-.1-.4h.13c-.01-.87.33-.26.35-1.1l-.14-.18c-.1-.8.33-.36.15-1.25-.04.33-.3.1-.17-.3l.1.12c.02-.23-.02-.3.03-.46.04.15.16.1.2-.23l.1.25-.1-.66c.22-.46.2-1.25.4-1.4 0 0 .28-1.02.14-1.3.07.23.22-.33.33-.15-.08-.3-.03-1.1.16-1.4v.06l.1-.42.04-.2c.01-.06 0-.03.01-.05 0-.03-.02-.08-.01-.12s.05-.08.1-.1c.07-.01.01 0 .36.08-.03-.15.52-.01.4-.2.2-.01.38 0 .56.02.17.02.15.04.22.06l.15.08c.01.13.05.17.1.3l-.1.24c.01.18.04.42.07.53.03.12.07.24.13.36.1.23.23.45.35.68a1.86 1.86 0 0 1 .1.25c0 .85 1.06 2.04 1.78 2.48.04.02.07.05.1.07.1.12.18.2.15.27a8.49 8.49 0 0 0 .8.53l.38.34c.5.44 1.12.8 1.77.76.03.03.12 0 .14-.02a2.2 2.2 0 0 0 .37.06c.25.05.5.08.76.1 0 0 .34.02.8-.02.43-.05.93-.18 1.3-.37.05.07.12.12.45.01.07 0 .15-.03.23-.05.14.08.38.1.57.07.2-.02.35-.07.35-.07.65-.14 1.08-.44 1.44-.82.36-.4.68-.85 1.1-1.48l.94-1.2.17-.3.08-.15.1-.27c.15-.38.25-.83.3-1.35l.03-.28.6-.08c.47-.07.8-.15 1-.22.43-.15.4-.3.2-.46-.45-.3-1.62-.52-1.7-.52l-2.5-.36c-.01.05-.01.1-.02.14-.27-.04-.5-.06-.58.01l-.1-.13c-.1.05-.24.07-.33 0v-.03c-.17.07-.33 0-.42.03l.01-.03-.2-.01.04-.05c-.28.06-.56.04-.8-.04v.15c-.5-.22-.73.05-1.18-.2v-.03c-.64.3-.9-.37-1.57-.1.08-.04-.02-.08-.01-.1-.3.01-.6-.01-.63.27-.2-.03-.16-.1-.17-.22-.01.12-.2.15-.36.14l.08-.04h-.47l.06.24c-.24-.1-.03-.3-.27-.26v.2c-.33-.08-.5-.4-.8-.58-.34-.06-.7-.1-1.04-.1l-1.13-.03-.32-.02v-.06l-.2-.02.06-.03-.8-.07.17-.03-.9-.04-.74-.05-.9-.12.03.15c-.2-.06-.82-.18-1.17-.07a1.98 1.98 0 0 0-.95.47l-.3.33-3.65-.97c.14.13-.33 0-.82-.14l-.03-.1c-.94-.24-1.07-.37-1.22-.46-.15-.1-.28-.2-1.15-.56l.17.03-.26-.04-.06-.01-.03-.01h-.02l-.16.32.01-.04c.03-.1.1-.22.13-.26v.01c-.07-.04-.2-.17-.3-.27s-.15-.2-.2-.27a1.65 1.65 0 0 1-.2-.4c-.1-.23-.24-.47-.8-1.26.4.65.03.4-.4-.45l.18.17-.53-.9c.18.26.17.1-.2-.58l.32.42-.8-1.23-1.46-3.07-1.37-2.67c.27.4-.28-.8-.04-.5-.34-.54-1.2-2.2-1.44-2.9l.07.12-.96-2.1-.76-1.68c13.23-6.23-7.22 1.9-7.22 1.9-7.7 3-13.47 5.4-19.6 8.02l-2.32 1-1.18.5-.55.24c.01-.01-.08.03-.17.02-.38.01-1.06-.3-1.62-.76-.57-.46-1.1-1.1-1.42-1.73l-.05-.1-.06-.13c-.02-.05-.05-.1-.07-.15l-.18-.32-.35-.64-.72-1.3-1.5-2.74-3.3-6.04-18.92-35L257 320c-1.1-1.65-2.5-4.02-4-6.44l-.8-1.3-.25-.47-1.02-1.86c-.68-1.2-1.36-2.35-1.98-3.35l-.82-1.64c-.88-1.37-1.9-2.97-2.7-4.4l.08.07c-1.34-2.02-2.74-4.36-3.4-5.35l.08.07-1.57-2.48.3.4c-2.32-3.52-4.64-7.17-6.57-10.47l.04.35c-4.15-7.04-5.9-9.45-9.42-15.94l.08.07c-4.94-7.9-7-12.96-11.86-21.24.6 1.03-.18-.5-.1-.42-2.12-3.88-4.33-8.05-4.6-8-1.48-2.86-1.13-2.37-1.22-2.8-.1.07-1.43-2.4-2.57-4.63l.56 1c-1.12-2.14-2.13-4.25-2.98-6.48a17.48 17.48 0 0 0 .3 1.4c-.68-1.77-.64-2.04-.68-2.26-.02-.23-.07-.42-.63-2.14l-.17.1c-.74-2.52-1.1-4.57-1.38-6.6s-.43-4.07-.53-6.58l-.02-.5v-.2c.01-.01.04 0 .06 0h5.18l8.15-.03 16.36-.1 31.44.06.87.15c.08.04.33.06.7.05.1 0 .2 0 .3-.01h.08c.1.8.62 1.04 1.1 1.85.3.8.15 1.12.62 1.88.18.44.33.6.77 1.47.3.17.44.93.72 1.12l.01.3c.1.06.18.15.22.38l-.02.04c.13.07.2.37.27.4l-.02.05.12.2-.03.04c.2.18.34.5.48.9v-.12l.4.8.8 2.15c3.3 7.73 6.44 14.17 9.98 22.28 4.06 9.83 12.4 28.03 17.2 38.5 6.9 14.66 13.55 32.32 20.3 47.47.1.25.3.7.46 1.07l.23.48.1.2 5.77 14.04 4 9.84 6.9 17.86c.5 1.33.9 2.57 1.26 3.66l.23.7c.03.2.04.42.02.62a2.4 2.4 0 0 1-.31 1.02c-.3.56-.75.8-.98.93-.25.14-.33.2-.07.2.2-.01.78-.07 1.4-.74.3-.33.56-.83.65-1.47.14-.66-.16-1.4-.33-2.2-.8-3.26-2.3-8.02-4.63-14.62l.18.33c-2.9-7.8-4.85-12.66-7.24-17.88-.07-.95-2.57-6.33-3.23-8.16l.1.16c-2.15-4.6-3.85-9.7-5.94-14.14.1.17.2.23.65 1.27-1.4-3.27-3.4-7.72-3.34-8.03l-10.47-23.62.2.32c-1.4-2.77-1.65-3.67-3.14-6.8-.06-.18-.15-.4-.12-.38-1.53-3.02-4.02-9-5.2-11.48l.03-.2-2.75-6.15 1 2.3c-.63-.67-1.9-4.74-4.05-9.12-1.82-4.2-4.34-8.22-6.12-12.62-1.05-2 1.02 1.73-.45-1.32.1-.17.73 1.4.5.56-1.4-3-2.06-5.05-3.82-8.75l.05-.2c-2.37-4.8-3.94-9.3-5.58-12.46-2-4.3-1.43-3.83-2.83-6.85l.88-3.83.35-1.94.36-2.15.26-1.7.06-.42.02-.1c.01-.04.02-.08-.03-.07h-3.4c-.26-.06-.5-.07-.76 0l-3.07.01c-.12-.01.05-.03.7-.05l-2.9-.04h-2.36l-4.9.06c-3.37.04-7 .07-11.05-.07-1.76.2-5.85.08-7.17.24-.22-.1-8.2-.01-3.6-.2.4-.02 1.1-.01 1.04.02l.55-.12c-4.63-.23-8.42.13-13 .1 1.36.04 3.17.03 1.96.1l-4.26-.02.9-.1-6.34-.06.87.13a77.46 77.46 0 0 1-2.71-.1 3.47 3.47 0 0 0-.38-.02 39.33 39.33 0 0 0-4.6.02c-1.07.07.64.12.86.16-.86.04-1.57.06-1.82-.01l-.75.03-4-.08h-1.37-.88-.44c-.14.01-.35-.04-.28.16 0 2.82.1 3.7.24 5.22.15 1.4.32 2.8.56 4.14.05-.52.3.9.63 2.36l-.08.2c.72 2.77.87 3.27.92 3.8a7.45 7.45 0 0 0 .23 1.05 7.98 7.98 0 0 0 .12.45l-1.62 14c-.8 5.14-1.72 12.58-2.78 20.1-1.17 7.5-2.14 15.18-3.36 20.62-1.6 7.7-4.9 15.65-8.88 23.22-4.05 7.56-8.56 14.97-12.53 22.03-.15.22-.38.63-.58 1-.1.18-.18.34-.24.46l-.1.2-7.73 12.68-5.46 8.85-9.8 16.02-1.02 1.73c-.32.57-.63 1-.92 1.66a3.97 3.97 0 0 0 .07 3.3c.4.8.9 1.23 1.2 1.43s.36.18.23-.02c-.13-.22-.56-.63-.9-1.47a3.54 3.54 0 0 1 .51-3.5l8.42-12.4-.16.34c4.4-6.84 7.13-11.18 9.86-16.08.7-.6 3.5-5.7 4.57-7.27l-.07.17c2.38-4.36 5.42-8.68 7.66-12.9-.07.17-.06.3-.6 1.25 1.73-3.03 4.04-7.2 4.3-7.36 2.03-3.64 4.45-8.02 6.46-12.22 1.96-4.22 3.5-8.2 4.3-10.77l-.08.36c.85-2.95 1.3-3.75 2.15-7.07.07-.17.14-.4.14-.37l1.37-6.3a107.68 107.68 0 0 0 1.03-5.86l.14-.15 1.02-6.5-.42 2.42c-.18-.9 1.02-4.9 1.5-9.66.67-4.43.6-9.08 1.34-13.67.14-2.22-.01 1.97.3-1.33.17-.1-.1 1.55.14.72.34-3.24.83-5.27 1.2-9.27l.14-.15c.14-1.76.34-3.44.55-5.04 1.05 2.32 1.38 2.94 1.63 3.66.3.7.62 1.45 2.04 3.87-1.03-1.96-.23-1.05.96 1.4l-.42-.56c.7 1.33 1 1.76 1.43 2.66-.47-.77-.37-.34.67 1.62l-.82-1.25 2.14 3.6c1.4 2.93 3.96 7.37 4.44 8.62 0 0 3.25 6.16 4.2 7.46-.78-1.17 1.04 2.2.4 1.32.98 1.52 3.68 6.1 4.62 8.03l-.2-.34c3.77 6.93 6.93 11.6 10.5 17.7-.05-.35 1.84 2.88 1.5 2 4.02 6.13 6.77 11.5 8.63 13.45 1.77 2.8 1.94 3.43 2.8 4.9l-.43-.66a179.47 179.47 0 0 1 3.52 5.95l1.3 2.33.33.6.17.32.05.1.08.13.1.16.84 1.38c1.26 1.93 1.67 2.1 3.73 5.7-.78-1.1.1.34.9 1.68-.5-.85-.7-1.1.26.7.17.23.4.6.64.95 0 .02.04.1.01.06 1.33 2.2 1.14 1.8.54.76.04.04.01-.05-.15-.4 1.24 2.38 3.74 6.47 3.75 6.84l9.96 17.12c.27.68-.53-.6-1.48-2.22l2.26 4c-.14.03-1.34-2.27-2.05-3.5 2.46 4.88 5.65 9.75 8.55 15.47l.73 1.1.17.34c.04-.04.8 1.18 1.27 2 .33.85-.27.07 1.26 2.86 1.1 2.26 3.45 6.24 5.07 9.1-.82-1.57-.5-1.1-.1-.44.76 1.4 1.1 2.25 1.7 3.3l-.05.16c.2.14 2.12 3.66 2.42 4.1.32.85-1.25-2.12-1.52-2.43l4.55 8.46c2.46 2.77-.35-.56.9.68.54.58 1.15 1.1 1.88 1.45.7.35 1.66.58 2.48.18 1.4-.6 2.88-1.2 4.5-1.83l-1.06.3c5.16-2.25 8.28-3.52 11.85-4.83l13.55-6.12.17.26c.04.08.1.16.13.24l.37.77c.25.53.5 1.1.8 1.83l-.03-.02c1.6 2.87 2.07 4.77 3.78 7.7-.2-.37.04.18.01.16.72 1.4 1.5 2.86 1.68 2.8.54 1 .4.84.4 1 .06-.04.56.8 1.04 1.58l-.24-.34.7 1.1c.13.18.26.36.43.54.1.1.16.18.32.28s.2.1.32.17l-.2-.18c-.1-.1-.2-.18-.23-.27.36.32.5.33.6.42.1.07.13.1.16.14.06.07.12.12.73.36l.03-.12c1.76.7 2.78 1.13 4.54 1.64.44.1.9.18 1.34.27-.04.1-.07.2-.12.35l-.03-.02c.12 1.45-.67 2.14-.58 3.63-.01-.2-.1.06-.12.04-.08.66-.2 1.37.08 1.43-.1.48-.16.37-.28.42.12.02.1.45.03.82l-.02-.18-.16 1.08.27-.17c-.17.56-.3.1-.36.65l.2.03c-.2.78-.56 1.18-.85 1.92a39.69 39.69 0 0 0-.41 2.27l-.26 1.63c-.97.27-2.18.48-3.03.83h-.5c-.4.16-.87.32-1.3.35l.02-.04c-.6.24-1.3.35-1.6.47l.02-.04-.74.2.12-.08c-1.05.35-2.15.63-3.13.82l.1.12c-2.12.35-2.8.83-4.73 1.1l.02-.04c-2.3.95-3.8.66-6.17 1.6.3-.12-.15-.04-.13-.08-.56.16-1.14.3-1.57.47-.05.01-.1.04-.14.05-.15-.1-.28-.2-.4-.3-.25-.22-.43-.5-.56-.7l-.2-.36c-.55-1.17-.8-2.4-1-3.53-.2-1.15-.36-2.26-.52-3.42-.17-1.16-.3-2.36-.63-3.74-.1-.35-.18-.7-.33-1.08s-.3-.68-.46-1.04l-1.05-2.2-2.43-5c-.84-1.56-2-3.62-2.3-3.57-.48.08 1.56 4.4 1.56 4.4.08.3-.15.05.36 1.04.34.8 1.17 2.2 1.7 3.23-.26-.56-.14-.4 0-.17.24.5.32.82.53 1.2l-.06.1c-.01-.24.7 1.27.8 1.45.07.32-.4-.76-.5-.87.47 1 .56 1.27.67 1.52.1.27.23.45.45 1.52.28 1.14.05-.23.23.3a26.48 26.48 0 0 1 .46 3.25l.04-.4.64 4.47c.47 1.8 1.12 3.15 1.93 3.88.16.15.32.26.48.36-.1.1-.17.17-.13.22-.48.27-.64.43-.74.47-.1.05-.12 0-.2.02.08.07-.52.83-.68 1.66.01-.13.04-.25.06-.38a3.44 3.44 0 0 0-.18 1.19 3.19 3.19 0 0 0 .08.61c.04.2.08.32.13.48l.14-.42c.18 1-.22.32.07 1.24l.2-.06.2.97c-.16.04-.32.1-.48.13.82 2.5 1.15 3.16 1.4 3.38.12.07.2-.08.2-.54 0-.23-.02-.54-.05-.93l-.05-.8.48-.06a17.46 17.46 0 0 1 .76-.1l.52-.06 1.55-.37c1.1-.22 1.96-.44 2.8-.72l1.1-.3c.5.02 1.63-.44 2.08-.47l-.04.03c1.24-.53 2.7-.47 3.9-.97-.04.03-.05.12-.34.2.9-.26 2.12-.62 2.23-.47 2.15-.57 5.2-1.23 6.5-1.83l-.08.07c.1-.05.2-.08.27-.1l.47-.01c2.16-.42 3.92-1.12 6.2-1.62 2.5-.36 6.86-1.6 9.82-2.48.68-.12 1.3-.2 1.77-.44 1.38-.44 1.03.13 2.43-.46l.6.02c.63-.13.4-.3 1.1-.4-.02.1.9-.13.5.07 1.6-.22 3.13-1 5.26-1.24.4-.3 1.44-.44 1.75-.67.01 0 .01 0 .02-.01.12.06 2.07-.5.96-.02-.1.04-.27.08-.27.04l-.1.15c1.23-.06 2.1-.65 3.28-.9-.36.04-.8.17-.53.01l1.1-.25-.2.16 1.63-.34-.25-.07c.4-.06.7-.06.97-.1.06.03.06.04.18-.1.17-.15-.14-.14.14-.25h.06c0 .1.01.2.01.32v.14l.3 1.5c.02.17.01.37-.03.55.15-.06.12.17.05.4h-.12c-.12.44-.28.44-.36.44-.1-.01-.18.01-.45.2l.02-.1a.75.75 0 0 1-.1.31c-1.15.54-.73-.1-2.06.58.56-.16.33.2-.38.32l.15-.16c-.38.12-.5.2-.76.24.2-.12.08-.2-.48-.04l.34-.24-1.02.47c-.85.07-2.12.55-2.5.47 0 0-1.8.35-2.15.63.33-.2-.66 0-.4-.2-.43.24-1.76.67-2.33.67l.1-.04c-2.04.35-3.38 1.02-5.22 1.3.1.12-.85.28-.58.4-1.82.63-3.48.46-4.02 1.18-.84.24-1.03.1-1.48.2l.2-.08c-1.58.43-2.03.55-3.22.82-.58.2-.6.48-1.68.67.32-.2-.1-.06-.5.03.25-.08.32-.13-.22-.08-.07.05-.17.1-.28.14-.01-.01-.03-.01-.02-.02-.65.2-.53.2-.22.14-.01.02.02.03.12.04-.7.03-1.9.47-2.03.32-1.97.52-3.34 1.05-4.97 1.52-.2-.05.16-.22.63-.37l-1.16.32c-.02-.13.65-.24 1-.35-1.44.13-2.82.9-4.5 1.1l-.3.2h-.1c.02.05-.33.22-.57.3-.26-.06-.05-.27-.85-.06-.66.05-1.8.5-2.62.76.46-.1.32.01.14.1-.4.1-.66.04-.96.17l-.07-.14c.2.1-1.02.4-1.15.5-.26-.06.6-.25.68-.36l-2.42.6c-.84.33.2.1-.2.34-.76.22-1.47.5-2.37.62l.3.07c-1.4.45-2.27.65-3.27.74-.66.2-1.22.5-1.73.55-.53.06-1-.05-1.4-.2a3.11 3.11 0 0 1-1.45-1.27c-.4-.77-.5-.6-.56-.22a2.54 2.54 0 0 0 .28 1.11 3.1 3.1 0 0 0 .9 1.1c.73.6 1.54.75 1.54.75.4.1.78.13 1.18.1.46-.05.66-.1.9-.15l1.36-.3c.87-.2 1.7-.43 2.53-.68l5.92-1.7c4.4-1 5.64-1.02 10.17-2.23 2.18-.5 4.48-1.13 6.6-1.68.96-.45 2.8-.68 3.94-1.14h.5c.4-.16.87-.32 1.3-.35v.04c.6-.24 1.3-.35 1.6-.47l-.02.04.74-.2-.12.08c1.05-.35 2.15-.63 3.13-.82l-.1-.12c2.12-.35 2.8-.83 4.73-1.1v.04c2.3-.95 3.8-.66 6.17-1.6-.3.12.15.04.13.08 1.12-.3 2.3-.63 2.27-.9.82-.2.7-.08.82.01-.03-.12.67-.34 1.3-.5l-.28.12.9-.24c.3-.1.6-.14 1-.3a1.93 1.93 0 0 1-.5-.1c.58-.12.68-.14.77-.1.08.01.2.05.66-.37l-.14-.14c.63-.55 1-1.14 1.22-1.8a3.35 3.35 0 0 0 .17-1.08l.05-.36zm-28.7-14.46c.03.1.18.04.1.22 0 .02-.01.01-.02-.02l.01.12c.05.12.01.1.08.04.14-.04.28-.1.43-.07-.08-.05-.2-.05-.1-.13l.27.05-.07.1.4.1-.04-.13c.2.1.23.3.48.16.1-.1-.17-.2.05-.2.26.12.64.3.97.37-.01-.15.08-.13.17-.15v.12c.38-.13.1.3.47.2l.08-.16c.35-.2.14.28.54-.01-.14 0-.03-.28.13-.2l-.06.1c.1-.01.14-.06.2-.03-.07.06-.05.17.1.17l-.1.14.3-.2c.2.15.54.03.6.2 0 0 .43.14.56-.04-.1.1.14.18.05.3.13-.12.48-.18.6-.03h-.03c.5.2.9-.1 1.32.14 0-.15.23-.04.2-.23.5-.13.8.48 1.05-.07.22-.01.24.16.34.2l-.05.02c.2 0 .33 0 .45.01h.17c.02 0 .04.01.07.01.06-.05.2-.3.3-.22-.1.1-.04.08.01.1-.04.01-.07.05-.07.12.03-.03.06-.05.08-.06v.02c.1-.03.12-.06.1-.07.02-.01.03-.03.04-.06-.03.13.27.02.07.18.1.1.24.24.25.5-.1.03-.18-.03-.2-.08v.14c-.14-.01-.06-.08-.08-.12-.13.08-.1.13-.07.23a.47.47 0 0 1-.17.44l.06.1h-.03c.05.02.08.13.07.2-.13-.01-.23-.13-.32.03-.17.06-.16.37-.22.56.07-.07.1-.01.12.05-.05.08-.17.05-.18.13l-.13-.1c.14.06-.03.28 0 .35-.12-.04.02-.18-.04-.25-.22.3-.1.14-.35.4-.06.22.13.08.16.25-.1.14-.17.35-.4.4l.14.07c-.2.3-.4.4-.68.4l-.37.5c-.22.1-.44.2-.67.28-.05.02-.1.03-.16.05-.25-.13-.66-.26-1.24-.48V406c-.48-.06-.74-.08-1.08.14-.03-.3-.38-.07-.48-.17l.01-.02c-.32.16-.52-.3-.83-.2.02-.02.05-.1.1-.08-.2-.01-.47-.06-.42-.22-.46-.12-.94-.54-1.34-.52l.04-.02c-.25.03-.2-.12-.4-.18.01-.02 0-.04.01-.05-.25-.01-.43-.37-.57-.45l.08-.08-.26-.28.07.13c-.3.15-.02-.35-.33-.47-.1-.23-.83-.17-.82-.52-.18-.07.26.02.08-.13.14-.07.13.05.22-.05-.13-.14-.01-.3-.1-.47l-.02-.05c-.01-.02-.03-.04-.05-.06l.1-.06c-.33-.2-.03-.57-.28-.7-.15-.2.35-.12.08-.28.06-.01.1-.01.17-.01.03-.03-.22-.1-.14-.14.1.06.1-.02.2.07.1.01.03-.06-.02-.17-.05-.1.06-.08.2.06-.03-.2.1-.05.1-.2zm-84.57-193.1h.23c.03.02.06.04.06.1.2-.02.5-.01.67-.03.02-.01.05-.02.07-.04h.18l.25.02h.06c0 .02-.01.04-.01.07l-.03.14-.07.3-.27 1.43-.1.04c-.03.06.03.1.07.12-.01.04-.02.08-.02.12-.06.02-.1.13-.16.05-.22.27.12.65-.22 1 .14.1.1.22.1.3-.01.04-.02.08-.02.12-.02.01-.05.01-.13-.05-.01-.01-.01-.02.02-.01l-.12-.04c-.22-.06.1.1.06.16.04.02.03-.02.1.05l-.03.05-.1-.1c-.02.01-.04.01-.06.01l.1.12c-.06-.02-.24-.27-.1-.03.06.1.1.16.14.22 0 .01 0 .02-.01.03-.08-.05-.16-.15-.2-.18.1.25.1.26.1.34l-.08-.24c.1.4-.18-.53-.1-.23l-.05-.2.16.58c.14.63-.16-.6.03.28 0-.02.01.03.03.1 0 .02-.01.05-.01.07-.02-.1-.04-.15-.03-.1l-.08-.42.1.6c-.05-.18 0 .25-.08-.22 0 0-.01-.05-.01-.02-.01-.01-.01.05.02.33l-.1-.93c.05.4.04.64 0 .24v-.04c-.02-.22-.02-.1-.03-.01-.01.1-.03.14-.03-.07-.01.28-.02.16-.04.4l-.05-.13c-.01-.01-.01-.02-.02-.04 0-.04-.01-.06-.02-.04-.93-2.15-.88-1.48-1.9-3.97.02.01.01-.02 0-.07.13-.01.24-.01.38-.02.76-.05.1-.1-.42-.13-.01-.02-.02-.04-.03-.07.2-.01.43-.01.78-.01l.84.02c-.01.01-.02.03-.03.03.07 0 .12-.01.16-.02zm76.24 208.6c-.06.03-.1.08-.4.17.05-.03.1-.07.17-.1a2.17 2.17 0 0 1 .24-.07zm25.74-13.3h.8c.22.04.68.1.3.1.73.07.74.07 1.26.1.24.08.5.14.72.23 1.1.3 1.88.8 2 1.7a6.96 6.96 0 0 1 .11 1.57c0 .1-.02.2-.04.3-.97.08-2.33.34-2.33.34a35.41 35.41 0 0 0-2.92.6l-.28-1.2s-.5-2.13-1.05-3.74c.57-.05 1.28-.1 1.43-.01zM318.9 423.6c.08-.1.1-.2.17-.7-.14.34-.37.02-.01-.37l.02.17c.14-.22.18-.3.33-.4-.08.15.04.16.32 0-.05.08-.1.15-.1.23.15-.18.2-.28.6-.45.85-.07 2.12-.55 2.5-.47 0 0 1.8-.35 2.15-.63-.33.2.66 0 .4.2.43-.24 1.76-.67 2.33-.67l-.1.04c2.04-.35 3.4-1.02 5.23-1.3-.1-.12.85-.28.58-.4 1.82-.63 3.48-.46 4.02-1.18.07-.02.13-.03.2-.05l-.01.01.12-.03c.6-.13.8-.05 1.2-.12l-.2.08c1.58-.43 2.04-.55 3.22-.82.2-.07.34-.15.5-.24l1.54-.4c-.06.04.02.05.37.01.07-.05.17-.1.28-.14.01.01.03.01.02.02.27-.08.4-.13.45-.15.14-.02.25-.04.27-.02l1.35-.34c.02.01.05.01.06.02l1.02-.3 4.47-1.15c-.07.12-.67.22-1 .33 1.44-.13 2.82-.9 4.5-1.1l.3-.2.1-.01c-.01-.04.17-.13.35-.2.01 0 .02-.01.03-.01.07 0 .15-.02.14-.01.03-.01.08-.02.1-.04.15.08.07.2.78.04.66-.05 1.8-.5 2.62-.76-.46.1-.33-.01-.14-.1.4-.1.66-.05.96-.17l.08.14c-.18-.1.83-.36 1.1-.48h.08c.16.07-.62.25-.7.35l2.42-.6c.57-.22.28-.2.15-.22.52-.1 1.13-.24 1.75-.44 1.1-.25 2.16-.7 3.26-1.07.12-.02.24-.03.36-.05.23-.08.44-.16.65-.24.15-.04.3-.1.44-.1.75-.27-.65.3.5-.05.06.08-.53.2-.2.2.97-.28 1.65-.35 2.72-.62.26-.05.5-.25.66-.48l.1-.02c.08-.14.14-.28.2-.42.1.03.27.05.5.1.72.14 2.4.83 2.32 3.5l-.07-.08.04.2v.08l.02.15.03.25a3.09 3.09 0 0 0-.35.07c-.2.06-.4.1-.6.16-.54.16-1.05.34-1.57.55-.3-.22-1.74.4-2.26.43l.04-.03c-1.24.53-2.7.47-3.9.97.04-.03.05-.12.34-.2-.9.26-2.12.62-2.23.47-2.15.57-5.2 1.23-6.52 1.83l.08-.07c-.75.37-1.02.28-1.88.58-.05-.01-.12-.01-.1-.02-.82.38-2.5.64-3.18.88l-.07-.1-1.7.44.65-.13c-.15.35-1.34.13-2.54.63-1.17.25-2.2 1.2-3.45 1.34-.54.28.45-.35-.38-.03-.07-.15.38-.2.13-.27-.83.28-1.43.18-2.44.54l-.07-.1c-1.3.55-2.6.47-3.46.9-1.38.44-1.03-.13-2.43.46l-.6-.02c-.63.13-.4.3-1.1.4.02-.1-.9.13-.5-.07-1.6.22-3.13 1-5.26 1.24-.4.3-1.47.44-1.77.68-.08-.07-2.1.5-.97.02.1-.04.27-.08.27-.04l.1-.15c-1.23.06-2.1.65-3.3.9.36-.04.8-.17.53-.01l-1.1.25.2-.16-1.63.34.25.07c-.8.13-1.13-.01-1.98.38-.38.2.8-.02-.04.23l-1.92.32-1 .17h-.17a.39.39 0 0 1-.12.17c-.02-.01-.03-.05-.06-.08l.1-.12c-.1-.1-.05-.1-.02-.3.04-.15.08-.3-.16-.98l.12.1-.35-.3c-.23-.4-.12-.5-.06-.6z"/><path d="M354.28 401.66h0l-.04.08zm-114.3-94.26c-1.5 2.87-1.98 3.3-2.85 4.72l.36-.68c-3.07 5.22-4.1 6.66-6.75 10.3-1.3 1.82-1.3 2.3-3.9 5.36.76-1.06-.3.2-1.26 1.36.6-.75.78-1-.57.47-.16.24-.42.58-.68.9-.02.01-.07.06-.06.03-1.62 1.96-1.3 1.65-.53.75-.03.06.05-.01.3-.26-1.8 1.92-4.68 5.64-5.02 5.77-4.8 5.9-8.06 10.27-12 15.24-.52.5.34-.7 1.47-2.16l-2.8 3.52c-.08-.1 1.56-2.06 2.4-3.15-3.53 4.03-6.75 8.73-10.82 13.5l-.73 1.08-.25.28c.06.02-.76 1.17-1.33 1.9-.64.62-.17-.22-2.1 2.2-1.62 1.85-4.3 5.5-6.27 8.04 1.1-1.34.8-.87.37-.26-.97 1.22-1.6 1.84-2.32 2.8l-.17.01c-.04.24-2.48 3.32-2.76 3.76-.64.62 1.42-1.95 1.6-2.3l-5.8 7.3c-1.98 2.67.5-.38-.4.95l-2 2.6a1.67 1.67 0 0 1-.76.49c-.3.1-.63.08-.93-.01-.3-.1-.54-.3-.86-.57l-1.86-1.58.73.78c-4.33-3.4-6.87-5.52-9.64-7.98-32.45-25.17-7.68-4.3-7.68-4.3a591.48 591.48 0 0 0 14.28 11.82l-.87 1.25.42-.36c-.87 1.16-.35.2-1.12 1.35l.1.05c-1.17 1.62-1.98 2.48-3.15 4.03-1.14 1.66-2.3 3.36-3.36 5.15-.27.45-.53.9-.77 1.4-.06.13-.12.24-.18.4l-.08.22-.04.2c-.23.03-.45.1-.63.24-.26.2-.45.43-.63.74-.16.3-.4.8-.53.96l-.03-.03c-.26 1.47-1.2 1.97-1.5 3.47.04-.2-.1.04-.13.01-.25.64-.54 1.32-.3 1.45-.2.45-.25.33-.38.35.1.05-.02.47-.18.82l.03-.18-.43 1.03.3-.1c-.3.5-.32.02-.5.56l.18.08c-.38.73-.85 1.04-1.32 1.7a42.85 42.85 0 0 0-1.23 2.74l-.75 1.77c-.01.02-.01.03-.02.05-1.05-.36-2.53-1.27-3.66-1.65l-.4-.33c-.42-.14-.9-.33-1.27-.6l.04-.02c-.63-.2-1.27-.6-1.58-.7l.04-.02-.72-.34.15.02a26.8 26.8 0 0 1-3.04-1.44l.01.17c-1.92-1.13-2.78-1.22-4.5-2.3l.04-.02c-2.44-.78-3.48-2-5.98-2.85.3.1-.1-.13-.05-.15l-.34-.15-.23-.5c-.15-.38-.26-.82-.35-1.2-.01-.4-.12-.76-.05-1.02.03-.26.04-.42.04-.42.2-1.3 1-2.3 1.8-3.2.82-.9 1.73-1.65 2.7-2.46.48-.4.97-.82 1.48-1.28.5-.46 1.07-1.06 1.46-1.66.87-1.2 1.72-2.54 2.75-4.1 3.62-5.44 4.67-6.82 8.24-12.57 1.25-1.97-.76-.9-2.03 1.2-.2.2.07-.3.43-.92l-.9 1.47c-.06-.06.5-.87.76-1.33-1.2 1.67-2.16 3.66-3.57 5.63l-.22.46-.1.12c.03.01-.22.5-.4.8-.24.25-.12-.1-.77.9-.57.76-1.44 2.27-2.1 3.33.38-.55.3-.35.15-.1-.33.5-.58.75-.8 1.15l-.1-.01c.2-.15-.8 1.35-.9 1.55-.25.24.48-.8.5-.95-1.35 1.97-.65 1.02-2.05 2.93-.73 1 .22-.1-.1.4-.7.83-1.54 1.56-2.58 2.34l.37-.2c-1.6 1.4-2.58 2.22-3.56 3.3-1.23 1.62-1.43 3.32-1.16 4.43.07.58.36 1 .5 1.38l.17.28a3.52 3.52 0 0 0-1.02-.2c-.67 0-1.1.22-1.07.36-.55.16-.75.3-.86.32-.1.03-.12-.02-.22-.02.05.08-.7.75-1.04 1.45a3.4 3.4 0 0 1 .16-.34c-.45.68-.6 1.3-.86 1.92l.36-.27c-.23.48-.32.5-.4.55-.04.02-.07.03-.12.12-.06.1-.14.3-.27.67l.2-.01-.6 1.03c-.05.1-.1.2-.16.3l-.1.18c-.06.12-.1.23-.16.34-.2.42-.3.72-.27.85.03.12.18.07.5-.2.23-.2.6-.6.98-1 .2.1.37.23.56.34l.28.17.2.13.36.25c.25.17.5.35.8.53 5.2 2.55 11.05 4.76 15.8 7.38l.16.24c.01.24 1.48.35 1.58.6l.6.18c.14.1.46.3.16.22.52.26.55.23.95.35l.5.4a31.52 31.52 0 0 0 3.02 1.38c.55.18 1.2.4 1.94.36.56-.02 1.13-.02 1.73-.01 2.9.27 8.34.02 11.47-.12 4.4-.32 9.54.53 14.05.17.15.03.53-.04.52-.06l1 .01-.06.05c.86.15 1.62.05 2.4-.03h.78 2 .04c.04-.01.07-.01.1-.01-.05.13-.08.13.03.2.1.12.17-.27.2.01l-.07.94c-.01.17-.03.36-.04.54-.01.17-.03.23-.07.35-.13.43-.5.8-.87 1 .14.08-.07.2-.3.3l-.06-.1c-.1.04-.2.06-.26.07s-.2 0-.27 0c-.15-.02-.22-.05-.3-.1-.14-.07-.28-.15-1.06-.1l-.27.17c-1.4.24-.76-.26-2.32.06.62-.02.3.28-.47.22l.2-.12c-.42.02-.56.07-.84.05.25-.06.13-.17-.5-.16l.42-.15-1.17.2c-.9-.13-2.34.02-2.7-.15 0 0-1.94-.1-2.4.1.4-.1-.68-.16-.37-.3-.5.13-2 .23-2.6.08l.1-.02c-2.2-.16-3.76.17-5.74-.01.1.15-.95.06-.7.25-2.04.17-3.72-.4-4.46.17-.93.03-1.1-.14-1.58-.17l.22-.03c-1.74.04-2.25.04-3.54.02-.65.05-.75.32-1.9.25.37-.1-.1-.1-.53-.1.28-.01.36-.05-.2-.13-.08.03-.2.05-.32.07 0-.01-.03-.01-.02-.03-.67.03-.54.05-.25.08-.02.02.01.04.1.07-.67-.1-1.87-.27-1.88-.5l-5.05-2.06c-.14-.17.28-.06.76.13l-1.17-.52c.07-.12.7.25 1.07.4-1.28-.85-2.94-1.16-4.46-2.1l-.38-.07-.1-.06c-.02.05-.42-.05-.66-.15-.18-.2.14-.23-.67-.6-.58-.4-1.82-.8-2.68-1.15.44.23.26.22.05.17-.4-.2-.58-.4-.9-.5l.03-.16c.1.2-1.12-.36-1.3-.37-.18-.2.67.2.8.18l-2.4-1.13c-.9-.3.1.2-.38.14-.77-.33-1.55-.6-2.38-1.1l.2.26c-1.47-.58-2.3-1-3.2-1.6-1.37-.5-2.45-.93-2.95-1.76-.25-.4-.3-.84-.3-1.18a5.53 5.53 0 0 1 .09-.84c.16-.85-.01-.82-.3-.5-.16.2-.36.5-.5.94-.15.42-.25 1-.12 1.6.12.58.4 1.04.63 1.3a7.19 7.19 0 0 0 .36.4c.57.54 1.07.85 1.6 1.16a28.4 28.4 0 0 0 1.34.68c.86.42 1.7.78 2.54 1.15l6.05 2.6c4.33 2.15 5.36 2.94 9.93 5l1.64.8 1.73.8c.7.3 1.43.45 2.14.52.77.06 1.33.02 1.9.02 1.1-.2 3.06.02 4.37-.15l.5.12c.45-.06.98-.1 1.44-.03l-.03.03c.67-.1 1.44-.03 1.77-.07l-.03.03.82-.01-.14.05a28.78 28.78 0 0 1 3.46-.04l-.1-.15c2.28.18 3.12-.12 5.18.08l-.03.03c2.6-.37 4.12.3 6.8-.06-.33.04.14.08.12.1 1.24-.03 2.56-.05 2.58-.33.9.01.73.1.85.2 0-.13.78-.17 1.48-.18l-.32.05 2.02-.03-.4-.24c1.07.07.27.3 1.3.24v-.2c.37.01.67.06 1.1.04a3.59 3.59 0 0 0 1.1-.23c.68-.27 1.36-.73 1.8-1.62.17-.4.26-.85.27-1.3v-.96l-.01-.82v-2.1l-.01-.76c-.02-.35-.01-.63-.05-1.03a3.75 3.75 0 0 0-.32-1.15c-.3-.7-.83-1.25-1.36-1.56-.53-.32-1.05-.4-1.4-.4-.2.01-.34.04-.42.08.05-.06.1-.13.12-.2.14-.07.16-.14.1-.2a2.56 2.56 0 0 0 .11-.46c.02-.18.02-.35.02-.54a1.82 1.82 0 0 0-.14-.66l.04-.1c-.56-1.07-1.35-1.67-2.04-2.25-.7-.55-1.42-.97-2.1-1.2-1.58-.58-1.43-.7-2.34-1.05-.06-.36-.24-.7-.47-.84-.33-.22-.55-.2-.62-.15-.08.06-.03.17.1.38.14.2.23.57-.02.9v.07a26.76 26.76 0 0 0-.47 1.99l-.05-.06c-.1 1.3-.14 2.1.1 3-.07.04-.1.12-.13.23-.01.05-.01.12-.01.18a.22.22 0 0 0 .01.08c.02.1.06.26.01.3v-.03a.75.75 0 0 1 .07.23c-.13.01-.3-.04-.44-.08h-.1c-.02-.01-.05-.01-.15-.01a1.83 1.83 0 0 0-.47.05c.03-.02.05-.1.22-.1-.55.03-1.3.1-1.35-.07-1.32.04-3.16-.05-4 .22l.06-.05c-.48.18-.62.02-1.16.1-.03-.02-.07-.03-.06-.04-.53.18-1.53.02-1.96.1l-.03-.1h-1.05l.4.03c-.14.3-.8-.2-1.55 0-.7-.04-1.44.63-2.18.48-.35.14.3-.23-.22-.12-.02-.16.25-.1.1-.23-.52.07-.85-.17-1.48-.06l-.03-.12c-.83.22-1.57-.17-2.12.04-.86.1-.57-.37-1.47-.13l-.35-.17c-.38-.03-.27.2-.7.12.03-.1-.53-.1-.3-.2-.48-.08-.96-.03-1.5.01a7.15 7.15 0 0 1-.76.03c-.08 0-.16-.03-.17-.1-.23.2-.3.08-.6.24.01-.01.02-.01.02-.02.13-.13.18-.35.35-.3.02 0 0 .02-.05.05l.17-.08c.37-.24-.15.01.1-.44a.71.71 0 0 1-.1.14l-.03.03c-.02.01-.04.01-.07-.02l.25-.5.04.17.47-.87-.17.07c.26-.4.53-.47.6-1.04.01-.27-.35.34-.17-.14.35-.55.88-1.37 1.26-2.1-.16.01-.06-.2 0-.4l.12.03c.2-.86.38-.18.62-1.02l-.1-.2c.1-.8.4-.27.47-1.2-.13.32-.32.03-.1-.33l.06.15c.08-.22.06-.3.15-.45 0 .15.13.14.25-.18l.04.27.07-.68c.33-.4.52-1.2.76-1.3 0 0 .53-.94.47-1.25.01.25.3-.28.35-.07 0-.3.25-1.1.52-1.34v.06c.16-.25.32-.6.28-.53.01-.03 0-.08.01-.14.03-.13.2-.1.2.04.03-.07.06-.07.1-.07.01-.01.05.01.1.02.04 0 .06-.01.07-.07.15.1.3.18.42.28s.26.22.26.24a1.08 1.08 0 0 1 .11.21c-.04.07-.01.1.1.18.01.08.03.18.05.27-.1.28-.22.43-.28.64v-.14a14.25 14.25 0 0 0-.08 2.2 1.12 1.12 0 0 0 .15.31c-.17.8.46 2.05 1.03 2.7.01.04.01.07-.01.1a5.66 5.66 0 0 0 .89 1.02 5.34 5.34 0 0 0 .4.57c.38.55.92 1.04 1.56 1.17.02.04.15.03.16.01.33.18.7.3 1.05.45a6.34 6.34 0 0 0 .78.17c.4.05.9.04 1.28-.04h.15c.16.03.36.02.58-.02.02.05.04.1.08.13.12.1.34.16.53.2.2.02.35.01.35.01 1.3 0 1.9-.63 3.04-1.6.54-.4.9-.65 1.23-.96l.12-.12.16-.2c.1-.14.23-.3.34-.46a7.75 7.75 0 0 0 .5-1l.58.1a5.39 5.39 0 0 0 1.08.12c.48 0 .5-.16.35-.37-.33-.42-1.46-1.04-1.46-1.04l-.1-.05-.17-.1c-.12-.06-.23-.12-.34-.18-.23-.12-.46-.23-.68-.34l-1.3-.62c-.03.07-.05.13-.08.2-.25-.1-.42-.22-.65-.2l-.06-.16c-.12.01-.25 0-.32-.1l.02-.03c-.18.02-.32-.1-.4-.1l.02-.03-.18-.06.05-.03c-.3-.02-.55-.14-.76-.28l-.04.14c-.42-.37-.72-.17-1.08-.54l.02-.03c-.7.1-.77-.63-1.5-.56.1-.01 0-.08.02-.1-.28-.08-.57-.2-.7.07-.2-.1-.12-.15-.1-.26-.05.1-.24.1-.4.03l.1-.01-.45-.15-.01.25c-.2-.16.06-.3-.18-.33l-.08.18c-.3-.18-.36-.53-.6-.8a5.3 5.3 0 0 0-.98-.4c-.17-.06-.34-.1-.5-.17l-.74-.27c-.16-.14-.35-.27-.52-.4l.16.07-.75-.53-.53-.4a12.01 12.01 0 0 1-.37-.3l-.57-.48v.2a4.5 4.5 0 0 0-.37-.28c-.02-.08-.02-.15.01-.18-.01.08.01.08.04.1-.01-.03 0-.03.01-.07l.1-.2c.1-.16.16-.32.26-.5l.6-1-.23.24c.63-.97.96-1.24 1.6-2.4.28-.53-.7.87-.04-.18l3.44-4.8c-.18.1.13-.34.43-.8h.1c1.13-1.8.58-.54 1.72-2.3l-.06.18.2-.54c.27-.45.44-.7.58-.88l.87.7 2.03 1.6c1.2.8 2.83.7 3.9-.24.27-.23.5-.54.6-.66l.4-.5.8-1.04 1.68-2.16 7.8-10 24.52-30.22 16.1-19.66c2.42-3.1 6.72-8.52 9.02-12.56l1.05-1.46 2.53-4.4-.02.1c1.18-2.18 3.42-9.28-.48-2.92zm-58.05 113.5c.85-.1-.75.14.53.07.04.1-.6.06-.27.14.6-.03 1.3.04 1.85-.52.01-.01.02-.03.03-.04.01.1.22.16.58.34.35.2.88.52 1.24 1.2a2.72 2.72 0 0 1 .33 1.22c.03.4-.1 1.1-.18 1.75l-.05-.1c-.01.17-.01.2-.02.25l-.02.15-.03.25c-.2-.05-1.77-.02-2.86.16-.25-.3-1.86-.03-2.4-.12l.05-.02c-1.38.22-2.84-.18-4.17.01.05-.02.08-.1.4-.1-.97.04-2.3.1-2.37-.07-2.3.04-5.54-.03-7.03.23l.1-.05c-.84.18-1.1.03-2.04.12-.05-.02-.12-.03-.1-.04-.92.18-2.7.03-3.43.1l-.05-.1-1.83.03.68.02c-.24.3-1.4-.2-2.72.01-1.24-.04-2.52.64-3.8.5-.62.14.54-.23-.38-.12-.03-.16.43-.1.2-.23-.9.08-1.48-.16-2.6-.06l-.05-.12c-1.15.22-2.25-.96-3.2-1.1-1.4-.55-.76-.77-2.27-1.2l-.48-.4c-.6-.3-.52-.02-1.15-.4.08-.08-.8-.48-.38-.38-1.45-.87-3.17-1.24-5.05-2.44-.52-.02-1.47-.6-1.86-.6-.02-.1-2-.96-.8-.6.1.03.27.1.25.14l.2-.05c-1.04-.75-2.12-.86-3.23-1.43.32.2.77.4.43.33l-1.04-.5.26.01-1.53-.8.16.22c-.74-.42-.9-.74-1.85-.98-.43-.1.65.5-.17.15l-1.76-1-1.82-.98c-.05.13-.13.1-.26.06l.12-.08c-.14.01-.1-.06-.07-.1s.07-.05.12-.06l.1-.02c.01 0 .02 0 .02-.01.01-.04.08-.23.13-.4l.03.15-.1-.46c.13-.68.26-.8.4-.94.14-.1.2-.27.43-.76-.25.35-.37-.06.1-.38-.01.05-.02.12-.03.18.2-.2.25-.28.42-.33-.1.13 0 .16.3.07a.74.74 0 0 0-.16.2 1.08 1.08 0 0 1 .59-.27c.1.04.33.12.4.16a22.83 22.83 0 0 0 .7.35c.45.22.84.42.97.57 0 0 1.66.9 2.13.94-.4-.07.52.44.2.43.5.1 1.84.65 2.3 1.03l-.1-.03c1.86 1.08 3.37 1.45 5.02 2.46-.01-.17.86.35.72.08 1.86.72 3.08 1.95 3.98 1.76.82.37.9.6 1.3.83l-.2-.07c1.54.7 1.98.93 3.1 1.5.3.1.5.12.74.17a27.29 27.29 0 0 0 .94.46c.01.01.02.01.03.02.08.05.16.1.3.15-.07-.02-.16-.03-.46-.18a19.89 19.89 0 0 1 .47.23c0 .02.14.1.44.3.03 0 .07.01.1.01.12-.03.35-.05.46-.07 0 .01.03.01.02.03.7-.04.58-.07.25-.08.01-.01-.01-.03-.06-.05h.1c.75.1 1.9-.02 1.98.15 1.02-.02 1.9-.07 2.73-.13l2.5-.03c-.14.03-.34.06-.57.07l1.25-.03c-.01.13-.72.08-1.1.1 1.5.22 3.07-.22 4.8-.02l.36-.1.1.02c-.01-.06.4-.13.64-.15.25.12-.02.27.85.26.68.1 1.94-.06 2.83-.12-.48-.02-.33-.08-.12-.13.43 0 .68.1 1 .06l.04.16c-.17-.15 1.13-.16 1.3-.22.25.12-.67.1-.78.2l2.6-.02c.92-.12-.17-.15.27-.3.05 0 .1-.01.14-.01l.8-.01h-.53c.25-.02.5-.03.76-.04.7.03 1.6.08 2.58.01.6 0 1.2-.05 1.8-.1.06.01.13.01.2.02l2.07-.23a14.37 14.37 0 0 1 1.29-.03zm-2.56-5.28a12.33 12.33 0 0 1 .97.43 10.94 10.94 0 0 1 1.78 1.13c.54.42 1.06.93 1.32 1.47l.07.2c.01.06.02.1.03.16 0 .16 0 .36-.02.5-.02.13-.04.22-.07.3-1-.15-2.43-.22-2.43-.22-1.06-.07-2-.1-2.9-.1l.01-.57s.01-2.14-.1-3.86l.25.12c.37.16.73.3 1.1.45zm-15.53-7.02v-.14c.16.14.14.37.42.3.14-.05-.1-.24.1-.18.2.2.53.48.83.65.03-.14.1-.1.2-.1l-.04.12c.4-.01.01.3.4.33l.13-.13c.4-.1.06.3.53.15-.14-.04.05-.28.2-.16l-.1.1c.1.02.15-.02.2.03-.08.04-.1.15.04.2l-.15.1.34-.1c.14.2.5.2.52.38 0 0 .38.26.55.13-.13.07.08.2-.04.3.16-.07.52-.03.6.16h-.03c.4.34.88.18 1.23.53.04-.14.23.03.25-.16.5.03.64.7 1.03.25.2.06.18.23.27.3l-.06.01c.4.12.5.17.77.3.17.02.3-.22.4-.1-.1.07-.04.08 0 .1-.04 0-.07.03-.07.1.03-.02.06-.03.08-.04l-.02.02c.1 0 .12-.02.1-.05.01-.01.03-.03.04-.05-.03.13.25.1.06.2.06.02.13.03.2.03.08.01.05.06.08.1a.48.48 0 0 1 .04.3c-.12.01-.18-.05-.2-.1-.01.04-.02.1-.03.13-.14-.03-.04-.08-.05-.12-.3.1.1.3-.32.5l.03.13-.03.01c.04.03.05.15.02.2-.12-.04-.2-.18-.32-.05-.17.03-.25.32-.36.5.1-.05.1.02.1.08-.07.06-.2 0-.2.1l-.1-.12c.12.1-.1.27-.1.34-.1-.07.06-.16.03-.25-.3.2-.14.1-.45.3-.1.2.1.1.1.28-.15.1-.26.3-.5.3l.12.1c-.28.24-.5.3-.77.23-.2.15-.34.28-.5.4-.24.05-.47.1-.72.13-.06.01-.1.01-.17.01-.22-.2-.6-.4-1.1-.76l.03-.04c-.46-.17-.7-.26-1.1-.12.04-.3-.36-.15-.43-.28l.02-.02c-.36.08-.45-.4-.77-.4.02-.01.07-.08.12-.05-.2-.06-.45-.18-.36-.32-.42-.23-.8-.75-1.2-.83l.05-.01c-.25-.03-.17-.16-.35-.27.01-.02.01-.04.02-.04-.26-.07-.33-.47-.45-.58l.1-.06c-.06-.1-.14-.22-.18-.34l.03.15c-.3.07.07-.35-.2-.54-.02-.25-.77-.38-.66-.7-.17-.12.25.1.1-.1.16-.03.1.08.23.01-.1-.2.1-.32 0-.54l.12-.01c-.23-.3.18-.58-.01-.8-.06-.33.4-.22.2-.5.06-.01.12-.01.17-.01.03-.03-.2-.12-.1-.15.1.06.1-.02.18.07.08.01.04-.06.02-.16-.02-.08-.03-.27.12-.01-.08-.26.05-.07.03-.25.03.1.16.1.1.27 0 .02-.01.01-.02-.03l.01.14c.04.27.05-.12.18-.02-.04-.06-.05-.05-.01-.13 0 .01.1.06.18.1l-.1.07.35.2z"/><path d="M184.46 379.13h.05c0-.03-.01-.03-.05 0zm104 1.34l.02-.05c-.02-.01-.03 0-.02.05zm16.47-4.97c-2.56-5.42-4.2-8.06-7.5-14.38-2.82-5.6-3.43-7.15-6.45-12.9l-4.33-8.38c-.77-1.22-1.8-3.54-2.68-5l-.24-.62c-.3-.5-.63-1.1-.87-1.65l.04.02c-.45-.75-.87-1.65-1.1-2.02l.04.02-.5-.94.1.15a69.74 69.74 0 0 1-2.07-3.98l-.03.14c-1.26-2.68-1.92-3.57-3.03-6l.04.02c-1.74-2.9-2.3-4.83-4.08-7.84.22.37-.04-.2-.01-.16-.75-1.42-1.55-2.94-1.7-2.88-.53-1.04-.4-.87-.4-1.04-.06.04-.55-.85-.97-1.66l.22.36-1.2-2.32.1.52c-.6-1.25-.01-.4-.64-1.56l-.1.07c-.85-1.72-1.2-2.8-1.98-4.5L255 278.32l-.1-.32c.05-.18-1.07-1.68-1.1-1.98l-.43-.72c-.1-.22-.3-.67-.07-.3-.35-.7-.37-.7-.66-1.18l-.3-.78c-1.33-2.75-2.64-5-4.06-7.87-1.6-3.5-5-9.92-6.96-13.62-2.8-5.16-5.4-11.5-8.3-16.8-.07-.18-.33-.62-.35-.6l-2.44-4.94-4.9-9.64c-1.93-3.66-2.88-5 1.13 4.35l-.1-.1c1.28 2.73 2.1 4.44 3.16 6.24-.01.37 1.1 2.23 1.35 2.88l-.04-.05c.94 1.6 1.6 3.44 2.5 4.97-.04-.06-.1-.07-.3-.43.6 1.15 1.42 2.7 1.37 2.84 1.4 2.75 3.3 6.62 4.32 8.3l-.1-.1c.6.96.67 1.3 1.28 2.4.02.07.05.15.04.14.65 1.05 1.62 3.2 2.1 4.06l-.03.1 1.1 2.17-.4-.82c.3.2.73 1.7 1.63 3.23.73 1.5 1.86 2.83 2.56 4.4.45.7-.45-.58.16.48-.07.08-.3-.48-.24-.17.6 1.06.8 1.8 1.54 3.1l-.04.1c1 1.67 1.57 3.3 2.27 4.4.96 1.76.4 1.3 1.48 3.1l.28.77c.4.8.4.5.8 1.42-.08-.02.52 1.14.2.65.93 2.04 2.2 3.98 3.38 6.68.4.5 1 1.87 1.3 2.25-.01.1 1.35 2.65.48 1.22-.07-.12-.2-.35-.16-.34l-.16-.14c.64 1.56 1.46 2.68 2.2 4.17-.2-.45-.5-1.03-.26-.66l.7 1.38-.2-.26 1.02 2.06-.08-.32c.48 1.02.55 1.43 1.23 2.5.32.48-.4-1 .17.05l2.46 5.12c-.01-.2.23.26.5.73l-.04.1c1.02 1.77.2.74 1.2 2.5l-.13-.14.38.4c.96 1.56.3.95 1.4 2.66-.38-.7-.03-.4.4.48l-.18-.2c.26.48.37.63.52.96-.18-.27-.17-.1.2.6l-.33-.44.8 1.3c.47 1.08 1.4 2.7 1.53 3.17 0 0 1.1 2.27 1.47 2.73-.3-.42.32.83.06.52.37.55 1.3 2.24 1.58 2.96l-.08-.13c1.23 2.58 2.33 4.3 3.4 6.63.02-.14.6 1.08.54.74 1.3 2.3 2 4.4 2.74 5.1.57 1.07.58 1.3.85 1.87l-.15-.25 2.1 4.08c.4.73.6.78 1.26 2.13-.28-.4.01.14.27.64-.17-.32-.24-.4.05.27.06.08.15.22.23.35 0 .01.01.04 0 .03.45.83.4.67.2.28.02.02.01-.02-.03-.15.37.9 1.24 2.4 1.2 2.57 1.3 2.5 2.32 4.24 3.43 6.3.07.26-.22-.2-.55-.8l.78 1.47c-.08.02-.48-.83-.72-1.28.8 1.82 1.98 3.58 2.93 5.7l.28.4.05.13c.03-.02.3.42.47.72.1.32-.15.05.37 1.08.35.84 1.2 2.3 1.78 3.33-.28-.58-.15-.4-.01-.18.26.5.35.84.58 1.22l-.06.1c-.02-.24.77 1.3.9 1.47.1.32-.46-.77-.57-.87l1.6 3.08c.62 1.06-.02-.24.32.25.5.96 1.05 1.87 1.57 3l-.1-.4c1 1.8 1.54 2.88 2.1 4.14 7.6 13.24 2.35 2.44 2.35 2.44zm-147.34-8.2c2.4-3.26 3.37-5.13 6-9.17 2.4-3.5 3.16-4.34 5.55-8.02l3.52-5.32c.44-.88 1.5-2.23 2.05-3.25l.3-.33c.2-.35.43-.75.68-1.06v.03c.28-.52.68-1.06.82-1.32v.03l.4-.6-.04.12c.53-.9 1.12-1.77 1.66-2.54l-.12.02c1.2-1.6 1.46-2.32 2.56-3.76v.03c1.08-2.03 2.14-2.9 3.28-5-.14.26.1-.08.1-.05.58-.9 1.22-1.88 1.1-2 .44-.66.4-.5.52-.55-.06-.04.3-.63.63-1.14l-.13.25.96-1.48-.3.2c.56-.76.28-.1.75-.87l-.1-.06c.74-1.06 1.3-1.6 2.1-2.6 2.95-4.3 5.83-9.13 8.7-13.05l.2-.13c.16-.01.6-1.22.8-1.3l.27-.5c.1-.12.3-.38.18-.13.3-.43.28-.45.46-.8l.37-.43c1.14-1.74 2.04-3.26 3.1-5.17 1.5-2.17 3.5-6.72 4.5-9.37 1.33-3.76 3.26-8.03 4-12.1.05-.13.1-.47.08-.47.3-1.2.54-2.44.78-3.67 0 0 .2-1.12.42-2.6.2-1.48.4-3.3.42-4.72.04-1.4-.06-2.4-.2-2.16-.16.24-.33 1.7-.98 5.04l-.02-.1c-.3 2-.55 3.25-.65 4.65-.2.18-.35 1.63-.5 2.08v-.05c-.1 1.24-.7 2.45-.85 3.63 0-.05-.04-.08.02-.35-.2.84-.5 2-.6 2.03-.25 1-.64 2.18-1 3.27-.33 1.1-.68 2.1-.84 2.74l.01-.1c-.17.75-.33.92-.58 1.73-.03.04-.06.1-.06.08-.2.8-.93 2.22-1.15 2.85l-.08.01c-.22.5-.4 1.02-.66 1.5.1-.18.2-.36.28-.55.1.28-.65 1.07-1.06 2.2-.26.5-.42 1.04-.6 1.6-.2.55-.4 1.08-.73 1.57-.2.53.12-.5-.23.26-.1-.02.14-.37-.03-.22-.36.73-.73 1.1-1.17 2.02h-.08c-.56 1.18-1.4 2.03-1.74 2.84-.67 1.17-.65.64-1.32 1.9l-.4.4c-.35.5-.14.43-.55.95-.03-.07-.5.67-.34.3-.92 1.2-1.6 2.63-2.84 4.2-.14.43-.76 1.22-.86 1.54-.07.01-1.13 1.66-.6.66.05-.1.14-.23.15-.2l.01-.15c-.75.87-1.1 1.76-1.73 2.68.2-.26.45-.63.32-.36l-.6.86.07-.2-.9 1.27.18-.14c-.46.6-.7.76-1.1 1.53-.17.36.5-.54.06.14l-2.27 3.1c.14-.05-.06.24-.24.54h-.1c-.68 1.2-.42.33-1.1 1.5l-.05.26c-.56 1.1-.5.47-1.1 1.72.3-.46.28-.12-.12.42l.03-.18c-.2.32-.24.43-.4.63.1-.2-.02-.16-.3.3l.13-.35-.46.93c-.5.62-1.13 1.7-1.4 1.93 0 0-1 1.4-1.12 1.77.13-.32-.4.44-.33.18-.18.4-.85 1.53-1.2 1.92l.05-.1c-1.15 1.56-1.74 2.8-2.8 4.2.12-.02-.43.72-.22.6-.9 1.55-2 2.6-2.1 3.32-.44.7-.6.76-.85 1.1l.1-.17-1.7 2.6c-.3.5-.2.65-.8 1.47.13-.3-.1.04-.3.36.13-.2.15-.28-.16.1-.02.07-.07.17-.12.26-.01 0-.02.02-.02 0-.33.54-.26.46-.1.22 0 .02.02 0 .1-.06-.43.5-1.02 1.53-1.15 1.53-1.04 1.6-1.7 2.8-2.56 4.13-.15.12.02-.22.26-.6l-.6.95c-.06-.05.32-.56.5-.86-.85 1.04-1.43 2.37-2.4 3.6l-.13.3-.06.07c.03.01-.13.33-.25.53-.18.15-.13-.1-.56.55-.4.47-.95 1.47-1.36 2.16.25-.35.2-.22.12-.05-.2.32-.4.47-.54.74l-.1-.02c.16-.08-.5.9-.53 1.04-.18.14.3-.53.3-.64l-1.3 1.95c-.4.73.16-.08.01.3-.4.62-.74 1.25-1.26 1.92l.22-.17c-.72 1.18-1.18 1.86-1.77 2.6-5.16 8.9-.43 2.3-.43 2.3z"/><path d="M186.46 321.6h0l.02-.13z"/></svg>