<svg xmlns="http://www.w3.org/2000/svg" viewBox="0 0 480 480" xmlns:v="https://vecta.io/nano"><g fill="#fff"><path d="M368.62 414.4l-.8-2.8h-.02l-.87.24c.02-.01.05-.03.07-.04l1.12-.3s-.05-.14-.17-.38c.43-.42.1-.55-.33-.57a8.09 8.09 0 0 0-1.31-1.55s-1.33-1.82-4.12-2.55c-1.13-.58-2.68-.82-4.5-.94-2.74-.55-6.4-1.2-10.2-1.87l-7.76-1.43s.01.05.01.12l-11.8-1.92s-.46.01-.9.45c-1.46-.52-2.5-1.1-3-1.75-2.9-3.9-9.5-26.6-15.7-52.4-5-21.2-9-41.4-12.6-53.6l-2.7-8.67a86.17 86.17 0 0 0 3.31-1.93c1-.7 1.5-1.9 1.1-3.1-1.7-5.4-6.9-21.3-15.4-41.4-5.5-13-15.6-31-15.6-31l-67.7 1s.7 19.8-6.2 48.4c-2.6 11-8.4 21.2-10.6 24.9-.6.9-.4 2.2.4 2.9 1.97 1.87 6.37 5.32 14.4 8.4-.97 2.18-1.9 4.06-2.7 5.4-3.3 5.5-12.6 15.8-22.5 34.5-8.3 15.7-9.5 27.3-22.1 50.6-2.42 4.32-7.07 13.62-10.42 18.2-.48-.04-1.1.3-1.58.8-1 1-3 2.6-3.9 6.3-.43 1.85-.63 3.05-.73 3.7-.18.04-.23.17-.06.43-.01.1-.02.16-.02.16l.22.1a4.02 4.02 0 0 0 .21.23l-.5-.23h-.02l-.9 2.7c-.8 2.7 3.3 3.9 4.8 4.6l25 12c.7.3 1.4.4 2.1.4h.02l25.08-.2a2.11 2.11 0 0 0 .5.01c1.2-.1 2.2-1.18 2.3-2.4l.2-2.9h-.02s0-.17-.03-.45c.46-.26.26-.46-.1-.6-.1-.47-.28-1.07-.6-1.76h.03s-1.1-2.9-3.8-4.6c-2-1.2-7.1-3.4-11.9-5-1.9-.7-4.5-3-4.5-3s-.01.04-.03.1c-1.47-1.73-5.17-6.33-6.32-7.76-1.12-2.03-1.82-3.6-1.55-3.94 3.8-9.6 24.2-40.8 58.4-83.2 2.06-2.06 8.86-10.56 12.87-17.96a123.83 123.83 0 0 0 27.06-2.7c2.77 5.3 4.8 9.44 5.07 10.67 1.9 8.7 5.2 25 13.5 44.2l22.8 49.5c1.2 3.5 4 10.4 3.5 13.9a23.6 23.6 0 0 0-.22 2.05c-.38.17-.68.56-.68.95.1 1.3.4 3 .9 4.7.9 2.9 2.6 5.4 2.6 5.4l.25-.07c.01 0 .02.01.03.01l-.6.16.8 2.9c.35 1.23 1.47 2 2.68 1.9a2.54 2.54 0 0 0 .54-.09l54.4-14.7c1.43-.4 2.23-1.8 1.83-3.2zM326 399.94c.08.04.18.07.26.1l-.26-.1zm14 26.1l.1-.04h-.02zm-48.94-49.8l.01-.04c-.02-.02-.02-.01-.01.04zM160.83 357l.45-1.08c-.03.02-.14.3-.45 1.08zm6.53 35.3l-.13.24c.03-.07.08-.16.13-.24zm-8.7 39.8l.1.04-.01-.01zm-4.18-60.04l.03-.02c0-.02-.01-.02-.03.02z"/><path d="M167.86 339.08l-.48 1.14.48-1.14zm-.6 1.26l.36-.83-.36.83zm116.6 20.44l-.48-1.12c-.01.02.1.3.48 1.12zm-23.3-63.25l.28-.07c-.02 0-.03.01-.05.01l-.23.06zm30.52 78.7l.01-.04c-.02-.02-.02-.01-.01.04zm-129.78-20.3c-.02.01-.14.28-.45 1.08l.45-1.08zm5.95 36.6l.13-.24-.13.24zm-8.57 39.56l.1.04-.01-.01z"/><path d="M154.53 372.04c0-.02 0-.02-.03.02l.03-.02zm13.35-32.96l-.48 1.14.48-1.14zm-.24.42l-.36.83.36-.83zm116.26 21.28l-.48-1.12c-.01.02.1.3.48 1.12z"/></g><path d="M369.5 414.4l-.06-.5-.07-.48-.43-1.52c.05-.02.13-.03.1-.08l-.08-.2-.3-.7-.16-.57c-.04.01-.1.02-.13.04l-.15-.27.04.3-.1.03c-.23-.46-.28-.6-.27-.68-.01-.06-.01-.1-.1-.24-.04-.06-.1-.15-.2-.25-.06-.08-.14-.17-.26-.3l-.13.14-.57-.63-.08-.1-.02-.16c.06-.05-.24-.3-.54-.5l-.4-.25c-.02-.02-.04-.04-.06-.05-.04-.03-.08-.07-.12-.1l-.02-.02c-.5-.45-1.04-.86-1.77-1.26-1.73-.8-3.55-1.1-5.3-1.44l-5.27-.9c-3.5-.57-6.94-1.12-10.1-1.83l-.26-.2c-.1-.23-1.8.02-2.02-.22l-.76-.03c-.2-.07-.63-.2-.26-.17-.68-.12-.7-.1-1.2-.1l-.7-.25c-2.7-.55-5.03-.67-7.87-1.18-.42-.1-.9-.2-1.4-.3-.1-.02-.37-.07-.57-.1-.22-.02-.46.04-.7.1-.37.12-.7.35-.97.6-.15-.07-.33-.16-.3-.15-.34-.16-.73-.33-1.08-.6-.37-.24-.63-.56-.9-1.02-.53-.86-1-1.92-1.4-2.95-.85-2.07-1.54-4.14-1.98-5.35l.01-.18c-.68-2-1.33-4.02-1.95-6.04l.7 2.27c-.43-.73-1.33-4.62-2.7-9.02-1.17-4.15-2.72-8.33-3.78-12.7-.62-2.05.6 1.8-.26-1.3.07-.13.43 1.43.3.6-.84-3.03-1.2-5-2.2-8.75l.03-.17c-1.36-4.87-2.17-9.28-3.05-12.52-1.23-5.06-.57-3.45-1.9-8.7l-.36-2.08c-.5-2.27-.48-1.6-1-4.12.1.14-.66-3.2-.27-1.73-1.17-5.7-2.7-11.52-4.3-19.03-.5-1.6-1.35-5.37-1.75-6.55.02-.22-2-7.5-.74-3.33.1.36.28 1 .24.96l.2.48c-.5-2.14-1.04-4.07-1.66-5.96l-1.9-5.82c.36 1.23.88 2.86.5 1.78l-.95-3.03.06-.03 1.37-.8 1.54-.95c.1-.06.27-.2.38-.3.24-.2.46-.44.66-.7.4-.54.67-1.23.7-2a3.52 3.52 0 0 0-.14-1.16l-.25-.9.05.06c-2.36-6.06-2.98-9.84-5.6-16.02.33.77-.05-.36 0-.3-1.1-2.88-2.28-5.96-2.56-5.9-.8-2.1-.57-1.74-.57-2.05-.12.06-.85-1.75-1.5-3.37l.34.73-1.9-4.66.15 1c-.93-2.5.02-.74-1-3.08l-.17.1c-1.36-3.43-1.9-5.53-3.2-8.88-2.96-6.83-6.54-13.65-10.13-20.3l-2.7-4.95-2.14-3.87-.26-.46c-.02-.04-.04-.1-.07-.1h-.4l-1 .01-10.68.04-.6-.14c-.27-.2-3.8.37-4.32.18l-1.6.12c-.45-.03-1.4-.06-.6-.12-1.48.01-1.52.05-2.58.13l-1.6-.1c-5.85-.02-10.8.3-16.96.35-3.48-.08-8.4-.02-13.48.1l-15.15.43.07 2.32c.16 5.6-.4 11.66-1.2 17.7-.8 6.05-1.84 12.1-2.75 17.76-.05.18-.1.5-.14.8s-.07.52-.05.52l-1.1 5.14-1.2 5.12-.53 2.02c-.36 1.25-.87 3-1.57 4.95-1.37 3.9-3.45 8.62-5.2 12.14-1.74 3.53-3.06 5.94-2.5 5.5.27-.23 1-1.17 2.28-3.12 1.26-1.96 3.07-4.92 5.2-9.34l-.06.26c2.37-5.32 3.48-8.88 4.2-12.84.4-.55 1.12-4.63 1.46-5.94v.13c.5-3.5 1.63-7.1 1.98-10.5 0 .13.07.22-.06 1l.6-3.85c.17-1.17.32-2.05.42-2.13.43-2.94.84-6.47 1.16-9.75.3-3.28.47-6.3.43-8.2l.03.26c-.06-2.17.12-2.8.1-5.23.03-.13.04-.3.05-.28-.06-.9-.06-2.55-.08-2.96l2.23-.03c.9-.01 1.7-.02 2.27-.06l.12.1 4.68-.1h-1.75c.6-.32 3.54.14 6.94-.1 3.18-.01 6.43-.73 9.74-.63 1.57-.17-1.38.25.97.1.08.16-1.1.12-.5.23 2.3-.1 3.8.1 6.64-.04l.12.12c3.7-.28 7 .06 9.48-.2 3.83-.16 2.58.33 6.56.03l1.55.15c1.7 0 1.22-.22 3.1-.17-.1.1 2.4.05 1.3.17 2.14.05 4.32-.04 6.66-.12l3.66-.1h1.96l.5.01.12.02c.1-.03.1.13.14.23.02-.02.16.2.26.34l.34.54.72 1.24c.48.85.94 1.67 1.22 2.04 0 .17 2.67 5.02 1 2.3-.14-.23-.37-.66-.32-.65l-.3-.28c1.3 2.94 2.85 5.1 4.27 7.94-.4-.86-.98-1.97-.52-1.26l1.33 2.64-.37-.5 1.92 3.95-.15-.6c.9 1.96 1.03 2.73 2.25 4.84.56.95-.73-1.9.3.12 1.17 2.64 2.8 6.6 4.16 10 0-.37.38.54.8 1.47l-.07.16c1.63 3.55.3 1.42 1.87 4.96l.4.57c1.52 3.16.46 1.84 2.18 5.34-.57-1.42 0-.77.62 1l-.28-.4c.4.97.57 1.27.8 1.93-.28-.56-.28-.25.28 1.18l-.5-.9 1.23 2.64c.66 2.15 2.03 5.43 2.18 6.36 0 0 1.54 4.57 2.06 5.56-.42-.88.4 1.65.02.98.53 1.14 1.8 4.6 2.1 6.05l-.1-.26.57 1.9c.1.36.15.47.16.65.01.16 0 .33-.04.48-.08.3-.3.62-.56.84-.03.02-.04.04-.1.07l-.18.1-1.05.66c-1.9 1.16-3.8 2.24-6.03 3.24.27.05-2.1 1.08-1.43.97-4.5 2.32-8.58 3.28-10.1 4.4-2.16.8-2.6.8-3.75 1.12l.5-.2c-4.08 1.37-5.3 1.65-8.4 2.48-1.54.4-1.73.73-4.53 1.3.88-.3-.25-.01-1.3.17.67-.14.87-.22-.53-.03-.2.07-.48.14-.76.2-.01-.01-.07 0-.04-.02-1.75.36-1.44.34-.62.2-.04.02.03.03.3.01-1.84.26-5.1.84-5.35.7-5.3.8-9.14 1.2-13.6 1.44-.5-.07.54-.2 1.83-.3-1.06.04-2.1.16-3.17.14.03-.1 1.82-.1 2.8-.2l-5.86.08c-2.03.1-4.14.03-6.35-.2l-.92.06-.26-.03c.01.06-1 .1-1.65.03-.62-.17.06-.26-2.12-.45-1.72-.22-4.9-.48-7.16-.7 1.2.17.8.2.28.16-1.1-.15-1.7-.4-2.53-.48l-.06-.14c-.17.08-2.9-.34-3.27-.4-.6-.23 1.68.25 1.98.18-2.17-.36-2.7-.54-3.23-.63-.53-.14-1.1-.17-3.2-.73-2.3-.48.38.25-.74.1-2.02-.47-4-.97-6.2-1.82l.66.4c-3.72-1.18-5.86-2.16-8.16-3.42-3.3-1.5-5.73-3-7.5-4.25-.44-.32-.85-.6-1.2-.9-.35-.3-.72-.52-1-.9a2.79 2.79 0 0 1-.51-2.05 2.55 2.55 0 0 1 .22-.75l.2-.44c.1-.23.14-.36.12-.4-.02-.1-.25.1-.6.5-.5.6-.84 1.77-.44 2.93a3.4 3.4 0 0 0 .43.85c.2.28.45.5.58.64.33.3.64.64.98.93a29.27 29.27 0 0 0 2.55 2.03c2.4 1.72 4.68 3 6.9 4 2.2 1.05 4.36 1.84 6.6 2.58 4.48 1.43 9.33 2.57 16.15 3.6 3 .43 5.44.8 7.64 1l3.12.33c1 .1 1.96.14 2.93.2l2.96.2c.42.02.85.03 1.28.03a89.04 89.04 0 0 1-3.63 5.79c-2.77 4.07-5.73 7.88-8.94 11.46l-8.73 10.87-.56.57c-.32.2-2.92 4.02-3.42 4.5l-1.23 1.7c-.38.45-1.15 1.42-.54.58-1.2 1.53-1.2 1.58-2.02 2.7l-1.32 1.6c-4.66 6.04-8.44 11.32-13.17 17.8-5.84 7.7-16.06 22.72-21.3 31.8-1.88 3.25-3.83 6.62-5.44 10.35-.13.25-.08.58-.04.8a6.75 6.75 0 0 0 .17.58c.1.25.2.5.3.73a2.07 2.07 0 0 0-.62.12c-.94.34-1.45 1.07-1.8 1.4-.4.44-.85.9-1.27 1.45-.4.55-.8 1.26-.9 2.05-.1.8.07 1.48.32 2.08.22.46.32.54.46.8l.38.6.52.8.43.7a12.77 12.77 0 0 1 .44.79l.1.18.04.1c.03.03.02.06-.02.08-.13.08-.3.12-.44.12-.32-.02-.6-.2-.75-.42-.06-.08-1.13-1.52-2-2.56l-.37-.42c-.12-.13-.26-.28-.5-.5-.43-.4-1.14-.5-1.58-.43-.6.02-1.26.02-1.9.03-.16-.04-.6-.01-.6.02-1.54-.14-3.08-.38-4.55-.76 0 0-.35-.08-.87-.24-.53-.15-1.24-.45-2.02-.85-.77-.4-1.57-.95-2.23-1.62-.67-.66-1.2-1.45-1.66-2.2s-.93-1.46-1.4-1.82c-.06-.05-.1-.07-.15-.1.88-1.24 1.65-2.46 2.37-3.67 1.6-2.7 3-5.28 4.4-7.95 2.76-5.35 5.92-10.94 9.6-19.1 3.26-7.16 5.03-11.8 6.84-16.5 1.83-4.7 3.46-9.52 6.83-16.85 3.33-6.93 7.5-14.08 11.62-20.4 1.84-3.08 5.6-8.17 8.06-11.64l1.04-1.3 2.7-3.82-.04.1c3.6-5.58.7-3.48.2-2.35-1.6 2.53-2.05 2.9-2.96 4.15l.4-.6-6.74 9.32c-1.18 1.74-1.25 2.1-3.37 5.2.62-1.05-.22.24-1 1.42.5-.76.6-1-.43.52-.12.23-.33.58-.53.9-.01.01-.06.07-.04.03-1.25 2-1 1.67-.42.74-.02.05.04-.02.24-.3-1.4 2-3.54 5.8-3.78 6-3.52 6.13-5.76 10.7-8 16.12-.23.44-.02-.16.37-1.14l-1.14 2.7c-.02-.02.1-.4.32-.9-1.62 3.85-3.02 8-4.78 12.44l-.37 1.15-.13.32c.02 0-.08.3-.2.7-.15.4-.32.92-.46 1.32-.36.74-.13-.1-1.17 2.57-.9 2.08-2.4 6-3.6 8.7.67-1.46.5-.97.23-.33-.6 1.3-.98 2.04-1.44 3.05l-.1.07c-.02.2-1.56 3.5-1.77 3.94-.43.7.94-2.02 1.03-2.38l-1.9 3.88c-.32.65-.64 1.3-1.98 3.83-1.37 2.75.34-.45-.27.9l-4 7.5.54-.83c-2.36 4.53-3.85 7.2-5.75 10.06-.32.52-.63 1-.95 1.48-.17-.07-.36-.13-.55-.13-.33-.02-.64.04-.92.13-.55.18-1 .5-1.4.82-.56.46-1.1.96-1.1.96-2.12 1.94-3.02 4.26-3.4 6.4a36.46 36.46 0 0 0-.27 1.62l-.12.86-.06.5c-.04.27-.07.55-.1.82l-.06.82c.01.06-.05.16.03.18l.13.06-.14.53-.1.4c-.1.5-.13.85-.07.98s.2.04.47-.34c.13-.2.3-.46.5-.8.07-.12.14-.24.22-.36l2.96 1.25c4.9 2.3 6.1 3.14 11.28 5.36 2.44 1.13 5.07 2.25 7.47 3.3 1.22.32 3.14 1.42 4.55 1.86l.47.34c.5.15 1.05.36 1.48.63h-.04c.73.23 1.48.63 1.85.75l-.04.02.85.37-.16-.02.27.1.42.17 1.1-.03.86-.01c.57 0 1.13.01 1.65.03l-.1-.15c2.57.17 3.5-.13 5.82.07l-.03.04c.6-.08 1.17-.1 1.7-.1l.2.06c.27.01.4-.02.5-.06.42.01.82.03 1.23.05.08.02.1.04-.04.07.64.07 1.3.05 1.97.02.45 0 .93-.02 1.44-.05.18 0 .35-.01.53 0 .07.02.25.04.23.06l.7-.02c.2.02.42.03.64.06.47-.2 1.56-.08 1.92-.23.06.1 2.2.02.96.2-.1.02-.3.01-.28-.02l-.15.12c1.24.24 2.25-.12 3.47-.08-.36-.04-.85-.03-.52-.12l1.14.02-.24.1 1.66.07c-.01-.04-.14-.1-.2-.13.22.01.23.03.25.06.03.02.04.05.05.07.02.04.02.07.1.04.01.01.03.01.06.02.1.05.2-.36.22-.12-.03.1-.06.2-.1.3l-.15 1.02c-.03.16-.05.42-.07.5-.02.1-.06.2-.1.3-.1.2-.22.38-.36.52.16.03 0 .22-.18.38l-.1-.1c-.33.3-.45.2-.52.14-.04-.03-.07-.06-.13-.08-.02-.01-.03 0-.05-.01l-.03-.01c-.03 0-.06 0-.1-.01-.06 0-.12-.01-.18-.01-.03 0-.07 0-.1.01-.07.01-.16.01-.25.02l-.26.18c-1.34.26-.73-.25-2.22.1.6-.03.28.27-.45.22l.18-.12c-.4.03-.54.08-.8.06.24-.07.13-.18-.47-.15l.4-.15-1.12.23c-.86-.12-2.23.05-2.6-.12 0 0-1.86-.07-2.28.12.37-.12-.65-.15-.36-.3-.48.13-1.9.25-2.47.12l.1-.02c-2.1-.13-3.6.22-5.5.07.1.14-.9.07-.66.26-1.95.2-3.56-.35-4.27.23-.9.04-1.05-.13-1.5-.15l.2-.03c-.87.04-1.25.03-1.67-.05s-.66-.18-1.25-.48c-.58-.22-.78-.02-1.75-.55.37.06-.05-.12-.42-.3.25.1.33.1-.13-.2-.08 0-.2-.04-.3-.07 0-.01-.02-.02 0-.03-.64-.26-.54-.18-.26-.03-.02.01-.01.04.07.1-.6-.43-1.8-.86-1.8-1.06-1.9-.86-3.3-1.33-4.9-2.02-.14-.17.26-.07.73.12l-1.12-.5c.07-.12.67.23 1.02.37-1.22-.83-2.8-1.1-4.26-2.03l-.36-.06-.08-.06c-.02.05-.4-.04-.63-.14-.17-.2.13-.24-.64-.6-.56-.4-1.74-.77-2.56-1.1.42.22.25.22.05.16-.38-.18-.55-.4-.87-.5l.03-.16c.1.2-1.07-.33-1.23-.34-.17-.2.64.2.77.16l-2.3-1.08c-.87-.28.1.2-.36.14-.73-.32-1.5-.56-2.27-1.04l.2.25c-1.4-.58-2.24-.92-3.1-1.45-1.3-.44-2.3-.9-2.9-1.56-.62-.63-.73-1.4-.74-1.82-.01-.9-.16-.8-.4-.47-.1.26-.28.64-.28 1.14-.03.5.13 1.04.34 1.48.12.2.24.4.35.56l.33.4c.2.2.33.32.33.32 1.03.93 2 1.36 2.88 1.74l1.2.5 1.2.53 5.78 2.5c4.13 2.06 5.12 2.84 9.5 4.8 2.05 1 4.27 2 6.3 2.94.52.13 1.18.45 1.86.78.18.1.3.16.54.26a4.02 4.02 0 0 0 .67.22 4.67 4.67 0 0 0 1.24.14c.2.05.37.1.57.14.43-.06.94-.1 1.37-.05l-.03.04c.64-.1 1.37-.05 1.7-.1l-.03.04.78-.02-.13.05c1.12-.1 2.28-.12 3.3-.08l-.1-.14c2.18.14 2.98-.16 4.95.01l-.03.04c2.5-.4 3.94.23 6.5-.15-.32.05.14.07.1.1 1.18-.05 2.45-.08 2.46-.37.86 0 .7.08.82.2-.01-.12.74-.18 1.4-.2l-.3.05 1.93-.06-.38-.23c.5.03.58.1.64.16.12.04-.06.12.66.08l-.03-.2c.88-.06 1.52-.4 2.08-.82.53-.45 1.03-1.05 1.2-2.02l.1-1.46.16-2.53h-.27l-.03-.3c-.05-.27-.13-.67-.2-.9-.6-1.78-1.72-3.36-3.1-4.57-.33-.32-.7-.6-1.07-.87s-.87-.56-1.28-.73c-.13-.06-.26-.1-.4-.15-1.05-.52-2.2-.94-3-1.25-2-.68-4.12-2.06-6.25-2.58-.06-.04-.25-.06-.25-.05-.57-.22-1.22-.4-1.72-.63l-.04-.07c.02-.24-1.55-.6-1.6-.94l-.68-.35c-.13-.15-.4-.45-.12-.26-.47-.42-.5-.4-.9-.65-.07-.1-.1-.17-.15-.26l-.17-.3c-1.6-2.05-3.2-3.65-4.9-5.84-.47-.7-1.08-1.5-1.76-2.38l-.06-.07c-.04-.05-.1-.1-.13-.15a3.07 3.07 0 0 0-.26-.25c-.1-.1-.23-.17-.36-.24-.06-.13-.14-.26-.2-.38-.16-.34-.32-.68-.44-1a3.26 3.26 0 0 1-.14-.45c-.03-.13-.04-.15-.01-.22l.77-1.87-.1.32c1.1-2.56 1.6-3.24 3.08-6a6.35 6.35 0 0 0 .2-.3c1.43-2.7 4.6-7.66 5.92-9.76l.14-.1c1.08-1.72 2.22-3.4 3.33-5.1l-1.27 1.9c.28-.76 2.64-3.8 5.04-7.5 2.37-3.4 4.48-7.12 7.07-10.57 1.12-1.72-.94 1.55.8-.98.14-.03-.78 1.2-.26.6 1.7-2.48 2.98-3.94 5.1-7l.15-.08c2.78-3.98 5.52-7.3 7.38-9.94 2.98-4.02 2.2-2.55 5.25-6.76l1.32-1.54c1.37-1.75.87-1.34 2.43-3.26-.04.16 1.97-2.42 1.12-1.25 3.54-4.3 6.88-9.08 11.7-14.56 1-1.28 3.38-4.15 4.02-5.17.2-.1 4.4-6.03 2.05-2.56-.2.3-.58.8-.57.76l-.24.45c2.56-3.27 4.32-6.2 6.36-9.75a9.91 9.91 0 0 1 .54.01l3.65.01 4.3-.22c6-.33 12.35-1.2 18.08-2.44 1.33-.4 3.2-.84 5.14-1.3 1.9-.54 3.9-1.02 5.45-1.6l1.25-.27c1.06-.4 2.32-.82 3.4-1.16l-.06.06c1.57-.65 3.38-1.24 4.14-1.6l-.05.06 1.9-.77-.3.18c1.36-.58 2.7-1.23 4.06-1.8l3.84-1.8-.26-.03a50.71 50.71 0 0 0 3.48-1.75l2.77 8.73c2.8 9.84 4.92 19.72 6.88 28.87l.1.83c-.05.38 1.3 5 1.35 5.72l.53 2.1c.1.6.37 1.87.1.8.44 1.97.47 2 .83 3.42l.4 2.13c1.7 7.77 3.45 14.3 5.5 22.42a406.21 406.21 0 0 0 5.11 18.95c1.05 3.53 2.14 7.06 3.28 10.35.57 1.64 1.14 3.22 1.73 4.7.6 1.48 1.17 2.86 1.9 4.1.14.2.26.43.43.64.2.2.4.43.6.57.43.33.9.56 1.35.78.02.01.05.02.07.03-.3.52-.46 1.08-.55 1.64-.1.73-.1 1.47.1 2.25a4.24 4.24 0 0 0 1.22 2.1c.6.57 1.4.87 1.88 1.07l2.82 1.2a6.57 6.57 0 0 1 .88.34l.44.2.2.1c.05.01.04.05.02.1s-.03.07-.05.1c-.15.3-.5.5-.84.44-.34-.07-.62-.22-.87-.3l-.17-.07c-.04-.02-.02-.01-.1-.04l-.26-.08-1.06-.3c-.36-.1-.72-.18-1.1-.25-.2-.04-.4-.06-.6-.1-.1 0-.28-.02-.43-.01-.15.02-.3.02-.46.06-.3.05-.6.27-.8.42l-.44.33-.82.64-1.58 1.24c-.16.07-.5.37-.47.4-1.35.88-2.75 1.65-4.2 2.3l-.88.37c-.55.2-1.3.5-2.22.7-1.8.45-4.14.6-5.93.5-1.8-.08-3-.3-2.8.01.1.15.6.45 1.66.78s2.7.7 5.07.72l-.12.06c2.8-.18 4.62-.8 6.25-1.8.4.16 2.06-1 2.65-1.26l-.04.05c1.34-1.03 3.04-1.74 4.2-2.88-.04.06-.01.14-.3.37l.72-.58c.12-.1.24-.2.35-.28.15-.1.13-.1.18-.14.1-.05.15-.02.25-.01.14.03.24.07.25.1.6.07 1.33.23 2.07.4l1.62.43c.65.18 1.34.37 1.8.35.48 0 .77-.04 1.1-.17.33-.13.67-.37.9-.67.24-.3.4-.64.5-.96a3.04 3.04 0 0 0 .11-.46l.01-.1c-.01-.03-.04-.04-.06-.06l-.13-.1.12.07c-.4-.3-.63-.48-.84-.68-.1-.1-.2-.2-.33-.3-.03-.05-.2-.13-.37-.2l-.57-.24c-.06-.05-.15-.1-.12-.1a23.99 23.99 0 0 1-1.43-.58l-1.18-.54c-.7-.34-1.38-.68-1.8-.83l-.01-.13c-.73-.33-1.2-.5-1.58-.96.14.16.28.3.46.44-.18.06-.45-.2-.66-.6-.2-.4-.34-.97-.47-1.65 0-.66-.1-1.32.07-1.98.08-.32.24-.64.5-.84.13-.1.28-.18.44-.2.17-.01.32.04.52.1.75-.03-.68.13.43.2.01.16-.52.02-.26.2 1.08.1 1.73.44 3.06.55l.03.13c1.76.05 3.22.7 4.4.66 1.8.2 1.13.56 3 .62h.01c0 .04-.01.1-.01.13l-.06.6c-.14 1.1-.26 1.95-.4 2.83-.17.9-.36 1.8-.92 3.06a19.62 19.62 0 0 1-1.38 2.35c-.1.16-.2.3-.34.5-.15.27-.27.55-.32.9-.1.66.1 1.54.83 2.15a2.41 2.41 0 0 0 1.21.56c.22.04.45.04.66.02l.5-.05c.64-.08 1.27-.18 1.87-.3.55-.2 1.56-.27 2.2-.52l.27.02c.22-.08.48-.16.72-.17l-.01.02c.33-.13.72-.18.88-.24l-.01.02.4-.1-.06.04c.58-.2 1.18-.33 1.72-.43l-.06-.07c1.16-.18 1.53-.46 2.58-.6l-.01.02c1.24-.54 2.08-.35 3.36-.9-.16.07.08.03.07.05.6-.17 1.26-.35 1.23-.52.45-.1.38-.04.45.01-.02-.07.36-.2.7-.3l-.15.07 1-.27-.23-.1c.54-.1.18.13.68-.02l-.03-.1c.74-.16 1.2-.1 1.94-.18 1.48-.34 3-.77 4.5-1.18a73.21 73.21 0 0 1 2.22-.58l.5-.12c.3.25.33.37.36.5 0 .1.26.5.28.44-.03 0-.07.01-.1.02.1-.03.2-.02.32 0 .12.08.18.16.2.2.03.05-.1.01-.15.01-.15-.02-.14-.06-.27.15.08-.03.16.02.16.08-.01.07-.04.14-.55.25l.2-.17c-.47.15-.6.24-.93.3.27-.14.1-.2-.6 0l.43-.27-1.26.57c-1.05.15-2.62.74-3.08.7 0 0-2.2.5-2.66.82.4-.23-.8.05-.5-.17-.53.28-2.18.83-2.9.88l.12-.05c-2.52.53-4.2 1.33-6.46 1.76.14.1-1.06.35-.72.45-2.25.8-4.3.77-4.98 1.54-1.04.3-1.28.2-1.82.32l.24-.1-3.98 1.1c-.7.25-.76.54-2.08.83.4-.22-.13-.05-.62.08.3-.1.4-.16-.26-.06-.08.06-.22.1-.34.16-.01-.01-.03-.01-.02-.02-.8.26-.65.25-.27.16-.01.02.02.03.15.03-.88.1-2.35.64-2.5.5-2.44.7-4.14 1.35-6.15 1.97-.25-.03.2-.24.78-.43l-1.44.42c-.02-.13.8-.3 1.25-.44-1.78.25-3.5 1.16-5.56 1.52l-.4.2-.12.02c.02.05-.4.25-.7.35-.32-.04-.05-.27-1.05.01-.82.1-2.23.66-3.25 1 .56-.13.4-.02.17.08-.5.14-.82.1-1.2.26l-.1-.14c.24.1-1.26.5-1.43.62-.3-.04.75-.3.85-.42l-3 .83c-.62.3.13.12-.17.34l-.5.17c-.12-.1-.2-.26-.32-.4-.1-.15-.22-.34-.35-.58-.12-.23-.24-.47-.35-.72l.04.38c-.95-1.55-1.34-2.6-1.57-3.8-.75-1.98-1.12-3.5-1.34-4.5h0v-.01c.02-1.3 1.23-1.64 1.7-1.52.34 0 .42-.08.32-.2-.07-.06-.1-.1-.3-.2.05-.46.08-.56.14-1.02.04-.44.08-.8.06-1.03v-.37c-.1-2.1-.6-3.9-1.07-5.6-.5-1.7-1.05-3.3-1.6-4.82l-.8-2.25c-.28-.76-.58-1.52-.9-2.23-.62-1.45-1.27-2.86-1.93-4.3l-9.54-20.1-7.74-16.88-3.4-7.55c-1.2-2.77-2.44-5.98-3.9-9.93-2.73-7.56-5.15-15.8-6.96-23.46-.5-1.8-1.06-4.32-1.63-6.94l-.43-1.97c-.05-.32-.18-.67-.3-1-.12-.33-.23-.7-.37-.98l-.8-1.75-.8-1.57-.7-1.58c-.7-1.3-1.17-.5.75 4.35.16.4.34.76.5 1.14.16.37.27.74.4 1.12.22.8.4 1.74.63 2.8.5 2.13.72 2.43 1.57 6.26-.35-1.22.02.34.37 1.76-.23-.9-.33-1.18.1.7a27.62 27.62 0 0 1 .3 1.04c0 .02.01.1 0 .06.63 2.37.54 1.95.27.85.02.05.01-.04-.06-.4.53 2.5 1.84 6.84 1.83 7.16 2.08 7.06 3.9 12 6.16 17.7.16.52-.17-.2-.63-1.32l1.2 3.05c-.08-.01-.98-2.3-1.45-3.55.85 2.45 1.88 4.9 3 7.46l3.62 7.9.6 1.1.14.33c.01-.02.17.28.37.68l.65 1.3c.3.8-.17.01 1.1 2.73.94 2.18 2.88 6.1 4.23 8.9-.7-1.52-.43-1.05-.1-.4.64 1.36.94 2.17 1.46 3.2l-.02.13c.15.16 1.77 3.6 2 4.03.3.8-1.04-2.08-1.25-2.4l3.84 8.16c1.42 2.88-.17-.57.56.8 1.2 2.56 2.44 5.03 3.73 8.02l-.35-.97c1.13 2.4 2.02 4.34 2.7 6.12.65 1.8 1.2 3.4 1.74 5.1.84 2.32 1.5 4.42 1.88 6.33.2.95.28 1.87.23 2.72l-.1 1.27c-.14 0-.28.02-.4.06-.4.1-.74.32-1.03.63a2.08 2.08 0 0 0-.57 1.34v.1a15.32 15.32 0 0 0 .13 1.92c.17 1.42.42 2.6.83 3.78.4 1.14.9 2.14 1.46 3.13l.45.74.33.53.44.66c.06.1.13.18.2.27l.06.18c.08.26.16.5.2.6.06.14.1.27.16.4.2.5.38.83.5.9s.2-.07.2-.56c.01-.3-.03-.82-.07-1.34l1.38-.4 4.04-1.22c5.45-1.4 6.97-1.52 12.57-3.15 2.7-.7 5.54-1.54 8.16-2.27 1.2-.54 3.45-.93 4.88-1.5l.6-.04c.5-.2 1.08-.4 1.6-.47l-.02.04c.74-.3 1.6-.47 1.97-.62l-.02.04.92-.26-.15.1c1.3-.45 2.66-.82 3.88-1.1l-.14-.1c1.23-.25 2.07-.5 2.87-.75h.12c.24-.05.36-.12.45-.17.25-.08.5-.15.78-.22.23-.02.68-.13.4.03 1.6-.26 3.1-1.08 5.24-1.37.1-.07.22-.14.37-.2.84-.18 1.7-.4 2.68-.75.01.02-.08.07-.33.2-.1.04-.27.1-.27.05l-.1.16c1.23-.1 2.1-.7 3.27-.98-.3.05-.7.15-.6.07.15-.05.3-.1.43-.14l.72-.18-.2.16 1.62-.38-.25-.06c.4-.07.7-.08.97-.1.06.03.06.03.18-.1.17-.15-.14-.14.13-.25h.05c.01.1.01.2.02.32a.81.81 0 0 0 .01.15c.03.16.07.33.1.5a29.88 29.88 0 0 0 .23 1.01c.04.2.04.4.01.58.15-.06.14.16.08.4l-.13-.02c-.1.42-.25.44-.34.44-.1 0-.18.01-.5.24v-.1c-.02.1-.05.22-.1.32-1.1.56-.72-.07-2.03.64.55-.17.34.2-.37.33l.14-.16c-.38.13-.5.2-.75.26.2-.12.07-.2-.48-.03l.34-.25-1 .5c-.85.1-2.1.6-2.5.53 0 0-1.78.4-2.14.68.32-.2-.66.01-.42-.2-.42.25-1.74.72-2.32.73l.1-.04c-2.03.4-3.36 1.1-5.2 1.43.12.12-.85.3-.56.4-1.8.68-3.48.55-4 1.28-.84.26-1.04.14-1.48.23l.2-.08-3.2.9c-.57.2-.6.5-1.66.7.3-.2-.1-.06-.5.05.25-.08.3-.14-.22-.07-.06.05-.17.1-.27.15-.01-.01-.03-.01-.02-.02-.65.2-.52.2-.2.15-.01.02.02.03.12.04-.72.05-1.9.52-2.02.37-1.96.57-3.32 1.13-4.94 1.64-.2-.04.15-.22.62-.4l-1.15.35c-.03-.13.65-.25 1-.38-1.44.17-2.8.98-4.48 1.23l-.3.2-.1.01c.02.05-.32.22-.56.3-.26-.05-.06-.26-.86-.04-.67.06-1.8.54-2.6.83.45-.1.33 0 .14.1-.4.1-.66.06-.96.2l-.08-.14c.2.1-1 .44-1.14.54-.26-.05.6-.27.67-.38l-2.4.67c-.83.35.2.1-.18.35-.75.23-1.46.54-2.36.7l.3.06c-1.4.5-2.26.7-3.26.83-.65.23-1.2.52-1.72.6-.53.1-1.02 0-1.42-.16-.8-.34-1.23-.9-1.48-1.24-.45-.73-.55-.58-.57-.18 0 .54.43 1.57 1.2 2.15a3.55 3.55 0 0 0 1.08.59c.3.1.5.13.5.13.4.08.8.1 1.18.04.18-.02.4-.07.52-.1.12-.03.24-.05.36-.08l1.36-.34c.87-.23 1.68-.48 2.5-.74 1.67-.53 3.42-1.14 5.9-1.86 4.4-1.12 5.63-1.17 10.14-2.5 2.17-.56 4.46-1.25 6.57-1.85.95-.48 2.78-.75 3.92-1.25h.5c.4-.17.86-.34 1.3-.4l-.02.04c.6-.25 1.3-.4 1.58-.5l-.02.04.74-.22-.1.08c1.04-.38 2.14-.68 3.12-.9l-.12-.12c2.1-.4 2.8-.9 4.7-1.22l-.02.04c2.26-1 3.8-.76 6.14-1.77-.3.13.15.04.13.08 1.1-.34 2.3-.7 2.24-.97.82-.22.7-.1.83-.02-.04-.12.66-.36 1.3-.54l-.28.13.9-.27.45-.13c.17-.05.38-.13.55-.2-.17 0-.35-.03-.5-.06.57-.16.66-.18.76-.16.08.01.2.04.64-.4l-.14-.13c.62-.56.97-1.18 1.16-1.86a2.52 2.52 0 0 0 .15-1.12zm-198.42-2.6c.22.35.7.94 1.62 1.82l-.06-.01c.87.68 1.48 1.07 2.28 1.26.08.23.85.32 1.08.46l-.03.01c.67.1 1.24.55 1.87.66-.03 0-.06.04-.2 0 .44.14 1.04.33 1.04.43 1.04.36 2.45.98 3.16 1.1l-.06.01c.4.05.5.2.92.3l.04.04c.45.07 1.18.5 1.52.6l-.01.07.8.36-.3-.15c.18-.12.55.38 1.16.56.5.3 1.24.2 1.7.65.28.1-.28-.04.1.17-.05.08-.2-.08-.15.05.36.22.47.5.88.8l-.04.07c.58.38.77 1 1.13 1.27.22.27.24.4.27.52.01.06.03.12.07.2.02.03.05.1.08.13.02.01.04.03.08.06a.35.35 0 0 1-.06.09c.02.07.2.1.18.2-.08-.04-.05.07-.14-.03 0 0-.02 0-.03-.01-.14-.04-.15 0-.27.02-.33.02-.86.03-1.35-.05-.23.12-.76.04-.93.14-.03-.05-1.07-.02-.47-.13.05-.01.14-.01.14.01l.07-.07c-.6-.14-1.1.07-1.7.04.18.03.4.02.25.07l-.55-.02.12-.06-.83-.05.1.08c-.4-.04-.54-.18-1-.07-.2.06.38.1-.05.13-.54-.06-1.35-.15-2.04-.18.06.1-.12.08-.3.1l-.02-.08c-.73.1-.27-.17-1-.1l-.13.1c-.66.14-.35-.16-1.08.03.3-.01.13.17-.22.13l.1-.07c-.2.01-.26.04-.4.02.12-.04.06-.1-.22-.1l.2-.1-.55.12c-.42-.1-1.1 0-1.26-.1 0 0-.9-.07-1.1.03.18-.06-.3-.1-.17-.18-.24.07-.93.12-1.2.03h.05c-1.02-.12-1.75.07-2.67-.08.04.1-.44.02-.33.14-.96.08-1.72-.3-2.08.02-.43 0-.5-.1-.73-.14l.1-.01c-.8-.03-1.04-.03-1.63-.1-.3-.01-.38.18-.86.05.17-.03-.03-.06-.2-.1.12.01.16-.01-.07-.1-.02.01-.03.02-.1 0h-.07c-.28-.07-.24-.05-.1 0-.01.01 0 .02.03.05-.27-.14-.8-.34-.75-.46-.7-.46-1.12-1-.85-1.65.08-.04.05.12.02.28.03-.13.1-.26.17-.4.06.05-.1.24-.12.36l.2-.3c.04-.05.08-.1.12-.16.06-.07.12-.14.2-.2.26-.3.52-.6.85-.88l.07-.17.04-.03c-.03-.02.07-.2.15-.3.13-.04.1.12.4-.2.27-.2.6-.7.86-1.05-.16.16-.14.08-.1-.01.14-.15.27-.2.36-.33l.08.05c-.12 0 .3-.46.32-.54.13-.04-.17.27-.17.35l.85-.9c.25-.38-.12 0-.04-.22.26-.3.45-.64.78-.95l-.15.06c.42-.6.68-.96 1.03-1.33.3-.62.5-1.1.6-1.5.01.02.02.04.04.07.3-.63.4-.98.4-.98a2.22 2.22 0 0 0 .27.24zm-1.64-.65c.28.3.45.52.57.7-.05.1-.1.17-.16.26l-.3.46-1.5 2.13c-.25.34-.5.68-.8 1.05l-1.1 1.28c-.78.82-1.3 1.3-1.8 1.8l-.8.75c-.3.26-.95.92-.87 1.9.06.93.64 1.56 1.2 1.97.3.2.6.37.93.5.16.06.33.1.5.15l.43.08c.32 0 .68.04 1.05.08.38.04.76.08 1.07.04l.23.1c.2-.02.47-.03.68.02l-.01.02c.32-.04.67.01.83-.01l-.01.02.38.01-.07.03c.55-.03 1.12-.01 1.62.03l-.04-.1c1.06.14 1.46-.03 2.42.1l-.01.02c1.22-.2 1.92.2 3.18.02-.16.02.07.05.05.07.58-.01 1.2-.01 1.2-.18.42.01.34.06.4.13 0-.08.36-.1.7-.1l-.15.03h.94l-.18-.14c.5.05.12.17.6.15v-.12c.7.04 1.1.22 1.76.3 1.4.05 2.83 0 4.24-.03l2.1-.02 1.02.03c.13.01.27.01.4.02.04.1.1.2.13.32.06.17.12.38.16.52v.13c-.01.07.01.16-.05.17.2.14.1.14-.03.17l-.08-.12c-.08.04-.07.05-.32.03-.17-.02-.25-.05-.33-.1-.16-.07-.32-.15-1.2-.1l-.3.17c-1.58.24-.85-.26-2.6.07.7-.02.33.28-.53.22l.22-.12c-.47.02-.63.07-.95.05.28-.06.15-.17-.55-.16l.47-.15-1.32.22c-1.02-.13-2.62.02-3.04-.15 0 0-2.18-.1-2.68.1.44-.1-.76-.16-.42-.3-.57.13-2.24.23-2.9.1l.13-.02c-2.47-.15-4.23.18-6.45 0 .1.14-1.07.06-.78.25a14.87 14.87 0 0 1-1.32.03c-.2-.01-.4-.02-.6-.02h-.3l-.1-.02c-.01-.02-.32-.18-.53-.3-.22-.1-.43-.2-.63-.3-.4-.16-.74-.24-1.03-.18-.96-.4-1.07-.63-1.55-.88l.24.08c-1.8-.76-2.32-1-3.64-1.6-.68-.25-.9-.05-2.06-.65.43.08-.07-.12-.5-.32.3.1.4.12-.16-.2-.1-.01-.23-.05-.36-.08 0-.01-.02-.03-.01-.03-.76-.3-.64-.2-.3-.04-.02.01 0 .04.1.1-.7-.47-2.14-.96-2.16-1.17-2.24-.97-3.9-1.52-5.8-2.3-.17-.18.3-.06.85.15l-1.33-.56c.07-.12.8.27 1.2.43-1.47-.9-3.3-1.26-5.07-2.27l-.42-.08-.1-.07c-.02.05-.46-.06-.74-.17-.2-.22.13-.24-.78-.64-.67-.43-2.06-.87-3.03-1.24.5.25.3.23.07.17-.46-.2-.67-.43-1.04-.54l.02-.16c.12.22-1.25-.4-1.45-.4-.2-.22.75.23.9.2l-1.22-.54c-.05-.08-.42.02-.26-.52-.02-.1-.01-.28-.03-.3-.02-.04-.04-.01-.07.05-.06.12-.12.25-.16.02.12-.92.2-1.84.53-2.87l-.2.3c.27-1.73.7-2.73 1.4-3.67.68-1.47 1.54-2.45 2.16-3.2.6-.8 1.2-1.3 1.9-1.35.04 0 .07.01.1.01-.1.14-.2.3-.3.44.17-.01.34.01.47.1.14.1.26.22.38.34.01-.02.02-.04.04-.05.15.26.34.62.53 1.14.2.5.4 1.1.74 1.86.35.75.86 1.63 1.68 2.5l-.13-.05c1.03 1 2.04 1.56 2.97 2 .95.42 1.87.62 2.8.72.22.37 2.16.47 2.76.62l-.06.02c.82 0 1.65.13 2.48.23a17.29 17.29 0 0 0 1.24.11 6.62 6.62 0 0 0 .63 0l.15-.01h.05c.04-.01.07-.03.1-.03-.03.02-.06.1-.17.1.1-.02.2-.03.27.04.02.01.04.03.06.05.04.04.1.07.13.12.1.1.18.18.26.28.33.37.57.7.53.8l.67.8.82.95c.44.47.9.96 1.36 1.26.46.3.88.45 1.35.53a2.56 2.56 0 0 0 2.32-.85c.1-.08.04-.15.03-.22l-.04-.2-.1-.4c-.07-.26-.14-.5-.23-.7l.1.13c-.03-.07-.04-.1-.08-.2-.06-.08-.1-.16-.16-.23l-.26-.4a10.75 10.75 0 0 1-.4-.68l-.4-.7c-.14-.25-.23-.38-.4-.63-.01-.06-.04-.14-.03-.13-.34-.42-.74-1.1-1.1-1.74l-.1-.17-.06-.2c-.06-.15-.07-.28-.1-.42-.04-.26-.05-.48-.05-.64l.12-.03c.04-.5.34-1 .75-1.5-.16.18-.3.36-.43.54-.07-.18.17-.45.57-.8.2-.17.44-.37.7-.6.23-.2.55-.57.72-.8.46-.38.7-.73 1.23-.57.14.05.25.1.38.23.14.13.28.25.4.4.26.26.5.54.7.86.56.46-.57-.34.18.42-.1.13-.4-.32-.32-.03.7.77.95 1.44 1.84 2.37l-.06.12c1.24 1.14 1.88 2.54 2.76 3.27zm63.92-109.7c.26-.43.5-.88.75-1.32h.1c-.6 1.04-1.34 2.23-.84 1.32zm131.7 107.22c-.04.02-.1.05-.16.06-.14.02-.3.03-.5.06-.22.18-.8.25-.96.38-.04-.04-1.14.27-.53 0 .05-.02.15-.04.15-.02l.06-.1c-.67.02-1.15.36-1.8.5.2-.02.44-.1.3 0l-.6.14.1-.1-.9.18.14.04c-.44.07-.62-.02-1.08.2-.2.1.43 0-.02.13-.6.1-1.47.23-2.2.38.1.07-.1.1-.3.18l-.04-.07c-.75.3-.32-.1-1.08.18l-.1.13c-.66.32-.4-.06-1.14.33.3-.1.18.12-.2.2l.08-.1c-.2.07-.27.1-.4.13.1-.07.04-.12-.26-.03l.18-.14-.55.27c-.47.03-1.15.3-1.36.25 0 0-.97.2-1.17.35.18-.1-.36-.01-.23-.13-.23.14-.95.38-1.27.37l.05-.02c-1.1.2-1.83.57-2.84.7.06.07-.46.15-.3.23-1 .35-1.9.2-2.2.62-.46.12-.56.04-.8.07l.1-.04a19.56 19.56 0 0 1-1.76.37c-.32.1-.34.26-.92.32.18-.1-.06-.04-.27-.01.14-.03.18-.06-.1-.06-.04.03-.1.05-.15.07-.37.07-.3.08-.13.06-.01.01.01.02.06.03-.4-.02-1.04.14-1.1.04-.26.03-.54.08-.73.1s-.37 0-.53-.04c-.33-.1-.64-.32-.8-.66.02-.1.12.05.25.2-.1-.13-.18-.27-.2-.43.07-.01.1.25.2.37-.08-.27-.18-.52-.16-.83.01-.16.05-.3.13-.46.1-.18.24-.38.38-.56l.04-.2.04-.04c-.03-.01.03-.22.1-.34.12-.08.14.1.36-.32.24-.3.45-.93.62-1.38-.12.23-.12.13-.1.02.1-.2.22-.3.26-.47l.1.02c-.12.05.16-.6.15-.68.12-.1-.08.36-.06.43.35-.86.2-.43.5-1.3.1-.5-.1.06-.12-.2.12-.42.17-.84.33-1.3l-.12.13c.12-.8.2-1.27.35-1.8 0-.76-.05-1.34-.13-1.78l.04.02h.03c0-.7-.05-1.12-.05-1.12a5.6 5.6 0 0 0 .35.07c.4.2 1.17.5 2.48.93l-.06.02c1.15.3 1.88.44 2.7.45.1.2.95.2 1.22.3l-.03.01c.74 0 1.44.38 2.15.4-.03.01-.05.05-.2.03.5.07 1.2.16 1.2.27 1.2.2 2.85.55 3.64.54l-.06.02c.46-.03.57.1 1.06.13.02.02.06.03.05.04.5-.02 1.4.24 1.78.27v.07l.95.16-.35-.08c.16-.16.7.25 1.4.26.64.14 1.37-.13 2.02.08.33-.02-.3.08.18.1 0 .1-.23.02-.13.12.47.04.74.24 1.33.28v.08c.76 0 1.3.43 1.78.5.7.26.36.4 1.1.66l.2.25c.22.2.33.1.43.23-.04.05.08.13-.03.12.01.04.03.07.08.1.07-.03.17.03.1.04z"/><path d="M355.64 410.84h0l.05-.07zm-167.32 20.2h0l.13-.1zm.05-5.3h0l.15-.1zm-8.2-2.4h0l.07-.06zm-13.6-81.3l.26-.63-.26.63zm47-45.76l.02.04c.02-.01.02-.03-.02-.04zm71.03-48.74h0l-.2-.28z"/></svg>