<svg xmlns="http://www.w3.org/2000/svg" viewBox="0 0 480 480" xmlns:v="https://vecta.io/nano"><path d="M160.34 357.43l.45-1.08c-.03.01-.14.28-.45 1.08zm6.4 35.52l.13-.24c0 .02-.03.07-.13.24zm116.65-31.75l-.48-1.12c-.01.02.1.3.48 1.12zm42.12 39.15c.08.04.18.07.26.1l-.26-.1zM158.27 432.5l.1.04-.01-.01zm8.5-91.75l.36-.83-.36.83zM154 372.47l.03-.02c0-.02-.01-.02-.03.02zm13.37-32.97l-.48 1.14.48-1.14zm201.16 75.1l-.8-2.8h-.04l-.13-.3c.43-.42.1-.55-.33-.57a8.67 8.67 0 0 0-1.69-1.9c-.53-.57-1.8-1.67-3.83-2.2-1.1-.57-2.6-.8-4.36-.93a441.59 441.59 0 0 0-11.72-2.14l-6.4-1.18s0 .04.01.1l-11.7-1.9s-.48.01-.94.47c-1.5-.53-2.55-1.1-3.06-1.77-2.9-3.9-9.5-26.6-15.7-52.4l-3.58-15.63 3.48-.87c1.6-.4 2.6-2.1 2.2-3.7l-.82-3.18c-2.6-10.77-8.34-34.03-12.68-47.32-2.3-7.2-7.2-21.2-14.3-38.2l-13.4-31h-69.5s-1.9 21.5-5.8 47.8c-1.4 9.3-3.2 22-7.1 34.7-3.63 11.88-8.24 19-12.8 28.34l-1.6 2.86c-.5.8-.5 1.7-.1 2.1a71.69 71.69 0 0 0 3.55 2.13c-1.43 2.42-2.88 5-4.35 7.77-8.3 15.7-9.5 27.3-22.1 50.6-2.42 4.32-7.06 13.6-10.4 18.2-.47.01-1.03.35-1.5.8-1 1-3 2.6-3.9 6.3-.7 3-.8 4.3-.8 4.3l2.24 1a2.77 2.77 0 0 1 .06.16l-2.4-1.08-.9 2.7c-.8 2.7 3.3 3.9 4.8 4.6l25 12c.7.3 1.4.4 2.1.4l25.1-.2c1.4.2 2.7-1 2.8-2.4l.2-2.9s.05-1.74-1.34-3.9c-.57-1-1.62-2.47-3.26-3.5-2-1.2-7.1-3.4-11.9-5-1.8-.7-4.5-3-4.5-3-1.74-2.03-6.22-7.63-6.56-8.05-1-1.84-1.58-3.24-1.34-3.55 3.24-8.18 18.53-32.03 44.12-65.13 30.78 5.8 54.4 3.9 67.36 2.12 1.52 4.43 3.3 9.12 5.42 14l22.8 49.5c1.2 3.5 4 10.4 3.5 13.9a25.32 25.32 0 0 0-.23 2.1c-.32.2-.57.54-.57.9.1 1.3.4 3 .9 4.7.9 2.9 2.6 5.4 2.6 5.4l.03-.01.77 2.8c.4 1.4 1.8 2.2 3.2 1.8l54.4-14.7c1.4-.4 2.2-1.8 1.8-3.2zm-229.16 1.8l.56.14 23.8 10.76-24.35-10.9zm200.13 10.05l.08-.04zm-48.93-49.8l.01-.04c-.02-.01-.02-.01-.01.04zM238.6 340.2h0z" fill="#fff"/><path d="M187.93 431.45h0l.13-.1zm.07-5.3h0l.15-.1zm-8.33-2.4h0l.07-.05z"/><path d="M369.43 414.62l-.06-.5-.07-.48-.87-3.06-.5.14c-.03-.05-.05-.1-.1-.16a1.1 1.1 0 0 1 .02.18c-.05.01-.1.03-.14.04-.2-.38-.22-.5-.22-.57-.01-.06-.01-.1-.1-.24-.04-.06-.1-.15-.2-.25-.06-.08-.14-.17-.26-.3l-.13.14-.77-.83-.01-.07c.06-.05-.24-.3-.54-.5-.02-.01-.04-.02-.06-.04l-.28-.26c-.54-.5-1.12-.94-1.9-1.38-1.73-.8-3.55-1.1-5.3-1.44l-5.27-.9c-3.5-.57-6.94-1.12-10.1-1.83l-.26-.2c-.1-.23-1.8.02-2.02-.22l-.76-.03c-.2-.07-.63-.2-.26-.17-.68-.12-.7-.1-1.2-.1l-.7-.25c-2.7-.55-5.03-.67-7.87-1.18-.42-.1-.9-.2-1.4-.3-.1-.02-.37-.07-.57-.1-.22-.02-.46.04-.7.1a2.63 2.63 0 0 0-1 .63c-.01-.01-.03-.01-.04-.02-.16-.08-.36-.17-.32-.16-.34-.16-.73-.33-1.08-.6-.37-.24-.63-.56-.9-1.02-.53-.86-1-1.92-1.4-2.95-.85-2.07-1.54-4.14-1.98-5.35l.01-.18c-.68-2-1.33-4.02-1.95-6.04l.7 2.27c-.43-.73-1.33-4.62-2.7-9.02-1.17-4.15-2.72-8.33-3.78-12.7-.62-2.05.6 1.8-.26-1.3.07-.13.43 1.43.3.6-.84-3.03-1.2-5-2.2-8.75l.03-.17c-1.36-4.87-2.17-9.28-3.05-12.52-1.23-5.06-.57-3.45-1.9-8.7l-.3-1.77 2.33-.65-.43.17.7-.2.35-.1c.15-.05.3-.1.46-.16.6-.25 1.17-.64 1.6-1.15.88-.98 1.2-2.46.86-3.68l-1.28-5.37-.06.28-.12-.46c-1.55-6.92-2.5-9.55-3.95-16l.06.08c-2.5-8.17-3.14-13.14-5.94-21.5.35 1.04-.06-.47 0-.4-1.18-3.9-2.55-8-2.84-7.98-.92-2.8-.67-2.3-.7-2.72-.1.06-.98-2.36-1.75-4.54l.4 1-2.26-6.22.22 1.3c-1.13-3.32-.03-.94-1.24-4.07l-.17.1c-1.65-4.56-2.4-7.32-3.98-11.74-3.5-9.12-7.74-18.3-11.72-27.4l-6-13.72c-.1-.22-.2-.45-.3-.65h-1.88c-.6 0-1.2 0-1.8-.01l-3.54-.02-6.92-.1-.8-.15c-.35-.2-5 .32-5.7.12l-2.1.1c-.6-.04-1.84-.08-.8-.13-1.95-.01-2 .03-3.4.1l-2.1-.13c-7.7-.1-14.23.15-22.33.1l-8.5-.12-11.1.02-1.04 11.52-.9 9.2c-.7 7.37-1.86 15.3-3.12 23.26l-3.87 23.38c-.06.24-.14.67-.2 1.05l-.07.48c-.02.12-.02.2-.02.2-.96 4.5-2.06 8.98-3.4 13.38l-.83 2.64c-.54 1.64-1.32 3.92-2.36 6.44-2.02 5.08-5.2 11.08-7.5 15.78l-.46.95-.62 1.22-1.1 2.24c-.46.96-.8 1.73-1 2.24-.02.01-.03.01-.05.02a.36.36 0 0 0-.1.07c.04-.13.06-.22.04-.26-.03-.1-.23.08-.52.43-.18.24-.38.56-.5.97-.13.36-.23 1.08-.03 1.66.1.3.26.6.5.8.12.1.26.2.4.3l.27.18.94.63a48.54 48.54 0 0 0 1.63 1.03c-3.4 5.95-5.6 10.45-7.8 15.78-.23.44-.02-.16.37-1.14l-1.14 2.7c-.02-.02.1-.4.32-.9-1.62 3.85-3.02 8-4.78 12.44l-.37 1.15-.13.32c.02 0-.08.3-.2.7-.15.4-.32.92-.46 1.32-.36.74-.13-.1-1.17 2.57-.9 2.08-2.4 6-3.6 8.7.67-1.46.5-.97.23-.33-.6 1.3-.98 2.04-1.44 3.05l-.1.07c-.02.2-1.56 3.5-1.77 3.94-.43.7.94-2.02 1.03-2.38l-1.9 3.88c-.32.65-.64 1.3-1.98 3.83-1.37 2.75.34-.45-.27.9l-4 7.5.54-.83c-2.36 4.53-3.85 7.2-5.75 10.06l-.92 1.44c-.15-.05-.32-.1-.48-.1-.33-.02-.64.04-.92.13-.55.18-1 .5-1.4.82-.56.46-1.1.96-1.1.96-2.12 1.94-3.02 4.26-3.4 6.4a36.46 36.46 0 0 0-.27 1.62l-.12.86-.06.5c-.04.27-.07.55-.1.82l-.06.82c.01.06-.05.16.03.18l.12.06-.14.53-.1.4c-.1.5-.13.85-.07.98s.2.04.47-.34c.13-.2.3-.46.5-.8.07-.12.14-.24.22-.36l2.96 1.25c4.92 2.3 6.12 3.14 11.3 5.36 2.44 1.13 5.07 2.25 7.47 3.3 1.22.32 3.14 1.42 4.55 1.86l.47.34c.5.15 1.05.36 1.5.63l-.04.02c.73.23 1.5.63 1.85.75l-.04.02.85.37-.16-.02.26.1.42.17 1.1-.03.86-.01c.57 0 1.13.01 1.65.03l-.1-.15c2.57.17 3.5-.13 5.82.07l-.03.04c.6-.08 1.16-.1 1.7-.1l.2.06c.27.01.4-.02.5-.06.42.01.82.03 1.23.05.08.02.1.04-.04.07.64.07 1.3.05 1.97.02.45 0 .94-.02 1.45-.05.18 0 .35-.01.53 0 .07.02.25.04.23.06l.7-.02c.2.02.42.03.64.06.47-.2 1.56-.08 1.92-.23.06.1 2.2.02.96.2-.1.02-.3.01-.28-.02l-.15.12c1.24.24 2.25-.12 3.47-.08-.36-.04-.85-.03-.52-.12l1.14.02-.24.1 1.66.07c-.01-.04-.14-.1-.2-.13.22.01.23.03.25.06.03.02.04.05.05.07.02.04.02.07.1.04.01.01.03.01.06.02.1.05.2-.36.22-.12-.03.1-.06.2-.1.3l-.15 1.02c-.03.16-.05.42-.07.5-.02.1-.06.2-.1.3-.1.2-.22.38-.36.52.16.03 0 .22-.18.38l-.1-.1c-.33.3-.45.2-.52.14-.04-.03-.07-.06-.13-.08-.02-.01-.03 0-.05-.01l-.03-.01c-.03 0-.06 0-.1-.01-.06 0-.12-.01-.18-.01-.03 0-.07 0-.1.01-.07.01-.16.01-.25.02l-.26.18c-1.34.26-.73-.25-2.22.1.6-.03.28.27-.45.22l.18-.12c-.4.03-.54.08-.8.06.24-.07.13-.18-.47-.15l.4-.15-1.12.23c-.86-.12-2.23.05-2.6-.12 0 0-1.86-.07-2.28.12.37-.12-.65-.15-.36-.3-.48.13-1.9.25-2.47.12l.1-.02c-2.1-.13-3.6.22-5.5.07.1.14-.9.07-.66.26-1.95.2-3.56-.35-4.27.23-.9.04-1.05-.13-1.5-.15l.2-.03c-.87.04-1.25.03-1.67-.05s-.66-.18-1.25-.48c-.58-.22-.78-.02-1.75-.55.37.06-.05-.12-.42-.3.25.1.33.1-.13-.2-.08 0-.2-.04-.3-.07 0-.01-.02-.02 0-.03-.64-.26-.54-.18-.26-.03-.02.01-.01.04.07.1-.6-.43-1.8-.86-1.8-1.06-1.9-.86-3.3-1.33-4.9-2.02-.14-.17.26-.07.73.12l-1.12-.5c.07-.12.67.23 1.02.37-1.22-.83-2.8-1.1-4.26-2.03l-.36-.06-.08-.06c-.02.05-.4-.04-.63-.14-.17-.2.13-.24-.64-.6-.56-.4-1.74-.77-2.56-1.1.42.22.25.22.05.16-.38-.18-.55-.4-.87-.5l.03-.16c.1.2-1.07-.33-1.23-.34-.17-.2.64.2.77.16l-2.3-1.08c-.87-.28.1.2-.36.14-.73-.32-1.5-.56-2.27-1.04l.2.25c-1.4-.58-2.24-.92-3.1-1.45-1.3-.44-2.3-.9-2.9-1.56-.62-.63-.73-1.4-.74-1.82-.01-.9-.16-.8-.4-.47-.1.26-.28.64-.28 1.14-.03.5.13 1.04.34 1.48.12.2.24.4.35.56l.33.4c.2.2.33.32.33.32 1.03.93 2 1.36 2.88 1.74l1.2.5 1.2.53 5.78 2.5c4.13 2.06 5.12 2.84 9.5 4.8 2.05 1 4.27 2 6.3 2.94.52.13 1.18.45 1.86.78.18.1.3.16.54.26a4.02 4.02 0 0 0 .67.22 4.67 4.67 0 0 0 1.24.14c.2.05.37.1.57.14.43-.06.94-.1 1.37-.05l-.03.04c.64-.1 1.37-.05 1.7-.1l-.03.04.78-.02-.13.05c1.12-.1 2.28-.12 3.3-.08l-.1-.14c2.18.14 2.98-.16 4.95.01l-.03.04c2.5-.4 3.94.23 6.5-.15-.32.05.14.07.1.1 1.18-.05 2.45-.08 2.46-.37.86 0 .7.08.82.2-.01-.12.74-.18 1.4-.2l-.3.05 1.93-.06-.38-.23c.5.03.58.1.64.16.12.04-.06.12.66.08l-.03-.2c.88-.06 1.52-.4 2.08-.82.53-.45 1.03-1.05 1.2-2.02l.1-1.46.16-2.53h-.27l-.03-.32c-.05-.27-.13-.68-.2-.9-.6-1.78-1.72-3.35-3.1-4.57-.33-.32-.7-.6-1.07-.87s-.87-.56-1.3-.73c-.28-.12-.55-.22-.83-.32-.94-.44-1.93-.8-2.64-1.08-2-.68-4.12-2.06-6.25-2.58-.06-.04-.25-.06-.25-.05-.53-.2-1.12-.38-1.6-.6l-.07-.12c.02-.24-1.55-.6-1.6-.94l-.6-.33c-.13-.15-.4-.45-.12-.26-.47-.42-.5-.4-.9-.65-.07-.1-.1-.17-.15-.26l-.17-.3c-1.6-2.05-3.2-3.66-4.9-5.84-.47-.7-1.1-1.5-1.76-2.38-.2-.26-.52-.57-.93-.77-.05-.1-.1-.2-.16-.32a13.93 13.93 0 0 1-.44-1 3.26 3.26 0 0 1-.14-.45c-.03-.13-.04-.15-.01-.22l.77-1.87-.1.32c1.1-2.56 1.6-3.24 3.08-6a6.35 6.35 0 0 0 .2-.3c1.43-2.7 4.6-7.66 5.92-9.76l.14-.1c1.08-1.72 2.22-3.4 3.33-5.1l-1.27 1.9c.28-.76 2.64-3.8 5.04-7.5 2.37-3.4 4.48-7.12 7.07-10.57 1.12-1.72-.94 1.55.8-.98.14-.03-.78 1.2-.26.6 1.7-2.48 2.98-3.94 5.1-7l.15-.08c2.78-3.98 5.4-7.38 7.38-9.94 5-6.5 3.8-6.64 3-5.5l-1.32 1.6c-4.66 6.04-8.44 11.32-13.17 17.8-5.84 7.7-16.06 22.72-21.3 31.8-1.88 3.25-3.83 6.62-5.44 10.35-.13.25-.08.58-.04.8a6.75 6.75 0 0 0 .17.58c.1.26.2.5.3.73-.2.02-.38.05-.55.12-.93.35-1.43 1.07-1.77 1.42-.4.44-.85.9-1.27 1.45-.4.55-.8 1.26-.9 2.05s.08 1.48.32 2.08c.03.1.08.17.15.3l.1.17.2.32.38.6.52.8.43.7a12.77 12.77 0 0 1 .44.79l.1.18c0 .06.12.12.01.16-.13.08-.3.12-.44.12-.32-.02-.6-.2-.74-.42-.06-.08-1.15-1.54-2-2.57l-.37-.42a4.36 4.36 0 0 0-.52-.49c-.24-.18-.5-.35-.78-.38l-.1-.01c-.02-.07-.07-.02-.1-.04h-.22-.36c-.6.02-1.26.02-1.9.03-.16-.04-.6-.01-.6.02-1.54-.14-3.08-.38-4.55-.76 0 0-.35-.08-.87-.24-.53-.16-1.24-.45-2.03-.84-.77-.4-1.58-.94-2.25-1.6-.68-.66-1.2-1.43-1.66-2.18s-.9-1.46-1.36-1.84c-.1-.07-.16-.12-.23-.17.87-1.23 1.63-2.44 2.34-3.63 1.6-2.7 3-5.28 4.4-7.95 2.76-5.35 5.92-10.94 9.6-19.1 3.26-7.16 5.03-11.8 6.84-16.5 1.83-4.7 3.46-9.52 6.83-16.85 1.76-3.67 3.76-7.38 5.86-11 4.1 2.36 7.52 3.74 11.17 4.98 2.52.82 5.18 1.6 8.36 2.34l2.33.6a149.44 149.44 0 0 0 8.1 1.66l1.15.25 5.05.97 2.46.46 2.68.4c1.9.25 4.03.62 6.68.83 2.52.26 5.12.57 7.73.7l3.88.25 3.8.14c2.35-.07 6.5.17 9.3.02l1.08.1c.96-.07 2.08-.13 3.05-.08l-.06.04 3.75-.2-.06.04 1.74-.1-.3.06 3.74-.3 3.57-.25-.07-.05a212.22 212.22 0 0 0 14.41-1.7l6.1-1.1a42.05 42.05 0 0 0 2.16-.4 79.71 79.71 0 0 0 2.42-.48c.08-.01.14-.01.13 0a98.38 98.38 0 0 0 3.66-.84l1.32-.2c1.44-.37 3.12-.83 4.6-1.12l-.08.06c1.66-.48 3.5-.94 4.72-1.28.12.63.34 1.72.1.72.44 1.97.47 2 .83 3.42l.4 2.13c1.7 7.77 3.45 14.3 5.5 22.42a406.21 406.21 0 0 0 5.11 18.95c1.05 3.53 2.14 7.06 3.28 10.35.57 1.64 1.14 3.22 1.73 4.7.6 1.48 1.17 2.86 1.9 4.1.14.2.26.43.43.64.2.2.4.43.6.57.43.33.9.56 1.35.78.05.02.1.04.16.06-.3.5-.45 1.05-.53 1.6-.1.73-.1 1.47.1 2.25.18.77.6 1.55 1.22 2.1.6.57 1.4.87 1.88 1.07l2.82 1.2a6.57 6.57 0 0 1 .88.34l.44.2.2.1c.05.01.04.05.02.1s-.03.07-.05.1c-.15.3-.5.5-.84.44-.34-.07-.62-.22-.87-.3l-.17-.07c-.04-.01-.02-.01-.1-.04l-.26-.08-1.06-.3c-.36-.1-.72-.18-1.1-.25-.2-.04-.4-.06-.6-.1-.1 0-.28-.02-.43-.01-.15.02-.3.02-.46.06-.3.05-.6.27-.8.42l-.44.33-.82.64-1.58 1.24c-.16.07-.5.37-.47.4-1.35.88-2.75 1.65-4.2 2.3l-.88.37c-.55.2-1.32.48-2.23.68-1.8.45-4.15.62-5.93.53-1.8-.07-3-.32-2.78 0 .1.15.6.46 1.66.8s2.7.7 5.07.7l-.12.06c2.8-.2 4.6-.78 6.25-1.8.4.16 2.06-1 2.65-1.26l-.04.05c1.34-1.03 3.04-1.74 4.2-2.88-.04.06-.01.14-.3.37l.72-.58c.12-.1.24-.2.35-.28.15-.1.13-.1.18-.14.1-.05.15-.02.25-.01.14.03.24.07.25.1.6.07 1.33.23 2.07.4l1.62.43c.65.18 1.34.37 1.8.35.48 0 .77-.04 1.1-.17.33-.13.67-.37.9-.67.24-.3.4-.64.5-.96a3.04 3.04 0 0 0 .11-.46l.01-.1c-.01-.03-.04-.04-.06-.06l-.13-.1.12.07c-.4-.3-.63-.48-.84-.68-.1-.1-.2-.2-.33-.3-.03-.05-.2-.13-.38-.2l-.57-.24c-.06-.05-.15-.1-.12-.1a23.99 23.99 0 0 1-1.43-.58l-1.18-.54c-.7-.34-1.38-.68-1.8-.83l-.01-.13c-.73-.33-1.2-.5-1.58-.96.14.16.28.3.46.44-.18.06-.45-.2-.66-.6-.2-.4-.34-.97-.47-1.65 0-.66-.1-1.32.07-1.98.08-.32.24-.64.5-.84.13-.1.28-.18.44-.2.17-.01.32.04.52.1.75-.03-.68.13.43.2.01.16-.52.02-.26.2 1.08.1 1.73.44 3.06.55l.03.13c1.76.05 3.22.7 4.4.66 1.76.2 1.16.55 2.92.62 0 .05-.01.1-.01.14l-.06.6c-.14 1.1-.26 1.95-.4 2.83-.17.9-.36 1.8-.92 3.06a19.62 19.62 0 0 1-1.38 2.35c-.1.16-.2.3-.34.5-.15.27-.27.55-.32.9-.1.66.1 1.54.83 2.15a2.41 2.41 0 0 0 1.21.56c.22.04.45.04.66.02l.5-.05c.64-.08 1.27-.18 1.87-.3.55-.2 1.56-.27 2.2-.52l.27.02c.22-.08.48-.16.72-.17l-.01.02c.33-.13.72-.18.88-.24l-.01.02.4-.1-.06.04c.58-.2 1.18-.33 1.72-.43l-.06-.07c1.16-.18 1.53-.46 2.58-.6l-.01.02c1.24-.54 2.08-.35 3.36-.9-.16.07.08.03.07.05.6-.17 1.26-.35 1.23-.52.45-.1.38-.04.45.01-.02-.07.36-.2.7-.3l-.15.07 1-.27-.23-.1c.54-.1.18.13.68-.02l-.03-.1c.74-.16 1.2-.1 1.94-.18 1.48-.34 3-.77 4.5-1.18a73.21 73.21 0 0 1 2.22-.58c.18-.05.38-.1.58-.14.32.26.35.4.38.5 0 .1.26.5.28.44-.03 0-.07.01-.1.02.1-.03.2-.02.32 0 .12.08.18.16.2.2.03.05-.1.01-.15.01-.15-.02-.14-.06-.27.15.08-.03.16.02.16.08-.01.07-.04.14-.55.25l.2-.17c-.47.15-.6.24-.93.3.27-.14.1-.2-.6 0l.43-.27-1.26.57c-1.05.15-2.62.74-3.08.7 0 0-2.2.5-2.66.82.4-.23-.8.05-.5-.17-.53.28-2.18.83-2.9.88l.12-.05c-2.52.53-4.2 1.33-6.46 1.76.14.1-1.06.35-.72.45-2.25.8-4.3.77-4.98 1.54-1.04.3-1.28.2-1.82.32l.24-.1-3.98 1.1c-.7.25-.76.54-2.08.83.4-.22-.13-.05-.62.08.3-.1.4-.16-.26-.06-.08.06-.22.1-.34.16-.01-.01-.03-.01-.02-.02-.8.26-.65.25-.27.16-.01.02.02.03.15.03-.88.1-2.35.64-2.5.5-2.44.7-4.14 1.35-6.15 1.97-.25-.03.2-.24.78-.43l-1.44.42c-.02-.13.8-.3 1.25-.44-1.78.25-3.5 1.16-5.56 1.52l-.4.2h-.12c.02.05-.4.25-.7.35-.32-.04-.05-.27-1.05.01-.82.1-2.23.66-3.25 1 .56-.13.4-.02.17.08-.5.14-.82.1-1.2.26l-.1-.14c.24.1-1.26.5-1.43.62-.3-.04.75-.3.85-.42l-3 .83c-.62.3.13.12-.17.34l-.5.17c-.12-.1-.2-.26-.32-.4-.1-.15-.22-.34-.35-.58-.12-.23-.24-.47-.35-.72l.04.38c-.95-1.55-1.34-2.6-1.57-3.8-.75-1.98-1.12-3.5-1.34-4.5h0v-.01c.01-.76.44-1.2.88-1.4-.01.15-.03.3-.03.45.2-.1.44-.13.65-.06.04-.2.06-.36.08-.54.04 0 .1 0 .12.01.34 0 .42-.07.32-.2-.07-.06-.1-.12-.3-.2l-.1-.03c.04-.36.1-.7.13-1 .04-.44.08-.8.06-1.03v-.37c-.1-2.1-.6-3.9-1.07-5.6-.5-1.7-1.05-3.3-1.6-4.82l-.8-2.25c-.28-.76-.58-1.52-.9-2.23-.62-1.45-1.27-2.86-1.93-4.3l-9.54-20.1-7.74-16.88-3.4-7.55c-1.2-2.77-4.1-7.26-3.07-4.65.16.52.16.72.57 1.73-.08-.01.43 1.36 1.55 3.9l3.62 7.9.6 1.1.14.33c.01-.02.17.28.37.68l.65 1.3c.3.8-.17.01 1.1 2.73.94 2.18 2.88 6.1 4.23 8.9-.7-1.52-.43-1.05-.1-.4.64 1.36.94 2.17 1.46 3.2v.13c.15.16 1.77 3.6 2 4.03.3.8-1.04-2.08-1.25-2.4l3.84 8.16c1.42 2.88-.17-.57.56.8 1.2 2.56 2.44 5.03 3.73 8.02l-.35-.97c1.13 2.4 2.02 4.34 2.7 6.12.65 1.8 1.2 3.4 1.74 5.1.84 2.32 1.5 4.42 1.88 6.33.2.95.28 1.87.23 2.72-.03.44-.08.87-.12 1.28a2.5 2.5 0 0 0-.29.05c-.4.1-.74.32-1.03.63a2.08 2.08 0 0 0-.57 1.34v.1a15.32 15.32 0 0 0 .13 1.92c.17 1.42.42 2.6.83 3.78.4 1.14.9 2.14 1.46 3.13l.45.74.33.53.44.66.46.66.22-.06c.03.1.06.18.1.23.06.14.1.27.16.4.2.5.38.83.5.9s.2-.07.2-.56c.01-.27-.03-.75-.06-1.23l1.05-.3 4.04-1.22c5.45-1.4 6.97-1.52 12.57-3.15 2.7-.7 5.54-1.54 8.16-2.27 1.2-.54 3.45-.93 4.88-1.5l.6-.04c.5-.2 1.08-.4 1.6-.47l-.02.04c.74-.3 1.6-.47 1.97-.62l-.02.04.92-.26-.15.1c1.3-.45 2.66-.82 3.88-1.1l-.14-.1c2.6-.54 3.48-1.08 5.85-1.52v.04c.27-.1.52-.2.77-.28l.75-.24c1.8-.53 3.3-.67 5.2-1.3l-.04.06c1.23-.1 2.1-.7 3.27-.98l-.16.03a3.46 3.46 0 0 0 .56-.24l.16-.04-.2.16 1.62-.38-.25-.06c.4-.07.7-.08.97-.1.06.03.06.03.18-.1.17-.15-.14-.14.13-.25h.05c.01.1.01.2.02.32a.81.81 0 0 0 .01.15c.03.16.07.33.1.5a29.88 29.88 0 0 0 .23 1.01c.04.2.04.4.01.58.15-.06.14.16.08.4l-.13-.02c-.1.42-.25.44-.34.44-.1 0-.18.01-.5.24l.02-.1c-.02.1-.05.22-.1.32-1.1.56-.72-.07-2.03.64.55-.17.34.2-.37.33l.14-.16c-.38.13-.5.2-.75.26.2-.12.07-.2-.48-.03l.34-.25-1 .5c-.85.1-2.1.6-2.5.53 0 0-1.78.4-2.14.68.32-.2-.66.01-.42-.2-.42.25-1.74.72-2.32.73l.1-.04c-2.03.4-3.36 1.1-5.2 1.43.12.12-.85.3-.56.4-1.8.68-3.48.55-4 1.28-.84.26-1.04.14-1.48.23l.2-.08-3.2.9c-.57.2-.6.5-1.66.7.3-.2-.1-.06-.5.05.25-.08.3-.14-.22-.07-.06.05-.17.1-.27.15-.01-.01-.03-.01-.02-.02-.65.2-.52.2-.2.15-.01.02.02.03.12.04-.72.05-1.9.52-2.02.37-1.96.57-3.32 1.13-4.94 1.64-.2-.04.15-.22.62-.4l-1.15.35c-.03-.13.65-.25 1-.38-1.44.17-2.8.98-4.48 1.23l-.3.2-.1.01c.02.05-.32.22-.56.3-.26-.05-.06-.26-.86-.04-.67.06-1.8.54-2.6.83.45-.1.33 0 .14.1-.4.1-.66.06-.96.2l-.08-.14c.2.1-1 .44-1.14.54-.26-.05.6-.27.67-.38l-2.4.67c-.83.35.2.1-.18.35-.75.23-1.46.54-2.36.7l.3.06c-1.4.5-2.26.7-3.26.83-.65.23-1.2.52-1.72.6-.53.1-1.02 0-1.42-.16-.8-.34-1.23-.9-1.48-1.24-.45-.73-.55-.58-.57-.18 0 .54.43 1.57 1.2 2.15a3.55 3.55 0 0 0 1.08.59c.3.1.5.13.5.13.4.08.8.1 1.18.04.18-.02.4-.07.52-.1.12-.03.24-.05.36-.08l1.36-.34c.87-.23 1.68-.48 2.5-.74 1.67-.53 3.42-1.14 5.9-1.86 4.4-1.12 5.63-1.17 10.14-2.5 2.17-.56 4.46-1.25 6.57-1.85.95-.48 2.78-.75 3.92-1.25h.5c.4-.17.86-.34 1.3-.4l-.02.04c.6-.25 1.3-.4 1.58-.5l-.02.04.74-.22-.1.08c1.04-.38 2.14-.68 3.12-.9l-.12-.12c2.1-.4 2.8-.9 4.7-1.22v.04c2.26-1 3.8-.76 6.14-1.77-.3.13.15.04.13.08 1.1-.34 2.3-.7 2.24-.97.82-.22.7-.1.83-.02-.04-.12.66-.36 1.3-.54l-.28.13.9-.27.45-.13c.17-.05.38-.13.55-.2-.17 0-.35-.03-.5-.06.57-.16.66-.18.76-.16.08.01.2.04.64-.4l-.14-.13c.62-.56.97-1.18 1.16-1.86.06-.28.1-.64.07-1.02zm-198.84-2.4c.22.34.7.93 1.64 1.8l-.06-.01c.87.68 1.47 1.07 2.26 1.27.07.24.86.33 1.08.47l-.03.01c.67.1 1.24.55 1.87.66-.03 0-.06.04-.2 0 .44.14 1.04.33 1.04.43 1.04.36 2.45.98 3.16 1.1l-.06.01c.4.05.5.2.92.3l.04.04c.45.07 1.18.5 1.52.6l-.01.07.8.36-.3-.15c.18-.12.55.38 1.16.56.5.3 1.24.2 1.7.65.28.1-.28-.04.1.17-.05.08-.2-.08-.15.05.36.22.47.5.88.8l-.04.07c.58.38.77 1 1.13 1.27.22.27.24.4.27.52.01.06.03.12.07.2l.08.12c.02.01.04.03.08.06a.35.35 0 0 1-.06.09c.02.07.2.1.18.2-.05-.03-.05 0-.06.01 0 .02-.06-.01-.08-.04 0 0-.02 0-.03-.01-.14-.04-.15 0-.27.02-.34.02-.86.03-1.35-.05-.23.12-.76.04-.93.14-.03-.05-1.07-.02-.47-.13.05-.01.14-.01.14.01l.07-.07c-.6-.14-1.1.07-1.7.04.18.03.4.02.25.07l-.55-.02.12-.06-.83-.05.1.08c-.4-.04-.54-.18-1-.07-.2.06.38.1-.05.13-.54-.06-1.35-.15-2.04-.18.06.1-.12.08-.3.1l-.02-.08c-.73.1-.27-.17-1-.1l-.13.1c-.66.14-.35-.16-1.08.03.3-.01.13.17-.22.13l.1-.07c-.2.01-.26.04-.4.02.12-.04.06-.1-.22-.1l.2-.1-.55.12c-.42-.1-1.1 0-1.26-.1 0 0-.9-.07-1.1.03.18-.06-.3-.1-.17-.18-.24.07-.93.12-1.2.03l.05-.01c-1.02-.12-1.75.07-2.67-.08.04.1-.44.02-.33.14-.96.08-1.72-.3-2.08.02-.43 0-.5-.1-.73-.14l.1-.01c-.8-.03-1.04-.03-1.63-.1-.3-.01-.38.18-.86.05.17-.03-.03-.06-.2-.1.12.01.16-.01-.07-.1-.02.01-.04.01-.1 0h-.07c-.28-.07-.24-.05-.1 0-.01.01 0 .02.03.05-.27-.14-.8-.34-.75-.46-.7-.46-1.12-1.02-.85-1.65.08-.04.05.12.02.28.03-.13.1-.26.17-.4.06.05-.1.24-.12.36l.2-.3c.04-.05.08-.1.12-.16.06-.07.12-.14.2-.2.26-.3.52-.6.85-.88l.07-.17.04-.03c-.03-.02.07-.2.15-.3.13-.04.1.12.4-.2.27-.2.6-.7.86-1.05-.16.16-.14.08-.1-.01.14-.15.27-.2.36-.33l.08.05c-.12 0 .3-.46.32-.54.13-.04-.17.27-.17.35l.85-.9c.25-.38-.12 0-.04-.22.26-.3.45-.64.78-.95l-.15.06c.42-.6.68-.96 1.03-1.33.35-.7.54-1.22.64-1.63.02.03.04.07.06.1.27-.57.35-.9.35-.9s.1.12.27.25zm-30.76-8.96c.38.95.76 2.6 2.44 4.36l-.13-.05c1.04.98 2.06 1.54 3 1.96.95.4 1.86.62 2.78.7.22.37 2.16.47 2.76.62l-.06.02c.82 0 1.65.13 2.48.23a17.29 17.29 0 0 0 1.24.11 6.62 6.62 0 0 0 .63 0l.16-.01h.05c.04-.01.07-.03.1-.03-.03.02-.05.1-.17.1.1-.02.2-.03.28.04a4.15 4.15 0 0 1 .45.44c.33.37.57.7.53.8l1.48 1.74c.44.47.9.96 1.36 1.27a3.28 3.28 0 0 0 1.35.54c.9.15 1.8-.22 2.33-.84.1-.08.06-.15.05-.22l-.04-.2-.1-.4c-.07-.26-.14-.5-.23-.7l.08.13c-.03-.06-.05-.12-.08-.18-.06-.08-.1-.16-.16-.23l-.26-.4a10.75 10.75 0 0 1-.4-.68l-.4-.7a6.73 6.73 0 0 0-.4-.63c-.01-.06-.04-.14-.03-.13-.34-.42-.74-1.1-1.1-1.74l-.1-.18-.06-.2c-.06-.15-.07-.3-.1-.42-.05-.26-.05-.48-.05-.64l.12-.03c.04-.5.33-1 .74-1.5-.16.18-.3.36-.43.54-.07-.18.17-.45.57-.8.2-.17.44-.37.68-.6a4.72 4.72 0 0 0 .38-.39c.14-.15.25-.3.34-.42.46-.4.7-.73 1.23-.58.13.05.25.1.38.22l.4.4c.26.26.5.54.7.86.56.46-.57-.34.18.42-.1.13-.4-.32-.32-.03.7.77.95 1.44 1.84 2.37l-.06.12c1.23 1.16 1.87 2.57 2.76 3.3.25.27.4.46.52.63-.07.1-.14.23-.2.33l-.3.46-1.5 2.13c-.25.34-.5.68-.8 1.05l-1.1 1.28c-.78.82-1.3 1.3-1.8 1.8l-.8.75c-.3.26-.95.92-.87 1.9.06.93.63 1.56 1.2 1.97.3.2.6.37.93.5.16.06.33.1.5.15l.43.08c.32 0 .68.04 1.05.08.38.05.76.08 1.07.04l.23.1c.2-.02.47-.03.68.02l-.01.02c.32-.04.67.01.83-.01l-.01.02.38.01-.07.03c.55-.03 1.12-.01 1.62.03l-.04-.1c1.06.14 1.46-.03 2.42.1l-.01.02c1.22-.2 1.92.2 3.18.02-.16.02.07.05.05.07.58-.01 1.2-.01 1.2-.18.42.01.34.06.4.13 0-.08.36-.1.7-.1l-.15.03.94-.01-.18-.14c.5.05.12.17.6.15v-.12c.7.04 1.1.22 1.76.3 1.4.05 2.83 0 4.24-.03l2.1-.02 1.02.03c.16.01.34.01.5.02.04.1.1.2.12.3.06.17.1.38.16.53v.13c-.01.07.01.16-.05.17.2.14.1.14-.03.17l-.08-.12c-.1.04-.06.05-.32.03-.17-.02-.25-.05-.33-.1-.16-.07-.32-.15-1.2-.1l-.3.17c-1.58.24-.85-.26-2.6.07.7-.02.33.28-.53.22l.22-.12c-.47.02-.63.07-.95.05.28-.06.15-.17-.55-.16l.47-.15-1.32.22c-1.02-.13-2.63.02-3.04-.15 0 0-2.18-.1-2.68.1.44-.1-.76-.16-.42-.3-.57.13-2.24.23-2.9.1l.13-.02c-2.47-.15-4.23.18-6.45 0 .1.14-1.07.06-.78.25a15.01 15.01 0 0 1-1.33.03c-.2-.01-.4-.02-.62-.02h-.3l-.1-.02c-.01-.02-.3-.18-.53-.3s-.43-.2-.63-.3c-.4-.16-.73-.24-1.03-.18-.96-.4-1.07-.63-1.55-.88l.24.08c-1.8-.76-2.32-1-3.64-1.6-.68-.25-.9-.05-2.06-.65.43.08-.07-.12-.5-.32.3.1.4.12-.16-.2-.1-.01-.23-.05-.36-.08 0-.01-.02-.03-.01-.03-.76-.3-.64-.2-.3-.04-.02.01 0 .04.1.1-.7-.47-2.14-.96-2.16-1.17-2.24-.97-3.9-1.52-5.8-2.3-.17-.18.3-.06.85.15l-1.33-.56c.07-.12.8.27 1.2.43-1.47-.9-3.3-1.26-5.07-2.27l-.42-.08-.1-.07c-.02.05-.46-.06-.74-.17-.2-.22.13-.24-.78-.64-.67-.43-2.06-.87-3.03-1.24.5.25.3.23.07.17-.46-.2-.67-.43-1.04-.54l.02-.16c.12.22-1.25-.4-1.45-.4-.2-.22.75.23.9.2l-1.22-.54c-.05-.08-.42.02-.26-.52-.02-.1-.01-.27-.03-.3s-.04-.01-.07.05c-.06.12-.12.24-.16.02.12-.92.2-1.84.53-2.87l-.2.3c.27-1.73.7-2.73 1.4-3.67.68-1.47 1.54-2.45 2.16-3.22.6-.8 1.22-1.3 1.9-1.35-.1.15-.2.3-.3.46.22-.04.42-.02.58.08a2.13 2.13 0 0 1 .31.29c.02-.02.03-.05.05-.07.2.3.4.68.58 1.26zM268.06 208.2c-.03-.05.43 1.1.74 1.9.83 1.4 2.2 4.88 2.82 5.92 0 .22 2.96 6.88 1.1 3.1-.16-.32-.4-.9-.36-.88l-.3-.4c1.47 3.98 3.17 7 4.8 10.87-.46-1.16-1.12-2.67-.6-1.7l1.53 3.58-.42-.7 2.25 5.35-.2-.78c1.06 2.63 1.28 3.63 2.66 6.5.65 1.3-.87-2.54.3.2l5.05 13.4c-.03-.47.43.74.94 2l-.06.2c1.96 4.75.4 1.85 2.3 6.6l-.24-.4.7 1.18c1.78 4.25.6 2.4 2.6 7.13-.67-1.9-.04-1 .7 1.38l-.3-.56c.46 1.3.66 1.7.92 2.6-.32-.76-.3-.36.35 1.56l-.56-1.24 1.38 3.57c.77 2.85 2.23 7.3 2.4 8.5 0 0 1.64 6.13 2.18 7.5-.44-1.2.42 2.2.03 1.26.56 1.55 1.9 6.23 2.24 8.15l-.1-.35c1.5 6.3 2.9 10.9 4.17 16.38l-.9.23-1.96.47-3.95.9-5.8 1.2-.33-2.26.1.2-1.17-6.14c-.34-1.8-.75-3.37-1.24-5 .16-.6-.9-3.94-1.1-5.08l.05.1c-.95-2.85-1.36-6.03-2.3-8.76.05.1.14.14.32.78-.58-2.02-1.4-4.78-1.27-4.98-1.36-4.84-3.16-11.6-4.28-14.64l.1.2c-.66-1.72-.66-2.28-1.3-4.23-.01-.1-.04-.26-.02-.24-.7-1.88-1.6-5.6-2.1-7.14l.08-.13-1.06-3.82.36 1.44c-.43-.42-.6-2.95-1.5-5.7-.64-2.62-1.94-5.15-2.47-7.9-.45-1.26.5 1.1-.07-.83.14-.1.3.88.32.35-.53-1.9-.58-3.17-1.25-5.5l.1-.12c-.93-3.02-1.18-5.83-1.86-7.83-.8-3.15-.12-2.2-1.1-5.46l-.12-1.32c-.28-1.42-.42-.97-.7-2.56.12.07-.35-2-.05-1.1-.6-3.6-1.8-7.17-2.5-11.92-.4-.98-.8-3.36-1.1-4.1.02-.04-.05-.43-.14-.9.65-.04 1.27-.03 1.22-.02zm-6.74.01l3.76-.03c.02.1.05.22.07.33l3.16 15.38-.03.54c-.17.27 1 3.1.9 3.57l.4 1.3c.04.38.18 1.18-.01.53.26 1.23.3 1.25.57 2.12l.17 1.35c.98 4.87 2.18 8.93 3.34 14.03.6 3.1 1.66 7.5 2.86 11.93 1.2 4.44 2.54 8.9 3.52 12.16 2.86 9.13 5.04 20.07 7.88 29.43.05.32.32 1.1.35 1.08l2.1 8.68.38 1.75.9 4.36 1.36 6.3c-.2.04-.43.1-.64.12-5.24 1-10.4 1.76-15.3 2.22l-.53-.08c-.16-.1-1.44.2-2.45.4-.8-7.58-1.74-12.64-3.1-22.67-1.22-10.13-1.3-12.85-2.8-23.32l-2.2-15.2c-.55-2.3-.95-6.4-1.57-9.12l-.05-1.08c-.2-.94-.42-2.03-.5-3l.04.05c-.3-1.4-.5-2.98-.65-3.68l.04.05-.27-1.7.1.3c-.47-2.44-.83-4.97-1.1-7.2l-.12.2c-.5-4.8-1.03-6.5-1.4-10.84l.04.05c-1.08-5.4-.84-8.66-1.86-14.25.13.7.04-.3.08-.26-.35-2.6-.7-5.36-.98-5.36-.02-.15-.03-.3-.04-.4l3.62-.04zm-12.4-.14l.07.16c0-.06 0-.1-.01-.16.38-.03.88-.05 1.88-.02-.15.1 3.15.08 1.7.2l3.45.04c0 .2.03.55.1 1.03l-.25-.85.5 2.43c.1 1.9.6 4.9.54 5.7 0 0 .4 4.1.7 5-.22-.8.02 1.45-.2.82.26 1.04.76 4.15.78 5.4l-.05-.23c.45 4.64 1.22 7.87 1.63 12.03.12-.2.35 2 .45 1.42.78 4.25.77 7.86 1.58 9.3.34 1.94.23 2.32.36 3.33l-.1-.46 1.2 7.38c.26 1.34.55 1.5.85 3.94-.22-.77-.05.22.07 1.12-.1-.58-.16-.75-.06.45.06.16.1.42.16.66-.01.01-.01.06-.02.04.25 1.5.25 1.24.16.53.02.03.03-.03.03-.25.1 1.6.63 4.37.48 4.58l1.88 11.54c-.04.44-.24-.44-.42-1.53l.4 2.68c-.13-.01-.28-1.53-.42-2.36.22 3.23 1.1 6.56 1.38 10.34l.2.76.01.23c.05-.02.24.8.33 1.37-.05.55-.27 0-.02 1.85.08 1.48.6 4.17.9 6.08-.1-1.04-.01-.7.1-.27.12.93.08 1.48.22 2.2l-.1.08c.13.1.44 2.46.54 2.77-.05.54-.28-1.43-.4-1.65l.72 5.6c.37 1.97.1-.38.36.55.25 1.75.57 3.45.73 5.48l.06-.66c.5 3.3.74 5.26.87 7.5l.3 1.7-.96.17c-.38 0-1.2.04-.52-.08-1.25.12-1.27.16-2.17.3h-1.35c-4.93.33-9.1.85-14.3.98l-2 .01.25-1.92.03.23c.46-4.95.62-8.08.5-11.52.32-.53.14-4.08.24-5.24l.02.1c-.18-3.03.23-6.24.03-9.16.02.1.1.18.1.85-.04-2.13-.12-5.03.05-5.2-.07-5.08-.1-12.17-.43-15.4l.05.22c-.2-1.85-.07-2.4-.2-4.47.02-.1.03-.26.04-.24-.22-2-.15-5.9-.27-7.52l.1-.1-.12-4.02.01 1.5c-.32-.5.12-3.04-.15-5.95-.03-2.73-.8-5.52-.78-8.35-.2-1.34.28 1.18.1-.83.16-.07.14.94.25.4-.16-1.98 0-3.26-.22-5.7l.12-.1c-.4-3.17-.17-6.02-.5-8.13-.3-3.28.24-2.23-.22-5.63l.08-1.34c-.06-1.47-.27-1.04-.3-2.66.1.1-.05-2.06.1-1.1-.07-3.68-.73-7.44-.8-12.3-.28-1.04-.33-3.48-.54-4.25.03-.05 0-.68-.04-1.36.06-.01.13-.02.2-.02zm-11.57 48l.16-1.08c-.02-.97-.02-2.1.08-3.06l.03.06c-.04-1.44.08-3.06.06-3.78l.03.06.05-1.75.04.3a132.79 132.79 0 0 1 .22-7.38l-.15.18c.35-4.87.1-6.66.47-11.05l.03.06c-.17-5.58.6-8.78.45-14.53.02.72.1-.3.12-.24.06-2.64.14-5.46-.14-5.5v-.46c1.9.08 1.96.3 5.9.12l2.04.17h.2c.45 5.6.85 11.1 1.04 16.27l-.1.53c-.2.24.53 3.23.36 3.7l.18 1.37c-.01.4 0 1.2-.1.52.07 1.27.1 1.3.23 2.2l-.05 1.37c.2 5 .7 9.25.9 14.52.1 6.33.56 18.24.86 25.12.52 9.66-.15 20.9.16 30.8-.03.32.03 1.15.06 1.15l-.2 9.03-.28 6.32-.36 6.23-8.66.04a294.66 294.66 0 0 1-9.79-.17c1.36-7.36 1.8-12.56 2.96-22.55l1.42-11.67c.36-3.3.7-6.65.97-12 .35-5.12.43-10.54.6-15.53-.12-2.37.25-6.54.18-9.34zm-.2-48.2c-.02.2-.04.5-.04.86l-.1-.86h.15zm-11.77 19.26c.1.1.2-2.03.25-1.08.4-3.63.2-7.4.77-12.2-.15-1.05.1-3.46 0-4.25.04-.05.1-.95.16-1.75h.16c-.01.15-.03.26-.04.25l.1.33a13.03 13.03 0 0 0 .07-.58c3.57-.01 6.74.2 9.26.02.32-.01.62-.01.9-.01l.12 2.47c-.2 1.92-.16 4.98-.36 5.77 0 0-.24 4.14-.1 5.1-.08-.84-.2 1.45-.32.8.1 1.08.08 4.25-.1 5.52l-.01-.24c-.32 4.7-.1 8.04-.44 12.25.15-.2-.01 2.04.2 1.5.02 4.37-.68 7.93-.17 9.53-.04 1.98-.22 2.35-.3 3.37v-.47l-.25 7.56c0 1.38.26 1.6.1 4.08-.07-.8-.1.2-.13 1.13.01-.6-.03-.78-.14.43.03.17.04.44.04.68-.01.01-.02.06-.03.03-.02 1.54.02 1.28.06.56.01.04.04-.02.08-.24-.2 1.6-.16 4.46-.35 4.65l-.14 6.2-.18 5.6c-.12.43-.14-.48-.1-1.6l-.16 2.73c-.13-.03.04-1.57.07-2.4-.22 1.62-.3 3.3-.36 5.04-.1 1.75-.2 3.56-.46 5.45l.03.8-.04.22c.06-.01.05.85.01 1.42-.17.53-.26-.06-.45 1.82-.25 1.48-.4 4.23-.56 6.18.14-1.05.16-.7.15-.24-.1.94-.28 1.47-.33 2.2l-.13.06c.1.14-.18 2.52-.17 2.84-.18.52.08-1.47.02-1.7l-.72 5.64c-.16 2.02.2-.34.2.63-.2 1.77-.37 3.5-.75 5.53l.23-.62c-.4 3.34-.73 5.32-1.24 7.53l-.18 1.48-1.2-.05c-4.76-.17-9.86-.95-14.95-1.85l-3.22-.66.57-1.24-.03.23c1.84-4.6 2.77-7.58 3.48-10.92.43-.44 1.12-3.9 1.48-5v.1c.54-2.97 1.64-6 2.02-8.88 0 .1.06.2-.06.85.4-2.08.86-4.93 1.06-5.06.88-4.97 1.96-11.94 2.08-15.18l.02.23c.06-1.85.27-2.37.42-4.42.04-.1.06-.25.07-.23.06-2 .62-5.8.7-7.43l.12-.1.36-3.97-.17 1.48c-.26-.54.48-2.98.53-5.88.27-2.7-.17-5.52.2-8.3-.04-1.35.14 1.2.18-.8.16-.05.03.94.2.44.08-1.97.4-3.2.47-5.63l.13-.1c0-3.17.58-5.94.5-8.06.1-3.26.5-2.16.5-5.57l.25-1.3c.15-1.48-.1-1.1.07-2.7zm-9.4-17.05l.25-2.33c2.27.01 4.15.16 7.25.07l.15.12c.4-.02.8-.03 1.18-.04-.26 5.66-.56 11.2-1.03 16.37l-.18.5c-.23.2.12 3.25-.1 3.68l.01 1.37c-.06.38-.15 1.18-.16.5-.1 1.26-.05 1.3-.05 2.2l-.22 1.34c-.42 4.95-.46 9.2-.9 14.4-.72 6.25-1.48 18.04-2.13 24.82-.74 9.56-3.17 20.44-5.02 30-.1.3-.22 1.12-.2 1.12-.7 2.9-1.47 5.78-2.3 8.63 0 0-.74 2.6-1.85 5.96a134.94 134.94 0 0 1-1.93 5.41l-10.1-2.3c-.3-.12-1.1-.28-1.1-.26-1.42-.42-2.85-.82-4.24-1.3l-1.95-.65c1.4-2.78 2.53-5.28 3.62-7.88 1.52-3.66 3.05-7.56 5-13.08 1.75-4.83 2.82-7.9 3.76-11.1.48-1.6.95-3.2 1.37-5.06.48-1.87.9-4 1.4-6.6 1-4.98 1.84-10.32 2.6-15.2.17-2.35 1-6.42 1.24-9.2l.28-1.05c.1-.95.2-2.07.4-3l.03.06c.1-1.43.4-3 .46-3.72l.03.06.23-1.72.01.3c.25-2.48.6-5.02.96-7.26l-.17.17c.8-4.77.76-6.56 1.5-10.87l.03.06c.34-5.52 1.38-8.62 1.73-14.3-.05.72.1-.28.14-.22zm-34.58 94.22l-.1.33c3.43-6.84 5.03-11.47 6.3-16.58.54-.7 1.7-6.05 2.17-7.77l-.02.17c.86-4.58 2.2-9.35 2.75-13.8-.01.18.06.28-.12 1.3.53-3.23 1.14-7.65 1.35-7.86 1.15-7.7 2.7-18.46 3.05-23.45v.35c.17-2.84.44-3.65.73-6.82.04-.17.08-.4.1-.35.2-3.1 1.02-8.98 1.2-11.48l.13-.15.6-6.14-.26 2.3c-.1-.35.01-1.23.18-2.46l.28-2.1.14-1.2c.02-.2.04-.4.07-.62l1.34-.05c4.18.04 8.48-.64 12.83-.5 1.64-.1-.46.1.14.14-.26 1.8-.44 3.93-.66 4.55 0 0-.6 4.07-.54 5.03-.01-.83-.34 1.4-.4.75-.01 1.07-.3 4.2-.6 5.44l.02-.24c-.74 4.6-.86 7.92-1.6 12.04.17-.17-.2 2 .04 1.5-.4 4.3-1.47 7.75-1.13 9.38-.25 1.95-.46 2.3-.64 3.3l.04-.47-1.08 7.4c-.16 1.36.07 1.6-.38 4.02.02-.8-.12.2-.26 1.1.08-.58.07-.77-.2.4.01.17-.02.43-.04.68-.01.01-.02.05-.03.03-.22 1.5-.14 1.26-.01.56.01.04.04-.02.1-.23-.4 1.54-.73 4.36-.94 4.52l-1.87 11.55c-.18.4-.08-.5.1-1.58l-.5 2.66c-.12-.05.23-1.54.37-2.36-.2.78-.4 1.58-.55 2.4l-.52 2.48a37.68 37.68 0 0 1-1.35 5.23l-.1.78-.08.2c.07.01-.12.84-.27 1.38-.27.48-.25-.1-.8 1.67-.52 1.38-1.28 4-1.84 5.85.36-.98.3-.64.2-.2-.3.88-.62 1.34-.82 2.04l-.14.02c.06.16-.74 2.4-.8 2.7-.3.46.43-1.4.42-1.64l-2.03 5.24c-.67 1.9.28-.28.03.66-.66 1.64-1.22 3.28-2.14 5.1l.4-.53c-1.24 3.1-2.1 4.9-3.2 6.84l-.6 1.37-1.98-.74-3.1-1.28-2-.9-2.13-1.03c-.72-.38-1.45-.74-2.16-1.15l-.53-.3-.63-.38-.77-.5c1.34-2.3 2.96-5.1 4.83-8.6zm38.84 32.4l-.9-.1c.15-.05.82.04 1.48.13-.12 0-.34-.01-.58-.02zm82.25-5.96c-.4.13-.75.26-1.07.4-1.72.5-1.12-.01-3.87.93.56-.14.73-.12.64-.04-.93.18-1.5.25-2.42.45l.7-.2-2.18.5.8-.32-1.7.53-1.73.4c-1.78.33-3.88.82-4.54.8l-2.13.37c-1.12.2-2.35.42-2.8.6.8-.25-1.44.08-.83-.16-1.04.3-4.1.9-5.36.95l.23-.05c-4.6.52-7.8 1.25-11.96 1.43.16.1-1.15.2-1.46.3l-4.54.36c-1.8.04-3.27.04-4.25.26l-2.68.13c-.36-.03-.68-.06-1.07-.07.46-.05 1.27-.1 2.18-.16-1.4.06-2.8.1-4.2.1.04-.13 2.4-.06 3.7-.16-4.98-.1-10.28.26-16.1-.2l-1.22.05-.35-.04c.01.05-1.16.04-2.02 0-.13-.02-.23-.05-.25-.08-.06 0-.1-.01-.17-.01-.34-.13-.1-.22-2.53-.4l-9.23-.83c-1.05-.16-2.14-.28-3.25-.4l-.05-.08c-.14.05-1.63-.12-2.84-.26l-1.22-.2c.7.07 2.1.27 2.33.23-2.88-.38-3.58-.55-4.3-.65-.66-.1-1.35-.2-3.7-.63-1.46-.36-4.02-.75-5.86-1.06 1.02.23.67.23.23.17-.92-.18-1.42-.4-2.13-.5l-.04-.13c-.14.1-2.45-.42-2.77-.45-.5-.24 1.43.24 1.67.2-3.63-.85-1.82-.4-5.42-1.37-1.9-.43.2.22-.6.12-1.87-.58-3.48-1.2-5.16-1.88-4.53-1.53-7.93-3.1-10.53-4.25l-3.32-1.5-.67-.3c-.1-.05-.2-.1-.3-.15-.08-.04-.16-.1-.25-.13-.04-.04-.07-.1-.1-.15-.25-.45-.3-.95-.33-1.28-.01-.37-.05-.67.18-1.1.04.02.1-.03.22-.14-.1.32-.07.42.08.24.1-.1.25-.35.46-.7.2-.14.3-.24.34-.3.02-.05-.04-.05-.15-.03l.65-1.12.86-1.3 1.07-1.67.58-.9c.15-.2.3-.45.44-.6.14.1.28.23.43.35l.2.16c.12.08.24.17.36.25.55.35 1.12.75 1.75 1.12l-.22-.06c4.33 2.44 7.25 3.6 10.52 4.57.4.5 3.82 1.36 4.9 1.8l-.1-.01c1.47.33 2.95.8 4.4 1.28 1.48.43 2.94.85 4.37 1.12-.1-.01-.2.06-.84-.1 2.06.47 4.9.98 5.03 1.2 4.96.96 11.92 2.1 15.17 2.1l-.23.02c1.85.01 2.37.27 4.43.33.1.03.25.05.23.06 2 .01 5.83.36 7.46.35l.1.12 4 .1-1.5-.07c.52-.3 3 .3 5.9.1 2.7.07 5.48-.66 8.28-.57 1.33-.18-1.17.27.82.1.07.16-.93.13-.4.24 1.96-.14 3.23.06 5.64-.16l.1.12c3.14-.4 5.97-.18 8.05-.57 3.24-.36 2.2.2 5.57-.36l1.33.03c1.45-.12 1-.3 2.63-.4-.1.12 2.04-.14 1.1.06 3.65-.27 7.32-1.17 12.1-1.65 1-.36 3.4-.65 4.14-.94.14.07 4.77-.85 2.14-.17-.23.06-.63.13-.6.1l-.3.18c2.74-.26 4.88-1.03 7.54-1.55-.8.12-1.84.35-1.16.12l2.47-.5-.5.2 3.7-.74h-.53c.82-.16 1.4-.23 2-.32.2-.04.42-.07.65-.1.1-.02.15-.04.23-.1.01.01.03.02.05.04.03.03.04.01.06-.01.17.56.44 1.66.57 1.93l.68 3a2.04 2.04 0 0 1 .03.81c-.06.35-.22.68-.44.95-.16.16-.33.3-.52.4-.24.12-.4.16-.74.25l-.94.24-1.58.4c-.3.03-.77.12-1.88.44l.26-.15-.58.34zm62.1 78.35c-.04.02-.1.05-.16.06-.14.02-.3.03-.5.06-.2.18-.8.25-.96.38-.04-.04-1.14.27-.53 0 .05-.02.15-.04.15-.02l.06-.1c-.67.02-1.15.36-1.8.5.2-.02.44-.1.3 0l-.6.14.1-.1-.9.18.14.04c-.44.07-.62-.02-1.08.2-.2.1.43 0-.02.13-.6.1-1.47.23-2.2.38.1.07-.1.1-.3.18l-.04-.07c-.75.3-.32-.1-1.08.18l-.1.13c-.66.32-.4-.06-1.14.33.3-.1.18.12-.2.2l.08-.1c-.2.07-.27.1-.4.13.1-.07.04-.12-.26-.03l.18-.14-.55.27c-.47.03-1.15.3-1.36.25 0 0-.97.2-1.17.35.18-.1-.36-.01-.23-.13-.23.14-.95.38-1.27.37l.05-.02c-1.1.2-1.83.57-2.84.7.06.07-.46.15-.3.23-1 .35-1.9.2-2.2.62-.46.12-.56.04-.8.07l.1-.04a19.56 19.56 0 0 1-1.76.37c-.32.1-.34.26-.92.32.18-.1-.06-.04-.27-.01.14-.03.18-.06-.1-.06-.04.03-.1.05-.15.07-.37.07-.3.08-.13.06-.01.01.01.02.06.03-.4-.02-1.04.14-1.1.04-.26.03-.54.08-.73.1s-.37 0-.53-.04c-.33-.1-.64-.32-.8-.66.02-.1.12.05.25.2-.1-.13-.18-.27-.2-.43.07-.01.1.25.2.37-.08-.27-.18-.52-.16-.83.01-.16.05-.3.13-.46.1-.18.24-.38.38-.56l.04-.2.04-.04c-.03-.01.03-.22.1-.34.12-.08.14.1.36-.32.24-.3.45-.93.62-1.38-.12.23-.12.13-.1.02.1-.2.22-.3.26-.47l.1.02c-.12.05.16-.6.15-.68.12-.1-.08.36-.06.43.35-.86.2-.43.5-1.3.1-.5-.1.06-.12-.2.12-.42.17-.84.33-1.3l-.12.13c.12-.8.2-1.27.35-1.8a11.74 11.74 0 0 0-.13-1.83l.08.03c0-.68-.05-1.1-.05-1.1a5.6 5.6 0 0 0 .35.07c.4.2 1.17.5 2.48.93l-.06.02c1.15.3 1.88.44 2.7.45.1.2.95.2 1.22.3l-.03.01c.74 0 1.44.38 2.15.4-.03.01-.05.05-.2.03.5.07 1.2.16 1.2.27 1.2.2 2.85.55 3.64.54l-.06.02c.46-.03.57.1 1.06.13.02.02.06.03.05.04.5-.02 1.4.24 1.78.27l.01.07.95.16-.35-.08c.16-.16.7.25 1.4.26.64.14 1.37-.13 2.02.08.33-.02-.3.08.18.1 0 .1-.23.02-.13.12.47.04.74.24 1.33.28l.01.08c.76 0 1.3.43 1.78.5.7.26.36.4 1.1.66l.2.25c.22.2.33.1.43.23-.04.05.08.13-.03.12.01.04.03.07.08.1.06-.02.16.03.1.05z"/><path d="M355.15 411.25h0l.05-.07zm-189.08-68.8l.26-.63-.26.63zm50.66-6.4l.03.04c.01-.01.01-.02-.03-.04z"/></svg>