<svg xmlns="http://www.w3.org/2000/svg" viewBox="0 0 480 480" xmlns:v="https://vecta.io/nano"><path d="M306.52 437.22c-1.8-3.6-25.6-13.3-32.4-16.2-.74-.22-1.58-.17-2.26.2.03-.06.05-.1.06-.1l-.34-7.3 4.34.01c1.7 0 3.3-1.4 3.4-3.2 1.1-13.5-1.5-86-1.7-100.4-.1-14.3-3.5-80.8-5.6-102.7h-16.8l-.2.1h-54.7l-7.6 97-15.3 103.6c-.4 2.7 0 4.2 2.1 4.4l4.6.16-1.44 13.36c-.26-.2-.5-.38-.77-.52-.6-.4-1.2-.1-1.5.8-.9 2.7-2 10.7-.6 20.3.5 1 1.4 1.8 2.4 1.9l58.7-.1c1.1 0 2-.9 1.9-1.9-.1-2.5-.4-6.5-1.8-9.4-1.8-3.6-25.6-13.3-32.4-16.2a3.07 3.07 0 0 0-1.62-.04l.8-7.38 3.32.12c2.6 0 4-1 4.8-3.4 3.86-12.52 12.1-45.15 18.94-70.5l5.46 71.2c-.1 1.4 1 2.6 2.4 2.7l5.77.02.22 12.8c-.46-.37-.87-.7-1.3-.93-.6-.4-1.2-.1-1.5.8-.9 2.7-2 10.7-.6 20.3.5 1 1.4 1.8 2.4 1.9l58.7-.1c1.1 0 2-.9 1.9-1.9-.1-2.5-.4-6.5-1.8-9.4z" fill="#fff"/><path d="M309.23 446.46l-.04-1.86c-.03-1.24-.1-2.52-.6-4.08.13.4.04-.2.08-.16-.33-1.47-1-3-1.26-2.9l-.25-.58-.15-.32c-.05-.13 0-.15-.01-.26-.05.04-.26-.14-.55-.4l-1-.77.34.2c-.66-.52-1.34-.93-2.03-1.35l.27.45c-1.03-.73-.12-.42-1.2-1l-.1.18c-1.5-.9-2.25-1.64-3.68-2.54-6.2-3.24-13.26-5.73-19.07-8.57l-.2-.25c-.03-.25-1.76-.4-1.9-.68l-.73-.2c-.18-.12-.57-.33-.2-.23-.64-.28-.67-.25-1.15-.4l-.63-.4c-.64-.4-1.47-.55-2.3-.48 0-.03-.01-.05-.01-.08a5.43 5.43 0 0 1 .04-1.26c-.22-.28-.13-.95-.3-1.15.1-.04-.05-1.33.18-.6.02.06.02.18-.01.17l.13.08c.2-.76-.2-1.36-.2-2.1-.03.22-.01.52-.1.32v-.58h.08l.03.03v-.03l3.1-.03c.4 0 .9-.06 1.3-.2 1.16-.4 2.14-1.24 2.63-2.38.25-.54.35-1.26.35-1.73l.07-1.54c.1-2.06.1-4.14.17-6.25l.1-12.8c.03-8.6-.04-17.24-.42-25.33a12.27 12.27 0 0 0-.04-1.14c-.02-.2-.03-.4-.04-.52s-.02-.22-.03-.2l-.35-14.8-1-29.06c-.25-5.56-.46-9.4-.7-8.47s-.45 6.7-.5 20.33l-.06-.36c.1 8.1.23 13.2.62 18.78-.26.9.15 6.65.1 8.55l-.03-.18c.35 4.94.07 10.18.37 14.94-.03-.18-.1-.3-.14-1.38.1 3.47.27 8.2.1 8.47l.35 22.57a9.26 9.26 0 0 0-.53-.15l.03-.03c-.58-.06-.94-.08-1.34.07-.06-.17-.47-.01-.6-.07l.01-.01c-.35.14-.73-.1-1.07.02.01-.01.02-.06.1-.06-.25.02-.6.06-.6-.04-.6.03-1.42-.01-1.8.15l.03-.03c-.22.1-.28.02-.52.08-.01-.01-.03-.02-.03-.03-.23.1-.7.02-.88.07l-.01-.07-.47.02.18.01c-.06.18-.36-.1-.7.01-.32-.02-.64.4-.97.3-.16.1.14-.14-.1-.07-.01-.1.1-.06.05-.14-.23.05-.38-.1-.66-.03v-.07c-.37.14-.7-.1-.95.04-.38.06-.26-.22-.66-.07l-.16-.1c-.17-.02-.12.12-.3.08.01-.06-.24-.05-.13-.1-.43-.1-.87.15-1.44-.02-.12.12-.4.05-.5.15-.02-.05-.57 0-.25-.12.03-.01.08-.01.07.01l.04-.07c-.32-.14-.58.08-.9.06.1.02.22.02.14.07h-.3l.06-.06-.44-.03.06.08c-.22-.04-.3-.17-.54-.06-.1.06.2.1-.02.13-.3-.05-.72-.13-1.1-.15.04.1-.06.08-.17.1v-.07c-.4.1-.14-.16-.53-.08l-.07.1c-.35.15-.2-.15-.58.05.15-.01.07.16-.12.13l.05-.07c-.1.02-.14.05-.2.03.06-.04.03-.1-.12-.1l.1-.1-.3.13c-.23-.08-.58.02-.67-.08 0 0-.48-.05-.6.07.1-.07-.17-.1-.1-.18-.12.08-.5.15-.64.06h.03c-.55-.08-.94.12-1.43.02.02.1-.24.04-.17.15-.5.1-.93-.22-1.1.13-.23.02-.27-.08-.4-.1h.05c-.43.03-.56.04-.88.03-.16.03-.18.2-.47.16.1-.06-.02-.05-.13-.05.07-.01.1-.03-.05-.08-.02.02-.05.03-.08.04-.18 0-.15.02-.06.03 0 .01 0 .02.03.04-.2-.08-.52.01-.54-.1-.54.03-.93.14-1.38.2-.05-.06.05-.1.18-.13l-.32.02c0-.08.18-.05.28-.06-.38-.13-.78.14-1.23.02l-.1.06-.03-.01c0 .03-.1.08-.16.1-.06-.07 0-.16-.22-.16-.17-.07-.5.04-.72.08.12.01.08.05.03.08-.1 0-.17-.07-.26-.04l-.02-.1c.04.1-.3.1-.33.14-.06-.07.17-.06.2-.1-.44.01-.22.01-.66.02-.24.07.04.1-.07.17-.2.02-.4.1-.65.03l.08.08c-.4.07-.63.06-.9-.02-2.9.7-.6.94-.6.94 1.15.18 1.74-.07 3.1-.15 1.2.03 1.52.2 2.77.12.6.01 1.23-.03 1.8-.06.27-.13.76-.01 1.1-.12l.13.07c.1-.04.24-.06.36-.02h-.01c.17-.06.36-.02.44-.05l-.01.02.2-.01-.03.03a2.79 2.79 0 0 1 .86-.04l-.02-.1c.57.1.78-.1 1.3.02h-.01c.65-.23 1.03.15 1.7-.07-.08.03.04.04.03.07.3-.03.64-.04.64-.2.22 0 .18.05.2.12 0-.08.2-.1.37-.1l-.08.03.5-.03-.1-.14c.27.04.07.17.32.14v-.12c.37.02.6.2.94.28 1.48.04 3.07-.27 4.45-.08l.06.1c.03.13.38-.2.43-.07l.16-.06c.05.02.14.05.06.08.15 0 .15-.02.26-.06l.16.08c.6.06 1.08-.1 1.7-.07.74.16 2.13 0 2.93-.1 1.13-.2 2.44.3 3.6.07.04.02.13-.02.13-.04l1.06.01s1 0 1.77-.08l.04 1.8-.04-.36c.06 1.5.06 2.5.02 3.5l-.1 1.63c-.05.58.01 1.37-.16 1.94-.06.13-.16.3-.15.26-.2.6-.82 1.28-1.67 1.55-.2.06-.43.1-.65.12-.23.01-.56 0-.83.01-.58 0-1.16 0-1.75-.01-2.33-.01-4.57-.04-5.9 0l-.17-.1-6.56.01 2.45.03c-.86.3-4.96-.2-9.72-.02-2.23-.03-4.5.13-6.77.26l-3.44.17c-.6.04-1.1.01-1.6-.26-.47-.25-.85-.68-1.03-1.18-.2-.46-.2-.62-.18-.6.01.02.07.2.15.35.07.14.16.24.13.15-.01-.05-.04-.15-.08-.3-.06-.2-.04-.38-.08-.85.04-.03.07.05.1.18.02.18.02.3.05.42.05.24.1.38.1.04-.22-3.17-.17-5.3-.56-9.27l.1-.17c-.6-5.18-.56-9.82-1.04-13.27-.5-5.35.1-3.62-.57-9.2v-2.18c-.16-2.4-.34-1.7-.46-4.35.12.15-.18-3.35.04-1.8-.3-6-1.2-12.15-1.54-20.07-2.46-9.94-1.14 9.12-.64 17.5l-.08.86c-.18.4.73 5.3.6 6.04l.27 2.23c.01.63.07 1.96-.06.85.15 2.07.2 2.12.37 3.6l.04 2.23 1.85 23.72.1 2.03c.01.34.05.74.03 1.05a3.36 3.36 0 0 0 .37 1.54c.48.97 1.45 1.72 2.58 1.92.14.02.33.05.45.05h.3l.63.01 1.28.01H256l11.2-.07 3.52-.03.12 1.44.2 2.48.04 1.2v.73c-.23.17-.46.37-.64.6-.78 1.04-1.53 2-2.58 2.9-1.3 1-3.24 2.32-5.5 3.1-2.23.82-4.72 1.12-6.5 1.14-1.36.05-2.8-.18-4.07-.74-.64-.28-1.23-.66-1.8-1.1l-.02-.02.05-.53c.26-2.7-.17-4.07-.33-7.26-.77-5.64-1.8-.68-1.74-.15.01-.3.08-.2.12-.07.01.26-.1.4-.05.6l-.16.03c.15-.1.17.67.24.77-.1.15-.1-.4-.2-.46l.05 1.55c.13.55.15-.1.3.16.04.5.16.96.07 1.52l.14-.18c.12.9.12 1.46-.01 2.08.05.28.1.53.15.77-.16-.13-.36-.27-.63-.44-.47-.3-.98-.43-1.5-.3-.5.14-.92.5-1.2 1-.14.23-.25.5-.33.77l-.17.53c-.1.33-.18.67-.25 1-.3 1.32-.45 2.63-.5 3.9a1.88 1.88 0 0 0 0 .64c-.16 1.67-.23 3.34-.25 5.02 0 0-.03 1.52.1 3.5.06 1 .15 2.1.3 3.2l.23 1.6c.04.26.1.5.13.76.03.17.06.33.08.5.1.16.2.34.27.46s.17.2.26.32c.05.08.1.16.15.23.3.4.68.67 1 .83.62.3 1.12.3 1.33.23.01 0 .02 0 .03-.01.01 0 .03 0 .04-.01.02-.01.01-.02.02-.03.02-.02.04-.03.04-.05s0-.05-.03-.07c-.01-.01-.02-.01-.03-.02-.08-.07-.24-.17-.5-.32a3.15 3.15 0 0 1-.8-.72c-.27-.35-.48-.85-.38-1.4v-.04c.01-.3.03-.65.05-1 .01-.18.01-.37.02-.57l.01-.3c0-.1.01-.1.02-.16l.05.05c0-.1.01-.2.01-.3v-.2h.07c.18.02.33.03.47.02.78 0 1.54-.04 2.3-.15.24.3 1.82.06 2.34.16l-.05.02c1.36-.2 2.8.22 4.1.04-.05.02-.08.1-.38.1.95-.02 2.25-.07 2.32.1 2.27-.01 5.44.1 6.9-.14l-.1.05c.83-.17 1.07-.01 2-.1.05.02.12.03.1.04.9-.17 2.64.01 3.37-.06l.05.1h1.8l-.67-.03c.24-.3 1.36.2 2.66.03 1.22.06 2.48-.6 3.75-.43.6-.13-.54.23.37.13.03.16-.42.1-.2.22.9-.06 1.45.18 2.55.1l.04.12c1.43-.2 2.7.2 3.65 0 1.47-.08.98.38 2.52.16l.6.18c.66.04.47-.2 1.2-.1-.05.1.92.1.5.2 1.64.2 3.35-.2 5.5.12.47-.2 1.56-.06 1.92-.2.06.1 2.2.05.96.22-.1.01-.3.01-.28-.03l-.15.12c1.23.25 2.25-.1 3.47-.04-.36-.05-.85-.04-.52-.12l1.14.03-.24.1 1.7.08-.23-.13c.83.08 1.12.3 2.05.13.42-.1-.78-.18.1-.2l1.97.17 1.1.08c.06.02.1.03.17.05.1-.14.2-.16.2-.04l-.12.1c.1.1.02.14-.05.33-.06.15-.17.23-.05 1.13.07.1.14.2.2.2.12.22-.03.3-.1.33-.1.03-.12.08-.38.37.25-.16.3.22-.2.27.03-.05.06-.1.08-.14-.1.04-.18.06-.25.07-.12.01-.22.02-.35.01.24-.07.13-.18-.46-.15l.4-.15-1.12.22c-.86-.13-2.23.04-2.6-.13 0 0-1.86-.08-2.28.1.37-.12-.65-.16-.36-.3-.48.13-1.9.24-2.47.1l.1-.02c-2.1-.14-3.6.2-5.5.03.1.14-.9.07-.66.25-1.95.2-3.56-.37-4.27.2-.9.03-1.05-.13-1.5-.16l.2-.03c-1.66.05-2.15.06-3.4.04-.62.06-.7.32-1.82.26.36-.1-.1-.1-.5-.1.26-.02.35-.06-.2-.13-.08.03-.2.05-.3.07 0-.01-.03-.01-.02-.03-.7.04-.57.07-.25.1-.02.02.01.04.1.07-.72-.14-2 .01-2.1-.17-2.08.05-3.56.24-5.3.3-.2-.1.2-.18.7-.2l-1.23.04c.01-.13.7-.08 1.08-.1-1.46-.2-3 .22-4.72.03l-.35.1-.1-.02c.01.06-.38.13-.63.15-.24-.12.02-.27-.83-.26-.67-.1-1.9.06-2.78.12.47.02.32.08.12.13-.42 0-.67-.1-1-.06l-.04-.16c.17.15-1.1.16-1.26.23-.24-.12.66-.1.76-.2l-2.55.03c-.9.12.16.15-.27.3-.8.03-1.58.14-2.5.05l.3.14c-1.5.1-2.4.1-3.42-.04-3.3.34-4.86.62-5.4.84-.45.15-.37.27 0 .37.78.25 3.05.36 3.05.36 1.44.1 2.65.12 3.8.1 3.17.03 5.73-.18 9.77-.3 3.35.1 4.82.28 8.98.18h.77a112.58 112.58 0 0 0 4.84-.01c2.78.02 5.75-.05 8.47-.1.35-.06.78-.08 1.24-.1l-.05.02c.2-.02.38-.02.58-.03 1.12-.01 2.37.03 3.33-.08l.6.12c.53-.06 1.14-.1 1.67-.04l-.03.03c.8-.1 1.67-.04 2.06-.1l-.03.04.95-.02-.16.05c1.37-.1 2.78-.1 4.03-.07l-.03-.04a11.44 11.44 0 0 0 1.13-.06c.18 0 .37.01.53 0 .07.02.16.03.15.05.65-.02 1.3-.04 1.8-.1.26-.01.52-.01.8-.01.26-.01.4.02.85 0a3.14 3.14 0 0 0 1.2-.35l-.03.06c.48-.33.84-.76 1.07-1.24a3.02 3.02 0 0 0 .23-.76c.04-.23.02-.54.01-.67zm-2.95-3.57c-5.7-.16-11.8.25-17.1-.17l-.23-.15c-.1-.22-1.46.3-1.66.1l-.62.1c-.17-.04-.54-.1-.23-.13-.57-.02-.58.02-1 .08l-.6-.14c-2.24-.14-4.16.1-6.52.01-2.83-.3-8.18-.14-11.26-.04-3.67.22-7.83-.4-11.72-.42.13-.1.28-.27.44-.6l.03.01c.04-.28.03-.46-.14-.62.17-.06-.02-.22.02-.3h.01c-.16-.14.04-.35-.1-.48.01 0 .06-.01.07.03-.05-.1-.12-.25-.03-.28-.1-.26-.16-.64-.37-.76h.03c-.13-.06-.06-.12-.14-.2.01-.01.01-.02.02-.02-.14-.07-.12-.3-.2-.36l.06-.03-.1-.2.02.08c-.18.04.05-.2-.12-.3-.03-.15-.46-.12-.44-.3-.1-.03.15 0 .05-.07.1-.04.08.02.13-.04-.08-.08.02-.2-.1-.3l.07-.04c-.2-.1-.05-.33-.22-.37-.13-.13.15-.2-.07-.3l.06-.1c-.02-.08-.13.01-.13-.1.06-.03-.01-.12.07-.1-.01-.22-.32-.28-.3-.6-.14.01-.15-.14-.25-.13.04-.03-.14-.23.04-.17.02.01.03.03.01.04l.07-.02c.03-.2-.22-.2-.3-.34.01.05.04.1-.02.1l-.07-.12.07-.01a1.14 1.14 0 0 0-.1-.19l-.04.07c-.03-.1.04-.2-.1-.24-.08 0-.02.14-.1.07-.05-.14-.1-.35-.22-.5-.05.07-.08.03-.13.01l.05-.05c-.2-.06.07-.16-.12-.24l-.1.05c-.22-.01.05-.17-.23-.16.06.04-.1.14-.13.06l.07-.04c-.05-.02-.08-.01-.1-.05.05-.01.08-.07.02-.1l.1-.03-.2.01c-.03-.13-.22-.16-.2-.27 0 0-.14-.2-.25-.13.08-.02 0-.13.08-.17-.1.02-.27-.03-.28-.14h.02c-.16-.22-.42-.17-.55-.38-.04.08-.12-.03-.15.08-.26-.03-.24-.42-.5-.18-.1-.04-.07-.13-.1-.18h.03c-.2-.07-.24-.1-.36-.18-.08-.01-.17.13-.26.03.07-.03.01-.05-.03-.07.03.01.05-.01.01-.08-.02.01-.04.02-.05.02-.07-.03-.07 0-.04.02-.01.01-.01.02-.01.04-.04-.1-.2-.1-.17-.2-.23-.1-.44-.06-.64-.1 0-.06.07-.1.13-.08l-.14-.04c.03-.07.1-.01.14 0-.1-.2-.38-.03-.52-.22l-.06.04-.01-.01c-.01.03-.07.06-.1.06 0-.08.06-.15-.03-.18-.05-.1-.22-.06-.33-.05.05.03.02.06-.01.08-.05-.02-.05-.1-.1-.08l.03-.1c-.01.1-.16.05-.2.08 0-.08.1-.03.12-.08l-.3-.1c-.12.03-.01.1-.1.15-.1-.01-.2.02-.3-.07l.01.1c-.2 0-.28-.03-.37-.15-.73.14-.82.38-.77.54.04.16.26.28.26.28.4.3.7.15 1.3.3.46.23.52.42 1.03.58.22.1.47.2.7.3.16-.05.28.16.45.13l.01.1c.06-.01.12 0 .14.06v.02c.1-.01.14.06.18.06l-.01.02.08.04-.03.02a.53.53 0 0 1 .32.17l.04-.08c.15.2.3.12.42.34l-.02.02c.37-.02.24.38.6.4-.04 0-.02.04-.03.06.1.06.23.14.34.02.07.07.02.1-.02.15.05-.06.13-.02.2.03h-.04l.17.13.07-.13c.05.1-.1.14 0 .2l.08-.08c.1.13.03.3.05.48.36.48.96.86 1.06 1.5l-.06.06c-.1.07.25.05.15.13l.08.03c-.01.03-.02.08-.06.06.02.06.04.05.1.07l-.04.1c.06.25.3.37.37.63-.01.35.35.84.54 1.14.35.4.02 1.08.33 1.5-.01.02.03.05.05.05l.06.44s.07.52.2.84c.03.08.07.13.1.17-.6 0-1.17.02-1.74.06-.14-.03-.52.03-.52.06l-4.05-.1-2.56-.03h-.48c-.08-2.06-.1-3.5-.3-5.1.28-.3.08-2.2.2-2.8l.02.06c-.13-1.64.44-3.32.5-4.87.01.06.08.1.04.46.12-1.13.4-2.62.6-2.64a6.18 6.18 0 0 1 .1-.34c.02-.06.05-.1.1-.16.1-.1.25-.1.35 0 .04.02.06.04.1.06a4.46 4.46 0 0 1 .29.22c.2.17.42.33.63.5.44.34.9.67 1.37.94.94.55 1.86.83 2.52.93h-.14c1.1.13 1.37.32 2.56.4.06.03.14.04.13.05 1.16-.03 3.34.03 4.24-.2l.07.1c.75-.08 1.5-.25 2.24-.4l-.84.15c.2-.36 1.75-.12 3.24-.93 1.48-.55 2.53-1.9 3.83-2.72.5-.58-.37.6.44-.2.13.1-.35.4-.04.33.82-.75 1.52-1.06 2.38-2.14l.13.04c.26-.37.53-.7.8-1.03.26-.3.55-.67.7-.76.43-.3.94-.35 1.4-.44a2.78 2.78 0 0 1 .45.04c.16.04.1.04.26.1.2.1.32.2.45.3.26.2.53.37 1.44.62l.6.44c.45.2.57.17.8.2-.18.12-.33.14-.47.38-.1.1-.2.26-.27.38.05.14-.13.15-.1.28l-.08-.02c.01.05.01.1-.04.08l-.01-.02c.01.07-.04.08-.04.12l-.01-.02-.03.05-.02-.03c-.01.1-.05.16-.12.2l.07.05c-.17.05-.07.2-.24.23l-.01-.02c.07.28-.3.1-.24.37-.01-.03-.04-.02-.05-.04-.03.08-.08.15.05.26-.04.04-.07 0-.13-.04.06.05.05.1.02.14v-.03l-.06.1.12.07c-.08.03-.14-.1-.16-.03l.1.08c-.08.06-.25-.02-.38 0-.3.26-.32.76-.7.9l-.08-.05c-.1-.08.08.2-.02.13l.02.07c-.02-.01-.06 0-.07-.04-.03.03-.01.04 0 .1l-.1-.02c-.14.07-.1.27-.24.37-.25.04-.37.4-.43.62-.04.34-.65.27-.68.64-.02 0-.01.04.01.05l-.2.2s-.9.97.57.9l.02.02c.15-.07.22-.13.18-.3.14.1.1-.08.16-.07l.01.01c-.04-.16.2-.07.17-.2.01.01.04.04.03.06.02-.06.05-.15.13-.1.08-.13.25-.26.2-.44v.02c-.05-.1.03-.07.03-.15.01.01.02.01.02.01-.04-.12.1-.14.1-.2l.05.04.07-.1-.04.02c-.13-.13.15.01.1-.14.07-.05-.18-.37-.06-.38-.04-.1.08.12.07.03.07.06.03.06.1.1 0-.07.14-.01.14-.1l.06.05c-.04-.16.2-.07.13-.2.02-.1.2.1.17-.08l.1.04c.04-.02-.07-.1 0-.1.05.04.08-.01.1.05.15-.02.04-.26.26-.26-.07-.1.03-.1-.03-.2.04.03.1-.1.14.03 0 .01-.01.02-.02.01l.05.06c.16.03.04-.16.1-.2-.03 0-.05.03-.07-.02l.06-.05.04.05.1-.06-.07-.04c.07-.02.18.05.14-.06-.03-.06-.1-.03-.1-.1.1-.02.22-.06.3-.1-.07-.05-.05-.07-.05-.1l.06.05c-.01-.14.15.08.15-.05l-.07-.08c-.05-.16.15.06.06-.14-.02.04-.14-.1-.08-.1l.05.06c.01-.03-.01-.06.01-.06.02.04.07.07.1.04l.05.08-.05-.14c.1.01.08-.13.17-.08 0 0 .12-.06.05-.16.04.06.1.03.15.1-.04-.08-.03-.2.06-.16v.01c.16-.05.07-.26.23-.3-.07-.05.01-.07-.1-.13 0-.17.33-.03.1-.3.02-.06.1 0 .14-.01v.02c.05-.1.07-.13.13-.2 0-.05-.12-.16-.04-.2.03.06.04.03.06.01 0 .02.01.04.07.04-.01-.02-.02-.03-.02-.04.02-.04 0-.05-.02-.04-.01-.01-.02-.01-.03-.02.1.02.08-.1.17-.04.07-.12.05-.27.1-.4.05.03.07.08.07.12l.04-.08c.06.05 0 .07 0 .1.16.01.03-.24.2-.25l-.03-.06h.01c-.03-.02-.04-.07-.04-.1.06.03.12.1.16.06.08.01.06-.12.07-.2-.03.02-.05-.02-.06-.04.02-.02.08.01.07-.03l.07.06c-.07-.05-.03-.12-.05-.15.06.03.02.07.05.1.03-.04.04-.05.04-.06.2.1.34.2.08.13 1.27.66 2.68 1.08 4.22 1.74-.02.1-.04.18-.1.27-.2.2-.4.16-.53.44-.1.1-.17.25-.24.37.06.13-.1.15-.08.27l-.08-.02c.01.04.01.08-.04.08l-.02-.01c.02.07-.04.08-.03.1l-.02-.01-.02.04-.02-.03c0 .1-.04.15-.1.18l.07.05c-.16.05-.05.2-.22.22h-.02c.08.27-.28.1-.2.36-.01-.03-.04-.02-.06-.04-.03.07-.07.14.07.25-.04.04-.07 0-.13-.03.06.05.05.1.03.14l-.01-.03-.06.1.13.07c-.07.03-.15-.1-.16-.02l.1.07c-.07.06-.24-.01-.37 0-.26.25-.27.74-.64.87l-.08-.04c-.1-.07.1.2-.01.13l.02.07c-.02-.01-.06 0-.07-.04-.03.02-.01.04 0 .08l-.1-.02c-.14.07-.1.26-.2.36-.24.04-.33.4-.38.6-.02.33-.62.26-.62.62-.02 0 0 .04.01.05l-.17.2s-.8.94.6.87l.02.02c.14-.07.2-.13.16-.3.14.1.1-.08.15-.07l.01.01c-.05-.15.2-.07.15-.2.01.01.04.04.04.06.02-.06.04-.15.12-.1.07-.13.23-.26.16-.43v.02c-.05-.1.03-.06.02-.14.01.01.02.01.02.01-.05-.1.1-.14.08-.2l.05.04.06-.1-.04.02c-.13-.13.14 0 .1-.13.07-.05-.2-.36-.08-.37-.04-.08.1.1.07.03.08.06.03.06.1.1 0-.07.13-.01.13-.1l.06.04c-.05-.16.18-.07.12-.2.01-.1.2.1.16-.08l.1.03c.04-.02-.08-.1-.01-.1.05.04.08-.01.1.04.14-.02.02-.25.24-.26-.08-.1.02-.1-.04-.18.04.03.1-.1.14.03 0 .01-.01.02-.02.01l.05.05c.16.03.03-.16.1-.2-.03 0-.05.03-.07-.02l.05-.05.04.05.1-.06-.07-.04c.06-.02.18.05.13-.06-.03-.06-.1-.03-.1-.08.08-.02.2-.06.28-.1-.07-.05-.06-.06-.05-.1l.06.04c-.02-.14.15.07.14-.05l-.07-.08c-.06-.16.15.06.05-.14-.01.04-.14-.1-.1-.1l.05.05c0-.03-.01-.05.01-.06.02.04.08.07.1.03l.06.08-.06-.14c.1.01.07-.12.17-.08 0 0 .1-.06.04-.15.04.06.1.03.15.1-.04-.07-.04-.18.05-.16v.01c.15-.05.05-.25.2-.28-.07-.05 0-.07-.1-.13-.01-.16.32-.04.08-.28.02-.06.1 0 .14-.01v.02c.04-.1.06-.13.1-.18 0-.05-.12-.15-.05-.2.04.06.04.03.06.01 0 .02.01.04.07.04-.01-.02-.02-.03-.02-.04.02-.04 0-.04-.02-.03-.01-.01-.02-.01-.04-.02.1.02.07-.1.16-.04.06-.12.03-.26.07-.37.05.03.07.08.07.1l.03-.07c.06.05.01.06.01.1.16.01.02-.23.18-.24l-.04-.06h.01c-.03-.02-.05-.07-.05-.1.06.03.13.1.16.06.08.01.05-.1.05-.18-.03.02-.05-.02-.06-.04.01-.02.08.01.07-.03l.08.06c-.08-.05-.03-.1-.06-.15.06.03.02.07.06.1.06-.1.03-.04.1-.13-.02-.1-.08-.05-.12-.12.02-.05 0-.13.08-.14l-.08-.04c0-.05.02-.07.03-.1.37.18.75.37 1.14.6.6.04 1.78.68 2.23.7.03.1 2.43 1.1 1 .66-.12-.04-.33-.13-.3-.16l-.2.04c1.28.82 2.55 1 3.88 1.65-.38-.22-.92-.45-.53-.37l1.25.6-.3-.03 1.84.92-.2-.24c.88.5 1.1.83 2.2 1.16.5.13-.78-.57.2-.14l4.4 2.52c-.07-.2.33.02.75.22l-.01.14c1.64.74.45.55 2.03 1.34l-.18-.01.53.03c.74.32.86.5 1.02.68.15.18.35.35 1.05.75-.5-.4 0-.4.47.17l-.2-.05c.15.14.24.22.28.27.03.03.05.06.08.1.03.05.05.12.08.2-.17-.2-.2-.06.06.54-.1-.12-.2-.23-.3-.34.24.33.45.7.66 1.1.2.96.67 2.5.56 2.95l.13.98c-.25-.05-.5-.08-.65-.1z"/><path d="M307.06 446.56h0z"/><path d="M307.06 446.56l-.1-.15c.03.04.06.1.1.15zm-54.3-12.46h0l.05-.02zm23.65-7.57h0l.04.04zm5.36 2.6h0l.04.04zm-7.16-171.12l.03-.04c-.01-.02-.02-.02-.03.04zM243.7 444.6c-.03-1.24-.1-2.52-.6-4.08.13.4.04-.2.08-.16-.33-1.47-1-3-1.26-2.9l-.25-.58-.15-.32c-.05-.13 0-.15-.01-.26-.05.04-.26-.14-.55-.4l-1-.77.35.2c-.66-.52-1.34-.93-2.03-1.35l.27.45c-1.03-.73-.12-.42-1.2-1l-.1.18c-1.5-.9-2.25-1.64-3.68-2.54-6.2-3.24-13.26-5.73-19.07-8.57l-.2-.25c-.03-.25-1.76-.4-1.9-.68l-.73-.2c-.18-.12-.57-.33-.2-.23-.64-.28-.67-.25-1.15-.4l-.63-.4c-.43-.26-.94-.4-1.5-.47.03-.1.04-.23.08-.34-.17-.33.03-1.02-.1-1.26.1-.03.17-1.4.28-.6.01.07-.01.2-.04.18l.1.1c.32-.77.03-1.46.15-2.25-.07.23-.1.54-.15.33l.1-.73.1.16.12-.7 1.42.03c.35 0 .65.02 1 .01a7.47 7.47 0 0 0 1.08-.1c.73-.06 1.5-.22 2.25-.62.97-.6 1.68-1.6 2.1-2.57.22-.5.37-1 .5-1.4l.4-1.26v.1l1.75-6.4.01.1.8-2.95-.1.52 3.3-12.46-.23.28c2.34-8.18 2.84-11.27 4.98-18.65v.1c2.1-9.5 4.15-14.78 6.37-24.53-.28 1.22.2-.5.22-.4 1.15-4.46 2.4-9.2 2.16-9.36.88-3.24.8-2.6 1.02-3-.13-.01.6-2.84 1.3-5.36l-.28 1.17 2-7.23-.63 1.35c1.16-3.8.55-.9 1.58-4.56h-.2c.4-1.32.78-2.5 1.18-3.58l.57-1.6.3-.8.24-.83 1.88-6.7 16-64.66.36-.85c.3-.33 1.05-5.6 1.43-6.32l.47-2.36c.2-.65.57-2.02.34-.85.46-1.87.5-2.16.72-3.23h-.01l.08-.38a1.49 1.49 0 0 1 .04-.18v-.02c.43-2.08 1.9-9.27 1.8-10.36-.12-1.27-3.53 10.24-3.53 10.24l-.04-.08c-.15.63-.32 1.42-.52 2.45l-.7 2.22c-.63 2.48-.23 1.83-1 4.56-.06-.2-.94 3.46-.64 1.82-1.7 6.2-2.9 12.7-5.22 20.84-.24 1.83-1.4 5.93-1.58 7.3-.14.2-2.1 8.27-1.1 3.6.08-.4.26-1.1.3-1.05l.02-.58c-1.4 4.62-2 8.53-3.2 13.15.38-1.36.83-3.2.6-1.95l-1.1 4.3.12-.92-1.66 6.4.34-.85c-.85 3.12-1.33 4.17-2.03 7.75-.3 1.63.9-2.93.12.4l-4.08 15.8c.13-.24.1.01.01.5-.06.3-.07.4-.2.78l-.32 1.07-.17.13c-1.6 5.67-.9 1.98-2.46 7.6l-.12 1.03c-1.2 5.1-1.04 2.65-2.28 8.36.6-2.23.56-.97-.26 1.75l.08-.72c-.4 1.52-.48 2.04-.78 3.04.18-.92-.04-.52-.62 1.7l.26-1.53-.93 4.27c-1 3.22-2.22 8.42-2.74 9.7 0 0-1.94 6.98-2.18 8.63.26-1.44-.8 2.4-.64 1.28-.35 1.85-1.66 7.23-2.35 9.34l.1-.4c-2.22 7.9-3.37 13.6-5.43 20.68.23-.3-.85 3.45-.42 2.57-1.1 4.52-2.34 8.46-3.2 11.5a6.55 6.55 0 0 0-.66-.21l.03-.03c-.57-.08-.94-.1-1.34.03-.06-.17-.47-.03-.6-.1l.01-.01c-.35.13-.72-.12-1.06-.01.01-.01.02-.06.1-.06-.25.02-.6.05-.6-.05-.6.01-1.4-.05-1.8.1l.03-.03c-.22.1-.28.01-.52.06-.01-.01-.03-.02-.03-.03-.24.1-.68 0-.88.05l-.01-.07-.47.01h.17c-.06.18-.35-.12-.7-.01-.32-.03-.65.37-.98.27-.16.08.14-.14-.1-.08-.01-.1.1-.06.05-.14-.23.04-.38-.1-.66-.05l-.01-.07c-.37.13-.7-.1-.95.01-.38.05-.25-.23-.65-.1l-.15-.1c-.17-.02-.12.12-.3.07.01-.06-.24-.06-.13-.1-.43-.1-.87.12-1.43-.05-.12.12-.4.04-.5.13-.01-.05-.57-.02-.25-.13.03-.01.08-.01.07.01l.04-.07c-.32-.14-.6.06-.9.04.1.03.22.02.13.07h-.3l.06-.06-.44-.04.06.08c-.2-.04-.3-.18-.53-.07-.1.06.2.1-.03.13-.3-.06-.72-.14-1.08-.17.03.1-.07.08-.17.1v-.07c-.4.1-.14-.17-.53-.1l.04-.05-.1.15c-.35.14-.2-.16-.58.04.15-.01.07.17-.12.13l.05-.07c-.1.01-.14.04-.2.03.06-.04.03-.1-.12-.1l.1-.1-.3.13c-.22-.08-.58.01-.67-.1 0 0-.48-.06-.6.05.1-.07-.17-.1-.1-.18-.13.08-.5.13-.64.05l.03-.01c-.54-.1-.94.1-1.42-.01.02.1-.24.03-.18.15-.5.1-.92-.24-1.1.1-.23.01-.27-.1-.4-.1l.06-.02c-.43.02-.56.02-.88.01-.16.03-.2.2-.48.14.1-.06-.02-.05-.13-.05.07-.01.1-.03-.05-.08-.02.02-.05.03-.08.04-.18 0-.15.02-.07.03 0 .01 0 .02.03.04-.18-.1-.52 0-.54-.1-.54.01-.93.12-1.38.15-.05-.06.06-.1.2-.12l-.32.01c0-.08.18-.04.28-.06-.38-.14-.78.1-1.23-.01l-.1.06-.03-.01c0 .03-.1.08-.17.1-.06-.07.01-.16-.2-.16-.17-.07-.5.02-.72.06.12.01.08.05.03.08-.1 0-.17-.07-.26-.04v-.1c.04.1-.3.1-.33.13-.06-.07.17-.06.2-.1h-.66c-.24.07.04.1-.07.17-.2.01-.4.08-.65.01l.07.1c-.4.06-.62.04-.9-.05-2.92.63-.63.92-.63.92 1.14.2 1.74-.02 3.1-.06 1.2.07 1.5.23 2.75.2.6.02 1.22 0 1.8-.01.28-.12.76.01 1.1-.1l.12.07c.1-.03.24-.06.36-.02l-.01.02c.17-.05.36-.02.44-.04v.02l.2-.01-.04.03a3.13 3.13 0 0 1 .86-.02l-.02-.1c.56.1.78-.07 1.28.06h-.01c.65-.22 1.02.18 1.7-.03-.08.03.03.05.03.07.3-.02.64-.03.64-.2.22.01.18.06.2.12 0-.08.2-.1.37-.1l-.08.03.5-.02-.1-.14c.26.05.06.17.32.14v-.12c.37.03.58.2.93.3 1.48.08 3.07-.2 4.44.04l.06.1c.02.13.38-.18.43-.06l.16-.06c.04.02.14.05.06.08.15.01.15-.01.26-.05l.16.08c.58.07 1.08-.07 1.7-.03.73.18 2.12.05 2.93-.02 1.13-.17 2.42.37 3.58.17.04.02.13-.02.13-.03l1.05.04s.93.03 1.7-.03c-.44 1.6-.74 2.9-.8 3.84-.48 1.66-.8 2.63-1.07 3.4l-.2.54c-.07.15-.13.3-.2.45-.14.3-.3.58-.5.88.12-.2.22-.4.3-.62-.58 1.3-1.46 1.78-2.44 1.97-.5.1-.95.1-1.45.1l-7.42-.26c-2.4-.03-2.8.22-7.1.01 1.4-.06-.36-.1-1.97-.15 1.03.02 1.35-.01-.76-.15-.3.02-.76.03-1.2.03-.02-.01-.1-.02-.06-.03-2.7-.06-2.22-.01-.98.05-.06.01.04.04.42.08-2.78-.23-7.78-.26-8.1-.45l-2.93-.08c-.45-.02-.98-.01-1.35-.05-.35-.04-.67-.15-.88-.3-.42-.3-.58-1.03-.58-1.8-.01-.78.12-1.57.25-2.4l1.4-9.7c.2-.73.05.84-.22 2.77l.7-4.73c.13.06-.34 2.73-.54 4.2 1.1-5.6 1.56-11.63 2.74-18.2l.1-1.38.08-.4c-.06.01.08-1.48.2-2.46.25-.92.26.1.73-3.16.5-2.57 1.02-7.35 1.45-10.75-.3 1.82-.26 1.22-.2.43.23-1.64.5-2.56.62-3.83l.14-.1c-.08-.24.5-4.38.52-4.94.25-.9-.27 2.55-.24 2.97l1.4-9.83c.4-3.5-.24.6-.13-1.08.4-3.1.74-6.12 1.34-9.65l-.3 1.1c.73-5.82 1.24-9.28 1.95-13.17 2.54-21.7 2.55-24.02 1.82-20.93-.72 3.1-2.05 11.6-2.05 11.6-2.76 16.97-3.6 25.8-6.44 46.07l-6.36 40.9-.83 4.98a13.22 13.22 0 0 0-.15 1.92c.01.67.1 1.45.54 2.28a3.31 3.31 0 0 0 .98 1.06 3.88 3.88 0 0 0 1.21.51c.2.05.4.07.6.1s.3.02.46.03l.86.03 1.72.05 13.48.4c2.07-.03 4.93.06 7.88.17l3 .1c-.14 1.85-.26 3.7-.48 5.45a3.16 3.16 0 0 0-1.34 1c-.78 1.04-1.53 2-2.58 2.9-1.3 1-3.24 2.32-5.5 3.1-2.23.82-4.72 1.12-6.5 1.14-1.36.05-2.8-.18-4.07-.74-.64-.28-1.23-.66-1.8-1.1-.17-.14-.34-.3-.5-.44.07-.3.1-.5.1-.5.6-2.8.37-4.33.62-7.73-.01-4.15-1.7-.94-1.7-.37.05-.3.1-.2.13-.06-.03.27-.16.42-.13.64l-.12-.03c.16-.1.08.73.14.84-.13.14-.05-.44-.13-.5l-.16 1.65c.05.6.16-.1.27.2-.03.52.03 1.04-.13 1.62l.16-.17c0 .98-.08 1.56-.3 2.2l.07 1.2a6.01 6.01 0 0 0-.32-.21c-.47-.3-.98-.43-1.5-.3-.5.14-.92.5-1.2 1-.14.23-.25.5-.33.77l-.17.53c-.1.33-.18.67-.25 1a21.37 21.37 0 0 0-.5 3.9 1.88 1.88 0 0 0 0 .64c-.16 1.67-.23 3.34-.25 5.02 0 0-.03 1.52.1 3.5.06 1 .15 2.1.3 3.2l.23 1.6c.04.26.1.5.13.76.03.17.06.33.08.5.1.16.2.34.27.46s.17.2.26.32c.05.08.1.16.15.23a2.87 2.87 0 0 0 1 .83c.62.3 1.12.3 1.33.23.01 0 .02 0 .03-.01.01 0 .03 0 .04-.01.02-.01.01-.02.02-.03.02-.02.04-.03.04-.05s0-.05-.03-.07c-.01-.01-.02-.01-.03-.02-.08-.07-.24-.17-.5-.32a3.15 3.15 0 0 1-.8-.72c-.27-.35-.48-.85-.38-1.4v-.04c.01-.3.03-.65.05-1 .01-.18.01-.37.02-.57l.01-.3c0-.1.01-.1.02-.16l.05.05c0-.1.01-.2.01-.3v-.2l.07.01c.18.02.33.03.47.02.78 0 1.54-.04 2.3-.15.24.3 1.82.06 2.34.16l-.05.02c1.36-.2 2.8.22 4.1.04-.05.02-.08.1-.38.1.95-.02 2.25-.07 2.32.1 2.27-.01 5.44.1 6.9-.14l-.1.05c.83-.17 1.07-.01 2-.1.05.02.12.03.1.04.9-.17 2.64.01 3.37-.06l.05.1h1.8l-.67-.03c.24-.3 1.36.2 2.66.03 1.22.06 2.48-.6 3.75-.43.6-.13-.54.23.37.13.03.16-.42.1-.2.22.9-.06 1.45.18 2.55.1l.04.12c1.43-.2 2.7.2 3.65 0 1.47-.08.98.38 2.52.16l.6.18c.66.04.47-.2 1.2-.1-.05.1.92.1.5.2 1.64.2 3.35-.2 5.5.12.47-.2 1.56-.06 1.92-.2.06.1 2.2.05.96.22-.1.01-.3.01-.28-.03l-.15.12c1.23.25 2.25-.1 3.47-.04-.36-.05-.85-.04-.52-.12l1.14.03-.24.1 1.7.08-.23-.13c.83.08 1.12.3 2.05.13.42-.1-.78-.18.1-.2l1.97.17 1.1.08c.06.02.1.03.17.05.1-.14.2-.16.2-.04l-.12.1c.1.1.02.14-.05.33-.06.15-.17.23-.05 1.13.07.1.14.2.2.2.12.22-.03.3-.1.33-.1.03-.12.08-.38.37.25-.16.3.22-.2.27a2.32 2.32 0 0 0 .08-.14 1.07 1.07 0 0 1-.25.07c-.12.01-.22.02-.35.01.24-.07.13-.18-.46-.15l.4-.15-1.12.22c-.86-.13-2.23.04-2.6-.13 0 0-1.86-.08-2.28.1.37-.12-.65-.16-.36-.3-.48.13-1.9.24-2.47.1h.1c-2.1-.14-3.6.2-5.5.03.1.14-.9.07-.66.25-1.95.2-3.56-.37-4.27.2-.9.03-1.05-.13-1.5-.16l.2-.03c-1.66.05-2.15.06-3.4.04-.62.06-.7.32-1.82.26.36-.1-.1-.1-.5-.1.26-.02.35-.06-.2-.13-.08.03-.2.05-.3.07 0-.01-.03-.01-.02-.03-.7.04-.57.07-.25.1-.02.02.01.04.1.07-.72-.14-2 .01-2.1-.17-2.08.05-3.56.24-5.3.3-.2-.1.2-.18.7-.2l-1.23.04c.01-.13.7-.08 1.08-.1-1.46-.2-3 .22-4.72.03l-.35.1-.1-.02c.01.06-.38.13-.63.15-.24-.12.02-.27-.83-.26-.67-.1-1.9.06-2.78.12.47.02.32.08.12.13-.42 0-.67-.1-1-.06l-.04-.16c.17.15-1.1.16-1.26.23-.24-.12.66-.1.76-.2l-2.55.03c-.9.12.16.15-.27.3-.8.03-1.58.14-2.5.05l.3.14c-1.5.1-2.4.1-3.42-.04-3.3.34-4.86.62-5.4.84-.45.15-.37.27 0 .37.78.25 3.05.36 3.05.36 1.44.1 2.65.12 3.8.1 3.17.03 5.73-.18 9.77-.3 3.35.1 4.82.28 8.98.18h.77a112.58 112.58 0 0 0 4.84-.01c2.78.02 5.75-.05 8.47-.1.35-.06.78-.08 1.24-.1l-.05.02c.2-.02.38-.02.58-.03 1.12-.01 2.37.03 3.33-.08l.6.12c.53-.06 1.14-.1 1.67-.04l-.03.03c.8-.1 1.67-.04 2.06-.1l-.03.04.95-.02-.16.05c1.37-.1 2.78-.1 4.03-.07l-.03-.04a11.44 11.44 0 0 0 1.13-.06c.18 0 .37.01.53 0 .07.02.16.03.15.05.65-.02 1.3-.04 1.8-.1.26-.01.52-.01.8-.01.26-.01.4.02.85 0a3.14 3.14 0 0 0 1.2-.35l-.03.06c.48-.33.84-.76 1.07-1.24a3.02 3.02 0 0 0 .23-.76c.04-.25.02-.56.01-.7.02-.6 0-1.2-.01-1.82zm-55.9-2.44c-.14-.03-.52.03-.52.06l-4.05-.1-2.56-.03h-.48c-.08-2.06-.1-3.5-.3-5.1.28-.3.08-2.2.2-2.8v.06c-.05-.66.01-1.33.1-2 .28.08.55.03.97.13.46.23.52.42 1.03.58.22.1.47.2.7.3.16-.05.28.16.45.13l.01.1c.06-.01.12 0 .14.06v.02c.1-.01.14.06.18.06l-.01.02.08.04h-.03a.53.53 0 0 1 .32.17l.04-.08c.15.2.3.12.42.34v.02c.37-.02.24.38.6.4-.04 0-.02.04-.03.06.1.06.23.14.34.02.07.07.02.1-.02.15.05-.06.13-.02.2.03h-.04l.17.13.07-.13c.05.1-.1.14 0 .2l.08-.08c.1.13.03.3.05.48.36.48.96.86 1.06 1.5l-.06.06c-.1.07.25.05.15.13l.08.03c-.01.03-.02.08-.06.06.02.06.04.05.1.07l-.04.1c.06.25.3.37.37.63-.01.35.35.84.54 1.14.35.4.02 1.08.33 1.5-.01.02.04.05.05.05l.06.44s.07.52.2.84c.04.1.1.16.15.2a5.67 5.67 0 0 0-1.01-.01zm53 .73c-5.7-.16-11.8.25-17.1-.17l-.23-.15c-.1-.22-1.46.3-1.66.1l-.62.1c-.17-.04-.54-.1-.23-.13-.57-.02-.58.02-1 .08l-.6-.14c-2.24-.14-4.16.1-6.52.01-2.83-.3-8.18-.14-11.26-.04-3.9.23-8.37-.5-12.47-.4.13-.08.28-.27.45-.6l.03.01c.04-.28.03-.46-.14-.62.17-.06-.02-.22.02-.3h.01c-.16-.14.04-.35-.1-.48.01 0 .06-.01.07.03-.05-.1-.12-.25-.03-.28-.1-.26-.16-.64-.37-.76h.03c-.13-.06-.06-.12-.14-.2.01-.01.01-.02.02-.02-.14-.07-.12-.3-.2-.36l.06-.03-.1-.2.02.08c-.18.04.05-.2-.12-.3-.03-.15-.46-.12-.44-.3-.1-.03.15 0 .05-.07.1-.04.08.02.13-.04-.08-.08.02-.2-.1-.3l.07-.04c-.2-.1-.05-.33-.22-.37-.13-.13.15-.2-.07-.3l.06-.1c-.02-.08-.13.01-.13-.1.06-.03-.01-.12.07-.1-.01-.22-.32-.28-.3-.6-.14.01-.15-.14-.25-.13.04-.03-.14-.23.04-.17.02.01.03.03.01.04l.07-.02c.03-.2-.22-.2-.3-.34.01.05.04.1-.02.1l-.07-.12.07-.01a1.14 1.14 0 0 0-.1-.19l-.04.07c-.03-.1.04-.2-.1-.24-.08 0-.02.14-.1.07-.05-.14-.1-.35-.22-.5-.05.07-.08.03-.13.01l.05-.05c-.2-.06.07-.16-.12-.24l-.1.05c-.22-.01.05-.17-.23-.16.06.04-.1.14-.13.06l.07-.04c-.05-.02-.08-.01-.1-.05.05-.01.08-.07.02-.1l.1-.03-.2.01c-.03-.13-.22-.16-.2-.27 0 0-.14-.2-.25-.13.08-.02 0-.13.08-.17-.1.02-.27-.03-.28-.14h.02c-.16-.22-.42-.17-.55-.38-.04.08-.12-.03-.15.08-.26-.03-.24-.42-.5-.18-.1-.04-.07-.13-.1-.18h.03c-.2-.07-.24-.1-.36-.18-.08-.01-.17.13-.26.03.07-.03.01-.05-.03-.07.03.01.05-.01.01-.08-.02.01-.04.02-.05.02-.07-.03-.07 0-.04.02-.01.01-.01.02-.01.04-.04-.1-.2-.1-.17-.2-.23-.1-.44-.06-.64-.1 0-.06.07-.1.13-.08l-.14-.04c.03-.07.1-.01.14 0-.1-.2-.38-.03-.52-.22l-.06.04v-.01c-.01.03-.07.06-.1.06 0-.08.06-.15-.03-.18-.05-.1-.22-.06-.33-.05.05.03.02.06-.01.08-.05-.02-.05-.1-.1-.08l.03-.1c-.01.1-.16.05-.2.08 0-.08.1-.03.12-.08l-.3-.1c-.12.03-.01.1-.1.15-.1-.01-.2.02-.3-.07l.01.1c-.2 0-.28-.03-.37-.15-.02 0-.03.01-.04.01.1-.65.2-1.3.24-1.9.01.06.08.1.04.46.12-1.13.4-2.62.6-2.64a6.18 6.18 0 0 1 .1-.34.47.47 0 0 1 .1-.16c.1-.1.25-.1.35 0 .04.02.06.04.1.06a4.46 4.46 0 0 1 .29.22c.2.17.42.33.63.5.44.34.9.67 1.37.94.94.55 1.86.83 2.52.93l-.14.01c1.1.13 1.37.32 2.56.4.06.03.14.04.13.05 1.16-.03 3.34.03 4.24-.2l.07.1c.75-.08 1.5-.25 2.24-.4l-.84.15c.2-.36 1.75-.12 3.24-.93 1.48-.55 2.53-1.9 3.83-2.72.5-.58-.37.6.44-.2.13.1-.35.4-.04.33.82-.75 1.52-1.06 2.38-2.14l.13.04c.26-.37.53-.7.8-1.03.26-.3.55-.67.7-.76.43-.3.94-.35 1.4-.44a2.78 2.78 0 0 1 .45.04c.16.04.1.04.26.1.2.1.32.2.45.3.26.2.53.37 1.44.62l.6.44.17.07c-.01.02-.02.05-.03.07-.23.2-.4.16-.57.45-.1.1-.2.26-.27.38.05.14-.13.15-.1.28l-.08-.02c.01.05.01.1-.04.08v-.02c.01.07-.04.08-.04.12v-.02l-.03.05-.02-.03c-.01.1-.05.16-.12.2l.07.05c-.17.05-.07.2-.24.23h-.01c.07.28-.3.1-.24.37-.01-.03-.04-.02-.05-.04-.03.08-.08.15.05.26-.04.04-.07 0-.13-.04.06.05.05.1.02.14l-.01-.03-.06.1.12.07c-.08.03-.14-.1-.16-.03l.1.08c-.08.06-.25-.02-.38 0-.3.26-.32.76-.7.9l-.08-.05c-.1-.08.08.2-.02.13l.02.07c-.02-.01-.06 0-.07-.04-.03.03-.01.04 0 .1l-.1-.02c-.14.07-.1.27-.24.37-.25.04-.37.4-.43.62-.04.34-.65.27-.68.64-.02 0-.01.04.01.05l-.2.2s-.9.97.57.9l.02.02c.15-.07.22-.13.18-.3.14.1.1-.08.16-.07v.01c-.04-.16.2-.07.17-.2.01.01.04.04.03.06.02-.06.05-.15.13-.1.08-.13.25-.26.2-.44l.02.02c-.05-.1.03-.07.03-.15.01.01.02.01.02.01-.04-.12.1-.14.1-.2l.05.04.07-.1-.04.02c-.13-.13.15.01.1-.14.07-.05-.18-.37-.06-.38-.04-.1.08.12.07.03.07.06.03.06.1.1 0-.07.14-.01.14-.1l.06.05c-.04-.16.2-.07.13-.2.02-.1.2.1.17-.08l.1.04c.04-.02-.07-.1 0-.1.05.04.08-.01.1.05.15-.02.04-.26.26-.26-.07-.1.03-.1-.03-.2.04.03.1-.1.14.03 0 .01-.01.02-.02.01l.05.06c.16.03.04-.16.1-.2-.03 0-.05.03-.07-.02l.06-.05.04.05.1-.06-.07-.04c.07-.02.18.05.14-.06-.03-.06-.1-.03-.1-.1a1.32 1.32 0 0 0 .3-.1c-.07-.05-.05-.07-.05-.1l.06.05c-.01-.14.15.08.15-.05l-.07-.08c-.05-.16.15.06.06-.14-.02.04-.14-.1-.08-.1l.05.06c.01-.03-.01-.06.01-.06.02.04.07.07.1.04l.05.08-.05-.14c.1.01.08-.13.17-.08 0 0 .12-.06.05-.16.04.06.1.03.15.1-.04-.08-.03-.2.06-.16h0c.16-.05.07-.26.23-.3-.07-.05.01-.07-.1-.13 0-.17.33-.03.1-.3.02-.06.1 0 .14-.01v.02a.77.77 0 0 1 .13-.2c0-.05-.12-.16-.04-.2.03.06.04.03.06.01 0 .02.01.04.07.04-.01-.02-.02-.03-.02-.04.02-.04 0-.05-.02-.04-.01-.01-.02-.01-.03-.02.1.02.08-.1.17-.04.07-.12.05-.27.1-.4.05.03.07.08.07.12l.04-.08c.06.05 0 .07 0 .1.16.01.03-.24.2-.25l-.03-.06h.01c-.03-.02-.04-.07-.04-.1.06.03.12.1.16.06.08.01.06-.12.07-.2-.03.02-.05-.02-.06-.04.02-.02.08.01.07-.03l.07.06c-.07-.05-.02-.12-.05-.15.06.03.02.07.05.1.07-.1.03-.05.1-.14-.01-.1-.08-.05-.12-.13.02-.05 0-.14.1-.14l-.08-.04c0-.03.02-.03.02-.05a4.81 4.81 0 0 1 .37.17c-.1.08 1 .5.48.4 1.1.57 2.28.96 3.57 1.47-.1.13-.08.33-.2.54-.2.2-.4.16-.52.44-.1.1-.17.25-.24.37.06.13-.1.15-.08.27l-.08-.02c.01.04.01.08-.04.08h-.02c.02.07-.04.08-.03.1h-.02l-.02.04-.02-.03c0 .1-.04.15-.1.18l.07.05c-.16.05-.05.2-.22.22l-.02-.01c.08.27-.28.1-.2.36-.01-.03-.04-.02-.06-.04-.03.07-.07.14.07.25-.04.04-.07 0-.13-.03.06.05.05.1.03.14l-.01-.03-.06.1.13.07c-.07.03-.15-.1-.16-.02l.1.07c-.07.06-.25-.01-.37 0-.26.25-.27.74-.64.87l-.08-.04c-.1-.07.1.2-.01.13l.02.07c-.02-.01-.06 0-.07-.04-.03.02-.01.04 0 .08h-.1c-.14.07-.1.26-.2.36-.24.04-.33.4-.38.6-.02.33-.62.26-.62.62-.02 0 0 .04.01.05l-.17.2s-.8.94.6.87l.02.02c.14-.07.2-.13.16-.3.14.1.1-.08.15-.07v.01c-.05-.15.2-.07.15-.2.01.01.04.04.04.06.02-.06.04-.15.12-.1.07-.13.23-.26.16-.43l.02.02c-.05-.1.03-.06.02-.14.01.01.02.01.02.01-.05-.1.1-.14.08-.2l.05.04.06-.1-.04.02c-.13-.13.14 0 .1-.13.07-.05-.2-.36-.08-.37-.04-.08.1.1.07.03.08.06.03.06.1.1 0-.07.13-.01.13-.1l.06.04c-.05-.16.18-.07.12-.2.01-.1.2.1.16-.08l.1.03c.04-.02-.08-.1-.01-.1.05.04.08-.01.1.04.14-.02.02-.25.24-.26-.08-.1.02-.1-.04-.18.04.03.1-.1.14.03 0 .01-.01.02-.02.01l.05.05c.16.03.03-.16.1-.2-.03 0-.05.03-.07-.02l.05-.05.04.05.1-.06-.07-.04c.06-.02.18.05.13-.06-.03-.06-.1-.03-.1-.08.08-.02.2-.06.28-.1-.07-.05-.06-.06-.05-.1l.06.04c-.02-.14.15.08.14-.05l-.07-.08c-.06-.16.15.06.05-.14-.01.04-.14-.1-.1-.1l.05.05c0-.03-.01-.05.01-.06.02.04.08.07.1.03l.06.08-.06-.14c.1.01.07-.12.17-.08 0 0 .1-.06.04-.15.04.06.1.03.15.1-.04-.07-.04-.18.05-.16v.01c.15-.05.05-.25.2-.28-.07-.05 0-.07-.1-.13-.01-.16.32-.04.08-.28.02-.06.1 0 .14-.01l.01.02a.57.57 0 0 1 .1-.18c0-.05-.12-.15-.05-.2.04.06.04.03.06.01 0 .02.01.04.07.04-.01-.02-.02-.03-.02-.04.02-.04 0-.04-.02-.03-.01-.01-.02-.01-.04-.02.1.02.07-.1.16-.04.06-.12.03-.26.07-.37.05.03.07.08.07.1l.03-.07c.06.05.01.06.01.1.16.01.02-.23.18-.24l-.04-.06h.01c-.03-.02-.05-.07-.05-.1.06.03.13.1.16.06.08.01.05-.1.05-.18-.03.02-.05-.02-.06-.04.01-.02.08.01.07-.03l.08.06c-.08-.05-.03-.1-.06-.15.06.03.02.07.06.1.06-.1.03-.04.1-.13-.02-.1-.08-.05-.12-.12.02-.05 0-.13.08-.14l-.08-.04c.01-.1.05-.15.16-.15-.01-.1-.03-.17-.04-.25a16.77 16.77 0 0 1 1.8.9c.6.04 1.78.68 2.23.7.03.1 2.43 1.1 1 .66-.12-.04-.33-.13-.3-.16l-.2.04c1.28.82 2.55 1 3.88 1.65-.38-.22-.92-.45-.53-.37l1.25.6-.3-.03 1.84.92-.2-.24c.88.5 1.1.83 2.2 1.16.5.13-.78-.57.2-.14l4.4 2.52c-.07-.2.33.02.75.22l-.01.14c1.64.74.45.55 2.03 1.34l-.18-.01.53.03c.74.32.86.5 1.02.68.15.18.35.35 1.05.75-.5-.4 0-.4.47.17l-.2-.05c.15.14.24.22.28.27.03.03.05.06.08.1.03.05.05.12.08.2-.17-.2-.2-.06.06.54a10.36 10.36 0 0 0-.3-.34 8.89 8.89 0 0 1 .66 1.1c.2.96.67 2.5.56 2.95l.13.98c-.28-.01-.52-.04-.68-.07z"/><path d="M241.56 446.56h0zm-30.94-150.84h0l.04.18z"/><path d="M253.57 384.2l.06 2.88s.33 13.97 1.1 3.33l.03.07c.03-1.58.01-2.57-.16-3.66.17-.18-.02-1.3.03-1.67l.02.03c-.16-.96.06-2-.1-2.9.01.04.06.05.07.27-.04-.68-.1-1.6 0-1.65l-.27-4.9.03.07c-.12-.6-.04-.76-.1-1.42v-.08c-.12-.64-.07-1.87-.13-2.4l.07-.04-.05-1.28v.48c-.2-.16.1-.97-.06-1.9 0-.87-.43-1.74-.36-2.65-.1-.43.15.37.07-.27.1-.03.07.3.14.13-.06-.63.07-1.04-.02-1.8l.07-.03c-.16-1 .05-1.92-.1-2.6-.1-1.04.2-.7.03-1.8l.1-.43c0-.47-.13-.33-.1-.85.06.03.03-.66.1-.36.07-1.18-.2-2.37-.08-3.92-.13-.33-.08-1.1-.18-1.35.05-.04-.03-1.56.1-.7.01.07.01.2-.01.2l.08.1c.1-.9-.12-1.6-.12-2.46-.02.26 0 .6-.06.38v-.8l.07.16v-1.2l-.07.17c.02-.6.15-.8.02-1.46-.07-.3-.1.56-.13-.06l.07-2.98c-.08.1-.1-.17-.1-.45l.07-.04c-.13-1.06.15-.4.04-1.46l-.1-.18c-.17-.95.14-.52-.1-1.57.02.42-.16.2-.14-.3l.08.13c-.02-.3-.06-.38-.05-.57.04.17.1.08.08-.34l.1.28-.15-.8c.06-.62-.06-1.6.03-1.84 0 0 .01-1.32-.1-1.62.08.26.08-.47.17-.27-.1-.34-.18-1.34-.1-1.75l.01.08c.06-1.5-.25-2.55-.22-3.9-.08.07-.08-.64-.18-.46-.2-1.38.07-2.54-.3-3.02-.06-.63.03-.75.03-1.08l.03.15-.17-2.4c-.06-.44-.22-.5-.23-1.28.08.25.05-.07.03-.36.02.2.05.24.07-.14a1.08 1.08 0 0 1-.05-.21s.01-.02.01-.01c-.05-.5-.07-.4-.06-.17-.01-.01-.02.01-.03.08.05-.5-.1-1.42.01-1.5l-.4-3.74c.05-.14.1.14.16.5l-.07-.87c.08 0 .08.5.1.76.07-1.04-.26-2.13-.22-3.35l-.08-.25v-.07c-.03.01-.1-.26-.12-.44.06-.18.16 0 .12-.6.04-.48-.12-1.35-.2-1.97.01.34-.04.23-.07.1-.02-.3.04-.48-.01-.7l.1-.03c-.08.12-.14-.78-.2-.9.06-.18.1.46.15.53l-.12-1.8c-.1-.64-.08.12-.18-.18-.05-.57-.15-1.12-.14-1.77l-.07.2c-.13-1.06-.16-1.7-.12-2.43-1.17-7.9-1.04-1.62-1.04-1.62.01 3.14.35 4.74.65 8.46l.33 7.54.35 4.93c.17.74.13 2.08.3 2.96l-.05.35c.06.3.1.66.08.97l-.02-.02c.08.45.08.97.12 1.2h-.02l.04.56-.04-.1.18 2.34.08-.07c-.01 1.56.24 2.1.16 3.52l-.02-.02c.28 1.75-.08 2.8.2 4.62-.03-.23-.04.1-.06.08.05.84.1 1.73.26 1.74.01.6-.04.5-.1.6.07-.01.12.52.14 1l-.03-.22.06 1.37.13-.28c-.02.73-.17.2-.1.9l.12-.02c0 1-.16 1.6-.22 2.58.06 4.04.48 8.37.37 12.14l-.08.17c-.13.08.22 1.03.1 1.18l.07.43c-.02.12-.04.38-.07.17.01.4.03.4.07.7l-.07.44c-.02 1.6.17 2.95.2 4.63-.1 2.02.15 5.8.3 8 .28 3.07-.14 6.66.17 9.8-.05.1 0 .35.01.35zm-14.3-174.04c-.16.13-.3.6-.3.6-.38.9-.27 1.43-.6 2.55-.43.93-.68 1.1-1.12 2.07l-.76 1.34c-.01.27-.36.54-.44.82l-.12.04a.5.5 0 0 1-.16.26l-.01-.02c-.04.15-.16.26-.2.33l-.01-.02-.1.14v-.04a2.48 2.48 0 0 1-.45.6l.08.04c-.38.3-.4.55-.78.8l-.01-.02c-.22.57-.72.52-1 1.05.04-.07-.05-.01-.06-.03-.18.2-.38.4-.28.53-.15.13-.15.06-.2.03.05.06-.06.2-.18.28l.04-.07-.33.3.16.06c-.2.1-.15-.1-.3.06l.07.1c-.27.18-.53.15-.82.27-1.07.67-2.1 1.66-3.3 1.94l-.08-.06c-.07-.1-.22.3-.3.22l-.1.1c-.05-.01-.13 0-.08-.05-.12.04-.12.06-.2.13l-.16-.03c-.5.12-.83.43-1.36.55-.65.04-1.77.5-2.44.7-.93.4-2.13.01-3.1.3-.03-.02-.1.03-.1.04a9.21 9.21 0 0 1-.91.01l-1.8.06h-.03c.03-1-.12.33-.14-.25l.3-3.43-.12.4.5-4.68c.85-15.44-.6-3.33-.6-3.33-.8 6.03-.86 9.18-1.5 16.4-.68 6.33-1 8-1.6 14.56l-.92 9.53c-.02 1.46-.4 4.02-.47 5.74l-.14.66c-.02.6-.07 1.3-.17 1.88l-.02-.04c-.04.9-.17 1.88-.2 2.33v-.04l-.1 1.08-.01-.2a81.35 81.35 0 0 1-.43 4.53l.1-.1c-.4 2.98-.33 4.1-.73 6.8l-.02-.04c-.12 3.44-.7 5.38-.86 8.93.02-.44-.06.18-.08.15-.14 1.62-.3 3.36-.14 3.4-.13 1.18-.15.96-.24 1.1.08 0 0 1.03-.1 1.95v-.43l-.25 2.65.2-.5c-.2 1.4-.2.34-.32 1.68h.12c-.23 1.93-.53 3.05-.82 4.92l-.68 5.9-.96 5.93-2.1 11.38-.15.3c-.15.1-.18 2-.35 2.27l-.1.85c-.07.23-.18.72-.13.3-.15.77-.13.8-.2 1.36l-.23.8c-.63 3.03-.95 5.65-1.58 8.85-.88 3.82-2.08 11.1-2.78 15.28-.9 5.9-2.7 12.63-3.6 18.67-.05.2-.1.7-.1.7l-1.05 5.5s-5.06 26.63-.2 6.6v.14c.63-3 1-4.9 1.25-6.98.23-.3.48-2.47.67-3.16v.07c.2-1.86.82-3.76 1.03-5.55 0 .07.04.12-.03.53.22-1.3.5-3.06.63-3.14.55-3.08 1.4-7.37 1.6-9.37v.14c.1-1.14.26-1.46.44-2.72.03-.07.05-.15.05-.14.12-1.24.65-3.58.8-4.57l.08-.05.44-2.44-.18.9c-.12-.35.46-1.82.67-3.6.33-1.65.25-3.43.66-5.13.07-.84 0 .75.17-.5.1-.02-.05.58.1.28.18-1.2.46-1.95.68-3.45l.08-.05c.23-1.96.77-3.63.9-4.95.3-2 .47-1.3.7-3.4l.25-.8c.18-.9 0-.66.23-1.64.05.07.28-1.24.23-.65.5-2.2.7-4.56 1.4-7.47 0-.66.34-2.13.33-2.62.07-.07.55-2.97.36-1.28-.02.14-.06.4-.08.38l.04.2c.44-1.65.47-3.07.8-4.73-.1.5-.22 1.15-.2.7l.28-1.54v.33l.42-2.3-.13.3c.2-1.13.38-1.53.43-2.82.01-.6-.22 1.07-.1-.14l.8-5.72c-.1.17-.05-.35-.01-.9l.08-.05c.12-2.07.25-.74.38-2.8l-.07-.37c.05-1.86.26-.98.27-3.05-.07.8-.2.36-.07-.63l.05.26c.04-.55.03-.74.1-1.1 0 .33.1.18.16-.63l.03.55.03-1.55c.2-1.18.3-3.06.45-3.54 0 0 .3-2.54.26-3.14.02.52.2-.88.23-.47-.01-.67.13-2.62.3-3.4l-.01.15c.38-2.88.4-4.95.76-7.53-.1.1.1-1.25-.06-.93.16-2.7.72-4.86.48-5.86.1-1.22.23-1.44.3-2.06v.3l.45-4.65c.05-.85-.1-1 .1-2.5.01.5.06-.12.12-.7-.03.36-.01.48.1-.26-.01-.1 0-.27 0-.42.01-.01.01-.04.02-.02.07-.95.04-.8-.02-.35-.01-.02-.02.01-.05.15.18-.97.27-2.74.4-2.85.26-2.85.35-4.9.55-7.27.08-.26.08.3.03 1l.15-1.68c.08.02-.05.97-.1 1.5.33-2 .3-4.14.64-6.48l-.01-.5.02-.14c-.03 0-.03-.53 0-.88.1-.33.16.04.27-1.12.16-.9.23-2.62.3-3.82-.08.65-.1.43-.1.15.06-.58.16-.9.17-1.36l.1-.05c-.1.22.06-1.53.04-1.75.1-.32-.03.9.01 1.06l.3-3.02a5.35 5.35 0 0 0 .78.33l-.02.03c.52.08.86.1 1.2-.05.06.17.43.01.55.06h-.01c.3-.15.66.08.96-.07-.01.01-.01.06-.08.07.22-.04.52-.1.55-.01.53-.06 1.28-.14 1.6-.35l-.02.03c.17-.14.25-.06.45-.16.01.01.03.01.03.02.2-.15.6-.13.76-.2l.03.06.4-.12h-.16c.01-.2.34.04.6-.15.3-.04.46-.52.76-.52.1-.12-.08.17.1.04.03.1-.08.1 0 .14.18-.1.36-.01.58-.15l.03.07c.28-.23.63-.13.8-.32.3-.18.3.12.58-.14l.17.04c.15-.05.05-.16.23-.2.02.06.22-.04.15.05.4-.08.67-.44 1.2-.54.04-.16.3-.22.33-.35.04.04.46-.24.26 0-.02.02-.06.04-.06.02l.01.08c.33-.03.44-.32.7-.46-.08.03-.18.1-.14.01l.23-.14v.08l.36-.2-.1-.03c.2-.08.32-.01.44-.22.05-.1-.2.02-.05-.12.25-.1.62-.26.9-.45-.08-.05 0-.1.06-.17l.05.05c.22-.3.2.05.43-.23l-.01-.12c.16-.3.23.02.4-.36-.1.1-.15-.08 0-.17l.01.08c.06-.07.07-.12.12-.15-.02.07.05.1.14 0l-.01.13.1-.28c.2-.08.38-.37.5-.35 0 0 .36-.26.36-.4-.01.1.17-.04.18.07.03-.14.22-.43.37-.46l-.01.02c.4-.3.52-.68.88-.97-.08-.04.1-.2-.01-.22.2-.42.73-.5.55-.85.1-.18.2-.15.3-.23l-.02.05c.2-.33.28-.43.46-.66.06-.14-.06-.25.1-.44.01.1.05.01.1-.07-.03.06-.02.1.1 0-.01-.03 0-.06 0-.08 0 0 .01 0 .02.01.07-.15.04-.14-.01-.08-.01-.01-.02-.01-.05 0 .16-.1.25-.4.35-.36.23-.43.3-.8.46-1.17.07-.01.07.1.03.2l.12-.26c.07.04-.04.17-.07.25.3-.24.2-.7.5-1l-.02-.1.02-.02c-.03-.01-.03-.1-.02-.17.1-.02.15.07.22-.12.12-.12.14-.43.2-.63-.05.1-.08.05-.08 0 .04-.1.12-.12.12-.2l.1.02c-.1.01 0-.28-.03-.33.1-.03 0 .17.05.2.13-.38.06-.2.2-.57-.01-.23-.1.01-.15-.1.04-.2.03-.38.14-.57l-.1.04c.04-.35.1-.55.23-.76-.1-1.32-.4-1.44-.54-1.27z"/><path d="M232.94 222.64h0l.01.06zM186.5 434.1h0l.05-.02zm-1.02-74.12l-.04.03c0 .02.02.02.04-.03zm53.48-39.6h0l.05-.52zm-46.5-15.77c.3-1 1.04-7.08 2.68-21.54l.01.4c.82-8.6 1.3-14.04 1.56-20 .37-.92.6-7.08.87-9.1l.01.2c.2-5.28 1.06-10.82 1.26-15.9.01.2.08.3-.01 1.48.26-3.7.58-8.76.77-9.02l.88-12.1.4-6.03.16-2.77.07-1.26a6.03 6.03 0 0 1 .01-.43c.1-.03 1.73-.06 2.58-.1l-.4.05c3.23-.18 4.18-.03 7.8-.12.2.02.45.03.4.04 3.52-.18 10.28-.03 13.12-.1l.18.1 7-.03-2.62-.02c.9-.3 5.3.2 10.4-.01 4.76.04 9.65-.64 14.6-.5 2.36-.14-2.08.23 1.45.12.12.16-1.65.1-.74.23 3.46-.08 5.67.16 9.94.06l.17.12 1.86-.06c.1.01.67 0 1.36 0h2.08l.82-.02h.15c.04.01.02.08.03.12l.03.28.48 4.6.84 9.13c-.04.7-.23-.75-.4-2.57l.35 4.46c-.13-.03-.26-2.56-.38-3.93.17 5.33.96 10.94 1.15 17.2l.18 1.3v.37c.05-.02.2 1.37.3 2.3-.06.9-.27-.05-.08 3.04.03 2.45.45 6.93.7 10.13-.07-1.73.02-1.17.1-.43.1 1.54.02 2.44.13 3.63l-.12.12c.13.2.36 4.1.44 4.63-.07.9-.23-2.4-.34-2.77l.5 9.3c.28 3.3.12-.6.34.97.17 2.92.43 5.76.5 9.1l.1-1.07c.37 5.48.5 8.76.52 12.46l1.36 18.57c.24 2.73.38 2.52.5 1.04.24-3 .04-11.06.04-11.06-.33-16.12-1.14-24.4-2.28-43.54-.9-16.83-.85-21.3-2.2-38.74l-.5-6.33-.25-2.87-.05-1.08s-4-.1-5.48.07l-2.6.02-6.62.01c-11.07-.27-31.9-.02-43.9.12l-7.07.07-8-.02-.86 10.57-.87 9.95-1.5 19.44c-.04.28-.07.78-.1 1.2l-.02.56c0 .14 0 .23.01.23l-1.32 15.75-2.35 30.95c-.35 5.94-.44 10.07-.14 9.08z"/></svg>