<svg xmlns="http://www.w3.org/2000/svg" viewBox="0 0 480 480" xmlns:v="https://vecta.io/nano"><path d="M304.64 437.6h-1.1c.15 0 1.1-.12 1.38-2.8.25-2.37-2.45-3.27-7.1-4.56-.03-.3-.3-.66-.6-.84l-2.7-1c-.1.3-.2.56-.34.83-.04-.01-.1-.03-.13-.04a4.92 4.92 0 0 0 .37-.89l-11.8-4.4c-.02.06-.03.12-.05.18l-2.65-.98c-.2-.04-.4-.03-.6 0-.08-.02-.1-.02-.06.01-.25.06-.47.2-.6.43-3.86-1.74-6.13-3.16-7.36-4.24-.48-.4-.88-3.57-1.2-7.22l4.8.02c1.7 0 3.3-1.4 3.4-3.2.9-13.6-.5-84.2-.6-98.6-.1-14.3-3.5-80.8-5.6-102.7h-16.8l-.2.1h-54.8l-7.6 97-14 101.8c-.4 2.7 0 4.2 2.1 4.4l1.75.1-2.05 12c-2.4 5.2-3 12.9 1.16 14.6a2.65 2.65 0 0 0-2.56 2.6l-.7 7 1.93 2.06 30.07-.13 29.56-1.4.74-7.6c-.2-1.4-1.4-2.6-2.7-2.5h-1.08c.15 0 1.1-.12 1.38-2.8.25-2.37-2.46-3.27-7.1-4.56-.04-.3-.3-.65-.6-.84l-2.7-1c-.1.28-.2.56-.34.82-.04-.01-.1-.03-.13-.04.15-.28.27-.58.37-.88l-11.8-4.4c-.02.06-.03.12-.05.18l-2.65-.98c-.2-.04-.4-.03-.6 0-.08-.02-.1-.02-.06.01-.25.06-.47.2-.6.42-3.85-1.73-6.12-3.16-7.35-4.23-.53-.4-.02-3.6.76-7.2l4.14.2c2.6 0 4-1 4.8-3.4 3.98-12.92 13.32-46.5 20.7-71.72l6.8 72.12c-.1 1.4 1 2.6 2.4 2.7h1.8c.3 4.15.64 8.55 1 11-.2 4.28-3.74 13.47.42 14.75-1.03.35-1.8 1.33-1.8 2.45l-.62 6.87 1.8 1.93 28.66-.4 30.7-.64 1.05-7.87c-.2-1.4-1.4-2.6-2.7-2.5z" fill="#fff"/><path d="M180.36 440.58h0l.1.13z"/><path d="M241.56 440.13c.01-.12-.03-.26-.05-.37-.02-.1-.05-.2-.08-.3-.06-.2-.13-.36-.2-.53-.65-1.38-2.04-1.98-2.75-1.9-.36.02-.54.13-.5.2 0 .1.22.14.57.3.65.3 2.16 1.4 1.44 3.95l-.05-.1-.01.2v.08l-.02.15-.03.26-.35-.02-.6.02-1.66.17c-.24-.3-1.8-.03-2.3-.12l.05-.02c-1.33.22-2.74-.18-4.02.02.05-.02.08-.1.37-.1-.93.04-2.2.1-2.28-.06-2.23.05-5.34-.02-6.77.24l.1-.05c-.8.18-1.05.03-1.96.12-.05-.02-.1-.03-.1-.04-.9.18-2.6.03-3.3.1l-.05-.1-1.77.03.66.02c-.23.3-1.34-.2-2.62.01-1.2-.04-2.43.64-3.68.5-.6.14.52-.23-.36-.12-.03-.16.4-.1.2-.23-.87.08-1.43-.16-2.5-.05l-.04-.12c-1.4.23-2.65-.16-3.58.06-1.45.1-.97-.37-2.48-.12l-.6-.17c-.64-.03-.46.2-1.18.13.04-.1-.9-.08-.48-.18-1.62-.16-3.28.24-5.4-.04-.46.2-1.53.1-1.88.24-.06-.1-2.15-.01-.94-.2.1-.02.3-.01.27.02l.14-.12c-1.2-.23-2.2.13-3.4.1.36.04.83.03.5.1l-1.12-.01.23-.1-1.66-.06.23.13c-.8-.06-1.1-.28-2.02-.1-.42.1.77.17-.1.2l-1.94-.14-1-.06c-.06-.01-.1-.03-.16-.04-.06.08-.1.1-.16.13-.02-.02-.02-.05-.03-.1l.12-.1c-.1-.13-.02-.12.05-.3.07-.13.15-.27.08-1l-.17-.26c-.12-.5.01-.53.1-.64.1-.1.13-.17.32-.62-.22.3-.37-.07.1-.36l-.03.17c.2-.18.26-.26.43-.3-.12.13 0 .17.32.06l-.17.2a1.27 1.27 0 0 1 .27-.18c.1-.05.18-.1.4-.13.85.13 2.2-.03 2.54.14 0 0 1.82.08 2.24-.1-.37.12.64.16.35.3.47-.13 1.87-.24 2.43-.1l-.1.02c2.07.14 3.53-.2 5.4-.02-.08-.14.9-.07.65-.25 1.92-.18 3.5.38 4.2-.2.87-.03 1.03.13 1.48.16l-.2.03 3.32-.04c.6-.06.7-.32 1.8-.26-.35.1.1.1.5.1-.26.02-.34.06.2.13.08-.03.2-.05.3-.07 0 .01.03.01.01.03.68-.04.56-.07.25-.08.02-.02-.01-.04-.1-.07.7.14 1.96-.01 2.05.17l5.2-.3c.2.1-.2.18-.7.2l1.2-.03c-.01.13-.7.08-1.06.1 1.43.22 2.95-.22 4.63-.02l.35-.1.1.02c-.01-.06.37-.13.62-.15.24.12-.02.27.82.26.66.1 1.87-.06 2.73-.12-.46-.02-.3-.08-.1-.13.42 0 .66.1.98.06l.04.16c-.16-.15 1.1-.16 1.24-.22.24.12-.65.1-.75.2l2.5-.02c.9-.12-.16-.15.26-.3.8-.03 1.55-.14 2.45-.05l-.3-.14c1.48-.1 2.36-.1 3.35.05 4.7-.5 5.8-.84 5.53-1.1h.02c.1-.26.17-.52.24-.77a9.27 9.27 0 0 0 .23-1.33c.1-.95-.4-1.86-.97-2.25a7.15 7.15 0 0 0-.93-.67l-.5-.34c-.3-.2-.62-.38-1.62-.66l-.73-.35c-.84-.28-.64-.07-1.56-.4.04-.03-.37-.16-.6-.24-.01-.02-.02-.04-.03-.05h.03c-.01 0-.02-.01-.03-.01l-.1-.14a1.56 1.56 0 0 0-.46-.42c-.3-.17-.47-.14-.47.01 0 .07.04.16.08.3l-.2-.06a1.94 1.94 0 0 1 .27.24 1.8 1.8 0 0 1 .09.44c.01.14-.03.16-.08.35l-.14.52-.3 1.36-.05-.06c-.1 1.25-.14 2.04.1 2.9-.14.07-.15.33-.13.6.02.35.06.36.01.44l-.02-.02c.01.01 0 .02.01.03l-7.04.3c-4.53-.07-5.73-.34-10.43-.23-1.54-.02-3.14.01-4.7.04-.04-.01-.1-.01-.13-.02-.02.01-.03.02-.05.03-.13 0-.26 0-.4.01l.1-.1c.05-.1.05-.1-.05-.05-.07.03-.18.01-.12-.08-.07.05-.08.12-.17.1l.1-.18c.03.01.07.02.1.02l.07-.1c.03-.04.02 0 .12-.2l-.17.07c.25-.4.52-.46.57-1.02.01-.26-.34.34-.17-.13.34-.54.84-1.34 1.2-2.06-.16.01-.07-.18 0-.4l.12.03c.2-.84.38-.17.6-1l-.1-.2c.1-.8.4-.27.44-1.18-.12.3-.32.03-.1-.32l.07.14c.07-.22.05-.3.14-.44 0 .15.13.14.25-.18l.05.26.06-.67c.32-.4.5-1.16.73-1.28 0 0 .5-.93.43-1.22.02.24.3-.27.35-.07-.01-.3.22-1.07.48-1.3l-.01.06c.15-.24.25-.48.35-.7.1.04.32.14.47.23 0-.15.5.12.44-.1.2.04.36.1.53.16.14.06.13.07.2.1.04.05.07.07.1.1-.03.2-.01.22.03.4l-.16.22c-.02.12-.04.23-.05.35-.01.08-.01.15 0 .23a3.32 3.32 0 0 0 .06.44c.05.3.14.55.16.88-.1.4.02.98.27 1.5.23.54.6 1 .9 1.33.08.07.15.15.22.23.01.05.02.1 0 .1.15.18.3.33.45.48.15.22.3.45.47.68.4.54.9 1.03 1.55 1.14.02.04.15.03.16 0 .33.18.7.3 1.04.43 0 0 .33.1.77.16.43.06.97.04 1.38-.06.04.07.1.13.43.1a1.34 1.34 0 0 0 .2.01c.01.01.01.01.01.02.12.1.35.17.54.2.2.03.36.02.36.02.67.02 1.16-.17 1.6-.46s.86-.67 1.4-1.18c.53-.4.87-.66 1.2-.95a5.1 5.1 0 0 0 .23-.24l.12-.13.16-.24c.23-.33.43-.75.6-1.24.03-.1.07-.2.1-.28.22.03.43.06.6.07.47.05.8.05 1.02.03.45-.04.46-.2.3-.4-.17-.2-.54-.42-.87-.6l-.42-.22c-.08-.04-.3-.13-.27-.12a67.72 67.72 0 0 0-2.28-.95c-.02.06-.04.12-.07.18-.25-.1-.47-.18-.58-.13l-.07-.15c-.12.02-.25.02-.32-.08l.02-.03c-.18.03-.32-.08-.4-.07l.02-.03-.18-.05.05-.04c-.3 0-.55-.1-.77-.22l-.03.14c-.44-.34-.72-.12-1.1-.47l.02-.03c-.7.15-.8-.58-1.5-.45.1-.02 0-.08.01-.1-.28-.06-.58-.15-.68.12-.2-.08-.13-.14-.1-.26-.04.12-.23.1-.4.05h.1l-.45-.12v.25c-.2-.15.04-.3-.2-.32l-.07.18c-.3-.16-.4-.5-.65-.75-.3-.14-.65-.25-1-.34-.17-.04-.34-.1-.5-.14-.2-.05-.27-.06-.6-.16-.07-.02-.14-.04-.2-.07 0-.01.01-.03.02-.05a.64.64 0 0 0-.16-.06l.07-.01-.77-.27h.17l-.86-.26-.72-.24c-.3-.1-.58-.22-.85-.34l-.01.15-.4-.2c-.08-.04-.36-.16-.54-.16-.4-.05-.72-.01-1.08.1a1.91 1.91 0 0 0-.72.46c-1.18-.6-2.57-1.35-3.76-2.07.1.16-.32-.1-.76-.34l-.01-.1c-.78-.45-.93-.6-1.04-.73-.1-.12-.2-.25-.68-.62-.01 0-.02-.01-.03-.02-.04 0-.08-.03-.12-.14-.1-.74 0-1.03.04-1.26.06-.25.1-.52.16-1.5-.1.76-.23.33-.03-.6l.03.25c.07-.52.08-.7.16-1.04-.02.32.07.18.2-.58v.53l.13-1.18 4.04.17c.82-.03 1.62-.14 2.42-.46.8-.3 1.48-.86 1.94-1.46.54-.58.9-1.24 1.2-1.9.5-1.7.98-3.54 1.53-5.14v.1c.62-2.4 1.46-5.1 1.76-6.3v.1l.83-2.9-.1.5c1.1-4.2 2.34-8.5 3.46-12.26l-.23.27c2.47-8.05 3.02-11.1 5.3-18.34l.01.1c2.27-9.33 4.42-14.52 6.83-24.12-.3 1.2.22-.5.23-.38 1.23-4.4 2.6-9.06 2.34-9.2.95-3.18.86-2.56 1.1-2.95-.12-.02.64-2.8 1.4-5.27l-.3 1.15 2.15-7.1-.66 1.32c1.25-3.73.56-.87 1.67-4.47l-.2-.02.64-1.83c.1-.3.2-.57.3-.85.05-.16.1-.23.16-.47l.1-.42.88-3.17 1.88-6.63 15.84-63.94.36-.84c.26-.28.83-4.12 1.22-5.68.97-4.85 3.07-15.66 2.72-15.9-.46-.3-4.63 16.38-4.63 16.38v-.03l-.26.98c-.06-.2-.93 3.42-.63 1.8-1.67 6.12-2.86 12.56-5.15 20.6-.24 1.8-1.38 5.86-1.56 7.22-.14.2-2.06 8.18-1.1 3.55.08-.4.26-1.1.28-1.04v-.58c-1.38 4.57-1.98 8.43-3.16 13 .38-1.35.82-3.15.6-1.93l-1.08 4.25.12-.9-1.64 6.32.34-.84c-.83 3.1-1.32 4.12-2 7.67-.3 1.6.9-2.9.12.4L243 307.32c.26-.46-.08.97-.4 2.44l-.16.14-.2.96c-.01.07-.03.14-.04.2 0 .01 0 0-.03.1-.04.13-.08.24-.1.35l-.35 1.05c-.2.53-.3.77-.43 1-.23.48-.5.95-1.28 3.72l-.14 1.02c-1.3 5.03-1.08 2.6-2.43 8.2.63-2.2.57-.95-.28 1.72l.1-.72c-.42 1.5-.52 2-.84 3 .2-.9-.03-.52-.66 1.68l.3-1.5-1 4.2c-1.07 3.16-2.38 8.27-2.93 9.54 0 0-2.07 6.86-2.34 8.48.3-1.4-.84 2.37-.66 1.25-.4 1.82-1.8 7.1-2.53 9.18l.1-.4c-2.37 7.76-3.62 13.4-5.78 20.34.23-.28-.9 3.4-.46 2.53-1.9 7.3-4.16 13.08-4.38 15.85-.93 3.3-1.28 3.85-1.82 5.53l.2-.8-.62 2.1c-.18.56-.42 1.06-.68 1.44-.53.76-1.2 1.1-2 1.26a5.93 5.93 0 0 1-1.19.12c-.43-.01-.9-.04-1.37-.06l-3.14-.16c-2.37-.06-2.76.2-7-.08 1.38-.04-.36-.1-1.95-.18 1.02.03 1.33.01-.75-.16a14.83 14.83 0 0 1-1.18.01c-.02-.01-.1-.02-.06-.03-2.66-.1-2.2-.04-.96.04-.06.01.04.04.42.1-2.75-.27-7.7-.36-8-.56l-2.9-.12-1.38-.05c-.22-.01-.48-.01-.65-.03s-.34-.05-.5-.1c-1.2-.25-1.1-2.12-.9-3.62l1.34-9.6c.2-.73.07.83-.2 2.75l.66-4.68c.12.06-.3 2.7-.5 4.14 1.04-5.54 1.45-11.52 2.54-18.03l.08-1.37.07-.4c-.06.01.07-1.46.18-2.44.24-.9.26.1.7-3.14.46-2.54.92-7.28 1.3-10.64-.26 1.8-.25 1.2-.18.43.2-1.62.45-2.54.57-3.8l.14-.1c-.08-.24.45-4.33.46-4.9.24-.9-.23 2.53-.2 2.94l1.27-9.74c.34-3.48-.23.6-.15-1.07.37-3.06.66-6.06 1.22-9.56l-.3 1.1c.65-5.76 1.12-9.2 1.78-13.05 2.26-21.47 2.36-23.78 1.62-20.72-.72 3.07-1.96 11.5-1.96 11.5-2.57 16.8-3.28 25.57-5.85 45.64l-2.9 20-3 20.47-.54 3.27-.14.82c-.04.3-.1.62-.1.93-.05.62-.08 1.28.05 2.02.12.72.5 1.68 1.32 2.26a3.42 3.42 0 0 0 1.2.56 5.6 5.6 0 0 0 .59.12c.22.03.37.04.5.04l16.73.74c1.86-.01 4.36.1 7 .24-.06.45-.08.75-.01.77-.22 1.13-.22.9-.32 1.05.07.01-.07 1-.18 1.9l.02-.42c-.05.43-.1.86-.12 1.3 0 .46-.07.85.13 1.46-.06-.27-.01-.45.02-.64.01.35.08.65.16.78.08.14.1.2.14.25.07.1.1.16.63.56l.06-.1c1.52 1.14 2.42 1.82 4 2.74.56.3 1.13.55 1.7.8a.36.36 0 0 1-.07.1l-.03-.03c-.22 1.43-1.15 1.92-1.4 3.4.03-.18-.1.04-.13.01-.24.62-.5 1.28-.25 1.4-.2.44-.24.33-.37.34.12.05-.01.45-.16.8l.03-.18-.4 1 .3-.1c-.3.5-.32.02-.5.55l.18.07c-.36.7-.82 1.02-1.27 1.67-.33.7-.64 1.42-.94 2.15l-.67 1.62c-1.02.04-2.3-.04-3.24.1l-.48-.12c-.42.06-.92.1-1.35.04l.03-.03c-.63.1-1.35.04-1.66.08l.03-.04h-.77l.13-.05c-1.1.1-2.24.1-3.24.06l.08.15c-2.14-.16-2.93.14-4.86-.05l.03-.04c-2.44.38-3.87-.26-6.4.1.3-.05-.13-.07-.1-.1-.58.02-1.18.04-1.64.08-.14.01-.26.03-.38.05-.14-.1-.25-.22-.37-.32-.07-.06-.13-.12-.2-.17-.05-.07-.1-.14-.15-.2l-.26-.34c-.13-.2-.2-.36-.2-.36-.56-1.13-.7-2.34-.77-3.46-.06-1.13.04-2.23.2-3.34.15-1.12.42-2.26.82-3.5.1-.3.2-.63.34-.95.06-.16.13-.32.2-.5l.13-.33c.03-.06.04-.2.05-.24l.02-.14.4-2.4c.78-4.3.27-7.65.05-6.68v.47l-.03.13c.03 0-.01.5-.05.84-.12.3-.16-.05-.34 1.06-.22.86-.4 2.5-.56 3.64.12-.62.12-.4.1-.14-.1.55-.22.86-.26 1.3l-.1.04c.13-.2-.16 1.46-.15 1.67-.12.3.1-.87.06-1l-.2 1.1c-.01.04-.01.03-.03.08l-.05.13c-.03.08-.06.14-.1.2-.1.27-.24.52-.6 1.6-.3 1.2.14-.2.05.4-.3 1.03-.5 2.05-.74 3.26l.15-.37c-.26 2-.28 3.18-.23 4.54.3 1.86 1 3.22 1.82 3.93l.47.34c0 .02-.02.03-.02.05-.5.16-.7.28-.8.3s-.12-.02-.2-.03c.07.1-.7.68-1.04 1.46.04-.12.1-.24.15-.36a3.19 3.19 0 0 0-.45 1.13c-.04.2-.06.4-.06.6l.01.5.24-.37c-.07 1-.3.25-.23 1.22h.2l-.05.95c-.15 0-.3.01-.45.01.17 2.6.32 3.3.52 3.6.1.1.2-.03.32-.48.06-.22.12-.52.18-.9.04-.25.1-.5.14-.73l.46.06c.26.02.5.05.77.08a10.7 10.7 0 0 1 .52.07c1.94.03 3.93-.02 5.92-.07.56.05 1.52-.08 1.9-.01l-.05.02c1.33-.22 2.74.18 4.02-.02-.05.02-.08.1-.37.1.93-.04 2.2-.1 2.28.06l3.34-.03c.05.07.26.04.5-.01.75-.01 1.44-.04 2.03-.1.43 0 .5-.03.84-.1l-.05.02c.04-.01.08-.02.12-.02l.57.12c2.2.1 4.08-.16 6.4-.1 2.65.25 7.52.03 10.6-.12.53.04 1 .06 1.43-.04 1.44-.1.97.37 2.47.12l.6.17c.64.03.46-.2 1.17-.13-.04.1.9.08.48.18 1.62.16 3.28-.24 5.4.04.37-.17 1.13-.12 1.6-.18.16-.01.33-.01.5-.03.52.03 1.7.01.73.17-.1.02-.3.01-.27-.02l-.14.12c1.2.23 2.2-.13 3.4-.1-.36-.04-.83-.03-.5-.1h1.12l-.23.1 1.66.06-.23-.13c.4.03.72.1.93.14.05.04.05.05.2-.04.2-.1-.1-.17.2-.2.01 0 .03.01.05.01-.02.1-.04.2-.07.32l-.04.14-.03.5-.06 1.03c-.02.2-.07.37-.15.53.16-.02.08.2-.05.4l-.12-.05c-.23.4-.38.36-.47.34-.1-.03-.18-.03-.52.1l.05-.1a2 2 0 0 1-.16.28c-1.22.26-.68-.26-2.13.08.58-.02.27.27-.44.22l.18-.12c-.4.03-.53.08-.8.05.24-.06.12-.17-.46-.15l.4-.15-1.1.22c-.85-.13-2.2.03-2.54-.14 0 0-1.82-.08-2.24.1.37-.12-.64-.16-.35-.3-.47.13-1.87.24-2.42.1l.1-.02c-2.06-.14-3.53.2-5.38.02.08.14-.9.07-.65.25-1.92.18-3.5-.38-4.2.2-.87.03-1.03-.13-1.48-.16l.2-.03a66.18 66.18 0 0 1-3.32.04c-.6.06-.7.32-1.8.26.35-.1-.1-.1-.5-.1.26-.02.34-.06-.2-.13-.08.03-.2.05-.3.07 0-.01-.03-.01-.01-.03-.68.04-.56.07-.25.08-.02.02.01.04.1.07-.7-.14-1.96.01-2.05-.17-2.04.04-3.5.23-5.2.3-.2-.1.2-.18.7-.2l-1.2.03c.01-.13.7-.08 1.06-.1-1.43-.22-2.95.22-4.63.02l-.35.1-.1-.02c.01.06-.37.13-.62.15-.24-.12.02-.27-.82-.26-.66-.1-1.87.06-2.73.12.46.02.3.08.1.13-.42 0-.66-.1-.98-.06l-.04-.16c.16.15-1.1.16-1.24.22-.24-.12.65-.1.75-.2l-2.5.02c-.9.12.16.15-.26.3-.8.03-1.55.14-2.45.05l.3.14c-1.48.1-2.36.1-3.35-.05-.7.05-1.3.2-1.8.13-.53-.06-.97-.3-1.32-.55-.7-.53-.96-1.16-1.1-1.57-.24-.83-.37-.7-.5-.33-.15.54.03 1.66.6 2.4.55.76 1.3 1.1 1.3 1.1.36.2.74.32 1.13.38.18.03.42.05.55.05.12.01.25.01.37.02l1.4.03c.9 0 1.74-.02 2.62-.06l6.17-.26c4.53.07 5.73.34 10.42.23 2.24.02 4.63-.04 6.82-.07 1.04-.2 2.87 0 4.1-.18l.48.12c.42-.06.92-.1 1.35-.04l-.03.03c.63-.1 1.35-.04 1.66-.08l-.03.04h.77l-.13.05c1.1-.1 2.24-.1 3.24-.06l-.08-.15c2.14.16 2.93-.14 4.86.05l-.03.04c2.44-.38 3.86.26 6.38-.1-.3.05.13.07.1.1 1.16-.04 2.4-.06 2.42-.35.85 0 .7.1.8.2 0-.12.73-.18 1.4-.18l-.3.05 1.42-.03c.16-.01.4-.01.6-.05-.17-.05-.33-.12-.48-.2.6 0 .7.01.78.05.08.03.18.1.72-.2l-.1-.17c.74-.38 1.23-.86 1.62-1.45a3.58 3.58 0 0 0 .42-1l.1-.52.06-.48v-1.38h.1l-.04-2.8c-.18-.38-.2-.7-.2-1.04zm-8.63-8.82l.8.18c.2.1.65.27.26.16.7.25.72.23 1.22.38.24.12.45.25.67.38 1.1.54 1.87 1.2 1.83 2.1 0 .47-.1 1.1-.24 1.6-.04.14-.1.27-.15.4-.96-.14-2.27-.2-2.27-.2-1.07-.08-2.02-.1-2.9-.1l.01-1.2s.02-2.2-.12-3.9c.43.1.82.18.9.26zm-25.34 5c.02-.01.03-.01.02 0 0 .01-.01.01-.02 0zm8.53-9.16c.16-.03.1.08.23 0-.1-.2.12-.34-.02-.57l.12-.02c-.26-.3.13-.6-.08-.8-.1-.28.37-.06.15-.28a.51.51 0 0 1 .17.03c.03-.02-.2-.16-.1-.17.1.08.1 0 .18.1.08.03.04-.05.02-.17-.03-.13.07-.07.17.1-.04-.24.06-.07.08-.23.01.1.16.08.06.24-.01.01-.02.01-.01-.03l-.01.12c.01.13.01.1.05.05.13-.01.3-.04.43.03-.07-.07-.18-.1-.08-.15l.25.1-.1.08.36.2v-.14c.16.13.16.36.43.27.13-.06-.12-.23.1-.2.22.17.55.44.86.6.02-.15.1-.1.2-.1l-.03.12c.4-.04.03.3.4.3l.12-.14c.4-.12.07.3.53.1-.14-.03.03-.28.18-.17l-.08.1c.1.01.15-.03.2.02-.08.04-.1.15.05.18l-.14.1.33-.1c.15.2.52.16.54.35 0 0 .4.23.55.1-.12.08.1.2-.02.3.15-.08.5-.06.6.12h-.03c.43.3.88.12 1.25.44.03-.14.23.02.24-.18.5-.01.68.65 1.03.18.2.05.2.2.3.28l-.06.01c.2.05.32.08.43.12l.16.06a.69.69 0 0 0 .08.03c.07-.03.25-.25.35-.14-.12.07-.06.07-.01.1-.05 0-.08.03-.1.1.04-.02.07-.03.1-.04l-.02.02c.1 0 .13-.03.1-.05a.12.12 0 0 0 .05-.05c-.06.12.25.08.03.2.08.12.2.3.14.54-.1 0-.16-.07-.18-.13l-.04.14c-.13-.04-.04-.1-.05-.13-.15.05-.12.1-.12.2a.45.45 0 0 1-.27.38l.03.12h-.03c.04.04.05.15.02.2-.12-.04-.2-.18-.3-.05-.18.02-.24.32-.35.5.1-.05.1.02.1.08-.07.07-.18.01-.2.1l-.1-.12c.12.1-.1.27-.1.34-.1-.06.06-.17.02-.25-.28.23-.14.1-.44.32-.1.2.1.1.1.28-.14.1-.25.3-.48.3l.12.1c-.27.25-.5.3-.76.24l-.47.4a5.68 5.68 0 0 1-.72.11c-.06.01-.1.01-.17.01-.2-.2-.58-.4-1.1-.75l.03-.04c-.46-.17-.7-.26-1.1-.1.04-.3-.35-.16-.43-.28l.02-.02c-.35.08-.45-.4-.77-.37.02-.01.07-.08.12-.05-.2-.06-.45-.16-.36-.3-.42-.22-.8-.74-1.2-.8l.05-.01c-.25-.03-.15-.17-.35-.27.01-.02.01-.04.02-.04-.25-.06-.32-.46-.45-.57l.1-.06-.2-.34.04.14c-.3.08.06-.34-.2-.53-.06-.24-.75-.37-.68-.7-.14-.13.26.07.13-.12zm37.68-32.7l.05 3.2s.28 15.52 1.1 3.7l.03.08c.03-1.75.02-2.86-.14-4.06.17-.2-.01-1.44.03-1.85l.01.04c-.16-1.07.06-2.2-.08-3.23.01.04.06.06.07.3-.04-.75-.1-1.78 0-1.83l-.26-5.44.03.08c-.12-.65-.03-.85-.1-1.58l.02-.08c-.12-.7-.06-2.08-.12-2.66l.07-.04-.05-1.42v.53c-.2-.18.1-1.08-.05-2.1 0-.96-.43-1.95-.36-2.95-.1-.48.15.42.07-.3.1-.03.07.33.14.15-.06-.7.07-1.15-.01-2l.07-.04c-.16-1.12.05-2.13-.1-2.88-.1-1.16.2-.78.03-2l.1-.47c0-.52-.13-.37-.1-.94.06.03.03-.73.1-.4.07-1.3-.2-2.63-.07-4.35-.13-.37-.08-1.23-.18-1.5.05-.05-.03-1.73.1-.76.01.08.01.23-.01.22l.08.1c.12-.98-.12-1.77-.12-2.74-.02.3 0 .67-.06.4l-.01-.9.07.2v-1.34l-.07.2c.02-.66.15-.9.02-1.62-.07-.33-.1.62-.13-.07l.07-3.3c-.08.1-.1-.2-.1-.5l.07-.04c-.13-1.18.15-.44.04-1.6l-.1-.2c-.18-1.06.14-.58-.1-1.75.03.47-.16.22-.14-.35l.08.14c-.02-.32-.06-.42-.05-.63.04.2.1.1.08-.37l.1.3-.16-.88c.06-.68-.07-1.76.03-2.04 0 0 .01-1.47-.1-1.8.08.3.08-.52.17-.3-.1-.38-.2-1.5-.12-1.95l.01.08c.03-1.67-.2-2.84-.16-4.34-.08.07-.07-.72-.18-.52-.17-1.55-.01-2.82-.38-3.36-.08-.7.01-.83-.01-1.2l.03.17-.26-2.66c-.08-.48-.24-.55-.28-1.42.1.28.04-.08.02-.4.03.2.06.27.06-.16-.03-.06-.05-.15-.06-.24 0 0 .01-.02.01-.01-.07-.54-.08-.45-.07-.2-.01-.01-.02.01-.03.1.03-.57-.15-1.57-.05-1.65l-.56-4.15c.04-.16.12.16.18.55l-.1-.96c.08 0 .1.55.14.85.03-1.16-.34-2.36-.35-3.7l-.1-.27v-.08c-.03.01-.1-.3-.13-.5.05-.2.16 0 .1-.67.02-.53-.17-1.5-.27-2.18.02.37-.03.26-.07.1-.03-.33.02-.53-.03-.8l.1-.04c-.08.14-.17-.86-.22-.98.05-.2.1.5.17.6l-.2-2c-.14-.7-.08.14-.2-.2-.08-.63-.2-1.24-.2-1.96l-.06.24c-.17-1.18-.23-1.88-.2-2.7-1.48-8.74-1.1-1.77-1.1-1.77.13 3.48.53 5.25.97 9.37l.62 8.36.54 5.45c.2.82.2 2.3.4 3.28l-.04.4c.07.34.13.73.12 1.08l-.02-.02c.1.5.12 1.08.17 1.33l-.02-.02.07.6-.04-.1a15.75 15.75 0 0 1 .2 2.58l.08-.07.1 3.9-.02-.02c.3 1.96-.06 3.1.2 5.13-.03-.25-.04.1-.06.1.05.93.1 1.93.26 1.94.02.68-.04.55-.1.65.07-.01.12.58.14 1.1l-.04-.24.06 1.52.13-.3c-.02.8-.17.2-.1.98h.12c.01 1.12-.16 1.77-.2 2.86.06 4.5.47 9.3.37 13.48l-.08.2c-.13.08.22 1.15.1 1.3l.07.48c-.02.14-.04.43-.07.18.01.45.03.46.07.78l-.07.48c-.02 1.77.17 3.28.18 5.14-.1 2.24.13 6.46.27 8.88.27 3.4-.16 7.4.14 10.9-.03.07.01.37.03.36z"/><path d="M254.05 348.66h0l.06.1zm20.7-89.9l.03-.03c-.01-.03-.02-.02-.03.03zM209.8 304.3h0l.03.2zm7.13-82.1c-.82 6.12-.9 9.3-1.6 16.63-.7 6.42-1.05 8.1-1.67 14.77l-.96 9.67c-.03 1.5-.42 4.08-.5 5.83l-.14.67c-.03.6-.08 1.3-.18 1.9l-.02-.04c-.04.9-.18 1.9-.2 2.36l-.02-.04-.1 1.1-.01-.2a84.47 84.47 0 0 1-.45 4.6l.1-.1c-.42 3.03-.35 4.16-.76 6.9l-.02-.04c-.14 3.5-.74 5.46-.9 9.05.02-.45-.07.2-.08.15-.15 1.65-.33 3.4-.17 3.45-.14 1.2-.16.97-.24 1.12.08 0-.01 1.05-.1 1.98v-.43l-.28 2.68.2-.5c-.2 1.4-.2.34-.34 1.7h.12c-.13.98-.28 1.74-.45 2.5l-.6 2.44-4.07 23.56-.14.3c-.15.12-.16 2.04-.33 2.3l-.1.86c-.06.23-.18.73-.13.3-.14.78-.12.8-.18 1.38l-.23.83c-.6 3.1-.9 5.74-1.5 9-.84 3.9-1.98 11.28-2.64 15.53-.85 6-2.57 12.85-3.42 19-.05.2-.1.72-.1.72l-1 5.6s-4.78 27.1-.14 6.7v.14c.6-3.05.95-4.97 1.18-7.1.23-.3.46-2.5.64-3.22v.07c.2-1.9.78-3.83.98-5.65 0 .07.04.12-.03.53.2-1.3.48-3.1.6-3.2.52-3.14 1.33-7.5 1.52-9.53v.14c.1-1.16.24-1.48.4-2.77.03-.07.05-.16.05-.14.1-1.26.62-3.64.75-4.65l.08-.05.42-2.48-.18.92c-.13-.35.44-1.86.64-3.68.32-1.68.22-3.47.6-5.2.06-.85.01.76.16-.5.1-.03-.04.6.1.28.17-1.23.45-2 .65-3.5l.08-.05c.2-2 .75-3.7.85-5.03.3-2.04.46-1.33.68-3.46l.24-.8c.17-.9-.01-.67.2-1.66.05.07.27-1.26.23-.66.5-2.26.66-4.63 1.35-7.6-.01-.67.33-2.16.32-2.66.07-.07.54-3.02.36-1.3-.02.15-.06.4-.08.38l.04.2c.43-1.68.47-3.1.78-4.8-.1.5-.22 1.16-.2.7l.28-1.57v.34l.44-2.33-.13.3c.24-1.14.44-1.52.55-2.83.04-.6-.3 1.07-.1-.14l1.16-5.75c-.1.17-.02-.35.03-.9l.08-.05c.17-2.1.27-.75.43-2.84l-.06-.38c.07-1.9.27-1 .3-3.1-.08.82-.2.37-.06-.64l.04.26c.05-.56.04-.75.1-1.12 0 .34.08.2.16-.64l.03.56.04-1.57c.2-1.2.32-3.1.47-3.6 0 0 .33-2.58.28-3.18.01.53.2-.9.23-.48-.01-.68.14-2.66.3-3.44v.15c.4-2.92.42-5.02.8-7.64-.1.1.1-1.27-.05-.94.18-2.73.75-4.93.5-5.95.1-1.24.23-1.46.32-2.1l-.01.3.47-4.7c.06-.86-.1-1 .1-2.55.01.5.06-.13.13-.7-.03.37-.02.5.1-.27-.01-.1 0-.27 0-.43.01-.01.01-.04.02-.02.08-.96.04-.8-.01-.35-.01-.02-.02.01-.06.15.2-1 .28-2.78.4-2.9l.6-7.38c.08-.26.07.3.02 1l.16-1.7c.08.02-.06 1-.1 1.5.34-2.02.3-4.2.67-6.57l-.01-.5.03-.14c-.03 0-.02-.54 0-.9.1-.33.16.04.28-1.14.16-.93.24-2.65.33-3.88-.08.66-.1.44-.1.15.06-.6.16-.92.18-1.38l.1-.05c-.1.22.06-1.55.05-1.77.1-.33-.03.92 0 1.07l.35-3.55c.06-1.27-.1.22-.13-.4.1-1.12.14-2.2.33-3.48l-.13.4c.15-2.1.3-3.35.52-4.75.95-15.65-.57-3.37-.57-3.37z"/><path d="M186.13 359.5l-.04.03c.01.02.02.02.04-.03zm6.33-54.83c.3-.98 1.08-7 2.73-21.3v.4c.83-8.52 1.3-13.88 1.55-19.78.36-.9.6-7 .86-9v.2c.2-5.22 1.04-10.7 1.24-15.73.01.2.08.3-.01 1.46.25-3.66.56-8.66.75-8.92l.9-12.68.4-6.24.15-2.82.06-1.25v-.45c.16-.01.3-.03.45-.04a40.83 40.83 0 0 1 1.04-.04l-.38.05c3.2-.18 4.14-.03 7.7-.12.2.02.45.03.4.04 3.48-.18 10.16-.03 12.98-.1l.18.1 6.93-.03-2.6-.02c.9-.3 5.24.2 10.27-.01 4.7.04 9.54-.64 14.43-.5 2.33-.14-2.05.23 1.43.12.1.16-1.63.1-.73.23 3.42-.08 5.6.16 9.83.06l.17.12 2.03-.06 1.7-.02h.54l1.5.01h.23l1.98-.02h.15c.02.03.01.1.02.13l.03.28.6 5.8.83 9.02c-.04.7-.23-.74-.4-2.54l.34 4.4c-.13-.03-.25-2.53-.37-3.88.16 5.26.95 10.8 1.13 16.97l.18 1.27v.37c.05-.02.2 1.35.3 2.27-.06.88-.27-.04-.08 3 .03 2.42.45 6.85.7 10-.07-1.7.02-1.16.1-.43.1 1.52.02 2.4.13 3.58l-.12.12c.13.2.35 4.06.43 4.57-.07.87-.22-2.36-.33-2.74l.5 9.17c.28 3.26.12-.6.33.95.17 2.88.43 5.68.5 9l.1-1.05c.37 5.4.5 8.65.5 12.3l1.34 18.33c.24 2.7.38 2.5.5 1.03.24-2.95.05-10.92.05-10.92-.32-15.9-1.13-24.1-2.25-42.98-.87-16.62-.83-21.04-2.15-38.25l-.5-6.24-.5-5.46c.04-.18-.14-.13-.26-.13h-.4l-2.46.01-12.45.06-1.15.05-1.58.03-.52.28c-11.34-.2-30 .04-41.07.17l-6.46.07c-2.42 0-4.88-.01-7.36-.01l-.43 5.68-.4 5.03-.87 10.1-1.5 19.77c-.04.28-.07.77-.1 1.2l-.02.55c0 .14 0 .23.01.23l-1.3 15.57-2.36 30.6c-.33 5.88-.45 9.96-.14 9zm47.32 12.73h0l.07-.5zm7.2 123.18h0l.1.13z"/><path d="M308.2 441.1l-.03-.98c.01-.12-.03-.26-.05-.37-.02-.1-.05-.2-.08-.3-.06-.2-.13-.36-.2-.53-.65-1.38-2.04-1.98-2.75-1.9-.36.02-.54.13-.5.2 0 .1.22.14.57.3.65.3 2.16 1.4 1.44 3.95l-.05-.1-.01.2-.01.08-.02.15-.03.26-.35-.02-.6.02-1.66.17c-.24-.3-1.8-.03-2.3-.12l.05-.02c-1.33.22-2.74-.18-4.02.02.05-.02.08-.1.37-.1-.93.04-2.2.1-2.28-.06-2.23.05-5.34-.02-6.77.24l.1-.05c-.8.18-1.05.03-1.96.12-.05-.02-.1-.03-.1-.04-.9.18-2.6.03-3.3.1l-.05-.1-1.77.03.66.02c-.23.3-1.34-.2-2.62.01-1.2-.04-2.43.64-3.68.5-.6.14.52-.23-.36-.12-.03-.16.4-.1.2-.23-.87.08-1.43-.16-2.5-.05l-.04-.12c-1.4.23-2.65-.16-3.58.06-1.45.1-.97-.37-2.48-.12l-.6-.17c-.64-.03-.46.2-1.18.13.04-.1-.9-.08-.48-.18-1.62-.16-3.28.24-5.4-.04-.46.2-1.53.1-1.88.24-.06-.1-2.15-.01-.94-.2.1-.02.3-.01.27.02l.14-.12c-1.2-.23-2.2.13-3.4.1.36.04.83.03.5.1l-1.12-.01.23-.1-1.66-.06.23.13c-.8-.06-1.1-.28-2.02-.1-.42.1.77.17-.1.2l-1.94-.14-1-.06c-.06-.01-.1-.03-.16-.04-.06.08-.1.1-.16.13-.02-.02-.02-.05-.03-.1l.12-.1c-.1-.13-.02-.12.05-.3.07-.13.15-.27.08-1l-.17-.26c-.12-.5.01-.53.1-.64.1-.1.13-.17.32-.62-.22.3-.37-.07.1-.36l-.03.17c.2-.18.26-.26.43-.3-.12.13 0 .17.32.06-.06.07-.12.13-.17.2a1.27 1.27 0 0 1 .27-.18c.1-.05.18-.1.4-.13.85.13 2.2-.03 2.54.14 0 0 1.82.08 2.24-.1-.37.12.64.16.35.3.47-.13 1.87-.24 2.43-.1l-.1.02c2.07.14 3.53-.2 5.4-.02-.08-.14.9-.07.65-.25 1.92-.18 3.5.38 4.2-.2.87-.03 1.03.13 1.48.16l-.2.03 3.32-.04c.6-.06.7-.32 1.8-.26-.35.1.1.1.5.1-.26.02-.34.06.2.13.08-.03.2-.05.3-.07 0 .01.03.01.01.03.68-.04.56-.07.25-.08.02-.02-.01-.04-.1-.07.7.14 1.96-.01 2.05.17l5.2-.3c.2.1-.2.18-.7.2l1.2-.03c-.01.13-.7.08-1.06.1 1.43.22 2.95-.22 4.63-.02l.35-.1.1.02c-.01-.06.37-.13.62-.15.24.12-.02.27.82.26.66.1 1.87-.06 2.73-.12-.46-.02-.3-.08-.1-.13.42 0 .66.1.98.06l.04.16c-.16-.15 1.1-.16 1.24-.22.24.12-.65.1-.75.2l2.5-.02c.9-.12-.16-.15.26-.3.8-.03 1.55-.14 2.45-.05l-.3-.14c1.48-.1 2.36-.1 3.35.05 4.7-.5 5.8-.84 5.53-1.1h.02c.1-.26.17-.52.24-.77a9.27 9.27 0 0 0 .23-1.33c.1-.95-.4-1.86-.97-2.25-.42-.35-.7-.53-.93-.67l-.5-.34c-.3-.2-.62-.38-1.62-.66l-.73-.35c-.84-.28-.64-.07-1.56-.4.04-.03-.37-.16-.6-.24-.01-.02-.02-.04-.03-.05h.03c-.01 0-.02-.01-.03-.01l-.1-.14a1.56 1.56 0 0 0-.46-.42c-.3-.17-.47-.14-.47.01 0 .07.04.16.08.3l-.2-.06a1.94 1.94 0 0 1 .27.24 1.8 1.8 0 0 1 .09.44c.01.14-.03.16-.08.35l-.14.52-.3 1.36-.05-.06c-.1 1.25-.14 2.04.1 2.9-.14.07-.15.33-.13.6.02.35.06.36.01.44l-.02-.02c.01.01 0 .02.01.03l-7.04.3c-4.53-.07-5.73-.34-10.43-.23-1.54-.02-3.14.01-4.7.04-.04-.01-.1-.01-.13-.02-.02.01-.03.02-.05.03-.13 0-.26 0-.4.01l.1-.1c.05-.1.05-.1-.05-.05-.07.03-.18.01-.12-.08-.07.05-.08.12-.17.1l.1-.18c.03.01.07.02.1.02l.07-.1c.03-.04.02 0 .12-.2l-.17.07c.25-.4.52-.46.57-1.02.01-.26-.34.34-.17-.13.34-.54.84-1.34 1.2-2.06-.16.01-.07-.18 0-.4l.12.03c.2-.84.38-.17.6-1l-.1-.2c.1-.8.4-.27.44-1.18-.12.3-.32.03-.1-.32l.07.14c.07-.22.05-.3.14-.44 0 .15.13.14.25-.18l.05.26.06-.67c.32-.4.5-1.16.73-1.28 0 0 .5-.93.43-1.22.02.24.3-.27.35-.07-.01-.3.22-1.07.48-1.3l-.01.06c.15-.24.25-.48.35-.7.1.04.32.14.47.23 0-.15.5.12.44-.1.2.04.36.1.53.16.14.06.13.07.2.1.04.05.07.07.1.1-.03.2-.01.22.03.4-.05.07-.1.14-.16.22-.02.12-.04.23-.05.35-.01.08-.01.15 0 .23a3.32 3.32 0 0 0 .06.44c.05.3.14.55.16.88-.1.4.02.98.27 1.5.23.54.6 1 .9 1.33.08.07.15.15.22.23.01.05.02.1 0 .1.15.18.3.33.45.48.15.22.3.45.47.68.4.54.9 1.03 1.55 1.14.02.04.15.03.16 0 .33.18.7.3 1.04.43 0 0 .33.1.77.16.43.06.97.04 1.38-.06.04.07.1.13.43.1.06.01.14.01.2.01.01.01.01.01.01.02.12.1.35.17.54.2.2.03.36.02.36.02.67.02 1.16-.17 1.6-.46s.86-.67 1.4-1.18c.53-.4.87-.66 1.2-.95.08-.08.16-.16.23-.24l.12-.13.16-.24c.23-.33.43-.75.6-1.24.03-.1.07-.2.1-.28.22.03.43.06.6.07.47.05.8.05 1.02.03.45-.04.46-.2.3-.4-.17-.2-.54-.42-.87-.6l-.42-.22c-.08-.04-.3-.13-.27-.12-.8-.35-1.57-.67-2.28-.95-.02.06-.04.12-.07.18-.25-.1-.47-.18-.58-.13l-.05-.15c-.12.02-.25.02-.32-.08l.02-.03c-.18.03-.32-.08-.4-.07v-.03l-.18-.05.05-.04c-.3 0-.55-.1-.77-.22l-.03.14c-.44-.34-.72-.12-1.1-.47l.02-.03c-.7.15-.8-.58-1.5-.45.1-.02 0-.08.01-.1-.28-.06-.58-.15-.68.12-.2-.08-.13-.14-.1-.26-.04.12-.23.1-.4.05l.1-.02-.45-.12v.25c-.2-.15.04-.3-.2-.32l-.07.18c-.3-.16-.4-.5-.65-.75-.3-.14-.65-.25-1-.34a9.67 9.67 0 0 1-.51-.14c-.2-.05-.27-.06-.6-.16-.07-.02-.14-.04-.2-.07 0-.01.01-.03.02-.05a.64.64 0 0 0-.16-.06l.07-.01-.77-.27h.17l-.86-.26-.72-.24c-.3-.1-.58-.22-.85-.34l-.01.15-.4-.2c-.08-.04-.36-.16-.54-.16-.4-.05-.72-.01-1.08.1-.23.08-.5.23-.7.44-1-.5-2.1-1.08-3.06-1.64.1.16-.32-.1-.77-.32l-.01-.1c-.86-.46-.98-.6-1.1-.73s-.25-.25-1-.8l.16.06c-.17-.06-.32-.12-.48-.18-.05-.03-.1-.06-.13-.1-.07.01-.17-.3-.2-.42-.03-.16-.04-.27-.06-.4-.02-.25-.07-.52-.3-1.43.13.75-.12.4-.2-.56l.1.23c-.1-.52-.14-.7-.16-1.04.08.3.12.15.02-.62l.15.5-.3-1.44-.04-.74.84-.01 2.87-.03.46-.01c.2-.01.37-.02.55-.05 1.2-.2 2.26-.93 2.92-1.95.33-.5.54-1.1.6-1.7.05-.6.05-1.03.08-1.56.1-2.04.12-4.1.2-6.16l.22-12.63c.12-8.5.16-17.02-.1-25 .01-.26 0-.73-.02-1.13l-.03-.52c-.01-.13-.02-.2-.03-.2l-.15-14.62-.6-28.7c-.18-5.5-.36-9.3-.6-8.37s-.5 6.6-.74 20.07l-.05-.36c0 8 .05 13.04.36 18.55-.27.88.06 6.57-.01 8.44l-.03-.18c.28 4.88-.06 10.05.17 14.75-.02-.18-.1-.28-.12-1.36.07 3.43.17 8.1 0 8.37l.17 24.83-.04-.36c.05 1.5.06 2.46 0 3.46l-.08 1.6c-.02.28-.02.66-.04.9-.03.27-.1.56-.24.86-.1.12-.2.27-.2.24-.3.55-.98 1.15-1.85 1.28-.37.06-1.03.03-1.57.04-.57 0-1.15 0-1.72-.01h-5.83l-.2-.1h-6.48l2.42.03c-.85.3-4.9-.2-9.6-.02-1.96-.02-3.95.1-5.96.22l-1.5.1c-.53.05-.94.05-1.37-.13-.85-.32-1.48-1.24-1.4-2.2v-.02l-.07-1.5c-.3-2.17.38 1.9.02-1.35.15-.12.22 1.5.28.66-.32-3.2-.27-5.25-.72-9.17l.1-.17c-.7-5.1-.72-9.7-1.26-13.08-.6-5.28.04-3.58-.73-9.06l-.04-2.16c-.2-2.36-.37-1.67-.54-4.28.12.15-.24-3.3.01-1.8-.4-5.93-1.4-11.97-1.9-19.78-.38-1.67-3.03-16.07-.32 17.28l-.07.85c-.18.4.82 5.2.7 5.95l.3 2.2c.02.62.1 1.94-.05.84.2 2.04.23 2.1.43 3.55l.08 2.2 2.24 23.38.3 5.44v-.1c-.08.93.26 1.93.92 2.64a3.63 3.63 0 0 0 2.61 1.17l4.48.02 9.38-.02 11.3-.08c.12 1.1.26 2.04.4 2.04.13 1.14.06.93.01 1.1.08-.02.22.97.4 1.86l-.1-.4c.06.33.13.66.22 1 .04.17.1.34.16.52l.14.3a2.17 2.17 0 0 0 .24.29l.47.38-.3-.44c1.06.9.16.37 1.26 1.12l.05-.1c1.57 1.06 2.47 1.73 4.07 2.62l.94.44c-.02.04-.04.07-.06.1l-.03-.03c-.22 1.43-1.15 1.92-1.4 3.4.03-.18-.1.04-.13.01-.24.62-.5 1.28-.25 1.4-.2.44-.24.33-.37.34.12.05-.01.45-.16.8l.03-.18-.4 1 .3-.1c-.3.5-.32.02-.5.55l.18.07c-.36.7-.82 1.02-1.27 1.67-.33.7-.64 1.42-.94 2.15l-.67 1.62c-1.02.04-2.3-.04-3.24.1l-.48-.12c-.42.06-.92.1-1.35.04l.03-.03c-.63.1-1.35.04-1.66.08l.03-.04-.77.02.13-.05c-1.1.1-2.24.1-3.24.06l.08.15c-2.14-.16-2.93.14-4.86-.05l.03-.04c-2.44.38-3.87-.26-6.4.1.3-.05-.13-.07-.1-.1-.58.02-1.18.04-1.64.08-.52.03-.9.2-.95.35-.2-.1-.37-.23-.5-.4-.2-.23-.32-.5-.4-.74-.08-.22-.1-.37-.1-.37-.24-1.22-.1-2.48.02-3.63.15-1.16.34-2.27.54-3.42s.43-2.34.6-3.7a16.64 16.64 0 0 0 .12-1.07c.02-.2.02-.35.03-.6.01-.07-.02-.2-.02-.24l-.02-.14-.04-.27c-.1-.74-.22-1.53-.3-2.4-.7-7.55-1.56-5.05-1.46-3.94 0 .9.24 2.5.4 3.66-.05-.62.01-.43.06-.16.06.56.01.9.1 1.32l-.1.06c.06-.23.26 1.45.33 1.65-.03.33-.18-.86-.24-1l.15 1.16c.04.3.04.26.02.44-.02.27-.03.54-.2 1.63-.13 1.18.13-.2.1.38-.16 1.04-.3 2.06-.6 3.24l.16-.36-.73 4.47c-.08 1.85.2 3.38.88 4.22a2.36 2.36 0 0 0 .54.48c-.1.04-.16.07-.2.07-.1.02-.12-.02-.2-.03.07.1-.7.68-1.04 1.46.04-.12.1-.24.15-.36a3.19 3.19 0 0 0-.45 1.13c-.04.2-.06.4-.06.6l.01.5.24-.37c-.07 1-.3.25-.23 1.22l.2-.01-.05.95c-.15 0-.3.01-.45.01.17 2.6.32 3.3.52 3.6.1.1.2-.03.32-.48.06-.22.12-.52.18-.9.04-.25.1-.5.14-.73l.46.06c.26.02.5.05.77.08a10.7 10.7 0 0 1 .52.07c1.94.03 3.93-.02 5.92-.07.56.05 1.52-.08 1.9-.01l-.05.02c1.33-.22 2.74.18 4.02-.02-.05.02-.08.1-.37.1.93-.04 2.2-.1 2.28.06l3.34-.03c.05.07.26.04.5-.01.75-.01 1.44-.04 2.03-.1.43 0 .5-.03.84-.1l-.05.02c.04-.01.08-.02.12-.02l.57.12c2.2.1 4.08-.16 6.4-.1 2.65.25 7.52.03 10.6-.12.53.04 1 .06 1.43-.04 1.44-.1.97.37 2.47.12l.6.17c.64.03.46-.2 1.17-.13-.04.1.9.08.48.18 1.62.16 3.28-.24 5.4.04.37-.17 1.13-.12 1.6-.18.16-.01.33-.01.5-.03.52.03 1.7.01.73.17-.1.02-.3.01-.27-.02l-.14.12c1.2.23 2.2-.13 3.4-.1-.36-.04-.83-.03-.5-.1l1.12.01-.23.1 1.66.06-.23-.13c.4.03.72.1.93.14.05.04.05.05.2-.04.2-.1-.1-.17.2-.2.01 0 .03.01.05.01-.02.1-.04.2-.07.32l-.04.14-.03.5-.06 1.03c-.02.2-.07.37-.15.53.16-.02.08.2-.05.4l-.12-.05c-.23.4-.38.36-.47.34-.1-.03-.18-.03-.52.1l.05-.1a2 2 0 0 1-.16.28c-1.22.26-.68-.26-2.13.08.58-.02.27.27-.44.22l.18-.12c-.4.03-.53.08-.8.05.24-.06.12-.17-.46-.15l.4-.15-1.1.22c-.85-.13-2.2.03-2.54-.14 0 0-1.82-.08-2.24.1.37-.12-.64-.16-.35-.3-.47.13-1.87.24-2.42.1l.1-.02c-2.06-.14-3.53.2-5.38.02.08.14-.9.07-.65.25-1.92.18-3.5-.38-4.2.2-.87.03-1.03-.13-1.48-.16l.2-.03c-1.63.05-2.1.05-3.32.04-.6.06-.7.32-1.8.26.35-.1-.1-.1-.5-.1.26-.02.34-.06-.2-.13-.08.03-.2.05-.3.07 0-.01-.03-.01-.01-.03-.68.04-.56.07-.25.08-.02.02.01.04.1.07-.7-.14-1.96.01-2.05-.17-2.04.04-3.5.23-5.2.3-.2-.1.2-.18.7-.2l-1.2.03c.01-.13.7-.08 1.06-.1-1.43-.22-2.95.22-4.63.02l-.35.1-.1-.02c.01.06-.37.13-.62.15-.24-.12.02-.27-.82-.26-.66-.1-1.87.06-2.73.12.46.02.3.08.1.13-.42 0-.66-.1-.98-.06l-.04-.16c.16.15-1.1.16-1.24.22-.24-.12.65-.1.75-.2l-2.5.02c-.9.12.16.15-.26.3-.8.03-1.55.14-2.45.05l.3.14c-1.48.1-2.36.1-3.35-.05-.7.05-1.3.2-1.8.13-.53-.06-.97-.3-1.32-.55-.7-.53-.96-1.16-1.1-1.57-.24-.83-.37-.7-.5-.33-.15.54.03 1.66.6 2.4.55.76 1.3 1.1 1.3 1.1.36.2.74.32 1.13.38.18.03.42.05.55.05.12.01.25.01.37.02l1.4.03c.9 0 1.74-.02 2.62-.06 1.74-.08 3.6-.2 6.17-.26 4.53.07 5.73.34 10.42.23 2.24.02 4.63-.04 6.82-.07 1.04-.2 2.87 0 4.1-.18l.48.12c.42-.06.92-.1 1.35-.04l-.03.03c.63-.1 1.35-.04 1.66-.08l-.03.04.77-.02-.13.05c1.1-.1 2.24-.1 3.24-.06l-.08-.15c2.14.16 2.93-.14 4.86.05l-.03.04c2.44-.38 3.86.26 6.38-.1-.3.05.13.07.1.1 1.16-.04 2.4-.06 2.42-.35.85 0 .7.1.8.2 0-.12.73-.18 1.4-.18l-.3.05 1.42-.03c.16-.01.4-.01.6-.05-.17-.05-.33-.12-.48-.2.6 0 .7.01.78.05.08.03.18.1.72-.2l-.1-.17c.74-.38 1.23-.86 1.62-1.45.18-.3.33-.63.42-1l.1-.52.06-.48v-1.38h.1c-.1-.9-.1-1.85-.13-2.8zm-8.66-9.8l.8.18c.2.1.65.27.26.16.7.25.72.23 1.22.38.24.12.45.25.67.38 1.1.54 1.87 1.2 1.83 2.1 0 .47-.1 1.1-.24 1.6-.04.14-.1.27-.15.4-.96-.14-2.27-.2-2.27-.2-1.07-.08-2.02-.1-2.9-.1l.01-1.2s.02-2.2-.12-3.9c.43.1.82.18.9.26zm-25.34 5c.02-.01.03-.01.02 0-.02.01-.02.01-.02 0zm8.53-9.16c.16-.03.1.08.23 0-.1-.2.12-.34-.02-.57l.12-.02c-.26-.3.13-.6-.08-.8-.1-.28.37-.06.15-.28a.51.51 0 0 1 .17.03c.03-.02-.2-.16-.1-.17.1.08.1 0 .18.1.08.03.04-.05.02-.17-.03-.13.07-.07.17.1-.04-.24.06-.07.08-.23.01.1.16.08.06.24-.01.01-.02.01-.01-.03v.12c.01.13.01.1.05.05.13-.01.3-.04.43.03-.07-.07-.18-.1-.08-.15l.25.1-.1.08.36.2-.01-.14c.16.13.16.36.43.27.13-.06-.12-.23.1-.2.22.17.55.44.86.6.02-.15.1-.1.2-.1l-.03.12c.4-.04.03.3.4.3l.12-.14c.4-.12.07.3.53.1-.14-.03.03-.28.18-.17l-.08.1c.1.01.15-.03.2.02-.08.04-.1.15.05.18l-.14.1.33-.1c.15.2.52.16.54.35 0 0 .4.23.55.1-.12.08.1.2-.02.3.15-.08.5-.06.6.12l-.03.01c.43.3.88.12 1.25.44.03-.14.23.02.24-.18.5-.01.68.65 1.03.18.2.05.2.2.3.28l-.06.01c.2.05.32.08.43.12l.16.06c.02.01.05.02.08.03.07-.03.25-.25.35-.14-.12.07-.06.07-.01.1-.05 0-.08.03-.1.1.04-.02.07-.03.1-.04l-.02.02c.1 0 .13-.03.1-.05a.12.12 0 0 0 .05-.05c-.06.12.25.08.03.2.08.12.2.3.14.54-.1 0-.16-.07-.18-.13l-.04.14c-.13-.04-.04-.1-.05-.13-.15.05-.12.1-.12.2a.45.45 0 0 1-.27.38l.03.12-.03.01c.04.04.05.15.02.2-.12-.04-.2-.18-.3-.05-.18.02-.24.32-.35.5.1-.05.1.02.1.08-.07.07-.18.01-.2.1l-.1-.12c.12.1-.1.27-.1.34-.1-.06.06-.17.02-.25-.28.23-.14.1-.44.32-.1.2.1.1.1.28-.14.1-.25.3-.48.3l.12.1c-.27.25-.5.3-.76.24l-.47.4a5.68 5.68 0 0 1-.72.11c-.06.01-.1.01-.17.01-.2-.2-.58-.4-1.1-.75l.03-.04c-.46-.17-.7-.26-1.1-.1.04-.3-.35-.16-.43-.28l.02-.02c-.35.08-.45-.4-.77-.37.02-.01.07-.08.12-.05-.2-.06-.45-.16-.36-.3-.42-.22-.8-.74-1.2-.8l.05-.01c-.25-.03-.15-.17-.35-.27.01-.02.01-.04.02-.04-.25-.06-.32-.46-.45-.57l.1-.06-.2-.34.04.14c-.3.08.06-.34-.2-.53-.06-.24-.75-.37-.68-.7-.14-.13.26.07.13-.12z"/></svg>