<svg xmlns="http://www.w3.org/2000/svg" viewBox="0 0 480 480" xmlns:v="https://vecta.io/nano"><path d="M205.47 208.42c-.1-.01-.06-.03.2-.04l-.95.03-1.64.02 2.4-.01zm17.95.66v.03h1.27-1.27z"/><path d="M307.3 438.23h-7.57l.01-.05 6.75-.05s1.1.1 1.4-2.8c.24-2.36-2.42-3.26-7.03-4.54l.04-.26c.1-.4-.2-.6-.5-.8l-10-4.1c-.6-.2-.9 0-.9.5l-.16 1-4.22-1.6.18-.9c.1-.3-.1-.7-.3-.9l-10.2-5.1c-.2 0-.5 0-.6.3l-.13.55c-3.18-7-.8-91.4-.6-98.15.28-9.76-.9-31.53-2.2-51.75l3.64-1c.78 1.62 1.4 2.83 1.87 3.65.5.8 1.6 1.2 2.5.8l10-4.3c1.2-.5 1.6-2 .7-3l-1.42-1.83c4.1-1.65 6.93-3.03 8.25-3.7l2.17 2.34c.5.5 1.3.6 1.9.2l5.3-3.8c.7-.5.8-1.6.2-2.2-3.1-3-11.4-11.2-19.1-19.2-8.55-9-15.27-25.2-16.64-28.63-.1-.42-.16-.67-.16-.67h-3.7l-15.7.06c0-.03-.01-.06-.01-.06l-1.4.06-49 .14s-.8 8.1-8.9 19.6c-7.3 9.5-18.8 21.2-23.1 24.5-.6.5-.6 1.6 0 2.1l8 7c.5.4 1.4.4 1.9-.1l1.23-1.37c3.17 2.36 7.33 4.92 12.6 7.23l-.74 1.24c-.5.8-.2 1.9.7 2.3 1.6.7 3.9 1.8 5.8 2.5l5.52 1.94-.22 34.46c-.4 5.7-9.1 36-10.8 56.5-2.4 27.7-6 53.5-6.3 55.6-.1.2-.2.45-.3.68l-.6-.18-1.8 6.1.27.08c-1.15 4.2-1.53 8.52.97 9.67-1.2.22-2.15 1.3-2.06 2.55v5.9c0 1.4 1.2 2.6 2.6 2.5h56.3c1.4 0 2.6-1.2 2.5-2.6v-2.9h.1v-2.9c-.1-1.5-1.2-2.5-2.7-2.6h-7.57v-.06l5.98-.04s1.1.1 1.4-2.8c.23-2.23-2.14-3.16-6.3-4.33l.07-.47c.1-.4-.2-.6-.5-.8l-10-4.1c-.6-.2-.9 0-.9.5l-.2 1.27a135.69 135.69 0 0 1-4.23-1.58l.24-1.2c.1-.3-.1-.7-.3-.9l-10.2-5.1c-.2 0-.5 0-.6.3l-.28 1.23a7.04 7.04 0 0 1-.4-.33c-1.8-2.7 24.2-87.5 27-101.9.66-3.4 2.32-10.1 4.52-18.55l2.88 24.65c.4 2.4 1.4 27.1 3.7 44.5l6.4 50.8c-.04.83-.26 2-.56 3.32l-.7-.22-1.8 6.1 1.04.3c-.95 4.27-1.52 8.4.3 9.45-1.24.18-2.24 1.28-2.15 2.56v5.9c0 1.4 1.2 2.6 2.6 2.5h56.3c1.4 0 2.6-1.2 2.5-2.6v-2.9h.1v-2.9c-.1-1.5-1.2-2.5-2.7-2.6z" fill="#fff"/><path d="M208.05 207.18h.02l.3-.1-.3.1zm13.58 14.56h0l-.07-.17zm34.2 54.54h0l.14-.1zM184.1 441.24h0l.1.13z"/><path d="M310.9 444.65v-1.07-.86l-.02-.88-.03-.98a3.84 3.84 0 0 0-.27-1.17 3.23 3.23 0 0 0-1.4-1.58 2.96 2.96 0 0 0-1.37-.37c-.04 0-.07.01-.1.01.2-.38.3-.75.4-1.1a9.27 9.27 0 0 0 .23-1.33c.1-.95-.4-1.86-.97-2.25-.42-.35-.7-.53-.93-.67l-.5-.34c-.3-.2-.62-.38-1.62-.66l-.73-.35c-.76-.26-.67-.1-1.34-.32a1.74 1.74 0 0 0-.51-1.64c-.25-.26-.55-.5-.9-.63l-.7-.27-1.1-.4c-.4.06-.92-.38-1.38-.37l-.1-.17c-.16 0-.33-.03-.45-.14l.02-.03c-.24 0-.45-.14-.56-.14l.02-.03-.25-.1.06-.03a3.17 3.17 0 0 1-1.06-.37l-.03.15c-.63-.43-1-.26-1.54-.7l.02-.03c-.93.03-1.14-.75-2.1-.74.12 0-.01-.1.01-.12-.4-.1-.8-.26-.9 0-.4-.15-.32-.18-.35-.3-.03.15-.4.01-1 .3.08-.06.16-.1.24-.15-.27.07-.57.32-.7.58-.13.25-.14.47-.14.65a1.95 1.95 0 0 1 .25-.18c-.04.14-.06.2-.1.25l.01-.1c-.1.07-.2-.03-.2.22l.2.03c0 .02-.01.03-.02.05l-1.85-.64c.44.2 1.03.4.62.3l-1.27-.5v-.03l.18.03-.17-.07.1-.57a2.01 2.01 0 0 0-.16-1.29c-.13-.18-.28-.38-.47-.57-.2-.18-.44-.33-.72-.47l-.3-.15-.23-.1a1.6 1.6 0 0 0-.44-.14l-.14-.2c-.2-.03-.42-.1-.56-.24l.03-.03c-.3-.05-.56-.24-.7-.26l.03-.03-.32-.14.08-.02a5.46 5.46 0 0 1-1.34-.6l-.03.15c-.8-.58-1.24-.47-1.94-1.03l.03-.03c-1.16-.15-1.44-1-2.62-1.2.15.02-.02-.1.01-.12l-.36-.15-.54-.2c-.33-.12-.53-.12-.54.04-.5-.17-.42-.2-.5-.34.01.07-.07.1-.22.12a3.15 3.15 0 0 0-.39.14c0-.02-.01-.03-.01-.05L274 417l.08.37c-.54-3.08-.47-4.04-.74-7.57l.01-.4c-.3-3.44-.35-10.08-.43-12.87l.06-.18-.08-6.88v2.57c-.2-.9.08-5.2-.03-10.2.03-4.67-.33-9.48-.2-14.34-.06-2.32.12 2.04.1-1.42.1-.1.04 1.62.13.73 0-3.4.17-5.57.17-9.76l.08-.17c-.05-5.47.28-10.3.23-13.95.06-5.64.3-3.77.3-9.65l.16-2.28c.08-2.5-.08-1.8.04-4.58.06.17.15-3.52.16-1.9.33-6.3-.05-12.84-.2-21.14-.2-1.8-.3-5.98-.47-7.32.04-.23-.42-8.37-.06-3.7.03.4.06 1.1.04 1.07l.1.56c-.1-4.74-.54-8.6-.8-13.28.06 1.4.17 3.23.05 2l-.25-4.35.12.9-.36-6.48v.9l-.14-3.3c.85-.22 1.6-.43 2.32-.64.6 1.15 1.26 2.3 1.5 2.2.12.22.2.38.25.5l.14.3c.05.13 0 .14.02.25.05-.04.27.18.63.4s.87.44 1.4.48c-.16 0-.32-.01-.48-.04a2.68 2.68 0 0 0 1.51-.03c.27-.1.43-.17.6-.25l.5-.23-.5-.04c1.1-.4.4.15 1.4-.35l-.1-.17c1.5-.6 2.5-.7 4-1.2a154.73 154.73 0 0 0 4.56-1.99c1.14-.5 1.87-1.85 1.6-3.1a2.85 2.85 0 0 0-.33-.87c-.15-.27-.37-.48-.47-.62l-.5-.6c1.5-.6 3.08-1.3 4.87-2.25-.68.36.33-.07.3-.01l1.3-.65.67.78-.07-.27c.27.34.42.6.6.85a3.45 3.45 0 0 0 .31.38 1.8 1.8 0 0 0 .33.29c.15.1.32.2.52.28.37.1.05-.06-.13-.22-.17-.18-.3-.22.36.1a2.48 2.48 0 0 0 1.51.21 2.28 2.28 0 0 0 .84-.32l.5-.3a58.48 58.48 0 0 0 1.93-1.25c-.2-.04.13-.26.44-.52l.1.07c1.17-1.05.62-.1 1.8-1.13l-.06.15.18-.45c.17-.17.3-.3.4-.38.46-.38.6-.54.8-.8a1.54 1.54 0 0 0 .24-.61c.05-.28.08-.7-.12-1.2.12.5 0 .62-.06.47-.08-.15-.15-.56-.45-1.08.1.06.17.13.26.2-.16-.32-.34-.47-.48-.6-.1-.08-.17-.15-.26-.25.22.13.22-.03-.23-.45l.4.2-.98-.67c-.54-.73-1.66-1.62-1.8-2 0 0-1.3-1.43-1.75-1.6.36.2-.36-.6-.05-.47-.45-.26-1.56-1.23-1.88-1.75l.1.07c-1.44-1.65-2.78-2.52-4.04-4.03-.04.16-.72-.63-.67-.3-1.56-1.3-2.34-2.9-3.27-3-.67-.63-.68-.87-1-1.23l.18.14c-1.25-1.2-1.6-1.55-2.5-2.47-.5-.42-.76-.3-1.52-1.17.33.2-.01-.13-.28-.45.2.2.27.23-.04-.24-.08-.04-.17-.1-.26-.2 0-.01-.01-.03.01-.03-.5-.5-.44-.4-.23-.13-.02 0-.02.03.03.13-.2-.32-.53-.7-.82-1.02-.27-.33-.48-.62-.44-.7-1.37-1.63-2.4-2.77-3.46-4.2-.03-.22.26.08.58.5l-.72-1.04c.12-.06.46.56.7.87-.65-1.37-1.9-2.47-2.63-4.1l-.28-.26-.04-.1c-.05.03-.32-.27-.46-.5-.02-.28.24-.12-.2-.88-.25-.65-1.02-1.68-1.5-2.46.2.44.08.33-.05.17-.2-.38-.23-.66-.43-.94l.12-.1c-.06.22-.67-.94-.8-1.06-.01-.28.4.56.53.62l-1.22-2.34c-.52-.8-.06.22-.38-.12-.4-.73-.85-1.4-1.17-2.32v.33c-.76-1.37-1.14-2.23-1.44-3.24-.05-.1-.1-.17-.15-.26l-.25-.78c-.2-.7-.4-1.4-.6-2.1l-.27-1.05-.4-1.7-2.63-.03-1.92-.04-.55-.15c-.24-.2-3.45.33-3.93.13l-1.46.1c-.4-.04-1.27-.08-.55-.13-1.35 0-1.38.03-2.35.1l-1.45-.13c-5.3-.1-9.83.18-15.42.15-6.72-.25-19.36.03-26.64.2-1.5.05-3.02.07-4.57.08.02-.07.04-.14.07-.2l.04-.12c.02-.05.04-.1-.01-.1-.07-.02-.15-.03-.28-.05-.26-.02-.68-.05-1.43-.02l-.58.17c-.72.06-.8.08-1 .07-.16-.01-.26-.04-.36-.06-.2-.05-.44-.1-1.22.07.5-.02.38.16-.07.2h-.38l.17-.1c-.42.03-.56.08-.84.05.25-.06.13-.17-.5-.15l.4-.15-1.17.22c-.14-.02-.3-.03-.45-.04l-.24-.01h-.4l-1.65.01c-.08.62-.17 1.12-.26 1.34 0 0-.04.2-.1.53l-.15.67c-.1.5-.24 1.07-.2 1.3-.01-.4-.34.6-.4.27 0 .5-.34 1.9-.7 2.4l.02-.1c-.87 1.95-1.17 3.5-2.2 5.14.17-.01-.35.87-.08.72-.77 1.87-2.1 3-1.98 3.93-.46.8-.7.85-.97 1.24l.1-.2c-.88 1.48-1.17 1.87-1.9 2.9-.35.53-.2.77-.95 1.63.14-.36-.12.02-.4.36.16-.22.18-.3-.23.08-.02.08-.1.2-.15.3-.01 0-.03.01-.03 0-.42.58-.32.5-.1.25 0 .02.04.01.12-.05-.57.5-1.3 1.6-1.5 1.56-1.35 1.68-2.22 2.97-3.36 4.36-.2.1.01-.28.33-.7l-.82.98c-.1-.1.43-.6.67-.9-1.16 1-1.92 2.48-3.28 3.66l-.17.34-.1.07c.04.03-.17.38-.34.6-.26.1-.18-.2-.78.45-.56.43-1.32 1.48-1.9 2.18.36-.34.3-.18.18 0-.3.32-.56.42-.76.7l-.14-.08c.23-.02-.7.94-.76 1.1-.26.1.4-.56.42-.7l-1.85 1.9c-.6.75.23-.02 0 .4-.57.6-1.07 1.26-1.83 1.85l.3-.1c-1.05 1.17-1.75 1.8-2.63 2.4-.9 1-1.66 1.78-2.22 2.37-.4.47-.3.98-.17 1.25.14.3.33.37.44.38.37.14.44.05.33-.16-.01-.04-.1-.13-.08-.16l.02-.07c.01-.06.03-.12.04-.2.04-.18.13-.2.17-.2-.03.03.04-.02.08-.05s.1-.06.13-.1c.08-.06.15-.1.2-.15.12-.08.18-.13.18-.13 1.94-1.4 3.18-2.64 4.5-4 1.3-1.35 2.6-2.84 4.48-4.86 3.4-3.45 4.47-4.2 7.7-8.05 1.6-1.8 3.2-3.8 4.63-5.65.27-.5.74-1.12 1.24-1.75.46-.66.93-1.35 1.24-1.96l.4-.37c.2-.42.44-.9.74-1.25l.01.04c.3-.62.72-1.26.86-1.58v.04l.4-.73-.03.15c.5-1.1 1.1-2.17 1.6-3.13l-.17.02c1.17-2 1.22-2.92 2.16-4.8l.02.04c.3-1.28.65-2.24 1-3.22.17-.5.34-1 .47-1.54.03-.14.07-.27.1-.42.03-.15.06-.32.05-.3 0-.07-.01-.16-.03-.3 0-.02.02-.02.03-.03-.06.05.1.07.1.1l.24-.03c.3-.01.58-.03.82-.05.5-.05.82-.12.83-.27.9 0 .73.1.85.2-.01-.12.78-.18 1.48-.18l-.32.05 1-.02.68-.02a.79.79 0 0 0-.15-.24c.65.07.03.3.58.23l.2-.2c.04.17-.07.44-.1.6-.03.1-.06.18-.1.25-.02.04-.03.06-.05.12l-.07.2c-.2.55-.4 1.08-.6 1.76-1.22 5.7-2.9 11.86-5.6 16.64l-.24.15c-.24 0-.4 1.5-.66 1.58l-.2.6c-.12.14-.34.45-.23.15-.3.5-.27.54-.42.94l-.42.5-1.65 2.87-.82 1.44-.98 1.45c-1.85 2.27-5 6.87-6.85 9.5-2.5 3.77-6.42 7.35-9.12 11.08a1.3 1.3 0 0 0-.3.44c-.46.53-.93 1.05-1.4 1.55-.16.17-.2.16-.35.2-.16.02-.3-.02-.38-.08l-2.14-1.85c-1.28-1.1-2.87-2.43-4.14-3.4-2.53-1.94-3.73-2.44 1.55 3.37l-.1-.03a47.47 47.47 0 0 0 2.17 2.01 16.18 16.18 0 0 0 .96.77c.16.1.32.23.48.35.18.15.5.33.8.38.14.2.87.4 1.65.07a2 2 0 0 0 .52-.33c.07-.07.15-.14.2-.2l.12-.15c.08-.1.15-.17.22-.24 2.34 1.73 4.6 3.1 7 4.38 1.4.7 2.85 1.37 4.42 2.03-.03.03-.06.04-.1.07-.25.28-.53.82-.54 1.46a2.68 2.68 0 0 0 .7 1.85 2.83 2.83 0 0 0 .77.59l.43.22.4.2c1.18.6 2.24 1.08 3.24 1.52 1 .44 1.96.84 2.97 1.12l4.08 1.24c.08.02.15.05.23.07l.02 9.55c.03 2.8.2 3.23.14 8.23-.06-1.62-.05.43-.06 2.3-.01-1.2-.03-1.57-.08.9.02.35.03.88.03 1.38-.01.02-.01.12-.02.07 0 3.12.02 2.58.04 1.13.01.07.02-.05.04-.5-.1 3.24-.08 9.04-.24 9.4-.06 2.3-.6 4.4-1 6.44l-1.26 5.8-2.45 11.1c-.25.84.1-.95.6-3.17l-1.2 5.42c-.03-.03.13-.8.34-1.8l.67-3c-1.58 6.42-2.86 13.32-4.34 20.93l-.2 1.6-.1.45c.02-.01-.04.42-.12 1l-.26 1.86c-.23 1.07-.17-.1-.7 3.7-.53 3-.9 8.6-1.22 12.54.2-2.13.18-1.44.12-.52l-.46 4.47-.1.13c.05.26-.43 5.1-.46 5.74-.18 1.08.24-2.96.23-3.45l-1.2 11.46c-.38 4.08.17-.73.04 1.23L188.7 402l.24-1.3c-.74 6.76-1.27 10.8-1.95 15.32l-.54 4.46-.13 1.03v.04c-.4-.2-.7-.43-1.22-.43-.24.03.63.37.05.24-.1-.04-.2-.08-.3-.13-.14.3-.3.7-.48 1.15l-.46 1.23c.15-.01.1.14.08.3l-.12-.02c-.02.66-.33.15-.38.8l.13.16c.07.62-.34.22-.2.93.05-.25.3-.04.16.25l-.1-.1c-.02.17.01.24-.05.34-.03-.12-.15-.1-.2.15l-.1-.2.08.52c-.1.1-.23.58-.32.9-.1.35-.2.65-.32.8 0 0-.14.4-.26.8.37.1.77.18 1 .15-.38.01.34.26.02.3a2.87 2.87 0 0 1 .38.03c-.06.27-.12.53-.16.8-.34 1.84-.45 3.44-.25 4.72.15 1.13.62 1.94 1.17 2.38-.5.16-.7.27-.8.3s-.12-.02-.2-.03c.07.1-.7.68-1.04 1.5.04-.13.1-.25.14-.37-.33.54-.48 1.2-.43 1.84v-.05l.01.44.24-.37c-.07 1-.3.25-.23 1.22h.2l-.04.83c-.08 0-.16 0-.24.01l.07 1.73c.01.13.01.25.02.38.01.1.01.17.02.25.02.15.03.3.05.43.07.53.15.9.24 1s.2-.02.35-.5c.1-.35.24-1.1.38-1.7l1.58.2c3.2.05 6.55-.1 9.8-.16.67.05 1.32.1 1.95 0-.05.02-.08.1-.37.1.93-.04 2.2-.1 2.28.07l3.2-.03.14.1c.06.13.6-.02 1.06-.1.2-.01.36-.01.54-.02.01.01.03.01.04.01l.12-.02c.23-.01.45-.03.67-.04.14.03.25.06.04.1.56.01.57-.03.97-.1l.6.13c2.2.1 4.08-.15 6.4-.1 2.8.27 8.03.02 11.05-.12.62-.05 1.25-.06 1.9-.07.4.1.53.24 1.52.08l.58.17c.64.03.46-.2 1.17-.12-.04.1.9.08.48.2.97.1 1.96 0 3.05-.04.66.03 1.32.05 1.98.05.13.01.25.02.38.04.03-.01.08-.02.1-.04a30.06 30.06 0 0 0 2.35-.08c.12.03.38-.02.47-.05.3.02.42.05-.12.14-.1.02-.3.01-.27-.02l-.14.12c1.2.23 2.2-.13 3.4-.1-.36-.04-.83-.03-.5-.1l1.12.02-.23.1 1.66.06-.23-.13c.4.03.7.1.96.14.05.04.05.05.2-.04.16-.08.01-.14.1-.18h.16c-.03.16-.07.32-.1.44l-.1 1.54v.08a1.59 1.59 0 0 1-.11.49c.16-.02.1.18-.02.4l-.12-.05c-.2.38-.36.36-.45.33-.1-.03-.18-.03-.5.1l.05-.1c-.04.1-.1.2-.16.28-1.22.26-.68-.26-2.13.08.58-.02.27.27-.44.22l.18-.12c-.4.03-.53.08-.8.05.23-.06.12-.17-.46-.15l.4-.15-1.1.22c-.85-.13-2.2.03-2.54-.14 0 0-1.82-.08-2.24.1.37-.12-.64-.16-.35-.3-.47.13-1.87.24-2.42.1l.1-.02c-2.06-.14-3.53.2-5.38.02.08.14-.9.07-.65.25-1.92.18-3.5-.38-4.2.2-.87.03-1.03-.13-1.48-.16l.2-.03c-1.63.05-2.1.05-3.32.04-.6.06-.7.32-1.8.26.35-.1-.1-.1-.5-.1.26-.02.34-.06-.2-.13-.07.03-.2.05-.3.07 0-.01-.03-.01-.01-.03-.68.04-.56.07-.24.08-.02.02.01.04.1.07-.7-.14-1.96.01-2.04-.17-2.04.04-3.5.23-5.2.3-.2-.1.2-.18.7-.2l-1.2.03c.01-.13.7-.08 1.06-.1-1.43-.22-2.95.22-4.63.02l-.35.1-.1-.02c.01.06-.37.13-.62.15-.24-.12.02-.27-.8-.26-.66-.1-1.87.06-2.73.12.46.02.3.08.1.13-.42 0-.65-.1-.98-.06l-.04-.16c.16.15-1.1.16-1.24.22-.24-.12.64-.1.75-.2l-2.5.02c-.9.12.16.15-.26.3-.8.03-1.55.14-2.45.05l.3.14c-1.47.1-2.36.1-3.35-.05l-1.24.14h-.01c-1.1.2-1.96-.4-2.4-.93-.46-.55-.62-1.06-.7-1.37-.18-.53-.33-.43-.43.1-.12.6.14 1.66.72 2.34a3.46 3.46 0 0 0 .86.77c.25.17.43.24.43.24a3.41 3.41 0 0 0 1.63.33h-.1c3.67.18 5.94-.17 10.64-.27 4.53.07 5.73.34 10.42.23 2.24.02 4.62-.04 6.8-.07 1.04-.2 2.87 0 4.1-.18l.48.12c.42-.06.92-.1 1.35-.04l-.03.03c.63-.1 1.35-.04 1.66-.08l-.03.04.77-.02-.13.05c1.1-.1 2.24-.1 3.24-.06l-.08-.15c2.14.16 2.92-.14 4.86.05l-.03.04c2.44-.38 3.86.26 6.38-.1-.3.05.13.07.1.1 1.16-.04 2.4-.06 2.42-.35.85 0 .7.1.8.2 0-.12.73-.18 1.4-.18l-.3.05 1.42-.03c.16-.01.4-.01.6-.06-.17-.05-.33-.12-.48-.2.6 0 .7.01.78.05.08.03.18.1.72-.2l-.1-.17c.6-.3 1.03-.7 1.37-1.15.34-.45.57-1 .6-1.68v.06a12.16 12.16 0 0 0 .1-.74v-1.24h.02l-.01-1.07v-.86l-.02-.88-.03-.98a3.84 3.84 0 0 0-.27-1.17 3.23 3.23 0 0 0-1.4-1.58 2.96 2.96 0 0 0-1.37-.37c-.04 0-.07.01-.1.01.2-.38.3-.75.4-1.1a9.27 9.27 0 0 0 .23-1.33c.1-.95-.4-1.86-.97-2.25-.42-.35-.7-.53-.93-.67s-.36-.25-.5-.34c-.3-.2-.62-.38-1.62-.66a24.23 24.23 0 0 0-.73-.35c-.76-.26-.67-.1-1.34-.32.1-.53 0-1.14-.5-1.64-.25-.26-.55-.5-.9-.63l-.7-.27-1.1-.4c-.4.06-.92-.38-1.38-.37l-.1-.17c-.16 0-.33-.03-.45-.14l.02-.03c-.24 0-.45-.14-.56-.14l.02-.03-.25-.1.06-.03a3.17 3.17 0 0 1-1.06-.37l-.03.15c-.63-.43-1-.26-1.54-.7l.02-.03c-.93.03-1.14-.75-2.1-.74.12 0-.01-.1.01-.12-.4-.1-.8-.26-.9 0-.4-.15-.32-.18-.35-.3-.03.15-.4.01-1 .3.08-.06.16-.1.24-.15-.27.07-.57.32-.7.58-.13.25-.14.47-.14.65a1.95 1.95 0 0 1 .25-.18c-.04.14-.06.2-.1.25v-.1c-.1.07-.2-.03-.2.22l.2.03c0 .02-.01.03-.02.05-.6-.2-1.2-.38-1.85-.64.44.2 1.03.4.62.3l-1.27-.5v-.03l.18.03-.17-.07.1-.57a2.01 2.01 0 0 0-.16-1.29c-.13-.18-.28-.38-.47-.57-.2-.18-.44-.33-.72-.47l-.3-.15-.23-.1a1.6 1.6 0 0 0-.44-.14l-.14-.2c-.2-.03-.42-.1-.56-.24l.03-.03c-.3-.05-.56-.24-.7-.26l.03-.03-.32-.14.08-.02a5.46 5.46 0 0 1-1.34-.6l-.03.15c-.8-.58-1.24-.47-1.94-1.03l.03-.03c-1.16-.15-1.44-1-2.62-1.2.15.02-.02-.1.01-.12l-.36-.15c-.17-.07-.38-.16-.54-.2-.33-.12-.53-.12-.54.04-.5-.17-.42-.2-.5-.34.01.07-.07.1-.22.12a2.07 2.07 0 0 0-.41.15c0-.02.01-.04.01-.06l.1-.75c.25-1.4.56-2.83.87-4.2l3.4-13.78-.1.44c.87-3.65 1.25-4.7 2.32-8.74l.15-.45c.98-3.97 3.2-11.48 4.06-14.67l.12-.2 2.2-7.83-.85 2.92c.1-1.06 1.8-5.9 3.3-11.6 1.54-5.3 2.7-10.88 4.34-16.37.66-2.66-.52 2.36.53-1.6.13-.1-.46 1.85-.1.86 1.04-3.88 1.87-6.3 3.1-11.1l.12-.18 2.28-8.77c.34-1.35.66-2.64.9-3.87l.7-3.4c1.48-6.48 1.23-4.3 2.8-11.04l.44-1.47.77 6.63c.3 2.34.5 2.7.95 6.9-.22-1.35-.01.37.17 1.94-.13-1-.18-1.3.01.76.05.3.12.74.17 1.16 0 .02 0 .1-.01.06.32 2.63.3 2.16.16.94.02.06.02-.04-.01-.42.1 1.36.34 3.3.5 4.85.13 1.6.2 2.9.16 3.07l1.54 20.2c0 .75-.17-.8-.33-2.7l.38 4.68c-.08-.03-.26-2.7-.38-4.13.3 5.6 1.03 11.5 1.65 18.02l.22 1.35.04.4c.02-.01.08.35.16.83l.23 1.57c.05.93-.17-.04.24 3.18.25 2.56.95 7.23 1.4 10.56-.2-1.8-.1-1.22.02-.45.2 1.6.25 2.55.44 3.8l-.06.13c.1.2.62 4.28.72 4.82.05.93-.37-2.5-.48-2.88l1.23 9.68c.5 3.43.01-.64.3 1l1.22 9.5-.06-1.12 1.6 12.95c-.04.74-.16 1.46-.3 2.15-.38-.2-.7-.4-1.18-.4-.24.03.63.37.05.24-.1-.04-.2-.08-.3-.13-.14.3-.3.7-.48 1.15l-.46 1.23c.15-.01.1.14.08.3l-.12-.02c-.02.66-.33.15-.38.8l.13.16c.07.62-.34.22-.2.93.05-.25.3-.04.16.25l-.1-.1c-.02.17.01.24-.05.34-.03-.12-.15-.1-.2.15l-.1-.2.08.52c-.1.1-.23.58-.32.9-.1.35-.2.65-.32.8 0 0-.14.4-.26.8.37.1.77.18 1 .15-.38.01.34.26.02.3.28 0 .8.07 1.18.16-.13.68-.24 1.34-.32 1.95-.22 1.57-.3 2.92-.16 4 .07.68.28 1.25.55 1.65-.07.05-.12.1-.1.15-.52.16-.7.27-.82.3s-.12-.02-.2-.03c.07.1-.7.68-1.04 1.5a4.05 4.05 0 0 1 .14-.37c-.33.54-.48 1.2-.43 1.84v-.05l.01.44.24-.37c-.07 1-.3.25-.23 1.22l.2-.01-.04.83c-.08 0-.16 0-.24.01l.07 1.73c.01.13.01.25.02.38.01.1.01.17.02.25.02.15.03.3.05.43.07.53.15.9.24 1s.2-.02.35-.5c.1-.35.24-1.1.38-1.7l1.58.2c3.2.05 6.55-.1 9.8-.16.67.05 1.32.1 1.95 0-.05.02-.08.1-.37.1.93-.04 2.2-.1 2.28.07l3.2-.03.14.1c.06.13.6-.02 1.06-.1.2-.01.36-.01.54-.02.01.01.03.01.04.01l.12-.02c.23-.01.45-.03.67-.04.14.03.25.06.04.1.56.01.57-.03.97-.1l.6.13c2.2.1 4.08-.15 6.4-.1 2.8.27 8.03.02 11.05-.12.62-.05 1.25-.06 1.9-.07.4.1.53.24 1.52.08l.58.17c.64.03.46-.2 1.17-.12-.04.1.9.08.48.2.97.1 1.96 0 3.05-.04.66.03 1.32.05 1.98.05.13.01.25.02.38.04.03-.01.08-.02.1-.04a30.06 30.06 0 0 0 2.35-.08c.12.03.38-.02.47-.05.3.02.42.05-.12.14-.1.02-.3.01-.27-.02l-.14.12c1.2.23 2.2-.13 3.4-.1-.36-.04-.83-.03-.5-.1l1.12.02-.23.1 1.66.06-.23-.13c.4.03.7.1.96.14.05.04.05.05.2-.04.16-.08.01-.14.1-.18h.16c-.03.16-.07.32-.1.44l-.1 1.54v.08a1.59 1.59 0 0 1-.11.49c.16-.02.1.18-.02.4l-.12-.05c-.2.38-.36.36-.45.33-.1-.03-.18-.03-.5.1l.05-.1c-.04.1-.1.2-.16.28-1.22.26-.68-.26-2.13.08.58-.02.27.27-.44.22l.18-.12c-.4.03-.53.08-.8.05.23-.06.12-.17-.46-.15l.4-.15-1.1.22c-.85-.13-2.2.03-2.54-.14 0 0-1.82-.08-2.24.1.37-.12-.64-.16-.35-.3-.47.13-1.87.24-2.42.1l.1-.02c-2.06-.14-3.53.2-5.38.02.08.14-.9.07-.65.25-1.92.18-3.5-.38-4.2.2-.87.03-1.03-.13-1.48-.16l.2-.03c-1.63.05-2.1.05-3.32.04-.6.06-.7.32-1.8.26.35-.1-.1-.1-.5-.1.26-.02.34-.06-.2-.13-.07.03-.2.05-.3.07 0-.01-.03-.01-.01-.03-.68.04-.56.07-.24.08-.02.02.01.04.1.07-.7-.14-1.96.01-2.04-.17-2.04.04-3.5.23-5.2.3-.2-.1.2-.18.7-.2l-1.2.03c.01-.13.7-.08 1.06-.1-1.43-.22-2.95.22-4.63.02l-.35.1-.1-.02c.01.06-.37.13-.62.15-.24-.12.02-.27-.8-.26-.66-.1-1.87.06-2.73.12.46.02.3.08.1.13-.42 0-.65-.1-.98-.06l-.04-.16c.16.15-1.1.16-1.24.22-.24-.12.64-.1.75-.2l-2.5.02c-.9.12.16.15-.26.3-.8.03-1.55.14-2.45.05l.3.14c-1.47.1-2.36.1-3.35-.05l-1.24.14h-.01c-1.1.2-1.96-.4-2.4-.93-.46-.55-.62-1.06-.7-1.37-.18-.53-.33-.43-.43.1-.12.6.14 1.66.72 2.34a3.46 3.46 0 0 0 .86.77c.25.17.43.24.43.24a3.41 3.41 0 0 0 1.63.33h-.1c3.67.18 5.94-.17 10.64-.27 4.53.07 5.73.34 10.42.23 2.24.02 4.62-.04 6.8-.07 1.04-.2 2.87 0 4.1-.18l.48.12c.42-.06.92-.1 1.35-.04l-.03.03c.63-.1 1.35-.04 1.66-.08l-.03.04.77-.02-.13.05c1.1-.1 2.24-.1 3.24-.06l-.08-.15c2.14.16 2.92-.14 4.86.05l-.03.04c2.44-.38 3.86.26 6.38-.1-.3.05.13.07.1.1 1.16-.04 2.4-.06 2.42-.35.85 0 .7.1.8.2 0-.12.73-.18 1.4-.18l-.3.05 1.42-.03c.16-.01.4-.01.6-.06-.17-.05-.33-.12-.48-.2.6 0 .7.01.78.05.08.03.18.1.72-.2l-.1-.17c.6-.3 1.03-.7 1.37-1.15.34-.45.57-1 .6-1.68v.06a12.16 12.16 0 0 0 .1-.74v-1.24c-.16-.07-.15-.07-.15-.07zm-7.6-12.5c.2.1.65.27.26.16.7.25.72.23 1.22.38.24.1.45.25.67.38 1.1.54 1.87 1.2 1.83 2.1 0 .47-.1 1.1-.24 1.6-.05.2-.3.64-.5.92-1-.15-2.1-.26-2.1-.26l-3.23-.2c.35-1.2.14-2.05.28-3.66.12-.6.24-1 .35-1.4.04-.13.07-.25.1-.38.26.06.47.1.53.17l.8.2zm-13.52-1.2c.01.04 0 .1-.04.1l.1.07c.3-.38 0-.78.1-1.18-.06.12-.08.28-.14.16l.08-.38.1.1.15-.56-.14.06c.1-.27.34-.33.2-.67-.08-.16-.2.24-.2-.06.15-.36.37-.9.48-1.36-.15.02-.12-.1-.13-.24h.13c-.02-.13-.01-.2.01-.25.24.16.62.2.66.4 0 0 .55.32.76.2-.16.06.14.23 0 .32.2-.06.7.03.8.23h-.04c.6.4 1.2.28 1.74.7.03-.14.3.06.3-.15.68.08.98.8 1.42.37.3.1.28.26.4.35h-.08a7.89 7.89 0 0 1 1.08.4c.22.03.35-.2.67 0-.15.05 0 .1.13.15-.1-.02-.13.01.01.14.04-.02.08-.02.12-.02 0 .01 0 .02-.01.03.23.05.2.01.1-.05.01-.01.01-.04-.01-.08.17.22.63.25.6.43.17.06.33.1.48.14.12.02.17.01.27.02.16.02.4.08.46.26-.1.07-.18.02-.26-.03.05.05.08.12.07.18-.13.03-.07-.1-.13-.13-.05.13-.06.18-.02.28l.03.1c.01.05.01.15 0 .23-.01.16-.04.32-.12.48l.1.14-.02.03c.06.01.1.15.12.24-.13.06-.27-.05-.3.24-.15.2-.04.65-.02.95.04-.16.1-.1.13-.02-.02.14-.15.2-.1.33l-.16-.01c.16-.03.1.4.16.46-.13.06-.07-.24-.15-.3l-.1.86c.07.32.16-.03.27.13-.01.27.06.55-.08.85l.15-.08c.03.52-.03.82-.22 1.14a14.92 14.92 0 0 0 .09.58c-2.07-.07-4.14-.07-7.18-.01a118.55 118.55 0 0 1-4.33-.15c.05-.1.16-.2.13-.48l.13.01c-.15-.52.3-.88.15-1.23-.02-.5.42-.27.26-.83l.2-.17c.06-.22-.18-.2-.06-.42.1.03.13-.3.2-.14.25-.53-.05-1.16.35-1.84-.18-.2 0-.54-.13-.68.1-.03.15-.76.27-.32zm-4.84 1c.47-2 .84-2.47 1.14-4.57l.14-.72 2.06.76c-.01.01-.01.02-.02.03-.4 1.9-.24 4.03-.87 5.75l-.16.05c-.22 0 .23.54.03.58l.06.22c-.05.05-.1.17-.14.06-.04.2-.01.2.04.35l-.17.18c-.1.37-.13.72-.15 1.08l-.03.55c-.02.2-.03.33-.1.7a65.32 65.32 0 0 0-2.58-.05c.58-1.7.42-2.8.75-4.97zm-10-11.15c-.15.03-.1-.14-.1-.3l.13.01c0-.2-.01-.18.01-.2.02-.01.05 0 .1.01.07.02.14.07.08 0l.07.07a2.28 2.28 0 0 1-.22-.22c-.1-.18-.03-.15.03-.1s.07.1.07-.13c-.06.04-.17-.38-.01-.26v.14c.05-.01.06-.05.1 0-.03.06 0 .2.06.2a.4.4 0 0 0-.03.15c.02-.07.06-.13.13-.18.03.05.01.06.1.1l.3.15c.2.1.37.18.4.3 0 0 .7.44.95.36-.2.03.2.27.01.33.25-.02.86.16 1.02.4h-.05c.77.54 1.5.54 2.18 1.07.03-.15.4.12.38-.1.86.22 1.24 1.04 1.78.67.37.15.36.33.53.45l-.1-.02.75.33c.1.05.2.1.28.14.07.04.15.08.24.13.1.01.4-.23.47.06-.14-.02-.07.06-.05.15-.04-.05-.07-.04-.12.08.04 0 .06.02.08.04-.01 0-.02.01-.03.01.02.13.05.1.08.04.02 0 .04 0 .07-.03a.51.51 0 0 0-.09.13c-.02.04-.05.22-.08.34s-.07.2-.14.2c-.14.9-.08 1.6-.16 2.36-.1.07-.15-.13-.15-.35l-.07.54c-.13-.03-.01-.32-.01-.5-.34.6-.05 1.35-.4 2.06l.07.17-.03.04c.06.01.1.2.1.3-.14.08-.26-.06-.33.3-.17.27-.1.84-.12 1.23.06-.2.1-.12.13-.03-.03.18-.17.27-.15.42l-.16-.01c.16-.04.06.5.1.6-.14.08-.04-.3-.12-.37l-.2 1.1c.04.42.16-.04.26.17-.04.35 0 .7-.17 1.1l.16-.1c-.02.67-.12 1.06-.34 1.48a14.25 14.25 0 0 0 .06 1.07c-.2 0-.43.01-.66.01-2.24-.02-4.63.04-6.82.07-1.04.2-2.87 0-4.1.18l-.48-.12c-.03 0-.06 0-.1.01.01-.04.02-.08.01-.1l.12-.04.03-.17.05-.26-.04.14-.03.07c-.07-.02-.1-.05-.08-.1a1.1 1.1 0 0 1 .12-.25c.1-.2.24-.44.2-.74.16-.52-.38-1.2-.1-1.73-.08-.3.17.28.16-.13.16.02.06.2.2.13.01-.4.3-.6.3-1.1h.13c-.08-.67.43-1.13.3-1.6.05-.66.46-.34.37-1.06l.22-.22c.1-.28-.15-.25 0-.55.1.04.17-.38.23-.17.32-.67.1-1.5.6-2.37-.15-.25.07-.7-.04-.88.1-.01.23-.94.3-.37.01.05-.02.13-.05.12l.1.1c.35-.48.1-1 .25-1.52-.08.15-.1.36-.16.2l.13-.5.08.13.23-.72-.15.07c.15-.34.4-.42.3-.87-.06-.2-.25.3-.2-.1.2-.44.5-1.13.68-1.73zm-4.57-212.56s.4 1.06 1.14 2.8c-.65-1.12-1.1-1.86-1.4-2.3.26-.07.38-.15.27-.25-.08-.08-.32-.16-.7-.25h.7zm-2.1.76c.1-.01.17-.03.25-.04.17-.02.34-.03.5-.05l.5-.06c.17 1 .83 2.8.83 2.8 1.57 4.37 2.9 6.4 5.58 11.2l1.42 2.74 1.14 2.15c.75 1.37 1.56 2.74 3.05 4.8 1.35 2 3.05 3.98 4.7 5.73.92.65 2.15 2.17 3.2 2.97l.27.44c.36.28.76.62 1.03 1h-.05c.54.4 1.03 1 1.3 1.2h-.04l.6.57-.13-.06c.9.76 1.75 1.6 2.47 2.4l.04-.16c1.5 1.73 2.3 2.1 3.6 3.7h-.04c2.1 1.57 2.7 3.1 4.85 4.73-.27-.2.05.15 0 .16.9.84 1.84 1.76 2.06 1.57.25.25.37.4.43.48.02.08-.03.1-.07.17.04-.04.14-.01.2.1.07.1.1.34.02.5v-.18c-.02.2-.12.37-.25.48l-.68.5.46-.04c-.9.56-.4-.08-1.18.56l.12.15c-1.22.83-2.1 1.1-3.33 1.8l-.84.6c-.1.06-.22.08-.35.05-.06-.01-.12-.04-.18-.07a.21.21 0 0 1-.07-.05l-.17-.18-.8-.8-3.14-3.27c-2.06-2.2-4.02-4.4-5.64-6.63l-.04-.28c.1-.22-1.2-.97-1.18-1.26l-.48-.44c-.08-.16-.28-.5-.05-.27-.36-.47-.4-.46-.7-.75l-.3-.58c-1.34-1.9-2.74-3.3-4.1-5.34-.74-1.27-1.92-3.02-3.1-4.8-1.17-1.78-2.33-3.6-3.14-4.98-2.38-3.82-3.7-8.92-5.6-13.08-.02-.15-.22-.5-.24-.48-.47-1.3-.92-2.64-1.34-3.97l-.9-2.8-.74-2.35c-.06-.18-.13-.35-.2-.52.1-.03.3 0 .45-.04zm-4.63.12c-.1.1 2.18.08 1.17.18.52.02 1.05.02 1.57.02l.22 1.24-.07-.1c.53 2.27.95 3.68 1.68 5.12-.2.33.58 1.82.68 2.36l-.04-.04c.68 1.26.8 2.8 1.5 4.02-.04-.04-.12-.04-.24-.33.4.92.96 2.16.84 2.3.9 2.2 2.26 5.25 3.16 6.5l-.1-.07c.53.7.53 1 1.05 1.82 0 .06.03.12.01.12.57.77 1.34 2.42 1.78 3.05l-.07.1c.3.55.66 1.08 1 1.6l-.35-.6c.4.05.57 1.33 1.48 2.38.66 1.1 1.95 1.8 2.58 2.98.47.44-.5-.32.12.4-.1.12-.33-.3-.3-.03.6.72.75 1.33 1.5 2.2l-.07.1c1.07 1.07 1.55 2.36 2.33 3 1.02 1.16.34 1.05 1.53 2.15l.26.6c.4.55.47.25.9.9-.1.03.54.8.18.52.96 1.44 2.4 2.54 3.68 4.44.48.24 1.14 1.18 1.5 1.35-.03.1 1.5 1.72.5.9-.08-.07-.2-.22-.18-.23l-.2-.03c.5.83 1.17 1.34 1.82 1.94l-.8.4c-.97.45-1.8.82-2.18.9l-2.12.9-1.3.55c-1.68-2.12-3.24-4.26-4.53-6.4l-.03-.3c.1-.22-1.2-1.2-1.16-1.5l-.47-.53c-.08-.2-.27-.55-.04-.3-.35-.54-.4-.54-.7-.9l-.26-.66c-1.3-2.2-2.64-3.93-3.92-6.3-.7-1.47-1.78-3.52-2.88-5.6l-2.96-5.8c-2.3-4.4-3.67-10.04-5.68-14.67-.03-.16-.23-.54-.26-.53l-1.45-4.4-.7-2.2-.67-2.16-.36-1.18-.06-.2c.25-.01.57-.01 1.08.01zm-6.88-.68l.77-.02c.36.07.84.15 1.46.23l1.1.13.3.03.2.04c.14.03.27.05.4.08.04.38 0 .5.14 1.23l-.08-.1c.58 2.5 1.04 4.04 1.8 5.65-.2.35.62 2 .73 2.6l-.04-.05c.7 1.4.88 3.1 1.6 4.44-.04-.05-.13-.05-.25-.37.4 1.02 1 2.4.87 2.53.95 2.43 2.3 5.83 3.2 7.27l-.1-.1c.53.8.52 1.12 1.03 2.06 0 .06.02.14.01.13.57.88 1.27 2.75 1.7 3.5l-.08.1a40 40 0 0 0 .91 1.86l-.32-.7c.4.1.5 1.5 1.37 2.75.6 1.28 1.88 2.23 2.45 3.58.46.54-.5-.42.1.43-.12.1-.32-.38-.3-.08.57.85.68 1.54 1.4 2.58l-.08.1c1.03 1.3 1.46 2.75 2.22 3.56 1 1.37.3 1.16 1.46 2.5l.24.67c.4.65.47.34.87 1.08-.12.02.53.92.17.57.93 1.67 2.4 3.03 3.65 5.2.5.3 1.15 1.4 1.52 1.62-.03.1 1.53 2 .5 1-.1-.1-.2-.26-.18-.27l-.2-.06c.34.64.76 1.12 1.2 1.6.2.23.43.46.65.68.13.12.2.23.2.38.02-.17-.12-.4.03-.28a.78.78 0 0 1 .03.6c-.02-.05-.05-.1-.07-.14-.06.27-.25.5-.52.6.05.02.12.04.17.05-.05.03-.1.04-.16.05-.1.03-.2.05-.28.08l-.5.14c-.32.1-.65.23-1.1.52-.4.28.9-.2-.01.24-1.2.42-3 1.05-4.5 1.66.2.07-.2.24-.6.44l-.1-.1c-1.5.84-.7 0-2.2.8l.1-.14-.1.14-.2.28c-.16.1-.3.18-.42.25-.12.06-.12.06-.17.07-.08.02-.13-.01-.18-.03-.1-.07-.18-.03-.65-.1.16.1.18.16.1.2-.08.04-.3-.01-.46-.2h.17c-.2-.17-.24-.16-.4-.48.2.2.22.04-.1-.53l.34.32-.78-1c-.34-.92-1.16-2.25-1.18-2.7 0 0-.82-1.94-1.2-2.3.28.34-.16-.74.1-.5-.35-.44-1.1-1.88-1.23-2.53l.06.1c-.83-2.25-1.8-3.7-2.45-5.76-.1.15-.45-.94-.52-.6-1-2-1.16-3.92-1.98-4.46-.4-.94-.3-1.17-.47-1.67l.12.2c-.72-1.76-.93-2.28-1.4-3.6-.3-.64-.58-.66-.94-1.87.24.35.04-.13-.1-.57.12.28.18.35.04-.25-.06-.07-.12-.2-.18-.3.01-.01 0-.03.02-.02-.28-.74-.27-.6-.17-.24-.02-.01-.03.02-.02.14-.13-.82-.72-2.16-.58-2.3-.77-2.24-1.43-3.8-2.03-5.7.03-.24.23.18.42.72l-.4-1.34c.13-.02.3.75.43 1.16-.24-1.66-1.14-3.25-1.4-5.2l-.2-.37-.01-.12c-.05.02-.24-.4-.32-.66.05-.3.27-.05.04-.98-.06-.77-.57-2.1-.83-3.07.1.53 0 .38-.1.16-.1-.47-.05-.77-.18-1.12l.14-.08c-.1.22-.43-1.2-.52-1.36.06-.3.25.7.37.8l-.6-2.85c-.32-1-.1.2-.34-.25-.2-.9-.47-1.75-.57-2.8l-.08.35c-.4-1.68-.57-2.7-.6-3.86-.7-2.82-1.13-4.5-1.42-5.4.13.01.25.03.4.04-.1-.46-.13-.7-.13-.7zm-3.33.54c1.22-.04 1.87-.01 2.36.04-.05 1.15.13 3.03.13 3.03.44 5.1 1.3 7.62 2.66 13.5 1.1 5.2 1.2 6.64 2.8 11.93.72 2.53 1.64 5.2 2.52 7.62.6 1.08 1.14 3.2 1.83 4.46l.1.56c.23.44.48.97.6 1.46l-.04-.02c.35.66.6 1.46.78 1.78l-.04-.02.35.83-.1-.13a39.89 39.89 0 0 1 1.47 3.5l.1-.14c.8 2.38 1.44 3.1 2.16 5.27l-.04-.01c1.16 1.92 1.5 3.43 2.33 5.18a64.71 64.71 0 0 1-4.62 1.18c.23.1-2.06.58-1.46.62-.4.1-.76.18-1.13.27-1.22-2.7-2.32-5.4-3.15-8l.04-.3c.15-.18-.9-1.5-.8-1.8l-.34-.65c-.04-.2-.14-.62.03-.3-.2-.63-.25-.64-.47-1.07l-.1-.72c-.76-2.53-1.72-4.57-2.44-7.25-.35-1.63-.96-3.95-1.56-6.3-.58-2.36-1.1-4.74-1.44-6.54-1.13-5-1.16-11-2.24-16.12.01-.17-.12-.6-.14-.6l-.6-4.75-.88-6.47c.43.01.9-.01 1.34-.05zm-7.07-.54l.8-.03c.36.06.83.12 1.45.2l1.1.1c.35.04.6.08.85.13l-.03.58c0 .1-.01.2-.02.3 0 .16.01.33.01.5l-.06-.1c.2 2.62.4 4.26.86 6.03-.25.32.25 2.14.24 2.76l-.03-.05c.43 1.56.26 3.3.68 4.8-.03-.06-.1-.08-.17-.43.2 1.1.48 2.62.32 2.73.43 2.65.9 6.37 1.44 8.03l-.06-.1c.33.94.22 1.25.48 2.32-.01.06-.01.14-.02.13.34 1.02.52 3.07.76 3.92l-.1.08a37.19 37.19 0 0 0 .43 2.1l-.14-.8c.37.2.13 1.63.7 3.1.3 1.43 1.33 2.7 1.58 4.18.33.65-.4-.54 0 .46-.15.08-.23-.45-.28-.15.37 1 .33 1.7.8 2.92l-.1.1c.72 1.55.82 3.1 1.4 4.1.66 1.62.04 1.23.87 2.87l.08.72c.24.74.4.45.6 1.3-.12-.01.3 1.05.03.6.54 1.9 1.63 3.62 2.36 6.1.4.44.8 1.68 1.1 2-.06.1 1 2.4.26 1.13-.06-.1-.15-.3-.1-.3l-.18-.1c.36 1.43 1.2 2.43 1.73 3.7-.1-.36-.38-.92-.14-.6.08.2.2.46.24.57.04.1.06.2.05.3-.03-.04-.07-.07-.1-.1a.46.46 0 0 1-.28.49c.04.02.08.05.13.06-.08.04-.14.03-.2.02-.03-.02-.27-.01-.43-.01-.35.01-.7.05-1.25.22-.48.17.94.04-.08.22-1.3.1-3.27.24-4.94.44.17.12-.27.18-.73.27l-.07-.12c-1.74.42-.68-.18-2.4.2l-.28.22c-1.28.4-1.04.04-1.9.24l-.08.02c-.06.03-.12.07-.2.1.1.01.13.07.1.13s-.2.12-.36-.02c.05-.02.1-.03.14-.06-.16-.06-.26-.12-.32-.27.14.1.15-.02.06-.3.06.08.13.08.2.13-.1.01-.27-.58-.42-.96-.06-1.03-.5-2.58-.42-3.02 0 0-.3-2.16-.55-2.63.18.4.03-.78.22-.46-.22-.54-.58-2.17-.53-2.85l.03.12c-.2-2.46-.75-4.16-.8-6.4-.13.12-.17-1.06-.33-.75-.4-2.27-.01-4.2-.65-5-.12-1.04.04-1.25.02-1.8l.05.25c-.2-1.95-.25-2.52-.33-3.98-.1-.72-.38-.82-.4-2.13.13.4.08-.12.05-.6.04.3.08.4.1-.24-.04-.1-.07-.23-.1-.36.01-.01.01-.03.02-.02-.1-.8-.1-.67-.1-.3-.02-.02-.04.02-.06.13.08-.85-.16-2.35.02-2.47-.2-2.45-.48-4.18-.67-6.22.08-.23.2.24.26.83l-.12-1.44c.13 0 .12.83.18 1.27.12-1.73-.42-3.54-.33-5.57l-.13-.4.01-.12c-.06.01-.16-.44-.2-.74.1-.3.27.01.2-1 .07-.8-.18-2.24-.3-3.27.01.56-.07.38-.12.14-.03-.5.07-.8 0-1.18l.16-.06c-.14.2-.23-1.3-.3-1.48.1-.3.14.77.23.9l-.17-3c-.17-1.06-.14.2-.3-.3-.08-.94-.23-1.86-.2-2.95l-.12.35c-.2-1.77-.23-2.83-.14-4.03-.4-3.06-.7-4.83-.94-5.77.13 0 .27-.01.4-.02l-.02-.55zm-8.12.1c1.43-.15-1.26.24.88.12.07.16-1 .1-.45.23 2.1-.08 3.44.15 6.03.04l.1.12c.18-.01.36-.01.54-.02-.12 1.16-.1 3.03-.1 3.03-.07 5.22.47 7.9.9 14.08.2 5.45.02 6.9.45 12.55.13 2.7.37 5.57.58 8.2.3 1.24.24 3.46.53 4.92l-.08.58c.1.5.2 1.1.16 1.62l-.04-.03c.15.75.18 1.62.25 2l-.04-.03.1.92-.06-.15c.2 1.32.35 2.7.43 3.9l.13-.12c.12 2.6.54 3.5.66 5.85l-.04-.03c.67 2.45.52 4.12 1.02 6.38-1.15.16-2.17.27-3.65.38-1.44.2-1.65.47-4.25.64.83-.18-.23-.05-1.2-.03.62-.04.8-.1-.47-.1-.18.04-.45.07-.7.1-.01-.01-.06-.01-.04-.02-.13.01-.24.02-.35.02-.08-3.47-.13-6.87.04-10.04l.15-.28c.2-.12-.32-1.75-.12-2l-.1-.74c.04-.2.08-.64.13-.28.01-.68-.03-.7-.1-1.2l.13-.73c.1-2.7-.17-4.98-.12-7.82.26-3.4.01-9.8-.17-13.5-.37-5.2.28-11.26-.34-16.56.02-.17-.07-.62-.1-.6l-.22-4.86-.2-3.4-.26-3.12zm1.3 65.3h-.02.02zm-8.5-43.8c.17-.8.1-2.28.12-3.34-.06.56-.1.38-.14.13.03-.5.17-.8.14-1.2l.16-.04c-.16.2-.07-1.34-.12-1.53.14-.28.05.8.12.93l.2-3.05c-.05-1.1-.16.2-.27-.34.03-.96-.01-1.9.15-3l-.16.34c.01-1.8.1-2.88.3-4.08-.08-3.1-.2-4.93-.33-5.9l.4-.03.03-.53.82.01c.26.06.56.12.95.2l2 .3.63.1c.13.03.26.05.4.08l.18.04c.06.01.12.02.1.12-.02.14-.04.28-.05.43l-.05-.04c0 .1-.01.1 0 .25 0 .16.01.3.01.47l.03.87.08 1.56a26.38 26.38 0 0 0 .33 2.76c-.27.3.1 2.18.02 2.8l-.03-.06c.3 1.6-.02 3.34.24 4.9-.03-.06-.1-.1-.13-.45.1 1.13.2 2.7.05 2.78.15 2.7.18 6.5.48 8.24l-.05-.12c.2 1 .05 1.28.16 2.4-.02.06-.03.14-.04.13.2 1.08.05 3.15.13 4.02l-.1.06.03 2.15.02-.8c.3.28-.2 1.63.01 3.2-.03 1.46.64 2.97.5 4.5.15.73-.23-.64-.12.44-.16.03-.1-.5-.23-.23.08 1.06-.16 1.74-.05 3.05l-.12.05c.23 1.7-.16 3.23.06 4.37.1 1.77-.37 1.18-.12 3.02l-.17.7c-.03.8.2.57.13 1.44-.1-.05-.08 1.1-.18.6-.16 1.97.25 4-.03 6.6.2.57.1 1.87.24 2.3-.1.07-.01 2.62-.2 1.15-.02-.13-.01-.35.02-.33l-.12-.18c-.23 1.48.13 2.7.1 4.16.04-.43.03-1 .1-.62l-.01 1.36-.1-.3-.01.5c0 .07-.01.08-.03.1-.01.02-.07.1-.1.13s-.05.04-.08.05c.04.03.07.05.12.07-.06.03-.12.03-.16.01l-.06-.03c-.01-.01-.14-.02-.2-.03-.34-.04-.7-.06-1.26.01-.5.1.94.2-.1.2-.67-.06-1.53-.12-2.44-.13-.84 0-1.72-.06-2.56-.1.15.15-.3.13-.76.14l-.05-.13c-1.8.1-.64-.3-2.42-.25l.16-.08-.48.23c-.8.08-1.02 0-1.26-.06-.12-.03-.24-.06-.45-.07-.1 0-.23 0-.4.01-.08.01-.16.02-.26.02-.1.01-.07.03-.12.05.04 0 .07.01.15.04.05.03.04.06-.02.1-.1.06-.23.14-.4-.01a.31.31 0 0 0 .13-.06c-.16-.06-.23-.1-.27-.23.13.1.14-.04.1-.24.05.04.1.07.17.1-.06-.05-.1-.1-.13-.14-.02 0-.02-.12-.01-.24l.01-.34c.32-1 .48-2.63.72-3.02 0 0 .5-2.17.42-2.7.03.46.3-.74.37-.37-.02-.6.2-2.3.47-2.93l-.01.13c.62-2.45.63-4.27 1.23-6.47-.16.07.14-1.1-.1-.83.27-2.33 1.18-4.13.78-5.06.17-1.05.37-1.22.5-1.75l-.02.25.57-4.06c.03-.75-.2-.9.01-2.2.06.44.1-.1.15-.6-.02.32.01.42.15-.22-.02-.1-.03-.24-.03-.37.01 0 .02-.03.03-.02.05-.83 0-.7-.05-.3-.01-.02-.04.01-.08.12.24-.84.23-2.4.42-2.47.2-2.5.16-4.28.27-6.35.1-.22.15.27.14.87l.1-1.47c.13.02.01.85 0 1.3.36-1.73.08-3.62.43-5.65l-.07-.43.03-.12c-.06 0-.1-.46-.1-.77.14-.22.27.1.33-.9zm-8.27-.64c.24-1.4.42-2.88.15-2.95.17-1 .22-.8.35-.92-.12-.01-.06-.9.05-1.7v.37l.25-2.28-.28.42c.2-1.2.32-.27.4-1.44h-.2c.2-1.66.6-2.62.83-4.24a51.84 51.84 0 0 0 .14-3.54c.01-.6 0-1.2-.02-1.8l-.03-.9-.06-1.12c-.01-.1-.02-.22-.02-.32 1.18.04 3.04.2 5.07.07a23.63 23.63 0 0 0 1.19-.03c-.23 1.16-.4 2.94-.4 2.94-.63 5.25-.4 8-.72 14.27-.47 5.5-.84 6.95-1.2 12.65l-.73 8.26c.07 1.28-.4 3.47-.46 4.93l-.2.54c-.01.5-.1 1.12-.26 1.6l-.03-.04c-.06.77-.28 1.62-.3 2l-.03-.04-.16.92-.02-.17c-.16 1.34-.42 2.7-.7 3.9l.16-.07c-.66 2.54-.54 3.53-1.18 5.8l-.03-.04c-.18 2.8-1 4.36-1.3 7.05-3.26-.3-6.74-.4-10.5-1.14l-.84-.06-.23-.06c0 .06-.9-.04-1.5-.14-.5-.2 0-.25-1.46-.55a82 82 0 0 0 3.76-8.21c1.05-2.5 2.05-5.2 2.95-7.7.24-1.25 1.2-3.26 1.52-4.72l.3-.5c.1-.5.26-1.1.5-1.55l.02.04c.16-.75.5-1.55.56-1.93l.02.04.27-.9v.17a46.35 46.35 0 0 1 1.13-3.75l-.17.05c.9-2.43.9-3.43 1.66-5.65l.03.04c.18-1.48.53-2.6.84-3.74.33-1.14.65-2.3.74-3.83-.01.43.12-.1.15-.06zm-1.8 44.16c.03-.1 1.13-.02 2 .03 0 .02-.01.05-.01.07l-2-.1zm2 .13c-.01.05-.01.1-.02.15l-.8-.03c-.33-.08.1-.12.8-.12zm-33.27-7.95c-.87-.42-1.8-.83-2.7-1.4.18.15.35.32.53.45-1.57-.82-2.8-1.52-3.9-2.18-1.05-.72-1.97-1.37-2.92-2.1-.04-.03-.08-.06-.13-.1.67-.72 1.4-1.4 1.9-2.18-.02.06.03.13-.17.37.6-.8 1.43-1.88 1.6-1.83 1.48-1.87 3.6-4.42 4.32-5.8l-.03.1c.4-.8.67-.9 1.2-1.73.05-.03.1-.08.1-.06.44-.86 1.66-2.2 2.05-2.86l.12.03 1.1-1.52-.44.55c-.1-.38 1-1.02 1.66-2.24.8-1 1.03-2.46 1.9-3.46.24-.6-.13.6.32-.25.15.07-.17.42.07.3.47-.8 1-1.17 1.56-2.18l.13.03c.6-1.4 1.64-2.33 1.97-3.3.66-1.4.83-.73 1.4-2.26l.45-.47c.33-.6.04-.54.45-1.2.07.1.5-.83.4-.38.47-.74.8-1.56 1.14-2.46.36-.9.74-1.83 1.3-2.85 0-.54.54-1.56.5-1.97.1-.03.8-2.17.54-.88-.02.1-.1.3-.12.27l.06.2c.68-1.15.66-2.3 1.1-3.5-.16.35-.3.84-.28.5.13-.38.26-.76.37-1.14l.03.27.56-1.7-.2.2c.3-.82.58-1.08.66-2.08.01-.46-.37.76-.18-.14.36-1.12.88-2.8 1.16-4.3-.16.08-.1-.16-.03-.97l.14-.1c.01-.1.01-.18.02-.27.72 0 1.44.02 2.62-.04.12.02.27.03.25.04 1.08-.1 2.65-.1 4.17-.1l-.1.96-.2 1.5a40.72 40.72 0 0 1-.58 2.88l-.2.24c-.23.07-.02 1.73-.26 1.92l-.06.72c-.08.2-.22.6-.18.24-.15.65-.12.67-.17 1.15l-.3.66c-.72 2.52-1.12 4.72-2 7.34-.66 1.53-1.46 3.78-2.32 6.04-.87 2.26-1.78 4.55-2.5 6.2-1.9 4.7-5.64 9.44-7.9 14.15-.1.13-.27.55-.25.56l-2.43 4.12s-2.95 4.98-4.63 8.17l-.44.86c-.7-.3-1.45-.66-2.2-1.02zm12.7 8.44c-1.05-.24.13.2-.4.17-.9-.28-1.8-.5-2.8-.93l.28.24c-1.73-.45-2.66-.98-3.7-1.55-1.57-.54-2.8-.87-3.75-1.22-.48-.25-.75-.68-.88-1.07-.12-.4-.12-.76-.07-1.04.08-.3.13-.48.15-.6.04.02.07.03.1.05-.07.3.01.37.3.13.05.02.1.04.14.06.1-.15.2-.3.28-.48.66-.7 1.8-2.12 3.6-4.56l-.02.13c1.44-2.2 2.3-3.6 3-5.28.4-.1 1.1-1.85 1.5-2.33l-.01.06c.6-1.5 1.8-2.76 2.4-4.2-.01.06.04.13-.13.44.52-1 1.23-2.36 1.4-2.35 1.28-2.36 3.18-5.6 3.72-7.27l-.01.13c.3-.96.57-1.14 1-2.17.05-.04.1-.1.1-.1.3-1.05 1.33-2.84 1.6-3.66l.12-.01.82-1.97-.34.72c-.18-.38.84-1.4 1.2-2.93.28-.67.4-1.4.53-2.15.1-.75.23-1.5.55-2.18.1-.72.01.67.26-.37.16.02-.07.5.14.3.3-1 .7-1.6 1-2.86l.13-.01c.3-1.68 1.06-3.03 1.14-4.18.32-1.72.67-1.04.83-2.88l.32-.66c.2-.76-.07-.6.17-1.42.1.07.3-1.06.3-.54.28-.95.38-1.95.5-3.02l.2-1.67c.04-.3.1-.58.14-.9.03-.2.04-.2.06-.24.02-.03.03-.06.05-.08-.04-.05-.06-.12-.08-.18.04-.04.16-.04.26-.06l.07-.01c.08-.01.15-.01.22-.02a1.22 1.22 0 0 0 .33-.06c.07.1 2.58.01 1.13.2-.12.02-.34.01-.33-.02l-.17.12c.73.12 1.4.08 2.05.03l.23-.02.04-.02c.03-.02.07-.03.1-.04.04-.01.08-.02.13-.03.01.03.01.07.01.1.01-.05.04-.15.01-.15-.02-.01-.03-.03.06-.07.06.08.02.26.03.42-.04-.03-.07-.05-.1-.07l-.01.2v.5l-.02.98.13-.27c-.06.96-.28 1.3-.12 2.4.1.5.2-.9.2.1l-.53 4.86c.16-.14.1.3.1.76l-.13.04c.01 1.76-.33.6-.38 2.35l.14.32c.06 1.6-.36.8-.26 2.58.07-.7.32-.28.15.55l-.1-.23c-.04.47-.02.63-.1.94-.02-.3-.15-.17-.24.5l-.07-.48.01 1.33c-.27.98-.45 2.57-.68 2.95l-.24 1.12c-.13.6-.25 1.25-.2 1.5-.02-.45-.32.7-.38.35.02.58-.28 2.22-.58 2.83l.02-.13c-.36 1.18-.58 2.2-.83 3.2-.24 1-.46 1.96-.88 3 .17-.05-.26 1.04.01.82-.5 2.25-1.64 3.86-1.37 4.83-.3 1-.53 1.13-.73 1.63l.05-.25a77.14 77.14 0 0 1-1.29 3.76c-.2.7.01.9-.5 2.1.05-.43-.12.07-.3.53.1-.3.1-.4-.2.17 0 .1-.03.23-.06.36-.01 0-.02.02-.03.01-.26.77-.17.65-.03.3.01.02.04 0 .1-.1-.42.74-.83 2.2-1.04 2.23-.85 2.3-1.35 3.97-2.07 5.88-.17.17-.07-.3.13-.85l-.53 1.34c-.12-.06.25-.8.4-1.2-.86 1.5-1.18 3.34-2.2 5.1l-.07.42-.07.1c.05.02-.06.46-.17.74-.23.2-.24-.13-.65.78-.43.67-.9 2.04-1.3 3 .27-.5.25-.3.18-.07-.22.43-.48.75-.53.88l-.13-.1c.1.01.03.17-.18.3-.2.14-.5.16-.57.18-.1-.07.04-.07.2-.1.16-.03.33-.12.34-.18a1.01 1.01 0 0 1-.59.09c-.06-.01-.1-.02-.13-.03-.07-.02-.13-.04-.2-.06-.24-.1-.47-.2-1.42-.52zm-17.24 152.4c-.12-.03-.08-.35-.01-.63v.14l.2-.8-.27.1c.2-.4.3-.02.37-.44l-.2-.05c.1-.28.25-.5.4-.7.18-.26.3-.25.37-.28.03-.07.05-.13.07-.2.07.02.13.03.2.04.1.02.06-.01.4.08l1.6.4c1.06.27 2.08.57 3 1l.05.17c-.02.22.7-.12.7.1l.28-.02c.06.06.2.14.06.15.23.08.25.05.43.04l.2.2c.9.38 1.74.38 2.7.72 1.08.62 3.33 1.05 4.63 1.3.93.12 1.85.54 2.77.96.46.2.92.42 1.4.6.2.07.4.14.62.2-.05.07-.1.14-.1.02-.06.24-.03.26-.01.45l-.2.23c-.3.86-.28 1.67-.5 2.57-1.52-.62-2.57-.55-4.6-1-1.88-.6-2.3-1-4.3-1.43-.93-.28-1.95-.5-2.88-.72-.5.08-1.2-.33-1.77-.3l-.17-.17c-.2.01-.4-.01-.57-.12v-.03c-.3.01-.57-.12-.72-.1v-.03l-.33-.07.07-.03c-.5-.04-.97-.16-1.37-.32v.15c-.85-.4-1.26-.2-2.02-.62l.02-.03c-.2.02-.38 0-.54-.03-.06 0-.1-.02-.14-.05-.08-.05-.1-.13-.13-.16.04-.07.02-.1-.06-.18.04.03.08-.02.12-.02-.01-.06-.02-.08.02-.35.01-.2-.02-.36-.16-.4.13-.37.2-.28.3-.3zm-1.27 9.4c-.3-1.25-.17-2.8.07-4.2.12-.67.26-1.3.4-1.88.34.07.6.16.63.23h-.05c.83.38 1.53.22 2.26.6 0-.15.4.04.34-.17.85.05 1.36.77 1.8.3.37.07.4.25.58.33h-.1c.7.14.9.2 1.4.35.27.02.38-.23.82-.04-.18.06.02.1.2.14-.1-.01-.16.01.05.14a.32.32 0 0 1 .14-.03c0 .01.01.02 0 .03.3.04.25 0 .13-.05.01-.01.01-.04-.03-.08.26.2.82.22.8.4.87.2 1.53.2 2.26.3.06.1-.13.15-.35.12l.5.1c-.04.13-.3-.01-.47-.02.54.38 1.3.14 1.95.52l.17-.06.04.03c.01-.05.2-.08.3-.07.07.14-.08.26.27.35.25.18.8.16 1.18.2-.2-.07-.1-.12-.01-.13.18.04.24.18.4.17l-.03.16c-.03-.16.5-.03.58-.07.07.14-.3.02-.36.1l1.05.27c.4-.01-.03-.16.2-.25.34.06.7.04 1.04.24l-.08-.17c.65.07 1 .2 1.4.44.2.01.4.01.58.01-.1.37-.18.77-.25 1.17l-.27 1.63c-.5.03-1.02.01-1.27.05l.03-.04h-.77l.13-.05c-1.1.1-2.24.1-3.24.06l.08.15c-2.14-.16-2.93.14-4.86-.05l.03-.04c-2.44.38-3.86-.26-6.38.1.3-.05-.13-.07-.1-.1-.58.02-1.18.04-1.64.08-.3.02-.54.08-.72.16-.37-.3-.68-.78-.8-1.44zm59.5 3.37c.2.3.33.7.36 1.14.03.37-.1 1.06-.18 1.7l-.05-.1c-.02.38-.03.4-.04.5l-.03.27c-.13-.01-.23-.01-.34-.01-.2.01-.38.01-.57.02-.55.03-1.07.08-1.6.16-.24-.3-1.8-.03-2.3-.12l.05-.02c-1.33.22-2.74-.18-4.02.01.05-.02.08-.1.37-.1-.93.04-2.2.1-2.28-.07-2.23.04-5.34-.03-6.77.23l.1-.05c-.8.18-1.05.03-1.96.12-.05-.02-.1-.03-.1-.04-.9.18-2.6.03-3.3.1l-.05-.1-1.77.03h.66c-.23.3-1.34-.2-2.62.01-1.2-.04-2.43.64-3.67.5-.6.14.52-.23-.36-.12-.03-.16.4-.1.2-.23-.87.08-1.43-.16-2.5-.06l-.04-.12c-1.4.23-2.64-.16-3.58.05-1.45.1-.97-.37-2.47-.13l-.6-.17c-.64-.03-.46.2-1.18.12.04-.1-.9-.08-.48-.2-1.62-.17-3.28.24-5.4-.04-.46.2-1.53.08-1.88.24-.06-.1-2.15-.01-.94-.2.1-.02.3-.01.27.02l.14-.12c-1.2-.23-2.2.13-3.4.1.36.04.83.03.5.1l-1.12-.02.23-.1-1.66-.06.23.13c-.8-.07-1.1-.28-2.02-.1-.42.1.77.17-.1.2l-1.94-.15-1-.07c-.06-.02-.1-.03-.16-.04-.06.08-.1.12-.16.14-.01-.02-.02-.05-.03-.1l.12-.1c-.04-.04-.05-.1-.03-.13.02 0 .05-.1.1-.16.07-.13.15-.27.08-1l-.17-.26a1.97 1.97 0 0 0-.03-.15v-.07c-.1-.3.01-.4.1-.48.1-.1.1-.17.27-.6-.2.3-.37-.07.08-.35l-.02.17c.2-.18.25-.26.42-.3-.12.13 0 .17.32.06-.06.07-.12.13-.17.2a1.27 1.27 0 0 1 .27-.18 1.32 1.32 0 0 1 .4-.13c.85.13 2.2-.03 2.54.14 0 0 1.82.08 2.24-.1-.37.12.64.16.35.3.47-.13 1.87-.24 2.43-.1l-.1.02c2.07.14 3.53-.2 5.38-.02-.08-.14.9-.07.65-.25 1.92-.18 3.5.38 4.2-.2.87-.03 1.03.13 1.48.16l-.2.03 3.02-.04c.96.12 1.92.22 2.83.06.06.03.23-.04.23-.06l1.8.04s3.33.06 4.3-.33l1.3-.08c.2.1-.2.18-.7.2l1.2-.03c-.01.13-.7.08-1.06.1 1.43.22 2.95-.22 4.63-.02l.33-.1h.04l.08.01s.01-.01.02-.01l.74-.01c.06.07.14.14.68.13.66.1 1.87-.06 2.73-.12-.16-.01-.24-.02-.28-.03l1.15-.01.03.14c-.08-.07.17-.1.46-.14h.7c-.2.04-.6.05-.68.1l2.5-.02c.3-.04.38-.07.36-.1h.9l4.4-.34c.32.03.62.06.87.1 2.98-.06 4.47-.17 5.08-.3.36.2.87.48 1.26 1.08zm-5.76-7.2c.2.1.65.27.26.16.7.25.72.23 1.22.38.24.1.45.25.67.38 1.1.54 1.87 1.2 1.83 2.1 0 .47-.1 1.1-.24 1.6-.05.2-.3.64-.5.92-1-.15-2.1-.26-2.1-.26l-3.23-.2c.35-1.2.14-2.05.28-3.66.12-.6.24-1 .35-1.4.04-.13.07-.25.1-.38.26.06.47.1.53.17l.8.2zm-13.52-1.2c.01.04 0 .1-.04.1l.1.07c.3-.38 0-.78.1-1.18-.06.12-.08.28-.14.16l.08-.38.1.1.15-.56-.14.06c.1-.27.34-.33.2-.67-.08-.16-.2.24-.2-.06.15-.36.37-.9.48-1.36-.15.02-.12-.1-.13-.24h.13c-.02-.13-.01-.2.01-.25.24.16.62.2.66.4 0 0 .55.32.76.2-.16.06.14.23 0 .32.2-.06.7.03.8.23h-.04c.6.4 1.2.28 1.74.7.03-.14.3.06.3-.15.68.08.98.8 1.42.37.3.1.28.26.4.35h-.08a7.89 7.89 0 0 1 1.08.4c.22.03.35-.2.67 0-.15.05 0 .1.13.15-.1-.02-.13.01.01.14.04-.02.08-.02.12-.02 0 .01 0 .02-.01.03.23.05.2.01.1-.05.01-.01.01-.04-.01-.08.17.22.63.25.6.43.17.06.33.1.48.14.12.02.17.01.27.02.16.02.4.08.46.26-.1.07-.18.02-.26-.03.05.05.08.12.07.18-.13.03-.07-.1-.13-.13-.05.13-.06.18-.02.28l.03.1c.01.05.01.15 0 .23-.01.16-.04.32-.12.48l.1.14-.02.03c.06.01.1.15.12.24-.13.06-.27-.05-.3.24-.15.2-.04.65-.02.95.04-.16.1-.1.13-.02-.02.14-.15.2-.1.33l-.16-.01c.16-.03.1.4.16.46-.13.06-.07-.24-.15-.3l-.1.86c.07.32.16-.03.27.13-.01.27.06.55-.08.85l.15-.08c.03.52-.03.82-.22 1.14a14.92 14.92 0 0 0 .09.58c-2.07-.07-4.14-.07-7.18-.01a118.55 118.55 0 0 1-4.33-.15c.05-.1.16-.2.13-.48l.13.01c-.15-.52.3-.88.15-1.23-.02-.5.42-.27.26-.83l.2-.17c.06-.22-.18-.2-.06-.42.1.03.13-.3.2-.14.25-.53-.05-1.16.35-1.84-.18-.2 0-.54-.13-.68.1-.03.15-.76.27-.32zm-4.84 1c.47-2 .84-2.47 1.14-4.57l.14-.72 2.06.76c-.01.01-.01.02-.02.03-.4 1.9-.24 4.03-.87 5.75l-.16.05c-.22 0 .23.54.03.58l.06.22c-.05.05-.1.17-.14.06-.04.2-.01.2.04.35l-.17.18c-.1.37-.13.72-.15 1.08l-.03.55c-.02.2-.03.33-.1.7a65.32 65.32 0 0 0-2.58-.05c.58-1.7.42-2.8.75-4.97zm-10.45-9.3c-.06-.2-.25.3-.2-.1.2-.46.5-1.15.66-1.75-.15.03-.1-.14-.1-.3l.13.01c0-.2-.01-.18.01-.2.02-.01.05 0 .1.01.07.02.14.07.08 0l.07.07a2.28 2.28 0 0 1-.22-.22c-.1-.18-.03-.15.03-.1s.07.1.07-.13c-.06.04-.17-.38-.01-.26l.01.14c.05-.01.06-.05.1 0-.03.06 0 .2.06.2a.4.4 0 0 0-.03.15c.02-.07.06-.13.13-.18.03.05.01.06.1.1l.3.15c.2.1.37.18.4.3 0 0 .7.44.95.36-.2.03.2.27.01.33.25-.02.86.16 1.02.4h-.05c.77.54 1.5.54 2.18 1.07.03-.15.4.12.38-.1.86.22 1.24 1.04 1.78.67.37.15.36.33.53.45l-.1-.02.75.33c.1.05.2.1.28.14.07.04.15.08.24.13.1.01.4-.23.47.06-.14-.02-.07.06-.05.15-.04-.05-.07-.04-.12.08.04 0 .06.02.08.04-.01 0-.02.01-.03.01.02.13.05.1.08.04.02 0 .04 0 .07-.03a.51.51 0 0 0-.09.13c-.02.04-.05.22-.08.34s-.07.2-.14.2c-.14.9-.08 1.6-.16 2.36-.1.07-.15-.13-.15-.35l-.07.54c-.13-.03-.01-.32-.01-.5-.34.6-.05 1.35-.4 2.06l.07.17-.03.04c.06.01.1.2.1.3-.14.08-.26-.06-.33.3-.17.27-.1.84-.12 1.23.06-.2.1-.12.13-.03-.03.18-.17.27-.15.42l-.16-.01c.16-.04.06.5.1.6-.14.08-.04-.3-.12-.37l-.2 1.1c.04.42.16-.04.26.17-.04.35 0 .7-.17 1.1l.16-.1c-.02.67-.12 1.06-.34 1.48a14.25 14.25 0 0 0 .06 1.07c-.2 0-.43.01-.66.01-2.24-.02-4.63.04-6.82.07-1.04.2-2.87 0-4.1.18l-.48-.12c-.03 0-.06 0-.1.01.01-.04.02-.08.01-.1l.12-.04.03-.17.05-.26-.04.14-.03.07c-.07-.02-.1-.05-.08-.1a1.1 1.1 0 0 1 .12-.25c.1-.2.24-.44.2-.74.16-.52-.38-1.2-.1-1.73-.08-.3.17.28.16-.13.16.02.06.2.2.13.01-.4.3-.6.3-1.1h.13c-.08-.67.43-1.13.3-1.6.05-.66.46-.34.37-1.06l.22-.22c.1-.28-.15-.25 0-.55.1.04.17-.38.23-.17.32-.67.1-1.5.6-2.37-.15-.25.07-.7-.04-.88.1-.01.23-.94.3-.37.01.05-.02.13-.05.12l.1.1c.35-.48.1-1 .25-1.52-.08.15-.1.36-.16.2l.13-.5.08.13.23-.72-.15.07c.16-.33.4-.4.32-.85zm42.75-15.85l-3.16-23.83-2.37-19.93c-.58-5.63-1.07-11.35-1.75-20.47l-1.1-16.7c-.08-1.12-.24-2.3-.36-3.37l-.76-6.48c-.6-4-1.28-11.13-1.93-15.88l-.1-1.13c.16-.75.23-1.2.78-3.17.01.2 1.1-4 .67-2.13 8.7-29.78 1.16-8.76-.27-3.58l-.36 1c-.25.4-1.5 6.43-1.84 7.3l-.65 2.7c-.22.75-.65 2.35-.34 1l-1.05 4.37-.75 2.66-1.7 7.2-1.57 6.95c-1.15 4.6-2.4 9.28-3.85 14.42l-13.8 49.02-3.98 14.66c-1.33 5.03-2.76 10.14-3.82 15.4-.12.67-.24 1.32-.3 2.03-.02.18-.02.36-.02.55.01.1.01.26.04.4.04.13.1.26.14.4.04.05.1.1.14.13-.02.03-.04.06-.05.1-.15.22-.3.43-.45.7-.57 2.16-.73 4.56-1.36 6.62-.37-.08-.78-.17-.77-.32-.94-.24-2.2-.72-2.88-.64l.05-.03c-.4.07-.45-.1-.85-.14-.01-.03-.04-.05-.03-.05-.42.06-1.08-.3-1.4-.32l.01-.1-.74-.2.27.1c-.2.26-.5-.35-1.1-.33-.5-.2-1.2.3-1.67-.01-.3.06.3-.16-.12-.16.04-.16.2-.04.14-.2-.38-.04-.55-.34-1.02-.37v-.12c-.65.04-1.05-.5-1.5-.4-.63-.1-.3-.48-1-.44l-.2-.24c-.26-.1-.25.14-.53-.03.05-.1-.35-.2-.15-.24-.62-.37-1.43-.2-2.24-.74-.25.14-.66-.12-.85-.01 0-.1-.9-.3-.33-.32.05 0 .12.02.1.06l.1-.1c-.44-.38-.95-.16-1.44-.35.14.08.34.13.18.17l-.46-.16.13-.07-.23-.1.06-.38.24-1.68.87-6.4 1.45-11.98 2.88-28.3c.5-5.2.82-9.44 1.38-13.17.5-3.74 1.1-7 1.7-10.3 1.25-6.56 2.68-13.2 5.08-23.73l1.76-7.65c.56-2.6 1.18-5.15 1.55-7.9.2-2.74.16-5.35.2-7.97l.03-7.72c-.1-4.57.01-12.46-.07-18.1.52-.02 1.03-.15 1.52-.46.26-.17.5-.4.7-.7.1-.14.17-.3.22-.4l.12-.25.7-1.38 5.22 1.1 5.56.78c1.02.16 2.1.23 3.3.3.3.02.62.03.92.05l-.08.6-.03.38a1.56 1.56 0 0 0 .01.49c.05.28.15.4.2.4.18.72.45.97.5 1.1.08.14.03.15.08.27.04-.06.33.18.82.3.6.1.9.02 1.33.06l-.37.03 2.3.08-.44-.26c1.22.13.3.3 1.47.3l-.01-.2c1.7.1 2.66.47 4.38.58.9-.03 1.66-.05 2.53-.04l1.3.02h.7a2.24 2.24 0 0 0 1.07-.3 2.48 2.48 0 0 0 .8-.74c.2-.27.33-.62.43-.98.01-.42-.01-.58-.01-.8l-.02-.66c-.01-.2-.01-.42-.02-.63l2.57-.13c1.25-.2 3-.37 4.78-.53l2.68-.26.94-.14.32 1.37c.07.27.14.5.22.64.07.17.2.36.25.32.23.66.48.88.54 1 .08.13.03.15.08.26.03-.05.24.1.6.23.36.14.9.2 1.37.07l-.06.01.35-.06-.34.1.06-.01h-.02l-.04.01 2.23-.36-.47-.17c1.2-.1.34.24 1.48.02l-.04-.2c1.66-.2 2.67-.04 4.28-.12l2.5-.35 1.27-.2.63-.1c.2-.02.64-.1.93-.26a2.54 2.54 0 0 0 1.29-1.58c.2-.65.06-1.4-.2-1.9l-.78-1.66c.85-.18 1.7-.37 2.47-.57l-.23-.1 1.5-.35 1.2 18.84c.62 11.08 1.22 22 .96 32.1l-.1.9c-.14.4.04 5.6-.1 6.36v2.36c-.04.66-.1 2.06-.1.88-.06 2.18-.04 2.23-.04 3.8l-.13 2.34-.4 24.96c-.32 10.87-.33 31.34.22 43.14l.37 6.34a74.06 74.06 0 0 0 .3 3.25c.12 1.02.25 2.04.54 3.1-.04.03-.07.1-.1.34l.18.1a2.56 2.56 0 0 1-.2.54c-.06.12-.14.23-.2.34-.15.22-.3.43-.45.7-.57 2.16-.73 4.56-1.36 6.62-.37-.08-.78-.17-.77-.32-.94-.24-2.2-.72-2.88-.64l.05-.03c-.4.07-.45-.1-.85-.14-.01-.03-.04-.05-.03-.05-.42.06-1.08-.3-1.4-.32l.01-.1-.74-.2.27.1c-.2.26-.5-.35-1.1-.33-.5-.2-1.2.3-1.67-.01-.3.06.3-.16-.12-.16.03-.16.2-.04.14-.2-.38-.04-.55-.34-1.02-.37l.02-.12c-.65.04-1.05-.5-1.5-.4-.63-.1-.3-.48-1-.44l-.2-.24c-.26-.1-.25.14-.53-.03.05-.1-.35-.2-.15-.24-.62-.37-1.43-.2-2.24-.74-.25.14-.66-.12-.85-.01 0-.1-.9-.3-.33-.32.05 0 .12.02.1.06l.1-.1c-.44-.38-.95-.16-1.44-.35.14.08.34.13.18.17l-.46-.16.13-.07-.23-.1c.14-.67.27-1.35.34-2.05l.03-.4c-.02-.3-.04-.36-.05-.47l-.08-.67-.16-1.3-1.35-10.15zm-.78 19.8c-.12-.03-.08-.35-.01-.63l.01.14.2-.8-.27.1c.2-.4.3-.02.37-.44l-.2-.05c.1-.28.25-.5.4-.7.18-.26.3-.25.37-.28.03-.07.05-.13.07-.2.07.02.13.03.2.04.1.02.06-.01.4.08l1.6.4c1.06.27 2.08.57 3 1l.05.17c-.02.22.7-.12.7.1l.28-.02c.06.06.2.14.06.15.23.08.25.05.43.04l.2.2c.9.38 1.74.38 2.7.72 1.08.62 3.33 1.05 4.63 1.3.93.12 1.85.54 2.77.96.46.2.92.42 1.4.6.2.07.4.14.62.2-.05.07-.1.14-.1.02-.06.24-.03.26-.01.45l-.2.23c-.3.86-.28 1.67-.5 2.57-1.52-.62-2.57-.55-4.6-1-1.88-.6-2.3-1-4.3-1.43-.93-.28-1.95-.5-2.88-.72-.5.08-1.2-.33-1.77-.3l-.17-.17c-.2.01-.4-.01-.57-.12l.02-.03c-.3.01-.57-.12-.72-.1l.02-.03-.33-.07.07-.03a4.98 4.98 0 0 1-1.38-.32v.15c-.85-.4-1.26-.2-2.02-.62l.02-.03c-.2.02-.38 0-.54-.03-.06 0-.1-.02-.14-.05-.08-.05-.1-.13-.13-.16.04-.07.02-.1-.06-.18.04.03.08-.02.12-.02-.01-.06-.02-.08.02-.35.01-.2-.02-.36-.16-.4.14-.37.2-.28.32-.3zm-.6 9.9c-.2-1.06-.08-2.38.1-3.58a36.98 36.98 0 0 1 .5-2.69c.73.26 1.38.18 2.04.53 0-.15.4.04.34-.17.85.05 1.36.77 1.8.3.37.07.4.25.58.33h-.1c.7.14.9.2 1.4.35.27.02.38-.23.82-.04-.18.06.02.1.2.14-.1-.01-.16.01.05.14a.32.32 0 0 1 .14-.03c0 .01.01.02 0 .03.3.04.25 0 .13-.05.01-.01.01-.04-.03-.08.26.2.82.22.8.4.87.2 1.53.2 2.26.3.05.1-.13.15-.35.12l.5.1c-.04.13-.3-.01-.47-.02.54.38 1.3.14 1.95.52l.17-.06.04.03c.01-.05.2-.08.3-.07.07.14-.08.26.27.35.25.18.8.16 1.18.2-.2-.07-.1-.12-.01-.13.18.04.24.18.4.17l-.03.16c-.03-.16.5-.03.58-.07.07.14-.3.02-.36.1l1.05.27c.4-.01-.03-.16.2-.25.34.06.7.04 1.04.24l-.08-.17c.65.07 1 .2 1.4.44.2.01.4.01.58.01-.1.37-.18.77-.25 1.17l-.27 1.63c-.5.03-1.02.01-1.27.05l.03-.04-.77.02.13-.05c-1.1.1-2.24.1-3.24.06l.08.15c-2.14-.16-2.93.14-4.86-.05l.03-.04c-2.44.38-3.86-.26-6.38.1.3-.05-.13-.07-.1-.1-.58.02-1.18.04-1.64.08a2.45 2.45 0 0 0-.51.09c-.15-.23-.27-.53-.34-.9zm-.67 5.94c.02 0 .05-.1.1-.16.07-.13.15-.27.08-1l-.17-.26a1.97 1.97 0 0 0-.03-.15v-.07c-.1-.3.01-.4.1-.48.1-.1.1-.17.27-.6-.2.3-.37-.07.08-.35l-.02.17c.2-.18.25-.26.42-.3-.12.13 0 .17.32.06-.06.07-.12.13-.17.2a1.27 1.27 0 0 1 .27-.18 1.32 1.32 0 0 1 .4-.13c.85.13 2.2-.03 2.54.14 0 0 1.82.08 2.24-.1-.37.12.64.16.35.3.47-.13 1.87-.24 2.43-.1h-.1c2.07.14 3.53-.2 5.38-.02-.08-.14.9-.07.65-.25 1.92-.18 3.5.38 4.2-.2.87-.03 1.03.13 1.48.16l-.2.03 3.02-.04c.96.12 1.92.22 2.83.06.06.03.23-.04.23-.06l1.8.04s3.33.06 4.3-.33l1.3-.08c.2.1-.2.18-.7.2l1.2-.03c-.01.13-.7.08-1.06.1 1.43.22 2.95-.22 4.63-.02l.33-.1h.04l.08.01s.01-.01.02-.01l.74-.01c.06.07.14.14.68.13.66.1 1.87-.06 2.73-.12-.16-.01-.24-.02-.28-.03l1.15-.01.03.14c-.08-.07.17-.1.46-.14h.7c-.2.04-.6.05-.68.1l2.5-.02c.3-.04.38-.07.36-.1l.9-.01 4.4-.34c.32.03.62.06.87.1 2.98-.06 4.47-.17 5.08-.3.33.18.84.47 1.23 1.07.2.3.33.7.36 1.14.03.37-.1 1.06-.18 1.7l-.05-.1c-.02.38-.03.4-.04.5l-.03.27c-.13-.01-.23-.01-.34-.01-.2.01-.38.01-.57.02-.55.03-1.07.08-1.6.16-.24-.3-1.8-.03-2.3-.12h.05c-1.33.22-2.74-.18-4.02.01.05-.02.08-.1.37-.1-.93.04-2.2.1-2.28-.07-2.23.04-5.34-.03-6.77.23l.1-.05c-.8.18-1.05.03-1.96.12-.05-.02-.1-.03-.1-.04-.9.18-2.6.03-3.3.1l-.05-.1-1.77.03.66.02c-.23.3-1.34-.2-2.62.01-1.2-.04-2.43.64-3.67.5-.6.14.52-.23-.36-.12-.03-.16.4-.1.2-.23-.87.08-1.43-.16-2.5-.06l-.04-.12c-1.4.23-2.64-.16-3.58.05-1.45.1-.97-.37-2.47-.13l-.6-.17c-.64-.03-.46.2-1.18.12.04-.1-.9-.08-.48-.2-1.62-.17-3.28.24-5.4-.04-.46.2-1.53.08-1.88.24-.06-.1-2.15-.01-.94-.2.1-.02.3-.01.27.02l.14-.12c-1.2-.23-2.2.13-3.4.1.36.04.83.03.5.1l-1.12-.02.23-.1-1.66-.06.23.13c-.8-.07-1.1-.28-2.02-.1-.42.1.77.17-.1.2l-1.94-.15-1-.07c-.06-.02-.1-.03-.16-.04-.06.08-.1.12-.16.14-.01-.02-.02-.05-.03-.1l.12-.1c-.01-.04-.01-.1 0-.12z"/><path d="M249.74 441.24h0l.1.13z"/></svg>