<svg xmlns="http://www.w3.org/2000/svg" viewBox="0 0 480 480" xmlns:v="https://vecta.io/nano"><path d="M305.86 437.6c-1.8-3.6-25.6-13.3-32.4-16.2-.94-.28-2.04-.1-2.75.58l-.17-4c.74-.06 1.3-.62 1.3-1.38v-4.86c3.2-.63 5.93-1.56 7.8-2.84 15.8-10.7 7.5-58.8 5.2-91.4-2.3-32.4-11.7-87.7-13.8-109.6h-16.8l-.38.2h-54.62c-2.6 37.9-7 78.4-14 106.3-11.2 44.3-26.5 88.4-3.3 93.8.05.01.1.03.16.04l-.66 6.46c-.1.8.5 1.4 1.2 1.5l.57.08-1.55 9.96c-.13-.1-.25-.17-.38-.24-.6-.4-1.2-.1-1.5.8-.9 2.7-2 10.7-.6 20.3.5 1 1.4 1.8 2.4 1.9l58.7-.1c1.1 0 2-.9 1.9-1.9-.1-2.5-.4-6.5-1.8-9.4-1.8-3.6-25.6-13.3-32.4-16.2-.88-.26-1.9-.1-2.6.47l.12-2.45 1.26.18c.8.1 1.5-.4 1.6-1.2l.95-6.08c3.13-.2 6-.8 8.45-2.02 4.2-2.1 7.92-7.87 11.2-15.6 1.53 7.18 4.24 12.65 8.7 15 1.47.77 3.9 1.44 6.88 1.97l.22 5.33c0 .8.7 1.4 1.4 1.3l.77-.01.24 7.94a4.79 4.79 0 0 0-.38-.23c-.6-.4-1.2-.1-1.5.8-.9 2.7-2 10.7-.6 20.3.5 1 1.4 1.8 2.4 1.9l58.7-.1c1.1 0 2-.9 1.9-1.9-.1-2.5-.4-6.5-1.8-9.4z" fill="#fff"/><path d="M308.57 446.84l-.04-1.86c-.03-1.24-.1-2.52-.6-4.08.13.4.04-.2.08-.16-.33-1.47-1-3-1.26-2.9l-.25-.58-.15-.32c-.05-.13 0-.15-.01-.26-.05.04-.26-.14-.55-.4l-1-.77.34.2c-.66-.52-1.34-.93-2.03-1.35l.27.45c-1.03-.73-.12-.42-1.2-1l-.1.18c-1.5-.9-2.25-1.64-3.68-2.54-6.2-3.24-13.26-5.73-19.07-8.57l-.2-.25c-.03-.25-1.76-.4-1.9-.68l-.73-.2c-.18-.12-.57-.33-.2-.23-.64-.28-.67-.25-1.15-.4l-.63-.4c-.87-.53-2.12-.66-3.2-.28 0-.05-.01-.1-.01-.16 0 .05-.01.1-.01.17-.02.01-.03.01-.05.02l-.01-.53.07.13-.01-.95-.07.13c.01-.2.04-.35.05-.5.18-.03.37-.1.55-.2.58-.37.97-1.05 1.02-1.73l.01-.25v-.15l-.03-.9-.1-2.44-.02-.78c.83-.18 1.66-.4 2.5-.65.5-.12 1-.3 1.5-.52.5-.2 1-.38 1.5-.6.96-.54 1.97-1.03 2.8-1.77 1.74-1.4 3.1-3.22 4.2-5.16 1.04-1.97 1.84-4.04 2.48-6.16 1.22-4.25 1.82-8.63 2.15-12.93.32-4.3.33-8.55.16-12.63.01-.27-.01-.74-.04-1.15-.02-.2-.03-.4-.04-.53s-.02-.22-.03-.22c-.13-4.98-.43-9.96-.8-14.92l-.9-10.4-1.92-18.73c-.6-5.56-1-9.42-1.2-8.46-.17.96-.1 6.75.8 20.45l-.08-.36 1.75 18.8c-.2.9.42 6.67.4 8.58l-.03-.18c.47 4.95.18 10.2.24 14.97-.02-.2-.1-.3-.07-1.38a119.51 119.51 0 0 1-.16 5.44c-.13 1.64-.24 2.9-.35 3-.2 2.05-.45 4.3-.9 6.56-.2 1.14-.5 2.26-.76 3.4-.34 1.1-.63 2.22-1.06 3.25-.8 2.08-1.76 4-2.93 5.45-1.15 1.45-2.35 2.57-3.44 3.2l.28-.2c-.6.37-1.07.74-1.6.93l-1.42.56c-.45.2-.97.28-1.54.46-.58.15-1.22.37-2.04.53-.18.01-.42.05-.38.03-.8.2-1.77.43-2.86.56l-1.67.23-1.74.15c-2.3.2-4.56.23-5.9.26l-.17-.1a59.88 59.88 0 0 1-3.28-.03c-1.1-.01-2.18-.07-3.28-.14.82.05 1.63.14 2.45.16-.86.27-4.96-.36-9.66-.9-2.18-.4-4.42-.66-6.58-1.27-1.05-.34-2.1-.76-3.02-1.46a11.07 11.07 0 0 1-2.39-2.44c-1.37-1.7 1.28 1.44-.66-1.18.06-.16.94 1.2.57.44-.93-1.28-1.48-2.48-2-3.77-.52-1.3-.97-2.73-1.54-4.63l.08-.2a26.21 26.21 0 0 1-.32-1.19l1.15-2.85-.15.5c1.55-4.15 2.96-8.47 4.15-12.3l-.23.28c1.32-4.07 2.03-6.9 2.7-9.62l2.28-9.08.01.1c1.83-9.56 3.58-14.96 5.24-24.84-.2 1.23.18-.5.2-.4.88-4.53 1.87-9.34 1.6-9.47.72-3.27.67-2.65.87-3.05-.12-.01.44-2.87 1.1-5.37l-.26 1.17 1.87-7.28-.6 1.37c1.07-3.85.55-.9 1.37-4.65h-.2l1.72-6.9c.53-2.1 1.1-4.18 1.63-6.8 3.8-19.9 6.1-41.4 9.1-60.45.9-6.13 2.46-17.05 2.1-17.8-.44-.88-3.42 15.17-4.33 20.14-.42 3.17-.9 6.54-1.55 10.28-.05 1.85-.77 6.05-.8 7.42-.12.2-1.2 8.44-.73 3.68.04-.4.15-1.13.17-1.07l-.04-.58c-.9 4.74-1.1 8.7-1.86 13.4.25-1.4.52-3.25.42-2l-.68 4.38.04-.93-1.07 6.5.27-.88c-.6 3.18-.94 4.27-1.4 7.88-.18 1.64.7-2.98.15.38l-1.48 7.55-.86 4.24-.9 4.16c.24-.47-.06.97-.34 2.47l-.16.15c-1.13 5.72-.72 2.03-1.92 7.68l.04-.5-.13 1.54c-1.07 5.1-1 2.62-2.1 8.4.54-2.26.5-1-.18 1.76l.04-.73c-.33 1.54-.4 2.07-.63 3.08.14-.93-.07-.52-.53 1.74l.18-1.55-.7 4.32c-.8 3.27-1.72 8.53-2.16 9.85 0 0-1.54 7.07-1.7 8.73.2-1.44-.7 2.44-.58 1.3-.25 1.86-1.35 7.28-2 9.4l.08-.4c-2 7.93-3.08 13.65-5.35 20.62.25-.27-.98 3.4-.52 2.54-1.04 3.65-2.32 6.86-3.4 9.48l-1.47 3.46c-.4 1-.72 1.84-.9 2.5-.73 1.55-1.28 2.4-1.7 3.08-.42.7-.8 1.15-1.3 1.87l.4-.7c-.44.66-.8 1.3-1.2 1.8l-1.1 1.46c-.76.8-1.37 1.56-2.08 2.1-.65.63-1.38 1-2.12 1.47-.83.36-1.7.77-2.83 1.06-.54.2-1 .3-1.4.42-.4.1-.78.26-1.23.34a50.38 50.38 0 0 1-1.61.29c-.66.05-1.48.13-2.54.13 1.37-.12-.36-.07-1.95-.1.5.02.84-.02.78-.03-.05-.02-.5-.03-1.53-.13-.3.02-.75.02-1.17.01-.02-.01-.1-.02-.06-.03-2.65-.2-2.2-.13-.96 0-.06.01.04.04.42.1-2.74-.32-7.66-1.02-7.95-1.28-3.96-.7-7.34-1.45-10.57-2.14l-2.4-.52c-.78-.2-1.5-.4-2.27-.62-1.43-.6-2.87-1.26-4.07-2.36-.46-.57.64.48 2.26 1.37-1.28-.78-2.54-1.66-3.47-2.86.1-.04 1.76 1.93 3.06 2.5-2.23-1.48-4.05-3.63-5.25-6.3-1.2-2.67-1.8-5.8-1.9-9.07l-.16-1.36v-.4c-.03.01-.08-.35-.12-.84a42.71 42.71 0 0 1-.04-1.6c.15-.93.2.07.4-3.2.25-2.57.64-7.33 1.14-10.7-.3 1.8-.27 1.22-.2.43.28-1.62.54-2.54.72-3.8l.14-.1c-.07-.24.7-4.34.77-4.9.3-.9-.43 2.52-.4 2.95 1.3-6.48.62-3.24 2.05-9.7.68-3.46-.3.6-.04-1.08.68-3.04 1.3-6.02 2.27-9.47l-.4 1.06c1.33-5.7 2.25-9.1 3.4-12.88 5.05-21.25 5.12-23.6 4.14-20.6-1 3-3.3 11.3-3.3 11.3-2.34 8.27-4 14.57-5.64 21.32-1.6 6.75-3.3 13.9-5.03 24.06-1.5 8.92-2 14.7-1.62 20.64.24 2.95.7 6 2.17 9.3.2.4.38.82.6 1.24l.77 1.22c.24.43.57.8.9 1.2.35.38.64.82 1.06 1.16 1.52 1.53 3.62 2.7 6 3.46.12.04.24.07.36.1-.05 1.13-.01 2.28-.12 3.96-.05.32-.1.6-.12.88l-.06.4-.03.2c-.01.1-.03.2-.03.3-.03.9.45 1.7 1.08 2.13.32.22.68.38 1.08.46l.68.12c.48.08 1.02.15 1.7.22 1.27.2 2.63.33 3.87.47.62-.13 1.63.23 2.35.15l.25.16c.25-.03.54-.03.77.07v.04c.37-.04.77.07.95.05l-.02.03.44.05-.08.04c.64-.01 1.28.08 1.84.2l-.03-.15c1.2.33 1.68.1 2.75.44l-.02.03c1.44-.18 2.15.57 3.63.4-.18.02.07.08.05.12.66.05 1.37.13 1.42-.15.48.07.38.14.43.26.01-.12.44-.12.8-.07l-.18.02.85.1c-.02.3-.02.6-.04.9-.2.16-.4.34-.56.55-.78 1.04-1.53 2-2.58 2.9-1.3 1-3.24 2.32-5.5 3.1-2.23.82-4.72 1.12-6.5 1.14-1.36.05-2.8-.18-4.07-.74-.64-.28-1.23-.66-1.8-1.1-.28-.23-.56-.47-.85-.73-.13-.1-.25-.22-.4-.33.33-1.83.37-3.2.7-5.72.3-2.3-.96-.84-1-.33.05-.27.08-.18.1-.06-.04.25-.13.38-.13.57l-.1.01c.1-.08 0 .66.02.75-.1.13 0-.4-.04-.46l-.22 1.48c-.01.54.1-.08.15.18-.05.47-.06.93-.2 1.45l.1-.16c-.06.72-.13 1.2-.25 1.67-.45-.26-.93-.38-1.42-.24-.5.14-.92.5-1.2 1-.14.23-.25.5-.33.77l-.17.53c-.1.33-.18.67-.25 1-.3 1.32-.45 2.63-.5 3.9a1.88 1.88 0 0 0 0 .64c-.16 1.67-.23 3.34-.25 5.02 0 0-.03 1.52.1 3.5.06 1 .15 2.1.3 3.2l.23 1.6c.04.26.1.5.13.76.03.17.06.33.08.5.1.16.2.34.27.46s.17.2.26.32c.05.08.1.16.15.23.3.4.68.67 1 .83.62.3 1.12.3 1.33.23.01 0 .02 0 .03-.01.01 0 .03 0 .04-.01.02-.01.01-.02.02-.03.02-.02.04-.03.04-.05s0-.05-.03-.07c-.01-.01-.02-.01-.03-.02-.08-.07-.24-.17-.5-.32a3.15 3.15 0 0 1-.8-.72c-.27-.35-.48-.85-.38-1.4v-.04c.01-.3.03-.65.05-1 .01-.18.01-.37.02-.57l.01-.3c0-.1.01-.1.02-.16l.05.05c0-.1.01-.2.01-.3v-.2l.07.01c.18.02.33.03.47.02.78 0 1.54-.04 2.3-.15.24.3 1.82.06 2.34.16l-.05.02c1.36-.2 2.8.22 4.1.04-.05.02-.08.1-.38.1.95-.02 2.25-.07 2.32.1 2.27-.01 5.44.1 6.9-.14l-.1.05c.83-.17 1.07-.01 2-.1.05.02.12.03.1.04.9-.17 2.64.01 3.37-.06l.05.1h1.8l-.67-.03c.24-.3 1.36.2 2.66.03 1.22.06 2.48-.6 3.75-.43.6-.13-.54.23.37.13.03.16-.42.1-.2.22.9-.06 1.45.18 2.55.1l.04.12c1.43-.2 2.7.2 3.65 0 1.47-.08.98.38 2.52.16l.6.18c.66.04.47-.2 1.2-.1-.05.1.92.1.5.2 1.64.2 3.35-.2 5.5.12.47-.2 1.56-.06 1.92-.2.06.1 2.2.05.96.22-.1.01-.3.01-.28-.03l-.15.12c1.23.25 2.25-.1 3.47-.04-.36-.05-.85-.04-.52-.12l1.14.03-.24.1 1.7.08-.23-.13c.83.08 1.12.3 2.05.13.42-.1-.78-.18.1-.2l1.97.17 1.1.08c.06.02.1.03.17.05.1-.14.2-.16.2-.04l-.12.1c.1.1.02.14-.05.33-.06.15-.17.23-.05 1.13.07.1.14.2.2.2.12.22-.03.3-.1.33-.1.03-.12.08-.38.37.25-.16.3.22-.2.27.03-.05.06-.1.08-.14-.1.04-.18.06-.25.07-.12.01-.22.02-.35.01.24-.07.13-.18-.46-.15l.4-.15-1.12.22c-.86-.13-2.23.04-2.6-.13 0 0-1.86-.08-2.28.1.37-.12-.65-.16-.36-.3-.48.13-1.9.24-2.47.1l.1-.02c-2.1-.14-3.6.2-5.5.03.1.14-.9.07-.66.25-1.95.2-3.56-.37-4.27.2-.9.03-1.05-.13-1.5-.16l.2-.03c-1.66.05-2.15.06-3.4.04-.62.06-.7.32-1.82.26.36-.1-.1-.1-.5-.1.26-.02.35-.06-.2-.13-.08.03-.2.05-.3.07 0-.01-.03-.01-.02-.03-.7.04-.57.07-.25.1-.02.02.01.04.1.07-.72-.14-2 .01-2.1-.17-2.08.05-3.56.24-5.3.3-.2-.1.2-.18.7-.2l-1.23.04c.01-.13.7-.08 1.08-.1-1.46-.2-3 .22-4.72.03l-.35.1-.1-.02c.01.06-.38.13-.63.15-.24-.12.02-.27-.83-.26-.67-.1-1.9.06-2.78.12.47.02.32.08.12.13-.42 0-.67-.1-1-.06l-.04-.16c.17.15-1.1.16-1.26.23-.24-.12.66-.1.76-.2l-2.55.03c-.9.12.16.15-.27.3-.8.03-1.58.14-2.5.05l.3.14c-1.5.1-2.4.1-3.42-.04-3.3.34-4.86.62-5.4.84-.45.15-.37.27 0 .37.78.25 3.05.36 3.05.36 1.44.1 2.65.12 3.8.1 3.17.03 5.73-.18 9.77-.3 3.35.1 4.82.28 8.98.18h.77a112.58 112.58 0 0 0 4.84-.01c2.78.02 5.75-.05 8.47-.1.35-.06.78-.08 1.24-.1h-.05c.2-.02.38-.02.58-.03 1.12-.01 2.37.03 3.33-.08l.6.12c.53-.06 1.14-.1 1.67-.04l-.03.03c.8-.1 1.67-.04 2.06-.1l-.03.04.95-.02-.16.05c1.37-.1 2.78-.1 4.03-.07l-.03-.04a11.44 11.44 0 0 0 1.13-.06c.18 0 .37.01.53 0 .07.02.16.03.15.05.65-.02 1.3-.04 1.8-.1.26-.01.52-.01.8-.01.26-.01.4.02.85 0a3.14 3.14 0 0 0 1.2-.35l-.03.06c.48-.33.84-.76 1.07-1.24a3.02 3.02 0 0 0 .23-.76c.04-.25.02-.56.01-.7l-.04-1.86c-.03-1.24-.1-2.52-.6-4.08.13.4.04-.2.08-.16-.33-1.47-1-3-1.26-2.9l-.25-.58c-.08-.16-.13-.25-.15-.32-.05-.13 0-.15-.01-.26-.05.04-.26-.14-.55-.4-.3-.23-.65-.52-1-.77l.35.2c-.66-.52-1.34-.93-2.03-1.35l.27.45c-1.03-.73-.12-.42-1.2-1l-.1.18c-1.5-.9-2.25-1.64-3.68-2.54-6.2-3.24-13.26-5.73-19.07-8.57l-.2-.25c-.03-.25-1.76-.4-1.9-.68l-.73-.2c-.18-.12-.57-.33-.2-.23-.64-.28-.67-.25-1.15-.4l-.63-.4c-.3-.18-.62-.3-.98-.38.03-.01.05-.01.08-.02.62-.3 1.08-.94 1.2-1.62.08-.5.1-.83.17-1.27l.27-2.43.2-1.56c1.66-.16 3.55-.43 5.44-1 .37-.12.75-.22 1.12-.36l1.1-.47c.74-.26 1.4-.76 2.08-1.17.65-.44 1.18-.97 1.74-1.44.5-.5.94-1.03 1.37-1.5.48-.46.88-.98 1.32-1.47 1-1.43 2.02-3.2 2.9-4.67l-.02.1c.6-1.14 1.17-2.37 1.7-3.45.02-.05.04-.1.06-.14.48 1.7 1.1 3.4 1.87 5.13.55 1.24 1.25 2.6 2.25 3.9s2.32 2.6 3.98 3.55c.4.27.86.4 1.3.6a8.76 8.76 0 0 0 1.35.49c.45.13.9.3 1.37.4l1.4.32c.33.07.66.12 1 .2.1.88.26 1.84.36 3.12v1.64c.02.27.07.54.17.8.4.96 1.3 1.68 2.55 1.57l-.17.01c.64.03 1.35.03 2.34-.02 1.28.01 2.64-.07 3.88-.12.6-.22 1.64-.02 2.34-.2l.27.12c.24-.06.52-.1.77-.05l-.01.03c.36-.1.77-.05.95-.1l-.01.04.44-.02-.07.05c.63-.1 1.28-.12 1.85-.08l-.05-.14c1.22.15 1.67-.16 2.77.02l-.01.04c1.4-.4 2.2.23 3.64-.15-.18.05.08.07.06.1.66-.05 1.37-.08 1.37-.37.48 0 .4.08.46.2 0-.12.4-.18.8-.2l-.17.05 1.08-.06-.2-.23c.57.06.15.3.7.22l-.01-.2c.27.01.5.06.72.1l.12 1.87c.01.2.03.4.04.6-.14.13-.28.26-.4.4-.78 1.04-1.53 2-2.58 2.9-1.3 1-3.24 2.32-5.5 3.1-2.23.82-4.72 1.12-6.5 1.14-1.36.05-2.8-.18-4.07-.74-.64-.28-1.23-.66-1.8-1.1-.28-.23-.56-.47-.85-.73-.17-.14-.33-.3-.54-.46-.16-7.65-1.35-4.75-1.32-3.84.1.5.1-.1.18.14.03.45.1.88.07 1.4l.08-.16c.1.8.1 1.3.03 1.85-.38-.17-.78-.23-1.2-.12-.5.14-.92.5-1.2 1-.14.23-.25.5-.33.77l-.17.53c-.1.33-.18.67-.25 1-.3 1.32-.45 2.63-.5 3.9a1.88 1.88 0 0 0 0 .64c-.16 1.67-.23 3.34-.25 5.02 0 0-.03 1.52.1 3.5.06 1 .15 2.1.3 3.2l.23 1.6c.04.26.1.5.13.76.03.17.06.33.08.5.1.16.2.34.27.46s.17.2.26.32c.05.08.1.16.15.23.3.4.68.67 1 .83.62.3 1.12.3 1.33.23.01 0 .02 0 .03-.01.01 0 .03 0 .04-.01.02-.01.01-.02.02-.03.02-.02.04-.03.04-.05s0-.05-.03-.07c-.01-.01-.02-.01-.03-.02-.08-.07-.24-.17-.5-.32a3.15 3.15 0 0 1-.8-.72c-.27-.35-.48-.85-.38-1.4v-.04c.01-.3.03-.65.05-1 .01-.18.01-.37.02-.57l.01-.3c0-.1.01-.1.02-.16l.05.05c0-.1.01-.2.01-.3v-.2h.07c.18.02.33.03.47.02.78 0 1.54-.04 2.3-.15.24.3 1.82.06 2.34.16l-.05.02c1.36-.2 2.8.22 4.1.04-.05.02-.08.1-.38.1.95-.02 2.25-.07 2.32.1 2.27-.01 5.44.1 6.9-.14l-.1.05c.83-.17 1.07-.01 2-.1.05.02.12.03.1.04.9-.17 2.64.01 3.37-.06l.05.1h1.8l-.67-.03c.24-.3 1.36.2 2.66.03 1.22.06 2.48-.6 3.75-.43.6-.13-.54.23.37.13.03.16-.42.1-.2.22.9-.06 1.45.18 2.55.1l.04.12c1.43-.2 2.7.2 3.65 0 1.47-.08.98.38 2.52.16l.6.18c.66.04.47-.2 1.2-.1-.05.1.92.1.5.2 1.64.2 3.35-.2 5.5.12.47-.2 1.56-.06 1.92-.2.06.1 2.2.05.96.22-.1.01-.3.01-.28-.03l-.15.12c1.23.25 2.25-.1 3.47-.04-.36-.05-.85-.04-.52-.12l1.14.03-.24.1 1.7.08-.23-.13c.83.08 1.12.3 2.05.13.42-.1-.78-.18.1-.2l1.97.17 1.1.08c.06.02.1.03.17.05.1-.14.2-.16.2-.04l-.12.1c.1.1.02.14-.05.33-.06.15-.17.23-.05 1.13.07.1.14.2.2.2.12.22-.03.3-.1.33-.1.03-.12.08-.38.37.25-.16.3.22-.2.27.03-.05.06-.1.08-.14-.1.04-.18.06-.25.07-.12.01-.22.02-.35.01.24-.07.13-.18-.46-.15l.4-.15-1.12.22c-.86-.13-2.23.04-2.6-.13 0 0-1.86-.08-2.28.1.37-.12-.65-.16-.36-.3-.48.13-1.9.24-2.47.1l.1-.02c-2.1-.14-3.6.2-5.5.03.1.14-.9.07-.66.25-1.95.2-3.56-.37-4.27.2-.9.03-1.05-.13-1.5-.16l.2-.03c-1.67.05-2.15.06-3.4.04-.62.06-.7.32-1.82.26.36-.1-.1-.1-.5-.1.26-.02.35-.06-.2-.13-.08.03-.2.05-.3.07 0-.01-.03-.01-.02-.03-.7.04-.57.07-.25.1-.02.02.01.04.1.07-.72-.14-2 .01-2.1-.17-2.08.05-3.56.24-5.3.3-.2-.1.2-.18.7-.2l-1.23.04c.01-.13.7-.08 1.08-.1-1.46-.2-3 .22-4.72.03l-.35.1-.1-.02c.01.06-.38.13-.63.15-.24-.12.02-.27-.83-.26-.67-.1-1.9.06-2.78.12.47.02.32.08.12.13-.42 0-.67-.1-1-.06l-.04-.16c.17.15-1.1.16-1.26.23-.24-.12.66-.1.76-.2l-2.55.03c-.9.12.16.15-.27.3-.8.03-1.58.14-2.5.05l.3.14c-1.5.1-2.4.1-3.42-.04-3.3.34-4.86.62-5.4.84-.45.15-.37.27 0 .37.78.25 3.05.36 3.05.36 1.44.1 2.65.12 3.8.1 3.17.03 5.73-.18 9.77-.3 3.35.1 4.82.28 8.98.18h.77a112.58 112.58 0 0 0 4.84-.01c2.78.02 5.75-.05 8.47-.1.35-.06.78-.08 1.24-.1l-.05.02c.2-.02.38-.02.58-.03 1.12-.01 2.37.03 3.33-.08l.6.12c.53-.06 1.14-.1 1.67-.04l-.03.03c.8-.1 1.67-.04 2.06-.1l-.03.04h.95l-.16.05c1.37-.1 2.78-.1 4.03-.07l-.03-.04a11.44 11.44 0 0 0 1.13-.06c.18 0 .37.01.53 0 .07.02.16.03.15.05.65-.02 1.3-.04 1.8-.1.26-.01.52-.01.8-.01.26-.01.4.02.85 0a3.14 3.14 0 0 0 1.2-.35l-.03.06c.48-.33.84-.76 1.07-1.24a3.02 3.02 0 0 0 .23-.76c.03-.15 0-.45 0-.58zM206.05 420.1a4.08 4.08 0 0 1 .42.17c-.15.02-.3.06-.45.1l.03-.27zm-19.45 22.5l-4.05-.1-2.56-.03h-.48c-.08-2.06-.1-3.5-.3-5.1.28-.3.08-2.2.2-2.8l.02.06c-.05-.66.01-1.33.1-2 .28.08.55.03.97.13.46.23.52.42 1.03.58.22.1.47.2.7.3.16-.05.28.16.45.13v.1c.06-.01.12 0 .14.06l-.01.02c.1-.01.14.06.18.06v.02l.08.04-.03.02a.53.53 0 0 1 .32.17l.04-.08c.15.2.3.12.42.34l-.02.02c.37-.02.24.38.6.4-.04 0-.02.04-.03.06.1.06.23.14.34.02.07.07.02.1-.02.15.05-.06.13-.02.2.03h-.04l.17.13.07-.13c.05.1-.1.14 0 .2l.08-.08c.1.13.03.3.05.48.36.48.96.86 1.06 1.5l-.06.06c-.1.07.25.05.15.13l.08.03c-.01.03-.02.08-.06.06.02.06.04.05.1.07l-.04.1c.06.25.3.37.37.63-.01.35.35.84.54 1.14.35.4.02 1.08.33 1.5-.01.02.03.05.05.05l.06.44s.07.52.2.84c.04.1.1.16.15.2-.35.01-.7.01-1.03.04a.89.89 0 0 0-.5.01zm23.14-19.56l.6.44.17.07c-.01.02-.02.05-.03.07-.23.2-.4.16-.57.45-.1.1-.2.26-.27.38.05.14-.13.15-.1.28l-.08-.02c.01.05.01.1-.04.08l-.01-.02c.01.07-.04.08-.04.12l-.01-.02-.03.05-.02-.03c-.01.1-.05.16-.12.2l.07.05c-.17.05-.07.2-.24.23l-.01-.02c.07.28-.3.1-.24.37-.01-.03-.04-.02-.05-.04-.03.08-.08.15.05.26-.04.04-.07 0-.13-.04.06.05.05.1.02.14l-.01-.03-.06.1.12.07c-.08.03-.14-.1-.16-.03l.1.08c-.08.06-.25-.02-.38 0-.3.26-.32.76-.7.9l-.08-.05c-.1-.08.08.2-.02.13l.02.07c-.02-.01-.06 0-.07-.04-.03.03-.01.04 0 .1l-.1-.02c-.15.07-.1.27-.24.37-.25.04-.37.4-.43.62-.04.34-.65.27-.68.64-.02 0-.01.04.01.05l-.2.2s-.9.97.57.9l.02.02c.15-.07.22-.13.18-.3.14.1.1-.08.16-.07l.01.01c-.04-.16.2-.07.17-.2.01.01.04.04.03.06.02-.06.05-.15.13-.1.08-.13.25-.26.2-.44l.02.02c-.05-.1.03-.07.03-.15.01.01.02.01.02.01-.04-.12.1-.14.1-.2l.05.04.07-.1-.04.02c-.13-.13.15.01.1-.14.07-.05-.18-.37-.06-.38-.04-.1.08.12.07.03.07.06.03.06.1.1 0-.07.14-.01.14-.1l.06.05c-.04-.16.2-.07.13-.2.02-.1.2.1.17-.08l.1.04c.04-.02-.07-.1 0-.1.05.04.08-.01.1.05.15-.02.04-.26.26-.26-.07-.1.03-.1-.03-.2.04.03.1-.1.14.03 0 .01-.01.02-.02.01l.05.06c.16.03.04-.16.1-.2-.03 0-.05.03-.07-.02l.06-.05.04.05.1-.06-.07-.04c.07-.02.18.05.14-.06-.03-.06-.1-.03-.1-.1.1-.02.22-.06.3-.1-.07-.05-.05-.07-.05-.1l.06.05c-.01-.14.15.08.15-.05l.03.04-.1-.12c-.05-.16.15.06.06-.14-.02.04-.14-.1-.08-.1l.05.06c.01-.03-.01-.06.01-.06.02.04.07.07.1.04l.05.08-.05-.14c.1.01.08-.13.17-.08 0 0 .12-.06.05-.16.04.06.1.03.15.1-.04-.08-.03-.2.06-.16v.01c.16-.05.07-.26.23-.3-.07-.05.01-.07-.1-.13 0-.17.33-.03.1-.3.02-.06.1 0 .14-.01v.02c.05-.1.07-.13.13-.2 0-.05-.12-.16-.04-.2.03.06.04.03.06.01 0 .02.01.04.07.04-.01-.02-.02-.03-.02-.04.02-.04 0-.05-.02-.04-.01-.01-.02-.01-.03-.02.1.02.08-.1.17-.04.07-.12.05-.27.1-.4.05.03.07.08.07.12l.04-.08c.06.05 0 .07 0 .1.16.01.03-.24.2-.25l-.03-.06h.01c-.03-.02-.04-.07-.04-.1.06.03.12.1.16.06.08.01.06-.12.07-.2-.03.02-.05-.02-.06-.04.02-.02.08.01.07-.03l.07.06c-.07-.05-.02-.12-.05-.15.06.03.02.07.05.1.07-.1.03-.05.1-.14-.01-.1-.08-.05-.12-.13.02-.05 0-.14.1-.14l-.08-.04c0-.03.02-.03.02-.05a4.81 4.81 0 0 1 .37.17c-.1.08 1 .5.48.4 1.1.57 2.28.96 3.57 1.47-.1.13-.08.33-.2.54-.2.2-.4.16-.52.44-.1.1-.17.25-.24.37.06.13-.1.15-.08.27l-.08-.02c.01.04.01.08-.04.08l-.02-.01c.02.07-.04.08-.03.1l-.02-.01-.02.04-.02-.03c0 .1-.04.15-.1.18l.07.05c-.16.05-.05.2-.22.22h-.02c.08.27-.28.1-.2.36-.01-.03-.04-.02-.06-.04-.03.07-.07.14.07.25-.04.04-.07 0-.13-.03.06.05.05.1.03.14l-.01-.03-.06.1.13.07c-.07.03-.15-.1-.16-.02l.1.07c-.07.06-.24-.01-.37 0-.26.25-.27.74-.64.87l-.08-.04c-.1-.07.1.2-.01.13l.02.07c-.02-.01-.06 0-.07-.04-.03.02-.01.04 0 .08l-.1-.02c-.14.07-.1.26-.2.36-.24.04-.33.4-.38.6-.02.33-.62.26-.62.62-.02 0 0 .04.01.05l-.17.2s-.8.94.6.87l.02.02c.14-.07.2-.13.16-.3.14.1.1-.08.15-.07l.01.01c-.05-.15.2-.07.15-.2.01.01.04.04.04.06.02-.06.04-.15.12-.1.07-.13.23-.26.16-.43l.02.02c-.05-.1.03-.06.02-.14.01.01.02.01.02.01-.05-.1.1-.14.08-.2l.05.04.06-.1-.04.02c-.13-.13.14 0 .1-.13.07-.05-.2-.36-.08-.37-.04-.08.1.1.07.03.08.06.03.06.1.1 0-.07.13-.01.13-.1l.06.04c-.05-.16.18-.07.12-.2.01-.1.2.1.16-.08l.1.03c.04-.02-.08-.1-.01-.1.05.04.08-.01.1.04.14-.02.02-.25.24-.26-.08-.1.02-.1-.04-.18.04.03.1-.1.14.03 0 .01-.01.02-.02.01l.05.05c.16.03.03-.16.1-.2-.03 0-.05.03-.07-.02l.05-.05.04.05.1-.06-.07-.04c.06-.02.18.05.13-.06-.03-.06-.1-.03-.1-.08.08-.02.2-.06.28-.1-.07-.05-.06-.06-.05-.1l.06.04c-.02-.14.15.08.14-.05l-.07-.08c-.06-.16.15.06.05-.14-.01.04-.14-.1-.1-.1l.05.05c0-.03-.01-.05.01-.06.02.04.08.07.1.03l.06.08-.06-.14c.1.01.07-.12.17-.08 0 0 .1-.06.04-.15.04.06.1.03.15.1-.04-.07-.04-.18.05-.16v.01c.15-.05.05-.25.2-.28-.07-.05 0-.07-.1-.13-.01-.16.32-.04.08-.28.02-.06.1 0 .14-.01l.01.02c.04-.1.06-.13.1-.18 0-.05-.12-.15-.05-.2.04.06.04.03.06.01 0 .02.01.04.07.04-.01-.02-.02-.03-.02-.04.02-.04 0-.04-.02-.03-.01-.01-.02-.01-.04-.02.1.02.07-.1.16-.04.06-.12.03-.26.07-.37.05.03.07.08.07.1l.03-.07c.06.05.01.06.01.1.16.01.02-.23.18-.24l-.04-.06h.01c-.03-.02-.05-.07-.05-.1.06.03.13.1.16.06.08.01.05-.1.05-.18-.03.02-.05-.02-.06-.04.01-.02.08.01.07-.03l.08.06c-.08-.05-.03-.1-.06-.15.06.03.02.07.06.1.06-.1.03-.04.1-.13-.02-.1-.08-.05-.12-.12.02-.05 0-.13.08-.14l-.08-.04c.01-.1.05-.15.16-.15-.01-.1-.03-.17-.04-.25.58.25 1.18.54 1.8.9.6.04 1.78.68 2.23.7.03.1 2.43 1.1 1 .66-.12-.04-.33-.13-.3-.16l-.2.04c1.28.82 2.55 1 3.88 1.65-.38-.22-.92-.45-.53-.37l1.25.6-.3-.03 1.84.92-.2-.24c.88.5 1.1.83 2.2 1.16.5.13-.78-.57.2-.14l4.4 2.52c-.07-.2.33.02.75.22l-.01.14c1.64.74.45.55 2.03 1.34l-.18-.01.53.03c.74.32.86.5 1.02.68.15.18.35.35 1.05.75-.5-.4 0-.4.47.17l-.2-.05c.15.14.24.22.28.27.03.03.06.06.08.1.03.05.05.12.08.2-.17-.2-.2-.06.06.54-.1-.12-.2-.23-.3-.34.24.33.45.7.66 1.1.2.96.67 2.5.56 2.95l.13.98c-.26-.03-.5-.06-.66-.1-5.7-.16-11.8.25-17.1-.17l-.23-.15c-.1-.22-1.46.3-1.66.1l-.62.1c-.17-.04-.54-.1-.23-.13-.57-.02-.58.02-1 .08l-.6-.14c-2.24-.14-4.16.1-6.52.01-2.83-.3-8.18-.14-11.26-.04-3.9.23-8.37-.5-12.47-.4.13-.08.28-.27.45-.6l.03.01c.04-.28.03-.46-.14-.62.17-.06-.02-.22.02-.3h.01c-.16-.14.04-.35-.1-.48.01 0 .06-.01.07.03-.05-.1-.12-.25-.03-.28-.1-.26-.16-.64-.37-.76h.03c-.13-.06-.06-.12-.14-.2.01-.01.01-.02.02-.02-.14-.07-.12-.3-.2-.36l.06-.03-.1-.2.02.08c-.18.04.05-.2-.12-.3-.03-.15-.46-.12-.44-.3-.1-.03.15 0 .05-.07.1-.04.08.02.13-.04-.08-.08.02-.2-.1-.3l.07-.04c-.2-.1-.05-.33-.22-.37-.13-.13.15-.2-.07-.3l.06-.1c-.02-.08-.13.01-.13-.1.06-.03-.01-.12.07-.1-.01-.22-.32-.28-.3-.6-.14.01-.15-.14-.25-.13.04-.03-.14-.23.04-.17.02.01.03.03.01.04l.07-.02c.03-.2-.22-.2-.3-.34.01.05.04.1-.02.1l-.07-.12h.07a1.14 1.14 0 0 0-.1-.19l-.04.07c-.03-.1.04-.2-.1-.24-.08 0-.02.14-.1.07-.05-.14-.1-.35-.22-.5-.05.07-.08.03-.13.01l.05-.05c-.2-.06.07-.16-.12-.24l-.1.05c-.22-.01.05-.17-.23-.16.06.04-.1.14-.13.06l.07-.04c-.05-.02-.08-.01-.1-.05.05-.01.08-.07.02-.1l.1-.03-.2.01c-.03-.13-.22-.16-.2-.27 0 0-.14-.2-.25-.13.08-.02 0-.13.08-.17-.1.02-.27-.03-.28-.14h.02c-.16-.22-.42-.17-.55-.38-.04.08-.12-.03-.15.08-.26-.03-.24-.42-.5-.18-.1-.04-.07-.13-.1-.18h.03c-.2-.07-.24-.1-.36-.18-.08-.01-.17.13-.26.03.07-.03.01-.05-.03-.07.03.01.05-.01.01-.08-.02.01-.04.02-.05.02-.07-.03-.07 0-.04.02-.01.01-.01.02-.01.04-.04-.1-.2-.1-.17-.2-.23-.1-.44-.06-.64-.1 0-.06.07-.1.13-.08l-.14-.04c.03-.07.1-.01.14 0-.1-.2-.38-.03-.52-.22l-.06.04-.01-.01c-.01.03-.07.06-.1.06 0-.08.06-.15-.03-.18-.05-.1-.22-.06-.33-.05.05.03.02.06-.01.08-.05-.02-.05-.1-.1-.08l.03-.1c-.01.1-.16.05-.2.08 0-.08.1-.03.12-.08l-.3-.1c-.12.03-.01.1-.1.15-.1-.01-.2.02-.3-.07v.1c-.2 0-.28-.03-.37-.15-.02 0-.03.01-.04.01.1-.65.2-1.3.24-1.9.01.06.08.1.04.46.12-1.13.4-2.62.6-2.64.03-.1.06-.22.1-.34.02-.06.05-.1.1-.16.1-.1.25-.1.35 0 .04.02.06.04.1.06a4.46 4.46 0 0 1 .29.22c.2.17.42.33.63.5.44.34.9.67 1.37.94.94.55 1.86.83 2.52.93l-.14.01c1.1.13 1.37.32 2.56.4.06.03.14.04.13.05 1.16-.03 3.34.03 4.24-.2l.07.1c.75-.08 1.5-.25 2.24-.4l-.84.15c.2-.36 1.75-.12 3.24-.93 1.48-.55 2.53-1.9 3.83-2.72.5-.58-.37.6.44-.2.13.1-.35.4-.04.33.82-.75 1.52-1.06 2.38-2.14l.13.04c.26-.37.53-.7.8-1.03.26-.3.55-.67.7-.76.43-.3.94-.35 1.4-.44a2.78 2.78 0 0 1 .45.04c.16.04.1.04.26.1.2.1.32.2.45.3.24.22.5.4 1.42.64zm-1.86-8.74c-.01-.06.01-.16.05-.15l-.1-.1c-.34.65-.07 1.27-.2 1.94.07-.2.1-.47.16-.27l-.1.63-.08-.15-.2.93.15-.1c-.14.45-.38.58-.28 1.13.06.25.24-.4.2.08-.07.22-.16.22-.27.27-.12.02-.16 0-.35-.04.05.15-.16.12-.38.12l-.01-.13c-.86.05-.27-.3-1.12-.3l-.17.15c-.78.14-.37-.3-1.24-.1.33.03.12.3-.28.18l.12-.1c-.23-.01-.3.03-.45-.01.14-.05.1-.16-.24-.2l.24-.12-.65.13c-.46-.2-1.24-.14-1.42-.34 0 0-1.02-.23-1.28-.08.22-.08-.34-.2-.16-.32-.28.1-1.1.1-1.4-.1l.06-.01c-1.15-.3-2.02-.1-3.05-.4.03.15-.52-.01-.4.2-1.1.03-1.93-.65-2.4-.14-.5-.04-.57-.22-.82-.28h.12c-.93-.08-1.2-.12-1.9-.23-.35.01-.44.26-1.05.1.2-.08-.04-.1-.27-.12.15 0 .2-.03-.1-.14-.05.03-.12.04-.18.04 0-.01-.01-.02 0-.03-.4-.02-.33.02-.15.06-.01.01 0 .04.05.07-.38-.2-1.1-.15-1.13-.33-1.16-.12-2-.05-2.98-.12-.1-.1.14-.16.42-.15l-.7-.06c.02-.13.4-.02.62-.02-.4-.16-.82-.17-1.26-.18-.2 0-.5-.01-.63-.03-.12-.01-.24-.08-.3-.2-.04.01-.1.01-.14.01l-.01-.03c-.04.04-.18-.01-.23-.08.08-.12.23-.1.2-.28.03-.05.04-.05.05-.2.01-.13.01-.26.01-.4l-.04-.83c-.05.26-.1.17-.13.05.02-.24.15-.36.12-.55l.16-.01c-.16.08-.1-.64-.15-.73.13-.12.06.38.14.45l.12-1.43c-.07-.52-.16.08-.27-.18.01-.45-.05-.9.1-1.4l-.16.15v-.24l1.46.35 3.32.77c2.23.5 4.48 1 6.75 1.43 4.53.84 9.12 1.52 13.6 1.47.27-.02.56-.03.86-.05 0 .1.01.17.04.22-.1.03-.2 1.23-.3.52zm21.9-18.9c.01-.01.01-.03.02-.04v.1c0-.02 0-.03-.01-.05zm41.1 17.28c-.02.2-.05.28-.12.03l.12-.03zm-1 4.2c-.84.18-.3-.27-1.14-.12l-.15.18c-.75.26-.4-.25-1.24.1.33-.03.16.27-.25.22l.1-.12c-.22.03-.3.08-.45.06.13-.07.07-.18-.26-.15l.22-.15-.62.23c-.48-.12-1.25.05-1.45-.12 0 0-1.04-.07-1.28.12.2-.12-.37-.15-.2-.3-.27.13-1.06.25-1.38.12l.06-.02c-1.18-.13-2 .22-3.07.06.05.14-.5.07-.37.26-1.1.2-2-.35-2.38.22-.5.04-.6-.13-.85-.15l.12-.03c-.93.06-1.2.07-1.9.06-.34.06-.4.33-1.02.27.2-.1-.05-.1-.3-.08.15-.02.2-.06-.1-.12-.04.03-.1.05-.17.07 0-.01-.01-.01-.01-.03-.4.04-.32.07-.14.1-.01.02.01.04.06.07-.4-.13-1.12.02-1.17-.16-1.16.06-2 .25-2.95.34-.1-.1.12-.18.4-.22l-.7.04c0-.13.4-.08.6-.1-.58-.15-1.18.03-1.83.08h-.1c-.08.03-.2 0-.27-.1a.32.32 0 0 1-.14.03v-.03c-.03.04-.18.02-.24-.06.07-.13.22-.13.15-.3.02-.05.03-.07.02-.2-.01-.13-.02-.26-.05-.4l-.16-.82c-.01.27-.08.18-.12.07-.01-.24.1-.38.04-.56l.16-.03c-.14.1-.2-.62-.25-.7.1-.14.12.37.2.42l-.08-1.43c-.14-.5-.15.1-.3-.14-.02-.2-.05-.38-.08-.57a75.6 75.6 0 0 0 3.02.42c7.68.85 15.52.68 21.2-.2l1.5-.24c-.06.55.17 1.05.14 1.62.04-.2.03-.47.1-.3l-.02.64-.1-.13-.06.95.13-.13c-.07.46-.28.63-.1 1.15.1.24.17-.44.2.05-.05.14-.14.22-.24.26a.23.23 0 0 1-.14.01l-.07-.01c-.02-.01-.06-.01-.18-.01.07.14-.14.14-.36.17l-.03-.14zm35.72 26.38c-5.7-.16-11.8.25-17.1-.17l-.23-.15c-.1-.22-1.46.3-1.66.1l-.62.1c-.17-.04-.54-.1-.23-.13-.57-.02-.58.02-1 .08l-.6-.14c-2.24-.14-4.16.1-6.52.01-2.83-.3-8.18-.14-11.26-.04-3.67.22-7.83-.4-11.72-.42.13-.1.28-.27.44-.6h.03c.04-.28.03-.46-.14-.62.17-.06-.02-.22.02-.3h.02c-.16-.14.04-.35-.1-.48.01 0 .06-.01.07.03-.05-.1-.12-.25-.03-.28-.1-.26-.16-.64-.37-.76h.03c-.13-.06-.06-.12-.14-.2.01-.01.01-.02.02-.02-.14-.07-.12-.3-.2-.36l.06-.03-.1-.2.02.08c-.18.04.05-.2-.12-.3-.03-.15-.46-.12-.44-.3-.1-.03.15 0 .05-.07.1-.04.08.02.13-.04-.08-.08.02-.2-.1-.3l.07-.04c-.2-.1-.05-.33-.22-.37-.13-.13.15-.2-.07-.3l.06-.1c-.02-.08-.13.01-.13-.1.06-.03-.01-.12.07-.1-.01-.22-.32-.28-.3-.6-.14.01-.15-.14-.25-.13.04-.03-.14-.23.04-.17.02.01.03.03.01.04l.07-.02c.03-.2-.22-.2-.3-.34.01.05.04.1-.02.1l-.07-.12.07-.01a1.14 1.14 0 0 0-.1-.19l-.04.07c-.03-.1.05-.2-.1-.24-.08 0-.02.14-.1.07-.05-.14-.1-.35-.22-.5-.05.07-.08.03-.13.01l.05-.05c-.2-.06.07-.16-.12-.24l-.1.05c-.22-.01.05-.17-.23-.16.06.04-.1.14-.13.06l.07-.04c-.05-.02-.08-.01-.1-.05.05-.01.08-.07.02-.1l.1-.03h-.2c-.03-.13-.22-.16-.2-.27 0 0-.14-.2-.25-.13.08-.02 0-.13.08-.17-.1.02-.27-.03-.28-.14h.02c-.16-.22-.42-.17-.55-.38-.04.08-.12-.03-.15.08-.26-.03-.24-.42-.5-.18-.1-.04-.07-.13-.1-.18h.03c-.2-.07-.24-.1-.36-.18-.08-.01-.17.13-.26.03.07-.03.01-.05-.03-.07.03.01.05-.01.01-.08-.02.01-.04.02-.05.02-.07-.03-.07 0-.04.02-.01.01-.01.02-.01.04-.04-.1-.2-.1-.17-.2-.23-.1-.44-.06-.64-.1 0-.06.07-.1.13-.08l-.14-.04c.03-.07.1-.01.14 0-.1-.2-.38-.03-.52-.22l-.06.04h-.01c-.01.03-.07.06-.1.06 0-.08.06-.15-.03-.18-.05-.1-.22-.06-.33-.05.05.03.02.06-.01.08-.05-.02-.05-.1-.1-.08l.03-.1c-.01.1-.16.05-.2.08 0-.08.1-.03.12-.08l-.3-.1c-.12.03-.01.1-.1.15-.1-.01-.2.02-.3-.07v.1c-.2 0-.28-.03-.37-.15-.73.14-.82.38-.77.54.04.16.26.28.26.28.4.3.7.15 1.3.3.46.23.52.42 1.03.58.22.1.47.2.7.3.16-.05.28.16.45.13v.1c.06-.01.12 0 .14.06l-.01.02c.1-.01.14.06.18.06l-.01.02.08.04-.03.02a.53.53 0 0 1 .32.17l.04-.08c.15.2.3.12.42.34l-.02.02c.37-.02.24.38.6.4-.04 0-.02.04-.03.06.1.06.23.14.34.02.07.07.02.1-.02.15.05-.06.13-.02.2.03h-.04l.17.13.07-.13c.05.1-.1.14 0 .2l.08-.08c.1.13.03.3.05.48.36.48.96.86 1.06 1.5l-.06.06c-.1.07.25.05.15.13l.08.03c-.01.03-.02.08-.06.06.02.06.04.05.1.07l-.04.1c.06.25.3.37.37.63-.01.35.35.84.54 1.14.35.4.02 1.08.33 1.5-.01.02.04.05.05.05l.06.44s.07.52.2.84c.03.08.07.13.1.17-.6 0-1.17.02-1.74.06-.14-.03-.52.03-.52.06l-4.05-.1-2.56-.03h-.48c-.08-2.06-.1-3.5-.3-5.1.28-.3.08-2.2.2-2.8l.02.06c-.13-1.64.44-3.32.5-4.87.01.06.08.1.04.46.12-1.13.4-2.62.6-2.64.03-.1.06-.22.1-.34.02-.06.05-.1.1-.16.1-.1.25-.1.35 0 .04.02.06.04.1.06a4.46 4.46 0 0 1 .29.22c.2.17.42.33.63.5.44.34.9.67 1.37.94.94.55 1.86.83 2.52.93l-.14.01c1.1.13 1.37.32 2.56.4.06.03.14.04.13.05 1.16-.03 3.34.03 4.24-.2l.07.1c.75-.08 1.5-.25 2.24-.4l-.84.15c.2-.36 1.75-.12 3.24-.93 1.48-.55 2.53-1.9 3.83-2.72.5-.58-.37.6.44-.2.13.1-.35.4-.04.33.82-.75 1.52-1.06 2.38-2.14l.13.04c.26-.37.53-.7.8-1.03.26-.3.55-.67.7-.76.43-.3.94-.35 1.4-.44a2.78 2.78 0 0 1 .45.04c.16.04.1.04.26.1.2.1.32.2.45.3.26.2.53.37 1.44.62l.6.44c.45.2.57.17.8.2-.18.12-.33.14-.47.38-.1.1-.2.26-.27.38.05.14-.13.15-.1.28l-.08-.02c.01.05.01.1-.04.08l-.01-.02c.01.07-.04.08-.04.12l-.01-.02-.03.05-.02-.03c-.01.1-.05.16-.12.2l.07.05c-.17.05-.07.2-.24.23l-.01-.02c.07.28-.3.1-.24.37-.01-.03-.04-.02-.05-.04-.03.08-.08.15.05.26-.04.04-.07 0-.13-.04.06.05.05.1.02.14l-.01-.03-.06.1.12.07c-.08.03-.14-.1-.16-.03l.1.08c-.08.06-.25-.02-.38 0-.3.26-.32.76-.7.9l-.08-.05c-.1-.08.08.2-.02.13l.02.07c-.02-.01-.06 0-.07-.04-.03.03-.01.04 0 .1l-.1-.02c-.15.07-.1.27-.24.37-.25.04-.37.4-.43.62-.04.34-.65.27-.68.64-.02 0-.01.04.01.05l-.2.2s-.9.97.57.9l.02.02c.15-.07.22-.13.18-.3.14.1.1-.08.16-.07h.01c-.04-.16.2-.07.17-.2.01.01.04.04.03.06.02-.06.05-.15.13-.1.08-.13.25-.26.2-.44l.02.02c-.05-.1.03-.07.03-.15.01.01.02.01.02.01-.04-.12.1-.14.1-.2l.05.04.07-.1-.04.02c-.13-.13.15.01.1-.14.07-.05-.18-.37-.06-.38-.04-.1.08.12.07.03.07.06.03.06.1.1 0-.07.14-.01.14-.1l.06.05c-.04-.16.2-.07.13-.2.02-.1.2.1.17-.08l.1.04c.04-.02-.07-.1 0-.1.05.04.08-.01.1.05.15-.02.04-.26.26-.26-.07-.1.03-.1-.03-.2.04.03.1-.1.14.03 0 .01-.01.02-.02.01l.05.06c.16.03.04-.16.1-.2-.03 0-.05.03-.07-.02l.06-.05.04.05.1-.06-.07-.04c.07-.02.18.05.14-.06-.03-.06-.1-.03-.1-.1.1-.02.22-.06.3-.1-.07-.05-.05-.07-.05-.1l.06.05c-.01-.14.15.08.15-.05l-.07-.08c-.05-.16.15.06.06-.14-.02.04-.14-.1-.08-.1l.05.06c.01-.03-.01-.06.01-.06.02.04.07.07.1.04l.05.08-.05-.14c.1.01.08-.13.17-.08 0 0 .12-.06.05-.16.04.06.1.03.15.1-.04-.08-.03-.2.06-.16v.01c.16-.05.07-.26.23-.3-.07-.05.01-.07-.1-.13 0-.17.33-.03.1-.3.02-.06.1 0 .14-.01v.02c.05-.1.07-.13.13-.2 0-.05-.1-.16-.04-.2.03.06.04.03.06.01 0 .02.01.04.07.04-.01-.02-.02-.03-.02-.04.02-.04 0-.05-.02-.04-.01-.01-.02-.01-.03-.02.1.02.08-.1.17-.04.07-.12.05-.27.1-.4.05.03.07.08.07.12l.04-.08c.06.05 0 .07 0 .1.16.01.03-.24.2-.25l-.03-.06h.01c-.03-.02-.04-.07-.04-.1.06.03.12.1.16.06.08.01.06-.12.07-.2-.03.02-.05-.02-.06-.04.02-.02.08.01.07-.03l.07.06c-.07-.05-.03-.12-.05-.15.06.03.02.07.05.1.03-.04.04-.05.04-.06.2.1.34.2.08.13 1.27.66 2.68 1.08 4.22 1.74-.02.1-.04.18-.1.27-.2.2-.4.16-.53.44-.1.1-.17.25-.24.37.06.13-.1.15-.08.27l-.08-.02c.01.04.01.08-.04.08l-.02-.01c.02.07-.04.08-.03.1l-.02-.01-.02.04-.02-.03c0 .1-.04.15-.1.18l.07.05c-.16.05-.05.2-.22.22l-.02-.01c.08.27-.28.1-.2.36-.01-.03-.04-.02-.06-.04-.03.07-.07.14.07.25-.04.04-.07 0-.13-.03.06.05.05.1.03.14l-.01-.03-.06.1.13.07c-.07.03-.15-.1-.16-.02l.1.07c-.07.06-.25-.01-.37 0-.26.25-.27.74-.64.87l-.08-.04c-.1-.07.1.2-.01.13l.02.07c-.02-.01-.06 0-.07-.04-.03.02-.01.04 0 .08l-.1-.02c-.14.07-.1.26-.2.36-.24.04-.33.4-.38.6-.02.33-.62.26-.62.62-.02 0 0 .04.01.05l-.17.2s-.8.94.6.87l.02.02c.14-.07.2-.13.16-.3.14.1.1-.08.15-.07l.01.01c-.05-.15.2-.07.15-.2.01.01.04.04.04.06.02-.06.04-.15.12-.1.07-.13.23-.26.16-.43l.02.02c-.05-.1.03-.06.02-.14.01.01.02.01.02.01-.05-.1.1-.14.08-.2l.05.04.06-.1-.04.02c-.13-.13.14 0 .1-.13.07-.05-.2-.36-.08-.37-.04-.08.1.1.07.03.08.06.03.06.1.1 0-.07.13-.01.13-.1l.06.04c-.05-.16.18-.07.12-.2.01-.1.2.1.16-.08l.1.03c.04-.02-.08-.1-.01-.1.05.04.08-.01.1.04.14-.02.02-.25.24-.26-.08-.1.02-.1-.04-.18.04.03.1-.1.14.03 0 .01-.01.02-.02.01l.05.05c.16.03.03-.16.1-.2-.03 0-.05.03-.07-.02l.05-.05.04.05.1-.06-.07-.04c.06-.02.18.05.13-.06-.03-.06-.1-.03-.1-.08.08-.02.2-.06.28-.1-.07-.05-.06-.06-.05-.1l.06.04c-.02-.14.15.08.14-.05l.04.04-.1-.12c-.06-.16.15.06.05-.14-.01.04-.14-.1-.1-.1l.05.05c0-.03-.01-.05.01-.06.02.04.08.07.1.03l.06.08-.06-.14c.1.01.07-.12.17-.08 0 0 .1-.06.04-.15.04.06.1.03.15.1-.04-.07-.04-.18.05-.16h0c.15-.05.05-.25.2-.28-.07-.05 0-.07-.1-.13-.01-.16.32-.04.08-.28.02-.06.1 0 .14-.01l.01.02c.04-.1.06-.13.1-.18 0-.05-.12-.15-.05-.2.04.06.04.03.06.01 0 .02.01.04.07.04-.01-.02-.02-.03-.02-.04.02-.04 0-.04-.02-.03-.01-.01-.02-.01-.04-.02.1.02.07-.1.16-.04.06-.12.03-.26.07-.37.05.03.07.08.07.1l.03-.07c.06.05.01.06.01.1.16.01.02-.23.18-.24l-.04-.06h.01c-.03-.02-.05-.07-.05-.1.06.03.13.1.16.06.08.01.05-.1.05-.18-.03.02-.05-.02-.06-.04.01-.02.08.01.07-.03l.08.06c-.08-.05-.03-.1-.06-.15.06.03.02.07.06.1.06-.1.03-.04.1-.13-.02-.1-.08-.05-.12-.12.02-.05 0-.13.08-.14l-.08-.04c0-.05.02-.07.03-.1.37.18.75.37 1.14.6.6.04 1.78.68 2.23.7.03.1 2.43 1.1 1 .66-.12-.04-.33-.13-.3-.16l-.2.04c1.28.82 2.55 1 3.88 1.65-.38-.22-.92-.45-.53-.37l1.25.6-.3-.03 1.84.92-.2-.24c.88.5 1.1.83 2.2 1.16.5.13-.78-.57.2-.14l4.4 2.52c-.07-.2.33.02.75.22l-.01.14c1.64.74.45.55 2.03 1.34l-.18-.01.53.03c.74.32.86.5 1.02.68.15.18.35.35 1.05.75-.5-.4 0-.4.47.17l-.2-.05c.15.14.24.22.28.27.03.03.05.06.08.1.03.05.05.12.08.2-.17-.2-.2-.06.06.54-.1-.12-.2-.23-.3-.34.24.33.45.7.66 1.1.2.96.67 2.5.56 2.95l.13.98c-.26-.06-.5-.1-.66-.1z"/><path d="M306.4 446.93l-.1-.15c.04.05.07.1.1.15z"/><path d="M306.4 446.94h0v-.01zm-65.5-.01l-.1-.15c.04.05.07.1.1.15z"/><path d="M240.9 446.94h0v-.01zm-55.05-12.47h0l.05-.02zm29-4.95h0l.03.04zm37.24 4.95h0l.05-.02zm23.65-7.57h0l.03.04zm-7-10.13h0l.07-.1zm-63.46 1.36h0l.08-.07zm72.7-152.8l.03-.04c-.02-.02-.03-.01-.03.04z"/><path d="M184.97 314.33c.4-.93 2.44-6.74 5.44-21.03v.4c1.6-8.52 2.44-13.92 3.02-19.87.44-.9.97-7.05 1.32-9.05v.2c.42-5.27 1.47-10.8 1.8-15.87 0 .2.07.32-.05 1.48.35-3.7.8-8.75.98-9 .84-8.82 1.9-21.15 2.05-26.83l.02.4c.02-1.5.08-2.5.16-3.5l.12-1.57c.02-.24.03-.5.05-.77.01-.15.01-.3.02-.5.1-.01.23-.01.37-.02.1.02.22.03.2.04 3.45-.18 10.26-.03 13.1-.1l.18.1 7-.03h-2.62c.9-.3 5.3.2 10.4-.01 4.76.04 9.65-.64 14.6-.5 2.36-.14-2.08.23 1.45.12.12.16-1.65.1-.74.23 3.46-.08 5.67.16 9.94.06l.17.12c2.78-.1 5.4-.07 7.8-.03l3.4.05h.63c.12 0 .23-.01.35-.01h.18c.05 0 .15-.03.12.04l4-.2a1.94 1.94 0 0 1 .02.24l.05.6c.04.53.05.88.02.97.88 7.6 1.83 12.98 2.75 19.26 0 .72-.28-.74-.56-2.56l.65 4.46c-.14-.02-.44-2.55-.65-3.93.5 5.35 1.74 10.93 2.43 17.18l.3 1.28.04.37c.05-.03.33 1.36.48 2.28.01.9-.27-.02.17 3.06.23 2.45 1.04 6.92 1.54 10.1-.22-1.72-.08-1.18.07-.44.22 1.54.23 2.44.44 3.63l-.1.13c.14.2.7 4.1.82 4.6 0 .9-.43-2.38-.57-2.75l1.28 9.27c.55 3.3.07-.62.4.94.42 2.9.9 5.74 1.22 9.1v-1.08c.8 5.47 1.16 8.75 1.46 12.46l2.52 18.57c.4 2.72.54 2.5.57 1.02 0-1.5-.13-4.28-.28-6.68l-.35-4.43c-.66-8.1-1.42-14.2-2.32-20.67l-3.32-22.86-5.2-38.67-1.6-12.7-.53-4.77c-.02-.02-.06 0-.1-.01h-2.13l-1.67.01-6.27.03c-1.02.06-2.24.08-3.57.1l-4.5.01-.76.4h-5.72c-11.07-.27-31.9-.02-43.9.12l-5.04.06-.46 6.7-.5 6.13-1.2 12.47-2.52 24.55c-.05.28-.1.78-.13 1.2-.02.2-.03.4-.04.56-.01.14-.01.23 0 .23l-2.05 15.65-.44 3.14-1.18 7.78c-.96 6.2-2.32 13.82-3.47 19.63l-1.4 6.98c-.3 1.65-.4 2.43-.15 1.97zm-12.37 54.4l-.04.03c.01.02.02.02.04-.03z"/></svg>