<svg xmlns="http://www.w3.org/2000/svg" viewBox="0 0 480 480" xmlns:v="https://vecta.io/nano"><path d="M303.96 438.1h-1.08c.15 0 1.1-.12 1.38-2.8.24-2.3-2.33-3.23-6.77-4.47l.07-.43c.1-.4-.2-.6-.5-.8l-10-4.1c-.6-.2-.9 0-.9.5l-.2 1.2-4.22-1.6.22-1.1c.1-.3-.1-.7-.3-.9l-10.2-5.1c-.2 0-.5 0-.6.3l-.22.97c-.47-.5-.87-3.66-1.17-7.28h4.7c1.7 0 3.3-1.4 3.4-3.2 1-13.5-.4-84.1-.5-98.5-.1-14.3-3.5-80.8-5.6-102.7h-16.8l-.2.1h-54.8l-7.6 97-14 101.8c-.4 2.7 0 4.2 2.1 4.4l1.75.1-2.05 12c-.01.03-.02.06-.04.08l-.76-.18-.42 2.15.05-.24c-.01.03-.02.05-.03.07-.13.5-.12.54-.08.47l-.82 4.24.3.06c-.35 3.6.4 6.9 2.96 7.94h-.25c-1.4 0-2.6 1.2-2.5 2.6v5.9c0 1.4 1.2 2.6 2.6 2.5h56.3c1.4 0 2.6-1.2 2.5-2.6v-2.9h.1v-2.9c-.1-1.5-1.2-2.5-2.7-2.6h-.78c.15 0 1.1-.12 1.38-2.8.24-2.36-2.43-3.26-7.05-4.55l.05-.35c.1-.4-.2-.6-.5-.8l-10-4.1c-.6-.2-.9 0-.9.5l-.18 1.1-4.22-1.6.2-1c.1-.3-.1-.7-.3-.9l-10.2-5.1c-.2 0-.5 0-.6.3l-.1.43c-.12-1.14.33-3.74.96-6.63l4.14.2c2.6 0 4-1 4.8-3.4 3.97-12.88 13.26-46.3 20.64-71.5l6.76 71.8c-.1 1.4 1 2.6 2.4 2.7h1.9c.3 4.18.64 8.63 1 11.1l-.5-.1-1.3 6.7.66.13c-.66 3.67-.92 7.24 1.55 8-1.03.35-1.8 1.33-1.7 2.46v5.9c0 1.4 1.2 2.6 2.6 2.5h56.3c1.4 0 2.6-1.2 2.5-2.6v-2.9h.1v-2.9c-.1-1.5-1.2-2.5-2.7-2.6z" fill="#fff"/><path d="M179.5 441.1h0l.1.13z"/><path d="M240.67 443.44v-.86l-.02-.88-.03-.98a3.84 3.84 0 0 0-.27-1.17c-.3-.74-.86-1.28-1.4-1.58a2.96 2.96 0 0 0-1.37-.37c-.04 0-.07.01-.1.01.2-.38.3-.75.4-1.1a9.27 9.27 0 0 0 .23-1.33c.1-.95-.4-1.86-.97-2.25-.42-.35-.7-.53-.93-.67l-.5-.34c-.3-.2-.62-.38-1.62-.66l-.73-.35c-.76-.26-.67-.1-1.34-.32a1.74 1.74 0 0 0-.51-1.64c-.25-.26-.55-.5-.9-.63l-.7-.27-1.1-.4c-.4.06-.92-.38-1.38-.37l-.1-.17c-.16 0-.33-.03-.45-.14l.02-.03c-.24 0-.45-.14-.56-.14l.02-.03-.25-.1.06-.03a3.17 3.17 0 0 1-1.06-.37l-.03.15c-.63-.43-1-.26-1.54-.7l.02-.03c-.93.03-1.14-.75-2.1-.74.12 0-.01-.1.01-.12-.4-.1-.8-.26-.9 0-.4-.15-.32-.18-.35-.3-.03.15-.4.01-1 .3.08-.06.16-.1.24-.15-.27.07-.57.32-.7.58-.13.25-.14.47-.14.65a1.95 1.95 0 0 1 .25-.18c-.04.14-.06.2-.1.25l.01-.1c-.1.07-.2-.03-.2.22l.2.03c0 .02-.01.03-.02.05l-1.85-.64c.44.2 1.03.4.62.3l-1.27-.5v-.03l.18.03-.17-.07.1-.57c.1-.47.01-.9-.16-1.3-.13-.18-.28-.38-.47-.57-.2-.18-.44-.33-.72-.47l-.3-.15-.23-.1a1.6 1.6 0 0 0-.44-.14l-.14-.2c-.2-.03-.42-.1-.56-.24l.03-.03c-.3-.05-.56-.24-.7-.26l.03-.03-.32-.14h.08a5.46 5.46 0 0 1-1.34-.6l-.03.15c-.8-.58-1.24-.47-1.94-1.03l.03-.03c-1.16-.15-1.44-1-2.62-1.2.15.02-.02-.1.01-.12l-.36-.15-.54-.2c-.33-.12-.53-.12-.54.04-.38-.13-.43-.2-.46-.26.04-.23.08-.56.12-1.33-.1.76-.23.33-.03-.6l.03.25.16-1.04c-.02.32.07.18.2-.58l-.01.53.13-1.18 4.04.17c.82-.03 1.62-.14 2.42-.46.8-.3 1.48-.86 1.94-1.46.54-.58.9-1.24 1.2-1.9l1.53-5.14v.1l1.76-6.3v.1l.83-2.9-.1.5c1.1-4.2 2.34-8.5 3.46-12.26l-.23.27c2.47-8.05 3.02-11.1 5.3-18.34l.01.1c2.27-9.33 4.42-14.52 6.83-24.12-.3 1.2.22-.5.23-.38 1.23-4.4 2.6-9.06 2.34-9.2.95-3.18.86-2.56 1.1-2.95-.12-.02.64-2.8 1.4-5.27l-.3 1.15 2.15-7.1-.66 1.32c1.25-3.73.56-.87 1.67-4.47l-.2-.02.64-1.83c.1-.3.2-.57.3-.85.05-.16.1-.23.16-.47l.1-.42.88-3.17 1.88-6.63 14.7-59.62c1.3-5.45 4.84-20.6 4.37-21.17-.3-.36-2.03 5.4-3.63 11l-.2.77c0-.01-.01 0-.02.01l-1.84 6.6c-1.14 4.73-2.23 9.82-3.94 15.8-.24 1.8-1.38 5.86-1.56 7.22-.14.2-2.06 8.18-1.1 3.55.08-.4.26-1.1.28-1.04l.02-.58c-1.38 4.57-1.98 8.43-3.16 13 .38-1.35.82-3.15.6-1.93l-1.08 4.25.12-.9-1.64 6.32.34-.84c-.83 3.1-1.32 4.12-2 7.67-.3 1.6.9-2.9.12.4l-4.07 15.62c.26-.46-.1.97-.4 2.44l-.16.14-.2.96c-.02.07-.03.14-.04.2 0 .01 0 0-.03.1-.04.13-.08.24-.1.35l-.35 1.05c-.2.53-.3.77-.43 1-.23.48-.5.95-1.28 3.72l-.14 1.02c-1.3 5.03-1.08 2.6-2.43 8.2.63-2.2.57-.95-.28 1.72l.1-.72c-.42 1.5-.52 2-.84 3 .2-.9-.03-.52-.66 1.67l.3-1.5-1 4.2c-1.07 3.16-2.38 8.27-2.93 9.54 0 0-2.07 6.86-2.34 8.48.3-1.4-.84 2.37-.66 1.25-.4 1.82-1.8 7.1-2.53 9.18l.1-.4c-2.37 7.76-3.62 13.4-5.78 20.34.23-.28-.9 3.4-.46 2.53-1.9 7.3-4.16 13.08-4.38 15.85-.93 3.3-1.28 3.85-1.82 5.53l.2-.8-.62 2.1c-.18.56-.42 1.06-.68 1.44-.53.76-1.2 1.1-2 1.26a5.93 5.93 0 0 1-1.19.12c-.43-.01-.9-.04-1.37-.06l-3.14-.16c-2.37-.06-2.76.2-7-.08 1.38-.04-.36-.1-1.95-.18 1.02.03 1.33.01-.75-.16a14.83 14.83 0 0 1-1.18.01c-.02-.01-.1-.02-.06-.03-2.66-.1-2.2-.04-.96.04-.06.01.04.04.42.1-2.75-.27-7.7-.36-8-.56l-2.9-.12-1.38-.05c-.22-.01-.48-.01-.65-.03s-.34-.05-.5-.1c-1.2-.25-1.1-2.12-.9-3.62l1.34-9.6c.2-.73.07.83-.2 2.75l.66-4.68c.12.06-.3 2.7-.5 4.14 1.04-5.54 1.45-11.52 2.54-18.03l.08-1.37.07-.4c-.06.01.07-1.46.18-2.44.24-.9.26.1.7-3.14.46-2.54.92-7.28 1.3-10.64-.26 1.8-.25 1.2-.18.43.2-1.62.45-2.54.57-3.8l.14-.1c-.08-.24.45-4.33.46-4.9.24-.9-.23 2.53-.2 2.94l1.27-9.74c.34-3.48-.23.6-.15-1.07.37-3.06.66-6.06 1.22-9.56l-.3 1.1c.65-5.76 1.12-9.2 1.78-13.05 2.26-21.47 2.36-23.78 1.62-20.72-.72 3.07-1.96 11.5-1.96 11.5-2.57 16.8-3.28 25.57-5.85 45.64l-2.9 20-3 20.47-.54 3.27-.14.82c-.04.3-.1.62-.1.93-.05.62-.08 1.28.05 2.02.12.72.5 1.68 1.32 2.26a3.42 3.42 0 0 0 1.2.56 5.6 5.6 0 0 0 .59.12c.22.03.37.04.5.04l16.73.74c1.86-.01 4.36.1 7 .24-.06.45-.08.75-.01.77-.22 1.13-.22.9-.32 1.05.07.01-.07 1-.18 1.9l.02-.42c-.05.43-.1.86-.12 1.3v.05a4.12 4.12 0 0 0-.16.37c.05-.01.1-.01.15-.01v.17c-.15.14-.2-.13-.3.4l.18.1a2.56 2.56 0 0 1-.2.54c-.06.12-.14.23-.2.34-.15.22-.3.43-.45.7-.6 2.23-.75 4.72-1.43 6.82-.34-.06-.66-.13-.66-.26-1.03-.2-2.43-.62-3.14-.52l.06-.03c-.4.1-.5-.1-.92-.1-.02-.03-.04-.04-.04-.05-.45.08-1.2-.26-1.53-.26v-.1l-.8-.17.3.1c-.18.27-.56-.33-1.2-.28-.54-.17-1.26.35-1.8.07-.3.07.3-.17-.14-.16.02-.16.2-.05.14-.2-.42-.02-.6-.32-1.13-.33l.01-.13c-.7.07-1.17-.45-1.65-.34-.68-.06-.36-.47-1.1-.4l-.23-.23c-.3-.1-.26.15-.57-.01.04-.1-.4-.18-.18-.23-.7-.34-1.55-.13-2.46-.64-.26.15-.72-.1-.9.02-.01-.1-.98-.25-.38-.3.05 0 .13.02.12.05l.1-.1c-.5-.36-1.04-.12-1.58-.3.15.08.37.12.2.17l-.5-.14-.36-.16c.1-.57.17-1.15.3-1.77 1.4-7.45.27-7.65.05-6.7l-.02.47-.03.13c.03 0-.01.5-.05.84-.12.3-.16-.05-.34 1.06-.22.86-.4 2.5-.56 3.64.12-.62.12-.4.1-.14-.1.55-.22.86-.26 1.3l-.1.04c.07-.1.01.34-.05.8-.02-.01-.03-.01-.05-.02 0-.06.01-.1 0-.13-.01.04-.01.08-.02.12-.28-.12-.56-.2-.94-.2-.26.04.7.34.06.23l-.4-.14-.38 1.27-.35 1.3c.15-.03.1.14.1.32h-.13c.04.7-.17 1.05-.17 1.05.12.66.18.95.06 1.26 0 0-.07.15-.12.27-.04-.12-.27.72-.3.84-.04.2.27 2.58.12 2.6l.7.14a29.77 29.77 0 0 0 0 1.89c.3 1.86 1 3.22 1.82 3.93.1.08.2.14.3.22-.1.06-.15.1-.13.16-.52.16-.7.27-.82.3s-.12-.02-.2-.03c.07.1-.7.68-1.04 1.5.04-.13.1-.25.14-.37-.33.54-.48 1.2-.43 1.84v-.05.44l.24-.37c-.07 1-.3.25-.23 1.22l.2-.01-.04.83c-.08 0-.16 0-.24.01l.07 1.73c.01.13.01.25.02.38.01.1.01.17.02.25.02.15.03.3.05.43.07.53.15.9.24 1s.2-.02.35-.5c.1-.35.24-1.1.38-1.7l1.58.2c3.2.05 6.55-.1 9.8-.16.67.05 1.32.1 1.95 0-.05.02-.08.1-.37.1.93-.04 2.2-.1 2.28.07l3.2-.03.14.1c.06.13.6-.02 1.06-.1.2-.01.36-.01.54-.02.01.01.03.01.04.01l.12-.02c.23-.01.45-.03.67-.04.14.03.25.06.04.1.56.01.57-.03.97-.1l.6.13c2.2.1 4.08-.15 6.4-.1 2.8.27 8.03.02 11.05-.12.62-.05 1.25-.06 1.9-.07.4.1.53.24 1.52.08l.58.17c.64.03.46-.2 1.17-.12-.04.1.9.08.48.2.97.1 1.96 0 3.05-.04.66.03 1.32.05 1.98.05.13.01.25.02.38.04.03-.01.08-.02.1-.04.8 0 1.6-.02 2.36-.08.12.03.38-.02.47-.05.3.02.42.05-.12.14-.1.02-.3.01-.27-.02l-.14.12c1.2.23 2.2-.13 3.4-.1-.36-.04-.83-.03-.5-.1l1.12.02-.23.1 1.66.06-.23-.13c.4.03.7.1.96.14.05.04.05.05.2-.04.16-.08.01-.14.1-.18h.16c-.03.16-.07.32-.1.44l-.1 1.54v.08a1.59 1.59 0 0 1-.11.49c.16-.02.1.18-.02.4l-.12-.05c-.2.38-.36.36-.45.33-.1-.03-.18-.03-.5.1l.05-.1c-.04.1-.1.2-.16.28-1.22.26-.68-.26-2.13.08.58-.02.27.27-.44.22l.18-.12c-.4.03-.53.08-.8.05.23-.06.12-.17-.46-.15l.4-.15-1.1.22c-.85-.13-2.2.03-2.54-.14 0 0-1.82-.08-2.24.1.37-.12-.64-.16-.35-.3-.47.13-1.87.24-2.42.1l.1-.02c-2.06-.14-3.53.2-5.38.02.08.14-.9.07-.65.25-1.92.18-3.5-.38-4.2.2-.87.03-1.03-.13-1.48-.16l.2-.03c-1.63.05-2.1.05-3.32.04-.6.06-.7.32-1.8.26.35-.1-.1-.1-.5-.1.26-.02.34-.06-.2-.13-.08.03-.2.05-.3.07 0-.01-.03-.01-.01-.03-.68.04-.56.07-.24.08-.02.02.01.04.1.07-.7-.14-1.96.01-2.04-.17-2.04.04-3.5.23-5.2.3-.2-.1.2-.18.7-.2l-1.2.03c.01-.13.7-.08 1.06-.1-1.43-.22-2.95.22-4.63.02l-.35.1-.1-.02c.01.06-.37.13-.62.15-.24-.12.02-.27-.8-.26-.66-.1-1.87.06-2.73.12.46.02.3.08.1.13-.42 0-.65-.1-.98-.06l-.04-.16c.16.15-1.1.16-1.24.22-.24-.12.64-.1.75-.2l-2.5.02c-.9.12.16.15-.26.3-.78.03-1.55.14-2.45.05l.3.14c-1.47.1-2.36.1-3.35-.05L181 449h-.01c-1.1.2-1.96-.4-2.4-.93-.46-.55-.62-1.06-.7-1.37-.18-.53-.33-.43-.43.1-.12.6.14 1.66.72 2.34a3.46 3.46 0 0 0 .86.77c.25.17.43.24.43.24a3.41 3.41 0 0 0 1.63.33h-.1c3.67.18 5.94-.17 10.64-.27 4.53.07 5.73.34 10.42.23 2.24.02 4.62-.04 6.8-.07 1.04-.2 2.87 0 4.1-.18l.48.12c.42-.06.92-.1 1.35-.04l-.03.03c.63-.1 1.35-.04 1.66-.08l-.03.04.77-.02-.13.05c1.1-.1 2.24-.1 3.24-.06l-.08-.15c2.14.16 2.92-.14 4.86.05l-.03.04c2.44-.38 3.86.26 6.38-.1-.3.05.13.07.1.1 1.16-.04 2.4-.06 2.42-.35.85 0 .7.1.8.2 0-.12.73-.18 1.4-.18l-.3.05 1.42-.03c.16-.01.4-.01.6-.06-.17-.05-.33-.12-.48-.2.6 0 .7.01.78.05.08.03.18.1.72-.2l-.1-.17c.6-.3 1.03-.7 1.37-1.15.34-.45.57-1 .6-1.68v.06a12.16 12.16 0 0 0 .1-.74v-1.24h.02c-.16-.37-.17-.73-.17-1.1zm-7.6-11.44c.2.1.65.27.26.16.7.25.72.23 1.22.38.24.1.45.25.67.38 1.1.54 1.87 1.2 1.83 2.1 0 .47-.1 1.1-.24 1.6-.05.2-.3.64-.5.92-1-.15-2.1-.26-2.1-.26l-3.23-.2c.35-1.2.14-2.05.28-3.66.12-.6.24-1 .35-1.4.04-.13.07-.25.1-.38.26.06.47.1.53.17l.8.2zm-13.52-1.2c.01.04 0 .1-.04.1l.1.07c.3-.38 0-.78.1-1.18-.06.12-.08.28-.14.16l.08-.38.1.1.15-.56-.14.06c.1-.27.34-.33.2-.67-.08-.16-.2.24-.2-.06.15-.36.37-.9.48-1.36-.15.02-.12-.1-.13-.24h.13c-.02-.13-.01-.2.01-.25.24.16.62.2.66.4 0 0 .55.32.76.2-.16.06.14.23 0 .32.2-.06.7.03.8.23h-.04c.6.4 1.2.28 1.74.7.03-.14.3.06.3-.15.68.08.98.8 1.42.37.3.1.28.26.4.35h-.08a7.89 7.89 0 0 1 1.08.4c.22.03.35-.2.67 0-.15.05 0 .1.13.15-.1-.02-.13.01.01.14.04-.02.08-.02.12-.02 0 .01 0 .02-.01.03.23.05.2.01.1-.05.01-.01.01-.04-.01-.08.17.22.63.25.6.43.17.06.33.1.48.14.12.02.17.01.27.02.16.02.4.08.46.26-.1.07-.18.02-.26-.03.05.05.08.12.07.18-.13.03-.07-.1-.13-.13-.05.13-.06.18-.02.28l.03.1c.01.05.01.15 0 .23-.01.16-.04.32-.12.48l.1.14-.02.03c.06.01.1.15.12.24-.13.06-.27-.05-.3.24-.15.2-.04.65-.02.95.04-.16.1-.1.13-.02-.02.14-.15.2-.1.33l-.16-.01c.16-.03.1.4.16.46-.13.06-.07-.24-.15-.3l-.1.86c.07.32.16-.03.27.13-.01.27.06.55-.08.85l.15-.08c.03.52-.03.82-.22 1.14a14.92 14.92 0 0 0 .09.58c-2.07-.07-4.14-.07-7.18-.01a118.55 118.55 0 0 1-4.33-.15c.05-.1.16-.2.13-.48l.13.01c-.15-.52.3-.88.15-1.23-.02-.5.42-.27.26-.83l.2-.17c.06-.22-.18-.2-.06-.42.1.03.13-.3.2-.14.25-.53-.05-1.16.35-1.84-.18-.2 0-.54-.13-.68.1-.04.15-.77.27-.32zm-4.84 1c.47-2 .84-2.47 1.14-4.57l.14-.72 2.06.76c-.01.01-.01.02-.02.03-.4 1.9-.24 4.03-.87 5.75l-.16.05c-.22 0 .23.54.03.58l.06.22c-.05.05-.1.17-.14.06-.04.2-.01.2.04.35l-.17.18c-.1.37-.13.72-.15 1.08l-.03.55c-.02.2-.03.33-.1.7a65.32 65.32 0 0 0-2.58-.05c.58-1.7.42-2.78.75-4.97zm-12.48-1.77l.22-.22c.1-.28-.15-.25 0-.55.1.04.17-.38.23-.17.32-.67.1-1.5.6-2.37-.15-.25.07-.7-.04-.88.1-.01.23-.94.3-.37.01.05-.02.13-.05.12l.1.1c.35-.48.1-1 .25-1.52-.08.15-.1.36-.16.2l.13-.5.08.13.23-.72-.15.07c.15-.34.4-.42.3-.87-.06-.2-.24.3-.2-.1.2-.46.5-1.15.66-1.75-.15.03-.1-.14-.1-.3l.13.01c0-.2-.01-.18.01-.2.02-.01.05 0 .1.01.07.02.14.07.08 0l.07.07a2.28 2.28 0 0 1-.22-.22c-.1-.18-.03-.15.03-.1s.07.1.07-.13c-.06.04-.17-.38-.01-.26l.01.14c.05-.01.06-.05.1 0-.03.06 0 .2.06.2a.4.4 0 0 0-.03.15c.02-.07.06-.13.13-.18.03.05.01.06.1.1l.3.15c.2.1.37.18.4.3 0 0 .7.44.95.36-.2.03.2.27.01.33.25-.02.86.16 1.02.4l-.05-.01c.77.54 1.5.54 2.18 1.07.03-.15.4.12.38-.1.86.22 1.24 1.04 1.78.67.37.15.36.33.53.45l-.1-.02.75.33c.1.05.2.1.28.14.07.04.15.08.24.13.1.01.4-.23.47.06-.14-.02-.07.06-.04.15-.04-.05-.07-.04-.12.08.04 0 .06.02.08.04-.01 0-.02.01-.03.01.02.13.05.1.08.04.02 0 .04 0 .07-.03a.51.51 0 0 0-.09.13c-.02.04-.05.22-.08.34s-.07.2-.14.2c-.14.9-.08 1.6-.16 2.36-.1.07-.15-.13-.15-.35l-.07.54c-.13-.03-.01-.32-.01-.5-.34.6-.05 1.35-.4 2.06l.07.17-.03.04c.06.01.1.2.1.3-.14.08-.26-.06-.33.3-.17.27-.1.84-.12 1.23.06-.2.1-.12.13-.03-.03.18-.17.27-.15.42l-.16-.01c.16-.04.06.5.1.6-.14.08-.04-.3-.12-.37l-.2 1.1c.04.42.16-.04.26.17-.04.35 0 .7-.17 1.1l.16-.1c-.02.67-.12 1.06-.34 1.48a14.25 14.25 0 0 0 .06 1.07c-.2 0-.43.01-.66.01-2.24-.02-4.63.04-6.82.07-1.04.2-2.87 0-4.1.18l-.48-.12c-.03 0-.06 0-.1.01.01-.04.02-.08.01-.1l.12-.04.03-.17.05-.26-.04.14-.03.07c-.07-.02-.1-.05-.08-.1a1.1 1.1 0 0 1 .12-.25c.1-.2.24-.44.2-.74.16-.52-.38-1.2-.1-1.73-.08-.3.17.28.16-.13.16.02.06.2.2.13.01-.4.3-.6.3-1.1l.13.01c-.08-.67.43-1.13.3-1.6.05-.64.46-.32.38-1.04zm-23.2-1c0-.04-.01-.05-.01-.1.01-.13.02-.26.02-.37 0-.22-.03-1.1.02-1.42l.02.15.13-.88s.04.06.07-.4c0 0 .02-.6.16-.82.16-.3.27-.33.35-.36a1.42 1.42 0 0 0 .05-.22l.22.03.12.01.38.07 1.76.32c1.16.22 2.3.48 3.3.9l.07.17c0 .22.73-.15.77.06l.3-.03c.07.06.22.14.07.15.25.07.27.04.47.02l.24.2c.98.34 1.9.3 2.94.6 1.2.57 3.66.9 5.07 1.1 1 .08 2.02.46 3.05.84.5.2 1.03.38 1.54.53.1.03.2.05.3.07-.02.12.01.16.02.3l-.2.23c-.32.93-.27 1.8-.53 2.78-1.35-.3-2.45-.25-4.36-.54-2.07-.47-11.4-2.27-11.4-2.27l-.3-.1c-.53 0-1.05-.1-1.5-.23l.01.15c-.96-.35-1.38-.13-2.23-.5l.02-.03c-.2.03-.4.03-.58.01-.05-.01-.1-.01-.13-.02l-.04-.01c-.03-.01-.05-.02-.07-.03-.1-.05-.12-.13-.17-.15.03-.08.02-.1-.08-.2.05.03.1-.03.13-.03zm1.35 7.82c-.07-.06-.13-.12-.2-.17-.05-.07-.1-.14-.15-.2l-.26-.34c-.13-.2-.2-.36-.2-.36-.56-1.13-.7-2.34-.77-3.46-.01-.28-.01-.56-.01-.83l.5.1c.92.32 1.67.13 2.5.46-.01-.15.42.02.35-.2.92-.01 1.54.68 1.97.18.4.05.45.22.65.3l-.1.01c.76.1.98.14 1.54.26.3 0 .38-.25.87-.1-.18.07.03.1.2.13-.12-.01-.17.02.07.14.04-.03.1-.03.15-.04 0 .01.01.02 0 .03.32.02.27-.02.13-.06.01-.01 0-.04-.04-.07.3.2.9.17.9.35.95.14 1.66.1 2.45.17.07.1-.13.15-.36.15l.56.07c-.03.13-.33.01-.5.01.62.34 1.4.05 2.14.4l.18-.07.04.03c.01-.06.2-.1.3-.1.1.14-.06.26.33.33.28.17.87.1 1.28.13-.2-.06-.13-.1-.03-.13.2.03.28.17.44.15l-.01.16c-.05-.16.53-.06.6-.1.1.14-.32.04-.38.12l1.16.2c.43-.04-.05-.16.18-.26.37.04.74 0 1.14.17l-.1-.16c.6.02.98.1 1.35.26-.06.27-.12.54-.17.83l-.27 1.63c-.5.03-1.02.01-1.27.05l.03-.04-.77.02.13-.05c-1.1.1-2.24.1-3.24.06l.08.15c-2.14-.16-2.93.14-4.86-.05l.03-.04c-2.44.38-3.86-.26-6.38.1.3-.05-.13-.07-.1-.1-.58.02-1.18.04-1.64.08-.05 0-.1.01-.14.02-.1-.12-.2-.23-.32-.32zm-1.05 5.4c.02 0 .05-.1.1-.16.07-.13.15-.27.08-1l-.17-.26a1.97 1.97 0 0 0-.03-.15v-.07c-.1-.3.01-.4.1-.48.1-.1.1-.17.27-.6-.2.3-.37-.07.08-.35l-.02.17c.2-.18.25-.26.42-.3-.12.13 0 .17.32.06-.06.07-.12.13-.17.2a1.27 1.27 0 0 1 .27-.18 1.32 1.32 0 0 1 .4-.13c.85.13 2.2-.03 2.54.14 0 0 1.82.08 2.24-.1-.37.12.64.16.35.3.47-.13 1.87-.24 2.43-.1l-.1.02c2.07.14 3.53-.2 5.38-.02-.08-.14.9-.07.65-.25 1.92-.18 3.5.38 4.2-.2.87-.03 1.03.13 1.48.16l-.2.03 3.02-.04c.96.12 1.92.22 2.83.06.06.03.23-.04.23-.06l1.8.04s3.33.06 4.3-.33l1.3-.08c.2.1-.2.18-.7.2l1.2-.03c-.01.13-.7.08-1.06.1 1.43.22 2.95-.22 4.63-.02l.33-.1h.04l.08.01s.01-.01.02-.01l.74-.01c.06.07.14.14.68.13.66.1 1.87-.06 2.73-.12-.16-.01-.24-.02-.28-.03h1.15l.03.14c-.08-.07.17-.1.46-.14h.7c-.2.04-.6.05-.68.1h2.5c.3-.04.38-.07.36-.1l.9-.01 4.4-.34c.32.03.62.06.87.1 2.98-.06 4.47-.17 5.08-.3.33.18.84.47 1.23 1.07.2.3.33.7.36 1.14.03.37-.1 1.06-.18 1.7l-.05-.1c-.02.38-.03.4-.04.5l-.03.27c-.13-.01-.23-.01-.34-.01-.2.01-.38.01-.57.02-.55.03-1.07.08-1.6.16-.24-.3-1.8-.03-2.3-.12l.05-.02c-1.33.22-2.74-.18-4.02.01.05-.02.08-.1.37-.1-.93.04-2.2.1-2.28-.07-2.23.04-5.34-.03-6.77.23l.1-.05c-.8.18-1.05.03-1.96.12-.05-.02-.1-.03-.1-.04-.9.18-2.6.03-3.3.1l-.05-.1-1.77.03.66.02c-.23.3-1.34-.2-2.62.01-1.2-.04-2.43.64-3.67.5-.6.14.52-.23-.36-.12-.03-.16.4-.1.2-.23-.87.08-1.43-.16-2.5-.06l-.04-.12c-1.4.23-2.64-.16-3.58.05-1.45.1-.97-.37-2.47-.13l-.6-.17c-.64-.03-.46.2-1.18.12.04-.1-.9-.08-.48-.2-1.62-.17-3.28.24-5.4-.04-.46.2-1.53.08-1.88.24-.06-.1-2.15-.01-.94-.2.1-.02.3-.01.27.02l.14-.12c-1.2-.23-2.2.13-3.4.1.36.04.83.03.5.1l-1.12-.02.23-.1-1.66-.06.23.13c-.8-.07-1.1-.28-2.02-.1-.42.1.77.17-.1.2l-1.94-.15-1-.07c-.06-.02-.1-.03-.16-.04-.06.08-.1.12-.16.14-.01-.02-.02-.05-.03-.1l.12-.1c-.01-.03-.01-.1 0-.12z"/><path d="M177.2 425.98l.08.07zm75.9-31.9l.05 3.2s.3 15.54 1.1 3.7l.03.08c.03-1.76.02-2.86-.15-4.07.17-.2-.01-1.44.03-1.85l.01.04c-.16-1.07.06-2.2-.08-3.24.01.04.06.06.07.3-.04-.75-.1-1.78 0-1.84l-.26-5.45.03.08c-.12-.65-.04-.85-.1-1.58l.02-.08c-.12-.7-.06-2.08-.12-2.66l.07-.04-.05-1.42v.53c-.2-.18.1-1.08-.05-2.1 0-.97-.43-1.95-.36-2.95-.1-.48.15.42.07-.3.1-.03.07.33.14.15-.06-.7.07-1.15-.01-2.02l.07-.04c-.16-1.13.05-2.13-.1-2.88-.1-1.16.2-.8.03-2l.1-.47c0-.52-.13-.37-.1-.94.06.03.03-.73.1-.4.07-1.3-.2-2.64-.08-4.36-.13-.37-.08-1.23-.18-1.5.05-.05-.03-1.73.1-.76.01.08.01.23-.01.22l.08.1c.1-.98-.12-1.77-.12-2.74-.02.3 0 .67-.06.42l-.01-.9.07.2v-1.34l-.07.2c.02-.66.15-.9.02-1.63-.07-.33-.1.62-.13-.07l.07-3.3c-.08.1-.1-.2-.1-.5l.07-.04c-.13-1.18.15-.44.04-1.6l-.1-.2c-.18-1.06.14-.58-.1-1.75.03.47-.16.22-.14-.35l.08.14c-.02-.32-.06-.42-.05-.64.04.2.1.1.08-.37l.1.3-.16-.88c.06-.68-.07-1.76.02-2.05 0 0 .01-1.47-.12-1.8.08.3.08-.52.17-.3-.1-.38-.2-1.5-.12-1.95v.08c.02-1.67-.2-2.84-.18-4.35-.08.07-.08-.72-.18-.52-.25-1.53-.04-2.82-.43-3.35-.08-.7 0-.83-.01-1.2l.03.17-.27-2.66c-.08-.48-.24-.55-.3-1.42.1.28.04-.08.01-.4.03.2.06.27.06-.16-.03-.06-.05-.15-.06-.24 0 0 .01-.02.01-.01-.07-.54-.08-.45-.07-.2-.01-.01-.02.01-.03.1.03-.57-.15-1.57-.05-1.65l-.57-4.15c.04-.16.12.16.18.55l-.1-.96c.08 0 .1.55.14.85.02-1.16-.35-2.36-.36-3.72l-.1-.27v-.08c-.03.01-.1-.3-.14-.5.05-.2.16 0 .1-.67.02-.53-.17-1.5-.27-2.18.02.37-.03.26-.07.1-.03-.33.02-.53-.04-.8l.1-.04c-.08.14-.18-.86-.23-.98.05-.2.1.5.17.6l-.2-2c-.14-.7-.08.14-.2-.2-.08-.63-.2-1.24-.2-1.97l-.06.24c-.17-1.18-.23-1.9-.22-2.7-1.5-8.75-1.1-1.77-1.1-1.77.14 3.5.55 5.25 1 9.38l.64 8.37.55 5.46c.2.82.22 2.3.4 3.28l-.04.4c.07.34.13.73.12 1.08l-.02-.02c.1.5.12 1.08.17 1.33h-.02l.07.62-.04-.1c.13.88.25 1.8.25 2.6l.08-.07.12 3.9-.02-.02c.3 1.96-.06 3.1.22 5.13-.03-.25-.04.1-.06.1.05.93.1 1.93.26 1.94.02.68-.04.56-.1.65.07-.01.12.58.14 1.12l-.04-.24.07 1.52.13-.3c-.02.8-.17.2-.1.98h.12c.01 1.12-.15 1.78-.2 2.86.07 4.5.48 9.32.38 13.5l-.08.2c-.13.08.22 1.15.1 1.3l.07.48c-.02.14-.04.43-.07.18.01.45.03.46.07.78l-.07.48c-.02 1.78.17 3.28.18 5.15-.1 2.25.14 6.47.28 8.9.27 3.42-.15 7.4.15 10.9.02.07.07.36.08.36zm21-134.82l.03-.03c-.01-.02-.02-.02-.03.03zm-58.37-37.58c-.78 6.2-.84 9.45-1.48 16.87-.66 6.5-1 8.22-1.57 14.98l-.9 9.8c-.02 1.5-.4 4.13-.46 5.9l-.14.68c-.02.6-.07 1.33-.17 1.94v-.04c-.03.92-.17 1.94-.18 2.4v-.04l-.1 1.1-.01-.2a88.1 88.1 0 0 1-.42 4.67l.1-.1c-.4 3.07-.33 4.22-.72 7l-.02-.04c-.12 3.54-.7 5.54-.86 9.18.02-.45-.06.2-.08.15-.14 1.67-.32 3.45-.15 3.5-.13 1.2-.16.98-.24 1.14.08 0 0 1.06-.1 2v-.44l-.27 2.72.2-.52c-.2 1.44-.2.35-.33 1.73h.12c-.24 1.98-.64 3.1-1.07 5l-4.25 23.86-.15.3c-.15.12-.18 2.07-.35 2.33l-.1.87c-.07.24-.18.74-.13.3-.15.8-.13.82-.2 1.4l-.23.84c-.62 3.12-.95 5.8-1.58 9.1-.87 3.94-2.07 11.42-2.75 15.73-.9 6.07-2.66 13-3.56 19.23-.05.2-.1.73-.1.72l-1.04 5.66s-4.98 27.44-.2 6.77v.14c.62-3.1 1-5.04 1.24-7.2.23-.3.48-2.54.66-3.26v.07c.2-1.9.8-3.87 1.02-5.72 0 .07.04.12-.03.54.22-1.33.5-3.15.62-3.24.54-3.18 1.4-7.6 1.6-9.65v.14c.1-1.18.25-1.5.43-2.8.03-.07.05-.16.05-.14.12-1.28.65-3.68.78-4.7l.08-.06.44-2.5-.18.94c-.12-.36.46-1.88.67-3.72.33-1.7.24-3.52.65-5.28.07-.86 0 .77.17-.5.1-.03-.05.6.1.3.18-1.25.46-2.02.67-3.56l.08-.05c.22-2.02.77-3.75.88-5.1.3-2.07.47-1.34.7-3.5l.25-.82c.18-.9 0-.68.23-1.68.05.07.28-1.28.23-.67.5-2.28.7-4.7 1.4-7.7 0-.68.34-2.2.34-2.7.07-.07.56-3.05.37-1.32-.02.15-.07.4-.08.4l.04.22c.45-1.7.5-3.15.82-4.86-.12.5-.23 1.18-.2.72l.3-1.6v.34l.46-2.36-.13.3c.25-1.15.45-1.54.58-2.86.05-.6-.3 1.08-.1-.14l1.2-5.82c-.12.17-.01-.35.04-.92l.08-.05c.17-2.15.27-.77.42-2.88l-.06-.38c.06-1.9.27-1 .3-3.14-.07.83-.2.38-.07-.65l.04.27c.04-.57.03-.76.1-1.14 0 .34.1.2.16-.65l.03.57.03-1.6c.2-1.2.3-3.15.45-3.64 0 0 .32-2.62.26-3.23.02.53.2-.9.23-.5-.01-.7.13-2.7.3-3.5l-.01.15c.38-2.96.4-5.1.75-7.75-.1.1.1-1.3-.06-.95.16-2.77.7-5 .47-6.04.1-1.26.22-1.48.3-2.13l-.01.3.44-4.78c.05-.87-.1-1.03.1-2.6.01.5.06-.13.12-.7-.03.37-.01.5.1-.27-.01-.1 0-.28 0-.44.01-.01.01-.04.02-.02.07-.98.04-.8-.02-.36-.01-.02-.02.01-.05.15.18-1 .27-2.82.4-2.93.26-2.93.35-5.04.54-7.5.08-.27.08.3.03 1.02l.15-1.73c.08.02-.05 1-.08 1.53.33-2.05.28-4.26.63-6.67v-.5-.14c-.03 0-.03-.54 0-.9.1-.34.16.04.27-1.16.16-.94.22-2.7.3-3.93-.08.67-.1.45-.1.16.05-.6.16-.94.17-1.4l.1-.05c-.1.23.05-1.57.04-1.8.1-.33-.03.93.01 1.1l.33-3.6c.05-1.3-.1.22-.14-.4.1-1.13.13-2.24.3-3.53l-.12.4c.14-2.13.27-3.4.5-4.82.8-15.86-.63-3.4-.63-3.4z"/><path d="M209.12 304.95h0l.03.2zm-17.32.23c.3-.98 1.07-7 2.7-21.3v.4c.82-8.52 1.28-13.88 1.53-19.78.36-.9.6-7 .85-9v.2c.2-5.22 1.04-10.7 1.24-15.73.01.2.08.3-.01 1.46.25-3.66.57-8.66.76-8.92l.92-12.68.4-6.24.16-2.82.06-1.25v-.45c.16-.01.3-.03.45-.04.37-.02.72-.03 1.04-.04l-.38.05c3.2-.18 4.14-.03 7.7-.12.2.02.45.03.4.04 3.48-.18 10.16-.03 12.98-.1l.18.1 6.93-.03-2.6-.02c.9-.3 5.24.2 10.27-.01 4.7.04 9.54-.64 14.43-.5 2.33-.14-2.05.23 1.43.12.1.16-1.63.1-.73.23 3.42-.08 5.6.16 9.83.06l.17.12 2.03-.06 1.7-.02h.55l1.73.08v-.06l2-.02h.15c.01.04.01.1.02.14l.03.28.1 1.1.48 4.7.83 9.02c-.04.7-.23-.74-.4-2.54l.34 4.4c-.13-.03-.25-2.53-.37-3.88.16 5.26.95 10.8 1.13 16.97l.18 1.27v.37c.05-.02.2 1.35.3 2.27-.06.88-.27-.04-.08 3 .03 2.42.45 6.85.7 10-.07-1.7.02-1.16.1-.43.1 1.52.02 2.4.13 3.58l-.12.12c.13.2.35 4.06.43 4.57-.07.87-.22-2.36-.33-2.74l.5 9.17c.28 3.26.12-.6.33.95.17 2.88.43 5.68.5 9l.1-1.05c.37 5.4.5 8.65.5 12.3l1.34 18.33c.24 2.7.38 2.5.5 1.03.24-2.95.05-10.92.05-10.92-.32-15.9-1.13-24.1-2.25-42.98-.87-16.6-.83-21.04-2.15-38.24l-.48-6.24-.5-5.44c-.02-.05.02-.16-.05-.16h-.58-2.47l-12.45.06-1.15.05-1.58.03-.52.28c-11.34-.2-30 .04-41.06.17l-6.46.07c-2.42 0-4.88-.01-7.36-.01l-.87 10.7-.88 10.1-1.5 19.77c-.04.28-.07.77-.08 1.2l-.02.55c0 .14 0 .23.01.23l-1.3 15.58-2.33 30.6c-.38 5.84-.5 9.92-.2 8.95zM185.48 360l-.04.03c0 .03.02.03.04-.03zm53.65-42.1h0l.07-.5zm7.27 123.2h0l.1.13z"/><path d="M307.58 444.5l-.01-1.07v-.86l-.02-.88-.03-.98a3.84 3.84 0 0 0-.27-1.17c-.3-.74-.86-1.28-1.4-1.58a2.96 2.96 0 0 0-1.37-.37c-.04 0-.07.01-.1.01.2-.38.3-.75.4-1.1a9.27 9.27 0 0 0 .23-1.33c.1-.95-.4-1.86-.97-2.25-.42-.35-.7-.53-.93-.67l-.5-.34c-.3-.2-.62-.38-1.62-.66l-.73-.35c-.76-.26-.67-.1-1.34-.32a1.74 1.74 0 0 0-.51-1.64c-.25-.26-.55-.5-.9-.63l-.7-.27-1.1-.4c-.4.06-.92-.38-1.38-.37l-.1-.17c-.16 0-.33-.03-.45-.14l.02-.03c-.24 0-.45-.14-.56-.14l.02-.03-.25-.1.06-.03a3.17 3.17 0 0 1-1.06-.37l-.03.15c-.63-.43-1-.26-1.54-.7l.02-.03c-.93.03-1.14-.75-2.1-.74.12 0-.01-.1.01-.12-.4-.1-.8-.26-.9 0-.4-.15-.32-.18-.35-.3-.03.15-.4.01-1 .3.08-.06.16-.1.24-.15-.27.07-.57.32-.7.58-.13.25-.14.47-.14.65a1.95 1.95 0 0 1 .25-.18c-.04.14-.06.2-.1.25l.01-.1c-.1.07-.2-.03-.2.22l.2.03c0 .02-.01.03-.02.05l-1.85-.64c.44.2 1.03.4.62.3l-1.27-.5v-.03l.18.03-.17-.07.1-.57c.1-.47.01-.9-.16-1.3-.13-.18-.28-.38-.47-.57-.2-.18-.44-.33-.72-.47l-.3-.15-.23-.1a1.6 1.6 0 0 0-.44-.14l-.14-.2c-.2-.03-.42-.1-.56-.24l.03-.03c-.3-.05-.56-.24-.7-.26l.03-.03-.32-.14h.08a5.46 5.46 0 0 1-1.34-.6l-.03.15c-.8-.58-1.24-.47-1.94-1.03l.03-.03c-1.16-.15-1.44-1-2.62-1.2.15.02-.02-.1.01-.12l-.36-.15-.54-.2c-.33-.12-.53-.12-.54.04-.5-.17-.42-.2-.5-.34.01.07-.07.1-.22.12-.13.04-.3.1-.45.17 0-.01 0-.02-.01-.03.02-.02.04-.04.07-.06-.03.01-.05.03-.07.04l-.2-.76c.13.75-.12.4-.2-.56l.1.23-.16-1.04c.08.3.12.15.02-.62l.15.5-.3-1.44-.05-.85h.67l1.93-.02.92-.01h.45l.54-.04c1.2-.18 2.3-.87 2.96-1.88.33-.5.58-1.08.66-1.7.04-.32.04-.56.06-.82l.03-.76.22-6.16.25-12.63c.13-8.5.18-17.02-.1-25 .01-.26 0-.73-.02-1.13l-.03-.52c-.01-.13-.02-.2-.03-.2l-.15-14.62-.6-28.7c-.32-10.98-.84-15.24-1.34 11.7l-.05-.36c0 8 .05 13.03.36 18.55-.27.88.05 6.57-.02 8.44l-.03-.18c.28 4.88-.07 10.05.16 14.75-.02-.18-.1-.28-.12-1.36.07 3.43.16 8.1-.01 8.37l.13 24.83-.04-.36c.05 1.5.05 2.46-.02 3.46l-.1 1.6c-.03.65-.01 1.15-.32 1.75-.08.12-.2.26-.2.23a2.63 2.63 0 0 1-1.88 1.23c-.1.02-.2.02-.33.03h-1.27c-.57 0-1.15 0-1.72-.01l-5.83-.01-.17-.1h-6.48l2.42.03c-.85.3-4.9-.2-9.6-.02-1.95-.02-3.92.1-5.9.22l-1.5.1c-.53.05-.92.04-1.35-.14-.84-.33-1.46-1.23-1.38-2.18v-.02l-.07-1.57c-.3-2.17.38 1.9.02-1.35.15-.12.22 1.5.28.66-.32-3.2-.27-5.25-.72-9.17l.1-.17c-.7-5.1-.72-9.7-1.26-13.08-.6-5.27.04-3.58-.73-9.06l-.04-2.16c-.2-2.36-.37-1.67-.54-4.28.12.15-.24-3.3.01-1.8-.4-5.92-1.4-11.97-1.9-19.78-.38-1.67-2.56-13.77-.32 17.27l-.07.85c-.18.4.82 5.2.7 5.95l.3 2.2c.02.62.1 1.94-.05.84.2 2.04.23 2.1.43 3.55l.08 2.2 2.24 23.38.32 5.52v-.1c-.08.93.26 1.93.92 2.64a3.66 3.66 0 0 0 2.61 1.18l4.47.02 9.36-.02 11.42-.08c.13 1.16.27 2.14.4 2.14.13 1.14.06.93.01 1.1.08-.02.22.97.4 1.86l-.1-.4c.06.33.13.66.22 1 .04.17.1.34.16.52l.06.13c-.03.07-.06.15-.08.2-.06.12-.14.23-.2.34-.15.22-.3.43-.45.7-.6 2.23-.75 4.72-1.43 6.82-.34-.06-.66-.13-.66-.26-1.03-.2-2.43-.62-3.14-.52l.06-.03c-.4.1-.5-.1-.92-.1-.02-.03-.04-.04-.04-.05-.45.08-1.2-.26-1.53-.26v-.1l-.8-.17.3.1c-.18.27-.56-.33-1.2-.28-.54-.17-1.26.35-1.8.07-.3.07.3-.17-.14-.16.02-.16.2-.05.14-.2-.42-.02-.6-.32-1.13-.33l.01-.13c-.7.07-1.17-.45-1.65-.34-.68-.06-.36-.47-1.1-.4l-.23-.23c-.3-.1-.26.15-.57-.01.04-.1-.4-.18-.18-.23-.7-.34-1.55-.13-2.46-.64-.26.15-.72-.1-.9.02-.01-.1-.98-.25-.38-.3.05 0 .13.02.12.05l.1-.1c-.5-.36-1.04-.12-1.58-.3.15.08.37.12.2.17l-.5-.14-.87-.38.18.17c-.08-.03-.15-.06-.22-.1a45.88 45.88 0 0 1-.26-2.09c-.77-7.4-1.43-5.38-1.4-5.04-.04.32-.16-.01-.07 1.1 0 .9.24 2.5.4 3.66-.05-.62.01-.43.06-.16.06.56.01.9.1 1.32l-.1.06c.03-.12.1.3.18.75h-.06c-.01-.04-.02-.08-.03-.1 0 .03.01.06.01.1-.1-.01-.18-.03-.28-.02-.26.04.7.34.06.23l-.4-.14-.38 1.27-.35 1.3c.15-.03.1.14.1.32h-.13c.04.7-.17 1.05-.17 1.05.12.66.18.95.06 1.26 0 0-.07.15-.12.27-.04-.12-.27.72-.3.84-.04.2.27 2.58.12 2.6l.96.18-.28 1.68c-.1 1.85.2 3.38.88 4.22.17.2.35.35.53.47-.1.04-.16.07-.2.08-.1.02-.12-.02-.2-.03.07.1-.7.68-1.04 1.5.04-.13.1-.25.14-.37-.33.54-.48 1.2-.43 1.84v-.05l.01.44.24-.37c-.07 1-.3.25-.23 1.22l.2-.01-.04.83c-.08 0-.16 0-.24.01l.07 1.73c.01.13.01.25.02.38.01.1.01.17.02.25.02.15.03.3.05.43.07.53.15.9.24 1s.2-.02.35-.5c.1-.35.24-1.1.38-1.7l1.58.2c3.2.05 6.55-.1 9.8-.16.67.05 1.32.1 1.95 0-.05.02-.08.1-.37.1.93-.04 2.2-.1 2.28.07l3.2-.03.14.1c.06.13.6-.02 1.06-.1.2-.01.36-.01.54-.02.01.01.03.01.04.01l.12-.02c.23-.01.45-.03.67-.04.14.03.25.06.04.1.56.01.57-.03.97-.1l.6.13c2.2.1 4.08-.15 6.4-.1 2.8.27 8.03.02 11.05-.12.62-.05 1.25-.06 1.9-.07.4.1.53.24 1.52.08l.58.17c.64.03.46-.2 1.17-.12-.04.1.9.08.48.2.97.1 1.96 0 3.05-.04.66.03 1.32.05 1.98.05.13.01.25.02.38.04.03-.01.08-.02.1-.04.8 0 1.6-.02 2.36-.08.12.03.38-.02.47-.05.3.02.42.05-.12.14-.1.02-.3.01-.27-.02l-.14.12c1.2.23 2.2-.13 3.4-.1-.36-.04-.83-.03-.5-.1l1.12.02-.23.1 1.66.06-.23-.13c.4.03.7.1.96.14.05.04.05.05.2-.04.16-.08.01-.14.1-.18h.16c-.03.16-.07.32-.1.44l-.1 1.54v.08a1.59 1.59 0 0 1-.11.49c.16-.02.1.18-.02.4l-.12-.05c-.2.38-.36.36-.45.33-.1-.03-.18-.03-.5.1l.05-.1c-.04.1-.1.2-.16.28-1.22.26-.68-.26-2.13.08.58-.02.27.27-.44.22l.18-.12c-.4.03-.53.08-.8.05.23-.06.12-.17-.46-.15l.4-.15-1.1.22c-.85-.13-2.2.03-2.54-.14 0 0-1.82-.08-2.24.1.37-.12-.64-.16-.35-.3-.47.13-1.87.24-2.42.1l.1-.02c-2.06-.14-3.53.2-5.38.02.08.14-.9.07-.65.25-1.92.18-3.5-.38-4.2.2-.87.03-1.03-.13-1.48-.16l.2-.03c-1.63.05-2.1.05-3.32.04-.6.06-.7.32-1.8.26.35-.1-.1-.1-.5-.1.26-.02.34-.06-.2-.13-.08.03-.2.05-.3.07 0-.01-.03-.01-.01-.03-.68.04-.56.07-.24.08-.02.02.01.04.1.07-.7-.14-1.96.01-2.04-.17-2.04.04-3.5.23-5.2.3-.2-.1.2-.18.7-.2l-1.2.03c.01-.13.7-.08 1.06-.1-1.43-.22-2.95.22-4.63.02l-.35.1-.1-.02c.01.06-.37.13-.62.15-.24-.12.02-.27-.8-.26-.66-.1-1.87.06-2.73.12.46.02.3.08.1.13-.42 0-.65-.1-.98-.06l-.04-.16c.16.15-1.1.16-1.24.22-.24-.12.64-.1.75-.2l-2.5.02c-.9.12.16.15-.26.3-.78.03-1.55.14-2.45.05l.3.14c-1.47.1-2.36.1-3.35-.05l-1.24.14h-.01c-1.1.2-1.96-.4-2.4-.93-.46-.55-.62-1.06-.7-1.37-.18-.53-.33-.43-.43.1-.12.6.14 1.66.72 2.34a3.46 3.46 0 0 0 .86.77c.25.17.43.24.43.24a3.41 3.41 0 0 0 1.63.33h-.1c3.67.18 5.94-.17 10.64-.27 4.53.07 5.73.34 10.42.23 2.24.02 4.62-.04 6.8-.07 1.04-.2 2.87 0 4.1-.18l.48.12c.42-.06.92-.1 1.35-.04l-.03.03c.63-.1 1.35-.04 1.66-.08l-.03.04.77-.02-.13.05c1.1-.1 2.24-.1 3.24-.06l-.08-.15c2.14.16 2.92-.14 4.86.05l-.03.04c2.44-.38 3.86.26 6.38-.1-.3.05.13.07.1.1 1.16-.04 2.4-.06 2.42-.35.85 0 .7.1.8.2 0-.12.73-.18 1.4-.18l-.3.05 1.42-.03c.16-.01.4-.01.6-.06-.17-.05-.33-.12-.48-.2.6 0 .7.01.78.05.08.03.18.1.72-.2l-.1-.17c.6-.3 1.03-.7 1.37-1.15.34-.45.57-1 .6-1.68v.06a12.16 12.16 0 0 0 .1-.74v-1.24c-.07.01-.07.01-.06.01zm-7.62-12.5c.2.1.65.27.26.16.7.25.72.23 1.22.38.24.1.45.25.67.38 1.1.54 1.87 1.2 1.83 2.1 0 .47-.1 1.1-.24 1.6-.05.2-.3.64-.5.92-1-.15-2.1-.26-2.1-.26l-3.23-.2c.35-1.2.14-2.05.28-3.66.12-.6.24-1 .35-1.4.04-.13.07-.25.1-.38.26.06.47.1.53.17l.8.2zm-13.5-1.2c.01.04 0 .1-.04.1l.1.07c.3-.38 0-.78.1-1.18-.06.12-.08.28-.14.16l.08-.38.1.1.15-.56-.14.06c.1-.27.34-.33.2-.67-.08-.16-.2.24-.2-.06.15-.36.37-.9.48-1.36-.15.02-.12-.1-.13-.24h.13c-.02-.13-.01-.2.01-.25.24.16.62.2.66.4 0 0 .55.32.76.2-.16.06.14.23 0 .32.2-.06.7.03.8.23h-.04c.6.4 1.2.28 1.74.7.03-.14.3.06.3-.15.68.08.98.8 1.42.37.3.1.28.26.4.35h-.08a7.89 7.89 0 0 1 1.08.4c.22.03.35-.2.67 0-.15.05 0 .1.13.15-.1-.02-.13.01.01.14.04-.02.08-.02.12-.02 0 .01 0 .02-.01.03.23.05.2.01.1-.05.01-.01.01-.04-.01-.08.17.22.63.25.6.43.17.06.33.1.48.14.12.02.17.01.27.02.16.02.4.08.46.26-.1.07-.18.02-.26-.03.05.05.08.12.07.18-.13.03-.07-.1-.13-.13-.05.13-.06.18-.02.28l.03.1c.01.05.01.15 0 .23-.01.16-.04.32-.12.48l.1.14-.02.03c.06.01.1.15.12.24-.13.06-.27-.05-.3.24-.15.2-.04.65-.02.95.04-.16.1-.1.13-.02-.02.14-.15.2-.1.33l-.16-.01c.16-.03.1.4.16.46-.13.06-.07-.24-.15-.3l-.1.86c.07.32.16-.03.27.13-.01.27.06.55-.08.85l.15-.08c.03.52-.03.82-.22 1.14a14.92 14.92 0 0 0 .09.58c-2.07-.07-4.14-.07-7.18-.01a118.55 118.55 0 0 1-4.33-.15c.05-.1.16-.2.13-.48l.13.01c-.15-.52.3-.88.15-1.23-.02-.5.42-.27.26-.83l.2-.17c.06-.22-.18-.2-.06-.42.1.03.13-.3.2-.14.25-.53-.05-1.16.35-1.84-.18-.2 0-.54-.13-.68.1-.04.14-.77.27-.32zm-4.85 1c.47-2 .84-2.47 1.14-4.57l.14-.72 2.06.76c-.01.01-.01.02-.02.03-.4 1.9-.24 4.03-.87 5.75l-.16.05c-.22 0 .23.54.03.58l.06.22c-.05.05-.1.17-.14.06-.04.2-.01.2.04.35l-.17.18c-.1.37-.13.72-.15 1.08l-.03.55c-.02.2-.03.33-.1.7a65.32 65.32 0 0 0-2.58-.05c.58-1.7.43-2.78.75-4.97zm-12.48-1.77l.22-.22c.1-.28-.15-.25 0-.55.1.04.17-.38.23-.17.32-.67.1-1.5.6-2.37-.15-.25.07-.7-.04-.88.1-.01.23-.94.3-.37.01.05-.02.13-.05.12l.1.1c.35-.48.1-1 .25-1.52-.08.15-.1.36-.16.2l.13-.5.08.13.23-.72-.15.07c.15-.34.4-.42.3-.87-.06-.2-.24.3-.2-.1.2-.46.5-1.15.66-1.75-.15.03-.1-.14-.1-.3l.13.01c0-.2-.01-.18.01-.2.02-.01.05 0 .1.01.07.02.14.07.08 0l.07.07a2.28 2.28 0 0 1-.22-.22c-.1-.18-.03-.15.03-.1s.07.1.07-.13c-.06.04-.17-.38-.01-.26l.01.14c.05-.01.06-.05.1 0-.03.06 0 .2.06.2a.4.4 0 0 0-.03.15c.02-.07.06-.13.13-.18.03.05.01.06.1.1l.3.15c.2.1.37.18.4.3 0 0 .7.44.95.36-.2.03.2.27.01.33.25-.02.86.16 1.02.4l-.05-.01c.77.54 1.5.54 2.18 1.07.03-.15.4.12.38-.1.86.22 1.24 1.04 1.78.67.37.15.36.33.53.45l-.1-.02.75.33c.1.05.2.1.28.14.07.04.15.08.24.13.1.01.4-.23.47.06-.14-.02-.07.06-.04.15-.04-.05-.07-.04-.12.08.04 0 .06.02.08.04-.01 0-.02.01-.03.01.02.13.05.1.08.04.02 0 .04 0 .07-.03a.51.51 0 0 0-.09.13c-.02.04-.05.22-.08.34s-.07.2-.14.2c-.14.9-.08 1.6-.16 2.36-.1.07-.15-.13-.15-.35l-.07.54c-.13-.03-.01-.32-.01-.5-.34.6-.05 1.35-.4 2.06l.07.17-.03.04c.06.01.1.2.1.3-.14.08-.26-.06-.33.3-.17.27-.1.84-.12 1.23.06-.2.1-.12.13-.03-.03.18-.17.27-.15.42l-.16-.01c.16-.04.06.5.1.6-.14.08-.04-.3-.12-.37l-.2 1.1c.04.42.16-.04.26.17-.04.35 0 .7-.17 1.1l.16-.1c-.02.67-.12 1.06-.34 1.48a14.25 14.25 0 0 0 .06 1.07c-.2 0-.43.01-.66.01-2.24-.02-4.63.04-6.82.07-1.04.2-2.87 0-4.1.18l-.48-.12c-.03 0-.06 0-.1.01.01-.04.02-.08.01-.1l.12-.04.03-.17.05-.26-.04.14-.03.07c-.07-.02-.1-.05-.08-.1a1.1 1.1 0 0 1 .12-.25c.1-.2.24-.44.2-.74.16-.52-.38-1.2-.1-1.73-.08-.3.17.28.16-.13.16.02.06.2.2.13.01-.4.3-.6.3-1.1l.13.01c-.08-.67.43-1.13.3-1.6.06-.64.47-.32.38-1.04zm-23.2-1c0-.04-.01-.05-.01-.1.01-.13.02-.26.02-.37 0-.22-.03-1.1.02-1.42l.02.15.13-.88s.04.06.07-.4c0 0 .02-.6.16-.82.16-.3.27-.33.35-.36a1.42 1.42 0 0 0 .05-.22l.22.03.12.01.38.07 1.76.32c1.16.22 2.3.48 3.3.9l.07.17c0 .22.73-.15.77.06l.3-.03c.07.06.22.14.07.15.25.07.27.04.47.02l.24.2c.98.34 1.9.3 2.94.6 1.2.57 3.66.9 5.07 1.1 1 .08 2.02.46 3.05.84.5.2 1.03.38 1.54.53.1.03.2.05.3.07-.02.12.01.16.02.3l-.2.23c-.32.93-.27 1.8-.53 2.78-1.35-.3-2.45-.25-4.36-.54-2.07-.47-11.4-2.27-11.4-2.27l-.3-.1c-.53 0-1.05-.1-1.5-.23l.01.15c-.96-.35-1.38-.13-2.23-.5l.02-.03c-.2.03-.4.03-.58.01-.05-.01-.1-.01-.13-.02l-.04-.01c-.03-.01-.05-.02-.07-.03-.1-.05-.12-.13-.17-.15.03-.08.02-.1-.08-.2.06.03.1-.03.13-.03zm-.1 6.92c-.24-1.22-.1-2.48.02-3.63.03-.27.08-.53.12-.8l.25.05c.92.32 1.67.13 2.5.46-.01-.15.42.02.35-.2.92-.01 1.54.68 1.97.18.4.05.45.22.65.3l-.1.01c.76.1.98.14 1.54.26.3 0 .38-.25.87-.1-.18.07.03.1.2.13-.12-.01-.17.02.07.14.04-.03.1-.03.15-.04 0 .01.01.02 0 .03.32.02.27-.02.13-.06.01-.01 0-.04-.04-.07.3.2.9.17.9.35.95.14 1.66.1 2.45.17.07.1-.13.15-.36.15l.56.07c-.03.13-.33.01-.5.01.62.34 1.4.05 2.14.4l.18-.07.04.03c.01-.06.2-.1.3-.1.1.14-.06.26.33.33.28.17.87.1 1.28.13-.2-.06-.13-.1-.03-.13.2.03.28.17.44.15l-.01.16c-.05-.16.53-.06.6-.1.1.14-.32.04-.38.12l1.16.2c.43-.04-.05-.16.18-.26.37.04.74 0 1.14.17l-.1-.16c.6.02.98.1 1.35.26-.06.27-.12.54-.17.83l-.27 1.63c-.5.03-1.02.01-1.27.05l.03-.04h-.77l.13-.05c-1.1.1-2.24.1-3.24.06l.08.15c-2.14-.16-2.93.14-4.86-.05l.03-.04c-2.44.38-3.86-.26-6.38.1.3-.05-.13-.07-.1-.1-.58.02-1.18.04-1.64.08-.5.03-.9.2-.94.34-.2-.1-.37-.23-.48-.4-.2-.23-.32-.5-.4-.74-.1-.24-.12-.4-.12-.4zm.42 6.3c.02 0 .05-.1.1-.16.07-.13.15-.27.08-1l-.17-.26a1.97 1.97 0 0 0-.03-.15v-.07c-.1-.3.01-.4.1-.48.1-.1.1-.17.27-.6-.2.3-.37-.07.08-.35l-.02.17c.2-.18.25-.26.42-.3-.12.13 0 .17.32.06-.06.07-.12.13-.17.2a1.27 1.27 0 0 1 .27-.18 1.32 1.32 0 0 1 .4-.13c.85.13 2.2-.03 2.54.14 0 0 1.82.08 2.24-.1-.37.12.64.16.35.3.47-.13 1.87-.24 2.43-.1l-.1.02c2.07.14 3.53-.2 5.38-.02-.08-.14.9-.07.65-.25 1.92-.18 3.5.38 4.2-.2.87-.03 1.03.13 1.48.16l-.2.03 3.02-.04c.96.12 1.92.22 2.83.06.06.03.23-.04.23-.06l1.8.04s3.33.06 4.3-.33l1.3-.08c.2.1-.2.18-.7.2l1.2-.03c-.01.13-.7.08-1.06.1 1.43.22 2.95-.22 4.63-.02l.33-.1h.04l.08.01s.01-.01.02-.01l.74-.01c.06.07.14.14.68.13.66.1 1.87-.06 2.73-.12-.16-.01-.24-.02-.28-.03h1.15l.03.14c-.08-.07.17-.1.46-.14h.7c-.2.04-.6.05-.68.1h2.5c.3-.04.38-.07.36-.1l.9-.01 4.4-.34c.32.03.62.06.87.1 2.98-.06 4.47-.17 5.08-.3.33.18.84.47 1.23 1.07.2.3.33.7.36 1.14.03.37-.1 1.06-.18 1.7l-.05-.1c-.02.38-.03.4-.04.5l-.03.27c-.13-.01-.23-.01-.34-.01-.2.01-.38.01-.57.02-.55.03-1.07.08-1.6.16-.24-.3-1.8-.03-2.3-.12l.05-.02c-1.33.22-2.74-.18-4.02.01.05-.02.08-.1.37-.1-.93.04-2.2.1-2.28-.07-2.23.04-5.34-.03-6.77.23l.1-.05c-.8.18-1.05.03-1.96.12-.05-.02-.1-.03-.1-.04-.9.18-2.6.03-3.3.1l-.05-.1-1.77.03.66.02c-.23.3-1.34-.2-2.62.01-1.2-.04-2.43.64-3.67.5-.6.14.52-.23-.36-.12-.03-.16.4-.1.2-.23-.87.08-1.43-.16-2.5-.06l-.04-.12c-1.4.23-2.64-.16-3.58.05-1.45.1-.97-.37-2.47-.13l-.6-.17c-.64-.03-.46.2-1.18.12.04-.1-.9-.08-.48-.2-1.62-.17-3.28.24-5.4-.04-.46.2-1.53.08-1.88.24-.06-.1-2.15-.01-.94-.2.1-.02.3-.01.27.02l.14-.12c-1.2-.23-2.2.13-3.4.1.36.04.83.03.5.1l-1.12-.02.23-.1-1.66-.06.23.13c-.8-.07-1.1-.28-2.02-.1-.42.1.77.17-.1.2l-1.94-.15-1-.07c-.06-.02-.1-.03-.16-.04-.06.08-.1.12-.16.14-.01-.02-.02-.05-.03-.1l.12-.1c-.01-.03-.02-.1 0-.12z"/><path d="M244.1 425.98l.08.07z"/></svg>