<svg xmlns="http://www.w3.org/2000/svg" viewBox="0 0 480 480" xmlns:v="https://vecta.io/nano"><path d="M246.56 208.3h0z"/><path d="M307.5 444.2l-55.63-.45 55.43-.45s-.04-1.05-.94-2.5h.04s-1-2.4-3.9-3.8l-1.7-.84c-7.36-3.84-29.3-13.56-29.3-13.56s-.58-.12-1.23.36c-3.55-4.2-1.27-94.68-1.07-101.56.12-4.2-.02-10.6-.34-18.14 8-1.66 12.1-3.8 14.54-5.26 1.1-.7 1.9-2.5 1.6-3.7-1.6-6.2-4.5-21.7-10.1-49.5l-7.9-36.5h-71.7s-.8 27.6-5 50.7c-2 11.2-7.7 29.9-10.1 33.6-.6.9-.4 2.2.4 2.9 2.43 2.2 7.65 5 18.65 7.1l-.15 7.2c-.4 5.7-9.1 36-10.8 56.5-2.3 27.7-6.7 59.5-7 61.6-.6 1.33-1.1 2.9-1.38 4.5-.4.05-.82.3-.88.7-.2 1.3-.4 3-.4 4.8.1 3 .9 5.9.9 5.9v2.9c0 1.5 1.2 2.6 2.6 2.6l56.7-.1c1.5 0 2.6-1.2 2.6-2.6l-.1-2.4-55.63-.45 55.43-.45s-.04-1.05-.94-2.5h.04s-1-2.4-3.9-3.8a102.81 102.81 0 0 0-1.7-.84c-7.36-3.84-29.3-13.56-29.3-13.56s-.5-.1-1.07.24c-.55-.56-1.02-1.03-1.37-1.34-1.8-2.7 24.8-89.2 27.6-103.6.5-2.5 1.5-6.8 2.9-12.25l2.43.04 2.17 18.4c.4 2.4 1.4 27.1 3.7 44.5 3.3 25.2 5.8 52.6 6.1 54.4-.07 3.13-.6 6.45-1.1 9.5-.5-.3-1.4 0-1.5.6-.2 1.3-.4 3-.4 4.8.1 3 .9 5.9.9 5.9v2.9c0 1.5 1.2 2.6 2.6 2.6l56.7-.1c1.5 0 2.6-1.2 2.6-2.6l-.1-2.4z" fill="#fff"/><path d="M214.12 303.86l.02.04c.02-.02.02-.03-.02-.04zm81.55 135.44h0l.07-.1z"/><path d="M308.27 443.67c-.08 0-.14-.03-.2-.06v-.03l-.05-.4c-.03-.26-.08-.52-.16-.8-.03.2-.07.37-.13.52-.1-.74-.1-.86-.08-.95.02-.07.04-.16-.13-.54h.03c.1.02.05-.06.03-.1l-.06-.16-.23-.62.12-.1c.13.01-.1-.28-.34-.55-.26-.28-.52-.52-.45-.6l-.4-.4c-.05-.12-.2-.38.01-.18-.3-.4-.37-.38-.67-.6-.08-.15-.18-.32-.3-.47-.76-.8-1.7-1.18-2.6-1.58l-.56-.33-1.84-.92-.57-.3-4.85-2.23-2.22-1c-.9-.52-1.8-1-2.72-1.28-.04-.04-.14-.06-.2-.07l-4.1-2-.2-.25c-.02-.25-1.75-.45-1.9-.73l-.72-.22c-.18-.12-.56-.34-.2-.23-.63-.3-.66-.27-1.14-.4l-.62-.43c-2.45-1.22-4.68-1.94-7.28-3.16l-1.27-.65c-.45-.36-1.26-.33-1.9-.1 0-.02-.01-.03-.01-.05-.12-.45-.2-.9-.28-1.33l-.35-2.36.07.38c-.42-3.17-.37-4.13-.6-7.72v-.4c-.27-3.5-.33-10.23-.4-13.06l.06-.18-.08-6.98v2.6c-.2-.9.07-5.28-.04-10.35.03-4.74-.35-9.62-.22-14.55-.06-2.35.12 2.07.1-1.44.1-.1.04 1.64.13.74-.01-3.45.16-5.65.15-9.9l.08-.17c-.06-5.55.26-10.46.2-14.16.05-5.72.3-3.83.27-9.8l.15-2.3c.07-2.55-.08-1.83.03-4.65.06.17.14-3.57.16-1.9.3-6-.04-12.2-.23-19.87 1.55-.33 3.06-.7 4.3-1.14.44-.07.87-.16 1.3-.26l3.53-1.27-.06.06c1.6-.74 3.43-1.58 4.18-2.05l-.05.07c.32-.17.63-.36.94-.54.16-.1.3-.16.54-.34.2-.15.37-.3.53-.48-.1.13-.2.25-.32.37.77-.7 1.22-1.53 1.5-2.44.14-.46.22-.94.2-1.47-.01-.14-.02-.27-.04-.4a4.33 4.33 0 0 0-.08-.39l-.14-.54c-.36-1.43-.67-2.84-.93-4.18l-.1.25c-1.06-5.72-1.76-7.76-2.6-12.96l.05.06c-1.68-6.45-1.8-10.37-3.5-17.03.2.83 0-.37.05-.3-.66-3.1-1.34-6.4-1.63-6.4-.45-2.26-.28-1.86-.23-2.17-.12.04-.56-1.9-.93-3.67l.2.8-1.08-5.04v1.04c-.5-2.68.13-.74-.47-3.28l-.18.07c-.76-3.7-.94-5.93-1.57-9.54l-2.47-11.3-2.77-12.32c-.01-.04-.1-.01-.13-.02h-.6l-1.14.01-4.33.03-5.7.02a486.77 486.77 0 0 1-10.97-.12l-.62-.15c-.27-.2-3.9.32-4.44.12l-1.65.1c-.46-.04-1.44-.08-.62-.13-1.52-.01-1.56.03-2.65.1l-1.63-.13c-6-.1-11.1.15-17.42.1-2.55-.1-5.87-.12-9.45-.12l-12 .1-.16 6.03-.16 4.46c-.36 11.56-2.43 24.86-3.94 36.55a14.56 14.56 0 0 0-.13.82c-.03.3-.05.54-.04.54a129.71 129.71 0 0 1-2.16 10.55s-.75 3.18-1.9 7.3c-1.13 4.13-2.64 9.22-3.93 13.05-.65 1.9-1.22 3.53-1.64 4.54-.4 1-.63 1.48-.34 1.27.26-.22 1.03-1.2 2.05-3.37 1.04-2.16 2.4-5.46 4.07-10.18l-.03.27c1.82-5.67 2.8-9.3 3.52-13.35.44-.56 1.12-4.77 1.43-6.13v.13c.44-3.6 1.45-7.35 1.72-10.84 0 .14.07.22-.03 1.02.32-2.53.7-6 .87-6.16.7-6.05 1.55-14.5 1.55-18.4l.03.27c-.02-2.23.2-2.87.25-5.35.03-.13.05-.3.06-.28-.01-2.42.38-7.05.38-9l.12-.12.06-1.9 1.47-.01-1.32-.02c.02-.08.2-.1.42-.1.4 0 .96.03 1.6.06 1.27.06 2.9.14 4.64.04 3.26.04 6.62-.64 10-.5 1.62-.14-1.42.23 1 .12.08.16-1.13.1-.5.23 2.37-.08 3.9.16 6.82.06l.12.12c3.82-.23 7.2.16 9.74-.05 3.94-.1 2.64.37 6.74.13l1.6.17c1.75.03 1.26-.2 3.2-.12-.12.1 2.46.08 1.32.2 4.4.17 8.93-.24 14.73.04 1.26-.2 4.18-.08 5.12-.24.08.04 1.54.05 2.57.07l.65.02c.06.01.1.02.1.03s-.01.02-.06.04c.04.02-.3.04-.7.06-.28.02-.78.01-.74-.02l-.4.12a25.77 25.77 0 0 0 1.21.06c.2 0 .38.01.57.01h.05c.05-.01.06.01.07.05l.01.03c0 .01.01 0 .04.13l.14.54c.37 1.45.77 2.9 1.1 4.5-.17-.96-.45-2.2-.18-1.4l.63 2.97-.23-.6.9 4.44-.01-.64c.4 2.18.36 3 1.06 5.4.34 1.08-.28-2.1.26.2l2.1 10.97c.07-.37.28.62.53 1.64l-.1.14c1.02 3.88.04 1.5 1.02 5.35l-.16-.33.48.98c.98 3.47.14 1.95 1.26 5.8-.33-1.54.12-.78.45 1.13l-.2-.46c.24 1.05.36 1.4.47 2.1-.2-.62-.24-.3.1 1.25l-.36-1 .8 2.9c.33 2.3 1.2 5.84 1.22 6.8 0 0 .9 4.88 1.3 5.96-.3-.96.18 1.74-.1 1 .38 1.24 1.22 4.94 1.38 6.46l-.07-.28c.96 5.55 2.07 9.4 2.97 14.38.1-.26.6 2.38.63 1.7l.48 1.87c.08.3.15.6.22.9.04.18.05.2.06.3.01.1 0 .2 0 .3-.08.85-.64 1.74-1.16 2.12a5.73 5.73 0 0 1-.51.29l-.57.32-1.04.57c-.64.35-1.15.68-1.52 1-1.06.48-1.72.7-2.25.85l-1.5.43c.17-.07.35-.13.52-.2-4.14 1.4-5.4 1.63-8.6 2.28-1.6.36-1.8.68-4.72 1.05.92-.25-.26-.03-1.35.1.7-.1.9-.16-.54-.06-.2.06-.5.1-.8.16-.01-.01-.07-.01-.04-.02-1.82.25-1.5.25-.65.16-.04.02.03.03.3.03-1.9.13-5.3.5-5.54.35l-7.37.52-3.33.2-3.37.1c-.52-.1.56-.18 1.9-.22l-3.27.05c.03-.13 1.88-.1 2.88-.12-3.9-.17-8.02.2-12.58-.15l-.95.07-.27-.03c.01.06-1 .1-1.7.1-.64-.15.06-.25-2.2-.37-1.78-.22-5.07-.22-7.4-.37 1.26.12.84.15.3.15-1.13-.1-1.76-.25-2.64-.27l-.07-.13c-.16.1-3-.18-3.4-.16-.63-.18 1.75.08 2.04.02-4.5-.46-2.26-.2-6.74-.77-2.4-.2.4.2-.75.2-2.1-.3-4.2-.5-6.57-1.07l.73.28c-3.96-.65-6.3-1.27-8.82-2.2-3.6-.98-6.3-2.08-8.24-3.2-.47-.3-.93-.54-1.3-.84-.37-.3-.77-.5-1.05-.87-.55-.7-.64-1.5-.56-2.1.04-.3.13-.56.22-.77l.2-.45c.1-.23.14-.37.13-.42-.02-.1-.25.1-.6.52-.5.62-.85 1.82-.4 3 .1.3.27.6.47.86.1.14.22.26.34.38l.28.25c.36.33.73.65 1.12.92.74.58 1.5 1 2 1.33l.88.47c2.73 1.44 5.26 2.27 7.66 2.98 2.4.67 4.7 1.2 7.05 1.6-.05 3.1-.1 6.58-.32 6.82-.76 4.62-1.76 8.6-2.56 12.37l-2.46 11.22c-.24.86.1-.96.6-3.2l-1.2 5.48c-.03-.03.13-.82.34-1.8l.67-3.03c-1.6 6.48-2.83 13.47-4.27 21.17l-.2 1.6-.08.46c.02-.01-.03.42-.1 1l-.25 1.88c-.23 1.1-.15-.1-.66 3.75-.45 3.05-.78 8.68-1.13 12.67.2-2.15.2-1.45.12-.52l-.47 4.52-.1.14c.04.27-.43 5.14-.47 5.8-.18 1.1.25-3 .24-3.48l-1.22 11.58c-.4 4.12.17-.74.03 1.24l-1.3 11.35.24-1.3c-.76 6.83-1.3 10.9-1.97 15.5l-1.02 8.5c-.01.32-.14.58-.26.87a9.5 9.5 0 0 0-.31.84c-.2.55-.34 1.1-.48 1.64-.04.16-.06.3-.1.47a2.14 2.14 0 0 0-1.02.12c-.34.12-.72.35-1.02.8-.07.1-.13.24-.18.37-.05.14-.08.3-.1.32-.02.1-.05.2-.07.3-.17.8-.27 1.5-.27 1.5-.2 1.4-.33 2.6-.25 3.85.08 1.18.25 2.27.5 3.37.06.27.13.55.2.83l.16.64.2.78c.07.25.15.5.23.77.08.01.17.01.26.01.02.3.04.44.07.66.07.53.15.9.24 1 .1.12.2-.02.35-.5.08-.26.17-.73.27-1.2l1.13-.03 4.2-.16c5.6.02 7.1.28 12.92.13 2.78 0 5.74-.1 8.45-.14.9-.15 2.27-.1 3.53-.13.32.02.66.03 1.02-.03.22.01.44-.01.66-.04l.47.1c.52-.06 1.14-.1 1.67-.05l-.03.04c.78-.1 1.67-.05 2.06-.1l-.03.04h.48l.35.03-.04.01c.08-.01.16-.01.23-.01.18 0 .35 0 .56-.02l.04.12c1.4-.22 2.65.2 3.6-.02 1.45-.1.97.38 2.48.15l.6.17c.65.03.46-.2 1.18-.12-.04.1.9.1.48.2 1.62.18 3.3-.2 5.42.1.47-.2 1.54-.07 1.9-.22.06.1 2.15.03.94.22-.1.02-.3.01-.27-.02l-.15.12c1.22.24 2.2-.1 3.42-.06-.36-.04-.83-.04-.5-.12l1.12.03-.23.1 1.67.07-.23-.13c.4.04.68.1.97.15.08.01.15.02.22.02.07.01.04.01.06.01s.05-.02.12-.07c.18-.1-.13-.17.16-.2a1.64 1.64 0 0 0 .11.03c-.02.1-.03.2-.05.3l-.03.12c0 .16-.01.3-.01.47-.01.3 0 .7-.05.8a1.69 1.69 0 0 1-.2.5c.16 0 .06.2-.08.4l-.1-.06c-.25.36-.4.3-.48.28-.1-.05-.16-.05-.54.04l.06-.1c-.06.1-.12.18-.27.27-1.32.25-.7-.26-2.18.08.58-.02.27.27-.44.22l.18-.12c-.4.03-.53.08-.8.05.24-.07.12-.17-.46-.15l.4-.15-1.1.22c-.85-.13-2.2.04-2.55-.13 0 0-1.83-.08-2.25.1.37-.12-.64-.16-.35-.3-.47.13-1.87.24-2.43.1l.1-.02c-2.07-.14-3.54.2-5.4.03.08.14-.9.07-.65.25-1.92.2-3.5-.37-4.2.2-.87.03-1.04-.13-1.5-.16l.2-.03c-1.64.05-2.1.06-3.33.04-.6.06-.7.32-1.8.26.35-.1-.1-.1-.5-.08.26-.02.34-.06-.2-.13-.08.03-.2.05-.3.07 0-.01-.03-.01-.01-.03-.68.04-.56.07-.25.1-.02.02.01.04.1.07-.7-.13-1.97.01-2.05-.17-2.04.05-3.5.24-5.2.3-.2-.1.2-.18.7-.2l-1.2.04c.01-.13.7-.08 1.06-.1-1.44-.2-2.96.22-4.65.03l-.35.1-.1-.02c.01.06-.37.13-.62.15-.24-.12.02-.27-.82-.26-.66-.1-1.87.06-2.74.12.47.02.32.08.1.13-.42 0-.66-.1-.98-.06l-.04-.16c.16.15-1.1.16-1.24.23-.24-.12.65-.1.75-.2l-2.5.03c-.9.12.16.15-.26.3-.8.03-1.56.14-2.46.05l.3.14c-1.48.1-2.36.1-3.36-.04-.7.05-1.3.2-1.82.13a2.68 2.68 0 0 1-1.32-.54c-.7-.54-.95-1.18-1.1-1.6-.23-.83-.37-.7-.5-.33-.05.26-.1.67.01 1.1a3.45 3.45 0 0 0 .58 1.3 3.9 3.9 0 0 0 .88.86c.27.18.45.26.45.26a3.88 3.88 0 0 0 1.12.37c.18.03.4.04.54.05s.25.01.37.01l1.4.03c.9 0 1.75-.02 2.62-.06l6.18-.27c4.54.06 5.75.33 10.45.2 2.24.02 4.64-.05 6.83-.1 1.04-.2 2.88-.01 4.1-.2l.48.12c.42-.06.92-.1 1.35-.04l-.03.03c.63-.1 1.35-.04 1.67-.1l-.03.04.77-.02-.13.05a23.82 23.82 0 0 1 3.25-.06l-.08-.15c2.15.16 2.93-.14 4.87.05l-.03.04c2.45-.4 3.87.25 6.4-.1-.3.05.14.07.1.1 1.16-.04 2.4-.07 2.42-.35.85 0 .7.1.8.2 0-.12.73-.18 1.4-.2l-.3.05 1.93-.05c-.17-.07-.28-.15-.4-.23.5.04.65.08.7.13.08.04.17.1.74-.12l-.08-.18a3.84 3.84 0 0 0 1.77-1.29c.2-.28.4-.6.5-.97.06-.18.1-.38.13-.6a10.37 10.37 0 0 0 .04-.51c-.04-.98-.28-1.47-.32-2.46-.08 0-.14-.03-.2-.06v-.03l-.05-.4c-.03-.26-.08-.52-.16-.8-.03.2-.07.37-.13.52-.1-.74-.1-.86-.08-.95.02-.07.04-.16-.13-.54h.03c.1.02.05-.06.03-.1l-.06-.16c-.08-.2-.15-.4-.23-.62l.12-.1c.13.01-.1-.28-.34-.55-.26-.28-.52-.52-.45-.6-.14-.14-.26-.27-.4-.4-.05-.12-.2-.38.01-.18-.3-.4-.37-.38-.67-.6-.08-.15-.18-.32-.3-.47-.76-.8-1.7-1.18-2.6-1.58-.2-.1-.37-.23-.56-.33-.25-.13-.5-.25-.76-.38-.33-.18-.7-.36-1.08-.54-.2-.1-.38-.2-.57-.3-1.6-.77-3.24-1.5-4.85-2.23l-2.22-1c-.9-.52-1.8-1-2.72-1.28-.04-.04-.14-.06-.2-.07a112.13 112.13 0 0 1-4.1-2.01l-.2-.25c-.02-.25-1.75-.45-1.9-.73l-.72-.22c-.18-.12-.56-.34-.2-.23-.63-.3-.66-.27-1.14-.4l-.62-.43c-2.45-1.22-4.68-1.94-7.28-3.16-.38-.2-.8-.43-1.27-.65-.48-.38-1.37-.33-2.03-.06l-.18-.18-.4-.38c-.03-.02-.07-.07-.06-.12-.02-.2.02-.62.05-.95l.16-1.06c.24-1.43.56-2.86.88-4.25l3.44-13.92-.1.45c.9-3.68 1.27-4.74 2.35-8.83l.15-.46c1-4 3.24-11.6 4.1-14.82l.12-.2 2.24-7.9-.86 2.95c.12-1.07 1.82-5.95 3.34-11.7 1.56-5.36 2.75-10.98 4.4-16.54.67-2.68-.53 2.38.53-1.6.13-.1-.47 1.87-.1.87l3.17-11.22.13-.18 2.33-8.85c.73-2.7 1.25-5.23 1.65-7.34 1.24-5.52 1.26-4.84 2.18-8.57l1.9.04.6 5.13c.3 2.38.5 2.73.96 7-.22-1.37-.01.37.17 1.97-.13-1.02-.2-1.33.01.77a46.94 46.94 0 0 1 .18 1.17c0 .02 0 .1-.01.06.32 2.64.3 2.15.16.96.02.06.02-.05-.01-.43.25 2.72.57 7.72.5 8.05l1.62 20.5c.01.76-.18-.8-.35-2.75l.4 4.75c-.08-.03-.28-2.72-.4-4.2.32 5.67 1.12 11.65 1.85 18.27l.24 1.36.04.4c.02-.01.08.35.16.84l.24 1.6c.05.94-.16-.05.24 3.22.26 2.6.92 7.34 1.35 10.72-.2-1.83-.1-1.24.02-.46l.4 3.84-.06.13c.1.2.57 4.35.66 4.9.03.94-.34-2.53-.44-2.93l1.1 9.84c.44 3.5.02-.65.28 1.02l1.03 9.66-.03-1.13.8 7.3.3 3 .15 1.44a37.08 37.08 0 0 1-.09 1.44c-.15 2.66-.45 5-.75 7.08-.44-.18-.98-.2-1.5-.02-.34.12-.72.35-1.02.8-.07.1-.13.24-.18.37-.05.14-.08.3-.1.32-.02.1-.05.2-.07.3-.17.8-.27 1.5-.27 1.5-.2 1.4-.33 2.6-.25 3.85.08 1.18.25 2.27.5 3.37.06.27.13.55.2.83l.16.64.2.78c.07.25.15.5.23.77.08.01.17.01.26.01.02.3.04.44.07.66.07.53.15.9.24 1 .1.12.2-.02.35-.5.08-.26.17-.73.27-1.2l1.13-.03 4.2-.16c5.6.02 7.1.28 12.92.13 2.78 0 5.74-.1 8.45-.14.9-.15 2.27-.1 3.53-.13.32.02.66.03 1.02-.03.22.01.44-.01.66-.04l.47.1c.52-.06 1.14-.1 1.67-.05l-.03.04c.78-.1 1.67-.05 2.06-.1l-.03.04.48-.01.35.03-.04.01c.08-.01.16-.01.23-.01.18 0 .35 0 .56-.02l.04.12c1.4-.22 2.65.2 3.6-.02 1.45-.1.97.38 2.48.15l.6.17c.65.03.46-.2 1.18-.12-.04.1.9.1.48.2 1.62.18 3.3-.2 5.42.1.47-.2 1.54-.07 1.9-.22.06.1 2.15.03.94.22-.1.02-.3.01-.27-.02l-.15.12c1.22.24 2.2-.1 3.42-.06-.36-.04-.83-.04-.5-.12l1.12.03-.23.1 1.67.07-.23-.13c.4.04.68.1.97.15.08.01.15.02.22.02.07.01.04.01.06.01s.05-.02.12-.07c.18-.1-.13-.17.16-.2.03.01.07.02.1.03-.02.1-.03.2-.05.3l-.03.12c0 .16-.01.3-.01.47-.01.3 0 .7-.05.8a1.69 1.69 0 0 1-.2.5c.16 0 .06.2-.08.4l-.1-.06c-.25.36-.4.3-.48.28-.1-.05-.16-.05-.54.04l.06-.1c-.06.1-.12.18-.27.27-1.32.25-.7-.26-2.18.08.58-.02.27.27-.44.22l.18-.12c-.4.03-.53.08-.8.05.24-.07.12-.17-.46-.15l.4-.15-1.1.22c-.85-.13-2.2.04-2.55-.13 0 0-1.83-.08-2.25.1.37-.12-.64-.16-.35-.3-.47.13-1.87.24-2.43.1h.1c-2.07-.14-3.54.2-5.4.03.08.14-.9.07-.65.25-1.92.2-3.5-.37-4.2.2-.87.03-1.04-.13-1.5-.16l.2-.03c-1.64.05-2.1.06-3.33.04-.6.06-.7.32-1.8.26.35-.1-.1-.1-.5-.08.26-.02.34-.06-.2-.13-.08.03-.2.05-.3.07 0-.01-.03-.01-.01-.03-.68.04-.56.07-.25.1-.02.02.01.04.1.07-.7-.13-1.97.01-2.05-.17-2.04.05-3.5.24-5.2.3-.2-.1.2-.18.7-.2l-1.2.04c.01-.13.7-.08 1.06-.1-1.44-.2-2.96.22-4.65.03l-.35.1-.1-.02c.01.06-.37.13-.62.15-.24-.12.02-.27-.82-.26-.66-.1-1.87.06-2.74.12.47.02.32.08.12.13-.42 0-.66-.1-.98-.06l-.04-.16c.16.15-1.1.16-1.24.23-.24-.12.65-.1.75-.2l-2.5.03c-.9.12.16.15-.26.3-.8.03-1.56.14-2.46.05l.3.14c-1.48.1-2.36.1-3.36-.04-.7.05-1.3.2-1.82.13a2.68 2.68 0 0 1-1.32-.54c-.7-.54-.95-1.18-1.1-1.6-.23-.83-.37-.7-.5-.33-.05.26-.1.67.01 1.1a3.45 3.45 0 0 0 .58 1.3 3.9 3.9 0 0 0 .88.86c.27.18.45.26.45.26a3.88 3.88 0 0 0 1.12.37c.18.03.4.04.54.05s.25.01.37.01l1.4.03c.9 0 1.75-.02 2.62-.06l6.18-.27c4.54.06 5.74.33 10.45.2 2.24.02 4.64-.05 6.83-.1 1.04-.2 2.88-.01 4.1-.2l.48.12c.42-.06.92-.1 1.35-.04l-.03.03c.63-.1 1.35-.04 1.66-.1l-.03.04.77-.02-.13.05a23.82 23.82 0 0 1 3.25-.06l-.08-.15c2.15.16 2.93-.14 4.87.05l-.03.04c2.45-.4 3.87.25 6.4-.1-.3.05.14.07.1.1 1.16-.04 2.4-.07 2.42-.35.85 0 .7.1.8.2-.01-.12.73-.18 1.4-.2l-.3.05 1.93-.05c-.17-.07-.28-.15-.4-.23.5.04.65.08.7.13.08.04.17.1.74-.12l-.08-.18a3.84 3.84 0 0 0 1.77-1.29 3.57 3.57 0 0 0 .51-.97c.06-.18.1-.38.13-.6a10.37 10.37 0 0 0 .04-.51c-.05-1.14-.3-1.64-.33-2.63zm-92.33-15.24c.15-.58.2-.94.2-.94a6.85 6.85 0 0 0 .33.15c.3.37.93.94 2.04 1.8l-.07.02c1.02.6 1.7.95 2.53 1.08-.01.32.87.44 1.08.64l-.03.01c.75.1 1.27.8 1.98.92-.03.01-.08.07-.23.01.47.18 1.13.42 1.1.6 1.1.48 2.6 1.26 3.43 1.35l-.07.02c.48.03.53.22 1.02.35.01.03.04.06.03.06.5.04 1.28.57 1.67.67l-.03.1.88.4-.3-.17c.25-.22.57.48 1.3.6.57.3 1.48-.01 2.02.4.36.01-.36.1.12.2-.06.15-.25-.01-.2.16.46.13.63.48 1.2.63l-.03.12c.78.12 1.08.8 1.57.9.3.18.36.35.37.46 0 .1-.04.14.2.2-.03.05-.07.1-.12.13.02.07.32.04.3.16-.16-.02-.04.1-.24.02-.04.03-.03.06.01.1.02.03.17.15.1.15-.02.04-.2.07-.44-.08.08.2-.16.08-.2.23-.02-.1-1.17-.04-.5-.22.06-.01.16-.01.15.03l.08-.12c-.66-.25-1.2.1-1.86.05.2.04.45.04.28.12l-.6-.03.13-.1-.9-.08.12.13c-.44-.08-.6-.3-1.1-.13-.23.1.42.18-.05.2-.6-.1-1.47-.25-2.23-.3.07.15-.14.14-.35.16l-.02-.13c-.8.15-.3-.28-1.1-.16l-.14.17c-.72.23-.38-.27-1.2.05.32-.01.14.28-.24.2l.1-.12c-.22.02-.3.07-.43.04.13-.06.07-.17-.24-.16l.2-.15-.6.2c-.46-.14-1.2.01-1.38-.17 0 0-1-.1-1.22.08.2-.1-.34-.17-.2-.3-.26.12-1.02.2-1.32.07h.06c-1.12-.17-1.92.16-2.92-.04.04.15-.5.05-.36.24-1.05.16-1.88-.43-2.27.12-.47.01-.55-.16-.8-.2l.1-.02c-.88 0-1.14-.01-1.78-.06-.33.03-.4.3-.97.18.2-.1-.04-.1-.26-.1.14 0 .2-.04-.1-.14-.04.03-.1.04-.17.05 0-.01-.01-.02-.01-.03-.36 0-.3.04-.14.07-.01.02 0 .04.05.07-.36-.17-1.04-.12-1.05-.3l-.76-.08c-.2-.02-.33-.01-.46-.06a.91.91 0 0 1-.6-.58c.08-.08.18.04.27.16-.06-.1-.1-.22-.12-.35.13 0 .1.2.17.28.08-.4-.3-.78.6-1.37l.06-.2.05-.03c-.04-.04.05-.24.13-.35.17-.01.2.2.5-.14.33-.2.67-.8.94-1.2-.2.18-.18.08-.14-.03.15-.18.32-.2.4-.38l.14.08c-.17-.02.26-.58.26-.7.17-.03-.14.35-.1.45.56-.75.28-.37.83-1.15.18-.5-.17-.01-.16-.3.22-.38.35-.8.67-1.2l-.2.07c.3-.76.5-1.2.85-1.65.18-.9.22-1.55.2-2.03l.14.1c.02.03.03.03.03.04zm-10.28-5.46c.73.17-.7-.05.36.3-.03.16-.5-.12-.3.1 1.02.37 1.55.87 2.8 1.3v.14c1.68.5 2.92 1.5 4.07 1.77 1.53.6 1.06.8 2.33 1.24l-.15.3-.24.54c-.47.97-.8 1.7-1.14 2.5-.35.8-.76 1.63-1.58 2.7-.8.87-1.4 1.34-2 1.85-.2.17-.86.7-1.1 1.48-.27.76-.23 1.87.56 2.77a2.87 2.87 0 0 0 1.38.9c.56.14.74.15 1.1.2.66.1 1.3.14 1.92.18.6-.15 1.6.13 2.3-.02l.26.13c.24-.05.5-.08.74 0l-.02.03c.35-.08.74-.01.9-.05l-.02.03h.42l-.07.05a7.5 7.5 0 0 1 1.77-.01l-.04-.15c1.17.2 1.6-.1 2.65.1l-.02.03c1.34-.35 2.1.3 3.47-.02-.17.04.07.08.06.1.63-.03 1.3-.03 1.32-.32.46.01.37.1.43.2 0-.13.4-.17.76-.17l-.17.04 1.03-.02-.2-.24c.54.08.13.3.66.25v-.2c.75.06 1.2.36 1.92.52 1.52.08 3.1.01 4.64-.03l.58-.01h.72l1.72.02c.02.04.03.07.03.1.3.6.16 1.3.16 1.3-.5.03-16.22.15-18.52 0 .1.14-2.8-.16-2.5.02-2.37.2-3.3-.8-4.17-.22-1.08.04-1.28-.12-1.84-.15l.26-.03-4.12.07c-.75.06-.87.33-2.2.27.43-.1-.12-.08-.62-.08.32-.02.42-.06-.24-.12-.1.03-.24.05-.37.07-.01-.01-.03-.01-.02-.03-.84.04-.7.08-.3.1-.02.02.01.04.13.06-.87-.13-2.43.03-2.54-.15-2.53.06-4.33.26-6.43.35-.24-.1.25-.18.86-.22l-1.5.05c.01-.13.86-.08 1.32-.1-1.78-.2-3.66.25-5.74.06l-.43.1-.12-.02c.01.06-.46.14-.77.16-.3-.1.02-.27-1-.25-.82-.1-2.32.08-3.38.15.58.02.4.08.14.12-.52.01-.8-.1-1.2-.05l-.05-.16c.2.15-1.35.17-1.54.24-.3-.1.8-.1.93-.2l-3.1.05c-.28.06-.3.1-.22.14.06.04.2.08-.01.15l-.53.04c-.07-.14-.1-.32-.17-.5l-.07-.27c-.03-.12-.05-.25-.08-.37-.05-.25-.1-.52-.1-.8l-.07.37c-.44-1.76-.52-2.88-.42-4.08-.13-1.68-.1-3.02-.1-4.04.01-.26 0-.48.02-.72.03-.3.2-.5.37-.66.27-.24.56-.34.84-.4l-.1.44c.1.02.17.05.24.1.12.07.28.15.42.22.02-.14.05-.27.08-.4.1.2.5.58 1.38 1.13.94.58 2.42 1.36 4.7 2l-.13.02c1.37.3 2.52.43 3.56.44.5.01 1.03-.03 1.52-.08.48-.1.96-.2 1.42-.35.36.26 2.24-.44 2.88-.54l-.05.04c1.56-.66 3.37-.92 4.78-1.7-.05.04-.05.13-.4.27.26-.12.55-.25.84-.37.28-.12.6-.25.6-.25.1-.01.13.02.27.07.13.06.2.13.2.17.56.22 1.22.55 1.88.92l.5.3.88.52c.58.36 1.2.73 1.63.83.46.13.76.18 1.14.13.37-.04.75-.18 1.06-.42.32-.23.56-.52.74-.8a2.91 2.91 0 0 0 .23-.42l.04-.1c0-.03-.03-.05-.04-.07l-.1-.13.1.1c-.3-.4-.48-.64-.63-.88l-.24-.4c-.13-.16-.5-.43-.83-.7-.04-.06-.12-.15-.1-.14a20.23 20.23 0 0 1-1.21-.94l-.95-.8c-.6-.5-1.14-1.02-1.5-1.28l.03-.12c-.28-.24-.58-.48-.76-.66a2.76 2.76 0 0 1-.5-.69c.1.2.2.38.32.55-.2.01-.38-.3-.48-.75-.1-.46-.08-1.03-.04-1.72.16-.65.2-1.3.54-1.9.27-.52 1-1.07 1.62-.57zm26.8-115.78l-.75 2.7-.9 3.68-.8 3.62c-.47 2.37-1.03 4.67-1.62 7-1.18 4.66-2.46 9.37-3.92 14.56l-14 49.52-4.04 14.8c-1.35 5.08-2.8 10.24-3.87 15.56-.12.67-.24 1.34-.3 2.07-.01.2-.02.33.01.64.06.27.15.53.4.72.14.13.27.26.4.4-.44.43-.74.94-.96 1.5-.26.7-.43 1.4-.44 2.2a4.43 4.43 0 0 0 .62 2.33c.4.7 1.1 1.22 1.5 1.54l2.43 1.93a9.72 9.72 0 0 1 .76.56l.37.3.17.15c.05.02.03.06-.01.1-.03.03-.05.06-.08.1-.22.24-.6.36-.92.2-.3-.15-.54-.38-.75-.53l-.15-.1-.03-.03-.1-.07-.23-.15-.95-.57c-.32-.18-.65-.36-1-.53-.17-.08-.37-.16-.57-.24-.18-.07-.55-.17-.84-.18-.3-.03-.64.08-.9.17l-.53.2-.96.4-1.85.8c-.17.03-.57.24-.56.26-1.52.5-3.07.9-4.63 1.15l-.92.13c-.56.02-1.38.06-2.3 0-1.87-.1-4.16-.56-5.87-1.1-1.4-.43-2.4-.86-2.64-.8l.03-.15c.1.04.15.04.22.05.12.02.2.01.23-.01.07-.05-.01-.18-.2-.36-.05-.03-.1-.06-.16-.1.02-.07.03-.15.05-.2.24-.93.44-1.5.44-1.5l.3-.84.4-.9c.03-.07.03-.15.04-.22v-.12l.03-.23.07-.45.13-.9.5-3.44.86-6.45 1.47-12.1 2.95-28.57 1.3-13.33c.5-3.78 1-7.1 1.62-10.4 1.2-6.64 2.6-13.34 5.02-24 1.15-5.1 2.45-10.3 3.47-15.6.28-1.3.4-2.76.42-4.1.05-1.35.04-2.67.07-4v-.18c4.4.73 9.2 1.26 15.65 1.76 6.17.55 10.08.77 14.05.98l2.83.1c-.02.1-.04.2-.06.3zm49.64 121.24c.15-.58.2-.94.2-.94a6.85 6.85 0 0 0 .33.15c.3.37.93.94 2.04 1.8l-.07.02c1.02.6 1.7.95 2.53 1.08-.01.32.87.44 1.08.64l-.03.01c.75.1 1.27.8 1.98.92-.03.01-.08.07-.23.01.47.18 1.13.42 1.1.6 1.1.48 2.6 1.26 3.43 1.35l-.07.02c.48.03.53.22 1.02.35.01.03.04.06.03.06.5.04 1.28.57 1.67.67l-.03.1.88.4-.3-.17c.25-.22.57.48 1.3.6.57.3 1.48-.01 2.02.4.36.01-.36.1.12.2-.06.15-.25-.01-.2.16.46.13.63.48 1.2.63l-.03.12c.78.12 1.08.8 1.57.9.3.18.36.35.37.46 0 .1-.04.14.2.2-.03.05-.07.1-.12.13.02.07.32.04.3.16-.16-.02-.04.1-.24.02-.04.03-.03.06.01.1.02.03.17.15.1.15-.02.04-.2.07-.44-.08.08.2-.16.08-.2.23-.02-.1-1.17-.04-.5-.22.06-.01.16-.01.15.03l.08-.12c-.66-.25-1.2.1-1.86.05.2.04.45.04.28.12l-.6-.03.13-.1-.9-.08.12.13c-.44-.08-.6-.3-1.1-.13-.23.1.42.18-.05.2-.6-.1-1.47-.25-2.23-.3.07.15-.14.14-.35.16l-.02-.13c-.8.15-.3-.28-1.1-.16l-.14.17c-.72.23-.38-.27-1.2.05.32-.01.14.28-.24.2l.1-.12c-.22.02-.3.07-.43.04.13-.06.07-.17-.24-.16l.2-.15-.6.2c-.46-.14-1.2.01-1.38-.17 0 0-1-.1-1.22.08.2-.1-.34-.17-.2-.3-.26.12-1.02.2-1.32.07h.06c-1.12-.17-1.92.16-2.92-.04.04.15-.5.05-.36.24-1.05.16-1.88-.43-2.27.12-.47.01-.55-.16-.8-.2l.1-.02c-.88 0-1.14-.01-1.78-.06-.33.03-.4.3-.97.18.2-.1-.04-.1-.26-.1.14 0 .2-.04-.1-.14-.04.03-.1.04-.17.05 0-.01-.01-.02-.01-.03-.36 0-.3.04-.14.07-.01.02 0 .04.05.07-.36-.17-1.04-.12-1.05-.3l-.76-.08c-.2-.02-.33-.01-.46-.06a.91.91 0 0 1-.6-.58c.08-.08.18.04.27.16-.06-.1-.1-.22-.12-.35.13 0 .1.2.17.28.08-.4-.3-.78.6-1.37l.06-.2.05-.03c-.04-.04.05-.24.13-.35.17-.01.2.2.5-.14.33-.2.67-.8.94-1.2-.2.18-.18.08-.14-.03.15-.18.32-.2.4-.38l.14.08c-.17-.02.26-.58.26-.7.17-.03-.14.35-.1.45.56-.75.28-.37.83-1.15.18-.5-.17-.01-.16-.3.22-.38.35-.8.67-1.2l-.2.07c.3-.76.5-1.2.85-1.65.18-.9.22-1.55.2-2.03l.14.1c.02.03.02.03.03.04zm-33.84-.82c.12-.96.22-1.9.3-2.85l.07-1.4.01-.4-.05-.43-.08-.64-1.1-10.3-2.77-24.26c-1.96-17.84-2.9-22.5-4.3-41l-1.38-20.32c-.18-2.3-.5-4.5-.74-6.64-.45-3.12-.97-8.08-1.5-12.4a216.29 216.29 0 0 0 7.4-.06c6.13-.1 12.68-.55 18.65-1.42 1.47-.3 3.54-.64 5.65-1.06.23 5.73.35 11.33.22 16.7l-.1.9c-.14.4.05 5.68-.1 6.46v2.4c-.04.67-.1 2.1-.1.9l-.03 3.86-.13 2.37-.34 25.33c-.3 11.03-.25 31.8.26 43.77.2 4.2.34 8.58.93 13.06.08.56.18 1.12.32 1.7a4.83 4.83 0 0 0 .1.36c-.56.47-.92 1.04-1.18 1.67-.26.7-.43 1.4-.44 2.2a4.43 4.43 0 0 0 .62 2.33c.4.7 1.1 1.22 1.5 1.54l2.43 1.93a9.72 9.72 0 0 1 .76.56l.37.3.17.15c.05.02.03.06-.01.1-.03.03-.05.06-.08.1-.22.24-.6.36-.92.2-.3-.15-.54-.38-.75-.53l-.15-.1-.03-.03-.1-.07-.23-.15-.95-.57c-.32-.18-.65-.36-1-.53-.17-.08-.37-.16-.57-.24-.18-.07-.55-.17-.84-.18-.3-.03-.64.08-.9.17l-.53.2-.96.4-1.85.8c-.17.03-.57.24-.56.26-1.52.5-3.07.9-4.63 1.15l-.92.13c-.56.02-1.38.06-2.3 0-1.87-.1-4.16-.56-5.87-1.1-.84-.25-1.53-.5-2-.66.3-1.57.55-3.13.75-4.64zm-3.28 6.12c.01-.26 0-.48.02-.72.03-.3.2-.5.37-.66a1.65 1.65 0 0 1 1.05-.41c.12 0 .22.02.33.05l-.07.5s.01 0 .02.01a21.41 21.41 0 0 0 .73.39 8.15 8.15 0 0 0 .81.57c.94.58 2.42 1.36 4.7 2l-.13.02c1.37.3 2.52.43 3.56.44.5.01 1.03-.03 1.52-.08.48-.1.96-.2 1.42-.35.36.26 2.24-.44 2.88-.54l-.05.04c1.56-.66 3.37-.92 4.78-1.7-.05.04-.05.13-.4.27.26-.12.55-.25.84-.37.28-.12.6-.25.62-.25.1-.01.13.02.27.07.13.06.2.13.2.17.56.22 1.22.55 1.88.92l.5.3.88.52c.58.36 1.2.73 1.63.83.46.13.76.18 1.14.13.37-.04.75-.18 1.06-.42.32-.23.56-.52.74-.8a2.91 2.91 0 0 0 .23-.42l.04-.1c0-.03-.03-.05-.04-.07l-.1-.13.1.1c-.3-.4-.48-.64-.63-.88l-.24-.4c-.13-.16-.5-.43-.83-.7-.04-.06-.12-.15-.1-.14a20.23 20.23 0 0 1-1.21-.94l-.95-.8c-.6-.5-1.14-1.02-1.5-1.28l.03-.12c-.28-.24-.58-.48-.76-.66a2.76 2.76 0 0 1-.5-.69c.1.2.2.38.32.55-.2.01-.38-.3-.48-.75-.1-.46-.08-1.03-.04-1.72.16-.65.2-1.3.54-1.9.28-.56 1.02-1.1 1.64-.6.73.17-.7-.05.36.3-.03.16-.5-.12-.3.1 1.02.37 1.55.87 2.8 1.3v.14c1.68.5 2.92 1.5 4.07 1.77 1.53.6 1.06.8 2.33 1.24l-.15.3-.24.54c-.47.97-.8 1.7-1.14 2.5-.35.8-.76 1.63-1.58 2.7-.8.87-1.4 1.34-2 1.85-.2.17-.86.7-1.1 1.48-.27.76-.23 1.87.56 2.77a2.87 2.87 0 0 0 1.38.9c.56.14.74.15 1.1.2.66.1 1.3.14 1.92.18.6-.15 1.6.13 2.3-.02l.26.13c.24-.05.5-.08.74 0l-.02.03c.35-.08.74-.01.9-.05l-.02.03h.42l-.07.05a7.5 7.5 0 0 1 1.77-.01l-.04-.15c1.17.2 1.6-.1 2.65.1l-.02.03c1.34-.35 2.1.3 3.47-.02-.17.04.07.08.06.1.63-.03 1.3-.03 1.32-.32.46.01.37.1.43.2 0-.13.4-.17.76-.17l-.17.04 1.03-.02-.2-.24c.54.08.13.3.66.25v-.2c.75.06 1.2.36 1.92.52 1.52.08 3.1.01 4.64-.03l.58-.01h.72l1.7.02c.02.04.03.07.03.1.3.6.16 1.3.16 1.3-.5.03-16.22.15-18.52 0 .1.14-2.8-.16-2.5.02-2.37.2-3.3-.8-4.17-.22-1.08.04-1.28-.12-1.84-.15l.26-.03-4.12.07c-.75.06-.87.33-2.2.27.43-.1-.12-.08-.62-.08.32-.02.42-.06-.24-.12-.1.03-.24.05-.37.07-.01-.01-.03-.01-.02-.03-.84.04-.7.08-.3.1-.02.02.01.04.13.06-.87-.13-2.43.03-2.54-.15-2.53.06-4.33.26-6.43.35-.24-.1.25-.18.86-.22l-1.5.05c.01-.13.86-.08 1.32-.1-1.78-.2-3.66.25-5.74.06l-.43.1h-.12c.01.06-.46.14-.77.16-.3-.1.02-.27-1-.25-.82-.1-2.32.08-3.38.15.58.02.4.08.14.12-.52.01-.8-.1-1.2-.05l-.05-.16c.2.15-1.35.17-1.54.24-.3-.1.8-.1.93-.2l-3.1.05c-.28.06-.3.1-.22.14.06.04.2.08-.01.15l-.53.04c-.07-.14-.1-.32-.17-.5l-.07-.27c-.03-.12-.05-.25-.08-.37-.05-.25-.1-.52-.1-.8l-.07.37c-.44-1.76-.52-2.88-.42-4.08-.15-1.66-.12-3-.1-4.02z"/><path d="M229.5 439.3h0l.08-.1z"/></svg>