<svg xmlns="http://www.w3.org/2000/svg" viewBox="0 0 480 480" xmlns:v="https://vecta.io/nano"><path d="M308.7 444.18l-55.63-.45 55.43-.45s-.04-1.05-.94-2.5h.04s-1-2.4-3.9-3.8l-1.7-.84c-7.36-3.84-29.3-13.56-29.3-13.56s-.75-.17-1.5.6c-.07-.06-.16-.13-.22-.2-2.7-2.78-2.08-54.7-1.52-83.37 6.8-.87 11.75-1.86 14.62-2.33 5.5-1 9.7-2.3 13.3-3.1 1.6-.4 2.6-2.1 2.2-3.7l-1.6-6.2s-.07.03-.22.08l-14.98-56.58-16.7-59.5h-70.7s-3.2 50.3-11.4 84c-2.54 10.8-4.47 17.32-7.28 26.4-.14-.07-.22-.1-.22-.1s-.9 3.5-1.9 6.1c-.4.9-.9 3 1.5 4.2 3.53 1.67 7.37 3.5 18.23 6.1-2.26 10.26-4.54 21.82-5.33 31.3-2.3 27.7-6.7 59.5-7 61.6a18.89 18.89 0 0 0-1.42 4.73c-.16.12-.28.28-.3.47-.2 1.3-.4 3-.4 4.8.1 3 .9 5.9.9 5.9v2.9c0 1.5 1.2 2.6 2.6 2.6l56.7-.1c1.5 0 2.6-1.2 2.6-2.6l-.1-2.4-5.1-.04c.08-.22.16-.5.22-.82l4.7-.04s-.04-1.05-.94-2.5h.04s-1-2.4-3.9-3.8a102.81 102.81 0 0 0-1.7-.84c-7.36-3.84-29.3-13.56-29.3-13.56s-.67-.14-1.38.47c-.66-.67-1.2-1.22-1.6-1.57-1.34-2 13.13-50.7 21.72-81.26a204.61 204.61 0 0 0 14.54.88c.6 8.57 1.4 18.9 2.53 27.47 3.3 25.2 5.8 52.6 6.1 54.4-.07 3.1-.58 6.37-1.07 9.4-.45.02-.92.3-1 .7-.2 1.3-.4 3-.4 4.8.1 3 .9 5.9.9 5.9v2.9c0 1.5 1.2 2.6 2.6 2.6l56.7-.1c1.5 0 2.6-1.2 2.6-2.6l-.1-2.4zm-89.52-.2l-32.28-.26 25.98-.2 6.3.47z" fill="#fff"/><path d="M278.7 257.94h0l-.2-.4zm14.34 76.02h0l.23-.15zm-94.2 1.3l.01.04c.02-.01.02-.02-.01-.04zm98.02 104.04h0l.08-.08z"/><path d="M309.45 443.66c-.08 0-.14-.03-.2-.06v-.03l-.05-.4c-.03-.26-.08-.52-.16-.8-.03.2-.07.37-.13.52-.1-.74-.1-.86-.08-.95.02-.07.04-.16-.13-.54h.03c.1.02.05-.06.03-.1l-.06-.16-.23-.62.12-.1c.13.01-.1-.28-.34-.55-.26-.28-.52-.52-.45-.6l-.4-.4c-.05-.12-.2-.38.01-.18-.3-.4-.37-.38-.67-.6-.08-.15-.18-.32-.3-.47-.76-.8-1.7-1.18-2.6-1.58l-.56-.33-1.84-.92-.57-.3-4.85-2.23-2.22-1c-.9-.52-1.8-1-2.72-1.28-.04-.04-.14-.06-.2-.07l-4.1-2-.2-.25c-.02-.25-1.75-.45-1.9-.73l-.72-.22c-.18-.12-.56-.34-.2-.23-.63-.3-.66-.27-1.14-.4l-.62-.43c-2.45-1.22-4.68-1.94-7.28-3.16l-1.27-.65c-.57-.45-1.72-.3-2.38.12l-.08-.27c-.12-.45-.2-.9-.28-1.33l-.35-2.36.07.38c-.42-3.17-.37-4.13-.6-7.72l.01-.4c-.27-3.5-.33-10.23-.4-13.06l.06-.18-.08-6.98v2.6c-.2-.9.07-5.28-.04-10.35.03-4.74-.35-9.62-.22-14.55-.06-2.35.12 2.07.1-1.44.1-.1.04 1.64.13.74-.01-3.45.16-5.65.15-9.9l.08-.17c-.06-5.55.26-10.46.2-14.16l.04-2.28c3.9-.64 6.74-.64 11.12-1.72-.63.16.28.03.24.07l3.3-.66c.93-.22 1.55-.43 1.54-.57 1.7-.35 1.4-.2 1.65-.15-.04-.12 1.43-.5 2.75-.83l-.6.2 3.76-.98-.8-.04c2-.44.58.15 2.46-.4l-.07-.18a32.38 32.38 0 0 1 1.9-.39l.44-.07c.17-.04.35-.08.5-.14.33-.1.64-.28.92-.47a3.86 3.86 0 0 0 1.33-1.64 3.87 3.87 0 0 0 .21-2.4l-1.07-4.2-.74-2.8c-.01-.03-.01-.1-.04-.1l-.1.03-.07.02c-.84-2.97-1.62-5.96-2.3-8.66l-.07.3c-1.7-7.07-2.66-9.57-4.15-15.97l.06.08c-2.48-7.93-3.1-12.75-5.62-20.93.32 1.02-.04-.46.01-.4-1.04-3.8-2.14-7.86-2.43-7.85-.72-2.78-.5-2.28-.5-2.67-.12.05-.84-2.34-1.45-4.5l.33.98-1.78-6.17.1 1.28c-.85-3.3.04-.9-.9-4.03l-.18.1c-1.24-4.54-1.7-7.28-2.8-11.7l-4.94-17.43-5.2-18.07-11.14.01-10.1-.1-.78-.15c-.34-.2-4.86.32-5.53.12l-2.05.1c-.58-.04-1.8-.08-.77-.13-1.9-.01-1.94.03-3.3.1l-2.03-.13c-7.48-.1-13.84.15-21.7.1l-6.34-.1c-2.66 0-5.54-.01-8.5-.01l-.95 13.5-.9 11.02c-1.14 14.37-4.07 30.88-6.4 45.4-.06.23-.12.66-.17 1.02-.02.18-.04.35-.06.47-.01.12-.02.2-.01.2l-1.34 6.6-1.5 6.56s-.92 4-2.25 9.16c-1.32 5.18-3.17 11.53-4.58 16.4-.1-.05-.2-.1-.3-.14l-1.26 5c-.24.92-.4 1.58-.46 1.93.01-.14 0-.24-.01-.28-.01-.03-.03-.02-.05 0 .01-.1.02-.18 0-.2-.05-.1-.2.1-.43.44-.25.44-.55 1.1-.57 2-.06.87.32 1.93.95 2.6a5.34 5.34 0 0 0 .95.82 7.78 7.78 0 0 0 .46.27l.33.17.65.33c4 2.07 7.34 3.12 10.82 4.05l1.75.44 1.72.48a96.31 96.31 0 0 0 8.8 1.82c.04.01.1.01.13.02 4.56.94 7.42 1.66 10.37 2.16l4.67.83a230.98 230.98 0 0 0 6.07.75l3.53.38-13.22 46.83-4.04 14.8c-1.35 5.08-2.8 10.24-3.87 15.56-.12.67-.24 1.34-.3 2.07-.01.2-.02.33.01.64.06.27.15.53.4.72a14.36 14.36 0 0 1 .68.67c-.3.37-.54.77-.72 1.2-.26.7-.43 1.4-.44 2.2a4.43 4.43 0 0 0 .62 2.33c.4.7 1.1 1.22 1.5 1.54l2.43 1.93a9.72 9.72 0 0 1 .76.56l.37.3.17.15c.05.02.03.06-.01.1-.03.03-.05.06-.08.1-.22.24-.6.36-.92.2-.3-.15-.54-.38-.75-.53l-.15-.1-.03-.03-.1-.07-.23-.15-.95-.57c-.32-.18-.65-.36-1-.53-.17-.08-.37-.16-.57-.24-.18-.07-.55-.17-.84-.18-.3-.03-.64.08-.9.17l-.53.2-.96.4-1.85.8c-.17.03-.57.24-.56.26-1.52.5-3.07.9-4.63 1.15l-.92.13c-.56.02-1.38.06-2.3 0-1.87-.1-4.16-.56-5.87-1.1-1.72-.52-2.83-1.06-2.7-.7.07.17.47.6 1.4 1.18.94.58 2.42 1.36 4.7 2l-.13.02c1.37.3 2.52.43 3.56.44.5.01 1.03-.03 1.52-.08.48-.1.96-.2 1.42-.35.36.26 2.24-.44 2.88-.54l-.05.04c1.56-.66 3.37-.92 4.78-1.7-.05.04-.05.13-.4.27.26-.12.55-.25.84-.37.28-.12.6-.25.62-.25.1-.01.13.02.27.07.13.06.2.13.2.17.56.22 1.22.55 1.88.92l.5.3.88.52c.58.36 1.2.73 1.63.83.46.13.76.18 1.14.13.37-.04.75-.18 1.06-.42.32-.23.56-.52.74-.8a2.91 2.91 0 0 0 .23-.42l.04-.1c0-.03-.03-.05-.04-.07l-.1-.13.1.1c-.3-.4-.48-.64-.63-.88l-.24-.4c-.13-.16-.5-.43-.83-.7-.04-.06-.12-.15-.1-.14a20.23 20.23 0 0 1-1.21-.94l-.95-.8c-.6-.5-1.14-1.02-1.5-1.28l.03-.12c-.28-.24-.58-.48-.76-.66a2.76 2.76 0 0 1-.5-.69c.1.2.2.38.32.55-.2.01-.38-.3-.48-.75-.1-.46-.08-1.03-.04-1.72.16-.65.2-1.3.54-1.9.28-.56 1.02-1.1 1.64-.6.73.17-.7-.05.36.3-.03.16-.5-.12-.3.1 1.02.37 1.55.87 2.8 1.3v.14c1.68.5 2.92 1.5 4.07 1.77 1.53.6 1.06.8 2.33 1.24l-.15.3-.24.54c-.47.97-.8 1.7-1.14 2.5-.35.8-.76 1.63-1.58 2.7-.8.87-1.4 1.34-2 1.85-.2.17-.86.7-1.1 1.48-.27.76-.23 1.87.56 2.77a2.87 2.87 0 0 0 1.38.9c.56.14.74.15 1.1.2.66.1 1.3.14 1.92.18.6-.15 1.6.13 2.3-.02l.26.13c.24-.05.5-.08.74 0l-.02.03c.35-.08.74-.01.9-.05l-.02.03h.42l-.07.05a7.5 7.5 0 0 1 1.77-.01l-.04-.15c1.17.2 1.6-.1 2.65.1l-.02.03c1.34-.35 2.1.3 3.47-.02-.17.04.07.08.06.1.63-.03 1.3-.03 1.32-.32.46.01.37.1.43.2 0-.13.4-.17.76-.17l-.17.04 1.03-.02-.2-.24c.54.08.13.3.66.25v-.2c.75.06 1.2.36 1.92.52 1.52.08 3.1.01 4.64-.03l.58-.01h.72l1.7.02c.02.04.03.07.03.1.3.6.16 1.3.16 1.3-.5.03-16.22.15-18.52 0 .1.14-2.8-.16-2.5.02-2.37.2-3.3-.8-4.17-.22-1.08.04-1.28-.12-1.84-.15l.26-.03-4.12.07c-.75.06-.87.33-2.2.27.43-.1-.12-.08-.62-.08.32-.02.42-.06-.24-.12-.1.03-.24.05-.37.07-.01-.01-.03-.01-.02-.03-.84.04-.7.08-.3.1-.02.02.01.04.13.06-.87-.13-2.43.03-2.54-.15-2.53.06-4.33.26-6.43.35-.24-.1.25-.18.86-.22l-1.5.05c.01-.13.86-.08 1.32-.1-1.78-.2-3.66.25-5.74.06l-.43.1-.12-.02c.01.06-.46.14-.77.16-.3-.1.02-.27-1-.25-.82-.1-2.32.08-3.38.15.58.02.4.08.14.12-.52.01-.8-.1-1.2-.05l-.05-.16c.2.15-1.35.17-1.54.24-.3-.1.8-.1.93-.2l-3.1.05c-.28.06-.3.1-.22.14.06.04.2.08-.01.15l-.53.04c-.07-.14-.1-.32-.17-.5l-.07-.27c-.03-.12-.05-.25-.08-.37-.05-.25-.1-.52-.1-.8l-.07.37c-.44-1.76-.52-2.88-.42-4.08-.13-1.68-.1-3.02-.1-4.04.01-.26 0-.48.02-.72.03-.3.2-.5.37-.66.1-.08.18-.14.27-.2-.02.14-.06.28-.08.4a1.21 1.21 0 0 1 .74-.19l.1-.44h.03c.17 0 .32.02.46.06.15.05.17.05.25.06.12.02.2.01.23-.01.07-.05-.01-.18-.2-.36-.18-.14-.4-.22-.65-.28.24-.95.44-1.53.44-1.53l.3-.84.4-.9c.03-.07.03-.15.04-.22l.02-.12.03-.23.07-.45.13-.9.5-3.44.86-6.45 1.47-12.1 2.95-28.57 1.3-13.33c.5-3.78.98-7.1 1.62-10.4 5.02-26.07-.18-5.54-1.4.96l-.2 1.6-.08.46c.02-.01-.03.42-.1 1l-.25 1.88c-.23 1.1-.15-.1-.66 3.75-.45 3.05-.78 8.68-1.13 12.67.2-2.15.2-1.45.12-.52l-.47 4.52-.1.14c.04.27-.43 5.14-.47 5.8-.18 1.1.25-3 .24-3.48l-1.22 11.58c-.4 4.12.17-.74.03 1.24l-1.3 11.35.24-1.3c-.76 6.83-1.3 10.9-1.97 15.5l-1.02 8.5c-.01.32-.14.58-.26.87a9.5 9.5 0 0 0-.31.84c-.2.55-.34 1.1-.48 1.64-.04.16-.06.3-.1.47a2.77 2.77 0 0 0-.48.11c-.34.12-.72.35-1.02.8-.07.1-.13.24-.18.37-.05.14-.08.3-.1.32-.02.1-.05.2-.07.3-.17.8-.27 1.5-.27 1.5-.2 1.4-.33 2.6-.25 3.85.08 1.18.25 2.27.5 3.37.06.27.13.55.2.83l.16.64.2.78c.07.25.15.5.23.77.08.01.17.01.26.01.02.3.04.44.07.66.07.53.15.9.24 1 .1.12.2-.02.35-.5.08-.26.17-.73.27-1.2l1.13-.03 4.2-.16c5.6.02 7.1.28 12.92.13 2.78 0 5.74-.1 8.45-.14.9-.15 2.27-.1 3.53-.13.32.02.66.03 1.02-.03.22.01.44-.01.66-.04l.47.1c.52-.06 1.14-.1 1.67-.05l-.03.04c.78-.1 1.67-.05 2.06-.1l-.03.04.48-.01.35.03-.04.01c.08-.01.16-.01.23-.01.18 0 .35 0 .56-.02l.04.12c1.4-.22 2.65.2 3.6-.02 1.45-.1.97.38 2.48.15l.6.17c.65.03.46-.2 1.18-.12-.04.1.9.1.48.2 1.62.18 3.3-.2 5.42.1.47-.2 1.54-.07 1.9-.22.06.1 2.15.03.94.22-.1.02-.3.01-.27-.02l-.15.12c1.22.24 2.2-.1 3.42-.06-.36-.04-.83-.04-.5-.12l1.12.03-.23.1 1.67.07-.23-.13c.4.04.68.1.97.15.08.01.15.02.22.02.07.01.04.01.06.01s.05-.02.12-.07c.18-.1-.13-.17.16-.2.03.01.07.02.1.03-.02.1-.03.2-.05.3l-.03.12c0 .16-.01.3-.01.47-.01.3 0 .7-.05.8a1.69 1.69 0 0 1-.2.5c.16 0 .06.2-.08.4l-.1-.06c-.25.36-.4.3-.48.28-.1-.05-.16-.05-.54.04l.06-.1c-.06.1-.12.18-.27.27-1.32.25-.7-.26-2.18.08.58-.02.27.27-.44.22l.18-.12c-.4.03-.53.08-.8.05.24-.07.12-.17-.46-.15l.4-.15-1.1.22c-.85-.13-2.2.04-2.55-.13 0 0-1.83-.08-2.25.1.37-.12-.64-.16-.35-.3-.47.13-1.87.24-2.43.1l.1-.02c-2.07-.14-3.54.2-5.4.03.08.14-.9.07-.65.25-1.92.2-3.5-.37-4.2.2-.87.03-1.04-.13-1.5-.16l.2-.03c-1.64.05-2.1.06-3.33.04-.6.06-.7.32-1.8.26.35-.1-.1-.1-.5-.08.26-.02.34-.06-.2-.13-.08.03-.2.05-.3.07 0-.01-.03-.01-.01-.03-.68.04-.56.07-.25.1-.02.02.01.04.1.07-.7-.13-1.97.01-2.05-.17-2.04.05-3.5.24-5.2.3-.2-.1.2-.18.7-.2l-1.2.04c.01-.13.7-.08 1.06-.1-1.44-.2-2.96.22-4.65.03l-.35.1-.1-.02c.01.06-.37.13-.62.15-.24-.12.02-.27-.82-.26-.66-.1-1.87.06-2.74.12.47.02.32.08.12.13-.42 0-.66-.1-.98-.06l-.04-.16c.16.15-1.1.16-1.24.23-.24-.12.65-.1.75-.2l-2.5.03c-.9.12.16.15-.26.3-.8.03-1.56.14-2.46.05l.3.14c-1.48.1-2.36.1-3.36-.04-.7.05-1.3.2-1.82.13a2.68 2.68 0 0 1-1.32-.54c-.7-.54-.95-1.18-1.1-1.6-.23-.83-.37-.7-.5-.33-.05.26-.1.67.01 1.1a3.45 3.45 0 0 0 .58 1.3 3.9 3.9 0 0 0 .88.86c.27.18.45.26.45.26a3.88 3.88 0 0 0 1.12.37c.18.03.4.04.54.05s.25.01.37.01l1.4.03c.9 0 1.75-.02 2.62-.06l6.18-.27c4.54.06 5.74.33 10.45.2 2.24.02 4.64-.05 6.83-.1 1.04-.2 2.88-.01 4.1-.2l.48.12c.42-.06.92-.1 1.35-.04l-.03.03c.63-.1 1.35-.04 1.66-.1l-.03.04.77-.02-.13.05a23.82 23.82 0 0 1 3.25-.06l-.08-.15c2.15.16 2.93-.14 4.87.05l-.03.04c2.45-.4 3.87.25 6.4-.1-.3.05.14.07.1.1 1.16-.04 2.4-.07 2.42-.35.85 0 .7.1.8.2-.01-.12.73-.18 1.4-.2l-.3.05 1.93-.05c-.17-.07-.28-.15-.4-.23.5.04.65.08.7.13.08.04.17.1.74-.12l-.08-.18a3.84 3.84 0 0 0 1.77-1.29 3.57 3.57 0 0 0 .51-.97c.06-.18.1-.38.13-.6a10.37 10.37 0 0 0 .04-.51c-.04-.98-.28-1.47-.32-2.46-.08 0-.14-.03-.2-.06v-.03l-.05-.4c-.03-.26-.08-.52-.16-.8-.03.2-.07.37-.13.52-.1-.74-.1-.86-.08-.95.02-.07.04-.16-.13-.54h.03c.1.02.05-.06.03-.1l-.06-.16c-.08-.2-.15-.4-.23-.62l.12-.1c.13.01-.1-.28-.34-.55-.26-.28-.52-.52-.45-.6-.14-.14-.26-.27-.4-.4-.05-.12-.2-.38.01-.18-.3-.4-.37-.38-.67-.6-.08-.15-.18-.32-.3-.47-.76-.8-1.7-1.18-2.6-1.58-.2-.1-.37-.23-.56-.33-.25-.13-.5-.25-.76-.38-.33-.18-.7-.36-1.08-.54-.2-.1-.38-.2-.57-.3-1.6-.77-3.24-1.5-4.85-2.23l-2.22-1c-.9-.52-1.8-1-2.72-1.28-.04-.04-.14-.06-.2-.07a112.13 112.13 0 0 1-4.1-2.01l-.2-.25c-.02-.25-1.75-.45-1.9-.73l-.72-.22c-.18-.12-.56-.34-.2-.23-.63-.3-.66-.27-1.14-.4l-.62-.43c-2.45-1.22-4.68-1.94-7.28-3.16-.38-.2-.8-.43-1.27-.65-.58-.45-1.72-.3-2.4.13l-.36-.36-.4-.38c-.03-.02-.07-.07-.06-.12-.02-.2.02-.62.05-.95l.16-1.06c.24-1.43.56-2.86.88-4.25l3.44-13.92-.1.45c.9-3.68 1.27-4.74 2.35-8.83l.15-.46c1-4 3.24-11.6 4.1-14.82l.12-.2 2.24-7.9-.86 2.95c.12-1.07 1.82-5.95 3.34-11.7 1.56-5.36 2.75-10.98 4.4-16.54.67-2.68-.53 2.38.53-1.6.13-.1-.47 1.87-.1.87l.44-1.58c3.2.3 6.46.5 9.53.63 1.07-.03 2.55.03 4.08.06 1.53.04 3.1.1 4.37.02l.98.1c.87-.07 1.9-.1 2.77-.05l-.05.04c1.3-.1 2.77-.06 3.42-.14l-.05.04 1.58-.07-.27.06c1.13-.1 2.28-.15 3.4-.2l3.25-.2-.18-.13c2.2-.04 3.7-.24 5.14-.4 1.44-.15 2.83-.34 4.8-.47l-.05.04c.28-.06.53-.1.8-.15l-.28 22.7c-.3 11.03-.25 31.8.26 43.77.2 4.2.34 8.58.93 13.06.08.56.18 1.12.32 1.7.07.25.13.5.24.75-.34.4-.6.82-.78 1.3-.26.7-.43 1.4-.44 2.2a4.43 4.43 0 0 0 .62 2.33c.4.7 1.1 1.22 1.5 1.54l2.43 1.93a9.72 9.72 0 0 1 .76.56l.37.3.17.15c.05.02.03.06-.01.1-.03.03-.05.06-.08.1-.22.24-.6.36-.92.2-.3-.15-.54-.38-.75-.53l-.15-.1-.03-.03-.1-.07-.23-.15-.95-.57c-.32-.18-.65-.36-1-.53-.17-.08-.37-.16-.57-.24-.18-.07-.55-.17-.84-.18-.3-.03-.64.08-.9.17l-.53.2-.96.4-1.85.8c-.17.03-.57.24-.56.26-1.52.5-3.07.9-4.63 1.15l-.92.13c-.56.02-1.38.06-2.3 0-1.87-.1-4.16-.56-5.87-1.1-1.23-.37-2.14-.75-2.5-.8.01-.04.01-.08.02-.12.04.01.06.01.1.02.12.02.2.01.23-.01.07-.05-.01-.18-.2-.36-.02-.02-.05-.02-.07-.04.23-1.38.46-2.74.62-4.04.12-.96.22-1.9.3-2.85l.07-1.4.01-.4-.05-.43-.08-.64-1.1-10.3-2.77-24.26c-1.96-17.84-2.9-22.5-4.3-41-.14-2-1.84-3.7-.62 5.8.01.76-.18-.8-.35-2.75l.4 4.75c-.08-.03-.28-2.72-.4-4.2.32 5.67 1.12 11.65 1.85 18.27l.24 1.36.04.4c.02-.01.08.35.16.84l.24 1.6c.05.94-.16-.05.24 3.22.26 2.6.92 7.34 1.35 10.72-.2-1.83-.1-1.24.02-.46l.4 3.84-.06.13c.1.2.57 4.35.66 4.9.03.94-.34-2.53-.44-2.93l1.1 9.84c.44 3.5.02-.65.28 1.02l1.03 9.66-.03-1.13.8 7.3.3 3 .15 1.44a37.08 37.08 0 0 1-.09 1.44c-.15 2.6-.44 4.9-.73 6.94a2.06 2.06 0 0 0-1 .12c-.34.12-.72.35-1.02.8-.07.1-.13.24-.18.37-.05.14-.08.3-.1.32-.02.1-.05.2-.07.3-.17.8-.27 1.5-.27 1.5-.2 1.4-.33 2.6-.25 3.85.08 1.18.25 2.27.5 3.37.06.27.13.55.2.83l.16.64.2.78c.07.25.15.5.23.77.08.01.17.01.26.01.02.3.04.44.07.66.07.53.15.9.24 1 .1.12.2-.02.35-.5.08-.26.17-.73.27-1.2l1.13-.03 4.2-.16c5.6.02 7.1.28 12.92.13 2.78 0 5.74-.1 8.45-.14.9-.15 2.26-.1 3.53-.13.32.02.66.03 1.02-.03.22.01.44-.01.66-.04l.47.1c.52-.06 1.14-.1 1.67-.05l-.03.04c.78-.1 1.67-.05 2.06-.1l-.03.04.48-.01.35.03-.04.01c.08-.01.16-.01.23-.01.18 0 .35 0 .56-.02l.04.12c1.4-.22 2.65.2 3.6-.02 1.45-.1.97.38 2.48.15l.6.17c.65.03.46-.2 1.18-.12-.04.1.9.1.48.2 1.62.18 3.3-.2 5.42.1.47-.2 1.54-.07 1.9-.22.06.1 2.15.03.94.22-.1.02-.3.01-.27-.02l-.15.12c1.22.24 2.2-.1 3.42-.06-.36-.04-.83-.04-.5-.12l1.12.03-.23.1 1.67.07-.23-.13c.4.04.68.1.97.15.08.01.15.02.22.02.07.01.04.01.06.01s.05-.02.12-.07c.18-.1-.13-.17.16-.2.03.01.07.02.1.03-.02.1-.03.2-.05.3l-.03.12c0 .16-.01.3-.01.47-.01.3 0 .7-.05.8a1.69 1.69 0 0 1-.2.5c.16 0 .06.2-.08.4l-.1-.06c-.25.36-.4.3-.48.28-.1-.05-.16-.05-.54.04l.06-.1c-.06.1-.12.18-.27.27-1.32.25-.7-.26-2.18.08.58-.02.27.27-.44.22l.18-.12c-.4.03-.53.08-.8.05.24-.07.12-.17-.46-.15l.4-.15-1.1.22c-.85-.13-2.2.04-2.55-.13 0 0-1.83-.08-2.25.1.37-.12-.64-.16-.35-.3-.47.13-1.87.24-2.43.1l.1-.02c-2.07-.14-3.54.2-5.4.03.08.14-.9.07-.65.25-1.92.2-3.5-.37-4.2.2-.87.03-1.04-.13-1.5-.16l.2-.03c-1.64.05-2.1.06-3.33.04-.6.06-.7.32-1.8.26.35-.1-.1-.1-.5-.08.26-.02.34-.06-.2-.13-.08.03-.2.05-.3.07 0-.01-.03-.01-.01-.03-.68.04-.56.07-.25.1-.02.02.01.04.1.07-.7-.13-1.97.01-2.05-.17-2.04.05-3.5.24-5.2.3-.2-.1.2-.18.7-.2l-1.2.04c.01-.13.7-.08 1.06-.1-1.44-.2-2.96.22-4.65.03l-.35.1-.1-.02c.01.06-.37.13-.62.15-.24-.12.02-.27-.82-.26-.66-.1-1.87.06-2.74.12.47.02.32.08.12.13-.42 0-.66-.1-.98-.06l-.04-.16c.16.15-1.1.16-1.24.23-.24-.12.65-.1.75-.2l-2.5.03c-.9.12.16.15-.26.3-.8.03-1.56.14-2.46.05l.3.14c-1.48.1-2.36.1-3.36-.04-.7.05-1.3.2-1.82.13a2.68 2.68 0 0 1-1.32-.54c-.7-.54-.95-1.18-1.1-1.6-.23-.83-.37-.7-.5-.33-.05.26-.1.67.01 1.1a3.45 3.45 0 0 0 .58 1.3 3.9 3.9 0 0 0 .88.86c.27.18.45.26.45.26a3.88 3.88 0 0 0 1.12.37c.18.03.4.04.54.05a4.57 4.57 0 0 0 .37.01l1.4.03c.9 0 1.75-.02 2.62-.06l6.18-.27c4.54.06 5.74.33 10.45.2 2.24.02 4.64-.05 6.83-.1 1.04-.2 2.88-.01 4.1-.2l.48.12c.42-.06.92-.1 1.35-.04l-.03.03c.63-.1 1.35-.04 1.66-.1l-.03.04.77-.02-.13.05a23.82 23.82 0 0 1 3.25-.06l-.08-.15c2.15.16 2.93-.14 4.87.05l-.03.04c2.45-.4 3.87.25 6.4-.1-.3.05.14.07.1.1 1.16-.04 2.4-.07 2.42-.35.85 0 .7.1.8.2-.01-.12.73-.18 1.4-.2l-.3.05 1.93-.05c-.17-.07-.28-.15-.4-.23.5.04.65.08.7.13.08.04.17.1.74-.12l-.08-.18a3.84 3.84 0 0 0 1.77-1.29 3.57 3.57 0 0 0 .51-.97c.06-.18.1-.38.13-.6a10.37 10.37 0 0 0 .04-.51c-.03-1.04-.27-1.54-.3-2.53zm-92.32-15.24c.15-.58.2-.94.2-.94a6.85 6.85 0 0 0 .33.15c.3.37.93.94 2.04 1.8l-.07.02c1.02.6 1.7.95 2.53 1.08-.01.32.87.44 1.08.64l-.03.01c.75.1 1.27.8 1.98.92-.03.01-.08.07-.23.01.47.18 1.13.42 1.1.6 1.1.48 2.6 1.26 3.43 1.35l-.07.02c.48.03.53.22 1.02.35.01.03.04.06.03.06.5.04 1.28.57 1.67.67l-.03.1.88.4-.3-.17c.25-.22.57.48 1.3.6.57.3 1.48-.01 2.02.4.36.01-.36.1.12.2-.06.15-.25-.01-.2.16.46.13.63.48 1.2.63l-.03.12c.78.12 1.08.8 1.57.9.3.18.36.35.37.46 0 .1-.04.14.2.2-.03.05-.07.1-.12.13.02.07.32.04.3.16-.16-.02-.04.1-.24.02-.04.03-.03.06.01.1.02.03.17.15.1.15-.02.04-.2.07-.44-.08.08.2-.16.08-.2.23-.02-.1-1.17-.04-.5-.22.06-.01.16-.01.15.03l.08-.12c-.66-.25-1.2.1-1.86.05.2.04.45.04.28.12l-.6-.03.13-.1-.9-.08.12.13c-.44-.08-.6-.3-1.1-.13-.23.1.42.18-.05.2-.6-.1-1.47-.25-2.23-.3.07.15-.14.14-.35.16l-.02-.13c-.8.15-.3-.28-1.1-.16l-.14.17c-.72.23-.38-.27-1.2.05.32-.01.14.28-.24.2l.1-.12c-.22.02-.3.07-.43.04.13-.06.07-.17-.24-.16l.2-.15-.6.2c-.46-.14-1.2.01-1.38-.17 0 0-1-.1-1.22.08.2-.1-.34-.17-.2-.3-.26.12-1.02.2-1.32.07h.06c-1.12-.17-1.92.16-2.92-.04.04.15-.5.05-.36.24-1.05.16-1.88-.43-2.27.12-.47.01-.55-.16-.8-.2h.1c-.88 0-1.14-.01-1.78-.06-.33.03-.4.3-.97.18.2-.1-.04-.1-.26-.1.14 0 .2-.04-.1-.14-.04.03-.1.04-.17.05 0-.01-.01-.02-.01-.03-.36 0-.3.04-.14.07-.01.02 0 .04.05.07-.36-.17-1.04-.12-1.05-.3l-.76-.08c-.2-.02-.33-.01-.46-.06a.91.91 0 0 1-.6-.58c.08-.08.18.04.27.16-.06-.1-.1-.22-.12-.35.13 0 .1.2.17.28.08-.4-.3-.78.6-1.37l.06-.2.05-.03c-.04-.04.05-.24.13-.35.17-.01.2.2.5-.14.33-.2.67-.8.94-1.2-.2.18-.18.08-.14-.03.15-.18.32-.2.4-.38l.14.08c-.17-.02.26-.58.26-.7.17-.03-.14.35-.1.45.56-.75.28-.37.83-1.15.18-.5-.17-.01-.16-.3.22-.38.35-.8.67-1.2l-.2.07c.3-.76.5-1.2.85-1.65.18-.9.22-1.55.2-2.03l.14.1c.02.04.02.04.03.04zm47.68-219.2c.12 0 .23-.01.35-.01.07 0 .13-.01.2-.01l.32.84c-.03.2 1.96 7.02.66 3.14-.1-.33-.27-.93-.23-.9l-.25-.44c.9 4.03 2.15 7.17 3.2 11.1-.3-1.17-.73-2.72-.36-1.7l1 3.65-.3-.73 1.47 5.45-.1-.78c.68 2.68.74 3.67 1.75 6.62.48 1.33-.54-2.56.28.23l3.52 13.48c.02-.46.36.76.74 2l-.08.18c1.52 4.77.23 1.84 1.7 6.58l.4.8c1.45 4.25.4 2.4 2.07 7.1-.55-1.9.01-.97.62 1.38l-.28-.56c.4 1.28.55 1.7.75 2.57-.27-.75-.28-.36.25 1.54l-.48-1.24 1.16 3.54c.6 2.8 1.92 7.18 2.06 8.36 0 0 1.5 6 2.03 7.32-.43-1.17.4 2.14.02 1.23.53 1.5 1.84 6.06 2.2 7.93l-.1-.34c1.65 6.8 3.24 11.53 4.67 17.66.07-.3.84 2.92.8 2.08.68 2.3 1.2 4.44 1.67 6.37l-.6.17-.52.14c-2.8.7-5.67 1.27-8.52 1.8l-.52.1c-.4-1.62-.85-3.33-1.37-5.73-.78-4.34-.74-5.54-1.73-10-.4-2.14-.92-4.4-1.37-6.5-.4-.95-.55-2.74-.96-3.88l.03-.48c-.14-.4-.28-.86-.3-1.28l.04.02c-.2-.6-.3-1.28-.4-1.57l.04.02-.16-.73.07.12c-.3-1.03-.54-2.12-.7-3.08l-.13.1c-.26-2.08-.7-2.76-.9-4.65l.04.02c-.86-2.25-.5-3.74-1.36-6.07.1.3.05-.14.1-.13-.27-1.1-.54-2.27-.83-2.23-.17-.8-.05-.67.03-.8-.12.03-.32-.66-.46-1.3l.1.28-.42-1.8-.16.4c-.14-.97.23-.3-.02-1.2l-.2.05c-.25-1.33-.12-2.17-.26-3.48-1.06-5.34-2.83-10.94-3.62-15.94l.1-.25c.2-.14-.62-1.3-.47-1.52l-.23-.55c0-.17-.04-.52.08-.24-.1-.53-.15-.54-.3-.9v-.6c-.37-2.12-1.02-3.84-1.45-6.05-.32-2.7-1.65-7.64-2.4-10.48-1.18-3.98-1.33-8.86-2.54-12.93 0-.14-.14-.48-.16-.47l-.74-3.8s-.9-4.6-1.65-7.43c-.15-.58-.3-1.07-.43-1.45.55-.07 1.35-.1 2.2-.12.43.01.87.01 1.3 0zm-4.13.13c-.06.77-.03 2.27.14 4.8l-.06-.1c.3 2.1.54 3.42 1.06 4.8-.24.28.32 1.72.32 2.22l-.03-.04c.47 1.22.35 2.65.8 3.83-.03-.04-.12-.05-.18-.33.22.88.53 2.1.38 2.2.5 2.12 1.03 5.1 1.58 6.4l-.07-.08c.34.74.24 1 .5 1.85-.01.05-.01.12-.02.1.36.8.56 2.46.78 3.13l-.1.07.4 1.68-.1-.63c.35.15.1 1.3.55 2.5.2 1.15 1.12 2.18 1.24 3.4.26.53-.34-.45-.04.37-.15.06-.18-.37-.26-.13.26.8.14 1.4.47 2.4l-.1.07c.52 1.28.4 2.55.8 3.4.4 1.35-.15 1 .4 2.38l-.04.6c.1.62.3.4.38 1.1-.1-.02.1.88-.08.5.2 1.57.94 3.07 1.12 5.15.3.4.4 1.44.64 1.73-.08.07.45 2.04 0 .94-.04-.1-.07-.27-.04-.26l-.15-.1c.04 1.2.6 2.07.8 3.22-.03-.35-.14-.8 0-.5L272 267l-.15-.2.3 1.6.08-.24c.1.8-.05 1.1.32 1.94.2.37.01-.77.23.04.14 1.05.34 2.63.6 3.96.1-.15.18.2.3.56l-.1.07c.47 1.37-.16.57.28 1.93l-.1-.1.33.3c.5 1.2-.1.73.5 2.06-.14-.55.2-.32.3.37l-.15-.15c.1.37.18.5.2.74-.1-.2-.2-.08-.06.47l-.23-.34.44 1c.04.83.47 2.08.37 2.45 0 0 .28 1.75.54 2.1-.2-.33-.03.64-.22.4.22.42.6 1.73.58 2.3l-.04-.1c.27 2 .88 3.33 1.07 5.13.13-.1.24.84.37.57.55 1.8.3 3.4 1 3.96.2.83.07 1 .13 1.45l-.07-.2a62.96 62.96 0 0 1 .68 3.16c.17.57.45.6.6 1.66-.17-.3-.07.1.01.5-.07-.24-.12-.3-.1.2.05.07.1.17.13.27-.01.01-.01.03-.02.02.17.64.18.52.13.22.02.01.03-.02.04-.12 0 .7.38 1.87.22 2 .43 1.94.9 3.3 1.28 4.9-.06.2-.2-.16-.34-.63l.26 1.14c-.13.02-.2-.65-.3-1 .06 1.4.77 2.78.9 4.42l.17.3v.1c.05-.02.2.33.26.56-.07.25-.27.04-.1.83.01.65.4 1.77.63 2.6-.07-.45.02-.32.1-.13.08.4.01.65.12.95l-.15.07c.12-.18.36 1 .45 1.14-.07.25-.22-.6-.32-.68l.5 2.4c.28.83.12-.18.33.2.15.65.36 1.3.46 2.03-4.97.86-9.87 1.57-14.48 2l-.48-.1c-.1-.1-.74.05-1.42.2l-.8-5.37c-.4-4.44-.25-5.65-.85-10.23-.22-2.2-.53-4.53-.8-6.67-.32-1-.3-2.8-.62-4l.07-.48c-.1-.4-.2-.9-.18-1.3l.04.02c-.16-.6-.2-1.3-.27-1.62l.04.02-.1-.75.06.12c-.22-1.07-.35-2.18-.42-3.17l-.14.1c-.07-2.12-.47-2.85-.5-4.76l.04.02c-.66-2.35-.18-3.8-.84-6.23.08.3.06-.14.1-.12-.18-1.13-.34-2.34-.63-2.32-.1-.83.01-.68.1-.8-.12.02-.26-.7-.35-1.34l.08.3-.27-1.84-.2.4c-.05-1 .25-.28.08-1.22l-.2.04c-.13-1.36.07-2.2.05-3.52-.62-5.47-1.88-11.26-2.3-16.38l.1-.25c.2-.13-.52-1.35-.35-1.57l-.18-.57c.01-.17 0-.53.1-.24-.07-.54-.1-.55-.23-.93l.05-.6c-.22-2.16-.72-3.95-1-6.2-.1-2.75-1.04-7.83-1.55-10.76-.85-4.1-.58-9.03-1.42-13.24.01-.14-.1-.5-.12-.5l-.4-3.9s-.48-4.72-.96-7.63a19.37 19.37 0 0 0-.28-1.46 141.71 141.71 0 0 1 7.36.06zm-7.97-.07c-.13.8-.23 2.28-.3 4.72l-.06-.1c.1 2.15.22 3.5.6 4.94-.26.26.16 1.76.12 2.27l-.03-.04c.36 1.28.12 2.7.46 3.93-.03-.05-.1-.06-.15-.35.14.9.35 2.15.2 2.24.3 2.18.6 5.23 1.03 6.6l-.06-.1c.28.77.16 1.03.36 1.9-.02.05-.02.12-.03.1.3.84.35 2.53.52 3.22l-.1.06.25 1.72-.06-.65c.33.18-.02 1.33.34 2.55.12 1.18.95 2.3.97 3.52.22.56-.3-.48-.07.37-.15.05-.15-.4-.25-.15.2.84.03 1.42.3 2.45l-.12.06c.42 1.33.2 2.6.55 3.48.3 1.4-.23 1 .23 2.43l-.08.6c.07.63.27.42.3 1.13-.1-.03.05.9-.1.5.06 1.6.7 3.16.72 5.27.27.42.3 1.48.48 1.8-.08.07.27 2.1-.08.95-.03-.1-.05-.28-.01-.27l-.14-.12c-.07 1.2.42 2.13.54 3.3-.01-.35-.08-.8.04-.5l.13 1.1-.13-.2.15 1.63.1-.24c.04.8-.14 1.1.15 1.98.15.4.07-.77.22.06.05 1.07.13 2.68.25 4.04.13-.14.17.22.24.6l-.12.06c.35 1.42-.2.56.1 1.97l.2.23c.4 1.26-.17.73.34 2.12-.1-.56.24-.3.27.4l-.14-.16c.07.38.14.5.14.77-.1-.22-.2-.1-.1.46l-.2-.36.35 1.05c-.03.84.3 2.14.16 2.5 0 0 .13 1.8.36 2.18-.16-.34-.1.64-.25.38.18.45.45 1.8.37 2.36l-.03-.1c.1 2.04.6 3.43.63 5.26.13-.1.16.87.32.6.4 1.85.01 3.46.66 4.07.13.85-.02 1.03 0 1.47l-.05-.2.4 3.25c.12.6.4.65.45 1.72-.14-.33-.08.1-.03.5-.04-.25-.1-.33-.1.2.04.07.07.18.1.3-.01.01-.01.03-.02.02.1.66.13.54.1.23.02.01.04-.01.05-.1-.06.7.22 1.92.05 2.02.26 2 .6 3.4.85 5.05-.07.2-.2-.18-.28-.66l.16 1.17c-.13 0-.15-.67-.2-1.03-.07 1.43.52 2.87.5 4.53l.14.33-.01.1c.06-.01.17.35.2.6-.1.24-.27.01-.18.83-.04.66.25 1.82.4 2.66-.03-.46.05-.32.1-.13.05.4-.04.65.04.96l-.15.06c.13-.18.27 1.05.35 1.2-.1.24-.17-.62-.26-.7l.28 2.45c.2.86.13-.17.3.23.08.57.2 1.12.26 1.73-.12.01-.2.01-.27-.01l-1.2.23c-.35 0-1.08.04-.47-.08-1.13.12-1.16.15-1.97.3l-1.23-.01c-4.48.32-8.27.86-13 1h-.24c-.02-.48-.06-.95-.13-1.42.3-.23.04-1.77.14-2.28l.02.05c-.2-1.32.2-2.7 0-3.98.02.05.1.08.1.37-.03-.92-.1-2.2.07-2.26-.04-2.2.03-5.3-.24-6.7l.05.1c-.18-.8-.03-1.04-.12-1.94.02-.05.03-.1.04-.1-.18-.88-.04-2.56-.12-3.27l.1-.05-.04-1.75-.02.65c-.3-.22.18-1.32-.02-2.6.03-1.2-.66-2.4-.52-3.63-.15-.6.24.5.12-.36.16-.03.1.4.23.18-.08-.86.15-1.42.03-2.48l.12-.04c-.24-1.38.13-2.62-.1-3.54-.12-1.43.36-.96.1-2.45l.16-.58c.02-.64-.2-.45-.14-1.16.1.04.07-.9.18-.48.14-1.6-.3-3.24-.06-5.36-.22-.45-.12-1.52-.28-1.85.1-.06-.03-2.13.2-.94.02.1.02.28-.02.27l.13.14c.2-1.2-.18-2.18-.17-3.37-.03.35-.01.82-.1.5l-.01-1.1.1.23.02-1.65-.12.23c.05-.8.25-1.1.05-2-.1-.4-.15.77-.2-.08.06-1.08.14-2.7.14-4.07-.14.13-.14-.24-.18-.62l.12-.05c-.2-1.45.26-.54.08-2l-.18-.25c-.28-1.3.24-.7-.14-2.15.04.57-.27.28-.23-.43l.13.18c-.04-.4-.1-.52-.07-.78.07.23.18.12.14-.46l.16.38-.25-1.08c.1-.84-.1-2.17.06-2.52 0 0 .03-1.8-.17-2.2.13.36.14-.64.28-.36-.15-.46-.3-1.84-.18-2.4l.02.1c.08-2.05-.3-3.5-.2-5.32-.14.1-.1-.88-.27-.64-.25-1.9.26-3.47-.34-4.13-.06-.86.1-1.03.1-1.47l.04.2c-.1-1.6-.13-2.08-.15-3.28-.08-.6-.34-.68-.32-1.76.12.34.08-.1.07-.5.03.26.07.33.12-.2-.04-.07-.06-.2-.08-.3.01 0 .01-.03.03-.02-.06-.67-.1-.55-.1-.24-.02-.02-.04.01-.06.1.1-.7-.08-1.94.1-2.03-.12-2-.35-3.45-.5-5.12.1-.2.18.2.24.68l-.08-1.2c.13.01.1.68.14 1.05.16-1.42-.33-2.9-.2-4.58l-.12-.34.01-.1c-.06.01-.15-.36-.17-.6.1-.24.27.01.23-.82.1-.65-.13-1.85-.22-2.7 0 .46-.07.3-.12.12-.02-.4.1-.65.03-.97l.16-.05c-.14.17-.2-1.07-.27-1.22.1-.24.13.63.22.73l-.12-2.47c-.15-.88-.14.17-.3-.25-.06-.78-.2-1.53-.14-2.42l-.13.3c-.17-1.45-.2-2.33-.08-3.32-.32-2.22-.58-3.6-.8-4.44 2.62.01 5.36-.05 8.32-.1zm-15.42-.02c2.2.03 1.57-.2 4-.12-.15.1 3.06.08 1.64.2.23.01.46.01.7.01-.1.95-.1 2.22-.1 2.22-.14 4.3.36 6.48.66 11.57.1 4.48-.13 5.68.16 10.3.06 2.2.2 4.57.32 6.74.25 1.02.1 2.84.32 4.05l-.1.48c.08.42.13.9.08 1.33l-.04-.03c.1.62.08 1.33.14 1.64l-.04-.02.04.76-.05-.13a25.46 25.46 0 0 1 .17 3.2l.14-.1c-.1 2.12.24 2.9.1 4.8l-.04-.02c.46 2.4-.14 3.83.3 6.3-.05-.3-.07.14-.1.1.08 1.15.13 2.37.42 2.38.02.84-.07.68-.18.8.12-.01.2.72.23 1.37l-.06-.3.1 1.87.23-.37c-.04 1-.28.26-.2 1.2l.2-.02c0 1.37-.27 2.2-.38 3.52.07 5.52.7 11.44.45 16.58l-.14.23c-.2.1.34 1.4.15 1.6l.1.6c-.04.17-.07.52-.12.23 0 .55.04.57.1.96l-.13.6c-.08 2.18.2 4.03.18 6.32-.24 2.76.05 7.94.2 10.93.34 4.2-.5 9.1-.16 13.38a1.24 1.24 0 0 0 .06.5l-.06 3.93-.01 1.12-9.04.02c-2-.01-3.98-.05-5.86-.12 0-.1.01-.22 0-.34.3-.2.23-1.77.37-2.27l.02.05c-.1-1.34.47-2.7.4-4 .02.05.1.1.07.38.05-.93.1-2.2.3-2.25.17-2.22.52-5.3.37-6.74l.04.1c-.1-.82.06-1.05.05-1.96.03-.05.04-.1.05-.1-.1-.9.17-2.57.15-3.3l.1-.04.1-1.76-.07.65c-.3-.25.3-1.3.18-2.6.12-1.2-.46-2.46-.24-3.68-.1-.6.2.53.15-.35.16-.02.07.42.2.2-.02-.87.25-1.4.22-2.48l.13-.04c-.14-1.4.32-2.62.16-3.56-.02-1.44.42-.94.27-2.45l.2-.57c.06-.64-.18-.47-.07-1.18.1.05.13-.9.2-.47.24-1.6-.07-3.28.3-5.38-.2-.47-.02-1.53-.16-1.88.1-.05.1-2.14.25-.93.01.1 0 .3-.03.27l.12.15c.28-1.2-.04-2.2.05-3.4-.05.35-.06.83-.13.5l.06-1.1.1.24.12-1.65-.14.22c.1-.8.32-1.1.17-2-.1-.42-.2.76-.2-.1.12-1.08.3-2.7.4-4.08-.15.12-.13-.25-.15-.63l.13-.04c-.13-1.47.3-.53.2-2l-.17-.26c-.2-1.32.28-.7-.02-2.17.01.58-.28.26-.2-.44l.12.18c-.01-.4-.06-.53-.03-.8.06.24.17.13.17-.45l.14.4-.2-1.1c.15-.84.02-2.18.2-2.52 0 0 .12-1.8-.05-2.23.1.37.17-.63.3-.34-.12-.47-.2-1.86-.05-2.42l.01.1c.18-2.05-.13-3.52.08-5.36-.15.08-.05-.9-.24-.65-.15-1.9.43-3.47-.13-4.17-.02-.87.15-1.03.18-1.48l.03.2v-3.3c-.05-.6-.3-.7-.24-1.78.1.35.1-.1.1-.5.01.26.05.34.13-.2-.03-.08-.05-.2-.07-.3.01 0 .02-.03.03-.01-.03-.68-.06-.56-.08-.24-.02-.02-.04.01-.07.1.14-.7.01-1.95.2-2.04-.03-2.03-.2-3.48-.26-5.17.1-.2.17.2.2.7l-.02-1.2c.13.01.07.7.1 1.06.23-1.42-.2-2.94.01-4.6l-.1-.35.02-.1c-.06 0-.13-.37-.15-.62.12-.24.27.02.27-.8.12-.65-.05-1.86-.1-2.72-.02.46-.1.3-.13.1 0-.4.1-.65.07-.97l.16-.04c-.15.16-.16-1.08-.22-1.24.12-.24.1.64.2.75l-.02-2.5c-.12-.9-.15.16-.3-.26-.03-.78-.14-1.54-.04-2.44l-.14.28c-.1-1.47-.1-2.35.05-3.34-.3-2.8-.55-4.32-.75-5.03.1 0 .2-.01.3-.01l1.97.14zm-2.83-.14c-.2.92-.28 2.7-.28 2.7-.3 4.3.1 6.53.2 11.65-.1 4.5-.37 5.7-.3 10.37-.04 2.23 0 4.6.01 6.78.2 1.04-.03 2.86.13 4.08l-.13.47c.05.42.1.92.02 1.34l-.03-.03c.08.63.02 1.34.06 1.65l-.03-.03v.76l-.05-.13a24.91 24.91 0 0 1 .01 3.23l.15-.08c-.2 2.13.1 2.9-.14 4.83l-.03-.03c.34 2.44-.34 3.84-.04 6.35-.04-.3-.08.13-.1.1.02 1.15.01 2.4.3 2.4-.03.84-.1.68-.22.8.12 0 .16.73.15 1.4l-.04-.3-.01 1.88.25-.36c-.1 1-.3.25-.26 1.2l.2-.01c-.08 1.38-.4 2.18-.58 3.5-.27 5.54.02 11.53-.6 16.67l-.16.22c-.22.1.25 1.44.04 1.62l.07.6c-.05.17-.1.52-.14.22-.04.55-.01.57.04.97l-.17.6c-.23 2.18-.07 4.06-.28 6.35-.44 2.75-.57 7.96-.67 10.97-.02 4.24-1.3 9.05-1.38 13.38a1.34 1.34 0 0 0 .01.51l-.45 3.93s-.01.06-.02.14l-3.87-.2c-2.93-.2-6-.63-9.12-1.15 0-.14.02-.3.02-.43.32-.2.3-1.74.47-2.23l.02.05c-.02-1.33.6-2.65.58-3.93.02.05.1.1.05.38.1-.92.22-2.18.4-2.22.27-2.2.77-5.23.7-6.66l.03.1c-.07-.82.1-1.04.14-1.94.03-.05.05-.1.06-.1-.06-.9.3-2.54.32-3.25l.12-.03.2-1.73-.1.64c-.28-.26.36-1.3.32-2.57.2-1.17-.34-2.46-.05-3.66-.07-.6.17.54.16-.34.16-.01.05.42.2.2.03-.86.33-1.38.35-2.45l.13-.03c-.07-1.4.46-2.58.35-3.52.06-1.43.48-.9.4-2.42l.23-.56c.1-.63-.16-.48 0-1.17.1.05.18-.88.23-.46.33-1.58.1-3.25.57-5.32-.16-.47.05-1.52-.07-1.87.1-.05.2-2.1.3-.9.01.1-.01.28-.05.27l.1.15c.34-1.18.08-2.18.2-3.37-.07.35-.1.82-.15.5l.1-1.1.08.24.2-1.63-.15.22c.13-.8.37-1.06.26-1.98-.07-.42-.23.75-.2-.1.17-1.07.44-2.66.57-4.03-.15.12-.12-.25-.12-.63l.13-.03c-.07-1.47.3-.5.28-1.97l-.15-.27c-.15-1.32.3-.68.08-2.15-.02.57-.3.25-.2-.45l.1.2c0-.4-.04-.52 0-.78.05.24.17.13.18-.44l.12.4-.15-1.1c.18-.83.1-2.16.3-2.5 0 0 .2-1.8.04-2.22.1.37.2-.62.32-.33-.1-.47-.12-1.86.05-2.4l.01.1c.26-2.03.01-3.5.3-5.3-.15.08-.02-.9-.2-.66-.08-1.9.56-3.43.03-4.14.02-.86.2-1 .24-1.46l.02.2c.04-1.62.05-2.08.13-3.28-.03-.6-.3-.7-.17-1.78.1.35.1-.1.1-.5 0 .26.04.34.14-.18-.03-.08-.04-.2-.05-.3.01 0 .02-.02.03-.01 0-.67-.04-.56-.07-.25-.02-.02-.04.01-.07.1.17-.7.08-1.94.27-2 .05-2-.07-3.46-.07-5.14.1-.18.17.2.18.7l.02-1.2c.13.02.05.7.06 1.05.28-1.4-.1-2.93.17-4.58l-.1-.35.02-.1c-.06 0-.12-.37-.13-.62.13-.23.27.03.3-.8.14-.64.01-1.85-.02-2.7-.04.46-.1.3-.13.1.01-.4.14-.64.1-.96l.16-.03c-.15.16-.12-1.08-.18-1.23.13-.23.08.64.16.75l.07-2.47c-.1-.88-.15.15-.28-.27 0-.78-.1-1.54.04-2.42l-.15.28c-.06-1.46-.02-2.33.16-3.3-.2-2.52-.38-4-.54-4.78.47-.01.93-.03 1.37-.06 4.57-.1 3.42.32 7.5.16zm-9.56-.1c-.2.94-.3 2.44-.3 2.44-.44 4.26-.1 6.47-.18 11.56-.24 4.46-.56 5.64-.65 10.27-.12 2.2-.16 4.56-.24 6.72.16 1.03-.14 2.83-.02 4.05l-.14.46c.04.42.05.9-.03 1.33l-.03-.03c.06.63-.03 1.33-.01 1.64l-.03-.03-.03.76-.04-.13c.04 1.1-.02 2.2-.1 3.2l.15-.07c-.3 2.1-.03 2.9-.34 4.78l-.03-.03c.24 2.43-.5 3.8-.3 6.3-.03-.3-.08.13-.12.1-.03 1.15-.1 2.37.2 2.4-.06.83-.13.67-.25.77.12 0 .12.73.08 1.38l-.03-.3-.1 1.87.26-.35c-.14.98-.3.23-.32 1.18h.2c-.14 1.36-.5 2.14-.73 3.45-.52 5.48-.52 11.42-1.4 16.48l-.17.2c-.22.08.17 1.44-.05 1.6l.04.6c-.06.16-.13.5-.15.2-.06.55-.03.56-.01.97l-.2.57c-.35 2.15-.3 4-.62 6.28-.6 2.7-.98 7.86-1.23 10.84-.23 4.2-1.74 8.9-2.02 13.2-.05.13-.04.5-.01.5l-.63 3.87s-.01.04-.02.1c-4.7-.85-9.48-1.9-14-2.82.2-.5.27-1.5.43-1.86l.01.05c.07-1.3.76-2.56.84-3.83.01.05.08.1.03.38.16-.9.37-2.13.54-2.16.42-2.13 1.13-5.08 1.15-6.5l.03.1c-.01-.8.18-1 .28-1.9.03-.04.06-.1.06-.1 0-.88.5-2.47.55-3.17l.12-.02.32-1.7-.15.63c-.26-.28.45-1.24.5-2.5.27-1.14-.16-2.45.22-3.6-.03-.6.13.54.2-.32.16 0 .02.42.2.22.1-.85.43-1.33.53-2.38l.13-.02c.04-1.38.65-2.5.6-3.43.17-1.4.55-.85.57-2.35l.27-.53c.14-.6-.12-.48.08-1.15.1.06.24-.85.27-.43.44-1.53.36-3.2.95-5.2-.13-.48.15-1.5.05-1.85.1-.04.35-2.07.35-.88 0 .1-.03.28-.06.26l.1.16c.4-1.14.22-2.15.43-3.3-.1.34-.15.8-.18.48l.17-1.08.07.24.3-1.6-.16.2c.18-.78.43-1.02.38-1.94-.04-.42-.28.72-.2-.1.23-1.04.6-2.6.8-3.94-.16.1-.1-.25-.1-.63l.13-.03c.01-1.45.34-.5.38-1.92l-.14-.27c-.08-1.3.34-.66.2-2.12-.05.56-.3.23-.16-.45l.1.2c.02-.4-.01-.52.05-.77.03.24.16.14.2-.42l.1.4-.1-1.1c.22-.8.2-2.13.42-2.44 0 0 .3-1.76.15-2.18.07.37.23-.6.33-.3-.07-.47-.03-1.84.16-2.36v.1c.35-2 .17-3.45.53-5.23-.15.07.02-.87-.18-.66 0-1.88.7-3.36.2-4.08.05-.85.23-1 .3-1.43l.01.2.25-3.23c0-.6-.26-.7-.1-1.76.07.35.1-.08.13-.48-.01.25.03.33.14-.18-.03-.08-.04-.2-.04-.3.01 0 .02-.02.03-.01.02-.66-.02-.55-.06-.25-.01-.02-.04.01-.07.1.2-.67.16-1.9.34-1.97.12-1.98.05-3.42.1-5.07.1-.18.16.2.16.7l.06-1.17c.13.02.02.68.02 1.04.33-1.38 0-2.9.32-4.5l-.08-.35.02-.1c-.06 0-.1-.37-.1-.6.13-.22.27.04.32-.77.16-.63.07-1.82.06-2.66-.05.45-.1.3-.13.1.02-.4.16-.63.13-.95l.16-.03c-.16.15-.1-1.07-.14-1.22.13-.22.06.63.14.74l.14-2.43c-.06-.87-.16.15-.27-.28.02-.77-.04-1.52.1-2.4l-.16.27c-.02-1.44.04-2.3.24-3.26-.13-2.52-.28-3.98-.43-4.75 3.34-.07 6.4.1 8.95.08zm-18.78-.2c2.96-.08 4.85.16 8.5.06l.15.12c.18-.01.35-.01.53-.02-.2.92-.37 2.4-.37 2.4-.54 4.18-.26 6.38-.5 11.4-.37 4.4-.73 5.54-.98 10.1-.2 2.17-.32 4.5-.48 6.6.12 1.03-.24 2.78-.17 4l-.16.45c.02.42.02.9-.1 1.3l-.03-.03c.03.62-.1 1.3-.07 1.62l-.03-.03-.06.75-.04-.13a22.2 22.2 0 0 1-.25 3.14l.15-.07c-.38 2.06-.16 2.85-.55 4.7l-.03-.03c.14 2.4-.68 3.7-.6 6.18-.01-.3-.1.12-.12.1-.1 1.13-.2 2.33.07 2.38-.1.82-.17.65-.3.75.12.01.1.73.01 1.36l-.01-.3-.2 1.83.28-.33c-.2.96-.32.2-.38 1.14l.2.01c-.2 1.33-.6 2.08-.92 3.36-.84 5.36-1.2 11.2-2.45 16.1l-.18.2c-.23.06.06 1.43-.16 1.58v.6c-.07.16-.17.5-.16.2-.1.53-.07.55-.08.95l-.24.55c-.5 2.1-.6 3.93-1.1 6.13-.8 2.6-1.55 7.66-2 10.57-.53 4.12-2.36 8.64-2.93 12.84a1.18 1.18 0 0 0-.05.49l-.75 3.2-.63-.13c-.27-.1-1-.2-1-.18-2.63-.64-5.23-1.36-7.8-2.14l-1.1-.33c.01-.06.02-.1.02-.17.33-.15.45-1.64.66-2.08l.01.05c.08-1.28.8-2.48.9-3.7.01.05.08.1.02.37.17-.87.38-2.06.56-2.1.44-2.07 1.16-4.93 1.18-6.3l.03.1c-.01-.8.2-.98.28-1.84.03-.04.06-.1.06-.1 0-.86.48-2.4.55-3.08l.12-.02.32-1.64-.15.6c-.25-.27.44-1.2.5-2.43.26-1.1-.16-2.38.2-3.5-.03-.58.13.53.2-.3.16 0 .02.4.2.22.08-.82.42-1.3.5-2.32l.13-.02c.03-1.35.64-2.43.6-3.34.15-1.37.53-.84.55-2.28l.27-.52c.14-.6-.12-.47.08-1.12.1.06.24-.83.27-.42.45-1.48.3-3.1.92-5.05-.13-.47.16-1.45.07-1.8.1-.04.35-2 .36-.85 0 .1-.03.27-.07.25l.1.15c.42-1.1.2-2.1.43-3.2-.1.33-.15.77-.2.46l.18-1.04.07.23.3-1.55-.16.2c.2-.75.44-1 .4-1.87-.04-.4-.3.7-.2-.12a68.04 68.04 0 0 0 .84-3.81c-.16.1-.1-.25-.08-.6l.13-.02c.04-1.4.35-.47.42-1.86l-.14-.27c-.06-1.27.36-.63.22-2.05-.06.55-.3.22-.16-.44l.1.2c.03-.37 0-.5.06-.75.03.23.16.14.2-.4l.1.4-.07-1.06c.24-.78.26-2.06.48-2.36 0 0 .33-1.7.2-2.12.07.36.24-.58.34-.3-.07-.46 0-1.78.2-2.3v.1c.4-1.92.26-3.34.66-5.06-.15.06.04-.85-.17-.65.05-1.82.8-3.24.32-3.96.08-.82.26-.95.34-1.37v.2l.35-3.13c.02-.58-.24-.7-.05-1.7.06.34.1-.08.14-.46-.01.25.01.33.15-.17a1.23 1.23 0 0 1-.03-.29c.01 0 .02-.02.03-.01.04-.64 0-.53-.06-.24-.01-.02-.04.01-.08.1.22-.64.2-1.84.4-1.9.2-1.92.17-3.3.3-4.92.1-.17.15.2.13.68l.1-1.14c.13.03 0 .66-.01 1 .37-1.32.1-2.8.5-4.36l-.07-.34.03-.1c-.06 0-.1-.36-.08-.6.14-.2.27.05.35-.74.18-.6.14-1.76.17-2.58-.07.43-.12.3-.14.1.04-.4.18-.6.17-.9l.16-.02c-.17.14-.04-1.04-.1-1.2.14-.2.03.62.1.73l.24-2.36c-.03-.85-.16.14-.26-.28.05-.74.02-1.48.2-2.3l-.17.25c.04-1.4.14-2.23.38-3.15-.02-2.85-.13-4.3-.28-4.95.2 0 .47 0 .9-.02.08.2-1.42.14-.65.27zm-.3-.32c-.01-.02-.01-.04-.02-.06.57-.03.3.01.02.06zm-25.05 99.13l-.05.33c2.13-7.1 3.25-11.64 4.17-16.66.45-.72 1.4-5.93 1.8-7.62l-.01.17c.7-4.47 1.95-9.1 2.47-13.44 0 .17.06.28-.1 1.27.47-3.14 1.1-7.43 1.3-7.64 1.13-7.5 2.5-17.98 2.76-22.84v.34c.13-2.77.38-3.56.6-6.64.04-.17.07-.38.08-.35.15-3 .85-8.75 1-11.18l.13-.15.5-5.98-.2 2.23c-.24-.8.58-4.5.7-8.86l.07-1.1v-.6l.65-.07 1.25-.08 2.53-.17c1.67-.1 3.34-.18 5.03-.12-.32.73-.63 2.75-.63 2.75-.73 4.04-.55 6.18-.98 11.04-.55 4.25-.95 5.35-1.36 9.77-.28 2.1-.47 4.35-.7 6.4.1 1-.33 2.7-.3 3.87l-.17.43c.01.4-.01.88-.12 1.27l-.03-.03c.01.6-.13 1.27-.12 1.57l-.03-.03-.08.72-.03-.13a22.22 22.22 0 0 1-.34 3.05l.15-.06c-.42 2-.23 2.76-.67 4.55l-.03-.03c.07 2.34-.75 3.58-.73 6 0-.3-.1.12-.12.1-.1 1.1-.26 2.25.02 2.3-.12.8-.18.63-.3.72.12.01.08.7 0 1.33l-.01-.3-.22 1.78.3-.3c-.2.93-.32.2-.4 1.1l.2.02c-.23 1.3-.64 2-.97 3.24-.88 5.2-1.32 10.88-2.5 15.65l-.18.2c-.23.05.07 1.4-.16 1.54l-.01.58c-.07.15-.17.48-.16.2-.1.52-.07.54-.08.92l-.23.53c-.47 2.03-.56 3.8-1.04 5.96-.77 2.53-1.52 7.43-1.98 10.26-.53 4-2.38 8.36-3 12.43-.06.12-.08.47-.05.48l-.9 3.43-1.9-.62-4.32-1.5-2.25-.87c-.33-.12-1.02-.42-1.75-.74l3.55-10.4zm-6.4 16.88c-.1.55-.1.78.03.6a3.28 3.28 0 0 1 .17-.45 37.51 37.51 0 0 0 .46-1.27 41.09 41.09 0 0 0 .72-1.61l1.02-2.6c.2.12.42.24.64.38.1.06.2.12.32.18a25.98 25.98 0 0 0 .53.27 78.2 78.2 0 0 0 2.35 1.12l-.2-.03c4.16 1.72 6.86 2.56 9.9 3.22.38.43 3.53 1.03 4.52 1.38h-.1c2.7.48 5.42 1.54 8.04 1.9-.1 0-.18.07-.77-.06 1.88.4 4.47.82 4.58 1 2.25.44 4.96.9 7.47 1.3 2.5.36 4.83.63 6.3.7l-.2.02c1.68.02 2.15.23 4.02.36.1.03.23.06.2.07 1.82.08 5.3.47 6.78.46l.1.12a110.06 110.06 0 0 0 3.63.14l-1.35-.07c.48-.3 2.74.3 5.37.14 2.47.06 5-.63 7.53-.56 1.2-.18-1.06.27.75.1.06.16-.85.13-.37.24 1.78-.13 2.94.05 5.13-.16l.1.12c2.86-.4 5.43-.2 7.32-.58 2.94-.36 2.02.2 5.07-.36l1.2.04c1.32-.12.92-.3 2.38-.4-.08.12 1.85-.13 1 .07 3.3-.23 6.65-1.06 11-1.43.9-.34 3.1-.55 3.77-.82.13.08 4.35-.7 1.95-.1-.2.05-.58.1-.56.07l-.27.17c2.5-.18 4.45-.88 6.9-1.3-.73.1-1.68.3-1.06.1l2.26-.43-.45.2c1.13-.2 2.25-.42 3.38-.68l-.5-.01c.78-.15 1.6-.3 1.6-.25.04.01.08.01.12 0 .01.04.04.07.1.13.07.07.1-.01.1-.12.01-.1.02-.2.1.1l.85 3.88c.07.34.18.76.23 1.05.04.23.03.47-.01.7-.1.47-.37.9-.7 1.17.23-.02-.15.37-.63.52-.03-.03-.05-.07-.1-.1-2.9.86-1.16-.02-4.03.85l-.47.3c-2.55.9-1.47.12-4.3 1.13 1.14-.3.6.15-.82.4l.33-.2c-.78.2-1.03.3-1.56.4.45-.16.2-.22-.94.03l.74-.3-2.13.64c-1.74.16-4.4.8-5.14.75l-1.94.3c-1.02.17-2.14.36-2.55.52.72-.23-1.3.04-.75-.18-.93.28-3.73.76-4.87.77l.2-.04c-4.2.35-7.12 1-10.9 1.06.18.13-1.8.18-1.3.34-1.94.24-3.73.18-5.2.2-1.47.01-2.62.06-3.32.34-1.78.04-2.1-.12-3.03-.14l.42-.03c-3.33.1-4.3 0-6.77-.05-1.23.01-1.44.32-3.65.12.72-.06-.18-.1-1-.14.53.01.7-.02-.4-.15-.15.02-.4.03-.6.03-.01-.01-.05-.02-.03-.03-1.38-.04-1.14 0-.5.06-.03.01.02.04.22.08-1.42-.2-4-.23-4.15-.45l-2.8-.2.03-.1-.92-.08-.03.12-1.83-.1a183.58 183.58 0 0 1-5.02-.46c-.37-.14.44-.12 1.44-.03l-2.44-.27c.04-.13 1.4.1 2.16.17-1.43-.3-2.94-.4-4.5-.58-1.56-.2-3.18-.4-4.85-.78l-.72-.01-.2-.05c0 .06-.77.01-1.28-.06-.46-.2.08-.24-1.6-.57-1.3-.37-3.75-.7-5.48-.98.92.2.6.2.2.17-.83-.17-1.3-.37-1.94-.46l-.04-.13c-.14.1-2.24-.37-2.53-.38-.45-.22 1.3.2 1.53.15L192.9 334c-1.8-.32.28.22-.6.15-1.56-.36-3.1-.65-4.85-1.26l.52.3c-2.93-.73-4.64-1.33-6.5-2.17-1.33-.43-2.5-.86-3.54-1.26-.38-.16-.73-.3-1.08-.42l-.8-.38c-.7-.35-1.16-.8-1.44-1.25-.02-.01-.04-.02-.05-.03-.12-.06-.23-.12-.28-.24-.22-.42-.2-.96-.22-1.28 0-.66.1-1.18.12-1.47v-.05c0 .02.06.02.16-.1zM283.3 428.42c.15-.58.2-.94.2-.94a6.85 6.85 0 0 0 .33.15c.3.37.93.94 2.04 1.8l-.07.02c1.02.6 1.7.95 2.53 1.08-.01.32.87.44 1.08.64l-.03.01c.75.1 1.27.8 1.98.92-.03.01-.08.07-.23.01.47.18 1.13.42 1.1.6 1.1.48 2.6 1.26 3.43 1.35l-.07.02c.48.03.53.22 1.02.35.01.03.04.06.03.06.5.04 1.28.57 1.67.67l-.03.1.88.4-.3-.17c.25-.22.57.48 1.3.6.57.3 1.48-.01 2.02.4.36.01-.36.1.12.2-.06.15-.25-.01-.2.16.46.13.63.48 1.2.63l-.03.12c.78.12 1.08.8 1.57.9.3.18.36.35.37.46 0 .1-.04.14.2.2-.03.05-.07.1-.12.13.02.07.32.04.3.16-.16-.02-.04.1-.24.02-.04.03-.03.06.01.1.02.03.17.15.1.15-.02.04-.2.07-.44-.08.08.2-.16.08-.2.23-.02-.1-1.17-.04-.5-.22.06-.01.16-.01.15.03l.08-.12c-.66-.25-1.2.1-1.86.05.2.04.45.04.28.12l-.6-.03.13-.1-.9-.08.12.13c-.44-.08-.6-.3-1.1-.13-.23.1.42.18-.05.2-.6-.1-1.47-.25-2.23-.3.07.15-.14.14-.35.16l-.02-.13c-.8.15-.3-.28-1.1-.16l-.14.17c-.72.23-.38-.27-1.2.05.32-.01.14.28-.24.2l.1-.12c-.22.02-.3.07-.43.04.13-.06.07-.17-.24-.16l.22-.15-.6.2c-.46-.14-1.2.01-1.38-.17 0 0-1-.1-1.22.08.2-.1-.34-.17-.2-.3-.26.12-1.02.2-1.32.07h.06c-1.12-.17-1.92.16-2.92-.04.04.15-.5.05-.36.24-1.05.16-1.88-.43-2.27.12-.47.01-.55-.16-.8-.2h.1c-.88 0-1.14-.01-1.78-.06-.33.03-.4.3-.97.18.2-.1-.04-.1-.26-.1.14 0 .2-.04-.1-.14-.04.03-.1.04-.17.05 0-.01-.01-.02 0-.03-.36 0-.3.04-.14.07-.01.02 0 .04.05.07-.36-.17-1.04-.12-1.05-.3l-.76-.08c-.2-.02-.33-.01-.46-.06a.91.91 0 0 1-.6-.58c.08-.08.18.04.27.16-.06-.1-.1-.22-.12-.35.13 0 .1.2.17.28.08-.4-.3-.78.6-1.37l.06-.2.05-.03c-.04-.04.05-.24.13-.35.17-.01.2.2.5-.14.33-.2.67-.8.94-1.2-.2.18-.18.08-.14-.03.15-.18.32-.2.4-.38l.14.08c-.17-.02.26-.58.26-.7.17-.03-.14.35-.1.45.56-.75.28-.37.83-1.15.18-.5-.17-.01-.16-.3.22-.38.35-.8.67-1.2l-.2.07c.3-.76.5-1.2.85-1.65.18-.9.22-1.55.2-2.03l.14.1c0 .04.01.04.01.04zm-37.1 5.3c.01-.26 0-.48.02-.72.03-.3.2-.5.37-.66a1.63 1.63 0 0 1 .85-.39l-.06.42a.94.94 0 0 1 .53.11 5.21 5.21 0 0 0 .24.13l.03-.16c.2.22.6.55 1.28 1 .94.58 2.42 1.36 4.7 2l-.13.02c1.37.3 2.52.43 3.56.44.5.01 1.03-.03 1.52-.08.48-.1.96-.2 1.42-.35.36.26 2.24-.44 2.88-.54l-.05.04c1.56-.66 3.37-.92 4.78-1.7-.05.04-.05.13-.4.27.26-.12.55-.25.84-.37.28-.12.6-.25.62-.25.1-.01.13.02.27.07.13.06.2.13.2.17.56.22 1.22.55 1.88.92l.5.3.88.52c.58.36 1.2.73 1.63.83.46.13.76.18 1.14.13.37-.04.75-.18 1.06-.42.32-.23.56-.52.74-.8a2.91 2.91 0 0 0 .23-.42l.04-.1c0-.03-.03-.05-.04-.07l-.1-.13.1.1c-.3-.4-.48-.64-.63-.88l-.24-.4c-.13-.16-.5-.43-.83-.7-.04-.06-.12-.15-.1-.14a20.23 20.23 0 0 1-1.21-.94l-.95-.8c-.6-.5-1.14-1.02-1.5-1.28l.03-.12c-.28-.24-.58-.48-.76-.66a2.76 2.76 0 0 1-.5-.69c.1.2.2.38.32.55-.2.01-.38-.3-.48-.75-.1-.46-.08-1.03-.04-1.72.16-.65.2-1.3.54-1.9.28-.56 1.02-1.1 1.64-.6.73.17-.7-.05.36.3-.03.16-.5-.12-.3.1 1.02.37 1.55.87 2.8 1.3v.14c1.68.5 2.92 1.5 4.07 1.77 1.53.6 1.06.8 2.33 1.24l-.15.3-.24.54c-.47.97-.8 1.7-1.14 2.5-.35.8-.76 1.63-1.58 2.7-.8.87-1.4 1.34-2 1.85-.2.17-.86.7-1.1 1.48-.27.76-.23 1.87.56 2.77a2.87 2.87 0 0 0 1.38.9c.56.14.74.15 1.1.2.66.1 1.3.14 1.92.18.6-.15 1.6.13 2.3-.02l.26.13c.24-.05.5-.08.74 0l-.02.03c.35-.08.74-.01.9-.05l-.02.03h.42l-.07.05a7.5 7.5 0 0 1 1.77-.01l-.04-.15c1.17.2 1.6-.1 2.65.1l-.02.03c1.34-.35 2.1.3 3.47-.02-.17.04.07.08.06.1.63-.03 1.3-.03 1.32-.32.46.01.37.1.43.2 0-.13.4-.17.76-.17l-.17.04 1.03-.02-.2-.24c.54.08.13.3.66.25v-.2c.75.06 1.2.36 1.92.52 1.52.08 3.1.01 4.64-.03l.58-.01h.72l1.7.02c.02.04.03.07.03.1.3.6.16 1.3.16 1.3-.5.03-16.22.15-18.52 0 .1.14-2.8-.16-2.5.02-2.37.2-3.3-.8-4.17-.22-1.08.04-1.28-.12-1.84-.15l.26-.03-4.12.07c-.75.06-.87.33-2.2.27.43-.1-.12-.08-.62-.08.32-.02.42-.06-.24-.12-.1.03-.24.05-.37.07-.01-.01-.03-.01-.02-.03-.84.04-.7.08-.3.1-.02.02.01.04.13.06-.87-.13-2.43.03-2.54-.15-2.53.06-4.33.26-6.43.35-.24-.1.25-.18.86-.22l-1.5.05c.01-.13.86-.08 1.32-.1-1.78-.2-3.66.25-5.74.06l-.43.1-.12-.02c.01.06-.46.14-.77.16-.3-.1.02-.27-1-.25-.82-.1-2.32.08-3.38.15.58.02.4.08.14.12-.52.01-.8-.1-1.2-.05l-.05-.16c.2.15-1.35.17-1.54.24-.3-.1.8-.1.93-.2l-3.1.05c-.28.06-.3.1-.22.14.06.04.2.08-.01.15l-.53.04c-.07-.14-.1-.32-.17-.5l-.07-.27c-.03-.12-.05-.25-.08-.37-.05-.25-.1-.52-.1-.8l-.07.37c-.44-1.76-.52-2.88-.42-4.08-.15-1.65-.13-3-.1-4z"/><path d="M230.7 439.3h0l.07-.08zm-30.13-173.48h0l.07.14zm11.9 1.86h0l.07.13zm11.84.92h0l.07.13zm11.72.77h0l.08.13zm12-.77h0l.1.13zm12.14 9.5h0l-.1-.12z"/></svg>