<svg xmlns="http://www.w3.org/2000/svg" viewBox="0 0 480 480" xmlns:v="https://vecta.io/nano"><path d="M337 217.16s1.15-.08 1.4-1.4c.18-.97-2.05-1.8-4.75-2.95-1.97-.83-7.04-3.86-7.94-4.36s3.54.18 5.24.18 1.96-2.08-1.14-2.78c-3.1-.6-5.5-1.5-6.4-1.7-.9-.1-3-.1-4.5 0h-1.5s-1.2.2-3.9-1.5-29.8-19.9-33.7-22.9c-4.9-3.72-9.4-13.95-10.43-19.17l6.93-2.93s-6.7-16.4-11.9-27.3c-4-8.2-13.07-22-24.52-25.6-3.46-2.5-7.45-4.3-12.08-5-4.3-.67-7.04-.9-9.55-.23-12.52-.98-21.8 12.48-27.15 21.13-6.3 10.2-14.6 25.7-14.6 25.7l6.1 3.3c-4.82 10.1-5.98 14.37-7 20.3-1.5 8.2-.5 16.3 2.4 30.3 2 9.28 6.08 24.87 8.62 34.34l-.32.06c-.6.1-1.1.7-1 1.4l.5 2.8c.1.6.7 1.1 1.4 1l.8-.14.8 2.94s-.2 6.4 3.5 13.2 4.8 7.2 5.4 8c.7.9 1.6-.6 1.6-.6s1 2.1 2.4 1.9c1.3-.2 1.65-1.8 1.65-1.8s.9 1.25 2.02.77c.82-.36.55-2.73-.14-5.9-.46-2.1-1.13-7.56-1.23-8.66-.1-1 1.03 2.53 3.1 4.07 1.4.82 2.4 1.03 1.3-1.87s-1.7-5.5-2-6.3c-.4-.8-1.5-2.6-2.4-3.8l-.8-1.2s-.66-.77-.78-3.33l1.48-.27c.6-.1 1-.6 1-1.2l-.2-2.9c.1-.8-.6-1.3-1.3-1.2l-.92.17.62-23.57h68.8l-.7-3.8c13.78 5.05 40.5 13.3 40.5 13.3s5.3 3.6 13 4.1 8.6-.2 9.7-.3.4-1.7.4-1.7 2.3.2 2.9-1-.7-1.6-.7-1.6zm-67.17-55.93c.08-.04.1-.05.1-.06-.03.02-.07.04-.1.06zm-1.25 48.17h.22-.22zm-92-12.42l.06.27c0-.02-.01-.03-.01-.05l-.05-.22zm68.26-91.52l-.23-.03.01.01z" fill="#fff"/><path d="M192.5 237.94l.92-1.05c.12.06.25.1.4.12l.62 2.58c.1.32.28.43.48.38.4-.1.35-.4.3-.6l-.66-2.46a1.25 1.25 0 1 0-1.79-1.12c0 .25.1.46.2.66l-.68.7c-.2.13-.42.38-.47.53-.06.2-.03.34.05.4.27.23.53-.03.63-.13zm43.9-110.54c-.18.54-.64 1.5-1.12 2.45l-1.46 7.18c-.16.26-.1-.35.06-1.08l-.44 1.76c-.12-.05.2-1.02.32-1.57-.37 1.03-.63 2.1-.9 3.23-.3 1.12-.6 2.3-1.1 3.46l-.07.53-.07.14c.06.01-.06.57-.17.93-.23.3-.23-.1-.67 1.07-.45.9-.94 2.66-1.37 3.9.28-.64.25-.4.18-.1-.23.6-.47.88-.6 1.35h-.17c.23-.17-.48 1.58-.5 1.82-.25.3.28-.94.26-1.12l-1.46 3.5c-.43 1.28.23-.17.1.48l-1.47 3.42.3-.34c-.83 2.08-1.4 3.3-2.18 4.6-3.1 7.76-3.27 8.7-2.47 7.74.8-.97 2.34-3.9 2.34-3.9 3.14-5.8 4.24-9.07 7.12-16.38l2.93-7.32c.75-2.08 1.5-4.3 2.3-7.77.56-2.15 1.08-4.44 1.5-6.7l-.27-1.87c.03-.01-.5-.64-.92.62zm88.64 80.7c-.04.06-.05.1-.05.14.01-.01.02-.03.03-.05a.81.81 0 0 1 .06-.13c-.01.02-.02.02-.04.04z"/><path d="M338.8 214.94c-.2-.3-.38-.45-.58-.6-.77-.57-1.54-.88-2.3-1.23l-2.28-.97-2.2-1.1-3.62-2c-.05-.01-.05-.06 0-.06.03-.01.06-.01.1-.01h.2l2.25.16.67.01a1.97 1.97 0 0 0 .8-.18 1.53 1.53 0 0 0 .69-.6c.17-.3.2-.64.16-.95-.14-.6-.54-1-.92-1.3-.78-.55-1.72-.75-2.5-.9l-2.35-.57-2.3-.68c-.4-.1-.7-.25-1.25-.33l-1.23-.06c-1.62-.06-3.2.1-4.7.04l-.1.01c-.08 0-.36-.02-.55-.07-.22-.05-.43-.12-.65-.2-.43-.16-.85-.36-1.26-.58l-.46-.35c-.13-.18-3.2-1.83-3.55-2.2l-1.33-.82c-.35-.26-1.1-.8-.45-.4l-2.13-1.36-1.24-.93-13.76-9.22-11.5-8.06c-2.03-1.5-3.62-3.6-4.94-5.67-1.32-2.07-2.36-4.12-3.16-5.88l-1.08-2.6c-.17-.22-.4-.43-.6-.15-.1.13-.12.42-.12.76l.1.22.07.26 1.87 4.07s1.5 2.85 2 3.63v.14c.82 1.3 1.7 2.58 2.74 3.74a17.4 17.4 0 0 1-1.08-1.36c.25.2.75.9 1.56 1.84.8.95 2.05 1.98 3.43 2.87 2.52 1.82 5.38 3.3 8 5.18 1.32.8-1.2-.65.74.6.01.12-.92-.55-.47-.16l5.34 3.67.05.13 7.7 5.16c3.14 2.03 1.96 1.58 5.28 3.63l1.2.92c1.38.94 1.06.56 2.58 1.62-.14-.01 1.94 1.33 1 .78.65.45 1.37.9 2.14 1.26.4.18.8.35 1.22.48l.68.16c.26.04.44.08.84.04l-.1.01 4.3-.1 1.12.03.28.02.2.02.54.15 2.37.76 2.52.55c1 .18 1.74.38 2.1.55.02.02.3.18.56.43.1.13.2.28.23.4.01.12-.01.2-.08.27-.13.15-.44.2-.48.17-.1-.01.23-.01.42-.23.05-.06.05-.17.07-.17-.02-.04-.07-.08-.1-.12.06.2 0 .18-.03.24-.07.06-.25.12-.5.12-.33 0-.68-.02-1.03-.04l-1.2-.08-1.93-.14a5.58 5.58 0 0 0-.82 0c-.2.03-.38.08-.48.14-.2.1-.32.15-.4.3.06-.06.1-.08.08-.04l-.02.02c-.01.02-.03.04-.06.07-.01.01-.03.03-.04.06-.01.01-.01.02-.02.02 0 .02.01.04.01.05-.4.5-1.46 1.7-3.03 2.17-2 .7-4.8-.7-4.8-.7-.3-.1-.5 0-.6.2-.1.3 0 .5.2.6.1.1 3.1 1.6 5.4.8 1.78-.6 2.87-1.77 3.38-2.37l.22.2c.14.1.34.2.5.3l1.07.62-1-.5 2.65 1.54 1.88 1.07-.5-.35 2.2 1.26c.7.37 1.43.66 2.53 1.07 1 .36-1.78-.87.26-.03.62.3 1.35.62 1.97 1.04.15.1.3.22.37.33.1.1.08.12.08.2-.05.03-.05.04-.06.06-.01.03-.02.08-.03.1l-.1.2-.12.17c-.03.04-.03.03-.1.1-.07.07-.2.1-.3.15l-.06.26c-.03-.02-.07-.04-.1-.05l-7.7-1.96a7.45 7.45 0 0 0-.37-2.25c0-.2-.3-.4-.5-.3-.2 0-.4.3-.3.5 1.3 4.1-1.8 7.1-1.9 7.2-.2.2-.2.4 0 .6s.4.2.6 0c.1-.1.3-.3.6-.7.3-.34.62-.82.93-1.4.6.2 4.16 1.02 5.8 1.4l.13.33c.07.2.1.34.15.55 0 .03.01.06 0 .1h-.08c-.04.1-.02.08-.44.16l-.7.14c-.35.06-.5.06-.68.06-.34-.01-.65.03-2.5.1l.33-.06-.98.17c-1.7.06-2.15-.02-2.65-.07-.5-.06-1.07-.08-2.92-.15 1.46.1.68.26-1.13 0h.46l-2-.3c.6.06.32-.01-1.1-.34l.98.13c-.92-.14-1.82-.33-2.73-.56l-3.45-1.33s-2.05-1.03-2.4-1.3c0 0-.06-.04-.17-.1l-.23-.15c-.06-.06-.15-.07-.24-.1-.05-.02-.1-.03-.17-.05l-1.66-.52-3.18-.92c.92.22-1.55-.6-.82-.44-1.2-.3-4.65-1.32-6-1.84l.26.07-13.26-4.27c.18.15-2.2-.7-1.65-.4-4.75-1.45-8.5-3.1-10.3-3.38-1.48-.5-2.1-.78-2.72-1.04-.22-1.18-.45-2.32-.7-3.3l-.1-1.2c-.25-1.03-.52-2.24-.65-3.3l.05.06c-.38-1.54-.65-3.3-.84-4.06l.05.06-.37-1.88.1.3c-.6-2.7-1.12-5.48-1.53-7.94l-.1.23c-.82-5.28-1.47-7.15-2.16-11.93l.05.06c-.75-2.97-1.12-5.35-1.5-7.76 1-.45 1.85-.87 2.46-1.22l-.12.1c.88-.53 1.33-.65 2.1-1l.88-.4c1.23-.7 3.7-1.6 4.7-2.1l.1.07 2.16-.93.24-.1c.06-.01.03-.06.01-.1l-.05-.12-.4-1 .3.73.14.36c0 .03.04.07.02.08l-.1.04-.2.08c.02-.05.08-.1.17-.16l-.2-.43c-.13-.33-.27-.74-.45-1.25-.27-.8-.53-1.63-1.02-2.55-.7-1.76-2.07-3.3-2.7-5.15-.5-.8.54.67-.1-.58.13-.1.35.56.32.18-.6-1.23-.73-2.14-1.5-3.65l.1-.1c-1.08-1.94-1.5-3.9-2.3-5.15-1.02-2.04-.28-1.55-1.48-3.62l-.23-.9c-.4-.94-.5-.58-.9-1.64.12.02-.52-1.33-.15-.77-.92-2.4-2.43-4.63-3.93-7.68-.54-.53-1.35-2.04-1.8-2.42.04-.14-1.9-2.85-.66-1.37.1.13.27.37.23.37l.23.12c-.9-1.75-2.12-2.83-3.27-4.36.32.47.8 1.07.42.72l-1.1-1.4.3.22-1.67-2.08.15.36c-.8-1.03-.96-1.52-2.12-2.46-.54-.4.75 1-.25.05-1.15-1.3-3-3.2-4.8-4.56.08.24-.4-.12-.92-.47l.01-.14c-2.1-1.17-.58-.74-2.7-1.84l-.46-.04c-1-.4-1.26-.55-1.53-.73-.28-.17-.58-.4-1.78-.63.84.3.4.38-.55.05-.32-.23-.63-.48-.95-.7-2.96-1.94-6.17-3.37-9.43-4.17l-.55-.25c-.1-.12-1.05-.24-1.97-.3-.93-.06-1.9-.1-2.14-.23l-1.54-.07c-.43-.07-1.35-.17-.57-.17-1.06-.06-3.38.17-4.72.32-1.4-.07-2.62.08-2.62.3-1.33.1-1.1.04-1.28-.06.01.06-.27.14-.68.24l-1.44.38c.15-.06.3-.12.45-.16a20.8 20.8 0 0 0-2.82.96l.63.01c-1.48.5-.48-.12-1.84.54l.1.17c-1.94.93-3.16 1.4-4.93 2.55-3.48 2.67-6.38 6.15-8.9 9.7-2.54 3.56-4.7 7.24-6.9 10.54l-.3.22c-.27.02-.83 2.04-1.16 2.2l-.38.84c-.16.2-.47.65-.28.23-.43.73-.4.77-.66 1.33l-.57.72c-1.76 2.86-2.93 5.47-4.68 8.52-.57.9-1.23 2-1.92 3.24l-1.06 1.93-2 3.8c-.02.07.12.1.18.13l1.77.93 2.05 1.05 2.5 1.26-1.46 3.2c-2.42 5.35-3.7 8.92-4.58 12.63-.44 1.86-.8 3.7-1.12 5.9-.3 2.2-.46 4.72-.34 7.8.2 5.88 1.35 12 2.47 17.56.62 2.62 1.55 7.3 2.4 10.36l.22 1.22c.3 1.06.63 2.3.85 3.38l-.04-.06c.44 1.58.87 3.37 1.1 4.16l-.04-.06.5 1.92-.1-.32 2.13 8.1.03-.23c.94 3.85 1.56 5.93 2.28 8.58-.76.27-1.25 1.06-1.13 1.9l.5 2.8c.14.83.88 1.43 1.73 1.43.08 0 .17-.01.26-.02l.28-.05.45 1.62.13.48c.04.16.1.35.1.36a10.75 10.75 0 0 0 .02.97c.03.65.08 1.3.15 1.93.3 2.55.87 5.13 2.27 8.15-.36-.75.1.34.06.3.63 1.4 1.42 2.77 2.03 3.78.6 1.02 1.08 1.7 1.17 1.67 1.17 1.87.93 1.54 1.03 1.82.03-.03.32.36.75.9.37.5.93 1.07 1.46 1.64l-.07-.07-.28-.27c.18.2.3.3.5.53.2.25.54.5.9.5.36 0 .7-.23.94-.45.04-.04.06-.07.1-.1.28.42.6.8 1.04 1.13-.28-.26-.48-.55-.66-.84a3.78 3.78 0 0 0 .98.93c.22.14.32.18.4.22.08.05.17.08.45.1.27.01.77-.01 1.36-.52l-.1-.06c.3-.25.56-.65.6-.75a2.24 2.24 0 0 0 .12-.29c.01 0 .01.01.02.01.02 0 .04-.01.06-.01.07.1.14.17.22.24.07.07.4.28.72.36.34.08.67.08 1.04-.07.28-.12.5-.37.62-.65a2.96 2.96 0 0 0 .18-.71c.06-.45.06-.9.04-1.33-.04-.88-.16-1.78-.33-2.78-.5-2.3-.8-4.66-1.12-7.05a10.05 10.05 0 0 0 .9 1.19c.48.54 1 1.03 1.9 1.37.5.2 1.06.25 1.42-.1.34-.35.3-.94.22-1.45-.18-.8-.44-1.4-.67-2.02-.46-1.24-.85-2.5-1.23-3.77-.2-.66-.33-1.22-.6-1.98-.33-.63-.67-1.18-1.03-1.76-.7-1.14-1.52-2.2-2.2-3.26l-.04-.05c-.05-.07-.18-.3-.24-.5-.08-.2-.13-.43-.2-.65-.1-.45-.16-.9-.2-1.38v-.07l1.05-.2c.83-.14 1.42-.84 1.42-1.73l-.2-2.8c.06-.5-.1-.96-.44-1.3a1.69 1.69 0 0 0-1.43-.45l-.3.05.06-1.98.1-.6c.13-.26-.1-3.7.03-4.22l-.02-1.56c.03-.44.08-1.36.1-.58.04-1.44.02-1.48.01-2.52l.12-1.55.22-8.56c6.82.02 12.4-.24 22.14-.32 11.3.07 14.3.34 26 .23l17-.07c.74-.05 1.1-.08 2.93-.1l1.17-.01h.3c.02 0 .06.01.06-.01v-.07l-.03-.15-.1-.6-.43-2.3c-.04-.2-.07-.4-.1-.58l.7.27h-.07l4.08 1.38h-.07l1.9.64-.33-.08 7.98 2.63-.18-.15c5.24 1.82 7.23 2.27 11.97 3.9h-.07c3.05.85 5.42 1.64 7.82 2.44l3.7 1.2 1 .3c.15.04.3.1.44.13l.4.24c.66.38 1.37.73 2.13 1.06-.76-.33.3.2.23.18 2.8 1.3 6.02 2 6.1 1.83 2.18.45 1.77.38 2.05.5 0-.04.48.02 1.17.07a69.46 69.46 0 0 0 2.46.15l-.8-.02c1.64.1 3.28.15 4.93.12l-.97-.14c1.3.02 1.48.04 1.63.08.15.02.3.07 1.56-.07l-.05-.1c.4-.04.8-.1 1.18-.16.18-.03.36-.07.54-.1.2-.03.38-.05.56-.08.5-.06.83-.53.84-1v-.25l-.01-.12a1.42 1.42 0 0 0-.05-.22c.05-.02.2.01.27.01h.22l.15-.01c.42-.04.86-.12 1.3-.34.44-.2.93-.7 1.06-1.25.1-.3.1-.68-.05-1.03l-.07-.14c-.01-.01-.02-.03-.03-.04l-.06-.06a.3.3 0 0 0-.08-.04c.07-.01.14-.04.2-.08-.03.04.3-.25.4-.48.14-.25.24-.48.3-.77.05-.34.01-.7-.2-1zm-93.96-107.1l.1-.18c1.8 1.17 2.63 2.18 4.1 3.6 6.4 5.68 12.1 13.4 15.2 20.9l.02.4c-.12.23 1.23 1.9 1.18 2.27l.48.82c.08.26.27.8.03.38.35.8.4.8.7 1.36l.26.92c1.32 3.2 2.73 5.8 4.1 9.18.74 2.07 1.96 4.98 3.23 7.92l.48 1.1.12.28.04.08.08.15c0 .04.1.13.03.14l-.15.08-.16.08-.5.22-3.74 1.7c-1.92.92-4 1.78-6.13 2.62-.3-1.86-.66-3.8-1.23-6.12.2.76.01-.34.06-.3-.57-2.84-1.15-5.87-1.44-5.87-.38-2.07-.23-1.7-.17-2-.12.03-.5-1.76-.8-3.38l.2.74-.93-4.66-.04.96c-.45-2.48.16-.7-.43-3.03l-.18.08c-.78-3.4-1.07-5.43-2-8.7-2.25-6.66-5.5-13.37-10.1-18.98-.86-1.06-1.8-2.05-2.76-3 .1.08.2.14.36.22zm-57.7 131.54c-.43.07-.78-.25-.84-.6l-.5-2.78a.75.75 0 0 1 .59-.84l1.12-.2c-.23 1.48.07 2.96.78 4.2l-1.15.2zm15.86 1.97c.38.5 1 1.27 1.5 2.04l1.23 1.9c0 .02.05.1.1.24.04.08.07.13.08.18a5.68 5.68 0 0 1 .09.3l.42 1.5c.27.95.4 1.5-.08.02-.08-.26-.2-.7-.18-.68l-.17-.34a34.27 34.27 0 0 0 1.29 4.26c.24.68.55 1.36.76 1.98.06.17.08.28.12.4.01.04.02.08.02.12.02.1-.1.14-.17.1.04.02.1.04.16 0 .04-.04.04-.1.04-.13 0-.07 0-.1.05.01 0 .07 0 .15-.06.2-.07.03-.14.01-.2-.02l-.1-.05-.43-.23c-.02-.01-.03-.02-.08-.06-.08-.06-.16-.14-.25-.2.14.1.32.23.4.24-.07-.03-.2-.15-.32-.25a5.45 5.45 0 0 1-.34-.34c-.22-.24-.43-.5-.63-.77-.4-.54-.74-1.14-1.07-1.75l.2.54c-.25-.45-.42-.83-.6-1.2-.07-.12-.05-.15-.26-.4.03.01-.2-.2-.4-.2-.15-.06-.58.08-.67.3-.05.08-.06.1-.08.18-.02.05-.03.14-.03.15v.15l.01.18c.01.2.03.38.04.57.06.75.15 1.52.36 2.7.2 1.06-.16-2 .16.2.17 1.4.36 3.14.7 5 .18.92.35 1.83.48 2.74.1.88.2 1.88.05 2.46.05-.05.06-.03.05.05s-.01.12-.1.16c-.05.03-.26.07-.43.02-.02-.03-.03-.06-.04-.1-.07-.03-.1-.03-.2-.1-.14-.08-.28-.2-.4-.35-.04.01-.07.01-.1.01l-3.52-10.75a.51.51 0 0 0-.63-.32c-.26.1-.4.37-.32.63l3.48 10.63c-.07.02-.13.05-.2.07-.1.23-.17.4-.25.53-.06.08-.08.1-.12.14-.07.07-.13.1-.22.17s-.2.13-.37.18c-.2.03-.33.1-.76-.2.07.03.15.06.2.08-.2-.05-.44-.2-.66-.36-.13-.14-.24-.28-.34-.4l-2.88-8.63a.51.51 0 0 0-.63-.32.51.51 0 0 0-.32.63l2.55 7.64-.1.14c-.46.64-.48.5-.57.47-.06-.04.04.01-.37-.4-.3-.3-.67-.65-1.18-1.24.94 1.08.27.68-.76-.82l.32.33c-.6-.8-.8-1.08-1.14-1.65.36.48.25.22-.53-1.04l.6.8a79.54 79.54 0 0 1-1.55-2.35c-.5-.97-1.2-2.2-1.68-3.3-.52-1.1-.87-2.13-.96-2.56 0 0-.37-1.1-.68-2.34-.3-1.15-.52-2.42-.65-3.02.1.43-.1-1.7.04-1.04a14.07 14.07 0 0 1-.15-1.24c-.02-.28-.04-.48-.04-.86.02-.12-.07-.3-.07-.35l-.06-.22-.13-.44a48.07 48.07 0 0 1-.43-1.57l.13-.02a6.42 6.42 0 0 0 2.82 2c.72.26 1.46.38 2.2.38 2.67 0 5.17-1.65 6.12-4.3a.69.69 0 0 1 .03-.08l1.8-.32a5.35 5.35 0 0 0 .08 1.06c.06.33.12.66.22 1a6.46 6.46 0 0 0 .18.52c.1.2.13.32.33.6l-.05-.07.33.52zm-14.23-7.26a5.5 5.5 0 0 1 7.03-3.31 5.51 5.51 0 0 1 3.31 7.04c-.5 1.38-1.5 2.5-2.83 3.1s-2.82.7-4.2.2a5.51 5.51 0 0 1-3.31-7.04zm14.7-2.02c.22-.02.44.04.58.18.12.12.17.28.15.56l.2 2.87c0 .36-.23.65-.6.7l-3.47.62a6.5 6.5 0 0 0-.75-4.23l3.88-.7zM271 207.48c-.28.07-.4.12-1.93.08.88-.1-.23-.1-1.24-.1.65-.02.85-.06-.48-.13-.2.03-.48.05-.75.07-.01-.01-.06-.01-.04-.03-1.7.04-1.4.07-.6.08-.04.02.03.04.27.07-1.75-.14-4.9.01-5.1-.17-5.1.04-8.72.23-12.95.3-.48-.1.5-.18 1.74-.2l-3 .03c.03-.13 1.72-.08 2.65-.1-3.57-.22-7.37.22-11.56.02l-.87.1h-.25c.01.06-.93.13-1.55.15-.6-.12.04-.27-2.03-.26-1.64-.1-4.66.06-6.8.12 1.16.02.78.08.3.13-1.04 0-1.63-.1-2.44-.06l-.08-.12c-.14.12-2.77.13-3.12.2-.6-.12 1.6-.1 1.87-.2l-6.24.02c-2.22.12.4.15-.66.3-1.96.03-3.87.14-6.12.05l.7.14c-3 .1-5.03.1-7.02.01l.2-6.36c.13-1.78.18-4.02.4-6.35.28-2.3.95-4.83 1.7-7.33a141.79 141.79 0 0 1 4.94-13.58l1.44-3.16c-.07-.27-.18-.53-.37-.63-.08-.04-.2-.05-.33-.04l-.63 1.35c-.07.1-.14.26-.14.23-.9 2.13-2.64 6.17-3.25 7.93l-.1.1c-.54 1.43-1.05 2.87-1.55 4.3l.58-1.6c-.02.62-1.3 3.22-2.1 6.46-.43 1.5-.74 3.06-.92 4.65-.2 1.6-.15 3.2-.28 4.8.02 1.54-.08-1.36-.1.94-.06.07.02-1.07-.08-.48-.05 2.25-.24 3.7-.27 6.47l-.08.1c.02 3.63-.3 6.83-.25 9.25-.04 3.74-.3 2.5-.25 6.4l-.14 1.5c-.06 1.66.1 1.2 0 3.04-.06-.1-.1 2.33-.14 1.25-.06 1.34-.1 2.72-.1 4.13l-2.88.52c-.72-.9-1.68-1.6-2.84-2.03-3.37-1.2-7.1.54-8.32 3.92-.02.05-.03.1-.04.14l-.58.1-2.3-8.62c-.03.23-.62-2.23-.57-1.6-1.36-4.77-2.03-8.8-2.8-10.46-.56-2.18-.56-2.6-.83-3.75l.15.52-2-8.34c-.37-1.52-.58-1.72-1.1-4.48.24.88 0-.24-.2-1.27.14.66.2.85-.02-.5-.06-.2-.12-.48-.2-.75 0-.01 0-.07.01-.04-.34-1.72-.3-1.4-.17-.6-.02-.04-.02.03.01.28-.27-1.8-.88-4.98-.8-5.22-.8-5.18-1.27-8.92-1.16-13.28.08-.5.07.53.1 1.8 0-1.03.03-2.06.1-3.08.08.03-.06 1.77-.04 2.72.08-1.83.17-3.72.42-5.67.27-1.95.6-4 1.15-6.08l.15-.88.08-.25c-.04 0 .17-.94.35-1.56.24-.56.12.08.8-1.94.6-1.58 1.66-4.5 2.54-6.54-.5 1.1-.37.72-.2.24.44-.98.75-1.52 1.07-2.28l.1-.04c0-.1.38-.96.73-1.74.04.02.1.05.13.07 5.82 2.8 12 7.1 17.98 9.94a2.75 2.75 0 0 0 .7.31l5.3 2.9 6.47 3.44c0 .01-.01.02-.01.03l.02-.03c.01 0 .02.01.02.01h0l.83.43c5.83 3 11.28 5.52-.3-2l.15.03c-2.85-1.68-4.67-2.7-6.8-3.57-.18-.42-2.37-1.32-3-1.77l.08.01c-1.88-.77-3.56-2.14-5.37-2.9.08.02.15-.03.55.18-1.26-.64-3-1.5-3-1.7-3-1.57-7.1-3.9-9.14-4.7l.15.03c-1.17-.43-1.42-.74-2.68-1.32-.06-.06-.14-.1-.12-.1-1.27-.48-3.47-1.85-4.46-2.3l-.01-.13-2.16-1.14.66.4c-.1.03-.27-.03-.48-.15-.17-.1-.26-.18-.4-.3-.06-.05-.15-.1-.17-.16.06-.1.12-.17.18-.26s.1-.17.15-.27c.1-.18.2-.42.3-.63.9-1.58 1.2-3.54 2.25-5.12.3-.86-.18.8.37-.42.16.04-.22.6.06.36.57-1.2 1.2-1.82 1.9-3.3h.14c.84-1.97 2.1-3.4 2.62-4.75 1-1.95 1.05-1.1 1.98-3.2l.6-.68c.5-.83.17-.7.8-1.6.06.1.77-1.13.53-.54 1.4-2 2.33-4.4 4.3-6.94.2-.7 1.2-1.97 1.37-2.48.1-.03 1.88-2.62.98-1.04-.08.14-.24.36-.25.32l-.02.25c1.23-1.35 1.83-2.75 3-4.12-.37.38-.8.95-.57.53.35-.44.7-.85 1.07-1.28l-.14.33a47.99 47.99 0 0 1 1.67-1.82l-.32.16c.87-.85 1.3-1 2.15-2.08.38-.5-.95.66-.05-.24a39.82 39.82 0 0 1 4.86-3.56c-.24-.02.23-.3.7-.6l.12.07c1.8-1.16.8-.17 2.63-1.16a1.74 1.74 0 0 0-.13.15c.13-.16.27-.3.4-.44.84-.46 1.12-.45 1.4-.48.3-.03.58-.1 1.57-.46-.8.2-.45-.22.6-.32l-.24.15c.56-.1.74-.18 1.12-.2 1.46-.24 4.1-.62 5.9-.53 1.07.05 2.3.22 3.4.4l-.1-.05c-.06-.03-.12-.05-.18-.08.56.06 1.25.17 2.05.3-.1.08 2.18.44 1.16.37 1.9.4 3.82.83 5.8 1.57a20.44 20.44 0 0 1 6 3.48c.52.24 1.24.82 1.94 1.38.66.6 1.32 1.15 1.65 1.4.1.1 3.5 3.88 1.42 1.82-.18-.18-.47-.5-.42-.5-.1-.06-.2-.12-.33-.17 1.82 2.3 3.53 4.02 5.08 6.53-.42-.76-1.1-1.7-.6-1.1.5.75.96 1.55 1.44 2.32l-.4-.43c.7 1.17 1.32 2.37 1.92 3.6l-.15-.56c.86 1.8.96 2.53 2.04 4.52.5.9-.6-1.8.28.12 1 2.5 2.23 6.32 3.13 9.62.05-.35.3.54.58 1.45l-.1.14c.55 1.73.55 2.08.56 2.42 0 .34.02.67.47 2.4l-.15-.3.45.88c.88 3.15.06 1.76 1.07 5.3-.28-1.42.15-.72.42 1.04l-.2-.42c.2.96.3 1.28.4 1.93-.17-.57-.23-.27.06 1.15l-.33-.93.72 2.65c.26 2.1 1.03 5.37 1.02 6.25 0 0 .75 4.5 1.12 5.48-.28-.88.13 1.6-.13.92.34 1.14 1.08 4.54 1.2 5.93l-.06-.26c.8 5.1 1.8 8.63 2.47 13.2.1-.23.47 2.18.54 1.56 1.05 4.67 1.22 8.64 2.1 10.24.43 2.13.34 2.56.52 3.67l-.12-.5 1.55 8.14c.04.13.1.25.14.38l.1.2c0 .02.08.14-.01.13zM337 218.62c-.14.15-.42.28-.74.35a3.58 3.58 0 0 1-.49.08 4.44 4.44 0 0 1-.4.02.53.53 0 0 0-.21-.11l-6.4-1.5c.2-.52.36-1.1.45-1.73l7.5 1.92c.04.01.08.02.12.02s.08-.03.12-.04c-.01.12-.06.3.14.37.12.1.07.06.1.1.01.01 0 .03.01.04.03.05-.07.37-.2.5z"/></svg>