<svg xmlns="http://www.w3.org/2000/svg" viewBox="0 0 480 480" xmlns:v="https://vecta.io/nano"><path d="M338.3 175.35l.1-.03h-.02zm10.8-9.28v-.85c.83-.48 1.3-1.12.95-2.2-.3-.76-.77-1.07-1.35-1.14l-.05-.46.05-.18c.58-.5.87-1.16.55-2.02a1.12 1.12 0 0 0-.38-.52c-.01-.02-.01-.06-.02-.08-.4-.8-3-.6-5 .2s-2 .8-3.1 1c-1 .1 1.9-1.4 3.3-2.4s1.6-3.1-1.3-2l-6.2 2.1c-.8.4-2.5 1.5-3.8 2.4l-1.2.9s-.9.8-4.1.9c-1.7.05-20.14-.07-23.97-.1l-.63-5.3s-5.7.9-16.8 1.1c-11.1.4-11.8-3.7-20-22.2-5-11.2-11.73-18.62-16.23-22.72-3.97-5.27-8.9-9.5-15.06-11.4.75-.97 1.5-2.1 2-3.43l2.4-1.25c1.2-.6 1.7-2 1-3.3l-10.7-20.6c-.6-1.2-2.1-1.6-3.3-1l-8.6 4.5c-1.2.6-1.6 2.1-1 3.3l3.43 6.6c-.65-.32-1.23-.01-1.23-.01.5 3 0 6.2-.3 8.2 0 2.1 1.3 3.9 1.1 5.3-.08.54-.4 1.17-1.06 2.2a15.69 15.69 0 0 0-2.34 1.2h0c-11.16-.15-21.34 7.36-34.3 27.3-13 20-16.7 30.7-15.3 39.9 1.4 9.3 2.9 13 10.5 17.4 4.9 2.83 10.7 4.57 16.3 3.44.14-.02.28-.03.42-.05l-2.12 15.5c0 .2-.1.9-.2 1.1v.1c0 .3-.1.4-.1.5v.1h84.3L273 193.7c2.2-.1 4.9-.33 8.25-.7 16.6-1.8 25.3-5.7 25.3-5.7l-.5-4.12 28-7.98s5.28-.18 11.7-3.08a8.08 8.08 0 0 0 1.5-.32c1.7-.5 2.2-1.1 1.9-2.1-.04-.13-.14-.23-.28-.3-.1-.3-.3-.54-.44-.75 1.15-.54 1.5-1.13 1.1-2.14-.06-.2-.22-.34-.43-.44zM223.76 93.23c-.3-.17-.6-.6-.93-1.02-.4-.58-.6-1.45-.96-2.6l1.9 3.63zm79.5 96.07l-.62.14c.02.02.18-.01.62-.14zm-37.13-55.63c.03.04.05.1.08.13l-.08-.13zm-50.3 86.63c25 0 49.1-12.12 49.1-12.12l-70.27.52s.65 11.6 21.17 11.6zm53.97-10.94l.27-.01h-.05c-.07 0-.15 0-.22.01zm-95.34-69.66l-.08.17c.01-.01.01-.02.02-.03l.06-.14z" fill="#fff"/><path d="M220.23 79.6c.35-.18.6-.5.73-.87a1.45 1.45 0 0 0-.1-1.12c-.18-.35-.5-.6-.87-.73s-.77-.08-1.12.1c-.72.38-1 1.27-.63 2a1.48 1.48 0 0 0 1.31.79c.23 0 .46-.05.68-.16zm-1.33-.98a.73.73 0 0 1 .31-.98c.17-.1.37-.1.55-.05s.34.18.43.36c.1.17.1.37.05.55s-.18.34-.36.43a.72.72 0 0 1-.98-.31z"/><path d="M222.25 80.42c-.38-.72-1.27-1-2-.63h0c-.72.38-1 1.27-.62 2a1.48 1.48 0 0 0 1.31.79 1.4 1.4 0 0 0 .68-.17 1.46 1.46 0 0 0 .62-1.98zm-.97 1.32a.72.72 0 0 1-.98-.31.73.73 0 0 1 .31-.98c.36-.18.8-.05.98.3a.74.74 0 0 1-.3.98zm-5.7-2.94h0c-.02-.04-.05-.06-.07-.1l.07.1zm9.66 49.4h0l-.01.2zm-32.53 63.73l-1.04 8.57c-.82 7.5-.8 10.46 2.6-7.74l.01.25.24-1.5 2.96-.58c1.76-.4 4.28-1.36 6.42-2.96.57-.34 1.05-.82 1.56-1.23l.75-.63.66-.68 1.23-1.3.98-1.25 4.68-7.2c1.44-2.55 2.76-5.2 3.54-7.86.1-.16.2-.6.17-.62l1.63-4.76.96-3.4 1.3-6.2c.28-1.87.32-3.2.03-2.92-.3.28-.88 2.15-2.38 6.47l-.02-.13-1.6 6.07c-.37.2-.7 2.1-1 2.67v-.06c-.32 1.64-1.33 3.12-1.74 4.66 0-.07-.06-.13.08-.46-.42 1.07-.97 2.56-1.17 2.56-1.06 2.55-3 5.85-3.7 7.47l.03-.12c-.4.9-.7 1.07-1.26 2.03-.05.04-.1.1-.1.08-.27.47-.78 1.07-1.28 1.66-.48.6-1.08 1.04-1.35 1.4l-.12-.04-.77.74-.83.67.64-.48c-.01.2-.36.42-.84.72l-.8.52a6.87 6.87 0 0 0-.92.63c-.3.18-.6.42-.9.65l-.9.68c-.3.23-.6.48-.95.66-.34.17-.7.33-1.07.43-.64.4.52-.45-.46.05-.08-.14.44-.28.14-.3-.48.24-.9.3-1.37.4-.46.07-.94.22-1.57.38l-.08-.1c-.22.07-1.2.07-1.42.12l-.01.06c-.1-.04-.22-.08-.16-.1l-.6-.06c-.46.1-.94.1-1.4.16l.4.08c-.7.07-1.17 0-1.66-.02-.5-.01-1-.04-1.8 0-.72.06 1.32.24-.17.2-.94-.12-2.1-.36-3.3-.68l-3.55-1.28c.16.22-.45-.03-1.08-.27l-.02-.15c-2.4-.98-.74-.63-3.04-1.75l.24.04-.72-.13c-2.1-1.05-.95-.84-3.16-2.12.78.62.2.52-.73-.32l.32.1c-.54-.42-.7-.57-1.03-.9.35.23.24.05-.4-.68l.54.4-1.34-1.28-1.2-2.15c-.34-.75-.6-1.44-.6-1.76 0 0-.07-.18-.15-.48l-.94-3.3c.24.62-.07-1.14.17-.67-.28-.8-.8-3.3-.74-4.24l.04.18c-.12-1.78-.15-3.3-.04-4.8l.08-1.1.17-1.1c.1-.75.3-1.5.53-2.28-.1.06-.02-.33.05-.7.08-.35.15-.67 0-.5.76-3.35 2.4-5.74 2.38-7.1.62-1.44.87-1.65 1.26-2.36l-.14.35 2.68-5.35c.5-.98.34-1.26 1.35-2.94-.22.6.15-.1.53-.74-.22.4-.26.56.3-.24.04-.13.13-.32.22-.5.01 0 .04-.03.04-.01.6-1.07.45-.9.15-.42 0-.03-.04 0-.16.13.75-1.03 1.82-3.05 2.06-3.08l4.83-8.07c.27-.24-.06.4-.53 1.17l1.18-1.83c.1.1-.63 1.08-.98 1.66.8-1.02 1.5-2.16 2.26-3.32.75-1.17 1.54-2.4 2.54-3.53l.3-.57.12-.13c-.05-.03.3-.62.56-1 .36-.26.2.2 1.13-.98.42-.42.93-1.1 1.47-1.8l1.62-2.03c-.57.6-.44.37-.23.07.48-.57.88-.8 1.24-1.24l.16.06c-.3.12 1.23-1.53 1.4-1.75.38-.22-.76.88-.8 1.1l1.6-1.58c.28-.24.52-.54 1.65-1.5 1.15-1.1-.32.07.18-.52 1.05-.95 2.1-1.86 3.48-2.7l-.5.17c2.16-1.55 3.6-2.32 5.3-2.85 1.1-.58 2.15-.9 3.07-1.27l2.5-.67 3.17-.56c1.35-.22 1.24-.35.53-.5-.75-.1-2.16-.2-3.4-.07l-1.58.18-.66.12c-4.1.75-6.95 2.33-9.63 4.2-2.67 1.92-5.2 4.27-8.4 7.8l-3.5 3.97c-1 1.14-1.8 2.18-2.64 3.23-1.66 2.1-3.24 4.3-5.56 7.9-2.24 3.42-4.5 7.15-6.48 10.63-.37.88-1.02 2.03-1.68 3.2-.63 1.2-1.32 2.43-1.73 3.5l-.5.73a26.93 26.93 0 0 1-1.02 2.26l-.01-.06c-.4 1.1-.97 2.28-1.13 2.85v-.06l-.5 1.32.04-.24-.95 2.93c-.27.98-.6 1.92-.8 2.84l.18-.12c-.27.96-.47 1.78-.58 2.53l-.17 1.07-.16 2-.02 1.03c-.04.7-.02 1.5-.03 2.4l-.04-.05.9 5.8c.3 1.77.62 3.63 1.75 5.8-.28-.54.03.27-.02.24.94 2.07 2.6 3.88 2.84 3.68 1.1 1.16.86.98.93 1.22.08-.1 1.15.8 2.16 1.5l-.5-.3c.95.7 1.95 1.32 2.96 1.9l-.46-.56c1.55 1 .24.5 1.83 1.32l.07-.18c2.25 1.2 3.53 2.07 5.93 2.93 2.53.72 5.27 1.08 8 .76.37-.04.7-.1 1.05-.16zm69.06-49.4v-.01l-.17-.28zM256 210.67h0l.1-.13z"/><path d="M213.6 107.52l.14-.2-.14.2zm136.83 56.98c.2-.5.2-1.1 0-1.7-.3-.87-.83-1.26-1.46-1.38a2.33 2.33 0 0 0 .56-.72c.2-.5.2-1 0-1.6-.32-.93-1.18-1.18-2.1-1.16-.62-.07-1.32-.1-1.8-.02-.5.1-1 .1-1.67.36l.3-.14-.7.27.2-.13c.3-.2.64-.4.98-.73.32-.32.6-.68.75-1.2.2-.52.07-1.33-.5-1.63-.27-.17-.6-.22-.85-.22-.26-.01-.47.03-.7.07-.42.1-.82.24-1.16.37l-2.1.77-2.1.7c-.7.26-1.38.38-2.14.8l-3.64 2.25-.25.07c-.1-.03-.56.45-.92.78l-.04.03a.5.5 0 0 1-.3.16 6.05 6.05 0 0 1-.51.25c-.16.03-.5.1-.23-.01l-.93.24h-.6c-1.1.1-2.18.05-3.25.1l-3.4.03c-2.92-.17-8.4-.05-11.56.03a65.68 65.68 0 0 1-3.45.02l-.93-.03c-.2.06-.36.16-.35.3.01.3.64.54 1.22.7a10.38 10.38 0 0 0 .67-.05l-.1.03c.85-.1 1.1-.01 2.06-.06.05.01.12.02.1.03.93-.1 2.7-.01 3.46-.05l.05.07h1.85l-.7-.02c.24-.18 1.4.12 2.74.01 1.26.03 2.54-.37 3.84-.28.62-.08-.54.14.38.08.03.1-.43.06-.2.14.9-.04 1.5.1 2.62.04l.05.07c1.46-.13 2.77.1 3.75-.02.77-.06 1.03-.03 1.3-.02s.56.03 1.36-.2c.22-.01.44-.04.66-.07.33-.1.45-.18.57-.26.13-.1.2-.1.56-.38l-.03.03c.03-.02.08-.05.13-.1 0 .08.78-.52.47-.2l2.12-1.5c.38-.26.77-.53 1.2-.78.42-.24.9-.54 1.3-.63.4-.27 1.5-.53 1.8-.73.07.04 2.15-.7.98-.18-.1.04-.28.1-.28.08l-.12.12c1.26-.26 2.2-.8 3.38-1.23-.36.1-.83.3-.53.13a17.26 17.26 0 0 1 1.07-.37l-.2.13c.46-.17 1.1-.2 1.1-.13 0-.03 0-.06-.01-.1.1.05.1.15.06.2-.02.01-.07.23-.24.54-.15.3.45-.44.05.14-.27.32-.9.64-1.54 1.02-.65.37-1.33.74-1.98 1.16.08 0 .04.05-.07.14-.07.05-.14.1-.22.18a1.06 1.06 0 0 0-.16.15c-.02.02-.08.1-.1.14a.91.91 0 0 0-.07.14c-.02 0-.03-.01-.05-.01-.2 0-.4.2-.4.4 0 0 0 2.1-1.3 3.8-1.3 1.6-4.4 2-4.4 2-.3.1-.4.3-.4.5s.2.4.4.4c.13 0 1.55-.17 2.96-.85 3.1 2.8 2.24 6.76 2.24 6.95-.1.2.1.4.3.5h.1c.1 0 .3-.2.4-.4s1-4.4-2.25-7.5c.46-.3.9-.66 1.25-1.1 1.16-1.47 1.42-3.17 1.48-3.9.34-.1 1.3-.55 1.42-.54.02 0 .13-.02.28-.06-.66.42-1.12 1.02-.97 1.92.1.5.4.9.9 1.2.32.2.68.3 1.08.35-.95.58-1.68 1.35-1.48 2.35.1.4.3.8.7 1 .4.23.84.34 1.35.38-.72.4-1.23.93-1.05 1.72.1.5.4.9.8 1.1.25.13.55.2.86.25-.6.36-1.04.8-.86 1.45a1.27 1.27 0 0 0 .7.9c.02.02.06.03.08.04-.5.13-.7.13-1.05.25l.2-.1c-1.57.6-2.05.75-3.25 1.08-.6.2-.65.38-1.76.6.34-.14-.1-.03-.52.06.26-.07.34-.1-.2-.04a3.5 3.5 0 0 1-.3.1c-.01 0-.03 0-.02-.01-.68.15-.56.14-.24.1-.01.01.01.02.12.02-.73.06-2 .3-2.1.2l-.75.08-.18.02c-.1 0-.2.03-.27.05l-.34.1-3.75 1.22c-.2 0 .18-.16.67-.32l-1.2.36c-.01-.08.68-.24 1.05-.36-1.48.3-2.94.97-4.66 1.34l-.33.16-.1.02c.01.03-.35.18-.6.26-.26 0-.03-.16-.86.08-.68.12-1.87.57-2.73.85.47-.12.33-.04.14.04-.42.12-.68.12-1 .24l-.07-.08c.2.04-1.07.4-1.2.5-.26 0 .63-.24.72-.32l-2.5.73c-.88.32.2.04-.22.24-.8.24-1.54.53-2.46.73h.3c-1.47.5-2.36.73-3.38.93-2.4.85-3.85 1.4-4.63 1.73-.01-.34-.02-.64-.1-.98l.1-.07c-.13-.1-.37-2.03-.46-2.28.06-.45.24 1.18.35 1.36l-.57-4.62c-.3-1.63-.1.32-.34-.45-.2-1.45-.48-2.85-.6-4.53l-.08.54c-.43-2.7-.6-4.35-.7-6.2l-.7-3.82h.02l-.28-1.14c-.4-2.06-.7-3.4-.9-4.2.45-.13.62-.24.43-.3-.1-.03-.27-.06-.54-.07-.28-.92-.4-.72-.43-.02-1.4-.04-4.26.02-9.23-.05l.18-.06c-4.02.07-6.6.14-9.32.32-.2-.17-1.02-.16-1.84-.3-.85-.07-1.7-.33-2.1-.48.03 0 .05.01.08.01-1.08-.32-2.1-.9-2.9-1.77-.43-.4-.75-.9-1.14-1.32-.33-.5-.7-.94-1.04-1.4.06.06.15.07.46.5-.98-1.33-2.1-3.4-2-3.6-1.87-3.63-4.05-9-5.38-11.32l.12.15c-.8-1.3-.8-1.8-1.62-3.3-.02-.1-.06-.2-.05-.2-.83-1.45-2.2-4.33-2.95-5.46l.05-.13-1.75-2.82c.23.34.42.7.63 1.07-.32-.15-.77-1.18-1.54-2.42-.73-.72-1.86-1.73-2.13-1.3-.14.23.15 1.08.6 2.08 2.07 2.9 3.85 6 5.1 8.34l1.34 2.67 1.24 2.85 2.43 5.92c.84 2 1.66 4 2.68 5.92 1.02 1.9 2.2 3.82 3.92 5.24.2.2.8.66.83.6 1.1.78 2.37 1.38 3.67 1.67.64.2 1.3.23 1.94.35.64.05 1.28.1 1.93.12l1.52-.01a127.13 127.13 0 0 0 3.71-.1c2.95-.1 6.6-.36 9.38-.7 1.33-.16 2.45-.35 3.22-.53.02 1.76.3 4.93.3 4.93.65 8.03 1.54 12.1 2.8 21.6l.3 2.86c-.03.07.03.18-.06.2-.1.04.01-.02-.48.16-1.4.5-2.68.85-3.96 1.2a158.09 158.09 0 0 1-9.42 2.21c-4.05.76-8.4 1.4-12.42 1.82-1.3.27-3.26.4-5.1.52-.55-2.53-1.04-5.12-1.43-7.43l-.1.23c-.83-5.35-1.5-7.23-2.2-12.07l.05.06c-1.5-6-1.54-9.65-3.06-15.82.2.77.01-.35.06-.3-.58-2.87-1.17-5.94-1.46-5.92-.4-2.1-.23-1.73-.18-2.03-.12.04-.5-1.77-.83-3.4l.2.74c-.12-.78-.38-1.57-.6-2.34l-.65-2.3.03.97c-.62-2.46.1-.7-.62-3.02l-.18.08c-.96-3.38-1.3-5.43-2.33-8.7-1.28-3.58-2.82-7.2-4.64-10.66l-4.44-7.33-.02-.2a.77.77 0 0 1-.13-.12l.15.44-1-1.4c-2.24-2.9-4.76-5.56-7.66-7.66-1.42-1.1-2.97-1.97-4.53-2.77-.82-.38-1.65-.72-2.5-1.03.56-.78.92-1.48.98-2l.5-1.18c3.1-2.13 1.34-1.47.36-1.05.18-.9.23-1.58.2-2.2-.01-.36-.05-.7-.15-1.1-.05-.2-.13-.4-.26-.6a1.79 1.79 0 0 0-.25-.31c-.08-.07-.1-.08-.13-.1-.01-.01-.05 0-.03-.04 0-.02 0-.04-.01-.06l-.02-.1-.02-.22c-.02-.15-.03-.3-.05-.46-.02-.2-.03-.38-.05-.6-.02-.25-.06-.6-.22-.98.14.27.13.23.07.04a1.7 1.7 0 0 0-.6-.78c.2.14.3.28.3.24-.02-.01-.1-.25-.6-.5l-.1-.03c.04.02-.01.01-.02.01h-.13c-.05-.01-.1 0-.14 0 .06-.23.03-.17-.05.03 0 0-.02.02-.02.03 0 0 .01.01.04.01h-.05a1.33 1.33 0 0 0 .11-.3c.03-.08.02-.5-.05-.76-.07-.3-.17-.55-.3-.76-.23-.42-.48-.68-.48-.76-.3-.34-.83-.6-1.35-.52-.5.1-.85.36-1.1.62a.64.64 0 0 0-.1.13 59.08 59.08 0 0 1 .21-2.9c.1-.27.07.3.01 1l.18-1.73c.08.02-.07 1-.1 1.53.18-1.02.28-2.08.34-3.2l.03-.8.72 1.24c1.38 2.23 2.33 5.17 3.76 7.45.02.1.16.27.18.26l1.1 2.2.8 1.52.35.66a2.02 2.02 0 0 1 .2.6c.08.42 0 .84-.15 1.17-.33.68-.9.95-.7 1.03.1.02.4.02.86-.32.23-.17.5-.44.68-.86a2.73 2.73 0 0 0 .16-1.65l.05.06c-.25-.8-.5-1.18-.74-1.65a8.84 8.84 0 0 0-.74-1.19c.1-.2-.5-1-.6-1.3h.03c-.5-.66-.68-1.55-1.15-2.2.03.02.08.01.16.17-.28-.5-.68-1.18-.6-1.26-.66-1.2-1.5-2.93-2.05-3.64l.05.04c-.33-.4-.3-.57-.62-1.04 0-.03-.01-.07-.01-.07-.35-.44-.75-1.4-1-1.78l.05-.06-.52-.96.17.37c-.23-.04-.28-.78-.75-1.43-.32-.67-1.03-1.15-1.3-1.88-.25-.3.27.22-.04-.23.08-.06.17.2.17.04-.3-.46-.32-.83-.68-1.38l.05-.06c-.53-.72-.63-1.46-1.08-1.97l-.56-.7c-.12-.14-.27-.32-.82-.45a2.49 2.49 0 0 0-.4-.2c-.5-.08-.36.06-.88.04.03-.08-.67.07-.38-.05-.3.03-.63.16-.87.3l-.7.4c-.47.28-.98.56-1.6.8-.2.24-.8.48-.96.66-.06-.03-1.18.6-.57.16.05-.04.15-.1.16-.07l.05-.1c-.73.22-1.17.7-1.84 1.02.2-.08.46-.22.3-.1l-.6.3.1-.12-.92.44h.16c-.46.2-.68.16-1.13.52-.2.17.47-.13.01.14-.32.14-.66.27-1.13.5a2.76 2.76 0 0 0-1.19 1.2c.12-.05-.02.2-.1.5h-.08c-.1.57-.1.67-.15.77-.04.1-.12.22.01.78l.15.18c.48.9.07.58.65 1.32-.18-.3.07-.22.24.18l-.12-.07c.13.2.2.27.25.42-.1-.1-.13-.02.05.3l-.2-.17.43.54c.17.5.64 1.2.65 1.43 0 0 .47 1.02.7 1.2-.17-.17.1.4-.06.27.2.22.66.96.74 1.3l-.04-.05c.02.06.05.1.08.16.5-.08 1.4.03 2.03 1.6.13.33.24.65.35.96-.18-.44-.35-.85-.53-1.2-.27-.5-.6-.87-.95-1.03-.33-.17-.63-.14-.84-.08-.04.01-.07.03-.1.05-.08-.26-.15-.36-.17-.23-.02.06-.02.17-.03.33-.17.12-.27.24-.28.27-.01.05.1.03.28-.03 0 1 .03 3.24-.82 7.22v-.14l-.05.3v.14c-.01.06-.03.15-.02.2 0 .22.01.4.03.6.03.4.1.75.2 1.1.16.68.38 1.26.55 1.8.18.53.32 1.03.34 1.46.02.4-.13.84-.35 1.3-.18.14-.78 1.1-1.28 1.87-.95.01-1.44.13-1.18.26.1.07.4.14.83.24-.1.12-.17.23-.23.3l.03-.06c-1 1.63-2.4 3.14-3.36 4.7.02-.05.02-.1.12-.26-.74 1.08-1.66 2.42-1.8 2.45-1.85 2.64-4.35 6.36-5.35 8.17l.05-.13c-.56 1.04-.82 1.28-1.5 2.4-.05.05-.1.13-.1.1-.6 1.13-2.02 3.13-2.55 4.02l-.1.02-1.37 2.14.53-.8c-.03.38-1.14 1.55-2.05 3.16-.43.65-.8 1.35-1.15 2.06-.01.35.04.6.18.66.25.1.52-.13.73-.4l1.66-2.6 4.3-6.85c1.6-2.6 3.48-5.33 5.4-8.04 1.92-2.7 3.93-5.38 5.65-8 .13-.15.4-.6.4-.6l1.67-2.34c.55-.8 1.1-1.57 1.57-2.5-.03-.01.3-.4.33-1.34 0-.9-.4-1.88-.75-2.92-.17-.52-.3-1.07-.37-1.63-.02-.13-.02-.3-.03-.4 0-.01.01-.08.02-.17l.03-.23.12-.94c.16-1.26.25-2.52.24-3.62 0-1.23-.14-2.22-.27-2.8.14-.01.35 0 .5.1.22.1.45.38.6.7.1.16.15.34.22.5.06.2.12.36.17.5l.15.47c.22.72.4 1.4.6 2.1.2.67.38 1.4.9 2.1.22.26.32.5.86.94.48.4 1.15.44 1.64.1.23-.15.46-.45.58-.64.14-.22.2-.38.28-.53a17.27 17.27 0 0 0 .38-.9c.94-2.36 1.84-4.85 3.15-8.33l1.5-3.88c.2-.56.4-1.03.62-1.3.07-.08.06-.05.1-.05.04.02-.01-.02.18.15.01.02.01.02.02.03-.01-.03.01.07.01.2a8.62 8.62 0 0 1 0 .72c-.02.52-.07 1.07-.13 1.67-.1 1.2-.3 2.53-.44 4.26l-.08.94c-.02.34-.07.6-.03 1.1v.13a2.59 2.59 0 0 0 .1.3c-.01 0 .13.2.32.3.2.1.4.12.5.1a.92.92 0 0 0 .37-.14c.1-.08.08-.06.12-.1a1.92 1.92 0 0 0 .14-.15l.06-.1.08-.13c.06-.1.14-.22.2-.32.15-.2.33-.37.48-.46.16-.08.2-.1.26-.06.07.02.2.12.37.34a2.24 2.24 0 0 1 .33.6 1.09 1.09 0 0 1 .07.3c.01.05.01.1.01.15-.02.1-.02.23-.07.38.24.34.35.52.4.6.08.08.23.26.46.55h.22l.01.01c.01.01.03.01.05.02.03.01.05.03.08.05a.49.49 0 0 1 .14.17.75.75 0 0 1 .15.31c.05.13.06.26.08.47a12.83 12.83 0 0 1 .01.64c0 .24-.01.37-.04.9.14.17.22.32.32.4.05.07.15.14.2.23.01.04.03.12.04.13l.02.02c.03.04.07.1.1.17.07.15.1.35.15.56.06.42.06.87.04 1.28-.04.2-.1.42-.15.63-.05.57-.2 1.22-.44 1.75l-.01-.04c-.24.82-.75 1.66-.96 2.03v-.04c-.15.25-.35.54-.56.83l.08-.17c-.38.6-.88 1.2-1.32 1.8a19.13 19.13 0 0 1-.68.84l-.34.4c-.12.14-.18.2-.45.47-.04.13-.1.25-.13.37.04-.02.1-.07.13-.13-1.1 3-1.25 4.05-2.23 6.68l-.01-.04c-.88 3.42-1.9 5.24-2.8 8.75.12-.44-.1.17-.1.13-.5 1.6-1.04 3.3-.9 3.37-.38 1.16-.36.93-.47 1.06.07.02-.23 1.03-.52 1.94l.1-.42-.83 2.6.3-.46c-.5 1.36-.28.3-.68 1.62l.12.02c-.65 1.9-1.18 2.95-1.87 4.76l-3.96 11.6-.33 1c-4.04-2.54-6.68-3.63-11.96-6.53l-8.7-5.26-.84-.44-1.72-.96-2.28-1.3-.9-.5-.74.74-.73.75-.37.4c-1 1.1-1.92 2.2-2.8 3.27-.7 1.14-2.3 2.83-3.08 4.2l-.46.4c-.27.47-.6 1-.97 1.4l-.01-.05c-.4.7-.94 1.42-1.14 1.77v-.05l-.54.8.05-.17c-.7 1.22-1.48 2.42-2.17 3.5h.18c-.78 1.1-1.22 1.92-1.63 2.72-.26.5-2.45 5.78-2.76 6.33 0 0-.68 1.77-.22 1.9.33.1 2.22-1.97 2.36-2.14l.45-1.24c.64-1.1 1.45-2.76 1.95-3.7.47-.95.97-1.85 1.64-2.78-.18.01.52-.98.2-.82 1.12-2.1 2.7-3.4 2.7-4.44.6-.9.86-.96 1.2-1.4l-.13.23c1.16-1.66 1.5-2.13 2.46-3.3.42-.62.3-.9 1.2-1.88-.2.4.14-.03.46-.42-.2.26-.23.36.25-.1.04-.1.1-.2.2-.33.01 0 .03-.01.03 0 .52-.66.4-.57.13-.3 0-.03-.04-.01-.14.06.66-.58 1.6-1.83 1.8-1.78l.6-.68c.1-.1.17-.2.26-.3l.07-.08c.03 0 .05.02.08.03l.17.07.18.08.33.16 2.76 1.4c.16.2-.3.02-.86-.25l1.32.72c-.08.1-.8-.36-1.2-.57 1.45 1.08 3.32 1.64 5.04 2.86l.43.12.1.08c.02-.05.47.12.75.25.2.25-.15.22.76.73.66.5 2.06 1.1 3.03 1.6-.5-.3-.3-.27-.06-.18.45.25.66.5 1.03.66l-.03.16c-.1-.23 1.26.53 1.46.57.2.25-.75-.3-.9-.3l2.73 1.53c1.03.45-.1-.23.43-.1.87.46 1.76.84 2.7 1.48l-.24-.3c1.66.82 2.6 1.38 3.62 2.12 11.4 5.3 4.76 1.02 3.5.2.37-.97.48-1.36.68-2 .23-.76.45-1.52.74-2.34-.2.48-.4 1.12-.3.68l.54-1.52-.05.34.83-2.25-.18.3c.42-1.1.68-1.44 1.02-2.73.14-.58-.46 1.02-.08-.16a122.42 122.42 0 0 0 2.04-5.56c-.14.15.03-.36.2-.9l.1-.04c.56-2.05.4-.7.98-2.7l.02-.38c.45-1.85.47-.93.94-3-.25.8-.28.32.07-.64v.27c.16-.55.2-.73.33-1.1-.07.33.04.2.3-.6l-.1.56.37-1.54c.45-1.14.97-3 1.22-3.45 0 0 .87-2.48.95-3.08-.1.52.38-.84.33-.43.14-.67.7-2.6 1.04-3.34l-.04.15c1-2.78 1.5-4.9 2.4-7.33-.02 0-.03-.02-.03-.04-.04.03.2-.25.3-.4.12-.16.2-.27.07-.2l1.2-1.5c.83.25 1.66.53 2.5.9 1.96.83 4 2.02 5.9 3.77 1.04.52 2.83 2.47 3.5 3 .03.07.9 1.07 1.48 1.8.57.74.88 1.2-.1.1-.18-.18-.47-.53-.42-.53l-.32-.2c1.75 2.4 3.43 4.2 4.95 6.78-.4-.78-1.06-1.76-.56-1.15.47.8.96 1.58 1.4 2.4l-.37-.45c.66 1.2 1.3 2.43 1.9 3.67l-.15-.56c.85 1.84.96 2.57 2.05 4.6.5.9-.6-1.83.28.12 1 2.53 2.33 6.38 3.35 9.7.03-.35.33.54.64 1.45l-.1.14c1.24 3.48.15 1.37 1.3 4.84l.34.58c.56 1.57.6 2.02.68 2.5.1.47.15 1 .65 2.8-.3-1.43.14-.74.42 1.04l-.2-.42c.2.97.32 1.3.42 1.95-.17-.57-.23-.27.06 1.16l-.33-.93.72 2.67c.27 2.13 1.05 5.42 1.04 6.32 0 0 .76 4.53 1.14 5.53-.28-.88.14 1.62-.12.94.35 1.14 1.1 4.58 1.22 6l-.06-.26c.82 5.15 1.83 8.7 2.5 13.34.1-.24.48 2.2.55 1.57 1.07 4.72 1.25 8.73 2.13 10.34.43 2.16.35 2.6.53 3.7l-.13-.5.88 4.5.28 1.48.06.35.02.1c-.02.01-.06 0-.1 0h-.2l-.2.03c-.07.01-.07.03-.25.04l-.84.1c-.6.07-1.34.12-2.7.08.9-.1-.23-.1-1.26-.1.65-.02.86-.06-.5-.13-.07.01-.16.02-.24.03H268l-3.7-.03c-.57-.01-1.3.01-1.98.02h-.27l-7.28.12c-1.54.01-3.06-.01-4.5-.1l-.05-.03h.2c-.07 0-.14 0-.2-.01l-.2-.1c-.06-.1-.47-.02-.88.06-1.16-.03-2.35 0-3.57.03h-.06c-1.56-.05-2.98.03-4.47.1a44.99 44.99 0 0 1-2.31-.05l-.7.1a45.58 45.58 0 0 0-2.76-.07 13.14 13.14 0 0 0-1.29-.03c-1.66-.1-4.7.06-6.9.12 1.17.02.8.08.3.13-1.05 0-1.65-.1-2.46-.06l-.08-.12c-.15.12-2.8.13-3.15.2-.6-.12 1.63-.1 1.9-.2l-6.3.02c-1.2.06-1 .1-.72.14-1.95-.07-3.88-.1-5.72.06-.16-.03-.57.04-.56.07h-4.46s-9.3.03-11.05.52l-3.57.24-.32.03-.03-.37-.01-.08a.41.41 0 0 1 .02-.18c.02-.1.03-.12.04-.15a.66.66 0 0 0 0-.2c.01-.07-.01-.14.02-.2.07-.37.06-.6.06-.85-.01-.16-.06-.4-.08-.52-.06-.28-.1-.37-.17-.32s-.1.26-.14.57v.12c-.01 0-.01.02-.02.05-.02.07-.04.15-.06.23s-.05.17-.07.26c-.04.1-.03.1-.1.33-.03.08-.04.17-.07.27v.07c-.03 0-.02-.01-.1.18-.01.05-.03.12-.04.2l-.01.14v.08l-.06 1 1.14.07 2.38.1c.02.54.13 1.17.3 1.76.13.38.23.74.34 1l.18.4c1.13 2.48 2.73 3.94 4.5 5.06 1.8 1.1 3.85 2 6.76 2.72l3.25.76 2.6.4c.83.14 1.67.14 2.64.2l1.57.06 1.83-.08c2.55 0 5.25-.3 7.72-.57 1.14-.37 3.23-.42 4.58-.8l.55.02c.46-.14 1-.28 1.5-.3l-.02.04c.7-.2 1.5-.3 1.84-.4l-.02.04c.3-.05.57-.1.85-.18l-.14.08c1.2-.36 2.45-.63 3.57-.83l-.12-.12c2.4-.4 3.17-.9 5.33-1.3l-.02.04c1.27-.57 2.34-.8 3.4-1.04 1.07-.27 2.15-.53 3.45-1.14-.32.16.17.02.15.06 1.22-.47 2.54-.94 2.46-1.22.9-.3.76-.18.9-.1-.05-.12.7-.45 1.4-.72l-.3.16 1.98-.8-.47-.07c1.07-.35.37.16 1.35-.3l-.08-.18c1.26-.45 2.86-.8 5.33-1.73l1.87-.86 5.3-.04a36.78 36.78 0 0 1 2.29-.09l3.57-.01h.96c.04-.01.14.02.13-.02l-.03-.16-.24-1.27-.4-2.04-.54-2.5-.1-1.2c-.26-1.04-.53-2.27-.66-3.34l.05.06c-.38-1.55-.66-3.34-.85-4.1l.05.06-.05-.24 1.42-.1c1.13-.15 1.28-.42 3.3-.55-.64.17.18.07.93-.01-.48.07-.63.12.37.1a3.19 3.19 0 0 1 .55-.13c.01.01.05.01.03.02 1.26-.17 1.03-.2.45-.13.03-.02-.02-.03-.2-.05 1.32-.02 3.64-.43 3.82-.3 3.77-.56 6.43-1.22 9.5-1.95.37.02-.34.25-1.23.47l2.2-.5c.01.14-1.25.36-1.92.52 2.68-.33 5.35-1.42 8.42-2.13l.6-.3.18-.04c-.03-.05.63-.33 1.06-.5.46-.04.06.28 1.54-.26a6.59 6.59 0 0 0 .49-.15 14.97 14.97 0 0 0 .8-.31c.15-.06.3-.13.46-.2l.23-.1.12-.05.06-.03v-.06l-.13-1.06-.13-.87-.12-.68-.2-1.28c.08.86-.01.6-.1.23a7.66 7.66 0 0 1-.04-.43c1-.18 2.53-.57 2.53-.57 4.4-1.06 6.6-1.94 11.76-3.48 4.57-1.26 5.83-1.45 10.53-2.86l2.58-.74c.06-.05.46-.04.75-.1 1.24-.13 2.44-.35 3.6-.6 1.06-.35 2.98-.74 4.18-1.27l.5-.1c.42-.18.9-.4 1.34-.53l-.02.03c.6-.3 1.32-.57 1.6-.74l-.02.03.74-.36-.1.1c.08-.04.16-.1.24-.13.23-.05.45-.1.67-.13 1.4-.5 2.6-1.1 2.1-2.7-.1-.2-.2-.4-.6-.6-.03-.02-.07-.02-.1-.03.92-.53 1.5-1.26 1.1-2.57a1.54 1.54 0 0 0-.7-.7c-.01-.01-.03-.01-.04-.01.52-.26.92-.6 1.16-1.08zm-119.3-87.36c.01.01-.18.08-.37.26-.2.18-.34.4-.43.58-.22.3-.2-.1-.64 1.08-.37.86-.9 2.52-1.3 3.7.25-.62.2-.4.13-.13-.2.56-.4.86-.54 1.3l-.1.02c.17-.2-.48 1.5-.52 1.7-.2.3.28-.9.3-1.05l-1.3 3.35c-.4 1.2.17-.18.02.42-.4 1.05-.75 2.1-1.3 3.27l.24-.34c-.2.5-.37.94-.56 1.32-.08.15-.17.25-.26.36-.2-.38-.4-.76-.6-1.05l-.07-.3c-.15-.22-.32-.48-.4-.73h.03c-.23-.32-.4-.73-.52-.9h.03l-.23-.42.06.06a16.99 16.99 0 0 1-.95-1.76l-.05.1c-.57-1.22-.95-1.56-1.4-2.67h.03c-.9-1.23-.96-2.18-1.87-3.46.1.16 0-.1.03-.1-.35-.62-.72-1.3-.87-1.23-.24-.46-.15-.4-.12-.5-.07.04-.3-.35-.5-.7l.1.15c-.2-.36-.36-.63-.42-.95-.03.07-.06.15-.1.23-.07-.54.12-.16.05-.66h-.12c.06-.76.46-1.12.96-1.42l4.5-2.48c1.52-.84 3.1-1.7 4.48-2.3.04.01.1.03.13.05.05.08.63-.33.75-.18.1-.02.2-.02.3-.02.08.04.23.1.1.1.25.08.26.07.45.12a2 2 0 0 1 .19.22 1.82 1.82 0 0 1 .44.56 17.43 17.43 0 0 0 .47.83c.32.55.64 1.1.96 1.75.2.5.5 1.1.84 1.77h-.03zm-12.27 69.23c-.01.04-.02.1-.04.17-.04.12-.08.27-.13.44 0 .01-.01.03-.01.04-.03-.02-.06-.04-.08-.05.01-.02.01-.03.02-.05.18-.5.22-.6.25-.65.01-.01.01.02-.01.1zM249 207.34c-.28.05-.52.07-.6.01.18-.01.38-.01.6-.01zm-.7.01l-.36.05c.05-.02.18-.04.36-.05zm9.92 2.72c-.02-.04-.06-.07-.1-.1-1.46.76-.66-.03-2.12.7l-.2.27c-1.28.75-.83.04-2.24.92.6-.24.38.15-.38.38l.15-.18c-.4.18-.52.28-.8.35.23-.15.07-.2-.53.02l.36-.28-1.08.6c-.93.2-2.3.82-2.72.77 0 0-1.95.53-2.34.85.35-.23-.72.06-.46-.17-.47.27-1.93.8-2.56.83l.1-.05c-2.24.5-3.74 1.2-5.78 1.5.12.12-.96.27-.65.4-1.02.3-2 .43-2.78.55-.8.1-1.4.2-1.74.56-.95.2-1.16.07-1.65.13l.22-.07c-1.78.38-2.3.4-3.64.58-.66.14-.73.42-1.94.52.37-.16-.1-.06-.56-.03.3-.04.37-.1-.23-.1-.08.04-.2.07-.32.1-.01-.01-.03-.01-.02-.02-.75.1-.6.12-.26.1-.02.02.02.04.13.06-.8-.07-2.17.2-2.28.02-1.12.14-2.1.22-3 .3l-2.74.24c-.2-.1.23-.18.77-.23-.44.02-.9.07-1.33.05.01-.12.76-.07 1.18-.1-.8-.06-1.6-.06-2.45-.03-.85 0-1.74.1-2.65-.14l-.4.06-.1-.03c0 .06-.42.08-.7.07-.25-.15.05-.27-.86-.36-.7-.2-2-.34-2.95-.46.5.12.32.15.1.15-.45-.08-.66-.3-1-.35v-.16c.13.2-1.18-.2-1.36-.2-.2-.2.7.1.84.06-.87-.26-1.1-.33-1.3-.42l-1.25-.52c-.94-.27.1.2-.4.15-.4-.16-.77-.37-1.17-.56-.4-.2-.8-.42-1.16-.77l.17.3c-.68-.45-1.25-.78-1.65-1.22-.42-.4-.78-.78-1.06-1.26a11.85 11.85 0 0 1-2.21-2.88 12.71 12.71 0 0 1-.77-1.62l2.63.07 3.82.08c1.5.06 2.66.08 3.72.03l6.8-.07c.7.04 1.36.07 2-.03-.06.02-.1.1-.42.1 1.04-.04 2.47-.12 2.55.05 2.5-.06 5.98-.01 7.58-.3l-.1.05c.87-.18 1.16-.05 2.1-.13h.13c.05.02.1.03.1.03.1-.02.2-.03.28-.04l1-.01 2.47.02h0 .26c9.25.1 12.73.3 23.57.2h5.56c.08.1.08.06.24.01.01 0 .03-.01.04-.01h.68c-.22.06-.25.07.01.05a1.81 1.81 0 0 0 .36-.05h.25c-.67.2-1.2.3-1.63.45.16.05.03.1-.1.2zM342.53 162c-.3-.1-.4-.3-.5-.6-.2-.9 1.2-1.4 2.5-1.8.2-.1.3-.1.5-.2 1.1-.4 2-.6 2.6-.6s1 .2 1.3.6c.1.4.1.7 0 1-.2.48-.8.82-1.4 1.08-.5.1-1.03.27-1.5.42l-.2.1-.57.17c-1 .18-2.08.22-2.73-.17zm4.5 9.4c-1.2.4-2.2.5-2.7.2-.2-.1-.3-.2-.3-.4-.1-.4 1-.8 1.7-1.1.2 0 .4-.1.6-.2.8-.3 1.8-.4 2.2-.2l.1.1c.2.6.2 1-1.6 1.6zm0-2.8c-1.5.5-2.8.6-3.4.3-.2-.1-.3-.3-.4-.5-.1-.6 1.2-1.1 2.1-1.5a3.7 3.7 0 0 1 .4-.17c.6-.1 1.18-.27 1.6-.43l.4-.12c.44-.04.83-.02 1.1.12.2.1.2.2.2.2.3.8.3 1.3-2 2.1zm2.6-4.4c-.27.55-1.3.93-2.3 1.3a8.52 8.52 0 0 0-1.28.33c-1.32.26-2.77.37-3.4-.03-.2-.1-.3-.2-.3-.4-.2-1.2 2.8-2.2 3.7-2.5l.2-.1c2-.6 3-.8 3.4.4.1.4.1.7-.01 1z"/></svg>