<svg xmlns="http://www.w3.org/2000/svg" viewBox="0 0 480 480" xmlns:v="https://vecta.io/nano"><path d="M353.95 172.7c-.2-1.3-1.4-1.3-1.4-1.3s.56-1.4.05-2.02c-.7-.84-3.2-.14-5.75.22l-8.5 1.3c-1 .2 2-1.18 3.4-2.08 1.4-1 2.4-3.82-.5-2.72l-7.1 2.6c-.8.4-2.5 1.6-3.8 2.5l-1.2.9s-.9.8-4.1.9c-1.1.03-5.7.07-11.48.1l-.22-2.3c-.1-1-.2-.9-1.7-.9-4.8 0-17.6-.1-21.3-.6-4.6-.7-7.2-3.6-12.8-11.3-4.8-6.64-14.72-22.86-19.16-30.2-7.52-17.32-18.73-29.58-31.44-29.8-4.5-.27-7.85.04-10.42.78-11.47-.48-25.27 8.66-34.78 31.02-13.7 32.2-12.6 51.3-7.7 68.6s16.9 39.4 16.9 39.4l6.72-2.5 6.08 11.3s1.3 6.3 6.4 12.1c5.2 5.8 6.2 5.9 7.1 6.6.8.7 1.5-.9 1.5-.9s1.5 1.8 2.8 1.3c1.2-.5.7-1.9.7-1.9s1.48.76 2.18.16c.34-.6 0-2.05-1.2-5.9-.7-2.22-2.58-7.07-2.98-8.07s1.8 1.5 3.1 2.7 3.4.9 1.7-1.7-2.9-5-3.4-5.7-2-2.2-3.2-3.2l-1.1-1s-1-.7-1.7-3.9c-.2-.7-.5-2.5-1.7-5.9l-.63-1.87 6.23-2.33s-2.66-8.8-5.02-19.23l59.42-.07-.58-5 1.08.1c14.3 1.3 34-3.6 39.9-5.2 1.3-.3 1.6-.3 1.5-1.3l-.5-5.24 16.3-4.86s6.4 0 13.1-3.9 7-5 7.9-5.7-.6-1.6-.6-1.6 2.1-1.1 1.9-2.4zm-78.4-18.87l.3.56c.01-.03-.06-.18-.3-.56zm-15.85 54.75l-.2.01.2-.01zm.36 0l-.2.01.2-.01zm-56.2 40.92l.06.15c0-.01-.01-.02-.01-.03a.61.61 0 0 1-.05-.12zm-29.5-103.33l-.06.27c.01-.02.01-.03.01-.04.01-.08.03-.16.05-.23z" fill="#fff"/><path d="M251.6 113.52v.01l.26.22zM220.7 252.4l-.1-.22.1.22zm88.66-52.14h0l-.22.14zm-39.16-54.7l-.1-.17-.27-.3.38.48z"/><path d="M182.85 218.32c0 .01.01.01.01.02l.2.25-.2-.27zm171.55-45.74a2.35 2.35 0 0 0-.2-.6 1.58 1.58 0 0 0-.4-.53 1.35 1.35 0 0 0-.27-.2l-.14-.08-.06-.02c-.07-.03-.14-.04-.22-.05-.04-.03.03-.13.04-.2l.03-.16c-.04.08-.07.1-.1.17l-.14.22.07-.2c.05-.15.1-.37.13-.48l.06-.22c.02-.05.03-.1.03-.26-.02-.15.01-.42-.3-.85-.05-.04-.1-.1-.17-.16l-.05.1c-.33-.28-.68-.33-.97-.38-.3-.04-.58-.04-.85-.03l-1.5.1-2.9.3-5.38.84c-.13.03-.01-.06.03-.07l.16-.1.34-.2.37-.22c.05-.03.03-.01.13-.1l.3-.26a3.35 3.35 0 0 0 .5-.58c.3-.43.54-.85.67-1.45a1.52 1.52 0 0 0-.13-1.02c-.16-.33-.53-.48-.86-.55-.17 0-.36-.01-.5 0l-.4.08c-.24.06-.5.15-.7.23l-1.24.5-4.97 1.74c-.4.14-.88.34-1.25.57l-1.1.7-2.1 1.4-.4.16c-.1 0-.63.45-1.14.9l-.04.03c.01.01-.14.12-.24.16l-.33.16c-.2.1-.4.13-.47.12-.3.1-.63.2-.96.25-.28.02-.9.06-.4-.03l-1.65.16-1.04-.06c-3.15-.02-5.93.1-9.05.12l-.12-1.65c-.03.05-.06-.03-.1-.17l-.04-.25-.1-.46c-.2-.6-.72-.9-.5-.6-.27-.24-.6-.32-.94-.36-.35-.03-.74-.01-.97-.01-.43 0-.84-.01-1.25-.01l-2.24-.1c-1.36-.05-2.43-.06-3.1.22-1.65.01-1.95-.16-2.8-.2l.4-.02-6.26-.1c-1.14.01-1.33.28-3.37.1.66-.07-.17-.1-.93-.14.5.01.64-.01-.35-.15-.14.02-.36.02-.56.02-.01-.01-.05-.02-.03-.03-1.23-.1-1.02-.04-.45.04-.03.01.01.04.2.1l-2.18-.5c-.7-.22-1.22-.5-1.25-.6-1.6-.76-2.82-1.8-3.9-2.87-1.1-1.07-2.08-2.18-3.08-3.42-.15-.34.37.2.98.9l-1.4-1.76c.12-.07.85 1 1.3 1.5-1.48-2.23-3.54-4.3-5.15-7l-.46-.48-.1-.17c-.04.04-.5-.5-.78-.9-.15-.44.24-.12-.63-1.43-.6-1.1-1.97-2.92-2.9-4.26.45.75.25.55.01.25-.43-.66-.57-1.1-.94-1.6l.1-.15c.03.27-.74-.9-1.18-1.5-.46-.45-.88-.7-1.17-.52-.4.24-.15 1.2.33 2.33l1.1 1.7 5.2 8.27a83.29 83.29 0 0 0 6 8.1c1.4 1.65 3 3.38 5.17 4.57 1.07.6 2.25 1 3.42 1.2 1.2.2 2.26.25 3.3.3 2-.1 5.47.22 7.8.1l.9.14c.8-.05 1.75-.07 2.55 0l-.05.03 3.14-.05-.05.03h1.46l-.25.05a110.46 110.46 0 0 1 3.14-.07h.52c.05 0 .1 0 .16.03.04.03.04.1.05.15l.05.6.13-.2.83 9-.04-.04c.82 4.48.44 7.16 1.26 11.8-.1-.58-.05.25-.1.2l.38 3.03c.16 1.02.2.95.32 1.12-.12.2-.3.18-.38.2-.1.02-.14.01-.23.01-.15 0-.14-.05-.26-.08.02.1-1.3.53-2.5.84l.54-.2-3.45.9.74.07c-1.86.37-.53-.17-2.28.3l.07.2c-2.56.53-4.12.56-6.63.9-5.16.93-10.52 1.85-15.84 2.26-2.66.24-5.3.28-7.87.2-1.05-.06-2.1-.15-3.13-.25-.45-2.5-1.2-5-1.42-7.6-.34-1.48.4 1.3 0-.94.15-.1.24 1.03.3.44-.36-2.2-.32-3.63-.8-6.33l.1-.13c-.7-3.5-.77-6.7-1.33-9.02-.64-3.63 0-2.5-.8-6.26l-.07-1.5c-.23-1.63-.4-1.13-.6-2.94.13.1-.28-2.3-.01-1.25-.52-4.1-1.6-8.22-2.38-13.6-.4-1.12-.88-3.83-1.2-4.66.1-.17-1.26-5.36-.34-2.4.08.25.2.7.14.7l.2.33c-.5-3.02-1.42-5.38-2.3-8.24l-3.55-9.62c.02.22.55 1.62-.15.03-1-2.6-2.7-6.46-4.47-9.6.04.36-.43-.48-.97-1.3l.05-.16c-2.17-3.13-.48-1.36-2.7-4.4l-.54-.45c-1.1-1.32-1.36-1.7-1.6-2.14-.27-.43-.58-.9-1.95-2.24 1 1.12.26.7-.92-.7l.4.27c-.7-.75-1-.95-1.43-1.46.46.4.37.1-.73-.95l.83.6c-.73-.62-1.45-1.25-2.22-1.82-.78-.8-1.87-1.7-2.9-2.45-1.02-.76-1.96-1.36-2.3-1.66 0 0-1-.66-2.22-1.25-.6-.3-1.26-.57-1.83-.8-.58-.2-1.07-.35-1.35-.4.97.2-1.6-.65-.82-.55-.3-.07-.78-.16-1.33-.24a26.78 26.78 0 0 0-1.82-.25c-1.3-.13-2.56-.14-3.28-.23h.27c-1.2-.06-2.33-.12-3.42-.05-2.15-.25-4.45.05-6.17.28-2.45.34-4.85.66-7.12 1.34-4.5 1.4-8.94 3.96-13.82 8.7-2.17 2.06-3.76 3.9-5.1 5.6-.7.84-1.3 1.65-1.86 2.46-.6.8-1.1 1.6-1.64 2.38-2.06 3.2-4 6.58-6.36 12.24a175.66 175.66 0 0 0-6.05 16.63c-.27 1.33-.8 3.12-1.32 4.98-.45 1.88-.96 3.8-1.2 5.4l-.36 1.2c-.14 1.1-.4 2.37-.62 3.46l-.02-.07c-.15 1.65-.5 3.48-.54 4.3l-.03-.07-.2 2v-.35l-.16 2.17-.1 2.16-.1 2.1-.03 2.02.15-.22c-.05 1.4-.05 2.58.02 3.63.07 1.06.1 2 .2 2.9l.3 2.8.4 3.3-.04-.06 1.76 8.07c.58 2.47 1.2 4.98 2.45 8-.3-.76.04.36-.01.3 1 2.84 2.2 5.83 2.5 5.76.8 2.04.57 1.7.57 2 .1-.06.88 1.68 1.54 3.25l-.34-.7 1.97 4.48-.17-.97c1 2.4 0 .72 1.07 2.96l.16-.1c1.45 3.28 2.08 5.3 3.47 8.5l2.26 4.53 1.18 2.27 1.23 2.3.13.24.07.12.65-.25 19.55-7.5 2.4-.9.43 1.1.18.83c.28.9.33.6.6 1.6-.07-.04.3 1.27.1.7l.82 3.24c.16.58.35 1.2.6 1.8.13.3.27.63.45.95a6.3 6.3 0 0 0 .3.48c.13.17.2.3.48.53l-.06-.05.54.53c.6.38 1.7 1.43 2.12 1.72.01.05.56.6.92 1 .35.4.55.65-.06.06-.1-.1-.3-.3-.26-.3l-.2-.1.8.93c.12.15.24.28.33.4l.3.47c.42.66.86 1.35 1.3 2.12-.24-.47-.6-1.07-.32-.7l.82 1.43-.23-.26a65.3 65.3 0 0 0 1.25 2.12l-.12-.33.4.68c.08.18.18.35.24.52.15.3.25.74.24.76-.02.07.05.05.1 0 .02-.05.1-.08 0 .1-.05.04-.13.06-.2.06-.1-.01-.27-.03-.44-.1-.36-.14-.6-.37-1-.77l-1.72-1.78c-.34-.34-.68-.66-.93-.82a1.33 1.33 0 0 0-.57-.21c.1.08.05.1-.04.1-.05 0-.1 0-.17.01-.03.01-.08.01-.14.06-.04.04-.04.07-.04.1-.01-.01-.02-.01-.03-.01.78 2.32.14.7.9 3l.2.46c.76 2.04.2 1.05 1.1 3.3-.3-.87.01-.4.33.65l-.15-.26c.2.6.3.78.4 1.17-.15-.35-.15-.15.13.7l-.27-.55.6 1.53c.3 1.2.9 3.06.82 3.52a7.76 7.76 0 0 0 .02.26c0 .06.01.2 0 .23a.31.31 0 0 1-.02.08c-.03.06-.07.07-.2.08-.1.01-.2-.01-.34-.03-.15-.03-.3-.08-.47-.13l-3.92-7.17c-.13-.24-.44-.33-.68-.2s-.33.44-.2.68l3.87 7.07c-.05.05-.1.06-.02-.03-.07.08-.14.18-.36.4.03.13.04.24.05.37 0 .15-.02.18-.02.2-.01.06-.03.12-.06.16a.62.62 0 0 1-.32.24c-.26.1-.7-.08-.9-.26.04.02.07.04.1.05-.1-.06-.22-.13-.32-.2-.05-.03-.1-.08-.15-.12l-.2-.18c-.2-.2-.42-.43-.63-.66l-3.5-5.66a.49.49 0 0 0-.69-.16.5.5 0 0 0-.16.69l3.34 5.42c-.1.2-.2.4-.33.57-.08.1-.07.1-.1.1-.01.01-.03.02-.05.02-.05 0-.01.02-.25-.14l-.63-.4c-.78-.5-1.5-1.12-2.24-1.87.02.15-.95-.87-.78-.55-2.05-1.9-3.3-3.85-4.2-4.4-.78-1-.84-1.24-1.18-1.78l.18.24c-1.33-1.93-1.65-2.55-2.42-4.1-.4-.77-.62-.83-1.16-2.3.24.45 0-.14-.2-.7.14.35.2.45-.02-.3a5.59 5.59 0 0 1-.18-.4c0-.01 0-.04.01-.02-.3-.92-.27-.76-.15-.32-.02-.02-.02.02.01.16l-.32-1.34c-.12-.25-.17-.32-.25-.47-.3-.53-.52-.97-.5-1.05-1.12-2.04-2.05-3.6-2.97-5.22-.34-.44-.8-.94-1.08-.83-.2.08-.15.56-.02 1.1a22.16 22.16 0 0 1 .38.7l3.3 6.05c.07.12.02.02.04.1l.08.32c.22.84.5 1.63.8 2.4.63 1.42 1.7 3.96 2.8 5.46l.32.64c.4.5.8 1.1 1.18 1.64l-.04-.02 1.6 1.9-.04-.01.77.83-.15-.12 3.37 3.42-.03-.15c.97.98 1.8 1.64 2.6 2.14.2.13.36.22.57.37.2.16.62.4.98.3a1.42 1.42 0 0 0 .53-.2 2.22 2.22 0 0 0 .37-.33.69.69 0 0 0 .13-.2c.03.01.06.07.1.1.05.06.02.04.15.15l-.05-.01c.65.45 1.4.88 2.3.77a1.93 1.93 0 0 0 1.13-.6c.14-.17.26-.36.33-.56.04-.08.07-.23.08-.26v-.07c.01-.07 0-.13-.01-.2.03 0 .13.06.18.08l.06.02c.02.01.02.01.13.03a2.84 2.84 0 0 0 .62.04c.54-.06 1.18-.3 1.25-.93.03-.15.06-.3.06-.45.01-.13 0-.22-.01-.32-.02-.2-.05-.4-.1-.6a13.02 13.02 0 0 0-.3-1.15c.14.45 0-.2.02-.17-.47-1.66-1.04-3.4-1.2-3.34-.35-.95-.23-.77-.2-.87-.08 0-.42-.83-.7-1.58l.17.36-.8-2.13c-.03.04-.06.1-.1.16-.37-1.12.2.05-.26-1.1l-.23-.28c-.14-.4-.24-.72-.32-1-.02-.14-.12-.28-.02-.28.13.08.23.2.32.3.38.44.6.77.76 1l.33.33c.14.14.27.27.43.4a3.28 3.28 0 0 0 1.22.7c.24.07.5.1.8.1.33-.03.65-.15.9-.38.22-.24.37-.55.38-.88.02-.18 0-.3-.03-.44-.02-.14-.05-.26-.1-.37-.14-.46-.37-.82-.6-1.18l-.63-.97-1.2-1.97-1.17-2c-.2-.33-.4-.7-.7-1.03-.26-.32-.53-.6-.8-.9-1.08-1.14-2.3-2.1-3.4-3.1l-.05-.04c-.07-.06-.26-.28-.36-.46-.13-.2-.23-.4-.34-.63-.2-.44-.36-.9-.5-1.38-.26-.95-.44-1.93-.66-2.9v-.35c.1-.18-.76-2-.75-2.3l-.34-.83c-.06-.24-.2-.76-.04-.34-.27-.8-.28-.78-.5-1.33l-.04-.17 1.22-.46 5.3-1.92-.63-2.22-.37-1.42-.02-.6c.13-.3-1.3-3.46-1.23-4l-.5-1.48c-.07-.43-.27-1.33-.02-.6-.36-1.4-.4-1.42-.7-2.4l-.25-1.53-1.12-4.73 1.2-.06c.6.3 4.56.02 5.86.12l-.12.02c3.4-.23 6.97.18 10.23-.03-.13.02-.2.1-.95.1 2.38-.04 5.63-.1 5.8.06 5.68-.05 13.6.02 17.24-.25l-.25.05c2.07-.18 2.68-.03 5-.12.13.02.3.03.26.04 2.26-.18 6.6-.04 8.42-.1l.12.1 4.86-.03-2.04-.02c.15-.08.43-.1.83-.1l2.14.06c.1-.01.26.03.32-.01l-.03-.34-.06-.72-.14-1.46a36.19 36.19 0 0 0-.28-2.07c1.25.08 2.57.18 4 .32.45-.1 1.18-.1 1.9-.1.7-.03 1.38-.06 1.7-.14.1.12 4.1-.2 1.8.14-.2.03-.55.05-.52.01l-.27.13c1.17.06 2.22-.04 3.27-.17 1.04-.15 2.08-.32 3.22-.42-.68.04-1.58.12-1-.02.7-.05 1.4-.14 2.12-.2l-.43.15 3.15-.34-.45-.07c1.54-.15 2.12 0 3.8-.46.76-.22-1.47.06.13-.24 2.06-.24 5.13-.67 7.72-1.18-.27-.1.43-.23 1.13-.4l.1.1c2.7-.78 1.07.06 3.74-.7l.44-.28c2.37-.84 1.4-.06 4-1.1-1.05.3-.56-.13.74-.43l-.3.2.82-.25c.34-.1.63-.17.97-.35-.27.2-.36.25-.14.2.1-.04.3-.1.5-.28s.4-.5.47-.94c-.01.4-.15.83-.45 1.13.46-.4.58-1.03.5-1.63l-.2-1.08c-.02-1.16-.24-2.8-.32-3.9 1.5-.44 3.13-.9 4.38-1.34l.82-.17c.7-.24 1.53-.52 2.25-.7l-.04.03c1.05-.37 2.25-.7 2.77-.88l-.04.03 1.3-.4-.2.1 2.77-.9 1.36-.4c0-.02.3-.01.53-.03l.7-.04-.16-.07c1.92-.13 3.2-.43 4.4-.74 1.2-.33 2.37-.68 4-1.26l-.04.04a56.9 56.9 0 0 0 5-2.58c1.5-.86 3-1.72 4.73-3.2-.43.37.22-.1.2-.07.4-.33.8-.7 1.17-1.06l.5-.5c.12-.14.32-.27.56-.56.4-.57.14-1.2-.12-1.47a1.68 1.68 0 0 0-.3-.28c.15-.08.14-.05.25-.08-.03-.03.24-.24.6-.63.17-.2.37-.44.5-.76.15-.3.22-.75.14-1.1.06.2.06.48.02.7.08-.2.08-.43.04-.65zm-91-34.03c.22.86.52 1.83.23 1.12-.14-.5-.3-.98-.45-1.48a3.13 3.13 0 0 0 .22.36zm9.3 68.27l-.26.01-3.7.06-6.65.13c-10.82.33-23.4-.5-34.48-.13-.18-.01-.5-.01-.78.01s-.5.04-.5.05l-10.94-.02c-.74-3.06-1.44-6.1-2.02-9.6-.46-3.54-1.26-8.64-1.38-13.77-.08-5.1 1.35-10.2 2.7-13.78 1.85-5.1 4.73-10.27 7.9-15.28 2.2-3.55 4.75-9.17 6.9-12.65 0 0 2.06-4.44 1.2-3.9-1.2.75-2.7 4.48-3.17 5.35.05-.12.02-.22.42-.87-1.25 2.05-2.96 4.86-3.2 4.92l-4.94 8.16c-1.6 2.78-2.93 5.4-3.63 7.14l.07-.25c-.4.98-.7 1.6-1 2.25s-.66 1.3-1.07 2.42c-.07.1-.14.26-.14.23-.82 2.16-2.34 6.33-2.7 8.18l-.13.1-.48 2.27-.3 2.3.25-1.72c.12.32-.06 1.18-.26 2.4-.1 1.22-.3 2.8-.08 4.47.06 3.15 1.14 6.23 1.46 9.43.4 1.5-.45-1.3.03.95-.15.1-.27-1.04-.3-.44.42 2.22.45 3.68 1.07 6.4l-.1.14c.94 3.5 1.26 6.73 2.03 9.03.97 3.6.23 2.52 1.42 6.24l.22 1.5c.4 1.62.5 1.1.9 2.9-.14-.08.54 2.27.15 1.26.18.77.4 1.55.6 2.33l.3 1.04.14.4-.2.1-.08.03-.75.3-2.05.8a86.61 86.61 0 0 1-4.52 1.58c-1.04.6-3.68 1.46-4.45 1.92-.17-.03-5.2 1.93-2.35.66.24-.1.7-.27.67-.23l.3-.24c-3 .88-5.28 2.1-8.2 3.16.87-.28 2-.72 1.28-.36l-2.7 1 .52-.3-4.04 1.45.6-.1-.36.12c-.1.03-.27.1-.26.08-.05.01-.1.01-.14.01-.1.03-.1-.1-.1-.15-.02-.05.01-.02-.04-.13-.1-.17-.18-.35-.28-.55a35.73 35.73 0 0 0-.76-1.31c-.58-.9.76 1.84-.3-.1l-4.44-9.57c.01.36-.4-.5-.84-1.4l.06-.16c-1.75-3.35-.35-1.38-2-4.72l-.44-.55c-1.56-3.02-.5-1.77-2.25-5.12.6 1.37.01.75-.64-.96l.3.38c-.4-.93-.57-1.23-.8-1.86.28.54.28.23-.28-1.15l.5.87-1.22-2.55c-.65-2.07-1.9-5.28-2-6.18l-.7-2.36c-.4-1.24-.74-2.62-.98-3.1.35.87-.26-1.6.05-.94-.2-.57-.52-1.7-.82-2.9a26.37 26.37 0 0 1-.55-3.12l.07.26c-.76-5.18-1.37-8.88-1.22-13.6-.14.2-.07-2.27-.25-1.66.01-1.22.07-2.4.14-3.48s.25-2.1.35-3c.2-1.83.45-3.25.3-4.17.28-2.22.56-2.6.8-3.7l-.07.53c.72-4.1 1.1-5.28 1.83-8.3.37-1.5.2-1.8 1.02-4.47-.14.9.12-.2.47-1.2-.2.64-.22.84.28-.43.03-.2.1-.48.17-.75.01-.01.03-.06.04-.03.5-1.66.38-1.4.12-.62 0-.04-.04.01-.15.24.35-.84.73-2.03 1.08-3.04.37-1 .68-1.8.8-1.87l1.22-3.47 2.28-6.07 1.23-2.93c.3-.4-.06.55-.54 1.72.4-.94.8-1.9 1.26-2.8.1.08-.7 1.62-1.05 2.5 1.7-3.24 3.1-6.9 5.58-10.42l.4-.8.15-.2c-.05-.02.43-.85.8-1.38.46-.42.16.16 1.44-1.52 1.06-1.3 2.95-3.72 4.46-5.3-.86.8-.63.5-.3.12.76-.74 1.26-1.1 1.84-1.67l.14.04c.01-.08.42-.5.9-.94.6-.52 1.3-1.08 1.42-1.23.54-.28-1.23 1.1-1.37 1.33 1.63-1.34 2.07-1.63 2.5-1.93s.84-.63 2.65-1.7c1.92-1.17-.43.06.45-.57 1.74-.96 3.5-1.86 5.75-2.37-.25.01-.5.05-.73.07 1.8-.58 3.3-.88 4.64-.96 1.35-.13 3.3-.73 4.55-.56l2.2-.34c1.2-.01 2.84.07 3.96.12h1.2c1.54-.05 1.85.25 3.08.4 1.24.14 2.12.8 3.24 1.2 2.17.8 4.15 1.97 6.7 3.56-.16-.08.4.38.35.37 2.36 1.64 4.54 3.84 4.78 3.67 1.47 1.53 1.13 1.3 1.24 1.58.08-.1 1.37 1.23 2.4 2.53l-.52-.56c1.03 1.2 2 2.47 2.93 3.75l-.36-.9c1.42 2.1.14.7 1.56 2.65l.15-.13c1.88 2.97 2.64 4.9 4.06 7.98 3.13 6.3 5.77 13.14 7.6 20.1 1.8 6.97 3.07 14 4 20.53l-.05.6c-.16.28.9 3.55.78 4.08l.34 1.5c.03.43.13 1.34-.04.6.2 1.4.25 1.43.46 2.44l.1 1.53c.73 5.56 1.65 10.25 2.38 16.1.33 3.53 1 8.6 1.66 13.74l.12.9.06.4-.12.02zm79.52-30.47c-.1.05-.3.24-.44.38l-.45.44a15.01 15.01 0 0 1-.95.84c-.64.52-1.24.94-1.5 1.07l-1.4.9c-.74.48-1.56 1-1.84 1.23.5-.4-1 .48-.62.16-.66.52-2.72 1.7-3.66 1.95l.16-.08c-1.63.66-3.06 1.16-4.47 1.55-1.4.38-2.8.68-4.4.77.08.04-.3.08-.64.1-.08.01-.17.01-.24.02-.04.01-.24 0-.3.04-.16.06-.2.1-.02.07-3.25 1.1-5.94 1.56-7.02 2.24-1.46.45-1.76.44-2.52.65l.34-.12-5.57 1.67-.4.14c-.06-.8-.28-3.37-.5-4.02.18.7.04-1.24.23-.7-.22-.9-.58-3.55-.55-4.64l.04.2c-.2-3-.57-5.26-.83-7.73.18 0 .36-.01.55-.01l.08.07c2.45-.15 4.63.08 6.26-.07 2.54-.1 1.68.25 4.36-.02a12.89 12.89 0 0 0 1.07-.02c.6-.1.8-.18 1-.26.22-.1.45-.15 1.1-.44 0 .01.1.01.37-.2l-.04.03c.34-.23.87-.6.48-.27l3.57-2.5c.32-.2.63-.4.96-.58.3-.15.7-.3 1.08-.42.8-.27 1.63-.53 2.53-.8.73-.37 2.53-.96 3.06-1.28.02.01.27-.1.54-.17.28-.1.62-.14.68-.1.1.02.15.12.14.13-.01.03-.04-.05-.17-.05-.04 0-.15.01-.18 0l-.18.1c.1 0 .23-.03.26-.03.03.01.06.01.07.02.02.01.04.03.04.06.03-.05-.07.4-.26.74-.2.35-.43.66-.76.9-.74.48-1.57.9-2.43 1.38 1.08-.55 2.36-1.27 1.56-.77-.95.53-2.3 1.18-2.46 1.5.01-.06.01-.13.07-.2-.16.13-.2.23-.3.33a1 1 0 0 0-.18.25.76.76 0 0 0-.06.2c0 .03-.01.06-.01.1 0 .08.05.1.06.1-.01.04-.02.07-.02.1 0 .02-.03 1.8-1.73 3.58-1.94 2.03-4.16 1.56-4.26 1.54a.49.49 0 0 0-.6.37c-.06.27.1.54.37.6.04.01.38.1.9.1 1.02 0 2.75-.3 4.3-1.9 1.98-2.06 2-4.18 2-4.26s-.02-.16-.06-.23c1.12-.1 1.67-.1 3.28-.3.82-.12-1.4.08.24-.1 1.96-.2 5.22-.35 7.5-.8-.24-.05.4-.16 1.04-.24l.08.07c.86-.12 1.14-.03 1.27.02.12.06.12.12.12.14-.04 0 .1.05-.01.72v.04c-.01.08-.03.16-.04.25l-7.94 2.3c-.3-.6-.53-1-.56-1.03a.5.5 0 0 0-.69-.15.5.5 0 0 0-.15.69c.01.02 1.14 1.77 1.4 3.86l.42 3.7a.5.5 0 0 0 .5.45h.05c.27-.03.48-.27.45-.54l-.27-2.44 6.67-2.03c.1.08.26.2.36.33-.08-.06-.27-.18-.42-.25a2.7 2.7 0 0 1 .44.32c.07.01.08.12-.01.2zm1.06-2.97c-.03.12-.2.46-.68.8.06-.08.12-.16.17-.24-.42.4-.63.54-.94.7l-.03.01v-.01c.13-.1.12-.12-.03-.06l-.63.26-6.1 1.86c-.01-.1-.02-.2-.04-.3-.1-.86-.34-1.66-.6-2.33l7.9-2.27c.04-.01.07-.04.1-.06.08.1.17.18.26.3l.2.06c.04.01.05.02.07.03.04.02.06.04.1.06.05.04.08.08.1.12a.7.7 0 0 1 .09.24c.02.08.05.25.06.35 0 .12-.03.35-.3.72.25-.32.3-.37.28-.25z"/></svg>