<svg xmlns="http://www.w3.org/2000/svg" viewBox="0 0 480 480" xmlns:v="https://vecta.io/nano"><path d="M269.65 191.34h-.27.27zm.27-38.16c.07-.05.1-.07.1-.08-.03.03-.06.06-.1.08zm-3.85 56l.26-.01h-.04l-.22.01zm-78.3 11.1l.1.22c-.01-.02-.01-.03-.01-.04l-.08-.18zm157.27-42.22l.2-.87c.64-.3 1.06-.82 1-1.74-.04-.7-.57-1.08-1.25-1.3-.05-.03-.1-.08-.15-.1-.04.01-.08.01-.12.02-.95-.25-2.1-.22-2.58-.22-.4.05-1.2-.01-1.95.08l-2.55-.28c-1-.1-.4-1.7 0-3.4.7-3 1.6-5.3.1-6.6-1-.8-2.4 1.9-4.3 4.8-.5.7-1.2 1.5-2.9 2.6-1.2.8-2.1 1.8-2.1 1.8s-1.1.6-4.2.1c-3.2-.5-35.2-7.1-39.8-8.4-5.12-1.34-11.7-7.25-15.35-11.72l7.35-4.48s-9.1-15.3-15.8-25.3c-4.83-7.2-14.28-18.1-25.1-20.33-2.92-1.46-6.23-2.47-10-2.87-2.87-.22-5.63-.54-8.44.25-15.26-2.33-23.8 14.84-28.26 25.45-4.9 11.4-11 28.5-11 28.5l5.62 2.1c-4.1 11.8-4.77 16.37-5.12 22.7-.5 8.3 1.4 16.3 6 29.8 2.97 8.78 8.7 23.28 12.37 32.44a1.78 1.78 0 0 0-.87 1.96l1.1 4.5c.3.9 1.2 1.5 2.1 1.2l.44-.12c.17.3.35.55.56.72.01.01.02.01.02.01a1.42 1.42 0 0 1 .08.2s.6 6.4 5.1 12.7 5.9 7.43 6.77 7.52c1.17.22 1.13-1.02 1.13-1.02s1.9 2.1 3.2 1.7c1.3-.3.58-2.26.58-2.26s1.14 1.2 1.84.7-.08-2.74-.8-5.26c-.58-2.07-1.63-7.98-1.93-9.08-.2-1 2.28 2 3.48 3.4s2.62 1 1.22-1.8-2.3-5.3-2.8-6-1.8-2.4-2.8-3.5l-1-1.1s-.24-.23-.53-.88l.43-.12c.8-.3 1.3-1.1 1.2-1.9l-1-5c-.1-1-.7-1.6-1.6-1.2l-.32.1-2.6-28.6h59.83l-2.77-17.5c4.84.38 10.58.3 17.47.1 14.3-.4 43.7-3.2 43.7-3.2s4.9.48 11.3-.64a6.93 6.93 0 0 0 1.3.04c1.8 0 2.4-.4 2.4-1.5 0-.38-.36-.64-.86-.8.07-.07.15-.14.26-.2.02-.01.04-.04.06-.05 1.4-.14 1.94-.6 1.94-1.75 0-.3-.22-.54-.55-.73l.18-.45c1.12-.16 1.93-.6 1.86-1.8-.04-.72-.34-1.14-.8-1.4z" fill="#fff"/><path d="M238.9 102.35c.01 0 .01 0 .02.01l.2-.01h-.23zm17.57 38.37h0l-.16-.3zm-20.67-14.26l-1.07 6.16-.22 3.6c-.13.28-.13-.33-.1-1.1l-.18 1.86c-.13-.03.06-1.07.1-1.65-.22 1.1-.33 2.23-.4 3.42-.14 1.2-.25 2.43-.6 3.7v.55l-.05.15c.06 0 .02.6-.03.98-.2.34-.24-.08-.5 1.2-.32.98-.55 2.86-.8 4.18.18-.7.2-.46.16-.15-.15.63-.34.97-.4 1.47l-.17.02c.2-.2-.26 1.68-.26 1.93-.2.33.15-1 .1-1.18l-.96 3.78c-.24 1.37.2-.2.17.47l-.98 3.7.26-.4c-.53 2.25-.94 3.57-1.53 5-2 8.38-2.06 9.34-1.4 8.25.65-1.1 1.8-4.32 1.8-4.32 2.32-6.4 2.96-9.9 4.8-17.78l1.87-7.9a80.67 80.67 0 0 0 .65-3.6c.18-1.33.37-2.85.52-4.67.24-2.22.43-4.55.52-6.86l-.22-1.57-1.03.75zm41.6 34.84l-.37-.28.37.28z"/><path d="M208.96 197.7l.08-.6v-.02l-.08.63zm136.32-20c.33-.13.63-.3.85-.56.4-.4.5-.9.5-1.5 0-.65-.33-1.1-.8-1.4a1.7 1.7 0 0 0-.26-.43c-.1-.1-.22-.2-.35-.26l-.2-.1c-.07-.01-.14 0-.2 0-.14 0-.28.01-.42.03h-.26c-.32.03-.66.03-1 .03-1.36-.03-2.76-.2-4.18-.37l-1.07-.1c-.1.01-.2-.06-.2-.17-.01-.04 0-.02 0-.1v-.22l.08-.48.24-1.02.97-4.23c.1-.74.2-1.54-.08-2.38a2.66 2.66 0 0 0-.72-1.13c-.1-.12-.23-.18-.36-.25-.12-.08-.26-.1-.4-.12-.28-.02-.57.08-.8.23-.77.56-1.1 1.16-1.55 1.75l-1.16 1.8-1.13 1.72c-.4.5-.9.96-1.42 1.37-.52.42-1.1.75-1.7 1.2a7.95 7.95 0 0 0-.82.7l-.4.36-.3.3a.3.3 0 0 1-.1.04l-.2.06-.45.08a7.46 7.46 0 0 1-.95.05 12.48 12.48 0 0 1-1.93-.18l-3.85-.77-.54-.2c-.22-.17-3.55-.5-4-.73l-1.5-.24c-.4-.1-1.28-.3-.54-.2l-2.4-.43-1.45-.38-15.66-3.23-6.03-1.4-3.5-.84c-1.18-.3-2.3-.7-3.4-1.3-2.2-1.12-4.25-2.64-6.08-4.15l-2.4-2.14c-.22-.14-.48-.23-.7-.07-.1.1-.13.3-.1.6l2.4 2.2.05.13 2.2 1.73c.3.1.93.64 1.9 1.3.96.67 2.25 1.5 3.8 2.07 1.44.6 2.97.8 4.47 1.08l4.55.9c1.47.23-1.3-.14.87.27.05.1-1.02-.16-.48.03l6.1 1.35.1.1 8.76 1.8c3.55.67 2.33.7 6.04 1.32l1.4.4c1.58.34 1.16.1 2.9.5-.12.04 2.2.5 1.17.35l4.62.9c.8.14 1.66.27 2.55.3a10.67 10.67 0 0 0 1.38-.02c.24-.02.48-.05.73-.1.12-.02.25-.05.38-.1.1-.03.35-.1.5-.2.94-1 1.67-1.5 2.87-2.26.45-.4 1.25-1.03 1.87-1.82.62-.8 1.02-1.56 1.23-1.95.06-.04.77-1.2 1.3-1.93.55-.72.88-1.1.07.05l-.4.54-.13.34 1.25-1.64a1.86 1.86 0 0 1 .29-.28l.1-.08c.02 0 .04-.01.05 0 .01 0 .02.01.02.01.02.02.1.07.1.12.62.68.42 2.1.07 3.5.25-.85.4-1.94.32-1.2-.15.87-.4 1.76-.63 2.67l.08-.58-.77 3.04-.1.57-.03.3c0 .1-.01.32.02.45-.03-.4.04-.6.1-.8a6.29 6.29 0 0 0-.05.43 1.11 1.11 0 0 0 .01.26c-.27.86-.9 2.78-2.15 3.87-.8.7-2.8 1.1-2.8 1.1-.3 0-.5.2-.5.4 0 .3.2.5.4.5.05 0 .6-.07 1.26-.27 1.7 3.5.04 5.27-.06 5.37-.2.2-.2.4 0 .6.1.1.2.1.3.1s.2 0 .3-.1 2.1-2.22.3-6.26c.46-.2.92-.42 1.3-.74 1.37-1.28 1.97-2.84 2.2-3.55.05.03.1.07.16.1.62.16.85.16 1.1.2-.24.24-.4.55-.45.97-.1.5 0 1 .4 1.4.3.3.68.5 1.12.7-1.2.23-2.26.72-2.42 1.8 0 .4.1.8.4 1.1.23.28.56.5.96.7-.74.15-1.3.47-1.36 1.2 0 .5.2.9.5 1.3.2.22.45.4.74.54-.7.13-1.28.4-1.34 1.16 0 .4.1.8.4 1.1l-1.83.28c1.47-.2.74.08-1.03.2l.44-.1-1.95.16c.58-.07.3-.1-1.13-.06l.96-.12a48.9 48.9 0 0 1-2.7.17l-1.73-.1h-.28l-.3.03-.47.04-.93.1-2.7.2-5.57.56c.9-.15-1.6.04-.9-.1-1.17.18-4.64.54-6.03.57l.26-.03c-5.15.33-8.8.82-13.4 1.03.22.08-2.23.2-1.62.26-4.77.43-8.72.28-10.43.68-2.17.1-2.58 0-3.7.02l.52-.03-8.3.15c-1.5.02-1.75.2-4.45.07.88-.03-.23-.06-1.24-.1.65.02.85.01-.48-.1-.1.01-.23 0-.36 0-.47-2.45-.87-4.94-1.2-7.16l-.1.23c-.7-5.3-1.32-7.17-1.92-11.96l.05.06c-1.2-5.1-1.33-8.46-2.28-13.17 2.03-1.25 3.98-2.48 5.04-3.32l-.1.12c.76-.63 1.18-.8 1.86-1.24l.8-.5-.02-.02c.04-.01.06-.02.06-.01 1.08-.87 3.4-2.1 4.32-2.76l.12.06 2.93-1.82-1.36.8c.06-.13.25-.27.55-.45a17.04 17.04 0 0 1 .53-.3l.16-.1c.03-.03-.04-.1-.05-.14l-.17-.33c-.12-.24-.26-.5-.4-.75l-.4-.75a10.07 10.07 0 0 0-.77-1.2c-.93-1.6-2.5-2.9-3.37-4.62-.6-.7.62.57-.2-.55.1-.12.42.5.34.13-.77-1.1-1.02-1.98-2-3.34l.07-.12c-1.34-1.73-2.03-3.58-2.98-4.7-1.28-1.85-.5-1.47-1.95-3.32l-.35-.86c-.52-.86-.56-.5-1.1-1.47.13 0-.7-1.22-.26-.73-1.24-2.2-2.95-4.17-4.77-7-.6-.46-1.56-1.84-2.03-2.16.03-.14-2.2-2.56-.8-1.27.12.1.3.33.27.34l.24.1c-1.08-1.6-2.4-2.52-3.72-3.88.37.43.9.95.5.66l-1.24-1.25.34.18c-.6-.63-1.25-1.23-1.9-1.83l.18.34c-.92-.9-1.13-1.37-2.4-2.13-.58-.33.85.9-.24.08-1.3-1.13-3.36-2.73-5.33-3.8.12.22-.4-.06-.98-.3v-.14c-2.23-.82-.67-.66-2.92-1.38-.16.01-.3.01-.47.03-1.06-.2-1.3-.35-1.6-.47-.3-.1-.6-.3-1.76-.3a32.54 32.54 0 0 0-6.44-2.22l-.55-.27c-.1-.13-1.05-.18-2-.24-.96-.05-1.9 0-2.15-.13h-1.53c-.43-.06-1.36-.1-.58-.15-1.45-.03-1.5.02-2.54.17a12.41 12.41 0 0 0-1.6.11c-.2.04-.42.1-.63.15-.66-.08-1.35-.13-2.13-.1.52-.02-.22-.1-.18-.12-1.93-.03-3.96.4-3.92.7-1.35.26-1.1.2-1.32.1.02.06-.26.18-.66.33l-1.43.58.45-.22c-.96.38-1.87.86-2.75 1.38l.64-.1c-1.44.73-.5-.06-1.8.82l.13.15c-1.85 1.22-3.02 1.88-4.65 3.32-3.16 3.23-5.6 7.22-7.63 11.22-2.05 4.02-3.68 8.1-5.4 11.8l-.27.28c-.26.06-.55 2.2-.85 2.42l-.26.92c-.13.23-.38.74-.25.28-.33.8-.3.84-.48 1.45l-.47.83c-1.36 3.18-2.16 6.02-3.48 9.4-.9 2-1.98 4.9-3.04 8l-.68 1.96c-.15.2.1.22.26.3l.5.18.96.35 2.36.83 1.77.6-.26.73c-1.64 4.56-2.7 8.1-3.5 11.97-.4 1.93-.68 3.96-.86 6.2-.17 2.25-.33 4.74-.2 7.66.1 2.56.37 4.64.67 6.47s.62 3.43 1 5.02c.75 3.18 1.65 6.37 3.33 11.35 1.55 4.76 3.42 9.78 5.18 14.34.94 2.13 2.3 6 3.4 8.5l.32 1.02a45.36 45.36 0 0 1 1.12 2.8l-.04-.05c.57 1.3 1.13 2.8 1.4 3.43v-.06l.64 1.6-.14-.26 1.48 3.58a2.31 2.31 0 0 0-.64 2.14l1.1 4.54c.2.56.56 1.03 1.04 1.32.33.2.7.3 1.06.3a1.8 1.8 0 0 0 .6-.1h.08c.08.1.16.22.25.3l.06.15c.01-.01.04.28.07.47a20.51 20.51 0 0 0 .23 1.24 39.37 39.37 0 0 0 .7 2.8l-.04-.05c1.92 5.2 3.62 8.1 7.2 12.43-.46-.54.15.27.1.23.83 1.02 1.7 2.05 2.57 2.76.43.35.9.62 1.32.7.2.03.35.02.45.02.13-.02.2-.04.2-.06.5-.03.8-.32.95-.58a11.25 11.25 0 0 0 .49.38c.5.35 1.2.9 2.18.92-.3.02-.57-.05-.83-.12.63.25 1.7.26 2.2-.62a2.05 2.05 0 0 0 .16-.52.74.74 0 0 0 0-.21c-.01-.14-.05-.3-.1-.4a1.46 1.46 0 0 0 .19.16l-.3-.35c-.01 0-.01.04-.01.07-.01-.06-.04-.13-.04-.15.45.43.52.45.58.53.04.03.05.06.16.1a1.36 1.36 0 0 0 .54.04c.13-.03.28-.07.42-.17a1.13 1.13 0 0 0 .37-.46h-.13c.2-.5.12-.9.1-1.27-.04-.37-.1-.7-.18-1.03l-.42-1.84c-.3-1.2-.5-2.32-.77-3.8l-.94-4.7c-.01-.04-.03-.08-.01-.12.04-.01.07.03.1.05.12.1.23.22.35.35l1.04 1.18c.44.45.64.92 1.52 1.46.44.24.94.3 1.34.07s.56-.72.53-1.22a4.72 4.72 0 0 0-.1-.65c-.05-.16-.1-.33-.16-.48-.1-.3-.26-.6-.4-.9l-.8-1.62-1.5-3.3a11.34 11.34 0 0 0-.43-.85c-.2-.33-.38-.5-.57-.76l-1.14-1.4c-.75-.95-1.5-1.88-2.3-2.72l-.04-.04a.91.91 0 0 1-.15-.22c.95-.4 1.55-1.4 1.42-2.42l-1-4.98c-.08-.73-.38-1.3-.86-1.57-.22-.13-.55-.24-.96-.17-.14-.97-.4-2.45-.36-2.76l-.2-1.34c-.01-.38-.06-1.18.03-.5-.1-1.24-.14-1.27-.26-2.16l-.05-1.34-1.35-14.2-.3-4.3 12.93-.2c11.28.07 14.27.34 25.96.23l16.98-.07a16.06 16.06 0 0 1 1.06-.06c.2-.01.4-.01.58-.02l2.3-.02h.6c.02-.16-.05-.4-.07-.58l-.37-2.4c-.28-1.83-.57-3.7-.9-5.2l-.07-1.2c-.22-1.03-.46-2.25-.56-3.3l.04.06c-.34-1.54-.56-3.3-.73-4.07l.05.06-.2-1.16 1.58.08c2.62 0 7.22.1 10.3-.07l1.2.05c1.06-.06 2.3-.12 3.37-.1l-.07.02 4.16-.22-.07.02 1.92-.1-.33.05 8.1-.53-.2-.07c5.35-.27 7.3-.6 12.12-.88l-.06.03c6.07-.73 9.64-.65 15.9-1.44-.78.1.34.01.28.04l1.1-.1.54-.06c.13-.01.08-.01.16-.01h.27a27.11 27.11 0 0 0 1.96.04c1.16-.02 1.95-.1 1.97-.18 2.13-.1 1.74-.03 2.02.02-.02-.07 1.83-.23 3.48-.48l-.76.13c.67-.08 1.33-.2 2-.3.57.14 1.13.2 1.5.14 1.5 0 2.9-.2 2.9-1.9 0-.2-.1-.5-.4-.8-.06-.06-.14-.12-.2-.17 1.18-.16 2.1-.65 2.1-2.13 0-.17-.02-.48-.26-.76.5-.1.94-.27 1.26-.54.4-.4.5-.9.5-1.6-.07-.93-.48-1.45-1.04-1.77zm-101.24-70.3c7.05 4.63 13.42 11.6 17.4 18.53l.07.38c-.1.25 1.48 1.68 1.47 2.05l.6.73c.1.24.37.73.08.36.46.73.5.73.9 1.22l.4.85c1.74 2.94 3.5 5.27 5.32 8.36 1 1.9 2.63 4.57 4.3 7.25l.3.5.1.15c.04.08.2.2.05.25l-.13.1c-.05.04-.05.04-.26.17l-.95.6-3.4 2.2c-2.53 1.72-5.4 3.34-8.3 4.97a11.31 11.31 0 0 0-.13-.56c.18.76.01-.34.06-.3-.56-2.84-1.18-5.88-1.48-5.86-.4-2.07-.25-1.7-.2-2-.13.05-.56-1.77-.95-3.35l.22.72-1.12-4.57-.02.96c-.5-2.45.14-.68-.47-3l-.18.08c-.78-3.37-1.02-5.42-1.86-8.7-2.05-6.7-5-13.56-9.64-19.18-1.55-1.93-3.35-3.65-5.27-5.16 1.1.64 1.92 1.34 3.1 2.2zm-8.6-5.64l-.33-.15c.28.05.38.1.33.15zM198 248.14c-.28-.17-.5-.45-.6-.74l-1.1-4.5c-.12-.55.12-1.07.57-1.36.06.52.17 1.08.36 1.7.22.73.4 1.43.58 2.08.32 1.17.6 2.15.92 2.93a1.04 1.04 0 0 1-.73-.13zm2.32.8c-.63-.5-1.03-1.98-1.54-3.85l-.6-2.1c-.9-2.96-.08-3.77.88-4.18l.47-.16c3.6-1.22 6-1.84 7.13-1.84.24 0 .42.03.55.08.95.43 1.15.52 1.5 1.83.1.57.32 1.44.55 2.37.42 1.7.94 3.78.94 4.64 0 .92-1.5 1.85-4.25 2.62-2.4.77-4.46 1.43-5.64.6zm14.54-1.58c.72.7 2.16 2.6 2.67 3.12.04-.03 1.93 4.3.75 1.87-.1-.2-.26-.58-.23-.56l-.2-.26c.48 1.24.98 2.4 1.54 3.5l.84 1.65c.13.26.24.53.32.8s.07.28.06.36c.03-.07.02-.18-.07-.5-.07-.23-.1-.3.04-.02.13.44.1.44.08.58-.04.14-.22.1-.3.04.05 0 .1 0 .12-.02-.03-.01-.06-.02-.1-.04-.04-.03-.02 0-.13-.1-.16-.14-.34-.36-.55-.6l-1.2-1.43.28.44-.4-.5-.63-.73c-.4-.46-.8-.9-1.15-1.1s-.55-.24-.85-.16c-.24.12-.2.17-.27.3-.03.08-.07.12-.08.25-.01.14-.01.3-.02.45.18.82.01.03.12-.2.01-.2.06-.2.06-.2.02.04-.07.15.03.86l.3 1.58.6 3.4c.3 1.56.62 3.28 1.07 4.77 0-.3.24.5.47 1.3l-.05.1c.43 1.46.34 1.75.3 1.92.01.01-.2-.06-.3-.15-.13-.07-.28-.2-.45-.34l-.8-.78-3.36-6.8a.501.501 0 1 0-.9.44l3.6 7.27c.01.02.03.03.04.04l.22.67c.17.57.1.98.1 1-.07.16-.1.16-.18.18-.1.02-.22.06-.43.03-.22-.03-.64-.15-1.27-.56.48.34.58.4.4.36-.15-.05-.5-.25-.95-.64.01-.02 0-.04.01-.06l.08.05c-.03-.03-.05-.04-.08-.07.01-.1.01-.2-.04-.3l-3.5-6.96a.499.499 0 1 0-.89.45l2.96 5.9.03.77c.01.16-.04.37-.12.42.05-.1.02-.12-.02-.1-.02.01-.05.04-.1.07-.05.02-.08.04-.35-.01.25.01.3-.03.32-.1-.03.03-.03.05-.14.05-.16 0-.26-.01-.38-.06-.26-.1-.58-.3-.87-.55-1.26-1.26-3.12-3.64-3.5-4.3l-1.26-1.73-1.62-2.3c.47.65-.63-1.24-.24-.75a20.75 20.75 0 0 1-1.25-2.25c-.44-.94-.83-1.94-1-2.53l.1.2a34.62 34.62 0 0 1-.9-3.03c-.12-.48-.22-.95-.3-1.42l-.03-.2c.27.05.54.1.84.1 1.33 0 2.88-.5 4.48-1 3.26-.9 4.87-2.05 4.95-3.48l2.02-.57c.12.22.2.42.5.7l-.05-.05c.4.52.86.98 1.22 1.5zm-2.05-10.47c.12-.06.23-.08.33-.08.08-.01.15.01.2.04.2.1.33.42.37.83l1 5c.07.58-.3 1.15-.84 1.36l-2.75.77c-.17-1.08-.54-2.6-.88-3.97-.23-.9-.44-1.77-.55-2.35-.07-.25-.13-.46-.2-.65l3.32-.96zm55.6-30.37a6.2 6.2 0 0 0 .13.4c.03.12.2.35.01.33-.1.03-.27.06-.5.08-.07.01-.33.01-.6.01s-.57-.01-.9-.01c.87-.1-.23-.1-1.24-.1.65-.02.85-.06-.48-.13-.2.03-.48.05-.75.07-.01-.01-.06-.01-.04-.03-1.7.04-1.4.07-.6.08-.04.02.03.04.27.07-1.75-.14-4.88.01-5.1-.17-5.08.04-8.7.23-12.93.3-.47-.1.5-.18 1.74-.2l-3 .03c.03-.13 1.72-.08 2.64-.1-3.57-.22-7.36.22-11.54.02l-.87.1-.25-.02c.01.06-.93.13-1.55.15-.6-.12.04-.27-2.03-.26-1.64-.1-4.65.06-6.8.12 1.16.02.78.08.3.13-1.04 0-1.63-.1-2.43-.06l-.08-.12c-.14.12-2.76.13-3.1.2-.6-.12 1.6-.1 1.87-.2l-6.23.02c-2.22.12.4.15-.66.3l-3.4.07-.44-6.16c-.13-2.2.16-4.46.45-6.56.3-2.1.7-4.06 1.02-5.7.94-4.63 2.28-9.6 4.07-14.38.08-.2.15-.42.23-.64.01-.35-.06-.68-.35-.84-.16-.1-.35-.02-.55.14l-.98 2.82c-.85 2.65-1.5 5.1-1.82 6.67l.03-.22c-.36 1.8-.58 2.3-1 4.28-.04.1-.08.24-.08.22-.36 1.95-1.2 5.67-1.4 7.27l-.08.1c-.13.82-.22 1.65-.3 2.48.06.28-.07 1-.16 2.04-.12 1.05-.12 2.43.04 3.84.15 2.68.78 5.4.92 8.16.2 1.3-.24-1.15-.01.82-.1.07-.14-.92-.17-.4.2 1.93.18 3.2.45 5.57l-.07.1c.4 3.12.42 5.9.74 7.97.36 3.2-.02 2.18.44 5.5l.02 1.3c.12 1.43.22 1 .33 2.6-.07-.1.15 2 0 1.1.01.17.03.34.05.52l-2.6.75c-.32-.43-.75-.66-1.4-.97h-.01c-1.28-.55-4.8.5-8.4 1.73l-.5.17c-1.06.45-1.65 1.2-1.83 2.3-1.2-3.04-2-5.54-2.74-6.6-.73-1.8-.77-2.17-1.12-3.12l.2.43-2.7-6.9c-.5-1.25-.74-1.4-1.57-3.67.34.7-.02-.2-.34-1.06.2.54.3.7-.08-.43a7.69 7.69 0 0 1-.27-.61c0-.01-.01-.06 0-.04-.55-1.4-.48-1.15-.24-.5-.02-.03-.01.03.05.24-.47-1.5-1.53-4.1-1.48-4.32l-3.9-10.9c-.07-.42.23.4.6 1.44l-.83-2.55c.08 0 .5 1.46.77 2.24-.85-3.07-2.1-6.24-2.85-9.9l-.24-.74-.04-.22c-.03.02-.26-.8-.38-1.33-.03-.53.16 0-.2-1.8-.2-1.44-.67-4.08-.8-6 .06 1.03 0 .7-.06.26-.07-.92.01-1.45-.05-2.16l.07-.07c-.07-.1-.05-2.45-.05-2.77.1-.52-.01 1.43.06 1.66l.1-2.77c.03-.46.04-.93.22-2.77.15-1.97-.13.35-.1-.6.18-1.73.38-3.43.86-5.38l-.22.6c.63-3.23 1.2-5.12 1.93-7.2l1.67-5.7 1.4.48c6.33 2.04 13.27 5.55 19.77 7.6a2.89 2.89 0 0 0 .76.22l5.82 2.22 5.13 1.9 1.07.43c6.88 2.48 15.2 5.23 1.12-1.35l.16.01c-3.15-1.3-5.15-2.08-7.43-2.7-.25-.4-2.6-1-3.33-1.38h.08c-2.02-.52-3.94-1.68-5.9-2.2.08.01.15-.05.58.1-1.38-.48-3.27-1.12-3.32-1.32-3.28-1.2-7.8-2.97-10-3.5l.16.01c-1.26-.28-1.55-.55-2.92-.97-.06-.05-.16-.1-.14-.1-1.36-.32-3.8-1.4-4.88-1.72l-.03-.13-2.28-.83.64.27c-.1.05-.33-.01-.47-.07-.13-.05-.28-.13-.42-.22l-.1-.06c-.02-.03.04-.1.05-.14.05-.1.1-.2.14-.3a10.2 10.2 0 0 0 .37-1.14c.68-1.75.7-3.8 1.52-5.56.2-.92-.07.85.3-.5.17.01-.13.64.1.35.4-1.3.93-2.04 1.43-3.65l.14-.02c.56-2.13 1.62-3.8 1.95-5.24.73-2.14.9-1.28 1.53-3.55l.5-.8c.4-.92.08-.75.57-1.75.07.1.6-1.27.45-.63 1.1-2.26 1.73-4.84 3.33-7.74.1-.74.92-2.2 1.02-2.74.1-.05 1.5-2.96.84-1.2-.06.15-.2.4-.2.37v.25c1.04-1.57 1.45-3.08 2.43-4.65-.32.44-.67 1.1-.5.62l.9-1.47-.1.36c.46-.7.93-1.42 1.43-2.1l-.3.22c.76-1 1.18-1.23 1.88-2.44.3-.56-.86.83-.08-.24 1.1-1.26 2.82-3.04 4.44-4.35-.24.01.2-.34.62-.73l.13.06c1.67-1.44.78-.3 2.53-1.56l-.12.17.37-.5c.8-.6 1.1-.6 1.36-.7.28-.08.58-.15 1.54-.7-.8.34-.5-.17.56-.4l-.22.2c.56-.18.73-.3 1.12-.35-.33.13-.14.2.7.02l-.53.26c.5-.2 1.02-.36 1.55-.48.48-.03 1.07-.04 1.64-.05l2.8-.1.17.04c.13-.03.23-.04.33-.06l4.9-.15c-.04-.02-.08-.03-.12-.05.1.02.2.03.3.04 1.56.12 1.15-.13 2.9.1-.1.08 2.14.4 1.13.35 1.9.32 3.84.76 5.85 1.43s4.1 1.67 6.1 3.25c.52.22 1.26.78 1.96 1.32.67.58 1.34 1.12 1.67 1.38.01.1.96.98 1.54 1.7.6.7.93 1.12-.1.1-.18-.18-.47-.5-.42-.5-.1-.06-.22-.1-.33-.17 1.83 2.26 3.52 4 5 6.52-.4-.77-1.06-1.72-.56-1.12.5.75.93 1.56 1.4 2.34l-.38-.44c.66 1.18 1.26 2.4 1.82 3.62l-.13-.56c.8 1.82.88 2.55 1.9 4.56.47.9-.54-1.82.27.13.9 2.52 2.02 6.38 2.86 9.7.05-.35.3.54.56 1.46l-.1.14c1.06 3.5.07 1.36 1.05 4.85l.3.58c.98 3.14.16 1.8 1.3 5.26-.33-1.4.12-.72.45 1l-.2-.4c.24.94.35 1.25.45 1.9-.18-.56-.23-.27.07 1.14l-.34-.92.75 2.63c.27 2.1 1.03 5.35 1 6.23 0 0 .7 4.48 1.07 5.47-.27-.88.12 1.6-.14.9.33 1.13 1.02 4.54 1.1 5.93l-.06-.26c.7 5.1 1.64 8.64 2.2 13.22.1-.23.42 2.2.5 1.56.95 4.68 1 8.65 1.85 10.26.37 2.14.27 2.56.42 3.68l-.1-.5.75 4.47c.25 1.18.4 2.2.63 3.66zm70.4-30.4c-.2-.3-.2-.5-.2-.8.1-.54.58-.8 1.2-.9l3.7-.05c1.5.1 2.3.45 2.3 1.15 0 .4-.1.7-.3.9-.5.6-1.7.7-2.6.7-1.3.1-3.4-.2-4.1-1zm1.7 10.2c-1.2.1-2.2-.2-2.6-.6-.2-.2-.2-.3-.2-.5 0-.4 1.1-.5 1.9-.5h1c.7 0 1.6 0 1.7.5.3.8.1 1.1-1.8 1.1zm.7-2.6c-1.6 0-2.8-.3-3.3-.8-.1-.1-.2-.4-.2-.6.1-.6 1.5-.6 2.5-.7.07-.02.13-.02.2-.04.67.1 1.3.14 1.8.14h.4c.1 0 .18-.01.27-.01.36.1.63.2.73.3.2.2.2.3.2.3 0 .8-.2 1.4-2.6 1.4zm4.1-3.4c-.5.5-1.7.5-2.9.5-1.7 0-3.7-.4-4.3-1.1-.2-.2-.2-.3-.2-.5.08-1.04 2.16-1.25 3.5-1.3a10.99 10.99 0 0 0 1.3.1h.2c.32 0 .66-.01 1-.04 1.03.12 1.56.46 1.7 1.34 0 .5-.1.8-.3 1z"/></svg>