<svg xmlns="http://www.w3.org/2000/svg" viewBox="0 0 480 480" xmlns:v="https://vecta.io/nano"><path d="M297.3 113.05c-.01.03-.01.06-.02.1 0-.01.01-.02.01-.02v-.07zm-26.66 32.35l.48-.22c-.02-.01-.15.04-.48.22zm-84.8 116.23l.05.1-.01-.01zM318.1 91.46l2.8-6.63c.4-.9-.3-2-1.3-1.9l-4.4.3c-.5.1-1 .4-1.1.7l-5 10.43c-.15-.17-.3-.23-.3-.23s-5.8 3.7-7.1 5.5-3.8 4.4-3.4 6.4.5 3.9-.1 6.7c-.45 2.12-5.76 10.85-8.32 15l-1.88-1.1a1.25 1.25 0 0 0-1.6.3c-2.3 3.3-10.6 14.5-13.3 17.4-3.2 3.3-4.9 3.1-8.5-4.3-2.05-4.27-4.92-11.28-6.95-16.37l-.6-1.52-1.85-4.7-.13.9a27.66 27.66 0 0 0-5.98-6.86c-.5-.55-1.55-1.3-2.98-2.14-1.33-.83-2.5-1.4-3.4-1.77-2.32-1.1-5.08-2.2-8-3.08-.55-.38-1.06-.7-1.52-.96-2.98-1.66-9.55-3.7-16.1-2.45-8.1-.25-17.1 4.07-24.7 12.75-11.3 12.9-25.2 34-29.6 59.6-4.3 25.1.9 47.4 8.1 68.5.2.7 1 1.2 1.8 1l7.58-1.63c2 6.16 3.42 9.73 3.42 9.73s.2 6.4 4.3 13c4.1 6.5 5.2 6.9 5.9 7.7s1.6-.7 1.6-.7 1.2 2 2.5 1.8c1.3-.3 1-1.8 1-1.8s1.25 1.14 1.95.74c1.17-1.24.12-3.07-.35-5.58-.38-2.07-1.1-7.96-1.3-9.06-.2-1 1.7 2.46 2.7 3.86s3.03 1.52 2.6.33c-.98-3.58-2.9-7.7-3.3-8.5s-1.6-2.5-2.6-3.7l-.9-1.2s-.53-.74-.73-3.94c-.08-1.35-.4-3.6-.72-6.14l6.15-1.32c.7-.2 1.2-.8 1.1-1.6a323.69 323.69 0 0 0-2.12-14.55c11.65-.5 25.58-1.34 30.02-2.35 4.67-1.07 8.35-4.07 10.77-9.6h23.53l-.1-.87c1 5.16 2.15 8.15 6.5 10.57 5.3 2.8 7.6.2 6.3-3.2-.56-1.36-2.87-11.4-5.8-24.48 6.18-1.42 11.35-5.5 18.3-13.52 9.5-11 17.2-30.2 19.2-35.6.3-.8 0-1.7-.8-2.2l-5.26-3.07 5.57-14.7.88-1.12 4.6-5.9c.83-1.03 3.5-9.68 5.08-14.98.24-.32.42-.72.52-1.22.03-.18.02-.33-.01-.5l.7-2.4-.25-.03a3.64 3.64 0 0 0 .45-.97c.56-1.7-2.2-2.36-3.58-2.76z" fill="#fff"/><path d="M278.23 209h0l.14.2zm-78.76 54.56h0l-.07-.13zm102.5-101h0l-.03.25zm-77.92 55.25h.02l.3-.1-.3.1zm27.13-99.7h0l-.17-.2z"/><path d="M322 93.13c-.48-1.06-2.16-1.56-3.27-1.86l2.63-6.23c.27-.6.2-1.32-.2-1.87-.38-.52-.96-.8-1.58-.74l-4.4.3-.06.01c-.58.12-1.3.5-1.45.97L309 93.4c-.08-.1-.18-.14-.3-.16l-1.05.7-.58.4-1.2.9-2.83 2.2-1.23 1.06c-.37.34-.72.8-.94 1.07l-1.45 1.77c-.46.6-.92 1.2-1.36 2.03-.22.4-.42.9-.54 1.48-.06.3-.1.63-.06 1 .04.4.1.6.15.9a14.07 14.07 0 0 1 .18 3.25 14.95 14.95 0 0 1-.18 1.64l-.14.8c-.05.27-.14.45-.2.68-.23.96-1.2 2.54-1.7 3.66l-.3.38c-.17.4-.4.83-.64 1.18l-.01-.03c-.26.58-.65 1.18-.78 1.47l-.01-.03-.38.67.04-.13-1.63 2.8.12-.03-.6.93c-.13.36-.18.73.07.92.6.42 1.65-1.18 1.65-1.18-.12.03.43-.8.2-.64.9-1.7 1.98-2.92 2.03-3.7.42-.77.58-.87.82-1.25l-.1.2 1.56-2.98c.24-.57.16-.7.62-1.73-.1.35.1-.05.22-.5-.08.27-.08.37.14-.2l.03-.32c.01 0 .01-.02.02-.01.1-.7.07-.57 0-.26-.01-.02-.02.01-.06.1.24-.7.3-2 .4-2.06.08-1.05.02-1.97-.1-2.8l-.23-1.24c-.1-.43-.16-.73-.12-1.13.1-.16.04.2.12.6-.06-.32-.01-.67.1-1.03.06.03-.1.6-.06.9.08-1.14.74-2.6 1.83-3.84l.16-.3.07-.07c-.03-.02.17-.34.3-.55.2-.15.12.12.63-.55.12-.12.24-.3.38-.46.13-.15.24-.32.4-.5.3-.35.67-.7.98-1-.36.3-.27.16-.13.02.3-.27.55-.36.77-.58l.1.05c-.2.03.8-.73.9-.85.23-.08-.48.43-.53.54l2-1.48c.7-.56-.18.02.12-.3l.96-.7c.26-.2.53-.37.77-.5.2.58.5 2.13-.46 4.4-1 2.35-4.7 5.02-4.73 5.05l.37.52-1.24 2.58c-.27.56-.25 1.2.04 1.74s.82.9 1.43 1l4.2.57h.14c.95 0 1.83-.38 2.5-1a6.91 6.91 0 0 0 2.2.38c.3 0 .5 0 .8.1 1.6-.2 3.5-.7 3.3-3.3a1.66 1.66 0 0 0-1-1.43c.7-.17 1.52-.44 2.15-.94l-1.9 6.28.01-.1c-.2.78-.35.98-.62 1.84-.03.04-.06.1-.06.1-.1.42-.34 1.06-.6 1.52-.3.47-.74.96-.93 1.25h-.08l-1.08 1.4.42-.5c0 .3-.92 1-1.6 2.08-.76.94-1.2 2.16-2.05 3.1-.02.03-.03.05-.04.07-.06.22-.04.1-.04-.02.02-.07.04-.13-.05-.03a1.4 1.4 0 0 0-.1.31c-.05 0-.03-.1-.01-.18.03-.1.04-.18-.05-.05-.27.85-.6 1.3-.92 2.35l-.1.01c-.37 1.36-1.03 2.45-1.24 3.37-.46 1.38-.55.83-.95 2.3l-.3.5c-.24.6-.05.48-.35 1.13-.04-.06-.37.83-.28.42-.46 1-.8 2.1-1.24 3.32-.4-.2-1.1-.6-.9-.33-3.1-1.6-5.3-3.54-6.7-3.68-1.4-.78-1.56-1.07-2.25-1.5l.34.17-3.56-2.03-1.16-.66-.58-.34c-.25-.13-.45-.2-.64-.3l-.36-.15c-.14-.05-.3-.1-.45-.1a2.05 2.05 0 0 0-1.1.16c-.2.1-.42.22-.62.42-.1.1-.2.22-.28.35-.06.1-.13.18-.2.28.28-.58-.16.1-.6.7.26-.4.3-.53-.3.2-.05.13-.16.3-.26.48-.01 0-.04.03-.04.01-.7 1.02-.54.86-.2.4 0 .03.04.01.17-.12-.86.96-2.1 2.88-2.34 2.9l-5.46 7.7c-.3.22.1-.4.6-1.13l-1.32 1.75c-.1-.1.7-1.03 1.1-1.6-.88.96-1.66 2.05-2.5 3.17-.84 1.1-1.7 2.3-2.83 3.16-.12.17-.25.3-.4.44l-.14.1c.04.05-.43.45-.78.57-.18 0-.2-.1-.28-.12-.1-.05-.26.01-.7-.16-.72-.33-2.12-2-2.9-3.33.4.72.2.52-.01.24-.37-.65-.47-1.08-.78-1.57l.1-.14c-.01.34-1-1.68-1.18-1.9-.07-.44.58 1.02.75 1.14l-1.9-4.1c-.76-1.43-.02.33-.46-.32l-1.8-4.1.07.53-1.5-3.43c-.3-1.22-.78-2.75-1.18-3.9.26.85.1.6-.05.24-.25-.75-.28-1.22-.52-1.8l.1-.1c-.15-.06-.75-2-.96-2.2-.03-.23.1.05.28.4l.38.88c-.24-.76-.43-1.23-.58-1.55l-.3-.7-.95-2.2c-.9-1.47.01.34-.5-.32l-1.1-1.97c-.37-.67-.62-.18-1.04-.94l-1.4-1.5c-1.54-2.2-7.25-5.15-9.12-6.1-3.64-2.23-7.27-3.8-9.4-4.3-1.12-.6-2.28-1.06-3.44-1.44a23.81 23.81 0 0 0-4.15-.93 3.84 3.84 0 0 0-.78-.11c-.28-.02-.5-.03-.5-.01-2.42-.3-4.9-.3-7.33.13-3.9-.07-7.77.84-11.27 2.38-3.63 1.6-6.86 3.85-9.72 6.34-2.87 2.5-5.27 5.33-7.57 8l-.5.4c-.36.06-2.16 3.26-2.64 3.57-.3.45-.6.9-.9 1.38-.3.35-.9 1.1-.47.42-.9 1.23-.9 1.27-1.48 2.2l-1.03 1.27c-3.46 4.9-5.88 9.42-8.8 15-1.84 3.32-4.18 8.28-6.02 13.53-1.87 5.23-3.22 10.72-4.02 14.75-1.06 5.7-2 11.87-2.36 18.16-.37 6.28-.17 12.65.73 18.5a6.88 6.88 0 0 0 .12.83c.05.3.1.53.12.53.43 3.6 1.08 7.14 1.8 10.68l.47 2.12c.28 1.33.74 3.16 1.28 5.24 1.1 4.15 2.66 9.22 4 13.04l.96 2.6.4 1.07a1.99 1.99 0 0 0 .82 1.02c.66.4 1.27.32 1.54.22.27-.1.26-.17.1-.2-.2-.02-.7.03-1.25-.38-.63-.4-.63-1.37-.97-2.5l-2.68-10.5.12.24-3.37-13.17c.15-.68-.9-4.73-.98-6.1l.04.12c-.82-3.5-.8-7.3-1.3-10.7.03.13.1.2.2 1-.23-2.5-.46-5.9-.27-6.1-.02-1.5-.1-3.13-.05-4.8.02-1.68.06-3.4.18-5.05l.13-2.4.2-2.23.3-3.6v.27c.07-1.1.17-1.8.28-2.52.1-.73.24-1.5.45-2.7.05-.13.1-.3.1-.27.23-2.38 1.45-6.8 1.93-8.65l.14-.1c.45-1.5.83-3.05 1.36-4.54-.2.56-.4 1.1-.58 1.68-.07-.34.27-1.18.73-2.34a92.96 92.96 0 0 0 1.58-4.29c.3-.75.56-1.52.8-2.3l.78-2.34c.5-1.58 1.1-3.15 1.9-4.63.56-1.5-.4 1.37.53-.83.18 0-.4 1.05-.01.55.45-1.08.95-1.9 1.45-2.8.5-.9 1.02-1.87 1.7-3.14l.17-.04c.4-.85.84-1.66 1.27-2.43.45-.76.9-1.47 1.35-2.16.86-1.38 1.7-2.57 2.3-3.68 1-1.67 1.48-2.13 1.9-2.65.45-.5.85-1.07 1.95-2.76l1.06-1.17c1.04-1.38.58-1.1 1.8-2.6 0 .15 1.56-1.86.94-.92 2.86-3.25 5.3-7.1 9.86-10.43.2-.23.5-.5.83-.82l1.15-.85 1.1-.8c.35-.22.63-.42.8-.57.1.02 1.28-.77 2.2-1.16.9-.43 1.43-.66.06.13-.24.13-.66.34-.65.3a7.68 7.68 0 0 0-.27.29c2.34-1.05 4.3-2.07 6.58-2.74a1.19 1.19 0 0 1 .35-.19c-.3.08-.4.1-.03-.07l.73-.14c2.83-.83 5.98-1.1 8.5-1.14.2.03.38.05.56.1.13 0 .24 0 .34.01l-.12.03c3.2-.27 6.54.76 9.45 1.64-.12-.02-.2.03-.87-.2 1.06.34 2.3.82 3.2 1.32.9.5 1.54 1 1.56 1.13 2.18 1.5 4.56 3.74 6.23 6.13.84 1.2 1.48 2.42 1.88 3.55.22.57.32 1.1.44 1.6l.26 1.46-.07-.23c.38 1.97.3 2.58.56 4.8-.01.12-.01.28-.02.26.36 2.17.5 6.4.66 8.15l-.1.12.28 4.36-.06-1.63c.33.55 0 3.3.34 6.47.1 2.96.9 6 .87 9.08.2 1.47-.27-1.3-.1.9-.16.08-.13-1.02-.24-.45.14 2.15-.05 3.54.13 6.2l-.12.1c.3 3.47-.02 6.55.2 8.86.15 3.58-.34 2.4-.1 6.13l-.17 1.45c-.03 1.6.2 1.14.1 2.9-.1-.1-.12 2.23-.2 1.2-.1 2-.1 4.02-.12 6.2 0 2.2-.1 4.53-.4 7.14.16 1.15-.2 3.77-.12 4.63-.05.15-.6 5.22-.44 2.28.01-.25.07-.7.1-.66l-.08-.36c-.54 2.9-.6 5.33-1.4 8.13.26-.82.55-1.92.43-1.17-.24.86-.46 1.74-.77 2.58l.08-.56c-.43 1.26-.9 2.5-1.5 3.66l.35-.43c-.46.85-.8 1.4-1.2 1.96l-1.34 2.03c-.28.4.05.1.28-.14.2-.25.38-.35-.25.43-.82.98-2.04 2-3.46 2.82-1.43.82-3.07 1.35-4.68 1.62.32.07-.52.26-1.45.4l-.13-.1c-3.54.63-1.35-.1-4.87.4l-.63.23c-3.22.53-1.77-.1-5.36.5 1.43-.13.7.23-1.07.3l.44-.15c-.97.1-1.3.16-1.95.18.58-.1.3-.2-1.14-.08l.95-.2-2.7.4c-2.1 0-5.4.33-6.28.2l-3.9.18c-.26-1.86-.5-3.55-.63-5.24-.34-3.85-.6-7.78-.3-14 .44-5.9 1.67-12.18 3.93-17.48.84-2.58 3.4-6.85 4.86-9.82l.73-1.06c.5-1.03 1.14-2.2 1.77-3.16l-.01.08c.76-1.53 1.8-3.13 2.2-3.88l-.01.08 1.07-1.77-.15.33c1.48-2.57 3.13-5.15 4.7-7.34l-.25.1c3.4-4.65 4.45-6.5 7.8-10.5l-.02.08c1.22-1.76 2.35-3.23 3.43-4.62l-5 3c-3.1 3.88-5.17 7.07-7.93 10.83.25-.1-1.3 2.05-.8 1.6-2.75 4.42-5.38 7.83-5.87 9.73-1.16 2.06-1.52 2.36-2.15 3.4l.26-.5-4.3 7.9c-.72 1.47-.62 1.83-1.92 4.5.27-.93-.17.2-.6 1.23.25-.66.3-.9-.32.45-.06.22-.15.52-.23.8-.01.01-.04.06-.04.03-.57 1.77-.43 1.48-.14.66 0 .05.04-.02.16-.26-.8 1.76-1.57 5.13-1.76 5.32-1.2 5.46-1.38 9.47-1.4 14.08-.1.52-.2-.56-.16-1.9-.06 1.1-.02 2.2-.04 3.28-.13-.03-.07-1.9-.05-2.9-.37 3.92.24 8.06.56 12.62l.22.93.02.27c.05-.02.27.98.38 1.65-.01.65-.27-.01.1 2.23.15 1.77.8 4.98 1.2 7.27-.16-1.24-.04-.85.08-.32.17 1.1.15 1.77.32 2.62l-.1.1c.14.14.56 2.94.68 3.3-.02.65-.35-1.7-.48-1.97l.5 3.34c.02.14.04.28.07.44.01.08.02.16.04.25.01.06.01.12 0 .18a.64.64 0 0 1-.19.4.81.81 0 0 1-.29.19c-.07.04-.35.1-.62.15-2.33.62.46.05-.64.43-2.07.48-4.07 1.02-6.47 1.44l.78-.03c-3.88.94-6.2 1.43-8.87 1.85l-6.27 1.63-.72.16c0 .01.01.02.01.03-15.38 4.1-2.95 1.8.4 1.17l.43 1.24 1.33 4.06.55 1.65.57 1.6c0-.05 0 .14.02.26l.03.4.1.84a21.98 21.98 0 0 0 .35 1.91c.5 2.44 1.4 4.94 2.47 7.1.6.98 1.52 2.8 2.35 3.86l.22.47c.28.37.6.8.83 1.2l-.03-.01c.43.54.86 1.2 1.1 1.45l-.03-.01.5.67-.1-.1c.76.92 1.64 1.9 2.44 2.65v-.12a7.68 7.68 0 0 0 .27.29c.1.12.27.27.44.36.34.2.74.15 1.05 0 .15-.08.3-.18.42-.27 0 0 .03-.03.04-.05.03-.04.06-.08.1-.13.03 0 .07.07.1.1.1.1.18.2.27.3.35.33.72.74 1.46 1l-.04.01a2.14 2.14 0 0 0 .8.03 1.81 1.81 0 0 0 .69-.3 1.8 1.8 0 0 0 .51-.52c.05-.08.13-.24.14-.26.01-.04.02-.06.03-.1.02-.08.03-.16.02-.22.03.01.13.12.18.15.03.03.04.04.1.07.02.01.22.1.38.15.4.13.94.13 1.27-.2.15-.16.34-.36.4-.53.1-.16.15-.35.2-.53.1-.37.1-.75.04-1.1.05.4.04-.17.05-.14-.08-.7-.28-1.34-.43-1.82-.16-.47-.28-.78-.37-.77-.2-.87-.12-.72-.08-.85-.08.03-.24-.74-.34-1.45l.08.32-.32-2.02-.08.42c-.1-1.08.13-.3-.05-1.32l-.1.03a25.59 25.59 0 0 1-.16-1.9l-.01-.2.01-.1.02-.15c.02-.1.04-.15.05-.2v-.01l-.05-.4c-.02-.03.01-.06.03-.03a.64.64 0 0 1 .1.13l.4.57.32.5.38.56c.28.4.68.8 1.12 1.05.23.13.47.24.73.3.3.1.7.12 1 .05s.62-.26.75-.56c.12-.3.1-.62-.01-.96l-.16-.54-.15-.48-.32-.94-.67-1.84-1.4-3.5-.02-.26c.04-.08-.17-.4-.4-.76-.22-.36-.5-.72-.5-.84l-.4-.53c-.08-.17-.3-.5-.08-.25-.35-.5-.37-.5-.66-.84l-.33-.58c-.35-.5-.73-.93-1.06-1.38l-.5-.66-.08-.1s-.04-.07-.06-.1c-.04-.1-.1-.2-.12-.33-.3-.98-.44-2.1-.5-3.33-.04-1.28-.24-3-.48-4.8l5.7-1.34c.58-.18 1.08-.5 1.47-1.03.38-.52.54-1.23.45-1.82l-.36-2.2-.76-4.84-.87-6.43c1.8-.05 3.7-.14 5.98-.38-.78.1.34.06.28.1 2.87-.2 5.95-.4 5.97-.7 2.1-.13 1.7-.02 2 .07-.02-.12 1.8-.3 3.43-.43l-.75.1c1.56-.12 3.12-.27 4.68-.43l-.94-.15c2.5-.15.66.24 3.03-.06l-.05-.2 2.36-.2a34.35 34.35 0 0 0 2.11-.2c1.38-.14 2.8-.43 4.43-1.16 3.33-1.62 5.9-4.63 7.42-7.94 7.4.17 12.02-.17 21.55-.27h.95l.3 1.3c.2.72.3 1.15-.14.04-.07-.2-.17-.54-.12-.53l-.18-.24c.37 2.36 1.4 4.3 3.04 6.2-.48-.58-1.02-1.4-.58-.9.44.64.97 1.2 1.52 1.74l-.42-.26a13.25 13.25 0 0 0 2.7 2.1l-.34-.35c.68.47 1.17.76 1.7 1.06.54.26 1.12.52 2.13.64.47.02.04-.08-.24-.18-.26-.13-.45-.15.46 0 .56.14 1.27.18 2.06.07.78-.12 1.73-.62 2.26-1.48.53-.85.63-1.83.54-2.68-.06-.42-.14-.84-.27-1.22l-.1-.3-.06-.22-.12-.43c-.07.25-.27-.33-.47-1.04l.1-.1c-.85-2.63.01-1.04-.77-3.68l-.28-.43c-.82-2.37-.06-1.37-1.02-4 .27 1.06-.15.57-.4-.76l.2.3c-.2-.72-.3-.95-.38-1.44.16.42.22.2-.04-.88l.3.68-.68-1.97c-.23-1.6-.95-4.03-.93-4.7 0 0-.68-3.38-1.03-4.1.17.43.07-.23.05-.6.3-.07.47-.1.14.05 3.03-.74 5.74-2.55 8.98-4.84.27-.36.82-.8 1.32-1.28s.98-.92 1.16-1.2c.16.02 2.83-2.78 1.4-1.07-.12.15-.37.38-.37.34l-.1.28c1.77-1.42 2.78-3 4.26-4.63-.46.46-1.03 1.12-.7.63l1.37-1.52-.2.4c.7-.73 1.35-1.55 2.02-2.33l-.37.25c1.02-1.12 1.46-1.45 2.34-2.9.37-.68-1 1.05-.08-.25 1.2-1.6 3-4.03 4.3-6.22-.24.13.1-.46.44-1.08l.15-.01c1.18-2.45.73-.73 1.9-3.15l.07-.5c.9-2.26.86-1.03 1.76-3.6-.46.96-.47.32.16-.82l-.04.35c.3-.66.36-.9.6-1.32-.13.42.06.28.5-.7l-.17.7.67-1.9c.78-1.35 1.64-3.66 2.05-4.18 0 0 1.4-3.03 1.5-3.8-.15.66.6-1.02.52-.48.2-.85 1.06-3.26 1.54-4.18l-.05.2c.1-.24.17-.4.28-.7.12-.35.18-.74.15-1.1a2.99 2.99 0 0 0-.85-1.91c-.12-.12-.24-.23-.37-.32-.13-.1-.3-.2-.37-.24l-.53-.3-1.04-.57c-1.13-.62-2.23-1.23-3.38-1.94l1.1-2.73.16-.18c.16-.05.33-1.4.5-1.56l.16-.6c.08-.15.23-.48.15-.2.2-.52.2-.54.3-.93l.3-.53c.84-2.05 1.36-3.86 2.22-6.03l.37-.86.68-.82.78-1 1.63-2.14 1.6-2.13c.25-.35.5-.65.72-1 .26-.42.4-.77.52-1.1 1.1-3.22 2.36-6.7 3.3-10.12.26-.92.37-1.82.6-2.72.06-.13.5-.97.52-1 .88-1.63.96-3.37.96-3.37s.36-.82.6-1.63c.08-1 .13-1.26-.07-1.66zm-124.73 154.7c.03.1.06.17.12.28.07.12.12.18.16.24l.26.37c.17.24.35.45.53.63 1.02 1.18.48.94 1.54 2.15l.27.57c.35.57.4.35.7 1-.08-.02.37.88.12.5.64 1.6 1.58 3.15 2.2 5.34.3.42.57 1.53.76 1.85-.01.01.01.08.03.18a16.53 16.53 0 0 0 .08.3c.03.1.04.2-.02.23-.05.03-.02 0-.05-.12-.01-.03-.02-.07 0-.06-.03-.01-.06-.02-.08-.02-.04.1-.07.1-.14.12-.34-.05-.85-.3-1.13-.7.16.26.5.5.25.36-.24-.2-.42-.48-.64-.82l.2.17-.46-.74-.8-1.3.2.47-.97-1.68c-.3-.5-.6-.76-.84-.74-.1.01.02.1.1.18.1.1.15.15-.1.02-.1-.06-.2-.15-.3-.18-.03-.01-.06-.02-.1-.02-.06.01-.1.04-.1.05-.02.02-.04.1-.07.13-.05.1-.1.16-.16.3l-.1.27c-.03.07-.06.2-.02.43l.4 3.1c.06-.15.12.25.2.65l-.07.06c.33 1.56-.08.6.23 2.16l.14.26c.35 1.38-.04.8.38 2.32-.1-.6.1-.33.22.45l-.1-.18c.1.43.17.56.22.85-.1-.25-.14-.1.03.5l-.2-.4.43 1.12c.08.45.23 1 .28 1.46.06.46-.01.8-.1.9.01-.01-.14.34-.2.32-.07.01-.05.03-.2-.02a3.68 3.68 0 0 1-.8-.45c-.05.02-.1.04-.13.06.1-.05.06-.06-.02-.05l-3.76-9.48c-.1-.26-.4-.38-.65-.28s-.38.4-.28.65l3.8 9.57c-.05.04-.1.08-.18.14.04.35-.1.6-.1.6-.04.06-.07.1-.12.14-.08.07-.27.1-.28.08.01 0 .02 0 .02-.01-.18.02-.6-.16-.92-.46-.18-.17-.27-.23-.62-.67-.3-.38-.58-.88-.84-1.25 0 0-.01.01-.01.02l-3.2-7.35c-.1-.25-.4-.37-.66-.26s-.37.4-.26.66l3.48 7.97c-.02.02-.03.05-.05.08-.06.1-.12.15-.2.23a.47.47 0 0 1-.1.1l-.01.01c-.02.01-.03.02-.05.03-.04.02-.08.01-.1-.02l-.08-.1c-.08-.08-.15-.16-.23-.25-.01.12-.7-.62-.6-.37-1.48-1.35-2.15-2.98-2.86-3.38-.55-.76-.56-.96-.82-1.37l.14.18c-.98-1.45-1.28-1.88-1.92-3-.36-.53-.53-.56-1.03-1.6.22.3 0-.1-.18-.5.13.25.18.3-.02-.22-.05-.06-.1-.17-.17-.27 0-.01 0-.03.01-.02-.3-.65-.27-.53-.15-.22-.02-.01-.02.02.01.12-.23-.72-.78-1.94-.7-2.06-.73-2.04-1.2-3.53-1.53-5.3.03-.2.13.2.25.7l-.22-1.26c.08 0 .14.72.23 1.1-.03-.4-.1-.8-.14-1.2-.03-.2-.06-.4-.08-.6l-.04-.3-.04-.38-.27-.63-.23-.58c-.15-.4-.3-.8-.42-1.2l-.2-.33-.03-.1c-.03.02-.2-.35-.3-.6-.02-.26.16-.04-.15-.88-.17-.7-.7-1.9-1.03-2.76.15.48.06.34-.03.14-.15-.42-.16-.7-.3-1l.08-.07c-.01.1-.12-.15-.24-.45a332.12 332.12 0 0 0 14.43-3.05l.65-.15c.2 1.12.63 2.24.68 3.42.15.63-.2-.54-.03.4-.1.04-.1-.44-.16-.18.15.92.01 1.53.2 2.7l-.07.06c.17.76.27 1.48.5 2.17zm67.6-40.14l-.33.03c.5.07.44.13.2.17-.4 0-1.05-.1-1.68-.06l-.06-.12c-.12.12-2.25.13-2.53.2-.48-.12 1.3-.1 1.52-.2l-5.07.02c-1.8.12.33.15-.54.3-1.6.03-3.15.14-4.97.05l.58.14c-3 .1-4.78.1-6.8-.05l-1.82.1c1.18-2.92 1.82-6 2.28-9.03.87-7.1 1.03-14.04 1.36-20.5l.15-.57c.22-.25-.27-3.57-.06-4.05l-.1-1.5c.04-.42.08-1.3.13-.56.01-1.4-.03-1.42-.1-2.42l.13-1.5c.05-5.48-.28-10.13-.4-15.88.08-6.92-.8-19.92-1.5-27.4l-.8-8.18c-.35-3-1.93-5.72-3.78-8-.66-.8-1.38-1.56-2.12-2.3h.02c.53.14 4.9 2.02 8.57 5.42 0-.3 2.3 1.83 2.66 2.5l-.07.13c.72 1.26.75 1.53.8 1.8.02.28.1.52.64 1.83l.34.42c.53 1.2.57 1.56.62 1.95s.15.8.67 2.18c-.32-1.12.13-.6.43.8l-.2-.32c.2.76.32 1 .42 1.53-.17-.44-.22-.2.05.93l-.32-.73.7 2.1c.23 1.7.9 4.33.86 5.05 0 0 .58 3.64.9 4.44-.24-.7.07 1.3-.17.75.3.92.88 3.68.93 4.82l-.05-.2c.56 4.14 1.33 7.02 1.7 10.75.12-.2.32 1.78.43 1.27.73 3.82.58 7.06 1.33 8.38.26 1.75.13 2.1.22 3l-.08-.4.87 6.68c.2 1.2.5 1.37.7 3.56-.2-.7-.06.2.03 1-.08-.52-.14-.68-.08.4.05.15.1.38.14.6-.01.01-.01.05-.02.03.2 1.36.2 1.12.14.48.02.03.03-.03.04-.23.04 1.43.47 3.95.3 4.14l1.47 10.42c-.05.4-.22-.4-.37-1.38l.3 2.42c-.14-.01-.23-1.38-.34-2.13.1 2.9.87 5.93 1.03 9.34l.18.7v.2c.06-.02.2.74.28 1.24-.07.5-.27-.01-.1 1.67.01.67.12 1.6.26 2.6l.05.37c.02.13.02.13.04.2l.07.36.04.2c.03.08-.08.03-.12.05zm9.84-5.15c.35 1.56.2 1.3.14 1.52.12-.04.5 1.3.78 2.52l-.18-.55.87 3.48.06-.74c.38 1.86-.17.54.32 2.3l.18-.07c.3 1.3.46 2.3.68 3.37l.18.8c.04.24.1.44.13.67.06.45.04.9-.08 1.32-.1.43-.3.7-.64.9-.34.18-.82.27-1.37.22-1.1-.1-2.3-.58-3.38-1.17-1.1-.62-2.1-1.37-2.92-2.3-.8-.92-1.42-2-1.85-3.2-.25-.7-.46-1.4-.64-2.1l-.02-.18-.25-2.6-.23-2.68-.38-4.6a261.56 261.56 0 0 0-1.11-10.64l-1.66-13.73c-.46-2.07-.7-5.8-1.2-8.24v-.97c-.17-.85-.34-1.84-.38-2.7l.04.05c-.25-1.26-.4-2.7-.52-3.33l.04.05-.22-1.55.08.26c-.4-2.2-.72-4.5-.96-6.52l-.12.2c-.47-4.33-1-5.86-1.46-9.77l.04.05c-1.2-4.83-1.05-7.78-2.37-12.75.16.62.02-.28.07-.24-.5-2.3-1.06-4.78-1.35-4.75-.4-1.68-.24-1.4-.18-1.63-.12.04-.52-1.4-.9-2.7l.22.6c-.36-1.24-.75-2.48-1.2-3.7.01.27.03.53.03.8-.65-1.96.13-.6-.68-2.42l-.17.1c-.36-.88-1.36-2.3-2.24-3.38l1.27 1 .67.96c1.8 2.57 3.46 5.6 4.9 10.16 1.16 4.04 1.6 6.7 2.16 9.4.54 2.7 1.1 5.42 2.13 9.75l2.86 12.58c.63 1.87 1.17 5.3 1.85 7.54l.08.9c.23.77.47 1.68.58 2.48l-.04-.04c.35 1.15.58 2.48.76 3.05l-.04-.04.33 1.42-.1-.23c.54 2.02 1 4.12 1.38 5.98l.1-.18c.7 4 1.33 5.38 1.93 9l-.05-.04c1.38 4.43 1.33 7.2 2.74 11.77-.17-.57-.02.27-.06.23.5 2.1 1.05 4.4 1.34 4.35zm32.36-63.66l1.7 1c.43.23.6.58.5.96l-.03-.03c.01.06 0 .1-.01.2l-.12.38-.24.73c-.16.48-.33.93-.5 1.36-.35.87-.7 1.67-1.07 2.48-.73 1.6-1.5 3.22-2.27 5.37.2-.54-.17.2-.18.14-.83 1.93-1.78 3.97-1.54 4.12-.67 1.38-.62 1.1-.8 1.22.12.05-.44 1.26-.97 2.33l.2-.5c-.5 1.03-1.03 2.04-1.55 3.06l.52-.48c-.9 1.58-.47.27-1.25 1.83l.18.08c-.62 1.1-1.2 1.92-1.78 2.7l-1.9 2.56c-1.35 2.12-2.8 4.22-4.36 6.25-1.55 2-3.3 3.97-5.02 5.86-3.5 3.7-7.42 7.06-11.78 8.4-.14 0-.3-.01-.43-.02-.1-.06-.43.08-.85.26-.25-.96-.48-2-.54-2.6l.06.2c-.7-3.85-1.64-6.48-2.22-9.94-.1.2-.43-1.64-.5-1.15-.96-3.5-1.06-6.54-1.9-7.7-.4-1.6-.3-1.94-.44-2.78l.1.38-1.4-6.13c-.3-1.1-.6-1.23-.98-3.25.25.63.05-.2-.12-.94.12.48.2.62.04-.38a4.67 4.67 0 0 1-.19-.54c.01-.01 0-.05.02-.03-.3-1.24-.3-1.02-.18-.43-.02-.03-.03.03-.02.2-.15-1.33-.8-3.62-.67-3.82-.87-3.76-1.65-6.4-2.42-9.53.01-.37.26.34.5 1.24l-.53-2.22c.14-.01.36 1.26.54 1.94-.26-1.86-.84-3.73-1.34-5.74l.5 1.03c.8 1.66 1.64 3.5 2.8 5.6.5.94 1 1.78 1.54 2.55.54.76 1.15 1.5 2.08 2.02.45.27 1.04.42 1.6.42.28 0 .54-.06.8-.1.24-.07.46-.16.7-.24.82-.4 1.4-.88 1.95-1.35 1.1-.98 1.94-2.05 2.94-3.24.98-1.2 2.05-2.58 3.33-4.3 2.5-3.24 5.05-6.77 7.36-10.06a5.58 5.58 0 0 1 .19-.33l.1-.17c0-.01 0-.02.01-.03.01-.04.05-.08.1-.1.05-.02.1-.01.16.02l.85.5c1.16.68 2.36 1.4 3.38 1.88l.7.54c.7.34 1.5.76 2.13 1.2l-.06.01c1.04.5 2.13 1.2 2.65 1.45l-.06.01 1.22.7-.23-.08c1.78.93 3.57 1.97 5.13 2.93l-.06-.2c1.64 1.05 2.8 1.7 3.93 2.32zm1.08-29.43l-4.16-.55c-.3-.04-.55-.2-.7-.47a.92.92 0 0 1-.02-.84l1.77-3.68c1.26-1.05 3.13-2.8 3.85-4.5.92-2.17.8-3.8.58-4.7l5.08-10.6c.04-.08.33-.3.7-.37l4.38-.3c.37-.04.6.22.7.33.2.26.23.6.1.88l-2.67 6.34c-.93-.37-2.6-.62-3.67-.05-.5.2-.8.7-1 1.2-.1.5 0 1.1.3 1.7.3.54.82 1.04 1.43 1.46-1.62-.04-4.16.48-4.43 2.34-.1.5.1 1 .5 1.5.32.4.8.74 1.38 1.02-.9.18-1.93.55-2.48 1.18-.4.4-.6.9-.5 1.5a2.37 2.37 0 0 0 .9 1.5c.35.27.8.5 1.27.66-.8.1-1.8.4-2.37 1.04-.4.4-.6.9-.5 1.4 0 .5.3 1 .8 1.4.1.06.2.1.3.16-.46.3-1 .48-1.54.47zm7.94-2.92c.1 1.3-.3 2.1-2.6 2.4-1.4.2-2.8-.2-3.6-.8-.2-.1-.5-.4-.5-.8 0-.3.1-.6.3-.8.5-.6 1.8-.9 2.5-.9h.7c1.5-.1 3.1-.1 3.2.9zm-1.3-1.9c-1.5.2-3.1-.2-4-.9-.3-.2-.6-.5-.6-.9s.1-.6.3-.9c.6-.7 2.1-1 2.9-1h.7c.2-.05.4-.07.64-.08a8.92 8.92 0 0 0 1.16.08c.32 0 .64-.01.97-.02.52.07 1 .2 1.33.42.2.2.3.4.3.6 0 1-.3 2.3-3.7 2.7zm4.3-3.25c-.1-.24-.23-.46-.4-.65-.02-.02-.05-.03-.08-.05a4.4 4.4 0 0 0 .82-.28l-.33.98zm.75-2.1c-.55.5-1.4.7-2.8.8-.88-.15-1.85-.13-2.62-.1-1.26-.22-2.37-.7-2.95-1.37-.2-.3-.3-.6-.3-.9.2-1.6 3-1.7 4.2-1.5h.5l1.24.13c.1.02.17.05.26.07a22.85 22.85 0 0 0 1.07.15c.8.18 1.6.4 1.83.85.23.45.07 1.4-.44 1.85zm.76-2.7c-.07-.05-.13-.1-.2-.15.18-.07.32-.16.47-.25l-.26.4zm.58-2.54c-.4 1.3-1.17 1.8-2.64 1.67-.43-.1-.88-.17-1.3-.23-1.4-.34-2.6-1.2-3.16-2.14-.1-.3-.3-.7-.2-1.1.1-.3.3-.5.6-.7a4.3 4.3 0 0 1 1.2-.2c.7 0 1.4.2 1.9.3.2 0 .4.1.7.2.9.3 2.5.7 2.9 1.5.1.2.1.4 0 .7z"/></svg>