<svg xmlns="http://www.w3.org/2000/svg" viewBox="0 0 480 480" xmlns:v="https://vecta.io/nano"><path d="M286 122.35l-.1.16c.01-.01.01-.02.02-.03.03-.04.06-.1.08-.13zm-20.3 4.22l.26.33c.01-.03-.04-.12-.26-.33zm.47 81.23h.22-.22zm-12.7-.8l-.47-.03c.01.01.13.02.47.03zm-66.88-16.5l-.06-.22.07.26c-.01-.01-.01-.02-.01-.04zM317.02 76.1l2.13-6.87c.3-.94-.5-1.96-1.48-1.76l-4.35.73c-.5.15-.96.5-1.03.8l-3.95 10.85c-.12-.1-.2-.1-.2-.1s-5.3 4.2-6.4 6c-1 1.8-3.1 4.6-2.6 6.5s.9 3.7.5 6.5c-.2 1.4-2 5.9-4.1 9.8-5.7 10.4-14.5 22.2-18.9 27.7-.6.7-1.34 1.17-2.12 1.5l.22-1.3-21.2-20.8c-5.6-9.5-14.36-17.53-27.9-17.12-1.03.02-2.05.06-3.07.12-14.76-1.54-24.18 14.64-26.93 23.48-1 3.2-9.93 29.85-14.1 42.22l-.1-.02-2 6.3 6.64 1.5c-.13 1.23-.2 2.42-.24 3.6-.34 5.67.44 11.2 2.43 18.45l-1.53 10.55c0 .2-.1.9-.2 1.1v.1c0 .3-.1.4-.1.5v.1H192l-5.57.35-.32.03-.03-.38-.01-.08a.41.41 0 0 1 .02-.18 1.27 1.27 0 0 1 .04-.15.66.66 0 0 0 0-.2c.01-.07 0-.14.02-.2.07-.38.06-.6.06-.85-.01-.15-.06-.4-.08-.52-.06-.28-.1-.38-.16-.32s-.1.26-.14.58l-.02.12c-.01.01-.01.01-.02.05-.02.07-.04.15-.06.23s-.05.17-.07.26c-.04.1-.03.1-.1.33-.03.08-.04.17-.07.27v.07c-.02 0-.02-.01-.08.18-.01.05-.03.12-.04.2l-.01.14v.08l-.06 1 1.14.07a180.18 180.18 0 0 0 5.76.2c.15 0 .3.01.44.01 4.97 14.07 15 38.6 15 38.6s.6 6.4 5.1 12.7 5.04 6.92 6.3 7.3c1.02.3 1.6-.8 1.6-.8s1.8 2.15 3.1 1.75c1.3-.3.6-2.14.6-2.14s1.06 1.25 2.14.2c.62-.6-.1-3.02-.84-5.63-.6-2.06-1.8-7.3-2.1-8.4-.2-1 1.2 1.3 2.94 2.94 1.1 1.3 3.16 1.46 1.76-1.34s-2.48-5.28-2.98-5.98-1.62-2.42-2.62-3.52l-1-1.1s-.9-.8-1.3-4c-.3-2.35-2.04-20.47-3-31.9h55.3l-.35-1.7-4.27-28.65.84-4.96c3.17-.02 15.98-.36 20.78-4.2 4.4-3.5 7.5-11.2 9.3-16.7 1.5-4.5 3.7-11.5 6.5-21.3 1.3-4.6 5.1-19.33 6.07-23.1l.73-1.1 3.9-6.2c.67-1.07 2.4-9.2 3.5-14.47.4-.4.66-.96.73-1.7.03-.32-.06-.6-.22-.8l.4-2.02h-.1c.2-.3.34-.68.44-1.13.35-1.78-2.47-2.16-3.87-2.43z" fill="#fff"/><path d="M269.62 174.2h0l.06.17z"/><path d="M321.06 77.4c-.58-1-2.3-1.34-3.44-1.53l2-6.46c.2-.63.06-1.33-.4-1.84-.43-.48-1.05-.7-1.65-.58l-4.4.74c-.57.17-1.24.6-1.35 1.1l-3.73 10.03c-.04-.01-.08-.03-.1-.04l-1.37 1.1-.86.7-1.62 1.42-1.53 1.47c-.5.53-.98 1.02-1.46 1.75-.7 1.26-1.52 2.47-2.2 4.1a7.15 7.15 0 0 0-.42 1.33c-.1.48-.16 1.03-.02 1.6l.6 2.78c.1.97.1 1.86.01 2.7l-.17 1.14-.32 1.05c-.48 1.37-1 2.57-1.55 3.76-1.08 2.4-2.3 4.72-4.45 8.38-2.1 3.46-4.43 7.1-6.68 10.4-.96 1.63-3 4.27-4.24 6.12l-.57.65c-.43.64-.95 1.38-1.45 1.97l.01-.05c-.65.95-1.46 1.96-1.8 2.42v-.05l-.85 1.1.12-.2-.78 1.04c.02.3.08.58.25.77.3.32.55.15.7-.03.01-.01.02-.03.03-.04.08-.1.13-.2.13-.2h.02l.7-.84c.83-1.02 1.46-1.84 1.7-2.45.94-1.28 1.2-1.45 1.7-2.1l-.2.3 3.55-4.9c.6-.92.6-1.15 1.74-2.75-.3.56.14-.1.56-.72-.26.4-.32.53.26-.25.06-.12.17-.3.27-.48.01 0 .03-.03.03-.01.68-1.03.54-.87.2-.4.01-.03-.03 0-.14.14.8-1 1.98-2.97 2.16-3.04 2-3.13 3.3-5.45 4.8-8.16.22-.28-.1.38-.53 1.17.37-.63.72-1.27 1.07-1.92.06.05-.57 1.13-.9 1.72 1.44-2.2 2.54-4.78 3.85-7.55l.2-.6.08-.17c-.03 0 .2-.66.34-1.1.22-.38.15.1.67-1.35.1-.28.23-.63.35-1.03.05-.2.1-.42.14-.66l.07-.68c.08-.92.06-1.9-.03-2.7.04.87-.02.6-.06.22-.06-.77-.06-1.23-.2-1.8l.06-.07c-.04-.04-.14-.45-.27-.9-.08-.27-.16-.56-.22-.8a2.17 2.17 0 0 1-.07-.44c.05-.2.02.08.1.37a8.29 8.29 0 0 0 .26.86c-.08-.36-.2-.7-.22-.9-.05-.2-.03-.38-.04-.52a3.61 3.61 0 0 1 .09-.63c.1-.33.13-.7.8-2 .7-1.43-.22.2.07-.5l1.06-1.87c.35-.67.74-1.24 1.34-1.8l-.4.32c1.77-2 3.06-3 4.48-4.1l.8-.7c.24.6.67 2.1-.04 4.37-.76 2.44-4.18 5.46-4.2 5.5l.42.48-.98 2.7c-.2.58-.13 1.2.2 1.73a1.94 1.94 0 0 0 1.52.85l4.24.15c1-.06 1.9-.54 2.52-1.26a6.82 6.82 0 0 0 2.22.17c.3-.03.5-.05.8.02.98-.22 2.07-.57 2.64-1.43-.2 1.13-.5 2.26-.83 3.35-.17.57-.38 1.18-.6 1.58a24.8 24.8 0 0 0-.92 1.53c.04-.08.02-.15.3-.6-.88 1.45-2.1 3.43-2.24 3.48-.54.88-1.1 1.77-1.78 2.78-.08.1-.1.22-.14.34l-.05.2-.33 1.26-.43 1.65c-.56 2.17-1.06 4.18-1.3 5.45l.02-.18c-.27 1.46-.47 1.86-.84 3.47-.04.08-.07.2-.07.18-.3 1.6-1.18 4.56-1.47 5.83l-.1.06-.8 3.1.32-1.16c.05.44-.67 2.33-1.26 4.58-.66 2.08-.92 4.33-1.67 6.47-.23 1.06.14-.95-.26.6-.1.02.16-.74-.03-.36-.42 1.53-.85 2.46-1.36 4.34l-.1.05c-.6 2.48-1.5 4.57-1.87 6.23-.72 2.53-.7 1.63-1.44 4.25l-.45.96c-.42 1.08-.17.83-.7 2-.03-.1-.67 1.5-.43.77-.6 1.32-1.2 2.68-1.9 4.1s-1.58 2.9-2.8 4.32c-.4.74-1.76 2.04-2.18 2.46-.06.02-.8.54-1.38.86-.6.28-.95.44-.04-.08.17-.08.42-.25.4-.22l.16-.2c-1.8.96-3.44 1.67-5.52 2.18.63-.1 1.44-.36.9-.15-.64.16-1.3.3-1.95.45.13-.04.26-.1.4-.15-.97.2-1.95.37-2.94.5l.42.01c-1.45.18-1.98.12-3.6.4-.74.13 1.4-.03-.15.14-.98.07-2.2.14-3.5.17l-1.97.05h-.77c.02-.24.02-.4.08-.62.02.3.15.18.25-.53l.07.5.01-1.36c.3-1 .42-2.66.65-3.05 0 0 .45-2.2.36-2.73.04.46.3-.75.36-.38-.03-.6.15-2.3.4-2.95l-.01.13c.56-2.47.53-4.3 1.08-6.52-.16.08.12-1.1-.1-.83.2-2.35 1.08-4.17.66-5.1.15-1.06.34-1.23.46-1.77l-.01.26.64-4.02c.07-.74-.17-.9.1-2.2.03.44.1-.1.2-.6-.04.32-.01.42.16-.2-.02-.1-.01-.24-.01-.37.01 0 .02-.03.03-.01.01-.1.02-.15.03-.22l.17-1.5c.02-.1.03-.2.05-.28-.3-.28-.55-.54-.74-.75-.13-.15-.2-.25-.2-.3-1.6-1.5-2.86-2.56-4.18-3.73-.2-.2-.38-.37-.57-.54 0-.12.34.13.76.48l-1.08-1c.1-.1.66.54 1 .84-1.1-1.4-2.74-2.38-4.07-3.97l-.38-.22-.08-.1c-.03.04-.42-.22-.65-.43-.13-.3.2-.18-.53-.9-.5-.65-1.68-1.56-2.47-2.26.4.4.22.33.01.2-.37-.35-.5-.64-.8-.88l.08-.15c.04.25-1.06-.82-1.24-.9-.13-.3.64.48.8.5l-2.2-2.13c-.86-.68.04.25-.43-.02-.7-.65-1.46-1.23-2.18-2.07l.15.34-.8-.7c-1.64-3.02-3.54-5.92-5.78-8.55-1.2-1.42-2.53-2.73-3.9-3.95-1.42-1.18-2.87-2.3-4.45-3.22-3.1-1.9-6.52-3.12-9.9-3.75l-.58-.24c-.24-.33-3.8-.05-4.3-.18-.53.03-1.07.05-1.58.1-.43-.03-1.37-.04-.6-.1-.77.02-1.14.04-1.47.08l-.07-.03c-.18-.27-2.75.1-3.12-.02-.38.05-.77.08-1.14.17-.32 0-1 .04-.44-.08-1.06.1-1.08.2-1.82.4-.38.04-.76.1-1.14.15-2.05.52-3.82 1.4-5.45 2.47-1.64 1.07-3.15 2.34-4.72 3.83-1.97 1.7-4.37 4.64-6.26 7.9-1.92 3.26-3.34 6.84-4.1 9.54-2.14 7.4-5.8 15.65-7.94 23.24-.1.23-.26.9-.23.9l-2.32 6.84s-6.33 18.8-5.14 17.57c.04.35.55-.58 1.94-3.95l.22-.5v.07c.05-.13.1-.24.13-.37l.34-.8c.08.02.15.04.23.05l.7.14c.45.08.9.15 1.35.2.17.22 1.58.37 2.02.53h-.05c1.2.13 2.4.65 3.56.8-.05 0-.08.04-.34-.01.83.16 1.97.38 2 .5 1.98.42 4.72 1.08 6.02 1.2h-.1c.74.06.94.2 1.75.32.04.02.1.04.1.05.8.07 2.3.5 2.94.6l.03.07 1.57.33-.58-.14c.24-.13 1.16.38 2.32.5 1.06.26 2.24.1 3.32.44.54.03-.5.03.3.14 0 .1-.38-.02-.2.1.78.13 1.24.38 2.2.53l.02.08c1.27.14 2.32.62 3.17.68 1.3.23.8.4 2.17.56l.5.2c.57.14.44-.03 1.06.16-.05.05.8.23.4.2 1.4.42 2.94.5 4.78 1.1.44-.03 1.37.25 1.7.23.04.06 1.9.43.8.3-.1-.01-.26-.05-.24-.07l-.14.04c1.04.38 1.97.36 3.03.62-.3-.1-.73-.18-.44-.17l1 .23-.22.01 1.46.36-.2-.12c.7.2.94.38 1.77.46.38.02-.66-.25.1-.1.08.02.16.04.24.07.08.02.07.02.1.04s.1.04.14.06l-.07.17-.02.04-.04.15-.08.32-.3 1.3c.03-.03.04-.01.05.02-.04.1-.1.28-.2.6 0 .14-.03.35-.06.54-.01.01-.03.04-.03.02-.02.1-.04.18-.05.26-.07.12-.15.2-.25.9l-.03-.13.08.38v.03c-.05.18-.1.37-.14.54.01.27-.24.1-.34.08-.12-.04-.2-.1-.22-.14l-2.4-.5-2.3-.44-.77-.14c-.1-.06-.54-.2-.33-.2-.44-.02-1.68-.24-2.16-.43l.08.01c.02 0 .04.01.06.01l-.08-.02a25.12 25.12 0 0 0-2.01-.45c.22-.04 1.25.23 1.85.34-2.5-.8-5.28-.97-8.2-1.84l-.64-.04-.17-.06c0 .06-.7-.02-1.13-.1-.01 0-.01-.01-.02-.01l.14.02c-.06-.01-.1-.02-.16-.03-.3-.2.06-.24-1.34-.56-1.14-.37-3.32-.7-4.86-.98.82.2.54.2.18.17-.74-.16-1.13-.37-1.7-.45l-.03-.13c-.13.1-2-.32-2.25-.32-.4-.2 1.16.16 1.37.12l-4.43-.98c-1.4-.2-.15.1-.35.17-.64-.1-1.3-.23-1.97-.44h-.32l-.1-.03c0 .02-.14.02-.3 0-.1-.02-.2-.05-.32-.07-.1-.1.02-.14-.64-.28-.57-.2-1.66-.34-2.43-.48.4.1.27.1.08.1-.37-.08-.56-.2-.86-.23l-.01-.1c.13.12-.98-.12-1.13-.12-.2-.12.58.07.7.04l-2.22-.5c-.77-.1.03.1-.24.1-.08-.02-.16-.05-.24-.07-.4-.07-.75-.12-1.12-.18-.28-.06-.55-.1-.85-.2l.15.1-1.03-.17a15.25 15.25 0 0 1-1.84-.49c-4.83-.75-5.47-.66-4.87-.37-2.5-.03 5.13 1.9 5.13 1.9l.8.2c-.1 1.4-.17 2.82-.2 4.27-.03 1.47.04 2.95.15 4.42.26 2.94.8 5.82 1.43 8.53l.9 3.3-.64 5.05-.38 3.55-.06.36.03-.08-.03.38c-.15.7-.28 1.15-.34 2.17-.02.58.25-1.05.1.14l-.3 1.74 5.3.12c-.14-.07.14-.08.52-.1l.58 1.62-.04-.06.67 1.82-.14-.3 2.88 7.66.01-.23c1.83 5.1 2.72 6.86 4.4 11.44l-.04-.05c2.47 5.65 3.44 9.12 6.03 14.93-.32-.72.1.33.04.28l.84 2c.07.17.15.35.14.35.03.17.05.34.08.5l.18.93c.26 1.15.53 1.9.62 1.9.6 2.07.48 1.7.5 2 .04-.02.2.42.47 1.04a35.02 35.02 0 0 0 1 2.2c-.12-.23-.25-.45-.36-.7a29.56 29.56 0 0 0 2.38 4.21c-.14-.3-.28-.57-.4-.87 1.38 2.15.2.66 1.63 2.62l.08-.1 2.57 3.72c.4.57.8 1.13 1.3 1.7a4.59 4.59 0 0 0 .94.84c.2.13.42.23.64.3.18.08.53.17.85.15.24-.02.47-.1.67-.2.1-.05.2-.1.28-.17l.08-.07c.03-.03.06-.06.08-.1.03-.01.06.06.1.08l.07.07.18.16c.16.14.33.28.5.42.36.26.75.5 1.25.67a2.03 2.03 0 0 0 1.68-.21 1.6 1.6 0 0 0 .59-.78c.1-.38.07-.34.08-.42 0-.08-.04-.2-.04-.24.06.06.13.1.2.13l.08.02c.13.02.27.01.4.01.27-.04.54-.12.74-.26.1-.06.2-.14.3-.22.12-.08.2-.22.3-.34.15-.28.2-.56.2-.77.04-.88-.15-1.58-.3-2.3-.34-1.43-.8-2.78-1.14-4.18l-1.07-4.15-.35-1.38c.72.86 1.47 1.7 2.43 2.5.17.1.35.2.57.3s.52.14.78.1c.54-.04.97-.5.98-1.06l-.01-.4c-.01-.12-.04-.2-.06-.3-.04-.2-.12-.37-.18-.56-.14-.35-.3-.68-.45-.97l-1.74-3.67c-.3-.6-.56-1.2-.93-1.83l-1.12-1.66-.27-.53c-.02-.1-.4-.6-.9-1.15-.52-.57-1.1-1.1-1.5-1.53l-.04-.04c-.06-.06-.2-.28-.2-.35-.23-.37-.4-.82-.56-1.28-.1-.4-.24-1.25-.06-.55-.26-1.32-.25-1.36-.4-2.35l-.1-1.5-1.6-16.04-1.03-12.3 4.15-.05 26.7.23 17.47-.07c.67-.05 1.46-.08 2.32-.1l3.17-.01h1.97c-.02-.2-.06-.43-.1-.64l-.36-2.4c-.14-.9-.3-1.8-.45-2.56l-.06-1.23c-.22-1.06-.45-2.32-.54-3.4l.04.06c-.33-1.6-.54-3.4-.7-4.2l.04.06-.3-1.95.1.33c-.5-2.78-.95-5.66-1.3-8.2l-.1.23c-.38-3.13-.73-5.1-1.07-7.16h.03c.13-1.8.38-.6.54-2.4l-.12-.34c.02-1.46.32-.97.36-2.14.1 0 .2.01.3.01.53.02 1.08.02 1.7.02 2.55-.1 5.15-.33 7.75-.74 2.6-.42 5.2-1 7.65-2.03 1.2-.56 2.43-1.23 3.38-2.17.97-.9 1.8-1.92 2.55-2.95 1.48-2.1 2.63-4.3 3.66-6.45l.25-.35c.2-.12.84-2.5 1.07-2.8l.33-1.06c.13-.28.38-.9.2-.36.34-.96.34-1 .53-1.7l.4-1.02c1.23-3.82 2.08-7.13 3.34-11.16.82-2.4 1.9-5.9 2.95-9.46l2.48-9.92c.9-3.76 2.03-7.8 3.17-11.83l.43-1.52c.03-.1 0-.03.1-.17l.23-.33.45-.65 1.7-2.64 1.65-2.62c.26-.45.54-.8.8-1.44a18.87 18.87 0 0 0 .43-1.49 9.4 9.4 0 0 0 .15-.55c.04-.2.07-.36.06-.36.6-2.35 1.14-4.7 1.65-7.07l.8-4.66c.4-.45.7-1.04.76-1.83.04-.4-.05-.73-.25-1.04l.26-1.4c.27-.37.42-.84.5-1.3.15-.52.01-.9-.23-1.28zm-60.22 46.93c3.55 3.57 4.6 4.92 7.9 8.1-.01.07-.02.14-.04.22-.06.43-.1.8-.16 1l-.01-.04c-.04 1.04-.47 2.1-.52 3.1-.01-.04-.05-.07-.01-.3-.1.72-.23 1.7-.34 1.75-.27 1.72-.72 4.1-.75 5.23v-.08c0 .64-.12.8-.2 1.52-.02.04-.03.08-.04.08-.01.7-.32 2-.37 2.55l-.07.02-.22 1.36.1-.5c.15.2-.3 1-.34 2-.18.92.06 1.93-.2 2.87 0 .27-.02.1-.05.02-.4-2.26-.77-4.2-1-4.2-.34-2.14-.2-1.76-.13-2.05-.12.03-.48-1.82-.77-3.5l.18.76-.9-4.78-.05.98c-.42-2.55.17-.7-.4-3.12l-.18.07c-.75-3.5-1.03-5.6-1.95-8.96a68.69 68.69 0 0 0-2.77-7.14l3.28 3.06zm-72.08 81.63c-.5 0-1 0-1.52-.01l.78-5.84h1.35c.05.13.1.28.14.4l.3 1.17c.36 1 .78 2.2 1.1 3.22l-.04-.06.47 1.3c-.8-.06-1.6-.13-2.57-.17zm-.84-7.05l.42-2.02.6 1.98-1.03.04zm83.15 3.64l.25 1.6.2 1.28.02.17c.01.06.03.13-.06.1h-.4-.1c-.06 0-.12.01-.18.01l-1.24.01-3.03.05-.8.01c-.16-.02-.4-.03-.83-.06-.2.03-.5.05-.77.07-.01-.01-.07-.01-.04-.03-1.12.02-1.4.05-1.22.06l-1.3.02c-1.5-.01-2.94.01-3.1-.1l-4.6.08-7.76-.08c-1.8-.08-3.65-.02-5.58.03l-5.2.02c-.2-.01-.4-.01-.6-.02l-.55.07c-.78.02-1.7.01-2.6.01-.16-.06-.48-.1-1.67-.1-1.5-.1-4.13.02-6.25.1l.05-.01a77.5 77.5 0 0 1-3.03.05l-.05-.08c-.04.03-.26.05-.58.07-.3 0-.6-.01-.87-.01l.06.05c-.22.01-.45.02-.67.02-.24 0-.47-.01-.7-.01v-.03c.55-.03 1.3-.04 1.45-.1h-1.46l-.47-5.66c4.03.12 10.62-.01 14.54-.1 5.93-.2 12.82.34 18.9.12.2.02.7-.02.7-.04l5.55.02s10.85.03 13.54-.22c.1.28.13.5.17.73a60.4 60.4 0 0 0 .29 1.87zm-.76-6.27c.32 1.96.27 2.52.36 3.43h-.04l-.03-.16c.01.06.02.1.02.16-.98-.13-3.14-.3-7.02-.5l.14-.03c-3.04-.07-4.95-.1-7.05.05-.33-.17-2.5-.02-3.2-.08l.07-.01c-1.86.13-3.82-.12-5.6 0 .07-.01.1-.06.52-.06-1.3.02-3.08.06-3.18-.04-3.1.02-7.45-.03-9.45.13l.14-.03c-1.14.1-1.47.01-2.74.07-.07-.01-.16-.02-.14-.03-1.24.1-3.6.01-4.6.06l-.06-.07-2.46.01.92.02c-.32.18-1.86-.12-3.65 0-1.67-.03-3.4.38-5.13.3-.83.1.73-.14-.5-.07-.04-.1.58-.06.26-.14-.16.01-.3.01-.46.01l-.03-.48c-.16-2.38 0-4.6.2-6.48.25-2.65.72-5.38 1.38-8.13.01-.05.03-.1.04-.14.05-.24.1-.73-.35-.83-.23-.05-.4.07-.5.23-.15.7-.27 1.3-.36 1.84l.02-.25c-.32 2.04-.52 2.62-.82 4.9-.03.12-.06.28-.06.26-.1 1.12-.3 2.75-.42 4.33-.12 1.58-.14 3.14-.06 4.05l-.06.12c.08 1.5.2 2.97.3 4.45l-.1-1.66c.22.56.13 3.37.53 6.58.23 3 .9 6.07 1.1 9.2.2 1.47-.28-1.3-.02.9-.1.08-.15-1.03-.18-.45.25 2.18.23 3.6.55 6.3l-.06.12c.47 3.5.53 6.65.9 8.98.44 3.63-.03 2.43.6 6.24.05.5.13 1 .25 1.52.18.6.34.92.48 1.17.07.12.14.22.22.34.1.12.14.2.37.43l-.04-.04c.16.17.38.4.68.76-.06-.02.32.4.58.74.27.34.46.6.1.22.6.78 1.17 1.6 1.77 2.48.14.2.33.46.43.62a13 13 0 0 1 .37.66l.73 1.45 1.54 3.13c.28.55.53 1.08.6 1.54 0 .08-.01.17-.08.2-.04.02-.08.01-.1.01-.03-.01-.06-.02-.17-.07-.2-.05-.47-.2-.7-.45-.36-.34-.65-.6-.96-.96-.6-.66-1.17-1.36-1.5-1.67-.01-.02-.07-.1-.17-.22-.06-.06-.12-.14-.2-.22-.04-.04-.08-.1-.15-.15-.03-.02-.07-.06-.13-.1-.02-.01-.1-.05-.15-.07-.01-.01-.1-.03-.17-.03-.1 0-.12-.01-.24.04a.65.65 0 0 0-.25.2c-.03.05-.06.1-.08.16-.04.12-.03.12-.03.2 0 .1 0 .14.01.2.01.1.04.2.05.25l.1.38.18.74c.22.93.34 1.48-.08.02-.07-.25-.18-.7-.15-.67l-.16-.33c.6 3 1.42 5.38 2.14 8.33-.2-.88-.5-2.04-.25-1.27.2.92.48 1.82.72 2.7l-.22-.54.5 2c.14.64.26 1.36.2 1.82a2.15 2.15 0 0 0 .09-.43c.01.22-.01.44-.05.53-.03.07-.03.05-.17.15-.1.05-.2.1-.27.1-.04 0-.08 0-.12-.01-.1.02-.34-.17-.52-.3a4.85 4.85 0 0 1-.26.12l-4.1-7.54c-.13-.24-.44-.33-.68-.2s-.33.44-.2.68l4.12 7.58a1.95 1.95 0 0 1-.15.11c.06.2.1.42.1.6v.23l-.01.08c-.03.1-.02.1.01.08.01-.02.04-.03.05-.08.01-.02.02-.04.03-.07.01-.07.01-.14.02-.2 0-.3-.07-.6-.04-.5.02.05.04.17.08.42 0 .1 0 .25-.01.32-.01.06-.03.12-.06.17-.06.1-.16.15-.37.2-.17.03-.38-.01-.63-.12-.24-.1-.5-.3-.75-.5a3.8 3.8 0 0 1-.37-.33l-.25-.25c-.05-.05-.1-.12-.18-.2 0-.01 0-.02-.01-.03l-3.98-6.82c-.14-.24-.45-.32-.68-.18-.24.14-.32.45-.18.68l3.66 6.26c-.05.01-.08.02-.14.03-.07.08-.13.17-.2.23l-.1.08a1.01 1.01 0 0 1-.15.07c-.1.03-.18.03-.3 0-.35-.1-.63-.25-.9-.5-.57-.5-1.1-1.22-1.6-1.88.13.3-.44-.43-1.02-1.2l-.01-.13c-2.25-2.93-.7-1.2-2.85-4.13l.22.23-.66-.7c-.92-1.34-1.06-1.77-1.27-2.2-.17-.46-.43-.9-1.2-2.55.57 1.3.08.7-.5-.97l.22.4c-.35-.9-.47-1.22-.65-1.84.22.54.17.27-.2-1.1.1.3.23.6.34.9-.3-.85-.55-1.72-.76-2.6-.04-.26-.07-.53-.1-.82l-.02-.2c-.01-.1-.02-.25-.08-.36l-.18-.45-.7-1.75c-.46-1.13-.86-2.12-.98-2.55 0 0-1.67-4.28-2.16-5.22.4.83-.5-1.53-.16-.9-.5-1.08-1.87-4.32-2.3-5.66l.1.24c-1.83-4.87-3.35-8.24-4.92-12.64-.01.23-.83-2.1-.72-1.48-1.8-4.48-2.83-8.33-3.7-9.87-.73-2.07-.76-2.5-1.1-3.57l.18.5c-1.3-3.9-1.66-5.04-2.5-7.97-.44-1.46-.67-1.64-1.28-4.3.27.84-.01-.24-.22-1.23.15.63.22.82-.03-.5-.06-.18-.13-.46-.2-.73 0-.01 0-.06.01-.04-.35-1.66-.3-1.37-.17-.6-.02-.04-.02.03.01.27-.3-1.74-.77-4.85-.65-5.07-.26-2.53-.32-4.7-.24-6.8.02-.77.05-1.53.1-2.28 6.4 1.63 10.52 2.2 18.86 4l14.55 3.57 3.84.84 8.74 1.95c.05 0 .14.05.17.01l.04-.18.1-.37.17-.73.32-1.34.68-2.96c.23-1.88 1.2-5.08 1.53-7.3l.3-.82c.12-.76.28-1.65.5-2.4l.02.06c.17-1.14.5-2.4.6-2.96l.02.05.3-1.37v.25c.35-1.98.8-4 1.23-5.76l-.17.12c1-3.77 1-5.22 1.9-8.62l.02.05c.53-4.42 1.66-6.83 2.14-11.4-.05.57.12-.23.14-.18.33-2.1.67-4.33.38-4.4.23-1.53.27-1.23.4-1.4-.05 0-.05-.3-.03-.74l-2.52 4.84c-.24 1.3-.43 2.73-.65 3.16 0 0-.68 3.22-.66 4 .02-.67-.38 1.1-.4.57-.04.86-.43 3.36-.78 4.32l.02-.2c-.9 3.63-1.13 6.3-2.02 9.54.17-.12-.3 1.6-.01 1.2-.58 3.43-1.76 6.1-1.48 7.45-.32 1.55-.55 1.8-.76 2.6l.06-.37-1.33 5.88c-.04.24-.06.43-.08.6l-2.92-.63-3.54-.73c-2.35-.5-4.65-1-6.77-1.56l-.18-.13c-.06-.15-1.3-.1-1.46-.25l-.55-.06c-.15-.06-.46-.15-.18-.12-.5-.12-.5-.1-.88-.14l-.5-.2c-1.94-.5-3.63-.72-5.68-1.2-2.43-.7-7.1-1.6-9.8-2.1-3.8-.65-8.07-2.13-11.96-2.77-.12-.05-.45-.08-.46-.06l-3.52-.8-1.78-.4 1.02-2.47-.01.18c1.36-3.7 2.17-6.07 2.8-8.73.4-.32 1.06-3.07 1.44-3.92l-.01.1c.55-2.36 1.75-4.66 2.3-6.92-.01.1.05.16-.1.67.5-1.62 1.18-3.84 1.37-3.9 1.24-3.85 3.1-9.2 3.67-11.72l-.01.18c.3-1.46.58-1.82 1.02-3.42.05-.08.1-.2.1-.17.18-.8.52-1.9.9-2.95.4-1.05.82-2.04 1.05-2.63l.14-.03a43.45 43.45 0 0 1 1.36-2.84c-.2.34-.38.7-.56 1.04-.1-.5 1.23-2.05 2.3-4.07 1.17-1.77 1.95-3.97 3.6-5.54.6-.9-.46.85.53-.4.15.07-.43.62-.06.4 1.02-1.18 1.88-1.72 3.28-3l.14.05c1.8-1.75 3.95-2.45 5.35-3.25.57-.28.98-.38 1.3-.46s.53-.1.75-.12c.44-.04.87-.12 2.13-.46l1.02.05c2.4-.5 4.85-.5 6.87-.36l.87.2a4.62 4.62 0 0 1 .83-.04c.83.1 1.52.22 2.04.3-.04 0-.1.01-.18.01l.8.12.36.08-.1-.04c1.63.25 3.3.55 5 1.12 2.07.66 4.24 1.65 6.33 3.25 1.08.45 3.07 2.23 3.78 2.74.01.04.27.28.6.6l1.03 1.1c.63.7.97 1.15-.1.1-.2-.17-.5-.5-.46-.5l-.34-.17c1.92 2.3 3.7 4.04 5.32 6.6-.44-.78-1.13-1.75-.6-1.14.5.8 1.02 1.56 1.48 2.38l-.4-.45c.7 1.2 1.37 2.42 1.98 3.67l-.15-.57c.87 1.86 1 2.6 2.07 4.64.5.92-.6-1.86.28.12 1 2.56 2.25 6.5 3.13 9.9.05-.35.3.56.57 1.5l-.1.14c.54 1.8.54 2.14.54 2.5s.01.7.44 2.48l-.15-.3.44.9c.83 3.27.07 1.82 1.03 5.46-.27-1.46.16-.74.4 1.08l-.2-.44c.2 1 .3 1.32.37 2-.16-.58-.22-.3.03 1.18l-.3-.96.67 2.74c.2 2.16.9 5.54.88 6.44 0 0 .64 4.62.98 5.66-.26-.9.1 1.64-.15.94.3 1.17.96 4.7 1.04 6.13l-.06-.27c.66 5.25 1.55 8.92 2.08 13.64.1-.24.4 2.26.5 1.62.9 4.74.95 8.83 1.78 10.5zm-2.2-25.98c.04.01.05.1.05.26-.01-.1-.03-.17-.05-.26zm.64-4.04c.02-.4-.1.15-.13.1-.2 1.4-.43 2.9-.15 2.98-.18 1.02-.23.82-.36.93-1.04-5.3-1.08-8.9-2.27-14.58.08-.5.15-1 .26-1.55.53-2.12 1.07-6.17 1.38-8.5.37-3.3 1.52-7 1.88-10.4.04-.1.04-.4.03-.4l.28-1.55.15.15 2 1.96 1.52 1.46.04.03v.05c-.03.23-.07.45-.1.67l-.2 1.33c0 1.3-.58 3.48-.66 5l-.22.56c-.03.52-.1 1.13-.24 1.63l-.03-.04c-.04.78-.24 1.63-.26 2.02l-.03-.04-.14.93-.02-.17c-.13 1.35-.36 2.73-.6 3.93l.16-.08c-.6 2.56-.46 3.56-1.05 5.87l-.03-.04c-.12 3.02-1.05 4.63-1.2 7.74zM308.9 95l-4.2-.15c-.3-.01-.56-.16-.73-.4a.91.91 0 0 1-.1-.83l1.4-3.84c1.15-1.17 2.84-3.1 3.4-4.87.73-2.35.38-4 .07-4.86l.08-.01 3.95-10.9c.03-.1.3-.32.66-.44l4.33-.73c.38-.07.63.15.72.26.2.24.3.57.2.87l-2.04 6.58c-.97-.28-2.66-.36-3.65.3-.48.25-.73.78-.88 1.3-.05.5.1 1.1.47 1.66.37.5.92.95 1.56 1.3-1.62.12-4.1.9-4.17 2.77-.05.5.2 1 .65 1.44.36.36.88.66 1.48.88-.86.26-1.86.74-2.36 1.42-.36.44-.5.95-.35 1.54s.5 1.06 1.04 1.4c.38.24.84.4 1.33.53-.8.2-1.75.57-2.25 1.27-.36.44-.5.95-.36 1.44.05.5.4.97.93 1.3.1.05.2.1.3.13-.42.35-.92.58-1.48.62zm5.25-1.06c-1.37.35-2.8.1-3.66-.43a.96.96 0 0 1-.58-.75c-.03-.3.04-.6.22-.83.44-.65 1.7-1.07 2.4-1.14l.7-.07c1.48-.25 3.08-.4 3.27.58.23 1.28-.1 2.12-2.35 2.64zm3.97-4.64c-.1.16-.24.68-.38 1.32l-.28 1.33c-.01-.2-.01-.4-.05-.63a1.68 1.68 0 0 0-1.13-1.33c.63-.22 1.34-.54 1.9-1.03-.03.15-.05.26-.06.34zm-3.1.24c-1.47.36-3.1.12-4.07-.5-.32-.17-.65-.44-.7-.84s.04-.6.2-.93c.53-.76 2-1.2 2.8-1.28l.7-.07c.2-.07.4-.1.63-.15.4.01.78.01 1.16-.03.32-.03.64-.07.96-.12.53.02 1 .1 1.37.3.22.18.34.37.36.57.1 1-.07 2.32-3.42 3.05zm3.5-4.25c-.02-.02-.06-.03-.08-.04.06-.02.1-.04.16-.07.01.06.03.14.04.22a1.2 1.2 0 0 0-.12-.11zm-1.68-.5c-.9-.06-1.85.05-2.62.17-1.27-.1-2.43-.48-3.07-1.07-.23-.28-.36-.57-.4-.87.04-1.6 2.82-2 4.03-1.9l.5-.05h1.25c.1.01.17.03.26.05l1.08.05c.8.1 1.55.3 1.9.66.12.2.14.4.16.6-.14 1.3-1 2.02-3.1 2.38zm2.96-3.98a1.59 1.59 0 0 0 .22-.13l.03.28c-.08-.05-.16-.1-.25-.15zm.55-2.45c-.28 1.35-1 1.9-2.46 1.92-.44-.06-.9-.1-1.32-.1-1.42-.2-2.7-.93-3.35-1.82-.13-.3-.37-.67-.3-1.07.07-.3.25-.53.53-.76.3-.13.78-.28 1.17-.32.7-.07 1.4.06 1.92.1.2-.02.4.06.72.13.92.22 2.55.46 3.03 1.2.12.2.14.4.07.7z"/></svg>