<svg xmlns="http://www.w3.org/2000/svg" viewBox="0 0 720 640" xmlns:v="https://vecta.io/nano"><g fill="#e8ecef"><path d="M567.85 484c35.44-45 56.6-101.78 56.6-163.5 0-146.05-118.4-264.44-264.44-264.44S95.56 174.45 95.56 320.5c0 61.72 21.15 118.5 56.6 163.5h415.7z"/><circle cx="360" cy="320.5" r="264.44" opacity="0"/></g><g fill="#fff"><path d="M449.22 312.8h0zM227.86 314h0zm-10.76-51.75l.02.2-.02-.2zm-51.68-69.1c-.02 0-.03.07-.03.27l.03-.27zm48.76-32.86c0 .02.04.03.16.03l-.16-.03zm-45.06-8.94l.24-.12c-.01 0-.08.02-.24.12zm22-18.06h0c0 .01.01.01.01.02l-.01-.02zM652.1 371.03c-2.83-.37-7.4-1.3-12.97 1.48-5.4 2.7-11.2 9.7-15.8 15.35l-26.37 32.32c-2.65-.02-4.45.23-4.45.23s2.38-13.64-5.48-24.08l8.04-24.23c13.7-42.35 20.3-89.92 20.3-89.92s-14.47 21.97-26.18 46.1L579.82 352a281.16 281.16 0 0 0-4.62 13.68l-5.94 20.27c-2.22-.33-4.34-.36-6.34-.15a519.71 519.71 0 0 0-1.63-15.68c-4.75-39.6-14.95-78.76-14.95-78.76s-8.5 39.95-2.62 83.2l2.82 18.64c-2.1 1.78-3.28 3.18-3.28 3.18s-16.03-18.32-46.38-13.17c-15.65 2.66-23.37 12.46-27.2 21.34-55.57-26.52-149.53-64.05-247.8-71l-9.1-123.78 4.34-10.24.16-7.84h-4.5l-.16-31.77H218l.2-5.45h-1.14l-25.68-16.2h-1.3l-24.87 16.2h-.3l.2 5.45h5.35l-.16 31.77h-4.5l.16 7.84 4.34 10.24-8.82 121.18c-13.43-.23-25.52-.2-36.2.01-4.25-15.7-9.1-26.12-9.1-26.12s-3.44 12.35-4.62 26.48l-15.25.43c.76 13.14 3.57 33.47 6.16 48.72l11.82 48.05a34.1 34.1 0 0 0-5.94 3.42c-2.85-6.4-8.22-17.98-17.87-37.36-2.57-5.15-6.98-11.8-10.7-14.88-1.95-1.6-4.5-2.38-7.6-2.64l-47.62-.68 37.14 10.25c1.87.52 3.46 1.55 4.55 2.97 2.2 2.86 5.97 7.97 8.03 11.92l9.1 18 6.64 12.38 7.35 14.03c-2.1 5.27-2.74 11.12-1.5 17a29.09 29.09 0 0 0 2.62 7.37c-4.52-.62-9.3.1-13.68 2.4-5.1 2.65-8.75 6.94-10.7 11.85h324.23l15.86-.53h227.55s7.44-4.58-1.72-18.9-24.05-11.45-24.05-11.45 6.3-7.44 1.72-21.76c-1-3.17-2.82-5.5-5-7.2l23.06-26.88c3.62-4.3 9.53-9.7 12.93-12.72 1.7-1.5 3.8-2.45 6.03-2.76l44.37-6.1-46.98-5.2z"/><path d="M571.6 368.08v.17-.17zm44.3-86.93c.02-.06.06-.3.15-.82l-.37.56.36-.5-.14.77zM104.56 421.88c.01.01.01.02.01.03.03.05.05.1.08.14l-.1-.17zm4.34-7.98c0 .01.01.02.01.03.01.04.03.1.04.12l-.05-.15zm4.05 7.32l.03.22v-.04l-.03-.18zm451.08 63.5l.5-.01h-.1l-.4.01zM245.6 135.02h45.77c8.62-.2 7.4-4.78 5.86-7.27-2.24-3.62-8.1-2.07-8.1-2.07s1.8-8.63-6.38-12.4c-7.07-3.28-12.24.52-12.24.52s-8.27-12.07-23.1-7.76c-14.7 4.28-13.27 17.93-13.27 17.93s.67 11.06 11.46 11.06zm22.14.4c.01.02.1.03.42.03l-.42-.03zm17.53-21.16l.1.05c-.06-.04-.08-.05-.1-.05zm169.37 50.76h101c15.6 0 13.6-20.98-1.92-19.84-6.42.47-10.68 1.2-10.68 1.2s5.03-21.1-15.3-29.58c-24.16-10.08-34.08 13.02-34.08 13.02s-12.95-6.43-24.7-.98c-13.6 6.3-10.6 20.65-10.6 20.65s-9.75-2.58-13.48 3.44c-2.56 4.16-4.57 11.76 9.76 12.1zm112.48-8.72v.2-.25c.01.02.01.03 0 .04zm9.88 163h0a11.14 11.14 0 0 0 13.13-8.64l13.27-64.22a11.14 11.14 0 0 0-8.64-13.13h0a11.14 11.14 0 0 0-13.13 8.64l-2.47 11.7-2.5 13.4-8.3 39.12c-1.23 6 2.65 11.9 8.64 13.13zm-.4 3.9v-.2.2zm15.48-90.52l.5.01c-.01-.02-.14-.02-.5-.01zm-23.9 72.3l.02-.1c-.02.08-.02.1-.02.1zm44.73 71.53h0c4.96 3.06 11.52 1.5 14.58-3.46l32.8-53.2c3.06-4.96 1.5-11.52-3.46-14.58s-11.52-1.5-14.58 3.46l-32.8 53.2a10.64 10.64 0 0 0 3.46 14.58zm1.77-23.9l.3-.4c-.02 0-.1.1-.3.4zm25.25 1.14c.04-.07.05-.1.05-.1l-.05.1zm-558.86 9.5a10.62 10.62 0 0 0 13.7 6.05 10.62 10.62 0 0 0 6.05-13.7l-22.57-58.3a10.62 10.62 0 0 0-13.7-6.05h0a10.62 10.62 0 0 0-6.05 13.7l22.58 58.28zm13.32 10.1h0l-.12-.16zm-3.58-45.68l-.06-.14c0 .01.01.02.01.02a.27.27 0 0 0 .05.12zm9.7 3.6c-.47-2.12-.45-1.83-.24-.18l.24.18z"/></g><g fill="#9ca5b2"><path d="M694.06 377.5c-.67.07-1.02.1.9-.17l9.2-1.18-10.57-1.23c.3.08-.04.06-.64.01l-1.55-.15-.1-.1c-4.02-.34-1.45-.33-5.44-.68l-.7.03c-3.6-.25-1.92-.37-5.93-.6 1.58.16.72.25-1.2 0l.5-.02-2.15-.2c.64.03.35-.07-1.23-.23l1.07.03-3-.2-6.9-.84-6.1-.6c1 .04-1.73-.3-.94-.28-1.3-.06-5.1-.42-6.6-.67h.3l-3.98-.5c-1.28-.1-2.53-.07-3.74.08-2.42.3-4.7 1-7.03 2.24.22-.08-2.13 1.36-1.5 1.1-2.18 1.57-3.98 3.2-5.4 4.58s-2.47 2.56-2.98 3.38l-2.74 3.03.35-.45-5.76 7.05c-1.02 1.3-1.07 1.6-2.98 3.88.56-.78-.2.16-.9 1.02.44-.56.56-.74-.4.36-.1.17-.3.42-.5.66-.01.01-.05.05-.04.02-1.16 1.45-.94 1.2-.4.55-.02.04.04-.01.22-.2l-3.63 4.27-8.86 11.1c-.37.37.28-.5 1.1-1.56l-2.07 2.56c-.04-.07 1.16-1.5 1.8-2.3-2.2 2.5-4.32 5.35-6.75 8.28-.58 0-1.17-.01-1.75.02a29.23 29.23 0 0 0-1.3.08l-.37.03-.18.02.03-.27.1-.93c.05-.65.08-1.3.1-1.95.01-.26 0-.53 0-.8l1.38-2.9.38-.6c.25-.58.55-1.26.88-1.8v.04c.38-.86.9-1.8 1.1-2.23v.04l.52-1.02-.06.2c.7-1.5 1.5-3 2.22-4.3l-.14.07c1.58-2.77 2.02-3.87 3.5-6.35v.04c1.57-3.3 2.92-4.98 4.6-8.36-.2.42.14-.15.14-.1.83-1.52 1.73-3.14 1.6-3.25.62-1.1.55-.87.7-.98-.07-.03.44-1 .92-1.86l-.2.4 1.37-2.47-.4.4c.78-1.28.34-.25 1.02-1.5l-.1-.04c.47-.8.9-1.45 1.3-2.07.2.1.4.22.66.35l1 .4c.4.1.82.25 1.3.32.97.2 2.16.25 3.54.05l-.14.05c1.63-.27 2.9-.83 3.93-1.5s1.85-1.42 2.5-2.35c.2-.07.6-.62 1-1.24.36-.6.73-1.25.95-1.55l-.02.07c.9-1.7 2.18-3.33 3.06-4.98-.03.07-.01.13-.23.5.7-1.17 1.63-2.77 1.77-2.8 1.68-2.77 4.1-6.6 5.05-8.45l-.05.14c.53-1.06.8-1.3 1.44-2.47.05-.05.1-.13.1-.1.6-1.15 1.96-3.2 2.47-4.12l.1-.02 1.33-2.2-.52.8c.02-.38 1.12-1.6 2-3.24.93-1.47 1.53-3.2 2.56-4.7.38-.78-.28.72.34-.4.1.01-.26.54-.03.3.63-1.1 1.17-1.72 1.94-3.08l.1-.02c.95-1.8 2.1-3.22 2.7-4.44 1.05-1.82.93-1.08 1.95-3.02l.53-.67c.5-.8.25-.64.83-1.5.02.1.73-1.1.46-.54 1.32-1.95 2.38-4.13 4.15-6.7.28-.66 1-2.14 1.02-2.7.06-.03.25-.83.36-1.4.07-.57.13-.9.1.01-.02.16-.08.43-.1.4l.03.23c.5-1.83.28-3.44-.17-5.2.12.53.23 1.26.1.78-.08-.56-.26-1.1-.42-1.65.07.1.1.2.17.32-.1-.4-.3-.8-.43-1.2-.18-.4-.36-.78-.57-1.15.05.1.07.23.1.35-.6-1.08-.74-1.57-1.8-2.52-.48-.42.74.92-.18-.01-.46-.52-1.1-1.06-1.86-1.56l1.6-2.6 6.04-10c2.26-3.86 2.95-5.47-3.27 3.56l.05-.14c-1.77 2.73-2.85 4.47-3.9 6.46-.25.16-.9 1.33-1.4 2.18-.84-.45-1.75-.82-2.65-1 .18.14-.38-.02-.97-.07l-.06-.08c-1.14-.1-1.34-.04-1.55-.1-.2-.05-.42-.1-1.54.08l-.38.18c-.98.26-1.23.36-1.54.4-.15.04-.3.08-.54.18-.25.1-.58.25-1.05.56.8-.4.43-.06-.52.44l.2-.2-1 .68c.26-.25.1-.2-.6.36l.42-.44-.62.58-.56.63c-.5.43-1.02 1.1-1.43 1.7-.4.6-.7 1.13-.9 1.32 0 0-1.43 2.23-1.66 2.8.22-.5-.57.74-.42.34-.3.63-1.3 2.38-1.8 3.03l.07-.14c-1.65 2.5-2.6 4.43-4.1 6.67.14-.06-.65 1.13-.37.9-1.37 2.43-2.86 4.2-3.1 5.24-.65 1.1-.86 1.24-1.22 1.8l.14-.27-2.52 4.12c-.43.77-.37.97-1.23 2.3.2-.47-.1.1-.42.6.2-.33.23-.44-.2.2-.04.1-.12.25-.2.4-.01 0-.03.03-.02.01-.5.85-.4.7-.14.33 0 .02.03 0 .12-.1-.6.83-1.5 2.43-1.65 2.48l-3.8 6.52c-.2.2.07-.3.42-.93l-.9 1.5c-.06-.05.5-.88.76-1.35-1.2 1.7-2.14 3.72-3.53 5.74l-.2.46-.1.12c.03.01-.22.5-.4.82-.24.26-.12-.1-.76.93-.56.78-1.4 2.33-2.02 3.4.36-.57.28-.36.15-.1-.32.52-.56.78-.78 1.2h-.1c.2-.16-.75 1.4-.83 1.6-.24.26.44-.83.48-1-1.26 2.08-.65 1-1.88 3.13-.58 1.2.2-.17-.04.43-.5 1.06-.8 2.16-1.03 3.48a3.31 3.31 0 0 1 .14-.41c-.24 2.16-.01 3.46.3 4.9.65 1.93 1.7 3.16 2.52 4 .84.83 1.56 1.23 2 1.47.1.26.13.3.2.45-.02.03.02-.04.08-.13.08.08.28.27.66.52-.15-.08-.3-.14-.44-.23-.08.16-.2.37-.3.58l-.1.02c-1 1.96-.54.62-1.56 2.56l-.1.4c-.85 1.8-.66.85-1.56 2.86.4-.76.34-.27-.2.64l.07-.27c-.28.52-.35.7-.55 1.04.14-.33 0-.2-.42.55l.2-.55-.7 1.5c-.7 1.07-1.6 2.86-1.93 3.27 0 0-1.38 2.35-1.58 2.95.2-.5-.55.8-.4.38-.27.66-1.23 2.5-1.7 3.2l.07-.14c-1.57 2.66-2.47 4.66-3.86 7.07.14-.07-.6 1.2-.33.93-1.27 2.58-2.6 4.54-2.8 5.6-.58 1.17-.77 1.34-1.1 1.94l.12-.3-1.14 2.33c-.01-.17-.01-.35-.02-.52-.2-2.6-.64-5.16-1.37-7.65-.76-2.48-1.78-4.9-3.17-7.08-.32-.5-.66-1-1-1.48.07-.2.15-.45.23-.73l-.07.36.2-1.07c1.04-3.55.78-1.84 1.9-5.8-.5 1.54-.4.67.27-1.2l-.1.5c.33-1.05.42-1.4.67-2.1-.17.64-.01.36.5-1.18l-.26 1.06.84-2.96c.83-2.23 1.9-5.83 2.3-6.73 0 0 1.53-4.48 1.83-5.84-.1.52.65-1.78.5-1.04.3-1.3 1.44-5.03 1.94-6.52l-.07.3a257.64 257.64 0 0 0 2.14-7.47l1.9-7.07c-.13.2.6-2.44.3-1.8.6-2.62 1.26-4.98 1.78-6.93.5-1.96.86-3.5.9-4.5.54-2.38.76-2.8 1.04-4.03l-.1.57 2-9.1c.32-1.67.22-1.96.9-4.93-.14.97.1-.24.33-1.36-.13.7-.16.94.18-.52a13.85 13.85 0 0 1 .12-.83c.01-.01.02-.07.02-.04.35-1.87.27-1.55.1-.68 0-.05-.03.03-.1.3.47-1.9 1.07-5.4 1.2-5.6 1.06-5.6 1.66-9.65 2.43-14.33.15-.52.01.6-.2 1.95l.55-3.32c.08.04-.28 1.92-.44 2.94.4-1.96.72-4 1.04-6.14l.48-3.27.72-4.52.12-1.26.07-.44c-.02.06-.01-.15.02-.5l-1 1.62c-.46.6.18-.6-1.8 2.5l-.5.77-.47.74-1.03 1.7-2.05 3.48c.7-1.1.5-.73.23-.23-.6 1-1.02 1.53-1.45 2.32l-.1.04c-.02.17-1.54 2.7-1.7 3.06-.4.53.87-1.58.98-1.86l-3.55 6.04c-1.2 2.2.3-.35-.22.73l-3.38 5.98.46-.66-4.55 8.2c-3.48 6.87-5.2 10.76-6 12.65-.8 1.9-.64 1.8-.1.83.56-.96 1.52-2.8 2.35-4.4l1.55-2.92 7.38-13.63 8.58-14.95 3.52-5.63.77-1.2.1-.14.05-.07c.07-.1.1-.15.15-.18-.04.2-.07.3-.1.4l-.6 3.66-1.6 9.55-3.54 18.72c-.48 2.87-1.65 7.86-2.32 11.23l-.36 1.28c-.22 1.16-.5 2.53-.82 3.67v-.08c-.35 1.73-.85 3.67-1.02 4.53v-.08l-.5 2.1.06-.37-2.2 8.8.14-.2c-.83 2.88-1.34 4.86-1.83 6.77-.5 1.9-1.04 3.73-1.84 6.3v-.08c-1.72 6.62-3.3 10.28-5.3 17.04.25-.84-.16.34-.16.27-1 3.1-2.08 6.38-1.93 6.5-.75 2.24-.66 1.8-.82 2.08.08.01-.55 1.97-1.13 3.72l.24-.8-1.63 4.93c-.95-1.17-1.98-2.27-3.1-3.25-1.93-1.7-4.1-3.06-6.38-4.14s-4.66-1.9-7.1-2.36l-.17-.03c.03-.28.05-.57.08-.87l2.24-7.8 1.57-5.33 2.06-6.82 2.15-6.6c2.57-7.95 3.34-11.16-3.68 8.16l.05-.27c-1.83 5.82-2.95 9.5-3.96 13.58 0 .01-.01.02-.01.03l.07-.94.93-10.63c.03-1.63.45-4.48.57-6.4l.16-.73c.04-.66.1-1.44.22-2.1l.02.04c.07-1 .24-2.1.28-2.58l.02.04.14-1.2v.2c.15-1.72.4-3.48.65-5.03l-.1.12c.56-3.3.6-4.54 1.18-7.52l.01.04c.38-3.82 1.1-5.96 1.53-9.9-.05.5.08-.2.1-.16.27-1.8.58-3.72.4-3.77.22-1.3.23-1.06.32-1.22-.08 0 .08-1.15.25-2.17l-.05.47.47-2.93-.24.55c.3-1.54.24-.36.46-1.85h-.12a46.04 46.04 0 0 1 .45-2.15c1.72.1 3.3-.01 4.4-.48l1.7-.6c.18-.05.36-.12.6-.27s.58-.32 1-.7c.25-.15.52-.27.75-.45.73-.63.45-.53 1.2-1.27.03.1.88-1.02.55-.5.8-.92 1.4-2.03 1.8-3.3.42-1.3.6-2.62 1-4.08.01-.67.4-2.15.4-2.64.07-.07.63-3 .4-1.3-.02.15-.07.4-.1.38l.03.22c.48-1.66.56-3.1.93-4.75-.13.5-.26 1.15-.2.7l.33-1.55-.01.34.5-2.3-.14.3c.27-1.13.48-1.5.64-2.8.06-.6-.32 1.05-.1-.15l1.33-5.7c-.12.16-.01-.36.08-.9l.1-.05c.32-2.07.32-.72.66-2.77l-.03-.38c.23-1.87.36-.96.58-3.04-.15.8-.24.35 0-.64v.27c.1-.55.1-.74.2-1.1-.03.34.07.2.22-.62l-.02.56.2-1.56c.32-1.16.6-3.05.8-3.52 0 0 .57-2.53.58-3.13-.04.52.28-.87.27-.45.06-.67.4-2.63.64-3.4l-.02.15c.68-2.86.9-4.94 1.54-7.5-.1.1.22-1.25.04-.94.44-2.7 1.23-4.82 1.1-5.85.23-1.22.38-1.42.52-2.05l-.04.3.93-4.63c.13-.85.05-1 .3-2.57.04.52.06-.13.1-.73-.01.38.01.5.08-.3a3.92 3.92 0 0 1-.06-.44c0-.01.01-.04.01-.02-.08-1-.1-.82-.07-.36-.01-.02-.02.02-.03.16.05-1.05-.5-2.84-.48-2.97-1.04-2.85-2.66-4.48-4.7-5.84-.17-.17.18-.01.64.3-.4-.3-.8-.55-1.2-.8.05-.05.9.47 1.33.82-.8-.7-1.8-1.23-2.86-1.6-.57-.2-1.16-.37-1.78-.5l.7-3.34 2.37-12.02c.85-4.6.96-6.45-1.9 4.7v-.16c-.76 3.33-1.2 5.44-1.54 7.77-.2.27-.45 1.86-.65 2.88l-.66-.1-.52.04-.15-.02c.01.03-.54.1-.9.13-.35-.05.01-.2-1.2 0-.98.1-2.68.77-3.73 1.47.6-.34.42-.2.18-.02-.53.3-.86.44-1.22.75l-.1-.04c.23-.1-1.2 1.07-1.28 1.3-.14.1 0-.08.2-.3.22-.2.48-.46.52-.53-.47.4-.74.67-.9.88-.18.2-.3.3-.4.42-.1.12-.2.24-.35.46-.17.2-.4.52-.7 1.05-.6 1.16.2-.16-.06.42-.53 1.02-.87 2.08-1.2 3.34.05-.13.12-.25.18-.38-.4 2.07-.65 3.3-1.03 4.66-2.55 15.44.24 3.4.24 3.4.73-3 1.2-5.3 1.66-7.7.22-1.13.64-2.26 1.33-3.4.7-1.12 1.68-2.28 3.14-3.22 2.62-1.57 4.7-1.64 6.57-1.5 1.88.28 3.9.8 6.2 2.9 2.17 2.04 3.38 5.25 3.17 8.15.03.68-.16 1.64-.4 2.7-.22 1.03-.44 2.1-.57 2.96l-.2.65c-.1.6-.2 1.3-.37 1.88V253c-.13.9-.37 1.88-.43 2.32l-.01-.04-.2 1.07.01-.2c-.26 1.55-.58 3.13-.9 4.52l.1-.1c-.7 2.96-.76 4.1-1.43 6.76l-.01-.04c-.48 3.45-1.26 5.35-1.78 8.9.06-.44-.08.18-.1.14-.3 1.62-.65 3.35-.5 3.4-.25 1.18-.25.95-.35 1.1.07.01-.1 1.04-.3 1.96l.06-.43-.52 2.64.25-.5c-.33 1.4-.24.32-.5 1.66l.12.01c-.42 1.93-.83 3.02-1.3 4.88l-2.38 11.9-1.18 5.87c-.2.97-.4 1.92-.66 2.77-.32.85-.68 1.68-1.2 2.4l-.24.2c-.08.03-.34.42-.6.85-.3.4-.6.82-.76.86l-.57.6c-.2.14-.6.4-.3.13-.6.44-.6.48-1.06.78-.25.1-.5.24-.75.32-1.34.62-2.68.98-4.07 1.1a9.87 9.87 0 0 1-4.29-.62c-1.74-.67-4.04-2.32-5.4-4.72a10.55 10.55 0 0 1-1.33-3.79c-.2-1.28-.12-2.5.05-3.52 1.06-5.95 3.02-12.7 4.1-18.8.06-.2.13-.7.1-.7l1.2-5.53s5.74-26.83.37-6.66v-.14c-.7 3.02-1.13 4.92-1.43 7.04-.24.3-.55 2.48-.75 3.18v-.07c-.26 1.88-.92 3.78-1.18 5.6 0-.07-.04-.12.05-.53-.25 1.3-.6 3.1-.7 3.16-.63 3.1-1.6 7.42-1.86 9.44V302c-.13 1.15-.3 1.47-.5 2.75-.03.07-.05.15-.06.14-.04.3-.1.7-.2 1.1-.05.43-.15.9-.2 1.35-.08.92-.04 1.8.05 2.33l-.06.08c.07.43.12.86.25 1.28.03.15.1.28.13.43-.01-.04-.02-.07-.03-.1.25.26.4 1.97 1.6 3.48 1 1.5 2.6 2.43 4.1 3.36.8.3-.74-.2.44.3 0 .1-.57-.2-.3 0 1.12.53 1.86.93 3.35 1.15-.01.1-.03.2-.05.32l-.1.06c-.3 2.3-.3.8-.6 3.08l.03.42c-.2 2.06-.34 1.07-.52 3.38.14-.9.23-.4.02.7l-.02-.3c-.1.6-.1.82-.17 1.23.02-.37-.07-.2-.2.7l.01-.62-.15 1.72c-.3 1.3-.54 3.4-.73 3.92 0 0-.52 2.8-.5 3.48.02-.58-.25.97-.26.52-.04.74-.32 2.9-.54 3.77v-.17c-.58 3.2-.77 5.48-1.27 8.36.1-.12-.16 1.4 0 1.04-.33 3-.93 5.42-.74 6.53-.16 1.36-.27 1.6-.37 2.3l.02-.33-.56 5.2c-.06.95.08 1.1-.13 2.8-.01-.55-.07.14-.13.77.03-.4.02-.53-.1.3a3.87 3.87 0 0 1-.01.47c-.01.01-.01.04-.02.02-.08 1.06-.05.88.01.4.01.03.02-.01.06-.16-.2 1.1-.28 3.06-.4 3.2-.27 3.2-.35 5.47-.53 8.13-.08.3-.08-.33-.04-1.1l-.14 1.88c-.08-.02.04-1.08.08-1.67-.24 1.67-.27 3.46-.4 5.34 0 .01 0 .01-.01.02-1.9-.26-3.78-.3-5.65-.14l-.35-3.6.05-.13-.47-4.57.16 1.7c-.23-.57-.26-3.47-.75-6.77-.32-3.1-1.16-6.23-1.48-9.45-.3-1.52.33 1.33-.06-.95.08-.1.2 1.06.2.46-.37-2.24-.43-3.7-.9-6.45l.06-.12c-.7-3.58-.95-6.82-1.5-9.2-.7-3.7-.2-2.53-1.02-6.36l-.17-1.52c-.28-1.65-.34-1.16-.62-3 .1.1-.38-2.32-.12-1.26-.7-4.15-1.74-8.36-2.7-13.82-.37-1.15-.86-3.9-1.14-4.76.02-.16-1.18-5.46-.4-2.43.07.26.17.73.14.7l.15.35c-.53-3.12-1.3-5.6-1.97-8.65.18.9.46 2.1.23 1.32l-.64-2.83.2.58-.95-4.22.06.6c-.45-2.07-.5-2.83-1.16-5.12-.3-1.04.37 1.97-.18-.2l-.7-2.96-.98-4-1.04 5-.4 2.18-.27 1.5c.14-.32-.03.64-.16 1.63l-.1.1c-.47 3.8-.4 1.37-.83 5.16l.01.68c-.3 3.43-.38 1.82-.64 5.64.17-1.5.24-.7.01 1.16l-.02-.48c-.1 1.03-.1 1.37-.17 2.05.02-.6-.07-.33-.2 1.17l.01-1.02-.15 2.86c-.27 2.2-.44 5.7-.6 6.6 0 0-.33 4.74-.28 5.83-.02-.96-.18 1.66-.22.9.03 1.23-.03 4.87-.16 6.32v-.28c-.1 2.7-.07 5-.07 7.23l.1 6.8c.07-.22.1 2.33.2 1.7.17 2.5.22 4.77.3 6.65.1 1.88.23 3.35.47 4.24.2 2.26.14 2.7.2 3.86l-.06-.54 1 8.6c.24 1.56.44 1.78.8 4.58-.2-.9-.02.25.13 1.3-.1-.67-.16-.87 0 .5.05.2.1.5.15.77 0 .01 0 .07-.01.04.27 1.74.25 1.44.14.62.02.04.02-.03 0-.28.18 1.82.78 5.04.7 5.28l1 5.9c-.08.08-.18.14-.26.22-.64.5-1.9 1.7-.87.68-.6.56-1 .97-1.33 1.3-.07.08-.14.15-.2.22l-.06.06c-.04.04-.07.1-.1.13l-.8-.73a33.28 33.28 0 0 0-2.14-1.97c-4.14-3.38-8.54-5.73-13.2-7.52-4.67-1.76-9.64-2.9-15.2-3.4-3.34-.24-7.47-.36-11.9.25-4.45.4-9.3 1.58-13.76 3.72-4.45 2.17-8.44 5.34-11.35 8.98-2.42 2.96-4.18 6.1-5.45 9.02l-18.04-8.42-1.47-.76c-.6-.43-9.56-4-10.82-4.67l-4.04-1.65c-1.12-.5-3.5-1.53-1.48-.7l-6.52-2.67-3.98-1.7c-14.74-6.04-27.47-10.7-43.3-16.2-9.47-3.4-23.3-7.83-37.45-11.9-14.14-4.12-28.68-7.56-39.34-9.94-14.98-3.32-31.3-6.36-47.84-8.73-11.13-1.6-22.36-2.8-33.3-3.6-.03-2.12-.18-6.12-.48-12.68l.05.26-.43-6.48 6.87-.02c3.17-.13 8.77 0 12.53-.1l1.45.07c1.3-.04 2.8-.06 4.1-.02l-.08.02c1.93-.05 4.1-.02 5.07-.05l-.08.02 2.35-.01-.4.03 9.9-.04-.25-.1 14.84.03-.08.02c7.46-.23 11.8.16 19.5-.06-.96.03.4.04.33.07 3.54-.02 7.33-.04 7.38-.2 2.58 0 2.1.05 2.44.12-.01-.08 2.23-.1 4.24-.1l-.93.03 5.78-.03-1.13-.14c3.06.04.78.17 3.7.14l-.04-.12c4.24.02 6.72.2 10.82.3l51.2-.04.7.1c.3.13 4.37-.2 4.98-.07l1.84-.06c.52.02 1.6.05.7.08 1.7.01 1.75-.02 2.98-.05l1.83.08 19.53-.06c8.5.16 24.52.01 33.74-.07 12.97-.2 28.05.32 41.33.1.43.02 1.55-.02 1.54-.04l12.15.02s58.92.05 14.16-1.02l.3-.03c-6.65-.07-10.84-.08-15.42.06-.72-.17-5.46-.02-7.02-.07l.15-.01c-4.06.13-8.36-.1-12.27.01.15-.01.24-.06 1.14-.06-2.85.02-6.75.06-6.96-.04-6.8.03-16.3-.02-20.66.14l.3-.03c-2.48.1-3.22.02-6 .07-.15-.01-.35-.02-.32-.03-2.7.1-7.9.02-10.1.06l-.14-.07-5.4.02 2 .01c-.7.18-4.08-.12-8 0-3.66-.02-7.42.38-11.22.3-1.8.1 1.6-.14-1.1-.07-.1-.1 1.26-.06.57-.14-2.66.05-4.36-.1-7.64-.03l-.13-.07c-4.28.14-8.07-.1-10.92.03-4.4.06-2.96-.22-7.55-.08l-1.8-.1c-1.97-.02-1.4.12-3.6.07.13-.06-2.76-.05-1.48-.1-4.93-.1-10.02.14-16.52-.03-1.4.12-4.68.05-5.74.14-.17-.05-6.56-.01-2.88-.13.32-.01.87-.01.84.01l.44-.07c-3.7-.14-6.73.08-10.4.05 1.1.02 2.53.02 1.57.07l-3.4-.01.7-.06-5.08-.04.7.08c-2.48-.04-3.36-.17-6.16-.06-1.27.06 2.35.1-.27.13l-12.54-.15c.4.1-.74.08-1.92.1l-.14-.07c-4.5.1-1.65-.16-6.1-.08l-.8.1c-4.03.15-2.17-.16-6.65.05 1.77-.01.83.16-1.34.13l.55-.07c-1.2.02-1.6.05-2.4.03.72-.04.38-.1-1.4-.1l1.2-.1-3.35.13c-2.6-.08-6.7.02-7.75-.08 0 0-5.56-.05-6.84.06 1.12-.07-1.95-.1-1.08-.18-1.44.08-5.7.14-7.4.06l.32-.01c-6.3-.1-10.78.12-16.44.01.26.1-2.73.04-2 .15-5.85.1-10.67-.23-12.8.12-2.66.02-3.16-.08-4.53-.1l.63-.02-10.14.02c-1.85.03-2.14.2-5.46.15 1.07-.06-.28-.05-1.52-.05.8-.01 1.04-.03-.6-.08-.23.02-.58.03-.92.04-.01-.01-.08-.01-.04-.02-2.07.02-1.7.04-.75.05-.05.01.03.02.33.04-1.07-.04-2.55-.04-3.8-.04l-.53-5.73c.13-.64-.33-4.75-.37-6.1v.13c-.4-3.5-.42-7.26-.8-10.65.02.13.08.2.14.98-.2-2.47-.5-5.85-.4-6.05l-1.46-17.94.05.26c-.27-2.15-.22-2.8-.45-5.2 0-.13 0-.3.01-.28-.28-2.34-.52-6.86-.7-8.76l.06-.13-.36-4.68.1 1.75c-.23-.6-.15-3.55-.5-6.93-.2-3.18-.85-6.42-1-9.72-.2-1.57.24 1.38 0-.97.1-.08.14 1.1.17.48-.22-2.3-.18-3.8-.45-6.64l.07-.12c-.4-3.7-.42-7.02-.73-9.48-.34-3.83.03-2.6-.4-6.57l-.02-.64.15-.33.24-.47.44-.9c.28-.6.54-1.2.73-1.8.04-.06.08-.24.06-.24l.78-1.8s2.13-4.95 1.55-4.72a5.9 5.9 0 0 1 .01-.73c-.07-.55.13.48.08-.3.1-.03.05.36.13.15-.03-.7.12-1.15.07-2.02l.08-.03c-.1-1.13.14-2.13.03-2.9-.02-.58.04-.78.1-.98.01-.06.02-.1.03-.16a1.26 1.26 0 0 0 .02-.26 9.96 9.96 0 0 0-.02-1.05l.02-.14-.6-.08a3.13 3.13 0 0 0-.77.05c-.1.03-.2.05-.5.03.03-.06-.73-.05-.4-.1-.73-.06-1.5-.01-2.3.01l-.03-1.35v-1.88l.08-3.86c.06-2.6.12-5.2 0-7.66.02-.16-.03-.57-.04-.57v-4.48s-.02-8.73-.3-10.9c.32-.03.65-.05 1 0l.17-.06h.05c0-.03.18-.08.3-.1.1.07-.01.16.4.16.32.07.9-.03 1.32-.07-.22-.01-.15-.05-.06-.08.2 0 .32.07.47.04l.02.1c-.07-.1.5-.1.6-.13.12.07-.34.06-.38.1l1.52-.01c-.02.02.01-.04 0-.15-.05-.7-.1.04-.16-.32l-.01-.74c0-.2 0-.4.04-.6l-.1.13c-.04-.72-.01-1.14.1-1.62-.1-.97-.17-1.62-.25-2.05h.18l.3.07c.1-.01.18-.02.27-.02-.33-.2-.6-.35-.85-.52-.08-.2-.15-.23-.2-.14a23.74 23.74 0 0 1-.74-.5c-.5-.35-1.05-.7-1.53-.95-.4-.24-.5-.3-.62-.4-.1-.1-.18-.16-.25-.23-.14-.14-.3-.28-.84-.53l-.34-.33c-.42-.28-.37-.1-.82-.43.06-.04-.57-.42-.26-.3-1.02-.76-2.26-1.26-3.6-2.3-.37-.1-1.05-.6-1.33-.67-.01-.07-1.43-.9-.56-.5.07.04.2.1.18.13h.14c-.74-.63-1.5-.86-2.3-1.4.22.17.54.36.3.27l-.74-.48.2.05-1.1-.73.1.16c-.52-.38-.64-.6-1.3-.9-.3-.12.46.4-.13.07l-2.66-1.86c.04.13-.2-.03-.47-.18l.01-.08c-1.04-.53-.27-.37-1.3-.9l.1.01-.34-.03c-.96-.43-.4-.43-1.48-.88.4.23.1.25-.36-.07l.16.02c-.27-.15-.38-.18-.54-.3.18.07.14-.04-.25-.27l.3.1-.8-.35c-.52-.42-1.47-.9-1.65-1.14l-.4-.27c-.12-.07-.25-.16-.38-.24l-.54-.32c-.14.01-.27.01-.4.02h-.01c.01-.04.02-.06.02-.06.2-.64-.06-.97-.12-1.73.04-.67.2-.84.14-1.54.01-.33-.02-.68-.04-1-.13-.15 0-.42-.1-.6l.07-.07c-.04-.06-.06-.14-.02-.2h.02c-.05-.1-.02-.2-.05-.24h.02l-.01-.1.03.02c-.06-.16-.06-.33-.04-.48l-.1.01c.1-.32-.08-.43.03-.72h.02c-.23-.36.16-.57-.06-.94.03.05.04-.02.07-.02-.02-.17-.04-.35-.2-.36 0-.12.05-.1.12-.12-.07 0-.1-.1-.1-.2l.03.04-.03-.28-.14.05c.04-.15.17-.04.14-.18h-.12c.02-.2.2-.32.3-.52.05-.82-.25-1.7-.04-2.47l.1-.03c.13-.01-.2-.2-.07-.24l-.06-.1c.02-.03.05-.08.08-.03 0-.08-.02-.08-.06-.14l.08-.1c.06-.32-.1-.6-.06-.94.16-.4.01-1.18-.07-1.63-.2-.63.32-1.35.1-2 .02-.02-.02-.07-.04-.07l.02-.6s.05-2.84-1.02-.68l-.03-.01c-.07.32-.08.52.06.74-.17.03-.02.26-.07.34l-.01-.01c.13.2-.1.4.01.6-.01-.01-.06-.01-.06-.05.02.14.06.33-.04.34.03.33-.02.8.14 1l-.03-.01c.1.12.02.16.07.3-.01.01-.02.02-.03.02.1.13.02.38.06.5l-.07.01.02.26.01-.1c.18.03-.1.2 0 .4-.02.18.38.36.3.54.1.1-.14-.08-.07.05-.1 0-.06-.06-.14-.03.05.13-.1.2-.03.37l-.07.01c.14.2-.1.4.03.53.06.2-.22.14-.08.36l-.1.1c-.02.1.12.07.07.17-.06-.01-.05.13-.1.07-.1.24.14.48-.03.8.12.07.05.23.14.28-.05.01-.01.32-.13.14-.01-.02-.01-.04.01-.04l-.07-.02c-.14.18.08.32.05.5.02-.05.02-.12.07-.08l-.01.16-.06-.03-.04.24.08-.03c-.04.12-.17.16-.06.3.06.06.1-.1.13.01-.05.16-.13.4-.15.6.1-.02.08.04.1.1l-.07.01c.1.22-.16.08-.08.3l.1.04c.15.2-.16.1.05.32-.01-.1.16-.04.13.06l-.07-.03c.02.06.05.08.03.12-.04-.03-.1-.02-.1.07l-.1-.06.13.16c-.08.12.02.32-.08.37 0 0-.05.27.06.33-.07-.05-.1.1-.18.05.08.07.14.27.06.36v-.02c-.1.3.12.52.01.8.1-.01.04.13.15.1.1.28-.23.5.12.62.02.13-.08.15-.1.22l-.02-.03c.03.24.03.3.02.5.03.1.2.1.15.26-.06-.05-.05.01-.05.07-.01-.04-.03-.05-.08.03.02.01.03.03.04.04h-.02c.02.1.04.08.05.04.01 0 .02 0 .04-.02-.08.1.01.3-.1.3.03.3.14.5.18.76-.06.03-.1-.03-.13-.1l.02.18c-.08 0-.05-.1-.06-.16-.13.2.13.44.01.68l.06.05-.01.01c.03 0 .08.05.1.1-.07.04-.16 0-.16.12-.07.1.03.28.07.4.01-.07.05-.05.08-.02 0 .06-.07.1-.04.14h-.1c.1-.02.1.16.13.18-.07.03-.06-.1-.1-.1.01.25 0 .12.01.37.07.13.1-.02.17.04.02.12.08.23.03.36l.08-.04c.07.22.06.35-.03.5.05.12.1.22.14.3-.1.01-.26.02-.5.03l-.74.5c-.2.12-.37.22-.5.28l.06-.05c-1.4.82-2.27 1.62-3.55 2.33.1.04-.57.42-.35.4-1.2.92-2.43 1.3-2.7 1.9-.57.4-.73.38-1.03.56l.13-.1c-1.06.73-1.38.93-2.18 1.45-.38.3-.36.46-1.1.9.2-.2-.1 0-.36.17.17-.12.2-.17-.17.02a.97.97 0 0 1-.18.16c-.01 0-.02 0-.02-.01-.44.3-.35.28-.13.15-.01.01.02.01.1-.01-.5.23-1.3.85-1.4.8-1.33.9-2.23 1.62-3.33 2.38-.16.04.08-.18.4-.4l-.78.53c-.04-.07.43-.34.67-.5-1.02.5-1.88 1.38-3.05 2l-.2.2-.07.03c.02.03-.2.23-.36.34-.2.04-.08-.14-.62.22-.24.1-.54.32-.85.55-.15.1-.3.24-.47.35l-.66.48c.47-.3.35-.16.2-.03-.37.24-.7.38-.97.58l-.2.03c.3-.1-.87.68-.9.74-.43.2.44-.36.43-.42l-1.4.9 1.3-.01c-.1.42-.2 1.1-.3 2.1l-.03-.05c-.01.53-.02.96 0 1.35s.06.67.16 1.3c-.07.1-.07.4-.06.7.43-.01.92-.04 1.14-.01l-.04.01a6.62 6.62 0 0 0 .31-.03c.08-.01.16-.01.25-.01.16 0 .33.02.5.03.33.03.65.06.96 0-.02.01-.04.06-.18.06.45-.02 1.07-.06 1.1.04.34-.01.73-.01 1.1-.01l.03 1.64-.02-.03v.86l-.03-.15a55.92 55.92 0 0 1 .02 3.65l.1-.1c-.1 2.4.07 3.3-.06 5.47l-.02-.03c.22 2.75-.18 4.35.03 7.18-.03-.35-.05.15-.07.12.02 1.3.02 2.7.2 2.72-.01.95-.06.77-.12.9.07-.01.1.82.1 1.56l-.03-.34.01 2.13.14-.42c-.05 1.13-.17.3-.15 1.37l.12-.01a26.48 26.48 0 0 1-.13 2.01l-.1.93c-.01.16-.03.33-.04.5-.01.2-.03.27-.04.66v.17l-1.74.08c-.15-.06.17-.1.56-.13l-.97.02c.01-.08.56-.05.86-.06-.4-.05-.84-.04-1.27-.03l-.75.03-1.03.03.02.85v.43c0 .1-.01.2-.01.3l.07.28-.01.08c.03 0 .1.3.1.5-.07.2-.16-.01-.14.66-.06.53.06 1.5.12 2.2 0-.37.05-.25.07-.1.01.34-.06.53-.02.8l-.1.03c.1-.13.1.87.16 1-.07.2-.07-.52-.13-.6l.05 1.9c-.3-.06.28 1.6.28 1.6.66 2.03 1.3 2.95 2.36 5.25.33.82.54 1.4.74 1.96l.3.8.18.46.18.42a43.25 43.25 0 0 0-.13 2.32c-.02 1.1.25-2.04.1.24l-.95 10.88c.1-.34.04.65-.02 1.67l-.08.1c-.18 3.9-.27 1.42-.47 5.3l.05.7c-.1 3.5-.3 1.88-.37 5.78.1-1.54.22-.7.05 1.18l-.04-.48-.12 2.1c.01-.63-.08-.34-.18 1.2l-.01-1.04-.08 2.92c-.24 2.24-.4 5.8-.57 6.73 0 0-.4 4.83-.37 5.94 0-.98-.22 1.7-.24.92-.01 1.26-.22 4.96-.4 6.43l.01-.28-1.03 14.28c.1-.22-.13 2.37.02 1.74-.26 5.1-.9 9.25-.7 11.1-.15 2.3-.28 2.73-.38 3.93l.02-.55-.62 8.8c-.08 1.6.06 1.87-.2 4.75 0-.94-.07.24-.15 1.32.04-.7.03-.9-.1.5.01.2-.01.5-.02.8-.01.01-.01.07-.02.04-.1 1.8-.07 1.5 0 .65.01.04.02-.03.06-.28-.1.9-.2 2.16-.28 3.23l-6.46.02.87.08c-4.5.07-7.2.06-10.24-.03-33.57.68-7.07.93-7.07.93 8.96.13 14.98.05 22.83-.03-.05.66-.1 1.13-.15 1.2l-.82 13.78c-.1.5-.07-.55.01-1.86l-.2 3.2c-.08-.03.1-1.84.14-2.82l-.17 1.83-.07 1.04-7.33-.1c-8.68-.1-18.92-.03-28.08.17l-3.73-12.43a106.14 106.14 0 0 0-1.15-3.43c-.4-1.14-.8-2.27-1.22-3.38-.4-1.12-.86-2.2-1.3-3.3l-.83-1.93-1.2-2.58c-.04-.1-.08-.2-.14-.3l-.24.94c-.07.3-.1.52-.1.52l-.42 1.6-.34 1.36-.48 2.02-.88 4.06s-.5 2.46-1.04 5.72c-.54 3.25-1.05 7.3-1.28 10.42l-.08 1.17c-5.58.24-9.5.5-10.36.6l.1.07c.9.04 4.08-.04 10.24-.16-.12 2.17-.1 3.5.04 3.1.22-.5.45-3.73 1.75-11.22v.2l1.74-10.33c.26-.45.8-3.63 1.1-4.64l-.01.1c.3-1.47.4-1.85.55-2.28l.33.86.87 2.02c-.05-.1-.12-.13-.35-.7.76 1.78 1.73 4.24 1.7 4.4 1.7 4.3 3.6 10.46 4.6 13.26l-.08-.2c.57 1.6.63 2.1 1.2 3.9.01.1.04.23.03.2.56 1.75 1.4 5.18 1.76 6.63l-.04.1.85 3.56-.3-1.34c.3.42.5 2.73 1.12 5.3.5 2.43 1.25 4.9 1.6 7.47.28 1.2-.3-1.05.04.76-.08.07-.2-.84-.2-.36.3 1.8.3 2.95.64 5.16l-.06.1c.5 2.87.42 5.47.74 7.38.22 3-.12 2.02.17 5.13l-.05 1.2c.04 1.33.15.95.13 2.44-.06-.1-.02 1.88-.1 1-.03 3.36.2 6.8.01 11.24.1.96 0 3.2.1 3.9-.04.12-.1 4.46-.16 1.96 0-.2 0-.6.02-.57l-.07-.3c-.2 2.52-.04 4.58-.12 7.08.04-.74.06-1.72.1-1.06l-.08 2.32-.04-.48-.16 3.45.1-.47c-.1 1.7-.25 2.28-.23 4.2.02.86.18-1.6.12.2l-.6 8.5c.1-.26.06.5.03 1.3l-.08.1c-.1 3.06-.24 1.1-.35 4.15l.07.54c-.04 2.65-.24 1.56-.27 4.22-1.74-.04-3.5.05-4.86.23-1.85.24-3.1.57-3.1.65-3.32.84-2.72.65-3.17.7.01.03-.17.06-.46.2l-1.22.48-1.68.64-.2-2.57c-.13-1.25-.3-1.44-.45-3.7.12.72.03-.2-.03-1.04.05.54.1.7.04-.4-.03-.15-.06-.4-.1-.62 0-.01 0-.05.01-.03-.13-1.4-.13-1.16-.1-.5-.01-.03-.02.02-.02.23-.03-1.46-.32-4.07-.22-4.25l-.96-10.75c.03-.4.14.42.23 1.44l-.2-2.5c.08.02.14 1.43.22 2.2-.08-2.98-.55-6.12-.65-9.6l-.1-.72v-.2c-.03.01-.13-.77-.17-1.28.04-.5.16.02.05-1.7-.01-1.37-.26-3.88-.4-5.66.04.96-.01.66-.06.24-.05-.86-.01-1.36-.08-2.03l.07-.07c-.08-.12-.2-2.3-.25-2.6.04-.5.13 1.34.2 1.55l-.28-5.2c-.15-1.84-.07.34-.2-.54-.1-1.63-.23-3.22-.26-5.1l-.06.6c-.2-3.06-.2-4.9-.15-6.97l-.3-10.4c-.07-1.53-.17-1.42-.27-.6s-.2 2.37-.26 3.7l-.1 2.47c-.26 9.04.3 13.7.92 24.4l1.24 21.66 1.1 14.14c.24 1.74.4 4.57.63 6.93l-.8.4-1.25-4.94-2.64-9.85c-.52-1.47-1.14-4.15-1.75-5.9l-.13-.7c-.2-.6-.43-1.3-.58-1.93l.03.03c-.32-.9-.6-1.92-.76-2.37l.03.03-.34-1.1.1.18-1.48-4.63-.05.15c-.87-3.1-1.44-4.13-2.24-6.92l.03.03c-1.38-3.4-1.67-5.53-3.1-9.02.18.44-.02-.2.01-.18-.6-1.63-1.2-3.38-1.37-3.35-.4-1.2-.28-1-.27-1.17-.07.03-.45-1-.78-1.93l.17.42-.95-2.66.05.57c-.46-1.43.04-.42-.47-1.76l-.1.06c-.26-.76-.45-1.4-.62-2.02.27-.12.44-.2.5-.28l.12.3H95l.1-.03.13-.04c.1-.03.18-.06.28-.1.2-.07.42-.14.64-.25.43-.22.92-.45 1.33-.74a7.18 7.18 0 0 0 1.04-.78c.26-.2.4-.36.4-.36 1.23-1.16 2.05-2.45 2.6-3.74a10.89 10.89 0 0 0 .84-3.99 11.22 11.22 0 0 0-.76-4.23l-1.85-4.6c-2.34-6.15-2.82-7.84-5.34-14.18l-3.62-9.22c-.66-1.36-1.5-3.9-2.26-5.52l-.18-.67a16.85 16.85 0 0 1-.73-1.82l.03.03c-.38-.84-.73-1.82-.92-2.23l.03.03-.4-1.04.1.17c-.63-1.47-1.23-3-1.74-4.38l-.04.14c-1.03-2.94-1.6-3.94-2.52-6.6l.03.03c-1.5-3.23-1.88-5.3-3.4-8.63.2.42-.03-.2-.01-.18-.68-1.67-1.96-3.13-2.1-3-.86-.95-.7-.77-.77-.95-.04.06-.88-.68-1.75-1.18l.4.22a11.75 11.75 0 0 0-2.57-1.25l.47.33c-.7-.3-.77-.35-.85-.4-.08-.05-.14-.1-.85-.27l-.01.12c-1-.2-1.83-.36-2.66-.37-.83-.05-1.65.02-2.67.22-.03.01-.07.02-.1.03l-1.1-2.9-4.32-10.86c-1.75-4.12-2.6-5.64.88 4.76l-.08-.13c1.1 3.06 1.84 4.98 2.77 7.02-.03.3.5 1.52.87 2.44-.65.25-1.28.55-1.87.93-.9.6-1.76 1.3-2.47 2.14-.7.84-1.3 1.77-1.74 2.77a12.32 12.32 0 0 0-.87 3.14c-.12 1.08-.1 2.17.07 3.22.2 1.04.54 2.1.9 3l2.05 5.5.04.34c-.07.18.93 1.87.92 2.18l.37.8c.07.24.23.73.05.34.3.76.32.77.56 1.3l.24.84c1.1 3 2.23 5.5 3.42 8.65 1.3 3.84 4.2 10.9 5.87 14.95 2.4 5.7 4.53 12.57 7 18.38a4.27 4.27 0 0 0 .3.67l1.04 2.7c.33.88.7 1.86 1.25 2.72 0 0 .05.1.17.28l.53.73c.5.58 1.2 1.4 2.2 2.1a11.03 11.03 0 0 0 3.48 1.68c1.28.36 2.6.48 3.74.38a10.92 10.92 0 0 0 1.83-.34c.04.1.08.2.12.32l-.05.1c.82 2.04.1.82.9 2.85l.23.33c.8 1.8.2 1.05 1.1 3.06-.3-.8.02-.44.34.58l-.16-.23c.2.55.3.73.4 1.1-.15-.32-.16-.14.13.67l-.27-.52.66 1.5c.34 1.22 1.08 3.1 1.15 3.6 0 0 .84 2.6 1.13 3.15-.24-.5.2.94 0 .56.3.64 1.02 2.6 1.2 3.42l-.06-.15c.9 2.95 1.8 4.96 2.53 7.63.04-.15.44 1.26.44.88.98 2.7 1.3 5.05 1.94 5.94.4 1.24.36 1.5.53 2.15l-.1-.3 1.38 4.76c.27.86.46.96.85 2.53-.2-.5-.01.15.15.73-.1-.37-.17-.48 0 .3.05.1.1.27.16.42 0 .01 0 .04-.01.03.3.97.26.8.15.34.02.02.02-.02 0-.17.2 1.03.76 2.83.7 2.98l2.1 7.46c.02.3-.18-.27-.38-.98l.46 1.74c-.08 0-.3-1-.45-1.52.24 1.27.63 2.56 1 3.92-.36.2-.7.4-1.05.62-.54.34-1.1.65-1.63 1l-.17.13-4.24-9.15c-.92-1.68-2.26-4.78-3.33-6.78l-.32-.82c-.37-.7-.8-1.5-1.1-2.22l.04.04c-.55-1.03-1.1-2.22-1.38-2.73l.04.03-.63-1.27.13.2c-.94-1.8-1.86-3.68-2.65-5.34l-.01.18c-1.65-3.58-2.46-4.8-3.93-8.03l.04.03-2.82-5.14c-.9-1.57-1.85-3.14-3.32-4.97.36.46-.1-.23-.07-.2-1.3-1.73-2.85-3.45-3-3.36-1.08-1.15-.86-.96-.95-1.16-.06.07-1-.9-2.1-1.62.16.1.33.2.5.32-.97-.73-2.08-1.27-3.2-1.64.2.13.4.24.6.38-1.77-.66-.4-.37-2.15-.8v.12c-1.28-.27-2.26-.47-3.32-.54l-3.23-.2-30.84-.4-.42-.1c-.18-.13-2.64.15-3 .03l-1.1.04c-.3-.03-.97-.06-.42-.08-.5-.01-.78-.01-1 0l-.85.03-1.94-.1-9-.12 5.53 1.48 5.4 1.48c4.9 1.52 14.23 3.94 19.6 5.34 3.77.95 7.9 2.13 11.87 3.37.93.36 1.8.87 2.54 1.53a7.66 7.66 0 0 1 .99 1.07l.94 1.26 3.62 4.95a8.31 8.31 0 0 0 .32.46c.12.16.22.3.23.28 1.35 2.03 2.58 4.07 3.64 6.28 0 0 15.98 31.7 4.75 7.14l.1.15c-1.75-3.6-2.87-5.86-4.24-8.26-.02-.23-.38-.97-.83-1.76l-1.2-2 .06.07c-1.4-2.02-2.7-4.3-4.18-6.14.07.07.13.08.45.52-1.02-1.4-2.48-3.24-2.48-3.4-.62-.85-1.52-1.75-2.57-2.38-1.03-.66-2.3-1.05-3.38-1.3-2.2-.6-4.2-1.12-5.5-1.4h.18c-1.47-.3-1.87-.5-3.5-.9-.08-.04-.2-.07-.18-.08-1.6-.33-4.6-1.25-5.87-1.56l-.06-.1-3.13-.85 1.17.34c-.45.07-2.34-.76-4.64-1.28-2.12-.6-4.4-.82-6.6-1.52-1.07-.2.96.12-.63-.25-.03-.1.75.14.37-.04l-1.08-.3-.5-.15-.38-.12c-.38-.13-.66-.23-1.28-.36l.22-.02c-.83-.16-1.44-.35-1.72-.45.76.04 1.24.07 1.38.01a4.92 4.92 0 0 1 1.2.09c.35.05.04.08 1.63.03l1.07.12c1.18.03.85-.1 2.16-.04-.08.06 1.66.07.9.12 2.97.14 6.03-.05 9.95.17.85-.1 2.82-.01 3.46-.1.1.06 3.95.07 1.73.15-.2.01-.53 0-.5-.02l-.27.07c2.23.17 4.06-.02 6.27.03-.65-.03-1.53-.04-.94-.08l2.05.04-.43.06 3.06.08-.42-.08c1.5.06 2.02.2 3.7.1.76-.05-1.42-.12.16-.12l7.55.26c-.12-.04-.01-.06.22-.07.1 0 .3-.01.37 0 .16.01.33.02.5.04l.07.08c1.3.1 1.54.23 1.76.3.22.1.45.16 1.67.5l-.23-.02c.23.01.45.05.68.07 1.1.36 1.33.6 1.6.77.27.22.57.37 1.6 1.16-.8-.66-.25-.47.67.44l-.28-.17c.52.48.7.63 1.03.98-.33-.28-.22-.1.5.67a11.9 11.9 0 0 0-.54-.46c.48.45.95.92 1.4 1.4.94 1.22 2.45 3.14 2.7 3.73l.97 1.46c.5.77 1.05 1.64 1.3 1.93-.4-.54.52 1.05.18.64.52.7 1.8 2.9 2.16 3.84l-.1-.17c1.6 3.44 3 5.76 4.4 8.87.01-.18.76 1.46.66 1 1.65 3.1 2.6 5.88 3.48 6.87.7 1.44.75 1.75 1.1 2.5l-.18-.34 2.65 5.5c.5 1 .73 1.08 1.54 2.9-.33-.56.03.18.34.85-.2-.43-.3-.55.08.35a4.86 4.86 0 0 1 .27.48c0 .01.01.05 0 .03.54 1.12.47.92.24.4.02.02.01-.03-.05-.2.47 1.2 1.52 3.27 1.48 3.46l2 4.22-.4.3.42-.26a.3.3 0 0 0 .04.08c-2 1.42-.47.05-3.08 2.4l.12.05c-.54.45-1 .94-1.43 1.4l-1.27 1.33c-.73.93-1.46 1.78-2.1 2.67-1.08 1.6-2.14 3.23-3.05 5.33-1.06-1.92-1.73-3.23-2.4-4.7-10-17.6-2.8-3.34-2.8-3.34 1.52 3.07 2.78 5.47 4.08 7.88l.7 1.27c-1.45 3.8-2.15 7.97-1.93 12.13l.1 1.58.5 3.14c.1.52.24 1.03.38 1.55a29.65 29.65 0 0 0 1 3.02c.2.5.4.98.62 1.47l.14.3.1.22-.44-.04a25.33 25.33 0 0 0-1.35-.06c-.93-.02-1.87.04-2.8.14-1.85.2-3.68.62-5.42 1.26-3.5 1.26-6.65 3.33-9.15 5.98a23.4 23.4 0 0 0-3.24 4.33c-.23.38-.43.8-.64 1.18l-.3.6-.2.4-.2.48-.4.96c-.18.23.15.13.3.16h2.23l10.17.06.92.1c.4.13 5.74-.2 6.54-.07l2.42-.06c.68.02 2.12.05.9.08 2.24.01 2.3-.02 3.9-.05l2.4.08 25.64-.06c11.17.16 32.2.01 44.3-.07l54.26.1c.28.01.8 0 1.23-.01s.8-.03.8-.03l8.04.01-.01.01.77-.01h3.3c.13.01.1.02-.3.03l2.5-.03h1.4l1.36.05 21.32-.06 18.56.05c.17.63.2.55.15 0l18.12-.13c14.16-.2 30.62.32 45.1.1.24.01.66 0 1.02-.01s.66-.03.66-.03h13.26s64.32.05 15.45-1.02l.33-.03c-7.26-.07-11.83-.08-16.84.06-.8-.17-5.96-.02-7.66-.07l.16-.01c-4.43.13-9.12-.1-13.4.01.17-.01.26-.06 1.24-.06-3.1.02-7.36.06-7.6-.04-7.43.03-17.8-.02-22.56.14l.33-.03c-2.7.1-3.5.02-6.54.07-.17-.01-.38-.02-.35-.03-2.96.1-8.62.02-11 .06l-.15-.07h-5.88l2.2.01c-.6.14-3-.01-6.04-.02-.24-1.66-.9-4.4-1.9-6.66-.26-.6-.52-1.18-.78-1.7l-.76-1.35-.72-1.25c-2.4-3.76-5.26-6.54-8.3-8.66-.24-.17-.5-.32-.73-.48l.43-.78c.45-.8.86-1.6 1.34-2.38-.17.2-.3.4-.45.6.7-1.15 1.27-1.85 1.8-2.63.5-.8 1.16-1.54 2.05-2.76.8-1.1-1.65 1.92.08-.3.54-.72 1.28-1.4 2.02-2.18.38-.38.75-.8 1.17-1.18l1.32-1.13c.45-.38.9-.78 1.36-1.15l1.46-1.04c.5-.34.96-.7 1.46-1.02l1.5-.88c-.4.17.62-.53 1.75-1.1h.17c2.15-1.08 2.57-1.23 3-1.32.43-.08.83-.26 3.1-1l-.4.15 1.18-.45c1.04-.28 1.7-.5 2.2-.55s.8-.08 1.12-.1.65-.06 1.2-.13c.55-.1 1.32-.15 2.5-.22-1.9.06-.9-.14 1.44-.17l-.6.1c.65-.04 1.08-.03 1.45.01.38.02.7.05 1.13.1-.77-.03-.4.07 1.48.22h-1.28c.6.05 1.2.01 1.8.13l1.77.28c2.72.55 6.87 2.1 7.78 2.8l.85.43c.52.25 1.17.7 1.88 1.13.72.4 1.42.94 2.03 1.38.6.43 1.13.8 1.4 1-.95-.73 1.5 1.44.75.9.64.44 1.72 1.52 2.82 2.62 1.02 1.18 2.06 2.4 2.53 3.2l-.2-.27c1 1.36 1.8 2.7 2.6 3.98.7 1.32 1.4 2.56 1.94 3.86.62 1.26 1.04 2.58 1.53 3.9.38 1.36.84 2.73 1.1 4.23.01-.14.18.57.33 1.22.04.18.07.28.1.5l.1.57c.05.3.08.35.06.02l.55 3.67c.02.04.01.22.05.1l.22-.4 1.3-2.37.68-1.14.55-.83c.35-.55.74-1.03 1.08-1.5 1.43-1.88 2.74-3.2 3.42-4.13 1.04-1 1.7-1.54 2.25-1.93.55-.4.94-.7 1.57-1.1l-.55.4c2.15-1.6 3.7-2.4 5.07-3.13 1.4-.7 2.67-1.24 4.56-1.9 1.9-.6 2.13-.93 5.66-1.63-1.14.26.3 0 1.64-.23-.85.16-1.1.23.65-.04.24-.06.62-.14.97-.2.02 0 .1-.01.05.01 1.1-.22 1.57-.27 1.62-.3.05-.01-.3.01-.82.1.05-.02-.04-.02-.36.02 1.16-.17 2.78-.33 4.13-.5 1.36-.2 2.47-.2 2.62-.17 6.72-.5 11.6-.26 17.03 1.18.6.2-.7-.07-2.26-.45 1.28.33 2.57.62 3.82 1.07-.03.03-.57-.14-1.25-.36l-2.12-.55a45.26 45.26 0 0 1 6.9 2.39c2.32 1.02 4.6 2.38 6.98 3.86a33.77 33.77 0 0 0 1.04.53l.3.17c0-.02.28.12.66.3l1.18.63c.64.46-.12.1 2.2 1.58l7.35 5.3c-1.22-.95-.8-.68-.26-.3 1.1.85 1.68 1.4 2.53 2.04l.03.12c.2.06 2.92 2.25 3.3 2.53.57.55-1.7-1.3-2-1.5l6.42 5.3c2.3 1.87-.35-.42.78.44l1.28 1.07.57.48c.1.06-.03.04-.07.05l-.18.01-.37.02-1.76.07-2.18.05.95.05c-4.9.23-7.85.32-11.17.34l-7.98.43-3.07.1v.08c-18.6 1.13 3.36.58 3.36.58l10.26-.28 7.78.08 55.9-.12 49.74.14 32.53-.04c4.96-.13 13.7 0 19.58-.1l2.27.07c2.02-.04 4.4-.06 6.43-.02l-.13.02 7.93-.05h-.13 3.67l-.63.03 15.47-.04-.4-.1h11.97 5.14l6.24.03-.2.03c.32.08.6-.26.8-.37.15-.14.3-.27.43-.4a6.68 6.68 0 0 0 .72-.89c.2-.3.4-.63.57-.95.14-.33.3-.66.42-1 .5-1.34.57-2.7.55-3.98-.13-2.57-.86-4.87-1.78-7.06-1-2.15-2.08-4.26-3.6-6.34-1.42-2.13-3.36-4.14-5.84-5.96 1.26.88-.5-.42-.4-.37-2.32-1.65-5.04-2.84-7.2-3.44l-1.5-.36c-.45-.1-.85-.14-1.18-.2-.66-.1-1.05-.12-1.08-.08a26.6 26.6 0 0 0-2.25-.21c-.5-.04-.82-.05-1-.06-.4-.02-.33-.05-.6-.08.01.02-.3.03-.8.08-.33.02-.4.03-.55.06-.14.01-.36.06-.48.06.07-.1.14-.2.22-.33l.1-.2.06-.1.1-.2c.3-.58.6-1.2.85-1.83-.17.47-.38.92-.58 1.37.7-1.38 1.18-2.85 1.52-4.35.2-.74.28-1.5.4-2.26.06-.76.17-1.52.18-2.3-.04.6-.2 1.2-.27 1.78l.15-1.45.04-.85c.02-.4.05-.56.07-.7.04-.28.08-.54-.12-2.86l-.1.07c-.36-3.34-1-5.9-1.88-8.42-.86-2.14-2.15-4.2-4.25-5.96l4.78-5.54.13-.05 3.15-3.67-1.2 1.36c.27-.6 2.47-2.7 4.67-5.43 2.15-2.48 4.04-5.3 6.3-7.85.98-1.3-.82 1.18.7-.7.12 0-.7.9-.22.48 1.5-1.85 2.6-2.93 4.45-5.2l.13-.04c2.4-2.98 5-5.18 6.75-7.03 2.83-2.75 2.07-1.66 5.02-4.53l1.25-.97 1.15-.9c.26-.2.54-.4 1.4-.77-.04.05.5-.17.95-.3.45-.13.78-.2.27-.03.5-.14 1.02-.25 1.54-.33l1.67-.23 3.48-.5c2.4-.36 4.97-.73 7.86-1.04 1.24-.3 4.15-.62 5.08-.84.16.03 5.83-.8 2.58-.23-.28.05-.78.1-.74.1l-.38.13c3.3-.3 5.97-.9 9.24-1.32-.97.1-2.25.3-1.4.12l3.03-.4-.62.15 4.52-.58-.63.01 2.64-.28a45.79 45.79 0 0 0 1.25-.15l2.55-.4c.9-.02-.1.1-.74.16zm-80.88-1.45h0l-.08-.08-.1-.08-.2-.17c-.14-.12-.3-.24-.47-.38-.3-.3-.67-.6-.94-.94-.3-.32-.54-.63-.7-.87-.18-.23-.28-.38-.28-.38-1.54-2.48-1.9-4.8-1.64-7.1.16-1.16.5-2.34 1.17-3.53.7-1.24 1.55-2.63 2.5-4.23 3.5-5.58 4.55-6.98 8.07-12.82l5.16-8.46c.68-1.35 2.2-3.56 3.04-5.13l.42-.55a16.99 16.99 0 0 1 1.01-1.68v.04c.44-.8 1-1.68 1.23-2.08v.04l.58-.96-.08.18c.8-1.4 1.66-2.8 2.44-4.03l-.14.06c1.72-2.6 2.16-3.66 3.74-6v.04c1.67-3.14 3.08-4.7 4.82-7.93-.22.4.14-.14.14-.1.83-1.37 2.16-2.46 2.1-2.6.94-.7.82-.5.97-.54-.05-.06.8-.64 1.67-.95l-.38.18c.8-.35 1.65-.6 2.52-.75l-.54-.04c.7-.12.8-.07.88-.04.1.03.16.04.83-.03l-.02-.12c1.96.02 3.1.45 4.72 1.27.85.45 1.66.97 2.38 1.63.7.67 1.35 1.4 1.85 2.26.5.85.9 1.76 1.14 2.7a11.6 11.6 0 0 1 .32 2.93c-.06.98-.23 1.95-.55 2.88-.34.92-.78 1.75-1.34 2.6-1.05 1.7-2.1 3.36-3.14 4.94l-.25.24c-.2.06-.93 1.87-1.18 2.06l-.4.78c-.15.2-.44.63-.24.24-.43.7-.42.72-.7 1.23l-.53.7c-1.74 2.7-3.03 5.1-4.83 7.95-2.27 3.36-6.14 9.93-8.37 13.7-3.08 5.36-7.28 11.2-10.4 16.7-.12.17-.37.64-.35.64l-1.53 2.46c-.52.84-1 1.6-1.62 2.27 0 0-.06.1-.2.22a21.97 21.97 0 0 0-.58.56c-.53.43-1.28 1.05-2.27 1.5a10.59 10.59 0 0 1-3.36.98 10.67 10.67 0 0 1-3.42-.15c-1.66-.37-2.78-1-3.03-1.03.16-.23.35-.55.18-.27zm-518.93-6.58c-.18.06-.36.1-.54.15a13.09 13.09 0 0 1-.99.14c-.32.01-.67.03-1.06.05-.4-.03-.82-.01-1.3-.1-.94-.1-2.02-.38-3.18-.9l.14.02c-1.4-.58-2.4-1.32-3.22-2.06a11.76 11.76 0 0 1-2.03-2.4c-.03-.18-.28-.73-.56-1.35-.26-.65-.56-1.34-.66-1.7l.04.06c-.82-1.75-1.33-3.75-2.12-5.44.04.06.1.08.25.48-.5-1.26-1.22-2.97-1.16-3.1-1.2-3-2.78-7.25-3.68-9.12l.08.12c-.53-1.06-.57-1.42-1.1-2.64-.01-.07-.04-.16-.03-.15-.57-1.16-1.37-3.5-1.8-4.46l.04-.1-.94-2.4.33.9c-.3-.24-.6-1.85-1.38-3.54-.6-1.63-1.63-3.16-2.2-4.88-.4-.77.4.66-.12-.52.07-.07.27.54.22.2-.5-1.16-.66-1.97-1.28-3.4l.05-.1c-.86-1.85-1.3-3.62-1.9-4.84-.82-1.94-.3-1.4-1.23-3.38l-.2-.83c-.32-.88-.36-.58-.7-1.57.08.04-.43-1.24-.15-.7-.75-2.22-1.86-4.4-2.8-7.34-.35-.55-.63-2-.72-2.47 0-.04-.03-.78-.02-1.3.05-.52.1-.82.1 0 .01.14.02.4-.01.37l.08.2c.12-1.62.16-3.02.88-4.5-.24.43-.44 1.05-.34.62.17-.48.42-.93.66-1.38-.04.1-.06.2-.1.3.17-.34.4-.64.6-.96.23-.3.46-.6.7-.88a4.28 4.28 0 0 0-.26.19c.77-.8 1.1-1 2.05-1.82.43-.38-.92.53.03-.18 1.24-.85 3.43-1.58 5.32-1.57-.18-.07.33-.1.86-.1l.06.08c1 .01 1.18.16 1.35.2.17.07.33.15 1.3.4l-.18-.01.54.04c1.7.62.85.46 2.6 1.43-.65-.47-.2-.38.55.3l-.23-.12c.4.36.57.46.8.73-.25-.2-.2-.06.35.53l-.42-.34.54.52.5.57c.3.5.67 1.16.92 1.77.27.62.48 1.22.53 1.46 0 0 .9 2.5 1.23 3-.26-.47.25.9.02.54.32.6 1.1 2.48 1.33 3.27l-.06-.14c1 2.83 1.96 4.74 2.84 7.3.04-.15.5 1.2.48.83 1.1 2.56 1.63 4.82 2.3 5.63.48 1.18.47 1.43.7 2.05l-.13-.28 1.77 4.5c.35.8.55.88 1.08 2.37-.24-.45 0 .14.2.7-.15-.35-.2-.45.03.3.06.1.13.25.2.4 0 .01.01.04-.01.03.38.9.33.74.18.3.02.02.01-.02-.02-.16.3.98 1.03 2.66.98 2.8 1.1 2.75 1.96 4.7 2.9 6.97.05.28-.2-.24-.5-.9l.65 1.62c-.08.02-.4-.92-.62-1.42.63 2 1.67 3.96 2.44 6.28l.24.45.04.14c.03-.02.27.48.4.8.06.35-.16.04.28 1.16.28.92 1 2.52 1.5 3.67-.23-.63-.12-.44.01-.18.22.56.28.9.48 1.34l-.07.1c0-.25.66 1.44.78 1.63.06.35-.4-.85-.5-.97.87 2.25.48 1.14 1.3 3.37.46 1.16.01-.24.28.3.3 1.06.54 2.16.4 3.44.04-.13.08-.27.1-.4-.02 2.12-.5 3.38-1.2 4.6-.8 1.8-1.94 2.94-2.82 3.73-.9.8-1.65 1.18-2.12 1.46-.27-.05-.33-.05-.48-.08-.01-.03.02.04.06.14-.1-.01-.28.02-.56.08.02.04.01.03.01.01zm493.07 25.06l-.35.96c-.03-.03-.05-.06-.08-.1l.43-.86zm-42.24-15.6c-.25-1.33-.53-3.17-.77-5.08l-.68-5.46-.07-1.23c-.18-1.1-.27-2.37-.33-3.48l.03.07c-.2-1.63-.3-3.48-.4-4.3l.03.07c-.06-.66-.1-1.32-.14-2l.05.34c-.18-2.86-.38-5.8-.4-8.4l-.08.22c0-2.78-.06-4.68-.1-6.5l.1-6.1.02.07c-.05-3.17.1-5.68.24-8.2.2-2.52.33-5.08.5-8.34-.04.82.07-.34.1-.28.2-3 .5-6.2.35-6.27.22-2.18.23-1.77.33-2.05-.1 0 .1-1.9.3-3.6l-.06.8.6-4.88-.27.94c.4-2.58.26-.63.56-3.1l-.12.01c.28-1.78.53-3.2.82-4.57l.44-2.1.24-.88c.03-.14.06-.3.1-.4l1.88 7.68 2.42 10.42c1.55 6.92 2.97 13.75 4.07 20.14l.03.6c-.07.28.87 3.62.84 4.15l.34 1.53c.06.44.2 1.36.03.6.25 1.43.3 1.46.5 2.48l.18 1.55 1.35 8.1c.46 2.65.9 5.34 1.3 8.32l.8 6.4.93 7.63.87 7.76.4 3.85c-2.22.26-4.38.8-6.4 1.55l-1.07.33c-.25.04-1.85.76-3.38 1.7-1.55.93-3.02 2.05-3.44 2.3-.32.24-.6.5-.92.76l-2.1-13.08zM169.8 159.23v.1c-1.05-.07-2.1-.13-3.08-.03-.07-.02-.25.02-.24.04l-.83-.01v-.18l-.05-1.2c-.04-.76-.1-1.7-.2-2.43-.03-.2-.05-.4-.08-.56.36-.04-.3-.07.24-.14.84-.02 1.7-.08 2.44-.03l-.22-.08c1.16-.07 1.86-.06 2.64.03 8.66-.68 1.83-.93 1.83-.93-1.4-.08-2.52-.08-3.63-.05l-.84.02c-.04.01-.03.02-.07.03a1.85 1.85 0 0 1-.36.07c.01-.03.07-.1.2-.18l2.95-1.8a76.43 76.43 0 0 0 3.5-2.24c1.5-.95 3.04-2 4.48-2.97.62-.55 1.9-1.24 2.65-1.85l.35-.14c.26-.2.57-.45.88-.6l-.01.03c.4-.32.88-.6 1.07-.76l-.01.03.5-.34-.07.08a29.05 29.05 0 0 1 2.12-1.42l-.1-.04c1.47-.84 1.9-1.33 3.23-2.06l-.01.03c.23-.2.46-.37.68-.52.2-.14.5-.34.5-.34.04.01.96.04.97.06l.05.04.2.14.42.27c.3.18.6.36.98.54-.22-.1.07.1.04.1.8.47 1.62.98 1.72.84.56.36.43.33.47.44.04-.07.54.22 1 .5l-.22-.1 1.27.77-.17-.28c.65.46.08.25.74.63l.05-.1c.9.6 1.36 1.1 2.2 1.73 3.7 2.4 7.85 4.66 11.2 7l.1.17c0 .15 1.06.44 1.13.62l.43.2c.1.1.33.26.1.16.37.24.4.23.68.36l.36.32c.22.14.42.28.62.4l.2.1c.18.1.36.2.55.28a3.05 3.05 0 0 1-.45.01c-.1-.02-.2-.03-.32-.05l-.07-.01c-.03 0-.02 0-.13-.01-.18 0-.35-.01-.54-.01-.73-.01-1.53 0-2.33.01l-4.42.13c-3.35.2-7.24-.32-10.67-.1-.1-.02-.4.02-.4.04l-3.14-.02s-15.2-.05-3.65 1.02l-.08.03c1.72.07 2.8.08 3.98-.06.2.17 1.4.02 1.8.07l-.04.01c1.05-.13 2.16.1 3.17-.01-.04.01-.06.06-.3.06.74-.02 1.74-.06 1.8.04 1.76-.03 4.2.02 5.33-.14l-.08.03c.64-.1.83-.02 1.55-.07.04.01.1.02.08.03.7-.1 2.04-.02 2.6-.06l.04.07 1.4-.02H210c.18-.18 1.05.12 2.06 0 .47.01.95-.08 1.43-.17.5-.1.93-.17 1.53-.12.5-.1-.42.14.4.07.12.1-.38.06-.08.14.46-.02.87 0 1.35.02l.84.02c-.08.42-.12.88-.12.88-.1.78-.13 1.42-.14 2.05l.01.95.01.23.02.02c.01.02.02.04.03.08-.02.01-.05.03-.1.04l-.87.03c-2.2-.04-2.77-.2-5.05-.14-.64-.01-1.3 0-1.95.02h-.04c-4.87-.2-7.38.06-13.18.12-5.1-.04-6.45-.2-11.73-.14-2.52-.01-5.2.02-7.67.04-1.17.13-3.23 0-4.62.1l-.54-.07-.27.02h-.48l-1.04.02zm42.47 12.38c-.17.27-.01 2-.06 2.6v-.05c.14 1.5-.1 3.08.03 4.52-.01-.06-.06-.1-.07-.42.03 1.05.07 2.5-.03 2.56.04 2.5.01 6 .18 7.6l-.03-.1c.1.92.02 1.2.08 2.2l-.02.12c.01.1.02.22.04.34.01.1.01.2.02.3h-1.1l-1.2.01-.05-.07-2 .02.74.01c-.26.18-1.5-.12-2.94 0-1.35-.02-2.73.38-4.13.3-.67.1.6-.14-.4-.07-.03-.1.47-.06.2-.14-.98.05-1.6-.1-2.82-.03l-.05-.07c-1.58.14-2.98-.1-4.02.03-1.63.06-1.1-.22-2.78-.08l-.66-.1c-.72-.02-.52.12-1.32.07.05-.06-1.02-.05-.54-.1-1.82-.1-3.7.14-6.1-.03-.52.12-1.73.05-2.1.14-.06-.05-2.42-.01-1.06-.13.12-.01.32-.01.3.01l.16-.07c-1.37-.14-2.48.08-3.83.05.4.02.93.02.58.07l-1.26-.01.26-.06-1.87-.04.26.08c-.92-.04-1.24-.17-2.27-.06-.47.06.87.1-.1.13l-.94-.04-.25-.01-.07-.01-.13-.02.02-.16.01-.04.01-.16.01-.33.04-1.3c-.1.15-.08-.27-.1-.7l.07-.05c-.1-1.66.17-.6.1-2.25l.05.15-.15-.44c-.14-1.5.16-.8-.03-2.45.01.65-.17.3-.13-.5l.07.2c-.01-.44-.04-.6-.03-.9.04.26.1.14.1-.5l.1.44-.13-1.24c.08-.95-.01-2.46.1-2.86 0 0 .06-2.05-.05-2.52.07.4.1-.72.18-.4-.08-.53-.13-2.1-.05-2.73l.01.12c.1-2.32-.1-3.97.02-6.06-.1.1-.03-1-.15-.73-.1-2.16.25-3.93-.1-4.7 0-.3 0-.32.01-.42 0-.02.01-.03.01-.05a8.5 8.5 0 0 0 .57-.04l1.43-.02h1.7a3.24 3.24 0 0 0 .62-.08h.05a7.83 7.83 0 0 1 .24-.03c.22.04.5.08.8.02.05 0 .1-.01.16-.02.05.02.38.01.7.01-.3.01-.38.03.22.08.08-.02.22-.03.34-.04.01 0 .03.01.02.02.76-.02.63-.04.28-.05.02-.01-.01-.02-.12-.04.43.04 1.03.04 1.5.04l.01.03c.1-.02.2-.02.3-.03.26.01.45.02.5.06l1.44-.03c.17.06.25.13.7.04l.28.1c.3.02.22-.12.57-.07-.02.06.44.05.23.1.78.1 1.6-.14 2.62.03.22-.12.74-.05.9-.14.03.05 1.04.01.46.13-.05.01-.14.01-.13-.01l-.07.07c.6.14 1.07-.08 1.65-.05-.17-.02-.4-.02-.25-.07l.54.01-.1.06.8.04-.1-.08c.4.04.53.17.98.06.2-.06-.37-.1.04-.13.53.05 1.32.13 2 .15-.06-.1.12-.08.3-.1v.07c.7-.1.26.16.97.08l.12-.1c.64-.15.34.15 1.05-.05-.28.01-.13-.16.2-.13l-.1.07c.2-.02.26-.05.38-.03-.1.04-.06.1.22.1l-.2.1.53-.13c.4.08 1.06-.02 1.23.08 0 0 .88.05 1.08-.06-.18.07.3.1.17.18.23-.08.9-.14 1.17-.06l-.05.01c1 .1 1.7-.12 2.6-.01-.04-.1.43-.04.32-.15.93-.1 1.7.23 2.03-.12.42-.02.5.08.72.1h-.1c.8-.03 1.02-.03 1.6-.02.3-.03.34-.2.86-.15-.17.06.04.05.24.05-.13.01-.16.03.1.08a.54.54 0 0 1 .15-.04s.01.01.01.02c.33-.02.27-.04.12-.05.01-.01-.01-.02-.05-.04.34.08.95-.01 1 .1 1-.03 1.7-.14 2.5-.18.1.06-.1.1-.34.13h.58c-.01.08-.33.05-.5.06.3.06.63.04.96.01-.13.8-.28 2.54-.47 5.67l-.03-.1c-.08 2.46-.1 4 .06 5.7zm-43.08 34.5c.08.2.01.16-.05.08-.08-.2-.06-.32-.15-.46l.08-.06c-.05.1-.3-.45-.36-.5.02-.13.18.27.25.3l-.5-1.13c-.24-.37-.05.1-.2-.05-.17-.35-.38-.67-.5-1.1l-.02.16c-.34-.64-.5-1.05-.62-1.53-.58-1-.96-1.58-1.22-1.92.82-.06-.22-.08.28-.16l1.1-.04c.32-.01.66-.01 1.03.01l-.23-.08c1.2-.07 1.9-.06 2.7.03 8.87-.68 1.87-.93 1.87-.93a45.44 45.44 0 0 0-3.42-.06l-1.57.05-.82.03c-.1 0-.07.01-.08.01l-.02.01-.06.02c-.01-.02-.02-.04-.02-.07h-.01l-.01-.16-.02-.34-.06-1.47.01-2.82.02-1.14v-.28c0-.02.01-.02.01-.03.01-.01.01-.02.01-.02l.04.01a14.53 14.53 0 0 1 .65.01l1.85-.02 5.5-.04c.84-.13 2.32 0 3.3-.1l.38.07c.34-.04.74-.06 1.1-.02l-.02.02c.5-.05 1.1-.02 1.34-.05l-.02.02.62-.01-.1.03c.9-.06 1.8-.06 2.62-.04l-.07-.1c1.73.1 2.36-.08 3.92.03v.02c.3-.04.58-.05.85-.06l.24.08c.07.08.7-.01 1.2-.07.88.04 1.73.1 2.86-.01-.25.03.1.04.1.07.16 0 .3-.01.47-.01 2.45.06 4.54-.1 7.13-.06l.84.03c.04 0 .06.01.1.01h.27c1.4.04 3.1.03 4.83.01l6.22-.12 2.22.06.18.1c.08.13 1.16-.2 1.3-.07a1.89 1.89 0 0 1 .18-.06c.04.02.1.05 0 .08h.04c0 .08.02.08.05.16-.01.04-.03.03-.04.1l-.04.24c-.1 1.78.02 3.3-.04 5.16a14.83 14.83 0 0 0-.05.73l-.03.23-.1-.01h-1.13l-1.96.03-3.55.1c-3.43.2-7.4-.32-10.92-.1-.1-.02-.4.02-.4.04l-3.2-.02s-15.57-.05-3.74 1.02l-.08.03c1.76.07 2.86.08 4.08-.06.2.17 1.44.02 1.86.07l-.04.01c1.07-.13 2.2.1 3.24-.01-.04.01-.06.06-.3.06.75-.02 1.78-.06 1.84.04 1.8-.03 4.3.02 5.46-.14l-.08.03c.66-.1.85-.02 1.58-.07.04.01.1.02.08.03.72-.1 2.1-.02 2.67-.06l.04.07 1.42-.02h-.53c.18-.18 1.08.12 2.1 0 .37.01.75-.05 1.13-.1a12.27 12.27 0 0 1 1.17-.16c-.24.2-.7.85-1.5 2.15l-.01-.06c-.48.96-.76 1.57-.92 2.3-.2.04-.36.8-.5 1V205c-.13.65-.63 1.2-.76 1.82 0-.03-.04-.06.01-.2-.16.43-.37 1.02-.47 1.02l-.37.9-.18.45-.05.14c-.03 0-.04 0-.06.01l-.34-.01c-1.7-.02-1.23.12-3.12.07.12-.06-2.4-.05-1.3-.1-2.5-.06-5.05 0-7.85.02 0-.01.01-.01.05-.02-.58-.07-1.17.03-1.86.03h-.08a4.78 4.78 0 0 1-.73-.06.58.58 0 0 1-.21.06c-.43 0-.86-.01-1.3-.01a.63.63 0 0 1 .13-.03c.05-.01.14-.01.13.01l.07-.07c-.6-.14-1.08.08-1.67.05a.66.66 0 0 0 .14.01c-.1 0-.23 0-.34-.01v-.01l-.82-.04.04.03h-.1c-.03 0-.06 0-.1.01-.23-.05-.4-.1-.73-.02-.08.02-.04.04.01.06-.18.01-.37.01-.57.02-.47-.04-1-.1-1.5-.1.06.1-.12.08-.3.1l-.02-.07c-.72.1-.27-.16-.98-.08l-.13.1c-.65.15-.35-.15-1.07.05.14-.01.17.03.13.07-.08 0-.16 0-.26-.01h.01-.34c.03-.04-.05-.07-.27-.06l.2-.1-.54.13c-.4-.07-1 .01-1.2-.07.06 0 .1 0 .18-.01.27-.01.76-.01.73.01l.38-.07c-.9-.04-1.78-.05-2.62-.04-.01 0-.04 0-.06.01l-1.56.02c-.2 0-.37 0-.54.01l-1.3.03c-.1 0-.2 0-.32-.01.01.01-.02.02-.02.02l-2.64.03c.95.02 2.2.02 1.36.07h-.38c-.1-.01-.2-.01-.27 0l-2.3-.01.62-.06-4.42-.04.6.08-1.46-.04-1.02-.02-.08-.17a4.14 4.14 0 0 1-.28-.72l-.13-.13-.01-.05c-.03.02-.14-.14-.2-.25.02-.13.15-.06-.01-.43-.1-.33-.42-.84-.62-1.2zm-1.07 41.2c-.03.84.07-.35.1-.28.2-3.08.43-6.37.26-6.43.17-2.24.2-1.82.27-2.1-.08.01.04-1.94.16-3.7l-.03.8.34-5.02-.2.97c.23-2.66.22-.66.37-3.2l-.12.02c.3-3.68.62-5.82.97-9.38l.6-8.47h.02c.2 0 .42-.01.65-.01 1.1.01 2.27-.02 3.35-.04.5-.13 1.4 0 2.02-.1l.23.07c.2-.04.45-.06.66-.02l-.01.02c.3-.05.66-.02.82-.05l-.01.02.38-.01-.06.03a10.72 10.72 0 0 1 1.59-.04l-.04-.1c1.05.1 1.44-.08 2.4.03l-.01.02c1.2-.23 1.9.16 3.14-.06-.15.03.07.04.05.07.45-.02.92-.04 1.1-.13h.46c.01.01.01.02.02.04 0-.02.02-.03.05-.04h.75l2.22-.01a6.56 6.56 0 0 0 .6.11c2 .04 4.08-.1 6.05-.1h.37a21.88 21.88 0 0 1 1.83.07l.1.1c.05.13.7-.2.8-.07l.3-.06c.08.02.26.05.1.08.27 0 .28-.02.48-.05l.3.08c1.08.06 2-.1 3.14-.06a12.16 12.16 0 0 0 1.44.07l.14.02c.27.13 3.8-.2 4.34-.07l1.5-.06c.06.01.14.02.2.03-.01.12-.02.17-.05.05h0l.08.9.13 1.13.04 1.6 1.22 15.7c-.34.1-.87.3-1.66.67l.02-.04c-.7.44-1.2.67-1.6 1.1-.17-.1-.6.35-.8.4v-.02c-.36.4-.97.42-1.34.77.01-.02 0-.07.1-.12-.3.2-.72.46-.8.38-.73.45-1.85.9-2.27 1.28l.02-.04c-.24.23-.36.2-.65.4-.02 0-.05 0-.05-.01-.27.23-.9.4-1.15.56l-.04-.05-.62.28.24-.1c-.01.2-.52.1-.93.4-.44.14-.74.7-1.22.78-.18.16.14-.2-.16-.02-.04-.1.13-.1.02-.15-.3.16-.55.1-.92.3l-.04-.06c-.47.3-1 .24-1.3.5-.5.24-.43-.1-.93.24h-.25c-.24.06-.13.17-.4.2 0-.07-.35.06-.2-.05-.63.1-1.16.53-2 .62-.13.17-.55.22-.65.35-.04-.04-.8.24-.4-.01.04-.02.1-.04.1-.02l.03-.1c-.5.01-.8.32-1.25.44.14-.02.3-.08.2.01l-.42.12.07-.1-.63.15.1.05c-.3.05-.46-.04-.77.17-.14.1.32.01 0 .13-.42.07-1.05.18-1.57.3.07.07-.07.1-.2.17l-.04-.07c-.52.26-.25-.1-.77.14l-.07.13c-.45.3-.3-.07-.8.3.2-.08.15.13-.13.18l.05-.1c-.14.06-.18.1-.3.12.08-.06.02-.1-.2-.04l.12-.13-.37.25c-.34.02-.8.27-.97.2 0 0-.7.16-.82.3.12-.1-.27-.02-.18-.13-.15.13-.65.35-.9.34l.04-.02c-.8.16-1.28.53-2 .65.06.07-.32.15-.2.22-.67.35-1.37.23-1.5.64-.32.13-.4.05-.58.1l.07-.04c-.6.23-.76.3-1.2.46-.2.1-.2.28-.6.4.1-.1-.05-.04-.2.02.1-.04.1-.08-.1-.04-.02.03-.06.06-.1.08-.25.1-.2.1-.08.07 0 .01.01.02.05.02-.3.02-.72.27-.78.18-.73.32-1.2.64-1.8.93-.1-.02.03-.13.2-.22l-.43.2c-.03-.08.23-.14.36-.2-.57.1-1.02.55-1.67.72l-.1.1-.04.01c.02.03-.1.13-.18.18-.1-.02-.06-.15-.36-.01-.26.05-.65.35-.94.54.17-.07.13-.01.07.05-.15.08-.26.06-.36.14l-.06-.08c.1.05-.33.3-.37.35-.12-.02.2-.18.2-.24-.57.33-.3.16-.86.5-.26.24.1.04 0 .2-.25.18-.47.4-.8.54h.14c-.45.37-.73.56-1.1.7l-.75.72c.04-.53.06-1.05.08-1.6zm-5.45 77.87l1.27-18.08c.07-2.76.55-7.62.68-10.9l.16-1.26c.05-1.13.12-2.45.24-3.57l.02.07c.07-1.68.24-3.57.27-4.4l.02.07.01-.12c.24-.01.9-.28 2.2-.98l-.02.05c.8-.53 1.27-.88 1.7-1.37.18.08.64-.44.85-.52h-.01c.4-.43 1.03-.57 1.44-.95-.01.02 0 .07-.1.14.33-.23.78-.55.86-.47.8-.5 2-1.1 2.5-1.5l-.03.04c.27-.25.4-.2.73-.43h.05c.3-.26 1.02-.47 1.28-.64l.05.05.7-.32-.27.1c.02-.2.58-.12 1.04-.45.48-.2.83-.75 1.37-.87.2-.18-.16.2.17.01.05.08-.14.12-.02.16.33-.18.6-.14 1.02-.37l.04.06c.5-.36 1.1-.32 1.44-.6.57-.28.47.06 1.03-.3h.27c.27-.08.14-.2.45-.25 0 .07.4-.1.24.03.7-.15 1.3-.62 2.22-.77.15-.2.6-.27.72-.4.04.04.88-.3.43-.02-.04.02-.1.05-.12.03l-.03.1c.54-.05.88-.4 1.38-.55-.15.03-.35.1-.23.01l.46-.15-.07.1.7-.2-.12-.04c.35-.08.5 0 .85-.24.15-.12-.35.02-.01-.13.46-.1 1.16-.27 1.74-.45-.08-.06.07-.1.22-.2l.04.06c.57-.32.28.07.85-.22l-.04.07.04-.07.07-.14c.5-.34.35.04.88-.37-.23.1-.17-.1.14-.2l-.05.1c.16-.07.2-.12.3-.15-.08.07-.01.12.22.02l-.13.14.4-.3c.37-.06.9-.36 1.07-.32 0 0 .76-.23.9-.4-.12.12.3-.02.2.1.16-.15.7-.44.97-.45l-.04.03c.87-.26 1.4-.68 2.18-.9-.07-.07.34-.2.2-.25.73-.44 1.5-.4 1.63-.84.34-.18.44-.12.63-.2l-.07.06 1.3-.65c.22-.15.2-.3.63-.48-.1.13.06.03.22-.06-.1.06-.12.1.1.03a.47.47 0 0 1 .1-.1c.26-.15.2-.14.08-.1 0-.01-.01-.02-.06-.01.3-.07.76-.4.84-.33.8-.43 1.3-.85 1.9-1.26.1.01-.02.14-.2.26l.45-.28c.04.07-.24.2-.37.3.6-.2 1.06-.76 1.75-1.05l.1-.14.04-.02c-.02-.03.1-.16.18-.23.12 0 .08.14.38-.06.28-.1.67-.48.96-.72-.18.1-.14.03-.08-.03.15-.1.28-.1.38-.2l.07.07c-.1-.03.34-.34.37-.42.12-.01-.2.22-.2.3l.88-.66c.27-.3-.1-.03-.01-.2.27-.22.5-.47.85-.66h-.15c.48-.43.8-.66 1.17-.88 1.63-1.8 1.65-2.14 1.3-2.02-.36.1-1.12.66-1.12.66-1.53 1.06-2.15 1.8-3.93 3.15-.83.52-1.37.8-1.9 1.12-.56.3-1.12.58-1.97 1.12l-2.57 1.42c-.34.33-1.12.54-1.55.87l-.22.02c-.15.1-.33.23-.52.27v-.02c-.22.17-.52.27-.63.35v-.02l-.3.14.04-.05a8.02 8.02 0 0 1-1.27.59l.07.07c-.9.28-1.14.57-1.96.78v-.02c-.9.6-1.6.48-2.56 1.06.12-.07-.07-.02-.07-.04-.46.2-.96.4-.9.57-.34.13-.3.06-.37.01.03.07-.26.2-.53.3l.1-.07-.77.3.2.08c-.42.1-.16-.12-.54.05l.04.1c-.58.18-.97.14-1.55.25-2.3.77-4.68 1.9-6.88 2.5l-.12-.05c-.1-.1-.52.4-.64.3l-.23.15c-.08 0-.23.04-.12-.04-.23.08-.23.1-.38.2l-.27.02c-.93.28-1.64.7-2.6 1.07-1.2.28-3.26 1.33-4.43 1.94-1.6.94-3.8 1.5-5.3 2.78-.06.02-.18.14-.17.15-.5.32-.97.65-1.45 1 0 0-.43.3-.97.75-.54.43-1.2.98-1.67 1.43-.22.2-.4.38-.52.53l.1-1.6v.35l.6-8.6-.1.2.97-12.88v.07c.2-5.67.74-9.24 1.05-14.52.3-.13.56-.28.56-.28 1.53-.8 2.03-1.5 3.73-2.47 1.56-.73 2.05-.76 3.7-1.5l2.43-1c.33-.26 1.04-.4 1.45-.65l.2.01c.14-.1.32-.17.5-.2v.02c.2-.13.5-.2.6-.25v.02l.28-.1-.04.04a6.55 6.55 0 0 1 1.18-.44l-.06-.07c.82-.16 1.05-.42 1.8-.54v.02c.83-.5 1.48-.3 2.35-.8-.1.06.06.03.06.05.42-.15.88-.3.84-.47.3-.1.27-.03.33.03-.02-.07.24-.18.5-.26l-.1.06.7-.23-.18-.1c.4-.07.14.14.5 0l-.04-.1c.52-.13.88-.05 1.4-.12 2.1-.57 4.25-1.52 6.23-1.96l.1.06c.08.1.47-.35.58-.26l.2-.13c.07 0 .2-.02.1.04.2-.07.2-.1.34-.18h.25c.83-.23 1.48-.6 2.34-.9.54-.12 1.28-.4 2-.7.73-.34 1.45-.7 1.97-.98.72-.42 1.56-.75 2.4-1.07.85-.33 1.68-.73 2.38-1.23.06-.01.16-.12.16-.13l1.34-.8.93-.58c.5-.36 1.12-.83 1.56-1.22.06-.05.12-.1.17-.15l.05.72c.38 7.4 1.55 21.3 2.23 29.3 1.02 11.25 1.47 24.38 2.54 35.9 0 .2.04.52.07.8a8.47 8.47 0 0 0 .07.52l.07.96c-.3.1-1 .5-2.22 1.36l.02-.05c-.8.7-1.37 1.06-1.83 1.65-.2-.06-.68.54-.9.66v-.03c-.4.53-1.13.7-1.56 1.18.01-.03-.01-.07.1-.16-.35.3-.83.68-.92.62-.85.67-2.18 1.4-2.67 1.94l.03-.05c-.27.3-.43.3-.78.56-.03 0-.06.01-.06 0-.32.3-1.1.64-1.37.86l-.05-.05c-.25.14-.5.3-.74.44.1-.04.2-.1.3-.14 0 .23-.63.2-1.13.6-.53.25-.9.88-1.47 1.08-.22.2.17-.24-.2.01-.05-.08.16-.14.02-.16-.37.22-.68.2-1.13.48l-.05-.06c-.57.4-1.2.45-1.58.76-.63.33-.52-.02-1.15.4l-.3.02c-.3.1-.16.2-.5.3 0-.07-.43.12-.26-.01-.76.22-1.44.72-2.47.94-.17.2-.68.32-.8.46-.05-.04-1 .35-.48.04.04-.03.13-.06.13-.03l.04-.1c-.6.07-1 .44-1.55.63.17-.04.4-.12.26-.02l-.52.18.1-.1-.78.24.13.03c-.4.1-.57.02-.95.27-.17.13.4-.03 0 .13-.52.13-1.3.32-1.95.53.1.06-.1.12-.26.2l-.05-.06c-.65.34-.3-.07-.96.25l-.08.14c-.56.36-.38-.03-1 .4.26-.1.18.1-.16.2l.06-.1c-.18.08-.23.13-.36.16.1-.08.02-.12-.24-.01l.15-.15-.46.3c-.42.07-1 .38-1.2.34 0 0-.86.25-1.02.43.15-.13-.33.02-.22-.1-.2.15-.8.46-1.1.47l.05-.03c-1 .27-1.6.72-2.48.96.07.07-.4.2-.24.26-.84.45-1.7.43-1.87.88-.4.2-.5.13-.7.2l.1-.06c-.73.34-.95.44-1.5.67-.26.15-.24.3-.74.5.13-.13-.06-.03-.25.06.1-.06.14-.1-.12-.03-.03.03-.07.07-.12.1 0 0-.02 0-.01-.01-.3.16-.23.15-.1.1 0 .01.01.02.07.01-.35.07-.87.43-.96.35-.9.47-1.48.9-2.2 1.36-.1 0 .04-.14.24-.28l-.5.3c-.04-.07.28-.2.43-.3-.7.23-1.2.84-1.98 1.18l-.1.15-.05.02c.02.03-.1.17-.2.24-.14.01-.08-.14-.43.1-.3.13-.75.55-1.07.83.2-.13.16-.05.1.03-.17.12-.3.14-.4.25l-.07-.06c.12.02-.38.4-.4.48-.14.02.22-.24.23-.32l-.98.77c-.3.33.12.02.01.22-.3.25-.54.55-.92.8l.16-.03c-.5.52-.85.8-1.27 1.06-3.57 4.12-.22 1.45-.22 1.45 1.7-1.27 2.33-2.2 4.3-3.72 1.82-1.23 2.4-1.4 4.34-2.55.96-.5 1.97-1.06 2.94-1.5.4-.34 1.28-.57 1.8-.9l.24-.03c.18-.1.4-.23.6-.28v.02c.26-.17.6-.28.73-.36v.02l.35-.15-.05.05c.48-.25 1-.46 1.46-.62l-.07-.07c1-.3 1.3-.6 2.23-.82v.02c1.04-.63 1.83-.52 2.92-1.14-.14.08.08.02.07.04.53-.22 1.1-.43 1.05-.6.4-.14.34-.06.4-.02-.03-.07.3-.22.6-.33l-.13.08.87-.33-.22-.07c.48-.13.18.12.6-.07l-.04-.1c.65-.2 1.1-.17 1.74-.3 2.6-.86 5.28-2.17 7.74-2.92l.14.04c.1.1.58-.45.72-.38l.25-.17c.1-.01.26-.06.13.03.26-.1.26-.12.42-.24l.3-.04c1.04-.35 1.8-.92 2.86-1.36 1.32-.44 3.57-1.78 4.8-2.63 1.72-1.2 4.04-2.16 5.64-3.65.07-.03.2-.17.18-.18.53-.4 1.03-.83 1.54-1.24l1.06-.9c.58-.53 1.26-1.23 1.76-1.78.2-.23.37-.42.5-.6l.66 9.22 2.03 24.87c-5.18-.38-10.3-.7-15.3-.9l-2.2-.1-1-.04-.42-.01-28.73-1.18-5.78-.14-5.72-.12c.06-1.43.18-3.14.32-5.13zm-33.3 99.72h-.1c.05-.46.1-.4.1 0zm-15.76 3.43a11.19 11.19 0 0 1-.69.35l.7-.35zm160.56 37.44l1.13.95.8.62c.24.23.48.45.72.67.47.45.94.86 1.37 1.3.8.93 1.63 1.73 2.23 2.63.65.87 1.26 1.67 1.72 2.5.5.8.97 1.55 1.32 2.3 1.47 2.93 2.07 5.15 2.45 6.57.06.27.12.5.17.7h-.3c.03.15.07.3.1.45h-2.63l-19.25-.45.4-.03c-8.73-.07-14.23-.08-20.25.06-.95-.17-7.17-.02-9.22-.07l.2-.01c-5.33.13-10.97-.1-16.1.01.2-.01.3-.06 1.5-.06-3.74.02-8.86.06-9.14-.04-8.93.03-21.4-.02-27.13.14l.4-.03c-3.26.1-4.22.02-7.87.07-.2-.01-.46-.02-.42-.03-3.55.1-10.37.02-13.24.06l-.2-.07-7.08.02 2.64.01c-.92.18-5.35-.12-10.48 0-4.8-.02-9.74.38-14.73.3-2.38.1 2.1-.14-1.46-.07-.12-.1 1.66-.06.74-.14-3.5.05-5.73-.1-10.03-.03l-.18-.07c-5.62.14-10.6-.1-14.34.03-5.8.06-3.88-.22-9.92-.08l-2.35-.1c-2.58-.02-1.85.12-4.7.07.17-.06-3.62-.05-1.94-.1-3.24-.05-6.53-.01-10.07.01l-2.7.02H75c-.04-.02.03-.1.05-.16.04-.1.03-.07.1-.24l.3-.64c.23-.42.45-.85.7-1.27.5-.84 1.1-1.67 1.75-2.47.5-.75 1.5-1.88 2.57-2.84 1.07-.97 2.2-1.75 2.75-2.16.1-.04 1.9-1.14 3.28-1.7.68-.3 1.24-.48 1.35-.5s-.25.1-1.32.58c-.37.17-1 .47-.97.43l-.47.3c2.13-1.02 4.17-1.7 6.26-2.13 1.05-.2 2.1-.35 3.2-.4a18.36 18.36 0 0 1 1.66-.01l.42.02.54.04c.52.04 1.07.12 1.6.18-.62-.08-1.4-.18-1.93-.22-.35-.03-.67-.04-.9-.06-.48-.02-.63-.03-.02-.04l.6.03c.2.01.34.03.75.06l2.12.24-.78-1.56-.35-.74-.2-.45.56 1.07-.3-.64-.16-.37-.3-.75c-.2-.5-.38-1.02-.56-1.53a28.5 28.5 0 0 1-.84-3.14l.13.9c-.2-.78-.27-1.44-.35-2.05l-.22-1.7c-.07-.56-.05-1.14-.1-1.8-.02-.66-.13-1.4-.06-2.3.02-1.63-.26 3.02-.1-.35l.12-1.7c.08-.6.2-1.2.3-1.83.16-1.28.63-2.58.98-3.94.94-2.65 2.23-5.33 3.77-7.58-.17.2-.07-.03.2-.44l1.2-1.6.16-.1c.4-.6.82-1 1.13-1.35l.75-.8c.4-.4.57-.6.8-.75.2-.16.42-.32.84-.68.44-.34 1-.98 2.17-1.8l.75-.68.7-.55.62-.4.94-.57c.5-.3.83-.48 1.18-.66.36-.15.73-.3 1.33-.6s1.4-.75 2.77-1.25c-2.14.8-1.07.22 1.6-.72l-.65.3c.72-.3 1.23-.4 1.67-.53l1.32-.35c-.88.3-.46.17 1.77-.3a15.53 15.53 0 0 0-1.48.42c1.38-.4 2.8-.66 4.23-.85 1.67-.13 3.83-.18 5.73-.03l1.1.1c.26.1.25-.18.32-.35l.17-.55.2-.67a18.24 18.24 0 0 0 .19-.55 12.44 12.44 0 0 1 .64-1.53s.17-.4.48-1.03c.3-.63.75-1.45 1.26-2.3 1.02-1.7 2.46-3.36 3-3.98-.45.56-.04.1.46-.35.48-.45 1.02-.9.64-.5a21.24 21.24 0 0 1 3.6-2.84 20.71 20.71 0 0 1 4.37-2.08l-.38.16c3.78-1.37 7.27-1.73 10.6-1.46 3.32.3 6.52 1.18 9.7 2.93-.03-.03-.01-.03.06 0 .04.02.08.04.13.06.1.05.2.1.32.16a8.03 8.03 0 0 1 .39.21c.14.04.3.25.4.03l.7-.75c.54-.58 1.07-1.07.68-.8 1.35-1.3 2.8-2.37 4.27-3.2.72-.43 1.48-.73 2.18-1.05.7-.35 1.4-.55 2.08-.78.66-.25 1.3-.4 1.92-.53.6-.15 1.17-.3 1.7-.35.53-.08 1.02-.16 1.45-.25.44-.05.83-.1 1.17-.15 3.43-.05 4.05.3 5.77.63-.26-.06-.53-.13-.8-.15 3.15.6 5.04 1.53 6.68 2.38.8.48 1.57.9 2.3 1.5.8.53 1.52 1.22 2.4 2.02.43.4.74.76 1.05 1.07.3.3.6.58.88.96l1.02 1.3a37.85 37.85 0 0 1 1.3 2.22c-.73-1.18.2.3.77 1.8-.43-.93-.52-1.23.2.74.13.27.27.7.4 1.1 0 .02.02.1 0 .06.38 1.28.47 1.82.5 1.88.02.06-.06-.36-.2-.96.03.06.01-.05-.07-.42.33 1.34.67 3.25.7 4.88.05 1.62-.1 2.94-.17 3.1a22.32 22.32 0 0 1-.2 1.46c-.03.24-.1.47-.13.7-.07.37-.17.75-.25 1.1l-.26 1.07c.01.02-.06.13.01.1l.4-.15 2.25-.84c1.67-.6 3.3-1 4.93-1.26 3.24-.52 6.4-.5 9.7.13.37.1.16.1-.38 0-.53-.1-1.4-.2-2.37-.28.8.1 1.58.13 2.35.32.77.17 1.57.26 2.32.52-.03.03-.68-.17-1.53-.3-.84-.17-1.86-.38-2.6-.42 2.8.4 5.63 1.12 8.4 2.34a24.99 24.99 0 0 1 7.77 5.38c.36.28.67.63 1 .95l.25.3c.01-.02.26.24.6.6.36.34.7.86 1 1.25.25.4.2.4.34.65a7.84 7.84 0 0 0 .4.61l.87 1.52c.66 1.1 1.43 2.8 2.1 4.62a27.89 27.89 0 0 1 1.32 5.52c-.24-1.82-.12-1.24.02-.46.2 1.64.17 2.6.2 3.86l-.08.12c.03.1.04 1-.04 2.02l-.04.47-.03.3-.04.33-.08.65c-.01.1-.03.2-.04.3l-.02.15-.01.07c0 .02.04-.01.06-.01l1.54-.46c.27-.06.24-.04-.01.04l-1.38.4-.22.06c-.06.03-.04-.02-.03-.06l.01-.1.06-.46.1-.9c.03-.33.03-.4.04-.57 0-.13.01-.22.01-.28l-.06.6c-.04.3-.07.56-.1.82s-.07.5-.1.74l-.02.17c.01.04-.06.16.03.1l.32-.1 1.82-.5c.7-.2 1.1-.33 1.5-.4.8-.12 1.6-.42 4.9-.7 3.52-.13-.65-.1 1.04-.2 3.1-.1 6.2.16 9.64 1.23l-1.08-.36 1.05.25.97.32c.63.22 1.25.4 1.8.63 1.1.5 2.16.9 3.07 1.45l1.35.75c.43.27.83.56 1.23.83.5.26.93.52 1.3.82zm134.17-.97l-3.14-1.84c-2.06-1.25-4.17-2.56-6.8-3.75-2.6-1.18-5.74-2.23-9.68-2.83-7.55-1.17-15.65-.27-22.84 1.1-1.7.36-4.1.93-6.46 1.74-2.4.8-4.74 1.96-6.52 3.04l-1.42.78-1.85 1.34-1.8 1.43.05-.08c-1.62 1.42-3.26 3.22-3.93 4.05l.04-.08c-.54.7-1.1 1.35-1.6 2.08l.24-.38c-.55.76-1.06 1.56-1.56 2.36l-.4.68-.14.26c-.01.01-.03.08-.03.03l-.02-.13-.04-.25c-.02-.17-.05-.34-.07-.5l-.04-.26-.13-.65-.26-1.26-.03.3c-.73-3.54-1.6-5.88-2.54-8.06l-.73-1.63c-.26-.54-.56-1.08-.85-1.64-.56-1.15-1.32-2.32-2.16-3.72l.07.06c-2.4-3.36-4.65-5.77-7.16-7.93-2.52-2.12-5.33-4.05-9.34-5.54 1 .37-.4-.2-.32-.2-1.84-.7-3.82-1.24-5.35-1.46-.76-.13-1.4-.25-1.87-.3-.47-.01-.74 0-.76.04-2.85-.24-2.3-.25-2.68-.34 0 .01-.15.03-.4.05a44.63 44.63 0 0 1-1.09.06c-.9.05-2.08.03-3.18.24l1-.17-3.17.44c-1.04.22-2.07.5-3.1.75l1.25-.16-2.05.44c-.2.03-.37.07-1.9.63l.08.1c-1.12.34-2.05.84-2.95 1.22l-1.3.58-1.2.67c-1.64.84-3.15 1.87-4.98 3.2-3.68 2.96-6.87 6.66-9.35 10.8-.62 1.03-1.16 2.12-1.74 3.17a31.74 31.74 0 0 0-7.95-3.37c-3.46-.92-7.18-1.32-11.27-.94l-1.55.16c-.52.06-1.04.2-1.58.28-.53.1-1.08.2-1.62.33l-1.4.4-.15.05c-.03-.01 0-.1 0-.13l.05-.52c.03-.3.05-.6.07-.9.07-1.23.07-2.5-.03-3.82-.36-4.64-1.67-8.3-3.26-11.27-1.57-3-3.5-5.33-5.66-7.37a28.09 28.09 0 0 0-7.88-5.19c-3.18-1.38-7.07-2.42-11.9-2.4-.58-.03-1.15.03-1.73.07-.58.05-1.16.07-1.74.15-1.15.22-2.33.32-3.46.68l-1.7.46-1.16.43c-.03.02-.06.03-.04-.02l.03-.16c.06-.3.12-.58.16-.88a22.86 22.86 0 0 0-2.02-13.68c-1.02-1.88-2.6-4.44-4.85-6.54a22.29 22.29 0 0 0-7.34-4.67l-1.83-.73c-1.7-.43-3.7-.85-5.46-.95l.1-.01c-1.3-.1-2.7-.01-3.9.08-1.2.16-2.27.3-2.9.5l.1-.05-1.54.37-1.5.52.5-.2c-2.15.74-4.23 1.8-6.07 3.1a25.42 25.42 0 0 0-2.59 2.09l-.6.56-.43.44-.05.06-.07-.04-.5-.27.26.24c-3.86-2.1-6.88-2.73-9.74-3.06-2.87-.25-5.7-.2-9.56.77l.1-.05c-2.4.72-4.45 1.7-6.25 2.8-1.8 1.1-3.38 2.35-4.8 3.76s-2.67 3.02-3.77 4.87c-.55.93-1.05 1.93-1.5 3-.22.54-.44 1.1-.62 1.68-.1.3-.2.6-.27.9l-.04.15-.02.07c-.02.04-.01.12-.07.1.1-.1.04-.13.03-.05-.06.02-.18-.03-.16-.03l-.7-.05c.02-.46.05-.97.1-1.48l-.02.63.25-3.93-.2.76c.17-2.08.2-.52.3-2.52l-.12.02c.22-2.88.47-4.56.72-7.35.66-11.6.7-24.1.76-34.9l.08-.48c.13-.2-.23-2.98-.12-3.4-.02-.42-.06-.84-.1-1.26.01-.35 0-1.1.06-.48-.05-1.17-.07-1.2-.15-2.03l.02-1.25c-.03-2.3-.3-4.42-.5-6.57-.18-2.15-.54-4.3-.83-6.7-.12-1.45-.4-3.2-.72-5.12l-.5-2.98-.64-3.1c-.4-2.1-.92-4.16-1.4-6.1-.46-1.95-.98-3.74-1.4-5.26-.02-.07-.04-.15-.07-.23l14.5.01-.7.03 36.46.43c1.7.2 12.9.45 16.58.7h-.35c9.6.3 19.73 1.1 28.96 1.62-.36-.01-.56 0-2.68-.14l16.38 1.38 12.88 1.42 13.5 1.85 21.95 3.64-.7-.1c5.78 1 7.48 1.35 13.9 2.72l.73.18c6.3 1.16 18.2 4.13 23.24 5.35l.3.15 12.33 3.22c-1.52-.44-3.07-.82-4.6-1.23 1.66.2 9.27 2.63 18.18 5.08 4.13 1.27 8.36 2.43 12.62 3.66l12.78 4c4.08 1.3-3.62-1.08 2.47.92.17.16-2.85-.9-1.3-.3 5.97 2 9.74 3.38 17.05 5.97l.27.18c9.57 3.3 17.85 6.75 24.16 9.1 4.87 1.86 6.45 2.63 8.1 3.33 1.65.74 3.37 1.42 8.4 3.48l3.85 1.74c4.27 1.82 3.12 1.18 7.82 3.3-.3-.07 5.95 2.66 3.16 1.5l22.96 10.5-.35.9c-.86 2.27-1.57 4.64-2.1 7.1-.27 1.22-.5 2.47-.68 3.72a39.41 39.41 0 0 0-.23 1.9l-.08.85-.03.43c-.12-.05-.2-.1-.35-.15s-.24-.1-.53-.2c-.5-.18-1-.32-1.5-.46s-1.03-.24-1.54-.36l-1.57-.24c-2.1-.26-4.27-.2-6.38.2-.53.08-1.06.18-1.57.34-.52.15-1.04.27-1.55.45-1 .4-2.02.75-2.96 1.3-1.94.96-3.65 2.3-5.26 3.7-1.6 1.45-2.98 3.17-3.97 5.1-1 1.92-1.64 4-1.94 6.1-.58 4.23.1 8.43 1.33 12.24.1.33.3.9.47 1.4a12.34 12.34 0 0 0 .36.89c.32.85.67 1.7 1.05 2.52l.45.94.2.38c-.18-.05-.36-.1-.54-.14l-.36-.08-.43-.08-.85-.15c-1.14-.18-2.3-.3-3.44-.36-2.3-.13-4.62.01-6.9.4l-1.02.17c-.65.18-1.6.35-2.76.73-2.32.68-5.5 2.05-8.56 4.38-2.3 1.67-4.42 3.98-6.1 6.62-.35-.2-.67-.42-1-.6zm1.8 1.1h0zm206.4-35.15c-.16-.57.55.96 1 2.73l-.02.22c.27.82.4 1.5.5 2.04l.26 1.28c.08.66.1.98.12 1.3.01.3.06.62.1 1.28.02.66.12 1.66.08 3.35l-.04-.6c.06.6.07 1.2.06 1.8-.03.75-.13 1.36-.2 1.87-.06.5-.17.92-.25 1.26-.15.68-.3 1.1-.46 1.5-.14.43-.33.84-.6 1.53-.16.33-.3.74-.57 1.23l-.2.4-.48.76c-.3.5-.86 1.17-1.3 1.78.14-.01.4-.07.65-.1-.24.04-.5.1-.62.1l1.08-1.36c.2-.28.28-.4.3-.37.04.02-.37.63-1.08 1.56.43-.05 1.14-.2 1.78-.27.34-.04.7-.1 1.06-.1l.7-.03-.42.06-.52.07.74-.05c.2-.02.37-.02.54-.02l.9-.02c.54.01 1 .03 1.6.08-1.1 0-.57-.03 2.1.37-.6-.1-1.2-.12-1.8-.16 1.7.1 3.37.45 5.02.9 1.9.6 4.2 1.74 6.05 3l1.3.96c.4.32.74.66 1.07.95l.85.8c.24.23.4.46.53.62l.9 1.02c.6.58 1.17 1.56 1.88 2.5.7.96 1.28 2.08 1.86 3l1.15 2.18c-.44-.75-.06-.1.2.66.27.74.56 1.53.27.92.45 1 1.17 3.06 1.3 5.22.2 2.18-.6 4.3-1.34 5.22.1-.12.16-.26.23-.4-.28.48-.64.9-1 1.25-.08.07-.22.2-.26.22-.01.01-.03.02-.04.01h-4.17l-6.3.03h-12.47c.4.1-4.27.04-3.1.15-9.15.1-16.68-.23-19.98.12-4.16.02-4.93-.08-7.08-.1l1-.02-15.85.02c-2.9.03-3.35.2-8.53.15 1.68-.06-.44-.05-2.38-.05 1.24-.01 1.62-.03-.92-.08l-1.43.04c-.02-.01-.12-.01-.07-.02-3.23.02-2.67.04-1.17.05-.08.01.05.02.52.04-3.36-.08-9.36.01-9.76-.1l-24.77.18c-.9-.06.98-.1 3.33-.13l-5.74.02c.02-.04.85-.05 1.9-.06l3.18-.01c-6.84-.13-14.1.13-22.1.01l-1.66.06-.48-.01c.01.02-.43.04-1.03.05l-1.94.04c-1.13-.07.08-.16-3.9-.16-3.14-.07-8.92.03-13.03.07 2.22.01 1.5.05.55.08-1.98 0-3.13-.07-4.66-.04l-.15-.07c-.28.07-5.3.08-5.96.1-1.13-.07 3.08-.06 3.57-.1h-11.94c-4.25.07.77.1-1.26.17l-11.7.03 1.36.08c-7.04.07-11.26.06-16-.03l-4.35.06-.37-.32-.85-.73-1.65-1.4-1.88-1.57-8.83-7.1c-2.97-2.34-5.44-4.2-7.72-5.77-.52-.36-1.02-.7-1.53-1.02.6-.94 1.3-1.75 1.9-2.57l1.18-1.23.57-.6.62-.52c.8-.7 1.6-1.37 2.44-1.9l1.2-.83 1.25-.7c3.3-1.8 6.56-2.83 10.06-3.3.28.02.95-.03 1.82-.1.88-.02 1.97-.06 3.1-.01 1.13.04 2.3.15 3.33.3 1.08.18 1.7.26 2.93.62l-.37-.1a54.67 54.67 0 0 1 2.19.62l-.94-1.64c-.3-.53-.6-1.13-.7-1.38-.32-.67-.62-1.35-.9-2.04-.55-1.38-1.03-2.8-1.4-4.23-.76-2.86-1.14-5.78-1.08-8.56 0 .2.02.33.04 1.24-.04-2.06.23-4.4.84-6.22.62-1.97 1.44-3.3 1.56-3.4 2.33-4.14 7.18-7.87 12.3-9.33 2.57-.74 5.2-.9 7.57-.68.6.04 1.16.16 1.72.23.55.12 1.1.2 1.6.35a23.28 23.28 0 0 1 1.46.42 23.02 23.02 0 0 1 1.99.82l.05-1.5.06-.92-.01.46c.1-1.9.3-3.15.54-4.43a61.91 61.91 0 0 1 1.08-4.69l.17-.46c.54-2.02 1.6-4.92 2.95-7.54 1.35-2.64 3.02-4.96 4.05-6.3l.2-.12c1.75-2.15 3.76-4.1 6-5.73-.44.28-.82.64-1.23.95-.4.32-.82.64-1.2 1 .16-.22.55-.6 1.13-1.04l.98-.78 1.26-.85c1.84-1.2 4.32-2.54 7.12-3.65 2.64-1 5.43-1.75 8.3-2.26l4.35-.66c1.47-.12 2.95-.16 4.43-.2 1.4-.1.8-.04.34.02-.22.03-.4.05-.26.06.14.02.6-.06 1.65 0 .07.05-.42.04-.8.04-.37.03-.63.05-.1.06a79.13 79.13 0 0 1 2.88.12c.9.07 1.8.04 2.68.2 1.8.27 3.72.44 6.2 1l.2.12c1.64.26 3.17.8 4.67 1.2 1.48.46 2.86 1.06 4.2 1.58 2.6 1.2 4.87 2.38 6.77 3.52 2.67 1.64 3.58 2.48 4.42 3.18.42.35.8.7 1.32 1.17.27.23.56.5.9.82.17.16.36.33.55.53.28.28.66.68 1.02 1.06.25-.3.5-.62.8-.94l.62-.67c.67-.62 1.37-1.22 2.1-1.8l2.04-1.67c.46-.36.94-.76 2.38-1.63-.07.08.84-.47 1.6-.84.74-.4 1.3-.63.44-.18 3.37-1.68 7.08-2.9 11.2-3.12 4.1-.22 8.6.66 13 2.98 1 .4 2.57 1.3 3.96 2.3a32.74 32.74 0 0 1 3.19 2.7c.1.1 1.8 1.94 2.75 3.44.48.74.84 1.34.9 1.47.05.12-.16-.27-.96-1.42-.27-.4-.8-1.07-.73-1.04-.16-.16-.3-.34-.46-.5 1.68 2.26 2.93 4.5 3.88 6.9a29.83 29.83 0 0 1 1.95 7.68c-.17-1.66-.65-3.84-.3-2.4.33 1.7.53 3.46.6 5.2l-.13-1.08a39.05 39.05 0 0 1 .08 3.9c-.02.65-.05 1.3-.1 1.94l-.1 1c-.07.6-.17 1.22-.28 1.83.14-.68.28-1.44.36-1.94a24.94 24.94 0 0 1-.29 1.87 52.27 52.27 0 0 1 1.89-.2c.34-.02.66-.03.97-.04.63-.02 1.22-.02 1.83-.02 1.23.01 2.57.04 4.5.2 1.95.14-3.6-.47.43-.08 2.52.34 5.68 1.05 8.6 2.65 1.45.8 2.82 1.8 3.95 3.02 1.13 1.23 2.02 2.64 2.62 4.1zm59.97-51.97l-21.7 2.94-.66.01c-.15-.04-1.18.2-2.16.62-1 .4-1.9 1.02-2.18 1.13a12.89 12.89 0 0 0-1.36 1.08c-.38.3-1.12.93-.52.36-1.15 1.02-1.16 1.06-1.95 1.83l-1.27 1.05a115.54 115.54 0 0 0-6.21 6.05c-1.98 2.05-3.8 4.32-5.86 6.72l-19.66 23c-.1.12-.2.24-.3.36-.1-.08-.2-.16-.3-.24-2.84-2-6.22-3.08-9.6-3.64-1.47-.24-2.96-.36-4.45-.42l7.72-9.42 11.8-14.47c1.7-2.28 5-6.1 7.03-8.76l.88-.96c.7-.9 1.56-1.97 2.35-2.82l-.03.07c1.08-1.34 2.42-2.75 3-3.38l-.03.07c.47-.5.96-1 1.45-1.5l-.23.27c2.07-2.14 4.42-4.18 6.76-5.4l-.23.03c2.52-1.32 4.44-1.78 6.28-2.06 1.86-.24 3.67-.2 6.26.24l-.07.01c6.7.55 10.5 1.33 17.4 1.87-.86-.07.36.08.3.1 3.16.32 6.54.68 6.6.52 2.3.26 1.87.26 2.16.36 0-.04.5-.01 1.22.05l2.57.25-.83-.06 5.15.54-1-.25c2.73.34.67.25 3.3.5l-.02-.12 2.58.33c.4.06.78.1 1.16.16l.56.08.3.06c.67.13.97.23 1.16.3l.33.04-17.64 2.5z"/><path d="M543.48 304.22h0l-.01-.34zm-64.28 179.3l.04.02c.03-.01.03-.01-.04-.02zM599.45 235l.27.2-.27-.2zm-3.3 50.3h0l.01.2zm-28 26.25c.07.28.16.55.25.82-.1-.27-.17-.54-.25-.82zm9.3-49.32a.34.34 0 0 0 .1.01.5.5 0 0 0 .49-.4l.57-2.76a.51.51 0 0 0-.4-.6.51.51 0 0 0-.6.4l-.57 2.76a.5.5 0 0 0 .39.59zm72.1 40.87h0l.2-.08zm-63.38 31.73l-1.4 3.26a.51.51 0 0 0 .27.66c.06.03.13.04.2.04.2 0 .38-.1.46-.3l1.4-3.25c.1-.25-.01-.55-.26-.66-.26-.1-.55.01-.66.26zM189.02 209h0l.07-.05zm126.84 103.5h0l.4-.05zM188.6 239.6h0l.03-.06zm-.34 74.62h0l.04-.07zm-.78-55.92h0l-.06-.04z"/><path d="M203.13 252.25c.1-.16-.35-.62-.42-.8l.02.01c-.4-.35-.6-.94-1.04-1.22.02.01.07-.03.15.06-.3-.25-.7-.56-.65-.65-.7-.57-1.8-1.2-2.4-1.22l.05-.01c-.34 0-.4-.15-.76-.18-.02-.02-.04-.03-.03-.03-.36-.01-1-.2-1.3-.2l-.01-.07-.7-.02.26.03c-.1.18-.53-.15-1.03.01-.24-.01-.47.13-.7.25s-.44.24-.67.26c-.2.14.16-.2-.15-.04-.04-.1.14-.1.04-.15-.32.12-.57.06-.94.27l-.04-.06c-.46.33-1 .34-1.25.66-.45.34-.45.02-.85.5l-.25.06c-.2.16-.06.22-.3.37-.03-.06-.3.2-.22.05-.54.4-.8 1.05-1.38 1.7 0 .22-.27.56-.24.73-.07-.01-.37.78-.28.3.01-.04.04-.1.06-.1l-.04-.08c-.33.4-.28.86-.42 1.32.06-.13.1-.32.12-.18l-.12.43-.04-.1c-.07.2-.14.43-.17.65l.1-.08c-.08.32-.25.42-.17.8.05.17.12-.3.12.05-.1.43-.17 1.1-.12 1.66.08-.06.1.1.14.24l-.07.03c.2.57-.15.25.08.82l.13.08c.28.47-.08.33.3.83-.1-.22.12-.16.18.12l-.1-.04.15.28c-.08-.07-.12 0-.01.2l-.15-.1.3.34c.07.35.46.75.44.93 0 0 .4.63.6.7-.15-.07.1.25-.04.22a2.73 2.73 0 0 1 .73.67l-.04-.02c.56.65 1.2.8 1.8 1.27.01-.1.35.12.3-.02.72.25 1.24.74 1.6.48.34.06.38.2.55.23h-.1l1.32.13c.24-.02.28-.17.7-.15-.14.07.04.05.2.04-.1.02-.13.04.08.07.03-.02.07-.04.12-.05 0 0 .01.01.01.02.27-.04.22-.07.1-.06.01-.01-.01-.02-.05-.04.28.05.76-.12.82-.02.8-.2 1.3-.5 1.88-.8.1.02-.03.13-.2.23l.42-.22c.03.07-.23.16-.35.24.58-.13 1-.63 1.58-.94l.07-.13h.04c-.02-.03.07-.15.14-.22.1-.01.1.13.34-.1.25-.12.52-.53.7-.82-.13.13-.12.06-.1-.02.1-.12.23-.14.28-.27l.08.05c-.1 0 .18-.4.18-.47.1-.03-.1.24-.08.3.4-.53.2-.26.54-.83.12-.33-.1.01-.1-.17.14-.27.2-.57.4-.86l-.12.07a6.16 6.16 0 0 1 .44-1.2c.1-1.06-.08-1.63-.18-1.9s-.2-.25-.28-.1c-.15.28-.27 1-.3 1l-.53 1.8c-.2.55-.43 1.15-.97 1.86a5.41 5.41 0 0 1-1.37 1.1l-1.57.83c-.7.28-1.5.47-2.24.52-.35.16-.98.01-1.4.04l-.15-.1c-.15.02-.32.01-.46-.07v-.02c-.22 0-.45-.1-.56-.1h.01l-.25-.08h.05c-.38-.06-.73-.24-1.03-.4l-.02.1c-.6-.46-.92-.46-1.36-1h.02c-.8-.4-.82-1.05-1.46-1.65.08.08.01-.06.04-.07-.25-.32-.4-.72-.58-.65-.13-.27-.04-.25 0-.3-.07.03-.2-.2-.27-.42l.06.1c-.1-.2-.15-.42-.2-.63l-.1.16c-.05-.36.14-.13.03-.45l-.1.03c-.05-.5.07-.8.15-1.28-.01-.97.1-1.98.4-2.92a5.36 5.36 0 0 1 1.57-2.4h.12c.1.06.23-.47.36-.44l.12-.2c.06-.02.18-.07.1.01.16-.1.15-.13.24-.25l.2-.06c.66-.36 1.18-.8 1.97-1.02.96-.16 2.76-.43 3.83-.2.76.06 1.5.47 2.15.95.65.5 1.2 1.06 1.76 1.57.02.05.12.13.14.1.28.37.53.76.74 1.17a3.25 3.25 0 0 0 .12.25c.08.15.18.37.27.63.22.5.37 1.17.5 1.7.1.52.2.9.35.8.1-.1.4-.66.32-2.14l.04.03c-.2-.84-.44-1.36-.82-1.83zm-15.8 39c.05.17.12-.3.12.05-.1.43-.17 1.1-.12 1.66.08-.06.1.1.14.24l-.07.03c.2.57-.15.25.08.82l.13.08c.28.47-.08.33.3.83-.1-.22.12-.16.18.12l-.1-.04.15.28c-.08-.07-.12 0-.01.2l-.15-.1.3.34c.07.35.46.75.44.93 0 0 .4.63.6.7-.15-.07.1.25-.04.22a2.73 2.73 0 0 1 .73.67l-.04-.02c.56.65 1.2.8 1.8 1.27.01-.1.35.12.3-.02.72.25 1.24.74 1.6.48.34.06.38.2.55.23h-.1l1.32.13c.24-.02.28-.17.7-.15-.14.07.04.05.2.04-.1.02-.13.04.08.07.03-.02.07-.04.12-.05 0 0 .01.01.01.02.27-.04.22-.07.1-.06.01-.01-.01-.02-.05-.04.28.05.76-.12.82-.02.8-.2 1.3-.5 1.88-.8.1.02-.03.13-.2.23l.42-.22c.03.07-.23.16-.35.24.58-.13 1-.63 1.58-.94l.07-.13.04-.02c-.02-.03.07-.15.14-.22.1-.01.1.13.34-.1.25-.12.52-.53.7-.82-.13.13-.12.06-.1-.02.1-.12.23-.15.28-.27l.08.05c-.1 0 .18-.4.18-.47.1-.03-.1.24-.08.3.4-.53.2-.26.54-.83.12-.33-.1.01-.1-.17.14-.27.2-.57.4-.86l-.12.07a6.16 6.16 0 0 1 .44-1.2c.1-1.06-.08-1.63-.18-1.9s-.2-.25-.28-.1c-.15.28-.27 1-.3 1l-.53 1.8c-.2.55-.43 1.15-.97 1.86a5.41 5.41 0 0 1-1.37 1.1l-1.57.83c-.7.28-1.5.47-2.24.52-.35.16-.98.01-1.4.04l-.15-.1c-.15.02-.32.01-.46-.07l.01-.02c-.22 0-.45-.1-.56-.1l.01-.02-.25-.08h.05c-.38-.06-.73-.24-1.03-.4l-.02.1c-.6-.46-.92-.46-1.36-1l.02-.01c-.8-.4-.82-1.05-1.46-1.65.08.08.01-.06.04-.07-.25-.32-.4-.72-.58-.65-.13-.27-.04-.25 0-.3-.07.03-.2-.2-.27-.42l.06.1c-.1-.2-.15-.42-.2-.63l-.1.16c-.05-.36.14-.13.03-.45l-.1.03c-.05-.5.07-.8.15-1.28-.01-.97.1-1.98.4-2.92a5.36 5.36 0 0 1 1.57-2.4h.12c.1.06.23-.47.36-.44l.12-.2c.06-.02.18-.07.1.01.16-.1.15-.13.24-.25l.2-.06c.66-.36 1.18-.8 1.97-1.02.96-.16 2.76-.43 3.83-.2.76.06 1.5.47 2.15.95.65.5 1.2 1.06 1.76 1.57.02.05.12.13.14.1.28.37.53.76.74 1.17a3.25 3.25 0 0 0 .12.25c.08.15.18.37.27.63.22.5.37 1.17.5 1.7.1.52.2.9.35.8.1-.1.4-.66.32-2.14l.04.03c-.15-.86-.4-1.38-.78-1.84.1-.16-.35-.62-.42-.8h.02c-.4-.35-.6-.94-1.04-1.22.02.01.07-.03.15.06-.3-.25-.7-.56-.65-.65-.7-.57-1.8-1.2-2.4-1.22l.05-.01c-.34 0-.4-.15-.76-.18-.02-.02-.04-.03-.03-.03-.36-.01-1-.2-1.3-.2l-.01-.07-.7-.02.26.03c-.1.18-.53-.15-1.03.01-.24-.01-.47.13-.7.25s-.44.24-.67.26c-.2.14.16-.2-.15-.04-.04-.1.14-.1.04-.15-.32.12-.57.06-.94.27l-.04-.06c-.46.33-1 .34-1.25.66-.45.34-.45.02-.85.5l-.25.06c-.2.16-.06.22-.3.37-.03-.06-.3.2-.22.05-.54.4-.8 1.05-1.38 1.7 0 .22-.27.56-.24.73-.07-.01-.37.78-.28.3.01-.04.04-.1.06-.1l-.04-.08c-.33.4-.28.86-.42 1.32.06-.13.1-.32.12-.18l-.12.43-.04-.1c-.07.2-.14.43-.17.65l.1-.08c-.12.32-.3.42-.2.8z"/><path d="M187.48 294.03h0l-.06-.04zM179.6 178.2h0l-.07-.06z"/><path d="M185.04 166.3l.3-.12c1-.58 1.8-1.16 2.98-1.5.73-.1 1.74-.37 2.8-.4.53-.07 1.07-.01 1.57-.02.5.07.98.07 1.37.17 1.13.14 2.25.7 3.24 1.4 1 .7 1.86 1.55 2.67 2.35.04.06.18.2.2.18a11.15 11.15 0 0 1 1.12 1.76l.18.38c.12.23.27.56.4.96.32.77.54 1.78.7 2.55.1.78.23 1.34.37 1.2.1-.14.43-1 .2-3.1l.04.05c-.24-1.23-.6-1.97-1.1-2.67.08-.2-.5-.9-.63-1.16l.03.01c-.3-.27-.5-.6-.72-.92-.24-.3-.47-.63-.78-.84.02.01.06-.01.12.04-.4-.35-.9-.76-.87-.85-1-.83-2.6-1.7-3.44-1.82l.06-.01c-.48-.05-.57-.22-1.1-.3-.02-.02-.06-.04-.05-.04-.5-.05-1.45-.3-1.86-.3l-.02-.07-1-.04.38.03c-.14.17-.76-.17-1.5.01-.34-.01-.68.15-1 .3-.33.13-.65.27-1 .32-.3.17.25-.2-.22-.02-.04-.1.2-.12.07-.16-.47.15-.8.13-1.36.4l-.05-.06c-.68.42-1.43.54-1.8.94-.67.48-.6.1-1.2.74l-.33.13c-.3.24-.12.27-.45.5-.02-.06-.42.3-.28.1-.74.6-1.2 1.47-1.97 2.44-.05.28-.4.8-.4 1.02-.08 0-.52 1.12-.35.44.02-.06.06-.15.08-.14l-.03-.1c-.23.3-.3.6-.4.92l-.23.97c.08-.2.14-.46.14-.27l-.17.62-.03-.15a6.17 6.17 0 0 0-.24.94l.1-.12c-.1.46-.3.6-.2 1.16.05.24.13-.44.12.06-.1.62-.18 1.57-.1 2.38.07-.08.1.13.15.35l-.07.04c.24.83-.14.35.15 1.16l.14.12c.33.7-.05.45.43 1.2-.13-.3.1-.2.2.2l-.1-.07.2.4c-.1-.1-.13-.02.03.28l-.18-.17.4.52c.13.5.66 1.08.66 1.32l.32.46c.18.23.38.5.5.55-.2-.1.18.34 0 .27.25.16.83.7 1.03.98l-.05-.03c.83.9 1.68 1.2 2.56 1.83 0-.1.5.2.4.03l1.35.6c.38.18.7.25.94.14.5.1.55.24.8.3h-.12l1.9.2c.35-.02.4-.15 1.02-.15-.2.07.05.05.3.04-.15.02-.2.04.12.07.04-.02.1-.04.17-.05 0 0 .02.01.01.02.4-.05.3-.08.14-.06.01-.01-.01-.02-.07-.04.4.03 1.1-.17 1.17-.07 1.14-.28 1.9-.64 2.74-1.1.12 0-.06.15-.3.3l.6-.32c.03.07-.34.2-.52.32.8-.23 1.46-.87 2.28-1.35l.12-.17.05-.03c-.02-.03.12-.2.23-.28.15-.03.1.13.45-.2.16-.1.36-.3.55-.5l.5-.66c-.2.2-.16.1-.1 0 .16-.18.3-.23.4-.4l.1.04c-.13.02.3-.56.32-.65.14-.07-.17.33-.16.4.56-.77.3-.38.78-1.2.2-.47-.12.03-.07-.2.2-.4.32-.82.6-1.25l-.14.1.63-1.76c.2-1.54.03-2.38-.06-2.77-.1-.4-.2-.37-.28-.15-.16.42-.3 1.53-.33 1.52-.23 1.1-.5 1.88-.8 2.73-.33.83-.7 1.72-1.54 2.78-.4.43-.74.78-1.08 1.04-.32.28-.64.48-.95.7a15.35 15.35 0 0 1-2.4 1.27 11.25 11.25 0 0 1-3.41.77c-.27.08-.64.1-1.02.06L190 186l-.23-.1c-.22.01-.48-.01-.7-.12l.02-.02c-.33-.03-.7-.14-.85-.18l.02-.02-.38-.13h.07c-.57-.12-1.1-.4-1.56-.64v.1c-.9-.65-1.36-.73-2.06-1.5h.02c-1.12-.7-1.3-1.53-2.18-2.5.1.13 0-.08.03-.08-.36-.5-.6-1.1-.78-1.03-.2-.4-.1-.36-.06-.43-.07.03-.23-.32-.36-.65l.08.14c-.14-.3-.2-.63-.3-.95l-.1.23c-.1-.53.13-.17-.03-.66l-.1.03c-.1-.74 0-1.2.08-1.9-.03-1.46.16-2.98.66-4.4.5-1.4 1.33-2.7 2.35-3.6l.14-.03c.1.04.42-.64.58-.63l.2-.26c.1-.04.25-.13.14-.01.2-.15.2-.17.34-.33zm4.6-37.23h0l-.06-.02zM178.95 200h1.9c.28 0 .5-.22.5-.5s-.22-.5-.5-.5h-1.9c-.28 0-.5.22-.5.5a.5.5 0 0 0 .5.5zm-.3-45.16h1.63c.28 0 .5-.22.5-.5s-.22-.5-.5-.5h-1.63c-.28 0-.5.22-.5.5s.22.5.5.5zm-70.4 278.12h0l-.38.34zm137.45 24.38v-.04c0-.02-.01-.01-.02.04zm-9.1-344.8v-.01l.05-.16z"/><path d="M233.44 124.5l.78 3.04-.05-.13c.4 1.28.92 2.32 1.56 3.24.3.47.68.88 1.03 1.32.4.4.77.85 1.25 1.23-.03-.13.96.68.77.4 2.1 1.38 4.17 1.9 5.07 1.72 1.1.05 1.3.17 1.88.2-.08.01-.17.01-.26.01l4.1-.02c.75-.03.87-.2 2.2-.15-.43.06.1.05.62.05-.32.01-.42.03.24.08.1-.02.24-.03.37-.04.01.01.03.01.02.02.84-.02.7-.04.3-.05.02-.01-.01-.02-.13-.04.87.08 2.42-.01 2.53.1l6.42-.18c.24.06-.25.1-.86.13l1.5-.02c-.01.08-.85.05-1.3.06 1.77.13 3.65-.13 5.73-.01l.43-.06h.12c-.01-.03.46-.08.77-.1.3.07-.02.16 1 .16.8.07 2.3-.03 3.37-.07-.57-.01-.4-.05-.14-.08.5 0 .8.07 1.2.04l.05.1c-.2-.1 1.34-.1 1.53-.13.3.07-.8.06-.93.1l3.1-.01c1.1-.07-.2-.1.33-.17l3.03-.03-.35-.08 4.14.03c13.6-.68 2.86-.93 2.86-.93-5.35-.2-8.1.06-14.48.12-5.6-.04-7.08-.2-12.88-.14l-8.42.04c-1.28.13-3.55 0-5.07.1l-.6-.07a7.17 7.17 0 0 1-1.61-.04l.03-.02c-.37-.01-.78.01-1.1-.07l-.8-.16h.03c-.3-.06-.6-.1-.87-.2h.15c-1.23-.35-2.43-.94-3.3-1.72l.02.13c-.5-.4-.8-.82-1.15-1.14-.28-.38-.57-.7-.8-1.03-.45-.7-.9-1.38-1.24-2.48h.03c-.62-1.3-.84-2.48-.92-3.6-.05-1.14.04-2.32.17-3.82-.03.38.07-.15.1-.12.08-.7.28-1.38.37-1.92.14-.53.22-.9.14-.94.32-.97.36-.75.45-.85-.05-.01.2-.87.6-1.55l-.15.33c.37-.66.7-1.35 1.16-1.95l-.38.3c.74-.97.32-.15.96-1.1l-.1-.06c.58-.6 1.04-1.1 1.56-1.5.55-.37 1.05-.78 1.73-1.2 2.72-1.9 6.07-3.18 9.46-3.73 3.4-.54 6.86-.13 9.74 1.08l.23.17c.07.13 1.64.54 1.8.74.23.08.44.2.66.3.17.12.53.36.2.2.57.35.62.3 1.03.56l.55.47c.98.7 1.84 1.42 2.7 2.17.4.4.83.77 1.2 1.2.2.2.4.43.58.65l.16.18.24.3.47.63c.33-.23.76-.52 1.06-.68 1.45-.72 3.77-1.44 6.18-1.3a14.19 14.19 0 0 1 6.32 1.89c1.75 1 3.23 2.7 4 4.72.4 1 .6 2.1.7 3.18a11.09 11.09 0 0 1 .03 1.63c-.01.13-.01.27-.02.4l-.02.22c-.01.13-.02.25-.04.38l-.27 1.56c.5-.12 1.04-.26 1.53-.35.13-.02.25-.05.38-.07l.22-.03c.13-.02.26-.04.4-.05.52-.06 1.04-.1 1.55-.1.16.03.6.01.6.01 1.53.16 2.97.83 3.74 2.06a6.6 6.6 0 0 0 .45.81c.25.5.55 1.27.6 2.12.08.86-.33 1.7-1.08 2.28s-1.75.87-2.6 1.1l-1.2.22-.93.12c-.5.08-.74.15-.58.22.16.05.7.14 1.8.13.28-.02.6-.03.92-.05.34-.03.72-.1 1.14-.18.8-.22 1.85-.48 2.75-1.44l-.07.13c.55-.55.8-1.28.9-1.9.1-.65-.01-1.23-.12-1.77-.3-1.05-.73-1.87-1.4-2.64-.01-.2-.4-.67-.96-1.05-.53-.4-1.2-.64-1.5-.77l.07.01c-.86-.24-1.73-.4-2.6-.46a9.4 9.4 0 0 0-1.3 0c-.2.02-.43.03-.63.07a1.65 1.65 0 0 0-.27.05l-.1.04c.01-.01.03-.03.05-.04.01-.01.03-.02.04-.03l.02-.01c.03-.01.07-.01.12-.02-.13.02-.13.02-.16.03l-.1.02-.2.05c.02-.15.03-.28.05-.4.03-.3.05-.52.1-.54.04-1.44-.16-3.17-.7-4.7-.54-1.5-1.37-2.78-2.06-3.4l.1.08c-.37-.38-.6-.63-.87-.86s-.5-.54-1-.84c-.04-.05-.1-.1-.1-.1-.93-.68-2.87-1.64-3.74-1.9l-.03-.08-1.08-.32c-.36-.1-.74-.15-1.1-.23l.82.2c-.32.13-1.64-.54-3.3-.4-1.56-.01-3.02.7-4.47 1.17-.65.37.55-.38-.45.1-.07-.07.46-.26.16-.22l-.9.42c-.1.05-.22.1-.33.16-.08.04-.15.07-.22.12-.12-.16-.17-.25-.55-.66l.02-.1c-1.25-1.25-2.25-2.47-3.27-3.1-.72-.55-.95-.75-1.2-.97-.24-.2-.46-.46-1.33-.87l-.6-.46c-.7-.43-.57-.17-1.36-.6.08-.03-1.02-.53-.5-.36-1.87-.88-3.98-1.3-6.66-1.68-.6.1-1.96.03-2.4.1-.08-.08-2.7.28-1.2-.01.13-.02.36-.05.35-.02l.18-.1c-.77.02-1.48.1-2.17.23-.68.2-1.34.4-2.1.55.45-.08 1.03-.22.65-.08-.46.1-.92.2-1.37.32a2.34 2.34 0 0 1 .27-.14c-.68.2-1.34.43-2 .65l.3-.03c-.5.16-.84.22-1.2.34a7.51 7.51 0 0 0-1.19.61c-.45.3.92-.34-.04.16-.3.15-.68.3-1.04.48l-1.13.7c-.8.44-1.52 1.1-2.22 1.67.2-.04-.2.25-.5.64h-.1c-1.17 1.5-.66.36-1.7 1.94l-.1.33c-.44.73-.52.94-.7 1.13-.13.2-.36.42-.63 1.32.28-.7.3-.25-.1.57l.02-.24-.35.94c.06-.3-.05-.2-.27.52l.07-.5-.3 1.38c-.36 1.03-.56 2.73-.67 3.17 0 0-.08.58-.1 1.23-.03.65.02 1.38.1 1.65-.13-.48-.02.83-.14.47zm212.54 39.4c1.17.63 2.4.95 3.62 1.2.3.12 1.13.15 1.13.15l2.23.25 2.22.1h4.4s42.6.05 10.24-1.02l.22-.03c-4.8-.07-7.83-.08-11.15.06-.52-.2-3.96.03-5.06-.12h.1c-2.88.01-5.96-.7-8.22-2.05.08.06.17.04.7.33-.9-.4-1.7-1.2-2.16-1.93-.1-.2-.2-.38-.28-.54-.08-.17-.1-.34-.14-.47-.06-.28-.1-.45-.08-.5-.42-2.16.78-5.07 2.33-7.02.84-.94 1.9-1.58 2.9-2s1.98-.62 2.73-.76l-.2.06c1.7-.3 2.25-.2 4.2-.1.1.02.24.04.22.05.32.03.7.05 1.08.12l.38.06c.16.03.32.07.48.1l1 .23-.18-1.03c-.05-.34-.1-.72-.1-.9-.02-.45-.07-.9-.07-1.32-.03-.85.02-1.6.02-2.12l.08-.1c.12-1.26.27-2.53.62-3.76-.13.46-.26.9-.33 1.38-.1-.53.65-2.84 1.85-5.3 1.22-2.24 2.77-4.56 5.1-6.05 1-.83-.85.78.7-.4.1.04-.7.57-.25.35l.55-.4.56-.3 1.1-.56c.72-.42 1.58-.65 2.64-1.14l.1.04c2.85-1.13 5.6-1.16 7.6-1.33 1.57-.1 2.1.08 2.64.13.54.06 1.1.17 2.72.3l1.24.3c1.36.3 1 .06 2.5.5-.1.02 1.87.58 1 .38l2.24.76 1.13.43.68.28 1.03.47c.2-.43.4-.9.6-1.3l.37-.72c.26-.48.53-.96.84-1.45.6-.97 1.3-1.95 2.14-2.92.5-.88 2.14-2.54 2.64-3.1.06-.03.9-.8 1.56-1.32.65-.5 1.04-.77.05.07-.17.14-.46.4-.46.37l-.2.26c2.05-1.6 3.74-2.92 6.12-3.95-.7.27-1.62.74-1.03.4.73-.33 1.46-.66 2.22-.9l-.45.23c.56-.2 1.12-.4 1.7-.55a13.12 13.12 0 0 1 1.73-.4l-.5.03c.86-.18 1.45-.22 2.06-.27.6-.08 1.25-.08 2.23-.2.9-.1-1.66-.03.2-.13 2.35-.02 5.84.58 8.7 1.55-.25-.15.54.05 1.32.34l.06.1c1.5.52 1.77.66 2 .83s.5.28 1.92.97l-.27-.08.8.25c1.3.6 1.57.9 1.92 1.13.34.26.7.53 2.02 1.4-.98-.77-.35-.5.82.5l-.35-.2c.68.52.87.73 1.3 1.12-.4-.3-.24-.13.62.77-.2-.18-.42-.37-.65-.54.58.53 1.16 1.06 1.68 1.65.55.73 1.26 1.67 1.78 2.57.55.9.95 1.7 1.06 2.07a25.12 25.12 0 0 0 .79 1.91c.35.95.66 2 .84 2.5-.15-.36.24 1.44.04.9.16.48.37 1.47.52 2.5.14 1.02.2 2.08.17 2.68v-.23a40.69 40.69 0 0 1-.08 3.56c-.04.56-.1 1.1-.15 1.63l-.05.4-.04.28-.07.37a39.93 39.93 0 0 1-.31 1.5l2.14-.35 1.2-.17a45.22 45.22 0 0 1 2.49-.27c-.2-.07 1.95-.25 1.4-.3 2.08-.25 4.05-.4 5.56-.4 1.53.05 2.7.26 3.45.3.9.25 1.4.47 1.78.7a8.44 8.44 0 0 1 1.05.64l-.38-.2a9.78 9.78 0 0 1 2.9 2.43 9.82 9.82 0 0 1 1.52 2.74c.24.6.35.94.5 1.42.12.48.28 1.1.22 2.26-.05-.75-.01.2-.15 1.05.07-.54.07-.7-.13.4-.02.16-.07.4-.1.62-.01.01-.02.05-.02.03-.42 1.35-.35 1.12-.1.5 0 .03.03-.01.12-.2-.27.7-.7 1.64-1.2 2.34-.52.7-1.04 1.18-1.14 1.2-1.56 1.45-3.36 2.16-5.1 2.5-1.74.35-3.5.26-5.36.3-.42-.06.45-.1 1.54-.13l-2.66.02c.02-.08 1.53-.05 2.34-.06-3.16-.13-6.52.13-10.22.01l-.77.06h-.22c.01.03-.82.08-1.37.1-.52-.07.04-.16-1.8-.16-1.45-.07-4.12.03-6.02.07 1.02.01.7.05.25.08-.92 0-1.45-.07-2.15-.04l-.07-.07c-.13.07-2.45.08-2.76.1-.52-.07 1.42-.06 1.65-.1l-5.52.01c-1.96.07.36.1-.58.17-1.73.02-3.42.08-5.4.03l.63.08c-3.26.07-5.2.06-7.4-.03-24.26.68-5.1.93-5.1.93 9.55.2 14.48-.06 25.85-.12l23.02.12c1.3-.01 2.62-.22 3.9-.58a10.23 10.23 0 0 0 3.6-1.9c2.18-1.72 3.43-4.43 3.55-7.02.03-1.23-.14-2.94-.76-4.57-.6-1.64-1.7-3.13-2.8-4.06a8.29 8.29 0 0 0-.8-.77c-.8-.6-1.85-1.12-2.76-1.52h.07c-.35-.1-.7-.25-1.07-.35l-1.06-.26c-.68-.1-1.27-.22-1.63-.22h.06c-.6-.03-1.18-.1-1.77-.04l.3-.04c-1.3.04-2.5.2-3.7.3l-3.5.34.2.07-2.73.3-1.05.15c-.14.02-.2.04-.3.05.02-.17.05-.35.07-.52a46.51 46.51 0 0 0 .16-1.36c.1-.93.16-1.95.2-3.17l.02.06c-.12-2.75-.4-4.9-.85-7.06-.5-2.14-1.2-4.3-2.7-6.72.4.6-.12-.28-.07-.24-.67-1.14-1.5-2.2-2.2-3-.7-.77-1.23-1.24-1.3-1.2-1.37-1.32-1.08-1.1-1.22-1.33-.05.07-1.3-1-2.54-1.82l.57.37-.87-.6-.9-.55c-.6-.4-1.23-.7-1.85-1.03l.67.5c-1.96-1.08-.4-.46-2.37-1.32v.12c-.7-.34-1.34-.58-1.94-.84s-1.16-.5-1.74-.7c-1.14-.44-2.3-.8-3.77-1.15-2.8-.55-5.75-.65-8.64-.2-2.9.47-5.7 1.53-8.18 3.07-2.5 1.52-4.66 3.5-6.5 5.63a35.14 35.14 0 0 0-2.53 3.36c-.38.58-.75 1.17-1.1 1.76l-.5.9-.24.46-.3-.14-.77-.33-1.54-.6-.46-.25c-.17-.2-3.13-.74-3.54-.9-.45-.07-.9-.17-1.34-.22-.37-.1-1.16-.24-.5-.16-1.23-.22-1.27-.18-2.17-.25-.44-.08-.9-.16-1.33-.2a24.8 24.8 0 0 0-7.08.41c-1.16.18-2.27.57-3.43.9-1.12.47-2.3.88-3.44 1.55l-1.07.55c-.37.2-.72.48-1.1.73l-1.16.8-1.1 1c-.2.17-.38.35-.57.53-.18.2-.34.4-.5.6-.34.4-.7.82-1.02 1.26l-.9 1.4c-.3.47-.5 1-.76 1.5-.94 2.04-1.48 4.27-1.68 6.4a13.91 13.91 0 0 0-.1 1.56 18.76 18.76 0 0 0 .01 1.5c.01.5.07.96.1 1.42.02.12.03.25.05.37l.05.26c-.1-.02-.18-.03-.26-.05l-.6-.1-.9-.1c-.6-.06-1.22-.1-1.84-.1-1.24-.02-2.5.06-3.77.32-1.26.24-2.52.73-3.63 1.48-.58.34-1.05.84-1.54 1.3-.4.54-.85 1.07-1.16 1.65-.66 1.14-1.2 2.38-1.45 3.72-.26 1.32-.2 2.8.44 4.1.6 1.24 1.7 2.24 2.9 2.8zM111.1 345.6h.03c.26 0 .48-.2.5-.47l.2-2.73a.51.51 0 0 0-.46-.54.51.51 0 0 0-.54.46l-.2 2.74c-.02.3.2.53.47.54zm377.42-181.07c-.28 0-.5.22-.5.5s.22.5.5.5h2.87c.28 0 .5-.22.5-.5s-.22-.5-.5-.5h-2.87zM87.1 426.55c.08 0 .16-.02.23-.06.24-.13.34-.43.2-.67l-1.4-2.66a.49.49 0 0 0-.67-.21c-.24.13-.34.43-.2.67l1.4 2.66a.5.5 0 0 0 .44.27zm42.35-6.4h0l-.03-.27zm38.58-189.56h0l-.03-.34z"/></g></svg>