<svg id="_4063300" data-name="4063300" xmlns="http://www.w3.org/2000/svg" xmlns:xlink="http://www.w3.org/1999/xlink" width="505.285" height="482.966" viewBox="0 0 505.285 482.966">
  <defs>
    <linearGradient id="linear-gradient" x1="0.5" y1="0.986" x2="0.5" y2="-0.004" gradientUnits="objectBoundingBox">
      <stop offset="0" stop-color="#fff"/>
      <stop offset="1" stop-color="#e9f3fa"/>
      <stop offset="1" stop-color="#e3eff9"/>
    </linearGradient>
  </defs>
  <ellipse id="Ellipse_15" data-name="Ellipse 15" cx="241.046" cy="241.483" rx="241.046" ry="241.483" transform="translate(11.296 0)" fill="url(#linear-gradient)"/>
  <g id="OBJECTS" transform="translate(0 63.434)">
    <ellipse id="Ellipse_20" data-name="Ellipse 20" cx="252.642" cy="6.399" rx="252.642" ry="6.399" transform="translate(0 293.387)" fill="#e3e5ff"/>
    <g id="Group_250" data-name="Group 250" transform="translate(45.585 69.068)">
      <circle id="Ellipse_21" data-name="Ellipse 21" cx="15.984" cy="15.984" r="15.984" transform="translate(0 31.878) rotate(-76.714)" fill="#a7b0d1"/>
      <circle id="Ellipse_22" data-name="Ellipse 22" cx="14.725" cy="14.725" r="14.725" transform="translate(1.515 30.941) rotate(-76.714)" fill="#e3e5ff"/>
      <text id="_" data-name="$" transform="translate(12.371 26)" fill="#a7b0d1" font-size="24" font-family="SegoeUI, Segoe UI"><tspan x="0" y="0">$</tspan></text>
    </g>
    <g id="Group_251" data-name="Group 251" transform="translate(69.934 44.35)">
      <circle id="Ellipse_23" data-name="Ellipse 23" cx="13.702" cy="13.702" r="13.702" transform="translate(0 3.001)" fill="#a7b0d1"/>
      <circle id="Ellipse_24" data-name="Ellipse 24" cx="12.621" cy="12.621" r="12.621" transform="translate(1.081 4.083)" fill="#e3e5ff"/>
      <text id="_2" data-name="£" transform="translate(7.819 22)" fill="#a7b0d1" font-size="20" font-family="SegoeUI, Segoe UI"><tspan x="0" y="0">£</tspan></text>
    </g>
    <g id="Group_252" data-name="Group 252" transform="translate(24.698 93.925)">
      <circle id="Ellipse_25" data-name="Ellipse 25" cx="9.34" cy="9.34" r="9.34" transform="matrix(0.671, -0.741, 0.741, 0.671, 0, 13.85)" fill="#a7b0d1"/>
      <circle id="Ellipse_26" data-name="Ellipse 26" cx="8.599" cy="8.599" r="8.599" transform="translate(4.588 4.599)" fill="#e3e5ff"/>
      <text id="_3" data-name="¥" transform="translate(9.175 14.674)" fill="#a7b0d1" font-size="12" font-family="SegoeUI, Segoe UI"><tspan x="0" y="0">¥</tspan></text>
    </g>
    <g id="Group_253" data-name="Group 253" transform="translate(18.945 23.222)">
      <circle id="Ellipse_27" data-name="Ellipse 27" cx="17.147" cy="17.147" r="17.147" transform="translate(0 26.519) rotate(-50.653)" fill="#a7b0d1"/>
      <circle id="Ellipse_28" data-name="Ellipse 28" cx="15.798" cy="15.798" r="15.798" transform="translate(8.334 8.331)" fill="#e3e5ff"/>
      <text id="_4" data-name="€" transform="translate(16.768 29.516)" fill="#a7b0d1" font-size="25" font-family="SegoeUI, Segoe UI"><tspan x="0" y="0">€</tspan></text>
    </g>
    <g id="Group_256" data-name="Group 256" transform="translate(17.302 125.958)">
      <path id="Path_850" data-name="Path 850" d="M167.412,225.41H62.511a5.252,5.252,0,0,0-5.251,5.251V394.12a5.252,5.252,0,0,0,5.251,5.251h104.9a5.252,5.252,0,0,0,5.251-5.251V230.661a5.248,5.248,0,0,0-5.251-5.251Z" transform="translate(-57.26 -225.41)" fill="#686f9b"/>
      <rect id="Rectangle_481" data-name="Rectangle 481" width="99.62" height="30.782" transform="translate(7.896 14.369)" fill="#e3e5ff"/>
      <g id="Group_254" data-name="Group 254" transform="translate(8.51 52.773)">
        <rect id="Rectangle_482" data-name="Rectangle 482" width="12.073" height="5.799" fill="#a7b0d1"/>
        <rect id="Rectangle_483" data-name="Rectangle 483" width="12.073" height="5.799" transform="translate(17.265)" fill="#a7b0d1"/>
        <rect id="Rectangle_484" data-name="Rectangle 484" width="12.073" height="5.799" transform="translate(34.523)" fill="#a7b0d1"/>
        <rect id="Rectangle_485" data-name="Rectangle 485" width="12.073" height="5.799" transform="translate(51.788)" fill="#a7b0d1"/>
        <rect id="Rectangle_486" data-name="Rectangle 486" width="12.073" height="5.799" transform="translate(69.053)" fill="#a7b0d1"/>
        <rect id="Rectangle_487" data-name="Rectangle 487" width="12.073" height="5.799" transform="translate(86.318)" fill="#a7b0d1"/>
      </g>
      <g id="Group_255" data-name="Group 255" transform="translate(8.392 66.26)">
        <path id="Path_851" data-name="Path 851" d="M85.922,334.253H70.642A2.052,2.052,0,0,1,68.59,332.2v-15.28a2.052,2.052,0,0,1,2.052-2.052h15.28a2.052,2.052,0,0,1,2.052,2.052V332.2A2.052,2.052,0,0,1,85.922,334.253Z" transform="translate(-68.59 -314.87)" fill="#a7b0d1"/>
        <path id="Path_852" data-name="Path 852" d="M121.582,334.253H106.3a2.052,2.052,0,0,1-2.052-2.052v-15.28a2.052,2.052,0,0,1,2.052-2.052h15.28a2.052,2.052,0,0,1,2.052,2.052V332.2A2.052,2.052,0,0,1,121.582,334.253Z" transform="translate(-77.838 -314.87)" fill="#a7b0d1"/>
        <path id="Path_853" data-name="Path 853" d="M157.242,334.253h-15.28a2.052,2.052,0,0,1-2.052-2.052v-15.28a2.052,2.052,0,0,1,2.052-2.052h15.28a2.052,2.052,0,0,1,2.052,2.052V332.2A2.052,2.052,0,0,1,157.242,334.253Z" transform="translate(-87.085 -314.87)" fill="#a7b0d1"/>
        <path id="Path_854" data-name="Path 854" d="M192.9,334.253h-15.28a2.052,2.052,0,0,1-2.052-2.052v-15.28a2.052,2.052,0,0,1,2.052-2.052H192.9a2.052,2.052,0,0,1,2.052,2.052V332.2A2.052,2.052,0,0,1,192.9,334.253Z" transform="translate(-96.333 -314.87)" fill="#a7b0d1"/>
        <path id="Path_855" data-name="Path 855" d="M85.922,369.173H70.642a2.052,2.052,0,0,1-2.052-2.052v-15.28a2.052,2.052,0,0,1,2.052-2.052h15.28a2.052,2.052,0,0,1,2.052,2.052v15.28A2.052,2.052,0,0,1,85.922,369.173Z" transform="translate(-68.59 -323.926)" fill="#a7b0d1"/>
        <path id="Path_856" data-name="Path 856" d="M121.582,369.173H106.3a2.052,2.052,0,0,1-2.052-2.052v-15.28a2.052,2.052,0,0,1,2.052-2.052h15.28a2.052,2.052,0,0,1,2.052,2.052v15.28A2.052,2.052,0,0,1,121.582,369.173Z" transform="translate(-77.838 -323.926)" fill="#a7b0d1"/>
        <path id="Path_857" data-name="Path 857" d="M157.242,369.173h-15.28a2.052,2.052,0,0,1-2.052-2.052v-15.28a2.052,2.052,0,0,1,2.052-2.052h15.28a2.052,2.052,0,0,1,2.052,2.052v15.28A2.052,2.052,0,0,1,157.242,369.173Z" transform="translate(-87.085 -323.926)" fill="#a7b0d1"/>
        <path id="Path_858" data-name="Path 858" d="M192.9,369.173h-15.28a2.052,2.052,0,0,1-2.052-2.052v-15.28a2.052,2.052,0,0,1,2.052-2.052H192.9a2.052,2.052,0,0,1,2.052,2.052v15.28A2.052,2.052,0,0,1,192.9,369.173Z" transform="translate(-96.333 -323.926)" fill="#a7b0d1"/>
        <path id="Path_859" data-name="Path 859" d="M85.922,404.1H70.642a2.052,2.052,0,0,1-2.052-2.052v-15.28a2.052,2.052,0,0,1,2.052-2.052h15.28a2.052,2.052,0,0,1,2.052,2.052v15.28a2.052,2.052,0,0,1-2.052,2.052Z" transform="translate(-68.59 -332.984)" fill="#a7b0d1"/>
        <path id="Path_860" data-name="Path 860" d="M121.582,404.1H106.3a2.052,2.052,0,0,1-2.052-2.052v-15.28a2.052,2.052,0,0,1,2.052-2.052h15.28a2.052,2.052,0,0,1,2.052,2.052v15.28a2.052,2.052,0,0,1-2.052,2.052Z" transform="translate(-77.838 -332.984)" fill="#a7b0d1"/>
        <path id="Path_861" data-name="Path 861" d="M157.242,404.1h-15.28a2.052,2.052,0,0,1-2.052-2.052v-15.28a2.052,2.052,0,0,1,2.052-2.052h15.28a2.052,2.052,0,0,1,2.052,2.052v15.28a2.052,2.052,0,0,1-2.052,2.052Z" transform="translate(-87.085 -332.984)" fill="#a7b0d1"/>
        <path id="Path_862" data-name="Path 862" d="M192.9,404.1h-15.28a2.052,2.052,0,0,1-2.052-2.052v-15.28a2.052,2.052,0,0,1,2.052-2.052H192.9a2.052,2.052,0,0,1,2.052,2.052v15.28A2.052,2.052,0,0,1,192.9,404.1Z" transform="translate(-96.333 -332.984)" fill="#a7b0d1"/>
        <path id="Path_863" data-name="Path 863" d="M85.922,439.023H70.642a2.052,2.052,0,0,1-2.052-2.052v-15.28a2.052,2.052,0,0,1,2.052-2.052h15.28a2.052,2.052,0,0,1,2.052,2.052v15.28A2.052,2.052,0,0,1,85.922,439.023Z" transform="translate(-68.59 -342.04)" fill="#a7b0d1"/>
        <path id="Path_864" data-name="Path 864" d="M121.582,439.023H106.3a2.052,2.052,0,0,1-2.052-2.052v-15.28a2.052,2.052,0,0,1,2.052-2.052h15.28a2.052,2.052,0,0,1,2.052,2.052v15.28A2.052,2.052,0,0,1,121.582,439.023Z" transform="translate(-77.838 -342.04)" fill="#a7b0d1"/>
        <path id="Path_865" data-name="Path 865" d="M157.242,439.023h-15.28a2.052,2.052,0,0,1-2.052-2.052v-15.28a2.052,2.052,0,0,1,2.052-2.052h15.28a2.052,2.052,0,0,1,2.052,2.052v15.28A2.052,2.052,0,0,1,157.242,439.023Z" transform="translate(-87.085 -342.04)" fill="#a7b0d1"/>
        <path id="Path_866" data-name="Path 866" d="M192.9,439.023h-15.28a2.052,2.052,0,0,1-2.052-2.052v-15.28a2.052,2.052,0,0,1,2.052-2.052H192.9a2.052,2.052,0,0,1,2.052,2.052v15.28A2.052,2.052,0,0,1,192.9,439.023Z" transform="translate(-96.333 -342.04)" fill="#a7b0d1"/>
      </g>
    </g>
    <g id="Group_274" data-name="Group 274" transform="translate(105.871 21.161)">
      <path id="Path_867" data-name="Path 867" d="M417.75,86.972V289.789a3.052,3.052,0,0,1-3.051,3.052H179.892a3.052,3.052,0,0,1-3.052-3.051V86.972a3.052,3.052,0,0,1,3.052-3.052H414.706a3.055,3.055,0,0,1,3.044,3.052Z" transform="translate(-176.84 -83.92)" fill="#d2f2ff"/>
      <g id="Group_273" data-name="Group 273" transform="translate(17.317 14.169)">
        <g id="Group_257" data-name="Group 257">
          <rect id="Rectangle_488" data-name="Rectangle 488" width="1.37" height="180.59" transform="translate(2.852)" fill="#a7b0d1"/>
          <path id="Path_868" data-name="Path 868" d="M204.009,196.82l-2.829,4.97h5.659Z" transform="translate(-200.469 -127.367)" fill="#686f9b"/>
          <rect id="Rectangle_489" data-name="Rectangle 489" width="7.073" height="10.066" transform="translate(0 80.385)" fill="#252a40"/>
        </g>
        <g id="Group_258" data-name="Group 258" transform="translate(14.228)">
          <rect id="Rectangle_490" data-name="Rectangle 490" width="1.37" height="180.59" transform="translate(2.852)" fill="#a7b0d1"/>
          <path id="Path_869" data-name="Path 869" d="M223.219,166.82l-2.829,4.97h5.659Z" transform="translate(-219.679 -119.588)" fill="#686f9b"/>
          <rect id="Rectangle_491" data-name="Rectangle 491" width="7.073" height="24.879" transform="translate(0 58.165)" fill="#252a40"/>
        </g>
        <g id="Group_259" data-name="Group 259" transform="translate(28.461)">
          <rect id="Rectangle_492" data-name="Rectangle 492" width="1.37" height="180.59" transform="translate(2.847)" fill="#a7b0d1"/>
          <path id="Path_870" data-name="Path 870" d="M242.429,238.437l2.829-4.977H239.6Z" transform="translate(-238.893 -136.869)" fill="#686f9b"/>
          <rect id="Rectangle_493" data-name="Rectangle 493" width="7.073" height="17.472" transform="translate(7.073 90.631) rotate(180)" fill="#ce364c"/>
        </g>
        <g id="Group_260" data-name="Group 260" transform="translate(42.692)">
          <rect id="Rectangle_494" data-name="Rectangle 494" width="1.37" height="180.59" transform="translate(2.844)" fill="#a7b0d1"/>
          <path id="Path_871" data-name="Path 871" d="M261.639,176.82l-2.829,4.97h5.659Z" transform="translate(-258.106 -122.181)" fill="#686f9b"/>
          <rect id="Rectangle_495" data-name="Rectangle 495" width="7.073" height="17.472" transform="translate(0 65.571)" fill="#252a40"/>
        </g>
        <g id="Group_261" data-name="Group 261" transform="translate(56.913)">
          <rect id="Rectangle_496" data-name="Rectangle 496" width="1.37" height="180.59" transform="translate(2.859)" fill="#a7b0d1"/>
          <path id="Path_872" data-name="Path 872" d="M280.849,239.59l2.829-4.97H278.02Z" transform="translate(-277.309 -137.17)" fill="#686f9b"/>
          <rect id="Rectangle_497" data-name="Rectangle 497" width="7.073" height="11.014" transform="translate(7.073 91.489) rotate(180)" fill="#ce364c"/>
        </g>
        <g id="Group_262" data-name="Group 262" transform="translate(71.149)">
          <rect id="Rectangle_498" data-name="Rectangle 498" width="1.37" height="180.59" transform="translate(2.852)" fill="#a7b0d1"/>
          <path id="Path_873" data-name="Path 873" d="M300.059,176.82l-2.829,4.97h5.659Z" transform="translate(-296.526 -122.181)" fill="#686f9b"/>
          <rect id="Rectangle_499" data-name="Rectangle 499" width="7.073" height="17.472" transform="translate(0 65.571)" fill="#252a40"/>
        </g>
        <g id="Group_263" data-name="Group 263" transform="translate(85.377)">
          <rect id="Rectangle_500" data-name="Rectangle 500" width="1.37" height="180.59" transform="translate(2.852)" fill="#a7b0d1"/>
          <path id="Path_874" data-name="Path 874" d="M319.269,156.82l-2.829,4.97H322.1Z" transform="translate(-315.736 -116.994)" fill="#686f9b"/>
          <rect id="Rectangle_501" data-name="Rectangle 501" width="7.073" height="11.288" transform="translate(0 50.758)" fill="#252a40"/>
        </g>
        <g id="Group_264" data-name="Group 264" transform="translate(99.602)">
          <rect id="Rectangle_502" data-name="Rectangle 502" width="1.37" height="180.59" transform="translate(2.855)" fill="#a7b0d1"/>
          <path id="Path_875" data-name="Path 875" d="M338.479,205.39l2.829-4.97H335.65Z" transform="translate(-334.943 -128.301)" fill="#686f9b"/>
          <rect id="Rectangle_503" data-name="Rectangle 503" width="7.073" height="7.073" transform="translate(7.073 66.154) rotate(180)" fill="#ce364c"/>
        </g>
        <g id="Group_265" data-name="Group 265" transform="translate(113.834)">
          <rect id="Rectangle_504" data-name="Rectangle 504" width="1.37" height="180.59" transform="translate(2.852)" fill="#a7b0d1"/>
          <path id="Path_876" data-name="Path 876" d="M357.689,160.82l-2.829,4.97h5.659Z" transform="translate(-354.156 -118.032)" fill="#686f9b"/>
          <rect id="Rectangle_505" data-name="Rectangle 505" width="7.073" height="23.553" transform="translate(0 53.721)" fill="#252a40"/>
        </g>
        <g id="Group_266" data-name="Group 266" transform="translate(128.061)">
          <rect id="Rectangle_506" data-name="Rectangle 506" width="1.37" height="180.59" transform="translate(2.852)" fill="#a7b0d1"/>
          <path id="Path_877" data-name="Path 877" d="M376.9,215.64l2.829-4.97H374.08Z" transform="translate(-373.368 -130.959)" fill="#686f9b"/>
          <rect id="Rectangle_507" data-name="Rectangle 507" width="7.073" height="5.037" transform="translate(7.073 73.746) rotate(180)" fill="#ce364c"/>
        </g>
        <g id="Group_267" data-name="Group 267" transform="translate(142.29)">
          <rect id="Rectangle_508" data-name="Rectangle 508" width="1.37" height="180.59" transform="translate(2.852)" fill="#a7b0d1"/>
          <path id="Path_878" data-name="Path 878" d="M396.119,168.82l-2.829,4.97h5.651Z" transform="translate(-392.579 -120.106)" fill="#686f9b"/>
          <rect id="Rectangle_509" data-name="Rectangle 509" width="7.073" height="7.073" transform="translate(0 59.646)" fill="#252a40"/>
        </g>
        <g id="Group_268" data-name="Group 268" transform="translate(156.52)">
          <rect id="Rectangle_510" data-name="Rectangle 510" width="1.37" height="180.59" transform="translate(2.849)" fill="#a7b0d1"/>
          <path id="Path_879" data-name="Path 879" d="M415.329,216.64l2.829-4.97H412.5Z" transform="translate(-411.791 -131.218)" fill="#686f9b"/>
          <rect id="Rectangle_511" data-name="Rectangle 511" width="7.073" height="12.443" transform="translate(7.073 74.487) rotate(180)" fill="#ce364c"/>
        </g>
        <g id="Group_269" data-name="Group 269" transform="translate(170.747)">
          <rect id="Rectangle_512" data-name="Rectangle 512" width="1.37" height="180.59" transform="translate(2.852)" fill="#a7b0d1"/>
          <path id="Path_880" data-name="Path 880" d="M434.539,156.82l-2.829,4.97h5.659Z" transform="translate(-430.999 -116.994)" fill="#686f9b"/>
          <rect id="Rectangle_513" data-name="Rectangle 513" width="7.073" height="16.258" transform="translate(0 50.758)" fill="#252a40"/>
        </g>
        <g id="Group_270" data-name="Group 270" transform="translate(184.975)">
          <rect id="Rectangle_514" data-name="Rectangle 514" width="1.37" height="180.59" transform="translate(2.852)" fill="#a7b0d1"/>
          <path id="Path_881" data-name="Path 881" d="M453.749,146.82l-2.829,4.97h5.659Z" transform="translate(-450.209 -114.401)" fill="#686f9b"/>
          <rect id="Rectangle_515" data-name="Rectangle 515" width="7.073" height="28.442" transform="translate(0 43.351)" fill="#252a40"/>
        </g>
        <g id="Group_271" data-name="Group 271" transform="translate(199.21)">
          <rect id="Rectangle_516" data-name="Rectangle 516" width="1.37" height="180.59" transform="translate(2.852)" fill="#a7b0d1"/>
          <path id="Path_882" data-name="Path 882" d="M472.959,126.82l-2.829,4.97h5.659Z" transform="translate(-469.426 -109.214)" fill="#686f9b"/>
          <rect id="Rectangle_517" data-name="Rectangle 517" width="7.073" height="13.769" transform="translate(0 28.538)" fill="#252a40"/>
        </g>
        <g id="Group_272" data-name="Group 272" transform="translate(1.785 72.245)">
          <path id="Path_883" data-name="Path 883" d="M206.141,271.7a1.755,1.755,0,1,1-1.755-1.755,1.755,1.755,0,0,1,1.755,1.755Z" transform="translate(-202.63 -218.575)" fill="#686f9b"/>
          <path id="Path_884" data-name="Path 884" d="M225.351,261.7a1.755,1.755,0,1,1-1.755-1.755A1.755,1.755,0,0,1,225.351,261.7Z" transform="translate(-207.612 -215.981)" fill="#686f9b"/>
          <path id="Path_885" data-name="Path 885" d="M244.561,281.7a1.755,1.755,0,1,1-1.755-1.755,1.755,1.755,0,0,1,1.755,1.755Z" transform="translate(-212.593 -221.168)" fill="#686f9b"/>
          <path id="Path_886" data-name="Path 886" d="M263.771,271.7a1.755,1.755,0,1,1-1.755-1.755A1.755,1.755,0,0,1,263.771,271.7Z" transform="translate(-217.575 -218.575)" fill="#686f9b"/>
          <path id="Path_887" data-name="Path 887" d="M282.981,285.7a1.755,1.755,0,1,1-1.755-1.755A1.755,1.755,0,0,1,282.981,285.7Z" transform="translate(-222.557 -222.205)" fill="#686f9b"/>
          <path id="Path_888" data-name="Path 888" d="M302.191,261.7a1.755,1.755,0,1,1-1.755-1.755,1.755,1.755,0,0,1,1.755,1.755Z" transform="translate(-227.539 -215.981)" fill="#686f9b"/>
          <path id="Path_889" data-name="Path 889" d="M321.4,234.7a1.755,1.755,0,1,1-1.755-1.755A1.755,1.755,0,0,1,321.4,234.7Z" transform="translate(-232.52 -208.979)" fill="#686f9b"/>
          <path id="Path_890" data-name="Path 890" d="M340.611,251.7a1.755,1.755,0,1,1-1.755-1.755A1.755,1.755,0,0,1,340.611,251.7Z" transform="translate(-237.502 -213.388)" fill="#686f9b"/>
          <path id="Path_891" data-name="Path 891" d="M359.831,245.7a1.755,1.755,0,1,1-1.755-1.755A1.755,1.755,0,0,1,359.831,245.7Z" transform="translate(-242.487 -211.832)" fill="#686f9b"/>
          <path id="Path_892" data-name="Path 892" d="M379.041,261.7a1.755,1.755,0,1,1-1.755-1.755A1.755,1.755,0,0,1,379.041,261.7Z" transform="translate(-247.468 -215.981)" fill="#686f9b"/>
          <path id="Path_893" data-name="Path 893" d="M398.251,251.7a1.755,1.755,0,1,1-1.755-1.755A1.755,1.755,0,0,1,398.251,251.7Z" transform="translate(-252.45 -213.388)" fill="#686f9b"/>
          <path id="Path_894" data-name="Path 894" d="M417.461,265.7a1.755,1.755,0,1,1-1.755-1.755A1.755,1.755,0,0,1,417.461,265.7Z" transform="translate(-257.432 -217.019)" fill="#686f9b"/>
          <path id="Path_895" data-name="Path 895" d="M436.671,241.7a1.755,1.755,0,1,1-1.755-1.755A1.755,1.755,0,0,1,436.671,241.7Z" transform="translate(-262.413 -210.795)" fill="#686f9b"/>
          <path id="Path_896" data-name="Path 896" d="M455.881,235.7a1.755,1.755,0,1,1-1.755-1.755A1.755,1.755,0,0,1,455.881,235.7Z" transform="translate(-267.395 -209.239)" fill="#686f9b"/>
          <circle id="Ellipse_29" data-name="Ellipse 29" cx="1.755" cy="1.755" r="1.755" transform="translate(199.203)" fill="#686f9b"/>
          <path id="Path_897" data-name="Path 897" d="M205,254.325l14.228-7.407,14.228,14.813,14.228-7.407,14.228,10.369,14.228-17.776,14.228-20L304.6,239.512l14.228-4.444,14.228,11.851,14.236-7.407,14.228,10.369,14.228-17.776,14.228-4.444,14.228-24.7" transform="translate(-203.245 -201.205)" fill="none" stroke="#686f9b" stroke-miterlimit="10" stroke-width="1"/>
        </g>
      </g>
    </g>
    <g id="Group_282" data-name="Group 282" transform="translate(438.728 220.263)">
      <path id="Path_898" data-name="Path 898" d="M653.872,369.246s-1.985-4.481-4.74-.6,2.8,7.5,2.8,7.5,4.992-4.4,4.17-6.3A1.3,1.3,0,0,0,653.872,369.246Z" transform="translate(-631.978 -356.45)" fill="#ce364c"/>
      <path id="Path_899" data-name="Path 899" d="M679.214,420.306s4.77-1.126,1.466-4.548-7.881,1.37-7.881,1.37,3.407,5.718,5.422,5.259A1.3,1.3,0,0,0,679.214,420.306Z" transform="translate(-638.314 -368.759)" fill="#ce364c"/>
      <path id="Path_900" data-name="Path 900" d="M670.377,382.242a2.127,2.127,0,0,1,.1-1.459,5.79,5.79,0,0,0,.17-1.074.975.975,0,0,0-.148-.681.889.889,0,0,0-.956-.148,2.36,2.36,0,0,1-.992.222.863.863,0,0,1-.681-.526c-.067-.163-.081-.341-.156-.5a.967.967,0,0,0-1.378-.23,2.814,2.814,0,0,0-.881,1.289,7.586,7.586,0,0,0-.881,3.37,22.892,22.892,0,0,0,.459,2.318l.215-.259,1.815.378a2.451,2.451,0,0,0,.7.074,3.285,3.285,0,0,0,1.163-.526,7.314,7.314,0,0,0,1.23-.674,1.111,1.111,0,0,0,.422-1.237C670.5,382.442,670.436,382.346,670.377,382.242Z" transform="translate(-636.18 -359.195)" fill="#ce364c"/>
      <path id="Path_901" data-name="Path 901" d="M647.975,384.39a1.513,1.513,0,0,1,.245-.726c.207-.23.548-.267.822-.4a1.515,1.515,0,0,0,.733-1.237,4.429,4.429,0,0,0-.207-1.481.445.445,0,0,0-.141-.267.405.405,0,0,0-.3-.044,2.493,2.493,0,0,0-1.555.852.781.781,0,0,1-.274.244c-.245.081-.481-.17-.57-.415-.111-.319-.1-.667-.215-.993s-.393-.63-.726-.585c-.37.052-.556.481-.578.859a2.389,2.389,0,0,1-.163,1.1.45.45,0,0,1-.163.17c-.252.126-.5-.141-.755-.274a1.041,1.041,0,0,0-1.281.341,1.71,1.71,0,0,0-.23,1.385,4.905,4.905,0,0,0,.578,1.326c.437.793.874,1.585,1.319,2.378l-.156.244A3.228,3.228,0,0,0,647.975,384.39Z" transform="translate(-630.473 -359.632)" fill="#ce364c"/>
      <path id="Path_902" data-name="Path 902" d="M634.933,397.148c-.444-.3-.407-1.074-.9-1.3a.927.927,0,0,0-.689.03,1.476,1.476,0,0,0-1.074,1.318c.037.652.7,1.244.459,1.852a2.013,2.013,0,0,1-.482.585,1.7,1.7,0,0,0-.467,1.555,1.147,1.147,0,0,0,1.274.852,1.419,1.419,0,0,1,.422-.081c.556.067.444,1.1.985,1.252a.831.831,0,0,0,.659-.215c.741-.518,1.474-1.037,2.207-1.563l-.133.081a1.309,1.309,0,0,0,.318-1,17.485,17.485,0,0,0-.067-1.97c-.044-.511-.178-1.111-.652-1.311C636.221,396.977,635.458,397.511,634.933,397.148Z" transform="translate(-627.667 -363.902)" fill="#ce364c"/>
      <path id="Path_903" data-name="Path 903" d="M658.043,405.18c-.341-.415-.1-1.148-.518-1.489a.913.913,0,0,0-.667-.156,1.473,1.473,0,0,0-1.393.978c-.141.637.333,1.385-.059,1.9a2.091,2.091,0,0,1-.622.437,1.7,1.7,0,0,0-.874,1.37,1.151,1.151,0,0,0,1,1.163,1.367,1.367,0,0,1,.43.037c.519.215.133,1.185.615,1.474a.823.823,0,0,0,.7-.03c.852-.3,1.7-.6,2.548-.9l-.156.044a1.326,1.326,0,0,0,.578-.874,17.125,17.125,0,0,0,.467-1.911,1.461,1.461,0,0,0-.274-1.437C659.324,405.366,658.45,405.669,658.043,405.18Z" transform="translate(-633.416 -365.906)" fill="#ce364c"/>
      <path id="Path_904" data-name="Path 904" d="M681.643,383.76c.252-.452.911-.518,1.215-.941a.95.95,0,0,0-.044-1.074,1.418,1.418,0,0,0-.97-.541c-.4-.059-.874-.007-1.141-.311a1.383,1.383,0,0,1-.23-.57,5.483,5.483,0,0,0-.585-1.43.614.614,0,0,0-.267-.281.667.667,0,0,0-.489.059,4.053,4.053,0,0,0-2.029,1.355,3.8,3.8,0,0,0-.444,1.267c-.119.5-.23,1.007-.348,1.511a2.492,2.492,0,0,0-.089,1.015l-.511-.333a1,1,0,0,0,.867,1c.141.015.281-.007.422.007a2.177,2.177,0,0,1,.97.415c.437.281.874.563,1.318.844a3.206,3.206,0,0,0,1.222.556,1.064,1.064,0,0,0,1.133-.541C681.917,385.138,681.31,384.352,681.643,383.76Z" transform="translate(-639.069 -359.439)" fill="#ce364c"/>
      <path id="Path_905" data-name="Path 905" d="M681.342,406.387a1.334,1.334,0,0,0-.481-.237,4.362,4.362,0,0,1-.859-.3.884.884,0,0,1-.5-.7c-.015-.378.3-.778.089-1.089a.494.494,0,0,0-.3-.193,1.3,1.3,0,0,0-.941.319c-.437.3-.874.593-1.311.881a1.185,1.185,0,0,0-.452.444,1.544,1.544,0,0,0-.052.689,2.854,2.854,0,0,1-.748,2.015l.1.363a1.1,1.1,0,0,1,.652.281,3.35,3.35,0,0,0,3.37.193.775.775,0,0,0,.333-.281c.141-.274-.015-.689.237-.859a.911.911,0,0,1,.4-.067.867.867,0,0,0,.726-.578A.846.846,0,0,0,681.342,406.387Z" transform="translate(-639.087 -365.994)" fill="#ce364c"/>
      <path id="Path_906" data-name="Path 906" d="M670.872,399.057a1.334,1.334,0,0,0-.481-.237,4.363,4.363,0,0,1-.859-.3.884.884,0,0,1-.5-.7c-.015-.378.3-.778.089-1.089a.494.494,0,0,0-.3-.193,1.3,1.3,0,0,0-.941.319c-.437.3-.874.592-1.311.881a1.185,1.185,0,0,0-.452.444,1.542,1.542,0,0,0-.052.689,2.854,2.854,0,0,1-.748,2.015l.1.363a1.1,1.1,0,0,1,.652.281,3.35,3.35,0,0,0,3.37.193.776.776,0,0,0,.333-.281c.141-.274-.015-.689.237-.859a.912.912,0,0,1,.4-.067.867.867,0,0,0,.726-.578A.847.847,0,0,0,670.872,399.057Z" transform="translate(-636.372 -364.093)" fill="#ce364c"/>
      <path id="Path_907" data-name="Path 907" d="M639.377,393.968a1.313,1.313,0,0,0,.23.481,4.59,4.59,0,0,1,.489.763.9.9,0,0,1-.037.867c-.222.3-.718.422-.748.8a.5.5,0,0,0,.118.333,1.313,1.313,0,0,0,.933.333c.526.037,1.052.081,1.578.118a1.2,1.2,0,0,0,.63-.067,1.415,1.415,0,0,0,.467-.511,2.851,2.851,0,0,1,1.837-1.118l.141-.348a1.049,1.049,0,0,1-.333-.622,3.356,3.356,0,0,0-2.526-2.237.676.676,0,0,0-.437.022c-.281.126-.415.555-.718.526a.778.778,0,0,1-.356-.2.855.855,0,0,0-.926.007.843.843,0,0,0-.341.852Z" transform="translate(-629.629 -363.107)" fill="#ce364c"/>
      <g id="Group_275" data-name="Group 275" transform="translate(3.622 28.039)">
        <path id="Path_908" data-name="Path 908" d="M653.135,424.4a33.7,33.7,0,0,0-6.125-13.021,26.714,26.714,0,0,0-3.792-3.563,25.268,25.268,0,0,1-4.555-4.481,23.069,23.069,0,0,1-2.437-4.607c-.333-.755-.674-1.541-1.059-2.3a16.115,16.115,0,0,0-3.029-3.681c-.348-.356-.7-.7-1.007-1.037l1.193-1.118c.3.326.637.667.978,1.007a17.864,17.864,0,0,1,3.318,4.1c.407.807.755,1.615,1.1,2.392a21.652,21.652,0,0,0,2.266,4.3,23.358,23.358,0,0,0,4.274,4.185,28.736,28.736,0,0,1,4.015,3.785,35.213,35.213,0,0,1,6.451,13.665Z" transform="translate(-631.13 -390.59)" fill="#686f9b"/>
      </g>
      <g id="Group_276" data-name="Group 276" transform="translate(22.131 6.093)">
        <path id="Path_909" data-name="Path 909" d="M657.075,414.1c-2.185-5.325-.237-11.28,1.963-16.406l.363-.837c2.022-4.688,4.111-9.54,3.259-14.369-.089-.5-.207-.985-.326-1.474a10,10,0,0,1,.852-8.147l5.162-11.9,1.5.652-5.162,11.9a8.45,8.45,0,0,0-.763,7.11c.126.526.252,1.044.341,1.57.941,5.3-1.252,10.384-3.363,15.295l-.356.837c-2.059,4.814-3.911,10.377-1.955,15.139Z" transform="translate(-656.119 -360.96)" fill="#686f9b"/>
      </g>
      <g id="Group_277" data-name="Group 277" transform="translate(26.131 28.639)">
        <path id="Path_910" data-name="Path 910" d="M663.038,420.953l-1.518-.607a33.12,33.12,0,0,1,3.237-6.148,4.785,4.785,0,0,1,1.2-1.348,5.089,5.089,0,0,1,1.3-.622c.148-.052.3-.1.437-.163a4.666,4.666,0,0,0,2.511-2.489,10.475,10.475,0,0,0,.585-2.7,10.3,10.3,0,0,1,.881-3.511,10.5,10.5,0,0,1,2.466-2.866l10.088-9.1,1.1,1.215-10.088,9.1a8.975,8.975,0,0,0-2.111,2.4,8.876,8.876,0,0,0-.711,2.97,11.745,11.745,0,0,1-.7,3.126,6.31,6.31,0,0,1-3.392,3.363c-.17.067-.341.133-.511.193a3.844,3.844,0,0,0-.911.415,3.647,3.647,0,0,0-.785.926,31.23,31.23,0,0,0-3.081,5.844Z" transform="translate(-661.52 -391.4)" fill="#686f9b"/>
      </g>
      <g id="Group_278" data-name="Group 278" transform="translate(13.125 18.862)">
        <path id="Path_911" data-name="Path 911" d="M651.3,419c-.837-4.17-1.7-8.481-1.333-12.865.03-.311.059-.63.089-.948.185-1.829.37-3.718-.526-5.1A8.134,8.134,0,0,0,648.6,399c-.126-.126-.244-.252-.363-.385A13.851,13.851,0,0,1,644.6,388.7a25.436,25.436,0,0,1,.3-2.652,25.045,25.045,0,0,0,.281-2.5,5.809,5.809,0,0,0-1.222-4.222l1.178-1.126a7.35,7.35,0,0,1,1.674,5.422,25.6,25.6,0,0,1-.3,2.659,24.862,24.862,0,0,0-.282,2.489,12.166,12.166,0,0,0,3.2,8.74c.111.118.23.237.341.363a9.358,9.358,0,0,1,1.118,1.326c1.207,1.859.978,4.14.778,6.148-.03.311-.059.615-.089.926-.348,4.155.5,8.347,1.311,12.406Z" transform="translate(-643.96 -378.2)" fill="#686f9b"/>
      </g>
      <g id="Group_279" data-name="Group 279" transform="translate(26.642 11.863)">
        <path id="Path_912" data-name="Path 912" d="M666.58,416.5c-4.977-8.784-5.755-18.4-2.066-25.709a40.3,40.3,0,0,1,6.614-8.733c.615-.674,1.229-1.348,1.829-2.029,2.555-2.9,5.555-6.807,6.073-11.28l1.622.193c-.57,4.925-3.763,9.1-6.473,12.169-.607.689-1.23,1.37-1.844,2.052a39.233,39.233,0,0,0-6.362,8.37c-3.437,6.822-2.681,15.858,2.029,24.168Z" transform="translate(-662.21 -368.75)" fill="#686f9b"/>
      </g>
      <g id="Group_280" data-name="Group 280" transform="translate(15.443 6.293)">
        <path id="Path_913" data-name="Path 913" d="M653.43,416.025c-1.318-6.947-2.807-14.828-1.422-22.368.141-.77.318-1.541.489-2.311a33.128,33.128,0,0,0,.733-4.022c.459-4.807-1.215-9.347-2.985-14.154-1.4-3.8-2.852-7.725-3.155-11.821l1.629-.119c.289,3.866,1.7,7.681,3.059,11.377,1.755,4.77,3.577,9.7,3.081,14.873a33.944,33.944,0,0,1-.763,4.222c-.17.748-.333,1.5-.474,2.252-1.333,7.244.126,14.962,1.415,21.768Z" transform="translate(-647.09 -361.23)" fill="#686f9b"/>
      </g>
      <path id="Path_914" data-name="Path 914" d="M649.382,354.916s-1.985-4.481-4.74-.6,2.8,7.5,2.8,7.5,4.992-4.4,4.17-6.3A1.3,1.3,0,0,0,649.382,354.916Z" transform="translate(-630.813 -352.734)" fill="#f24052"/>
      <path id="Path_915" data-name="Path 915" d="M676.137,360.022a2.122,2.122,0,0,1-.237-1.444,5.4,5.4,0,0,0-.082-1.089.963.963,0,0,0-.3-.63.911.911,0,0,0-.97.074,2.517,2.517,0,0,1-.918.444.87.87,0,0,1-.785-.355c-.1-.141-.156-.319-.267-.452a.963.963,0,0,0-1.392.089,2.786,2.786,0,0,0-.57,1.459,7.589,7.589,0,0,0-.1,3.481,21.487,21.487,0,0,0,.978,2.148l.148-.3,1.852-.044a2.344,2.344,0,0,0,.689-.089,3.264,3.264,0,0,0,1.007-.77,7.4,7.4,0,0,0,1.044-.933,1.1,1.1,0,0,0,.126-1.3A1.605,1.605,0,0,0,676.137,360.022Z" transform="translate(-637.681 -353.663)" fill="#f24052"/>
      <path id="Path_916" data-name="Path 916" d="M654.859,389.706c-.319-.059-.526-.363-.726-.607a3.977,3.977,0,0,0-.5-.5.647.647,0,0,0-.415-.185c-.222.015-.37.237-.444.444a1.6,1.6,0,0,1-.267.607.561.561,0,0,1-.541.156c-.111-.03-.207-.089-.318-.111-.341-.067-.637.289-.652.63a1.837,1.837,0,0,0,.333.955,4.876,4.876,0,0,0,1.43,1.755,13.228,13.228,0,0,0,1.392.644l-.059-.215c.3-.267.593-.541.9-.807a1.609,1.609,0,0,0,.3-.333,2.1,2.1,0,0,0,.17-.807,5.4,5.4,0,0,0,.118-.9.727.727,0,0,0-.489-.7C655.015,389.721,654.94,389.721,654.859,389.706Z" transform="translate(-632.661 -361.986)" fill="#f24052"/>
      <path id="Path_917" data-name="Path 917" d="M666.389,415.658c-.289-.141-.407-.489-.533-.785a3.367,3.367,0,0,0-.348-.615.63.63,0,0,0-.348-.289.588.588,0,0,0-.548.311,1.5,1.5,0,0,1-.422.511.566.566,0,0,1-.563.007c-.1-.059-.178-.141-.281-.193a.627.627,0,0,0-.8.43,1.835,1.835,0,0,0,.067,1.015,4.923,4.923,0,0,0,.9,2.074,15.016,15.016,0,0,0,1.163,1V418.9c.363-.178.718-.356,1.081-.533a1.414,1.414,0,0,0,.385-.244,2.1,2.1,0,0,0,.385-.733,4.579,4.579,0,0,0,.356-.837.723.723,0,0,0-.281-.8,1.351,1.351,0,0,0-.208-.1Z" transform="translate(-635.644 -368.614)" fill="#f24052"/>
      <path id="Path_918" data-name="Path 918" d="M673.459,385.438c-.289-.141-.407-.489-.533-.785a3.367,3.367,0,0,0-.348-.615.63.63,0,0,0-.348-.289.588.588,0,0,0-.548.311,1.505,1.505,0,0,1-.422.511.566.566,0,0,1-.563.007c-.1-.059-.178-.141-.281-.193a.626.626,0,0,0-.8.43,1.834,1.834,0,0,0,.067,1.015,4.925,4.925,0,0,0,.9,2.074,15.035,15.035,0,0,0,1.163,1v-.222c.363-.178.719-.356,1.081-.533a1.414,1.414,0,0,0,.385-.244,2.106,2.106,0,0,0,.385-.733,4.58,4.58,0,0,0,.355-.837.723.723,0,0,0-.281-.8,1.31,1.31,0,0,0-.207-.1Z" transform="translate(-637.477 -360.777)" fill="#f24052"/>
      <path id="Path_919" data-name="Path 919" d="M666.259,375.579c-.289-.141-.407-.489-.533-.785a3.366,3.366,0,0,0-.348-.615.63.63,0,0,0-.348-.289.588.588,0,0,0-.548.311,1.5,1.5,0,0,1-.422.511.566.566,0,0,1-.563.007c-.1-.059-.178-.141-.282-.193a.626.626,0,0,0-.8.43,1.832,1.832,0,0,0,.067,1.015,4.925,4.925,0,0,0,.9,2.074,15.026,15.026,0,0,0,1.163,1l.007-.222c.363-.178.718-.356,1.081-.533a1.415,1.415,0,0,0,.385-.244,2.106,2.106,0,0,0,.385-.733,4.587,4.587,0,0,0,.356-.837.723.723,0,0,0-.281-.8A1.375,1.375,0,0,0,666.259,375.579Z" transform="translate(-635.61 -358.22)" fill="#f24052"/>
      <path id="Path_920" data-name="Path 920" d="M642.7,374.808a1.413,1.413,0,0,1-.607-.467c-.156-.267-.074-.6-.119-.911a1.5,1.5,0,0,0-.933-1.089,4.474,4.474,0,0,0-1.466-.274.444.444,0,0,0-.3.044.4.4,0,0,0-.133.267,2.454,2.454,0,0,0,.311,1.748.659.659,0,0,1,.141.341c0,.259-.318.4-.578.4-.341,0-.667-.118-1.007-.118a.756.756,0,0,0-.785.5c-.074.37.281.681.63.822a2.352,2.352,0,0,1,.993.511.4.4,0,0,1,.1.207c.037.281-.3.437-.5.622a1.048,1.048,0,0,0-.089,1.326,1.7,1.7,0,0,0,1.237.659,5.216,5.216,0,0,0,1.437-.119l2.674-.489.178.23A3.212,3.212,0,0,0,642.7,374.808Z" transform="translate(-629.087 -357.745)" fill="#f24052"/>
      <path id="Path_921" data-name="Path 921" d="M682.9,382.414a1.351,1.351,0,0,1,.674-.111c.267.067.437.326.659.481a1.352,1.352,0,0,0,1.281.067,4.093,4.093,0,0,0,1.081-.778.353.353,0,0,0,.148-.222.363.363,0,0,0-.089-.252,2.205,2.205,0,0,0-1.326-.874.61.61,0,0,1-.3-.118c-.17-.163-.067-.452.1-.622.207-.222.481-.363.689-.578a.667.667,0,0,0,.156-.815c-.193-.274-.615-.237-.918-.1a2.109,2.109,0,0,1-.933.326.451.451,0,0,1-.2-.059c-.207-.148-.1-.459-.1-.711a.93.93,0,0,0-.807-.867,1.513,1.513,0,0,0-1.185.4,4.643,4.643,0,0,0-.807,1.007c-.444.674-.881,1.355-1.326,2.029l-.259-.022A2.9,2.9,0,0,0,682.9,382.414Z" transform="translate(-640.034 -359.071)" fill="#f24052"/>
      <path id="Path_922" data-name="Path 922" d="M651.294,420.242a1.366,1.366,0,0,1-.578-.437c-.148-.252-.067-.57-.111-.859a1.421,1.421,0,0,0-.881-1.03,4.03,4.03,0,0,0-1.385-.259.41.41,0,0,0-.281.044.36.36,0,0,0-.126.252,2.306,2.306,0,0,0,.3,1.652.7.7,0,0,1,.133.318c0,.244-.3.378-.548.385-.318,0-.63-.111-.948-.111a.731.731,0,0,0-.748.474c-.067.348.267.644.593.778a2.275,2.275,0,0,1,.941.481.433.433,0,0,1,.1.2c.037.267-.281.407-.474.593a.983.983,0,0,0-.081,1.252,1.594,1.594,0,0,0,1.17.622,4.713,4.713,0,0,0,1.363-.111c.844-.156,1.689-.3,2.526-.459l.17.215A3.083,3.083,0,0,0,651.294,420.242Z" transform="translate(-631.392 -369.569)" fill="#f24052"/>
      <path id="Path_923" data-name="Path 923" d="M630.269,386.061c-.355-.407-.141-1.141-.563-1.474a.888.888,0,0,0-.674-.133,1.451,1.451,0,0,0-1.356,1.022c-.126.637.378,1.378,0,1.9a1.943,1.943,0,0,1-.607.452,1.707,1.707,0,0,0-.83,1.4,1.149,1.149,0,0,0,1.037,1.133,1.185,1.185,0,0,1,.43.022c.526.193.17,1.178.659,1.452a.827.827,0,0,0,.7-.052c.844-.326,1.681-.652,2.518-.985l-.148.044a1.287,1.287,0,0,0,.548-.9,19.375,19.375,0,0,0,.407-1.926,1.486,1.486,0,0,0-.318-1.429C631.551,386.209,630.691,386.542,630.269,386.061Z" transform="translate(-626.24 -360.955)" fill="#f24052"/>
      <path id="Path_924" data-name="Path 924" d="M662.584,397.886c-.23-.481.178-1.141-.141-1.57a.9.9,0,0,0-.615-.311,1.475,1.475,0,0,0-1.585.615c-.289.585-.015,1.429-.518,1.837a1.977,1.977,0,0,1-.711.274,1.7,1.7,0,0,0-1.178,1.118,1.15,1.15,0,0,0,.689,1.37,1.209,1.209,0,0,1,.407.141c.452.333-.156,1.178.237,1.578a.836.836,0,0,0,.681.141c.9-.081,1.8-.17,2.7-.267l-.156.007a1.3,1.3,0,0,0,.77-.711,17.006,17.006,0,0,0,.911-1.748,1.46,1.46,0,0,0,.081-1.459C663.784,398.375,662.865,398.464,662.584,397.886Z" transform="translate(-634.423 -363.944)" fill="#f24052"/>
      <path id="Path_925" data-name="Path 925" d="M687.188,366.1c-.222-.467.1-1.044-.081-1.533a.958.958,0,0,0-.9-.578,1.44,1.44,0,0,0-1,.489c-.274.3-.5.711-.911.755a1.416,1.416,0,0,1-.6-.133,5.265,5.265,0,0,0-1.5-.333.588.588,0,0,0-.378.059.667.667,0,0,0-.229.437,3,3,0,0,0,.741,3.526c.348.385.7.763,1.037,1.148a2.45,2.45,0,0,0,.785.652l-.563.23a1,1,0,0,0,1.318-.141c.089-.111.156-.237.252-.348a2.254,2.254,0,0,1,.9-.563l1.444-.6a3.072,3.072,0,0,0,1.148-.689,1.071,1.071,0,0,0,.207-1.237C688.477,366.664,687.485,366.716,687.188,366.1Z" transform="translate(-640.519 -355.653)" fill="#f24052"/>
      <path id="Path_926" data-name="Path 926" d="M643.428,402.48c-.289-.4-.185-1.037-.437-1.459a.73.73,0,0,0-.837-.341,1.17,1.17,0,0,0-.652.719c-.141.356-.215.807-.518.948a.869.869,0,0,1-.5.015,3.512,3.512,0,0,0-1.244.044.423.423,0,0,0-.281.148.721.721,0,0,0-.067.474,5.044,5.044,0,0,0,.563,2.37,3.879,3.879,0,0,0,.874.867c.363.289.726.57,1.081.859a1.837,1.837,0,0,0,.77.437l-.378.355a.718.718,0,0,0,.985-.459c.044-.126.067-.267.1-.393a1.848,1.848,0,0,1,.556-.755c.326-.311.644-.622.97-.933a2.592,2.592,0,0,0,.719-.941,1.277,1.277,0,0,0-.148-1.252C644.561,402.709,643.806,403.006,643.428,402.48Z" transform="translate(-629.518 -365.16)" fill="#f24052"/>
      <path id="Path_927" data-name="Path 927" d="M676.474,406.851c-.17-.459.1-1.044-.03-1.526a.727.727,0,0,0-.718-.556,1.176,1.176,0,0,0-.822.511c-.229.3-.43.718-.755.778a.863.863,0,0,1-.482-.118,3.609,3.609,0,0,0-1.215-.3.423.423,0,0,0-.311.067.723.723,0,0,0-.193.437,4.944,4.944,0,0,0-.1,2.429,3.875,3.875,0,0,0,.607,1.067c.274.37.541.748.815,1.118a1.945,1.945,0,0,0,.622.63l-.459.244a.714.714,0,0,0,1.067-.17c.074-.111.133-.237.207-.348a1.807,1.807,0,0,1,.741-.578c.393-.207.793-.422,1.185-.63a2.756,2.756,0,0,0,.948-.711,1.292,1.292,0,0,0,.2-1.244C677.5,407.377,676.7,407.459,676.474,406.851Z" transform="translate(-638.041 -366.229)" fill="#f24052"/>
      <path id="Path_928" data-name="Path 928" d="M695.932,391.037a1.332,1.332,0,0,0-.481-.237,4.365,4.365,0,0,1-.859-.3.884.884,0,0,1-.5-.7c-.015-.378.3-.778.089-1.089a.494.494,0,0,0-.3-.193,1.3,1.3,0,0,0-.941.318c-.437.3-.874.593-1.311.881a1.185,1.185,0,0,0-.452.444,1.542,1.542,0,0,0-.052.689,2.854,2.854,0,0,1-.748,2.015l.1.363a1.1,1.1,0,0,1,.652.281,3.35,3.35,0,0,0,3.37.193.776.776,0,0,0,.333-.281c.141-.274-.015-.689.237-.859a.911.911,0,0,1,.4-.067.868.868,0,0,0,.726-.578.847.847,0,0,0-.259-.881Z" transform="translate(-642.871 -362.014)" fill="#f24052"/>
      <path id="Path_929" data-name="Path 929" d="M682.206,394.438a1.358,1.358,0,0,0-.5.193,4.616,4.616,0,0,1-.8.43.889.889,0,0,1-.859-.1c-.281-.244-.37-.748-.741-.807a.5.5,0,0,0-.348.1,1.313,1.313,0,0,0-.4.9c-.081.519-.163,1.044-.244,1.563a1.235,1.235,0,0,0,.015.637,1.515,1.515,0,0,0,.467.5,2.842,2.842,0,0,1,.97,1.918l.341.17a1.1,1.1,0,0,1,.652-.289,3.349,3.349,0,0,0,2.422-2.348.734.734,0,0,0,.015-.437c-.1-.289-.519-.452-.467-.755.022-.133.141-.23.222-.341a.857.857,0,0,0,.067-.926.827.827,0,0,0-.815-.407Z" transform="translate(-639.736 -363.474)" fill="#f24052"/>
      <g id="Group_281" data-name="Group 281" transform="translate(11.48 54.377)">
        <path id="Path_930" data-name="Path 930" d="M668.745,426.15H642.97l2.57,25.272h20.642Z" transform="translate(-642.059 -426.15)" fill="#686f9b"/>
        <path id="Path_931" data-name="Path 931" d="M669.345,426.15h-27.6l.452,4.14h26.7Z" transform="translate(-641.74 -426.15)" fill="#a7b0d1"/>
      </g>
    </g>
    <path id="Path_987" data-name="Path 987" d="M472.832,321.31V354.4H389.24V324.465a3.158,3.158,0,0,1,3.155-3.155Z" transform="translate(-126.05 -124.322)" fill="#252a40" opacity="0.2"/>
    <g id="Group_302" data-name="Group 302" transform="translate(273.848 204.314)">
      <path id="Path_988" data-name="Path 988" d="M504.546,401.5H405.511a1.884,1.884,0,0,1-1.881-1.881V333.081a1.884,1.884,0,0,1,1.881-1.881h99.035a1.884,1.884,0,0,1,1.881,1.881v66.542A1.884,1.884,0,0,1,504.546,401.5Z" transform="translate(-403.63 -331.2)" fill="#d2f2ff"/>
      <g id="Group_301" data-name="Group 301" transform="translate(9.814 14.162)">
        <g id="Group_299" data-name="Group 299" transform="translate(0.207)">
          <g id="Group_292" data-name="Group 292" transform="translate(0 45.396)">
            <rect id="Rectangle_518" data-name="Rectangle 518" width="83.229" height="1.511" fill="#fff"/>
          </g>
          <g id="Group_293" data-name="Group 293" transform="translate(0 37.826)">
            <rect id="Rectangle_519" data-name="Rectangle 519" width="83.229" height="1.511" fill="#fff"/>
          </g>
          <g id="Group_294" data-name="Group 294" transform="translate(0 30.264)">
            <rect id="Rectangle_520" data-name="Rectangle 520" width="83.229" height="1.511" fill="#fff"/>
          </g>
          <g id="Group_295" data-name="Group 295" transform="translate(0 22.694)">
            <rect id="Rectangle_521" data-name="Rectangle 521" width="83.229" height="1.511" fill="#fff"/>
          </g>
          <g id="Group_296" data-name="Group 296" transform="translate(0 15.132)">
            <rect id="Rectangle_522" data-name="Rectangle 522" width="83.229" height="1.511" fill="#fff"/>
          </g>
          <g id="Group_297" data-name="Group 297" transform="translate(0 7.562)">
            <rect id="Rectangle_523" data-name="Rectangle 523" width="83.229" height="1.511" fill="#fff"/>
          </g>
          <g id="Group_298" data-name="Group 298">
            <rect id="Rectangle_524" data-name="Rectangle 524" width="83.229" height="1.511" fill="#fff"/>
          </g>
        </g>
        <g id="Group_300" data-name="Group 300" transform="translate(0 12.873)">
          <path id="Path_989" data-name="Path 989" d="M416.88,401.741V386.609l5.97-5.97a4.39,4.39,0,0,1,6.214,0h0a4.392,4.392,0,0,0,6.044.163h0a11.44,11.44,0,0,1,14.169-.881l1.815,1.267a14.243,14.243,0,0,0,18.576-2.022l4.118-4.444a7.333,7.333,0,0,1,9.947-.748h0a7.326,7.326,0,0,0,9.377-.193L500.1,367.7v34.049H416.88Z" transform="translate(-416.88 -367.7)" fill="#007cff"/>
          <path id="Path_990" data-name="Path 990" d="M416.88,401.741V386.609l5.97-5.97a4.39,4.39,0,0,1,6.214,0h0a4.392,4.392,0,0,0,6.044.163h0a11.44,11.44,0,0,1,14.169-.881l1.815,1.267a14.243,14.243,0,0,0,18.576-2.022l4.118-4.444a7.333,7.333,0,0,1,9.947-.748h0a7.326,7.326,0,0,0,9.377-.193L500.1,367.7v34.049H416.88Z" transform="translate(-416.88 -367.7)" fill="#ce364c"/>
          <path id="Path_991" data-name="Path 991" d="M416.88,403.3l15.139-14.332a4.687,4.687,0,0,1,6.807.3h0a4.682,4.682,0,0,0,6.748.356l7.118-6.666a8.856,8.856,0,0,1,11.436-.578h0a8.863,8.863,0,0,0,11.6-.733l.356-.356a4.684,4.684,0,0,1,6.54-.037h0a5.555,5.555,0,0,0,7.34.326l10.147-7.873V403.3H416.88Z" transform="translate(-416.88 -369.259)" fill="#686f9b"/>
        </g>
      </g>
    </g>
    <path id="Path_992" data-name="Path 992" d="M497.043,83.93v64.927H485.926a3.326,3.326,0,0,1-3.326-3.326V83.93Z" transform="translate(-150.262 -62.762)" fill="#252a40" opacity="0.2"/>
    <g id="Group_306" data-name="Group 306" transform="translate(338.73)">
      <path id="Path_993" data-name="Path 993" d="M604.975,130.195H493.111a1.884,1.884,0,0,1-1.881-1.881V57.231a1.884,1.884,0,0,1,1.881-1.881H604.975a1.884,1.884,0,0,1,1.881,1.881v71.082a1.875,1.875,0,0,1-1.881,1.881Z" transform="translate(-491.23 -55.35)" fill="#d2f2ff"/>
      <g id="Group_305" data-name="Group 305" transform="translate(9.455 11.06)">
        <g id="Group_303" data-name="Group 303" transform="translate(0 0)">
          <circle id="Ellipse_30" data-name="Ellipse 30" cx="23.627" cy="23.627" r="23.627" transform="translate(0 46.888) rotate(-82.859)" fill="#a7b0d1"/>
          <path id="Path_994" data-name="Path 994" d="M531.326,97.607,531.1,73.98a23.631,23.631,0,1,0,22.657,16.2Z" transform="translate(-504.955 -71.241)" fill="#686f9b"/>
          <path id="Path_995" data-name="Path 995" d="M531.327,97.607,532,73.987a23.631,23.631,0,1,0,22,30.3Z" transform="translate(-504.956 -71.24)" fill="#fff"/>
        </g>
        <g id="Group_304" data-name="Group 304" transform="translate(63.02 7.916)">
          <path id="Path_996" data-name="Path 996" d="M595.65,88.54h-5.57a1,1,0,0,1-1-1V81.97a1,1,0,0,1,1-1h5.57a1,1,0,0,1,1,1v5.57A1,1,0,0,1,595.65,88.54Z" transform="translate(-589.08 -80.97)" fill="#686f9b"/>
          <path id="Path_997" data-name="Path 997" d="M595.65,108.33h-5.57a1,1,0,0,1-1-1v-5.57a1,1,0,0,1,1-1h5.57a1,1,0,0,1,1,1v5.57a1,1,0,0,1-1,1Z" transform="translate(-589.08 -86.102)" fill="#a7b0d1"/>
          <path id="Path_998" data-name="Path 998" d="M595.65,128.13h-5.57a1,1,0,0,1-1-1v-5.57a1,1,0,0,1,1-1h5.57a1,1,0,0,1,1,1v5.57a1,1,0,0,1-1,1Z" transform="translate(-589.08 -91.237)" fill="#fff"/>
          <rect id="Rectangle_525" data-name="Rectangle 525" width="15.236" height="1.37" transform="translate(12.354 3.096)" fill="#a7b0d1"/>
          <rect id="Rectangle_526" data-name="Rectangle 526" width="15.236" height="1.37" transform="translate(12.354 17.761)" fill="#a7b0d1"/>
          <rect id="Rectangle_527" data-name="Rectangle 527" width="15.236" height="1.37" transform="translate(12.354 32.427)" fill="#a7b0d1"/>
        </g>
      </g>
    </g>
    <g id="Group_316" data-name="Group 316" transform="translate(152.889 245.636)">
      <g id="Group_307" data-name="Group 307" transform="translate(1.933 48.314)">
        <rect id="Rectangle_528" data-name="Rectangle 528" width="33.656" height="5.962" fill="#a7b0d1"/>
        <rect id="Rectangle_529" data-name="Rectangle 529" width="5.14" height="5.962" fill="#686f9b"/>
        <rect id="Rectangle_530" data-name="Rectangle 530" width="2.57" height="5.962" transform="translate(6.192)" fill="#686f9b"/>
        <rect id="Rectangle_531" data-name="Rectangle 531" width="1.289" height="5.962" transform="translate(10.547)" fill="#686f9b"/>
        <rect id="Rectangle_532" data-name="Rectangle 532" width="0.637" height="5.962" transform="translate(14.895)" fill="#686f9b"/>
        <rect id="Rectangle_533" data-name="Rectangle 533" width="0.318" height="5.962" transform="translate(19.924)" fill="#686f9b"/>
        <path id="Path_999" data-name="Path 999" d="M242.93,458.96v.97h33.656Z" transform="translate(-242.93 -453.968)" fill="#686f9b"/>
      </g>
      <g id="Group_308" data-name="Group 308" transform="translate(0 42.277)">
        <rect id="Rectangle_534" data-name="Rectangle 534" width="33.656" height="5.962" fill="#a7b0d1"/>
        <rect id="Rectangle_535" data-name="Rectangle 535" width="5.14" height="5.962" fill="#686f9b"/>
        <rect id="Rectangle_536" data-name="Rectangle 536" width="2.57" height="5.962" transform="translate(6.199)" fill="#686f9b"/>
        <rect id="Rectangle_537" data-name="Rectangle 537" width="1.289" height="5.962" transform="translate(10.547)" fill="#686f9b"/>
        <rect id="Rectangle_538" data-name="Rectangle 538" width="0.637" height="5.962" transform="translate(14.902)" fill="#686f9b"/>
        <rect id="Rectangle_539" data-name="Rectangle 539" width="0.318" height="5.962" transform="translate(19.924)" fill="#686f9b"/>
        <path id="Path_1000" data-name="Path 1000" d="M240.32,450.81v.97h33.656Z" transform="translate(-240.32 -445.818)" fill="#686f9b"/>
      </g>
      <g id="Group_309" data-name="Group 309" transform="translate(5.955 36.234)">
        <rect id="Rectangle_540" data-name="Rectangle 540" width="33.656" height="5.962" fill="#a7b0d1"/>
        <rect id="Rectangle_541" data-name="Rectangle 541" width="5.14" height="5.962" fill="#686f9b"/>
        <rect id="Rectangle_542" data-name="Rectangle 542" width="2.57" height="5.962" transform="translate(6.192)" fill="#686f9b"/>
        <rect id="Rectangle_543" data-name="Rectangle 543" width="1.289" height="5.962" transform="translate(10.54)" fill="#686f9b"/>
        <rect id="Rectangle_544" data-name="Rectangle 544" width="0.637" height="5.962" transform="translate(14.895)" fill="#686f9b"/>
        <rect id="Rectangle_545" data-name="Rectangle 545" width="0.318" height="5.962" transform="translate(19.924)" fill="#686f9b"/>
        <path id="Path_1001" data-name="Path 1001" d="M248.36,442.65v.978h33.656Z" transform="translate(-248.36 -437.658)" fill="#686f9b"/>
      </g>
      <g id="Group_310" data-name="Group 310" transform="translate(3.096 30.197)">
        <rect id="Rectangle_546" data-name="Rectangle 546" width="33.656" height="5.962" fill="#a7b0d1"/>
        <rect id="Rectangle_547" data-name="Rectangle 547" width="5.14" height="5.962" fill="#686f9b"/>
        <rect id="Rectangle_548" data-name="Rectangle 548" width="2.57" height="5.962" transform="translate(6.199)" fill="#686f9b"/>
        <rect id="Rectangle_549" data-name="Rectangle 549" width="1.289" height="5.962" transform="translate(10.547)" fill="#686f9b"/>
        <rect id="Rectangle_550" data-name="Rectangle 550" width="0.637" height="5.962" transform="translate(14.902)" fill="#686f9b"/>
        <rect id="Rectangle_551" data-name="Rectangle 551" width="0.318" height="5.962" transform="translate(19.931)" fill="#686f9b"/>
        <path id="Path_1002" data-name="Path 1002" d="M244.5,434.5v.97h33.656Z" transform="translate(-244.5 -429.508)" fill="#686f9b"/>
      </g>
      <g id="Group_311" data-name="Group 311" transform="translate(3.096 18.117)">
        <rect id="Rectangle_552" data-name="Rectangle 552" width="33.656" height="5.962" fill="#a7b0d1"/>
        <rect id="Rectangle_553" data-name="Rectangle 553" width="5.14" height="5.962" fill="#686f9b"/>
        <rect id="Rectangle_554" data-name="Rectangle 554" width="2.57" height="5.962" transform="translate(6.199)" fill="#686f9b"/>
        <rect id="Rectangle_555" data-name="Rectangle 555" width="1.289" height="5.962" transform="translate(10.547)" fill="#686f9b"/>
        <rect id="Rectangle_556" data-name="Rectangle 556" width="0.637" height="5.962" transform="translate(14.902)" fill="#686f9b"/>
        <rect id="Rectangle_557" data-name="Rectangle 557" width="0.318" height="5.962" transform="translate(19.931)" fill="#686f9b"/>
        <path id="Path_1003" data-name="Path 1003" d="M244.5,418.19v.97h33.656Z" transform="translate(-244.5 -413.198)" fill="#686f9b"/>
      </g>
      <g id="Group_312" data-name="Group 312" transform="translate(0 12.08)">
        <rect id="Rectangle_558" data-name="Rectangle 558" width="33.656" height="5.962" fill="#a7b0d1"/>
        <rect id="Rectangle_559" data-name="Rectangle 559" width="5.14" height="5.962" fill="#686f9b"/>
        <rect id="Rectangle_560" data-name="Rectangle 560" width="2.57" height="5.962" transform="translate(6.199)" fill="#686f9b"/>
        <rect id="Rectangle_561" data-name="Rectangle 561" width="1.289" height="5.962" transform="translate(10.547)" fill="#686f9b"/>
        <rect id="Rectangle_562" data-name="Rectangle 562" width="0.637" height="5.962" transform="translate(14.902)" fill="#686f9b"/>
        <rect id="Rectangle_563" data-name="Rectangle 563" width="0.318" height="5.962" transform="translate(19.924)" fill="#686f9b"/>
        <path id="Path_1004" data-name="Path 1004" d="M240.32,410.04v.97h33.656Z" transform="translate(-240.32 -405.048)" fill="#686f9b"/>
      </g>
      <g id="Group_313" data-name="Group 313" transform="translate(3.096 6.036)">
        <rect id="Rectangle_564" data-name="Rectangle 564" width="33.656" height="5.962" fill="#a7b0d1"/>
        <rect id="Rectangle_565" data-name="Rectangle 565" width="5.14" height="5.962" fill="#686f9b"/>
        <rect id="Rectangle_566" data-name="Rectangle 566" width="2.57" height="5.962" transform="translate(6.199)" fill="#686f9b"/>
        <rect id="Rectangle_567" data-name="Rectangle 567" width="1.289" height="5.962" transform="translate(10.547)" fill="#686f9b"/>
        <rect id="Rectangle_568" data-name="Rectangle 568" width="0.637" height="5.962" transform="translate(14.902)" fill="#686f9b"/>
        <rect id="Rectangle_569" data-name="Rectangle 569" width="0.318" height="5.962" transform="translate(19.931)" fill="#686f9b"/>
        <path id="Path_1005" data-name="Path 1005" d="M244.5,401.88v.978h33.656Z" transform="translate(-244.5 -396.888)" fill="#686f9b"/>
      </g>
      <g id="Group_314" data-name="Group 314" transform="translate(0.644)">
        <rect id="Rectangle_570" data-name="Rectangle 570" width="33.656" height="5.962" fill="#a7b0d1"/>
        <rect id="Rectangle_571" data-name="Rectangle 571" width="5.14" height="5.962" fill="#686f9b"/>
        <rect id="Rectangle_572" data-name="Rectangle 572" width="2.57" height="5.962" transform="translate(6.192)" fill="#686f9b"/>
        <rect id="Rectangle_573" data-name="Rectangle 573" width="1.289" height="5.962" transform="translate(10.547)" fill="#686f9b"/>
        <rect id="Rectangle_574" data-name="Rectangle 574" width="0.637" height="5.962" transform="translate(14.895)" fill="#686f9b"/>
        <rect id="Rectangle_575" data-name="Rectangle 575" width="0.318" height="5.962" transform="translate(19.924)" fill="#686f9b"/>
        <path id="Path_1006" data-name="Path 1006" d="M241.19,393.73v.97h33.656Z" transform="translate(-241.19 -388.738)" fill="#686f9b"/>
      </g>
      <g id="Group_315" data-name="Group 315" transform="translate(1.933 24.153)">
        <rect id="Rectangle_576" data-name="Rectangle 576" width="33.656" height="5.962" fill="#a7b0d1"/>
        <rect id="Rectangle_577" data-name="Rectangle 577" width="5.14" height="5.962" fill="#686f9b"/>
        <rect id="Rectangle_578" data-name="Rectangle 578" width="2.57" height="5.962" transform="translate(6.192)" fill="#686f9b"/>
        <rect id="Rectangle_579" data-name="Rectangle 579" width="1.289" height="5.962" transform="translate(10.547)" fill="#686f9b"/>
        <rect id="Rectangle_580" data-name="Rectangle 580" width="0.637" height="5.962" transform="translate(14.895)" fill="#686f9b"/>
        <rect id="Rectangle_581" data-name="Rectangle 581" width="0.318" height="5.962" transform="translate(19.924)" fill="#686f9b"/>
        <path id="Path_1007" data-name="Path 1007" d="M242.93,426.34v.978h33.656Z" transform="translate(-242.93 -421.348)" fill="#686f9b"/>
      </g>
    </g>
    <g id="Group_323" data-name="Group 323" transform="translate(180.827 263.752)">
      <g id="Group_317" data-name="Group 317" transform="translate(4.163 30.197)">
        <rect id="Rectangle_582" data-name="Rectangle 582" width="33.656" height="5.962" fill="#a7b0d1"/>
        <rect id="Rectangle_583" data-name="Rectangle 583" width="5.14" height="5.962" fill="#686f9b"/>
        <rect id="Rectangle_584" data-name="Rectangle 584" width="2.57" height="5.962" transform="translate(6.192)" fill="#686f9b"/>
        <rect id="Rectangle_585" data-name="Rectangle 585" width="1.289" height="5.962" transform="translate(10.547)" fill="#686f9b"/>
        <rect id="Rectangle_586" data-name="Rectangle 586" width="0.637" height="5.962" transform="translate(14.902)" fill="#686f9b"/>
        <rect id="Rectangle_587" data-name="Rectangle 587" width="0.318" height="5.962" transform="translate(19.924)" fill="#686f9b"/>
        <path id="Path_1008" data-name="Path 1008" d="M283.66,458.96v.97h33.656Z" transform="translate(-283.66 -453.968)" fill="#686f9b"/>
      </g>
      <g id="Group_318" data-name="Group 318" transform="translate(2.237 24.161)">
        <rect id="Rectangle_588" data-name="Rectangle 588" width="33.656" height="5.962" fill="#a7b0d1"/>
        <rect id="Rectangle_589" data-name="Rectangle 589" width="5.14" height="5.962" fill="#686f9b"/>
        <rect id="Rectangle_590" data-name="Rectangle 590" width="2.57" height="5.962" transform="translate(6.192)" fill="#686f9b"/>
        <rect id="Rectangle_591" data-name="Rectangle 591" width="1.289" height="5.962" transform="translate(10.547)" fill="#686f9b"/>
        <rect id="Rectangle_592" data-name="Rectangle 592" width="0.637" height="5.962" transform="translate(14.895)" fill="#686f9b"/>
        <rect id="Rectangle_593" data-name="Rectangle 593" width="0.318" height="5.962" transform="translate(19.924)" fill="#686f9b"/>
        <path id="Path_1009" data-name="Path 1009" d="M281.06,450.81v.97h33.656Z" transform="translate(-281.06 -445.818)" fill="#686f9b"/>
      </g>
      <g id="Group_319" data-name="Group 319" transform="translate(2.852 18.117)">
        <rect id="Rectangle_594" data-name="Rectangle 594" width="33.656" height="5.962" fill="#a7b0d1"/>
        <rect id="Rectangle_595" data-name="Rectangle 595" width="5.14" height="5.962" fill="#686f9b"/>
        <rect id="Rectangle_596" data-name="Rectangle 596" width="2.57" height="5.962" transform="translate(6.192)" fill="#686f9b"/>
        <rect id="Rectangle_597" data-name="Rectangle 597" width="1.289" height="5.962" transform="translate(10.547)" fill="#686f9b"/>
        <rect id="Rectangle_598" data-name="Rectangle 598" width="0.637" height="5.962" transform="translate(14.902)" fill="#686f9b"/>
        <rect id="Rectangle_599" data-name="Rectangle 599" width="0.318" height="5.962" transform="translate(19.924)" fill="#686f9b"/>
        <path id="Path_1010" data-name="Path 1010" d="M281.89,442.65v.978h33.656Z" transform="translate(-281.89 -437.658)" fill="#686f9b"/>
      </g>
      <g id="Group_320" data-name="Group 320" transform="translate(0 12.08)">
        <rect id="Rectangle_600" data-name="Rectangle 600" width="33.656" height="5.962" fill="#a7b0d1"/>
        <rect id="Rectangle_601" data-name="Rectangle 601" width="5.14" height="5.962" fill="#686f9b"/>
        <rect id="Rectangle_602" data-name="Rectangle 602" width="2.57" height="5.962" transform="translate(6.192)" fill="#686f9b"/>
        <rect id="Rectangle_603" data-name="Rectangle 603" width="1.289" height="5.962" transform="translate(10.547)" fill="#686f9b"/>
        <rect id="Rectangle_604" data-name="Rectangle 604" width="0.637" height="5.962" transform="translate(14.895)" fill="#686f9b"/>
        <rect id="Rectangle_605" data-name="Rectangle 605" width="0.318" height="5.962" transform="translate(19.924)" fill="#686f9b"/>
        <path id="Path_1011" data-name="Path 1011" d="M278.04,434.5v.97H311.7Z" transform="translate(-278.04 -429.508)" fill="#686f9b"/>
      </g>
      <g id="Group_321" data-name="Group 321" transform="translate(5.333)">
        <rect id="Rectangle_606" data-name="Rectangle 606" width="33.656" height="5.962" fill="#a7b0d1"/>
        <rect id="Rectangle_607" data-name="Rectangle 607" width="5.14" height="5.962" fill="#686f9b"/>
        <rect id="Rectangle_608" data-name="Rectangle 608" width="2.57" height="5.962" transform="translate(6.192)" fill="#686f9b"/>
        <rect id="Rectangle_609" data-name="Rectangle 609" width="1.289" height="5.962" transform="translate(10.547)" fill="#686f9b"/>
        <rect id="Rectangle_610" data-name="Rectangle 610" width="0.637" height="5.962" transform="translate(14.895)" fill="#686f9b"/>
        <rect id="Rectangle_611" data-name="Rectangle 611" width="0.318" height="5.962" transform="translate(19.924)" fill="#686f9b"/>
        <path id="Path_1012" data-name="Path 1012" d="M285.24,418.19v.97H318.9Z" transform="translate(-285.24 -413.198)" fill="#686f9b"/>
      </g>
      <g id="Group_322" data-name="Group 322" transform="translate(4.163 6.036)">
        <rect id="Rectangle_612" data-name="Rectangle 612" width="33.656" height="5.962" fill="#a7b0d1"/>
        <rect id="Rectangle_613" data-name="Rectangle 613" width="5.14" height="5.962" fill="#686f9b"/>
        <rect id="Rectangle_614" data-name="Rectangle 614" width="2.57" height="5.962" transform="translate(6.192)" fill="#686f9b"/>
        <rect id="Rectangle_615" data-name="Rectangle 615" width="1.289" height="5.962" transform="translate(10.547)" fill="#686f9b"/>
        <rect id="Rectangle_616" data-name="Rectangle 616" width="0.637" height="5.962" transform="translate(14.902)" fill="#686f9b"/>
        <rect id="Rectangle_617" data-name="Rectangle 617" width="0.318" height="5.962" transform="translate(19.924)" fill="#686f9b"/>
        <path id="Path_1013" data-name="Path 1013" d="M283.66,426.34v.978h33.656Z" transform="translate(-283.66 -421.348)" fill="#686f9b"/>
      </g>
    </g>
    <g id="Group_324" data-name="Group 324" transform="translate(340.493 83.733)">
      <ellipse id="Ellipse_31" data-name="Ellipse 31" cx="24.731" cy="21.746" rx="24.731" ry="21.746" fill="#a7b0d1"/>
      <text id="BUY_" data-name="BUY?" transform="translate(9.623 24.661)" fill="#fff" font-size="13" font-family="SegoeUI, Segoe UI"><tspan x="0" y="0">BUY?</tspan></text>
      <path id="Path_1014" data-name="Path 1014" d="M535.03,215.618s5.585,8.844,13.7,9.814c0,0-4.222-1.37-7.562-13.162Z" transform="translate(-504.351 -179.777)" fill="#a7b0d1"/>
    </g>
    <g id="Group_325" data-name="Group 325" transform="translate(426.685 65.431)">
      <ellipse id="Ellipse_32" data-name="Ellipse 32" cx="24.731" cy="21.746" rx="24.731" ry="21.746" fill="#a7b0d1"/>
      <text id="SELL_" data-name="SELL?" transform="translate(8.328 23.66)" fill="#fff" font-size="12" font-family="SegoeUI, Segoe UI"><tspan x="0" y="0">SELL?</tspan></text>
      <path id="Path_1015" data-name="Path 1015" d="M630.552,190.908s-5.585,8.844-13.7,9.814c0,0,4.222-1.37,7.562-13.162Z" transform="translate(-611.762 -155.067)" fill="#a7b0d1"/>
    </g>
  </g>
</svg>
