<svg xmlns="http://www.w3.org/2000/svg" viewBox="0 0 480 480" xmlns:v="https://vecta.io/nano"><path d="M210 115.6s-15.8 6.9-29.9 14.7c-14.4 8-19.6 13.8-23.2 19.2-4.2 6.4-4.6 15.7-4.8 30.1s1.2 43.9 1.2 43.9-1.6 6.3.5 13.7c2.1 7.5 3.1 8.1 3.5 9.1.5 1 1.8-.2 1.8-.2s1.2 2.7 2.5 2.8.8-1.8.8-1.8 1.26 1.44 2.06 1.24 1.64-3.84 1.34-5.94.7-7.6.8-8.6 1 2.2 1.6 3.8 2.7 2.3 2.3-.7c-.4-3.1-.4-5.8-.6-6.6s-.9-2.9-1.5-4.3l-.5-1.4s-.6-1.1.1-4.2 8.7-34.9 10.2-39.6c1.9-6 10.3-13.9 14.9-16.6 8.1-4.6 25.6-13.7 25.6-13.7l-8.7-34.9z" fill="#ea9d7d"/><path d="M153.3 222.8c-.2-.1-.3-.2-.3-.4 0-.4-1.3-41.1-1-54.4.2-11.8 3.8-18 6.6-21.3 2-2.3 3.3-3.4 3.5-3.5s.5 0 .6.2 0 .5-.2.6c0 0-2 1.6-4.4 5-4.1 5.8-5.1 13.6-5.2 19.1-.2 13.3 1 54 1.1 54.4 0 .2-.2.4-.4.4s-.2-.1-.3-.1z" fill="#cc7a5e"/><linearGradient id="A" gradientUnits="userSpaceOnUse" x1="170.485" y1="161.505" x2="184.221" y2="152.612"><stop offset="0" stop-color="#cc7a5e" stop-opacity="0"/><stop offset="1" stop-color="#aa5f4b"/></linearGradient><path d="M177.8 181.5s-2.6-11.2-7.8-20.6c-5.3-9.4-12.4-12.4-12.4-12.4s5.4-6.2 7.4-7.8c2.2-1.7 3.9-2.9 3.9-2.9l24.2 26.4s-.6-.3-5.8 4.7c-4.3 3.9-7.6 7.8-9.5 12.6z" fill="url(#A)"/><linearGradient id="B" gradientUnits="userSpaceOnUse" x1="176.329" y1="174.428" x2="199.71" y2="187.814"><stop offset="0" stop-color="#cc7a5e" stop-opacity="0"/><stop offset=".924" stop-color="#aa5f4b"/></linearGradient><path d="M190.7 165.8c3.3-2.1 17.8-9.8 17.8-9.8l-.2-18.4s-5.5 3-16.1 6.2c-10.4 3.2-14.6 7.5-15.5 13.1-1-2.6-3.1 7.3-4.9 10.5-2.2 3.9-12.5 32.7-14.5 43.7-1.8 9.8 2 8.1 6.6 10.4 2 .9 4.1 2.8 4.1 2.8l.2-4.7 10.1-38.8c.7-1.7 1-3.9 3.8-6.6 2.9-3.5 5.9-6.7 8.6-8.4z" fill="url(#B)"/><linearGradient id="C" gradientUnits="userSpaceOnUse" x1="176.406" y1="203.807" x2="187.39" y2="207.917"><stop offset="0" stop-color="#cc7a5e" stop-opacity="0"/><stop offset=".924" stop-color="#aa5f4b"/></linearGradient><path d="M181.9 174.2c-1.3 1.1-3.6 5.3-4.8 10l-8.9 35.3-.9 5.4s.5-.5 1.5 1.8c1.1 2.4 1.7 9.2 1.9 10.7s-.2 1.5-.7 1.7c-.4.1-.9-.3-1.3-.9-.3-.6-2.2-5.3-2.2-5.3s-3-.3-4-2.9c-.9-2.6-.5-5.7-.5-5.7s-4.5-40.9 4.8-54.1c9-12.2 16.4 2.9 15.1 4z" fill="url(#C)"/><linearGradient id="D" gradientUnits="userSpaceOnUse" x1="158.692" y1="230.968" x2="168.794" y2="227.221"><stop offset="0" stop-color="#cc7a5e" stop-opacity="0"/><stop offset=".924" stop-color="#aa5f4b"/></linearGradient><path d="M162.2 225.5s-3.1-2-5.3.4c-2 2.3-1.4 5.2-.8 6.7 1 2.4 5.1 3.6 7.3 2.8 2.5-.9 3.2-2.3 3.2-2.3s-3.1-1-3.9-3.1c-.9-2-.5-4.5-.5-4.5z" fill="url(#D)"/><path d="M166.2 233.4c-.7-.2-2.3-.9-3.4-2.4-1.5-2-1.1-5.2-1.1-5.4s.2-.4.5-.4c.2 0 .4.2.4.5 0 0-.4 3.1.9 4.8s3.3 2.2 3.4 2.2c.2 0 .4.3.3.5 0 .2-.3.4-.5.3-.1 0-.2-.1-.5-.1z" fill="#cc7a5e"/><linearGradient id="E" gradientUnits="userSpaceOnUse" x1="192.572" y1="113.433" x2="211.984" y2="145.437"><stop offset="0" stop-color="#997ebd"/><stop offset=".569" stop-color="#7c59aa"/><stop offset="1" stop-color="#6a4bb4"/></linearGradient><path d="M165.6 134.8s16.8-14.7 29.3-21.5c12.5-6.7 25.5-13.7 37.2 0 11.7 13.8-2 29.4-10.5 38s-21.8 20.5-21.8 20.5l-34.2-37z" fill="url(#E)"/><linearGradient id="F" gradientUnits="userSpaceOnUse" x1="177.503" y1="138.706" x2="236.773" y2="138.706"><stop offset="0" stop-color="#6a4bb4" stop-opacity="0"/><stop offset="1" stop-color="#4f3282"/></linearGradient><path d="M221.6 151.4c8.5-8.6 22.3-24.2 10.5-38-10-11.6-20.7-8.4-31.4-3.1 0 0-6.8 7.7-15.7 20.4-4.3 6.2-5.2 11.4-7.6 17l22.4 24.2c.1 0 13.3-11.9 21.8-20.5z" fill="url(#F)"/><path d="M199.9 171.9c-.2.1-.2.1-.4-.1l-33.9-36.3a.61.61 0 0 1 0-.8.61.61 0 0 1 .8 0l33.9 36.3c.2.2.1.4-.1.6-.1.2-.1.2-.3.3z" fill="#50297a"/><g fill="#ffbca4"><path d="M163.6 180.3l.9-.1-.5-.9-.4 1zm-.4-4.5l-1.5-.2.5 1.2 1-1zm-7.4-5.5l.9-.8.4.6 1.5-2.2-2.7.1.7 1.2-1.3-.2.5 1.3zm3.5.2l1-1.1-1.5-.1.5 1.2zm-4.7 3.3l.6-.3-2.2-1.5.1 2.7.4-.2v.8l.1-.1v.6l1.3-.7-.4-.2 1.2-.6-1.1-.5zm-.4.3v.6l-.5-.3.5-.3zm5.2 20.3l.7 1.3 1.1-1.3h-1.8zm-3.9-11.2l-.8 1.3 1.7.3-.9-1.6zm2.8-6.6l-.2.2.7.3v-.4h.1l-.1-.1v-.4l-.2.1-.8-1.2-.8 1.3 1.3.2zm-.4 11.7l-1-1.5 1.2-1.2-1.9-.1.6 1.4-.7 1.2 1.8.2zm.5-5.9l-1.9-.1.6 1.4 1.3-1.3zm-2.8-.4l-.2-.9.5-.5h-.6l-.1-.2-.1.2h-.7l.2.6-.5.6 1.5.2zm2.9 19.5l1.6.2-.5-1.6-1.1 1.4zm-5.4 25.4l1 .2-.1-1.1-.9.9zm8.2-33.6l1.6.3-.4-1.6-1.2 1.3zm-.4-5.1l-1.2 1.4 1.6.3-.4-1.7zm-4.5 29.3l-1.1 1 1.2.4-.1-1.4z"/><path d="M153.7 216.3l1.3.3v-.1l1 .2-.3-1.4-.8.9-.1-.5.9-.5-1.2-.9.7-.2-.4-.5.6-.3.3-.1-.9-.7v.3l-.8-.6v1.8l.8-.4-.2.6v1l-.9 1.1zm2.6-40.9l-.9 1.1 1.2.3-.3-1.4zm2.2 6.2l1.2-1.3-1.8-.1.6 1.4zm10.4-5.1l-.6.4.7.4-.1-.8zm-12.1 5l.2-.3.3.1v-.6l.1-.2h-.1v-.1l-.1.1-.9-.2.5 1.2zm-.6-2l-.1-1-.8.7.9.3zm2.3-5.2l-.9-.6-.1.9 1-.3zm1.2 18.8l-.3 1.2 1.1-.3-.8-.9z"/><path d="M157.6 203.3l-.4 1.1 1.1-.2-.7-.9zm.9-12.3l-.4 1.2 1.1-.2-.7-1zm-3.4-5.3l.2-.1-2.1-1.5.1 2.7 1.5-.8.2.5.7-.7-.6-.1zm8 1.9l.9.4-.2-1-.7.6zm-5.8 9.5l-1.2.4 1 .7.2-1.1zm-1.7 2.5l-.2-2.5-.5.5-1.4-1.1-.1 1.9 1.2-.6-1.2 1.1 2.2.8v-.1l1 .7.2-1-1.2.3zm-2.2-.1l.2 1.8 1.4-.9-1.6-.9zm4.2-5.9l-.1.1-.2-.7-.7.6.6.3-1.1.7 1.4.9.1-1.9z"/><path d="M158 198.2l-1.5 1 1.5.9v-1.9zm.2-15.2l-1.5 1 1.4.9.1-1.9zm-1.3-7.3l.1-1.9-1.5 1 1.4.9zm-2.2 43.3l.2.9.8-.6-1-.3zm-1.3 6.4l1-.4-.7-.5-.3.9zm5.5-18.4l.2-.8-1 .2.8.6zm-5 3.8l-.1 1 .9-.6-.8-.4zm2.4-7.7l-.1-1-.6.5v-.8l.5-.6h-.6v-.2l-.2.2h-1l.3.7h-.1l-.5-.2v.7l-.5.5.5.2v.1l.2-.1.7.2-.4.4-1.1-.7.1 2.2 1.2-1.1 1.7.7-.1-1.4.3-.2-.3-.1zm8.1-17.1l.6-.2-.4-.4-.2.6zm-4.8.4l-.7-.1.3.5.4-.4zm-2.9-13v-.8l-.6.3.6.5zm2.8 1.9l-.2.6.6-.2-.4-.4zm1.8 23.2l1.3-.3-.8-.7-.5 1zm-2.3 4.7l-1.1-.1.5.9.6-.8zm-3.2-6.8l-.1-1-.8.7.9.3zm-.7 26.5l.9-.5-.8-.5-.1 1zm1.3-3.1l-.1 1 .9-.5-.8-.5zm1.3-8l-.7.5.4.1-1.1-.1-.1-2.6-.8.8-.3-1.4-.4.4-1.1-.8 2-1h1.1l-1.4.8 1.4 1 .2-1.8h1.1l-1-2.4-1.3 2.3-.8-.7.7-.5h.3l-.1-.2.5-.4-.6-.3.3-.1-.6-.3-.1-.3-.2.2-.7-.3v1.3l-.2.3.5.1v.5l-1.1-.9v2.8h.1l-.1 1.9.5-.3-.1.1 1.3.3-.8.8 1.6.7-1.1-.1 1.6 2.2 1-1.9h.5l.3-1-.6.5-.1-.2zm-.9 11.3l1-.1-.5-.7-.5.8zm2.2-27.3l-.8 1.5 1.8-.4-1-1.1z"/><path d="M154.7 224.6l1-.2-.6-.6-.4.8zm3-15.4l1-.2-.5-.7-.5.9zm-3.8 13.1l.2 1.8 1.3-.8-1.5-1zm3.1-5.7l.9-1.2-1.7-.4.8 1.6zm0-38.5l1 .1-.6-.8-.4.7zm3.6 6.7l.1.9.7-.7-.8-.2zm-.6-2.5l-.9.8 1.3.1-.4-.9zm-5.6 5l.8-.5-.9-.4.1.9zm3.6-15.5l-.4.8 1 .1-.6-.9zm3.1 7.7l.1 1 .7-.7-.8-.3zm-5.2-7.2l1.5-.1-.7-1.5-.8 1.6zm-2.7 6l.1 2.7 2-1.2-2.1-1.5z"/><path d="M153.7 177.8l-.2.2 1.2.3.1.1-.7.3.7.5.2-.6.4-1.1-.9.3-.1-.5.6-.3-.8-.6-1.4-1 .1 2.7.8-.3zm.3 5.6l.6.5.4-1.1.3-.2-2.2-1.5.1 2.7.8-.4zm1.2 5l.2.4.7-.8H155l.1.3-2-1.4.1 2.7 2-1.2zm-1.9 5.5l.1 2.7 2.1-1.1-.9-.7 1.6-1.1-1.1-.6h.1l-1.6-.7.9-.8 1.5.5v-.4l2.1-.1-1.2-2.4-.9 2-.2-1.7-.3.3-1.4-.6v1.5l.9-.4-.8.7-.9-.4.1 1.9.2-.1v1.4l1.1-.5-.1 1.4-1.3-.8zm1-23.8l1.5-2.2h-.8l.1-.1-2-1.7-.1 2.7.5-.2.8 1.5zm8.4 12.6l-1-.2.1.2-.5.3.6.4v-.4l.2.5.6-.8zm.3-5.9l-.1.8.9-.2-.8-.6zm-5.7 34.1l.2-1-1.2.3 1 .7zm.7.9l.2-1-1.2.2 1 .8zm-4.1 10.3l2.1-1.1-2.1-1.7v2.8zm1.5-4.1l-1.4-1.6-.3 2.2 1.7-.6zm8.8-39.5l-1-.2.5 1 .5-.8zm.2-5.2l.8-.2-.7-.5-.1.7zm-1.1-8.8l-1.5-.3.4 1.2 1.1-.9zm-6.3-5.7l1.1-.9-1.5-.3.4 1.2zm.2-4.5l-1.5-.3.4 1.3 1.1-1zm-2.8 8.4l-.4-.2-.1 1.3 1.4-.5-.4-.2 1.2-.4-1.1-.7.7-.3-2-1.8-.2 2.7 1-.4-.1.5zm3.9 2.2l-.2.1.7.4v-.9l-.2.1-.6-1.3-.9 1.2 1.2.4z"/><path d="M155.1 160.6l1.1-.9-.9-.2.7-.3-2-1.8-.2 2.7 1-.4.3.9zm-1.6 5.3l.9.3.2.3-.5.2.6.6.4-.9h-.1l.3-.7-.7.1-.1-.5.6-.3-2-1.7-.1 2.7.6-.3-.1.2zm3.1-.9l-.2-1.4-1 1 1.2.4zm1.3-3l-.1.9 1-.2-.9-.7zm-.9 1.9l.2-1.8-1.6.9 1.4.9zm-.5-2.7l.6.5.1-.8-.7.3zm3.1 2.8l-.3.5.7-.1-.4-.4zm-5.6 8l.2-.3.2.5 1-1-.9-.1.1-.2-.3.1.6-.3-2-1.7-.1 2.7.7-.3.5.6zm4-5.5l-.5-.9-.5.7 1 .2zm2 6.8l.1 1 .8-.7-.9-.3zm-1.3-1.8l1.2.2-.3-1-.9.8zm.3-10.3l-.4-.9-.6.7 1 .2zm2.5 7.5l-.8-.4v1l.8-.6zm-4.5-17l-.9 1.4 1.5.1-.6-1.5zm-.7 4.4h-1.7l.7 1.2 1-1.2zm7.1 11.9l.6-.7-1-.3.4 1zm1.3-5.8l.9-.2-.7-.6-.2.8zm-4.3 18.7l.7-1-1.2.1.5.9zm4.2-6l-.6.7 1 .3-.4-1zm1.3 9.2l.9-.6-.8-.4-.1 1zm1.7-5.1l.7-.3-.7-.5v.8z"/></g><g fill="#be95f9"><path d="M169.7 136.3l.8-1.5-1.8.3 1 1.2zm-1.4-3.5l-.5 2.1 1.8-.4-1.3-1.7zm2.4 3.7l1.8-.4-1.2-1.7-.6 2.1zm7.2 7.6l.3-1-.9.4.6.6zm9.2-20.2l.7 1.4 1-1.4h-1.7zm1.5-2.6h-1.8l.7 1.4 1.1-1.4zm-3.2 5.6l1.9-.1-1-1.8-.9 1.9zm-9.8 5.6l-.6 2.1 1.8-.4-1.2-1.7zm2.1-1.6l2.1-.1-.9-1.6-1.2 1.7zm-2.4 1.1l2.1-.1-.9-1.6-1.2 1.7zm5.5-5.1l.9 1.3.8-1.5-1.7.2zm10.7-4.6l1-1.4-1.8.1.8 1.3zm-13.8 10.4l-1.3-.1.4.9.9-.8zm4.4-4.3l-.7.5.9.5-.2-1zm-.4 9.3l1-.4-.7-.6-.3 1zm-6.2-2.7l1.4 1.4.7-2.1-2.1.7z"/><path d="M182.8 136l1 .1-.6-.9-.4.8zm-8.2-2.9l.7-.1-1.2-1.6-.3.8-.4-.5h.2l-.7-.9 2.2.9-1-3.9-2.5 2.4.6.3-.5 1.6.6-.1.1.3.5-.5h.1l-.4 1.5-.5-.7-.6 1.9-.6-3.9-2.8 2.1 3.4 1.8v.1l1.8-.4-.2-.3 1.6-.4-.1-.4zm1.1-4.2l-.6-.3.3 1 .6-.6-.2-.1.6-1 1.2.7-1 .1.9 1.2.6-1.1.3.2-.1-.5.1-.1h-.1l-.3-2 1.5-.2.1.2-1.2.8 2.1 1.1.2-2.7-.7.4.5-.7 1.3.7-.3-1.7 1.7-.2-1-1.8-.7 1.7-.14-1.7-2.8 2.1 1.44.6h-1l-.5-.8-.6 1.5-.04-.87-2.8 2.1.64.17-1 .2 1 1.6zm15.1-3.7l.9.3-.1-.9-.8.6zm-6.3 1.7h.2l-.2-.3.1-.6-.3.2-1-1.6-1 2.6 2-.3.1.1.1-.1zm5.5-6.3l-.1-1 .1.1 1-1.4h-1.3l-.2-1.7-2.8 1.8.1.1-1.8 1.3v-.1l-3.1 2.3 2.6 1.3-.5 1.2 1.8-.2-.4-.7-.1-1.1.4.7 1-1.4h-1.5l-.2-2.1 2.3 1.3-.4-2.7 1.6 1.1h-1.2l.7 1.4.9-1.1.8.5-.8 1.8 1.9-.1-.9-1.7.1.4zm-7.9 13.1l.1-.9-.5.2v-.2l-.9.3.9.5v-.3l.4.4zm-.9-2.5l.2-1.5-1.6.5 1.4 1zm4.3-2.5l.1-1-1.1.3 1 .7zm-4.7 7.3l.1-.8-.9.3.8.5zm19.6-23.5l.7-1-1.1.1-.1-.7-1.6 1.1v-.4l-2.5 1.3.3.2-.8 1.4h1.2l.2.3-1.6.9-.1-2.5-2.4 1.4.7.5-1.2.1v-.4l-2.7 1.7 1.9 1.6-.7 1.9 1.8-.2-.2-.3 1.7.1-.7-1.5-1.1 1.2-.6-1.1.6.5v-3.2l.5.9.8-1.2 1.5 1.1h-.5l.5 1.1.9-1.1h-.9v-.6l1.6.9.2-1.6.1.2.6-1 .5.4v-2.4l.3.2-.3.7 1.2-.1h.1l-.1.3.5-.1.1.1v-.1l.6-.1-.7-1.2v.1-.4l.8.9zm-3.7 1.8l-.5-1.1 1.3 1-.8.1zm-1.2 4.2l2 .1-.7-1.5-1.3 1.4zm5.2-8.1l1.7.8-.1-1.6-1.6.8zm2.1-1l1.2.6-.1-1.1-1.1.5zm.4 1.5l.5-.7-.7-.1.2.8zm1.5-2.3l.6.6.1-.9-.7.3zm-9.6 15.4l.2-1-1 .3.8.7zm-6.3.5l.8-.1-.4-.8-.4.9zm3.9-7.9l.2.8-.3-.1.3.8.6-.6-.5-.1.5-.4-.8-.4z"/></g><g fill="#50297a"><path d="M194.9 143.4l-1.5-.2.5 1.7 1-1.5zm-2.1-3.5l-1.3 1.2 1.9.8-.6-2zm3.4.9l-1 1.5 2.1.4-1.1-1.9zm-1.5-6.3v1.7l1.4-1.1-1.4-.6zm1.4-1.4l-.1 1.2 1-.7-.9-.5zm-.6 6.4l-1 .2.8.7.2-.9zm-5.8-6.6l-.5.9.9-.1-.4-.8zm-4.5 2.3l-.5 1h1.2l-.7-1z"/><path d="M192 136.9l-.9-.2.2 1 .7-.8zm-6.5 5.2l-.9.4 1 .4-.1-.8zm7.6-6.8l-1.2.4.8.7.4-1.1zm2.8-4.8l-.5-.8-.4.8h.9zm4.1 3.48v1.2l-2.2.5-.1-.3-1.7 1.7 2.5 1-.6-2 1.5 1.2-.1.1-.5-.1.1.5-.4.4 1.6.7-2.1.5-.2-.9-1.3 1.2.4.2.8.6v1.7l.3-.3-.4.6 1.3.2-2.9.7 1.6 1.3-.7.6-.3-.8-.3.4-.2-1.1-1.2 1-1.1.1-.5-1.4-1.3 1.3 1.6.6.1.2-.3.1.5.5-.9.7-.2-.4-.5.7.9.2-.1-.2 1.3.6.1-2 .3-.8.9.4-.3.3.3.1-1 1.3 1.1.3.7.6-1.7 1.2 1.6.8.1-2 1.9 1.5-3.6 1 .7.6-1.7 1.2 1.6.8.1-2 1.9 1.4-1.3 1-.1-.3-1 1.1v-.3l.3-.3-.7-.3v.4l-2.5.7.4.3-1.7.7.4.4-.8 1.1 1.3-.1.5 1.1-.5.2.8.5-.6.6 1.9.6-.6.1 1.1.8.2 1.3-.7.1-.6-1.2-1 1.5 1.5.3 2.5 2.1.4-3.2.5-2.6h-.1l.3-2.4.1.1.3-2.8-2.4 1.5.4.2-.8.9 1.8.1-.2-.5.6.4-1.4.9-.3-.7-.7.8.1-.7-2.3.7.6-1.1 1.2.3-.7-1.5-.9 1.1h.1-.3l.2-2.1 2.1 1.5.3-2 1.6.1-.4-.9 1.3.7.1-1.7.3.2.5-3.4h-.1l.6-3.4-2.3.5-.3-.7.8.2-.3-.9 1.5.8-.2-1.1.9.7.5-3.1.1-.3-.2.1-.6-1.1.9.7.6-3.4h-.1l-.2-.9.4.3.6-3.4h-.2l-.14-.32-.76.52zm-5.8 26.2l.5.3-.3.1-.2-.4zm.7 2.7l.6-.7.5.4-1.1.3zm.8-3.8l1.5.9-2.4.5.1-1.4h.8zm-3.1-1.7l-.1-.1.1.1z"/><path d="M198.4 135.1l.8-1.6 1.8.1-1.2-1.8-.4.7-2.2.1 1.2 2.5zm2.5-11.4v2.1l1.7-1.3-1.7-.8zm-3.2 8.6l1-1.5-1.6-.1.6 1.6zm1.3-2.3v.1l-.8.2 1.2 1.1.1.3.1-.1 1.6 1.4.7-3.4-2.6.5-.3-.1zm-8.9 10.6l-.8-1-.2.6-.6.1.7.9.1-.7h.8v.1zm1 4.3v-1l-.8.6.8.4zm-4.4-6.5l.2 1 .6-.8-.8-.2zm8.4-1.1l.5-.9-.9-.1.4 1zm4.2-11.8l-1.3 1.2 1.9.8-.3-1.1 2.6 2.6 1-3.3-3.7.5-.2-.7zm4-1.3l.9-2.8-3.3.4 2.4 2.4zm-.5-5.4l1.6 1.6.6-1.9-2.2.3zm-9.6 20.6l.8-1.5-1.7.3.9 1.2zM191 150l1.3-.2-.6-.8-.7 1zm-3.5 5l.6-.7-1-.3.4 1zm-1.4-8.2l.1-1-.9.6.8.4zm-3.7-12.9l1.1.5-.2-1.2-.9.7z"/><path d="M188 137l-.2 1 .9-.5-.7-.5zm-7.6 3.4l.4-.8h-1l.6.8zm11.8 12.6l1.8-1.3-1.8-.8v2.1zm-6.9-9.8l-1 .3.8.6.2-.9zm4.4 1.9l.7-1h-1.2l.5 1zm4.6-5.8l-.6.7.9.4-.3-1.1zm.8 9.2l.9-.5-.7-.4-.2.9zm-1.8-26.3l-.3 1 1.2-.2-.9-.8zm7 .3h-.9l.4.9.5-.9zm-5.3 6.4l-.8.6 1 .2-.2-.8zm-7.5 19.9l1-.6-1.1-.5.1 1.1zm4.3 5.2l-.2-.3.5-.4-.9-.3v.4l-.4.7 1-.1zm1.6-5.2v1.5l1.6-.7-1.6-.8zm-6-5.5l.8-.6-1-.2.2.8zm-5.6-.2l1.2-.5-1.2-.7v1.2zm3.1 6.4h1.1l-.4-.9-.7.9zm5.5 4.3l-1.3 1.4 1.6.4-.3-1.8zm1.3-2.7l-1.4 1.4 1.6.5-.2-1.9zm-1.8.3l-1.1.2.6.8.5-1zm-2.2.2l.5-.9-1.1.2.6.7zm3.2-5.9l-.5.7.9.2-.4-.9zm2.8 7.5l-.8-.3v.9l.8-.6zm-1.2 1.2l-1.2-.2.3 1.3.9-1.1z"/></g><linearGradient id="G" gradientUnits="userSpaceOnUse" x1="190.4" y1="154.094" x2="271.5" y2="154.094"><stop offset="0" stop-color="#997ebd"/><stop offset=".406" stop-color="#7c59aa"/><stop offset="1" stop-color="#6629c8"/></linearGradient><path d="M190.7 206.5c0 .2-.1.9-.2 1.1v.1c0 .3-.1.4-.1.5v.1h81.1s-4.1-54.2-6.2-66-13.4-43.1-38-42.4c-2.1.1-8.9.2-15.1 6.7-6 6.2-9.5 19.2-11.9 32.6-2.1 11.7-9.6 67.3-9.6 67.3z" fill="url(#G)"/><linearGradient id="H" gradientUnits="userSpaceOnUse" x1="222.039" y1="179.674" x2="249.02" y2="161.145"><stop offset="0" stop-color="#6a4bb4" stop-opacity="0"/><stop offset="1" stop-color="#4f3282"/></linearGradient><path d="M212.5 123.8l6.3 53.3s10.8 0 14.2 10c3.3 9.7 5.4 21 5.4 21l33 .1-2.3-28.6-56.6-55.8z" fill="url(#H)"/><g fill="#be95f9"><path d="M206.4 144.4l.9-.7-1.2-.3.3 1zm-7.7 28.9l1 .3-.2-1.2-.8.9zm8.9-4.7l-.9.8 1 .4-.1-1.2zm-2.1-38.4l-.6.1.4.6.2-.7zm-3.2 23l-1.2-.3.2 1 1-.7zm9.5-8.3l-.5.3.5.4v-.7zm-.3 6.3h.5l-.2-.5-.3.5zm-.3-2.7l-.4-.1.1.4.3-.3zm3.1 1.1l-.3.2.3.2v-.4zm-7.2-15.2h-.7l.3.6-.2.4h.9l-.4-.8.1-.2zm-1.7-6.7v-.8l-.7.5.7.3zm4.6-.7h-.6l.3.6.3-.6zm-5.3 42.1l-.6.1.3.6.3-.7zm-6.2-.2l-.3.8h.7l-.4-.8zm8.2-7.2l-.7-.2.1.6.6-.4zm-5.1 13.1l-.4-1.3.3-.4-.9-.3.3 1-.2.3-.1-.2-.4.7h.3l-.1.1 1.2.1zm2.1-2.5l-.7-.3.1.6.6-.3zm.1-8.6l.4.4.2-.4h-.6zm-.1-2.6l.4-.2-.4-.1v.3zm-.2-5.5v-.5l-.4.2.4.3zm3.1-5.5l.1-.5-.4.2.3.3zm1.6 1.6l-.2.4.5-.1-.3-.3zm-5.8-1.6l.4-.1-.2-.3-.2.4zm9.5 5.9l.4-.4-.4-.2v.6zm-4.7.6l.8.1-.3-.9-.4.5-.1-.1v.4zm3.2 10.7l-.3-.3-.1.4.4-.1zm-1.5-4.2l-.5.1.2.3.3-.4zm-6.6 7.3h1.2l-.5-.9-.7.9zm-.5 2.6l-.3.6h.4l.1.4.5-.5-.5-.2-.2-.3zm-1.1 6l.1-.1.2.5.6-.6-.5-.1.4-.5-1.3-.4.3-.1-.6-.4-.1.8.5-.2.4 1.1zm1.5-1.7l-.5.3.4.2.1-.5zm-.9-10.5l-.7.4.6.3.1-.7z"/><path d="M204 149.2l-.3-.6-.4.5.7.1zm1 5.5l.5-.4-.5-.3v.7zm-3.8-3.9l-.4.5.7.2-.3-.7zM204 140l-.4.6.8.2-.4-.8zm1.5 7.4l.6-.5-.6-.3v.8zm-.8-6.6h.7l-.3-.7-.4.7zm1.2 2.3l-.1-.1.1-.1-.9-.3.3.9.6-.4zm-6.3 18.5l.4-.7-.8.2.4.5zm10.3-51.1l-.7.4.7.6v-1zm-2 5.2l.6.8-.3.1.6.4.2-.8-.4.2.4-.8h-.2l.1-.6h.7l-.1.1 1.3.8.1-.9h.2l-.2-.3.1-.6-.4.2-1-1.3 1-.7.4.2.3-1.7-.8.5-.1-.2-.2.3-.4.2-.8-.5.1 1-.3-.4-.3.7-.6 1h.2l-.7 1.5h.2l-.3.2.6.6zm.1-.1v-.3l.5.3h-.5zm13.8-14.7l.7.8.3-.9-1 .1zm-6.3 3.7l1.1-.2-.6-.8-.5 1zm-6.4 16.5h.5l-.2-.3-.3.3zm-1.7 2.3l-.8-.6.1 2.1 1.6-.9-.8-.6.1-.1-.2.1zm1.1-.8l-.4.4.6.2-.2-.6zm-1.6 5.9l-.5-.3v.7l.5-.4zm-8.4 61.9l-.2-1.2-.8.8 1 .4zm-.3-5.9l1 .3-.2-1.2-.8.9zm-.7 2.6l.7-.2-.6-.4-.1.6zm7.5 1.4l-.8.1.6.6.2-.7zm-4.4.2l-.2-.6-.4.6h.6zm5.1-6h-.8l.6.6.2-.6zm-4.3.2l-.2-.6-.4.6h.6zm4.4 15.2l.3-.7-.8.1.5.6zm-.8-5.1l.1.6.6-.3-.7-.3zm-.8 13.9l.2-.7-.8.1.6.6zm-.2-4.9l-.7-.2.1.6.6-.4zm-1.5 2.7l.3-.7h-.8l.5.7zm-4.6-.6l.6.1-.2-.6-.4.5zm3.8-4.6l.1.6.6-.4-.7-.2zm-3.2-2.9l-.1-.2-.4.7h.3l-.1.1 1.3.2-.5-1.4-.5.6zm3.1-1.8l-.7-.2.1.6.6-.4z"/><path d="M197 191.9l.2.8.7-.6-.9-.2zm3-.6l-.4-.6-.4.7.8-.1zm-7.3 14.5l-.1-.7.6-.4-.6-.2v-.1l-.1.1-1.2-.4.3 1.8.5-.3.6.2zm5.8-5.7l-.1.1-.3-.1.3-.1-.6-.4-.1.5-.4.7.9-.1-.1.2h.3l.3.7.8-.9-.8-.2-.2-.4zm-.3.3l-.1-.2.1.2zm.5-6l.7-.1-.1-.1h.4l-.3-.5-.2.3-.1-.1-.4.5zm1.3 5.4l-.5.3.4.2.1-.5zm3.2-7.8l-.5.7h1l-.5-.7zm-3.4 4.4l.5-.5-.5-.2-.1-.2-.1.1-.3.4h.4l.1.4zm-.6-7.1l-.7.4.6.4.1-.8zm2-35.5l-.2-1.2.2.2.4-.7-.6.1v-.1l-.1.2h-.1l-1.1 1.1 1.5.4zm4.8-.1l1.2-1.4-.3-.1.6-.1-.7-1.1-.6.9-1-.3.8 2.1zm-3.1 14.4l-2-.6.8 2 1.2-1.4zm-1-2.2l.5-.1-.2.3.6.1-.2-.6-.1.2-.1-.1.5-.5-.9-.3.2.5-.4.6-1.5-.6v.1l-.2-.1-.1.6.2-.1v1.1l-.7.7 1 .3-.1-.8 1.4-1.2.1-.1zm3-8.8l-.4.4-.5-.9-.2.5-.3-.1v.7l.2-.1h.7l-.8.8.3.1-.3.1.5.4v-.5l1 .3-.2-1.2h.3l-.2-.3-.1.2v-.4zm1.3-6.8l-.3-1.7-1.2 1.3 1.5.4zm-2.7 10.6v-1.2l-.9.8.9.4zm-.2-6.5l1-.3-.9-.6-.1.9zm6.4 5.5l-.2.1.4.2.3-1-.9.1.4.6zm4.4-2.5l.3-1-1.2.1.9.9zm-1.3-7.6l.1.9.9-.5-1-.4zm3.2 20.4l.4-1-1.2.1.8.9zm-6.4-1.7l-.5.8.9.1-.4-.9zm5.1-5.9l.1.8.8-.5-.9-.3zm-1.1 20.5l.3-1-1.2.1.9.9zm-.3-7.2l-1-.4.1.9.9-.5zm-1.7 3l-1.2.1.4.5h-.7l.8.9.2-.5v.1l.5-1.1zm-6.6-.2l.3-.2-.4-.2v-.1l-.1.1h-.1v.3l-.6.8.9.1-.1-.3h.4l-.3-.5zm4.9-6.5l.1.6-.2-.1.1.9.8-.5-.5-.2.5-.3-.8-.4zm-6.1 12.6l1-.5-.9-.8-.1 1.3zm4.4-6.4l-.6.7 1 .2-.4-.9zm-2.3-11.5l-.7 1.1-.2-.3-.6 1h.4l-.1.1 1.9.2-.7-2.1zm3.8-1.7l-1-.3.2.9.8-.6zm-10.4.4l.1-1-.1.1.1-.3-.8.1.1.1-.5.1.5.4-.1.1.7.4zm6.9 4l-.7.2-.2-.3-.2.4v-.2l-.3.3h-.1l-.9.9 1.5.4-.1-1 .7.7.3-1.4zm-2-8.2l-1.4-.3.1.4-.9.8 1 .4v-1.1l.2.8 1-1zm2.2-1.7l-.6 1.1 1.2-.2-.6-.9zm-5.5-2.1v-1l-.8.6.8.4zm1.7 3.4l-.9-1.4.7.3-.1-1.2-.8.7-.4-.6-.9 2.7 2.4-.5zm-3.7 14.9l.9-1.2.3.1-.1-.2.4-.5-2.6-.7 1.1 2.5zm3.7-.7l-1.8.3 1.1 1.7.7-2z"/><path d="M201.1 172.6l.2-.7h.2l-.1-.2h.4l-.3-.5.2-.6-1.7.4 1.1 1.6zm-1.6-9l1.5.4-.1-.6.1.5.2-.1h.3l-.1-.3.5-.4v1.5l1.6-1.3-1.7-.7v.6l-1.1-.2v-.1h.6l-.4-.7-.2.6v-.2l-1.2 1zm-1.97-.1h0l-.3.4 1.5.4-.2-1.4 1.4-.4-.6-.4v-.5l-.3.2-.8-.6 1-1.2-1.6-.5.7-.2-.1-.1.5-.1-.5.5 1.5.4-.1-1.1 1-.2-1.5-1.2.3-.3.1.3.9-.7-.5-.1.2-.3-.8-.2.3-.6 1.1-.3.3.7.6-.7.6.2-.2-.6.2-.2-2-.6.2.5h-.2l-1.1-.7v-.8l.1.1 1.2-1.3-1.6-.5.3-.1.2.2.2-.4 2.4-.7-.5-.3 1.2-1.4-.3-.1 1-1.3-.5-.1.5-.5-2-.6.3.8-.6-.2.1-.1-1.6-.5 1.7-.4-.5.3.6.4.1-.7 1.2-.3-1.7-1.4h.1l.6.2.1.1.3.1-.1-1.2-.1.1-.3.2.1-.4-1 .2.5.4-.1.1-.5-.4v.2l-.9-.7-.6 3.4.4-.1.4 1 .1.5.1.4.4-.5.3.2.1-.7.1-.1.6 1.4-.7-.2v-.2l-.4.2.4.4.6 1.7-1.5-1.1.2-.1-.5-.3v-1l-.72.23-.48 3.17.6 1.5-.5.4-.34-.52-.45 3.16.5.06.2.5-.3-.1.2.5-.62-.7-.5 3.35.12-.05v.1h.1l.6 1.4-.9-.86-.44 3.8 1.43-.94-.6.7zm1.3-7.9l.3.4-.8-.2.5-.2zm-.4 1l.2.5-.4-.3.2-.2zm11.37-4l-1.2.1.9.8.3-.9zm-2.3-2l-.1 1 .9-.4-.8-.6zm4.4 2.9l-.5.8.9.1-.4-.9zm-14.6 15.1l-.1.5.3-.1.2.5.9-1 .8 2-.7.5.4.2h-.5l.5.5.2-.5.3.2v-.6l.4-.5.2.1v-.4l.8-1-.6-.2-.7-.5v.3l-1-.3.1-.1-1.1-.3.4-.4 1.6-.4-1-.8.4-.1-.7-.5v.3l-1.9-1.4-.5 3.4.8-.2.5.8zm-1.2 4.8l-.3.3 1 .3-.1-.8.3-.1.4.5.3-.7 1.1-.3-2-1.5h.8l-.6-1.2-.1.2v-.3l-.3.3V169l-1 .8.4.2-.4.3v.1l-.3.2.2.1-.5 3.1 1.1-.4zm.6-2.5l-.2-.1.2.1zm-.1-.7l-.1.1v-.2l.1.1zm9.9-6.5l-.3.5-.1-.2-.5.8 1-.1-.1-.2h.5l-.5-.8zm2.1-2.7l-1 1.4 1.7-.1-.7-1.3zm-3.4 12.4l-.1-.2-.1.1-.4-.1.4-.2-.9-.6-.1.6-.3-.4-.7 1.3h.2l-.5 1 1.5-.2-.6-.8.9-.2-.2-.2.3-.1.2.5-.3.5.5-.1.4.9 1.2-1.3-1.4-.5zm2.3-.8l-.7.5.6.3.1-.8zm4.7-11.5l-.8 1.1 1.4-.1-.6-1zm-5.1 6.5l.7-.7-.8-.3-.1-.1.1-.5h-.8l.4.5-.4.6.6-.1.3.6zm-.9-10.4l-1 .6.8.5.2-1.1zm2.8-26.4v-1.7l-1.4 1.1 1.4.6z"/><path d="M209.1 130.6l.5 2.1 1.3-1.2-1.8-.9zm-5.8.4l1.4-1.2-1.1-.5 1.7-.3.5 2 1.4-1.2-1.7-.8.6-.1-2-1.8-.1-.9-.5.4-.4-.3 3.3-.6.3 1.1-.9-.4.2-.3-.8.1.1.2.4 1.9 1.4-1.2-.3-.2 1.3-1.2-1.9-.8.1.2-1.9-1.7 1.1.3v-.3l.6-.1-.5-.4-.1.5-.2-1 2.5-.3-2.1-2.1.3-.2v.3l1.5-1-.2-.1.2-.5h.1v.2h-.1l.2.2.2 1-.7-.4.4 2.1 1.4-1.1-.3-.2 1.2-1.1-.4-.2.5-.4-.2-.1 1.3-.6-1.4-1.1-.4 1.4-.8-.4v.1h-.1l-1.64-2.55-1.4 3.2.44.05.1 1.3-.7-.2-.3-.3-.1.2-.9 3.1.5-.1-.4.4.3.1-.2.2-.1-.3-.7 3.4-.1-.1-.8 3.4.6-.1.3 1.4zm5.3-12.6h0zm-1.8-.1h0zm-1.2 28l-2-.6.8 2 1.2-1.4zm-1-3.5l1.6-1.3-1.7-.7.1 2zm-1.6 2.7l.6-.5h.8l-.2-.5.4-.4-1.7-.7v2.1h.1zm3.2-8.9l1.5.5-.3-1.8-1.2 1.3zm4.1-7.3v-1.7l-.7.5-.7.6 1.4.6zm-3.9 8.2l-.9.8.4.1.5.5.1-.4h.1l-.2-1zm-.1-5.3l-.5-.3-.1.6.7-.2-.1-.1 1-.2-.9-.6-.1.8zm6.8 4.9l-.9.1.6.8.3-.9zm-1.7 7l.8-.6-1-.3.2.9zm-3.8 1.8l-.7 1h.4l-.1.2.3.1-.2.4h.7l-.1-.4 1.3.2-.7-2.1-.7 1-.2-.4zm-4.2 6.1l.3-.4.7.2.1.3.2-.2.2.1-.3-1.7-.9 1-.7-.2.1.2-2-.6.5 1.4-.1.1h.2l.2.4.3-.3.9-1 .3.7zm3.8-3.8l1.2 1.1.3-1.4-1.5.3zm-1.3-7.7l1-.9-1.4-.3.4 1.2zm-4.7 16.9l.4 1.2.1-.1.1.3 1.5-1.9-.6-.2.2-.1-.5-.3v.3l-1.6-.5.5 1.3h-.1zm-2.6 29.5l1.6-1.3-1.7-.7.1 2zm-1.7.9v2.1l1.7-1.3-1.7-.8zm3.6-6.8l1.5.5-.2-1.6.2-.2-.6-.2v.5l-.1.1-.5-.8-.4.9h.8l-.7.8zm-1.2 2.1l1 .4v-1.2l-1 .8zm1-6l1-.3-.6-.4-.2-1.2-.8.9.7.2-.1.8zm6.6 5.2l.6.1-.3-.9-.4.7-.7.1.5.8.3-.8zm5.6 10.9l.4-1-1.2.1.8.9zm-6.3-1.8l-.5.8.9.1-.4-.9zm5.3-5.8l.1.8.9-.5-1-.3zm-1.7 20.5l.4-1-1.2.1.8.9zm-6.3-1.9l-.6.8.9.1-.3-.9zm5.2-5.8l.1.9.8-.5-.9-.4zm-1.3 4.3l.4-1h-1.2l.8 1zm-6.9-1l.9.1-.3-.9-.6.8zm5.9-6.7l.1.9.8-.5-.9-.4zm-6.4 11.2l-.2-.5-.4.6.5.1-.1 1 1-.4-.8-.8z"/><path d="M195.7 202l-.8-.3.4 1.2.6-.6.3.3.4-.9-.9.3zm8.2-.2l1 .2-.4-.9-.6.7zm-.8-10.1l-.6-2.1-.6.9h-.3l-.1-.2-.7 1h.4l-.1.1 2 .3zm3.3-3.7l-1-.4.1.9.9-.5zm-9.1 8.4l.6-.7-.9-.3.3 1zm5.5-4.1l-1.2.2v-.2l-.3.3-.4-.6-.7.9h.9l-.8.7 1.5.5-.1-1 .7.7.4-1.5zm-2.9-7.4l1-.9-1.4-.3.4 1.2zm3.2-2.8l-.6 1 1.2-.1-.6-.9zm-4.5 5.1l.4.9.6-.6-1-.3zm-4.3 8.6l1 2.6.8-1 .1.2.8-.9-.2-.1-2.5-.8zm2.9 2.3l1 1.7.5-1.4.3.3.2-.9-.8.2v-.1l-.1.2h-.1v.1l-1-.1zm-.7-4.6l.5.8-.4-.1.2.6.3-.3.4.7.7-2-1.7.3zm-2.3-1.5l.7-.8.2.1v-.3l.8 2-.7.4.8.4v-.6l1.4-1.7.2.1v-.2l.3-.1.3.9 1.2-1.4-2-.6.2.5h-.1v.1l-.6.5-1.7-.5.1-.1-.3-.1v-.6l-.3.3-.9-.3 3.1-.7-3.1-2.6-.6 3.4.5-.1.5 2zm0-9.6l-.5 3.4 1.3-.3-.7.8v.1l-.1.6.6-.3-.3-.2 1.1.3.2.5-.2.1.1-.4-1 .2.5.4-.1.1.8.4v-.6l.2.5.8-.9-1.2-.4-.2-1.3 1.5-.4.1.1-1 1 1.5.4-.2-1.2.1.1.1-1.6 1.4-.2-1.2-1.9.5.3.1.2.1-.1.5.3.1-.9.2-.2h-.1l.1-.8.4-.5.3.3.4-.9-.5.1.1-.1-.6-.3v.2l-1.8-.5-1-.7v-.2l.4-.5v.1l.3-.4.1.3.1-.1v.7h-.5l.4.5.1.1.1-.3 2.1-1.5-1.7-.8.4-.5-.4-.1v-.5l-.5.3.1.1-1.1-.3-.1-1-.2.2-.5-.3-.1.7.5-.2-1.2 1.1.6.2.5.5.1-.3.2.1.2.4-1-.3.7 1.7-.8-.6h.4l-.2-.6-.3.5-.2-.2-.2 1.8-.2-.2-.6 3.4h.1l.4.9-.4-.4zm1.5.6l.8-.6.2.1v-.1l.1.2.6-.7-.7 2.1h.2l-.5.3-1.1-.8.4-.5zm-.5-1.4l.2.1v-.1l.5-.1-.3.3-.4-.2zm2.6-.3l-.2.1.1.1-.1.2-.9-.3v-.1l1.1-.3-1.4-1.1.4-.1.3.1v.4l.3-.3h.1v-.1l.2-.2-.2-.1v-.1l.3-.1.2.5h-.1l.3.9-.2-.1.1.3-.3.3zm-2.9.4l.1.3-.7-.2.6-.1zm-2 22.2v-.7l.6-.8-.5-.2 2-.6-1.6-1.2v-.4l.9-1-.3-.1.3-.4-.3 2.5 1.4-.9.1.4.4-.5-.3-.1.7-.4-1.6-.9v-.6l.1-.1-1.3-.4.2-.3.2.1v-.3l.4-.5-.4-.1v-.6l2.1-.5-1.2-1v-.1l-.1-.1-.7-.5h.5l-.5-1.1v-.9l-.3.2-.1-.1-.1.2-.7.5.8.4-.3.5-.5-.4-.6 3.4.6-.1-.6.5 1.1.4.2.5-.3-.1v-.1l-.1.1-.8-.2.2.6h.1l.3.7-.1.2h.2v.1l-.7-.2.6 1.6-1.1-.8-.4 3.4.7-.2-.7.7 1.5.5zm2.8-.9l-1.7 1 .4.3-.3-.1.3.8.4-.4.6.4.1-1 .1.3.4-.4-.5-.1.2-.8zm-1.9 4.9l.3-1.9-1.8 1 1.5.9zm3.2-6.9l.3.9.6-.6-.9-.3zm6.2-14.6l-.3.4-.1-.2-.5.8 1-.1-.2-.2h.6l-.5-.7zm2.2-2.6l-1 1.4 1.8-.1-.8-1.3zm-2.4 12.7l-1.3-.4-.1-.2-.1.1-.4-.1.4-.2-.9-.7-.1.6-.7 1.1 1.3-.2-.2.3.5-.1.1.2-.3.5.5.1.1.2 1.2-1.2zm-2.1-.5l.2-.1.2.5-.4-.4zm2.3-.1l.6.3.1-.8-.7.5zm5.7-11.9l-.8 1.1h1.4l-.6-1.1zm-5.2 5.4l-.2-.3-.1.2-.4.6h.6l.2.5.7-.7-.8-.3zm-.7-9.5l-1 .6.8.6.2-1.2zm5.8-41.5h-.1.1l-.1.1h.1l.4.3v-.4l.7-.1-.6-.9-.5 1zm-5-3v-1l-.8.6.8.4zm.1 1.6l-.9 2.7 1.5-.2v.1l.8-.2-.1-.1h.2l-.8-1.2h.2l-.2-.3-.1.2-.6-1zm2.4-2.3l-2.6-.7 1.1 2.6 1.5-1.9zm5.9-4.3l-.7-.6-.3 1 1-.4zm-12.3 11.4l.3-.1-.1.9 1.1-.4h-.1l.6.2-.2-1.1 1.3-.3-.7.7 1 .3v.2l.4-.1h.4l-.3-.3-.2-1.3-.2.2-.8-.6.5-.4-.8-.2.1.5-.4-.3-.1-.3-.1.1-.3-.2.1-.1-.2-.1.8-1 .4.1-.1-1.1 1.2-.3.3.1-.1-.1.3-.1-.3-.3.2-.2-.7-.2-.6-.5v-.2l-.2.1-.3-.3 1.1-1.3-1.4-.4 1.8-.3.2.4.4-.5.5-.1-.2-.2.5-.6h-.1l.3-.6-.7.1v-1.3l-1.4 1.1 1 .4-.7-.2-1.24-1.28.7-.2-.6-.5-.1.6-.62 2.7-.24.68.2.7-.3.2-.82 3.38.22.72-.27-.1-.43 3.3zm.6 0l-.2-.1.4-.1-.2.2zm4.4-9.9l.1.2h-.1v-.2zm-3.1 1.8h0-.1.1zm.2.9l.1-.1.3.7-.4-.3v-.3zm-.4 2.9l-.3.3-.4-.1.7-.2zm9.6 1.8l-1 1.4 1.8-.1-.8-1.3zm-1.3 6.1l-.4-.7-.6.8 1-.1zm-.8-2.4l-.1-.2h.5l-.4-.7v-.1l-.6.3.1.1-.4.7.9-.1zm0-17.7l1.6-.9-1.7-1.2.1 2.1zm1.6-11.9l1.7.2-.6-1.8-1.1 1.6zm3.5-6.6l-1.1 1.6 1.7.2-.6-1.8zm.4-2.4l-.7 1.9-.2-.3-.1.2-.2-.9-1 1.2h-.2l.1.1v.1h.1l.4.4-.1.1h.2l.2.2.1-.2h.3l-.2-.2.6.1-.1-.4.4-.1-.2-.2 1.7-.5.3.3.8-1.5-1.8.3-.4-.6zm3.4-1.2l1.3-.3-.7-.9-.6 1.2zm2.5-.7l.5-1.2-1.2.4.7.8zm-3.4 1.6l.3-1.5-1.4.7 1.1.8zm-6.2 4.02l1 .88.1-.2.5.9.5-.7-1-.2.3-.7.6.7.4-.9-1 .1.2-.6-1.6.72zm.1.98v-.3l-.2.1-.2-.4-.9 1.4 1.8.3-.5-1.1z"/></g><g fill="#50297a"><path d="M241.8 182.4l-.1-.5-1.2 1 1.6.8-.1-.5.5-.3-.7-.5zm-1-2.9l.3 1.4 1.6-1.3-1.2-.3-.2-.8-.6.6h-.1v.1l-.2.2.4.1zm13.2 21.9l-1.2-.2.5 1.1.7-.9zm-25.5-31l-.3 1.1 1-.1-.7-1zm2.3 7.1l.6-.8-1.2-.2.6 1zm-1.8.1l.7-.2-.3-.4.5-.2-1.9-1v1.8l1.3-.6-.3.6zm-1.4-1.4l-.6.3.6.4v-.7zm-1.5-10.3l-.6.3.6.4v-.7zm1.2 1.4l-.6.3.6.4v-.7zm10.3 16.2l.2-.6 1.6-.7v.1l.1-.1.2-.4h-.8l.2.3-1.4-.7v1.7h-.5l.4.4zm2.8 4.9l.4-.2-.4-.3v.5zm-2.5-.2h-.4l.2.4.2-.4zm-6.2-13.5l-.4.6h.4l.2.7h-.3l.3.7.6-.6-.5-.1.5-.4-.7-.4h.1l-.2-.5zm-2.2 5.1l-.6.2.4.5.2-.7zm23 19.4l.2-.8-.7.4.5.4zm3.3-2.6l.5-.3-.6-.3.1.6zm-6.3-9.2l.3.4.1-.5-.4.1zm.2 2.9l-.4-.2v.4l.4-.2zm-6-3l.4-.2-.4-.2v.4zm-1.5 5.1l.5.1-.2-.5-.3.4zm4.3 2.4l.2.3.2-.4-.4.1zm.3-4.1l.3-.1-.3-.3v.4zm3 10.8l.4-.1-.3-.3-.1.4zm9.7-1.2v.6l.6-.3-.6-.3zm3.2 6.9l1.1-.6-1.2-.8.1 1.4zm-17.3-16.7l.2-1-1.2.3 1 .7zm3.4 2l.1-.1-.4-.1-.1-.1v.1l-.5-.1.3.8-.2.6 1.4-.5-.6-.6zm20.8 14.3l1.9-.3-2.4-2.2v.1l-2-1.8-.4.8h-.3l-.2-.4-.3.4-1 .1-.2-.8.6-.2.7.1-.2-.3.8-.3-2.4-2.4-.4 1-.3-.1-.4-.7 1.1-.2-1.8-1.8-.1.3-1.7.1.7 1.2h-.2l-.5-.2v.2h-.1l.1.2v.1l.4.7.1-.2.2.3-.3.5 1.7.2-.1-.2.6.1.1.2-.4.9h-1l-1.3-.7.3 1.4.4-.3.2-.1.7 1.2.5-.7.1.2.2-.4.9-.3-.5.6.9.2.8 1.1h-.1v.1l-.7-.5.1 1.2-.8 1.2 1.8.2-.8-1.4.7-.4.3.7-.3.2 2.5 1.7-.1-2.4.3.2.4-1.6h.2l-.5 2.2-.1.1h.1l-.1.2.5-.1.7.2.4.6zm-7.8-6.2l.1-.2h-.3l.4-.6h-.5l.9-1.3-.2 1.1-.2.4h.2v.2l-.1-.1-.3.5zm.4-.3l.8-.1h.2l-.6.9-.4-.8zm5.3 5.1l-.2.1-1.5-.4.7-1.3-.5.9 2-.2-1.2.3.7.6zm-12.2-3.8l.8-.4-.8-.4v.8zm5.2 1.3l-.2-.8-.1.2-.3-.4-.8 1.2-.2-.8-.1.1-.2-.5-.4.5h.6l-.4.4.8.4 1.7.3-.4-.6zm-5.2-4.9l-1.2-.1.6 1 .6-.9zm2.1 5l.6.4-.1-.7-.5.3z"/><path d="M254 203.6l-.7.4.6.4.1-.8zm2.9-1.9l.5-.4-.7-.2.2.6zm-5.7-1.4h.7l-.3-.5-.4.5zm8.5 6.9h.7l-.3-.5-.4.5zm-5-7l-.5.3.4.3.1-.6zm2.2-1.5h0l.4-.4h-.1l1.4-.4-.3.5 1.3.1-.5-.1.6 1 .6-.9 2.1-.6-2.2-1.9-.5 2.4-.7-1.1.9-.9-1.3-.2 1.4-.4-1.9-2-.2.5-.2-.6.3-.1-2.2-2.3-2.1-2.3-.4.9-.5-.1-.4-.5v-.1h.1l.2.1v-.2l1.1-.3-1.8-2-.3-.3-1.1-1h.2l-2.3-2.7-.1.1-2.1-2.7-1.9-2.4-.2-.3-.1.2-1.2-.3 1.2-.2-2.1-2.8-.1.1-.2-.1h.4l-2-2.8-.1.2.1-.5-1.4.6.8.8-1.2 2-.2-.1h.1l-.3-.2.2-.9.5.2-.6-1.6.8-.7 1-.1-1.9-2.9-.2.3-.2-.8-2.5 1.4 2.2.2-.3.5-1.1.3.6.5-.4.7-.2-1-.8.7-.1-2-2.4 1.4h.1l-1.9 1.2.7.5-1 .1v-.5l-2.2 1.4-.2.1.6.4v-.3l1.9 1.5v-1.6l.4.7.6-.8h-.2l.5-.8 1.5 1v-.5l1.4.5-.1-1.5-1.3.8-.1-1.7 2 1.3v-.7l1.2.5-.2-.7 1.3-.1-1.2 1.3 1.2.4-.8.2 1 .8-1.1-.6v1.8l-1.2.5 1.3 1.1.1-1.7 1.1-.5.1 2-.4.2-.2-.5-.6.6 1 .3-.1-.4.8.4.1-.8h-.1l2.2-1-1.5-.7 1.5-.2.1.1v.8l1.6-.7-1 1.8-.8-.5v1.3l-1.8-.9v1.8l1.8-.8v.4l.4-.2 1-.2 1.3 1.1v-.4l.2.8 1-.8-1.4 2.6 2-.3v1l-.8-.3.1.5-.9-.6-.1 1.6-1.4 1.3-1.4-.6.1 1.8 1.5-.8.8.2-.2 1.6 1.7-.7-1.4-1.4-.4-.8.9-.4.1.4.3-.2.2 1h-.3l.3.4v-.1.2l2-1.2 2.1-.3-.9 1.9-1.2-1.1-.2 2.1.4-.1.5.4-.1.2h.2l.2.2.1-.2 3.2-.6-.1 2 1.3-.6-.4 2.3-.3-.1v1.1h-.4l.4.6v-.1.1l.8-.6.3.1-.3 1-1.6-.4.4 1.8-.2-.3-.3.5h.7l-.2-.3 1.2-.9.8-.2-.2.4-.3.3h.4v-.1l1.3-.4.6.3-.1-.5 1.4-.4-1.5 2.8 2.8-.5-.4.4.6.2-.3 1 .7-.3-.4.9-.8.8.5.2-.1.9-1.1-.5.4 1.9.5-.5.3-.1zm-26.7-25.2v-.6l.5.7-.5-.1zm16.1 7.1l-.3.6-.7-.4 1-.2zm-.5.9l-.4.7-.8-.3 1.2-.4zm-.5 1l-.2.4-.3-.1.5-.3zm6.6 7.2l-.1.1h-.1l.2-.1zm6.6 8l.2-.1.1-.1-.1.3-.2-.1zm.1-.6l-.2.5-.9-.7-.1-.3h.1l.4.5.3-.6h-.2l.3-.1.3.7zm-5.7 1h.4l-.2-.3-.2.3zm-9.6 0l-.3.4.5.1-.2-.5zm4.5 2.7l.2-.4-.4.1.2.3zm-.3-4.8v.4l.3-.1-.3-.3zm3.9 11l.4-.1-.3-.3-.1.4zm-.8-4.2v-.4l-.4.2.4.2zm-2.8-6.8l.7-.4-.8-.3.1.7zm4.6.7l-.2-.7-.4.6.6.1zm-3.1-5.4l.4.5.2-.5h-.6zm11.6 13.8v.6l.6-.4-.6-.2z"/><path d="M258.7 204.4l.1 1 1-.6-1.1-.4zm3.4-.2l.1.6.6-.4-.7-.2zm-5.3 2.5l.8-.5-.8-.3v.8zm2.5-5.4l-.8.1.5.6.3-.7zm.7-1.4l.7-.3-.5-.5-.2.8zm-24.6-13.5l-.7-.4.1.8.6-.4zm-4.6 0h-.6l.3.5v.1l.1-.1.3-.1-.2-.1.1-.3zm9.3-2.6l-.2-1-.6.8.8.2zm-6.8 8.2l.4-.2-.4-.3v.5zm-.4-2.7l-.1-.4-.3.3.4.1zm-2.2 2.9l.2-.4h-.4l.2.4zm-7.2-25.3h-.6l.4.6.2-.6zm2.6 5.5l.4-.2-.4-.3v.5zm-.9-2.7l.4.1-.1-.4-.3.3zm-1.8 2.9l.2-.4h-.4l.2.4zm13.9 15.7l.1-.5-.4.1.3.4z"/><path d="M236.7 190.9l.4-.2-.4-.2v.4zm3-2l.4.1-.1-.4-.3.3zm-4.2 9.1l.4-.2-.4-.3v.5zm-.8-2.7l.4.1-.1-.4-.3.3zm-2.1 2.6l.2.4.1-.4h-.3zm6.8-3.5l.1-.5-.5.1.4.4zm-.5 2.6l.4-.2-.4-.2v.4zm3-2l.3.1v-.4l-.3.3zm-17-13l.4-.2-.4-.3v.5zm-.5-3.1l-.3.3.4.1-.1-.4zm-2.4 2.9l.2.4.1-.4h-.3zm7-4l-.5.1.3.4.2-.5zm-.7 3.1l.4-.2-.4-.2v.4zm3.4-1.8l-.1-.5-.3.3-.8-.2.4 1 .6-.7.2.1zm-4.6 9l.4-.2-.5-.3.1.5zm-.4-2.7l-.1-.4-.3.3.4.1zm-2.3 2.9l.2-.4h-.4l.2.4zm6.8-4.4l-.5.1.3.4.2-.5zm2.3 1.2l.4.1-.1-.5-.3.4zm7.4 19.9l.4-.2-.4-.3v.5zm-.9-2.7l.4.1-.1-.4-.3.3zm-1.8 2.9l.1-.4h-.3l.2.4zm6.6-3.8l.1-.5-.5.1.4.4zm-.6 2.6l.4-.2-.4-.2v.4zm3-2l.3.1v-.4l-.3.3zm-3-8l-1.4.4 1.2.9.2-1.3zm-.8-6.9l-.8.3.7.4.1-.7zm-2.4 4.4l-.3-.6-.4.5.7.1zm-3.7 11.2l.1-.7-.8.3.7.4zm-4.3-1.6l.5-.5-.6-.2.1.7zm1.3 5.1l.7.1-.3-.6-.4.5zm5.4-25.1l.1-.8-.9.4.8.4zm-5.2-1.9l.6-.6-.7-.3.1.9zm1.5 6.2l.8.1-.4-.7-.4.6zm.4-3.5l.1 1 .7-.5-.8-.5zm-1.4-4.4l.8.1-.2-.7-.6.6zm-3.3 5h-.7l.4.7.3-.7zm-4.9 16.9h-.6l.3.6.1-.1.3-.1-.2-.1.1-.3zm2.5 5.5l.4-.2-.4-.3v.5zm-.8-2.7l.4.1-.1-.4-.3.3zm-1.8 2.9l.1-.4h-.4l.3.4zm-3.6-4l.4-.2-.4-.3v.5zm-.8-2.7h.4l-.1-.3-.3.3zm-1.8 2.9l.2-.4h-.4l.2.4zm6.6-3.9l.1-.5-.4.1.3.4zm2.4.6l.4.1-.1-.5-.3.4zm3-3.1l.1 1 .7-.4-.8-.6zm-5 1.3l.3-.7h-.7l.4.7zm7.7-14.2l-.4-.7-.3.4v-.3l-1 .3.7.5-.8.7 1.2.2-.2-.8.1-.5.7.2zm10.5 11.1v-.7l-.8.3.8.4zm3.6 4.1l.2.1v-.4l-.2.1v-.2l-.7.4.7.3v-.3zm-6.6-7.8v-.7l-.7.3.7.4zm-5.9-5.8l-.2.8.8-.3-.6-.5zm16.4 19.1l-.2.8.8-.3-.6-.5zm-11.9-10.8l.4-.5-.6-.2.2.7zm2 4.4l-.3.5h.7l-.4-.5zM232.7 179l.6-.3.2.6.5-.5-.6-.2.9-.4h.4l-.5-1.1-.3.6-1.2-.6v1.9zm0-2.4l1.9-.9-1.9-1v1.9zm2.7-2.7l-.9-.1.5 1.1.4-.4.3.4.1-.9.1-.1h-.1v-.2l-.4.2zm3.9 4.9l-.6.9 1.1-.1-.5-.8z"/><path d="M229.6 184.6l.8-.8-1.2-.1.4.9zm5.4-4.9l-.7.5.9.5-.2-1zm-.5 8.3l-.3 1 1-.4-.7-.6zm-6.7-15.3l.4-2.1-.9.3.3-.3-.8-.3.1.7-.4.1 1.3 1.6zm7.7 11.4l-.3.5 1.1.1-.4-.5.5-.6h-1.2l.3.5zm-2.2.1l-.7.5.9.5-.2-1zm2.8-3.8l1.5.1-.6-1.6-.9 1.5zm11.8 8.4l1.2-.4v1l1.4-1.1-1.4-.6-1-1-.2 2.1z"/><path d="M244 189.2l.7-1-1-.1.3 1.1zm.4 5.6l1 .4-.1-.9-.9.5zm-6.8-3.7l.8-.4-.7-.7-.1 1.1zm-11.3-6.3l1.1-.4-1-.6-.1 1zm6.7-1.3l.3-.9-.9.2.6.7zm-3.2 7.2l-.3-.8-.7.7 1 .1zm15.7-1.8l1.6 1.5.2-2.2-1.8.7zm-9.7.7l-.6-.7-.5.9 1.1-.2zm3.7-2.7l-.2-.9.1-.1v.2l.9-.3-.7-.7-.1.7-.5-.2.1.5-.5.6.9.2zm-1.2-6.3l.9-.4-.9-.5v.9zm6.7 3.9l.7.7.2-1-.9.3zm-24.8-16.4l.7.8.4-1.1-1.1.3zm3.5-5l1 .2-.5-.9-.5.7zm-2.4 8.9l.7.8.5-1.1-1.2.3zm3.4-5l1 .2-.5-.9-.5.7zm3.2 8.2l.4-.1-.2-.1.5-.4-.8-.3v.5l-1.3-.8-.1 1.8 1.5-.6zm-4.7 10l.4-1.1-1.2.3.8.8zm3.3-6.6l-.5.7 1 .2-.5-.9zm2.5 7.9l.1 1 .8-.7-.9-.3zm14.7 12.7l-.2 1.2 1-.3-.8-.9zm-3.5-3.9l.5-.8-1 .1.5.7zm8.8.2l-.3-1-.6.7.9.3zm-3.2-7.8l.5-1.6-1.6.6 1.1 1zm-9-1.3l-.8.6.8.4v-1zm-4.1 5l.4-1.2-1.3.4-.2-.7-.6.6.8.1.9.8zm6.8 2l.8-.8-1-.3.2 1.1zm13.8 1.4l.2-.2.1.4-.5.2.4.3.1-.5.2 1.3 1.3-1-1.5-.8 1.1-1-.7-.1.3-.4-1.2-.2.3.5-.8-.1.7 1.6zm-1 .2l-.5-1.7-1.1 1.1-.4.5h.7l-.2-.5 1.5.6zm-5-4.3l-.9.5.8.5.1-1zm10.5 8.2l.3 1-.8-.4v1l.9-.4.2.6 1.2-1.2-1.8-.6zm-7.9-.7l1-.1-.5-.9-.5 1zm4.1 7.7l-.3 1.1.9-.2.4.6.6-.9-1.1-.1-.5-.5z"/><path d="M251.3 202l.6-.7-.9-.1.3.8zm-2.6.8l1-.1-.5-1-.5 1.1zm-2-6l.3.8.6-.6-.9-.2zm7.1 2.5l.8.5-.1-.9-.7.4zm1.9-4.8v-.3l-.7.4.8.5-.1-.5.5.4.2-.9-.7.4zm7.8 9.8l-.8 1.3 1.8.2-1-1.5zm7.2 2.4l-.8 1.3 1.7.2-.9-1.5zm-21.3-15.1l-.9-1.5-.8 1.3 1.7.2zm12.6 15.2l-.9-.3.3.9.3-.3-.2.3.7.1-.2-.6v-.1zm-33.6-24.5l-.4.9.8-.1-.4-.8z"/></g><linearGradient id="I" gradientUnits="userSpaceOnUse" x1="255.601" y1="171.555" x2="245.275" y2="179.759"><stop offset="0" stop-color="#cc7a5e" stop-opacity="0"/><stop offset=".924" stop-color="#aa5f4b"/></linearGradient><path d="M230.3 155.4s8.6 15.7 13.8 21.8 8.5 10.5 13.2 13 7.8 2.4 9.7 2.6 7.2.1 12-1.9 5.6-2 5.6-2-23-8.8-32.8-21.3c-9.8-12.4-11.3-19.9-11.3-19.9s-14 1.2-10.2 7.7z" fill="url(#I)"/><path d="M332.4 238.8c-1.7-1.3-5.3-5.8-6-6.5s2.3.6 3.9 1.2 3.5-.6.8-2.2-4.7-3.4-5.5-3.7c-.8-.4-2.8-1.1-4.3-1.6l-1.4-.5s-1.1-.3-3.2-2.7c-.9-1-27.9-35.6-33-42.7-7.1-10.1-11.9-21.1-14.5-25.6S254.6 123 254.6 123l-27.1 25.8s6.7 16.4 17.1 29.2 12.3 14.3 17.4 19.5c13.7 13.9 46.6 38.5 46.6 38.5s5 5.4 12.2 8.4c7.1 3.1 8.2 2.7 9.3 3 1 .3.9-1.5.9-1.5s2.2 1 3.1.1c.9-1-.2-2-.2-2s1.6-.3 2-1.1c.4-.7-1.5-2.6-3.5-4.1z" fill="#ea9d7d"/><g fill="#cc7a5e"><path d="M324.7 242.4v-.4c.1-.2.4-.2.6-.1l6.1 3.8c.5.2 1.98.84 2.6.04.5-.63-.12-1.47-.22-1.57-.2-.1-.18-.17-.08-.37s.4-.2.6-.1c.1.1.8.6.8 1.4 0 .3-.13.8-.53 1.3-1.33 1.37-3.3.16-3.57 0h0l-6.1-3.9c-.2 0-.2-.1-.2-.1z"/><path d="M315.5 222.5c0-.1 0-.3.1-.4.2-.2.4-.2.6 0l3.76 3.14a9.16 9.16 0 0 1 4.9 1.44c2.6 1.5 6.03 3.92 7.13 4.62 1.1.8 1.1 1.5.9 2 0 .2-.2.3-.4.5-.8.4-2.8 0-5.4-.9l5.9 5.9.5.4c2.3 1.9 2.7 2.22 2.85 3.32a1.77 1.77 0 0 1-.3 1.33c-.6.7-1.75.65-1.85.65s-.2 0-.2-.1l-7-5.2c-.2-.1-.2-.4-.1-.6s.4-.2.6-.1l6.9 5.1c.3 0 .8-.1 1-.4.5-.74-.2-1.5-2.5-3.4l-.5-.4c-2.6-2.1-6.9-7.1-7.1-7.3-.1-.1-.1-.4 0-.5.1-.2.3-.2.5-.2 4 1.7 6.1 1.8 6.4 1.6 0-.2 0-.5-.6-1-1.1-.9-5.6-3.6-7-4.5-2.5-1.5-4.7-1.4-4.7-1.3-.1 0-.2 0-.3-.1l-3.8-3.3-.3-.3zm-1.3-2.3c-.3-.4-28.8-36.8-34.7-45.9-5.9-9.2-19.3-35.8-19.4-36.1l.9-.4c.1.3 13.5 26.9 19.3 36 5.9 9.1 34.4 45.5 34.7 45.8l-.8.6z"/></g><linearGradient id="J" gradientUnits="userSpaceOnUse" x1="275.567" y1="190.328" x2="259.983" y2="203.249"><stop offset=".005" stop-color="#cc7a5e" stop-opacity="0"/><stop offset=".924" stop-color="#aa5f4b"/></linearGradient><path d="M240.8 134.4s-15 7.4-13.5 14.6c4.5 13.6 21.3 34.9 28.2 41.9 4.2 4.4 10.3 10.8 18.8 17.8l15.8 12.6 10.2 8 5.5 4.7c2.5 2.1 10.6 5.7 13.2 6.2 2.5.5-4.4-5.5-8.8-9.8s-24.2-28.5-36.4-42.6c-9.8-11.2-33.2-38.1-33-53.4z" fill="url(#J)"/><linearGradient id="K" gradientUnits="userSpaceOnUse" x1="261.846" y1="171.478" x2="250.891" y2="157.524"><stop offset="0" stop-color="#cc7a5e" stop-opacity="0"/><stop offset=".924" stop-color="#aa5f4b"/></linearGradient><path d="M252.2 187s.4-7.9 8.5-15 13.7-7.7 13.7-7.7l-10.3-18.6-29 17.4c-.1 0 8.3 15.4 17.1 23.9z" fill="url(#K)"/><linearGradient id="L" gradientUnits="userSpaceOnUse" x1="302.689" y1="218.74" x2="308.699" y2="225.753"><stop offset=".005" stop-color="#cc7a5e" stop-opacity="0"/><stop offset=".924" stop-color="#aa5f4b"/></linearGradient><path d="M312.8 217.1s-4.1 3-4.4 2.7c-1.1-1-5.7-1.8-8 1.3-2.6 3.4-.3 8.42-.3 8.42l2.3 2.2 11.9-13.22-1.5-1.4z" fill="url(#L)"/><linearGradient id="M" gradientUnits="userSpaceOnUse" x1="313.926" y1="230.368" x2="308.746" y2="225.717"><stop offset=".005" stop-color="#cc7a5e" stop-opacity="0"/><stop offset=".924" stop-color="#aa5f4b"/></linearGradient><path d="M316.02 222s-2.52 2.4-2.22 2.8c.8 1.2 1 5.5-2 7.8-3.4 2.5-6.17 1.13-6.17 1.13l-2.53-2.02 11.5-11.8 1.42 2.08z" fill="url(#M)"/><path d="M312.7 217.3l-12.4 12.2c-.5.5-.5 1.2 0 1.7l2 2c.5.5 1.2.5 1.7 0l12.1-12c.4-.4.5-1.1.1-1.6l-1.8-2.3c-.4-.5-1.2-.5-1.7 0z" fill="#283749"/><linearGradient id="N" gradientUnits="userSpaceOnUse" x1="313.31" y1="220.422" x2="310.985" y2="222.632"><stop offset="0" stop-color="#151e28" stop-opacity="0"/><stop offset=".998" stop-color="#151e28"/></linearGradient><path d="M308.4 221.4l3.2-3.1 3.7 3.7-3.6 3.7-3.3-4.3z" fill="url(#N)"/><linearGradient id="O" gradientUnits="userSpaceOnUse" x1="302.136" y1="231.364" x2="303.341" y2="230.229"><stop offset="0" stop-color="#151e28" stop-opacity="0"/><stop offset=".998" stop-color="#151e28"/></linearGradient><path d="M305.7 231.6l-1.7 1.6-3.8-3.6 1.8-1.7 3.7 3.7z" fill="url(#O)"/><path d="M308.8 232.1c3.2-.8 5.1-4.1 4.3-7.4-.8-3.2-4.1-5.1-7.4-4.3-3.2.8-5.1 4.1-4.3 7.3.9 3.4 4.2 5.3 7.4 4.4z" fill="#283749"/><g fill="#445a6b"><path d="M307.6 227.5c.7-.2 1.1-.9.9-1.5-.2-.7-.9-1.1-1.5-.9-.7.2-1.1.9-.9 1.5.2.7.9 1.1 1.5.9z"/><path d="M306.6 228.9v-.1l.5-3.2 3.4 3c.1.1.2.4 0 .5-.1.1-.4.2-.5 0l-2.4-2.1-.3 1.9c0 .2-.2.3-.4.3s-.3-.1-.3-.3z"/></g><g fill="#a84d3b"><path d="M267.1 179.3l-.7-.1.2.8.5-.7zm-2.5 3.5l-.3.5h.7l-.4-.5zm5.9-.8l-.6.3.5.4.1-.7zm-15.5-1.6v.3l-.3-.4-.6 1.2 1.4-.1-.3-.3.3-.2-.5-.5zm2.3 4.7l.4-.6h-.7l.3.6zm15.8-2.3l-.4-.1.2.5.2-.4zm-1.5 2.2l-.2.3h.4l-.2-.3zm3.2-.4l.3.3.1-.4-.4.1zm-7.2-.3l.5-.6-.7-.2.2.8zm-2.3 3.4h.7l-.4-.5-.3.5zm6.1-1.4l-.6.3.5.4.1-.7zm-25.5-8.3h.8l-.5-.6-.3.6zm3.5 3.1l.2-.7-.6.3.4.4zm.4-5.6l.5-.3-.6-.3.1.6zm-5.4-4.2l-.2-.8-.6.4.8.4zm1 4l.5-.5-.7-.1.2.6zm-2-2.9l-.4-.6v.1l-.2-.4-.4.4.5.1-.1.3.6.1zm10.3 1.1v.8l.7-.5-.7-.3zm-2.9 2.9l-.4.4.4.1.2.1 1.2.2-.5-1.2-.7.8-.2-.4zm5.5 1.7l.4-.6-.7.1.3.5zm.3-20.4l-.1.8.7-.5-.6-.3zm6.8-3.7v.8l.7-.4-.7-.4zm-16.1 11.5l-.2-.6-.4.4.6.2zm5.2 1.1l.4-.6-.7.1.3.5zm-2.3-1.5l.4-.6-.7.1.3.5zm-1.1-2.8l.3.5.2-.3.3.2v.2l.2-.1.3.1v-.3l.2-.1-.2-.1v-1.3l-2 1.1.7.1zm-3.2 6.6l.2-.7-.8.2.6.5zm-4.1-2.2l.5-.4 1 .4v-1.9l-2 1.1.5.2v.6zm2.9 7l.2-.2h-.7l.2.5.1-.1.4.3.1-.6-.3.1zm3.9 3.4l-.7.2.5.4.2-.6zm4.6.7l.4-.3-.4-.2v.5zm-1.7 1.7l-.1-.3-.1-.6-.7.5.6.2-.1.1.4.1zm3.3.7l.3-.4h-.5l.2.4zm-4.7-6.8l-.3-.4-.1.5.4-.1zm0-2.6v-.4l-.4.2.4.2zm5.5 4.8l-.1.5.5-.1-.4-.4zm.3-2.2v-.4l-.4.2.4.2zm-3.1 2.1l.3-.3-.4-.1.1.4zm-.6 5l-.2.5.5-.1-.3-.4zm.3-2.2v-.4l-.4.2.4.2zm-3.2 1.6l.1.4.3-.3-.4-.1zm10.6 9l.2-.3h-.2l-.3-.1-.2-1-1 .8.4.1.2 1 .8-.8.1.3zm-3.3.5l-.3-.2v.4l.3-.2zm5.1 6.1l.4.3.1-.5-.5.2zm2.7-1.8l-.4-.1.1.4.3-.3zm-3.6-.6l-.1-.2v-.1h-.1v-.1l-.1.2-.4.2.5.4.1-.4h.1zm3.6-2.1l-.3-.3v.4l.3-.1zm-1.3-28l.3.4.3-.4h-.6zm-4.4-1.7l.4-.2-.3-.3-.1.5zm.6 4.4v-.4l-.3.2.3.2zm10.6 19.1h.4l-.2-.4-.2.4zm-.8 4l-.4.1.3.3.1-.4zm7.8 3l-.2.5.5-.1-.3-.4zm-1.2-4.7l-.4.2.4.2v-.4zm-3.4 3.5l.3-.3-.3-.1v.4zm-7.5-11.6l-.5-.1.3.4.2-.3zm-4.9-1.8l.4-.1-.3-.3-.1.4zm-3.4-12.5l-.3.5.5-.1-.2-.4zm-.4 6.6l.1-.4-.4.1.3.3zm1.4 3.8l-.4-.2v.4l.4-.2zm-9-4.2l-.1-.5h.4l-.4-.6-.2.5-.6.4.9.2zm-5.3 4.9l.7-.4-.5-.3.3-1.1-1.3.2.5-1.4-1.1.1.3-.2-.6-.4v.6h-.5l1.2 1.8 1 1.3v-.2zm4.8 4.6h.6l-.5-1.2-.5.8-.5.1.4-1.3-1.3.2.3-.6-1.1-.1.3-1.2.9.1-.2-.4.3-.1-.5-.3-.2-.4-.7.9-1.5.3.5.6.9 1.1.1-.3.2.5.1.1.2.3v-.1l1 1.4.1-.4.8 1 .3-1zm-3.4-7.9l.4.2-.2-.8-.4.3-.3-.7-.8 1.2h1.3v-.2zm2.3-1.4l-.5-1.2-.8 1.2h1.3zm1.3 4.1l-.8 1.2 1.3.1-.5-1.3zm1.1-10l-.5-1.2-.9 1.2h1.4zm-.5-2.1l-1.1-.7v1.4l1.1-.7zm2.5-.6v1.4l1.1-.7-1.1-.7zm3.6-2.2v1.4l1.1-.7-1.1-.7zm5.1-.1l.2-1.3-1.3.4 1.1.9zm6.4-8l-1.2.5 1.2.8v-1.3zM254.3 165l.2-1.2-1.2.3 1 .9zm-1.2 14.2l-.8 1.2 1.3.1-.5-1.3zm-4.9-4.8l-1.2-.1.6-.3-.7-.3v.7l.6 1.2.7-1.2zm-.1 7l.6 1.3.7-1.1-1.3-.2zm3.7-.2l-1.3-.2.6 1.3.7-1.1zm10.7 7.9l-.3.4-.2-.4-.1.1-.4.3.1.1-.5.5 1.4.2-.1-.1h.6l-.5-1.1zm4 2.9h0l-.1-.2-.1.1-.2-.1v.3l-.5.7 1.4.1-.5-.9zm-1.6-.1l-1.2.5 1 .9.2-1.4zm-4.9 3.5l1 .9.2-1.4-1.2.5zm2.8-2.4l-1.1-.7.2-.5-.5.1.3.4-.1-.1v.8l-.5-.2.3 1.3h-.1l.3.4.3-.5-.3.1.8-.8-.2-.1.6-.2zm1.6 3.9l-.8-1-1-.2v.9l-.1-.1v.3l.1-.1v.9l1.8-.7zm-.6 1h0-.8l.1.3-.3.1 1.3 1.1.3-1.1-.6-.4zm-6.7-5.4l.4-1.7-1.8.3 1.4 1.4zm2.6-11.2l.6.2.2.1v-.1l.6.2-.3-1.3-1.1.9zm3.4 14.2l.9-.9-1.2-.5.3 1.4zm-1 1.9l.3-1.3-1.3.3 1 1zm-11.6-12.2l1.6 1.7.5-2.2-2.1.5zm5.1-1.8l.1 1.4 1.1-.8-1.2-.6zm-3.4 1.1l-.3-.7.2.1-.2-.6-.2.1v-.1l-.9 1 1.4.2zm-6.2-12.7l-.4-.4-.1.3h-.4l.6 1.3.7-1.1-.4-.1zm2.5 6.6l.1.2v.4l.2-.1.4.7.6-1.1-1.3-.1zm-3.7-1.7l-.2-.5.8.1-.8-1.4-.9 1.2h.2l-.4.5 1.3.1zm4.5-9.7l-.5-1.2-.8 1.1 1.3.1zm2.1 1.3l-.6.8.9.1-.3-.9zm-8.1 0l.1 1.5 1.1-.8-1.2-.7zm-1.7 3.4l1-.7h.5l-.4-1.2-.6.7-.6-.3.1 1.5zm4.7 1.5h1.3l-.4-1.2-.9 1.2zm-5.1-7.2l-2.1 1.2 2 1 .1-2.2z"/><path d="M246.3 167.4v-1.7l-1.5 1 1.5.7zm-5.3 5.5l.6-2.1-1.4.2.2-.7.3.2v.4l.7-.4-.6-.4v.1l-.1-.2-.2.2.1-.2h.3l-.2-.4h-.1l-.3-.8-.5.7-.5-.3-.1.5h-.3l.4-1.3.6-.3-.4-.4v.1l-1.9.3 1.2 1.6.9 1.4 1.3 1.8zm9.6 12.2l.3-2.2-1.1.4-.4-.4-.2.6h.3l-.4.1 1.5 1.5zm4.5 3.5l-.3-1.2-1 .8.3-1.6-1.9.5 1.5 1.6.1-.5 1.1.4-1 .2 1.4 1.8.5-2.1-.7.1zm4.8 3.6l-1.1.1v-.1l-.3.2h-.5l.2.2-.5.4 1.1.4-.7.2 1.6 1.5.2-2.2-.2.1.2-.8zm6 9l.2-1.7-1.6.2 1.4 1.5zm.5-2.8l.8 1 .3-1.1-1.1.1zm8.4 9.8l.3-1.2-1.1.2.8 1zm3.3 1.9l1.1-.4-.7-.8-.4 1.2zm2.8 2.3l-.4 1.2 1.1-.4-.7-.8zm4.2 3.2l-.4 1.2 1.1-.4-.7-.8zm-.1-1.8l-1 .3.8.6.2-.9zm-4-2l.2-.9-1 .3.8.6zm-6.1-6.8l-1 .3.8.6.2-.9zm-4 0l.2-.8-1 .3.8.5zm-4.2-7.9l.8.6.2-.9-1 .3z"/><path d="M274.2 202.5l-1 .3.8.6.2-.9zm9.3 8.2l-.9-.5.1.9.8-.4zm-5-3.1l.7-.4-.9-.5.2.9zm9.7 7.4l.1 1 .8-.4-.9-.6zm1.6 4.6l-.9-.5.1.9.8-.4zm3.9 3.5l.1.9.8-.4-.9-.5zm2.8.7l.7-.4-.9-.5.2.9zm3.6-.4l-.9.5.9.4v-.9zm-1.2 3.4l-.9.5.9.4v-.9zm.7-.9l.7-.7-.8-.3.1 1zm-21.4-14.8l.7-.7-.8-.3.1 1zm5.3 4.9l.6-.7-.8-.4.2 1.1zm16.1 12.7l.1-.9-.9.5.8.4zm9.7 5.5l-.9.4.8.4.1-.8zm2.4 2.5l-.2.9.8-.4-.6-.5zm2.8 2l-1-.2.5.8.5-.6zm.5 2.2l.3-.8-1 .2.7.6zm-2.1-2.7l.5-.6-.9-.2.4.8zm-.9-2.6l.4-.5-.7-.1.3.6zm-1.5-.9l.6-.1-.4-.6-.2.7zm.9-2.3l-.2.7.6-.1-.4-.6zm3.9 6.9l.6-.1-.4-.6-.2.7zm1.7 2.3l.6-.1-.4-.6-.2.7zm1.4-.2l.3-.6h-.7l.4.6zm1.1 2l.3-.6h-.7l.4.6zm6.7 2.7l.3-.5h-.7l.4.5zm-5.1-1.9v-.6l-.6.3.6.3zm4.2 1.8v-.6l-.6.3.6.3zm-6.9-3l.1-.6-.7.2.6.4zm-8.3-10.8l-.2.9.8-.4-.6-.5zm-2.1.5l-.8-.1.4.9.4-.8zm-11.2-7.8l.7-.6-.8-.4.1 1z"/><path d="M265.7 194l.5 1.1.9-1.1h-1.4zm4.8 8.3l-1.9.7.3-1.3.7.5.2-.8-.9.2.1-.4-2 .8.2-.7-1 .2.7.5-.2.1 1.6 1.4v-.1l1.4 1.2.8-2.3zm4.6 6.9l1.3 1.1v-1.5l-1.3.4zm5.7 4.6l1.3 1v-1.4l-1.3.4zm5.6 3.1l-1.3.4 1.3 1v-.8l.9.7.3-1-1.2.3v-.6zm6.5 6.6V222l-1.4.5 1.4 1zm-2.5-1.8v-1.5l-1.4.4 1.4 1.1zm6.4 4.5l.5-.5v.2l.2-.2h-.2l.1-.1-.8-.3.2.9-.5.2 1.4 1V226l-.9.2zm9.8 7.5l1.3 1.2.1-1.5-1.4.3zm3.6 3.5l.2-1.5-1.4.3 1.2 1.2zm2.9 2.3v-1.2l-1.2.3 1.2.9zm-41.5-33.2l1.3 1v-1.4l-1.3.4zm-13.1-49.9l-1.8 1 1.8.8v-1.8zm4.7-2.6l-1.8.9 1.8.8v-1.7zm-19.5 15.9l.2.7.3-.6-.5-.1zm2.6 5.4l.7-.1-.5-.5-.2.6zm.8 3l-.6-.1.3.6.3-.5zm-2.6-10.8h-.8l.5.6.3-.6zm-2.3 1.7l.3-.6.2.2.2-.8-.7.3.2.2h-.6l.4.7zm18.3-11.8l.5-.4-.5-.3v.4l-1-.6v1.4l1-.6v.1zm-1.6-.3l-.3.3.5.2-.2-.5zm2.5-1.7l-.3.3.5.2-.2-.5zm1.9 3.1l.3-.5h-.5l.2.5zm-5.4 1.9l.1-.6-.6.2.5.4zm-1.6-1.5l-.7.2.5.4.2-.6zm-4.6 1.8l-.6.2.5.4.1-.6zm3.7-1.3v.6l.5-.4-.5-.2zm-1.2-.1v.6l.5-.4-.5-.2zm.9 3.6l.6.2-.2-.5-.4.3zm10.5-4.8l-.7.1.4.5.3-.6zm-3.1-2.3l-.1.6.5-.3-.4-.3zm.3 5.1l-.1-.5-.4.3.5.2zm-6.1-1.1l-.3.6.7-.1-.4-.5zm-3.2 1.7v-.4l.3.1-.1-.5.8-.5-1.1-.7v1.4l-.2.2-.2.1.5.3zm3.5 2.6l.5-.3-.5-.2v.5zm10.8-10.7l-.7.1.4.5.3-.6zm-2.8.4l-.1.6.5-.2-.4-.4zm-.3 1.9l-.4.3.5.2-.1-.5zm-13.1 6.4l.3-.5-.5-.1.2.6zm1.2-1.7h-.5l.2.5.3-.5zm-.5 3.8l-.2.4.5-.1-.3-.3zm-8.4 1l-.2.5.6-.1-.4-.4zm9.4-2.1l-.4-.4-.2.4h.6zm-5.3.9l.6.2-.1-.6-.5.4zm-1-.4l-.5.4.6.2-.1-.6zm1.5 5.1l.6.2-.1-.6-.5.4zm1.5 3.6l.6.2-.1-.6-.5.4zm-5.2-7.3l.2.5.3-.4.7.3v-1.9l-2 1 1.1.5h-.3zm2.1 2.6l.6-.1-.4-.4-.2.5zm7.1 0l-.6.4.6.2v-.6zm-3.6.1l.3-.5-.5-.1.2.6zm2 3.8h.5l-.4-.4-.1.4zm-2.9 5.3v.7l.7-.4-.7-.3zm4.4 1.3l-.4.5.6.2-.2-.7zm-2-4.5l.3-.5h-.7l.4.5zm-3.4-.4l.3-.5h-.7l.4.5zm.6.8l-.5.7h.8l-.3-.7zm-4.2 1.4l.2-.7-.6.1.4.6zm9.7 7.4l-.3.7.8-.1-.5-.6zm3.5 2.9l-.6.3.5.4.1-.7zm.5-5.2l-.6-.3.1.7.5-.4zm5.3 6.8l-.3-.8-.5.5.8.3zm1 3.3l.3.5.4-.5h-.7zm2.8-5.2l-.1.7.6-.1-.5-.6zm-11 1.2v.6l.6-.3-.6-.3zm4.9-3.3l-.4.5.4.1.1.6.5-.4-.5-.2-.1-.6zm1 2.3h-.1l-.1.7.8-.2-.2-.2.2-.4-.7-.1.1.2zm-1.6 3.8l.3.1-.1-.4-.2.2-.2-.2-.3.5h.7l-.2-.2zm5.4-.5l.1-.5h.1v-.7l-.6.4.3.2-.4.2.5.4zm-9.2 1.2l-.3.6h.8l-.5-.6zm4-2.3l-.6-.3.1.7.5-.4zm-7.3-2.5l-.3.7.8-.1-.5-.6zm3.5 3l-.6.3.4.3.2-.6zm0-5.5l.1-.5-.7.1.5.6v.3l.5-.3-.4-.2zm1 3.9l-.3.6.8-.1-.5-.5zm-2.1-4.7l.8-.1-.6-.6-.2.7zm3.6 9.3l-.3.7.8-.1-.5-.6zm-5.2-16.2l.5-.7h-.8l.3.7zm-4.1 3.6l.7-.4-.7-.3-.1-.4-.4.5.5.1v.5zm3.9 3.3l-.7-.3v.7l.7-.4zm4.8 4.7l.6.5v-.2l.1.1.1-.6h-.2v-.2l-.6.4zm-4.3-7.6l-.4.5.6.1-.2-.6zm-2.6-4.9l.4.6.3-.5-.7-.1zm11.2 17.9l-.3-.8-.1.1-.2-.5-.3.7h.4l-.3.2.8.3zm1.8 3.3h-.7l.3.5.4-.5zm2.1-5.2l-.1.7.6-.1-.5-.6zm-2-7.3l.4-.4-.7-.2.3.6zm-7 7.8l.1.5-.1.2.5.1-.1-.3.5-.4-.9-.1zm18.8 16.9l-.4.1.4.4v-.5zm-.1 3.4l.3-.2-.4-.2.1.4zm2.3-2.4l.3.1-.1-.4-.2.3zm1-.1l-.5.2.4.4.1-.6zm-.3 3v.4l.4-.3-.4-.1zm3.3-2l-.1-.5-.3.4.4.1zm-5.1 2.2h.5l-.3-.2-.2.2zm2.2.9l-.3.1.3.2v-.3z"/><path d="M280.5 210.2l.1.3.3-.2-.4-.1zm-14.6-12.5l-.4.4.5.2-.1-.6zm1.2 3.3l.3-.4h-.5l.2.4zm1.7-4l-.1.5.4-.1-.3-.4zm5.7 9.6l-.5-.2v.4l.5-.2zm-3-3.7l-.3.4.4.1-.1-.5zm.2-5.7l-.2.5.6-.1-.4-.4zm-2.6 1.1l-.4.1.4.3v-.4zm3 2.1v.4l.4-.3-.4-.1zm0-12l-.2.5.5-.1-.3-.4zm-2.5 1.1l-.4.1.3.3.1-.4zm3.4 2.2l-.4-.1.1.4.3-.3zm-5-.3l-.6-.1.3.5.3-.4zm-2.3-2l.5-.1-.3-.3-.2.4zm-.6 3.3l-.4.2.4.3v-.5zm5.6 7l-.2-.2-.2.3.4-.1zm-1.9.8v-.3l-.3.1.3.2zm2 1.3l.2-.2-.3-.1.1.3zm.9 3.5l-.2.3h.3l-.1-.3zm.7-1.4l.1-.2h-.3l.2.2zm-2.5.7l.2-.1-.2-.2v.3zm4.8 4h.3l-.1-.3-.2.3zm1-1.9h-.3l.2.2.1-.2zm-2.6.9l.2-.2-.2-.1v.3zm-2.3-11.8l-.2.3h.3l-.1-.3zm.7-1.4l.1-.2h-.3l.2.2zm-2.5.4v.3l.2-.2-.2-.1zm30.3 31.1v.3l.3-.1-.3-.2zm.2-1.8l-.3.1.3.1v-.2zm-9.3-4.2h.3l-.1-.4-.2.4zm1-2l-.3.1.2.2.1-.3zm-26.9-20l-.1-.3-.2.3h.3zm.7-1.9h-.3l.2.2.1-.2zm15.9 11.6l-.1-.4-.2.3.3.1zm-.3-3.5l.1-.2h-.3l.2.2zm-2.7 1.4v.3l.3-.1-.3-.2zm-.1-2.1l.1.4.3-.2-.4-.2zm-2.4-2.2h.3l-.1-.3-.2.3zm-.7 2.7h-.3l.2.3.1-.3zm5.9-2.7l-.3-.1.1.3.2-.2zm-2.5-2.6l-.2.2h.3l-.1-.2zm-.9 3.2l.1-.3h-.3l.2.3zm8.5 6.7l-.3-.2.1.4.2-.2zm-2.6-2.6l-.2.2h.3l-.1-.2zm-.8 3.2l.1-.3-.3.1.2.2zm8.9 2.2l-.3-.2.1.4.2-.2zm-2.5-2.7l-.2.2h.3l-.1-.2zm-.9 3h-.3l.2.3.1-.3zm.1 1.4l-.3.1.3.2v-.3zm-3.4.2l-.2-.1v.3l.2-.2zm1.2 2.7h.3l-.2-.3-.1.3zm4.5-6.7l.3.1-.1-.3-.2.2zm-2.7 1.2h-.3l.1.3.2-.3zm2.1 1.8v.3l.3-.1-.3-.2zM279.2 195l-.3-.2v.4l.3-.2zm-2.5-2.6l-.2.2h.3l-.1-.2zm-1 3.2l.1-.3h-.3l.2.3zm10.5 18.3l-.3-.2.1.4.2-.2zm-2.5-2.3l-.1-.2-.2.2h.3zm-1 2.9l.1-.3h-.3l.2.3zm-5.5-19.8v-.3l-.3.3h.3zm-3.3 1h-.3l.1.3.2-.3zm2.1 1.9l-.1.3.3-.1-.2-.2zm1 2.4l-.3.2.3.1v-.3zm-3.2 1.3h-.3l.2.3.1-.3zm2.3 2.2l-.2-.2-.1.3.3-.1zm1.1 1.6l.2-.3h-.3l.1.3zm.1 3.4h.3l-.2-.2-.1.2zm2.8-1.9l-.3.2.2.1.1-.3zM269 193.3l-.6.2.5.3.1-.5zm-2.2 2.3l-.3.3.5.1-.2-.4zm-6.7-1.8l.6-.1-.4-.4-.2.5zm12 .9l.4.2v-.5l-.4.3zm.8 10.9l.2.4.3-.3-.5-.1zm22.2 17.3l.5-.3-.5-.3v.6zm3.1.2l-.3.4.4.1-.1-.5zm-1.5-3l.2-.3h-.5l.3.3zm-9.1-6.1l.5-.1-.4-.4-.1.5zm2.4 1.6l.3.2.1-.5-.4.3zm0-3.6l.3-.3-.5-.2.2.5zm4.6 11.8v.5l.5-.3-.5-.2zm2.8 1.1l.4.1-.1-.5-.3.4zm-1.3-3.4l.2-.4h-.5l.3.4zm-6.9-2.7l-.6-.3-.1.3.2-.1v.4l.5-.3zm-3.1-2.6l.5-.3-.5-.2v.5zm4.9 5.4l.5-.3-.5-.2v.5zm4.3 3.3l.1-.6-.5.2.4.4zm-12.2-12.6l.1-.6-.5.3.4.3zm8.7 7l-.3.4.4.1-.1-.5zm-1.4-3.4h-.5l.3.3.2-.3zm-.7.7l-.1.5.5-.1-.4-.4zm2.5 2.3l.1-.5-.4.3.3.2zm.1-4.2l-.5-.2.1.5.4-.3zm-28-21.5v.5l.4-.1-.4-.4zm-3-2.2l-.4.2.4.2v-.4zm33.1 29.3l-.5.3.4.3.1-.6zm2.3-1.7l-.5-.2.2.4.3-.2zm-4.1-.9l-.2.4h.4l-.2-.4zm21.5 19.4l-.3.1.3.4v-.5zm-.1 2.9l.2-.2-.3-.1.1.3zm1.9-1.9l.3.1-.1-.4-.2.3zm.9.7l.1-.4-.4.1.3.3zm-.3 2.4l.4-.2-.4-.2v.4zm2.8-2.3l-.3.3.4.1-.1-.4zm-4 2.1h.4l-.3-.2-.1.2zm1.8 1.1l.1-.2-.3.1.2.1zm.1-1.9l.3-.1-.3-.1v.2zm-10.1-7.1l-.4.1.3.4.1-.5zm4.3 3v.3l.4-.2-.4-.1zm-2-3.1l-.3.3.3.1v-.4zm-.1 2.4h.2l-.1-.3-.1.3zm.9-1.7h-.3l.2.2.1-.2zm-2.3.8l.2-.1-.2-.1v.2zm4.1 3.3l-.2.3.3.1-.1-.4zm.8-1.4h-.2l.2.2v-.2zm-2.3.7l.3-.1-.2-.1-.1.2zm6.5.6h.3l-.1-.3-.2.3zm.2-3.1h-.3l.2.2.1-.2zM315 236l-.2-.1v.2l.2-.1zm0-2.1l-.3-.1v.3l.3-.2zm-2.1-2.3l-.2.2h.3l-.1-.2zm-.8 2.4h-.2l.1.2.1-.2zm4.9-1.8l.2-.2-.3-.2.1.4zm-1.8-2.3l-.1-.2-.2.2h.3zm-1 2.5l.1-.3h-.2l.1.3zm6.9 6.4l.2-.1-.3-.2.1.3zm-1.9-2.4l-.1.2h.2l-.1-.2zm-.8 2.4h-.2l.1.3.1-.3zm7.2 2.6l.2-.2-.3-.1.1.3zm-1.8-2.5l-.2.2h.3l-.1-.2zm-1 2.7l.1-.2h-.2l.1.2zm.5 1l-.3.1.3.2v-.3zm-3 .3l.2-.2-.2-.1v.3zm1.7 1.4l.3.1-.1-.2-.2.1zm3-4.6l-.2.2.3.1-.1-.3zm-2.7 1.4l.1-.3h-.2l.1.3zm1.9 2.1h.3l-.2-.2-.1.2zm-7.4-14.8l.1.3.2-.1-.3-.2zm-1.8-2.1l-.2.2h.2v-.2zm-.8 2.4h-.2l.1.2.1-.2zm7.4 14.8l.3-.1-.3-.2v.3zm-1.8-2.4l-.2.1h.3l-.1-.1zm-.9 1.2l.1-.3h-.2l.1.3zm-4.7-11.4l-.3.2.3.1v-.3zm-2.8.9h-.3l.1.2.2-.2zm1.7 1.7l-.1.2h.3l-.2-.2zm1.1 1.7l.2-.3h-.3l.1.3zm-.1 2.8h.3l-.1-.2-.2.2zm2.5-1.5l-.2.1.2.1v-.2zm-6.1-.8l.3-.2-.4-.2.1.4zm12.5 7.8h.5l-.3-.4-.2.4zm2.3 1.2l-.3.3.3.2v-.5zm-.1-2.9l.3-.2-.4-.2.1.4zm-1.6 3.2h.5l-.3-.3-.2.3zm3.7.9l.3.2.1-.4-.4.2zm-1-1.5l.3-.2-.4-.2.1.4z"/></g><g fill="#ffb7a4"><path d="M295.5 198.1v-.4l-.4.3.4.1zm-11.9-13.8l.3.3.2-.5-.5.2zm2.5 1.3l.1.4.3-.3-.4-.1zm-3.4-2.4l.3.2v-.3l-.3.1zm-1.6.4l-.1.3h.3l-.2-.3zm21.2 22.5l.3-.1-.1-.2-.2.3zm-9-11.3v-.3l-.3.1.3.2zm-3-1l.3-.1-.2-.2-.1.3zm-.9-2.7l-.3-.1.1.3.2-.2zm-2.3-2.5v-.3l-.2.2.2.1zm.6 5.3l.2-.3-.3-.1.1.4zm-3.2-3v-.3l-.2.2.2.1zm2.9-.9l-.1.3.3-.1-.2-.2zm6.2 9.6l.2-.2-.3-.1.1.3zm-1.4-2.8v-.3l-.3.2.3.1zm2.4-.6l-.2-.2-.1.3.3-.1zm1.2 8.6l.2-.3-.3-.1.1.4zm-2.1-2.5l-.3.2.3.1v-.3zm2.7-.3l.3-.1-.2-.2-.1.3zm1.4.7h.3l-.2-.3-.1.3zm-4.3 1.7l.3.1v-.4l-.3.3zm1.8-2.9l.3-.1-.2-.2-.1.3zm1.7 2.6l.1-.3h-.2l.1.3zm-10.5-11.3l.2-.2-.3-.1.1.3zm-4.8-4.4v-.3l-.2.2.2.1zm2.4-1.2l.3-.1-.3-.2v.3zm-1.7 2.7l.3.1v-.4l-.3.3zm-.2-3.8v.2l.3-.1-.3-.1zm1.9 2.8l.1-.3h-.3l.2.3zm1.8.9l.3.1v-.4l-.3.3zm1.4-2.7v.3l.3-.1-.3-.2zm2.2 1.9l-.3.1.2.2.1-.3zm1.1 1.5v.3l.3-.1-.3-.2zm1.5 3.2h.3l-.1-.1h.8l-.4-.8-.4.8v-.1l-.2.2zm-10.6-9.2l-.3.4h.5l-.2-.4zm25.2 29.2l.5.2v-.4l-.5.2zm-3.2-1.8l.4-.1-.3-.3-.1.4zm-3.2-8.7l-.5.1.4.4.1-.5zm-2.1-1.5l.2-.5-.5.1.3.4zm-1.2-3.1l-.7 1.5 1.6-.4-.9-1.1z"/><path d="M300.7 203.3l-.2 1.4 1.4.2-1.2-1.6zm3.6 6.3l1.4.2-1.1-1.5-.3 1.3zm-9.4-13.8l-.7 1.4 1.6-.4-.9-1zm-3.9-3.6l.1.2.2-.2h-.1l.9-.2-.9-1.1-.7 1.5.5-.2zm-2.8-5.5l-.8-1.2-.8 1.4 1.6-.2zm-2.1-2.9l-.9.6 1.1.3-.2-.9zm5 10l.6.9.4-1-1 .1zm-1.7 0l.3-.7-.7.1.4.6zm1.3 3.2l.7-.2-.6-.5-.1.7zm6.6 7.1l.7-.2-.6-.5-.1.7zm1-3.6l-.6-.5-.1.5-.7-.5-.1.8.8-.2v.1l.7-.2zm5.4 6.9l-.2.7.7-.2-.5-.5zm-7.5-9.5l-.2.6.7-.2-.5-.4zm-3-.2l.7-.2-.6-.5-.1.7zm.2-2.5l.5.9.4-1-.9.1zm1.4 4.4l.4-1-.9.1.5.9z"/><path d="M287.9 188.4h1.1l-.7-.9-.4.9zm.3 2.1l.5-.7h-.9l.4.7zm10.3 14.7l.8-.2-.7-.5-.1.7zm-.8-3.5l-.8.3.5.5.3-.8zm1.6-.3l-.8.3.6.5.2-.8zm-6.9-5.6h.8l-.4-.8-.4.8zm-2.3-4.6l-.4.8.8-.1-.4-.7zm10 11.5l-.7-.5-.1.8.8-.3zm2.3 5.8l1.1-.4-.9-.6-.2 1zm4.6 2.8l-.9-1.1-.3 1.1h.3l.2.5.3-.5-.4-.1h.8v.1zm.8.9l-.3 1.1h1.1l-.8-1.1zm-6.1-7.1l-.1.8.8-.3-.7-.5zm-11.3-15.3h-.9l.4.7.5-.7zm9.5 15.7h.5l-.2-.4-.3.4zm-2.5.2l.3-.3-.4-.2.1.5zm11.5 8.3l-.4.3.4.1v-.4zm-3.7-1.5l.4-.1-.3-.3-.1.4zm-1.8-3.4l.5.2-.1-.4-.4.2zm-2.7-2.5l.4-.2-.3-.3-.1.5zm2.3.3l-.3.4h.5l-.2-.4zm-3.5.8l.3-.3-.5-.2.2.5zm4.7 2.6h.6l-.2-.5-.4.5zm-1.8 1.3l.3-.3-.4-.2.1.5zm-.6-3.1l.4.3.1-.5-.5.2zm-28.3-41.4l.4.2v-.4l-.4.2zm-8.5-14.3l.3-.5-.5.1.2.4zm2 1.3v.4l.4-.3-.4-.1zm-2.7-2.6v-.3l-.3.1.3.2zm-2-.2l-.1.3h.3l-.2-.3zm17.8 24.5h.3l-.1-.2-.2.2zm-7.3-12l-.3.1.3.3v-.4zm-2.5-1l-.2-.2-.1.3.3-.1zm-1-2.6l.2-.2-.3-.2.1.4zm-1.6-3.3l-.3.1.2.2.1-.3zm-.3 5.6l.2-.2-.3-.1.1.3zm-2.7-3.4l.1-.3-.3.1.2.2zm2.9-.2h.3l-.2-.2-.1.2zm4.3 9.7l.2-.2-.3-.2.1.4zm-.4-2.8l-.3.1.2.2.1-.3zm2.1 0h.3l-.2-.2-.1.2zm.1 8.2l.2-.2-.3-.2.1.4zm-2-2.3v-.3l-.3.2.3.1zm2.9-.7l-.1.3.3-.1-.2-.2zm1.2 1.1h.3l-.1-.3-.2.3zm-4.4 1.3l.3.2v-.4l-.3.2zm2.1-3l-.1.3.3-.1-.2-.2zm1.4 3.1l.1-.3h-.3l.2.3zm-8.6-12.3l.2-.2-.3-.2.1.4zm-4-5v-.3l-.2.1.2.2zm2.5-.8h.3l-.2-.2-.1.2zm-2.1 2.4l.3.1v-.4l-.3.3zm.4-3.5l.3-.1-.3-.2v.3zm1.6 2.5h-.3l.1.3.2-.3zm1.8 1.2l-.3.2.3.2v-.4zm1.5-2.3l-.1.3.3-.1-.2-.2zm1.6 2.3l.1.3.2-.3h-.3zm1.1 1.6v.3l.3-.1-.3-.2zm1.2 3.2l-.2.2.3.1v-.1l.8.1-.3-.8-.6.5zm-9.1-10.1l-.2-.4-.3.4h.5zm21.2 28.8l-.4-.1.8.1-.8-1.2-.4 1.1h.3l.1.6.4-.5zm.3 2.5v-.4l-.4.2.4.2zm-3.5-2.7l-.1.5.4-.1-.3-.4zm-2.6-8l.2-.5-.5.1.3.4zm-1.9-2.2l.2-.5-.5.1.3.4zm-.1-2.1l-.8-1.2-.8 1.4 1.6-.2zm2.5 3.9l-.3 1.4 1.4.3-1.1-1.7zm3.1 6.6l1.4.3-1-1.6-.4 1.3zm-6.8-12.8l-.8-1.2-.9 1.3 1.7-.1zm-4.1-5.4l.1.2.2-.2h-.1l1-.1-.7-1.2-.9 1.4.4-.1zm-2.6-7.1l-1 1.2h1.6l-.6-1.2zm-1-1.9l-.9.5 1 .5-.1-1zm3.4 10.7l.4 1 .5-.9-.9-.1zm-1.6-.3l.4-.6h-.7l.3.6zm.9 3.3h.7l-.5-.6-.2.6zm5.2 7.4l.8-.1-.6-.5-.2.6zm.6-3.5l-.7-.6-.2.7.9-.1-.1.2.8-.1-.6-.5-.1.4zm5.5 7.3l-.2.6.7-.1-.5-.5zm-6.7-10l-.2.6.7-.1-.5-.5zm-2.1-.7l-.2.6.7-.1-.5-.5zm1.3-1.8h-.9l.4 1 .5-1zm-1.2 3.1l.5.9.5-.9h-1zm-4.3-10.8l1.1.2-.6-.9-.5.7zm-.2 1.5l.3.7.6-.6-.9-.1zm8.4 15.4l-.2.7.8-.2-.6-.5zm-1.1-2l.4-.8-.9.3.5.5zm1.7-.1l.3-.8-.9.3.6.5zm-5.4-6.8l.8.1-.3-.8-.5.7zm-1.5-4.8l-.5.7.8.1-.3-.8zm7.9 12l-.7-.6-.2.8.9-.2zm1.8 6l1.1-.3-.9-.7-.2 1zm5.1 4.1l-.3 1.1 1.1.1-.8-1.2zm-5.6-6.8l.8-.2-.7-.6-.1.8zm-9.3-16l.6-.6-.9-.1.3.7zm7.6 15.5h.5l-.2-.4-.3.4zm-2.5 0l.3-.3-.4-.2.1.5zm7.3 7l-.1.5.4-.1-.3-.4zm-1.1-2.9v-.4l-.4.2.4.2zm-3-2.9l.4-.1-.3-.3-.1.4zm2.3.5l-.3.4h.5l-.2-.4zm-3.6.6l.3-.3-.5-.2.2.5zm5 2.4l-.4.4.6.1-.2-.5zm-2.5 1.7l.4-.2-.4-.3v.5zm.2-3.4l-.5.2.3.3.2-.5z"/></g><linearGradient id="P" gradientUnits="userSpaceOnUse" x1="250.931" y1="123.13" x2="199.445" y2="158.571"><stop offset="0" stop-color="#997ebd"/><stop offset=".569" stop-color="#7c59aa"/><stop offset="1" stop-color="#6a4bb4"/></linearGradient><path d="M229.4 171.8S219 152 215.5 138.2c-3.5-13.7-7.3-28 8.8-36.1s28.1 8.9 34.4 19.2c6.4 10.4 14.8 26 14.8 26l-44.1 24.5z" fill="url(#P)"/><linearGradient id="Q" gradientUnits="userSpaceOnUse" x1="233.291" y1="134.435" x2="214.609" y2="147.336"><stop offset="0" stop-color="#6a4bb4" stop-opacity="0"/><stop offset="1" stop-color="#4f3282"/></linearGradient><path d="M219.4 105.4s1.6 13.6 13.1 29.2 26.8 20.5 26.8 20.5l-29.8 16.7s-9.3-18.8-12.4-28.7c-3.2-9.9-4.8-19.4-3.3-27.1s5.6-10.6 5.6-10.6z" fill="url(#Q)"/><path d="M229.4 172.4a.55.55 0 0 1-.5-.3c-.2-.3-.1-.6.2-.8l43.7-24.2c.3-.2.6-.1.8.2s.1.6-.2.8l-43.7 24.2c-.1 0-.2.1-.3.1z" fill="#51347a"/><linearGradient id="R" gradientUnits="userSpaceOnUse" x1="214.308" y1="108.905" x2="222.52" y2="157.878"><stop offset="0" stop-color="#744795"/><stop offset="1" stop-color="#51347a"/></linearGradient><path d="M228.9 172.1c-.1-.2-11.8-24.1-15.5-40.5-3.5-15.3 2.5-22.9 2.7-23.2l.9-.9c.3-.1-.1.4-.2.7h0c-.1.1-6 8.3-2.6 23.3 3.7 16.3 15.3 39.7 15.4 40l-.7.6z" fill="url(#R)"/><g fill="#be95f9"><path d="M240.9 109.1l-.7.1.4.7.3-.8zm-20.9-4.2l-.1 1.1 1.2-.3-1.1-.8zm-.7 4.1l.9-.3-.8-.6-.1.9zm-2-.5l.4-.1.2.7.2-.2-.1.5.7-.2-.5-.4 1.1-.9.1.1.5-1-.5.1-.3.1-.4-1.1-1 1.1 1.1.3.1.2h-.2l-1.2-.3.1.5-.1-.1-.2.7zm1.9-.8h0zm-.3-.1h0zm16.1-3.4l-.2.6.7-.1-.5-.5zm-10 4.2l-.5-.4h.1l-.1-1-.7.7.6.2-.1.6.7-.1zm-3.6-.2l-.1.7.7-.2-.6-.5zm-2 1.6l-.6-.5-.1.7.7-.2z"/><path d="M217.9 110.5l.8-.2-.6-.5-.2.7zm4.2.2h.5l-.2-.5-.3.5zm1.3-3.2l-.4-.2v.4l.4-.2zm5.5 2.3v-.5l-.4.1.4.4zm-2.7-.9l.4-.4-.6-.1.2.5zm6.3 1.3v-.4l-.1.1-.8-.4v.9l.6-.3.3.1zm2.8 1.8l-.2.5.5-.2-.3-.3zm-1.4 6.8l.5-.2-.3-.3-.2.5zm2.7-12.3l1-.3-1.4-1.1-.2 1.1h-.1l.1.1v.3l.2-.1.2.3.2-.3zm-20.5 4.4l.2-.6h-.6l.4.6zm1-1.7l-.4.4.6.1-.2-.5zm4.3-2.8l-.6.4.6.3v-.7zm-2.2-.4l-.1.5.6-.1-.5-.4zm6.1-.3h-.6l.3.6.3-.6zm-4.4 1.7l-.5.5.6.2-.1-.7zm-3.5 5l.6-.2-.6-.3v.5zm2.3-1.6l-.6.5.6.2v-.7zm2.3 1.9l.6-.2-.5-.3-.1.5zm-6.6-.6l.6-.3-.5-.3-.1.6zm4.6 1.8l.2-.6-.6.1.4.5zm-3.1-2.1l.4-.3-.5-.3.1.6zm-2.1 2.6l-.5-.3.1.6.4-.3zm.1-2.2l.1.6.4-.3-.5-.3zm-.2 4l.2-.6-.6.2.4.4zm0 2.4l.3-.6-.6.2.3.4zm.6-4.3l.6-.3-.6-.5v.8zm3.1-1.6l-.6.1.3.4.3-.5zm-1.4 2.7l.6.1-.3-.6-.3.5zm-.3 2l.6.1-.3-.5-.3.4zm-2.2 3.7l.2-.6-.6.1.4.5zm3.4-1.8l.6.1-.3-.6-.3.5zm-.2 3.5l.6.1-.3-.6-.3.5zm18.8-14.4l.5.5.3-.7-.8.2zm-.8 6.3l.3-.7h-.7l.4.7zm-3.1 1.3l.8.1-.2-.7-.6.6zm-2.3 1.5l.5-.2-.3-.3-.2.5zm2-4.3l-.8.2.5.5.3-.7zm-3.4 3l.3-.7-.8.2.5.5zm-2.5 3.5l.3-.7-.7.2.4.5zm-5.5-3.3l.3-.7-.7.2.4.5z"/><path d="M234.48 101.2l-.3.5h.3l-.6.3 1.5 1.1.1-.5.2-.2-.2-.1.2-.8.1 1.3-.1.1.2.1.1.8-.1.1-.8.4 1.5 1.1v-.1l.4.5.2-.5.5.7.1 1.1-1.5.4 1.3 1.3.6-1.6.2-.1.1.3.5-.5.8 1.1.1-.2.7 1.7 1.2-1.4-1.8-.5.6-1.2-1.5-.1.5-.2-.7-.4v.3l-.1-.1v.3l-.8-.3.5-.9.3.3.1-.3.3.2v.2l.1-.1.9.7.2-.6.3-.1.8.1-.2-.3.4.1-.2-1 .3-.6h-.5l.68-.9-1.08-.5-.4-.1-1.2-.4-.1-.2-.1.1-.1-.15.01.15-1.93-1.05-.97.05h-.9l.2.6-.5.3-.4-.3zm6.7 3.3l-.4.4-.1-.1-.3.5-.1-.1.3-.9.3-.3.3.5zm-2.4-2.6l-.2.3h.3l.1.9v.5l-.8.3-.1-.2v.1l-.1-.7-.7.7.6.2-.1.1-.4.1.4.4-1.1.2.3.4-.5.1.1-.7.4-.5h-.3v-.2l2.1-2zm3.62 5.3l.7-.1-.6-.5-.1.6zm-11.4-.8l.2-.2-1-.3.1.9.2-.1.2.2.3-.5zm-3.2-1.1l.1.5.5-.4-.6-.1z"/><path d="M230.3 107.4l-.4.7.8-.1-.4-.6zm4.2-2.4l-.4.8h.8l-.4-.8zm-11.26 1.74l.4.3v-.3h.1l-.1-.2v-2h.4l-.2-.2.7-.5.7.9-.3-.1-.2.1-.4-.1.1.4h-.1.1l.2 1 1.2-.8-.1.5.4-.1.1.1v-.1l.9-.2-.3-.2 1.8-1.5.7.5.1-.7.5.6-.8.5-.4-.1v.6l.4-.4.1.1-.3.5.8-.1-.2-.3 1.5 1 .3-2 .6.1-.3-.6-.2.4.1-.6-1 .5h-.4l.1.2-.2.1.3-1.2.4.5v-.3l.4-.2.4.3.1-.4.5-.1-.4-.5.1-.6.2.3-.2.2.4.1.5.9.1.3-.8.4.7.5h-.2l.2.6.2-.4.5.3.1-.6.2.2.3-.7-.4.1.2-1-.2.1 1.2-2.6-2.1.2.2-.3-1.8.2.6.9-.6.2.1.1-.6.3.4-1.6-1.6.5v-.1l-1.5.4.1.1-.3.1.3.4-.4-.3v.2l-.1-.5-.5.6v-.2l-2.4.46.4.64-.2.1v-.1l-.3.2-.6.2.2.2-.1.1h-.2l-.4-.1.1.3-1.4-.12-.47.27-.74.54-.08.7 1.5 1.2-.3.4.4.1-.5.3.6.3v-.6l.6.1.1.1-.1.2h.1v-.2zm3.8-3.9h-.2v-.1l.2.1zm-.3.5l.1-.3.2.4-.3-.1zm-1.8 1.3h0zm.3.2l.1-.1.1.1h-.2zm5.4-2.3l-.4.2.1-.3.3.1zm-2.5 0h.4l.2.2-.3.6.4-.1-.6.3.3.2-1.5-.3.2-.5.3.1-.1-.3.7-.2zm-3.34 6.36l-.4.8h.8l-.4-.8zm-.1 7.5l.5.1-.2-.5-.3.4zm3.6-1.7l-.2.4.5.1-.3-.5zm-1.8-3.3l.4-.6h-.8l.4.6zm5.2-.3l-.5.5.6.2-.1-.7z"/><path d="M224.8 112.9l.6.2v-.8l-.6.6zm-1 1.2l.5-.4-.6-.2.1.6zm4.2-7.4l-.5-.2v.2l-.1-.2-.6.7 1 .2-.2-.5.4-.2zm7.4-4l-1.1-.9v-.1.1l-.2-.2-.2.9v.1l-.1.5 1.6-.4zm.8 4.1l-1.9 1 1.5 1 .4-2zm-7.2-1l-.3 1.5 1.7-.4-1.4-1.1zm-.9.3l-.9-.8-.1.6-.3-.4-.4.7.6-.1v.1l-2.1.3 1.1 1.4.9-1.7 1.2-.1zm5.2-.8l.4.9.5-.9h-.9zm-4.9 7l.1-.2-.6.1.4.5.1-.2.9.2-.3-.9-.6.5zm3.2 4l1 .2-.2-1.2-.8 1zm7.3-1.7l.2.2.2-.4h.1l.4.8.2-.5 1.1-.3-1-1.3-.3 1.2h-.3l-.1-.1.1-.3h-1l.2.3-.5.2.6.8.1-.6zm-7.9-5.9l-1.2-.1.7 1 .5-.9zm6.6.3h-1l.5.8.5-.8zm-3.3 5.1l.9-.4-.9-.5v.9zm-.8-6.2h0l.5-.4-.5-.2v.2l-1.3-.4.7 1.6.6-.8zm12.9 8.6l1.7-1.2-.9-.2.1-1-1.4.6.1.1.4 1.7z"/><path d="M247.9 112.2v1.8l1.9-.8-1.9-1zm-2.3-1l1.7-1.6-2.8-.4.6 1.5-.4.6-.1.1v-.2l-.4.3.3.2-.1.1h.1l-.1.2h1l-.1-.1.8.1-.5-.8zm-3-3.3l-.9.6 1 .7-.1-1.3zm-3.8 12l.6-1-1.2.2.6.8zm4.2-6l-.6.7.9.3-.3-1zm1.3 9.2l.9-.6-.8-.4-.1 1zm-13.4-3.7l.3-1.2-1.1.5.8.7zm1.7-6.2l1-.1-.6-.8-.4.9zm4.5 7.4l.6-.8-.8-.2.2 1zm1.3-9.4l-.1-.1-.2-.6-.2.2-.3-.3.3-.2-.9-.7v.4l-.1-.1-.3 1.2h-.6l-.2-.7-.7 1 .6.1.3.5.6-.8-.1.6 1.9-.5zm-5.5-5.7l-.4-.2v.3l-.3.1.6.6.3-.6.2-.1-.1-.1.1-.2-.4.2zm-10 6.1l-.1 1.2 1-.4-.9-.8zm23.1-2.7l.8.5-.1-1-.7.5z"/><path d="M241.82 105.38h.2l-.1.6h-.1v.4l-.3-.5-.9 1.3.3.1-.1.1.6.4v-.3l.8.2-.4-.7 1.7-.9.1.2-.5.3.7.4v-.3l.4.6.6-.8.3.1-.2.2-.5.7.5.1-.3.9-1.5-1.2-.1.5-.2.7h.1l.2 1 .5-.1.4.5.4-.8.4-.1-.1.2 1.7-.6v.5l.5-.4-.3-.2.3-.1.6 1.6.8-.7-.6 1.4h-.2l.1.2-.3.6.4-.1.3 1 .5-.5.4.4v-.8l.5-.5h-.3l.5-.1v1.3l1.3-.6-1.4 2.5 3.9-.5-2.1-2.8-.1.3-.9-.4.7-.2-2.4-2.6-.2.5-1.5-.2.7-.3.1.1.1-.2.5-.2-.3-.3-2.3-2-.2.5v-.6l.1-.2-1.2.1.62-.33-2.77-1.88-.06 1-.4 1.5zm2.88 13.02l.6-1-1.2.2.6.8zm3.8-1l-.2-.2.1-1.5-1.4.6.8.7-.1.7.8-.3zm-6.7 1.9l1 .3-.4-.9-.6.6zm-.6-7.5l.2-.1-.7-.6v1h.1l-.3.6h1.1l-.2-.4.4-.2-.6-.3zm-3 .9l.8-.4-.8-.6v1zm.6 5.4l1.2-.3-.8-1.1-.4 1.4zm6.4-5.9l-.8.6 1 .5-.2-1.1zm6.2 8.4l-2-.9.1 1.9 1.9-1zm1.3.7h0l.1-1.7-1.4.7 1.1.8-1.1.5 1.3 1.1v-1.4zm-5.6-7.6v-.7l.5-.2-.7-.6-.2.4-.6.3 1 .8zm3.7 3.6l-.5.9 1-.2-.5-.7zm-8.2 1.3l.5-.7-1-.2.5.9zm-1.8 5.1l.8-.9-1.2-.1.4 1zm5.3-5l-.7.5.9.5-.2-1zm-.6 9.2l1-.4-.7-.6-.3 1z"/><path d="M246.8 123.4l.8-.9h-1.2l.4.9zm3.2-1.2l-.3.9h.3l.4.7.4-1h-.3l-.5-.6zm12 13.6l-1.4.6 1.3 1.2.1-1.8zm1.7-.3l.2-1.3 2.3.1-1.8-3.4-1.5 2.3-1.3-.8-.1 1.8.9-.3-.2.2h.7l-.4.2 1.2 1.2zm-4.6.2l1.9-.8-1.9-1v1.8zm4.1 5.2l1.4 1-.1-1.8-1.3.8zm-8.2-16.5l-.9.2-.3-2-1.6 1.1 2 1.1v-.1l.6.8.2-1.1zm-5.7 5.3l.7-.6-.9-.4.2 1zm2.3.1l-.3 1 1-.4-.7-.6zm-2.6-2.7l-.9.9 1 .3-.1-1.2zm0-5.6l-.9-.5v.9l.9-.4zm6.3 5.3l.2-1-.9.2.7.8zm-11.9-3.1l-.4.3.9.5-.1-.5.2.1v-1.2l-1 .8h.4zm.8-6.1l1-.2-.8-.6-.2.8zm15.5 13.5v-1.7l-1.4.7 1.4 1-.5-.2.2 2-.1.1h.1v.2l.3-.2.6.1-.2-.3 1.6-.9-2-.8z"/><path d="M258.8 124.3l.4-.5-1.1.1.5.8.1-.2.9.7-.8 1v-.9l-1.2.6-.1-.1v.2l-.3 1.9 1.7-.6-.1-.1h.5l-1.3 1.7 2.6.6-.4-.7.6.6-.9 1.2h1.8l-.1 1.7 1.9-.8-1.6-.9h2l-1.7-3-.2.2-.8-.5h.7l-1.6-3.1-.4.5v-.9l-1.1.5zm2.5 4.6l.1-.5.5-.2-.6.7zm-.6-1.7l-.1.9-.5.2-.5-1.1h1.1zm-.5 14.1l.9-.2-.6-.8-.3 1zm-3.4-17.5l-.2 1.4 1.7-.6-.8-.9 2.4-.1-1.8-3-.4.5-.1-.1.6-.8-1.1.1.5.7-1.5-.7.7-.4-1.7-.9 2.1.08-1.9-2.9-.2.32-1.2-.6 1.22.08-2-2.9-1.32 2.52-1.1-.5 1.4-.7-1.9-.9.1 1.8.3-.2.1 1.7 1.6-.8.5-.1-.8.4 1.4 1.1v-1.5h.5v1.8l.5-.2-.3.4-.9-.4v1.8l.6-.3 1.1-.1.1 1.7.3-.1.1 1.6.4-.2v.7l.9-.4-.6.8-1.8-.9.1 1.8 1.7-.8-.3.4h1v.3zm.1-2.1l.7-.3-.4.5-.3-.2zm1 7.8l-.2-1.7-1.2 1.2 1.4.5zm.1 3.2l-.8.8 1 .3-.2-1.1zm-5.3-4.6l-.2-1-.6.7.8.3zm2 .2l-.7.7.3.1-.4.4.8.2-.1-.6h.2l-.1-.8zm12 17.1l1.6-.4-1.2-1.5-.4 1.9zm-9.5-14.6h.8l-.4-.8-.6.7-.9-.7.1 2 1.4-.8-.4-.4zm4.3 13.7l1 .2-.3-1.1-.7.9zm-.4-6.4l.1.8.8-.4-.9-.4zm6.2 4.2l.6.7.1-.5.4.5.4-.8-.8.1v-.3l-.7.3zm-15.5-3.5l.9.2-.2-1-.7.8zm-.4-6.4l.1.8.8-.4-.9-.4zm6.8 4.9l.1-.9-.7.3.6.6zm.4 7.9l.9.4v-1.1l-.9.7zm1.7-5.8l-.8-.6-.1.8.9-.2zm4.9 5.6l.3-.9-.8.1.5.8zm3.8-.6l.3-1.4-1.2.4.9 1zm4.2 2.4l-.9-1.7h.1l-.2-.1-.3-.3h.3l-1.5-2.3-.4.6-.1-1.3h.1l-1.6-2.5h.1l-1.6-2.8h.1l-1.2-2.1-1.5 2.2v-.8l-1.4.6 1.3 1.2.1-1 1.5-.1-1.4.6 1.1 1-.6.7-1.8-1-.1 1.8 1.9-.7-.4.5 1.4-.1 1 .9.1-.9h1.2l-1.3 1.7-1.6-.7.2 1.8.3-.2-.1 1.7 1.5-.6-1.2-1.1.5-.3-.2.3h3.7l-1.1.6 1.1.8-.3.5-1.2 1.5 2 .6-.5.3.6.5-.6.7-.8-1-.4 1.9 1.6-.4-.4-.5 2.9-.5zm-7.1-10.4l1-.1-1.1 1.4.1-1.3zm4.2 8.4h.6l-.1.7h.1l-.3.2-.3-.9zm.9.6l.6-.1-.6.6v-.5z"/></g><g fill="#50297a"><path d="M226.3 135.7l-.1.8.7-.3-.6-.5zm-1.5-2.8l-1.2.2.6.8.6-1zM213.6 121l-.5 1.1h1l-.5-1.1zm5.2 25.1l.8-.8.2.1v-.3l.8-.8h-.3l.1-.7.5.3v-.7l-.6.4.2-.7-.8.2h-.6l.1-.1-.8.1h-1.3l1 2.7.2-.2.5.5zm.8-2l.2-.2.2.3-.4-.1zm-3.4-7.4l.6-1-.6.1.9-.8-1.3-.2 1.4-1.4h-.2l.3-.3-.8-.2.1.4-2.1-.2.6 1.6h-.2l.5 1.9.4-.4.4.5zm6 8.1l.1.1v-.2l.5-.2-.4-.5.1-.5.2.1.1-.8-.5.3-.5.1-.4-.5-.1.6h-.1l.1.1-.3 1.5 1.2-.1zm3.6 2.4l-.4 2.3 1.2-.4 1 1 .6-1.4-.9.1-1.5-1.6zm-8.5-8.7l1.9-.6-1.5-1.7-.4 2.3zm-2-13.3l-.3 2 1.6-.5-1.3-1.5zm2.8 7.9l1.1 1.6.8-1.5-1.9-.1zm4.6 5.2l.8-1.5-2-.2 1.2 1.7zm9 19.3l.8-1.5-2-.1 1.2 1.6zm3.7 2.5l.8-1.5-2-.1.7 1-1.7.2.8 1.3.9-1.5.5.6zm-19.8-28.5l.6-1-1.1.2-.5-1-.5 1.1h1l.5.7zm13.8.8l-.4.5.7.2-.3-.7zm-7.7 5.5h-1l.7.7.3-.7zm-1.2-4.7l.7-.4-.8-.3.1.7zm11.1 4.6v.5l.4-.2-.4-.3zm-1.3-2l-.4.1.2.3.2-.4zm3.3-.1l-.2.3.4.1-.2-.4zm-17.1-6.8l.7-.3-.6-.6-.1.9zm-2.1-4l-.7.1.4.5.3-.6zm5.3-.2l-.4.5.7.2-.3-.7zm10.5 31.8l-.5.3.5.4v-.7zm-6-6.3l-.6-.6-.1.8.7-.2zm3.7-1.9l-.3-.6-.3.4.6.2zm3 2.1l.4-.6h-.7l.3.6zm10.2 9l1.6-1.1-1.5-.8-.1 1.9zm8.7.3v-.8l-.8.4.8.4zm7.7-4.4v-.8l-.9.3.9.5zm-20.5 9.3l.6-.2-.5-.5-.1.7zm2-5.2l.4-.5h-.7l.3.5zm.6 2.1l-.7.1.3.5.4-.6zm-9.8-9l-.5.3.5.2v-.5zm-2.8.9l-.1.4.4-.1-.3-.3zm1.2-2.9l.2-.4h-.4l.2.4zm-2.8-5.3l.5.2-.1-.5-.4.3zm2.5 1.1v.4l.4-.2-.4-.2zm-1.3-7.7l-.4.3.5.2-.1-.5zm2.2 1.4l-.1.4.4-.2-.3-.2zm-3.2 1.8l.1-.4-.4.1.3.3zm-5-2.9l-.4.3.5.2-.1-.5zm2.3 1.4v.4l.4-.3-.4-.1zm-3.1 1.5h-.4l.3.3.1-.3zm-2.1-14.7l-.4.3.5.2-.1-.5zm2.2 1.4l-.1.4.4-.2-.3-.2zm-3.4 1.5l.3.3.1-.4-.4.1zm32.4 19.7h-.5l.3.5.2-.5zm-.9 5.6l-.3.3.5.1-.2-.4zm-3.8-2.7l-.4-.2.1.5.3-.3zm-3.8-3.4h-.4l.3.4.1-.4zm-.7-4.4l-.3.3.4.1-.1-.4zm2 2.1h-.5l.2.5.3-.5zm-.6 4.8l-.3.3.4.1-.1-.4zm-3.5-2.1l-.4-.2v.4l.4-.2zm-3.8-7.1l.2-.5h-.5l.3.5zm-.3 4.4l-.3.3.5.1-.2-.4zm-3.9-2.4l.1.4.3-.2-.4-.2zm13.2 10.6l-.4.5h.6l-.2-.5zm-6.3-1.3l.3-.2-.4-.2.1.4zm-3.1-3.3l.3.2v-.4l-.3.2zm.2 10.1l-.6-.4-.2.8.8-.4zm-4.7-.5l-.2-.6-.4.5.6.1zm24.4-3.4v-.7l-.7.3.7.4z"/><path d="M251.5 158.1l.5-.1-.4-.5-.1.6zm3.1-1.4l.5-.1-.4-.5-.1.6zm-1-3.3l.4-.5h-.7l.3.5zm-5.3 4.3l.6-.6-.7-.2.1.8zm-.2 2.4l.6-.5-.6-.2v.7zm-.4-.6l-.6.2.5.3.1-.5zm-3.6-1.3l.6-.1-.4-.5-.2.6zm11-7.3l-.7-.1.2.7.5-.6zm-.3 4.2l.6.2-.1-.5-.5.3zm-4.3-2.5l.5-.2-.5-.4v.6zm-2.7 5.3l-.5.6h.8l-.3-.6zm-3.1 3.2h0l.7-.2-.5-.4-.1.4-.4-.2.1.6.2-.2zm-.6-5.5l.4.4.2-.6-.6.2zm16.2-4l.2.7.5-.6-.7-.1zm-2 2.2l.6.3v-.6l-.6.3zm-1.8-1.1l-.1.6.5-.2-.4-.4zm-15.7 7.1l-.3.5.5.1-.2-.6zm2 .1l-.4.5.5.1-.1-.6zm-7.7 1.4l.6-.3-.5-.3-.1.6zm-2.3-3.7l-.2.7.6-.3-.4-.4zm5.5-.9l-.1.7.6-.3-.5-.4zm-.8 3.5h-.6l.4.4.2-.4zm-3-3.6l.5.1-.2-.5-.3.4zM227 144l.4-.6h-.6l.2.6zm-5.2-1.5l.7-.1-.5-.5-.2.6zm3.4 4l.3.6.3-.6h-.6zm0-.8l-.4-.6-.4.7.8-.1zm-5.6-9.9l-.6.4-.3-.7-.5 1.1h1l.4.2v-1zm1.4-4.3l-.6-.6-.2.7.8-.1zm3.6 5.6l.4-.7h-.7l.3.7zm-6.1-6.1l.5.6.4-.7-.9.1zm7.2-.4l-.4.6.8.2-.4-.8zm-4.4-.1l-.1.8.7-.3-.6-.5zm-2.1-3.1l-.7.1.3.5.4-.6zm5.2-.2l-.4.5.7.2-.3-.7zm-7.5 3.8l-.1.8.7-.3-.6-.5zm-2.2-3.1l-.7.1.4.5.3-.6zm5.6.4l-.3-.6-.4.5.7.1zm-3.1 5.5l-.8.5.7.4.1-.9zm1.4-4.4l-.6-.6-.2.7.8-.1zm3.3 5l.1.3-.1 1 .8-.3-.4-.4.3-.5h-.7v-.1zm-4.2 6.1l-.2 1.9 1.7-1.1-1-.7.1-.7-.5.3 1.1-1.1-2.5-.3 1.1-1.6-1.8-.3.3.8-.1.2h.2l.3.9.8 2.1.5-.4zm2.9 0l-.2.6.7-.1-.5-.5zm5.9 9.1l-.7.5.6.4.1-.9zm-1.7-6.5l.7-.5-.8-.2.1.7zm4.5 7.4l-.5-.4-.1.5.6-.1zm-.8 3.4l-1.4.6 1.4 1.1v-1.7zm-.3-3.3v2.1l1.6-1.3-1.6-.8zm-5.8-.3l-.7-.4v-.1l.4-.7v.1l.4-.4v.6h-.2l.2.3v.5l2.1-1.6-2.1-1.2v.6l-.3.1.1-.2-.7.1.2.2-1.4.2v.1h-.9l1 2.1.3-.4v1.4l1.6-1.3zm.1-1.5l-.2-.1.2-.4v.5zm-1.3.8l.2.2-.3-.1.1-.1zm4.2-2l-.4-1.7-.7.6-.2-1v.1l.3-.6h-.6l.2.4-.8.6 1.1.5-.4.4 1.5.7zm.5 4.9l.5-.5.8 1.2.8-1.5-2-.2.1.2h-.6v.1l-1.1.2.6.8-.4 1.7.1.6.6-.4-.7-.2 1.5-.7-.1.5.7-.3-.4-.3h.1l-1.2-1.1.3-.7.4.6zm4.1-7.3l.9-.1-.6-.9-.3 1zm5-.3l-.7-.8-.5 1.1 1.2-.3zm-6.8 2.6l.9.6-.1-1-.8.4zm7.7 4.2l.8-.7-1-.2.2.9zm-9-6.7l.6-.8-1.2-.2.6 1z"/><path d="M223.8 139.4h.2l-.5-.5v.1l-.2-.3-.4.9.9-.2zm-3.4 8.8l.4-.8.4.4v-1.1l.8 1.1.6-1.9.3.4.6-1-.7.1v-.1l-2.2.3-.5-.6-.5.9-.2-.3-.5 1.1h.3l-.1.2 1.5-.3h-.1l.5.3-.7.3.1.1-.4.1-.2-.6-1.2 1 1.7.7.1-.3zm11.3 2.2l.3.6.5-1.1h-.6l-.4-.5-.5 1.1.7-.1zm-.8 3.6l.3 1 .7-.6-1-.4zm2.8-6.4l-.8.4.8.6v-1zm-8.4 1.1l.1-1-.5.2v-.1l-.4.1.8.8zm3.8 15.6l.5-.5.5.8.8-1.5-.9-.1-1.7-.6.8 1.9zm2.6-5.2l-.1.2-.1-.1-.5 1.1h1l-.1-.2.6-.1-.8-.9zm4.8-3.5l.7-.6-1-.4.3 1zm.2-13.5l-1-.4.1 1.2.9-.8zm-4.6 4.5l-.5.7 1 .2-.5-.9zm8.6.3l-.9.3.5.6.4-.9zm-9.1 14.1l-.3.3.3-.4-.9-.3.1.6-.6 1 2.1.8-.7-2zm4.7-9.1l.4.8.6-.8h-1zm-4.1 2l-.1-1.5-1.7.9 1.5.7-.3.1.7.5h-.3l.3.6.3-.6h-.1l.2-.6.6.3v-.7l-.6.3v-.1l-.5.1zm-4.8-3.1l-.8-.5v1.1l.8-.6zm-6.5-18.5l1.2.2-.3-1-.9.8zm-5.6.6l.3-1-.9.1.6.9zm4.9 6.1l1-.3-.8-.6-.2.9zm14.3 18.5l1.2.3-.2-1-1 .7zm-4.2 3.3l-.4-1.4-.5.5-.2.1-.6.5 1.7.3zm4-8.3v-.9l-.9.5.9.4zm5-2.9l-1 1 1.3.2-.3-1.2zm-1.9 7.5l-.2 1 1.1-.3-.9-.7zm-4.2 5.9l1.4.2-1.1-1.8-1 1.5.7.1-.8.5.6.3-.1.3.7-.1.1.4.6-.6-.7-.2-.3-.2-.1-.4zm11.8-1.2h-.6l.4.5.2-.5.2.4.6-1-1.2.1.4.5zm-1.7.3h0l-.4-.7.9.1-.7-1.2-.7 1h.3l-.8 1.1 1.1.2h.3l.1.7.6-.5-.5-.1-.2-.6zm-7.3-8.3l-.9-.3.3 1.1.6-.8zm-4.1 5.3h.9l-.5-.7-.4.7zm8-.4l.3-.9-.8.3.5.6zm-2.2 4.3l.2-.6-1.6.1 1.6-.4-1-1.3-.8 1.7h-.2l.6.8-.1.1-.8-1.1-.8 1.8 1.9-.4-.1-.2.3.2.4.5v-.1l.1.2.7-1.3h-.4z"/><path d="M240.9 162.4h-1l.2.5-1.9-.7v1.8l-.5-.3.2 1.9-1 .2-.8-.5v-.3l-.2.1-.3-.2h-.1l-.5.2-.9-1.4-.8 1.3h-.5v.1l-1.5.2.6-.2-.3-.3.1-.2h-.3l-.6-.7-.5 1.4-.1-.1-.3.5h-.1l-.9-.6.5-.1-.4-.6-.2.6-.5-.3v.3l-1.6-.6.4-.6h1.1l-.4-.9.5-.7v.3l.5-.5-.3-.1.4-.5h-1.4l1.2-1.1-1.5-.5h.5l-.2-.3.2.1h.1l.3.1-.1-.2 1.6-.6-.5-.4 1-.9-1.1-.6.3-.6h-.3l.1-.2 1.4-1-1.6-.9-.1 1.3v.2l-1.1.2h-.1l.2-.4-1.3-.1-.3-.1v.1h-.4l.4.6v.4l-.4-.3-.1.6-.4-.8-.4.8-.4-.2.6-.9-2.6.1.7-.7.9-.4-.3-.2.4-.4h-.4l-.3-1.3.7.4v-.7l-.7.4-1.1.9.5-.7v.1l1.3-1v.3l.7-.3-.6-.6v.2l-1.4-.7v.7l-.4.4.4.1v.2h-1l.4-.7-1.2.2.4.5h-.7l1 2.2.1-.2.4 1.1v.2h.1l.1.3h-.1l1.1 2.3.4-.5v.3l.4-.3.1 1.1.3-.3.2.2.2-.5.6-.5-.1.9.7-.4-.1.9h-.2l-.1-.3-.1.3h-1.4l-.2-.2v.2h-.1l.1.2v.5l.2-.1 1 2v.1h-.2l1.5 3.2.1-.1.6 1.8.1-.1v.1h.1l.9 2.4.9 2.3.9-.9v.2l.8-.5.2.2.1-.2v-.2l.4-.2-.2-.1.2-.6.4 1.7 2.6-1.8.1.3 2.7-1.6-.3-.2.1-.2.5-.3-.2-.2.3-.6.1 1.1 2.4-1.4-2.2-1.3.8-.5-.1-.3.6-.3-.4-.3.9-.5.1.3-.1-.1-.7 1.3h1.7l-.8-1 .6-.7v.2l-.2.1.2.1v.1h-.5l.3.5.3-.4.3 1.4 2.3-1.5-2.9-1.5.2.7zm-18.5-8.9l.1-.2.3.2v.1l-.4-.1zm4.4 7.8h0-.3l.7-.8.2.7-.6.1zm1.1-2.7l-.4.4-.1-.2.8-.5-.2.7-.1-.4zm-.1-2.5l.5.7.3.8-.1-.1-.2.5-1-.7.3-.3-.2-.1-.3-.2.1-.2.6-.4zm-3.6.8l.2-.2v.3l-.2-.1zm1.5-.1h.1v.1l-.1-.1zm1.4 2.2l.1-.1-.3.6h-.1v.2h.1l.1.4-.7-.1.8-1zm8 6.3l.4.4.1-.3.2.1v.6l-.9-.5.2-.3zm.6-.1l-.1.1.1-.3v.2zm-2.2 1l-.2 1-.3.1v-.1h-.1l-.5-.3.5-.3-.5-.2.8-1.3.3 1.1zm-1.3.7h0v-.1.1zm-2.1-.8l-.3.6-.5-.2.8-.8-.2.4h.2zm-1.6-.7h-.2l.2-.2v.2zm.5 2.7l-.1.4-.2-.1.3-.3zm1.8.5l-.5-.4v.6l-1-.3 1.4-.5-.7-.5h.1l1.6-.1-1.1-1.3h.5l-.3-.7.9-.3.8 1.3-.2-.1v.2h-.5l-.3-.2.3 1.3-.2.1.3.1.1.3-1.2.5zm2.8-.9l.2-.4v.1-.1l.6-.1.3 1.2-1.1-.7zm13-6.8h-.1l.1.1v.7l1.5-1-1.7-.6.2.8zm-6-1l-1.7.2.8 1.3.9-1.5z"/></g><path d="M171.1 237.63c.05-1.36-.54-5.48-.92-8.36-.35-2.66-1.66-4.38-2.04-4.83l.18-4.8c.07-.2-.15-.48-.37-.45-.2-.07-.48.15-.45.37l-.15 5.03c-.03.1.06.13.12.25-.03.1 1.53 1.7 1.9 4.57l.95 8.26c.02.85-.26 1.07-.4 1.13-.37-.13-1.57-1.66-2.73-5.66-.01-.1-.04-.2-.08-.28h0c0-.01-.01-.01-.01-.02-.07-.12-.22-.26-.42-.23-.54-.16-2.1-.74-3.17-2.15-1.25-1.6-.9-4.75-.9-4.75-.03-.22-.2-.38-.37-.45-.22.03-.38.2-.45.37.06.13-.35 3.47 1.1 5.36 1.1 1.38 2.48 2 3.27 2.3-.25 1.3-1.1 6.75-1.1 9.78v.63c-.06 2.94-.07 3.26-.55 3.73-.16.16-.3.22-.5.25-.4-.04-.72-.36-.97-.55l-.43-8.28c.5-.23 1-.5 1.48-.88.16-.16.26-.44.1-.6s-.44-.26-.6-.1c-3.54 2.6-7.3.65-7.5.58-.28-.1-.54.03-.6.2-.1.28.03.54.2.6.06.13.35.23.82.4a9.01 9.01 0 0 0 1.59.39l.93 7.03c.06.13.3 2.22 1.7 2.7.85.3 1.58.02 1.8-.33.25-.22.4-.46.47-.68.15.1.3.2.5.28.2.07.38.13.6.1.35-.1.73-.28 1.2-.75.7-.8.68-1.35.74-4.3l.01-.63c.02-2.2.48-5.97.82-8.18.9 2.63 1.94 4.48 2.67 4.84.28.1.5.07.63.01.37-.18.9-.52.86-1.9zm-9.54 10.77c-1.08.05-1.5-1.47-1.62-2.04l-.9-6.82a7.74 7.74 0 0 0 2.84-.39l.45 8.25c.02.04.02.07.03.1-.02.33-.2.86-.8.9z" fill="#cc7a5e"/></svg>