<svg xmlns="http://www.w3.org/2000/svg" viewBox="0 0 480 480" xmlns:v="https://vecta.io/nano"><path d="M322.2 139.2l3-2.1 6-4.5c1.5-1.2 11.2-16.7 11.2-16.7l-8.5-3.6-10.5 6.8-4.5 8.2 3.3 11.9z" fill="#da7f57"/><path d="M340.1 102.6l4.1.9c.8.2 1.2 1.2.7 1.8l-17.2 21.2-7.9-2.5 18-20.6c.6-.6 1.5-.9 2.3-.8z" fill="#1f2b36"/><path d="M301.3 140.5s12.6-11.4 14-14 1.7-4.4 1.9-6.5c.2-2 3.2-3.9 4.9-5.3s8.4-3.4 8.4-3.4 1.2.8-.7 3.8c-1.9 2.9-5.8 4.4-5.8 4.4s-1.5 3.4-2.6 5.1l-1 1.7s1.2-.2 3.6 2.9.7 7.8.7 7.8l-14.8 20.3-8.6-16.8z" fill="#e89976"/><path d="M335.5 110.7c.9-1.5 3.4-.4 4.3.3s4.1 2.2 3.1 3.9c-1.1 1.7-2.5 1.8-4.6.6s-3.5-3.5-2.8-4.8z" fill="#ea9d7d"/><path d="M340.7 116.7c-.9 0-1.8-.4-2.6-.8-1.5-.9-2.8-2.3-3.1-3.6-.2-.6-.1-1.2.2-1.7s.8-.8 1.3-.9c1.3-.2 2.9.5 3.6 1.1.1.1.3.2.6.4 1 .6 2.6 1.6 2.8 2.8.1.5 0 .9-.2 1.3-.8 1-1.7 1.4-2.6 1.4zm-3.7-6.4h-.3c-.4.1-.6.2-.8.5s-.2.6-.1 1.1c.3 1.1 1.4 2.4 2.7 3.1 2 1.1 3.1 1 4-.5.1-.2.2-.4.1-.7-.2-.8-1.6-1.7-2.5-2.3-.2-.2-.5-.3-.6-.4-.5-.2-1.6-.8-2.5-.8z" fill="#cc7a5e"/><path d="M329 120c.3-1.8 3-1.6 4.1-1.3s5.3.8 4.9 2.8-2.3 2.3-4.7 1.9-4.5-2-4.3-3.4z" fill="#ea9d7d"/><path d="M334.9 124c-.7 0-1.2-.1-1.6-.1-1.8-.3-3.4-1.2-4.2-2.3-.4-.5-.5-1.1-.4-1.7s.4-1 .9-1.3c1.1-.7 2.8-.5 3.8-.3.2 0 .4.1.7.2 1.7.4 4.9 1 4.5 3.2-.6 1.9-2.3 2.3-3.7 2.3zm-3.3-5.1c-.6 0-1.2.1-1.7.4-.3.2-.5.4-.5.8-.1.3 0 .7.3 1 .7.9 2.2 1.7 3.7 1.9 3.3.5 4-.6 4.2-1.6.3-1.3-2.6-1.9-3.9-2.2-.3-.1-.5-.1-.7-.2-.3-.1-.9-.1-1.4-.1z" fill="#cc7a5e"/><path d="M327.2 124.2c.3-1.6 2.7-1.4 3.7-1.2 1 .3 4.2.6 3.8 2.4s-1.4 2.3-3.6 2c-2.2-.4-4.2-1.9-3.9-3.2z" fill="#ea9d7d"/><path d="M332.2 127.9c-.4 0-.8 0-1.2-.1-1.6-.2-3.1-1.1-3.8-2.1-.4-.5-.5-1.1-.4-1.6s.4-.9.8-1.2c1-.7 2.7-.5 3.4-.3.1 0 .3.1.6.1.7.1 1.6.3 2.3.7 1.2.6 1.3 1.4 1.2 2-.4 2-1.6 2.5-2.9 2.5zm-2.7-4.7c-.5 0-1.1.1-1.4.3s-.4.4-.4.7c-.1.4.1.7.3 1 .6.8 1.9 1.5 3.3 1.7 2.3.3 2.9-.3 3.2-1.6.1-.3 0-.7-.8-1.1-.6-.3-1.5-.5-2.1-.6-.2-.1-.5-.1-.6-.1-.6-.2-1-.3-1.5-.3z" fill="#cc7a5e"/><path d="M331.4 115.2c.7-1.7 3.7-1.1 4.9-.7 1.2.5 5.5 1.8 4.6 3.7s-2.8 1.8-5.4 1.1c-2.5-.6-4.7-2.6-4.1-4.1z" fill="#ea9d7d"/><path d="M338.3 120.3c-.9 0-1.9-.2-2.9-.5-2-.5-3.7-1.8-4.4-3.1-.3-.6-.3-1.2-.1-1.7.9-2.1 4.3-1.3 5.5-.9a.76.76 0 0 1 .4.2c1.3.5 3.9 1.4 4.5 2.8.2.4.3 1.07.01 1.47-.6 1.5-1.7 1.73-3 1.73zm-4.5-5.8c-.9 0-1.7.2-1.9.9-.1.3-.1.6.1 1 .5 1.1 2.1 2.2 3.8 2.6 3 .8 4.2.6 4.9-.9.1-.2.1-.4 0-.6-.4-1-2.9-1.9-4-2.4-.2-.1-.3-.1-.4-.2-.7-.2-1.6-.4-2.5-.4z" fill="#cc7a5e"/><path d="M256.5 127.8s6 13.1 12.1 18.9c5.9 5.7 10 5.8 13.9 3.4 3.3-2 14.1-10.5 17.4-13.2.5-.4 1.3-.4 1.8.1l17.4 17.9c.5.5.6 1.4.1 2-3.2 4.4-15.9 21.2-28.1 29.4-13.6 9.1-20.8 10.2-32.3 5.2-15.5-6.5-2.3-63.7-2.3-63.7z" fill="#642c1e"/><linearGradient id="A" gradientUnits="userSpaceOnUse" x1="300.46" y1="147.35" x2="278.796" y2="156.079"><stop offset="0" stop-color="#552828" stop-opacity="0"/><stop offset="1" stop-color="#441814"/></linearGradient><path d="M288.4 146.1l24 19.9s-15 17.5-24.5 22.5c-6.7 3.6-18.7 11.1-25.2 2.9-13.1-16.6-6.9-63.1-6.9-63.1s12.5 24 21.3 23.7c6.3-.3 11.3-5.9 11.3-5.9z" fill="url(#A)"/><path d="M229.78 102.1s18.9-1.53 29.4 25.8c1 2.58 2.35 7.1 3.1 10.5l17.13 75.9c1.3 3.4-1 6-6.3 3.2-5.2-2.9-5.8-6.6-7.1-13.9-1.4-7.4-36.23-101.5-36.23-101.5z" fill="#884130"/><path d="M235.5 207.7h30.7s-3.7-43.1-7.4-65.2-12.1-41.7-35-41.7c-10.7.3 11.7 106.9 11.7 106.9z" fill="#fffbdc"/><path d="M200.8 119.1l-23.4 93c-2.3 8.1 1.3 8.2 7.9 8.1 5 0 39.5-1.2 47-2.9s12.3-8.2 13.7-22.1c2.5-25.2-.5-72.8-1.5-79.7-.8-5.7-6.1-9.9-9.6-11.8-3.4-1.8-12.6-3.7-19.5-2.1-6.7 1.8-11.2 3.9-14.6 17.5z" fill="#7a3a2b"/><linearGradient id="B" gradientUnits="userSpaceOnUse" x1="223.122" y1="185.511" x2="202.858" y2="161.284"><stop offset="0" stop-color="#552828" stop-opacity="0"/><stop offset="1" stop-color="#552828"/></linearGradient><path d="M239.2 123s5 12.6-.7 28.5c-3.9 10.6-10.8 33.7-24 42.4-13.2 8.6-17.3 14.7-22.1 18.3s-14.9.5-14.9.5l14.3-54.1 47.4-35.6z" fill="url(#B)"/><path d="M164.2 175.9c-3.6 6.7-3.4 7.1-2.3 21.4 1 14.3 5 43.6 5 43.6s-1 6.3 1.7 13.6c2.8 7.2 3.8 7.8 4.3 8.7.6 1 1.7-.3 1.7-.3s.8 2.2 2.1 2.3c1.3 0 1.3-1.5 1.3-1.5s.9 1 1.8.7 1.1-3.4 1-5.6c0-2.2.1-7.7.2-8.7 0-1 1.1 2.1 1.9 3.7.7 1.6 2.9 2.1 2.2-.9-.7-3.1-.7-5.88-.9-6.68-.3-.8-.87-2.87-1.57-4.17S181.5 241 181.5 241s-.7-1-.3-4.2 3.4-34.8 4.5-39.6c1.4-6.4-18.4-27.1-21.5-21.3z" fill="#ea9d7d"/><path d="M166.9 240.2c-.2 0-.3-.2-.3-.4 0-.4-4.9-40.8-5.8-54.1-.8-11.7 2.2-18.3 4.7-21.8 1.7-2.4 3-3.7 3.2-3.8s.5 0 .6.2 0 .5-.2.6c0 0-1.8 1.7-4 5.3-3.6 6.1-3.9 13.9-3.5 19.4.9 13.2 5.8 53.6 5.8 54 0 .2-.1.4-.4.5 0 .1 0 .1-.1.1z" fill="#cc7a5e"/><linearGradient id="C" gradientUnits="userSpaceOnUse" x1="188.148" y1="219.271" x2="199.435" y2="222.396"><stop offset="0" stop-color="#cc7a5e" stop-opacity="0"/><stop offset=".924" stop-color="#aa5f4b"/></linearGradient><path d="M191.1 189.3c-1.2 1.2-5.5 6-6.3 10.8-.8 4.7-3.3 35.5-3.3 35.5l-.4 5.5s.4-.6 1.7 1.7 2.5 9 2.8 10.5-.1 1.6-.5 1.7c-.4.2-1-.2-1.3-.8-.4-.6-2.6-5.1-2.6-5.1s-3.1 0-4.2-2.5-.9-5.6-.9-5.6-8.1-40.3 0-54.2c7.4-13.1 16.1 1.3 15 2.5z" fill="url(#C)"/><linearGradient id="D" gradientUnits="userSpaceOnUse" x1="174.305" y1="241.124" x2="173.728" y2="230.847"><stop offset="0" stop-color="#cc7a5e" stop-opacity="0"/><stop offset=".924" stop-color="#aa5f4b"/></linearGradient><path d="M165.5 230.3l1.6 12.2 14.6-2 .2-10.1-16.4-.1z" fill="url(#D)"/><linearGradient id="E" gradientUnits="userSpaceOnUse" x1="199.854" y1="170.119" x2="153.262" y2="141.719"><stop offset="0" stop-color="#884130"/><stop offset=".98" stop-color="#af614e"/></linearGradient><path d="M157.6 231l30.3-.6c.9 0 1.6-.7 1.7-1.6.2-2.6.5-8.1.6-14.9.3-11.8 2.7-27.7 12.3-39.6 17.4-21.7 26.5-27.9 34.1-34.9 12-11.1 7.7-25.7 1.6-32-8.5-8.8-23.1-10-36.6.5s-31.3 28.6-40.5 52.9c-9 23.8-8.2 46.8-5.1 68.9 0 .7.7 1.3 1.6 1.3z" fill="url(#E)"/><linearGradient id="F" gradientUnits="userSpaceOnUse" x1="314.32" y1="138.507" x2="308.291" y2="145.34"><stop offset="0" stop-color="#cc7a5e" stop-opacity="0"/><stop offset="1" stop-color="#aa5f4b"/></linearGradient><path d="M310.8 133c7.9 6.2 10.9 7.9 10.9 7.9l-7 9.7-11.6-11.9 4.9-4.5c1-.5 1.8-1.9 2.8-1.2z" fill="url(#F)"/><g fill="#bf735c"><path d="M166.8 156.7v-1.8l-1.4 1.1 1.4.7zm4 .3l.2-.2-.4-.2-.1-1.5-1.3 1.2 1 .4v.2l-.4-.2.6 1.9-.4-.6-.9 1.4 1.7-.2-.3-.5 1.3-1.2-1-.5zm-5.6-1l1.4-1.1-1.8-.9 2.6.1.3 1.5 1.4-1.1-.4-.2.7-.5-.5-.3 1.4-1.1-.4-.2.6-.4-1.7-1 .1.8-.4-.2-1.4-.8h2.8l-2.5-3.2-1.3 3.2-.1.1.8.3.2 1.5.5-.4.2.3.3-.6.2 1.4-.6-.4.1 1.1-.1-.1-2.1-3-1.5 3.1h.7l.5 2.1zm-3.5 28.1l-2-.6.8 2 1.2-1.4zm.4-4.7l-1.7-.7.1 2 1.6-1.3zm-2.9 3.9l1.6-1.4-1.7-.7.1 2.1zm9.1-20.6v-.7l.6.6.3-1.1-1 .4v-1l-1.4 1 1.5.8zm1.3-8l1.5.2-.5-1.7-1 1.5zm-5.6 32.7l-.2-1.7-1.3 1.3 1.5.4zm2.7-24.7l-1.1.7.9.5.2-1.2zm1-6l-.3.8 1-.1-.7-.7zm4.8 6.7l.4.9.5-.9h-.9zm5-1.1l.5-.9-1.2-.1.7 1zm-6-2.7l-.7.7.8.3-.1-1zm6-4.1l.9-.4-.9-.5v.9zm4.8 9.6l.2-1-1.2.3 1 .7zm-7 .2h.9l-.5-.9-.4.9zm4.8-6.7l.8-.6-1-.2.2.8zm-7.7 40.6l.4-1-1.2.1.8.9zm-6.4-1.7l-.6.8.9.1-.3-.9zm6.1-5.5l-1-.3.2.9.8-.6zm-1.8 2.9l-1.2.1.8.9.4-1zm-6.7-.6l-.5.8.9.1-.4-.9zm5.1-6l.1.9.8-.6-.9-.3zm-5.5 11.6l-.1 1.2.9-.4-.8-.8zm4.2-5.2l-.5.7 1 .2-.5-.9zm-2.1-9.6l-.7-2.1-.6 1-.2-.3-.6 1h.4l-.1.2 1.8.2zm2.7-3.1l.8-.6-1-.3.2.9zm-8.4 7.8l.6-.7-.9-.3.3 1zm-1.5-8.2l.1-1-.3.2v-.4l-1 .2.5.4-.1.1.8.5zm15.9-7h-1.6l1 1.3.6-1.3zm-1.6-7.8l1.2-.7-1.3-.5.1 1.2z"/><path d="M156.6 186.6v-1.2l-1 .8 1 .4zm12.1-22.1l1.2.1-.4-1-.8.9zm-4.2 4.4l.7-.5-.2-.1h.1l-.8-.6-.2.9.4-.1v.4zm.1-9.3l-.9.5.7.5.2-1zm-1.4 4.8h2.4l-1.1-2.5-1.3 2.5zm2.3-2.7l1.8-1.6-2.5-1.2.7 2.8zm-7.3 30.4l1.5-1.8-2.6-.7 1.1 2.5zm2.5 1.1l.7-2-1.7.3 1 1.7zm-.8-4.6l.7-1.9-1.8.3 1.1 1.6zm3.2-22.9l-1.5 1.1 1.4.7.1-1.8zm-3 .8l1.4.7v-1.4l1.7-.2-1.6-1.7 1-.8.4.2.1-1.7-1.4 1-.8-.4.3 1.3-.6-.6-1 3.3 1.5-.2-1 .5zM173 158l.8.9.4-1-1.2.1zm0-1.4l.9-.4-.7-.6-.2 1zm2.5 3.3l.9.2-.3-1-.6.8zm-7.2 1l-.3-1-.6.9.9.1zm-11.8 24.5l.9-1 .8 2-.6.4.8.4v-.6l1.5-1.8-2.3-.6.1-.1-1-.3 2.5-.6-3.2-2.5-.6 3.4.5-.1.6 1.4z"/><path d="M156.6 194.7l.4-.4v.6l2.3-1.6-2-1 .5-.6-2.6-.7.8 1.9-.2-.1.7 1.8-1.9-1.5-.6 3.4 3.7-.9-1.1-.9zm.5-2.2v.7l-.4-.1.4-.6zm6.5-32.5l1.2-1-1.7-.8 2.3-.2.1.8 1.4-1.2-1.8-.9v.2l-1.7-1.9-1.1 3.3.6-.1.3 1.5-1.2-1.3-1.1 3.3 3.8-.3-1.1-1.4zm1.3 13.5l-.7.9 1.2.2-.3-1.3-.2.2-.1-1.7-1.3 1.2 1.4.5zm-1 1.4v-1.2l-1 .8 1 .4zm6.7-1.3l-.9.1.5.9.4-1zm1.5 5.8l1.2 1.1.4-1.4-1.6.3zm-7.5-.5l-.7 1.2h1.2l-.5-1.2zm6.2-8.4l.3 1.2 1.1-.8-1.4-.4zm-4.1 3.2l-.7 1h1.2l-.5-1zm-4.8 5.6l.7-.6-.9-.4.2 1zm-1.8-4.2l2.4-.1-1.2-2.4-1.2 2.5zm.8 2.5v-1.7l-1.4 1.1 1.4.6zm-3.5-.5l1.4.6v-1.3l1.6-.3-1.7-1.6.4-.4.9.3-.1-1.6 1.5-.3-1.3-1.2.7-.7.7.4v-.2l.7 2 1.6-1.8-2.3-.8v-.2l-.3.1h-.1v.1l-.4.2.3-.3-1.7-.6 2.1-.4.2.7 1.3-1.3-1.9-.7.1.2-2-1.7-.7 3.4.7-.2.5 1.5-1.4-1.2-.7 3.4.3-.1.2.8-.7-.6-.8 3.4 1.4-.3-.5.7zm2.4-4.3l-.6.5-.7-.3 1.3-.2zm5.2-1.2l-.4-.9-.4.9h.8zm-8.3 5.2l-.8 3.4 3.8-.7-3-2.7zm-2.2 13.3l1.7.6-.1-1.5 2.1-.5-3.2-2.5-.6 3.4.9-.2-.8.7zm5.4 5.2v.9l.9-.4-.9-.5.5-.6-.9-.3.4.9zm5.6-15.2l-.3.5-.1-.2-.4.8 1-.2-.2-.2.6-.1-.6-.6zm.5 2.6l-.5.9 1-.2-.5-.7zm-1.9 6.8l-.2-.3-.1.2.1-1-.6.3-.5-.3-.2 1.2.7-.3-.6 1.1 1-.1.4.9 1.2-1.3-1.2-.4zm2.1-.8l-.7.5.6.3.1-.8zm7.4-21.4l1.4.2-.5-1.1-.9.9zm-5.3 3.5l.2 1.1.8-.6-1-.5zm-9.7 41.4l1.2 1.7.9-1.6-2.1-.1zm.1-2.7l1.3-1.7-1.8-.3.5 2zm-.7 2.6l1.3-1.7-1.8-.3.5 2zm5 1.4l-1 1.5 1.5.1-.5-1.6zm11.3 11.3l.1-1-1.1.4 1 .6zm-7 .8l.9-.1-.5-.8-.4.9zm4.5-7l.7-.7-1-.1.3.8zm-.6 3.6l.2-1.1-1.2.3 1 .8zm-6.9.7l.9-.1-.5-.8-.4.9zm4.4-7.1l.7-.7-1-.1.3.8zm-3.2 12.9l.8-.6-1-.6.2 1.2zm2.4-6.3h1l-.6-.8-.4.8zm-3.5-9.8l-1.1-1.9-.4 1.1-.2-.2-.4 1.1.3-.1-.1.2 1.9-.2zm1.5-3.7l.7-.7-1.1-.1.4.8zm-6.6 8.6l.6.9.4-.8-1-.1zm-2.6-6.8l-.2-1-.3.3v-.4l-.9.5.6.3-.1.1.9.2zm14-10.1l-1.6.3 1.2 1.1.4-1.4zm-8.5 1.3l-.5-1.2-.1.1-.4-1.6-1.1 1.3 1.4.3-.5 1 1.2.1zm5.2-9.9l.3 1.2 1-.9-1.3-.3zm-8.2 32.3l.7 1 .4-.6.4.3.2-1-.8.4-.9-.1zm-4.3-8.6l1.1.3-.2-1.2-.9.9z"/><path d="M159 221l1-2.2-2.7-.2 1.7 2.4zm2.6.5l.3-2.1-1.6.7 1.3 1.4zm-1.5-6.4l-1.7.6 1.4 1.4.3-2zm-4.3-.3l.7-1.2 1.2 1.7-.5.6.8.2-.1-.6 1-2.1-2.3-.1.1-.1-1.1-.1 2.3-1.1-3.6-1.7.2 3.5.5-.3.8 1.3zm-.3 8l.2 3.5 3.5-1.7-3.7-1.8zm5.1-21.5l-.8.9 1 .2-.2-1.1zm6.3-.1l.2-1-.9.2.7.8zm4.1 4l-1.5.5 1.4 1 .1-1.5zm-8.9 1.2l-.5 1.3 1.2-.2-.7-1.1zm4.8-9.3l.5 1.1.9-1-1.4-.1zm-3.6 4.1l-.5 1.1 1.2-.3-.7-.8zm-2.9 5.7l-1-.2.5.9.5-.7zm-.9-3.6l-1.7-2.1-.6 2.8 2.3-.7zm-.8-2.5l1.3-2-1.4-.2.2-1.7-.4.2.5-.7h-.1l.2-.3.3.4.4-.9-.8.2-.8-.3.3.8-1.4-.3.7 1.5-.5.3.9.6-.6-.1 1.2 2.5zm1.8-1.6l.9-.1-.6-.8-.3.9zm-6.3 7.4l1.1-.4-.3.3 1.5.3-.3-1 1.3-.5-.7.8 1.5.3-.4-1.7-.4.5-2.1-1.2.8-1.2.4.1-.3-1.3 1.1-.4-.3-.2.1-1.1h.1v-.8h-.1v-.3l-.8.7h.1l-.8.5-.8-.5.6-.4.4.8 1-1.5-1.3-.2-.2-1.7-1.5 1.4 1.1.4.1.2-1.1-.3.2 1-.3-.2-.2 3.5 1.9-.7-.6.8-.9-.2.8 1.4-.9-.5.2 3.3zm.1 0l-.1 3.5 3.6-1.5-3.5-2zm3.6 17.3l.3-.6.1.6 1.9-2-2.2-.6.4-.7-2.7-.2 1.2 1.7h-.2l1.2 1.8zm.1-2.3l.1.7h-.5l.4-.7zm-1.2-1.6l-.5-1.5 1.9-1-3.6-1.7.2 3.5.8-.4-.6.9 1.8.2zm1 7.5l-.6-1.9-1.2 1.7 1.8.2zm-1.2 2.3l1.4-1.5-2.1-.2.7 1.7zm2.2-2.9l1.7.6-.2-2-1.5 1.4zm-.6 2.2l1.6.6-.2-1.9-1.4 1.3zm5.7-11.1l.6.9.9-1.6-1.2-.1-.2-.2-.1.2h-.4l.3-.3-1-.4.1 1.2.3-.2-.3 1 .8-.3.2-.2zm-2.7 5.8l.4-.8-1-.1.6.9zm1.9-16.4l-.2.5-.1-.1-.3.9 1-.3-.2-.2.5-.1-.7-.7zm1 2.5l-.3.9.9-.3-.6-.6zm1.4 6.6l.7.2-.1-.8-.6.6zm4.3-24.1l-.8 1.1h1.4l-.6-1.1zm-4.3 5.7l-1.1-.4.4 1.1.7-.7zm15.1-59.1l-1.7.5 1 1.1-.3 1.9 1.7-.6-1.3-1.4.6-1.5zm-5.9-.5l1.7-.5-.8-.9 1.5.4-.4 1.9 1-.3-.1.2 1-.3-.8-.9-.5-.6.4.1-1.6-3.7-2.1 2.8.9.2-.2 1.6z"/><path d="M171.3 151.3l.5 2.1 1.4-1.2-1.9-.9zm2-3.9l-.3 1.5-.3.1.2.2-.1.2.2-.1.5.4.2-.8 1-.5-1.4-1zm8.2-7.7l.7-1.6-1.7.4 1 1.2zm-7.2 6.6l-1.2.2.7.8.5-1zm2.6-4.5l1 .2-.5-1-.5.8zm3.4 7.7l-.8-.3v1l.8-.7zm4.6.5l.8-.7-1.1-.5.3 1.2zm-5.5-4.4l.7.5.2-1-.9.5zm8-2h1l-.6-.8-.4.8zm-.7 12.6l.5-.9-1.2-.1.7 1zm-6.1-2.5l-.7.8.9.2-.2-1zm5.8-4.4l.9-.4-.9-.4v.8zm-11 3.1l-.2-.5-.7.8-.6-.1.7 1.5.6-.8 1.4.4-.4-2.2-.8.9zm4.8-1.6l.9-.4-.9-.5v.9zm-4.5-5.7l1.3-.4-1.2-.8-.1 1.2zm3.9 8.7l-1 1.1 1.5.1-.5-1.2z"/><path d="M172.8 158.7l.2 1.3.9-.6-1.1-.7zm4.3-11.4l-1 .7 1.2.4-.2-1.1zm-6.3 2.7v.6l-.1.4.8-.3-.2-.1 1.2-.7-1.6-.9-.1 1zm-.1-6.2l1.3.8.1-.8 1.1.2-1.2 2 2.4.2-.9-2.5-.1.1-.4-.8.3-.6 1-.4-.1 2.7 1.7-.8h-.1l.8.5.5.3v-.1l.3.1-.1-1-.1.1.1-.9-1 .6-1.9-1.7.1-.1-1.4-1.3 2.2.4-.1.9 1.7-.7-1.1-1 .6-1.3-1.6.4-.9-1.7-1.9 2.9 1 .2-.1 1.9h-.2l-1-1.8-1.8 3 1.2.2h-.4zm4.7-4v.3l-.4-.8.4.5zm-3 7.1l-1.5 1 1.4.7.1-1.7zm-3.5.8l.9.5.1.1-.7.4.7.5.1-.7.4.4.2-.9-.4.1.1-.9 1.2.1-.9-1.5 1.2-.9-1.8-1 .2 1.3-.8-1.3-1.6 3.1 2 .2-.9.5zm14.8-4.1l-1.1-.5.3 1.2.8-.7zm-1.9-2.2l1 .1-.3-.8-.7.7zm3.2 4.1l-.9.4.7.5.2-.9zm-7 2.8l-.4.4-.1-.2-.6.7h1l-.1-.2h.5l-.3-.7zm3.1-1l-.6-1.4-1.1 1.2 1.7.2zm-3.6 4.6h1l-.3-.8-.7.8zm5-2.7l1.4.3-.4-1.2-1 .9zm-5.4 3.2l.1 1.1.8-.5-.9-.6zm1.1-8.1l.4-1.1-1.1.3.7.8zm1.2-11.4l1.7-.5-.5-.5 1.4.4-.3 1.7 1.7-.5-1.1-1.3 2.2-.7-.3-.4.7-.2-1.3-1.5-.2.8-.6-.7.3-.4.5-.2-.1-.1 1.2.4-1.3-3.8-2.4 2.6.9.3-.2 1.2.6-.2.1.3.1-.1-.1.6-.2-.2-.3 2-.1-.1-.7-2 .6-1-.9.1-.2-.5-2.3 2.6 1 .3.1 1.6zm3-.9v.1l-.1-.1h.1z"/><path d="M179.3 135.7l-.8-.9-.4 2.1 1.7-.6-.4-.4 1.5-.5-1.3-1.5-.3-.7.9.9.7-1.6-1.6.5-.9-2-2.1 2.8 3.3.8-.3 1.1zm-.1 4.7l-1.2.3.7.8.5-1.1zm3-5.2l-.5.7 1 .2-.5-.9zm2.1 9l.8-.7-.9-.3.1 1zm5.6-.3l.8-.7-1.1-.5.3 1.2zm-5-3.5l.2-1-.9.5.7.5zm7.1-2.9l1-.1-.7-.8-.3.9zm-4.4.9l.7-.7-1.1-.4.4 1.1zm-1.1-1.9l-.2-.4.5-.5-1-.2.2.5-.1.1-.1-.6-.3.2-.6-.6.5-1.1-.9.2.3-.8-1.7.6 1.1 1.1.4.5-.2 1.5 1-.3.5.2v-.2l.6-.2zm3.6 2.9l-.9.5.7.5.2-1zm4.1-19.2l.8 1.3.9-1.4-1.7.1zm0-4.5l.8 1.3.9-1.3 1.3.8-.2-1.2.8-1.1-1 .1-.3-1.7-2.7 2 1.9 1.1h-1.5z"/><path d="M194.5 119l1-1.5-1.8.1.8 1.4zm-1.9 4.7l1.8-.3-1.1-1.7-.7 2zm1.2-8.9l-1.9 1.5 2.5 1.2-.6-2.7zm2.1 3.3l1.8-.2-1-1.8-.8 2zm-11.3 14.1l1.7-.5-1.3-1.5-.4 2zm2.2-4.2l2.1-.2-1-1.5-1.1 1.7zm-2.1 1.6l2.1-.2-1-1.5-1.1 1.7zm13.7-11.4l.9-1.5-1.8.1.9 1.4zm-12.3 12.4l.8-.9h-1.3l.5.9zm4.2-4.8l.9.4-.3-1-.6.6zm1.1 7.6l-.2 1 .9-.5-.7-.5zm5-9.3l.4-1.2-1 .2.6 1zm2.1 5.1l1 .1-.4-.8-.6.7zm-7-2l-.9-.4.2 1 .7-.6zM206 113l.4-1.2-1 .2.6 1zm2.1 5.2h1.1l-.4-.8-.7.8z"/><path d="M200.3 115.8l.2 1 .7-.6-.9-.4zm-4.1 12.2l.3-1-.9.2.6.8zm1.9 4.2h.9l-.3-.7-.6.7zm-6.7-1.8l.2.8.6-.5-.8-.3zm-4.3 1.3l-2 .9 1.5 1.2.5-2.1zm5.4 1.3h1l-.7-.8-.3.8zm-2.2 2.8l1.1.6v-1.1l-1.1.5zm-5.4 1.4l-.2 1 .9-.2-.7-.8zm2.5-7.4l.4.7.6-.8-1 .1zm1.1 12.8l.2-1-1.2.3 1 .7zm-6 .4l-.5-.8-.4.9.9-.1zm1.3-17.6l.9 1.1-.6-.2.4 1 .6-.7-.2-.1.6-1.3 1.1.4-1.2.3 1 1.2.6-1.3.3.1-.8-2.3 1.6-.3.1.2-1.2.9 2.2 1v-2.7l-.7.5.5-.8.8.4-.3.8h-.2l.1.2-.1.2h.2l.7.9.5-1.1.6-.1.1.1v-.1h.2l-.2-.3.1-.6-.3.2-1.1-1.6-.3 1-.7-3.2 1.1.5-.5 1.6 1.2-.2-.2.4 1.8-.3-.5-.8.2.1-.2-1.3.4.6 1-1.5-1.4.1-.3-1.9-3 2.5.3.1-2.5 2.2 2 .9-1.1.1-.5-.8-.5.6h-.7l-2.2 2.5 1.4.5-1.1.3zm7.6-5l-.4-.5.5.2-.1.3zm7.3-.2l-.8.6 1 .3-.2-.9zm-7.4 9.4l-.5.2v-.2l-.8.4.9.5v-.3l.5.3-.1-.9zm-1-1.6l.1-1.5-1.6.6 1.5.9zm2.6-3.3l-1.1.4 1 .6.1-1zm-2.4 8.5v-.9l-.9.4.9.5zm19.4-8.8l.8-.7-1.1-.5.3 1.2zm-5-3.5l.2-1-.9.5.7.5zm7.1-3l1-.1-.7-.8-.3.9zm-1.9 2.4l-.9.5.7.5.2-1zm-5.6 8.2l.8-.7-1.1-.4.3 1.1zm-5-3.5l.2-1-.9.5.7.5zm7.1-3l1-.1-.7-.8-.3.9zm-1.9 2l-.9.5.7.5.2-1zm1-13.1l.8-.9-1.2-.1.4 1zm5.2-5.2l-.7.5.6.3.1 1 .8-.5-.5-.3-.3-1zm-.4 9.3l.9-.4-.7-.5-.2.9zm6.4-10.4l.5-1.1-1 .1.5 1zm1.3 5.4l1.1.2-.3-.9-.8.7zm5.8-6.8l.5-1.1-1 .1.5 1zm2.1 4.5l-.7.6 1 .2-.3-.8zm-7.8-1.6l.7-.5-.8-.5.1 1zm-2 2.5l.4-1-.9.1.5.9zm1.2 4.5l.9.1-.2-.7-.7.6zm-5.6-2.3l-.7-.5.1.9.6-.4zm.4 2l-.4.8 1 .1-.6-.9zm-2 3.5l1.1.6v-1.1l-1.1.5zm-5.6 2.4l.9-.3-.6-.8-.3 1.1zm2.7-8.4l.4.8.6-.8h-1zm3.2 2.5l-.9.4.9.5v-.9zm-7.1-.2l-1.2 1.4 1.9.1-.7-1.5zm-3.3 1.1l-1.2 1.4-.7-1.1-.7 2 1.8-.3-.4-.5 1.8.1-.6-1.6zm1.8 5.8l.1-1-1 .3.9.7z"/><path d="M196 119.2l-.3.9.8-.1-.5-.8zm3.6-5.5l.6-.6-.5-.1.5-.4-.8-.4.2.8h-.3l.3.7zm2.4-.6l.9-1.1h-1.5l.6 1.1zm-3-2l.6 1 .9-1.3-1.5.1v-.5l-2.7 1.8 2.8 2.1-.1-3.2z"/><path d="M202 111.6l.9.5.2-1.6.1.2.7-1.2-1.1.1-.5-1.2 2.2 1.3-.2-2.1.5.3-.3.7 1.2-.1h.1l-.1.3.5-.1.2.1v-.1l.6-.1-.7-1.1v.1l-.1-.8.2.2.2.4.1-.1.5.4h-.2l.6 1.1.9-1.1h-1v-.8l1.3.8.2-1.5.2.4.7-.8.4.4.4-3.2-2.6 1 .3.3-.8 1.3 1 .1-1.3.7.1-1.8-2.5 1.2.6.5-.7.5h-.5l.1.2-.3.2-.1-.8-2.3 1.6.4.2-.6 1-.1-1-2.2 1.7 2.7 1.5.1.2zm7.6-6h-.6l-.4-.9 1 .9zm-7 4.3l.2.3-1 .6-.1-.9h.9z"/><path d="M214.1 102.5l-.8-.1.2-.6-2.3.6 1 1.3-.3.6-.6-1.4-.8 1.5h1.3l-.1.3h1.2l-.1-.3.4-1.4.1.3.8-.8zm-6.2 7.2l1.9.1-.7-1.5-1.2 1.4zm11.4-9.1l-1.9.1 1.3 1.4.6-1.5zm2.4 1.4l.5-1.5-1.8.1 1.3 1.4z"/><path d="M217.7 103.3l.3-1.6-1.3.5 1 1.1zm-2.9 2l.3-1.6-1.3.4 1 1.2zm4.6-3.4l1.5.1-.9-1.4-.6 1.3zm-5.7 1.3l1.5.1-.9-1.4-.6 1.3zm8.8-2.2l.5 1.1.9-1-1.4-.1zm-8 .2l1.3 2.2 1-2.5-2.3.3z"/></g><g fill="#33100c"><path d="M272.8 159.4l.4-1.7-1.5.3 1.1 1.4zm-1.9-2.3l1.9-.9-1.4-1.2-.5 2.1zm-6.1-14.7l-1.1 1.8 2.1-.3-1-1.5zm5.4 10l-1.1-1.5-1 1.9 2.1-.4zm4.8 17l-1 .3.9.9.1-1.2zm6.6 1.7l-.2-.7.5-.6-1-.3.3.7-.5.7.9.2zm6.4 5.6l-.1-1-1 .7 1.1.3zm-6.2-1.8l-.9-.1.4 1 .5-.9zm3.3 7l-.4.8 1-.1-.6-.7zm-1.5-8.4l-.7 1 1.2-.1-.5-.9zm-6.7-14.8l-.9-.5.1 1 .8-.5zm9.2 13.4l-.8.3.7.7.1-1zm-14.4-19l-.9.1.6.8.3-.9zm-6.8-4.1l.7 3.4.9-.8-.7 1.4 2-.4-.5-.6.4.3v-1.7l.8-.7.4-.2-1.4-1.2-.2 1-1.5-.3 1.3-.7-1-.8 1.7-1.6-2.3-.4-.1-1.3-1.4.7.7.5-.7-.1.8 3.4.7-.6-.2.9-.4-.2zm3.4 15l1.7-1.4 2.2-.7-1.1-1.2.3-.1-.3-.3.9-.5.4.8.2 1.9 1.6-.9-1.3-.9.4-.7 1.6-.6-1.3-1.3-.4 1.5-1.1-.1-1.2-1-.2 1.1-.4-.4-.3.8-.8-.6 1.5-1.3-3.7-.8 1.4-1.8-1.3-.4.7-1.9.8 1.3.8-1.2-1.6-.2v-.1l-2.4.1 1.1 1.9-.5-.1.6 2.7.2-.3.7 3.3.8 3.4zm2.1-3.1l-.1.3-.4-.1.5-.2zm-.8.1l-.8-.2 1.1-.6-.3.8zm-1.1-1l-.1.8-.7-.1.8-.7zm5.7 3.7l1.3-.1-.8-.9-.5 1zm5.6 4.3l.2-1.1-.9.5.7.6zm.7-8.8l-.9-.4.2 1 .7-.6zm6.1 10.1l1-.6-.9-.6-.1 1.2zm-4.3 2.9l-.7.6.9.4-.2-1zm7.9 2.8l.6-.8-1 .1.4.7zm-15.8-10.3l-1.6 1.1 1.8.9-.4.4.7.1.8.4v-.3l.5.1-.5-1.7-1 1-.3-2zm2.5-2.7l-1-.2.2.9.8-.7zm7.4 7.9l.8-.7-1.1-.5.3 1.2zm-2.1-7l-.6.8h1l-.4-.8zm-10.4 1.3l1.6.6-.1-1.5-1.5.9zm-2.3-7.8l.1-.9-1 .3.9.6zm7.4 24.5l-.2-.5 1.2.7-.1-.9.8-.2-.8-.6v.1l-.1-.6-1.2.8-.2-.6-1.4 1.6 2 .2zm10.1-16.6l-1.1.5 1.1.5v-1zm-6.5-.7l.6-.8-.9-.2.3 1zm2.6 7.4h1l-.6-.8-.4.8zm-1.9-3.7l.1-1-1.1.5 1 .5z"/><path d="M283.5 167.2l.6-.8-.8-.2.2 1zm-4.1-3.6l-1.4-1.1v1.7l1.4-.6zm-3.8 11.9l2 .3-.5-1.7-1.5 1.4zm3.7-2l.6 1.1.5-1.1h-1.1zm6.6 4v-1l-.8.6.8.4zm3.7-14l-.7.9h1.2l-.5-.9zm-5.9 1.1l-.9.2.6.8.3-1zm5.2 5.7l-.1.8.9-.4-.8-.4zm-3.3-.4l-.3.9 1-.2-.7-.7zm-7.3.4l-.8.1.6.8.2-.7.1.4.9-.6-1.1-.6.1.6zm-.9-5.7l-.2-.9-.7.7.9.2zm9.9 9.8l-1.4-.2.7 1.2.7-1zm-5-6l-.5 1 1.1-.3-.6-.7zm-11.1.3l1.7-.6-.8-.5 1-.8-1.9-.9.3 1.3-.3 1.5zm2.1 6.4l1.9-.5-1.1-1.4-.8 1.9zm2.7-1.4l.3-1.7-1.5.4 1.2 1.3zm.1 2.8l-1.2-1.5-.2.8h-.1v.2l-.2.9 1.7-.4zm3.3-.9l.7-.7-1.1-.3.4 1zm-2.5-6.2l-.5.8.9-.1h.9l-.4-.9-.5.9-.4-.7zm8 8.7l.8-.6-1-.4.2 1zm-1.8-6.4l-.6.8h.9l-.3-.8zm-3.8 7.4l.3-.9-.5.1v-.2l.6.1.6.4v-1.1l-.8.4-.4-.6-.6.9h.5l-.6.3.8.5.1.1zm-5.7-1.6v-.6l.3.3.1-.9-.8.2.2.2-.8.3 1 .5zm-1.2.7l.3-.9h-.6l2.2-2-3.3-.4 1.2-1.1.5.5.1-1.1.9-.8-.6-.1.6-.6.9-.4.9.6-.1-1.7-.8.4-.8-.7-.5 1.6-1-.3v-.3l1-.3-1.5-.9v.3l-2.2-.9 1.2-.8-1.8-.9 2.9-2.5-1.1-.2 1.1-.6-1.8-1.2.1 1.7-2.2-.5.7 3.4.3 1.5v.1l.1.3.7 2.6 1.1-.9.1.1.4 1.1-1.7-.2.9 3.2.1-.1.5 2.4.1.5.1-.1.1.1h-.1l.5 3.4 3.2-2.5-2.7-.8zm-.6-7.6h-.1l.1-.1v.1z"/><path d="M283.6 182.1l-1 .3.6.7.4-1zm.9-7.1l.8-.4-.9-.6.1 1zm-9 2.1l-1.4 1.3 2.1.8-.7-2.1zm-1.9-9.9l-1.2 1.5 2.2.4-1-1.9zm13.9 12.1l-.8.7 1 .2-.2-.9zm-5.1 6.5h-.9l.5.9.4-.9zm-4.6 2.2l-.4.5 1.8.2-.6-1-.3-1.8-2.3 1.6-2.7-.6.6 3.6 3.1-2.6.8.1zm-3-2.8v.2l-.7.4 1.5.9-.1-1.1.9-.5-1-.4.1-.1-2.5-1.3 1.2-.8-1.9-.9.5 2 .1-.1.5 2.7 1.4-1z"/><path d="M276.8 184.4l-.3 2.1 1.8-1.1-1.5-1zm-1.2-.1l1.6-1.3-1.2-.6-.8-.5.7-.5-1.9-1 .4 2-.1.6 1.2-.5.1 1.8zm10.9-.5l-1.5 1 1.8 1-.3-2zm-6.5.3l-.6 1.4 1.8-.1-1.2-1.3zm3.3 0l.7.8.8-2.1-2.1.7.6.6h-.1.1zm-4.7-1.7h0l.3-.3-.2-.1v-.5l-.9.4.3.2.1.7.4-.4zm1.2-.2l1-.3-.4-.5.5.3-.3-2.2-1.6 1 1.1.7-.3 1zm-4.5 2.4v-.9l-.7.4.7.5zm7.1 2.4l1.6-.4-1-1.3-.7 1.5-.2-.3-.5.7-.3-.1.1.4-.1.1h-.2l.2-.2-.8-.2.7-1.1-1.7.1.4.8-.3-.1.4 1.8-.2-.1v.2l-1.6.3.9 1.3.7-1.3-.1 2.4.3-.2.4 1 1.1-1.2-1.1-.1.9-.7v.1l.4-.2.2.2.2-.4h.1l.4-.9.3 2 2.8-1.5-2.5-1.4-.8-1.2zm-1.5.9l.1.2h.1l.7 1-.5.1-.3-.5-.3.4-.6-.3.8-.9zm1.1 1.2l.3-.5.1.4-.4.1zm-4.7-.2l-1.7.2.8 1.3.9-1.5z"/><path d="M277 190.4l-3-.1.9 3.3 2-2.5-.1 2.6 3.1-1.1-2.9-2.8v.6zm2.9-6.9l.8-.8-.9-.3.1 1.1zm3.8 3.7l.5.6.1-.3.6.5v-.9l-.6.2.2-.4-.8.3zm.1-12l-.3 1.1 1-.4-.7-.7zm1.5 6l.2.8.7-.6-.9-.2zm-.9 4.8l.3 1 .8-.9-1.1-.1zm1.5-6.7l-1 .4.9.5.1-.9zm1.7-1.5l.7-.7-.8-.3.1 1zm2.7 7.8l-.5-.9-.2.3-1.1-1.4-.1.6-.7-.7-.6 2 1.1-.4v.2h.1l.1 1.2.9-.5-1-.7 1.4-.3-.3.4.9.2zm3.6-5.5l.1-.7-.5.2-.2-.3 1.6-.6-1.1-1.2-.5 1.6-.2-.2-.9 1.6h2.1l-.4-.4z"/><path d="M292 178.6l-1.7.4.9 1.2.8-1.6zm1.7 2.6l-1.1.4-.7-.3.1.5-.6-.2-1.7-1.2-.3 1.8 1.5-.5.1 1.1-.8-.6v1.7l.2-.1-.1 2.5-1.2-.7-.2 1.9-3.5-1.6.5 2.5-.7.1.5 1.06.4-.26.1.05 2.6-1.55 1.7-1.1-.1-.1.6-.4h.3l-.1-.1 1.4-1 2.6-2.1-2.1-.9.6-.9zm-2.5 2.3l.1.4-.4-.2.3-.2zm.2.5l.2-.2.3.2.1-.6.5-.5.6 2-1.7-.9zm-1.5-7.6l.5-.9-1-.1.5 1zm-2.6 4.9l.9-.1-.5-.5.1-.4-.9.1.4.6v.3zm7.1-2.2l.7.5v-.3l.8.3-.2-.9-.5.4.1-.5-.9.5zm-.9-8.4l-.9-.4v1.1l.9-.7zm-4.5 3.7l-.6.6.9.2-.3-.8zm7.4 1.8l.4-.8-.9.1.5.7zm.6 4.4l.5-1.5-1.5.5 1 1zm-1.3 2.12l1.9-1.52-2.9-.7 1 2.22z"/><path d="M299.1 178.3l.1-1.6.7 2.3 2.5-2.2-1.7-.7.2-.5-.8.3-1.4-.6.4 1.3-.8.6-.9-.5.2 1.7-.37 2.9 2.4-2-1.83-1 .5-.3.8.3zm8.1-8.8l.57 1 1.03-.5-1.6-.5zm-.55 2.74l-1.45-.24-.4 1.2-1.1.4.4.4-1-.2.2.9-1.9-.5 1.1 2.5.33-.57.23-.42 1.34-1.02.4-.5.1-.5 1.75-1.46zm-10.35-.64l-1-.1.5 1 .5-.9zm-2.1 5.7l-.6-.6-.3.8.9-.2zm6.2-2.2l.7.5.1-.8h.3l-1.3-1.6-.8 1.6 1.6-.1-.6.4zm.3-8.7l-1 .2.7.9.3-1.1zm-1.2 5.6l-.1.8.9-.4-.8-.4zm6.7-4.1l-.6.6.8.3-.2-.9zm-3.4 5.1l-.7.5.9.4-.2-.9z"/></g><g fill="#542218"><path d="M232.2 151.7l.3-2.1-1.8 1.1 1.5 1zm2.2-2.6l.2-1.8-2 .8 1.8 1zm-11.6 9l-1.6 1.3 2 .4-.4-1.7zm12.1-16.6l1.2 1.4-.8 1.5 2.7-.5-.1-.2 1.1-.1-.7-1.4-.7 1-.8-1.1.2-.4 1.7.5-.2-.6h.4l-.4-.8 1.1-1.1-1.5-.4.2 1.1-.1-.1-.1.2-.6-1.8-2.5 2.4 1.4.4h-1.5z"/><path d="M236.6 148l1.4-1-1.4-.7v1.7zm2.6-6.3l1.6-.6-1.2-1-.4 1.6zm-1.1 2.9l-.1.2-.6-.3v1.2l.4-.4-.2.9 1.6-.6-1.1-1zm2.1-3.1l.3 1.7 1.2-1.3-1.5-.4zm1.6 9.3l.5-.9-1 .2.5.7zm-4.8 9.8l-1.2.4 1 .6.2-1zm-5.6-2.1l-.8-.3.1 1 .7-.7zm1.4 7.4l-.5.7 1 .2-.5-.9zm1.9-7.9l.5-.7-1-.1.5.8zm-8.3-1l-.4 1 .9-.3-.5-.7zm9.3-11.7l-2.6 1 2.3 1.3.3-2.3zm3.1 5.5l.8.8.4-.9-1.2.1zm-5.5 2.7l.1-1-.9.5.8.5zm8-4.4l-.1 1 .9-.5-.8-.5zm-17.6 23.6l-.8-.3.1 1 .7-.7zm-30.4 29.5l.9-.4-.7-.5-.2.9z"/><path d="M236 147.3l-.4.9 1-.3-.6-.6zm4.9-8.9l-.3-.6.7-.6-1.1-.5-.2-.4 2.8.4-1.1-1.8 1-.5-1-.7 1.8.1-1.1-1.5-.9 1.4h.1l-.2.9-.1-.3-1.5 2h.1l-2.3 2.3 3.6 1-1 .4 1.7 1 .1-.6h.1l-.1-.1.1-1-.7.3-.2-.5 1.5.3-.9-1.7-.9.7zm2.2-8.2l-.6 1.6 2-.3-1.4-1.3zm.7-1.6l-.5 1.2 1.5-.2-1-1zm1 2.6l.6-1.2-1.3-.1.7 1.3zm-.6.7l-1.3-.1.7 1.3.6-1.2zm.9 2.7l-.4-1.2-1 1-.5-.4-.3 1.5 1.4-.7-.5-.4 1.3.2zm.2-7.2l-1.3-.1.7 1.3.6-1.2zM229 148.2l.6.6h-.3l1.2 1.7.9-1.6-1.5-.1.4-.9.8-.4.9.4.4.3.5-1.7-1 .2-.4-1.3 1.4.8.2-1.5 1.9.7-.6-2 1.1-.8-1.4-.7v.6l-.2-.7-2.7 2.2 1.5.5-1.3.5-.3-1-2.6 2.3 1.3.6-.1.4-1 .1-.4-.9-2.5 2.4 3.9 1.1-.7-1.8zm6.8 1.3l-.8 1.5h1.3l-1.1.4 1.8 1.1.2-1.8-.8.3-.6-1.5zm-6.3 4.3l1.7 1.2.4-1.8-2.1.6zm-9.2 11.8l.2-1.6-1.8.7 1.6.9zm7.6-9.1l-1 .1.7 1 .3-1.1zm-1.8 6.1l-.1.9 1-.4-.9-.5zm7.8-3l-.1-1-.7.7.8.3zm-2.8 8.7l-.3-1-.8.8 1.1.2zm-7.3-.6l.5.9.4-.9h-.9zm5.1 7l.9-.3-.8-.5-.1.8zm-4.6-18.2l.1 2.2 1.7-1.4-1.8-.8zm1.5 2.9l.1 2.1 1.6-1.4-1.7-.7zm3.5-3.1l1.6-1.3-1.7-.7.1 2zM215.8 168l.1 2 1.6-1.3-1.7-.7zm23.9-11.3l1 .1-.5-.9-.5.8zm-7.2-1.1l-.4 1.1 1-.1-.6-1zm1.5-5.6l-.4-.7-.6.7.7.2-.3.1.8.5.2-.9-.4.1zm-7.8 3.4v1l.7-.6-.7-.4zm17.3-11l.5-.8-1-.1.5.9zm-1.5-4.7l.8-.3-.5-.5-.3.8zm-.6 6.2l-.6.4.7.5-.1-.9zm3.3 0l.5.9.5-.8-1-.1zm-4.9 3.2l.8.5-.1-.9-.7.4zm-12.3 20.3l-.9.8 1 .4-.1-1.2zm4.1-4.5h-.3l-.1-1.2-.9.8.8.3h-.5l.5.8.5-.7zm-9.2.8l.9-.3-.6-.7-.3 1zm2.9-11.6l2.2 1.4.3-1.6.3.2.1-.4.9.4-.4.8-1.4 1.3 1.7.7-.1-1.5 1.2-.2-.1.2 1.7-.5-1-1.1-.5 1.4-.8-1.1v-1.6l-.9.5.1-.5-.8.3v-1.1l-1.3.8-.5-1.3-2.5 2.4 2.3.6-.5-.1zm1.5-1.1l-.2.1-.1-.1h.3zm-.1.2l.5.3-.3.1-.2-.4zm-.7 5.1l1.1-1-1.6-.6.5 1.6zm12.7-1.7l.7-.5-.8-.5.1 1zm-.5 5.3l.9-.8-1.3-.5.4 1.3zm-2.7-7.6l-.7.9 1.2-.1-.5-.8zm-19.1 13.3l-.2 1.1 1-.6-.8-.5z"/><path d="M216.3 175.5l1.1.4-.4-1.1-.7.7zm4.8-19l1.3 1.1.1-1 1.2.5-.2-2.1-1 .9v-.1l-1.4.7zm-1.7 6.5l1.6-.6-1.1-1-.5 1.6zm4.9-3l.8-.5-.8-.5v1zm-14.5 8.5l.7-.4h.1l.1-.1.9.8.4-1.1-.8.2.3-.7.6-.5.5-.1h.2v-.1l.4-.1-.3-.4 2 .2-.2-.7.7-.3 1 .5.2-1.8-1.7.7-.2-.2-.6-1.4 1.1-.5-.7-.7 3 .5-.4-.8 1.1 1-1.5.8 1.3 1 .3-1.7.2.2.6-1.7-2.1.4-1-1.9 1.6.4-.1.7.9-.5 1 .3-.2-.5.6.1 1.4 1.1.4-1.7-1.5.4-.3-1 .2-.1.8.6.1-1.7-.5.2-.3-2.6 1.3.6-.1-2 3.7.9-.2-.6 1.4.6-.2-2.1-1.3 1.3-1.1-2.7-2.4 2.5h.1l-1.5 1.3h.1l-1.9 2 1.5.5-.8 1.1-.8-1.7-2.3 2.5h.1l-1.9 2.1.5.1-.2.8-.4-.8-1.9 2 2.8.6-1.5 1.5-.1-.1.3-1.4-1.1.3-.4-.8-1.8 2.1 1.8.3v.3l-1.4.2-.4-.9-1.5 1.7 1.9.4-.6.6zm10-10.5l-.2-.2.4.1-.2.1zm-5.4 6.4l-.1.2-.1-.2h.2zm-2.1 1.1h0l-.1-.1.1.1zm-1.2 2.4l-.3.1-.4-.3-.4-.8 1.1 1z"/><path d="M214.4 166.4l1.2 1.1v.3l.8-.5-.6-.4.3-1.3-1.7.8zm-.7.4l-1.6.9 1.3 1 .3-1.9zm7.6-1.6l-.5 1h1l-.5-1zm1.4-4.8l.7.6.3-.8-1 .2zm-6.1 2.4l-.7-.4v.3l-.8-.3.2.9.5-.4v.5l.8-.6zm2.8 10.1h1l-.6-.9-.4.9zm2.4-6.2l-.9.3.7.5.2-.8zm-7.5 3.7l-1.1-1-.5 1.7 1.6-.7.7-.5-.7-.4v.9zm6.7-.7l-.5 1h1l-.5-1zm2.4-4.9l-.9.2.6.6.3-.8zm-11.4 4.3l-1.2-1-.2 1-.9-.6-.3 1.7 1.1-.6-.1.3 1.6-.8zm-.3 3l.3-1.7-2 .6 1.7 1.1zm-4.1 5.4l-.1.5.6-.3.8.3-.1-.7v-1.1l-1 .4.3.3-.5.3-.1-.1v.1l-.3.2-.7-.1-.3-.8.3-.2v.3l.4-.2.1.1.2-.3.9-.5-.4-.3.1-.2-.5-.1-.8-.5 1.2-1.3-1.7-.5.3 2 .1-.1v.3h-.3l.4.5v.4l-1.6-.4.3 1.6.8-.6-.3.5h-.2l.1.3-.5.7.7.1.3 1 .6-.9h.2l-.1-.2.5-.7.3.2zm-1.7 3.8l.4-1 .1.2.6-.7-.9-.3.2.6-1 .3.4.5-.7.4.6.3-.5.3 1.7.5-.3-1.5-.7.5v-.3l.1.2zm5.7-2.7l-.8-.6v.9l.8-.3zm-13.1 23.3l.9.3-.1-1.1-.8.8zm-2.9-4.5l-.5-.6-.4.8.9-.2zm15.2-16l-.8-.6v.2l-.3-.2.1.9.2-.1v.2l.8-.4zm26.3-17.5l.1-1-1.1.5 1 .5zm-6.5-1.9l.4-.5.2.3.2-1.1-1 .3.1.2-.3-.1.4.9zm2.4 7.3l1 .1-.6-.8-.4.7zm-8.5 7.6l.7-.7-.8-.2.1.9zm6.3-5.9l1.2.1-.4-1-.8.9zm-5.5 1l.3-.9-.9.1.6.8zm5.2 5.6l.9-.4-.9-.5v.9zm-12-4.8l-1.8-.5.3 2 1.5-1.5zM194.9 198l-.1 1-.7-.8-.7 1.6.9-.2-.1 1.5 1.8-1.1-.4-.2.9-.4-1.6-1.4zm-4.2 13.9l1.1-.5-1.1-.9v1.4zm-.3-2.1l1.8-1.1-1.6-1-.2 2.1zm24.2-38.2l.3 2 1.4-1.5-1.7-.5zm-22.9 27.7l-.4 2.5 2.3-1.2-1.9-1.3zm-1 7.4l1.8-1.1-1.6-1-.2 2.1zm1.7-1.6l.6-1.2-1.5.1.9 1.1zm1.1-6.7l-1.5.1.9 1.1.6-1.2zm8.4-20.2l1-.8-1.1-.4 1.6.2-1.1.9.5.2v.2l-.4.4h.4v.3l.3-.3h.2v-.1l.2-.2.4.2-.1-.4.1-.1-.1-.1-.1-.3.4.1v-.2l.9.1-.8-1.9-.6.9-.7-1.1 1-.6-1.2-.7-.1.9-.5-.8-1.6 2.2.9.1.5 1.3zm25.7-6.7l1 .2-.3-1.2-.7 1zm4-5l.4-.8h-1l.6.8zm-8.4-.1l-.3 1 .9-.4-.6-.6zm.5 8.1l.3-1.2-1.4.4 1.1.8zm-5.9-4.1l.3.2.3-1.2-1.4.4h.1l-.1 1.2.8-.6zm.2 9.3l1.1.3-.5-1-.6.7zm-5-4.7l-.6.7 1.1.3-.5-1zm7.8 1.8l1-.1-.7-.9-.3 1zm1.6-5.6l.1-.4.4-1.1-1.4.2.6.6-.4.2.7.5zm-6.3 3l-.7-.3.1.9.6-.6zm-6.4.9l.3 2 1.4-1.5-1.7-.5zm1.8-2.7l-1.7 1.2 2 .6-.3-1.8zm-3.1 1.6l1.4-1.5-1.7-.5.3 2zm6.9 2.9l-.1-.3-.1.1-.5-.6-.3 1 .6-.1-.3.5.9.1-.2-.7zm.8-6.2l-.9.4.8.4.1-.8zm-6.5 3.9l-.7-.3.1.9.6-.6zm12.1-.1h1l-.6-1-.4 1zm2.4-6.2l-.9.3.7.5.2-.8zm-7.5 2.9v.9l.7-.6-.7-.3zm-11.3 9.5l-.3-.6h.7l-.9-1.6-1.2 1.7h.1l-.5.6 2.1-.1zm10.7-4.8l.3-.8-1 .2.7.6zm-13.8 10.7l1.8.4-.3-1.6-1.5 1.2zm6.7-3.2l.9-.6-1-.3.1.9zm5.6 2.5l-.6 1 1.2-.1-.6-.9zm-5.7 2l-.8.3.7.7.1-1zm6 5.6l.9-.5-.9-.3v.8zm-5.5-13.5l.1.2.7-.7-1-.1.1.4-1.6-.2.1.3-.7-.3.6 1.9.5-.4.2.5 1-1.6zm-8.3 12.5l1.2-1.7-1.8-.2.6 1.9zm9.8-4.6l1 .1-.4-1.1-.6 1z"/><path d="M213.9 181.5l-.4-1.1-.6 1.1.9.1-.5.1.7.7.3-.8-.4-.1zm-8.2 2.1l-.1 1 .8-.5-.7-.5zm-4.5 4.8l-.9-.3.1 1.1.8-.8zm1.9 8.7l-.9-.1.4.8.4-.5-.2.4 1.1.1-.6-.9-.2.2zm-.7-12.3l1.4-1-1.4-.7v1.7zm-6.9 7.9l.7-.8 1.1.3-.1-1.2-.7.5-.1-1.4-1.4.9 1.4.5-.3.2-.7-.2-1.3-1.1 2.4-.5v.3l.6-.5h.1l.4-.3-.5-.3 1.9-.6-.4-.4.2-.2 1.1.3-.3-1.8-1.4 1.1-.4-.4.3-.1-1-1 .8-.7-.7-.4 2.5-.3-2.3-2.3h2.1l.1.7.7-.7h.9l-.2-.3.8-.1 1.7.7-.1-1.8-1.4.8-.5-.9.2-.1.9.4-.4-1.7-.6.4-1.1-2.8-1.5 2.7-.1-.1-1.5 3-1.3 2.5-.9 2.6 2.8-.5-.8 2-.3-.1h.1l-.3-1.4-1 .8-.7-.6-.8 2.6-.7 2.2 2-.4v.5zm6-12.9h0zm-.8 0l-.5 1.3-1.2-1.4 1.7.1zm-3.9 5.3v.6l-.6-.5.6-.1zm-.2 3.8v.3l-.5-.4.5.1zm2.3 2.5l-.4-1.9-1.2 1.5 1.6.4zm2.2-6.6l.3.1.1-1.8-1.9.9 1.3.7-1.2 1.2 1.5.6-.1-1.7zm3.7 1.5l-.2 1 .9-.2-.7-.8zm.4 6.9l-.1 1 .9-.3-.8-.7zm.6-5.5l-.8.5.8.3v-.8zm-6.5 4.7l.2.8-1.3-.7v.9l-1.5 1.3 2 .4-.2-1.1 1.1-.9.5-.7h-.8zm7.2-.7l-.7-.8-.2 1 .9-.2zm.3-6.3l-.8.4.8.4v-.8zm-6.8 4.1v-1.3l-1.4 1.2 1.5.7.1.3.6-.7-.8-.2zm-1.3-3.4l.4-.6.1.5.6-.7-.7-.2v.3l-.8-.1.4.8zm-4.1 10.9l-1.8-1.4 1.9-.4.3 1.3 1-1.4-.4-.1.7-.1-3-2.4-.9 3.2h.1l-.5 2 2.6-.7zm3.2-4.6l-1.5-.4.2.9-1.1-.2.4 1.7.7-1 .1.3 1.2-1.3zm4.2 2l-1.8-.1.9 1.9.9-1.8zm-4.5 4.4l1-1.8-1.8-.1.8 1.9zm15.1-8.1h1l-.5-1.1-.5 1.1zm2.7-6.7l-1 .3.8.6.2-.9zm-8.3 4l.8-.6-.8-.4v1zm1.5 6.2l1.2.5v-1.2l-1.2.7zm-6.4-2.2l.2 1.1.7-.9-.9-.2zm3.4 9.1h1.1l-.7-.9-.4.9zm2-3.5l.9-.4-.9-.7v1.1zm.1-5.7v-.4l.1-1.1-1.3.6.7.4-.4.3.9.2zm-6.1 4.5l.3.9.5-.8-.8-.1zm6.2-1.2l.9-.3-.8-.8-.1 1.1zm.7-6.6l-.8.5.8.3v-.8zm-6.2 5.6l.5-.7-.8-.2.3.9zm-10.4 7.8l-.7 1.6 1.7-.4-1-1.2zm23.2-23.9l-.7.7.8.3-.1-1zm-9.7 6.6l.2-1.1-.3.2.3-.8-1 .3.5.6-.4.2.7.6zm-7.9 22.6l.9.2-.2-1.1-.7.9zm3.7-4.5l.4-.7h-.9l.5.7zm-7.9.7l.8-.3-.6-.5-.2.8zm10.6-28.9l.7.1-.5.3.9.2-.1-.8-.2.2-.2-.5.6.1-.9-1.6-1 1.3 1.1.2-.4.5zm4.1-1.7l-1.7-2.7 1.9.4-.2 1.3 1.5-.9-.2-.1.5.1-1.7-3.4-2.2 2.5h.1l-1.8 2.4 3.8.4z"/></g><g fill="#a05a3c"><path d="M178.6 232.3l.5-.6.5.8 1.3-1.8-2.3.2.4.6-.8-.2.4 1zm2.4 4.2l.1-.7-.6.3.5.4zm-9.7 2.3h.7l-.4-.7-.3.7zm7.4-3.6v-.7l-.6.3.6.4zm1.3 2.5l-.8.2.5.5.3-.7zm2.2 3.8l-.9.9 1.3.2-.4-1.1zm-4.6-5.5l.4 1 .6-.7-1-.3zm-2 3l-.9.7.9.4V239z"/><path d="M179.2 235.8l-.2 1.2 1.2-.6-1-.6zm-2.1 2.7v-.9l-1 .4 1 .5zm-5.9-6l-.4-1-.6.9 1 .1zm10.5 7.9l-.8.8 1.2.2-.4-1zm-4.1-7.7l.9.4v-.5l.7.3v-1l-.8.5v-.4l-.8.7zm3.6 6.6l.3-.9-1.1.1.8.8zm-5.7-7.8l-.1.2-.4.7h1l-.2-.6.6.3v-.6l.8 1.4.9-2.2-2.1.1.2.3-.7.4zm5.9 6.5l-.2-1.1-1.1.7 1.3.4zm-7.8-.1l1 .1-.3-1-.7.9zm-2.2-5.2l.8-1.2-1.4-.5.1-.1h-2.8l1.2 2.2 1.4-2 .7 1.6zm4.2-1.7l-1.4-.5.5 1.7.9-1.2zm5.4.6l.1-.7-.6.3.5.4zm-9.9 1.9l-.4.7h.8l-.4-.7zm-1 0l.5-.5-.7-.1.2.6zm-1.2 1.4l.5-.5-.7-.1.2.6zm10.1-.9l.3-.7-.7.2-2.3-.8.3 2.2 2-1.1.4.2z"/><path d="M167.3 232.5l.6-.6-.9-.1.3.7zm8.3.8l-.5.4.6.3-.1-.7zm-.8 1.1l.7-.3-.5-.4-.2.7zm4.5 6.1l1.4-.1-.7-.9-.7 1zm-3.5 1.5l.5-.6-.8-.2.3.8zm-1.5-6.3l-.9.6.9.4v-1zm-.9-2.9l.1.1v-.1l.8.3v-1l-.8.5.4-1.8-2.1.1 1.6 1.9zm6 2.7l.5-.3 1.1.4-.1-1.1-.5.3-.2-.1.3-.8-1.1.1.7.6-.5-.3-.2 1.2zm-.4 6.3l.3-.9-1.1.1.8.8zm-6.9-7.2l1 .1-.4-1-.6.9zm-4.9-2.9l1 .1-.4-1-.6.9zm10.5 8.6v-1l-.9.7.9.3zm3.2-6.7l.1-1.4-.3.1-.3-.9-.7.9.7.1-.9.4 1.4.8zm-14.8-1.6l.7-1h-1.3l.6 1zm6.8 2.1l1 .1-.4-1-.6.9zm140.8-87.2l-1 .4 1 .5v-.9zm4.5-1.1l.4-.6-.6-.1.2.7zm-5.3-8.7l-.2.8.7-.3-.5-.5zm3.1 7.6l-.7-.1.2.6.5-.5zm2.6-1.1l.3-.8h-.7l.4.8zm3-4.6l.6 1.1.7-.9-1.3-.2zm-2.9 6.1l.7-.9-1.3-.2.6 1.1zm1.9-3.1l-1.1.3.9.7.2-1 .2.3.7-.9-1.3-.2.4.8zm-3.9.8l-1 .4 1 .5v-.9z"/><path d="M317 138.9l-.9-.3.2 1.1.7-.8zm.9 5.9l-.4-1.3-.7 1 1.1.3zm-.9-3.6l-1-.3.4 1 .6-.7zm-9.1-.2l-.2 1.1 1-.5-.8-.6zm13.7.1l.6-.8-1.2-.2.6 1zm-8.1 4.7l.2 1.1.2-.3.2.9.7-.8-.8-.2.3-.4-.8-.3zm6-1.8l.7-.9-1.3-.3.6 1.2zm-5.5-4.8l-.1 1.1.9-.5-.8-.6zm.3 10.9l.2-2.2-1.8.5 1.6 1.7zm-5.6-6.8l.2-1.4-1.5.9.3-2.5-2.4.8 2 1.9v-.2l1.4.5zm2.3.9l-1.5.9 1.3.6.2-1.5zm3.9 5.2l.4-.6-.6-.1.2.7zm-5.5-9.4l-.3.8.8-.2-.5-.6zm-.9.2l-.5.3.6.4-.1-.7zm0-2l-.5.3.6.4-.1-.7zm3.8 7.6l.3-.2-.9-.5v.4l-.7-.2.2.8-.4.1 1.5 1.5.8-2.2-.8.3zm-.6.1v.1l-.2.1.2-.2z"/><path d="M315.4 145.8h-.5l-.7-2.2-1.7 1.4 2.2.9.4.6.3-.7zm-9.7-6.9l-.7.3.7.5v-.8zm7.3 4.7l-.7-.2.1.6.6-.4zm-.4-1l-.3.6h.6l-.3-.6zm7-1.4l1.1-.4-1.1-.8v1.2zm-1.2-3.5l-.8.3.8.4v-.7zm-5.4 3.7l.7-.8-.9-.3.2 1.1zm-2.5 2.9l.7-.8-.8-.3v-.1h-.1l-2.4.3 1.5 1.4.9-1.6.2 1.1zm6.3.6l-.7 1 .6.1h-.9l.7.8.4-.8.2.1.2.5.8-.8-1.1-.4-.2-.5zm3.1-6.2l-1.1.3.9.7.2-1zm-9.3 2l-.2 1.1.9-.5-.7-.6zm-5.5-1.2l-.2 1.1.9-.5-.7-.6z"/><path d="M318 141l.7-.8-.9-.3.2 1.1zm-2.6 6.8l-.6-.4-.1 1.1.8-.4.1.3.9-1.1-1.5-.4.4.9zm-11-8l.1-1.2-1.1.4 1 .8zm6.4 2.8l.9-.5-.8-.6-.1 1.1z"/></g><g fill="#cc7a5e"><path d="M174.4 263h0l-1.4-7.1c0-.2.1-.5.3-.5s.5.1.5.3l1.4 7c.2.5.8 1.8 1.7 1.9.9 0 1-1.1.9-1.2 0-.2.1-.3.3-.3s.4.2.4.4c0 .1-.1 1.2-.6 1.5-2.2 1.4-3.5-1.9-3.5-2z"/><path d="M177.9 263.9c-.1 0-.1-.1-.1-.2l-1.1-8.7c0-.2.2-.4.4-.5.2 0 .4.2.5.4l1 8.5c.2.2.6.5 1 .5a.55.55 0 0 0 .5-.3c.4-.5.4-.9.2-3.7v-.7c-.2-3.3.4-9.9.4-10.1s.2-.3.4-.4c.2 0 .4.1.4.3 1.5 4.1 2.9 5.6 3.2 5.7.2-.1.4-.3.3-1.1-.1-1.4-1.2-6.5-1.5-8.2-.6-2.8-2.3-4.4-2.3-4.4-.1-.1-.1-.2-.1-.3l-.2-5c0-.2.2-.4.4-.4s.4.2.4.4l.2 4.8c.4.5 1.8 2 2.4 4.7.6 2.9 1.4 7 1.5 8.3s-.3 1.8-.8 2c-.1.1-.3.1-.6 0-.8-.3-1.9-2-3.1-4.6-.2 2.2-.4 6-.3 8.3v.7c.2 2.9.2 3.5-.4 4.3-.4.5-.9.6-1.2.6-.7 0-1.5-.8-1.5-.9z"/></g></svg>