<svg xmlns="http://www.w3.org/2000/svg" viewBox="0 0 480 480" xmlns:v="https://vecta.io/nano"><path d="M253 47.65c-3.7-4.7-10.2-5.3-13.7-4.7-3.4.7-7.6 2.1-9.6 6.9 0 0-5.5-1-9.6 2.5-4 3.5-3.7 8.4-2.5 12.4.9 2.95 2.2 5.9 2.84 7.24a5.94 5.94 0 0 0-1.24 3.66c0 3.15 2.37 5.7 5.3 5.7a4.68 4.68 0 0 0 1.07-.13l-6.88 22.43-2.2 5.7s3.2 4.1 10.8 5.7c5.2 1.1 8.7 1.2 11 1 1.9-.2 4.2-.6 3-4.1-1.7-5.2-1.1-8.5-1.1-8.5l2.38-12.97c1.6.3 3.08.33 4.22-.03 3.2-1 5.9-4.4 6.9-10.1s.85-16.08.85-16.08-.65-.1-1.7-.3c2.84.2 4.67-.3 5.35-1.23 1.2-1.5-1.5-10.4-5.2-15.1zm-25.83 32.9c.2-.13.42-.28.62-.44-.2.17-.4.3-.62.44zm-.65.34c.13-.06.25-.1.37-.18-.1.06-.24.12-.37.18zm8.27 6.9c.08.04.17.08.26.12l-.26-.12zm.98.45a2.72 2.72 0 0 0 .25.11c-.1-.03-.17-.07-.25-.1zm1.2.52c.01.01.02.01.04.02-.01-.01-.02-.02-.04-.02zm2.24.83c.02.01.05.02.07.02-.02-.01-.05-.01-.07-.02z" fill="#fff"/><path d="M217.47 59.7l-.06.32c.02 0 .05-.08.06-.32zm34.66-12.07l-.06-.05c.04.04.05.05.06.05zm-32.65 24.85l-.01-.02-.05-.07z"/><path d="M259.4 61.45c.01-.3-.04-.57-.07-.85-.16-1.1-.44-2.12-.73-3.26-.27-1.4-.94-3.32-1.86-5.16-.9-1.85-2.05-3.62-3.05-4.8-1.44-1.68-3.33-3.22-5.52-4.2s-4.63-1.46-6.88-1.24c-.15-.02-.53.05-.52.07-.67.05-1.4.1-2.07.27l-1.97.5-.78.27a13 13 0 0 0-1.88.86c-1.47.77-3.04 2.23-3.82 3.6-.32.55-.55 1.05-.68 1.44-.44-.13-1.03-.23-1.58-.27-.68-.06-1.26-.03-1.26-.03-2.3.05-4.08.65-5.7 1.65-1.6 1.04-3.16 2.5-4.26 5.1-.96 2.28-1 3.88-1 5.4.05 1.53.3 3.1 1.1 5.36.7 2.16 1.67 4.35 2.62 6.32.01.02.03.04.04.06-.5.92-.8 1.98-.8 3.13 0 3.42 2.6 6.2 5.8 6.2.12 0 .24-.02.36-.03l-6.63 21.65-2.3 5.96.17.22c.14.17 3.4 4.26 11.1 5.88 3.44.73 6.48 1.1 9.08 1.1a22.56 22.56 0 0 0 2.07-.09c1.28-.13 2.7-.37 3.4-1.45.5-.8.52-1.88.03-3.3-1.63-5-1.1-8.22-1.08-8.25l2.3-12.5a12.56 12.56 0 0 0 1.88.16c.76 0 1.46-.1 2.08-.28 3.63-1.14 6.27-4.96 7.24-10.5.88-5.02.88-13.45.86-15.64.08-.01.16 0 .2.02l.63-.16c.2 0 .58-.04.26.06.6-.1.62-.17 1.03-.36.23-.05.46-.1.7-.2.3-.15.62-.37.87-.65.23-.2.55-.83.56-1.1a4.79 4.79 0 0 0 .07-.51l.02-.45zm-19.68 41.9c-.03.14-.6 3.5 1.12 8.75.38 1.1.4 1.93.07 2.45-.45.7-1.6.88-2.65 1-2.9.25-6.55-.08-10.85-1-6.34-1.33-9.56-4.47-10.33-5.3l2.1-5.45 6.78-22.15a5.26 5.26 0 0 0 1.53-.69 14.73 14.73 0 0 1 .22.9c.53 2.22 2.42 4.1 5.96 5.93 2.53 1.3 5.58 2.52 8.33 3.08l-2.28 12.48zm13.5-23.1c-.9 5.15-3.3 8.7-6.56 9.7-3 .94-8.62-1.07-12.52-3.07-3.2-1.65-5-3.38-5.44-5.27a28.79 28.79 0 0 0-.43-1.65l-.2-.75-.6.5c-.85.73-1.88 1.1-2.95 1.1-2.65 0-4.8-2.33-4.8-5.2s2.15-5.2 4.8-5.2c1.6 0 3.1.87 4 2.32l.3.48.44-.34c.16-.12 3.9-3.1 5.28-6.56 1.5-3.86 1.6-7.15 1.5-8.85 1.5 1.13 4.76 3.3 9.14 4.92 3.78 1.4 7.65 2.1 8.92 2.3.01 2 .02 10.6-.85 15.55zm4.6-18.44c-.05.18-.04.4-.06.48-.04.17-.24.32-.34.37-.1.07-.23.08-.32.1-.2.04-.38.08-1 .34l-.53-.05c-.57.04-.4.24-1.05.2.04-.08-.84-.07-.45-.16-1.47-.14-3.1-.01-5.06-.7-.27.04-.7-.05-1.07-.14-.58-.17-1.18-.36-1.78-.57.06.01.13.01.23.03s.26.07.24.1l.16-.06c-1.02-.52-2-.55-3-1.08.22.14.52.27.5.3l-.64-.27-.4-.2.24.02c-.46-.25-.9-.52-1.36-.8l.13.2c-.64-.44-.77-.74-1.58-1.1-.38-.15.53.54-.17.1a48.78 48.78 0 0 1-1.43-1.2l-1.77-1.56c.12.27-.38-.18-.88-.52l-.05-.18c-.5-.32-.73-.3-.88-.33a.82.82 0 0 1-.3-.09c-.08-.02-.15-.1-.34-.02-.04.02-.08.05-.12.07l-.08-.06.02.1a.92.92 0 0 0-.4.44c-.01.15-.03.3-.01.47-.08 1-.03 1.37-.1 1.66-.02.15-.04.3-.03.58.01.24.04.4.1.78-.02-.56.24-.27.2.43l-.1-.18c.02.38.06.5.04.77-.06-.23-.15-.12-.14.44l-.12-.38.17 1.07c-.07.4-.1.94-.1 1.4-.05.44-.08.82-.18.96l-.2.85c-.12.44-.24.94-.25 1.14.02-.35-.33.5-.35.2-.01.22-.16.63-.3 1.04-.2.4-.4.8-.6.98l.04-.1c-1.1 1.54-1.78 2.78-3.15 3.86.02.01.02.02.02.04-.04.04-.1.1-.14.12-1.1-1.46-2.75-2.32-4.52-2.32-1.45 0-2.78.58-3.8 1.53-.01-.01-.02-.02-.02-.04 0-.01 0-.03.01-.02-.3-.6-.28-.47-.17-.2-.02-.01-.03.02-.01.12-.18-.67-.77-1.75-.65-1.9-.78-1.82-1.42-3.1-1.94-4.67.03-.2.2.15.37.6a23.31 23.31 0 0 1-.35-1.1c.12-.02.24.62.37.95-.2-1.35-.92-2.7-.82-4.3l-.1-.32.01-.1c-.05.01-.1-.35-.12-.6.1-.22.22.02.28-.75.15-.6.22-1.7.48-2.47-.16.4-.16.25-.14.06.13-.37.34-.52.4-.8l.14.03c-.2.08.36-.95.43-1.08.2-.12-.27.54-.23.67.83-1.28.37-.68 1.4-1.82.52-.65-.2.01 0-.35.5-.54 1.07-1.04 1.85-1.4-.1.01-.2.02-.3.04 1.2-.8 2.05-1.05 3-1.18 2.47-.83 4.03-.83 4.8-.93-.05.27-.02.4.1.34.1-.04.22-.18.4-.4.23-.05.25-.12.16-.2.12-.15.25-.32.42-.52.55-.66 1.4-1.63 2.84-2.52l-.05.1c1.65-1.14 2.87-1.53 4.17-2.16.28.17 1.66-.42 2.15-.4l-.04.03c1.18-.38 2.55-.05 3.75-.1-.05.01-.08.08-.36.07.88.02 2.07.18 2.1.35 1.03.18 2.2.57 3.25 1.04 1.03.48 1.93 1.02 2.5 1.36l-.1-.02c.35.16.53.33.7.5s.36.35.68.66c.02.05.05.1.04.1.7.5 1.5 1.95 1.9 2.5l-.06.1c.3.48.58.97.84 1.48l-.28-.57c.34.07.46 1.2 1.12 2.27.44 1.06 1.42 1.98 1.68 3.2.3.52-.35-.42 0 .37-.13.07-.2-.36-.24-.1.3.8.27 1.36.58 2.34l-.1.06c.24.63.3 1.26.3 1.8.01.3-.03.52-.03.76zm-23.58-6.17c.01-.01.01-.02.02-.03v-.17c-.01.06-.02.12-.02.2zm-9.44 17c-1.6 0-2.9 1.35-2.9 3s1.3 3 2.9 3 2.9-1.35 2.9-3-1.3-3-2.9-3zm0 5c-1.05 0-1.9-.9-1.9-2s.85-2 1.9-2 1.9.9 1.9 2-.85 2-1.9 2zm14.2-9.2c.12-.13 1.2-1.8 3.9-1.6.4 0 .8-.3.8-.7s-.3-.8-.7-.8c-3.6-.3-5.2 2.1-5.3 2.2-.2.3-.18.75.15 1 .5.38.92.16 1.15-.1zm11.04-3.6a.73.73 0 0 0-.52.9c.1.4.5.54.9.5.15-.02 1.24-.35 2.1.14.14.08.3.16.4.16.2 0 .5-.1.6-.3a.78.78 0 0 0-.2-1c-1.4-1-3.12-.44-3.28-.4z"/><circle cx="241.91" cy="72.05" r="1.4"/><circle cx="252.07" cy="71.25" r="1.4"/><path d="M247.9 72.45c-.4.1-.6.5-.4.9.5 1.3 1.4 3.8 1.3 4.7s-.85 1-1.2 1.1c-.45.12-.75.45-.65.9.12.58.65.63.95.6.8-.1 2.2-.9 2.3-2.4.1-1.6-1.2-5-1.4-5.4-.1-.4-.5-.6-.9-.4zm-4 10.4c-3.6-.2-4.35-3.17-4.4-3.3-.14-.42-.5-.6-.9-.5s-.6.5-.5.9c.4 1.5 2 4.2 5.8 4.4.4 0 .7-.3.7-.8 0-.3-.3-.7-.7-.7zM393.13 244.9l.01.1-.01-.1z"/></svg>