<svg xmlns="http://www.w3.org/2000/svg" viewBox="0 0 480 480" xmlns:v="https://vecta.io/nano"><g fill="#fff"><path d="M254.33 61.52c-.4-2.9-1.1-5.3-3.3-8.1-3.9-4.9-16.2-7.8-24.6-2.2-8.06 5.4-6.4 16.73-5.6 20.4-1 1.04-1.6 2.48-1.6 4.1 0 3.15 2.37 5.7 5.3 5.7.6 0 1.16-.12 1.7-.3-.2.07-.42.14-.63.2l-6.87 22.43-2.2 5.7s3.2 4.1 10.8 5.7c5.2 1.1 8.7 1.2 11 1 1.9-.2 4.2-.6 3-4.1-1.7-5.2-1.1-8.5-1.1-8.5l2.4-13.1c1.63.3 3.14.35 4.3-.01 3.2-1 5.9-4.4 6.9-10.1.5-3.3.8-9.2.8-13.4 0-1.1-.1-3.4-.3-5.4zm-26.4 18.68l-.08-.05a7.43 7.43 0 0 1-.56.42c.22-.14.43-.3.62-.47.15.54.3 1.1.42 1.6-.1-.48-.25-1-.4-1.5zm-1.33.75c.12-.06.24-.1.36-.18l-.36.18zm9.54 7.37l-.27-.12.27.12zm-.97-.44l-.26-.12a6.52 6.52 0 0 0 .26.12zm1.82.8c.04.02.08.03.12.05-.04-.02-.08-.04-.12-.05zm2.26.84c.04.01.08.03.13.04-.05-.01-.1-.02-.13-.04zm1.12.36l.1.03c-.03-.02-.06-.02-.1-.03z"/><ellipse cx="224.83" cy="75.72" rx="2.4" ry="2.5"/></g><path d="M254.82 61.45c-.4-2.92-1.13-5.45-3.4-8.34h0c-2.05-2.57-6.24-4.57-10.94-5.22-5.32-.73-10.4.3-14.33 2.92-8.08 5.42-6.66 16.66-5.85 20.68a6.44 6.44 0 0 0-1.58 4.24c0 3.42 2.6 6.2 5.8 6.2.12 0 .24-.02.36-.03l-6.63 21.65-2.3 5.96.17.22c.14.17 3.4 4.26 11.1 5.88 3.44.73 6.48 1.1 9.08 1.1a22.56 22.56 0 0 0 2.07-.09c1.28-.13 2.7-.37 3.4-1.45.5-.8.52-1.88.03-3.3-1.63-5-1.1-8.22-1.08-8.25l2.33-12.6c.68.1 1.35.18 1.96.18.76 0 1.46-.1 2.08-.28 3.63-1.14 6.27-4.96 7.24-10.5.52-3.45.8-9.52.8-13.47.01-1.2-.1-3.5-.3-5.48zm-15.1 41.98c-.03.14-.6 3.5 1.12 8.75.38 1.1.4 1.93.07 2.45-.45.7-1.6.88-2.64 1-2.9.25-6.55-.08-10.85-1-6.34-1.33-9.56-4.47-10.33-5.3l2.1-5.45 6.78-22.16c.58-.16 1.13-.4 1.63-.75.08.3.16.6.22.88.53 2.22 2.42 4.1 5.96 5.93 2.5 1.3 5.52 2.5 8.25 3.06l-2.3 12.6zm13.6-23.2c-.9 5.15-3.3 8.7-6.56 9.7-3 .94-8.62-1.07-12.52-3.07-3.2-1.66-5-3.38-5.44-5.27a24.44 24.44 0 0 0-.35-1.35L228.2 79c-.88 1.16-2.2 1.92-3.7 1.92-2.65 0-4.8-2.33-4.8-5.2s2.15-5.2 4.8-5.2c1.67 0 3.14.93 4 2.33l.75-.67c-1.05-1.6-2.8-2.65-4.75-2.65-1.25 0-2.4.43-3.36 1.16-.78-4.25-1.7-14.2 5.54-19.04 8.3-5.53 20.24-2.54 23.93 2.1 2.14 2.72 2.8 5.02 3.2 7.84.2 1.93.3 4.2.3 5.35-.01 3.9-.3 9.9-.8 13.3zm-28.5-7.5c-1.6 0-2.9 1.35-2.9 3s1.3 3 2.9 3 2.9-1.35 2.9-3-1.3-3-2.9-3zm0 5c-1.05 0-1.9-.9-1.9-2s.85-2 1.9-2 1.9.9 1.9 2-.86 2-1.9 2zm14.23-9.27c.12-.13 1.2-1.8 3.9-1.6.4 0 .8-.3.8-.7s-.3-.8-.7-.8c-3.6-.3-5.2 2.1-5.3 2.2-.2.3-.18.75.15 1 .5.38.92.16 1.15-.1zm11-3.6a.73.73 0 0 0-.52.9c.1.4.5.54.9.5.15-.02 1.24-.35 2.1.14.14.08.3.16.4.16.2 0 .5-.1.6-.3a.78.78 0 0 0-.2-1c-1.4-1-3.13-.44-3.28-.4z"/><circle cx="241.96" cy="72.05" r="1.4"/><circle cx="251.97" cy="71.25" r="1.4"/><path d="M247.96 72.45c-.4.1-.6.5-.4.9.5 1.3 1.4 3.8 1.3 4.7s-.85 1-1.2 1.1c-.45.12-.75.45-.65.9.12.58.65.63.95.6.8-.1 2.2-.9 2.3-2.4.1-1.6-1.2-5-1.4-5.4-.1-.4-.5-.6-.9-.4zm-4 10.4c-3.6-.2-4.35-3.17-4.4-3.3-.14-.42-.5-.6-.9-.5s-.6.5-.5.9c.4 1.5 2 4.2 5.8 4.4.4 0 .7-.3.7-.8 0-.3-.3-.7-.7-.7zM393.13 244.9l.01.1-.01-.1z"/></svg>