<svg xmlns="http://www.w3.org/2000/svg" viewBox="0 0 480 480" xmlns:v="https://vecta.io/nano"><path d="M393.13 244.9l.01.1-.01-.1z"/><path d="M254 52.88c-2.7-3.48-8.8-5.9-18.25-5.9s-14.97 3.67-16.32 12.26.3 13.57.3 13.57.22-.76 1-1.48l.06.3c-1 1.04-1.6 2.48-1.6 4.1 0 3.15 2.37 5.7 5.3 5.7.37 0 .72-.05 1.07-.13l-6.87 22.43-2.2 5.7s3.2 4.1 10.8 5.7c5.2 1.1 8.7 1.2 11 1 1.9-.2 4.2-.6 3-4.1-1.7-5.2-1.1-8.5-1.1-8.5l2.4-13.1c1.63.3 3.14.35 4.3-.01 3.2-1 5.9-4.4 6.9-10.1.5-3.3.8-9.2.8-13.4 0-.7-.04-1.86-.12-3.13l.13 1.27s1.06-1.16 1.35-2.5c.3-1.36.8-6.2-1.92-9.67zM227.86 80.1c.01.03.02.06.02.1l-.08-.05c.02-.01.04-.02.06-.04z" fill="#fff"/><path d="M229.82 73.5c-.17.01-.33.01-.48-.02 0 .02.1.07.48.02zm-9.52-3.25h0v-.01zm4.48 2.47c-1.6 0-2.9 1.35-2.9 3s1.3 3 2.9 3 2.9-1.35 2.9-3-1.3-3-2.9-3zm0 5c-1.05 0-1.9-.9-1.9-2s.85-2 1.9-2 1.9.9 1.9 2-.85 2-1.9 2zm27.02 5.6h0-.01zm-12.83-14.7c.1-.1 1.2-1.8 3.9-1.6.4 0 .8-.3.8-.9 0-1-.7-1.2-1.1-1.2-3.6-.3-5.2 2-5.3 2.1-.3.4-.27 1.2.3 1.66.43.36 1.13.17 1.4-.06zm11.5-2.26c.1-.01 1.2-.18 2.1.2.46.2.9-.1 1.02-.33.38-.7.08-1.2-.22-1.4-1.42-.98-3.2-.44-3.3-.4-.42.17-.86.57-.57 1.38.1.3.56.6.97.56zM247.07 85h0l-.03.05z"/><circle cx="241.92" cy="72.05" r="1.4"/><circle cx="251.92" cy="71.25" r="1.4"/><path d="M256.34 59.07c-.17-.6.25.52.08-.38.14-.04.12.42.2.17-.14-.9 0-1.5-.37-2.58l.1-.07c-.58-1.35-.9-2.7-1.65-3.42-1.02-1.14-.4-1.07-1.73-2l-.4-.5c-.56-.4-.5-.16-1.1-.6.1-.06-.78-.56-.36-.4-1.44-1-3.2-1.3-5.25-2.1-.5.04-1.56-.3-1.94-.22-.04-.1-2.17-.38-.92-.35.1 0 .3.04.27.07l.16-.08c-1.2-.4-2.27-.24-3.5-.36.36.07.84.1.5.14l-1.14-.1.24-.07-1.7-.15.23.12c-.83-.1-1.12-.28-2.06-.14-.42.08.78.16-.1.18l-2-.1-2.25.12c.15.1-.24.16-.63.24l-.06-.1c-1.5.43-.6-.15-2.1.32l-.22.23c-1.26.6-.8-.01-2.15.83.57-.23.35.1-.34.38l.13-.18c-.36.2-.47.3-.73.42.2-.16.04-.2-.5.1l.3-.3c-.33.22-.6.52-.9.78-.85.38-1.82 1.48-2.17 1.66 0 0-.38.33-.7.78l-.48.66c-.12.22-.2.4-.23.52.12-.4-.48.5-.42.2l-.5 1.2-.57 1.2.03-.1c-.9 2.03-.87 3.66-1.26 5.5.13-.07-.05.92.14.7-.06 1.95-.6 3.55-.1 4.27.02.9-.1 1.06-.13 1.52l-.03-.2.3 3.4c.18.84.37.9.65 2.16.03.03.07.06.1.1-.3-.06 0 .1.2.28-.07-.04-.1-.03-.02.05-.44.88-.7 1.88-.7 2.94 0 3.42 2.6 6.2 5.8 6.2.12 0 .24-.02.36-.03l-6.63 21.65-2.3 5.96.17.22c.14.17 3.4 4.26 11.1 5.88 3.44.73 6.48 1.1 9.08 1.1a22.56 22.56 0 0 0 2.07-.09c1.28-.13 2.7-.37 3.4-1.45.5-.8.52-1.88.03-3.3-1.63-5-1.1-8.22-1.08-8.25L243 91c.68.1 1.35.18 1.96.18.76 0 1.46-.1 2.08-.28 3.63-1.13 6.27-4.96 7.24-10.5.52-3.46.8-9.52.8-13.47 0-.37-.01-.85-.03-1.4l.03-.03a8.03 8.03 0 0 0 .48-.62c-.14.2-.3.37-.46.56-.02-.12.1-.28.28-.48l.07.02c0-.03-.01-.06-.01-.1.36-.4.9-1 1.06-1.97.33-1.34-.24-2.6-.16-3.85zm-16.65 44.36c-.03.14-.6 3.5 1.12 8.75.38 1.1.4 1.93.07 2.45-.45.7-1.6.88-2.64 1-2.9.25-6.55-.08-10.85-1-6.34-1.33-9.56-4.47-10.33-5.3l2.1-5.45 6.78-22.16c.58-.16 1.13-.4 1.63-.75.08.3.16.6.22.88.53 2.22 2.42 4.1 5.96 5.93 2.5 1.3 5.52 2.5 8.25 3.06l-2.3 12.6zm15.5-42.1c-.03.3-.06.6-.12.9-.01.06-.02.1-.04.16-.06-.37-.13-.72-.2-1.04-.13-.58-.25-1.17-.42-1.8-.04-.16-.1-.32-.15-.5a2.72 2.72 0 0 0-.27-.54l-.7-1.07-.96-.02-.64-.02-3.8-.18c-1.68-.07-3.35-.1-4.93.03-.14-.03-.5.03-.5.05l-4-.03h-1.7c-.38 0-.16.04-.65-.2-1.4-.7-3.13-1.58-4.5-2.2-.35-.14-.6-.32-.97-.47-.1-.04-.2-.08-.32-.1-.06-.01-.16-.03-.25-.02-.13.01-.24.03-.38.12-.14.08-.2.2-.25.3a1.04 1.04 0 0 0-.06.22.77.77 0 0 0 .01.27c.1.54.27.65.34.52.04-.08.06-.23.1-.48.02-.1.06-.32.2-.34.13.01.28.14.45.27.65.6 1.76 1.3 3.3 2.36h-.1l1.3.76.6.33.38.2c.14.1.32.1.48.1.22 0 .44-.01.66-.01l.57-.03c.37-.03.74-.06 1.12-.1.24.25 1.8.03 2.3.1l-.05.02c1.33-.2 2.74.16 4.03-.01-.05.02-.08.1-.37.1.94-.03 2.22-.1 2.3.06l3.08-.02 1.53-.03.7-.03c.08-.01.15-.03.22-.04.04.04.08.07.12.1.02.02.04.03.07.06l.13.14-.1-.06c.08.08.14.15.2.2.03.04.05.07.07.1.05.1.1.2.12.33.06.24.1.5.24.93-.01.05-.01.1-.02.1.32.82.4 2.52.55 3.22l-.1.06.12 1.05.12 1.06c.01.28.01.54.01.75 0 3.92-.28 9.92-.8 13.3a20.8 20.8 0 0 1-.52 2.23c-.16-.3-.36-.5-.55-.75.02-.07.1-.02.2.06l-.17-.22c.07-.04.13.1.2.17-.07-.36-.5-.48-.7-.82h-.1l-.01-.02c-.02.03-.12.01-.16-.02 0-.1.1-.13-.06-.23-.08-.15-.38-.2-.57-.26.1.06.04.08-.01.08-.08-.04-.1-.12-.18-.12l.03-.1c0 .1-.26-.01-.3.02-.02-.1.15 0 .2-.04-.35-.13-.17-.06-.53-.17-.2.01.01.1-.1.15-.17-.02-.34 0-.5-.1l.04.1c-.16.01-.3 0-.4-.03.57-.4 1.08-1.03 1.14-1.9.1-1.6-1.2-5-1.4-5.4-.1-.4-.5-.6-.9-.4-.4.1-.6.5-.4.9.5 1.3 1.4 3.8 1.3 4.7s-.85 1-1.2 1.1c-.4.1-.65.37-.66.74-.12-.04-.25-.08-.4-.13l.02-.03c-.46-.03-.76 0-1.05.2-.08-.16-.37.05-.5.02l.01-.02c-.24.2-.6.03-.83.22.01-.02 0-.06.06-.08-.2.08-.43.2-.48.1-.45.17-1.1.43-1.3.74v-.03c-.1.18-.2.14-.33.3-.02 0-.03 0-.03-.01-.1.2-.44.38-.52.54l-.06-.04-.25.3c.03-.04.07-.07.1-.1.1.15-.3.15-.36.47-.18.24.07.66-.07.88.06.15-.12-.14-.1.07-.1-.01-.05-.1-.13-.07 0 .03 0 .06-.01.1-1.38-.72-1.93-1.94-1.98-2.03-.2-.4-.6-.5-.97-.33-.38.17-.5.6-.34.97.65 1.4 2.7 3.8 6.47 3.34.2-.03.34-.13.44-.28.16-.01.3-.1.5-.1-.07-.02-.17-.02-.1-.07l.23.01-.05.06.34.04-.05-.08c.17.04.22.17.4.06.08-.06-.16-.1.02-.13.22.05.55.13.83.15-.03-.1.05-.08.13-.1l.01.07c.3-.1.1.16.4.08l.05-.1c.27-.15.14.16.44-.05-.12.01-.06-.16.1-.13l-.04.07c.08-.02.1-.05.16-.03-.05.04-.03.1.1.1l-.08.1.22-.13c.17.08.44-.02.52.08 0 0 .37.05.46-.06-.07.07.13.1.07.18.1-.08.38-.14.5-.06l-.02.01c.42.08.7-.1 1.1-.01-.02-.1.2-.04.14-.15.4-.1.8.18.9-.2.17-.05.24 0 .33.01-1.22 2.76-3.04 4.63-5.27 5.33-3 .94-8.62-1.07-12.52-3.07-3.2-1.66-5-3.38-5.44-5.27a24.44 24.44 0 0 0-.35-1.35l-.26-1.26c-.88 1.16-2.2 1.92-3.7 1.92-2.65 0-4.8-2.33-4.8-5.2 0-1.96 1.02-3.65 2.5-4.54.1-.06.2-.12.33-.16.36-.16.74-.26 1.1-.34a6.86 6.86 0 0 1 1.28-.13c.3.03.6.08.88.17-.13 0-.32-.01-.53-.01.36.03.7.1 1.04.2-.04.1-.6-.13-.93-.13.6.18 1.2.33 1.76.66.27.17.53.37.76.63l.03.03c.1.13.22.27.32.43.07.1.14.23.22.34.1.12.17.27.3.38.14.1.3.15.47.16.03.06.1.03.13.05.01-.02.54-.13.86-.26.33-.02.08.28.97-.15.36-.14.87-.46 1.23-1.05.17-.3.3-.65.32-1 .02-.32 0-.52 0-.75-.04.47-.1.3-.12.1.02-.42.13-.66.1-.98l.14-.03c-.14.16-.1-1.1-.15-1.26.1-.24.07.65.14.76l.05-2.52c-.1-.9-.13.16-.25-.27-.02-.8-.1-1.56-.04-2.47l-.12.3c-.14-1.5-.1-2.34-.25-3.42-.6-1.28-1.2-2.16-1.63-2.87-.43-.7-.72-1.2-.9-1.57-.35-.73-.46-.6-.5-.2-.01.5.2 1.3.42 1.93a20.43 20.43 0 0 0 .43 1.14l.55 1.4.22.6c.06.2.06.2.1.45.1.75.14 1.6.2 2.45.1 1.7.17 3.56.1 6.12l-.06.8c-.03.18-.03.2-.1.3-.1.17-.34.35-.6.5-.13.07-.27.13-.4.17-.06.02-.16.05-.2.06h-.03c-.04 0-.07-.03-.07-.07-.01-.02.01 0-.02-.04l-.17-.25c-.12-.17-.25-.35-.4-.53a4.96 4.96 0 0 0-1.11-1.01c-.9-.63-2.12-.96-3.47-.94-.8 0-1.64.1-2.47.36-.4.14-.82.32-1.2.56l-.3.17c-.05.03-.1.07-.14.1l-.03.03-.02.03c-.02.03-.04.06-.05.1-.02.08-.03.02-.05-.01-.01.02-.02.02-.04.03-.07-.03-.07.01-.13-.57-.08-.66-.14-1.33-.24-1.87l.08-.47c-.07-.4-.12-.9-.07-1.3l.03.03c-.08-.62-.02-1.3-.05-1.62l.03.03.02-.75.04.13a16.25 16.25 0 0 1 .24-3.17l-.14.06a15.96 15.96 0 0 0 .23-1.35l.17-1.06c.04-.34.1-.66.22-1 .1-.34.2-.74.4-1.14l.02.03c.12-.57.27-1.07.5-1.5.1-.22.22-.43.33-.63l.4-.56c.52-.75 1.15-1.4 1.88-2.3-.2.2.14-.03.14.01.77-.74 1.78-1.33 1.67-1.56.72-.37.62-.23.76-.2-.02-.05.1-.17.33-.3.23-.12.53-.25.83-.37l-.26.15c.55-.26 1.14-.42 1.7-.6l-.4-.1c.96-.22.3.17 1.2-.1l-.05-.17c.66-.14 1.2-.14 1.75-.13.53-.01 1.07.06 1.73.07 2.7-.14 5.6-.08 8.37.22 2.76.33 5.48 1 7.62 2.3l.13.2c0 .2 1.32.43 1.37.7l.52.26c.1.13.34.37.1.22.4.34.44.3.74.53l.3.47c1.26 1.5 2.16 3.06 2.43 5.25.03.88.07 2-.05 3.22zm-4 22.25l.02-.03c-.2.08-.4.08-.6.06v.1c-.42-.1-.6.08-.98-.03l.01-.02c-.5.23-.78-.16-1.3.06.06-.03-.03-.04-.02-.07-.24.02-.5.04-.5.2-.17 0-.14-.05-.16-.12 0 .08-.15.1-.28.1l.06-.03-.38.03.08.14c-.2-.04-.05-.17-.25-.14v.12c-.28-.02-.45-.2-.72-.3-1.13-.05-2.35.25-3.4.04l-.05-.1c-.02-.13-.3.2-.33.07l-.12.06c-.03-.02-.1-.05-.05-.08-.1-.01-.12.02-.2.05-.03-.03-.1-.05-.1-.08-.07-.02-.28 0-.26-.2.08-.07.16-.36.33-.64a6.16 6.16 0 0 1 .59-.8c.52-.65 1.6-.53 2.33-.93.03.01.1-.04.1-.06.25-.05.5-.1.76-.14 0 0 .92-.13 1.5-.26.05-.01.08-.02.13-.03.1.04.18.06.28.07.01.02.02.04.04.06.15.15.56.23.56.23.78.25 1.2.05 2.07.33.65.42.66.64 1.1 1.22.08.16.16.34.24.52.1.22.1.3.12.3.12.07-.01.06 0 .16-.01-.02-.05-.04-.07-.05-.02.05-.08.1-.16.07v-.02c-.08.08-.2.06-.26.1v-.02l-.13.02z"/><path d="M228.95 46.7h0l.1-.1z"/></svg>