<svg xmlns="http://www.w3.org/2000/svg" viewBox="0 0 480 480" xmlns:v="https://vecta.io/nano"><path d="M393.13 244.9l.01.1-.01-.1z"/><path d="M258.35 49.42c-3.5-4.6-12.1-.9-12.1-.9s-1.3-2.5-5.7-2.7c-1.8 0-3.9.3-6.1.4s-4.4-.2-7.1 1.1c-5.5 2.6-4.8 7.6-4.8 7.6s-1.6-.1-3.2 1.1c-1.6 1.3-3.4 3.3-2.3 6.7.7 2 2.55 9.83 2.55 9.83s.44-.62 1.26-1.28l.08.37c-1 1.04-1.6 2.48-1.6 4.1 0 3.15 2.37 5.7 5.3 5.7.37 0 .72-.05 1.07-.13l-6.87 22.43-2.2 5.7s3.2 4.1 10.8 5.7c5.2 1.1 8.7 1.2 11 1 1.9-.2 4.2-.6 3-4.1-1.7-5.2-1.1-8.5-1.1-8.5l1.98-10.8c2.4.66 4.56.93 6.14.78 4.2-.4 6.2-3 6.6-6.3.2-1.7.4-4.4.3-6 0-1.3-.9-1.7-.9-1.7-.1.6-.3 1.6-.3 1.6a9.94 9.94 0 0 1-.44.18c.07-.33.16-.64.22-.98.5-3.3.8-9.2.8-13.4 0-1.1-.1-3.4-.3-5.4a39.57 39.57 0 0 0-.2-1.23c4.3-1.86 7.33-6.74 4.12-10.87zm-30.33 30.7c.01.03.02.06.02.1l-.08-.05c.01-.01.04-.02.06-.04z" fill="#fff"/><path d="M244.32 81.08l.47.16c-.01-.02-.12-.07-.47-.16zm4.76-34.15c.04-.01.08-.03.12-.04l-.12.04zm4.88 40.23v-.14.14zm-29.03-14.44c-1.6 0-2.9 1.35-2.9 3s1.3 3 2.9 3 2.9-1.35 2.9-3-1.3-3-2.9-3zm0 5c-1.05 0-1.9-.9-1.9-2s.85-2 1.9-2 1.9.9 1.9 2-.85 2-1.9 2z"/><path d="M260.53 52.4c-.1-.98-.5-2-1.06-2.9-.53-.9-1.42-1.72-2.34-2.26-1.93-1.02-3.88-.97-5-.8l.15-.05c-1.28.24-1.67.15-3.05.53-.08 0-.18.01-.17 0l-2.4.8c-.08.02-.18.1-.24.06-.05-.08-.1-.15-.15-.2l-.06-.07-.14-.15c-.1-.1-.2-.18-.3-.27l-.52-.4-.01-.12c-.82-.57-1.74-.92-2.67-1.13a7.14 7.14 0 0 1 1.02.33c-.22.06-.7-.16-1.44-.36-.7-.2-1.74-.36-2.7-.2-1.85.06-3.64.9-5.53.82-.9.14.78-.22-.55-.1-.04-.14.62-.1.28-.2-1.3.1-2.2-.18-3.87.2l-.1-.1c-1.1.3-2.1.65-2.96 1.08-.88.4-1.63.9-2.14 1.47l-1.4 1.42c-.26.32-.6.64-.95 1.86-.16.3-.3.6-.42.9-.12.48-.1.7-.1.9l.02.3V54c0 .02-.01.05-.01.1-.04-.03-.05.03-.07.08-.13-.02-.23-.02-.17-.08h-.14c-.02 0-.04 0-.15.03a4.07 4.07 0 0 0-.5.13 5.93 5.93 0 0 0-.98.4 7.13 7.13 0 0 0-.92.59c-.3.23-.53.46-.78.7-1 .98-2 2.35-2.3 4.2.04.42.07 1.1.2 1.7.1.62.33 1.2.46 1.4-.03.08.86 3.1.22 1.4-.05-.15-.13-.4-.1-.4l-.16-.18c.3 1.8.96 3.17 1.37 4.94-.1-.53-.28-1.22-.1-.78l.4 1.64-.17-.32.8 3.54-.06-.74.26 1.34.1.53c-.1.48-.17.97-.17 1.48 0 3.42 2.6 6.2 5.8 6.2.12 0 .24-.03.36-.03l-6.63 21.65-2.3 5.96.17.22c.14.17 3.4 4.26 11.1 5.88 3.44.73 6.48 1.1 9.08 1.1a22.56 22.56 0 0 0 2.07-.09c1.28-.13 2.7-.37 3.4-1.45.5-.8.52-1.88.03-3.3-1.63-5-1.1-8.22-1.08-8.25l1.83-10c1.22.27 2.33.54 3.3.68 1.13.16 2.1.13 2.62-.17 1.38-.2 1.67-.2 2.4-.4a3.09 3.09 0 0 1-.32.14 7.57 7.57 0 0 0 2.65-1.51c.6-.54 1.08-1.1 1.57-2 .2-.47.25-.77.33-1.15.06-.4.18-.85.33-1.7 0 .58.12-.15.17-.76-.03.4-.01.53.14-.28-.02-.12-.02-.3-.02-.46.01-.01.02-.04.02-.02.06-1.04.01-.86-.04-.38-.01-.03-.03.01-.07.16.22-1.06.18-3 .32-3.13 0-.33 0-.64-.02-.95s-.02-.57-.08-.96a2.8 2.8 0 0 0-.39-.98c0-.01 0-.02.01-.03v.01c-.2-.3-.5-.57-.87-.75l-.08-.04c.4-3.53.62-8.56.62-12 0-1.18-.1-3.5-.3-5.47-.03-.22-.07-.43-.1-.65.35-.17.66-.34.86-.44l-.06.06c.88-.62 1.8-1.25 2.57-2.05.78-.8 1.44-1.73 1.76-2.76 0 .1.04.16-.17.6.36-.7.56-1.64.67-2.4l.05-.97c.04-.25.04-.4.08-.45zm-40.7 23.3a5.46 5.46 0 0 1 .68-2.62 8.73 8.73 0 0 1 .31-.38c.22-.25.45-.47.7-.72.27-.24.02-.15-.3.12-.02.02-.03.03-.05.04a5.44 5.44 0 0 1 .49-.47c.6-.4 1.4-.76 2.26-.9.9-.15 1.93-.08 2.7.24-.01-.02 0-.02.01-.03a4.97 4.97 0 0 1 2.01 1.85l.05-.05c.08.1.17.25.3.42-.05-.04-.1-.07-.15-.1.15.1.3.2.43.32.08.12.1.1.1.15s0 .04-.02.14l-.08.28c-.05.16-.1.27-.16.4-.1.27-.2.63-.27 1.65.16-.88.3-.37.06.7l-.05-.3c-.1.6-.08.8-.17 1.2.01-.37-.13-.22-.24.68l-.04-.62a39.17 39.17 0 0 0-.03 1.54l-.04-.3c-.88 1.16-2.2 1.92-3.7 1.92-2.65 0-4.8-2.33-4.8-5.2zm20 27.7c-.03.14-.6 3.5 1.12 8.75.38 1.1.4 1.93.07 2.45-.45.7-1.6.88-2.64 1-2.9.25-6.55-.08-10.85-1-6.34-1.33-9.56-4.47-10.33-5.3l2.1-5.45 6.8-22.17a5.56 5.56 0 0 0 1.88-.95l.23.13c-.02-.1-.04-.17-.07-.25.03-.02.07-.04.1-.07a12.22 12.22 0 0 0-.03 1.21c.03.8.1 1.48.17 1.9l.18.5a8.19 8.19 0 0 0 .52 1.01c.42.72.98 1.42 1.25 1.63-.45-.4.54.88.16.6l1.4 1.3c.58.52 1.22 1 1.58 1.3-.05-.03-.1-.06-.16-.1 1.43.98 2.63 1.5 3.88 2.03 1.24.5 2.45.95 3.8 1.45-.05-.08.33.02.65.1l-1.8 9.94zm18.9-50c-.12 1.45-.84 2.84-1.83 3.96-.15.13-.46.53-.46.53-.68.63-1.48 1.12-2.32 1.5-.4.2-.86.34-1.3.5-.47.15-.93.27-1.4.38 0 0-1.7.42-4.03.52-2.32.12-5.23-.1-7.45-.4-2.22-.28-3.77-.53-3.45-.23.16.14.8.43 2.07.82 1.28.38 3.2.9 6.02 1.26l-.15.03c3.35.25 5.55.05 7.8-.7.22.08.88-.1 1.6-.37.01 0 .02-.01.03-.01l.06.35c.2 1.93.3 4.2.3 5.35 0 3.92-.28 9.92-.8 13.3-.04.23-.1.45-.14.68-.56.24-1.24.46-1.9.6-.3-.03.27-.2.95-.4-.55.17-1.13.28-1.7.38 0-.1.98-.22 1.5-.4-2 .32-4.26.8-6.68.2-.17.01-.35 0-.52-.01l-.14-.05c0 .05-.56 0-.92-.1-.3-.2.08-.2-1.08-.57-.87-.4-2.55-.96-3.63-1.62.58.36.36.3.1.18-.53-.32-.74-.62-1.16-.85l.04-.15c.1.26-1.33-.88-1.52-1.02-.18-.3.76.58.94.6-.94-.78-1.15-1-1.36-1.22-.2-.22-.45-.42-1.23-1.35-.9-.96.05.27-.44-.15-.72-.9-1.46-1.83-1.9-3.07 0 .14.03.3.05.43-.26-.48-.43-.94-.42-1.37.01-.4.26-.77.46-1.1.43-.67.86-1.24 1.32-1.85a13.98 13.98 0 0 0 1.76-4.62c.23-1.2.25-2.06.23-2.6-.08-1.07-.25-1.03-.4-.42-.14.5-.38 1.57-.67 2.44-.27.87-.58 1.57-.58 1.57a14.65 14.65 0 0 1-.98 1.9c-.35.57-.76 1.17-1.12 1.73-.37.6-.72 1.05-1.12 1.85a3.02 3.02 0 0 0-.25.8c-.04.32-.02.6.01.83.02.18.1.46.17.7.08.18.15.4.23.55.64 1.35 1.48 2.5 2.54 3.73a20.46 20.46 0 0 0 4.1 3.53c1.5 1.02 2.85 1.64 4.07 2.13 1.22.47 2.35.77 3.5 1a17.31 17.31 0 0 0 3.7.27 15.2 15.2 0 0 0 2.2-.24 13.3 13.3 0 0 0 1.23-.28l.65-.2.33-.1.4-.15.18-.08-.01.9c-.04 1.32-.13 2.66-.27 3.9.01.7-.22 1.67-.68 2.5-.46.85-1.16 1.52-1.8 2-.2.1-.4.14-.6.2-.47.28-1.1.53-1.68.57l.03-.04c-.83.26-1.8.2-2.26.22l.04-.03c-.36-.01-.72-.04-1.1-.08l.2-.02c-1.58-.08-3.22-.5-4.6-.97l.08.16-3.46-1.32c-.96-.4-1.9-.8-3.1-1.6h.05c-1.55-.7-2.5-1.8-3.34-2.9-.4-.57-.8-1.16-1.15-1.8a7.38 7.38 0 0 1-.46-.94c-.1-.24-.16-.7-.22-1.1.06.43.06-.2.1-.15-.07-1.63.22-3.48-.03-3.53.2-1.25.24-1 .37-1.15-.1-.01.04-1.1.25-2.07l-.06.45.2-.9.26-1.1c-.07-.23-.17-.47-.27-.68-.08-.16-.16-.32-.25-.47.04.22.06.4.1.65-.34-.77-.37-.86-.37-.98-.02-.1-.01-.22-.54-.82l-.12.13c-.73-.86-1.48-1.43-2.32-1.83s-1.78-.6-2.93-.58a7.11 7.11 0 0 0-2.91.93c-.23.12-.43.27-.65.4l-.28.2-.07.06a1.76 1.76 0 0 0-.26.28c-.05.1-.05-.01-.07-.05l-.05-.17-.14-.5-.65-2.48c-.45-1.66-.88-3.3-1.42-4.94-.26-.75-.4-1.47-.36-2.2.05-.7.26-1.4.64-2 .37-.6.9-1.14 1.47-1.6.54-.46 1.15-.75 1.8-.92.1.02.2.03.3.05.04.02.03.03.17.01s.3-.05.55-.07c.23-.24.45-.47.6-.6.1-.18.22-.42.4-.7-.01-.15-.03-.3-.03-.42s.01-.26.01-.3c.01-.1.03-.2.06-.23 0-.27.03-.54.05-.82.1-.22.26-.67.2-.27l.4-1.25c.16-.22.34-.43.5-.63.9-1.17 2-2.03 3.3-2.67 1.3-.65 2.72-.97 4.43-.97.85.03 1.95.08 3.12 0 1.16-.06 2.4-.2 3.65-.3.62-.03 1.25-.1 1.8-.05.58.03 1.17.13 1.72.27.56.14 1.07.36 1.54.62.23.13.45.28.65.43l.3.24.13.13c.1.1.16.2.24.28a7.8 7.8 0 0 1 .6.31c.18.06.45.07.66.1l.6-.23c.12-.04.23-.08.34-.13l.63-.22c1.47-.5 3.1-.82 4.7-.8 1.6.07 3.23.5 4.25 1.6.24.3.5.55.7.9.23.32.37.67.52 1 .26.7.4 1.43.32 2.15zm-19.56 15.05c.12-.13 1.2-1.8 3.9-1.6.4 0 .8-.3.8-.7s-.3-.8-.7-.8c-3.6-.3-5.2 2.1-5.3 2.2-.2.3-.18.75.15 1 .5.38.92.16 1.15-.1zm11.4-2.2c.15-.02 1.24-.35 2.1.14.14.08.3.16.4.16.2 0 .5-.1.6-.3a.78.78 0 0 0-.2-1c-1.4-1-3.13-.44-3.28-.4a.73.73 0 0 0-.52.9c.1.4.5.54.9.5z"/><circle cx="242.07" cy="72.05" r="1.4"/><circle cx="252.07" cy="71.25" r="1.4"/><path d="M248.07 80.65c.8-.1 2.2-.9 2.3-2.4.1-1.6-1.2-5-1.4-5.4-.1-.4-.5-.6-.9-.4-.4.1-.6.5-.4.9.5 1.3 1.4 3.8 1.3 4.7s-.85 1-1.2 1.1c-.45.12-.75.45-.65.9.12.58.65.64.95.6zm-4.54 5.45c.4-.05.66-.38.6-.88-.04-.3-.38-.66-.78-.6-3.6.23-4.7-2.63-4.76-2.77-.2-.4-.57-.53-.95-.38-.4.15-.54.57-.4.95.58 1.45 2.5 3.95 6.28 3.7zm-22.15-14.87l-.06-.3a8.73 8.73 0 0 0-.88.7l.1.46a6.2 6.2 0 0 1 .84-.86zm7.82 11.9a5.05 5.05 0 0 1-.1-1c-.07-.17-.13-.35-.17-.52l-.5-1.9c-.25.28-.53.53-.83.74l.36 1.4c.32 1.34 1.15 2.56 2.52 3.72-.68-.97-1.15-1.87-1.27-2.44z"/></svg>