<svg xmlns="http://www.w3.org/2000/svg" viewBox="0 0 480 480" xmlns:v="https://vecta.io/nano"><path d="M258.66 47.9s-1.83 1.25-3.23 1.32c-1.4.07-1.47-.07-1.47-1.03s-.15-1.54-.37-2.27-1.17-1.83-1.17-1.83-.8 1.54-2.64 1.98-3.6-.3-6.53-1.54c-2.94-1.25-5.72-1.47-8.15-.8-2.42.66-3.3 1.4-4.26 2.13s-2.35 2.95-2.35 2.95-2.83-.33-5.87 1.08c-3.34 1.56-4.77 5.87-5.14 9.03s.6 6.68 1.17 8.5 1.65 4.13 1.65 4.13.18-.22.5-.5l.12.6c-1 1.04-1.6 2.48-1.6 4.1 0 3.15 2.37 5.7 5.3 5.7.37 0 .72-.05 1.07-.13l-6.87 22.43-2.2 5.7s3.2 4.1 10.8 5.7c5.2 1.1 8.7 1.2 11 1 1.9-.2 4.2-.6 3-4.1-1.7-5.2-1.1-8.5-1.1-8.5l2.4-13.1c1.63.3 3.14.35 4.3-.01 3.2-1 5.9-4.4 6.9-10.1.5-3.3.8-9.2.8-13.4 0-1.1-.1-3.4-.3-5.4-.07-.52-.16-1.02-.26-1.5a11.2 11.2 0 0 0 3.3-2.34c4.95-5.07 1.2-9.77 1.2-9.77zm-30.63 32.2c.01.03.02.06.02.1l-.08-.05c.02-.01.04-.02.06-.04z" fill="#fff"/><path d="M251.86 60.2l.33-.04c-.02-.03-.1-.01-.33.04zm-29.66 9.23l.08-.04c-.06.02-.08.03-.08.04zm38.86-18.17v.02l.03.1-.03-.12z"/><circle cx="242.08" cy="72.05" r="1.4"/><path d="M224.94 72.72c-1.6 0-2.9 1.35-2.9 3s1.3 3 2.9 3 2.9-1.35 2.9-3-1.3-3-2.9-3zm0 5c-1.05 0-1.9-.9-1.9-2s.85-2 1.9-2 1.9.9 1.9 2-.85 2-1.9 2zm14.48-10.36c.12-.13 1.2-1.8 3.9-1.6.4 0 .8-.3.8-.7s-.3-.8-.7-.8c-3.6-.3-5.2 2.1-5.3 2.2-.2.3-.18.75.15 1 .5.38.92.16 1.15-.1zm11.14-2.54c.15-.02 1.24-.35 2.1.14.14.08.3.16.4.16.2 0 .5-.1.6-.3a.78.78 0 0 0-.2-1c-1.4-1-3.13-.44-3.28-.4a.73.73 0 0 0-.52.9c.1.4.5.54.9.5z"/><circle cx="252.08" cy="71.25" r="1.4"/><path d="M244.3 82.96c-3.6.17-4.65-2.7-4.7-2.85-.18-.4-.56-.54-.95-.4s-.55.56-.4.95c.55 1.45 2.42 3.98 6.22 3.8.4-.04.67-.37.62-.87a.76.76 0 0 0-.77-.62zm16.76-31.68l-.57-2.03-.22-.55-.18-.37-.23-.4c-.32-.52-.68-.98-1-1.3l-.47.35-.78.37-.46.3-.27.16a1.93 1.93 0 0 1-.56.21l.01-.04c-.48.3-1.07.28-1.2.32l.01-.03c-.05 0-.1.01-.15 0l.05-.03c-.06.02-.1-.02-.12-.07-.01-.03-.01-.04-.02-.1v-.38c-.04-.63-.17-1.27-.3-1.8l-.1.12c-.04-.18-.07-.36-.17-.6l-.13-.3c-.04-.1-.12-.22-.18-.33a8.35 8.35 0 0 0-.82-1.12l-.52-.03c-.14-.01-.26-.05-.34.02-.18.1-.43.18-.83.28-.22.33-.58.66-.68.7-.16.12-.35.22-.56.3v-.04c-.8.6-1.73.55-2.55.32l-2.95-.96c.3.08-.1-.1-.06-.13-1.06-.42-2.35-.9-2.44-.65-.85-.28-.68-.28-.76-.42-.02.1-.8-.06-1.48-.17h.33a11.3 11.3 0 0 0-2-.2 4.79 4.79 0 0 1 .38.23c-1.05-.1-.26-.3-1.3-.23l.02.17c-1.46.03-2.4.01-3.8.34-1.22.38-2.46 1.15-3.42 1.98-.6.52-.96 1.03-1.35 1.56l-.55.8-.13.2-.04.08c-.03.04-.05.1-.08.14h-.2l-.66.02-1.3.15a14.34 14.34 0 0 0-2.52.65c-.8.3-1.6.65-2.33 1.18-.7.52-1.3 1.13-1.83 1.77l-.25.13c-.26-.02-.6 1.5-.8 1.6l-.2.63c-.1.15-.27.5-.2.18-.23.56-.2.6-.3 1l-.3.58c-.74 2.24-.7 4.37-.43 6.8.05 1.16.33 2.68.8 4.24.23.78.53 1.6.85 2.34l.5 1.13.8 1.72c.08 0 .13.01.2.02a6.42 6.42 0 0 0-1.07 3.57c0 3.42 2.6 6.2 5.8 6.2.12 0 .24-.02.36-.03l-6.63 21.65-2.3 5.96.17.22c.14.17 3.4 4.26 11.1 5.88 3.44.73 6.48 1.1 9.08 1.1a22.56 22.56 0 0 0 2.07-.09c1.28-.13 2.7-.37 3.4-1.45.5-.8.52-1.88.03-3.3-1.63-5-1.1-8.22-1.08-8.25l2.3-12.56c.68.1 1.35.18 1.96.18.76 0 1.46-.1 2.08-.28 3.63-1.14 6.27-4.96 7.25-10.5.1-.64.18-1.36.26-2.14 1.83-.73 3.13-3.16 3.13-6.12 0-2.67-1.06-4.9-2.6-5.86-.03-1.26-.13-3.14-.3-4.8-.02-.17-.06-.33-.1-.5 1.08-.5 2.23-1.22 3.5-2.52.85-.9 1.65-1.98 2.17-3.23.54-1.26.72-2.66.56-3.94zm-21.2 52.15c-.03.14-.6 3.5 1.12 8.75.38 1.1.4 1.93.07 2.45-.45.7-1.6.88-2.64 1-2.9.25-6.55-.08-10.85-1-6.34-1.33-9.56-4.47-10.33-5.3l2.1-5.45 6.78-22.16c.58-.16 1.13-.4 1.63-.75.08.3.16.6.22.88.53 2.22 2.42 4.1 5.96 5.93 2.5 1.3 5.52 2.5 8.25 3.06l-2.3 12.6zm13.6-23.2c-.9 5.15-3.3 8.7-6.56 9.7-3 .94-8.62-1.07-12.52-3.07-3.2-1.65-5-3.38-5.44-5.27a24.44 24.44 0 0 0-.35-1.35l-.24-1.25c-.88 1.16-2.2 1.92-3.7 1.92-2.65 0-4.8-2.33-4.8-5.2s2.15-5.2 4.8-5.2c1.2 0 2.28.48 3.12 1.27.1.1.2.22.3.35l.23.36c.07.12.28.38.46.5.4.3.8.44 1.14.52l.93.2c.92.08 1.54-.14 2.2-.45a5.42 5.42 0 0 0 .9-.6l3.95.67c0 .08-.01.17-.01.25 0 3.6 2.2 6.6 5 6.6 2.7 0 5-3 5-6.6a8.76 8.76 0 0 0-.07-1.03c.05-.05.1-.1.17-.14-.01.1.01.23.07.35.5 1.3 1.4 3.8 1.3 4.7s-.85 1-1.2 1.1c-.45.12-.75.45-.65.9.12.58.65.63.95.6.8-.1 2.2-.9 2.3-2.4a4.77 4.77 0 0 0-.04-.82c.76 1 1.76 1.62 2.88 1.62.04 0 .08-.01.12-.01a42.74 42.74 0 0 1-.23 1.75zM236.38 64.3c-.2-1.83-1.2-3.7-2.13-4.98-.25-.34-.34-.46-.42-.7-.03-.1-.05-.2-.07-.27a1.12 1.12 0 0 0 .22-.03l.02.08c.02.02.05.03.07.04l.13.05a20.69 20.69 0 0 1 .76.35l1.04.52c3.87 1.95 6.4 2.96 11.87 2.92 2.42-.01 3.98-.3 5.5-.76l.5-.18c.01.08.03.15.04.22a73.09 73.09 0 0 1 .28 4.29c-.22-.05-.44-.08-.67-.08-2.2 0-3.95 2.33-4.24 5.44a2.4 2.4 0 0 0-.76-.09 1.91 1.91 0 0 0-1 .31c-.7-2.55-2.58-4.42-4.7-4.42-2.38 0-4.45 2.33-4.9 5.35l-3.22-.56c.1-.15.2-.33.17-.34.86-1.33 1.18-2.73 1.42-4.14 0 0 .06-.32.1-.86.05-.52.08-1.28-.02-2.16zm-2.44-6.13h0l.02.02h0c-.01-.01-.02-.02-.02-.03zm12.9 15.45c0 3.1-1.8 5.6-4 5.6s-4-2.5-4-5.6 1.8-5.6 4-5.6 4 2.5 4 5.6zm6.93 3.85c-.07.01-.15.02-.22.02-1.78 0-3.3-2.45-3.3-5.35s1.5-5.35 3.3-5.35a2.01 2.01 0 0 1 .69.13 125.81 125.81 0 0 1-.47 10.55zm1.47-9.9c.95.95 1.6 2.66 1.6 4.56 0 2.18-.85 4.1-2.02 4.93.26-3.05.4-6.7.43-9.5zm3.68-13.35c-.13.45-.36.83-.52 1.22-.23.36-.4.72-.65 1.05-.25.3-.47.65-.74.94-.28.28-.54.58-.86.85-.2.05.07-.23.4-.6a5.72 5.72 0 0 1-.88.75c-.06-.1.5-.43.74-.7-1.12.74-2.2 1.83-3.83 2.2l-.3.2-.1.02c.02.05-.3.22-.55.28-.25-.05-.04-.23-.83-.05-.64.01-1.8.32-2.64.37.46.01.3.07.12.1-.4.01-.65-.08-.97-.05l-.04-.14c.16.13-1.08.1-1.23.13-.22-.12.64-.03.75-.12-1.64-.1-.82-.02-2.45-.24-.88-.06.13.16-.3.2-.77-.12-1.55-.2-2.4-.55l.24.2a11.33 11.33 0 0 1-3.15-1.24l-3.17-1c-.8-.22-1.4-.28-1.6-.15-.05.04-.13.13-.2.2 0-.07.01-.13.03-.18.02-.07.04-.13-.05-.14-.06-.02-.2-.03-.37.15-.16.17-.27.55-.2 1.02.07.5.4 1 .62 1.6.25.6.53 1.34.73 2.2l-.07-.07c.33 1 .38 1.76.4 2.53.02.76 0 1.45-.02 2.18-.26.18-.38 1.7-.67 2.1v-.05a2.95 2.95 0 0 1-.87 1.55c-.42.4-.9.66-1.36.92.03-.04.03-.1.24-.2-.32.18-.78.3-1.07.3-.06 0-.1-.01-.12-.02-.1-.03-.2-.06-.3-.1-.16-.05-.23-.08-.25-.12-.26-.04-.47-.1-.58-.16-.06-.03-.1-.06-.12-.1-.03-.04-.14-.2-.24-.33-.4-.6-1.06-1.18-1.7-1.5-.65-.35-1.3-.54-1.86-.66-.57-.13-1.14-.14-1.55-.1l.1-.03c-.93.17-1.24.08-2.2.5-.06 0-.13.02-.12.01a20.35 20.35 0 0 1-.68.41c-.13.07-.25.16-.38.25l-.2.14c-.12.1-.23.18-.32.28-.1.2-.13-.07-.18-.12-.02-.04-.04-.08-.06-.1l.05-.13-.18-.38-.35-.82.23.62c-.33-.1-.37-1.3-.9-2.44-.32-1.14-1.2-2.2-1.3-3.47-.22-.57.3.48.05-.38.13-.05.15.4.23.15-.2-.85-.07-1.42-.22-2.47l.1-.05c-.26-1.38.27-2.54.28-3.46.1-.7.26-.9.4-1.13s.24-.44.4-1.15l.35-.46c.28-.54.01-.48.4-1.05.05.07.5-.7.37-.3.9-1.17 1.7-2.54 3.72-2.97.35-.33 1.36-.48 1.66-.66.06.02 2.03-.23.9.05-.1.02-.27.04-.26.01l-.12.13a8.7 8.7 0 0 0 1.16-.05c.2-.02.34-.04.57-.05.37-.01.75.01 1.1.03.15-.26.3-.52.46-.77l.22-.34.14-.2-.17.2a7.51 7.51 0 0 0-.23.32c-.13.18-.17.22-.05-.04l.4-.58.32-.44-.06.24c.33-.43.67-.85 1.02-1.2-.07.02-.15.05-.22.08.27-.26.48-.38.65-.47.26-.15.5-.33.8-.64.27-.3-.68.3-.04-.2.84-.52 2.34-.97 3.62-1.22-.14-.1.2-.17.54-.25l.06.1c.67-.17.8-.1.93-.04s.25.1.92.07l-.12.07c.12-.07.24-.15.37-.2.63-.06.8.02.97.1s.36.13 1.08.14c-.54-.1-.2-.3.46-.08l-.2.06c.37.08.5.07.74.17-.23-.01-.16.1.37.27l-.4.01a10.21 10.21 0 0 1 1.06.18c.72.42 2.07.84 2.35 1.1a15.55 15.55 0 0 0 .96.37c.52.18 1.13.3 1.4.27-.44.02.7.27.36.33.28-.01.85 0 1.43-.07a9.46 9.46 0 0 0 1.52-.3l-.12.06a4.37 4.37 0 0 0 1.21-.58 4.88 4.88 0 0 0 .49-.38c.08-.07.04-.05.07-.08a.81.81 0 0 0 .06-.13c.02-.07.06.01.1.02.04.03.07.08.1.13l.1.23c.03.12.05.23.08.36.12-.1.25.77.36.52a3.19 3.19 0 0 1 .12.6c.02.22.02.35.02.75 0 .36.04.7.17.97s.38.5.64.6.55.14.83.15c.13 0 .26-.01.4-.01l.24-.02c.36-.05.63-.17.8-.35.94-.3 1.13-.28 1.6-.46l-.2.12a3.72 3.72 0 0 1 .4-.2c.04-.03.08-.05.12-.08.07-.05.14-.1.2-.13.1-.01.15.16.2.24.03.05.04.1.08.16.07.13.1.28.18.43.22.5.52.52.62 1.55-.14-.3-.05.1-.04.47-.02-.24-.05-.3-.1.18.03.07.05.17.07.27-.01 0-.01.02-.02.01-.02.62.01.52.06.23.01.02.03-.01.07-.1-.14.66-.37 1.8-.57 1.82zm134.2 190.68l.01.1-.01-.1z"/></svg>