<svg xmlns="http://www.w3.org/2000/svg" viewBox="0 0 480 480" xmlns:v="https://vecta.io/nano"><path d="M170.38 413.07c-.02 0-.05.07-.1.27l.1-.27zm7.6-82.47l-.06.4c.01-.03.01-.05.01-.07l.05-.34zm49.8 100.32l-.05-.01h.01c.02.01.03.01.04.01zm85.78 10.68h-.12c-.02-.4-.1-.76-.18-1.1-1-3.3-8.8-8.7-14.2-10.8-.5-.2-1.13-.36-1.73-.66v.02c-2.87-1.3-17.87-9.76-17.87-9.76l-1.3-6.7c-.1-.7-.8-1.2-1.4-1.1-1 .1-2.3.8-2.9 3.5-1 4.7 0 7.9 0 7.9s-.3.27-.86.68l-.25-3.37h.04l-.34-4.5h-.03l-.74-9.96.8-.04c1.3-.1 2.4-1.2 2.4-2.5l.8-105.8c-.4-27.2-3.7-80.6-4.4-91.1h-73.4c-1.1 5.8-3.3 21.8-6.4 41.9l-11 75.4-13.8 77.1c-.3 1.8.9 3.5 2.7 3.8l3.15.5-1.66 7.63-.3-.04-.93 4.9c.05 0 .1.01.16.01l-2.06 9.44a4.56 4.56 0 0 1-.57-.35 1.32 1.32 0 0 0-2 1c-.3 2-.6 3.9-.7 8.4 0 1.9.3 3.8.5 5.5h.01c.18 1.66 0 3.12.1 4.1.1.9.8 1.6 1.8 1.6l67.7.2c1.4.1 2.7-1.1 2.7-2.6 0-1-.1-2.1-.3-3.2h-.12c-.02-.4-.1-.76-.18-1.1-1-3.3-8.8-8.7-14.2-10.8-.5-.2-1.13-.36-1.73-.66v.02c-2.87-1.3-17.87-9.76-17.87-9.76l-1.3-6.7c-.05-.37-.27-.67-.56-.87h0c.06-.4.14-.82.12-1 .04-.03.2-.86.26-1.04l-.56-.1.63.1h-.04c0 .04 0 .13-.01.28-.01.1-.04.24-.06.22l.05.13a5.01 5.01 0 0 0 .16-.61l.6.1c2 .3 3.9-.8 4.5-2.8l22.84-71.32 7.26 68.42c.2 1.9 1.9 3.3 3.8 3.2l2.66-.13.4 9.62-.46.02.2 4.43c.13.01.28.01.44.02l.23 5.54c-.1-.06-.2-.12-.3-.2a1.32 1.32 0 0 0-2 1c-.3 2-.6 3.9-.7 8.4 0 1.9.3 3.8.5 5.5h.01c.18 1.66 0 3.12.1 4.1.1.9.8 1.6 1.8 1.6l67.7.2c1.4.1 2.7-1.1 2.7-2.6a17.25 17.25 0 0 0-.29-3.21zm-112.93-30.07c-.05-.01-.1 0-.15-.01h0c.05.01.1 0 .15.01z" fill="#fff"/><path d="M235.15 376.85h0l.14.47zm-44.88-115.47l-.04.03c.01.03.02.03.04-.03zm9.53 2.16c-.14 1.16-.4 1.87-.58 3.3l-.08.05c-.17 1.87-.67 3.48-.74 4.73-.25 1.92-.43 1.24-.6 3.26l-.23.76c-.16.85.02.63-.18 1.56-.05-.07-.25 1.18-.2.62l-1.2 7.14c.02.63-.28 2.03-.27 2.5-.07.07-.47 2.83-.33 1.23.01-.14.05-.38.07-.36l-.04-.2c-.4 1.58-.4 2.93-.68 4.5.1-.47.2-1.1.18-.67l-.25 1.47-.01-.32-.4 2.2.13-.3c-.22 1.07-.4 1.43-.5 2.66-.03.56.27-1 .1.14l-1.03 5.4c.1-.16.03.34-.04.84l-.08.05c-.23 1.96-.28.7-.53 2.63l.04.36c-.15 1.76-.3.9-.45 2.88.12-.77.23-.33.03.6l-.03-.25-.15 1.05c.02-.32-.07-.18-.2.6v-.53l-.12 1.47-.67 3.33-.47 2.96c.02-.5-.24.82-.26.43a22.49 22.49 0 0 1-.5 3.2l.02-.14-1.27 7.1c.1-.1-.18 1.18-.01.9-.35 2.54-1.06 4.56-.9 5.53-.2 1.15-.33 1.35-.46 1.94l.03-.28-.78 4.38c-.1.8.02.96-.28 2.38.02-.47-.07.1-.17.65.05-.34.05-.45-.12.24 0 .1-.02.26-.03.4-.01.01-.01.03-.02.02-.14.9-.1.74-.01.33.01.02.02-.01.07-.13l-.6 2.67-1.1 6.86c-.1.24-.05-.3.05-.94l-.27 1.6c-.08-.03.12-.92.2-1.4-.48 1.86-.6 3.9-1.13 6.1l-.02.47-.04.13c.03 0-.01.5-.06.83-.13.3-.15-.05-.35 1.04-.23.85-.43 2.46-.6 3.6.13-.6.13-.4.1-.14l-.28 1.28-.1.04c.13-.2-.17 1.45-.17 1.66-.13.3.1-.86.07-1l-.6 3.3c-.15 1.18.13-.2.1.38l-.58 3.23.15-.36-.86 4.4c-2.07 14.58.34 3.22.34 3.22 1.26-5.66 1.57-8.64 2.78-15.43l2.7-13.7 1.62-8.98c.13-1.4.7-3.78.9-5.42l.2-.6c.07-.56.16-1.22.3-1.78l.01.04c.1-.84.3-1.78.35-2.2v.04l.18-1v.18c.2-1.46.48-2.96.74-4.28l-.1.1c.6-2.8.62-3.87 1.2-6.4v.04c.36-3.26 1.06-5.06 1.44-8.42-.05.42.08-.17.1-.13.24-1.53.52-3.17.35-3.22.2-1.1.2-.9.3-1.03-.08-.01.06-.98.2-1.85l-.04.4.4-2.5-.22.47c.27-1.32.23-.3.4-1.58h-.12c.34-1.83.7-2.87 1.06-4.64l3.6-22.16.14-.3c.15-.1.12-1.92.28-2.16l.07-.8c.06-.22.16-.7.12-.3.13-.74.1-.76.16-1.3l.2-.78c.54-2.9.8-5.4 1.33-8.46.77-3.65 1.75-10.6 2.32-14.6.73-5.64 2.3-12.08 3.03-17.86.05-.18.1-.67.07-.67l.88-5.25s4.23-25.48 0-6.3v-.13c-.54 2.87-.85 4.67-1.04 6.68-.22.3-.4 2.36-.57 3.02v-.07c-.16 1.78-.7 3.6-.86 5.3 0-.07-.04-.1.02-.5-.18 1.24-.42 2.93-.53 3-.46 2.95-1.18 7.05-1.33 8.96l-.01-.13c-.07 1.1-.2 1.4-.36 2.6-.02.06-.04.15-.05.13-.1 1.2-.54 3.42-.66 4.37l-.08.05-.37 2.33.16-.87c.13.33-.4 1.75-.56 3.46-.28 1.58-.15 3.27-.5 4.9-.04.8-.02-.7-.15.47-.1.03.05-.55-.08-.26z"/><path d="M192.28 306.72h0l-.02-.17zm-5.25 86.4h0l.04-.05zm66.52-.83h0l.03-.05zm-10-43.9h0l.06.07z"/><path d="M244.06 372.9c.36 2.4.01 5.25.4 7.7-.01.08.04.3.06.3l.12 2.27s.58 11 1.17 2.58l.03.05c0-1.25-.03-2.03-.22-2.88.16-.15-.04-1.02 0-1.3l.02.03c-.18-.75.01-1.57-.15-2.3.02.03.06.04.08.2-.05-.53-.14-1.26-.04-1.3l-.38-3.85.03.05c-.14-.46-.06-.6-.14-1.1l.02-.06c-.14-.5-.1-1.47-.2-1.88l.06-.03-.08-1 .01.38c-.2-.12.06-.77-.1-1.5-.02-.68-.47-1.36-.43-2.07-.1-.33.16.3.06-.2.1-.02.08.23.14.1-.08-.5.04-.82-.07-1.43l.07-.03c-.2-.8-.01-1.5-.17-2.03-.12-.82.18-.57-.02-1.4l.08-.34c-.01-.37-.14-.25-.12-.66.07.02.01-.52.1-.28.03-.93-.28-1.86-.2-3.08-.14-.25-.1-.87-.22-1.06.05-.04-.08-1.22.1-.55.01.06.02.16 0 .16l.08.08c.1-.7-.17-1.25-.2-1.94-.01.2.02.47-.05.3l-.04-.64.07.13-.04-.95-.07.14c0-.47.12-.64-.03-1.15-.08-.23-.07.45-.13-.04l-.03-2.35c-.08.08-.1-.13-.13-.35l.07-.03c-.17-.83.14-.32-.01-1.15l-.12-.14c-.2-.74.12-.42-.15-1.24.04.33-.15.17-.15-.24l.08.1c-.03-.22-.07-.3-.07-.45.05.13.1.06.07-.27l.1.2-.18-.6c.04-.5-.12-1.24-.03-1.45 0 0-.03-1.04-.16-1.27.1.2.07-.37.16-.2-.1-.26-.23-1.05-.17-1.38l.01.06c-.01-1.18-.28-2-.26-3.06-.08.06-.08-.5-.18-.36-.2-1.08.06-2-.3-2.37-.06-.5.03-.6.03-.85l.03.12-.18-1.9c-.06-.34-.23-.38-.24-1 .08.2.05-.06.03-.3.02.15.05.2.07-.12a1.07 1.07 0 0 1-.06-.17s.01-.02.01-.01c-.06-.38-.07-.3-.06-.14-.01-.01-.02.01-.03.06.05-.4-.1-1.1 0-1.17l-.43-2.94c.05-.1.12.1.16.4l-.08-.68c.08 0 .08.4.12.6.06-.83-.28-1.67-.24-2.63l-.08-.2.01-.06c-.03.01-.1-.2-.12-.34.06-.14.16 0 .12-.48.03-.38-.13-1.06-.2-1.55.01.26-.03.18-.07.07-.02-.24.03-.38-.01-.56l.1-.03c-.08.1-.15-.6-.2-.7.06-.14.1.36.15.42l-.14-1.42c-.12-.5-.08.1-.2-.13-.06-.44-.17-.87-.16-1.4l-.07.17c-.14-.83-.18-1.34-.15-1.9-1.27-6.18-1.05-1.23-1.05-1.23.04 2.47.4 3.72.74 6.64l.4 5.94.38 3.87c.18.58.14 1.63.3 2.32l-.05.28c.06.24.1.52.1.76h-.02c.08.36.1.76.13.94l-.02-.01.05.44-.04-.07c.1.62.17 1.27.2 1.84l.08-.05c0 1.23.22 1.66.2 2.77l-.02-.01c.34 1.37.02 2.2.35 3.62-.04-.18-.04.08-.06.07.08.66.15 1.36.32 1.36.04.48-.02.4-.08.46.07-.01.14.4.17.78l-.04-.17.1 1.07.12-.22c0 .57-.16.16-.08.7l.12-.02c.04.8-.1 1.27-.13 2.04l.75 9.54-.08.14c-.12.07.25.8.14.92l.08.34c-.02.1-.03.3-.07.13.02.32.04.32.1.55l-.06.35c.03 1.26.25 2.3.32 3.64-.08 1.55.26 4.53.46 6.24zm-71.58 40.7h0l-.07.04zm48.35 20.34h0l.07.07zm-54.13 6.33h0l.15-.1zm130.62-6.33h0l.08.07zm-54.12 6.33h0l.16-.1zm-37.77-13.83h0l.04.04zm90.67 3.1l-.13-.03c.07.03.1.03.13.03zm-76.45.07l-.13-.03c.07.03.1.03.13.03zm26.18-12.14h0l-.06.05z"/><path d="M314.86 442.9c0-.1 0-.2-.02-.38-.05-.68-.16-1.35-.23-1.83-.02-.12-.03-.24-.06-.32-.1-.01-.17-.01-.24-.01l-.2-.01h-.08l.06-.1c.04-.22-.01-.62-.1-.95l-.22-.54c-.43-.97-.96-1.5-1.54-2l-2.12-1.6c-1.43-1.26-1.7-1.78-3.38-2.8-.77-.54-1.66-1-2.47-1.44-.48-.04-1.06-.58-1.6-.67l-.12-.2c-.2-.03-.4-.08-.52-.22l.03-.03c-.28-.04-.52-.22-.66-.23l.03-.03-.3-.12.07-.02c-.46-.1-.9-.3-1.28-.5l-.02.15c-.4-.26-.62-.32-1.08-.44l-.12-.03c-.1-.08-.25-.13-.37-.2l-1.1-.52v-.01c-.01 0-.02-.01-.03-.01l-.38-.18-1.77-.82a1.59 1.59 0 0 0-.56-.23l-4.13-2.28-8.2-4.35-1.82-.82c.07-.96-.32-3.55-.32-3.55l-.52-3.26c-.14-.82-.67-1.53-1.37-1.9a2.52 2.52 0 0 0-1.13-.31c-.2-.01-.38.01-.6.05-.15.02-.3.06-.44.1-1.2.33-2.07 1.27-2.54 2.2-.2.38-.35.78-.47 1.18-.1-1-.26-2.08-.24-3.37-.15-.4-.15-1.34-.26-1.64.05-.05-.13-1.88.06-.84.02.1.03.25 0 .24l.08.12c.03-.6-.04-1.12-.1-1.64.15-.01.42-.04.6-.1a3.69 3.69 0 0 0 1.15-.5c.7-.46 1.22-1.18 1.42-2.02a2.72 2.72 0 0 0 .08-.63l.07-3.33.2-7.4.16-.85c.22-.37-.25-5.36-.04-6.1l-.07-2.26c.05-.63.1-1.97.14-.85l-.05-3.65.16-2.24c.2-8.24.01-15.25.15-23.92.37-10.42.3-30.03.15-41.33-.16-15.9-.06-34.4-1.2-50.64 0-.27-.03-.74-.06-1.15l-.05-.52c-.02-.13-.03-.22-.04-.2l-.73-14.87-1.87-29.17c-.44-5.58-.86-9.44-1.04-8.48s-.12 6.74.24 20.44l-.07-.36c.36 8.14.6 13.26 1.15 18.85-.24.9.32 6.68.32 8.6l-.03-.18c.47 4.95.32 10.23.73 15-.03-.18-.1-.28-.17-1.38.2 3.48.46 8.25.3 8.5l.93 25.26-.05-.37c.2 3.04.05 3.93.14 7.33-.02.2-.03.43-.04.4.18 3.3.01 9.67.07 12.35l-.1.17-.01 6.6.04-2.47c.3.86-.22 5-.06 9.78-.07 4.48.56 9.1.37 13.74.12 2.22-.22-1.96-.14 1.36-.16.1-.1-1.55-.22-.7.05 3.26-.2 5.34-.15 9.36l-.13.16c.17 5.24-.27 9.9-.1 13.38.04 5.4-.4 3.62-.23 9.25l-.2 2.2c-.06 2.4.2 1.73.07 4.4-.1-.16-.13 3.37-.2 1.8l-.07 2.62c-.26-.1-.62-.18-1.1-.3l.03-.03c-.64-.05-1.05-.06-1.5.1-.07-.17-.53 0-.68-.06l.01-.01c-.4.14-.8-.1-1.18.04.01-.01.02-.06.1-.07-.27.03-.65.08-.67-.02-.66.04-1.57.02-2 .2l.03-.03c-.24.1-.3.02-.58.1-.01-.01-.03-.02-.03-.02-.26.1-.76.04-.97.1l-.02-.07-.52.03.2.01c-.06.2-.4-.1-.77.02-.35-.01-.7.4-1.07.32-.17.1.15-.14-.1-.07-.01-.1.12-.06.05-.14-.26.05-.42-.1-.74-.01l-.01-.07c-.4.15-.78-.08-1.05.06-.42.07-.3-.2-.73-.06l-.17-.1c-.2-.01-.13.13-.34.08.01-.06-.27-.04-.15-.1-.48-.1-.96.17-1.6.02-.13.13-.45.06-.55.16-.02-.05-.63.01-.28-.12.03-.01.08-.01.08.01l.04-.07c-.36-.13-.65.1-1 .08.1.02.24.01.15.06h-.33l.07-.06-.5-.02.07.07c-.24-.03-.33-.16-.6-.04-.12.06.23.1-.02.13-.32-.04-.8-.1-1.2-.12.04.1-.07.08-.18.1l-.02-.07c-.43.12-.16-.16-.6-.07l-.07.1c-.38.16-.2-.15-.64.06.17-.02.08.16-.13.14l.05-.07c-.12.02-.15.05-.23.04.07-.04.03-.1-.14-.1l.1-.1-.32.14c-.25-.07-.64.04-.75-.06 0 0-.54-.04-.66.08.1-.07-.2-.1-.1-.17-.14.08-.55.16-.7.08h.03c-.6-.07-1.04.14-1.58.06.03.1-.26.05-.2.16-.56.12-1.03-.2-1.23.15-.26.03-.3-.07-.44-.1l.06-.02a9.41 9.41 0 0 1-.98.05c-.18.04-.2.2-.52.17.1-.07-.03-.05-.15-.05.08-.01.1-.04-.06-.07-.02.02-.06.03-.1.04-.2.01-.16.03-.07.03 0 .01 0 .02.03.04-.2-.08-.58.02-.6-.1-.6.04-1.02.16-1.52.22-.06-.05.06-.1.2-.13l-.35.03c0-.08.2-.05.3-.07-.43-.12-.87.15-1.36.05l-.1.07-.03-.01c0 .03-.1.08-.18.1-.07-.07 0-.16-.24-.15-.2-.06-.55.05-.8.1.14.01.1.05.04.07-.12.01-.2-.06-.3-.03l-.01-.1c.05.1-.32.1-.36.14-.07-.07.2-.07.22-.12l-.74.03c-.26.08.05.1-.07.17-.23.02-.45.1-.72.05l.1.08c-.43.08-.7.07-1 0-.2.04-.35.1-.5.13l-.62-6.65c-.1.5-.23-.9-.4-2.32l.1-.18c-.75-5.46.06-2.04-.65-7.46l-.27-.94c-.77-4.88-.02-2.67-.94-8.1.25 2.15-.17 1.04-.4-1.6l.2.66c-.18-1.47-.28-1.95-.36-2.93.16.87.22.44-.03-1.7l.3 1.43-.65-4.06c-.2-3.17-.9-8.14-.87-9.45 0 0-.64-6.78-1-8.32.26 1.35-.1-2.4.15-1.34-.18-1.02-.48-3.2-.72-5.26l2.28-6.83.42-.82c.32-.3 1.43-5.5 1.85-6.18l.64-2.3c.24-.63.7-1.96.4-.82.68-2.1.66-2.17 1.08-3.7l.82-2.23c2.62-8.33 4.4-15.53 6.98-24.34 3.3-10.52 8.7-30.54 11.9-42.06 1.1-4.06 2.3-8.25 3.6-12.52l1-3.2.75-2.42.13-.4.06-.18.04-.08c.08-.2.53-.53.98-.8.46-.3.97-.58 1.47-.93s1.02-.76 1.46-1.3.78-1.24.86-2c.2-2.4.3-4.6.42-6.9.1-2.28.2-4.56.2-6.85l-.01-1-.05-1.34c13.52-.7-7.63-.98-7.63-.98-8.1-.15-14.23-.13-20.75-.05l-10.36.14-14.5.12c.01.08.01.15.02.22-16.4.15-29.88.54 4.87 1.6l-.4.05c8.6.1 14.04.14 19.98-.1.94.3 7.08.03 9.1.12l-.2.02c5.26-.22 10.82.18 15.9-.01-.2.02-.3.1-1.47.1l2.93-.03c.2 0 .4-.01.6-.01.01.17.02.3.02.5.02 1.73-.05 3.06-.13 3.2l-.23 7.08-.17 3.73c-.04.85-.65 1.57-1.6 2.22-.46.32-.96.62-1.5.98-.02.01-.03.02-.05.03.22-4.28-.05-17.6-.05-17.6l-1.64-.1v20.05l-.73 2.55-1.38 5.15.06-.38c-.74 3.14-1.15 4-2.07 7.5-.08.18-.16.42-.16.38-.8 3.42-2.8 9.84-3.52 12.6l-.16.15-1.9 6.72.74-2.5c.05.95-1.64 5.03-2.83 9.95-1.33 4.55-2.02 9.42-3.5 14.1-.5 2.3.34-2.05-.5 1.35-.18.07.35-1.6-.02-.77-.87 3.33-1.7 5.4-2.77 9.5l-.17.13c-1.3 5.4-3.05 10-3.9 13.6-1.54 5.5-1.43 3.57-2.97 9.3l-.87 2.15c-.8 2.42-.36 1.8-1.3 4.46-.05-.2-1.17 3.37-.76 1.77-2.1 6.04-3.74 12.43-6.57 20.36-.36 1.8-1.77 5.8-2.04 7.15-.15.2-2.6 8.08-1.34 3.5.1-.4.33-1.08.35-1.02l.06-.58c-1.7 4.5-2.54 8.35-4.03 12.86.47-1.33 1.03-3.12.73-1.9l-1.36 4.2.18-.9-2.06 6.24.4-.82c-1.04 3.05-1.6 4.06-2.53 7.57-.4 1.6 1.1-2.85.1.4l-5.2 15.4c.3-.45-.16.96-.6 2.42l-.17.13c-.8 2.8-1.04 3.3-1.27 3.77-.12.24-.23.48-.42 1l-.35 1.04-.23.75c-.08.25-.14.45-.26.67.04-.1.05-.24.07-.35-.05.35-.17.7-.36 1.03-.63.72-1.3.87-1.75.93-.23.02-.4.01-.58-.01-.16-.03-.28-.05-.5-.1-.76-.18-1.6-.35-4.48-.65 2.27.34 1.02.44-1.75-.06h.72c-1.55-.22-2.07-.26-3.1-.45.93.08.5-.1-1.76-.44l1.54.1-4.32-.47c-3.3-.66-8.56-1.35-9.9-1.74 0 0-7.1-1.23-8.76-1.3.72.06.1-.08-.55-.23l-.25-.06c-.05-.02-.1-.03-.15-.05-.1-.02-.17-.08-.23-.1-.1-.07-.1-.1.06-.07-.28-.06-.7-.24-1.04-.66-.34-.4-.55-1.03-.44-1.67.3-1.86.66-3.76.92-4.84l-.06.4.9-4.8c.26.14.67.25.67.25 1.2.4 1.9.25 3.38.43 1.3.26 1.6.47 2.97.63.64.12 1.33.2 1.96.28.32-.08.82.13 1.2.1l.12.1c.13-.02.27-.02.4.04v.02c.2-.02.4.04.48.03l-.01.02.22.03-.04.02a4.03 4.03 0 0 1 .94.12l-.01-.1c.6.2.85.06 1.4.26l-.01.02c.74-.1 1.08.34 1.84.24-.1.01.03.05.02.07.34.03.7.08.73-.1.24.04.2.1.2.16.01-.07.23-.07.42-.04l-.1.01.55.06-.08-.16c.28.1.04.18.33.2l.02-.12c.4.1.6.3.97.45 1.6.3 3.36.3 4.82.75l.05.1c.01.13.44-.12.48.01l.18-.03c.04.03.14.07.05.1.16.03.17.01.3-.01l.16.1c.62.17 1.18.1 1.84.24.77.3 2.3.4 3.18.45 1.25.01 2.58.75 3.86.74.04.02.15 0 .15-.01l1.14.2s5.52.96 1.5-.78l.03-.02c-.6-.17-1-.25-1.46-.18-.04-.18-.5-.1-.65-.18v-.01c-.4.07-.77-.24-1.15-.18.02-.01.03-.06.12-.05-.27-.02-.64-.05-.65-.15-.64-.08-1.53-.27-1.96-.18l.03-.02c-.25.07-.3-.03-.57-.02-.01-.02-.03-.03-.03-.03-.27.06-.74-.1-.96-.1v-.07l-.5-.07.2.05c-.1.17-.36-.18-.75-.12-.34-.08-.76.26-1.1.1-.18.06.17-.1-.1-.1.01-.1.13-.04.08-.13-.26 0-.4-.16-.7-.15v-.08c-.42.07-.74-.22-1.03-.14-.42-.01-.24-.26-.7-.2l-.15-.13c-.18-.05-.15.1-.35.02.02-.06-.25-.1-.12-.13-.45-.17-.96-.02-1.55-.28-.15.1-.45-.02-.56.05-.01-.06-.6-.1-.25-.17.03 0 .08.01.08.03l.05-.07c-.33-.2-.64-.03-1-.1.1.04.24.06.14.1l-.32-.06.08-.05-.47-.1.05.1c-.23-.08-.3-.22-.57-.16-.13.04.2.14-.05.12-.3-.1-.76-.26-1.15-.35.02.1-.08.07-.2.07v-.08c-.44.03-.13-.2-.56-.18l-.1.1c-.4.08-.18-.2-.63-.06.17.01.05.18-.15.1l.06-.06c-.12 0-.16.02-.23-.01.07-.03.05-.1-.12-.1l.13-.07-.34.08c-.23-.12-.63-.08-.7-.2 0 0-.5-.14-.65-.05.12-.05-.17-.12-.07-.2-.15.05-.56.05-.7-.06h.03c-.58-.18-1.03-.05-1.55-.24.01.1-.26 0-.2.12-.57.02-.97-.4-1.22-.08-.25-.02-.28-.13-.4-.17l.06-.01a11.93 11.93 0 0 1-.96-.13c-.18 0-.23.16-.54.07.1-.05-.02-.06-.13-.07.08 0 .1-.02-.04-.08-.02.02-.06.02-.1.03-.2-.03-.17-.01-.08.02-.01.01 0 .02.02.04-.2-.1-.56-.1-.57-.2-.6-.07-1.02-.03-1.52-.07-.05-.06.08-.1.22-.1l-.35-.04c.02-.08.2-.01.3-.01-.4-.2-.87-.01-1.33-.2l-.1.05-.03-.02c0 .03-.12.06-.2.06-.06-.08.03-.16-.2-.2-.18-.1-.54-.06-.8-.06.13.03.08.06.02.08-.12-.02-.18-.1-.27-.08v-.1c.03.1-.33.04-.38.07-.06-.08.2-.03.23-.08l-.72-.1c-.27.03.03.1-.1.16-.23-.02-.46.01-.7-.1l.07.1c-.43-.01-.7-.06-.96-.2-.73.03-1.17.1-1.42.17l2.77-15.76c-.2.3.56-3.5.2-2.58 1.16-7.5 2.8-13.54 2.73-16.34.58-3.4.85-4 1.2-5.75l-.12.8 2.28-12.94c.37-2.37.17-2.78 1-7-.14 1.38.15-.35.43-1.93-.16 1-.18 1.33.26-.73.02-.3.08-.75.14-1.18.01-.02.03-.1.04-.05.44-2.65.32-2.2.1-.97 0-.06-.04.04-.14.4.64-2.7 1.3-7.65 1.54-7.95 1.26-7.97 1.9-13.7 2.77-20.36.2-.73.06.83-.17 2.77l.62-4.72c.13.06-.3 2.72-.47 4.18 1-5.6 1.36-11.6 2.46-18.16l.08-1.38.07-.4c-.06.01.07-1.47.18-2.45.24-.9.26.1.7-3.16.47-2.56.97-7.32 1.4-10.7-.28 1.8-.26 1.22-.2.43.23-1.63.48-2.55.62-3.8l.14-.1c-.08-.24.52-4.35.54-4.9.25-.9-.28 2.54-.25 2.96l1.46-9.78c.4-3.5-.24.6-.13-1.08.44-3.08.8-6.1 1.42-9.6l-.3 1.1c.76-5.8 1.3-9.24 2-13.1 2.54-21.6 2.9-23.9 2-20.85-.85 3.1-2.2 11.56-2.2 11.56-1.42 8.45-2.33 14.87-3.3 21.7l-3.38 24.16-5.9 40.8-4.27 26.58c-.52 4.08-2 11.2-2.68 16l-.45 1.83c-.24 1.66-.54 3.6-.9 5.25v-.1c-.35 2.48-.9 5.25-1.08 6.48v-.1l-.52 3 .04-.52c-.67 4.3-1.46 8.74-2.2 12.63l.2-.3c-1.65 8.3-1.9 11.4-3.44 18.9l-.02-.1a163.41 163.41 0 0 1-1.04 6.54c-.26 1.2.08 2.6.88 3.56a4.14 4.14 0 0 0 1.47 1.15 4.6 4.6 0 0 0 .88.31c.32.08.5.1.76.14l2.08.37 1.22.2c2.78.48 5.75.96 9.28 1.4-1.23-.15.5.16.4.18 4.54.7 9.38 1.45 9.5 1.18 3.3.54 2.67.52 3.1.7 0-.1 2.23.2 4.52.55h-.03c-.03 0-.05.01-.08.02l-.15-.02.14.02c-.12.02-.23.05-.35.08-1.2.33-2.07 1.27-2.54 2.2-.43.83-.66 1.73-.8 2.62-.04 0-.07-.01-.1-.01-2.3-.32-2.88-.56-5.26-.8-1.13-.15-2.35-.26-3.46-.38-.54.06-1.46-.18-2.1-.15l-.23-.1c-.22.01-.47 0-.68-.06l.02-.02c-.33.01-.68-.06-.85-.05l.02-.02-.4-.04.07-.02a10.71 10.71 0 0 1-1.65-.17l.03.1c-1.07-.23-1.5-.1-2.46-.33l.02-.02c-1.27.08-1.94-.4-3.24-.34.16-.01-.06-.05-.05-.07-.6-.05-1.22-.1-1.25.06-.43-.05-.34-.1-.4-.17-.01.07-.38.06-.72.02l.16-.01-.96-.1.17.16c-.5-.1-.1-.2-.6-.2v.12a4.57 4.57 0 0 1-.46-.1 72.3 72.3 0 0 0 .63-2.73c.08-.74.13-1.77-.2-1.87-.18-.05-.42.14-.65.4l-.2 1.2c-.1.15-.07-.2 0-.6l-.2 1c-.08-.03.08-.58.13-.9-.33.98-.4 2.08-.67 3.22-.14-.03-.27-.07-.42-.1-.04.13-.07.26-.1.4-.46 2.28-.48 2.74-.86 5-.18.37-.08.5.12.58l-.37 1.75c-.1.75.12-.1.12.25-.12.65-.2 1.3-.4 2.03l.13-.22c-.2 1.23-.37 1.95-.63 2.75l-.2 1.38c-.04-.02-.1-.05-.13-.07-.06-.03-.26-.15-.43-.22-.18-.07-.36-.1-.54-.14-.73-.1-1.46.16-2 .73a2.48 2.48 0 0 0-.57 1.06 24.25 24.25 0 0 0-.18.85l-.03-.04c-.05 2.96-.8 4.65-.5 7.7-.04-.38-.08.16-.1.13.03 1.48.24 2.96.52 2.96.1 1 .01.83-.1.98.06-.01.13.2.2.5.01.05.02.12.03.18-.04 0-.07-.01-.1-.01l.04 1.45.03.53.01.44v.6l-.02 1.25c.02.43-.03.9.18 1.56a2.67 2.67 0 0 0 1.22 1.47 2.75 2.75 0 0 0 .91.32c.16.02.3.04.46.04h.33l1.25-.02 2.5-.05c3.32-.06 6.6-.1 9.63.1l.27.15c.1.2 1.68-.3 1.9-.1l.7-.1c.2.04.62.08.26.13.65.01.67-.02 1.14-.1l.7.14c2.57.1 4.77-.14 7.47-.08 3.25.28 9.38.05 12.9-.1 4.97-.3 10.72.56 15.8.2.16.03.6-.04.6-.06l4.65.04 3.25-.01 2.98-.04 1.54-.04c.64 0 1.27-.24 1.72-.55.94-.65 1.3-1.6 1.33-2.2.03-.6-.12-.84-.23-.68-.14.14-.22.78-.93 1.47-.35.33-.9.64-1.53.66-.16.01-.32-.02-.5-.05-.2-.03-.43-.05-.66-.08l-1.5-.17.12-.05c-2.54-.12-4.15-.15-5.9.08-.27-.3-2.1-.04-2.68-.13l.06-.02c-1.56.22-3.2-.2-4.7 0 .06-.02.1-.1.44-.1-1.1.03-2.6.1-2.66-.08-2.6.04-6.24-.05-7.92.2l.12-.05c-.96.18-1.23.02-2.3.1-.06-.02-.13-.03-.12-.04-1.04.18-3.03.02-3.86.1l-.05-.1-2.06.02.77.03c-.27.3-1.56-.2-3.06 0-1.4-.04-2.85.63-4.3.47-.7.14.6-.23-.42-.12-.03-.16.5-.1.22-.23-1.02.07-1.67-.17-2.92-.06l-.05-.12c-1.64.22-3.1-.17-4.18.04-1.7.1-1.13-.37-2.9-.13l-.68-.17c-.75-.03-.54.2-1.38.12.05-.1-1.05-.1-.56-.2-1.9-.17-3.84.22-6.32-.06-.54.2-1.8.08-2.2.23-.07-.1-2.5-.02-1.1-.2.12-.02.33-.01.32.02l.17-.12c-1.42-.24-2.58.12-3.98.08.42.04.97.03.6.12l-1.3-.02.27-.1-.97-.03a.65.65 0 0 1-.37-.12c0 .05.02.1.04.16-.18-.1-.2-.26-.23-.37-.01-.06-.02-.12-.05-.2-.01-.04-.02-.06-.04-.13-.02-.1-.04-.18-.07-.3-.12-.42-.14.8-.2-.1l.13-1.68.03-.5v-.12l.01-.03.01-.05.04-.17c.08.01.16.03.2.03-.03-.07-.03-.1 0-.13.04-.01-.01-.02.1-.02.1-.01.2-.01.33-.02l.05.12c1.72-.17.63.28 2.34.14l.3-.17c1.4-.22.95.17 2.14 0l.27.03 1.6.01-.16.05.3-.05 3.9-.03c.02 0 .04.01.05.01 0 0 1.8.07 2.46-.06h.08c-.1.1.8.14.5.26.55-.13 2.18-.23 2.83-.1l-.12.02c2.4.15 4.13-.18 6.3 0-.1-.13.8-.08.8-.2l1.42.06.27.15c.12.2 1.7-.3 1.94-.12l.72-.1c.2.04.63.08.27.13.66.01.68-.03 1.16-.1l.7.13c2.62.1 4.85-.14 7.6-.1 1.66.14 4.04.15 6.46.1l3.57-.1 1.9-.06c-.01.04-.02.08-.04.12.15.02.3.03.46.05 0 .05 0 .1.01.15-.07.1.28.03.6-.05s.62-.16.64-.06l.45-.1c.1.04.34.08.12.13.37.01.45-.02.64-.1l.24.13c.9.1 1.66-.15 2.6-.1 1.13.28 3.27.04 4.5-.1 1.73-.3 3.74.55 5.52.2.06.03.2-.04.2-.06l1.62.04s1.6.02 2.8-.1l.4-.04.46 1.9c.2.87.36.8.5.34a5.69 5.69 0 0 0 .13-1c.01-.2.02-.4.02-.6v-.3c0-.1 0-.2-.02-.38-.05-.68-.16-1.35-.23-1.83-.02-.12-.03-.24-.06-.32-.1-.01-.17-.01-.24-.01-.13-.01-.2-.01-.2-.01h-.08c.02-.03.04-.06.06-.1.04-.22-.01-.62-.1-.95-.1-.3-.22-.54-.22-.54-.43-.97-.96-1.5-1.54-2-.6-.5-1.25-.95-2.12-1.6-1.43-1.26-1.7-1.78-3.38-2.8-.77-.54-1.66-1-2.47-1.44-.48-.04-1.06-.58-1.6-.67l-.12-.2c-.2-.03-.4-.08-.52-.22l.03-.03c-.28-.04-.52-.22-.66-.23l.03-.03-.3-.12.07-.02c-.46-.1-.9-.3-1.28-.5l-.02.15c-.4-.26-.62-.32-1.08-.44l-.12-.03c-.1-.08-.25-.13-.37-.2l-1.1-.52h0c-.01 0-.02-.01-.03-.01l-.38-.18-1.77-.82a1.59 1.59 0 0 0-.56-.23l-4.13-2.28s-5-2.8-8.2-4.35c-.73-.36-1.36-.65-1.82-.82.07-.96-.32-3.55-.32-3.55-.16-1.2-.33-2.26-.52-3.26-.13-.8-.64-1.47-1.3-1.86.55.1 1.26.18 1.9.06 1.46-.2 2.8-1.16 3.48-2.47-.34.48-.76.88-1.23 1.18.84-.74 1.1-1.36 1.28-1.7.16-.35.22-.46.28-.56.12-.2.23-.4.78-2.2l-.2-.01c1.7-5.2 2.98-8.2 4.73-13.2l16.34-51.6c.38 4.25.68 8.33 1.47 13.76-.17-1.16-.02.5-.07.42.5 4.3 1 8.92 1.3 8.95.33 3.14.18 2.57.12 3 .12-.03.46 2.7.73 5.15l-.17-1.12.8 7.03.1-1.4c.33 3.74-.2.98.25 4.54l.2-.07c.5 5.16.54 8.22.92 13.23l1.15 10.84c.05.42.17.84.33 1.23.67 1.58 2.26 2.68 3.97 2.76.2.01.44.01.6 0l1.5-.1.74-.04 1.2-.12 12-.7 14.98-.8.08.84c.22 2.43.42 4.8.48 7.04l-.07.2c-.04.03-.02.16.01.32-.1.01-.2.02-.28.02l-.36.03a44.05 44.05 0 0 1-1.66.13c-2.33.05-2.95-.1-5.35.06-1.15.03-2.37.1-3.5.18-.53.15-1.47.06-2.1.2l-.25-.06c-.22.04-.47.08-.7.05l.01-.02c-.32.07-.7.05-.85.08v-.02l-.4.02.07-.03c-.56.08-1.15.1-1.66.1l.05.1c-1.1-.06-1.5.14-2.5.06l.01-.02c-1.25.28-2-.08-3.27.2.16-.03-.07-.04-.06-.06-.6.05-1.23.08-1.23.26-.43.01-.36-.04-.4-.1.01.07-.37.12-.7.14l.15-.03-.97.06.2.13c-.52-.02-.14-.17-.63-.1l.01.12a4.94 4.94 0 0 1-.92-.09c-.05-.01-.1-.02-.14-.02l-.07-4.2c-.14-.48-.33-.88-.58-.88-.2 0-.4.38-.57.9 0 .15.01.3.01.44l.08.3-.01.1c.03-.01.1.32.1.54-.06.2-.16-.01-.13.72-.04.5.06 1.32.13 2.02h-.05c-.2.01-.4.01-.6.02l.08 1.65.07 1.05.17 2.45.01.2c.02.06-.03.18.07.15h.68c.01.2.03.4.02.64l.07-.25c.12 1.3.14 2.07.1 2.95l.06.54c-.01 0-.01-.01-.02-.01-.18-.07-.36-.1-.54-.14-.73-.1-1.46.16-2 .73a2.48 2.48 0 0 0-.57 1.06 24.25 24.25 0 0 0-.18.85l-.03-.04c-.05 2.96-.8 4.65-.5 7.7-.04-.38-.08.16-.1.13.03 1.48.24 2.96.52 2.96.1 1 .01.83-.1.98.06-.01.13.2.2.5.01.05.02.12.03.18-.04 0-.07-.01-.1-.01l.04 1.45.03.53.01.44v.6l-.02 1.25c.02.43-.03.9.18 1.56a2.67 2.67 0 0 0 1.22 1.47 2.75 2.75 0 0 0 .91.32c.16.02.3.04.46.04h.33l1.25-.02 2.5-.05c3.32-.06 6.6-.1 9.63.1l.27.15c.1.2 1.68-.3 1.9-.1l.7-.1c.2.04.62.08.26.13.65.01.67-.02 1.14-.1l.7.14c2.57.1 4.77-.14 7.47-.08 3.25.28 9.38.05 12.9-.1 4.97-.3 10.72.56 15.8.2.16.03.6-.04.6-.06l4.65.04 3.25-.01 2.98-.04 1.54-.04c.64 0 1.27-.24 1.72-.55.94-.65 1.3-1.6 1.33-2.2.03-.6-.12-.84-.23-.68-.14.14-.22.78-.93 1.47-.35.33-.9.64-1.53.66-.16.01-.32-.02-.5-.05-.2-.03-.43-.05-.66-.08l-1.5-.17.12-.05c-2.54-.12-4.15-.15-5.9.08-.27-.3-2.1-.04-2.68-.13h.06c-1.56.22-3.2-.2-4.7 0 .06-.02.1-.1.44-.1-1.1.03-2.6.1-2.66-.08-2.6.04-6.24-.05-7.92.2l.12-.05c-.96.18-1.23.02-2.3.1-.06-.02-.13-.03-.12-.04-1.04.18-3.03.02-3.86.1l-.05-.1-2.06.02.77.03c-.27.3-1.56-.2-3.06 0-1.4-.04-2.85.63-4.3.47-.7.14.6-.23-.42-.12-.03-.16.5-.1.22-.23-1.02.07-1.67-.17-2.92-.06l-.05-.12c-1.64.22-3.1-.17-4.18.04-1.7.1-1.13-.37-2.9-.13l-.68-.17c-.75-.03-.54.2-1.38.12.05-.1-1.05-.1-.56-.2-1.9-.17-3.84.22-6.32-.06-.54.2-1.8.08-2.2.23-.07-.1-2.5-.02-1.1-.2.12-.02.33-.01.32.02l.17-.12c-1.42-.24-2.58.12-3.98.08.42.04.97.03.6.12l-1.3-.02.27-.1-.97-.03a.65.65 0 0 1-.37-.12c0 .05.02.1.04.16-.18-.1-.2-.26-.23-.37-.01-.06-.02-.12-.05-.2-.01-.04-.02-.06-.04-.13-.02-.1-.04-.18-.07-.3-.12-.42-.14.8-.2-.1l.13-1.68.03-.5v-.12l.01-.03.01-.05.04-.17c.08.01.16.03.2.03-.03-.07-.03-.1 0-.13.04-.01-.01-.02.1-.02.1-.01.2-.01.33-.02l.05.12c1.72-.17.63.28 2.34.14l.3-.17c1.4-.22.95.17 2.14 0l.27.03 1.6.01-.16.05.3-.05 3.9-.03c.02 0 .04.01.05.01 0 0 1.8.07 2.46-.06h.08c-.1.1.8.14.5.26.55-.13 2.18-.23 2.83-.1l-.12.02c2.4.15 4.13-.18 6.3 0-.1-.13.8-.08.8-.2l1.42.06.27.15c.12.2 1.7-.3 1.94-.12l.72-.1c.2.04.63.08.27.13.66.01.68-.03 1.16-.1l.7.13c2.62.1 4.85-.14 7.6-.1 1.66.14 4.04.15 6.46.1l3.57-.1 1.9-.06c-.01.04-.02.08-.04.12.15.02.3.03.46.05 0 .05 0 .1.01.15-.07.1.28.03.6-.05s.62-.16.64-.06l.45-.1c.1.04.34.08.12.13.37.01.45-.02.64-.1l.24.13c.9.1 1.66-.15 2.6-.1 1.13.28 3.27.04 4.5-.1 1.73-.3 3.74.55 5.52.2.06.03.2-.04.2-.06l1.62.04s1.6.02 2.8-.1l.4-.04.46 1.9c.2.87.36.8.5.34a5.69 5.69 0 0 0 .13-1c.01-.2.02-.4.02-.6l-.1-.38zM170.4 416.96c.02-.01.04 0 .02.02l.08-.07c.01-.06.05-.08 0-.1-.01-.01-.01-.02-.02-.03s.01-.13.01-.2a3.56 3.56 0 0 1 .06-.44c-.06.17-.1.4-.12.24l.12-.56.04.13.2-.83-.1.1c.12-.4.27-.52.25-1-.02-.22-.17.37-.12-.07.05-.2.12-.42.2-.66.04-.1.07-.1.1-.15.04.02.08.03.12.05 0-.1-.04-.1.22-.07l.01.08c.76-.01.25.2 1 .2l.14-.1c.7-.06.34.2 1.1.1-.3-.02-.12-.18.24-.1l-.1.06c.2.01.27-.01.4.02-.12.02-.08.1.22.12l-.2.07.57-.06c.42.13 1.1.12 1.28.24 0 0 .92.16 1.14.08-.2.05.3.13.16.2.25-.05.96-.03 1.24.1h-.05c1.04.2 1.8.1 2.73.32-.03-.1.46.02.35-.1.98.01 1.74.44 2.14.14.44.04.5.14.74.2l-.1.01a29.67 29.67 0 0 1 1.69.18c.3 0 .38-.15.92-.04-.2.04.04.06.25.08-.13-.01-.18.01.1.1.04-.01.1-.02.16-.02 0 .01.01.01.01.02.35.02.3-.01.13-.04.01-.01 0-.02-.05-.05.35.12 1 .12 1.02.23 1.04.1 1.8.08 2.65.14.1.07-.12.1-.37.08l.6.05c-.02.08-.36 0-.55 0 .7.22 1.5.05 2.35.28l.18-.04.05.02c0-.03.2-.06.33-.05.1.08-.03.16.4.2.32.1.95.08 1.4.1-.23-.04-.15-.07-.05-.08.12.01.2.04.3.07-.1.82-.17 1.7-.18 2.67-.01.3 0 .56 0 .83-.86-.18-1.5-.24-2.2-.18-.1-.18-.9-.1-1.16-.2l.03-.01c-.7.07-1.38-.25-2.04-.2.03-.01.05-.06.2-.04-.48-.03-1.13-.05-1.15-.15-1.14-.1-2.7-.3-3.46-.2l.05-.02c-.43.07-.54-.04-1-.03-.02-.02-.06-.03-.05-.03-.46.06-1.32-.1-1.7-.1l-.02-.07-.9-.07.33.05c-.14.17-.67-.18-1.33-.13-.6-.08-1.28.26-1.9.1-.3.06.28-.1-.18-.1 0-.1.22-.04.1-.13-.45 0-.72-.17-1.27-.16l-.01-.08c-.73.07-1.33-.23-1.82-.15-.74-.01-.47-.27-1.25-.2l-.3-.13c-.33-.05-.25.1-.6.02.03-.06-.45-.1-.24-.13-.8-.18-1.68-.02-2.75-.3-.12.05-.32.04-.5.03-.13 0-.13 0-.2.04.01-.03-.08-.04-.13-.05.02-.07.04-.1.1-.08zm-1.08 1c.01 0 .02 0 .04.01-.02.14-.04.27-.04.3-.07.1-.03-.1 0-.32zm1.06.1l1 .1c.7.07 1.38.16 2.04.28l.1.1c.04.13.75-.12.83.01l.3-.03c.08.03.26.07.1.1.28.03.3.01.5-.01l.3.1c1.1.17 2.08.1 3.25.26 1.4.3 4.07.42 5.62.48 2.18.02 4.62.78 6.86.78.07.03.26 0 .26-.01l2.02.22a72.96 72.96 0 0 0 2.22.19l.03.54c.03.36.07.7.12 1.04l.02.13v.12c-.04.03-.08.03-.12.06l-.7.48a47.93 47.93 0 0 1-1.48.92c-1.05.62-2.24 1.3-3.9 2.08-2.33 1.04-4.94 1.85-7.38 2.2-1.16.37-3.28.3-4.68.4l-.54-.15a5.17 5.17 0 0 1-1.52-.09l.03-.03c-.72.01-1.5-.2-1.86-.22l.04-.03c-.3-.05-.56-.12-.85-.18h.16c-1.23-.2-2.45-.62-3.44-1.14l.02.17-1.05-.58c.78-3.02 1.02-4.92 1.67-8.28zm49.63 18.56c-.05-.17-.2.17-.2 0 .02-.06.04-.13.06-.2.2-.4.44-.96.6-1.45-.1.01-.12-.06-.1-.17.01-.04.02-.08.04-.12h.1c-.02-.62.32-.15.33-.76l-.14-.14v-.03a6.47 6.47 0 0 1 .13-.41c.03-.04.06-.1.06-.2l.2-.68.01.02-.01-.03c.04-.12.07-.24.1-.36l.3-.98c.04-.13.07-.26.1-.4l.04.04c-.01-.01-.02-.03-.04-.05a1.26 1.26 0 0 0 .03-.1c.07.1.08.05.14.02-.02-.03.2.02.33.07.16.06.3.14.46.25.02-.15.35.07.33-.13.78.13 1.1.9 1.6.52.33.13.3.3.46.4l-.1-.01c.6.25.77.35 1.2.6.24.07.4-.15.75.13-.17.02-.01.1.13.18-.1-.04-.15-.02 0 .15a.33.33 0 0 1 .14 0c0 .01 0 .02-.01.03.25.1.23.05.13-.02.01-.01.01-.03 0-.08.18.26.68.4.62.57.72.4 1.3.56 1.9.88.01.12-.17.1-.35.02l.42.24c-.08.1-.27-.1-.4-.15.36.5 1.1.5 1.53 1.05h.17v.04c.03-.05.2-.02.3.03.01.15-.17.2.1.4.14.24.62.42.92.6-.13-.13-.04-.15.04-.13.13.1.13.25.26.3l-.1.13c.05-.16.43.16.52.16-.01.15-.26-.1-.35-.06l.75.64c.33.16.06-.15.27-.14.24.2.54.34.73.66l.02-.18c.48.36.72.64.85 1.04.92.67 1.36 1.18 1.67 1.43.04.03.07.05.1.07-.2-.01-.38-.02-.57-.02.02.07.06.14.08.2l.06.28c-.04.12-.08.28-.14.46l-.63-.2.04-.05c-.9-.12-1.45-.15-2.06.1-.1-.3-.73-.03-.94-.13l.02-.02c-.54.22-1.1-.2-1.64.01.02-.02.03-.1.15-.1-.38.03-.9.1-.93-.07-.9.04-2.18-.04-2.76.22l.04-.05c-.33.18-.43.02-.8.1-.02-.02-.05-.03-.04-.04-.36.18-1.05.02-1.35.1l-.02-.1-.72.02.27.03c-.1.3-.54-.2-1.07 0-.5-.04-1 .63-1.5.48-.24.14.2-.23-.15-.12-.01-.16.17-.1.08-.23-.36.07-.58-.17-1.02-.06l-.02-.12c-.57.22-1.08-.17-1.46.05-.3.05-.4-.04-.5-.12-.05-.04-.1-.07-.18-.08-.03 0-.1 0-.13.01-.02.01-.04.03-.08.06-.02-.06-.04-.1-.04-.17-.05-.03-.16.2-.22.12.07-.1-.05-.08.08-.18 0-.05-.04-.05-.1-.03-.04-.02-.14-.2.1-.33-.05-.03-.08-.01-.08-.1 0-.07.01-.15.02-.22.02-.15.05-.3-.01-.38.1 0 .23-.85.3-.32.01.04-.02.12-.05.1l.1.1c.34-.42.1-.9.25-1.37-.07.13-.1.32-.16.18l.13-.44.08.12.22-.64h-.14c.14-.3.38-.37.3-.77zM203.32 419c-.78-.2-.16.53 3.2 2.96-.1.17-.1.4-.22.66-.24.27-.43.26-.58.6-.1.14-.2.32-.27.47.06.14-.13.2-.1.33l-.08-.01c.01.05.01.1-.04.1l-.02-.01c.02.07-.04.1-.03.14l-.02-.01-.03.06-.02-.03a.28.28 0 0 1-.12.23l.08.04c-.18.1-.06.24-.24.3l-.02-.01c.08.3-.3.17-.23.45-.01-.04-.04-.02-.06-.03-.03.1-.08.18.07.28-.04.05-.08.02-.13-.01.06.04.06.1.03.15v-.04l-.06.14.13.06c-.08.04-.15-.08-.17 0l.1.07c-.08.08-.26.03-.4.07-.3.34-.3.9-.7 1.13l-.08-.03c-.1-.07.1.2-.01.15v.07c-.03 0-.06.01-.07-.03-.03.03-.01.05 0 .1l-.1-.01c-.15.1-.1.32-.23.45-.26.1-.37.52-.43.77-.03.4-.67.42-.7.83-.02 0 0 .05.01.05l-.2.25s-.9 1.24.63.88l.02.02c.15-.1.23-.2.18-.36.15.08.1-.1.16-.1l.01.01c-.05-.16.2-.12.17-.27.01.01.05.04.04.06.02-.07.05-.18.14-.13.08-.16.25-.34.2-.52l.02.02c-.05-.1.03-.08.03-.17.01 0 .02 0 .03.01-.05-.12.1-.18.1-.25l.06.03.07-.12-.04.04c-.14-.12.15-.02.1-.17.07-.07-.2-.37-.08-.4-.04-.1.1.1.08.02.08.05.03.06.1.1 0-.08.14-.04.14-.15l.06.04c-.05-.17.2-.12.13-.25.01-.13.23.06.17-.12l.1.02c.04-.03-.08-.1-.01-.12.05.04.08-.03.1.03.15-.05.03-.3.26-.34-.08-.1.03-.13-.03-.2.05.03.1-.14.15.01 0 .01-.01.02-.02.01l.05.05c.17 0 .04-.2.1-.25-.04.01-.05.04-.08 0l.06-.07.04.05.1-.1-.07-.03c.07-.03.2.02.14-.1-.03-.06-.12-.01-.1-.08.1-.04.23-.1.3-.18-.08-.04-.06-.06-.06-.1l.06.04c-.02-.16.16.06.16-.1l-.07-.07c-.06-.17.16.04.06-.17-.02.05-.15-.07-.1-.1l.05.05c.01-.03-.01-.06.01-.07.02.04.08.07.1.02l.06.08-.06-.15c.1-.01.08-.15.18-.12 0 0 .12-.1.05-.18.04.06.1.01.16.08-.04-.07-.03-.2.06-.2v.01c.16-.1.06-.3.23-.36-.08-.04.01-.08-.1-.13-.01-.2.34-.1.1-.34.02-.07.1-.02.15-.04l.01.02c.05-.12.07-.16.13-.23 0-.06-.13-.15-.05-.2.04.06.05.02.06 0 0 .02.01.04.07.03-.01-.02-.02-.03-.02-.04.02-.05 0-.05-.02-.03-.01-.01-.02-.01-.04-.02.1 0 .08-.13.18-.08.07-.15.04-.3.08-.44.05.02.08.07.07.12l.04-.1c.07.05.01.07 0 .1.17-.02.02-.27.2-.3l-.04-.06h.01c-.03-.02-.05-.07-.05-.1.07.02.13.1.17.03.1-.01.06-.14.06-.22-.03.02-.06-.01-.07-.03.02-.03.1-.01.07-.04l.08.05c-.08-.04-.03-.13-.06-.16.07.02.02.08.06.1.07-.1.03-.06.1-.17-.02-.1-.08-.04-.13-.1.02-.06 0-.15.1-.18l-.08-.03c.01-.08.03-.12.07-.15l.9.64-.12-.02c1.18.73 2.13 1.3 3.02 1.77-.02.13-.02.3-.08.48-.2.25-.37.25-.47.57-.1.13-.13.3-.2.43.08.12-.1.18-.04.3h-.08c.02.04.02.1-.03.1v-.01c.03.06-.03.1-.01.12h-.02l-.02.05-.02-.02c.01.1-.02.17-.08.2l.08.04c-.16.08-.03.22-.2.28l-.02-.01c.12.26-.27.16-.16.42-.01-.03-.04-.01-.06-.03-.02.08-.05.16.1.25-.03.05-.07.02-.13-.01.07.04.07.1.05.14v-.03l-.04.13.14.05c-.07.04-.16-.07-.16.01l.1.06c-.07.07-.25.04-.37.08-.23.3-.17.82-.52 1.04l-.08-.03c-.12-.06.12.18.01.13l.03.07c-.03 0-.06.01-.07-.02-.02.03-.01.04.02.1h-.1c-.13.1-.06.3-.16.42-.24.1-.28.48-.3.7.03.35-.6.4-.54.77-.02 0 0 .04.02.05l-.15.23s-.7 1.15.74.77l.02.02c.13-.1.2-.18.12-.33.16.07.08-.1.14-.1l.01.01c-.07-.14.2-.1.13-.25.01.01.05.03.04.05.01-.07.02-.16.1-.12.05-.15.2-.3.1-.48l.02.02c-.07-.1.02-.07 0-.15.01 0 .02 0 .03.01-.06-.1.07-.17.06-.23l.06.03.05-.1-.03.03c-.15-.1.15-.03.08-.16.06-.06-.25-.33-.13-.36-.06-.08.1.1.08.01.08.04.04.05.1.08-.01-.07.13-.04.1-.14l.07.03c-.07-.15.17-.1.1-.23-.01-.12.23.05.15-.1l.1.01c.04-.03-.1-.1-.03-.1.05.03.07-.03.1.02.14-.05-.01-.27.2-.32-.1-.1.01-.12-.06-.18.05.02.08-.13.14 0 0 .01 0 .02-.02.01l.06.04c.16-.01.01-.17.07-.23-.03.01-.04.04-.08 0l.05-.06.05.04.1-.08-.07-.02c.06-.03.2.01.12-.1-.04-.05-.12 0-.1-.07.08-.04.2-.1.27-.18-.08-.03-.06-.05-.07-.1l.07.03c-.04-.14.16.05.14-.08l.04.03-.12-.1c-.1-.15.16.03.03-.15-.01.04-.15-.06-.1-.1l.06.05c0-.03-.02-.05 0-.06.03.03.1.06.1.02l.07.07-.08-.13c.1-.01.06-.14.16-.1 0 0 .1-.1.02-.17.05.06.1.01.17.06-.05-.07-.06-.18.03-.18v.01c.14-.08.02-.27.17-.33-.08-.04 0-.07-.1-.1-.03-.17.3-.1.04-.3.01-.06.1-.02.14-.04l.01.02a.51.51 0 0 1 .09-.21c-.01-.05-.15-.14-.08-.18.04.05.05.02.06-.01 0 .02.02.04.07.02-.01-.01-.02-.03-.03-.04.01-.04-.01-.04-.03-.03-.01-.01-.02-.01-.04-.01.1 0 .06-.12.16-.07.05-.14 0-.28.02-.4.06.02.1.06.1.1l.02-.08c.07.04.02.06.02.1.16-.02-.01-.24.15-.3l-.04-.05h.01c-.03-.02-.06-.06-.06-.08.07.02.14.08.16.03.08-.01.03-.13.03-.2-.03.02-.05-.01-.07-.03.01-.03.08-.01.07-.04l.08.04c-.08-.03-.05-.1-.08-.14.07.02.03.07.07.1.05-.1.02-.05.07-.16-.03-.1-.08-.03-.14-.1.01-.06-.02-.13.06-.16l-.08-.02c0-.03.01-.05.01-.07a17.62 17.62 0 0 0 1.47.64c.1.4 1.85 1.05 2.34 1.42l-.06-.01c.75.28 1.45.7 2.14 1.13l1.05.6c.27.15.62.3.78.36-.01.02-.01.03-.02.05-.08.24-.17.5-.23.78-.04.2-.06.4-.04.63-.01-.14-.1.04-.12.02-.06.37-.13.75-.02.93l-.1.37h-.06a.12.12 0 0 1 .05.05l-.62 2.45c-.1.12-.18.24-.26.38-.3 1.04-.5 2.15-.7 3.24-.05.27-.1.55-.16.8l-.08.4-.1.5c-.07.3-.15.58-.23.87-.2 0-.43 0-.9-.01-.53-.01-1.02-.01-1.34.02l-.06-.1-2.1.02.78.03c-.27.3-1.6-.2-3.1 0-1.42-.04-2.9.63-4.37.48-.7.14.62-.23-.43-.12-.03-.16.5-.1.22-.23-1.04.07-1.7-.17-2.98-.06l-.05-.12c-1.67.22-3.14-.17-4.25.05-1.72.1-1.15-.37-2.94-.13l-.7-.17c-.77-.03-.55.2-1.4.12.05-.1-1.07-.1-.58-.2-1.92-.17-3.9.23-6.43-.06-.55.2-1.82.08-2.23.23-.07-.1-2.55-.02-1.12-.2.12-.02.34-.01.33.02l.17-.12c-1.44-.23-2.62.12-4.05.08.42.04 1 .03.6.1l-1.33-.02.28-.1-2-.12.27.13c-.97-.07-1.3-.28-2.4-.1-.5.1.92.17-.1.2l-4.88-.27c.15.14-.3.14-.75.17l-.05-.12c-1.75.17-.64-.28-2.38-.14l-.3.17c-.13.02-.24.03-.23.04-.02.01-.05.02-.07.02-.04.01-.07 0-.1-.01-.04-.02-.03-.07-.04-.1.02-.08.01-.07-.13-.2.02.08-.04.14-.1.13-.03-.01-.07-.04-.1-.1a2.6 2.6 0 0 1-.08-.51l.15.2c-.08-.46-.15-.6-.16-.92.1.27.2.12.1-.55l.2.43-.34-1.24c.03-.5-.01-1.12-.01-1.65.01-.56.03-1.06.12-1.26 0 0 .17-2.13.03-2.63.08.43.22-.73.33-.4-.1-.56-.02-2.18.22-2.8v.12l.16-.86c.03-.17.05-.34.08-.5-.01-.03.05-.1.1-.12.01 0 .03-.01.04-.01h.03l.1.05.7.4 1.47.8c-.04-.17 1.06.4.85.1 2.25.74 4.1 1.6 5.03 1.16 1.06.13 1.24.28 1.8.37l-.26.01c2 .1 2.6.05 4.07.01.74-.1.83-.36 2.14-.45-.4.14.12.1.6 0-.3.07-.4.12.25.1.1-.05.22-.1.35-.13.01.01.03.01.02.02.8-.17.66-.18.28-.13.02-.02-.02-.03-.14-.04.87 0 2.33-.52 2.47-.4 2.4-.72 3.96-1.6 5.75-2.58.25-.02-.14.27-.66.57.43-.23.87-.44 1.3-.7.06.13-.7.46-1.1.68 1.67-.58 3.06-1.87 4.83-2.9l.28-.34.1-.06c-.01-.02.04-.1.17-.24.15-.15.33-.33.48-.46.3-.14.3.01.67-.28-.02-.16-.1-.43-.2-.86-.03-.24-.07-.5-.1-.77l-.13-.8a17.2 17.2 0 0 1-.2-1.63c-.02.53-.08.36-.12.13-.01-.48.12-.75.1-1.12l.16-.04c-.17.18-.06-1.26-.1-1.44.15-.26.01.75.1.88.22-1.9.07-.98.45-2.8.17-.96-.2.13-.2-.36.24-.82.56-1.73 1.4-2.17a1.91 1.91 0 0 0-.33.06c.5-.45 1.13-.64 1.6-.55.48.13.78.55.8.97.02.18.03.36.05.54.96 3.35 1.55 5.08 1.9 5.85zm66.1-14.22c-1.7.3-5.72.37-7 .6-.22-.08-8.02.4-3.54-.03.4-.04 1.07-.07 1.02-.03l.53-.15c-4.54 0-8.23.54-12.7.73 1.33-.03 3.1-.13 1.92.02l-4.17.2.86-.15-3.1.13-2.3.1-.4.02-.27-.01c.1.02.2.04.3.06l.43.04c-.18 0-.4.01-.53.01-.13 0-.25-.01-.36-.03-.23-.04-.44-.1-.63-.2-.37-.17-.67-.4-.9-.7-.23-.28-.43-.6-.54-1-.1-.3-.18-1.17-.32-1.97-.26-1.53.13 2.88-.25-.3l-.67-7.8c1.13.1 1.8-.14 3.2-.24 1.33.01 1.7.16 3.07.06.66 0 1.36-.06 2-.1.3-.13.85-.02 1.2-.14l.14.07c.12-.04.27-.07.4-.03v.02c.18-.06.4-.03.5-.06l-.01.02.23-.02-.04.03a3.45 3.45 0 0 1 .95-.06l-.03-.1c.63.08.86-.1 1.43-.01l-.01.02c.7-.25 1.14.13 1.88-.1-.1.03.04.04.03.07.34-.03.7-.06.7-.23.25 0 .2.05.24.1 0-.07.2-.1.4-.12l-.1.03.56-.04-.1-.14c.3.03.08.17.36.13v-.12c.4.01.65.18 1.05.26 1.64.01 3.4-.34 4.94-.17l.07.1c.03.13.42-.2.48-.08l.18-.06c.05.02.16.04.07.07.16 0 .17-.02.3-.06l.18.08c.65.04 1.2-.12 1.88-.1.82.14 2.36-.05 3.25-.16 1.24-.23 2.7.25 4-.01.04.02.15-.03.15-.04l1.17-.01s1.58-.03 2.44-.2l-.03 8.73v1.3c0 .26 0 .34-.03.48-.03.12-.06.25-.13.37a1.64 1.64 0 0 1-1.4.87l-2.9.07zm-25.5 14.54l.07.12v-.85l-.07.12c.02-.42.14-.57.01-1.04-.07-.2-.08.4-.13-.04-.01-.12.02-.15.04-.22.17.03.06.06.6.05-.07-.08.12-.1.32-.1l.03.07c.75-.13.28.15 1.03.04l.13-.1c.67-.17.37.14 1.12-.1-.3.02-.15-.16.22-.14l-.1.08c.2-.02.27-.06.4-.05-.12.04-.06.1.24.08l-.2.1.56-.15c.44.06 1.12-.06 1.3.03 0 0 .94.01 1.15-.1-.2.08.33.08.2.17.24-.1.95-.18 1.24-.1l-.05.01c1.06.05 1.8-.18 2.76-.12-.05-.08.46-.06.33-.16.98-.15 1.8.16 2.14-.2.45-.04.53.06.77.07l-.1.02a33.8 33.8 0 0 1 1.7-.09c.3-.05.35-.2.9-.2-.18.07.05.05.26.04-.13.01-.17.04.1.07a.66.66 0 0 1 .15-.05s.01.01.01.02c.35-.04.3-.05.12-.06.01-.01-.01-.02-.06-.04.36.07 1-.04 1.05.06 1.04-.06 1.8-.2 2.66-.28.1.05-.1.1-.35.14l.62-.04c0 .08-.35.06-.54.08.74.1 1.5-.2 2.38-.1l.18-.07.05.01c0-.03.2-.1.32-.1.12.07 0 .16.42.14.34.05.96-.07 1.4-.12-.24 0-.16-.04-.06-.07.2-.01.34.05.5.02l.02.1c-.1-.1.55-.12.63-.16.12.07-.33.07-.38.13l1.28-.06c.45-.1-.1-.1.13-.18l.25-.03.2-.03c.13-.02.27-.03.4-.03v.2l.07-.2c.04.2.06.4.08.6-.07.7-.12 1.43-.13 2.23-.02.52-.01 1 .01 1.46-.44-.08-1.18-.16-2.3-.26l.05-.03c-1.12-.01-1.82.01-2.58.2-.13-.17-.92.03-1.18-.02v-.02c-.67.17-1.4-.05-2.06.1.02-.01.04-.06.2-.07-.48.04-1.13.1-1.17.01-1.14.07-2.74.1-3.47.28l.05-.03c-.4.12-.54.04-1 .1-.03-.01-.06-.02-.05-.02-.45.12-1.33.06-1.7.12l-.03-.07-.9.05h.34c-.1.2-.7-.1-1.34.05-.62 0-1.23.42-1.88.35-.3.1.26-.15-.2-.07-.02-.1.2-.07.1-.14-.45.06-.74-.08-1.28 0v-.07c-.72.16-1.36-.06-1.83.08-.74.08-.5-.2-1.27-.05l-.3-.1c-.33-.01-.23.13-.6.1.02-.06-.46-.04-.25-.1-.83-.1-1.68.17-2.76 0-.12.06-.3.07-.5.08-.08.01-.16.01-.22.05.01-.03-.12-.03-.2-.05.01-.08.02-.1.08-.08.02 0 .05 0 .03.02l.08-.07c-.05-.07.01-.08-.05-.1-.01.02-.02-.06-.03-.14-.01-.07-.02-.14-.04-.2-.02-.14-.04-.3-.04-.44-.02.18 0 .43-.06.27l-.02-.57zm6.4 8.8l.04-.03c-.3-.05-.56-.12-.85-.18h.16c-1.23-.2-2.45-.62-3.44-1.14l.02.17-1.37-.76c-.01 0-.02-.01-.02-.01-.01-1.63-.1-2.95-.2-4.4h.6c.68 0 1.35.01 2 .05l.12.1c.05.13.73-.2.84-.1l.3-.07c.1.02.27.04.12.07.3 0 .3-.02.5-.07l.3.07c1.13.03 2.1-.14 3.3-.15 1.44.12 4.13-.12 5.67-.26 2.17-.27 4.73.14 6.95-.18.07.01.26-.03.26-.05l2.04-.08s2.48-.1 4-.33l.53-.1.18 1.82c-.01 0-.01 0-.02.01l-.7.48a47.93 47.93 0 0 1-1.48.92c-1.05.62-2.24 1.3-3.9 2.08-2.33 1.04-4.94 1.85-7.38 2.2-1.16.37-3.28.3-4.68.4l-.54-.15a5.17 5.17 0 0 1-1.52-.09l.03-.03c-.73.01-1.52-.18-1.87-.2zm44.64 6.64c-.1.12-.18.24-.26.38-.3 1.04-.5 2.15-.7 3.24-.05.27-.1.55-.16.8l-.08.4-.1.5c-.07.3-.15.58-.23.87-.2 0-.43 0-.9-.01-.53-.01-1.02-.01-1.34.02l-.06-.1-2.1.02.78.03c-.27.3-1.6-.2-3.1 0-1.42-.04-2.9.63-4.37.48-.7.14.62-.23-.43-.12-.03-.16.5-.1.22-.23-1.04.07-1.7-.17-2.98-.06l-.05-.12c-1.67.22-3.14-.17-4.25.05-1.72.1-1.15-.37-2.94-.13l-.7-.17c-.77-.03-.55.2-1.4.12.05-.1-1.07-.1-.58-.2-1.92-.17-3.9.23-6.43-.06-.55.2-1.82.08-2.23.23-.07-.1-2.55-.02-1.12-.2.12-.02.34-.01.33.02l.17-.12c-1.44-.23-2.62.12-4.05.08.42.04 1 .03.6.1l-1.33-.02.28-.1-1.98-.06.27.13c-.97-.07-1.3-.28-2.4-.1-.5.1.92.17-.1.2l-4.88-.27c.15.14-.3.14-.75.17l-.05-.12c-1.75.17-.64-.28-2.38-.14l-.3.17c-.13.02-.24.03-.23.04-.02.01-.05.02-.07.02-.04.01-.07 0-.1-.01-.04-.02-.03-.07-.04-.1.02-.08.01-.07-.13-.2.02.08-.04.14-.1.13-.03-.01-.07-.04-.1-.1a2.6 2.6 0 0 1-.08-.51l.15.2c-.08-.46-.15-.6-.16-.92.1.27.2.12.1-.55l.2.43-.34-1.24c.03-.5-.01-1.12-.01-1.65.01-.56.03-1.06.12-1.26 0 0 .17-2.13.03-2.63.08.43.22-.73.33-.4-.1-.56-.02-2.18.22-2.8v.12l.16-.86c.03-.17.05-.34.08-.5-.01-.03.05-.1.1-.12.01 0 .03-.01.04-.01h.03l.1.05.7.4 1.47.8c-.04-.17 1.06.4.85.1 2.25.74 4.1 1.6 5.03 1.16 1.06.13 1.24.28 1.8.37l-.26.01c2 .1 2.6.05 4.07.01.74-.1.83-.36 2.14-.45-.4.14.12.1.6 0-.3.07-.4.12.25.1.1-.05.22-.1.35-.13.01.01.03.01.02.02.8-.17.66-.18.28-.13.02-.02-.02-.03-.14-.04.87 0 2.33-.52 2.47-.4 2.4-.72 3.96-1.6 5.75-2.58.25-.02-.14.27-.66.57.43-.23.87-.44 1.3-.7.06.13-.7.46-1.1.68 1.67-.58 3.06-1.87 4.83-2.9l.28-.34.1-.06c-.01-.02.04-.1.17-.24.15-.15.33-.33.48-.46.3-.14.3.01.67-.28-.02-.16-.1-.43-.2-.86-.03-.24-.07-.5-.1-.77l-.13-.8a17.2 17.2 0 0 1-.2-1.63c-.02.53-.08.36-.12.13-.01-.48.12-.75.1-1.12l.16-.04c-.17.18-.06-1.26-.1-1.44.15-.26.01.75.1.88.22-1.9.07-.98.45-2.8.17-.96-.2.13-.2-.36.24-.82.56-1.73 1.4-2.17a1.91 1.91 0 0 0-.33.06c.5-.45 1.13-.64 1.6-.55.48.13.78.55.8.97.02.18.03.36.05.54.94 3.3 1.53 5.03 1.9 5.8-.78-.2-.16.53 3.2 2.96-.1.17-.1.4-.22.66-.24.27-.43.26-.58.6-.1.14-.2.32-.27.47.06.14-.13.2-.1.33l-.08-.01c.01.05.01.1-.04.1l-.02-.01c.02.07-.04.1-.03.14l-.02-.01-.03.06-.02-.03a.28.28 0 0 1-.12.23l.08.04c-.18.1-.06.24-.24.3l-.02-.01c.08.3-.3.17-.23.45-.01-.04-.04-.02-.06-.03-.03.1-.08.18.07.28-.04.05-.08.02-.13-.01.06.04.06.1.03.15l-.01-.04-.06.14.13.06c-.08.04-.15-.08-.17 0l.1.07c-.08.08-.26.03-.4.07-.3.34-.3.9-.7 1.13l-.08-.03c-.1-.07.1.2-.01.15l.02.07c-.03 0-.06.01-.07-.03-.03.03-.01.05 0 .1l-.1-.01c-.15.1-.1.32-.23.45-.26.1-.37.52-.43.77-.03.4-.67.42-.7.83-.02 0 0 .05.01.05l-.2.25s-.9 1.24.63.88l.02.02c.15-.1.23-.2.18-.36.15.08.1-.1.16-.1l.01.01c-.05-.16.2-.12.17-.27.01.01.05.04.04.06.02-.07.05-.18.14-.13.08-.16.25-.34.2-.52l.02.02c-.05-.1.03-.08.03-.17.01 0 .02 0 .03.01-.05-.12.1-.18.1-.25l.06.03.07-.12-.04.04c-.14-.12.15-.02.1-.17.07-.07-.2-.37-.08-.4-.04-.1.1.1.08.02.08.05.03.06.1.1 0-.08.14-.04.14-.15l.06.04c-.05-.17.2-.12.13-.25.01-.13.23.06.17-.12l.1.02c.04-.03-.08-.1-.01-.12.05.04.08-.03.1.03.15-.05.03-.3.26-.34-.08-.1.03-.13-.03-.2.05.03.1-.14.15.01 0 .01-.01.02-.02.01l.05.05c.17 0 .04-.2.1-.25-.04.01-.05.04-.08 0l.06-.07.04.05.1-.1-.07-.03c.07-.03.2.02.14-.1-.03-.06-.12-.01-.1-.08.1-.04.23-.1.3-.18-.08-.04-.06-.06-.06-.1l.06.04c-.02-.16.16.06.16-.1l.04.04-.1-.1c-.06-.17.16.04.06-.17-.02.05-.15-.07-.1-.1l.05.05c.01-.03-.01-.06.01-.07.02.04.08.07.1.02l.06.08-.06-.15c.1-.01.08-.15.18-.12 0 0 .12-.1.05-.18.04.06.1.01.16.08-.04-.07-.03-.2.06-.2v.01c.16-.1.06-.3.23-.36-.08-.04.01-.08-.1-.13-.01-.2.34-.1.1-.34.02-.07.1-.02.15-.04l.01.02c.05-.12.07-.16.13-.23 0-.06-.13-.15-.05-.2.04.06.05.02.06 0 0 .02.01.04.07.03-.01-.02-.02-.03-.02-.04.02-.05 0-.05-.02-.03-.01-.01-.02-.01-.04-.02.1 0 .08-.13.18-.08.07-.15.04-.3.08-.44.05.02.08.07.07.12l.04-.1c.07.05.01.07 0 .1.17-.02.02-.27.2-.3l-.04-.06h.01c-.03-.02-.05-.07-.05-.1.07.02.13.1.17.03.1-.01.06-.14.06-.22-.03.02-.06-.01-.07-.03.02-.03.1-.01.07-.04l.08.05c-.08-.04-.03-.13-.06-.16.07.02.02.08.06.1.07-.1.03-.06.1-.17-.02-.1-.08-.04-.13-.1.02-.06 0-.15.1-.18l-.08-.03c.01-.08.03-.12.07-.15l.9.64-.12-.02c1.18.73 2.13 1.3 3.02 1.77-.02.13-.02.3-.08.48-.2.25-.37.25-.47.57-.1.13-.13.3-.2.43.08.12-.1.18-.04.3l-.08-.01c.02.04.02.1-.03.1l-.02-.01c.03.06-.03.1-.01.12l-.02-.01v.05l-.02-.02c.01.1-.02.17-.08.2l.08.04c-.16.08-.03.22-.2.28l-.02-.01c.12.26-.27.16-.16.42-.01-.03-.04-.01-.06-.03-.02.08-.05.16.1.25-.03.05-.07.02-.13-.01.07.04.07.1.05.14l-.02-.03-.04.13.14.05c-.07.04-.16-.07-.16.01l.1.06c-.07.07-.25.04-.37.08-.23.3-.17.82-.52 1.04l-.08-.03c-.12-.06.12.18.01.13l.03.07c-.03 0-.06.01-.07-.02-.02.03-.01.04.02.1h-.1c-.13.1-.06.3-.16.42-.24.1-.28.48-.3.7.03.35-.6.4-.54.77-.02 0 0 .04.02.05l-.15.23s-.7 1.15.74.77l.02.02c.13-.1.2-.18.12-.33.16.07.08-.1.14-.1v.01c-.07-.14.2-.1.13-.25.01.01.05.03.04.05.01-.07.02-.16.1-.12.05-.15.2-.3.1-.48v.02c-.07-.1.02-.07 0-.15.01 0 .02 0 .03.01-.06-.1.07-.17.06-.23l.06.03.05-.1-.03.03c-.15-.1.15-.03.08-.16.06-.06-.25-.33-.13-.36-.06-.08.1.1.08.01.08.04.04.05.1.08-.01-.07.13-.04.1-.14l.07.03c-.07-.15.17-.1.1-.23-.01-.12.23.05.15-.1h.1c.04-.03-.1-.1-.03-.1.05.03.07-.03.1.02.14-.05-.01-.27.2-.32-.1-.1.01-.12-.06-.18.05.02.08-.13.14 0 0 .01 0 .02-.02.01l.06.04c.16-.01.01-.17.07-.23-.03.01-.04.04-.08 0l.05-.06.05.04.1-.08-.07-.02c.06-.03.2.01.12-.1-.04-.05-.12 0-.1-.07.08-.04.2-.1.27-.18-.08-.03-.06-.05-.07-.1l.07.03c-.04-.14.16.05.14-.08l.04.03-.12-.1c-.1-.15.16.03.03-.15-.01.04-.15-.06-.1-.1l.06.05c0-.03-.02-.05 0-.06.03.03.1.06.1.02l.07.07-.08-.13c.1-.01.06-.14.16-.1 0 0 .1-.1.02-.17.05.06.1.01.17.06-.05-.07-.06-.18.03-.18v.01c.14-.08.02-.27.17-.33-.08-.04 0-.07-.1-.1-.03-.17.3-.1.04-.3.01-.06.1-.02.14-.04v.02a.51.51 0 0 1 .09-.21c-.01-.05-.15-.14-.08-.18.04.05.05.02.06-.01 0 .02.02.04.07.02-.01-.01-.02-.03-.03-.04.01-.04-.01-.04-.03-.03-.01-.01-.02-.01-.04-.01.1 0 .06-.12.16-.07.05-.14 0-.28.02-.4.06.02.1.06.1.1l.02-.08c.07.04.02.06.02.1.16-.02-.01-.24.15-.3l-.04-.05h.01c-.03-.02-.06-.06-.06-.08.07.02.14.08.16.03.08-.01.03-.13.03-.2-.03.02-.05-.01-.07-.03.01-.03.08-.01.07-.04l.08.04c-.08-.03-.05-.1-.08-.14.07.02.03.07.07.1.05-.1.02-.05.07-.16-.03-.1-.08-.03-.14-.1.01-.06-.02-.13.06-.16l-.08-.02c0-.03.01-.05.01-.07a17.62 17.62 0 0 0 1.47.64c.1.4 1.85 1.05 2.34 1.42l-.06-.01c.75.28 1.45.7 2.14 1.13l1.05.6c.27.15.62.3.78.36-.01.02-.01.03-.02.05-.08.24-.17.5-.23.78a2.11 2.11 0 0 0-.04.63c-.01-.14-.1.04-.12.02-.06.37-.13.75-.02.93l-.1.37h-.06a.12.12 0 0 1 .05.05l-.63 2.44zm18.15 5.56c.02.07.06.14.08.2l.06.28c-.04.12-.08.28-.14.46l-.63-.2.04-.05c-.9-.12-1.45-.15-2.06.1-.1-.3-.73-.03-.94-.13l.02-.02c-.54.22-1.1-.2-1.64.01.02-.02.03-.1.15-.1-.38.03-.9.1-.93-.07-.9.04-2.18-.04-2.76.22l.04-.05c-.33.18-.43.02-.8.1-.02-.02-.05-.03-.04-.04-.36.18-1.05.02-1.35.1v-.1l-.72.02.27.03c-.1.3-.54-.2-1.07 0-.5-.04-1 .63-1.5.48-.24.14.2-.23-.15-.12-.01-.16.17-.1.08-.23-.36.07-.58-.17-1.02-.06l-.02-.12c-.57.22-1.08-.17-1.46.05-.3.05-.4-.04-.5-.12-.05-.04-.1-.07-.18-.08-.03 0-.1 0-.13.01-.02.01-.04.03-.08.06-.02-.06-.04-.1-.04-.17-.05-.03-.16.2-.22.12.07-.1-.05-.08.08-.18 0-.05-.04-.05-.1-.03-.04-.02-.14-.2.1-.33-.05-.03-.08-.01-.08-.1 0-.07.01-.15.02-.22.02-.15.05-.3-.01-.38.1 0 .23-.85.3-.32.01.04-.02.12-.05.1l.1.1c.34-.42.1-.9.25-1.37-.07.13-.1.32-.16.18l.13-.44.08.12.22-.64-.15.06c.14-.3.38-.37.3-.77-.05-.17-.2.17-.2 0 .02-.06.04-.13.06-.2.2-.4.44-.96.6-1.45-.1.01-.12-.06-.1-.17.01-.04.02-.08.04-.12l.1.01c-.02-.62.32-.15.33-.76l-.14-.14v-.03a6.47 6.47 0 0 1 .13-.41c.03-.04.06-.1.06-.2l.2-.68.01.02-.01-.03c.04-.12.07-.24.1-.36l.3-.98c.04-.13.07-.26.1-.4l.04.04c-.01-.01-.02-.03-.04-.05a1.26 1.26 0 0 0 .03-.1c.07.1.08.05.14.02-.02-.03.2.02.33.07.16.06.3.14.46.25.02-.15.35.07.33-.13.78.13 1.1.9 1.6.52.33.13.3.3.46.4h-.1c.6.25.77.35 1.2.6.24.07.4-.15.75.13-.17.02-.01.1.13.18-.1-.04-.15-.02 0 .15a.33.33 0 0 1 .14 0c0 .01 0 .02-.01.03.25.1.23.05.13-.02.01-.01.01-.03 0-.08.18.26.68.4.62.57.72.4 1.3.56 1.9.88.01.12-.17.1-.35.02l.42.24c-.08.1-.27-.1-.4-.15.36.5 1.1.5 1.53 1.05h.17l.02.04c.03-.05.2-.02.3.03.01.15-.17.2.1.4.14.24.62.42.92.6-.13-.13-.04-.15.04-.13.13.1.13.25.26.3l-.1.13c.05-.16.43.16.52.16-.01.15-.26-.1-.35-.06l.75.64c.33.16.06-.15.27-.14.24.2.54.34.73.66l.02-.18c.48.36.72.64.85 1.04.92.67 1.36 1.18 1.67 1.43.04.03.07.05.1.07-.18-.05-.37-.06-.56-.07z"/></svg>