<svg xmlns="http://www.w3.org/2000/svg" viewBox="0 0 480 480" xmlns:v="https://vecta.io/nano"><path d="M169.03 405.62c-.02 0-.04.04-.07.17l.07-.17zm6.5-76.07l-.06.4c.01-.03.01-.05.01-.07l.05-.34zm51.87 101.17l-.05-.01h.01c.02 0 .02.01.04.01zm84.8 10.75h-.1c-.01-.37-.1-.73-.2-1.1-.9-3.3-8.7-8.8-14.1-10.9-.47-.2-1.04-.4-1.6-.66v-.04c-2.4-1.1-15.7-8.6-15.7-8.6-1.3-.7-2.1-1.3-2.1-1.3l-4.8-16.2s-3.2-1.3-4.2 3.4c-.5 2.6-.4 5.2-.4 5.2s-.03 0-.08.01v-.1l-.75.15-.4-6.8c1.7-.3 3.06-1.78 3.06-3.53l1.2-98.5c.4-18.5-2.2-87.4-2.5-96.1h-75c-1.1 5-3.3 22.3-6.6 44.4l-11 78.2-12.4 70.6c-.2 1.4.7 2.7 2.1 2.9l7.4.78-3.94-.4-2.86 12.67 23.2-3.8-1.63.32-24.6 4.05c-1 .2-1.8 1.1-1.8 2.1 0 2.5.1 7.6.7 14.3.2 1.9.5 6.7.8 8.4h0c.08 1.18-.1 2.52 0 3.4.2 1.5 1.4 2.6 2.9 2.6l66.9.4c1.6.1 3-1.3 3-3 0-.8-.1-1.8-.2-2.8h-.1c-.01-.37-.1-.73-.2-1.1-.9-3.3-8.7-8.8-14.1-10.9-.47-.2-1.04-.4-1.6-.66v-.04c-2.4-1.1-15.7-8.6-15.7-8.6-1.3-.7-2.1-1.3-2.1-1.3l-3.36-12.1-5.6-.7.05-.73.8.08 7.94.84c1.3.1 2.5-.6 2.9-1.9l21.44-66.4 7.36 66.1c.1 1.2 1.2 2.1 2.4 2l2.74-.13.4 10.18c-.92.26-1.64 1.1-1.64 2.05 0 2.5.1 7.6.7 14.3.2 1.9.5 6.7.8 8.4h0c.08 1.18-.1 2.52 0 3.4.2 1.5 1.4 2.6 2.9 2.6l66.9.4c1.6.1 3-1.3 3-3-.02-.8-.12-1.8-.22-2.8zm-119-30.22l.08-.01v.03s-.03 0-.08.01v-.03zm109.9 19.47l-.05-.01h.01c.01 0 .02.01.04.01z" fill="#fff"/><path d="M260.3 403.67h.01l.47-.1zm-73.13-142.74l-.04.03c.01.02.02.03.04-.03zm33.25 172.7h0l.07.07zm-38.48-3.24l-.1-1.06c-.06-.2-.2-.2-.26-.53.1.1.04-.04.01-.16.03.08.06.1.06-.08-.02-.02-.04-.05-.06-.08v-.01c-.08-.2-.1-.16-.07-.06-.01 0-.02.01-.03.04.01-.23-.2-.58-.1-.64-.28-.6-.6-.94-.95-1.33.01-.08.12-.01.23.1l-.24-.3c.07-.05.17.15.25.23-.16-.45-.66-.67-.97-1.1l-.12-.03-.02-.03c-.02.03-.14-.02-.2-.06-.01-.1.1-.12-.1-.28-.12-.2-.5-.32-.75-.42.12.1.06.1-.01.08-.1-.07-.14-.17-.25-.18l.03-.1c0 .1-.35-.06-.4-.05-.04-.1.2.03.26 0-.48-.22-.24-.12-.73-.3-.28-.03.02.1-.13.13-.23-.07-.48-.05-.73-.18l.07.1c-.45-.02-.7-.08-1-.17-.84.12-1.25.37-1.44.5-.18.15-.16.25-.03.3.24.1.8.1.8.12 1.1.17 1.7.02 2.97.58a4.08 4.08 0 0 1 1.02.9l.84 1.07a6.05 6.05 0 0 1 .72 1.6c.2.24.15.74.26 1.05l-.07.13c.04.1.07.24.02.35h-.02c.04.17.01.36.02.44l-.02-.01-.02.2-.02-.04a1.91 1.91 0 0 1-.16.84l.1.01c-.28.5-.2.77-.56 1.17h0c-.15.7-.7.75-1.03 1.35.04-.08-.06-.01-.07-.03-.2.24-.48.42-.38.57-.2.14-.2.06-.25.02.04.06-.1.2-.27.3l.06-.07c-.14.1-.3.18-.45.26l.15.08c-.27.08-.14-.13-.36.02l.05.1c-.38.1-.64.02-1 .01-.73.14-1.5.22-2.28.12-.76-.1-1.5-.38-2.04-.86v-.1c.05-.1-.42-.07-.4-.2l-.17-.05c-.02-.05-.07-.13 0-.1-.1-.1-.12-.1-.23-.14l-.06-.17c-.36-.46-.8-.77-1.06-1.33-.23-.72-.7-2.02-.7-2.87-.08-.6.13-1.22.43-1.77.3-.56.66-1.04.94-1.56.03-.02.07-.12.06-.13a5.97 5.97 0 0 1 .78-.73l.17-.13a4.6 4.6 0 0 1 .44-.3c.35-.24.83-.46 1.2-.64.38-.16.65-.32.55-.44-.1-.1-.58-.3-1.75-.05l.02-.04c-.66.23-1.04.5-1.33.9-.16-.08-.44.36-.6.44v-.02c-.2.4-.67.6-.8 1 0-.02-.04-.06.01-.13-.15.26-.32.63-.42.6-.34.64-.68 1.6-.58 2.1l-.02-.04c.07.27-.05.33-.01.63-.01.01-.02.03-.03.03.07.3 0 .82.06 1.04l-.07.02.1.55v-.2c.2.04-.06.44.16.8.08.38.58.6.66.97.15.13-.2-.1-.02.13-.08.05-.1-.1-.15.01.15.23.1.45.34.7l-.06.05c.35.3.4.75.7.88.35.3.05.38.5.6l.07.2c.16.14.2-.01.35.17-.05.04.2.22.06.18.4.38.96.45 1.54.84.18-.05.5.12.62.05 0 .06.67.17.26.2-.03 0-.1-.02-.08-.04l-.06.06c.36.23.73.08 1.1.12-.1-.03-.27-.04-.16-.08l.36.03-.08.06c.18.03.36.05.54.05l-.08-.07c.26.02.37.17.66.02.13-.08-.26-.07.01-.13.35.02.9-.01 1.33-.12-.07-.07.05-.1.16-.16l.04.07c.4-.26.23.1.64-.17l.03-.13c.32-.3.3.04.6-.38-.15.1-.16-.1.05-.18l-.01.1c.1-.08.12-.12.2-.16-.04.08.03.1.17-.01l-.05.15.2-.32c.28-.1.52-.48.68-.47 0 0 .44-.4.45-.58-.02.14.2-.1.2.02.04-.17.26-.57.4-.7l-.01.03c.45-.54.44-1.07.74-1.6-.1 0 .04-.3-.1-.25.07-.6.44-1.08.12-1.33 0-.28.1-.32.12-.47l.04.1z"/><path d="M178.1 436.6h0l-.02.07zm24.35-17.33c.3-1.1-.4-.86-.4-.86-.4.07-.4.38-.7.7-.32.2-.5.13-.77.4-.16.1-.3.25-.42.38.01.15-.2.15-.2.3l-.08-.03c-.01.05-.02.1-.08.1v-.02c-.01.08-.08.1-.08.12v-.02l-.04.05-.01-.03a.33.33 0 0 1-.2.2l.06.07c-.2.03-.14.2-.34.22l-.01-.02c-.02.3-.35.07-.38.37 0-.04-.04-.03-.05-.05-.06.08-.13.15-.03.3-.06.04-.08-.01-.13-.05.05.06.02.12-.02.16v-.04l-.1.12.1.1c-.1.02-.12-.12-.16-.05l.07.1c-.1.05-.27-.05-.4-.05-.4.24-.6.78-1.08.88l-.07-.06c-.08-.1.02.22-.06.14v.08c-.03-.01-.06-.01-.06-.05-.04.02-.03.04-.03.1l-.1-.03c-.18.06-.2.28-.38.37-.28.01-.54.4-.68.62-.16.37-.8.2-.95.6-.02-.01-.02.04-.01.06l-.27.2s-1.3.93.3 1.04l.01.03c.18-.06.28-.1.3-.3.12.13.13-.08.2-.06v.01c.01-.17.25-.05.26-.2.01.01.03.05.01.07.05-.06.1-.16.17-.08.13-.13.36-.25.36-.45v.03c-.01-.13.06-.07.1-.16.01.01.02.01.02.02-.01-.13.16-.14.18-.22l.04.05.1-.1-.05.02c-.1-.16.16.02.17-.13.1-.04-.07-.43.06-.42-.01-.1.05.14.07.04.06.07.01.07.07.12.03-.08.15.01.18-.1l.05.06c.01-.18.23-.06.22-.2.06-.12.2.13.2-.06l.1.05c.05-.02-.04-.12.03-.12.04.05.1-.01.1.06.17 0 .13-.28.37-.25-.04-.12.07-.12.04-.2.04.04.15-.1.14.05 0 .01-.01.02-.03 0l.04.07c.16.05.1-.17.2-.22-.04 0-.07.03-.08-.03l.08-.05v.06l.13-.06-.06-.05c.08-.01.18.08.17-.05-.01-.07-.1-.04-.07-.1.1-.01.26-.03.36-.08-.06-.06-.03-.08-.02-.1l.05.06c.03-.16.14.1.18-.04l-.05-.1c0-.18.14.1.1-.15-.03.04-.12-.12-.05-.13l.03.07c.02-.03.01-.06.03-.06.01.04.06.1.1.05l.03.1-.01-.16c.1.02.13-.13.22-.06 0 0 .15-.05.1-.16.02.07.1.04.13.12-.02-.1.04-.2.12-.17v.01c.2-.04.16-.27.35-.28-.06-.06.03-.08-.05-.15.06-.18.37 0 .2-.3.05-.06.12.01.16 0h0a1.14 1.14 0 0 1 .2-.19c.02-.06-.07-.2.02-.2.02.07.04.04.06.02-.01.02 0 .04.06.05-.01-.02-.01-.03-.01-.05h.01c.03-.05.01-.06-.01-.05 0-.01-.01-.02-.03-.03.1.03.13-.1.2-.02.12-.12.15-.3.23-.4.05.03.05.1.03.14l.07-.08c.05.06-.02.07-.03.1.17.03.12-.25.3-.24l-.02-.07h.01c-.02-.03-.02-.08-.01-.1.06.04.1.13.15.08.08.02.1-.12.14-.2-.04.01-.05-.02-.05-.05.03-.02.08.02.1-.02l.06.07c-.06-.06.01-.13 0-.17.06.04-.01.08.02.13.1-.1.05-.05.16-.14.02-.1-.07-.06-.1-.15.04-.05.05-.15.14-.15l-.07-.05c.05-.12.1-.16.23-.14zm-38.03 13.98h0l.1.16zm131.68.37h0l.07.07zm-55.98-.37h0l.1.16zm13.68 3.35h0l-.02.07z"/><path d="M257.63 430.38l-.1-1.06c-.06-.2-.2-.2-.26-.53.1.1.04-.04.01-.16.03.08.06.1.06-.08-.02-.02-.04-.05-.06-.08l.01-.01c-.08-.2-.1-.16-.07-.06-.01 0-.02.01-.03.04.01-.23-.2-.58-.1-.64-.28-.6-.6-.94-.95-1.33.01-.08.12-.01.23.1l-.24-.3c.07-.05.17.15.25.23-.16-.45-.66-.67-.97-1.1l-.12-.03-.02-.03c-.02.03-.14-.02-.2-.06-.01-.1.1-.12-.1-.28-.12-.2-.5-.32-.75-.42.12.1.06.1-.01.08-.1-.07-.14-.17-.25-.18l.03-.1c0 .1-.35-.06-.4-.05-.04-.1.2.03.26 0-.48-.22-.24-.12-.73-.3-.28-.03.02.1-.13.13-.23-.07-.48-.05-.73-.18l.07.1c-.45-.02-.7-.08-1-.17-.84.12-1.25.37-1.44.5-.18.15-.16.25-.03.3.24.1.8.1.8.12 1.1.17 1.7.02 2.97.58a4.08 4.08 0 0 1 1.02.9l.84 1.07a6.05 6.05 0 0 1 .72 1.6c.2.24.15.74.26 1.05l-.07.13c.04.1.07.24.02.35h-.02c.04.17.01.36.02.44l-.02-.01-.02.2-.02-.04a1.91 1.91 0 0 1-.16.84l.1.01c-.28.5-.2.77-.56 1.17h0c-.15.7-.7.75-1.03 1.35.04-.08-.06-.01-.07-.03-.2.24-.48.42-.38.57-.2.14-.2.06-.25.02.04.06-.1.2-.27.3l.06-.07c-.14.1-.3.18-.45.26l.15.08c-.27.08-.14-.13-.36.02l.05.1c-.38.1-.64.02-1 .01-.73.14-1.5.22-2.28.12-.76-.1-1.5-.38-2.04-.86v-.1c.05-.1-.42-.07-.4-.2l-.17-.05c-.02-.05-.07-.13 0-.1-.1-.1-.12-.1-.23-.14l-.06-.17c-.36-.46-.8-.77-1.06-1.33-.23-.72-.7-2.02-.7-2.87-.08-.6.13-1.22.43-1.77.3-.56.66-1.04.94-1.56.03-.02.07-.12.06-.13a5.97 5.97 0 0 1 .78-.73l.17-.13a4.6 4.6 0 0 1 .44-.3c.35-.24.83-.46 1.2-.64.38-.16.65-.32.55-.44-.1-.1-.58-.3-1.75-.05l.02-.04c-.66.23-1.04.5-1.33.9-.16-.08-.44.36-.6.44v-.02c-.2.4-.67.6-.8 1 0-.02-.04-.06.01-.13-.15.26-.32.63-.42.6-.34.64-.68 1.6-.58 2.1l-.02-.04c.07.27-.05.33-.01.63-.01.01-.02.03-.03.03.07.3 0 .82.06 1.04l-.07.02.1.55v-.2c.2.04-.06.44.16.8.08.38.58.6.66.97.15.13-.2-.1-.02.13-.08.05-.1-.1-.15.01.15.23.1.45.34.7l-.06.05c.35.3.4.75.7.88.35.3.05.38.5.6l.07.2c.16.14.2-.01.35.17-.05.04.2.22.06.18.4.38.96.45 1.54.84.18-.05.5.12.62.05 0 .06.67.17.26.2-.03 0-.1-.02-.08-.04l-.06.06c.36.23.73.08 1.1.12-.1-.03-.27-.04-.16-.08l.36.03-.08.06c.18.03.36.05.54.05l-.08-.07c.26.02.37.17.66.02.13-.08-.26-.07.01-.13.35.02.9-.01 1.33-.12-.07-.07.05-.1.16-.16l.04.07c.4-.26.23.1.64-.17l.03-.13c.32-.3.3.04.6-.38-.15.1-.16-.1.05-.18l-.01.1c.1-.08.12-.12.2-.16-.04.08.03.1.17-.01l-.05.15.2-.32c.28-.1.52-.48.68-.47 0 0 .44-.4.45-.58-.02.14.2-.1.2.02.04-.17.26-.57.4-.7v.03c.45-.54.44-1.07.74-1.6-.1 0 .04-.3-.1-.25.07-.6.44-1.08.12-1.33 0-.28.1-.32.12-.47l.04.1zm20.5-11.1c.3-1.1-.4-.86-.4-.86-.4.07-.4.38-.7.7-.32.2-.5.13-.77.4-.16.1-.3.25-.42.38.01.15-.2.15-.2.3l-.08-.03c-.01.05-.02.1-.08.1l-.01-.02c-.01.08-.08.1-.08.12v-.02l-.04.05-.01-.03a.33.33 0 0 1-.2.2l.06.07c-.2.03-.14.2-.34.22l-.01-.02c-.02.3-.35.07-.38.37 0-.04-.04-.03-.05-.05-.06.08-.13.15-.03.3-.06.04-.08-.01-.13-.05.05.06.02.12-.02.16v-.04l-.1.12.1.1c-.1.02-.12-.12-.16-.05l.07.1c-.1.05-.27-.05-.4-.05-.4.24-.6.78-1.08.88l-.07-.06c-.08-.1.02.22-.06.14v.08c-.03-.01-.06-.01-.06-.05-.04.02-.03.04-.03.1l-.1-.03c-.18.06-.2.28-.38.37-.28.01-.54.4-.68.62-.16.37-.8.2-.95.6-.02-.01-.02.04-.01.06l-.27.2s-1.3.93.3 1.04l.01.03c.18-.06.28-.1.3-.3.12.13.13-.08.2-.06l.01.01c.01-.17.25-.05.26-.2.01.01.03.05.01.07.05-.06.1-.16.17-.08.13-.13.36-.25.36-.45v.03c-.01-.13.06-.07.1-.16.01.01.02.01.02.02-.01-.13.16-.14.18-.22l.04.05.1-.1-.05.02c-.1-.16.16.02.17-.13.1-.04-.07-.43.06-.42-.01-.1.05.14.07.04.06.07.01.07.07.12.03-.08.15.01.18-.1l.05.06c.01-.18.23-.06.22-.2.06-.12.2.13.2-.06l.1.05c.05-.02-.04-.12.03-.12.04.05.1-.01.1.06.17 0 .13-.28.37-.25-.04-.12.07-.12.04-.2.04.04.15-.1.14.05 0 .01-.01.02-.03 0l.04.07c.16.05.1-.17.2-.22-.04 0-.07.03-.08-.03l.08-.05.02.06.13-.06-.06-.05c.08-.01.18.08.17-.05-.01-.07-.1-.04-.07-.1.1-.01.26-.03.36-.08-.06-.06-.03-.08-.02-.1l.05.06c.03-.16.14.1.18-.04l-.05-.1c0-.18.14.1.1-.15-.03.04-.12-.12-.05-.13l.03.07c.02-.03.01-.06.03-.06.01.04.06.1.1.05l.03.1-.01-.16c.1.02.13-.13.22-.06 0 0 .15-.05.1-.16.02.07.1.04.13.12-.02-.1.04-.2.12-.17v.01c.2-.04.16-.27.35-.28-.06-.06.03-.08-.05-.15.06-.18.37 0 .2-.3.05-.06.12.01.16 0h0a1.14 1.14 0 0 1 .2-.19c.02-.06-.07-.2.02-.2.02.07.04.04.06.02-.01.02 0 .04.06.05-.01-.02-.01-.03-.01-.05h.01c.03-.05.01-.06-.01-.05 0-.01-.01-.02-.03-.03.1.03.13-.1.2-.02.12-.12.15-.3.23-.4.05.03.05.1.03.14l.07-.08c.05.06-.02.07-.03.1.17.03.12-.25.3-.24l-.02-.07h.01c-.02-.03-.02-.08-.01-.1.06.04.1.13.15.08.08.02.1-.12.14-.2-.04.01-.05-.02-.05-.05.03-.02.08.02.1-.02l.06.07c-.06-.06.01-.13 0-.17.06.04-.01.08.02.13.1-.1.05-.05.16-.14.02-.1-.07-.06-.1-.15.04-.05.05-.15.14-.15l-.07-.05c.05-.12.12-.16.23-.14z"/><path d="M312.74 440.2c.02-.02.03-.04.05-.07.05-.22 0-.63-.1-.96l-.2-.54c-.42-.98-.94-1.52-1.5-2.03l-2.1-1.62c-1.42-1.27-1.67-1.8-3.35-2.8-.76-.54-1.65-1.02-2.45-1.45-.47-.04-1.05-.6-1.58-.68l-.12-.2c-.2-.03-.4-.1-.52-.22l.03-.03c-.28-.04-.52-.22-.66-.24l.03-.03-.3-.12.07-.02c-.46-.1-.9-.3-1.27-.5l-.02.15c-.2-.12-.36-.2-.52-.27l-.67-.24c-.43-.14-.8-.27-1.42-.62v-.04c-.04 0-.1 0-.13-.01l-.2-.1-1.18-.63-2.25-1.23s-5.45-3-8.9-4.73c-2.46-1.22-3.92-1.74-1.78-.02l-.1.04c-.36.17-.27.46-.47.83-.25.27-.44.25-.62.6-.12.14-.2.3-.3.47.05.14-.14.2-.1.33h-.08c.01.05 0 .1-.05.1h-.02c.01.07-.05.1-.04.14v-.01l-.03.06-.02-.03c-.01.1-.06.18-.13.23l.07.05c-.18.08-.08.24-.26.3l-.02-.01c.07.3-.3.16-.26.45-.01-.04-.04-.02-.06-.03-.04.1-.1.18.05.28-.04.05-.08.01-.13-.02.06.04.05.1.02.16l-.01-.04-.07.14.13.06c-.08.04-.15-.1-.17 0l.1.07c-.1.08-.27.02-.4.06-.3.33-.36.9-.78 1.1l-.08-.04c-.1-.07.08.2-.02.15l.02.07c-.03 0-.06.01-.07-.03-.03.03-.01.05 0 .1h-.1c-.16.1-.12.32-.26.45-.27.08-.4.5-.48.76-.05.4-.7.4-.74.82-.02 0-.01.05.01.06l-.2.25s-.98 1.22.6.9l.02.02c.16-.1.24-.18.2-.36.15.1.1-.1.17-.1h.01c-.04-.17.22-.1.2-.26.01.01.05.04.03.06.03-.07.06-.18.14-.12.1-.16.28-.33.22-.52l.02.02c-.05-.12.04-.08.04-.17.01 0 .02 0 .03.01-.04-.12.1-.18.1-.25l.06.04.07-.12-.04.03c-.14-.13.16-.02.12-.17.08-.06-.2-.4-.06-.4-.04-.1.1.12.08.02.08.06.03.06.1.1.01-.08.15-.03.15-.14l.06.04c-.04-.17.2-.1.15-.25.02-.13.22.07.18-.1l.1.02c.04-.03-.08-.1 0-.12.05.04.08-.03.1.04.16-.04.05-.3.28-.33-.08-.1.03-.13-.02-.2.05.03.1-.13.15.01 0 .01-.01.02-.02.01l.05.05c.17 0 .05-.2.12-.25-.04.01-.05.04-.08-.01l.06-.07.04.05.1-.1-.07-.03c.07-.03.2.03.15-.1-.03-.06-.12-.01-.1-.08.1-.04.24-.1.32-.17-.08-.04-.05-.07-.05-.1l.06.04c-.01-.16.16.06.16-.08l.04.04-.1-.12c-.05-.17.16.05.07-.17-.02.05-.15-.08-.08-.1l.05.05c.01-.03-.01-.06.01-.07.02.04.08.07.1.03l.05.08-.05-.15c.1-.01.1-.15.2-.1 0 0 .13-.1.06-.18.04.07.1.02.16.08-.04-.08-.02-.2.07-.2v.01c.17-.08.08-.3.25-.36-.07-.05.01-.08-.1-.13.01-.2.35-.1.1-.34.03-.07.1-.02.15-.04v.02a.92.92 0 0 1 .14-.23c0-.06-.12-.16-.04-.2.03.06.05.02.07 0 0 .02.01.04.07.03-.01-.02-.02-.03-.02-.04.02-.05 0-.05-.02-.04-.01-.01-.02-.01-.04-.02.1 0 .1-.13.18-.07.08-.15.06-.3.1-.44.05.02.07.08.07.12l.04-.1c.06.05 0 .07 0 .1.17-.01.04-.27.22-.3l-.03-.06h.01c-.03-.02-.05-.07-.04-.1.07.03.13.1.17.04.1 0 .06-.14.08-.22-.03.02-.06-.01-.07-.04.02-.03.1 0 .08-.04l.08.05c-.08-.04-.02-.13-.05-.16.07.03.02.08.05.12l.1-.17c-.01-.1-.08-.04-.12-.12.02-.06.01-.15.1-.18l-.08-.03c.02-.13.07-.2.2-.2 0-.14-.01-.25-.03-.35l3.78 2.7c-.02.12-.02.25-.08.4-.2.25-.38.24-.48.55-.1.13-.14.3-.2.43.07.13-.1.17-.05.3l-.08-.01c.02.04.02.1-.03.1l-.02-.01c.02.07-.03.1-.02.12l-.02-.01-.02.05h-.02c.01.1-.03.16-.08.2l.08.04c-.16.08-.03.22-.2.27h-.02c.1.26-.27.15-.17.4-.01-.03-.04-.01-.06-.03-.02.08-.05.16.1.25-.03.05-.07.01-.13-.01.06.04.07.1.05.14l-.01-.03-.04.13.13.05c-.07.04-.16-.07-.16 0l.1.06c-.07.07-.25.03-.37.06-.24.3-.2.8-.55 1.02l-.08-.03c-.1-.06.1.18 0 .13l.03.07c-.03 0-.06.01-.07-.03-.02.03-.01.04.01.1l-.1-.01c-.13.1-.06.3-.17.4-.24.08-.3.47-.32.7.02.35-.6.38-.56.75-.02 0 0 .04.01.05l-.16.23s-.72 1.12.7.8h.02c.14-.1.2-.17.13-.33.16.07.08-.1.14-.1l.01.01c-.07-.15.2-.1.13-.24.01.01.05.04.04.05.01-.07.03-.16.1-.1.06-.15.2-.3.12-.47l.02.02c-.06-.1.02-.07.01-.15.01 0 .02 0 .03.01-.06-.1.08-.16.06-.23l.06.03.05-.1-.04.03c-.15-.1.15-.02.1-.16.06-.06-.24-.34-.12-.37-.05-.08.1.1.08.02.08.05.04.06.1.08-.01-.07.13-.03.12-.13l.07.04c-.07-.15.18-.1.1-.23 0-.12.22.06.15-.1l.1.02c.04-.03-.1-.1-.02-.1.05.03.08-.03.1.03.14-.05-.01-.27.2-.3-.1-.1.01-.12-.06-.18.05.02.08-.12.14.01 0 .01 0 .02-.02.01l.06.05c.16 0 .01-.17.07-.23-.03.01-.04.04-.08 0l.05-.06.05.05.1-.08-.07-.03c.06-.03.18.02.12-.1-.04-.06-.12-.01-.1-.07.08-.04.2-.1.28-.17-.08-.04-.06-.06-.06-.1l.07.04c-.04-.14.16.05.14-.08l-.08-.07c-.08-.15.16.04.04-.15-.01.04-.15-.07-.1-.1l.06.05c0-.03-.02-.05 0-.06.03.03.1.06.1.02l.06.07-.08-.13c.1-.01.06-.14.16-.1 0 0 .1-.08.03-.16.05.06.1.01.16.07-.05-.07-.06-.18.03-.17v.01c.15-.08.02-.27.18-.33-.08-.04 0-.07-.1-.12-.03-.17.32-.1.05-.3.01-.06.1-.02.14-.04l.01.02c.03-.1.05-.14.1-.2-.01-.05-.14-.14-.07-.18.04.05.05.02.06 0 0 .02.02.04.07.03-.01-.01-.02-.03-.03-.04.01-.04-.01-.04-.03-.03-.01-.01-.02-.01-.04-.01.1 0 .06-.12.16-.07.05-.13 0-.28.03-.4.05.02.08.07.1.1l.02-.08c.07.04.02.06.02.1.16-.02-.01-.24.15-.28l-.04-.05h.01c-.03-.02-.06-.06-.06-.08.07.02.14.08.16.03.08 0 .04-.13.03-.2-.03.02-.05-.01-.07-.03.01-.03.08 0 .07-.04l.08.05c-.08-.04-.04-.1-.07-.14.07.02.03.07.07.1.05-.1.03-.05.08-.15-.03-.1-.08-.04-.14-.1v-.03c2.05 1.24 3.5 2.03 5.14 2.7.13.4 2.03 1.13 2.57 1.52l-.07-.01.55.2-.24.74c-.06.22-.08.3-.1.42-.01.12-.01.24 0 .38-.01-.14-.1.03-.12.02-.07.4-.15.82.02.98l-.06.3c-.02.01-.04.01-.06.02 0-.07.01-.16.04-.3l-.07.3h-.06a.12.12 0 0 1 .05.05c-.26 1.12-.56 2.44-.73 2.48l-.03.12c-.05.07-.1.13-.14.2-.3.95-.47 1.95-.66 2.95-.01.03-.02.06-.02.1l-.43 1.73-.2.9-.32.06a18.04 18.04 0 0 0-.8.08l.13-.05c-1.05.17-1.36.01-2.54.1-.06-.02-.15-.03-.13-.04-1.15.17-3.34 0-4.27.06l-.06-.1h-2.28l.85.03c-.3.3-1.72-.2-3.38-.03-1.55-.05-3.15.6-4.75.44-.77.14.68-.23-.47-.13-.04-.16.54-.1.24-.23-1.13.07-1.84-.18-3.23-.1l-.06-.12c-1.8.2-3.42-.2-4.62.01-1.87.1-1.25-.38-3.2-.16l-.75-.18c-.83-.04-.6.2-1.52.1.06-.1-1.17-.1-.62-.2-2.1-.2-4.24.2-7-.1-.6.2-1.98.06-2.43.22-.07-.1-2.78-.04-1.22-.22.13-.01.37-.01.35.03l.2-.12c-1.57-.25-2.85.1-4.4.05.46.04 1.07.04.66.12l-1.44-.03.3-.1-2.15-.08.3.13c-1.05-.08-1.42-.3-2.6-.13-.54.1 1 .18-.12.2-.17-.02-.25-.05-.36-.07-.02-.13.01-.24.01-.43l-.15-2.77c-.13.18-.16-.3-.23-.8l.12-.07c-.33-1.9.22-.7-.08-2.6l-.2-.32c-.4-1.68.17-.93-.32-2.78.08.74-.25.37-.26-.55l.14.22c-.06-.5-.13-.67-.12-1 .1.3.18.15.1-.6l.18.5-.3-1.4c.06-1.1-.2-2.8-.04-3.27 0 0-.01-2.34-.2-2.87.13.47.14-.82.28-.46-.07-.3-.14-.9-.17-1.5-.02-.3-.02-.6-.01-.9 0-.17.01-.2.03-.24a.24.24 0 0 1 .07-.12v.06c.1-.25.3-.5.55-.64.06-.04.12-.06.18-.1.03-.02.05-.01.07-.03a2.01 2.01 0 0 1 .19-.04l.82-.17 3.33-.55c-.13-.12 1.13-.25.8-.38 2.3-.56 4.34-.4 5.2-1l1.1-.2.94-.03-.26.07 4.23-.74c.76-.18.84-.46 2.23-.63-.43.18.13.07.65-.02-.33.07-.42.13.27.08.1-.05.23-.1.37-.13.01.01.04.01.02.02.86-.18.7-.2.3-.13.02-.02-.02-.03-.15-.04.66-.01 1.66-.22 2.22-.28l.12.26c.4.87.9 1.12 1.6 1.98.55.82.57 1.13 1.23 1.9l.9 1.17c.24.1.37.5.6.66v.13c.08.05.17.13.2.22l-.02.01c.13.08.2.22.25.26h-.02l.1.13-.04-.01c.2.16.34.36.45.55l.06-.07c.1.22.2.33.3.45.06.07.1.1.17.2s.16.24.25.4l-.02.01.16.14c.2-.04.38-.05.54-.05.2 0 .3.01.38.03h.3c.12-.01.37-.04.54-.1-.1.03.07.04.07.06.43-.05.9-.08.7-.25h.16c0-.1.05-.03.1-.02-.1-.07-.18-.33-.22-.55l.05.12-.15-.63a1.06 1.06 0 0 1-.12.1c-.02-.3.16-.06.07-.37l-.12.02c-.04-.34.1-.52.12-.83-.2-1.2-.75-2.42-.77-3.57l.08-.07c.12-.05-.25-.27-.14-.33l-.08-.12c.02-.04.02-.12.07-.06-.02-.12-.04-.12-.1-.2l.05-.14c-.03-.48-.27-.85-.34-1.35.02-.28-.05-.66-.15-1.05a1.17 1.17 0 0 1-.05-.2c.05-.01.1-.01.16-.02v-3.3c.02-.88.08-1.84.38-2.7v-.42l.05-.1c-.05-.01.02-.46.13-.73.12-.1.17-.06.26-.1.08-.05.18-.18.43-.52.26-.2.56-.52.97-.68.48-.17.76-.2 1.05-.1-.26-.13-.16-.15.03-.15.1 0 .07.12.1.18v.2l.02.16c.02.1.05.2.1.28l-.14.1c.08-.24.55 1.3.67 1.47-.02.33-.33-.77-.46-.87l.94 3.1c.44 1.07.08-.24.37.25.32.96.7 1.88.94 3.03l.03-.4c.65 1.8.95 2.9 1.18 4.17l1.57 3.9c.02.13.15.17.24.22l.3.14.56.26a7.53 7.53 0 0 0 .85.32c.9.27.94.1.54-.25-.2-.17-.47-.4-.78-.62l-.47-.37-.2-.17c-.03-.03-.02-.03-.03-.05-.02-.02 0-.06 0-.07-.01-.08-.07-.3-.1-.42l-.1-.44-2-6.9-1.15-3.4-.65-1.95-.82-2.56-.17-.37c-.05-.12-.1-.27-.24-.28a5.43 5.43 0 0 0-.75-.24c-.5-.12-1.12-.1-1.45-.06a3.13 3.13 0 0 0-.44.1c.06-.4.1-.78.1-1.06l.17-3.44.7-62.44.16-.85c.22-.37-.25-5.34-.05-6.07l-.07-2.25c.05-.63.1-1.96.14-.84l-.05-3.63.16-2.23c.18-8.2.1-15.17.12-23.85.22-10.4-.55-29.92-1.05-41.16-.37-7.42-.52-15.4-.68-23.47l-.26-12.1-.2-5.97-.28-6.84-2.5.02-1.5.03c-.26-.02-.74-.01-1.14.01l-.52.03h-.22-1-.04l-.3-.06c-.2-.04-.4-.1-.67-.08h-1.2l-3.3.01-6.48.08c-.28-.02-.77-.01-1.2.01-.16.01-.3.02-.44.02h-.17l-9.5.01-6.25-.01s-11.86-.01-22.6.08c-.06-.15-.1-.15-.13 0-16.33.15-30 .54 4.58 1.6l-.4.05c8.53.1 13.9.14 19.78-.1.93.3 7 .03 9 .12l-.2.02c4.27-.18 8.75.05 13 .04l-.2 20.5.55-.18-.06.2-.43 1.54c-.55 2-1 3.74-1.33 5.1l.06-.38c-.7 3.12-1.12 3.97-2 7.43-.07.18-.15.42-.15.38-.78 3.4-2.72 9.76-3.4 12.5H250l-1.83 6.67.7-2.48c.06.95-1.58 5-2.72 9.87-1.3 4.5-1.92 9.34-3.35 14-.48 2.28.32-2.03-.5 1.34-.18.07.33-1.6-.03-.76-.83 3.3-1.64 5.35-2.66 9.43l-.17.13c-1.24 5.35-2.92 9.93-3.7 13.5-1.44 5.47-1.38 3.55-2.77 9.28l-.8 2.15c-.75 2.4-.3 1.8-1.22 4.43-.05-.2-1.16 3.34-.76 1.75-2.1 5.98-3.7 12.3-6.53 20.15-.36 1.8-1.76 5.74-2.03 7.07-.15.2-2.6 8-1.33 3.46.1-.4.33-1.07.35-1l.06-.57c-1.68 4.46-2.52 8.26-4 12.73.47-1.32 1.02-3.08.72-1.88l-1.35 4.16.18-.9-2.05 6.18.4-.82c-1.04 3-1.6 4.02-2.52 7.5-.4 1.58 1.1-2.82.1.4l-5.17 15.23c.3-.44-.16.95-.6 2.4l-.17.13c-.8 2.77-1.03 3.26-1.26 3.73-.1.24-.23.47-.42 1l-.35 1.03c-.08.26-.1.35-.18.5a1.35 1.35 0 0 1-.3.4c.05-.08.08-.16.1-.24-.08.24-.26.5-.53.67-.18.08-.37.12-.55.14-.1.01-.15.01-.26.01l-.35-.03-1.08-.1c-.6-.07-.95-.14-1.33-.2-.76-.13-1.6-.26-4.46-.4 2.26.22 1.04.4-1.74.04l.72-.05c-1.54-.14-2.06-.14-3.08-.27.92.03.5-.12-1.76-.34h1.53l-4.3-.23c-3.28-.48-8.53-.87-9.86-1.18 0 0-7.08-.83-8.73-.82 1.42.04-2.44-.42-1.34-.44-.42.02-1.53-.42-1.1-2.08.3-1.85.64-3.73.9-4.8l-.06.4c1.54-7.94 2.2-13.65 3.63-20.77-.2.3.54-3.46.2-2.56 1.12-7.42 2.74-13.42 2.64-16.18.56-3.37.83-3.97 1.17-5.7l-.1.8 2.2-12.82c.36-2.35.16-2.76.96-6.93-.14 1.37.15-.34.42-1.9-.16 1-.16 1.32.24-.73.01-.3.07-.75.12-1.17.01-.02.03-.1.03-.05.38-2.63.28-2.18.07-.96-.01-.06-.04.04-.13.4.58-2.7 1.18-7.6 1.4-7.9 1.14-7.9 1.7-13.6 2.5-20.2.2-.73.07.82-.15 2.74l.58-4.68c.13.06-.27 2.7-.44 4.14.95-5.54 1.27-11.5 2.34-18l.08-1.37.07-.4c-.06.01.06-1.46.18-2.43.24-.9.25.1.7-3.13.46-2.54.95-7.25 1.36-10.6-.28 1.8-.26 1.2-.2.43.23-1.6.48-2.52.6-3.78l.14-.1c-.08-.24.5-4.3.52-4.87.25-.9-.27 2.5-.24 2.93l1.4-9.7c.4-3.47-.24.6-.13-1.06.42-3.05.74-6.03 1.34-9.52l-.3 1.1c.72-5.74 1.22-9.16 1.9-13l2.2-19.48c.4-2.88.2-2.68-.25-1.2-.46 1.55-1 4.4-1.45 6.9l-.76 4.58c-1.36 8.37-2.22 14.74-3.12 21.5l-3.24 23.93-5.67 40.43-3.86 26.37c-.5 4.04-1.94 11.08-2.6 15.85l-.44 1.82c-.23 1.64-.52 3.57-.88 5.2l-.02-.1c-.34 2.46-.88 5.2-1.04 6.42l-.02-.1-.5 2.97.04-.52c-.65 4.27-1.42 8.66-2.14 12.52l.2-.3c-1.6 8.24-1.85 11.3-3.35 18.74l-.02-.1a162.34 162.34 0 0 1-1.01 6.48c-.04.26-.1.5-.13.76-.05.35-.04.67.01 1a3.62 3.62 0 0 0 .81 1.79c.44.5 1.03.88 1.67 1.05.15.04.37.08.48.1l.36.04.7.1 3.08.37c2.86.34 5.9.67 9.53.92-1.23-.08.52.13.4.15 4.53.44 9.36.93 9.46.65 1.33.14 2.02.23 2.4.3-.16.68-.25 1.34-.34 2.06-.05.48-.1.98-.12 1.52-.01.13-.01.27-.02.4v.2l-.02.01c-.02 0 .02 0-.04.01-.14.03-.3.05-.43.08-2.86.45-5.9 1-8.7 1.5-1.3.43-3.67.6-5.2 1.04l-.63-.02c-.53.15-1.16.3-1.7.32l.03-.04c-.8.22-1.7.32-2.1.43l.03-.04-.98.18.16-.08c-1.4.33-2.83.57-4.1.74.02-.07.04-.12.04-.12.66-2.15.68-3.35 1.22-6 .02-.08.03-.14.05-.2.01-.46-.07-.94-.42-1.03-.26-.07-.48.3-.66.78 0 .02-.01.05-.01.08.07-.24.1-.15.1-.04-.05.2-.14.32-.15.5h-.1c.1-.03-.03.58-.01.67-.1.1.02-.34-.02-.4l-.28 1.3c-.03.47.1-.06.14.17-.07.4-.1.8-.26 1.26l.1-.13c-.1.77-.22 1.22-.42 1.7a41.79 41.79 0 0 0-.15 1.75 37.35 37.35 0 0 0-2.33.41l-.67.13c-.25.05-.4.05-.8.17-.66.2-1.32.62-1.85 1.36v-.06c-.27.5-.4 1.07-.4 1.6.02.38.03.7.03 1.06.01.67-.02 1.3-.03 1.94-.04 1.27-.06 2.56.2 4.18-.07-.4-.07.18-.1.15.12 1.5.25 3.1.54 3.1.07 1.1-.02.9-.12 1.05.12-.02.25.93.33 1.78l-.08-.4.26 2.44.2-.5c.05 1.3-.26.35-.1 1.58l.2-.03c.1 1.8-.1 2.86-.08 4.62l.07.73a25.59 25.59 0 0 0 .15 1.14l.04.26c0 .16 0 .3-.01.47l-.05 1.38c-.01.44-.04.86.05 1.44.18 1.1.83 2.1 1.8 2.7.48.3 1.03.48 1.58.54.6.05.93.01 1.38.01l2.52-.04c3.34-.05 6.63-.07 9.68.12l.27.15c.12.22 1.7-.3 1.92-.1l.7-.1c.2.04.62.08.27.13.66.01.67-.02 1.15-.08l.7.14c2.6.12 4.8-.13 7.52-.06 3.27.3 9.43.08 12.98-.05 5-.3 10.78.6 15.9.26.17.03.6-.03.6-.06l4.67.06h3.27l3-.03.77-.02c.26 0 .62-.01.93-.08a3.38 3.38 0 0 0 1.58-.83c.82-.76 1.1-1.7 1.1-2.26.01-.6-.13-.82-.24-.67-.14.14-.22.76-.87 1.53-.32.37-.82.75-1.46.9-.34.08-.63.05-1.08-.01l-1.5-.17.12-.05c-2.56-.13-4.17-.16-5.94.06-.27-.3-2.1-.04-2.7-.14l.06-.02c-1.57.2-3.2-.2-4.72-.01.06-.02.1-.1.44-.1-1.1.03-2.6.08-2.68-.08-2.62.03-6.28-.07-7.96.2l.12-.05c-.96.17-1.24.02-2.3.1-.06-.02-.13-.03-.12-.04-1.05.17-3.04.01-3.9.08l-.05-.1-2.08.01.78.03c-.27.3-1.57-.2-3.07-.01-1.4-.05-2.87.62-4.33.46-.7.14.62-.23-.43-.13-.03-.16.5-.1.22-.23-1.02.07-1.68-.17-2.94-.07l-.05-.12c-1.65.22-3.1-.18-4.2.03-1.7.1-1.13-.38-2.9-.14l-.7-.17c-.76-.03-.54.2-1.38.12.05-.1-1.06-.1-.57-.2-1.9-.18-3.86.2-6.36-.08-.54.2-1.8.07-2.2.23-.07-.1-2.52-.03-1.1-.22.12-.02.34-.01.32.02l.17-.12c-1.43-.24-2.6.1-4 .07.42.04.98.04.6.12l-1.3-.02.27-.1c-.38-.01-.53-.02-.73-.08a1.89 1.89 0 0 1-.54-.25l.08.2c-.26-.18-.36-.37-.47-.55-.1-.2-.2-.35-.4-.65-.2-.3.04.65-.22-.01-.07-.32-.01-.86.05-1.53.02-.17.03-.34.05-.5.02-.2.03-.3.04-.33l.04-.17c.05 0 .12.02.17.02-.02-.03 0-.04 0-.05h.36l.01.02c.08-.01.14-.01.2-.02h.7c.43.06.2.26 1.44.18l.3-.17c.04-.01.07-.01.1-.01h.97c.28.06.45.15 1.4-.01l1.4-.01c.1.01.25.02.46.02l-.46.15 1.1-.18h.5c1 .08 2.32-.02 2.7.14 0 0 2.14.1 2.63-.08-.43.1.75.17.4.3.56-.13 2.2-.22 2.85-.07l-.12.01c.7.05 1.33.05 1.94.04.1.03.27.02.5-.01 1.3-.04 2.5-.12 3.9 0-.04-.06.14-.08.35-.1l.4.07c2.85.13 5.27-.1 8.27-.02 3.6.3 10.38.12 14.3.01.87-.04 1.76-.06 2.66-.05l1.55.04c-.02.05-.03.1-.04.14.13.01.26.03.4.04 0 .05 0 .1.01.15-.08.1.28.03.6-.05s.63-.16.64-.06l.45-.1c.1.04.33.08.1.13.4.01.4-.02.68-.08l.24.14c.9.1 1.66-.14 2.6-.07 1.13.28 3.26.06 4.5-.08 1.73-.3 3.73.57 5.5.22.06.03.2-.04.2-.06l1.62.05s1.67.03 2.9-.1l.35-.04c.15.74.27 1.25.38 1.6.25.87.37.8.5.33.05-.24.07-.6.1-.97.01-.2.01-.4.02-.6l-.03-1.07c.25-1.08-.2-1.37-.66-1.43.02-.02.03-.04.05-.07.05-.22 0-.63-.1-.96-.1-.3-.2-.54-.2-.54-.42-.98-.94-1.52-1.5-2.03-.6-.5-1.24-.96-2.1-1.62-1.42-1.27-1.67-1.8-3.35-2.8-.76-.54-1.65-1.02-2.45-1.45-.47-.04-1.05-.6-1.58-.68l-.12-.2c-.2-.03-.4-.1-.52-.22l.03-.03c-.28-.04-.52-.22-.66-.24l.03-.03-.3-.12.07-.02c-.46-.1-.9-.3-1.27-.5l-.02.15c-.2-.12-.36-.2-.52-.27-.22-.1-.46-.17-.67-.24-.43-.14-.8-.27-1.42-.62v-.04c-.04 0-.1 0-.13-.01l-.2-.1-1.18-.63-2.25-1.23s-5.45-3-8.9-4.73c-2.46-1.22-3.92-1.74-1.78-.02-.05.02-.1.04-.1.04-.36.17-.27.46-.47.83-.25.27-.44.25-.62.6-.12.14-.2.3-.3.47.05.14-.14.2-.1.33l-.08-.01c.01.05 0 .1-.05.1l-.02-.01c.01.07-.05.1-.04.14l-.02-.01-.03.06-.02-.03c-.01.1-.06.18-.13.23l.07.05c-.18.08-.08.24-.26.3l-.02-.01c.07.3-.3.16-.26.45-.01-.04-.04-.02-.06-.03-.04.1-.1.18.05.28-.04.05-.08.01-.13-.02.06.04.05.1.02.16l-.01-.04-.07.14.13.06c-.08.04-.15-.1-.17 0l.1.07c-.1.08-.27.02-.4.06-.3.33-.36.9-.78 1.1l-.08-.04c-.1-.07.08.2-.02.15l.02.07c-.03 0-.06.01-.07-.03-.03.03-.01.05 0 .1l-.1-.01c-.16.1-.12.32-.26.45-.27.08-.4.5-.48.76-.05.4-.7.4-.74.82-.02 0-.01.05.01.06l-.2.25s-.98 1.22.6.9h.02c.16-.1.24-.18.2-.36.15.1.1-.1.17-.1l.01.01c-.04-.17.22-.1.2-.26.01.01.05.04.03.06.03-.07.06-.18.14-.12.1-.16.28-.33.22-.52l.02.02c-.05-.12.04-.08.04-.17.01 0 .02 0 .03.01-.04-.12.1-.18.1-.25l.06.04.07-.12-.04.03c-.14-.13.16-.02.12-.17.08-.06-.2-.4-.06-.4-.04-.1.1.12.08.02.08.06.03.06.1.1.01-.08.15-.03.15-.14l.06.04c-.04-.17.2-.1.15-.25.02-.13.22.07.18-.1l.1.02c.04-.03-.08-.1 0-.12.05.04.08-.03.1.04.16-.04.05-.3.28-.33-.08-.1.03-.13-.02-.2.05.03.1-.13.15.01 0 .01-.01.02-.02.01l.05.05c.17 0 .05-.2.12-.25-.04.01-.05.04-.08-.01l.06-.07.04.05.1-.1-.07-.03c.07-.03.2.03.15-.1-.03-.06-.12-.01-.1-.08.1-.04.24-.1.32-.17-.08-.04-.05-.07-.05-.1l.06.04c-.01-.16.16.06.16-.08l.04.04-.1-.12c-.05-.17.16.05.07-.17-.02.05-.15-.08-.08-.1l.05.05c.01-.03-.01-.06.01-.07.02.04.08.07.1.03l.05.08-.05-.15c.1-.01.1-.15.2-.1 0 0 .13-.1.06-.18.04.07.1.02.16.08-.04-.08-.02-.2.07-.2v.01c.17-.08.08-.3.25-.36-.07-.05.01-.08-.1-.13.01-.2.35-.1.1-.34.03-.07.1-.02.15-.04v.02c.06-.12.08-.16.14-.23 0-.06-.12-.16-.04-.2.03.06.05.02.07 0 0 .02.01.04.07.03-.01-.02-.02-.03-.02-.04.02-.05 0-.05-.02-.04-.01-.01-.02-.01-.04-.02.1 0 .1-.13.18-.07.08-.15.06-.3.1-.44.05.02.07.08.07.12l.04-.1c.06.05 0 .07 0 .1.17-.01.04-.27.22-.3l-.03-.06h.01c-.03-.02-.05-.07-.04-.1.07.03.13.1.17.04.1 0 .06-.14.08-.22-.03.02-.06-.01-.07-.04.02-.03.1 0 .08-.04l.08.05c-.08-.04-.02-.13-.05-.16.07.03.02.08.05.12l.1-.17c-.01-.1-.08-.04-.12-.12.02-.06.01-.15.1-.18l-.08-.03c.02-.13.07-.2.2-.2 0-.14-.01-.25-.03-.35.85.65 2.08 1.54 3.78 2.7-.02.12-.02.25-.08.4-.2.25-.38.24-.48.55-.1.13-.14.3-.2.43.07.13-.1.17-.05.3l-.08-.01c.02.04.02.1-.03.1h-.02c.02.07-.03.1-.02.12l-.02-.01-.02.05-.02-.02c.01.1-.03.16-.08.2l.08.04c-.16.08-.03.22-.2.27l-.02-.01c.1.26-.27.15-.17.4-.01-.03-.04-.01-.06-.03-.02.08-.05.16.1.25-.03.05-.07.01-.13-.01.06.04.07.1.05.14v-.03l-.04.13.13.05c-.07.04-.16-.07-.16 0l.1.06c-.07.07-.25.03-.37.06-.24.3-.2.8-.55 1.02l-.08-.03c-.1-.06.1.18 0 .13l.03.07c-.03 0-.06.01-.07-.03-.02.03-.01.04.01.1l-.1-.01c-.13.1-.06.3-.17.4-.24.08-.3.47-.32.7.02.35-.6.38-.56.75-.02 0 0 .04.01.05l-.16.23s-.72 1.12.7.8l.02.02c.14-.1.2-.17.13-.33.16.07.08-.1.14-.1l.01.01c-.07-.15.2-.1.13-.24.01.01.05.04.04.05.01-.07.03-.16.1-.1.06-.15.2-.3.12-.47l.02.02c-.06-.1.02-.07.01-.15.01 0 .02 0 .03.01-.06-.1.08-.16.06-.23l.06.03.05-.1-.04.03c-.15-.1.15-.02.1-.16.06-.06-.24-.34-.12-.37-.05-.08.1.1.08.02.08.05.04.06.1.08-.01-.07.13-.03.12-.13l.07.04c-.07-.15.18-.1.1-.23 0-.12.22.06.15-.1l.1.02c.04-.03-.1-.1-.02-.1.05.03.08-.03.1.03.14-.05-.01-.27.2-.3-.1-.1.01-.12-.06-.18.05.02.08-.12.14.01 0 .01 0 .02-.02.01l.06.05c.16 0 .01-.17.07-.23-.03.01-.04.04-.08 0l.05-.06.05.05.1-.08-.07-.03c.06-.03.18.02.12-.1-.04-.06-.12-.01-.1-.07.08-.04.2-.1.28-.17-.08-.04-.06-.06-.06-.1l.07.04c-.04-.14.16.05.14-.08l-.08-.07c-.08-.15.16.04.04-.15-.01.04-.15-.07-.1-.1l.06.05c0-.03-.02-.05 0-.06.03.03.1.06.1.02l.06.07-.08-.13c.1-.01.06-.14.16-.1 0 0 .1-.08.03-.16.05.06.1.01.16.07-.05-.07-.06-.18.03-.17h0c.15-.08.02-.27.18-.33-.08-.04 0-.07-.1-.12-.03-.17.32-.1.05-.3.01-.06.1-.02.14-.04l.01.02c.03-.1.05-.14.1-.2-.01-.05-.14-.14-.07-.18.04.05.05.02.06 0 0 .02.02.04.07.03-.01-.01-.02-.03-.03-.04.01-.04-.01-.04-.03-.03-.01-.01-.02-.01-.04-.01.1 0 .06-.12.16-.07.05-.13 0-.28.03-.4.05.02.08.07.1.1l.02-.08c.07.04.02.06.02.1.16-.02-.01-.24.15-.28l-.04-.05h.01c-.03-.02-.06-.06-.06-.08.07.02.14.08.16.03.08 0 .04-.13.03-.2-.03.02-.05-.01-.07-.03.01-.03.08 0 .07-.04l.08.05c-.08-.04-.04-.1-.07-.14.07.02.03.07.07.1.05-.1.03-.05.08-.15-.03-.1-.08-.04-.14-.1v-.03c2.05 1.24 3.5 2.03 5.14 2.7.13.4 2.03 1.13 2.57 1.52l-.07-.01c.5.2.57.2.76.3.13.02.05.14.02.22l-.1.25c-.26.8-.54 1.66-.65 2.48-.01-.07-.07-.12.02-.5-.27 1.18-.63 2.8-.8 2.83l-.86 3.38-.43 1.73c-.18.73-.15.67-.2.9l-.32.06a18.04 18.04 0 0 0-.8.08l.13-.05c-1.05.17-1.36.01-2.54.1-.06-.02-.15-.03-.13-.04-1.15.17-3.34 0-4.27.06l-.06-.1h-2.28l.85.03c-.3.3-1.72-.2-3.38-.03-1.55-.05-3.15.6-4.75.44-.77.14.68-.23-.47-.13-.04-.16.54-.1.24-.23-1.13.07-1.84-.18-3.23-.1l-.06-.12c-1.8.2-3.42-.2-4.62.01-1.87.1-1.25-.38-3.2-.16l-.75-.18c-.83-.04-.6.2-1.52.1.06-.1-1.17-.1-.62-.2-2.1-.2-4.24.2-7-.1-.6.2-1.98.06-2.43.22-.07-.1-2.78-.04-1.22-.22.13-.01.37-.01.35.03l.2-.12c-1.57-.25-2.85.1-4.4.05.46.04 1.07.04.66.12l-1.44-.03.3-.1-2.15-.08.3.13c-1.05-.08-1.42-.3-2.6-.13-.54.1 1 .18-.12.2-.17-.02-.25-.05-.36-.07-.02-.13.01-.24.01-.43l-.15-2.77c-.13.18-.16-.3-.23-.8l.12-.07c-.33-1.9.22-.7-.08-2.6l-.2-.32c-.4-1.68.17-.93-.32-2.78.08.74-.25.37-.26-.55l.14.22c-.06-.5-.13-.67-.12-1 .1.3.18.15.1-.6l.18.5-.3-1.4c.06-1.1-.2-2.8-.04-3.27 0 0-.01-2.34-.2-2.87.13.47.14-.82.28-.46-.07-.3-.14-.9-.17-1.5-.02-.3-.02-.6-.01-.9 0-.17.01-.2.03-.24a.24.24 0 0 1 .07-.12v.06c.1-.25.3-.5.55-.64.06-.04.12-.06.18-.1.03-.02.05-.01.07-.03a2.01 2.01 0 0 1 .19-.04l.82-.17c1.08-.22 2.13-.44 3.33-.55-.13-.12 1.13-.25.8-.38 2.4-.58 4.52-.37 5.3-1.07 1.1-.2 1.34-.1 1.92-.15l-.26.07 4.23-.74c.76-.18.84-.46 2.23-.63-.43.18.13.07.65-.02-.33.07-.42.13.27.08.1-.05.23-.1.37-.13.01.01.04.01.02.02.86-.18.7-.2.3-.13.02-.02-.02-.03-.15-.04.66-.01 1.66-.22 2.22-.28.06.14.12.26.12.26.4.87.9 1.12 1.6 1.98.55.82.57 1.13 1.23 1.9.28.4.6.8.9 1.17.24.1.37.5.6.66v.13c.08.05.17.13.2.22l-.02.01c.13.08.2.22.25.26l-.02.01.1.13-.04-.01c.2.16.34.36.45.55l.06-.07c.1.22.2.33.3.45.06.07.1.1.17.2s.16.24.25.4l-.02.01c.06.05.1.1.16.14.2-.04.38-.05.54-.05.2 0 .3.01.38.03a3.02 3.02 0 0 0 .3.02c.12-.01.37-.04.54-.1-.1.03.07.04.07.06.43-.05.9-.08.7-.25h.16c0-.1.05-.03.1-.02-.1-.07-.18-.33-.22-.55l.05.12-.15-.63c-.04.04-.08.07-.12.1-.02-.3.16-.06.07-.37l-.12.02c-.04-.34.1-.52.12-.83-.2-1.2-.75-2.42-.77-3.57l.08-.07c.12-.05-.25-.27-.14-.33l-.08-.12c.02-.04.02-.12.07-.06-.02-.12-.04-.12-.1-.2l.05-.14c-.03-.48-.27-.85-.34-1.35.02-.28-.05-.66-.15-1.05a1.17 1.17 0 0 1-.05-.2c.05-.01.1-.01.16-.02l-.01-2.64.03-.2c-.02-.05-.03-.12-.04-.2v-.28c.01-.4.03-.8.07-1.2.01-.02.03.03.05.2.01.05 0 .15-.02.14l.07.08c.14-.48.07-.87.06-1.34l.1-.33a114.62 114.62 0 0 1 3.87.35v.01l-.93-.06.94.1.34 1.13c.44 1.07.08-.24.37.25.32.96.7 1.88.94 3.03l.03-.4c.65 1.8.95 2.9 1.18 4.17l1.57 3.9c.02.13.15.17.24.22.1.05.2.1.3.14l.56.26a7.53 7.53 0 0 0 .85.32c.9.27.94.1.54-.25-.2-.17-.47-.4-.78-.62-.16-.12-.32-.24-.47-.37l-.2-.17c-.03-.03-.02-.03-.03-.05-.02-.02 0-.06 0-.07-.01-.08-.07-.3-.1-.42l-.1-.44c-.65-2.73-1.27-4.75-2-6.9l-1.15-3.4c-.01-.04-.03-.08-.04-.12l1.63.16.47.05a5.61 5.61 0 0 0 .58 0c.76-.06 1.53-.37 2.1-.9-.5.36-1.1.56-1.67.6 1.13-.25 1.63-.8 1.9-1.1.27-.3.36-.43.44-.55.08-.1.18-.25.3-.57.1-.3.27-.8.55-1.7l-.2-.01c1.7-5.16 2.96-8.1 4.7-13.07l15.02-47.32c.2 1.36.38 2.84.47 4.15l-.05-.1c.35 2.33.6 4.98.77 6.14l-.05-.1.33 2.84-.1-.48c.55 4.07 1.02 8.28 1.4 12l.1-.32c.72 7.94 1.34 10.8 1.95 18l-.05-.1c.7 4.5 1.03 8.08 1.36 11.7l.55 5.57.17 1.48.1.76c.03.2.07.66.2 1a3.24 3.24 0 0 0 1.54 1.74 3.25 3.25 0 0 0 1.16.34c.2.02.4.02.6 0l.44-.04c-1.17.1.5.05.4.1l1.4-.08 1.16-.25c3.3-.2 6.2-.4 6.37-.6.2-.01.4-.03.58-.04 2.5-.1 2.04 0 2.42.08-.03-.12 2.7-.3 5.16-.44l-1.13.1 7.03-.4-1.05-.13c.1-.02.2-.03.32-.05-.18.04.08.04.07.06a14.17 14.17 0 0 0 .77-.08c1.42.02.13.22 3.03.03l-.06-.2 3.54-.1c.02 0 .05-.01.07-.01l.03.24.08.9.15 1.76.12 1.73c.01.13.01.26.02.4-.13.02-.27.05-.4.08-2.86.45-5.9 1-8.7 1.5-1.3.43-3.67.6-5.2 1.04l-.63-.02c-.53.15-1.16.3-1.7.32l.03-.04c-.8.22-1.7.32-2.1.43l.03-.04-.98.18.16-.08c-1.4.33-2.84.57-4.13.74l.13.13c-1.38.15-2.3.33-3.2.5l-.44.1c.01-.23.01-.4.01-.4.06-1.66-.05-2.78-.2-4.22-.13-.47-.3-.9-.55-.9-.34-.03-.43.57-.44 1.06.04.4.1.8.07 1.25l.08-.16c.1.83.1 1.33.04 1.9.1.75.2 1.34.3 1.8-.1.02-.2.04-.36.1-.66.2-1.32.62-1.85 1.36v-.06c-.27.5-.4 1.07-.4 1.6.02.38.03.7.03 1.06.01.67-.02 1.3-.03 1.94-.04 1.27-.06 2.56.2 4.18-.07-.4-.07.18-.1.15.12 1.5.25 3.1.54 3.1.07 1.1-.02.9-.12 1.05.12-.02.25.93.33 1.78l-.08-.4.26 2.44.2-.5c.05 1.3-.26.35-.1 1.58l.2-.03c.1 1.8-.1 2.86-.08 4.62l.07.73a25.59 25.59 0 0 0 .15 1.14l.04.26c0 .16 0 .3-.01.47l-.05 1.38c-.01.44-.04.86.05 1.44.18 1.1.83 2.1 1.8 2.7.48.3 1.03.48 1.58.54.6.05.93.01 1.38.01l2.52-.04c3.34-.05 6.63-.07 9.68.12l.27.15c.12.22 1.7-.3 1.92-.1l.7-.1c.2.04.62.08.27.13.66.01.67-.02 1.15-.08l.7.14c2.6.12 4.8-.13 7.52-.06 3.27.3 9.43.08 12.98-.05 5-.3 10.78.6 15.9.26.17.03.6-.03.6-.06l4.67.06h3.27l3-.03.77-.02c.26 0 .62-.01.93-.08a3.38 3.38 0 0 0 1.58-.83c.82-.76 1.1-1.7 1.1-2.26.01-.6-.13-.82-.24-.67-.14.14-.22.76-.87 1.53-.32.37-.82.75-1.46.9-.34.08-.63.05-1.08-.01l-1.5-.17.12-.05c-2.56-.13-4.17-.16-5.94.06-.27-.3-2.1-.04-2.7-.14l.06-.02c-1.57.2-3.2-.2-4.72-.01.06-.02.1-.1.44-.1-1.1.03-2.6.08-2.68-.08-2.62.03-6.28-.07-7.96.2l.12-.05c-.96.17-1.24.02-2.3.1-.06-.02-.13-.03-.12-.04-1.05.17-3.04.01-3.9.08l-.05-.1-2.08.01.78.03c-.27.3-1.57-.2-3.07-.01-1.4-.05-2.87.62-4.33.46-.7.14.62-.23-.43-.13-.03-.16.5-.1.22-.23-1.02.07-1.68-.17-2.94-.07l-.05-.12c-1.65.22-3.1-.18-4.2.03-1.7.1-1.13-.38-2.9-.14l-.7-.17c-.76-.03-.54.2-1.38.12.05-.1-1.06-.1-.57-.2-1.9-.18-3.86.2-6.36-.08-.54.2-1.8.07-2.2.23-.07-.1-2.52-.03-1.1-.22.12-.02.34-.01.32.02l.17-.12c-1.43-.24-2.6.1-4 .07.42.04.98.04.6.12l-1.3-.02.27-.1c-.38-.01-.53-.02-.73-.08a1.89 1.89 0 0 1-.54-.25l.08.2c-.26-.18-.36-.37-.47-.55-.1-.2-.2-.35-.4-.65-.2-.3.04.65-.22-.01-.07-.32-.01-.86.05-1.53.02-.17.03-.34.05-.5.02-.2.03-.3.04-.33l.04-.17c.05 0 .12.02.17.02-.02-.03 0-.04 0-.05h.36v.02c.08-.01.14-.01.2-.02h.7c.43.06.2.26 1.44.18l.3-.17c.04-.01.07-.01.1-.01h.97c.28.06.45.15 1.4-.01l1.4-.01c.1.01.25.02.46.02l-.46.15 1.1-.18h.5c1 .08 2.32-.02 2.7.14 0 0 2.14.1 2.63-.08-.43.1.75.17.4.3.56-.13 2.2-.22 2.85-.07l-.12.01c.7.05 1.33.05 1.94.04.1.03.27.02.5-.01 1.3-.04 2.5-.12 3.9 0-.04-.06.14-.08.35-.1l.4.07c2.85.13 5.27-.1 8.27-.02 3.6.3 10.38.12 14.3.01.87-.04 1.76-.06 2.66-.05l1.55.04c-.02.05-.03.1-.04.14.13.01.26.03.4.04 0 .05 0 .1.01.15-.08.1.28.03.6-.05s.63-.16.64-.06l.45-.1c.1.04.33.08.1.13.4.01.4-.02.68-.08l.24.14c.9.1 1.66-.14 2.6-.07 1.13.28 3.26.06 4.5-.08 1.73-.3 3.73.57 5.5.22.06.03.2-.04.2-.06l1.62.05s1.67.03 2.9-.1l.35-.04c.15.74.27 1.25.38 1.6.25.87.37.8.5.33.05-.24.07-.6.1-.97.01-.2.01-.4.02-.6l-.03-1.07c.22-1.33-.24-1.62-.7-1.68zm-94.15-.22c-.1.01-.08-.2-.06-.33v-.03l.25-.82c.02.02.03.06.04.15 0 .04-.02.12-.05.1l.1.1c.35-.42.1-.9.26-1.36-.05.08-.08.17-.1.2l.12-.4.03.05.23-.64-.1.04c.01-.04.03-.08.04-.13.14-.2.28-.3.2-.62 0-.01-.01-.02-.02-.03.05-.18.1-.36.16-.54.08-.26.14-.52.22-.8.04-.1.08-.2.1-.3-.01 0-.02 0-.03-.01l.18-.64c.1-.04.2-.04.2-.4l-.08-.08a19.8 19.8 0 0 0 .2-.73l.35-1.44.2-.94c.04.02.08.05.14.12-.1-.1-.17-.43.02-.16v.02c.14.13.2.1.3.1.06 0 .08-.02.2.02.16.06.3.14.46.25.03-.15.35.07.33-.13.77.14 1.1.9 1.6.52.32.13.3.3.45.4l-.1-.01c.6.25.76.35 1.18.6.24.07.4-.15.75.13-.17.02-.01.1.13.18-.1-.04-.14-.02 0 .15a.33.33 0 0 1 .14 0c0 .01 0 .02-.01.03.25.1.23.05.13-.02.01-.01.02-.03 0-.08.17.26.68.4.6.57.7.4 1.3.56 1.9.9.01.12-.17.1-.35.02l.42.24c-.08.1-.27-.1-.4-.15.35.5 1.1.5 1.5 1.06h.17l.02.04c.03-.05.2-.01.3.03 0 .15-.17.2.1.4.14.24.6.42.92.6-.13-.13-.04-.15.05-.13.13.1.13.25.26.3l-.1.13c.05-.16.43.16.5.16-.01.15-.26-.1-.34-.06l.74.65c.33.16.06-.15.27-.13.24.2.53.34.72.66l.02-.18c.47.36.7.64.83 1.05.9.68 1.34 1.2 1.64 1.46.03.03.05.04.08.06-.2.01-.33.04-.3 0-.1 0-.17-.01-.26-.01.02.06.06.13.07.2l.06.28c-.04.1-.07.24-.12.4a10.87 10.87 0 0 0-.74-.24l.04-.05c-.88-.12-1.44-.15-2.05.08-.1-.3-.73-.04-.93-.13l.02-.02c-.54.22-1.1-.2-1.63 0 .02-.02.03-.1.15-.1-.38.03-.9.1-.93-.08-.9.03-2.17-.06-2.75.2l.04-.05c-.33.18-.43.02-.8.1-.02-.02-.05-.03-.04-.04-.36.17-1.05.02-1.34.1l-.02-.1-.72.02.27.03c-.1.3-.54-.2-1.06 0-.5-.04-1 .63-1.5.47-.24.14.2-.23-.15-.12-.01-.16.17-.1.08-.23-.35.07-.58-.17-1.02-.07v-.12c-.57.22-1.07-.17-1.45.04-.3.05-.4-.05-.5-.12-.1-.08-.26-.13-.35-.01a.51.51 0 0 1-.03-.17c-.05-.03-.16.2-.22.12.08-.1-.05-.1.1-.18 0-.05-.03-.05-.1-.03 0-.06-.1-.24.14-.37zm-50.37-25.54c.02-.06.03-.1.04-.14l.12.12c-.06.01-.1.01-.16.02zm25.72-2.65c0 .01 0 .01-.01.02 0-.01 0-.01-.01-.02h.02zm.07 6.06v.23l-.07-.04.04.36.07-.06c0 .18-.12.27.03.44.08.08.07-.18.13-.01 0 .24-.01.6.03.9.08-.04.1.04.13.1h-.07c.16.28-.13.2-.04.23h-.05c.05 0 .1.01.16.03.18.12-.17-.05.08.13-.02-.04.2.08.16.14l-.1-.07c.02.03.04.06.05.08h-.02c-.03-.04-.12-.1-.13-.1-.02-.03-.05-.06-.08-.1.04.04.06.1.08.13-.1-.07-.14.03-.2-.07.1 0-.3-.03-.4.08.08-.07-.14-.1-.1-.17-.08.08-.1.14-.12.08l.01-.02h.01c.1 0-.35-.28-.48-.64-.06.07-.15-.13-.2-.03-.33-.27-.27-.75-.63-.67-.13-.14-.07-.23-.1-.32l.04.03c-.23-.27-.3-.35-.45-.57-.1-.1-.25-.01-.35-.22.1.02.03-.05-.02-.12.04.04.07.04.04-.08-.03 0-.05-.01-.07-.03-.1-.12-.1-.08-.06-.02-.01 0-.02.01-.02.04-.02-.17-.26-.34-.18-.42-.28-.34-.56-.53-.8-.8.02-.07.1-.03.2.05l-.17-.2c.07-.05.13.1.2.15-.08-.33-.48-.44-.6-.8l-.1-.02h0c-.03.02-.1-.02-.15-.06.03-.08.13-.1.02-.24-.03-.16-.27-.3-.4-.44.05.1 0 .1-.05.06-.06-.07-.03-.15-.1-.2l.07-.06c-.05.08-.22-.13-.27-.14.03-.08.13.08.2.06l-.33-.43c-.17-.1-.05.08-.17.06-.12-.13-.27-.22-.34-.4l-.03.1c-.24-.22-.35-.38-.4-.6l-.25-.2 2.84-.6 1.5-.34c.27-.06.55-.12.83-.17.1 0 .17 0 .06.05.03 0 .08-.01.12-.01l.02.08v-.07c.1-.03.07.03.04.1-.02.1-.04.24.05.36.03.26.48.44.45.72.1.1-.16-.08-.06.1-.1.03-.08-.08-.14-.01.08.18-.03.32.08.54l-.07.02c.2.27.02.58.2.76.12.3-.18.25.03.54l-.07.14c.01.14.14.07.12.24-.06 0-.01.2-.1.13-.03.36.28.67.2 1.16.14.07.12.32.22.37-.05.02.08.46-.08.23-.01-.02-.02-.06 0-.06l-.08-.02c-.08.3.17.45.2.72.01-.08-.02-.18.04-.12zm-.05-5.92c-.01-.02-.01-.05-.02-.08.02 0 .04-.01.06-.01-.01-.15-.01-.3-.01-.45v-.76c.05.25.05.77.07 1.28-.04.01-.08.01-.12.02zm75.7 0c-.01-.02-.01-.05-.02-.08.02 0 .04-.01.06-.01l-.04-1.35c.1.02.1.73.12 1.42-.04.01-.08.02-.12.02zm-.03-.12c-.04-.13-.07-.26-.1-.4-.01-.03-.01-.05-.02-.08.05-.1.1.1.15.47-.01 0-.01 0-.02.01zm-11.24-204.5v-.07l1.43-.04c-.2.02-.3.1-1.43.1l2.87-.03.8-.01c.1-.03.1.06.12.14 0 .08.01.15.01.23v1.04l-.02.98c-.02.56-.05.92-.1 1l-.17 7.02-.13 3.7-.07 1.85c-.01.22-.03.4-.07.56-.78.73-2.16 1.48-3.45 2.1l.2-18.57zm9.17 196.1c-.12.04-.23.04-.33.06l-.43.03-.74.05-1.04.05a6.69 6.69 0 0 1-1.03-.04c-.5-.05-1-.1-3.7.1l-.95.22c-4.9.5-2.66-.13-8.1.47 2.16-.13 1.03.22-1.63.3l.67-.15c-1.47.1-1.96.17-2.94.2.87-.1.45-.2-1.7-.07l1.44-.22-4.07.42c-1.58.01-3.62.12-5.42.2-.4.03-.8.05-1.2.07a1.22 1.22 0 0 1-.61-.19c-.34-.22-.46-.53-.47-.7-.01-.02-.04-.1-.1-.84l-.27-2.5c-.2-1.88-.47-3.95-.65-4.7.27 1.34-.1-2.38.15-1.33-.32-1.73-1-6.9-1.1-8.97l.06.4c-.7-7.66-1.65-13.05-2.24-19.93-.1.33-.43-3.3-.52-2.4-.97-7.08-1.07-12.97-1.92-15.48-.4-3.22-.3-3.84-.45-5.5l.12.77-.7-5.97 3.53-10.6.4-.8c.32-.3 1.42-5.43 1.8-6.13l.6-2.3c.22-.63.66-1.96.37-.82.62-2.1.6-2.16.97-3.7l.77-2.22c2.46-8.28 4.16-15.43 6.62-24.17 3.16-10.45 8.36-30.3 11.44-41.74 1.05-4.02 2.23-8.2 3.48-12.42l.96-3.2.5-1.6.12-.4a.53.53 0 0 1 .08-.15c.06-.1.17-.16.37-.27.77-.42 2.2-.58 3.2-1.85.48-.62.65-1.42.68-2.07v-.06c.07-.18.1-.32.12-.4.07-.72.12-2.78.17-5.2.15-3.2.28-6.4.3-9.58l-.01-.45c0-.15-.01-.3-.02-.46h.28l3.8.06.45.02v.43l.04 1.15a60.88 60.88 0 0 0 .14 2.38c-.03-.18-.1-.28-.16-1.38.16 3.47.4 8.22.24 8.48l1.1 25.18-.06-.36c.28 3.02.15 3.92.35 7.3-.02.2-.02.43-.03.4.28 3.3.32 9.63.47 12.3l-.1.18.2 6.57-.04-2.46c.32.84-.05 4.97.25 9.73.06 4.46.83 9.03.74 13.67.17 2.2-.26-1.94-.1 1.36-.16.1-.12-1.54-.24-.7.1 3.24-.1 5.32-.03 9.3l-.13.16c.17 5.2-.28 9.84-.1 13.32.04 5.38-.4 3.6-.24 9.2l-.2 2.18c-.06 2.4.2 1.72.07 4.38-.1-.16-.13 3.36-.2 1.8-.24 6.02.1 12.22-.3 20.15.2 1.72.01 5.7.15 7-.1.2-.1 8-.25 3.5-.01-.4 0-1.07.03-1.02l-.12-.54c-.3 4.52.03 8.22-.06 12.7.06-1.33.07-3.1.14-1.9l-.07 4.16-.1-.87-.14 6.2.14-.85c-.1 3.03-.33 4.1-.2 7.5.08 1.55.2-2.87.2.33l-.23 7.22-.15 5.08-.01.5c-.01.1-.01.23-.04.34-.07.44-.28.85-.58 1.2.34-.2-.26.73-1.32 1l-.14-.1zm-1.42 9l1.1-.24c.1-.01.2-.01.08.04.1-.01.17-.02.25-.02a6.13 6.13 0 0 0 .42-.07l.68-.13h.01 0c.02 0 .04-.01.06-.01 0 .02 0 .03-.01.05-.02.1-.04.24.05.36.03.26.48.44.45.72.1.1-.16-.08-.06.1-.1.03-.08-.08-.14-.01.08.18-.03.32.08.54l-.07.02c.2.27.02.58.2.76.12.3-.18.25.03.54l-.07.14c.01.14.14.07.12.24-.06 0-.01.2-.1.13-.03.36.28.67.2 1.16.14.07.12.32.22.37-.05.02.08.46-.08.23-.01-.02-.02-.06 0-.06l-.08-.02c-.08.3.17.45.2.72.01-.08-.02-.18.04-.12l-.02.23-.07-.04.04.36.07-.06c0 .18-.12.27.03.44.08.08.07-.18.13-.01 0 .24-.01.6.03.9.08-.04.1.04.13.1H270c.16.28-.13.2-.04.23h-.05c.05 0 .1.01.16.03.18.12-.17-.05.08.13-.02-.04.2.08.16.14l-.1-.07c.02.03.04.06.05.08-.05-.04-.14-.1-.15-.1-.02-.03-.05-.06-.08-.1.04.04.06.1.08.13-.1-.07-.14.03-.2-.07.1 0-.3-.03-.4.08.08-.07-.14-.1-.1-.17-.08.08-.1.14-.12.08l.01-.02h.01c.1 0-.35-.28-.48-.64-.06.07-.15-.13-.2-.03-.33-.27-.27-.75-.63-.67-.13-.14-.07-.23-.1-.32l.04.03c-.23-.27-.3-.35-.45-.57-.1-.1-.25-.01-.35-.22.1.02.03-.05-.02-.12.04.04.07.04.04-.08-.03 0-.05-.01-.07-.03-.1-.12-.1-.08-.06-.02-.01 0-.02.01-.02.04-.02-.17-.26-.34-.18-.42-.28-.34-.56-.53-.8-.8.02-.07.1-.03.2.05l-.17-.2c.07-.05.13.1.2.15-.08-.33-.48-.44-.6-.8l-.1-.02h0c-.03.02-.1-.02-.15-.06.03-.08.13-.1.02-.24-.03-.16-.27-.3-.4-.44.05.1 0 .1-.05.06-.06-.07-.03-.15-.1-.2l.07-.06c-.05.08-.22-.13-.27-.14.03-.08.13.08.2.06l-.33-.43c-.17-.1-.05.08-.17.06-.12-.13-.27-.22-.34-.4l-.03.1c-.24-.22-.35-.38-.4-.6l-.25-.2 2.84-.6zm45.93 27.78c-.1 0-.17-.01-.26-.01.02.06.06.13.07.2l.06.27c-.04.1-.07.24-.12.4a10.87 10.87 0 0 0-.74-.24l.04-.05c-.88-.12-1.44-.15-2.05.08-.1-.3-.73-.04-.93-.13l.02-.02c-.54.22-1.1-.2-1.63 0 .02-.02.03-.1.15-.1-.38.03-.9.1-.93-.08-.9.03-2.17-.06-2.75.2l.04-.05c-.33.18-.43.02-.8.1-.02-.02-.05-.03-.04-.04-.36.17-1.05.02-1.34.1l-.02-.1-.72.02.27.03c-.1.3-.54-.2-1.06 0-.5-.04-1 .63-1.5.47-.24.14.2-.23-.15-.12-.01-.16.17-.1.08-.23-.35.07-.58-.17-1.02-.07l-.02-.12c-.57.22-1.07-.17-1.45.04-.3.05-.4-.05-.5-.12-.1-.08-.26-.13-.35-.01a.51.51 0 0 1-.03-.17c-.05-.03-.16.2-.22.12.08-.1-.05-.1.1-.18 0-.05-.03-.05-.1-.03-.04-.02-.14-.2.1-.33-.1.01-.08-.2-.06-.33v-.03l.25-.82c.02.02.03.06.04.15 0 .04-.02.12-.05.1l.1.1c.35-.42.1-.9.26-1.36-.05.08-.08.17-.1.2l.12-.4.03.05.23-.64-.1.04c.01-.04.03-.08.04-.13.14-.2.28-.3.2-.62 0-.01-.01-.02-.02-.03.05-.18.1-.36.16-.54.08-.26.14-.52.22-.8.04-.1.08-.2.1-.3-.01 0-.02 0-.03-.01l.18-.64c.1-.04.2-.04.2-.4l-.08-.08a19.8 19.8 0 0 0 .2-.73l.35-1.44.2-.94c.04.02.08.05.14.12-.1-.1-.17-.43.02-.16h0c.14.13.2.1.3.1.06 0 .08-.02.2.02.16.06.3.14.46.25.03-.15.35.07.33-.13.77.14 1.1.9 1.6.52.32.13.3.3.45.4l-.1-.01c.6.25.76.35 1.18.6.24.07.4-.15.75.13-.17.02-.01.1.13.18-.1-.04-.14-.02 0 .15a.33.33 0 0 1 .14 0c0 .01 0 .02-.01.03.25.1.23.05.13-.02.01-.01.02-.03 0-.08.17.26.68.4.6.57.7.4 1.3.56 1.9.9.01.12-.17.1-.35.02l.42.24c-.08.1-.27-.1-.4-.15.35.5 1.1.5 1.5 1.06h.17l.02.04c.03-.05.2-.01.3.03 0 .15-.17.2.1.4.14.24.6.42.92.6-.13-.13-.04-.15.05-.13.13.1.13.25.26.3l-.1.13c.05-.16.43.16.5.16-.01.15-.26-.1-.34-.06l.74.65c.33.16.06-.15.27-.13.24.2.53.34.72.66l.02-.18c.47.36.7.64.83 1.05.9.68 1.34 1.2 1.64 1.46.03.03.05.04.08.06-.15-.02-.3.01-.25-.03z"/></svg>