<svg xmlns="http://www.w3.org/2000/svg" viewBox="0 0 480 480" xmlns:v="https://vecta.io/nano"><path d="M168.82 410.03c-.02 0-.05.07-.1.3l.1-.3zm73.02 2.73c-.02.01-.03.08-.04.32l.04-.32zm-66.7-81.22l-.06.4c.01-.03.01-.05.01-.07l.05-.34zm-3.6 116.8l-.1.01c.08 0 .1-.01.1-.01zm30.4.2l.13-.02h-.02zm47.18-.2l-.1.01c.08 0 .1-.01.1-.01zm61.85-3.75c0-.08-.03-.64-.07-1.28l-.03-2.32c-.2-2.1-3.8-3.8-6.6-5.2-8.3-4.1-26.8-15.7-26.8-15.7l-.6-1.4c-.5-1.1-1.6-1.7-2.7-1.6l-3.27.34-.2-11.2.7-.03c1.7-.1 3-1.4 3.1-3.1l2.5-72.7c.7-17.5-.4-24.4-.4-43.6-.1-16.1-5.2-65.4-6.8-80H259c26.9-.93-.3-1.28-.3-1.28-8.1-.15-14.26-.13-20.8-.05l-10.38.14-12.84.12c-.9 0-1.8 0-2.5-.01l.13 1.2-17.42-.13c-1.2 6.9-3.2 22-6 40.5l-11 76-14.4 79.3c-.3 1.8 1 3.4 2.7 3.5l3.85.27-3.08 13.78-3.37.35c-1.4.1-2.5 1.3-2.5 2.8l-.7 9.7c-.3 4-.2 8.8.3 11.9.3 1.8 1.9 2.7 3.7 2.7l66-.1c1.35 0 2.43-.57 2.78-1.65a2.57 2.57 0 0 0 .22-1.25c0-.08-.03-.64-.07-1.28.02-.77.03-1.56-.03-2.32-.2-2.1-3.8-3.8-6.6-5.2-8.3-4.1-26.8-15.7-26.8-15.7l-.6-1.4c-.5-1.1-1.6-1.7-2.7-1.6h-.13l1.97-8.72 1.56.1c1.5.1 2.8-.8 3.3-2.2l24.52-74.42 8.38 72.72c.2 1.8 1.8 3.1 3.6 3l2.46-.1-.03 12.9-1.04.1c-1.4.1-2.5 1.3-2.5 2.8l-.7 9.7c-.3 4-.2 8.8.3 11.9.3 1.8 1.9 2.7 3.7 2.7l66-.1c1.35 0 2.43-.57 2.78-1.65.15-.35.24-.76.2-1.25zm-31.44 3.95l.12-.02h-.02z" fill="#fff"/><path d="M187.45 262.1l-.04.03c.01.02.02.02.04-.03zm9.05 33.1h0v.2zm36.23 153c-.02.01-.03.02-.05.03-.05.05-.1.12-.15.17l.2-.2zm-32.83-23.7h0l.03.04zm110.4 23.7c-.02.01-.03.02-.05.03-.05.05-.1.12-.15.17l.2-.2zm-32.82-23.7h0l.02.04zm4.62 2.75h0l.03.04zm5.73 2.6h0l.03.04zm-77.73.26h0l.03.04zm-5.7-2.58h0l.03.04z"/><path d="M312.2 444.3c-.26.35-.28.16-.32-.1.01.53-.13.5-.2.13l-.03-.42.01-.32.1.25c-.01-.55-.06-.74-.03-1.1.06.33.18.2.16-.65l.15.56-.26-1.6c.01-.15-.04-.43-.08-.66-.07-.22-.15-.46-.26-.66-.22-.4-.5-.77-.77-1.05l-1.23-1.17s-.55-.43-1.2-.8c-.64-.38-1.36-.73-1.66-.78.5.14-.73-.56-.3-.5-.67-.2-2.43-.95-3.04-1.43l.14.05-6.5-3.57c.03.18-1.1-.56-.9-.24-2.4-1.17-4-2.77-5.1-2.77-1.06-.6-1.16-.85-1.68-1.2l.26.12-3.96-2.35c-.75-.4-1-.23-2.25-1.07.47.16-.06-.14-.54-.43.32.17.43.2-.16-.25-.1-.03-.25-.1-.4-.16 0-.01-.02-.03 0-.03-.82-.46-.7-.35-.33-.1-.03 0-.01.04.1.13-.76-.63-2.32-1.42-2.32-1.64l-.88-.52-.42-.25-.22-.12c-.04-.06-.06-.1-.1-.2l-.2-.4-.43-.84c-.38-.6-.93-1.07-1.57-1.32-.32-.13-.65-.2-1-.24s-.7.02-.97.06c-.14-.03-.07-.08.12-.14.15-.06.58-.13 1-.08a4.71 4.71 0 0 0-.53-.03l-.48.04-.83.1c0-.07.24-.1.54-.15l.48-.05c.2-.02.4-.02.58-.01-.16-.02-.32-.04-.5-.03h-.4l-.76.07-1.56.22-.43.07c-.03-.3-.05-.62-.04-.94-.1-.55.15.5.07-.34.1-.03.07.4.14.17-.06-.8.07-1.34-.01-2.34l.07-.04c-.16-1.3.06-2.47-.1-3.34-.1-1.35.2-.9.04-2.3l.1-.52a3.66 3.66 0 0 0 .84-.11c.4-.1.77-.24 1.12-.43.7-.4 1.28-1 1.62-1.73.17-.36.3-.74.37-1.13.07-.43.07-.74.08-1.05l.08-1.9.35-7.42.18-.85c.23-.36-.13-5.38.1-6.1l-.02-2.27c.06-.63.15-1.97.16-.84l.03-3.65.2-2.24c.4-8.25.37-15.28.72-23.97.32-5.2.58-12.73.8-20.36.3-7.65.25-15.43 0-21.1-.4-7.97-.6-16.55-.44-25.2-.04-8.73-.65-17.4-1.47-25.53a15.89 15.89 0 0 0-.1-1.15l-.07-.52c-.02-.13-.04-.22-.04-.2l-1.3-14.87-1-10.4-2.06-18.74c-.68-5.57-1.27-9.42-1.4-8.45-.14.97.18 6.75 1.1 20.46l-.08-.36c.7 8.13 1.16 13.25 1.92 18.83-.2.9.58 6.68.65 8.6l-.04-.18c.66 4.94.68 10.23 1.23 15-.04-.18-.12-.28-.2-1.38.3 3.48.68 8.24.52 8.5.3 4.18.5 9.1.48 13.74.05 4.64.2 8.9.4 11.57l-.06-.37c.27 3.05.15 3.95.35 7.35-.02.2-.02.43-.03.4.3 3.3.24 9.68.28 12.35l-.1.17-.12 6.6.1-2.46c.3.87-.35 4.97-.32 9.78-.2 4.5.32 9.13.01 13.8.07 2.23-.17-1.97-.17 1.36-.16.1-.05-1.56-.2-.7-.04 3.27-.35 5.34-.38 9.37l-.13.16c.05 5.26-.5 9.9-.4 13.4-.08 5.42-.5 3.6-.44 9.26l-.24 2.18c-.1 2.4.15 1.74-.03 4.4-.1-.17-.2 3.38-.25 1.8-.2 3.02-.23 6.1-.3 9.4l-.06 2.53-.02.65c-.01.2-.03.3-.06.47-.07.3-.2.6-.4.84a2.23 2.23 0 0 1-1.64.88l-2.88.06c-1.72.28-5.74.34-7.02.55-.22-.08-8.04.34-3.55-.05.4-.03 1.07-.06 1.03-.02l.53-.15c-4.56-.03-8.25.5-12.75.66 1.33-.02 3.1-.1 1.93.03l-4.18.17.86-.14-3.1.1-1.56.05c-.52.01-1.1.06-1.37.01.2.07.36.1.68.13-.1 0-.2 0-.28.01h-.2c-.13-.01-.24-.02-.36-.05-.23-.04-.42-.13-.6-.23-.35-.2-.62-.45-.8-.75a2.37 2.37 0 0 1-.4-1.03l-.32-2.15c-.28-1.53.16 2.9-.25-.3l-1.5-15.32c-.1.5-.24-.9-.44-2.32l.1-.18c-.8-5.47.04-2.04-.72-7.47l-.28-.94c-.8-4.9-.05-2.68-1-8.1.27 2.16-.16 1.05-.4-1.62l.2.66c-.2-1.47-.3-1.95-.4-2.93.17.87.23.44-.04-1.72l.32 1.43-.7-4.06c-.24-3.17-.97-8.15-.95-9.47 0 0-.7-6.8-1.06-8.33.27 1.35-.12-2.4.14-1.35-.32-1.7-1-6.6-1.13-8.8 0-.01.01-.03.01-.04l.03.22-.03-.25 1.47-4.26.42-.82c.33-.3 1.48-5.5 1.92-6.18l.66-2.3c.25-.63.73-1.96.4-.8.7-2.1.7-2.17 1.14-3.7l.86-2.23c2.77-8.3 4.67-15.5 7.38-24.3 3.45-10.5 9.07-30.56 12.26-42.12l2.87-10.2 2.9-9.78a18.82 18.82 0 0 0 2.06-1.67c.44-.3.87-.6 1.3-.96.55-.47 1.1-.96 1.6-1.67.13-.16.23-.4.33-.6.08-.22.16-.62.17-.75l.1-1.02c.23-2.72.42-5.46.4-8.2l-.02-1.03-.08-1.6-.06-.9v-.06c-.01-.01-.04 0-.05 0h-.33-.44l-1.63-.02-4-.03c-2.64-.01-5.25 0-7.8.03-.28-.02-.78-.01-1.22 0l-.56.02h-.23l-15.8-.15s-73.75-.63-21.5 1.44c-.38 1.38-.84 3.35-.84 3.35-1.5 6.25-1.95 9.55-3.45 17.04-1.42 6.57-1.95 8.28-3.32 15.1l-2.04 9.9c-.2 1.53-.88 4.18-1.15 5.98l-.22.68a16.57 16.57 0 0 1-.39 1.96l-.01-.04c-.14.93-.4 1.96-.46 2.42v-.04l-.23 1.12.01-.2a85.25 85.25 0 0 1-.96 4.72l.1-.1c-.75 3.1-.8 4.27-1.52 7.05v-.04c-.52 3.6-1.33 5.58-1.9 9.3.07-.46-.08.2-.1.14-.33 1.7-.7 3.5-.53 3.56-.26 1.23-.26 1-.36 1.14.07.01-.12 1.08-.32 2.04l.06-.45-.55 2.75.25-.5c-.35 1.45-.25.33-.5 1.74l.12.01c-.45 2-.87 3.16-1.36 5.1l-5.08 24.38-.16.3c-.16.12-.25 2.12-.43 2.38l-.13.9c-.07.24-.2.76-.14.3-.18.8-.16.83-.24 1.43l-.26.85c-.73 3.2-1.15 5.94-1.9 9.3-1 4-2.46 11.66-3.3 16.07-1.1 6.2-3.12 13.28-4.23 19.64a4.84 4.84 0 0 0-.12.74l-1.23 5.78s-5.94 28.02-.42 6.94v.15c.73-3.15 1.17-5.14 1.5-7.35.24-.3.56-2.6.77-3.33v.07c.28-1.96.94-3.95 1.22-5.84 0 .07.04.12-.05.55.26-1.36.62-3.22.74-3.3.65-3.24 1.65-7.75 1.93-9.86v.15c.14-1.2.3-1.53.53-2.87.03-.07.05-.16.06-.15.17-1.3.77-3.76.95-4.8l.08-.05.52-2.57-.22.96c-.1-.37.52-1.92.8-3.8.4-1.74.37-3.6.84-5.4.1-.88-.02.8.18-.5.1-.02-.07.6.08.3.22-1.27.53-2.06.8-3.63l.1-.05c.3-2.06.9-3.82 1.06-5.2.38-2.1.5-1.36.83-3.58l.28-.83c.2-.93.02-.7.3-1.72.05.08.33-1.3.26-.68.6-2.33.86-4.8 1.68-7.85.02-.7.42-2.24.43-2.76.07-.07.66-3.12.4-1.35-.02.15-.08.42-.1.4l.03.22c.5-1.73.6-3.22 1-4.96-.13.5-.27 1.2-.22.73l.35-1.62-.01.35.54-2.4-.14.32c.3-1.17.5-1.56.68-2.92.07-.62-.34 1.1-.1-.15l1.4-5.93c-.12.17-.01-.37.1-.93l.1-.05c.35-2.16.33-.75.7-2.9v-.4c.26-1.95.37-1 .62-3.17-.16.84-.24.36.01-.67l.02.28c.1-.58.12-.77.2-1.15-.03.35.06.2.23-.64l-.03.58.2-1.62c.33-1.22.65-3.2.86-3.67 0 0 .6-2.64.62-3.27-.04.55.3-.9.28-.48.07-.7.43-2.74.68-3.54l-.02.16c.7-2.98.96-5.15 1.63-7.82-.1.1.23-1.3.05-.98.48-2.8 1.3-5.03 1.16-6.1.25-1.27.4-1.5.55-2.14l-.05.3 1-4.83c.15-.9.03-1.06.4-2.63-.05.52.08-.12.2-.7-.07.38-.07.5.13-.27 0-.1.03-.28.05-.44.01-.01.02-.04.02-.02.2-1 .13-.82.03-.37 0-.03-.02.01-.07.15.3-1 .6-2.85.73-2.95.6-2.97.93-5.1 1.4-7.58.1-.27.04.32-.1 1.04l.35-1.75c.08.03-.17 1-.26 1.56.56-2.05.77-4.32 1.4-6.73l.04-.52.04-.14c-.03 0 .04-.56.1-.92.14-.33.15.06.4-1.15.27-.94.54-2.72.76-3.98-.15.67-.15.45-.1.15.12-.6.27-.94.33-1.4l.1-.04c-.14.22.24-1.6.25-1.83.14-.33-.14.95-.12 1.1l.75-3.64c.2-1.3-.14.22-.1-.42.22-1.14.4-2.27.72-3.57l-.17.4c.4-2.16.67-3.44 1.05-4.86l1.05-6.9 2.66.1-.4.04c8.64.18 14.08.24 20.05.05.94.3 7.1.08 9.12.2l-.2.02c4.9-.17 10.06.2 14.84.12v.07l-.16 15-1.67 6.03-1.16 4.52.06-.4c-.72 3.15-1.13 4.02-2.05 7.52-.08.18-.16.43-.16.38-.8 3.43-2.83 9.87-3.56 12.62l-.16.15-1.94 6.73.76-2.5c.04.96-1.67 5.03-2.92 9.96-1.38 4.55-2.12 9.43-3.67 14.12-.54 2.3.37-2.05-.53 1.35-.2.06.38-1.6-.01-.77-.92 3.33-1.78 5.38-2.9 9.5l-.17.13c-1.4 5.4-3.22 9.98-4.12 13.58-1.63 5.5-1.5 3.56-3.13 9.3l-.9 2.15c-.83 2.42-.38 1.8-1.35 4.47-.05-.2-1.2 3.37-.78 1.76-2.17 6.04-3.87 12.44-6.78 20.37-.38 1.8-1.83 5.8-2.12 7.16-.16.2-2.7 8.1-1.37 3.5.1-.4.34-1.08.36-1.02l.06-.58c-1.73 4.5-2.63 8.35-4.16 12.87.48-1.33 1.06-3.12.75-1.9l-1.4 4.2.2-.9-2.13 6.24.4-.82c-1.08 3.04-1.64 4.05-2.6 7.57-.42 1.6 1.12-2.85.1.4l-5.36 15.38c.3-.44-.17.96-.62 2.42l-.17.13c-.84 2.8-1.07 3.3-1.3 3.77-.12.24-.24.48-.43 1l-.36 1.04-.24.75c-.04.14-.1.3-.14.44-.05.16-.07.2-.12.33.03-.13.02-.18.05-.35-.03.36-.1.68-.3 1-.6.67-1.25.74-1.65.72-.56-.04-.96-.1-1.33-.16-.77-.1-1.62-.2-4.53-.25 2.3.14 1.06.35-1.76.1l.72-.07c-1.57-.1-2.1-.07-3.13-.17.94 0 .5-.14-1.8-.28l1.55-.04-4.36-.1c-3.35-.37-8.67-.58-10.04-.85 0 0-7.2-.6-8.88-.53.36 0 .4-.03.24-.06a4.21 4.21 0 0 1-.34-.06c-.16-.02-.28-.05-.37-.07-.4-.1-.73-.4-.4-.3-.25-.08-.62-.3-.87-.75a1.73 1.73 0 0 1-.22-.77c-.01-.16 0-.25.02-.46l.12-.7c.3-1.87.67-3.77.93-4.85l-.06.42c1.6-8.04 2.3-13.82 3.8-21.03-.2.3.57-3.5.22-2.6 1.18-7.52 2.85-13.6 2.78-16.4.6-3.4.86-4 1.2-5.77l-.12.82 2.32-12.98c.37-2.37.18-2.8 1-7.02-.15 1.4.15-.35.44-1.93-.17 1.02-.2 1.34.26-.73.02-.3.08-.75.14-1.18.01-.02.03-.1.04-.05.44-2.65.33-2.2.1-.97 0-.06-.04.04-.14.4.32-1.36.66-3.28.96-4.9.27-1.62.5-2.93.6-3.08 1.27-8 1.92-13.75 2.78-20.43.2-.74.06.83-.17 2.77l.62-4.74c.13.06-.3 2.73-.48 4.2 1-5.6 1.36-11.65 2.45-18.23l.08-1.38.07-.4c-.06.01.07-1.48.18-2.46.24-.92.26.1.7-3.17.47-2.57.97-7.35 1.4-10.74-.28 1.82-.26 1.22-.2.43.23-1.63.48-2.56.62-3.82l.14-.1c-.08-.24.5-4.37.54-4.93.25-.9-.28 2.55-.25 2.97l1.45-9.82c.4-3.5-.24.6-.13-1.08.44-3.1.77-6.1 1.4-9.64l-.3 1.1c.75-5.8 1.28-9.27 2-13.15 5.27-43.35-.2-9.35-.2-9.35-2.8 16.95-3.74 25.8-6.63 46.04l-5.88 40.94-4.32 26.67c-.53 4.1-2.03 11.22-2.73 16.05l-.46 1.84c-.24 1.66-.55 3.6-.92 5.26l-.02-.1c-.36 2.5-.92 5.26-1.1 6.5l-.02-.1-.53 3 .04-.52c-.7 4.32-1.5 8.76-2.24 12.67l.2-.3c-1.68 8.34-1.94 11.45-3.5 18.96v-.1c-.34 2.4-.7 4.54-1.06 6.56l-.14.75a4.64 4.64 0 0 0-.08.94c.01.65.2 1.3.5 1.85.6 1.13 1.85 1.9 3.12 2l3.2.28 1.3.16a184.94 184.94 0 0 0 8.29.48c-1.25-.04.53.1.42.14 4.6.28 9.5.6 9.6.33 3.35.24 2.72.28 3.15.42-.01-.13 2.9.03 5.5.2l-1.2-.04 1.3.08c-.04.2-.04.28-.07.55l-.2.52c-.5 1.96-.73 3.66-1.23 5.73-.04.12-.07.28-.1.4-.2.02-.4.03-.62.06-.5.06-1.03.14-1.56.22-1.06.17-2.16.34-3.33.36l-.47.16h-.14c.01.06-.5.18-.84.24-.34-.08 0-.27-1.15-.14-.92-.02-2.58.32-3.76.5.64-.05.44.04.17.1-.57.06-.92-.02-1.35.08l-.07-.15c.24.12-1.48.3-1.7.4-.34-.08.88-.2 1.02-.3l-3.45.38c-1.22.24.24.13-.34.32-1.08.14-2.13.36-3.38.4l.4.1c-2.03.32-3.25.43-4.64.43l-3.04.57 1.13-5.82.44-1.82c-.01-.6-.07-1.57-.42-1.6-.3-.04-.6.75-.76 1.36l-.26 1.54c.1-.4.1-.27.1-.1-.08.37-.2.57-.23.86l-.1.02c.12-.13-.12 1-.12 1.14-.12.2.07-.6.04-.7l-.5 2.24c-.1.8.12-.12.12.27-.14.7-.23 1.4-.46 2.2l.14-.24a28.85 28.85 0 0 1-.15.79c-8.53 1.76.98 1.1.98 1.1 6-.3 9.05-1.03 16.15-1.87 3.13-.3 5.12-.4 7.13-.55l3.18-.26 1.88-.2.52-.06c.12-.01.18-.01.28 0a1.3 1.3 0 0 1 .56.17c.17.1.32.25.44.42.03.04.06.1.08.13.02.05.04.06.08.17l.23.54.3.7.12.27c.03.1.08.18.18.22l.5.3.96.6a2.8 2.8 0 0 0-.16.2c.04.14-.14.13-.12.26l-.07-.03c0 .05 0 .08-.05.07l-.01-.02c.01.07-.05.07-.05.1l-.01-.02-.03.04-.01-.03c-.01.1-.07.14-.13.17l.06.06c-.17.02-.08.2-.25.2l-.01-.02c.04.28-.3.05-.26.32 0-.03-.04-.03-.05-.04-.04.07-.1.13.03.26-.04.03-.07-.01-.12-.05.05.06.04.1.01.14l-.01-.03-.07.1.1.1c-.08.01-.13-.12-.15-.05l.08.1c-.08.04-.24-.05-.36-.06-.3.2-.38.7-.77.76l-.07-.06c-.1-.1.06.2-.03.12v.07c-.02-.01-.06-.01-.06-.05-.03.02-.02.04-.01.08l-.08-.03c-.15.05-.13.24-.26.32-.24 0-.4.34-.48.53-.07.33-.65.16-.7.5-.02-.01-.01.04 0 .05l-.2.16s-.95.8.46.95l.01.02c.15-.04.23-.1.2-.26.13.12.1-.06.16-.04l.01.01c-.03-.16.2-.04.2-.18.01.01.04.05.03.06.03-.06.06-.14.14-.07.1-.12.27-.22.23-.4l.01.02c-.03-.12.04-.06.05-.14.01.01.02.01.02.01-.03-.12.1-.12.12-.2l.05.05.07-.1-.04.02c-.1-.15.14.03.12-.12.07-.03-.14-.4-.02-.38-.03-.1.07.13.07.04.07.07.02.06.08.1.01-.07.13.01.14-.08l.05.05c-.03-.16.2-.04.15-.18.03-.1.2.12.17-.05l.1.05c.04-.02-.06-.1.01-.1.04.05.08 0 .1.06.14 0 .06-.25.28-.2-.06-.1.04-.1-.01-.2.04.04.1-.1.13.05 0 .01-.01.02-.02 0l.04.06c.15.05.05-.15.13-.2-.03 0-.05.02-.07-.03l.06-.04.03.06.1-.05-.06-.05c.07-.01.17.08.14-.04-.02-.06-.1-.04-.08-.1.1-.01.22-.02.3-.06-.06-.06-.04-.07-.04-.1l.05.05c0-.14.14.1.15-.03l-.06-.1c-.04-.17.14.08.07-.13-.02.03-.12-.1-.07-.12l.04.06c.01-.03-.01-.06.02-.06.01.04.06.08.08.05l.04.08-.04-.15c.1.02.1-.1.18-.05 0 0 .12-.04.07-.14.03.07.1.04.14.12-.03-.08-.01-.2.08-.15v.01c.16-.03.1-.24.25-.24-.06-.06.02-.07-.07-.14.02-.16.32.02.12-.27.03-.05.1.01.14.01v.02a.57.57 0 0 1 .14-.16c.01-.05-.1-.17-.02-.2.03.06.04.03.06.02-.01.02.01.04.06.05-.01-.02-.01-.03-.01-.04l.01.01c.02-.05 0-.06-.02-.05-.01-.01-.02-.02-.03-.02.1.03.1-.1.17-.01.08-.1.07-.25.13-.36.05.03.06.1.05.12l.04-.07c.05.06 0 .06-.01.1.07.02.1-.03.1-.08l3.04 1.83c.16.07.34.16.52.25-.17.1-.3.1-.43.3-.1.1-.17.22-.25.33.05.13-.12.13-.1.25l-.07-.03c.01.04.01.08-.04.07l-.01-.02c.01.06-.04.07-.03.1v-.02l-.02.04-.02-.03c0 .1-.05.14-.1.16l.07.06c-.16.03-.06.18-.22.2v-.02c.07.26-.27.06-.22.32-.01-.03-.04-.03-.05-.04-.03.07-.07.13.05.25-.04.03-.07-.01-.12-.05.05.05.05.1.02.14l-.01-.03-.06.1.12.08c-.07.02-.14-.1-.15-.04l.1.08c-.07.04-.24-.04-.35-.04-.27.2-.3.67-.66.76l-.07-.05c-.1-.08.08.2-.02.12l.02.07c-.02-.01-.06-.01-.06-.04-.03.02-.01.04 0 .08l-.08-.03c-.14.05-.1.24-.22.32-.23.01-.34.34-.4.53-.04.32-.6.18-.63.52-.02-.01 0 .04.01.05l-.18.16s-.83.8.55.9l.02.02c.14-.05.2-.1.17-.26.14.1.1-.07.15-.05l.01.01c-.04-.15.2-.04.16-.18.01.01.04.05.03.06.02-.06.05-.14.12-.07.07-.1.23-.22.18-.4l.02.02c-.05-.1.03-.06.03-.13.01.01.02.01.02.01-.04-.1.1-.12.1-.2l.05.04.06-.1-.04.02c-.12-.14.14.02.1-.12.07-.04-.18-.37-.06-.36-.04-.08.08.12.07.03.07.06.03.06.1.1 0-.07.13.01.13-.1l.06.05c-.04-.15.18-.05.12-.18.01-.1.2.1.16-.06l.1.04c.04-.02-.07-.1-.01-.1.04.05.07 0 .1.06.14 0 .03-.24.24-.22-.07-.1.03-.1-.03-.18.04.03.1-.1.13.05 0 .01-.01.02-.02 0l.05.06c.15.04.04-.15.1-.2-.03 0-.05.02-.07-.02l.05-.04.04.05.1-.05-.06-.04c.06-.01.17.07.13-.05-.03-.06-.1-.04-.1-.1.08-.01.2-.03.28-.07-.07-.05-.05-.07-.05-.1l.06.05c-.01-.14.13.08.14-.03l-.07-.08c-.05-.16.14.08.06-.13-.01.03-.13-.1-.08-.1l.04.06c.01-.03-.01-.05.01-.06.02.04.07.08.1.04l.05.08-.05-.14c.1.02.08-.1.16-.05 0 0 .1-.04.05-.14.04.06.1.04.14.1-.04-.07-.03-.18.06-.15v.01c.15-.03.06-.23.2-.24-.07-.06.01-.07-.08-.13 0-.16.3 0 .1-.26.02-.05.1.01.13 0v.02c.05-.1.06-.1.12-.16 0-.05-.1-.16-.04-.18.03.06.04.03.06.01 0 .02.01.04.06.04-.01-.02-.02-.03-.02-.04l.01.01c.01-.04-.01-.05-.03-.05-.01-.01-.02-.01-.03-.02.1.03.08-.1.16-.02.07-.1.04-.25.08-.35.05.03.07.08.06.12l.03-.07c.06.06.01.06 0 .1.15.03.03-.22.18-.2l-.03-.06h.01a.18.18 0 0 1-.04-.09c.06.04.12.1.15.07.08.02.05-.1.06-.17-.03.01-.05-.02-.06-.05.02-.02.08.02.07-.02l.07.06c-.07-.05-.03-.1-.05-.15.06.04.02.07.05.1.04-.05.05-.06.06-.08 1.13.67 2.4 1.5 3.46 2l.5.44c.05.02.1.05.15.08-.01.01-.02.02-.02.03-.1.08-.15.2-.22.3.06.13-.1.12-.07.24l-.07-.03c.01.04.01.08-.03.07l-.01-.02c.02.06-.03.07-.02.1v-.02l-.02.04-.02-.03c0 .08-.04.13-.1.16l.07.05c-.15.02-.05.18-.2.18l-.01-.02c.08.25-.26.05-.2.3-.01-.03-.04-.02-.05-.04-.02.06-.06.12.07.24-.03.03-.07-.01-.12-.05.06.05.05.1.03.13l-.01-.03-.05.1.12.08c-.07.01-.14-.1-.15-.04l.1.08c-.07.04-.23-.04-.34-.05-.24.2-.24.64-.6.72l-.07-.05c-.1-.08.1.2-.01.1l.02.06c-.02-.01-.05-.01-.07-.04-.02.02-.01.03.01.08l-.08-.03c-.13.05-.08.23-.2.3-.22.01-.3.32-.35.5-.01.3-.58.16-.57.5-.02-.01 0 .04.01.05l-.16.15s-.75.76.6.87l.02.02c.13-.04.2-.1.14-.25.14.1.08-.06.14-.05l.01.01c-.05-.14.18-.04.14-.17.01.01.04.04.03.06.02-.05.04-.13.1-.07.06-.1.2-.2.14-.37l.02.02c-.05-.1.03-.05.02-.13.01.01.02.01.02.01-.05-.1.08-.12.08-.18l.05.04.05-.08-.03.02c-.13-.13.14.02.1-.1.06-.03-.2-.35-.08-.35-.04-.08.08.1.07.03.07.06.03.06.1.1 0-.07.13.01.12-.08l.06.05c-.05-.15.17-.04.1-.17.01-.1.2.1.15-.05l.1.04c.04-.02-.08-.1-.01-.1.05.04.07 0 .1.05.13 0 .02-.23.22-.2-.08-.1.02-.1-.04-.17.04.03.1-.08.13.04 0 .01 0 .02-.02 0l.05.05c.15.04.02-.14.08-.18-.03 0-.04.02-.07-.02l.05-.04.04.05.1-.04-.07-.04c.06-.01.17.07.12-.04-.03-.06-.1-.04-.1-.1.08-.01.2-.02.27-.07-.07-.05-.05-.07-.05-.1l.06.05c-.02-.13.13.08.13-.03l-.07-.08c-.06-.15.14.07.05-.12-.01.03-.13-.1-.08-.1l.05.06c0-.03-.01-.05.01-.05.02.04.07.08.1.04l.05.08-.06-.13c.1.02.07-.1.15-.05 0 0 .1-.04.04-.13.04.06.1.04.14.1-.04-.07-.04-.17.05-.14v.01c.14-.03.04-.22.2-.23-.07-.05 0-.06-.1-.13-.01-.15.3.01.07-.25.02-.05.1.01.13 0l.01.02c.04-.1.05-.1.1-.15 0-.05-.12-.16-.05-.18.03.06.04.03.06.01 0 .02.01.04.06.04-.01-.02-.02-.03-.02-.04.02-.03 0-.04-.02-.03-.01-.01-.02-.01-.03-.02.1.03.07-.08.15-.02.06-.1.03-.24.06-.33.05.03.07.08.07.1l.03-.06c.06.05.01.06.01.1.15.03.01-.2.16-.2l-.01-.02c.13.08.27.16.38.25l-.05.01c.8.37 1.63.93 2.03 1.1l-.05.01.93.53-.18-.05c1.37.7 2.74 1.5 3.93 2.22l-.03-.18c2.52 1.62 3.6 1.9 5.9 3.34l-.05.01c1.6.63 2.8 1.28 3.95 1.95 1.13.68 2.3 1.35 3.53 2.23-.3-.22.07.16.01.17.15.13.26.27.36.4-.2-.02-.3-.04-.45-.06-.34-.05-.7-.1-1.1-.13-6.57-.06-13.62.47-19.74.15l-.27-.15c-.12-.2-1.68.32-1.92.13l-.7.1c-.2-.04-.62-.08-.27-.13-.66-.01-.67.03-1.15.1l-.7-.13c-2.6-.1-4.8.17-7.53.13-3.28-.26-9.45.02-13 .18-5 .34-10.8-.5-15.93-.1-.17-.03-.6.04-.6.06l-4.68-.01-2.6.02-.1-1.2c.02-.2-.05-.7-.08-.7a65.61 65.61 0 0 1 .18-5.44s.43-5.72.57-9.86v-.07c-.04-.8.34-1.46.77-1.8.42-.37.84-.48.96-.6.14-.1-.03-.27-.67-.2-.32.04-.77.17-1.25.56-.46.4-.94 1.08-1.04 2.05v-.04l-.58 3.4-.04-.14c-.33 3-.5 4.9-.4 7.02-.32.32-.16 2.5-.25 3.22l-.02-.07c.13 1.27.01 2.6.03 3.87h-.02l.03.26c.01.52.05 1.02.15 1.52-.03-.07-.1-.1-.14-.52.1 1.32.42 3.1.3 3.25.16 1 .8 2.1 1.78 2.7.95.62 2.1.82 3.05.8l1.52-.03a35.52 35.52 0 0 0 1.94.12c5.1.3 7.72-.12 13.78-.25 5.33.05 6.74.32 12.27.2 2.56.01 5.3-.05 7.8-.1.1.02.1.03-.07.07 2.24.16 4.56-.24 7.5.03.6-.2 1.9-.1 2.47-.2.07-.01.14-.01.2-.01.42.06 2.8.01 1.25.2-.14.02-.4.01-.38-.02l-.2.12c1.7.23 3.06-.13 4.73-.1-.5-.04-1.15-.03-.7-.1l1.55.01-.32.1 2.3.06-.32-.13c1.13.06 1.53.28 2.8.1.58-.1-1.07-.17.12-.2l5.7.25c-.18-.14.34-.14.87-.17l.06.12c.5-.04.8-.05 1.02-.03.24.01.36.04.48.06s.24.06.5.02c.25-.03.65-.1 1.26-.44.14-.14.28-.3.4-.46.5-.45.7-.85.86-1.12s.23-.45.3-.63c.07-.2.14-.4.16-.72a2.91 2.91 0 0 0-.03-.51l-.08-.6c.01.53-.13.5-.2.13l-.03-.42c0-.1 0-.2.01-.32l.1.25c-.01-.55-.06-.74-.03-1.1.06.33.18.2.16-.65l.15.56a23.13 23.13 0 0 0-.26-1.6c.01-.15-.04-.43-.08-.66-.07-.22-.15-.46-.26-.66-.22-.4-.5-.77-.77-1.05-.55-.57-1.07-.95-1.23-1.17 0 0-.55-.43-1.2-.8-.64-.38-1.36-.73-1.66-.78.5.14-.73-.56-.3-.5-.67-.2-2.43-.95-3.04-1.43l.14.05c-2.44-1.44-4.37-2.15-6.5-3.57.03.18-1.1-.56-.9-.24-2.4-1.17-4-2.77-5.1-2.77-1.06-.6-1.16-.85-1.68-1.2l.26.12a90.06 90.06 0 0 1-3.96-2.35c-.75-.4-1-.23-2.25-1.07.47.16-.06-.14-.54-.43.32.17.43.2-.16-.25-.1-.03-.25-.1-.4-.16 0-.01-.02-.03 0-.03-.82-.46-.7-.35-.33-.1-.03 0-.01.04.1.13-.76-.63-2.32-1.42-2.32-1.64l-.88-.52c-.14-.08-.28-.16-.42-.25l-.22-.12c-.04-.06-.06-.1-.1-.2l-.2-.4c-.14-.28-.23-.5-.43-.84-.38-.6-.93-1.07-1.57-1.32-.32-.13-.65-.2-1-.24-.08-.01-.17 0-.25 0 .01-.06.02-.12.04-.18.12 0 .24 0 .36.01-.12-.02-.24-.02-.36-.02.01-.03.01-.05.02-.08h.1c-.03 0-.06 0-.1-.01.13-.48.3-.92.4-1.62l.08-.02c.15-1.28.63-2.34.7-3.2.23-1.3.4-.82.57-2.2l.05-.12 1.38.1c1.55.05 3.05-.96 3.65-2.34-.32.5-.74.93-1.23 1.23.88-.74 1.1-1.42 1.26-1.75a2.44 2.44 0 0 1 .27-.52c.13-.2.23-.4.8-2.2h-.2c1.77-5.2 3.06-8.18 4.87-13.2l17.8-54.32c.66 5.76.92 10.53 2 17.53-.18-1.16-.02.5-.06.42.54 4.3 1.1 8.93 1.38 8.96.36 3.15.2 2.57.14 3 .12-.03.5 2.7.78 5.15l-.18-1.13.85 7.04.07-1.4c.36 3.74-.18.98.3 4.55l.2-.07c.56 5.17.6 8.23 1.05 13.25l.9 7.86.23 1.98.12 1 .06.5a4.7 4.7 0 0 0 .13.63 4.4 4.4 0 0 0 3.72 3.15c.43.06.87.02 1.17.01l1-.05.54-.03c0 .1.5-.02.5.07l.7.16.2-.01 4.02-.2 8.02-.4 14.93-.72c-.02.16-.04.5-.07.2 0 .52.03.53.07.9l-.07.56c-.03 2.06.16 3.8.17 5.97-.03.6-.04 1.3-.03 2.06-.7.08-1.4.16-2.15.17l-.47.16h-.14c.01.06-.5.18-.84.24-.34-.08 0-.27-1.15-.14-.92-.02-2.58.32-3.76.5.64-.05.44.04.17.1-.57.06-.92-.02-1.35.08l-.07-.15c.24.12-1.48.3-1.7.4-.34-.08.88-.2 1.02-.3l-3.45.38c-1.22.24.24.13-.34.32-1.08.14-2.13.36-3.38.4l.4.1c-2.03.32-3.25.43-4.64.43-2.54.46-4.3.8-5.5 1.08l-.08-3.66.13-5.1c-.08-.47-.26-.85-.6-.88-.18-.02-.35.1-.5.3a11.44 11.44 0 0 1-.03.82l.06.33-.01.1c.03 0 .08.35.1.58-.07.22-.16-.02-.16.76-.07.6.03 1.74.06 2.55.01-.43.05-.3.08-.1 0 .4-.07.6-.04.9l-.1.04c.1-.15.1 1 .13 1.16-.07.22-.06-.6-.1-.7V420c.07.83.1-.15.17.25 0 .1.01.2.01.28-3.85 1.05 3.42.55 3.42.55 6-.3 9.05-1.03 16.15-1.87 3.13-.3 5.12-.4 7.13-.55l3.18-.26 1.88-.2.52-.06c.12-.01.18-.01.28 0a1.3 1.3 0 0 1 .56.17c.17.1.32.25.44.42.03.04.06.1.08.13.02.05.04.06.08.17l.23.54.3.7.12.27c.03.1.08.18.18.22l.5.3.96.6a2.8 2.8 0 0 0-.16.2c.04.14-.14.13-.12.26l-.07-.03c0 .05 0 .08-.05.07v-.02c.01.07-.05.07-.05.1l-.01-.02-.03.04v-.03c-.01.1-.07.14-.13.17l.06.06c-.17.02-.08.2-.25.2l-.01-.02c.04.28-.3.05-.26.32 0-.03-.04-.03-.05-.04-.04.07-.1.13.03.26-.04.03-.07-.01-.12-.05.05.06.04.1.01.14l-.01-.03-.07.1.1.1c-.08.01-.13-.12-.15-.05l.08.1c-.08.04-.24-.05-.36-.06-.3.2-.38.7-.77.76l-.07-.06c-.1-.1.06.2-.03.12v.07c-.02-.01-.06-.01-.06-.05-.03.02-.02.04-.01.08l-.08-.03c-.15.05-.13.24-.26.32-.24 0-.4.34-.48.53-.07.33-.65.16-.7.5-.02-.01-.01.04 0 .05l-.2.16s-.95.8.46.95l.01.02c.15-.04.23-.1.2-.26.13.12.1-.06.16-.04l.01.01c-.03-.16.2-.04.2-.18.01.01.04.05.03.06.03-.06.06-.14.14-.07.1-.12.27-.22.23-.4h.01c-.03-.12.04-.06.05-.14.01.01.02.01.02.01-.03-.12.1-.12.12-.2l.05.05.07-.1-.04.02c-.1-.15.14.03.12-.12.07-.03-.14-.4-.02-.38-.03-.1.07.13.07.04.07.07.02.06.08.1.01-.07.13.01.14-.08l.05.05c-.03-.16.2-.04.15-.18.03-.1.2.12.17-.05l.1.05c.04-.02-.06-.1.01-.1.04.05.08 0 .1.06.14 0 .06-.25.28-.2-.06-.1.04-.1-.01-.2.04.04.1-.1.13.05 0 .01-.01.02-.02 0l.04.06c.15.05.05-.15.13-.2-.03 0-.05.02-.07-.03l.06-.04.03.06.1-.05-.06-.05c.07-.01.17.08.14-.04-.02-.06-.1-.04-.08-.1.1-.01.22-.02.3-.06-.06-.06-.04-.07-.04-.1l.05.05c0-.14.14.1.15-.03l-.06-.1c-.04-.17.14.08.07-.13-.02.03-.12-.1-.07-.12l.04.06c.01-.03-.01-.06.02-.06.01.04.06.08.08.05l.04.08-.04-.15c.1.02.1-.1.18-.05 0 0 .12-.04.07-.14.03.07.1.04.14.12-.03-.08-.01-.2.08-.15v.01c.16-.03.1-.24.25-.24-.06-.06.02-.07-.07-.14.02-.16.32.02.12-.27.03-.05.1.01.14.01v.02a.57.57 0 0 1 .14-.16c.01-.05-.1-.17-.02-.2.03.06.04.03.06.02-.01.02.01.04.06.05-.01-.02-.01-.03-.01-.04l.01.01c.02-.05 0-.06-.02-.05-.01-.01-.02-.02-.03-.02.1.03.1-.1.17-.01.08-.1.07-.25.13-.36.05.03.06.1.05.12l.04-.07c.05.06 0 .06-.01.1.07.02.1-.03.1-.08l3.04 1.83c.16.07.34.16.52.25-.17.1-.3.1-.43.3-.1.1-.17.22-.25.33.05.13-.12.13-.1.25l-.07-.03c.01.04.01.08-.04.07h-.01c.01.06-.04.07-.03.1l-.01-.02v.04l-.02-.03c0 .1-.05.14-.1.16l.07.06c-.16.03-.06.18-.22.2v-.02c.07.26-.27.06-.22.32-.01-.03-.04-.03-.05-.04-.03.07-.07.13.05.25-.04.03-.07-.01-.12-.05.05.05.05.1.02.14l-.01-.03-.06.1.12.08c-.07.02-.14-.1-.15-.04l.1.08c-.07.04-.24-.04-.35-.04-.27.2-.3.67-.66.76l-.07-.05c-.1-.08.08.2-.02.12l.02.07c-.02-.01-.06-.01-.06-.04-.03.02-.01.04 0 .08l-.08-.03c-.14.05-.1.24-.22.32-.23.01-.34.34-.4.53-.04.32-.6.18-.63.52-.02-.01 0 .04.01.05l-.18.16s-.83.8.55.9l.02.02c.14-.05.2-.1.17-.26.14.1.1-.07.15-.05l.01.01c-.04-.15.2-.04.16-.18.01.01.04.05.03.06.02-.06.05-.14.12-.07.07-.1.23-.22.18-.4l.02.02c-.05-.1.03-.06.03-.13.01.01.02.01.02.01-.04-.1.1-.12.1-.2l.05.04.06-.1-.04.02c-.12-.14.14.02.1-.12.07-.04-.18-.37-.06-.36-.04-.08.08.12.07.03.07.06.03.06.1.1 0-.07.13.01.13-.1l.06.05c-.04-.15.18-.05.12-.18.01-.1.2.1.16-.06l.1.04c.04-.02-.07-.1-.01-.1.04.05.07 0 .1.06.14 0 .03-.24.24-.22-.07-.1.03-.1-.03-.18.04.03.1-.1.13.05 0 .01-.01.02-.02 0l.05.06c.15.04.04-.15.1-.2-.03 0-.05.02-.07-.02l.05-.04.04.05.1-.05-.06-.04c.06-.01.17.07.13-.05-.03-.06-.1-.04-.1-.1.08-.01.2-.03.28-.07-.07-.05-.05-.07-.05-.1l.06.05c-.01-.14.13.08.14-.03l-.07-.08c-.05-.16.14.08.06-.13-.01.03-.13-.1-.08-.1l.04.06c.01-.03-.01-.05.01-.06.02.04.07.08.1.04l.05.08-.05-.14c.1.02.08-.1.16-.05 0 0 .1-.04.05-.14.04.06.1.04.14.1-.04-.07-.03-.18.06-.15h0c.15-.03.06-.23.2-.24-.07-.06.01-.07-.08-.13 0-.16.3 0 .1-.26.02-.05.1.01.13 0v.02c.05-.1.06-.1.12-.16 0-.05-.1-.16-.04-.18.03.06.04.03.06.01 0 .02.01.04.06.04-.01-.02-.02-.03-.02-.04v.01c.01-.04-.01-.05-.03-.05-.01-.01-.02-.01-.03-.02.1.03.08-.1.16-.02.07-.1.04-.25.08-.35.05.03.07.08.06.12l.03-.07c.06.06.01.06 0 .1.15.03.03-.22.18-.2l-.03-.06h.01a.18.18 0 0 1-.04-.09c.06.04.12.1.15.07.08.02.05-.1.06-.17-.03.01-.05-.02-.06-.05.02-.02.08.02.07-.02l.07.06c-.07-.05-.03-.1-.05-.15.06.04.02.07.05.1.04-.05.05-.06.06-.08 1.13.67 2.4 1.5 3.46 2l.5.44c.05.02.1.05.15.08-.01.01-.02.02-.02.03-.1.08-.15.2-.22.3.06.13-.1.12-.07.24l-.07-.03c.01.04.01.08-.03.07l-.01-.02c.02.06-.03.07-.02.1l-.01-.02v.04l-.02-.03c0 .08-.04.13-.1.16l.07.05c-.15.02-.05.18-.2.18l-.01-.02c.08.25-.26.05-.2.3-.01-.03-.04-.02-.05-.04-.02.06-.06.12.07.24-.03.03-.07-.01-.12-.05.06.05.05.1.03.13l-.01-.03-.05.1.12.08c-.07.01-.14-.1-.15-.04l.1.08c-.07.04-.23-.04-.34-.05-.24.2-.24.64-.6.72l-.07-.05c-.1-.08.1.2-.01.1l.03.05c-.02-.01-.05-.01-.07-.04-.02.02-.01.03.01.08l-.08-.03c-.13.05-.08.23-.2.3-.22.01-.3.32-.35.5-.01.3-.58.16-.57.5-.02-.01 0 .04.01.05l-.16.15s-.75.76.6.87v.02c.13-.04.2-.1.14-.25.14.1.08-.06.14-.05h.01c-.05-.14.18-.04.14-.17.01.01.04.04.03.06.02-.05.04-.13.1-.07.06-.1.2-.2.14-.37l.02.02c-.05-.1.03-.05.02-.13.01.01.02.01.02.01-.05-.1.08-.12.08-.18l.05.04.05-.08-.03.02c-.13-.13.14.02.1-.1.06-.03-.2-.35-.08-.35-.04-.08.08.1.07.03.07.06.03.06.1.1 0-.07.13.01.12-.08l.06.05c-.05-.15.17-.04.1-.17.01-.1.2.1.15-.05l.1.04c.04-.02-.08-.1-.01-.1.05.04.07 0 .1.05.13 0 .02-.23.22-.2-.08-.1.02-.1-.04-.17.04.03.1-.08.13.04l.03.05c.15.04.02-.14.08-.18-.03 0-.04.02-.07-.02l.05-.04.04.05.1-.04-.07-.04c.06-.01.17.07.12-.04-.03-.06-.1-.04-.1-.1.08-.01.2-.02.27-.07-.07-.05-.05-.07-.05-.1l.06.05c-.02-.13.13.08.13-.03l-.07-.08c-.06-.15.14.07.05-.12-.01.03-.13-.1-.08-.1l.05.06c0-.03-.01-.05.01-.05.02.04.07.08.1.04l.05.08-.06-.13c.1.02.07-.1.15-.05 0 0 .1-.04.04-.13.04.06.1.04.14.1-.04-.07-.04-.17.05-.14v.01c.14-.03.04-.22.2-.23-.07-.05 0-.06-.1-.13-.01-.15.3.01.07-.25.02-.05.1.01.13 0l.01.02c.04-.1.05-.1.1-.15 0-.05-.12-.16-.05-.18.03.06.04.03.06.01 0 .02.01.04.06.04-.01-.02-.02-.03-.02-.04.02-.03 0-.04-.02-.03-.01-.01-.02-.01-.03-.02.1.03.07-.08.15-.02.06-.1.03-.24.06-.33.05.03.07.08.07.1l.03-.06c.06.05.01.06.01.1.15.03.01-.2.16-.2l-.01-.02c.13.08.27.16.38.25l-.05.01c.8.37 1.63.93 2.03 1.1h-.05l.93.53-.18-.05c1.37.7 2.74 1.5 3.93 2.22l-.03-.18c2.52 1.62 3.6 1.9 5.9 3.34l-.05.01c1.6.63 2.8 1.28 3.95 1.95 1.13.68 2.3 1.35 3.53 2.23-.3-.22.07.16.01.17.15.13.26.27.36.4-.2-.02-.3-.04-.45-.06-.34-.05-.7-.1-1.1-.13-6.57-.06-13.62.47-19.74.15l-.27-.15c-.12-.2-1.68.32-1.92.13l-.7.1c-.2-.04-.62-.08-.27-.13-.66-.01-.67.03-1.15.1l-.7-.13c-2.6-.1-4.8.17-7.53.13-3.28-.26-9.45.02-13 .18-5 .34-10.8-.5-15.93-.1-.17-.03-.6.04-.6.06l-4.68-.01-2.6.02-.1-1.2c.02-.2-.05-.7-.08-.7a65.61 65.61 0 0 1 .18-5.44s.43-5.72.57-9.86v-.07c-.04-.8.34-1.46.77-1.8.42-.37.84-.48.96-.6.14-.1-.03-.27-.67-.2-.32.04-.77.17-1.25.56-.46.4-.94 1.08-1.04 2.05v-.04l-.58 3.4-.04-.14c-.33 3-.5 4.9-.4 7.02-.32.32-.16 2.5-.25 3.22l-.02-.07c.13 1.27.01 2.6.03 3.87h-.02l.03.26c.01.52.05 1.02.15 1.52-.03-.07-.1-.1-.14-.52.1 1.32.42 3.1.3 3.25.16 1 .8 2.1 1.78 2.7.95.62 2.1.82 3.05.8l1.52-.03a35.52 35.52 0 0 0 1.94.12c5.1.3 7.72-.12 13.78-.25 5.33.05 6.74.32 12.27.2 2.56.01 5.3-.05 7.8-.1.1.02.1.03-.07.07 2.24.16 4.56-.24 7.5.03.6-.2 1.9-.1 2.47-.2.07-.01.14-.01.2-.01.42.06 2.8.01 1.25.2-.14.02-.4.01-.38-.02l-.2.12c1.7.23 3.06-.13 4.73-.1-.5-.04-1.15-.03-.7-.1h1.55l-.32.1 2.3.06-.32-.13c1.13.06 1.53.28 2.8.1.58-.1-1.07-.17.12-.2l5.7.25c-.18-.14.34-.14.87-.17l.06.12c.5-.04.8-.05 1.02-.03.24.01.36.04.48.06s.24.06.5.02c.25-.03.65-.1 1.26-.44.14-.14.28-.3.4-.46.5-.45.7-.85.86-1.12s.23-.45.3-.63c.07-.2.14-.4.16-.72a2.91 2.91 0 0 0-.03-.51zm-50.83-236.05h3.6c.07.01.16-.01.2.01 0 .07.01.14.01.2a8.86 8.86 0 0 0 .01.54c0 .56-.02.92-.06 1 .05 2.4-.08 5.1-.28 7.86l-.08 1.03c-.01.23-.04.22-.04.28-.03.05-.06.12-.1.18-.03.05-.05.1-.08.14-.27.4-.7.84-1.17 1.23-.5.42-1.02.8-1.56 1.18l-.63.42.17-14.06zM196.02 416.5l-.52.06c0-.07.24-.1.54-.15-.01.03-.01.06-.02.1zm36.23 25.7l-.12.13c.1.1.03.2-.04.22-.07.06-.13.3-.02 1.1l-.1-.15.3.44c.17.78.1.93.04 1.06-.1.14-.08.25-.2.68.1-.14.17-.15.2-.06s-.04.28-.28.43l.03-.18c-.2.2-.3.28-.5.33.15-.14.05-.17-.4-.05.1-.07.2-.15.27-.22-.25.15-.54.26-.93.34-1-.13-2.58.04-3-.13 0 0-2.14-.08-2.64.1.43-.12-.75-.16-.42-.3-.56.13-2.2.24-2.85.1l.12-.02c-2.43-.13-4.15.2-6.34.04.1.14-1.05.07-.77.25-2.26.2-4.1-.36-4.93.2-1.03.03-1.22-.13-1.75-.16l.24-.03-3.9.05c-.42.03-.64.14-1 .2-.16-.01-.33-.01-.5-.02l-.32-.15c-.06-.1-.46-.04-.9.03-.05-.01-.12-.01-.2-.02-.1.03-.22.05-.35.07-.01-.01-.03-.01-.02-.03-.8.04-.66.07-.3.1-.08.02-.16.02-.23.02-.04 0-.1 0-.14-.01s-.1-.01-.13-.03l-.18.02c-.4-.01-.82 0-1.13-.02.01-.01.06-.02.16-.03h-.48c-.07-.01-.13-.03-.15-.06-.5.01-.95.03-1.4.05l-.17-.03c-1.76-.06-3.36.01-5.02.06.24-.05.8-.02 1.13-.04-1.7-.2-3.47.23-5.45.03l-.12.03a52.4 52.4 0 0 0-2.33-.07 8.1 8.1 0 0 0-.71-.01c-3.85-.02-8.62.15-11.72.26-1.47.08-3 .1-4.58.06l-2.37-.06-1.2-.04c-.37-.02-.68-.06-1-.15-.62-.17-1.14-.5-1.43-.94a2.1 2.1 0 0 1-.31-.72l-.04-.2-.04-.28-.07-.57a39 39 0 0 1-.14-1.52c.14.06.23.06.3.06l.7-.02c.64-.03 1.24-.08 1.86-.17.28.3 2.1.02 2.7.1l-.06.02c1.56-.23 3.22.17 4.73-.03-.06.02-.1.1-.44.1 1.1-.04 2.6-.1 2.68.06 2.62-.05 6.28.01 7.96-.27l-.1.05c.96-.18 1.24-.03 2.3-.13.06.02.13.03.12.04 1.04-.18 3.04-.04 3.9-.12l.06.1 2.08-.03-.78-.02c.27-.3 1.57.2 3.08-.02 1.4.03 2.86-.65 4.32-.5.7-.15-.6.24.43.12.03.16-.5.1-.22.23 1.02-.08 1.68.16 2.95.04l.05.12c1.65-.23 3.1.15 4.2-.07 1.7-.1 1.14.36 2.9.1l.7.17c.76.02.54-.2 1.38-.13-.05.1 1.06.08.57.18 1.9.16 3.86-.25 6.36.02.54-.2 1.8-.1 2.2-.25.07.1 2.53 0 1.1.2-.12.02-.34.01-.32-.02l-.17.12c1.43.22 2.6-.14 4-.1-.42-.04-.98-.03-.6-.1h1.3l-.27.1 1.96.05-.27-.13c.96.06 1.3.28 2.37.1.5-.1-.9-.17.1-.2l2.28.14 1.28.06c.22.01.43.02.64.02.07 0 .1.01.1.01h.02l.05.01c.02-.14.12-.14.27-.17zm77.65 3.45c.03.1-.04.28-.28.43l.03-.18c-.2.2-.3.28-.5.33.15-.14.05-.17-.4-.05.1-.07.2-.15.27-.22-.25.15-.54.26-.93.34-1-.13-2.58.04-3-.13 0 0-2.14-.08-2.64.1.43-.12-.75-.16-.42-.3-.56.13-2.2.24-2.85.1l.12-.02c-2.43-.13-4.15.2-6.34.04.1.14-1.05.07-.77.25-2.26.2-4.1-.36-4.93.2-1.03.03-1.22-.13-1.75-.16l.24-.03-3.9.05c-.42.03-.64.14-1 .2-.16-.01-.33-.01-.5-.02l-.32-.15c-.06-.1-.46-.04-.9.03-.05-.01-.12-.01-.2-.02-.1.03-.22.05-.35.07-.01-.01-.03-.01-.02-.03-.8.04-.66.07-.3.1-.08.02-.16.02-.23.02-.04 0-.1 0-.14-.01s-.1-.01-.13-.03l-.18.02c-.4-.01-.82 0-1.13-.02.01-.01.06-.02.16-.03h-.48c-.07-.01-.13-.03-.15-.06-.5.01-.95.03-1.4.05l-.17-.03c-1.76-.06-3.36.01-5.02.06.24-.05.8-.02 1.13-.04-1.7-.2-3.47.23-5.45.03l-.12.03a52.4 52.4 0 0 0-2.33-.07c-.2-.01-.45-.02-.7-.01-3.85-.02-8.62.15-11.72.26-1.47.08-3 .1-4.58.06l-2.37-.06-1.2-.04c-.37-.02-.68-.06-1-.15-.62-.17-1.14-.5-1.43-.94a2.1 2.1 0 0 1-.31-.72l-.04-.2-.04-.28-.07-.57a39 39 0 0 1-.14-1.52c.1 0 .18.01.27.01l.7-.02c.64-.03 1.24-.08 1.86-.17.28.3 2.1.02 2.7.1l-.06.02c1.56-.23 3.22.17 4.73-.03-.06.02-.1.1-.44.1 1.1-.04 2.6-.1 2.68.06 2.62-.05 6.28.01 7.96-.27l-.1.05c.96-.18 1.24-.03 2.3-.13.06.02.13.03.12.04 1.04-.18 3.04-.04 3.9-.12l.06.1 2.08-.03-.78-.02c.27-.3 1.57.2 3.08-.02 1.4.03 2.86-.65 4.32-.5.7-.15-.6.24.43.12.03.16-.5.1-.22.23 1.02-.08 1.68.16 2.95.04l.05.12c1.65-.23 3.1.15 4.2-.07 1.7-.1 1.14.36 2.9.1l.7.17c.76.02.54-.2 1.38-.13-.05.1 1.06.08.57.18 1.9.16 3.86-.25 6.36.02.54-.2 1.8-.1 2.2-.25.07.1 2.53 0 1.1.2-.12.02-.34.01-.32-.02l-.17.12c1.43.22 2.6-.14 4-.1-.42-.04-.98-.03-.6-.1l1.3.01-.27.1 1.96.05-.27-.13c.96.06 1.3.28 2.37.1.5-.1-.9-.17.1-.2l2.28.14 1.28.06c.22.01.43.02.64.02.07 0 .1.01.1.01h.02l.05.01c.02-.14.12-.14.27-.17l-.12.13c.1.1.03.2-.04.22-.07.06-.13.3-.02 1.1l-.1-.15.3.44c.22.84.16 1 .08 1.1-.1.14-.08.25-.2.68.1-.14.17-.15.2-.06z"/></svg>