<svg xmlns="http://www.w3.org/2000/svg" viewBox="0 0 480 480" xmlns:v="https://vecta.io/nano"><path d="M188.4 379.93v.22-.22zm-1.73-88.47v.23-.23zM227 448.12l.13-.02h-.02l-.1.02zm-6.44.02l.1-.02h-.02zm83.1-.02l.13-.02-.13.02zm23.5-5.92h-.04c-.2-2.2-.7-4.76-1.66-6.7-1.8-3.6-25.5-13.3-32.3-16-.32-.13-.66-.18-1-.17-.8-1.75-1.45-3.73-1.6-5.68l-5.1-90.5.18-6.47 2.32-.43a5.03 5.03 0 0 0 3.74-3.66c.2-.68.27-1.4.15-2.14-1.9-11.8-7.48-41.95-12.88-62.65l-8.8-40.67h-10.8c.02-.16.05-.33.07-.48h-66.1l-6.54 101.67-.2-.01-.47 7.54c0 2.5 2.25 4.4 4.65 4.5l2 .12c-1.9 7.8-3.58 17.45-3.54 27.07l-.2 49.1c-.24 8.45-1.02 24.1-1.32 29.86-.3-.14-.55-.27-.78-.4-.7-.4-1.6-.1-1.8.7-.7 2.3-1.8 7.32-1.08 15h-.02c.1 1.1.2 2.2.4 3.5.2.9 1.1 1.7 2.1 1.7l62.1-.2c1.1 0 1.9-.9 1.9-2 0-.7 0-1.7-.1-2.6h-.04c-.2-2.2-.7-4.76-1.66-6.7-1.8-3.6-25.5-13.3-32.3-16-.08-.03-.16-.05-.24-.08-.03-.9 0-1.8.14-2.68l15.2-89.2 1.15-4.47 4.84.32a3.9 3.9 0 0 0 3.18 1.48c.02.05.03.08.03.08l5.73-1.07c-.25 8.43.13 19.17 2.47 29.36l10.7 47.8 4.9 25.2 1.68.95c-1.14-.34-2-.74-2.6-1.1-.7-.4-1.6-.1-1.8.7-.7 2.3-1.8 7.32-1.08 15h-.02c.1 1.1.2 2.2.4 3.5.2.9 1.1 1.7 2.1 1.7l62.1-.2c1.1 0 1.9-.9 1.9-2 .01-.7.01-1.7-.1-2.6zm-29.92 5.94l.1-.02h-.02z" fill="#fff"/><path d="M191.72 244.2h-.04c.02.02.03.02.04-.02zm60.18 53.7h.06zm-26.92 129.62h0l.04.03zm-32.9 5.36h0l.05-.03zm76.67 0h0l.05-.03zm27.83-7.36h0l.04.03zm-77.6-197.64h0l-.01-.07zm82.7 199.72h0l.04.03zm-103.7-7.92h0l.02-.05zm75.94-.18h0l.02-.05zm-54 5.98h0l.04.03z"/><path d="M327.9 440.73c.1.4.05-.2.1-.16-.24-1.5-.72-3.1-1-3.04-.32-1.07-.2-.9-.14-1.07-.06.02-.18-.2-.34-.5-.18-.33-.32-.7-.68-1.2l.32.4c-.6-.96-1.3-1.4-1.96-1.9l.25.5c-1.02-.84-.1-.45-1.17-1.1l-.1.17-3.7-2.7c-6.3-3.4-13.52-5.95-19.47-8.82l-.2-.25c-.04-.25-1.8-.4-1.96-.68l-.75-.2c-.2-.12-.6-.33-.22-.23-.66-.28-.68-.25-1.18-.38l-.66-.4-.95-.4-.47-.2c-.2-.07-.44-.16-.66-.2-.18-.03-.35-.04-.53-.04-.55-1.32-.98-2.7-1.15-4.1-.3-3.36-.5-6.86-.75-10.27l-1.2-19.82.05-.56c.1-.25-.4-3.43-.3-3.92l-.15-1.45c0-.4-.03-1.27.04-.55-.08-1.34-.1-1.38-.2-2.34l-.01-1.45-.97-15.38c-.23-6.7-1.1-19.32-1.5-26.58-.14-2.27-.25-4.62-.3-7.02-.01-1.18.02-2.4.08-3.62l.15-3.68c.9-.12 1.52-.24 2.2-.42.85-.27 1.6-.62 2.55-1.34v.05c1-1.15 1.54-2.2 1.86-3.37.14-.6.2-1.2.12-1.86-.03-.16-.06-.32-.08-.48a8.38 8.38 0 0 0-.1-.42 14.05 14.05 0 0 0-.26-.89c.1.3.05-.15.1-.13-.18-.78-.36-1.6-.54-2.04-1.54-8.66-2.74-18.33-4.78-26.8-.03-.32-.26-1.12-.3-1.1l-1.8-8.85-1.36-6.18c-.8-3.5-1.84-7.8-2.76-11.1-.9-3.28-1.66-5.52-1.75-4.9-.1.62.5 4.08 1.95 12.27l-.1-.2c1 4.84 1.63 7.87 2.56 11.15-.17.6.8 3.97.95 5.13l-.05-.1c.83 2.9 1.06 6.1 1.8 8.92-.04-.1-.13-.15-.27-.8.45 2.07 1.06 4.9.92 5.08l2.6 13.28c-.13.02-.3.05-.58.1l.04.2c-1.48.24-2.3.1-3.7.2-5.67.97-11.65 2.6-16.97 3.23l-.26-.1c-.14-.2-1.4.58-1.63.42l-.6.2c-.18-.01-.55.02-.25-.08-.57.1-.57.13-.97.27l-.63-.02c-2.25.3-4.1.92-6.46 1.3-2.8.25-7.86 1.43-10.92 2.15l2.38-17.5c.02.05.02.1.04.15.07.33.2.68.3 1 .16.12.1.42.26.58l-.05.1c.05.05.1.12.07.2h-.02c.08.08.07.2.1.23h-.02l.04.1-.03-.01a.96.96 0 0 1 .15.47l.08-.03c-.02.34.2.4.15.73h-.02c.3.3-.01.6.3.93-.04-.04-.04.03-.06.03.07.17.13.35.3.3.03.13-.03.1-.1.15.07-.02.13.08.16.18l-.04-.04.1.27.12-.1c0 .16-.16.08-.1.2l.1-.03c.03.2-.1.37-.15.6.16.84.67 1.65.66 2.47l-.08.06c-.12.05.24.17.13.22l.08.07c-.02.03-.03.1-.07.05.02.08.04.08.1.13l-.06.1c.02.34.24.58.3.93-.06.45.28 1.2.48 1.6.34.58.03 1.43.4 2.02-.01.03.04.07.05.07l.13.6s.66 2.86 1.16.44l.03.01c-.01-.34-.05-.54-.24-.73.16-.08-.05-.27-.01-.36h.02c-.18-.16.01-.43-.16-.6.02 0 .06 0 .08.04-.06-.13-.14-.3-.04-.35-.1-.32-.18-.8-.4-.97l.03.01c-.14-.1-.05-.15-.14-.27l.02-.02c-.14-.1-.1-.38-.18-.47l.06-.02-.08-.26.01.1c-.2.01.06-.23-.1-.4-.02-.18-.46-.27-.42-.47-.1-.07.15.04.06-.07.1-.03.07.05.14-.01-.08-.12.04-.23-.06-.38l.07-.02c-.18-.17 0-.4-.16-.52-.1-.2.18-.2-.02-.38l.08-.1c-.01-.1-.14-.04-.12-.16.06-.01.02-.15.1-.1.04-.26-.26-.45-.17-.8-.14-.04-.1-.2-.2-.24.05-.02-.07-.32.1-.17.01.01.02.04 0 .04h.08c.1-.2-.16-.3-.18-.5-.01.06.01.13-.05.1l-.03-.17h.07l-.03-.25-.07.05c.01-.13.12-.2-.02-.3-.07-.05-.07.14-.13.02.01-.17.03-.43 0-.64-.08.04-.1-.02-.12-.07h.07c-.16-.2.14-.12.01-.32l-.1-.01c-.2-.16.12-.14-.13-.3.03.08-.15.08-.14-.03l.08.01c-.03-.05-.06-.07-.06-.1.05.03.1-.01.07-.1l.1.04-.17-.13c.04-.14-.1-.32-.01-.4 0 0-.02-.28-.14-.32.08.04.07-.12.16-.1-.1-.05-.2-.24-.15-.34h.01c.01-.33-.24-.5-.2-.8-.08.03-.07-.12-.17-.06-.18-.26.1-.57-.27-.6-.05-.12.04-.17.04-.24l.03.03c-.1-.23-.1-.3-.15-.48-.05-.08-.2-.06-.22-.23.07.04.05-.03.03-.1.02.04.04.04.07-.05-.02-.01-.04-.02-.05-.03l.01-.01c-.05-.1-.06-.07-.06-.02-.01 0-.02.01-.03.03.05-.12-.08-.3.02-.33-.1-.3-.26-.48-.37-.72.05-.04.1 0 .15.07l-.06-.17c.08-.02.07.1.1.14.07-.24-.23-.4-.18-.68l-.07-.04.01-.02c-.03.01-.1-.04-.1-.07.06-.05.16-.04.12-.16.04-.1-.1-.27-.17-.4.01.07-.04.06-.07.04-.02-.06.04-.1 0-.15l.1-.03c-.08.05-.13-.14-.18-.15.06-.05.08.08.14.08-.07-.24-.04-.12-.1-.37-.1-.1-.08.05-.18 0-.05-.1-.14-.2-.12-.36l-.07.06c0-.01 0-.01-.01-.02l2.2-17.08.22-.6c.24-.24.14-3.84.4-4.34l.1-1.6c.1-.45.25-1.4.2-.6.2-1.48.16-1.52.23-2.6l.33-1.57c.83-5.83 1.2-10.83 2.07-16.97 1.23-7.35 2.87-21.26 3.86-29.28.16-1.45.35-2.92.56-4.42l.5-3.35 1.9-.05c1.74-.06 3.56-.1 5.46-.02l.8-.1.23.02c-.01-.03.2-.06.5-.1.27-.03.4-.05.62-.06.12.07.1.1.08.2-.02.06-.02.14-.02.24 0 .05.01.1.02.2.02.13.05.28.08.46.16 1.5.9 4.16 1.36 6.06-.2-1.03-.07-.72.07-.28.2.92.2 1.48.4 2.18l-.1.1c.14.1.67 2.43.8 2.73 0 .55-.42-1.4-.55-1.62l1.26 5.53c.56 1.94.06-.4.4.52.42 1.73.9 3.4 1.27 5.42l-.01-.66c.84 3.24 1.26 5.2 1.6 7.43 3.2 12.06 3.8 13.28 3.7 11.46-.13-1.82-1.05-6.66-1.05-6.66-1.77-9.67-3.35-14.53-5.97-25.9-.53-2.5-.93-4.56-1.24-6.38l-.33-1.94c.16-1.17-1.04-.7-1.75-.82l-2.74-.05-5.22-.07h-3.1l-2.98.01c-.05-.02-.07 0-.07.04l-2.8-.05-6.88-.14c-4.58-.08-9.12-.1-13.44.03a5.74 5.74 0 0 0-.82.01c-.3.02-.53.04-.53.05l-10.64-.03s-51.57-.08-12.4 1.7l-.26.05c5.82.1 9.5.14 13.5-.1.56.25 3.8.1 5.52.1-.07.3-.15.72-.26 1.3l-.03-.03c-.05.7-.06 1.14.06 1.63-.18.07-.03.58-.1.74l-.01-.02c.1.44-.17.87-.1 1.3-.01-.02-.06-.03-.05-.13-.01.3-.03.72-.13.73-.04.72-.3 1.7-.2 2.18l-.02-.04c.06.28-.06.34-.07.64-.02.01-.03.03-.03.03.04.3-.18.82-.2 1.06h-.07l-.15.55.08-.2c.15.12-.24.38-.25.8-.13.36.13.88-.12 1.23.01.2-.07-.2-.1.1-.1-.02-.01-.15-.1-.1-.06.28-.26.4-.32.75l-.07-.01c-.03.48-.43.75-.44 1.07-.14.45-.33.2-.4.7l-.17.13c-.1.18.05.2-.1.37-.05-.04-.2.23-.18.08-.34.4-.4 1-.88 1.5.03.2-.23.44-.22.58-.06-.01-.4.57-.28.18.01-.03.05-.08.06-.07l-.04-.08c-.33.24-.34.63-.57.94.08-.08.17-.2.15-.1l-.2.3-.01-.1c-.1.14-.22.28-.35.4h.1c-.2.18-.36.17-.46.47-.04.14.24-.13.08.1-.26.24-.65.6-.95.93.1.02.02.12-.06.22l-.07-.04c-.26.4-.24.01-.5.4l.02.13c-.2.4-.27.05-.46.53.12-.14.18.05-.01.2v-.1c-.08.1-.1.15-.16.2.03-.08-.04-.1-.17.04l.03-.15a2.16 2.16 0 0 1-.17.34c-.26.12-.52.48-.67.48 0 0-.47.35-.5.52.04-.13-.22.06-.2-.06a1.14 1.14 0 0 1-.58.52l.02-.03c-.6.32-.82.8-1.4 1.02.07.06-.22.2-.1.24-.47.42-1.06.42-1.1.82-.24.15-.33.1-.47.15l.05-.05a10.54 10.54 0 0 1-.93.54c-.16.12-.12.27-.45.4.08-.1-.05-.03-.17.02.07-.04.1-.08-.1-.04-.01.03-.04.05-.07.08-.2.1-.16.1-.06.07 0 .01.01.02.05.02-.24.02-.57.28-.64.2-.6.28-1 .56-1.5.8-.08-.03.03-.12.17-.2-.12.06-.24.1-.36.16-.02-.08.2-.12.3-.18-.48.05-.86.44-1.42.5l-.1.1h-.03c.01.03-.1.1-.17.14-.1-.05-.04-.16-.3-.08-.22-.01-.57.2-.83.3.15-.03.1.02.06.06-.13.03-.22-.02-.32.04l-.04-.1c.07.07-.32.18-.36.23-.1-.05.2-.1.2-.17-.53.13-.26.07-.8.2-.27.13.07.08-.05.2-.25.07-.48.18-.78.18l.1.06c-.46.15-.76.18-1.1.15-.87.28-1.36.47-1.6.6.02-.08.04-.16.05-.26v.16c.05-1.24.07-1.6.14-2.52 0-.46-.16-.54-.07-1.36.05.27.06-.07.08-.37 0 .2.02.26.08-.14-.02-.06-.02-.15-.03-.23.01 0 .01-.02.02-.01.01-.52-.02-.43-.04-.2-.01-.01-.02.01-.04.08.12-.53.1-1.5.2-1.54.07-1.55.03-2.66.07-3.94.06-.14.1.16.1.54l.04-.9c.08.01.01.53.01.8.2-1.08.01-2.25.2-3.5l-.05-.27.02-.08c-.03 0-.06-.3-.06-.48.08-.18.16.02.2-.6.1-.5.06-1.42.06-2.07-.03.35-.07.24-.08.08.02-.32.1-.5.08-.74h.1c-.1.12-.04-.83-.08-.95.08-.17.03.5.08.57l.1-1.9c-.03-.68-.1.12-.16-.2.02-.6-.01-1.18.1-1.86l-.1.2c.01-1.12.06-1.8.2-2.54-.16-8.37-.82-1.8-.82-1.8-.4 3.27-.25 4.98-.44 8.88-.26 3.43-.48 4.33-.64 7.9-.12 1.7-.2 3.5-.28 5.17.08.8-.14 2.18-.1 3.12l-.1.36a4.36 4.36 0 0 1-.04 1.02l-.02-.02c.02.48-.04 1.02-.03 1.26l-.02-.02-.03.58-.02-.1c0 .84-.05 1.7-.12 2.46l.1-.06c-.2 1.62-.06 2.22-.26 3.68l-.02-.02c.1 1.87-.34 2.92-.24 4.84-.01-.24-.05.1-.07.08-.03.88-.08 1.82.1 1.84-.04.64-.1.52-.16.6.08 0 .07.56.04 1.06v-.23l-.06 1.43.16-.27c-.1.76-.18.18-.2.9h.12c-.1 1.05-.3 1.66-.46 2.67-.32 4.23-.3 8.8-.76 12.7l-.1.17c-.13.07.12 1.1-.01 1.24l.03.46c-.03.13-.07.4-.1.17-.03.42-.01.43.01.74l-.1.45c-.17 1.67-.1 3.1-.24 4.85-.3 2.1-.4 6.08-.45 8.38-.01 3.23-.76 6.94-.75 10.25-.03.1 0 .4.01.38l-.2 3s-.36 5.43-.24 7.17l-2.24-.23-3.6-.34-1.77-.1-1.33-.02c.1-.9.2-1.35.28-2.14l-.01.56.53-8.86c.05-1.62-.2-1.9.05-4.78.04.94.1-.24.17-1.32-.03.7 0 .9.16-.5-.02-.2-.02-.5-.02-.8.01-.01.02-.07.03-.04.08-1.8.03-1.5-.04-.66-.01-.04-.04.03-.08.28.26-1.87.33-5.23.52-5.45l.6-13.87c.13-.5.14.56.1 1.88l.17-3.2c.13.04-.04 1.85-.08 2.84.46-3.8.3-7.9.78-12.36l-.05-.94.03-.27c-.06.01-.07-1-.04-1.67.16-.63.27.06.4-2.16.23-1.75.26-5 .35-7.3-.1 1.24-.14.83-.14.3.07-1.1.22-1.74.23-2.6l.13-.07c-.1-.16.06-2.97.03-3.34.16-.62-.01 1.73.06 2l.4-6.67c.03-2.38-.18.42-.24-.72.1-2.1.13-4.15.38-6.55l-.2.75c.14-3.94.3-6.3.62-8.94.75-29.4-1.16-6.28-1.16-6.28-1.05 11.52-1.03 17.5-1.8 31.25l-2.02 27.78-1.1 18.18c.03 2.78-.5 7.66-.52 10.95l-.2 1.26c-.01 1.13-.06 2.46-.2 3.6l-.03-.07c-.01 1.06-.08 2.2-.14 3.12l-.1 1.26-.01-.01-.03.6v.02l-.08 1.43-.03-.35-.07 2.02c0 .06 0 .12-.01.2v.3c0 .05.02.1.02.16.01.2.04.4.07.58.01.03 0 .05.01.08 0 .02.01.04.02.06a5.96 5.96 0 0 0 .55 1.55c.85 1.6 2.5 2.7 4.17 2.9-.08-.06-.17-.1-.25-.18.2.05.42.06.62.08.05 0 .1.01.14.01.2.1.64.2 1.12.3l.95.1 1.2.15c4.5.58 6.84.3 12.2.52 4.7.35 5.95.7 10.84.88 2.33.16 4.82.25 7.1.35 1.1-.15 3 .18 4.28.08l.5.15c.44-.03.97-.04 1.4.05l-.03.03c.66-.05 1.4.05 1.73.02l-.03.03h.07a96.15 96.15 0 0 1-.73 2.99c-.3 1.25-.52 2.4-.64 3.25l.02-.24c-.28 1.97-.48 2.53-.83 4.72-.04.12-.07.27-.07.24-.3 2.15-1.1 6.2-1.36 7.94l-.1.1-.72 4.24.3-1.58c.08.58-.67 3.2-1.08 6.28-.5 2.88-.62 5.9-1.2 8.88-.16 1.44.07-1.28-.22.86-.1.05.1-1-.06-.47-.3 2.1-.68 3.42-1.05 6l-.1.1c-.43 3.4-1.16 6.34-1.4 8.6-.52 3.5-.6 2.3-1.06 5.94l-.33 1.4c-.27 1.55-.06 1.13-.4 2.84-.05-.1-.4 2.16-.3 1.15-.74 3.87-1.16 7.92-2.16 13-.06 1.13-.55 3.7-.6 4.54-.08.13-.85 5.17-.5 2.25.03-.25.1-.7.12-.66l-.02-.36c-.6 2.9-.8 5.32-1.28 8.2.16-.85.34-2 .27-1.22l-.44 2.68.03-.57c-.1.68-.24 1.3-.33 2.02a13.6 13.6 0 0 0-.11 1.27c-.7.01-1.4.24-1.94.6a3.9 3.9 0 0 0-.51.4 2.69 2.69 0 0 0-.44.49 20.08 20.08 0 0 1-.61.75c-.43.5-.9.98-1.42 1.44-1.33 1.06-3.3 2.48-5.53 3.5s-4.7 1.6-6.54 1.73c-3.25.35-7-.02-10.08-1.5a81.58 81.58 0 0 1 .16-4.44c.5.04.9-.12 1.6-.18.76.04.96.2 1.75.14.38.01.78-.02 1.14-.04.17-.13.48 0 .7-.1l.08.07c.07-.04.15-.06.23-.02v.02c.1-.05.23-.02.28-.05v.02h.13l-.02.03a1.27 1.27 0 0 1 .54-.04l-.01-.1c.36.1.5-.08.82.03v.02c.4-.23.65.16 1.07-.06-.05.03.02.04.02.07.2-.02.4-.04.4-.2.14 0 .12.05.13.12 0-.07.12-.1.23-.1l-.05.03.32-.03-.06-.14c.17.04.04.17.2.14v-.12c.23.02.37.2.6.3.94.05 1.94-.25 2.8-.04l.04.1c.02.13.24-.2.27-.07l.1-.06c.03.02.1.05.04.08.1.01.1-.02.16-.05l.1.08c.37.06.68-.1 1.07-.06.47.16 1.35.01 1.85-.07.7-.2 1.54.32 2.27.1.02.02.1-.02.08-.04l.67.02s3.24.05.78-1.02v-.03c-.37-.07-.6-.08-.85.06-.04-.17-.3-.02-.4-.07l.01-.01c-.22.13-.46-.1-.67.01.01-.01.01-.06.06-.06-.16.02-.37.06-.38-.04-.37.03-.9-.02-1.14.14l.02-.03c-.14.1-.18.02-.33.07-.01-.01-.02-.02-.02-.03-.15.1-.43.02-.55.06l-.01-.07-.3.02h.1c-.04.18-.22-.12-.44 0-.2-.02-.4.38-.62.3-.1.1.1-.14-.06-.07 0-.1.07-.06.03-.14-.15.05-.24-.1-.42-.03l-.01-.07c-.24.14-.44-.1-.6.03-.24.06-.16-.22-.42-.08l-.1-.1c-.1-.02-.08.12-.2.07.01-.06-.15-.05-.08-.1-.27-.1-.55.14-.9-.03-.08.12-.26.05-.32.14-.01-.05-.36-.01-.16-.13.02-.01.05-.01.05.01l.02-.07c-.2-.14-.37.08-.57.05.06.02.14.02.1.07l-.2-.01.04-.06-.28-.04.04.08c-.14-.04-.18-.17-.34-.06-.07.06.13.1-.01.13-.18-.05-.46-.13-.7-.15.02.1-.04.08-.1.1v-.07c-.25.1-.1-.16-.34-.08l-.04.1c-.22.15-.12-.16-.37.05.1-.01.05.16-.07.13l.03-.07c-.07.02-.1.05-.13.03.04-.04.02-.1-.08-.1l.07-.1-.18.13c-.14-.08-.37.02-.43-.08 0 0-.3-.05-.38.06.06-.07-.1-.1-.06-.18-.08.08-.3.14-.4.06l.02-.01c-.35-.1-.6.12-.9.01.01.1-.15.04-.1.15-.32.1-.6-.23-.7.12-.15.02-.17-.08-.25-.1h.03c-.27.03-.35.03-.56.02-.1.03-.12.2-.3.15.06-.06-.02-.05-.08-.05.04-.01.06-.03-.03-.08-.01.02-.03.03-.05.04-.1 0-.1.02-.04.03 0 .01 0 .02.02.04-.12-.08-.33.01-.34-.1-.34.03-.6.14-.87.18-.03-.06.03-.1.12-.13h-.2c0-.08.12-.05.18-.06-.24-.13-.5.13-.78.01l-.06.06V420c0 .03-.06.08-.1.1-.04-.07 0-.16-.14-.16-.1-.07-.3.03-.46.07.08.01.05.05.02.08-.07 0-.1-.07-.16-.04l-.01-.1c.03.1-.18.1-.2.13-.04-.07.1-.06.13-.1-.28.01-.14 0-.42.01-.15.07.03.1-.04.17-.13.02-.26.08-.4.03l.05.08c-.2.06-.35.05-.5-.01.27-4.7.25-8.18.54-12.5-.1.2.06-2.18-.08-1.6.1-4.67.63-8.5.3-10.2-.01-2.13.1-2.52.1-3.62l.02.5.01-8.1c-.03-1.48-.2-1.7-.14-4.36.06.86.05-.22.06-1.22.01.63.03.83.08-.47-.02-.18-.03-.47-.04-.73.01-.01.01-.06.02-.04-.02-1.65-.04-1.37-.05-.6-.01-.04-.02.03-.04.26.1-1.7.01-4.78.12-5l-.13-12.66c.06-.46.1.5.12 1.7l-.01-2.93c.08.03.04 1.7.05 2.6.14-3.5-.1-7.2.04-11.3l-.06-.85.01-.24c-.03.01-.08-.9-.08-1.5.08-.58.16.04.2-1.98l.3-6.62c-.12 1.12-.12.76-.1.27.1-1 .23-1.58.3-2.36l.08-.07c-.02-.07.01-.62.07-1.24l.2-1.8c.15-.56-.17 1.56-.14 1.82l.42-3c.07-.5.13-1 .48-3 .3-2.14-.16.37-.06-.66.07-.46.15-.9.23-1.37 0-.38-.06-.76-.32-.8-.5-.06-.77 1.4-.77 1.4l-.04-.04c-.5 2.9-.96 6.13-1.34 10.1-.55 5.52-.54 9.08-.6 12.6l-.08 12.85v16.6c.12 2.53-.03 7 .07 10l-.08 1.16c.03 1.03.05 2.24.01 3.28l-.02-.07c.02.77.03 1.6.02 2.3l-.06 1.73-.02-.06-.07 1.87-.02-.32a229.62 229.62 0 0 1-.32 7.89l.1-.2c-.33 5.2-.24 7.13-.56 11.83l-.02-.07c-.01 2.1-.1 3.9-.2 5.6-.63-.28-1.37-.3-1.97.02-.34.18-.64.45-.85.78-.2.3-.32.82-.37.97-.25.9-.42 1.8-.53 2.68-.06.18-.08.66-.05.66-.3 1.7-.45 3.42-.52 5.14 0 0-.07 1.56.03 3.6a48.35 48.35 0 0 0 .14 1.95c-.1 0-.02.13-.03.2l.04.3.07.58.15 1.15.22 1.5.1.66c.01.08.05.3.1.42.05.14.1.26.18.38.54.95 1.4 1.33 1.96 1.4.37.03.58-.02.66-.1.05-.04.06-.08 0-.12-.02-.02-.05-.03-.1-.05-.2-.12-.7-.28-1.2-.9-.07-.1-.13-.2-.2-.3-.1-.18-.17-.4-.2-.62a1.73 1.73 0 0 1-.01-.56c.03-.64 0-1.8.08-2l.05.07v-.16c.01-.04-.03-.12.06-.1l.3.03c.1.01.13.01.3.02.23 0 .45 0 .66.01.86 0 1.62-.05 2.43-.16.25.3 1.9.04 2.45.14l-.05.02c1.42-.2 2.92.2 4.3.01-.05.02-.08.1-.4.1 1-.03 2.36-.1 2.43.08 2.38-.03 5.7.07 7.22-.2l-.1.05c.87-.18 1.12-.02 2.1-.1.05.02.12.03.1.04.95-.17 2.76-.01 3.53-.08l.05.1 1.88-.01-.7-.03c.25-.3 1.42.2 2.8.01 1.28.05 2.6-.62 3.92-.46.63-.14-.56.23.4.12.03.16-.44.1-.2.23.93-.07 1.52.17 2.67.07l.05.12c1.5-.22 2.82.18 3.82-.03 1.54-.1 1.03.38 2.64.14l.62.17c.7.03.5-.2 1.26-.12-.05.1.96.1.52.2 1.72.18 3.5-.2 5.77.08.5-.2 1.64-.07 2-.23.06.1 2.3.03 1 .22-.1.02-.3.01-.3-.02l-.15.12c1.3.24 2.35-.1 3.64-.07-.38-.04-.9-.04-.55-.12l1.2.02-.25.1 1.77.07-.24-.13c.87.07 1.17.3 2.15.1.44-.1-.82-.18.1-.2l2.07.16.87.06c.08.01.05.01.1.02.06.03.14.02.15.06.03-.04.06-.06.08-.08 0 .06.01.1.01.16l-.04.02c.02.03.04.07.04.1.01.1.01.2 0 .28-.01.15-.04.22-.08.28-.03.07-.07.14-.08.28-.02.12.01.44.01.55l-.08-.07c.05.04.1.1.14.15-.03.02-.06.02-.1-.02.04.13-.01.4-.2.56-.02.01-.06.03-.1.06a.48.48 0 0 1-.24.07c-.1-.01-.2-.01-.28-.02a2.36 2.36 0 0 1-.31-.04l.13-.02c-2.62-.13-4.48.2-6.83.04.03.04-.05.06-.18.08-.2-.05-.53-.1-.34-.18-.5.13-2 .24-2.6.1l.1-.02c-2.2-.13-3.77.2-5.75.04.1.14-.95.07-.7.25-2.05.2-3.73-.36-4.47.2-.32.01-.54 0-.72-.02-.01-.02-.14-.05-.47-.08a2.13 2.13 0 0 0-.39-.06l.22-.03c-1.74.05-2.25.06-3.55.05a2.62 2.62 0 0 0-.47.09c-.65.02-1.25.05-1.83.1h-.14c.28-.02.36-.06-.2-.13-.08.03-.2.05-.32.07 0-.01-.03-.01-.02-.03-.72.04-.6.07-.26.1-.01.01.01.03.06.05h-.07c-.76-.1-1.98.02-2.07-.15-.07 0-.14 0-.2.01-1.75-.17-3.6.22-5.64.05.25-.02.65-.01.9-.03-.88-.12-1.8-.03-2.76.04-.12-.02-.3-.03-.62-.03-.7-.1-1.9.02-2.9.1-.08-.05-.23-.08-.67-.08-.55-.1-1.44 0-2.25.07l-1.6.02-.01-.05c.02.02.02.04-.01.05-.15 0-.33 0-.57.01.02-.01.04-.01.05-.02l-2.67.03c-.95.12.17.15-.28.3a25.94 25.94 0 0 0-.88.05h-.04c-.54.03-1.1.06-1.7 0l.3.14c-.4.03-.75.05-1.07.06-.5-.02-.95-.05-1.44-.1-.22.02-.4.04-.62.05-.15-.01-.3-.03-.45-.05-3.4.34-5.02.6-5.63.83-.53.16-.43.3 0 .4.85.24 3.16.34 3.16.34 1.48.1 2.73.12 3.92.1 3.24.02 5.88-.2 10.1-.32 3.66.08 5.18.28 9.62.17h.08c1.37.03 2.9.03 5-.02 2.84.01 5.87-.06 8.65-.1.62-.1 1.47-.1 2.35-.1l-.08.03c.2-.02.4-.02.58-.03.67 0 1.34-.01 1.94-.05.2 0 .42 0 .63.01l.4.08c.54-.06 1.17-.1 1.7-.04l-.03.03c.8-.1 1.7-.04 2.1-.1l-.03.04.98-.02-.17.05c1.4-.1 2.84-.1 4.1-.07l-.07-.1c.85.05 1.73.08 2.78-.03.1 0 .2-.01.3-.01-.01.03.26.05.24.08.67-.02 1.35-.04 1.85-.1.3.01.6.02.96.05l-.03.04a14.54 14.54 0 0 1 1.12-.1c.52-.03 1.02-.18 1.44-.45.84-.53 1.3-1.4 1.4-2.3.08-1.4.07-2.63-.34-4.26.1.4.05-.2.1-.16-.24-1.5-.72-3.1-1-3.04-.32-1.07-.2-.9-.14-1.07-.06.02-.18-.2-.34-.5-.18-.33-.32-.7-.68-1.2l.32.4c-.6-.96-1.3-1.4-1.96-1.9.1.16.17.33.25.5-1.02-.84-.1-.45-1.17-1.1l-.1.17c-1.48-1-2.25-1.76-3.7-2.7-6.3-3.4-13.52-5.95-19.47-8.82l-.2-.25c-.04-.25-1.8-.4-1.96-.68l-.75-.2c-.2-.12-.6-.33-.22-.23-.66-.28-.68-.25-1.18-.38l-.66-.4-.95-.4-.47-.2c-.03-.01-.06-.02-.1-.03.01-.23.02-.46.02-.7.05-.42.08-.8.15-1.25l1.2-7.73 3.27-19.77.18-.54c.17-.22.38-3.48.58-3.93l.18-1.46c.1-.4.26-1.26.17-.53.23-1.34.2-1.38.33-2.35l.32-1.43 2.5-15.4c1.3-6.67 3.3-19.3 4.5-26.55.42-2.55.9-5.2 1.47-7.88.38-1.64.84-3.3 1.3-5a29.25 29.25 0 0 1 2.88.14l-.07-.14.23.01 1 .1c.62.65 1.4 1.14 2.17 1.3.32.08.6.1.9.12l.06.18c.04.05.02.2.12.14l.45-.08.9-.16h.05c.54.22 3.3-.16 3.3-.16.22-.02.43-.05.63-.08l.95-.08c3.47-.5 5.72-1.25 10.28-2.2 4.6-.78 5.87-.73 10.6-1.72 2.27-.4 4.68-.9 6.9-1.34 1-.4 2.9-.54 4.12-.94l.5.03c.42-.14.9-.27 1.36-.3l-.02.04c.62-.2 1.36-.3 1.67-.4l-.02.04.78-.16-.12.07c.8-.22 1.63-.38 2.43-.52-.07 2.95-.16 5.65-.02 7.4l-.04-.24c.17 1.96.1 2.55.24 4.73-.01.12-.01.28-.01.25.2 2.13.3 6.23.44 7.95l-.06.12.24 4.25-.07-1.6c.2.54.06 3.22.34 6.3.14 2.9.7 5.83.8 8.83.17 1.42-.2-1.25-.02.88-.1.08-.12-1-.16-.44.17 2.1.1 3.44.32 6.02l-.07.1c.34 3.36.28 6.37.54 8.6.27 3.47-.08 2.34.28 5.96l-.01 1.4c.08 1.55.2 1.1.25 2.82-.07-.1.08 2.17-.04 1.17.14 3.9.63 7.88.78 13 .2 1.1.28 3.7.43 4.5-.05.14.32 5.17.02 2.28-.03-.25-.05-.7-.03-.66l-.1-.34c.05 2.93.4 5.3.57 8.2-.03-.86-.1-2-.01-1.24l.16 2.7-.1-.55c.1 1.35.1 2.64.26 4.04l.01-.6c.08 1.03.17 1.72.33 2.43a11.49 11.49 0 0 0 .78 2.33 3.63 3.63 0 0 0-.79.39 3.9 3.9 0 0 0-.51.4 2.69 2.69 0 0 0-.44.49 20.08 20.08 0 0 1-.61.75c-.43.5-.9.98-1.42 1.44-1.33 1.06-3.3 2.48-5.53 3.5s-4.7 1.6-6.54 1.73c-3.25.35-7.02-.02-10.1-1.5h0l-.08-.4-.15-.8-.2-1.27.06.25-.45-2.44c.66.14 1.05-.08 1.87-.14.76.04.96.2 1.75.14.38.01.78-.02 1.14-.04.17-.13.48 0 .7-.1l.08.07c.07-.04.15-.06.23-.02v.02c.1-.05.23-.02.28-.05v.02l.13-.01v.03a1.27 1.27 0 0 1 .54-.04l-.01-.1c.36.1.5-.08.82.03v.02c.4-.23.65.16 1.07-.06-.05.03.02.04.02.07.2-.02.4-.04.4-.2.14 0 .12.05.13.12 0-.08.12-.1.23-.1l-.05.03.32-.03-.06-.14c.17.04.04.17.2.14v-.12c.23.02.37.2.6.3.94.05 1.94-.25 2.8-.04l.04.1c.02.13.24-.2.27-.07l.1-.06c.03.02.1.05.04.08.1.01.1-.02.16-.05l.1.08c.37.06.68-.1 1.07-.06.47.16 1.35.01 1.85-.07.7-.2 1.54.32 2.27.1.02.02.1-.02.08-.04l.67.02s3.24.05.78-1.02l.02-.03c-.37-.07-.6-.08-.85.06-.04-.17-.3-.02-.4-.07l.01-.01c-.22.13-.46-.1-.67.01.01-.01.01-.06.06-.06-.16.02-.37.06-.38-.04-.37.03-.9-.02-1.14.14l.02-.03c-.14.1-.18.02-.33.07-.01-.01-.02-.02-.02-.03-.15.1-.43.02-.55.06l-.01-.07-.3.02.1.01c-.04.18-.22-.12-.44 0-.2-.02-.4.38-.62.3-.1.1.1-.14-.06-.07 0-.1.07-.06.03-.14-.15.05-.24-.1-.42-.03v-.07c-.24.14-.44-.1-.6.03-.24.06-.16-.22-.42-.08l-.1-.1c-.1-.02-.08.12-.2.07.01-.06-.15-.05-.08-.1-.27-.1-.55.14-.9-.03-.08.12-.26.05-.32.14-.01-.05-.36-.01-.16-.13.02-.01.05-.01.05.01l.02-.07c-.2-.14-.37.08-.57.05.06.02.14.02.1.07l-.2-.01.04-.06-.28-.04.04.08c-.14-.04-.18-.17-.34-.06-.07.06.13.1-.01.13-.18-.05-.46-.13-.7-.15.02.1-.04.08-.1.1l-.01-.07c-.25.1-.1-.16-.34-.08l-.04.1c-.22.15-.12-.15-.37.05.1-.01.05.16-.07.13l.03-.07c-.07.02-.1.05-.13.03.04-.04.02-.1-.08-.1l.07-.1-.18.13c-.14-.08-.37.02-.43-.08 0 0-.3-.05-.38.06.06-.07-.1-.1-.06-.18-.08.08-.3.14-.4.06l.02-.01c-.35-.1-.6.12-.9.01.01.1-.15.04-.1.15-.32.1-.6-.23-.7.12-.15.02-.17-.08-.25-.1l.03-.02c-.27.03-.35.03-.56.02-.1.03-.12.2-.3.15.06-.06-.02-.05-.08-.05.04-.01.06-.03-.03-.08-.01.02-.03.03-.05.04-.1 0-.1.02-.04.03 0 .01 0 .02.02.04-.12-.08-.33.01-.34-.1-.34.03-.6.14-.87.18-.03-.06.03-.1.12-.13l-.2.02c0-.08.12-.05.18-.06-.24-.13-.5.13-.78.01l-.06.06-.02-.01c0 .03-.06.08-.1.1-.04-.07 0-.16-.14-.16-.1-.07-.3.03-.46.07.08.01.05.05.02.08-.07 0-.1-.07-.16-.04v-.1c.03.1-.18.1-.2.13-.04-.07.1-.06.13-.1-.28.01-.14 0-.42.01-.15.07.03.1-.04.17-.13.02-.26.08-.4.03l.05.08c-.25.07-.4.06-.56-.03-.18.07-.32.13-.44.18-.7-3.3-1.34-6.1-1.92-9.5-.05.22-.45-2.1-.45-1.5-1-4.5-1.38-8.3-2.05-9.9-.43-2.06-.4-2.46-.62-3.53l.12.5-1.7-7.83c-.34-1.42-.55-1.6-1.08-4.17.24.8 0-.23-.2-1.18.15.6.2.8-.03-.47-.06-.17-.13-.44-.2-.7 0-.01 0-.06.01-.04-.38-1.6-.34-1.3-.18-.57-.02-.04-.02.03.02.26-.3-1.67-1.05-4.6-1-4.83l-2.98-12.15c-.05-.46.2.46.5 1.6l-.68-2.82c.08.01.42 1.6.64 2.48-.65-3.4-1.74-6.9-2.55-10.87l-.25-.8-.04-.24c-.03.02-.3-.85-.4-1.44-.05-.57.17 0-.24-1.95-.06-.4-.15-.86-.26-1.37l-.3-1.67c-.2-1.16-.46-2.38-.57-3.4.12 1.1.04.76-.04.28-.12-1-.12-1.57-.24-2.33l.06-.08c-.1-.1-.34-2.64-.4-2.98.02-.57.2 1.54.26 1.78-.32-4-.22-2-.43-6-.18-2.13-.07.4-.2-.63l-.1-2.4c-.05-.5-.17-1.16-.5-1.2-.53-.06-.47 1.93-.47 1.93h0c.13 3.17.4 6.67.92 11.03.66 5.44 1.36 8.9 2.14 12.3l6.55 28.38c.67 2.4 1.5 6.76 2.2 9.63l.17 1.14c.24 1 .5 2.16.68 3.17l-.03-.06c.36 1.48.65 3.17.83 3.9l-.03-.06.36 1.82-.1-.3c.56 2.6 1.1 5.3 1.53 7.66l.05-.2c.9 5.1 1.43 6.9 2.2 11.5l-.03-.06.46 2.05.12.57c-.6-.22-1.27-.2-1.83.1-.34.18-.64.45-.85.78-.2.3-.32.82-.37.97-.25.9-.42 1.8-.53 2.68-.06.18-.08.66-.05.66-.3 1.7-.45 3.42-.52 5.14 0 0-.07 1.56.03 3.6a48.35 48.35 0 0 0 .14 1.95c-.1 0-.02.13-.03.2l.04.3.07.58.15 1.15.22 1.5.1.66c.01.08.05.3.1.42.05.14.1.26.18.38.54.95 1.4 1.33 1.96 1.4.37.03.58-.02.66-.1.05-.04.06-.08 0-.12-.02-.02-.05-.03-.1-.05-.2-.12-.7-.28-1.2-.9-.07-.1-.13-.2-.2-.3-.1-.18-.17-.4-.22-.62a1.73 1.73 0 0 1-.01-.56c.03-.64 0-1.8.08-2l.05.07v-.16c.01-.04-.03-.12.06-.1l.3.03c.1.01.13.01.3.02.23 0 .45 0 .66.01.86 0 1.62-.05 2.43-.16.25.3 1.9.04 2.45.14l-.05.02c1.42-.2 2.92.2 4.3.01-.05.02-.08.1-.4.1 1-.03 2.36-.1 2.43.08 2.38-.03 5.7.07 7.22-.2l-.1.05c.87-.18 1.12-.02 2.1-.1.05.02.12.03.1.04.95-.17 2.76-.01 3.53-.08l.05.1 1.88-.01-.7-.03c.25-.3 1.42.2 2.8.01 1.28.05 2.6-.62 3.92-.46.63-.14-.56.23.4.12.03.16-.44.1-.2.23.93-.07 1.52.17 2.67.07l.05.12c1.5-.22 2.82.18 3.82-.03 1.54-.1 1.03.38 2.64.14l.62.17c.7.03.5-.2 1.25-.12-.05.1.96.1.52.2 1.72.18 3.5-.2 5.77.08.5-.2 1.64-.07 2-.23.06.1 2.3.03 1 .22-.1.02-.3.01-.3-.02l-.15.12c1.3.24 2.35-.1 3.64-.07-.38-.04-.9-.04-.55-.12l1.2.02-.25.1 1.77.07-.24-.13c.87.07 1.17.3 2.15.1.44-.1-.82-.18.1-.2l2.07.16.87.06c.08.01.05.01.1.02.06.03.14.02.15.06.03-.04.06-.06.08-.08 0 .06.01.1.01.16l-.04.02c.02.03.04.07.04.1.01.1.01.2 0 .28-.01.15-.04.22-.08.28-.03.07-.07.14-.08.28-.02.12.01.44.01.55l-.08-.07c.05.04.1.1.14.15-.03.02-.06.02-.1-.02.04.13-.01.4-.2.56-.02.01-.06.03-.1.06a.48.48 0 0 1-.24.07c-.1-.01-.2-.01-.28-.02a2.36 2.36 0 0 1-.31-.04l.13-.02c-2.62-.13-4.48.2-6.83.04.03.04-.05.06-.18.08-.2-.05-.53-.1-.34-.18-.5.13-2 .24-2.6.1l.1-.02c-2.2-.13-3.77.2-5.75.04.1.14-.95.07-.7.25-2.05.2-3.73-.36-4.47.2-.32.01-.54 0-.72-.02-.01-.02-.14-.05-.47-.08a2.13 2.13 0 0 0-.39-.06l.22-.03c-1.74.05-2.25.06-3.55.05a2.62 2.62 0 0 0-.47.09c-.65.02-1.25.05-1.83.1h-.14c.28-.02.36-.06-.2-.13-.08.03-.2.05-.32.07 0-.01-.03-.01-.02-.03-.72.04-.6.07-.26.1-.01.01.01.03.06.05h-.07c-.77-.1-1.98.02-2.07-.15-.07 0-.14 0-.2.01-1.75-.17-3.6.22-5.64.05.25-.02.65-.01.9-.03-.88-.12-1.8-.03-2.76.04-.12-.02-.3-.03-.62-.03-.7-.1-1.9.02-2.9.1-.08-.05-.23-.08-.67-.08-.55-.1-1.44 0-2.25.07l-1.6.02v-.05c.02.02.02.04-.01.05-.15 0-.33 0-.57.01.02-.01.04-.01.05-.02l-2.67.03c-.95.12.17.15-.28.3a25.94 25.94 0 0 0-.88.05h-.04c-.54.03-1.1.06-1.7 0l.3.14c-.4.03-.75.05-1.07.06-.5-.02-.95-.05-1.44-.1-.22.02-.4.04-.62.05-.15-.01-.3-.03-.45-.05-3.4.34-5.02.6-5.63.83-.53.16-.42.3 0 .4.85.24 3.16.34 3.16.34 1.48.1 2.73.12 3.92.1 3.24.02 5.88-.2 10.1-.32 3.66.08 5.18.28 9.62.17h.08c1.37.03 2.9.03 5-.02 2.84.01 5.87-.06 8.65-.1.62-.1 1.47-.1 2.35-.1l-.08.03c.2-.02.4-.02.58-.03.67 0 1.34-.01 1.94-.05.2 0 .42 0 .63.01l.4.08c.54-.06 1.17-.1 1.7-.04l-.03.03c.8-.1 1.7-.04 2.1-.1l-.03.04.98-.02-.17.05c1.4-.1 2.84-.1 4.1-.07l-.07-.1c.85.05 1.73.08 2.78-.03.1 0 .2-.01.3-.01-.01.03.26.05.24.08.67-.02 1.35-.04 1.85-.1.3.01.6.02.96.05l-.03.04a14.54 14.54 0 0 1 1.12-.1c.52-.03 1.02-.18 1.44-.45.84-.53 1.3-1.4 1.4-2.3.13-1.36.12-2.6-.3-4.23zm-127.63 5.7c-.03-.01-.04-.03-.04-.04l.1.03c-.02.01-.04.01-.05.01zm-7.03-5.53c-.15-.03-.54.03-.54.06l-4.25-.06h-3.6c-.1-2.48-.08-4.1-.23-5.9.28-.28.17-2.22.34-2.84l.02.06c0-.26.01-.52.04-.77.34.1.65.03 1.16.1.53.2.6.4 1.18.53.25.1.54.18.8.26.17-.07.32.14.5.1l.02.1c.06-.01.13-.01.16.05h-.01c.1-.02.16.05.2.04l-.01.02.1.03-.03.02a.65.65 0 0 1 .37.15l.03-.08c.2.2.35.1.5.32l-.01.02c.38-.05.32.37.7.36-.05 0-.01.05-.03.06.13.06.27.13.36-.01.08.06.04.1.01.16.04-.06.13-.03.2.01h-.05l.2.12.05-.14c.07.1-.08.16.04.2l.07-.1c.13.12.08.33.15.5.47.45 1.2.8 1.44 1.43l-.05.08c-.1.1.25.02.18.1l.1.02c-.01.03 0 .08-.04.07.04.06.05.05.12.06l-.02.1c.12.24.35.36.5.6.05.37.48.84.72 1.14.4.4.16 1.15.52 1.57-.01.02.04.05.05.05l.12.47s.12.48.27.82c-.8-.02-1.56-.01-2.3.05zm25.92-19.44l.62.44c.12.05.2.1.3.1-.01.04-.01.1-.02.14-.17.25-.35.24-.44.55-.08.13-.12.28-.16.42.08.12-.08.17-.03.3h-.08c.02.04.03.08-.02.1v-.01c.03.06-.02.1-.01.12h-.02l-.01.05-.02-.02a.2.2 0 0 1-.07.21l.08.03c-.15.08-.01.2-.17.27l-.02-.01c.13.25-.26.16-.14.4-.01-.03-.04-.01-.06-.02-.01.08-.04.16.1.24-.03.05-.07.02-.13-.01.07.03.07.1.06.13l-.02-.03-.03.12.14.04c-.07.04-.16-.06-.16.01l.1.05c-.06.07-.24.04-.36.08-.2.3-.12.8-.46 1l-.1-.03c-.12-.05.13.17.01.13l.03.06c-.03 0-.06.01-.07-.02-.02.03 0 .04.02.08h-.1c-.12.1-.04.28-.14.4-.23.1-.25.47-.26.68.04.34-.56.4-.5.75-.02 0 .01.04.02.05l-.14.23s-.62 1.1.77.73h.02c.13-.1.18-.17.1-.32.16.06.07-.1.13-.1h.01c-.08-.14.18-.1.1-.24.01.01.05.03.05.05.01-.06.01-.16.1-.12.04-.14.18-.3.08-.46l.02.02c-.07-.1.02-.07 0-.15.01 0 .02 0 .03.01-.07-.1.06-.16.04-.22l.06.03.04-.1-.03.03c-.16-.1.14-.03.07-.16.06-.06-.27-.32-.15-.35-.06-.07.1.1.08.01.1.04.04.05.12.07-.01-.07.13-.04.1-.13l.07.03c-.08-.14.17-.1.08-.22-.01-.1.23.04.14-.1l.1.01c.03-.03-.1-.08-.03-.1.06.03.07-.03.1.02.14-.05-.03-.26.2-.3-.1-.08 0-.1-.07-.18.05.02.07-.12.14 0 .01.01 0 .02-.02.01l.06.04c.16-.01 0-.16.05-.22-.03.01-.04.04-.08 0l.04-.06.05.04.08-.08-.07-.02c.06-.03.18.01.1-.1-.04-.05-.1 0-.1-.06.08-.04.2-.1.26-.17-.08-.03-.07-.05-.07-.08l.07.03c-.05-.13.15.03.13-.08l-.1-.06c-.1-.14.16.03.02-.15-.01.04-.15-.06-.1-.1l.06.04c0-.03-.02-.05 0-.06.03.03.1.05.1.02l.07.06-.1-.12c.1-.01.05-.14.15-.1 0 0 .1-.08.01-.16.05.05.1.01.17.06-.06-.06-.07-.17.02-.17l.01.01c.14-.08 0-.26.15-.32-.08-.03-.01-.07-.1-.1-.04-.16.3-.1.02-.3.01-.06.1-.02.13-.04l.01.02c.02-.1.04-.14.08-.2-.01-.05-.15-.13-.08-.17.05.05.05.02.06-.01 0 .02.02.03.07.02-.02-.01-.02-.03-.03-.04.01-.04-.01-.04-.03-.03-.01-.01-.02-.01-.04-.01.1 0 .05-.12.15-.07.04-.13-.02-.27 0-.4.06.01.1.06.1.1v-.08c.07.04.02.06.02.1.16-.03-.03-.23.13-.28l-.05-.05h.01c-.03-.02-.06-.06-.06-.08.07.02.14.07.16.02.08-.01.03-.12.02-.2-.02.02-.05 0-.07-.03.01-.03.08-.01.06-.04l.1.04c-.08-.03-.05-.1-.08-.13.07.02.03.07.08.1l.06-.15c-.04-.08-.08-.03-.15-.1v-.1a2.67 2.67 0 0 1 .24.12c-.1.08 1.02.52.5.4 1.04.53 2.17.9 3.38 1.38 0 .04-.01.08-.02.13-.17.24-.35.24-.42.54-.08.12-.1.28-.16.4.08.12-.08.17-.02.28h-.08c.02.04.03.08-.02.1l-.02-.01c.03.06-.02.1 0 .12h-.02l-.01.05-.02-.02c.02.1-.01.16-.06.2l.08.03c-.15.08-.01.2-.17.27v-.01c.14.24-.25.15-.13.4-.02-.03-.04-.01-.06-.02-.01.08-.04.15.12.23-.03.05-.07.02-.13-.01.07.03.07.1.06.13l-.02-.03-.03.12.14.04c-.07.04-.16-.06-.16.01l.1.05c-.06.07-.24.04-.36.08-.2.3-.1.78-.44.98l-.1-.03c-.12-.05.13.17.02.13l.04.06c-.03 0-.06.01-.07-.02-.02.03 0 .04.02.08h-.1c-.12.1-.03.28-.13.4-.23.1-.24.46-.25.67.05.33-.55.4-.48.73-.02 0 .01.04.02.05l-.13.22s-.6 1.1.78.72h.02c.12-.1.18-.17.1-.32.16.06.07-.1.13-.1h.01c-.08-.14.18-.1.1-.23.01.01.05.03.05.05.01-.06.01-.15.1-.1.04-.14.17-.3.07-.45l.02.02c-.07-.1.02-.07-.01-.14.01 0 .02 0 .03.01-.07-.1.06-.16.04-.22l.06.03.04-.1-.03.03c-.16-.1.14-.03.07-.15.06-.06-.27-.3-.16-.34-.06-.07.1.1.08.01.1.04.04.05.12.07-.02-.07.13-.04.1-.13l.07.03c-.08-.14.16-.1.07-.22-.01-.1.23.04.14-.1l.1.01c.03-.03-.1-.08-.03-.1.06.03.07-.03.1.02.14-.05-.03-.25.18-.3-.1-.08 0-.1-.07-.17.05.02.07-.12.14 0 .01.01 0 .02-.02.01l.06.04c.16-.01 0-.16.05-.22-.03.01-.04.04-.08 0l.04-.06.05.04.08-.08-.07-.02c.06-.03.18.01.1-.1-.04-.05-.1 0-.1-.06.08-.04.2-.1.26-.17-.08-.03-.07-.05-.07-.08l.07.03c-.05-.13.16.04.13-.08l-.1-.06c-.1-.14.16.03.02-.15-.01.04-.16-.06-.1-.08l.06.04c0-.03-.03-.05 0-.06.03.03.1.05.1.02l.07.06-.1-.12c.1-.01.05-.13.15-.1 0 0 .1-.08.01-.16.05.05.1.01.17.06-.06-.06-.07-.17.02-.17v.01c.14-.08 0-.26.14-.32-.08-.03-.01-.07-.12-.1-.04-.16.3-.1.02-.3.01-.06.1-.02.13-.04h.01a.42.42 0 0 1 .07-.2c-.01-.05-.15-.13-.1-.17.05.05.05.02.06-.01 0 .02.02.03.07.02-.02-.01-.02-.03-.03-.04.01-.04-.01-.04-.03-.03-.01-.01-.02-.01-.04-.01.1 0 .05-.12.15-.07.04-.13-.02-.26-.01-.38.06.01.1.06.1.1l.02-.08c.07.04.02.06.03.1.16-.02-.03-.23.12-.27l-.05-.05h.01c-.03-.01-.06-.06-.06-.08.07.02.14.07.16.02.08-.01.02-.12.01-.2-.02.02-.05 0-.07-.03.01-.03.08-.01.06-.04l.1.04c-.08-.03-.05-.1-.08-.13.07.02.04.06.08.1.03-.1.03-.07.05-.13.6.26 1.23.55 1.88.92.62.04 1.8.7 2.27.73.03.1 2.48 1.12 1 .68-.13-.04-.34-.13-.3-.16l-.22.04c1.3.83 2.6 1.02 3.96 1.7-.4-.23-.94-.47-.54-.38l1.27.6-.3-.03 1.87.95-.2-.24c.9.5 1.13.85 2.24 1.2.5.14-.8-.58.2-.14l4.43 2.63c-.07-.2.33.03.76.25l-.02.14c1.63.8.44.57 1.96 1.44l-.18-.02.52.06c.68.37.77.57.85.74.03.08.12.2.16.26.04.03.2.28.45.64-.3-.6.14-.42.4.4l-.2-.16c.2.43.3.56.36.87-.15-.25-.2-.1.01.57a5.71 5.71 0 0 0-.28-.4c.2.4.38.8.55 1.2.08.65.26 1.54.34 2.2l-.6-.06c-5.96-.12-12.36.34-17.9-.04l-.2-.17c-.1-.22-1.53.3-1.74.1l-.65.1c-.18-.04-.56-.08-.24-.13-.6-.01-.6.02-1.04.1l-.64-.14c-2.35-.12-4.35.13-6.83.06-2.97-.3-8.57-.07-11.8.05-3.6.23-7.65-.27-11.5-.32.07-.12.13-.27.2-.48l.03.01c.01-.3-.02-.48-.2-.64.16-.08-.05-.23-.01-.3h.02c-.17-.13 0-.38-.17-.5.02 0 .06-.01.08.03-.06-.1-.15-.26-.06-.3-.13-.27-.24-.68-.47-.78h.03c-.14-.05-.07-.12-.17-.2.01-.01.01-.02.02-.02-.15-.06-.17-.3-.25-.36l.06-.04-.12-.2.03.08c-.17.06.02-.2-.17-.3-.06-.15-.5-.08-.5-.27-.1-.02.15-.02.04-.08.08-.05.08.01.13-.05-.1-.07-.02-.2-.15-.3l.06-.05c-.22-.08-.1-.35-.3-.37-.16-.12.1-.23-.14-.3l.03-.12c-.04-.08-.14.03-.15-.08.05-.03-.03-.13.05-.12-.05-.24-.4-.24-.45-.57-.13.04-.17-.12-.27-.1.03-.04-.2-.2 0-.18.02 0 .03.02.02.04l.07-.04c-.01-.2-.26-.16-.36-.3.02.05.07.1 0 .1l-.1-.1.07-.02-.13-.18-.03.08c-.05-.1.01-.23-.16-.23-.08.01.01.14-.1.1-.07-.13-.2-.34-.32-.48-.04.08-.08.04-.13.02l.04-.06c-.22-.04.04-.17-.17-.23l-.1.06c-.23.01.02-.18-.26-.14.07.04-.07.15-.12.07l.06-.04c-.05-.02-.08-.01-.1-.04.05-.01.07-.08 0-.1l.1-.04-.2.02c-.05-.13-.25-.14-.24-.25 0 0-.18-.18-.28-.1.08-.03-.02-.13.05-.18-.1.03-.3 0-.3-.1h.02c-.2-.2-.46-.14-.64-.34-.03.08-.12-.02-.15.1-.27-.02-.3-.4-.54-.14-.1-.03-.1-.13-.14-.17l.03-.01c-.2-.06-.27-.1-.4-.16-.1 0-.16.14-.28.05.07-.04.01-.05-.04-.07.04 0 .05-.01.01-.08-.02.01-.04.02-.05.02-.1-.03-.08-.01-.05.01-.01.01-.01.02 0 .04-.05-.1-.24-.1-.2-.2-.26-.08-.48-.03-.7-.07 0-.06.06-.1.13-.1l-.15-.03c.03-.08.1-.01.15-.01-.13-.2-.4 0-.58-.18l-.06.05-.01-.01c-.01.03-.07.06-.1.06-.01-.08.05-.15-.05-.18-.06-.1-.24-.04-.36-.03.05.03.02.06-.01.08-.05-.01-.06-.1-.1-.07v-.1c0 .1-.16.05-.2.1-.01-.08.1-.04.12-.08-.2-.05-.1-.02-.32-.07-.13.04 0 .1-.08.16-.1-.01-.2.03-.3-.05l.02.1c-.2.02-.3-.02-.4-.13-.02.01-.04.01-.07.02.22-1.08.58-2.13.74-3.14.01.07.07.12-.02.47.18-.72.14-.8.36-.9.2-.08.33.03.3.1l.06.03c1.27.7 3.02 1.28 4.57 1.54 1.56.28 3 .33 3.9.24l-.13.04c1.06-.14 1.37.02 2.55-.1.06.02.15.03.14.04 1.13-.18 3.37-.28 4.27-.57l.08.1c.76-.18 1.5-.38 2.23-.64l-.84.24c.2-.38 1.76-.3 3.2-1.24 1.45-.67 2.44-2.08 3.76-2.96.5-.6-.37.6.44-.2.13.1-.35.42-.04.33.82-.78 1.52-1.1 2.4-2.2l.13.04c.25-.37.57-.76.8-1.03.2-.2.5-.4.76-.47.56-.18 1-.1 1.46-.03 1.73.55 1 .76 2.85 1.25zm8.13-213.98c.02.01.05.01.08.01l-.08.01zm-29.68 96.98l.02.08c.17-1.65.25-2.68.18-3.83.18-.17.1-1.35.18-1.74l.02.04c-.07-1.02.24-2.07.18-3.04.01.04.06.06.05.3.02-.7.05-1.68.15-1.72.08-1.7.28-4.04.18-5.14l.02.08c-.07-.62.03-.8.02-1.5.02-.04.03-.1.03-.08-.06-.68.1-1.96.1-2.5l.07-.03.07-1.34-.05.5c-.17-.18.18-1 .12-1.98.08-.9-.26-1.87-.12-2.8-.06-.46.1.4.1-.27.1-.02.04.32.13.15 0-.66.17-1.08.15-1.9l.08-.03c-.07-1.07.22-2 .14-2.7.01-1.1.27-.72.2-1.87l.13-.44c.05-.5-.1-.36-.02-.9.06.04.1-.68.13-.36.18-1.22.02-2.5.3-4.1-.1-.36.02-1.17-.05-1.43.06-.04.1-1.63.17-.7 0 .08-.01.22-.03.2l.07.1c.2-.9.03-1.68.1-2.58-.04.27-.06.63-.1.38l.06-.84.05.18.12-1.26-.1.17c.08-.6.22-.82.16-1.52-.04-.32-.14.58-.12-.07l.35-3.1c-.1.1-.07-.2-.07-.48l.08-.03c-.03-1.12.2-.4.18-1.5l.05.1-.14-.3c-.08-1 .2-.53.06-1.65-.02.44-.18.2-.1-.34l.06.14c0-.3-.02-.4.01-.6.03.18.1.1.1-.34l.07.3-.08-.84c.12-.64.08-1.66.2-1.92 0 0 .14-1.38.05-1.7.05.28.13-.48.2-.26-.06-.36-.05-1.42.06-1.84v.08c.18-1.56.05-2.68.24-4.08-.1.06 0-.68-.12-.5-.02-1.46.4-2.63.08-3.18.01-.26.03-.42.06-.56.3.13 1.02.12 1.02.12 1.5 0 2.2-.36 3.87-.85 1.48-.37 1.92-.33 3.4-.96.35-.14.72-.3 1.07-.45l1.02-.52c.27-.25.87-.44 1.18-.73l.18-.01c.1-.1.24-.2.4-.24v.02c.16-.15.4-.24.46-.32v.02l.2-.15v.05c.28-.25.6-.46.9-.62l-.07-.06c.67-.3.75-.64 1.35-.93l.01.02c.53-.66 1.12-.7 1.62-1.4-.06.1.06 0 .07.03.28-.27.6-.56.46-.7.2-.2.2-.13.27-.1-.05-.05.1-.25.25-.4l-.05.1.43-.47-.2-.01c.26-.2.18.06.4-.2l-.1-.08c.35-.3.65-.4 1-.7.62-.7 1.2-1.5 1.67-2.34.53-.8.96-1.63 1.48-2.34l.12-.03c.13.03.08-.5.2-.5l.03-.2c.04-.04.12-.14.1-.03.08-.17.07-.18.1-.32l.16-.15c.38-.64.5-1.28.8-2 .25-.4.5-1.04.66-1.7.2-.66.3-1.35.38-1.85.16-1.4.92-2.98.8-4.47.02-.05-.01-.17-.02-.17a14.83 14.83 0 0 0 .08-1.34s.02-.4 0-.94c-.01-.53-.07-1.2-.18-1.7-.01-.06-.03-.1-.04-.16 3.54-.2 7.28.2 10.7-.01-.13.02-.2.1-1 .1 2.5-.04 5.9-.1 6.1.07l8.57-.03 4.23-.03 1.9-.03c.2 0 .16-.01.24-.01l.15-.01.32-.03c0 .25-.01.48-.01.68 0-.1-.01-.13-.02-.17.01.02 0 .16-.01.3l-.03.36-.06.64-.15 1.12c-.1.73-.23 1.5-.36 2.7-.04.13-.08.3-.08.27-.16 2.37-.94 6.85-1.13 8.76l-.13.1-.62 4.68.26-1.74c.22.65-.68 3.5-.94 6.93-.47 3.17-.24 6.52-.82 9.8-.07 1.6-.05-1.42-.25.95-.17.06.05-1.1-.16-.52-.23 2.32-.66 3.76-.92 6.63l-.14.1c-.26 3.74-1.06 7-1.16 9.5-.38 3.85-.7 2.52-.94 6.55l-.36 1.53c-.24 1.7.06 1.25-.25 3.13-.1-.13-.37 2.4-.34 1.26-.68 4.27-.77 8.74-1.77 14.34.05 1.25-.44 4.07-.4 5-.1.14-.78 5.68-.54 2.47.02-.28.1-.76.12-.72l-.07-.4c-.66 3.18-.67 5.85-1.16 9.02.17-.94.34-2.2.3-1.34l-.44 2.95v-.63l-.7 4.38.22-.6c-.38 2.13-.7 2.86-.9 5.26l-.26-.03-.32-.05-.22-.04-.43-.1c-.56-.13-1.12-.27-1.8-.38-5.8-.4-12.1-.23-17.48-.86l-.23-.16c-.1-.22-1.5.24-1.7.03l-.63.06c-.17-.05-.55-.1-.23-.14-.58-.04-.6-.01-1.02.04l-.62-.17c-2.3-.23-4.26-.07-6.67-.25-2.9-.43-8.37-.47-11.52-.5-1.42.03-2.9-.08-4.42-.22.13-.6.35-1.73.66-3.64zm47.1 6.4c-.03 0-.07-.01-.1-.01.1-.4.23-1 .1.01zm-5.47 13.35c.14.01.3.01.44.02.03.1.07.2.1.28-.18-.08-.36-.18-.54-.3zm3.92-5.15c-.03.1-.06.18-.1.23l-.18 1c-.01.06-.01.1-.02.15-.1.3-.25.57-.45.8.1-.05.1.03 0 .17-.01-.01-.02-.02-.02-.05 0 .04-.04.1-.06.15a2.99 2.99 0 0 1-.78.64l-.14-.06c-.06.03-.1.05-.16.07h-.2a3.03 3.03 0 0 0-.29-.02l-.73-.04-1.38-.03c-.9-.01-1.76-.02-2.72-.16.08.15-.94.01-.7.2-1.77.06-3.22-.44-4.06-.2h-.97c.42.02.65.06.75.1-.03.02-.07.02-.1.04-.9-.02-1.07-.2-1.54-.26l.22-.02c-1.56-.05-2.12-.08-3.17-.15l.87-.07-2.94.02-.8-.1c-2.23-.2-5.15-.3-5.97-.5 0 0-4.86-.4-5.98-.3.98-.05-1.7-.27-.92-.36-1.27.05-5-.1-6.47-.34h.28c-2.75-.26-5.1-.36-7.4-.47l-3.42-.18-1.74-.12-.9-.08c-.33-.03-.57-.05-.8-.1.07.08-.38.04-.76-.1-.4-.13-.7-.35-.56-.13-.9-.5-1.47-1.44-1.6-2.34-.08-.47-.04-.85.01-1.42l.14-1.5c.17-1.92.26-3.43.04-4.37.16.03.33.07.5.1a5.71 5.71 0 0 0 1.36.05c-.05.02-.1.1-.4.1.97.02 2.3.02 2.37.2 2.32.08 5.56.33 7.06.14l-.1.04c.86-.14 1.1.03 2.05-.01.05.02.12.04.1.05.93-.13 2.7.12 3.45.08l.04.1 1.84.07-.7-.06c.25-.3 1.38.27 2.73.14 1.25.1 2.57-.5 3.85-.28.63-.1-.56.2.37.14.02.16-.44.08-.2.22.9-.03 1.48.24 2.6.2l.04.13c1.47-.15 2.75.3 3.73.15 1.5-.02 1 .42 2.57.26l.6.2c.67.06.5-.18 1.23-.06-.05.1.94.13.5.2 1.68.26 3.43-.05 5.63.35.5-.18 1.6 0 1.97-.13.05.1 2.24.13.97.26-.1.01-.3 0-.28-.04l-.16.1c1.25.3 2.3 0 3.56.1-.37-.06-.86-.08-.53-.14l1.16.08-.25.1 1.73.15-.23-.14c.84.1 1.13.34 2.1.2.44-.08-.8-.2.1-.2 1.13.15 2.82.37 4.26.48-.13-.15.26-.12.66-.13.01.04.03.08.03.13.32-.13.1.14.1.17-.01.01 0 .02.02.03-.03.01-.06.02-.1.04a.61.61 0 0 1 .28-.07c.05.08.06.08.04.22-.03.16-.08.25-.12.34-.08.2-.16.4-.1 1.2.04-.32.12-.36.17-.23-.03.18-.07.36-.1.54l-.01-.03c-.01.06-.01.1-.01.16l-.1.55c-.05-.05-.14.1-.2.57l-.1-.42.04 1.12-.03.17c-.1.4-.18.87-.25 1.3l-.18.93zm42.18-3.48c.1.13-.9.23-.6.37-1.82.5-3.44.32-4.1.9l-.75.18c-.37.03-.57-.02-.9.02l.2-.07c-1.65.35-2.12.44-3.36.66-.6.17-.65.45-1.76.6.33-.17-.1-.07-.52.01.26-.06.33-.12-.22-.1-.07.05-.18.1-.3.12-.01-.01-.03-.01-.02-.02-.68.16-.55.17-.23.13-.01.02.02.03.12.04h-.03c-.74.01-1.95.37-2.07.2a40.38 40.38 0 0 0-2.12.49l-1.38.28-.12-.1c-.7.2-1.4.33-2.1.46.14-.1.7-.17 1.02-.25-.9.03-1.82.3-2.78.55-1.27.2-2.44.37-3.45.6-.1.01-.2.02-.37.05-.5.01-1.3.23-2.03.43-1.25.16-1.3-.06-3.8.6l-1.34.08c-1.44.24-1 .4-2.6.6.08-.12-2.03.3-1.1.02-1.7.24-3.4.6-5.2.98a4.55 4.55 0 0 0 1.02-1.17 3.33 3.33 0 0 0 .38-.98c.08-.33.1-.54.16-.83.05-.33.1-.67.12-1.04l.37-1.68.93-5.8c.98-.22 2.27-.37 2.85-.54l.07.1 1.78-.36-.67.1c.18-.34 1.4-.06 2.65-.5 1.22-.2 2.34-1.08 3.63-1.17.57-.25-.5.33.4.05.06.15-.4.18-.15.26.87-.24 1.48-.1 2.54-.42l.07.1c1.38-.5 2.7-.34 3.6-.73 1.44-.37 1.05.18 2.53-.34l.62.05c.66-.1.43-.3 1.17-.34-.02.1.93-.1.52.1 1.67-.14 3.28-.85 5.5-.98.43-.3 1.54-.37 1.86-.6.07.08 2.18-.4 1 .03-.1.04-.3.07-.28.03l-.12.15c1.27 0 2.2-.54 3.43-.73-.37.03-.85.13-.54-.02l1.13-.2-.22.15 1.7-.25-.26-.08c.84-.1 1.17.07 2.06-.28.4-.18-.8-.02.05-.22 1.12-.12 2.8-.3 4.2-.52-.16-.12.22-.18.6-.28l.07.1c1.35-.43 1 .1 1.17-.08-.02.03-.03.07-.05.1a1 1 0 0 1 .19-.3l.04-.03c.1.04.07.17.02.23-.02.03-.04.06-.03.1.04.16.1.4.26.74-.13-.58.22-.33.3.4l-.15-.16c.1.4.18.52.2.8-.1-.23-.2-.1-.06.5l-.22-.37.43 1.07c.04.88.46 2.2.36 2.6l.13.87c.05.4.01.85.08 1.03-.05-.3-.26.47-.35.2.03.2-.04.56-.2.9s-.42.66-.62.78l.04-.07c-.6.56-1.2.95-1.8 1.17-.12.06-.34.1-.56.16l-.65.14c-.43.1-.88.16-1.36.2zm5.9 102.9c-.02.01-.03.01-.05.02-.1-.34-.23-.7.05-.02zM269.9 440.9c-.15-.03-.54.03-.54.06l-4.25-.06h-3.6c-.1-2.48-.08-4.1-.23-5.9.28-.28.17-2.22.34-2.84l.02.06c0-.26.01-.52.04-.77.34.1.65.03 1.16.1.53.2.6.4 1.18.53.25.1.54.18.8.26.17-.07.32.14.5.1l.02.1c.06-.01.13-.01.16.05h-.01c.1-.02.16.05.2.04l-.01.02.1.03-.03.02a.65.65 0 0 1 .37.15l.03-.08c.2.2.35.1.5.32l-.01.02c.38-.05.32.37.7.36-.05 0-.01.05-.03.06.13.06.27.13.36-.01.08.06.04.1.01.16.04-.06.13-.03.2.01h-.05l.2.12.05-.14c.07.1-.08.16.04.2l.07-.1c.13.12.08.33.15.5.47.45 1.2.8 1.44 1.43l-.05.08c-.1.1.25.02.17.1l.1.02c-.01.03 0 .08-.04.07.04.06.05.05.12.06l-.02.1c.12.24.35.36.5.6.05.37.48.84.72 1.14.4.4.16 1.15.52 1.57-.01.02.04.05.05.05l.12.47s.12.48.27.82c-.77-.02-1.54-.01-2.3.05zm55.52.3c-5.96-.12-12.36.34-17.9-.04l-.24-.15c-.1-.22-1.53.3-1.74.1l-.65.1c-.18-.04-.56-.08-.24-.13-.6-.01-.6.02-1.04.1l-.64-.14c-2.35-.12-4.35.13-6.83.06-2.97-.3-8.57-.07-11.8.05-3.6.23-7.65-.27-11.5-.32.07-.12.13-.27.2-.48l.03.01c.01-.3-.02-.48-.2-.64.16-.08-.05-.23-.01-.3h.02c-.17-.13 0-.38-.17-.5.02 0 .06-.01.08.03-.06-.1-.15-.26-.06-.3-.13-.27-.24-.68-.47-.78h.03c-.14-.05-.07-.12-.17-.2.01-.01.01-.02.02-.02-.15-.06-.17-.3-.25-.36l.06-.04-.12-.2.03.08c-.17.06.02-.2-.17-.3-.06-.15-.5-.08-.5-.27-.1-.02.15-.02.04-.08.08-.05.08.01.13-.05-.1-.07-.02-.2-.15-.3l.06-.05c-.22-.08-.1-.35-.3-.37-.16-.12.1-.23-.14-.3l.03-.12c-.04-.08-.14.03-.15-.08.05-.03-.03-.13.05-.12-.05-.24-.4-.24-.45-.57-.13.04-.17-.12-.27-.1.03-.04-.2-.2 0-.18.02 0 .03.02.02.04l.07-.04c-.01-.2-.26-.16-.36-.3.02.05.07.1 0 .1l-.1-.1.07-.02-.13-.18-.03.08c-.05-.1.01-.23-.16-.23-.08.01.01.14-.1.1-.07-.13-.2-.34-.32-.48-.04.08-.08.04-.13.02l.04-.06c-.22-.04.04-.17-.17-.23l-.1.06c-.23.01.02-.18-.26-.14.07.04-.07.15-.12.07l.06-.04c-.05-.02-.08-.01-.1-.04.05-.01.07-.08 0-.1l.1-.04-.2.02c-.05-.13-.26-.14-.24-.25 0 0-.18-.18-.28-.1.08-.03-.02-.13.05-.18-.1.03-.3 0-.3-.1h.02c-.2-.2-.46-.14-.64-.34-.03.08-.12-.02-.15.1-.27-.02-.3-.4-.54-.14-.1-.03-.1-.13-.14-.17l.03-.01c-.2-.06-.27-.1-.4-.16-.1 0-.16.14-.28.05.07-.04.01-.05-.04-.07.04 0 .05-.01.01-.08-.02.01-.04.02-.05.02-.1-.03-.08-.01-.05.01-.01.01-.01.02 0 .04-.05-.1-.24-.1-.2-.2-.26-.08-.48-.03-.7-.07 0-.06.06-.1.13-.1l-.15-.03c.03-.08.1-.01.15-.01-.13-.2-.4 0-.58-.18l-.06.05v-.01c-.01.03-.07.06-.1.06-.01-.08.05-.15-.05-.18-.06-.1-.24-.04-.36-.03.05.03.03.06-.01.08-.05-.01-.06-.1-.1-.07l.02-.1c0 .1-.16.05-.2.1-.01-.08.1-.04.12-.08-.2-.05-.1-.02-.32-.07-.13.04 0 .1-.08.16-.1-.01-.2.03-.3-.05l.02.1c-.2.02-.3-.02-.4-.13-.02.01-.04.01-.07.02.22-1.08.58-2.13.74-3.14.01.07.07.12-.02.47.18-.72.14-.8.36-.9.2-.08.33.03.3.1l.06.03c1.27.7 3.02 1.28 4.57 1.54 1.57.28 3 .33 3.9.24l-.13.04c1.06-.14 1.37.02 2.55-.1.06.02.15.03.14.04 1.13-.18 3.37-.28 4.27-.57l.08.1c.76-.18 1.5-.38 2.23-.64l-.84.24c.2-.38 1.76-.3 3.2-1.24 1.45-.67 2.44-2.08 3.76-2.96.5-.6-.37.6.44-.2.13.1-.35.42-.04.33.82-.78 1.52-1.1 2.4-2.2l.13.04c.25-.37.57-.76.8-1.03.2-.2.5-.4.76-.47.56-.18 1-.1 1.46-.03 1.74.58 1 .8 2.86 1.3l.62.44c.12.05.2.1.3.1-.01.04-.01.1-.02.14-.17.25-.35.24-.44.55-.08.13-.12.28-.16.42.08.12-.08.17-.03.3H296c.02.04.03.08-.02.1l-.02-.01c.03.06-.02.1-.01.12l-.02-.01-.01.05-.02-.02a.2.2 0 0 1-.07.21l.08.03c-.15.08-.01.2-.17.27l-.02-.01c.13.25-.26.16-.14.4-.01-.03-.04-.01-.06-.02-.01.08-.04.16.1.24-.03.05-.07.02-.13-.01.07.03.07.1.06.13l-.02-.03-.03.12.14.04c-.07.04-.16-.06-.16.01l.1.05c-.06.07-.24.04-.36.08-.2.3-.12.8-.46 1l-.1-.03c-.12-.05.13.17.01.13l.03.06c-.03 0-.06.01-.07-.02-.02.03 0 .04.02.08h-.1c-.12.1-.04.28-.14.4-.23.1-.25.47-.26.68.04.34-.56.4-.5.75-.02 0 .01.04.02.05l-.14.23s-.62 1.1.77.73l.02.02c.13-.1.18-.17.1-.32.16.06.07-.1.13-.1v.01c-.08-.14.18-.1.1-.24.01.01.05.03.05.05.01-.06.01-.16.1-.12.04-.14.18-.3.08-.46l.02.02c-.07-.1.02-.07 0-.15.01 0 .02 0 .03.01-.07-.1.06-.16.04-.22l.06.03.04-.1-.03.03c-.16-.1.14-.03.07-.16.06-.06-.27-.32-.15-.35-.06-.07.1.1.08.01.1.04.04.05.12.07-.01-.07.13-.04.1-.13l.07.03c-.08-.14.17-.1.08-.22-.01-.1.23.04.14-.1l.1.01c.03-.03-.1-.08-.03-.1.06.03.07-.03.1.02.14-.05-.03-.26.2-.3-.1-.08 0-.1-.07-.18.05.02.07-.12.14 0 .01.01 0 .02-.02.01l.06.04c.16-.01 0-.16.05-.22-.03.01-.04.04-.08 0l.04-.06.05.04.08-.08-.07-.02c.06-.03.18.01.1-.1-.04-.05-.1 0-.1-.06.08-.04.2-.1.26-.17-.08-.03-.07-.05-.07-.08l.07.03c-.05-.13.15.03.13-.08l-.1-.06c-.1-.14.16.03.02-.15-.01.04-.15-.06-.1-.1l.06.04c0-.03-.02-.05 0-.06.03.03.1.05.1.02l.07.06-.1-.12c.1-.01.05-.14.15-.1 0 0 .1-.08.01-.16.05.05.1.01.17.06-.06-.06-.07-.17.02-.17v.01c.14-.08 0-.26.15-.32-.08-.03-.01-.07-.1-.1-.04-.16.3-.1.02-.3.01-.06.1-.02.13-.04v.02c.02-.1.04-.14.08-.2-.01-.05-.15-.13-.08-.17.05.05.05.02.06-.01 0 .02.02.03.07.02-.02-.01-.02-.03-.03-.04.01-.04-.01-.04-.03-.03-.01-.01-.02-.01-.04-.01.1 0 .05-.12.15-.07.04-.13-.02-.27 0-.4.06.01.1.06.1.1l.02-.08c.07.04.02.06.02.1.16-.03-.03-.23.13-.28l-.05-.05h.01c-.03-.02-.06-.06-.06-.08.07.02.14.07.16.02.08-.01.03-.12.02-.2-.02.02-.05 0-.07-.03.01-.03.08-.01.06-.04l.1.04c-.08-.03-.05-.1-.08-.13.07.02.03.07.08.1l.06-.15c-.04-.08-.08-.03-.15-.1v-.1a2.67 2.67 0 0 1 .24.12c-.1.08 1.02.52.5.4 1.04.53 2.17.9 3.38 1.38 0 .04-.01.08-.02.13-.17.24-.35.24-.42.54-.08.12-.1.28-.16.4.08.12-.08.17-.02.28h-.08c.02.04.03.08-.02.1v-.01c.03.06-.02.1 0 .12l-.02-.01-.01.05-.02-.02c.02.1-.01.16-.06.2l.08.03c-.15.08-.01.2-.17.27l-.02-.01c.14.24-.25.15-.13.4-.02-.03-.04-.01-.06-.02-.01.08-.04.15.12.23-.03.05-.07.02-.13-.01.07.03.07.1.06.13l-.02-.03-.03.12.14.04c-.07.04-.16-.06-.16.01l.1.05c-.06.07-.24.04-.36.08-.2.3-.1.78-.44.98l-.1-.03c-.12-.05.13.17.02.13l.04.06c-.03 0-.06.01-.07-.02-.02.03 0 .04.02.08h-.1c-.12.1-.03.28-.13.4-.23.1-.24.46-.25.67.05.33-.55.4-.48.73-.02 0 .01.04.02.05l-.13.22s-.6 1.1.78.72l.02.02c.12-.1.18-.17.1-.32.16.06.07-.1.13-.1l.01.01c-.08-.14.18-.1.1-.23.01.01.05.03.05.05.01-.06.01-.15.1-.1.04-.14.17-.3.07-.45v.02c-.07-.1.02-.07-.01-.14.01 0 .02 0 .03.01-.07-.1.06-.16.04-.22l.06.03.04-.1-.03.03c-.16-.1.14-.03.07-.15.06-.06-.27-.3-.16-.34-.06-.07.1.1.08.01.1.04.04.05.12.07-.02-.07.13-.04.1-.13l.07.03c-.08-.14.16-.1.07-.22-.01-.1.23.04.14-.1l.1.01c.03-.03-.1-.08-.03-.1.06.03.07-.03.1.02.14-.05-.03-.25.18-.3-.1-.08 0-.1-.07-.17.05.02.07-.12.14 0 .01.01 0 .02-.02.01l.06.04c.16-.01 0-.16.05-.22-.03.01-.04.04-.08 0l.04-.06.05.04.08-.08-.07-.02c.06-.03.18.01.1-.1-.04-.05-.1 0-.1-.06.08-.04.2-.1.26-.17-.08-.03-.07-.05-.07-.08l.07.03c-.05-.13.15.03.13-.08l-.1-.06c-.1-.14.16.03.02-.15-.01.04-.16-.06-.1-.08l.06.04c0-.03-.03-.05 0-.06.03.03.1.05.1.02l.07.06-.1-.12c.1-.01.05-.13.15-.1 0 0 .1-.08.01-.16.05.05.1.01.17.06-.06-.06-.07-.17.02-.17l.01.01c.14-.08 0-.26.14-.32-.08-.03-.01-.07-.12-.1-.04-.16.3-.1.02-.3.01-.06.1-.02.13-.04l.01.02a.42.42 0 0 1 .07-.2c-.01-.05-.15-.13-.1-.17.05.05.05.02.06-.01 0 .02.02.03.07.02-.02-.01-.02-.03-.03-.04.01-.04-.01-.04-.03-.03-.01-.01-.02-.01-.04-.01.1 0 .05-.12.15-.07.04-.13-.02-.26-.01-.38.06.01.1.06.1.1l.02-.08c.07.04.02.06.03.1.16-.02-.03-.23.12-.27l-.05-.05h.01c-.03-.01-.06-.06-.06-.08.07.02.14.07.16.02.08-.01.02-.12.01-.2-.02.02-.05 0-.07-.03.01-.03.08-.01.06-.04l.1.04c-.08-.03-.05-.1-.08-.13.07.02.04.06.08.1.03-.1.03-.07.05-.13.6.26 1.23.55 1.88.92.62.04 1.8.7 2.27.73.03.1 2.48 1.12 1 .68-.13-.04-.34-.13-.3-.16l-.22.04c1.3.83 2.6 1.02 3.96 1.7-.4-.23-.94-.47-.54-.38l1.27.6-.3-.03 1.87.95-.2-.24c.9.5 1.13.85 2.24 1.2.5.14-.8-.58.2-.14l4.43 2.63c-.07-.2.33.03.76.25l-.02.14c1.63.8.44.57 1.96 1.44l-.18-.02.52.06c.68.37.77.57.85.74.03.08.12.2.16.26.04.03.2.28.45.64-.3-.6.14-.42.4.4l-.2-.16c.2.43.3.56.36.87-.15-.25-.2-.1.01.57a5.71 5.71 0 0 0-.28-.4c.2.4.38.8.55 1.2.08.65.26 1.54.34 2.2-.18-.08-.38-.1-.6-.12zm-48.48 5.23c-.03-.01-.04-.03-.04-.04l.1.03c-.02.01-.04.01-.05.01z"/></svg>