<svg xmlns="http://www.w3.org/2000/svg" width="142.842" height="243.551" viewBox="0 0 142.842 243.551">
  <g id="_107" data-name="107" transform="translate(-168.119 -207.08)">
    <path id="Path_11724" data-name="Path 11724" d="M251.67,438.53c-5.3,0,.5-14.6.7-19.2-.3-1.8-3-25.6-6.4-50.8-2.3-17.4-3.3-42.1-3.7-44.5-.8-5.8-5.9-51.5-5.9-51.5l34.5-6.86s3.2,35.06,2.6,55.66c-.2,6.9-2.7,94.8.8,98.5,2.4,2.1,8.7,5.5,23.1,10,6.7,1.9,10.8,2.6,10.5,5.5s-1.4,2.8-1.4,2.8Z" fill="#fff"/>
    <path id="Path_11725" data-name="Path 11725" d="M245.36,367.2l-.13-1.32A11.232,11.232,0,0,0,245.36,367.2Zm-3.28-51.28c0,.03.01.05.01.07l.05.34-.06-.4Z"/>
    <path id="Path_11726" data-name="Path 11726" d="M185.77,438.53c-5.3-.8-1.6-11.8.6-16.6.3-2.1,3.9-27.9,6.3-55.6,1.7-20.5,10.4-50.8,10.8-56.5.5-6.5-.34-42.1-.34-42.1l44.7,2.75s-9.77,31.05-12.97,47.45c-2.8,14.4-28.8,99.2-27,101.9,2.4,2.1,8.7,5.5,23.1,10,6.7,1.9,10.8,2.6,10.5,5.5s-1.4,2.8-1.4,2.8l-54.3.4Z" fill="#fff"/>
    <path id="Path_11727" data-name="Path 11727" d="M193.8,354.18l.3-1.53a1.334,1.334,0,0,0-.08.35Zm21.47,36.3-.1.36ZM204.4,294.62v0Z"/>
    <path id="Path_11728" data-name="Path 11728" d="M171.37,252.03s14.3,21.3,55.9,22.6c41.6,1.2,70.4-14.9,70.4-14.9a64.483,64.483,0,0,0-13.1-21.6c-9.8-10.9-14.1-29.9-14.1-29.9l-69.5.2s-.9,17.5-12,27.2c-11.2,9.7-17.6,16.4-17.6,16.4Z" fill="#fff"/>
    <path id="Path_11729" data-name="Path 11729" d="M247.65,385.5l.02-.04C247.65,385.44,247.65,385.44,247.65,385.5Zm-56.32-9.65.03-.04C191.35,375.79,191.35,375.79,191.33,375.85Zm14.12-167.43c-.1-.01-.06-.03.2-.04l-.95.03-1.64.02,2.4-.01Zm5.22,63.68.78.2A2.437,2.437,0,0,0,210.67,272.1Zm-3.3-2.52.22-.34C207.56,269.23,207.49,269.31,207.37,269.58Zm7.83-13.88v.02l-.03.1Z"/>
    <path id="Path_11730" data-name="Path 11730" d="M241.65,438.23h-56.3a2.5,2.5,0,0,0-2.5,2.6v2.9h61.5v-2.9A2.737,2.737,0,0,0,241.65,438.23Zm65.63,0h-56.3a2.5,2.5,0,0,0-2.5,2.6v2.9h61.5v-2.9a2.737,2.737,0,0,0-2.7-2.6Z" fill="#fff"/>
    <path id="Path_11731" data-name="Path 11731" d="M249.73,441.24h0l.08.13Z"/>
    <path id="Path_11732" data-name="Path 11732" d="M310.9,444.65v-1.93h-.01l-.01-.88-.03-.98a3.91,3.91,0,0,0-.27-1.17,3.228,3.228,0,0,0-1.4-1.58,2.841,2.841,0,0,0-1.37-.37c-.04,0-.07.01-.1.01a5.461,5.461,0,0,0,.4-1.1,9.27,9.27,0,0,0,.23-1.33,2.536,2.536,0,0,0-.97-2.25,7.155,7.155,0,0,0-.93-.67l-.5-.34a4.955,4.955,0,0,0-1.62-.66l-.73-.35c-.76-.26-.67-.1-1.34-.32v-.01a1.774,1.774,0,0,0-.5-1.63,2.486,2.486,0,0,0-.9-.63l-.7-.27-1.1-.4c-.4.06-.92-.38-1.38-.37l-.1-.17a.655.655,0,0,1-.45-.14l.02-.03a3.434,3.434,0,0,1-.56-.14l.02-.03-.25-.1.06-.03a3.092,3.092,0,0,1-1.06-.37l-.03.15c-.63-.43-1-.26-1.54-.7l.02-.03c-.93.03-1.14-.75-2.1-.74.12,0-.01-.1.01-.12-.4-.1-.8-.26-.9,0-.4-.15-.32-.18-.35-.3-.03.15-.4.01-1,.3.08-.06.16-.1.24-.15a1.213,1.213,0,0,0-.7.58,1.318,1.318,0,0,0-.14.65,1.948,1.948,0,0,1,.25-.18.691.691,0,0,1-.1.25l.01-.1c-.1.07-.2-.03-.2.22l.2.03c0,.02-.01.03-.02.05l-1.85-.64c.44.2,1.03.4.62.3l-1.27-.5v-.03l.18.03-.17-.07.1-.57a2.049,2.049,0,0,0-.16-1.3,4.555,4.555,0,0,0-.47-.57,3.2,3.2,0,0,0-.72-.47l-.3-.15-.23-.1a1.6,1.6,0,0,0-.44-.14l-.14-.2a1.015,1.015,0,0,1-.56-.24l.03-.03a6.563,6.563,0,0,1-.7-.26l.03-.03-.32-.14h.08a5.3,5.3,0,0,1-1.34-.6l-.03.15c-.8-.58-1.24-.47-1.94-1.03l.03-.03c-1.16-.15-1.44-1-2.62-1.2.15.02-.02-.1.01-.12l-.36-.15-.54-.2c-.33-.12-.53-.12-.54.04-.5-.17-.42-.2-.5-.34.01.07-.07.1-.22.12l-.4.14c0-.02-.01-.03-.01-.05L274,417l.08.37a61.658,61.658,0,0,1-.74-7.57l.01-.4c-.3-3.44-.35-10.08-.43-12.87l.06-.18-.08-6.88v2.57c-.2-.9.08-5.2-.03-10.2.03-4.67-.33-9.48-.2-14.34-.06-2.32.12,2.04.1-1.42.1-.1.04,1.62.13.73,0-3.4.17-5.57.17-9.76l.08-.17c-.05-5.47.28-10.3.23-13.95.06-5.64.3-3.77.3-9.65l.16-2.28c.08-2.5-.08-1.8.04-4.58.06.17.15-3.52.16-1.9.33-6.3-.05-12.84-.2-21.14-.2-1.8-.3-5.98-.47-7.32.04-.23-.42-8.37-.06-3.7a10.255,10.255,0,0,1,.04,1.07l.1.56c-.1-4.74-.54-8.6-.8-13.28.06,1.4.17,3.23.05,2l-.25-4.35.12.9-.36-6.48v.9l-.14-3.3c.85-.22,1.6-.43,2.32-.64.6,1.15,1.26,2.3,1.5,2.2.12.22.2.38.25.5l.14.3c.05.13,0,.14.02.25.05-.04.27.18.63.4a3.273,3.273,0,0,0,1.4.48,2.593,2.593,0,0,1-.48-.04,2.645,2.645,0,0,0,1.5-.03c.27-.1.43-.17.6-.25l.5-.23-.5-.04c1.1-.4.4.15,1.4-.35l-.1-.17c1.5-.6,2.5-.7,4-1.2,1.5-.63,3-1.28,4.56-2a2.84,2.84,0,0,0,1.6-3.1,3.062,3.062,0,0,0-.33-.87,5.134,5.134,0,0,0-.47-.62l-.5-.6a49.939,49.939,0,0,0,4.88-2.25c-.68.36.33-.07.3-.01l1.3-.65.67.78-.14-.28c.27.34.42.6.6.85l.3.38a1.748,1.748,0,0,0,.33.3,2.816,2.816,0,0,0,.52.28c.37.1.05-.06-.13-.22-.17-.18-.3-.22.36.1a2.448,2.448,0,0,0,1.5.2,2.215,2.215,0,0,0,.84-.32l.5-.3c.65-.4,1.32-.84,1.93-1.25-.2-.04.13-.26.44-.52l.1.07c1.17-1.05.62-.1,1.8-1.13l.12-.3c.17-.17.3-.3.4-.38a4.193,4.193,0,0,0,.8-.8,1.293,1.293,0,0,0,.24-.6,2.133,2.133,0,0,0-.12-1.2c.12.5,0,.62-.05.47a6.959,6.959,0,0,0-.45-1.08,2.558,2.558,0,0,1,.26.2,1.882,1.882,0,0,0-.48-.6,2.033,2.033,0,0,1-.26-.25c.22.13.22-.03-.23-.45l.4.2-.98-.67c-.54-.73-1.66-1.62-1.8-2a10.343,10.343,0,0,0-1.75-1.6c.36.2-.36-.6-.05-.47a7.932,7.932,0,0,1-1.88-1.75l.1.07c-1.44-1.65-2.78-2.52-4.04-4.03-.04.16-.72-.63-.67-.3-1.56-1.3-2.34-2.9-3.27-3a7.951,7.951,0,0,1-1-1.23l.18.14-2.5-2.47c-.5-.42-.76-.3-1.52-1.17.33.2-.01-.13-.28-.45.2.2.27.23-.04-.24a.864.864,0,0,1-.26-.2c0-.01-.01-.03.01-.03-.5-.5-.44-.4-.23-.13-.02,0-.02.03.03.13a8.145,8.145,0,0,0-.82-1.02c-.27-.33-.48-.62-.44-.7-1.37-1.63-2.4-2.77-3.46-4.2-.03-.22.26.08.58.5l-.72-1.04c.12-.06.46.56.7.87-.65-1.37-1.9-2.47-2.63-4.1l-.28-.26-.04-.1c-.05.03-.32-.27-.46-.5-.02-.28.24-.12-.2-.88a21.449,21.449,0,0,0-1.5-2.46c.2.44.08.33-.05.17a8.538,8.538,0,0,0-.43-.94l.12-.1c-.06.22-.67-.94-.8-1.06-.01-.28.4.56.53.62l-1.22-2.34c-.52-.8-.06.22-.38-.12a14.344,14.344,0,0,1-1.17-2.32v.33a15.155,15.155,0,0,1-1.44-3.24c-.06-.1-.1-.18-.16-.28-.08-.25-.16-.5-.23-.76l-.6-2.1-.27-1.05-.4-1.7-2.63-.03-1.92-.04-.55-.15c-.24-.2-3.45.33-3.93.13l-1.46.1c-.4-.04-1.27-.08-.55-.13a21.126,21.126,0,0,0-2.35.1l-1.45-.13c-5.3-.1-9.83.18-15.42.15-6.72-.25-19.36.03-26.64.2-1.5.05-3.02.07-4.57.08a1.175,1.175,0,0,1,.07-.2l.04-.12c.02-.05.04-.1-.01-.1a2.5,2.5,0,0,0-.28-.05,11.214,11.214,0,0,0-1.43-.02l-.58.17a8.471,8.471,0,0,1-1,.07,2.222,2.222,0,0,1-.36-.06,2.363,2.363,0,0,0-1.22.07c.5-.02.38.16-.07.2h-.38l.17-.1a4.512,4.512,0,0,1-.84.05c.25-.06.13-.17-.5-.15l.4-.15-1.17.22c-.14-.02-.3-.03-.45-.04h-2.29a6.906,6.906,0,0,1-.26,1.34l-.1.53-.15.67a5.784,5.784,0,0,0-.2,1.3c-.01-.4-.34.6-.4.27a6.088,6.088,0,0,1-.7,2.4l.02-.1c-.87,1.95-1.17,3.5-2.2,5.14.17-.01-.35.87-.08.72-.77,1.87-2.1,3-1.98,3.93a7.692,7.692,0,0,1-.97,1.24l.1-.2a32.774,32.774,0,0,1-1.9,2.9c-.35.53-.2.77-.95,1.63.14-.36-.12.02-.4.36.16-.22.18-.3-.23.08a2.091,2.091,0,0,1-.15.3c-.01,0-.03.01-.03,0-.42.58-.32.5-.1.25,0,.02.04.01.12-.05-.57.5-1.3,1.6-1.5,1.56-1.35,1.68-2.22,2.97-3.36,4.36-.2.1.01-.28.33-.7l-.82.98c-.1-.1.43-.6.67-.9-1.16,1-1.92,2.48-3.28,3.66l-.17.34-.1.07c.04.03-.17.38-.34.6-.26.1-.18-.2-.78.45a17.148,17.148,0,0,0-1.9,2.18c.36-.34.3-.18.18,0-.3.32-.56.42-.76.7l-.14-.08c.23-.02-.7.94-.76,1.1-.26.1.4-.56.42-.7l-1.85,1.9c-.6.75.23-.02,0,.4a15.89,15.89,0,0,1-1.83,1.85l.3-.1a13.688,13.688,0,0,1-2.63,2.4q-1,1.11-1.74,1.86l-.56.45a1.45,1.45,0,0,0,0,2.1l.54.47a50.639,50.639,0,0,0,3.34,3.93l-.1-.03c.83.8,1.52,1.45,2.17,2,.32.28.64.53.96.77.16.1.32.23.48.35a1.865,1.865,0,0,0,.8.38,1.626,1.626,0,0,0,1.65.07,1.845,1.845,0,0,0,.52-.33c.07-.07.15-.14.2-.2l.12-.15.2-.23a57.144,57.144,0,0,0,7,4.37c1.4.7,2.85,1.37,4.4,2.04a.979.979,0,0,0-.1.07,2.341,2.341,0,0,0-.54,1.46,2.68,2.68,0,0,0,.7,1.85,3.087,3.087,0,0,0,.77.6l.43.22.4.2c1.18.6,2.24,1.08,3.24,1.52a21.942,21.942,0,0,0,2.97,1.12l3.2.97.9.27c.08.02.15.05.23.07l.02,9.55c.03,2.8.2,3.23.14,8.23-.06-1.62-.05.43-.06,2.3-.01-1.2-.03-1.57-.08.9.02.35.03.88.03,1.38-.01.02-.01.12-.02.07,0,3.12.02,2.58.04,1.13.01.07.02-.05.04-.5-.1,3.24-.08,9.04-.24,9.4a37.717,37.717,0,0,1-1,6.44l-1.26,5.8-2.45,11.1c-.25.84.1-.95.6-3.17l-1.2,5.42a16.72,16.72,0,0,1,.34-1.8l.67-3c-1.58,6.42-2.86,13.32-4.34,20.93l-.2,1.6-.1.45a9.358,9.358,0,0,1-.12,1l-.26,1.86a15.686,15.686,0,0,0-.7,3.7c-.53,3-.9,8.6-1.22,12.54.2-2.13.18-1.44.12-.52l-.46,4.47-.1.13c.05.26-.43,5.1-.46,5.74-.18,1.08.24-2.96.23-3.45l-1.2,11.46c-.38,4.08.17-.73.04,1.23L188.65,402l.24-1.3c-.74,6.76-1.27,10.8-1.95,15.32l-.54,4.46-.13,1.03v.04a2.482,2.482,0,0,0-1.22-.43c-.24.03.63.37.05.24-.1-.04-.2-.08-.3-.13-.14.3-.3.7-.48,1.15l-.46,1.23c.15-.01.1.14.08.3h-.12c-.02.66-.33.15-.38.8l.13.16c.07.62-.34.22-.2.93.05-.25.3-.04.16.25l-.1-.1c-.02.17.01.24-.05.34-.03-.12-.15-.1-.2.15l-.1-.2.08.52a3.581,3.581,0,0,0-.32.9,2.619,2.619,0,0,1-.32.8s-.14.4-.26.8a3.139,3.139,0,0,0,1,.15c-.38.01.34.26.02.3a2.871,2.871,0,0,1,.38.03c-.06.27-.12.53-.16.8a14.583,14.583,0,0,0-.25,4.72,3.607,3.607,0,0,0,1.17,2.38c-.5.16-.7.27-.8.3s-.12-.02-.2-.03c.07.1-.7.68-1.04,1.5.04-.13.1-.25.14-.37a3.1,3.1,0,0,0-.43,1.84v-.05l.01.44.24-.37c-.07,1-.3.25-.23,1.22h.2l-.04.83a1.925,1.925,0,0,0-.24.01l.07,1.73c.01.13.01.25.02.38.01.1.01.17.02.25.02.15.03.3.05.43a2.7,2.7,0,0,0,.24,1c.09.1.2-.02.35-.5a1.668,1.668,0,0,1,.05-.18v.67a2.516,2.516,0,0,0,1.53,2.3,2.775,2.775,0,0,1-1.34-.87,3.366,3.366,0,0,1-.7-1.37c-.18-.53-.33-.43-.43.1a3.2,3.2,0,0,0,.72,2.34,3.672,3.672,0,0,0,.86.77,2.406,2.406,0,0,0,.43.24,3.386,3.386,0,0,0,1.63.33h-.1c3.67.18,5.94-.17,10.64-.27,4.53.07,5.73.34,10.42.23,2.24.02,4.62-.04,6.8-.07,1.04-.2,2.87,0,4.1-.18l.48.12a5.079,5.079,0,0,1,1.35-.04l-.03.03c.63-.1,1.35-.04,1.66-.08l-.03.04.77-.02-.13.05a25.351,25.351,0,0,1,3.24-.06l-.08-.15c2.14.16,2.92-.14,4.86.05l-.03.04c2.44-.38,3.86.26,6.38-.1-.3.05.13.07.1.1,1.16-.04,2.4-.06,2.42-.35.84,0,.7.1.8.2,0-.12.73-.18,1.4-.18l-.3.05.95-.02.47-.01a3.382,3.382,0,0,0,.6-.06,2.552,2.552,0,0,1-.48-.2c.6,0,.7.01.78.05s.18.1.72-.2l-.1-.17a3.827,3.827,0,0,0,1.37-1.15,2.936,2.936,0,0,0,.6-1.68v.06c.04-.23.07-.47.1-.74v-1.24h.02l-.01-1.07v-.86h-.01l-.01-.88-.03-.98a3.909,3.909,0,0,0-.27-1.17,3.228,3.228,0,0,0-1.4-1.58,2.841,2.841,0,0,0-1.37-.37c-.04,0-.07.01-.1.01a5.461,5.461,0,0,0,.4-1.1,9.27,9.27,0,0,0,.23-1.33,2.536,2.536,0,0,0-.97-2.25,7.153,7.153,0,0,0-.93-.67c-.23-.14-.36-.25-.5-.34a4.955,4.955,0,0,0-1.62-.66q-.362-.181-.73-.35c-.76-.26-.67-.1-1.34-.32h0a1.774,1.774,0,0,0-.5-1.63,2.486,2.486,0,0,0-.9-.63l-.7-.27-1.1-.4c-.4.06-.92-.38-1.38-.37l-.1-.17a.655.655,0,0,1-.45-.14l.02-.03a3.434,3.434,0,0,1-.56-.14l.02-.03-.25-.1.06-.03a3.093,3.093,0,0,1-1.06-.37l-.03.15c-.63-.43-1-.26-1.54-.7l.02-.03c-.93.03-1.14-.75-2.1-.74.12,0-.01-.1.01-.12-.4-.1-.8-.26-.9,0-.4-.15-.32-.18-.35-.3-.03.15-.4.01-1,.3.08-.06.16-.1.24-.15a1.213,1.213,0,0,0-.7.58,1.318,1.318,0,0,0-.14.65,1.948,1.948,0,0,1,.25-.18.69.69,0,0,1-.1.25l.01-.1c-.1.07-.2-.03-.2.22l.2.03c0,.02-.01.03-.02.05-.6-.2-1.2-.38-1.85-.64.44.2,1.03.4.62.3l-1.27-.5v-.03l.18.03-.17-.07.1-.57a2.119,2.119,0,0,0-.16-1.3,4.555,4.555,0,0,0-.47-.57,3.2,3.2,0,0,0-.72-.47l-.3-.15-.25-.1a1.6,1.6,0,0,0-.44-.14l-.14-.2a1.015,1.015,0,0,1-.56-.24l.03-.03a6.56,6.56,0,0,1-.7-.26l.03-.03-.32-.14.08-.02a5.3,5.3,0,0,1-1.34-.6l-.03.15c-.8-.58-1.24-.47-1.94-1.03l.03-.03c-1.16-.15-1.44-1-2.62-1.2.15.02-.02-.1.01-.12l-.36-.15a4.485,4.485,0,0,0-.54-.2c-.33-.12-.53-.12-.54.04-.5-.17-.42-.2-.5-.34.01.07-.07.1-.22.12a1.8,1.8,0,0,0-.4.15c0-.02.01-.04.01-.06l.01-.01h-.01l.1-.74c.25-1.4.56-2.83.87-4.2l3.4-13.78-.1.44c.87-3.65,1.25-4.7,2.32-8.74l.15-.45c.98-3.97,3.2-11.48,4.06-14.67l.12-.2,2.2-7.83-.85,2.92c.1-1.06,1.8-5.9,3.3-11.6,1.54-5.3,2.7-10.88,4.34-16.37.66-2.66-.52,2.36.53-1.6.13-.1-.46,1.85-.1.86,1.04-3.88,1.87-6.3,3.1-11.1l.12-.18,2.28-8.77c.34-1.35.66-2.64.9-3.87l.7-3.4c1.48-6.48,1.23-4.3,2.8-11.04l.44-1.47.77,6.63c.3,2.34.5,2.7.95,6.9-.22-1.35-.01.37.17,1.94-.13-1-.18-1.3.01.76.05.3.12.74.17,1.16,0,.02,0,.1-.01.06.32,2.63.3,2.16.16.94.02.06.02-.04-.01-.42.1,1.36.34,3.3.5,4.85a29,29,0,0,1,.16,3.07l1.54,20.2c0,.75-.17-.8-.33-2.7l.38,4.68c-.08-.03-.26-2.7-.38-4.13.3,5.6,1.03,11.5,1.65,18.02l.22,1.35.04.4a5.7,5.7,0,0,1,.16.83l.23,1.57a12.864,12.864,0,0,0,.24,3.18c.25,2.56.95,7.23,1.4,10.56-.2-1.8-.1-1.22.02-.45.2,1.6.25,2.55.44,3.8l-.06.13c.1.2.62,4.28.72,4.82.05.93-.37-2.5-.48-2.88l1.23,9.68c.5,3.43.01-.64.3,1l1.22,9.5-.06-1.12,1.6,12.95a13.577,13.577,0,0,1-.3,2.15,2.377,2.377,0,0,0-1.18-.4c-.24.03.63.37.05.24-.1-.04-.2-.08-.3-.13-.14.3-.3.7-.48,1.15l-.46,1.23c.15-.01.1.14.08.3h-.12c-.02.66-.33.15-.38.8l.13.16c.07.62-.34.22-.2.93.05-.25.3-.04.16.25l-.1-.1c-.02.17.01.24-.05.34-.03-.12-.15-.1-.2.15l-.1-.2.08.52a3.581,3.581,0,0,0-.32.9,2.619,2.619,0,0,1-.32.8s-.14.4-.26.8a3.139,3.139,0,0,0,1,.15c-.38.01.34.26.02.3a6.224,6.224,0,0,1,1.18.16c-.13.68-.24,1.34-.32,1.95a15.63,15.63,0,0,0-.16,4,3.649,3.649,0,0,0,.55,1.65c-.07.05-.12.1-.1.15-.52.16-.7.27-.82.3s-.12-.02-.2-.03c.07.1-.7.68-1.04,1.5.04-.13.1-.25.14-.37a3.1,3.1,0,0,0-.43,1.84v.39l.24-.37c-.07,1-.3.25-.23,1.22l.2-.01-.04.83a1.925,1.925,0,0,0-.24.01l.07,1.73c.01.13.01.25.02.38.01.1.01.17.02.25.02.15.03.3.05.43a2.7,2.7,0,0,0,.24,1c.09.1.2-.02.35-.5a1.663,1.663,0,0,1,.05-.18v.67a2.516,2.516,0,0,0,1.53,2.3,2.775,2.775,0,0,1-1.34-.87,3.366,3.366,0,0,1-.7-1.37c-.18-.53-.33-.43-.43.1a3.2,3.2,0,0,0,.72,2.34,3.672,3.672,0,0,0,.86.77,2.406,2.406,0,0,0,.43.24,3.386,3.386,0,0,0,1.63.33h-.1c3.67.18,5.94-.17,10.64-.27,4.53.07,5.73.34,10.42.23,2.24.02,4.62-.04,6.8-.07,1.04-.2,2.87,0,4.1-.18l.48.12a5.079,5.079,0,0,1,1.35-.04l-.03.03c.63-.1,1.35-.04,1.66-.08l-.03.04h.77l-.13.05a25.351,25.351,0,0,1,3.24-.06l-.08-.15c2.14.16,2.92-.14,4.86.05l-.03.04c2.44-.38,3.86.26,6.38-.1-.3.05.13.07.1.1,1.16-.04,2.4-.06,2.42-.35.84,0,.7.1.8.2,0-.12.73-.18,1.4-.18l-.3.05.95-.02h.47a3.382,3.382,0,0,0,.6-.06,2.552,2.552,0,0,1-.48-.2c.6,0,.7.01.78.05s.18.1.72-.2l-.1-.17a3.827,3.827,0,0,0,1.37-1.15,2.936,2.936,0,0,0,.6-1.68v.06c.04-.23.07-.47.1-.74v-1.24c-.01-.01-.01-.01,0-.01Zm-7.62-12.5c.2.1.65.27.26.16.7.25.72.23,1.22.38a5.507,5.507,0,0,1,.67.38c1.1.54,1.87,1.2,1.83,2.1a6.534,6.534,0,0,1-.24,1.6,3.881,3.881,0,0,1-.5.92c-1-.15-2.1-.26-2.1-.26l-3.23-.2a18.586,18.586,0,0,0,.28-3.66c.12-.6.24-1,.35-1.4.04-.13.07-.25.1-.38a1.384,1.384,0,0,1,.53.17l.8.2Zm-15-4.74c-.01.01-.01.02-.02.03-.4,1.9-.24,4.03-.87,5.75l-.16.05c-.22,0,.23.54.03.58l.06.22c-.05.05-.1.17-.14.06a.45.45,0,0,0,.04.35l-.17.18a5.1,5.1,0,0,0-.15,1.08l-.03.55a6.322,6.322,0,0,1-.1.7q-1.289-.05-2.58-.05c.57-1.7.4-2.77.74-4.96a39.131,39.131,0,0,0,1.14-4.57l.14-.72,2.07.75Zm-24.62-218.3c-.1.1,2.18.08,1.17.18.52.02,1.05.01,1.57.02l.22,1.24-.07-.1a21.432,21.432,0,0,0,1.68,5.12c-.2.33.58,1.82.68,2.36l-.04-.04c.68,1.26.8,2.8,1.5,4.02-.04-.04-.12-.04-.24-.33a8.393,8.393,0,0,1,.84,2.3,43.543,43.543,0,0,0,3.16,6.5l-.1-.07c.53.7.53,1,1.05,1.82,0,.06.03.12.01.12.57.77,1.34,2.42,1.78,3.05l-.07.1c.3.55.66,1.08,1,1.6l-.35-.6c.4.05.57,1.33,1.48,2.38.66,1.1,1.95,1.8,2.58,2.98.47.44-.5-.32.12.4-.1.12-.33-.3-.3-.03.6.72.75,1.33,1.5,2.2l-.07.1c1.07,1.07,1.55,2.36,2.33,3,1.02,1.16.34,1.05,1.53,2.15l.26.6c.4.55.47.25.9.9-.1.03.54.8.18.52.96,1.44,2.4,2.54,3.68,4.44.48.24,1.14,1.18,1.5,1.35-.03.1,1.5,1.72.5.9-.08-.07-.2-.22-.18-.23l-.2-.03a8.89,8.89,0,0,0,1.82,1.94l-.8.4a15.131,15.131,0,0,1-2.18.9l-2.12.9-1.3.55a62.165,62.165,0,0,1-4.53-6.4l-.03-.3c.1-.22-1.2-1.2-1.16-1.5l-.47-.53c-.08-.2-.27-.55-.04-.3a6.034,6.034,0,0,0-.7-.9l-.26-.66c-1.3-2.2-2.64-3.93-3.92-6.3-.7-1.47-1.78-3.52-2.88-5.6l-2.96-5.8c-2.3-4.4-3.67-10.04-5.68-14.67a1.743,1.743,0,0,0-.25-.53l-1.45-4.4-.7-2.2-.67-2.16-.36-1.18-.06-.2c.24-.01.55-.01,1.07.01Zm-6.8.01c.06.56.17,1.43.33,2.6-.3-1.22-.55-2.07-.73-2.63.13.02.26.03.4.04Zm-3.4-.15a17.2,17.2,0,0,1,2.36.04,28.427,28.427,0,0,0,.13,3.03c.44,5.1,1.3,7.62,2.66,13.5a107.445,107.445,0,0,0,2.8,11.93c.72,2.53,1.64,5.2,2.52,7.62.6,1.08,1.14,3.2,1.83,4.46l.1.56a6.9,6.9,0,0,1,.6,1.46l-.04-.02c.35.66.6,1.46.78,1.78l-.04-.02.35.83-.1-.13c.56,1.17,1.07,2.4,1.47,3.5l.1-.14c.8,2.38,1.44,3.1,2.16,5.27l-.04-.01a47.054,47.054,0,0,1,2.34,5.2c-1.48.44-3,.8-4.63,1.18.23.1-2.06.58-1.46.62-.38.1-.76.18-1.13.27a72.177,72.177,0,0,1-3.15-8.02l.04-.3c.15-.18-.9-1.5-.8-1.8l-.34-.65c-.04-.2-.14-.62.03-.3a4.572,4.572,0,0,0-.47-1.07l-.1-.72c-.76-2.53-1.72-4.57-2.44-7.25-.35-1.63-.96-3.95-1.56-6.3q-.8-3.253-1.44-6.54c-1.13-5-1.16-11-2.24-16.12a1.809,1.809,0,0,0-.14-.6l-.6-4.75-.88-6.47a12.094,12.094,0,0,0,1.34-.05Zm-7.05.01.13,2.9c-.2-1.38-.4-2.3-.54-2.9.14-.01.27-.01.4-.01Zm-8.14-.44c1.43-.15-1.26.24.88.12.07.16-1,.1-.45.23,2.1-.08,3.44.15,6.03.04l.1.12.54-.03c-.12,1.16-.1,3.03-.1,3.03-.07,5.22.47,7.9.9,14.08.2,5.45.02,6.9.45,12.55.13,2.7.37,5.57.58,8.2.3,1.24.24,3.46.53,4.92l-.08.58a6.278,6.278,0,0,1,.16,1.62l-.04-.03c.15.75.18,1.62.25,2l-.04-.03.1.92-.06-.15c.2,1.32.35,2.7.43,3.9l.13-.12c.12,2.6.54,3.5.66,5.85l-.04-.03c.67,2.45.52,4.12,1.02,6.38-1.16.16-2.17.27-3.65.38a29.253,29.253,0,0,1-4.25.64c.83-.18-.23-.05-1.2-.03.62-.04.8-.1-.47-.1-.18.04-.45.07-.7.1-.01-.01-.06-.01-.04-.02-.13.01-.24.02-.35.02-.08-3.47-.13-6.87.04-10.04l.15-.28c.2-.12-.32-1.75-.12-2l-.1-.74c.04-.2.08-.64.13-.28a5.064,5.064,0,0,0-.1-1.2l.13-.73c.1-2.7-.17-4.98-.12-7.82.26-3.4.01-9.8-.17-13.5-.37-5.2.28-11.26-.34-16.56a1.473,1.473,0,0,0-.1-.6l-.22-4.86-.2-3.4c-.1-.94-.18-2.02-.26-3.1Zm1.3,65.3h0Zm-7.9-64.88-.18,3.04c-.07-1.42-.14-2.4-.23-3,.14-.01.27-.01.4-.03Zm-14.6,41.55a5.978,5.978,0,0,1,.5-1.55l.02.04c.16-.75.5-1.55.56-1.93l.02.04.27-.9v.17c.33-1.3.73-2.6,1.13-3.75l-.17.05c.9-2.43.9-3.43,1.66-5.65l.03.04a24.277,24.277,0,0,1,.84-3.74,16.372,16.372,0,0,0,.74-3.83c-.03.38.1-.15.13-.1.24-1.4.42-2.88.15-2.95.17-1,.22-.8.35-.92a4.139,4.139,0,0,1,.05-1.7v.37l.25-2.28-.28.42c.2-1.2.32-.27.4-1.44h-.2c.2-1.66.6-2.62.83-4.24.1-1.17.13-2.35.14-3.54.01-.6,0-1.2-.02-1.8l-.03-.9-.06-1.12a1.23,1.23,0,0,0-.02-.2h0c0-.04-.01-.07-.01-.1a46.406,46.406,0,0,0,5.07.07q.6,0,1.19-.03c-.23,1.16-.4,2.94-.4,2.94-.63,5.25-.4,8-.72,14.27-.47,5.5-.84,6.95-1.2,12.65l-.73,8.26c.07,1.28-.4,3.47-.46,4.93l-.2.54a5.819,5.819,0,0,1-.26,1.6l-.03-.04c-.06.77-.28,1.62-.3,2l-.03-.04-.16.92-.02-.17a36.646,36.646,0,0,1-.7,3.9l.16-.07c-.66,2.54-.54,3.53-1.18,5.8l-.03-.04c-.18,2.8-1,4.36-1.3,7.05a96.886,96.886,0,0,1-10.5-1.14l-.84-.06-.23-.06a6.651,6.651,0,0,1-1.5-.14c-.5-.2,0-.25-1.46-.55a78.521,78.521,0,0,0,3.76-8.2c1.05-2.5,2.05-5.2,2.95-7.7.24-1.25,1.2-3.26,1.52-4.72l.34-.45Zm3.96,23.06a8.771,8.771,0,0,1,2,.03c0,.02-.01.05-.01.07l-2-.1Zm2,.13c-.01.05-.01.1-.02.15l-.8-.03c-.32-.08.1-.12.8-.12Zm-30.94-2.8a1.842,1.842,0,0,1-.88-1.07,2.253,2.253,0,0,1-.07-1.04c.08-.3.12-.47.15-.6a.93.93,0,0,1,.1.05c-.07.3.01.36.3.12.05.02.1.04.14.06-.04.07-.1.15-.13.2a1.6,1.6,0,0,0,.7,2.3l.6.27c-.33-.1-.65-.2-.93-.3Zm7.68-17.83a2,2,0,0,0-.25.56l-2.43,4.12s-2.95,4.98-4.63,8.17l-.44.86c-.76-.3-1.5-.65-2.26-1a25.843,25.843,0,0,1-2.7-1.4c.18.15.35.32.53.45-1.57-.82-2.8-1.52-3.9-2.18-1.05-.72-1.97-1.37-2.92-2.1l-.13-.1a16.66,16.66,0,0,0,1.9-2.18.528.528,0,0,1-.17.37c.6-.8,1.43-1.88,1.6-1.83a54.666,54.666,0,0,0,4.32-5.8l-.03.1a16.465,16.465,0,0,1,1.2-1.73c.05-.03.1-.08.1-.06.44-.86,1.66-2.2,2.05-2.86l.12.03,1.1-1.52-.44.55c-.1-.38,1-1.02,1.66-2.24.8-1,1.03-2.46,1.9-3.46.24-.6-.13.6.32-.25.15.07-.17.42.07.3.47-.8,1-1.17,1.56-2.18l.13.03c.6-1.4,1.64-2.33,1.97-3.3.66-1.4.83-.73,1.4-2.26l.45-.47c.33-.6.04-.54.45-1.2.07.1.5-.83.4-.38a13.255,13.255,0,0,0,1.14-2.46,24.722,24.722,0,0,1,1.3-2.85c0-.54.54-1.56.5-1.97.1-.03.8-2.17.54-.88-.02.1-.1.3-.12.27l.06.2c.68-1.15.66-2.3,1.1-3.5-.16.35-.3.84-.28.5.13-.38.26-.76.37-1.14l.03.27.56-1.7-.2.2a6.051,6.051,0,0,0,.66-2.08c.01-.46-.37.76-.18-.14a37.427,37.427,0,0,0,1.16-4.3c-.16.08-.1-.16-.03-.97l.14-.1c.01-.1.01-.18.02-.27.72,0,1.43.02,2.62-.03a1.45,1.45,0,0,1,.25.04c1.08-.1,2.65-.1,4.17-.1l-.1.96-.2,1.5c-.16,1-.36,1.95-.58,2.88l-.2.24c-.23.07-.02,1.73-.26,1.92l-.06.72c-.08.2-.22.6-.18.24a6.012,6.012,0,0,0-.17,1.15l-.3.66c-.72,2.52-1.12,4.72-2,7.34-.66,1.53-1.46,3.78-2.32,6.04s-1.78,4.55-2.5,6.2c-1.87,4.67-5.6,9.4-7.85,14.12ZM183.9,435.97a11.036,11.036,0,0,1,.07-4.2c.12-.67.26-1.3.4-1.88a1.285,1.285,0,0,1,.63.23h-.05c.83.38,1.53.22,2.26.6,0-.15.4.04.34-.17.85.05,1.36.77,1.8.3.37.07.4.25.58.33h-.1a11.822,11.822,0,0,1,1.4.35c.27.02.38-.23.82-.04-.18.06.02.1.2.14-.1-.01-.16.01.05.14a.353.353,0,0,1,.14-.03c0,.01.01.02,0,.03.3.04.25,0,.13-.05.01-.01.01-.04-.03-.08.26.2.82.22.8.4a21.418,21.418,0,0,0,2.26.3c.06.1-.13.15-.35.12l.5.1c-.04.13-.3-.01-.47-.02.54.38,1.3.14,1.95.52l.17-.06.04.03c.01-.05.2-.08.3-.07.07.14-.08.26.27.35a3.006,3.006,0,0,0,1.18.2c-.2-.07-.1-.12-.01-.13.18.04.24.18.4.17l-.03.16c-.03-.16.5-.03.58-.07.07.14-.3.02-.36.1l1.05.27c.4-.01-.03-.16.2-.25a2.808,2.808,0,0,1,1.04.24l-.08-.17a3.045,3.045,0,0,1,1.4.44c.22.01.4.01.58.01-.1.37-.18.77-.25,1.18l-.27,1.63c-.5.03-1.02.01-1.27.05l.03-.04-.77.02.13-.05a25.351,25.351,0,0,1-3.24.06l.08.15c-2.14-.16-2.93.14-4.86-.05l.03-.04c-2.44.38-3.86-.26-6.38.1.3-.05-.13-.07-.1-.1l-1.64.08a2.135,2.135,0,0,0-.72.16,2.529,2.529,0,0,1-.8-1.45Zm51.97-2.4c.12-.6.24-1,.35-1.4.04-.13.07-.25.1-.38a1.384,1.384,0,0,1,.53.17l.8.18c.2.1.65.27.26.16.7.25.72.23,1.22.38a5.506,5.506,0,0,1,.67.38c1.1.54,1.87,1.2,1.83,2.1a6.533,6.533,0,0,1-.24,1.6,3.882,3.882,0,0,1-.5.92c-1-.15-2.1-.26-2.1-.26l-3.23-.2c.36-1.2.14-2.02.3-3.64Zm-16.6-1.62a39.128,39.128,0,0,0,1.14-4.57l.14-.72,2.06.76c-.01.01-.01.02-.02.03-.4,1.9-.24,4.03-.87,5.75l-.16.05c-.22,0,.23.54.03.58l.06.22c-.05.05-.1.17-.14.06a.45.45,0,0,0,.04.35l-.17.18a5.1,5.1,0,0,0-.15,1.08l-.03.55a6.326,6.326,0,0,1-.1.7q-1.289-.05-2.58-.05c.58-1.7.43-2.8.75-4.97Zm-8.93,7.2a.3.3,0,0,0,.23-.06l1.8.04a19.175,19.175,0,0,0,4.3-.33l1.3-.08c.2.1-.2.18-.7.2l1.2-.03c-.01.13-.7.08-1.06.1,1.43.22,2.95-.22,4.63-.02l.33-.1h.04l.08.01a.035.035,0,0,1,.02-.01l.74-.01c.06.07.14.14.68.13a16.452,16.452,0,0,0,2.73-.12,1.862,1.862,0,0,1-.28-.03l1.15-.01.03.14c-.08-.07.17-.1.46-.14h.7a5.665,5.665,0,0,0-.68.1l2.5-.02c.3-.04.38-.07.36-.1h.9l4.4-.34c.32.03.62.06.87.1a36.25,36.25,0,0,0,5.08-.3,3.177,3.177,0,0,1,1.23,1.07,2.365,2.365,0,0,1,.36,1.14,11.869,11.869,0,0,1-.18,1.7l-.05-.1c-.02.38-.03.4-.04.5l-.03.27c-.13-.01-.23-.01-.34-.01l-.57.02c-.55.03-1.07.08-1.6.16-.24-.3-1.8-.03-2.3-.12h.05c-1.33.22-2.74-.18-4.02.01a.5.5,0,0,1,.37-.1,6.836,6.836,0,0,1-2.28-.07,61.486,61.486,0,0,0-6.77.23l.1-.05a13.31,13.31,0,0,1-1.96.12c-.05-.02-.1-.03-.1-.04-.9.18-2.6.03-3.3.1l-.05-.1-1.77.03.66.02c-.23.3-1.34-.2-2.62.01-1.2-.04-2.43.64-3.67.5-.6.14.52-.23-.36-.12-.03-.16.4-.1.2-.23-.87.08-1.43-.16-2.5-.06l-.04-.12c-1.4.23-2.64-.16-3.58.05-1.45.1-.97-.37-2.47-.13l-.6-.17c-.64-.03-.46.2-1.18.12.04-.1-.9-.08-.48-.2-1.62-.17-3.28.24-5.4-.04-.46.2-1.53.08-1.88.24-.06-.1-2.15-.01-.94-.2.1-.02.3-.01.27.02l.14-.12a19.328,19.328,0,0,0-3.4.1c.36.04.83.03.5.1l-1.12-.02.23-.1-1.66-.06.23.13a5.373,5.373,0,0,0-2.02-.1c-.42.1.77.17-.1.2l-1.94-.15-1-.07a.935.935,0,0,0-.16-.04.336.336,0,0,1-.16.14.4.4,0,0,1-.03-.1l.12-.1a.115.115,0,0,1-.03-.13c.02,0,.05-.1.1-.16.07-.13.15-.27.08-1l-.17-.26q-.012-.076-.03-.15v-.07c-.1-.3.01-.4.1-.48.1-.1.1-.17.27-.6-.2.3-.37-.07.08-.35l-.02.17c.2-.18.25-.26.42-.3-.12.13,0,.17.32.06-.06.07-.12.13-.17.2a1.27,1.27,0,0,1,.27-.18,1.161,1.161,0,0,1,.4-.13c.85.13,2.2-.03,2.54.14a10.223,10.223,0,0,0,2.24-.1c-.37.12.64.16.35.3a7.257,7.257,0,0,1,2.43-.1l-.1.02c2.07.14,3.53-.2,5.38-.02-.08-.14.9-.07.65-.25,1.92-.18,3.5.38,4.2-.2a6.768,6.768,0,0,1,1.48.16l-.2.03,3.02-.04a9.53,9.53,0,0,0,2.86.07Zm41.23-32.37-3.16-23.83-2.37-19.93c-.58-5.63-1.07-11.35-1.75-20.47l-.88-13.34-.23-3.36c-.08-1.12-.24-2.3-.36-3.37l-.76-6.48c-.6-4-1.28-11.13-1.93-15.88l-.1-1.13c.16-.75.23-1.2.78-3.17.01.2,1.1-4,.67-2.13,8.7-29.78,1.16-8.76-.27-3.58l-.36,1c-.25.4-1.5,6.43-1.84,7.3l-.65,2.7c-.22.75-.65,2.35-.34,1l-1.05,4.37-.75,2.66-1.7,7.2-1.57,6.95c-1.15,4.6-2.4,9.28-3.85,14.42l-13.8,49.02-3.98,14.66c-1.33,5.03-2.76,10.14-3.82,15.4-.12.67-.24,1.32-.3,2.03a4.963,4.963,0,0,0-.02.55,3.364,3.364,0,0,0,.04.4c.04.13.1.26.14.4a.831.831,0,0,0,.14.13.313.313,0,0,0-.05.1c-.15.22-.3.43-.45.7-.57,2.16-.73,4.56-1.36,6.62-.37-.08-.78-.17-.77-.32a11.307,11.307,0,0,0-2.88-.64l.05-.03c-.4.07-.45-.1-.85-.14-.01-.03-.04-.05-.03-.05-.42.06-1.08-.3-1.4-.32v-.1l-.74-.2.27.1c-.2.26-.5-.35-1.1-.33-.5-.2-1.2.3-1.67-.01-.3.06.3-.16-.12-.16.04-.16.2-.04.14-.2-.38-.04-.55-.34-1.02-.37l.02-.12c-.65.04-1.05-.5-1.5-.4-.63-.1-.3-.48-1-.44l-.2-.24c-.26-.1-.25.14-.53-.03.05-.1-.35-.2-.15-.24-.62-.37-1.43-.2-2.24-.74-.25.14-.66-.12-.85-.01,0-.1-.9-.3-.33-.32.05,0,.12.02.1.06l.1-.1c-.44-.38-.95-.16-1.44-.35.14.08.34.13.18.17l-.46-.16.13-.07-.23-.1.06-.38.24-1.68.87-6.4,1.45-11.98,2.88-28.3c.5-5.2.82-9.44,1.38-13.17.5-3.74,1.1-7,1.7-10.3,1.25-6.56,2.68-13.2,5.08-23.73l1.76-7.65c.56-2.6,1.18-5.15,1.55-7.9.2-2.74.16-5.35.2-7.97l.03-7.72c-.1-4.57.01-12.46-.07-18.1a2.988,2.988,0,0,0,1.52-.46,2.453,2.453,0,0,0,.7-.7,2.81,2.81,0,0,0,.22-.4l.12-.25.7-1.38,5.22,1.1,5.56.78c1.02.16,2.1.23,3.3.3l.92.05-.08.6-.03.38a1.626,1.626,0,0,0,.01.5c.05.28.15.4.2.4a3.379,3.379,0,0,0,.5,1.1c.08.14.03.15.08.27.04-.06.33.18.82.3a11.206,11.206,0,0,0,1.33.06l-.37.03,2.3.08-.44-.26c1.22.13.3.3,1.47.3v-.2c1.7.1,2.66.47,4.38.58.9-.03,1.66-.05,2.53-.04l1.3.02h.7a2.133,2.133,0,0,0,1.07-.3,2.584,2.584,0,0,0,.8-.74,3.01,3.01,0,0,0,.43-.98c.01-.42-.01-.58-.01-.8v-.66c-.01-.2-.01-.42-.02-.64l2.57-.13c1.25-.2,3-.37,4.78-.53l2.68-.26.94-.14.32,1.37a2.911,2.911,0,0,0,.22.64c.07.17.2.36.25.32a3.508,3.508,0,0,0,.54,1c.08.13.03.15.08.26.03-.05.24.1.6.23a2.324,2.324,0,0,0,1.37.07l-.06.01.35-.06-.34.1h0l2.23-.36-.47-.17c1.2-.1.34.24,1.48.02l-.04-.2c1.66-.2,2.67-.04,4.28-.12l2.5-.35,1.27-.2.63-.1a2.8,2.8,0,0,0,.93-.26,2.561,2.561,0,0,0,1.3-1.58,2.656,2.656,0,0,0-.2-1.9l-.78-1.66c.85-.18,1.68-.37,2.47-.57l-.23-.1,1.5-.35,1.2,18.84c.62,11.08,1.22,22,.96,32.1l-.1.9c-.14.4.04,5.6-.1,6.36v2.36c-.04.66-.1,2.06-.1.88-.06,2.18-.04,2.23-.04,3.8l-.13,2.34-.4,24.96c-.32,10.87-.33,31.34.22,43.14l.37,6.34c.08,1.07.17,2.16.3,3.25a20.573,20.573,0,0,0,.54,3.1c-.04.03-.07.1-.1.34l.18.1a2.364,2.364,0,0,1-.2.54c-.06.12-.14.23-.2.34-.15.22-.3.43-.45.7-.57,2.16-.73,4.56-1.36,6.62-.37-.08-.78-.17-.77-.32a11.308,11.308,0,0,0-2.88-.64l.05-.03c-.4.07-.45-.1-.85-.14-.01-.03-.04-.05-.03-.05-.42.06-1.08-.3-1.4-.32l.01-.1-.74-.2.27.1c-.2.26-.5-.35-1.1-.33-.5-.2-1.2.3-1.67-.01-.3.06.3-.16-.12-.16.04-.16.2-.04.14-.2-.38-.04-.55-.34-1.02-.37l.02-.12c-.65.04-1.05-.5-1.5-.4-.63-.1-.3-.48-1-.44l-.2-.24c-.26-.1-.25.14-.53-.03.05-.1-.35-.2-.15-.24-.62-.37-1.43-.2-2.24-.74-.25.14-.66-.12-.85-.01,0-.1-.9-.3-.33-.32.05,0,.12.02.1.06l.1-.1c-.44-.38-.95-.16-1.44-.35.14.08.34.13.18.17l-.46-.16.13-.07-.23-.1a19.472,19.472,0,0,0,.34-2.05l.03-.4c-.02-.3-.04-.36-.05-.47l-.08-.67-.16-1.3-1.35-10.14Zm-1.36,29.68a11.432,11.432,0,0,1,.1-3.58c.15-1,.33-1.94.5-2.7a14.158,14.158,0,0,1,2.04.53c0-.15.4.04.34-.17.85.05,1.36.77,1.8.3.37.07.4.25.58.33h-.1a11.823,11.823,0,0,1,1.4.35c.27.02.38-.23.82-.04-.18.06.02.1.2.14-.1-.01-.16.01.05.14a.353.353,0,0,1,.14-.03c0,.01.01.02,0,.03.3.04.25,0,.13-.05.01-.01.01-.04-.03-.08.26.2.82.22.8.4a21.418,21.418,0,0,0,2.26.3c.05.1-.13.15-.35.12l.5.1c-.04.13-.3-.01-.47-.02.54.38,1.3.14,1.95.52l.17-.06.04.03c.01-.05.2-.08.3-.07.07.14-.08.26.27.35a3.006,3.006,0,0,0,1.18.2c-.2-.07-.1-.12-.01-.13.18.04.24.18.4.17l-.03.16c-.03-.16.5-.03.58-.07.07.14-.3.02-.36.1l1.05.27c.4-.01-.03-.16.2-.25a2.808,2.808,0,0,1,1.04.24l-.08-.17a3.045,3.045,0,0,1,1.4.44c.2.01.4.01.58.01-.1.37-.18.77-.25,1.17l-.27,1.63c-.5.03-1.02.01-1.27.05l.03-.04-.77.02.13-.05a25.351,25.351,0,0,1-3.24.06l.08.15c-2.14-.16-2.93.14-4.86-.05l.03-.04c-2.44.38-3.86-.26-6.38.1.3-.05-.13-.07-.1-.1l-1.64.08a1.7,1.7,0,0,0-.5.1,2.32,2.32,0,0,1-.34-.9Zm-.67,5.94c.02,0,.05-.1.1-.16.07-.13.15-.27.08-1l-.17-.26q-.012-.076-.03-.15v-.07c-.1-.3.01-.4.1-.48.1-.1.1-.17.27-.6-.2.3-.37-.07.08-.35l-.02.17c.2-.18.25-.26.42-.3-.12.13,0,.17.32.06-.06.07-.12.13-.17.2a1.27,1.27,0,0,1,.27-.18,1.161,1.161,0,0,1,.4-.13c.85.13,2.2-.03,2.54.14a10.223,10.223,0,0,0,2.24-.1c-.37.12.64.16.35.3a7.257,7.257,0,0,1,2.43-.1h-.1c2.07.14,3.53-.2,5.38-.02-.08-.14.9-.07.65-.25,1.92-.18,3.5.38,4.2-.2a6.768,6.768,0,0,1,1.48.16l-.2.03,3.02-.04a9.627,9.627,0,0,0,2.83.06.3.3,0,0,0,.23-.06l1.8.04a19.175,19.175,0,0,0,4.3-.33l1.3-.08c.2.1-.2.18-.7.2l1.2-.03c-.01.13-.7.08-1.06.1,1.43.22,2.95-.22,4.63-.02l.33-.1h.04l.08.01a.035.035,0,0,1,.02-.01l.74-.01c.06.07.14.14.68.13a16.452,16.452,0,0,0,2.73-.12,1.862,1.862,0,0,1-.28-.03l1.15-.01.03.14c-.08-.07.17-.1.46-.14h.7a5.665,5.665,0,0,0-.68.1h2.5c.3-.04.38-.07.36-.1l.9-.01,4.4-.34c.32.03.62.06.87.1a36.249,36.249,0,0,0,5.08-.3,3.177,3.177,0,0,1,1.23,1.07,2.364,2.364,0,0,1,.36,1.14,11.869,11.869,0,0,1-.18,1.7l-.05-.1c-.02.38-.03.4-.04.5l-.03.27c-.13-.01-.23-.01-.34-.01l-.57.02c-.55.03-1.07.08-1.6.16-.24-.3-1.8-.03-2.3-.12h.05c-1.33.22-2.74-.18-4.02.01a.5.5,0,0,1,.37-.1,6.836,6.836,0,0,1-2.28-.07,61.485,61.485,0,0,0-6.77.23l.1-.05a13.309,13.309,0,0,1-1.96.12c-.05-.02-.1-.03-.1-.04-.9.18-2.6.03-3.3.1l-.05-.1-1.77.03.66.02c-.23.3-1.34-.2-2.62.01-1.2-.04-2.43.64-3.67.5-.6.14.52-.23-.36-.12-.03-.16.4-.1.2-.23-.87.08-1.43-.16-2.5-.06l-.04-.12c-1.4.23-2.64-.16-3.58.05-1.45.1-.97-.37-2.47-.13l-.6-.17c-.64-.03-.46.2-1.18.12.04-.1-.9-.08-.48-.2-1.62-.17-3.28.24-5.4-.04-.46.2-1.53.08-1.88.24-.06-.1-2.15-.01-.94-.2.1-.02.3-.01.27.02l.14-.12a19.328,19.328,0,0,0-3.4.1c.36.04.83.03.5.1l-1.12-.02.23-.1-1.66-.06.23.13a5.373,5.373,0,0,0-2.02-.1c-.42.1.77.17-.1.2l-1.94-.15-1-.07a.935.935,0,0,0-.16-.04.336.336,0,0,1-.16.14.4.4,0,0,1-.03-.1l.12-.1c-.01-.04-.02-.1,0-.12Zm-41.5-235.22h.02l.3-.1-.3.1Z"/>
    <path id="Path_11733" data-name="Path 11733" d="M184.1,441.24h0l.08.13Z"/>
  </g>
</svg>
