<svg xmlns="http://www.w3.org/2000/svg" width="239.242" height="227.928" viewBox="0 0 239.242 227.928">
  <g id="_119" data-name="119" transform="translate(-130.236 -206.033)">
    <path id="Path_11891" data-name="Path 11891" d="M135.05,415.3c-1.8-4.7-3.1-6.7,2-11.8,3.3-3.3,9.1-15,11.9-20,12.6-23.3,13.8-34.9,22.1-50.6,9.9-18.7,6.92-13.08,10.22-18.58,4.9-8,42.08.38,39.58,2.88-34.2,42.4-54.6,73.6-58.4,83.2-.8,1,7.2,13.4,8.9,15.1,5.6,2.6,13.2,3.7,13.2,6.6s-1.7,3.2-1.7,3.2l-19.7-2.9-28.1-7.1Z" fill="#fff"/>
    <path id="Path_11892" data-name="Path 11892" d="M160.36,357.43l.45-1.08A8.967,8.967,0,0,0,160.36,357.43Zm6.54,35.27-.13.24Zm14.33-75.5a.218.218,0,0,1-.03.05l-.16.26.2-.3Z"/>
    <path id="Path_11893" data-name="Path 11893" d="M308.55,422.4c-3,0-3.6-2.9-2.9-7.6.5-3.5-2.3-10.4-3.5-13.9-1.6-4.5-10.1-21.9-22.8-49.5-8.3-19.2-6.32-15.68-8.22-24.38-1-4.4,26.94-17.74,29.64-8.94.94,1.88,2.08,7.82,7.08,29.02,6.2,25.8,12.8,48.5,15.7,52.4,1.9,2.5,11.2,3.7,24.4,6,6.4.6,12-.2,14.5,1.8.9.7,1.6,3.5,1.6,3.5l-55.5,11.6Z" fill="#fff"/>
    <path id="Path_11894" data-name="Path 11894" d="M283.4,361.2l-.48-1.12A8.018,8.018,0,0,0,283.4,361.2Zm42.12,39.15a2.767,2.767,0,0,0,.26.1Zm-56.88-84.08a.149.149,0,0,1,.01.06l.08.3-.1-.36Zm-121.5,108.7.3.2C147.44,425.14,147.37,425.07,147.14,424.97Zm7.64-.86-.08-.02C154.75,424.11,154.77,424.12,154.78,424.11Zm3.63,8.44v-.01l-.1-.03Zm8.4-91.8.36-.83ZM154,372.47l.03-.02C154.03,372.43,154.03,372.43,154,372.47Zm12.9-31.85.48-1.14ZM140.35,415.9l.35.22C140.7,416.09,140.6,416.02,140.35,415.9Zm20.62-5.05.06.08A.59.59,0,0,0,160.97,410.85ZM153.9,424.2h-.02l-.1-.03Zm28.65,3.9-.16-.06C182.39,428.07,182.43,428.09,182.55,428.1Zm-38.97-9.07h0Zm32.75,7.07h0a.09.09,0,0,1,.05-.01h-.05Z"/>
    <path id="Path_11895" data-name="Path 11895" d="M137.6,420.93l-.2-.25a17.862,17.862,0,0,0,2.27,1.04c.45.06-.5-.43.36-.14l2.3,1.08c-.13.03-.94-.37-.77-.16.17.01,1.32.55,1.23.34l-.03.16a5.416,5.416,0,0,1,.87.5c.2.05.37.06-.05-.16a14.68,14.68,0,0,1,2.56,1.1c.77.36.47.4.64.6.24.1.6.2.63.14l.08.06.36.06c1.46.92,3.04,1.2,4.26,2.03-.35-.14-.95-.5-1.02-.37l1.12.5c-.47-.18-.87-.28-.73-.12l4.9,2.02c0,.2,1.22.62,1.8,1.06-.08-.07-.1-.1-.07-.1-.28-.15-.38-.23.26.03-.01.01,0,.02,0,.03a1.282,1.282,0,0,0,.3.07c.46.3.37.3.13.2.37.18.8.36.42.3a5.5,5.5,0,0,0,1.75.55,4.19,4.19,0,0,0,1.25.48,6.257,6.257,0,0,0,1.67.05l-.2.03a6,6,0,0,0,1.5.15c.7-.58,2.3-.03,4.27-.23-.25-.18.75-.1.66-.26,1.9.16,3.38-.2,5.5-.07l-.1.02a7.472,7.472,0,0,0,2.47-.12c-.3.14.73.17.36.3a9.62,9.62,0,0,1,2.28-.12c.36.17,1.72-.01,2.6.12l1.12-.23-.4.15c.6-.03.7.08.47.15a5.271,5.271,0,0,0,.8-.06l-.18.12c.73.05,1.04-.25.45-.22,1.5-.35.88.16,2.22-.1l.26-.18.25-.02a.308.308,0,0,0,.1-.01.971.971,0,0,1,.18.01.308.308,0,0,1,.1.01l.03.01a.109.109,0,0,0,.05.01.489.489,0,0,1,.13.08c.07.05.18.15.52-.14l.1.1c.2-.16.34-.34.18-.38a1.566,1.566,0,0,0,.36-.52,1.176,1.176,0,0,0,.1-.3,4,4,0,0,0,.07-.5l.15-1.02.1-.3c-.02-.24-.12.17-.22.12-.03-.01-.05-.01-.06-.02-.07.03-.07,0-.1-.04-.01-.02-.03-.04-.05-.07s-.03-.04-.25-.06c.06.04.2.1.2.13l-1.66-.07.24-.1-1.14-.02c-.32.08.16.07.52.12a22.322,22.322,0,0,1-3.47.08l.15-.12c-.01.03.17.04.28.02,1.23-.2-.9-.12-.96-.2-.35.15-1.44.03-1.92.23l-.64-.06h-.7c.02-.02-.16-.04-.23-.06h-.53l-1.45.05a12.905,12.905,0,0,1-1.97-.02c.15-.03.12-.05.04-.07l-1.23-.05a1.153,1.153,0,0,1-.5.06l-.2-.06-1.7.1.03-.04c-2.32-.2-3.26.1-5.82-.07l.1.15-1.65-.03-.86.01-1.1.03-.42-.17-.26-.1.16.02-.85-.37.04-.02c-.36-.1-1.12-.52-1.85-.75l.04-.02a6.616,6.616,0,0,0-1.5-.63l-.47-.34c-1.42-.45-3.33-1.54-4.55-1.86l-7.47-3.3c-5.17-2.22-6.37-3.06-11.3-5.36l-2-.84c-.15-.06-.56-.23-.97-.4-.07.12-.15.24-.22.36-.14.24-.26.44-.37.6l-.22.65a2.362,2.362,0,0,0,.9,2.57,8.854,8.854,0,0,0,2.24,1.02,23.375,23.375,0,0,0,3.14,1.45Z" fill="#fff"/>
    <path id="Path_11896" data-name="Path 11896" d="M165.08,419.67l-.14.1C164.95,419.78,164.99,419.76,165.08,419.67Zm.16,4.9h0Zm161.14,3.37.34-.03C326.71,427.88,326.62,427.88,326.38,427.94Zm5.7-5.77-.07.03C332.06,422.19,332.08,422.18,332.08,422.17Zm7.55,4.22-.1.05Zm-49.02-49.75v-.04c-.02-.01-.02-.01-.01.04Zm27.87,47.75.42-.05C318.89,424.32,318.78,424.32,318.48,424.39Zm14.7-15.54.16.06Zm1.6,13.2c-.01,0-.02,0-.02.01l-.1.04.12-.05Zm24.8-7.16h-.17c.01.02.06.04.17.01Zm-38.6,10.48c-.01.01-.02.01-.03.02A.125.125,0,0,0,320.98,425.37Zm32.16-10.78h0a.138.138,0,0,0,.04-.03Z"/>
    <path id="Path_11897" data-name="Path 11897" d="M311.72,432.52a13.3,13.3,0,0,0,1.72-.6,14.4,14.4,0,0,0,3.26-.83l-.3-.06a13.919,13.919,0,0,0,2.36-.7c.37-.24-.65,0,.18-.35l2.4-.67c-.08.1-.93.33-.67.38.13-.1,1.34-.44,1.14-.54l.08.14c.3-.13.56-.08.96-.2.18-.1.3-.2-.14-.1a14.544,14.544,0,0,1,2.6-.83c.8-.22.6-.01.86.04.24-.08.58-.25.56-.3h.1l.3-.2c1.68-.25,3.03-1.06,4.48-1.23-.35.12-1.02.25-1,.38l1.15-.35c-.47.16-.83.35-.62.4l4.94-1.64c.13.15,1.3-.32,2.02-.37-.1,0-.13-.02-.12-.04-.3.07-.43.07.2-.15-.01.01.01.01.02.02a1.365,1.365,0,0,0,.27-.15c.53-.07.47-.01.22.07.4-.1.82-.24.5-.05a5.817,5.817,0,0,0,1.66-.7l3.2-.9-.2.08a7.413,7.413,0,0,0,1.48-.23c.52-.73,2.2-.6,4-1.28-.28-.1.68-.3.56-.4,1.84-.32,3.17-1.03,5.2-1.43l-.1.04a7.167,7.167,0,0,0,2.32-.73c-.24.2.74-.02.42.2a9.189,9.189,0,0,1,2.14-.68c.38.07,1.64-.43,2.5-.53l1-.5-.34.25c.56-.17.7-.1.48.03a4.518,4.518,0,0,0,.75-.26l-.14.16c.7-.13.92-.5.37-.33,1.3-.7.93-.07,2.03-.64.04-.1.07-.22.1-.32l-.02.1c.3-.24.37-.24.5-.24.1,0,.25-.02.34-.44l.13.02c.06-.23.07-.45-.08-.4a1.625,1.625,0,0,0-.01-.58l-.23-1-.1-.5c-.01-.07,0-.1-.01-.15l-.02-.32h-.05c-.28.12.04.1-.13.25-.12.13-.12.12-.18.1l-.97.1.25.06-1.62.38.2-.16-.16.04c-.14.07-.33.15-.56.24l.16-.03a20.52,20.52,0,0,1-3.27.98l.04-.06c-1.92.64-3.43.78-5.2,1.3l-.75.24-.77.28.02-.04c-2.37.44-3.23.98-5.85,1.52l.14.1-3.88,1.1.15-.1-.92.26v-.04c-.37.15-1.24.32-1.97.62l.02-.04a8.152,8.152,0,0,0-1.6.47l-.6.04c-1.43.57-3.7.96-4.88,1.5l-8.16,2.27c-5.6,1.62-7.12,1.75-12.57,3.15-1.54.44-2.85.84-4.04,1.22l-1.05.3c.03.4.05.77.06,1.05l.18.64a2.584,2.584,0,0,0,2.03,1.85.933.933,0,0,0,.5.01Z" fill="#fff"/>
    <path id="Path_11898" data-name="Path 11898" d="M337.12,412.55l-.12.14C337.01,412.7,337.04,412.66,337.12,412.55Zm3.08,3.68h0a.42.42,0,0,0-.06.02ZM201.18,289.37l.28-.7A2.748,2.748,0,0,0,201.18,289.37Zm32.24,5.76.13-.76A2.676,2.676,0,0,0,233.42,295.13ZM268,294.1l-.04-.76C267.93,293.35,267.94,293.54,268,294.1Zm-70.23,5.33.04-.01C197.8,299.41,197.79,299.4,197.77,299.43Zm34.43,6.37h.04c-.01-.01-.02-.01-.04.02Zm37.14-1.13.03-.02C269.36,304.63,269.34,304.63,269.34,304.67Z"/>
    <path id="Path_11899" data-name="Path 11899" d="M226.73,207.53c0,.24-.02.62-.06.6l.1.33.1-.92h-.15Zm22.13.4.15.32v-.7h-.12c.01.2.02.4-.01.4Zm18.04-.34.18.3c-.01-.12-.03-.23-.05-.34h-.13c.01.03.01.05,0,.05Z" fill="#fff"/>
    <path id="Path_11900" data-name="Path 11900" d="M187.95,431.45h0l.13-.1Z"/>
    <path id="Path_11901" data-name="Path 11901" d="M369.45,414.62l-.06-.5-.07-.48-.87-3.06-.5.14a1.013,1.013,0,0,0-.1-.16,1.1,1.1,0,0,1,.02.18c-.05.01-.1.03-.14.04a1.354,1.354,0,0,1-.22-.57.485.485,0,0,0-.1-.24,1.527,1.527,0,0,0-.2-.25c-.06-.08-.14-.17-.26-.3l-.13.14-1.65-1.7a9.707,9.707,0,0,0-1.9-1.38,22.466,22.466,0,0,0-5.3-1.44l-5.27-.9c-3.5-.57-6.94-1.12-10.1-1.83l-.26-.2c-.1-.23-1.8.02-2.02-.22l-.76-.03c-.2-.07-.63-.2-.26-.17a4.575,4.575,0,0,0-1.2-.1l-.7-.25c-2.7-.55-5.03-.67-7.87-1.18-.42-.1-.9-.2-1.4-.3-.1-.02-.37-.07-.57-.1a2.195,2.195,0,0,0-.7.1,2.554,2.554,0,0,0-1,.63c-.01-.01-.03-.01-.04-.02-.16-.08-.36-.17-.32-.16a5.581,5.581,0,0,1-1.08-.6,2.83,2.83,0,0,1-.9-1.02,18.7,18.7,0,0,1-1.4-2.95c-.84-2.07-1.54-4.14-1.98-5.35l.01-.18c-.68-2-1.33-4.02-1.95-6.04l.7,2.27c-.43-.73-1.33-4.62-2.7-9.02-1.17-4.15-2.72-8.33-3.78-12.7-.62-2.05.6,1.8-.26-1.3.07-.13.43,1.43.3.6-.84-3.03-1.2-5-2.2-8.75l.03-.17c-1.36-4.87-2.17-9.28-3.05-12.52-1.23-5.06-.57-3.45-1.9-8.7l-.3-1.77,2.33-.65-.43.17.7-.2.35-.1c.15-.05.3-.1.46-.16a4.228,4.228,0,0,0,1.6-1.15,4.064,4.064,0,0,0,.86-3.68L309.6,321l-.06.28-.12-.46c-1.55-6.92-2.5-9.55-3.95-16l.06.08c-2.5-8.17-3.14-13.14-5.94-21.5.35,1.04-.06-.47,0-.4-1.18-3.9-2.55-8-2.84-7.98-.92-2.8-.67-2.3-.7-2.72a38.116,38.116,0,0,1-1.75-4.54l.4,1-2.26-6.22.22,1.3c-1.13-3.32-.03-.94-1.24-4.07l-.17.1c-1.65-4.56-2.4-7.32-3.98-11.74-3.5-9.12-7.74-18.3-11.72-27.4l-6-13.72c-.1-.22-.2-.45-.3-.65h-1.88c-.6,0-1.2,0-1.8-.01l-3.54-.02-6.92-.1-.8-.15c-.35-.2-5,.32-5.7.12l-2.1.1c-.6-.04-1.84-.08-.8-.13-1.95-.01-2,.03-3.4.1l-2.1-.13c-7.7-.1-14.23.15-22.33.1-2.4-.07-5.3-.1-8.5-.12l-11.1.02-1.04,11.52-.9,9.2c-.7,7.37-1.86,15.3-3.12,23.26l-3.87,23.38c-.06.24-.14.67-.2,1.05l-.07.48a1.347,1.347,0,0,0-.02.2c-.96,4.5-2.06,8.98-3.4,13.38l-.83,2.64c-.54,1.64-1.32,3.92-2.36,6.44-2.02,5.08-5.2,11.08-7.5,15.78l-.46.95-.62,1.22-1.1,2.24c-.46.96-.8,1.73-1,2.24-.02.01-.03.01-.05.02a.359.359,0,0,0-.1.07.476.476,0,0,0,.04-.26c-.03-.1-.23.08-.52.43a3.028,3.028,0,0,0-.5.97,2.79,2.79,0,0,0-.03,1.66,1.76,1.76,0,0,0,.5.8c.12.1.26.2.4.3l.27.18.94.63c.62.4,1.2.77,1.63,1.03a128.815,128.815,0,0,0-7.8,15.78c-.23.44-.02-.16.37-1.14l-1.14,2.7a3.859,3.859,0,0,1,.32-.9c-1.62,3.85-3.03,8-4.78,12.44l-.37,1.15-.13.32a5.8,5.8,0,0,1-.2.7c-.15.4-.32.92-.46,1.32a10.454,10.454,0,0,0-1.17,2.57c-.9,2.08-2.4,6-3.6,8.7.67-1.46.5-.97.23-.33-.6,1.3-.98,2.04-1.44,3.05l-.1.07c-.02.2-1.56,3.5-1.77,3.94-.43.7.94-2.02,1.03-2.38l-1.9,3.88c-.32.65-.64,1.3-1.98,3.83-1.37,2.75.34-.45-.27.9l-4,7.5.54-.83A103.1,103.1,0,0,1,140,399.28l-.92,1.44a1.582,1.582,0,0,0-.48-.1,2.5,2.5,0,0,0-.92.13,4.5,4.5,0,0,0-1.4.82c-.56.46-1.1.96-1.1.96a11,11,0,0,0-3.4,6.4c-.1.53-.2,1.06-.27,1.62l-.12.86-.06.5c-.04.27-.07.55-.1.82l-.06.82c.01.06-.05.16.03.18l.12.06-.14.53-.1.4a2.241,2.241,0,0,0-.07.98c.06.13.2.04.47-.34.13-.2.3-.46.5-.8.07-.12.14-.24.22-.36l.97.4,2,.84c4.92,2.3,6.12,3.14,11.3,5.36,2.44,1.13,5.07,2.25,7.47,3.3,1.22.32,3.14,1.42,4.55,1.86l.47.34a6.81,6.81,0,0,1,1.5.63l-.04.02c.73.23,1.5.63,1.85.75l-.04.02.85.37-.16-.02.26.1.42.17,1.1-.03.86-.01c.57,0,1.13.01,1.65.03l-.1-.15c2.57.17,3.5-.13,5.82.07l-.03.04a12.669,12.669,0,0,1,1.7-.1l.2.06a1.153,1.153,0,0,0,.5-.06c.42.01.82.03,1.23.05.08.02.1.04-.04.07a12.916,12.916,0,0,0,1.97.02c.45,0,.94-.02,1.45-.05.18,0,.35-.01.53,0,.07.02.25.04.23.06l.7-.02c.2.02.42.03.64.06.47-.2,1.56-.08,1.92-.23.06.1,2.2.02.96.2-.1.02-.3.01-.28-.02l-.15.12a20.077,20.077,0,0,0,3.47-.08c-.36-.04-.85-.03-.52-.12h1.14l-.24.1,1.66.07c-.01-.04-.14-.1-.2-.13.22.01.23.03.25.06a.153.153,0,0,1,.05.07c.02.04.02.07.1.04.01.01.03.01.06.02.1.05.2-.36.22-.12-.03.1-.06.2-.1.3l-.15,1.02c-.03.16-.05.42-.07.5a1.759,1.759,0,0,1-.1.3,2,2,0,0,1-.36.52c.16.03,0,.22-.18.38l-.1-.1c-.33.3-.45.2-.52.14a.411.411,0,0,0-.13-.08c-.02-.01-.03,0-.05-.01h-.03a.375.375,0,0,1-.1-.01c-.06,0-.12-.01-.18-.01a.34.34,0,0,0-.1.01c-.07.01-.16.01-.25.02l-.26.18c-1.34.26-.73-.25-2.22.1.6-.03.28.27-.45.22l.18-.12a5.358,5.358,0,0,1-.8.06c.24-.07.13-.18-.47-.15l.4-.15-1.12.23c-.86-.12-2.23.05-2.6-.12a10.19,10.19,0,0,0-2.28.12c.37-.12-.65-.15-.36-.3a7.765,7.765,0,0,1-2.47.12h.1c-2.1-.13-3.6.22-5.5.07.1.14-.9.07-.66.26-1.95.2-3.56-.35-4.27.23a6.922,6.922,0,0,1-1.5-.15l.2-.03a6.722,6.722,0,0,1-1.67-.05,4.092,4.092,0,0,1-1.25-.48,6.082,6.082,0,0,1-1.75-.55c.37.06-.05-.12-.42-.3.25.1.33.1-.13-.2a1.282,1.282,0,0,1-.3-.07c0-.01-.02-.02,0-.03-.64-.26-.54-.18-.26-.03-.02.01-.01.04.07.1-.6-.43-1.8-.86-1.8-1.06-1.9-.86-3.3-1.33-4.9-2.02-.14-.17.26-.07.73.12l-1.12-.5c.07-.12.67.23,1.02.37-1.22-.83-2.8-1.1-4.26-2.03l-.36-.06-.08-.06c-.02.05-.4-.04-.63-.14-.17-.2.13-.24-.64-.6a15.484,15.484,0,0,0-2.56-1.1c.42.22.25.22.05.16a8.476,8.476,0,0,0-.87-.5l.03-.16c.1.2-1.07-.33-1.23-.34-.17-.2.64.2.77.16l-2.3-1.08c-.87-.28.1.2-.36.14a16.144,16.144,0,0,1-2.27-1.04l.2.25a21.044,21.044,0,0,1-3.1-1.45,6.887,6.887,0,0,1-2.9-1.56,2.674,2.674,0,0,1-.74-1.82c-.01-.9-.16-.8-.4-.47a2.953,2.953,0,0,0-.28,1.14,3.154,3.154,0,0,0,.34,1.48c.12.2.24.4.35.56l.33.4c.2.2.33.32.33.32a9.592,9.592,0,0,0,2.88,1.74l1.2.5,1.2.53c1.64.7,3.4,1.4,5.78,2.5,4.13,2.06,5.12,2.84,9.5,4.8,2.05,1,4.27,2,6.3,2.94a11.011,11.011,0,0,1,1.86.78,4.584,4.584,0,0,0,.54.26,4.018,4.018,0,0,0,.67.22,5.124,5.124,0,0,0,1.24.14c.2.05.37.1.57.14a5.719,5.719,0,0,1,1.37-.05l-.03.04c.64-.1,1.37-.05,1.7-.1l-.03.04.78-.02-.13.05a26.417,26.417,0,0,1,3.3-.08l-.1-.14c2.18.14,2.98-.16,4.95.01l-.03.04c2.5-.4,3.94.23,6.5-.15-.32.05.14.07.1.1,1.18-.05,2.45-.08,2.46-.37.86,0,.7.08.82.2-.01-.12.74-.18,1.4-.2l-.3.05,1.93-.06-.38-.23c.5.03.58.1.64.16.12.04-.06.12.66.08l-.03-.2a3.758,3.758,0,0,0,2.08-.82,3.286,3.286,0,0,0,1.2-2.02l.1-1.46.16-2.53h-.27l-.03-.32c-.05-.27-.13-.68-.2-.9a10.77,10.77,0,0,0-3.1-4.57,9.91,9.91,0,0,0-1.07-.87,6.379,6.379,0,0,0-1.3-.73c-.16-.07-.3-.12-.46-.18-3.43-1.83-6.4-1.63-13.43-6.15l-1.88-1.88c-1.4-1.72-2.83-3.2-4.32-5.12-.47-.7-1.1-1.5-1.76-2.38a2.716,2.716,0,0,0-.93-.77l-.16-.32c-.16-.34-.32-.68-.44-1a4.588,4.588,0,0,1-.14-.45c-.03-.13-.04-.15-.01-.22l.77-1.87-.1.32a61.41,61.41,0,0,1,3.08-6c.1-.14.22-.33.2-.3,1.43-2.7,4.6-7.66,5.92-9.76l.14-.1c1.08-1.72,2.22-3.4,3.33-5.1l-1.27,1.9c.28-.76,2.64-3.8,5.04-7.5,2.37-3.4,4.48-7.12,7.07-10.57,1.12-1.72-.94,1.55.8-.98.14-.03-.78,1.2-.26.6,1.7-2.48,2.98-3.94,5.1-7l.15-.08c2.78-3.98,5.52-7.3,7.38-9.94,2.98-4.02,2.2-2.55,5.25-6.76l.86-1,.15.03,5.05.97,2.46.46,2.68.4c1.9.25,4.03.62,6.68.83,2.52.26,5.12.57,7.73.7l3.88.25,3.8.14c2.35-.07,6.5.17,9.3.02l1.08.1a25.828,25.828,0,0,1,3.05-.08l-.06.04,3.75-.2-.06.04,1.74-.1-.3.06,3.74-.3,3.57-.25-.07-.05c3.16-.26,6.3-.6,9.4-1l2.5,6.6c.16.52-.17-.2-.63-1.32l1.2,3.05c-.08-.01-.98-2.3-1.45-3.55.85,2.45,1.88,4.9,3,7.46l3.62,7.9.6,1.1.14.33a4.739,4.739,0,0,1,.37.68l.65,1.3a11.186,11.186,0,0,0,1.1,2.73c.94,2.18,2.88,6.1,4.23,8.9-.7-1.52-.43-1.05-.1-.4.64,1.36.94,2.17,1.46,3.2l-.02.13c.15.16,1.77,3.6,2,4.03.3.8-1.04-2.08-1.25-2.4l3.84,8.16c1.42,2.88-.17-.57.56.8,1.2,2.56,2.44,5.03,3.73,8.02l-.35-.97c1.13,2.4,2.02,4.34,2.7,6.12.65,1.8,1.2,3.4,1.74,5.1a44.732,44.732,0,0,1,1.88,6.33,10.354,10.354,0,0,1,.23,2.72c-.03.44-.08.87-.12,1.28-.1.01-.2.03-.3.05a2.185,2.185,0,0,0-1.6,1.97v.1a15.527,15.527,0,0,0,.13,1.92,17.5,17.5,0,0,0,.83,3.78,19.112,19.112,0,0,0,1.46,3.13l.45.74.33.53.44.66.46.66.22-.06a.715.715,0,0,0,.1.23c.06.14.1.27.16.4a2.343,2.343,0,0,0,.5.9c.12.07.2-.07.2-.56.01-.27-.03-.75-.06-1.23l1.05-.3,4.04-1.22c5.45-1.4,6.97-1.52,12.57-3.15,2.7-.7,5.54-1.54,8.16-2.27,1.2-.54,3.45-.93,4.88-1.5l.6-.04a7.134,7.134,0,0,1,1.6-.47l-.02.04c.74-.3,1.6-.47,1.97-.62l-.02.04.92-.26-.15.1a38.253,38.253,0,0,1,3.88-1.1l-.14-.1c2.6-.54,3.48-1.08,5.85-1.52l-.02.04q.379-.155.77-.28l.75-.24c1.8-.53,3.3-.67,5.2-1.3l-.04.06a20.518,20.518,0,0,0,3.27-.98l-.16.03a3.46,3.46,0,0,0,.56-.24l.16-.04-.2.16,1.62-.38-.25-.06a8.624,8.624,0,0,1,.97-.1c.06.03.06.03.18-.1.17-.15-.14-.14.13-.25h.05c.01.1.01.2.02.32a.808.808,0,0,0,.01.15c.03.16.07.33.1.5.07.34.15.68.23,1a1.622,1.622,0,0,1,.01.58c.15-.06.14.16.08.4l-.13-.02c-.1.42-.25.44-.34.44s-.18.01-.5.24l.02-.1a1.312,1.312,0,0,1-.1.32c-1.1.56-.72-.07-2.03.64.55-.17.34.2-.37.33l.14-.16c-.38.13-.5.2-.75.26.2-.12.07-.2-.48-.03l.34-.25-1,.5c-.85.1-2.1.6-2.5.53a10.462,10.462,0,0,0-2.14.68c.32-.2-.66.01-.42-.2a7.167,7.167,0,0,1-2.32.73l.1-.04c-2.03.4-3.36,1.1-5.2,1.43.12.12-.85.3-.56.4-1.8.68-3.48.55-4,1.28a6.726,6.726,0,0,1-1.48.23l.2-.08-3.2.9c-.57.2-.6.5-1.66.7.3-.2-.1-.06-.5.05.25-.08.3-.14-.22-.07a1.63,1.63,0,0,1-.27.15c-.01-.01-.03-.01-.02-.02-.65.2-.52.2-.2.15-.01.02.02.03.12.04-.72.05-1.9.52-2.02.37-1.96.57-3.32,1.13-4.94,1.64-.2-.04.15-.22.62-.4l-1.15.35c-.03-.13.65-.25,1-.38-1.44.17-2.8.98-4.48,1.23l-.3.2-.1.01c.02.05-.32.22-.56.3-.26-.05-.06-.26-.86-.04a13.823,13.823,0,0,0-2.6.83c.45-.1.33,0,.14.1a5.367,5.367,0,0,0-.96.2l-.08-.14c.2.1-1,.44-1.14.54-.26-.05.6-.27.67-.38l-2.4.67c-.83.35.2.1-.18.35a18.4,18.4,0,0,1-2.36.7l.3.06a14.4,14.4,0,0,1-3.26.83,11.158,11.158,0,0,1-1.72.6,2.539,2.539,0,0,1-1.42-.16,3.494,3.494,0,0,1-1.48-1.24c-.45-.73-.55-.58-.57-.18a3.173,3.173,0,0,0,1.2,2.15,3.607,3.607,0,0,0,1.08.6,3.307,3.307,0,0,0,.5.13,3.363,3.363,0,0,0,1.18.04,4.392,4.392,0,0,0,.52-.1c.12-.03.24-.05.36-.08l1.36-.34c.87-.23,1.68-.48,2.5-.74,1.67-.53,3.42-1.14,5.9-1.86,4.4-1.12,5.63-1.17,10.14-2.5,2.17-.56,4.46-1.25,6.57-1.85.95-.48,2.78-.75,3.92-1.25l.5-.01a5.3,5.3,0,0,1,1.3-.4l-.02.04c.6-.25,1.3-.4,1.58-.5l-.02.04.74-.22-.1.08a25.649,25.649,0,0,1,3.12-.9l-.12-.12c2.1-.4,2.8-.9,4.7-1.22l-.02.04c2.26-1,3.8-.76,6.14-1.77-.3.13.15.04.14.08,1.1-.34,2.3-.7,2.24-.97.82-.22.7-.1.83-.02-.04-.12.66-.36,1.3-.54l-.28.13.9-.27.45-.13a4.137,4.137,0,0,0,.55-.21,2.632,2.632,0,0,1-.5-.06c.57-.16.66-.18.76-.16.08.01.2.04.64-.4l-.14-.13a3.813,3.813,0,0,0,1.16-1.86,1.719,1.719,0,0,0,.15-.97ZM173.1,318.97l-.42.9a.441.441,0,0,0-.1.02c.14-.27.32-.56.53-.92Zm-.67,4.64-.3-.15a1.964,1.964,0,0,0-.25-.13.785.785,0,0,1-.1-.15,3.186,3.186,0,0,1-.33-1.28,1.858,1.858,0,0,1,.18-1.1l.01-.01c.03.03.1-.02.2-.13-.1.32-.07.42.08.24a4.865,4.865,0,0,0,.46-.7c.1-.07.17-.13.23-.17l-.45.97c-.4.2-.3,1.7,0,2.1l6.9,3.47-2.62-1.17-3.32-1.5-.7-.3Zm-36.28,79.76.62-.78a2.841,2.841,0,0,1,1.9-1.35h.01c-.1.15-.2.3-.32.46a2.662,2.662,0,0,0-1.32.78c-.24.26-.55.55-.88.9Zm2.53-1.66h0Zm.26.1a2.127,2.127,0,0,1,.3.3c.02-.02.03-.04.05-.06.05.1.1.2.17.32a3.074,3.074,0,0,0-.53-.55Zm63-61.54c-4.66,6.04-8.44,11.32-13.17,17.8-5.84,7.7-16.06,22.72-21.3,31.8a98.621,98.621,0,0,0-5.44,10.35,1.3,1.3,0,0,0-.04.8,4.91,4.91,0,0,0,.17.58c.1.26.2.5.3.73a1.921,1.921,0,0,0-.55.12,4.614,4.614,0,0,0-1.77,1.42c-.4.44-.85.9-1.27,1.45a4.566,4.566,0,0,0-.9,2.05,4.1,4.1,0,0,0,.32,2.08,1.664,1.664,0,0,0,.15.3l.1.17.2.32.38.6.52.8.43.7c.16.26.3.54.44.8l.1.18c0,.06.12.12.01.16a.884.884,0,0,1-.44.12.965.965,0,0,1-.74-.42c-.06-.08-1.15-1.54-2-2.57l-.37-.42a4.288,4.288,0,0,0-.52-.5,1.675,1.675,0,0,0-.78-.38h-.1c-.02-.07-.07-.02-.1-.04l-.22-.01-.36.02c-.6.02-1.26.02-1.9.03a1.549,1.549,0,0,0-.6.02,28.62,28.62,0,0,1-4.55-.76s-.35-.08-.87-.24a14.068,14.068,0,0,1-2.03-.84,9.463,9.463,0,0,1-2.25-1.6,10.943,10.943,0,0,1-1.66-2.18,7.9,7.9,0,0,0-1.36-1.84c-.1-.07-.16-.12-.23-.17.87-1.23,1.63-2.44,2.34-3.63,1.6-2.7,3-5.28,4.4-7.95,2.76-5.35,5.92-10.94,9.6-19.1,3.26-7.16,5.03-11.8,6.84-16.5,1.83-4.7,3.46-9.52,6.83-16.85,1.76-3.67,3.76-7.38,5.86-11a59.367,59.367,0,0,0,11.17,4.98c2.52.82,5.18,1.6,8.36,2.34l2.33.6c2.5.58,5.07,1.1,7.86,1.62l-1.88,2.52-1.34,1.6Zm3.2-4.12a.076.076,0,0,1,.04.01C205.04,336.32,205,336.36,205.14,336.15Zm100.68,80.62a.2.2,0,0,0-.07.01A.148.148,0,0,0,305.82,416.77Zm-.77,2.8c-.2-.68-.33-1.27-.43-1.74h0a1.487,1.487,0,0,1,.88-1.4c-.01.15-.03.3-.03.45a1.138,1.138,0,0,0-.65.94c.04.52.13,1.12.23,1.75Zm27.3-9.34a.928.928,0,0,1-.05.1.813.813,0,0,1-.84.44,7.256,7.256,0,0,1-.87-.3l-.17-.07a.946.946,0,0,1-.1-.04l-.26-.08-1.06-.3c-.36-.1-.72-.18-1.1-.25-.2-.04-.4-.06-.6-.1-.1,0-.28-.02-.43-.01a3.867,3.867,0,0,0-.46.06,2.038,2.038,0,0,0-.8.42l-.44.33-.82.64-1.58,1.24c-.16.07-.5.37-.47.4a30.647,30.647,0,0,1-4.2,2.3l-.88.37a17.058,17.058,0,0,1-2.23.68,22.139,22.139,0,0,1-5.93.53c-1.8-.07-3-.32-2.78,0a2.166,2.166,0,0,0,.75.45c-.3-.06-.57-.13-.8-.2l.06-.54a.412.412,0,0,1,.12.01c.34,0,.42-.07.32-.2a.745.745,0,0,0-.3-.2l-.1-.03c.04-.36.1-.7.13-1a7.272,7.272,0,0,0,.06-1.03v-.37a24.748,24.748,0,0,0-1.07-5.6c-.5-1.7-1.05-3.3-1.6-4.82l-.8-2.25c-.28-.76-.58-1.52-.9-2.23-.62-1.45-1.27-2.86-1.93-4.3l-9.53-20.1-7.74-16.88-3.4-7.55c-1.2-2.77-2.44-5.98-3.9-9.93l-.52-1.47,3.85-.55,6.1-1.1q1.085-.172,2.16-.4l2.42-.48c.08-.01.14-.01.13,0l3.66-.84,1.32-.2c1.44-.37,3.12-.83,4.6-1.12l-.08.06c1.66-.48,3.5-.94,4.72-1.28.12.63.34,1.72.1.72.44,1.97.47,2,.83,3.42l.4,2.13c1.7,7.77,3.45,14.3,5.5,22.42,1.18,4.9,3.02,11.9,5.1,18.95,1.05,3.53,2.14,7.06,3.28,10.35.57,1.64,1.14,3.22,1.73,4.7a31.123,31.123,0,0,0,1.9,4.1c.14.2.26.43.43.64a5.249,5.249,0,0,0,.6.57,7.716,7.716,0,0,0,1.35.78c.05.02.1.04.16.06a4.259,4.259,0,0,0-.53,1.6,5.737,5.737,0,0,0,.1,2.25,4.1,4.1,0,0,0,1.22,2.1,5.94,5.94,0,0,0,1.88,1.07l2.82,1.2a6.57,6.57,0,0,1,.88.34l.44.2.2.1c-.01-.01-.02.03-.04.07Zm6.9-7.5a.673.673,0,0,1-.01-.1l6.4,1.18-6.38-1.08Zm22,4.1c-.4-.1-.93-.24-1.56-.4l1.46.3a7.97,7.97,0,0,1,4.4,2.35A11.838,11.838,0,0,0,361.25,406.83Z"/>
    <path id="Path_11902" data-name="Path 11902" d="M166.1,342.44l.26-.63Z"/>
    <g id="Group_832" data-name="Group 832">
      <path id="Path_11903" data-name="Path 11903" d="M187.38,330.2l-.56-.34a42.14,42.14,0,0,0,5.24,1.65c.95.13-1.3-.55.65-.1l5.42,1.37c-.25.03-2.16-.44-1.67-.2.32.02,2.63.54,2.77.45l-.01-.04c.03.02.03.03.01.04l.04.13c.72.1,1.22.32,2.13.5.45.05.8.05-.23-.17l6.03,1.1c1.84.3,1.25.36,1.76.57a7.452,7.452,0,0,0,1.4.1l.22.06.8.03,2.7.52,2.63.3,4.94.68a11.354,11.354,0,0,0-2.37-.22l2.68.33c-1.1-.1-2-.15-1.58.01l5.52.46,2.9.22,3.2.18a43.923,43.923,0,0,0,4.57.47c-.22-.04-.27-.06-.24-.08-.7-.04-.97-.1.55-.06-.03.01.02.02.03.03l.67-.04c1.2.12,1,.15.43.14.9.04,1.9.06,1.1.13a20.144,20.144,0,0,0,4-.13l7.45-.02-.47.04a29.833,29.833,0,0,0,3.33.1c1.53-.64,5.1-.2,9.36-.7-.55-.14,1.64-.24,1.43-.37,4.15-.18,7.37-.9,11.96-1.43l-.23.05a32.5,32.5,0,0,0,5.36-.95c-.6.24,1.63-.1.83.16a23.9,23.9,0,0,1,2.8-.6l2.13-.37c.8.03,3.72-.7,5.6-.98l2.36-.74-.82.33c1.27-.3,1.53-.25,1.03-.07.58-.1.86-.22,1.72-.44l-.37.2c1.57-.3,2.18-.75.9-.44,3.13-1.08,1.92-.27,4.74-1.2l.78-.46-.26.15c3.16-.92,1.23.02,4.4-.95l.13.1c.7-.17,1-.54.8-.53a2.024,2.024,0,0,0,.78-1.3,1.987,1.987,0,0,0-.03-.8l-.27-1.2-.5-2.27-.23-1.04a3.245,3.245,0,0,1-.1-.54c-.05-.15-.07-.2-.1-.2a.031.031,0,0,0-.01.02c-.01.1,0,.37-.1.3-.02-.02-.04-.03-.05-.04a.832.832,0,0,1-.23.1l-.65.1c-.6.1-1.18.17-2,.32l.53.01-3.7.74.5-.2-2.47.5c-.68.23.36,0,1.16-.12-2.66.5-4.8,1.3-7.54,1.55l.3-.18a1.578,1.578,0,0,0,.6-.1c2.64-.68-2,.24-2.14.17-.74.28-3.14.58-4.14.94-4.8.48-8.46,1.38-12.1,1.65.93-.2-1.2.05-1.1-.06-1.6.1-1.18.3-2.63.4l-1.33-.03c-3.36.55-2.33,0-5.57.36-2.08.4-4.9.18-8.05.57l-.1-.12c-2.42.23-3.68.02-5.64.16-.52-.1.48-.08.4-.24-2,.17.5-.28-.82-.1-2.8-.1-5.57.64-8.28.57-2.9.18-5.38-.4-5.9-.1l1.5.07-4-.1-.1-.12c-1.62.01-5.44-.35-7.46-.35.02-.01-.12-.03-.23-.06-2.06-.06-2.58-.33-4.43-.33l.23-.02c-3.25,0-10.2-1.14-15.17-2.1a45.511,45.511,0,0,0-5.03-1.2,1.931,1.931,0,0,0,.84.1c-1.43-.26-2.9-.7-4.37-1.12-1.46-.48-2.94-.95-4.4-1.28h.1c-1.07-.44-4.5-1.3-4.9-1.8a46.851,46.851,0,0,1-10.52-4.57l.22.06c-.63-.37-1.2-.77-1.75-1.12a3.9,3.9,0,0,0-.36-.25l-.2-.16-.43-.35a4.9,4.9,0,0,0-.44.6l-.58.9-1.07,1.67-1.15,1.74-.97,1.7a1.805,1.805,0,0,0-.1,2.1c.93.6,2.14,1.34,3.6,2.16,1.37.66,3,1.4,4.97,2.2a42.172,42.172,0,0,0,6.96,2.8Zm2.5-11.04,1.33.5.16.05,3.62-7.88c1.52-3.66,3.05-7.56,5-13.08,1.75-4.83,2.82-7.9,3.76-11.1.48-1.6.95-3.2,1.37-5.06.48-1.87.9-4,1.4-6.6,1-4.98,1.84-10.32,2.6-15.2.17-2.35,1-6.42,1.24-9.2l.28-1.05a30.025,30.025,0,0,1,.4-3l.03.06c.1-1.43.4-3,.46-3.72l.03.06.23-1.72.01.3c.25-2.48.6-5.02.96-7.26l-.17.17c.8-4.77.76-6.56,1.5-10.87l.03.06c.34-5.52,1.38-8.62,1.73-14.3-.04.7.1-.3.14-.23l.27-2.55h-2c-.26,1.8-.45,3.95-.67,4.57,0,0-.6,4.07-.54,5.03-.01-.83-.34,1.4-.4.75a37.054,37.054,0,0,1-.6,5.44l.02-.24c-.74,4.6-.86,7.92-1.6,12.04.17-.17-.2,2,.04,1.5-.4,4.3-1.47,7.75-1.13,9.38a32.113,32.113,0,0,1-.64,3.3l.04-.47-1.08,7.4a27.637,27.637,0,0,1-.38,4.02c.02-.8-.12.2-.26,1.1.08-.58.07-.77-.2.4a6.084,6.084,0,0,1-.04.68c-.01.01-.02.05-.03.03-.22,1.5-.14,1.26-.01.56.01.04.04-.02.1-.23-.4,1.54-.73,4.36-.94,4.52l-1.87,11.55c-.18.4-.08-.5.1-1.58l-.5,2.66a12.979,12.979,0,0,1,.37-2.36c-.2.78-.4,1.58-.55,2.4l-.52,2.48a36.321,36.321,0,0,1-1.35,5.23l-.1.78-.08.2a5.28,5.28,0,0,1-.27,1.38c-.27.48-.25-.1-.8,1.67-.52,1.38-1.28,4-1.84,5.85.36-.98.3-.64.2-.2-.3.88-.62,1.34-.82,2.04l-.14.02c.06.16-.74,2.4-.8,2.7-.3.46.43-1.4.42-1.64l-2.03,5.24c-.67,1.9.28-.28.03.66-.66,1.64-1.22,3.28-2.14,5.1l.4-.53a51.553,51.553,0,0,1-3.2,6.84c-.18.47-.38.93-.57,1.37Z" fill="#fff"/>
      <path id="Path_11904" data-name="Path 11904" d="M210.28,324.55l.57-1.24-.03.23a62.574,62.574,0,0,0,3.48-10.92c.43-.44,1.12-3.9,1.48-5v.1c.54-2.97,1.64-6,2.02-8.88a2.3,2.3,0,0,1-.06.85,40.21,40.21,0,0,1,1.06-5.06,149.937,149.937,0,0,0,2.08-15.18l.02.23c.06-1.85.27-2.37.42-4.42.04-.1.06-.25.07-.23.06-2,.62-5.8.7-7.43l.12-.1.36-3.97-.17,1.48c-.26-.54.48-2.98.53-5.88.27-2.7-.17-5.52.2-8.3-.04-1.35.14,1.2.18-.8.16-.05.03.94.2.44.08-1.97.4-3.2.47-5.63l.13-.1c0-3.17.58-5.94.5-8.06.1-3.26.5-2.16.5-5.57l.25-1.3c.12-1.45-.14-1.05.04-2.66.1.1.2-2.03.25-1.08.4-3.63.2-7.4.77-12.2-.15-1.05.1-3.46,0-4.25.05-.06.12-1.24.18-2.1h-1.77c-.26,5.8-.57,11.46-1.05,16.74l-.18.5c-.23.2.12,3.25-.1,3.68v1.37c-.06.38-.15,1.18-.16.5a17.333,17.333,0,0,0-.05,2.2l-.22,1.34c-.42,4.95-.46,9.2-.9,14.4-.72,6.25-1.48,18.04-2.13,24.82-.74,9.56-3.17,20.44-5.02,30a6.323,6.323,0,0,0-.2,1.12q-1.05,4.35-2.3,8.63s-.74,2.6-1.85,5.96c-.56,1.7-1.23,3.57-1.93,5.4.53.1,1.04.2,1.56.32Zm19.38,2.55,1.58.06c1.36-7.36,1.8-12.56,2.96-22.55l1.42-11.67c.36-3.3.7-6.65.97-12,.35-5.12.43-10.54.6-15.53-.12-2.37.25-6.54.17-9.34l.16-1.08a26,26,0,0,1,.08-3.06l.03.06c-.04-1.44.08-3.06.06-3.78l.03.06.05-1.75.04.3c0-2.5.1-5.1.22-7.38l-.15.18c.35-4.87.1-6.66.47-11.05l.03.06c-.17-5.58.6-8.78.45-14.53.02.72.1-.3.12-.24.06-2.64.14-5.46-.14-5.5.01-.36.03-.6.04-.83h-1.56a1.029,1.029,0,0,1-.01.17c-.01-.07-.01-.13-.02-.17h-.08a8.674,8.674,0,0,0-.1,1.2l-.12-.9.13,2.5c-.2,1.92-.16,4.98-.36,5.77,0,0-.24,4.14-.1,5.1-.08-.84-.2,1.45-.32.8a36.768,36.768,0,0,1-.1,5.52v-.24c-.32,4.7-.1,8.04-.44,12.25.15-.2-.01,2.04.2,1.5.02,4.37-.68,7.93-.17,9.53a29.2,29.2,0,0,1-.3,3.37v-.47l-.25,7.56a28.541,28.541,0,0,1,.1,4.08c-.07-.8-.1.2-.13,1.13.01-.6-.03-.78-.14.43a4.522,4.522,0,0,1,.04.68c-.01.01-.02.06-.03.03-.02,1.54.02,1.28.06.56.01.04.04-.02.08-.24-.2,1.6-.16,4.46-.35,4.65l-.14,6.2-.18,5.6c-.12.43-.14-.48-.1-1.6l-.16,2.73a13.206,13.206,0,0,1,.07-2.4c-.22,1.62-.3,3.3-.36,5.04-.1,1.75-.2,3.56-.46,5.45l.03.8-.04.22a5.877,5.877,0,0,1,.01,1.42c-.17.53-.26-.06-.45,1.82-.25,1.48-.4,4.23-.56,6.18.14-1.05.16-.7.15-.24-.1.94-.28,1.47-.33,2.2l-.13.06c.1.14-.18,2.52-.17,2.84-.18.52.08-1.47.02-1.7l-.72,5.64c-.16,2.02.2-.34.2.63-.2,1.77-.37,3.5-.75,5.53l.23-.62a65.728,65.728,0,0,1-1.24,7.53,14.279,14.279,0,0,1-.13,1.48Zm18.26-102.12c-.2.24.53,3.23.36,3.7l.18,1.37c-.01.4,0,1.2-.1.52l.23,2.2-.05,1.37c.2,5,.7,9.25.9,14.52.1,6.33.56,18.24.86,25.12.52,9.66-.15,20.9.16,30.8a5.542,5.542,0,0,0,.06,1.15l-.2,9.03-.28,6.32-.36,6.23h1.52l.25-1.92.03.23a85.469,85.469,0,0,0,.5-11.52c.32-.53.14-4.08.24-5.24l.02.1c-.18-3.03.23-6.24.03-9.16a2.161,2.161,0,0,1,.1.85,36.3,36.3,0,0,1,.05-5.2c-.07-5.08-.1-12.17-.43-15.4l.05.22c-.2-1.85-.07-2.4-.2-4.47a1.73,1.73,0,0,1,.04-.24c-.22-2-.15-5.9-.27-7.52l.1-.1-.12-4.02v1.5c-.32-.5.12-3.04-.15-5.95-.03-2.73-.8-5.52-.78-8.35-.2-1.34.28,1.18.1-.83.16-.07.14.94.25.4-.16-1.98,0-3.26-.22-5.7l.12-.1c-.4-3.17-.17-6.02-.5-8.13-.3-3.28.24-2.23-.22-5.63l.08-1.34c-.06-1.47-.27-1.04-.3-2.66.1.1-.05-2.06.1-1.1-.07-3.68-.73-7.44-.8-12.3-.28-1.04-.33-3.48-.54-4.25.04-.06-.03-1.1-.08-1.92h-1.77c.48,5.84.9,11.56,1.1,16.92l-.1.52Zm8.46-14.1.54,5.7.7,5c-.22-.8.02,1.45-.2.82a37.113,37.113,0,0,1,.78,5.4l-.05-.23c.45,4.64,1.22,7.87,1.63,12.03.12-.2.35,2,.45,1.42.78,4.25.77,7.86,1.58,9.3a32.831,32.831,0,0,1,.36,3.33l-.1-.46,1.2,7.38a26.976,26.976,0,0,1,.85,3.94c-.22-.77-.05.22.07,1.12-.1-.58-.16-.75-.06.45.06.16.1.42.16.66-.01.01-.01.06-.02.04.25,1.5.25,1.24.16.53.02.03.03-.03.03-.25.1,1.6.63,4.37.48,4.58l1.88,11.54c-.04.44-.24-.44-.42-1.53l.4,2.68a13.424,13.424,0,0,1-.42-2.36c.22,3.23,1.1,6.56,1.38,10.34l.2.76.01.23a6.049,6.049,0,0,1,.33,1.37c-.05.55-.27,0-.02,1.85.08,1.48.6,4.17.9,6.08-.1-1.04-.01-.7.1-.27.12.93.08,1.48.22,2.2l-.1.08c.13.1.44,2.46.54,2.77-.05.54-.28-1.43-.4-1.65l.72,5.6c.37,1.97.1-.38.36.55.25,1.75.57,3.45.73,5.48l.06-.66c.5,3.3.74,5.26.87,7.5l.3,1.7.38-.07a3.721,3.721,0,0,0,1.17-.13c-.8-7.58-1.74-12.64-3.1-22.67-1.22-10.13-1.3-12.85-2.8-23.32l-2.2-15.2c-.55-2.3-.95-6.4-1.57-9.12l-.05-1.08a25.025,25.025,0,0,1-.5-3l.04.05c-.3-1.4-.5-2.98-.65-3.68l.04.05-.27-1.7.1.3c-.47-2.44-.83-4.97-1.1-7.2l-.12.2c-.5-4.8-1.03-6.5-1.4-10.84l.04.05c-1.08-5.4-.84-8.66-1.86-14.25.13.7.04-.3.08-.26-.35-2.6-.7-5.36-.98-5.36l-.1-1.15h-1.6c.04.24.07.46.1.74-.12-.52-.2-.26-.04,1.04l-.25-.85.5,2.45Zm11.95,13.02-.03.54c-.17.27,1,3.1.9,3.57l.4,1.3c.04.38.18,1.18-.02.53a15.379,15.379,0,0,0,.57,2.12l.17,1.35c.98,4.87,2.18,8.93,3.34,14.03.6,3.1,1.66,7.5,2.86,11.93s2.54,8.9,3.52,12.16c2.86,9.13,5.04,20.07,7.88,29.43a4.787,4.787,0,0,0,.35,1.08l2.1,8.68.38,1.75.9,4.36,1.36,6.3,1.46-.3-.33-2.26.1.2-1.17-6.14a47.449,47.449,0,0,0-1.24-5c.16-.6-.9-3.94-1.1-5.08l.05.1c-.95-2.85-1.36-6.03-2.3-8.76a2.157,2.157,0,0,1,.32.78,34.05,34.05,0,0,1-1.27-4.98c-1.36-4.84-3.16-11.6-4.28-14.64l.1.2c-.66-1.72-.66-2.28-1.3-4.23-.01-.1-.04-.26-.02-.24-.7-1.88-1.6-5.6-2.1-7.14l.08-.13-1.06-3.82.36,1.44c-.43-.42-.6-2.95-1.5-5.7-.64-2.62-1.94-5.15-2.47-7.9-.45-1.26.5,1.1-.07-.83.14-.1.3.88.32.35-.53-1.9-.58-3.17-1.25-5.5l.1-.12c-.93-3.02-1.18-5.83-1.85-7.83-.8-3.15-.12-2.2-1.1-5.46l-.12-1.32c-.28-1.42-.42-.97-.7-2.56.12.07-.35-2-.05-1.1-.6-3.6-1.8-7.17-2.5-11.92-.4-.98-.8-3.36-1.1-4.1.02-.06-.13-.83-.27-1.57h-1.8l.22,1,3.15,15.37Z" fill="#fff"/>
    </g>
    <path id="Path_11905" data-name="Path 11905" d="M182.28,418.32c-.01,0-.02-.01-.04-.01A.158.158,0,0,0,182.28,418.32Z"/>
    <path id="Path_11906" data-name="Path 11906" d="M169.3,414.42a7.925,7.925,0,0,0-1.03,1.33l.15-.06a8.147,8.147,0,0,0-.78.95c-.08.22.3-.17.04.22l-.85.9c0-.07.3-.38.17-.35-.02.08-.44.54-.32.54l-.08-.05c-.1.14-.22.18-.36.33-.05.1-.07.17.1.01a6.913,6.913,0,0,1-.86,1.05c-.28.3-.26.15-.4.2-.08.1-.17.27-.15.3l-.04.03-.07.17a7.805,7.805,0,0,0-.85.88l-.2.2c-.04.06-.08.1-.12.16l-.2.3c.01-.12.18-.3.12-.36a1.27,1.27,0,0,0-.17.4c.02-.16.06-.32-.02-.28-.27.63.14,1.18.85,1.65-.04.12.48.32.75.46-.04-.03-.04-.04-.03-.05-.13-.06-.17-.08.1-.02-.01.01,0,.01,0,.02h.07a.318.318,0,0,0,.1,0c.22.08.2.1.07.1.18.03.38.06.2.1.48.13.58-.05.86-.05a16.288,16.288,0,0,0,1.63.1l-.1.01a2.573,2.573,0,0,0,.73.14c.36-.33,1.12.05,2.08-.02-.12-.12.37-.05.33-.14.9.14,1.65-.04,2.67.08l-.05.01a2.687,2.687,0,0,0,1.2-.03c-.14.08.35.12.17.18a4.207,4.207,0,0,1,1.1-.03c.17.1.84.02,1.26.1l.55-.12-.2.1c.3-.01.34.06.22.1a1.991,1.991,0,0,0,.4-.02l-.1.07c.35.04.5-.13.22-.13.73-.2.42.1,1.08-.03l.13-.1.06-.05-.06.05c.73-.07.26.2,1,.1l.02.08c.2-.01.38-.01.3-.1l2.04.18c.43-.02-.16-.07.05-.13a2.352,2.352,0,0,1,1,.07l-.1-.08.82.05-.12.06.55.02c.16-.05-.08-.04-.25-.07a8.787,8.787,0,0,1,1.7-.04l-.07.07c.01-.02-.08-.02-.14-.01-.6.1.44.08.47.13.17-.1.7-.01.93-.14a5.3,5.3,0,0,0,1.35.05c.1-.02.13-.06.27-.02a.1.1,0,0,1,.03.01c.02.03.08.06.08.04s.01-.04.06-.01c.01-.1-.17-.13-.18-.2a.144.144,0,0,0,.06-.1.8.8,0,0,0-.08-.06l-.08-.12a.687.687,0,0,1-.07-.2.891.891,0,0,0-.27-.52c-.36-.28-.55-.9-1.13-1.27l.04-.07c-.4-.3-.52-.58-.88-.8-.04-.13.1.03.15-.05-.38-.2.18-.06-.1-.17-.45-.44-1.18-.36-1.7-.65-.6-.18-.97-.68-1.16-.56l.3.15-.8-.36v-.07a13.024,13.024,0,0,0-1.52-.6c.01,0-.02-.02-.04-.04a3.8,3.8,0,0,0-.92-.3h.06c-.7-.13-2.12-.75-3.16-1.1,0-.1-.6-.3-1.04-.43.14.05.17.01.2,0-.64-.1-1.2-.57-1.87-.66h.03c-.22-.14-1-.23-1.08-.47a5.923,5.923,0,0,1-2.26-1.27l.06.01a12.582,12.582,0,0,1-1.64-1.8l-.26-.2a5.134,5.134,0,0,1-.6,1.34l-.46,1.04Z" fill="#fff"/>
    <path id="Path_11907" data-name="Path 11907" d="M353.78,405.77h-.04C353.77,405.78,353.78,405.77,353.78,405.77Z"/>
    <path id="Path_11908" data-name="Path 11908" d="M339.3,404.18a12.093,12.093,0,0,1,.06,1.3,13.7,13.7,0,0,0-.35,1.8l.12-.13c-.17.47-.2.9-.33,1.3,0,.25.2-.3.12.2a9.7,9.7,0,0,1-.5,1.3c-.02-.07.18-.52.06-.43.01.1-.27.73-.15.68l-.1-.02c-.05.17-.17.26-.26.47-.03.1-.03.2.1-.02a6.611,6.611,0,0,1-.62,1.38c-.22.4-.23.24-.36.32a.859.859,0,0,0-.1.34l-.04.04-.04.2a6.153,6.153,0,0,0-.38.56,1,1,0,0,0-.13.46,1.951,1.951,0,0,0,.16.83c-.1-.1-.14-.38-.2-.37a1.3,1.3,0,0,0,.2.43c-.13-.15-.23-.3-.25-.2a1.309,1.309,0,0,0,1.34.7l.73-.1c.06.1.72-.06,1.1-.04q-.075-.015-.06-.03c-.17.02-.23.01.12-.07a.01.01,0,0,0,.01.01.419.419,0,0,0,.15-.07c.3,0,.25.03.1.06.22-.04.45-.1.27.01.58-.06.6-.23.92-.32l1.76-.37-.1.04a2.9,2.9,0,0,0,.8-.07c.3-.4,1.2-.27,2.2-.62-.15-.08.37-.15.3-.23,1-.13,1.73-.52,2.84-.7l-.05.02a3.477,3.477,0,0,0,1.27-.37c-.13.12.4.01.23.13a5.089,5.089,0,0,1,1.17-.35,12.154,12.154,0,0,0,1.36-.25l.55-.27-.18.14c.3-.1.38-.04.26.03a2.979,2.979,0,0,0,.4-.13l-.08.1c.4-.06.5-.27.2-.2.73-.4.48-.01,1.14-.33l.1-.13.06-.07-.06.07c.75-.27.32.1,1.08-.18l.04.07c.2-.07.4-.1.3-.18l2.2-.38c.45-.13-.2-.02.02-.13a2.643,2.643,0,0,1,1.08-.2l-.14-.04.9-.18-.1.1.6-.14c.16-.1-.1-.02-.3,0a9.553,9.553,0,0,1,1.8-.5l-.06.1c0-.02-.1,0-.15.02-.6.27.5-.05.53,0,.16-.14.74-.2.96-.38l.5-.06a.677.677,0,0,0,.16-.06c.07-.01-.03-.07-.06-.1a.351.351,0,0,1-.08-.1c.1.02-.01-.07.03-.12-.1-.14-.2-.04-.43-.23l-.2-.25c-.73-.26-.38-.4-1.1-.66-.5-.07-1.02-.5-1.78-.5V407c-.6-.04-.86-.24-1.33-.28-.1-.1.12-.02.13-.12-.5-.02.15-.13-.18-.1-.65-.2-1.38.06-2.02-.08-.7-.01-1.24-.42-1.4-.26l.35.08-.95-.16-.01-.07a14.532,14.532,0,0,0-1.78-.27c.01,0-.03-.02-.05-.04a6.955,6.955,0,0,0-1.06-.13l.06-.02a29.8,29.8,0,0,1-3.64-.54,3.478,3.478,0,0,0-1.2-.27c.16.03.18-.02.2-.03-.7-.01-1.4-.4-2.15-.4l.03-.01c-.26-.1-1.12-.1-1.22-.3a11.029,11.029,0,0,1-2.7-.45l.06-.02-2.48-.93-.35-.07s.04.66,0,1.64Z" fill="#fff"/>
  </g>
</svg>
