<svg xmlns="http://www.w3.org/2000/svg" width="296.401" height="227.32" viewBox="0 0 296.401 227.32">
  <g id="_156" data-name="156" transform="translate(-55.28 -207)">
    <g id="Group_860" data-name="Group 860">
      <path id="Path_12221" data-name="Path 12221" d="M350.75,422.05c-.4-2.44-1.27-6.3-3.08-9.02-2.4-3.33-27.3-9.47-34.35-11.25a2.563,2.563,0,0,0-2.76,1.17l-.24.4-3.8-17.74,9.87-2.3a3.46,3.46,0,0,0,2.6-3.9l-1.78-9.77-3.87.65s-9.3-60.5-12.57-70.87c-3.35-10.5-26.04-63.6-37.02-89.1l1.18-3.28H194.2l-17.33,72.68c-1.26,2.12-58.48,22.17-58.48,22.17l-.8-2.12-9.1,2.75a3.473,3.473,0,0,0-2.4,4.1l3.85,16.26-2.02-7.65-15.4,4.02a23.687,23.687,0,0,0-3.02,1.03,3.771,3.771,0,0,0,.6-.6,1.464,1.464,0,0,0-.16-2.1c-2.15-1.12-8.63-3.22-16.5-4.02l.06-.32v-.07l-.07-.01-.14-.01-.28-.03-1.77-.15-1.36-.1c-.22-.01-.42-.04-.7-.03H69a2.3,2.3,0,0,0-.75.19,2.868,2.868,0,0,0-1.48,1.55,1.858,1.858,0,0,0-.08.26c-.03-.02-.08.05-.13.17-.1-1.1-.98,3.15-.98,3.15-.98,4.47-1.16,6.84-2.05,12.2-.88,4.7-1.26,5.93-2.07,10.82l-1.22,7.1c-.07,1.1-.53,3-.65,4.3l-.16.48a8.46,8.46,0,0,1-.23,1.41l-.02-.03c-.06.67-.23,1.4-.26,1.74l-.02-.03-.1.84v-.14c-.15,1.16-.35,2.34-.57,3.38l.1-.07c-.5,2.2-.46,3.06-.93,5.05l-.02-.03c-.23,2.6-.87,4-1.12,6.66.03-.33-.07.13-.1.1a7.744,7.744,0,0,0-.24,2.55c-.16.88-.18.7-.27.8.04.01.02.18,0,.53a2.617,2.617,0,0,0,.25,1.2,1.989,1.989,0,0,1-.17-.36,2.182,2.182,0,0,0,1.8,1.54l-.15-.1a3.185,3.185,0,0,0,.33.1,2.114,2.114,0,0,1-.2-.12c.06.02.12.03.16.04h-.03c.26.1,0,.14.8.2v-.02c.06.01.1.01.18.02v-.1l.8.1,1.26.2c0-.01.01-.02.01-.03l.18.03c.04-.13.07-.26.1-.4a19.639,19.639,0,0,0,6.44-.42c3.92-1.2,17.67-22.85,21.6-28.97a3.032,3.032,0,0,0,.32-.9,23.319,23.319,0,0,0,6.58-1.2l18.54-4.6,2.38,10.04a3.293,3.293,0,0,0,3.9,2.4l8.67-2.16-.1-4.38s59.43-12.7,71.25-17.23c17.4-6.7,25.5-16.5,30-28.6l3.8-10.43,20.4,34.13c2.7,6.3,10.35,37.03,12.6,44.46,1.3,4.12,3.13,11.66,2.93,11.27l-2.48.75,1.6,9.2a2.473,2.473,0,0,0,3,2l5.84-1.36c.01.06.02.16.06.34l-.05-.34.57-.13,3.72,15.32a23.732,23.732,0,0,0,1.04,3.18,1.254,1.254,0,0,0-.12.3c-.44,2.8-.27,11.63,2.48,20.9a2.306,2.306,0,0,0,2.37,1.5l60.84-9a1.776,1.776,0,0,0,1.58-2.2Zm-283.9-107c-.02.16.02.23.07.16.07-.07.2-.3.44-.6a2.071,2.071,0,0,0-.18.47l-.75,4.2a40.5,40.5,0,0,0,.33-4.08.852.852,0,0,0,.1-.13ZM329.1,428.47l.13-.03A.857.857,0,0,0,329.1,428.47Zm-7.16.6.1-.03h-.02ZM108.7,344.34l.1-.08Z" fill="#fff"/>
      <path id="Path_12222" data-name="Path 12222" d="M58.73,355.24l-.01.14C58.72,355.31,58.73,355.28,58.73,355.24Zm48.7-40.36.4-.07A1.423,1.423,0,0,0,107.43,314.88Zm7.6,34.94.1.4a.641.641,0,0,0-.02-.07,2.072,2.072,0,0,0-.1-.33Z" fill="#fff"/>
    </g>
    <path id="Path_12223" data-name="Path 12223" d="M351.65,421.8l-.06-.46-.13-.96a13.951,13.951,0,0,0-1.17-4.12c.18.38.01-.2.05-.18-.55-1.46-1.42-2.95-1.68-2.82l-.5-.85c-.07-.13-.02-.15-.05-.26-.1.03-.98-.63-1.77-1l.38.16a25.026,25.026,0,0,0-2.28-1.1l.35.42c-1.17-.6-.2-.4-1.37-.84l-.06.2c-1.66-.7-2.56-1.33-4.17-2.03-6.86-2.38-14.48-3.86-20.88-5.86l-.25-.22c-.07-.24-1.87-.15-2.07-.4l-.78-.1c-.2-.1-.64-.24-.25-.2a6.69,6.69,0,0,0-1.26-.22,4.137,4.137,0,0,0-.47-.16c-.17-.04-.34-.07-.5-.1a3.53,3.53,0,0,0-2.09.66c-.1-.94-.44-1.67-.62-2.6.04.3.12.66.02.42l-.18-.9.1.17-.25-1.33-.04.2a6.128,6.128,0,0,0-.28-1.62c-.13-.32.03.63-.14-.04-.13-.88-.33-2.2-.55-3.3-.06.12-.12-.18-.2-.48l.07-.05c-.35-1.15.07-.46-.26-1.6l-.15-.18c-.37-1.02.03-.6-.42-1.72.1.46-.1.25-.2-.32l.1.13a4.762,4.762,0,0,1-.16-.62c.08.18.12.08.01-.38l.15.3-.32-.85c-.01-.1-.03-.2-.04-.3l-.01-.06,3.36-.8,3.36-.78,2.55-.57a4.424,4.424,0,0,0,1-.36,4.242,4.242,0,0,0,2.3-3.44,4.807,4.807,0,0,0-.05-1.08l-.45-2.64-1.35-7.98-2.86.45-.68.1-.26.03-.03-.3-.14-.98-.34-2.28-.7-4.53-1.5-8.82q-.076-.563-.19-1.12l-.1-.5a.629.629,0,0,0-.06-.2l-2.36-14.5s-2.88-17.6-5.3-28.4c-1.17-5.4-2.46-9.1-2.42-8.12-.01.5.36,2.12.88,5.3l2.26,14.63-.1-.35,3.28,18.35c-.13.9,1.05,6.52,1.26,8.4l-.05-.17c1,4.8,1.44,10,2.37,14.64a5.394,5.394,0,0,1-.32-1.34c.58,3.4,1.37,8.04,1.24,8.32l.68,4.3,3.9-.66,1.64,8.8a2.567,2.567,0,0,1-1.32,2.64,2.919,2.919,0,0,1-.69.26l-.87.23-1.53.42.34-.13c-2.9.85-3.78.9-7.03,1.75-.18.02-.42.06-.38.05-3.15.9-9.3,2.2-11.86,2.86l-.2-.07-6.34,1.5,2.38-.53c-.75.5-4.84.93-9.4,2.2-2.16.48-4.3,1.14-6.48,1.8l-1.64.5a3.606,3.606,0,0,1-1.58.25,2.222,2.222,0,0,1-1.36-.72,2.37,2.37,0,0,1-.55-1.5c-.5-2.14.56,1.87-.1-1.35.14-.13.36,1.5.34.64-.3-1.45-.46-2.67-.65-3.94l-.3-1.98-.18-1.1-.12-.63c.14-.05.3-.1.47-.16a.449.449,0,0,1,.13.1l.03-.01c.02.05-.02-.1-.04-.23l-.07-.36.17.34.1.17c.03.06.03.01.05.02l.17-.06.68-.22.26-.16.25-.15a28.465,28.465,0,0,0,2.9-.86c1.35-.27,1.75-.2,3.13-.58.67-.14,1.37-.34,2-.5.28-.2.85-.2,1.2-.4l.16.04a.7.7,0,0,1,.4-.1v.02c.18-.1.4-.1.48-.16v.02l.23-.06-.03.04a4.348,4.348,0,0,1,.95-.26l-.04-.08c.66-.05.85-.28,1.45-.3v.02c.67-.4,1.18-.1,1.88-.5-.1.05.05.03.05.06.34-.1.7-.2.67-.37.25-.06.22,0,.26.06-.02-.07.2-.15.4-.2l-.08.05.56-.15-.14-.1c.3-.03.1.15.4.05l-.03-.1a6,6,0,0,1,1.12.04c1.67-.34,3.38-1.04,4.97-1.2l.1.07c.06.12.38-.28.47-.18l.17-.1c.06.01.17.01.08.06a.519.519,0,0,0,.28-.12l.2.04c.67-.1,1.2-.37,1.9-.5a15.017,15.017,0,0,0,3.26-.83c1.22-.48,2.8-.32,4.04-.83.05.01.15-.06.14-.07l1.2-.26s5.74-1.28,1.15-1.3l.02-.03a3.768,3.768,0,0,0-1.5.4c-.1-.15-.54.1-.7.1h.01c-.36.22-.84.08-1.2.28.01-.02.01-.06.1-.1-.27.1-.64.2-.7.12a9.578,9.578,0,0,0-1.98.6l.02-.03c-.22.16-.3.1-.57.2-.02-.01-.04-.01-.04-.02a5.923,5.923,0,0,1-.97.3l-.03-.06-.52.14.2-.03c-.03.2-.42-.02-.78.18-.36.06-.64.54-1.02.54-.16.12.12-.17-.12-.05-.03-.1.1-.1.02-.15-.25.1-.45,0-.75.14l-.03-.07c-.4.23-.8.1-1.05.28-.42.16-.34-.15-.75.1l-.2-.06c-.2.03-.1.15-.33.15,0-.06-.28.01-.17-.07-.5.01-.94.36-1.6.35-.1.15-.44.15-.53.27-.03-.05-.64.14-.3-.06.03-.02.08-.03.08-.01l.03-.08c-.4-.05-.64.23-1,.3.1,0,.25-.04.17.03l-.33.07.05-.08-.5.08.1.06c-.25.02-.36-.1-.6.08-.1.1.25.05,0,.13-.33.02-.84.06-1.25.13.06.07-.05.1-.16.14l-.03-.07c-.4.2-.2-.12-.6.06l-.05.12c-.36.23-.25-.1-.64.2.17-.05.12.14-.1.16l.04-.08a.633.633,0,0,1-.23.08c.06-.05.01-.1-.16-.06l.1-.1-.3.2c-.27-.02-.65.17-.77.1,0,0-.55.08-.65.2.1-.1-.2-.05-.14-.15a1.144,1.144,0,0,1-.7.22l.03-.02c-.6.06-1,.34-1.55.38-.03-.67-.14-1.84-.38-3.7l.04.07a23.06,23.06,0,0,0-.94-3.9c.13-.22-.3-1.4-.33-1.8l.02.03c-.36-1-.37-2.15-.7-3.12a.58.58,0,0,1,.13.27,7.378,7.378,0,0,1-.36-1.78c-.42-1.72-.92-4.15-1.33-5.22l.04.07a10.838,10.838,0,0,1-.4-1.5c0-.04,0-.1.01-.1-.26-.66-.47-2-.64-2.55l.06-.05-.33-1.37.1.52c-.22-.14-.12-1.06-.47-2.03-.2-.93-.8-1.8-.94-2.78-.2-.44.23.37.01-.3.1-.04.13.3.17.1-.2-.67-.16-1.13-.4-1.95l.06-.05c-.38-1.06-.38-2.07-.67-2.77-.32-1.1.04-.8-.37-1.94l-.01-.48c-.1-.5-.2-.33-.28-.9.07.02-.1-.7.02-.4-.2-1.28-.73-2.5-.95-4.2-.2-.33-.33-1.18-.48-1.42.04-.06-.4-1.66-.05-.76.03.08.06.22.04.2l.1.1a23.05,23.05,0,0,0-.68-2.63c.04.28.14.65.03.4l-.2-.87.1.17-.27-1.3-.03.2a5.167,5.167,0,0,0-.32-1.58c-.14-.3.04.62-.14-.04-.15-.85-.38-2.13-.63-3.2-.06.12-.13-.17-.22-.46l.06-.05c-.4-1.1.05-.46-.3-1.57l-.15-.17c-.4-.98,0-.6-.5-1.67.13.44-.1.25-.22-.3l.1.12c-.1-.3-.15-.4-.2-.6.1.17.13.07-.02-.38l.18.28-.38-.82c-.1-.7-.63-1.67-.63-1.97a11.207,11.207,0,0,0-.78-1.62c.18.24-.12-.5.05-.33a7.572,7.572,0,0,1-.87-1.73l.04.07c-.62-1.53-1.32-2.5-1.87-3.86-.05.1-.35-.62-.36-.4-.77-1.32-1.03-2.6-1.58-2.94a5.908,5.908,0,0,1-.44-1.1l.1.14-1.2-2.35a5.733,5.733,0,0,1-.78-1.2c.18.22.01-.1-.13-.38.1.18.15.23,0-.17a1.038,1.038,0,0,1-.14-.19c0-.01,0-.02.01-.02-.26-.47-.24-.38-.13-.15-.01-.01-.02.02,0,.1-.18-.54-.7-1.4-.64-1.5-.76-1.43-1.38-2.42-2.03-3.6-.02-.16.17.1.37.44l-.45-.84c.08-.03.3.47.44.72-.4-1.07-1.18-2.03-1.7-3.28l-.18-.22-.03-.08c-.03.02-.2-.23-.3-.4-.02-.2.15-.06-.16-.65a14.513,14.513,0,0,0-1.06-1.9c.16.33.07.25-.03.12a6.032,6.032,0,0,0-.32-.7l.07-.07c-.02.16-.48-.72-.57-.82-.02-.2.3.43.37.48l-.92-1.76c-.4-.6-.02.16-.25-.1a18.233,18.233,0,0,1-.92-1.72l.03.24a15.563,15.563,0,0,1-1.2-2.38c-4.65-7.44-1.68-1.2-1.68-1.2,1.42,3.14,2.46,4.6,4.4,8.22,1.6,3.22,1.9,4.15,3.66,7.44.8,1.6,1.7,3.27,2.5,4.8.48.68,1.03,2.04,1.56,2.87l.1.37a6.166,6.166,0,0,1,.5.95l-.03-.01c.27.43.5.95.63,1.16l-.03-.01.28.54-.07-.08q.641,1.121,1.17,2.3l.05-.1c.65,1.57,1.1,2.05,1.65,3.5l-.03-.01c1.03,1.66,1.18,2.84,2.1,4.57-.12-.22,0,.1-.03.1.37.82.6,1.76.78,1.72.18.64.1.54.05.64a3.164,3.164,0,0,1,.4,1.04l-.1-.23.4,1.44.06-.32c.16.78-.12.24.1.97l.1-.04c.24,1.08.23,1.75.4,2.8,1,4.32,2.4,8.9,3.12,12.97l-.04.2c-.1.1.44,1.07.36,1.25l.17.45c.01.14.05.42-.03.2a4.109,4.109,0,0,0,.23.74l.03.48c.34,1.72.82,3.14,1.2,4.95.34,2.2,1.4,6.23,2.03,8.55.94,3.25,1.3,7.2,2.28,10.52a1.118,1.118,0,0,0,.12.38l.68,3.1s1.24,5.6,1.85,7.3c-.5.16-.97.02-1.1.37-.25.08-.32-.01-.46.01l.06-.03a8.852,8.852,0,0,1-.98.25c-.17.07-.16.24-.5.27.1-.1-.04-.04-.16-.02.07-.03.1-.06-.07-.06a.554.554,0,0,1-.08.06c-.2.06-.17.07-.07.06,0,.01.01.02.04.03-.23-.03-.58.14-.63.04-.6.16-1,.37-1.5.53-.07-.04.04-.12.18-.17l-.35.1c-.02-.08.2-.1.3-.13-.45-.03-.85.33-1.37.33l-.1.1h-.03c.01.03-.1.1-.16.13-.1-.05-.03-.16-.28-.1a2.4,2.4,0,0,0-.8.26c.14-.02.1.03.05.07-.12.03-.2-.02-.3.03l-.03-.1c.07.08-.3.17-.34.22-.1-.05.18-.1.2-.16l-.74.18c-.25.13.07.08-.04.2a2.316,2.316,0,0,1-.72.2l.1.06a2.828,2.828,0,0,1-.77.2c-.07-.37-.18-.77-.23-1.03l-.2-.9-.8-3.36a50.9,50.9,0,0,0-1.63-5.7c-1.55-5.07-.62-3.52-2.3-8.82l-.4-2.13c-.6-2.3-.64-1.6-1.24-4.16.14.13-.78-3.24-.28-1.78-1.4-5.8-3.34-11.65-5.26-19.3-.67-1.6-1.72-5.43-2.32-6.6a18.086,18.086,0,0,0-1.37-3.32c-.3-.66-.58-1.14-.6-1.24s.18.16.73,1.18a5.236,5.236,0,0,1,.45.95l.36.44c-1.88-4.3-4-7.2-6.15-11.1.6,1.17,1.48,2.7.83,1.7l-2.02-3.6.5.7-3-5.37.3.8c-1.44-2.64-1.78-3.67-3.62-6.52-.85-1.28,1.27,2.56-.35-.18l-2.8-5.1-.8,2.65,13.25,23.08.95,1.72.87,1.7a29.9,29.9,0,0,1,1.36,3.57c.8,2.45,1.53,4.9,2.23,7.36q2.022,7.149,3.81,14.36l.08.85c-.1.4,1.67,5.03,1.66,5.8l.67,2.13c.12.62.43,1.9.1.84.52,2,.57,2.04,1.02,3.45l.45,2.17q.562,2.18,1.2,4.34c.43,1.38.83,2.74,1.2,4.1l1.1,4.12.5,2.03c0,.01-.04.02-.06.03l-.32.1-2.06.63.97,5.64.64,4.2a4.651,4.651,0,0,0,.15.72,3.146,3.146,0,0,0,.35.77,3.212,3.212,0,0,0,1.23,1.17,3.451,3.451,0,0,0,1.66.46,4.239,4.239,0,0,0,.88-.08l.62-.14,10.65-2.5,22.17-5.4.1.4c.1.36.2.6.3.6.14.67.06.56.02.66a3.055,3.055,0,0,1,.34,1.08l-.08-.24.35,1.5.08-.32c.13.8-.13.24.07,1l.1-.03c.2,1.1.18,1.8.32,2.88.43,2.12.95,4.3,1.45,6.46l-.4-.1.01-.03a1.3,1.3,0,0,0-.85.22c-.07-.16-.3.04-.4,0l.01-.02c-.2.17-.5-.02-.68.14.01-.02,0-.06.05-.08-.16.05-.37.13-.4.04a3.34,3.34,0,0,0-1.13.36l.01-.03c-.12.13-.18.05-.32.13l-.02-.02c-.13.13-.44.1-.55.17l-.02-.06-.3.07.12-.01c0,.2-.25-.07-.45.1-.2.02-.34.46-.57.4-.08.1.06-.15-.08-.06-.02-.1.06-.07.01-.14-.14.07-.26-.05-.43.05v-.07c-.2.18-.47-.01-.6.15-.23.1-.2-.2-.44.01l-.12-.08c-.1.01-.06.14-.2.1,0-.06-.16-.02-.1-.1-.3-.04-.53.25-.93.15-.06.14-.25.1-.3.2-.02-.05-.37.06-.18-.1.02-.01.05-.02.05,0v-.08c-.23-.1-.36.15-.57.17.07.01.14-.01.1.05l-.2.03.03-.07-.3.02.05.07c-.15-.01-.22-.13-.36.01-.06.07.15.08.01.13a3.516,3.516,0,0,0-.73-.01c.04.08-.03.1-.1.12l-.02-.07c-.23.15-.12-.14-.36-.01l-.02.1c-.2.2-.15-.13-.36.12.1-.03.08.15-.05.14l.02-.08c-.06.03-.08.06-.13.06.03-.05,0-.1-.1-.08l.05-.1-.16.17c-.16-.05-.37.1-.45,0,0,0-.32.01-.37.13.05-.08-.13-.07-.1-.16-.07.1-.3.2-.4.14l.02-.01c-.37-.02-.58.23-.92.2.03.08-.15.07-.08.17-.3.17-.64-.1-.7.25-.15.05-.2-.04-.27-.05l.03-.02a3.117,3.117,0,0,1-.56.13c-.1.05-.08.2-.28.2.05-.07-.03-.05-.1-.03.04-.02.05-.04-.05-.07a.218.218,0,0,1-.04.05c-.12.03-.1.05-.04.05,0,.01.01.02.03.04-.14-.06-.33.07-.37-.03-.34.1-.57.25-.85.35-.04-.05.01-.1.1-.15l-.2.06c-.01-.08.1-.07.17-.1-.27-.08-.48.23-.8.16l-.05.07-.02-.01c.01.03-.05.1-.1.1-.05-.06-.03-.16-.17-.13-.12-.04-.3.1-.45.16.08,0,.06.04.03.07-.07.02-.12-.04-.17,0v-.1c.04.08-.17.13-.2.17-.05-.06.1-.08.1-.14-.28.06-.14.03-.42.1-.14.1.04.08-.01.18-.13.04-.25.13-.4.1l.06.07a.832.832,0,0,1-.58.08c-1.74,1.03-.22,1-.22,1,.77.04,1.1-.27,1.97-.5a10.019,10.019,0,0,0,1.8-.2c.38-.06.78-.18,1.15-.27.15-.16.5-.1.68-.24l.1.05a.257.257,0,0,1,.23-.07v.02c.1-.07.23-.07.27-.1v.02l.13-.03-.02.03a1.4,1.4,0,0,1,.55-.14l-.03-.08c.38.02.48-.18.83-.13v.02c.37-.3.7.03,1.08-.27-.05.04.03.04.03.06.2-.06.4-.12.37-.3.14-.03.13.03.16.1-.02-.07.1-.13.22-.15l-.05.04.32-.1-.1-.13c.18.01.08.16.23.1l-.02-.1c.24-.02.4.12.66.16a17.9,17.9,0,0,1,2.85-.6l.06.08c.04.12.2-.23.26-.12l.1-.08c.03.02.1.03.05.07.1-.01.1-.03.16-.1l.12.06c.4-.01.68-.23,1.08-.27a4.905,4.905,0,0,0,1.87-.44c.7-.33,1.63.01,2.33-.35.03.01.08-.04.08-.05l.68-.1a8.288,8.288,0,0,0,1.17-.3l.3,1.28-.18.3c-.15.27-.33.54-.5.8a18.083,18.083,0,0,1-2.5,3.1,26.287,26.287,0,0,1-5.5,3.73,19.663,19.663,0,0,1-3.44,1.33,13.854,13.854,0,0,1-3.11.6,8.949,8.949,0,0,1-3.9-.54,18.664,18.664,0,0,1-3.7-2.1,5.186,5.186,0,0,0-1.2-.64,2.476,2.476,0,0,0-.84-.12,2.8,2.8,0,0,0-.93.16c-.07.03-.14.07-.2.1a1.944,1.944,0,0,1-.1-.24c-.4-1.12-.7-1.9-.8-1.67a7.17,7.17,0,0,0,.3,2.33,1.83,1.83,0,0,0-.48.8,1.786,1.786,0,0,0-.1.47l-.05.33c-.03.2-.04.4-.06.58a21.839,21.839,0,0,0,.06,4.44,2.11,2.11,0,0,0,.1.66c.1,1.73.25,3.46.47,5.18,0,0,.2,1.56.6,3.6a46.431,46.431,0,0,0,1.72,6.38,2.616,2.616,0,0,0,1.15,1.32,2.779,2.779,0,0,0,1.2.36c.53.01.8-.1.8-.2.17-.04.23-.1.14-.12a4.514,4.514,0,0,1-1.44-.6,2.085,2.085,0,0,1-.8-1.05c-.06-.28-.1-.7-.18-1.1q-.131-.768-.24-1.54l.03.05c-.07-.4-.14-.5.13-.5l.13-.01c.12-.01.23-.03.34-.04l.65-.1c.84-.12,1.6-.25,2.37-.43a16.139,16.139,0,0,0,2.42-.25l-.05.02c1.37-.32,2.88-.28,4.2-.58a.831.831,0,0,1-.38.12,13.093,13.093,0,0,1,2.4-.28c2.33-.34,5.6-.74,7.07-1.1l-.1.04c.84-.22,1.1-.17,2.05-.35.05.01.12,0,.1.01.9-.23,2.7-.38,3.45-.53l.06.06,1.85-.27-.7.08c.2-.2,1.4-.08,2.74-.38,1.26-.15,2.5-.72,3.8-.8.6-.17-.53.2.4.02.04.1-.43.12-.18.16.9-.17,1.5-.1,2.63-.32l.06.07c1.45-.33,2.78-.28,3.74-.54,1.5-.27,1.05.08,2.6-.28l.63.02c.68-.08.47-.2,1.22-.24-.04.07.95-.08.52.04,1.7-.13,3.42-.6,5.67-.74.47-.2,1.6-.27,1.95-.4.07.05,2.25-.3,1-.01a.955.955,0,0,1-.3.03l-.14.1c1.3-.04,2.3-.4,3.56-.54-.38.03-.87.1-.55.01l1.17-.15-.24.1,1.75-.2-.25-.04a10.09,10.09,0,0,0,2.12-.23c.43-.12-.82.01.08-.14l3.72-.35a.106.106,0,0,1,.06-.07c.02,0,.04.06.07.13l-.07.04c.4,1.32.03.65.3,1.82l.01.07c.01.03.01.06.02.1l-.07-.07a1.076,1.076,0,0,1,.18.24c.05.46-.1.56-.2.65a3.474,3.474,0,0,1-.63.48c.38-.18.32.12-.35.2a1.276,1.276,0,0,0,.17-.1,5.915,5.915,0,0,1-.8.15c.24-.08.12-.12-.5-.02l.4-.15-1.13.3c-.9.06-2.3.36-2.67.3a19.269,19.269,0,0,0-2.33.4c.37-.13-.68.01-.4-.12a13.89,13.89,0,0,1-2.53.44l.1-.03c-2.17.24-3.68.67-5.63.85.1.07-.93.18-.66.25-2,.4-3.7.32-4.36.77a12.351,12.351,0,0,1-1.57.13l.2-.05-3.47.54a9.83,9.83,0,0,1-1.85.43c.36-.12-.1-.04-.53.03.27-.05.35-.1-.2-.04-.08.03-.2.06-.3.1-.01,0-.03,0-.02-.01-.7.13-.58.13-.25.1-.02.01.01.02.12.02-.75.03-2.05.3-2.15.22-2.13.34-3.64.68-5.4,1-.2-.03.2-.14.7-.23l-1.26.2a5.1,5.1,0,0,1,1.1-.23c-1.52.1-3.07.6-4.84.73l-.36.12-.1.01a2.642,2.642,0,0,1-.64.2c-.26-.03-.01-.16-.88-.03a26.358,26.358,0,0,0-2.84.5c.5-.06.34,0,.13.06-.43.07-.7.04-1.03.12l-.06-.1c.18.06-1.12.26-1.28.33-.26-.03.67-.16.77-.23l-2.6.4c-.92.2.18.06-.25.2a24.635,24.635,0,0,1-2.56.4l.3.04a27.751,27.751,0,0,1-3.5.5c-4.85,1.02-5.98,1.4-5.7,1.5-1.5.74,3.96.14,3.96.14,5.56-.5,8.35-1.33,14.9-2.4,5.78-.78,7.35-.74,13.32-1.74,2.86-.4,5.9-.9,8.68-1.36,1.3-.4,3.66-.54,5.2-.95l.62.03a9.044,9.044,0,0,1,1.7-.3l-.03.04c.8-.2,1.7-.3,2.1-.4l-.03.04.98-.16-.16.07c1.4-.3,2.84-.52,4.13-.67l-.13-.13a29.243,29.243,0,0,0,3.2-.46l1.37-.23.76-.1q.221-.018.44-.05a4.112,4.112,0,0,0,.64-.14l-.05.02a2.886,2.886,0,0,0,1.72-2.64,4.78,4.78,0,0,0-.07-.65ZM304,431.63l1.63-.22Zm6.56-.84,1.94-.27Zm20.02-3.07.13-.05Zm20.5-5.75.01.03Zm-40.57-20.83c.03.08.06.23.03.22l.04.04a.391.391,0,0,1-.1.08C310.4,401.05,310.28,400.52,310.51,401.14ZM285.88,429.1l.02.04Zm44.82-7.56-.25-.05c-.12-.1-1.48.4-1.7.3l-.62.14c-.18,0-.56.03-.25-.04a4.965,4.965,0,0,0-1,.2l-.64.01c-2.32.25-4.26.67-6.7.97-2.94.23-8.4,1.13-11.57,1.65-3.6.64-7.7.9-11.55,1.42a1.283,1.283,0,0,0,.02-.3c-.02-.58-.35-.75-.66-1.32-.2-.53-.1-.74-.43-1.24-.12-.26-.3-.5-.44-.74-.18-.05-.18-.32-.35-.4l.03-.1a.148.148,0,0,1-.1-.13l.02-.01c-.1-.04-.1-.13-.15-.15l.02-.01-.06-.08h.03a.967.967,0,0,1-.26-.32l-.07.06c-.07-.28-.27-.26-.32-.52h.02c-.36-.1-.17-.5-.55-.6.05.01.02-.04.04-.05-.1-.1-.22-.2-.36-.1-.07-.08-.02-.1.02-.15-.06.05-.14,0-.2-.06l.05.01-.18-.16-.07.13c-.06-.12.1-.14-.01-.2l-.08.08c-.1-.14-.07-.33-.14-.52-.53-.55-1.35-.7-1.85-1.17l.01-.1c.04-.12-.25.1-.22-.03l-.1.02c-.01-.03-.04-.07,0-.08-.06-.04-.07-.02-.14,0l-.04-.1c-.24-.16-.52-.12-.8-.23a2.319,2.319,0,0,0-1.36-.3c-.55.07-1.08-.54-1.66-.4-.02-.02-.07.02-.07.03l-.5-.07c-.01-.04-2.4-.15-.64.97l-.01.03a.632.632,0,0,0,.6-.02c.01.17.2.04.26.1l-.01.01c.17-.12.3.15.47.05-.01.01-.02.06-.05.06.1-.01.27-.02.26.08.26.02.6.12.8,0l-.02.02c.12-.1.12.01.24-.02,0,.01.01.02.01.03.13-.08.3.05.4.03l-.01.07.2.04-.07-.03c.07-.17.12.15.3.08.13.06.4-.28.5-.15.1-.06-.1.1.02.08-.03.1-.07.04-.06.12.1-.01.13.14.27.12l-.02.07c.2-.07.25.2.4.12.18.01.02.24.24.18l.02.12c.06.05.1-.1.15-.01-.03.06.07.1,0,.12.12.17.4.03.53.3.1-.08.17.04.26-.02-.02.05.2.13.03.16-.02,0-.03-.01-.02-.03l-.05.05c.05.18.24.07.34.16-.02-.04-.06-.07-.01-.1l.1.08-.06.04.13.14.03-.08c.05.1,0,.2.14.18.07-.02,0-.14.1-.1a1.98,1.98,0,0,0,.23.4c.05-.07.08-.04.12-.03l-.05.06c.2.03-.07.16.1.22l-.05.03.14-.08c.2.01-.06.16.2.15-.05-.04.1-.13.13-.05l-.07.03c.04.02.08.01.08.05-.05.01-.1.06-.03.1l-.1.03.18.01c0,.13.18.18.12.28,0,0,.1.2.2.16-.08.01-.03.12-.12.14.1,0,.24.1.2.2h-.01c.07.24.33.26.37.5.07-.06.1.06.17-.02.22.13.03.46.36.35.07.08,0,.15.01.2l-.03-.01a1.109,1.109,0,0,1,.22.33c.06.05.2-.02.24.1-.08-.01-.04.03-.02.08-.02-.02-.05-.02-.05.06a.075.075,0,0,1,.05.01c.05.07.06.05.05.01q.015,0,.03-.03c-.03.1.1.2.02.26.13.2.32.3.44.47-.04.05-.1.02-.15-.02l.08.12c-.07.03-.08-.05-.1-.1-.04.2.28.26.25.5l.07.01v.02c.03-.01.1.01.1.03-.05.06-.15.07-.1.15-.03.1.12.2.2.27-.01-.06.03-.05.06-.04.02.04-.03.1.01.12l-.08.04c.07-.05.14.08.18.08-.05.05-.1-.05-.14-.04.1.18.04.1.13.27.1.07.08-.05.17-.04.05.08.15.14.14.26l.07-.06a.38.38,0,0,1,.12.4,3.411,3.411,0,0,0,.4.31q-1.043.148-2.08.33a2.946,2.946,0,0,0-.52.1l-4.17.55-2.92.4-.98.14.57-.08c-.48-2.65-.73-4.34-1.2-6.17.24-.34-.24-2.27-.2-2.92l.03.06c-.37-1.67-.05-3.48-.22-5.1a.74.74,0,0,1,.1.47c-.05-1.16.02-2.8.2-2.75a.266.266,0,0,1,.14-.25.619.619,0,0,1,.4-.05,3.861,3.861,0,0,1,.76.37l1.03.62a11.314,11.314,0,0,0,3.9,1.57h-.14a19.146,19.146,0,0,0,2.67.36c.07.03.15.04.14.05.6-.04,1.5-.07,2.33-.17a10.692,10.692,0,0,0,2.1-.42l.1.1a22.436,22.436,0,0,0,2.24-.72c-.28.1-.56.17-.84.26.18-.38,1.77-.37,3.2-1.35,1.45-.72,2.42-2.2,3.72-3.12.48-.62-.35.63.43-.23.14.1-.34.44-.03.33a18.3,18.3,0,0,0,2.35-2.33l.13.04c.52-.78,1.06-1.47,1.54-2.1.23-.3.48-.67.64-.93a3.231,3.231,0,0,1,.41-.53,1.065,1.065,0,0,1,1.1-.2,2,2,0,0,0,.37.1,6.161,6.161,0,0,0,1,.18l.7.35a2.023,2.023,0,0,0,.78.1c-.02.15.01.3-.03.53-.16.3-.34.3-.4.65a2.543,2.543,0,0,0-.14.47c.1.12-.08.2-.01.32l-.08.01c.02.04.03.08-.02.1l-.02-.01c.03.06-.02.1,0,.13v-.01l-.01.05-.02-.02a.253.253,0,0,1-.05.23l.08.03c-.15.1,0,.23-.16.3l-.02-.01c.15.25-.25.2-.12.45-.02-.03-.05-.01-.06-.02-.01.1-.03.17.13.24-.03.06-.07.03-.13.01a.113.113,0,0,1,.07.13l-.02-.03-.03.14.14.03c-.06.05-.17-.05-.16.03l.1.04c-.06.08-.25.07-.36.13-.2.36-.08.87-.4,1.14l-.1-.02c-.12-.04.14.17.02.14l.04.06c-.03,0-.06.02-.08-.01-.02.04,0,.04.02.1l-.1.01c-.12.12-.02.3-.12.45-.23.13-.23.53-.23.77.06.36-.54.5-.46.87-.02,0,.01.04.02.05l-.12.26s-.57,1.27.82.7l.02.02c.12-.12.17-.2.08-.36.17.05.06-.1.13-.13l.01.01c-.1-.14.18-.14.1-.27.01.01.05.03.05.05.01-.07,0-.17.1-.14.04-.16.16-.35.05-.5l.02.02c-.08-.1.01-.08-.01-.16h.03c-.08-.1.05-.18.03-.24l.06.02.03-.12-.03.04c-.16-.08.14-.05.07-.18.05-.07-.3-.3-.17-.36-.06-.07.12.1.08,0,.1.03.04.05.12.06-.02-.08.13-.06.1-.16l.07.02c-.1-.14.16-.14.07-.25-.02-.12.23.02.14-.14h.1c.03-.04-.1-.08-.04-.1.06.03.07-.04.12.01.14-.07-.04-.27.17-.35-.1-.08-.01-.12-.08-.18.05.02.07-.14.14-.02.01.01,0,.02-.02.01l.06.04c.16-.03-.01-.18.04-.25-.03.01-.04.05-.08.01l.04-.07.05.04.08-.1-.08-.01c.06-.04.2-.01.1-.1-.04-.05-.12.01-.12-.05a.751.751,0,0,0,.25-.22c-.08-.02-.07-.05-.08-.08h.07c-.06-.14.17.03.13-.1l-.1-.06c-.1-.14.16.01.02-.16,0,.04-.16-.04-.1-.08l.06.04c0-.03-.03-.05-.01-.06.03.03.1.05.1,0l.07.06-.1-.12c.1-.03.04-.15.14-.14,0,0,.1-.1,0-.17.05.05.1-.01.17.04-.06-.06-.08-.18.01-.18v.01c.13-.1-.01-.28.13-.37-.08-.03-.01-.07-.12-.1-.05-.17.3-.15,0-.32.01-.07.1-.04.13-.06l.01.02a.625.625,0,0,1,.07-.23c-.01-.05-.16-.12-.1-.18.05.05.05.01.06-.01,0,.02.02.04.08.02-.02-.01-.02-.02-.03-.04.01-.05-.01-.05-.03-.04s-.02-.01-.04-.01c.1-.02.05-.13.15-.1a1.587,1.587,0,0,0-.03-.4.107.107,0,0,1,.1.1v-.1c.07.03.02.06.03.1.16-.05-.04-.25.12-.3l-.05-.05h.01a.139.139,0,0,1-.07-.08c.07.01.15.06.17,0,.08-.02.02-.14.01-.2-.02.03-.06,0-.07-.02.01-.03.08-.02.06-.05l.1.03c-.1-.02-.06-.1-.1-.13.07.01.04.07.08.1.04-.1.02-.06.06-.17-.04-.1-.1-.02-.15-.08,0-.06-.04-.14.04-.17h-.1a.171.171,0,0,1,.03-.15c.28.1.8.25.4.22,1.68.57,3.5.77,5.6,1.4a1.831,1.831,0,0,1-.02.32c-.16.3-.34.3-.4.65a2.543,2.543,0,0,0-.14.47c.1.12-.08.2-.01.32l-.08.01c.02.04.03.08-.02.1l-.02-.01c.03.06-.02.1,0,.13l-.02-.01-.01.05-.02-.02a.253.253,0,0,1-.05.23l.08.03c-.15.1,0,.23-.16.3l-.02-.01c.15.25-.25.2-.1.45-.02-.03-.05-.01-.06-.02-.01.1-.03.17.13.24-.03.06-.07.03-.13.01a.113.113,0,0,1,.07.13l-.02-.03-.03.14.14.03c-.06.05-.17-.05-.16.03l.1.04c-.06.08-.25.07-.36.13-.2.36-.08.87-.4,1.14l-.1-.02c-.12-.04.14.17.02.14l.04.06c-.03,0-.06.02-.08-.01-.02.04,0,.04.02.1h-.1c-.12.12-.02.3-.12.45-.23.13-.23.53-.23.77.06.36-.54.5-.46.87-.02,0,.01.04.02.05l-.12.26s-.57,1.27.82.7h.02c.12-.12.17-.2.08-.36.17.05.06-.1.13-.13v.01c-.1-.14.18-.14.1-.27.01.01.05.03.05.05,0-.07,0-.17.1-.14.04-.16.16-.35.05-.5l.02.02c-.08-.1.01-.08-.01-.16h.03c-.08-.1.05-.18.03-.24l.06.02.03-.12-.03.04c-.16-.08.14-.05.07-.18.05-.07-.3-.3-.17-.36-.06-.07.12.1.08,0,.1.03.04.05.12.06-.02-.08.13-.06.1-.16l.07.02c-.1-.14.16-.14.07-.25-.02-.12.23.02.14-.14h.1c.03-.04-.1-.08-.04-.1.06.03.07-.04.12.01.14-.07-.04-.27.17-.35-.1-.08-.01-.12-.08-.18.05.02.07-.14.14-.02.01.01,0,.02-.02.01l.06.04c.16-.03-.01-.18.04-.25-.03.01-.04.05-.08.01l.04-.07.05.04.08-.1-.08-.01c.06-.04.2-.01.1-.1-.04-.05-.12.01-.12-.05a.751.751,0,0,0,.25-.22c-.08-.02-.07-.05-.08-.08l.07.02c-.06-.14.17.03.13-.1l-.1-.06c-.1-.14.16.01.02-.16,0,.04-.16-.04-.1-.08l.06.04c0-.03-.03-.05-.01-.06.03.03.1.05.1,0l.07.06-.1-.12c.1-.03.04-.15.14-.14,0,0,.1-.1,0-.17.05.05.1-.01.17.04-.06-.06-.08-.18.01-.18l.01.01c.13-.1-.01-.28.13-.37-.08-.03-.01-.07-.12-.1-.05-.17.3-.15,0-.32.01-.07.1-.04.13-.06v.02a.625.625,0,0,1,.07-.23c-.01-.05-.16-.12-.1-.18.05.05.05.01.06-.01,0,.02.02.04.08.02-.02-.01-.02-.02-.03-.04.01-.05-.01-.05-.03-.04s-.02-.01-.04-.01c.1-.02.05-.13.15-.1a1.587,1.587,0,0,0-.03-.4.107.107,0,0,1,.1.1l.01-.1c.07.03.02.06.03.1.16-.05-.04-.25.12-.3l-.05-.05h.01a.139.139,0,0,1-.07-.08c.07.01.15.06.17,0,.08-.02.02-.14.01-.2-.02.03-.06,0-.07-.02.01-.03.08-.02.06-.05l.1.03c-.1-.02-.06-.1-.1-.13.07.01.04.07.08.1.04-.1.02-.06.06-.17-.04-.1-.1-.02-.15-.08,0-.03-.01-.06-.01-.1.08.03.16.05.24.08.63-.05,1.93.43,2.4.4.05.1,2.66.75,1.1.52a1.286,1.286,0,0,1-.33-.1l-.2.07a36.663,36.663,0,0,0,4.24,1.1c-.43-.17-1.02-.32-.6-.3l1.37.4-.32.02,2.03.66-.25-.2a9.6,9.6,0,0,0,2.44.85c.54.06-.9-.46.17-.17l4.9,1.9c-.1-.2.34-.03.8.12l.01.14c1.8.52.55.5,2.3,1.07l-.18.02.54-.04c1.57.48.73.57,2.33,1.16-.28-.17-.3-.27-.18-.27a1.3,1.3,0,0,1,.68.38l-.23-.03a1.4,1.4,0,0,1,.3.23.819.819,0,0,1,.2.3c-.2-.2-.22-.04.14.54-.12-.1-.24-.22-.36-.32a11.066,11.066,0,0,1,.82,1.04,15.48,15.48,0,0,1,1,2.96l.28,1.06c-.25.01-.5.03-.76.05-5.8.75-12.05,1.9-17.52,2.43Zm19.6,2.75a2.122,2.122,0,0,0,.83-1.12A2.109,2.109,0,0,1,350.3,424.29Z"/>
    <path id="Path_12224" data-name="Path 12224" d="M282.75,404.83c-.36-1.93-.73-3.32-1.17-4.87l-.9.48.08.37.03-.25a16.776,16.776,0,0,1,.62,2.66c2.77,8.53,1.35,1.6,1.35,1.6Zm25.55-14.6h0l.07.1ZM270,323.3h0l.08.08Zm10.58-71.66.02-.04C280.58,251.58,280.57,251.59,280.58,251.64Zm-54.6-32h0v.07Zm-29.12,53.27h0l.02.15Z"/>
    <path id="Path_12225" data-name="Path 12225" d="M195.58,273.58a38.848,38.848,0,0,1-1.38,3.76,24.037,24.037,0,0,1-4.42,8.28,21.905,21.905,0,0,1-7.2,5.56l-.26.05c-.15-.06-1.35.88-1.6.87l-.6.34c-.18.05-.56.2-.27.03a5.477,5.477,0,0,0-.98.5l-.65.2-6.77,2.5c-3.04.84-8.68,2.77-11.92,3.88-4.54,1.63-10.04,2.82-14.67,4.5a3.185,3.185,0,0,0-.53.2l-4.3,1.34s-20.9,6.52-4.7,2.55l-.1.06a49.373,49.373,0,0,0,5.45-1.78,21.623,21.623,0,0,0,2.5-.7l-.05.03c1.4-.58,3-.83,4.35-1.38a1.161,1.161,0,0,1-.38.2,16,16,0,0,1,2.48-.74c2.4-.78,5.78-1.8,7.28-2.44l-.1.06c.85-.38,1.14-.37,2.1-.74.06,0,.13-.02.12-.01.93-.4,2.8-.9,3.56-1.18l.07.05,1.9-.62-.72.2c.2-.25,1.48-.35,2.83-.9,1.3-.4,2.5-1.2,3.88-1.56.6-.3-.52.32.42-.06.06.08-.43.2-.16.2.93-.35,1.57-.4,2.7-.87l.07.05c1.46-.65,2.88-.9,3.82-1.4,1.5-.66,1.12-.18,2.64-1l.66-.17c.68-.3.43-.34,1.18-.65-.02.08.95-.4.55-.15a34.084,34.084,0,0,0,5.3-3.34c.37-.4,1.3-1.22,1.54-1.55.13.04,1.7-1.83.86-.7a.945.945,0,0,1-.22.23l-.06.18a12.989,12.989,0,0,0,1.34-1.48c.37-.53.7-1.1,1.12-1.65-.26.32-.58.77-.4.45a12.754,12.754,0,0,0,.74-1.07l-.08.27,1-1.66-.2.2a9.239,9.239,0,0,0,1.08-2.08c.15-.46-.47.77-.07-.14a31.747,31.747,0,0,0,1.68-4.43c-.12.12,0-.3.1-.72l.1-.03c.34-1.65.32-.55.67-2.18l-.03-.3c.23-1.5.35-.75.57-2.4-.15.64-.23.26-.01-.52l.02.22a7.537,7.537,0,0,1,.2-.88c-.03.27.07.16.2-.48l-.02.45.17-1.24c.3-.92.57-2.42.76-2.78a20.582,20.582,0,0,0,.53-2.5c-.03.42.26-.68.26-.35a15.523,15.523,0,0,1,.57-2.7v.12c.6-2.26.78-3.93,1.35-5.96-.1.07.2-1,.02-.76.37-2.15,1.1-3.82.93-4.66a14.153,14.153,0,0,1,.46-1.62l-.03.23.8-3.7a10.636,10.636,0,0,1,.3-2c-.02.4.07-.1.17-.54-.05.3-.05.38.12-.2,0-.1.02-.22.03-.34.01,0,.01-.03.02-.01.14-.76.1-.63.01-.28-.01-.02-.02.01-.06.1.25-.76.47-2.17.6-2.25.47-2.26.7-3.9,1.07-5.8.1-.2.05.25-.04.8l.27-1.34a4.946,4.946,0,0,1-.2,1.2c.47-1.56.58-3.3,1.1-5.14l.02-.4.03-.1a2.665,2.665,0,0,1,.06-.7c.12-.25.15.05.35-.87.1-.36.2-.88.3-1.43a7.9,7.9,0,0,0,.82.32l-.03.03a2.722,2.722,0,0,0,1.4-.01c.07.18.5.01.64.07h-.01c.37-.13.77.1,1.12-.05a.118.118,0,0,1-.1.07c.26-.04.6-.1.64,0a6.413,6.413,0,0,0,1.86-.35l-.02.03c.2-.14.3-.06.53-.15a.123.123,0,0,1,.03.02,5.415,5.415,0,0,1,.9-.23l.03.06.48-.1h-.18c.02-.2.4.04.7-.16.33-.06.56-.53.9-.52.13-.13-.1.17.12.04.03.1-.1.1-.01.15.22-.1.4-.02.67-.17l.03.07c.33-.25.73-.1.94-.32.36-.2.33.12.67-.16l.2.04c.17-.05.08-.16.28-.18.01.06.25-.04.17.06.46-.06.8-.5,1.4-.56.07-.16.37-.22.42-.34.04.04.54-.26.3,0-.02.02-.07.04-.07.02v.08c.36-.03.52-.35.82-.48-.1.02-.2.1-.16,0l.28-.13-.03.08.43-.18-.1-.04c.22-.07.36.01.52-.22.07-.1-.24.02-.04-.12a11.111,11.111,0,0,0,1.07-.46c-.08-.05.01-.1.1-.18l.05.06c.3-.3.23.07.52-.24v-.13c.22-.34.25.01.47-.4-.12.1-.16-.1.02-.18v.1c.08-.08.1-.12.16-.15-.03.07.03.1.16,0l-.03.14.17-.3c.25-.07.48-.4.6-.38,0,0,.42-.3.44-.46-.03.12.2-.04.2.07a1.013,1.013,0,0,1,.48-.5l-.02.03c.48-.34.62-.78,1.07-1.08-.08-.04.15-.2.02-.23.28-.47.8-.6.68-.96.14-.2.25-.17.35-.25l-.02.06c.27-.37.33-.5.55-.75.07-.16-.04-.27.17-.5-.01.12.06.01.12-.08-.04.06-.03.1.1,0a.44.44,0,0,1,.02-.1.031.031,0,0,1,.02.01c.1-.17.05-.15,0-.1-.01-.01-.02-.01-.05,0,.17-.12.3-.46.4-.42a9.182,9.182,0,0,0,.6-1.32c.07-.02.06.1.01.23l.15-.3c.07.04-.06.2-.1.3.3-.3.3-.77.62-1.13l-.01-.12.02-.02c-.03-.01-.02-.13,0-.2.1-.03.14.08.24-.13.15-.13.2-.48.26-.72-.06.1-.08.06-.08,0,.04-.1.14-.14.14-.23l.1.03c-.1.01.04-.3.02-.37.1-.03-.02.2.02.23a6.286,6.286,0,0,0,.26-.65c.02-.26-.1.01-.13-.13a2.119,2.119,0,0,1,.22-.64l-.1.05a1.959,1.959,0,0,1,.33-.86v-.06h-1.03c-.2.64-.3,1.22-.64,2.14-.55,1.08-.84,1.28-1.4,2.38-.32.5-.63,1.05-.96,1.53-.06.3-.45.6-.57.94l-.13.06a.5.5,0,0,1-.22.28l-.01-.02c-.07.16-.22.28-.25.37v-.02l-.13.16v-.05a2.253,2.253,0,0,1-.55.66l.08.04c-.47.33-.5.6-.94.9l-.01-.02c-.33.6-.88.55-1.24,1.16.05-.08-.06-.01-.06-.03-.23.2-.5.4-.4.55-.18.13-.18.07-.24.03.05.06-.1.2-.24.3l.05-.07-.4.32.16.06c-.24.12-.15-.1-.34.08l.07.1a5.313,5.313,0,0,1-.97.25,16.758,16.758,0,0,1-4,2.03l-.1-.06c-.07-.1-.3.3-.38.22l-.13.1c-.05-.01-.15,0-.08-.05a.565.565,0,0,0-.23.14l-.18-.02c-.57.16-1,.42-1.6.58a18.6,18.6,0,0,0-2.87.73c-1.1.38-2.48.02-3.6.28a.2.2,0,0,0-.13.04c-.35,0-.7.01-1.06-.01,0,0-1.2-.03-2.02-.01.05-.33.1-.66.16-.95-.12.5-.12.34-.1.1.1-.46.22-.7.27-1.08l.1-.02c-.13.16.16-1.23.16-1.4.12-.25-.1.73-.07.85l.58-2.78c.14-1-.13.16-.1-.33.17-.88.28-1.74.55-2.73l-.15.3a34.775,34.775,0,0,1,.8-3.72l.6-4.3h-.6l-.06.24-.32,1.3c-1.2,4.77-1.47,7.3-2.62,13.02-1.1,5-1.56,6.3-2.62,11.53l-1.6,7.56c-.13,1.18-.7,3.18-.9,4.57l-.2.5a12.842,12.842,0,0,1-.3,1.5l-.01-.03c-.1.7-.3,1.5-.36,1.85l-.01-.03-.18.85v-.15q-.329,1.807-.77,3.59l.1-.07c-.63,2.35-.65,3.25-1.26,5.36l-.01-.03c-.4,2.75-1.14,4.23-1.6,7.06.06-.35-.08.14-.1.1a9.3,9.3,0,0,0-.44,2.7c-.23.93-.24.74-.33.85a6.067,6.067,0,0,1-.28,1.55l.06-.34-.5,2.08.24-.37c-.33,1.1-.24.24-.48,1.3l-.05-.03Zm-69.4,26.4-.04-.02C126.12,299.98,126.13,299.99,126.18,299.98Zm50.28-20.47.04.03Zm.22.1c.2.12.15.1,0,0Z"/>
    <path id="Path_12226" data-name="Path 12226" d="M250.98,248.48l.44-.8c.33-.3,1.6-5.35,2.04-6l.7-2.24c.26-.6.77-1.9.42-.8l1.2-3.6.92-2.15c2.65-7.08,4.7-13.3,7.3-20.5l2.94,6.52c.2.68-.46-.63-1.2-2.3l1.78,4.07a32.932,32.932,0,0,1-1.64-3.56c1.9,4.95,4.5,9.94,6.75,15.72l.6,1.14.13.35a16.041,16.041,0,0,1,1.04,2.05c.24.85-.27.05.94,2.87.85,2.28,2.75,6.33,4.05,9.23-.65-1.6-.38-1.1-.05-.44.6,1.4.84,2.27,1.35,3.34l-.07.15c.2.15,1.7,3.72,1.97,4.17.23.85-1.02-2.16-1.25-2.47l3.6,8.5c1.38,2.98-.1-.6.64.8,1.15,2.66,2.34,5.23,3.53,8.34l-.28-1.03c2.2,5,3.42,8,4.67,11.46,8.23,18.55,8.74,20.72,8.18,17.8-.66-2.96-3.54-10.44-3.54-10.44-5.68-14.97-9.27-22.4-16.76-39.9l-14.9-35.5-1.52-3.52q.057-.143.1-.29l.76-1.97L266,207h-1.62l-.3.8-.8,2.06c-.54,1.4-1.1,2.87-1.77,4.85l-.17.12c-1.64,5.2-3.65,9.6-4.68,13.1-1.8,5.32-1.63,3.42-3.4,9l-.93,2.08c-.88,2.34-.42,1.76-1.44,4.34-.04-.2-1.27,3.27-.8,1.7-2.3,5.85-4.1,12.07-7.2,19.75-.42,1.76-1.95,5.63-2.26,6.95-.16.18-2.85,7.84-1.44,3.38a6.921,6.921,0,0,1,.38-1l.08-.57c-1.82,4.36-2.8,8.1-4.42,12.48.5-1.3,1.12-3.02.78-1.84l-1.5,4.07.2-.88-2.25,6.06.42-.8c-1.14,2.95-1.72,3.92-2.76,7.34-.45,1.55,1.18-2.76.08.4a54.679,54.679,0,0,1-3.03,6.77,46.754,46.754,0,0,1-4.47,6.86c.43-.3-.48.8-1.4,1.94l-.2.04a13.018,13.018,0,0,1-2.7,2.67c-.4.3-.8.6-2.9,2.4.1-.12.23-.24.33-.37-.32.38-.67.72-1,1.1a17.08,17.08,0,0,1-2.1,1.57q-.55.351-1.12.67c-.32.2-.68.35-1.23.7-.56.32-1.3.85-2.5,1.55,1.95-1.04,1.06-.24-1.4.98l.56-.43c-1.33.73-1.8.94-2.7,1.35.8-.45.37-.33-1.66.56q.666-.345,1.31-.73c-1.24.66-2.53,1.22-3.8,1.83-3.04,1-8.05,2.5-9.4,2.7l-3.6.94c-1.9.5-4,1.06-4.77,1.34,1.35-.45-2.44.44-1.4.04a91.9,91.9,0,0,1-9.12,2.3l.4-.1c-7.83,1.7-13.3,3.3-20.37,4.72.35.07-3.38.83-2.42.8-7.23,1.8-13.34,2.56-15.85,3.7-1.67.38-2.6.55-3.47.7l-.9.16-.14.02a2.824,2.824,0,0,0-.24-.63c.15-.12-.12-.62-.1-.8l.02.01c-.23-.43-.1-.97-.3-1.38a.131.131,0,0,1,.1.1c-.1-.32-.23-.75-.13-.8a14.594,14.594,0,0,0-.65-2.3l.03.03c-.17-.26-.1-.36-.22-.66.01-.02.01-.04.02-.04a8.593,8.593,0,0,1-.3-1.12l.06-.03-.15-.6.04.23c-.2-.04.01-.48-.2-.9-.07-.42-.56-.75-.56-1.2-.13-.2.18.15.04-.14.1-.03.1.13.15.03-.1-.3-.01-.5-.16-.87l.07-.03c-.24-.45-.1-.93-.3-1.22-.17-.48.14-.38-.1-.87l.05-.22c-.03-.23-.16-.13-.16-.4.07,0-.02-.32.07-.2a13.927,13.927,0,0,1-.38-1.87c-.16-.13-.17-.52-.28-.62.05-.03-.15-.74.05-.35.02.03.03.1.01.1l.08.03c.04-.45-.24-.74-.3-1.16,0,.13.05.3-.03.2l-.07-.4.08.07-.1-.58-.06.1c-.02-.3.08-.42-.1-.7-.1-.13-.04.3-.13,0q-.051-.728-.16-1.45c-.07.06-.1-.07-.15-.2l.07-.03c-.2-.48.12-.22-.07-.7l-.12-.07c-.24-.42.1-.28-.2-.74.06.2-.14.13-.16-.12l.08.05c-.04-.13-.08-.17-.1-.27.06.07.1.02.06-.18l.12.1-.2-.35c.01-.3-.2-.75-.1-.9a2.313,2.313,0,0,0-.23-.76c.1.1.04-.24.15-.16a1.608,1.608,0,0,1-.24-.82l.02.03c-.07-.73-.38-1.2-.42-1.85-.08.05-.1-.3-.2-.2-.25-.64-.05-1.25-.43-1.42a1.656,1.656,0,0,1-.02-.53l.03.07q-.158-.565-.28-1.14c-.08-.2-.24-.2-.3-.58.1.1.04-.04.01-.18.03.1.06.1.06-.08a.242.242,0,0,1-.06-.1c-.06-.24-.07-.2-.06-.08-.01,0-.02.01-.03.05.03-.26-.15-.67-.05-.73-.18-.7-.4-1.17-.57-1.75.04-.08.12.05.18.2l-.1-.4c.08-.01.1.23.14.35.02-.52-.35-1-.36-1.6l-.1-.1v-.04c-.03.01-.1-.1-.14-.2.05-.1.16-.03.1-.3a2.747,2.747,0,0,0-.28-.92c.02.16-.03.12-.06.06-.03-.14.02-.24-.04-.34l.1-.03c-.07.08-.18-.35-.23-.4.05-.1.1.2.17.23l-.2-.86c-.14-.3-.07.07-.2-.05a2.8,2.8,0,0,1-.2-.84l-.06.12a3.113,3.113,0,0,1-.23-1.16c-1.5-3.64-1.1-.6-1.1-.6a24.832,24.832,0,0,0,1,4c.3,1.57.23,2.02.66,3.62.16.77.38,1.6.56,2.34.2.33.22,1,.42,1.4l-.03.18a.929.929,0,0,1,.12.46h-.02c.1.2.12.46.17.56h-.02l.07.26-.04-.04a5.391,5.391,0,0,1,.28,1.1l.08-.05c.07.76.3,1,.34,1.68h-.02c.4.8.14,1.36.54,2.18-.05-.1-.03.06-.06.05.1.4.22.82.4.8.06.3,0,.25-.06.3.07-.02.16.23.2.45l-.05-.1.17.65.1-.16c.04.35-.15.12-.04.45l.1-.03a9.114,9.114,0,0,1-.01,1.28c.37,1.93,1.12,3.93,1.3,5.76l-.07.1c-.12.06.3.45.2.55l.1.2c-.01.06-.01.2-.06.1a.685.685,0,0,0,.13.32l-.03.22c.1.77.4,1.38.55,2.2a21.545,21.545,0,0,0,.9,3.8c.5,1.42.4,3.23.93,4.68a.3.3,0,0,0,.07.17l.28,1.37q.221,1.012.5,2.01l.08,2.78-7.98,2a2.652,2.652,0,0,1-2.03-.27,2.34,2.34,0,0,1-.9-.94,12.35,12.35,0,0,1-.6-2.32c.42,1.3,0-.37-.36-1.9.25.98.36,1.27-.05-.76-.1-.28-.22-.7-.34-1.12,0-.02-.01-.1.01-.06-.64-2.55-.57-2.1-.3-.9-.03-.06-.03.05.03.42-.5-2.7-1.77-7.4-1.67-7.78l-4.94-19.56c-.08-.74.36.74.83,2.6l-1.1-4.54a35.645,35.645,0,0,1,1.05,4c-.54-2.73-1.25-5.5-2-8.4l-1.12-4.44-.27-1.14a2.979,2.979,0,0,1-.06-.94,2.726,2.726,0,0,1,.85-1.68,2.454,2.454,0,0,1,.83-.66l.32-.1a16.994,16.994,0,0,1,2.27-.84c.92-.16.01.28,3.1-.67.5-.13,1.07-.3,1.7-.48l.88-.27q.212-.079.43-.14l.07.15.03.08-.01-.04.44,1.1.25.63.06.16c.02.06.1-.02.14-.02l.32-.12,1.22-.45,3.2-1.2c-1.7.58-1.18.33-.46.03,1.52-.54,2.44-.74,3.6-1.2l.15.08c.17-.18,4.02-1.56,4.5-1.8.9-.2-2.33.94-2.68,1.15l9.15-3.3c3.2-1.28-.64.07.87-.62,2.86-1.06,5.63-2.18,8.95-3.3l-1.1.25c5.35-2.06,8.58-3.24,12.24-4.46,9.9-4.02,15.32-6.47,17.7-7.93l.38-.27q.083-.056.16-.12a.423.423,0,0,1,.05-.07l.03-.02.01-.01.03.02q-.117-.072-.23-.15a.616.616,0,0,0-.06-.04c.1.05.24.15.4.23l-.05-.02.05.03c-.03.18-.03.22.13.07h0a24.5,24.5,0,0,0,1.97-5.23c1-3.26,2.4-8.13,4.26-15l-.04.38c2.06-8.2,3.28-13.4,4.37-19.14.5-.83,1.6-6.77,2.13-8.68l-.02.2c.94-5.08,2.56-10.32,3.5-15.22a6.031,6.031,0,0,1-.22,1.43c.78-3.54,1.83-8.4,2.05-8.6l.6-2.65h-2.06l-1.83,7.7-2.13,9.7c-.08.26-.18.75-.26,1.16l-.1.54-.03.22-3.5,15.06-6.82,29.6L177,277.84c-.05.24-.1.44-.14.62-.07-.02-.32.3-.7.84-.05-.04-.01-.02-.03-.03a.643.643,0,0,0-.2.08,4.916,4.916,0,0,1-.6.28c-.45.2-.98.42-1.53.65l-3.52,1.38-4.3,1.62L123.34,299.1l-3.87,1.34-.3.1c-.02,0-.05.02-.07.01l-.16-.42-.63-1.67-8.6,2.5-1.8.53a4.674,4.674,0,0,0-3.06,3.46,4.064,4.064,0,0,0-.1,1.2,6.244,6.244,0,0,0,.17,1.1l4.05,17.16,4.17,17.38c-.83.23-1.64.46-1.6.6-.68.17-.56.08-.67.04a3.164,3.164,0,0,1-1.08.38l.24-.1-1.5.4.33.06c-.8.16-.25-.12-1,.1l.04.1c-1.12.25-1.8.24-2.9.43l-4.98,1.28a.99.99,0,0,0-.22-.59c.16-.08-.05-.3-.01-.4h.02c-.18-.2.01-.5-.15-.68.02.01.06,0,.08.05-.05-.15-.14-.36-.04-.4a3.075,3.075,0,0,0-.38-1.12l.03.01c-.14-.12-.05-.18-.14-.32h.02c-.14-.13-.1-.44-.18-.55l.06-.02-.08-.3.01.12c-.2,0,.06-.25-.1-.44-.02-.2-.46-.33-.42-.56-.1-.08.16.06.06-.08.1-.02.07.06.14,0-.08-.14.04-.26-.06-.43l.07-.02c-.18-.2,0-.47-.16-.6-.1-.23.18-.2-.02-.44l.08-.12c-.01-.1-.14-.05-.12-.18.06-.01.02-.16.1-.1.04-.3-.26-.53-.17-.92-.14-.05-.1-.25-.2-.3.05-.02-.07-.37.1-.2.01.02.02.05,0,.05l.08.01c.1-.23-.15-.36-.18-.57-.01.07.01.14-.05.1l-.03-.2.07.03-.02-.3-.07.05c.01-.15.13-.22-.01-.36-.07-.06-.07.15-.13.01a4.444,4.444,0,0,0,0-.73c-.08.04-.1-.02-.12-.1l.07-.02c-.15-.23.14-.13.01-.36h.06l-.17-.03c-.2-.2.13-.15-.12-.36.03.1-.15.08-.15-.05l.08.02c-.03-.06-.06-.08-.06-.13.05.03.1,0,.07-.1l.1.05-.17-.16c.05-.16-.1-.37-.01-.45,0,0-.02-.32-.14-.37.08.05.07-.13.16-.1-.1-.06-.2-.3-.14-.4l.01.02c.01-.37-.24-.58-.2-.9-.08.03-.07-.14-.17-.08-.18-.3.1-.64-.27-.7-.05-.14.04-.2.04-.27l.03.03a2.53,2.53,0,0,1-.14-.56c-.05-.1-.2-.08-.2-.27.07.05.05-.03.03-.1.02.04.04.05.07-.05a.218.218,0,0,1-.05-.04c-.04-.12-.05-.1-.05-.04q-.015,0-.03.03c.05-.14-.08-.33.03-.37-.1-.34-.26-.57-.36-.84.05-.04.1.01.15.1l-.06-.2c.08-.01.07.1.1.17.08-.27-.23-.47-.18-.8l-.07-.05h.01c-.03.01-.1-.05-.1-.1.06-.05.16-.03.12-.17.04-.13-.1-.3-.17-.45.01.08-.04.06-.07.04-.02-.07.04-.13,0-.17l.1-.03c-.08.05-.13-.16-.18-.18.06-.05.08.1.14.1-.07-.28-.03-.14-.1-.42-.1-.14-.08.05-.18-.01a.812.812,0,0,1-.12-.4l-.07.07a.8.8,0,0,1-.1-.58c-1.06-1.73-1-.2-1-.2-.03.77.3,1.1.54,1.96a10.1,10.1,0,0,0,.24,1.8c.07.38.2.78.3,1.15.16.15.1.5.25.67l-.05.1a.231.231,0,0,1,.07.22h-.02c.08.1.07.22.1.27h-.02l.04.13h-.03a1.26,1.26,0,0,1,.15.54l.08-.03c-.02.38.2.48.14.83H96.2c.3.37-.01.7.3,1.07-.04-.05-.04.03-.06.03.07.2.12.4.3.37.03.14-.03.13-.1.16.07-.02.13.1.16.2l-.04-.05.1.32.12-.1c0,.18-.16.08-.1.24l.1-.03c.03.24-.12.42-.15.66a18.011,18.011,0,0,1,.64,2.84l-.08.06c-.12.04.24.2.13.26l.08.1c-.02.03-.03.1-.07.05.02.1.04.1.1.15l-.06.12a10.692,10.692,0,0,0,.3,1.07,5.055,5.055,0,0,0,.47,1.86c.34.68.02,1.63.4,2.32-.01.03.04.08.05.08l.13.68q.067.3.15.6l-.8.2-1.7.45-.42.1c-.13.03-.34.1-.45.13l-.8.24a18.61,18.61,0,0,1-3.2.62l-.2-.06c-.06-.08-.58.1-.94.18a3.41,3.41,0,0,0-.4-1.56,3.587,3.587,0,0,0-.42-.58l-.32-.36q-.312-.359-.61-.73a16.584,16.584,0,0,1-2.14-3.37,27.352,27.352,0,0,1-1.8-6.4,20.883,20.883,0,0,1-.17-3.68,13.96,13.96,0,0,1,.42-3.14,8.96,8.96,0,0,1,1.76-3.53,18.4,18.4,0,0,1,3.18-2.84,5.456,5.456,0,0,0,.9-.83.035.035,0,0,0,.02-.01c1.13-.44,1.92-.76,1.68-.84a4.916,4.916,0,0,0-1.3.1c.02-.04.03-.07.05-.12a2.625,2.625,0,0,0,.14-.93,2.032,2.032,0,0,0-.83-1.64,2.14,2.14,0,0,0-.41-.25l-.3-.15c-.18-.1-.36-.16-.53-.24a22.817,22.817,0,0,0-4.23-1.36,2.079,2.079,0,0,0-.65-.12c-1.67-.47-3.36-.86-5.06-1.2,0,0-1.55-.3-3.6-.57a47.339,47.339,0,0,0-6.6-.4,2.62,2.62,0,0,0-1.61.67,2.7,2.7,0,0,0-.72,1c-.18.5-.16.78-.07.8-.02.17.01.25.07.17a4.112,4.112,0,0,1,1.02-1.17,1.849,1.849,0,0,1,1.48-.4.888.888,0,0,0-.23-.01c.3.03.7.12,1.1.18q.773.119,1.54.27l-.05.01c.4.06.53.03.43.28l-.03.13-.07.34-.12.64c-.15.83-.27,1.6-.35,2.38a15.206,15.206,0,0,0-.53,2.37V320c-.13,1.4-.65,2.82-.8,4.17a.962.962,0,0,1,.01-.4,12,12,0,0,1-.5,2.36c-.42,2.32-1.08,5.54-1.2,7.05v-.1c-.06.87-.2,1.1-.32,2.05-.02.05-.04.1-.05.1-.07.94-.5,2.7-.6,3.44l-.07.04-.34,1.84.15-.68c.13.27-.38,1.36-.52,2.72-.26,1.24-.1,2.6-.44,3.87-.03.63-.03-.57-.14.36-.1.01.02-.44-.1-.22-.13.9-.38,1.46-.53,2.6l-.08.03c-.14,1.48-.62,2.73-.68,3.72-.23,1.5-.4.96-.57,2.56l-.22.6a12.244,12.244,0,0,1-.16,1.23c-.05-.06-.23.93-.2.48-.42,1.66-.5,3.43-1.1,5.6.03.5-.26,1.6-.23,1.98-.06.05-.44,2.23-.3.96.01-.1.05-.3.07-.28l-.04-.16a35.607,35.607,0,0,0-.62,3.55c.1-.37.18-.86.17-.52l-.23,1.16-.06-.14-.37,1.72.12-.22a9.08,9.08,0,0,0-.46,2.08c-.02.44.25-.78.1.12l-.85,3.64a.153.153,0,0,1,.05.07c-.01.02-.07.02-.14.02v-.08c-1.4-.04-.63-.18-1.82-.3l-.07-.01a.375.375,0,0,1-.1-.01l.1-.04a1.322,1.322,0,0,1-.3.1c-.46-.1-.5-.28-.55-.4a3.32,3.32,0,0,1-.25-.74c.05.4-.22.27-.08-.4a1.416,1.416,0,0,0,.04.2c.05-.4.05-.55.1-.8-.01.25.08.15.18-.46v.42l.07-1.17c.23-.87.4-2.28.55-2.63a16.014,16.014,0,0,0,.35-2.34c0,.4.2-.65.24-.34a12.488,12.488,0,0,1,.4-2.54l-.01.1c.47-2.13.54-3.7,1-5.6-.1.07.13-.94-.03-.7.25-2.02.87-3.6.66-4.38a12.743,12.743,0,0,1,.37-1.53v.22l.6-3.46a10.411,10.411,0,0,1,.18-1.9c0,.38.07-.1.14-.5-.04.27-.03.36.1-.2a1.811,1.811,0,0,1,.01-.32c.01,0,.01-.03.02-.01.1-.7.06-.6,0-.26-.01-.02-.02.01-.06.1a21.221,21.221,0,0,1,.48-2.1c.35-2.13.5-3.66.8-5.44.1-.2.07.23,0,.75l.2-1.26a4.287,4.287,0,0,1-.14,1.12c.4-1.47.42-3.1.85-4.83v-.37l.03-.1a2.293,2.293,0,0,1,.03-.66c.1-.23.16.05.3-.82.2-.67.3-1.95.44-2.85-.1.48-.1.32-.1.1.07-.43.2-.67.22-1l.1-.02c-.12.15.1-1.15.1-1.3.1-.23-.06.68-.03.8l.45-2.6c.1-.94-.12.15-.12-.3.13-.82.2-1.63.43-2.56l-.14.28a24.889,24.889,0,0,1,.65-3.48c.58-4.92.58-6.1.38-5.87-.23-1.65-1.4,3.7-1.4,3.7-1.3,5.44-1.4,8.34-2.46,14.9-1.1,5.73-1.64,7.2-2.6,13.18l-1.48,8.66c-.03,1.36-.65,3.65-.76,5.24l-.23.58a7.274,7.274,0,0,1-.27,1.7l-.03-.04c-.05.82-.27,1.7-.3,2.12l-.03-.04-.16.98-.02-.18a40.24,40.24,0,0,1-.68,4.12l.16-.08c-.32,1.34-.46,2.28-.6,3.18l-.22,1.37-.15.76q-.045.216-.1.43a3.32,3.32,0,0,0-.07.65l-.04-.05a2.883,2.883,0,0,0,1.95,2.47,5.9,5.9,0,0,0,.64.14l.46.1.96.18a13.968,13.968,0,0,0,4.28.2c-.42.05.18.07.15.1,1.56-.06,3.25-.4,3.2-.7l.97-.2c.15-.02.15.03.26.04.01-.1.9-.73,1.52-1.35l-.28.3a23.113,23.113,0,0,0,1.76-1.82l-.5.2c.94-.92.44-.05,1.23-1.03l-.16-.12c1.2-1.35,2.08-2,3.26-3.3,4.44-5.75,8.27-12.5,12.2-17.92l.28-.17c.25.01.74-1.73,1.04-1.83l.34-.7c.15-.16.43-.53.27-.18a5.229,5.229,0,0,0,.6-1.12,2.166,2.166,0,0,0,.3-.4,3.374,3.374,0,0,0,.25-.46c.02-.06.02-.12.04-.17a1.9,1.9,0,0,1,.4-.03c-.03.07.77-.04.42.06a33.2,33.2,0,0,0,4.47-.93,2.662,2.662,0,0,1,.34-.17l.17-.07.22-.06a3.045,3.045,0,0,0,.7-.24c.06.04,1.72-.42.8-.07-.08.03-.23.06-.22.04l-.1.1a18.847,18.847,0,0,0,2.7-.73c-.3.05-.67.15-.43.04l.9-.2-.17.1,1.34-.3-.2-.03a5.937,5.937,0,0,0,1.63-.34c.32-.14-.64.05.04-.14.88-.17,2.2-.4,3.32-.67-.12-.06.18-.13.48-.22l.05.06c1.15-.4.47.05,1.62-.32l.18-.15c1.02-.4.6.01,1.73-.48-.46.13-.26-.1.32-.22l-.13.1a6.084,6.084,0,0,1,.62-.2c-.18.08-.07.13.4,0l-.3.16.85-.35c.28-.04.62-.12.94-.2l1.73,7.2.44,1.6a3.483,3.483,0,0,1,.1.44l.06.23.1.3a4.272,4.272,0,0,0,.6,1.16,4.422,4.422,0,0,0,2.16,1.6,4.041,4.041,0,0,0,1.4.25,4.253,4.253,0,0,0,1.34-.2l4.2-1.05,4.35-1.16.66-.14.03-1.98.02-.37-.07-1.28-.02-.33-.01-.16h0l-.01-.13c-.02-.06.02-.07.07-.07h.13l1.2-.23-.1.06c2.4-.6,5.1-1.15,6.3-1.45l-.1.06,2.92-.66-.5.16,12.3-2.8-.35-.07c8.16-1.68,11.06-2.65,18.43-4.18l-.1.06c9.16-2.58,14.7-3.2,24.07-6.2-1.17.4.53-.08.44-.02l3.24-1c1.04-.38,2.04-.7,2.87-1.06a10.673,10.673,0,0,0,2.74-1.4c3-1.4,2.5-1.06,2.93-1.14a8.229,8.229,0,0,1,1.5-.93c.45-.26,1-.53,1.54-.86l1.68-1-1,.65,1.6-.95,1.55-1.03c1.05-.67,2-1.46,3-2.2l-1.3.7a16.627,16.627,0,0,1,2.04-1.38,8.11,8.11,0,0,0,1.8-1.47l-.17-.1a45.1,45.1,0,0,0,9.03-10.65,52.044,52.044,0,0,0,3.45-7.6l2.8-7.8,5.56-15.7L251,248.53ZM128.5,349.2v-.24c0,.01.01.03.01.04v.2Zm48.13-69.6-.06-.03Zm-.2-.13.01-.02a.774.774,0,0,0,.07-.16c.04-.1.1-.2.12-.27a1.559,1.559,0,0,0,.06-.15q-.073.268-.13.54a1.3,1.3,0,0,1-.03.13c-.1-.07-.23-.15-.1-.07Zm-57.37,21.04-.04-.08C119.01,300.36,119.03,300.44,119.06,300.51ZM88.5,348a2.572,2.572,0,0,0-.22.32,7.34,7.34,0,0,0-.5.9l-.55.54a2.146,2.146,0,0,0-.34.7c-.13-.06-.3-.1-.5-.2-.22-.24-.18-.42-.48-.6a2.455,2.455,0,0,0-.4-.3c-.14.05-.16-.13-.3-.1l.02-.08c-.05.01-.1,0-.1-.05l.02-.01c-.07.01-.1-.05-.12-.04h.02l-.05-.03.03-.02a.243.243,0,0,1-.2-.13l-.06.08c-.05-.17-.2-.07-.25-.25l.02-.01c-.28.06-.1-.3-.4-.25.03-.01.02-.04.04-.06a.183.183,0,0,0-.27.05c-.04-.04,0-.07.03-.13a.1.1,0,0,1-.15.02l.04-.01-.12-.07-.07.12c-.03-.08.1-.14.02-.16l-.08.1c-.06-.08.01-.26-.01-.38-.27-.3-.8-.35-.95-.75l.04-.08c.08-.1-.2.08-.14-.02l-.07.02c.01-.03,0-.06.04-.07-.03-.03-.04-.01-.1,0v-.1c-.08-.15-.28-.12-.4-.25-.05-.25-.43-.4-.65-.46-.36-.05-.3-.67-.68-.7,0-.02-.04-.01-.05,0l-.2-.2s-1.03-.94-.9.56l-.02.02c.08.15.14.23.3.2-.1.14.1.1.08.16l-.01.01c.16-.04.08.2.23.18-.01.01-.04.04-.06.03.07.03.16.06.1.14.14.08.28.27.46.2v.02c.12-.04.07.04.15.04a.031.031,0,0,0-.01.02c.12-.04.15.1.22.1l-.04.05.1.07-.03-.04c.13-.13,0,.15.15.12.05.07.38-.18.4-.05.1-.04-.12.08-.03.07-.06.07-.06.03-.1.1.08.01.01.14.12.14l-.05.06c.17-.04.08.2.22.14.12.02-.1.2.1.17l-.03.1c.02.04.1-.07.1,0-.04.05.02.08-.05.1.02.15.27.05.28.27.1-.07.12.03.2-.02-.03.04.1.1-.03.14-.01,0-.02-.01-.01-.02l-.06.05c-.02.16.17.05.22.12,0-.04-.03-.05.02-.08l.05.06-.05.04.07.1.04-.07c.02.07-.05.18.07.14.06-.03.02-.1.1-.1a.741.741,0,0,0,.13.3c.05-.07.07-.05.1-.05l-.05.06c.15-.01-.08.15.06.16l.08-.07c.17-.05-.06.15.15.07-.04-.02.1-.14.1-.08l-.06.05c.03.01.06-.01.06.01-.04.02-.08.07-.04.1l-.08.05.15-.05c0,.1.13.1.1.18,0,0,.07.12.16.06-.07.04-.03.1-.1.15.08-.04.2-.02.17.07h-.01c.06.16.27.08.3.24.05-.07.07.01.13-.08.18.01.05.34.3.1.06.03,0,.1.02.14h-.02a.861.861,0,0,1,.2.14c.05,0,.16-.1.2-.03-.06.03-.03.04-.01.06-.02,0-.04.01-.04.07.02-.01.03-.02.04-.02.04.02.05,0,.04-.02.01-.01.01-.02.02-.04-.01.1.1.1.05.17a1.563,1.563,0,0,0,.4.1.113.113,0,0,1-.12.06l.08.04c-.05.06-.07,0-.1,0-.01.17.25.04.26.2l.06-.03h0a.128.128,0,0,1,.1-.04c-.03.06-.1.12-.06.16-.01.08.12.06.2.07-.02-.03.02-.05.04-.06.02.02-.01.08.03.07l-.06.07c.05-.08.12-.02.16-.04-.03.06-.07.02-.1.05a1.3,1.3,0,0,0,.15.1c.1-.01.05-.08.13-.12.06.02.14.01.15.1l.04-.08a.219.219,0,0,1,.14.08c-.2.23-.5.67-.34.3-1.07,1.4-1.84,3.07-3.1,4.85a.976.976,0,0,1-.3-.13c-.22-.24-.18-.42-.48-.6a2.455,2.455,0,0,0-.4-.3c-.14.05-.16-.13-.3-.1l.02-.08c-.05.01-.1,0-.1-.05v-.01c-.07.01-.1-.05-.12-.04h0l-.05-.03.03-.02a.243.243,0,0,1-.2-.13l-.05.07c-.05-.17-.2-.07-.25-.25v-.01c-.28.06-.1-.3-.4-.25.03-.01.02-.04.04-.06a.183.183,0,0,0-.27.05c-.04-.04,0-.07.03-.13a.1.1,0,0,1-.15.02l.04-.01-.12-.07-.07.12c-.03-.08.1-.14.02-.16l-.08.1c-.06-.08.01-.26-.01-.38-.27-.3-.8-.35-.95-.75l.04-.08c.08-.1-.2.08-.14-.02l-.07.02c.01-.03,0-.06.04-.07-.03-.03-.04-.01-.1,0l.02-.1c-.08-.15-.28-.12-.4-.25-.05-.25-.43-.4-.65-.46-.36-.05-.3-.67-.68-.7,0-.02-.04-.01-.05,0l-.2-.2s-1.03-.94-.9.56v.02c.08.15.14.23.3.2-.1.14.1.1.08.16l-.01.01c.16-.04.08.2.23.18-.01.01-.04.04-.06.03.07.03.16.06.1.14.14.08.28.27.46.2v.02c.12-.04.07.04.15.04a.031.031,0,0,0-.01.02c.12-.04.15.1.22.1l-.04.05.1.07L77.2,353c.13-.13,0,.15.15.12.05.07.38-.18.4-.05.1-.04-.12.08-.03.07-.06.07-.06.03-.1.1.08.01.01.14.12.14l-.05.06c.17-.04.08.2.22.14.12.02-.1.2.1.17l-.03.1c.02.04.1-.07.1,0-.04.05.02.08-.05.1.02.15.27.05.28.27.1-.07.12.03.2-.02-.03.04.1.1-.03.14-.01,0-.02-.01-.01-.02l-.06.05c-.02.16.17.05.22.12,0-.04-.03-.05.02-.08l.05.06-.05.04.07.1.04-.07c.02.07-.05.18.07.14.06-.03.02-.1.1-.1a.741.741,0,0,0,.13.3c.05-.07.07-.05.1-.05l-.1.04c.15-.01-.08.15.06.16l-.04.03.12-.1c.17-.05-.06.15.15.07-.04-.02.1-.14.1-.08l-.06.05c.03.01.06-.01.06.01-.04.02-.07.07-.04.1l-.08.05.15-.05c0,.1.13.1.1.18,0,0,.07.12.16.06-.07.04-.03.1-.1.15.08-.04.2-.02.17.07H79.8c.06.16.27.08.3.24.05-.07.07.01.13-.08.18.01.05.34.3.1.06.03,0,.1.02.14h-.02a.861.861,0,0,1,.2.14c.05,0,.16-.1.2-.03-.06.03-.03.04-.01.06-.02,0-.04.01-.04.07.02-.01.03-.02.04-.02.04.02.05,0,.04-.02.01-.01.01-.02.02-.04-.01.1.1.1.05.17a1.563,1.563,0,0,0,.4.1.113.113,0,0,1-.12.06l.08.04c-.05.06-.07,0-.1,0-.01.17.25.04.26.2l.06-.03v.01a.128.128,0,0,1,.1-.04c-.03.06-.1.12-.06.16-.01.08.12.06.2.07-.02-.03.02-.05.04-.06.02.02-.01.08.03.07l-.06.07c.05-.08.12-.02.16-.04-.03.06-.07.02-.1.05a1.3,1.3,0,0,0,.15.1c.1-.01.05-.08.13-.12.03.01.06.01.1.02-.05.07-.1.13-.15.2-.16.6-1.02,1.7-1.14,2.14-.1.01-1.56,2.28-.85.9a1.093,1.093,0,0,1,.2-.28v-.22a38.545,38.545,0,0,0-2.4,3.67c.3-.35.63-.86.47-.48l-.83,1.17.1-.3-1.27,1.7.27-.17a9.908,9.908,0,0,0-1.6,2.04c-.23.5.72-.7.1.22l-3.37,4.03c.2-.04-.08.33-.37.73l-.13-.03c-1.06,1.54-.64.37-1.74,1.83l.04-.18-.13.53c-.96,1.33-.78.5-1.84,1.84.25-.2.35-.2.3-.1a1.212,1.212,0,0,1-.57.52l.1-.2c-.18.14-.24.16-.3.22a.917.917,0,0,1-.36.1c.24-.13.1-.2-.56-.04a2.487,2.487,0,0,0,.4-.24c-.4.17-.82.3-1.25.45a14.475,14.475,0,0,1-3.12,0l-1.1-.07-.4,1.46.6-2.2c1.16-5.8,2.06-12.07,3.3-17.43l.13-.22c.15-.08.1-1.52.25-1.7l.06-.64c.06-.17.15-.54.12-.22a6.062,6.062,0,0,0,.14-1.02l.2-.6c.5-2.28.72-4.25,1.2-6.65.7-2.86,1.6-8.34,2.13-11.5.53-3.6,1.6-7.6,2.34-11.4a.861.861,0,0,0,.27.11c.56.17.83-.1,1.46-.2a4.355,4.355,0,0,0,1.3-.01,4.86,4.86,0,0,0,.84-.19c.1-.15.36-.07.5-.2l.07.06c.04-.05.1-.1.16-.06v.02c.07-.07.16-.06.2-.1v.02l.1-.03-.01.03a.74.74,0,0,1,.39-.14l-.03-.08c.3.02.33-.17.6-.14v.02c.22-.3.52,0,.75-.33-.03.04.03.04.04.06.13-.08.27-.14.2-.3.1-.04.1.01.14.07-.03-.07.04-.14.12-.17l-.02.04.2-.12-.1-.1c.13-.02.1.14.2.06l-.05-.1c.17-.06.34.04.54.03.7-.33,1.1-1.06,1.7-1.38l.08.04c.1.08-.01-.27.1-.2v-.1c.03,0,.08-.02.08.03.05-.05.04-.06.05-.13l.1-.01c.23-.18.27-.45.47-.67.35-.18.6-.83.73-1.2.1-.54.85-.85.9-1.45.02-.01.01-.07-.01-.07l.22-.45c.04,0,.9-2.22-.72-.9l-.02-.02a.591.591,0,0,0-.18.57c-.17-.04-.1.18-.18.22l-.01-.01c.06.2-.24.24-.2.43-.01-.01-.05-.04-.04-.07-.03.1-.06.26-.16.22-.1.24-.3.54-.26.76l-.02-.02c.04.14-.05.1-.06.23h-.03c.04.15-.14.27-.15.36l-.06-.03-.1.18.05-.06c.14.12-.18.07-.17.26-.1.1.14.45-.02.52.03.1-.07-.13-.08-.01-.08-.05-.02-.08-.1-.1-.03.1-.18.08-.2.22l-.06-.04c0,.2-.27.17-.24.34-.06.17-.24-.06-.24.17l-.12-.02c-.06.04.05.12-.04.15-.04-.05-.1.04-.12-.04-.2.06-.16.37-.46.4.04.13-.1.15-.07.25-.04-.04-.2.15-.16-.03,0-.02.02-.03.03-.01l-.03-.07c-.18-.01-.14.2-.26.27.05,0,.1-.04.1.02l-.1.06-.02-.07-.17.08.06.05c-.1.02-.2-.07-.22.08-.01.07.13.05.06.1a1.65,1.65,0,0,0-.47.1c.05.07.02.1-.01.12l-.04-.06c-.1.17-.12-.12-.24.02l-.01-.05.03.16c-.08.2-.14-.1-.2.15.06-.04.1.14.01.14l-.01-.07c-.04.03-.04.07-.07.07.01-.05-.03-.1-.08-.06v-.1l-.07.17c-.12-.04-.23.1-.3.03,0,0-.2.03-.22.15.02-.08-.1-.07-.1-.15-.03.1-.16.2-.25.14l.01-.01c-.25-.01-.36.23-.6.2.03.08-.1.07-.03.17-.2.17-.45-.12-.45.23-.1.04-.14-.05-.2-.06h.02a1.341,1.341,0,0,1-.38.1c-.06.05-.04.2-.18.2.03-.07-.02-.05-.07-.04.03-.02.03-.04-.04-.07a.218.218,0,0,1-.03.05c-.07.02-.06.03-.02.04,0,.01.01.02.02.04-.1-.06-.23.04-.26-.06-.23.06-.4.2-.6.27-.03-.05.01-.1.07-.14l-.14.04c-.01-.08.08-.06.12-.08-.2-.1-.33.18-.55.08l-.03.07h-.01a.208.208,0,0,1-.06.1c-.04-.07-.02-.16-.1-.15-.08-.06-.22.06-.32.1.06.01.04.05.02.07-.05.01-.08-.06-.12-.03l-.01-.1c.03.1-.12.1-.14.15-.03-.07.07-.07.08-.12-.2.02-.1.01-.3.04-.1.08.03.1-.02.17-.1.02-.18.1-.3.05l.04.08a.379.379,0,0,1-.4-.01,2.153,2.153,0,0,0-.42.28q.2-1.036.35-2.08a1.7,1.7,0,0,0,.06-.53l.8-4.13.55-2.9.18-.98c-.04.2-.07.38-.1.57,2.66.4,4.35.7,6.24.82.24.33,2.23.5,2.83.75l-.07.01c1.7.18,3.3,1.07,4.9,1.4a.792.792,0,0,1-.48-.05c1.12.32,2.65.9,2.54,1.08a.288.288,0,0,1,.2.2c.02.1.02.18-.1.4.01.06-.32.36-.6.6l-.9.78a11.066,11.066,0,0,0-2.72,3.2l.04-.14a20.987,20.987,0,0,0-1.2,2.42c-.05.05-.1.13-.1.1-.15.6-.4,1.43-.58,2.26a11.185,11.185,0,0,0-.27,2.1l-.12.05a20.475,20.475,0,0,0-.03,2.35c-.01-.3.01-.6.02-.88.3.3-.2,1.8.25,3.47.22,1.6,1.3,3,1.77,4.52.44.66-.5-.54.08.48-.13.1-.3-.46-.3-.13a17.953,17.953,0,0,0,1.46,2.97l-.08.1c.58.74,1.05,1.47,1.5,2.13.2.32.5.66.68.9a4.148,4.148,0,0,1,.37.56,1.034,1.034,0,0,1-.13,1.1Zm6.6-28.6a51.3,51.3,0,0,0,5.03-1.3l-.48-.9-.5.13.25.02a17.023,17.023,0,0,1-2.68.67c-8.6,2.94-1.6,1.38-1.6,1.38Z"/>
  </g>
</svg>
