<svg xmlns="http://www.w3.org/2000/svg" width="159.209" height="243.77" viewBox="0 0 159.209 243.77">
  <g id="_167" data-name="167" transform="translate(-158.631 -204.799)">
    <path id="Path_12274" data-name="Path 12274" d="M315.6,442.05l-30.4-.42,21.5.23,6,.1s.01-.02.02-.02l2.9.03a8.319,8.319,0,0,0,1-3.7c.2-2.5-1.4-4.4-3.6-5.6-2.2-1.1-23.5-9.9-27.9-11.9-3.1-1.4-4.87-2.07-6.3-1.17-.77-.4-1.35-.7-1.7-.93-2.02-1.25-2.47-6.34-2.56-9.32l1.48-.13a3.064,3.064,0,0,0,2.8-3.1l-1.5-62-1.8-52.2c-1.3-42.7-5.2-80.3-5.8-85.8h-3.2v-.1l-71.3.1c-1.1,4.9-3.3,22.6-6.6,45.1-1.8,12.7-5,47.7-6,54.9-1.7,12.2-15.3,80-18.4,95.7a3.3,3.3,0,0,0,2.6,3.9l2.43.43q-1.319,4.328-2.45,8.71c-1.5,5.8-3.5,9.3-4.8,13.5-1.9,6.3-1,7.4,0,9.2s2,3.2,11.1,3.5l12.88.28a.218.218,0,0,1-.03.05l-24.45-.34a3.244,3.244,0,0,0-2.1,2.8c-.2,2.8,1.2,3.5,1.3,3.3l73,.2s1.7-.1,1.8-2.4c.1-3.1-1.1-2.9-1.1-2.9l-2.97-.04a1.928,1.928,0,0,0,.16-.24l3.03.01a9.1,9.1,0,0,0,.8-3.53c.2-2.5-1.4-4.4-3.6-5.6-2.2-1.1-23.5-9.9-27.9-11.9-2.85-1.3-4.53-1.95-5.9-1.36-1.13-1.4-.58-5.05.17-8.1l5.05.9a4,4,0,0,0,4.6-2.8l19.76-62.23,6.54,62.53a3.225,3.225,0,0,0,3.5,2.9l6.45-.57.23,3.12c.4,4.8.7,6.8-1,13.1-1.7,6.4-1,7.4,0,9.2s2,3.2,11.1,3.5l12.96.28c-.03.07-.06.12-.07.15l-24.6-.34a3.288,3.288,0,0,0-2.1,2.9c-.2,2.8,1.2,3.5,1.3,3.3l73,.1s1.7-.1,1.8-2.4c.08-3.07-1.12-2.87-1.12-2.87Zm-48.13,5.98-.1.01C267.44,448.04,267.47,448.04,267.47,448.03Zm-81.13-.06-.1.01A.355.355,0,0,0,186.34,447.97Zm46.14-243.12-.4.01h.07l.34-.01ZM176.5,332.82l-.07.42a.2.2,0,0,0,.01-.07,2.571,2.571,0,0,0,.06-.35Z" fill="#fff"/>
    <path id="Path_12275" data-name="Path 12275" d="M307.98,429.1h0l.15-.03Zm9.36,12.73a.031.031,0,0,1,.01.02,1.26,1.26,0,0,1,.2.2c-.06-.07-.14-.14-.2-.2ZM226.77,429.1h0l.14-.03Zm9.33,12.67c0,.01.01.01.01.02a.948.948,0,0,1,.2.2,2.131,2.131,0,0,0-.22-.21Zm35.68-204.15.03-.04C271.8,237.56,271.79,237.56,271.78,237.62Zm-83.76,24.62-.04.03C187.99,262.29,188,262.29,188.02,262.24Zm6.8,40.84-1.14,5.84c.12-.17.02.36-.07.9l-.1.05c-.3,2.12-.3.74-.6,2.84l-.02-.2.05.58c-.2,1.9-.35.98-.55,3.1.15-.83.24-.36.01.65v-.27l-.2,1.13c.03-.34-.07-.2-.22.63v-.57l-.17,1.6-.8,3.6-.58,3.2c.04-.53-.28.9-.27.47a22.746,22.746,0,0,1-.65,3.46l.02-.15-1.56,7.65c.1-.1-.23,1.28-.05.96-.46,2.75-1.25,4.92-1.13,5.97-.24,1.24-.4,1.45-.54,2.1l.04-.3-.97,4.72a17.252,17.252,0,0,1-.4,2.57c.04-.5-.08.12-.2.7.07-.37.07-.5-.13.26,0,.1-.03.28-.05.43-.01.01-.02.03-.02.02-.18.97-.13.8-.02.36,0,.02.02-.01.07-.14l-.72,2.88-1.4,7.4c-.1.26-.04-.3.1-1.02l-.35,1.7a8.771,8.771,0,0,1,.26-1.52c-.56,2-.78,4.22-1.4,6.57l-.04.5-.02.12a5,5,0,0,1-.1.9c-.14.32-.15-.06-.4,1.12-.27.92-.54,2.66-.77,3.9.15-.66.15-.44.1-.15l-.34,1.38-.1.04a12.078,12.078,0,0,1-.25,1.8c-.14.32.14-.93.12-1.1l-.76,3.55c-.2,1.28.14-.2.1.4l-.73,3.48.17-.4-1.07,4.75c-2.78,15.73.2,3.48.2,3.48,1.53-6.1,2-9.3,3.52-16.63,1.44-6.4,1.97-8.08,3.34-14.76l2.03-9.68c.2-1.5.87-4.08,1.13-5.85l.2-.66c.1-.6.22-1.32.38-1.92v.04c.14-.9.38-1.92.45-2.37l.01.04.22-1.1-.01.2q.4-2.314.93-4.6l-.1.1c.73-3.02.78-4.18,1.46-6.9l.01.04c.5-3.52,1.27-5.47,1.77-9.1-.06.45.08-.18.1-.14a15.016,15.016,0,0,0,.47-3.48c.24-1.2.24-.97.34-1.12a9.271,9.271,0,0,1,.28-2l-.06.44.5-2.7-.24.5c.3-1.42.24-.33.46-1.7h-.12c.4-1.98.8-3.1,1.2-5.02,1.4-8,2.15-16.7,3.3-24.14l.13-.32c.15-.13.07-2.1.22-2.36l.05-.88c.05-.24.14-.75.12-.32a10.791,10.791,0,0,0,.12-1.4l.2-.85c.45-3.17.62-5.9,1.06-9.23.65-4,1.4-11.57,1.8-15.94.52-6.14,1.85-13.2,2.34-19.5a4.724,4.724,0,0,0,.05-.73l.67-5.74s3.15-27.83-.26-6.8l-.01-.14c-.42,3.13-.66,5.1-.76,7.3-.2.32-.3,2.58-.45,3.3v-.07c-.1,1.93-.56,3.93-.65,5.8a1.255,1.255,0,0,1,0-.54,22.143,22.143,0,0,1-.42,3.28c-.34,3.22-.9,7.7-.98,9.77l-.05-.13c-.03,1.2-.16,1.52-.26,2.84-.02.07-.04.16-.04.15-.04,1.3-.42,3.73-.5,4.77l-.07.06-.28,2.55.13-.95c.14.35-.34,1.9-.44,3.77-.23,1.72-.03,3.55-.34,5.33-.02.87-.05-.77-.14.52-.1.03.01-.6-.1-.28-.1,1.26-.34,2.05-.47,3.6l-.08.05c-.1,2.04-.56,3.8-.6,5.16-.2,2.1-.4,1.37-.5,3.55l-.2.83c-.13.93.04.68-.13,1.7-.06-.07-.2,1.3-.2.68-.4,2.3-.45,4.74-1.02,7.78.04.68-.24,2.2-.2,2.72-.06.08-.4,3.1-.3,1.34a2.27,2.27,0,0,1,.06-.4l-.05-.22c-.36,1.73-.36,3.18-.6,4.9.1-.5.18-1.2.17-.73l-.23,1.6-.02-.34-.38,2.38.12-.32a22.312,22.312,0,0,0-.5,2.88c-.04.6.26-1.08.1.15ZM243.2,383a63.99,63.99,0,0,0,.75,6.82c.45,2.6.24,5.7.73,8.37a.59.59,0,0,0,.07.3l.22,2.46s1.13,11.93,1.3,2.76l.03.06a13.9,13.9,0,0,0-.37-3.1c.16-.16-.1-1.1-.07-1.43l.02.03c-.2-.8-.06-1.7-.25-2.48a.312.312,0,0,1,.1.22,4.275,4.275,0,0,1-.1-1.4l-.55-4.17.03.06a10.347,10.347,0,0,1-.2-1.2c.01-.03.01-.07.02-.07-.16-.54-.17-1.6-.26-2.03l.06-.04-.12-1.1.03.4c-.2-.12.03-.84-.16-1.62-.05-.74-.53-1.46-.5-2.24-.12-.36.17.3.05-.23.1-.03.08.25.15.1-.1-.53.01-.9-.12-1.55l.07-.03c-.22-.85-.06-1.64-.25-2.2-.15-.9.16-.62-.08-1.54l.06-.37c-.02-.4-.15-.27-.15-.72.07.02,0-.56.08-.3,0-1-.34-2-.3-3.34-.15-.27-.14-.94-.26-1.15.05-.04-.12-1.33.07-.6.02.06.03.18,0,.17l.08.08a12.3,12.3,0,0,0-.26-2.1c0,.22.03.5-.04.32l-.06-.7.08.14-.07-1.03-.06.15a3.564,3.564,0,0,0-.06-1.25c-.1-.25-.06.5-.13-.04l-.1-2.55c-.08.1-.1-.14-.14-.38l.07-.03c-.2-.9.13-.35-.04-1.25l-.12-.15c-.23-.8.1-.45-.18-1.34.05.36-.15.18-.16-.26l.08.1a2.954,2.954,0,0,1-.08-.48c.05.14.1.07.06-.3l.1.23-.2-.67c.03-.53-.15-1.35-.07-1.58a6.2,6.2,0,0,0-.2-1.38c.1.22.06-.4.15-.24a4.54,4.54,0,0,1-.2-1.5l.02.06c-.04-1.28-.33-2.17-.34-3.32-.08.06-.1-.55-.2-.4-.23-1.17.01-2.18-.37-2.58a4.4,4.4,0,0,1,.01-.93l.03.13-.23-2.05a3.573,3.573,0,0,1-.26-1.1c.08.2.05-.06.02-.3.03.16.05.2.06-.13a.929.929,0,0,1-.06-.18s.01-.02.01-.01c-.06-.42-.08-.34-.07-.15-.01-.01-.02.01-.03.07.04-.44-.12-1.2-.02-1.27l-.5-3.2c.04-.12.12.12.17.42l-.1-.74c.08,0,.1.42.13.65.04-.9-.3-1.8-.3-2.86l-.08-.2v-.06c-.03.01-.1-.22-.13-.37.06-.15.16-.01.1-.52a9.539,9.539,0,0,0-.24-1.68c.02.3-.03.2-.07.08a5.437,5.437,0,0,0-.02-.6l.1-.03c-.08.1-.16-.66-.2-.75.06-.15.1.4.16.45l-.17-1.54c-.13-.54-.08.1-.2-.15a9.779,9.779,0,0,1-.18-1.5l-.07.18a9.834,9.834,0,0,1-.18-2.07c-1.35-6.72-1.07-1.34-1.07-1.34a72.13,72.13,0,0,0,.84,7.22l.5,6.45.46,4.2c.2.63.18,1.78.36,2.52l-.04.3a2.905,2.905,0,0,1,.1.83l-.02-.01c.1.4.1.83.15,1.02l-.02-.01.06.47-.04-.08a16.371,16.371,0,0,1,.23,2l.08-.06c.03,1.33.26,1.8.26,3h-.02c.38,1.5.08,2.4.45,3.94-.05-.2-.04.1-.06.07.1.7.18,1.48.36,1.47.05.52-.01.43-.07.5.07-.01.15.44.2.85l-.05-.18.14,1.17.12-.24c.02.62-.16.17-.06.76l.12-.02c.06.86-.07,1.38-.07,2.22.3,3.45.95,7.13,1.06,10.36l-.07.15c-.12.07.28.87.17,1l.1.37c-.01.1-.02.33-.06.15a3.369,3.369,0,0,0,.1.6l-.04.38c.1,1.36.37,2.5.48,3.94Z"/>
    <path id="Path_12276" data-name="Path 12276" d="M242.55,363.2h0l.06.07ZM212.6,432.27h0l.05-.04Zm11.03,2.66h0l.05.03ZM293,432.27h0l.06-.04Zm11.04,2.66h0l.04.03Zm-125.48,5.6.01.04A.025.025,0,0,0,178.56,440.53Zm81.2-.03.01.03C259.78,440.52,259.78,440.51,259.76,440.5Z"/>
    <path id="Path_12277" data-name="Path 12277" d="M317.84,443.18a2.067,2.067,0,0,0-.08-.44,3.706,3.706,0,0,0-.4-.88,1.949,1.949,0,0,0-.45-.32l.08-.18.3-.74c-.06-.5.23-1.53.1-1.9a3.613,3.613,0,0,0,.12-.97c0-.4.01-.66.14,0,.02.1,0,.32-.03.3l.12.17a3.4,3.4,0,0,0-.15-1.93,10.111,10.111,0,0,0-.87-1.7c.18.35.4.82.18.54a6.662,6.662,0,0,0-.63-1.02l.23.14a7.515,7.515,0,0,0-1.16-1.35l.1.26c-.6-.6-.7-.97-1.62-1.32-.42-.13.6.55-.2.14a33.19,33.19,0,0,0-3.43-1.83c.05.18-.26.04-.6-.07l.01-.13c-1.32-.37-.35-.45-1.64-.85l-.3.07c-1.2-.25-.5-.5-1.88-.7.5.2.12.35-.46.05l.2-.05a4.636,4.636,0,0,1-.7-.24c.22.02.17-.12-.33-.3h.4l-1.02-.2c-.67-.42-1.87-.75-2.1-1.03a7.848,7.848,0,0,0-1.94-.7c.35.02-.48-.37-.18-.4a6.45,6.45,0,0,1-2.1-.77l.1.02c-1.7-.87-3.07-1.08-4.57-1.9.02.16-.78-.26-.65,0-1.7-.52-2.8-1.6-3.62-1.32a6.193,6.193,0,0,1-1.2-.7l.2.05-2.8-1.2a5.512,5.512,0,0,1-1.63-.43c.34.03-.05-.12-.4-.25.23.07.33.06-.13-.18a1.089,1.089,0,0,1-.3-.03c0-.01-.02-.02,0-.03-.64-.17-.54-.1-.25,0-.02.01,0,.04.08.1a13.812,13.812,0,0,0-2-.6,3.189,3.189,0,0,0-1.6.35,2.261,2.261,0,0,1-.2.13l-.34-.17-.86-.46a2.621,2.621,0,0,1-.3-.24.905.905,0,0,1-.27-.28l-.25-.3c-.07-.1-.13-.24-.2-.36a4.419,4.419,0,0,1-.33-.7,14.962,14.962,0,0,1-.93-4.4l-.08-1.7.9-.1a4,4,0,0,0,1.7-.5,4.178,4.178,0,0,0,1.3-1.17,3.96,3.96,0,0,0,.66-1.54,4.58,4.58,0,0,0,.08-.83l-.02-.64-.17-4.75c-.72-16.43-.33-35.57-1.1-52.4q.006-.6-.04-1.19c-.02-.2-.03-.4-.04-.54s-.02-.23-.03-.22l-.48-15.4s-2.5-74.67-2.3-17.9l-.06-.38c.18,8.43.33,13.74.77,19.54-.26.93.2,6.92.18,8.9l-.03-.2c.4,5.14.1,10.6.42,15.55a6.608,6.608,0,0,1-.14-1.44c.12,3.6.3,8.55.15,8.82l.87,26.2-.06-.38c.26,3.15.13,4.08.3,7.6-.02.2-.02.44-.03.4.13,1.7.2,4.22.25,6.64l.04,1.8a2.55,2.55,0,0,1-.34,1.26,2.473,2.473,0,0,1-1.64,1.2l-.15-.1-6.8.63,2.55-.2c-.86.38-5.17.26-10.1.9-4.63.37-9.32,1.46-14.13,1.74-2.28.35,2-.4-1.42,0-.13-.15,1.6-.24.7-.3-1.68.2-3.06.27-4.54.36l-2.34.17-2.7.25-.13-.13a2.442,2.442,0,0,1-2.25-1.82,3.653,3.653,0,0,1-.12-.82l-.1-.92-.16-1.78c-.2-2.32-.38-4.42-.67-6.2-.68-5.55-.02-3.77-.87-9.54l-.07-2.27c-.23-2.48-.4-1.75-.6-4.5.12.16-.28-3.48-.01-1.88-.5-6.24-1.56-12.6-2.13-20.83-.4-1.76-.7-5.9-1-7.2.07-.23-.85-8.27-.17-3.66a7.065,7.065,0,0,1,.1,1.06l.18.54c-.12-2.15-.34-4.1-.6-6.04l5.17-16,.42-.84c.33-.32,1.43-5.6,1.8-6.32l.58-2.37c.22-.65.65-2.03.37-.85.62-2.17.6-2.23.97-3.8l.77-2.3c2.47-8.53,4.2-15.88,6.7-24.9,3.2-10.76,8.44-31.22,11.45-43.02l2.38-9.18,2.53-9.2.23-.15.47-.34q.465-.347.91-.72a14.532,14.532,0,0,0,1.68-1.65,8.022,8.022,0,0,0,1.34-2.1,4.7,4.7,0,0,0,.34-1.3c.06-.48.05-.77.08-1.17l.47-8.9.18-3.92.88-.01.5-.02c.1-.04.1.08.1.16l.04.27.25,2,.26,2.3c.16,1.54.3,3.12.4,4.75l.23,1.33v.4a17.38,17.38,0,0,1,.37,2.38c-.03.93-.27-.04.02,3.16.1,2.54.67,7.2,1,10.52-.12-1.8-.01-1.22.1-.45.14,1.6.1,2.54.23,3.77l-.1.13c.13.22.46,4.27.55,4.8-.05.92-.28-2.48-.4-2.88l.7,9.65c.35,3.43.1-.63.35,1,.24,3.03.53,5.98.64,9.47l.07-1.1c.45,5.7.62,9.1.66,12.96l1.5,19.3c.3,2.83.44,2.6.52,1.07s.06-4.42.03-6.9l-.1-4.6c-.2-8.4-.56-14.74-1.04-21.48l-1.9-23.82-1.54-19.9-.38-4.28-.55-5.5-.06-.57c.01-.07-.05-.05-.1-.05h-6.04l-6.23.02-26.4.07c-4.02.2-11.13,0-15.88.18l-1.84-.12-2.86.05.03.25c-16.4.17-29.32.6,5.6,1.6l-.4.05c8.77.1,14.3.12,20.35-.13.96.3,7.2.02,9.26.1l-.2.02c4.5-.2,9.23.05,13.7.02v19.9l.22-.1-1.06,4.2-.83,3.54.06-.4c-.67,3.2-1.07,4.1-1.93,7.67a3.3,3.3,0,0,1-.15.4c-.75,3.5-2.67,10.07-3.34,12.88l-.16.15-1.82,6.87.7-2.56c.06.97-1.58,5.14-2.73,10.17-1.3,4.65-1.93,9.62-3.4,14.42-.5,2.34.32-2.1-.5,1.38-.18.07.34-1.64-.02-.78-.84,3.4-1.66,5.5-2.7,9.7l-.17.14c-1.26,5.5-2.96,10.23-3.75,13.9-1.45,5.64-1.4,3.67-2.8,9.56l-.8,2.22c-.74,2.48-.3,1.84-1.2,4.57-.05-.2-1.17,3.44-.76,1.8-2.12,6.16-3.75,12.67-6.6,20.76-.36,1.84-1.78,5.92-2.05,7.3-.16.2-2.6,8.24-1.34,3.57a5.114,5.114,0,0,1,.35-1.04l.06-.6c-1.7,4.6-2.55,8.5-4.04,13.1.47-1.36,1.03-3.18.73-1.94l-1.37,4.28.18-.92-2.07,6.37.4-.84c-1.05,3.1-1.6,4.14-2.54,7.72-.4,1.62,1.1-2.9.1.4l-5.22,15.7c.3-.46-.16.98-.6,2.46l-.17.13a22.18,22.18,0,0,1-1.27,3.85,9.719,9.719,0,0,0-.42,1.03l-.35,1.06a3.086,3.086,0,0,1-.57,1.13,3.31,3.31,0,0,0,.15-.33,2.568,2.568,0,0,1-.58.95,2.62,2.62,0,0,1-1.93.56c-.2-.04-.45-.08-.67-.14l-.6-.15a32.3,32.3,0,0,0-4.55-.74c2.3.4,1.03.46-1.8-.1l.74.01c-1.57-.25-2.1-.3-3.14-.5.94.1.53-.08-1.78-.47l1.57.13-4.4-.56c-3.33-.73-8.7-1.52-10.04-1.93,0,0-7.2-1.37-8.9-1.48,1.47.15-2.5-.6-1.34-.54l-.87-.1-.54-.07-.5-.08a2.208,2.208,0,0,1-1.42-1.07,2.1,2.1,0,0,1-.25-.9,1.948,1.948,0,0,1,.04-.47c.04-.22.1-.43.13-.63.18-.86.35-1.6.5-2.16l-.07.42c1.76-8.14,2.58-14,4.2-21.28-.2.3.64-3.55.27-2.63,1.32-7.6,3.1-13.74,3.07-16.6.65-3.45.93-4.06,1.3-5.84l-.13.83,2.52-13.14c.4-2.4.22-2.83,1.1-7.12-.16,1.4.15-.35.46-1.96-.18,1.03-.2,1.35.27-.74q.063-.6.16-1.2c.01-.02.03-.1.04-.05.47-2.7.35-2.23.1-1,0-.07-.04.04-.15.4.66-2.76,1.46-7.77,1.7-8.07l1.8-10.83c.26-1.65.48-3.28.68-4.92l.5-4.98c.17-.75.1.84-.1,2.82l.5-4.83a38.5,38.5,0,0,1-.36,4.27c.86-5.72,1.03-11.86,1.92-18.57l.04-1.4.06-.4a19.05,19.05,0,0,1,.1-2.5c.2-.94.26.1.6-3.24.4-2.62.72-7.5,1.03-10.94-.22,1.86-.22,1.25-.17.45.18-1.67.4-2.6.5-3.9l.13-.1c-.1-.24.37-4.45.4-5.02.23-.93-.2,2.6-.16,3.02l.58-5c.1-.83.2-1.66.65-4.98.4-3.56-.24.62-.13-1.1.43-3.13.75-6.2,1.36-9.8l-.3,1.12c.73-5.9,1.23-9.42,1.92-13.37l2.24-20.04c.42-2.96.24-2.76-.24-1.23-.48,1.6-1.04,4.54-1.48,7.1l-.77,4.72c-1.38,8.62-2.24,15.16-3.16,22.12l-1.45,11.06c-.52,4.03-.97,8.46-1.52,13.63l-4.66,41.68c-.67,4.4-1.52,9-2.34,13.55l-2.48,13.42c-.58,4.15-2.2,11.36-2.96,16.25l-.48,1.86c-.27,1.7-.6,3.66-1,5.33l-.01-.1c-.4,2.52-1,5.33-1.2,6.58l-.01-.1-.58,3.04.05-.53c-.77,4.38-1.65,8.87-2.48,12.82l.2-.3c-1.84,8.43-2.16,11.6-3.87,19.2l-.01-.1-.58,3.46a15.187,15.187,0,0,0-.28,1.76,4.141,4.141,0,0,0,.4,1.98,4.46,4.46,0,0,0,2.94,2.33l1.6.3.9.16.46.1c3.85.76,7.75,1.52,12.78,2.24-1.25-.18.52.17.4.2,4.6.78,9.53,1.64,9.65,1.37,3.35.6,2.7.58,3.13.76a8.706,8.706,0,0,1,1.98.2,19.673,19.673,0,0,0-.38,2.52l-.01-.15a23.436,23.436,0,0,0-.1,2.98c-.01.08-.01.18-.02.16a7.108,7.108,0,0,0,.27,1.23c.03.08.07.16.1.25a3.788,3.788,0,0,0-.88.8,10.386,10.386,0,0,0-1.24,2.08c-.17.1-.06-.26.14-.68l-.53,1c-.12-.07.25-.6.4-.93-.87,1.1-1.1,2.53-2,3.83l-.05.33-.06.07c.05.02-.04.37-.13.58-.2.14-.23-.14-.57.55a12.679,12.679,0,0,0-1.02,2.3c.2-.37.2-.22.16-.04a7.08,7.08,0,0,0-.46.78l-.16-.04c.2-.07-.3.97-.3,1.12-.2.14.18-.58.14-.7l-1,2.08c-.26.8.2-.07.15.35a13.811,13.811,0,0,1-.96,2.05l.24-.17a12.407,12.407,0,0,1-1.4,2.75c-.6,1.68-.97,2.84-1.18,3.63a11.22,11.22,0,0,1-1.28-.07l-.42.1-.12-.02c0,.01-.03.02-.04.03l-.9-.03c-.07-.07-.2-.13-.8-.13a23.712,23.712,0,0,0-3.32.07c.47.02.42.07.25.1-.24,0-.45-.01-.62-.02a4.553,4.553,0,0,0-.52-.04c-.06-.01-.1-.01-.17-.02l-.03-.1a.662.662,0,0,1-.28.07,2.665,2.665,0,0,0-.3-.02l.3-.01h-.52a.558.558,0,0,0,.2-.04l-3.04-.02q-.121.01-.24.03l-1.3-.03a15.023,15.023,0,0,1-2.63.03c.52-.03-.13-.06-.73-.1.38.01.5.01-.28-.1a3.194,3.194,0,0,1-.44,0c-.01-.01-.04-.01-.02-.02-1-.07-.82-.05-.36.02-.02.01.01.02.15.05a17.2,17.2,0,0,1-2.92-.55,5.554,5.554,0,0,1-3.28-1.62,13.265,13.265,0,0,1-.95-1.47,5.108,5.108,0,0,1-.66-1.6c.01-.27.12.27.4.88a4.748,4.748,0,0,1-.38-1.6,13.482,13.482,0,0,0,.35,1.4,11.44,11.44,0,0,1,.5-6.44l.08-.5.05-.14a3.732,3.732,0,0,1,.18-.9c.18-.3.14.07.54-1.08.38-.88.95-2.57,1.4-3.77-.27.63-.22.4-.13.13.23-.57.43-.87.57-1.33l.1-.02a16.082,16.082,0,0,1,.53-1.77c.2-.3-.28.92-.3,1.08.86-2.33.45-1.16,1.23-3.52.33-1.3-.16.2-.05-.43.33-1.12.55-2.24.94-3.52l-.2.4c.2-.9.4-1.62.56-2.28.05-.5.07-1.2-.2-1.28-.43-.12-.86,1.65-.86,1.65l-.03-.01-.38,1.5a55.641,55.641,0,0,1-2.68,8.62,62.553,62.553,0,0,0-2.7,7.2,21.532,21.532,0,0,0-.74,3.44,9.008,9.008,0,0,0,.01,2.2,6.488,6.488,0,0,0,.96,2.47,6.307,6.307,0,0,0,1.72,2.23,7.311,7.311,0,0,0,2.6,1.15l.3.06a26.224,26.224,0,0,0-4.26.56c.14-.13.2-.22.16-.28-.06-.07-.3-.1-.75.07a2.915,2.915,0,0,0-1.6,1.54,4.759,4.759,0,0,0-.4,1.78,5.429,5.429,0,0,0,.05,1.12,3.1,3.1,0,0,0,.5,1.34l-.15-.12c.35.56.93,1.06,1.5.96l1.5.04c.44.01.85.01,1.24,0a21.633,21.633,0,0,0,2.3-.17c.3.3,2.18.04,2.8.13l-.06.02c1.62-.22,3.33.2,4.88,0a.706.706,0,0,1-.45.1,10.418,10.418,0,0,1,2.77.07c2.7-.04,6.5.05,8.23-.2l-.12.05a18.333,18.333,0,0,1,2.4-.1c.06.02.14.03.13.04,1.08-.18,3.15-.02,4.02-.1l.06.1,2.15-.02-.8-.03c.28-.3,1.62.2,3.18,0,1.46.04,2.96-.63,4.47-.47.72-.14-.64.23.44.12.03.16-.5.1-.23.23,1.06-.07,1.74.17,3.04.06l.05.12c1.7-.22,3.2.17,4.35-.04,1.76-.1,1.18.37,3,.13l.7.17c.78.03.56-.2,1.43-.12-.05.1,1.1.1.6.2,1.96.17,4-.22,6.58.06.56-.2,1.86-.08,2.28-.23.07.1,2.6.02,1.15.2-.13.02-.35.01-.33-.02l-.18.12a30.091,30.091,0,0,0,4.14-.08c-.43-.04-1-.03-.62-.12l1.36.02-.28.1,2.02.07-.28-.13a7.353,7.353,0,0,0,2.45.1c.5-.1-.94-.17.1-.2l2.36.15a2.879,2.879,0,0,0,1.96-.73,3.447,3.447,0,0,0,1-1.65c-.2.17-.01-.42-.02-1l.13-.06a4.138,4.138,0,0,1,0-1.4,1.012,1.012,0,0,0,.03-.43,1.865,1.865,0,0,0-.1-.45,3.12,3.12,0,0,0-.43-.9,1.3,1.3,0,0,0-.33-.23c0-.01.01-.02.01-.03l.34-.92c-.08-.5.2-1.52.06-1.87a3.51,3.51,0,0,0,.12-.96c0-.4.01-.67.14,0,.01.1,0,.32-.03.3l.12.17a3.315,3.315,0,0,0-.15-1.93,9.049,9.049,0,0,0-.86-1.7c.18.35.4.82.18.54a8.343,8.343,0,0,0-.63-1.03l.23.14a7.25,7.25,0,0,0-1.16-1.36l.1.26c-.6-.6-.7-.98-1.62-1.32-.42-.13.6.55-.2.14a33.381,33.381,0,0,0-3.44-1.83c.05.18-.26.04-.6-.07l.01-.13c-1.32-.38-.35-.45-1.65-.85l-.3.07c-1.22-.25-.5-.5-1.88-.7.5.2.13.35-.46.04l.2-.05a4.27,4.27,0,0,1-.7-.24c.22.02.17-.12-.33-.3h.4l-1.02-.2c-.67-.42-1.87-.75-2.1-1.03a8.173,8.173,0,0,0-1.94-.7c.36.02-.48-.38-.2-.4a6.177,6.177,0,0,1-2.1-.78l.1.02c-1.7-.87-3.07-1.08-4.58-1.9.02.16-.78-.26-.65,0-1.7-.52-2.82-1.6-3.63-1.33a6.192,6.192,0,0,1-1.2-.7l.2.05c-1.4-.56-1.78-.72-2.8-1.2a5.632,5.632,0,0,1-1.64-.43c.34.03-.04-.12-.4-.25.24.07.33.06-.13-.18a1.089,1.089,0,0,1-.3-.03c0-.01-.02-.02,0-.03-.65-.17-.55-.1-.26.01-.02.01,0,.04.08.1a4.233,4.233,0,0,0-1.2-.38c-.42-.08-.8-.1-.84-.18a3.548,3.548,0,0,0-1,.18.612.612,0,0,1-.05-.12,6.883,6.883,0,0,1-.2-2.75,22.226,22.226,0,0,1,.48-2.96l.15-.62,2.54.43-1.2-.17,3.3.56c.18.02.36.06.55.07a4.728,4.728,0,0,0,3.98-1.73,4.5,4.5,0,0,1-1.46.92,4.992,4.992,0,0,0,1.63-1.4l.4-.55a1.591,1.591,0,0,0,.3-.57c.12-.32.28-.82.56-1.75l-.2-.01c1.72-5.32,2.98-8.36,4.75-13.47l13.53-43.53,2.9,28.6-.05.9c-.17.4.9,5.48.78,6.27l.34,2.32c.03.66.13,2.04-.04.9.22,2.15.26,2.2.48,3.74l.1,2.32c.4,4.25.84,8.17,1.3,12.15l.17,1.5a6.155,6.155,0,0,0,.16.9,3.53,3.53,0,0,0,.36.9,4.222,4.222,0,0,0,3.16,2.17,4.164,4.164,0,0,0,1-.01l.78-.07,1.6-.15,3.24-.28.7-.04c5.35-.35,12.77-1,20.32-1.72l9.6-.93a20.748,20.748,0,0,0,.3,2.4l-.05-.14c.25,1.16.22,1.52.56,2.8a.763.763,0,0,1,.02.15,12.387,12.387,0,0,0,1,2.36l.43.6c.18.17.37.32.54.47.35.22.66.37.9.5l.03.1c.01,0,.01.01.02.01a.6.6,0,0,1-.08.08,9.819,9.819,0,0,0-1.25,2.08c-.16.1-.07-.25.14-.68-.2.34-.35.67-.53,1-.1-.07.24-.6.4-.93-.87,1.1-1.1,2.53-1.98,3.82l-.05.33-.06.07c.05.02-.04.36-.12.58-.2.14-.23-.13-.57.55a13.438,13.438,0,0,0-1,2.3c.2-.37.2-.22.16-.04a5.607,5.607,0,0,0-.45.78l-.16-.04c.2-.07-.3.97-.3,1.12-.2.14.17-.58.13-.7l-1,2.08c-.25.8.2-.07.15.34a14.787,14.787,0,0,1-.95,2.05l.24-.18a11.6,11.6,0,0,1-1.4,2.75c-.6,1.76-.98,2.95-1.18,3.74-.26,0-.52-.01-.8-.02a2.643,2.643,0,0,0-.27-.02.17.17,0,0,1-.07-.01l.3-.01h-.5a.375.375,0,0,1-.1-.01l-.03.01c-.65,0-1.17-.01-1.63-.01a2.621,2.621,0,0,0-.64-.05,23.713,23.713,0,0,0-3.32.07,2.565,2.565,0,0,1,.3.03q-.469.035-.94.03a1.905,1.905,0,0,0-.34-.01h-.08v-.01c.2-.02.15-.04-.01-.04l-.02-.07a.537.537,0,0,1-.22.07c-.15,0-.33-.01-.5-.01.3,0,.42-.02.08-.05a.1.1,0,0,0,.03-.01h-.16c-.07-.01-.14-.01-.23-.02-.04.01-.1.01-.15.02-1.3-.01-.7,0-2.5-.02-.1.01-.14.02-.2.02a2.116,2.116,0,0,1-.7-.07,47.026,47.026,0,0,1-7.33-.44c-.25-.1.3-.04,1,.04-.56-.08-1.1-.17-1.65-.3a12.245,12.245,0,0,1,1.46.22c-1.84-.43-4.2-.62-5.06-2.92l-.3-.4-.05-.13a2.514,2.514,0,0,1-.42-.73.59.59,0,0,1,.03-.26c.01-.1-.04-.27-.1-.82a17.641,17.641,0,0,1,.28-3.73c-.14.64-.14.42-.1.14.1-.58.26-.9.33-1.34l.1-.03c-.15.2.28-1.5.3-1.74.15-.3-.17.9-.16,1.06.57-2.3.32-1.14.85-3.48.2-1.27-.13.2-.1-.4.2-1.1.33-2.2.48-3.5l-.12.4c.1-2.12,0-3.38-.01-4.8,0,0-.18-1.25-.63-1.2s-.34,1.64-.34,1.64l-.04-.03a28.552,28.552,0,0,1,.06,4.12,28.2,28.2,0,0,1-.54,3.8c-.27,1.38-.7,2.9-1.1,4.72a16.573,16.573,0,0,0-.52,4.26,5.551,5.551,0,0,0,.4,1.85c.23.57.5,1.02.74,1.5a5.807,5.807,0,0,0,1.08,1.45,5.483,5.483,0,0,0,1.67,1.05,11.053,11.053,0,0,0,1.74.52,27.216,27.216,0,0,0-4.56.6c.14-.13.2-.2.16-.27-.06-.07-.3-.1-.74.07a2.984,2.984,0,0,0-1.6,1.54,4.851,4.851,0,0,0-.43,1.78,4.177,4.177,0,0,0,.47,2.46,1.846,1.846,0,0,1-.14-.14,2.37,2.37,0,0,0,.7.8,1.356,1.356,0,0,0,.44.24.4.4,0,0,0,.2.03h.25l1.47.03c.43.01.83,0,1.22-.01a21.077,21.077,0,0,0,2.26-.17c.3.3,2.18.03,2.8.13l-.06.02c1.62-.22,3.33.2,4.9-.01a.706.706,0,0,1-.45.1,10.389,10.389,0,0,1,2.77.07c2.7-.04,6.5.04,8.23-.22l-.12.05a20.068,20.068,0,0,1,2.4-.12c.06.02.14.03.13.04,1.08-.18,3.15-.02,4.02-.1l.06.1,2.15-.02-.8-.02c.28-.3,1.62.2,3.18,0,1.46.04,2.96-.63,4.47-.48.72-.14-.64.23.44.12.04.16-.5.1-.23.23,1.06-.07,1.74.17,3.04.06l.05.12c1.7-.22,3.22.17,4.35-.05,1.76-.1,1.18.37,3,.13l.7.17c.78.03.56-.2,1.43-.12-.05.1,1.1.1.6.2,1.97.17,4-.23,6.58.05.56-.2,1.87-.08,2.3-.24.07.1,2.6.02,1.15.2-.13.02-.35.01-.33-.02l-.18.12a27.2,27.2,0,0,0,4.14-.1c-.43-.04-1-.03-.62-.1l1.36.02-.28.1,2.02.06-.28-.13a7.922,7.922,0,0,0,2.45.1c.5-.1-.94-.17.1-.2l2.36.15a2.588,2.588,0,0,0,1.05-.16,3.249,3.249,0,0,0,.9-.52,3.3,3.3,0,0,0,1.02-1.64c-.2.17,0-.43-.01-1l.13-.06a4.279,4.279,0,0,1,.01-1.4c.07-.08.1-.17.08-.4ZM261.3,207.4l4.1.2v1.7a.676.676,0,0,1-.05.2l-.42,10.7c-.01.22-.02.4-.04.54a1.44,1.44,0,0,1-.09.45c-.03.1-.07.2-.1.3a12.332,12.332,0,0,1-3.38,3v-17.1ZM188.14,439.6c2.1-3.4,2.64-5.42,4.66-9.72l.3-.6c.24.1.47.18.47.18a20.32,20.32,0,0,0,3.8.74,33.261,33.261,0,0,0,3.34.9c.6.15,1.24.27,1.85.4a9.958,9.958,0,0,1-.78,2.13h-.1c-.12-.03.1.26-.02.24v.1c-.03.01-.07.05-.08,0-.03.07-.01.08,0,.15l-.1.05c-.17.27-.12.57-.27.86a3.3,3.3,0,0,0-.5,1.48c-.04.63-.77,1.1-.78,1.74-.02.01,0,.08.01.08l-.22.52s-1.03,2.52.7.98l.02.02a.837.837,0,0,0,.2-.7c.17.03.1-.23.2-.28h.01c-.06-.22.24-.32.2-.53.01.01.05.03.04.07.03-.13.06-.3.15-.3.1-.3.3-.7.2-.94l.02.02c-.06-.15.04-.14.03-.28.01,0,.02-.01.03,0-.05-.16.12-.35.1-.46l.06.02.08-.24-.05.08c-.16-.1.18-.13.13-.35.08-.15-.23-.46-.08-.6-.05-.1.1.12.1-.02.1.03.03.08.12.07,0-.13.16-.15.16-.32l.07.02c-.06-.23.23-.3.15-.48.02-.2.26-.05.2-.3l.12-.04c.05-.08-.1-.1-.01-.18.06.03.1-.1.13-.02.18-.18.04-.48.3-.7-.1-.1.03-.22-.04-.3.05.01.12-.28.17-.08,0,.02-.01.04-.03.03l.06.05c.2-.1.04-.32.12-.47-.04.04-.06.1-.1.04l.07-.14.05.05.12-.2h-.08c.08-.1.2-.08.16-.24-.04-.08-.14.06-.1-.06a3.818,3.818,0,0,0,.31-.42,1.7,1.7,0,0,0,.44.05l.14.1a.957.957,0,0,1,.44.08l-.01.02c.22-.01.44.08.55.07l-.01.02.25.05-.05.02a4.98,4.98,0,0,1,1.06.2l-.01-.1c.67.25.96.14,1.56.4l-.01.02c.84-.04,1.2.44,2.08.4-.1,0,.03.05.02.07.38.06.78.14.83-.02.27.06.2.1.23.18.02-.07.26-.05.47-.01l-.1.01.62.1-.1-.17c.32.1.04.2.36.22l.02-.12a2.457,2.457,0,0,1,.36.14,4.578,4.578,0,0,1-.46,1.6h-.1c-.13-.03.13.2.01.2l.04.08c-.03.01-.06.04-.08,0-.02.06,0,.07.02.12l-.1.04c-.13.22-.05.47-.16.7a2.127,2.127,0,0,0-.3,1.2c.04.52-.6.9-.55,1.43-.02.01,0,.06.02.07l-.15.42s-.7,2.07.82.8l.02.02a.5.5,0,0,0,.1-.56c.17.03.08-.2.15-.23h.01c-.08-.18.2-.26.13-.44.01.01.06.03.05.06.01-.1.02-.26.1-.23.05-.25.2-.57.1-.77l.02.02c-.08-.12.02-.12,0-.23.01,0,.02-.01.03,0-.07-.13.07-.28.05-.38l.07.01.04-.2-.04.07c-.17-.08.15-.1.08-.28.06-.12-.28-.38-.16-.48-.06-.1.12.1.08-.02.1.03.04.06.12.06-.01-.1.14-.13.12-.26l.07.02c-.08-.2.18-.26.1-.4-.01-.17.24-.04.15-.24l.12-.03c.04-.06-.1-.1-.03-.15.06.02.08-.08.12-.02.15-.15-.03-.4.2-.58-.1-.1,0-.18-.07-.25.05.01.08-.23.15-.06.01.01,0,.03-.02.03l.07.04c.17-.1,0-.26.06-.38-.04.03-.04.08-.08.04l.05-.12.05.04.1-.17h-.08c.05-.06.13-.07.14-.12a43.916,43.916,0,0,1,4.95,1.1l.05.1c0,.13.5-.08.54.05l.2-.01c.05.03.16.1.06.1a.642.642,0,0,0,.33.02l.18.12a13.262,13.262,0,0,0,1.5.3,1.107,1.107,0,0,1-.2.44l-.1-.01c-.12-.03.14.18.02.15l.04.07c-.03.01-.06.03-.08-.01-.02.04,0,.05.03.1l-.1.02c-.12.16-.02.36-.12.53-.23.17-.23.64-.23.9.07.4-.56.64-.47,1.06-.02.01.01.05.02.05l-.13.3s-.58,1.54.83.7l.02.02c.12-.15.18-.26.08-.43.17.04.07-.14.13-.16v.01c-.1-.15.18-.18.1-.33.01.01.06.03.05.05.01-.08,0-.2.1-.17.04-.2.17-.42.05-.6l.02.02c-.08-.1.01-.1-.01-.18h.03c-.08-.1.06-.2.03-.3l.06.02.03-.15-.03.05c-.17-.08.15-.07.07-.2.05-.1-.3-.32-.18-.4-.07-.08.12.1.08-.01.1.03.05.05.12.06-.02-.08.13-.08.1-.2l.07.02c-.1-.16.17-.18.07-.3-.02-.14.24-.01.14-.17l.1-.01c.03-.05-.1-.08-.04-.12.06.02.07-.06.12,0,.14-.1-.04-.3.17-.43-.1-.07-.02-.13-.08-.2a23.91,23.91,0,0,0,3.18.6c1.42.13,2.9,1,4.35,1.1.04.03.17.02.17,0l1.28.3s1.54.36,2.53.47a10.626,10.626,0,0,1-.36,2.1.682.682,0,0,1-.16.33l-.4-.02h-.08a1.274,1.274,0,0,0-.2-.01l-1.54-.08-.2-.15c-.1-.2-1.32.3-1.5.1l-.56.1c-.16-.04-.5-.08-.2-.13a2.627,2.627,0,0,0-.9.1l-.55-.14c-1.48-.08-2.8.03-4.23.07-.18-.04-.35-.1-.2-.14a9.923,9.923,0,0,1-1.7.13c-.37-.04-.78-.06-1.22-.08l.1-.01c-2.5-.18-4.3.14-6.54-.07.1.13-.82.07-.84.18l-1.43.07a10.659,10.659,0,0,0-3.42.03l-1.97-.1.22-.02h-.52a45.989,45.989,0,0,0-6.82-.13,1.1,1.1,0,0,0-.47.06l-3.67-.05s-2.92-.03-5.5.06a7.579,7.579,0,0,1,1.24-.04,19.1,19.1,0,0,0-3.3-.01c.33-.53.6-1,.6-1Zm46.43,3.16a.248.248,0,0,0,.08-.01c.13.22.06.32.04.36-.04.07-.06.04.06.54l.2-.04a4.471,4.471,0,0,1-.25,1.9,1.287,1.287,0,0,1-.95.8c-.16.04-.02.03-.3.03h-1.93l-2.6.02-5.2.1c-3.46.06-6.86.1-10.02-.1l-.28-.15c-.12-.2-1.74.3-1.98.1l-.73.1c-.2-.04-.64-.08-.28-.13a4.341,4.341,0,0,0-1.18.1l-.73-.14c-2.68-.1-4.96.14-7.78.08-3.4-.28-9.76-.05-13.43.1-5.16.3-11.17-.56-16.45-.2a1.687,1.687,0,0,0-.6.06l-4.84-.04-4.44.02c-.12.05-.24-.06-.3-.15a.873.873,0,0,1-.15-.26,3.091,3.091,0,0,1-.14-.4,4.953,4.953,0,0,1-.14-1.78,2.9,2.9,0,0,1,.96-1.8c.4.34,3.9.53,3.9.53,5.26.38,7.98.01,14.24-.01,5.5.15,6.96.44,12.67.4,2.72.06,5.63.04,8.3.04,1.27-.2,3.5.04,5-.1l.58.13a6.431,6.431,0,0,1,1.64-.01l-.03.03c.77-.08,1.64-.01,2.02-.05l-.03.03h.93l-.16.05a34.508,34.508,0,0,1,3.94,0l-.1-.15c2.6.2,3.56-.1,5.9.13l-.03.03c2.98-.34,4.7.33,7.76,0-.38.04.16.08.13.1,1.4-.02,2.92-.02,2.94-.3a1.027,1.027,0,0,1,.18.01c.2.03.4.04.17.1.18.02.36.01.54.02a.984.984,0,0,0,.07.1c0-.03.05-.06.15-.08.5.01,1.02-.01,1.56-.04a2.346,2.346,0,0,0,.27-.01h.4a.416.416,0,0,1,.44.22,1.048,1.048,0,0,0,.01-.25Zm-10-12.46a.3.3,0,0,1,.1.04l-.12-.03Zm-.86,4s.1-.13,0-.2c.06.05.1-.02.18.03-.06-.06-.08-.2.01-.2v.01c.14-.14-.01-.32.14-.44-.08-.02-.01-.08-.12-.1-.05-.2.3-.2,0-.37.01-.08.1-.06.13-.1l.01.02a.808.808,0,0,1,.07-.27c-.02-.06-.16-.12-.1-.2.05.05.05.01.06-.02,0,.02.02.04.08.01-.02-.01-.02-.03-.03-.04h.02c0-.06-.02-.06-.04-.04-.01,0-.02-.01-.04,0,.1-.03.05-.16.15-.13a2.476,2.476,0,0,0-.03-.48.1.1,0,0,1,.1.1l.01-.1c.08.03.02.07.03.1.16-.07-.04-.28.12-.38l-.05-.05h.01c-.03-.01-.06-.06-.07-.08.07,0,.15.05.17-.01.08-.03.02-.16.01-.24-.02.03-.06.01-.07-.02.01-.03.08-.03.06-.07l.1.03c-.1-.02-.06-.12-.1-.14.07,0,.04.07.1.1l.06-.2c-.04-.1-.1-.02-.16-.08,0-.07-.04-.15.04-.2h-.1a.186.186,0,0,1,.06-.2l1.48.6-.2-.38c.82.42.1.36.94.65l.07-.18a29.174,29.174,0,0,1,2.8,1.73l1.7.77a8.594,8.594,0,0,1,1.44.96,4.676,4.676,0,0,1,1.73,2.73,3.482,3.482,0,0,1,.05.58c-.22-.12-.5-.25-.82-.4l.04-.02a4.455,4.455,0,0,0-1.65-.32c-.04-.2-.57-.15-.73-.24v-.01c-.46.03-.86-.3-1.3-.3a.127.127,0,0,1,.13-.03c-.3-.05-.73-.1-.73-.2a11.907,11.907,0,0,0-2.22-.36l.04-.02c-.3.05-.34-.06-.65-.08a.075.075,0,0,0-.03-.03,6.756,6.756,0,0,1-1.08-.18v-.07l-.57-.12.2.06c-.1.16-.4-.2-.85-.2-.32-.1-.7.1-1.05.05a1.048,1.048,0,0,0,.2-.22c-.1-.02-.07-.05-.08-.08l.07.02c-.06-.15.17.01.13-.13l-.1-.05c-.1-.15.17-.01.02-.2,0,.05-.16-.03-.1-.08l.06.04c0-.04-.03-.06-.01-.07.03.03.1.04.1-.01l.07.06-.1-.13c.1-.04.04-.18.15-.18Zm-8.66-4.32c.05.06.05.01.07-.04,0,.03.02.05.08,0-.02-.01-.02-.03-.03-.04h.02c0-.08-.02-.07-.04-.04-.01,0-.02-.01-.04,0,.1-.05.06-.2.17-.2a3.99,3.99,0,0,0,0-.6.1.1,0,0,1,.1.1l.02-.14c.08.02.02.1.02.13.17-.12-.03-.36.14-.5l-.05-.06.01-.01a.153.153,0,0,1-.07-.1c.07-.01.15.05.18-.04.1-.05.03-.2.02-.32-.03.05-.06.02-.08-.01.01-.05.1-.05.07-.1l.1.02c-.1-.01-.06-.15-.1-.17.07,0,.04.1.08.1.05-.18.02-.1.07-.27-.04-.12-.1-.01-.16-.08.01-.1-.03-.2.06-.27h-.1a.344.344,0,0,1,.14-.35c-.02-.1-.04-.14-.06-.22,1.86.57,2.85,1.5,4.9,2.02-.28-.07.1.12.05.14,1,.38,2.06.8,2.2.54.72.3.55.33.6.47.01-.04.1-.03.2-.01a6.908,6.908,0,0,0-.06.77c-.16.35-.35.4-.42.8a5.8,5.8,0,0,0-.15.56c.1.12-.08.23-.01.37h-.08c.02.05.03.1-.02.12l-.02-.01c.03.07-.02.12,0,.15l-.02-.01-.01.06-.02-.02a.317.317,0,0,1-.06.27l.08.02c-.15.14,0,.26-.16.38l-.02-.01c.15.27-.25.26-.12.53-.02-.03-.05,0-.07-.01-.01.1-.03.2.13.26-.03.07-.07.04-.14.03a.123.123,0,0,1,.07.15l-.02-.03-.03.16.14.02c-.07.07-.17-.04-.16.05l.1.04c-.05.1-.2.1-.3.17v-.03c-.48.03-.83-.3-1.16-.23-.48-.05-.26-.3-.78-.26l-.17-.14c-.2-.06-.18.1-.4-.01.03-.06-.28-.12-.13-.14-.5-.22-1.1-.1-1.74-.43-.18.1-.5-.06-.64,0-.01-.06-.7-.17-.28-.2.04,0,.1.01.1.03l.06-.06c-.36-.22-.73-.1-1.1-.2.1.05.26.08.15.1l-.36-.1.1-.04-.53-.16.06.1c-.25-.1-.32-.25-.64-.2-.15.03.23.16-.06.12l-.37-.14q-.015-.045,0-.06c.03.04.1.04.1-.02l.07.07-.1-.16c.1-.07.05-.24.16-.25,0,0,.1-.18.02-.26.05.06.1-.04.18.01-.06-.07-.07-.24.02-.28h.01c.15-.2.01-.42.17-.6-.1-.02-.01-.1-.12-.1-.04-.24.33-.3.03-.5.01-.1.1-.1.14-.13l.01.03a1.166,1.166,0,0,1,.1-.37c-.01-.08-.16-.13-.1-.24Zm-8.97-4.46c.1-.06.06-.26.07-.38-.03.06-.06.02-.08-.01.02-.06.1-.06.08-.1l.1.03c-.1-.01-.03-.18-.06-.2.08-.01.02.1.07.14l.12-.33c-.02-.14-.1-.01-.15-.1.02-.1,0-.23.1-.33l-.1.01a.5.5,0,0,1,.2-.43,2.065,2.065,0,0,0-.17-.85.636.636,0,0,1,.18.1l-.04.02c.53.17,1.1.48,1.4.55l-.04.02.66.26h-.13a21.174,21.174,0,0,1,2.78,1.1l-.01-.16c1.68.88,2.47.93,3.9,1.7-.3.4-.16.72-.26,1.3-.2.48-.4.56-.48,1.08a6.365,6.365,0,0,0-.2.75c.1.15-.1.3-.03.47l-.08.03c.02.06.03.12-.02.15v-.01c.03.08-.02.15-.01.2h-.02l-.02.1-.02-.02a.6.6,0,0,1-.07.36l.1.02c-.16.2-.02.34-.2.5l-.02-.01c.14.33-.28.37-.15.7-.02-.04-.05,0-.07-.01-.02.13-.04.27.12.32-.01.04-.03.05-.05.05a.333.333,0,0,1-.1,0,.082.082,0,0,1,.05.05.53.53,0,0,1-.18,0v-.08c-.5-.01-.14-.2-.63-.23l-.1.08c-.46.05-.2-.2-.7-.1.2.03.05.18-.17.1l.07-.06c-.13-.01-.18.01-.26-.03.08-.02.06-.1-.13-.12l.15-.06-.38.05c-.26-.14-.7-.14-.8-.27,0,0-.58-.18-.74-.1.13-.04-.2-.14-.07-.2a1.4,1.4,0,0,1-.8-.12h.04c-.65-.24-1.17-.15-1.74-.4.01.1-.3-.03-.24.1-.64-.03-1.08-.48-1.38-.2-.3-.05-.32-.15-.46-.2h.07c-.34-.06-.53-.1-.72-.14.06-.1.06-.23.15-.24,0,0,.14-.22.06-.32.05.07.12-.05.18.02-.05-.1-.04-.3.07-.34v.02c.18-.24.07-.5.26-.7-.1-.02.01-.13-.1-.14,0-.3.4-.38.1-.6.03-.12.13-.1.17-.16l.01.03a2.135,2.135,0,0,1,.15-.45c0-.1-.14-.16-.05-.3.04.07.05.01.07-.05,0,.04.01.06.08,0a.169.169,0,0,1-.02-.05h.02c.01-.1-.01-.1-.03-.05-.01-.01-.02-.01-.04,0,.1-.06.1-.26.2-.23a7.4,7.4,0,0,0,.1-.75.1.1,0,0,1,.08.14l.04-.17c.07.03.01.1,0,.16.2-.14.03-.44.23-.6l-.04-.07h.01a.111.111,0,0,1-.05-.1c.08-.01.15.06.2-.05Zm-7.92-4.76a1.391,1.391,0,0,1,.77-.33,6.026,6.026,0,0,1,2.45.55c.92.13,2.37,1.04,3.5,1.33l.36.3a4.781,4.781,0,0,1,.75.26.844.844,0,0,0-.35.3c-.4.5-.28.88-.48,1.6a6.783,6.783,0,0,0-.66,1.32c-.13.3-.2.62-.3.9.07.18-.15.38-.1.58l-.1.04c.01.07.01.14-.05.18h-.02c.02.1-.05.18-.04.24l-.02-.01-.03.1-.02-.03a.876.876,0,0,1-.13.44l.1.02c-.2.25-.07.4-.28.63l-.02-.01c.1.4-.34.45-.27.86-.01-.05-.05,0-.07-.01-.04.16-.1.33.07.4-.01.02-.02.02-.03.03-.03-.01-.06-.01-.1-.02.1.01.12-.01-.05-.1a.36.36,0,0,1-.11.02c-.22-.05-.2-.02-.1.01-.01.01,0,.02.03.05-.2-.13-.64-.14-.64-.25-.66-.13-1.16-.12-1.72-.2-.05-.07.1-.1.25-.07l-.4-.07c.02-.08.23.01.36.02-.43-.23-.98-.1-1.5-.33l-.13.04-.03-.02c-.01.03-.14.05-.22.04-.06-.1.04-.16-.23-.2a3.3,3.3,0,0,0-.9-.13c.15.05.1.07.02.08-.14-.03-.2-.1-.3-.1l.01-.1c.03.1-.37.01-.43.04-.06-.1.22-.01.27-.05l-.8-.17c-.3,0,.03.1-.12.15a2.958,2.958,0,0,1-.8-.15l.07.1a2.691,2.691,0,0,1-1.08-.28q-.56-.027-1.12-.01c.65-1.2,1.17-2.1,1.68-3l1.03-1.84c.38-.65.76-1.5,1.25-2.24a4.972,4.972,0,0,1,.8-.88ZM304.34,433.4c-.05-.2.3-.2,0-.37.01-.08.1-.06.13-.1l.01.02a.807.807,0,0,1,.07-.27c-.01-.06-.16-.12-.1-.2.05.05.05.01.06-.02,0,.02.02.04.08.01-.02-.01-.02-.03-.03-.04.02-.06,0-.06-.02-.04-.01,0-.02-.01-.04,0,.1-.03.05-.16.15-.13a2.476,2.476,0,0,0-.03-.48.1.1,0,0,1,.1.1l.01-.1c.08.03.02.07.03.1.16-.07-.04-.28.12-.38l-.05-.05h.01c-.03-.01-.06-.06-.07-.08.07,0,.15.05.17-.01.08-.03.02-.16.01-.24-.02.03-.06.01-.07-.02.01-.03.08-.03.06-.07l.1.03c-.1-.02-.06-.12-.1-.14.07,0,.04.07.1.1l.06-.2c-.04-.1-.1-.02-.16-.08,0-.07-.04-.15.04-.2h-.1a.208.208,0,0,1,.12-.26c-.03-.1-.07-.18-.1-.26a4.893,4.893,0,0,1,1,.3l-.28-.06,1.62.64-.22-.35c.82.42.1.36.94.65l.07-.18a31.244,31.244,0,0,1,2.8,1.72l1.7.77a9.192,9.192,0,0,1,1.44.95,4.653,4.653,0,0,1,1.73,2.72,4.205,4.205,0,0,1,.04,1.13,5.35,5.35,0,0,0-1.6-.94h.04a4.455,4.455,0,0,0-1.65-.32c-.04-.2-.57-.15-.73-.24l.02-.01c-.46.03-.86-.3-1.3-.3a.127.127,0,0,1,.13-.03c-.3-.05-.73-.1-.73-.2a11.907,11.907,0,0,0-2.22-.36l.04-.02c-.3.05-.34-.06-.65-.08a.075.075,0,0,0-.03-.03,6.756,6.756,0,0,1-1.08-.18v-.07l-.57-.12.2.06c-.1.16-.4-.2-.85-.2-.32-.1-.7.1-1.05.05a1.049,1.049,0,0,0,.2-.22c-.08-.02-.07-.05-.08-.08l.07.02c-.06-.15.17.01.13-.13l-.1-.05c-.1-.15.17-.01.02-.2,0,.05-.16-.03-.1-.08l.06.04c0-.04-.03-.06-.01-.07.03.03.1.04.1-.01l.07.06-.1-.13c.1-.04.04-.18.15-.18,0,0,.1-.13,0-.2.06.05.1-.02.18.03-.06-.06-.08-.2.01-.2l.01.01c.14-.14-.01-.32.14-.44-.08-.02-.01-.08-.12-.1Zm-8.65-4.34a.1.1,0,0,1,.1.1v-.14c.08.02.02.1.02.13.17-.12-.03-.36.14-.5l-.05-.06.01-.01a.153.153,0,0,1-.07-.1c.07-.01.15.05.18-.04.1-.05.03-.2.02-.32-.03.05-.06.02-.08-.01.01-.05.1-.05.07-.1l.1.02c-.1-.01-.06-.15-.1-.17.07,0,.04.1.08.1.05-.18.02-.1.07-.27-.04-.12-.1-.01-.16-.08.01-.1-.03-.2.06-.27h-.1a.344.344,0,0,1,.14-.35,1.778,1.778,0,0,0-.22-.62q.223.109.44.23l-.04.02c2.26.52,3.2,1.62,5.5,2.2-.28-.07.1.12.05.14,1,.38,2.06.8,2.18.54l.27.12a.8.8,0,0,0-.13.1c-.3.3-.12.55-.2.98-.16.35-.35.4-.42.8a5.8,5.8,0,0,0-.15.56c.1.12-.08.23-.01.37h-.08c.02.05.03.1-.02.12v-.01c.03.07-.02.12,0,.15l-.02-.01-.01.06-.02-.02a.317.317,0,0,1-.06.27l.08.02c-.15.14,0,.26-.16.38l-.02-.01c.15.27-.25.26-.12.53-.02-.03-.05,0-.07-.01-.01.1-.03.2.13.26-.03.07-.07.04-.14.03a.123.123,0,0,1,.07.15l-.02-.03-.03.16.14.02c-.07.07-.17-.04-.16.05l.1.04c-.05.1-.2.1-.3.17v-.03c-.48.03-.83-.3-1.16-.23-.48-.05-.26-.3-.78-.26l-.17-.14c-.2-.06-.18.1-.4-.01.03-.06-.28-.12-.13-.14-.5-.22-1.1-.1-1.74-.43-.18.1-.5-.06-.64,0-.01-.06-.7-.17-.28-.2.04,0,.1.01.1.03l.06-.06c-.36-.22-.73-.1-1.1-.2.1.05.26.08.15.1l-.36-.1.1-.04-.53-.16.06.1c-.25-.1-.32-.25-.64-.2-.15.03.23.16-.06.12l-.37-.14q-.015-.045,0-.06c.03.04.1.04.1-.02l.07.07-.1-.16c.1-.07.05-.24.16-.25,0,0,.1-.18.02-.26.05.06.1-.04.18.01-.06-.07-.07-.24.02-.28h.01c.15-.2.01-.42.17-.6-.1-.02-.01-.1-.12-.1-.04-.24.33-.3.03-.5.01-.1.1-.1.14-.13l.01.03a1.538,1.538,0,0,1,.09-.37c-.01-.08-.16-.13-.1-.24.05.06.05.01.07-.04,0,.03.02.05.08,0-.02-.01-.02-.03-.03-.04.02-.08,0-.07-.02-.04-.01,0-.02-.01-.04,0,.1-.05.06-.2.17-.2a3.99,3.99,0,0,0,0-.6Zm-19.3-3.48,1.02-1.84c.37-.65.76-1.5,1.24-2.23a3.841,3.841,0,0,1,.76-.82,1.348,1.348,0,0,1,.75-.26,6.994,6.994,0,0,1,2.5.58c.92.13,2.37,1.04,3.5,1.33l.36.3a4.134,4.134,0,0,1,1.16.46l-.04.02c.57.15,1.15.46,1.44.53l-.04.02.66.26h-.13a21.908,21.908,0,0,1,2.77,1.11l-.01-.16c1.44.75,2.23.9,3.34,1.4a.727.727,0,0,0-.27.24c-.32.4-.16.73-.27,1.3-.2.48-.4.56-.48,1.08a6.368,6.368,0,0,0-.2.75c.1.15-.1.3-.03.47l-.08.03c.02.06.03.12-.02.15h-.02c.03.08-.02.15-.01.2l-.02-.01-.02.1-.02-.02a.6.6,0,0,1-.07.36l.1.02c-.16.2-.02.34-.2.5l-.02-.01c.14.33-.28.37-.15.7-.02-.04-.05,0-.07-.01-.02.13-.04.27.12.32-.01.04-.03.05-.05.05a.333.333,0,0,1-.1,0,.082.082,0,0,1,.05.05.53.53,0,0,1-.18,0v-.08c-.5-.01-.14-.2-.63-.23l-.1.08c-.46.05-.2-.2-.7-.1.2.03.05.18-.17.1l.07-.06c-.13-.01-.18.01-.26-.03.08-.02.06-.1-.13-.12l.15-.06-.38.05c-.26-.14-.7-.14-.8-.27,0,0-.58-.18-.74-.1.13-.04-.2-.14-.07-.2a1.4,1.4,0,0,1-.8-.12h.04c-.65-.24-1.17-.15-1.74-.4.01.1-.3-.03-.24.1-.64-.03-1.08-.48-1.38-.2-.3-.05-.32-.15-.46-.2h.07c-.34-.06-.53-.1-.72-.14.06-.1.06-.23.15-.24,0,0,.14-.22.06-.32.05.07.12-.05.18.02-.05-.1-.04-.3.07-.34v.02c.18-.24.07-.5.26-.7-.08-.02.01-.13-.1-.14,0-.3.4-.38.1-.6.03-.12.13-.1.17-.16l.01.03a2.134,2.134,0,0,1,.15-.45c0-.1-.14-.16-.05-.3.04.07.05.01.07-.05,0,.04.01.06.08,0a.169.169,0,0,1-.02-.05c.03-.1.01-.1-.01-.05-.01-.01-.02-.01-.04,0,.1-.06.1-.26.2-.23a7.41,7.41,0,0,0,.1-.75.1.1,0,0,1,.08.14l.04-.17c.07.03.01.1,0,.16.2-.14.03-.44.23-.6l-.04-.07h.01c-.03-.01-.05-.08-.05-.1.08-.01.15.06.2-.05.1-.06.06-.26.07-.38-.03.06-.06.02-.08-.01.02-.06.1-.06.08-.1l.1.03c-.1-.01-.03-.18-.06-.2.08-.01.02.1.07.14l.12-.33c-.02-.14-.1-.01-.15-.1.02-.1,0-.23.1-.33l-.1.01a.5.5,0,0,1,.2-.43c-.08-1.7-.75-.64-.75-.64-.4.5-.28.88-.48,1.6a6.783,6.783,0,0,0-.66,1.32c-.13.3-.2.62-.3.9.07.18-.15.38-.1.58l-.1.04c.01.07.01.14-.05.18l-.02-.01c.02.1-.05.18-.04.24l-.02-.01-.03.1-.02-.03a.876.876,0,0,1-.13.44l.1.02c-.2.25-.07.4-.28.63l-.02-.01c.1.4-.34.45-.27.86-.01-.05-.05,0-.07-.01-.04.16-.1.33.07.4-.01.02-.02.02-.03.03-.03-.01-.06-.01-.1-.02.1.01.12-.01-.05-.1a.359.359,0,0,1-.11.02c-.22-.05-.2-.02-.1.01-.01.01,0,.02.03.05-.2-.13-.64-.14-.64-.25-.66-.13-1.16-.12-1.72-.2-.05-.07.1-.1.25-.07l-.4-.07c.02-.08.23.01.36.02-.43-.23-.98-.1-1.5-.33l-.13.04-.03-.02c-.01.03-.14.05-.22.04-.06-.1.04-.16-.23-.2a3.3,3.3,0,0,0-.9-.13c.15.05.1.07.02.08-.14-.03-.2-.1-.3-.1l.01-.1c.03.1-.37.01-.43.04-.06-.1.22-.01.27-.05l-.8-.17c-.3,0,.03.1-.12.15a2.958,2.958,0,0,1-.8-.15l.07.1a2.691,2.691,0,0,1-1.08-.28c-.1,0-.2-.01-.3-.01.67-1.27,1.2-2.18,1.72-3.1Zm-6.85,13.9c2.04-3.4,2.57-5.43,4.55-9.73l.1-.22a26.525,26.525,0,0,0,3.6.67,33.261,33.261,0,0,0,3.34.9c.6.15,1.24.27,1.85.4a9.957,9.957,0,0,1-.78,2.13h-.1c-.12-.03.1.26-.02.24l.02.1c-.03.01-.07.05-.08,0-.03.07-.01.08,0,.15l-.1.05c-.17.27-.12.57-.27.86a3.3,3.3,0,0,0-.5,1.48c-.04.63-.77,1.1-.78,1.74-.02.01,0,.08.01.08l-.22.52s-1.03,2.52.7.98l.02.02a.837.837,0,0,0,.2-.7c.17.03.1-.23.2-.28h.01c-.06-.22.24-.32.2-.53.01.01.05.03.04.07.03-.13.06-.3.15-.3.1-.3.3-.7.2-.94l.02.02c-.06-.15.04-.14.03-.28.01,0,.02-.01.03,0-.05-.16.12-.35.1-.46l.06.02.08-.24-.05.08c-.16-.1.18-.13.13-.35.08-.15-.23-.46-.08-.6-.05-.1.1.12.1-.02.1.03.03.08.12.07,0-.13.16-.15.16-.32l.07.02c-.06-.23.23-.3.15-.48.02-.2.26-.05.2-.3l.12-.04c.05-.08-.1-.1-.01-.18.06.03.1-.1.13-.02.18-.18.04-.48.3-.7-.1-.1.03-.22-.04-.3.05.01.12-.28.17-.08,0,.02-.01.04-.03.03l.06.05c.2-.1.04-.32.12-.47-.04.04-.06.1-.1.04l.07-.14.05.05.12-.2h-.08c.08-.1.2-.08.16-.24-.04-.08-.14.06-.1-.06a3.819,3.819,0,0,0,.31-.42,1.7,1.7,0,0,0,.44.05l.14.1a.957.957,0,0,1,.44.08v.02c.22-.01.44.08.55.07l-.01.02.25.05-.05.02a4.98,4.98,0,0,1,1.06.2v-.1c.67.25.96.14,1.56.4l-.01.02c.84-.04,1.2.44,2.08.4-.1,0,.03.05.02.07.38.06.78.14.83-.02.27.06.2.1.23.18.02-.07.26-.05.47-.01l-.1.01.62.1-.1-.17c.32.1.04.2.36.22l.02-.12c.14.04.25.1.36.14a4.578,4.578,0,0,1-.46,1.6h-.1c-.13-.03.13.2.01.2l.04.08c-.03.01-.06.04-.08,0-.02.06,0,.07.02.12l-.1.04c-.13.22-.05.47-.16.7a2.127,2.127,0,0,0-.3,1.2c.04.52-.6.9-.55,1.43-.02.01,0,.06.02.07l-.15.42s-.7,2.07.82.8l.02.02a.5.5,0,0,0,.1-.56c.17.03.08-.2.15-.23h.01c-.08-.18.2-.26.13-.44.01.01.06.03.05.06.01-.1.02-.26.1-.23.05-.25.2-.57.1-.77l.02.02c-.08-.12.02-.12,0-.23.01,0,.02-.01.03,0-.07-.13.07-.28.05-.38l.07.01.04-.2-.04.07c-.17-.08.15-.1.08-.28.06-.12-.28-.38-.16-.48-.06-.1.12.1.08-.02.1.03.04.06.12.06-.01-.1.14-.13.12-.26l.07.02c-.08-.2.18-.26.1-.4-.01-.17.24-.04.15-.24l.12-.03c.04-.06-.1-.1-.03-.15.06.02.08-.08.12-.02.15-.15-.03-.4.2-.58-.1-.1,0-.18-.07-.25.05.01.08-.23.15-.06.01.01,0,.03-.02.03l.07.04c.17-.1,0-.26.06-.38-.04.03-.04.08-.08.04l.05-.12.05.04.1-.17h-.08c.05-.06.13-.07.14-.12a43.917,43.917,0,0,1,4.95,1.1l.05.1c0,.13.5-.08.54.05l.2-.01c.05.03.16.1.06.1a.642.642,0,0,0,.33.02l.18.12a13.262,13.262,0,0,0,1.5.3,1.107,1.107,0,0,1-.2.44l-.1-.01c-.12-.03.14.18.02.15l.04.07c-.03.01-.06.03-.08-.01-.02.04,0,.05.03.1l-.1.02c-.12.16-.02.36-.12.53-.23.17-.23.64-.23.9.07.4-.56.64-.47,1.06-.02.01.01.05.02.05l-.13.3s-.58,1.54.83.7l.02.02c.12-.15.18-.26.08-.43.17.04.07-.14.13-.16l.01.01c-.1-.15.18-.18.1-.33.01.01.06.03.05.05,0-.08,0-.2.1-.17.04-.2.17-.42.05-.6l.02.02c-.08-.1.01-.1-.01-.18h.03c-.08-.1.06-.2.03-.3l.06.02.03-.15-.03.05c-.17-.08.15-.07.07-.2.05-.1-.3-.32-.18-.4-.07-.08.12.1.08-.01.1.03.05.05.12.06-.02-.08.13-.08.1-.2l.07.02c-.1-.16.17-.18.07-.3-.02-.14.24-.01.14-.17l.1-.01c.03-.05-.1-.08-.04-.12.06.02.07-.06.12,0,.14-.1-.04-.3.17-.43-.1-.07-.02-.13-.08-.2a23.911,23.911,0,0,0,3.18.6c1.42.13,2.9,1,4.35,1.1.04.03.17.02.17,0l1.28.3s2.92.7,3.3.45c-.01.14-.01.27-.03.42a8.615,8.615,0,0,1-.38,1.72,2.385,2.385,0,0,1-.1.25,1.093,1.093,0,0,1-.06.11l-.06-.01c-.1-.02-.17-.04-.28-.06a3.659,3.659,0,0,0-1.2.1.756.756,0,0,1,.33.04l-.87-.06-.2-.15c-.05-.12-.46-.01-.85.07l.24-.07-.83.13c-.02-.01-.05-.01-.06-.02l-.55.1c-.18-.04-.48-.08-.2-.13a3.067,3.067,0,0,0-.83.07h-.13l-.5-.12a22.869,22.869,0,0,0-2.34-.01,12.78,12.78,0,0,0-1.44.04,1.086,1.086,0,0,0-.18.01c0-.08-.8-.14-.5-.25a11.12,11.12,0,0,1-2.95.06l.13-.01c-2.5-.18-4.3.14-6.55-.07.1.15-1.08.05-.8.24h-.12c-2.15.12-3.92-.36-4.82.05-.65-.03-1.3-.07-1.96-.12l.25-.03c-.2,0-.38,0-.55.01a45.188,45.188,0,0,0-6.65-.16.9.9,0,0,0-.46.06l-3.66-.07s-2.57-.04-5,.02c-.84-.05-1.7.01-2.6.04.36-.58.66-1.12.66-1.12Zm46.33,6.05a1.238,1.238,0,0,1-.96.77l-4.84.04-5.2.1c-3.46.07-6.86.1-10.02-.08l-.28-.15c-.12-.2-1.74.32-1.98.12l-.73.1c-.2-.04-.64-.08-.28-.13a5.064,5.064,0,0,0-1.2.1l-.73-.13c-2.68-.1-4.96.15-7.78.1-3.4-.28-9.77-.04-13.44.1-5.17.3-11.17-.55-16.46-.2a1.687,1.687,0,0,0-.6.06l-4.84-.04-4.36.02c-.12.06-.24-.06-.3-.15a1.176,1.176,0,0,1-.15-.26q-.079-.2-.14-.4a5.046,5.046,0,0,1-.14-1.8,3,3,0,0,1,.97-1.87c.44.34,3.9.52,3.9.52,5.26.38,7.98.01,14.25-.01,5.5.15,6.96.44,12.67.4,2.72.06,5.63.04,8.3.04,1.27-.2,3.5.04,5-.1l.58.13a6.431,6.431,0,0,1,1.64-.01l-.03.03c.77-.08,1.64-.01,2.02-.05l-.03.03h.93l-.16.05a34.505,34.505,0,0,1,3.94,0l-.1-.15c2.6.2,3.56-.1,5.9.13l-.03.03c2.98-.34,4.7.33,7.76,0-.38.04.16.08.13.1a9.77,9.77,0,0,0,2.88-.23c-.04.1.83.1.44.2a12.615,12.615,0,0,0,2.3,0c.3-.02.68.01,1-.04a.868.868,0,0,1,.07.1c.01-.03,0-.07.01-.1a.756.756,0,0,1,.15-.01.24.24,0,0,1-.03.22c-.05.06-.06.05.05.55l.2-.04a4.1,4.1,0,0,1-.25,1.9Z"/>
  </g>
</svg>
