<svg xmlns="http://www.w3.org/2000/svg" width="131.273" height="243.756" viewBox="0 0 131.273 243.756">
  <g id="_174" data-name="174" transform="translate(-177.276 -207.234)">
    <path id="Path_12312" data-name="Path 12312" d="M246.56,208.3Z"/>
    <path id="Path_12313" data-name="Path 12313" d="M307.5,444.2l-55.63-.45,55.43-.45a5.675,5.675,0,0,0-.94-2.5h.04a8.238,8.238,0,0,0-3.9-3.8l-1.7-.84c-7.36-3.84-29.3-13.56-29.3-13.56a1.658,1.658,0,0,0-1.23.36c-3.55-4.2-1.27-94.68-1.07-101.56.12-4.2-.02-10.6-.34-18.14,8-1.66,12.1-3.8,14.54-5.26a3.929,3.929,0,0,0,1.6-3.7c-1.6-6.2-4.5-21.7-10.1-49.5L267,208.3H195.3s-.8,27.6-5,50.7c-2,11.2-7.7,29.9-10.1,33.6a2.285,2.285,0,0,0,.4,2.9c2.43,2.2,7.65,5,18.65,7.1l-.15,7.2c-.4,5.7-9.1,36-10.8,56.5-2.3,27.7-6.7,59.5-7,61.6a19.235,19.235,0,0,0-1.38,4.5.958.958,0,0,0-.88.7,31.976,31.976,0,0,0-.4,4.8,28.961,28.961,0,0,0,.9,5.9v2.9a2.582,2.582,0,0,0,2.6,2.6l56.7-.1a2.582,2.582,0,0,0,2.6-2.6l-.1-2.4-55.63-.45,55.43-.45a5.675,5.675,0,0,0-.94-2.5h.04a8.238,8.238,0,0,0-3.9-3.8q-.846-.428-1.7-.84c-7.36-3.84-29.3-13.56-29.3-13.56a1.632,1.632,0,0,0-1.07.24c-.55-.56-1.02-1.03-1.37-1.34-1.8-2.7,24.8-89.2,27.6-103.6.5-2.5,1.5-6.8,2.9-12.25l2.43.04,2.17,18.4c.4,2.4,1.4,27.1,3.7,44.5,3.3,25.2,5.8,52.6,6.1,54.4a69.95,69.95,0,0,1-1.1,9.5,1.068,1.068,0,0,0-1.5.6,31.976,31.976,0,0,0-.4,4.8,28.961,28.961,0,0,0,.9,5.9v2.9a2.582,2.582,0,0,0,2.6,2.6l56.7-.1a2.582,2.582,0,0,0,2.6-2.6l-.1-2.4Z" fill="#fff"/>
    <path id="Path_12314" data-name="Path 12314" d="M214.12,303.86l.02.04C214.16,303.88,214.16,303.87,214.12,303.86ZM295.67,439.3h0l.07-.1Z"/>
    <path id="Path_12315" data-name="Path 12315" d="M308.27,443.67a.427.427,0,0,1-.2-.06v-.03l-.05-.4a4.921,4.921,0,0,0-.16-.8,2.322,2.322,0,0,1-.13.52,3.431,3.431,0,0,1-.08-.95c.02-.07.04-.16-.13-.54h.03c.1.02.05-.06.03-.1l-.06-.16-.23-.62.12-.1c.13.01-.1-.28-.34-.55-.26-.28-.52-.52-.45-.6l-.4-.4c-.05-.12-.2-.38.01-.18a2.016,2.016,0,0,0-.67-.6,3.077,3.077,0,0,0-.3-.47,7.518,7.518,0,0,0-2.6-1.58l-.56-.33-1.84-.92-.57-.3-4.85-2.23-2.22-1a13.384,13.384,0,0,0-2.72-1.28.435.435,0,0,0-.2-.07l-4.1-2-.2-.25c-.02-.25-1.75-.45-1.9-.73l-.72-.22c-.18-.12-.56-.34-.2-.23a4.349,4.349,0,0,0-1.14-.4l-.62-.43c-2.45-1.22-4.68-1.94-7.28-3.16l-1.27-.65a2.119,2.119,0,0,0-1.9-.1c0-.02-.01-.03-.01-.05-.12-.45-.2-.9-.28-1.33l-.35-2.36.07.38c-.42-3.17-.37-4.13-.6-7.72v-.4c-.27-3.5-.33-10.23-.4-13.06l.06-.18-.08-6.98v2.6c-.2-.9.07-5.28-.04-10.35.03-4.74-.35-9.62-.22-14.55-.06-2.35.12,2.07.1-1.44.1-.1.04,1.64.13.74-.01-3.45.16-5.65.15-9.9l.08-.17c-.06-5.55.26-10.46.2-14.16.05-5.72.3-3.83.27-9.8l.15-2.3c.07-2.55-.08-1.83.03-4.65.06.17.14-3.57.16-1.9.3-6-.04-12.2-.23-19.87a35.467,35.467,0,0,0,4.3-1.14c.44-.07.87-.16,1.3-.26l3.53-1.27-.06.06c1.6-.74,3.43-1.58,4.18-2.05l-.05.07c.32-.17.63-.36.94-.54a5.331,5.331,0,0,0,.54-.34,3.479,3.479,0,0,0,.53-.48,3.685,3.685,0,0,1-.32.37,5.282,5.282,0,0,0,1.5-2.44,4.4,4.4,0,0,0,.2-1.47c-.01-.14-.02-.27-.04-.4s-.047-.261-.08-.39l-.14-.54c-.36-1.43-.67-2.84-.93-4.18l-.1.25c-1.06-5.72-1.76-7.76-2.6-12.96l.05.06c-1.68-6.45-1.8-10.37-3.5-17.03.2.83,0-.37.05-.3-.66-3.1-1.34-6.4-1.63-6.4-.45-2.26-.28-1.86-.23-2.17a20.614,20.614,0,0,1-.93-3.67l.2.8-1.08-5.04v1.04c-.5-2.68.13-.74-.47-3.28l-.18.07c-.76-3.7-.94-5.93-1.57-9.54l-2.47-11.3-2.77-12.32c-.01-.04-.1-.01-.13-.02H267l-1.14.01-4.33.03-5.7.02q-5.485,0-10.97-.12l-.62-.15c-.27-.2-3.9.32-4.44.12l-1.65.1c-.46-.04-1.44-.08-.62-.13a24.041,24.041,0,0,0-2.65.1l-1.63-.13c-6-.1-11.1.15-17.42.1-2.55-.1-5.87-.12-9.45-.12l-12,.1-.16,6.03-.16,4.46c-.36,11.56-2.43,24.86-3.94,36.55q-.077.408-.13.82a4.55,4.55,0,0,0-.04.54q-.86,5.318-2.16,10.55s-.75,3.18-1.9,7.3c-1.13,4.13-2.64,9.22-3.93,13.05-.65,1.9-1.22,3.53-1.64,4.54-.4,1-.63,1.48-.34,1.27a12.15,12.15,0,0,0,2.05-3.37,106.235,106.235,0,0,0,4.07-10.18l-.03.27a96.8,96.8,0,0,0,3.52-13.35c.44-.56,1.12-4.77,1.43-6.13v.13c.44-3.6,1.45-7.35,1.72-10.84a3.311,3.311,0,0,1-.03,1.02c.32-2.53.7-6,.87-6.16.7-6.05,1.55-14.5,1.55-18.4l.03.27c-.02-2.23.2-2.87.25-5.35a1.946,1.946,0,0,1,.06-.28c-.01-2.42.38-7.05.38-9l.12-.12.06-1.9,1.47-.01-1.32-.02c.02-.08.2-.1.42-.1.4,0,.96.03,1.6.06a43.53,43.53,0,0,0,4.64.04c3.26.04,6.62-.64,10-.5,1.62-.14-1.42.23,1,.12.08.16-1.13.1-.5.23,2.37-.08,3.9.16,6.82.06l.12.12c3.82-.23,7.2.16,9.74-.05,3.94-.1,2.64.37,6.74.13l1.6.17c1.75.03,1.26-.2,3.2-.12-.12.1,2.46.08,1.32.2,4.4.17,8.93-.24,14.73.04,1.26-.2,4.18-.08,5.12-.24.08.04,1.54.05,2.57.07l.65.02c.06.01.1.02.1.03s-.01.02-.06.04a3.431,3.431,0,0,1-.7.06,2.8,2.8,0,0,1-.74-.02l-.4.12q.6.044,1.21.06c.2,0,.38.01.57.01h.05c.05-.01.06.01.07.05l.01.03a.5.5,0,0,1,.04.13l.14.54c.37,1.45.77,2.9,1.1,4.5-.17-.96-.45-2.2-.18-1.4l.63,2.97-.23-.6.9,4.44-.01-.64a40.046,40.046,0,0,0,1.06,5.4c.34,1.08-.28-2.1.26.2l2.1,10.97c.07-.37.28.62.53,1.64l-.1.14c1.02,3.88.04,1.5,1.02,5.35l-.16-.33.48.98c.98,3.47.14,1.95,1.26,5.8-.33-1.54.12-.78.45,1.13l-.2-.46c.24,1.05.36,1.4.47,2.1-.2-.62-.24-.3.1,1.25l-.36-1,.8,2.9c.33,2.3,1.2,5.84,1.22,6.8,0,0,.9,4.88,1.3,5.96-.3-.96.18,1.74-.1,1a53.17,53.17,0,0,1,1.38,6.46l-.07-.28c.96,5.55,2.07,9.4,2.97,14.38.1-.26.6,2.38.63,1.7l.48,1.87c.08.3.15.6.22.9a2.179,2.179,0,0,1,.06.3,3,3,0,0,1,0,.3,3.286,3.286,0,0,1-1.16,2.12,5.731,5.731,0,0,1-.51.29l-.57.32-1.04.57a8.881,8.881,0,0,0-1.52,1,15.327,15.327,0,0,1-2.25.85l-1.5.43c.17-.07.35-.13.52-.2a54.132,54.132,0,0,1-8.6,2.28,27.078,27.078,0,0,1-4.72,1.05c.92-.25-.26-.03-1.35.1.7-.1.9-.16-.54-.06-.2.06-.5.1-.8.16-.01-.01-.07-.01-.04-.02-1.82.25-1.5.25-.65.16-.04.02.03.03.3.03-1.9.13-5.3.5-5.54.35l-7.37.52-3.33.2-3.37.1c-.52-.1.56-.18,1.9-.22l-3.27.05a17.3,17.3,0,0,1,2.88-.12c-3.9-.17-8.02.2-12.58-.15l-.95.07-.27-.03a8.621,8.621,0,0,1-1.7.1c-.64-.15.06-.25-2.2-.37-1.78-.22-5.07-.22-7.4-.37,1.26.12.84.15.3.15-1.13-.1-1.76-.25-2.64-.27l-.07-.13c-.16.1-3-.18-3.4-.16-.63-.18,1.75.08,2.04.02-4.5-.46-2.26-.2-6.74-.77-2.4-.2.4.2-.75.2a66.163,66.163,0,0,1-6.57-1.07l.73.28a44,44,0,0,1-8.82-2.2,35.176,35.176,0,0,1-8.24-3.2,14.7,14.7,0,0,1-1.3-.84,5.587,5.587,0,0,1-1.05-.87,2.79,2.79,0,0,1-.56-2.1,2.936,2.936,0,0,1,.22-.77l.2-.45a1.1,1.1,0,0,0,.13-.42c-.02-.1-.25.1-.6.52a3.167,3.167,0,0,0-.4,3,3.014,3.014,0,0,0,.47.86,3.074,3.074,0,0,0,.34.38l.28.25a10.723,10.723,0,0,0,1.12.92c.74.58,1.5,1,2,1.33l.88.47a40.16,40.16,0,0,0,7.66,2.98,69.1,69.1,0,0,0,7.05,1.6c-.05,3.1-.1,6.58-.32,6.82-.76,4.62-1.76,8.6-2.56,12.37l-2.46,11.22c-.24.86.1-.96.6-3.2l-1.2,5.48a15.8,15.8,0,0,1,.34-1.8l.67-3.03c-1.6,6.48-2.83,13.47-4.27,21.17l-.2,1.6-.08.46a8.761,8.761,0,0,1-.1,1l-.25,1.88a17.031,17.031,0,0,0-.66,3.75c-.45,3.05-.78,8.68-1.13,12.67.2-2.15.2-1.45.12-.52l-.47,4.52-.1.14c.04.27-.43,5.14-.47,5.8-.18,1.1.25-3,.24-3.48l-1.22,11.58c-.4,4.12.17-.74.03,1.24l-1.3,11.35.24-1.3c-.76,6.83-1.3,10.9-1.97,15.5l-1.02,8.5a2.432,2.432,0,0,1-.26.87q-.175.412-.31.84c-.2.55-.34,1.1-.48,1.64-.04.16-.06.3-.1.47a2.14,2.14,0,0,0-1.02.12,2,2,0,0,0-1.02.8,1.817,1.817,0,0,0-.18.37c-.05.14-.08.3-.1.32-.02.1-.05.2-.07.3-.17.8-.27,1.5-.27,1.5a18.429,18.429,0,0,0-.25,3.85,21.537,21.537,0,0,0,.5,3.37c.06.27.13.55.2.83l.16.64.2.78c.07.25.15.5.23.77a2.173,2.173,0,0,0,.26.01c.02.3.04.44.07.66a2.7,2.7,0,0,0,.24,1c.1.12.2-.02.35-.5.08-.26.17-.73.27-1.2l1.13-.03,4.2-.16c5.6.02,7.1.28,12.92.13,2.78,0,5.74-.1,8.45-.14a31.082,31.082,0,0,1,3.53-.13,4.417,4.417,0,0,0,1.02-.03,3.657,3.657,0,0,0,.66-.04l.47.1a8.459,8.459,0,0,1,1.67-.05l-.03.04c.78-.1,1.67-.05,2.06-.1l-.03.04h.48l.35.03-.04.01a1.847,1.847,0,0,1,.23-.01,5.53,5.53,0,0,0,.56-.02l.04.12c1.4-.22,2.65.2,3.6-.02,1.45-.1.97.38,2.48.15l.6.17c.65.03.46-.2,1.18-.12-.04.1.9.1.48.2,1.62.18,3.3-.2,5.42.1.47-.2,1.54-.07,1.9-.22.06.1,2.15.03.94.22-.1.02-.3.01-.27-.02l-.15.12a19.542,19.542,0,0,0,3.42-.06c-.36-.04-.83-.04-.5-.12l1.12.03-.23.1,1.67.07-.23-.13c.4.04.68.1.97.15a1.794,1.794,0,0,0,.22.02c.07.01.04.01.06.01s.05-.02.12-.07c.18-.1-.13-.17.16-.2q.054.017.11.03c-.02.1-.03.2-.05.3l-.03.12c0,.16-.01.3-.01.47a3.958,3.958,0,0,1-.05.8,1.69,1.69,0,0,1-.2.5c.16,0,.06.2-.08.4l-.1-.06c-.25.36-.4.3-.48.28-.1-.05-.16-.05-.54.04l.06-.1a.692.692,0,0,1-.27.27c-1.32.25-.7-.26-2.18.08.58-.02.27.27-.44.22l.18-.12a4.082,4.082,0,0,1-.8.05c.24-.07.12-.17-.46-.15l.4-.15-1.1.22c-.85-.13-2.2.04-2.55-.13a10.31,10.31,0,0,0-2.25.1c.37-.12-.64-.16-.35-.3a7.257,7.257,0,0,1-2.43.1l.1-.02c-2.07-.14-3.54.2-5.4.03.08.14-.9.07-.65.25-1.92.2-3.5-.37-4.2.2a7.082,7.082,0,0,1-1.5-.16l.2-.03c-1.64.05-2.1.06-3.33.04a5.609,5.609,0,0,1-1.8.26c.35-.1-.1-.1-.5-.08.26-.02.34-.06-.2-.13a2.217,2.217,0,0,1-.3.07c0-.01-.03-.01-.01-.03-.68.04-.56.07-.25.1-.02.02.01.04.1.07-.7-.13-1.97.01-2.05-.17-2.04.05-3.5.24-5.2.3-.2-.1.2-.18.7-.2l-1.2.04c.01-.13.7-.08,1.06-.1-1.44-.2-2.96.22-4.65.03l-.35.1-.1-.02c.01.06-.37.13-.62.15-.24-.12.02-.27-.82-.26a16.612,16.612,0,0,0-2.74.12c.47.02.32.08.1.13a9.449,9.449,0,0,0-.98-.06l-.04-.16c.16.15-1.1.16-1.24.23-.24-.12.65-.1.75-.2l-2.5.03c-.9.12.16.15-.26.3a16.545,16.545,0,0,1-2.46.05l.3.14a15.191,15.191,0,0,1-3.36-.04,10.343,10.343,0,0,1-1.82.13,2.68,2.68,0,0,1-1.32-.54,3.256,3.256,0,0,1-1.1-1.6c-.23-.83-.37-.7-.5-.33a2.541,2.541,0,0,0,.01,1.1,3.45,3.45,0,0,0,.58,1.3,3.9,3.9,0,0,0,.88.86,3.4,3.4,0,0,0,.45.26,3.881,3.881,0,0,0,1.12.37c.18.03.4.04.54.05s.25.01.37.01l1.4.03c.9,0,1.75-.02,2.62-.06l6.18-.27c4.54.06,5.75.33,10.45.2,2.24.02,4.64-.05,6.83-.1,1.04-.2,2.88-.01,4.1-.2l.48.12a5.079,5.079,0,0,1,1.35-.04l-.03.03c.63-.1,1.35-.04,1.67-.1l-.03.04.77-.02-.13.05a23.82,23.82,0,0,1,3.25-.06l-.08-.15c2.15.16,2.93-.14,4.87.05l-.03.04c2.45-.4,3.87.25,6.4-.1-.3.05.14.07.1.1,1.16-.04,2.4-.07,2.42-.35.85,0,.7.1.8.2,0-.12.73-.18,1.4-.2l-.3.05,1.93-.05a2.11,2.11,0,0,1-.4-.23c.5.04.65.08.7.13.08.04.17.1.74-.12l-.08-.18a3.84,3.84,0,0,0,1.77-1.29,3.074,3.074,0,0,0,.5-.97,3.326,3.326,0,0,0,.13-.6q.026-.254.04-.51c-.04-.98-.28-1.47-.32-2.46a.427.427,0,0,1-.2-.06v-.03l-.05-.4a4.923,4.923,0,0,0-.16-.8,2.322,2.322,0,0,1-.13.52,3.432,3.432,0,0,1-.08-.95c.02-.07.04-.16-.13-.54h.03c.1.02.05-.06.03-.1l-.06-.16c-.08-.2-.15-.4-.23-.62l.12-.1c.13.01-.1-.28-.34-.55-.26-.28-.52-.52-.45-.6-.14-.14-.26-.27-.4-.4-.05-.12-.2-.38.01-.18a2.016,2.016,0,0,0-.67-.6,3.077,3.077,0,0,0-.3-.47,7.517,7.517,0,0,0-2.6-1.58c-.2-.1-.37-.23-.56-.33-.25-.13-.5-.25-.76-.38-.33-.18-.7-.36-1.08-.54-.2-.1-.38-.2-.57-.3-1.6-.77-3.24-1.5-4.85-2.23l-2.22-1a13.385,13.385,0,0,0-2.72-1.28.435.435,0,0,0-.2-.07q-2.07-.963-4.1-2.01l-.2-.25c-.02-.25-1.75-.45-1.9-.73l-.72-.22c-.18-.12-.56-.34-.2-.23a4.349,4.349,0,0,0-1.14-.4l-.62-.43c-2.45-1.22-4.68-1.94-7.28-3.16-.38-.2-.8-.43-1.27-.65a2.215,2.215,0,0,0-2.03-.06l-.18-.18-.4-.38a.131.131,0,0,1-.06-.12,6.931,6.931,0,0,1,.05-.95l.16-1.06c.24-1.43.56-2.86.88-4.25l3.44-13.92-.1.45c.9-3.68,1.27-4.74,2.35-8.83l.15-.46c1-4,3.24-11.6,4.1-14.82l.12-.2,2.24-7.9-.86,2.95c.12-1.07,1.82-5.95,3.34-11.7,1.56-5.36,2.75-10.98,4.4-16.54.67-2.68-.53,2.38.53-1.6.13-.1-.47,1.87-.1.87l3.17-11.22.13-.18,2.33-8.85c.73-2.7,1.25-5.23,1.65-7.34,1.24-5.52,1.26-4.84,2.18-8.57l1.9.04.6,5.13c.3,2.38.5,2.73.96,7-.22-1.37-.01.37.17,1.97-.13-1.02-.2-1.33.01.77q.1.584.18,1.17c0,.02,0,.1-.01.06.32,2.64.3,2.15.16.96.02.06.02-.05-.01-.43.25,2.72.57,7.72.5,8.05l1.62,20.5c.01.76-.18-.8-.35-2.75l.4,4.75c-.08-.03-.28-2.72-.4-4.2.32,5.67,1.12,11.65,1.85,18.27l.24,1.36.04.4a5.683,5.683,0,0,1,.16.84l.24,1.6a13.938,13.938,0,0,0,.24,3.22c.26,2.6.92,7.34,1.35,10.72-.2-1.83-.1-1.24.02-.46l.4,3.84-.06.13c.1.2.57,4.35.66,4.9.03.94-.34-2.53-.44-2.93l1.1,9.84c.44,3.5.02-.65.28,1.02l1.03,9.66-.03-1.13.8,7.3.3,3,.15,1.44q-.031.721-.09,1.44c-.15,2.66-.45,5-.75,7.08a2.143,2.143,0,0,0-1.5-.02,2,2,0,0,0-1.02.8,1.817,1.817,0,0,0-.18.37c-.05.14-.08.3-.1.32-.02.1-.05.2-.07.3-.17.8-.27,1.5-.27,1.5a18.429,18.429,0,0,0-.25,3.85,21.537,21.537,0,0,0,.5,3.37c.06.27.13.55.2.83l.16.64.2.78c.07.25.15.5.23.77a2.173,2.173,0,0,0,.26.01c.02.3.04.44.07.66a2.7,2.7,0,0,0,.24,1c.1.12.2-.02.35-.5.08-.26.17-.73.27-1.2l1.13-.03,4.2-.16c5.6.02,7.1.28,12.92.13,2.78,0,5.74-.1,8.45-.14a31.082,31.082,0,0,1,3.53-.13,4.417,4.417,0,0,0,1.02-.03,3.657,3.657,0,0,0,.66-.04l.47.1a8.459,8.459,0,0,1,1.67-.05l-.03.04c.78-.1,1.67-.05,2.06-.1l-.03.04.48-.01.35.03-.04.01a1.847,1.847,0,0,1,.23-.01,5.53,5.53,0,0,0,.56-.02l.04.12c1.4-.22,2.65.2,3.6-.02,1.45-.1.97.38,2.48.15l.6.17c.65.03.46-.2,1.18-.12-.04.1.9.1.48.2,1.62.18,3.3-.2,5.42.1.47-.2,1.54-.07,1.9-.22.06.1,2.15.03.94.22-.1.02-.3.01-.27-.02l-.15.12a19.542,19.542,0,0,0,3.42-.06c-.36-.04-.83-.04-.5-.12l1.12.03-.23.1,1.67.07-.23-.13c.4.04.68.1.97.15a1.794,1.794,0,0,0,.22.02c.07.01.04.01.06.01s.05-.02.12-.07c.18-.1-.13-.17.16-.2.03.01.07.02.1.03-.02.1-.03.2-.05.3l-.03.12c0,.16-.01.3-.01.47a3.96,3.96,0,0,1-.05.8,1.689,1.689,0,0,1-.2.5c.16,0,.06.2-.08.4l-.1-.06c-.25.36-.4.3-.48.28-.1-.05-.16-.05-.54.04l.06-.1a.692.692,0,0,1-.27.27c-1.32.25-.7-.26-2.18.08.58-.02.27.27-.44.22l.18-.12a4.082,4.082,0,0,1-.8.05c.24-.07.12-.17-.46-.15l.4-.15-1.1.22c-.85-.13-2.2.04-2.55-.13a10.31,10.31,0,0,0-2.25.1c.37-.12-.64-.16-.35-.3a7.257,7.257,0,0,1-2.43.1h.1c-2.07-.14-3.54.2-5.4.03.08.14-.9.07-.65.25-1.92.2-3.5-.37-4.2.2a7.082,7.082,0,0,1-1.5-.16l.2-.03c-1.64.05-2.1.06-3.33.04a5.609,5.609,0,0,1-1.8.26c.35-.1-.1-.1-.5-.08.26-.02.34-.06-.2-.13a2.217,2.217,0,0,1-.3.07c0-.01-.03-.01-.01-.03-.68.04-.56.07-.25.1-.02.02.01.04.1.07-.7-.13-1.97.01-2.05-.17-2.04.05-3.5.24-5.2.3-.2-.1.2-.18.7-.2l-1.2.04c.01-.13.7-.08,1.06-.1-1.44-.2-2.96.22-4.65.03l-.35.1-.1-.02c.01.06-.37.13-.62.15-.24-.12.02-.27-.82-.26a16.612,16.612,0,0,0-2.74.12c.47.02.32.08.12.13a9.449,9.449,0,0,0-.98-.06l-.04-.16c.16.15-1.1.16-1.24.23-.24-.12.65-.1.75-.2l-2.5.03c-.9.12.16.15-.26.3a16.545,16.545,0,0,1-2.46.05l.3.14a15.191,15.191,0,0,1-3.36-.04,10.343,10.343,0,0,1-1.82.13,2.68,2.68,0,0,1-1.32-.54,3.256,3.256,0,0,1-1.1-1.6c-.23-.83-.37-.7-.5-.33a2.541,2.541,0,0,0,.01,1.1,3.45,3.45,0,0,0,.58,1.3,3.9,3.9,0,0,0,.88.86,3.393,3.393,0,0,0,.45.26,3.879,3.879,0,0,0,1.12.37c.18.03.4.04.54.05s.25.01.37.01l1.4.03c.9,0,1.75-.02,2.62-.06l6.18-.27c4.54.06,5.74.33,10.45.2,2.24.02,4.64-.05,6.83-.1,1.04-.2,2.88-.01,4.1-.2l.48.12a5.079,5.079,0,0,1,1.35-.04l-.03.03c.63-.1,1.35-.04,1.66-.1l-.03.04.77-.02-.13.05a23.83,23.83,0,0,1,3.25-.06l-.08-.15c2.15.16,2.93-.14,4.87.05l-.03.04c2.45-.4,3.87.25,6.4-.1-.3.05.14.07.1.1,1.16-.04,2.4-.07,2.42-.35.85,0,.7.1.8.2-.01-.12.73-.18,1.4-.2l-.3.05,1.93-.05a2.11,2.11,0,0,1-.4-.23c.5.04.65.08.7.13.08.04.17.1.74-.12l-.08-.18a3.84,3.84,0,0,0,1.77-1.29,3.57,3.57,0,0,0,.51-.97,3.326,3.326,0,0,0,.13-.6q.026-.254.04-.51c-.05-1.14-.3-1.64-.33-2.63Zm-92.33-15.24a9.261,9.261,0,0,0,.2-.94q.163.079.33.15a13.711,13.711,0,0,0,2.04,1.8l-.07.02a7.053,7.053,0,0,0,2.53,1.08c-.01.32.87.44,1.08.64l-.03.01c.75.1,1.27.8,1.98.92a.22.22,0,0,1-.23.01c.47.18,1.13.42,1.1.6a17.094,17.094,0,0,0,3.43,1.35l-.07.02c.48.03.53.22,1.02.35.01.03.04.06.03.06a11.173,11.173,0,0,1,1.67.67l-.03.1.88.4-.3-.17c.25-.22.57.48,1.3.6.57.3,1.48-.01,2.02.4.36.01-.36.1.12.2-.06.15-.25-.01-.2.16.46.13.63.48,1.2.63l-.03.12c.78.12,1.08.8,1.57.9.3.18.36.35.37.46s-.04.14.2.2a.375.375,0,0,1-.12.13c.02.07.32.04.3.16-.16-.02-.04.1-.24.02-.04.03-.03.06.01.1.02.03.17.15.1.15-.02.04-.2.07-.44-.08.08.2-.16.08-.2.23-.02-.1-1.17-.04-.5-.22.06-.01.16-.01.15.03l.08-.12c-.66-.25-1.2.1-1.86.05.2.04.45.04.28.12l-.6-.03.13-.1-.9-.08.12.13c-.44-.08-.6-.3-1.1-.13-.23.1.42.18-.05.2-.6-.1-1.47-.25-2.23-.3.07.15-.14.14-.35.16l-.02-.13c-.8.15-.3-.28-1.1-.16l-.14.17c-.72.23-.38-.27-1.2.05.32-.01.14.28-.24.2l.1-.12c-.22.02-.3.07-.43.04.13-.06.07-.17-.24-.16l.2-.15-.6.2c-.46-.14-1.2.01-1.38-.17,0,0-1-.1-1.22.08.2-.1-.34-.17-.2-.3a2.36,2.36,0,0,1-1.32.07h.06c-1.12-.17-1.92.16-2.92-.04.04.15-.5.05-.36.24-1.05.16-1.88-.43-2.27.12-.47.01-.55-.16-.8-.2l.1-.02c-.88,0-1.14-.01-1.78-.06-.33.03-.4.3-.97.18.2-.1-.04-.1-.26-.1.14,0,.2-.04-.1-.14a.38.38,0,0,1-.17.05c0-.01-.01-.02-.01-.03-.36,0-.3.04-.14.07-.01.02,0,.04.05.07-.36-.17-1.04-.12-1.05-.3l-.76-.08a1.836,1.836,0,0,1-.46-.06.91.91,0,0,1-.6-.58c.08-.08.18.04.27.16a.967.967,0,0,1-.12-.35c.13,0,.1.2.17.28.08-.4-.3-.78.6-1.37l.06-.2.05-.03c-.04-.04.05-.24.13-.35.17-.01.2.2.5-.14a4.557,4.557,0,0,0,.94-1.2c-.2.18-.18.08-.14-.03.15-.18.32-.2.4-.38l.14.08c-.17-.02.26-.58.26-.7.17-.03-.14.35-.1.45.56-.75.28-.37.83-1.15.18-.5-.17-.01-.16-.3a8.124,8.124,0,0,1,.67-1.2l-.2.07a6.131,6.131,0,0,1,.85-1.65,8.59,8.59,0,0,0,.2-2.03l.14.1c.02.03.03.03.03.04Zm-10.28-5.46c.73.17-.7-.05.36.3-.03.16-.5-.12-.3.1,1.02.37,1.55.87,2.8,1.3v.14c1.68.5,2.92,1.5,4.07,1.77,1.53.6,1.06.8,2.33,1.24l-.15.3-.24.54c-.47.97-.8,1.7-1.14,2.5a12.012,12.012,0,0,1-1.58,2.7,19.062,19.062,0,0,1-2,1.85,3.335,3.335,0,0,0-1.1,1.48,2.8,2.8,0,0,0,.56,2.77,2.87,2.87,0,0,0,1.38.9,7.75,7.75,0,0,0,1.1.2c.66.1,1.3.14,1.92.18.6-.15,1.6.13,2.3-.02l.26.13a1.429,1.429,0,0,1,.74,0l-.02.03a8.98,8.98,0,0,1,.9-.05l-.02.03h.42l-.07.05a7.5,7.5,0,0,1,1.77-.01l-.04-.15c1.17.2,1.6-.1,2.65.1l-.02.03c1.34-.35,2.1.3,3.47-.02-.17.04.07.08.06.1.63-.03,1.3-.03,1.32-.32.46.01.37.1.43.2,0-.13.4-.17.76-.17l-.17.04,1.03-.02-.2-.24c.54.08.13.3.66.25V441a12.657,12.657,0,0,1,1.92.52c1.52.08,3.1.01,4.64-.03l.58-.01h.72l1.72.02a.224.224,0,0,1,.03.1,2.268,2.268,0,0,1,.16,1.3c-.5.03-16.22.15-18.52,0,.1.14-2.8-.16-2.5.02-2.37.2-3.3-.8-4.17-.22a9.724,9.724,0,0,1-1.84-.15l.26-.03-4.12.07a8.358,8.358,0,0,1-2.2.27c.43-.1-.12-.08-.62-.08.32-.02.42-.06-.24-.12a3.067,3.067,0,0,1-.37.07c-.01-.01-.03-.01-.02-.03-.84.04-.7.08-.3.1-.02.02.01.04.13.06a21.676,21.676,0,0,1-2.54-.15c-2.53.06-4.33.26-6.43.35-.24-.1.25-.18.86-.22l-1.5.05c.01-.13.86-.08,1.32-.1-1.78-.2-3.66.25-5.74.06l-.43.1-.12-.02c.01.06-.46.14-.77.16-.3-.1.02-.27-1-.25a23.925,23.925,0,0,0-3.38.15c.58.02.4.08.14.12-.52.01-.8-.1-1.2-.05l-.05-.16c.2.15-1.35.17-1.54.24-.3-.1.8-.1.93-.2l-3.1.05c-.28.06-.3.1-.22.14.06.04.2.08-.01.15l-.53.04c-.07-.14-.1-.32-.17-.5l-.07-.27c-.03-.12-.05-.25-.08-.37a4.07,4.07,0,0,1-.1-.8l-.07.37a11.632,11.632,0,0,1-.42-4.08c-.13-1.68-.1-3.02-.1-4.04.01-.26,0-.48.02-.72a1.034,1.034,0,0,1,.37-.66,1.756,1.756,0,0,1,.84-.4l-.1.44a.58.58,0,0,1,.24.1c.12.07.28.15.42.22.02-.14.05-.27.08-.4a4.229,4.229,0,0,0,1.38,1.13,17.989,17.989,0,0,0,4.7,2l-.13.02a17.29,17.29,0,0,0,3.56.44,12.789,12.789,0,0,0,1.52-.08,13.381,13.381,0,0,0,1.42-.35c.36.26,2.24-.44,2.88-.54l-.05.04c1.56-.66,3.37-.92,4.78-1.7a.734.734,0,0,1-.4.27c.26-.12.55-.25.84-.37s.6-.25.6-.25c.1-.01.13.02.27.07s.2.13.2.17a16.05,16.05,0,0,1,1.88.92l.5.3.88.52a6.774,6.774,0,0,0,1.63.83,2.606,2.606,0,0,0,1.14.13,2.122,2.122,0,0,0,1.06-.42,3.206,3.206,0,0,0,.97-1.22l.04-.1c0-.03-.03-.05-.04-.07l-.1-.13.1.1c-.3-.4-.48-.64-.63-.88l-.24-.4a8.563,8.563,0,0,0-.83-.7c-.04-.06-.12-.15-.1-.14q-.623-.447-1.21-.94l-.95-.8c-.6-.5-1.14-1.02-1.5-1.28l.03-.12c-.28-.24-.58-.48-.76-.66a2.759,2.759,0,0,1-.5-.69,4.174,4.174,0,0,0,.32.55c-.2.01-.38-.3-.48-.75a6.751,6.751,0,0,1-.04-1.72,7,7,0,0,1,.54-1.9c.27-.52,1-1.07,1.62-.57Zm26.8-115.78-.75,2.7-.9,3.68-.8,3.62c-.47,2.37-1.03,4.67-1.62,7-1.18,4.66-2.46,9.37-3.92,14.56l-14,49.52-4.04,14.8c-1.35,5.08-2.8,10.24-3.87,15.56-.12.67-.24,1.34-.3,2.07a3.516,3.516,0,0,0,.01.64,1.141,1.141,0,0,0,.4.72c.14.13.27.26.4.4a4.188,4.188,0,0,0-.96,1.5,6.386,6.386,0,0,0-.44,2.2,4.43,4.43,0,0,0,.62,2.33,5.808,5.808,0,0,0,1.5,1.54l2.43,1.93q.393.261.76.56l.37.3.17.15c.05.02.03.06-.01.1a.874.874,0,0,0-.08.1.794.794,0,0,1-.92.2,5.4,5.4,0,0,1-.75-.53l-.15-.1-.03-.03-.1-.07-.23-.15-.95-.57c-.32-.18-.65-.36-1-.53-.17-.08-.37-.16-.57-.24a3,3,0,0,0-.84-.18,2.254,2.254,0,0,0-.9.17l-.53.2-.96.4-1.85.8a1.838,1.838,0,0,0-.56.26,30.12,30.12,0,0,1-4.63,1.15l-.92.13a21.757,21.757,0,0,1-2.3,0,25.821,25.821,0,0,1-5.87-1.1,16.952,16.952,0,0,0-2.64-.8l.03-.15a.743.743,0,0,0,.22.05.379.379,0,0,0,.23-.01c.07-.05-.01-.18-.2-.36-.05-.03-.1-.06-.16-.1.02-.07.03-.15.05-.2.24-.93.44-1.5.44-1.5l.3-.84.4-.9a.85.85,0,0,0,.04-.22v-.12l.03-.23.07-.45.13-.9.5-3.44.86-6.45,1.47-12.1,2.95-28.57,1.3-13.33c.5-3.78,1-7.1,1.62-10.4,1.2-6.64,2.6-13.34,5.02-24,1.15-5.1,2.45-10.3,3.47-15.6a21.6,21.6,0,0,0,.42-4.1c.05-1.35.04-2.67.07-4v-.18c4.4.73,9.2,1.26,15.65,1.76,6.17.55,10.08.77,14.05.98l2.83.1-.06.3ZM282.1,428.43a9.264,9.264,0,0,0,.2-.94q.163.079.33.15a13.711,13.711,0,0,0,2.04,1.8l-.07.02a7.053,7.053,0,0,0,2.53,1.08c-.01.32.87.44,1.08.64l-.03.01c.75.1,1.27.8,1.98.92a.22.22,0,0,1-.23.01c.47.18,1.13.42,1.1.6a17.094,17.094,0,0,0,3.43,1.35l-.07.02c.48.03.53.22,1.02.35.01.03.04.06.03.06a11.174,11.174,0,0,1,1.67.67l-.03.1.88.4-.3-.17c.25-.22.57.48,1.3.6.57.3,1.48-.01,2.02.4.36.01-.36.1.12.2-.06.15-.25-.01-.2.16.46.13.63.48,1.2.63l-.03.12c.78.12,1.08.8,1.57.9.3.18.36.35.37.46s-.04.14.2.2a.375.375,0,0,1-.12.13c.02.07.32.04.3.16-.16-.02-.04.1-.24.02-.04.03-.03.06.01.1.02.03.17.15.1.15-.02.04-.2.07-.44-.08.08.2-.16.08-.2.23-.02-.1-1.17-.04-.5-.22.06-.01.16-.01.15.03l.08-.12c-.66-.25-1.2.1-1.86.05.2.04.45.04.28.12l-.6-.03.13-.1-.9-.08.12.13c-.44-.08-.6-.3-1.1-.13-.23.1.42.18-.05.2-.6-.1-1.47-.25-2.23-.3.07.15-.14.14-.35.16l-.02-.13c-.8.15-.3-.28-1.1-.16l-.14.17c-.72.23-.38-.27-1.2.05.32-.01.14.28-.24.2l.1-.12c-.22.02-.3.07-.43.04.13-.06.07-.17-.24-.16l.2-.15-.6.2c-.46-.14-1.2.01-1.38-.17,0,0-1-.1-1.22.08.2-.1-.34-.17-.2-.3a2.36,2.36,0,0,1-1.32.07h.06c-1.12-.17-1.92.16-2.92-.04.04.15-.5.05-.36.24-1.05.16-1.88-.43-2.27.12-.47.01-.55-.16-.8-.2l.1-.02c-.88,0-1.14-.01-1.78-.06-.33.03-.4.3-.97.18.2-.1-.04-.1-.26-.1.14,0,.2-.04-.1-.14a.38.38,0,0,1-.17.05c0-.01-.01-.02-.01-.03-.36,0-.3.04-.14.07-.01.02,0,.04.05.07-.36-.17-1.04-.12-1.05-.3l-.76-.08a1.835,1.835,0,0,1-.46-.06.91.91,0,0,1-.6-.58c.08-.08.18.04.27.16a.967.967,0,0,1-.12-.35c.13,0,.1.2.17.28.08-.4-.3-.78.6-1.37l.06-.2.05-.03c-.04-.04.05-.24.13-.35.17-.01.2.2.5-.14a4.557,4.557,0,0,0,.94-1.2c-.2.18-.18.08-.14-.03.15-.18.32-.2.4-.38l.14.08c-.17-.02.26-.58.26-.7.17-.03-.14.35-.1.45.56-.75.28-.37.83-1.15.18-.5-.17-.01-.16-.3a8.122,8.122,0,0,1,.67-1.2l-.2.07a6.131,6.131,0,0,1,.85-1.65,8.591,8.591,0,0,0,.2-2.03l.14.1a.186.186,0,0,0,.03.04Zm-33.84-.82c.12-.96.22-1.9.3-2.85l.07-1.4.01-.4-.05-.43-.08-.64-1.1-10.3-2.77-24.26c-1.96-17.84-2.9-22.5-4.3-41l-1.38-20.32c-.18-2.3-.5-4.5-.74-6.64-.45-3.12-.97-8.08-1.5-12.4q3.7.033,7.4-.06a149.658,149.658,0,0,0,18.65-1.42c1.47-.3,3.54-.64,5.65-1.06.23,5.73.35,11.33.22,16.7l-.1.9c-.14.4.05,5.68-.1,6.46v2.4c-.04.67-.1,2.1-.1.9l-.03,3.86-.13,2.37-.34,25.33c-.3,11.03-.25,31.8.26,43.77.2,4.2.34,8.58.93,13.06.08.56.18,1.12.32,1.7q.043.182.1.36a4.194,4.194,0,0,0-1.18,1.67,6.385,6.385,0,0,0-.44,2.2,4.43,4.43,0,0,0,.62,2.33,5.809,5.809,0,0,0,1.5,1.54l2.43,1.93q.393.261.76.56l.37.3.17.15c.05.02.03.06-.01.1a.874.874,0,0,0-.08.1.794.794,0,0,1-.92.2,5.4,5.4,0,0,1-.75-.53l-.15-.1-.03-.03-.1-.07-.23-.15-.95-.57c-.32-.18-.65-.36-1-.53-.17-.08-.37-.16-.57-.24a3,3,0,0,0-.84-.18,2.254,2.254,0,0,0-.9.17l-.53.2-.96.4-1.85.8a1.838,1.838,0,0,0-.56.26,30.12,30.12,0,0,1-4.63,1.15l-.92.13a21.757,21.757,0,0,1-2.3,0,25.821,25.821,0,0,1-5.87-1.1c-.84-.25-1.53-.5-2-.66.3-1.57.55-3.13.75-4.64Zm-3.28,6.12c.01-.26,0-.48.02-.72a1.034,1.034,0,0,1,.37-.66,1.65,1.65,0,0,1,1.05-.41,1.2,1.2,0,0,1,.33.05l-.07.5a.031.031,0,0,1,.02.01q.361.2.73.39a8.152,8.152,0,0,0,.81.57,17.989,17.989,0,0,0,4.7,2l-.13.02a17.29,17.29,0,0,0,3.56.44,12.788,12.788,0,0,0,1.52-.08,13.382,13.382,0,0,0,1.42-.35c.36.26,2.24-.44,2.88-.54l-.05.04c1.56-.66,3.37-.92,4.78-1.7a.734.734,0,0,1-.4.27c.26-.12.55-.25.84-.37s.6-.25.62-.25c.1-.01.13.02.27.07s.2.13.2.17a16.05,16.05,0,0,1,1.88.92l.5.3.88.52a6.774,6.774,0,0,0,1.63.83,2.606,2.606,0,0,0,1.14.13,2.122,2.122,0,0,0,1.06-.42,3.207,3.207,0,0,0,.97-1.22l.04-.1c0-.03-.03-.05-.04-.07l-.1-.13.1.1c-.3-.4-.48-.64-.63-.88l-.24-.4a8.564,8.564,0,0,0-.83-.7c-.04-.06-.12-.15-.1-.14q-.623-.447-1.21-.94l-.95-.8c-.6-.5-1.14-1.02-1.5-1.28l.03-.12c-.28-.24-.58-.48-.76-.66a2.759,2.759,0,0,1-.5-.69,4.174,4.174,0,0,0,.32.55c-.2.01-.38-.3-.48-.75a6.752,6.752,0,0,1-.04-1.72,7,7,0,0,1,.54-1.9c.28-.56,1.02-1.1,1.64-.6.73.17-.7-.05.36.3-.03.16-.5-.12-.3.1,1.02.37,1.55.87,2.8,1.3v.14c1.68.5,2.92,1.5,4.07,1.77,1.53.6,1.06.8,2.33,1.24l-.15.3-.24.54c-.47.97-.8,1.7-1.14,2.5a12.013,12.013,0,0,1-1.58,2.7,19.06,19.06,0,0,1-2,1.85,3.335,3.335,0,0,0-1.1,1.48,2.8,2.8,0,0,0,.56,2.77,2.87,2.87,0,0,0,1.38.9,7.747,7.747,0,0,0,1.1.2c.66.1,1.3.14,1.92.18.6-.15,1.6.13,2.3-.02l.26.13a1.429,1.429,0,0,1,.74,0l-.02.03a8.98,8.98,0,0,1,.9-.05l-.02.03h.42l-.07.05a7.5,7.5,0,0,1,1.77-.01l-.04-.15c1.17.2,1.6-.1,2.65.1l-.02.03c1.34-.35,2.1.3,3.47-.02-.17.04.07.08.06.1.63-.03,1.3-.03,1.32-.32.46.01.37.1.43.2,0-.13.4-.17.76-.17l-.17.04,1.03-.02-.2-.24c.54.08.13.3.66.25v-.2a12.657,12.657,0,0,1,1.92.52c1.52.08,3.1.01,4.64-.03l.58-.01h.72l1.7.02a.224.224,0,0,1,.03.1,2.269,2.269,0,0,1,.16,1.3c-.5.03-16.22.15-18.52,0,.1.14-2.8-.16-2.5.02-2.37.2-3.3-.8-4.17-.22a9.724,9.724,0,0,1-1.84-.15l.26-.03-4.12.07a8.358,8.358,0,0,1-2.2.27c.43-.1-.12-.08-.62-.08.32-.02.42-.06-.24-.12a3.066,3.066,0,0,1-.37.07c-.01-.01-.03-.01-.02-.03-.84.04-.7.08-.3.1-.02.02.01.04.13.06a21.677,21.677,0,0,1-2.54-.15c-2.53.06-4.33.26-6.43.35-.24-.1.25-.18.86-.22l-1.5.05c.01-.13.86-.08,1.32-.1-1.78-.2-3.66.25-5.74.06l-.43.1h-.12c.01.06-.46.14-.77.16-.3-.1.02-.27-1-.25a23.925,23.925,0,0,0-3.38.15c.58.02.4.08.14.12-.52.01-.8-.1-1.2-.05l-.05-.16c.2.15-1.35.17-1.54.24-.3-.1.8-.1.93-.2l-3.1.05c-.28.06-.3.1-.22.14.06.04.2.08-.01.15l-.53.04c-.07-.14-.1-.32-.17-.5l-.07-.27c-.03-.12-.05-.25-.08-.37a4.07,4.07,0,0,1-.1-.8l-.07.37a11.632,11.632,0,0,1-.42-4.08,34.522,34.522,0,0,1-.1-4.02Z"/>
    <path id="Path_12316" data-name="Path 12316" d="M229.5,439.3h0l.08-.1Z"/>
  </g>
</svg>
