<svg xmlns="http://www.w3.org/2000/svg" width="240.381" height="230.611" viewBox="0 0 240.381 230.611">
  <g id="_185" data-name="185" transform="translate(-114.639 -205.1)">
    <path id="Path_12376" data-name="Path 12376" d="M354.1,423.1c-.4-2.4-1.3-6.5-3.2-9.2-2.4-3.4-27.9-9.7-35.2-11.4a2.666,2.666,0,0,0-1.94.37l-4.56-11.75,10-2.3a1.528,1.528,0,0,0,1.2-2l-23.1-78.5-30.9-97.15,1.7-4.85H195.3c-5.5,24.6-16,71.1-20.1,83.8-3.9,12.2-33.9,66.8-40.4,78.7a2.956,2.956,0,0,0,.9,3.8l3.5,2.47-9.32,14.43a1.273,1.273,0,0,0-1.28,0c-2.4,1.4-7.6,5.2-13,13.5a2.564,2.564,0,0,0,.5,3l30.17,28.42,34.52.1c.3-4.5.4-7.53-1-9.13-5.3-6.1-16.6-8.5-16.6-8.5l-5.6-11.6a2.583,2.583,0,0,0-1.66-1.3.673.673,0,0,1,.1-.01l7.52-11.72,11.64,8.22a2.686,2.686,0,0,0,3.9-.8c7.6-12.1,40.8-65.2,48.4-80.3,2.9-5.77,4.4-10.36,6.62-16.9l16.17,32.8c2.4,5.6,18.3,50.4,22.2,61.6a2.865,2.865,0,0,0,3.5,1.9l5.14-1.2,5.3,16.02a1.172,1.172,0,0,0-1.45,1.07c-.5,2.8-.9,9.1,2,18.6a2.3,2.3,0,0,0,2.5,1.5l62.9-9.4a2.1,2.1,0,0,0,1.72-2.3ZM150.63,404.2c.13,0,.25.01.38.01C150.88,404.21,150.76,404.2,150.63,404.2Zm-.77-.03c.1,0,.2.01.28.01C150.04,404.18,149.94,404.17,149.86,404.17Z" fill="#fff"/>
    <path id="Path_12377" data-name="Path 12377" d="M182.66,311.1l-.4.65-2.46,4.92.8.67,1.9-3.77c.77-1.68.75-1,1.48-2.8l.43-.62c.38-.73.16-.58.6-1.37l-.9-.72a3.672,3.672,0,0,1-.44.96l-.3.7c-.12.18-.34.58-.2.22a6.97,6.97,0,0,0-.5,1.14Zm9.6-18.2h-.03l-.1.14.06-.16-1.02-.72-.07.22c-.5,1.7-1.26,3.4-1.92,5.06l-2.18,4.9-.63,1.28.92.6,1.08-2.16c.13-.6.77-1.8.87-2.25.08-.04,1.15-2.5.62-1.05-.05.12-.15.34-.16.3v.2a37.425,37.425,0,0,0,1.66-4.05c-.2.4-.43.98-.32.58l.56-1.32-.06.3c.28-.6.5-1.24.72-1.87Zm5.6-26.82c-.2,1.2-.45,2.18-.7,3.13l1.2.55a18.841,18.841,0,0,1,.65-2.8l-.02.13,1.63-6.68c-.1.08.23-1.12.05-.84.22-1.14.52-2.15.76-3l-1.14-.54-.07.3v-.17l-.95,4.03.1-.08-1.5,6-.01-.04Zm-3.23,13.78.07-.38-.57,2.35.25-.42c-.35,1.23-.25.27-.5,1.47l.12.01c-.4,1.53-.8,2.46-1.25,3.82l1.1.58.54-1.9c-.12.14,0-.32.1-.8l.1-.04c.37-1.85.33-.63.7-2.46l-.02-.34c.27-1.67.37-.84.64-2.7-.17.72-.24.3.01-.58l.01.24.2-1c-.03.3.06.18.23-.54l-.03.5.2-1.4.15-.5-1.1-.52a5.084,5.084,0,0,0-.28,1.9c-.26,1.05-.26.84-.36.96a7.241,7.241,0,0,1-.33,1.75Zm10.33-38.3-1.2-.27-1.12,4.74c-.18,1.27-.8,3.4-1.1,4.94l1.1.44.66-2.72a13.571,13.571,0,0,1,.4-2.25c-.04.45.08-.1.2-.6-.07.32-.07.43.13-.22a3.33,3.33,0,0,1,.05-.38c.01,0,.02-.03.02-.01.18-.85.13-.7.02-.32,0-.02-.02.01-.07.12l.72-2.5.2-.95ZM162.09,351.84a2.531,2.531,0,0,0,.45-.64l-.84-.7-.67,1.2-4.74,8.77c-1.76,3.38-2.25,4.8,2.77-3.1l-.04.12,3.07-5.66Zm5.18-9.07,3.15-5.9-.83-.62c-1.8,3.2-3.76,6.46-5.38,9.62l.9.72a19.225,19.225,0,0,0,.93-1.72,1.108,1.108,0,0,1-.17.45,20.734,20.734,0,0,1,1.4-2.54Zm10.3-20.02-.65-.65-4.8,9.4.73.52,1.52-2.9h.1l1.04-2-.4.74c-.03-.34.9-1.45,1.56-2.95a16.014,16.014,0,0,0,.93-2.15Z"/>
    <path id="Path_12378" data-name="Path 12378" d="M269.93,344.8a3.336,3.336,0,0,0,.3.7l.07.46,1.6,4.66.95,3.1.92-.43a11.7,11.7,0,0,1-.96-2.1c-.23-.4.26.34-.02-.3.08-.05.16.28.17.1-.25-.62-.25-1.08-.58-1.84l.06-.06c-.47-.98-.55-1.97-.9-2.6-.4-1.04-.03-.78-.53-1.83l-.05-.46c-.14-.48-.23-.3-.36-.84.07.01-.17-.68-.01-.4-.03-.13-.08-.27-.12-.4l-1.2.56c.1.28.5.9.45,1.04l.2.42c.04.15.1.42,0,.2Zm5.3,12.87-.85.32.25.67c.93,2.37,1.56,5.17,2.37,7.76l1.08-.47a1.721,1.721,0,0,1-.14-.65l-1.75-4.92.05.06a12.814,12.814,0,0,1-.54-1.42c0-.04-.01-.1,0-.08a10.289,10.289,0,0,1-.47-1.27Zm-6.65-20.7c.03.07.08.2.06.2l.07-.04c-.2-.86-.6-1.5-.87-2.35.07.27.2.6.07.4l-.27-.82.12.15-.4-1.22-.01.2a5.461,5.461,0,0,0-.46-1.5c-.16-.28.1.6-.14-.02l-.9-2.95-1.07.36.28,1.25,2.57,7.08.94-.5c-.13-.38-.25-.76,0-.24Zm-17.25-43.83.03-.01-.67-1.6c-.33-.6-.04.15-.24-.12a14.223,14.223,0,0,1-.74-1.74l.01.24a14.485,14.485,0,0,1-.96-2.4c-3.87-7.57-1.54-1.3-1.54-1.3,1,2.88,1.83,4.4,3.16,7.42l.92-.46-.18-.35c-.01-.16.1.12.2.3Zm3.23,7.74c-.26-.94-.8-1.83-1.2-2.88l-1.1.5,1.4,3.5,2,4.85a13.548,13.548,0,0,1,.7,1.57l1.06-.56-.05-.1a5.855,5.855,0,0,1-.66-1.22c.16.23.02-.1-.1-.38.08.18.13.23.01-.17a1.169,1.169,0,0,1-.12-.2c0-.01,0-.02.01-.02-.22-.48-.2-.38-.12-.16-.01-.01-.02.02-.01.1a14.734,14.734,0,0,1-.5-1.5l-1.67-3.64c0-.16.16.1.32.45l-.37-.85c.1-.02.26.48.38.74Zm24.87,69.38-.98.4.4,1.25s4.5,14.17,2.07,3.1l.05.06a23.583,23.583,0,0,0-1.25-3.7,2.757,2.757,0,0,0-.3-1.1Zm-16.77-46.15,1.07-.4-.02-.03c-.16-.64-.63-1.57-.63-1.86a10.2,10.2,0,0,0-.68-1.6c.17.24-.1-.5.07-.32a7.436,7.436,0,0,1-.74-1.72l.04.07c-.5-1.5-1.1-2.5-1.53-3.86-.06.1-.3-.63-.32-.4-.44-.92-.65-1.8-.9-2.37l-1.1.62.2.5-.07-.08a22.482,22.482,0,0,1,.95,2.3l.06-.1,1.34,3.5-.03-.01c.9,1.67.94,2.83,1.84,4.56-.1-.22,0,.1-.03.1l.47,1.1Zm2.5-106.76.44-1.2.14-.34.18-.47c.02-.07.05-.15.08-.23v.1c0,.05.02.01-.02.15l-.15.63.13-.44.08-.3.02-.23c.01-.1.03-.18.05-.3l.2-.57.17.6.23.73.82,2.85,2.34,7c-.48-1.12.5,2.05.07,1.2a75.2,75.2,0,0,1,2.52,7.6l-.12-.33c1.93,6.53,3.72,11.04,5.4,16.9.05-.3.96,2.8.9,1.97,2.1,5.97,3.14,11.1,4.37,13.1.9,2.73.9,3.3,1.33,4.7l-.24-.64,3.36,10.43c.66,1.9,1,2.1,2.03,5.54-.45-1.07.01.32.42,1.6-.28-.8-.4-1.05.07.65q.194.456.37.92c0,.02.01.1-.01.05.7,2.12.63,1.74.33.75.03.04.02-.04-.04-.36.57,2.25,1.97,6.16,1.88,6.48l2.86,8.52,1.3,3.83,1.23,3.9c.1.63-.36-.6-.85-2.14l1.15,3.8a26.967,26.967,0,0,1-1.1-3.33c1.13,4.6,2.96,9.28,4.33,14.65l.43,1.07.08.32a13.127,13.127,0,0,1,.72,1.92c.1.8-.27.03.5,2.66.5,2.1,1.8,5.9,2.65,8.6-.4-1.47-.2-1.02.01-.4.4,1.3.5,2.1.85,3.1l-.1.13c.16.15,1.16,3.47,1.34,3.9.1.78-.7-2-.88-2.3l2.35,7.9c.94,2.78-.01-.55.52.75.76,2.48,1.58,4.87,2.33,7.75l-.13-.94c1.48,4.64,2.28,7.43,3.07,10.62,11.33,34.46,3.65,6.9,3.65,6.9-3.73-13.78-6.2-20.74-11.1-37l-9.5-33.05-6.88-21.4c-1.24-3.2-2.88-9.03-4.27-12.84l-.36-1.53c-.48-1.3-1.02-2.86-1.38-4.22l.06.07c-.72-1.96-1.38-4.22-1.74-5.2l.06.07-.78-2.4.18.4q-1.744-5.054-3.3-10.17l-.06.3c-2-6.78-3.06-9.15-4.8-15.3l.06.07c-2.8-7.56-3.6-12.22-6.48-20.03.18.5.16.38.1.15-.03-.1-.06-.25-.1-.36-.05-.18-.08-.32-.06-.3l-1.06-3.24c.02-.06.04-.1.06-.17l1.36-3.73.5-1.4.13-.35.06-.18c-.05-.01-.12,0-.18-.01h-.74c-.92,0-1.84-.01-2.76-.01-4.5-.02-8.92-.01-13.2.08-.28-.02-.78-.01-1.2.01l-.55.03-.23.02L235,205.38s-71.68-.08-22.84,1.55c-.4,1.15-.93,3.2-.93,3.2-1.47,5.33-1.9,8.15-3.37,14.56L205,235.94l1.08.2c.01-.04.02-.1.03-.13.06-.1.07-.04.04.14l.04.01.17-.75a1.984,1.984,0,0,1-.13.76h.02c.44-1.6.67-3.34,1.23-5.18l.04-.45.04-.12a3.31,3.31,0,0,1,.1-.8c.14-.28.15.06.4-.97.1-.35.23-.83.34-1.35a4.953,4.953,0,0,0,1.12.28l-.03.03a2.966,2.966,0,0,0,1.4-.2c.1.16.5-.05.64-.02h-.01c.34-.2.77-.01,1.1-.2-.01.02-.01.06-.1.08.25-.07.6-.18.63-.08a6.485,6.485,0,0,0,1.8-.56l-.02.03c.2-.16.28-.1.5-.2.02.01.04.01.03.02.2-.16.7-.2.86-.3l.03.06.47-.15-.18.04c.01-.2.4.01.7-.22.32-.08.52-.57.87-.6.13-.13-.1.18.12.04.04.1-.1.1,0,.15.2-.12.4-.04.66-.2l.04.07c.32-.26.72-.16.92-.38.35-.2.33.1.66-.2l.2.03c.17-.05.07-.16.27-.2.01.06.25-.05.17.05.46-.08.77-.5,1.4-.6.06-.17.37-.22.4-.35.04.04.54-.3.3-.02-.02.02-.07.05-.07.03v.1c.37-.05.52-.38.83-.53-.1.03-.22.1-.16.01l.28-.15-.03.1.44-.2-.1-.03c.22-.1.35-.04.5-.28.06-.12-.24.05-.05-.12a10.294,10.294,0,0,0,1.03-.58c-.1-.05.01-.1.07-.2l.06.05c.24-.37.22.02.47-.33l-.02-.13c.17-.37.26-.03.42-.46-.1.12-.17-.06,0-.18l.01.1c.07-.1.08-.13.14-.17-.02.07.05.1.16-.02l-.02.14a2.375,2.375,0,0,0,.12-.32c.2-.13.4-.48.53-.5,0,0,.38-.36.37-.52-.01.12.2-.08.2.04a1.042,1.042,0,0,1,.37-.58V219c.4-.43.52-.86.87-1.25-.08-.03.1-.23-.03-.24.2-.5.72-.7.52-1.05.1-.22.2-.2.3-.3l-.01.06.42-.83c.05-.17-.07-.26.1-.5.01.12.06,0,.1-.1-.02.07-.01.1.1-.01a.17.17,0,0,1,0-.1h.02c.06-.18.03-.16-.02-.08-.01-.01-.02-.01-.05.01.16-.14.23-.5.34-.47a10.321,10.321,0,0,0,.42-1.4c.07-.03.08.1.04.23l.1-.32c.07.03-.03.2-.06.3.27-.32.2-.8.47-1.2l-.03-.1v-.02c-.03-.01-.04-.12-.02-.2.1-.04.15.06.23-.16a1.956,1.956,0,0,0,.2-.74c-.05.12-.08.07-.08.01.03-.1.12-.15.12-.24l.1.02c-.1.01,0-.32-.02-.37.1-.04,0,.2.04.23l.2-.66c0-.26-.1.02-.14-.12a2.219,2.219,0,0,1,.17-.66l-.1.05a1.985,1.985,0,0,1,.28-.88q.015-.45,0-.75l2.77-.1c.93.3,7.04.03,9.05.12h-.2c5.23-.22,10.77.18,15.8-.01a6.365,6.365,0,0,1-1.46.1l5.76-.04,1.02.01c.12.01.22.01.3.02s.16,0,.15.05a.849.849,0,0,1-.1.13l-4.4,12.6-3.85,11.5.08-.38c-.9,3.08-1.35,3.92-2.46,7.33-.1.18-.18.4-.18.37-1,3.35-3.36,9.6-4.23,12.3l-.17.13-2.3,6.56.9-2.44c-.01.95-1.93,4.9-3.42,9.7-1.6,4.43-2.6,9.24-4.36,13.8-.64,2.25.47-2.02-.6,1.3-.2.05.45-1.57.03-.77-1.07,3.26-2.02,5.25-3.33,9.27l-.17.12c-.8,2.64-1.73,5.08-2.58,7.3s-1.6,4.24-2.08,6c-1.76,5.4-1.54,3.5-3.35,9.12l-1,2.06c-1,2.3-.5,1.74-1.73,4.23a9.085,9.085,0,0,0-.74,1.3c-.33.6-.6,1.06-.26.3-3.05,5.5-6,11.38-10.5,18.44-.75,1.67-3,5.23-3.58,6.47-.2.15-4.37,7.23-2.1,3.08a5.526,5.526,0,0,1,.57-.9l.2-.55c-2.66,3.97-4.37,7.5-6.87,11.5.76-1.17,1.73-2.77,1.15-1.66l-2.3,3.74.4-.83-3.47,5.55.58-.7c-1.73,2.7-2.5,3.54-4.24,6.7-.77,1.44,1.74-2.5,0,.4l-8.72,13.6c.4-.36-.4.9-1.16,2.2l-.2.08a19.474,19.474,0,0,1-2.24,3.45q-.4-.481-.84-.93h.05a5.6,5.6,0,0,0-1.56-1c.03-.2-.53-.4-.65-.54h.02c-.48-.17-.76-.67-1.22-.84a.157.157,0,0,1,.15.03c-.3-.18-.7-.4-.67-.5a12.98,12.98,0,0,0-2.13-1.3h.05c-.3-.08-.33-.2-.63-.35l-.02-.04a7.991,7.991,0,0,1-1.03-.64l.02-.06-.54-.36.2.15c-.17.1-.34-.37-.8-.55-.35-.27-.95-.2-1.28-.53-.23-.05.24-.01-.07-.14.05-.08.16.04.13-.07-.3-.15-.38-.38-.74-.55l.03-.07c-.5-.18-.74-.64-1.1-.72-.47-.25-.17-.4-.7-.58l-.12-.2c-.2-.15-.2,0-.4-.2.05-.04-.24-.23-.08-.2-.43-.42-1.07-.57-1.62-1.16-.2,0-.5-.28-.65-.28.01-.06-.64-.46-.2-.3.04.01.1.05.08.07l.1-.03c-.3-.37-.7-.4-1.06-.67.1.1.24.2.12.16l-.33-.24h.1l-.48-.38.03.1c-.22-.2-.24-.37-.58-.47-.16-.04.17.25-.1.1-.3-.27-.75-.68-1.15-1-.01.1-.12.02-.25-.05l.03-.07c-.5-.22-.07-.25-.56-.5l.07-.02-.2.05c-.48-.16-.13-.28-.7-.42.18.1-.01.2-.2.02l.1-.02c-.13-.07-.2-.07-.26-.14.1.02.1-.06-.1-.17h.17l-.4-.12c-.2-.24-.67-.44-.72-.6,0,0-.52-.42-.7-.42.15.02-.14-.2-.01-.22a1.537,1.537,0,0,1-.77-.46h.04c-.58-.5-1.13-.65-1.64-1.12-.02.1-.3-.16-.28-.01-.64-.3-.93-.92-1.33-.78-.27-.17-.27-.28-.4-.4l.07.03c-.5-.32-.66-.42-1.02-.68-.2-.1-.32.01-.63-.25.14.02,0-.06-.12-.15.08.05.12.04-.02-.1a.169.169,0,0,1-.1-.03c-.22-.14-.2-.1-.1-.03-.01,0-.01.02.01.06-.17-.2-.6-.4-.56-.5-.63-.4-1.14-.62-1.67-.94-.03-.1.12-.04.28.04l-.38-.24c.05-.06.24.1.36.17-.36-.4-.97-.5-1.4-.96h-.14l-.02-.03c-.02.03-.16-.01-.24-.06-.03-.1.1-.13-.16-.3a2.885,2.885,0,0,0-.87-.5c.13.1.07.1-.01.1-.13-.1-.16-.2-.27-.24l.04-.1c0,.1-.38-.15-.45-.15-.03-.1.23.1.3.06l-.76-.5c-.3-.13,0,.1-.18.1a3.43,3.43,0,0,1-.76-.5l.04.13a3.5,3.5,0,0,1-1-.73c-3.7-1.75-1.23.28-1.23.28a26.431,26.431,0,0,0,3.6,2.36c1.35,1,1.62,1.37,3.07,2.3.67.48,1.4.95,2.1,1.4.4.1.87.6,1.3.77l.1.16a1.231,1.231,0,0,1,.42.26h-.02c.22.1.42.26.53.3h-.02l.24.15h-.06a5.936,5.936,0,0,1,1,.65l.02-.1c.6.53.93.55,1.45,1.05v.01c.87.32,1.08.94,1.97,1.3-.1-.04.02.07,0,.08.37.22.75.47.85.34.25.18.18.2.17.27.04-.06.28.07.48.2l-.1-.04.6.38-.03-.2c.28.24-.02.2.3.37l.06-.1a8.365,8.365,0,0,1,.9.98c1.66,1.2,3.64,2.23,5.1,3.5l.02.12c-.04.13.54.14.53.28l.22.08c.04.05.13.15.02.1a.991.991,0,0,0,.33.16l.14.2c.63.5,1.3.78,1.97,1.3a22.107,22.107,0,0,0,3.38,2.26c1.4.73,2.6,2.2,4.04,2.92.03.04.17.1.17.08l1.2.85s1.47,1.04,2.45,1.56c-.3.44-.78,1.17-1.67,2.67l.2-.48-.6,1.43a27.2,27.2,0,0,1-2.16,3.46c-.23.32-.47.65-.82,1.22-.46.68-.52,1.22-1.43,1.5a5.137,5.137,0,0,0,.64-.2c.1-.02.1,0,.02.1a1.106,1.106,0,0,1-.6.32,1.76,1.76,0,0,1-1.25-.17,1.769,1.769,0,0,0,.5.05,1.989,1.989,0,0,1-.64-.24c-.17-.1-.42-.27-.6-.38q-.569-.37-1.11-.78c.8.48.5.14-1.38-1.16l1.34.76-3.66-2.3c-2.65-2.03-7.06-4.95-8.1-5.88,0,0-5.8-4.2-7.26-5,1.24.74-1.96-1.58-.97-1.04-1.6-.96-6.14-4.04-7.85-5.43l.35.23c-3.28-2.4-6.15-4.37-8.93-6.28l-1.04-.7-.26-.18q-.077-.064-.16-.12a1.073,1.073,0,0,1-.25-.27,1.924,1.924,0,0,1-.33-1.5,2.821,2.821,0,0,1,.4-.87l.63-1.13,1.32-2.32c-.3.22,1.63-3.12,1-2.37,3.46-6.7,6.9-11.9,7.7-14.58,1.6-3.04,2.05-3.52,2.9-5.07l-.36.73,6.13-11.56c1.07-2.13,1-2.6,3.06-6.34-.55,1.27.25-.28,1-1.7-.46.9-.57,1.2.47-.62.1-.28.3-.7.48-1.08.02-.01.06-.08.05-.04,1.2-2.4.95-2,.37-.9.01-.06-.05.02-.25.35,1.4-2.4,3.54-6.86,3.85-7.08q4.606-9.137,8.72-18.51c.4-.65-.18.8-.97,2.6l1.92-4.35a29.01,29.01,0,0,1-1.62,3.88q1-1.919,1.82-3.92c.6-1.33,1.1-2.76,1.6-4.23.9-2.93,1.67-6,2.6-9.16l.25-1.35.12-.38a19.163,19.163,0,0,1,.46-2.4c.34-.88.25.13,1.04-3.05.74-2.5,1.72-7.16,2.45-10.47-.45,1.77-.37,1.18-.23.4.38-1.6.7-2.48.96-3.72l.15-.1c-.06-.25.88-4.28.95-4.83.33-.88-.5,2.5-.5,2.9l2.23-9.6c.68-3.44-.3.6-.04-1.08.67-3.02,1.24-5.98,2.13-9.42l-.4,1.06c1.2-5.7,1.98-9.07,3-12.86,8.4-42.47.5-9.24.5-9.24-4.06,16.54-5.6,25.2-10.18,44.95l-5.1,19.6c-.77,2.74-1.53,5.53-2.6,8.58-1.07,3-2.68,6.42-4.6,10.58-3.83,7.9-8.1,16.28-12.05,23.92-1.7,3.72-5.27,10-7.4,14.34l-1,1.6c-.73,1.5-1.63,3.24-2.48,4.68l.02-.1c-1.1,2.24-2.5,4.68-3.03,5.8l.02-.1-1.43,2.67.2-.48q-2.928,5.667-6.05,11.23l.28-.22-1.44,2.55-.64,1.15a3.55,3.55,0,0,0-.33.7,3.606,3.606,0,0,0-.2.8,3.942,3.942,0,0,0,.7,2.88,3.88,3.88,0,0,0,1.02.97l.86.6,2.2,1.53,1.04.78c.01-.01.01-.02.02-.03q2.16,1.515,4.27,3.1l-.1-.03c7.55,4.9,11.72,8.5,19.02,13.38l-2.36,3.83c-.88,1.42-1.75,2.8-2.64,4.07a4.368,4.368,0,0,0-.43-.73l.03-.01a1.359,1.359,0,0,0-.8-.47c.06-.17-.26-.2-.3-.3h.02c-.28-.03-.36-.37-.62-.4a.084.084,0,0,1,.1-.01c-.16-.08-.37-.18-.33-.27-.36-.2-.8-.57-1.12-.58h.03c-.2.01-.17-.1-.34-.14,0-.02-.01-.03,0-.03-.2,0-.4-.25-.54-.3l.03-.06-.28-.17.1.08c-.14.13-.14-.23-.4-.27-.17-.14-.6.07-.73-.14-.14.01.16-.06-.01-.1.05-.08.1-.01.1-.1-.16-.05-.16-.23-.37-.3l.04-.07c-.3-.03-.35-.35-.57-.34-.26-.1-.02-.28-.34-.32l-.03-.14c-.1-.08-.14.05-.22-.06.04-.05-.1-.14-.01-.14-.2-.25-.58-.22-.8-.58-.14.05-.26-.12-.37-.08.02-.05-.32-.23-.07-.2.02,0,.05.02.03.04l.06-.05c-.1-.24-.38-.16-.55-.3.04.06.12.1.04.1l-.17-.12.07-.03-.23-.2-.01.1c-.1-.12-.07-.25-.28-.26-.1.01.06.17-.08.1a3.979,3.979,0,0,0-.54-.55c-.03.08-.08.04-.15.02l.03-.07c-.28-.07.01-.2-.26-.27l-.1.06c-.3-.01-.02-.2-.36-.2.1.05-.05.16-.14.06l.07-.04c-.07-.03-.1-.02-.14-.06.06-.01.08-.07-.02-.12l.1-.03h-.24c-.1-.15-.35-.2-.34-.33,0,0-.25-.23-.38-.18.1-.02-.04-.15.04-.18-.12.02-.37-.07-.4-.2h.02c-.27-.28-.6-.27-.83-.55-.04.08-.16-.06-.18.06-.36-.1-.4-.55-.7-.34-.14-.07-.1-.17-.17-.23h.04a5.678,5.678,0,0,1-.52-.32c-.1-.03-.22.1-.36-.06.1-.02.01-.05-.05-.1.05.02.07.01.01-.08a.085.085,0,0,1-.07,0c-.1-.06-.1-.03-.06.01-.01.01-.01.02-.01.04-.06-.14-.3-.2-.26-.3a9.64,9.64,0,0,0-.9-.4c0-.07.1-.07.18-.03l-.2-.1c.05-.07.13.03.2.06-.15-.26-.53-.2-.72-.47l-.1.02-.01-.02c-.02.03-.1.03-.15.01,0-.08.1-.13-.04-.2-.06-.12-.3-.16-.46-.22.06.06.02.07-.02.07-.07-.04-.06-.12-.13-.13l.05-.08c-.02.1-.22-.03-.27-.02,0-.08.13.02.18-.02l-.4-.25c-.18-.03-.03.1-.14.12-.13-.07-.3-.1-.4-.23v.1a.871.871,0,0,1-.5-.37c-2.07-.57-.88.53-.88.53.56.6,1.04.63,1.87,1.1a12.17,12.17,0,0,0,1.52,1.2c.34.24.72.46,1.07.67.23,0,.44.3.7.33l.03.1a.248.248,0,0,1,.22.12h-.02c.13.02.22.12.28.13l-.02.01.12.07h-.04a1.5,1.5,0,0,1,.52.31l.04-.08c.27.3.5.23.73.53h-.02c.5.06.5.53,1,.6-.06-.01,0,.05-.02.07.2.1.4.22.5.08.13.1.08.12.06.18.04-.06.17-.01.27.05l-.06-.01.3.17.02-.16c.13.14-.06.17.1.24l.06-.1c.2.16.23.4.38.6a23.311,23.311,0,0,1,2.6,1.7l-.01.1c-.06.12.33-.01.3.1l.13.01c.01.04.05.1-.01.1a.261.261,0,0,0,.18.06l.05.13c.3.28.68.34,1,.6a5.684,5.684,0,0,0,1.74,1.08c.76.28,1.23,1.2,2.02,1.48.01.03.1.03.1.02l.6.43a7.07,7.07,0,0,0,1.42.77l-.16.1c-.15-.01-.4.96-.57,1l-.18.4c-.08.1-.24.3-.15.1-.1.17-.16.26-.2.34a3.731,3.731,0,0,0-1.6.03,15.161,15.161,0,0,1-2.1.23,27.366,27.366,0,0,1-6.8-.9,21.589,21.589,0,0,1-6.45-2.97,21.027,21.027,0,0,1-4.56-4.13,16.339,16.339,0,0,1-3.07-5.37,2.139,2.139,0,0,0-.43-.8c.34-.44.65-.87.65-.87a73.5,73.5,0,0,0,4.03-6.43l-1-.3c-.06.12-.12.22-.13.25-.1.06,0-.1.1-.26l-.04-.01-.8,1.27c-.28.57.14-.05.04.25a16.7,16.7,0,0,1-.92,1.48l.18-.13a11.519,11.519,0,0,1-1.32,2q-.627,1.159-1.19,2.35a2.08,2.08,0,0,0-.63-.32,2.28,2.28,0,0,0-1.1-.05,2.708,2.708,0,0,0-.97.42,18.623,18.623,0,0,0-2.12,1.55,2.21,2.21,0,0,0-.51.47,36.288,36.288,0,0,0-4,3.63s-1.15,1.17-2.5,2.83c-.67.83-1.4,1.78-2.06,2.75-.33.5-.67.97-.96,1.45l-.44.7-.2.34a1.68,1.68,0,0,0-.23.49,3.24,3.24,0,0,0-.12,1.7,2.67,2.67,0,0,0,.54,1.16c.45.52.74.6.7.4a4.013,4.013,0,0,1-.4-1.9,2.48,2.48,0,0,1,.26-.86,1.32,1.32,0,0,1,.28-.4l.4-.48q.828-.99,1.69-1.95a25.605,25.605,0,0,0,1.56,2.06l-.06-.02a11.15,11.15,0,0,0,2.1,1.9c-.02.22.7.7.88.94h-.03c.63.42,1.03,1.14,1.64,1.55a.31.31,0,0,1-.2-.1c.4.34.94.8.9.9a29.025,29.025,0,0,0,2.84,2.5l-.06-.02a10.109,10.109,0,0,1,.85.7c.01.03.03.06.02.06.43.26,1.06,1,1.38,1.23l-.03.07.73.67-.26-.27c.22-.05.46.6,1.06,1,.47.48,1.25.66,1.7,1.2.3.17-.3-.1.1.2-.05.08-.2-.12-.17.03.38.3.5.62,1,1l-.03.07c.66.44,1,1.1,1.47,1.36.63.5.24.54.95,1l.17.3c.25.26.27.1.53.4-.06.03.33.4.12.27.6.7,1.43,1.16,2.18,2.1.27.1.66.56.86.62-.01.06.86.84.3.46-.05-.03-.12-.1-.1-.12h-.1c.4.57.95.8,1.42,1.28-.13-.16-.32-.33-.16-.25l.45.44-.14-.04.65.67-.04-.14c.3.34.33.55.78.82.2.12-.24-.37.12-.06a7.37,7.37,0,0,0,.84.82,8.023,8.023,0,0,0,1.07.72c-.03-.1.17-.01.37.08v.08c.8.28.2.3,1.02.57l.18-.04c.76.15.32.3,1.2.4-.32-.1-.1-.2.28-.04l-.12.03c.22.06.3.05.44.1-.14,0-.1.08.22.17l-.24.02.65.05c.46.2,1.26.26,1.47.37q.3.039.6.05a2.131,2.131,0,0,0,.7-.06c-.2.06.36.1.2.18a3.857,3.857,0,0,1,1.36-.03l-.06.01c1.16.1,1.98-.1,3.02.03-.05-.1.5-.03.37-.15,1.08-.1,1.96.25,2.35-.1a5.568,5.568,0,0,1,.83.1l-.12.02c.92-.02,1.18-.02,1.86-.01.34-.03.4-.2,1-.15-.2.06.05.05.28.05-.15.01-.2.03.1.08a.608.608,0,0,1,.17-.04c0,.01.01.01.01.02.38-.02.3-.04.14-.05.01-.01-.01-.02-.06-.04.4.1,1.1,0,1.15.1,1.14-.02,1.96-.12,2.9-.16.1.06-.12.1-.4.12l.67-.02c-.01.08-.4.04-.6.06.8.14,1.65-.12,2.6.01l.2-.06.06.01c0-.03.2-.08.35-.1.13.07-.01.16.46.16a8.166,8.166,0,0,0,1.53-.06c-.26-.01-.18-.05-.06-.08a3.841,3.841,0,0,0,.55.04v.1c-.1-.1.6-.1.7-.13.13.07-.36.06-.42.1h1.4c.5-.07-.1-.1.15-.17a7.747,7.747,0,0,1,1.37-.02l-.16-.08a7.009,7.009,0,0,1,1.88.05l1.85-.22a.938.938,0,0,1-.05.28c-.06.17-.1.32-.01,1.23l-.1-.16.27.48c.22,1.7-.26.9-.01,2.83.01-.38.08-.47.14-.34a.822.822,0,0,1,.06.34v.25a.661.661,0,0,1-.01.14.694.694,0,0,0-.1-.12c.01.18.06.3.02.4-.03-.1-.07-.13-.1-.13-.01.02-.08.01-.2.02a.2.2,0,0,0,0-.15.12.12,0,0,1-.07.1.555.555,0,0,1-.08.06.163.163,0,0,1-.06.03l-.18.03c-1.12-.12-2.9.04-3.37-.13a15.944,15.944,0,0,0-2.97.1c.5-.1-.85-.16-.47-.3a13.181,13.181,0,0,1-3.22.1l.14-.02c-2.74-.15-4.7.18-7.15-.01.1.14-1.2.06-.87.25-2.55.17-4.64-.4-5.56.17a12.739,12.739,0,0,1-1.97-.17l.28-.03-4.4.02a9.422,9.422,0,0,1-2.37.24c.5-.1-.17-.1-.6-.1.07-.01.26-.02.2-.04a.479.479,0,0,0-.14-.04c-.04-.01-.1-.03-.17-.05a.124.124,0,0,1-.17,0,.037.037,0,0,1,.01-.03.875.875,0,0,1-.1-.08,1.528,1.528,0,0,0-.15-.13.5.5,0,0,0-.14-.1c-.03,0,.07.1.22.25-.03,0,0,.05.02.1-.5-.67-1.88-1.76-1.82-1.95-2-1.83-3.54-3.02-5.22-4.5-.12-.24.32.06.82.48l-1.2-1.07c.1-.1.72.57,1.1.9-1.24-1.46-3-2.53-4.5-4.2l-.4-.24-.08-.1c-.03.05-.45-.24-.7-.46-.15-.3.2-.18-.6-.93a27.338,27.338,0,0,0-2.72-2.4c.44.44.25.35.02.2a11.741,11.741,0,0,0-.9-.93l.07-.15c.06.26-1.16-.87-1.35-.97-.15-.3.7.5.85.55l-2.43-2.26c-.94-.72.05.26-.45-.03a26.377,26.377,0,0,1-2.4-2.2l.18.36a24.664,24.664,0,0,1-3.2-3.1c-11.4-9.18-3.3-.98-3.3-.98,3.97,4.17,6.4,5.9,11.47,10.52,4.33,4.18,5.3,5.47,9.92,9.66l3.32,3.1,1.68,1.54,1.08,1,.2.18c.07.04.17.01.26.02h1.2c1.38-.2,3.82.02,5.45-.15l.63.12a8.314,8.314,0,0,1,1.8-.03l-.04.03c.84-.1,1.8-.03,2.2-.07l-.04.03h1.02l-.18.05a38.867,38.867,0,0,1,4.3-.04l-.1-.15c2.85.18,3.9-.12,6.46.08l-.04.04c3.25-.37,5.13.28,8.48-.08-.42.05.18.07.15.1.77-.02,1.57-.04,2.18-.1,1-.03,1.6-.22,1.5-.33.1-.01.2-.01.28-.02.04-.01.1.01.1-.02l.02-.1q.025-.181.06-.36a1.228,1.228,0,0,1,.1-.38c.05-.14.1-.1.16-.2a2.825,2.825,0,0,1-.08-.9q-.012-.635.02-1.27l.03.4c.03-.85.04-1.7.01-2.57l-.23.5c.04-1.36.3-.35.16-1.68l-.2.03a11.178,11.178,0,0,0-.38-2.55,4.36,4.36,0,0,0-.57-1.2q-.387-.53-.8-1.04a19.4,19.4,0,0,0-3.66-2.84,29.346,29.346,0,0,0-4.1-2.1q-2.089-.9-4.26-1.58c-.7-.23-1.43-.44-2.14-.64l-1.07-.3-.7-.17-.8-1.74-.9-2.06v-.34c.14-.2-1.1-1.58-1.05-1.9l-.44-.68c-.06-.22-.23-.67-.02-.33a6.422,6.422,0,0,0-.65-1.13l-.23-.78q-.434-.975-.91-1.93l-.23-.46a2.987,2.987,0,0,0-.4-.6,3.346,3.346,0,0,0-1.1-.88l.24-.23c.26-.38.07-.34.4-.74.04.06.4-.5.28-.23.7-.9,1.14-2.04,2.1-3.22.07-.34.55-.94.6-1.2.07-.01.83-1.28.47-.5-.03.07-.1.18-.12.16l.01.13a16.8,16.8,0,0,0,1.26-2.07c-.16.2-.33.5-.25.27l.44-.66-.04.17.67-.98-.15.1a7.018,7.018,0,0,0,.67-.87c.16.1.3.2.47.3-1.04-.68.4.37.3.34,3.75,2.6,7.75,5.4,7.97,5.2,2.73,1.93,2.12,1.62,2.5,2a4.915,4.915,0,0,0,2.2.43,3.43,3.43,0,0,0,2.04-.88,4.246,4.246,0,0,0,.72-.93l.5-.83-.6,1.05,3.92-6.33-.98,1.1c2.15-3.3.78-.7,2.73-3.94l-.2-.06c2.92-4.6,4.87-7.18,7.78-11.6l17.45-28.7,16.44-28.02.55-.74a14.292,14.292,0,0,0,1.37-2.78,28.466,28.466,0,0,1,1.37-3.1c.3-.74.57-1.5.85-2.25.28-.6.85-1.92.45-.8a37.486,37.486,0,0,0,1.27-3.65l.9-2.2,8.25-23.77c3.9-10.25,10.54-29.8,14.36-41.07,2.67-8.13,5.8-16.6,8.95-25.14ZM232,210.07c-.45,1.14-.7,1.38-1.14,2.56l-.73,1.67c-.01.3-.36.68-.43,1.02l-.12.08a.629.629,0,0,1-.15.33l-.01-.02a1.466,1.466,0,0,1-.2.4h-.01l-.1.18v-.05a2.883,2.883,0,0,1-.43.75l.08.03c-.38.43-.4.7-.78,1.04l-.01-.02c-.2.68-.75.7-1.03,1.35.03-.08-.06,0-.07-.02-.2.25-.4.5-.28.62-.17.15-.17.1-.24.06.05.05-.07.2-.2.33l.04-.08-.35.36.17.04c-.22.16-.17-.08-.33.12l.08.1c-.28.25-.58.23-.9.38-.3.2-.6.44-.9.68l-.95.6a8.174,8.174,0,0,1-2.02.93l-.1-.06c-.08-.1-.28.32-.38.23l-.13.12c-.05,0-.15.01-.1-.05a.411.411,0,0,0-.22.15h-.18c-.57.18-1,.48-1.6.67a16.073,16.073,0,0,0-2.83.97c-1.07.5-2.5.3-3.6.7-.04-.01-.13.04-.13.06-.35.06-.7.1-1.06.14,0,0-1.3.15-2.08.3-.03.01-.05.01-.08.02l.3-1.5c-.15.57-.14.38-.1.12.12-.52.26-.8.33-1.2l.1-.03c-.14.18.23-1.37.24-1.57.14-.28-.13.8-.1.96l.73-3.1c.2-1.12-.14.18-.1-.37.22-.98.38-1.94.7-3.05l-.17.33a39.091,39.091,0,0,1,1.03-4.15c.64-3.4.96-5.32,1.06-6.27l4.24.14-.4.05,16.33.02c-.4,1.03-.35,1.67-.73,2.97ZM118.42,400.27a.874.874,0,0,0,.08-.1l-.04.13c-.01-.02-.03-.03-.04-.04Zm9.26,8.7a36.215,36.215,0,0,0-3.57-3.55.575.575,0,0,0-.23-.17l-1.6-1.55s-2.64-2.54-3.82-3.4c1.8-2.2,3-3.52,4.2-5.1.4-.03,1.68-1.62,2.26-1.97l-.03.06a7.172,7.172,0,0,1,1.43-1.25c.23.4.55.56.93,1.05a12.508,12.508,0,0,0,.6,1.36c.13.3.3.58.44.86.17.1.15.38.3.5l-.04.1a.154.154,0,0,1,.08.17h-.02c.08.07.08.18.12.2h-.02l.04.1h-.03a.83.83,0,0,1,.17.43l.08-.03c-.02.32.18.4.13.68h-.02c.3.3-.06.57.22.88-.03-.04-.04.03-.06.02.06.16.08.33.25.32.01.12-.04.1-.1.13.07-.01.1.1.13.2l-.03-.04.05.27.14-.06c-.03.15-.17.05-.12.18l.12-.01c-.01.2-.2.33-.28.52a7.5,7.5,0,0,1-.1,2.42h-.1c-.13,0,.16.23.04.24l.05.1c-.03.02-.06.07-.08.02-.02.08.01.08.04.15l-.1.08c-.1.3,0,.6-.08.93a3.988,3.988,0,0,0-.25,1.6c.04.66-.65,1.2-.63,1.87-.02.01,0,.08.01.08l-.2.54a4.548,4.548,0,0,0-.34,1.06Zm29.77-2.38c.86,1.56.34,1.38,1.12,2.7-.07-.01-.15-.06-.2.03,0-.01-.01-.06.01-.07-.06.04-.15.1-.18,0-.16.07-.4.08-.47.26v-.03c-.03.12-.07.03-.13.1a.031.031,0,0,1-.01-.02c-.04.12-.2.06-.23.12l-.02-.06-.13.05h.05c.03.18-.13-.1-.2.05-.1,0-.1.42-.2.35-.02.1.01-.15-.04-.06-.02-.1.02-.07-.02-.14-.05.06-.13-.07-.2.01l-.02-.07c-.07.16-.22-.05-.26.1-.1.1-.12-.2-.2-.03l-.07-.1c-.05,0,0,.13-.07.1-.01-.06-.08-.03-.06-.1-.14-.07-.2.2-.4.07,0,.13-.1.08-.1.17-.02-.05-.16.03-.1-.1.01-.01.02-.01.02.01l-.01-.07c-.12-.1-.15.1-.24.12.03.02.07,0,.05.06l-.1.01V410h-.13l.04.07c-.07-.02-.12-.14-.16-.02-.02.07.08.1.02.12a.983.983,0,0,0-.34-.07c.03.08,0,.08-.02.1l-.02-.07c-.08.13-.08-.15-.17-.04l.01.1c-.06.17-.1-.14-.15.1.04-.02.06.15,0,.14v-.07c-.03.02-.03.05-.05.04.01-.04-.02-.1-.06-.08l.01-.1-.05.15c-.08-.06-.16.06-.2-.03,0,0-.15-.02-.15.1.01-.07-.07-.08-.07-.17-.02.08-.1.17-.17.1v-.01c-.17-.05-.23.18-.4.1.03.08-.06.05-.01.16-.12.14-.3-.16-.28.2-.06.03-.1-.06-.13-.07l.01-.02a.52.52,0,0,1-.24.08c-.04.04-.01.2-.1.18.01-.07-.02-.05-.05-.04.02-.01.02-.04-.03-.07,0,.02-.01.03-.01.05-.05.02-.03.04-.01.04,0,.01.01.02.02.04-.07-.07-.14.04-.18-.06-.15.06-.23.2-.34.27a.121.121,0,0,1,.02-.14l-.08.04c-.02-.08.04-.06.06-.08-.14-.1-.2.18-.34.1v.06a.164.164,0,0,1-.02.1c-.03-.06-.04-.16-.1-.14-.07-.05-.13.07-.2.12.04,0,.04.04.03.07-.03.01-.06-.05-.08-.02l-.03-.1c.03.08-.06.1-.06.15-.03-.06.03-.07.03-.12l-.18.06c-.05.1.03.08.02.17-.05.03-.1.1-.18.07l.04.08c-.1.1-.16.1-.26.03-.65.86.05.95.05.95.37.1.47-.18.84-.33.35-.04.47.1.8-.06a2.27,2.27,0,0,0,.5-.17c.05-.14.2-.05.28-.18l.05.06c.02-.04.05-.08.1-.05v.02c.03-.06.1-.05.1-.08v.02l.05-.02v.03a.284.284,0,0,1,.23-.1l-.03-.08c.18.06.2-.13.37-.06v.02c.13-.27.32.08.46-.18-.02.03.02.04.02.06.08-.05.17-.08.13-.25.06-.01.06.04.1.1a.1.1,0,0,1,.08-.13l-.02.03.13-.06-.06-.13c.08.02.06.16.12.1l-.03-.1c.1,0,.2.15.33.2.43-.05.8-.45,1.24-.35l.04.08c.04.12.06-.2.1-.1l.03-.07c.02.02.05.04.04.07.04-.01.04-.03.06-.07l.06.07c.18.02.28-.16.46-.18.25.1.6-.13.8-.27.27-.26.76.14,1.03-.15.01.02.03-.03.03-.05l.1-.02.03.12c.35.78.45.46.8,1.35-.12-.01.44,1.12.1.66.28.72.64,1.42,1,2.13-.01.01-.03.02-.04.01h0c-.03.16-.2-.03-.23.1,0-.01-.02-.06,0-.07-.05.04-.1.1-.15.02-.12.08-.32.12-.34.3l-.01-.03c-.01.12-.06.04-.1.1-.01-.01-.01-.02-.02-.02-.01.12-.15.08-.17.14l-.03-.06-.1.06h.04c.06.17-.12-.07-.15.07-.08.01.01.4-.1.36,0,.1-.02-.14-.05-.06-.04-.1,0-.07-.04-.13-.03.06-.12-.05-.16.03l-.03-.07c-.03.16-.2-.02-.2.12-.06.1-.14-.18-.18-.01l-.07-.08c-.04,0,.02.13-.04.1-.02-.06-.07-.02-.07-.1-.13-.05-.14.2-.33.1.02.13-.07.08-.05.18-.02-.05-.13.05-.1-.1,0-.01.01-.01.02.01l-.02-.07c-.13-.1-.1.13-.18.14.03.01.06,0,.06.05l-.07.02v-.06h-.1l.04.06c-.06-.02-.13-.13-.14,0,0,.07.1.08.04.12a.949.949,0,0,0-.3-.04c.04.08.02.08,0,.1l-.03-.07c-.05.13-.1-.14-.15-.02l.03.1c-.02.17-.1-.12-.1.1.03-.03.08.14.03.13l-.02-.07c-.02.02-.01.06-.03.05,0-.04-.03-.1-.06-.07v.05c-.08-.05-.12.07-.18-.01,0,0-.13,0-.1.1-.01-.07-.08-.07-.1-.15,0,.08-.05.18-.12.12v-.01c-.16-.03-.16.2-.3.15.04.08-.04.06.02.15-.07.15-.3-.12-.2.2-.04.04-.1-.05-.13-.05v-.02a.379.379,0,0,1-.2.1c-.02.05.03.2-.04.2,0-.07-.03-.05-.05-.03.01-.02.01-.04-.04-.06v.05c-.04.03-.03.04,0,.04,0,.01.01.02.02.03-.07-.06-.1.05-.16-.04-.1.07-.15.2-.24.3a.124.124,0,0,1-.01-.13l-.06.05c-.03-.07.02-.06.04-.08-.14-.08-.12.2-.27.13v.07h0a.17.17,0,0,1,0,.1c-.04-.06-.06-.15-.1-.12-.07-.05-.1.08-.13.13.03,0,.04.04.04.07-.02.01-.07-.05-.07-.01l-.04-.1c.04.08-.03.12-.02.16-.04-.06.01-.07,0-.12-.1.05-.05.03-.14.08-.02.1.04.08.05.16-.04.04-.06.12-.13.1l.05.07a.13.13,0,0,1-.2.06c-.38.9.23.92.23.92.33.06.36-.22.64-.4.28-.08.42.04.67-.14a2.281,2.281,0,0,0,.38-.2c.01-.14.17-.07.2-.2l.06.05c.01-.04.03-.08.07-.05l.01.02c.02-.07.07-.05.08-.1v.02l.04-.03v.03a.175.175,0,0,1,.18-.1l-.04-.08c.16.04.14-.15.3-.1v.02c.05-.27.3.05.35-.22-.01.03.03.04.03.06a.171.171,0,0,0,.06-.25c.05-.02.06.03.1.1a.1.1,0,0,1,.04-.14v.03l.1-.07-.08-.12c.08.01.08.15.13.1l-.05-.1c.1-.01.2.13.32.17.35-.1.58-.52.97-.46l.05.08c.06.12.01-.2.07-.1v-.07c.02.02.05.03.04.06.03-.01.03-.03.04-.08l.07.06c.15,0,.2-.2.35-.22.23.08.48-.2.62-.35.17-.28.67.06.84-.25.02.01.02-.03.02-.05l.2-.07.3.54.33.66.53,1.12.67.16.35.1.2.06q.395.122.78.27a23.636,23.636,0,0,1,2.4.48c.05.1,2.63.96,1.1.6-.13-.03-.35-.1-.33-.14l-.22.05c1.4.74,2.72.88,4.12,1.57-.4-.23-.97-.47-.56-.38.44.2.88.4,1.3.63l-.3-.04q.948.492,1.86,1.05l-.2-.26a14.4,14.4,0,0,0,2.13,1.44c.5.22-.7-.7.2-.1l.88.74.94.9c.32.3.6.68.9,1a3.13,3.13,0,0,1,.57.89c.08-.18.24.15.38.57l-.1.08.06.2-.42-.04a61.08,61.08,0,0,0-6.57.07c-2.54-.06-3.2-.22-5.84-.18-1.25-.02-2.6.01-3.82.02-.58.12-1.6-.01-2.3.1l-.27-.07a2.7,2.7,0,0,1-.75.02v-.02c-.35.05-.75.01-.93.04l.02-.02h-.43l.07-.03a12.188,12.188,0,0,1-1.81.01l.05.1c-1.2-.1-1.64.06-2.72-.07l.02-.02a6.966,6.966,0,0,1-1.77,0q-.419-.046-.84-.06l-.87-.03c.17,0-.06-.06-.04-.08-.6-.1-1.25-.27-1.3-.1-.44-.14-.34-.16-.38-.24-.02.07-.4-.02-.75-.15l.17.03c-.33-.1-.65-.23-.97-.36l.13.2c-.5-.25-.06-.2-.56-.4l-.04.1a7.558,7.558,0,0,1-1.55-1.16,5.3,5.3,0,0,1-.84-.66l-.88-.8-1.78-1.6c-1.18-1.07-2.33-2.13-3.32-3.2l-.03-.15c.05-.13-.7-.4-.7-.58l-.3-.2c-.05-.08-.18-.24-.04-.14a2.254,2.254,0,0,0-.43-.34l-.2-.3c-.85-.9-1.72-1.5-2.64-2.43a50.9,50.9,0,0,0-4.53-4.2,16.554,16.554,0,0,1-1.46-1.35,2.515,2.515,0,0,0,.62-.45l.02.02a.887.887,0,0,0,.22-.74c.18.02.1-.25.18-.3h.01c-.06-.23.24-.36.18-.58.01.01.05.03.04.07.02-.14.04-.34.14-.32.07-.33.24-.78.14-1.03l.02.02c-.07-.15.02-.16.01-.3.01,0,.02-.01.03-.01-.07-.16.07-.4.05-.5l.07.01.04-.26-.04.1c-.17-.07.16-.17.08-.4.06-.17-.3-.43-.18-.6-.07-.1.12.1.08-.04.1.01.05.07.13.05-.02-.14.13-.2.1-.37h.07c-.1-.23.16-.38.05-.54-.03-.23.24-.12.12-.36l.1-.08c.03-.1-.1-.08-.05-.2.06.01.07-.13.12-.06.13-.23-.1-.5.1-.82-.12-.08-.03-.24-.12-.3.05,0,.03-.33.13-.14.01.02.01.04-.02.04l.07.03c.15-.18-.06-.34-.03-.52-.03.05-.02.13-.07.07l.02-.17.06.04.05-.25-.08.03c.05-.12.17-.17.06-.3-.06-.07-.1.12-.13-.02a3.545,3.545,0,0,0,.15-.64c-.1.02-.08-.04-.1-.1l.07-.01c-.1-.23.16-.1.06-.32l-.1-.03c-.17-.2.14-.12-.08-.34.02.1-.16.06-.14-.05l.07.02c-.02-.06-.05-.08-.04-.12.04.03.1.01.1-.08l.1.05-.15-.16c.07-.14-.07-.33.02-.4,0,0,0-.3-.12-.33.08.04.08-.12.16-.1-.1-.06-.2-.26-.13-.36h.01c.01-.34-.24-.5-.2-.82-.08.04-.08-.12-.17-.06-.2-.25.05-.6-.3-.58-.06-.12.03-.18.02-.25h.03a2.712,2.712,0,0,1-.2-.47c-.06-.08-.22-.03-.24-.2.08.03.04-.03.02-.1.03.03.05.04.06-.06a.086.086,0,0,1-.06-.03c-.05-.1-.06-.07-.05-.02q-.015,0-.03.03c.03-.13-.13-.27-.03-.33a5.1,5.1,0,0,0-.5-.64c.04-.05.1-.02.16.04l-.1-.15c.07-.04.1.07.13.12.02-.26-.32-.34-.34-.62l-.08-.02v-.02c-.03.02-.1-.01-.12-.04.04-.07.14-.08.07-.2.01-.12-.18-.23-.28-.32.03.07-.02.07-.05.05-.04-.05,0-.12-.05-.15l.08-.06c-.06.07-.17-.1-.2-.1.04-.07.1.05.16.04l-.22-.3c-.14-.07-.06.07-.17.06-.08-.1-.2-.15-.23-.3l-.04.08a.623.623,0,0,1-.28-.42l.87-.58.53-.35a2.314,2.314,0,0,0,.4-.3c-.04.05.1.07-.26.28.1-.06.17-.1.27-.17a.608.608,0,0,1,.1-.07.388.388,0,0,1,.26-.01.3.3,0,0,1,.22.3c0,.06.03.2,0,.22a16.573,16.573,0,0,0,2.63,4.48,15.988,15.988,0,0,0,3.02,2.96l-.13-.06c.94.6,1.08.95,2.1,1.66.04.06.1.12.08.12q.425.268.84.55c.54.4,1.12.85,1.7,1.24a6.35,6.35,0,0,0,1.1.67,3.462,3.462,0,0,0,.92.4h-.08a2.11,2.11,0,0,1,.3.1,1.411,1.411,0,0,0,.18.08c.13.06.27.1.4.16a.692.692,0,0,0,.1.04c.2.08.4.18.6.25-.16-.06-.3-.13-.46-.2.07.02.13.05.22.07.03.02.07.05.06.05.14.03.3.07.47.12a8.169,8.169,0,0,0,2.27.74,7.913,7.913,0,0,0,2.18.2c.03,0,.05.01.08.01a5.384,5.384,0,0,0,1.38-.06,10.09,10.09,0,0,1,1.35.04c.02,0,.03,0,.04-.01a.816.816,0,0,0,.14-.01c0,.02-.01.03-.03.04s-.03.02-.05.02c-.06.01-.1.02-.08.05-.04.04.03.06.43.03h.04c.03.15-.56.1-.25.22a16.485,16.485,0,0,0,3.4-.2l.08.1a1.76,1.76,0,0,1,1.9.34,2.105,2.105,0,0,1,.46.67c.23.38.4.68.57.93Z"/>
    <path id="Path_12379" data-name="Path 12379" d="M355.02,422.5l-.07-.5-.18-1a11.921,11.921,0,0,0-.68-2.2c.16.4.02-.2.06-.17-.46-1.5-1.18-3.05-1.46-2.95-.5-1.04-.35-.88-.3-1.07-.05.03-.22-.17-.43-.47a6.234,6.234,0,0,0-.9-1.1c.13.1.26.23.4.35a7.456,7.456,0,0,0-2.27-1.6l.33.45c-1.16-.7-.17-.43-1.35-.94l-.07.18-4.17-2.17c-6.9-2.5-14.6-4.02-21.08-6.03l-.25-.22c-.07-.24-1.9-.15-2.1-.4l-.8-.1c-.2-.1-.65-.24-.26-.2a5.288,5.288,0,0,0-1.26-.2l-.73-.3-1.04-.27-.52-.12a3.485,3.485,0,0,0-.7-.06,3.561,3.561,0,0,0-1.36.25c-.01-.01-.01-.02-.02-.03.03-.06-.62-1.6-.16-.75.04.07.1.2.07.2l.1.08a19.342,19.342,0,0,0-1.04-2.54c.08.28.22.63.1.4l-.32-.84.13.15-.45-1.26v.2a5.756,5.756,0,0,0-.53-1.54c-.18-.3.13.62-.14-.02l-1.05-3.14c-.04.13-.15-.15-.28-.44l.06-.06q-.084-.168-.16-.34l9.2-2.35h-.07a1.983,1.983,0,0,0,1.3-.8,2.017,2.017,0,0,0,.38-1.05,1.237,1.237,0,0,0-.26-.97c-.03-.02-.05.02-.05.12a3.227,3.227,0,0,1,0,.55,1.693,1.693,0,0,1-.33.88,1.543,1.543,0,0,1-1.12.64h0c-2.65.4-7.46,1.28-15.12,2.76l.3-.12c-7.03,1.5-11.44,2.5-16.2,3.85-.83-.1-5.76,1.3-7.42,1.6l.15-.06c-1.05.3-2.13.57-3.22.82l-1.64.36a2.411,2.411,0,0,1-1.27.04,2.02,2.02,0,0,1-.98-.61,1.751,1.751,0,0,1-.32-.48.849.849,0,0,1-.1-.28l-.13-.38q-.526-1.533-1.12-3.04a4.053,4.053,0,0,1,.5,1.12l-1.68-4.65c.3-.01.6-.05.6-.05a20.172,20.172,0,0,0,3.65-1,33.2,33.2,0,0,0,3.3-.66c.7-.16,1.45-.37,2.13-.56.3-.2.9-.22,1.26-.42l.17.03a.762.762,0,0,1,.42-.12v.02c.2-.1.42-.12.5-.17v.02l.24-.07-.03.04a4.371,4.371,0,0,1,1.01-.28l-.05-.08c.7-.07.9-.3,1.53-.34v.02c.7-.4,1.25-.14,2-.54-.1.05.05.03.05.06.36-.1.74-.22.7-.4.27-.06.23,0,.28.06-.02-.07.2-.16.4-.2l-.1.05.6-.17-.15-.1c.32-.04.12.15.4.04l-.03-.1a7.748,7.748,0,0,1,1.18.01c1.77-.37,3.58-1.12,5.26-1.3l.1.07c.06.12.4-.3.5-.2l.18-.1c.06.01.18.01.1.06a.7.7,0,0,0,.3-.13l.2.03c.7-.1,1.26-.4,2-.54a17.93,17.93,0,0,0,3.45-.9c1.3-.5,2.96-.4,4.28-.93a.234.234,0,0,0,.15-.07l1.25-.28s6.07-1.42,1.22-1.34v-.03a4.322,4.322,0,0,0-1.57.44c-.12-.15-.57.12-.74.1v-.02c-.4.23-.9.1-1.26.3a.131.131,0,0,1,.1-.1c-.3.1-.68.23-.73.13a12.273,12.273,0,0,0-2.1.65l.02-.03c-.23.17-.33.1-.6.22-.02-.01-.04-.01-.04-.02a6.419,6.419,0,0,1-1.02.3l-.03-.06-.55.15.2-.04c-.03.2-.45-.01-.82.2-.38.07-.67.56-1.1.56-.17.13.13-.18-.13-.04-.03-.1.12-.1.03-.15-.26.1-.47.01-.8.16l-.03-.07c-.4.24-.85.1-1.12.3-.44.17-.36-.14-.8.1l-.2-.05c-.2.03-.12.16-.35.16,0-.07-.3.02-.18-.07-.53.03-1,.4-1.7.38-.12.16-.47.17-.56.28-.03-.05-.68.15-.33-.05.03-.02.1-.03.1-.01l.03-.08c-.4-.04-.67.24-1.06.3.12,0,.26-.05.18.03l-.35.07.06-.08-.53.1.1.06c-.26.02-.4-.08-.65.1-.12.1.27.04,0,.13q-.668.052-1.33.16c.06.07-.06.1-.17.15l-.03-.07c-.44.2-.2-.12-.65.07l-.06.12c-.38.24-.26-.1-.67.2.18-.06.12.14-.1.16l.04-.08c-.12.04-.15.08-.24.1.06-.06.01-.1-.17-.06l.1-.12-.3.2c-.28-.01-.68.2-.82.1a2.068,2.068,0,0,0-.7.23c.1-.1-.22-.04-.15-.15a1.365,1.365,0,0,1-.75.24l.03-.02c-.67.07-1.08.38-1.7.42.05.08-.27.1-.17.2-.58.25-1.15.05-1.3.43-.27.08-.34,0-.5.02l.06-.03a7.675,7.675,0,0,1-1.04.27c-.18.08-.18.24-.53.3.1-.1-.04-.04-.17-.01.08-.03.1-.06-.08-.06a.241.241,0,0,1-.08.06c-.22.06-.18.07-.08.06,0,.01.01.02.04.03-.24-.03-.6.15-.67.05-.63.18-1.07.4-1.6.57-.07-.04.04-.12.2-.18l-.37.1c-.02-.08.2-.1.32-.14-.48-.02-.9.35-1.45.36l-.1.1h-.03c.01.03-.1.1-.17.13-.1-.05-.03-.16-.3-.1a2.372,2.372,0,0,0-.84.28c.15-.02.1.03.05.06-.13.03-.22-.02-.32.04l-.03-.1c.07.07-.32.18-.36.23-.1-.05.2-.1.2-.17l-.78.2c-.26.14.07.07-.04.2a2.3,2.3,0,0,1-.76.2l.1.06a2.605,2.605,0,0,1-1.06.23c-.6.28-1,.5-1.26.65a10.078,10.078,0,0,1-.58-1.98l-7.7-20.95.15.3c-1.07-2.47-1.2-3.26-2.3-6.06-.03-.16-.1-.37-.08-.34-1.15-2.7-2.92-8.02-3.8-10.22l.05-.18-2.02-5.46.73,2.05c-.55-.6-1.32-4.2-3-8.1a35.818,35.818,0,0,0-2.6-5.46c-1-1.77-2-3.55-2.83-5.43-1-1.7.97,1.45-.42-1.13.1-.16.7,1.18.47.45-1.22-2.34-1.84-4.02-3.22-6.7v3.5l.55,1.12,3.47,7.38c.65,1.4,1.35,2.82,1.95,4.3l1.8,4.62,6.54,17.3c2.52,6.53,4.94,13.7,7.37,20.93l3.66,10.78,1.85,5.27.47,1.3.23.64a4.23,4.23,0,0,0,.36.8,3.83,3.83,0,0,0,2.97,1.89,3.254,3.254,0,0,0,1.32-.1l.46-.13a1.256,1.256,0,0,0,.18-.07l4.16-.95c.02.05.03.1.05.15v-.16l2.53-.6v.02l6.06-1.4,19.6-4.64c.26.82.37,1.47.63,2.37.97,2.6,2.1,5.24,3.14,7.83-.1.08-.2.15-.3.24a4.772,4.772,0,0,0-.45.54c-.15.23-.22.36-.3.5-.16.3-.33.57-.5.85a14.292,14.292,0,0,1-1.23,1.67,28.45,28.45,0,0,1-5.12,4.36,21.17,21.17,0,0,1-6.4,2.72,21.689,21.689,0,0,1-8.45.5,14.389,14.389,0,0,1-2.07-.45q-.522-.155-1.03-.35l-.1-.04c-.58-1.9-1.15-3.33-1.88-5.32a9.848,9.848,0,0,0,1.62-.54,9.952,9.952,0,0,0,1.77-.26c.38-.07.76-.2,1.12-.3.14-.16.48-.1.66-.26l.1.05a.231.231,0,0,1,.22-.07v.02c.1-.08.22-.07.27-.1v.02l.13-.04-.02.03a1.2,1.2,0,0,1,.53-.16l-.03-.08c.38.01.47-.2.82-.15v.02c.36-.32.68.01,1.05-.3-.05.04.03.04.03.06.2-.07.4-.13.36-.3.14-.03.13.03.16.1-.02-.07.1-.13.2-.16l-.04.04.3-.1-.1-.12c.18,0,.08.16.23.1l-.03-.1c.24-.03.4.1.65.14a18.433,18.433,0,0,1,2.78-.68l.06.08c.05.12.2-.24.26-.13l.1-.08c.03.02.1.03.05.07.1-.02.1-.04.15-.1l.12.06c.38-.02.66-.25,1.05-.3a4.865,4.865,0,0,0,1.82-.5c.66-.35,1.6-.04,2.28-.42.03.01.08-.04.08-.06l.67-.13s3.22-.7.54-1.17l.01-.03a1.2,1.2,0,0,0-.83.25c-.08-.16-.3.05-.4.02v-.02c-.2.18-.48,0-.67.16.01-.02,0-.06.05-.08-.15.06-.35.14-.4.05a2.69,2.69,0,0,0-1.1.4v-.03c-.1.14-.17.06-.3.14l-.02-.02c-.12.14-.43.12-.54.2l-.02-.06-.3.08.1-.01c0,.2-.25-.06-.43.1-.2.02-.32.46-.55.42-.08.1.06-.16-.08-.06-.03-.1.06-.07,0-.14-.13.08-.26-.04-.42.06l-.02-.07c-.2.2-.46.01-.6.17-.23.12-.2-.18-.43.02l-.12-.08c-.1.01-.05.14-.18.12-.01-.06-.16-.02-.1-.1-.3-.04-.5.26-.9.18-.05.14-.24.1-.28.2-.02-.05-.36.07-.2-.1.02-.01.05-.02.05,0l.01-.08c-.23-.1-.35.16-.55.18.06.01.14-.01.1.05l-.2.03.02-.07-.28.03.06.07c-.14-.01-.22-.12-.35.02-.06.07.15.07.01.13a4.381,4.381,0,0,0-.72.01c.04.08-.02.1-.08.12l-.02-.07c-.22.16-.13-.14-.35,0l-.02.1c-.2.2-.15-.12-.35.13.1-.03.08.15-.04.15l.01-.08c-.06.03-.08.06-.12.06.03-.05,0-.1-.1-.07l.04-.1-.15.17c-.16-.04-.36.1-.44.02,0,0-.3.02-.36.15.05-.08-.13-.07-.1-.16a.407.407,0,0,1-.4.15l.02-.01c-.36,0-.56.25-.9.22.03.08-.14.07-.08.17-.3.18-.63-.1-.67.27-.14.05-.2-.04-.27-.04l.03-.03a3.313,3.313,0,0,1-.55.15c-.1.06-.07.2-.26.22.04-.08-.03-.05-.1-.03.04-.02.05-.05-.05-.07a.1.1,0,0,1-.04.05c-.12.04-.1.05-.04.05q0,.015.03.03c-.14-.05-.33.08-.36-.02-.33.1-.55.27-.82.37-.04-.05.01-.1.1-.15l-.2.07c-.02-.08.1-.07.16-.1-.27-.07-.46.24-.77.2l-.04.08v-.01c.01.03-.04.1-.08.1-.06-.06-.03-.16-.17-.12-.12-.04-.3.1-.44.17.08-.01.06.04.04.07-.07.02-.12-.04-.17,0l-.03-.1c.05.08-.16.14-.18.18-.06-.06.1-.08.1-.14-.28.07-.14.04-.4.1-.13.1.05.08-.01.18a.782.782,0,0,1-.4.12l.07.07a.746.746,0,0,1-.56.1,1.134,1.134,0,0,1-.2.13l-.53-1.47-.86-2.8-.9,1.07c.15.53.48,1.28.7,1.85-.1-.36-.03-.26.04-.1.1.32.1.52.2.76l-.08.06c.04-.15.37.8.44.9-.01.2-.22-.47-.3-.54l.65,1.9c.3.66.04-.15.23.15a17.671,17.671,0,0,1,.65,1.87l.01-.24a14.751,14.751,0,0,1,.82,2.57.487.487,0,0,1,.03.07,2.218,2.218,0,0,0-.63.14,2.133,2.133,0,0,0-1.25,1.37c-.1.35-.1.55-.15.75-.04.22-.06.4-.08.6a14.106,14.106,0,0,0-.1,2.24,1.824,1.824,0,0,0,.04.68,38.959,38.959,0,0,0,.23,5.3s.16,1.6.58,3.65c.2,1.03.47,2.16.78,3.28.16.55.3,1.1.5,1.63.1.26.17.52.25.77a8.027,8.027,0,0,0,.3.82,2.841,2.841,0,0,0,2.4,1.57c.7-.03.93-.25.74-.32a3.031,3.031,0,0,1-1.7-.87,2.305,2.305,0,0,1-.45-.75,9.611,9.611,0,0,1-.22-1.1l-.3-1.86c.43-.01.85-.05.85-.05a49.027,49.027,0,0,0,5.97-1.03c2.32-.3,2.96-.24,5.35-.67,1.15-.16,2.36-.38,3.48-.57.5-.2,1.47-.22,2.08-.42l.25.03a2.217,2.217,0,0,1,.68-.13l-.01.02c.32-.1.68-.13.84-.18l-.01.02.4-.07-.06.04a11.619,11.619,0,0,1,1.65-.28l-.06-.08c1.1-.07,1.48-.3,2.5-.34h-.01c1.2-.42,2-.14,3.25-.55-.16.05.08.03.07.06.6-.1,1.22-.22,1.2-.4.43-.06.36,0,.43.06-.01-.07.36-.16.7-.22l-.15.05.96-.17-.2-.1c.52-.04.16.15.64.04l-.02-.1c.7-.08,1.15.03,1.85.01,2.86-.38,5.88-1.14,8.56-1.34l.13.07c.07.12.7-.3.82-.2l.3-.1c.1.01.28.01.13.06a1.625,1.625,0,0,0,.5-.13l.32.03c1.14-.1,2.07-.4,3.26-.55a41.666,41.666,0,0,0,5.64-.93c2.14-.52,4.74-.4,6.93-.95.07.01.26-.06.25-.08l2.04-.3s2.64-.4,4.13-.75a.557.557,0,0,1,0,.13l.26,1.2a9.756,9.756,0,0,0,.42,1.55c-.1-.2-.08.05-.13.08-.04.12-.1.2-.16.12a.71.71,0,0,1-.16.67.866.866,0,0,1-.35.22,3.352,3.352,0,0,1-.55.04l.13-.04c-2.68.26-4.5.87-6.93,1.06.13.13-1.14.24-.8.37-2.44.55-4.56.3-5.36,1a10.322,10.322,0,0,1-1.94.12l.26-.07-4.27.68a9.581,9.581,0,0,1-2.26.6c.44-.17-.13-.07-.66.01.33-.07.43-.12-.27-.1a1.782,1.782,0,0,1-.37.13c-.01-.01-.04-.01-.02-.02-.87.17-.7.18-.3.13-.02.02.02.03.15.04-.93,0-2.52.4-2.66.22-2.62.43-4.46.9-6.64,1.3-.26-.06.24-.2.87-.34l-1.54.27c-.01-.13.88-.2,1.35-.3-1.88.06-3.77.78-5.96.9l-.43.17h-.13a2.262,2.262,0,0,1-.78.27c-.32-.07-.02-.27-1.1-.1a27.416,27.416,0,0,0-3.5.64c.6-.07.42.02.17.1a10.405,10.405,0,0,0-1.27.13l-.08-.15c.23.12-1.37.37-1.56.46-.32-.07.82-.22.94-.33l-3.22.5c-1.13.3.23.12-.3.33a26.879,26.879,0,0,1-3.15.52l.4.08a23.54,23.54,0,0,1-4.32.6c-13.98,3.24-2.75,1.98-2.75,1.98,5.62-.53,8.44-1.36,15.05-2.46,5.84-.8,7.43-.77,13.46-1.78,2.9-.4,5.95-.93,8.77-1.38,1.3-.4,3.7-.56,5.25-.97l.63.03a8.469,8.469,0,0,1,1.73-.3l-.03.04c.8-.2,1.73-.3,2.13-.4l-.03.04,1-.16-.16.07c1.4-.3,2.87-.53,4.17-.68l-.13-.13c2.8-.25,3.75-.7,6.27-.88l-.03.04.57-.15.27-.06c.08-.02.18-.04.33-.08a3.352,3.352,0,0,0,1.32-.73,3.237,3.237,0,0,0,1.03-2.5l-.1-.54Zm-56.88,5.3c-.1-.04.1-.12.34-.18l-.6.1c-.01-.08.35-.1.53-.14-.75-.02-1.5.36-2.37.37l-.17.1h-.05c.01.03-.18.1-.3.14-.13-.05-.02-.16-.44-.1a6.5,6.5,0,0,0-1.38.28c.24-.02.17.03.07.07a2.532,2.532,0,0,0-.5.04l-.03-.1c.1.08-.54.18-.6.23-.13-.05.32-.1.37-.17l-1.28.2c-.44.14.1.08-.1.2a7.543,7.543,0,0,1-1.25.22l.16.06a6.268,6.268,0,0,1-1.72.23c-.9.25-1.55.45-1.98.6l-.1-.62.07.1c-.52-2.75-.76-4.48-1.2-6.36.23-.33-.16-2.28-.08-2.94l.02.06a7.281,7.281,0,0,1-.08-1.04,7.244,7.244,0,0,0,1.46-.02,8.407,8.407,0,0,0,1.4.34,7.425,7.425,0,0,0,.93.13c.17-.1.4.08.57.02l.05.08c.07-.02.14-.03.18.02l-.01.02c.1-.03.18.03.23.01l-.01.02h.1l-.03.02a.826.826,0,0,1,.44.08l.01-.1c.25.18.4.04.63.23v.02c.4-.1.44.33.84.24-.05.01,0,.05-.01.07.15.04.3.1.38-.06.1.05.06.1.05.15.03-.07.13-.06.22-.02l-.05.01.25.08.01-.15c.1.1-.04.17.1.2l.05-.1c.16.1.17.32.3.48.6.4,1.45.65,1.86,1.3l-.03.1c-.07.1.27-.02.22.1l.1.01c0,.03.02.08-.03.08.05.05.07.04.14.05l.01.12c.17.26.48.3.67.57.15.38.73.8,1.06,1.1.53.34.5,1.2.97,1.57-.01.03.05.05.07.04.1.16.16.32.25.48a8.207,8.207,0,0,0,.54.9.607.607,0,0,0,.16.16c-.46.07-.9.18-1.36.27Zm52.4-8.08.05-.04a10.573,10.573,0,0,0-2.57.45c-.15-.15-.92.12-1.2.1h.02c-.66.23-1.4.1-2.05.32.02-.02.03-.07.18-.1-.47.1-1.12.23-1.17.14a29.43,29.43,0,0,0-3.44.66l.05-.04a5.665,5.665,0,0,1-1,.22c-.03-.01-.06-.01-.06-.02-.44.17-1.32.22-1.68.32l-.03-.06-.9.15.34-.04c-.1.2-.7-.01-1.34.2-.62.07-1.18.57-1.83.57-.3.13.25-.18-.2-.04-.03-.1.2-.1.07-.15-.44.1-.74.01-1.28.16l-.03-.07c-.7.24-1.37.1-1.82.3-.73.17-.53-.14-1.28.12l-.3-.05c-.33.03-.22.16-.6.16.01-.07-.47.02-.26-.07-.84.03-1.66.4-2.77.4-.22.16-.78.17-.94.3-.04-.05-1.1.16-.5-.05.05-.02.15-.03.14-.01l.06-.08a9.1,9.1,0,0,0-1.73.32c.2,0,.43-.05.27.03l-.57.08.1-.08-.85.1.13.06a2.34,2.34,0,0,0-1.04.1c-.2.1.4.04-.03.13-.56.03-1.4.08-2.12.17.08.08-.1.1-.3.15l-.03-.07c-.74.22-.3-.12-1.04.07l-.12.12c-.65.25-.4-.1-1.1.2.3-.06.16.14-.2.16l.08-.1a1.649,1.649,0,0,1-.4.1c.1-.06.05-.1-.25-.06l.2-.12-.54.22c-.44-.01-1.12.2-1.3.1a5.043,5.043,0,0,0-1.14.23c.18-.1-.34-.05-.2-.15a3.739,3.739,0,0,1-1.23.25l.05-.02c-1.07.08-1.8.4-2.75.43.06.08-.45.1-.3.2-.96.26-1.82.05-2.12.44a2.555,2.555,0,0,1-.77.02l.1-.03-1.7.28c-.3.08-.33.24-.9.3.17-.1-.05-.04-.26-.01.13-.03.17-.06-.1-.06a.4.4,0,0,1-.15.06c-.35.06-.3.07-.13.06q-.015.015.06.03c-.37-.03-1,.16-1.06.06-.35.06-.66.13-.95.2a1.806,1.806,0,0,0,.18-.85h.03a.844.844,0,0,0-.38-.64c.14-.1-.1-.24-.1-.33h.02c-.2-.1-.1-.4-.3-.5.02,0,.06-.02.08.01-.1-.1-.23-.24-.15-.3-.2-.27-.43-.66-.68-.74l.03-.01c-.16-.03-.1-.1-.23-.18a.049.049,0,0,0,.01-.03c-.17-.03-.24-.3-.35-.34l.05-.05-.18-.18.05.08c-.16.1-.04-.22-.25-.3-.1-.15-.52,0-.58-.2-.12,0,.15-.04.02-.1.07-.07.08,0,.12-.08-.12-.06-.07-.22-.23-.3l.05-.06c-.24-.04-.2-.34-.4-.34-.2-.1.05-.26-.2-.3v-.13c-.06-.07-.13.05-.18-.06.05-.04-.07-.12.02-.13-.12-.23-.45-.2-.6-.53-.13.06-.2-.1-.3-.05.03-.05-.24-.2-.03-.18.02,0,.04.02.02.04l.06-.05c-.06-.22-.3-.14-.44-.26.03.05.1.08.03.1l-.14-.1.06-.03-.2-.17-.01.08c-.08-.1-.05-.24-.23-.22-.08.02.04.15-.08.1a2.189,2.189,0,0,0-.47-.43c-.02.1-.07.06-.13.04l.03-.07c-.24-.01,0-.2-.23-.2l-.08.08c-.24.05-.03-.18-.32-.1.08.02-.03.17-.1.1l.05-.06c-.06-.01-.1.01-.12-.02.05-.02.06-.1-.03-.1l.1-.06-.2.06c-.08-.13-.3-.1-.32-.22,0,0-.24-.14-.33-.06.07-.05-.06-.12.01-.18-.1.05-.3.04-.36-.07h.02c-.27-.17-.53-.04-.76-.22-.01.1-.14,0-.13.12-.3.04-.44-.35-.62-.04-.13-.01-.13-.12-.18-.15h.03a3.979,3.979,0,0,1-.48-.08c-.1.01-.14.17-.28.1.06-.05,0-.05-.06-.07.04,0,.05-.02-.01-.08-.01.02-.03.02-.05.03-.1-.02-.1.01-.04.02a.076.076,0,0,0,.01.04c-.08-.1-.28-.05-.27-.16a4.6,4.6,0,0,0-.77.05c-.02-.06.05-.1.12-.1l-.17-.01c.01-.08.1-.03.16-.04-.18-.16-.44.06-.66-.1l-.06.06-.01-.01c0,.03-.06.07-.1.08-.02-.07.02-.16-.1-.17-.1-.08-.27,0-.4.02.06.02.04.06.01.08-.06,0-.1-.08-.13-.05l.01-.1c.01.1-.17.08-.2.1-.03-.07.1-.05.12-.1l-.36-.03c-.13.06.01.1-.05.17a.6.6,0,0,1-.35,0l.03.1a.531.531,0,0,1-.47-.07c-.07.03-.13.05-.2.08.08-1.08.28-2.15.3-3.1a.7.7,0,0,1,.04.45l.1-.75a.444.444,0,0,1,.16-.26c.18-.1.34-.01.33.07.12.04.6.2,1,.3q.624.165,1.26.28a20.6,20.6,0,0,0,2.57.28,15.8,15.8,0,0,0,4.14-.34l-.13.06c1.06-.3,1.4-.2,2.57-.48.07.01.16.01.14.02,1.12-.35,3.37-.8,4.25-1.2l.1.08a21.16,21.16,0,0,0,2.17-.98l-.8.36c.08-.2.5-.35,1.1-.57a7.546,7.546,0,0,0,1.98-1.15c1.38-.88,2.2-2.46,3.4-3.53.42-.68-.3.67.4-.27.14.08-.3.48,0,.34a17.659,17.659,0,0,0,2.12-2.6l.14.02c.2-.43.44-.82.66-1.2a1.606,1.606,0,0,1,.64-.63,3.3,3.3,0,0,1,1.5-.28c1.82.32,1.13.64,3.08.86l.7.34a.127.127,0,0,0,.06.01,1.625,1.625,0,0,1-.03.2c-.2.33-.38.36-.48.75a2.952,2.952,0,0,0-.2.54c.08.13-.1.22-.04.36l-.08.01c.02.05.02.1-.03.1l-.02-.01c.03.07-.03.1-.01.15l-.02-.01-.02.06-.02-.02a.328.328,0,0,1-.08.26l.08.03c-.16.13-.02.26-.2.36l-.02-.01c.13.28-.28.23-.16.52-.01-.04-.05-.01-.06-.02-.02.1-.05.2.1.27-.03.06-.07.03-.14.01a.108.108,0,0,1,.05.15l-.02-.04-.04.16.14.03c-.07.06-.17-.05-.17.04l.1.05c-.07.1-.26.1-.38.16-.24.4-.17,1-.54,1.3l-.1-.02c-.12-.04.12.2.01.15l.03.07c-.03,0-.06.02-.08-.01-.02.04,0,.05.02.1l-.1.01c-.13.14-.06.35-.16.52-.24.15-.3.6-.3.88.03.4-.6.58-.56,1-.02,0,0,.05.02.05l-.15.3s-.7,1.47.77.77l.02.02c.14-.14.2-.24.12-.4.17.05.08-.13.15-.15l.01.01c-.08-.16.2-.17.13-.3.01.01.05.03.05.05.01-.08.02-.2.1-.16.05-.18.2-.4.1-.58l.02.02c-.07-.1.02-.1,0-.18h.03c-.07-.1.07-.2.06-.28l.06.02.05-.14-.04.05c-.16-.1.15-.06.1-.2.06-.08-.27-.34-.14-.4-.06-.08.1.1.08,0,.1.04.04.06.12.07-.01-.1.14-.07.12-.18l.07.03c-.08-.16.18-.16.1-.3-.01-.14.24.02.15-.16h.1c.04-.04-.1-.1-.03-.12.06.03.08-.05.12.01.15-.08-.02-.3.2-.4-.1-.1.01-.14-.07-.2.05.02.08-.16.15-.02.01.01,0,.03-.02.02l.06.04c.17-.04.01-.2.07-.3-.03.02-.04.06-.08.01l.05-.08.05.04.1-.1-.08-.01c.06-.05.2-.02.12-.13-.04-.06-.12.02-.1-.06a2.1,2.1,0,0,0,.28-.25c-.08-.02-.07-.05-.07-.1l.07.03c-.04-.16.17.03.14-.12l-.1-.06c-.1-.16.17.01.03-.2-.01.05-.16-.05-.1-.1l.06.04c0-.04-.02-.06,0-.07.03.03.1.05.1,0l.07.07-.08-.14c.1-.03.06-.18.16-.16,0,0,.1-.12.02-.2.05.06.1-.01.17.04-.06-.07-.07-.2.03-.2v.01c.15-.12.01-.32.17-.42-.08-.03-.01-.1-.1-.1-.03-.2.33-.18.04-.37.01-.07.1-.05.14-.07l.01.02a.61.61,0,0,1,.1-.27c-.01-.06-.15-.13-.08-.2.05.05.05.01.06-.02,0,.02.02.04.08.02-.02-.01-.02-.03-.03-.04.01-.05-.01-.05-.03-.03-.01-.01-.02-.01-.04-.01.1-.02.06-.15.16-.12a2.512,2.512,0,0,0,.01-.47.116.116,0,0,1,.1.1l.02-.1c.07.03.02.07.02.1.17-.06-.02-.28.15-.36l-.05-.05h.01a.116.116,0,0,1-.06-.08c.07.01.15.07.17,0,.08-.02.03-.16.03-.24-.03.03-.06,0-.07-.02.01-.03.08-.02.07-.06l.1.04c-.1-.02-.05-.12-.08-.15.07.01.03.07.08.1.05-.13.02-.07.07-.2-.03-.1-.1-.02-.15-.1.01-.06,0-.12.04-.17a2.843,2.843,0,0,1,.5.14c-.08.1,1.12.37.57.33,1.42.48,2.94.7,4.63,1.13a1.692,1.692,0,0,1-.03.3c-.17.32-.35.36-.43.73a3.207,3.207,0,0,0-.15.53c.1.12-.08.22-.02.35h-.08c.02.04.03.1-.02.1v-.01c.03.07-.02.1,0,.14l-.02-.01-.01.06-.02-.02a.33.33,0,0,1-.06.26l.08.02c-.15.13-.01.25-.17.35h-.02c.15.26-.26.23-.12.5-.02-.03-.05-.01-.06-.02-.01.1-.03.2.13.26-.03.06-.07.03-.13.02a.1.1,0,0,1,.06.14l-.02-.03-.03.15.14.02c-.07.06-.17-.04-.16.04l.1.04c-.06.1-.25.1-.37.16-.2.4-.1.96-.44,1.27l-.1-.01c-.12-.04.14.17.02.15l.04.07c-.03,0-.06.02-.08-.01-.02.04,0,.05.02.1l-.1.02c-.12.14-.03.34-.12.5-.23.15-.24.6-.24.86.06.4-.56.58-.48.98-.02,0,.01.05.02.05l-.13.3s-.6,1.43.82.7l.02.02c.13-.14.18-.24.1-.4.17.04.07-.13.13-.15l.01.01c-.1-.15.18-.17.1-.3.01.01.06.03.05.05.01-.08.01-.2.1-.16.04-.18.17-.4.06-.56l.02.02c-.08-.1.01-.08-.01-.17h.03c-.07-.1.06-.2.04-.27l.06.02.04-.14-.03.04c-.17-.08.15-.06.07-.2.06-.08-.3-.32-.17-.38-.06-.07.12.1.08,0,.1.03.04.05.12.06-.02-.08.13-.07.1-.18l.07.02c-.1-.15.17-.16.07-.28-.02-.13.23.01.14-.16l.1-.01c.03-.04-.1-.08-.04-.1.06.03.07-.05.12,0,.14-.1-.04-.3.18-.4-.1-.08,0-.13-.08-.2.05.01.07-.16.14-.03.01.01,0,.02-.02.02l.06.04c.16-.04-.01-.2.05-.28-.03.02-.04.06-.08.01l.04-.08.05.04.08-.1-.08-.01c.06-.05.2-.02.1-.13-.04-.05-.12.02-.12-.05a1.229,1.229,0,0,0,.26-.25c-.08-.02-.07-.05-.08-.08l.07.02c-.06-.15.17.02.13-.12l.05.03-.14-.08c-.1-.15.17,0,.02-.18,0,.05-.16-.04-.1-.08l.06.04c0-.04-.03-.06-.01-.07.03.03.1.05.1,0l.07.06-.1-.13c.1-.04.04-.17.15-.16,0,0,.1-.12.01-.2.05.05.1-.01.18.04-.06-.06-.08-.2.01-.2h.01c.14-.12-.01-.3.14-.4-.08-.02-.01-.08-.12-.1-.05-.18.3-.18.01-.36.01-.07.1-.05.13-.08l.01.02a.811.811,0,0,1,.07-.26c-.01-.06-.16-.12-.1-.2.05.05.05.01.06-.02,0,.02.02.04.08.01-.02-.01-.02-.03-.03-.04.02-.06,0-.06-.02-.04-.01,0-.02-.01-.04-.01.1-.02.05-.15.15-.12a3.317,3.317,0,0,0-.02-.45.107.107,0,0,1,.1.1l.02-.1c.07.03.02.07.03.1.16-.06-.04-.27.12-.35l-.05-.05h.01c-.03-.01-.06-.06-.07-.08.07.01.15.06.17-.01.08-.03.02-.15.01-.23-.02.03-.06.01-.07-.02.01-.03.08-.03.06-.06l.1.03c-.1-.02-.06-.12-.1-.14.07.01.04.07.08.1.04-.13.02-.06.06-.2-.04-.1-.1-.02-.15-.08v-.07q.628.185,1.24.42c.63-.05,1.94.44,2.42.4.05.1,2.68.76,1.12.53-.13-.02-.36-.1-.34-.12l-.2.07a40.727,40.727,0,0,0,4.27,1.13c-.43-.17-1.02-.33-.6-.3l1.38.43-.32.01,2.04.68-.25-.2a9.4,9.4,0,0,0,2.46.88c.54.07-.9-.47.17-.17l4.9,2c-.1-.2.34-.01.8.14v.14c1.78.58.54.5,2.2,1.16l-.18.01.53-.01a2.531,2.531,0,0,1,.73.36.853.853,0,0,1,.27.27,1.741,1.741,0,0,0,.23.25c.04.05.08.06.17.15l.37.4c-.4-.55.07-.45.46.35l-.22-.13a5.176,5.176,0,0,1,.5.83c-.18-.23-.22-.06.1.57l-.34-.37c.26.37.5.75.74,1.15.2.7.53,1.66.7,2.35-.38.01-.96.01-1.74.01Z"/>
  </g>
</svg>
