<svg xmlns="http://www.w3.org/2000/svg" width="247.402" height="230.537" viewBox="0 0 247.402 230.537">
  <g id="_188" data-name="188" transform="translate(-131.158 -205.135)">
    <path id="Path_12552" data-name="Path 12552" d="M377.6,413.66c-.74-2.32-2.22-6.25-4.5-8.65-2.86-3.02-29-5.6-36.47-6.23a2.6,2.6,0,0,0-2.4,1.27l-4.08-9.33-27.52,8.8,5.76,14.75a1.247,1.247,0,0,0-.4.97c-.1,2.84.4,9.14,4.65,18.12a2.321,2.321,0,0,0,2.7,1.13l60.9-18.32a2.108,2.108,0,0,0,1.35-2.52Zm-39-39-.74-1.76-2.7.92L268.2,206.06H193.8c.06,4.86,1.05,12.88,5.4,23.75q-.013.166-.04.33c-2.68,23.5-6.6,55.43-9.35,66.22-2.54,9.92-36.36,62.82-36.36,62.82l-1.56-.82-5.68,8.1a3.891,3.891,0,0,0,1,5.5l7.4,4.96-8.14,12.6a1.273,1.273,0,0,0-1.28,0c-2.4,1.4-7.6,5.2-13,13.5a2.564,2.564,0,0,0,.5,3l30.17,28.42,34.52.1c.3-4.5.4-7.53-1-9.13-5.3-6.1-16.6-8.5-16.6-8.5l-5.6-11.6a2.583,2.583,0,0,0-1.66-1.3.673.673,0,0,1,.1-.01l7.28-10.17,3.18,2.13a4.117,4.117,0,0,0,5.6-1l5.72-8.2-1.75-1.35s26.25-33.75,32.43-43.06c8.52-12.9,14.43-20.17,19.87-34.55l21.5,37.57c7.38,13.97,24.44,43.85,24.44,43.85l-3,1,4.5,8.62a4.367,4.367,0,0,0,5.3,2.1l41-13.5c4.76-2.36,1.02-10.3-.08-12.8ZM167.23,404.2c.13,0,.25.01.38.01C167.48,404.21,167.36,404.2,167.23,404.2Zm-.78-.03c.1,0,.2.01.28.01C166.63,404.18,166.55,404.17,166.45,404.17Z" fill="#fff"/>
    <path id="Path_12553" data-name="Path 12553" d="M202.5,207.3h0l-.54.1Zm9.34,57.66-.01-.1a29.236,29.236,0,0,0-.94,4.3c-.22.16-.37,1.5-.53,1.93v-.04c-.13,1.16-.65,2.3-.8,3.4a.667.667,0,0,1,.01-.33,7.653,7.653,0,0,1-.5,1.92l-1.2,5.77-.01-.1c-.06.7-.2.9-.32,1.68-.02.04-.04.1-.05.08-.07.78-.5,2.2-.6,2.82h-.07l-.33,1.5.14-.56c.13.24-.38,1.1-.5,2.22-.26,1-.1,2.15-.44,3.18-.03.52-.03-.47-.14.3-.1,0,.02-.36-.1-.2-.13.75-.38,1.2-.53,2.1h-.08c-.14,1.22-.62,2.22-.68,3.04-.23,1.24-.4.77-.56,2.08l-.2.47c-.14.54.03.42-.16,1-.05-.05-.23.75-.2.4-.42,1.35-.5,2.8-1.1,4.58a12.683,12.683,0,0,1-.26,1.58c-.01.02-.68,1.66-.4.68a.56.56,0,0,1,.1-.2l-.02-.14c-.5.87-.68,1.73-1.18,2.64.16-.26.35-.63.27-.36l-.45.85.04-.2-.7,1.25.16-.14a7.014,7.014,0,0,0-.9,1.5c-.13.34.42-.53.07.13l-1.93,3c.13-.05-.04.22-.2.52l-.08-.01c-.57,1.15-.38.32-.97,1.45v-.12l-.04.37c-.47,1.05-.46.45-.95,1.64.25-.44.26-.12-.1.4l.02-.17a6.757,6.757,0,0,1-.34.6c.08-.2-.03-.15-.3.3l.1-.33-.4.88-1.24,1.83a11.525,11.525,0,0,0-1,1.68c.1-.3-.38.42-.3.16a8.187,8.187,0,0,1-1.08,1.8l.04-.08-2.53,3.94c.1-.01-.4.67-.18.56-.82,1.46-1.85,2.42-1.9,3.12a8.551,8.551,0,0,1-.8,1.03l.08-.16L183,338.83a6.764,6.764,0,0,1-.73,1.38c.12-.3-.1.04-.28.33.12-.2.14-.26-.16.1-.02.07-.07.16-.1.24-.01,0-.02.01-.02,0-.3.5-.23.43-.08.2,0,.02.02,0,.08-.06a15.439,15.439,0,0,1-1.07,1.43l-2.36,3.86c-.14.1.01-.2.23-.58l-.57.88c-.06-.05.3-.53.46-.8-.8.96-1.32,2.2-2.24,3.36l-.12.3-.06.07a1.314,1.314,0,0,1-.23.5c-.17.13-.13-.1-.53.5a19.991,19.991,0,0,0-1.27,2c.24-.33.2-.2.12-.04a6.781,6.781,0,0,0-.5.68l-.1-.02c.15-.07-.45.84-.5.97-.17.13.27-.5.27-.6l-1.2,1.8c-.38.68.15-.07.01.3l-1.18,1.78.2-.16a17.265,17.265,0,0,1-1.67,2.4c-4.84,8.3-.37,2.2-.37,2.2,2.28-3,3.17-4.76,5.63-8.5,2.24-3.25,2.96-4.02,5.18-7.46l3.25-4.97c.4-.83,1.38-2.1,1.88-3.04l.3-.3a6.986,6.986,0,0,1,.63-1v.03c.26-.5.62-1,.75-1.24v.03l.36-.57-.04.1c.48-.84,1-1.67,1.5-2.4h-.1c1.1-1.5,1.3-2.2,2.32-3.54v.03c.95-1.92,1.94-2.75,2.93-4.73-.12.25.1-.08.1-.05.52-.87,1.07-1.8.94-1.9.4-.62.36-.48.47-.53-.07-.04.24-.6.54-1.1l-.1.24.84-1.42-.3.2c.5-.72.26-.1.67-.83l-.1-.05c.65-1.02,1.16-1.54,1.83-2.5a67.012,67.012,0,0,0,3.5-6.62,13.211,13.211,0,0,0,.66-1.83l.4-1.78q.392-1.711.87-3.4l.13-.17c.15-.06.1-1.26.25-1.4l.06-.53c.06-.14.15-.44.12-.18a4.147,4.147,0,0,0,.14-.84l.2-.5c.5-1.85.72-3.48,1.2-5.44.7-2.33,1.6-6.8,2.1-9.4.65-3.64,2.13-7.72,2.78-11.45a1.19,1.19,0,0,0,.06-.44l.8-3.37c.03.03,3.9-16.32-.04-4.13Z"/>
    <path id="Path_12554" data-name="Path 12554" d="M378.56,413.47l-.14-.54-.14-.48-.32-.97a12.4,12.4,0,0,0-.98-2.08c.22.37-.01-.2.04-.18-.67-1.4-1.6-2.85-1.87-2.7-.64-.96-.47-.82-.46-1-.04.04-.24-.13-.5-.4a6.95,6.95,0,0,0-1.05-.97c.14.08.3.2.44.3a7.425,7.425,0,0,0-2.48-1.25l.4.4c-1.24-.5-.23-.4-1.47-.73l-.04.2-4.44-1.55c-7.2-1.5-15.02-1.88-21.72-2.94l-.28-.18c-.1-.23-1.9.13-2.13-.1l-.8.02c-.22-.06-.68-.14-.28-.16a6.237,6.237,0,0,0-1.27-.03l-.77-.2-1.06-.12-.54-.05a3.143,3.143,0,0,0-.7.04,3.57,3.57,0,0,0-1.77.77l-.1-.2.13.14-.5-1.23v.2a5.6,5.6,0,0,0-.6-1.5c-.2-.28.15.6-.14-.01l-1.17-3.06c-.04.13-.15-.15-.3-.42l.05-.06c-.28-.52-.3-.63-.3-.75a.511.511,0,0,0-.04-.22,2.057,2.057,0,0,0-.08-.2c-.04-.08-.1-.2-.14-.3l2.58-.86,5.04-1.7a4.963,4.963,0,0,0,3.08-4.6,12.846,12.846,0,0,0-.67-4.4,24.085,24.085,0,0,0-1.2-3.04c-.75-1.57-1.18-2.25-1.08-1.73.05.26.24.83.55,1.77a31.436,31.436,0,0,1,1.1,4,12.04,12.04,0,0,1,.24,2.97,4.381,4.381,0,0,1-1.3,3.1,3.285,3.285,0,0,1-.77.53,1.339,1.339,0,0,1-.4.17c-.18.05-.35.1-.53.16l-2.25.66-5.06,1.5.37-.17c-8.6,2.7-13.98,4.46-19.8,6.62-1.02.03-7.04,2.3-9.07,2.86l.18-.08q-1.957.721-3.94,1.37a5.213,5.213,0,0,1-1.8.4,3.5,3.5,0,0,1-1.65-.4,3.582,3.582,0,0,1-1.25-1.1c-.28-.4-.6-1.14-.92-1.72-.63-1.22-1.27-2.42-1.93-3.57a6.5,6.5,0,0,1,.8,1.3l-2.2-4.14.3-.07a12.8,12.8,0,0,0,2.01-.66l.83-.26a.3.3,0,0,1-.04-.08l1.6-.67c1.73-.56,2.24-.57,4-1.25.85-.28,1.74-.64,2.57-.95.35-.26,1.1-.38,1.52-.65h.2a1.2,1.2,0,0,1,.5-.2v.02c.22-.14.5-.2.6-.27v.02l.3-.1-.04.05a6.305,6.305,0,0,1,1.22-.46l-.06-.07c.84-.2,1.08-.47,1.85-.62v.02c.85-.54,1.52-.37,2.4-.9-.1.07.07.02.06.05.43-.18.9-.35.85-.52.32-.1.28-.04.34.01-.03-.07.24-.2.5-.3l-.1.07.7-.28-.2-.08c.4-.1.15.13.5-.03l-.04-.1a11.6,11.6,0,0,1,1.44-.2c2.13-.7,4.3-1.77,6.34-2.27l.12.05c.08.1.48-.37.6-.28l.2-.14c.07,0,.22-.03.1.04a1.623,1.623,0,0,0,.35-.18h.25c.86-.23,1.5-.63,2.4-.9a26.3,26.3,0,0,0,4.16-1.54c1.54-.75,3.6-.92,5.16-1.7a.369.369,0,0,0,.18-.1l1.5-.5s6.82-2.35,1.98-1.66c.07-.03.14-.06.2-.08l1.55-.6.46.97.37.76c.2.37.34.66.47.87.24.42.35.54.36.43a4.038,4.038,0,0,0-.25-.97c-.04-.13-.1-.27-.14-.4-.03-.07-.05-.15-.08-.23l-.12-.33-.72-1.87-2.23.7-.17.05h-.11l-.12.02c-.03-.1-.02-.12-.07-.27l-.47-1.25-.85-2.25-.86-2.24c-6.35-16.73-10.15-25.16-18.15-44.9l-15.76-40.1-10.5-26.14c-1.8-3.9-4.4-11.03-6.46-15.7l-.62-1.87c-.7-1.6-1.5-3.5-2.1-5.16l.07.1c-1.05-2.4-2.1-5.16-2.62-6.35l.07.1-1.2-2.95.25.5c-1.78-4.2-3.53-8.56-5.02-12.43l-.01.37-1.3-3.34-1.37-3.44-7.02.05q-3.57.026-7.14-.06l.1-.04c-10.1.38-15.97-.26-26.4.1,1.3-.05-.56-.07-.45-.1-4.8.04-9.92.06-10,.35-3.5,0-2.85-.1-3.3-.2a46.65,46.65,0,0,1-5.74.18l1.26-.05-7.82.04,1.54.24c-4.15-.07-1.05-.3-5.02-.23l.05.2-2.05-.03-1.96-.05-1.3-.03-.33-.01c-.05.01-.12-.02-.15.01v1.97l.01.5v.43a48.34,48.34,0,0,0,.7,7.33,81.2,81.2,0,0,0,4,13.5l-4.15,36.43c-1.08,7.82-1.9,12.75-2.74,17.73l-1.43,7.86-1,4.57c-.22.8-.53,1.53-.8,2.36l-1.17,2.6c-3.4,6.92-7.57,14.16-11.4,20.74-1.66,3.22-5.12,8.6-7.2,12.35l-.97,1.36c-.7,1.3-1.6,2.8-2.43,4.02l.02-.1c-1.08,1.93-2.44,4-2.98,4.97l.02-.1-1.4,2.28.2-.42c-1.96,3.3-4.06,6.68-5.97,9.6l.28-.17-1.42,2.17c-.08.12-.15.23-.23.34,0,.02-.06.04,0,.06l-.38-.2-.22-.12h-.03l.3.15-.93-.48a2.1,2.1,0,0,0-.3-.15l-.13.18-.97,1.4-3.23,4.7-1.2,1.7-.68.94a4.565,4.565,0,0,0-.68,1.36v-.12a5.015,5.015,0,0,0,.4,3.7,4.93,4.93,0,0,0,1.09,1.38,5.22,5.22,0,0,0,.66.5l.57.38,4.28,2.94,2,1.4.96.66c1.9,1.3,3.95,2.66,6.4,4.15-.94-.57.35.32.26.3,3.4,2.22,7,4.6,7.2,4.4,2.45,1.64,1.95,1.4,2.2,1.7a34.673,34.673,0,0,1,4.13,2.54l-.9-.55,5.16,3.4c-.85,1.2-1.7,2.4-2.56,3.47l-.18.1c-.15-.01-.5,1.04-.7,1.1l-.23.43c-.1.1-.28.3-.17.1a3.727,3.727,0,0,0-.4.66l-.34.34-.32.44a3.652,3.652,0,0,0-.47-.84l.03-.01a1.359,1.359,0,0,0-.8-.47c.06-.17-.26-.2-.3-.3h.02c-.28-.03-.36-.37-.62-.4a.084.084,0,0,1,.1-.01c-.16-.08-.37-.18-.33-.27-.36-.2-.8-.57-1.12-.58l.03-.01c-.2.01-.17-.1-.34-.14,0-.02-.01-.03,0-.03-.2,0-.4-.25-.54-.3l.03-.06-.28-.17.1.08c-.14.13-.14-.23-.4-.27-.17-.14-.6.07-.73-.14-.14.01.16-.06-.01-.1.05-.08.1-.01.1-.1-.16-.05-.16-.23-.37-.3l.03-.07c-.3-.03-.35-.35-.57-.34-.26-.1-.02-.28-.34-.32l-.03-.14c-.1-.08-.14.05-.22-.06.04-.05-.1-.14-.01-.14-.2-.25-.58-.22-.8-.58-.14.05-.26-.12-.37-.08.02-.05-.32-.23-.07-.2.02,0,.05.02.03.04l.06-.05c-.1-.24-.38-.16-.55-.3.04.06.12.1.04.1l-.17-.12.07-.03-.23-.2v.1c-.1-.12-.07-.25-.28-.26-.1.01.06.17-.08.1a3.979,3.979,0,0,0-.54-.55c-.03.08-.08.04-.15.02l.03-.07c-.28-.07.01-.2-.26-.27l-.1.06c-.3-.01-.02-.2-.36-.2.1.05-.05.16-.14.06l.07-.04c-.07-.03-.1-.02-.14-.06.06-.01.08-.07-.02-.12l.1-.03h-.2c-.1-.15-.35-.2-.34-.33,0,0-.25-.23-.38-.18.1-.02-.04-.15.04-.18-.12.02-.37-.07-.4-.2h.02c-.27-.28-.6-.27-.83-.55-.04.08-.16-.06-.18.06-.35-.1-.4-.55-.7-.34-.14-.07-.1-.17-.17-.23l.04.01a5.678,5.678,0,0,1-.52-.32c-.1-.03-.22.1-.36-.06.1-.02.01-.05-.05-.1.05.02.07.01.01-.08a.085.085,0,0,1-.07,0c-.1-.06-.1-.03-.06.01-.01.01-.01.02-.01.04-.06-.14-.3-.2-.26-.3a9.64,9.64,0,0,0-.9-.4c0-.07.1-.07.18-.03l-.2-.1c.05-.07.13.03.2.06-.15-.26-.53-.2-.72-.47l-.1.02-.01-.02c-.02.03-.1.03-.15.01,0-.08.1-.13-.04-.2-.06-.12-.3-.16-.46-.22.06.06.02.07-.02.07-.06-.04-.06-.12-.13-.13l.05-.08c-.02.1-.22-.03-.27-.02,0-.08.13.02.18-.02l-.4-.25c-.18-.03-.03.1-.14.12-.13-.07-.3-.1-.4-.23v.1a.871.871,0,0,1-.5-.37c-2.07-.57-.88.53-.88.53.56.6,1.04.63,1.87,1.1a12.17,12.17,0,0,0,1.52,1.2c.34.24.72.46,1.07.67.23,0,.44.3.7.33l.03.1a.248.248,0,0,1,.22.12l-.02.01c.13.02.22.12.28.13l-.02.01.12.07-.04.01a1.5,1.5,0,0,1,.52.31l.04-.08c.27.3.5.23.73.53h-.02c.5.06.5.53,1,.6-.06-.01,0,.05-.02.07.2.1.4.22.5.08.13.1.08.12.06.18.04-.06.17-.01.27.05h-.06l.3.17.02-.16c.13.14-.06.17.1.24l.06-.1c.2.16.23.4.38.6a23.311,23.311,0,0,1,2.6,1.7l-.01.1c-.06.12.33-.01.3.1l.13.01c.01.04.05.1-.01.1a.261.261,0,0,0,.18.06l.05.13c.3.28.68.34,1,.6a5.684,5.684,0,0,0,1.74,1.08c.76.28,1.23,1.2,2.02,1.48.01.03.1.03.1.02l.6.43a6.724,6.724,0,0,0,1.5.8l-.9,1.3c-.14.2-.28.4-.42.62a4.148,4.148,0,0,0-1.65.02,15.166,15.166,0,0,1-2.1.23,27.366,27.366,0,0,1-6.8-.9,21.589,21.589,0,0,1-6.45-2.97,21.027,21.027,0,0,1-4.56-4.13,16.339,16.339,0,0,1-3.07-5.37,2.3,2.3,0,0,0-.43-.82l.8-1.08a73.381,73.381,0,0,0,4-6.34l-1.37.07c-.04.06-.07.12-.12.2-.33.64.15-.06.03.27a14.05,14.05,0,0,1-1.04,1.66l.2-.15a15.883,15.883,0,0,1-1.48,2.23c-.67,1.24-1.13,2.12-1.43,2.75a2.133,2.133,0,0,0-1.74-.38,2.709,2.709,0,0,0-.97.42,18.622,18.622,0,0,0-2.12,1.55,2.21,2.21,0,0,0-.51.47,36.289,36.289,0,0,0-4,3.63s-1.15,1.17-2.5,2.83c-.67.83-1.4,1.78-2.06,2.75-.33.5-.67.97-.96,1.45l-.44.7-.2.34a1.68,1.68,0,0,0-.23.49,3.24,3.24,0,0,0-.12,1.7,2.67,2.67,0,0,0,.54,1.16c.45.52.74.6.7.4a4.013,4.013,0,0,1-.4-1.9,2.48,2.48,0,0,1,.26-.86,1.32,1.32,0,0,1,.28-.4l.4-.48q.828-.99,1.69-1.95a25.6,25.6,0,0,0,1.56,2.06l-.06-.02a11.15,11.15,0,0,0,2.1,1.9c-.02.22.7.7.88.94l-.03-.01c.63.42,1.03,1.14,1.64,1.55a.31.31,0,0,1-.2-.1c.4.34.94.8.9.9a29.025,29.025,0,0,0,2.84,2.5h-.06a10.109,10.109,0,0,1,.85.7c.01.03.03.06.02.06.43.26,1.06,1,1.38,1.23l-.03.07.73.67-.26-.27c.22-.05.46.6,1.06,1,.47.48,1.25.66,1.7,1.2.3.17-.3-.1.1.2-.05.08-.2-.12-.17.03.38.3.5.62,1,1l-.03.07c.66.44,1,1.1,1.47,1.36.63.5.24.54.95,1l.17.3c.25.26.27.1.53.4-.06.03.33.4.12.27.6.7,1.43,1.16,2.18,2.1.27.1.66.56.86.62-.01.06.86.84.3.46-.05-.03-.12-.1-.1-.12h-.1c.4.57.95.8,1.42,1.28-.13-.16-.32-.33-.16-.25l.45.44-.14-.04.65.67-.04-.14c.3.34.33.55.78.82.2.12-.24-.37.12-.06a7.372,7.372,0,0,0,.84.82,8.019,8.019,0,0,0,1.07.72c-.03-.1.17-.01.37.08l-.01.08c.8.28.2.3,1.02.57l.18-.04c.76.15.32.3,1.2.4-.32-.1-.1-.2.28-.04l-.12.03c.22.06.3.05.44.1-.14,0-.1.08.22.17l-.24.02.65.05c.46.2,1.26.26,1.47.37q.3.039.6.05a2.129,2.129,0,0,0,.7-.06c-.2.06.36.1.2.18a3.857,3.857,0,0,1,1.36-.03l-.06.01c1.16.1,1.98-.1,3.02.03-.05-.1.5-.03.37-.15,1.08-.1,1.96.25,2.35-.1a5.568,5.568,0,0,1,.83.1h-.12c.92-.02,1.18-.02,1.86-.01.34-.03.4-.2,1-.15-.2.06.05.05.28.05-.15.01-.2.03.1.08a.608.608,0,0,1,.17-.04c0,.01.01.01.01.02.38-.02.3-.04.14-.05.01-.01-.01-.02-.06-.04.4.1,1.1,0,1.15.1,1.14-.02,1.96-.12,2.9-.16.1.06-.12.1-.4.12l.67-.02c-.01.08-.4.04-.6.06.8.14,1.66-.12,2.6.01l.2-.06.06.01c0-.03.2-.08.35-.1.13.07-.01.16.46.16a8.166,8.166,0,0,0,1.53-.06c-.26-.01-.18-.05-.06-.08a3.841,3.841,0,0,0,.55.04l.02.1c-.1-.1.6-.1.7-.13.13.07-.36.06-.42.1h1.4c.5-.07-.1-.1.15-.17a7.747,7.747,0,0,1,1.37-.02l-.16-.08a7.009,7.009,0,0,1,1.88.05l1.85-.22a.938.938,0,0,1-.05.28c-.06.17-.1.32-.01,1.23l-.1-.16.27.48c.22,1.7-.26.9-.01,2.83.01-.38.08-.47.14-.34a.822.822,0,0,1,.06.34v.25a.661.661,0,0,1-.01.14.694.694,0,0,0-.1-.12c.01.18.06.3.02.4-.03-.1-.07-.13-.1-.13-.01.02-.08.01-.2.02a.2.2,0,0,0,0-.15.12.12,0,0,1-.07.1.555.555,0,0,1-.08.06.163.163,0,0,1-.06.03l-.18.03c-1.12-.12-2.9.04-3.37-.13a15.944,15.944,0,0,0-2.97.1c.5-.1-.85-.16-.47-.3a13.181,13.181,0,0,1-3.22.1h.14c-2.74-.15-4.7.18-7.15-.01.1.14-1.2.06-.87.25-2.55.17-4.64-.4-5.56.17a12.739,12.739,0,0,1-1.97-.17l.28-.03-4.4.02a9.422,9.422,0,0,1-2.37.24c.5-.1-.17-.1-.6-.1.07-.01.26-.02.2-.04a.479.479,0,0,0-.14-.04c-.04-.01-.1-.03-.17-.05a.124.124,0,0,1-.17,0,.037.037,0,0,1,.01-.03.875.875,0,0,1-.1-.08,1.528,1.528,0,0,0-.15-.13.5.5,0,0,0-.14-.1c-.03,0,.07.1.22.25-.03,0,0,.05.02.1-.5-.67-1.88-1.76-1.82-1.95-2-1.83-3.54-3.02-5.22-4.5-.12-.24.32.06.82.48l-1.2-1.07c.1-.1.72.57,1.1.9-1.24-1.46-3-2.53-4.5-4.2l-.4-.24-.08-.1c-.03.05-.45-.24-.7-.46-.15-.3.2-.18-.6-.93a27.338,27.338,0,0,0-2.72-2.4c.44.44.25.35.02.2a11.741,11.741,0,0,0-.9-.93l.07-.15c.06.26-1.16-.87-1.35-.97-.15-.3.7.5.85.55l-2.43-2.26c-.94-.72.05.26-.45-.03a26.375,26.375,0,0,1-2.4-2.2l.18.36a24.664,24.664,0,0,1-3.2-3.1c-11.4-9.18-3.3-.98-3.3-.98,3.97,4.17,6.4,5.9,11.47,10.52,4.33,4.18,5.3,5.47,9.92,9.66l3.32,3.1,1.68,1.54,1.08,1,.2.18c.07.04.17.01.26.02h1.2c1.38-.2,3.82.02,5.45-.15l.63.12a8.314,8.314,0,0,1,1.8-.03l-.04.03c.84-.1,1.8-.03,2.2-.07l-.04.03h1.02l-.18.05a38.867,38.867,0,0,1,4.3-.04l-.1-.15c2.85.18,3.9-.12,6.46.08l-.04.04c3.25-.37,5.13.28,8.48-.08-.42.05.18.07.15.1.77-.02,1.57-.04,2.18-.1,1-.03,1.6-.22,1.5-.33.1-.01.2-.01.28-.02.04-.01.1.01.1-.02l.02-.1q.025-.181.06-.36a1.228,1.228,0,0,1,.1-.38c.05-.14.1-.1.16-.2a2.825,2.825,0,0,1-.08-.9q-.012-.635.02-1.27l.03.4c.03-.85.04-1.7.01-2.57l-.23.5c.04-1.36.3-.35.16-1.68l-.2.03a11.178,11.178,0,0,0-.38-2.55,4.36,4.36,0,0,0-.57-1.2q-.387-.53-.8-1.04a19.4,19.4,0,0,0-3.66-2.84,29.346,29.346,0,0,0-4.1-2.1q-2.089-.9-4.26-1.58c-.7-.23-1.43-.44-2.14-.64l-1.07-.3-.7-.17-.8-1.74-.9-2.06v-.34c.14-.2-1.1-1.58-1.05-1.9l-.44-.68c-.06-.22-.23-.67-.02-.33a6.422,6.422,0,0,0-.65-1.13l-.23-.78q-.434-.975-.91-1.93l-.23-.46a2.987,2.987,0,0,0-.4-.6,3.59,3.59,0,0,0-1.12-.9c-.01,0-.02-.01-.03-.01l.44-.57a6.178,6.178,0,0,0,.74-1.05c.62-.97.63-.5,1.2-1.56l.35-.32c.3-.4.1-.37.5-.8.03.07.46-.56.32-.25.83-1,1.4-2.2,2.54-3.5a2.517,2.517,0,0,1,.37-.66c.32.3.02.2,1.84,1.37l.07-.2a11.2,11.2,0,0,0,1.54.97,5.016,5.016,0,0,0,1.74.44,4.88,4.88,0,0,0,3.2-.94,4.763,4.763,0,0,0,.63-.56l.28-.32.22-.28.9-1.16,1.96-2.57,3.38-4.83-1.7-1.32,7.35-9.62,7.9-10.48,15.1-20.17.58-.58c.4-.18,2.54-4.34,3.08-4.8l1.1-1.8c.36-.47,1.1-1.48.55-.58,1.1-1.6,1.1-1.67,1.83-2.87l1.28-1.67a112.608,112.608,0,0,0,7.33-12.04l-.1-3.2-.18.08c-2,4.44-4.62,7.9-6.2,10.74-2.67,4.26-2.16,2.6-4.9,7.1l-1.28,1.6c-1.28,1.85-.73,1.45-2.2,3.48,0-.18-1.82,2.57-1.1,1.3-3.27,4.5-6.44,9.4-11.12,15.17-.8,1.4-3.16,4.32-3.76,5.37-.2.1-4.55,5.95-2.16,2.5a4.461,4.461,0,0,1,.6-.75l.2-.47c-2.75,3.23-4.57,6.2-7.15,9.5.8-.96,1.8-2.28,1.18-1.35l-2.4,3.08.4-.7-3.6,4.56.6-.55a65.714,65.714,0,0,0-4.4,5.5c-.67.94.13-.02.36-.26.16-.18.3-.32.27-.27a1.377,1.377,0,0,1-.17.24c-.12.17-.3.4-.57.76l-.5.6a4.02,4.02,0,0,0-.82-.43c.02-.2-.57-.4-.7-.56h.02c-.5-.18-.82-.7-1.3-.87a.177.177,0,0,1,.16.03c-.3-.18-.75-.43-.7-.53a14.21,14.21,0,0,0-2.26-1.35h.05c-.32-.1-.35-.22-.67-.37-.01-.02-.03-.04-.02-.04a8.651,8.651,0,0,1-1.1-.67l.02-.07-.58-.37.2.16c-.18.1-.37-.4-.85-.56-.37-.28-1-.2-1.35-.56-.24-.06.25,0-.08-.14.04-.1.17.04.14-.07-.3-.15-.4-.4-.8-.57l.03-.07c-.53-.2-.8-.66-1.17-.75-.5-.26-.2-.4-.76-.6l-.13-.2c-.2-.15-.22,0-.42-.2.05-.04-.26-.24-.1-.2a20.636,20.636,0,0,1-1.73-1.2c-.22,0-.52-.3-.7-.3.01-.06-.7-.47-.23-.3.04.01.1.06.08.07l.1-.03c-.3-.38-.75-.42-1.13-.7.1.1.26.2.13.17l-.35-.25h.1l-.52-.4.03.1c-.24-.2-.26-.38-.62-.5-.17-.04.2.25-.1.1-.32-.28-.8-.7-1.24-1.02-.01.1-.12.02-.26-.05l.03-.07c-.53-.23-.08-.25-.6-.5l.07-.02-.2.05c-.5-.16-.14-.28-.73-.43.2.12,0,.2-.22.01l.1-.02a.922.922,0,0,1-.27-.15c.1.02.1-.06-.1-.18l.18.01-.43-.13c-.23-.25-.72-.46-.77-.62,0,0-.56-.44-.76-.44.16.02-.15-.22-.02-.22a2.019,2.019,0,0,1-.82-.48l.04.02c-.62-.52-1.2-.67-1.74-1.16-.02.1-.3-.16-.3-.02-.68-.33-1-.95-1.42-.8-.3-.17-.3-.3-.42-.4l.08.03q-.555-.327-1.08-.7c-.2-.1-.33.01-.66-.26.15.02,0-.06-.13-.15.1.05.13.05-.02-.1a.527.527,0,0,1-.12-.03c-.23-.15-.2-.1-.1-.03-.01,0-.01.02.01.06-.18-.22-.64-.42-.6-.53-.67-.42-1.2-.64-1.77-.98-.03-.1.13-.04.3.05l-.4-.24c.05-.06.25.1.38.18-.4-.42-1.03-.53-1.5-1l-.15-.02-.03-.03c-.02.03-.16-.01-.25-.06-.04-.1.1-.13-.18-.3a3.479,3.479,0,0,0-.92-.53c.14.1.07.1-.01.1-.14-.1-.17-.2-.3-.24l.04-.1c0,.1-.4-.16-.48-.16-.04-.1.24.1.3.07l-.8-.53c-.33-.13,0,.1-.18.1a4.6,4.6,0,0,1-.8-.5l.05.13q-.205-.105-.4-.23l.87-1.36,1.3-1.98c-.28.17,1.6-2.67,1-2.06,3.42-5.76,6.8-10.15,7.58-12.5,1.57-2.6,2-3,2.86-4.33l-.35.63,6-9.93c1.05-1.84,1-2.26,2.97-5.5-.53,1.1.24-.23.96-1.45-.45.8-.56,1.05.45-.52.1-.24.3-.6.47-.94.02-.01.06-.07.05-.03,1.16-2.07.92-1.73.36-.78.01-.06-.05.01-.25.3,1.37-2.05,3.42-5.94,3.7-6.1l2.4-4.4c.74-1.4,1.43-2.7,2.05-4.03s1.28-2.57,1.82-3.9l.86-1.98.72-2.13c.3-.63-.05.76-.66,2.43a25.054,25.054,0,0,0,1.27-4.12,5.074,5.074,0,0,1-.23,1.38c-.24.75-.58,1.65-.8,2.3a31.357,31.357,0,0,0,1.94-7.65l1.4-8.3.1-1.22.07-.34a14.222,14.222,0,0,1,.17-2.17c.24-.8.26.1.68-2.78.44-2.26.86-6.47,1.2-9.46-.23,1.6-.23,1.08-.18.38.2-1.44.4-2.25.5-3.37l.14-.1c-.1-.22.37-3.86.37-4.35.22-.8-.2,2.25-.15,2.62l1.08-8.66c.26-3.1-.22.54-.17-.95.3-2.72.52-5.4,1-8.5l-.26.97c.5-5.13.87-8.18,1.4-11.62l.08-1a1.944,1.944,0,0,1,.13.3,127.02,127.02,0,0,0,8.3,15.8c3.1,5.07,6.45,9.82,9.5,14.64l4.48,7.16,4.2,7.02.37.88c.04.46,3.34,4.9,3.58,5.7l1.37,2.1c.33.62,1.05,1.9.37.87,1.18,2,1.23,2.02,2.13,3.42l1.15,2.2,10.43,17.68,2.95,5.12c2.75,5.06,6.85,12.27,11.05,19.57l6.26,10.73,14.78,26.5,9.17,16.7-.3.1-2.68.9,3.6,6.88,1.5,2.83a5.37,5.37,0,0,0,2.89,2.48,4.15,4.15,0,0,0,1.5.3,4.987,4.987,0,0,0,.7-.02l.28-.05a5.636,5.636,0,0,0,1.18-.27l.98-.32,1.95-.64,1.44-.47,1.26-.33.02-.02s-.01,0,.1-.04c1.7-.53,3.5-1.15,5.16-1.7.62-.3,1.7-.6,2.58-.9l.66-.22.22-.03a4.911,4.911,0,0,1,1.02-.35l-.01.03c.46-.2,1.02-.35,1.25-.45l-.01.03.58-.2-.1.06q1.206-.466,2.45-.82l-.05-.04.92-.3c.16-.05.3-.1.44-.15l1.85-.6c.14-.04.3-.08.45-.12l-.01.03a5.273,5.273,0,0,1,.63-.26l.97-.32a21.129,21.129,0,0,0,3.23-1.03c-.23.1.12.01.1.04a8.442,8.442,0,0,0,1.7-.7l.63-.2a.434.434,0,0,0,.07.04c-.01-.02.07-.07.18-.12l1.18-.4.1.2a1.5,1.5,0,0,0,.04-.24h.01c.17.5-.14.1.18.76l.1-.06c.42,1.02.52,1.7.87,2.7.68,1.6,1.43,3.23,2.18,4.85-.05.08-.1.15-.15.24l-.22.54c-.1.3-.24.6-.37.92a17.222,17.222,0,0,1-.98,1.83,27.9,27.9,0,0,1-4.44,5.05,22.583,22.583,0,0,1-14.24,5.29,14.8,14.8,0,0,1-2.12-.15c-.37-.06-.63-.1-1.07-.2l-.16-.03-.24-.04a4.166,4.166,0,0,0-.5,0l-.15.03c-.6-1.63-1.22-2.95-2-4.76a6.908,6.908,0,0,0,1.87-.8,10.256,10.256,0,0,0,1.84-.5,12.16,12.16,0,0,0,1.16-.45c.14-.18.5-.17.67-.35l.1.04a.321.321,0,0,1,.22-.1h0c.1-.1.22-.1.27-.15v.02l.13-.05-.01.04a1.54,1.54,0,0,1,.55-.23l-.04-.08c.4-.04.48-.25.85-.26v.02c.35-.36.72-.08,1.08-.44-.05.04.04.03.04.06.2-.1.4-.18.35-.34.15-.05.14.01.18.07-.03-.07.1-.14.2-.2l-.04.05.32-.14-.1-.1c.2-.02.1.15.25.06l-.04-.1c.25-.06.44.06.7.06a21.15,21.15,0,0,1,2.87-1.04l.07.07c.06.12.18-.27.26-.16l.08-.1c.04.01.1.01.06.06a.249.249,0,0,0,.15-.1l.13.04c.4-.07.67-.33,1.08-.44a5.252,5.252,0,0,0,1.88-.73c.67-.43,1.7-.24,2.36-.7.03.01.08-.05.07-.07l.7-.22s3.34-1.1.47-1.24v-.03a1.314,1.314,0,0,0-.85.36c-.1-.15-.3.1-.42.07v-.02c-.2.2-.5.06-.7.25,0-.02-.01-.06.04-.08-.15.08-.36.2-.4.1-.37.16-.93.3-1.12.54l.01-.03c-.1.15-.18.08-.3.18-.01-.01-.03-.01-.03-.02-.12.15-.44.17-.55.26l-.03-.06-.3.12.12-.03c.02.2-.27-.03-.45.16-.2.05-.3.5-.54.5-.07.12.04-.16-.1-.05-.04-.1.05-.08-.01-.14-.14.1-.28-.01-.44.12l-.03-.07c-.2.2-.5.06-.6.24-.23.14-.24-.15-.45.08l-.13-.06c-.12.02-.04.14-.18.14-.01-.06-.17.01-.12-.08-.3,0-.52.33-.94.3-.04.14-.25.14-.28.25-.03-.05-.37.12-.2-.06.01-.02.05-.02.05,0v-.08c-.25-.06-.35.2-.57.25.07,0,.15-.03.1.03l-.2.06v-.07l-.3.06.06.06c-.15.01-.24-.1-.37.06-.05.08.17.05.03.13a6.133,6.133,0,0,0-.76.1c.05.07-.01.1-.08.13l-.03-.07c-.22.2-.15-.12-.37.04v-.06l-.02.17c-.18.22-.17-.1-.36.17.1-.05.1.14-.03.15v-.08c-.06.04-.08.07-.13.08.03-.05-.01-.1-.1-.06l.04-.1-.15.2c-.17-.02-.37.15-.46.07,0,0-.33.06-.37.2.04-.1-.14-.05-.12-.15-.06.1-.27.25-.4.2l.02-.02c-.38.04-.57.32-.92.33.04.08-.14.1-.06.18-.3.22-.68-.01-.68.36-.14.07-.2-.01-.3,0l.03-.03a4.87,4.87,0,0,1-.56.22c-.1.07-.06.22-.26.25.04-.08-.03-.04-.1-.02.04-.02.05-.05-.06-.06a.209.209,0,0,1-.04.06l-.01-.01c-.1.06-.08.07-.03.06q0,.015.03.03c-.15-.04-.34.12-.4.02a8.73,8.73,0,0,0-.83.48c-.05-.04,0-.1.08-.16l-.2.1c-.02-.08.1-.08.16-.12-.3-.04-.47.3-.8.3l-.04.08h-.02c.01.03-.04.1-.08.12-.06-.05-.05-.15-.2-.1-.14-.02-.3.14-.45.23.08-.02.07.03.04.06-.07.03-.13-.02-.18.02l-.04-.1c.06.07-.16.16-.17.2-.06-.05.1-.1.1-.15l-.43.16c-.13.12.06.07.01.18-.13.06-.24.17-.4.17l.08.06a.81.81,0,0,1-.6.17c-.12.1-.22.17-.3.25l-.57-1.36-1.08-2.97-.63,1.7c.2.46.46,1,.66,1.44-.12-.35-.04-.25.04-.1.12.3.13.5.25.74l-.08.06c.04-.15.4.77.5.87,0,.2-.24-.46-.32-.52l.74,1.85c.32.64.04-.15.24.13a19.189,19.189,0,0,1,.74,1.8v-.24a14.334,14.334,0,0,1,.93,2.46,2.22,2.22,0,0,0-.9,1.42,6.118,6.118,0,0,0-.04.77q0,.3.01.6a17.917,17.917,0,0,0,.21,2.23,1.936,1.936,0,0,0,.13.67,36.438,36.438,0,0,0,1,5.2s.4,1.56,1.1,3.53q.563,1.589,1.25,3.13l.7,1.54c.12.25.24.5.36.72a5.324,5.324,0,0,0,.43.77,2.822,2.822,0,0,0,2.6,1.2c.7-.13.9-.38.7-.42a3.013,3.013,0,0,1-1.8-.62,2.375,2.375,0,0,1-.55-.68,7.238,7.238,0,0,1-.37-1.05q-.3-.895-.57-1.8c.42-.07.83-.17.83-.17a50.736,50.736,0,0,0,5.76-1.87c2.25-.64,2.9-.66,5.2-1.43,1.1-.32,2.28-.72,3.36-1.06.48-.28,1.42-.43,2-.72h.26a1.977,1.977,0,0,1,.66-.22v.02c.3-.15.66-.22.8-.3l-.01.02.38-.12-.06.05a11,11,0,0,1,1.6-.52l-.07-.07c1.1-.23,1.42-.52,2.4-.7v.02c1.14-.6,1.96-.43,3.14-1-.15.07.08.02.07.05.57-.2,1.18-.4,1.14-.56.42-.12.36-.05.43-.01-.02-.07.33-.2.66-.3l-.14.07.93-.3-.22-.08c.5-.1.18.13.64-.05l-.04-.1a14.8,14.8,0,0,1,1.84-.26c2.78-.8,5.66-1.97,8.28-2.55l.14.05c.1.1.65-.4.8-.3l.28-.15c.1,0,.27-.03.13.04a1.611,1.611,0,0,0,.47-.2h.32c1.1-.27,2-.7,3.15-1.02a45.466,45.466,0,0,0,5.44-1.72c2.04-.82,4.64-1.07,6.72-1.93a.705.705,0,0,0,.24-.1l1.97-.58s2.55-.76,3.98-1.33a.684.684,0,0,1,.02.13l.42,1.14a8.1,8.1,0,0,0,.64,1.48c-.12-.2-.08.06-.12.1-.02.12-.07.23-.14.15a.737.737,0,0,1-.06.68.925.925,0,0,1-.32.27,1.771,1.771,0,0,1-.53.1l.13-.05c-2.62.64-4.34,1.5-6.7,2.04.15.1-1.1.4-.74.48-2.33.9-4.47.95-5.16,1.76a10.92,10.92,0,0,1-1.9.4l.25-.1c-2.02.66-2.6.84-4.13,1.28a9.6,9.6,0,0,1-2.15.92c.4-.23-.14-.05-.65.1.32-.1.4-.18-.28-.05a2.245,2.245,0,0,1-.35.18c-.01-.01-.04,0-.03-.02-.83.3-.68.28-.28.17-.01.02.02.03.15.02a24.461,24.461,0,0,1-2.6.6c-2.53.8-4.3,1.53-6.38,2.23-.27-.02.2-.25.8-.46l-1.5.48c-.03-.13.84-.33,1.3-.5-1.85.33-3.62,1.3-5.77,1.75l-.4.23-.13.02a2.106,2.106,0,0,1-.73.38c-.33-.02-.06-.26-1.1.06a25.3,25.3,0,0,0-3.37,1.14c.58-.16.42-.04.18.08-.52.16-.85.14-1.24.3l-.1-.14c.25.08-1.3.56-1.48.68-.33-.02.77-.34.88-.46l-3.1.96c-1.07.45.24.08-.25.37a26.567,26.567,0,0,1-3.04.96l.4.03a22.845,22.845,0,0,1-4.2,1.2c-13.38,5.2-2.44,2.36-2.44,2.36,5.5-1.33,8.15-2.56,14.55-4.6,5.67-1.63,7.25-1.82,13.07-3.7,2.8-.82,5.76-1.77,8.48-2.63,1.23-.6,3.58-1.08,5.06-1.7l.63-.06a7.951,7.951,0,0,1,1.67-.54l-.02.04c.76-.32,1.67-.54,2.05-.7l-.02.04.95-.3-.15.1q1.983-.733,4.03-1.27l-.15-.1c2.72-.65,3.6-1.23,6.08-1.77l-.02.04.54-.22c.1-.03.18-.07.26-.1a2.076,2.076,0,0,0,.3-.13,3.175,3.175,0,0,0,1.87-3.5Zm-243.54-13.2a.874.874,0,0,0,.08-.1l-.04.13-.04-.04Zm9.26,8.7a36.214,36.214,0,0,0-3.57-3.55.575.575,0,0,0-.23-.17l-1.6-1.55s-2.64-2.54-3.82-3.4c1.8-2.2,3-3.52,4.2-5.1.4-.03,1.68-1.62,2.26-1.97l-.03.06a7.172,7.172,0,0,1,1.43-1.25c.23.4.55.56.93,1.05a12.508,12.508,0,0,0,.6,1.36c.13.3.3.58.44.86.17.1.15.38.3.5l-.04.1a.154.154,0,0,1,.08.17h-.02c.08.07.08.18.12.2h-.02l.04.1h-.03a.83.83,0,0,1,.17.43l.08-.03c-.02.32.18.4.13.68h-.02c.3.3-.06.57.22.88-.03-.04-.04.03-.06.02.06.16.08.33.25.32.01.12-.04.1-.1.13.07-.01.1.1.13.2l-.03-.04.05.27.14-.06c-.03.15-.17.05-.12.18l.12-.01c-.01.2-.2.33-.28.52a7.5,7.5,0,0,1-.1,2.42h-.1c-.13,0,.16.23.04.24l.05.1c-.03.02-.06.07-.08.02-.02.08.01.08.04.15l-.1.08c-.1.3,0,.6-.08.93a3.988,3.988,0,0,0-.25,1.6c.04.66-.65,1.2-.63,1.87-.02.01,0,.08.01.08l-.2.54a4.549,4.549,0,0,0-.34,1.06Zm29.77-2.38c.86,1.56.34,1.38,1.12,2.7-.07-.01-.15-.06-.2.03,0-.01-.01-.06.01-.07-.06.04-.15.1-.18,0-.16.07-.4.08-.47.26v-.03c-.03.12-.07.03-.13.1a.031.031,0,0,1-.01-.02c-.04.12-.2.06-.23.12l-.02-.06-.13.05h.05c.03.18-.13-.1-.2.05-.1,0-.1.42-.2.35-.02.1.01-.15-.04-.06-.03-.1.02-.07-.02-.14-.05.06-.13-.07-.2.01l-.02-.07c-.07.16-.22-.05-.26.1-.1.1-.12-.2-.2-.03l-.07-.1c-.05,0,0,.13-.07.1-.01-.06-.08-.03-.06-.1-.14-.07-.2.2-.4.07,0,.13-.1.08-.1.17-.02-.05-.16.03-.1-.1.01-.01.02-.01.02.01l-.01-.07c-.12-.1-.15.1-.24.12.03.02.07,0,.05.06l-.1.01V410h-.13l.04.07c-.07-.02-.12-.14-.16-.02-.02.07.08.1.02.12a.983.983,0,0,0-.34-.07c.03.08,0,.08-.02.1l-.02-.07c-.08.13-.08-.15-.17-.04l.01.1c-.06.17-.1-.14-.15.1.04-.02.06.15,0,.14v-.07c-.03.02-.03.05-.05.04.01-.04-.02-.1-.06-.08l.01-.1-.05.15c-.08-.06-.16.06-.2-.03,0,0-.15-.02-.15.1.01-.07-.07-.08-.07-.17-.02.08-.1.17-.17.1v-.01c-.17-.05-.23.18-.4.1.03.08-.06.05-.01.16-.12.14-.3-.16-.28.2-.06.03-.1-.06-.13-.07l.01-.02a.52.52,0,0,1-.24.08c-.04.04-.01.2-.1.18.01-.07-.02-.05-.05-.04.02-.01.02-.04-.03-.07,0,.02-.01.03-.01.05v-.01c-.05.03-.03.05-.01.05,0,.01.01.02.02.04-.07-.07-.14.04-.18-.06-.15.06-.23.2-.34.27a.121.121,0,0,1,.02-.14l-.08.04c-.02-.08.04-.06.06-.08-.14-.1-.2.18-.34.1v.06a.164.164,0,0,1-.02.1c-.03-.06-.04-.16-.1-.14-.06-.05-.13.07-.2.12.04,0,.04.04.03.07-.03.01-.06-.05-.08-.02l-.03-.1c.03.08-.06.1-.06.15-.03-.06.03-.07.03-.12l-.18.06c-.05.1.03.08.02.17-.05.03-.1.1-.18.07l.04.08c-.1.1-.16.1-.26.03-.65.86.05.95.05.95.37.1.47-.18.84-.33.35-.04.47.1.8-.06a2.269,2.269,0,0,0,.5-.17c.05-.14.2-.05.28-.18l.05.06c.02-.04.05-.08.1-.05v.02c.03-.06.1-.05.1-.08v.02l.05-.02v.03a.284.284,0,0,1,.23-.1l-.03-.08c.18.06.2-.13.37-.06v.02c.13-.27.32.08.46-.18-.02.03.02.04.02.06.08-.05.17-.08.13-.25.06-.01.06.04.1.1a.1.1,0,0,1,.08-.13l-.02.03.13-.06-.06-.13c.08.02.06.16.12.1l-.03-.1c.1,0,.2.15.33.2.43-.05.8-.45,1.24-.35l.04.08c.04.12.06-.2.1-.1l.03-.07c.02.02.05.04.04.07.04-.01.04-.03.06-.07l.06.07c.18.02.28-.16.46-.18.25.1.6-.13.8-.27.27-.26.76.14,1.03-.15.01.02.03-.03.03-.05l.1-.02.03.12c.35.78.45.46.8,1.35-.12-.01.44,1.12.1.66a19.684,19.684,0,0,0,1.02,2.13c-.01.01-.03.02-.04.01h0c-.03.16-.2-.03-.23.1,0-.01-.02-.06,0-.07-.05.04-.1.1-.15.02-.12.08-.32.12-.34.3l-.01-.03c-.01.12-.06.04-.1.1-.01-.01-.01-.02-.02-.02-.01.12-.15.08-.17.14l-.03-.06-.1.06h.04c.06.17-.12-.07-.15.07-.08.01.01.4-.1.36,0,.1-.02-.14-.05-.06-.04-.1,0-.07-.04-.13-.03.06-.12-.05-.16.03l-.03-.07c-.03.16-.2-.02-.2.12-.06.1-.14-.18-.18-.01l-.07-.08c-.04,0,.02.13-.04.1-.02-.06-.07-.02-.07-.1-.13-.05-.14.2-.33.1.02.13-.07.08-.05.18-.02-.05-.13.05-.1-.1,0-.01.01-.01.02.01l-.02-.07c-.13-.1-.1.13-.18.14.03.01.06,0,.06.05l-.07.02-.01-.06h-.1l.04.06c-.06-.02-.13-.13-.14,0,0,.07.1.08.04.12a.949.949,0,0,0-.3-.04c.04.08.02.08,0,.1l-.03-.07c-.05.13-.1-.14-.15-.02l.03.1c-.02.17-.1-.12-.1.1.03-.03.08.14.03.13l-.02-.07c-.02.02-.01.06-.03.05,0-.04-.03-.1-.06-.07l-.01-.1v.15c-.08-.05-.12.07-.18-.01,0,0-.13,0-.1.1-.01-.07-.08-.07-.1-.15,0,.08-.05.18-.12.12v-.01c-.16-.03-.16.2-.3.15.04.08-.04.06.02.15-.07.15-.3-.12-.2.2-.04.04-.1-.05-.13-.05l.01-.02a.379.379,0,0,1-.2.1c-.02.05.03.2-.04.2,0-.07-.03-.05-.05-.03.01-.02.01-.04-.04-.06v.05h-.01c-.03.04-.02.05.01.05,0,.01.01.02.02.03-.07-.06-.1.05-.16-.04-.1.07-.15.2-.24.3a.124.124,0,0,1-.01-.13l-.06.05c-.03-.07.02-.06.04-.08-.14-.08-.12.2-.27.13v.07h-.01a.17.17,0,0,1,0,.1c-.04-.06-.06-.15-.1-.12-.07-.05-.1.08-.13.13.03,0,.04.04.04.07-.02.01-.07-.05-.07-.01l-.04-.1c.04.08-.03.12-.02.16-.04-.06.01-.07,0-.12-.1.05-.05.03-.14.08-.02.1.04.08.05.16-.04.04-.06.12-.13.1l.05.07a.13.13,0,0,1-.2.06c-.38.9.23.92.23.92.33.06.36-.22.64-.4.28-.08.42.04.67-.14a2.281,2.281,0,0,0,.38-.2c.01-.14.17-.07.2-.2l.06.05c.01-.04.03-.08.07-.05l.01.02c.02-.07.07-.05.08-.1l.01.02.04-.03v.03a.175.175,0,0,1,.18-.1l-.04-.08c.16.04.14-.15.3-.1v.02c.05-.27.3.05.35-.22-.01.03.03.04.03.06a.171.171,0,0,0,.06-.25c.05-.02.06.03.1.1a.1.1,0,0,1,.04-.14l-.01.03.1-.07-.08-.12c.08.01.08.15.13.1l-.05-.1c.1-.01.2.13.32.17.35-.1.58-.52.97-.46l.05.08c.06.12.01-.2.07-.1l.01-.07c.02.02.05.03.04.06.03-.01.03-.03.04-.08l.07.06c.15,0,.2-.2.35-.22.23.08.48-.2.62-.35.17-.28.67.06.84-.25.02.01.02-.03.01-.05l.2-.07.3.54.33.66.53,1.12.67.16.35.1.2.06q.395.122.78.27a23.635,23.635,0,0,1,2.4.48c.05.1,2.63.96,1.1.6-.13-.03-.35-.1-.33-.14l-.22.05c1.4.74,2.72.88,4.12,1.57-.4-.23-.97-.47-.56-.38.44.2.88.4,1.3.63l-.3-.04q.948.492,1.86,1.05l-.2-.26a14.4,14.4,0,0,0,2.13,1.44c.5.22-.7-.7.2-.1l.88.74.94.9c.32.3.6.68.9,1a3.129,3.129,0,0,1,.57.89c.08-.18.24.15.38.57l-.1.08.06.2-.42-.04a61.08,61.08,0,0,0-6.57.07c-2.54-.06-3.2-.22-5.84-.18-1.25-.02-2.6.01-3.82.02-.58.12-1.6-.01-2.3.1l-.27-.07a2.7,2.7,0,0,1-.75.02v-.02c-.35.05-.75.01-.93.04v-.02h-.43l.07-.03a12.189,12.189,0,0,1-1.81.01l.05.1c-1.2-.1-1.64.06-2.72-.07l.02-.02a6.966,6.966,0,0,1-1.77,0q-.419-.046-.84-.06l-.87-.03c.17,0-.06-.06-.04-.08-.6-.1-1.25-.27-1.3-.1-.44-.14-.34-.16-.38-.24-.02.07-.4-.02-.75-.15l.17.03c-.33-.1-.65-.23-.97-.36l.13.2c-.5-.25-.06-.2-.56-.4l-.04.1a7.558,7.558,0,0,1-1.55-1.16,5.3,5.3,0,0,1-.84-.66l-.88-.8-1.78-1.6c-1.18-1.07-2.33-2.13-3.32-3.2l-.03-.15c.05-.13-.7-.4-.7-.58l-.3-.2c-.05-.08-.18-.24-.04-.14a2.254,2.254,0,0,0-.43-.34l-.2-.3c-.85-.9-1.72-1.5-2.64-2.43a50.9,50.9,0,0,0-4.53-4.2,16.554,16.554,0,0,1-1.46-1.35,2.515,2.515,0,0,0,.62-.45v.02a.887.887,0,0,0,.22-.74c.18.02.1-.25.18-.3h.01c-.06-.23.24-.36.18-.58.01.01.05.03.04.07.02-.14.04-.34.14-.32.07-.33.24-.78.14-1.03l.02.02c-.07-.15.02-.16.01-.3.01,0,.02-.01.03-.01-.07-.16.07-.4.05-.5l.07.01.04-.26-.04.1c-.17-.07.16-.17.08-.4.06-.17-.3-.43-.18-.6-.07-.1.12.1.08-.04.1.01.05.07.13.05-.02-.14.13-.2.1-.37h.07c-.1-.23.16-.38.05-.54-.03-.23.24-.12.12-.36l.1-.08c.03-.1-.1-.08-.05-.2.06.01.07-.13.12-.06.13-.23-.1-.5.1-.82-.12-.08-.03-.24-.12-.3.05,0,.03-.33.13-.14.01.02.01.04-.02.04l.07.03c.15-.18-.06-.34-.03-.52-.03.05-.02.13-.07.07l.02-.17.06.04.05-.25-.08.03c.05-.12.17-.17.06-.3-.06-.07-.1.12-.13-.02a3.545,3.545,0,0,0,.15-.64c-.1.02-.08-.04-.1-.1l.07-.01c-.1-.23.16-.1.06-.32l-.1-.03c-.17-.2.14-.12-.08-.34.02.1-.16.06-.14-.05l.07.02c-.02-.06-.05-.08-.04-.12.04.03.1.01.1-.08l.1.05-.15-.16c.07-.14-.07-.33.02-.4,0,0,0-.3-.12-.33.08.04.08-.12.16-.1-.1-.06-.2-.26-.13-.36h.01c.01-.34-.24-.5-.2-.82-.08.04-.08-.12-.17-.06-.2-.25.05-.6-.3-.58-.06-.12.03-.18.02-.25h.03a2.712,2.712,0,0,1-.2-.47c-.06-.08-.22-.03-.24-.2.08.03.04-.03.02-.1.03.03.05.04.06-.06a.086.086,0,0,1-.06-.03v-.01c-.06-.1-.07-.06-.06-.01q-.015,0-.03.03c.03-.13-.13-.27-.03-.33a5.1,5.1,0,0,0-.5-.64c.04-.05.1-.02.16.04l-.1-.15c.07-.04.1.07.13.12.02-.26-.32-.34-.34-.62l-.08-.02v-.02c-.03.02-.1-.01-.12-.04.04-.07.14-.08.07-.2.01-.12-.18-.23-.28-.32.03.07-.02.07-.05.05-.04-.05,0-.12-.05-.15l.08-.06c-.06.07-.17-.1-.2-.1.04-.07.1.05.16.04l-.22-.3c-.14-.07-.06.07-.17.06-.08-.1-.2-.15-.23-.3l-.04.08a.56.56,0,0,1-.28-.42l.87-.58.53-.35a2.314,2.314,0,0,0,.4-.3c-.04.05.1.07-.26.28.1-.06.17-.1.27-.17a.608.608,0,0,1,.1-.07.388.388,0,0,1,.26-.01.3.3,0,0,1,.22.3c0,.06.03.2,0,.22a16.573,16.573,0,0,0,2.63,4.48,15.988,15.988,0,0,0,3.02,2.96l-.13-.06c.94.6,1.08.95,2.1,1.66.04.06.1.12.08.12q.769.487,1.52,1c.12.1.2.17.2.2l1.18.84a13.251,13.251,0,0,0,1.37.8,9.9,9.9,0,0,0,2.42.83l-.1.01c.1.01.16.02.23.03a6.7,6.7,0,0,0,1.8.53,8.612,8.612,0,0,0,2.27.2v.05c.48.04.95.1,1.43.1l-.53-.05c.2-.18,1.07.2,2.1.1.04,0,.08-.01.13-.01-.13.06-.44.05-.2.15a16.485,16.485,0,0,0,3.4-.2l.08.1a1.76,1.76,0,0,1,1.9.34,2.106,2.106,0,0,1,.46.67,8.1,8.1,0,0,0,.55.9Zm-20.66-48.56v.01l-.05-.03.03.02Zm25.74,36.06-.64-.62.72.5a.7.7,0,0,0-.08.1ZM156.28,362c1.44,1.02,1.73,1.4,3.3,2.38.7.5,1.5.98,2.22,1.44.4.12.93.62,1.38.8l.1.16a1.288,1.288,0,0,1,.45.27l-.02.01c.23.1.45.27.56.32l-.02.01.25.16h-.06a7.264,7.264,0,0,1,1.07.67l.02-.1c.64.55,1,.57,1.55,1.08h-.02c.92.34,1.16.97,2.1,1.33-.12-.05.02.07,0,.08.4.23.8.5.9.35.27.2.2.2.2.27.04-.06.3.07.5.2l-.1-.04.62.4-.04-.2c.3.25-.01.2.3.38l.06-.1a10.271,10.271,0,0,1,.98,1c1.77,1.25,3.87,2.3,5.43,3.6l.02.12c-.04.13.57.15.57.3l.23.08c.04.06.14.15.03.1a1.23,1.23,0,0,0,.35.17l.15.2c.68.53,1.37.8,2.1,1.34a25.053,25.053,0,0,0,3.6,2.34c1.48.76,2.8,2.26,4.3,3.02.04.05.18.1.18.08l1.27.88.6.4a.175.175,0,0,0-.04.05l1.54,1.22.22.18c.08.06-.23-.17-.17-.12l.12.1c-.08.1-.15.2-.23.3l-.8,1.08-1.63,2.24-1.64,2.28-1,1.4-.16.2a2.117,2.117,0,0,1-.34.33c.35-.13-.34.63-1.38.82l-.13-.1a2.755,2.755,0,0,1-1.82-.28,4.605,4.605,0,0,1-.67-.53,17.769,17.769,0,0,0-2.85-2l-.84-.35c-3.97-2.35-1.92-1.6-6.36-4.16,1.7,1.1.64.76-1.4-.67l.6.25c-1.16-.74-1.57-.96-2.32-1.5.72.4.46.1-1.24-1l1.2.63-3.3-1.94c-2.4-1.75-6.37-4.22-7.3-5.04,0,0-5.24-3.6-6.56-4.26,1.13.6-1.76-1.37-.86-.93-.72-.4-2.1-1.26-3.5-2.16l-.52-.34-.25-.17-.18-.13a3.039,3.039,0,0,1-.57-.63,2.445,2.445,0,0,1-.4-1.3l.05.25a2.739,2.739,0,0,1,.28-1.75c.06-.14.15-.23.24-.4l.36-.5.7-1,3.84-5.63.1-.18a3.6,3.6,0,0,0-.4-.22l.93.5.03.02.02.01c.01.01.01.01-.04-.02l-.22-.1-.1-.06.02.01.35.18.7.37c.1.04.26.17.33.14l.02-.04c.72.44,1.43.8,2.45,1.44Zm56.28-154.93c-2.4.02-1.13-.27,1.82-.22l-.75.12c1.63-.03,2.18-.08,3.26-.05-.97.06-.5.17,1.9.15l-1.6.15,4.54-.22c3.5.13,9.06-.03,10.5.14l3.2.02c-.15.7-.06,1.2-.26,2.18-.33.95-.56,1.15-.9,2.13l-.6,1.38c0,.26-.28.57-.34.85l-.12.05a.42.42,0,0,1-.14.27h-.01c-.03.15-.14.27-.15.34v-.02l-.08.15-.01-.04a1.848,1.848,0,0,1-.38.62l.08.03c-.36.33-.3.6-.67.86v-.02c-.17.57-.65.58-.86,1.15.03-.07-.05-.01-.07-.03-.16.2-.34.42-.22.54-.13.14-.15.08-.2.05.06.05-.03.2-.13.3l.03-.07-.27.33.16.04c-.2.14-.16-.08-.3.1l.08.08a3.615,3.615,0,0,1-.78.34,13.81,13.81,0,0,1-2.9,2.4l-.1-.04c-.1-.1-.16.34-.27.26l-.08.12c-.04,0-.13.03-.1-.04a.459.459,0,0,0-.15.17l-.16.01c-.44.23-.74.56-1.2.8a11.255,11.255,0,0,0-2.18,1.22c-.8.58-2.03.54-2.87,1.06-.04-.01-.1.06-.1.07-.3.08-.57.18-.86.26,0,0-1.04.3-1.67.55-.12.04-.2.1-.3.14a1.01,1.01,0,0,0-.07-.15l.06-.1c.01.26-.7-1.46-.83-1.65-.07-.35.42.86.53,1l-1.42-3.44c-.56-1.2.01.26-.3-.3-.45-1.08-.92-2.12-1.35-3.4l.07.43a43.9,43.9,0,0,1-1.72-4.7l-2.56-6.3c.74.03,1.8.01,3.84-.1Zm71.44,168-6.4-11,.24.33c-1.8-2.85-2.14-3.8-4.05-7.03-.08-.2-.2-.43-.17-.4-1.94-3.12-5.16-9.35-6.62-11.96v-.22l-3.67-6.3,1.33,2.38c-.74-.66-2.57-4.9-5.35-9.4-2.4-4.33-5.52-8.42-7.94-12.96-1.34-2.06,1.28,1.76-.64-1.37.08-.18.94,1.44.58.55-1.85-3.1-2.8-5.2-5.1-9l.02-.22c-3.1-4.9-5.35-9.54-7.5-12.76-3.1-5.1-1.72-3.64-5.1-8.88l-1.1-2.16c-1.35-2.3-1.16-1.53-2.6-4.1.2.1-1.86-3.24-.88-1.8-3.34-5.8-7.27-11.47-11.8-19.03-1.22-1.5-3.57-5.26-4.47-6.37-.03-.12-1.22-1.98-2.05-3.3s-1.26-2.12.12-.07a7.765,7.765,0,0,1,.6.96l.42.43c-2.5-4.3-4.87-7.64-7.1-12.03.62,1.32,1.56,3.03.86,1.92l-2.07-4.08c.16.27.34.54.52.8-.98-2.05-1.95-4.1-2.8-6.2l.25.9c-.63-1.54-1.02-2.6-1.4-3.72l-1.52-4c-.65-1.57.87,3.03-.32-.27a68.983,68.983,0,0,1-3.2-16.35c-.05.27-.1.02-.16-.48-.01-.14-.03-.3-.05-.5,0-.06-.01-.13-.01-.2s-.03-.16.05-.14a1.74,1.74,0,0,1,.14.12c.07-.01.1-.02.22-.03l.83-.01,1.16.01a9.246,9.246,0,0,1,1.14.09,24.1,24.1,0,0,0,4.12.08l1.06-.17a31.62,31.62,0,0,1,4.73.02c.36,1.4,1,3.35,1,3.35a165.369,165.369,0,0,0,6.4,16.3c2.64,6.23,3.23,7.94,6.38,14.22,1.46,3,3.13,6.16,4.66,9.05.82,1.32,2,3.8,2.96,5.36l.28.66c.33.54.7,1.18.98,1.76l-.04-.03c.5.8.98,1.76,1.23,2.15l-.04-.02.56,1-.12-.16q1.233,2.083,2.37,4.22l.02-.15c1.47,2.84,2.2,3.77,3.53,6.33l-.04-.02c2,3.05,2.73,5.08,4.8,8.22-.26-.4.06.2.03.17a16.123,16.123,0,0,0,2,3c.64,1.1.48.9.5,1.1a9.983,9.983,0,0,1,1.15,1.73l-.26-.37,1.47,2.4-.16-.55c.73,1.3.05.4.8,1.63l.1-.08c1.06,1.78,1.52,2.92,2.45,4.68,4.13,7.2,8.58,14.97,12.02,21.9l.08.34c-.04.2,1.16,1.8,1.2,2.12l.47.77c.1.23.32.72.1.33a11.174,11.174,0,0,0,.72,1.26l.34.83c1.46,2.94,2.9,5.35,4.45,8.43,1.76,3.76,5.47,10.65,7.6,14.62,3.05,5.56,5.92,12.35,9.03,18.05a4.376,4.376,0,0,0,.37.66l2.65,5.3,5.3,10.37c2.1,3.94,3.1,5.37-1.3-4.65l.1.12c-1.4-2.93-2.3-4.77-3.43-6.7a29.2,29.2,0,0,0-1.47-3.1l.04.06c-1-1.7-1.74-3.7-2.7-5.35a1.57,1.57,0,0,1,.3.47,24.913,24.913,0,0,1-1.5-3.05c-1.52-2.95-3.58-7.1-4.7-8.94l.1.12c-.65-1.03-.73-1.4-1.4-2.58-.02-.07-.06-.16-.05-.15-.7-1.13-1.77-3.43-2.3-4.36l.03-.1-1.2-2.34.44.88c-.32-.22-.8-1.83-1.78-3.47-.8-1.6-2-3.05-2.77-4.74-.48-.75.48.63-.18-.52.07-.08.34.52.25.18-.64-1.13-.9-1.94-1.68-3.33l.04-.1c-1.1-1.8-1.73-3.54-2.5-4.72-1.05-1.88-.47-1.4-1.64-3.3l-.32-.82c-.43-.86-.43-.55-.88-1.52.1.03-.58-1.22-.24-.7-1.03-2.18-2.4-4.26-3.76-7.14-.43-.55-1.12-2-1.45-2.4.01-.1-1.52-2.82-.56-1.3a1.817,1.817,0,0,1,.18.36l.17.15c-.74-1.66-1.64-2.86-2.48-4.44.23.48.58,1.1.3.7l-.8-1.47.22.27-1.17-2.2.1.34a20.456,20.456,0,0,0-1.42-2.66c-.36-.5.47,1.05-.17-.05-.73-1.45-1.92-3.58-2.95-5.4.02.2-.25-.28-.57-.75l.03-.1c-1.23-1.82-.28-.77-1.47-2.6l.14.14-.43-.4c-1.13-1.6-.4-1-1.7-2.76.45.74.07.43-.45-.5l.2.2c-.3-.5-.44-.65-.63-1,.2.28.18.1-.27-.63l.37.45-.94-1.34c-.58-1.13-1.67-2.8-1.84-3.3,0,0-1.32-2.37-1.73-2.86.33.44-.4-.87-.1-.54a27.6,27.6,0,0,1-1.85-3.1l.1.13c-1.45-2.7-2.7-4.52-3.95-6.98-.01.15-.68-1.14-.6-.78-1.48-2.44-2.32-4.67-3.1-5.4-.63-1.13-.66-1.4-.97-2l.16.26-2.36-4.35a18.289,18.289,0,0,1-1.38-2.28c.3.43-.02-.15-.3-.68.2.34.26.43-.07-.3a3.664,3.664,0,0,1-.24-.38c0-.01-.01-.04,0-.03-.5-.9-.42-.72-.2-.3-.02-.02-.01.02.04.16-.42-.97-1.35-2.6-1.3-2.76l-3.62-6.84c-.08-.28.23.23.57.88l-.8-1.6a8.237,8.237,0,0,1,.75,1.4c-.82-1.97-2.03-3.9-2.96-6.23l-.27-.44-.05-.14a4.2,4.2,0,0,1-.46-.8c-.08-.35.16-.04-.35-1.17-.34-.92-1.15-2.53-1.68-3.7.26.64.14.45,0,.2q-.165-.384-.3-.78a5.226,5.226,0,0,0,1.05.15l-.02.03a2.052,2.052,0,0,0,1.13-.38c.1.15.4-.1.54-.1l-.01.02c.25-.22.65-.1.9-.32-.01.02,0,.06-.06.1.2-.1.47-.23.52-.15a4.553,4.553,0,0,0,1.4-.74v.03c.13-.18.22-.1.4-.25a.077.077,0,0,0,.03.01c.15-.18.54-.28.67-.4l.04.06.36-.2-.14.06c-.04-.2.33-.03.54-.28.26-.1.3-.6.6-.66.08-.14-.04.18.1.02.05.08-.05.1.03.14.15-.14.34-.1.52-.27l.05.06c.2-.3.58-.24.7-.46.25-.24.3.06.52-.26l.17.01c.14-.07.02-.16.2-.22.03.06.2-.08.16.03.38-.12.54-.57,1.05-.73.01-.16.26-.26.27-.38.05.04.4-.3.25-.04-.01.02-.05.05-.06.03l.02.08c.3-.07.35-.4.58-.56-.08.03-.16.1-.14.02l.2-.16v.08l.33-.22-.1-.02c.17-.1.3-.04.4-.27.03-.1-.2.05-.07-.1a6.773,6.773,0,0,0,.8-.55c-.08-.04-.02-.1.04-.17l.06.05c.18-.3.2.03.4-.27l-.03-.12c.1-.33.23-.02.32-.4-.08.1-.16-.07-.03-.17v.08c.05-.08.05-.12.1-.16-.01.07.06.1.14-.02v.13l.08-.28c.2-.1.34-.4.47-.4,0,0,.3-.3.3-.45,0,.1.17-.06.2.05a.784.784,0,0,1,.32-.5v.03c.4-.32.4-.74.75-1.04-.08-.03.1-.2-.04-.2.17-.42.65-.57.44-.9.1-.18.2-.17.26-.25v.05c.17-.35.24-.44.37-.7.04-.14-.1-.24.06-.45.02.1.06,0,.1-.08-.02.06-.01.1.1-.01a.11.11,0,0,1,0-.08h.02c.05-.15.02-.14-.02-.07-.01-.01-.02-.01-.05,0,.15-.1.2-.4.3-.38.17-.45.2-.8.32-1.2.07-.02.08.1.06.2a2.766,2.766,0,0,0,.08-.27c.07.03-.01.17-.03.26.24-.27.12-.7.38-1.03l-.03-.1.02-.02c-.03-.01-.05-.1-.04-.17.08-.03.15.05.2-.13a1.523,1.523,0,0,0,.12-.64c-.04.1-.07.06-.08.01.02-.1.1-.13.1-.2l.1.02c-.1.01-.03-.27-.06-.32.08-.04.02.16.07.2l.13-.58c-.03-.22-.1.02-.16-.1a1.324,1.324,0,0,1,.1-.57l-.1.05a1.451,1.451,0,0,1,.15-.77c-.01-.1-.03-.17-.04-.25,2.06,0,4.3-.03,5.14-.12-1.5.12,2.64.16,1.46.3,1.95-.13,7.72-.24,10.03-.1l-.44.02q4.115.062,8.23.02l6.7-.08.32.78.6,1.5,1.2,3.13c0-.38,1.43,3.4,1.23,2.4,3.1,7.3,5,13.56,6.6,16,1.37,3.34,1.46,4.02,2.12,5.76l-.35-.8,5.13,12.74c.98,2.3,1.37,2.57,2.98,6.76-.64-1.3.06.4.68,1.95-.4-1-.57-1.28.18.8.15.28.34.7.52,1.12,0,.02.03.1,0,.07,1.07,2.6.92,2.12.45.9.04.05.02-.05-.1-.44.95,2.75,3,7.53,2.98,7.92l8.23,19.82c.2.77-.48-.73-1.27-2.6l1.88,4.6a42.319,42.319,0,0,1-1.72-4.04c2,5.58,4.73,11.26,7.12,17.78l.63,1.3.14.4a20.684,20.684,0,0,1,1.1,2.33c.26.96-.28.04,1,3.23.9,2.57,2.92,7.15,4.3,10.44-.7-1.8-.4-1.24-.06-.5.64,1.6.9,2.56,1.44,3.77l-.07.16c.2.18,1.82,4.2,2.1,4.73.25.95-1.08-2.44-1.32-2.8l3.85,9.6c1.47,3.37-.1-.68.67.9,1.23,3,2.5,5.9,3.8,9.4l-.3-1.15c2.36,5.63,3.7,9.02,5.1,12.9l4.05,9.38,2.2,4.97.4.86a4.553,4.553,0,0,0-1.3.56c-.15-.13-.68.22-.9.24l.01-.02c-.46.3-1.07.26-1.52.54.01-.02.01-.07.12-.1-.35.14-.82.35-.88.26a17.33,17.33,0,0,0-2.52,1.03l.03-.04c-.27.2-.4.16-.72.33-.02-.01-.05,0-.05-.01a9.949,9.949,0,0,1-1.23.5l-.04-.06-.66.25.25-.07c-.03.2-.54.07-1,.35-.46.14-.8.68-1.3.76-.2.16.15-.2-.16-.02-.04-.1.14-.1.03-.15-.3.16-.57.1-.96.3l-.04-.06c-.5.3-1.03.26-1.34.5-.53.25-.44-.08-.96.26l-.26-.02c-.25.07-.13.18-.42.23,0-.07-.36.07-.22-.04-.65.12-1.2.57-2.06.7-.13.18-.56.25-.66.38-.04-.04-.82.28-.4.01.04-.02.1-.05.1-.02l.03-.1c-.5.03-.8.36-1.27.5.14-.02.32-.1.22,0l-.43.14.07-.1-.64.2.1.04c-.32.07-.47-.01-.78.2-.14.1.33-.01.01.13-.43.1-1.07.24-1.6.4.08.06-.06.1-.2.18l-.04-.06c-.52.3-.26-.08-.8.2l-.06.13c-.45.3-.32-.05-.8.33.22-.1.16.12-.12.18l.04-.1a1.237,1.237,0,0,1-.3.13c.08-.07.01-.12-.2-.03l.12-.14-.37.27c-.35.04-.82.3-1,.26a2.823,2.823,0,0,0-.83.36c.12-.1-.27-.01-.2-.12a1.97,1.97,0,0,1-.9.38l.04-.02c-.8.2-1.3.58-2.03.73.06.07-.33.16-.2.23-.7.36-1.4.25-1.55.67a1.822,1.822,0,0,1-.6.1l.07-.04c-.6.24-.8.3-1.25.46-.22.1-.2.27-.63.38.1-.1-.05-.04-.2.02.1-.04.12-.08-.1-.05a.272.272,0,0,1-.1.08c-.26.1-.2.1-.1.07,0,.01.01.02.05.02-.3.02-.74.27-.8.17-.76.3-1.28.6-1.9.86-.1-.03.04-.13.22-.2l-.45.18c-.02-.08.25-.14.38-.2-.6.07-1.08.5-1.75.63l-.1.1h-.04c.01.03-.1.12-.2.17-.1-.03-.05-.15-.36-.04a3.681,3.681,0,0,0-1,.43c.18-.05.14.01.07.06-.16.06-.27.02-.38.1l-.05-.08c.1.06-.38.23-.43.3-.1-.03.22-.14.25-.2l-.94.34c-.3.2.1.06-.04.2l-.27.12-7.82-13.65Zm38.88,51.25c-.1-.03.07-.13.3-.23l-.6.2c-.02-.08.33-.15.5-.22-.75.1-1.42.57-2.3.7l-.15.1h-.05c.01.03-.16.13-.28.18-.14-.03-.04-.16-.45-.03a6.017,6.017,0,0,0-1.33.48c.23-.06.17,0,.08.05a4.9,4.9,0,0,0-.5.1l-.05-.08c.1.06-.5.25-.57.3-.14-.03.3-.15.34-.22l-1.23.4c-.42.2.1.06-.08.2a8.431,8.431,0,0,1-1.2.4l.17.04a6.506,6.506,0,0,1-1.67.47,20.276,20.276,0,0,0-1.87.9l-.18-.6.1.1c-.9-2.65-1.4-4.32-2.1-6.12.18-.36-.5-2.23-.5-2.9l.03.06a8.853,8.853,0,0,1-.23-1.02,6.642,6.642,0,0,0,1.44-.23,7.723,7.723,0,0,0,1.44.14c.3.02.64,0,.94,0,.15-.12.4.03.57-.07l.06.08a.182.182,0,0,1,.2,0v.02c.1-.04.2,0,.23-.02l-.01.02h.1l-.02.03a.76.76,0,0,1,.45.02v-.1c.28.14.4-.02.65.14v.02c.37-.17.48.26.86.1-.05.02.01.05,0,.07.16.01.32.05.37-.12.1.03.08.08.07.14.02-.07.12-.08.2-.06h-.05l.26.04v-.15c.12.08-.02.17.12.18l.03-.1c.17.1.22.3.36.43a5.709,5.709,0,0,1,2.02,1l-.02.1c-.06.12.27-.06.23.06h.1c.01.03.03.08-.02.08a.182.182,0,0,0,.14.03v.1c.2.23.5.24.74.46a3.694,3.694,0,0,0,1.2.92c.57.26.65,1.1,1.18,1.42,0,.03.06.04.07.03.1.14.2.3.3.44a7.681,7.681,0,0,0,.66.82.719.719,0,0,0,.2.14,13.445,13.445,0,0,1-1.27.5Zm50.7-15.5.04-.04a10.788,10.788,0,0,0-2.48.8c-.17-.13-.9.25-1.16.27l.02-.02c-.62.33-1.4.3-1.98.6.02-.02.02-.07.17-.12-.46.16-1.08.4-1.14.3a25.658,25.658,0,0,0-3.3,1.15l.04-.04a5.865,5.865,0,0,1-.95.36c-.03-.01-.06,0-.06-.01a14.106,14.106,0,0,1-1.62.55l-.04-.06-.87.28.33-.1c-.06.2-.7.1-1.3.4-.6.16-1.1.73-1.73.83-.27.17.22-.2-.2-.02-.04-.1.2-.12.05-.16-.42.17-.73.12-1.25.34l-.04-.06c-.65.34-1.34.3-1.76.57-.7.28-.54-.07-1.25.3l-.32-.01c-.32.08-.2.2-.56.25,0-.07-.46.1-.27-.03-.83.15-1.58.63-2.68.78-.2.2-.74.28-.9.42-.04-.04-1.06.3-.5.02.05-.02.14-.05.14-.03l.05-.1a8.859,8.859,0,0,0-1.67.56c.18-.03.42-.1.27-.01l-.55.16.1-.1-.83.2.14.04a2.446,2.446,0,0,0-1.02.24c-.2.12.4-.02-.01.13q-1.043.2-2.07.47c.1.06-.1.12-.28.2l-.04-.06c-.7.32-.3-.08-1,.22l.05-.07-.15.2c-.6.34-.4-.04-1.06.37.28-.1.18.12-.18.2l.07-.1c-.2.07-.25.12-.38.15.1-.07.03-.12-.25-.02l.17-.14-.5.3c-.44.05-1.08.35-1.28.3a4.569,4.569,0,0,0-1.1.4c.16-.12-.34,0-.23-.12a3.022,3.022,0,0,1-1.18.42l.05-.02c-1.05.23-1.7.64-2.66.82.07.07-.43.17-.28.24-.92.4-1.8.3-2.04.74a2.938,2.938,0,0,1-.76.13l.1-.05c-.8.27-1.03.35-1.64.52-.3.12-.3.3-.84.4.16-.1-.06-.04-.26.03.13-.05.16-.08-.12-.04a.637.637,0,0,1-.14.08c-.34.1-.27.1-.12.08-.01.01.01.02.06.02-.37.03-.97.3-1.04.2-.34.1-.63.22-.92.33a1.849,1.849,0,0,0,.06-.87h.03c-.12-.3-.23-.5-.47-.58.12-.13-.14-.22-.14-.32h.02c-.22-.07-.17-.38-.38-.46.02,0,.05-.03.08,0-.1-.1-.26-.2-.2-.28-.23-.23-.52-.6-.78-.63l.03-.01c-.16-.01-.12-.1-.26-.15,0-.01,0-.03.01-.03-.17-.01-.28-.25-.4-.28l.04-.05-.2-.16.06.07c-.15.12-.07-.2-.3-.25-.12-.14-.52.08-.6-.1-.12.02.15-.06,0-.1.06-.08.08-.01.1-.1-.13-.04-.1-.2-.27-.25l.04-.06c-.25-.01-.26-.3-.44-.28-.2-.07.01-.27-.25-.27v-.13c-.07-.06-.12.07-.2-.03.04-.05-.08-.1,0-.13-.15-.2-.48-.15-.67-.44-.12.07-.22-.07-.3-.01.02-.05-.27-.16-.06-.18.02,0,.04.01.03.03l.05-.05c-.1-.2-.3-.1-.47-.2.04.04.1.07.04.1l-.15-.08.06-.04-.22-.14v.08c-.1-.1-.08-.23-.26-.18-.08.03.07.14-.06.1a2.275,2.275,0,0,0-.52-.36c-.01.1-.06.07-.12.06l.02-.07c-.24.02-.03-.18-.26-.18l-.07.1c-.23.1-.06-.18-.33-.04.1.01-.01.17-.1.1l.05-.06c-.06,0-.1.02-.12,0,.04-.03.05-.1-.04-.1l.08-.07-.2.08c-.1-.1-.32-.06-.35-.17,0,0-.25-.1-.34-.01.07-.06-.07-.1-.02-.18-.08.06-.3.08-.36-.01l.02-.01c-.3-.13-.53.03-.8-.1,0,.1-.14.02-.1.14-.3.08-.48-.28-.62.05-.13,0-.14-.1-.2-.12l.03-.01a2.422,2.422,0,0,1-.48-.01c-.1.03-.1.18-.27.13.05-.06-.01-.05-.07-.06.04-.01.05-.03-.02-.08a.1.1,0,0,1-.05.04c-.1,0-.08.02-.04.03a.076.076,0,0,0,.01.04c-.1-.1-.28-.01-.3-.12a3.311,3.311,0,0,0-.75.16c-.03-.06.03-.1.1-.13l-.17.02c0-.08.1-.04.15-.06-.2-.13-.43.12-.67,0l-.05.06h-.01c0,.03-.05.08-.1.1-.03-.07,0-.16-.12-.16-.1-.07-.27.04-.4.08.07.01.05.05.02.07-.06,0-.1-.06-.14-.03v-.1c.03.1-.15.1-.17.14-.04-.07.1-.06.1-.12l-.36.03c-.12.08.03.1-.03.17-.1.02-.22.1-.35.05l.05.08a.508.508,0,0,1-.48,0c-.07.04-.12.07-.18.1-.08-1.08-.03-2.16-.14-3.12a.634.634,0,0,1,.1.44c-.01-.24-.01-.5-.02-.76a.363.363,0,0,1,.12-.28c.16-.13.34-.06.33.02l1.03.16q.638.073,1.28.1a18.317,18.317,0,0,0,2.58-.1,15.8,15.8,0,0,0,4.05-.93l-.12.08c1-.44,1.35-.38,2.48-.84.07,0,.15-.01.14,0,1.06-.5,3.22-1.27,4.03-1.8l.1.07a17.9,17.9,0,0,0,2-1.28l-.75.48c.05-.22.44-.42,1-.72a7.477,7.477,0,0,0,1.8-1.42c1.24-1.07,1.8-2.74,2.86-3.98.32-.73-.2.7.37-.33.15.06-.22.5.05.33a16.726,16.726,0,0,0,1.72-2.87h.14c.15-.45.32-.88.48-1.28a1.6,1.6,0,0,1,.55-.71,3.511,3.511,0,0,1,1.43-.5c1.85.06,1.2.48,3.17.4l.74.24a.127.127,0,0,1,.06.01,1.339,1.339,0,0,1-.01.2c-.14.36-.33.4-.37.8a2.723,2.723,0,0,0-.1.57c.1.12-.06.23.01.36l-.08.02c.03.04.04.1-.01.12H340c.04.07-.01.12.01.15h0v.07h-.03a.312.312,0,0,1-.04.27l.1.02c-.14.15.01.26-.14.4l-.02-.01c.17.26-.24.27-.1.54-.02-.03-.05,0-.07-.01,0,.1-.02.2.15.25-.02.07-.07.04-.13.03.07.02.1.1.07.14l-.02-.03-.02.16.14.01c-.06.07-.17-.03-.16.06l.1.03c-.05.1-.24.12-.36.2-.18.44-.03,1-.34,1.37l-.1-.01c-.13-.03.15.17.03.15l.04.07c-.03.01-.06.03-.08,0-.02.04,0,.05.03.1l-.1.03c-.1.16,0,.36-.1.54-.22.18-.2.65-.18.92.1.4-.52.66-.4,1.07-.02.01.01.05.02.05l-.1.32s-.5,1.55.87.65l.02.02c.12-.16.16-.27.06-.43.17.03.06-.14.12-.17h.01c-.1-.14.17-.2.08-.33.01.01.06.02.05.05,0-.08-.01-.2.1-.17.03-.2.14-.43.02-.6h.02c-.1-.1.01-.1-.02-.18h.03c-.08-.1.04-.2.02-.3l.07.01.03-.15-.03.05c-.17-.07.14-.08.06-.2.05-.1-.3-.3-.2-.38-.07-.07.12.08.08-.01.1.02.05.05.13.05-.02-.08.13-.1.1-.2l.07.02c-.1-.15.16-.2.05-.3-.03-.13.24-.02.13-.18l.1-.02c.03-.05-.1-.07-.05-.12.06.02.07-.06.12-.01.13-.1-.06-.3.15-.43-.1-.07-.01-.14-.1-.2.05.01.06-.17.14-.04.01.01,0,.03-.02.02l.07.03c.16-.06-.02-.2.03-.3-.03.02-.04.06-.08.02l.04-.1.05.04.07-.13h-.08c.06-.06.2-.04.1-.15-.05-.05-.12.03-.12-.04a1.174,1.174,0,0,0,.24-.3c-.1-.01-.07-.04-.08-.08l.07.02c-.07-.15.17,0,.12-.14l.05.02-.14-.07c-.1-.15.17-.02,0-.2,0,.05-.16-.02-.12-.07l.07.03c-.01-.04-.03-.06-.01-.07.03.03.1.04.1-.01l.08.06-.1-.13c.1-.05.03-.18.14-.18,0,0,.1-.13-.01-.2.06.05.1-.03.18.02-.06-.06-.1-.2,0-.2l.01.01c.13-.14-.03-.32.1-.44-.1-.02-.02-.08-.13-.1-.06-.2.3-.22-.02-.37,0-.08.1-.06.13-.1l.01.02a1.006,1.006,0,0,1,.05-.28c-.02-.06-.17-.1-.1-.2.05.05.05.01.06-.03,0,.02.02.04.08,0-.02-.01-.03-.02-.03-.04.01-.06-.01-.06-.02-.03-.01,0-.02-.01-.04,0,.1-.04.04-.16.15-.14a3.387,3.387,0,0,0-.05-.47.1.1,0,0,1,.1.1l.01-.1c.08.02.03.07.04.1.16-.08-.06-.28.1-.38l-.05-.05.01-.01c-.03-.01-.07-.05-.07-.07.07,0,.16.05.17-.02.08-.04.01-.16-.01-.24-.02.03-.06.01-.08-.01.01-.03.08-.03.06-.07l.1.02c-.1-.01-.07-.1-.1-.14.07,0,.04.07.1.1.03-.14.01-.07.04-.2-.05-.1-.1-.01-.16-.07,0-.06-.02-.12.01-.17a3.411,3.411,0,0,1,.52.06c-.07.1,1.16.2.6.25,1.47.27,3,.26,4.75.45a2.651,2.651,0,0,1,.02.3c-.12.35-.3.4-.32.8a3.353,3.353,0,0,0-.08.54c.1.1-.05.23.03.34l-.08.02c.03.04.04.1,0,.1l-.02-.01c.04.06,0,.1.02.14l-.02-.01v.06l-.03-.02a.29.29,0,0,1-.02.26l.1.01c-.13.15.03.25-.12.37l-.02-.01c.18.24-.22.27-.05.5-.02-.03-.05,0-.07-.01,0,.1,0,.2.16.23-.02.07-.06.04-.13.04a.1.1,0,0,1,.08.13l-.02-.03-.01.15h.14c-.06.07-.17-.02-.16.07l.1.02c-.05.1-.23.13-.34.22-.15.43.04.96-.25,1.32h-.1c-.13-.02.16.15.04.14l.05.06c-.03.01-.06.03-.08,0-.01.04.01.05.04.1l-.1.03c-.1.16.02.34-.05.5-.2.18-.15.63-.12.88.1.37-.47.65-.33,1.04-.02.01.01.04.03.05l-.1.3s-.38,1.5.9.58l.03.01c.1-.16.14-.26.03-.4.17.02.05-.14.1-.16h.01c-.1-.13.16-.2.06-.32.01.01.06.02.06.04-.01-.08-.02-.2.08-.17.01-.18.1-.4-.02-.56h.03c-.1-.1,0-.1-.04-.17h.03c-.1-.1.03-.2,0-.27l.07.01v-.14l-.03.05c-.18-.06.14-.08.04-.2.04-.1-.33-.27-.22-.35-.07-.07.13.07.08-.01.1.02.05.05.13.04-.03-.08.12-.1.08-.2l.07.01c-.1-.14.14-.2.03-.3-.04-.13.23-.03.12-.18l.1-.02c.03-.05-.1-.06-.05-.1.06.02.07-.06.12-.01.13-.1-.08-.3.12-.42-.1-.06-.02-.13-.1-.18.05.01.05-.17.14-.05.01.01,0,.02-.02.02l.07.03c.16-.07-.04-.2.01-.28-.03.02-.03.06-.08.03l.03-.1.06.03.06-.12h-.08c.05-.06.18-.05.1-.14-.05-.05-.1.04-.12-.03a1.015,1.015,0,0,0,.22-.3c-.1-.01-.08-.04-.1-.07h.07c-.08-.14.17-.01.1-.14h.05l-.15-.06c-.12-.14.16-.02-.01-.18,0,.05-.17-.01-.12-.06l.07.03c-.01-.03-.04-.05-.02-.07.03.03.1.03.1-.02l.08.05-.1-.1c.1-.05.02-.18.12-.18,0,0,.08-.13-.02-.2.06.04.1-.03.18.01-.07-.05-.1-.18-.02-.2l.01.01c.12-.14-.05-.3.08-.42-.1-.01-.02-.08-.14-.08-.07-.17.28-.22-.04-.35,0-.07.1-.06.12-.1h.01a1.059,1.059,0,0,1,.03-.27c-.02-.05-.18-.1-.12-.17.06.04.05,0,.06-.03.01.02.03.03.08,0a.138.138,0,0,1-.04-.03c.01-.06-.01-.05-.03-.03h-.04c.1-.04.03-.15.14-.14a3.007,3.007,0,0,0-.08-.45.092.092,0,0,1,.1.08v-.1c.08.02.03.06.04.1.15-.08-.08-.26.07-.37l-.06-.04.01-.01a.185.185,0,0,1-.08-.07c.07,0,.16.04.17-.03.08-.04,0-.15-.02-.23-.02.03-.05.01-.08-.01.01-.03.08-.04.05-.07l.1.02c-.1-.01-.07-.1-.1-.13.07,0,.05.06.1.08l.03-.2c-.05-.1-.1-.01-.16-.06,0-.02-.01-.05-.01-.07q.653.1,1.3.23c.62-.14,2,.16,2.45.06.06.1,2.76.37,1.2.36-.14,0-.37-.03-.35-.07l-.2.1a38.224,38.224,0,0,0,4.4.5c-.45-.1-1.06-.18-.64-.2l1.43.22-.3.06,2.12.38-.27-.17a9.524,9.524,0,0,0,2.56.52c.55-.01-.95-.33.15-.2q2.573.608,5.13,1.28c-.13-.18.33-.06.82.02l.02.14c1.84.32.6.42,2.36.83l-.18.03.53-.1a2.6,2.6,0,0,1,.77.25.863.863,0,0,1,.3.23,1.994,1.994,0,0,0,.26.22c.05.05.08.04.2.12.1.1.25.2.43.35-.48-.5.01-.45.5.28l-.23-.1a3.666,3.666,0,0,1,.6.75c-.22-.2-.23-.03.18.55l-.4-.3q.461.505.9,1.03l1.04,2.22a11.492,11.492,0,0,1-1.75.34Z"/>
  </g>
</svg>
