<svg xmlns="http://www.w3.org/2000/svg" xmlns:xlink="http://www.w3.org/1999/xlink" width="288.063" height="227.006" viewBox="0 0 288.063 227.006">
  <defs>
    <linearGradient id="linear-gradient" x1="0.126" y1="0.578" x2="0.648" y2="0.477" gradientUnits="objectBoundingBox">
      <stop offset="0" stop-color="#cc7a5e" stop-opacity="0"/>
      <stop offset="0.924" stop-color="#aa5f4b"/>
    </linearGradient>
    <linearGradient id="linear-gradient-2" x1="0.599" y1="0.857" x2="0.429" y2="0.21" xlink:href="#linear-gradient"/>
    <linearGradient id="linear-gradient-3" x1="0.483" y1="0.296" x2="0.553" y2="0.872" gradientUnits="objectBoundingBox">
      <stop offset="0" stop-color="#d581aa" stop-opacity="0"/>
      <stop offset="0.998" stop-color="#d581aa"/>
    </linearGradient>
    <linearGradient id="linear-gradient-4" x1="0.479" y1="0.494" x2="0.137" y2="0.673" xlink:href="#linear-gradient-3"/>
    <linearGradient id="linear-gradient-5" x1="0.505" y1="0.687" x2="0.489" y2="-0.149" xlink:href="#linear-gradient-3"/>
    <linearGradient id="linear-gradient-6" x1="0.252" y1="0.57" x2="0.802" y2="0.348" xlink:href="#linear-gradient-3"/>
    <linearGradient id="linear-gradient-7" x1="0.608" y1="0.194" x2="0.432" y2="0.963" gradientUnits="objectBoundingBox">
      <stop offset="0" stop-color="#0a7b95"/>
      <stop offset="0.924" stop-color="#0a5657"/>
    </linearGradient>
    <linearGradient id="linear-gradient-8" x1="0.64" y1="0.071" x2="0.394" y2="1.061" xlink:href="#linear-gradient-7"/>
    <linearGradient id="linear-gradient-9" x1="0.786" y1="0.642" x2="0.069" y2="0.407" xlink:href="#linear-gradient-7"/>
    <linearGradient id="linear-gradient-10" x1="0.911" y1="0.691" x2="-0.035" y2="0.357" xlink:href="#linear-gradient-7"/>
  </defs>
  <g id="_21" data-name="21" transform="translate(-71.343 -207.801)">
    <path id="Path_12717" data-name="Path 12717" d="M92.2,323.6c.5-5.3,8.8-1.7,12.2-2.4,5.5-1.1,19.4-5.6,19.4-5.6l5,23.9s-21.1,5-22.1,6.3c-2,2.4-8.8,12.8-14.6,23.3-3.2,5.7-4.7,10.7-7.6,10.6s-2.9-1.3-2.9-1.3l10.6-54.8Z" fill="#e79a7a"/>
    <path id="Path_12718" data-name="Path 12718" d="M107.3,332.4c1.2,10.7,5.3,11.4,5.3,11.4l18.2-4.8-4.5-24.1-19.1,6C107,320.9,106.3,323.5,107.3,332.4Z" fill="url(#linear-gradient)"/>
    <path id="Path_12719" data-name="Path 12719" d="M103.1,322.4c-.2,0-.4-.1-.4-.3a.382.382,0,0,1,.3-.5l20.3-6.1c.2-.1.4.1.5.3a.382.382,0,0,1-.3.5Z" fill="#cc7a5e"/>
    <g id="Group_932" data-name="Group 932">
      <path id="Path_12720" data-name="Path 12720" d="M118.1,338.1l1,.7.1-1.5Zm-4.4,4.5-.3.9,1.3-.3Zm-5.8-12.3.2.8.7-.5Zm8.8-.6-.6.3.6.5Zm-2.7,7.5-.4-.5-.3.7Zm-3.5,2.2-.6.8,1.1.2Zm.7-2.6,1,.6.1-1.4Zm1.1-6.1-.2,1,1.1-.2Z" fill="#ad5c49"/>
      <path id="Path_12721" data-name="Path 12721" d="M112.5,339.3l.5-1.4-1.6.1Zm-1.9-3.8,1,.1-.3-1.2Zm4.8-7.7.2,1.3,1.1-.8ZM110,342.3l1.2.2-.5-1.4Zm6.9-2.6.2,1.2,1.1-.7Zm-5.2,4.3,1.5-.3-1.6-1.4Zm1.5-18.1.1,1.1,1-.6Zm6.5,12.2-1.7,1.4,2.3,1.3Z" fill="#ad5c49"/>
      <path id="Path_12722" data-name="Path 12722" d="M117.7,329l-1.9,2.3,2.8,1.3Zm-1.1,5,1.7.8.3-1.9Zm2.8,6.3-.2.8h.8Zm-6.1-11.5.2.9.8-.6Zm1.7-8.5.2.9.8-.6Zm-.2,7.2-.6.4.6.6Zm4.8,9.8-.6-2.8-2.5,2.2Zm-3.4,1.1-.5.8,1.1.3Zm-.7-15.2-1.7,1.1,2,1.3Zm1.6,12.5-1.5-1.5-.7,2.3Zm-2.5-.9.3-.7-.8-.1Zm-6.5,1.8.4-.7-.9-.1Zm3.9-9.2.4-.7h-.9Zm.7,14.2.7.4.1-.9Zm-.5-8.1-.3,1.2,1.3-.2Zm2.7,8,.5-1.4-1.6.1Z" fill="#ad5c49"/>
      <path id="Path_12723" data-name="Path 12723" d="M111.8,341l1.2.1-.5-1.4Zm1.4-10.4.2,1.2,1.1-.7Zm-4.1,9.6-.1.9.9-.1Zm8.2,2.3,1.8-.4-1.5-1.6Zm-2.2-1.5,1.1.2-.4-1.4Zm1.9-15.9-1.9,1.8,2.5,1Zm-.8-3.6-1.2,1,1.5.7Zm-.7,21.5,1.3-.4-1.1-1.3Zm-1-12.1.2,2.4,2.2-1.2Zm2,6.7-1.1.3.9,1.1Z" fill="#ad5c49"/>
    </g>
    <path id="Path_12724" data-name="Path 12724" d="M114.3,311.9l7.6,36.8a1.745,1.745,0,0,0,2.3,1.3c12.9-3.9,88.2-26.8,98.9-31.8,11.6-5.4,13.3-8.7,16.2-14.5s20-64.8,22.8-75.5c2.5-9.5,4.1-20.1,4.1-20.1H199.7s-5.2,42.2-8.6,53.8c-3.3,11.6-3.8,14.6-15.7,20.1l-60,27.8a1.827,1.827,0,0,0-1.1,2.1Z" fill="#dd97b3"/>
    <path id="Path_12725" data-name="Path 12725" d="M301.4,418c-5.3-.1-2.4-8.6-3.4-12-1.5-5.4-7.1-18.8-7.1-18.8l23.5-6.9s6.7,20.6,8.1,21.5c2.6,1.8,13.5,7.7,24.4,12.7,5.9,2.7,11.1,3.8,11.2,6.7s-1.1,3-1.1,3L301.4,418Z" fill="#e79a7a"/>
    <path id="Path_12726" data-name="Path 12726" d="M308.2,401.4c10.6-2,11.1-6.3,11.1-6.3l-5.6-17.6-24.3,6.2,7.4,18.7c0,.1,2.6.6,11.4-1Z" fill="url(#linear-gradient-2)"/>
    <path id="Path_12727" data-name="Path 12727" d="M298.6,406.4c0,.2-.1.4-.3.4-.2.1-.5,0-.5-.2l-7.5-19.8c-.1-.2.1-.4.2-.5.2-.1.5,0,.5.2l7.6,19.9Z" fill="#cc7a5e"/>
    <g id="Group_933" data-name="Group 933">
      <path id="Path_12728" data-name="Path 12728" d="M311.3,384.3l.5-1.1h-1.4Zm4.8,4.1.9.2-.4-1.3Zm-11.4,6.9.8-.3-.6-.6Zm13.5,1.8.8-.3-.6-.6Zm-15.1-10.4.4.5.4-.6Zm7.8,1.8-.5.5.7.2Zm2.5,3.2.8.5.1-1.1Zm-2.6-.4.5-1.1-1.4.1Zm-6.3-.4,1.1.1-.3-1.1Zm8.6-1.2-1.4-.3.3,1.6Zm-3.6,2.3v-1l-1.1.5Zm-8.2-3.9,1.3-.3-.9-1Zm15.1,3.8v-1.2l-1.3.6Zm-3.4-6.6,1.2-.3-.9-1.1Zm4.5,5.1-.4-1.5-1.3,1.6Zm-17.8.1,1-.2-.6-.9Z" fill="#ad5c49"/>
      <path id="Path_12729" data-name="Path 12729" d="M311.1,382.7l1.5,1.5,1.1-2.4Zm-8.9,3,2.6,1.7,1-3Zm5.2.5.5-1.8H306Zm6-3.5.7.2-.1-.8Zm-10.8,7.4.9-.3-.8-.7Zm-8.7-.7,1-.3-.8-.7Zm7.2-.6.5.6.5-.8Zm9.2-5.9-2.7.9,2.5,2.2Zm1.5,3.2.9.4.1-1Zm-15.1,2.5,1.4,1.5,1-2.1Zm12.3-3-1.3,1.7,2.4.4Zm-.6,2.6-.7-.3v.8Zm2.5,6.2-.7-.3v.9Zm5.3,1.1-.7-.3v.9Zm-1.4,1.9-.3-.7-.6.6Zm5,1.4-.3-.7-.6.7Zm-18.4-7.2-.8-.3.1.9Zm14-2.4.3-.7-.9.1Zm-8,1.5,1.2.2-.4-1.4Zm7.6-3.6-1.5-.4.3,1.6Zm-.2,3.1V389l-1.3.6Zm-10.4-.2,1.2-.3-.9-1Zm9.9,3h1l-.2-.9Zm-1.5,1.7h.9l-.2-1Z" fill="#ad5c49"/>
      <path id="Path_12730" data-name="Path 12730" d="M317,394.5h.9l-.2-1Zm1.2.3h1l-.2-.9Zm-2.4-10.1-.5-1.7-1.5,1.5Zm-1.3,2.3v-1.2l-1.3.6Zm-16-.1,2,1.7.7-2.6Zm-3.5,1.2,1.1,1.1.5-1.6Zm21.4-1.6-.4-1.4-1.3,1.1Zm2,6.7-.3-1.4-1.3,1.1Zm-13.8-4.5,2.3-.5-1.5-2Zm6.3-2.8.5,1.1,1-1Z" fill="#ad5c49"/>
    </g>
    <path id="Path_12731" data-name="Path 12731" d="M316.8,380.8l-34.1,10.5a3.518,3.518,0,0,1-4.3-2.1l-30.1-75.3c-5-9.5-12.8-24.7-18.3-32.4-9.1-12.9-21.8-35.8-29.3-50.8a56.921,56.921,0,0,1-5.5-22.7h65.2s23.7,47.2,30.7,70.4c6.3,20.8,23.9,85.7,27.5,99.1a2.8,2.8,0,0,1-1.8,3.3Z" fill="#eeb3ca"/>
    <path id="Path_12732" data-name="Path 12732" d="M121.7,347.5c.4,1.8.9,3,2.7,2.5,10.2-2.7,42.5-12.9,53.1-16.4,15.4-5.1,41-11.9,49-16.9s9.7-6.6,12.2-11.8,1.7-5.2,1.7-5.2l-8.6-14.5L117,324.6Z" fill="url(#linear-gradient-3)"/>
    <path id="Path_12733" data-name="Path 12733" d="M293,387.8c-.3-.7-25.8-71.8-30.9-83.4-3.3-7.6-18.8-36.6-30.2-57.7l-12.5-23.5c-1.8-3.8-4.8-12.5-5.1-14.7l.4-.2-.4.2V208l.2-.2h.6l.1.3-.4.2h.4a91.885,91.885,0,0,0,5.1,14.6c1.2,2.4,6.1,11.7,12.4,23.5l30.2,57.8c5.1,11.6,30.7,82.8,31,83.5l-.9.1Z" fill="#f9dcf1"/>
    <path id="Path_12734" data-name="Path 12734" d="M311.9,382.1l-29.2,9.1c-1.9.5-3.8-.1-4.6-2.7-2.6-6.9-7.4-17.6-12.1-31.1-5.8-16.7-14.9-35.6-18.5-46-3-8.4-24.1-40.2-24.1-40.2l10.4-5s50.9,26.3,59.9,51.6c9,24.9,18.2,64.3,18.2,64.3Z" fill="url(#linear-gradient-4)"/>
    <path id="Path_12735" data-name="Path 12735" d="M205.8,240.9a233.715,233.715,0,0,1,23.7-3c19.9-1.3,44.8-1,44.8-1l-13.9-29.1-65.1.2s.4,8.9,2.8,15.7c1.3,4.3,7.7,17.2,7.7,17.2Z" fill="url(#linear-gradient-5)"/>
    <path id="Path_12736" data-name="Path 12736" d="M197.9,223.8s10.8,24,21.6,41.4l21.4,34.5a19.314,19.314,0,0,1-3.6,7.4c-3,4-3.9,7.5-14.3,11.2-10.4,3.6-24.8-35.1-24.8-35.1l-8.1-17.8a127.607,127.607,0,0,0,4.7-21.6c1.7-12.7,3.1-20,3.1-20Z" fill="url(#linear-gradient-6)"/>
    <path id="Path_12737" data-name="Path 12737" d="M116.7,323.6l-.12-1.1c.7-.3,70.32-26.8,79.62-32.5,9.2-5.6,18.5-31.6,18.6-31.8l.9.3c-.4,1.1-9.5,26.5-19,32.3-9.4,5.8-77.2,31.7-80,32.8Z" fill="#eabed9"/>
    <g id="Group_934" data-name="Group 934">
      <path id="Path_12738" data-name="Path 12738" d="M132,314.7a.486.486,0,0,0,.6.3h.1l-.4-1.1a.829.829,0,0,0-.3.8Zm5.8.2,1.3.1-.3-1.2Z" fill="#efbfd8"/>
      <path id="Path_12739" data-name="Path 12739" d="M131.8,314.1l.3.5h-.5l.1-.2h-1l.1.2h-.2l.7,1.4.9-1.1.4.8-.1.1.2.1.5.1-.2-.6.2-.3H133l.4-1.1-1.6.1Zm-13-5.1.1-.6-2.9,1,2.6,2.3.1-2.1,1.1.7-.3-1.9-.7.6Zm1.3,4.8.7-1.8-1.7.1,1,1.7Zm17.8-10.6,2.4.2-1.3-1.8-1.1,1.6Zm-6.8,7.3-.1.3.5-.3h.1l.5-.3-.8-.6-.1.3-.2-.4.5-.3-.7-.3v.2l-.4-.6-1.1,1.6,1.8.4Zm11.8-7.9-.2-1-.9,1.1h-.9l1.2,2.1.6-1.7.4.1-.1-.4,2.1.2-1.3-1.8-.9,1.4Zm-3.6,2.2-2,.1,1.2,2.1Zm20.7-6.4,2.2-.4-1.1-1.8-1.1,2.2Zm10.2-6.6-.9,2.1,2.2-.5Zm-18.4,14.4,2.2-.5-1.2-1.7Zm-3.1-.3-1.2-1.7-.9,2.2.7-.2.5.3v-.4l.9-.2Zm-19.3.6-.8,1.7,1.9-.4-1.1-1.3Zm6.3,1.1.6,1.1h-.2l.3.7.1-.1.3.5.8-2.2h-1.9Zm1.1,14.6,1.1-.3-.9-.7-.2,1Zm-8.2-10.7-.2-1.3-1,.6,1.2.7Zm24.2-10.3-1.2,1.1,1.5.3Zm10.8-8.2-1.2,1.1,1.5.3Zm-16.7,17.5,1.3-.4-1-.9Zm8.2-13.5-.8.6,1.5.3-.2-.9.8-.5-1.4-.8.1,1.3Zm2.6-5.6.3-.5-.3.1v-.9l-2.1,1.1,2.1,1.1v-.9Z" fill="#efbfd8"/>
      <path id="Path_12740" data-name="Path 12740" d="M151.6,297.5l-.2,1.7-.7-.6-.3,1.1.9-.2v.2l2.1-1.2Zm21,3.1-1.2.2.8,1.1.4-1.3Zm-10.9-10.5.2-.6h.1v-.2l.2-.7.1.3-.2.1.3.3.3,1.1.3-.3,1,.7-.1.2h.2l.1.1V291l.5-.1-.7,1,3.4-.1-1.3-2.5v-2.9l-3.2,1.6.6.2-.2.2-.7.3-.7-.1.1-.2-2.7,1.1,1.2.9-.2.4-.5-.5v-.2h-.2l-.5-.5-.2.5-.2-.2v.5l-.7.3.6.4v.1h-.9l.5,1.2-.1.3.2-.1.3.8.5-1.1.7-.3-.1.1-1.4,2.2,2.2.1-.6-1.9,1-.3.3.3.1-.4,1.6-.6-1.2-1.4Zm4.4-1.1-.9,1.2-.6-.5v-.1h.4l-.3-.5.1-.6Zm-1.4-.5-.4.1-.4-.5.8.4ZM146.1,312l-.5.6.6.2-.1-.8Zm-2-7.4.1-.2h-1l.1.3h-.1l.4.9h-.1l.4.8.3-.5.8-.9-.9-.4ZM131,312.4l-.1-.9-.5.6Zm-2.6-6.6,1.1.6v-.8l.6-.2.1,1.2,1.1-1.1.5-.6-.6-.3.5-.4,1.2.7.1-3-3.2,1.4.7.4.2,1.2.1.5-.2-.1-1-1.3-.2.3.1-.9-3.3,1.4,2.2,1Zm38.2,12.1v-.8l-.8.3Zm-8.4-1,.5-.6-.6-.2.1.8Zm.9-15.5-1,1.2,1.3.4ZM164,295l-1.3-.1.7,1.1Zm-11.3.2-.3,1.3,1.2-.4Zm3.8,5.5-.6-2.3-1.1,1.5-.3-.8-1.4,2.1H153l1,2.2.9-1.9.4.1-.4-1.2,1.6.3Zm16.6-3.9-.6.9-.5.6,1.2.5-.2-.7.5.2Zm-3.2,0-.1.1.2-.3h-1.2l.5.5-.3.5.6.1-.3.5,1,.3-.2-.8.4.1-.6-1Zm13.9-9.5.1-.2-.8.1.1.2-.8.2,1.8,1.4.6-1.9-1,.2Zm2.9-4.1.5-1.9-2.3.5.7.5-.5.6,1,.3-.3-.8.9.8Zm-54.5,24.5-.6,1,1.3.1Zm9.8.3.7.9.4-1.3-1.1.4Zm-2.3-.1,1,.2-.2-1,.1-.2h-.1v-.3l.3.2.1-.9-.5.2h-.2l1.4-.8-1.9-1.2-.3,1.9-.1.3.2-.1.5.5h-.3l.2.3-.3.3-.1-.2-.4,1.6,1.3-.2-.7-.6Zm.5-1.5h0l-.1.2Zm-14.1,5-.7,1,1.3.1-.6-1.1Zm10.1.2.8.9.4-1.3ZM149,301l-1.2-2.4.6-.2-1.6-1.5.4-1.6,1.2,1-.5.6,1.2.3-.1-.5.5.3.8.6.2-1.4h1.2l-.3-.7.5.2.1-3.1-3.2,1.5,1.3.7-.4.7-.8.4-.1-1.6-1.7.8.1-.2-2.3,1.1.9.9-.6,2-.6-2.8-.8,1.3h-.4l.1-.7-.5.8-.3-.1-.4-.1-1.8.9,2.3,1.7.2.2-.4.1.7,1.2.4-1.3-.4.1v-.4l.2-.1-.1-.1v-.1h.1l-.1-.1.1-.9.2-.1,1.5,1.2-.2.6,2.1-.8-1.7,2.2Zm-24.8,11.1-.7-1.7-1.4,1.8,2.1-.1Zm-7,.6-.7-1.7-1.4,1.8,2.1-.1Zm8.2-4.9.3.1.9.8v-.6l.3.1-.1,1.8-.8-.3.1.7-.9-.5-.1.9.3-.1.4.5.5-.9.4-.3v.1l2-1.2-1.7-1.1-.4-1,.2.3v-1.9l-.7.4-.7.3.1-.9-3.2,1.5,3.1,1.5v-.2Zm0-1.9.3.2-.3.3h-.1ZM115,314.7l.8,3.4,2.1-2.7-2.9-.7Zm26.4-4,.4-.1-.6-.3.3-.2-.7-.3.1.7.2-.1-.1.3h-.8l.8,1.1.4-1.1Zm-7.3,4.7,1.1.6-.2-1.2-.9.6Zm35.6-26.5.4,1.6,1.1-.8-1.5-.8Zm2.7-1.8.4,1.4-.1.4-.5-.3-.1,2.3,2.1-1.3-.6-.3h.2l-.1-.1-.2-.6-.2.2-.1-.1,1-.8-1.8-.8Zm-6-.9,1.4.9-.2.4.6-.1.2.1v-.2h.2l-.1.2,1-.4h.2l2.1-.7-1.3-1.2,1.3.8v-.3l.7.2-.1-.9.4-.2,1.1,2.6,2-2.3-1.7-.4,1.1-.8-1.3-.4v-.1l.9.3-.1-.9,1.7,1,.1-.3.1.2-.1.1,1.9-.3-.2-.3,1,.2-.3-.4h.1l.6.3v-.4l.8-.2-.9-1.1h.3l1.1.1-.1.4h-.1v.7l.7-.3-.3-.1.3-.1-.4-.4,1.1.1v.9l.9.7.1-1.3-1-.3-.2-3.3-2.2,1.2-.4,1.5-.5-1-1.9.9-.1,1.3.1-.5-.4-.2v.7h-.4v-1l-1.8.9-.7.5v-.2l-1.4.6,1.2.7v.3l-1-.2-.3-.7-.2.8v-.1l-.2.2v-.8l-2,1-.1-.1-.2.2h.1l-.9.3.5.7-.7-.2v-.4l-2.1,1.1Zm11.7-3.9-.2.3-.1-.3Zm-4.8,12.8,1.4.3-.4-1.6-1,1.3ZM130,319.6l1.1.5-.2-1.2-.9.7Zm6.1-9.7.6,1.4.8-1.3-1.4-.1Zm-2.8,7.4-.5,1.1,1.4-.2Zm11-2.7-1.1.6,1,.6Zm4.9,1.7.8-.7-.9-.4.1,1.1Zm-4.3,3.5.9.3-.3-.9-.6.6Zm7.9,1.4.5-.8-.9.1.4.7Zm43-58.7h-.2l.2-.2-2.1-1,.5,2.3.7-.8.9-.3Zm1.3,9.8-1.4,1,1.4.6Zm-.6-2.2v-1.6l-1.4,1Zm-2.9-12.4.1.2-.7.1.5.7.9-1.5.2-.4-.6.1-.4-.4v-.1l-.1.1-.2-.2.3-.2-.6-.2v.2l-.2-.9-.7,2.6.7-.2.8.1Zm.1-.5Zm.7-.8,1.1.5v-1.4Zm1.6-14.1,1.1.5.1-1.4-1.2.9-.8-1-.3,1.4,1.2-.3-.1-.1Zm1.8.5-1.2.9,1.1.5.1-1.4Zm2.9,6.2-.6-.6-.2.7.8-.1Z" fill="#efbfd8"/>
      <path id="Path_12741" data-name="Path 12741" d="M198.9,243.6l.8-.1-.6-.5Zm2.4-2.2h-.7l.3.8Zm-3.3,5.1.4-.7h-.7Zm-1.9,15.3,1.5-.9-1.7-.6Zm-1.6-2.5.2-1-.9.5Zm2.5-4.2,1-.1-.7-.7Zm11.6,5.7-.4.6.6.1-.2-.7Zm1.1,10.1.5-.3-.6-.2Zm-4.1-6.4.5.4v-.6Zm-10.4-17.6.1-.6,1-.7-1.4-.5.1.9-.7.4.9.5Zm2.4-6.6-.2.8.9-.1ZM194,270.6l-.6,1h.3l-.3,2.1.4-.3-.2.3h.1l.1.3-.2-.1.3,1.4.2-.1.5.1-.1-.4.8-.6-.8-.2.1-.2-.6-.2h.5l-.3-.7,1-.6-1.5-.8h.4l-.1-1Zm7.6,3.2.9-.4-1-.4Zm-3.2,2.3.3-.6h-.8Zm-.2-4.6v.5l.5-.3Zm.7-7.1.1-.8-.6.2.5.6Zm1.6,2.9h.7l-.3-.4Zm-5.2-1,.2.6.4-.4-.6-.2Zm6.8-6.9-.6.2.5.5Z" fill="#efbfd8"/>
      <path id="Path_12742" data-name="Path 12742" d="M201.1,260l.4-.4-.6-.2.2.6Zm-4.5-6.2.2-.7-.6.2.4.5Zm1.7,3h.6l-.3-.4Zm-.9-9.6-.5-.4-.2,1,.8-.1.1.1v-.1l.3-.1-.2-.2.1-.3-.4.1Zm1.7,2.7-.3.4h.5Zm-3.9-.2-.5-.2.1.5Zm12.3,21.7-.6.1.5.4Zm-3.3-5.5-.2.5h.6l-.4-.5ZM193,283.1l.5-.1-.4-.4Zm12-7,.4-.5h-.6l.2.5Zm-24,9.3-.5-1.6-1,1.4Zm15.7-26.1-1.2.1.5.9Zm4-3.4-.3-.9-.6.6.9.3Zm.6,6.7-.1.9.9-.5-.8-.4Zm-9.5.4.5-.6,1.6-.3-.8-.7.2.1V261l1.2.5v-.1l.8-.6-.9-.4v-.7l-1.1.9v-.4l.3-.2-.5-.1.6-.5-1.6-.7.2,1h-.1l.1,1.1-.2.2-.7-.6-.7,2.6.5-.1.6.1Zm5.6,2.4-.2-.5-.5,1h.4v.3l.4-.2h.1v-.1l.3-.2-.5-.3Zm-.1-2.5-1,.6,1.2.4Zm1.2-9.2-.3-1-.6.6.9.4Zm.5,6.9-.1,1,.9-.5-.8-.5Zm-.9-2-.4-1.1-.6,1Zm-1.8-6.9.1.9.8-.5-.9-.4Zm7.5,3.8-.8.3.7.7.1-1Zm-3.7-2.1-.6.3.6.5Zm-4.2-.9-.1-1-.7.7Zm-.3-5.8v.7l.8-.3Zm5.4,5.1.2-.8-.7.2Zm-2.3-2.7-.2-.5.4-.3-.8-.2v.3l-.4.4Zm.5,6.9-.1,1,.9-.5-.8-.5Zm-1.7,3.4,1.5.6v-1.9l-1.5,1.3-.2-.6-.6.6,1,.2Zm-6.6,19.1-.2-1.4-1,1Zm-.9,1.3-.1-1-.7.7Zm-.2-5.8v.7l.8-.3-.8-.4Zm4.8,4.4.5.6.2-.7Zm3.7-1.5.3-.8-1,.1.7.7Zm-5.5-.6h.7l-.3-.8ZM185.3,295l.9-.2-.6-.8-.3,1Zm-2.1-4.4.5-.7h-.8Zm-6.8,2.1,1.4-1.8h-2.1l.7,1.8Zm12.9-1.4.7.3-.2-.8Zm-13.6,7.9.9-.2-.6-.8-.3,1Zm-1.7-5h-.9l.4.7Zm5.6,1.2.7.3-.2-.8Zm-2.6-.2-.2.9.9-.2-.7-.7Zm-2.7-4.1.3.6.5-.6Zm6.5,1.2.7.3-.2-.8Zm1.3-5.5.1-.3h-1l.2.3h-.2l.3.5-.5.5-.1-.2.1-.1-.2-.1-1.1-.3.3,1.2.7-.6-.1,1,1.1-.4-.1-.1.4.2v-.5l.1.3,1-1.3Zm3,1.5.7.3-.2-.8Zm-8.7-1.3-.4-1.7-.9,1.4,1.3.3Zm-4.8.2-.4-1.7-.9,1.4,1.3.3Zm.1.2-.6.8.9.1-.3-.9Zm16.5-2.6.3-.7h-1Zm.7-6.5.3-.7h-1Zm-5.5,5.7-.2-.8-.4.7.6.1Zm4-5.3-.2-1.1-1.7,1.5.4.1,1.3.3v-.1l.6.1v-.3l.5-.4-.9-.1Zm-1.3-1-.3-.8-.4.7.7.1Zm-1.3,3.1.7-.1-.4-.8Z" fill="#efbfd8"/>
      <path id="Path_12743" data-name="Path 12743" d="M187.7,287l.5-1.1h-1.3Zm.6-5.8.5-1.1h-1.3Zm-3.5,5.1.1-.2.2.4.3-.6-.4-.1.1-.1h-.3l.2-1.2-1.1.7.9.5h-.3l.3.6Zm-5.6,2.9-1.1-1.3.1-.4-.4.1.5-1.1H177l.8,1.1h-1.1l.7.8-.8-.3.1,1.2.5-.3-.3.3h.5l-.1.1h.3l.6.1v-.2l1-.1Zm-1.5-.9.1-.2Zm.2.2-.1-.3.2.1-.1.2Zm1.5,2.3.6-.3-.6-.2Zm9.8-1.5.4-.9-1.1-.1.7,1Zm-.4-6.2.9-.4-.9-.4Zm.1-7.1.9-.4-.9-.4Zm-41.5,36-.3.9.9-.1-.6-.8Zm-2.7-4.1.3.7.5-.7Zm7.3,1.7-.2-.9-.5.5Zm-14.4,6.2-.3.9.9-.1-.6-.8Zm-2.6-4.1.3.7.5-.7Zm7,1-.5.5.7.3Zm-2.6.9-.5-.7-.3.9.8-.2Zm4-3.1-.2-.8-.5.5Zm-4.3-6.3-.2-.8-.4.7.6.1Zm3.7,1.1.1-.1-.3-.1-1.1-.3.3,1.2.7-.6-.2,1,1.1-.3-.6-.8Zm-4.4-4.8.1-.1,1.5.8V301l.4.6.4-1.3-.7.1v-.5l.2.1.5.3.1-.2h.1l-.1-.3.1-.6h-.2l-.2-.7-.3.5v-.7l-3.2,1.5,1.2.6.1.1Zm-4.7,4.4-.5.8-.6-.5-.3,1.4,1.2-.6-.1-.1.7.1-.4-1.1Zm16.8-2.9-.6-.5v-.2l-.1.1-.2-.3-.1.6-.6.6,1.6.3v-.1l.1.2.3-.6.1-.1Zm-5.2-.8-.5.7.7.1-.2-.8Zm-12.1,1.9.2.1H133l1,1.7.1-.5,1.9-.4-1.3-1.7-.3.6-.3-1.2,2.5,1.3.1-1.2.5-.6-.1-.1h.1l-.4-.1.1-1.1-3.2,1.4.4.2-.9,1.6Zm-11.8,6.1h0l.6.3v-.2l.8.1v-.2l.3.5.7-1.8-1.3.1v-.2l-.1.2h-.1l.1-1.4-3.1,1.4Zm13.8-3.3-.5.7.7.1v-.2l.2-.1.4.5.7-1.2h-1l-.2-.2v.1l-.4-.1.4.5-.1.1-.2-.2Zm4.3-4.4.1.7.8-.4-.9-.3Zm10.2,3.5.6-1.1h-1.4l.8,1.1Zm-4.6.1.2.4-.3.3.8.2-.2-.6.2-.3Zm1.3-1.6.5.6.1-.2.2.4.3-.6-.4-.1.1-.1h-.8Zm-5.1,4.4.1.6.6-.3-.7-.3Zm10.4-1.5-1.1-.1.6.9Zm-.8-5.3.9-.4-.8-.4-.1.8Z" fill="#efbfd8"/>
      <path id="Path_12744" data-name="Path 12744" d="M130.3,315.2l-.2-.1V315l-1.1-.3.3,1.2.7-.6-.2,1,1.1-.3-.6-.8Zm4.3,7.6.9-.2-.6-.8-.3,1Zm-2.2-4.3.5-.6h-.8Zm6.7.3-.5.5.6.3-.8.4,1,.5.1-1-.3.1Zm-12.9-5.3-.4.7.7.1-.3-.8Zm9-3.3-.7.7,1.1.4-.4-1.1Zm-12.9,2.4.6.8h-.3l.2.3-.5.7,1.4.2-.2-1,.1-.2h-.1l-.1-.3.3.2.1-.9-.5.2h-1Zm1.1.5-.1.2Zm-2.9,2.6.9.1-.2-1-.7.9Zm1.5.9.7.1-.2-.8-.5.7Zm5-4.4.7-.4-.7-.3v.7Zm1.7,6.2.6-.3-.6-.2Zm10.4-2.1-1.1-.1.6.9Zm-.9-6v.8l.9-.4ZM191,278.9l-.1.7-.3-.1.4,1.1.6-.7-.4-.1.7-.3Zm-3.4-3.3-.1.7-.3-.1.4,1.1.6-.7-.4-.1.7-.3Zm-21.4,16.8.2.7h-.1l.4,1.3.8-.7-.1-.1.9-.8-2.1-.4Zm-2.4,6.3,1.5-1.5-2.2-.3Zm3.3-2.6.1-.4-1.5.2.3.4h-.3l1.3,2.1,1.5-2.2-1.4-.1Zm-5.1,2.3-1.3.7.9.4-1.4,2.1,2.2.2-.8-2.3.5.2-.1-1.3Zm-4.6,2,1.5.3-.3-1.3Zm-5-7.1.7.8.4-.9,1,.5-.3.9,1.5-.6.3.9,1.3-1.3.3,1.4.1-.1v.1l-.3-.3-.3,2.4,2.1-1.2-.5-.3h.9l-.4-1.2-.5.9-.7-.6.8-.5-1.2-.7.1-.1h-.2l-2.1-2.2-.7,2.1v-1.8l-2.1,1.1.8.4-1,.3Zm10,.5.8-.5-1-.3Zm33.5-43.9-.4-2.5-1.7,1.9,2.1.6Zm-26.1,40.3-.8-2.4-.8,1.3-.7-.6-.3,1.3,1-.4-.4.7Zm12.7-11.7,1.2,2.3,1.2-1.8h.2l-.1-.4.4-.3-.4-.2-.3-1.5-2.3,1.7,1.1.3-1-.1Zm-8.7,14.8-.8-2-1.2,1.9Zm-10.6,8.3.1.9.8-.5-.9-.4Zm15.1-2.2.5-1.4h-1.6Zm-29.7,21.5.9-.2-.6-.8-.3,1Zm-2.2-4.4.4-.7h-.7Zm6.2.6.7.3-.2-.8ZM139,325l.9-.2-.6-.8-.3,1Z" fill="#efbfd8"/>
      <path id="Path_12745" data-name="Path 12745" d="M137.2,320.1h-.8l.3.7Zm5.7,1.2.7.3-.2-.8Zm-2.6-.3-.2.9.8-.2-.6-.7Zm-2.8-4,.4.6.4-.6h-.8Zm7.1.8-.5.5.7.3Zm-2.8-2.8h-.2l-.1-.4-.2.4h-.1l-1-.4.1,1.2.5-.3-.3.3,1.4.2-.3-1h.2Zm-5.6,0,.6.7.6-1.1h-.8l-.1-.4-.2.4h-.2l.1.2-.2.2h.2Zm6.5,1.7.6-.4-.6-.2Zm9.9-1.5.4-.9-1.1-.1.7,1Zm-6.3-1.4.7.1-.2-.9Zm5.8-4.8.9-.4-.9-.4Zm-10.6,16.2.5-1.4-1.7.1Zm-9.4-1.4,1.2.2-.4-1.4-.8,1.2Zm26.7-10.6,1.3-.4-.9-1.1-.4,1.5Zm-3.7-6.5.7-1-1.3.1Zm9.5.5,1.2.5-.4-1.3Zm7.6.9,1.3-.4-.9-1.1-.4,1.5Zm-3.7-6.5.7-1-1.3.1Zm9.5.4,1.2.5-.4-1.3Zm-1.1-18,.7,1,.9-1.7h-1.1l.3-.2-.7-.4.1.5h-.2v-.4l-1.1.6,1.2.9-.1-.3Zm-37,25.6-1.1.6,1.2.9-.1-1.5Zm25.2-14.5.5,1.1.6-1.2Zm-5.9,8.8,1.2.2-.2-1.1Zm35.9-16.1.5-1.1-1.3.1Zm11-18.5,1-.5-1-.4Zm-14.6,16.6.4-1.2-1.3.2.9,1Zm5.7-2.2,1,.1-.3-1.1Zm6.4-6.6.9-.6-1.2-.4Zm-1.4,3.8.4-1.1-1.3.1.9,1Zm-7.6-.8,1,.1-.4-1.1Zm-3.3-6.4-1-.3.4,1.1.6-.8Zm-2.3-.9-1-.3.4,1.1.6-.8Zm2.9,5.4.7-2.2-1.9.3,1.2,1.9Zm11.6-5-.8.6.6.4Z" fill="#efbfd8"/>
      <path id="Path_12746" data-name="Path 12746" d="M191.3,276.4l1.9-1.2-1.7-1.1-.2,2.3Zm6.4-8.4v-1.9l-1.5,1.2,1.5.7Zm-3.3,15.4.5-1.1h-1.3Zm14.2-9.3-1-.5v1Zm-7.9,2,1-.5-1.1-.5Zm-5.4-4.7,1.3-.9-1.5-.5Zm4.1-2.8h0v-.4l-.8.3.5.5-.5.7H200l-.6-1.1Zm-6.3-3.5.2,1.1,1.5-.9-1.1-.3.1-.6-.7.4-.2.1.2.2Zm-3.6,2.8-1.4,3.7.9-.2-.1.6-.1.1-.1.3.5-.1,1.1.5v-.7h.1l-.1-.1v-.7l1.2-.2.3.3-.8.6.5.2.8.6v-.3l.4.2v-1.5l.2-.3h-.2v-.1l-.1.1-.4-.4,1.1.2-.3-1.1h1.7l-1.2-2.7-.7,1.4v-.1l-1.3,1.6-.8-.8.5-.5h.1l.4-.3.4.2v-1.3l.1-.1h-.1v-.1l1.6-.2L192,265l.1-.1v.1l1-.9.1-.2.3-.3h-.1l.2-.4-.9.1-1.3-.5.4,1.8-.5-.2v.1l-1-1-1.1,3.7,1.8-.2v.1l-.7.5-1-.4.2.8v-.1Zm3,3.2Zm-2.6.3-.1.1-.1-.1h.2Zm8.5,2.1-.4.5-.1-.2-.6.8h1.1l-.2-.3h.6l-.4-.8Zm2.8-2.6-1.3,1.4,1.9.2-.6-1.6Zm2.7,1.7,1.6.1-.6-1.2Zm-19.3,4,2.3.2-.8-1.7Zm1.6-1.7,2.3.2-.9-2.5-1.4,2.3Zm13.2,2.2-.8-.4-.2-.4-.2.2-.5.6h.7l.1.6.9-.6Zm-.6-9.9.7-.5-.5-.2v-.1l-.2.1-.1-.1v.1l-.9.4.9.7Zm-3.4-17.3-1.1.2.9.8.2-1Zm.3,6.7.4,1.3-.3.3.9.3-.3-.8.6-.6-1.3-.5Zm-1.8-2.4-.3-.3v.1l-.3-.1.2.6-.1.6.3-.1.2.6,1-1-.3-.1,1-.2-1.3-1,.3-.4.5.2-.1-1.4.6-.4-1.4-.5.1.9-.9.7.6.3h-.6l.5.9v.6Zm2.3.8.8-.8-1.2-.5Zm2.4,6.5.1-1.3-1.1.9Z" fill="#efbfd8"/>
    </g>
    <g id="Group_935" data-name="Group 935">
      <path id="Path_12747" data-name="Path 12747" d="M235.5,213l.2,1.5-1.6-.4Zm2.2-3.4.2,1.5-1.6-.4Zm-5.9.5h-.9l.4-.9Zm5.4,5.5-1.4,1-.4-2Zm4.4-5.6-1.4.9-.3-1.9Zm3.8-.6-1.5,1-.3-2Zm-8.1,0-1.5,1-.3-2Zm-.7,2.3-1.4,1-.4-2Zm3.2-.2-1.5.9-.3-1.9Zm-7.8,0-1.5,1-.3-1.9Zm2-.4-1.5,1-.3-2Zm18.7,2.5-1.5.9-.2-2Zm-6.2,1-.5-1.7,2,.3Zm2.8-1.2-.4-1.7,1.9.3Zm-7.4.6.2,1.5-1.6-.5Zm-8.2-.1.2,1.5-1.6-.5Zm18.2,1.8.2,1.5-1.6-.5Zm-7.8-2.5.2,1-1.1-.2Zm-6.7,0h.9l-.5.9Zm4.6,7.1.2-.8.7.6Zm-2.3,3.5-1,.2.3-1.1Zm.1-6.7v.8l-.9-.4Zm-7.1,4.5.8.2-.6.8Zm18.9,5.6-1,.3.3-1.2Zm.1-6.7v.9l-.9-.4Zm-7.1,4.6.8.2-.6.7Zm20.9.6-.9.4-.1-1.1Zm-1.6-6.5.2.8-1-.2Zm-5.8,6.1.9.1-.5.8Zm1.3-1.4-.9.2.2-1.1Zm.1-6.7v.9l-.8-.5Zm-7.2,4.5.9.2-.6.7Z" fill="#ce7aa0"/>
      <path id="Path_12748" data-name="Path 12748" d="M262.1,215.9l-.3,1-.9-.8Zm-5.6-3.6.7.5-.8.5Zm0,8.5.6-.6.3.9Zm-4.9-4.6v1.9l-1.9-.9Zm-4.2,3.4.9.3-.6.7Zm6.3-2.5-.5-.9h1.2Zm-4.3-.1-.7-.7,1-.4Zm5.6-3.7-.8.4-.1-.9Z" fill="#ce7aa0"/>
      <path id="Path_12749" data-name="Path 12749" d="M247.2,210l.3.8-1-.1Zm4.5,7.7-1.4.2.5-1.5Zm1.3-8.8-.2,1.1-1-.7Zm-10.3,4.7,1.1.5-1,.8Zm13,4.8-1.1-.6,1.1-.8Zm5.5-6.2-.7.8-.5-1.1Zm-10.4-1.5.6.9-1.2.2Zm-7.2,6.8-.8-.7,1.1-.5Z" fill="#ce7aa0"/>
      <path id="Path_12750" data-name="Path 12750" d="M249.1,213.7l-.7.4-.2-.9Zm-7.8-3.2.2.8-.9-.1Zm2.4-1.1.2,1.5-1.6-.4Zm1.6,1.7-.7,2.2-2-1.7Zm-2.8,1.3-1.9,1.2-.4-2.6Zm9.7-.8-2,1.2-.3-2.6Zm5,.1-2,1.2-.3-2.5Zm.9,1.2-.8-2.2,2.6.2Z" fill="#ce7aa0"/>
      <path id="Path_12751" data-name="Path 12751" d="M256.1,215.1l.5-1.6,1.5,1.2Zm5,.8v-1.7l1.8.8Zm-9.2-2.1.5-1.7,1.5,1.3Zm6.8.4.1-1.7,1.7.8Zm.1-4.1-2,1.1-.3-2.5Zm-11.4.7.2,1.4-1.6-.4Zm.5-1.9.2,1.5-1.6-.5Zm-11.3,10-.9.2.3-1.1Zm-2.1-1.5-.5-.8h1Zm2.6,3.4v.8l-.8-.4Zm12.1-10.4h-.9l.4-.9Zm-8,3.5-.2.8-.8-.6Zm12.2-4.8-1.5.9-.3-1.9Z" fill="#ce7aa0"/>
      <path id="Path_12752" data-name="Path 12752" d="M248.6,208.2l3.3-.1-1.4,3.4Zm3.5-.1,3.3-.1-1.4,3.4Zm-7.8,0h3.3l-1.4,3.4Zm12.8.1,3.3-.2-1.4,3.5Zm6.8,12,1.4-1.7,1.2,2.2Zm-23.6-12,3.3-.1-1.3,3.4Zm-3.5-.1,3.4.1-1.6,3.4Zm-4,0,3.3.1-1.6,3.3Z" fill="#ce7aa0"/>
      <path id="Path_12753" data-name="Path 12753" d="M259.6,209.8l-1.5,1-.3-2Zm-3.6-1.3.3,1.7-1.9-.4Zm3.9,2.2,1.8.1-.9,1.8Zm2.1,1.1,1.2,2.4-2.5.2Zm2.2,4.5,1,2.1-2.2.1Zm-4.8-2.2.5,2.5-2.3-.5Zm-3.6-2.3.7,3.2-3.1-.6Zm12.1,11.9.7,1.4-1.5.1Zm-2.6-2,.6,1.2-1.3.1Zm-5.2-2.6.2,1.2-1.1-.2Zm-8.3-6.1.4,2.3-2.1-.5Zm6.6,3.6-.7,2.1-1.6-1.4Z" fill="#ce7aa0"/>
      <path id="Path_12754" data-name="Path 12754" d="M262.3,216.7l.9,1.8-2,.1Zm-6.3,2.5-.9-.5.9-.7Zm4.4-5-.6.6-.4-.8ZM252,213l.5.7-1,.1Zm-4.8,4.9-.6-.5.8-.5Zm-2.2,2-1.2-.8,1.5-.8Z" fill="#ce7aa0"/>
      <path id="Path_12755" data-name="Path 12755" d="M249.7,218.6l-.7-.5.9-.4Zm-2.2-1.1-.6-.5.9-.4Zm6.1,1.3.2.7-.8-.1Zm-9.3,4.4-.9-.8,1.2-.6Z" fill="#ce7aa0"/>
      <path id="Path_12756" data-name="Path 12756" d="M250.2,218.5l-.7.5-.2-1Zm-9-3.1.4.9h-1.1ZM214.1,213l.2,1.5-1.6-.5Zm2.2-3.4.2,1.5-1.6-.5Zm-.5,6-1.4,1-.3-2Zm4.5-5.7-1.5,1-.3-2Zm4.1-.6-1.5.9-.3-1.9Zm-8.5,0-1.5,1.1-.3-2Zm-.7,2.3-1.4,1-.4-1.9Zm3.2-.2-1.5,1-.3-1.9Zm-5.8-.3-1.5.9-.3-1.9Zm19.1,2.2-1.4,1-.4-2Zm-6.1,1-.5-1.7,2,.3Zm2.7-1.1-.5-1.7,2,.3Zm-7.3.5.3,1.5-1.7-.5Zm-8.7.2.3,1.5-1.7-.5Zm10.4-.7.2,1-1.1-.2Zm-6.7,0h.9l-.4.9Zm4.6,7.1.2-.8.8.6Zm-2.3,3.4-1,.3.3-1.2Zm.1-6.7v.9l-.9-.4Zm-7.1,4.6.8.2-.6.7Zm19.4,5.3-1,.2.3-1.1Zm.1-6.7v.9l-.9-.5Zm-7.1,4.6.8.2-.6.7Zm7.1-8.9-.1,1.9-1.8-.9Z" fill="#ce7aa0"/>
      <path id="Path_12757" data-name="Path 12757" d="M226.6,219.3l.8.3-.6.7Zm3.8-2.5-.8-.7,1-.4Zm5.5-3.8-.7.5-.2-1Zm-7.8-3.2.2.8-.9-.1Zm4.6,7.7-1.4.2.5-1.5Zm1.2-8.9-.2,1.2-1.1-.7Zm-10.3,4.9,1.1.4-1,.9Zm12,3.3-1-.8,1.4-.6Z" fill="#ce7aa0"/>
      <path id="Path_12758" data-name="Path 12758" d="M242.4,212.1l-.9.6-.2-1.1Zm-9.7-3.9.4,1-1.2-.2Zm-10.5,9.2-.8-.6,1.1-.5Zm5.5-3.8-.7.5-.2-.9Zm-7.8-3.2.3.8-1-.1Zm2.9-1.3.2,1.5-1.6-.4Zm1.4,1.9-.6,2.2-2-1.7Zm-3.1,1.3-1.9,1.2-.4-2.5Zm12-.9-2,1.2-.4-2.6Zm-6.8-.8.3,1.5-1.6-.4Zm.6-1.8.2,1.4-1.6-.4Zm-11.6,10.1-1,.2.3-1.2Zm-2.2-1.5-.5-.8h1Zm2.7,3.3-.1.9-.8-.5Zm12.4-10.5-.9.1.3-1Zm-8.4,3.6-.2.9-.8-.6Z" fill="#ce7aa0"/>
      <path id="Path_12759" data-name="Path 12759" d="M232.1,209.5l-1.4.9-.3-1.9Z" fill="#ce7aa0"/>
      <path id="Path_12760" data-name="Path 12760" d="M227.3,208.3l3.4-.1-1.4,3.4Zm-4.2,0,3.4-.1-1.4,3.4Zm-3.8-.1,3.3-.1-1.4,3.5Zm-3.8-.1,3.3.1-1.5,3.3Zm-4.1,0,3.3.1-1.5,3.3Zm15,9.5-.7-.5.8-.5Zm-2.3,2-1.2-.9,1.5-.7Zm4.7-1.3-.6-.5.8-.4Z" fill="#ce7aa0"/>
      <path id="Path_12761" data-name="Path 12761" d="M226.6,217.2l-.6-.5.9-.4Zm-3.2,5.6-.9-.7,1.2-.6Zm6-4.6-.8.5-.2-1Zm-9.1-3.1.4.9h-1.1Zm-14-1.7.2,1.5-1.6-.5Zm2.3-3.4.2,1.5-1.6-.5Zm-5.9.4h-.9l.4-.9ZM208,216l-1.5,1-.2-2Zm.2-6.2-1.5,1-.3-2Zm-.7,2.2-1.5,1-.3-2Zm3.6-.4-1.4,1-.3-2Zm-8.3.2-1.5,1-.3-2Zm2-.4-1.4,1-.3-1.9Zm-.3,2.9.2,1.4-1.6-.5Zm10.9-.8.2,1-1.1-.3Zm-6.7-.2.9.1-.4.9Z" fill="#ce7aa0"/>
      <path id="Path_12762" data-name="Path 12762" d="M213.2,220.5l.2-.8.8.6Zm-2.3,3.4-1,.2.2-1.1Zm.2-6.7-.1.9-.8-.4Zm-7.2,4.4.8.3-.6.7Zm3.5-2.3-1,.2.3-1.1Zm-2.2-1.5-.4-.8h1Zm3.2,3.1-.1.8-.8-.4Zm-.6-12.7,3.3-.1-1.4,3.4Zm-3.8,0,3.3.1-1.6,3.3Zm-1.5,5.5-1.4.9-.3-2Zm-6.8.8-.2-1.8,1.9.6Zm2.9-.6-.4-1.7,1.9.3Zm1.5.2V216l-1.9-.9Zm-1.5,5.3.8.2-.7.7Zm3.6-1-.8-.7,1-.4Zm5.5-3.7-.7.4-.2-.9Z" fill="#ce7aa0"/>
      <path id="Path_12763" data-name="Path 12763" d="M199.9,211.4l.3.8-.9-.1Zm2.6,5-.9-.8,1.3-.5Zm10.2-3.4-.9.6-.2-1.2Zm-9-4,.3,1-1.2-.1Zm59.6,5.6.6,1.4-1.7-.1Zm-64.9.5-.6,1.7-1.5-1.3Zm5.5-3.4-1.9,1.2-.4-2.6Zm-6.3-1,.2,1.4-1.6-.4Zm.5-1.9.2,1.5-1.6-.5Z" fill="#ce7aa0"/>
      <path id="Path_12764" data-name="Path 12764" d="M199,210.5h-.8l.3-.9Zm4-.7-1.5.9-.2-1.9Z" fill="#ce7aa0"/>
      <path id="Path_12765" data-name="Path 12765" d="M198.8,208.2h3.3l-1.4,3.4Zm-3.6-.2h3.3l-1.4,3.4Zm3.3,9.7-.6-.5.8-.4Zm.6,5-1.1-.9,1.5-.8Zm-1.8-3.4-.7-.5.9-.4ZM177.5,320l-1.2-.2.2,1Zm4.8-.3-.8,1.6,1.6.1ZM165,335.2l-.2,2.2,1.7-.5Zm3.6-1.6-.2,2.2,1.7-.6Zm17.9-6.5-.2,2.2,1.7-.6Z" fill="#ce7aa0"/>
      <path id="Path_12766" data-name="Path 12766" d="M185.9,328.3l-.2,1.8,1.5-.5Zm-31.1,9-1.1,1.8,1.8.3Zm6.2-8.5-1.1,1.9,1.9.3Zm11.5.1-.9,2,1.8.2Z" fill="#ce7aa0"/>
      <path id="Path_12767" data-name="Path 12767" d="M174.1,330.4l1.1,2,1.1-1.5Zm8.5-5.8,1,2,1.2-1.5Zm-13.1,5.7,1,1.9,1.2-1.4Zm28.1-10.4,1,2,1.2-1.5Zm-21.5,7.4-1,2,1.9.1Zm14.3-.6-.8,1.6,1.6.1Zm12.1-3.9-.8,1.5,1.6.1Zm-3-.4,1.8,1.7.7-2.1Zm-4.2,3.2,1.9,1.6.6-2.1Zm2.7-3,.3,2.4,1.9-1.1Zm-18.2,7.6-2.1.2,1,1.7ZM155,332.9l-2,.1.8,1.7Zm-4.1,7.3-2.1.1.8,1.8Zm-5.3-3.8-2.1.2.9,1.7Zm17.8-9.9-2,.2.9,1.7Zm5,.3-2.1.3,1,1.7Zm-22.7,15-2.1.1.9,1.8Zm-11,3.4-1.8.1.7,1.4Zm3.8.5-1.5-1.1-.3,1.6Zm-1.4-7.2-1.8.2.8,1.4Z" fill="#ce7aa0"/>
      <path id="Path_12768" data-name="Path 12768" d="M137,345l-1.8.2.8,1.4Zm47.2-15.4-1.8.2.8,1.4Zm.9-2.6-1.8.3.8,1.3Zm14.3-9.1v1l.9-.3Zm-19.7,11.9-.8,1.6,1.6.1Zm-1.8-4.8-.9,1.9,1.8.2Zm.2-11.5.8.7.2-.9Zm1.2,15.5-.7-1.2-.8,1Zm2.2-.6-1.2.3.7.9Zm4-4.3v1.2l1-.5Zm-22.3,6-1.4-.4.2,1.3Zm-11.3,7.2-1.3-.5.1,1.3Zm14.1-6.9-1.4-.5.2,1.4Zm7.4,1.4-.6,1.1,1.1.1Zm-2.9.5-.5,1.1,1,.1Zm-3.2-8.9.9.9.3-1.1Zm-4.4,9.4.9.9.4-1.1Zm-3.4,3-.1-1.5-1.1.6Zm-2.7,1.6-.1-1.5-1.2.6ZM140.6,345l.8-1.6-1.1.7Z" fill="#ce7aa0"/>
      <path id="Path_12769" data-name="Path 12769" d="M161.8,338.4l-1.7-1.5-.4,2Zm-3.4,1.1-1.7-1.5-.4,2.1Zm5-7-2.2.9,1.6,1.3Zm-5.6,1.4-2.1.8,1.6,1.4Zm17.7-6.1-2.2.9,1.6,1.3Zm11.1-2.2-2.1.8,1.6,1.4Zm9.5-4.3-2.1.9,1.6,1.3Zm-51.7,7.4-.4,1.1h1.1Zm-11.1,11.7,1.2-.4-.8-.8Zm14.9-2.5-.1-1.3-.9.5Zm-5.1,6.4,1.2-.5-.8-.8Zm9-4.6,1.2-.5-.8-.8Zm-11.5,5.4-1.2-.8-.2,1.2Zm32.9-21.4.7.5.2-.8Zm-4-1.9.6-.5-.6-.4Zm1.8,6.5-.4-.8-.4.6Z" fill="#ce7aa0"/>
      <path id="Path_12770" data-name="Path 12770" d="M187.2,325.6l.8.6.1-.8Zm-3.9-1.8.6-.6-.7-.2Zm1.7,6.5-.3-.8-.4.6Zm9.8-6.3.7.5.1-.7Zm-3.4-1.4.6-.5-.6-.2Zm1.6,5.2-.3-.6-.4.4Zm-41.5-12.7-.7-.5-.1.7Zm7.1,1-.6.6.6.3Zm-2.5,14.2,1.1-1.1-1.2-.5Zm-3.9,5.7-.6-1.2-.6.9Zm9.8-.5-1.2.2.7.9Zm-31.3,6.2,1.2-.2-.6-.9Zm-.1,3.4,1.2-.2-.6-.9Zm-2,2.3.1-1.1-.9.4Zm10.8-2.2-1-.4.1,1Zm2.5-5.3-1,.2.5.8Zm4.3-6.7.8-.9-1-.3Zm12.6.2,1.4-1.6-1.7-.7Zm58-23.2,1.5-1.5-1.7-.8Zm1.5-11,1.5-1.5-1.6-.8Z" fill="#ce7aa0"/>
      <path id="Path_12771" data-name="Path 12771" d="M216.2,291.1l1.5-1.5-1.7-.7Zm-73.3,42.2.9-.8-1-.5Zm3,.5.8-.9-.9-.4Zm-12.3,5.9-1-1.9-1.2,1.5Zm-7.4,9.9-1.7-1.2-.3,1.8Z" fill="#ce7aa0"/>
      <path id="Path_12772" data-name="Path 12772" d="M128.3,349l-1.8-1.2-.3,1.8Zm1.4-5.2-1-1.8-1.2,1.4Zm-.3,2.6-1-1.9-1.2,1.5Zm7.7-2.2-.9-1.9-1.2,1.5ZM177,331.5l-1.1,1,1.2.6Zm4.2-5.5.5,1.2.7-.8Zm-9.9,0,1.2-.2-.6-.9Zm3.7.8.6-1.4h-1.3Zm-1.7,6.9-.9-.8-.3,1.1Zm8.9-4.4-.9.8.9.6Z" fill="#ce7aa0"/>
      <path id="Path_12773" data-name="Path 12773" d="M183,328.6l-1.2,1,1.2.5Zm4.3-5.3.5,1.1.7-.8Zm-10.2.1,1.3-.3-.7-.9Zm24.3-3.1-1.5-.3.3,1.3Zm6.9.5-.6,1.1,1.1.1Zm-6.3-8.3.9.8.4-1ZM188.3,322l-1.2-.3.2,1.1Zm5.7.2-.5.9h.9Z" fill="#ce7aa0"/>
      <path id="Path_12774" data-name="Path 12774" d="M188.8,315.5l.8.7.3-.9Zm3.4,9.8-1.1,1,1.2.5Zm4.3-5.4.6,1.2.7-.9Zm-10.1.2,1.2-.3-.6-.9Zm17.3,2.3v2.9l2.8-.9Zm-5.9,1.8v2.9l2.8-.9Zm11.1-3.5-.5,2.9,2.5-.7Z" fill="#ce7aa0"/>
      <path id="Path_12775" data-name="Path 12775" d="M210.7,320.2l-.3,2.9,2.4-.8Zm-5.1,1.5v2.9l3.4-1.1Zm7.2-2.4v2.9l2.8-.9Zm5.6-1.9-.1,2.9,2.3-.9Z" fill="#ce7aa0"/>
      <path id="Path_12776" data-name="Path 12776" d="M220.8,316.5l-.1,2.9,2.3-1Zm3-1.4v2.8l2.3-1Zm-8.4,3.8v2.4l2.9-.9Zm-14.7,4.5-.2,2.9,3.4-1ZM230.6,299l2,2.1,1.2-3.1Zm5.5,5.4,1.7,2,1.5-3Zm-67.4,27.3-3.2-.4.9,2.7ZM205.4,316l-3.3-.4.9,2.8Zm-9,2-2-.3.5,1.8Zm-6.1,7.1-2-.2.5,1.7Zm2.1-1.9-2.1-.3.5,1.7Zm-1.9,6.2-2.6-1.8-.6,2.8Zm-7.5,2.2-2.7-1.9-.5,2.8Zm3.4-.9-2.7-1.8-.5,2.8Zm-6.9,2.1-2.7-1.8-.5,2.8Z" fill="#ce7aa0"/>
      <path id="Path_12777" data-name="Path 12777" d="M176.3,333.8l-2.6-1.8-.5,2.8Zm-3.2,1.1-2.7-1.8-.5,2.8Zm-4.2-1.9-3.1.8,1.7,2.3Zm-9,3.5-3.1.8,1.8,2.2Zm-4.7,1.4-3.1.8,1.8,2.2Zm9.5-.5-2.7-1.8-.5,2.8Zm29.1-9-2.6-1.9-.5,2.8Zm-53.1,16.1-1.1-3.1-2.1,1.9Zm8.9-5.9-3.2-.5.8,2.8Zm25.5-14.8-.7-1.1-.6.9Zm4.2,4.3-1.1.3.7.7Zm.9-8.8.1,1.1.9-.5Zm37-13.2-.8,1.6,1.6.1Zm-17.8,11.3.7.6.2-.8Zm-3.9-1.8.6-.6-.7-.2Zm1.7,6.5-.3-.8-.5.6Zm9.8-6,.7.5.1-.7Zm-3.4-1.4.5-.5-.5-.2Zm1.5,5.2-.3-.6-.3.4Zm3.8-10.3-1.1,1,1.2.5Zm4.4-5.3.5,1.1.7-.9Zm-10.2.1,1.2-.3-.6-.9Zm-2.7,9.4-1.1-.3.2,1.1Zm5.8.2-.5.9h.9Zm-5.2-6.7.8.7.2-.9Zm3.4,10.1-1.1,1,1.2.5Zm4.3-5.4.5,1.2.8-.9Zm-10.1.2,1.2-.3-.7-.9Zm-8.3,3.6-.6-1.1-.7,1Zm4.2,4.3-1,.3.6.7Zm1-8.8.1,1.1.8-.5Zm41.2-3.1,1.1-1.7-2.3-.4Zm.2-4.2,1.2-1.8-2.4-.3Zm-.4-2.3-.7-1.9-1.7,1.7Zm0,6.7-2-.4.6,2.3ZM202,233.2l-1.5-.4.2,1.4Zm3.8,10.9-1.2.9,1.1.7Zm-.6-2.6-1.6,1.1,1.5.9Zm-1.1-2.4-1.6,1.1,1.5.8Zm2.1,7-1.5,1.1,1.4.8Zm-3.9-12.4-1.3,2.2,2.2.1Zm-3.9,15.8-.9.2.5.6Zm3.8-1.9v.8l.6-.3Zm-5.7-2.6.8.2-.1-.6Zm2.6,13.9-1,.3.6.7Zm4.3-2.1v.9l.7-.3Zm-6.4-2.9.8.2-.1-.8Zm3.2,1.7-1,.3.6.7Z" fill="#ce7aa0"/>
      <path id="Path_12778" data-name="Path 12778" d="M204.6,253.5l-.1.9.7-.4Zm-6.5-3,.8.2-.1-.7Zm4.1-5.6v1.6l1.4-.6Zm4.3,2.5v1.9l1.5-.7Zm-7.4-2.8.7.2-.1-.7Zm5,4.9-.5-.9-.6.7Zm.1-12.1-1.1,1.9,2,.2Zm-4.6-6.4.4,1.2.9-.7Zm4.6,6.3-.7-1.2-.8,1.1Zm-2.4-1.1-.6.4.6.4Zm-1.1,3.1-.7.2.4.5Zm4.7,4.7,2.2-.3-1-1.7Zm6.6,7.8-1.5-2.3-1.3,2Zm.2,3.5-2.6.2,1.1,2.1Zm-.5-3.5-2.6.2,1.1,2.1Zm-2.8-4.8-.6,2.2,2-.3Zm-1.6-2.9-.5,1.9,1.7-.3Zm4.7,8.3-.7,2,1.9-.1Zm-7.7-2.3-.8-.6-.2.9Zm4.2,2.4-.7.5.7.4Z" fill="#ce7aa0"/>
      <path id="Path_12779" data-name="Path 12779" d="M207.2,245.5l.3.8.5-.6Zm-5.5-2.4-.7-.4-.1.6Zm-1.8-1-1-.8-.2,1.1Zm2.1,3.1-.6-.5-.2.6Zm-1.1,4.5.2.6.5-.4ZM225.2,284l-1.5,1,1.4.8Zm-1.1-4.3-1.4,1,1.4.8Zm-1.5,7.2.3,1.5,1.1-.8Zm-8.4,2.7-1,.3.6.7Zm4.3-2.2v.8l.7-.3Zm-6.6-2.8.9.2-.2-.8Zm8.1,14.8-1.1.3.6.7Zm4.2-2.2v.9l.7-.4Zm-6.5-2.8.8.2-.1-.8Zm3.3,1.7-1.1.2.7.7Zm4.2-2.3v.9l.7-.4Zm-6.5-2.8.8.2-.1-.7Zm2.4-6v1.8l1.6-.7Zm-3.6-.3.8.2-.1-.7Zm7.1,5.1-.5-.9-.5.8Z" fill="#ce7aa0"/>
      <path id="Path_12780" data-name="Path 12780" d="M222.8,287l-1.3.3.6,1Zm6.1-2.2-.1,1.1,1-.3Zm-8.3-4.8,1.1.4v-1.1Zm4.6,10-1-.8-.3,1.1Z" fill="#ce7aa0"/>
      <path id="Path_12781" data-name="Path 12781" d="M230.5,292.8l-.9.6.9.5Zm-1.9-8.7.4,1,.7-.6Zm-9.7-4.5-.8-.6-.2.9Zm4.4,2.2-.8.5.7.4Zm-1.6-7,.3.9.6-.6Zm2.2.2-1.1,1,1.3.5Zm2.9,4.1.3,1.4,1-.7Zm.4,1.7-.9.1.4.7Z" fill="#ce7aa0"/>
      <path id="Path_12782" data-name="Path 12782" d="M224.2,277.7l-.9.4.6.5Zm5.6,4.1-2.3,1.6,2.2,1.2Zm2.1,7.6-1.4,1.1,1.4.8Zm-2.2-2.3.4,1.7,1.2-1Zm2.7,5.3.4,1.7,1.3-1Zm-8.1-1.9-.8-.7-.2.9Zm4.3,2.2-.7.5.7.4Zm-1.5-7,.3.8.5-.5Zm-6.8-2.7-.7-.5-.1.7Zm-1.9-1.2-1.3-.8-.2,1.3Z" fill="#ce7aa0"/>
      <path id="Path_12783" data-name="Path 12783" d="M220.8,285.3l-.7-.6-.2.8Zm-.1-2.2-.6-.5-.2.7Zm3.3,6.6-1.4,1,1.4.8Zm-2.5.4.2.6.5-.4Z" fill="#ce7aa0"/>
      <path id="Path_12784" data-name="Path 12784" d="M215.2,282.7l-.9-.7-.2,1.1Zm5,2.2-.7.6.8.4Zm-2.2-7.7.5.8.5-.6Zm8.6,26.6.4,1.5,1-.9Zm-8.3,2.7-1,.3.6.7Zm4.3-2.3v.9l.7-.3Zm-6.6-2.7.9.2-.2-.8Zm9.2.3v1.9l1.5-.7Zm3.5,4.9-.5-.9-.5.7Zm.8-6.5-1-.7-.3,1Zm5.1,2.6-.9.7.9.4Zm-1.9-8.3.5,1,.6-.7Z" fill="#ce7aa0"/>
      <path id="Path_12785" data-name="Path 12785" d="M226.9,303.9l-1.3.2.6,1.1Zm6.1-2.3-.1,1.2.9-.4Zm-8.3-4.7,1.1.4-.1-1.1Zm4.5,8.3-1.4.2.7,1.1Zm3.7,1.2-1.9.3.9,1.4Zm2-6.2-1.9.3,1,1.4Zm-4,1.7-1.9.4.9,1.4Zm.5,3.3-1.9.3.9,1.4Zm-2.2,4.2-2,.3,1,1.5Zm3.2-1.2-2,.4,1,1.4Zm.7-4.7-1.9.3.9,1.5Zm3,3.4-1.9.3,1,1.4Zm-.9-4-.1,1.2,1-.4Zm-2.1,1.2-.1,1.1,1-.3Zm-6.1-5.9,1,.4-.1-1.1Zm1.4,9.2-.8-.7-.3.9Zm4.3,2.2-.7.5.7.3Zm-1.5-7,.3.8.5-.6Zm-6.4-.4-.6-.6-.2.8Zm5.4-2.7-1.4,1.1,1.4.8Zm-4.7,7.5.3.6.4-.5Zm-16.2-47.7.3,2.3,1.7-1.1Zm5-2.6-.8,2.2,2.1-.2Zm-6.5-3.6.3,2.3,1.7-1.1Z" fill="#ce7aa0"/>
      <path id="Path_12786" data-name="Path 12786" d="M215.3,258.3l-.7,2.3,2.1-.3Zm2.3,9.3.3,2.2,1.7-1Zm-8.8-2.4.3,2.3,1.7-1.1Zm4.1,2.1.3,2.3,1.7-1.1Zm7.6,8.5.3,2.3,1.7-1.1Zm6.1,7.6.3,2.3,1.7-1.1Zm-2.7-8.9.4,2.2,1.7-1.1Zm3.9,5.8.3,2.3,1.7-1.1Zm-15.7-20,.3,2.2,1.7-1.1Zm6.3,2.8-1.5.2.7,1.2Z" fill="#ce7aa0"/>
      <path id="Path_12787" data-name="Path 12787" d="M216.6,261.2,216,264l2.5-.5Z" fill="#ce7aa0"/>
      <path id="Path_12788" data-name="Path 12788" d="M214.5,260.4l-.7,2.8,2.6-.6Zm6.1,6.4-1.2,2.7,2.6-.1Zm3.3,5.3-1.2,2.6h2.6Zm-1.7-2.4-1.2,2.6h2.6Zm-4.2-5.8-1.2,2.6h2.6Zm-16.7-2.7,1.3.4-.2-1.2Zm10.3,8.6-.7-1.4-.9,1.1Zm5.3-8.1-.6-1.2-.7.9Z" fill="#ce7aa0"/>
      <path id="Path_12789" data-name="Path 12789" d="M218.5,265.1v1.3l1.1-.4Zm-5,7.9-.4-1.5-1.1.9Zm4.4-.1-.4-1.6-1.1.9Zm2.9-3.1-.3,1.3,1.1-.2Zm-7.6-6.7.3,1,.7-.6Zm-6.9-.6-1-.9-.3,1.1Zm9.4,8.4-2.3,1.4,2,1.3Zm15,18.9-2.3,1.5,2,1.3Zm-10.4-17.4-2.4,1.5,2.1,1.3Zm9.2,13.6-2.3,1.4,2,1.4Zm3.2,8.8-2.3,1.5,2,1.3ZM224.3,278l2.8-.3-1.4-2.1Zm-6.3-5.8,2.7-.3-1.3-2.1Zm7.7,8,2.8-.4-1.4-2ZM216,264.6l-2.3,1.4,2,1.3Zm4,1.2-2.3,1.5,2,1.3Z" fill="#ce7aa0"/>
      <path id="Path_12790" data-name="Path 12790" d="M232.1,309.1l1.3,3,1.9-2Zm-2.3,3.6,3.2-.3-1.4-2.5Zm-17.3,5.5,3.2-.5-1.6-2.4Zm2.2-61-1.7-3-1.8,2.4Zm-10.9-15.4,2.4-.4-1.1-1.8Zm2.4,13.1-2,1.3,1.7,1.1Zm.6-5.7-2,1.2,1.7,1.1Zm5.2,8.1-2,1.2,1.7,1.1Zm3.5,5.2-2,1.2,1.8,1.2Zm-6.7-13.1-2,1.3,1.8,1.1Zm14.1,22.7-2.3,1.5,2,1.3Zm13.2,25.7-2.3,1.4,2,1.3Zm4.6,2-2.6.7,2,1.3Zm-8.2-8.5-2.4,1.5,2.1,1.3Zm4.1,1.4-2.3,1.4,2,1.3Zm-29.9-22.8.4,1,.7-.7Zm21.9,25.4-1.4-1.1-.4,1.5Zm6.2,1.8-1.4-1.1-.4,1.5Zm-29.7-34-1.2.9,1.2.6Zm-2.4-12,.5,1.4.9-1Zm5,44.3-1,.3.5.7Zm4.3-2.1v.9l.7-.3Zm-6.4-3,.8.3-.1-.8Zm7.5,15.1-1,.3.6.7Zm4.3-2.1v.9l.7-.4Zm-6.4-3,.8.3-.1-.8Zm3.2,1.8-1,.2.6.7Zm4.4-2.2v.9l.7-.3Zm-6.5-2.9.8.2-.1-.8Zm5.6-.4-.8-.7-.2.9Zm4.3,2.3-.8.5.7.4Zm-1.4-7,.4.9.5-.6Zm4.2,0-1.4,1,1.3.8Zm-9.9,4.2.3.7.4-.5Zm-6-7.5-.9-.7-.3,1Zm4.9,2.3-.7.6.8.4Zm-2-7.8.4.9.6-.7Zm4.8-5.4-1.3.3.7.9Zm1.1.6v1l.9-.3Zm-3.8-2.7,1,.4-.1-1Zm17.3,21.2-1.6.3.9,1.1ZM213,275.2l-1.6.4.9,1.1Zm3.5,10.5-1.5.4.8,1.1Zm8,8.4-1.5.3.8,1.1Zm3.9,1.9-1.6.3.9,1.1Zm-6.7-14.8-1.6.4.9,1.1ZM208.3,263l-.1,1.3,1.1-.5Zm-9.6-5,1.2.3-.2-1.1Z" fill="#ce7aa0"/>
      <path id="Path_12791" data-name="Path 12791" d="M215.1,268.6l1,1.2.6-1.3Zm-3.2-11.1,1,1.2.6-1.3Zm-4.2-.5,1.1,1.2.6-1.3ZM218,279.1l1.1,1.2.6-1.3Zm-5.4-19.6,1,1.2.6-1.3Zm-5.5-12.4,1.6.1-.6-1.3Zm14,46.7,1.6.1-.5-1.3ZM209.2,264l1.2-.6-.9-.7Zm3.5,1.4,1.2-.6-.9-.7Zm-4.8-4.9,1.1-.6-.9-.8Zm-1.9-7.2,1.2-.6-.9-.7Zm3.6,21.6-.3-1.3-1,.7Zm20,33.9.1,1.8,1.5-.8Zm-.9,2.6.1,1.8,1.5-.8Z" fill="#ce7aa0"/>
      <path id="Path_12792" data-name="Path 12792" d="M226.6,314.7l.1,1.9,1.4-.8Zm1.7-2.1.2,2.9,2.4-1.4Zm-2.2-4.8-.4-1.2-.9.8Zm-4.3,4.3.4,1.4,1.1-.8Zm.6,4.5.4,1.5,1.1-.9Zm2.5-1.2,1.5-.2-.7-1.2Zm-2.8.2,1.5-.2-.7-1.1Zm-5.7,1.6.4,1.4,1-.8Z" fill="#ce7aa0"/>
      <path id="Path_12793" data-name="Path 12793" d="M220.4,310.1V312l1.5-.8Zm1.8,2.1-1.4.2.6,1Zm6-2.3-.1,1.1,1-.3Zm-8.3-4.8,1.1.4-.1-1Zm12.9.4.2,2.2,1.7-1Z" fill="#ce7aa0"/>
      <path id="Path_12794" data-name="Path 12794" d="M232.9,307.4l.2,2.2,1.7-.9Zm1.9-1.1H237l-.9-1.8Zm-4.4-4.4,2.2-.1-.9-1.8Zm-8.2,5.6.2.8.6-.4Zm-1.7-5.2.2,1.9,1.4-.8Zm-17,16.3-1.3.2.7.9Zm5.5-2.3v1.1l.9-.4Zm-7.7-4.2,1,.4-.1-1Zm.4-17.6-1.1.1.5.8Zm4.7-1.6-.1.9.7-.2Zm-6.2-3.9.8.3v-.7Zm25.4,9.4-.3,2.3,2-.5Zm-1.6,13,.5,2.2,1.7-1.2Zm-12.8,1.7,1.7.7v-1.7Zm-1.3,3.8,1.7.7-.1-1.6Zm-6.3,4.3,1.7.7-.1-1.6Zm3.2-3.2-.1,1.9,1.5-.6Z" fill="#ce7aa0"/>
      <path id="Path_12795" data-name="Path 12795" d="M206.3,322l1.7-1.7-1.9-.7Zm-9.9,3.6,1.7-1.6-1.9-.8Zm-2.9,2.8,1.7-1.7-2-.7Zm.4-2.3,1.2-1.2-1.4-.6Z" fill="#ce7aa0"/>
      <path id="Path_12796" data-name="Path 12796" d="M196.7,323.4l1.3-1.3-1.5-.5Zm-5.8,2.3h1.8l-.7-1.4Zm7.8-2.7h1.7l-.6-1.4Zm6.2-2.9h1.8l-.7-1.5Zm9.9-5.8h1.8l-.7-1.4Zm-1.5,5.4h1.8l-.7-1.5Zm-11,3.1,1.7-1.7-1.9-.7Zm-7.9,5.3,2.2-.9-1.5-1.4Zm-28.1,9,2.2-.9-1.5-1.4Zm-3.1-.5,2.2-.8-1.5-1.5ZM149.9,340l-.2,2.1,1.7-.6Zm3.6-1.7-.2,2.2,1.8-.6Zm-9.2,2.4-.1-1.5-1.2.6Zm-2.8,1.5-.1-1.5-1.1.7Zm5.2.9-1.8-1.4-.5,2.1Zm-3.4,1.1-1.8-1.4-.4,2Zm-.7-5.4-2.1.8,1.6,1.3Zm-1.8-3.5,1-1.1-1.1-.5Zm-3.9,5.6-.6-1.1-.7.9Zm10-.6-1.2.2.6.9Z" fill="#ce7aa0"/>
      <path id="Path_12797" data-name="Path 12797" d="M153.8,337.8l-3.2.8,1.9,2.1Zm-9.1,3.5-3.2.8,1.6,1.9Zm5,.9-2.8-1.9-.5,2.9Zm-16.1,5.1-2.8-1.9-.5,2.9Z" fill="#ce7aa0"/>
      <path id="Path_12798" data-name="Path 12798" d="M136,346.6l-2.2-1.5-.4,2.3Zm-5.5,1.7-2.2-1.5-.4,2.3Zm20.4-6.6,2.7-.8-1.7-1.4Zm-2.8-.3,2.2-.9-1.5-1.4Zm63.4-20.1,1.1-2.1-2.1-.1Zm-3.4-2,2.3.3-.6-2Zm11.7-4,2.3.5-.5-2.1Zm-6.2-4.4,1.6.2-.4-1.4Zm-7.9,5.1,1.6.2-.4-1.3Zm3-4,.9,1.3.8-1.2Zm2.4-.7.6.9.5-.9Zm13.1-5,1.8,3,1.8-2.6Z" fill="#ce7aa0"/>
      <path id="Path_12799" data-name="Path 12799" d="M227.1,306.7l1.9,3,1.8-2.6Zm-19.8,10.2.7.9.5-.9Zm1.5,2.3.7.9.5-.8ZM229,305.4l1.2-2-2.1-.2Zm-5.7,6.2,1.2-2-2.1-.2Zm-5.2,3.4,1.2-2-2.1-.2Zm8.3-26.9.7,3,2.2-1.6Zm.4-2.2-2.1.4,1.1,1.5Z" fill="#ce7aa0"/>
      <path id="Path_12800" data-name="Path 12800" d="M224.9,282.3l-2.1.4,1.1,1.5Zm-6-7.4-2,.5,1.1,1.5Zm-.2-5.9-2.1.5,1.1,1.5Zm11.9,25.2-2.1.5,1.1,1.5Zm-3.2-1.8-1.5-1.5-.7,1.7Zm-.1-3-1.5-1.5-.7,1.7Zm10.9,8.9-1.5-1.5-.6,1.8Zm-3.9-3.3.6,3,2.2-1.6Zm2.7,6.8,1.7,2.6L240,302Z" fill="#ce7aa0"/>
      <path id="Path_12801" data-name="Path 12801" d="M236.2,299.3l1.7,2.6,1.5-2.2Zm-6.1-13.7.7,3L233,287Zm-4.8-5.1.6,3,2.2-1.6Zm-1.1-2.5.5,2.1,2.3-1.2Z" fill="#ce7aa0"/>
      <path id="Path_12802" data-name="Path 12802" d="M237.1,293.5l-.8,3,2.3-.6Zm-8.1-7.1,3.1-.5-1.5-2.2Zm2.1,3.5,3.1-.5-1.5-2.2Zm1.8,2.8,3-.5-1.5-2.3Zm4.3,6.2,3-.5-1.5-2.3Zm-23.3,8.5-.5-1.2-.8.9Zm-3.5.4-.7-.8-.4.8Z" fill="#ce7aa0"/>
      <path id="Path_12803" data-name="Path 12803" d="M210,307.4l.2.8.6-.5Zm-2.2-5.8-.8-.8-.4,1Zm4.8,3.1-.9.5.7.5Zm-1-8.3.3,1,.7-.6Zm-11.1,10.1-1,.1.4.8Zm4.8-1.4-.1.9.7-.2Zm-6.1-4.1.9.3-.1-.8Zm16.9,6.9-.9-.9-.4,1Zm-10.7,2.6-2,.7,1.3,1.4Zm3.4-3.4-.5,1.7,1.6-.2Zm-7.4,5.2-.9,1.2,1.3.3Zm3.1-6.1.8.9.5-.9Zm-9.9,2.2,1.2-.5-.9-.7Zm13.8-1.5-.9.5.7.5Zm3.7-3.1.2.9.6-.5Zm-7-1.3h.9l-.3-.7Zm-2,4.5-.9.4.7.6Zm3.8-3,.2.8.6-.4Zm-7-1.6.9.1-.3-.7Zm11.3,9.8-1.2.5.9.8Zm4.9-3.4.2,1.1.8-.5Zm-8.4-2.4,1,.1-.3-.9Zm1.9,10.2-1.2.5.8.8Zm4.9-3.4.2,1.1.8-.5Zm-8.4-2.4,1,.1-.3-.9Zm6.2-.4-1.1.5.8.8Zm5-3.4.1,1.1.8-.5Zm-8.5-2.4,1.1.1-.3-.9Zm-1.9,8.5.5,1.9,1.3-1.1Zm6.4-4.1-.8-1.1-.6,1Zm-7,3.5,1.6-.1-.7-1.3Zm-.5-3.4-.8-1-.5.9Zm-4.9.8-.8-.7-.2.9Zm1.1,0,.4.8.5-.7Zm2.5,6.4-1.2.5.8.8Zm5.1-3.2.1,1.1.8-.5Z" fill="#ce7aa0"/>
      <path id="Path_12804" data-name="Path 12804" d="M201.2,310.4l1,.1-.2-.9Zm6.9-1.3-1.1-.7-.2,1.1Zm6.9-1.2-2,.5,1.2,1.6Zm2.3-5.8,1.2-1.7-1.8-.4Zm1.3,2.6-.6,1.7,1.6-.1Zm-.6-6.5-.9.5.7.6Zm3.7-3.1.2.9.6-.5Zm-7-1.3h.9l-.3-.7Zm-2,4.5-.9.5.7.5Zm3.8-3,.1.8.7-.4Zm-7-1.5h.9l-.3-.7Zm9.8,14.9-1.2.4.8.8Zm5.2-3,.1,1,.8-.4Zm-8.3-3.1,1.1.2-.3-.9Zm5.5,3.2-1.2.4.8.9Zm5.2-3.1.1,1.1.8-.4Z" fill="#ce7aa0"/>
      <path id="Path_12805" data-name="Path 12805" d="M218.6,299.7l1,.2-.2-.9Zm2.2,1.6.4,1.8,1.3-1Zm2.2,5.6-.7-1.1-.7,1Zm-5.4,9.6,2.3.5-.4-2Zm-2.1-10-.6-1.1-.6,1Zm-5-5.3-.8-.6-.2.9Zm1.1,5.9.4.8.5-.6Zm6.2-.4-1-.8-.3,1.1Zm1.4-6.4-2,.6,1.2,1.5Zm2.3-5.7,1.1-1.8-1.7-.4Zm1.3,2.6-.6,1.7,1.6-.2Zm-7.6,4.7-1,1.1,1.2.4Zm3.5-6,.6,1.1.6-.9Zm-10.1,1.6,1.2-.4-.8-.8Zm13.6-6.8-.9.5.7.5Zm3.7-3.1.2.8.6-.5Zm-7-1.3h.9l-.4-.7Zm-2,4.4-1,.5.8.6Zm3.8-3,.1.9.7-.5Zm-7-1.5.9.1-.3-.8Zm11.2,16.3-1.2.4.8.8Zm5.1-3.1.1,1.1.8-.4Zm-8.2-3,1,.2-.2-.9Zm5.8,16.2-1.2.4.8.8Zm5.2-3.1.1,1.1.8-.5Zm-9.6-1.2,1.1.2-.3-.9Zm2.7-10.1-1.2.4.8.9Zm5.2-3,.1,1.1.8-.5Zm-8.3-3,1,.2-.2-1Zm2.2,1.5.4,1.9,1.3-1.1Zm2.2,5.7-.7-1.1-.7.9Zm-4.1,1.6,2.2.6-.3-2.1Z" fill="#ce7aa0"/>
      <path id="Path_12806" data-name="Path 12806" d="M220,302.4h1.6l-.6-1.3Zm-.3-3.4-.7-1.1-.6.9Zm-5-5.4-.9-.6-.1.9Zm1.1,5.9.4.8.5-.6Zm6.2-.4-1-.8-.3,1.2Zm-28.4,18.1-1.9.7,1.3,1.5Zm1.9-5.9,1.1-1.8-1.8-.3Zm1.6,2.5-.5,1.7,1.6-.2Zm-7.4,5.3-.9,1.1,1.3.3Zm3.1-6.2.7,1,.6-1Zm-9.9,2.3,1.1-.5-.8-.8Zm13.1-7.8-.9.5.8.5Zm3.4-3.4.3.9.6-.6Zm-7.1-.8.9-.1-.3-.6Zm-1.6,4.6-.9.5.7.6Zm3.5-3.2.3.8.6-.5Zm-7-1.1h.9l-.4-.7ZM199.5,319l-1.2.5.8.7Zm4.9-3.4.2,1,.8-.5Zm-8.4-2.5,1,.2-.3-1Zm4.2,1.6-1.2.5.9.7Zm5-3.4.1,1,.8-.5Zm-8.5-2.5,1,.1-.3-.9Zm2.3,1.4.5,1.8,1.3-1.1Zm2.5,5.5-.7-1-.6,1Zm-3.9,1.9,2.3.4-.6-2Zm-3,1.7,1.6-.2-.7-1.2Zm-.5-3.5-.8-1-.5,1Zm-5.4-5-.9-.5-.1.9Zm1.5,5.8.5.8.4-.6Zm2.6,6.5-1.2.4.8.8Zm5.1-3.3.1,1.1.8-.5Z" fill="#ce7aa0"/>
      <path id="Path_12807" data-name="Path 12807" d="M189.5,317.1l1,.2-.3-1Zm6.8-1.3-1-.7-.2,1.1Zm14.2-1.7-2,.6,1.2,1.5Zm-5.1-7.7-.6,1.7,1.6-.2Zm-7.7,4.7-.9,1.1,1.2.4Zm3.5-5.9.7,1,.6-.9Zm-10,1.5,1.2-.4-.8-.8Zm13.6-6.8-.9.5.7.5Zm3.7-3.1.2.8.6-.5Zm-7-1.3h.9l-.4-.7Zm-2,4.4-1,.5.7.6Zm3.8-3,.1.9.7-.5Zm-7-1.5.9.1-.3-.7Zm8.7,9.2-1.3.5.8.8Zm5.1-3,.1,1.1.8-.5Zm-8.3-3,1.1.2-.3-1Z" fill="#ce7aa0"/>
      <path id="Path_12808" data-name="Path 12808" d="M209.5,309.6l.4,1.9,1.3-1.1Zm.3-1-.7-1.1-.7.9Zm-7.2,3h1.6l-.6-1.3Zm-5.3-8.8-.9-.6-.1.9Zm1.1,5.9.4.8.5-.6ZM179,320.2l-.7-1.1-.7,1Zm4.2,4.3-1.1.4.7.6Zm.9-8.8.1,1.1.9-.4Zm6,1-.9,1.2,1.3.3Zm3.1-6.1.7.9.5-.9Zm-9.9,2.3,1.1-.6-.8-.7Zm7.5.3,1-1.9L190,311Z" fill="#ce7aa0"/>
      <path id="Path_12809" data-name="Path 12809" d="M178.4,323.5l-.9,1.1,1.2.3Zm3.1-6.2.7,1,.5-1Zm-9.9,2.3,1.1-.5-.8-.8Zm13-7.8-.9.6.8.4Zm3.5-3.4.2.9.6-.6Zm-7.1-.8.9-.1-.4-.6Zm-1.7,4.6-.9.6.8.5Zm3.6-3.2.2.8.6-.5Zm-7.1-1.1h.9l-.3-.7Zm12.3,15.5-1.2.5.9.7ZM193,320l.2,1,.8-.5Zm-8.4-2.4,1.1.1-.4-.9Zm4.3,1.5-1.2.5.8.8Zm4.9-3.4.2,1.1.8-.6Zm-8.5-2.5,1.1.2-.3-1Zm-8,2.1-.8-.6-.2.9ZM186,310l-.9,1.2,1.2.2Zm3.1-6.2.7,1,.5-1Zm-10,2.3,1.2-.5-.8-.7ZM189,314l-1.2.5.9.8Zm5.1-3.3.1,1.1.8-.5Zm-8.4-2.6,1.1.1-.3-.9Zm18.9.2-1-.7-.3,1.1Zm5.7-14-2,.6,1.2,1.5Zm2.3-5.7,1.2-1.8-1.8-.4Zm1.3,2.6-.5,1.6,1.6-.1Zm-7.6,4.7-1,1.1,1.2.4Zm3.5-6,.6,1.1.6-1Zm-10.1,1.6,1.2-.4-.8-.8Zm13.6-6.8-.9.5.7.5Zm3.7-3.1.2.8.6-.5Zm-7-1.4h.9l-.3-.7Zm-2,4.5-.9.5.7.6Zm3.8-3,.2.9.6-.5Zm-7-1.5.9.1-.3-.8ZM216,296.5l-1.2.4.8.8Zm5.2-3.1v1.1l.9-.5Zm-8.3-3,1,.2-.2-.9Zm4.1,1.8-1.2.4.8.9Zm5.2-3,.1,1.1.8-.5Zm-8.3-3,1.1.2-.3-1Zm2.2,1.5.4,1.9,1.4-1.1Zm2.2,5.7-.7-1.1-.6.9Zm-4.1,1.6,2.3.6-.4-2.1Zm-3.1,1.4h1.6l-.6-1.3Zm-.2-3.4-.7-1.1-.6.9Zm-5.1-5.4-.8-.6-.2.9Zm1.2,5.9.4.8.4-.6Z" fill="#ce7aa0"/>
      <path id="Path_12810" data-name="Path 12810" d="M209.1,300.1l-1.3.4.8.8Zm5.2-2.9v1.1l.9-.5Zm-8.2-3.3,1.1.3-.2-1Zm7-.8-1-.8-.3,1.1Zm4.8,17.8-.9-.9-.4,1.1Zm-.6,6-.8-.9-.5,1Zm-3.1-1.8-.8-.9-.5,1.1Zm12.3-4.4-1-1.2-.6,1.3Zm-5.5.5-.9.6.8.5Zm-.2-1.6.2,1,.8-.5Z" fill="#ce7aa0"/>
    </g>
    <g id="Group_936" data-name="Group 936">
      <path id="Path_12811" data-name="Path 12811" d="M291.2,323.3l-.2,1.1,1-.2Zm-.1-4.3,1.4.8.2-1.5Zm13.8,16.1,1.9.3-.4-1.6Zm-1.4-3.3,2,.3-.4-1.6Zm-5.2-16.4,2,.3-.5-1.6Z" fill="#db8aab"/>
      <path id="Path_12812" data-name="Path 12812" d="M299.4,316l1.6.3-.4-1.4Zm6.9,28.5,1.7,1,.3-1.6Zm-7.4-6,1.7,1.1.3-1.7Zm.6-10.4,1.7,1,.2-1.7Z" fill="#db8aab"/>
      <path id="Path_12813" data-name="Path 12813" d="M300.9,326.7l1.7-.9-1.2-1.1Zm-5-7.8,1.8-.9-1.2-1.1Zm4.7,12,1.8-.8-1.3-1.2Zm-8.5-26.3,1.8-.8-1.2-1.1Zm6,20.2,1.8,1,.1-1.7Zm-.3-12.9,1.4.8.1-1.4ZM295,300.4l1.4.8.1-1.4Zm-.5,2.7,1.6-1.6-1.9-.7Zm2.6,3.9,1.6-1.6-1.9-.7Zm-2.6-2.6,2.3-.1-.9-1.8Zm6.3,17.2.2,1.9,1.5-.8Zm1.6,22.4v1.9l1.6-.7Zm6.5,4.1V350l1.6-.7Zm-4,4.7.1,1.9,1.6-.8Zm-8-16.6.1,1.9,1.6-.8Zm-14-46.3.1,1.9,1.6-.8Z" fill="#db8aab"/>
      <path id="Path_12814" data-name="Path 12814" d="M297.4,331.8l.1,1.8,1.6-.8Zm12.7,21v1.9l1.6-.7Zm2.3,10.1.1,1.6,1.3-.6Zm1-3.4-1,1.2,1.3.4Zm-6.9,1,.1,1.6,1.3-.6Zm5.9.3v1.6l1.3-.6Zm-11.9-43.2.1,1.7,1.3-.7Zm-2.3-.9.1,1.7,1.3-.8Zm-7.8-13.9.9.2-.2-.8Zm10.1,18.8,1.4.9.1-1.5Zm-4.4,1.5,1.7.9.2-1.6Zm-10.7-.5.6-.7-.7-.3Zm14.4-.6-1.2.6.9.7Zm-.5-2,.3,1.1.7-.7Zm-3.8-3.7h1.1l-.3-.9Zm4.7,20.3-.5,1.2,1.2-.1Zm5.7,10.5-.5,1.2,1.2-.2ZM300.5,334l-.4,1.3,1.2-.1Zm1.6-6.5,1,.5.1-.9Zm.3,2.5,1,.6.1-.9Zm-8.5,2.6.9-.7-1-.4Zm8.7,4.3.8-.7-.9-.4Zm2.6,3.3h-1.4l.5,1Zm1.3,2.5h-1.4l.6,1Z" fill="#db8aab"/>
      <path id="Path_12815" data-name="Path 12815" d="M312.8,357.5l-1.4-.8.5,1.1Zm-5.2-19.4-1.4,1.5,1.8.5Zm.9,3.1-1.4,1.5,1.8.5Zm-6.2-4.7.7,2,1.3-1.4Zm1.1,5.1.7,1.9,1.2-1.4Zm-4.8-16.2.6,2,1.3-1.4Zm-1.7-10.1.7,1.9,1.3-1.4Zm-3.4-8.8.5,1.9,1.4-1.2Zm4.3,47,1.1.4V353Zm10.3,10.4-.4-1-.7.7Zm-1.8-13.5-1.2.1.5.8Zm5.9,4.8-.4-1-.7.7Zm-4.1-8.2-.4-1.1-.8.7Zm4.8,10.6-.8,1,1.1.2Zm-18.2-30.5.6-.7-.8-.1Zm-1.8,3.5-.5-.6-.3.5Z" fill="#db8aab"/>
      <path id="Path_12816" data-name="Path 12816" d="M298.8,329.2l-.7.3.5.4ZM297,314.7l.5-.6-.7-.2Zm-1.8,3.5-.5-.5-.3.5Zm5.9-1.3-.7.3.5.4Zm-5.3-9,.4-.6-.6-.1Zm-1.7,2.9-.3-.5-.3.4Zm4.8-.9-.5.2.4.4Zm-13,36.8-.5.5.7.2Zm1.2-6.4.4.5.3-.5ZM300,343l-.8-1-.6,1Zm5.1,3.7-1.1.5.8.6Zm-.1-8.9.2,1.1.8-.5Zm4.1,28.6-.1-1.1-.9.5Zm3.1.2-.1-1.1-.9.5Zm2,1.9-.9-.1.2.8Zm-1.3-9.9-.3.9h.8Zm-5-2.4.2.9.7-.5Zm-5.9-4.1-.7-.7-.4.8Zm.9-11.5-1.3-1.3-.7,1.5ZM302,355l-.7-.8-.5.9Z" fill="#db8aab"/>
      <path id="Path_12817" data-name="Path 12817" d="M302.5,352.4l-.7-.8-.4.8Zm4.9,11.3-1.7.8,1.3,1.1Zm8.7,7-1.2,1.5,1.7.4Z" fill="#db8aab"/>
      <path id="Path_12818" data-name="Path 12818" d="M315.6,368.9l-1.1,1.4,1.6.4Zm-4.6-1.5-1.7.8,1.3,1.1Zm2.3.4-1.7.8,1.3,1.1Zm-1.7-7.2-1.7.9,1.3,1.1ZM302,324.2l.8,1,.6-1Zm-4.8-4,1-.4-.7-.7Zm-.4,8.9-.2-1.1-.8.5Zm.8-3.3-1.2-.6-.1,1.2Zm6.2,1.8-.8.7,1,.4Zm-3.6-8.2.6.9.5-.8Z" fill="#db8aab"/>
      <path id="Path_12819" data-name="Path 12819" d="M299.6,318.7l.8,1,.5-1Zm-4.7-4.1,1-.4-.7-.7Zm-.3,9.2-.2-1.2-.8.6Zm-1.9-22.5-.4,1.2,1.2-.1Zm.6-6.2,1,.5.1-.9Zm-7.6,5.1.8-.8-.9-.4Zm7.7,13.5-.3,1,1-.1Zm.4-5.2.8.4.1-.8Zm-6.2,4.4.6-.6-.8-.3Zm9.1-3.1.7,1.1.6-1.1Zm-4.6-4.2,1-.4-.7-.7Zm-.5,9.1-.2-1.1-.8.6Zm25.8,61-.3-.8-.6.6Zm-24.3-86.6-.5,2.4,2.1-.5Zm-2.8-4,2.8.4-.8-2.3Zm.9,3.8,2.6.2-.8-2.2Z" fill="#db8aab"/>
      <path id="Path_12820" data-name="Path 12820" d="M294.4,299.2l2.6.2-.6-2.6Zm1.5,5.5,2.6.2-.6-2.6Zm-2.6-10.2,2.5.6-.4-2.3Z" fill="#db8aab"/>
      <path id="Path_12821" data-name="Path 12821" d="M293,293.4l2.6.2-.8-2.2Zm1,4.1,2.6.2-.8-3.1Zm1.4,5.1,2.6.2-1-3.1Zm6.4,29-.5,2.9,2.5-.6Zm-12.7-34.2-.6,2.9,2.5-.6Zm1.2,8.1-.4,1.9,1.7-.4Zm6,6.4-.3,1.9,1.6-.5Zm-1.7-1.9-.3,1.9,1.6-.5Zm5.8,2-1.7,2.3,2.5.5Zm1.8,6.8-1.8,2.3,2.6.6Zm-.6-3.1-1.8,2.3,2.5.5Zm1.6,6.3-1.7,2.3,2.5.6Z" fill="#db8aab"/>
      <path id="Path_12822" data-name="Path 12822" d="M304,324.9l-1.8,2.3,2.6.6Zm.9,2.9-1.8,2.4,2.6.5Zm-1.9,3.7.6,2.9,2.1-1.5Zm2.8,8.3.6,2.8,2.1-1.5Zm1.1,4.3.6,2.8,2.1-1.5Zm-.1-8.6-1.7,2.3,2.5.6ZM299.7,309l-1.8,2.3,2.5.6Zm12.6,48.4-2.8.9,1.7,1.9Zm-5-8.2-.5,2.9,2.5-.7Zm7.7,23-.5,2.9,2.5-.7Zm2.5,4.6-1.3,1.8,2,.4Zm-2.6-1.3-.4,2.2,1.9-.5Zm-22.7-90.3-.9,1.4,1.5.2Zm2.7,40.4-1,.6.8.6Zm4-3.6.3.9.6-.5Zm-7.9-1.2h1l-.4-.8Zm-11.8-64,1.4.9.2-1.5ZM290,302.9l.5-.7-.7-.2Zm-1.9,3.4-.5-.6-.3.6Zm5.9-1.2-.7.3.5.4Zm-5-9.2.4-.6-.6-.1Zm-1.5,2.9-.4-.4-.2.4Zm4.8-1-.6.2.4.4Zm-10.6-33.3.8,1.1.6-1Zm-4.4-4.3,1-.4-.7-.7Zm-.8,9.1-.1-1.1-.9.5Zm8.2,3.2-.3,1.1,1-.2Zm.7-5.1.8.5.1-.8Zm-6.5,4,.7-.6-.7-.3ZM290,298.3l.8,1.1.6-1Zm-4.6-4.2,1.1-.4-.7-.7Zm-.5,9.2-.1-1.2-.9.6Zm3.1,7.6-1.1.6.9.6Zm4.1-3.5.2,1,.7-.6Zm-7.9-1.4h1l-.4-.8Zm4.8-20.7,1.2,1.8,1-1.6Zm-1.2-7.6h2.9l-1-2.7Zm1.3,3.2,2.8.4-.8-2.6Zm-2.3,10.5-.2-2.9-2.3,1.3Zm.8-6.4-.1,1.2.9-.4Zm-.6-5.4.9.3v-.8Zm-5.6,5.7.6-.8-.9-.1Zm1-4.6h1.4l-.5-1.1Zm-2.4.9,1.7.4-.4-1.5Zm5.4-2.2-.9.4.5.5Z" fill="#db8aab"/>
      <path id="Path_12823" data-name="Path 12823" d="M284.2,278.8l-.1,1.2,1.1-.4Zm1.7,1.1-.7.6.7.3Zm2.8-3.4.3.7.5-.6Zm-6.4,0,.7-.2-.4-.5Zm2.3,5.8.7-.1-.4-.5Z" fill="#db8aab"/>
      <path id="Path_12824" data-name="Path 12824" d="M285.5,282l-1.2.1.6.9Zm5.8,17.2.1,1.2.9-.6Zm-1.7-5.1.9.1-.2-.8Zm-4.3,6.7.4-.9-.9.1Zm-5.2-2.5.1,1,.7-.4Zm2.2-19.7h2.1l-.8-1.7Zm4.2-.6.9-1.9-1.8-.1Zm3,1.9.9-1.8-1.9-.1Zm2.1,3.5-.3-2.1-1.5,1Zm-1.7-2.6-1.5-1.4-.6,1.8Zm.8,4.4-1.6-1.4-.5,1.7Zm-3.8-5.5-1.6-1.4-.6,1.8Zm.6,2.3-1.5-1.4-.6,1.8Zm-3.2,4.6.9-1.9h-1.9Zm4.1-15.8-.7-1.8-1.2,1.3Zm-1.7-4.5-.7-1.8-1.2,1.3Zm-2.3-3.6-1.3-1.2-.6,1.5Zm3.2,5.8-1.4-1.2-.5,1.5ZM281,252.2l-.9-1.6-1,1.3Zm9.2,41.1.7-1.4-1.5-.1Zm3.2,6,.7-1.5h-1.5Zm-2.7-3.1,1.7.2-.5-1.4Zm0-7.4-1.8-1.1-.2,1.9Zm-1.5-1.7-1.9-1.1-.1,1.9Z" fill="#db8aab"/>
      <path id="Path_12825" data-name="Path 12825" d="M291.2,284l-1.5-1.4-.6,1.7Zm.5,4.1-1.1-1.7-1,1.6Zm1.3,1.7-1.8-1.1-.2,1.9Zm1.2,7.1-1.3-1.6-.8,1.7Zm3,9.1-1.4-1.6-.8,1.7Zm2.2,3.2-1.5-1.6-.7,1.7Zm-2-.4-1.1-1.2-.6,1.3Zm-2.2-3.2-1.1-1.2-.6,1.3Z" fill="#db8aab"/>
      <path id="Path_12826" data-name="Path 12826" d="M296.9,311.4v-1.6l-1.3.6Zm-1.9-7.6.1-1.5-1.3.5Zm-2.5-5.8v-1.6l-1.3.5Zm-4.4-9.3.1-1.6-1.3.6Zm6.6,11.8-1.4-1.6-.8,1.7Zm-9.3-18.4-1-1.9-1.2,1.5Zm14,26.6-.6-2.1-1.4,1.2Zm7.2,25.3-.7-2-1.3,1.3Zm-.5,2.8-.7-2-1.4,1.3Zm2.2,12.2,1.9.3-.5-1.6Zm-1.1-3.4,2,.3-.5-1.6Zm1.8,8.5h-1.3l.5,1.1Zm1,2.5-1.4.1.6,1Zm1.3-4.6-1.3,1.5,1.9.6Zm.9,3.1-1.3,1.6,1.8.4Zm-5.3.4.7,2,1.2-1.4Z" fill="#db8aab"/>
      <path id="Path_12827" data-name="Path 12827" d="M304,357l-.9-1-.5,1.1Zm5,3.7-1.1.5.8.7Zm-.3-9,.3,1.1.8-.6Zm-1.9-6.4.6,2.9,2-1.6Zm3.1,8.3.6,2.9,1.9-1.3Zm.7-4.4-1.8,2.5,2.6.5Zm3.7,14.8-1.8,2.4,2.6.6Z" fill="#db8aab"/>
      <path id="Path_12828" data-name="Path 12828" d="M313.7,361.8l-1.3,1.9,2,.4Zm1.4,5-1.4,1.9,2,.5Zm-4.9-18.7-.6-2.4-1.3,1.4Zm-.1,2.5-.7-2-1.3,1.3ZM294,292.1l-1.9-1-.2,1.8Zm-2.1,3,.4-2.1-1.8.4Zm-1.7-3.3.4-2-1.8.4Zm-5.9-25.2.3-1.4-1.2.2Z" fill="#db8aab"/>
      <path id="Path_12829" data-name="Path 12829" d="M289.1,297l.3-1.4-1.3.3Zm-3.4-2.9,1.2-.7-1-.8Zm-.5-2.2.8-.5-.7-.5Zm4.8,3.7.9-.5-.8-.5Zm1.9-1.1.9-.6-.8-.5Zm-3.1-4.2.9-.5-.8-.5Zm-2-5.9.9-2-1.9.1Zm-1.2-8.7-1.6-1.4-.5,1.8Zm-5.5-15.8-1.1.3.7.8Zm-5.7,3.3-.8.6.8.3Zm7.2,29.5.7-.2-.4-.5ZM273,272v1l.8-.4Zm-1.2-4.4.8.2-.2-.7Zm-3.8,5.5.3-.8h-.7Zm19.8,19,.1,1.2.9-.5Zm-1.6-5.2,1,.2-.2-.8Z" fill="#db8aab"/>
      <path id="Path_12830" data-name="Path 12830" d="M281.8,293.5l.4-.9h-.9Zm.6-6.3-.9.8.9.4Zm1.7,9.8.5,1.9,1.4-1.1Zm5.3-21.2-1.5-1.1-.4,1.6Z" fill="#db8aab"/>
      <path id="Path_12831" data-name="Path 12831" d="M281.2,293.8l1.6.5-.2-1.5Zm2.3-22.3,1,.9.4-1.1Zm-5.3-3.3,1-.6-.8-.5Zm1.3,9.1-.4-1.1-.7.7Zm-6-7.6.4.8.5-.6Zm-2.7-3.5.8-.1-.4-.6Zm-1.5,6.3.1-.8-.7.2Zm15-9.8.3,1.1.8-.7Zm-2.7-4.7,1-.1-.4-.7Zm-2.9,7.4.2-.9-.8.2Zm1.7-3.7.4,1.1.8-.7Zm-2.6-4.7,1-.1-.4-.8Zm-2.9,7.4.2-1-.8.2Zm1.5-2,1.6-.3-.9-1.2Zm6.8,27.4-1,.7.9.5Zm1.6-28.2-.7-2-1.4,1.3Zm-2.1-4.6-.7-2-1.3,1.4Zm3.3,39.3v-1.4l-1.2.5Zm-3.1.2-1,.7.8.5ZM276,271.7l-.6.8.9.2Zm7.3,28.4.8-.4-.6-.4Zm6-1.9.4,1.1.7-.7Z" fill="#db8aab"/>
      <path id="Path_12832" data-name="Path 12832" d="M286.7,293.4h1l-.4-.8Zm-3,7.4.2-.9-.8.2Zm-.7-6.3-.7.9,1,.3ZM273.8,262l.7-.4-.5-.4Zm6.3-2.9.1,1.2.9-.5Zm-1.6-5.2,1,.2-.3-.9Zm-4.4,6.6.4-.9h-.9Zm15.2,48.1.5,1.9,1.4-1.2Zm-5.1-2.7-1.5-1-.4,1.6Zm2.4-1.2,1.5.6-.1-1.5Zm4.2,7.5,1,.9.3-1.1Zm-5.4-3,.9-.6-.9-.5Zm1.7,9.1-.5-1.1-.7.7Zm-5.9-34.6.5.8.4-.7Zm-2.7-3.4.8-.2-.5-.6Zm-1.3,6.3v-.8l-.7.2Zm3.6,23.5.4.9.5-.7Zm-2.7-3.4.7-.2-.4-.5Zm-1.4,6.3v-.8l-.6.3Zm14.7-10.1.4,1.1.7-.8Zm-2.8-4.7,1-.1-.4-.7Zm-2.7,7.5.2-1-.9.3Zm-2-33.8.3,1.2.8-.8Zm-2.7-4.7h1l-.4-.8Zm-2.8,7.4.1-.9-.8.2Zm5.1,28.2,1.6-.4-.9-1.2Zm5.1-2-1,.6.8.6Zm1.5,3.7.5-2-1.9.3Zm1.2,2.8v-1.4l-1.2.5Zm-3.2.9-1,.6.9.5Zm-4.7,4.7-.6.8.8.1Zm5.2-1.2.8-.4-.6-.4Z" fill="#db8aab"/>
      <path id="Path_12833" data-name="Path 12833" d="M294.7,309.1l.3,1.2.8-.7Zm-2.7-4.7h1l-.4-.8Zm-2.9,7.4.2-1-.9.2Zm-.8-6.3-.7.9,1,.3Zm-6.7-32.1.5,1.8,1.4-1Zm5.5-1.4-1.5-1-.4,1.5Zm-4.5-4,1.5.5-.1-1.4Zm-5.5,6.6,1,.9.3-1.1Zm-5.3-3.3.9-.5-.8-.6Zm1.2,9.1-.3-1-.8.7Zm6.6,7.6.3,1.1.8-.7Zm-2.7-4.7,1-.1-.4-.7Zm-2.9,7.4.2-.9-.8.2Zm5.2,10,.4,1.1.8-.7Zm-2.7-4.7.9-.1-.4-.7Zm-2.7,7.5.1-.9-.8.2Zm1.3-39.8-1,.6.8.6Zm12.5,10.5,2.1.1-.8-1.8Zm-9.9-3.9v-1.5l-1.2.6Zm-3.1.1-1,.6.8.6Zm-5.2,4.5-.6.7.8.2Zm5.6-.9.7-.4-.5-.4Zm6-1.8.3,1.1.8-.7Zm-2.5-4.8h.9l-.3-.8Z" fill="#db8aab"/>
      <path id="Path_12834" data-name="Path 12834" d="M275.3,274.7l.3-.9-.9.1ZM291.8,322l-1,.5.8.7Zm4-3.7.3,1,.6-.6Zm-7.9-1.1,1-.1-.4-.8Zm.8-5.4,1.1.9.3-1.1Zm-5.4-3,.9-.6-.9-.5Zm1.7,9.1-.4-1.1-.7.7Zm.5-48.2-1.5-1.1-.5,1.5Z" fill="#db8aab"/>
      <path id="Path_12835" data-name="Path 12835" d="M294.7,322.6l1.1.9.3-1.1Zm-5.4-3,.9-.6-.9-.5Zm1.7,9.1-.5-1.1-.6.7Zm-6.9-12.1.5.8.4-.7Zm-2.9-3.2.7-.3-.4-.5Zm-1,6.3-.1-.8-.6.3Zm8.5,13,.5.8.5-.6Zm-2.8-3.3.8-.2-.5-.6Zm-1.2,6.3v-.8l-.6.3Zm10-21.9.4,1.1.7-.7Zm-2.9-4.5.9-.1-.4-.8Zm-2.5,7.5.1-.9-.8.2Zm1.5-3.8.4,1.1.8-.7Zm-2.9-4.6,1-.1-.5-.7Zm-2.5,7.6.1-.9-.8.2Zm1.5,7.3-.5.8.8.1Zm-4.4-8,1,.9.3-1.2Zm-5.5-3,.9-.6-.8-.5Zm1.7,9-.4-1-.7.7Zm7.5-9.2.3,1.1.8-.7Zm-2.4-4.9h1l-.4-.8Zm-3.3,7.3.3-1-.9.2Zm-3.6-60.7-.7.9,1,.2Zm5.7,15.5-.9.7.9.5Zm2.7,16.4-.9.8.9.4Zm-3.1-9.4-1.3.7,1,.8Zm5.3,6.4.2.9.7-.5Z" fill="#db8aab"/>
    </g>
    <path id="Path_12836" data-name="Path 12836" d="M260.4,208l4.2,9.1,1.6-9Z" fill="#cc87a3"/>
    <g id="Group_937" data-name="Group 937">
      <path id="Path_12837" data-name="Path 12837" d="M285.4,372.7l.2-1.1-1,.2Zm.3,7-1.6-.7v1.5Zm-3.5,10-1.6-.7v1.5Zm.1-2.2-.2-1.6-1.3.7Zm-1.7.9-1.5-.7v1.5Zm-10.7-26.6-2.1-.1.6,1.6Zm1.8,3.3-2.1-.1.6,1.6Zm7.2,16.6-2.2-.1.7,1.7Z" fill="#db8aab"/>
      <path id="Path_12838" data-name="Path 12838" d="M277.7,381.2l-1.8-.1.6,1.4Zm-10.3-29-1.9-.9-.1,1.7Zm8.3,5.5-1.8-1-.2,1.8Zm.6,10.9-1.9-.8-.1,1.7Z" fill="#db8aab"/>
      <path id="Path_12839" data-name="Path 12839" d="M275,370.2l-1.8,1.1,1.4,1Zm6,7.6-1.8,1.2,1.4,1Zm-6.2-12.1-1.7,1.2,1.4,1Zm3.2,6.2-1.9-.9v1.8Zm1.8,13.4-1.6-.6v1.5Zm-4.2-9.8-.4-1.9-1.6,1Zm-4-23.3-.3-1.9-1.6.9Zm-7.1-3.6-.2-2-1.6,1Zm3.7-5.3-.3-2-1.6,1Zm9.9,16.5-.3-2-1.6,1.1Zm0,4.7-.4-1.9-1.6,1Zm-15.5-20.6-.3-2-1.6,1Zm-3.7-10.2-.4-1.7-1.2.9Zm-.7,3.5.9-1.4-1.5-.3Zm7.5-1.8-.3-1.7-1.2.8Zm-6.2.3-.2-1.7-1.3.8Z" fill="#db8aab"/>
      <path id="Path_12840" data-name="Path 12840" d="M276.4,379.6,276,378l-1.2.8Zm2.4.7-.3-1.6-1.2.9Zm-2.9-4.9-1.6-.7v1.6Zm4.5-1.9-1.9-.8-.1,1.7Zm11.2-.6-.6.8.8.2Zm-15,2.1,1.2-.7-1.1-.7Zm.7,2.1-.4-1.2-.7.8Zm4.4,3.4-1.2.2.5.9Zm-7.1-20.7.4-1.3-1.3.2Zm-6.8-10.4.3-1.3-1.3.2Zm6.7,13.1.4-1.4-1.3.3Zm-.9,7-1.1-.4v1Zm-.6-2.6-1.1-.5v1Zm8.6-3.6-.8.8,1,.3Zm-9.5-3.6-.8.9,1,.3Zm-3.1-3.1,1.4-.2-.6-1Z" fill="#db8aab"/>
      <path id="Path_12841" data-name="Path 12841" d="M267.4,354.1l1.4-.2-.7-1Zm-8.2-14.8,1.6.6-.7-1Zm7.5,19.7,1.3-1.8-1.9-.3Zm-1.2-3.2,1.3-1.7-2-.3Zm6.9,4.3-.9-2-1.2,1.6Zm-1.7-5.2-.9-1.9-1.2,1.6Zm6.8,16.4-.9-2-1.2,1.6Zm2.8,10.4-.9-1.9-1.2,1.6Zm-4.8-39.9-1.2-.4.1,1.1Zm-12.4-10.2.7,1,.6-.9Zm3.9,14.3,1.2-.1-.6-.9Zm-6.9-4.3.5,1.1.7-.8Zm5.4,8.1.5,1.1.7-.8Zm-6.4-10.5.8-1.1-1.2-.2Zm22.3,29.9-.5.8.8.1Zm1.5-3.8.5.5.3-.5Z" fill="#db8aab"/>
      <path id="Path_12842" data-name="Path 12842" d="M276.9,367.3l.6-.3-.5-.4Zm3.4,15-.5.8.8.1Zm1.5-3.8.6.5.2-.6Zm-6,2,.7-.4-.6-.3Zm12.9-32.8.5-.6-.7-.1Zm-.7,6.8-.6-.5-.2.6Zm-13.9-1.4,1,.9.5-1.1Zm-5.7-3.4,1.1-.6-.9-.6Zm1.1,9.3-.3-1.1-.8.7Zm-8-29.7.4,1.1.8-.7Zm-3.2.5.4,1.1.8-.7Zm-2.4-1.6h1l-.4-.8Zm3.1,9.9.3-.9-.9.1Zm5.6,1.9-.2-.9-.7.6Zm6.7,3.7.8.7.3-.9Zm0,12.1,1.6,1.3.5-1.7Z" fill="#db8aab"/>
      <path id="Path_12843" data-name="Path 12843" d="M271,340.6l.8.8.4-.9Zm-.3,2.9.8.7.4-.9Zm-6.8-11.8,1.5-1.3-1.5-.8Zm-10.3-5.5,1-1.7-1.8-.2Z" fill="#db8aab"/>
      <path id="Path_12844" data-name="Path 12844" d="M254.4,328.1l1-1.8-1.8-.1Zm4.9.6,1.6-1.2-1.6-.8Zm-9.6-13,1.8-1.1-1.4-1Zm-1.6-6.1-.5-1.3-1.2,1.1Zm9,16.7-1-1.8-1.1,1.4Zm-7.9-14.7-2.1.1.9,1.6Zm7.7,17.3,1.6-1.3-1.6-.8Zm3.5,6.9,1.7-1.1-1.5-1ZM274.1,373l-1-1-.5,1.1Zm5.4,3.6-1,.6.8.6Zm-.5-9.3.3,1.1.8-.7Zm-.6,3.5,1.4.5-.1-1.2Zm-6.6-1.2.8-.9-1.1-.2Zm4.7,8.2-.8-.9-.5.9Z" fill="#db8aab"/>
      <path id="Path_12845" data-name="Path 12845" d="M277.2,378.5l-1-1.1-.4,1.2Zm5.3,3.8-1,.5.8.6Zm-.7-9.7.3,1.2.9-.7Zm-30.3-51.5.5.8.5-.7Zm22,44,.2-3-2.6.9Zm7.8,20.1.1-2-1.6.6Zm-4.3.4,1.6-2.7-2.7-.3Zm-2.6-7L276,376l-2.7-.3Zm1,3.2,1.6-2.6-2.7-.3Zm-2.4-6.4,1.6-2.7-2.7-.3Z" fill="#db8aab"/>
      <path id="Path_12846" data-name="Path 12846" d="M271.9,372.5l1.6-2.7-2.7-.3Zm-1.3-3.1,1.6-2.6-2.7-.3Zm1.6-4-.9-3-2.1,1.9Zm-3.8-8.3-.9-3-2,1.8Zm-1.6-4.4-.9-2.9-2.1,1.8Zm1,8.9,1.6-2.6-2.7-.3Zm10.3,27,1.6-2.6-2.7-.3Zm6.7,1.9-2.5-1.8-.5,2.7Z" fill="#db8aab"/>
      <path id="Path_12847" data-name="Path 12847" d="M287.7,389.7l-2.5-1.9-.6,2.7Zm-27.9-50.4,2.8-1.2-2-1.8Zm6.2,8,.3-3.1-2.6,1Zm-11.5-23.1-.3-3-2.3,1.3Zm-3.3-4.2,1-2.1h-2.1Zm3,.8v-2.3l-1.9.9Zm27.1,49.9,1-.7-.9-.6Zm-3.8,4.2-.4-.9-.6.6Zm8.4.4-1,.2.4.7Zm-17.7-12.1.9,2,1.3-1.5Zm.3-3,.9,2,1.3-1.5ZM265,347.6l-2-.1.7,1.7Zm1.3,3.5-2.1-.1.7,1.7Zm-2.6-8.7,1.4-.2-.6-1Zm-1.4-2.5,1.4-.2-.7-1Zm-.9,5,1.2-1.7-2-.4Zm-1.3-3.2,1.2-1.7-1.9-.3Zm5.7-1.1-1-1.9-1.1,1.6Zm2.9-1.8,1,.9.4-1.1Zm-5.6-3.4,1-.6-.9-.6Z" fill="#db8aab"/>
      <path id="Path_12848" data-name="Path 12848" d="M264.3,344.8l-.4-1.1-.7.7Zm2.5,6.5-.9-2.9-2,1.8Zm-4.1-8.3-1-3-1.7,1.6Zm-.3,4.7,1.6-2.8-2.7-.2ZM256.6,333l1.6-2.7-2.7-.3Z" fill="#db8aab"/>
      <path id="Path_12849" data-name="Path 12849" d="M257.6,335.4l1.1-2.3-2.1-.1Zm-2.4-5.3,1.2-2.2-2.1-.2Zm7.7,18.7.9,2.5,1.3-1.7Zm.1-2.7.9,2.1,1.2-1.6Zm21.9,28.1,1-.7-.9-.6Zm-3.8,4.2-.4-1-.6.7Zm8.4.4-1,.1.5.8Zm-3.8,4.7,1-.7-.9-.5Zm-2.5,2-.4-1-.6.7Zm2.6,1-1,.2.4.7Zm-4-12.7-1.1-.8-.2,1.2Zm6.1,2.6-.9.7.9.5Zm-2.8-9.3.6,1.1.6-.9Zm1.9-4.5-.5-.8-.5.7Zm3.3,3.2-.7.3.5.5Zm.6-6.7.1.8.6-.3Zm-1,13.2.5-.9-.9-.1Z" fill="#db8aab"/>
    </g>
    <path id="Path_12850" data-name="Path 12850" d="M317.6,417.9l-19.7-6.5-.6-6.2,22.1,7.1Z" fill="azure"/>
    <path id="Path_12851" data-name="Path 12851" d="M297.5,426.2a2.578,2.578,0,0,0,2.3,2.8l56,5.8a2.578,2.578,0,0,0,2.8-2.3l.3-2.9-61.2-6.4-.2,3Z" fill="#0a5f66"/>
    <path id="Path_12852" data-name="Path 12852" d="M357,423.9l-56-5.8a2.578,2.578,0,0,0-2.8,2.3l-.3,2.9,61.2,6.4.3-2.9a2.752,2.752,0,0,0-2.4-2.9Z" fill="azure"/>
    <path id="Path_12853" data-name="Path 12853" d="M345.2,422.8l2-7.8a.807.807,0,0,0-.4-.9l-9.5-5.1c-.5-.3-.9-.1-1,.4l-3.2,12Z" fill="url(#linear-gradient-7)"/>
    <path id="Path_12854" data-name="Path 12854" d="M328.1,420.9l4.1-13.3a.806.806,0,0,0-.3-.9l-9.7-6.1a.481.481,0,0,0-.6.2l-6.4,18.7,12.9,1.4Z" fill="url(#linear-gradient-8)"/>
    <g id="Group_938" data-name="Group 938">
      <path id="Path_12855" data-name="Path 12855" d="M322.2,400.7l3,1.8-2.5,1.1Zm3,1.9,2.9,1.7-2.4,1.2Zm3.3,2,2.8,1.8-2.4,1.2Zm-5,.3,1.3-.8v1.2Zm3.3.8,1.4-.8-.1,1.2Zm-5.1-1.6,1.2.3-.7.7Zm3.9,2.4,1.3.3-.7.7Zm5,1.1,1.2.2-.7.8Z" fill="#46a3b2"/>
      <path id="Path_12856" data-name="Path 12856" d="M325.1,405.6l1.3-.3-.3.9Zm-1.3-3,1.3.8-1.1.5Zm-1.7.6v-.6l.5.2Zm.4,3.1v-.6l.5.2Zm1.4,1.1v-.6l.4.3Zm1.7,1.9v-.6l.4.2Zm-1-3v-.7l.5.3Zm3.6.8v-.8l.5.3Zm-1.7,1.7-.1-.7.5.3Zm2.1-.6v-.7l.5.3Zm-5.4-2.1v-.8l.5.3Zm6.3,2.1v-.7l.5.3Zm1.7-.7v-1.1l.8.4Zm-9.8-.6.5-.2v.5Zm1.2,1.3.5-.3-.1.5Zm5.5.8.5-.2-.1.4Zm-1-1.5.6-.2-.1.4Zm-7,.5.6-.3-.1.5Zm3.1-3.5v-.6l.4.2Zm-2.8.6.6-.3-.1.5Zm.7-.6.1-.6.4.3Zm1.1-.4.1-.6.3.3Zm-.9-1.8.6-.2-.1.5Zm.4-1.3.6-.3-.1.6Z" fill="#46a3b2"/>
      <path id="Path_12857" data-name="Path 12857" d="M321.1,402.4l.8,1.2h-1.2Zm.5-1.5.8,1.2h-1.2Zm15.3,8,3.1,1.6-2.4,1.3Zm3.1,1.7,3,1.5-2.2,1.4Zm3.3,1.8,3.1,1.5-2.3,1.4Zm-4.8.6,1.3-.9v1.2Zm3.4.5,1.2-.9.1,1.3Zm-5.3-1.2,1.3.2-.7.8Z" fill="#46a3b2"/>
      <path id="Path_12858" data-name="Path 12858" d="M340.8,414.4l1.2.2-.6.8Zm5,.7,1.3.2-.7.7Zm-5.6-1.5,1.2-.4-.2.9Zm-1.6-2.9,1.4.7-1.1.6Zm-1.6.8-.1-.7.5.2Zm.7,3-.1-.6.5.2Zm1.5,1-.1-.6.4.2Zm1.7,1.7v-.6l.4.2Zm-1.2-2.8-.1-.8.6.3Zm3.7.4-.1-.7.5.2Zm-1.6,1.9-.1-.7.5.2Zm2.1-.8-.1-.7.5.2Zm-5.6-1.7v-.7l.5.2Zm6.5,1.7-.1-.8.5.3Zm1.6-.9v-1l.6.4Zm-9.9.2.6-.3-.1.5Zm1.3,1.2.5-.3v.4Zm5.6.3.5-.3v.5Zm-1.1-1.4.5-.3v.5Zm-6.9,1.1.5-.3v.4Zm2.7-3.7V412l.5.2Zm-2.7.8.6-.4v.6Zm.7-.7v-.6l.4.3Zm1-.5.1-.6.3.3Zm-1-1.6.6-.4-.1.6Zm.2-1.4.6-.3v.5Z" fill="#46a3b2"/>
      <path id="Path_12859" data-name="Path 12859" d="M335.9,410.7l.9,1.1-1.2.2Zm.4-1.5.8,1.1-1.1.1Z" fill="#46a3b2"/>
    </g>
    <path id="Path_12860" data-name="Path 12860" d="M91.7,339.8l8.4-19,6.1-.1-9,21.4Z" fill="azure"/>
    <path id="Path_12861" data-name="Path 12861" d="M85.3,319.1a2.473,2.473,0,0,0-3,2L71.4,376.4a2.473,2.473,0,0,0,2,3l2.9.6,11.9-60.3Z" fill="#0a5f66"/>
    <path id="Path_12862" data-name="Path 12862" d="M82.2,378.5l10.9-55.3a2.473,2.473,0,0,0-2-3l-2.8-.6L76.3,380l2.8.6A2.771,2.771,0,0,0,82.2,378.5Z" fill="azure"/>
    <path id="Path_12863" data-name="Path 12863" d="M84.4,366.8l7.6,2.7a.806.806,0,0,0,.9-.3l5.9-9a.68.68,0,0,0-.3-1.1l-11.6-4.3-2.5,12Z" fill="url(#linear-gradient-9)"/>
    <path id="Path_12864" data-name="Path 12864" d="M87.8,350l12.8,5.3a.959.959,0,0,0,.9-.2l7-9.1c.2-.2.1-.5-.2-.6l-18.1-8.1L87.8,350Z" fill="url(#linear-gradient-10)"/>
    <g id="Group_939" data-name="Group 939">
      <path id="Path_12865" data-name="Path 12865" d="M108.5,346l-2.1,2.8-.9-2.6Zm-2.2,2.8-2,2.7-1-2.5Zm-2.3,3-2.1,2.7L101,352Zm.2-5,.7,1.5-1.3-.2Zm-1.1,3.3.7,1.4-1.3-.1Zm2.1-5-.4,1.2-.7-.7Zm-2.8,3.8-.4,1.2-.6-.8Zm-1.5,4.8-.4,1.2-.7-.7Z" fill="#46a3b2"/>
      <path id="Path_12866" data-name="Path 12866" d="M103.3,348.4l.2,1.3-.9-.4Zm3.2-1-1,1.2-.4-1.2Zm-.5-1.8.6.1-.3.4Zm-3.2.2h.7l-.3.5Zm-1.2,1.3h.6l-.3.4Zm-2,1.4.6.1-.3.4Zm3-.7.8.1-.4.5Zm-1,3.6h.7l-.3.5Zm-1.6-1.9h.7l-.3.5Zm.4,2.2h.7l-.3.5Zm2.6-5.2.7.1-.3.4Zm-2.7,6.1h.7l-.3.5Zm.6,1.7,1.1.1-.5.7Zm1.4-9.7.2.5-.4-.1Zm-1.3,1,.2.6-.5-.1Zm-1.3,5.5.2.5-.5-.1Zm1.5-.9.2.6-.4-.1Zm.2-7,.2.6-.4-.1Zm3.2,3.4h.6l-.3.5Zm-.3-2.9.2.7-.5-.1Zm.5.8.5.2-.3.3Zm.3,1.1.6.2-.4.3Zm1.8-.7.3.6-.6-.1Zm1.3.5.2.6-.5-.1Z" fill="#46a3b2"/>
      <path id="Path_12867" data-name="Path 12867" d="M106.9,344.7l-1.3.7.1-1.2Zm1.4.7-1.2.6.1-1.1ZM99,359.9l-1.9,2.9L96,360.3Zm-2,2.9-1.8,2.9L94,363.3ZM94.9,366l-1.8,2.8-1.2-2.4Zm-.1-5,.7,1.4H94.3Zm-.9,3.4.8,1.3H93.5Zm1.7-5.1-.3,1.2-.7-.7Z" fill="#46a3b2"/>
      <path id="Path_12868" data-name="Path 12868" d="M93.1,363.2l-.3,1.2-.7-.7Zm-1.1,5-.3,1.2-.7-.7Zm2-5.5.3,1.2-.9-.3Zm3.1-1.3-.9,1.3-.5-1.1Zm-.7-1.7h.7l-.3.5Zm-3.1.4H94l-.3.5Zm-1.1,1.4h.6l-.3.4Zm-1.9,1.6h.6l-.2.4Zm3-.9H94l-.3.5Zm-.8,3.6h.7l-.3.4ZM90.8,364h.7l-.3.5Zm.6,2.2h.7l-.3.4Zm2.1-5.4h.8l-.3.5Zm-2.2,6.3h.8l-.3.5Zm.8,1.7h1l-.5.6Zm.6-9.9.2.6-.4-.1Z" fill="#46a3b2"/>
      <path id="Path_12869" data-name="Path 12869" d="M91.5,360.1l.2.5h-.5Zm-.9,5.5.2.6-.4-.1Zm1.5-.9.2.5-.5-.1Zm-.4-7,.2.5-.5-.1Zm3.4,3.1.7-.1-.3.5Zm-.6-2.8.3.6-.5-.1Zm.6.7.6.1-.3.3Zm.5,1,.5.2-.3.3Zm1.7-.8.3.6-.6-.1Zm1.3.4.3.6-.5-.1Z" fill="#46a3b2"/>
      <path id="Path_12870" data-name="Path 12870" d="M97.3,358.7l-1.2.8-.1-1.2Zm1.4.5-1.1.8-.1-1.2Z" fill="#46a3b2"/>
    </g>
  </g>
</svg>
