<svg xmlns="http://www.w3.org/2000/svg" xmlns:xlink="http://www.w3.org/1999/xlink" width="281.754" height="227.027" viewBox="0 0 281.754 227.027">
  <defs>
    <linearGradient id="linear-gradient" x1="0.489" y1="0.456" x2="0.554" y2="0.727" gradientUnits="objectBoundingBox">
      <stop offset="0" stop-color="#cc7a5e" stop-opacity="0"/>
      <stop offset="0.924" stop-color="#aa5f4b"/>
    </linearGradient>
    <linearGradient id="linear-gradient-2" x1="0.355" y1="0.819" x2="0.553" y2="0.193" xlink:href="#linear-gradient"/>
    <linearGradient id="linear-gradient-3" x1="0.633" y1="0.801" x2="0.366" y2="-0.062" xlink:href="#linear-gradient"/>
    <linearGradient id="linear-gradient-4" x1="0.452" y1="0.509" x2="0.783" y2="0.463" xlink:href="#linear-gradient"/>
    <linearGradient id="linear-gradient-5" x1="0.505" y1="0.695" x2="0.531" y2="-0.394" gradientUnits="objectBoundingBox">
      <stop offset="0" stop-color="#131c4d" stop-opacity="0"/>
      <stop offset="0.998" stop-color="#131c4d"/>
    </linearGradient>
    <linearGradient id="linear-gradient-6" x1="0.202" y1="0.498" x2="1.932" y2="0.375" xlink:href="#linear-gradient-5"/>
  </defs>
  <g id="_23" data-name="23" transform="translate(-70.946 -207.9)">
    <path id="Path_12937" data-name="Path 12937" d="M87.8,323.7c.5-5.3,10.1-.7,13.3-1.9,24.5-8.3,38.1-17.9,53-24.5,14.4-6.4,29.6-13.4,35.1-16.6,4.1-2.4,8.6-21.4,8.6-21.4l41.5,11.4s-6.3,19.8-11.7,28c-3.5,5.2-15.6,9-19,10-51.5,15.9-98.5,30.7-106.4,37.3-2.4,2-8.8,12.8-14.6,23.3-3.2,5.7-5.8,7-8.7,6.9s-1.8,2.4-1.8,2.4l10.7-54.9Z" fill="#e79a7a"/>
    <path id="Path_12938" data-name="Path 12938" d="M102.2,346c7.9-6.5,54.9-21.4,106.4-37.3,3.4-1.1,15.5-4.8,19-10,5.2-7.8,11.1-26.1,11.7-27.8v-.2h-.1c-1.3.8-13.2-10.5-17.8-7.5-4.8,3.2-46.2,36.9-63.7,44.4-17.5,7.6-69.3,25.5-73.2,35.4-2.4,6-6.5,22.4,4.4,23.9,5.5-9.7,11.1-19.1,13.3-20.9Z" fill="url(#linear-gradient)"/>
    <path id="Path_12939" data-name="Path 12939" d="M130.9,321a86.068,86.068,0,0,0,8.7,9.5l23.6-7.6a44.755,44.755,0,0,0,13-7.4l-33.7-12.2-14.1,7.1C128.1,310.5,127.6,315.2,130.9,321Z" fill="url(#linear-gradient-2)"/>
    <g id="Group_948" data-name="Group 948">
      <path id="Path_12940" data-name="Path 12940" d="M144,324.8l1,.7.1-1.5Zm-1.3-3.5,1.5-.2-1-1.5Zm1-2.8,1.5-.2-1.1-1.5Zm-3.9,11-.3.9,1.3-.3Zm10.2-9.3.4.7.5-.8Zm-2.3-3.7.4.7.5-.8Zm-6.3,0,.5.7.4-.8Zm5.5-7.1-.3.6.7.1Zm-7,14.7-.5-.5-.2.7Zm-3.5,2.3-.5.8,1.1.1Zm-2.3-2,1.1.6v-1.4Zm3.8-6.8-.2,1,1.1-.2Zm11.3-.1.1,1.1,1-.6Zm-10.8,8.8.5-1.5-1.7.2Zm-2-3.8,1,.1-.4-1.2Zm8.4-14,.9,1,.5-1.3Z" fill="#ad5c49"/>
      <path id="Path_12941" data-name="Path 12941" d="M136,329.3l1.2.1-.5-1.3Zm6.9-2.9.2,1.3,1.1-.8Zm-5.1,4.6,1.5-.4-1.6-1.3Zm4.1-22.8.7.8.5-1Zm3.7,16.6-1.7,1.4,2.4,1.2Zm2.1-16.5-.4,2.9,3.4-.6Zm4.5,3.6-.6,3,3.2-1Zm-6.7,1.5,1.8-.4-.9-1.7Zm4-.7,1.8.1-.4-1.8ZM145.4,327l-.2.8.8-.1Zm.4-4.5-.3.8.9-.1Zm1.5,1.2-.3.8.9-.1Zm-4.7-5-.2.8.8-.1Zm1.5,3.6-.2.8.9-.1Zm1.8-.9-.3.7h.9Zm2.4-.1-.3.8h.8Zm1.7,1.2-.3.8h.9Zm2.8-.9-.3.7.8.1Zm2.6,0-.4.6.9.2Zm-.2-1.3-.4.7.8.1Zm1.4-.4-.4.7.9.1Zm-6.8,4.1-.3.8.9-.1Zm2.5.2-.6,1.1,1.6.1Zm-13.4-8.5.2.9.8-.7Zm6.2-4.9.7.7.3-1Zm-1-2.2-.3.7.9.1Zm13,7-2.2-1.7-.5,3.2Z" fill="#ad5c49"/>
      <path id="Path_12942" data-name="Path 12942" d="M159.3,317.2l-2.2-1.7-.5,2.7Zm3.3,2-2.4-1.6-.3,2.7Zm-20.5,6-.4.8,1,.2Zm.1-20.5-.7,1.8h2.4Z" fill="#ad5c49"/>
      <path id="Path_12943" data-name="Path 12943" d="M151.7,321.9l-1.5-1.4-.6,2.4Zm5.4-4.1-1.6-1.4-.6,2.3Zm2.8,1.8-1.6-1.4-.5,2.4Zm-4.8-4.2-2.1-.5.7,2.4Zm.6,9.9-1.4-1.6-.8,2.2Zm3.5-1.3-1.5-1.5-.8,2.3Zm4-1.3-1.9-.9-.5,1.8Z" fill="#ad5c49"/>
      <path id="Path_12944" data-name="Path 12944" d="M162.1,321.5l-1.4-1.5-.8,2.3Zm-21.8.2.4-.8h-.9Zm11.9-1.3.5-.6-.8-.2Zm-10.7,3-.1-.8-.7.4Zm2.5-9.3-.1-.8-.8.5Zm5.8,2.9.1-.8-.9.3Zm-11.1,11.5.8.4V328Zm-.8-8.1-.3,1.3,1.4-.3Zm8.7-4.1,1.2.2-.4-1.4Zm3.4-1.7,1-.2-.7-1Zm-2.2-2.5.1,1.3,1.2-.7Zm-6.9,16.2.5-1.4-1.6.1Z" fill="#ad5c49"/>
      <path id="Path_12945" data-name="Path 12945" d="M137.8,327.9l1.2.1-.5-1.3Zm1-10.4.2,1.2,1.1-.7Zm9.7-4,.3,1.8,1.5-1.1Zm-13.4,13.7-.1.9,1-.1Zm-1.9,3.9.5.8.7-.6Zm6.3-24.5.7.5.1-.9Zm4.2,4.7-.2-.8-.7.5Zm-5.3-1.4-.2-.7-.7.5Zm1.2,2.2.5.8.7-.7Zm3.7,17.2,1.8-.5-1.5-1.5Zm-2.2-1.4,1.1.1-.4-1.4Zm3.5-22.5L144,308l2.7-.6Zm-2-1.9L142,305l1.7-.2Zm-1.1,26.3,1.4-.5-1.2-1.2Zm6.6-5,.3,1.3,1.1-.9Zm-.9-2.7.2,1.2,1.1-.8Z" fill="#ad5c49"/>
      <path id="Path_12946" data-name="Path 12946" d="M148.2,319.3l.3,1.2,1-.8Zm-3.5.4.3,1.2,1-.8Zm1.4-1.6.3,1.2,1-.8Zm3.6,7.2.3,1.2,1-.8Zm1.4-2.4-.4,1.2,1.3-.2Zm3.2-.6-.6,1.3h1.6Zm2.9-1.3-.6,1.3h1.6Zm2.2,1.1-.5,1.4,1.5-.1Zm-8.1-5.9-.5,1.6,1.8-.3Zm1.2,10.1-1.2-1-.5,1.6Zm-3.7,1.3,1.7-.6-1.6-1.4Zm-2.4-1.3,1.2.1-.6-1.3Z" fill="#ad5c49"/>
      <path id="Path_12947" data-name="Path 12947" d="M147,327.9l1.3-.5-1.3-1.1Zm5.8-9.9.7,2.3,1.9-1.7Zm-10.4,6.3-1.1.5.9,1Zm10.5-3.8-1.2.4,1,1Zm10.3,0-1.2.1.7,1.2Zm3,1-2.1-1.4-.2,2.3Zm-9.5,2.2-1.2-.1.4,1.4Zm-2.6-.3h-1.2l.6,1.3Z" fill="#ad5c49"/>
    </g>
    <path id="Path_12948" data-name="Path 12948" d="M296.9,418.1c-3,0-3.7-3.8-3-8.5.5-3.5,2.4-7.5,1.2-11-1.6-4.5-9.9-24.8-20.1-48.4-8.3-19.2-11.3-34.6-13.2-43.3-1-4.4-23.8-39.5-23.8-39.5l38.7-11s11,25.4,13.7,34.2c3.6,12.2,7.4,36.3,12.4,57.5,6.2,25.8,11.2,48.8,14.1,52.7,1.9,2.5,12.9,12.1,23.9,17.1,5.9,2.7,8.3,4.5,8.4,7.4A8.066,8.066,0,0,1,348,430Z" fill="#e79a7a"/>
    <path id="Path_12949" data-name="Path 12949" d="M281.3,363.9c10.6-2,23.4-8.6,23.4-8.6l-2.9-12.8-2.7-12.9-29,7.3s3,8.5,4.6,11.7C276.7,352.7,278.5,359,281.3,363.9Z" fill="url(#linear-gradient-3)"/>
    <path id="Path_12950" data-name="Path 12950" d="M316.4,399.1c-3.6-5.5-12.6-47.7-22.9-95.8l-3.1-13.6c-.8-3.5-7.1-18.9-11.7-26.5-4.9-8-21-7.6-22.7-8.3h-.2v.1c.7,1.4-11.9,12-9.3,16.9,2.7,5.1,31.8,49.8,37.5,68s18.1,71.6,27.5,76.5c5.7,3,25.4,11.7,28,1C327.1,411.8,318.8,402.7,316.4,399.1Z" fill="url(#linear-gradient-4)"/>
    <path id="Path_12951" data-name="Path 12951" d="M239.3,270.7h0v0Z" fill="#fff"/>
    <path id="Path_12952" data-name="Path 12952" d="M239.3,270.6Z" fill="#fff"/>
    <path id="Path_12953" data-name="Path 12953" d="M142.3,301.9a.816.816,0,0,0-.2,1.2c4.9,4.7,34.2,31.6,72.1,34.6,46.1,3.7,79.8-4.1,89.5-6.7a2.981,2.981,0,0,0,2.2-3.6c-2.1-8.7-8.6-35.6-13.4-50.3-2.3-7.2-7.2-21.2-14.3-38.2l-13.4-31H195.3s.3,20.7-6.5,49.4a92.37,92.37,0,0,1-9.2,22.4c-1.4,2.4-31.7,19.1-37.3,22.2Z" fill="#575e90"/>
    <path id="Path_12954" data-name="Path 12954" d="M253.7,208h-1.5c1.5,12.8,3.8,31.5,6.2,46.2,4.1,24.9,10.8,81.8,10.9,82.4l1.5-.2c-.1-.6-6.8-57.6-10.9-82.5C257.4,239.4,255.1,220.8,253.7,208Zm35.4,107.7c-1.5-8-4.8-19.9-12-45.9l-.8-2.9c-4.9-17.5-10.3-42.7-13.6-58.8h-1.5c3.3,16,8.8,41.5,13.7,59.2l.8,2.9,12,45.8c1.5,8.1,3.6,17.4,3.6,17.5l1.5-.3C292.7,333,290.6,323.8,289.1,315.7ZM233.6,208l-1.5,67.8c-.7,36.5-13.1,61.6-13.2,61.8l1.3.7c.1-.3,12.6-25.6,13.4-62.5l1.5-67.9h-1.5Zm10.9,0H243l3,50.8.6,54.1c-.4,14.5-1.8,25.3-1.8,25.4l1.5.2c0-.1,1.4-11,1.8-25.6.4-14.8-.1-34.8-.6-54.1-.3-12.3-1.9-35.4-3-50.8Zm-44.3,71.1c7-16.1,10.8-52,12.4-71.1h-1.5c-1.6,19.1-5.4,54.6-12.3,70.5-9.5,22-43.1,35.43-43.4,35.63l1,1a111.388,111.388,0,0,0,17.72-9.22c9.1-5.7,20.9-14.9,26.1-26.8ZM221.6,208c-.2,14-.7,35.1-2,50.2-2.1,25.4-9.4,40.6-15.1,48.9a114.78,114.78,0,0,1-20.67,22.63l1.2.6A107.627,107.627,0,0,0,205.71,308c5.8-8.5,13.2-24,15.4-49.7,1.3-15.1,1.8-36.3,2-50.3h-1.5Z" fill="#8a90bc"/>
    <path id="Path_12955" data-name="Path 12955" d="M190.8,247.7s14.3-7.5,26-9.9c31.9-6.7,61.9,2.7,61.9,2.7L271.6,225c-2.9-5.8-7-17.1-7-17.1L195,208s-.4,12.3-1.5,20.8C192.7,235.9,190.8,247.7,190.8,247.7Z" fill="url(#linear-gradient-5)"/>
    <path id="Path_12956" data-name="Path 12956" d="M240.8,208.1l6.3,53.3c3.4,42.5,7.6,76.7,7.6,76.7s14-1,25.5-2.4c7.3-.9,19.5-4,24.3-5.3a2.06,2.06,0,0,0,1.5-2.5c-2.3-10-13.2-55-23.9-79.8L265,208Z" opacity="0.7" fill="url(#linear-gradient-6)"/>
    <g id="Group_949" data-name="Group 949">
      <path id="Path_12957" data-name="Path 12957" d="M180.8,280.9l.2.3.3-.4.3.1-.1-.3v-.1h-.1l-.1-.3.2.1.6,2,.8-1.3v.1l1.3-.8-1.4-.9.1.9-.8-.1.2-1.1h.6l1.7.7v-.6h.1l-.1-.1-.1-1.8-.7.7-.5-.7,1.8-1.5-2.7-1.3V276l-.7-.5-1.8,3.6.8-.2-.2.4h.2l-1.6,1.1,1.7.5Zm.3-1.8h0l-.2.2-.1-.1Zm1.5,6.9.7-1.8-2.3.2.6.6-.6.5,1,.4-.2-.8.8.9Z" fill="#7585bc"/>
      <path id="Path_12958" data-name="Path 12958" d="M183.2,275.1h.9v.9l1.2-.8v.8l.1-.1.2,1.6-.9.2.7.6.2-.7,1.4-1,.1.3.8-.9-.3-.1-1.2-.7.5-.3-.5-.3.7-.7-.7-.3h1l-.4-.6.5-.2-.7-.5-.1.4-.6-.8-.5-.6-.9-1.2v.1l-.1-.1-1.1,2.4-.5,1h.1l-.1.1.5.4.1.6-.5-.8.1,1.3Zm2.1-1.2v.6l-.8-.5v-.2Zm18.1-38.8.9.1-.3-.9-.6.8Zm-5,1h-.2l.2-.2-2.1-.8.7,2.3.7-.8.7-.5Zm-2.1,18.4-.2-1.6-1.4,1.1,1.6.5Zm-1.7,8.2v-1.6l-1.4,1.1Zm11.9-5.2v-1.6l-.3.2-1-.5.1,1,.9-.5-1.1.7,1.4.7Zm-6.2-11.7-1.4,1,1.4.6Zm-.8-2.2-.1-1.6-1.4,1Zm-5.9,25.6v-.4l.1.3,1.3-.9-1.5-.5v.2l-1,.8,1.1.5Zm1.9-37.4.1.2-.7.1.5.7.9-1.5.2-.4-.6.1-.4-.4v-.1l-.1.1-.2-.2.3-.2-.6-.2v.2l-.3-.9-.6,2.6.7-.2.8.1Zm.1-.5Zm-.9-2.5,1.1.5v-1.4Zm13.6,5.2-.7.3.4.3-.2.3h.7l-.2-.3Zm-11.4-1.1.2-1-.9.5Zm2.1-4.3,1-.1-.7-.7Zm15,3.2-.4.6.6.1-.2-.7Zm-1-2.9.5-.3-.6-.2Z" fill="#7585bc"/>
      <path id="Path_12959" data-name="Path 12959" d="M217.3,230.6l.5.4v-.6l-.5.2Zm-16.2-4.4.4-.8h-.8l.4.8Zm-5.5,25.4h0l.4,1.2,1.5-1.4-2.1-.8.3,1h-.1Zm6.5,4.9h-.9l.4.9Zm-9.5.3.3,1.1,1.5-1.3.1.6-.1.1.2.1v.1l.7.3v-.5l1,.4-.2-1.9-1.2,1-.7-.3.5-.5h-.1l1.1-.2-.9-.7-.2,1-.8-.3.3.9h.1v.2l-1.3-.6-.1-.2-.1.1-.6-.3.2.9-.1.2.4-.2Zm4.4-12.6-.6,1h.3l-.1,2.1.4-.3-.2.3h.1l.1.3-.2-.1.3,1.4.2-.1.5.1-.1-.4.8-.6-.8-.2.1-.2-.6-.2h.5l-.3-.7,1-.6-1.5-.8h.4l-.3-1Zm9,8.1h-1.2l.7.9Zm-1.2-5.3.9-.4-1-.4.1.8Zm-5.1,14v.8l.9-.4Zm-5.5-1.9h-1l.6.7Zm7.6-9.6.3-.6h-.8Zm-.5-4.6v.5l.5-.3Zm.2-7.1.1-.8-.6.2Zm1.8,2.8h.7l-.3-.4Zm-5.2-.7.2.6.4-.4-.6-.2Zm8.7-10.1-.6.2.5.5Zm-3.3,3.4.4-.4-.6-.2.2.6Zm-4.9-5.8.2-.7-.6.2.4.5Zm1.9,2.8h.6l-.3-.4Zm.4-6.9-.3.4h.5Zm-3.9,0-.5-.2.1.5ZM213.9,239l.6-.4-.6-.3Zm-3.3,5.2-.6.1.5.4Zm-3.6-5.3-.2.5h.6l-.4-.5Zm3.1,15.7.5-.1-.4-.4Zm-1.7-5.6.4-.5h-.6l.2.5Zm-8.7,7.9.3-.1-.7-.7-.3,1.1.4-.2-.5.5-.5-1-.7,1-1-.4.7,2-.3.3-.1-.2-.6.8h1l-.1-.2h.5l-.2-.5L199,258l1.5.1-.8-1.2Zm-1.1,1.1Zm-5.5,12.7,1-.6-1.7-1-.2,2.3.9-.7.4,1.6,1.1-1-1.5-.6Zm-3.5,4.4-1.3-.5,1.7-1.2h-.1l.4-.3.1.2.7-.6-1-.4.1.6-.5-.3-.1.7-1.5-.8-.2,2.3.1-.1.4,1.4.3-.3.4,1.5,1.4-1.4-1.4-.5.5-.3Zm5.6-4.1.1-.6-.6.3.5.3Zm8-14-.9,1,1.4.1Zm-5.3,5.5-.2-.3-.6.8h.6l.1.5.7-.6Z" fill="#7585bc"/>
      <path id="Path_12960" data-name="Path 12960" d="M196.4,253.6l.8.6.2-1.1Zm2.7-20.8-1.2.1.5.9Zm3.8-3.7-.3-.9-.6.6.9.3Zm1,6.7-.1.9.9-.5-.8-.4Zm-9.9,1.3.5-.6,1.6-.4-.8-.7.2.1V235l1.2.5v-.1l.8-.6-.9-.4v-.7l-1.1.9v-.4l.3-.2-.5-.1.6-.5-1.6-.6.2,1h-.1l.1,1.1-.2.2-.7-.6-.5,2.6.5-.1Zm6.2,1.7-.2-.5-.5,1h.4v.3l.4-.2h.1v-.1l.3-.2Zm-.3-2.5-1,.6,1.2.4Zm-.3-4.8-.3-1-.6.6.9.4Zm1.8,2.5-.1,1,.9-.5-.8-.5Zm-3.7-3.4-.4-1.1-.6,1Zm.4-5.3.1.9.8-.5-.9-.4Zm8.3-1-.6.3.6.5Zm-8.5,1.8-.1-1-.7.7Zm-.7-5.8v.7l.8-.3Zm5.6,4.7.2-.8-.7.2Zm-1.4,4.4-.1,1,.9-.5-.8-.5Zm-11.8,56V284l-1.1.9Zm-1.1,1.2v-1l-.8.6Zm.4-5.8-.1.7.8-.2Zm4.3,5,.4.7.3-.7Zm3.9-1.1.4-.8h-1Zm-5.4-1.2.7.1-.2-.8-.5.7Zm4.9-4.3.7-.4-.7-.3v.7Zm1.9-1.3.4-.8h-1Zm-4.7-1-.2-.8-.5.6.7.2Zm4.3-5.1v.7l.7-.4-.7-.3ZM185.7,286l.4-.7-1-.1.6.8Zm-1.1,2.2-.1-.8-.5.6.6.2Zm1.2-7.3-.1-1.1-1.9,1.3.4.1,1.2.5v-.1l.6.2v-.3l.5-.3-.7-.3Zm-.9,3.1-.2-.8-.5.6.7.2Zm-1.7,3.1h.7l-.3-.8Zm3.7,2.6.9-.3-.8-.5-.1.8Z" fill="#7585bc"/>
      <path id="Path_12961" data-name="Path 12961" d="M189.6,285.8l-.2.7-.3-.1.3,1.1.7-.6-.4-.1.7-.2Zm5.5-21.5-.5.4,1.6.7v-1.1l.3.1.8.6.3-1.2-.4.2-.4-1.4-.7.9-.2-.3-.3.4-.3-.7-.3.6v-.1l-.6.6.7.3Zm.1-.3-.1.1h.3l-.2.2-.1-.3h.1Zm-18,19.8,1.8,1.8,1.8-2.9.2-.1-.2-.4.3-.4-.4-.1-1.4-1.1-1,1.8,1.2.3-2.3,1.1Zm20.6-28.1-.2-1.9-1.5,1.3,1.7.6Zm-2.9,21.6-.4.3h-.1l-1.1.9,1.6.6V278l.8.8.5-1.5Zm-.8-9.7.1-1.3-1.1.8Zm.5-7.1,1.1-.2-.9-.7-.2.9Zm6.5,7.1.5-1.1-1,.1Zm5.4-3.7h-1.3l.8,1.1Zm-7.2-1.5-.7.9,1,.2Zm7.4,16.7.6-1.1H206l.7,1.1Zm-6.7-2.5-.7.9,1,.2Zm6.3-5,1-.4-1-.5Zm-11.1,19.8,1,.2-.2-1.1Zm7.1-5.9,1-.5-1.1-.5Zm-1.8,3.6.5-1-1.3-.1Zm-7.5-1.6,1,.2-.3-1.1Zm6.9-5.8,1-.5-1-.5Zm-3.4-4.9-.5-2.4-1,1.1-.2-.4-.8,1h.5l-.1.1,2.1.6Zm4-3.9-1-.5v1Zm-10,7.8-1-.4.3,1.1Zm6.9-14.1-.8,1.1H198l-.6-1.1Zm-5.8-2.9.2-1.1-1,.6Zm-5.2,21.2,1-2.1-1.9.1Z" fill="#7585bc"/>
      <path id="Path_12962" data-name="Path 12962" d="M188.5,278.7v-.5l-.7.6h-1.1l1,2,.6-1.3.2.1V279l.1-.3h-.1Zm13.4-19.6h-1.3l.9,1.1.4-1.1Zm1.5,2.2,1,.2-.3-1.1Zm-18.8,8.4,2.3-.2.4.1v-.1l.4-.1-.3.3-.8.1.3.3-.1.1.5.2.2.2-.6.5.3.1.5.5-.1.1.8.5.2-1.1-.4.2.1-.4h-.2l.1-.3h.1v-.3l.3-1.1-.4.1v-.2l.6-.1.2.6.9-.8h.2l-1.3,1.1,1.6.5-.1-1.8.3-.5.5-.5-.5-.2,1.7-.2-1.5-2.6L190,267l-.1-.4.6-.8-.6-.1v-1l1.1-.1.4.2.1-.8-.5.3-1.3-1.2,1-.9.2.2.3-.4.4,1.4-.2-.1.3,1.4.1-.1.1.3,1.8-2-2.7-1,.3-.5-1.2.1-.5-.2v-.2l-.1.1-.4-.2,2.2-.5.2.9L193,260l-.7-.3-.5-1.9-.3.3v-.8l-1,.9v-.7l.9-.8-1.7-.6,1.2-.2-.1.2.9-.3,1.5-.3-.5-.4,1.5-1.4-.3-.1,1.3-1.3-.5-.2.5-.5-2-.8.2.9-.1-.1v.1l-.5-.2.1-.1-1.7-.6,2.1-.4.8.9.4-.9h-1.1l1.1-.2-1.2-1.2.1-.3.3.2.2-1.1-.4.2.1-.4-1.1.2.5.5-.2.1.3.2-.2.1-1.3-1.7-.7,3.5-.5,1.8.8-.3.2,1,.5-.5.3.3.2-.8.1-.1.2.8h-.4l.6.7v.1l-.9-.4.3,1.1-1.4-.3-.2-.5-.4-.6-.9,3.7.4,1.5-.5.4-.2-.7-.8,4,.7-.2.1.5-.4.3-.9-.3-1.1,3.3.8.1.3,1-1.3-.5-1.9,3.8ZM192,254l.3,1.1-.8-.7.5-.4Zm-1.9,4.7-.2.1.9.4-.2.3-1.3-1.2.8.4Zm-1,4.1h0l-.1-.1Zm-.5,2.3h.3l-.5.4Zm-.3,1.9.5.2.3.6.3-.4.4.1-.1.3h.6l.1.5-.8.1-1.3-1.4Zm-1.1-1.7.6-.1.3.3H188l.1.2-.9-.4Zm9.9,5.7-.2.2-.4-.2v.4l-.5.6h1.1l-.1-.3h.6l-.5-.7Zm2.6-2.7-1.2,1.4,1.9.1Zm-8.5,10.2-.1-.2-.1.1-.5-.2.5-.2-.9-.8-.4,1.3.8-.3.1.6-.4.5h.5l.3,1.1,1.5-1.3-1.3-.6Zm6,2.4-.8.5.6.4Z" fill="#7585bc"/>
      <path id="Path_12963" data-name="Path 12963" d="M202.6,269.8l1.6.1-.6-1.2Zm-4.4,4.9-.8-.4-.2-.4-.2.2-.5.6h.7l.1.6.9-.6Zm-3.5-24.5,1.9-1.4-1.7-.9-.2,2.3Zm5.9-8.8-.2-1.9-1.5,1.2Zm10.9,13.3.5-1.1h-1.3Zm-6.8-2.3-.7.9,1,.2-.3-1.1Zm7.1-5.6-1-.5v1Zm-11.2,3.5-.9,1-.2-.3-.3.4v-.1l-.2.2-.4-.7-.7.9h1l-.3.3.7.1,1.8.3-.5-2.1Z" fill="#7585bc"/>
      <path id="Path_12964" data-name="Path 12964" d="M204.1,249.3l1-.5-1.1-.5Zm-3.1,4-1.8.2,1.2,1.3Zm-2.6-8.3,1.3-.9-1.5-.5Zm4-3.1h0v-.4l-.8.3.5.5-.5.7H203l-.6-1.1Zm-6.5-3.1.2,1.1,1.5-.9-1.1-.3.1-.6-.7.4-.2.1Zm-3.8,3.3-.9,3.7.7-.1-.1.6-.1.1-.1.3.5-.1,1.1.5v-.7h.1l-.1-.1v-.7l1.2-.2.3.3-.8.6.5.2.8.6v-.3l.4.2v-1.5l.2-.3h-.2v-.1l-.1.1-.4-.4,1.1.2-.3-1.1,1.7-.2-1.4-2.7-.7,1.4v-.1l-1.2,1.6-.8-.8.5-.5h.1l.4-.3.4.2v-1.3l.1-.1h-.1V241l1.6-.3-1.8-1.5.1-.1v.1l1-.9.1-.2.3-.3h-.1l.2-.4-.9.1-1.3-.5.6,1.8-.5-.2v.1l-1-1-.9,3.7,1.8-.4v.1l-.7.5-1-.4.2.8v.1h-.5Zm3.2,3Zm-2.6.5-.1.1-.1-.1h.2Zm8.9,1.3-.4.5-.1-.2-.6.8h1.1l-.2-.3h.6l-.4-.8Zm2.6-2.8-1.3,1.4h1.9l-.6-1.4Zm2.9,1.5h1.6l-.6-1.2Zm-4.3,4.8-.8-.4-.2-.4-.2.2-.5.6h.7l.1.6.9-.6Zm-1.2-9.8.7-.5-.5-.2v-.1l-.2.1-.1-.1v.1l-.9.4.9.7Zm-4.4-17.1-1.1.2.9.8.2-1Z" fill="#7585bc"/>
    </g>
    <g id="Group_950" data-name="Group 950">
      <path id="Path_12965" data-name="Path 12965" d="M278.9,274.9l-.2,1.1,1-.2Zm-.5-4.3,1.5.7v-1.5Zm14.5,15.3,1.9.3-.4-1.6Zm-1.4-3.3,2,.3-.5-1.6Zm-6.2-16.1,2,.2-.5-1.6Z" fill="#363e66"/>
      <path id="Path_12966" data-name="Path 12966" d="M286.4,267l1.7.2-.5-1.4Zm7.9,28.2,1.7,1.1.3-1.7Zm-7.4-5.9,1.7,1,.3-1.6Zm.5-10.4,1.8.9.2-1.6Z" fill="#363e66"/>
      <path id="Path_12967" data-name="Path 12967" d="M288.9,277.5l1.7-.9-1.2-1.1Zm-5.7-7.3,1.7-1-1.3-1.1Zm5.4,11.5,1.7-.9-1.2-1.1Zm-10.3-25.5,1.8-.9-1.3-1.1Zm7.8,19.4,1.8,1,.1-1.7Zm-1.6-12.5,1.5.6v-1.4Zm-3.6-11.3,1.4.7v-1.4Zm-.3,2.7,1.5-1.7-2-.5Zm2.8,3.7,1.5-1.7L283,256Zm-2.7-2.4,2.2-.3-1-1.6Zm7.6,16.7.3,1.9,1.5-1Zm2.2,22.1v1.9l1.6-.8Zm6.5,4v1.9l1.6-.7Zm-4,4.7.1,1.9,1.6-.8ZM284.9,287l.1,1.9,1.6-.8Zm-17.1-44.8.2,1.9,1.5-.9Zm17.6,40.4.1,1.8,1.6-.8Zm12.8,20.7v1.9l1.6-.7Zm2.3,10.1.1,1.6,1.3-.6Zm1-3.4-1,1.3,1.3.3Z" fill="#363e66"/>
      <path id="Path_12968" data-name="Path 12968" d="M294.6,311l.1,1.6,1.3-.6Zm5.9.3V313l1.3-.7Zm-12.9-42.7.3,1.6,1.2-.8Zm-2.3-.8.3,1.6,1.1-.8Zm-8.8-13.2h.9l-.3-.8Zm11.5,18,1.4.7.1-1.5Zm-4.3,1.7,1.8.9v-1.7Zm-10.7.3.6-.7-.8-.2Zm14.3-1.6-1.1.7.9.6Zm-.7-2,.4,1.1.7-.7Zm-4-3.4,1.1-.1-.4-.9Zm5.6,19.8-.5,1.2,1.2-.1Zm5.8,10.2-.5,1.2,1.3-.1Zm-5.5-12.8-.5,1.3,1.3-.1Zm1.5-6.6,1,.6.1-1Zm.4,2.6,1,.6.1-1Zm-8.5,2.6.9-.8-1-.3Zm8.6,4.3.9-.8-.9-.3Zm2.7,3.2h-1.4l.5,1.1Zm1.6,2.7h-1.3l.5,1Z" fill="#363e66"/>
      <path id="Path_12969" data-name="Path 12969" d="M301,308l-1.5-.7.6,1Zm-5.1-19-1.3,1.5,1.8.5Zm.9,3.1-1.4,1.5,1.9.5Zm-6.5-4.8.7,1.9,1.3-1.3Zm1.1,5,.7,2,1.2-1.4Zm-4.9-16.1.7,1.9,1.3-1.3Zm-2.6-9.7.9,1.8,1.1-1.4Zm-4.1-8.5.7,1.9,1.3-1.4Zm6.2,46.1,1,.4v-1Zm10.2,10.4-.4-1.1-.7.7Zm-1.8-13.6-1.1.1.4.8Zm5.9,4.9-.4-1.1-.7.7Zm-4.1-8.3-.4-1.1-.8.7Zm4.8,10.6-.8,1,1.1.2Zm-18.3-30.2.5-.7-.7-.2Zm-1.8,3.4-.5-.5-.3.5Z" fill="#363e66"/>
      <path id="Path_12970" data-name="Path 12970" d="M286.8,280l-.7.3.5.4ZM284,265.9l.5-.7-.8-.1Zm-1.6,3.7-.5-.6-.2.6Zm5.8-1.8-.6.3.5.4Zm-6-8.6.4-.6-.6-.1Zm-1.4,3-.4-.5-.2.5Zm4.7-1.2-.5.2.4.4Zm-11.6,36.4-.5.6.6.1Zm1.1-6.3.5.5.3-.6Zm13.5,2.5-.9-.9-.5,1Zm5.1,3.8-1.1.5.8.6Zm-.2-8.9.2,1.1.9-.6Zm3.8,28.4-.1-1.1-.9.5Zm3.1.2-.1-1.1-.9.6Zm2,1.9-.9-.1.2.8Zm-1.3-9.8-.3.8h.8Zm-5-2.4.2.8.7-.4Zm-5.9-4.2-.7-.7-.4.8Zm.8-11.2-1.3-1.3-.7,1.5Zm-.8,14.2-.7-.9-.5.9Z" fill="#363e66"/>
      <path id="Path_12971" data-name="Path 12971" d="M290.6,302.9l-.7-.8-.4.9Zm4.9,11.3-1.7.9,1.3,1.1Zm8.7,7-1.2,1.5,1.7.4Z" fill="#363e66"/>
      <path id="Path_12972" data-name="Path 12972" d="M303.7,319.4l-1.1,1.5,1.6.4Zm-4.6-1.5-1.7.8,1.3,1.1Zm2.4.4-1.8.8,1.3,1.1Zm-1.8-7.1-1.7.8,1.3,1.1ZM289.6,275l1,.9.5-1Zm-5.1-3.6,1.1-.5-.8-.6Zm.3,8.9-.2-1.1-.8.6Zm.7-3.4-1.3-.4v1.1Zm6.2,1.3-.7.9,1,.2Zm-4.2-7.9.7.9.5-.9Z" fill="#363e66"/>
      <path id="Path_12973" data-name="Path 12973" d="M286.8,269.7l.9,1,.5-1.1Zm-5-3.8,1-.5-.8-.6Zm.5,9.2L282,274l-.8.6Zm-3.7-22.3-.3,1.3,1.2-.2Zm-.1-6.3,1,.5.1-1Zm-7,5.8.8-.8-.9-.3Zm8.8,12.9-.2,1,1-.2Zm0-5.2.8.4v-.9Zm-5.9,4.8.6-.7-.8-.2Zm8.9-3.8.8,1.1.5-1.1Zm-5-3.8,1.1-.5-.8-.6Zm.3,9.2-.3-1.1-.8.6Zm26.9,59.9-.3-.9-.6.6Zm-27.7-85.6-.2,2.4,2-.7Zm-3.4-4,2.8.2-1-2.2Zm1.8,3.9h2.6l-.9-2.2Z" fill="#363e66"/>
      <path id="Path_12974" data-name="Path 12974" d="M279.9,250.6h2.7l-.9-2.5Zm2.2,5.4h2.6l-.8-2.5Zm-3.7-10,2.6.3-.6-2.2Z" fill="#363e66"/>
      <path id="Path_12975" data-name="Path 12975" d="M278,244.9h2.6l-.9-2.1Zm1.3,4.1,2.7-.1-1-3Zm2.1,4.9H284l-1.2-3Zm8.4,28.5-.5,2.9,2.5-.7Zm-15.3-33.2-.4,2.9,2.5-.8Zm2.1,8.1-.2,1.8,1.5-.5Zm6.5,5.9-.2,1.8,1.6-.5Zm-1.9-1.8-.1,1.9,1.5-.6Z" fill="#363e66"/>
      <path id="Path_12976" data-name="Path 12976" d="M287.5,263.1l-1.5,2.5,2.5.3Zm2.3,6.7-1.6,2.4,2.5.4Zm-1.2-3.3L287,269l2.6.3Zm2.1,6.2-1.6,2.5,2.6.3Zm1.3,2.9-1.8,2.4,2.5.5Zm.9,3-1.8,2.4,2.5.5Zm-1.9,3.7.6,2.9,2.1-1.6Zm3.2,8.4.6,2.8,2-1.5Zm.8,3.9.6,2.9,2.1-1.6Zm.2-8.2-1.8,2.3,2.5.6ZM286.5,260l-1.6,2.4,2.5.4Zm13.9,48-2.8.8,1.7,2Zm-5-8.3-.5,2.9,2.5-.7Zm7.7,23-.5,2.9,2.5-.6Zm2.5,4.6-1.3,1.8,1,.2ZM303,326l-.4,2.3,1.9-.5Zm-26.3-89.2-.8,1.4,1.4.1Zm6,40.2-1,.6.9.6Zm3.7-4,.4,1,.6-.7Zm-7.9-.5.9-.2-.4-.7Zm-2.4-17.9.5-.7-.8-.1Zm-1.7,3.6-.5-.5-.2.5Zm5.9-1.6-.7.3.5.4Zm-6-8.9.4-.6-.7-.1Zm-1.3,3.1-.4-.5-.2.5Zm4.7-1.4-.6.2.4.4ZM264,217.1l.8,1,.5-1Zm-4.8-4,1-.4-.7-.7Zm-.1,9.2-.2-1.1-.8.6Zm8.5,2.5-.3,1.1,1-.2Zm.3-5.1.8.4v-.8Zm-6.2,4.5.7-.7-.8-.2ZM275.5,250l.8,1.1.5-1.1Zm-4.9-3.8,1-.5-.8-.6Zm.2,9.1-.3-1.1-.8.6Zm3.9,7.5-1,.6.8.6Zm3.8-3.8.3,1,.6-.6Zm-7.9-.8.9-.1-.4-.7Zm2.9-21,1.3,1.6.8-1.6Zm-2.3-7.2,2.9-.2-1.2-2.7Zm1.4,2.9,2.8.1-1-2.5Zm-.8,10.5-.5-2.9-2.2,1.5Zm-.4-6.3-.1,1.1,1-.4Zm-1-5.3.9.2-.1-.8Zm-5.1,6,.4-.8-.8-.1Zm.6-4.6,1.4-.1-.6-1.1Zm-2.3,1.1,1.7.2-.5-1.4Zm5.1-2.6-.8.4.6.5Z" fill="#363e66"/>
      <path id="Path_12977" data-name="Path 12977" d="M267.5,231.1v1.3l1-.5Zm1.8,1-.6.6.7.3Zm2.5-3.6.4.7.4-.6Zm-6.4.5.8-.2-.5-.5Zm2.8,5.6.7-.1-.4-.5Z" fill="#363e66"/>
      <path id="Path_12978" data-name="Path 12978" d="M269.1,234.2l-1.2.2.6.9Zm7.7,16.6.2,1.2.8-.6Zm-2.1-4.9h1l-.3-.8Zm-3.8,7,.4-.9-.9.1Zm-5.1-2,.2,1,.7-.5Zm-.2-19.7,2.1-.2-.9-1.7Zm4.2-1.1.7-1.9-1.8.1Zm3.1,1.8.7-2-1.8.1Zm2.4,3.3-.5-2.1-1.5,1.1Zm-1.9-2.5-1.7-1.3-.4,1.8Zm1.1,4.3-1.7-1.3-.4,1.8Zm-4.2-5.2-1.7-1.3-.4,1.9Zm.8,2.3-1.7-1.3-.4,1.9Zm-2.2,4.7.7-2-1.8.1Zm2.3-15.8-.9-1.7-1,1.3Zm-2-4.3-.9-1.7-1,1.3Z" fill="#363e66"/>
      <path id="Path_12979" data-name="Path 12979" d="M266.5,215.1l-1.4-1.1-.5,1.5Zm3.6,5.6-1.4-1.2-.4,1.6Zm5.1,24.4.6-1.6-1.4.1Zm3.7,5.7.6-1.6-1.5.1Zm-2.9-2.9h1.7l-.6-1.3Zm-.6-7.4-1.9-.9v1.8Zm-1.6-1.6-1.9-.9-.1,1.9Zm1.1-3.1-1.6-1.3-.5,1.8Z" fill="#363e66"/>
      <path id="Path_12980" data-name="Path 12980" d="M276.4,239.7l-1.3-1.6-.9,1.6Zm1.4,1.6-1.9-.9v1.8Zm1.7,7-1.4-1.5-.7,1.7Zm4,8.9-1.5-1.5-.7,1.8Zm2.4,3-1.5-1.4-.7,1.7Zm-2-.2-1.2-1.1-.5,1.3Zm-2.5-3-1.1-1.1-.5,1.3Zm2.2,5.6-.1-1.6-1.3.7Z" fill="#363e66"/>
      <path id="Path_12981" data-name="Path 12981" d="M281.1,255.2v-1.6l-1.3.7Zm-3.2-5.7-.1-1.6-1.2.7Zm-5-8.9-.1-1.6-1.3.7Zm7.7,11.3-1.5-1.5-.7,1.8Zm-11.7-17.6-1.1-1.7-1,1.5Zm17.3,25.3-.7-2-1.3,1.3Zm8.4,25.2-.7-2-1.4,1.3Zm-.2,2.9-.7-2-1.3,1.3Zm2,11.8,1.9.3-.4-1.6Zm-1.1-3.4,2,.3-.5-1.6Zm1.8,8.5h-1.3l.5,1.1Zm1,2.5-1.4.1.6,1Zm1.3-4.6-1.3,1.5,1.9.6Zm.9,3.1-1.3,1.6,1.8.4Zm-5.3.5.7,1.9,1.3-1.4Zm-2.9,1.4-.9-1-.5,1.1Z" fill="#363e66"/>
      <path id="Path_12982" data-name="Path 12982" d="M297.1,311.3l-1,.5.7.6Zm-.3-9.1.3,1.1.8-.6Zm-1.9-6.3.6,2.9,2-1.6Zm3.1,8.3.7,2.9,1.8-1.4Zm.7-4.4-1.8,2.4,2.6.6Zm3.7,14.7-1.8,2.5,2.6.5Z" fill="#363e66"/>
      <path id="Path_12983" data-name="Path 12983" d="M301.9,312.3l-1.4,1.9,2,.4Zm1.3,5.1-1.4,1.9,2,.4Zm-4.9-18.8-.6-2.4-1.3,1.5Zm-.1,2.5-.7-2-1.3,1.4Zm-19.3-57.5-1.9-.9v1.8Zm-1.8,3.1.3-2.1-1.8.5Zm-1.9-3.1.2-2.1-1.8.5ZM266.7,219l.2-1.5-1.2.4Z" fill="#363e66"/>
      <path id="Path_12984" data-name="Path 12984" d="M274.5,248.8l.1-1.4-1.2.4Zm-3.7-2.6,1.2-.9-1.1-.6Zm-.7-2.1.9-.6-.8-.5Zm5.1,3.3.9-.6-.8-.5Zm1.9-1.4.8-.5-.8-.5Zm-3.4-3.8.8-.6-.8-.5Zm-3.1-5.7.7-2-1.9.2Zm-1.9-8.6-1.7-1.3-.4,1.9ZM262,212.6l-1,.4.7.7Zm-5.5,3.7-.7.7.8.3Zm10.1,28.8.8-.3-.5-.5Zm-10.8-19.9.2,1,.7-.5Zm-1.5-4.2.8.1-.2-.7Zm-3.4,5.7.3-.8-.7.1ZM272.8,244l.2,1.2.8-.6Zm-2-5,1,.1-.3-.9Z" fill="#363e66"/>
      <path id="Path_12985" data-name="Path 12985" d="M266.9,245.9l.3-.9h-.8Zm.1-6.3-.8.8,1,.3Zm2.5,9.6.6,1.8,1.3-1.2Zm2.6-21.6-1.7-.9-.3,1.6Z" fill="#363e66"/>
      <path id="Path_12986" data-name="Path 12986" d="M266.4,246.2l1.5.4-.2-1.5Zm-.1-22.3,1,.9.3-1.2Zm-5.5-2.9.9-.6-.9-.5Zm1.9,9-.5-1-.6.7Zm-6.6-7.1.5.8.5-.7Zm-2.8-3.3.7-.2-.4-.5Zm-1.1,6.4v-.8l-.6.3Zm14.2-10.9.4,1.1.7-.8Zm-3-4.5.9-.1-.4-.8Zm-2.4,7.6.2-.9-.9.2Zm-2.5-2.8,1.6-.4-1-1.2Zm9.5,26.7-.9.7.9.5ZM267,214l-.9-1.9-1.2,1.4Zm4.3,34.4-.1-1.5-1.2.7Zm-3.1.4-.9.7.9.5Zm-9.3-24.1-.6.8.9.1Zm10.3,27.7.7-.4-.6-.4Zm5.5-2.5.5,1.1.7-.7Z" fill="#363e66"/>
      <path id="Path_12987" data-name="Path 12987" d="M271.8,245.4l1-.1-.5-.7Zm-2.4,7.6.1-.9-.8.2Zm-1.2-6.2-.7,1,1.1.1Zm-12.4-31.6.7-.4-.5-.4Zm20,45.3.7,1.7,1.3-1.2Zm-5.2-2.3-1.7-1-.2,1.7Zm2.2-1.4,1.6.4-.3-1.5Zm4.8,7.1,1.1.8.2-1.2Zm-5.7-2.5.9-.7-.9-.5Zm2.4,8.8-.5-1-.6.8Zm-9.4-34,.5.8.5-.7Zm-3-3.1.8-.3-.5-.5Zm-.8,6.3v-.8l-.7.3Zm6.3,23.2.5.8.5-.7Zm-2.9-3.2.7-.2-.5-.6Zm-.9,6.4V265l-.7.3Zm13.6-11.3.4,1,.7-.7Zm-3.1-4.5.9-.1-.4-.7Zm-2.2,7.7.1-1-.8.3Zm-5.2-33.4.4,1.1.8-.7Zm-3-4.5,1-.1-.5-.7Zm-2.3,7.6.1-.9-.8.3Zm8.2,27.7,1.6-.6-1.1-1.1Zm4.9-2.4-1,.7,1,.5Zm1.8,3.6.3-2.1-1.8.5Zm1.4,2.7-.1-1.5-1.1.7Zm-3.2,1.1-.9.7.9.5Zm-4.3,5-.5.9h.9Zm5.2-1.6.7-.4-.6-.4Zm5.8-3,.4,1.1.8-.7Z" fill="#363e66"/>
      <path id="Path_12988" data-name="Path 12988" d="M278.2,256l1-.1-.5-.7Zm-2.3,7.6.1-.9-.9.2Zm-1.3-6.2-.6,1,1,.1ZM264.5,226l.6,1.8,1.4-1.2Zm5.5-1.8-1.7-1-.3,1.6Zm-4.9-3.7,1.6.4-.2-1.4Zm-5,7,1.1.9.3-1.2Zm-5.5-2.8.9-.7-.9-.5Zm1.9,8.9-.4-1-.7.7Zm7.1,7.1.4,1.1.7-.8Zm-3-4.5,1-.1-.5-.8Zm-2.3,7.6.1-1-.8.3Zm6.6,9.4.5,1.1.6-.8Zm-3.1-4.4.9-.2-.4-.7Zm-2.1,7.6.1-.9-.9.3Zm-2.4-39.6-1,.7.9.5Zm13.2,9.5,2.1-.1-.8-1.7Zm-10.1-3.1-.1-1.5-1.2.6Zm-3.1.3-1,.7.9.5Zm-4.9,4.9-.5.8.8.1Zm5.5-1.4.7-.4-.5-.4Zm5.9-2.2.4,1.1.7-.7Z" fill="#363e66"/>
      <path id="Path_12989" data-name="Path 12989" d="M260.9,220.2l1-.1-.4-.7Zm-2.5,7.6.1-1-.8.2Zm21,45.8-1,.6.9.6Zm3.7-4,.3,1,.6-.7Zm-8-.5,1-.2-.4-.7Zm.4-5.4,1.1.8.2-1.2Zm-5.7-2.6.9-.7-.9-.4Zm2.4,8.9-.5-1-.6.7Z" fill="#363e66"/>
      <path id="Path_12990" data-name="Path 12990" d="M268.1,222l-1.6-1-.3,1.6Zm14.2,52,1.1.8.2-1.2Zm-5.7-2.6.9-.7-.9-.4Zm2.4,8.9-.5-1-.6.7Zm-7.8-11.5.6.8.4-.7Zm-3.1-3,.7-.3-.5-.5Zm-.5,6.4-.1-.8-.6.4Zm9.1,11.3.5.8.5-.6Zm-2.8-3.4.8-.1-.5-.6Zm-1.2,6.4v-.8l-.6.3Zm8.9-21.3.5,1.1.6-.8Zm-3.3-4.3,1-.2-.5-.7Zm-1.9,7.7.1-.9-.8.3Zm1.2-3.9.5,1.1.7-.8Zm-3.2-4.3,1-.2-.5-.7Zm-1.9,7.7.1-.9-.8.3Zm2.1,7.1-.5.9h.8Zm-5.1-7.6,1.1.8.2-1.2Zm-5.6-2.6.8-.6-.9-.5Zm2.4,8.9-.6-1-.6.8Zm6.7-9.8.4,1.1.7-.7Zm-2.8-4.7h1l-.5-.8Zm-2.7,7.5.2-.9-.9.2Zm-2.3-45.1-.8.8.9.4Zm4.6,16.1-.8.8.9.4Zm-4.5-9.1-1.2.8,1.1.7Zm5.8,6,.3.9.7-.6Z" fill="#363e66"/>
    </g>
    <g id="Group_951" data-name="Group 951">
      <path id="Path_12991" data-name="Path 12991" d="M239.8,212.8l.2,1.4-1.5-.4Zm2.1-3.2.2,1.4-1.5-.4Zm-5.5.5h-.9l.4-.9Zm5,5.2-1.3.9-.3-1.9Zm4.2-5.4-1.4.9-.3-1.8Zm3.5-.5-1.4.9-.2-1.9Zm-7.6,0-1.4.9-.3-1.8Zm-.6,2.1-1.4,1-.3-1.9Zm2.9-.2-1.3.9-.3-1.8Zm-7.3.1-1.4.9-.3-1.8Zm1.9-.4-1.4.9-.3-1.8Zm17.6,2.3-1.4.9-.3-1.8Zm-5.9,1-.4-1.6,1.8.3Zm2.7-1.2-.4-1.6,1.8.3Zm-7,.6.3,1.4-1.6-.4Zm-7.7,0,.3,1.4-1.6-.5Zm17.1,1.6.2,1.4-1.5-.4Zm-7.3-2.3.2,1-1.1-.2Zm-6.3,0h.8l-.4.9Zm4.3,6.7.2-.8.7.6Zm-2.1,3.3-.9.2.2-1.1Zm.1-6.4-.1.9-.8-.4Zm-6.7,4.3.7.2-.5.7Zm17.8,5.3-1,.2.3-1Zm0-6.3v.8l-.8-.4Zm-6.7,4.3.8.2-.6.7Zm19.7.6-.9.4v-1.1Zm-1.6-6.2.2.8-.8-.2Zm-5.4,5.8.8.1-.3.8Zm1.3-1.4-.9.3.2-1.1Zm.1-6.2v.8l-.8-.5Zm-6.8,4.2.8.2-.6.7Z" fill="#2e345b"/>
      <path id="Path_12992" data-name="Path 12992" d="M264.8,215.5l-.3,1-.8-.8Zm-5.3-3.3.7.4-.8.5Zm.1,8,.5-.6.3.9Zm-4.6-4.4v1.8l-1.8-.9Zm-4,3.3.8.2-.6.7Zm5.9-2.4-.4-.9h1Zm-4-.1-.7-.7.9-.4Zm5.2-3.6-.7.5-.1-.9Z" fill="#2e345b"/>
      <path id="Path_12993" data-name="Path 12993" d="M250.8,209.9l.2.8-.8-.1Zm4.2,7.4-1.3.1.5-1.4Zm1.3-8.4-.2,1.1-1-.7Zm-9.7,4.5,1,.4-1,.8Zm12.2,4.5-1.1-.5,1.1-.8Zm5.1-5.8-.6.7-.5-1Zm-9.7-1.5.5.9-1.1.1Zm-6.8,6.4-.7-.6,1-.5Z" fill="#2e345b"/>
      <path id="Path_12994" data-name="Path 12994" d="M252.6,213.4l-.7.5-.1-.9Zm-7.4-3,.3.8-.9-.1Zm2.3-1,.2,1.4-1.5-.4ZM249,211l-.7,2.1-1.8-1.6Zm-2.6,1.2-1.8,1.1-.4-2.4Zm9.1-.7-1.9,1.1-.3-2.4Zm4.7.1-1.9,1.1-.3-2.4Zm.8,1.1-.7-2.1,2.4.2Z" fill="#2e345b"/>
      <path id="Path_12995" data-name="Path 12995" d="M259.2,214.8l.4-1.6,1.4,1.2Zm4.6.7.1-1.6,1.6.8Zm-8.6-2,.5-1.5,1.4,1.1Zm6.4.4.1-1.6,1.6.8Zm.1-3.9-1.9,1.1-.3-2.4Zm-10.7.7.2,1.4-1.5-.4Zm.5-1.8.2,1.4-1.5-.4Zm-10.6,9.5-.9.1.2-1Zm-2.1-1.4-.4-.8h1Zm2.6,3.1-.1.8-.8-.4Zm11.3-9.7h-.8l.3-.9Zm-7.6,3.2-.1.8-.8-.5Zm11.5-4.5-1.4.9-.2-1.8Z" fill="#2e345b"/>
      <path id="Path_12996" data-name="Path 12996" d="M252.1,208.2h3.1l-1.3,3.2Zm3.3,0,3.1-.1-1.3,3.2Zm-7.3,0,3.1-.1-1.3,3.2Zm12,0,3.1-.1-1.3,3.2Zm6.4,11.4,1.3-1.6,1.1,2Zm-22.2-11.4,3.1-.1-1.2,3.3Zm-3.2,0,3.1.1-1.5,3.1Zm-3.9,0h3.2l-1.5,3.2Z" fill="#2e345b"/>
      <path id="Path_12997" data-name="Path 12997" d="M262.4,209.8l-1.4.9-.3-1.8Zm-3.3-1.2.3,1.6-1.8-.5Zm3.7,2.1,1.6.1-.9,1.6Zm1.9,1,1.1,2.2-2.3.2Zm2.1,4.2.9,2-2,.1Zm-4.5-2.1.5,2.4-2.3-.5Zm-3.4-2.1.6,3-2.8-.6Zm11.3,11.2.7,1.4h-1.5Zm-2.4-1.9.6,1.2h-1.3Zm-4.9-2.4.2,1.1-1-.2Zm-7.8-5.8.4,2.1-2-.4Zm6.2,3.4-.6,2-1.6-1.3Z" fill="#2e345b"/>
      <path id="Path_12998" data-name="Path 12998" d="M265,216.3l.8,1.7-1.8.1Zm-6,2.4-.8-.5.8-.7Zm4.2-4.8-.5.6-.4-.8Zm-7.9-1.1.5.6-.9.2Zm-4.4,4.6-.7-.5.8-.4Zm-2.2,1.9-1.1-.8,1.4-.7Z" fill="#2e345b"/>
      <path id="Path_12999" data-name="Path 12999" d="M253.2,218.1l-.7-.5.9-.4Zm-2.1-1-.5-.5.7-.4Zm5.7,1.2.2.6h-.7Zm-8.7,4.1-.8-.7,1-.6Z" fill="#2e345b"/>
      <path id="Path_13000" data-name="Path 13000" d="M253.7,218l-.7.5-.3-1Zm-8.5-2.9.4.8h-1.1Zm-25.5-2.3.2,1.4-1.5-.4Zm2.1-3.2.2,1.4-1.5-.5Zm-.4,5.6-1.4.9-.3-1.8Zm4.1-5.3-1.4.9-.3-1.8Zm3.9-.6-1.4.9-.3-1.9Zm-8,0-1.4,1-.3-1.9Zm-.6,2.2-1.4.9-.3-1.8Zm3-.2-1.4.9-.3-1.8Zm-5.5-.3-1.4.9-.3-1.8Zm-3.4-.5.3,1.7-1.8-.5Zm-1.8.6-.7-1.5,1.8-.1Zm23.2,2-1.4.9-.3-1.8Zm-5.8.9-.5-1.6,1.9.3Zm2.6-1-.5-1.6,1.9.2Zm-6.9.4.2,1.4-1.5-.4Zm-8.2.2.3,1.4-1.5-.4Zm-1.7-1.1.2,1.4-1.5-.4Zm11.5.5.2.9-1-.2Zm-6.3,0h.8l-.4.8Zm4.3,6.7.2-.8.7.6Zm-2.1,3.2-.9.2.2-1Zm.1-6.3v.8l-.8-.4Zm-6.7,4.3.8.2-.6.7Zm-.7,1-.9.1.2-1Zm.1-6.4v.8l-.8-.3Zm-6.7,4.3.8.2-.6.7Zm25.5,6.1-.9.3.2-1.1Zm.1-6.3v.8l-.8-.4Zm-6.7,4.3.8.2-.6.7Zm6.7-8.4v1.8l-1.8-.9Z" fill="#2e345b"/>
      <path id="Path_13001" data-name="Path 13001" d="M231.4,218.8l.8.2-.6.7Zm3.6-2.4-.7-.6,1-.5Zm5.2-3.6-.7.4-.2-.8Zm-7.4-3,.3.7-.9-.1Zm4.3,7.2-1.2.2.4-1.4Zm1.2-8.3-.2,1-1-.6Zm-9.7,4.5,1.1.5-1,.8Zm11.3,3.2-.9-.8,1.2-.5Z" fill="#2e345b"/>
      <path id="Path_13002" data-name="Path 13002" d="M246.3,212l-.8.6-.2-1.2Zm-9.1-3.8.3,1-1.1-.1Zm-9.9,8.8-.7-.6,1-.5Zm5.2-3.6-.7.4-.1-.8Zm-7.4-3,.3.7-.9-.1Zm2.8-1.3.2,1.4-1.5-.4Zm1.3,1.8-.6,2.1-1.8-1.6Zm-2.9,1.3-1.8,1.1-.4-2.4Zm11.2-1-1.8,1.2-.3-2.4Zm-6.3-.7.2,1.4-1.5-.4Zm.5-1.7.2,1.4-1.5-.4Zm-10.9,9.6-.9.1.3-1Zm-4.8-.7-.9.2.3-1.1Zm2.8-.8-.4-.7h.9Zm-5.6-.8-.4-.8h.9Zm8.1,4v.8l-.8-.4Z" fill="#2e345b"/>
      <path id="Path_13003" data-name="Path 13003" d="M232.9,210.2h-.8l.3-.9Zm-7.9,3.4-.1.8-.7-.6Zm11.7-4.1-1.4.9-.3-1.8Z" fill="#2e345b"/>
      <path id="Path_13004" data-name="Path 13004" d="M232.2,208.3l3.1-.1-1.3,3.3Zm-4,.1,3.1-.1-1.2,3.2Zm-3.6-.1,3.1-.1-1.3,3.2Zm-10.4-.2h3.1l-2,2.5Z" fill="#2e345b"/>
      <path id="Path_13005" data-name="Path 13005" d="M210.8,208.1h3.1l-2,2.5Zm10.3.1,3.1.1-1.5,3.1Zm-3.9-.1,3.1.1-1.4,3.2Zm14,9-.6-.5.8-.4Z" fill="#2e345b"/>
      <path id="Path_13006" data-name="Path 13006" d="M229.1,219l-1.1-.8,1.4-.7Zm4.4-1.2-.6-.5.8-.4Zm-2-1-.6-.5.8-.4Zm-3,5.3-.9-.7,1.1-.6Z" fill="#2e345b"/>
      <path id="Path_13007" data-name="Path 13007" d="M234,217.7l-.7.5-.2-1Zm-8.4-2.9.3.8h-1Zm-20.4-1.6.2,1.4-1.5-.5Zm2.1-3.2.2,1.4-1.5-.5Zm-5.5.4H201l.3-.9Zm5,5.3-1.4.8-.2-1.8Zm.1-5.9-1.3.9-.3-1.9Zm-.6,2.1-1.4.9-.3-1.8Zm3.4-.4-1.4.9-.2-1.8Zm1.4-1.7-1.4.8-.2-1.8Zm-9.2,1.9-1.4.9-.2-1.8Zm1.9-.4-1.4.9-.2-1.8Zm-.3,2.7.2,1.4-1.5-.5Zm10.3-.8.2,1-1.1-.2Zm-6.3-.1h.8l-.4.9Zm4.1,6.8.3-.8.7.6Z" fill="#2e345b"/>
      <path id="Path_13008" data-name="Path 13008" d="M212.6,211.3l.1,1-1-.2Zm-6.3-.1h.8l-.4.9Zm4.1,6.8.3-.8.7.6Zm-.9,5.1-.9.2.2-1Zm.2-6.3-.1.8-.8-.4Zm-6.8,4.2.8.2-.6.7Zm3.3-2.2-.9.1.3-1.1Zm-2-1.5-.4-.7h.9Zm2.9,2.9v.8l-.8-.4Zm-.5-11.9,3.1-.1-1.3,3.2Zm-3.8-.2H206l-1.9,2.7Zm-1.1,5.3-1.4.9-.3-1.9Zm-6.4.8-.3-1.7,1.8.6Zm2.7-.5-.4-1.6,1.8.3Zm1.4.2v1.7l-1.8-.9Zm-1.5,4.9.8.2-.6.7Z" fill="#2e345b"/>
      <path id="Path_13009" data-name="Path 13009" d="M201.3,217.9l-.7-.6,1-.5Zm5.2-3.5-.7.4-.1-.9Zm-7.3-3.2.3.8-.9-.1Zm2.4,4.8-.9-.8,1.3-.5Zm9.6-3.2-.8.6-.2-1.2Zm-8.4-3.8.3,1-1.1-.1Zm63.2,5.3.5,1.3h-1.6Zm-68.3.4-.5,1.7-1.4-1.3Zm-.7-4.1.2,1.4-1.5-.4Zm.5-1.7.2,1.3-1.5-.4Z" fill="#2e345b"/>
      <path id="Path_13010" data-name="Path 13010" d="M198.4,210.4h-.8l.3-.8Zm3.7-.6-1.4.8-.2-1.8Z" fill="#2e345b"/>
      <path id="Path_13011" data-name="Path 13011" d="M198.1,208.3l3.2-.1-1.4,3.3Zm-3.4-.2,3.2-.1-1.4,3.3Zm3.2,9.1-.6-.5.8-.3Zm.6,4.7-1.1-.8,1.4-.7Zm-1.8-3.2-.6-.5.8-.3Z" fill="#2e345b"/>
    </g>
    <g id="Group_952" data-name="Group 952">
      <path id="Path_13012" data-name="Path 13012" d="M84.4,318.7a2.538,2.538,0,0,0-3,2.1L71,376.1a2.538,2.538,0,0,0,2.1,3l2.9.5,11.4-60.4Z" fill="#353b68"/>
      <path id="Path_13013" data-name="Path 13013" d="M98.3,322a1.081,1.081,0,0,0-.4-1.6,21.751,21.751,0,0,0-4.6-1.2,20.749,20.749,0,0,0-6,0L75.9,379.6s3.7.5,7.4-3.6,20.1-27.7,20.1-27.7.7-1.2-1.2-2.4-3.4-1.3-4.7-.1-5.8,4.8-5.8,4.8a1.861,1.861,0,0,1-.4-2.6c1.2-1.4,3.7-4,3.7-4.8,0-.7-1.4-5.3-1.1-10.5A19.551,19.551,0,0,1,98.3,322Z" fill="#353b68"/>
    </g>
    <g id="Group_953" data-name="Group 953">
      <path id="Path_13014" data-name="Path 13014" d="M75.36,379.58l11.42-60.43.98.2L76.4,379.65ZM96.6,358.1a15.445,15.445,0,0,1-5.8-4l-2.6-3.4a1.676,1.676,0,0,0-3,.3,78.356,78.356,0,0,0-2.8,10.9l-3.7,17.3a8.506,8.506,0,0,0,4.5-3c2-2.6,13.4-18.1,13.4-18.1ZM94,337.6l.3,2.1-2.1-.6Zm.5,2.5.4,2.2-1.6-.5Zm1.2,7.4,1.7-1.4.3,1.5ZM93.8,349l1.7-1.4.3,1.7ZM92,350.4l1.7-1.3.3,1.6Zm6.2-4.9,1.2-.5-.2,1.4Zm1.5-.5,1,.3-.6,1Zm-5.8-9.9.2,2.1-2.2-.7Zm0-2.5v2.1l-2.1-.9Zm.4-2.6-.3,2.1-1.9-1.2Zm2.2-5.5-1,1.7-.6-1.6Zm-1.4,2.9-.6,2-1-1.4Zm-2.9,9.4.6.7-.9.3Zm-1.1-.6.8.2-.6.7Z" fill="#6a71ac"/>
      <path id="Path_13015" data-name="Path 13015" d="M92.7,335.2l.7.7-1,.3Zm-1.1-2.8,1.2.2-.7,1.1Zm.7-1.6,1.2.2-.7,1.1Zm-1.7,1,.5-1.2.8,1Zm1.7-1.7.4-1.1.9,1Zm.8-2.5-.2-1.2,1.2.3Zm1.2-1.4L94,325l1.3.3Zm-2.1,2.7-.8-.6.9-.5Z" fill="#6a71ac"/>
      <path id="Path_13016" data-name="Path 13016" d="M93.7,329.3l-.8-.6.9-.6Zm1.3-1.6-.9-.6,1-.6ZM90.6,333l.4-1.1.9.9Zm-.1-3.9L91,328l.8.9Zm1.6,10.6h1l-.3.9Zm1.6,2.9.9-.1-.3.9Zm-1.4-1.4.8.7-1,.4Zm-2.1-2.9h.7l-.2.7Z" fill="#6a71ac"/>
      <path id="Path_13017" data-name="Path 13017" d="M90.5,336.4l.4-.6.4.7Zm.3-1.6.5-.6.3.7Zm1.2,0,.4-.6.4.6Zm.7-2.3.4-.5.4.6Zm-.2,5.9.4-.6.4.6Zm-1.3,1.5.4-.6.4.6Zm.3,1.6.4-.6.4.6Zm1.2,1.9.4-.6.4.6Zm2.8,5.2.6-.9.6,1Zm.9-.9,1-.1-.4,1Zm1-1.6.7-.6.2,1.1Zm-7.6-3.4.4-.6.4.7Zm4.2,2.2-.2-.7.7.1Zm.5-.8-.3-.7H95Zm-4.9,1.5.4-.6.4.7Zm4.1,4.4.6-.8.6.9Zm-2.4,1,.8-.6.2,1Zm1.2-5.2-.3-.6h.7Zm5.2,1.3-.3-.5H98Zm-4.8,4.7-.3-.6h.7Zm2.4-1.8-.3-.6h.6Zm-8.5-7.1-.3-.6h.6Zm4-17.8-.3-.5.6-.1Zm2.4,16,.4-.6.4.6Zm-1.7-10.4.4-.6.4.6Zm1.5-4.4.5-.6.3.7Zm4.8-3.8-1.1,1.6-.4-1.7Z" fill="#6a71ac"/>
      <path id="Path_13018" data-name="Path 13018" d="M95.4,323.9v-1.2l1.1.4Zm-2.2-3.7-.2-1,1.1.2Zm1.5.1-.1-.8,1.1.2Zm-.5,3.6.5-.6.3.7Zm2-2.2.5-.5.3.7Zm-.4-1.3.5-.5.3.7Zm-7,19.9.3-.4.3.5Zm.4-2.2.3-.5.3.5Zm9.3,9.9-.7-.1.4-.6Zm1.3-1.9-.6-.1.4-.6Zm-.7.8-.8-.1.5-.7Zm-2.4,3.5-.3.5-.3-.5Z" fill="#6a71ac"/>
      <path id="Path_13019" data-name="Path 13019" d="M98.3,349.1l-.4-.1.2-.4Zm1-2.1-.2-.4.5-.1Zm-.6.1.4-.3.2.5Zm1.6-1.1.4-.3.1.5Zm-4,3.6-.5-.1.3-.4Zm5.3-3.1-.5-.1.3-.4Zm-8.9-21.9.3-.4.2.5ZM89,329.9l.3-.5.3.5Zm1.8-3.3.3-.4.3.4Zm-1.6,9.7-.5-.3.5-.3Zm2-6.3-.5-.3.5-.3Zm-.3,4.1-.4-.3.5-.2Zm-2.3-1.8-.4-.3.5-.3Zm1,2.5-.4-.4.5-.2Zm.4-2-.4-.4.5-.2Zm3.6-7.6-.4-.4.5-.2Zm-.5-4.1-.4-.3.4-.2Zm-.9-1.5-.2-.5.6.1Zm-1.1.4-.2-.5.6.1Zm2.9,3.6-.4-.3.5-.3Zm.5-2-.4-.3.5-.3Zm-.1-1.4-.4-.3.5-.3Zm1.2,2-.4-.4.4-.2Zm0-1.1-.4.3-.2-.5Zm.6-.5-.4.3-.1-.5Zm.9.2-.4-.4.5-.2Zm.4,1.5-.4-.4.5-.2Zm-2.1-1.9-.4-.3.4-.3Zm.8,3.8-.4-.3.5-.2Z" fill="#6a71ac"/>
    </g>
    <g id="Group_954" data-name="Group 954">
      <path id="Path_13020" data-name="Path 13020" d="M291.6,422.2a2.611,2.611,0,0,0,2.1,3l55.5,9.7a2.611,2.611,0,0,0,3-2.1l.5-2.9-60.6-10.6Z" fill="#353b68"/>
      <path id="Path_13021" data-name="Path 13021" d="M294.7,408.3a1.081,1.081,0,0,0-1.6.4,33.655,33.655,0,0,0-1.2,4.6,23.057,23.057,0,0,0,.1,6l60.6,10.6s.4-3.7-3.7-7.4-28-19.7-28-19.7-1.2-.6-2.4,1.2-1.2,3.4,0,4.7,4.8,5.8,4.8,5.8a1.776,1.776,0,0,1-2.6.4c-1.4-1.2-4.1-3.6-4.8-3.6s-5.3,1.5-10.5,1.2a19.6,19.6,0,0,1-10.7-4.2Z" fill="#353b68"/>
    </g>
    <g id="Group_955" data-name="Group 955">
      <path id="Path_13022" data-name="Path 13022" d="M292.02,419.84l-.1-1.15,60.76,10.58-.07,1.14ZM330.8,409.4a14.489,14.489,0,0,1-3.9,5.8,25.645,25.645,0,0,1-3.4,2.6,1.716,1.716,0,0,0,.4,3,81.26,81.26,0,0,0,10.9,2.7l17.3,3.4a7.949,7.949,0,0,0-3.1-4.4l-18.2-13.1Zm-20.4,2.9,2.1-.3-.6,2.1Zm2.5-.5,2.1-.4-.5,1.6Zm7.3-1.3-1.4-1.7,1.6-.3Zm1.6,1.9-1.4-1.7,1.6-.3Zm1.4,1.7-1.4-1.6,1.6-.4Zm-5-6.1-.5-1.2,1.4.2Zm-.5-1.4.3-1.1,1,.6Zm-9.8,5.9,2.1-.3-.7,2.2Zm-2.6,0h2.2l-.9,2Zm-2.6-.3,2.2.3-1.2,1.9Zm-5.5-2.1,1.8.9-1.6.6Zm3,1.3,2,.5-1.5,1.1Zm9.4,2.7.7-.6.3,1Zm-.6,1.1.2-.8.7.7Z" fill="#6a71ac"/>
      <path id="Path_13023" data-name="Path 13023" d="M308,413.6l.7-.6.3,1Zm-2.8,1.2.2-1.2,1.1.7Zm-1.6-.7.2-1.2,1.1.7Zm1,1.7-1.1-.4.9-.9Zm-1.7-1.6-1.1-.5.9-.9Zm-2.5-.8-1.2.2.3-1.2Zm-1.4-1.2-1.2.3.3-1.3Zm2.7,2.1-.6.8-.5-.9Z" fill="#6a71ac"/>
      <path id="Path_13024" data-name="Path 13024" d="M302.1,412.8l-.6.8-.6-.9Zm-1.7-1.3-.6.8-.5-.9Zm5.4,4.3-1.1-.4.9-.9Zm-3.9.2-1.1-.5.9-.9Zm10.6-1.8-.1-1,1,.3Zm2.8-1.6-.1-1,1,.3ZM314,414l.7-.8.4.9Zm-2.8,2.1-.1-.7.7.2Z" fill="#6a71ac"/>
      <path id="Path_13025" data-name="Path 13025" d="M309.2,415.8l-.6-.4.7-.4Zm-1.6-.3-.6-.4.7-.4Zm0-1.1-.6-.4.6-.4Zm-2.3-.7-.6-.4.7-.4Zm5.9.2-.6-.4.6-.4Zm1.5,1.2-.6-.4.6-.4Zm1.6-.3-.6-.4.6-.4Zm1.8-1.2-.6-.4.7-.4Zm5.2-3-.8-.5.9-.6Zm-.9-.8-.1-1,1.1.3Zm-1.6-.9-.6-.8,1.1-.2Zm-3.3,7.6-.6-.4.7-.4Zm2.2-4.3-.7.3v-.8Zm-.9-.4-.6.2v-.7Zm1.6,4.9-.6-.5.7-.4Zm4.4-4.3-.8-.6.9-.5Zm1,2.5-.6-.8,1-.3Zm-5.3-1.2-.5.3v-.6Zm1.4-5.2-.6.3v-.6Zm4.6,4.7-.5.3-.1-.6Zm-1.8-2.3-.5.3-.1-.6Zm-7,8.6-.5.3-.1-.7Zm-17.8-3.8-.5.3-.1-.6Zm15.9-2.6-.6-.5.7-.4ZM303.5,415l-.6-.4.6-.4Zm-4.4-1.6-.6-.4.7-.4Zm-3.9-4.7,1.6,1.1-1.6.5Z" fill="#6a71ac"/>
      <path id="Path_13026" data-name="Path 13026" d="M296.6,411.1l-1.1.1.4-1.2Zm-3.6,2.2-1,.3.2-1.1Zm0-1.4-.7.1.2-1.1Zm3.6.4-.5-.5.7-.3Zm-2.2-2-.5-.4.7-.3Zm-1.2.5-.6-.5.7-.3Zm20,6.7-.5-.3.5-.3Zm-2.3-.4-.4-.3.5-.3Zm9.8-9.4-.1.7-.6-.4Zm-1.9-1.3-.1.6-.6-.4Zm.8.7-.1.8-.7-.4Zm3.6,2.3.4.4-.5.3Z" fill="#6a71ac"/>
      <path id="Path_13027" data-name="Path 13027" d="M321.8,407.8l-.1.5-.4-.3Zm-2.1-.9-.4.2-.1-.5Zm.1.6-.3-.4.5-.2Zm-1.1-1.6-.3-.4.5-.1Zm3.6,4v.5l-.5-.3Zm-3.1-5.3-.1.5-.4-.3Zm-21.8,9.3-.4-.3.5-.3Zm5.3,3.5-.4-.3.4-.2Zm-3.3-1.7-.4-.3.4-.3Zm9.8,1.5-.4.4-.2-.5Zm-6.4-1.9-.3.4-.3-.5Zm4.2.1-.4.5-.2-.5Zm-1.8,2.4-.4.4-.2-.5Zm2.4-1-.3.4-.3-.5Zm-2-.4-.3.4-.3-.5Zm-7.7-3.5-.3.4-.3-.5Zm-4,.6-.3.4-.2-.5Zm-1.5.9-.5.2V414Zm.4,1.1-.5.2.1-.6Zm3.6-3-.4.4-.2-.5Zm-2-.4-.4.4-.2-.5Zm-1.4.1-.3.4-.3-.5Zm1.9-1.2-.3.4-.3-.5Zm-1.1,0,.4.4-.5.1Zm-.5-.7.4.4-.6.2Zm.2-.8-.3.4-.3-.5Zm1.5-.4-.3.4-.3-.5Zm-1.8,2.1-.4.4-.2-.5Zm3.8-.9-.3.4-.3-.5Z" fill="#6a71ac"/>
    </g>
    <g id="Group_956" data-name="Group 956">
      <path id="Path_13028" data-name="Path 13028" d="M294.7,335.3l.7-1-1.5-.2Zm5.8,4.6.9.3-.4-1.3Zm-14.1,5.2.8-.2-.5-.7Zm15.5,3.7.8-.2-.6-.7Zm-15.7-12.5.3.6.5-.6Zm7.3,3-.5.4.7.3Zm4.3,4.2.9.4v-1.1Zm-4.8-1.4.7-1-1.4-.2Zm-6.1-1.4,1,.3-.1-1.1Zm-10.5.3,1.1.2-.3-1.1Zm-4.2-1.5,1,.2-.2-1.1Zm23.4,1.4-1.4-.5V342Zm-4,1.7.2-1-1.2.3Zm-7.1.7,1.3-.2-.7-1.1Zm-1.3-1.9,1.2-.2-.7-1.1Zm-5.1-1.6,1.3-.2-.8-1.1Z" fill="#ad5c49"/>
      <path id="Path_13029" data-name="Path 13029" d="M273.9,340.6l1.3-.2-.8-1.1Zm4-3.4,1.3-.2-.8-1.1Zm7.2,3.9,1.3-.2-.8-1.1ZM284,338l1.3-.1-.7-1.1Zm17.1,5.5-.1-1.2-1.3.7Zm-4-6.4,1.2-.4-.9-1Zm4.6,5-.3-1.5-1.5,1.4ZM282,343.3l1.1-.1-.6-1Zm-2.7-3.1,1-.1-.5-1Zm-2.5-1.6.3,1,.9-.7Zm17.8-5.3,1.4,2.1.9-2.7Zm-7.7,1.5,1,1.7,1.3-2.1Zm3.6,1.7.8-1.6-1.9-.4Zm6.8-3.4.8,1.6.3-2.1Zm-12.2,6.5.9-.1-.6-.9Zm-7.3,4.1,1-.3-.7-.8Zm6.5.2.4.7.5-.7Zm9.6-10.4-2.8.7,2,2.6Zm1,3.6.7.6.3-1Zm-15.9-1,1.1,1.6,1.3-1.9Zm7.7-1.2-1.8.3.7,1.8Zm5.4,1.3-1.5,1.4,2.3.8Zm-.9,2.4-.7-.4-.1.9Zm1.5,6.6-.7-.4-.1.9Zm8.4,1.9-.8-.2.1.8Zm-1.6,2-.4-.7-.5.7Zm3.9,1.6-.3-.7-.6.6Zm-19.2-4-.7-.3-.1.8Zm-11-5.9-.7-.3-.1.9Zm6.4-2.2-.7-.4-.1.9Zm1.8-.5-.7-.4-.1.8Zm18.3,2.8.3-.8-1,.2Z" fill="#ad5c49"/>
      <path id="Path_13030" data-name="Path 13030" d="M289.8,340.9l1.2.4-.2-1.3Zm9.4-2.1-1.5-.3.4,1.6Zm0,3.1-.1-1.2-1.2.7Zm.8-7.8-.3-1.9-1.7,1.3Zm-13.1,5.7,1.2-.1-.6-1.2Zm11.9,4.9h1l-.3-.9Zm-1.5,1.8h.9l-.2-1Zm-21.1-4-.4-1.2-1.1,1.3Zm-4-4.4-.4-1.3-1.1,1.4Zm1,0,.9-1.6-1.5.3Zm2,9-.6-.2v.7Zm-.1-8.6-.7-.2.1.8Zm4.8,5.2-.7-.3v.8Zm-7-1.2-.4-.6-.4.6Zm28,3.6.9.1-.1-1Zm.9.7h1l-.3-1Z" fill="#ad5c49"/>
      <path id="Path_13031" data-name="Path 13031" d="M300.6,336.6l-.5-1.7-1.5,1.4Zm-1.9,2.1v-1.2l-1.3.6Zm-16.9-3.2,1.5,2.1,1.4-2.5Zm-3.1,5.9,1,1.2.7-1.5Zm2.7-2.3,1,1.2.7-1.5Zm19.4-.9-.4-1.4-1.3,1.2Zm1.5,6.7-.3-1.4-1.3,1Zm-15-6.4,2.4-.1-1.2-2.2Zm-12.8-1.9,1.4,1.5,1.4-1.9Zm19.5.2.3,1.2,1.1-.9Z" fill="#ad5c49"/>
    </g>
    <g id="Group_957" data-name="Group 957">
      <path id="Path_13032" data-name="Path 13032" d="M147,304.2l.6-.9h-2.4l1.4,1.8.1-.2v.2l.3-.9Zm16.1-7.6-.7,1.6,1.6-.3-.9-1.3Zm7.4-3.7-.7,1.6,1.5-.4Zm-1.9,12.9-.4,1.2.3-1-1,.1.7.8-.1.3,1.5-.5Zm-10.4-2-.9-1.2-.6,1.6Zm-4.8-.9-.6,1.6,1.6-.4Zm23.1-12.5-.5,1.2-.2.1.9,1.3.5-1.5h-.3l.4-.1-.8-1Zm-15.7,7.8h-1l1.4,1.8,1-1.8-1.3-.1-.1.1Zm7.4,4.2-1-.2.2.9.8-.7Zm-3-8.9-.2.1h-.9l.4.5-.1.1h.2l.9,1.1h-.2v-.1l-.9-.1.5.7-.9.4.9.7-.1-1.1v.1l.4-.6.5.6-.7,1.4,1.9-.4-.6-.9.5-.1-.5-.6h-.1l-.1-.2-.1.1h-.6l.9-1.8h-1.1v.1Zm-9.9,8-.1-.4,1.1,1.3.3-1.1.8.1-.1-.5.3.5.2-.1.4.7.4-.9h.4l-.2-.5v-.2l-1.4.1.1.2h-.3v-.1l-.2.3.2-.5-2,.7-.1-.3-.8.8,1-.1Zm10,5.7-1-.5.3,1.2Zm-7.1,1.2.6.9.2-1Zm13.5-8.2.1-1-.8.2Zm-3.4-6.1-.8-.4.3,1Zm-8.4,10.2.2.8.5-.4Z" fill="#7585bc"/>
      <path id="Path_13033" data-name="Path 13033" d="M156.4,305.8l.2-.6-.5.1Zm-7.8,1.5v.6l.8-.3-.8-.3Zm3.6,1.8.5.2-.2-.7Zm-1.5-4.8.3-.5h-.6Zm7.7,10-.5-.4v.6Zm9-2.9.5.3v-.5Zm-5.9-.3.1.6.4-.5Zm7-10.2-.5-1.4.9-1.7.5.1-.1-.5h.2l-.2-1-.6.8h.2l-.2.4-2.1-.1.6.9-.8.9,1.1.2-.4.6.1-.4-1,.6.8.5v-.3Zm-.6-1.7Zm11.7-7.5.7-1.3h-1.6l.3-1-2.2.8,1.4,1.4.3-1.1Zm-.6.2-.1.7.6-.3-.5-.4Zm-9.6,12.2-.4-1.3-.7,1.1,1.1.2Zm3.2-6.3.4-.8h-.5l-.2-.6-.6.8.3.1Zm-9.7,1.6,1-.5-.8-.6Zm-16.5.7v-.5l-2.4,1.2.8.5-.1.2-1.1.2v.1l-1,.1,1.1,1.4.3-.7.2.5.1-.3.4-.1-.6,1.3.7-.2.6.8.4-.9h-.2l.3-.1-.8-1,.5-.1-.1-.2.9.6-.1-1.6.5-.6-.4-.6Zm3.9,6.3.1-.3h.1V306l.1-.4-.3.1-.1-.4-.8.7.5.1.4.3Zm-1.8,0-.7-1.1-.3,1.1Z" fill="#7585bc"/>
      <path id="Path_13034" data-name="Path 13034" d="M192.2,290l.3,1,.7-.6Zm-5.1,1.7.5.6.2-.8-.7.2Zm-1,1.6.3,1,.7-.6Zm-1.7-4.5-.4.6h.8l-.4-.6Zm-2.9,6.7.2-.8-.7.2.5.6Zm11.2-18.6-.4.6.8-.1-.4-.5Zm-1.8.1.9.1-.2-.7Zm3.6,2.5.7.6v-.9Zm-22,14.1-.4.7h.1l-.5.5.8.1-.3.4.3.1-.7.9h1.5l-.1.4,1.1-.6-.8-.6-.2-.3,1.1-.3-1.1-1.4-.3.6-.5-.5Zm.2.6h.3l-.1.2Zm-8.2,3.5-.9,1.8,1.9-.4Zm21-7.4.3,1.3,1.3-.9-1-.6,1.1-.3-1-1.4-.6,1.3v.1Zm-10.3,1.2-.5,1.3,1.2-.4Zm-6.8,3.6.9.7-.1-1.1-.8.4Zm8.4,3.7.2,1,.9-.8-1.1-.2Zm-.1,5.6-1.3-.5.4,1.3.9-.8Zm-3.2-5.7-.5-.9-.7.9Zm7.1-9.1.4,1.3.9-.9-1.3-.4Zm6.7,5.9-.5-.9-.7.9Zm-5,7.6.8.8.1-1.1-.9.3Zm16.1-15.3,1.1-.1-.5-.9Zm-4,7.5.8.9.2-1.1Zm-9-9.2.4,1.2.8-.8-1.2-.4Zm4.7,8.2.8.8.2-1.1-1,.3Zm-5.8-4.1-.1.1-.1-.5-.7,1,.4.1-.8,1.3,2.4-.2-1.1-1.8Zm-1.3,5.6-1,.3.8.8.2-1.1Zm-5.9.2-.4-1.3-.8,1.1,1.2.2Zm-6.3-5.7-.3,1.1,1-.5Zm.1,11.1-1.3-.6.4,1.3.9-.7Z" fill="#7585bc"/>
      <path id="Path_13035" data-name="Path 13035" d="M171.8,303.8h1.1l-.5-.9Zm.2-18.7.8,1.1h-1l-.3-.7-2.9,2,.5.8-.2.5h-.5l-.6-1.2-3.1,1.9.8.5-.3.6-1.8-.4-3.2,1.8.8.7.5.1.6,1.3H161l.6.8h-.1l-.8-.4.1.4H160l.1-.1.7-.4-.4-.2.4-.6-1,.1-.1-1.1-1.6.8-3.1,1.8,2.2,1v.2l-.3-.2v.2l-.6-.4.1,1.1.4-.2-.1.4,1-.5-.3-.2.3-.2,1.5.9-.1-1.1.3,1.1.8-.6-1.1-.6-.2-2.1,1.1,1.5.1-.1.3.4h-.1l.1.1h-.9l1.4,1.7.4-.6.3.4.9-1.6.2.3,1-1.8.5.4-.1-1.5.1-.9-.2.1-.1-1.2,1.1,1.5.6-1.1.7-.2-.6,1.2.8-.2-.2.4,1.9-.1.5.6,1-1.8h-.9l-.2-2.2.3.3-.1.1h.2l.3.4.2,1.2.4-.4,1.7,2.3,1.4-2.3h-.3l.1-.1-1.4.1.1.2H170l.3-.4-.2-.1.6-1.2,1.5,1-.2.6.8-.3-.3-.3-.2-1.1,1-.2.2.6.6-.8h.4l-1.9,1.5,2.9.7-.3-1.7.3.4.4-.6.4-.4,1.7-.4-1-1.4-.7,1.5v-.2l.6-1.1h-.6v-.6h.2v.4l1-.6.3-.1v-.1l.3-.2v.2l.4-.2-.1.4,1-.5-.7-.7-.1.1-.6-.4-.2-.3-.3.7-.2-.1-.3-.4-.1.1-.4-.2.1.8-.2.4v-.4h.1l-.2-.4v-2.2l-4.3,2.2Zm-9.5,8.3.9.6h-1.1l.2-.6Zm3.2-3.2,1.5,1-.2.3-.6-.8v.2Zm4.1-1.5.1.1Zm2.5-1.3-.3.6-.1-.3.4-.3Zm1.4-.6,1.7.9.1.8H175l-.1-.6-.3.2-.2-.4.3-.4-.7-.1Zm-1.3.2h-.2v.1l-.4-.2v-.6l.6.7Zm8.4,7.5-.2-.6h.3l-.3-1.1-.4.6-.4.1.3.3-.1.2.8.5Zm-1.1,3.2-.6-1.8-1,1.5Zm10.6-6.5-.5-.5-.3.9ZM179.6,301l1.3.3-.5-1.5Zm0-12.7,1.8.3-.7-2.1-1.1,1.8Zm4.6,4.9-.6.1-.2-.7-.4.6-.1.2.4.1.6.7.3-1Zm-27,5.2,1.4,1.4.8-2.2-2.2.8Zm-5.8,5.9-.8,1.7,1.9-.4-1.1-1.3Zm15.7,7.7.3,1.3.9-.8Zm-1.8-5.3-.4-.9-.7.9h1.1Zm-4.2,7.2-1,.2.7.8Zm2.2-10.6-.8-1.6-.3-.7-.2.4-.2-1-.7.9.8.2-.1.2h.1l-.3.4.3.1-.7,1.1h2.1Zm-3.2,3.8.8.9.2-1.1Zm5.2-5.2-1.6-.8.3,1.8Zm-11.4.8.9,1.3.6-1.5Zm.8,4.9-.3-1.4-.6.7-.6-.4-.1.8.4-.1,1.2.4Zm-6.2-5.9v.2l-.2.8.6-.2.6,1,.5-1.7-1.1.1-.4-.2Zm2.6-4.1h-.9l.6.9-.3.8h-.1l-.1-1.8-3.3,1.9,1.2.7h-.1l.3.4h-1.9l.8,1.1.1.9.3-.3v.1l.2-.4.2-.1.6-1.2h-.1l.1-.1,2,1.3-.2-1.6h.1v.1l.1-.1,1.3-.3-.3-.3.2-.5V299l.4-.6,1,.6-1.2,1.7h.1l-1.2,1,2.9.6-.3-1.7h1.1l-.5-1,.5.3-.1.1h.1v.2l.2-.3,1.5-.4-.3-.3.3-.1-.8-.6-.3-.4-.4.9-.4-.2-.1-1.2.7-.2.1.1v-.1l.7-.2-.8-.9v-.5l-.3.2-.1.1-.6.2-.1-.7-3.3,1.9.4.1Zm3.5,1.9Zm-.3-2.7.1.1-.1.1Zm4.6,8.6-.1-.6.3.1-.3-1.1-.6.8h.2l-.4.5.9.3Zm-1.2,3.3-.6-1.8-1,1.6,1.6.2Zm-.2,3.4,1.3.3-.5-1.5Zm4.7-7.7h-.6l-.2-.7-.5.6-.1.2.4.1.6.7.4-.9Zm-9.8,2.4-.9-.7-.2,1h-.1l.1.1v.2h.1l.3.4.3-.8.4-.2Z" fill="#7585bc"/>
    </g>
    <path id="Path_13036" data-name="Path 13036" d="M141.9,301.6a.708.708,0,0,0-.2,1.2c3.8,4,22.7,22.4,52.5,31.3,33.5,10,75.7,3.5,84.9,2.3,7-.8,19-3.8,24.6-5.2a3.086,3.086,0,0,0,2.2-3.7l-1.6-6.2s-46.7,12.6-83.4,7.9c-15-1.9-34.3-7.3-44.8-12.8-20.2-10.5-25.8-18.8-25.8-18.8l-8.4,4Z" fill="#8a90bc"/>
  </g>
</svg>
