<svg xmlns="http://www.w3.org/2000/svg" xmlns:xlink="http://www.w3.org/1999/xlink" width="134.036" height="241.102" viewBox="0 0 134.036 241.102">
  <defs>
    <linearGradient id="linear-gradient" x1="0.404" y1="0.483" x2="1.055" y2="0.545" gradientUnits="objectBoundingBox">
      <stop offset="0" stop-color="#cc7a5e" stop-opacity="0"/>
      <stop offset="0.924" stop-color="#aa5f4b"/>
    </linearGradient>
    <linearGradient id="linear-gradient-2" x1="0.413" y1="0.644" x2="0.598" y2="0.022" xlink:href="#linear-gradient"/>
    <linearGradient id="linear-gradient-3" x1="0.524" y1="0.499" x2="1.166" y2="0.504" xlink:href="#linear-gradient"/>
    <linearGradient id="linear-gradient-4" x1="0.628" y1="0.914" x2="0.508" y2="0.17" xlink:href="#linear-gradient"/>
    <linearGradient id="linear-gradient-5" x1="0.505" y1="0.693" x2="0.533" y2="-0.393" gradientUnits="objectBoundingBox">
      <stop offset="0" stop-color="#131c4d" stop-opacity="0"/>
      <stop offset="0.998" stop-color="#131c4d"/>
    </linearGradient>
    <linearGradient id="linear-gradient-6" x1="0.147" y1="0.502" x2="2.004" y2="0.375" xlink:href="#linear-gradient-5"/>
  </defs>
  <g id="_31" data-name="31" transform="translate(-174.864 -207.699)">
    <g id="Group_1032" data-name="Group 1032">
      <path id="Path_14054" data-name="Path 14054" d="M249.7,443.3c-5.3,0-.8-11.3-.6-20.8-.3-1.8-2.8-29.2-6.1-54.4-2.3-17.4-3.3-42.1-3.7-44.5-.8-5.8-5.9-51.5-5.9-51.5l31.8-46s5.9,74.2,5.3,94.8c-.2,6.9-2.5,97.9,1.1,101.6,2.4,2.1,8.5,6.5,22.8,11,6.7,1.9,10.8,2.6,10.5,5.5s-1.4,2.8-1.4,2.8l-53.8,1.5Z" fill="#e79a7a"/>
      <path id="Path_14055" data-name="Path 14055" d="M185.1,440.9c-5.3-.8-4.6-8.7-2.4-13.5.3-2.1,4.7-33.9,7-61.6,1.7-20.5,10.4-50.8,10.8-56.5.5-6.5,0-100.7,0-100.7h60.7L231.9,317.4c-2.8,14.4-29.4,100.9-27.6,103.6,2.4,2.1,9.3,11,23.7,15.5,6.7,1.9,10.8,2.6,10.5,5.5s-1.4,2.8-1.4,2.8Z" fill="#e79a7a"/>
    </g>
    <g id="Group_1033" data-name="Group 1033">
      <path id="Path_14056" data-name="Path 14056" d="M201.9,407.8l-.7,1,1.1.2Zm2.1,2.3-.7,1.1,1.1.1Zm1.7-3.6-.7-.5-.1.7Zm-4.5,2.1-1.5-.1.4,1.3Zm3.1,4.8-1.6-.1.5,1.3Zm-.3,3-1.5-.2.4,1.3Zm1.8-6.5-1.5-.1.5,1.2Zm-1.6-1-1.5-.1.4,1.3Zm-.7,2.8-1.5-.1.4,1.3Zm1.4-6.3-1.5-.2.4,1.3Zm.3,1.7-1.5-.2.4,1.3Zm-5.6,5.7-.6,1.1h1.1Zm1.9-6.6-.6,1.2,1.2.1Zm-1.6,8.8-.4.8h.8Zm.9-4.1.6.5.2-.6Zm-5.5,2.7.7-.4-.6-.4Z" fill="#c9755b"/>
      <path id="Path_14057" data-name="Path 14057" d="M198.1,421.5l-.8-.4v.7Zm4,1-.5.5.7.2Zm-2.7-5.5.5.6.4-.6Zm.3,2.7.4.5.3-.5Zm3-4.8-.7,1.2,1.2.1Zm1.7,3.2-1.6,1.1,1.5.9Zm-1.7-4.8-2-.2.5,1.7Zm-4.1-5-.8-.4-.1.8Z" fill="#c9755b"/>
      <path id="Path_14058" data-name="Path 14058" d="M199.8,407.9l.1-.7-.6.1Zm-4,.6-.5.5.6.2Zm4.5,4.2-.5.5.5.2Zm1.7,2.2,2.3,1.7.6-2.6Zm.7-2.9,2.2,1.8.7-2.5Zm1.1-3.4,2.1,1.9.8-2.5Zm-1.1,10.2-.4-1.3-.7.7Zm3.1-27.2-.7,1.1,1.1.1Zm2.1,2.3-.7,1.2,1.2.1Zm-2.8-1.4-1.5-.1.4,1.3Zm3.3,4.5-1.5-.2.4,1.3Zm-.3,3.1-1.5-.1.4,1.3Zm1.6-6.3-1.6-.1.5,1.3Zm-1.5-1-1.6-.1.5,1.3Zm-.5,2.5-1.6-.2.5,1.3Zm1.4-4.3-1.5-.1.4,1.2Zm-5.5,13.8-1.5-.2.4,1.4Zm.2-2.2.6-1.4-1.4-.1Zm.3,2.3.6-1.4-1.4-.1Zm-.2-8.2-.7,1.1,1.2.1Zm1.6-6.5-.7,1.1,1.2.1Zm-1.5,8.2-.3.8.7.1Zm1-3.9.6.4.1-.6Zm-5.5,2.5.6-.4-.6-.3Zm-1.3-3.5-.8-.4v.8Zm4,1-.5.7.7.1Zm-2.5-5.5.4.6.3-.6Zm-6.3,13.1-.8-.4v.9Zm4,1.1-.5.5.6.2Zm-2.6-5.6.5.6.3-.5Zm5.7,5.6-1.1,1.2,1.4.4Zm-2.2-2.3.4.6.4-.6Z" fill="#c9755b"/>
      <path id="Path_14059" data-name="Path 14059" d="M201.4,404.9l-.2-.9-.7.4Zm1.4,3.8-.7-.1.2.7Zm3.1-5.2-.3.6h.7Zm-5.1,2.1-1.1-.7-.1,1.1Zm5.1,2-.7.7.8.3Zm-2.5-7.7.5.8.5-.7Zm-3.2,9.4-.2-1.1-.8.6Zm1.9,4.7h-1l.3.7Z" fill="#c9755b"/>
      <path id="Path_14060" data-name="Path 14060" d="M205.7,407.4l-.2.9.7-.1Zm-3.5-8.9-.2-.9-.7.5Zm1.4,3.8h-.8l.2.6Zm3.1-5.2-.3.6h.6Zm.2,1.8-.6,1.1,1.1.2Zm-1-.1-1.7,1.1,1.5,1Zm.9-2-1.9-.3.5,1.7Zm-1.2,9.2-2-.2.5,1.7Z" fill="#c9755b"/>
      <path id="Path_14061" data-name="Path 14061" d="M205.1,401.2l-.6,1.2,1.1.1Zm1.3.8-.6,1.1,1.1.2Zm-3.9-9.7-.8-.5v.8Zm1.2-.5.2-.7-.7.2Zm-3.6.1-.5.5.6.2Zm6.2,11.8-.6-.4-.1.6Zm-1.8-7.5-.6.5.6.3Zm1.9,9.7-1.5-.2.4,1.3Z" fill="#c9755b"/>
      <path id="Path_14062" data-name="Path 14062" d="M204.7,404.7l2.3,1.7.6-2.5Zm.8-2.9,2.2,1.7.6-2.6Zm.7-3.1,2.3,1.7.6-2.4Zm.6-3,2.2,1.8.8-2.4Zm1-3.2,2.2,1.9.7-2.5Zm-6.7,8.9-.2-.6-.5.3Zm-.6-1.8-.3-1.2-.9.6Zm-.5,3.6-.1-.7-.5.3Z" fill="#c9755b"/>
      <path id="Path_14063" data-name="Path 14063" d="M201.3,401.7l-.2-.6-.5.3Zm-3.3-3.4-.2-1-.7.6Zm2,4.3h-.9l.3.7Zm3-6.2-.2.9.7-.2Zm4.3-10.8-.7,1.1,1.1.1Zm1.8,2.5-.7,1.1,1.2.2Zm2.3-3.4-.5-.5-.2.6Zm-5,1.9-1.6-.1.4,1.3Zm4.7,1.3-1.6-.2.5,1.3Zm-1.5-1-1.6-.1.5,1.2Zm-.6,2.9-1.5-.2.4,1.4Zm1.8-6.2-1.6-.3.4,1.3Zm-.2,1.5-1.5-.2.4,1.3Zm-3.6-1-.7,1.1,1.2.2Zm5.1-12.2.5,1.3,1.1-.2ZM205.2,393l-.4.7.9.1Z" fill="#c9755b"/>
      <path id="Path_14064" data-name="Path 14064" d="M206.3,389l.6.4.2-.6Zm-5.5,2.5.6-.5-.6-.3Zm-1.1-3.9-.8-.4v.8Zm4,1.2-.5.6.6.2Zm-2.3-5.5.4.5.3-.5Zm2.3,3-.7-.4-.1.7Zm1.4-.6.3-.7-.7.2Zm-3.7.6-.5.5.6.2Zm7.3,2.9,2.3,1.7.6-2.5Z" fill="#c9755b"/>
      <path id="Path_14065" data-name="Path 14065" d="M209.1,386.8l2.3,1.9.7-2.4Zm5.1-8.1-1.5-.2.4,1.3Zm-4.7,4.2-1.5-.1.4,1.3Zm.3-1.9.6-1.4h-1.3Zm.1,1.9.7-1.3-1.3-.1Zm-3.5-1.8-1.1,1.2,1.4.5Zm1.7-4.1.4.7.4-.6Zm.6-1-.1-.9-.7.3Z" fill="#c9755b"/>
      <path id="Path_14066" data-name="Path 14066" d="M210,379.8h-.7l.1.6Zm3.2-5.1-.3.7h.6Zm-7.3,12.4-.1-1.1-.8.5Zm1.7,4.8h-1l.3.7Zm3.9-6.3-.3.8h.8Zm-2.6-6.4-1.6,1,1.5,1Zm4.9-6.2-.5,1.5,1.7-.7Zm-1.3,2.6-.4,1.4,1.2-.2Zm.5-2.1-1.3-.3.2,1.2Zm-.5,3.8-1.7,1.1,1.5,1Zm3.1-3.1-2,.9,1.5,1.1Zm-4.6,9.9-2-.4.5,1.8Zm.2-4.4-.7,1.1,1.1.2Zm1.3.8-.8,1.1,1.1.2Z" fill="#c9755b"/>
      <path id="Path_14067" data-name="Path 14067" d="M212.2,381.9l-.6-.4-.2.6Zm0,2.2-1.5-.2.4,1.3Z" fill="#c9755b"/>
      <path id="Path_14068" data-name="Path 14068" d="M210.3,383.1l2.2,1.8.7-2.5Zm.9-3,2.2,1.7.7-2.5Zm1-2.8,2.1,1.8.7-2.5Zm-5.4,3.2-.1-.7-.5.4Zm4-2-.3-1.2-.9.6Zm-4.8,2.6-.1-.7-.6.4Zm18.3-53-.6,1.1,1.1.1Zm-9.7,42.3-.6,1.2h1.1Zm-2.7-1.4-1.6-.2.4,1.3Zm4.6,1.2-1.6-.1.5,1.3Zm-1.6-.9-1.6-.2.5,1.3Zm-3,2.1-1.5-.2.5,1.3Zm15.7-44-1.5-.1.4,1.3Zm-3.6-.8-.7,1.2h1.2Zm-13.3,48.2-.3.8.7.1Zm1-3.9.6.5.1-.7Z" fill="#c9755b"/>
      <path id="Path_14069" data-name="Path 14069" d="M206.2,373.4l.6-.3-.5-.4Zm-1.2,2.1-.8-.4v.8Zm4,1-.5.6.7.2Zm-2.5-5.5.4.6.3-.6Zm2.7-2.3-.8-.5v.8Zm13.1-40.4.1-.7-.6.2Zm-15.5,40-.5.5.6.2Zm6.7,3.9,2.2,1.9.8-2.4Zm1-3.2,2.2,1.9.7-2.5Zm2.6-17.4-.7,1.1,1.1.2Zm2,2.4-.6,1.2,1.1.1Zm-2.7-1.5-1.5-.2.3,1.3Zm3.2,4.5-1.5-.2.4,1.3Zm-.3,3.2-1.5-.2.3,1.3Zm1.7-6.3-1.6-.2.5,1.3Zm-1.5-1-1.6-.2.5,1.3Zm-.6,2.5-1.5-.3.4,1.3Zm1.5-4.4-1.5-.1.4,1.3Zm-5.5,11.5.6-1.4h-1.3Zm.2,2.3.6-1.4h-1.3Zm0-8.2-.7,1.2,1.2.1Zm1.7-6.4-.7,1.1,1.2.1Zm-1.6,8.2-.4.8.7.1Zm1-4,.6.5.2-.6Zm-5.5,2.5.6-.4-.5-.3Zm-1.2-3.5-.8-.4v.8Zm4,1.1-.5.6.6.1Zm-2.5-5.6.4.6.4-.5Zm-6.2,16.8-.8-.4-.1.8Zm3.9,1.1-.5.5.6.2Zm-2.4-5.6.4.6.3-.5Zm8.6,4.1-1.1,1.1,1.4.5Z" fill="#c9755b"/>
      <path id="Path_14070" data-name="Path 14070" d="M209.4,360.7l.4.7.4-.6Zm3.6,3.8-.2-.9-.7.5Zm1.3,3.9-.7-.1.2.7Zm3.2-5.2-.3.7.7-.1Zm-5.7,2.3-1-.7-.2,1Zm5.1,2.1-.7.7.8.3Zm-2.4-7.8.5.9.5-.7Zm-1.1-1.4-.2-.8-.7.4Z" fill="#c9755b"/>
      <path id="Path_14071" data-name="Path 14071" d="M214.7,362.3H214l.1.6Zm3.2-5.2-.4.7.7-.1Zm.2,1.8-.7,1.1,1.2.2Zm-1-.1-1.7,1.1,1.4,1Zm.9-1.9-1.9-.4.5,1.7Zm-1.8,4.3-.6,1.2,1.1.1Zm1.3.8-.6,1.1,1.1.2Zm-3.7-9.8-.8-.5v.8Z" fill="#c9755b"/>
      <path id="Path_14072" data-name="Path 14072" d="M215,351.8l.2-.7-.6.1Zm-3.6,0-.6.5.7.2Zm5.9,11.9-.5-.4-.2.6Zm-1.6-7.5-.6.4.6.3Zm.1,8.5,2.3,1.7.6-2.5Zm.8-2.9,2.2,1.7.6-2.5Z" fill="#c9755b"/>
      <path id="Path_14073" data-name="Path 14073" d="M215.4,366.9l2.2,1.7.6-2.5Zm2-8.1,2.2,1.7.7-2.5Zm.7-3.1,2.1,1.9.8-2.4Zm1-3.1,2.1,1.9.8-2.5Zm-6.9,8.7-.1-.6-.5.3Zm-.6-1.8-.2-1.2-.9.6Z" fill="#c9755b"/>
      <path id="Path_14074" data-name="Path 14074" d="M208.9,364.7l-.1-.8-.5.4Zm3.5-3.1-.1-.6-.5.3Zm-.8.8-.2-.9-.7.5Zm1.9,4.4-.9-.1.3.7Zm3.2-6.2-.3.9.8-.2Zm2-15-.7,1.1,1.1.2Zm1.8,2.6-.7,1,1.2.2Zm2.4-3.4-.6-.5-.2.6Zm-5.1,1.8-1.6-.1.4,1.3Zm4.7,1.4-1.6-.2.5,1.3Zm-1.5-1-1.6-.2.5,1.3Zm-.7,2.9-1.5-.2.4,1.3Zm1.9-6.2-1.5-.3.4,1.3Zm-.2,1.5-1.5-.2.4,1.3Zm-3.5-1.1-.8,1.1,1.2.2Zm5.3-12,.4,1.2,1.2-.2Z" fill="#c9755b"/>
      <path id="Path_14075" data-name="Path 14075" d="M216.5,353l-.4.7.8.1Zm1.2-4,.5.5.2-.7Zm-5.6,2.4.6-.4-.6-.4Zm-.4-6.7-.8-.4v.7Zm4,1.3-.5.5.6.2Zm-2.3-5.7.4.6.4-.5Zm1.7,5.9-.7-.4-.1.7Zm1.4-.5.3-.7-.6.2Zm-3.7.5-.5.5.6.2Zm7.2,3.1,2.3,1.7.7-2.4Z" fill="#c9755b"/>
      <path id="Path_14076" data-name="Path 14076" d="M220.5,346.9l2.2,1.9.8-2.4Zm5.2-8-1.4-.2.3,1.3ZM221,343l-1.5-.2.3,1.3Zm.3-1.9.7-1.4-1.3-.1Zm.1,1.9.7-1.3-1.3-.1Zm-3.5-1.9-1.2,1.2,1.4.5Zm1.8-4,.4.6.4-.6Zm.6-1.1-.1-.9-.7.4Z" fill="#c9755b"/>
      <path id="Path_14077" data-name="Path 14077" d="M221.5,339.9l-.7-.1.1.7Zm3.4-5-.4.6.7.1Zm-7.6,12.2-.1-1.1-.8.5Zm1.6,4.9-1-.1.3.8Zm4-6.3-.2.8h.7Zm-2.4-6.5-1.7,1.1,1.5,1Zm5-6-.6,1.4,1.7-.6Zm-1.4,2.6-.5,1.3,1.3-.1Zm.6-2.2-1.4-.2.3,1.2Zm-.6,3.9-1.8,1,1.5,1Zm3.1-3.1-2,.9,1.5,1Zm-4.8,9.8-1.9-.4.4,1.8Zm.3-4.4-.7,1.1,1.1.2Zm1.3.9-.8,1.1,1.1.2Z" fill="#c9755b"/>
      <path id="Path_14078" data-name="Path 14078" d="M223.7,342.1l-.6-.5-.2.6Zm-.1,2.1-1.4-.2.3,1.3Z" fill="#c9755b"/>
      <path id="Path_14079" data-name="Path 14079" d="M221.7,343.2,224,345l.7-2.4Zm1.1-3,2.1,1.7.7-2.4Zm.9-2.8,2.1,1.9.8-2.5Zm-5.4,3.1v-.7l-.6.4Zm4-1.9-.2-1.2-.9.6Zm-4.8,2.5-.1-.7-.6.4Zm8.8-10.6-.7,1.2,1.2.1Zm-2.7-1.4-1.6-.2.4,1.3Zm4.6,1.3-1.6-.1.4,1.3Zm-1.6-.9-1.5-.2.4,1.3Zm-3,2-1.5-.2.4,1.3Zm-1.3,3.4-.3.8.7.1Zm1.1-3.9.6.5.2-.7Zm-5.5,2.4.6-.3-.6-.4Zm-1.3,2.1-.7-.4-.1.8Zm4,1.1-.5.6.7.1Z" fill="#c9755b"/>
      <path id="Path_14080" data-name="Path 14080" d="M218.2,331.1l.3.6.4-.6Zm2.8-2.3-.8-.5-.1.8Zm-2.5-.5-.5.5.6.3Zm6.7,4.1,2.1,1.9.8-2.4Zm1.1-3.2,2.1,1.9.8-2.5Zm-.6-7.2-.7,1.1,1.1.1Zm1.9,2.5-.7,1.1,1.2.1Zm2.2-3.5-.5-.5-.2.7Zm-5,2.1-1.6-.1.5,1.2Zm4.8,1.2-1.6-.2.5,1.3Zm-1.6-1-1.5-.1.5,1.2Zm-.5,2.9L226,326l.4,1.4Zm1.6-6.3-1.5-.2.4,1.3Zm-.1,1.6-1.5-.2.4,1.3Zm-3.6-1-.7,1.1,1.2.2Zm5-12.1.4,1.2,1.2-.2Zm-6.6,21-.3.8h.8Zm1-4,.6.5.2-.7Zm-5.5,2.7.7-.5-.7-.4Zm-1.8-1-.7-.4v.8Zm4.1,1.1-.5.6.6.2Zm-2.5-5.5.4.5.3-.5Zm3.1.1-.8-.4-.1.7Zm1.3-.6.3-.7-.7.1Z" fill="#c9755b"/>
      <path id="Path_14081" data-name="Path 14081" d="M219.8,322.9l-.5.5.6.2Zm7.1,3.6,2.4,1.7.5-2.5Zm.8-3.4,2.3,1.8.6-2.4Zm4.9-8-1.5-.1.4,1.3Zm-4.8,4.2-1.5-.1.4,1.3Zm.4-1.8.7-1.4h-1.4Zm.2,1.9.7-1.3h-1.4Zm1.9-12.8-1.1,1.2,1.4.4Z" fill="#c9755b"/>
      <path id="Path_14082" data-name="Path 14082" d="M226.4,313.6l.5.6.3-.6Zm.6-1.1-.1-.9-.7.4Zm1.4,3.9-.7-.1.2.6Zm3.1-5.2-.3.6h.7Zm-7.1,12.3-.2-1.1-.8.5Zm1.7,4.8h-.9l.3.8Zm3.8-6.4-.2.8h.8Zm-2.6-6.2-1.6,1.1,1.5,1Zm4.7-6.3-.4,1.5,1.7-.7Zm-1.2,2.7-.4,1.3,1.2-.1Zm.5-2.2-1.4-.2.3,1.2Zm-.5,3.9-1.7,1.1,1.6.9Zm2.9-3.4-2,.9,1.5,1Zm-4.3,10-2-.3.5,1.7Zm.2-4.2-.7,1.1,1.1.2Zm1.3.8-.7,1.1,1.1.2Z" fill="#c9755b"/>
      <path id="Path_14083" data-name="Path 14083" d="M230.7,318.4l-.6-.4-.2.6Zm-.1,2-1.5-.2.4,1.3Z" fill="#c9755b"/>
      <path id="Path_14084" data-name="Path 14084" d="M228.8,319.6l2.3,1.7.6-2.4Zm.8-3.2,2.2,1.6.6-2.5Zm.8-3.1,2.2,1.7.6-2.5Zm-5.1,3.8-.2-.7-.5.4Zm3.9-2.1-.3-1.2-.9.6Zm-4.9,2.6-.1-.8-.6.4Zm5.9-13.4-.6,1.1,1.1.2Zm2.1,2.7-.7,1.1,1.2.1Zm2.1-3.7-.6-.4-.2.6Zm-5,2.1-1.6-.1.4,1.2Zm4.9,1.3-1.6-.1.5,1.2Zm-1.6-.9-1.6-.2.6,1.3Zm1-3.6-1.6-.2.5,1.3Zm0,1.8-1.5-.2.4,1.3Zm-3.8-1.1-.6,1,1.2.2Zm-1.8,1.6.2-.7-.6.2Z" fill="#c9755b"/>
      <path id="Path_14085" data-name="Path 14085" d="M231.5,308.7l2.3,1.6.5-2.5Zm.7-3.1,2.4,1.8.6-2.4Zm.2-4.1-1.5-.1.4,1.3Zm-3.5,7.8-1.6,1.2,1.5.9Zm5.2-6.5-2-.3.5,1.7Z" fill="#c9755b"/>
      <path id="Path_14086" data-name="Path 14086" d="M235.1,302.6l-1.5-.1.5,1.3Z" fill="#c9755b"/>
      <path id="Path_14087" data-name="Path 14087" d="M233.2,301.7l2.3,1.7.6-2.5Z" fill="#c9755b"/>
    </g>
    <path id="Path_14088" data-name="Path 14088" d="M204.1,420.5c.3-4.4,11.9-45.7,26.6-97.4l14.4-63.8c-1-12.2-15.1,5.1-16.1,3.6l-7.6,1.8s-16.5,3.9-17,9.3c-.5,5.8,5.1,50.3,0,68.7-4.9,18.4-17.7,75.9-15.4,86.4,3.7,17.4,27.9,13.1,26.5-1.1C208.1,424.3,204,421.6,204.1,420.5Z" fill="url(#linear-gradient)"/>
    <path id="Path_14089" data-name="Path 14089" d="M201.8,363.7c11.2.4,16,5,16,5l8.4-30.5-30.9-5.6-5.2,29.6A72.745,72.745,0,0,0,201.8,363.7Z" fill="url(#linear-gradient-2)"/>
    <g id="Group_1034" data-name="Group 1034">
      <path id="Path_14090" data-name="Path 14090" d="M265.3,408.3l-.4,1.2,1.1-.1Zm2.6,1.7-.3,1.2,1.1-.2Zm.6-4-.7-.2v.6Zm-3.7,3.4-1.5.3.8,1.1Zm4.4,3.7-1.6.3.8,1.1Zm.5,2.9-1.5.2.7,1.2Zm-.1-6.7-1.5.3.9,1.1Zm-1.8-.5-1.4.3.7,1.1Zm.1,2.9-1.5.3.8,1.1Zm-.5-6.5-1.4.2.7,1.1Zm.8,1.6-1.4.2.7,1.1Zm-3.7,7-.3,1.2,1.1-.3Zm0-6.8-.3,1.2,1.1-.2Zm.9,8.8-.2.9.8-.2Zm-.3-4.1.7.2v-.6Zm-4.5,4.1.5-.6-.7-.2Z" fill="#c9755b"/>
      <path id="Path_14091" data-name="Path 14091" d="M265.5,422.6l-.9-.1.2.6Zm4.1-.2-.3.6.7.1Zm-4.1-4.5.6.4.2-.6Zm1,2.5.6.4.1-.6ZM268,415l-.2,1.3,1.1-.3Zm2.6,2.5-1.2,1.6,1.5.7Zm-3.1-4.1-1.9.4,1,1.4Zm-5.3-3.6-.8-.2.1.8Z" fill="#c9755b"/>
      <path id="Path_14092" data-name="Path 14092" d="M263.3,409.1l-.1-.8-.6.4Zm-3.7,1.6-.3.7h.6Zm5.6,2.8-.5.6.7.1Zm2.6,1.8,2.7.9-.2-2.6Zm-.3-3.2,2.7,1.1-.1-2.5Zm-.2-3.5,2.6,1.3v-2.7Zm1.8,10.1-.7-1.2-.5,1ZM264.7,392l-.3,1.3,1.1-.2Zm2.7,1.7-.3,1.3,1.1-.2Zm-3-.6-1.6.3.8,1.1Zm4.3,3.4-1.4.2.7,1.1Zm.4,2.7-1.5.4.7,1.1Zm0-6.2-1.5.3.8,1.2Zm-1.7-.5-1.6.3.8,1.2Zm.2,2.6-1.6.2.9,1.1Zm.1-4.6-1.5.3.8,1.1ZM266.1,405l-1.6.3.9,1.2Zm-.5-2.2.2-1.5-1.3.4Zm.9,2.1.2-1.5-1.3.4Zm-2.5-7.8-.3,1.3,1.2-.2Zm.1-6.4-.4,1.3,1.1-.3Zm.8,8.3-.1.9.7-.1Zm-.2-4,.8.3-.1-.7Zm-4.5,3.9.4-.5-.6-.2Zm-2.2-3-.9-.1.2.8Zm4.1-.1-.3.7h.7Zm-3.9-4.6.5.5.2-.7Zm-2.7,14.1-.8-.1.2.8Zm4.1-.1-.3.7h.7Zm-4-4.6.6.4.2-.5Zm7,3.7-.7,1.5h1.4Zm-2.8-1.5.6.4.2-.6Z" fill="#c9755b"/>
      <path id="Path_14093" data-name="Path 14093" d="M263.9,405.7l-.4-.8-.5.6Zm2.5,3.3-.7.1.4.6Zm1.5-5.9-.1.7.7-.2Zm-4.4,3.4-1.1-.3.1,1.1Zm5.5.6-.4.8.8.1Zm-4.6-6.8.8.7.3-.8Zm-.4,10-.4-1.1-.6.9Zm3.2,4-.9.2.5.6Z" fill="#c9755b"/>
      <path id="Path_14094" data-name="Path 14094" d="M268.8,406.9v.9l.8-.3Zm-5.9-7.6-.4-.7-.5.6Zm2.5,3.3-.8.3.4.5Zm1.4-5.9-.1.8.6-.3Zm.8,1.7-.4,1.2,1.2-.1Zm-1,.2-1.3,1.6,1.7.4Zm.3-2.2-2,.3,1,1.5Zm1.4,9.3-2,.3,1,1.4Z" fill="#c9755b"/>
      <path id="Path_14095" data-name="Path 14095" d="M266.5,401.2l-.3,1.3,1.2-.3Zm1.4.4-.2,1.2,1.1-.2Zm-6.1-8-.9-.3.1.8Zm1-.8v-.7l-.6.3Zm-3.5,1.1-.3.6h.6Zm9,9.3-.7-.3.1.7Zm-3.8-6.7-.5.6.7.1Zm4.5,8.8-1.4.2.7,1.2Z" fill="#c9755b"/>
      <path id="Path_14096" data-name="Path 14096" d="M267.1,404.6l2.7,1-.2-2.6Zm0-3.1,2.6,1.2v-2.6Zm.1-2.9,2.6,1-.1-2.6Zm-.1-3,2.6,1.1.1-2.5Zm-.2-3.3,2.6,1.3v-2.7Zm-4.2,10.2-.3-.6-.4.5Zm-1.1-1.6-.6-1.1-.7.9Zm.6,3.6-.4-.7-.3.5Z" fill="#c9755b"/>
      <path id="Path_14097" data-name="Path 14097" d="M263,402.7l-.4-.6-.3.5Zm-4.1-2.3-.5-.9-.6.7Zm3.1,3.5-.9.3.5.5Zm1.1-6.8v.9l.7-.4Zm1.4-11.3-.4,1.2,1.1-.1Zm2.4,1.9-.3,1.3,1.2-.2Zm1.5-4-.6-.3-.1.7Zm-4.5,3.4-1.5.3.7,1.1Zm4.9-.1-1.5.3.8,1.1Zm-1.7-.5-1.6.2.9,1.1Zm.2,2.9-1.5.2.8,1.2Zm.1-6.6-1.5.2.7,1.1Zm.3,1.6-1.5.2.8,1.1Zm-3.9.1-.3,1.2,1.2-.1Zm1.8-13.2.7,1,1.1-.5Zm-1,22.2-.2.8.8-.2Z" fill="#c9755b"/>
      <path id="Path_14098" data-name="Path 14098" d="M264.5,389.4l.7.2V389Zm-4.6,3.9.5-.6-.7-.2Zm-2.1-3.4-.9-.2.2.7Zm4.2,0-.4.7h.7Zm-3.8-4.7.5.4.2-.6Zm3.1,2.3-.9-.2.2.7Zm1.2-1v-.7l-.6.3Zm-3.5,1.6-.3.7h.7Zm7.9.8,2.6,1v-2.5Z" fill="#c9755b"/>
      <path id="Path_14099" data-name="Path 14099" d="M266.8,386.4l2.6,1.2.1-2.5Zm2.6-9.1-1.4.2.7,1.1Zm-3.4,5.3-1.4.2.7,1.2Zm-.2-1.9.2-1.6-1.2.4Zm.7,1.8.3-1.5-1.4.3Zm-4-.8-.8,1.5,1.4.1Zm.4-4.4.6.6.2-.7Zm.4-1.2-.3-.8-.6.5Z" fill="#c9755b"/>
      <path id="Path_14100" data-name="Path 14100" d="M265.7,379.5l-.7.1.3.6Zm1.7-5.8-.1.7.6-.2Zm-3.6,13.9-.5-1.1-.6.7Zm2.9,4.2-.9.2.4.6Zm2-7.2v.9l.7-.3Zm-4.4-5.4-1.3,1.5,1.8.5Zm3.2-7.3-.1,1.5,1.4-1.1Zm-.6,2.8v1.4l1.1-.4Zm-.1-2.2-1.3.2.6,1Zm.6,3.9-1.4,1.5,1.8.5Zm2.1-3.9-1.6,1.4,1.7.6Zm-1.7,10.8-2,.2,1,1.5Zm-1-4.3-.4,1.3,1.1-.2Zm1.4.5-.3,1.2,1.1-.1Z" fill="#c9755b"/>
      <path id="Path_14101" data-name="Path 14101" d="M268.4,380.9l-.7-.3v.7Zm.6,2.1-1.5.2.7,1.1Z" fill="#c9755b"/>
      <path id="Path_14102" data-name="Path 14102" d="M267,382.4l2.7,1.1-.1-2.6Zm-.1-3.1,2.6,1.1v-2.6Zm.2-2.9,2.5,1.2V375Zm-4.4,4.7-.3-.7-.4.5Zm3.4-3.1-.6-1.1-.7.8Zm-4,3.9-.4-.7-.4.5Zm5.3-12.7-.3,1.3,1.1-.3Zm-3.1-.6-1.5.3.7,1.1Zm4.8-.1-1.6.3.9,1.2Zm-1.7-.5-1.6.3.8,1.2Zm-2.3,2.9-1.6.2.8,1.1Zm-.1,3.6-.1.8.7-.1Zm-.2-4.1.8.3-.1-.7Zm-4.5,3.9.5-.5-.6-.2Zm-.7,2.5-.9-.2.2.8Zm4.1-.2-.3.8.7-.1Z" fill="#c9755b"/>
      <path id="Path_14103" data-name="Path 14103" d="M259.7,372.1l.6.4.2-.7Zm2-3-.9-.3.2.8Zm-2.4.2-.4.7h.7Zm7.7,1.9,2.6,1.1.1-2.5Zm-.1-3.3,2.6,1.2v-2.6Zm-2-17.8-.4,1.2,1.1-.1Zm2.6,1.8-.3,1.3,1.1-.2Zm1.2,2.8-1.4.2.7,1.1Zm.5,3.1-1.5.3.7,1.1Zm.1-6.5-1.6.2.8,1.2Zm-1.8-.6-1.5.3.7,1.1Zm.1,2.5-1.5.2.8,1.2Zm1.4-4.8-1.4.5.9,1Zm-3.4,12.8.2-1.5-1.3.3Zm.8,2.2.2-1.5-1.3.3Zm-2.2-7.9-.3,1.3,1.1-.3Zm.1-6.8-.4,1.3,1.1-.2Zm.5,8.4-.1.9.6-.1Zm0-4,.7.3v-.7Zm-4.7,3.7.5-.5-.6-.2Zm-.9-1.7-.8-.2.1.8Zm4.2,0-.4.8.7-.1Zm-3.8-4.7.5.5.2-.7Zm-3,16.4-.9-.2.2.8Zm4.1.1-.4.6.6.1Zm-3.8-4.8.6.4.1-.5Zm9.4,1.8-.8,1.4H267Zm-6.5-3,.6.5.2-.7Zm4.4,2.7-.4-.8-.5.6Zm2.3,3.4-.7.1.3.6Zm1.7-5.8-.1.7.7-.2Zm-4.9,3.7-1.1-.4.1,1Zm5.5.8-.5.8.8.1Zm-4.3-7,.7.7.3-.8Zm-1.5-1.1-.4-.8-.5.6Zm2.3,3.4-.7.2.3.5Z" fill="#c9755b"/>
      <path id="Path_14104" data-name="Path 14104" d="M267.1,355.2l-.2.7.7-.2Zm.6,1.7-.4,1.2,1.2-.1Zm-1,.1-1.3,1.6,1.6.5Zm.5-2.1-2,.2.9,1.5Zm-.7,4.7-.3,1.3,1.1-.2Zm1.5.5-.4,1.2,1.2-.1Zm-3.8-7.1-.9-.3.1.8Zm-1.2-2.2V350l-.6.4Zm-3.6.9-.4.6.7.1Zm8.8,10-.6-.2v.6Zm-3.4-6.8-.6.6.7.1Zm2.2,8.2,2.6,1.1-.1-2.6Z" fill="#c9755b"/>
      <path id="Path_14105" data-name="Path 14105" d="M267.2,359.8l2.5,1.4.2-2.6Zm-.1,5.5,2.6,1.1v-2.6Zm.1-8.3,2.7,1.1v-2.5Zm.2-3,2.5,1.2.2-2.5Zm.1-3.3,2.5,1.4.1-2.7Zm-4.8,10-.3-.6-.4.5Zm-1.1-1.6-.5-1.1-.7.8Zm-1.3,5.7-.3-.7-.4.5Z" fill="#c9755b"/>
      <path id="Path_14106" data-name="Path 14106" d="M262.9,361l-.3-.6-.4.4Zm-.5,1-.5-.9-.5.7Zm2.9,3.7-.9.2.5.5Zm1.5-6.8-.1.9.7-.3Zm.7-12.8-.4,1.2,1.2-.1Zm2.5-1.2-1.6.2.8,1.1Zm-2.9,3.9-1.4.2.6,1.2Zm-1,3.9-.2.8.8-.1Z" fill="#c9755b"/>
      <path id="Path_14107" data-name="Path 14107" d="M266.2,348.6l.7.3v-.7Zm-4.8,3.7.5-.6-.6-.2Zm6-4.6,2.7,1.2v-2.6Z" fill="#c9755b"/>
    </g>
    <path id="Path_14108" data-name="Path 14108" d="M271.3,422.1c-1.6-5-2.3-35.5-1.2-70.9.4-12.8.5-24.8.6-40.3-.1-5.1-1.6-37.6-3.1-47.1-2.5-9-13.8.7-15.3-.5l-.2-.1v.1c.3,1.5-14.7,8.3-13.5,13.7,1.2,5.6,10.4,56.3,11,75.4s3.1,76.1,10.8,83.3c3.2,3.1,10.6,1.6,19.9,0,4.3-.6-8.2-11.9-9-13.6Z" fill="url(#linear-gradient-3)"/>
    <path id="Path_14109" data-name="Path 14109" d="M256.1,366.4c9.3-.4,13.8-5.7,13.8-5.7l.6-37.1-31.3,3.9,3.7,37.7C245.4,366.1,250.4,366.7,256.1,366.4Z" fill="url(#linear-gradient-4)"/>
    <path id="Path_14110" data-name="Path 14110" d="M204.6,417.9l-1-.3c.1-.5,14.1-53.4,23-82.9,3-10,5.2-18.9,7-26l2.3-9.1,9.3-34.2,1,.3c-.1.3-7,25.7-9.3,34.2l-2.3,9.1c-1.8,7.1-4,16-7,26C218.7,364.5,204.7,417.4,204.6,417.9Z" fill="#ba6858"/>
    <g id="Group_1035" data-name="Group 1035">
      <path id="Path_14111" data-name="Path 14111" d="M247,446.2a2.582,2.582,0,0,0,2.6,2.6l56.7-.1a2.582,2.582,0,0,0,2.6-2.6l-.1-2.4-61.8-.5v3Z" fill="#353b68"/>
      <path id="Path_14112" data-name="Path 14112" d="M248.1,432a1.068,1.068,0,0,0-1.5.6,31.976,31.976,0,0,0-.4,4.8,28.961,28.961,0,0,0,.9,5.9l61.6-.5s-.1-3.2-4.8-6.2c-4.6-2.8-31-14.5-31-14.5s-1.3-.3-2.2,1.6c-.8,2-.5,3.6.8,4.7,1.4,1.1,5.7,4.9,5.7,4.9s-.9,1.8-2.5.9c-1.6-1-4.6-2.8-5.4-2.7-.7.1-5,2.4-10.1,3a21.078,21.078,0,0,1-11.1-2.5Z" fill="#353b68"/>
    </g>
    <g id="Group_1036" data-name="Group 1036">
      <path id="Path_14113" data-name="Path 14113" d="M247,442.9l61.7-.2.1,1-61.8.2Z" fill="#6a71ac"/>
      <path id="Path_14114" data-name="Path 14114" d="M283.7,427a14.179,14.179,0,0,1-2.8,6.2,30.852,30.852,0,0,1-2.9,3.2,1.614,1.614,0,0,0,.9,2.8,73.661,73.661,0,0,0,11.2.7l17.7.4a8.238,8.238,0,0,0-3.9-3.8c-2.7-1.4-20.2-9.5-20.2-9.5Z" fill="#6a71ac"/>
      <path id="Path_14115" data-name="Path 14115" d="M263.9,433.4l2-.5-.3,2.1Zm2.3-.7,2.1-.8-.2,1.6Zm7.3-2.7-1.6-1.5,1.4-.5Zm1.9,1.6-1.7-1.4,1.6-.6Zm1.7,1.3-1.6-1.3,1.5-.6Zm-6-5.1-.6-1h1.2Zm-.7-1.3v-1.1l1.1.4Zm-8.7,7.6,2.1-.6-.5,2.3Z" fill="#6a71ac"/>
      <path id="Path_14116" data-name="Path 14116" d="M259.1,434.5l2.1-.4-.6,2.2Zm-2.8.1,2.2-.1-1,2.1Zm-5.7-1.4,1.9.6-1.5.9Zm3.1.9,2.1.3-1.5,1.3Zm9.7,1.3.6-.7.4.9Zm-.5,1.2.1-.9.8.6Zm-1.3-1.4.7-.8.4,1Zm-2.5,1.5v-1.2l1.2.5Z" fill="#6a71ac"/>
      <path id="Path_14117" data-name="Path 14117" d="M257.5,436.3v-1.2l1.1.5Zm1.2,1.6-1.2-.3.8-1Zm-1.9-1.4-1.2-.4.7-1Zm-2.6-.4-1.2.4.1-1.2Zm-1.7-1-1,.6v-1.4Zm3.2,1.7-.6.8-.7-.8Zm.1-1.6-.5.9-.7-.8Zm-1.9-1-.5.9-.6-.8Zm6,3.5-1.2-.3.8-1Zm-3.8.8-1.3-.4.9-1Zm10.2-3.4-.3-1,1,.1Zm2.5-2.1-.3-.9,1.1.1Zm-1.1,1.7.5-.9.6.8Zm-2.4,2.4-.3-.6h.8Zm-2,0-.7-.3.6-.4Zm-1.7-.1-.6-.2.6-.5Z" fill="#6a71ac"/>
      <path id="Path_14118" data-name="Path 14118" d="M261.4,435.9l-.6-.2.5-.5Zm-2.3-.2-.7-.3.6-.6Zm5.7-.7-.6-.3.7-.6Zm1.8.9-.7-.3.5-.5Zm1.5-.5-.6-.4.5-.5Zm1.6-1.5-.6-.3.7-.5Zm4.9-4.1-.8-.3.8-.8Zm-1-.7-.2-.9,1,.1Zm-1.7-.5-.8-.8,1.1-.3Zm-2.3,8.3-.7-.3.6-.6Zm1.5-4.6-.6.4-.2-.8Zm-.9-.3-.6.3-.2-.7Zm2.3,4.6-.7-.5.6-.4Zm4-5.3-.9-.4.8-.7Zm1.3,2.3-.7-.7.9-.4Zm-5.7,0-.4.4-.2-.5Zm.8-5.6-.5.4-.2-.6Zm5.3,3.8-.4.4-.2-.6Zm-2.2-1.9-.4.3-.1-.6Zm-5.8,9.9-.4.3-.2-.6Zm-18.1-1.1-.5.4-.2-.6Zm15.3-5-.6-.4.5-.4Zm-9.9,3.5-.6-.3.4-.5Zm-4.6-.9-.7-.3.7-.5Zm-4.6-4.1,1.8.9-1.5.8Z" fill="#6a71ac"/>
      <path id="Path_14119" data-name="Path 14119" d="M250.1,434.4l-1.2.3.3-1.3Zm-2.9,2.8-.9.5-.1-1.1Zm-.1-1.4-.7.2-.2-1Zm3.2-.2-.6-.5.6-.3Zm-2.2-1.6-.6-.4.6-.3Zm-1.1.7-.7-.4.6-.4Zm20.4,3.5-.5-.2.5-.4Zm-2.3,0-.4-.3.3-.4Zm8.5-11.2v.8l-.7-.3Zm-2.1-.9-.1.7-.5-.4Zm.9.5v.9l-.7-.4Zm4,1.7.4.3-.4.4Z" fill="#6a71ac"/>
      <path id="Path_14120" data-name="Path 14120" d="M274.7,426.9l-.1.5-.4-.2Zm-2.3-.5-.4.3-.1-.4Zm.3.6-.5-.3.5-.3Zm-1.4-1.4-.4-.3.4-.2Zm4.3,3.3-.1.5-.4-.2Zm-4.1-4.7v.5l-.4-.2Zm-20.2,12.9-.5-.3.5-.4Zm5.8,2.6-.5-.2.4-.3Zm-3.5-1.1-.5-.3.3-.4Zm9.8-.1-.3.4-.2-.4Zm-6.5-.9-.3.5-.3-.5Zm4.1-.5-.3.5-.3-.5Zm-1.5,2.7-.3.4-.2-.5Zm2.4-1.4-.3.4-.4-.4Zm-2.1-.1-.2.4-.4-.5Zm-8.2-2.3-.2.5-.4-.6Zm-3.5,1.2-.2.5-.3-.4Zm-1.2,1.2-.5.3-.2-.6Zm.5,1-.5.3.1-.6Zm2.7-3.6-.4.5-.2-.5Zm-1.8,0-.2.5-.3-.5Zm-1.2.3-.2.5-.5-.5Zm1.6-1.5-.2.4-.4-.4Zm-1.1.2.5.3-.6.2Zm-.5-.6.3.3-.5.3Zm0-.8-.2.4-.4-.4Zm1.4-.6-.2.3-.4-.4Zm-1.6,2.3-.2.5-.2-.5Zm3.4-1.5-.3.4-.3-.4Z" fill="#6a71ac"/>
    </g>
    <g id="Group_1037" data-name="Group 1037">
      <path id="Path_14121" data-name="Path 14121" d="M180.5,446.2a2.582,2.582,0,0,0,2.6,2.6l56.7-.1a2.582,2.582,0,0,0,2.6-2.6l-.1-2.4-61.8-.5Z" fill="#353b68"/>
      <path id="Path_14122" data-name="Path 14122" d="M248.1,432a1.068,1.068,0,0,0-1.5.6,31.976,31.976,0,0,0-.4,4.8,28.961,28.961,0,0,0,.9,5.9l61.6-.5s-.1-3.2-4.8-6.2c-4.6-2.8-31-14.5-31-14.5s-1.3-.3-2.2,1.6c-.8,2-.5,3.6.8,4.7,1.4,1.1,5.7,4.9,5.7,4.9s-.9,1.8-2.5.9c-1.6-1-4.6-2.8-5.4-2.7-.7.1-5,2.4-10.1,3a21.078,21.078,0,0,1-11.1-2.5Z" transform="translate(-66.6)" fill="#353b68"/>
    </g>
    <g id="Group_1038" data-name="Group 1038">
      <path id="Path_14123" data-name="Path 14123" d="M180.5,442.9l61.7-.2.1,1-61.8.2Z" fill="#6a71ac"/>
      <path id="Path_14124" data-name="Path 14124" d="M283.7,427a14.179,14.179,0,0,1-2.8,6.2,30.852,30.852,0,0,1-2.9,3.2,1.614,1.614,0,0,0,.9,2.8,73.661,73.661,0,0,0,11.2.7l17.7.4a8.238,8.238,0,0,0-3.9-3.8c-2.7-1.4-20.2-9.5-20.2-9.5Z" transform="translate(-66.6)" fill="#6a71ac"/>
      <path id="Path_14125" data-name="Path 14125" d="M197.4,433.4l2-.5-.3,2.1Zm2.3-.7,2.1-.8-.3,1.6ZM207,430l-1.7-1.5,1.5-.5Zm1.9,1.6-1.7-1.4,1.5-.6Z" fill="#6a71ac"/>
      <path id="Path_14126" data-name="Path 14126" d="M210.5,432.9l-1.6-1.3,1.5-.6Zm-5.9-5.1-.7-1h1.3Zm-.8-1.3v-1.1l1.1.4Zm-8.7,7.6,2.1-.6-.5,2.3Zm-2.5.4,2.1-.4-.6,2.2Zm-2.8.1,2.2-.1-1.1,2.1Zm-5.7-1.4,1.9.6-1.5.9Zm3,.9,2.1.3-1.4,1.3Z" fill="#6a71ac"/>
      <path id="Path_14127" data-name="Path 14127" d="M196.8,435.4l.6-.7.5.9Zm-.5,1.2.2-.9.8.6Zm-1.2-1.4.6-.8.5,1Zm-2.5,1.5v-1.2l1.2.5Zm-1.7-.4v-1.2l1.1.5Zm1.2,1.6-1.2-.3.9-1Zm-1.9-1.4-1.1-.4.7-1Zm-2.6-.4-1.1.4v-1.2Z" fill="#6a71ac"/>
      <path id="Path_14128" data-name="Path 14128" d="M185.9,435.1l-.9.6-.1-1.4Zm3.2,1.7-.6.8-.7-.8Zm.1-1.6-.4.9-.7-.8Zm-1.8-1-.5.9-.6-.8Zm5.9,3.5-1.2-.3.9-1Zm-3.7.8-1.3-.4.8-1Zm10.1-3.4-.2-1,1,.1Zm2.6-2.1-.4-.9,1.1.1Zm-1.1,1.7.5-.9.6.8Zm-2.5,2.4-.2-.6h.8Zm-2,0-.6-.3.5-.4Zm-1.6-.1-.7-.2.7-.5Zm-.2-1.1-.7-.2.6-.5Zm-2.4-.2-.7-.3.7-.6Zm5.8-.7-.7-.3.7-.6Zm1.8.9-.8-.3.6-.5Z" fill="#6a71ac"/>
      <path id="Path_14129" data-name="Path 14129" d="M201.6,435.4l-.6-.4.4-.5Zm1.6-1.5-.7-.3.7-.5Zm4.9-4.1-.9-.3.9-.8Zm-1-.7-.3-.9,1,.1Zm-1.8-.5-.7-.8,1-.3Zm-2.3,8.3-.6-.3.6-.6Zm1.6-4.6-.6.4-.2-.8Zm-1-.3-.6.3-.1-.7Zm2.3,4.6-.7-.5.7-.4Zm4-5.3-.9-.4.8-.7Zm1.4,2.3-.8-.7,1-.4Zm-5.8,0-.4.4-.1-.5Zm.9-5.6-.5.4-.2-.6Zm5.3,3.8-.5.4-.1-.6Zm-2.2-1.9-.4.3-.2-.6Zm-5.8,9.9-.5.3-.2-.6Zm-18.2-1.1-.4.4-.3-.6Zm15.3-5-.6-.4.6-.4Zm-9.8,3.5-.7-.3.5-.5Zm-4.7-.9-.6-.3.7-.5Zm-4.5-4.1,1.7.9-1.5.8Z" fill="#6a71ac"/>
      <path id="Path_14130" data-name="Path 14130" d="M183.5,434.4l-1.2.3.4-1.3Zm-2.8,2.8-.9.5-.1-1.1Zm-.2-1.4-.7.2-.1-1Zm3.2-.2-.6-.5.6-.3Zm-2.2-1.6-.5-.4.6-.3Zm-1,.7-.7-.4.6-.4Zm20.4,3.5-.6-.2.5-.4Zm-2.3,0-.5-.3.4-.4ZM207,427l.1.8-.7-.3Zm-2.1-.9-.1.7-.5-.4Zm.9.5.1.9-.8-.4Zm4,1.7.4.3-.4.4Z" fill="#6a71ac"/>
      <path id="Path_14131" data-name="Path 14131" d="M208.1,426.9v.5l-.5-.2Zm-2.2-.5-.4.3-.1-.4Zm.2.6-.4-.3.5-.3Zm-1.4-1.4-.3-.3.4-.2Zm4.3,3.3v.5l-.5-.2Zm-4-4.7v.5l-.5-.2Zm-20.2,12.9-.5-.3.4-.4Zm5.8,2.6-.5-.2.4-.3Zm-3.6-1.1-.4-.3.3-.4Zm9.8-.1-.2.4-.3-.4Zm-6.5-.9-.2.5-.4-.5Zm4.1-.5-.2.5-.3-.5Zm-1.5,2.7-.2.4-.3-.5Zm2.4-1.4-.2.4-.4-.4Zm-2.1-.1-.2.4-.4-.5Zm-8.1-2.3-.3.5-.3-.6Zm-3.5,1.2-.2.5-.4-.4Zm-1.3,1.2-.5.3-.1-.6Zm.6,1-.5.3.1-.6Zm2.7-3.6-.4.5-.3-.5Zm-1.8,0-.3.5-.3-.5Zm-1.3.3-.2.5-.4-.5Zm1.7-1.5-.2.4-.4-.4Zm-1.1.2.4.3-.5.2Zm-.6-.6.4.3-.5.3Zm0-.8-.2.4-.4-.4Zm1.5-.6-.3.3-.4-.4Zm-1.6,2.3-.2.5-.2-.5Zm3.4-1.5-.3.4-.3-.4Z" fill="#6a71ac"/>
    </g>
    <g id="Group_1039" data-name="Group 1039">
      <path id="Path_14132" data-name="Path 14132" d="M258.3,347.3l.8-.8-1.3-.5Zm-2.8.6.8-.9-1.3-.4Zm2.6-3.6.8-.9-1.3-.4Zm-9.5,3.2h.8l-.4-.7Z" fill="#ad5c49"/>
      <path id="Path_14133" data-name="Path 14133" d="M248.4,342.3l.3.6.4-.4Zm6.5,3.6-.5.3.6.4Zm2.2,2.3.7-.9-1.3-.3ZM246.9,344l1,.5v-1.1Zm11.8-1.3.4-.8H258Zm-.5,2.7,1.2.2-.5-1.2Zm-15.1.9,1.3.2-.5-1.3Zm1.9.1,1.2.1-.5-1.1Zm12.5,2.7,1.1.2-.3-1.2Zm-15.8-1.3.9.1-.3-1Zm-.6-2.7.9.2-.3-1Zm17.8-4.8.9,1.9,1.4-1.9Zm-3,.3.6,2.1,2.3-2.4Zm-6.6.2.7,1.7,1.4-1.8Zm3.1,2.2.9-1.5-1.7-.5Zm6.4,4,.6.5.1-.8Zm-8.8-.8h.9l-.4-.9Zm-6.4,2.7.2.7.7-.6Zm12.2-8.4-2.6.1,1.6,2.6Zm-7,.3h-2.7l1.5,1.8Zm5.6,3.5.5.7.6-.9Zm-13.3-3.6.9,1.8,1.4-1.7Zm4.7,2-1.6,1.2,1.9,1.1Zm8.1.1-1.6,1.2,2.1,1Z" fill="#ad5c49"/>
      <path id="Path_14134" data-name="Path 14134" d="M252.8,345l-.7-.5-.1.9Zm-5.6,1.7-.6-.5-.3.8Zm-5-3.7-.6-.6-.3.8Zm23.8,3.7,1.1.5V346Zm-20.7-2.6,1.2.2-.5-1.2Zm7.5,4.5.8.3.2-.9Zm-2.2-.7.8.4.2-.9Zm10.1-2.9.3-2.5-2.1,1.5Zm-17.3-4.2,1.2,2,1.5-2.1Zm-1.4,3.1.6,1.3,1-1.2Zm19.2,3,.8-.1-.5-.7Zm7.9-6.2.4.5.4-.5Zm-1.1,1.9,1,.2-.2-1Zm-3.8,5,1.3-.1-.7-1Zm.5-2,1.2-.1-.7-1.1Zm1.8-.3,1.2-.1-.6-1Zm-4.7,3.1h1l-.5-1Zm-.7-4.1.9.1-.4-1Zm1.2,1.8.9-.1-.5-.8Zm-2.1,2.6.3.6.5-.6Zm9.1-9.3-2.7.3,1.8,1.6Zm-8,.8,1.1,1.7,1.2-1.9Zm5.3,1.3-1.3,1.4,2,.9Zm2.1,3.7-.6-.4-.1.8Zm-5.6-2.7-.7-.5v.9Zm5.4,1.7,1.2.3-.2-1.2Zm-1.2-2.2,1.1-.1-.7-1.1Zm-3.6-2,1.5,1.9,1.3-2.3Zm-.6,3.4.9,1.2.7-1.4Zm-13.9,1.1,2.2.2-.8-2.2Zm6.4-.1,1.7.2-.6-1.7Zm-2.9,1.2.1,1.2,1.2-.6Zm-41-.7,1-.6-1.2-.7Zm-1.4-1.8,1.1-.7-1.3-.7Zm1.9-1.2,1-.6-1.2-.8Zm-10,1.1.8.1-.2-.8Zm1-5.1.1.6.6-.3Zm5.6,4.9-.6.2.5.5Zm1.6,2.7.9-.7-1.2-.6Zm-9-6.3.8.6.3-1Zm11.8,1.4.5-.8-1.1-.2Zm-1.2,2.5,1.2.4-.2-1.3Zm-12.8-4.6,1.2.4-.2-1.3Zm3.2,2.4,1.1.3-.2-1.2Zm12.4,7.6,1,.5v-1.3Zm-16.3-8.3.8.4v-1Zm-3.1-1.2.9.4v-1.1Zm18.5-.7.4,2,1.9-1.6Zm-3-.5.1,2.2,2.8-1.7Zm-6.4-1.2.3,1.8,1.7-1.4Zm2.4,2.8,1.2-1.2-1.5-1Zm5.4,5.4.5.5.3-.7Zm-8.4-2.8.9.2-.2-.9Zm-8.3,0,.1.7.7-.4Zm15.3-4.3-2.7-.4,1,2.8Zm-7-1.2-2.6-.6,1.1,2.1Zm4.7,4.6.4.8.7-.8Zm-12.8-6.7.4,1.9L198,335Zm2.8,1.5-1.3.7,1.2,1.2Zm9.9,3.6-1.8.9,1.8,1.4Zm-1.7,2-.4-.7-.4.8Zm-5.8.4-.4-.7-.4.7Zm-4-4.8-.5-.6-.4.7Zm22.4,9,1,.7.2-1.2Z" fill="#ad5c49"/>
      <path id="Path_14135" data-name="Path 14135" d="M199.8,338.9l1.1.4-.2-1.2Zm6.3,6,.7.5.4-.8Zm-2-1.1.7.6.4-.9Zm10.9-1.3.8-2.4-2.3,1Zm-16.3-7.2.7,2.2,2-1.7Zm-2.1,2.7.3,1.4,1.2-1Zm18.1,7.2h.8l-.4-.8Zm9.1-4.4.2.6.5-.4Zm-.9,1.7.9.4.1-1.1Zm-5.4,4,1.2.2-.5-1.2Zm.8-1.9,1.3.2-.5-1.2Zm1.9.2,1.2.1-.4-1.1Zm-5.2,1.9.9.2-.3-1Zm.1-4,1,.2-.3-1.1Zm.9,2h.9l-.4-.9Zm-2.7,2,.1.7.7-.5Zm10.9-7.1-2.7-.2,1.4,1.9Zm-8-.9.8,1.8,1.5-1.5Zm4.8,2.1-1.6,1.1,1.8,1.2Zm1.4,4.4-.6-.6-.2.8Zm-4.9-3.9-.5-.6-.3.8Zm4.9,2.9,1.1.6v-1.2Zm-.7-2.5,1.1.2-.4-1.2Zm-3-2.7,1,2.2,1.7-2Zm-1.4,3.2.6,1.3,1-1.2Zm-13.8-2,2.1.6-.3-2.3Zm5.8.4,1.6.6-.2-1.8Zm-2.6,1.4-.2,1.2,1.3-.3Z" fill="#ad5c49"/>
    </g>
    <path id="Path_14136" data-name="Path 14136" d="M175.4,324.7c-.1.4-.3,1.7,0,2.1,9.4,4.6,11.8,7.3,39.9,10.9,46.7,6.1,72.4-2.3,82.3-4.9a2.981,2.981,0,0,0,2.2-3.6c-2.1-8.7-10-39.1-16.3-61.9l-16.7-59.5H196.1s-3.2,50.3-11.4,84C181.5,305,179.3,311.8,175.4,324.7Z" fill="#575e90"/>
    <g id="Group_1040" data-name="Group 1040">
      <path id="Path_14137" data-name="Path 14137" d="M188.2,284.9l.3.2.2-.5h.3l-.2-.3v-.1h-.1l-.2-.3h.2l1.2,1.8.4-1.5v.1l1.1-1.1-1.6-.4.3.8-.8.1-.1-1.1.6-.2,1.8.2-.2-.6h.1l-.1-.1-.6-1.7-.5.9-.7-.6,1.4-1.9-3-.5.5,1.5-.8-.3-.6,4,.7-.4-.1.4.2-.1-1.3,1.5,1.6.2Zm-.3-1.8h0l-.1.2-.1-.1.2-.1Zm3.4,6,.1-1.9-2.2.9.7.4-.5.6,1.1.1-.4-.7,1.2.6Zm-2.7-12,.9-.2.2.9,1-1,.2.8.1-.1.6,1.5-.8.4.8.4.1-.7,1.2-1.3.2.3.6-1h-.3l-1.3-.4.4-.4-.6-.2.5-.8-.7-.1,1-.2-.5-.5.4-.3-.8-.3v.4l-.8-.7-1.8-1.5v.1l-.2-.2-.5,2.6-.3,1.1h.1l-.1.1.6.3.2.6-.7-.7.3,1.1Zm-3.8,18.5.9-.2.2.9,1-1,.2.8.1-.1.6,1.5-.8.4.8.4.1-.7,1.2-1.3.2.3.6-1h-.3l-1.3-.4.4-.4-.6-.2.5-.8-.7-.1,1-.2-.5-.5.4-.3-.8-.3v.4l-1-.8-1.8-1.5v.1l-.1-.1-.5,2.6-.3,1.1h.1l-.1.1.6.3.2.6-.7-.7.4,1.1Zm19-60.6h.9l-.4-.9Zm-4.9,1.4h-.2l.2-.2-2.2-.6.9,2.2.6-.9Zm-.8,17.8-.2-1.6-1.4,1.1,1.6.5Zm-1.3,8.8-.1-1.6-1.3,1.2,1.4.4Zm11.7-6.3-.1-1.6-.3.2-1-.4.2,1,.9-.6-1,.8,1.3.6Zm-6.9-10.8-1.3,1.1,1.5.5Zm-1-2.1-.2-1.6-1.3,1.1Zm-4.1,25.7v-.4l.1.3,1.2-1-1.5-.4v.2l-.9.9,1.1.4Zm-.9-37.2.1.2-.7.2.6.7.3-.5.7-1.4-.6.1-.4-.4v-.1l-.1.1-.2-.2.3-.2-.6-.2v.2l-.4-.9-.4,2.6.7-.3.7.1Zm0-.5Zm-1.1-2.4,1.2.4-.1-1.4-1.1,1Zm14.2,4.1-.7.4.4.3-.2.3.7-.1-.2-.3v-.6Zm-11.6-.2.1-1-.9.6.8.4Zm1.8-4.4,1-.2-.8-.6Zm15.4,2-.4.6.6.1-.2-.7Zm-1.2-2.8.5-.3-.6-.2Zm4.5,1.3.5.4v-.6l-.5.2Zm-16.8-3.1.3-.8-.8.1Zm-3.4,25h0l.4,1.2,1.5-1.4-2.2-.8Zm6.5,4.8-.9.1.5.9Zm-9.6,1.3.4,1.1,1.4-1.4.1.6-.1.1.2.1v.1l.7.2v-.5l1,.3-.4-1.9-1.1,1.1-.7-.2.5-.5h-.1l1.1-.3-1-.6-.1,1-.8-.2.4.9h.1v.2l-1.3-.5-.1-.2-.1.1-.6-.3.3.9-.1.2.3-.3Zm3.8-12.8-.5,1h.3l.1,2.1.4-.3-.2.3h.1l.1.3-.2-.1.4,1.4.2-.1.5.1-.1-.4.8-.7-.8-.1.1-.2-.6-.2h.5l-.4-.7,1-.7-1.6-.7h.4l-.5-1Zm9.9,7.3h-1.2l.7.9Zm-1.8-5.1.9-.5-1-.3Zm-4.3,14.1.1.8.9-.5Zm-5.8-1.5-1,.1.7.6Zm7.3-9.9.3-.6-.8.1Zm-.9-4.6v.5l.5-.3Zm-.4-7.1V237l-.6.2Z" fill="#7585bc"/>
      <path id="Path_14138" data-name="Path 14138" d="M204.2,240.5l.7-.1-.3-.4Zm-5.3-.3.3.6.4-.4-.7-.2Zm8-10.7-.6.2.5.5Zm-3.1,3.6.4-.4-.6-.2.2.6Zm-5.4-5.4.1-.7-.6.2Zm2.1,2.6h.6l-.3-.4Zm-.1-6.9-.3.4h.5Zm-4,.3-.5-.2.1.5Zm18.4,14.4.6-.4-.6-.3Zm-3,5.4-.6.1.5.4Zm-4-5-.2.5h.6l-.4-.5Zm4.4,15.4.5-.1-.4-.4Zm-2.2-5.4.4-.5h-.6l.2.5Zm-8.6,8.3.3-.1-.8-.6-.2,1.1.4-.2-.5.5-.6-1-.6,1.1-1-.3.9,1.9-.3.3-.1-.2-.5.8,1-.1-.1-.2h.5l-.2-.5,1.3-1.4h1.5l-1-1.1Zm-1,1.2Zm-4.3,13.1.9-.7-1.8-.9v2.3l.9-.7.5,1.6,1-1.1-1.5-.5Zm-3,4.6-1.3-.4,1.6-1.4h-.1l.4-.3.1.2.6-.7-1-.3.1.6-.5-.3v.7l-1.7-.6.1,2.3.1-.1.6,1.4.3-.3.6,1.5,1.3-1.5-1.4-.4.2-.4Z" fill="#7585bc"/>
      <path id="Path_14139" data-name="Path 14139" d="M198.3,271.2l.1-.6-.6.3.5.3Zm6.7-14.7-.8,1.1h1.4l-.6-1.1Zm-4.8,6-.2-.3-.5.8h.6l.1.5.6-.7-.6-.3Zm-2.1-9.2.8.6.2-1.1Zm1.2-20.3-1.2.2.6.9.6-1.1Zm3.6-3.9-.4-.9-.6.6,1,.3Zm1.5,6.6v.9l.9-.6-.9-.3Zm-9.9,2,.5-.6,1.6-.5-.9-.6.2.1v-.5l1.3.4v-.1l.8-.7-.9-.3-.1-.7-1,1v-.4l.3-.2-.5-.1.6-.5-1.7-.5.3,1h-.1l.2,1.1-.2.2-.8-.5-.3,2.6.5-.1.2-.1Zm6.4,1.2-.2-.5-.4,1h.4v.3l.4-.2h.1v-.1l.3-.2Zm-.5-2.4-1,.7,1.3.3Zm-.7-4.8-.4-1-.6.6Zm2,2.4v1l.9-.6Zm-4-3.1-.5-1.1-.5,1Zm0-5.3.2.9.8-.6-1-.3ZM206,224l-.6.3.6.5Zm-8.4,2.5-.2-1-.7.8Zm-1.2-5.8.1.7.8-.4-.9-.3Zm6,4.3.1-.8-.7.3.6.5Zm-1,4.5v1l.9-.6Zm-7.2,56.4-.1-1.4-1,1Zm-1,1.3-.1-1-.7.7Zm-.3-5.8v.7l.8-.3-.8-.4Zm4.8,4.7.5.7.2-.7Zm3.8-1.4.3-.8-1,.1.7.7Z" fill="#7585bc"/>
      <path id="Path_14140" data-name="Path 14140" d="M196,283.8h.7l-.3-.8Zm4.5-4.5.7-.5-.7-.2Zm1.8-1.6.3-.8-1,.1.7.7Zm-4.9-.5-.3-.8-.4.6.7.2Zm3.9-5.4.1.7.7-.5Zm-7.1,16.5.2-.8-1,.2.8.6Zm-.3,2.3-.3-.7-.3.7Zm-1-7.3-.4-1L191,284h.4l1.3.2v-.1h.6l-.1-.3.4-.4-.7-.1Zm-.1,3.2-.4-.7-.3.7Zm-.6,3.4.7-.2-.6-.7-.1.9Z" fill="#7585bc"/>
      <path id="Path_14141" data-name="Path 14141" d="M192,290.5l.9-.4-.8-.4-.1.8Zm2.2-4.2-.1.7-.3-.1.4,1.1.6-.7-.4-.1.7-.3Zm3.4-21.8-.5.4,1.7.6-.1-1.1.3.1.8.5.2-1.2-.4.2-.5-1.4-.6,1-.2-.3-.3.4-.4-.7-.3.6v-.1l-.5.6Zm0-.3-.1.1h.3l-.2.2v-.3Zm-12.2,25.3,2,1,.9-3.3.2-.1-.3-.3.2-.5H188l-1.7-.6-.4,2h1.2Zm14-33.8-.4-1.9-1.4,1.4,1.8.5Zm-.8,21.8-.4.3h-.1l-1,1,1.6.5-.1-1.1.9.7.4-1.5-1.3.1Zm-1.8-9.6v-1.3l-1,.9Zm-.2-7.1,1.1-.3-1-.6Zm7.3,6.4.4-1.1-1,.2Zm5.8-4.2-1.3.2,1,.9Zm-8.1-.7-.6,1,1,.1ZM212.3,278l.4-1.1-1.3.2.9.9Zm-11,10.1.4-1.1-1.3.2.9.9Zm-3,4.7.4-1.1-1.3.2.9.9Zm5.3-16.5-.6,1,1,.1Zm7.1-5.6,1-.6-1-.3Z" fill="#7585bc"/>
      <path id="Path_14142" data-name="Path 14142" d="M200.3,291.5l1,.1-.3-1.1Zm8.7-6.4,1-.7-1.1-.3Zm-3.5,3.6.4-1h-1.3l.9,1Zm-7.8-.9,1,.1-.4-1.1Zm6.4-6.4,1-.6-1-.4Zm-3.9-4.5-.7-2.4-.9,1.2-.2-.4-.7,1.1h.5l-.1.1,2.1.4Zm3.6-4.3-1-.4.1,1Zm-9.2,8.6-1-.3.4,1.1.6-.8Zm5.4-14.6-.7,1.2,1.4-.1Zm-6.1-2.3.1-1.1-.9.7.8.4Zm.8,22.7.3-2.3-1.8.7,1.5,1.6Zm-2.3-7.7v-.5l-.6.7-1.1.1,1.3,1.9.5-1.3.2.1v-.6l-.3-.4Z" fill="#7585bc"/>
      <path id="Path_14143" data-name="Path 14143" d="M203.9,258.7l-1.3.1,1,1Zm1.8,2.1,1,.1-.4-1.1Zm-16.8,10.5.9-.8.4.1v-.1l.4-.1-.3.3-.8.2.3.3h-.1l.5.2.2.2-.6.5.3.1.5.5-.1.1.8.4.1-1.1-.4.2.1-.4h-.2l.1-.3h.1v-.3l.2-1.1-.4.1v-.2l.6-.1.2.6.8-.9h.2l-1.2,1.2,1.6.4-.2-1.8.3-.5.5-.5-.5-.2,1.7-.3-1.8-2.5-.7,2.3-.1-.4.5-.8-.6-.1-.1-1,1.1-.2.4.2v-.8l-.5.3-1.4-1.1.9-1,.2.2.3-.4.5,1.4-.2-.1.4,1.4.1-.1.1.3,1.6-2.1-2.9-.8.3-.5-1.2.2-.5-.2V262l-.1.1-.4-.2,2.2-.7.3.9,1.4-1.5-.7-.2-.7-1.9-.3.3V258l-.9,1-.1-.7.8-.9-1.7-.5,1.2-.3-.1.2.9-.4,1.5-.4-.5-.4,1.4-1.5-.3-.1,1.2-1.4-.5-.2.5-.5-2.1-.6.3.9-.1-.1v.1l-.5-.2.1-.1-1.7-.5,2.1-.6.9.8.3-.9-1.1.1,1.1-.3-1.3-1.1.1-.3.3.2.1-1.1-.4.2.1-.4-1.1.3.5.5-.2.1.3.2-.2.1-1.4-1.6-.4,3.5-.4,1.8.8-.4.3,1,.5-.5.3.3.1-.8.1-.1.3.8h-.4l.7.6v.1l-.9-.3.4,1.1-1.4-.2-.2-.5-.4-.6-.6,3.8.5,1.5-.5.4-.3-.7-.5,4.1.7-.3.1.5-.4.3-.9,3.2.4,1-.7-.1-.8,4.2Zm4.5-16.7.4,1.1-.9-.6Zm-1.5,4.9-.2.1.9.3-.2.3-1.4-1.1.9.4Zm-.6,4.1h0l-.1-.1ZM191,266h.3l-.5.4Zm-.2,1.9.5.2.3.6.3-.4.4.1-.1.3h.6l.1.5-.8.2-1.3-1.5Zm-1.2-1.6.6-.1.3.3h-.1l.1.2-.9-.4Zm10.6,4.8-.2.2-.4-.2v.4l-.4.6,1.1-.1-.1-.3h.6l-.6-.6Zm2.3-3-1.1,1.5,1.9-.1-.8-1.4Zm-12,24.3-1.1,1.5,1.9-.1-.8-1.4Zm-1.1-2.8-1.4,2,2.5-.2Zm5.6-10.7-.1-.2-.1.1-.5-.2.5-.2-1-.7-.3,1.3.8-.4.1.6-.4.5h.5l.4,1.1,1.4-1.4-1.3-.5Zm6.3,2-.8.6.6.3Zm4.4-11.6h1.6l-.7-1.1-.9,1.1ZM192,293.5h1.6l-.7-1.1-.9,1.1Zm9.7-18.8-.8-.3-.2-.4-.2.2-.4.6.7-.1.1.6.8-.6Zm-5.3-24.8,1.9-1.4-1.7-.9-.2,2.3Zm5.1-8.4-.4-1.9-1.4,1.3,1.8.6Zm12.1,12.4.4-1.1-1.3.1.9,1Zm-6.9-1.9-.7.9,1,.2-.3-1.1Z" fill="#7585bc"/>
      <path id="Path_14144" data-name="Path 14144" d="M213.3,246l-1.1-.4.1,1Zm-10.8,3.9-.9,1-.2-.3-.3.4v-.1l-.2.2-.4-.7-.7.9h1l-.3.3.7.1,1.8.3-.5-2.1Zm3.2-.8,1-.6-1.2-.4Zm-2.8,3.8-1.8.2,1.2,1.3Zm-3.3-7.6,1.2-1-1.6-.4.4,1.4Zm3.8-3.4h0v-.4l-.8.4.5.5-.5.7,1.4-.1-.6-1.1Zm-6.9-2.6.3,1.1,1.5-1-1.1-.2.1-.6-.7.5Zm-3.6,3.6-.6,3.8.7-.2-.1.6-.1.1-.1.3.5-.1,1.2.4-.1-.7h.1l-.1-.1-.1-.7,1.2-.3.3.3-.8.7.5.2.9.5v-.3l.4.2-.1-1.5.2-.3h-.2v-.1l-.1.1-.4-.4,1.1.1-.4-1.1,1.7-.3-1.6-2.6-.6,1.5v-.1l-1.1,1.7-.9-.7.5-.5h.1l.4-.3.4.2-.1-1.3.1-.1h-.1v-.1l1.6-.4-1.9-1.4.1-.1v.1l.9-1,.1-.2.3-.3h-.1l.2-.4-.9.2-1.4-.4.8,1.7-.5-.2v.1l-1.1-.9-.6,3.8,1.8-.5v.1l-.7.6-1-.3.3.8v.1l-.6-.3Zm3.5,2.7Zm-2.6.7-.1.1-.1-.1h.2Zm9.2.6-.4.5-.1-.2-.5.8,1.1-.1-.2-.3h.6l-.5-.7Zm2.4-3-1.2,1.5,1.9-.1Zm3,1.3,1.6-.1-.7-1.1-.9,1.2Zm-3.7,4.8-.8-.4-.2-.4-.2.2-.5.6h.7l.1.6.9-.6Zm-2.2-9.4.7-.6-.5-.2v-.1l-.2.1-.1-.1v.1l-.9.5,1,.6Zm-5.9-16.7-1.1.3,1,.7Zm-13.3,91.9.4,1.7,1-1.3-1.4-.4Zm3.4-7.6.4,1.7.9-1.3-1.3-.4Zm6.8,11.2.5,1.2-.4-1-.8.8,1,.2.1.3.8-1.4-1.2-.1Zm-3.7-16.9.4,1.3-.1.2,1.6.5-.5-1.5-.2.2.3-.3-1.5-.4Zm-7.3,16-.8.7,2.3.5-.4-2Zm8.6-1.4-.9.5.8.5.1-1Zm-8.2-5-.1.2-.7.6.6.1v.1l.2-.1,1.5.3-.2.1-.1-.1-.8.5.8.2-.4.8h1.1l-.8-.7.1.1-.1-.7.8.1.3,1.5,1.2-1.5-1-.3.4-.4-.8-.1-.1.1-.2-.1v.1l-.5.3-.5-2Zm9.5,1.1-.6-.9-.5.6Zm-6.7-2.6-.9.2.9.5Zm10.5,13.9.6-.1-.3-.4Zm-5.8-8.8-1.3-.8-.4-1.9.5-.2-.4-.4.2-.1-.8-.6.1,1,.2-.1.1.4-1.7,1.2,1,.3v1.2l1-.6.1.7-.1-.4-.4,1.1.9-.1-.2-.2,1.2-.5Zm-1.7-.9Zm4.3-13.2-.3-1.5-1.2,1-.4-1-1.3,2,2,.2-.5-1.1Zm-.3.5.4.6.3-.6Zm.4,15.5-1.2-.7.2,1.3,1-.6Zm-1.5-6.9-.2-.9-.4.3-.5-.4.1,1,.3-.1.7.1Zm-6.7,7.4.4-1-1,.1Zm17-25.9.9.5.1-.9Zm-2.9,4.6.8.1-.4-.8-.4.7Zm.2,1.9.9.5.1-.9Zm-4.3-2.5.1.7.7-.6Zm2.1,7.1-.4-.8-.5.6.9.2Zm-3.3-21.6.1.7.6-.5-.7-.2Zm-1.3,1.3.8-.5-.7-.4Zm4.4-.4h.9l-.6-.7-.3.7Zm-8.1,24.9.2.8.1-.1v.7l.7-.5v.5l.3-.1v1.1l1.1-1,.1.4.5-1.1-1,.1-.3-.1.6-1-1.8-.4.2.7h-.7Zm.6.4.2-.2v.2Zm-4.2,7.9.5,2,1.2-1.5Zm11.7-19.2,1.1.8.5-1.5-1.2.2.6-1-1.7-.5.3,1.4.1.1.3.5Zm-7.3,7.6.4,1.4.7-1.1-1.1-.3Zm-3,7h1.1l-.8-.7Zm9-2.4.8.6.2-1.2Zm3.5,4.3-1.4.4,1.2.7Zm-6.3-2.3-1-.4v1.1Zm-.3-11.5,1.2.7.1-1.3-1.3.6Zm9.2.3-1-.4v1.1Zm.9,9,1.1.1-.6-1Zm2.8-22.1.8-.8-1-.4.2,1.2Zm1.7,8.4,1.2.2-.6-1-.6.8Zm-13-1.3,1.1.7.1-1.1-1.2.4Zm-7.4,2.4,1.1.7.1-1.1-1.2.4Zm16.4.8,1.1.1-.6-1Zm-7.3.6h0l-.4-.3.1,1.2.4-.1.2,1.5,1.8-1.7Zm2.7,5.1-.6.9,1.1.1Zm-4.5,3.9-1.2-.7.1,1.4,1.1-.7Zm-8.7-.4.5,1.1.4-1Zm7.3,8.6-1.4.3,1.2.7Zm2.3,1.2.9-.7-1-.4Z" fill="#7585bc"/>
      <path id="Path_14145" data-name="Path 14145" d="M182.5,301.2l1.7.4-.8.7-1.2-.4-1,3.6,1.6.2.1.5-.4.3-1.4-.6-1.1,3.6,1-.2.2.7-1.5.8-1.1,3.4.7.1.5-.2,1.3.6-.9.7.9.2-.1.1-.9.2.3.3-.7.6v-.1l.2-.7-.4.1-.1-.7-.8.8-.5-.9-.7,2.3.5,1h1.6l1,.6.2-.9-1.2.2-1-1h1.3v-.1l.5.2-.1.1h.1l-.7.6,2.2.4-.1-.7.5.2-.4-1.8.3.1-.4-2,.6-.1-1-1.1-.5-.8-.1.2-.9-.8,1.9.4-.2-1.2.5-.6.3,1.3.5-.6.1.4,1.4-1.3.8.1-.4-2-.7.6-1.6-1.6.4.1v.1l.2-.1.5.2.9.8.1-.6,2.8.7-.4-2.7-.2.2V306l-1,1,.2.1-1.1,1v-.5h-.2l-.3-1.3,1.8-.2.3.6.4-.7-.4-.1-.9-.7.7-.8.5.4-.1-1,.3-.2-.5,2.4,2.7-1.3-1.3-1.1.5.2-.1-.7.1-.6,1.1-1.4-1.7-.5.4,1.6-.1-.2-.2-1.2-.5.3-.3-.5.2-.1.2.3.4-1.1.2-.3-.4-.5.1-.3.1.2.2-.4.1.4.4-1-1-.1v.1l-.7.1-.3-.1.3.7h-.2l-.5-.2v.1l-.4.1.6.6.1.4-.2-.3.1-.1-.4-.2-2.5-2.6-.9,4.9Zm-1.8,12.5,1.1-.1-.9.7-.2-.6Zm.4-4.4,1.8-.2v.4l-.9-.2.1.2-1-.2Zm2.4-3.8Zm1.1-2.6.2.7-.3-.2Zm.7-1.4,1.9-.4.6.6-.4.3-.4-.4-.1.3-.4-.2v-.5l-.6.3h-.6Zm-1,1-.2.1.1.1-.4.1-.3-.5.8.2Zm11.5.4-.5-.4.2-.2-1-.6.1.7-.3.3.4.1v.2Zm1.2,3.2-1.6-1,.2,1.8,1.4-.8Zm4.1-11.8h-.7l.4.9Zm-2,14.4,1.2-.6-1.4-.8Zm-8.2-9.8,1.6-.9-1.9-1.1.3,2Zm6.8.9-.4.4-.7-.4.1.7v.2l.4-.1.9.1-.3-.9Zm-4.8,21.8,1.1.8.2-1.2-1.3.4Zm-1.4.6-.9-.4v1.1Zm-3.7-1.9-1.7-.8-.6-.3.1.4-.8-.6v1.1l.8-.4v.2l.1-.1v.5l.3-.1.2,1.3,1.6-1.2Zm.7-1.8-1.8.4,1.4,1.2.4-1.6Z" fill="#7585bc"/>
    </g>
    <g id="Group_1041" data-name="Group 1041">
      <path id="Path_14146" data-name="Path 14146" d="M175.2,324.2a3.014,3.014,0,0,0,1.5,4.2c4,1.9,8.4,4,23,7.2,44.5,9.8,75.7,2.7,85,1.2,5.5-1,9.7-2.3,13.3-3.1a3.086,3.086,0,0,0,2.2-3.7l-1.6-6.2s-3.7,1.5-22.3,4.1c-15.5,2.1-31.9,3.6-49.3,2.1-33.2-3.5-49.9-11.9-49.9-11.9a43.839,43.839,0,0,1-1.9,6.1Z" fill="#8a90bc"/>
      <path id="Path_14147" data-name="Path 14147" d="M286.6,334l-15.5-75.6-10.6-50,1.5-.3c0,.2,4.2,21.6,10.6,50,6.5,28.4,15.4,75.2,15.5,75.6l-1.5.3ZM268,337c-.1-.5-5.4-54.7-9.4-80.8s-5.9-47.8-5.9-48l1.5-.1c0,.2,1.9,21.9,5.9,48s9.4,80.3,9.4,80.8l-1.5.1Zm-19.2,1.4h-1.5c0-.2.4-16.3,0-45.6-.4-29.2-2.7-84.1-2.7-84.7l1.5-.1c0,.6,2.3,55.4,2.7,84.7Zm-17.8,1-1.5-.2c0-.2,2.6-17.4,4.2-46.5,1.9-34.9,1.6-83.8,1.6-84.3h1.5c0,.5.3,49.4-1.6,84.3C233.7,321.9,231.1,339.2,231,339.4Zm-15-1.7-1.5-.3c0-.2,3-15.4,6.3-44.4,3.9-34.9,5.1-84.4,5.1-84.9h1.5c0,.5-1.2,50.1-5.1,85.1-3.2,29.1-6.2,44.4-6.3,44.5Zm-16.6-2.6-1.5-.4c0-.1,3.9-14.8,9.4-43.6,6.6-34.2,8.9-82.6,8.9-83.1l1.5.1c0,.5-2.3,49-8.9,83.3C203.3,320.2,199.5,334.9,199.4,335.1Zm-12.3-4-1.4-.5c0-.1,3.8-10.8,9.3-39.5,6.6-34.3,11.3-82.6,11.4-83.1l1.5.1c0,.5-4.8,48.9-11.4,83.3-5.6,28.9-9.4,39.6-9.4,39.7Z" fill="#8a90bc"/>
    </g>
    <path id="Path_14148" data-name="Path 14148" d="M192.2,248.1s14-7.9,26-10.3c32.6-6.7,57.5,1.8,57.5,1.8s-2.7-9-3.9-13.9l-5.1-18H196.1s-.7,12.5-1.8,21Z" fill="url(#linear-gradient-5)"/>
    <g id="Group_1042" data-name="Group 1042">
      <path id="Path_14149" data-name="Path 14149" d="M242.6,212.5l.2,1.4-1.5-.4Zm2.1-3.2.2,1.4-1.5-.4Zm-5.6.5h-.8l.4-.9Zm5.1,5.2-1.3.9-.3-1.9Zm4.2-5.4-1.4.9-.3-1.8Zm3.5-.5-1.4.9-.2-1.9Zm-7.6,0-1.4.9-.3-1.8Zm-.6,2.1-1.4,1-.3-1.9Zm2.9-.2-1.3.9-.3-1.8Zm-7.3.1-1.4.9-.3-1.8Zm1.9-.4-1.4.9-.3-1.8Zm17.6,2.3-1.4.9-.3-1.8Zm-5.9,1-.4-1.6,1.8.3Zm2.7-1.2-.4-1.6,1.8.3Zm-7,.6.3,1.4-1.6-.4Zm-7.7,0,.2,1.4-1.5-.5ZM258,215l.2,1.4-1.5-.4Zm-7.3-2.3.2,1-1.1-.2Zm-6.3,0h.8l-.4.9Zm4.3,6.7.2-.8.7.6Zm-2.1,3.3-.9.2.2-1.1Zm.1-6.4-.1.9-.8-.4Zm-6.7,4.3.7.2-.6.7Zm17.7,5.3-.9.2.2-1Zm.1-6.3v.8l-.8-.4Zm-6.7,4.3.8.2-.6.7Zm17.6,1.6-1,.2.2-1Zm-.4-6.4.1.8-.8-.3Zm-6.4,4.7.8.2-.6.7Zm3.2-1.1-.9.3.2-1.1Zm.1-6.2v.8l-.8-.5Zm-6.8,4.2.8.2-.6.7Z" fill="#2e345b"/>
      <path id="Path_14150" data-name="Path 14150" d="M267.3,215.8l-.4.9-.7-.9Zm-4.5-4.3.6.5-.9.4Zm-1.5,7.9.6-.5.2.9Zm-3.5-3.9v1.8l-1.8-.9Zm-4,3.3.8.2-.6.7Zm5.9-2.4-.4-.9h1Zm-4-.1-.7-.7.9-.4Zm5.2-3.6-.7.5-.1-.9Z" fill="#2e345b"/>
      <path id="Path_14151" data-name="Path 14151" d="M253.6,209.6l.2.8-.8-.1Zm4.2,7.4-1.3.1.5-1.4Zm1.3-8.4-.2,1.1-1-.7Zm-9.8,4.5,1.1.4-1,.8Z" fill="#2e345b"/>
      <path id="Path_14152" data-name="Path 14152" d="M261,217l-1-.7,1.2-.6Zm6.1-4.7-.7.5-.3-1Zm-9.2-3.4.3,1-1.1-.1Zm-7.7,7.8-.7-.6,1-.5Zm5.2-3.6-.7.5-.1-.9Zm-7.4-3,.3.8-.9-.1Zm2.3-1,.2,1.4-1.5-.4Zm1.5,1.6-.7,2.1-1.8-1.6Zm-2.6,1.2-1.8,1.1-.4-2.4Zm9.1-.7-1.9,1.1-.3-2.4Zm4.7.1-1.9,1.1-.3-2.4Zm.8,1.1-.7-2.1,2.4.2Zm-1.8,2.1.4-1.6,1.4,1.2Zm4.3,1.4.4-1.6,1.4,1.1Zm-8.3-2.7.5-1.5,1.4,1.1Zm6.5.4.4-1.6,1.4,1.1Z" fill="#2e345b"/>
      <path id="Path_14153" data-name="Path 14153" d="M264.5,209.7l-1.9,1.1-.3-2.4Zm-10.7.7.2,1.4-1.5-.4Zm.5-1.8.2,1.4-1.5-.4Zm-10.6,9.5-.9.1.2-1Zm-2.1-1.4-.4-.8h.9Zm2.6,3.1-.1.8-.8-.4Zm11.3-9.7h-.8l.3-.9Zm-7.6,3.2-.1.8-.8-.5Zm11.5-4.5-1.4.9-.3-1.8Z" fill="#2e345b"/>
      <path id="Path_14154" data-name="Path 14154" d="M254.9,207.9H258l-1.3,3.2Zm3.3,0,3.1-.1L260,211Zm-7.3,0,3.1-.1-1.3,3.2Zm12,0,3.1-.1-1.3,3.2Z" fill="#2e345b"/>
      <path id="Path_14155" data-name="Path 14155" d="M265.1,209.7l1.6-1.9.7,2.6Zm3,10.7,1.6-1.3.7,2.2Zm-21-12.5,3.1-.1-1.2,3.3Zm-3.2,0,3.1.1-1.5,3.1Zm-3.9,0h3.2l-1.5,3.2Zm25.2,1.6-1.4.9-.3-1.8Zm-3.3-1.2.3,1.6-1.8-.5Zm4.2,2.5,1.6.4-1.2,1.4Zm1.8,1.5.7,2.4-2.3-.2Zm1.3,4.6.4,2.1-2-.3Zm-4.1-3.4.4,2.4-2.2-.5Zm-3.4-2.1.6,3-2.8-.6Zm9.4,13,.5,1.5-1.5-.3Zm-2-2.3.4,1.3-1.3-.3Zm-3.4-3.8.2,1.1-1-.2Zm-7.8-5.8.4,2.1-2-.4Z" fill="#2e345b"/>
      <path id="Path_14156" data-name="Path 14156" d="M264.1,215.9l-.7,2-1.5-1.3Zm3.2,1,.5,1.8-1.8-.2Zm-6.3.9-.7-.7,1-.5Zm5.1-3.9-.6.5-.3-.9Zm-7.6-2.6.4.7H258Zm-4.9,5.8-.6-.5.8-.4Zm-2.1,1.9-1.1-.8,1.4-.7Zm4.4-1.2-.6-.5.9-.4Z" fill="#2e345b"/>
      <path id="Path_14157" data-name="Path 14157" d="M253.9,216.8l-.5-.5.7-.4Zm5.7,1.2.2.6h-.7Zm-8.7,4.1-.8-.7,1-.6Zm5.6-4.4-.7.5-.3-1Zm-8.5-2.9.4.8h-1.1Zm-25.5-2.3.2,1.4-1.5-.4Zm2.1-3.2.2,1.4-1.5-.5Zm-.4,5.6-1.4.9-.3-1.8Zm4.1-5.3-1.4.9-.3-1.8Zm3.9-.6-1.4.9-.3-1.9Zm-8,0-1.4,1-.3-1.9Zm-.6,2.2-1.4.9-.3-1.8Zm3-.2-1.4.9-.3-1.8Zm-5.5-.3-1.4.9-.3-1.8Zm-3.4-.5.2,1.7-1.7-.5Zm-1.8.6-.7-1.5,1.8-.1Zm23.2,2-1.4.9-.3-1.8Zm-5.8.9-.5-1.6,1.9.3Zm2.5-1-.4-1.6,1.8.2Zm-6.8.4.2,1.4-1.5-.4Zm-8.2.2.3,1.4-1.6-.4Zm-1.7-1.1.2,1.4-1.5-.4Zm11.5.5.2.9-1.1-.2Zm-6.3,0h.8l-.4.8Zm4.3,6.7.2-.8.7.6Zm-2.1,3.2-.9.2.2-1Zm.1-6.3v.8l-.9-.4Zm-6.7,4.3.8.2-.6.7Zm-.7,1-.9.1.2-1Zm.1-6.4v.8l-.8-.3Zm-6.7,4.3.8.2-.6.7Zm25.5,6.1-.9.3.2-1.1Zm.1-6.3v.8l-.8-.4Zm-6.7,4.3.7.2-.5.7Zm6.7-8.4-.1,1.8-1.7-.9Zm-4,3.3.8.2-.6.7Z" fill="#2e345b"/>
      <path id="Path_14158" data-name="Path 14158" d="M237.8,216.1l-.7-.6,1-.5Zm5.2-3.6-.7.4-.2-.8Zm-7.4-3,.3.7-.9-.1Zm4.3,7.2-1.2.2.4-1.4Zm1.2-8.3-.2,1-1-.6Zm-9.7,4.5,1.1.5-1,.8Zm11.3,3.2-.9-.8,1.2-.5Zm6.4-4.4-.8.6-.2-1.2Z" fill="#2e345b"/>
      <path id="Path_14159" data-name="Path 14159" d="M240,207.9l.3,1-1.1-.1Zm-9.9,8.8-.7-.6,1-.5Zm5.2-3.6-.7.4-.1-.8Zm-7.4-3,.3.7-.9-.1Zm2.8-1.3.2,1.4-1.5-.4Zm1.3,1.8-.6,2.1-1.8-1.6Zm-2.9,1.3-1.8,1.1-.4-2.4Zm11.2-1-1.8,1.2-.4-2.4Zm-6.3-.7.2,1.4-1.5-.4Zm.5-1.7.2,1.4-1.5-.4Zm-10.9,9.6-.9.1.3-1Zm-4.8-.7-.9.2.3-1.1Zm2.8-.8-.4-.7h.9Zm-5.6-.8-.4-.8h.9Zm8.1,4v.8l-.8-.4Zm11.6-9.9h-.8l.3-.9Z" fill="#2e345b"/>
      <path id="Path_14160" data-name="Path 14160" d="M227.8,213.3l-.1.8-.8-.6Zm11.7-4.1-1.4.9-.3-1.8Z" fill="#2e345b"/>
      <path id="Path_14161" data-name="Path 14161" d="M234.9,208l3.2-.1-1.3,3.3Zm-3.9.1,3.1-.1-1.2,3.2Zm-3.6-.1,3.1-.1-1.3,3.2Zm-10.4-.2h3.1l-2,2.5Z" fill="#2e345b"/>
      <path id="Path_14162" data-name="Path 14162" d="M213.5,207.8h3.2l-2,2.5Zm10.3.1,3.2.1-1.5,3.1Zm-3.8-.1,3.1.1-1.4,3.2Zm14,9-.6-.5.8-.4Z" fill="#2e345b"/>
      <path id="Path_14163" data-name="Path 14163" d="M231.9,218.7l-1.1-.8,1.4-.7Zm4.4-1.2-.6-.5.8-.4Zm-2-1-.6-.5.8-.4Zm-3,5.3-.9-.7,1.1-.6Z" fill="#2e345b"/>
      <path id="Path_14164" data-name="Path 14164" d="M236.8,217.4l-.7.5-.2-1Zm-8.5-2.9.4.8h-1ZM208,212.9l.2,1.4-1.5-.5Zm2.1-3.2.2,1.4-1.5-.5Zm-5.5.4h-.8l.3-.9Zm5,5.3-1.4.8-.3-1.8Zm.1-5.9-1.3.9-.3-1.9Zm-.6,2.1-1.4.9-.3-1.8Zm3.4-.4-1.4.9-.2-1.8Zm1.4-1.7-1.4.8-.3-1.8Zm-9.2,1.9-1.4.9-.3-1.8Zm1.9-.4-1.4.9-.2-1.8Zm-.3,2.7.2,1.4-1.5-.5Zm10.3-.8.1,1-1-.2Zm-6.3-.1h.8l-.4.9Zm4.1,6.8.3-.8.7.6Z" fill="#2e345b"/>
      <path id="Path_14165" data-name="Path 14165" d="M215.4,211l.1,1-1-.2Zm-6.4-.1h.9l-.4.9Zm4.2,6.8.3-.8.7.6Zm-.9,5.1-.9.2.2-1Zm.2-6.3-.1.8-.8-.4Zm-6.8,4.2.8.2-.6.7Zm3.3-2.2-.9.1.3-1.1Zm-2-1.5-.4-.7h.9Zm2.9,2.9v.8l-.8-.4Zm-.5-11.9,3.1-.1-1.3,3.2Zm-3.8-.2h3.2l-2,2.7Zm-1.1,5.3-1.4.9-.3-1.9Zm-6.5.8-.2-1.7,1.8.6Zm2.8-.5-.4-1.6,1.8.3Zm1.4.2v1.7l-1.8-.9Zm-1.5,4.9.8.2-.6.7Z" fill="#2e345b"/>
      <path id="Path_14166" data-name="Path 14166" d="M204.1,217.6l-.7-.6,1-.5Zm5.2-3.5-.7.4-.1-.9Zm-7.3-3.2.3.8-.9-.1Zm2.4,4.8-.9-.8,1.3-.5Zm9.6-3.2-.8.6-.2-1.2Zm-8.4-3.8.3,1-1.1-.1Zm63.1,6.4.2,1.4-1.6-.3Zm-68.2-.7-.5,1.7-1.4-1.3Zm-.7-4.1.2,1.4-1.5-.4Zm.5-1.7.2,1.3-1.5-.4Z" fill="#2e345b"/>
      <path id="Path_14167" data-name="Path 14167" d="M201.2,210.1h-.8l.3-.8Zm3.7-.6-1.4.8-.2-1.8Z" fill="#2e345b"/>
      <path id="Path_14168" data-name="Path 14168" d="M200.9,208l3.2-.1-1.4,3.3Zm-2.4-.3h2.1l-1.3,3.3Zm2.2,9.2-.6-.5.8-.3Zm.6,4.7-1.1-.8,1.4-.7Zm-1.8-3.2-.6-.5.8-.3Z" fill="#2e345b"/>
    </g>
    <path id="Path_14169" data-name="Path 14169" d="M236.3,207.7l3.6,56.3,6.3,76.6a223.331,223.331,0,0,0,27.6-2.2c7.4-.9,19.8-3.9,24.7-5.2,1.8-.2,1.8-2.4,1.5-3.5-2.3-10-13.2-50.2-21-79L266.9,208l-30.6-.3Z" opacity="0.7" fill="url(#linear-gradient-6)"/>
    <g id="Group_1043" data-name="Group 1043">
      <path id="Path_14170" data-name="Path 14170" d="M271,268.8l-.3,1.1,1-.2Zm-.2-5.1,1.5.8.1-1.5Zm13.9,16.7,1.9.4-.3-1.6Zm-1.3-3.3,2,.4-.4-1.6ZM278.1,260l2,.4-.5-1.7Z" fill="#363e66"/>
      <path id="Path_14171" data-name="Path 14171" d="M279.2,260.6l1.7.3-.4-1.4Zm6.8,28.7,1.8,1.1.3-1.7Zm-7.5-5.9,1.7,1,.3-1.6Zm.9-10.2,1.8,1,.3-1.6Z" fill="#363e66"/>
      <path id="Path_14172" data-name="Path 14172" d="M281,271.9l1.8-.8-1.2-1.2Zm-5.3-8.3,1.8-.9-1.2-1.2Zm4.8,12.5,1.8-.9-1.2-1.1Zm-8.4-26,1.9-.7-1.2-1.2Zm6.2,19.7,1.6,1.1.3-1.7Zm-.8-13.2,1.5.7.1-1.4Zm-2.3-10.7,1.3.9.1-1.4Zm-.6,2.7,1.6-1.6-1.9-.6Zm2.5,3.9,1.7-1.5-1.9-.7Zm-2.5-2.6,2.3-.1-.9-1.7Zm6.2,16.3.1,1.9,1.6-.9Zm1.4,22.5v1.9l1.6-.8Zm6.6,4v1.9l1.6-.7Zm-4.1,4.7.1,1.9,1.6-.8Zm2.5,16,.1,1.9,1.6-.8Zm5.1,2,.1,1.9,1.6-.8Zm-10.2-21.9.1,1.9,1.6-.8Zm-3.5,11.2.1,1.9,1.6-.8Zm11.9,14.5.1,1.9,1.6-.8Zm-14-38.1.1,1.9,1.6-.8Zm-13.9-45.9.1,2,1.6-.8Zm14.6,41.6v1.8l1.7-.7ZM290,297.4v1.9l1.6-.7Zm2.4,10.1.1,1.6,1.3-.6Zm1-3.4-1,1.3,1.3.3Zm-7.1,1,.1,1.6,1.4-.6Z" fill="#363e66"/>
      <path id="Path_14173" data-name="Path 14173" d="M292.4,305.4v1.7l1.3-.7Zm-12.1-43.1.2,1.6,1.3-.7Zm-2.3-1,.2,1.6,1.2-.7Zm-7.5-12.9h.9l-.3-.8Zm9.9,17.9,1.4.8.2-1.5Zm-4.4,1.4,1.7,1,.1-1.7Zm-10.9-.4.6-.6-.8-.3Zm14.6-.6-1.2.6.9.6Zm-.6-2.1.4,1.1.7-.6Zm-3.8-3.6,1.1-.1-.3-.9Zm4.5,20.5-.5,1.2,1.2-.1Zm5.9,10.2-.5,1.2,1.2-.1Zm-5.4-12.6-.6,1.3H281Zm1.8-6.5,1,.7.1-1Zm.3,2.6,1,.7.1-1Zm-8.8,2.2.9-.7-.9-.4Zm8.6,4.4.9-.8-.9-.3Zm2.7,3.2h-1.4l.5,1.1Zm1.7,2.7h-1.4l.5,1Zm6.3,14.4-1.6-.7.5,1Z" fill="#363e66"/>
      <path id="Path_14174" data-name="Path 14174" d="M287.7,283.1l-1.5,1.5,2,.5Zm.9,3.1-1.4,1.5,1.9.5Zm-6.6-4.8.7,1.9L284,282Zm1.1,5,.7,2L285,287Zm-4.5-15.9.7,1.9,1.3-1.2Zm-1.9-10.6.8,1.9,1.2-1.3Zm-3.6-8.7.6,1.9,1.4-1.3Zm4.5,47,1,.4v-1ZM288,308.6l-.4-1.1-.7.7ZM286.1,295l-1.1.1.4.8Zm6.1,4.9-.5-1.1-.7.7Zm-4.2-8.3-.4-1.1-.8.7Zm4.9,10.6-.8,1,1.1.2ZM274.7,272l.5-.7-.7-.2Zm-2,3.3-.5-.5-.3.5Zm6.1-1-.8.2.5.5Z" fill="#363e66"/>
      <path id="Path_14175" data-name="Path 14175" d="M276.8,259.4l.6-.7-.8-.2Zm-1.9,3.5-.4-.6-.3.6Zm6.1-1.4-.8.3.6.4Zm-5.6-8.9.5-.6-.6-.2Zm-1.6,2.9-.4-.6-.2.5Zm4.9-.9-.6.1.4.5Zm-13.4,36.9-.5.6.6.1Zm1.1-6.3.5.5.3-.6Zm13.7,2.5-.9-.9-.5,1Zm5.1,3.8-1,.5.8.6Zm-.1-8.9.2,1.1.9-.6ZM289,311l-.1-1.1-.9.5Zm3.2.2-.1-1.1-1,.6Zm2,1.9-.9-.1.2.8Zm-1.3-9.8-.3.8h.8Zm-5.1-2.4.2.8.7-.4Zm-6-4.2-.7-.7-.5.8Zm.8-11.2-1.3-1.3-.8,1.5Zm-.8,14.2-.7-.9-.6.9Zm3.3,5.7-.7-.9-.5.9Z" fill="#363e66"/>
      <path id="Path_14176" data-name="Path 14176" d="M282.3,297l-.7-.8-.4.9Zm5,11.3-1.8.9,1.4,1.1Zm8.8,7-1.2,1.5,1.7.4Z" fill="#363e66"/>
      <path id="Path_14177" data-name="Path 14177" d="M295.6,313.5l-1.1,1.5,1.6.4Zm-4.7-1.5-1.7.8,1.3,1.1Zm2.4.4-1.8.8,1.4,1.1Zm-1.8-7.1-1.7.8,1.3,1.1Zm-9.6-36.5,1,1,.5-1Zm-4.9-3.9,1.1-.5-.8-.6Zm-.3,8.9-.1-1.1-.9.5Zm.9-3.4-1.3-.5V271Zm6.2,1.7-.7.9,1,.2Zm-3.7-8.1.6.9.6-.9Z" fill="#363e66"/>
      <path id="Path_14178" data-name="Path 14178" d="M279.4,263.3l.9,1.1.5-1.1Zm-4.8-4.1,1-.4-.7-.7Zm-.1,9.2-.2-1.1-.9.6Zm-1.8-21.7-.4,1.3,1.3-.1Zm.5-6.2,1,.5v-1Zm-7.6,5.1.9-.7-.9-.4Zm7.5,12.8-.3,1,1.1-.1Zm.3-5.2.8.5.1-.9Zm-6.3,4.4.7-.6-.8-.3Zm9.7-2.3.7,1.2.6-1.1Zm-4.7-4.2,1.1-.4-.7-.7Zm-.5,9.2-.3-1.1-.8.5Zm25.9,60.1-.4-.9-.6.6Zm-24.1-85.3-.7,2.3,2.2-.4Zm-2.9-4.4,2.8.5-.7-2.3Zm1.3,4.1,2.6.3-.6-2.3Z" fill="#363e66"/>
      <path id="Path_14179" data-name="Path 14179" d="M274.3,244.7l2.6.2-.6-2.6Zm1.7,5.5,2.7.3-.6-2.6ZM273.1,240l2.6.5-.4-2.3Z" fill="#363e66"/>
      <path id="Path_14180" data-name="Path 14180" d="M272.8,238.8l2.7.2-.8-2.1Zm1,4.2,2.6.1-.6-3Zm1.7,5.1,2.6.2-.9-3.1Zm6.2,28.7-.6,2.9,2.5-.6Zm-12.8-34-.7,2.9,2.6-.6Zm1.4,8.3-.3,1.7,1.5-.3Zm5.8,5.5-.3,1.8,1.6-.4Zm-1.8-1.9-.4,1.9,1.7-.5Z" fill="#363e66"/>
      <path id="Path_14181" data-name="Path 14181" d="M280.6,256.8l-1.7,2.4,2.5.4Zm1.9,6.8-1.8,2.3,2.5.6Zm-1-3.4-1.8,2.4,2.6.5Zm1.7,6.4-1.8,2.4,2.6.4Zm1.1,3.5-2,2.3,2.5.6Zm.7,3.1-1.9,2.3,2.5.6Zm-2.1,3.6.5,2.9,2.2-1.5Zm3,8,.5,2.8,2.2-1.5Zm.9,3.9.6,2.9,2.1-1.6Zm.2-8.2-1.9,2.3,2.6.6Zm-7.4-26.9-1.6,2.3,2.5.6Zm12.7,48.5-2.9.8,1.7,2Zm-5.1-8.3-.5,2.9,2.5-.7Zm7.8,23-.5,2.9,2.5-.6Zm2.6,4.6-1.4,1.8,1,.2Zm-2.7-1.3-.4,2.3,1.9-.5Zm-22.1-89-1,1.2,1.4.3Zm2,39.2-1.1.6.9.6Zm4-3.7.3,1,.7-.6Zm-8-1,.9-.2-.3-.7Zm-.8-17.3.6-.6-.8-.2Zm-2,3.5-.5-.6-.2.5Zm6-1.1-.6.2.5.5Zm-5.2-9.4.5-.6-.7-.1Zm-1.6,3-.3-.6-.4.5Zm4.9-1-.6.1.4.5Zm-6.8-25.4-.5,1.1,1.1-.1Zm1-5,.7.5.1-.8Zm-6.9,3.6.8-.6-.8-.3Zm10.4,27.2.8,1.2.6-1.1Zm-4.6-4.2,1.1-.4-.8-.7Zm-.6,9.1-.2-1.2-.9.6Zm3.3,7.8-1.1.5.8.6Zm4.2-3.5.2,1,.7-.5Zm-8-1.5h1l-.4-.7Zm5.4-20.4,1.1,1.8,1-1.5Zm-1.3-7.4,2.9.2-.8-2.9Zm1,3,2.8.5-.7-2.6Zm-2.3,10.3-.1-2.9-2.4,1.2ZM264.2,211l-.1-2.9-2.5,1.2Zm3.2,19.6-.3,1.1,1.1-.2Zm-.3-5.3.9.3v-.8Zm-6,5.2.6-.7-.8-.2Zm1.3-4.5,1.4.1-.4-1.1Zm-2.5.8,1.7.4-.3-1.4Zm5.5-1.9-.8.3.5.6Z" fill="#363e66"/>
      <path id="Path_14182" data-name="Path 14182" d="M264.3,224.2l-.2,1.3,1.1-.4Zm1.7,1.2-.7.5.6.4Zm3-3.2.3.7.5-.5Zm-6.5-.4.8-.1-.4-.5Zm2,5.9h.7l-.3-.5Z" fill="#363e66"/>
      <path id="Path_14183" data-name="Path 14183" d="M265.4,227.4l-1.2.1.5,1Zm5.7,17.2.1,1.2.8-.5Zm-1.7-5.1.9.1-.2-.8Zm-4.5,6.7.5-.9h-.9Zm-5-2.4.1,1,.8-.5Zm2.5-19.8,2.1.1-.7-1.8Zm4.4-.5.9-1.8-1.8-.1Zm2.8,2.2,1-1.9-1.8-.1Zm2,3.6-.2-2.2-1.7.9Zm-1.6-2.7-1.5-1.6-.7,1.8Zm.5,4.4-1.5-1.6-.6,1.8Zm-3.5-5.8-1.5-1.5-.7,1.9Zm.5,2.4-1.5-1.5-.7,1.8Zm-2.9,4.4,1-1.9-1.8-.1Zm4.6-15.4-.7-1.8-1.2,1.2Zm-1.5-4.5-.6-1.8-1.2,1.2Z" fill="#363e66"/>
      <path id="Path_14184" data-name="Path 14184" d="M268.4,214.2l-1.3-1.4-.7,1.6Zm1.6,24.6.7-1.6h-1.5Zm3.2,6,.8-1.6h-1.6Zm-2.7-3.2,1.7.2-.4-1.4Zm.5-7-1.8-1.2-.4,1.8Zm-1.4-1.8-1.8-1.2-.4,1.9Zm1.5-3-1.4-1.5-.8,1.7Zm1,4.1-1.1-1.8-1.1,1.5Zm1.2,1.8-1.8-1.2-.3,1.8Zm.7,6.6-1.2-1.6-.9,1.7Zm3.2,9.2-1.3-1.6-.8,1.8Zm1.9,2.3-1.4-1.5-.8,1.6Z" fill="#363e66"/>
      <path id="Path_14185" data-name="Path 14185" d="M277.1,253.5l-1.1-1.2-.6,1.2Zm-1.9-2.3-1-1.2-.6,1.2Zm1.4,4.8v-1.6l-1.3.6Zm-1.5-6.7.1-1.5-1.4.5Zm-2.8-5.9.1-1.6-1.3.6Zm-4-9.1.2-1.6-1.4.5Zm6.5,11.7-1.3-1.6-.9,1.7Zm-9.5-18.5-.9-1.8-1.2,1.3Zm14.2,25.7-.6-2-1.4,1.2Zm7,26.2-.6-2-1.5,1.2Zm-.4,2.9-.6-2-1.5,1.2Zm2.1,11.3,1.9.3-.4-1.6Zm-1.1-3.4,2,.3-.5-1.6Zm1.8,8.5h-1.3l.5,1.1Zm1,2.5-1.4.1.6,1Zm1.3-4.6-1.3,1.5,1.9.6Zm1,3.1-1.4,1.6,1.9.4Zm-5.4.5.7,1.9,1.3-1.4Zm-3,1.4-.9-1-.5,1.1Zm5.1,3.8-1.1.5.8.6Z" fill="#363e66"/>
      <path id="Path_14186" data-name="Path 14186" d="M288.6,296.3l.3,1.1.8-.6Zm-1.9-6.3.6,2.9,2-1.6Zm3.1,8.3.6,2.9,2-1.4Zm.7-4.4-1.8,2.4,2.6.6Zm3.8,14.7-1.8,2.5,2.6.5Z" fill="#363e66"/>
      <path id="Path_14187" data-name="Path 14187" d="M293.7,306.4l-1.3,1.9,2,.4Zm1.4,5.1-1.4,1.9,2,.4Zm-5-18.8-.6-2.4-1.3,1.5Zm-.1,2.5-.7-2-1.3,1.4Zm-16.2-57.6-1.8-1.1-.2,1.8Zm-2.1,2.9.5-2-1.8.3Zm-1.6-3.2.4-2.1-1.9.4Zm-4.9-25.2.4-1.5-1.3.2Z" fill="#363e66"/>
      <path id="Path_14188" data-name="Path 14188" d="M268.9,242.4l.3-1.4-1.3.3Zm-3.5-2.9,1.3-.8-1.1-.7Zm-.5-2.2.9-.5-.7-.5Zm4.9,3.8.9-.5-.7-.6Zm1.9-1.3,1-.4-.8-.6ZM269,236l.9-.5-.7-.6Zm-2.3-6.1,1-1.8-2-.1Zm-.8-8.7-1.5-1.6-.7,1.9ZM261.2,238l.9-.2-.5-.5ZM257,214.5l-.1,1,.9-.4Zm-4.6-2.1.8.2-.1-.7Zm-4.2,5.2.4-.8h-.8Z" fill="#363e66"/>
      <path id="Path_14189" data-name="Path 14189" d="M267.9,237.7v1.2l.9-.5Zm-1.4-5.3,1,.3-.2-1Zm-4.9,6.4.5-.9-.8-.1Zm1-6.3-.9.7,1,.4Z" fill="#363e66"/>
      <path id="Path_14190" data-name="Path 14190" d="M263.8,242.4l.5,1.8,1.4-1.1Zm5.6-21.1-1.6-1.1-.5,1.6Zm-8.5,17.8,1.5.5-.1-1.5Zm3.2-22.2.9,1,.4-1.1Zm-5.2-3.6,1-.5-.8-.6Zm.7,9.1-.4-1-.7.6Zm-5.7-7.9.4.9.6-.7Zm-2.4-3.7.8-.1-.3-.5Zm-1.9,6.2.1-.8-.7.3Zm13.3,18.2-1,.6.9.6Zm2.8,6.5v-1.5l-1.2.6Zm-3.2.2-.9.6.8.6Zm-6-25.2-.7.7.9.2Zm6.7,28.8.8-.3-.6-.5Zm5.8-2,.4,1.2.8-.7Zm-2.5-4.7h.9l-.3-.8Z" fill="#363e66"/>
      <path id="Path_14191" data-name="Path 14191" d="M263.4,246.2l.2-.9-.9.1Zm-.7-6.3-.8.9,1.1.2Zm6.1,13.5.6,1.8,1.4-1.1Zm-4.7-2-1.6-1.1-.3,1.7Zm2.4-1.2,1.6.6-.2-1.6Zm3.9,6.7,1.1.9.3-1.2Zm-5.6-2.8,1-.7-.9-.5Zm1.9,8.9-.5-1-.6.8ZM261,228.9l.4.8.6-.6Zm-2.6-3.5.8-.2-.4-.6Zm-1.7,6.1.1-.8-.8.2Zm3.5,23.5.4.8.6-.6Zm-2.9-3.4.8-.1-.4-.7Zm-1.2,6.3v-.8l-.7.3Zm15.1-9.6.3,1,.8-.6Zm-2.8-4.7.9-.1-.3-.7Zm-2.9,7.5.2-1-.8.2Zm-1.1-33.8.3,1.2.9-.6Zm-2.4-4.8h1l-.4-.8Zm-3.3,7.2.2-.9-.9.2Zm4.7,28.6,1.7-.5-1-1.2Zm5.2-2-1.1.6,1,.6Zm1.5,3.7.5-2-1.9.3Zm1.2,2.8v-1.5l-1.2.6Zm-3.8.2-.9.6.9.6Zm-4.7,4.7-.5.8.9.1Zm5.4-1.3.8-.3-.6-.5Zm6.5-1.8.3,1.2.8-.7Zm-2.6-4.7h1l-.5-.8Zm-3,7.4.1-.9-.9.1Zm-.8-6.3-.7.9,1,.2ZM262,218.7l.3,1.9,1.6-1Zm5.7-1-1.5-1.2-.5,1.5Zm-4.4-4.4,1.6.7v-1.5Zm-2.5-.1.9,1,.4-1.2Zm-5.2-3.6,1-.5-.8-.7Zm.7,9.1-.3-1-.8.6Zm2.7,14.5.3,1.1.8-.7Zm-2.4-4.9h1l-.3-.8Zm-3.3,7.2.2-1-.9.2Z" fill="#363e66"/>
      <path id="Path_14192" data-name="Path 14192" d="M255.1,223.9l.4,1.2.7-.8Zm-2.8-4.6.9-.1-.3-.8Zm-2.8,7.4.2-.9-.9.2Zm18.5-6.9,2.1.2-.6-1.8Zm-9.2-8.6.1-1.5-1.3.4Zm-3.7,4.1-1.2.5.9.6Zm-5.7,4.1-.6.8.8.2Zm5.8-.6.7-.3-.4-.5Z" fill="#363e66"/>
      <path id="Path_14193" data-name="Path 14193" d="M261.4,217.4l.3,1.2.8-.6Zm-2.3-4.9h1.1l-.3-.7Zm-3.5,7.2.2-1-.8.1Zm16,47-1,.6.9.6Zm4.1-3.7.2,1,.7-.7Zm-8.1-1,1-.2-.5-.7Zm.7-5.4,1.1.9.3-1.2Zm-5.6-2.9,1-.7-.9-.4Zm1.9,9-.5-1-.6.6Zm1.6-47.5-1.5-1.2-.5,1.6Zm8.4,52.1,1,.9.3-1.2Zm-5.7-2.9,1-.7-.9-.4Z" fill="#363e66"/>
      <path id="Path_14194" data-name="Path 14194" d="M270.8,273.4l-.4-1-.7.6Zm-7.2-12,.6.9.4-.7Zm-2.9-3.2.7-.2-.5-.6Zm-1,6.4v-.8l-.7.3Zm8.6,12.7.5.8.5-.6Zm-2.7-3.5.8-.1-.4-.6Zm-1.5,6.3.1-.8-.7.3Zm10.3-21.6.4,1.1.7-.7Zm-3.1-4.5,1.1-.1-.5-.8Zm-2.4,7.6.2-.9-.9.2Zm1.5-3.9.4,1.2.8-.8Zm-3-4.5,1-.1-.4-.7Zm-2.4,7.6.1-.9-.8.3Zm1.6,8.1-.6.9h.8Zm-4.6-8.8,1,.9.3-1.2Zm-5.6-2.9.9-.6-.9-.5Zm1.9,9-.5-1-.7.7Zm16.5,34.9.4,1,.7-.8Zm-10.1-5.3.9-.4-.6-.5Zm19.6,26.7-.1.8.6-.3Zm-3-5.7.7.1-.2-.7Zm-.9-27.5.2,1.4.9-.8Zm-2.7-5.7,1.2.1-.4-.9Zm-4.2,8.3.3-1.2-1,.2Zm.4-3.5.6,1.2.7-1Zm-4-4.9,1.1-.2-.6-.8Zm-1.9,9v-1.2l-.9.5Zm6,6.5-.5,1.1h1.1Zm.9-5.4.8.7.1-.9Zm-7.1,4.1.8-.8-.9-.3Zm4.3-10.5.6,1.2.7-.9Zm-4-4.9,1.1-.2-.6-.8Zm-1.9,9v-1.1l-.9.4Zm10.5,6.4,1.4.1-.5-1.1Zm-6.3,1,.4-1.1-1,.2Zm7.1,6.1-1-.6-.1,1Z" fill="#363e66"/>
      <path id="Path_14195" data-name="Path 14195" d="M287.1,312.5l1.4.1-.5-1.1Zm-6.3,1,.3-1.1-.9.2Zm7,6.1-.9-.6-.2,1Zm-22-29.8.2,1,.7-.5Zm-1.4-4.1.8.1-.3-.7Zm-3.4,5.5.2-.8-.7.1Zm16.9,18.2.9.3.1-.7Zm-4.3-1.2.5-.5-.7-.3Zm2.7,5.9-.5-.6-.3.5Zm.6-22.8-.1,1.2,1-.4Zm-1-5.3,1,.3-.1-.9Zm-5.3,6,.5-.8-.8-.1ZM265,275.6v1.2l1-.4Zm-.9-5.3,1,.3-.1-.9Zm-5.3,6,.5-.8-.8-.1Zm12.5,27.4.1,1.1.7-.5Zm12.6,12.9.6,1.2.7-1Zm-3.9-4.8,1-.2-.6-.9Zm-1.9,9-.1-1.2-.9.4Zm-12.3-63.9.3,1.1.7-.7Zm-2.6-4.9h1l-.4-.8Zm-3.2,7.3.2-.9-.9.2Zm3.3-44.7-1,.7.9.5Zm2.4,16.6-.9.7.8.5Zm-3.3-9.6-1.3.6,1,.9Zm5,6.7.2,1,.7-.6Z" fill="#363e66"/>
    </g>
  </g>
</svg>
