<svg xmlns="http://www.w3.org/2000/svg" xmlns:xlink="http://www.w3.org/1999/xlink" width="141.577" height="241" viewBox="0 0 141.577 241">
  <defs>
    <linearGradient id="linear-gradient" x1="0.494" y1="0.996" x2="0.499" y2="0.491" gradientUnits="objectBoundingBox">
      <stop offset="0" stop-color="#cc7a5e" stop-opacity="0"/>
      <stop offset="0.924" stop-color="#aa5f4b"/>
    </linearGradient>
    <linearGradient id="linear-gradient-2" x1="0.507" y1="0.104" x2="0.5" y2="0.77" gradientUnits="objectBoundingBox">
      <stop offset="0.005" stop-color="#aee1ff"/>
      <stop offset="1" stop-color="#79aee2"/>
    </linearGradient>
    <linearGradient id="linear-gradient-3" y1="0.5" x2="1" y2="0.5" gradientUnits="objectBoundingBox">
      <stop offset="0" stop-color="#1e2838"/>
      <stop offset="1" stop-color="#304056"/>
    </linearGradient>
    <linearGradient id="linear-gradient-4" x1="0.403" y1="0.928" x2="0.491" y2="0.544" xlink:href="#linear-gradient"/>
    <linearGradient id="linear-gradient-5" x1="0.507" y1="0.104" x2="0.5" y2="0.769" xlink:href="#linear-gradient-2"/>
    <linearGradient id="linear-gradient-6" x1="0.787" y1="0.513" x2="0.157" y2="0.446" xlink:href="#linear-gradient-3"/>
    <linearGradient id="linear-gradient-7" x1="0.527" y1="0.491" x2="0.909" y2="0.812" gradientUnits="objectBoundingBox">
      <stop offset="0" stop-color="#151e28" stop-opacity="0"/>
      <stop offset="0.998" stop-color="#151e28"/>
    </linearGradient>
    <linearGradient id="linear-gradient-8" x1="1.065" y1="0.571" x2="0.295" y2="0.477" xlink:href="#linear-gradient-7"/>
    <linearGradient id="linear-gradient-9" x1="0.507" y1="0.787" x2="0.593" y2="-0.116" xlink:href="#linear-gradient-7"/>
  </defs>
  <g id="_33" data-name="33" transform="translate(-163.623 -206)">
    <path id="Path_14349" data-name="Path 14349" d="M240.4,427,239,398.9h28.4l2.6,35.3Z" fill="#ea9d7d"/>
    <path id="Path_14350" data-name="Path 14350" d="M240.2,419.2c-.2,0-.3-.2-.3-.4l-1-17.2a.4.4,0,0,1,.8,0l1,17.2a.43.43,0,0,1-.4.4c0,.1-.1.1-.1,0Z" fill="#cc7a5e"/>
    <path id="Path_14351" data-name="Path 14351" d="M252.3,419.7c11.3.5,16.3-3.3,16.3-3.3L268,402l-28.6.4L240,417C239.9,417,244.1,419.3,252.3,419.7Z" fill="url(#linear-gradient)"/>
    <path id="Path_14352" data-name="Path 14352" d="M239.8,419a34.12,34.12,0,0,0,13.4,1.9,38.738,38.738,0,0,0,15.5-4.4l1.2,11.3s-3,3.9-16,3.8c-13.7-.1-13.5-4.8-13.5-4.8l-.6-7.8Z" fill="#fff"/>
    <g id="Group_1056" data-name="Group 1056">
      <path id="Path_14353" data-name="Path 14353" d="M240.5,415l.1,1,.9-.4Zm12.9-1.8,1.2.1-.5-1.2Zm-11.7-.5,1.4,2.3,1-2.6Zm14.2.6,1,.1-.5-1.1Zm-6.8.9.8-.4-.7-.5Zm-6.8,3.2.3-.2-2-.7.1,1.7,1.4-.7.6.9.6-1Zm3-.3.8-1.5-1.7.3Zm-3.4-1.2,1.8,1.1-.1-2Zm5.5-.6,1.6-.7-1.5-.8Zm-1.4,3.1.8-1.5-1.7.4Zm-1.5,1.3,1.4-1.1-1.8-.3Zm8.4-7.5-1.6.1,1,1.5Zm-1.8,0-1.6.2,1,1.4Zm-1.9.1-1.6.1.9,1.5Zm-2.7.4-2.2.7,1.2,1.9Zm12.5.7.3-.9-1.1.1Z" fill="#ad5c49"/>
      <path id="Path_14354" data-name="Path 14354" d="M253.9,416l.4-.9-1.2.1Zm-5.6,3.3.4-.9-1.2.2Zm1.7-2.5,1.5-.5-1.4-1.1Zm-5.2.5L243,417l.5,1.4Zm-4.3-2.6,1.5-.6-1.4-1.1Z" fill="#ad5c49"/>
    </g>
    <path id="Path_14355" data-name="Path 14355" d="M241.2,447l62.1-.2a1.923,1.923,0,0,0,1.9-2c0-2.4-.4-6.5-1.8-9.3-1.8-3.6-25.5-13.3-32.3-16a2.671,2.671,0,0,0-2.9.7,20.525,20.525,0,0,1-14.7,7.8c-6.6.4-10.2-.9-11.9-1.9a1.2,1.2,0,0,0-1.8.7c-.8,2.6-2.1,8.7-.7,18.2a2.09,2.09,0,0,0,2.1,2Z" fill="url(#linear-gradient-2)"/>
    <path id="Path_14356" data-name="Path 14356" d="M241.2,447l62.1-.2a1.923,1.923,0,0,0,1.9-2l-.1-2.6-66.4-.4.4,3.5a2.076,2.076,0,0,0,2.1,1.7Z" fill="#3e698c"/>
    <path id="Path_14357" data-name="Path 14357" d="M278.1,433.5l1-.1-.7-.7Zm4.7.7.7-1.3h-1.3Zm-10-13.9-1.6-.7v2.1Zm2.7,2.7,1.3-1.1-1.3-.6v.9l-.3-.1.1.3h-.8l.3.9.5-.8.1.5.1-.2Zm-11.8,1.6-1.2.7,1.4,1Zm1.4-1.1-1.2,1,1.5.8Zm2.8,0h-1.4l.7,1.6Zm10.4,1h-1.5v.1l-1.3-.1.6,1.6.8-1.4.5,1.4Zm11.4,5,.7-1.2-1.3-.1Zm-8-5.5-.8,1.2,1.5.3Zm-16.4,6.9,1.5-.6-1.5-.9Zm-1.6-3.9-1.4-.9-.1,1.5Zm-3.8,5.9-1.4-1-.1,1.6Zm8.1-7.8-.9,1.2.6.2-1.1.2.9,1.2.7-1.3.5.1Zm3.3,2,1.6.5-.7-1.7Zm-21.9,3-1.2-.7-.1,1.2Zm2.5,4.5,1.4-.6-1.3-.7Zm-7.5-4.7,1.3-.5-1.2-.7Zm40.6-2.5-.8,1,1.3.3Zm17.8,8.1-.8,1,1.4.3Zm-1.2-1.3.1,1.2,1.2-.5Zm-5.3-1.4,1.4.4-.6-1.3Zm-.5,4.3.7-.4-.7-.3Zm.9-2.2.7-.5-.7-.3Zm1.7,2,.2-.8-.8.3Zm3.1-1.5.1-.8-.8.2ZM284.3,425l-1.2-.4.1,1.4Zm-3.6,3.1-1.4-.1.6,1.7Zm-1.1,10-.4.3-.3-.3-.1.6.3-.1.6.1Zm1.7-11.5-1.2.1.6.9Zm4.3,4.5.8-.5-.7-.5Zm9.2-.6-.6.7.5.2.5,1.1.8-1.2h-.9Zm4.6,3.5.7-.5-.7-.4Zm-6.2,3.2.2-.7-.9.1ZM263.3,432l-.2,1.1,1.1-.3Zm6.1.4.3-1-.8.1Zm-4.2,6.6.9.1-.3-.8Zm3-15.5-.3,1.1,1.1-.3Zm-5.2,6.6.4,1,.8-.8Zm6.6-7-.3,1.1,1.1-.2Zm7.4.9.5-.9h-.8Zm-5.5,5.9,1,.3-.2-.9Zm-1.5-7.4-.2-.9-.7.6-.7-1.6-1.4,1.7,2.4.6-.3-.6Zm1.5,17.2,1.1.2-.4-1.1Zm-.8-5.9.9-.5-1-.4Zm6.7,3.4.6.7.1-1Zm-7.9-7.1,1,.1-.4-1.2Zm-3-2.3-.5,1,1,.1Zm-12.2.3-.5,1.1,1,.1Zm3.8,6.9.4-.2-.5-.2v.4l-.9-.4.3,1.9,1.7-1.1Zm2.8,3.1.7.6v-.9Zm-10.3-3.4.4-.9-1,.1Zm10.8-3.7-.6.8.9.2Zm-4.7-3h-.9l.6.8Zm7.5,1.3.3-.8h-.9Zm-13.7-.5-.8-.2.1.7Zm13.5-1.3.5.4.2-.7Zm1.7-4.1-.2.6h.6Zm8.1,3.2.4-.5-.5-.1Zm3.4,5.5-.7.3.7.4Zm-3.9,2.1.5-.2-.5-.5Zm1.6-5,.4-.5-.6.1Zm7.2,7.8.7.3-.1-.7Zm-1.6-3.3.4-.5-.7.1Zm7.2-4-.6.3.6.3Zm-3.9,2.1.5-.2-.4-.5Zm2-5.6-.6.1.3.5Zm7.6,5.5-.6.3.6.2Zm-3.4,1.6.4-.1-.3-.4Zm1.7-4.4h-.5l.2.5ZM264.2,434l-.5.2.4.5Zm-8.2,2.8.6-.8-1.1-.4Zm-5.9-3.4.8.4.1-1Zm8-3.3-.7-.6,1-.3-1.5-1v1.1l-.9,1.1,1.6.4-.2-.5Zm-.9-.2-.1-.4.2-.1Zm12.6,5.2.6-.8-1-.4Zm-5-3v-1l-.8.6Zm6.4-4.4-.2.8.9-.1Zm-24.6,7.9.2-.8-.9.2Zm.7-3.5.1-.9-.9.3Zm-3.9-2.9-.3.8.8-.1Zm2.9-.5.3.7.6-.6Zm9.3,2.3-.2.7.8-.1Zm8.5,6.8,1-1-1.5-.6Zm-4.7-.9.5-.7-.9-.3Zm2.4-1.9-.9-.3.4.9.2-.2.1.5.6-.5-.5-.3Zm-13.5-2.5,1.4.8.1-1.7Zm-5.7-5.8-1.4,1,1.3.6Zm-1,8.3,1.3.7.1-1.6Zm-1.1-2.6,1.1,1.1.6-1.5Zm11.3,3.6.7-.1-.5-.4Zm1.8,2.3.9-.8-1.2-.5Zm-6.5-2,.8.5.1-1.1Zm8.3-4-.2,1,1-.1Zm29,1.4.9-.1-.5-.7Zm-7.3,0,.5-.6-.9-.3Zm1.6-10.9-.9.3.8.9Zm3.1,5-.1.1-.8.3.7.8.1-.5.5-.1Zm-7.2.2-.9-.3.3.9Zm-.8-3.8-.6,1.1h1Zm8.1,1.8.6.6-.5.4,1,.3-.3-.9-.1.1.1-.9Zm1.4.5.8.8.1-.8.9.2-.6-1.3-.7.9Zm3.6,5.4,1.1-.1-.6-.7Zm-7.8-1.1.3,1,.6-.7Zm3.4-1.3-.3,1,1.1-.1Zm6.7.5h-.9l.3.9Zm-6.1,6.5.9.3-.1-.9Zm3.5-3.4,1-.2-.7-.7Zm.8,4.9.8.2-.1-.7Zm1.5-9.1-.4.7.9.1Zm5.3,1.4-.6-.2.1.8Zm-5.9,4.4.7.3v-.7Zm-.5-7.1-.9-.4.8-.6-1.2-.5.1,1.4.1-.2v1.6l1.2-1.1.6.6.2-1.2-1,.3Zm4,4.5-.5.9.5-.1.2.4.4-.7h-.3Zm-8,.7.6-.6-.9-.3Zm-41.6.9,1.8-.5-1.2-.8Zm48.7-4.3-.9,2.1h2.5ZM253.4,431l-.3-2.5-1.6,1.6-1.4.9,1.3.7v-1.4Zm8.2-5.1-2.3,1,2.3,1.3Z" fill="#dcf3ff"/>
    <g id="Group_1057" data-name="Group 1057">
      <path id="Path_14358" data-name="Path 14358" d="M252.1,441.9s-.3-3.5-4.5-7.1a16.626,16.626,0,0,0-8.7-3.6h-.1l.2-1.7a17.239,17.239,0,0,1,9.7,4c4.8,4.1,5,8.2,5,8.4h-1.6Z" fill="#fff"/>
      <path id="Path_14359" data-name="Path 14359" d="M279.7,423.1l-5.9,8.7a.984.984,0,0,0,.3,1.4c.1.1.3.1.4.2a.951.951,0,0,0,1-.4l6.1-9-1.9-.9Zm-6.5-2.7-6,8.9a.984.984,0,0,0,.3,1.4c.1.1.3.1.4.2a.951.951,0,0,0,1-.4l6.3-9.2-2-.9Z" fill="#fff"/>
    </g>
    <path id="Path_14360" data-name="Path 14360" d="M275,291.9c-1.3-42.7-5.2-80.3-5.8-85.8H212.3l21.3,203.6a3.225,3.225,0,0,0,3.5,2.9l38.4-3.4a3.064,3.064,0,0,0,2.8-3.1l-1.5-62L275,291.9Z" fill="url(#linear-gradient-3)"/>
    <path id="Path_14361" data-name="Path 14361" d="M167.7,421.1l6.8-27.3,27.1,8.3-7.7,34.5Z" fill="#ea9d7d"/>
    <path id="Path_14362" data-name="Path 14362" d="M169.7,413.6a.76.76,0,0,1-.2-.4l4-16.7c.1-.2.3-.4.5-.3s.4.3.3.5l-4,16.7c-.1.2-.3.4-.5.3C169.8,413.6,169.8,413.6,169.7,413.6Z" fill="#cc7a5e"/>
    <path id="Path_14363" data-name="Path 14363" d="M181.2,417.5c10.7,3.8,16.8,1.1,16.8,1.1l3.3-13.4-27.5-7.9-3.7,14.1a33.2,33.2,0,0,0,11.1,6.1Z" fill="url(#linear-gradient-4)"/>
    <path id="Path_14364" data-name="Path 14364" d="M169,415.8s4.2,2.5,12.3,3.6a65.774,65.774,0,0,0,16.5-.1l-2.1,11.1s-4,2.9-16.4-1c-13.1-4-12.6-1.2-12.6-1.2l.6-5.6Z" fill="#fff"/>
    <g id="Group_1058" data-name="Group 1058">
      <path id="Path_14365" data-name="Path 14365" d="M171.5,409.3l-.2,1.1,1-.3Zm12.8,1.7,1.1.4-.2-1.3Zm-11.1-3.6.7,2.7,1.7-2.3Zm13.5,4.3.9.3-.1-1.1Zm-6.7-.9.8-.2-.5-.6Zm-7.4,1.3.2-.1-1.7-1.2-.3,1.7,1.5-.3.4,1,.8-.8Zm2.9.5,1.2-1.2-1.8-.2Zm-2.9-2,1.4,1.5.4-1.9Zm5.4.9,1.7-.3-1.3-1.1Zm-2.2,2.6,1.2-1.3-1.8-.1Zm-1.7.9,1.6-.8-1.6-.7Zm10-5.1-1.6-.4.6,1.7Zm-1.7-.5-1.6-.2.6,1.6Zm-1.9-.4-1.6-.3.6,1.6Zm-2.7-.3-2.3.1.7,2.1Zm11.9,3.9.5-.7-1.1-.2Z" fill="#ad5c49"/>
      <path id="Path_14366" data-name="Path 14366" d="M184.1,413.8l.6-.8-1.2-.2Zm-6.3,1.7.6-.8-1.2-.1Zm2.3-1.9,1.6-.1-1.1-1.5Zm-5.2-.9-1.6-.7.1,1.5Zm-3.4-3.7,1.6-.1-1.1-1.5Z" fill="#ad5c49"/>
    </g>
    <path id="Path_14367" data-name="Path 14367" d="M168.4,447l62.1-.2a1.923,1.923,0,0,0,1.9-2c0-2.4-.4-6.5-1.8-9.3-1.8-3.6-25.5-13.3-32.3-16a2.671,2.671,0,0,0-2.9.7,20.525,20.525,0,0,1-14.7,7.8c-6.6.4-10.2-.9-11.9-1.9a1.2,1.2,0,0,0-1.8.7c-.8,2.6-2.1,8.7-.7,18.2a2.233,2.233,0,0,0,2.1,2Z" fill="url(#linear-gradient-5)"/>
    <path id="Path_14368" data-name="Path 14368" d="M168.4,447l62.1-.2a1.923,1.923,0,0,0,1.9-2l-.1-2.6-66.4-.4.4,3.5A2.248,2.248,0,0,0,168.4,447Z" fill="#3e698c"/>
    <g id="Group_1059" data-name="Group 1059">
      <path id="Path_14369" data-name="Path 14369" d="M205.4,433.5l.9-.1-.6-.7Zm4.6.7.8-1.3h-1.3Zm-9.9-13.9-1.7-.7v2.1Zm2.7,2.7,1.3-1.1-1.3-.6v.9l-.3-.1v.3h-.7l.3.9.5-.8v.5l.2-.2ZM191,424.6l-1.3.7,1.4,1Zm1.3-1.1-1.1,1,1.5.8Zm2.9,0h-1.4l.7,1.6Zm10.3,1H204l.1.1-1.3-.1.5,1.6.8-1.4.6,1.4Zm11.4,5,.8-1.2-1.3-.1ZM209,424l-.9,1.2,1.6.3Zm-16.5,6.9,1.5-.6-1.4-.9ZM191,427l-1.5-.9-.1,1.5Zm-3.8,5.9-1.5-1-.1,1.6Zm8-7.8-.8,1.2.6.2-1.1.2.9,1.2.7-1.3.4.1Zm3.4,2,1.5.5-.6-1.7Zm-21.9,3-1.2-.7-.1,1.2Zm2.5,4.5,1.3-.6-1.2-.7Zm-7.5-4.7,1.3-.5-1.2-.7Zm40.5-2.5-.7,1,1.3.3Zm17.9,8.1-.8,1,1.3.3Zm-1.2-1.3v1.2l1.3-.5Zm-5.3-1.4,1.3.4-.5-1.3Zm-.6,4.3.8-.4-.7-.3Zm1-2.2.6-.5-.6-.3Z" fill="#dcf3ff"/>
      <path id="Path_14370" data-name="Path 14370" d="M225.7,436.9l.2-.8-.9.3Zm3-1.5.2-.8-.8.2ZM211.5,425l-1.1-.4V426Zm-3.5,3.1-1.4-.1.5,1.7Zm-1.2,10-.4.3-.2-.3-.1.6.3-.1.6.1Zm1.8-11.5-1.2.1.5.9Zm4.3,4.5.8-.5-.7-.5Zm9.2-.6-.7.7.6.2.5,1.1.7-1.2h-.8Zm4.5,3.5.8-.5-.7-.4Zm-6.1,3.2.2-.7-.9.1Zm-30-5.2-.1,1.1,1.1-.3Zm6.1.4.3-1-.8.1Zm-4.1,6.6.9.1-.3-.8Zm2.9-15.5-.3,1.1,1.1-.3Zm-5.1,6.6.3,1,.8-.8Zm6.5-7-.2,1.1,1.1-.2Zm7.5.9.5-.9h-.9Zm-5.5,5.9.9.3-.1-.9Zm-1.6-7.4-.2-.9-.6.6-.7-1.6-1.5,1.7,2.4.6-.2-.6Zm1.6,17.2,1,.2-.4-1.1Zm-.8-5.9.9-.5-1-.4Zm6.6,3.4.7.7.1-1Zm-7.9-7.1,1.1.1-.4-1.2Zm-2.9-2.3-.6,1,1,.1Zm-12.2.3-.6,1.1,1,.1Zm3.8,6.9.4-.2-.6-.2v.4l-.8-.4.3,1.9,1.7-1.1Zm2.7,3.1.7.6.1-.9Zm-10.2-3.4.3-.9-1,.1Zm10.7-3.7-.5.8.8.2Zm-4.6-3h-.9l.6.8Zm7.4,1.3.4-.8h-1Zm-13.7-.5-.7-.2v.7Z" fill="#dcf3ff"/>
      <path id="Path_14371" data-name="Path 14371" d="M191.3,427.5l.5.4.2-.7Zm1.7-4.1-.2.6h.6Zm8.1,3.2.3-.5-.4-.1Zm3.4,5.5-.7.3.7.4Zm-4,2.1.5-.2-.4-.5Zm1.7-5,.4-.5-.7.1Zm7.2,7.8.7.3-.1-.7Zm-1.6-3.3.3-.5-.6.1Zm7.2-4-.7.3.7.3Zm-4,2.1.5-.2-.4-.5Zm2.1-5.6-.6.1.2.5Zm7.5,5.5-.5.3.6.2Zm-3.3,1.6.4-.1-.4-.4Zm1.7-4.4h-.5l.2.5ZM191.5,434l-.5.2.4.5Zm-8.3,2.8.7-.8-1.1-.4Zm-5.8-3.4.8.4v-1Zm8-3.3-.7-.6,1-.3-1.5-1v1.1l-.9,1.1,1.6.4-.2-.5.7-.2Zm-.9-.2-.1-.4.2-.1-.1.5Zm12.5,5.2.7-.8-1.1-.4Zm-5-3,.1-1-.9.6Zm6.4-4.4-.2.8,1-.1Zm-24.5,7.9.2-.8-1,.2Zm.7-3.5.1-.9-.9.3Zm-3.9-2.9-.3.8.7-.1Zm2.9-.5.2.7.6-.6Zm9.2,2.3-.1.7.7-.1Zm8.5,6.8,1-1-1.4-.6Zm-4.6-.9.5-.7-.9-.3Zm2.4-1.9-.9-.3.3.9.2-.2.2.5.6-.5-.6-.3Zm-13.5-2.5,1.3.8.1-1.7Zm-5.7-5.8-1.4,1,1.3.6Zm-1,8.3,1.3.7v-1.6Zm-1.2-2.6,1.2,1.1.6-1.5Zm11.4,3.6.7-.1-.6-.4Zm1.8,2.3.8-.8-1.2-.5Zm-6.6-2,.9.5v-1.1Zm8.4-4-.3,1,1.1-.1Zm28.9,1.4.9-.1-.4-.7Zm-7.3,0,.6-.6-.9-.3Zm1.7-10.9-.9.3.7.9Zm3,5v.1l-.9.3.8.8.1-.5.5-.1Zm-7.2.2-.8-.3.2.9Zm-.7-3.8-.7,1.1h1Zm8,1.8.7.6-.5.4.9.3-.2-.9-.1.1v-.9Zm1.5.5.8.8.1-.8.9.2-.6-1.3-.7.9Zm3.6,5.4,1-.1-.5-.7Zm-7.8-1.1.3,1,.6-.7Zm3.4-1.3-.4,1,1.2-.1Zm6.6.5h-.8l.3.9Zm-6,6.5.9.3-.2-.9Zm3.5-3.4,1-.2-.8-.7Zm.7,4.9.8.2-.1-.7Zm1.5-9.1-.4.7,1,.1Zm5.4,1.4-.7-.2.2.8Zm-6,4.4.8.3-.1-.7Zm-.5-7.1-.8-.4.8-.6-1.2-.5v1.4l.1-.2v1.6l1.3-1.1.6.6.1-1.2-.9.3Zm4.1,4.5-.5.9.5-.1.2.4.4-.7h-.3Zm-8,.7.6-.6-.9-.3Zm-41.6.9,1.8-.5-1.2-.8Zm48.6-4.3-.9,2.1h2.5ZM180.7,431l-.3-2.5-1.7,1.6-1.4.9,1.3.7.1-1.4Zm8.1-5.1-2.3,1,2.3,1.3Z" fill="#dcf3ff"/>
    </g>
    <g id="Group_1060" data-name="Group 1060">
      <path id="Path_14372" data-name="Path 14372" d="M252.1,441.9s-.3-3.5-4.5-7.1a16.626,16.626,0,0,0-8.7-3.6h-.1l.2-1.7a17.239,17.239,0,0,1,9.7,4c4.8,4.1,5,8.2,5,8.4h-1.6Z" transform="translate(-72.7)" fill="#fff"/>
      <path id="Path_14373" data-name="Path 14373" d="M207,423.1l-5.9,8.7a.984.984,0,0,0,.3,1.4c.1.1.3.1.4.2a.951.951,0,0,0,1-.4l6.1-9-1.9-.9Zm-6.6-2.7-6,8.9a.984.984,0,0,0,.3,1.4c.1.1.3.1.4.2a.951.951,0,0,0,1-.4l6.3-9.2Z" fill="#fff"/>
    </g>
    <path id="Path_14374" data-name="Path 14374" d="M194.7,206.1c-1.1,4.9-3.3,22.6-6.6,45.1-1.8,12.7-5,47.7-6,54.9-1.7,12.2-15.3,80-18.4,95.7a3.3,3.3,0,0,0,2.6,3.9l36.4,6.5a4,4,0,0,0,4.6-2.8L234,324.7c4.8-16.2,26.6-98,26.6-98s4.7-3,4.8-6.1L266,206Z" fill="url(#linear-gradient-6)"/>
    <path id="Path_14375" data-name="Path 14375" d="M174.7,393.4l-1.3-.3c.1-.6,12.8-59.4,17.9-82.4,4.1-18.4,15.9-102.9,16.1-103.8l1.4.2c-.1.8-12,85.4-16.1,103.9l-18,82.4Z" fill="#43566d"/>
    <path id="Path_14376" data-name="Path 14376" d="M207.1,409.4l38.7-127.1s-25.7,42.1-36.5,57.3l-43,61.4a3.271,3.271,0,0,0,2.1,5.1l34.1,6.1A4.1,4.1,0,0,0,207.1,409.4Z" fill="url(#linear-gradient-7)"/>
    <g id="Group_1061" data-name="Group 1061">
      <path id="Path_14377" data-name="Path 14377" d="M180.6,382.8l.9-.9-1-.3Zm-3.7,3.9,1.7.2-.9-1.5Zm-4.7,6.5,1.7.2L173,392Zm-3.1,3.9,1.7.3-.9-1.5Zm4-32.3,1.3-.4-1.5-1.7-.2,1.8-1.2-.8-.3,1.7,2-.5Zm-1.6,3.9,1.1-.3.6.8.2-.9.2-.1-.2-.1.3-.9.6,2.5,1.8-2.5-2.3-.5.2-.5-2,.3-.8-.9-.3,2.2.9-.3Zm7.6-5.9-1,1.4,2,.4Zm-3.9,11-1.1-1.8-.9,1.5Zm-4.1.4.6,1.6,1.4-1.6Zm2.3-3.9.7,1.6,1.3-1.6Zm.6,5.8-1,1.4,2,.4Zm-6.5,13.6,1.6.2-.8-1.4,1.4-.9-1.2-.8,1.9-.4-1.2-1,.5-.1-1-.9,1.6-1-.6-.5.3-.7.9.5-.2-1.4-.4.3-.1-1.1-.9.5,1,.6-.1.1h-1.4l.5.9-1.2-.8-.4,3.2.6-.5-.2,1.2.6-.1-.3,1.1-.9-.6-.3,3.2,1-.7Zm11.3-33.9.9,1.8.9-1.7Zm2.1-11.2,1,1.8.8-1.8Zm-.1,23.2.7-1.9h-1.8Zm-2.6,1.9,1,1.9.8-1.9Z" fill="#535f87"/>
      <path id="Path_14378" data-name="Path 14378" d="M175.2,344.5l1.3,1.6h.1l.3-1.1h-.1l.2-.8Zm3.9-11.6.6-1.7-1.4.1.1.3-.8-.6-.3,2.6,1.6-1.1Zm5.2,3.6-1.5.1.9,1.5Zm-5.8-1.3.6-1.6h-1.5Zm-7.3,50.1.6-1.6h-1.4Zm4-6.6-1,1.4,2.1.4Zm10.3,8.4.3-1-.9.4Zm-12.2-8.7-.6.8-.4.1.2.2-.1.1h.1l.4.5.1-.5h.7Zm-1.5,3.3.3-1.2-1,.2Zm.5,4.8-.1,1,1.1-.4Zm5.8-20.7,1-.9-1.1-.5Zm-.1-14.1.2,1.5.9-1Zm-1.5,14.9.1,1.5,1-1Zm-3.1,3.7-.7-1-.2.3-1.8-1.5-.6,3.1,2.1-1.1Zm8.2,2.5.7.8.4-1.1Zm-5.4-12.4.1-1.2-1.3.6Zm-2.9-5.4-.5,2.1,1.9-.8Zm1.2,8.1,1.4,1.3-.9.2.6.9.4-.9h.1v-.2l.2-1.9Zm2.8-3.8.3-2.1-1.8.7Zm-2.2,17.6.3-2.1-1.8.6Zm-3.6,10.4.4-2.2-1.8.6Zm13.6-38.9,1.1-.2-.9-.8Zm-4.7.9-1,.5,1,.5Zm-4.4-7.5,1-.3,1.1,1.9.7-2.9,1.1.5-.1-1.3-1.1.7-2.1.5.3.5-.7-.6,1.6-.8-.5-.4v-.9l2.5.4-.8-2.7-2,2-.7-.1.9,1.2-.9-.7-.4,2.1.2-.1Zm.8-4.7.6-.6-.7-.4,1.5-.7-1.1-1-.4,1.7h-.1l.1.9-.1-.1-.3,1.3,1.2-.6Zm5.9,37.9.2.7.5-.3Zm-5.5-2.3-.5.5.8.1Zm-6.8,15.4.6.5.2-.9Zm4.2-2.6.1.7.6-.4Zm22.6-22.2.7-.2-.5-.5Zm-4.5,4.6-.5.4.7.4ZM181.5,361l1-.7-1.3-.7Z" fill="#535f87"/>
      <path id="Path_14379" data-name="Path 14379" d="M179.1,352.7l-.7.9,1.2.1Zm-4.8,9.4.3-1.1-1,.1Zm9-30.3,1-.1-.7-1Zm-2.8-1.4,1-.2-.7-.9Zm-2.6,32,1.3-1.2-1.9-.8Zm8.8-16.3-1.1-.5.3,1.1Zm-3,3.6.3,1.1.2-.1.2.7-.3-.4-.3.7h.8l-.2-.2.8-.6-.8-.3.4-.4Zm-4.5-23.5,1.7-1-.5-.4,1.1-.7-2.1-1.6-.5,3.2.4-.3Zm4.1,1-1.1,1.7,1.9-.1Zm-3.2,7-1.3,1.6h2Zm-6.8,48.1-1.2-.1.4,1Zm4.5-8.2-.3,1.1,1-.1Zm-2.1,2.7.8,1.1.6-1ZM173,389l-1.1-.1.3,1Zm4.9-8.4-.4,1.2,1-.1Zm-7.5,10.1,1.2-1.5-1.6-.5Zm.1-11.4,1.1.2-.6-1.1.4-1.1-1.8.1.7,1.2-.2.3-1.2-1-.8,3,2.8-1.2Zm-2.7,21.5-1.2-1,.5-.1-1.2-1,1.8-.8-.6-.5.3-.8.9.5-.2-1.4-.5.3h-1.4l.4.9-.9-.8-.8,3.1.8-.4-.2,1.3.5-.2-.1.7-.8-.6-.7,3.1,2.7-1.3-.8-.7Zm.7-1.2.7-1.6-1.4.1Zm.4,2,.4-2.1-1.9.6Zm-.6,1.4.3-.9-.8.3Zm3.8-2.4.5-.4-.6-.4Zm-2.5,3.6.8-.8-1.1-.2Zm5.3-8.1,1-.1-.7-1Zm-4.2-20.5-.1-.8-.5.3-.6-.5-.7,3.1,2.7-1.4Zm1.2-2.7h.6l-.7-1-.3.6-.5-.4,1-.3-.7-.8-.3,1-.8-.6-.6,3.1,2.7-1.4Zm3.3-16,1.1.5v-1.2l-1.3.6.1.1-2.5.4,1.8,2.5Zm-.9-4-.2-.1v.1l-.6.1.4.7-.2.8.7-.2.2.3-.3.3.6.1.4.6.1-.5,1,.2-.7-1.2V354l.3.5.3-1.2.7-.2-.5-.5.3-1.2-1.5.3-.6-.9.8-.2.1.3.2-.4.7-.2-.4-.3v-.1l1-.4-1.3-1.4,1.2-.8-2.2-1.6-.5,3.3,1.3-.8-.1.8h-.8l.2.4-.3,1.4-.4-.6-.6,2.5,1-.3.2.4Z" fill="#535f87"/>
      <path id="Path_14380" data-name="Path 14380" d="M174.2,362.1l-1.9-1.7,1.7-.6-1.4-1.3-.6,2.1.1-.1-.6,2.9Zm-7.6,27.6-.6,3.1,2.7-1.4Zm1.2,2.9-1.9,2,2.9.9Zm4.6,2.3-1.1-2.9-.5.6-.8-1.3-.8,1.3,1.4.1-1.1,1.2Zm5.2-44.3,1.8-2.5-2.7-.6Zm1.6,27.5.2-.8-.8.4.3.3-.6.8h1.2Zm-.7,6.8-.1.9,1-.4Zm1.3-42.4-1.2.7,1.2.6Zm-4.2-.7-.5,2.3,1.9-.8Zm5.7-1.3-.6.3v-.1l-.8.1.2.3-.5.2,1.5,1.4Zm3.3,3.1-1.4-.6.4,1.4Zm-4.5-6.4h1.2l-.5-1Zm-.4-8.4,2.4.6-1.3-2.9-.4.5v-.8l-.8.4.8.5-1.2,1.3-.7-.6-.5,3.3,2.7-1.6Zm-.2,54.9h1.2l-.5-1Zm-6,.5.1.2-1.3-.1.5,1.7,1.1-1.2.2.2.1-.5.1-.1h-.1l.1-.4Zm6.1,6.5.9-.5-.9-.5Zm-3.1-10.3-.9.9,1.4.4Zm3.8,7-1.1.1.5.9Zm2.9-8.1,1-.3-.9-.9Zm3.8-5,.7.6v-1Zm1,5.7.7-.5-.8-.2Zm4.4-5.1.7.1-.3-.8Zm-7.7,9.1-.2,1.1.9-.5Zm7.2-70,.2,1.2.7-.9Zm-1,4.8.3-.2-.7-.5-.1-.1-.8,1.3,1.7.1Zm-7.2,6.9-1.1,1.3,2.9.7-1.2-2.8-.5.6-.8-1.1-.8,1.3Zm2.3-.9-.8,1.3,1.8.1Zm-2.6-28.4-.3,1.7,2-.6-.3-.2,1.2-.4-1.5-1.5,1.4-.7-.2-.2.3-1.1-1,.2.6.8-1.7-1.3,1.5-1-1.7-1-.1,2.2.2-.2-.5,3.1,1-.7-.1,1.5Zm8.3.4-1.1-1.8-1,1.5Zm-5.4,7.9-.9,1.5,2.1.2Zm-2.2,4,1.3-1.8-2,.1Zm1.9-4.3,1.3-1.7-2,.1Zm.4,4.4-.9,1.5,2,.2ZM182,323l-.9-1.4-.8,1.3Zm7.9-35,1,1.8.8-1.8Zm2.3-9.5.7-1.9h-1.8ZM192,300l.7-1.9-1.8.1Zm0,2.2.3.2-.1-.9-.7.3.3.3h-1.5l1.1,1.8Zm-5.4-24,.2.2.2-1.2-.3.1.2-.8-1.8.4,1.4,1.5Zm1.8-12.9.4-1.6-1.4.2.1.2-.8-.4v2.6l1.5-1.3Z" fill="#535f87"/>
      <path id="Path_14381" data-name="Path 14381" d="M193.9,268.6l-1.4.1.8,1.5Zm-5.5-2.6-1.5.1.9,1.5Zm-4.6,52.2.6-1.6-1.4.1Zm3.7-6.8-.9,1.5,2,.2Zm9.5,7.9.3-1-.9.4ZM185.1,312l-.2.1h.1l-.2.3h.4l.3.4.1-.4h.5l-.5-1.1Zm-1.6,1.6.8,1,.2-1.2Zm1.5,5.8v1l1-.5Zm5.7-22.3-1.2-.5.2,1.5Zm-1.6-11.7,1-1-1.2-.4Zm-.7,15,.9-1-1.2-.5Zm5.7,4.3-1.1.3.7.8Zm-7.8-12.5,1.3.6v-1.2Zm-1.9-4.7-.5,2.2,2-.9Zm1.6,8.1,1.4,1.2-.8.3.7.8.3-.9v-.2l.1-.1h-.1l.2-1.9Zm2.8-6.1-1.8.8,1.6,1.3Zm-1,17.9-1.8.7,1.6,1.4Zm-3.5,12.8.2-2.2-1.8.7Zm11.3-40.9-.2,1,1.2-.3Zm-4.4,3.1-.1-1-1,.6Zm-5.4-8.2,1-.4,1.2,1.9.6-2.9,1.1.4-.1-1.2-1.1.6-2.2.6.4.5-.7-.6,1.6-.8-.5-.4-.1-.9,2.5.3-.8-2.7-2,2.1-.7-.1,1,1.2-1-.7-.3,2.2.2-.1Z" fill="#535f87"/>
      <path id="Path_14382" data-name="Path 14382" d="M186.5,269.4l.6-.6-.8-.3,1.5-.8-1.1-1-.4,1.8.1.8-.2-.1-.2,1.4,1.2-.7Zm8.7,38.5.5-.4-.7-.4Zm-5.8-2.7-.4.5.7.1ZM184,320.7l-.8.4.6.5Zm3.4-1.8.5-.4-.6-.3Zm19.2-24.6-.1.7.6-.3Zm-7.9,3,.7.4-.2-.8Zm-6.2-5.6.3,1.2-.4-.5-.4.8,1-.1-.1-.1.9-.7Zm-3.2-5.8h1.1l.1.1v-.1l.4-.5-.6-.2.1.3-.3-.6Zm2.5-22.6,1-.3-.8-.9Zm-2.9-1.3,1-.2-.6-.7.1-.1-2.2-1.5-.4,3.3,2.2-1.5Zm.4,32.6,1.3-1.2-2-.7Zm5.3-12,.3.8.7-.6-.8-.3.4-.3-1.1-.5.3,1.1Zm-.1-18.5-.9,1.9-.6-.5v1.2l1-.5-.4-.2,1.9-.4Zm-7-8.2-.1,2,1.6-1.1Zm3,4.6,1.9-.3-.9-1.5Zm-2,7.6,1.9-.1-.8-1.6ZM184.9,315l.4,1,.8-1Zm4.9-7.3,1-.2-.7-.9Zm-.2,1.7-1.5-.1.9,1.2Zm-4.5,13.4.8-1h-1.1Zm5.9-8.6-.7-1-.3,1.1Zm-7.6,9.5,1.1-1.6-1.7-.4Zm-1.8-3.9,1.5-.4-1.2-.9.5-.2-1.2-.8,1.7-.9-.7-.6.3-.8.9.5-.2-1.4-.1.1-.2-1-.9.5,1,.6-.3.2h-1.4l.5,1-1-.9-.6,3.2.8-.4-.2,1.2.6-.1-.2.8-1.1-1-.6,3.1,2.6-1.4Z" fill="#535f87"/>
      <path id="Path_14383" data-name="Path 14383" d="M183.1,312.4h.8l-.5-.9.5-1.3-1.5.1,1.8-1-1.1-.9-.2-.7-.4.3-.4-.4-.2.9-.3,2.3.5-.4.7,1-.3.5-1-.9-.6,3.2,2.6-1.4Zm1.1-6.7h.6l-.8-1-.3.6-.5-.4,1-.4-.8-.7-.3,1.1-.8-.6-.4,3.1,2.6-1.5Z" fill="#535f87"/>
      <path id="Path_14384" data-name="Path 14384" d="M183,300.9l-.5,3.1,2.2-1.2h.6l-.2-.3h.1l-.4-.3-.3-.4-.1.2-.9-.7.9-.3.6.7.2-.9h.1l-.1-.1.2-1,.8,2.5,1.6-2.6-2.3-.4.1-.5-1.7.4-.8-.8-.2,2.3.6-.3-.1.9Zm3.4-11.6,1,.5v-1.3l-1.3.7.2.1-2.5.5,1.9,2.5Zm-1.2-3.9-.1-.1-.1.1-.6.2.5.6-.1.9.6-.3.2.2-.3.4.6.1.4.5.2-.4.9.1-.7-1.2v-.1l.4.4.2-1.2.6-.2-.4-.5.2-1.1-1.5.4-.7-.9.8-.3.2.3.1-.4.8-.2-.5-.3v-.1l1-.4-1.4-1.4,1.1-.9-2.2-1.4-.3,3.3,1.2-.9-.1.8h-.8l.3.5-.2,1.4-.5-.6-.5,2.6,1-.5.3.5Zm3.2-2.5,1.7-2.6-2.7-.4Zm3.3,27.6.1-.8-.8.4.4.3-.5.8h1.2Zm-.4,6.8v.9l.9-.5ZM189.7,276v-1.3l-1.2.8Zm-3.6-1.7-.4,2.3,1.9-.8Zm3.3-.7,1.6,1.3.1-2.2-.6.3v-.1l-.8.1.2.3Zm3.9,1.5.5,1.3.8-.8Zm-2.1-5.8-.5-.9-.7,1Zm1.5,45.8-.7,1.1,1.2-.1ZM186,317l.2.2h-1.4l.7,1.6,1.1-1.2.1.2.1-.5.1-.1h-.1l.1-.5Zm6.5,6.1.9-.5-.9-.4Zm-3.4-10.2-.8,1,1.4.3Zm4.2,6.8-1.1.1.5.9Z" fill="#535f87"/>
      <path id="Path_14385" data-name="Path 14385" d="M195.8,310.2v1.2l.9-.4Zm-3.3-3.4.2.7.6-.5Zm4.8-5.3-.4.7.7.1ZM195,286.9l.2,1,.7-1.1h-.3l.2-.1-.7-.7-.1.6h-.1Zm.9-4.7v-.7l-.7.4Zm-2.1-19.7.2-.8-.7.1Zm1.5,7.1-.1.6.7-.4Zm5.4,22.3.2-1.1-.9.5Zm-4.1-1.2-1.2-.4.2,1.2Zm5.8,1.5,1,.2-.4-1.2Zm-4.8-9,.9.8.3-1Zm-.7-5.9-.1.6-.9-.4.3,1.1.6-.5v.1l.9-.3Zm4.3,3,.6.4v-.9Zm-.8-6.3.5-.6-.8-.2Zm-4.9-21.1-1.8-.1.8,1.9Zm1.6-9.5.7-1.9H196Zm-4-13.1.5-1.7-.6.1v-.2l-.9.2.1.2h-.1l.4.5-1.1-.8-.4,2.6,1.9-1.2Zm5.1,4.8.5-1.7-1.4.2Zm-5.4-4.1-1.4.1.9,1.5Zm.2,19.2,1.1-.9-1.2-.6Zm-2,7.2.1-1.2-1.4.5Zm-1.2-3.7,1.3.7v-1.3Zm-1.3-1.9-.6,2,2-.7Zm3.9,2.4-1.8.6,1.5,1.5Zm4.3-8h1.2l-.7-.9Zm-1.3,1.1v-1l-1.1.5Zm-4.7-8.1.9-.4,1.3,1.8.5-2.9,1.1.4-.1-1.2-1.1.7-2.1.5.4.6-.8-.7,1.3-.7-.5-.4-.1-.9,2.6.3-.9-2.7-2,2.1h-.6l.9,1.1-.9-.7-.3,2.2.4-.3Z" fill="#535f87"/>
      <path id="Path_14386" data-name="Path 14386" d="M191,234.4l.6-.6-.8-.3,1.5-.8-1.2-1-.3,1.8.1.8-.1-.1-.2,1.4,1.1-.7Zm5.3,23.7,1-.7-1.4-.7Zm-3.1-7.5,1.1.1v.1l.1-.1.5-.4-.6-.2v.2l-.2-.5Zm-3.9,7.3-.7.1v-.2l-.9.5.9.4v-.3l.4.6Zm7.9-29.1,1-.3-.9-.9Zm-2.8-2.3-.2,1.2,1-.3Zm5.7,21.6-1-.5.3,1.1Zm1-4.6.8-.7-1.1-.4Z" fill="#535f87"/>
      <path id="Path_14387" data-name="Path 14387" d="M197.2,248.9l.3,1.1.8-.6Zm2.1-19.9-1,1.8-.6-.4.1,1.2.9-.5-.4-.3,1.9-.3Zm-6.8-5.3,1.6-1.3-1.5-.8,1.1-.5-.7-.6.7-.5-.8-.4,1.5-.7-1.1-1-.4,1.7h-.1l.1.9-.1-.2-.3,1.4Zm3.2,2.4,2-.4-1-1.5Zm-.5,6.8-.8-1.6-1.2,1.7ZM190.3,254l-2.6.4,1.7,2.6Zm-1.1-4.2-.2-.1v.1l-.6.1.4.7-.2.8.7-.2.1.3-.2.3.5.2.4.5.2-.4.9.2-.6-1.2V251l.3.4.3-1.2.7-.1-.5-.6.4-1.1-1.6.3-.6-.9.8-.2.2.2.1-.3.8-.2-.5-.4.5-.9-1.3-.1.7-.2-.8-.9,1.8-1.3-.4-.2.2-1.1-.1.1.2-.9-1.8.4,1,1.2-1.4-1-.2,2.1-.4,2.2.8-.2.1.2-.3,1.4-.5-.6-.6,2.5,1-.3.2.4Zm3.3-2.2,1.9-2.5-2.6-.6Zm2.1-6.7-.1-1.2-1.2.7Zm-4.6-1.8-.5,2.2,2-.8Zm4.2-.6,1.7,1.3.1-2.2-.7.3.1-.1-.9.1.3.3Zm5.1,2L198,240l.4,1.3Zm-4-7.2-.7,1h1.2Zm-3.4-8.1-.4,3.3,2.6-1.8Zm6.9,26.9.8-.1-.5-.7Zm.6-5,.7.3v-.6Zm-.1-19.9-.7.1.5.6Zm-3-9.5-1.3,1.6h2Zm-1.7,5.4-.8.8-.1-.4-.8.5.5.2-1,1.1,3,.5Zm6.2,4-1.4-.5.4,1.3Zm-3.3-6.4-.5-.9-.7.9Zm2.6,13.7v.7l.7-.4Zm-.8,3-.2.8,1-.3Zm4.3,2.9.6.4-.1-.9Zm-.4-6.9-.8-.2.3.8Zm-14.1,88.9-.6.4.6.3Zm-2-19,.5.6.2-.8Zm1.5,7.7.7-.3-.7-.3Zm.4,17.7.6-1.1-.7-.1-.5-.6-.2.9.5-.2Zm-3.2,5.4,1.1-.1-.7-.8-.1.2-.8-1.4-1.1,1.8-.5-.5v1.2l.3-.1v1l.8-.7-.7-.4.6-.2-.4-.3,1.8-.3Zm8.7-1.5.1-1.1-.8.5Zm-4.1-1.1-1.3-.4.2,1.2Zm6.4.3-.6,1.1,1.1.1Zm-4.4-8.1-1.2.2.9.9Zm2.3-2.7.7.4v-.9Zm-.4-6.9-.8-.2.4.8Zm-6.3,24,.1-.9-.7.3Zm.5,4.2h0l-1-.7-.1,1.1.4-.2.1.2Zm4.2-4.7-.4.6.7.1ZM188,349.8l.7-.3-.6-.5Zm-4.4,5.7.7.2-.1-.7Zm5.9-17.2h1.1l-.6-1.1Zm1.7-6.7.9.6.2-.9Zm-3.1,3.1,1.4.1-.4-1.2Zm-5.9-.4h-1l.6,1.1Zm4.9,12-.9.4.9.4Zm9-30-.1,1,.8-.5Z" fill="#535f87"/>
    </g>
    <path id="Path_14388" data-name="Path 14388" d="M210.1,400.8l-44.6-8.5.2-1.4,44.8,8.6Zm22.8,1.9-.1-1.6,45.1-3.6.1,1.3Z" fill="#43566d"/>
    <path id="Path_14389" data-name="Path 14389" d="M246.9,396.6s3.2-19.3,7.5-35c6-21.9,21.4-47.2,21.4-47.2l-1.1-32.6-2.8-46.5-2.7-29.2-3.8.1.3,14.4-.5,2.2-4.8,3.6-1.5,6.4L227.5,349.7l4.9,48.6,14.5-1.7Z" fill="url(#linear-gradient-8)"/>
    <g id="Group_1062" data-name="Group 1062">
      <path id="Path_14390" data-name="Path 14390" d="M242.9,393.4l.5-1.1h-1.1Zm-12.2-40.7,1.1-.4-1.1-.6v.9l-1.9-1.6-.6,3.5L231,353Zm6.4,22.4,2.1-.3-1.5-1.4ZM234.4,389l.9-2-1.9.6Zm-.1-5.8,1,1.3-.4,1.7,2.1-.4-1.6-1.2.9-2Zm1.9,5-.5,1.7,2-.3Zm.8-21.9-1.8.5,1.5,1.5Zm4.1,9.3-1.7.6,1.5,1.4Zm-1.3,4.7-1.7.5,1.6,1.5Zm-7.2,15.2.1,2.2,2.1-1.9Zm5.4-5.1-.6,1.8,2.1-.5Zm2.5,3.4-.7.6.7.4Zm-4.9-1.5,1.3-.5-.8-.9Zm.2,2.2-.1-1.2-.9.5Zm1.3-19.2.5,1.4.7-1.3Zm-3.3-10.5.7-1.1-1.3-.1Z" fill="#111723"/>
      <path id="Path_14391" data-name="Path 14391" d="M236.3,378l.6,1.3.6-1.2Zm-2,5.2-.9-.8-.1.4-1.5-.6,1.7-1.1.4.4v-2l1.3,2.1,1-2.9-2.4.2v-.5l-1.5.7-1.3-.7,1.7-1-.1-.1,1.1-.8-1.8-1,1.1-1-2.3-1,1.4-1.1-1.8-.9.1,2.2.1-.1.3,3,1-1,.3,1.5-1.4-.4.2,1.6h-.2l.4,2.2.8-.6,1.5,1.2-1.8-.6.1,1.6-.5-.2.2,3.2,1.7-1.7Zm9-1.2-1,.6.9.6Zm-8.1-4.9.1-.9.2.1-.4-2.1-1.5,1.2,1.4.7-.7.4Zm-.6-4.9-.4-1.2-1,.9Zm-2.9-3.3-1.7-.8.1,2.1Zm3.6,1.9-.4-2.2-1.5,1.3Zm2.1,18-.4-2.2-1.5,1.3Zm.9-31.6-.2,1.1,1.2-.4Zm-8.2,1.7,1.2-.4-1-.7Zm9.3-7.7-.2,1,1.2-.4Zm-6.2,1.2-.1,1,1.1-.4Zm-.3-2.1.4-1.2-1.1.5Zm1.2-4.3.4-1.2-1.1.5Zm.7,14.4-.9.8,1.2.1Zm6.8,27.3-.7.7.8.3Zm2.7-2.7.4-.5-.7-.2Zm-6.2-1-.3.7.7-.2ZM254,368.5l.5-.5-.6-.3Zm-3.3,6.5.8.1-.4-.7Zm-10.4-4.9-1.4-.2.7,1.2Zm-4.7-5.4-.7-.8-.5,1.1Zm-2.5,9.8-.1-1.2-.9.4Zm2.3-15.8.2-.3-1.2-.1.6.9.1-.2.4.6.5-.8Zm2.2,13.3-2.1-.2,1.2,1.7Zm-2.2-16.5.6,1,.6-.8Zm-.6-.8-1.2-.2.6,1Zm-1.2-2.9.6-.9-1.2-.1Zm-.1-3.5.5-.8-1.1-.1Zm-2.9,3.4,1.8-.4-1.3-1.5.5-.2-.5-.5,1.3-1.1-1.3-.7v1.8l-1.6-1.3-.6,3.2,2-1.1Zm2.1,5.8-1.7-.2.9,1.5Zm5.3,37.1-1.2.3.6.8Z" fill="#111723"/>
      <path id="Path_14392" data-name="Path 14392" d="M239.8,385.3v1.1l.9-.4Zm0,2.9-1.4.4,1.1.8Zm-6.4-3.3-.9-.5v1.2Zm.2,9.8,1.2.3-.5-1.1Zm1.7.4-1.1,2.6,3.1-.2Zm-1.5-2.4,1.1-.2-.4-.3.2-1.8-1.8.6.6.6-.2.9-1.1-.4.3,3.1,2.2-2.1Zm.5-3.2-.7-.3-.5-.9-.4.5-.9-.3,2.2-2.2-.3-.2.5-.1-.9-.7-.2.6-1.5-.6.2,3.2.3,3.1Zm3.4,8.9-2,.6,1.1,1.4Zm.1,4.4-.5,1.8,2.1-.4Zm-.1,2.7-.5,1.4,1.3-.4Zm-.4,2.4-.9.5,1,.7Zm1.8,2.4.5-1.1-1.1.3Zm2.3-9.3,1-.4-1-.7Zm-.6,3.6.2-1.2-1.4.3Zm-7.1-3.8,1-.7-1-.5Zm2.3,9.4-.2-.4.2-.3h-.3l-.2-.4-.3.3-1.4-.2.8,2.1,1-1.2Zm-.1,2.1,3-.2-2-2.4Zm-2.1-5.6V409l1.7-1.7,1-.2-.3-.3.1-1.7-1.7.6.5.5-.1.6Zm1.4-2.9-.5-.9-.4.5-.8-.3.3,3.2,2.1-2.2Zm-2.8-34.3,1.2.1-.3-1.2-.9.9v-.2l-2.4,1.2,2.5,1.9Zm-2.2-3.1.1.9.5-.4.1.1-.3.8,1.2-.1.2.1v-.2l.7-.1-.7-.7v-.6l.4.3-.1-1.1.4-.3-.4-.1v-1.7l-1.4.8-.9-.6.6-.5.2.2.1-.3.6-.5-.5-.2v-.1l.8-.7-1.5-.8.7-.7,1.5,2.5,1-3-2.2.2.1-.2-2.2-.9,1.4-1.2-.6-.3.4-2.4-2.4.7,1.4,1.4-.7-.3.2,2,.3,3.3.8-.8.1.6-.7.2.3.3.1,1.3-.4-.3.2,2.6.8-.6.4.3-.5.3-.2-.1v.2l-.5.3Zm1.6-19.9.1.1.1-.2h.1l1.5-1.9-2.3-.8.3-.8.5-.1-1.4-1.7-.5,2.2,1.1-.3-1.1.6.7.2.8,2.2-1.4-1.1.7-.1-.8-1.2-.3,1.4-.5,2.8Zm1.2,7.3-1.8,1.7,2.3.4Zm14.6,28.7.9.3-.3-.9Zm2.7,5.1.5-.7H250Zm2.6-6.4.7-.2-.5-.6Zm-4.1,12,.6-.8-.8-.3Zm5-93.6-.7,1,1,.1Zm.4-4.8-1.6-.7.2,1.6Zm-9.1-4.7-.5-.5-.4,1.5,1.7-.2-.4-.4,1.5-.3-1.2-1,.8-.2-1.8-2.5-.8,3.1,1.3-.3Zm-1.2,25.2.3,1.8,1.7-1.1Zm.1-11.6v.2l-.9-.3.1,1,.9-.5.1,1.4-1.2,1,1.8,1-.5-2.1,1.7-.9Zm-.2-2.6-1.3,1.2,1.8,1Zm5.2-8.5-1.2,1.2,1.2.7-.2.1.6.6.1-.4h.1v-.1l.1-.5-.2.1Zm-3.6,9.7,1.7-1.1-1.9-.8Zm.4-15,1.4-.9-.8-.3,1.1-.3-1-1.3.2-.2-.5-.3v.1l-.4-.6,2,.2-.6-1.6.8-.2-1.4-1.4-.7,2.1.7-.2-.9.9-.8,3.1.8-.2Zm2.4-5.7.2-1.1,2,.2-.7-1.9-.2.2-.3-.4,1.8.2-.4-.6,1.3-1.1-.7-.3.3-1.8-1.8.6-.2-.4,1.3-.7-1.5-.7.1,1.1-.7-1.2-.7,3-.1-.2-.7,2.8h1.7l-1.8.6,1.1,1.7Zm2-4.8-.2-.4.4.5v1.3l-.8-1.3-.8,1.5-.9-1.3,2.3-.3Zm-.9,2.4-.9,1.1.2-1Zm-6.9,42.7-1.7,1.2,1.6.8Zm-3.1,11.4v-2.1l-1.7,1.3Zm9.3-20-1.8,1.1,1.6.9Zm-.7-2.8.2-2-1.8,1.1Zm-4.3-16.1.9.6.2.3-.8.1.5.9.4-.6.9-1.1h-.8V294l.8-.2-.7-.9-1.2-1.6-.7,3.1.7-.1Zm3.6-.2.1-1.7-1.4.9Zm7.3-17.5-.3.8.9-.1Zm-11,21.7-.6.5,1.5.9.2-1.8.4-.2-.9-.4.7-.2-1.8-2.5-.8,3.1,1.2-.3Zm2.4-1.3.3-1.1-1.1.5Zm2.8-5.9h1.1l-.7-1Zm-3.5,24-.5-1.3-.8,1.2Z" fill="#111723"/>
      <path id="Path_14393" data-name="Path 14393" d="M238.9,326.4l-.5-1.3-.8,1.2Zm4.7-14,1.2.1-.4-1.4Zm7.7-3.1.1-1.1-1,.3Zm-10.9,9.5.5-1.1h-1.4Zm-1.4,2.7.6-1.1h-1.4Zm-1.7-5.8,2.4-.5-.8-1.2,1.9-.7-1.1-1.1.7-.2-1.5-1.4-.5,1.8.9-.2-.5,1.6-.9-1.2-.7,2.9h-.1l-.4,2.1,1.8-.5Zm-1.1,3.1-.5,2.1,1.9-.5Zm5.6-2.9.7-2.1-.2.1.1-.9-1,.4.6.6-1.5.4Zm-.5,3.3-2,.6,1.3,1.5Zm3.4-16.7L246,304l.7-2.1Zm3.8-11.6-2,.6,1.4,1.5Zm2.8-8.1-.8-.4v.9l.8-.5.7-2-2,.5Zm-5.8,49.8,1-.4-1-.6Zm-6.4-3.8-1.1-.1.6,1Zm-7.6,7.6-.3,1.3,1.1-.2Zm21.7-29.8-.5.6.8-.1Zm-6.4-.2.6-.4-.8-.3Zm1.1-16.8.6.7.2-.9Zm2.9,3.8-.4.6h.7Zm-1.2-11.3.2-.8-.6.1Zm1.8,2.7-.4.5h.7Zm-5.7,35-1,1,1.5.1Zm-5.8,6.2.8-.7-1.1-.5Zm-.3-9.7.2-1.1-1.1.5Zm3.5,13.5-.8.8,1.2.1Zm-1.3-11.6,2.1.3-.7-1.7Zm1.2,14.7-.7.9h1.2Zm-1.1-6.1-.8.8,1.2.1Zm.4-24.4.9-1.1h-1.4Zm5.5-6.6-.7.7,1,.5Zm.7,10.7,1-.5-.8-.6Zm.4-4.8-1.3.6,1.4.6Zm-6.8,3.3-.8-.9-.2,1.2Zm8.6-4.9,1.1-.6-.9-.6Zm2.2-24.5-.9,1.2,1.2.2Zm15-10.4-.6.9,1.2.2Zm-17,24.2,1,.2-.3-1.2Zm6.5-1.9h.1l.1.2.1-.3.6-.5-1-.7v.6l-.3.1Zm-5.1-7.7,1,.5-.3-1.2.3.2V279h.1l-.2-.4-.4-1.5-1.3,1.2,1,.5-.1.1.4.1.2.1Zm1.1,10.4,1.1-.6-.9-.6Z" fill="#111723"/>
      <path id="Path_14394" data-name="Path 14394" d="M252.8,264.5l-.2-2.4,1.3-.3-1.5-2.1,2.1-.5-1.4-2,2.4-.6-2.1-1.8-.5,2.1-.1-.2-.8,3-.7,2.7.9-.2-1.4,1.5Zm1.5-13.1-.7,2.5,2.6-.4Zm-3.1,21.9-1.6-2.1h1.9l-1.4-2.9,1.4-.2v1.1l1.1-.5-1.1-.6.9-.1-1.6-1.7,2.3-.3-.1-.1,1.4.8v-2l-1.7.8-1.5-1.5-.6,2h-.1l-.6,1.9v-.1l-1.1,3.3h.4l-.7,2.3Zm-2.5,13.2-1.3,1.5,1.6.5Zm-7.6,14.8,2.6-.6-1.8-2.5-.8,3.1-.8,3,2.6-.5Zm.1,10.2.1-.5,2.3.6-.5-3.1-1.7,1.9.4-1.9v-.1l-1.3-1.1,1.4-.3v.1l1.1-.6-1.2-.4.1.5-1.6-2.2-.8,3.1.7-.1-.4,1.4,1.9-.3-1.7.9-.8-.8-.7,2.1,1.2-.4Zm-2.3,5.8-2.7,1.4,2.1,1.6Zm11.5-15.2.1.5-.2.1.3.3v.4l.2-.1v.1l.1-.2.6-.5Zm-4.4-3.8-.3-.2v.3l-.3.2.4.4.1.6,1-.8-.6-.4v-.2Zm8.4-1.4-.6-.8-.4.8ZM265.6,252l.7-1.5-1.6.3Zm-9.8,24.6-.8.1.6.7Zm2.4,4.6-.3-.6-.5.6Zm-6.6-1.4-.3-.8-1.1,1.2,1.3.2h.3v-.1l.2-.3Zm5.3-9.8.2-.8-.6.2Zm2,3.2-.2-.5-.4.6Zm-5.4-1.3.1.6.5-.3Zm12.9-11.5-.8-1.1-.5,1.3h1.3v.7l.9-.4-.8-.8Zm-3.7-3.8.5-.9-.4.1.2-.7-1.3.3.8,1.2.1-.2Zm7.8-1.7-.5.8,1,.2Zm-8,12.2-1.1.9,1.1.6Zm.8-7.3-.2,1.1,1.1-.3Zm-10,22.5-1,.4.6.6Zm7.4-2.1-.4.9h1Zm-4.8-24.4-.4,2.1,2-1-.9-.7.4-2.1-2,1Zm7.7-19.8,1.6.2-.5-1.8Zm3.6-2.4.6-.4-.7-.3Zm-2.3-1.2h.8l-.3-.6Zm.2,2.3.8-.1-.4-.6Zm-.3,6.2-.7-1.8-.9,1.8Zm-2.7-5.3-.6,1.9.3-.1.3,1.2,1.3-1.1-.9-.2.6-.1Zm1.1-5.2.4-.5,1.3.5-.1-1.9-1.2,1.1-.5-.1-2.1-2.1-.8,2.7,2.7-.4Zm1.2,1.4h-1.1l.3.9Zm-3.7,3.8,1.5-1.3v-.1l.7-.6-.5,1.8,1.5-.3-.9-1.5.6-.6-2-.5.4,1.7-1.8-.5.4,1.8-1.4-1.3,2-.9-.1-.1.5-.1-.8-1.3.6-.2.4.6.4-2.2-1.6.5-.5-.4-.4,2,.8-.2-.2.6-.6-.4-.7,2-.1-.2-.6,2.7,3-.5Zm-2.9,2.4-.8,2.6,3.1-.4Zm1,6v-.1l1.3,1.2.2-2.3-1.2.5.9-2.2-2.7.2,1.3,2.6-1.7-2-.9,2.6,3-.2Zm-1.4,4.7H259l-.9-1.8-1.1,1.4-1.7-1.5-.6,2.7,3-.6Zm3.2-12.1-2.6.6,1.9,2.6Zm-5.2,24.7v-.2l.9,2.7,1.7-2.7-2.4-.3,1.5-2.3-2.6-.3Zm1.4-13.5.3-.1.6-.4-.5-.2.5-1.6-1.9.4,1,1.4Z" fill="#111723"/>
      <path id="Path_14395" data-name="Path 14395" d="M264.3,252.3l.2-1.1-.9.4Zm-1.2-2.1h1l-.5-1.2Zm-.8-6.8-1-.3.2.9Zm7.3,3.6v-1l-.8.5Zm-5.9-1.4-.1,1.3,1.3-.5Zm2,1.9,1.2-.7-.6.8,2.2.3-1.1-1.9-.4.5-.5-.2.9-.3-.9-.6-.1.9-.9-.4Zm-3.4-.5.1-.4.1-.3h.6l-.5-1.2-.5.9-.8-1-1,2,1.7-.3Zm5.7-38.5-2-.8.1,2Z" fill="#111723"/>
      <path id="Path_14396" data-name="Path 14396" d="M268,210.8l1.4-.8-1.4-1.2Zm0,9.5,1.4-.7-1.4-1.3Zm.2-7.6,1.1-1.7-2.1.1.8,1.6-1.8-.9,1.7-1.4-1.8-.7-.1,2v3l2.8-1.7Zm.3,4.3-.2-3.3-2.3,1.4Zm-.1-10.4-1.5,1,1.7,1.2Zm-2.5,23.1.4.2.3.6-.3.3h1.4l-.4-.9.1-.1.2-.9Zm3.1-7.5.1.9.6-.5Zm.3-4.4.6-.5-.7-.4Zm-2.3,5.1,1.5-1-1.7-1.1v.6l-1-.9-.4,2,1.5-.4Zm2.4,4.7v-.7l-.7.3Zm-1.8-8.7.1-1.2-.5.2,1.5-.7-2.7-1.6-.1,2.8.6-.2Zm.9,10.8v-.8l-.7.4Zm-.2-4.8,1-.4-1-.6Zm-2.4-6.4v1.8l1.9-.5Zm1.9,7.7v.1h-.4l.4.5-.1.4.4-.1.4.5.6-1.4-1.2.1Zm-3.9,1.9,1-.1.3.5h.1l.1.1v-.1l1.3.5-.1-1.4,1.1-.1-1.5-1.6-.5,1.7-1.3-1.3-.5,1.6-.6-1.9h1.4l1.1.4-.1-1.8.4.1.3,1.1,1.3-1.8-1.8-.3-.6-1.1-1,1.6-.1-.1-1.1,1.4v-.1l-2,1.8,3,1.3-.2-.4Zm2-.4-.3.3-.6-.1.8-.1-.1-.1h.2Zm-.3-3.1-.9.8-.5-1.1Zm-11.3,50.1.1-1.2-1,.6Zm6.7-.2h-.9l.4,1Zm1.3-29.5,2.1-.8-1.9-1.2Zm-7.2,6.9,1.7-1.5-1.8-.8Zm2.7,1.7-.4.6,1,.1-.2-.7h.4l-.9-1.8-.1.1-.7-1.3-1.3,1.8h1.7l-.9,1.2Zm3.4-4-.9-1.8-1.3,1.8Zm.7,3.8.2-2.4-1.8.9Zm2.5,5.8-.2-1.8-1.2.8Zm-9.8,11.1-.4-1.2-1.5,1.6,1.7.2V272l1.4-1.1-1.1-.4v-.2l1.6-.1-1.1-1.3.7-.8.5-.1-.2-.2.4-.6-1.8-.5.1.5-.6.5.7.5.1.7Zm4.4-12.2-.9-1.7-1.3,1.8Zm-6,4.9,1.9,1.2v-2.1Zm-5.3,20,1.7.2-.6-1.4Zm.4,1.2v.4h-1l.5,1.2.5-.7v.8l1.4-1.1Zm11.5-28.7-.8-1.4-1.1,1.6-.8-.3.1.9.7-.4h.9l.5,1.2.6-1.2v-.1l.2-.3Zm-6.5,19.4-.7-1.7.7-1.4h-1.5l.6,1.4-1.3,1.5Zm9.1-26h-.1l.9.9.2-1.1-.4.1-.1-.1,1.4-.9-1.6-1Zm-26.7,83.7.8,1.2.5-1.1Zm-.6,3.9.5-1,.6.4v-.1l.5.5.7-2.1-1.9.6.3.5-.3.1h-1.2Zm-1.7-3.2-.6-.6-.4,1.1.4-.1-.2.1,1.8,1.5.6-3.1-.5.3V332h.1l-.1-.2v-.6l-.3.2-.7-.9,2.3-.5-.1-.2,2.2.6-.5-3.1-.6.7-.8-1h.1l-.2-.2v-.7l-.4.3-.6-.5,1.3-.6,1.2,1.1.6-3.1-.5.2.1-.6.8-.5-.7-.2V322l-.3.1-1.1-.4.1.8h-.1l-.5-.5-.2.8-.7.3.5.4v.1h.2l.5.4-.4.2-.7-.8-.7,2.6-.3,1.3,1,.5-.3.8-.9-1.3-1.3,5.2.2-.1.9.4-.2.5Zm3.3-5-1.1,1.2-.5-.7Zm-2.4,11.6.9,1.2.5-1.1Zm-.5,3.9.5-1,.6.4.1-.2.4.6.7-2.1-1.9.5.3.5-.3.2-1.2-.1Z" fill="#111723"/>
      <path id="Path_14397" data-name="Path 14397" d="M231.1,341.2l1.8,1.4.7-3.1-.5.3V339l.1.3,1.7-2.1-2.4-.8.4-.8.5-.1-1.4-1.7-.4,2.2,1-.3-1.1.6.7.2.8,2.2-1.6,1.1,1,.5-.5.3-.6-.6-.4,1.1.4-.1Zm30.3-80.1-.6.4,1.5,1-.2-1.9-.7.5.3-2.2v-.1l-.6-.8-.4,1h.6l-1.4.5Zm-3.5,5.4.3-2.3-1.8.6Zm8-1.2.2-1.6-1.2.5Zm-.8-7.9-.3.9h1l-.3-.4,1.6,1.6.2-2.3-1.8.7Zm-1.4,6.3-.4.9,1.1-.1Zm-3.6-21.2,2.2-.5-.7-.8,1.2-.7-1.6-.7v.8l-.1-.1Zm-1.4,20.3-.3-1.2-.7,1.1Zm5.9-2.3.1-.7.6.1-.3-1.2-.6.9-.5.2Zm1.6-7,.5-.8,1.7.2-1.2-1.9-.8,1.3H266l.1.1h-.5Zm4.6,10.9.3.3.6-1.4-1.2.1-.3-1-1.2,1.8Zm-6.8-11,.9-.5-1-.4Zm3.5,9.4.5-1.5-1.3.1Zm2.3-6.2.8-.1-.6-.6Zm-11.6,19-.3-1.3-.8,1.1Zm-1.6-7.5v.9l.9-.5Zm7.6,4.4-.8.3.7.7Zm5.6-13,.4,1.2.7-.8Zm-1.9-17.8h-1.1l.7,1.1Zm-1-1.4.8-.8-1.1-.4ZM254,283.8l1.3,1.2.6-2Zm-.9,3.5.2.8h-.2l.3.3v0l.5.6.4-1.2h-.1l.3-.2ZM260,283l-.9.6.9.7Zm-1.3,9.9-.4,1.1,1.2-.3Zm-4.5-15.5-1.2.3.7.9Zm3-4.9-.6-.9-.4.8Zm3.1,7.5-.8-.3.1,1Zm6-11.5.8,1.1.4-1.1Zm.8,4.3v-.7l.4-.8h-.3l.1-.9-1.8.8Zm-5.7-9.4-1.8.8,1.5,1.5Zm-2.3,2.3-1.4,1.6,2.2.3Zm2,7.4-.5-1.2-.8,1Z" fill="#111723"/>
      <path id="Path_14398" data-name="Path 14398" d="M259.7,268.9l-1.3,1.6,2,.1Zm-.2-9.1-1.3,1.6,2,.1Zm-2.9,13-1.8.8,1.5,1.6Zm-2.3,9.2,1.1.3-.1-1-.2-1-.5.6-.5-.3v.9l-.3.4h.2v.3Zm16.8-6.6.4-1h-1.2Zm.1,1.9-.1.4-.2-.3-.9,1.5,2,.1-.7-1,.5-.1Zm-21.8,7.1.6.6-.8,1,1.6.4-.3-1.9-.2.1.3-.6Zm7.4,1.9-.8-.2.1,1Zm13.4-13.2-1.1-.4.4,1.2ZM268,251.5l.8,1.3.6-1.5Zm-14,47.9.8-.7-1-.6Zm2.8-6.5h1l-.7-.9Zm.3-15.1-.8,1.9,2-.6Zm-8.6,21.3-1.2-.5.2,1.8,1.7-1.1-.2-.1.7-.6-1.4-.3Zm5.9-4.3.9.6-.1-1.2Zm-.9,10.4,1.1-.4-.6-.8Zm-3.2-15.8-.1-.4-.7.6-.1.1.7.8.2-.4.2.1-.1-.5.2-.4Zm2.6-6-.4.8,1,.2Zm3,8.1.2,1,.7-.8Zm.9-9.6-.5.8,1,.2Zm3.7,8.4-.8-.3.1,1.1Zm-1.3-5.3-1.3.5.9.9Zm2.2-7-.5,1h1.2Zm5.7,9.4-.1-1.1-.7.8h.1l-.8-.2.2,1.2.8-.9Zm1.3,6.7.3,1,.6-.6Zm-2.9-9.7-1.3.5,1,.9Zm2.2-7-.4,1h1.1l.6.5.3-1.2-1,.5Zm-27.2,59,1-1.3h-1.7Zm-3.1,3.6.3-2.3-1.8.7Zm-1.7,5,.8,1.1.4-1.1Zm11.6-4.2-.2.7.8-.1Zm-7.6,1.6.7-.9-1.1-.4Zm2.9,12.6.9.3-.4-1Zm-7.4-6.6-1.3.5,1,.9Zm1.8-6h1.2l-.8-1Zm5.6,8.1-1-.2.3,1.2Zm-3.2.6-.1-1-.7.6Zm-.3-5.4.8-.3-.7-.5Zm5.6,4-.7.1.4.7Zm-8.4,9.6-.7.7.8.3Zm-.2-5.2-.1.8.8-.3Zm5.3,5.4.3-.8-.8.1Zm-2.3,3.8-.9-.3.3,1Zm2.1-14.1.4-1.4-1.3.5Zm2.6-8.4-.4,1h1.1Zm4.4,10.1.8-.9-1-.3Zm16.5-96.4-1.1-.3.4,1.2Zm-2.9-1.2-1.1-.4.4,1.2Zm3.3-11.2-1.5-.2.8,1.4Zm-6,9.3v-1l1,1.6.7-2.2-1.9.3.2.3-.8.5Zm5.7,87.6-.6-1.2-.5,1.1Zm2-6.1-1.7.4,1.2,1.1Zm3.9,22.6-2.1.1,1.5,1.6Zm1.4-10.5,1.5,1.4.6-1.6Zm2-2.9-.5.9-1.7-1.1.1,2.2,1.6-1-.6.9,2-.4Zm-2.4,6.2,1.8-.4.6.6.3-1-.9.1-.8-1.2Z" fill="#111723"/>
      <path id="Path_14399" data-name="Path 14399" d="M271,316.4l-.7,1.3-.4.3h.2l-.2.3.3-.1-.6,1.1,1.2-.2-.5-.9h.6l-.1-.1,1.1-.2Zm2.7,24.6-2.1.2,1.4,1.5Zm.4-26.4.8.9-.3.4-1.4-1-.2,1.8-1,.1,1,1.5.3-1.2.6-.4-.4.4.5.2-1.5,1.4,1.5.3-.4.3-.2-.3-1.2,1.6,1.9.4-.1,1.1,1.7-1.2-1.1-.9,1.1.4v-2.9l-.1-3,.1-.2-1.6.3Zm.2,5.9-.4-.9.5.2-.1.7Zm.4-1.9-.2-1.1,1,.4Zm-4.8,45.7,1.8-.3-1.3-1.6Zm.7,7.8-.4,2.1,1.8-.4ZM267,352.8l-.2,2,1.7-.5Zm-2-51.1-1.1-1.4.1-.2-.3.1v-.1l-.1.1-.8.3.6.7-.1.9Zm3.5,46.5-.2,2,1.7-.5Zm7.5,36.7-.2.6-.2,1.1,1.4-.3-.2-.2.7.3-1.7,1.4-.8-.6v1.2l.6-.3-.3.3,2.4,1.2v-5.7l-1.5,1.3Zm1.6-1.4.1-1.8-1.4,1Zm-7.4-2.9-.3,1.8,1.4-.4Zm5.7,2-.3,1.7,1.4-.3ZM268.7,316l.9.3v-.9Zm1.9,24.1.6-1.7-2.1.3Zm2.6-2.3,1-.5-1-.8Zm-1.9-7.1-.9.8,1.1.2Zm-1,23.2-.8,1.2,1.3.2Zm2.7,12.6-.7,1.1,1.2.2Zm-1.8-15.2-.8,1.2,1.2.2Zm-6.3-3,1-.6-.9-.6Zm7.8,5.3-.1,1.2.3-.2.2,1.8,1.6-1.2-1.5-.8.4-.2Zm.7,6.2,1.1-.9-1.4-.4Zm3.8-2.3-1.7,1.3,1.7.9Zm-.3,5.9.1-2.2-1.8,1.2Zm-4.7-1.1,1.6-1.2-1.8-1Zm1.5-30.3-1.8-1,.2,1.9-.3-.4-.9,1.8-.7-.6.1,1.1.7-.4,1.7-.4-.1.5,1.4-.4-1.2-1.3-.1,1-.5-.7Zm-2.9-11.4v2.1h-.3l.6.7.3-.8h-.3l.9-.5-.1.7.6-.5-.4-.3.4-.2Zm-5.6,51.3.2-1-1.2.3Zm5.7,12.8-.1-1.2-.9.5.4.3-1.9.4,1,1.5.9-1.9Zm1.7-14.6-1.2-.3.3,1Zm4.7,9.2-1.1.9.8.4-.5.7.8.2-.2-.9.2.1Zm-10.4-36.7.6-.5.2.2.5-1.2-1.2.3.5.6-.6-.3Z" fill="#111723"/>
      <path id="Path_14400" data-name="Path 14400" d="M264,345.2l-.5.5.8.2Zm6.5.7-.8.1.5.5Zm1.6-15.5.6-.5-.7-.4Zm-2.7,3.3-.3-.7-.4.5Zm5.5.1h0l-.8.7.4.2-.1.7-1.3-.3.6,1.3.7-.9-.1.5,1.4-.5-.4-.4,1.2.6-.1-3.3Zm-5.5-9.1-.4.4.5.2Zm-1.3,34.5-.8,1,1.5.3Zm4.1,7.6.6-1-1.2.2Zm2.7-9.2.9-.3-.9-.8Zm-3.5,28.7-.9.3.8.9Zm2.9,2.3.1-1.2-.9.3Zm.6,3,.9-.5-.9-.3Zm-4.8-33,2,.2-1-1.7ZM266,373.5l1.2.2-.5-1Zm2.4-2.4-.6-1-.1.2-.3-.6-.6.8.6.1-.2.3ZM272,391l.9-1.9-1.9.4Zm3.1-.9-1.9.4,1,1.5Zm-1.8-7.5,1,1.5.9-1.9ZM271,336.2l1.2-.2-.6-.8Zm-2.5,8-1,.3.9.9Zm.5-2.9-.3,1.1,1.4-.2Zm5.7,5,1,.6.1-1.2Zm-.4-10.2.3,1.2.8-.7Zm-7.2,1.9-.9.4.9.9Zm3.5-21.9,1.3.2-.6-1.4Zm3.1-6.8.4-1-1.2.1Zm-9.5,1.1-.1,1h-.2l.2,1,.7-.8-.5-.1.8-.4Zm4.2,17.4-.6,1,1,.2Zm-4.9-3.1.2.2.1-.3h.1l-.1-.1.4-.8-1.2.3.2.2-.2.8Zm2.8,3.6.1.2h.1l.3.2v-.4l.5-.4-.4-.3v-.1l.6-1.1h-1.4l.8,1.1h-.2l-.5-.2.1.4-.4.1Zm6.7-31.6-.6-1,1.7.2L273,294l-.8,1.3-.3-.4-1.1,1.7.8.1.6,2-.8.8,2.1.8-.6-2.1.8-.7,1.6.8-.2-2.6-2.1,1Zm-1.1,0,1,.1-.3.2.4.2-1.1-.5Zm3.5,5.6-.1-2.5-2.4,1.5Zm.2,6.4v-2.5l-2,1.3Z" fill="#111723"/>
      <path id="Path_14401" data-name="Path 14401" d="M273.5,311.3l1.3.6-1.3,1.3,2,.9.1-2.9-.1.1.1-2.6Zm-5.3,9.3.3.3v-.3h.2l-.1-.4.2-.9-.6.2-.3-.8-.8,1.8Zm4.5,6.6L272,329h1.7Zm-2.2-.6,1.6-.1-.9-1.7Zm5.7,4.9-.1-3.2-2.3,2,.7.4-1.3.7,1.4.6-.5.3,1.6.7-.1-1.6-.5.3-.1-.8Zm-1.3,7-.9.1.3.3-.3,1.8,1.8-.5-.6-.6.3-.8.9.5v-3.2l-2.3,1.9Zm-.6,3.2.7.3.4,1,.4-.5.8.4-2.3,2,.3.1-.6.1.9.9.2-.7,1.5.9v-6.5Zm.1,6.5,1.5.8-.9.5,2,.8-.1-1.8-.2.1v-2.3Z" fill="#111723"/>
      <path id="Path_14402" data-name="Path 14402" d="M274.3,361.9l-.9-.2.3,1.2,1.1-.9h-.3l2.2-1-2.3-2.1Zm-.4,7.2-1.2,2.9,2.7-.1Zm-.4-69.8,1.3.7-.1-1.8Zm-.4,39.6-.5.1.7,1,.4-.8.2-.1-.1-.1.2-.3-.5.1-.4-.4Zm-6.7-4.5-.8.7,1,.2Zm4.9-14.5,1.4.3-.7-1.6-.6.7-.5.1.2.3-.1.1h.2l.1.2Zm-4.8-9-.2-.6-.4.4Zm2.7.3-.2-.1-.2-.3h.2l-.2-.9-.2.2-.2-.3-1.3,2.8,2.6.1-.2-.3.8-.9-1.3-.4.2.1Zm.1.3h0l.3.6Zm-2.6-6.5.4-.1-.9-1.1-.6,1.5h.1l1.2-.1Zm-4.7,8.9.9.9.1-1.3-.2.1-.5-1.3-1.1,1.5h1Zm7.1,7.3v1l.8-.4Zm-7.3-3.6.9.2-.1-.9Zm6.2-17.9-2.6.7,2.1,2.5Zm3.8-9.9-1,.3.7.6Zm-7.4,3.8-.7-.4v1.1Zm3.4-9.3-.6.7h.8Zm2.5,29.3,1-.3-.8-.9Zm2.2-24.7.4,2.3,1.4-1.7Zm2.4,4.3-1.8.6,1.5,1.7Zm-2.7-3-1.1,1.7,1.3.1,2.7,1.2-.1-2.9-2,1.3Zm-3.4-.9-.6-1-.4,1.3h.5l.1.2h.1l.1.4.3-.3h.1l-.2.1.6.6.2-.6,1,.1-1.1-1.9Zm0,3.3,2.2.2-1.2-1.9-.7,1.1-.2-.4-.2.1-.3-1.7-1.6,1.2,1.5.8h-.5l.3,1.1.7-.7h.1Zm-2.2,3.7,1.4-1.6-1.8-.7Zm6.2-16.4,1.7,1.1-.2-2.1Zm1.2-7.8-2.1,1.4.4.2h-.7l.6,1.4.6-1.1,1.3.9-1.5.9,1.2.8-.9,1.2,1.5.9-.4-2,.4.3-.3-2,.2.1Zm-.6-.9-1-1.7-.9,1.4,1.8.2v1.2l.9-.5-.9-.6Zm-1.5,39.9.3,1.8,1.1-1.3Zm-1.8-11.7-.7,1.9.7-.1-.4.9v.1h.1l.9,2-.8-.2.3,1.8,1.1-1.4-.6-.2.9-2-1.5-.1.6-.2-.6-.7,1.5-.2Z" fill="#111723"/>
      <path id="Path_14403" data-name="Path 14403" d="M270,296.9h.4l-.6-1.1-.4,1.2h.1l-.8.3.6.4-.2.5h-.3l.2.3v.1l.7,1.1.4-1.2,1.1-.1Zm3.5,25.8-.9,1.1,1.6.5Zm-.4,4,.2-1,.2.6.4-.5.3.6.3-.6h-.6l.5-.5-.9-.2-.4-.2v.2l-1,.2Zm-.5-14.1-1.2,1.6,2.1.5Zm2.3,11-1.1,1.2,1.8.5-1.8,1.6.9.5-1.3.2,1.3,1.2.3-1.3,1.2.6-.2-3.2-.2.2-.4-1.1.6.5v-2.3l-1.7.9Zm1.9,26.8-.7.4-1.9-1.6v2.1l-1.2-2.2-1.2,2.9,2.4-.1v.5l1.4-.7,1.3.8-1.6.9.8.4-1.2.7,1.2.7-1.3,1.1,2.5,1.2-.2-3.2-.4.4-.1-.7.6.2-.1-1.8H277ZM273,374.3l.2,1.2,1.2-.9Zm1.6,3.2-1.1-.2-.3-.3.5-.3-1.8-1.1.2,2.3.6-.5v.1l.6-.2.3,1.2Zm-6.4-2-.8.9,1.4.3Zm4.5,6.5-1.1.2.6.9Zm2.1-9.5-.1,1.2,1-.4Zm2.8,17.1-1.8,1.7,1.5.7-1.3,1,1.6.9v-1.7l.1.1Zm-1.4,10.2-.1.6-.2,1.1,1.5-.3-.2-.3.6.3-2.1,2,2.4,1.2-.1-3.1-.1-2.6-1.4,1.4Zm-5.4-3.9-.2,1.7,1.4-.4Zm1.5,5.6-1,.3.9.9Zm2.9,2.2.1-1.3-1,.4Z" fill="#111723"/>
      <path id="Path_14404" data-name="Path 14404" d="M273,406.1l.9-1.9-2,.5Zm1.1-.5,1.1,1.5.9-2Zm3.5-11.4-3,.2,1.3,2.4Zm-9.9-2.8,1.4.2-.6-1.2Zm5.5,5.3-1.1.3.6.9Zm4.8,7.9-1.6,1.4-.6-.2.1.9.5-.3,1.7.8Zm-1.7-34.5.7-.1-.3-.3v-1.3l.4.3V366l-.9.6-.8-.8.2-.1,1,.4v-.8l.1-.1-.1-.1v-.8l-.5.3-.2-.1.3-.7h-1l-.8-.7v.8h-.2l.2.2-.1,2.1-.1.1h.1l-.1,1.8,1.5-.7.8.8-.6.4-.2-.2-.1.4-.7.3.6.3-.2.6-.7.4,1.5,1-1.2,1.1,2.2,1.1-1,.7-.2-.3-.2.6-.1.1.1.1-.1.2-.1-.2v1l-.1.2h.1l-.1,2,1.4-.6-1.1.8.4.3.1.6h-2.4l1.1,2.6,1.7-2.4h.7l-.4-.3.4.2.1-2.1h.1l-.2-.2v-1l-.6.3-.4-.4.8-.2.2.2v-5.4l-.9.8Zm-3.5-66.2-.7,1.9,1.9-.3,1.3.7-.1-2.5-.4.3-.7-1.9-.2.5-1.4-1.4-.7,1.9,2-.3-.6,1.5-.4-.4Zm1.3.7-.4.3-.3-.3h.7Zm-3.4,1.6-.6.3.9.5.5,1-1.4.9,1.5.6-.2.3-.7.1.8,1.2-.6.1.3.4.3-.5.1.2.4-1.1,1.3.3-.9-2-.8,1-.1-1.5.4-.7.8-.2-.5-.6.3-.5-1.9-.1Zm-1.9,2,.5-.5-.5-.3v.5h-1.2l.7,1.4Zm-2.1-5.6-.7-.7-.3,1Zm3.1,4.5-.3,1,1-.3Zm-.7-14.3.5,2.2,1.2-1.4-.1,1,.8-.4-.7-.7.2-.2Zm.8-9.7-1.2,1.7,2.2.3Zm-.6-15.3.3.9.6-1.1h-.6l.4-.7-1.2.1Zm-.9,36.6,1-.2-.8-1Z" fill="#111723"/>
      <path id="Path_14405" data-name="Path 14405" d="M262.2,301.7l.1.7-.2-.4-.5.6h.7l.1.1.6-.7Zm1.6-4.6-1,.5.8.8Zm-.5,10.9v2l1.7-.8Zm9.9-23-.7,1.1-.2-.1v-.1h-.2l-1.4-.5.3,2.3.9-1,.1.7.7-.9,1.2.1-.5.4-1.2,1,2.8,1v-3.1l-.7.5-1.1-1.4Zm-.8,1.4h0l.1-.2ZM261,303.7l1.4.9.2-1.5Zm10.8-40.2,1.8,1.3-.2-2.3Zm-2.7,7.4h-.6l.7,1.4,1-1.3-.6-.1-.2-1.9-1.7,1Zm-3.4,35.3-1.3.3,1,1.2Zm-3.8.8-1.2.4.8.8Zm-.1,3-.3.8.7-.1Zm5.3-5,1,.2-.2-.9Zm-4.4,6-.8-.1.4,1Zm-.2-4.8v-1.3l-.9.8Zm4.9,17.3-1.7-1.2.1,2.1Zm-2-7.4-1.6.6H263l.5,1,.4-.9,1.2.8Zm-3.8,4.7-.3,1.2,1-.5ZM260,331.3l1,.6-.2-1.2Zm9.6-15.1.1,1.3.9-.6Zm-2.9-3.1-1.1.4.7.8Zm.9,4.4.9-1.8.5-.4-.7-.4v.6l-1.6-.2Zm-3.7,5.2.3-1.2-1.1.4Zm1.7,2.2-.3-.4.2-.5-.9-.1.4.9-.1.3Zm5.6-1.2.1,1.2,1-.5Zm-6.8-5,.9.6v-.5l.2.1-.2-.4V318Zm3.2-37.3-.1.2-.6-.4v.8l.6-.2-.1,1.6,1.7-.6Zm4.2-1.1-.9,1.6H273Zm-.3-3.2.3-1.5-1.6.4Zm3.4,8-.2-2.1-1.9,1.3Zm-9.5,51.5-1.1.4.7.9Zm3.8,1.4-1.4-.1.9,1.2Zm-5.8-5.7-.3,1.2,1-.4Zm-1.6,10.5,1,.6-.2-1.2Zm9.1-13.2-.5-.3-.5-.7-.6,1,.7-.1.1.8Zm-2.9-6,1,.1-.3-.9Zm-3.8,6.4h-.8l-.8.7,1,.2-.1-.7.4.7Zm.9-9-.8.8,1.1.1Zm-4.6,7.2-.8.1.5.9Zm-1.3,9.4.8.3v-1Zm9.4-78-1,.7.9.6Zm-1.9,36.6.8.8.3-1.3Zm4.1-35.1.4.1H271l.8,1.1.2-.7,1.4.7-.2-2.6Zm2.2,4.4-.2-.8-.8.7.8.2-1.7,1.2,2.7,1.1-1.5.9,1.8,1.3-.2-2.3-.1.1-.1-2.9Zm-2.4-11.6,1.4-1.7-1.9-.6.5,2.3-.6-1-1.1,1.7,1.5.1-.1.1,2.5,1-1.8.7,1.1,1.1-.4.5-.3-.5.1-.5-.3.1-.4-.5-.6,1.1h-.3l-.1-.2-.1.1h-.5l.2.5-.6,1.1,2.2.2-.6-1v-.1l1,.1-.1.2,1.9.2-.6-1.1.2-2,.2.1-.2-2.9-1.9,1.4Zm-.1-11.1,1.8,1.1-.2-2Zm1.3-4.1-.2-2.1-1.5,1Zm-2-6.4-.9,1.5,1.9.2Zm.5,8.4,1.9.3-.9-1.7Zm-1.6-19.2,1.9.3-.9-1.7Z" fill="#111723"/>
      <path id="Path_14406" data-name="Path 14406" d="M269,236.5l.6,1.5.7-1.4Zm-1.7,19.2.1-.2,1.4.1-.7-1.1.2-.9-1.2.2.3.3-.7,1.1-.1-.1v.1h-.3l.2.2-.7,1.7,1.5-.2.3,1,1.1-1.6-.1,1,.7-.3-.1.3.8-.3-.7-.5v.3l-.6-.5.2-.3Zm3.4-8-.6,1.1-1.7-.6.2.9h-.3l.3.4.2,1,1.1-1.3,1.6.1-1.7,1.5,2.8.9-.2-3.2-.6.6Zm.7-14.6-.1-2.2-1.7.9Zm-.4-5.4-.2-2.3-1.6,1Zm-1.4,15.2-.8,1.6h2Zm-.7-2.9.3-1.6-1.6.5Zm1.4,7,2.1.7-.3-2Zm-2.5-5.5,2.1.1-1.2-1.6Zm-.9.1.3-1.3-1.1.5Z" fill="#111723"/>
    </g>
    <g id="Group_1063" data-name="Group 1063">
      <path id="Path_14407" data-name="Path 14407" d="M259.4,226.8V206.2l6.9.1v.5c0,.5-.1,11.3-.3,13.8-.3,2.8-5,5.4-5.5,5.7Zm1.4-19.4v17.1c1.7-1.1,3.7-2.8,3.8-4,.2-2.1.3-10.5.3-12.9l-4.1-.2Z" fill="#43566d"/>
      <path id="Path_14408" data-name="Path 14408" d="M227.4,349.6l-.3-2.6,32.7-121.9,1.3.4ZM205.6,229.3h-.8l.1-1.4c.1,0,5.9.5,14.2-3.6a17.534,17.534,0,0,0,8.8-9.4,15.413,15.413,0,0,0,1.1-5.6h1.4a18.851,18.851,0,0,1-10.6,16.3A34.117,34.117,0,0,1,205.6,229.3Z" fill="#43566d"/>
    </g>
    <g id="Group_1064" data-name="Group 1064">
      <path id="Path_14409" data-name="Path 14409" d="M198.5,397.1l.7-1-1-.2Zm8.4-15.9,2,.7-.2-1.8Zm3.3,13.6-1.8-1,.5,2.2Zm-1.9-5.5.4,2.1-1.7.9,2,.8-.1-1.7,1.2-1.1Zm-2.8,6.5,2,.8-.1-1.8Zm2.7,3.5,1.8-1.1-1.6-.9Zm2.4-23.9,1.7-1.1-1.6-.9Zm3-10.8-.1,2.1,1.7-1.2Zm-8.7,16.9-.2,2,1.8-1.1Zm.4,4.8-.3,2,1.9-1.1Zm17.6-25.9.4-1.8-1.4.4Zm-7.7-4.1L215,358l1.4-1Zm-9,34.9-1.5.8,1.6.7Zm-2.8,6.3,1.9.8-.1-1.8Zm2.6.6,1.1.7-.2-1.4Zm-.4-3.2-.8-.7-.3,1.2Zm2.5-11.6.8-1.2-1.2-.1Zm5.9-11.8.5,1.3.8-1.1ZM208.4,386l.8-1.2-1.3-.2Zm2.3,6.5-1,.6.5.2-.4.1,1.7,2.5-2.6.5,1.7,2.5.9-3h.1l.8-3-1.7.3Zm-9.1-5.3-.2,1.2,1-.3Zm10.9-8.7-.5,1.1,1.4.1Zm1.5-2.6-.6,1.1,1.4.1Zm1.8,5.9-2.4.4.8,1.2-2,.5,1,1.1h-.1l1.3,1.4-1.4.4-1.3-1.1-.1.5-2.2-.8.3,3.1,1.8-1.7-.6,1.9.6-.2,1.3,1.3-1.6.4v-.4l-1.1.6,1.1.4,1.4,2,.9-3.1-.6.1.6-1.5-1.9.1,1.7-.7.6.7.8-2.1-.2.1.6-1.5-1.4.1.6-1.4.8,1.2.9-2.8.6-2-1.9.3Zm1.4-3,.5-2.1-1.8.4Zm-5.8,2.6-.8,2,.2-.1-.1.8,1-.3-.6-.6,1.5-.3Zm.2-3.3,2-.5-1.3-1.5Zm-5.6,17,2-.5-1.2-1.5Zm1-30.5-1.1.4,1.1.7Zm7.1,3.7-.5.9,1.2.1Zm-12.2,25.8.8-.2-.6-.7Zm-2-4.2.5-.5h-.7Z" fill="#111723"/>
      <path id="Path_14410" data-name="Path 14410" d="M206.3,390.3l-.6.4.7.4Zm-12.4-19.1-.7.1.5.6Zm1.5,7.1-.6.5.8.1Zm13.3-2-1.5-.1.5,1.1Zm5.4-3.6-.2-1.2-.9.6Zm-.5,8.3-.2,1.1,1-.4Zm5.1-29.4-1.1.4.7.7Zm4.8-1,1,.1-.5-.8Zm-1.7,10-.4.1-.4-2.9-.5.5-.3-1.8-1.2,1h-.2l-.1-.6-.9.6,1,.7v-.3l.4.4.1-.5,1.1.7-1.4,1.6.1.1-.8.8,2.4.8-.4.9,1.4-.8-.6-.2-.3-1,.2.1.8,1.1.3-1.3H222l.4-.7-.9-.1ZM209.7,368l.5-.4v.2l.8-.8-1.1-.1.1.3-.7-.1Zm1.4,11.1-2.1-.3.7,1.6Zm-.9-15.5H209l.4.9Zm6.2-11.6h-.1l-.2.1-1.1.8,1.5,1.1-.4.1.6.9.5-1.1-.7.1Zm9.2-4.9,1,1.6-1.5.1.9,1.8.8-1.9h-.1l.7-1.9Zm-4.8,3.7-.2-2.1-.1.1.1-.1h-1l.2.5-.6.5Zm7.8-14.6v-.1l-.5.5.2.2-.1.4h1l.7.3-.5-2Z" fill="#111723"/>
      <path id="Path_14411" data-name="Path 14411" d="M230.8,331.2l1.7-.3-1.3-1.1Zm.7,3.6.7-1.7-2,.1ZM197,387.5v1.2l1.3-.6Zm7.9-2.1-1.1.3.8.9Zm-4.3,9.7h1.2l-.5-.9ZM228.1,344l.4-.8-.9.1Zm-13.8,36.2,2.9-1.3-2-1.8ZM228.8,342l.9-2.2-2.1.2Zm-.9-.6-1.9-1v2.4Zm-11.6,24,1.4.1-.8-1.2Zm1.1-2.8-.5-.4v.1l-.5-.5-.8,2,1.2-.3-.3.5h1l-.2-.6.3-.1-.4-.5.4-.1,1.2.1-.8-1.2Zm3.1,0,.8,1.2-1.2-1.1-.5,2h-.1v.2l-.2.9.1-.1v.2h-.1l.1.2v.6l.3-.2.7.9-2.4.4.1.2-2.1-.8.2,3.1,2.1-2,.5.9-1.7.4.5.6v.6l-.6.1.6.5v.4l.2-.1.6.6-.9.4-1.3-1-.3,1.6h-.4l.3.3-.2,1-.9.5,1.1.4-.2.6.8-.4.3.1-.1-.2.4-.2.5.6.2-.9.7-.3-.5-.4.1-.1h-.2l-.5-.4.5-.2.7.8.7-2.6-.7.3.4-1.3.4-.2-.6-.4.3-.8.6,1,1-3.1.7-1.9-.2.1-.7-.5.4-.2.4.5.4-1h.1l.1-.1-.1-.1.6-1.9Zm-8,.1,1-1-1.4-.2Zm5.4,5,1.1-.4-.8-.7Zm7.2-15-.7.2-.1-.1v.1l-1.1.1.7-.4-1.3-.8.2,1.2-.2.1.1.3-.8-.1.3-1-1.1.5.5.4h-.5l.5,1.7,1.3-1.3,1.2,2.1-.6.1-1.1-.7-.1.8-.1.1.1.1-.1.7.3-.2.4.7-1.8-.2.6,1.7.2-.2v.3l1.3-1.1-.4-.2.2-.2.4.8.9-2.5h-.1l.5-1.3h.2l-.1-.4.4-1.1v.1l.8-2.4-2,.2Zm-28.4,33.4-.4.9.9-.2Zm-3.1,5.1.4-.6-.8-.2Zm-1.3-6.8v-.8l-.7.5Zm3.7,9.7.3-1-.8.1Zm31.8-94-.8.8.9.4Zm4-3.7-1.7-.3.8,1.5Zm2,24.4.5-1.7-2,.3Zm1-3.9.5-1.7-2,.4Zm-3.5,11.9-2.1-.6.9,1.9Zm-4.7-9.1-.4.4.6.2.1.2,1.2-1.3-2.1-.6Zm7.6-9.8-2.1-.4,1,1.8Zm-.6-2.9,1.1-1.4-2-.4Zm6.8-12,.9-1.2-1.7-.4ZM225,327.3l1.8.2-.8-2Zm3.4,7.3,1.8.3-.8-2Zm-4.6.5-.4.7-.7.7h.3l-.1.3,1.7.3Zm-10.3-12-.9,1.7,1.8.2Z" fill="#111723"/>
      <path id="Path_14412" data-name="Path 14412" d="M224.6,317.2l1.8.1-1-1.9Zm2.8-3.8,1.9.2-1-2Zm1.4,26.4-.8-2-1,1.8Zm-3.9,8.7L224,350l1.5.1Zm-3.8-5.5-.9,1.5,1.5.1Zm18.2-41.4-.7-1.6-.3.6-1-.7v.5l.1,1.4v.7l.9-.4-.6-.5.2-.1,1.4.1Zm-1.2-.7Zm-.3-1.4-.7-1.6-.7,1.5Zm7.4-20.6-.5-1.7-1,1.4Zm-.7-3.6-1.6.4.9,1.2Zm-2.6,9.2,1.4.1-.7-1.6Zm-3.3-3.3-1,.3.8.6Zm2.5,1.9.2-.9-1,.3Zm-1.1-2-.2,1,.9-.5Zm4-.9-.1.3-.7.2.6.5.3.2V281l.5-.3Zm-7.6,23.4.2.4-.8,1.6,1.9.1-.4-.7.8-1Zm-3.6.7,1.1-1.4-2.1-.5Zm8.4-18.5.7,1.3-.3.8,1.2-.1-.5-.9.6-.8Zm-6.9,17.7.4,1.1,1-1.1Zm1.6-.9,1-.1-.6-1Zm.3-7.1-1.1.5.9.6Zm-17.6-3.8-.6.6.7.3Zm3-3.1-.7-.1.3.7Zm-6.3-.6-.3.6.7-.1Zm21-3.7-.8-.5v1.1Zm-11.5,45.6-.6,1.2,1.3.1Zm2.8-6.5-1.2.2.9.8Zm-9.8,2.7v1.2l.9-.7Zm10.4-7.1-.1-1.4-1,.8Zm-.4,11.4-1.1.9,1.1.6Zm2.1-13.5-.1-1.4-1.1.8Zm6-6.3-1.2-.2.4.7H235l.7.9.4-1.1-.5.1Zm-1.1,2.6-1.2-.3.6,1.1Zm-9.1-3.6-.5,1.1,1.1-.3Zm4.9,8.6-.6,1,1.2-.2Zm-14.7,2.4,1.3-.5-1.3-.7Zm4.7-7.3-1.2-.2.6,1.1Zm8.7,10.8,1.3-.4-1-.7.1-.7-1.4.5,1,.6Zm1.1,2.6-1.2-.8-.1,1.2Zm-.6-1.1,1.3,1.5.7-2.1Zm-11.3,6.3-1.2-.1.7.9Zm2,15.1.3-1.2-1,.2.3.4-2-.2.6,1.7,1.4-1.5Zm4.8-13.9-.1,1.1,1.1-.5Zm4.6-2.7-1,.2.8,1Zm-8-11.8.8-.3-.8-.5Zm3-4.7-.8-.1.5.6Zm3.6-8.6.8-.3-.6-.6Zm-3.6,1.4-.5.3.6.4Zm5.4,3.4.6-.6-.7-.1Zm-3-16.6-.3.9.9-.3Zm-3.7,3-.1-.5.6-.1-.5-.7-.3.7-.4.2Zm5.3,2.6.5-.4-.7-.2Zm8.5-4.5-.2.8.8-.3Zm-3.7,2.9-.1-.7-.5.3Zm5.3,2.7.5-.5-.7-.2Zm.9-11.8h.2l.7.6.3-1.2-.8.2-.2-.3-.1.3-.3.1.2.2Zm-2.9,1.3-.5.3.5.4Zm4.3,2.8.5-.5-.6-.1Zm-26,6.4-.8-.2.4.9Zm0,8.9.8-.1-.5-.5Zm6.7-3.6.1-.8-.6.4Zm-11.4,14.6-.7.2.5.5Zm4.6-4.4.6-.3-.7-.4Zm6.1,22.2-.3.2-.3-1.3-1.7,1.8,2.2.7-.1-.2.4.2Zm1.7,8.5.9-.8-1.2-.2Z" fill="#111723"/>
      <path id="Path_14413" data-name="Path 14413" d="M223.5,322.4l-.1-.3-.7.9,1,.3-.2-.6,1.1.6-.2-1.4Zm3.4,7.1-1.2-.2.4,1Zm4.7-8.1-.4,1.1h1.1Zm-9,30.3.4-.8.5.4-.1-2-1.5.9.7.4h-.5Zm-.2,3.1,1-.2-.8-.7Zm2.2-14.9-.3.9h.8Zm-4.3-12-1.4,1,1.9.9Zm-.5,6.4-.3.2h-.9l.4,1.1.4-.5.6.4Zm2-2.1-.2.2-.2-.7-.8.6.6.3-.3.2,1.1.6Zm-.6,19.6-1.9-.3.5,1.8Zm2.2-6,.4,1.1-.7,1.3,2-.4-.7-.9.9-.9Zm-5.9-.3.7-.1-.4-.7Zm-1-19.3-1.1.7,1.4.8Zm8.9,0-.8-1.1-.3,1.3Zm8.5-23.5,1.1-.6-1.3-.8Zm-1.4-8.5-.8.8,1.2.2Zm-5.5,7.6h-1l.6,1Zm9.5,6.3,1.1-.5-1.3-.8Zm-1.3-8.4-.9.7,1.2.3Zm-5.6,7.5h-1l.6,1.1Zm1.4-2.6-.7,1,1.4.2Zm5.2-11.4-.8.8,1.1.3Zm-5.6,7.9h-1l.6,1.1Zm3.4-1-.1-1.4-1,.9Zm4.2-5.8.6-.8-1.2-.2Zm-9.5-1.6-.4,1.2,1.1-.3Zm6.3,1.1-.1-1.2-.8.8Zm3-5.7.3.6-.4.4,1.1.2-.2-.8.2-.2Zm-7.4-.4-.3.9.9-.2Zm8.7,5.8-.7,1,1,.2Zm2.8-4.2.4-.8h-1Zm-7.9.3-.3.9.9-.4Zm5.7,7.3,1-.6-1.2-.9.1,1.1-1.9.3,1.2,1-.6.1,1.3,1.2.4-1.5-.6.1.3-.9Zm-7.2.4.4-1.1h-1Zm1.4,10.1.1,1.4,1.1-.5Zm-8.2,21.4.3-1.2-1.4.3Zm6.6-27.8,1.1.3-.2-1Zm-5.6,7.5.5-1-1-.1Zm-8.1,48.2-.6-1.6-.9,1.5Zm-7.5,4.2.8-.5-.7-.4Zm-3.4-2.8-.1,1,1.1-.5Zm5.5,2.8.8.2-.2-1Zm-2-7.4.4-.8-1-.1Zm-1.3-2.5,1.1-.5-1-.5Zm3.6-5.7.4-.7-.9-.1Zm14.2-10.2-.4-2.1-1.9,2.4,1.9.6.1.2.2-.1.3.1-.1-.3.6-.4Zm-8.3,28.7-1.3.4,1.2.8Zm-2.2-20.2.7,1.1.4-1.1Zm22.7-54.4-2,2.4,2.6.8ZM232.2,314l-2,2.4.4.1v1.1l1.1-.5-.5-.4,1.6.5Zm-4.8,29.3h-.1l.9-.4-1.2-.7-.1,1-2.4-.7.4,2.7.5-.4v1.6l2.5-1.9-1.2-.7Z" fill="#111723"/>
    </g>
    <path id="Path_14414" data-name="Path 14414" d="M243.1,244.2a183.205,183.205,0,0,1,28.9-.6l-3-37.3-74.5-.1-8.2,51.2C186.5,257.3,224.6,246,243.1,244.2Z" fill="url(#linear-gradient-9)"/>
    <g id="Group_1065" data-name="Group 1065">
      <path id="Path_14415" data-name="Path 14415" d="M242.7,217.5l-1.6.9,1.4.8Zm13.2-.4.5-1.4-1.5.6Zm1.5-5.1h1.4l-.8-1.4Zm4.4-2.9,2.9-1.3-1.1-1.5Zm-4.8,5.2.6-1.2-1.6.1Zm-18.3,4.8,1.4,1.4.6-1.6Zm-17.5,4.4.7-1.6-2,.1Zm32.1-10.3v-.4l-.7.4.2-.9.1.6.7-.7-.8-.3.1-.9-.4.1-.3-.2-.1.4-.6.1.3-1.2-1.4.6.9.7-1.3.4,2.6,1.8v-.4l.2.1.9,1,.6-1.2Zm-3.4.8-1.6.1,1.1,1.2Zm-7.7,16.4.9.2-.2-1Zm-.2-5.9.1.8.8-.5Zm6.7,4.8.2-.9-.8.2Zm-18.4.7,1,.2-.2-1Zm.7-5.6-.8-.3v.7Zm5.8,4.5.2-.9-.8.2Zm-3.8-1.3.9.2-.2-1Zm-.2-6v.8l.8-.4Zm6.6,4.8.2-.8-.8.2Zm2.7-4.1,1.8-.8-1-.5.2-.1-1-.5.1.3H242Zm3.7,2.2.2-.8-.7.2Zm-7.1-3.8h-1.1l.7.8Zm-1.5-2.5.6.4.2-.9Zm3.1,3.9,1.3.1-.5-1.3Zm9.8-.2.7-.6-1-.4Zm-4.4-3.7-.8.4.7.4Zm6.5-2.6-.3.8.9-.1Zm-.8.8.4-1.5-1.4.6Zm2.3-3.5,1.5-.5-1.4-.9Zm.4,1.9.4,1,.6-.7Zm-.9,3.6.1-.8-.8.5Zm-8.4-3.6-.2.5-.1-.1-.3.7.9-.1-.2-.2h.3Zm4.5,2.1-.1-.9-.7.6Z" fill="#111723"/>
      <path id="Path_14416" data-name="Path 14416" d="M242,215.8l.3-1.5.2.2.2-1.8-1.6.9,1,.6-1.5.7Zm2.5-4.6-2.2,1.1,1.8,1.1Zm-14.9,7.9-.4,1.8,2.1-.5Zm7.8,3.2.8-.6-1.1-.4Zm-4.4-3.7-.8.4.7.4Zm6.3-1.9.9-.1-.7-.6Zm-23.4-4.5.9-.1-.7-.6Zm30.3,9.9.6-.5-.8-.4Zm2.2,1.8,1.1-.8-1.4-.7Zm-4.5-1.2.6-.4-.8-.4Zm-5.5.3-.2.7.7-.1Zm-34.9,7.9,1,.2-.2-1Zm-.1-5.1.8-.4-.8-.4Zm6.6,4,.2-.9-.8.3Zm-6.7-8.6.1,1.6,1.8-.8Zm3.9,3.9.1-.9-.7.2Zm-7.2-3.9h-1l.6.8Zm2,.8.2,1,.8-.6Zm-4.3-1.9.1-.9-.8.5Zm4,.3-.8,1.2,1.3.1Zm5.6,1.4.2.8.6-.5Zm3.5,1.8-1.4-.7.3,1.5Zm-5.6-.3.6-.5-.8-.3Zm-5.7.9.7-.1-.5-.5Zm21.3,5.9.9.2-.2-1Zm-.2-5.9v.7l.8-.4Zm6.8,3.9-.8.2.6.6Zm-15.9-.8.9.2-.2-1.1Zm6.6-2-.7.1.6.7Zm4.3-4.2-1.8-.8V222Zm-14.7,0,1.8-.8-1.9-.8Zm16.9,2.2-.8.3.6.6Zm-7.8-2.1.5-.8-1.1-.1Zm3.9,13.5.7-.6-1-.4Zm-4.6-2.8.2-.9-.8.4Zm6.4-2.7h.9l-.6-.7Zm2.2-7.4.6-.5-.7-.4Zm1.9.3.3,1.5,1.1-.9Zm-4.4-.5.3.8.5-.5Zm-5.5,1.7.8-.1-.5-.5Zm-10.1-2.8.5-1.4-1.6.5Zm2.8.5,1.5,1.5.5-1.1v.7l.8-.4-.8-.4.4-1Zm25.8-1.3,1.4.1-.5-1.5Zm-7.3,8.5.2-1.2-1.2.3Zm-12.6-6.9h-1.7l1.1,1.2Zm14.9-5.1,1.4,1.8.8-1.8Zm-7.5,10.9,1.3-.6-1.4-.5Zm-14.5,2.2,1-.9-1.3-.3Z" fill="#111723"/>
      <path id="Path_14417" data-name="Path 14417" d="M221,219.4l-.7-.7.4-.1-2-1.3-.3,2,.5-.1-.1.6Zm3.8,6.3.9-.8-1.3-.5Zm-8.8-2-1.8,1,1.6.9Zm9.4-5.1-.1,1.9,1.7-.7Zm-1.5,1-1.8.7,1.8,1Zm7.5-1.9-1.9.8,1.8.9Zm-32.7,2.1,1.7-1.1-1.5-.8Zm-2-1.6,1.8-1.1-1.6-.8Zm36.5-1.2-.4-.1v.7l.4-.1-.1.6,1.8-1.1-1.6-.8Zm12.5-2-.2,1.9.6-.4.1.8.6-.4-.7-.4,1.1-.7Zm-2.3,3.5-.1,1.3,1.1-.8ZM251,213v.4h-.1v.9l.1-.2.2.7,1.1-.8-.6-.3.3-.2Zm-33.7,9.5,1.2-.7-1.1-.6Zm-15.7-4.6h.2l.3.2v-.2h.1v.2l-1.1.7,1.5.9.2-1.7h.1l-.1-.1v-.2l.2-.1-.3-.1.7-.4v1l1.1-.5h.3l-.9.5.8.5-1.6.6,1.8,1,.1-1.4,1.1.5.3-2.6-.9.5-.3-.8-.5.6-.3-.3-.1.2-.3-.2.3-.2-2.4-.7.1.5-1.5.9,1.1.6Zm-2.2-.6v-.2l.1.2.2-.4.4.7,1.7-2.2-2.3.1v-.1l-.1.1h-.5l.1.2-1.3.8,1.7.8Zm.1-.9.1.1h-.1Zm-3.8-1.6,1.5.9.1-.6.1.1-.1.4,2.8-.4-.7-.6.4-.2v.4l1.1-.7-.5-.1-1.5-.8-.1.8-.5-.4-.7-.7.9-.5-1.6-.9-.1.6-1.4-1.5.1,3.4,2.4-.3-.3.9-.3.2.1-1Zm19.6,3.1-.8,1.8,1.8-.2Zm-2.4-.9,1.1.6v.1h.1l1,.5.3-2.7Zm45.9-7.9-2.1.6,1.9,1.3.1-1.1,1,.9.5-1.5-1.5.6Zm2.6.9.2-1.9-2.1.6Zm-26.7,6.8,1.9,1,.2-2.3Zm-18.6,10.6,1.2-.1-.9-.8Zm14.4.1,1.1-.9-1.4-.6Zm-6.2-5.5-1.1.6.9.7Zm9-2.4,1.3-.1-.9-.9Zm24.3-13.4h-1.8l1,2.1Zm-1.3,4.8-.3-.2v.3l-.3.1.2-1.2-1,.3-.8-.3.2.4-.6.2,1.3.9h-.1l1,.8v.3l1.5-.7-1-.8V211Zm1.5-3.7.9.8.5-1.5-.7.3-.6-.6-.5,1Zm-.2,1-1.6.1.1.1-.8.5.7.4.1-.9.9,1.1Zm-18.6,6h-.3l.4.4.1.6.2-.2.7.6.6-1.5Zm15.3-5.9-1.6.1,1,1.1ZM233,222.8l.9.2-.2-1Zm6.4-1.1.2-.9-.8.2Zm3.5-5.4.2-.2-1-.4.1.2H242l.1.5-1.5-.8-.2,2,1.7-1.1v1.1l1.8-.9Zm-5.3-.4.7.9.4-.9Zm.2-2.1.2-.8-.8.4Zm12.3,3.3.7-.6-1-.4Zm-4.4-3.7-.8.4.7.5Zm-.9-3.4-.2.5-.1-.1-.3.7h.9l-.2-.3h.3Zm3.7,1.9.8.2-.1-.8Zm-7.9-1.7,1.4.8.1-.4.7.9.7-1.6-1.3.1.1-.7Zm-.9,1.2-2.2,1.2,1.8,1Zm-3.9-1.2-.4,2.3,2.7-.6Z" fill="#111723"/>
      <path id="Path_14418" data-name="Path 14418" d="M236.2,213.6l.6-.2-1.4-.9-1.6-1-.1,1.1-1.5.8,1.3.7-.1.3.4-.1.3.1v-.2l1.4-.4-.4,1.6,2.7-.6Zm12.1,5-.6.2,1,.8v-.7l.8-.6-1.4-.7Zm-4.4-.6.6-.5-.8-.4ZM205,212.6l-.6-.7-.3.8Zm3.8,2.8-2.4,1.5,1.1.6v.4l.3-.2.7.4Zm3.4,6.3-.7.8h.4l-.7.2,1.3,1,.3-1.3-.4.1Zm5.2-1,.6.6V221l1.2.6.1-1.7-1.8.7Zm-.1-5.1h-1.1l.6.8Zm7.3.6.1.8.6-.5Zm2.8,1.5v-.3l-.3.2-.5-.3.1.5-1,.7,1.5.8.1-.8.7-.5Zm-4.9-.1.5-.5-.8-.3Zm-5.5.4-.3.5h.8Zm-9.9-3.7-1.6.5,1.1,1Zm2.3,2,1.5,1.4.5-1.1v.7l.8-.4-.8-.4.4-1Zm19.1-2.3-1.6,2.3,2.5.3Zm-15.7,3.6-1.6.3.7.6-1.1.3.1-.4-1.6.3.1-.8-1,.4.9.8v-.3l1.3,1,.2-.9,1.5,1.4.8-2.2-.5.1Zm-10-4.6-1.7,1,1.5.9Zm24.4,1.5.2-1.9-1.7,1.1Zm-7.9.7-1.9.7,1.8,1Zm-14.4.2.1-1.4,1.1.6.2-2.3,1.5-.7-1.8-.8v1.3l-2.1,1.3.8.4-1.6.7Zm27.2.7,1.8-1.1-1.6-.8Zm19.9-7.4-1-.5-.1,1.2Zm-34.6,7.8-.1,1.2,1.2-.7Zm-21.7-6.4,1.5.9.2-1.6h.3l-.3-.3v0l-2.7-2.7.2,3.4,1.6-.2Zm67.6-3.9h-4l1.1,2.1Zm3.9,5.8h1.4l-.8-1.4Zm-.3,2.3.5-1.2-1.6.1Zm.6-8.1h-1.9l1,2.1Zm.1,1.1,1,.8.4-1.5-.6.3-.7-.6-.5,1Zm-.7,2.3.5-1.3-1.6.1Zm-40.2,7.3-1.4-.6.4,1.4Zm-.4-9.3,1.4.3-.3-1.5Zm21.8-1.4h-3.6l2,1.7Zm-7.3,2.5-.8.4.6.4Zm12.9-.9v.3l1.5-.5-.7-.4.4-.3-.2.4.9-.1-.5-.5.7-.5-2.7.1.2,1.8Zm-35.8-.4-.6,1.2h1.6Zm22.4.8,1.8,1.1.3-1.7h.5l-.4-.5h-.1V207l.7-.8H240l1.4,1.5Zm-.4,4,.3,1,.7-.6h-.1l.2-.2.1.1v-.2l1.1-.6-1.6-.8-.1.7h-.1l.1.1v.7Zm-4.1-2.7-.8.4.6.4Zm13.8,3.1-.8-.4.2.8Z" fill="#111723"/>
      <path id="Path_14419" data-name="Path 14419" d="M228.1,212.2l-.7-.3.1.8Zm-22.5-3.5-1.8,1,1.6.9Zm16.5,2.2-1.9.7,1.8,1Zm22.7-2.2h.1l-1,.6,1.4.9.1-1.1.7.5v.8l-.4-.2-.2,1.4-.6-.2.1.3-.2-.1.1,1.7,1.5-.7-.2,2,3.1-1-2.8-1.7-.1.4-.7-.3,1.2-.7.8.8.5-1.1h-1l-.9-.5.6-.4,1.1.8.2-1,.1.1.1-.5,1,1,.5-1.2-1.5.1.1-.3-.3.2.2-1.1,2.1,1.5.2-2.1,1.9,1.3.3-2.6-2.6.7.5-.8h-2.7l.8,1.4-.5.1v-.1l-3.3.9h.1l-1.1-.6-.1,1.3Z" fill="#111723"/>
      <path id="Path_14420" data-name="Path 14420" d="M244.9,207.4l-1.5-.8-.2,1.9.9-.6Zm-44.2,0,1.5.8,1,.9.4-.8,1.3.7v-.7l.1.4,1.4-.8.7.9-.4.3.8.5-1.6.6,1.8,1,.1-1.5,1,.6.3-2.7-.4.3,1.6-1.7h-5.1l.6.9-1.1-.4.1.6-.9.5.8-1.6h-4.6l1,.9Zm-2.7,1.2-.7,2.3,2.5-.3.1.1-.1.1h-.2v-.1l-.1.1H199l.1.2-1.3.8,1.6.8.1-1,.7,1.2.2-.3,1.6.8.1-.6v.3l.1-.1v.1l.1-.1,1.8-1.1-2.3-.8.1.5-1.5.8,1.4-1.8h-.1l.6-.4.5-.1-.2-.1.4-.2.2.9,1-.6-1.1-.3-1.6-.8v.1l-.7-.7.4-.3-1.6-.8-.2,1.8-.5.3-.9-.7Zm3.4,1.7h.1v.2h-.3l.4-.3Zm-1.2-1.6.5-.3-.6,2H200l.2-1.7Zm-.2,1.7Zm18.1-1.6-.8,1.8,1.8-.2Z" fill="#111723"/>
      <path id="Path_14421" data-name="Path 14421" d="M209.3,208l.8,2.7-.6.4.3-1-1.5.5.8.7-1.4.8,1,.5-2.1-.4,1,3.3,1.3-1,.6.4.5.5.1-.8.4.3v.4l1.1-.5.7.6.2-.6.2.2,1.6.9.2-1.8.2.2-.2.5,1.7-.2-.7-1.3v-.1h-.1l-.1-.2-.1.3-.5.1v-.2l1.3-.4-1.7-1,.2-.5-.7.2-.6-.4-.1.6-1,.3.8.8-.1.6-1.8.6-.1-.1.1-.3-.4.1h-.1l-1,.2.7-.6v.3l.6-.5-.8-.4v.2h-.2l.2-2.1.1.5,1.8-1.5,1.3,1,.2-.9,1.5,1.4.2-.6,1.9,1.1.3-2.7-1.2.7,1.6-3.1,1.5,1.8.7-.8-.6,1.4h-1.1l1.2,2.3h-.7l.6.8.4-.8h-.2l1.8-2.1.4.1-.4,1.5.8-.1-.2.2,1.2.3v.3H223l.1,1.6.4-.2.1.2-.9.1-.2-.2v.2h-.2l.1.2v.7l-1.7-1,.1-.1-1-.5-.1,1.3.7-.4-.2,1.3-1.3-1.2.1-.8-.7.3.1-.9-2.5,1.5,2.2,1.2.1-1.2.4.3-.4,1.5,1.8-.3v.6h.1v.4H220l.1,1.4h-.6l1.3,1.4.2,1.8,1.9-1,1.3-.5-1.6-1.3-.1,1.7-1.5-.6.6-1.5h-.9l1.3-.6-.7-.3.6-.3,1.5.8.1-1.7-1.7.6-1.2-.4h.1v.1l1.6-.5v.2l1.1-.5.2.2.1-.3.2-.1-.1-.1.1-.2.5.9.6-.9-.1,1.8,1.6-.7-1.5-1.2.7-1.2-1.9.1.8-.4-.7-.3.6-.3,1.5.8.1-1.7-1.7.6-1.2-.4,1.7-.5v.2l1.6-.7-1.6-1.3v1.1l-1.8-1.2.8-1.2-1.5.1.4-.7-2.2-.1,1.3,1.8.5-.9.6,1-.2,1.6-.1-.1-.1-.3-.1.1-.8-.7-.2-1.2-1,1h.5l-.8-1.7,1-1.2h-7.7l-3.2.1,1.6,2.2-2.6-1Zm3.5,6,.1-.2,1.6-.5-.5.3-1.2.7V214Zm-3.9.4.4-.3.1.1Zm.7-.2.2.1-.2.1v-.2Zm6-4.4.1.2-.2.2.1-.4Zm-3.3-1.2,1-1.9,1.8,2.6-1.6.5.1-.3-1.4.3,1.2-.9-1.1-.3Zm17.1-.4.3.4-.7.4-.2-.2-.2.4-.2.1.1.1-.1.3-.3-.2-.1,2,1.6-.7-1.1-.9h.5l.8.4.1-1.2.9,1.1-1.3,1.9,2,.2h-1.2l.7.8-.9.3H230l.2-.1-2.1-1.3-.2,2,1.5-.4v.1l.1.7-.1-.1-.4,1.8,2.1-.5-1.6-1.2.5-.3,1.1.6.1-1.4.5.6.8-1.7H232l-.2-.4,2.1-.5-1.7-1.3-.4,1.8-.4-1,.7-1.3,1.8,1,.1-1.4.5.6.8-1.7h-1.2l1-1.6,1.2,2.2-.2,1.6,2-.6-.3,1.7,2.7-.6-1.3-.9.1-.5.2-.1-.1-.1.3-2.7-1.1.3.2-.4h-3.6v-.1l-3.8.7.3-.6h-4l1.8,2c.1-.1-.1-.1-.1-.1Zm4.5.5.1.1-.2.1.1-.2Zm-1.1,0,.4.4-.8.3.4-.7Zm-1.3-1.5.5.6-.8.2Z" fill="#111723"/>
      <path id="Path_14422" data-name="Path 14422" d="M226.5,208.2l1.1,2.1,1.5-2.2Zm-27.2-1.9-4.4-.1,2.7,2.3Zm28.1-.1h-3.6l1.7,2.1ZM203.1,233l1.3.3L204,232Zm-.5-7.5.1,1,.9-.6Zm8.7,5.7.2-1.1-1,.4Zm5.9,5.2,1.3.2-.4-1.3Zm-.5-7.6v1l1-.5Zm8.6,5.7.2-1.1-.9.3Zm.8-2.1,1.5.2-.5-1.5Zm-.6-7.9,1.2-.6-1.3-.5Zm10.4,5.7.2-1.3-1.2.3Z" fill="#111723"/>
    </g>
  </g>
</svg>
