<svg xmlns="http://www.w3.org/2000/svg" xmlns:xlink="http://www.w3.org/1999/xlink" width="147.7" height="241.207" viewBox="0 0 147.7 241.207">
  <defs>
    <linearGradient id="linear-gradient" x1="0.489" y1="0.993" x2="0.499" y2="0.5" gradientUnits="objectBoundingBox">
      <stop offset="0" stop-color="#cc7a5e" stop-opacity="0"/>
      <stop offset="0.924" stop-color="#aa5f4b"/>
    </linearGradient>
    <linearGradient id="linear-gradient-2" x1="0.399" y1="0.89" x2="0.497" y2="0.518" xlink:href="#linear-gradient"/>
    <linearGradient id="linear-gradient-3" x1="0.423" y1="0.483" x2="0.961" y2="0.592" gradientUnits="objectBoundingBox">
      <stop offset="0" stop-color="#4089c2" stop-opacity="0"/>
      <stop offset="0.891" stop-color="#247cde"/>
    </linearGradient>
    <linearGradient id="linear-gradient-4" x1="0.495" y1="0.749" x2="0.606" y2="-0.131" xlink:href="#linear-gradient-3"/>
    <linearGradient id="linear-gradient-5" x1="0.53" y1="0.502" x2="1.656" y2="0.554" xlink:href="#linear-gradient-3"/>
    <linearGradient id="linear-gradient-6" x1="0.977" y1="0.534" x2="-0.325" y2="0.443" gradientUnits="objectBoundingBox">
      <stop offset="0.293" stop-color="#093f5c" stop-opacity="0"/>
      <stop offset="1" stop-color="#094193"/>
    </linearGradient>
  </defs>
  <g id="_34" data-name="34" transform="translate(-162.7 -206.1)">
    <path id="Path_14423" data-name="Path 14423" d="M242.4,429.6,240.8,392l28.3-.3,2.8,45.4Z" fill="#ea9d7d"/>
    <path id="Path_14424" data-name="Path 14424" d="M253.7,413.5c11.3.6,16.5-1,16.5-1l-.7-20.3-28.4-.6.3,19.1c-.1,0,4.1,2.3,12.3,2.8Z" fill="url(#linear-gradient)"/>
    <path id="Path_14425" data-name="Path 14425" d="M240.408,391.517l1-.04,1.537,39.17-1,.04Z" fill="#af614b"/>
    <path id="Path_14426" data-name="Path 14426" d="M271,420.1a105.4,105.4,0,0,1-12.8,1.4,67.336,67.336,0,0,1-16.6-.9l.3,11.2s1,1.6,14,1.6,15.9-3.9,15.9-3.9l-.8-9.4Z" fill="#fff"/>
    <path id="Path_14427" data-name="Path 14427" d="M271,420.1l-.4-4.2a64.122,64.122,0,0,1-13.7,1.7,87.758,87.758,0,0,1-15.5-.9l.1,4a67.336,67.336,0,0,0,16.6.9C264.8,421,268.8,420.4,271,420.1Z" fill="#10646c"/>
    <g id="Group_1066" data-name="Group 1066">
      <path id="Path_14428" data-name="Path 14428" d="M310.4,444.5a18.166,18.166,0,0,0-.3-3.2h-72c.2,1.7,0,3.2.1,4.2a1.759,1.759,0,0,0,1.8,1.6h67.7a2.547,2.547,0,0,0,2.7-2.6Z" fill="#fed6d6"/>
      <path id="Path_14429" data-name="Path 14429" d="M309.9,440.2c-1-3.3-8.8-8.7-14.2-10.8-.5-.2-1.1-.4-1.7-.7l-3.1,12.7h19.3l-.3-1.2Z" fill="#fed6d6"/>
    </g>
    <path id="Path_14430" data-name="Path 14430" d="M285.6,424.4l-3.7,7.1a1.343,1.343,0,0,1-1.5.7c-.2,0-.3-.1-.5-.2a1.4,1.4,0,0,1-.4-1.8l3.7-7.1-2.7-1.5-5,7.5a1.344,1.344,0,0,1-1.4.6.764.764,0,0,1-.5-.2,1.4,1.4,0,0,1-.3-1.9l4.9-7.3-2.1-1.2-1.3-6.7a1.3,1.3,0,0,0-1.4-1.1c-1,.1-2.3.8-2.9,3.5a16.941,16.941,0,0,0,0,7.9,31.52,31.52,0,0,1-14.7,6.6c-7.2.9-13-.9-16.2-2.9a1.317,1.317,0,0,0-2,1,32.852,32.852,0,0,0-.1,8.5c.2,1.9.6,3.9.8,5.6H291l3.1-12.7C291.6,427.7,288.6,426,285.6,424.4Z" fill="#ad203a"/>
    <path id="Path_14431" data-name="Path 14431" d="M273.6,429.4c.2.1.3.2.5.2a1.344,1.344,0,0,0,1.4-.6l5-7.5-2.3-1.4-4.9,7.3A1.489,1.489,0,0,0,273.6,429.4Zm6.5,2.7a.367.367,0,0,0,.3.1,1.342,1.342,0,0,0,1.5-.7l3.7-7.1-2.4-1.3-3.7,7.2A1.289,1.289,0,0,0,280.1,432.1Z" fill="#fff8f8"/>
    <g id="Group_1067" data-name="Group 1067">
      <path id="Path_14432" data-name="Path 14432" d="M238.2,442.1l-.1-1.4,71.9-.1.3,1.5Z" fill="#442624"/>
      <path id="Path_14433" data-name="Path 14433" d="M291.5,441.5l-1.3-.3,3.1-12.8,1.3.7Z" fill="#442624"/>
    </g>
    <g id="Group_1068" data-name="Group 1068">
      <path id="Path_14434" data-name="Path 14434" d="M281.9,433.6l1-.1-.7-.7Zm5.4-.4-1.2-.1.4,1.3Zm-12.5-20.4-1.3-.7-.1,1.8Zm-.7,5.7-.1,1.7,1.4-1.1Zm16.9,9.2.3-.2-1.2-.5v1.3l.7-.4-.1,1.4,1.4-1.1Zm-21.5-3.8-1.2.7,1.3,1Zm2.7-.9h-1.4l.6,1.6Zm9,1.5-1.4-.1.5,1.6Zm-.8,3.5,1-1.5-1.4-.1Zm10.8,6.6.7-1.2-1.2-.1Zm-5.2-10-1,1.2,1.5.4Zm-16.9,1.3-1.5-.8v1.5Z" fill="#dd5472"/>
      <path id="Path_14435" data-name="Path 14435" d="M266.4,427.4l1.5-.7-1.6-.8Zm-3.4,4,1.4-.7-1.5-.8Zm16.3-7.1-1,1.2,1.6.5Zm-18.1,4.2v1l-.7,1.3,1.6.2-.6-1.1,1.2-.6Zm-8.5,3.3,1.3-.6-1.3-.6Zm10.2-4.2v1.3l1.3-.7Zm-16.4,4,1.3-.6-1.3-.6Zm-3-3.4.1,1.3,1.2-.6Zm6.7,2.7-1.3-.6.1,1.3Zm-10.1-4,.1,1.2,1.3-.6Zm49,.9-.8,1,1.3.4Zm-1.4-2.3-1.2-.4.1,1.4Zm0,2.7-1.4-.1.5,1.6Zm-4.5,10-.5.2-.2-.3-.2.7.4-.1.6.2Zm2.7-11.4-1.2-.1.4.9Zm.3.4.9.5-.2-1Zm3.3,4.3.9-.5-.7-.5Zm-45.2,2.3,1-.4-1.1-.6Zm6.1-1.3.2-1-.8.2Zm-8.3-1.5h1l-.3-.8Zm30-6.9,1.1-.2-.8-.8Zm-4.2,6.7.8-.9-1.2-.1Zm6.4-6.5,1.1-.2-.8-.8Zm6.9-.3.6-.9-.8-.1Zm-5.6-1,.6-.8-.8-.1Zm-.1,6.9.9.4-.1-.9Zm-1.4-8.7-.7.7.9.2Zm-3.9,13.9,1,.2-.3-1.1Zm-.5-5.9.8-.5-.9-.4Zm6.5,3.7.6.7.1-1Zm-3.7-2.5,1,.2-.4-1.2Zm-.9-2.2-.6,1,1,.1Zm-12.9.6-.5,1.1,1-.1Zm13.7-1.3.4-.7h.1v-.2l.3-.6h-.5l-.4-.9-.9,1.2h.2Zm3.3-9.4-.5-2.1-1.4,1.3Zm-31,12.1-.7.4.7.6Zm11.4-.5-.9.1.7.7Zm9.4,2.1h.8l-.4-.8Zm-4.5-3.3-.9.1.7.7Zm7.6.5.2-.9-.9.2Zm-14.5.7.1.7.7-.5Zm15-2.4.6.4v-.8Zm1.3-4.2-.1.6.6-.1Zm2.6-2.3.2.6.3-.6Zm11.5,8.1-.6.4.6.3Zm-7.6,2.8.5-.1-.4-.5Zm2.3-5.3h-.6l.2.5Zm6.5,10.8.7.4v-.7Zm-1.4-3.3.3-.5h-.5Zm7.3-3.5-.7.3.7.3Zm-3.5,1.7-.4-.5-.1.7-.2-.1.3.9.6-.6-.7-.2Zm1.8-5.2h-.6l.2.5ZM263,435.3l.5-.3-.6-.2Zm5.6-1.4.5.4v-.7Zm8.9,2.7.6-.8-1.1-.3Zm-6.1-2.8.7.3v-1Zm6.7-4.7-.1.8.9-.2ZM253.8,433l.9.5.1-.8Zm-2.6-.1.9.5v-.8Zm-2.7-.5.7-.1-.5-.7Zm2.3-2.3.3.7.5-.7Zm9.4,1.4-.1.7.7-.2Zm-19.5-.9.5-.6-1-.3Zm29.8-4,.9-1.1-1.6-.5Z" fill="#dd5472"/>
      <path id="Path_14436" data-name="Path 14436" d="M262.5,433.3l.5.9.5-.7Zm4.1-4.1-.9-.2.4.9Zm-7.8,1.8,1.4.5-.1-1.6Zm-10.9-.1,1-1.4-1.4-.2Zm-2.5-.5,1.1-1.3-1.5-.3Zm-3.4-2.7v1.7l1.3-1.2Zm9.4,3.1,1.3.5-.1-1.6Zm-13.7-2.3,1.4.6-.1-1.7Zm20.6,7.8.6-.2-.5-.4Zm15.6-20.5.8-.9-1.3-.4ZM259,432.4l-.9.6.9.5Zm1.2,1,1-.2-.8-.7Zm25.7-5.3-.3.1v-.1l-.1.1-.6.2.3.3-.1.2h.2l.3.4.1-.4.3-.1-.2-.3Zm2.2,6,1-.1-.4-.8Zm-7.3-.4.7-.6-.9-.3Zm2-10.8-.9.4.7.8Zm-4.4,5-.9-.3.3,1Zm6,3.7,1,.1-.3-1.1Zm-2.9-9.1-.9-.3.1.8Zm5.6,3.8.4.5.7.9.1-.5,1.1.3-.5-1.3-.6.6.1-.3-.7.2.1-.7Zm4.2,5.2-.5.8h1Zm-8.3-.6.3.9.6-.5Zm4.3-.3,1.1-.1-.8-.9Zm4.8.4.6-.9-.9-.1Zm-5.8,5.3.9.3-.1-.8Zm6.9-8-.9-.3.1,1.2Zm-54.7-1,1.3-.6-1.5-.3Zm38.9-6.1-1.5-2.1-1,2.1Zm-19.9,8.1L256,431l-1.3,1.1,1.4.5-.1-1.4,2,.5Zm9.1-1.5-2.5-.6.5,2.2Z" fill="#dd5472"/>
    </g>
    <g id="Group_1069" data-name="Group 1069">
      <path id="Path_14437" data-name="Path 14437" d="M243,414l.2.8.6-.4Zm11.6,3.1h1l-.5-.9Zm-8.6-5v.9l.7-.5Zm4.7,4.5.6-.4-.6-.3Zm-3.2-2.6-1.4.5.9.8Zm-2.1-.2-1.2.8,1.5.7Zm4.1,2.6-1.3-.6.1,1.2Zm5.3-8.5-.5,1.3,1.3-.1Zm13.1-1,.8,1.1.6-1.1ZM257.2,409l1.3-.6-.9-.8Zm-6.4-.2-.8-1.1-.4,1.2Zm-7.8,7.9,1.2-.4.3.8.7-.7-.8-.2h.2l-1.5-.9Zm1.3-8.3.7.7.5-1.3-1,.4.4-.8-3-.1,1.8,2.2Zm8.3,1.9.7-2.8.3.2.2-.7-.9.2.2.1-2.2.9Zm-3.7,1.7-1.8.8,1.2,1.4Zm1-4.8-1.7.7,1.2,1.5Zm-8.2.6.2.8.7-.4Zm12.4,3.5h1l-.5-.9Zm8.7-3.5h1l-.5-.9Zm-7,2.5.2-.7-.9.2Zm1.1,1.3-.3.1.6.4v-.2l.3.1.2-.7-.9.2Zm-8.7-4.7-2.7.1,1.2,2.7Zm-4.1,3.6.4,1,.4-.4,2.6,1.2.2-2.2.6-.3-1.2-.7.1.7-2.2,1Zm15.2-1.6.4-.8-1.1.2Zm-10.6,2.4.8-.4-.7-.5Zm.9-.3-.6.5.9.3Zm1.1,3.7,1.2-.6-1.3-.7Zm-6.6-1.2-.3-1.6-.5.4.6-.8h-1.3l.1.2-.7.1.7,1.3.1-.2Zm8-1.5,1.3-.2-.8-1.1Zm13.3-3.6.5-1.3-1.3.4Zm-22,1.1-1.4.4.9.9Zm14.3-2.7-3.5.1,2.1,2.7Z" fill="#ad5c49"/>
      <path id="Path_14438" data-name="Path 14438" d="M260.8,408.2l.6-1.3h-1.7Zm1.5,1.6.4-.9-1,.1Zm-11.2,1.7,1.3-.2-.9-1.1Z" fill="#ad5c49"/>
    </g>
    <path id="Path_14439" data-name="Path 14439" d="M166.4,425l8.4-36.6,27.3,7.1L192.9,440Z" fill="#ea9d7d"/>
    <path id="Path_14440" data-name="Path 14440" d="M181.5,412.5c10.8,3.6,16.2,3.4,16.2,3.4l4.6-19.8L175,388l-4.7,18.5S173.8,409.9,181.5,412.5Z" fill="url(#linear-gradient-2)"/>
    <path id="Path_14441" data-name="Path 14441" d="M165.684,426.035l8.773-38.2.975.224-8.773,38.2Z" fill="#af614b"/>
    <path id="Path_14442" data-name="Path 14442" d="M197.4,420.2c-2.1.1-6.3,0-12.9-.4a63.134,63.134,0,0,1-16.6-3.4l-2.8,11.8s2.6,1.2,15.5,3,16.3-1.6,16.3-1.6Z" fill="#fff"/>
    <path id="Path_14443" data-name="Path 14443" d="M197.1,420.2l.2-4.2a69.523,69.523,0,0,1-13.8-.3,72.874,72.874,0,0,1-14.7-3.2l-.9,4.1a71.708,71.708,0,0,0,16.3,3.3c6.7.4,10.8.4,12.9.3Z" fill="#10646c"/>
    <g id="Group_1070" data-name="Group 1070">
      <path id="Path_14444" data-name="Path 14444" d="M235.5,444.7a18.165,18.165,0,0,0-.3-3.2l-72-.2c.2,1.7,0,3.2.1,4.2a1.759,1.759,0,0,0,1.8,1.6l67.7.2A2.6,2.6,0,0,0,235.5,444.7Z" fill="#fed6d6"/>
      <path id="Path_14445" data-name="Path 14445" d="M234.9,440.4c-1-3.3-8.8-8.7-14.2-10.8-.5-.2-1.1-.4-1.7-.7l-3.2,12.7,19.3.1a5.067,5.067,0,0,0-.2-1.3Z" fill="#fed6d6"/>
    </g>
    <path id="Path_14446" data-name="Path 14446" d="M210.7,424.5l-3.7,7.1a1.343,1.343,0,0,1-1.5.7c-.2,0-.3-.1-.5-.2a1.4,1.4,0,0,1-.4-1.8l3.7-7.1-2.7-1.5-5.1,7.5a1.537,1.537,0,0,1-1.4.6.764.764,0,0,1-.5-.2,1.4,1.4,0,0,1-.3-1.9l4.9-7.3-2.1-1.2-1.3-6.7a1.3,1.3,0,0,0-1.4-1.1c-1,.1-2.3.8-2.9,3.5a16.941,16.941,0,0,0,0,7.9,30.818,30.818,0,0,1-14.7,6.5c-7.2.9-12.1-.7-15.4-2.8a1.32,1.32,0,0,0-2,1,55.458,55.458,0,0,0-.7,8.4,46.8,46.8,0,0,0,.5,5.5l52.7.1,3.2-12.7c-2.4-1-5.5-2.7-8.4-4.3Z" fill="#ad203a"/>
    <path id="Path_14447" data-name="Path 14447" d="M198.7,429.5a.764.764,0,0,0,.5.2,1.344,1.344,0,0,0,1.4-.6l5.1-7.5-2.3-1.4-5,7.3A1.414,1.414,0,0,0,198.7,429.5Zm6.4,2.7a.367.367,0,0,0,.3.1,1.342,1.342,0,0,0,1.5-.7l3.7-7.1-2.4-1.3-3.8,7.2A1.671,1.671,0,0,0,205.1,432.2Z" fill="#fff8f8"/>
    <g id="Group_1071" data-name="Group 1071">
      <path id="Path_14448" data-name="Path 14448" d="M163.3,442.1l-.2-1.4H235l.3,1.5Z" fill="#442624"/>
      <path id="Path_14449" data-name="Path 14449" d="M216.6,441.7l-1.4-.3,3.2-12.8,1.2.6Z" fill="#442624"/>
    </g>
    <g id="Group_1072" data-name="Group 1072">
      <path id="Path_14450" data-name="Path 14450" d="M207,433.7l.9-.1-.6-.7Zm5.4-.4-1.2-.1.4,1.3Zm-12.5-20.4-1.3-.7-.1,1.8Zm-.7,5.7-.1,1.7,1.4-1.1Zm16.9,9.2.2-.2-1.1-.5-.1,1.4.7-.5v1.4l1.3-1.1ZM194.6,424l-1.3.7,1.4,1Zm2.7-.8-1.4-.1.6,1.6Zm8.9,1.4-1.4-.1.5,1.6Zm-.7,3.5,1-1.5-1.4-.1Zm10.7,6.6.8-1.2-1.2-.1Zm-5.2-10-1,1.2,1.6.4ZM194.2,426l-1.6-.8.1,1.5Z" fill="#dd5472"/>
      <path id="Path_14451" data-name="Path 14451" d="M191.5,427.5l1.5-.7-1.6-.8Zm-3.4,4,1.4-.7-1.5-.9Zm16.2-7.1-.9,1.2,1.5.5Zm-18.1,4.2.1,1-.7,1.2,1.6.3-.7-1.2,1.3-.6Zm-8.4,3.3,1.3-.6-1.3-.7Zm10.1-4.2.1,1.2,1.2-.6Zm-16.3,3.9,1.2-.6-1.2-.6Zm-3-3.3v1.2l1.3-.6Zm6.7,2.7-1.3-.7v1.3Zm-10.1-4.1.1,1.2,1.2-.6Zm49,1-.9,1,1.4.4Zm-1.4-2.3-1.2-.4.1,1.4Zm0,2.7-1.4-.1.5,1.6Zm-4.6,10-.4.2-.3-.3-.1.7.3-.1.6.2Zm2.7-11.4h-1.2l.5.9Zm.3.5.9.4-.2-1Zm3.3,4.2.9-.4-.7-.6Zm-45.2,2.2,1-.4-1-.6Zm6.2-1.3.2-1-.8.2Zm-8.3-1.5h1l-.4-.8Zm30-6.8,1.1-.2-.8-.8Zm-4.2,6.6.7-.8-1.1-.2Zm6.4-6.5,1.1-.1-.8-.8Zm6.9-.2.6-.9-.9-.1Zm-5.6-.9.5-.9-.7-.1Zm-.1,6.8.9.4-.1-.9Zm-1.4-8.6-.7.6.9.2Zm-3.9,13.8,1,.2-.4-1.1Zm-.5-6,.8-.4-.9-.5Zm6.4,3.8.7.7.1-1Zm-3.7-2.5,1,.1-.3-1.1Zm-.8-2.2-.6,1,.9.1Zm-13,.5-.5,1.1h1.1Zm13.8-1.2.4-.8.1.1v-.2l.3-.7-.6.1-.3-.9-1,1.1.3.1Zm3.3-9.4-.5-2.1-1.4,1.2Zm-31,12-.8.4.8.6Zm11.4-.5-.9.2.6.7Zm9.4,2.2h.8l-.4-.9Zm-4.5-3.4-1,.1.8.7Zm7.6.5.2-.8-1,.1Zm-14.5.7.1.7.6-.5Zm15-2.3.5.4.1-.8Zm1.3-4.2-.1.5h.5Zm2.6-2.3.1.6.4-.6Zm11.5,8.1-.6.4.6.3Zm-7.7,2.8.5-.1-.3-.5Zm2.3-5.3h-.5l.2.5Zm6.6,10.8.6.4V437Zm-1.4-3.3.3-.5h-.6Zm7.3-3.5-.7.4.7.3Zm-3.5,1.7-.4-.5-.2.7-.1-.1.2.9.6-.6-.6-.2ZM215,427l-.7.1.3.4Zm-26.9,8.4.5-.3-.6-.2Zm5.6-1.5.4.5v-.7Zm8.8,2.8.6-.8-1.1-.3Zm-6.1-2.8.8.3v-1Zm6.8-4.7-.1.8.9-.2ZM178.9,433l.8.5.1-.8Zm-2.6-.1.8.5.1-.8Zm-2.7-.5.7-.1-.5-.7Zm2.2-2.3.3.7.6-.6Zm9.4,1.5v.7l.7-.2Zm-19.5-1,.5-.6-.9-.3Zm29.8-3.9.9-1.1-1.5-.5Z" fill="#dd5472"/>
      <path id="Path_14452" data-name="Path 14452" d="M187.6,433.4l.4.9.5-.7Zm4.1-4.1-.9-.3.4.9Zm-7.8,1.7,1.3.6v-1.7Zm-10.9-.1,1-1.4-1.4-.2Zm-2.5-.5,1-1.3-1.4-.3Zm-3.5-2.7.1,1.7,1.3-1.1Zm9.4,3.1,1.3.6v-1.7Zm-13.1-1.6h1.3v-1.6Zm20,7.1.7-.2-.6-.4ZM199,415.8l.8-.8-1.2-.4Zm-15,16.6-.9.7.9.4Zm1.3,1.1,1-.2-.9-.8Zm25.6-5.3-.2.1v-.1l-.1.1-.6.2.3.4-.2.1h.3l.3.4.1-.4h.3l-.2-.4Zm2.3,6,.9-.1-.4-.8Zm-7.3-.4.6-.6-.9-.3Zm2-10.8-1,.4.8.8Zm-4.4,5-.9-.3.2,1Zm5.9,3.7,1,.1-.3-1.1Zm-2.9-9.1-.8-.3v.8Zm5.6,3.8.5.5h-.1l.8.9.1-.5,1.1.3-.5-1.3-.6.6.1-.3-.7.2.1-.7Zm4.3,5.3-.5.8.9-.1Zm-8.3-.7.3,1,.6-.6Zm4.2-.3,1.2-.1-.8-.9Zm4.9.4.5-.8-.9-.1Zm-5.9,5.3,1,.3-.2-.8Zm7-7.9-1-.4.1,1.2Zm-54.7-.7,1.2-1.1h-.7Zm38.9-6.4-1.5-2.2-1,2Zm-19.9,7.9-1.5,1.8V431l-1.3,1.2,1.4.5-.1-1.4,2,.4Zm9.1-1.4-2.5-.6.5,2.1Z" fill="#dd5472"/>
    </g>
    <g id="Group_1073" data-name="Group 1073">
      <path id="Path_14453" data-name="Path 14453" d="M170.4,411l.1.8.7-.3Zm4.8,0-.1.8.7-.3Zm0,1.4-1.5.2.7,1Zm-1.6-1.6-1.4.5,1.4,1Zm10.9-2.4-.6,1.2h1.2Zm2.3,1.5,1.3-.3-.7-1.1Zm-6.3-1.4-.6-1.2-.7,1.1Zm-6.3-1.6.6.8.7-1.2-1.1.2.6-.7-2.9-.7,1.3,2.5Z" fill="#ad5c49"/>
      <path id="Path_14454" data-name="Path 14454" d="M182,410.3l1.2-2.6.2.3.4-.7-1,.1.2.1-2.3.5Zm-4,1.1-1.8.4.9,1.6Zm1.9-4.5-1.8.4.9,1.6Zm-8.1-.9v.8l.7-.3Zm11.5,5.7,1,.1-.3-.9Zm9.2-2,1,.2-.4-1Zm-7.4,1.3.3-.7h-.9Zm.9,1.4h-.3l.5.6.1-.3.2.3.3-.8-.9.1Zm-7.8-6.1-2.6-.5.7,2.9Zm-4.6,2.8.2,1,.5-.3,2.3,1.7.6-2.1.7-.2-1-1-.1.8-2.4.5Zm15.2,1.1.6-.7-1.2-.1Zm-10.8.5.8-.4-.6-.5Z" fill="#ad5c49"/>
      <path id="Path_14455" data-name="Path 14455" d="M179,410.5l-.8.4.9.5Zm-5.7-1.3,1.2-.3-1.1-1Zm-1.5,2.3.6-1.5h-.7l.5-.1.5-.2-1.1-.8-.1.3-.6-.3-.1,1.4h.2Zm9.4.4,1.3.1-.6-1.2Zm13.8-1.1.7-1.2-1.4.2Zm-22.6-3.2-1.4.1.7,1Zm15.2.2-3.4-.5,1.5,3Zm2.8,1.9.9-1.2-1.7-.2Z" fill="#ad5c49"/>
      <path id="Path_14456" data-name="Path 14456" d="M191.7,411.5l.5-.7-1-.1Zm-11.4-.2h1.3l-.7-1.2Z" fill="#ad5c49"/>
    </g>
    <path id="Path_14457" data-name="Path 14457" d="M269.5,206.2H214L235,404a3.626,3.626,0,0,0,3.8,3.2l31.9-1.6a2.6,2.6,0,0,0,2.4-2.5l.8-105.8c-.4-27.2-3.7-80.6-4.4-91.1Z" fill="#5b97c4"/>
    <path id="Path_14458" data-name="Path 14458" d="M196.1,206.2c-1.1,5.8-3.3,21.8-6.4,41.9l-11,75.4-13.8,77.1a3.291,3.291,0,0,0,2.7,3.8l32.8,5.3a3.982,3.982,0,0,0,4.5-2.8l29-90.5c4.6-14.3,17.8-62.4,26-89.6.5-1.5,4.5-2.2,4.7-5.1.5-10,.5-13.9.4-15.5H196.1Z" fill="#8ab7d9"/>
    <path id="Path_14459" data-name="Path 14459" d="M243.1,393.6c0-.6-4.1-65.5-6.6-87.9l1.4-.1c2.5,22.5,6.6,87.3,6.6,87.9Z" fill="#aad2f9"/>
    <path id="Path_14460" data-name="Path 14460" d="M166.525,390.847l.24-1.38,40.98,7.147-.24,1.38Z" fill="#d2ebff"/>
    <path id="Path_14461" data-name="Path 14461" d="M200.2,409.7a3.982,3.982,0,0,0,4.5-2.8L231,325.5l28.2-98.2s-9.7-25.4-15.4-18.9c-8.4,9.7-67.6,165.5-77.8,191.8a3.309,3.309,0,0,0,2.5,4.4l31.7,5.1Z" fill="url(#linear-gradient-3)"/>
    <path id="Path_14462" data-name="Path 14462" d="M175.7,391.8l-1.3-.2,15-86.8L207,206.4h1.5c-.1.5-9.4,49.4-17.8,98.7Z" fill="#d2ebff"/>
    <g id="Group_1074" data-name="Group 1074">
      <path id="Path_14463" data-name="Path 14463" d="M246.3,388.7h-1l.6,1.1Zm-2.7,5.8,1.7-.4-1.3-1Zm-1,10.5,1.7-.4-1.3-1Zm-1.9-31.7-1.5-1.4-.6,1.6Zm-4.8,13.3.8-1.9-1.9.6Zm3.6,8.7.7-1.5.2.1-.1-.4.1-.1h-.1V393l-.7.4.2.2-1.4.4Zm-3.7-14.1,1,1.2-.5,1.6,2.1-.4-1.5-1.2.8-1.8Zm1.8,4.6-.4,1.7,2-.4Zm.5-18.6.3-1.9-1.8.4Zm4.3,8.7.1-1.9-1.7.5Zm-1.3,4.3.1-1.8-1.7.5Zm-3.3,15,.1-1.7-1.4.5Zm1.6-7.3-.5,1.7,2.1-.4Zm12.2,4.5v-.9l-.8.5Zm-14.4-3.3-.1.1.1.1-.1.4.4-.2.4.3v-.4l.4-.2-.8-.8Zm0,2.7-.1-1.2-.9.5Zm2.3,5.1.9-.8-1.1-.2Zm-.4-21.9.6-1.1-1.2-.2Zm-4.5-12.3.6,1.2.7-1.1Zm3.7,14.8.7-1.2-1.3-.1Zm-2.6,3.7-.9-.8-.1.4-1.5-.6,1.7-1,.5.4-.1-2,1.3,2.1,1-2.8-2.3.2v-.5l-1.5.7-1.3-.7,1.6-.9-.1-.1,1.2-.8-1.8-.9,1-1-2.3-.9,1.4-1.1-1.7-.7.1,2h.1l.2,2.8,1-1,.3,1.5-1.3-.5.1,1.6-.1-.1.4,2.1.7-.5,1.5,1-1.8-.6.1,1.6-.5-.2.3,3,1.7-1.5Zm9-.1V380l-1,.6Zm-8.1-5.7.1-.8.2.1-.4-2.1-1.5,1.2,1.4.7-.7.4Zm-.6-4.6-.3-1.2-1.1,1Zm-2.9-3.1-1.7-.8.1,2.1Zm3.2-.3-1.5,1.2,1.9.9Zm2.2,17-1.5,1.1,1.9.9Zm-.1,10.4-1.5,1.2,1.9.9Zm5.1-37-.2,1,1.2-.4Zm-7.3,1.9-.9.8,1.2.1Zm-6-3.9.9-.5-1-.5,1.5-1.3-1.7-.7.1,2ZM242.4,386l.4.2-.2.6,1.1-.4-.7-.6v-.4Z" fill="#8ab7d9"/>
      <path id="Path_14464" data-name="Path 14464" d="M246.2,382.4l-.8-.2.4.6Zm-7,.2.8-.2-.5-.5Zm-.5,15.7-.1-.9-.6.5Zm3.1-4-.7-.1.3.6Zm-6.2.1v-.1l.8-.7-.7-.2v-.6l1,.2-.6-1.2H236l-.2-.6-.8.7.8.2-.1.2-1.3.4.2.3-.7-.4.3,3.1Zm19.7-27.8.1.7.6-.5Zm-3.1,6.8.7.1-.4-.6ZM241,369.8l.7-1-1.4-.2Zm-5.1-5.8,1.1-.3-.7-.7Zm-1.4,8.9-.1-1.1-.9.5Zm-.8-19,.8.5v-.9l-.7.3-.3-1.1-1,1Zm4.4,18.1.9-1.4-2-.1Zm3.6-15.6-1.1-.2.5,1Zm-1.4,3.1.4.5.5-.7-.7-.1.2-.3-1.2-.1.6.9Zm-1.4,33.4.5-1-1.2.2Zm2.4-9.8-.1,1.1,1-.5Z" fill="#8ab7d9"/>
      <path id="Path_14465" data-name="Path 14465" d="M241.2,385.9l-1.4.3,1.2.8Zm-6.3-3.1-1-.5v1.1Zm5.9,15.1-1.2.2.6.8Zm1.8-8,.9-.4-.9-.8Zm-3.1,8.6-1.7.2,1,1.6Zm-1.8,4.7.6-1.8-1.7.2Zm2-2.8-1.4,1.1,1.8.8Zm-5.3-3.8.3,3,2.2-2.1-.8-.3,1.3-.7L236,396l.4-.3-1.6-.5.2,1.4.5-.3.1.7Zm-.6-7.1.3,3,2.1-2.1-.8-.3.9-.2-.4-.3.2-1.7-1.7.6.5.5-.2.8Zm1.9-2.5-.7-.3-.5-.8-.4.5-.8-.3,2.2-2-.4-.2.6-.1-1-.7-.1.6-1.6-.6.6,6Zm-1.9-18.8,1.2.2-.3-1.1-.9.8v-.2l-2.3,1.2,2.4,1.8Zm-2.2-2.8.1.8.5-.4.1.1-.3.8,1.2-.1.3.1v-.2l.6-.1-.7-.6v-.6l.4.3v-1.1l.3-.2-.3-.2-.1-1.5-1.4.7-.9-.6.6-.4.2.2.1-.4.6-.4-.5-.2.8-.7-1.5-.8.7-.7,1.5,2.4,1-2.9-2.2.3.1-.2-2.2-.8.9-.8.2.3.1-.6.2-.1-.1-.1.1-1.1-1.7.4h-.2l.2,1.9.3,3.1.8-.8.1.6-.7.2.3.3.1,1.1-.4-.2.2,2.5.8-.7.4.3-.5.3-.2-.1v.2l-.5.3Zm3.8,36.9,1.8-1.6-.9-.4,1.1-.2-1.3-1.1-.3,1.1-1.1-.4.2,2.4.3,3,2.2-2Zm1.3,4.4h3l-1.8-2.3Zm4-1.7-1.1-.9-.4,1.5,1.4-.4-.7,1.4h3l-1.8-2.3Zm4.2-12,.8-.7-1-.1Zm-10.5-36.4-.3-1.2-1.1,1ZM245.1,391l1.1-.4-.8-.8Zm2.3,6.2.8-.7-1-.2Zm-6-8.4-.5,1.1h1.4Zm4.8,5.4.8.7.2-1.1Zm1.9-9.2-1.1-.5.3,1.1Zm.9-4.5,1,.3-.3-.9Zm2.8,4.7.4-.6h-.7Zm2.5-6,.8-.1-.6-.7Zm-4.2,10.3.1,1,.7-.7Z" fill="#8ab7d9"/>
    </g>
    <g id="Group_1075" data-name="Group 1075">
      <path id="Path_14466" data-name="Path 14466" d="M200.6,380.1l.7-1-1-.1Zm1.2,3.6-1.4.8,1.6.6Zm4,8.8-1.2.7-.3-.8-2.2,1.9,3,.6-.5-1.5,1.4.5Zm-2.9.4-.2-1.5-1.4.8Zm6.5-4.6.4.4.5-1.4-1.7.2.4.4-1.5.2,1.1,1-.8.1,1.8,2.4.8-2.9-1.2.3Zm1-24.6-1.7,1.1,2,.6Zm1.9,13.9-1.8-.9.5,2.1Zm-2.1-5.2.5,2-1.7.9,2,.7-.2-1.6,1.2-1Z" fill="#3d7099"/>
      <path id="Path_14467" data-name="Path 14467" d="M209.4,377.7l-1.8.9,2,.8Zm-1.1,13.1-1.4.8,1,.4-.9.2.6.7-1.1-.9-.6,2.3-.6.5,2,1.1-1.2.2v-.3l-1.1.5,1.1.4,1.4,1.9.8-2.9-.5.1.5-1.5-.8.1V394l.8-.3.5.7.8-2.9-1.2.2-.1-.9Zm-.7,5.2-.3.1v-.3l.3.2Zm4.6-36.8,1.7-1.2-1.6-.7Zm3-10.3-.1,1.9,1.7-1.1Zm-8.5,16.2-.2,1.9,1.8-1.1Zm.5,4.5-.2,2,1.8-1.1Zm17.4-24.4.3-1.7-1.4.4Zm-7.9-3.7-.1,1.6,1.4-1ZM211.3,385l-1.2-.7v-.1h.9l-.6-.9-.5.7v-.2l-.9,1.1h1v.4l-.9.2,1.7,2.4.8-2.9Zm-3.5.2-.2,1.6,1.4-.9Zm3.6-4,.7-.3-1.6-.9-.1,1.6-.4.3.9.3-1,.2,1.8,2.4.8-2.9-1,.2Zm-3.9-.1-.2-1.7-1.8.9Zm-13,.6.8-.3-.7-.7Zm14.5.7-.2,1.2,1-.5Zm-3.4,5.8.4-.9-1.2-.1Zm4.3-21.5.8-1.1-1.3-.1Z" fill="#3d7099"/>
      <path id="Path_14468" data-name="Path 14468" d="M215.5,355.4l.5,1.2.8-1.1Zm-5.3,13.9.8-1.1-1.3-.2Zm2.5,6.2-1,.5.7.3H212l1.8,2.5.8-3-1.8.4Zm-9.2-4.9-.2,1.2,1-.4Zm10.7-8.5-.6,1,1.5.1Zm1.4-2.5-.6,1h1.4Zm.8,4.2,1.3,1.5-2.3.3.8,1.2-1.9.5.9,1.1h-.1l1.4,1.2-1.5.5-1.2-1.1-.2.5-2.2-.7.4,3,1.7-1.8-.5,1.9.6-.2,1.3,1.2-1.6.4v-.4l-1,.6,1.1.4,1.3,1.8.9-2.9-.5.1.5-1.5-1.9.2,1.6-.7.7.7.8-2h-.2l.5-1.4-1.3.1.5-1.4.8,1.2.9-2.9h-.2l.5-1.8Zm2.7-1.5.5-2-1.8.4Zm-5.7,2.6-.8,1.9h.2l-.1.8,1-.4-.6-.5,1.5-.3Zm1.8-3.7-1.2-1.4-.8,1.9ZM208.8,376l-.7,2,2-.5ZM207,386.3l-.7,2,2-.5Zm1.6-37.2-1.1.4,1.1.5Zm9-9.7.6.8.5-1-.6.1-.2-1.9-1.5.9,1.6,1Zm-1.1,13.8-.7-.9-.5.9Zm-12.3,23.1-.1.3-.8.6,1,.6-.1-.7.5-.1Zm-1.9-3.6h-.7l.3.6Zm6.1,1.5-.2-.7-.5.4Zm-2.3,15.5.8-.2-.6-.7Zm-2-3.9.4-.5-.7-.1Zm-8.7-30.2-.7.1.5.6Zm1.6,6.7-.5.5.8.1Zm13.3-2.2-1.4-.1.5,1.1Zm5.3-3.6-.2-1.1-.8.6Zm.6,8.6-.8-.6-.3,1Zm3.9-28.2-1.1.5.8.6Zm3.6.7-1.1.4.8.7Zm1.3-1.7h.9l-.6-.7Zm-1.8,8.8.3.7-.8.2.3.4-.5-.1-.7-2-1.8,2,2,.6-.2.4.6-.3.5.2-.1-.4.3-.2.4.5.3-1.3h-.2l.4-.7Zm-12.5,17.7.7,1.6,1.4-1.3Zm1.1-14.4-1.2-.1.4.9Zm-.2,3.4-.6-.1.4.9.4-.4.1.2.8-.8-1.2-.1Zm15.3-18.9,1,1.5-1.4.1.9,1.7.8-1.9-.2.1.6-1.8Zm-4.9,1.7-1.5.9,1.7,1.1Zm6.1-11.7,1.8.8-.5-1.9Zm3-6.5-.3,1.3,1.6-.4Zm-6.8,15.9-.9,1.7,2-.4Zm7.2-11.2.7-1.6-2,.1Zm-6.7,13.9-1.5.9,1.7,1.1Zm-12.4,43.7-.6.7-.8.2,1.8,2.3.8-2.9-.9.2Zm-5.5,6.1.7-.7-1-.4Zm-.6-10.1-1,.5.8.6Zm-.3,3.9,1.3-.5-1.3-.6Zm6.8-3,.8.8.3-1.1Zm-8.3,14.9.7-.7-1-.4Zm-.5-10.5-1,.6.8.6Zm24.3-50.1.5-.8-1,.1Zm-23,60.3.3,1.9,1.4-1.4Zm11-26.1,2.8-1.3-2.1-1.6Zm9.8-34.4-.1,3,2.5-1.9Zm2.9-1.7.8-2.1-2,.2Zm-2.8-1.4-.1,2.2L228,327Zm-17,54.8-.2-.9-.9.8.4.2-.1.4.5-.2.4.2-.1-.3.1-.1Zm-8.3,2.4.4-.8h-1Zm17.3-33.8h1.4l-.9-1.1Zm1.6-3.6-.5,1-.6-.4v.1l-.5-.5-.7,1.9,2-.5-.4-.4.3-.2,1.2.1Z" fill="#3d7099"/>
      <path id="Path_14469" data-name="Path 14469" d="M222.3,346.9l.8,1.1-1.2-1-.5,1.9v.2l-.2.8.1-.1v.2h-.1l.1.2v.6l.3-.2.7.9-1.5.2-.5-.4-.2.5h-.2l.2.3-2.2-.8.3,3,2-2,.6.8-1.7.5.3.3v.8l-.6.1.6.5v.4l.2-.1.6.5-.9.5-1.3-1-.3,1.5-.4.1.3.2-.2,1-.9.5,1.1.4-.1.5.8-.3h.2v-.2l.3-.1.6.4.2-.8.7-.3-.5-.4V358h-.2l-.4-.3.4-.2.7.7.7-2.4-.7.3.3-1.3.4-.3-.4-.1.4-.9.6.9,1-3h-.1l.7-1.8H223l-.8-.3.5-.2.4.4.4-.9h.1l.1-.1-.1-.1.5-1.9Zm-6.9-.1-1.4-.1.5,1Zm5.3-3.5-.1-.6,1.6.8-.4-1.9-1.2.9-.1-.4-.8.6Zm3.4-4.8,1.6,2.5-.6.1-1.1-.7-.1.8-.1.1.1.1-.1.7.4-.2.5.8-1.2-.5v1.6l1.3-1,.3.5.8-2.3h-.1l1-2.8Zm2.6-.4.8-2.3-2.1.3Zm-26.6,42.7,1,.6-.1-1.2Zm5.3,4.2.4,1.6,1.3-1.1-1.2-.6.2-.1-.6-.6-.1.4h-.1v.1l-.1.4Zm-7.7,2.1.4-.8-1-.1Zm7.8-6-.3-1.2-1.1.9Zm-7,2.6.1,1.2.8-.5Zm1.9-9.1-1.2.3.7.8Zm4.4,26.1-.1-.2-.1.1-1.5-.8.6,2,.3-.3h1.3l-.4-.7.1-.1Zm-1.9-5.2.5,2-1.7.9,2,.7-.2-1.6,1.2-1Zm1.2,8.8.7-.3-1.6-.9-.2,1.6-.4.2,1,.4-1,.2,1.8,2.4.8-2.9-1,.2Zm-5.9-.9,2,.8-.2-1.7Zm3.5-.2-.9.8,1.2.6Zm0,2.3-.3,1.1,1.1-.4Zm3.7-6.9-1.1.5.8.3h-.4l1.7,2.5.9-3-1.8.4Zm-3.9.5-.8,2,2-.5Zm-4.6.3-.2.4-1,.8,1.3.3-.2-.7.6-.1Zm-2.3-3.1.4-.5h-.8Zm6.4.9-.1-.6-.5.3Zm-1.8,9.4.8-.6-1.1-.5Zm.8-5.9-1.3-.5v1.1Z" fill="#3d7099"/>
      <path id="Path_14470" data-name="Path 14470" d="M205.5,398.3l.8.8.2-1.1Zm-3.1,9.1,1.2-.1-.5-.9Zm-3.5-9.3-.4-.8.1-.8-1,.5.5.4-.6.7Zm-6.2,4.1.3,1.2.7-.7Zm-.4-8.1.3-1.2-1.1.6Zm13.2,10.5.8-2.9-2.6.6Zm-8.9-5.9,1,.6-.2-1.2Zm5,4.3,1-.3-.4-.3-.1-1.7-1.8,1,1.6.6Zm-7.5,2,.5-.8-1-.1Zm-4-.2.9-.5-.9-.7Zm1.4-9.3.4-1-1.1.3Zm7.1-25.8-.5.8,1-.2Zm-3.4,4.2.3.7.5-.6Zm-1.1-6.5-.6.5.6.3Zm2.4,11.7-.9.1.6.8Z" fill="#3d7099"/>
    </g>
    <path id="Path_14471" data-name="Path 14471" d="M245,244.4c15.3-1.6,26.5-3.4,26.5-3.4l-1.8-34.8-73.6.3-7.7,51.1c-.1-.1,38-11.4,56.6-13.2Z" fill="url(#linear-gradient-4)"/>
    <g id="Group_1076" data-name="Group 1076">
      <path id="Path_14472" data-name="Path 14472" d="M244.4,217.5l-1.7.9,1.4.9Zm13.6-1.7-1.5.5,1,.9Zm1.6-5.1-.6,1.4h1.4Zm6.7-2.8-1.1-1.5-1.8,2.8Zm-26,11.2,1.4,1.4.7-1.5Zm-17.4,4.3.6-1.5-2,.1Zm32-10.1v-.4l-.7.4.2-.9.1.5.7-.6-.8-.3.1-.9-.4.1-.3-.2-.1.3-.6.2.4-1.2-1.5.5.9.8-1.3.4,2.6,1.7v-.3l.2.1,1,1,.5-1.3Zm-3.4.8-1.6.1,1.1,1.1Zm-7.7,16.3,1,.2-.3-1Zm-.2-5.9.1.7.8-.4Zm6.7,4.7.2-.8-.8.2ZM232,230l.9.1-.2-1Zm.6-5.6-.8-.3v.7Zm5.8,4.4.2-.8-.8.2Zm-3.8-1.3.9.2-.2-1Zm-.2-5.9v.8l.9-.4Zm6.7,4.8.1-.9-.8.2Zm2.6-4.1,1.8-.8-1-.4.2-.2-1-.5.1.4-.2-.1Zm3.7,2.2.3-.9-.8.2Zm-7.1-3.8h-1l.6.8Zm-1.5-2.5.7.4.1-.8Zm3.1,3.9,1.3.1-.5-1.3Zm9.8-.2.7-.6-1-.4Zm-4.4-3.7-.8.4.7.5Zm6.5-2.5-.2.7.8-.1Zm-.8.7.5-1.4-1.5.6Zm2.3-3.5,1.5-.4-1.3-.9Zm.4,2,.4.9.6-.7Zm-.8,3.5v-.8l-.8.5Zm-8.4-3.5-.3.5-.1-.1-.2.7.8-.1-.2-.3h.3Zm4.4,2.1-.1-.9-.7.6Zm-7.3-1.1.3-1.5.2.1.3-1.7-1.7.9,1,.6-1.4.7Zm2.5-4.7-2.2,1.2,1.8,1.1Zm-14.9,8-.4,1.7,2.1-.5Zm7.9,3.1.7-.6-1-.4Zm-4.5-3.7-.8.4.7.4Zm6.3-1.8.9-.1-.7-.7Zm-23.4-4.5.9-.1-.7-.6Zm30.3,9.8.6-.5-.7-.3Zm2.2,1.7,1.1-.7-1.4-.7Zm-4.5-1,.6-.5-.8-.4Zm15.1,1.3.8-.4-.9-.4Zm-2.7,1.1.2-.8-.8.2Zm2.7-4,1.8-.9-1-.4.2-.2-1-.4.1.3-.2-.1Zm3.7,2.1.2-.8-.7.2Zm-1.9-1.7.6-.5-.8-.3ZM240,223l-.2.6h.8Zm-34.8,7.9.9.2-.2-1Zm-.2-5.2.8-.4-.8-.3Zm6.6,4,.2-.8-.8.2Zm-6.6-8.5v1.6l1.8-.8Zm3.8,3.8.2-.8-.8.2Zm-7.1-3.7-1.1-.1.6.8Zm1.9.6.3,1.1.7-.6Zm-4.3-1.8.1-.8-.8.4Zm4.1.3-.9,1.2,1.3.1Zm5.6,1.4.1.8.6-.5Zm3.4,1.8-1.4-.7.3,1.5Zm-5.5-.3.5-.5-.8-.3Zm-5.8.9.8-.1-.6-.5Zm21.3,5.9.9.1-.2-1Zm-.2-5.9v.7l.8-.4Zm6.8,3.9-.8.1.6.7Zm-15.9-.9,1,.2-.2-1Z" fill="#2d71aa"/>
      <path id="Path_14473" data-name="Path 14473" d="M219.8,225.2l-.8.2.6.7Zm4.2-4-1.8-.8V222Zm-14.7-.1,1.8-.8-1.8-.8Zm16.9,2.2-.8.2.6.7Zm-7.8-2.1.5-.8h-1.1Zm3.9,13.4.7-.6-1-.3Zm-4.5-2.8.1-.8-.8.4Zm6.3-2.7h1l-.7-.6Zm2.3-7.3.6-.5-.8-.4Zm1.8.3.3,1.4,1.1-.7Zm-4.4-.5.3.8.6-.5Zm-5.5,1.7.8-.1-.5-.5Zm-10.1-2.7.5-1.5-1.5.5Zm2.8.5,1.5,1.4.5-1.2v.8l.8-.4-.8-.4.4-.9Zm25.8-1.4,1.4.1-.5-1.5Zm-7.3,8.5.2-1.3-1.1.3Zm-12.6-6.9h-1.7l1.1,1.3Zm14.9-5,1.4,1.7.8-1.7Zm-7.5,10.8,1.3-.6-1.4-.5Zm-14.5,2.1,1.1-.8-1.4-.3Zm12.8-9.8-.7-.6.4-.2-2-1.2-.3,2,.5-.2-.1.6Zm3.9,6.3.8-.8-1.3-.5Zm-8.9-2.1-1.8,1.1,1.6.8Zm9.4-5v1.9l1.6-.7Zm-1.5,1-1.8.7,1.8,1Zm7.5-1.8-1.9.7,1.8,1Zm-32.7,2.1,1.8-1.1-1.6-.9Zm-1.9-1.6,1.7-1.1-1.6-.8Zm36.4-1.2-.4-.2v.8l.4-.2-.1.6,1.8-1-1.6-.9Zm12.5-2.1-.2,2,.6-.4.1.8.6-.5-.7-.4,1.1-.6Zm-2.3,3.5-.1,1.3,1.1-.7Zm7.6-5.4v.4h-.1v.8l.1-.1.2.7,1.1-.8-.6-.3.3-.2Zm-33.7,9.4,1.2-.7-1.1-.5Zm-15.7-4.6h.2l.3.2v-.2h.1v.2l-1.1.7,1.5.9.2-1.7h.1l-.1-.1v-.1l.2-.2-.3-.1.7-.4v1l1.1-.5h.3l-.9.6.8.4-1.6.7,1.8.9.1-1.4,1.1.6.3-2.7-.9.5-.3-.8-.5.7-.3-.4-.1.2-.3-.2.3-.1-2.3-.8v.6l-1.4.8,1.1.6Zm-2.2-.5v-.2l.1.2.2-.4.4.7,1.7-2.2-2.3.1v-.1l-.1.1h-.5l.1.2-1.3.7,1.7.9Zm.1-1,.1.1h-.1Zm-3.8-1.5,1.5.9.1-.7.1.1-.1.5,2.8-.4-.7-.6.4-.3.1.4,1-.6-2-1-.1.9-.4-.4-.8-.7.9-.5-1.6-.9v.6l-1.5-1.5.1,3.4,2.4-.3-.3.8-.3.2.1-.9Zm19.6,3-.7,1.8,1.7-.2Zm-2.3-.8,1,.5.1.2v-.1l1,.6.3-2.7Zm47.2-7.7-1.4.6.1-.8-2.1.5,1.8,1.4.2-1,.9.8Zm1.4-1.2-2.1.6,1.9,1.4Zm-26.9,8.6,1.9,1,.2-2.2Zm-18.5,10.6,1.1-.2-.8-.7Zm14.4,0,1-.8-1.4-.6Zm-6.3-5.4-1.1.7.9.6Zm9-2.4,1.3-.1-.9-.9Zm24.3-13.2h-1.8l1,2.1ZM259,212l-1-.9V211l-.1.1-.3-.2v.3l-.3.1.2-1.2-1,.3-.8-.2.2.4-.5.1,1.2.8-.1.1,1,.8v.2Zm.4-4.6.9.8.5-1.4-.7.2-.6-.6-.5,1Zm-18.7,6.9h-.1l-.3.1.4.3.1.6.3-.2.6.7.7-1.6Zm15.2-5.8-1.6.1,1.1,1.1Zm-21.3,14.3.9.2-.2-1Zm6.5-1.1.1-.9-.8.2Zm3.4-5.4.2-.2-1-.4.1.3h-.2l.1.5-1.5-.8-.2,1.9,1.7-1v1l1.8-.8Zm-5.2-.3.6.8.4-.8Zm.2-2.1.1-.9-.8.5Zm12.2,3.3.7-.6-1-.4Zm-4.4-3.7-.8.4.7.4Zm-.8-3.3-.3.4-.1-.1-.2.7.8-.1-.2-.2h.3Zm3.6,1.8.8.2-.1-.9Zm-7.8-1.7,1.3.8.1-.4.8.8.6-1.5-1.3.1.1-.7Zm-1,1.1-2.2,1.2,1.8,1.1Zm-3.8-1.1-.5,2.3,2.7-.6Z" fill="#2d71aa"/>
      <path id="Path_14474" data-name="Path 14474" d="M237.8,213.7l.6-.2-1.4-.9-1.6-1.1-.1,1.1-1.5.9,1.3.7-.1.3.5-.1.2.1v-.2l1.4-.4-.4,1.6,2.8-.6Zm12.1,4.9-.5.3.9.7v-.7l.8-.6-1.4-.6Zm14.3-5.3-1.5.7,1.1.8Zm-1.4,2.6.4,1,.7-.6Zm-4,.3.1-.9-.8.5Zm5.2-6.1-.8.4.8.4Zm-2.7,1.7.8.2-.1-.9Zm-1.9,7.4.6-.4-.8-.5Zm1.8-1.7.3,1.4,1.1-.8Zm-3.9,2.1,1.1-.8-1.5-.6Zm4-2.5,1.1-.9-1.4-.5Zm-2.4-5-.1,1.1-1.2.1,1.1,1.1.2-.5.4-.2.1.7.6-.4-.7-.3,1.1-.8Zm4.8-.6-1.1-.3.4,1Zm-2.5,2.2-.5.3.9.7V214l.8-.7-1.5-.5ZM245.5,218l.6-.5-.8-.3Zm-38.9-5.4-.6-.6-.3.7Zm3.9,2.9L208,217l1.1.6v.3l.3-.2.7.5Zm3.4,6.2-.8.8.4.1-.7.1,1.3,1,.3-1.3-.4.1Zm5.1-1,.6.6.1-.3,1.1.6.1-1.7-1.8.8Zm-.1-5-1.1-.1.6.9Zm7.3.5.2.8.6-.5Zm2.8,1.5v-.2l-.2.1-.6-.2.1.5-1,.6,1.5.9.1-.9.7-.5Zm-4.9,0,.6-.5-.9-.3Zm-5.5.3-.3.5h.8Zm-9.9-3.6-1.5.5,1,.9Zm2.3,1.9,1.5,1.4.5-1.1v.8l.8-.4-.8-.4.4-1Zm19.1-2.2-1.5,2.3,2.4.2Zm-15.7,3.5-1.6.3.7.6-1,.3v-.4l-1.5.4v-.9l-1,.4.9.8.1-.2,1.2.9.2-.9,1.5,1.4.8-2.2-.4.1Zm-10-4.6-1.7,1.1,1.5.8Zm24.4,1.6.2-1.9-1.7,1Zm-7.9.6-1.9.8,1.8.9Zm-14.4.3.1-1.4,1.1.5.2-2.2,1.5-.7-1.8-.8v1.3l-2.1,1.3.8.4-1.6.6Z" fill="#2d71aa"/>
      <path id="Path_14475" data-name="Path 14475" d="M233.8,216.1l1.7-1.1-1.6-.8Zm19.8-7.3-1-.5-.1,1.2ZM219,216.5l-.1,1.3,1.2-.7Zm-21.7-6.3,1.5.8.2-1.5h.3l-.3-.3v0l-2.6-2.7.1,3.4,1.6-.3Zm67.6-3.8h-4l1.2,2Zm-36.6,10.5-1.4-.6.4,1.5Zm-.4-9.2,1.4.3-.3-1.4Zm21.8-1.4h-3.5l1.9,1.7Zm-7.3,2.5-.8.4.7.4Zm12.9-.9v.3l1.5-.5-.7-.4.4-.3-.2.4.9-.1-.4-.5.6-.4h-2.7l.2,1.8Zm-35.8-.4-.6,1.2h1.6Zm38.1,2,.1-.8,1,.9.5-1.1-1.6.1.1.1-.8.4Zm-15.7-1.1,1.8,1,.3-1.7h.6l-.5-.5H244l.7-.9-3.1.1,1.4,1.4Zm-.4,3.9.3,1,.8-.6-.2-.1.3-.1v.1l.1-.2,1-.6-1.6-.8-.1.7H242l.1.1v.7Zm-4.1-2.7-.8.4.7.4Zm13.8,3-.8-.3.2.8Zm-21.5-.3-.7-.3.1.8Zm-22.5-3.5-1.7,1,1.5.9Zm16.5,2.2-1.9.7,1.8.9Zm22.7-2.2.2.1-1.1.5,1.4.9.1-1.1.8.5-.1.8-.4-.2-.2,1.4-.6-.2.1.3-.2-.1.1,1.6,1.5-.7-.2,2,3.1-.9-2.8-1.7v.4l-.8-.3,1.2-.7.8.8.6-1.1h-1.1l-.9-.5.6-.4,1.2.8.1-1,.2.1v-.5l1,1,.5-1.2-1.4.1v-.3l-.2.2.1-1.1,2.1,1.4.2-2,1.9,1.3.3-2.6-2.6.7.5-.8-2.7.1.8,1.3-.4.1v-.1l-3.4,1,.1-.1-1.1-.6-.1,1.3Z" fill="#2d71aa"/>
      <path id="Path_14476" data-name="Path 14476" d="M246.6,207.5l-1.6-.8-.2,1.9.9-.6Zm-44.3,0,1.5.9v-.1l1,.9.5-.8,1.2.7v-.6l.1.3,1.4-.8.7.9-.4.3.8.4-1.6.7,1.8.9.1-1.4,1.1.6.3-2.7-.5.3,1.6-1.7-5.1.1.6.8-1.1-.4.1.6-.9.5.8-1.5h-4.6l1,.8Zm-2.7,1.2-.7,2.2,2.5-.3.1.1-.1.1h-.2v-.1l-.1.1h-.5l.1.2-1.3.7,1.6.8.1-1,.7,1.2.2-.3,1.6.8.1-.6v.2l.1-.1v.1l.1-.1,1.8-1.1-2.3-.7.1.5-1.5.8,1.4-1.8h-.1l.6-.4.5-.1-.2-.1.4-.2.2.9,1-.6-1.1-.3-1.6-.8v.2l-.7-.7.4-.2-1.6-.8-.2,1.8-.5.3-.9-.7Zm3.4,1.7h.1v.2h-.3l.4-.2Zm-1.2-1.5.5-.3-.6,2-.1-.1.2-1.6Zm-.2,1.7Zm18.1-1.7-.8,1.8,1.8-.2Z" fill="#2d71aa"/>
      <path id="Path_14477" data-name="Path 14477" d="M210.9,208.1l.8,2.7-.6.4.3-1-1.5.5.8.7-1.4.8,1,.5-2.1-.4,1,3.3,1.3-1,.6.4.5.5.1-.8.4.3v.4l1.1-.5.7.6.2-.6.2.2V215l1.6.9.2-1.7.2.2-.2.5,1.7-.2-.7-1.2v-.1H217l-.1-.2-.1.3-.5.1v-.2l1.3-.4-1.7-1,.2-.5-.7.2-.6-.4-.1.6-1,.3.8.7-.1.6-1.9.6-.1-.1.1-.2-.4.1H212l-1,.2.7-.6v.2l.6-.5-.8-.4v.2h-.2l.2-2.1.1.5,1.8-1.5,1.3,1,.2-.9,1.5,1.3.2-.6,1.9,1.1.3-2.7-1.2.7,1.6-3.1,1.5,1.7.7-.8-.6,1.4h-1.1l1.2,2.3h-.7l.6.8.4-.8H221l1.8-2.1.4.1-.4,1.5.8-.1-.2.2,1.2.3v.3h-.1l.1,1.6.4-.2.1.2-.9.1-.2-.2v.2h-.2l.1.2v.7l-1.7-1,.1-.1-1-.5-.1,1.2.7-.4-.2,1.3-1.3-1.2.1-.8-.7.3.1-.9-2.5,1.5,2.2,1.2.1-1.2.4.3-.4,1.5,1.8-.2v.5h.1v.4h-.1l.1,1.4H221l1.3,1.3.2,1.7,1.9-1,1.3-.5-1.6-1.2-.1,1.7-1.5-.6.6-1.5h-.9l1.3-.6-.7-.3.6-.3,1.5.8.1-1.7-1.7.6-1.2-.4h.1v.1l1.6-.5v.2l1.1-.5.2.2.1-.3.2-.1-.1-.1.1-.2.5.9.6-.9-.1,1.8,1.6-.7-1.5-1.2.7-1.1-1.9.1.8-.4-.7-.3.6-.3,1.5.8.1-1.7-1.7.6-1.2-.4,1.7-.5v.2l1.6-.7-1.6-1.2v1.1l-1.8-1.2.8-1.2-1.5.1.4-.7-2.2-.1,1.3,1.8.5-.9.6,1-.2,1.6-.1-.1-.1-.3-.1.1-.8-.7-.2-1.2-1,1h-.1l-.8-1.7,1-1.2h-7.7l-3.2.1,1.6,2.2-1.9-.8Zm3.6,5.9.1-.2,1.6-.5-.5.3-1.2.7V214Zm-3.9.5.4-.3.1.1Zm.6-.2.2.1-.2.1v-.2Zm6-4.4.1.2-.2.2.1-.4Zm-3.2-1.2,1-1.9,1.8,2.6-1.6.5.1-.3-1.4.3,1.2-.9-1.1-.3Zm17-.4.3.4-.7.4-.2-.2-.2.4-.2.1.1.1-.1.2-.3-.2-.1,2,1.6-.7-1.1-.9h.5l.8.4.1-1.2.9,1.1-1.3,1.9,2,.2h-1.2l.7.8-.9.3h-.1l.2-.1-2.1-1.3-.2,2,1.5-.4v.1l.1.7-.1-.1-.4,1.7,2.1-.5-1.6-1.2.5-.3,1.1.6.1-1.3.5.6.8-1.7h-.5l-.2-.4,2.1-.5-1.7-1.3-.4,1.7-.4-1,.7-1.3,1.8,1,.1-1.3.5.6.8-1.7h-1.2l1-1.6,1.2,2.2-.2,1.6,2-.6-.3,1.7,2.7-.6-1.3-.9.1-.5.2-.1-.1-.1.3-2.7-1.1.3.2-.4H237v-.1l-3.8.6.3-.6h-4l1.8,2-.3.1Zm4.5.5.1.1-.2.1.1-.2Zm-1.1,0,.4.4-.8.3.4-.7Zm-1.3-1.5.5.6-.8.2Z" fill="#2d71aa"/>
      <path id="Path_14478" data-name="Path 14478" d="M228.2,208.4l1,2,1.5-2.2Zm-27.3-1.9-4.4-.1,2.7,2.2Zm28.1-.1-3.6-.1,1.7,2.1ZM204.7,233l1.3.2-.4-1.3Zm-.5-7.5.1,1,1-.6Zm8.7,5.6.2-1-1,.3Zm5.9,5.2,1.3.1-.4-1.2Zm-.5-7.5v.9l1.1-.5Zm8.7,5.6.1-1-.9.3Zm.7-2.1,1.5.2-.4-1.4Zm-.6-7.8,1.3-.7-1.4-.5Zm10.4,5.6.2-1.3-1.2.4Z" fill="#2d71aa"/>
    </g>
    <g id="Group_1077" data-name="Group 1077">
      <path id="Path_14479" data-name="Path 14479" d="M182.3,373.4l.8-.8-1-.4Zm-3.7,3.7,1.7.2-.9-1.4Zm-4.6,6.3,1.7.2-.8-1.4Zm-2.2,2.6-.8,1.2,1.7.1Zm3-29.7,1.3-.4-1.6-1.6-.2,1.7-1.1-.8-.4,1.6,2-.4Zm-1.5,3.7,1-.2.6.7.2-.9h.2l-.1-.1.2-.9.6,2.4,1.8-2.5-2.3-.4.2-.5-2,.3-.9-.9-.2,2.2.9-.3Zm7.5-5.7-1.1,1.4,2.1.3ZM177,364.8l-1.1-1.7-.9,1.4Zm-4.1.4.7,1.6,1.3-1.6ZM176,375h-.1l.1-.4-.8.2.2.2-1.5-.1.6,1.6,1.1-1.1.2.2.1-.5Zm-.8-13.5.6,1.6,1.4-1.6Zm.6,5.5-1,1.4,2.1.3Zm-4.9,13.4L170,379l-.8,1.2Zm9.4-32.8,1,1.8.8-1.7Zm3.8-10.7h-1.9l1.1,1.8ZM182.5,359l.7-1.8h-1.8Z" fill="#b0e0f7"/>
      <path id="Path_14480" data-name="Path 14480" d="M179.9,360.8l1.1,1.8.7-1.8Zm-3.3-23.9,1.3,1.6v-.1l.1.1.2-1.1h-.1l.3-.8Zm3.5-10.8.4-1.6-1.5.2.2.2-.8-.4-.1,2.4,1.5-1.1Zm5.4,3.2h-1.4l.8,1.5Zm-5.5-2.7-1.4.1.8,1.5Zm-7.9,47.8.8,1.5.7-1.5Zm4.7-4.9-1,1.4,2.1.3Zm10.4,7.9.3-.9-.9.3Zm-12.3-8.1-.5.7-.2.1v.1l-.2.2h.5l.3.4.1-.4.5.1Zm-1.4,3.2.3-1.2-1,.2Zm.5,4.6-.1.9,1.2-.4Zm5.8-19.9,1-.9-1.2-.5Zm-.4-13.4.2,1.3,1-.8Zm-1.1,15.5,1-.9-1.2-.4Zm-3.2,2.2-.7-1-.2.3-1.8-1.3-.5,2.9,2-1Zm8.3,2.2.7.8.4-1Zm-5.6-11.6v-1.2l-1.2.6Zm-3-5.1-.5,2,2-.8Zm1.3,7.7,1.4,1.2-.9.2.7.8.4-.9v-.1l.1-.1h-.1l.2-1.8Zm2.8-3.7.2-2-1.8.7ZM177,367.8l.2-2.1-1.8.7Zm-3.7,10,.3-2.1-1.8.6Zm13.1-37.3,1.3-.2-1-.7Zm-4.6.9-1,.5,1.1.5Zm-4.5-7,1-.3,1.2,1.8.6-2.8,1.1.5-.1-1.2-1.1.6-2.1.5.3.5-.7-.6,1.6-.7-.5-.4v-.9l2.4.3-.7-2.5-2,1.9-.7-.1.9,1.2-.9-.7-.4,2,.2-.1Z" fill="#b0e0f7"/>
      <path id="Path_14481" data-name="Path 14481" d="M178.1,329.9l.6-.6-.8-.3,1.5-.7-1.2-.9-.3,1.6.1.8-.2-.1-.2,1.3,1.1-.6Zm6.4,35.9.2.7.5-.3Zm-5.5-2.1-.5.5.8.1Zm-6,14.5-.8.3.5.6Zm4-1.8-.7-.4.1.7Zm21.6-21.8.7-.2-.5-.5Zm-4.4,4.5-.6.4.8.3Zm-10.1-7.2-1.4-.6.4,1.3Zm-3.5-7.2-.8.9H181Zm-4.7,9,.3-1.1-1,.2Zm8.4-30-.2,1.1,1-.2Zm-3.1,0,1-.3-.8-.9Zm-.4,29.1-1.9-.7.6,1.8Zm6.5-13.9.8-.6-1.1-.4Zm-2.2,2.9.3,1.1.2-.2.3.8.7-.6-.8-.3.4-.3Zm1.5-16,.2-.2-.4-.2-.2-.4-.1.2-.9,1.5-.6-.4v1.2l1-.5-.4-.3,1.9-.2Zm-2.8-5.4-1,1.8,1.9-.3Zm-1.8,8.2-.7-1.5-1.2,1.5Zm-7.6,45.2.9-.9-1.2-.1Zm5.2-8.7-.3,1,1-.1Zm-2.1,2.5.9,1.1.6-1ZM174,380.2l.8-.8-1.1-.1Zm5.5-8.9-.3,1.1,1-.1Zm-7.3,9.8,1.2-1.5-1.6-.4Zm-2.7-4.9-.7,3,2.7-1.2-.8-.7,1.4-.3-1.2-.9.6-.2-1.2-.9,1.7-.7-.6-.6.3-.7.9.5-.2-1.4-.1.1-.2-1-.8.5.9.6-.3.2h-1.4l.5.9-1-.9-.7,3,.8-.4-.3,1.2.6-.1-.2.7Zm2.6-5.9,1.1.1-.5-.9.6-1.3-1.8.1.6,1-.4.6-1.2-1-.7,2.9,2.7-1.2Zm-2.4,17.8.8,1.5.6-1.6Zm1.1,3.4.4-2.1-1.8.6Zm3.2-1.1.5-.3-.6-.4Zm2.7-4.3,1-.1-.6-1Zm-4.2-19.5-.1-.8-.5.3-.6-.5-.6,3,2.7-1.3Zm1.2-2.6h.6l-.7-.9-.3.5-.5-.4,1-.3-.8-.7-.3,1-.8-.6-.5,3,2.6-1.4Z" fill="#b0e0f7"/>
      <path id="Path_14482" data-name="Path 14482" d="M176.8,348.8l1,.4V348l-1.3.7h.2l-2.5.4,1.8,2.4Zm-1.1-3.8-.1-.2-.1.2-.5.1.4.6-.1.8.6-.2.1.2-.2.4.6.1.4.5.1-.4,1,.1-.7-1.1V346l.3.4.3-1.1.7-.2-.5-.5.3-1.1-1.5.3-.7-.8.8-.2.2.2.1-.3.8-.2-.5-.3v-.1l1.1-.4-1.4-1.4,1.2-.7-2.3-1.5-.4,3.1,1.3-.7-.1.8-.8-.1.2.4-.3,1.3-.4-.5-.5,2.4.9-.3.3.3Zm.1,8.7-1.9-1.5,1.7-.7-1.5-1.2-.5,2,.1-.1-.6,2.8Zm-7.4,26.4-.6,3,2.7-1.3Zm-.4,20.6h1.7l-.9-1.3Zm2.7-8,.7,1.5,1-1.1.3-.4Zm-4.5,5.3,1.7.1-1-1.3Zm2.7-5.8.8,1.4.4-1,.2.1.2-.8-.4.2Zm1.9,3.5,1.1-.4-1-.5Zm-.6-.2.2-2-1.8.6Zm-1.2.8.7.5.2-.9Zm4.3-2,.5-.3-.6-.3Zm-2.4,3.6.8-.8-1.1-.1Zm5-7.9,1-.1-.7-1Zm-6.7,8.8,1.1-1.5-1.6-.3Zm-2.9-4.7-.6,2.9,2.7-1.3-.9-.6,1.5-.3-1.2-.9.5-.2-1.2-.8,1.7-.9-.2-.1.5-.2-.8-.7.4-.1.6.3-.1-.4.5-.1-.6-.4v-.4l-.2.1-.4-.2.5-.2-1.1-.9,1.7-.7-.6-.6.3-.7.9.5-.2-1.4-.5.4h-1.4l.4.8-.9-.8-.7,3,.8-.4-.3,1.2.6-.1-.2.7-.7-.7-.2.6-.2-.1-.6,2.9.8-.3-.3,1.2.6-.2-.1.7Zm-1.5,6.4,2.7-1.4-2.1-1.6Zm4.8-17.6-1.8,1.9,2.9.8Zm3.6-.6-.6.5-.8-1.2-.8,1.3,1.4.1-1.1,1.1,2.9.9Zm5.8-39.6,1.8-2.4-2.7-.5Zm2,26.1.2-.7-.8.3.4.3-.6.8h1.2Zm-.6,6.5v.8l.9-.4Zm-.5-39.6,1.3.5-.1-1.2Zm-3-1.3-.5,2.1,2-.7Zm5.7-1.3-.6.3v-.1l-.8.1.2.2-.5.3,1.6,1.3Zm3.3,2.8-1.3-.5.4,1.3Zm-3.3-6-.5-.9-.7,1Zm-3.5-8.5-.3,3.1,2.5-1.7Zm2.1,52.9h1.2l-.5-1Zm.2,6.6.9-.4-.9-.5Zm-3-9.9-.9.9,1.4.4Zm3.3,7.6.6-1-1.1.1Zm3.4-8.7.9-.3-.8-.9Zm3.4-4.7.8.6v-.9Zm1.1,5.4.7-.5-.8-.1Zm4.3-4.9h.7l-.3-.7Zm-7.5,8.8-.2,1,.9-.5Zm5.3-64.2.3-.1-.7-.5-.1-.1-.8,1.2,1.7.1Zm-7.3,6.5-1.1,1.2,2.9.8-1.2-2.7-.5.6-.8-1.2-.8,1.3Zm2.3-.8-.8,1.2,1.7.2Zm-1.1-25.8,1.3-.5-1.6-1.5-.1,1.7-1.1-.8-.3,1.7,1.9-.6Zm-1.3,3.7,1-.3.6.7.2-.8.2-.1-.2-.1.2-.9.7,2.4,1.8-2.5-2.3-.4.1-.5-1.9.4-.9-.9-.3,2.2,1-.3Zm6.3-4.5,2.1.3-1.1-1.7Zm-4.3,9.2,2.1.2-1.2-1.6Zm-1.3,2,1.4-1.6-2,.1Zm1.9-3.7,1.3-1.6-2,.1Zm.4,3.9-.9,1.4,2,.3Zm-6.2,13.3,1.7.1-.9-1.3Zm10.9-31,.8-1.7-1.8-.1Zm2.4-12.5h-1.8l1.1,1.8Zm-1.8,20.5,1.1,1.7.7-1.8Zm.4,3.6-1.8.1,1.1,1.7Zm-6.4-23.8,1.4,1.5.1-.1v.1l.2-1.1.1-.8Zm3.4-11.2.4-1.6-1.4.2.1.2-.8-.4-.1,2.5,1.5-1.2Zm5.4,3.2-1.5.2.9,1.4Zm-5.4-2.6-1.5.1.9,1.4Zm-5.4,49.4.6-1.5-1.4.1Zm3.8-6.4-1,1.4,2.1.3Zm10.9,6.7-.9.3.6.6Zm-12.8-6.9-.5.7h-.2v.1l-.2.4h.5l.3.3.1-.4h.5Zm-1.4,3.2.3-1.1-1,.2Zm.6,5.5,1.1-.4-1-.6Zm4.8-22.3.2,1.4,1-.9Zm-.3-10.6,1-.9-1.2-.4Z" fill="#b0e0f7"/>
      <path id="Path_14483" data-name="Path 14483" d="M189.3,293.1l.9-.9-1.1-.5Zm-3.2,2.3-.7-1-.2.3-1.8-1.3-.5,3,2-1.1Zm9.8,1.6-1.1.3.8.7Zm-7.3-11.1v-1.2l-1.3.6Zm-3.1-5.1-.5,2,1.9-.8Zm1.5,7.7,1.4,1.2-.9.2.7.8.3-.9.1.1v-.3l.2-1.8Zm2.6-3.7.2-2.1-1.8.8Zm-.9,14.7-1.8.6,1.6,1.4Zm-3.6,12.1.2-2-1.8.6Zm12.2-38.7-.2.9,1.2-.3Zm-5,2.2-1,.5,1.1.5Zm-4.9-6.8.9-.3,1.2,1.8.6-2.8,1.1.4-.1-1.2-1.1.7-2.1.5.3.5-.7-.6,1.2-.7-.4-.4-.1-.8,2.5.2-.8-2.5-2,2-.6-.1.9,1.2-.9-.7-.4,2,.5-.2Zm0-4.6-.2,1.3,1.1-.7Zm8.6,35.7.2.6.5-.3Zm-5.6-2-.5.5.8.1Zm-5.6,14.7-.8.3.6.5Zm3.3-2.3.1.7.5-.4Zm21.8-22.7-.1.7.7-.3Zm-9.4,2.9.7.3-.2-.7Zm-7-5.1.3,1.1-.1.3h1l-.4-.4.6-.4Zm-3-5.6h1l.1.1v-.1h.1l.4-.5-.7-.1.1.2-.3-.5Zm-3.8,8.2.3-1-1,.1Zm7.3-29.2,1-.3-.8-.8Zm-2-1.4-.8-.8-.1,1.1Zm-4.3,6.8.7-.7-.8-.3,1.5-.7-1.2-.9-.3,1.6Zm2.6,23.9,1.3-1.1-2-.7Zm6-11.4.3.6.7-.6-.7-.2.1-.1-1.1-.5.4,1.1Zm-.2-17.7-1,1.7-.5-.4V261l.9-.5-.3-.3,1.8-.3Zm-6.6-7.1-.1,2,1.6-1.2Zm3.1,4.3,1.9-.4-1-1.4Zm-.6,6.5-.8-1.6-1.1,1.7Zm-5.9,45.4.8-.9h-1.1Zm5-8.8-.3,1,1-.1Zm-5.3,15.3.8-.9-1.1-.1Zm5.4-9.1-.4,1.1,1-.1Zm-7.1,9.9,1.1-1.5-1.6-.3Zm-2.9-4.7-.6,2.9,2.7-1.3-.8-.6,1.4-.3-1.2-.9.5-.2-1.2-.9,1.7-.8-.6-.5.3-.7.9.4L184,306l-.2.2-.2-.8-.9.5.8.4-1.4.1.5.8-.9-.7-.7,2.9.8-.4-.3,1.3.7-.2-.2.7Zm2.5-6.1,1.1.1-.5-.8.5-1.4-1.8.1.7,1.1-.4.6-1.2-1-.7,2.9,2.7-1.3Z" fill="#b0e0f7"/>
      <path id="Path_14484" data-name="Path 14484" d="M184.9,301.1l-.8-.6-.2-.7-.4.3-.5-.4,2.4-1.3-.7-.5,1.1.1-.7-.9-.7-.6-.3,1-.8-.6-.5,3-.5,2.8,2.6-1.6Zm.1-4.1-.4.7-.5-.4.9-.3Zm2.5-14.5,1,.5v-1.2l-1.3.6.2.1-2.5.5,1.9,2.4Zm-.9,5-1.9-1.5,1.7-.6-1.5-1.3-.5,2h.1l-.5,2.8Zm-6.3,26.6-.6,3,2.7-1.4Zm.4,5.6-.7.4.9.4v-.7l1.8.5-1.2-2.7-.7.8-1.1-.6-.1,2,.3-.2Zm8.8-43.2,1.7-2.4-2.6-.5Zm3.1,26,.2-.8-.9.4.4.3-.6.8h1.2Zm-.5,6.4v.9l.9-.4Zm-.8-38.9-.1-1.2-1.2.7Zm-4.4-1.7-.4,2.2,1.9-.8Zm4-.6,1.6,1.3.1-2.1-.6.3v-.1l-.8.1.2.3Zm5.1,1.9-1.4-.4.5,1.2Zm-4.7-5.8,1.2-.1-.5-.9Zm-4.4,14.9-.6.1-.1-.1-.1.1-.5.1.4.6-.1.9.6-.2.2.2-.3.3.6.1.5.5.1-.4.9.1-.7-1.1v-.1l.4.4.2-1.2.7-.2-.5-.4.2-1.1-1.9.5-1.2-1.5-.5,2.5,1.4-.6Zm2-23.7-.3,3.1,2.6-1.7Zm-1.5,20.1h-.8l.2.3-.2,1.5.9-.3.1.2.2-.3.7-.2-.5-.3.1-.1,1-.4-1.4-1.4.8-.6-2.2-1.4-.3,3.1,1.5-1Zm6.2,31.8-.7,1H194Zm-6.7,1.7.1.2h-1.3l.6,1.5,1.1-1.2.1.3.1-.5.1-.1h-.1l.1-.4Zm6.3,5v.9l.9-.5Zm-3.2-8.9-.8.9,1.3.4Zm4.1,6.5-1.1.2.5.8Zm2.6-8.9-.1,1.1,1-.3Zm-2.8-8.1-.7.4.8.6Zm1.2,5.2-.8-.1.1.6Zm3.5-4.5h.7l-.3-.7Zm-1.5-19v-.7l-.7.4Zm-.9-19.2-.7.2.4.5Zm.7,6.9v.6l.6-.3Zm-.1,17.7.7-1-.7-.2-.5-.5-.2.8.5-.1Zm5.5,3.8.2-1.1-.9.5Zm-3.9-1.4-1.3-.4.2,1.2Zm5.8,1.4,1,.1-.4-1.1Zm-4.9-8.6.9.8.3-.9Zm.1-5-.8-.5-.1.6-1-.4.4,1,.6-.5v.1Zm3.5,2.3.6.4v-.9Zm-.8-6,.4-.6-.8-.1Zm-4.8-19.5-1.8-.1,1,1.8Zm1.1-9,.8-1.7h-1.8Zm-5.6-.1.1.1.2-1.2-.1.1.2-.8-1.8.3Zm2.1-12.4.4-1.6-.5.1.1-.3-1,.2.2.2h-.2l.1.2-.8-.4-.1,2.5,1.6-1.2Zm4.9,4.7.6-1.5-1.5.1Zm-4.9-4.1-1.5.1.8,1.4Zm-.1,18.4,1-.9-1.2-.5Zm-1.8,6.9v-1.1l-1.3.5Zm-3-5.1-.5,2,1.9-.8Zm4,4.1.3-2.1-1.8.7Zm5.5-9.8-.8-.9-.4.9Zm-2.5.2-1.1.5,1.1.4Z" fill="#b0e0f7"/>
      <path id="Path_14485" data-name="Path 14485" d="M192.1,235.2l1-.3,1.2,1.8.6-2.8,1.1.4-.1-1.2-1,.7-2.2.4.4.6-.8-.7,1.6-.7-.4-.3-.1-1,2.5.4-.8-2.5-2,1.9-.7-.1,1,1.2-1-.8-.4,2.1.2-.1Zm.8-4.6.6-.5-.7-.3,1.4-.8-1.1-.9-.4,1.7.1.7-.1-.1-.3,1.3,1.2-.6Zm6.3,21.9-1.3-.6.4,1.3Zm-4.2-6.3,1.1.1h.1v-.1l.4-.4-.6-.1v.2l-.2-.6Zm-3.6,7.1-.8.1v-.2l-.8.5.9.4-.1-.3.5.6Zm7.6-27.8,1-.2-.9-.9Zm-2.9-1.1.9-.2-.8-.9Zm-.4-4-.9.5.6.2-1.2.9,3,.6-.6-2.6-.9.8Zm6.1,23.1-1.1-.4.3,1Zm1.4-4.5-1.1-.5.3,1.1Zm-4.3,5.4.3,1.1.8-.6Zm2.1-18.6-1,1.7-.6-.4.1,1.1.9-.4-.3-.3,1.8-.3Zm-6.8-6.8-.3,1.9,1.7-.9Zm3.4,3.9,1.9-.3-.9-1.4Zm-.7,6.4-.8-1.5-1.2,1.6Zm-5,20.1,1.1.5-.1-1.2-1.2.6.1.1-2.5.4,1.9,2.4Z" fill="#b0e0f7"/>
      <path id="Path_14486" data-name="Path 14486" d="M190.9,245.6l-.2-.1v.1l-.6.1.5.6-.2.9.7-.2.1.2-.2.3.5.1.4.5.2-.4.9.2-.7-1.2v-.1l.4.5.3-1.2.6-.2-.4-.5.2-1-1.5.3-.6-.8.8-.3.1.3.2-.4.7-.2-.4-.3v-.1l1-.3-1.4-1.4,1.2-.7-2.2-1.5-.4,3.1,1.3-.8-.1.8h-.8l.2.4-.3,1.3-.4-.6-.6,2.5,1-.4.3.4Zm3.2-2.2,1.8-2.4-2.6-.5ZM196,237v-1.2l-1.2.6Zm-4-1.9-.5,2.2,2-.7Zm3.7-.5,1.6,1.3.1-2.1-.6.3.1-.1-.9.1.3.3Zm3.7,1.6.4,1.3.9-.8Zm-2-5.5-.5-.9-.7.9Zm-3.8-8.7-.3,3.1,2.6-1.7Zm7,25.5.8-.2-.6-.7Zm1.2-5.2-.8.3.7.3Zm-.7-18.3-.7.2.5.5Zm-6.2-9.2-.4,1.6,1.5-.7Zm0,2.7.6-.5-.8-.4.1.8-.2-.1-.2,1.3,1.1-.6Zm3.2-2.8-1.2,1.6h1.9Zm4.5,9-1.4-.5.5,1.2Zm-3.3-6.1-.4-.9-.7.9Zm2.4,13.3v.7l.6-.4Zm-1.1,3.6,1-.2-.8-.6Zm4.4,2.2.6.3v-.8Zm-.2-6.6-.8-.2.3.7Zm-14.9,83.6-.7.3.6.3Zm-1.4-17.3.2-.7-.7.1Zm1,6.6.7-.4-.3-.1.4-.8-1.4-.1.6.7Zm.1,16.7.7-.9-.7-.2-.5-.6-.3.9.5-.1Zm-2.1,5.1-.7-.8-.4.8Zm7.6-1.3.2-1-.9.4Zm-4-1.1-1.4-.3.2,1.1Zm6.3.4-.6,1,1.1.1Zm-5.4-7.5.8.7.3-.9Zm3.5-2.8.7.3-.1-.8Zm-.8-6,.5-.5-.8-.3.1.4-.7-.3.2,1.2.6-.7Zm-1.8,26.8.1.6.6-.5Zm4.3-3.9.7.1-.3-.7Zm-3.8,10.4-.1.7.7-.2Zm-3.5,6.5-.1-.6-.6.4Zm2.2-18.4-.5,1.1h.8l.6.5v-.9l-.4.2Zm2.2-5.5-1,.2.8.6Zm-3.2,2.2-.9,1,1.4.1Zm-7.2,1.7.4-1.1-1.1.1Zm5.6,6.8,1.1-.3-1-.7Zm2.8,5v-.8l-.8.4Zm-4.7-2-.7-.2.2.8Zm1.9,5.8-.3.6h.8Zm8.6-33.9-.2,1,.9-.5Z" fill="#b0e0f7"/>
    </g>
    <path id="Path_14487" data-name="Path 14487" d="M228.205,332.09l30.558-105.88,1.345.388L229.55,332.478Z" fill="#376699"/>
    <path id="Path_14488" data-name="Path 14488" d="M234.25,393.548l39.06-1.716.06,1.4-39.06,1.716Z" fill="#aad2f9"/>
    <path id="Path_14489" data-name="Path 14489" d="M270.6,405.9a2.6,2.6,0,0,0,2.4-2.5l.8-65.5c-.2-6.8,1-47.5-.7-69.9,0,0-15.7,15.3-19.8,28.8s-13.5,110.5-13.5,110.5l30.8-1.4Z" fill="url(#linear-gradient-5)"/>
    <g id="Group_1078" data-name="Group 1078">
      <path id="Path_14490" data-name="Path 14490" d="M260.5,391.4l.5,1,.5-1.1Zm1.6,5.3,1.7.2-.5-1.4Zm4.3,6-1.2,1.2,1.7.2Zm4.9-3.9-.7.4L273,401v-3.1l-1.2.6v-.7l.6.2v-1.4l-1.5.7.5.2-1.4.7Zm-5.9-24.3-1.3,1.5h2.1Zm4.5,11-.6-1.5.8-1.3-2-.4,1.1,1.8-1.4,1.3Zm-.3.8,1,1.8.9-1.4Zm-2.1,9.2.2-.2-.8-.3v1l.2-.2.8,1.4.9-1.4Zm-.1-6.5,2.1.1-.7-1.5Zm4.2,11.6-1.2,1.2,1.1.1-.8.4,2.2,1.4.1-2.6-1,.5Zm-6.3-32.9.5,1.9L267,368Zm.7-7,1.3-1.6-1.8-.3ZM262.3,377l.4,1.8,1.4-1.5Zm3.8,3.8-1.7-.3.3,1.9Zm7.5-30.3-1.3.6,1.2,1.1Zm-8.8,1.8,1.1-1.3-1.5-.3Z" fill="#3d7099"/>
      <path id="Path_14491" data-name="Path 14491" d="M272.4,349.4l-1.4-.2.5,1.6Zm.5,44.8-1.4-.4-.1-.1.7-.3-.7-.6-.3.7-.1-.1-.5,1.2,1-.3.1.6-.8.4,2.3,1.9v-3.1l-.3.2Zm-3.2,2.7,1.1-1.3-1.4-.3Zm2.3-6.4.5-.5-1.7-.5.3,1.7-.4.3,1,.1-.8.4,2.3,1.9v-3.1l-.9.5Zm-4.7-.7-1.5,1.5,2.1.1Zm-11.7,5.9.7-.5-.8-.5Zm14.2-3.4.1,1.1.9-.8Zm-1.5,5.5-1.1.3,1,.7Zm-2.4-20.3.3-1.3-1.2.3Zm2.7-12.7-.2-.3-.3.4h-.3l.2.2-.2.2.4.1.4.6.2-.5h.2l-.2-.2.3-.6Zm-1.3,13.7-1.2.3.8,1.1Zm4.1,6-.9.8,1,.1-.4.2,2.3,1.8-.8.4-.5-.4-.4.8-.6.4,2.3,1.9v-3.1l.1-3-1.8.9Zm-10.3-2,.2,1,.8-.5Zm7.3-9.6,1.3-.4-1.2-.7Zm.5-2.8,1.3-.4-1.1-.8Zm2.8-16.4-1.7-2.2-1.1,2.5,2.5-.1-.2,1,1.2-1.2Zm.2,15.3,1.7,1.2v-2Zm-3.5,5.7-.2,2.1.2-.1.1.8.9-.7-.8-.3,1.4-.8Zm-.9-3,1.8-1.1-1.7-1Zm.1,16.6,1.8-1.1-1.6-1Zm1.4,8.3-.1,2.1,1.7-1.1Zm-9.7-35.7-.9.8,1.2.2Zm5.3-12.4.9.6.2-1.2-.7.3-.7-1.8-1.1,1.3,1.8.5Zm2.6,13.4-.3,1,1.2-.3Zm5.1-9.6-1,.6,1.1.7Zm-8.9,35.4v.3l-.6.8,1.2.3-.3-.7.4-.2Zm-2.8-2.9-.7.2.5.4Zm6.2-.3-.3-.7-.4.6Zm2.9,15.2-.7-.5v.9Zm-3.7-2.8.3-.7-.7.2Zm-17.9-25.4.6.4v-.8Zm3.8,6.3.8-.2-.5-.5Zm12.9-7.4-1.4.3.8.9Zm6.1,2.9v1.1l.9-.7Zm-4.6-28-.9.8.9.3Zm3.6.7-.1-1.1-.8.7Zm.7-3.1.9-.3-.7-.5Zm2.6,9.3-.8.2.6.7Zm-10.3,10.9.3-.5.1.2.5-1.1-1.1.3.2.3-.6.1Zm2.5,10,1,1.3,1-1.7ZM262,359l-1.2.3.7.7Zm10.1-19.9,1.4,1.2-1.4.5,1.5,1.3.1-1.9h-.1l.1-1.9Zm-4.8,3-1.2,1.3,1.9.6Zm5.2-15.4-.9,1.5,2,.2Zm1.3-5-1.5-.6.1,1.4Zm-4,17.2-.4,1.9,1.8-.9Zm4-14.9-1.9.6,1.7,1.1ZM270,341.7l-1.1,1.3,1.9.5Z" fill="#3d7099"/>
      <path id="Path_14492" data-name="Path 14492" d="M269.3,349.3l-1,1.4,1.9.3Zm-.9,45.5.6-.9-1.2-.2Zm-3.2-9.7-.8.7.9.4Zm1.7,3-1.4-.2.3,1Zm5.7-3.3-.1-1.1-.9.5Zm-5,16.2.5-.9-1.1-.2Zm-4.2-9.2.9.3-.1-1.1Zm9.8-57.5.6.6.2-1ZM269,381.7l1.4-2.6h-2.7Zm1,18.7h-1.6l.8,1.8Zm1.3-28.1,2.3-1.9-2.4-1.1Zm-1.4,31.3-.3-.7-1,1-.5-.7-1.6,2.5,2.1-.2-.1.2,3-.3-1.5-2.2-.1.4Zm-1.2.5.8.1-.4.6Zm-.2-43.8,1.3,2.8,1.4-2.8Zm4.3-24.4-2.6-.4.8,2.9Zm.9-3,.1-2.4-1.9.9Zm-.8-.3-2.1-.4.7,2.3Z" fill="#3d7099"/>
      <path id="Path_14493" data-name="Path 14493" d="M269.6,390.8l-.4-.7-.7.9.4.1v.4l.4-.3.5.1-.2-.3.1-.1Zm-7.1,3.9-1,.2.8.6Zm9-17.6h-.1l1.7.9-1.3.8-1.5-.7.1,3,.5-.3,1.2.6-.8.4-.1-.4-.9.9,1.2.1,1.8,1.4.1-3-.7.3V380l-1.7.7,1.4-1.2.8.5.2-2.2-.2.1.1-1.5-1.3.5.2-1.5,1.1.9.1-2.8v-2.1l-1.7.9,1.5,1.1-2.2,1,1.1.9-1.8,1.1Zm1.6-11.3-.2.1-.5-.2.4-.4.8.6v-2.5l-1.4,1.2-1.4-.6v1.5l-.3.2.4.2v1l-.7.7h1.2v.6l.6-.6h.3l-.1-.1.3-.3.6.3v-.8l.6-.5-.6-.3Zm-4.6-8.4-.2,1.2,1.4-.4Zm5.1-3.5-1.7.9,1.2.8-1.5-.6.1,2v.1l.1,1,.1-.2.1.2-.2.1.2.1.1.5.3-.3.9.7-2.1,1.1.9.7-1.7,1.1.3.2.3.8-.6.3.8.3.1.4.1-.2.8.3v-1.4l.3-.4h-.4l.1-1.3,1.4,1.1v-5.1l-.2.1-.8-.1.4-.4.5.3.1-.9V356h.1l.1-.1h-.1Zm-6.4,3.5,1.7-1.1-.5-.3.3-.2v-.1l1.1-.3-1.1-.8-.2,1.1-.6-.2v.2l-.6-.5Zm-2.7-1.2-1.4.3.8.9Zm3.4-6-.6.8,1.2.2Zm2.6,8.9v1.1l.9-.7Zm2.9-11.6-.6.2-1.3-.3.2.8-.1.1.1.1.2.7.2-.3,1.4,1v-5.3l.1.1v-2.5l-1.9,1,1.7,1.3-2.3,1.1Zm-12,44.9-.6.9,1.2.2Zm-1.1,7.5.2-.8-1,.2Zm5.1-9-.8,1.2,1.4-.1Zm-4.9,6.7.7-.7-1.1-.4Zm-1.4-9.3.2-1.1-1,.6Zm-3.2-4.5.9-.4-.6-.5Zm-1.3,4.7.3-.6h-.8Zm-3.9-5.8.7.1-.2-.8Zm6.1,10.9v-1l-.8.4Z" fill="#3d7099"/>
    </g>
    <g id="Group_1079" data-name="Group 1079">
      <path id="Path_14494" data-name="Path 14494" d="M248.9,306l1,.2-.2-1.1Zm-.4-4.5,1.5-.8-1.6-.7Zm-7.9-4.1h.2l-.2.5,1.7-.2-.5-.5.8-.1-.6-.6.4-.1-1.7-2.4-.9,3,1-.2Zm-1.2,22.3.3,1.7,1.7-1Zm.6-10.9v.2l-.9-.3.1.9.8-.4.1,1.3-1.2,1,1.8,1-.5-2,1.7-.8Zm-.2-2.4-1.3,1.1,1.8,1Zm3.1,0-1.9-.8.1,1.7Zm-1.6-12,1.4-.8-.4-.1.9-.3-1.1-1.4.2-.2-.5-.3-.4-.4-.8,2.9.6-.1Zm2.4-5.3.2-1,2,.2-.7-1.8-.2.2-.3-.3,1.8.2-.5-.6,1.3-1-.7-.3.3-1.7-1.8.6-.2-.4,1.3-.7-1.5-.7.1,1-.7-1.2-.8,2.8-.1-.1-.8,2.6h1.7l-1.8.6,1.4,1.6Zm2-4.5-.2-.3.4.5V286l-.8-1.3-.8,1.4-.9-1.2,2.3-.3Zm-.9,2.2-.9,1,.2-1ZM237.9,326l-1.7,1.1,1.6.8Zm-3.6,10.6.2-1.9-1.7,1Zm-6.4-.5.4,1.7,1.6-1.1Zm16-18.4-1.8,1.1,1.6.8Zm-.3-4.5-1.8,1,1.5.9Zm-4.2-13.1.8.5h-.3l.2.4h-.2l.5.9.7-.9H241l.3-.4h-.6l.1-.9.7-.1-1.7-2.4-.8,2.9.7-.2Zm3.4-.3.2-1.7-1.5.9Zm7.2-15.4-.3.9,1-.1Zm-10.8,19.4-.6.4,1.5.9.2-1.6.4-.2-.9-.4.8-.1-1.7-2.5-.9,2.9,1.2-.2Zm2.2-1.3.3-1.2-1.1.5Zm3.8-5.6-.4.9H246Zm-5,21.5-.8,1.1,1.3.2ZM233,329.9l1.2.2-.4-1.3Zm7-14.1-.8,1.2,1.2.1Zm6.9-2.7-1,.3.8.8ZM236,323l.6-1-1.4-.1Zm-2.2,1.4.8,1.1.6-1Zm-.7-4.5,2.4-.3-.8-1.2,1.9-.5-1-1.2h.7l-1.5-1.4-.5,1.6.9-.1-.6,1.5-.8-1.2-.9,2.7v-.1l-.6,2,1.9-.4Zm-1.3,2.9-.5,2,1.8-.4Zm6.5-4.4-.2.1.1-.9-1,.4.6.5-1.5.4,1.2,1.4Zm-1.3,5-2.1.5,1.3,1.5Zm4.9-14.2.8-2-2,.5Zm1.9-10.5.8-2-2,.5Zm1.8-9.9,1.2,1.5-.8-.4v.8l.8-.4h.1l.7-2Zm-5.6,47,1.1-.4-1-.6Zm-5.6-3.5-1.2-.1.7.9Zm31-111.5,1-.5-1-.8Zm-17.1,91.4h.7l-.3-.6Zm-5.9-.9.6-.4-.7-.3Zm1.8-15.5-.8.2.5.6Zm2.1,3.8-.5.6h.7Zm-1.2-10.1.2-.7-.6.1Zm1.8,2.6-.4.5h.7ZM240.3,325l1.5.2-.5-1.1Zm-5.1,4.7.9-.6-1.1-.5Zm.1-9,.3-1.1-1.1.5Zm-4.8,17.8.2-.9-.9.4Zm7.3-4.7-.1-.2-.7.8,1.1.1-.1-.3.6.1-.3-.9Zm-.3-11.3,2,.3-.5-1.5Zm-.4,14.3,1.2.1-.4-.8Zm1.2-29.3,1-1-1.5-.1Zm5.8-5.9-.8.6,1.1.5Zm.4,9-.2,1.1,1.1-.5Zm.2-3.5-1.3.5,1.4.6Zm1.8-2.4-.2,1.1,1-.5Zm1.9-21.2-.8,1.1,1.2.2Zm15.1-9.8-.6.9,1.2.2Zm-16.4,21.8-.7.9,1,.2Zm-4-2.5.5-.7.1.8,1.3-1-1.4-.6v.4h-1Zm4.7-5.6,1.1.5-.3-1.1.3.1-.1-.2h.1l-.2-.4-.4-1.4-1.2,1.1.9.5v.1h.3l.3.2Zm1.3,8.7-.2,1.1,1.1-.6Zm.8-35.3-.7,2.2,2.7-.3Zm-3.1,20.5-1.6-2,1.9.1-1.4-2.8,1.4-.2v1.1l1-.6-1-.5.9-.1-1.6-1.6,2.3-.2-.1-.1,1.4.7v-1.9l-1.7.8-1.5-1.4,2,.7-.1-1.6,1.8,1v-1.9l-1.8.8-.1-.7,1.1-.2-1.5-2.1,2.1-.4-1.5-2.1,2.3-.4-2.1-1.8-.5,2.3-1.4,5,1.5-.3-1.8,1.7v-.1l-.6,2-.1-.1-.6,1.8-1.1,3.1h.3l-.6,2.1Zm-2.3,14.2-.3-1.8-1.3,1.4Zm-6.6,8-.9,2.9,2.6-.4Z" fill="#296091"/>
      <path id="Path_14495" data-name="Path 14495" d="M236,312.1l-.4,1.3,2-.2-1.3-1.1,1.4-.3v.2l1.1-.5-1.1-.5v.5l-1.5-2.1.9-.2-.2,1,1-.2-.7-.8,1.6-.3-1.7-2.4-1,2.9h.1l-.9,2.8Zm1.1,4.1.2-.5,2.2.7-.4-2.9-1.7,1.7.5-1.9-1.9.8-.7-.7-.9,1.9,1.3-.3Zm-2.5,5.3-2.8,1.2,2.1,1.7Zm33.2-112.2-2.5-1.7.2,3.1ZM246,307.2l.1.7H246l.1.1.1.5.2-.2.1.3.2-.5.3-.2Zm-4.8-3.3.2.9.9-.7-.4-.3.1-.4-.4.2-.4-.2v.3l-.1.1Zm19.7-43-.1.1.3.2.1.2.1-.1.6.3v-1.4l-.2.2.3-.5-1.7.3Zm-9.5,23.5-.8.2.5.6Zm1.5,4.4h.8l-.3-.6Zm-5.8-1.4-.3-.8-1.1,1.2,1.3.1.1.1.1-.1h.2l-.1-.1.3-.2Zm5.4-9.2.2-.7-.7.1Zm1.4,3.1h.6l-.3-.5ZM249,280l.2.6.4-.3Zm13.5-25.6,1.1-.3-.9-.7Zm6.5,7.3.6-1h-1.1Zm-2.8,2.5-.5.6.9.2Zm-5.5,11.1-1.2.8,1.1.6Zm.8-5.9h.5v.7l.9-.4-.8-.7-.6-.5-.1.1-.2-.4-.5,1.2h.5v.1Zm-3.5,7.5.1-1.3-.3.2.1-.4-.8.2.3.4-.4.3Zm.9-8.2-.2,1,1.1-.2Zm6.3,8.3.6-1h-1.1Zm-12.4,16.5.1.5-.4.2.5.4v.1l.1.1.1-.3.6-.4Zm3.4-5.7-.4.8,1.1.1Zm-4.7-22.9-.4,2,2-1-.9-.6.4-2-2,.9Zm14.7-15.6.3-.7h-.9Zm-4.8-.9-.2-.7-.5.6Zm4.2-4.4.7-.4-.7-.3Zm-4.7,2.5-.5-1.6-1.1,1.4Zm1.9-3.1.1.7.7-.3Zm2.1-18.1.4-.6-.8-.1ZM261.4,243l-.3-.6-.5.6Zm4.5-15.7h1.4l-.5-1Zm-3.2.3,2.2.1-.8-1.7Zm-1.4,16.8-.5.7.8-.1Zm-.8,6.5-.2-.5.8-.4-.9-.4v.6l-.4-1-.9,1.7Zm-2.7-5-.6,1.8h.3l.3,1.1,1.3-1.1-.8-.2h.5Zm4.9-19,.8-.8-1.1-.1Zm6.1-15-.6.6.8.2Zm.3,10.1-.7.6.8.2Zm-.1-5.5,1-.6-1.2-.7Zm-.5-8.7L267,207l.3,1.7Zm1.4,3.4-.2-1.1-.8.5Zm-.9-4.1-.7.5.7.2Zm-2,4.3.9.6-.1-1.1Zm-10.6,34.5,1.6-1.2h-.1l.8-.6-.6,1.7,1.6-.2-1-1.5.7-.5-2-.5.3,1.6-1.7-.4.8-.4-.1-.1.5-.1-1-1.5-.3,1-.7-.5-.3,2-.3-.2L254,247l3-.5-.6-.6Zm-.4-1.7.3,1.6-1.3-1.1,1-.5Zm-2.5,3.9-.8,2.5,3-.3Zm1,5.7v-.1l1.2,1.2.3-2.2-1.2.5.9-2.1-2.7.2,1.2,2.2-1.4-1.6-1,2.5,3.1-.2Zm1.8-6.9-2.6.6,1.9,2.3Z" fill="#296091"/>
      <path id="Path_14496" data-name="Path 14496" d="M251,270v-.1l.9,2.5,1.7-2.5-2.3-.3,1.4-2.1-2.6-.3Zm1.5-12.6.2-.1.7-.4-.5-.1.5-1.6-1.9.4,1,1.3Zm6.8,3.5.7.7.1-1Zm0-2.3-.6,1.1,1.1-.1Zm-1.4-5.4-.9-.2.2.9Zm7.4,3.5-.1-1-.7.5Zm-5.9-1.4-.1,1.3,1.3-.5Zm-1.5,1.4.2-.4.1-.3h.5l-.4-1.2-.6.9-.7-.9-1,1.9,1.7-.3Zm1,1.5-.5.1,1.4-.8-1.6-1-.3,1.9-.2.1,1,.7Zm2.4-29.7.5-1.9.2.2.4-1.6,2.2.7-.4-2.3h2.5l-1.1-2.7-1.4,2.5-.1-.5-2.1,2.2.4.1-1.8.4,1,.9-1.1.3-.7-.6-.5,1.8,1.4-.3Zm-11.5,54.1.2-1.1-1.1.5Zm6.8-.1-.9-.1.3,1Zm1.4-27.7,2.1-.7-1.9-1.2Zm-7.2,6.4,1.7-1.4-1.8-.7,2.9-.6-.3-.3h1.3l-.9-1.6-1,1.2-1.4-1.2-.6,2.5Zm2.6,1.6-.4.6,1.1.1-.2-.7h.4l-.9-1.7-.1.1-.7-1.2-1.3,1.7h1.6l-.9,1.1Zm3.5-3.7-.9-1.7-1.3,1.7Z" fill="#296091"/>
      <path id="Path_14497" data-name="Path 14497" d="M257.7,260.5l-1.7.7,1.6,1.4Zm2.1,5.9-1.2.8,1.4.9Zm-2.1,3-.7.5.3-2h.1l-.1-.1v-.1l-.6-.7-.4.9h.6l-1.4.4,1.5,1.6-.6.4,1.5.9Zm-7.5,9.1-.5-1.1-1.4,1.5,1.7.2v1l1.3-1-1-.4-.1-.2,1.7-.1-1.2-1.2.8-.8h.5l-.2-.3.4-.5-1.8-.5.1.6-.6.3.7.5.1.7Zm2.2-11.4h2.2l-.9-1.7Zm-9,23.9-.6-1.4.7-.3-1.3-1.3-.8,2,.7-.2-.9,1Zm-.2-.5,1.7.1-.6-1.3Zm12-25.9-.7-1.3-1.2,1.5-.8-.3.1.9.7-.4h.9l.6,1.1.6-1.1.1-.4Zm-6.6,18.2-.6-1.6.7-1.3h-1.6l.6,1.4-1.3,1.3ZM229,332l-.6,1.6,2-.2Zm-.5,2-.6,1.6,2-.2Zm2.6,2.7.6-1.1-1.4-.1ZM269,217.6l-1.3.3,1,.9Zm-2.6,7.7.4-1.6-1.8.4Zm-.1-6.7-.9.8.6.1,1.7,2.2,1.2-2.3-2.5-.1.2-.9.4-.2-1.7-1.1.1,2Zm-36,116.7.8-1.9-2,.4Z" fill="#296091"/>
      <path id="Path_14498" data-name="Path 14498" d="M232.6,330l.8-2.9-.6.2.2-.6.9-.5-.7-.2v-.2l-.2.1-1.1-.4.1.8-.1.1-.5-.5-.3.8-.6.3.4.4v.1h.2l.4.4-.4.2-.7-.8-.8,2.4,1.8-.7Zm35.2-112.1-.2-3.1-.4.5-.1-.5h.2l-.2-.1-.2-.6-.2.3-.9-.6,1.7-.9.1.5.5-.4-.3-.2.1-.1-2.3-2-.1,3.2v1.9l.2-.1,1,.2-.4.4-.7-.4-.2,1.1.4-.2-.2.2ZM230,332.3l1.8-.5-1.4,1.3,2.5.8-.3-2.9-.6.6-1-1.1.1-.7-1.8,1.1,1.1.5Zm23.4-57.4.4-2.2-1.8.7Zm4.8-9.4.2.2.4-.9-.4.1.2-.6-1.3.2.8,1.2Zm3.5,6.9-1.2.4,1,1.1Zm-2.4-.1-.4.9,1.1-.1Zm-3.5-19.9,2.2-.4-.7-.8,1.2-.7-1.6-.6v.7l-.1-.1Zm8.2,10.4-1.2.3.9.7Zm5.4-7.3-1-.2.4.9Zm-4.5,10.8.8-.2-.8-.5Zm-10.9,4-.7,1,1,.2Zm5.5-1.6.7.6.1-.6.6.1-.2-1.1-.7.7Zm2.4-5.9.5-.9-1.2-.2Zm4.5,10.2-.6-1.8-1.2,1.6Zm-1.6-6.2.7,1.3,1-1.3Zm-4.3-4.6-.9-.4v.8Zm6.6,4-.9.2.7.8Zm-6.3-8.1,1.1.2-.3-1.2Zm7.2-2.5-.8.3.6.7Zm-5.7,8.8v-.1l-.1.1H262l.1.2-.7,1.6,1.8-.2-.4-.8.3-.8Zm.6,1.8-1.8.7-.3-.5-.4.9h1l-.3-.4,1.6,1.5Zm.8,3.8-1.4.2.8,1.3Zm4.1.1-1.2-.1.8,1Zm-2.2-5-.2.6.8-.1Zm-11.9,18.4-.3-1.2-.8,1Zm-1.6-7.1.1.9.9-.5Zm7.5,5.2.2-1-.8.3Zm5.8-13.2.4,1.2.7-.8Zm-3-16.7.8,1,.4-1Zm5.3,1.7-.1.4-.6.2.7.8.1-.8h.5Zm-6.3,2.1-.1.2-.1-.1v.1l-.5.8.6.1v.6l1.5-.9-.6-.3.8-.3-.8-.5-.1.8-.6-.2Zm-9.9,35-2,.6,1.3,1.2Zm13.2-10,1.1-1.3h-1.7Zm-16,14.4,1.1-.8-1.3-.3Zm6.7-4.9-.9.5,1,.6Zm-1.4,9.2-.5,1.1,1.2-.3Zm-4.3-14-1.2.3.8.8Zm3-4.6-.5-.9-.4.8Zm2.5,7.7.7-.7-.9-.3Zm7.4-16.6-1-.4.1.9Zm5.4,3.1-.1,1h-.6l.5,1,.3-.6.3-.1.6.6.2-.8.3-.1Zm-6.1,2.1.5.7-.5.6,1.1.2-.2-.8.3-.7Zm1,1.8-1.8.7,1.5,1.5Zm-7.7-6,1.5,1.5.3-2.1Zm-1.9,3.1,2.2.2-.7-1.8Zm2.9,4.3-.9.9,1.3.1Zm-2.2-1.5-.6-.2.2.7.5-.4,1.9.1-.7-1.6Zm1.2-9.9-1.4,1.4,2,.2Zm-3.1,12.2-1.8.7,1.6,1.5Zm-2.5,8.2-.3.2.3.1-.1.2.3-.1,1.1.3-.1-1-.2-.9-.5.6-.5-.3Zm17.4-6.6-1.1-.1.7,1Zm-.5,3.3.9-.1-.6-.5Zm-21.6,6,.6.5-.8.9,1.6.5-.3-1.9-.1.1.2-.5Zm6.6,1.6.1.9.7-.7ZM265,282l.8-.8-1.2-.4Zm.1-23.3H264l.7,1Zm-.1,2-1.3.2.8,1.2ZM249.6,305l.9-.6-1-.6Zm-4.3-5-.3-1.6-1.4,1.1,1.3.7-.3.1.6.6.2-.4v-.1l.2-.5Zm7.4-1,1,.1-.6-.9Zm.2-13.4-.8,1.7,2-.5Zm-8.7,18.1.2.7-1.2-.5.1,1.7,1.8-.9-.3-.1.8-.5Zm7.1-3.6-.9.5.9.7Z" fill="#296091"/>
      <path id="Path_14499" data-name="Path 14499" d="M250.3,310.1l-.7-.8-.5,1Zm-4.7-13.8.6.2-.3-1.1-.5.4-.7.2.7.7Zm3.3-5.2-.4-.6.3-.8-1,.4.4.4-.3.4Zm3.1,7-.8-.3.1,1Zm-2.2-3.2-1.2.3.8.8Zm2.5-5.5-.4.8,1,.1Zm3,8.6.7-.7-.8-.2Zm-14.4,30.8.6-.8-.8-.1Zm1.5-13-.4,1.1,1.4-.1Zm7.3,1.4.6-1.1h-1Zm-5.3,6.9-.1-.8-1,.7,1.1.3v.5l.9-.4-.9-.4Zm5.2-.9.1-.8-.7.2Zm-2.2,5.3-.3.5-.7.5,1.1.3-.1-.6.4-.1Zm-5.7.4.8-.5-.9-.4Zm5.2-2.6-.7.2.6.6Zm-2.6,6.8.8-.1-.4-.5Zm-5.9-3.9.8.4v-1Zm7-7.9-.3,1.2,1.3-.2Zm7.4,1.4.6-1h-1.1Zm7.1-43.4-.4.5h.7Zm-6.2,4.3-.3,1.2,1.3-.2Zm7.4,1.2.5-1.1h-1Zm-5.1,7.8.8-.5-.9-.3v.1l-.1-.9-1,.7,1.1.3Zm5.1-1.8.1-.8-.7.2Zm-2,5.4-.3.4-.8.6,1.2.3-.2-.7h.4Zm-2.5-6,1.3-.2-1-.9Zm7.7,0,.5-1h-1Zm-1.8,14.7.8-.1-.6-.6Zm-11.9-1.6-.7-.8h.2l-.5-.8-.5.8h.5l-.3.9Zm6.4.3.6-1h-1Zm-4.4,7.3-.9-.4v.1l-.2-.8-.9.7,1.1.3v.6Zm4.3-1.2.1-.8-.7.2Zm-2.2,5.3-.3.5-.7.5,1.1.3-.2-.6.5-.1Zm-2-7.1-.4,1.1,1.4-.2Zm7.4,1.3.5-1h-1Zm.3-45.5-1.2-.3.5,1.1Zm-3-1.1-1.1-.4.4,1.2Zm2.7-9.4.7-1.2h-.1l.7-.4-.9-.4v.8l-1.2-.2Zm3-3.6-.8-.4.3,1.2.4-.4.7.4.1-1.3Zm1.2-6.4,1.2-.2-.9-.8Zm6.6,7.4.5-1.1h-1Zm-1-13.4.3-.8h-.9Zm-5.5-1.1.7.2-.2-.8Zm5-4.3.6-.4-.7-.3Zm-6.3,2.3,1.5.3-.4-1.7Zm3.5-2.1.7-.4-.8-.3Zm-2.3-1.2h.8l-.3-.6Zm.2,2.1h.8l-.3-.6Zm-3,.8-.6,1.8h.3l.3,1.2,1.3-1.1-.8-.2.5-.1Zm1.6-2.7.7-.7-1.1-.1Zm-4.7,1.4,1.5-.8,1.1-.1-.7-1.2,1.6-.3-2.4-2-.6,2.5,1-.2-.3.8-1-.7-.3,1.9-.1-.1-.6,2.6,2.9-.6Zm-1.1,3.6-.8,2.5,3-.4Zm.8,5.7.1-.2.9.9H259l.4.8.7-.7-.6-.1.2-1.9-1.2.5.9-2-2.6.1,1.2,2.5-1.7-1.9-.9,2.4,3-.1Zm1.7-7-2.5.6,1.8,2.4Zm3.7,12.8-.5-1.1-.6,1.1Zm-2.8-6.6.2.8.8-.6Zm8.3,2.6-.8.5.8.6Zm-8.9-9.7,1.6-1.3h-.1l.8-.6-.6,1.7,1.5-.2-.9-1.5.7-.5-2-.6.3,1.6-1.7-.4Zm1.6,8.8,2.1-.7-1.9-1.2Zm-2.2-2.4,2.2-.4-.7-.8,1.2-.6-1.6-.7v.8l-.1-.1Zm5.8,4.7-.8,1,1.1.2Zm5.6-1.2.7.7.1-1Zm-3.6-4.1h-1.1l.7.9Zm2.5,2h.8l-.6-.6Zm-5.7,2.2-.7.9,1,.2Zm-1.2-5,.1-.1,1.2.1-.7-1.7-.5.8h-.1v.3l-.3.5h.3Zm6.8,3.5.7.7.1-1Zm-2.6-4.8-1.1-.4.3,1.1Zm-3.3,3.5.7-1.1-.1-.1.7-.4-.9-.4v.8l-1.2-.1Zm-9,19.8v-.9l1,1.4.7-2.1-1.9.3.2.3-.8.6Z" fill="#296091"/>
    </g>
    <path id="Path_14500" data-name="Path 14500" d="M265.2,221.3c-.1,1.7-2.3,3.7-5.2,5.1L227.7,335.2l3.5,30.5s23.6-40.8,31.7-57.6c7.5-15.9,9.9-21.6,10.8-22.4,0-3.4-3.8-69.4-4.4-79.4h-3.7c-.1,2.9,0,7.6-.4,15Z" fill="url(#linear-gradient-6)"/>
    <path id="Path_14501" data-name="Path 14501" d="M258.8,206.2l-.2,20.7.9-.3c5.3-2,5.8-4.1,5.9-4.6.2-1.9.3-13.1.3-15.9l-6.9.1Zm5.2,15.7c-.1,1-2.2,2.2-4.1,3.1l.2-18.7h4.2c0,2.9,0,13.9-.3,15.6Z" fill="#376699"/>
  </g>
</svg>
