<svg xmlns="http://www.w3.org/2000/svg" xmlns:xlink="http://www.w3.org/1999/xlink" width="150.813" height="241.1" viewBox="0 0 150.813 241.1">
  <defs>
    <linearGradient id="linear-gradient" x1="0.479" y1="0.982" x2="0.505" y2="0.51" gradientUnits="objectBoundingBox">
      <stop offset="0" stop-color="#cc7a5e" stop-opacity="0"/>
      <stop offset="0.924" stop-color="#aa5f4b"/>
    </linearGradient>
    <linearGradient id="linear-gradient-2" x1="0.504" y1="-0.232" x2="0.498" y2="1.337" gradientUnits="objectBoundingBox">
      <stop offset="0" stop-color="#af614e"/>
      <stop offset="0.235" stop-color="#ad5f4c"/>
      <stop offset="0.995" stop-color="#5a2a0e"/>
    </linearGradient>
    <linearGradient id="linear-gradient-3" x1="0.504" y1="-0.232" x2="0.498" y2="1.337" xlink:href="#linear-gradient-2"/>
    <linearGradient id="linear-gradient-4" x1="0.397" y1="0.899" x2="0.494" y2="0.525" xlink:href="#linear-gradient"/>
    <linearGradient id="linear-gradient-5" x1="0.286" y1="0.365" x2="0.885" y2="0.7" gradientUnits="objectBoundingBox">
      <stop offset="0" stop-color="#341413" stop-opacity="0"/>
      <stop offset="1" stop-color="#240f0e"/>
    </linearGradient>
    <linearGradient id="linear-gradient-6" x1="0.499" y1="0.898" x2="0.509" y2="0.018" xlink:href="#linear-gradient-5"/>
  </defs>
  <g id="_37" data-name="37" transform="translate(-160.231 -206)">
    <path id="Path_14645" data-name="Path 14645" d="M165.4,426.7l8.2-36.7,27.3,7-9,44.6Zm76.8,3.4.1-37.5,28.2.9.9,45.4Z" fill="#ea9d7d"/>
    <path id="Path_14646" data-name="Path 14646" d="M242.1,420.8c-.2-.1-.3-.2-.3-.4l-.1-17.2a.366.366,0,0,1,.4-.4.43.43,0,0,1,.4.4l.1,17.2a.366.366,0,0,1-.4.4h-.1Z" fill="#cc7a5e"/>
    <path id="Path_14647" data-name="Path 14647" d="M254.3,417.6c11.3,1.1,16.5-.3,16.5-.3l.1-20.3-28.4-1.9-.5,19.1s4.1,2.5,12.3,3.4Z" fill="url(#linear-gradient)"/>
    <path id="Path_14648" data-name="Path 14648" d="M241.3,420l33-3.4a2.7,2.7,0,0,1,2.7,1.6l.6,1.4s18.5,11.6,26.8,15.7c2.8,1.4,6.4,3.1,6.6,5.2.1,1.3,0,2.7,0,3.9.1,1.7-1.2,2.6-2.9,2.6l-66,.1c-1.8,0-3.4-.9-3.7-2.7a57.41,57.41,0,0,1-.3-11.9l.7-9.7a2.746,2.746,0,0,1,2.5-2.8Z" fill="url(#linear-gradient-2)"/>
    <path id="Path_14649" data-name="Path 14649" d="M242.1,446.9l66.1-.2c1.7,0,2.9-.9,2.8-2.6,0-.2-.2-3.4-.2-3.4L238,441l.3,3.2c.4,1.9,2,2.7,3.8,2.7Z" fill="#351412"/>
    <path id="Path_14650" data-name="Path 14650" d="M238.1,441.6v-1.3h72.8v1.3Z" fill="#d3a094"/>
    <path id="Path_14651" data-name="Path 14651" d="M273.9,426.7a1.351,1.351,0,0,0,2.1,1.7l5.3-6.5a.1.1,0,0,0,.1-.1l-2.3-1.4-5.2,6.3Zm6.4,3.4a1.36,1.36,0,0,0,2.2,1.6l4.6-6.4-2.3-1.4-4.5,6.2Zm6.8,3a1.373,1.373,0,1,0,2.3,1.5L293,429l-2.3-1.4Z" fill="#4c2215"/>
    <g id="Group_1103" data-name="Group 1103">
      <path id="Path_14652" data-name="Path 14652" d="M277.5,430.5l-.4.8,1-.1Zm5.3,2.6-1.2-.2.4,1.4Zm-8.7-14-.6-1.3-1.1,1.3Zm2.4-.3-1.3-.7-.1,1.7Zm13.9,9.2-1.5-.8-.2,1.8Z" fill="#c67463"/>
      <path id="Path_14653" data-name="Path 14653" d="M289.8,427.1l-1.2-.6-.2,1.4Zm-26.2-7.2-1.3.7,1.3,1.1Zm5.4-.7-1.1-.8-.5,1.6Zm7.6,2.2-1.4-.2.5,1.6Z" fill="#c67463"/>
      <path id="Path_14654" data-name="Path 14654" d="M278,421.5l-1.5-.2.5,1.6Zm16.3,8.4-1.2-.1.4,1.2ZM281.6,422l-1,1.2,1.6.5Zm-18.3,2.8-.2,1.5,1.6-.5Zm-2.4-6.6-.3,1.5,1.6-.4Zm-4.5,5.4-.2,1.5,1.5-.4Zm-1.2-3-1.1,1,1.5.6Zm11.1.2-1,1.1,1.5.5Z" fill="#c67463"/>
      <path id="Path_14655" data-name="Path 14655" d="M271.6,422.2l-1,1.1,1.5.5Zm-16.4-2.6-.2,1.5,1.6-.4Zm-8.8,1.3-.3,1.2,1.4-.4Zm3.4,3.3-.2,1.2,1.4-.3Zm-7.1-4.3-.2,1.2,1.4-.3Zm40.6,3.4-.8.9,1.3.5Zm-1.8,2.6-.8.9,1.2.5Zm23.6,11.6-.9.9,1.4.4Zm-1-1.4-.1,1.3,1.3-.5Zm-4.4-2.6-.8.8,1.3.5Zm-1,4.7-.6-.4-.1.8Zm1.1-2.2-.7-.4v.8Zm.8,2.5.2-.7-.8.1Zm3.2-1.2.2-.8-.8.2ZM282.1,423l-1.2-.2.4,1.4Zm-2,3.1-1.3-.2.4,1.6Zm18.5,6.7-1.2-.2.4,1.3Zm-20.3,3.8-.1-.7-.7.4Zm1.4-12,.4.9.8-.8Zm2.6-.1-.7.6.9.4Z" fill="#c67463"/>
      <path id="Path_14656" data-name="Path 14656" d="M286.7,431.8l-.6-.6-.2,1Zm10.8.1-.6.6.9.4Zm5.1,3.4-.6-.5-.2.9Zm-7.2,3.2.2-.8-.8.1ZM261,427.3l-.2,1.1,1.1-.3Zm6.5-.1h-.9l.4,1Zm-4.2,7.4-.2-.8-.7.6Zm5.9-15.2-.9.6,1,.5Zm-8.3,5.9.3,1,.8-.7Zm9.6-5.3-.9.6,1,.6Zm6.8-.1h-.9l.3.9Zm-2.1-.7-.8-.2.2,1Zm-3.5,7.4-.1-.9-.8.6Zm-.5-6.8.4-.8h-.9Zm-1.1,16.3.9.2-.3-1.1Zm-.4-6.9.1.9.7-.4Zm7.1,4.6-.7.2.5.7Zm-9.5-8.1,1,.2-.3-1.2Zm-3.3-1.4,1,.2-.4-1.2Zm-12-4,1,.2-.3-1.2Zm12.8,1.9.8,1.4.9-1.5Zm-7.3-1.4.1,1.9,1.8-.9Zm1.4,9-.8.2.6.7Zm-10.6-4.4.4-.8h-1Zm10.4-1.7.9.3-.2-1Zm-4-3.5.4-.7-.9-.1Zm7.4,4.5.4-.9h-.9Zm-14.3-1.9v.7l.7-.4Zm14.3.1.5.4.2-.7Zm2.1-4-.3.5.7.1Zm9.6,3.8-.5-.2.1.6Zm2.4,6.9.1-.7-.7.3Z" fill="#c67463"/>
      <path id="Path_14657" data-name="Path 14657" d="M272.2,430.7l.5-.1-.4-.6Zm1.8-5.3.3.5.4-.5Zm7.5,10v-.7l-.7.3Zm-4.1,1.1.5-.2-.4-.5Zm1.9-5.3.2.5.4-.6Zm-7.6-.8.1-.6-.7.2Zm-4.1,1.1.6-.2-.4-.4Zm1.9-5.3.3.5.4-.5Zm26.5,7.3v-.6l-.6.3Zm-3.5.8.4-.1-.3-.4Zm1.6-4.2.1.3.4-.3Zm-42.7-7v.5l.5-.3Zm10.4,6.3-.5.1.4.5Zm-8.5-1.3.8-.7-1-.5ZM248,424l.7.6.1-1.1Zm7.6-3.1-.3.8h1Zm11.6,10,.8-.7-1.1-.5Zm-5.4-3.9.7.5.1-1Zm7.4-3.4-.2.9.9-.2Zm-25,6,.2-.9-1,.2Zm1.1-6,.1-.9-.9.2Zm-3.4-1.7h.7l-.3-.7Zm2.6-1.8.3.7.6-.6Zm9.1,2.2-.2.8.8-.1Zm5.5,5.6.6-.5-.9-.5Zm1.7-5.4,1.1-1-1.5-.7Z" fill="#c67463"/>
      <path id="Path_14658" data-name="Path 14658" d="M256.7,428.6l.6-.5-.8-.5Zm2-1.1.7-.5-.9-.4Zm-12-4.2,1.2.9.3-1.7Zm-7.3-2.2,1.2.8.3-1.6Zm.2,3.5,1.2.8.2-1.6Zm-.8-1.4,1.3.7.2-1.6Zm8.9-2.9,1.3.8.3-1.6Zm.7,6.5-.3.6.7-.1Zm.3,2.4.9-.7-1.1-.7Zm-5.8-5,.8.7.2-1.2Zm8.8-2.9-.4.8,1.1.1Zm19.7-.3-.9.3.6.7Zm2.6,5.3-.3-.7-.5.8Zm-7.3-.5.5-.5-.7-.3Zm.3-7.6-.9.3.7.9Zm3.1,5.9-.4-.7-.6.9Zm-8.3-.5.6-.5-.8-.4Zm10.9-1.9,1,.2-.3-1.2Zm2.4-2.9.1.9.8-.5Zm7.2,4.9-.8.3.7.7Zm1,1.1-.9.2.7.9Zm3.2,5.9-.4-.7-.6.7Zm-8.4-.7.6-.6-.9-.4Zm1.9-1.9-.3.9,1.1-.1Zm6.7,1-.8-.1.2.9Zm-5.7,6.3v-.9l-.9.6Zm9.5-1.7-.3.8h1Zm5.6.9-.7-.1.2.8Zm-4.7,5.2-.1-.7-.7.4Zm1-9.2-.5.7,1,.1Zm5.2,1.9-.6-.3v.8Zm-5.6,4.3V436l-.7.3Zm-3-9.3-1,.3.7.9Zm3.1,6-.4-.8-.5.8Zm-8.4-.8.6-.5-.9-.4Zm-42.1-11-.2,1.3,1.4-.4Zm52.1,8.8-1.1,1.9,2.6.2Zm-22.5-13.2-2.2.4,1.5,2Zm-21.8,2.4,1.5,1.7,1.1-2.2Zm7-1,1.2,1.9,1.4-2Z" fill="#c67463"/>
    </g>
    <path id="Path_14659" data-name="Path 14659" d="M241.3,420l33-3.4a2.7,2.7,0,0,1,2.7,1.6l.6,1.4s18.5,11.6,26.8,15.7c2.8,1.4,6.4,3.1,6.6,5.2.1,1.3,0,2.7,0,3.9.1,1.7-1.2,2.6-2.9,2.6l-66,.1c-1.8,0-3.4-.9-3.7-2.7a57.41,57.41,0,0,1-.3-11.9l.7-9.7a2.746,2.746,0,0,1,2.5-2.8Z" transform="translate(-77.7)" fill="url(#linear-gradient-3)"/>
    <path id="Path_14660" data-name="Path 14660" d="M164.5,446.9l66.1-.2c1.7,0,2.9-.9,2.8-2.6,0-.2-.2-3.4-.2-3.4l-72.8.3.3,3.2c.3,1.9,1.9,2.7,3.8,2.7Z" fill="#351412"/>
    <path id="Path_14661" data-name="Path 14661" d="M160.4,441.6v-1.3h72.9v1.3Z" fill="#d3a094"/>
    <path id="Path_14662" data-name="Path 14662" d="M196.2,426.7a1.351,1.351,0,1,0,2.1,1.7l5.3-6.5a.1.1,0,0,0,.1-.1l-2.3-1.4-5.2,6.3Zm6.4,3.4a1.36,1.36,0,0,0,2.2,1.6l4.6-6.4-2.3-1.4-4.5,6.2Zm6.9,3a1.373,1.373,0,0,0,2.3,1.5l3.6-5.6-2.3-1.4-3.6,5.5Z" fill="#4c2215"/>
    <g id="Group_1104" data-name="Group 1104">
      <path id="Path_14663" data-name="Path 14663" d="M199.8,430.5l-.4.8,1-.1Zm5.3,2.6-1.2-.2.4,1.4Zm-8.7-14-.6-1.3-1.1,1.3Zm2.4-.3-1.3-.7-.1,1.7Zm13.9,9.2-1.5-.8L211,429Z" fill="#c67463"/>
      <path id="Path_14664" data-name="Path 14664" d="M212.2,427.1l-1.3-.6-.2,1.4Zm-26.3-7.2-1.2.7,1.3,1.1Zm5.4-.7-1.1-.8-.4,1.6Zm7.7,2.2-1.5-.2.5,1.6Z" fill="#c67463"/>
      <path id="Path_14665" data-name="Path 14665" d="M200.3,421.5l-1.5-.2.5,1.6Zm16.4,8.4-1.3-.1.4,1.2ZM203.9,422l-1,1.2,1.6.5Zm-18.3,2.8-.2,1.5,1.6-.5Zm-2.4-6.6-.3,1.5,1.6-.4Zm-4.5,5.4-.2,1.5,1.5-.4Zm-1.2-3-1.1,1,1.5.6Zm11.1.2-1,1.1,1.6.5Z" fill="#c67463"/>
      <path id="Path_14666" data-name="Path 14666" d="M193.9,422.2l-1,1.1,1.5.5Zm-16.3-2.6-.2,1.5,1.5-.4Zm-8.9,1.3-.2,1.2,1.3-.4Zm3.5,3.3-.3,1.2,1.4-.3Zm-7.2-4.3-.1,1.2,1.3-.3Zm40.7,3.4-.9.9,1.4.5Zm-1.9,2.6-.8.9,1.3.5Zm23.6,11.6-.8.9,1.3.4Zm-1-1.4-.1,1.3,1.3-.5Zm-4.3-2.6-.9.8,1.3.5Zm-1.1,4.7-.6-.4-.1.8Zm1.1-2.2-.6-.4-.1.8Zm.9,2.5.2-.7-.8.1Zm3.1-1.2.2-.8-.8.2ZM204.4,423l-1.2-.2.4,1.4Zm-1.9,3.1-1.4-.2.4,1.6Zm18.4,6.7-1.2-.2.4,1.3Zm-20.3,3.8-.1-.7-.7.4Zm1.5-12,.4.9.7-.8Zm2.5-.1-.7.6.9.4Z" fill="#c67463"/>
      <path id="Path_14667" data-name="Path 14667" d="M209,431.8l-.6-.6-.2,1Zm10.9.1-.7.6.9.4Zm5,3.4-.6-.5-.2.9Zm-7.2,3.2.3-.8-.9.1Zm-34.4-11.2-.2,1.1,1.1-.3Zm6.5-.1H189l.4,1Zm-4.2,7.4-.2-.8-.7.6Zm5.9-15.2-.9.6,1,.5Zm-8.3,5.9.3,1,.9-.7Zm9.6-5.3-.9.6,1,.6Zm6.8-.1h-.8l.3.9Zm-2.1-.7-.8-.2.3,1Zm-3.4,7.4-.2-.9-.8.6Zm-.5-6.8.4-.8h-1Zm-1.2,16.3.9.2-.3-1.1Zm-.4-6.9.1.9.8-.4Zm7.1,4.6-.7.2.6.7Zm-9.5-8.1,1,.2-.3-1.2Zm-3.3-1.4,1,.2-.4-1.2Zm-12-4,1,.2-.3-1.2Zm12.8,1.9.9,1.4.8-1.5Zm-7.3-1.4.1,1.9,1.8-.9Zm1.4,9-.8.2.6.7Zm-10.6-4.4.4-.8h-.9Zm10.5-1.7.8.3-.2-1Zm-4.1-3.5.4-.7-.9-.1Zm7.5,4.5.3-.9h-.9Zm-14.4-1.9v.7l.7-.4Zm14.4.1.4.4.2-.7Zm2-4-.2.5.6.1Zm9.6,3.8-.5-.2.1.6Zm2.5,6.9v-.7l-.7.3Z" fill="#c67463"/>
      <path id="Path_14668" data-name="Path 14668" d="M194.5,430.7l.5-.1-.4-.6Zm1.8-5.3.3.5.4-.5Zm7.5,10v-.7l-.7.3Zm-4.1,1.1.5-.2-.4-.5Zm1.9-5.3.2.5.4-.6Zm-7.6-.8.1-.6-.7.2Zm-4,1.1.5-.2-.4-.4Zm1.9-5.3.2.5.4-.5Zm26.4,7.3v-.6l-.6.3Zm-3.5.8.4-.1-.3-.4Zm1.6-4.2.2.3.3-.3Zm-42.7-7v.5l.5-.3Zm10.4,6.3-.5.1.4.5Zm-8.4-1.3.7-.7-1-.5Zm-5.4-4.1.7.6.1-1.1Zm7.6-3.1-.3.8h1Zm11.6,10,.8-.7-1-.5Zm-5.4-3.9.7.5.1-1Zm7.5-3.4-.3.9.9-.2Zm-25.1,6,.2-.9-1,.2Zm1.1-6,.1-.9-.9.2Zm-3.4-1.7h.7l-.3-.7Zm2.7-1.8.2.7.6-.6Zm9,2.2-.2.8.8-.1Zm5.5,5.6.6-.5-.8-.5Zm1.7-5.4,1.1-1-1.4-.7Z" fill="#c67463"/>
      <path id="Path_14669" data-name="Path 14669" d="M179,428.6l.6-.5-.8-.5Zm2.1-1.1.6-.5-.8-.4ZM169,423.3l1.3.9.2-1.7Zm-7.3-2.2,1.3.8.2-1.6Zm.2,3.5,1.3.8.2-1.6Zm-.8-1.4,1.3.7.2-1.6Zm9-2.9,1.2.8.3-1.6Zm.6,6.5-.2.6.6-.1Zm.3,2.4.9-.7-1.1-.7Zm-5.8-5,.8.7.2-1.2Zm8.8-2.9-.3.8,1,.1Zm19.7-.3-.9.3.6.7Zm2.6,5.3-.3-.7-.5.8Zm-7.3-.5.6-.5-.8-.3Zm.4-7.6-1,.3.7.9Zm3,5.9-.4-.7-.6.9Zm-8.3-.5.7-.5-.9-.4Zm10.9-1.9,1,.2-.3-1.2Zm2.4-2.9.1.9.8-.5Zm7.2,4.9-.8.3.7.7Zm1.1,1.1-1,.2.7.9Zm3.1,5.9-.4-.7-.5.7Zm-8.4-.7.6-.6-.9-.4Zm2-1.9-.4.9,1.2-.1Zm6.6,1-.8-.1.2.9Zm-5.6,6.3-.1-.9-.9.6Zm9.5-1.7-.4.8h1Zm5.5.9-.7-.1.2.8Zm-4.7,5.2v-.7l-.8.4Zm1-9.2-.5.7,1,.1Zm5.3,1.9-.7-.3.1.8Zm-5.7,4.3.1-.8-.8.3Zm-3-9.3-1,.3.7.9Zm3.1,6-.4-.8-.5.8Zm-8.3-.8.6-.5-.9-.4Zm-42.2-11-.2,1.3,1.4-.4Zm52.1,8.8-1,1.9,2.5.2Zm-22.4-13.2-2.3.4,1.5,2Zm-21.9,2.4,1.5,1.7,1.1-2.2Zm7-1,1.2,1.9,1.4-2Z" fill="#c67463"/>
    </g>
    <path id="Path_14670" data-name="Path 14670" d="M243.6,413.9l.2.9.6-.5Zm11.6,3.3h1l-.5-1Zm-8.5-5.1v.8l.7-.5Zm13.5-1.6.2-.7-.8.2Zm-6.5,4.4.6-.4-.6-.4Zm-5.6-.9-1.3.4.8.9Zm-2-.2-1.3.7,1.5.8Zm4,2.5-1.3-.4V417Zm6.2-7.2-.8-1.1-.5,1.3Zm12.4-2,.7,1.2.6-1.1Zm-10.8,2,1.3-.5-.9-.9Zm-14.3,8,.4,1.1,1-1Zm7.9-8.3-.8-1.1-.4,1.2Zm-7.4,7.9,1.1-.3.4.8.6-.7-.7-.2.2-.1-1.5-.8Zm7.9-.3,1.3-.2-.9-1.1Zm-7-8.2.7.7.5-1.3-1,.4.4-.9-2.9-.1,1.7,2.2Zm8.2,2.1.9-2.7.2.2.2-.7-.9.1.2.2-2.1.8Zm-2.6,2.9-1.7.8,1.1,1.4Zm.1-6-1.8.7,1.2,1.5Zm-8.2.5.1.9.7-.5Zm12.3,3.7h1l-.5-.9Zm8.8-3.4h1l-.6-.9Zm-7.1,2.4.1-.7-.9.2Zm1.6,1.8.2-.8-.8.2Zm-9.2-5.3h-2.7l1.2,2.7Zm-4.1,3.6.4.9.4-.4,2.6,1.3.2-2.2.6-.3-1.2-.8.1.8-2.3.9Zm15.6-2.2-1.1.1.7.7Zm-11.1,3,.9-.5-.7-.4Zm1-.3-.6.5.9.3Zm1,3.7,1.2-.5-1.2-.8Zm-6.6-1.3-.3-1.5-.5.3.7-.7-1.4-.2.1.4-.6-.1.6,1.3.2-.1Zm8.6-2.6-.5,1.3,1.3-.2Zm12.9-2.2.5-1.2-1.4.4Zm-22.1.8-1.4.4.9.9Zm14.3-2.5-3.5.1,2.1,2.7Zm3.1,1.5.6-1.4-1.7.1Zm1.9.7h-1l.6.8Zm-11.2,1.2-.4,1.2,1.2-.2Z" fill="#ad5c49"/>
    <path id="Path_14671" data-name="Path 14671" d="M166.7,419.5a.76.76,0,0,1-.2-.4l3.7-16.8c.1-.2.3-.4.5-.3a.382.382,0,0,1,.3.5l-3.7,16.8c-.1.2-.3.4-.5.3A.1.1,0,0,0,166.7,419.5Z" fill="#cc7a5e"/>
    <path id="Path_14672" data-name="Path 14672" d="M179.9,417c10.8,3.5,16.2,3.3,16.2,3.3l4.6-19.8-27.3-8L168.8,411C168.7,411.1,172.1,414.5,179.9,417Z" fill="url(#linear-gradient-4)"/>
    <g id="Group_1105" data-name="Group 1105">
      <path id="Path_14673" data-name="Path 14673" d="M169.2,412.1v.8l.7-.3Zm10.7,5.5.9.2-.3-1Zm-6.6-6.2-.1.9.8-.4Zm13.6,0,.3-.6-.8.1Zm-8.1,3.6.7-.3-.5-.4Zm-5.2-2-1.4.1.6,1.1Zm1.6,5.5,1.2-.3-1-1Zm-3.6-6.1-1.4.5,1.4,1.1Zm3.4,3.4-1.2-.8-.1,1.2Zm8.2-6.2-.7-1.2-.6,1.2Zm12.5-.6.6,1.3.8-1.1Zm-10.9.7,1.3-.3-.8-1Zm-16.3,5.4.2,1.3,1.2-.8Zm10-6.3-.7-1.3-.6,1.2Zm-9.4,6.1,1.2-.1.2.8.7-.5-.7-.3.2-.1-1.2-1.1Zm7.8,1.3h1.3l-.6-1.2Zm-4.8-8.8.6.8.6-1.2-1,.2.5-.7-2.9-.5,1.5,2.4Zm7.9,3,1.2-2.6.2.2.3-.7-.9.1.1.2-2.2.6Zm-3.8,2.4-1.9.4.8,1.6Zm1.6-5.7-1.8.5.9,1.6Zm-8.2-.4.1.8.7-.4Zm11.9,5,.9.2-.4-1.1Zm9.1-2.4.9.1-.4-.9Zm-7.4,1.6.3-.7-.9.1Zm1.5,1.9.3-.7-1,.1Zm-8.6-6.2-2.7-.3.9,2.8Zm-4.5,3.1.3,1,.5-.4,2.4,1.6.4-2.2.7-.2-1.1-.9v.7l-2.4.7Zm15.7-.5h-1l.6.8ZM176.1,411l.8-.4-.6-.5Zm.9-.2-.6.5.8.3Zm-7.1,6-1.1,1,1.7.5Zm6.7-2.4,1.2-.3-1-1Z" fill="#ad5c49"/>
      <path id="Path_14674" data-name="Path 14674" d="M171.2,412.6l-.1-1.6-.5.3.7-.7-1.4-.2.1.3-.6-.1.5,1.4.1-.2Zm8.8-1.7-.6,1.2h1.3Zm13-.7.7-1.2-1.4.2Zm-20.3,6.9-.2,1.3,1.2-.3Zm-1.7-8.5-1.4.2.8.9Zm14.6-1-3.5-.3,1.7,2.9Zm2.8,1.8.8-1.3-1.6-.1Zm1.9,1-1-.1.5.8Zm-11.3-.1-.6,1.2,1.3-.1Z" fill="#ad5c49"/>
    </g>
    <path id="Path_14675" data-name="Path 14675" d="M269.8,206.3H213.4l22.8,197.8a3.413,3.413,0,0,0,3.6,3l31.6-1.4a3.256,3.256,0,0,0,3.1-3.1l2.5-72.7c.7-17.5-.4-24.4-.4-43.6-.1-16.1-5.2-65.4-6.8-80Z" fill="#341311"/>
    <path id="Path_14676" data-name="Path 14676" d="M194.9,206.3c-1.2,6.9-3.2,22-6,40.5l-11,76-14.4,79.3a2.975,2.975,0,0,0,2.7,3.5L200,408a3.246,3.246,0,0,0,3.3-2.2l29.8-90.1c7.2-21.2,28.1-94,32.4-109.4H194.9Z" fill="#441b18"/>
    <g id="Group_1106" data-name="Group 1106">
      <path id="Path_14677" data-name="Path 14677" d="M247.4,387.8h-1.1l.6,1.1Zm-2.6,6.1,1.6-.4-1.3-1.1Zm-.9,11.1,1.7-.4-1.3-1.1Zm-2.4-33.4-1.6-1.4-.6,1.7Zm-4.6,14.2.8-2-1.9.6Zm.8-4.5-.4,1.6,2-.4-1.5-1.2.8-2-1.9.7Zm.5,5.3,2-.4-1.6-1.3Zm.6-21.4.3-2-1.8.5Zm2.8,7.7,1.6,1.4.1-2Zm.4,6.1.1-2-1.7.6Zm-3.1,15.7.1-1.7-1.3.6Zm1.5-7.6-.4,1.7,2-.5Zm12.3,4.5v-1l-.7.6Zm-14.1-4-.3.8-.2.1.1.1-.1.3.5-.1.4.3-.1-.5.5-.1Zm-.3,3.6-.1-1.3-.9.6Zm2.4,5.3.9-.9-1.2-.1Z" fill="#68322e"/>
      <path id="Path_14678" data-name="Path 14678" d="M239.9,373.4l.7-1.2-1.3-.1Zm-4.7-12.8.7,1.2.6-1.2Zm4,15.5.6-1.3h-1.2Zm-2.5,3.9-1-.8-.1.4-1.4-.6,1.6-1,.5.3-.1-2,1.3,2.1,1-3-2.4.3v-.5l-1.4.8-1.4-.7,1.6-1.1h-.1l1.2-.8-1.8-1,1-1-2.3-1,1.4-1.1-1.8-.8.2,2.1.3,2.9,1.1-1,.2,1.5-1.3-.4.2,1.6-.2-.1.4,2.2.8-.5,1.5,1.1-1.8-.6.2,1.7-.6-.2.3,3.1,1.7-1.7Zm8.9-.2v-1.2l-.9.7Zm-8.2-5.9.1-.8.2.1-.4-2.2-1.5,1.3,1.4.6-.6.5Zm-.6-4.8-.4-1.2-1.1,1Zm-3-3.2-1.7-.8.1,2.1Zm3.2-.4-1.5,1.3,1.9.9Zm1,19.1,1.9.9-.4-2.2Zm1.6,9.7-1.5,1.3,1.9.9Zm4.4-39-.1,1,1.1-.4Zm-7.2,2.1-.9.8,1.2.1Zm-6.1-4,.9-.6-1-.5,1.4-1.4-1.7-.7.1,2.2h.1Zm16.4,27.7-.7-.2.4.7Zm-6.6-.4-.3.7.7-.2Zm-.6,17.3-.1-1-.6.7Zm3.1-4.3-.8-.1.4.7Zm-6.3.2h0l.8-.8-.7-.2v-.6l1,.2-.6-1.3h-.1l-.3-.6-.6.7.7.2-.1.2-1.3.5.2.3-.7-.4.3,3.2ZM256,364.3l.1.7.5-.5Zm-3.1,7.2.8.1-.4-.6Zm-11.1-3.6.7-1-1.5-.2Zm-5.3-6,1.2-.3-.8-.8Zm-1.2,9.5-.1-1.2-.9.5Zm-1.1-20.1.8.6-.1-1-.6.3-.4-1.1-.9,1Zm4.7,19,.9-1.5-2.1-.1Zm3.4-16.5-1.2-.1.6.9Zm-1.5,3.4.4.5.5-.9h-.6l.2-.3-1.2-.1.6.9Zm-.3,34-1.2.3.7.8Zm1.7-9.3V383l1-.4ZM242,386l.2-1.2-1.4.4Zm-6.2-4.3-.9-.5v1.2Zm6.2,15.8-1.2.3.7.9Zm2.5-8.9-.9-.7v1.2Zm-3.8,9.6-1.7.2,1.1,1.7Zm-1.7,5,.6-1.9-1.7.2Zm1.9-3-1.3,1.2,1.8.8Zm-5.3-3.9.4,3.1,2.1-2.2-.8-.3,1.3-.8-1.4-.5.4-.3-1.6-.5.2,1.5.5-.3.1.7Zm-.8-7.5.4,3.1,2.1-2.1-.9-.4.9-.2-.3-.3.1-1.8-1.7.7.6.5-.2.9Zm2-2.6-.8-.3-.5-.9-.3.6-.9-.4,2.1-2.2-.3-.1.5-.1-.9-.7-.2.6-1.6-.6.4,3.1.3,3.2Zm-2.2-19.8,1.1.2-.3-1.2-.9.8v-.1l-2.3,1.3,2.5,1.8Zm-2.3-2.9.1.8.5-.3h.1l-.3.8,1.2-.1.2.1v-.2l.7-.1-.7-.6v-.7l.4.3-.1-1.1.3-.2-.3-.2-.1-1.6-1.4.8-.9-.7.6-.4.2.2.1-.4.6-.4-.5-.2v-.1l.8-.7-1.5-.8.7-.7,1.5,2.4,1-3-2.3.3.2-.2-2.3-.8.9-.8.3.2.1-.6.1-.1h-.1l.1-1.2-1.6.4-.2-.1.2,2.1.3,3.2.8-.8.1.6-.8.2.3.3.2,1.3-.4-.3.3,2.6.8-.6.4.2-.5.3h-.3v.1l-.5.3Zm4.4,38.8,1.7-1.8-.9-.3,1.1-.3-1.3-1.1-.2,1.2-1.1-.5.2,2.6.3,3.2,2.2-2.2Zm1.3,4.3,3.1.3-1.9-2.5Zm4-1.5-1.1-1-.4,1.5,1.4-.3-.7,1.5,3.1-.1-1.9-2.4Zm1.6-19.2,1.1-.5-.7-.7v-.4l-.6.6.4.3Zm2.4,6.4.8-.8-1-.1Zm-11.1-38.1-.3-1.3-1.1,1.1Zm11.2,36,1.2-.5-.8-.7Zm-4.6,2.7v-.1l-.1-.4-.7.4.2.2-1.3.4,1.1,1.4.7-1.6.2.2Zm7.1,3.8.7-.8-.9-.1Zm-6.2-8.7-.5,1.1,1.4-.1Zm5,5.6.7.7.3-1.2Zm1.7-9.8-1.1-.5.3,1.1Zm.8-4.8,1,.3-.3-.9Zm2.9,5,.4-.7-.8.1Zm2.4-6.4.7-.1-.5-.7Zm-3.9,12,.7-.8-.9-.3Z" fill="#68322e"/>
    </g>
    <path id="Path_14679" data-name="Path 14679" d="M203.1,405.8l43.3-129.3s-24.8,8.3-33.1,19.7c-7.3,10.1-40.8,87-48.7,105.2a3.045,3.045,0,0,0,2.5,4.2l32.6,2.3a3.257,3.257,0,0,0,3.4-2.1Z" fill="url(#linear-gradient-5)"/>
    <g id="Group_1107" data-name="Group 1107">
      <path id="Path_14680" data-name="Path 14680" d="M195.5,390.9l.7-1-1-.2Zm1.1,3.7-1.4.8,1.6.7Zm4,10.7-.1-1.5-1.3.7-.2-.9-2.3,2,3,.6-.4-1.5Zm-3.2-2.7-1.4.8,1.5.7Zm6.7-3.1.5.4.4-1.4-1.7.2.4.4-1.5.2,1.1,1-.8.2,1.8,2.5.8-3-1.2.2Zm-.3-24.4,2,.7-.3-1.7Zm3.4,13.4-1.8-.9.5,2.1Zm-2-5.4.5,2.1-1.7.8,1.9.8-.1-1.6,1.2-1.1Zm-.9,5.4-1.8,1,1.9.8ZM203,402.2l-1.4.8,1.1.5-1.3.2.5.8-2.1,1.9,2,.3.3-2.1,1,1.6.9-3-.9.2Zm4.5-32.8,1.7-1.1-1.6-.8Zm3.1-10.6-.1,2,1.7-1.1Zm-8.8,16.7-.2,1.9,1.8-1Zm.4,4.7-.2,1.9,1.8-1ZM220,354.5l.3-1.7-1.4.4Zm-8-2.2,1.4-1-1.3-.7Z" fill="#260807"/>
      <path id="Path_14681" data-name="Path 14681" d="M220.2,352.1l-1.3-.6v1.7Zm-14.1,44.1-1.2-.8-.1-.2h.9l-.6-.9-.4.6-.9,1.1h1l-.1.5-.9.1,1.7,2.5.9-3Zm-3.6.1-.2,1.7,1.4-.9Zm3.8-4,.6-.4-1.5-1-.2,1.8-.4.2.9.4-.9.1,1.7,2.6.9-3.1-1,.2Zm-4-.3-.1-1.7-1.8.9Zm-13,.4.8-.3-.6-.7Zm14.6,1-.4,1.2,1.1-.5Zm-3.2,5h-1.1l.7.9Zm4.3-21.2.8-1.2-1.2-.1Zm5.9-11.7.4,1.3.8-1.1Zm-5.6,14.4.8-1.2-1.3-.2Zm2.4,6.4-1.1.5.5.3h-.3l1.7,2.5-.9.2-.3-.6-.6.7-.8.2,1.8,2.5.8-3,.9-3-1.7.3Zm-9.2-5.2-.2,1.2,1-.3Zm10.9-8.7-.6,1.1,1.4.1Zm1.4-2.5-.6,1.1h1.4Zm8-13.8-.7-.2-.9-2.7-1.8,2,2.3.8-.4.9Zm-6.1,19.6-2.4.3.8,1.3-1.9.5.9,1.1H210l1.4,1.3-1.5.4-1.3-1.1-.1.6-2.2-.8.3,3,1.8-1.7-.5,1.9.5-.2,1.4,1.3-1.6.3-.1-.3-1,.5,1.1.5,1.3,1.9.9-3-.5.1.5-1.5-1.9.1,1.7-.7.6.7.9-2h-.2l.5-1.5-1.4.1.6-1.4.8,1.2.9-2.8v.1l.6-2-1.9.3Zm1.3-3,.6-2-1.9.4Z" fill="#260807"/>
      <path id="Path_14682" data-name="Path 14682" d="M208.3,375.3l-.8,1.9h.2l-.1.8,1-.3-.6-.6,1.5-.3Zm.9-5.2-.8,2,2-.5Zm-5.5,16.7-.7,2,2-.5Zm-1.9,10.6-.8,2.1,2-.6Zm2.3-38.5-1.1.4,1,.6Zm9-10.4.6.8.5-1-.7.1-.1-2-1.5.9,1.6,1.1Zm-1.9,13.9-.5.8,1.2.2Zm-13.8,20.8h-.8l.3.6Zm5.9,1.6-.1-.7-.5.4Zm-2.5,16.1.8-.2-.5-.7Zm-2-4,.5-.6h-.7Zm-8.1-31.5-.6.1.4.6Zm1.5,6.9-.5.6h.8Zm13.3-2-1.4-.1.5,1.1Zm5.4-3.6-.2-1.2-.8.7Zm-.4,8.2-.3,1.1,1.1-.4Zm5.2-29-1.1.5.7.6Zm3.5.8-1.1.4.7.7Zm2.3-1.7-.6-.8-.4.8Zm-2.7,9.8-.8.2.8,1.1.3-1.4-.1.1.4-.7-.8-.1ZM208,373l-2.1-.2.6,1.5Zm-.8-15.2H206l.5.9Zm-.2,3.6-.6-.1.4.9.4-.5.1.2.8-.8-1.2-.1Zm15.6-19.9.9,1.5-1.5.2,1,1.7.8-1.9h-.1l.6-1.8Zm-5,1.6-1.5.9,1.6,1.2Zm7.3-11.9,1.8.8-.5-2Zm3.2-6.8-.4,1.4,1.6-.3ZM221,340.8l-1,1.8,2-.4Zm7.4-11.5.7-1.6-2,.1Zm-8.1,14.3-1.4.9,1.6,1.2Zm-3.1,7.2-1.4,1.1,1.8.9Zm-15.5,44.6.8-.6-1.1-.5Z" fill="#260807"/>
      <path id="Path_14683" data-name="Path 14683" d="M201.3,384.9l-1.1.6.9.6Zm-.5,4.1,1.3-.6-1.3-.6Zm7.8-3.4-1,.3.8.9Zm-8.7,15-1-.5.2,1.2Zm-1-10.1-1.1.5.9.6ZM225,338.4l.5-.8-1,.1Zm-23.4,63.1L200,401l.3,2Zm9.6-27.4,2.8-1.2-2-1.8Zm11.1-33.3,2.5-2-2.4-1.1Zm3.4-4.3.9-2.2-2.1.2Zm-2.8-1.6-.1,2.4,1.9-1.4Zm-23.7,52.9.4-.1-.5-.7-.1.3-.8.6,1.1.6Zm4.8,4.1-.1-.8-1,.7.4.2-.1.5.5-.2.4.2v-.4h.1Zm-7.9,1.6-.9-.1.5.9Zm17.3-34,1.4.1-.9-1.2Zm1.6-3.7-.5,1-.6-.4v.1l-.5-.5-.7,2,2-.5-.4-.5.3-.1,1.2.1Zm2.5,1,.8,1.1-1.2-1-.5,2v.1l-.3.9.2-.1v.2h-.1l.1.2-.1.6.3-.2.7.9-2.3.4.1.2-2.2-.8.3,3.1,2.1-2,.5.8-1.7.4.2.4v.8l-.6.1.6.6v.4l.2-.2.6.6-.9.4-1.2-1-.4,1.6-.3.1.2.2-.2,1-.9.5,1.1.4-.1.6.7-.4.3.1v-.2l.3-.2.5.5.3-.8.7-.4-.5-.3v-.2h-.2l-.4-.3.4-.2.7.7.7-2.4-.7.3.4-1.4.4-.2-.4-.2.4-.9.6,1,1-3.1.6-1.9-.2.1-.7-.4.4-.3.5.5.4-.9.2-.2h-.1l.5-1.9Zm-7-.8-1.4-.2.5,1.1Zm5.3-3.6-.1-1.2-.9.6Zm-.5,8.3-.3,1.1,1-.4Zm6.8-13.6-2.6.3,1.6,2.6-.6.1-1.1-.7-.1.8h-.1v.9l.3-.2.9,1.5.8-2.4,1-2.8v.1l.8-2.4-2.1.3ZM195.8,391l-.8.6,1,.6Zm4.4,5.1.4,1.6,1.3-1.1-1.3-.7.3-.1-.6-.6-.2.4v.1l-.2.5Zm-7.7,1.9.4-.8-1-.1Zm7.8-6-.3-1.2-1,.8Zm-7,3.8.9-.5-.9-.7Zm.9-10.3.6.8.5-1.1Zm-.5-5.5-.5.9,1-.2Zm-2.7,4.5-.8-.2.3.7Zm-1.8-6v-.9l-.7.5Zm1.8,12.2.4-1-.9.1Z" fill="#260807"/>
    </g>
    <g id="Group_1108" data-name="Group 1108">
      <path id="Path_14684" data-name="Path 14684" d="M181.5,373.1l.7-.9-.9-.3Zm-3.7,3.7,1.7.2-.9-1.4ZM174,382l-.9,1.2,1.7.2Zm-3,3.7-.9,1.3,1.7.1Zm2.9-29.9,1.3-.4-1.5-1.5-.3,1.6-1.1-.8-.3,1.7,2-.5Zm-1.5,3.8,1.1-.3.5.7.3-.8.1-.1-.1-.1.2-.9.7,2.4,1.7-2.4-2.2-.5.1-.4-1.9.3-.9-.9-.3,2.1,1-.3Zm7.5-5.8-1,1.4,2,.3Zm-3.7,10.6-1.2-1.7-.9,1.4Z" fill="#68322e"/>
      <path id="Path_14685" data-name="Path 14685" d="M172,364.8l.7,1.6,1.4-1.6Zm2.3-3.7.7,1.6,1.3-1.6Zm.6,5.5L174,368l2,.3ZM170,380.1l-.8-1.4-.8,1.2Zm9.5-33,.9,1.8.9-1.8Zm3.7-10.8h-1.8l1,1.8Zm-1.6,22.3.7-1.8h-1.8Zm-2.5,1.8,1,1.8.8-1.8Zm-3.4-24.1,1.3,1.6.1-.1v.1l.3-1.1h-.1l.2-.8Zm3.5-10.9.4-1.6-1.4.2.1.2-.8-.5-.1,2.5,1.6-1.1Z" fill="#68322e"/>
      <path id="Path_14686" data-name="Path 14686" d="M184.7,328.6h-1.5l.8,1.5Zm-5.5-2.7-1.5.1.8,1.5Zm-8,48.2.8,1.4.7-1.5Zm4.8-4.9-1.1,1.4,2.1.3Zm10.4,7.9.3-.9-.9.3ZM174.1,369l-.6.6-.2.1.1.1-.2.3h.4l.4.4.1-.4h.4Zm-1.5,3.1.3-1.1-1,.2Zm.5,5.6,1.1-.4-1-.6Zm5.8-21,1-.9-1.1-.5Zm-.3-13.5.2,1.4,1-.9Zm-1.1,15.7.9-.9-1.1-.5Zm-3.2,2.2-.8-1-.1.3-1.8-1.4-.6,3,2.1-1Zm8.3,2.2.7.8.4-1.1ZM177,351.6v-1.2l-1.3.6Zm-3-5.2-.6,2,2-.7Zm1.3,7.8,1.3,1.2-.8.2.7.8.3-.8v-.1l.1-.1.2-1.9Zm2.7-3.7.3-2-1.8.6Zm-1.9,16.9.3-2.1-1.8.7Zm-3.7,10.1.4-2.1-1.9.6Zm13.2-37.6,1.2-.2-.9-.7Zm-4.6.9-1.1.5,1.1.5Zm-4.5-7,.9-.3,1.2,1.8.6-2.8,1.1.4-.1-1.2-1,.7-2.2.4.4.6-.8-.7,1.6-.7-.4-.4-.1-.9,2.5.4-.8-2.6-2,2-.7-.1,1,1.2-1-.8-.4,2.1.2-.1Zm.7-4.6.6-.6-.8-.3,1.5-.7-1.1-.9-.4,1.6.1.8-.1-.1-.3,1.3,1.2-.6Zm6.5,36.2.1.7.5-.3Zm-5.6-2.1-.4.5.7.1Zm-6,14.6-.8.4.6.5Zm3.4-2.2.1.7.5-.4Zm22.2-21.5.7-.3-.5-.4Zm-4.4,4.4-.5.4.7.3Zm-10.1-7.3-1.3-.6.3,1.4Zm-3.4-7.2-.8.9,1.2.1Zm-4.8,9.1.3-1.1-1,.2Z" fill="#68322e"/>
      <path id="Path_14687" data-name="Path 14687" d="M183.5,323l-.2,1.1,1-.3Zm-3.2,0,1-.3-.8-.9Zm-.4,29.3-1.9-.7.6,1.8Zm6.5-14,.8-.6-1.1-.4Zm-2.2,2.9.4,1.1.2-.2.2.8.8-.6-.8-.3.3-.3Zm1.6-16.1.2-.2-.4-.2-.3-.4-.1.2-.9,1.5-.5-.4v1.2l.9-.5-.3-.3,1.9-.2Zm-2.9-5.4-1,1.7,1.9-.3Zm-1.7,8.2-.8-1.5-1.2,1.6Zm-7.6,45.5.8-.8-1.2-.1Zm5.2-8.7-.4,1,1.1-.1Zm-2.1,2.5.8,1.1.6-.9ZM173.1,380l.9-.9-1.2-.1Zm5.6-9-.4,1.1,1-.1Zm-7.4,9.8,1.2-1.5-1.6-.4Zm-2.7-4.9-.7,3,2.7-1.2-.8-.7,1.5-.3-1.2-1,.5-.1-1.2-.9,1.8-.8-.7-.5.4-.8.8.5-.2-1.3-.1.1-.1-1-.9.5.9.5-.2.2h-1.5l.5.9-.9-.8-.8,3,.8-.4L169,376l.5-.1-.1.7Zm2.7-6,1.1.1-.5-.8.5-1.4-1.8.1.6,1.1-.3.5-1.2-1-.8,3,2.7-1.3Zm-2.5,18,.8,1.4.7-1.5Zm4.4,2.3.5-.4-.7-.3Zm-2.8,2.6.3.9.8-.8Zm5.5-6.9,1-.1-.7-1Zm-4.2-19.7-.2-.8-.4.3-.7-.5-.6,3,2.7-1.3Zm1.2-2.7.5.1-.6-.9-.4.5-.5-.4,1-.3-.7-.7-.3,1-.8-.6-.6,3,2.7-1.4Zm3-15.3,1,.5v-1.2l-1.2.6.1.1-2.5.4,1.8,2.4Zm-1-3.8-.2-.1v.1l-.6.1.5.6-.2.8.6-.1.2.2-.3.3.6.1.4.6.2-.5.9.2-.7-1.2v-.1l.4.5.3-1.2.6-.2-.5-.5.3-1-1.5.3-.7-.9.9-.2.1.2.2-.3.7-.2-.5-.3.1-.1,1-.4-1.4-1.4,1.2-.7-2.2-1.5-.4,3.1,1.3-.7-.1.8-.9-.1.3.4-.3,1.4-.5-.6-.5,2.5,1-.4.3.4Zm0,8.8-1.8-1.5,1.6-.7-1.4-1.2-.5,2,.1-.1-.6,2.8Zm-7.3,26.7-.6,2.9,2.6-1.3Zm1.2,2.7-1.9,1.9,2.9.9Zm3.5-.6-.6.6-.8-1.2-.8,1.2,1.5.1-1.1,1.2,2.9.8ZM171,395.1l1.8.2-.9-1.4Zm-3.1,3.8,1.7.2-.8-1.4Zm1.2-7-.2.1.3.3.1.4.1-.2.1.1v-.1l1-1.3-.5-.1.3-1.9-1.8.6,1.3,1.3-.9-.3Zm-2.4,10.5-1.2-1,.5-.1-1.2-.9,1.8-.8-.7-.5.6-1.2.8.4-.2-1.2.6.2-1-2.8-1.9,1.9,2.1.7-.8.5.3.2h-1.3l.4.9-.9-.8-.8,2.9.8-.4-.3,1.3.6-.1-.1.6-.8-.6v2.6l2-.9-.8-.7Z" fill="#68322e"/>
      <path id="Path_14688" data-name="Path 14688" d="M167.4,401.3l.7-1.6-1.5.1Zm.4,1.9.3-2.1-1.8.6Zm-.6,1.3.2-.9-.7.3Zm3.8-2.3.5-.4-.7-.3Zm-2.4,3,.8-.9-1.1-.1Zm5.3-7.8,1-.1-.6-1Zm-7.6-5.1,1.9-.8-.8-.7,1.5-.3-1.3-1,.6-.1-1.2-.9,1.7-.8-.6-.5.3-.8.9.5-.2-1.3-.5.3h-1.4l.5.9-1-.8-.7,3,.8-.4-.3,1.2.6-.1-.1.7-.8-.7-.5,2.1-.2-.1-.6,3,2.7-1.3Zm5,4.4-1.1-2.8-.6.6-.7-1.2-.9,1.3,1.5.1-1.1,1.1Zm6.8-54.6,1.8-2.4-2.6-.5Zm2.1,26.3.1-.7-.7.4.3.3-.6.8h1.2Zm-.6,6.5-.1.9.9-.4Zm-.5-39.9,1.2.6v-1.2Zm-3-1.2-.5,2.1,1.9-.7Zm5.7-1.4-.7.3.1-.1-.9.1.2.3-.5.3,1.6,1.2Zm3.2,2.9-1.3-.5.4,1.3Zm-3.3-6.1-.5-.8-.7.9Zm-3.5-8.6-.3,3.2,2.6-1.7Zm2.1,53.3h1.2l-.4-.9Zm-6,.5.2.3-1.4-.1.6,1.7,1.1-1.2.1.2.1-.5.1-.1H175l.1-.5Zm6.2,6.2.9-.4-.9-.5Zm-3-9.9-.8.9,1.3.3Zm3.4,7.6.6-1-1.2.1Zm3.3-8.8,1-.3-.9-.8Zm3.4-4.7.8.6v-.9Zm1.2,5.5.6-.5-.8-.2Zm4.2-5h.8l-.3-.7Zm-7.5,8.9-.2,1,.9-.5Zm5.3-64.7.4-.1-.8-.5-.1-.1-.8,1.2,1.7.1Zm-7.3,6.6-1.1,1.1,3,.9-1.2-2.8-.6.6-.8-1.2L182,316Zm2.4-.9-.8,1.3,1.7.1Zm-1-26.3,1.3-.4-1.6-1.5-.1,1.6-1.2-.7-.3,1.6,2-.5Zm-1.4,3.8,1.1-.3.5.7.3-.9h.1l-.1-.1.2-.9.7,2.4,1.7-2.5-2.3-.4.1-.5-1.9.4-.9-.9-.2,2.2.9-.4Z" fill="#68322e"/>
      <path id="Path_14689" data-name="Path 14689" d="M189.9,288.1l2,.3-1.1-1.7Zm-3.4,7.9-1,1.4,2.1.2Zm-2.3,3.7,1.3-1.6-2,.1Zm2-4,1.3-1.6-2,.1Zm.3,4.2-1,1.4,2.1.3Zm-6.3,13.4,1.7.2-.9-1.4Zm11.1-31.5.8-1.8h-1.9Zm2.4-12.6h-1.8L193,271Zm-1.9,20.7,1.1,1.7.7-1.8Zm.4,3.6-1.8.1,1.2,1.7Zm-6.3-24,1.4,1.5v-.1l.1.1.2-1.1h-.1l.2-.8Zm3.2-11,.4-1.7-1.4.3.1.2-.8-.4v2.5l1.5-1.3Z" fill="#68322e"/>
      <path id="Path_14690" data-name="Path 14690" d="M194.7,261.5l-1.5.1.9,1.5Zm-5.6-2.4-1.5.1,1,1.4Zm-5.3,49.8.6-1.5h-1.5Zm3.7-6.5-.9,1.4,2,.3Zm10.9,6.7-.9.4.6.6Zm-12.8-6.8-.5.6-.2.1.1.1-.2.3.4-.1.4.5v-.5h.5Zm-1.3,3.2.3-1.2-1.1.2Zm.6,5.5,1.1-.4-1-.6Zm6-22.2-1.1-.5.2,1.4Zm-1.4-11.2,1-1-1.2-.4Zm-.9,14.3.9-.9-1.1-.5Zm-3.2,2.3-.7-1-.2.3-1.8-1.3-.5,3,2-1.1Zm9.7,1.9-1.1.3.7.7Zm-7.2-11.5v-1.2l-1.3.6Zm-3.2-5.1-.4,2,1.9-.7Zm1.6,7.8,1.3,1.1-.8.3.7.7.3-.8h.1v-.2l.2-1.9Zm2.6-3.8.2-2.1-1.8.8Zm-1,15.1-1.8.6,1.5,1.4Zm-3.7,12.2.3-2.1-1.8.7Zm12.2-39-.2.9,1.2-.3Zm-4.8,1.9-1,.6,1.1.4Zm-5-6.8.9-.3,1.3,1.8.5-2.8,1.2.4-.1-1.2-1.1.6-2.2.6.4.5-.7-.6,1.5-.8-.4-.3-.1-1,2.5.3-.9-2.5-1.9,2-.7-.1,1,1.2-1-.7-.3,2,.2-.1Z" fill="#68322e"/>
      <path id="Path_14691" data-name="Path 14691" d="M187.2,262.3l.6-.5-.7-.3,1.4-.8-1.1-.9-.3,1.7H187l.1.8-.1-.1-.2,1.3,1.1-.7Zm7.9,36.2.2.6.5-.3Zm-5.6-2-.4.5.8.1Zm-5.6,14.8-.8.3.6.5Zm3.3-2.3.1.6.6-.3Zm21.9-22.9-.2.7.7-.2Zm-9.5,2.9.7.3-.2-.7Zm-6.8-5.4.3,1.1-.2.4,1.1-.1-.4-.4.5-.4Zm-3.1-5.6h1.1v.1l.1-.1.4-.5-.6-.1v.2l-.2-.5Zm-3.7,8.3.3-1.1-1,.1Zm7.2-29.2,1-.3-.9-.9Zm-2-1.4-.8-.8-.2,1.1Zm-1.6,30.7,1.2-1.2-1.9-.6Zm5.8-11.4.3.8.7-.7-.8-.3.4-.3-1.1-.4.4,1Zm-.2-17.7-.9,1.7-.6-.4.1,1.2.9-.5-.4-.3,1.9-.3Zm-6.6-7.2v2l1.5-1.1Zm4.1,2.6-1,1.7,2-.3Zm-1.5,8.3-.8-1.6-1.2,1.7Zm-5.9,45.7.8-.8-1.2-.1Zm4.9-8.9-.3,1.1,1-.1Zm-1.1,3.7.5-1h-1.4ZM185,313.3l.8-.9-1.1-.1Zm5.3-9.1-.3,1.1.9-.2Zm-7.1,9.9,1.2-1.5-1.7-.4Zm-2.8-4.7-.7,2.9,2.7-1.3-.8-.6,1.5-.4-1.3-.9.5-.1-1.1-.9,1.7-.8-.7-.6.3-.7.9.5-.2-1.4-.2.1-.1-1-.9.5,1,.6-.3.2h-1.4l.5.9-1-.8-.6,3,.8-.4-.3,1.2.6-.1-.1.7Zm2.5-6.2,1.1.1-.6-.8.5-1.3-1.8.1.7,1-.4.6-1.2-1-.6,2.9,2.7-1.2Zm.3-3.7-.2-.7-.4.3-.7-.5-.5,3,2.6-1.4Zm1.1-2.6h.6l-.7-.9-.4.5-.5-.4,1-.3-.8-.7-.2,1-.8-.6-.5,3,2.6-1.4Zm2.4-15.6,1.1.4-.1-1.2-1.2.7h.2l-2.6.5,2,2.4Zm-1.1-3.8-.2-.1v.1l-.6.1.5.6-.1.9.6-.2.1.2-.2.3.6.1.4.5.1-.4,1,.1-.7-1.1v-.1l.3.4.3-1.2.6-.2-.4-.4.2-1.1-1.5.3-.7-.8.8-.2.2.2.1-.3.8-.2-.5-.4v-.1l1.1-.4-1.5-1.3,1.2-.8-2.3-1.4-.3,3.1,1.3-.8-.1.8h-.8l.2.4-.2,1.4-.5-.6-.5,2.5,1-.4.3.4Zm.3,8.8-1.9-1.5,1.6-.7-1.5-1.2-.4,2h.1l-.5,2.8Zm-6.5,27-.5,3,2.6-1.4Z" fill="#68322e"/>
      <path id="Path_14692" data-name="Path 14692" d="M179.8,319l-.7.3.9.5V319l1.8.6-1.1-2.8-.8.9-1.1-.7v2l.3-.2Zm9-43.8,1.7-2.5-2.6-.5Zm2.9,26.4.2-.8-.8.4.4.3-.6.8h1.2Zm-.4,6.5-.1.9,1-.5Zm-.8-39.5-.1-1.2-1.2.8Zm-4.3-1.7-.5,2.2,2-.8Zm4-.6,1.6,1.3.1-2.1-.7.3.1-.2-.9.2.3.2Zm5,2-1.3-.5.4,1.2Zm-4.6-6h1.1l-.5-.9Zm-2.6-8.5-.2,3.1,2.5-1.8Zm4.7,52.3-.7,1,1.2-.1Zm-6.7,1.6.2.3-1.4-.1.6,1.6,1.1-1.2.2.2.2-1Zm6.4,5.1v.9l.9-.4Zm-3.3-8.9-.8.9,1.4.3Zm4.2,6.5-1.2.2.5.8Zm2.6-9-.1,1.1,1-.3Zm-2.7-8.4-.8.4.9.5Zm.4,5.1.1.7.6-.5Zm4.3-4.4h.7l-.4-.7Zm-1.6-19.2.1-.6-.7.3Zm-1-19-.7.2.5.5Zm.7,6.9v.7l.7-.4Zm.1,17.5.7-.9-.8-.2-.5-.6-.1.9.4-.1Zm5.5,3.9.2-1-.9.4Zm-4-1.1-1.4-.4.2,1.2Zm5.7,1.4,1,.1-.4-1.1Zm-4.9-8.6.9.7.3-.9Zm.2-5.1-.8-.5-.2.5-1-.3.4,1,.6-.5v.1Zm3.4,2.3.6.3v-.8Zm-.3-6.6-.8-.2.3.7ZM196.4,247h-1.8l1,1.8Zm1.2-9,.7-1.8h-1.8Zm-7.1-1.7,1.4,1.6v-.1l.1.1.2-1.1h-.1l.2-.8Zm3.5-10.9.5-1.6h-.6l.1-.2-1,.2.1.2H193l.1.2-.7-.5-.1,2.5,1.5-1.2Z" fill="#68322e"/>
      <path id="Path_14693" data-name="Path 14693" d="M198.9,230.1l.6-1.6-1.5.1Zm-4.9-4.2-1.5.1.9,1.5Zm-.1,18.5,1-.8-1.2-.5Zm-1.8,7.1.1-1.2-1.3.5Zm-3-5.2-.5,2,2-.7Zm4,4.1.3-2.1-1.8.7Zm5.5-9.9-.8-.9-.4.9Zm-2.5.2-1,.5,1,.5Zm-4.8-6.9,1-.3,1.2,1.8.6-2.8,1.1.4-.1-1.2-1.1.7-2.1.4.3.6-.7-.7,1.5-.7-.4-.4-.1-.9,2.5.4-.7-2.6-2,1.9-.7-.1.9,1.2-.9-.7-.4,2.1.1-.1Z" fill="#68322e"/>
      <path id="Path_14694" data-name="Path 14694" d="M192.1,229.2l.5-.6-.7-.3,1.5-.7-1.2-1-.3,1.7.1.8-.2-.1-.2,1.3,1.1-.6Zm6.3,22-1.3-.6.3,1.3Zm-4.3-6.3,1.1.1h.2l-.1-.1.5-.4-.7-.2.1.2-.3-.5Zm-3.6,7.1-.7.1V252l-.9.5.9.3v-.2l.4.5Zm7.6-27.9,1-.3-.8-.9Zm-2.9-1.2,1-.3-.8-.8Zm5.7,19.3-1.1-.4.4,1Zm.4-5.1.3,1.1.8-.6Z" fill="#68322e"/>
      <path id="Path_14695" data-name="Path 14695" d="M198,243.1l.3,1.1.8-.6Zm1.2-17.1-.6-.4v1.2l1-.5-.4-.3,1.9-.2-1-1.5Zm-4-8.1-1.4-.8,1-.5-.6-.6.6-.5-.7-.3,1.5-.7-1.1-1-.4,1.7v.7l-.1-.1-.3,1.3-.1,1.9Zm2.5,1.7-1,1.8,2-.3Zm-1.7,8.3-.8-1.6-1.1,1.7Zm-4.9,20.2,1,.5v-1.2l-1.3.6h.2l-2.5.5,1.8,2.4Zm-1.1-3.8-.1-.2v.2l-.7.1.5.6-.2.8.7-.1.2.2-.3.3.6.1.4.6.1-.5,1,.2-.7-1.2v-.1l.3.5.3-1.2.7-.2-.5-.5.3-1.1-1.6.4-.6-.9.8-.2.1.2.2-.3.8-.2-.5-.3v-.1l1.1-.4-1.4-1.4,1.1-.7-2.2-1.5-.4,3.1,1.3-.8-.1.9-.8-.1.2.4-.2,1.4-.5-.6-.5,2.4.9-.3.3.4Zm3.3-2.3,1.8-2.4-2.7-.5Zm1.9-6.4-.1-1.2-1.2.6Zm-4.3-1.9-.5,2.2,1.9-.7Zm4-.5,1.5,1.3.2-2.1-.6.3v-.1l-.8.1.2.3Zm3.7,1.6.4,1.3.9-.8Zm-2.1-5.6-.5-.9-.6,1Zm-3.5-8.6-.3,3.2,2.6-1.8Zm6.7,25.5.8-.1-.6-.7Zm1.2-5.1-.7.3.6.3Zm-.7-18.5-.6.2.4.5Zm-2.7-9.1-1.2,1.5,1.9.1Zm-1.8,5.1-.9.8v-.4l-.8.4.5.3-1.1.9,3,.6Zm6,4-1.3-.5.4,1.3Zm-3-6.2-.5-.9-.7.9Zm2.1,13.2v.6l.7-.3Zm-1,3.6.9-.2-.8-.6Zm4.3,2.2.6.3v-.8Zm-.1-6.7-.8-.2.3.8Zm-15,84.3-.7.3.7.3Zm-1.8-18.2.5.5.2-.7Zm1.5,6.7v.7l.6-.4Zm.1,17.6.6-1-.7-.1-.5-.7-.2.9.5-.1Zm-2.2,5-.7-.7-.3.8Zm7.6-1.2.2-1-.9.4Zm-4-1.1-1.3-.4.2,1.2Zm6.3.4-.5,1,1,.1Zm-5.4-7.6.9.8.3-1Zm3.5-2.8.7.3v-.8Zm-.7-6.1.4-.5-.8-.2.2.3-.8-.2.2,1.1.7-.7Zm-1.9,27,.1.6.6-.4Zm4.4-3.8h.7l-.3-.7Zm-3.9,10.4v.8l.6-.3Zm-3.5,6.5-.1-.6-.6.5Zm2.2-18.4-.5,1,.8.1.6.4.1-.9-.5.2Zm2.3-5.7-1.1.3.9.6Zm-3.2,2.2-1,1.1,1.4.1Zm-7.3,1.8.4-1.1-1,.1Zm5.6,6.9,1.2-.4-1-.6Zm2.9,5v-.9l-.9.5Zm-4.7-2-.7-.3.2.8Zm1.9,5.8-.4.6h.8Zm8.5-34.1-.1.9.8-.4Z" fill="#68322e"/>
    </g>
    <path id="Path_14696" data-name="Path 14696" d="M244.1,242l28.9-3.3-3.4-32.2L195,206l-7.5,49.2S225.6,243.9,244.1,242Z" fill="url(#linear-gradient-6)"/>
    <g id="Group_1109" data-name="Group 1109">
      <path id="Path_14697" data-name="Path 14697" d="M243.9,217.9l-1.7.9,1.4.8Zm13.2-.4.5-1.4-1.5.6Zm1.4-5,1.4-.1-.7-1.3Zm6.3-5.8-1.8,2.8,2.8-1.3Zm-6.6,8,.5-1.2-1.5.1Zm-18.3,4.8,1.3,1.4.7-1.6Zm-17.5,4.4.7-1.6-2.1.2Zm32-10.3.1-.4-.7.4.1-.9.2.6.7-.7-.8-.3.1-.9-.4.1-.3-.2-.2.4-.6.1.4-1.2-1.5.6.9.7-1.3.4,2.7,1.8v-.4l.2.1.9,1,.6-1.2Zm-3.3.8-1.6.2,1,1.1Zm-7.7,16.4.9.2-.2-1Zm-.2-5.9v.8l.8-.4Zm6.6,4.8.2-.9-.8.3Zm-18.3.7,1,.2-.3-1Zm.7-5.6-.9-.3.1.7Zm5.8,4.5.2-.9-.8.2Zm-3.9-1.3,1,.2-.3-1Zm-.2-6,.1.8.8-.4Zm6.7,4.8.2-.8-.8.2Zm2.7-4.1,1.7-.8-.9-.5.2-.1-1-.5.1.3h-.2Zm3.7,2.2.2-.8-.8.2Zm-7.1-3.8h-1.1l.7.8Zm-1.6-2.5.7.4.1-.9Zm3.1,3.9,1.3.1-.5-1.3Zm9.9-.2.7-.6-1-.4Zm-4.4-3.7-.9.4.7.4Zm6.5-2.6-.3.8.9-.1Zm-.8.8.4-1.5-1.5.6Zm2.2-3.5,1.5-.5-1.3-.9Zm.4,1.9.4,1,.7-.7Zm-.8,3.6.1-.8-.8.5Zm-8.4-3.6-.2.5-.1-.1-.3.7.9-.1-.3-.2h.4Zm4.4,2.1-.1-.9-.7.6Zm-7.2-1.1.2-1.5.2.2.3-1.8-1.7.9,1,.6-1.4.7Zm2.4-4.6-2.1,1.1,1.8,1.1Zm-14.8,7.9-.4,1.8,2.1-.5Zm7.8,3.2.7-.6-1-.4Zm-4.4-3.7-.8.4.6.4Zm6.2-1.9.9-.1-.6-.6ZM217,212.6l.9-.1-.6-.6Zm30.4,9.9.6-.5-.8-.3Zm2.1,1.8,1.1-.8-1.4-.7Zm-4.4-1.2.6-.4-.8-.4Zm-5.5.4-.3.6.8-.1Zm-34.9,7.8.9.2-.2-.9Zm-.1-5.1.8-.4-.9-.4Zm6.6,4,.1-.9-.8.3Zm-6.7-8.6.1,1.6,1.7-.8Zm3.8,3.9.2-.9-.8.2Zm-7.1-3.8-1.1-.1.7.9Zm1.9.7.3,1,.7-.6Zm-4.2-1.9.1-.9-.8.5Zm4,.3-.8,1.2,1.3.1Zm5.6,1.4.2.8.6-.5Zm3.4,1.8-1.3-.7.3,1.5Zm-5.5-.3.6-.5-.8-.3Zm-5.7.9.7-.1-.5-.5Zm21.2,5.9.9.2-.2-1Zm-.1-5.9v.7l.8-.4Zm6.7,3.9-.7.2.6.6Zm-15.8-.8.9.2-.2-1.1Zm6.6-2-.8.1.6.7Zm4.3-4.2-1.9-.7.1,1.6Zm-14.7,0,1.7-.8-1.8-.8Zm16.8,2.2-.8.3.7.6Z" fill="#260807"/>
      <path id="Path_14698" data-name="Path 14698" d="M218,221.6l.4-.8h-1.1Zm3.9,13.6.7-.6-1-.4Zm-4.6-2.9.1-.9-.8.4Zm6.4-2.7h.9l-.6-.7Zm2.2-7.4.6-.5-.8-.4Zm1.9.3.3,1.5,1.1-.9Zm-4.4-.5.2.8.6-.5Zm-5.5,1.7.7-.1-.5-.5Zm-10.2-2.8.5-1.4-1.5.5Zm2.8.5,1.6,1.5.4-1.1v.7l.8-.4-.8-.4.4-.9Zm25.8-1.3,1.5.1-.6-1.5Zm-7.2,8.5.2-1.2-1.2.3Zm-12.7-6.9h-1.6l1,1.3Zm15-5.1,1.4,1.8.8-1.8Zm-7.5,10.9,1.2-.6-1.3-.5Zm-14.5,2.2,1-.9-1.4-.3Zm12.8-9.9-.8-.7.5-.1-2.1-1.3-.2,2,.5-.1-.2.6Zm3.8,6.3.8-.8-1.2-.5Zm-8.8-2-1.8,1,1.5.9Zm9.4-5.1-.1,1.9,1.6-.7Zm-1.5,1-1.9.7,1.8,1Zm7.5-1.8-1.9.7,1.8.9Zm-32.8,2.1,1.8-1.2-1.6-.8Zm-1.9-1.7,1.7-1.1-1.5-.8Zm36.5-1.1-.5-.2.1.7.4-.1-.1.6,1.8-1.1-1.6-.8Zm12.4-2.1-.1,1.9.5-.4.2.8.6-.4-.7-.4,1.1-.7Zm-2.3,3.5-.1,1.3,1.1-.8Zm7.7-5.5-.1.4H252l.1.3v.6l.1-.1.1.6,1.1-.8-.6-.2.4-.3Zm-33.7,9.5,1.1-.7-1-.5Zm-15.8-4.6h.3l.3.2v-.2l.1.2-1.2.7,1.6.9.2-1.7v-.3l.1-.1-.2-.1.6-.4.1,1,1.1-.5h.3l-1,.6.9.4-1.6.6,1.8,1,.1-1.4,1,.5.3-2.6-.9.5-.3-.8-.4.7-.4-.4-.1.2-.3-.2.3-.2-2.3-.7.1.5-1.5.9,1.1.6Zm-2.1-.6v-.2l.1.2.2-.4.4.7,1.7-2.2-2.3.1v-.1l-.1.1h-.5l.1.2-1.3.8,1.7.8Zm.1-.9.1.1h-.1Zm-3.9-1.5,1.6.8v-.6l.2.1-.2.4,2.9-.4-.7-.6.4-.2v.4l1-.7-.4-.1-1.6-.8-.1.8-1.1-1.1.8-.5-1.5-.8-.1.5-1.5-1.5.2,3.4,2.3-.3-.2.9-.3.2.1-1Zm19.7,3-.8,1.8,1.7-.2Zm-2.4-.9,1,.6.1.2.1-.1,1,.5.3-2.7Zm45.9-7.9-2.1.6,1.9,1.3.1-1.1,1,.9.4-1.4-1.4.5Zm2.6.9.2-1.9-2.2.6Zm-26.7,6.8,1.8,1,.3-2.3Zm-18.6,10.6,1.1-.1-.8-.8Zm14.4.1,1-.9-1.4-.6Zm-6.2-5.4-1.2.5,1,.7Zm8.9-2.5,1.3-.1-.9-.9Zm24.4-13.4h-1.9l1,2.1Zm-1.4,4.8-.2-.2v.3l-.3.1.1-1.2-.9.3-.9-.3.2.4-.5.2,1.2.9,1,.8-.1.3,1.5-.7-1-.8.1-.1Zm1.5-3.7,1,.8.4-1.5-.6.3-.7-.6-.5,1Zm-.2,1-1.5.1.1.1-.8.5.7.4.1-.9.9,1.1Zm-18.5,6h-.3l.4.4v.6l.3-.2.6.6.7-1.5Zm15.3-5.9-1.6.1,1,1.1Zm-21.4,14.4,1,.2-.3-1Zm6.5-1.1.2-.9-.8.2Zm3.5-5.4.2-.2-1-.4.1.3-.2-.1v.5l-1.4-.8-.2,2,1.6-1.1.1,1.1,1.7-.9Zm-5.3-.4.7.9.4-.8Zm.2-2.1.1-.8-.8.4Zm12.3,3.3.7-.6-1-.4Zm-4.4-3.7-.9.4.7.5Zm-.9-3.4-.2.5-.1-.1-.3.7h.9l-.3-.3h.4Zm3.6,1.9.8.2-.1-.8Zm-7.8-1.7,1.4.8.1-.3.7.8.7-1.6-1.3.1.1-.7Zm-1,1.2-2.1,1.2,1.8,1Zm-3.5,2.2.7-.2-1.4-.9-1.6-1-.2,1.1-1.4.8,1.2.7v.3l.4-.1.2.1.1-.2,1.3-.4-.3,1.6,2.7-.6Z" fill="#260807"/>
      <path id="Path_14699" data-name="Path 14699" d="M237,210.6l-.4,2.3,2.6-.6Zm12.4,8.4-.5.2.9.8.1-.7.7-.6-1.4-.7Zm-4.3-.6.6-.5-.8-.4ZM206.2,213l-.7-.7-.3.8Zm3.8,2.8-2.5,1.5,1.1.6.1.4.2-.2.8.5Zm3.4,6.3-.7.8.3.1-.7.1,1.3,1,.3-1.3-.3.1Zm5.1-1,.6.6.1-.3,1.2.6.1-1.7-1.8.7Zm-.1-5.1h-1.1l.7.8Zm7.3.6.2.8.6-.5Zm2.8,1.5.1-.3-.3.2-.5-.3.1.5-1.1.7,1.6.8.1-.8.7-.5Zm-4.9-.1.6-.5-.8-.3Zm-5.5.4-.2.5h.7Zm-9.9-3.7-1.5.6,1,.9Zm2.3,2,1.6,1.4.4-1.1v.7l.8-.4-.8-.4.4-1Zm19.1-2.3-1.5,2.3,2.4.3ZM213.9,218l-1.6.3.7.6-1,.3.1-.4-1.6.3.1-.8-1,.4.9.8v-.3l1.3,1,.2-.9,1.4,1.4.8-2.2-.4.1Zm-9.9-4.6-1.8,1,1.6.9Zm24.4,1.5.2-1.9-1.8,1.1Zm-7.9.7-1.9.7,1.8,1Zm-14.4.2.1-1.4,1,.6.3-2.3,1.4-.7-1.8-.8.1,1.3-2.2,1.3.9.4-1.6.7Zm27.2.7,1.7-1.1-1.6-.8Zm19.9-7.4-1-.5-.1,1.2Zm-34.6,7.8-.1,1.2,1.1-.7Zm-21.8-6.4,1.6.9.2-1.6h.3l-.3-.3v-.1l-.1.1-2.6-2.7.1,3.4,1.7-.2Zm67.7-3.9h-4l1.1,2.1Zm-36.6,10.7-1.4-.6.3,1.4Zm-.4-9.3,1.3.3-.3-1.5Zm21.8-1.4h-3.6l2,1.7Zm-7.4,2.5-.8.4.7.4Zm13-.9-.1.3,1.5-.5-.6-.4.4-.3-.2.4.9-.1-.5-.5.6-.5-2.6.1.1,1.8Zm-35.9-.4-.6,1.2H220Zm22.4.8,1.9,1.2.2-1.7.6-.1-.5-.5.6-.9h-3l1.3,1.5Zm-.3,4,.3,1,.7-.6H242l.2-.2v.1l.1-.2,1-.6-1.5-.8-.1.7h-.1l.1.1-.1.7Zm-4.2-2.7-.7.4.6.4Zm13.9,3.1-.8-.4.2.8Zm-21.5-.4-.8-.3.2.8Zm-22.5-3.5-1.8,1,1.6.9Zm16.4,2.2-1.9.7,1.9,1Zm22.9-3.5-1.6-.8-.1,1.9.9-.6Z" fill="#260807"/>
      <path id="Path_14700" data-name="Path 14700" d="M246,209.1l.1.1-1.1.5,1.4.9.2-1.1.7.5-.1.8-.4-.2-.1,1.4-.7-.2.1.3-.1-.1v1.7l1.6-.7-.3,2,3.2-1-2.8-1.7-.1.4-.8-.3,1.2-.7.9.8.5-1.1h-1l-1-.5.7-.4,1.1.8.1-1,.2.1.1-.5.9,1,.6-1.2-1.5.1v-.3l-.2.2.1-1.1,2.1,1.5.3-2.1,1.9,1.3.3-2.6-2.6.7.5-.8h-2.7l.8,1.4-.5.1V208l-3.4.9h.1l-1-.6-.1,1.3Zm-44.2-1.3,1.6.8,1,.9.4-.8,1.2.7.1-.7.1.4,1.4-.8.7.9-.5.3.9.5-1.6.6,1.8,1v-1.5l1.1.6.3-2.7-.4.3,1.5-1.7h-5l.6.9-1.1-.4.1.6-.9.5.8-1.6h-4.7l1.1,1Zm-2.6,1.2-.7,2.3,2.5-.3.1.1-.1.1h-.2V211l-.1.1h-.5l.1.2-1.3.8,1.6.8.1-1,.7,1.2.2-.3,1.6.8.1-.6v.3l.1-.1v.1l.1-.1,1.8-1.1-2.3-.8.1.5-1.5.8,1.4-1.8.6-.4.5-.1-.2-.1.4-.2.2.9,1-.6-1.1-.3-1.6-.8v.2l-.7-.7.4-.3-1.6-.9-.2,1.8-.5.3-1-.6Zm3.4,1.7h.1v.2h-.3l.4-.3Zm-1.2-1.5.5-.3-.6,2-.1-.1.2-1.6Zm-.2,1.6Zm18.1-1.6-.8,1.8,1.7-.2Z" fill="#260807"/>
      <path id="Path_14701" data-name="Path 14701" d="M210.5,208.4l.8,2.7-.6.4.3-1-1.5.5.8.7-1.4.8,1,.5-2.1-.4,1,3.3,1.3-1,.6.4.5.5.1-.8.4.3v.4l1.1-.5.7.6.2-.6.2.2v-.1l1.6.9.2-1.8.2.2-.2.5,1.7-.2-.7-1.3v-.1h-.1l-.1-.2-.1.3-.5.1v-.2l1.3-.4-1.7-1,.2-.5-.7.2-.6-.4-.1.6-1,.3.8.8-.1.6-1.9.6-.1-.1.1-.3-.4.1h-.1l-1,.2.7-.6v.3l.6-.5-.8-.4v.2h-.2l.2-2.1.1.5,1.8-1.5,1.3,1,.2-.9,1.5,1.4.2-.6,1.9,1.1.3-2.7-1.2.7,1.6-3.1,1.5,1.8.7-.8-.6,1.4h-1.1l1.2,2.3h-.7l.6.8.4-.8h.2l1.8-2.1.4.1-.4,1.5.8-.1-.2.2,1.2.3v.3h-.1l.1,1.6.4-.2.1.2-.9.1-.2-.2v.2h-.2l.1.2v.7l-1.7-1,.1-.1-1-.5-.1,1.3.7-.4-.2,1.3-1.3-1.2.1-.8-.7.3.1-.9-2.5,1.5,2.2,1.2.1-1.2.4.3-.4,1.5,1.8-.3v.6h.1v.4h-.1l.1,1.4H221l1.3,1.4.2,1.8,1.9-1,1.3-.5-1.6-1.3L224,220l-1.5-.6.6-1.5h-.9l1.3-.6-.7-.3.6-.3,1.5.7.1-1.7-1.7.6-1.2-.4h.1v.1l1.6-.5v.2l1.1-.5.2.2.1-.3.2-.1-.1-.1.1-.2.5.9.6-.9-.1,1.8,1.6-.7-1.5-1.2.7-1.2-1.9.1.8-.4-.7-.3.6-.3,1.5.8.1-1.7-1.7.6-1.2-.4,1.7-.5v.2l1.6-.7-1.6-1.3v1.1l-1.8-1.2.8-1.2-1.5.1.4-.8-2.2-.1,1.3,1.8.5-.9.6,1-.2,1.6-.1-.1-.1-.3-.1.1-.8-.7-.2-1.2-1,1h-.1l-.8-1.7,1-1.2h-7.7l-3.2.1,1.6,2.2-2.3-.7Zm3.5,6,.1-.2,1.6-.5-.5.3-1.2.7v-.3Zm-3.3.2.2.1-.2.1v-.2Zm-.6.2.4-.3.1.1Zm6.6-4.6.1.2-.2.2.1-.4Zm-3.2-1.2,1-1.9,1.8,2.6-1.6.5.1-.3-1.4.3,1.2-.9-1.1-.3Zm17.1-.4.3.4-.7.4-.2-.2-.2.4-.2.1.1.1-.1.3-.3-.2-.1,2,1.6-.7-1.1-.9h.5l.8.4.1-1.2.9,1.1-1.3,1.9,2,.2h-1.2l.7.8-.9.3h-.1l.2-.1-2.1-1.3-.2,2,1.5-.4v.1l.1.7-.1-.1-.4,1.8,2.1-.5-1.6-1.2.5-.3,1.1.6.1-1.4.5.6.8-1.7h-.5l-.2-.4,2.1-.5-1.7-1.3-.4,1.8-.4-1,.7-1.3,1.8,1,.1-1.4.5.6.8-1.7h-1.2l1-1.6,1.2,2.2-.2,1.6,2-.6-.3,1.7,2.7-.6-1.3-.9.1-.5.2-.1-.1-.1.3-2.7-1.1.3.2-.4h-3.6v-.1l-3.8.6.3-.6h-4l1.8,2h-.1Zm4.4.5.1.1-.2.1.1-.2Zm-1.1,0,.4.4-.8.3.4-.7Zm-1.3-1.5.5.6-.8.2Z" fill="#260807"/>
      <path id="Path_14702" data-name="Path 14702" d="M227.7,208.6l1.1,2.1,1.4-2.2Zm-27.2-1.9-4.4-.1,2.7,2.3Zm28-.1h-3.6l1.8,2.1Zm-24.2,26.9,1.2.2-.3-1.3Zm-.6-7.6.1,1,1-.6Zm8.7,5.7.2-1-1,.3Zm6,5.2,1.2.2-.4-1.3Zm-.6-7.6.1,1,1-.5Zm8.7,5.7.2-1.1-1,.4Zm.8-2.1,1.5.2-.5-1.5Zm-.6-7.9,1.2-.6-1.3-.5Zm10.3,5.7.3-1.3-1.2.3Zm-9.4,100.04,32.275-106.312,1.34.407L228.936,331.047Zm24.1-34.44-.8,1,1.1.2Z" fill="#260807"/>
      <path id="Path_14703" data-name="Path 14703" d="M252,291.8l-1.6-.7.1,1.5Zm-8.8-4-.5-.5-.4,1.5,1.7-.3-.4-.3,1.5-.2-1.1-1,.8-.2-1.7-2.4-.9,2.9,1.2-.2Zm-1.8,23,.2,1.7,1.7-1Zm.4-10.7-.9-.4.1.9.8-.3.1,1.2-1.2,1,1.8,1-.5-2,1.7-.9-1.9-.7Zm-.2-2.7-1.3,1.1,1.8.9Zm3.4.2-2-.8.2,1.7Zm-1-12.5,1.4-.7-.8-.4,1.1-.2-.9-1.3.2-.2-.5-.3v.1l-.4-.6,2,.3-.6-1.5.8-.2-1.3-1.4-.8,2,.7-.2-.9.9-.9,2.9.8-.2Zm2.5-5.3.2-1,2,.2-.7-1.8-.2.2-.3-.4,1.8.2-.4-.6,1.3-1-.7-.3.3-1.7-1.9.6,1,1.1v1.2l-.8-1.3-.8,1.4-.9-1.3,2.1-.2-.8-1.4,1.3-.7-1.5-.7.1,1-.7-1.2-.9,3.2h.1l-.6,2.1h1.7l-1.8.5,1.1,1.9Zm1.1-2.2-1,1,.2-1Zm-8,39.4-1.7,1.1,1.6.8Zm-3.4,10.7.1-1.9-1.7,1.1Zm9.6-16.7.3-2-1.8,1.1Zm-.1-6.5-1.8,1,1.6.9Zm-4.3-13.4,1.2.7.1.2h-.8l.5.9.4-.6.9-1h-1v-.6l.8-.1-.6-.9-1.1-1.6-.9,3,.7-.2Zm3.6-.1.2-1.6-1.5.8Zm7.8-15.7-.2.8.9-.1Zm-11.6,19.6-.7.3,1.6.9.2-1.6.4-.2-.9-.4.7-.2-1.7-2.4-.9,2.9,1.2-.2Zm2.4-1.2.3-1.1-1.1.5Zm3.2-4.8h1.1l-.7-.9Zm-4.7,20.6-.8,1.2,1.3.1ZM234.7,321l1.3.2-.5-1.3Zm7.2-14.1-.8,1.1,1.2.2Zm7-1.5.1-1.1-1,.3Zm-11.2,8.7.6-1.1h-1.4Zm-.9,1.4-1.4-.1.9,1.2Zm-7,14.2.4-.1L229,328l-.6,2,1.1-.2-1.2.5.7.3.9,2.6,1.8-2-2.3-.7Zm4.9-18.7,2.4-.4-.8-1.2,2-.5-1.1-1.2.7-.1-1.5-1.4-.5,1.7.9-.1-.6,1.5-.8-1.2-.8,2.7h-.1l-.5,2,1.9-.4Zm-1.2,2.9-.5,2,1.8-.4Zm6.4-4.5h-.1v-.8l-1,.3.7.6-1.6.3,1.2,1.5Zm-1.2,5.1-2.1.4,1.3,1.5Zm3.8-15.8,1.2,1.5.8-2Zm4-10.8-2,.5,1.2,1.4Zm1.9-8.3,1.2,1.5-.9-.4.1.8.8-.4.8-2Zm-6,47.6,1.1-.3-1.1-.7Zm-6.2-3.8-1.2-.1.6,1Zm-8.3,8.2,1.2-.2-.8-1Zm22.5-28.2h.7l-.3-.6Zm-5.9-.9.5-.4-.7-.3Zm1.9-15.2.3-.8-.8.1Zm2.3,3.1-.5.6h.8Zm-.6-10.8-.6.1.4.6Zm1.8,3.8-.3-.5-.3.5ZM242,316.1l1.5.1-.5-1.1Zm-5,4.7.8-.6-1.1-.5Zm0-9.1.2-1.1-1.1.5Zm2.6,13.2-.1-.2-.8.8,1.2.1-.1-.3.6.1-.3-.9Zm-.5-11.4,2.1.3-.6-1.6Zm.1,14.7,1.2.1-.4-.9Zm.9-29.7.9-1-1.4-.1Zm5.7-6-.8.7,1.1.4Zm.3,10.2,1.1-.5-.9-.6Zm.6-4.6-1.3.5,1.3.6Zm-6.8,2.9-.9-.8-.2,1.1Zm8.7-4.4,1-.5-.8-.6Zm2.7-22.3-.9,1,1.2.3Zm15.3-9.6-.7.8,1.2.2Zm-17.5,22.5,1,.3-.3-1.2Z" fill="#260807"/>
      <path id="Path_14704" data-name="Path 14704" d="M255.9,285.5l.6-.5-1-.6.1.6-.4.1.5.5v0l.1.2Zm-4.1,1.4-.2,1.2,1-.5Zm-.6-23.2-.1-2.2,1.3-.2-1.5-2.1,2.1-.4-1.4-2,2.5-.4-2.1-1.8-.5,2-.1-.2-.9,2.8-.7,2.5.9-.1-1.5,1.3Zm1.7-12.3-.7,2.3,2.7-.4Zm-3.5,20.7-1.5-2.1,1.9.1-1.3-2.8,1.3-.2.1,1.1,1-.5-1.1-.6,1-.1-1.6-1.6,2.3-.2-.1-.1,1.4.8.1-2-1.9.8-1.4-1.5-.7,1.9-.6,1.8v-.1l-1.2,3.1.3.1-.6,2.1Zm-2.5,12.4-1.3,1.4,1.6.4Zm1.8-1.9-.1.1.2-.5-1.2.3.6.6-.8.9,1.6.5ZM239,297.4l2.6-.4-1.8-2.5-.8,2.9h-.1l-.8,3,2.6-.5Zm-.3,9.8.1-.6,2.3.8-.4-3-1.7,1.7.5-1.8v-.1l-.1.1-1.2-1.2,1.4-.2v.1l1-.5-1.1-.4.1.5-1.6-2.2-.9,2.9.7-.1-.4,1.3,1.9-.2-1.7.8-.8-.8-.7,2,1.2-.3Zm-2.4,5.3-2.8,1.3,2,1.6Zm12-13.5-.2.1.2.3.1.3.1-.1.1.1.1-.2.5-.4-1-.6Zm-4.8-3.8.1.8.9-.7-.4-.2.2-.4-.5.2-.4-.2v.3l-.1.1Zm8.2-2.3-.4.8,1.1.1Zm12.4-41.2-.1.1.3.2.2.2v-.1l.6.3.1-1.3-.2.1.2-.5-1.7.3Zm-9.9,23.5-.8.2.6.6Zm2,3.9-.5.6h.8Zm-6.3-.9-.3-.8-1.1,1.2,1.3.1.1.1.1-.1.2.1-.1-.2.3-.2Zm5.5-9.9-.6.1.4.6Zm1.8,3.8-.3-.4-.4.4Zm-5.5-1.3.2.6.4-.4Zm14.4-26.6-.3,1,1.1-.2Zm6.1,8.5.6-1.1h-1ZM262,255.6l-.4.1.2-.6-1.3.2.8,1.2.1-.2.1.2Zm7.3-.5-.5.7,1,.2Zm-5.6,11.2-1.2.7,1.1.6Zm.9-6h.5v.7l.9-.4-.8-.7-.6-.5v.1l-.3-.4-.5,1.2h.5v.1Zm-3.6,7.5.1-1.3-1.1.7Zm1-8.2-.2.9,1.1-.2Zm6.8,7.4h-1.1l.5,1.1Zm-10.2,12.6h1l-.5-.8Zm-4.1-24-.5,2,2-.9-.9-.7.5-2-2,.9Zm15.1-15.5.4-.7-1-.1Zm-4.7-.9-.2-.8-.6.6Zm5-4.8-.8-.4v.7Zm-5.6,2.8-.4-1.7-1.1,1.5Zm2.1-3v.7l.7-.4Zm-1.4-.6-.3-.6-.6.6Zm.6-1.5H267l-.5-1Zm-.8,3-.5.7.8-.1Zm-.9,6.6-.2-.5.8-.5-.9-.4v.6l-.4-1-.9,1.7Zm-2.6-5.2-.7,1.9.3-.1.3,1.2,1.4-1.1-.9-.2.5-.1Zm2.3-3.4-1-.1.3.9Zm-3.2,3.9-.5-.5,1.6-1.2h-.1l.8-.6-.6,1.7,1.5-.2-.9-1.5.7-.5-2-.6.3,1.6-1.7-.4.3,1.6-1.5-1.3,1.4-.7,1.1-.1-.9-1.6-.4,1.2-1.1-.8-.4,2.2.1-.1-.6,2.3Zm-3.4,1.7-.8,2.6,3-.4Zm.8,5.8.1-.1,1.2,1.2.2-2.2-1.2.4,1-2-2.7.1,1.3,2.5-1.7-2-1,2.5,3-.1Zm-1.4,4.4h1.5l-.9-1.7-1,1.3-1.7-1.4-.6,2.5,2.9-.5Zm3.3-11.5-2.6.6,1.8,2.4Zm-5.8,23.4v-.2l.8,2.6,1.8-2.6-2.4-.3,1.5-2.1-2.6-.3Z" fill="#260807"/>
      <path id="Path_14705" data-name="Path 14705" d="M255.5,247.2l.1.9.4-.2v.1l.1-.2.3-.2-.2-.1.5-1.7-1.9.4Zm7.5,5.2.2-1-.9.3Zm-.4-3.1-.6,1.1h1.1Zm-1.3-5.4-1-.2.2.9Zm7.3,3.7v-1l-.8.4Zm-5.9-1.5-.1,1.2,1.3-.4Zm-1.4,1.3.1-.4.1-.2h.5l-.4-1.2-.5.9-.8-1-1,1.9,1.7-.3Zm.6,2.6.3-1-.5.1V249l1.4-.8-1.6-1-.3,2H261Zm-.8-16.7.4-2-1.6.4-.9-.7-.5,1.9,1.9-.4Zm5-2.1-.3-1.7-1.2,1.3Zm2.2-2.2.7-.4-.7-.4Zm-2.2-1.4.8.1-.2-.7Zm3-1.3-.4-1.1-1,1Zm-3.7-.8,1.4.2-.4-1.2Zm1.3-4.6,1.4.2-.4-1.1Zm1.2-5.5-1.1-.4v1.3Z" fill="#260807"/>
      <path id="Path_14706" data-name="Path 14706" d="M266.7,229.1l-.5.6.7.1Zm-2.8,2.8-.8-1.6-.3.6h-.7l.3.8-.1.3Zm.7-6.3.8-.8-1.1-.1Zm1.1,1.4-1.1-.2.3.9Zm-3.5,3.7-.5-.5,1.7-1.1h-.1l.8-.6-.7,1.7,1.2-.1h.3l-.1-.3.2-.3h-.4l-.5-1,.7-.4-1.9-.7.2,1.6-1.7-.6.2,1.7-1.4-1.5,1.4-.6h1.2l-.9-1.6-.5,1.1-1-.8-.5,2.1h.1l-.8,2.2Zm5.9-11.1-1.3-1.7,1.5-.6-1.6-.9V218l-.9,1.6Zm-2.6,4.6-.1-.6,1.1-.1.3.6.4-.6h.2l-1.3-1.6-.7,1.7-.6-2.3,1.8.2-.5-1.8-1.6,1.5.2.1-1.9,1.6Zm-2.4,2.9.6-2-1.7.3-.8-.8-.6,1.9,1.8-.3Z" fill="#260807"/>
      <path id="Path_14707" data-name="Path 14707" d="M262.9,223.1l-1.5,1,1.7,1Zm-10.4,50.3.2-1.1-1.1.5Zm6.7,0-.9-.1.4,1Zm2.2-27.9,2-.7-1.9-1.2Zm-7.4,4.2v2.2l1.7-1.4Zm2.4,3.8-.4.6,1,.2-.2-.8h.5l-.9-1.7-.1.2-.7-1.3-1.3,1.7h1.6l-.9,1.1Zm2.9-5.4-1.4,1.7h2.3Zm1.7,3.1-1.8.8,1.6,1.4Zm2.1,7.7-.1-1.7-1.3.8Zm-2.3,1.4-1.3.8,1.5.9Zm-7.9,8.9-.4-1.1-1.5,1.6,1.7.2v1l1.3-1-1-.5-.1-.1,1.7-.1-1.1-1.2.7-.8.5-.1-.2-.2.5-.5-1.8-.6v.6l-.6.4.7.4.1.8Zm2.4-11.4,2.2.1-.9-1.7Zm-3.9,4.6,1.9,1,.1-1.9ZM246,281.2l1.6.2-.5-1.4Zm.4,1.1v.4h-1.1l.6,1.1.5-.7v.8l1.3-1Zm11.8-26.9-.7-1.4-1.3,1.5-.7-.3.1.9.6-.4h1l.5,1.2.6-1.2.2-.3Zm-6.9,18.2-.7-1.6.8-1.3-1.6-.1.6,1.4-1.3,1.4Zm-18.1,54.5.6-1-1.4-.1Zm-.7,1.3-.3.2-1.2-.1.7,1.1.6-.9.6.4v-.2l.4.6.8-2-2,.5Z" fill="#260807"/>
      <path id="Path_14708" data-name="Path 14708" d="M230.1,327.5l-.6-.6-.4,1.1.4-.1-.2.1,1.8,1.5.7-3-.5.3v-.4h.1l-.1-.2v-.5l-.3.2-.7-.9,2.3-.4-.1-.2,2.2.7-.4-3-.6.6-.8-.9h.1l-.2-.2V321l-.4.3-.5-.5,1.3-.5,1.2,1,.7-3-.5.2.1-.6.8-.5-.6-.2V317l-.3.1-1.1-.4.1.8h-.1l-.5-.5-.3.8-.7.3.5.4v.1h.2l.5.4-.4.2-.6-.8-.7,2.4-.4,1.2,1,.5-.3.7L231,322l-.9,3-.6,1.8.2-.1.9.4-.5.4Zm3.4-4.6-1.2,1.2-.4-.7,1.6-.5Zm22.7-57.2.4-2.2-1.8.6Zm8.6-2.4-1.3.4,1,1.1Zm-2.5-.1-.3.8h1Zm-2.5-5.4-.3.9h.3l-1.4.4,1.5,1.6.3-2h.3Zm-.6-14.7,2.2-.4-.7-.8,1.2-.6-1.6-.8v.8l-.1-.1Zm6.8,10.8.9.8.2-1Zm6.7-7.5-1-.2.5.9ZM268,257.3l.8-.3-.7-.5Zm-11.1,3.8-.7,1,1,.1Zm5.5-1.6.7.7.1-.7.8.2-.2-1.2-.6.7Zm2.7-5.9.5-.9-1.1-.2Zm3.8,8.5-1.3,1.7,1.8.2Zm-.9-4.4.6,1.3,1.1-1.2Zm-5.2-4.3.9-.4-.9-.4Zm7.2,4.7.3-1-.9.3Zm-5.9-9.3,1,.3-.2-1.2Zm7.3-2.3-.9.3.6.7Zm-5.9,8.7h-.4l.2.3-.7,1.5,1.8-.1-.5-.8.4-.8Zm.6,1.9-1.8.7-.4-.5-.4.8h1.1l-.3-.3,1.5,1.5Zm.6,3.9-1.3.1.8,1.3Zm3.7,1,.5-.9-1.2-.1Zm-1.6-6-.2.6h.8Zm-12.7,17.1-.8,1,1.1.2Zm-1.2-5.9.1.9.8-.5Zm6.8,4.6.6.7.2-1Zm6.8-12.4.4,1.1.7-.7Zm-2.7-16.9.8,1,.4-1Zm5.2,3.1.1-.7h.6l-.6-.6-.2.4-.6.2Zm-4.2-5.2-1.1-.4.4,1.1ZM252.2,282l1.4,1.2.6-1.8Zm15.4-10.5,1.1-1.3H267Zm-16.2,14.3,1.1-.8-1.3-.4Zm6.8-3.7v-1.2l-.9.5Zm-2.1,9.2,1.2-.3-.7-.8Zm-1.2-20.8-.4.8.9.1Zm2.7,7.7.1,1,.7-.7Zm7.1-15.1.9-.4-.9-.5Zm7.4,3.8.4-.1-1.5-1-.1,1h-.6l.4,1.1.4-.6.3-.2.6.6Zm-7.2,1,.5.6-.5.6,1,.2-.1-.8.3-.6Zm.9,1.8-1.8.6,1.5,1.6Zm-6-6.8-1.8.6,1.5,1.6Zm-2.3,2.1-1.5,1.6,2.2.2Zm1.4,5.9-.9,1,1.3.1Zm-.8-2.8-1.4,1.4,2,.2Zm-.1-8.6-1.3,1.4,2,.2Zm-3.5,14.4.3-2.2-1.8.7Zm-1.9,6.4,1.1.4-.1-1-.2-.9-.5.5-.5-.3v.9l-.3.3h.2v.3Zm17.4-6.7-1.2-.1.7,1Zm-.4,2.6-.2.7h.8Zm-18.8,1.2h.3l.3.2-.8.6,1.1.5-.3-1.1.3.1-.1-.2h.2l-.3-.4-.1-.6.5.6.4-1.1-1,.2-.1-.5-1.3,1.1.9.5Zm3.5,7.8.7-.7-.8-.2ZM267.9,273l.8-.7-1.1-.5Zm.1-22.5.4-.9-1.2-.1Zm.3,1.1-1.4.1.8,1.3Zm-16.7,44.5.9-.6-1-.6Zm-4.3-4.9-.4-1.6-1.3,1,1.3.7-.3.1.6.6.2-.4v-.1l.1-.4Zm7.3-1.1h1l-.6-.8ZM274.5,274l-1.1-1.2-.9,1.8Zm-28.1,21.6-1.2-.5.1,1.7,1.8-.9-.2-.1.7-.6-1.4-.3Zm6-3.9.9.7-.1-1.2Zm-1.2,9.8,1.2-.3-.7-.7Zm-2.7-15-.1-.4-.7.6-.3.1.7.8.2-.5.4.1-.2-.6.1-.1Zm3.1-4.6-.3-.6.2-.7-.9.3.4.4-.3.5Zm2.2,6.8.1,1,.8-.7Zm-1.7-1.8.4-1.1-1.2.3Zm3-6.6-.5.8,1,.1Zm2.8,8.7.7-.7-.8-.2Zm9.1.7-.5.6.9.3Zm-10-5.1.4-1.4-1.3.5Zm2.3-7h1.1l-.6-.9Zm5.9,7.1-.7.6.1.1-.8-.2.2,1.1.7-.9.6.3Zm-.1-4.1.8-.3-.7-.5Zm5.5,3.8-.7.1.3.5.1.9.8-.9-.6-.2Zm-3.6,5.2.8.3-.1-1Zm.5-4.8.8-.3-.7-.4Zm5.3,4.5.2-.8-.7.1Zm-6,3.7.6-.6-.9-.4Zm-4.3-9.7.9.8.4-1.3Zm3.6-7.1-.4,1h1.1Zm-2.5-21.6-1.2-.4.5,1.1Zm-4.1-1.7.4,1.2.7-.8Zm3.9-9,.7-1.1H264l.8-.4-.9-.5v.8l-1.2-.2Zm-5.4,7.6.1-.9.9,1.5.8-2.1-1.9.3.1.2-.8.5Zm7.5-5.5-.1.8-.6-.2-.1-.4-.1.2h-.1v.1l-.5.7.6.1.1.7,1.5-.9-.7-.3.9-.3Zm.1-39.7c0,3.1-.1,8.2-.3,10.6-.2,2.3-2.6,4.5-4.1,5.7l.2-16.3H260l-.2,18.9,1.1-.7c.2-.1,5.5-3.6,5.7-7.5.2-2.5.3-7.7.3-10.7h-1.3Z" fill="#260807"/>
    </g>
    <path id="Path_14709" data-name="Path 14709" d="M214.3,206.3l-22.4,97.4-22,101.8,1.3.3c.2-.8,16.8-79.8,22-101.8l22.5-97.7h-1.4Z" fill="#772e1f"/>
  </g>
</svg>
