<svg xmlns="http://www.w3.org/2000/svg" xmlns:xlink="http://www.w3.org/1999/xlink" width="433.7" height="254.701" viewBox="0 0 433.7 254.701">
  <defs>
    <linearGradient id="linear-gradient" x1="0.407" y1="0.846" x2="0.508" y2="0.368" gradientUnits="objectBoundingBox">
      <stop offset="0" stop-color="#cc7a5e" stop-opacity="0"/>
      <stop offset="0.924" stop-color="#aa5f4b"/>
    </linearGradient>
    <linearGradient id="linear-gradient-2" x1="0.53" y1="-0.037" x2="0.488" y2="1.063" gradientUnits="objectBoundingBox">
      <stop offset="0.298" stop-color="#f5c52a"/>
      <stop offset="1" stop-color="#e46c26"/>
    </linearGradient>
    <linearGradient id="linear-gradient-3" x1="0.465" y1="0.551" x2="0.348" y2="1.143" gradientUnits="objectBoundingBox">
      <stop offset="0" stop-color="#731443"/>
      <stop offset="0.516" stop-color="#a02d5a"/>
    </linearGradient>
    <linearGradient id="linear-gradient-4" x1="0.507" y1="0.809" x2="0.499" y2="0.282" gradientUnits="objectBoundingBox">
      <stop offset="0" stop-color="#660036" stop-opacity="0"/>
      <stop offset="0.998" stop-color="#660036"/>
    </linearGradient>
    <linearGradient id="linear-gradient-5" x1="0.58" y1="0.929" x2="0.405" y2="0.071" gradientUnits="objectBoundingBox">
      <stop offset="0" stop-color="#151e28" stop-opacity="0"/>
      <stop offset="0.998" stop-color="#151e28"/>
    </linearGradient>
    <linearGradient id="linear-gradient-6" x1="0.113" y1="0.49" x2="1.691" y2="0.617" xlink:href="#linear-gradient-5"/>
    <linearGradient id="linear-gradient-7" x1="0.183" y1="0.712" x2="0.785" y2="0.066" gradientUnits="objectBoundingBox">
      <stop offset="0.01" stop-color="#bc547a" stop-opacity="0"/>
      <stop offset="0.985" stop-color="#bc547a"/>
    </linearGradient>
    <linearGradient id="linear-gradient-8" x1="0.441" y1="0.508" x2="0.589" y2="0.489" gradientUnits="objectBoundingBox">
      <stop offset="0" stop-color="#f48811" stop-opacity="0"/>
      <stop offset="0.988" stop-color="#de4c00"/>
    </linearGradient>
    <linearGradient id="linear-gradient-9" x1="0.44" y1="0.509" x2="0.596" y2="0.486" xlink:href="#linear-gradient-8"/>
    <linearGradient id="linear-gradient-10" x1="0.547" y1="0.112" x2="0.456" y2="0.996" xlink:href="#linear-gradient-8"/>
    <linearGradient id="linear-gradient-11" x1="0.484" y1="0.486" x2="0.54" y2="0.515" xlink:href="#linear-gradient-8"/>
    <linearGradient id="linear-gradient-12" x1="0.495" y1="0.399" x2="0.513" y2="0.727" xlink:href="#linear-gradient-8"/>
    <linearGradient id="linear-gradient-13" x1="0.358" y1="0.81" x2="0.525" y2="0.395" xlink:href="#linear-gradient"/>
    <linearGradient id="linear-gradient-14" x1="0.644" y1="0.122" x2="0.444" y2="0.838" xlink:href="#linear-gradient-2"/>
    <linearGradient id="linear-gradient-15" x1="0.499" y1="0.473" x2="1.578" y2="0.759" xlink:href="#linear-gradient-4"/>
    <linearGradient id="linear-gradient-16" x1="0.484" y1="0.587" x2="0.387" y2="1.315" xlink:href="#linear-gradient-4"/>
    <linearGradient id="linear-gradient-17" x1="0.498" y1="0.509" x2="0.398" y2="-0.841" xlink:href="#linear-gradient-4"/>
    <linearGradient id="linear-gradient-18" x1="0.489" y1="0.486" x2="0.583" y2="0.56" xlink:href="#linear-gradient-8"/>
  </defs>
  <g id="_4" data-name="4" transform="translate(-37.2 -207.699)">
    <path id="Path_14958" data-name="Path 14958" d="M198.37,395.2l4.3-26.78,23.67,5.52-4.18,22.62c-.2-.03-12.3,17.82-23.8-1.36Z" fill="#e79a7a"/>
    <path id="Path_14959" data-name="Path 14959" d="M209.67,393.82c10.2,3.5,12.96-.02,12.96-.02l3.58-18.15-24.06-6.62-2.7,19.86c-.16.28,1.85,1.9,10.22,4.93Z" fill="url(#linear-gradient)"/>
    <path id="Path_14960" data-name="Path 14960" d="M198.96,393.28c-.04.2-.28.35-.45.2-.2-.04-.45-.3-.3-.47l3.24-20.98a.41.41,0,0,1,.47-.3c.19.05.45.3.3.47l-3.26,21.08Z" fill="#cc7a5e"/>
    <path id="Path_14961" data-name="Path 14961" d="M197.84,394.22a36.788,36.788,0,0,0,13.42,2.77c7.83-.08,11.08-3.14,11.08-3.14l-.22,5.3s2.42,3.7-9.66,5.46c-12.07,1.65-15.4-4.23-15.4-4.23l.8-6.16Z" fill="#fff"/>
    <path id="Path_14962" data-name="Path 14962" d="M196.07,420.46,254.6,425a1.824,1.824,0,0,0,2.04-1.74c.1-2.5.1-6.5-1.05-9.5-1.5-3.73-24.47-15.28-31.02-18.7a2.821,2.821,0,0,0-2.95.47,17.668,17.668,0,0,1-14.94,6.24c-6.3-.4-7.47-3.2-9.1-4.23-.57-.45-1.2-.2-1.56.68-1.1,2.62-2.84,10.5-2.2,20.2a3.466,3.466,0,0,0,2.25,2.07Z" fill="url(#linear-gradient-2)"/>
    <path id="Path_14963" data-name="Path 14963" d="M204.06,415.87c-.4-.03-.66-8.18-9.3-10.57l.2-1.4c5.4,1.53,7.32,3.8,8.72,6.4a23.2,23.2,0,0,1,2.06,5.68l-1.7-.13Z" fill="#fff"/>
    <path id="Path_14964" data-name="Path 14964" d="M196.07,420.46,254.6,425a1.824,1.824,0,0,0,2.04-1.74c-.04-.7.13-1.6.1-2.7l-62.73-5.86.03,3.4a2.446,2.446,0,0,0,2.02,2.36Z" fill="#db7028"/>
    <path id="Path_14965" data-name="Path 14965" d="M220.94,405.27l6.9-8.58a12.252,12.252,0,0,0,2.03.96l-7,8.77c-.67.85-2.6-.1-1.92-1.15Zm6.26,3.4,7-8.77c.57.35.97.48,1.92,1.05l-7.03,8.97c-.75.65-2.78-.3-1.9-1.25Z" fill="#fff"/>
    <g id="Group_1128" data-name="Group 1128">
      <path id="Path_14966" data-name="Path 14966" d="M231.63,409.63l-.65-.65-.37.87,1.02-.22Zm4.33-.16-1.2-.2.4,1.44.8-1.25Zm-12.4-13.12,1.4-1.1-1.37-.4-.02,1.5Zm4.28.35-1.26-.6-.13,1.7,1.4-1.1Zm11.74,7.53v1.3l1.28-1,.56.55.3-1.18-1.03.32-.01.1-.68-.25.3-.18-1.06-.6-.1,1.4.45-.47Zm-21.1-4.57-1.36.7,1.42,1.12Zm1.17-.9.18.22-.34.47.4.13.32,1.03.92-1.53-1.47-.32Zm10.4,1.72-1.4-.2.47,1.64.92-1.43Zm-.35,1.98.47,1.64,1.02-1.42-1.5-.22Zm13.72,2.8-1.2-.2.5,1.34.7-1.15Zm-10-.4,1.46.52-.5.16.83.97.3-1.28-.3.08-.6-1.45-1.18,1Zm-13.8.72-1.42-1.12-.22,1.5,1.64-.37Zm-4.36-4.57-.22,1.5,1.53-.38-1.3-1.1Zm-2.83,6.6-1.43-1.1-.22,1.5,1.64-.37Zm-3.68-2.9,1.46.62-.06-.5.8-.14-.66-.55,1.03-.32-1.42-1.12-.1,1.1-1.07.92Zm1.24-.4-.06-.5.3-.08-.25.6Zm10.2-2.3.2.02.7,1.16.36-.77.1.1-.08-.2.25-.68-.5-.04-.33-.93Z" fill="#ffd7d2"/>
      <path id="Path_14967" data-name="Path 14967" d="M202.18,404.1l-1.13-.9-.2,1.2,1.32-.3Zm3.58,4.18-1.13-.9-.2,1.2,1.32-.3Zm-8.36-5.98-.2,1.2,1.34-.5-1.15-.7Zm40.7,1.72-.78.94,1.38.3-.6-1.25Zm17.6,10.82-.5-1.34-.78.94Zm-.18-1.52-1.26-.6-.1,1.2,1.35-.6Zm-5.42-2.54-.4-1.34-.78.94Zm-1.94,2.96-.06.8.73-.34Zm.9-1.34.84-.54-.68-.25-.16.8Zm1.08,1.5.46.54.16-.8-.62.25Zm3.67-.72.16-.8-.9.03.75.76Zm-21.12-11.9-1.2-.2.5,1.34.7-1.15Zm1.46,4.32-1.4-.2.47,1.64.92-1.43Zm1.62-2.77-.65.55.1.1-.9.03.42,1.04.66-.75.57.35-.18-1.33Zm2.6,3.92-.17.9,1.04-.42-.87-.47Zm8.4,1.75.7.15.3,1.23.8-1.14-.9-.07-.24-.82-.64.65Zm5.8,2.78-.57-.35-.17.9.74-.54Zm-6.92,2.56-.9.03.56.55.35-.58Zm-28.8-6.1-.84-.77-.18,1,1.02-.22Zm5.48-.87-.8.04.42,1.04.4-1.08Zm-5.08,7.22,1,.18-.33-.93-.66.75Zm3.74-14.34,1.3-.1-.74-.76-.57.86Zm-4.06,5.6-1.18-.3.2,1.12.97-.83Zm7.46-5.43-.74-.76-.3,1.08,1.03-.32Zm6.38-.8-.8-.06.22,1.02Zm-5.66,5.78-.94.43.98.28-.04-.7Zm-1.77-6.97-.23-.92-.65.55.88.37Zm.23,17.37,1,.18-.3-1.23-.7,1.05Zm.5-6.47-.87-.47.03.9.84-.44Zm6.4,4.2-.83.34.55.65.28-1Zm-9.8-7.9-.3-1.23-.68.95Zm-13.2-1.65-.3-1.13-.58.96.9.17Zm3.13,6.07.4-.07-.57-.35.16.42-.87-.47.04,2,1.78-.96-.95-.58Zm2.45,3.3.55.65.18-1-.73.34Zm-9.65-4.87h-1l.55.65.45-.67Zm9.93-1.23.8.06-.32-1.03Zm-3.68-4.2-1,.02.64.75Zm7.75,1-.9.03.64.75.27-.78Zm-14.1-.7-.78-.26.04.7.74-.45Zm14.92.48.16-.8-.72.24.56.55Zm4.07.42-.48-.24.16.5.32-.27Zm6.06,3.2-.04-.7-.73.34.77.37Zm-3.48.94-.26-.52-.15.6.4-.07Zm1.3-5.13.17.4.35-.57-.52.16Zm8.2,10.58.68.25.05-.6Zm-3.43,1.55.3-.08.57.35-.14-.7-.4.17-.28-.22-.05.5Zm2.52-5.33-.6.05.17.4.44-.46Zm6.36-2.9.68.25.05-.6ZM237,408.04l-.26-.52-.15.6.4-.07Zm2-4.96-.6.05.17.4.44-.46Zm6.43,6.12.57.35.14-.5-.7.14Zm-2.48,1.02-.27-.42-.14.5.4-.07Zm1.64-4.2-.5-.14.17.4.32-.27Zm-28.08,3.7.15-.6-.5.06.36.53Zm-8.55.33.3,1.23.65-.65-.95-.58Zm-5.3-2.83.77.36.08-1Zm-4.33,1.47.66.55.27-.88-.93.33Zm1.7-3.58-1.02.22.66.55Zm-3.8-1.6.7-.14-.34-.73-.37.87Zm3.24-.35.74-.44-.88-.27.14.7Zm9.4,2.85-.46-.54-.06.7Zm5.8,4.18-.47-.34.1-.1-.87-.37.32,1.03.12-.2.06.5.73-.55Zm2.76,1.8-1.44-.82.37,1.63,1.07-.8Zm-6.12-1.27.32,1.03.54-.46Zm-14.58-12.1,1.25.7.23-1.6Zm-.15,9.42-2.16-.57.5-1.26,1.66,1.83Zm7.97,1.94-.35.57.7-.14-.36-.43Zm.76,3.06.4,1.44.75-.64-1.14-.8Zm-5.65-3.36.75.66.2-1.1-.94.43Zm9.3-2.37-.83-.97-.28.98,1.1-.01Zm28.28,3.94,1.1-.1-.44-.84-.67.95Zm-7.38-.47.55-.56-.87-.37.32.93Zm3.1-10.2.3-1.28-1.03.32Zm2.3,5,1.1-.1-.44-.84-.67.95Zm-7.6-1.5.32,1.03.45-.57Zm8.7-1.02.83.97.06-.8.98.28-.6-1.35-.77.84-.5.06Zm3.18,5.47,1.1-.1-.44-.74-.67.85Zm-6.84-1.15-.97-.38.32,1.03Zm2.26-.52,1.2-.01-.83-.97Zm6.02-.03.32,1.03.45-.67Zm-4.52,6.47-.03-.9-.94.43.97.48Zm2.8-3.6.9-.03-.55-.65-.36.68Zm5.5.13-.25-.62-.45.67.5.04.06.5.35-.67-.2.07Zm-5.2,4.9.88.27-.14-.7-.74.44Zm1.65-8.3,1,.18-.43-.94-.56.76Zm5.84,1.16-.8-.16.14.8.65-.65Zm-5.6,3.57-.83.34.77.36.06-.7Zm-5.4-2.83.32,1.03.55-.56-.87-.47Zm6.6.23,2.5.1-1.53-2.23Zm-19.18-9.85,2.5.1-1.53-2.23Zm-17.37,6.45v-2.6l-1.82,1.46-1.47.9,1.25.7.2-1.4,1.82.95Zm6.92-1.16,2.4-1.1-2.33-1-.07,2.1Z" fill="#ffd7d2"/>
    </g>
    <g id="Group_1129" data-name="Group 1129">
      <path id="Path_14968" data-name="Path 14968" d="M219,391.7l.8-.68-1.14-.48Zm-7.33,2.2.6.1-.3-.75Zm.56-3.57.2.64.36-.35Zm4.93,3.4-.54.22.45.37Zm-2.38-1.58.74.4.13-.8Zm-4-1.55,1.08.17-.32-1.17Zm-2.52-.7.97.25-.26-.95Zm-1.68-.25.88.14-.27-.85Z" fill="#ad5c49"/>
      <path id="Path_14969" data-name="Path 14969" d="M211.9,389.27l1.07,2.2,1.9-1.73Zm3.38,2.25,1.25-1.53-1.48-.23Zm-2.56,1.52.8.02-.38-.77Zm-8.34-3.64.9.04-.4-.77Z" fill="#ad5c49"/>
      <path id="Path_14970" data-name="Path 14970" d="M210.15,391.32l.12.53.56-.32Zm8.67-1.07-2.3-.26,1.03,2.5Zm-2.1,1.7-.67.4.75.42Zm-1,1.26-.55-.4-.2.68Zm-13.33-4.1-.53-.5-.1.7Zm1.9-.4h-.7l.42.57Zm-4.06-.64-.73.08.52.6Zm12.33,3.34-.82.07.5.6Zm-4.27.04-.53-.5-.2.68Zm2.74,1.34-.53-.5-.2.67Zm-7.74-2.22-.44-.48-.2.58Zm12.26,1.1,1,.15-.35-.96Zm-6.66-2.76.8,2.05,1.68-1.66Zm-6.5-1.02.42,1.18.96-.96Zm2.85.45.43,1.18.96-.96Zm1.98.3.42,1.18.96-.96Z" fill="#ad5c49"/>
      <path id="Path_14971" data-name="Path 14971" d="M200.2,387.55l.53,1.2.96-.96Zm13.68,3.85.8.12-.17-.84Zm4.15.04.04,1.02,1-.56Z" fill="#ad5c49"/>
    </g>
    <path id="Path_14972" data-name="Path 14972" d="M200.7,373.9,199.18,384a3.435,3.435,0,0,0,2.8,3.8l24.8,3.7a3.333,3.333,0,0,0,3.68-3.2l1-9.4-30.75-5Z" fill="#912954"/>
    <path id="Path_14973" data-name="Path 14973" d="M168.4,241.6s28.4,53.3,30.1,69.4c1.1,10.4-3.07,28-6.1,43.32-2.65,13.4-.83,21.84,5.77,25.74,9.7,5.7,34.62,8.24,42.92,4.14,7.7-3.8,8.6-8.6,10.7-24.7,2.7-21.1,5.3-49.2,4.8-62.9-.7-15.8-28-82.9-28-82.9l-60.2,27.9Z" fill="url(#linear-gradient-3)"/>
    <path id="Path_14974" data-name="Path 14974" d="M168.4,241.6s12,22.5,19.2,39.2,9.5,21.7,10.6,27.7a41.583,41.583,0,0,1-.47,16.53c-1.1,5.5-3.55,21.3-3.55,21.3S221.6,338,232.1,354.1s15.5,21.6,15.5,21.6a259.3,259.3,0,0,0,7.8-48.8c1.7-27.2,2.2-34.9-3.9-52.1s-22.9-61.1-22.9-61.1l-60.2,27.9Z" fill="url(#linear-gradient-4)"/>
    <g id="Group_1130" data-name="Group 1130">
      <path id="Path_14975" data-name="Path 14975" d="M228.4,275.3l.9.7.2-1Zm-4.9.1,1.3-1-1.3-.7Zm20.8-7.5,1-1.7-1.6-.2Zm-3.7,0,1.1-1.8-1.7-.2ZM223,266.6l1.1-1.8-1.7-.2Z" fill="#560532"/>
      <path id="Path_14976" data-name="Path 14976" d="M224,265.8l.9-1.5-1.5-.1Zm1.5,4.5,1.9.8.1-1.7Zm20.6,16.4,1.6-1.2-1.4-.9Zm-10.3-16.6,1.7-1.2L236,268Z" fill="#560532"/>
      <path id="Path_14977" data-name="Path 14977" d="M235.2,268.2l-.1-2-1.6.7Zm-9.5,1.7-.2-2-1.5.7Zm13.3.4-.1-2.1-1.6.7Zm-28.9-1.4-.2-2.1-1.5.8Zm22.1,1.1,1.7-1.2-1.5-.9Zm-12.7-4.3,1.3-1-1.3-.7Zm-5.2-1-1-2.1-1.3,1.6Zm-3.6,1.7.7-2.1-2,.2Zm19.5,0,1.9.6-.2-1.8Zm18.2,17.1.2,1.9,1.6-1Zm1.9,2.5.3,2,1.5-1Zm-57.9-12.4,1.8.5-.2-1.8Zm45.4-.9,1.8.5-.1-1.8Zm11.4,15.1.1,1.6,1.3-.7Zm-23.1-22.3,1.6.5-.2-1.5Zm-1.6,1.4,1.6.5-.2-1.4Z" fill="#560532"/>
      <path id="Path_14978" data-name="Path 14978" d="M207.8,269.9l.4-.9h-.8Zm22.3-3.2,1.4-.9-1.3-.8Zm-.6,5.3,1.6-1.2-1.5-.9Zm.6-4.5.1,1.4,1.1-.6Zm-2.1-.4,1.2.2-.3-1Zm-5.5,3,.5-1h-1Zm10.6,4.1,1,.9.4-1.2Zm8.5-2.1,1,.9.4-1.2Zm-5.2-4.7.9-.7-.9-.5Zm2.2,1.3.9-.7-.9-.5Zm6.5,2.5-.3-1.1-.8.8Z" fill="#560532"/>
      <path id="Path_14979" data-name="Path 14979" d="M245.7,269.4l-1.4.3.7,1Zm1.7,2.4-1.3.2.7,1ZM252,284l-1.5-.7.6,1Zm-3.5-17.3-1.1,1.8,1.9.2Z" fill="#560532"/>
      <path id="Path_14980" data-name="Path 14980" d="M249.7,270l-1.1,1.7,1.9.2Zm-5.1.8,2.1.1-.8-1.7Zm-.5.4,1,1.8,1.1-1.6ZM233,269.8l2.1.2-.8-1.8Zm-10.7-2,2.1.1-.8-1.8Zm-9.7.2,2.1.1-.8-1.7Zm38.3,23.3-.4-1.1-.7.7Zm-21.8-16.8-.6-1-.6.8Zm-7-7.2-.4-.8-.4.7Zm2.6,3.1-.7.2.4.5Zm1.1-6.2v.8l.5-.3Zm-11.1,2-.3-.6-.4.5Zm2.3,2.5-.6.2.4.4Zm.7-4.9.1.6.4-.2Zm30.2,27,.3.7.4-.6Zm-5.6-3.6.7-.2-.4-.5Z" fill="#560532"/>
      <path id="Path_14981" data-name="Path 14981" d="M247.2,288.9l-.2-1.2-.8.6Zm3.4-4.2.3.9.7-.6Zm-9.5,1-1.8.8,1.2,1.2Zm9.2,5.4-1.8.9,1.4,1Zm-17.1-25,1.4-.3-.8-1Zm-5.7,2.8v-1.2l-.9.5Zm8.1,4.1-1.1-.3.2,1Zm-2.7-2.2-1,.9,1,.6Zm4.3-5,.4,1.1.7-.8Zm-9.2-.1,1.1-.1-.5-.9Zm-1.3,1.3,1.3-.4-.8-.9Zm-5.8,2.8v-1.1l-.9.4Zm8.7,3.8-1.2-.2.2,1ZM207,267.1l1.1.9.3-1.2Zm-3.7,7.1-.4-1.1-.7.8Zm16.1-3.4.8.7.3-1Z" fill="#560532"/>
      <path id="Path_14982" data-name="Path 14982" d="M214.6,268.4l.7-.6-.7-.4Zm1.8,7.6-.4-.8-.6.6Zm.5-10,1.3-.4-.8-.9Zm-5.6,3.1v-1.2l-1,.5Zm8.8,3.4-1.2-.2.3,1Zm-8.6-7.5,1.1-2.5-2.7-.3Zm28.3,4.9,2.6,1.6.3-2.6Zm-37.2-.1,2.5,1.5.3-2.6Zm8.1,1,1.7.9.1-1.7Zm8.2-3.7,1.6,1,.3-1.7Zm-2.5,1.1,1.6,1,.2-1.6Zm4.2-5.3,1.5,2.6,1.5-2.2Zm7.6.7,1.5,2.6,1.5-2.2Zm-3.4-.3,1.5,2.6,1.5-2.2Zm6.9.7,1.5,2.6,1.6-2.1Zm3.2.3,1.4,2.7,1.6-2.1Z" fill="#560532"/>
      <path id="Path_14983" data-name="Path 14983" d="M238,264.8l1.4,2.6,1.6-2.1Zm2.2,3.5,2.9.5-.6-2.6Zm6.1.7,1.1,2.8,1.8-1.9Zm-.8-3.2,1.5,2.6,1.5-2.2Zm-28.1-3.1,1.6,2.6,1.5-2.2Zm14.2,10.6.1,1.2.9-.5Zm-1.7-5.3,1,.2-.2-.9Zm-4.4,6.9.3-.9h-.9Zm-17.9-4.6-.4-.8-.4.7Zm2.7,3.1-.7.2.4.5Zm.9-6.2v.8l.6-.4Zm4,7.6.2,1.2.9-.6Zm-2.1-5.1h1l-.3-.8Zm-3.9,7.2.3-1-.9.1ZM195.3,270l-2.9-.8.4,2.6Zm4.2,9.2,1,.3-.2-.9Z" fill="#560532"/>
      <path id="Path_14984" data-name="Path 14984" d="M213.4,264.3l-2,.8,1.4,1.3Zm4.1-1.2-2,.7,1.3,1.4Zm-1.2,1.7-1.5.6,1,1Zm-3.9,1.3-1.5.6,1,1Z" fill="#560532"/>
      <path id="Path_14985" data-name="Path 14985" d="M218.5,266.6l-1.4-.6v1.4Zm-8.2-.8-1.5-.6.1,1.4Zm6.3-2.8-2.1-.1.7,1.8Zm27.3,2.5-2.1-.1.7,1.8Zm2.4,1.9-2.1-.1.7,1.8Zm7.1,15.8-1.4.2.7,1Zm-.6,1.6-1.4.3.7.9Zm-4.3.6.9,1.9,1.1-1.6Zm-47-15.6-1.3-.8-.1,1.3Zm-4,2.2-.3-1.4-1.1.8Zm-2.3-.2-.2-1-.8.5Zm-.6,4.1.1-.9-.7.3Zm5.2-1.3,1.9.2-.6-1.8Zm-4.3,1.9,1-1.3-1.4-.3Zm-3.1-3.2.2,1.1.9-.6Zm7.3-.8-1.4-.4.2,1.3Zm-1,3.4.3,1.2.8-.6Zm3.6.8-.1-.8-.6.3Zm-5.5-1.6.7,1,.6-.9Zm16.2-2.4,1.9.2-.5-1.7Z" fill="#560532"/>
      <path id="Path_14986" data-name="Path 14986" d="M208.8,277.8l-1.5,1.2,1.4.9Zm-.3-3,1-1.3-1.4-.4Zm10.1-6.3,1.2-.6-1-.8Zm-5,4-.2-1.1-.9.6Zm9.2,1.9h-1.1l.4.9Zm-17.7,2.8.2-1.7-1.5.5Zm-.2-5.6.3,1.2.9-.7Zm4.2-.5-1.8-1.2-.3,1.9Zm3.6-.7-1.4-.5.2,1.3ZM212,274l.2,1.2.8-.6Zm1.9,4.5.5.8.4-.7Zm1.7-4-.1-.8-.6.4Z" fill="#560532"/>
      <path id="Path_14987" data-name="Path 14987" d="M215.6,267.7h1.2l-.4-1Zm-5.5,1,.3-.9-.9.1Zm6.3,5.3-.9-.5v.9Zm-6.6-.7.7,1,.5-.9Zm17,2.3.1,1.2.9-.6Zm-1.9-5.2,1,.1-.3-.8Zm-4.2,7,.4-.9h-.9ZM218,271l1.2-.6-1-.7Z" fill="#560532"/>
      <path id="Path_14988" data-name="Path 14988" d="M213,275.1l-.3-1.2-.8.6Zm9.2,1.8H221l.5,1Zm-2.2-7.2h1.2l-.4-1Zm-5.4.9.2-.9-.8.1Zm6.1,5.3-.8-.5-.1.9Zm-3.1-4.4h1.2l-.5-1Zm-5.5.9.3-.9-.9.1Zm6.2,5.3-.9-.5v.9Zm19.6-3.1.4-.8-.8-.1Zm1,32.7-.4.7h.7Zm.1-6.6.6.4.2-.6Zm2.1-28.2-.1,1.1,1-.3Zm-.4-5.3.9.4-.1-.9Zm-5.6,5.5.5-.8-.8-.1Zm6.8,14.6.9-.2-.4-.7Zm-4.2,1.5.1-.8-.7.2Zm5.7,3.4-.8-.3v.7Zm-4-20.3-1.8-1.2-.3,1.9Zm5.2,13.5.5.8.5-.7Zm-5.1,7.4.6.7.4-.7Zm-3.4-3,.7-.3-.5-.5Zm-.2,6.6-.1-.8-.6.4Zm5.5-25.8.5,1,.7-.8Zm-3.4-4.4,1-.2-.5-.7Zm-1.8,7.9v-1l-.8.4Zm-2.5,17.2.4.7.4-.6Zm-5.3-1.7.7-.2-.5-.5Zm4,.1.9-.1-.4-.7Zm-4.2,1.6.1-.8-.7.2Zm5.7,3.3-.8-.3.1.7Zm16.5-6.1.6.8.4-.8Zm-3.3-2.9.7-.3-.5-.5Zm-.2,6.6-.1-.8-.6.4Zm-4.7,2.6-.4.7h.7Zm.2-6.6.6.4.2-.6Zm4.8,4.7.6.7.3-.8Z" fill="#560532"/>
      <path id="Path_14989" data-name="Path 14989" d="M243.7,290.1l.7-.4-.5-.5Zm0,6.5-.1-.8-.6.4Zm1.3-4.7,1.2.7.1-1.2Zm-6-2.2.8-.7-.9-.4Zm3.2,8.9-.6-1-.6.8Zm4.1-7.9.6,1,.7-.8Zm-3.5-4.3,1-.2-.6-.7Zm-1.5,8v-1l-.8.4Zm5,5.7-.4-1.1-.8.6Zm-16.8,16.6-.7.4.6.4Zm3.6-5.5.3.7.5-.5Zm12.3-13.9.7,1.2.7-1Zm-4-5,1.2-.3-.6-.8Zm-1.9,9.2v-1.2l-.9.5Zm-1.8,3.2.1.9.7-.4Zm-1.4-4.3.8.1-.2-.7Zm-3.6,5.5.3-.7h-.7Zm9.3,9.4.1.9.7-.4Zm-1.6-4.2.8.1-.2-.7Zm-3.3,5.6.3-.7h-.8Zm4.2,3.4.7,1.2.7-.9Zm-4-5,1.1-.2-.6-.8Zm-1.9,9.3v-1.2l-.9.4Zm3.5-16.6-.7.4.6.4Zm3.6-5.5.3.7.5-.4Z" fill="#560532"/>
      <path id="Path_14990" data-name="Path 14990" d="M242.5,301.9l.2.9.7-.5Zm-1.5-4.3.8.1-.3-.6Zm-3.4,5.7.3-.7h-.7Zm5.5,5.3.1,1,.7-.5Zm-1.5-4.2.8.1-.2-.7Zm-3.4,5.6.3-.7h-.8Zm3.5-3.4.7,1.2.7-.9Zm-4-5,1.2-.2-.6-.8Zm-1.9,9.2v-1.1l-.9.4Z" fill="#560532"/>
    </g>
    <path id="Path_14991" data-name="Path 14991" d="M177.333,268.57l9.965-4.162,10.56,25.282-9.965,4.162Z" fill="#595959"/>
    <path id="Path_14992" data-name="Path 14992" d="M183.6,283.5l-6.3-14.8,9.9-4.2,6.6,16.1Z" fill="url(#linear-gradient-5)"/>
    <g id="Group_1131" data-name="Group 1131">
      <path id="Path_14993" data-name="Path 14993" d="M401.84,457.07l-6.9-73.67.01-.07,6.9-74.3,1.5.14-6.9,74.23,6.9,73.53Zm-18.8,3.3-1.5-.14,7-76.83-7-70.93,1.5-.14,7,71.07-.01.07Z" fill="#595959"/>
      <path id="Path_14994" data-name="Path 14994" d="M468.02,395.55l-74.23-6.9-73.53,6.9-.14-1.5,73.67-6.9h.07l74.3,6.9Zm-74.22-13.3h-.07l-77-6.9.13-1.5,76.93,6.9,70.94-6.9.14,1.5Z" fill="#595959"/>
      <path id="Path_14995" data-name="Path 14995" d="M349.07,443.48l-1.16-.96,47.3-57.1,57.4-47.6.96,1.16-57.35,47.55Zm-16.8-11.9-.96-1.16,59.24-49.45,45.26-55.05,1.16.96-45.4,55.2Z" fill="#595959"/>
      <path id="Path_14996" data-name="Path 14996" d="M450.3,429.58l-57.1-47.2-47.6-57.5,1.15-.96,47.56,57.45,56.94,47.05Zm-12.1,16.6-49.45-59.25L333.7,341.68l.95-1.16,55.2,45.4,49.5,59.3Z" fill="#595959"/>
    </g>
    <circle id="Ellipse_374" data-name="Ellipse 374" cx="10.4" cy="10.4" r="10.4" transform="translate(382.09 373.6)" fill="#283749"/>
    <path id="Path_14997" data-name="Path 14997" d="M392.5,320.6A63.4,63.4,0,1,1,329.1,384a63.483,63.483,0,0,1,63.4-63.4m0-15A78.4,78.4,0,1,0,470.9,384a78.4,78.4,0,0,0-78.4-78.4Z" fill="#333"/>
    <path id="Path_14998" data-name="Path 14998" d="M392.5,323.5a60.6,60.6,0,1,1-60.6,60.6,60.688,60.688,0,0,1,60.6-60.6m0-7a67.6,67.6,0,1,0,67.6,67.6,67.644,67.644,0,0,0-67.6-67.6Z" fill="#ed89ae"/>
    <g id="Group_1132" data-name="Group 1132">
      <path id="Path_14999" data-name="Path 14999" d="M124.94,457.07l-6.9-73.67.01-.07,6.9-74.3,1.5.14-6.9,74.23,6.9,73.53Zm-18.8,3.3-1.5-.14,7-76.83-7-70.93,1.5-.14,7,71.07-.01.07Z" fill="#595959"/>
      <path id="Path_15000" data-name="Path 15000" d="M191.12,395.55l-74.23-6.9-73.53,6.9-.14-1.5,73.67-6.9h.07l74.3,6.9Zm-74.22-13.3h-.07l-77-6.9.13-1.5,76.93,6.9,70.93-6.9.15,1.5Z" fill="#595959"/>
      <path id="Path_15001" data-name="Path 15001" d="M72.17,443.48l-1.16-.96,47.3-57.1,57.4-47.6.96,1.16-57.35,47.55Zm-16.8-11.9-.96-1.16,59.24-49.45,45.26-55.05,1.16.96-45.4,55.2Z" fill="#595959"/>
      <path id="Path_15002" data-name="Path 15002" d="M173.4,429.58l-57.1-47.2-47.6-57.5,1.16-.96,47.55,57.45,56.94,47.05Zm-12.1,16.6-49.45-59.25L56.8,341.68l.95-1.16,55.2,45.4,49.5,59.3Z" fill="#595959"/>
    </g>
    <circle id="Ellipse_375" data-name="Ellipse 375" cx="10.4" cy="10.4" r="10.4" transform="translate(105.19 373.6)" fill="#283749"/>
    <path id="Path_15003" data-name="Path 15003" d="M115.6,320.6A63.4,63.4,0,1,1,52.2,384a63.483,63.483,0,0,1,63.4-63.4m0-15A78.4,78.4,0,1,0,194,384a78.4,78.4,0,0,0-78.4-78.4Z" fill="#333"/>
    <path id="Path_15004" data-name="Path 15004" d="M115.6,323.5A60.6,60.6,0,1,1,55,384.1a60.688,60.688,0,0,1,60.6-60.6m0-7a67.6,67.6,0,1,0,67.6,67.6,67.644,67.644,0,0,0-67.6-67.6ZM201.3,269H184.8s-21,6.2-27.8,7c-5,.6-12.5-2.4-12.5-9.8V262c0-8.4,7.7-10.4,12.5-10.4h44.3a8.706,8.706,0,0,1,8.7,8.7h0a8.706,8.706,0,0,1-8.7,8.7Z" fill="#ed89ae"/>
    <path id="Path_15005" data-name="Path 15005" d="M397.6,380.3,336,226.4a5.385,5.385,0,1,0-10,4l9.1,22.7L190.6,285.5c-.2,0-.3.1-.5.1H190c-.1,0-.2.1-.4.1h-.1c-.1.1-.3.1-.4.2l-.1.1c-.1.1-.2.1-.3.2a.1.1,0,0,0-.1.1l-.8.8c-.1.1-.2.2-.2.3l-76.3,93.1a5.368,5.368,0,0,0-.7,5.7,5.49,5.49,0,0,0,4.5,3.1c4.2.5,76,12.3,123.5,20.2h1.6a.6.6,0,0,0,.4-.1c.1,0,.2,0,.2-.1.1,0,.2-.1.4-.1.1,0,.2-.1.3-.1s.2-.1.3-.1.2-.1.3-.2c.1,0,.2-.1.3-.2s.2-.1.3-.2.2-.1.2-.2c.1-.1.2-.1.2-.2l.5-.5c.1-.1.1-.2.2-.2h0L340.9,268l46.6,116.4a5.4,5.4,0,0,0,5,3.4,4.767,4.767,0,0,0,2-.4A5.453,5.453,0,0,0,397.6,380.3Zm-282.4,8.9Zm10.4-9.2,64.7-78.9,40.5,96.1L125.6,380Zm115.1,13-41.5-98.4,130.5-29.2Z" fill="#ffa015"/>
    <path id="Path_15006" data-name="Path 15006" d="M346.8,208.3s-20.9,3.5-22.9,13.1c-1.8,8.8,3.8,15.7,3.8,15.7l19.1-7Z" fill="#595959"/>
    <path id="Path_15007" data-name="Path 15007" d="M334.2,212.3l8.8.7,3.5,17.2-17.3,6.3-.6-6.2C328.5,215.5,334.2,212.3,334.2,212.3Z" fill="url(#linear-gradient-6)"/>
    <path id="Path_15008" data-name="Path 15008" d="M157,276c6.8-.8,27.8-7,27.8-7h16.5a8.7,8.7,0,0,0,0-17.4H157a10.283,10.283,0,0,0-1.7.1c3.5,3,6.8,7.6,3.1,13.1-2.9,4.2-7.5,6.2-11.8,7.2A12.194,12.194,0,0,0,157,276Z" fill="url(#linear-gradient-7)"/>
    <path id="Path_15009" data-name="Path 15009" d="M338.7,233.3l58.9,147s2.2,4.9-3,7c-4.8,1.9-7-3-7-3L333.5,235.2l5.2-1.9Z" fill="url(#linear-gradient-8)"/>
    <path id="Path_15010" data-name="Path 15010" d="M199.5,294.5,244.3,402a5.038,5.038,0,0,1-2.9,7c-4.8,2-7-2.9-7-2.9L194.3,296.5l5.2-2Z" fill="url(#linear-gradient-9)"/>
    <path id="Path_15011" data-name="Path 15011" d="M232.5,408.1,114.8,389.2a5.035,5.035,0,0,1-4.5-6.1c.7-5.1,6.1-4.5,6.1-4.5l114.4,18.9Z" fill="url(#linear-gradient-10)"/>
    <path id="Path_15012" data-name="Path 15012" d="M341,267.9,245.66,404.7l-3.5-7.83L337.7,265C337.7,264.9,341.6,263.3,341,267.9Z" fill="url(#linear-gradient-11)"/>
    <path id="Path_15013" data-name="Path 15013" d="M199.3,294.6l130.4-29.2s3.2-5.2-6.6-3.4c-9.8,1.9-118.5,26.5-123.2,27.8s-.6,4.8-.6,4.8Z" fill="url(#linear-gradient-12)"/>
    <path id="Path_15014" data-name="Path 15014" d="M239.3,384.5a19,19,0,1,1-19,19,18.992,18.992,0,0,1,19-19m0-4a23,23,0,1,0,23,23,23,23,0,0,0-23-23Z" fill="#333"/>
    <path id="Path_15015" data-name="Path 15015" d="M212.8,429.8a2.019,2.019,0,0,1-1.5-.66,1.994,1.994,0,0,1,.15-2.82l54.5-48.9a2,2,0,0,1,2.67,2.97l-54.5,48.9a2,2,0,0,1-1.33.51Z" fill="#595959"/>
    <g id="Group_1133" data-name="Group 1133">
      <path id="Path_15016" data-name="Path 15016" d="M226.6,432.4l-27.9-2.1a4.97,4.97,0,0,1-4.6-5.4h0a4.97,4.97,0,0,1,5.4-4.6l27.9,2.1a4.97,4.97,0,0,1,4.6,5.4h0A5.038,5.038,0,0,1,226.6,432.4ZM279,391.5l-26-10.3a5.013,5.013,0,0,1-2.8-6.5h0a5.013,5.013,0,0,1,6.5-2.8l26,10.3a5.013,5.013,0,0,1,2.8,6.5h0A4.977,4.977,0,0,1,279,391.5Z" fill="#283749"/>
      <circle id="Ellipse_376" data-name="Ellipse 376" cx="6.7" cy="6.7" r="6.7" transform="translate(232.59 396.8)" fill="#283749"/>
      <circle id="Ellipse_377" data-name="Ellipse 377" cx="11.6" cy="11.6" r="11.6" transform="translate(337.79 207.7)" fill="#283749"/>
    </g>
    <circle id="Ellipse_378" data-name="Ellipse 378" cx="6.2" cy="6.2" r="6.2" transform="translate(343.19 213.1)" fill="#ed89ae"/>
    <path id="Path_15017" data-name="Path 15017" d="M252.63,344.75l8.83-25.65,22.38,9.5-8,21.57c-.18-.08-15.15,15.45-23.22-5.4Z" fill="#e79a7a"/>
    <path id="Path_15018" data-name="Path 15018" d="M264,345.32c9.46,5.2,12.78,2.2,12.78,2.2l6.63-17.27-22.58-10.64-6.06,19.1c-.2.25,1.5,2.2,9.23,6.62Z" fill="url(#linear-gradient-13)"/>
    <path id="Path_15019" data-name="Path 15019" d="M253.55,342.96a.289.289,0,0,1-.48.13c-.2-.07-.4-.37-.23-.52l6.77-20.1a.42.42,0,0,1,.52-.23c.19.07.4.37.23.52l-6.8,20.2Z" fill="#cc7a5e"/>
    <path id="Path_15020" data-name="Path 15020" d="M252.6,342.37a36.779,36.779,0,0,0,12.05,6.53c7.52,2.18,11.52.2,11.52.2l-1.74,5s1.24,4.24-10.82,2.43c-12.03-1.9-13.54-8.5-13.54-8.5l2.53-5.67Z" fill="#fff"/>
    <path id="Path_15021" data-name="Path 15021" d="M243.3,366.98l54.72,21.24a1.826,1.826,0,0,0,2.46-1.08c.82-2.37,2-6.2,1.74-9.4-.37-4-19-21.7-24.3-26.87a2.8,2.8,0,0,0-2.96-.4,17.609,17.609,0,0,1-16.1,1.66c-5.9-2.2-6.23-5.22-7.48-6.68-.4-.6-1.08-.53-1.7.2-1.82,2.2-5.75,9.24-7.94,18.7a3.451,3.451,0,0,0,1.54,2.65Z" fill="url(#linear-gradient-14)"/>
    <path id="Path_15022" data-name="Path 15022" d="M252.3,364.9c-.37-.15,1.73-8.02-5.85-12.8l.6-1.27c4.72,3.02,5.92,5.74,6.5,8.65a23.142,23.142,0,0,1,.33,6.03l-1.58-.6Z" fill="#fff"/>
    <path id="Path_15023" data-name="Path 15023" d="M243.3,366.98l54.72,21.24a1.826,1.826,0,0,0,2.46-1.08c.16-.7.58-1.5.9-2.55l-58.36-23.74-.96,3.28a2.46,2.46,0,0,0,1.25,2.85Z" fill="#db7028"/>
    <path id="Path_15024" data-name="Path 15024" d="M271.52,359.63l9.08-6.22a12.11,12.11,0,0,0,1.67,1.5l-9.25,6.37c-.9.62-2.46-.86-1.5-1.66Zm5,5.07,9.25-6.37,1.54,1.57-9.32,6.56C277.07,366.86,275.41,365.34,276.52,364.7Z" fill="#fff"/>
    <g id="Group_1134" data-name="Group 1134">
      <path id="Path_15025" data-name="Path 15025" d="M280.5,366.9l-.43-.8-.6.73,1.04.08Zm4.18,1.08-1.08-.53-.04,1.5,1.12-.96Zm-8.08-16.14,1.65-.65-1.2-.8-.45,1.44Zm4,1.56-1.03-.94-.62,1.58,1.65-.64Zm9.06,10.62-.38,1.25,1.52-.6.38.68.62-1.05h-1.08l-.04.1-.58-.44.35-.08-.84-.87-.5,1.3.56-.3Zm-18.88-10.48-1.5.27,1.03,1.48Zm1.4-.54.1.26-.46.36.34.24.01,1.08,1.33-1.2-1.33-.74Zm9.45,4.67-1.27-.6-.02,1.7,1.3-1.1Zm-.92,1.8v1.7l1.38-1.07-1.36-.64Zm12.34,6.64-1.08-.53.1,1.43,1-.9Zm-9.46-3.27,1.25.92h-.54l.5,1.17.66-1.14-.32-.02-.14-1.56-1.42.63Zm-13.42-3.3-1.03-1.48-.64,1.36,1.67.12Zm-2.86-5.63-.64,1.36,1.58.08-.94-1.44Zm-4.6,5.5-1.03-1.48-.64,1.36,1.67.12Zm-2.7-3.83,1.22,1,.1-.5.82.1-.47-.72,1.08-.01-1.03-1.48-.4,1.02-1.3.58Zm1.3-.03.1-.5.32.02-.4.48Zm10.45.74.2.07.35,1.32.57-.64.06.13-.02-.22.44-.58-.47-.18-.05-.98-1.07,1.08Z" fill="#ffd7d2"/>
      <path id="Path_15026" data-name="Path 15026" d="M253.9,353.07l-.83-1.18-.53,1.08Zm2.2,5.05-.83-1.18-.53,1.08ZM249.84,350l-.53,1.08,1.43-.1-.9-1Zm38.46,13.4-1.02.68,1.23.7-.2-1.38Zm13.72,15.43-.1-1.43-1.02.68,1.1.75Zm.28-1.5-1.03-.94-.44,1.12Zm-4.47-4,.01-1.4-1.02.68,1,.7Zm-2.7,2.27-.3.75.8-.12Zm1.26-1,.96-.27-.58-.44-.38.7Zm.62,1.73.28.65.38-.7-.66.06Zm3.7.37.38-.7-.87-.23.5.94Zm-16.78-17.5-1.08-.53.1,1.43,1-.9Zm.15,4.57-1.27-.6-.02,1.7,1.3-1.1Zm2.36-2.2-.78.34.06.13-.87-.23.1,1.1.85-.53.45.5.2-1.32Zm1.35,4.5-.42.8,1.1-.1-.7-.7Zm7.52,4.12.62.35-.06,1.26,1.1-.86-.84-.33.01-.85-.82.43Zm4.75,4.32-.45-.5-.42.8.87-.3Zm-7.35.45-.87-.23.38.68.5-.45Zm-25.83-14.15-.58-.98-.46.9,1.04.08Zm5.5.75-.78-.2.1,1.1ZM265.4,367l.9.46-.05-.98-.85.52Zm7.74-12.64,1.28.3-.5-.94-.8.65Zm-5.5,4.2-1.05-.62-.12,1.13,1.17-.5Zm8.7-3.05-.5-.94-.6.95h1.08Zm6.35,1.08-.75-.3-.08,1.04.83-.75Zm-7.1,3.9-1.02.14.86.55.16-.7Zm.32-7.17.05-.95-.78.34.73.6Zm-4.8,16.7.9.46.06-1.26-.96.8Zm2.36-6.06-.7-.7-.23.87.92-.17Zm4.9,5.88-.9.08.34.78.55-.86Zm-7.1-10.4.06-1.26-.92.7.86.55Zm-12.17-5.4.03-1.17-.83.75Zm1.25,6.7.4.05-.45-.5.04.45-.7-.7-.54,1.94,1.98-.4-.75-.83Zm1.38,3.86.34.78.46-.9Zm-7.83-7.44-.97-.27.34.78.63-.5Zm9.87,1.7.75.3-.01-1.08-.74.8Zm-2.3-5.1-.97-.27.4.9.57-.64Zm7.12,3.2-.87-.23.4.9.47-.68Zm-13.28-4.75-.67-.48-.16.7.83-.2Zm14.13,4.77.38-.7-.76.02.38.7Zm3.8,1.57-.4-.37v.54Zm4.88,4.8.16-.7-.8.12.64.57Zm-3.6-.12-.1-.57-.3.52.4.05Zm2.73-4.52.04.45.5-.45Zm4.77,12.5.58.44.22-.56Zm-3.7.48.32.02.45.5.07-.72-.45.04-.2-.3-.18.46Zm3.94-4.37-.6-.12.04.45.56-.33Zm6.92-.95.58.44.22-.56Zm-3.1.5-.1-.57-.3.52.4.05Zm3.34-4.16-.6-.12.04.45.56-.33Zm4.4,7.73.45.5.27-.43Zm-2.67.25-.13-.48-.27.43.4.05Zm2.77-3.54-.43-.27.04.45.4-.18Zm-27.95-4.58.3-.52-.5-.1.2.6Zm-8.28-2.15-.06,1.26.8-.43-.75-.83Zm-4.25-4.23.64.57.36-.93Zm-4.57.15.47.72.5-.77-.98.05Zm2.65-2.94-1.04-.08.47.72.57-.64Zm-3.16-2.63.72.07-.12-.8-.6.73Zm3.2.6.83-.2-.77-.5-.06.72Zm8.18,5.45-.28-.65-.25.65Zm4.34,5.65-.36-.46.13-.06-.73-.6v1.08l.17-.15-.1.5.87-.3Zm2.12,2.56-1.14-1.2-.12,1.67Zm-5.48-3v1.08l.65-.28-.66-.8Zm-10.5-15.8,1,1.03.67-1.45-1.66.42Zm-2.84,8.98-1.9-1.17.85-1.07,1.05,2.24Zm7.07,4.15-.5.45.72.07-.22-.52Zm-.16,3.16-.04,1.5.9-.4-.87-1.1Zm-4.44-4.86.53.85.5-1-1.02.14Zm9.6.43-.5-1.17-.55.86,1.06.3Zm25.94,11.95,1.1.2-.18-.93-.92.72Zm-6.93-2.6.68-.38-.73-.6.05,1Zm5.92-8.85.66-1.14h-1.08l.42,1.13Zm.77,5.45,1.1.2-.17-.93-.93.72Zm-6.85-3.64.01,1.08.6-.4-.6-.67Zm8.62,1.56.5,1.17.3-.75.86.55-.18-1.47-.98.58-.5-.08Zm1.48,6.14,1.1.2-.2-.83-.9.62Zm-6.2-3.07-.82-.64.01,1.08.8-.44Zm2.3.15,1.15.34-.5-1.17-.64.83Zm5.77,1.7.01,1.08.63-.5-.64-.57Zm-6.2,4.9.23-.87-1.02.14.8.73Zm3.7-2.64.87.23-.34-.78Zm5.25,1.72-.06-.67-.63.5.47.18-.1.5.53-.54-.22.02Zm-6.4,3.2.77.5.07-.72-.84.2Zm3.97-7.47.9.46-.14-1.02-.76.56Zm5.23,2.8-.7-.38-.1.82.8-.44Zm-6.38,1.8-.9.08.64.57.25-.65Zm-4.34-4.27.01,1.08.68-.38-.7-.7Zm6.26,2.12,2.37.82-.82-2.57ZM275.8,354.1l2.37.82-.82-2.57Zm-18.47,1.17.76-2.5-2.17.87-1.67.42,1,1.03.6-1.27,1.5,1.44Zm6.95.9,2.62-.38-1.95-1.62-.67,2Z" fill="#ffd7d2"/>
    </g>
    <g id="Group_1135" data-name="Group 1135">
      <path id="Path_15027" data-name="Path 15027" d="M272.54,347l.9-.57-1.07-.62ZM265,348.23l.57.17-.2-.8Zm1-3.46.12.66.4-.3Zm4.46,4-.56.15.4.43Zm-2.16-1.88.68.5.23-.77Zm-3.78-2.04,1.06.3-.18-1.2Zm10.18,4,.42-.7-.92-.06Z" fill="#ad5c49"/>
      <path id="Path_15028" data-name="Path 15028" d="M273.57,348.12l.9.16-.01-1.04Zm-11.47-4.28.93.38-.13-.98Zm-1.62-.47.86.25-.16-.88Zm12.72,2.46.34,1.66,1.7-1.17Zm-7.4-2.16.8,2.3,2.1-1.47Zm3.08,2.67,1.44-1.35-1.44-.42Zm6.25.36.46.56.3-.65Zm-9,.82.8.13-.3-.8Z" fill="#ad5c49"/>
      <path id="Path_15029" data-name="Path 15029" d="M258.34,342.85l.9.15-.3-.8Zm5.48,2.65.05.53.6-.24Zm8.73.04-2.23-.55.7,2.6Zm.07,1.9.44.65.5-.68Zm-2.36-.48-.7.3.68.52Zm-1.16,1.12-.5-.45-.3.64Zm-12.68-5.77-.47-.55-.2.67Zm1.92-.18-.7-.1.34.62Zm-3.94-1.15h-.72l.43.65Zm11.8,4.9-.82-.03.44.65Zm-4.22-.5-.47-.55-.3.64Zm2.52,1.67-.47-.55-.3.65Zm-7.4-3.2-.37-.52-.26.55Zm14.75,4.82.6.4.2-.67Zm-2.7-2.14.96.28-.23-1Zm6.76,2.18.32-1.47-1.66.35Z" fill="#ad5c49"/>
      <path id="Path_15030" data-name="Path 15030" d="M262.9,342.93l.52,2.13,1.88-1.43Zm-6.34-1.85.27,1.22,1.07-.83Zm2.78.82.27,1.23,1.08-.84Zm1.92.55.27,1.23,1.08-.84Zm-6.8-2,.36,1.26,1.08-.84Zm13.05,5.58.77.23-.07-.85Zm4.1.58-.1,1,1.06-.42Z" fill="#ad5c49"/>
    </g>
    <path id="Path_15031" data-name="Path 15031" d="M251.64,337.3l2.5-9.4,29.77,8.02-3.6,10.1a1.876,1.876,0,0,1-2.3,1.2l-24.77-7.32A2.283,2.283,0,0,1,251.64,337.3Z" fill="#912954"/>
    <path id="Path_15032" data-name="Path 15032" d="M154.13,207.84s-5.72,20.93-1.44,32.56a26.23,26.23,0,0,0,17,16c17.3,5.3,81,7.8,84.5,11,3.4,3.1,2.2,7.2.1,14.7-1.4,5.1-4.9,11.1-8.9,23.2-3.9,12-4.4,20.2.8,25.5,7.3,7.3,28.2,12,41.1,9.9,6.4-1.1,9.1-9,13.7-27.4,2.4-9.7,3.6-21.7,6.1-32.1,4.6-18.9,2.9-32.9-.6-41.4-3.2-7.7-10.3-14.4-20.2-18.5-15.23-6.33-60.4-13.36-60.4-13.36l-71.77-.1Z" fill="#a02d5a"/>
    <path id="Path_15033" data-name="Path 15033" d="M303.4,299.5c2.3-13.7,5.4-24.7,5.9-33.2,1.2-19.6-3.3-26.1-3.3-26.1s-13,15.4-25.5,32.5c-14,19.2-29.3,61.7-29.3,61.7s22.9,10.8,37.2,5.7C297.3,336.9,300.4,317.3,303.4,299.5Z" fill="url(#linear-gradient-15)"/>
    <path id="Path_15034" data-name="Path 15034" d="M249,250.3c-20.1-3.8-60.4-10.2-73.6-14.8a117.493,117.493,0,0,1-24.1-12.2s-2.5,15.6,5.7,24.6,17.5,10.3,43.1,13l37.9,3.7c7.5,1,12.3,1.6,16.5,2.4,8,1.5,7.6-14.2-5.5-16.7Z" fill="url(#linear-gradient-16)"/>
    <g id="Group_1136" data-name="Group 1136">
      <path id="Path_15035" data-name="Path 15035" d="M228.9,252.6l.3-.9.9.7Zm5.6,2.8-1.4-.7,1.5-1.1ZM209.8,262l-1.8-.2,1.1-1.8Zm6.3.6-1.8-.2,1.1-1.7Zm19.7,1-1.9-.2,1.2-1.8Z" fill="#72083d"/>
      <path id="Path_15036" data-name="Path 15036" d="M234.6,264.1l-1.5-.2,1-1.5Zm-32.4-2.9-1.8-.2,1.1-1.9Zm8.7-5.6-1.5-.9,1.8-1.2Zm10.3,4.7-1.5-.9,1.6-1.2Zm4.5-.5-1.6-.8,1.7-1.3Zm13,4.8-1.4-.7,1.4-1.1ZM226,262.8l-.1-1.8,1.9.6Zm-23.7-7.1v-1.9l1.9.8Zm-6.8,4.6-.1-1.8,1.9.7Zm-3.1-5.3-.1-1.8,1.9.7Zm10.5-12.2-.1-1.9,1.9.6Zm9.6,10.8-.1-1.8,1.9.6Zm4.3,2.3-.2-1.8,2,.6Zm-26.6,3.8v-1.9l1.9.7ZM179.3,258l-.1-1.5,1.7.6Zm5-4.8-.1-1.5,1.6.6Z" fill="#72083d"/>
      <path id="Path_15037" data-name="Path 15037" d="M176.1,257.7v-1.5l1.6.7Zm54.3,6.1-.1-1.5,1.6.5Zm1.9-1.8-.1-1.5,1.6.5Zm21.9,4.1.1-1.5,1.6.7Zm.9,1.6,1.1-1.1.6,1.6Zm-4.5-1.6-1.5-.1.9-1.5Zm.3-6.3-.9-.1.5-.9Zm-.6,2.9-.9-.1.5-.9Zm1-1.5-.5.8-.6-.8Zm1.5,3.9-.4.7-.6-.8ZM227.9,263l-1.4-.7,1.4-1.1Zm.4-4.5-1.6-.8,1.7-1.3Zm19,7.3-1.4-.7,1.5-1.1Zm-12.9-18.5-.6.6-.4-.9Zm-7.7,12.4,1.1-.7.1,1.4Zm2.5,1.9-.3-1,1.2.2Z" fill="#72083d"/>
      <path id="Path_15038" data-name="Path 15038" d="M236.1,259.7H235l.5-1.1Zm.2-17.8.2-.8.7.6Zm4.4,2.3-.6-.3.7-.4Zm-.3-6.5-.5.5-.3-.7Zm4.5,27.4-.2-1.1,1.3.2Zm7.7.3h-1l.5-1Zm-4.8-8.3-.3.9-.9-.7Zm-49.4-2.2-.1-1.2,1.3.4Zm8.2.9-1.1-.1.7-1.1Zm-4.3-9.4-.4,1-.8-.9Zm8.8,9.3.4-1.2,1.1.9Zm-13,1.7.4-1.3,1,1Zm15.4-.3.4-1.3,1.1,1Zm7.3,5-.9-.4,1-.8Zm-2.7-.6-1-.5,1-.8Zm2.1-9.8-.7.8-.4-1.1Zm-7.8,6.3-.8.7-.4-1.1Zm1.2,3.2-.8.8-.4-1.1Zm-6.1-17.7,1.2-.1-.4,1.4Zm-1.4,8.3.2-1,1,.6Zm9.6-4.7-1-.4.9-.8Zm-9.6,10.5,1.3-.1-.6,1.4Zm-3,.3,1.2-.1-.6,1.3Zm-16.8.4,1.3-.1-.6,1.4Zm17.2,1.6,1.2-1.5.9,1.9Zm-12.7-8.2.4-2.3,2.1,1.4Zm-30.6-1.2,2.3-.4-.5,2.4Zm36.4-2.5-1-.4.9-.8Zm-14.1,3.6.4.9-1.2-.1Zm12.9,3.5,1-.1-.4,1.2Zm-5.7,3.6.3,1h-1.2Zm9.8-.4.4,1-1.2-.1Z" fill="#72083d"/>
      <path id="Path_15039" data-name="Path 15039" d="M210.5,249.3l.8-.1-.3.9Zm-.9,5.3.2-.7.6.4Zm6.2-3-.6-.3.5-.5Zm10.1,2-.5.7-.4-.8Zm-3.3-4,.4.5-.7.2Zm-2.1,6.5.6-.3v.8Zm16.2-5.7-.5.7-.4-.8Zm-3.3-4,.4.5-.7.2Zm-2.1,6.5.6-.3v.8Zm6,7.9-.5.7-.5-.9Zm-3.3-4,.4.5-.8.2Zm-2.2,6.5.7-.3-.1.7Zm12.8-.9-.4.5-.4-.6Zm-2.9-3.3.4.4-.7.2Zm-1.7,5.2.5-.2v.6Zm-10.6-25.7v.9l-.9-.3Zm-9.1,2.4.7.1-.4.6Zm4.8,6.1.3-.6.5.6Zm-17.3-9.3.4-.5.3.6Zm6.3,4.6-.4-.5.7-.2Zm-25.2,5.8.8.9-1.4.5Zm-7.5,4,1-.5v1.2Zm8.9,5-.1-1,1.1.2Zm16.5-5.8.8.9-1.4.4Zm-7.4,4,.9-.5v1.2Zm8.9,5-.2-1.1,1.2.2Zm-28.5-8.6.2,1-1.2-.3Zm-1.5,2.8.1,1.1-1.1-.4Zm-4.2,1,.9.1-.5.8Zm14.6.5-.2-.9,1,.2Zm7.8-5.9.7.7-1.1.5Zm3.2-2.3,1.2,1.3-1.9.8Z" fill="#72083d"/>
      <path id="Path_15040" data-name="Path 15040" d="M193.7,249l.7.8-1.2.3Zm2.4,1.6.7.7-1.2.4Zm-15.6.1,1.6-.8.1,2Zm-10.6,4.8,1.7-.8v2Zm5.4-2.8,1.6-.8.1,2Zm-1.4,2.1,1.6-.8.1,2Zm7.8,1.2,1.7-.8.1,2Zm1.2-6.2-.2-.6.8.1Z" fill="#72083d"/>
      <path id="Path_15041" data-name="Path 15041" d="M201.1,244.1l1,.9-1.6.6Zm-8.2,5,1.1-.6.1,1.3Zm10.5,5-.3-1.2,1.3.2Zm25.8,5.4-.7-1,1.4-.4Zm7.6-3.7-.9.5v-1.2Zm-8.6-5.4.1,1.1-1.1-.3Zm-3,13-1.9-.2,1-2Zm-5.5-.5-1.8-.1.9-2Zm9.6.9-1.9-.2,1-2Zm2.5-4.5-1,.5v-1.2Zm-8.7-5.4.1,1.1-1.1-.3Zm1.9,1.4,1.1.6-1.1.9Zm-5.6,6.5.7-.8.5,1.1Zm10.4,1.1-.6-.8,1.2-.2Z" fill="#72083d"/>
      <path id="Path_15042" data-name="Path 15042" d="M230.7,262.9l-.8-1,1.4-.4Zm7.7-3.5-1,.4v-1.2Zm-9-5.4.2,1-1.2-.3Zm1.7,4.2.4-1.2,1.1.9Zm7.5,3.8-1-.5,1-.7Zm-.9-10.2-.7.7-.5-1.1Zm.9,6,.2-1,1,.7Zm6.1,3.1-.7-.4.8-.6Zm-.7-8.5-.6.6-.4-.9ZM237.4,263l.1-1,1.1.5Zm6.8,1.9-.9-.2.7-.7Zm-2.4-8.2-.5.8-.5-.9Zm-5.5,7.7-.8-1,1.4-.3Zm7.7-3.5-1,.4v-1.1Zm-9-5.4.2,1-1.2-.2Zm-11.9,5.3-.7-1,1.4-.3Z" fill="#72083d"/>
      <path id="Path_15043" data-name="Path 15043" d="M213.6,258.6l-.7-1,1.4-.3Zm17.5,4.2-.7-1,1.5-.3Zm13.5.6-1.2-.1.8-1.3Zm-42.5-8.7-1.3-.1.8-1.2Zm28.7,2.9-.9.5.1-1.3Zm-8.2-5.9.1,1-1.1-.3Zm-51,.6-.1-1.5,1.7.6Zm-7.6-.1-.1-1.1,1.1.4Zm7,.8-.9-.1.6-.9Zm-3.8-7.7-.4.8-.7-.7Zm.2-3.7,1.1-.1-.4,1.1Zm-1,6.7.1-.9.9.6Zm8.1-3.7-.8-.3.7-.7Zm1.5-2,1-.1-.3,1.1Zm-1,6.7.1-.9.9.6Zm8.1-3.7-.8-.3.7-.7Zm5.3,11.1-.8-1,1.4-.4Zm-9.6-1.1-.9-.9,1.4-.5Zm17.9,2-.8-.9,1.3-.4Zm13.5-1-1.3.1.6-1.4Zm-43.4-3.5h-1.3l.6-1.3Zm29-.5-1,.5v-1.2Zm-9-4.9.2,1-1.2-.2Zm53.2,16,.4-2.7,2.7,1.6Z" fill="#72083d"/>
      <path id="Path_15044" data-name="Path 15044" d="M213.7,260.1l.4-2.7,2.7,1.6Zm-29.5-3.5,2.7-.8-.4,3Zm9.6,1.7.4-2.6,2.7,1.6Zm-26-2.7.4-2.7,2.7,1.7Zm116.9,71.9-.4-1.2,1,.1Zm13.7-12.2,2-.3-.4,1.7Zm-1.6,3.6,2.1-.4-.4,1.7Zm1.6-13.6,1.7-1.3.5,1.8Zm-6.9,6.6,1.6-1.2.4,1.8Zm1.2,11.4,1.9-1.2.2,1.8Zm1.6,1.4,1.9.8-1.2,1.3Zm-14.9,14.4.7,2h-1.8Zm4.5-2.5.3,1h-.9Zm-6.5,3.1.3,1h-.9Zm.7-3.4,1,.2-.5.8Zm1.4,1.8,1,.2-.5.8Z" fill="#72083d"/>
      <path id="Path_15045" data-name="Path 15045" d="M289.9,335l1,.2-.5.7Zm3.8-14.9,2,.9-1.2,1.3Zm-2.1,6.8,1.7-1.2.4,1.8Zm2,2.7,1.6-1.5.5,2Zm.7-23.5v-2l1.6.6Zm6.7-4.4-.2-2.1,1.7.6Zm-4.8-4.7-.2-2.1,1.8.6Zm-6.7,17.6v-2.1l1.7.8Zm.8,4.8.1-2.1,1.6.8Zm11.9-23.2-.1-2.1,1.7.8Zm1.6-10.3v-1.8l1.3.6Zm1.4,4.2-1.5-2,2.1-.8Zm-8.5-2.1-.1-1.8,1.4.6Zm7,0-.1-1.8,1.4.6Zm-13.4,35.3,1.5-1,.2,1.5Zm-1.1,5.5,1.6-1.3.6,1.8Z" fill="#72083d"/>
      <path id="Path_15046" data-name="Path 15046" d="M285.1,336.7l1.6-1.3.6,1.8Zm8.2-7-1.4-.4.8-1Zm-2.8-3,.2-1.3.8.7Zm2.4-12.8-.6-1.2h1.2ZM298,303l-.6-1.2h1.3Zm-4.6,13.7-.6-1.2h1.4Zm2.1,7.1,1-.7.2,1.1Zm.2-2.8,1-.7.2,1Zm-9-2.3.9.8-.9.3Zm8.9-5.4,1,.9-1,.4Zm2-3.2-1.4.1.4-1.2Zm1.2-2.8-1.4.1.4-1.2Z" fill="#72083d"/>
      <path id="Path_15047" data-name="Path 15047" d="M304,291.1l-1.4,1,.4-1.2Zm-2.7,20.5-1.4-1.8,1.9-.4Zm.7-3.1-1.5-1.6,1.9-.5Zm-6.6,5.3.7-2.1,1.4,1.4Zm.3-5,.5-2.2,1.4,1.4Zm-3.6,17.4.5-2.1,1.4,1.4ZM280.6,341l.5-2.2,1.4,1.4Zm7.7-44.8,1.1-.5.1,1Zm10.2-12.7-.5,1.2-.7-.8Zm-.7,15.8-1.1.1.4-1Zm6.8-5.6-.3,1.1-.9-.7Zm-4.3,9.2-.4,1.3-.8-.8ZM304,291l-.9-1,1.1-.3Zm-16.1,33.6.6.8-.8.2Zm-2.2-3.6-.4.6-.4-.5Zm6.2,1-.7-.2.6-.4Z" fill="#72083d"/>
      <path id="Path_15048" data-name="Path 15048" d="M282,337.5l.6.8-.8.1Zm-2.1-3.6-.5.6-.3-.6Zm6.2,1-.8-.2.6-.5ZM277,304l-.5-.7.7-.1Zm2,6.9.4-.7.4.6Zm13.5-3.7-.9,1.1-.6-1Zm5.1-4.2-1.2-.5.8-.7Zm.4,9.6.1-1.1.9.5Zm1.7-31.6-.2,1.1-1-.5Zm3.6.4-.2,1.2-.8-.7Zm2.5-2.9-1,.1.3-.9ZM304,289.8l-.5-.8h.9Zm-5,3.1.1-.9.7.4Zm-5.8,4.9-.6.9-.5-.9Zm2.1,12-1.4,1.5-.7-1.6Zm-2.8-15.6-.7,1-.5-.9Z" fill="#72083d"/>
      <path id="Path_15049" data-name="Path 15049" d="M293.8,297.5l-.8,1-.4-1Zm4-13.7-1.8-1,1.4-1.1Zm9.9-7.5-1.3-1.6,1.8-.5Zm-.2,2.1-1.4-1.6,1.8-.4Zm-5.4.8-1.8-1,1.3-1.2Zm6.6-14.8-2-.4,1.1-1.5Zm-.5-6.5.2-1.4,1.5.8Zm-4.1,18.3.7-2,1.2,1.3Zm3.8-16,2-.5-.3,1.9Zm-3,19.1-1.8-.9,1.4-1.2Zm-2.5,8.5-1.9-.8,1.3-1.2ZM283.5,320l-1.3.7-.2-1.2Zm6.2-2.3-.9-.8,1-.4Zm-3.2,9.2.6-1.1.7.9Zm22.2-56.6-.3,1.1-.7-.8ZM295,319.1l-.6-3.1,2.6.6Zm1.6,9.9-1.5-1.8,2.6-.8Z" fill="#72083d"/>
      <path id="Path_15050" data-name="Path 15050" d="M297.7,326.5l-2-2.4,2.5-.8Zm.7-3.3-1.9-2.4,2.5-.8Zm-2.1-4,.5-3.1,2.2,1.6Zm2.4-8.7.5-3.2,2.2,1.6Zm.8-4.3.4-3.1,2.2,1.5Zm1,8.8-1.9-2.6,2.7-.6Zm2.9-23.8-2.9-.6,1.6-2.3Zm-4,9.1-.7-3.2,2.7.7Z" fill="#72083d"/>
      <path id="Path_15051" data-name="Path 15051" d="M306.3,274.2l-.6-3.1,2.6.7Zm2.4-5-1.6-1.7,1.9-.7Zm-2.7,1.4-.4-2.3,2,.4Zm-6.1,46.2-.6,2.2-1.5-1.4Zm-.6-3.4-.7,2.2-1.4-1.4Zm1-12.7,1.9-.5-.3,1.9Zm-.6,3.8,2-.5-.3,1.8Zm.7-9.3h-1.5l.5-1.1Z" fill="#72083d"/>
      <path id="Path_15052" data-name="Path 15052" d="M301.1,292.3h-1.4l.4-1.1Zm2.7,5.3-1.4-1.7,1.9-.7Zm1-4.7-1.5-1.7,1.9-.6Zm-6.8.9.5-2.3L300,293Zm-2.3-1.9-.9,1.1-.6-1.1Zm4.9-4.3-1.1-.5.8-.6Zm.2,9.8.2-1.2.8.7Zm-1.5,7.4.4-3.1,2.1,1.5Zm2.7-9.5.4-3.2,1.9,1.4Zm1.1,5.9-1.9-2.7,2.5-.6Zm3-16.2-2-2.6,2.7-.7Z" fill="#72083d"/>
      <path id="Path_15053" data-name="Path 15053" d="M305.6,287.5l-1.5-2.1,2.1-.5Zm1.1-5.8-1.5-1.9,2-.6Zm-3.5,20.1-.5,2.6-1.5-1.5Zm-.9-3.2-.6,2.2-1.4-1.4Zm-17.2,40.6,1.7-1.2.3,1.8Zm4.6-1.7,1-1.8,1,1.6Zm5-4.3-.9-2.3,2.2-.2Zm-1.5.7-1.6.5.7-1Z" fill="#72083d"/>
      <path id="Path_15054" data-name="Path 15054" d="M293,336.7l-.8.8-.4-1.1Zm.3-2.9-.6-1.3,1.1.1Zm-5.4.3.4-.8.5.6Zm4.8-.3-2.7-1.5,2.2-1.7ZM282.6,341l1.8-2.7,1.4,2.4Zm6.1-5.4-1.3-.8,1.1-.6Zm1.4-1.4-1.3-.4.7-1Zm-.1,5.3v-2.2l1.9.7Z" fill="#72083d"/>
      <path id="Path_15055" data-name="Path 15055" d="M293.5,335.8l-.9-2.1h1.9Zm-6-2.6,1.7-1.6.4,2Zm-.9-2.9-1.4.4.1-1.2Zm6.5-.8-.6-1,1-.2Zm-5.3,8.3.8-.9.4.9Zm-4.8-6.1-1.3.4.1-1.2Zm6.5-.8-.6-1,1-.2Zm-5.2,8.3.8-.9.4,1Z" fill="#72083d"/>
      <path id="Path_15056" data-name="Path 15056" d="M281.5,329.2l-1.2.2.2-1Zm5.7-.2-.4-.9h.8Zm-5.3,6.7.8-.7.2.9Zm8.1,1,2.1-2.5.8,2.2Zm-3.4,4.1,1.3-3,1.8,1.9Z" fill="#72083d"/>
      <path id="Path_15057" data-name="Path 15057" d="M288.4,338.8l-2.2.6.5-1.9Zm-7.1-19.9.3-.9.7.7Zm-2.7,3.8.8.2-.5.6Zm-1.8-6.7.1.9-.6-.3Zm4.9,10.2-.5-.7.7-.3Z" fill="#72083d"/>
    </g>
    <g id="Group_1137" data-name="Group 1137">
      <path id="Path_15058" data-name="Path 15058" d="M254.36,318.42l.9.42-.96.83Zm-8.06-15.58.52-1.67,1.75,1.2Zm-.3,3.7.52-1.67,1.6,1.4Zm5.93-13.23,1.4-1.23.7,2.02Zm2.3,9.15,1.26-1.34.76,1.85Zm-6.92,9.15,1.1-1.45,1.02,2Zm-1.67,2.4-.36-1.73,2.04.28Zm7.17,20.98-1.43-.8,1.5-1.48Z" fill="#cc5e96"/>
      <path id="Path_15059" data-name="Path 15059" d="M250.37,329.07l-.78-.46.77-.7Zm4,5.98-.77-.46.77-.7Zm.2-3.85-.02-.95.96.34Zm-2.12.84-.02-.94.96.34Zm-7.3-8.04-.08-.86.96.34Zm3.23-13.63-.37-1.73,2.18.25Zm-1.96,4.88,1.26-1.34.85,1.9Zm-3.05,1.22,1.45-1.47.6,2.1Zm13.1-21.52,1.67.38-1.1,1.67Zm-3.06-7.37,1.75.42-1.32,1.65Zm6.22-1.28,1.86.4-1.24,1.7Zm-3.82,18,1.87.18-1.07,1.8Zm-3.15,3.73,1.8.13-1,1.86Zm2.1-25.28,1.87.17-1.15,1.76Zm2.88-9.35,1.43-.08L258.4,275Zm-1.6,2.17,1.65,1.52-2.13,1.3Z" fill="#cc5e96"/>
      <path id="Path_15060" data-name="Path 15060" d="M263.53,278.56l1.52.08-.9,1.57Zm-6.58-3.16,1.52-.04-.76,1.64Zm-7.2,37.54.94-1.2.78,1.62Zm-2.28,5.03,1.43-1.24.7,1.94Zm-.33,8.7,1.43-1.24.72,1.94Zm-.28-10.23.18,1.27-1.4-.37Zm2.15-1.28,1.05-.2-.5,1.22Zm5.12-12.55,1.03.62-1.13.72Zm1.32-11.98,1.1.7-1.16.68Zm-3.34,14.04,1.2.7-1.13.73Zm-6.6,6.2.73-.84.5,1.1Zm1.3-2.58.68-.76.5,1.1Zm9.54,3.9-.62-.72,1.18-.23Zm-5-9-.66-.86,1.32-.26Zm2.18-5.03-.32,1.22-1.1-.85Zm.53-3-.32,1.22-1.12-.85Z" fill="#cc5e96"/>
      <path id="Path_15061" data-name="Path 15061" d="M257.23,280l-.18,1.25-.8-1.52Zm-8.28,15.66,1.37,1.38-2.15.74Zm1.15-2.84,1.32,1.46-2.13.52Zm.37,8.1,1.92-.5-.47,2.16Zm2.76-4.13,1.94-.4-.78,2.12Zm-6.07,16.58,1.92-.5-.65,2.06Zm2.4,18.77,1.92-.5-.7,2.15Zm16.65-40.4.63-.8.64,1.02Zm-.75-15.5-1,.4.1-1.3Zm-6.55,12.75-.2,1.06-.86-.7Zm-3.4-6.76-1.13.15.3-1.1Zm-1,9.86-1.1.23.37-1.3Zm2.2-13.72.85.76-1.25.5Zm-4.17,38.28-.6-.58.92-.38Zm4.7-2.44-.6.22-.04-.72Zm-6.1-3.26.3.65-.7-.2Z" fill="#cc5e96"/>
      <path id="Path_15062" data-name="Path 15062" d="M251.25,330.52l-.64-.5.92-.38Zm4.6-2.5-.56.36-.12-.77Zm-6-3.2.26.73-.8-.23Zm23.12-22.05.55.44-.78.35Zm-6.1,5.2.65-.3-.01.8Zm-7.73-8.18-1.05.5-.15-1.4Zm-2.18-7.98.3,1.02-1.28-.24Zm-7.1,7.55,1.03.07-.52.98Zm15.53-25.7h-1.12l.3-1.07Zm-7.02-6h-1.1l.3-1.07Zm-.34,2.23h-1.12l.3-1.08Zm3.22,1.94-1,.36.26-1.2Zm-4.44,5.83.8.4-.8.5Zm2.65,4.95.8.01-.37.82Zm3.95,8.64-.9.48v-1.1Zm-7.52,8.94-1.4,1.02-.44-2Z" fill="#cc5e96"/>
      <path id="Path_15063" data-name="Path 15063" d="M266,288.76l-.9.48-.04-1.22Zm-2.84,1.97-.88.62-.12-1.28Zm-2.7-17.8.77,1.6-2.06.1Zm-.15,2.7.76,1.6-2.06.05Zm.24,38.7-.78.93L259,314Zm-5.18-6.56.66.85-1.2.23Zm-3.48,9.8,1.06-.4-.05,1.25Zm-2.76-13.37,2.54.8-2.1,2.36Zm-5.6,8.07,1.82,2-2.5,1.1Z" fill="#cc5e96"/>
      <path id="Path_15064" data-name="Path 15064" d="M244.24,309.14l2.17,2.17-2.95,1.04Z" fill="#cc5e96"/>
      <path id="Path_15065" data-name="Path 15065" d="M245.18,306.2l1.87,1.84-2.78,1.28Zm1.66-2.08,2.7-.25-1.15,2.92Zm2.72-8.66,2.72-.13-1.33,2.95Zm1.77-3.98,2.66-.05-1.36,2.8Z" fill="#cc5e96"/>
      <path id="Path_15066" data-name="Path 15066" d="M248.06,297.94l1.93,1.98-3,1.14Zm11.14-19.87.4,2.77-2.87-.75Zm-3.85,8.4,2.7.77-2.23,2.4Zm-7.78,18.1-2,.44.62-2.1Z" fill="#cc5e96"/>
      <path id="Path_15067" data-name="Path 15067" d="M250.17,302.03l-1.92.5.52-2.25Zm2.7-12.53.8-1.76,1.32,1.46Zm-1.6,3.37.73-1.67,1.4,1.5Zm7.7-8.6-.12,1.2-1.3-.76Z" fill="#cc5e96"/>
      <path id="Path_15068" data-name="Path 15068" d="M259.82,281.43l-.22,1.15-1.2-.7Zm-5.65,1.32,1.28,1.57-2.07.75Zm1.23-4,1.43,1.38-2.1.86Zm1.4,4.28,2.06-.53-.74,2.23Zm7.86,1.77-1.03.72-.3-1.38Zm-3.06-7.54.45.9-1.2-.05Zm-5.97,8.64,1.02-.27-.35,1.17Zm-3.3,4.57,2.58-.1-1.36,2.82Zm2.7-9.2,2.35-.24-1.28,2.96Zm-1.8,3.92,1.85,1.78-3,1.37Zm3.1-15.17,2.58,1.06-2.33,2.3Z" fill="#cc5e96"/>
      <path id="Path_15069" data-name="Path 15069" d="M256.53,273.2l1.77,1.24-2.17,1.4ZM253,290.55l-2.08.43,1-2.45Zm2.75-1.32-1.9.5.6-2.2Zm-9.78,39.8,1.18-1.4.85,1.9Zm-2.67-4.5,1.68-.87-.06,2.06Zm-.7-7.96,1.97,1.56-2.13,1.25Zm2.17,4.3.1,1.2-1.12-1.24Zm-1.1,2.83-.9.74-.28-1.1Z" fill="#cc5e96"/>
      <path id="Path_15070" data-name="Path 15070" d="M243.88,319.4l1,.48-1.18.8Zm3.64,3.68.74-.26-.07.9Zm-1.24-4.58,1.03,2.58-3.1-.08Zm.18,12.66,2.43-1.35.17,3.24Z" fill="#cc5e96"/>
      <path id="Path_15071" data-name="Path 15071" d="M247.63,323.5l.64,1.08-1.53.02Zm-.15-1.72.1,1.2-1.32-.3Zm-4.72,3.25,2,.36-1.13,1.9Zm-.36-5.08,1.96,1.02-1.85,1.35Z" fill="#cc5e96"/>
      <path id="Path_15072" data-name="Path 15072" d="M247,322.4l1.36-1.5.65,2.24Zm5.6-1.14-.53,1.08-1-1.06Zm-6.44-5.22.76.7-1.03.55Zm-.98,10.46.8-.57.23,1.18Zm9.9-2.43-.52,1.08-.92-1Zm-6.35-5.17.76.68-1.03.55Zm-1.12,10.5.85-.66.23,1.2Zm9.87-6.82-.34.97-.93-.8Z" fill="#cc5e96"/>
      <path id="Path_15073" data-name="Path 15073" d="M251.5,318.7l.7.4-.8.57Zm.08,9.1.63-.67.33,1Zm-8.86-4.66,1.8-1.48.53,3.22Zm1.08,4.46,2.52-.72-.5,3.5Z" fill="#cc5e96"/>
      <path id="Path_15074" data-name="Path 15074" d="M247.5,327.25l-.54,1.9-1.58-1.64Zm13.2-13.75.96-.25-.2.93Zm.47,5.86-.13-.77.8.24Zm5.75-4.6-.67-.05.55-.72Zm-9.02,4.37.45.6-.78.35Z" fill="#cc5e96"/>
    </g>
    <path id="Path_15075" data-name="Path 15075" d="M200.5,236.6c46.6-4.8,59.4-22.38,59.4-22.38l-34.3-6.2-71.3.03s-2.04,7.7-2.7,12.16a53.112,53.112,0,0,0-.4,13.8s20.3,5.5,49.3,2.6Z" fill="url(#linear-gradient-17)"/>
    <g id="Group_1138" data-name="Group 1138">
      <path id="Path_15076" data-name="Path 15076" d="M203.92,220.23l-1.7.8,1.4.9Zm13.4-.6.5-1.4-1.6.5Zm1.4-5.2,1.4-.1-.8-1.4Zm6.3-6-1.8,2.9,2.9-1.3Zm-6.6,8.4.6-1.3-1.7.1Zm-44.32,1.94,1.4,1.4.7-1.6Zm9.13,3,.7-1.5-2.1.1Zm31.3-6.14v-.4l-.7.4.2-.9.1.5.7-.6-.8-.3.1-1-.4.1-.3-.2-.1.4-.7.1.4-1.2-1.5.6.9.7-1.3.4,2.7,1.8v-.3l.2.1,1,1,.5-1.3Zm-3.4.9-1.6.1,1.1,1.1Zm-16.86,10.75,1,.2-.3-1.1Zm8.86.05.1.8.8-.4Zm6.48.34.2-.9-.8.2Zm-16.04,3.63,1,.2-.3-1Zm-1.64-4.07-.9-.3.1.7Zm-10.67-4.1.2-.9-.8.2Zm14.35.76,1,.1-.3-1Zm-1.88.53v.8l.9-.4Zm6.8,4.9.2-.9-.8.2Zm6.5-2,.2-.9-.8.3Zm16.7-7.4,1,.2-.3-1Zm8.9-8,.9.2-.2-1Zm-13.6,12.4,1,.2-.3-1Zm4.5-10.5.1.8.8-.4Zm6.8,4.9.2-.9-.8.3Zm-9.4-2.9.2-.9-.8.3Zm6.5-1.9.2-.9-.8.2Zm-27.6,9.5h-1.1l.6.9Zm-1.6-2.6.7.5.1-.9Zm3.1,4.1,1.4.1-.5-1.3Zm10.1-.2.7-.7-1-.4Zm-4.6-4-.8.5.7.4Zm6.7-2.6-.3.7h.9Zm-.8.8.4-1.5-1.5.6Zm2.2-3.7,1.5-.5-1.3-.9Zm.5,2.1.4.9.6-.6Zm-.9,3.7.1-.9-.8.5Zm-8.5-3.6-.2.5-.1-.1-.3.7h.9l-.2-.3h.3Zm4.5,2-.1-.9-.7.7Zm-7.4-1,.3-1.5.2.2.3-1.8-1.7.9,1,.6-1.5.7Zm2.5-4.8-2.3,1.2,1.9,1.1Zm-7.1,11.4.7-.6-1-.4Zm-4.6-3.8-.8.5.7.4Zm6.4-1.8.9-.1-.6-.7Zm-23.9-4.6.9-.1-.6-.7Zm31,10,.6-.4-.8-.4Zm-6.6-1.9,1.1-.9-1.4-.6Zm4.3,2.6.6-.5-.9-.3Zm-5.6.3-.3.6h.8Zm-46.72-2.2,1,.2-.2-1Zm3.7,3.8,1,.2-.2-1Zm7.22,1.2.8-.4-.8-.4Zm7.42,1.9.2-.9-.8.3Zm-7.52-6.6.1,1.7,1.8-.8Zm-9.9-10v1.7l1.8-.9Zm-.3,3.3,1.2.3-.3-1.4Zm.7-6-.7,2.5,2.3-.5Zm13.5,16.7.1-.9-.8.2Zm-7.3-3.9-1.1-.1.6.9Zm1.9.7.3,1,.8-.6Zm-4.3-1.9.1-.9-.8.5Zm4.1.4-.8,1.2,1.3.1Zm5.7,1.3.2.9.6-.5Zm3.5,1.9-1.4-.7.4,1.5Zm-5.6-.3.6-.6-.9-.3Z" fill="#72083d"/>
      <path id="Path_15077" data-name="Path 15077" d="M159.72,227.03l.8-.1-.5-.5Zm22.76,2,1,.2-.2-1Zm-1.16-2v.7l.8-.4Zm6.9,4-.8.2.6.6Zm-15.48-3.1.9.2-.2-1Zm6.08.2-.8.2.6.6Zm2.2-6.83-1.9-.8.1,1.6Zm-13,.93.1,1.6,1.8-.8Zm17.3,3.9-.8.2.6.7Zm-7.4-3h-1.2l.7.8Zm2.6,11.27.7-.6-1-.4Zm-3.8.43.2-.8-.9.4Zm6.5-2.7h1l-.7-.7Zm2.3-7.6.6-.5-.8-.3Zm3-.77.3,1.5,1.1-.8Zm-5.6.57.3.9.6-.5Zm-5.4,1.2-.2.6.8-.1Zm-11.6-3.2,1,1,.6-1.5Zm30.2,0,1.5.2-.5-1.5Zm-4.25.92.2-1.3-1.2.4Zm-16.05.78h-1.7l1.1,1.3Zm15.3-5.2,1.4,1.8.8-1.8Zm-15.36,9.54,1.3-.7-1.4-.5Zm-19.9-4.33,1.1-.9-1.5-.3Zm64.28-5.8.9-.8-1.4-.5Zm-34.2,1.64-1.9,1.1,1.6.9Zm-1.82,3.16h-1.4l1.9,1Zm-25.2-.5,1.8-1.1-1.6-.8Zm-2-1.6,1.8-1.1-1.6-.9Zm37.3-1.2-.5-.2v.8l.4-.2v.7l1.8-1.1-1.7-.9Zm12.6-2.2-.2,1.9.6-.3.2.8.6-.5-.8-.4,1.2-.7Zm-2.3,3.7-.1,1.2,1.1-.7Zm7.7-5.8v.5l-.1-.1.1.4-.1.5.2-.1.1.7,1.1-.8-.6-.3.4-.2Zm-34.2,8.6-.1,1.3,1.2-.8Zm-16.1-3.5h.2l.3.2v-.1h.1v.2l-1.2.7,1.6.8.2-1.7v-.2l.2-.1-.3-.1.7-.5v1l1.1-.5.3.1-.9.5.9.5-1.7.6,1.9,1v-1.4l1.1.6.3-2.8-.9.5-.3-.8-.4.7h-.1l-.3-.4-.1.2-.3-.2.3-.1-2.4-.8.1.5-1.5.9Zm-2.3-.5v-.2l.1.2.2-.5.4.7,1.7-2.2-2.4.1v-.1l-.1.1h-.5l.1.2-1.3.8Zm.3-.9h-.1v-.1Zm-4.1-1.7,1.6.9.1-.6.1.1-.1.4,2.8-.4-.7-.6.4-.2.1.3,1-.6-.4-.1-1.6-.9-.1.9-.5-.4-.7-.7.9-.6-1.6-.8-.1.6-1.5-1.6.2,3.5,2.3-.3-.2.9-.3.1.1-.9Zm64.3-6.1-2.1.6,1.9,1.3.1-1,1.1.8.4-1.4-1.5.5Zm2.7,1,.2-2-2.2.7Zm-45.8,17.1-.3.9,1.2-.2Zm20.44-8.73,1.1-.9-1.5-.5Zm-12.34,4.13-1.2.6,1,.6Zm9.1-2.5,1.3-.1-.9-.9Zm24.7-13.9h-1.9l1,2.2Zm-1.4,4.9-.3-.2v.3l-.2.1.1-1.2-1,.2-.8-.2.2.4-.5.2,1.2.9h-.1l1.1.9-.1.2,1.6-.7-1.1-.8.1-.2Zm1.1-3.8h.4l1,.8.5-1.5-.7.3-.7-.7Zm.3,1.1-1.7.1,1.1,1.1Zm-18.8,6.3h-.4l.5.4v.6l.3-.2.6.6.7-1.5Zm15.4-6.2-1.6.1,1,1.1Zm-26.16,10.6,1,.2-.3-1Zm11.16,3.1.2-.9-.8.3Zm3.5-5.5.3-.2-1.1-.4.1.3-.2-.1.1.5-1.5-.7-.2,1.9,1.7-1v1l1.8-.8Zm-5.3-.4.6.9.5-.8Zm.2-2.1.1-.9-.8.5Zm12.4,3.3.8-.7-1.1-.4Zm-4.5-3.8-.8.4.7.4Z" fill="#72083d"/>
      <path id="Path_15078" data-name="Path 15078" d="M205.92,212.53l-.2.4h-.1l-.3.7.9-.1-.2-.2h.3Zm3.7,1.7.8.3-.1-.9Zm-8-1.6,1.5.9v-.4l.8.8.7-1.6-1.4.1.1-.7Zm-.9,1.2-2.2,1.2,1.8,1.1Zm-3.6,2.3.7-.2-1.5-1,2.7-.6-2.2-1.6-.5,2.2-1.6-1-.2,1.1-1.5.9,1.3.7v.3l.4-.1.3.1v-.2l1.4-.4-.4,1.7,2.8-.7Zm12.4,5-.6.3,1,.8v-.8l.8-.6-1.4-.6Zm-4.4-.5.6-.4-.9-.4Zm-39.8-5.5-.6-.6-.3.7Zm2.6,5.4.2-.1.8.4.4-2.7-2.6,1.5,1.2.6Zm3.55,2.6-.7.9h.3l-.7.2,1.4,1,.3-1.4-.4.1Zm2.83-1.58.6.6.1-.3,1.2.7v-1.8l-1.8.8Zm3.62-3.3h-1.2l.7.8Zm7.6,1.4.6-.5-.8-.3Zm-2.6-.1.3.8.6-.5Zm-5.4,1.1-.2.6.8-.1Zm-10-3.7-1.6.5,1,1Zm-5.3-3.4.1.6-1.5.9,1.6.8.1-.5v.2h.2l.1-.1,1.8-1.1Zm7.6,5.4,1.6,1.5.4-1.2.1.8.8-.4-.8-.4.3-1Zm19.4-.7-1.5.7,2.5.3Zm-15.9,2.1-1.7.3.7.5-1,.4.1-.4-1.6.3v-.8l-1,.4.9.8.1-.3,1.3,1,.2-.9,1.5,1.4.8-2.3-.5.2Zm-10.2-4.8-1.8,1.1,1.6.9Zm24.9,1.6.2-1.9-1.8,1Zm-1.9,1.3,1.7-.8-1.6-1.3Zm-6.6.1h-1.5l1.4.5Zm-14.2-.4v-1.5l1.1.6.3-2.3,1.5-.8-1.9-.8.1,1.3-2.2,1.3.9.5-1.7.7Zm27.8.6,1.7-1.1-1.6-.8Zm20.1-7.7-1.1-.6-.1,1.3Zm-35.2,8.1-.1,1.3,1.2-.7Zm-22.34-6.63,1.6.9.2-1.6h.3l-.3-.3v-.1h-.1l-2.6-2.7.1,3.5,1.7-.2Zm69.04-4.07h-4.1l1.2,2.1Zm4,5.9,1.4-.1-.8-1.3Zm-.2,2.4.5-1.2-1.6.1Zm-3.5-4.1.6-1.2-1.7.1Zm6.38-1.46.6-1.3-1.7.1Zm-3.5-2.33H226l1.1,2.1Zm.14,1.54h.4l1,.9.4-1.5-.7.3-.6-.7Z" fill="#72083d"/>
      <path id="Path_15079" data-name="Path 15079" d="M228.92,210.53l-1.6.1,1.1,1.2Zm-40.4-.1-.3-1.6-1.1,1.2Zm20.7-2h-3.7l2.1,1.8Zm-7.4,2.7-.8.4.6.4Zm13.1-1.1v.3l1.5-.5-.7-.4.4-.3-.2.4.9-.1-.4-.5.6-.5-2.7.1.2,1.9Zm-36.54-.33-.6,1.2,1.6.1Zm38.94,1.13-.8.4.8.4Zm-16-.2,1.8,1.1.3-1.7.6-.1-.5-.4v-.1l.6-.9-3.1.1,1.4,1.4Zm-8.4,3.7,1.2-.6-.8-1.2Zm8,.4.3,1,.8-.6-.2-.1.3-.1.1-.1,1-.6-1.6-.9-.1.8h-.1l.1.1v.7Zm-5-2.4.6.5.2-.9Zm14.8,2.6-.8-.4.2.9Zm-30-1.1h-1.1l.7.9Zm8.3,1-.8-.4.1.9Zm-23-3.7-1.8,1.1,1.6.9Zm16.8,2.3-2,.7,1.9,1Z" fill="#72083d"/>
      <path id="Path_15080" data-name="Path 15080" d="M205.02,211.53l.8-.5.2.1-1.1.5,1.4.9.1-1.1.8.5-.1.8-.4-.2-.1,1.5-.7-.3.1.3h-.2l.1,1.7,1.6-.8-.3,2.1,3.3-1-2.9-1.8-.1.5-.8-.3,1.2-.8.9.9.5-1.2h-1l-1-.5.7-.3,1.1.7.2-1,.1.1.1-.5,1,1,.5-1.2-1.5.1.1-.3-.3.2.2-1.1,2.1,1.4.2-2.1,2,1.4.3-2.7-2.7.7.5-.8-2.7.1.8,1.3-.5.1v-.1l-3.4,1h.1l-1.1-.6.9-.5-1.7-.9-.1,2,.9-.6Zm-44.24-1.83,1.6.9v-.1l1,.9.4-.7,1.3.7.1-.7v.4l1.5-.9.7,1-.5.3.9.5-1.6.6,1.8,1,.1-1.5,1.1.6.3-2.7-.5.2,1.6-1.7-5.2.1.7.8-1.1-.4v.6l-.9.6.9-1.6h-4.8l1,.9Zm-1.7,2.1-1-.9-.7,2.3,2.5-.4.1.1-.1.1h-.2v-.1l-.1.1h-.5l.1.2-1.3.8,1.6.9.1-1,.8,1.2,1.7-2.2h-.1l.6-.4.5-.1-.2-.1.4-.2.2.9,1-.7-1.1-.3-1.6-.8v.2l-.8-.7.4-.3-1.6-.8-.2,1.9-.5.3Zm1,1.1Zm1.2.1.4-.3v.2Zm.4-.2h0Zm-1.5,0h0l.1-1.7.5-.3Zm17.74.33,1.8-.2-1-1.6Z" fill="#72083d"/>
      <path id="Path_15081" data-name="Path 15081" d="M169.68,209.7l.8,2.7-.6.4.3-1-1.6.5.8.7-1.4.8,1,.6-2.2-.4,1,3.4,1.3-1,.6.4.6.5.1-.8.5.4v.5l1.1-.5.7.7.2-.6.2.2v-.1l1.7.9.2-1.8.2.2-.2.6,1.8-.2-.8-1.3v-.1h-.1l-.1-.2-.1.3-.6.1v-.2l1.4-.4-1.7-1,.2-.6-.8.2-.7-.4-.1.6-1,.3.8.8-.1.6-1.9.6-.1-.1.1-.3-.4.1h-.1l-1,.2.8-.6v.3l.6-.5-.8-.4v.2h-.2l.2-2.1.1.5,1.9-1.5,1.3,1,.2-.9,1.5,1.4.8-.7,1.3,1.2.3-2.7-.8.4,1.3-2.9,1.5,1.8.7-.8-.6,1.4h-1.1l1.3,2.5,1.9-2.2.4.1-.5,1.5.8-.1-.2.2,1.2.3v.3h-.1l.1,1.7.5-.2.1.2-.9.1-.2-.2v.2h-.2l.1.2v.7l-1.7-1,.1-.1-1-.6-.1,1.3.7-.5-.2,1.3-1.4-1.2.1-.8-.7.4.1-.9-1.2,1.2.9,1.5.1-1.2.5.3-.5,1.5,1.9-.3v.6h.1v.4h-.1l.1,1.7,1.8-.8-.7-.3.7-.4,1.5.8.1-1.7-1.7.7-1.2-.5h.1v.1l1.6-.5v.2l1.1-.5.2.2.1-.3.2-.1-.1-.1.1-.2.5.9,1.5-2.2-2,.1.9-.4-.7-.3.7-.4,1.5.8.1-1.7-1.7.7-1.2-.5,1.7-.5v.2l1.7-.8-1.6-1.3v1.1l-1.9-1.2.9-1.2-1.6.1.4-.8-2.3-.1,1.4,1.9.5-.9.6,1-.2,1.7-.1-.1-.1-.3-.1.1-.8-.7-.2-1.2-1,1h-.1l-.8-1.7,1.3-1.3-3.5.1h-4.6l-3.3.1,1.6,2.2-2.3-1.3Zm4.8,5.8h0l-1.2.7v-.4l.1-.2,1.6-.5-.5.4Zm-4.6.8v-.2l.2.1-.2.1Zm0-.3-.6.3.5-.4.1.1Zm5.4-3.9.8-1.1.7.5v1.1Zm-1.2-3.3,2.7,1.9-2.5.8.1-.4-1.5.3,1.2-.9-1.1-.2,1.1-1.5Zm16.24,1.63.3.4-.8.5-.2-.2-.2.4-.2.1.1.1-.1.3-.3-.2-.1,2,1.7-.8-1.1-.9h.6l.8.5.1-1.2.9,1.1-1.4,2,2,.2h-1.2l.7.8-.9.4h-.1l.2-.1-2.1-1.3-.2,2.1,1.5-.5v.1l.1.7-.1-.1-.4,1.8,2.2-.5-1.6-1.2.5-.4.6-.6.6-.2.5-.4.8-.7h-.6l-.6-1.5.7-1.3,1.8,1,.1-1.4.5.6.8-1.7h-1.2l1-1.6,2.7.4-1.7,3.4,2.1-.6-.3,1.7,2.8-.7-1.7-1.2.5.3.1-.5.2-.1-.1-.1.3-2.8-1.1.3.2-.4h-3.7v-.1l-3.9.7.3-.7h-4.1l1.8,2-.1.1Zm3.4.5.4.5-.8.3.4-.8Zm1.2.1-.2.1Zm-2.5-1.6.5.6-.8.2Z" fill="#72083d"/>
      <path id="Path_15082" data-name="Path 15082" d="M187.32,210.73l1.1,2.1,1.5-2.2Zm-27.94-2.03-4.5-.1,2.8,2.3Zm28.34-.17h-3.7l1.8,2.1Zm-.42,11.87,1.3.3-.4-1.3Zm-24.48,8.03.1.9,1-.5Zm5.36,2.27.1-1.1-1,.3Zm11.44-5.7,1.3.2-.4-1.3Zm-2.4,6.73.1,1,1-.5ZM152.25,220.2l.9.2-.2-1.1Zm1.37,1.23,1,.2-.3-1Zm3.1,9.9.8-.6-1-.4Zm-4.6-2.9.1-.9-.8.4Zm6.5-2.7.9-.1-.6-.7Zm-3.5,0,.9-.1-.6-.6Zm-.2-6.03,1.2.2-.3-1.3Zm-2.3,5.63.1.9,1-.5Zm11.82,8.45.2-1.1-1,.4Zm22.06-7.54,1.5.2-.4-1.5Zm.74-3.64,1.2-.6-1.3-.6Zm4.4,3.24.2-1.3-1.2.4Z" fill="#72083d"/>
    </g>
    <path id="Path_15083" data-name="Path 15083" d="M190.1,300.6l-70.5,86.5s-3.2,4.3-7.6.8c-4-3.2-.8-7.6-.8-7.6l76.6-85.9Z" fill="url(#linear-gradient-18)"/>
  </g>
</svg>
