<svg xmlns="http://www.w3.org/2000/svg" xmlns:xlink="http://www.w3.org/1999/xlink" width="238.782" height="228.699" viewBox="0 0 238.782 228.699">
  <defs>
    <linearGradient id="linear-gradient" x1="0.506" y1="0.07" x2="0.498" y2="0.742" gradientUnits="objectBoundingBox">
      <stop offset="0.005" stop-color="#aee1ff"/>
      <stop offset="1" stop-color="#79aee2"/>
    </linearGradient>
    <linearGradient id="linear-gradient-2" x1="0.589" y1="0.937" x2="0.505" y2="0.536" gradientUnits="objectBoundingBox">
      <stop offset="0" stop-color="#cc7a5e" stop-opacity="0"/>
      <stop offset="0.924" stop-color="#aa5f4b"/>
    </linearGradient>
    <linearGradient id="linear-gradient-3" x1="0.41" y1="0.5" x2="0.971" y2="0.5" gradientUnits="objectBoundingBox">
      <stop offset="0" stop-color="#1e2838"/>
      <stop offset="1" stop-color="#304056"/>
    </linearGradient>
    <linearGradient id="linear-gradient-4" x1="0.719" y1="0.564" x2="0.251" y2="0.407" gradientUnits="objectBoundingBox">
      <stop offset="0" stop-color="#151e28" stop-opacity="0"/>
      <stop offset="0.998" stop-color="#151e28"/>
    </linearGradient>
    <linearGradient id="linear-gradient-5" x1="0.597" y1="0.472" x2="0.261" y2="0.547" xlink:href="#linear-gradient-4"/>
    <linearGradient id="linear-gradient-6" x1="0.306" y1="0.822" x2="0.563" y2="0.412" xlink:href="#linear-gradient-2"/>
    <linearGradient id="linear-gradient-7" x1="0" y1="0.5" x2="1" y2="0.5" xlink:href="#linear-gradient"/>
    <linearGradient id="linear-gradient-8" x1="1.112" y1="-0.042" x2="0.251" y2="0.605" xlink:href="#linear-gradient-3"/>
    <linearGradient id="linear-gradient-9" x1="0.487" y1="0.441" x2="0.764" y2="0.58" xlink:href="#linear-gradient-4"/>
    <linearGradient id="linear-gradient-10" x1="0.504" y1="0.686" x2="0.485" y2="-0.135" xlink:href="#linear-gradient-4"/>
  </defs>
  <g id="_41" data-name="41" transform="translate(-115.327 -206.301)">
    <path id="Path_15213" data-name="Path 15213" d="M287.4,416.5l-12.7-36.4,27.6-8.7,16.2,43.7Z" fill="#ea9d7d"/>
    <path id="Path_15214" data-name="Path 15214" d="M284.1,407.5c-.2,0-.3-.1-.4-.3l-5.9-16.6a.474.474,0,0,1,.9-.3l5.9,16.6a.446.446,0,0,1-.3.6Z" fill="#cc7a5e"/>
    <g id="Group_1151" data-name="Group 1151">
      <path id="Path_15215" data-name="Path 15215" d="M284.2,407.5a21.827,21.827,0,0,0,14.5.1,46.208,46.208,0,0,0,14.1-8.1l3.8,9.2s-1.8,4.7-14.6,8.3c-12.9,3.7-15.6-3.2-15.6-3.2l-2.2-6.3Z" fill="#fff"/>
      <path id="Path_15216" data-name="Path 15216" d="M283.8,407a21.962,21.962,0,0,0,14.5-.1,46.221,46.221,0,0,0,14-8.4l4,9.2s-1.7,4.7-14.5,8.6-15.6-3-15.6-3l-2.4-6.3Z" fill="#fff"/>
    </g>
    <path id="Path_15217" data-name="Path 15217" d="M289.5,434.8l62.9-9.4a2.1,2.1,0,0,0,1.7-2.3c-.4-2.4-1.3-6.5-3.2-9.2-2.4-3.4-27.9-9.7-35.2-11.4a2.623,2.623,0,0,0-2.8,1.2,21.01,21.01,0,0,1-13.8,10.1c-6.6,1.4-10.5.6-12.4-.1a1.194,1.194,0,0,0-1.7,1c-.5,2.8-.9,9.1,2,18.6a2.3,2.3,0,0,0,2.5,1.5Z" fill="url(#linear-gradient)"/>
    <path id="Path_15218" data-name="Path 15218" d="M299.7,428.1c-.8.1-2.2-8.3-15-8.7l.1-1.8c7,.2,11.1,3,13.3,5.2a14.419,14.419,0,0,1,3.2,4.9Z" fill="#fff"/>
    <path id="Path_15219" data-name="Path 15219" d="M289.5,434.8l62.9-9.4a2.1,2.1,0,0,0,1.7-2.3c-.1-.8-.3-1.7-.5-2.6l-67.5,9.4.9,3.4A2.3,2.3,0,0,0,289.5,434.8Z" fill="#3e698c"/>
    <path id="Path_15220" data-name="Path 15220" d="M314.4,413.6l5-10.2a22.494,22.494,0,0,1,2.2.5l-5,10.4c-.6,1-2.8.5-2.2-.7Zm6.8,1.9,5.1-10.4a16.552,16.552,0,0,1,2.1.6l-5,10.5C322.8,417.2,320.7,416.7,321.2,415.5Z" fill="#fff"/>
    <g id="Group_1152" data-name="Group 1152">
      <path id="Path_15221" data-name="Path 15221" d="M325,414.9l-.1.9.9-.3Zm5.2-.6-1.3.1.7,1.3.6-1.4ZM316,402.6l-1.6.1.4,1.3Zm2.7.8-1.4-.4.3,1.7,1.1-1.3Zm15.3,4.9-1.4-.4.3,1.8Z" fill="#dcf3ff"/>
      <path id="Path_15222" data-name="Path 15222" d="M333.3,407.6l-1.2-.3.2,1.4Zm-22.9.9-1.1,1,1.5.8Zm2.6-1.4-1.5.3.9,1.5Zm9.3-.3-1.5.1.8,1.5Zm1.9.9-1.5.2.8,1.5Zm12.3.8-1.3.1.7,1.2.6-1.3Zm-25.3,5,.2,1.5,1.5-.8Zm-3.6-2.9.2,1.6,1.5-.8-1.7-.8Zm-2.9,6.5.2,1.6,1.4-.8-1.6-.8Zm-2.1-2.6-.7,1.4,1.7.2Z" fill="#dcf3ff"/>
      <path id="Path_15223" data-name="Path 15223" d="M313.5,409.2l-.7,1.4,1.7.2Zm-11.1,4.3.2,1.5,1.5-.8Zm-8.5,2.6.1,1.3,1.3-.7-1.4-.6Zm4.5,3.5.1,1.3,1.3-.7-1.4-.6ZM290,416l.1,1.3,1.3-.7L290,416Zm40.1-9.5-.6,1.1,1.4.1Zm.8,2-.6,1.1,1.4.1Zm19.3,5.4-.6,1.1,1.4.1Zm-.4-1.1.2,1.2,1.2-.8-1.4-.4Zm-6-1.7-.6,1.1,1.4.1Zm.1,4.9-.7-.2.1.8.6-.6Zm.6-2.4-.7-.2.1.8.6-.6ZM346,416v-.8l-.8.3Zm2.8-2,.1-.8-.8.3.7.5Zm-20.9-3.4-1.5.1.8,1.5Zm14.7.1-1.3.1.7,1.2.6-1.3Z" fill="#dcf3ff"/>
      <path id="Path_15224" data-name="Path 15224" d="M327.3,420.8l-.2-.7-.6.6.8.1Zm1.1-13-.6.7,1,.2-.4-.9Zm4.4,3.6-.8-.4v1Zm8.5-1.3-.6.8,1,.2Zm5.8,2.1-.7-.3v.9Zm-6.4,4.9.1-.8-.8.3.7.5Zm-31.2-.6.1,1.1,1-.5Zm6.5-1.6-.8.2.7.8.1-1Zm-2.4,8.4-.5-.8-.6.8Zm-.4-16.2-.1,1.1,1.1-.4Zm-4.2,7.4.5,1,.7-.9Zm6.4-7.7-.1,1.1,1.1-.4Zm7.2-1.6-.8.1.5.9Zm-4,8-.3-.8-.7.7,1,.1Zm-3.7-7.4-.3-.8-.6.8Zm4.3,17.2h1l-.6-1.1Zm-2-6.7.3.9.7-.6Zm8.2,2.8-.7.4.8.6-.1-1ZM313,413.5l1-.1-.6-1Zm-13.5,1.6,1-.1-.6-1.1Zm13.4-4.7,1.2,1.2.5-1.7Zm-9.1,9.7.6,1.9,1.6-1.4Zm5,2.5-.7.4.8.6-.1-1Zm-11.7-1.5.2-.8-1,.2.8.6Zm10-4.4h.9l-.5-.9Zm-5-2.4.2-.9-1,.2.8.7Zm8-.7.2-.9-.9.2.7.7Zm-14.8,1.5.2.7.6-.5-.8-.2Zm15.2-3.2.6.3.1-.8Zm1.2-4.4-.1.6.6-.1Zm9.8,5.4-.1-.7-.6.5Zm-2.1,2,.5-.2-.5-.4Z" fill="#dcf3ff"/>
      <path id="Path_15225" data-name="Path 15225" d="M320,409.2l.3.5.2-.6Zm10.2,9.6-.1-.7-.6.5Zm-3.9,2.1.5-.3-.5-.4v.7Zm.7-5.8.3.4.2-.6Zm7.1-4.1-.1-.7-.6.5Zm-3.8,2,.5-.3-.5-.4v.7Zm.6-5.7.4.4.2-.6Zm9.2,4.7-.1-.6-.5.4Zm-3.2,1.6.4-.2-.4-.3Zm.5-4.6.3.4.2-.5Zm-32.8,10.9.1.6.5-.4Zm6.2-1.5-.5.2.5.4Zm-7.9,4,.6-.9-1.1-.2Zm-6.4-2.5.8.3-.1-1-.7.7Zm6.6-5.2v.9l.9-.3Zm13.5,3.9.6-.9-1.1-.2Zm-6.4-2.6.8.3-.1-1-.7.7Zm-16.9,6.8v-.9l-.9.4Zm.1-3.8v-.9l-.9.4Zm-3.7-.8.7-.2-.5-.7-.2.9Zm2.2-2.5.3.7.5-.7Zm9.7,1v.7l.7-.3-.7-.4Zm6.9,4,.5-.7-.9-.2.4.9Zm2.8,1.5.9-1.2-1.6-.4Z" fill="#dcf3ff"/>
      <path id="Path_15226" data-name="Path 15226" d="M306.4,422l.5-.7-1-.2.5.9Zm1.7-1.6.5-.7-.9-.2.4.9Zm-21.6-4.9,1.4.5-.1-1.7Zm1.6,7.4,1.4.5-.1-1.7Zm-2-2,1.4.5-.1-1.7Zm9.9-3.4,1.4.5-.1-1.7Zm5.1,8.8.7-.9-1.3-.3.6,1.2Zm-7.1-3.4.9.4-.1-1.2-.8.8Zm7.9-5.3-.1,1,1-.3Zm26.8-8.7-.9.5.9.7Zm3.4,5.8-.6-.7-.4.9,1-.2Zm-8.2,3,.5-.8-.9-.1Z" fill="#dcf3ff"/>
      <path id="Path_15227" data-name="Path 15227" d="M325.1,405.1l-.9.5.9.7Zm4.4,5.2-.6-.7-.4.9,1-.2Zm-8.3,1.5.5-.8-.9-.1Zm.6-.6,1-.1-.5-1.1Zm-.6-6.7.2.9.7-.7-.9-.2Zm8.1,2.4-.7.5.8.6-.1-1.1Z" fill="#dcf3ff"/>
      <path id="Path_15228" data-name="Path 15228" d="M329.9,407.3l-.9.5.9.7Zm4.6,5.1-.6-.6-.4.9Zm-8.6,1.3.5-.7-1-.2.5.9Zm2.8-2.7-.2,1,1.2-.3Zm6.8-.6-.9.1.5.9Zm-4.1,7.7-.3-.8-.7.7,1,.1Zm2.1-5.1-.1.8.9-.2-.8-.6Zm5.7-.4h-.7l.4.7.3-.7Z" fill="#dcf3ff"/>
      <path id="Path_15229" data-name="Path 15229" d="M335.8,418.9l-.2-.7-.6.6.8.1Zm-.8-9.6-.3.8,1-.1-.7-.7Zm5.7.6-.7-.1.3.8.4-.7Zm-4.6,5.6-.1-.7-.7.4.8.3Zm-1.5-7.9-.9.5.9.7Zm4.5,5.2-.6-.7-.4.9,1-.2Zm-8.5,1.3.5-.7-1-.2.5.9Zm-42.3,7.7.1,1.3,1.3-.7-1.4-.6Zm48.8-12.2-.6,2.2,2.5-.4-1.9-1.8Zm-21.5-5.8L315,406l2.5-.4-1.9-1.8Zm-18.4,12.8,2.2.4-.6-2.5Zm8.2-4.6.6,2.2,2-1.7Z" fill="#dcf3ff"/>
    </g>
    <path id="Path_15230" data-name="Path 15230" d="M294.8,400.3c11.3-2.8,15.9-5.9,15.9-5.9l-6.8-19.7-28.1,7.8,6,18.7C281.9,401.2,286.7,402.2,294.8,400.3Z" fill="url(#linear-gradient-2)"/>
    <path id="Path_15231" data-name="Path 15231" d="M320.4,386.8l-23.1-78.5-32.4-102H247.4l-44.5,29.8,47.4,99.2c2.4,5.6,18.3,50.4,22.2,61.6a2.865,2.865,0,0,0,3.5,1.9l43.2-10a1.528,1.528,0,0,0,1.2-2Z" fill="url(#linear-gradient-3)"/>
    <g id="Group_1153" data-name="Group 1153">
      <path id="Path_15232" data-name="Path 15232" d="M270.4,389.7a.634.634,0,0,1-.6-.5c-.1-.3.1-.6.5-.7l47.1-11.4c.3-.1.6,1.1.3,1.2l-47.1,11.4c-.1-.1-.1,0-.2,0Z" fill="#43566d"/>
      <path id="Path_15233" data-name="Path 15233" d="M282.7,385.8l-21.4-65.6c-3.9-10.3-18.3-42-18.4-42.3l1.3-.6c.1.3,14.5,32,18.4,42.3s21.3,65.2,21.4,65.7l-1.3.5Z" fill="#43566d"/>
    </g>
    <path id="Path_15234" data-name="Path 15234" d="M248.5,330.7s4.3-35.2,15-56c9.4-18.3,17.6-16.8,17.6-16.8l-14.6-45.7-35.4,82.6Z" fill="url(#linear-gradient-4)"/>
    <path id="Path_15235" data-name="Path 15235" d="M309.7,390.9l-33.7,8a3.188,3.188,0,0,1-3.6-2c-3.9-11.4-19.6-56.8-22.1-60.6-2.8-4.3-15.4-33.5-15.4-33.5l15.4-43.1s28.6,38.8,37.8,64.6c9.2,25.9,21.6,66.6,21.6,66.6Z" fill="url(#linear-gradient-5)"/>
    <g id="Group_1154" data-name="Group 1154">
      <path id="Path_15236" data-name="Path 15236" d="M281,383.1l.2-1.2-1,.2Zm.3,4.2-1.5-.7v1.5Zm-3.7,9.4-1.5-.7v1.5Zm-11.8-24.8-2.1-.1.6,1.6Zm1.7,3.4-2.1-.1.6,1.6Zm6.6,16.3-2.1-.2.6,1.7Z" fill="#111723"/>
      <path id="Path_15237" data-name="Path 15237" d="M272.9,391.1l-1.7-.1.5,1.4Zm-9.4-28.7-1.8-1-.2,1.7Zm8.2,5.5-1.8-1-.2,1.7Zm.3,10.9-1.9-.8v1.7l1.9-.9Z" fill="#111723"/>
      <path id="Path_15238" data-name="Path 15238" d="M270.7,380.4l-1.8,1.1,1.4,1Zm5.5,7.4-1.8,1.1,1.4,1ZM270.6,376l-1.8,1.1,1.4,1Zm3.1,6.2-1.9-.9v1.8Zm1.3,13-1.5-.7V396Zm-3.8-9.5-.3-2-1.6,1Zm-3.6-23.3-.2-2-1.6.9,1.8,1.1Zm-6.9-3.7-.2-2-1.6.9,1.8,1.1Zm3.7-5.2-.2-2-1.6.9,1.8,1.1Zm9.6,16.6-.3-2-1.6,1Zm-.1,4.7-.3-1.9-1.6,1ZM259,353.9l-.2-2-1.6.9,1.8,1.1Zm-3.6-10.2L255,342l-1.2.9,1.6.8Zm-.4,3.5,1-1.4-1.5-.3.5,1.7Zm7.1-1.6-.2-1.7-1.3.8,1.5.9Zm-6.2.1-.2-1.7-1.3.8,1.5.9Z" fill="#111723"/>
      <path id="Path_15239" data-name="Path 15239" d="M271.6,389.5l-.3-1.7-1.3.8,1.6.9Zm2.5.7-.3-1.7-1.2.9,1.5.8Zm-2.6-4.6-1.6-.7v1.5Zm4.5-1.8-1.9-.8-.1,1.8Zm11.2-.4-.6.8.9.2Zm-15,1.9,1.2-.8-1-.7Zm.5,1.6-.3-1.1-.8.7,1.1.4Zm4.2,3.5-1.1.1.5.9ZM270.5,370l.4-1.3-1.3.2.9,1.1Zm-6.6-10.5.4-1.3-1.3.2.9,1.1Zm6.5,13.2.4-1.3-1.3.2.9,1.1Zm-1,7-1.1-.5v1Zm-.6-2.6-1.1-.5v1Zm8.6-3.5-.8.9,1,.2Zm-9.4-3.7-.8.8,1,.3-.2-1.1Zm-3-3.2,1.4-.1-.6-1Z" fill="#111723"/>
      <path id="Path_15240" data-name="Path 15240" d="M263.4,364.2l1.4-.1-.7-1-.7,1.1Zm-7.7-15,1.6.7-.6-1-1,.3Zm7,19.9,1.3-1.7-1.9-.3Zm-1.2-3.2,1.3-1.7-2-.3Zm6.8,4.4-.9-2-1.2,1.6Zm-1.5-5.2-.9-2-1.2,1.6Zm6.4,16.4-.9-2-1.2,1.6Zm2.3,10.1-.9-2-1.2,1.6Z" fill="#111723"/>
      <path id="Path_15241" data-name="Path 15241" d="M271.7,352.1l-1.2-.3.1,1Zm-12.1-10.4.6,1,.6-.9Zm3.5,14.4,1.2-.2-.6-.8Zm-6.5-4.5.5,1.1.7-.8-1.2-.3Zm5,8.2.5,1.1.7-.8-1.2-.3Zm-5.9-10.6.7-1.1-1.1-.2.4,1.3Zm21.4,30.3-.5.7.8.1-.3-.8Zm1.6-3.8.5.6.3-.6Zm-6.1,1.9.7-.3-.6-.4-.1.7Zm2.9,14.6-.5.7.8.1-.3-.8Zm1.6-3.8.5.5.2-.6Zm-6,1.9.7-.3-.6-.4-.1.7Zm13.7-32.1.5-.6-.7-.1Zm-.9,6.8-.5-.5-.2.6Zm-13.8-1.7,1,.9.5-1.1Zm-5.6-3.4,1.1-.6-.9-.6Z" fill="#111723"/>
      <path id="Path_15242" data-name="Path 15242" d="M265.4,369.1l-.3-1.1-.8.7,1.1.4ZM258,339.4l.4,1.1.8-.7-1.2-.4Zm-3.2.5.4,1.1.8-.7Zm-2.2-2.1h1l-.4-.8Zm2.9,10.3.3-.9-.9.1.6.8Zm5.5,2-.2-.9-.7.5.9.4Zm6.5,3.8.8.7.3-.9-1.1.2Zm-.2,12.1,1.5,1.3.6-1.6-2.1.3Z" fill="#111723"/>
      <path id="Path_15243" data-name="Path 15243" d="M267.3,350.9l.8.8.4-.9-1.2.1Zm-.4,2.8.8.8.4-.9-1.2.1Zm-6.6-11.9,1.6-1.2-1.6-.9Zm-10-6.1,1-1.7-1.8-.2.8,1.9Z" fill="#111723"/>
      <path id="Path_15244" data-name="Path 15244" d="M251.1,337.6l1-1.7-1.8-.2.8,1.9Zm4.8,1.2,1.6-1.2-1.6-.8v2Zm-10.1-13.3,1.7-1.1-1.5-.9Zm-1.9-6-.6-1.3-1.1,1.2,1.7.1Zm9.9,16.3-.9-1.8-1.1,1.4Zm-8.1-14.7-2,.3.9,1.5Zm7.9,17.3,1.7-1.1-1.5-.9Zm3.1,7.4,1.7-1-1.5-1Zm12.8,37-1-1-.5,1.1Zm5.4,3.7-1.1.6.8.6.3-1.2Zm-.4-9.3.2,1.1.8-.6Zm-.6,3.5,1.3.5V380Zm-6.6-1.3.8-.9-1-.2Zm4.5,8.2-.7-.9-.5.9Z" fill="#111723"/>
      <path id="Path_15245" data-name="Path 15245" d="M272.5,388.3l-.9-1-.5,1.1Zm5.2,3.9-1,.5.8.7Zm-.5-9.6.3,1.1.8-.7-1.1-.4Zm-29.3-51.8.5.8.5-.8Zm21.4,44.6.3-3.1-2.6.9,2.3,2.2Zm7.2,19.7.2-2-1.6.6Zm-4.3.3,1.6-2.6-2.7-.3Zm-2.5-7,1.7-2.6-2.7-.4Zm1,3.2,1.6-2.6-2.7-.3Zm-2.1-6.1,1.7-2.6-2.7-.4Z" fill="#111723"/>
      <path id="Path_15246" data-name="Path 15246" d="M267.6,382.6l1.6-2.6-2.7-.4Zm-1.2-3L268,377l-2.7-.4Zm1.6-4.1-.8-2.9-2.1,1.8Zm-3.6-8.3-.9-3-2.1,1.8Zm-1.6-4.4-.8-3-2.1,1.8Zm.9,8.9,1.6-2.6-2.7-.3Zm10,26.7,1.2-2.5-2.7-.4Zm3.8.1-2.5-1.8-.5,2Z" fill="#111723"/>
      <path id="Path_15247" data-name="Path 15247" d="M280,397.6l-2.4-1.9-.6,2.6Zm-23.8-48.3,2.9-1.1-2-1.9Zm6,8.1.3-3-2.6.9,2.3,2.1Zm-11-23.6-.2-3.1-2.4,1.3,2.6,1.8Zm-3.7-4.1.9-2.2-2.1.1,1.2,2.1Zm3,.7-.1-2.4-1.8,1,1.9,1.4Zm26.2,50.2,1-.7-.9-.6-.1,1.3Zm-3.8,4.2-.4-1-.6.7Zm8.3.5-1,.1.5.8Zm-17.1-12,.9,2,1.3-1.5-2.2-.5Zm.3-3,.9,2,1.3-1.5-2.2-.5Zm-3.2-12.5-2-.1.6,1.6Zm1.2,3.4-2.1-.1.6,1.6Zm-2.4-8.7,1.4-.1-.6-1.1Zm-1.2-2.6,1.4-.2-.7-1-.7,1.2Zm-1,5,1.3-1.7-2.1-.4.8,2.1Zm-1.2-3.2,1.3-1.7-1.9-.3Zm5.5-.9-.9-2-1.2,1.6ZM265,349l1,1,.5-1.2Zm-5.5-3.5,1-.6-.9-.6Z" fill="#111723"/>
      <path id="Path_15248" data-name="Path 15248" d="M260.5,354.9l-.3-1.1-.8.7,1.1.4Zm2.4,6.6-.9-3-2,1.8Zm-3.8-8.5-.9-3-1.8,1.6,2.7,1.4Zm-.3,4.7,1.6-2.7-2.7-.3Z" fill="#111723"/>
      <path id="Path_15249" data-name="Path 15249" d="M253.1,343l1.5-2.8-2.8-.2Zm1.2,2.2,1-2.3h-2.1Zm-2.4-5.6,1.2-2.2-2.1-.2.9,2.4Zm7.2,19.3.8,2.4,1.3-1.6-2.1-.8Zm0-2.7.9,2,1.2-1.5Zm21.2,28,1-.7-.9-.6-.1,1.3Zm-3.9,4.1-.4-1-.6.6Zm8.3.5-1,.1.5.8Zm-7.5-5L276,383l-.2,1.2,1.4-.4Zm6,2.6-.9.7.9.5Zm-2.6-9.3.5,1,.7-.8Zm2.2-4-.5-.8-.5.7,1,.1Zm3.3,3.2-.8.2.5.6.3-.8Zm.7-6.7v.8l.6-.3Zm-1.3,13.1.5-.8-.9-.1Zm-22.7-49v1.2l.9-.5Z" fill="#111723"/>
      <path id="Path_15250" data-name="Path 15250" d="M259.6,330.2l-1.7.2.8,1.3.9-1.5ZM257,352l.6,1.6,1.5-1.4Zm-1.5-4.1.6,1.6,1.5-1.4Zm-7.6-18.3.2,1.7,1.8-1.2Zm1.2,1.3.3,1.5,1.4-1.1ZM261.3,361l1.3,1.3.8-1.9-2.1.6Zm3.4-8.1.6-.2-.3-.3.5-1.1-2.1.7,1.2,1.3.1-.4Zm-5.8-10.4-2.1.5,1.1,1.3Zm-.8-3.6-2.1.5,1.1,1.4Zm-11.2-12.1.7,1.3,1-1.4Zm8,12.6-.9-1.5.2.3.5-1.2h-.5l-.1-.4-.3.4h-.5l.2.3-.1.1h.2l.1.1-1.3.3.8,1-.3.7,2-.1Zm11.7,18.2-.7,2,1.8-.3-1.1-1.7Zm-3.2,7.4-.7,2,1.8-.3-1.1-1.7Zm5,3.8,1.8-.3-1.1-1.7-.7,2ZM278.5,355l-.9,1.9,1.8-.2-.9-1.7Zm-12.6-7-.9,2,1.8-.2Zm-2.1-1.8-.9-1.7-.9,1.9,1.8-.2Zm.5,25.6,1.8-.3-1.1-1.6-.7,1.9Zm3.8,9.9,1.5-.2-.9-1.4Zm4.3-7.2-.6,1.7,1.5-.2Zm-2.9,9.8-.6,1.6,1.5-.2Zm-18.9-50.9-.8,1.5h1.5l.5.3.2-1.4-.9.5Zm1.6-1.9-.8,1.5,1.5.1Zm.3-16-1-.4.1.9Zm4.9,20.8-2.2.3,1,1.4,1.2-1.7Zm-4.6-1.3-.7,1,1,.2Zm.6-5.8.1,1,1-.5Zm18.5-3.3.7-.3-.6-.6Zm-2.4-3.9-.8.2.4.5Zm6.1-.1-.3-.6-.4.5.7.1ZM268,361.8l-.6,1.3,1.3-.1-.7-1.2Zm-1.9-6.1-1.2-.1.3,1,.9-.9Z" fill="#111723"/>
      <path id="Path_15251" data-name="Path 15251" d="M275,357.8l-.9.6,1,.6Zm-11.7-7.5v1.4l1.1-.6Zm1.7,12.2v1.4l1.1-.6Zm-2.4-13.4-1.1-.8v1.4Zm-6.3-5.6-1.2.3.6.8.6-1.1Zm.6,3.5.6-1.1-1.2.3.6.8Zm8.6-4.6-.7.8,1.2.2Zm-4.7,8.6-.6.9,1.2.1Zm15.1.6-1.3.8,1.4.5Zm-7.6,2.9v.3l-.9-.5-.2,1.4,1-.7-.1.6,1-.3Zm3.8-9-1.2.2.6.8Zm-9.1,9.7-1.2.8,1.4.4-.2-1.2Zm-3.2,4.4,1.3-1.5-2.1-.5.8,2Zm14.4,9.3-1.8-1.8-.2,1.4-.3-.2-.2,1.4.4-.2v.3l2.1-.9Zm1.6-5.6-1.2.2.6.8Zm-8.2,1.7-1,.6,1.2.4Zm-3.3,6.9.3,1.1.8-1-1.1-.1Zm-1.3-8.2.8-1-1-.1Zm3.8,16.4.8-.2-.7-.7-.1.9Zm2.1-29.4.9.3-.1-.8Zm-2.1-3.7.4-.6-.8.1Zm-4.7-9-.5.6.8.2-.3-.8Zm3.9,2.8.6-.5-.6-.3Zm-5.3,2.8.2-.7-.8.2.6.5Zm2.4-16.4-.6.6.9.3Zm4.2,2.2-.3-.7-.5.7.6.1v.5l.7-.4-.5-.2Zm-5.4,2.8-.7.1.6.5Zm-10-9.9-.7.5.8.4Zm3.6,2.7-.2.7.7-.3-.5-.4Zm-5.7,1.9H249l.5.6Zm-1.3-5.4.7.3-.1-.7-.6.4Zm3.3,2.7.6-.3-.5-.3-.1.6Zm-4.4.8h-.6l.4.5.2-.5Zm29.1,6.8-.8.1.5.7.3-.8Zm-.5,9-.3-.6-.6.6Zm-7-3.3.5-.4-.7-.3.2.7Zm13.8,13-.8-.2.3.7Zm-6.3-4.6-.7.4.6.3.1-.7Zm-12.1,22.2-.6,1h1Zm.6-6.1.9.8.3-1-1.2.2Zm-5.1-7.8-.6,1h1Zm13.2,25.9.5,1.1.5-1.1Zm-1.5,2h-1l.5,1Zm-.4,3.2-.8.7,1,.2-.2-.9Zm-3.4-1.2.7-.5-.8-.5.1,1Zm.9-12.5-.5.9h.9Zm3.4-10,1.8-1-1.5-.9Zm-.3,2.7.6-.3-.8-.5-.1.6-.2-.1-.1,1.1,1-.6Zm3.6,13.2-1.9.3.3-.3-1-.2.3,1.1.4-.6,1.5,1.4.4-1.7Zm-3.5,11.4-2,.3,1.5,1.4.5-1.7Zm.7-5.8,1.5,1.4.5-1.7-2,.3Zm-1.8,1.7,1.5,1.4.5-1.7-2,.3Zm5-8.7-.4.7h.7l-.3-.7Zm.6-18.3-.3,1.6,1.4-.8-1.1-.8Zm-2.8,8.4-.4-.2-.1,1.2.6-.4.5.5.4-1.1Zm-5.6-9.1-.8,1.1,1.2.1-.4-1.2ZM255.5,335l-1.3.7,1,.7.3-1.4Zm1.6-6.9-.3.9,1.2-.1-.9-.8Zm6.3,7.9-1.1-.1.4,1.1Zm-8.9,4.5-1.3.7,1.1.7.2-1.4Zm1.6-6.9-.3.9,1.2-.1Zm6.2,7.9-1-.1.4,1.1Zm-8.1,1.5.3,1.1.8-.8-1.1-.3Zm-.7-9.4-1,.7.9.5Z" fill="#111723"/>
      <path id="Path_15252" data-name="Path 15252" d="M259.7,335.2l-1-.1.4,1.1Zm-15.4-15.7.7-.9h-1.2Zm9.8-.1-.7.7,1.1.4-.4-1.1Zm-.5,7.3-.1.4-.1-.1-.3,1,1.2-.1-.2-.2.3-.1-.8-.9Zm-2.5-4.9h-1l.4.7Zm7.8,1.6-.3-.9-.6.6Zm-10.4,1.5-.5-.6-.2.9-.1.5.6-.1.5.4.1-.6.2-.8-.6.3Zm2.7-7.1-.4,1H252Zm5.5,8.7-1-.2.3,1.2Zm18.5,61.4,1.5-.2-.9-1.4Zm.8,3.9.7-.7-1-.1.3.8Zm9.5-2.4,1.1.5-.1-1Zm-5.3,2.6.8-.3-.7-.7-.1,1Zm2.5-7.6.5-.8-1,.1.5.7Zm1.2-2.5-.1-1-1,.6Zm-6.4,2.2.8-.3-.7-.7-.1,1Zm3-8.4-1,.1.5.7.5-.8Zm-9.1,17.8.6-.8-.9-.1Zm-.9-15.9v-1.2l.2-.7-1.2.2.7.6-.9.7.5.2-1.7.3,1.5,1.4.5-1.6Zm4,8.5v-1.4l-1.2.9ZM267,369l-1.2.9,1.2.4Zm-4.4-11.7.3,1.1-.8.5,1.4.4-.1-1.2.7-.6-1.5-.2Zm8.4,11.9-.2,1,1.2-.3Zm7,7.8.5-1.1-1.1.1Zm-32.1-55.2-.8,2.5,2.2-.3Zm-4.4-5.7,1.7,1.7,1-2.5Zm.1-3.8-1,3,2.7-.4ZM258.9,347l-.4,3.1,2.5-.9Zm9.6,29.9.3-2.7-2.4.8-.1-1-1.3.8,1,.3h-.1l2.6,1.8ZM265.3,365l-.5,3.1,2.6-.9Zm7.4,27.2,2.5-.9-2.1-2.2Zm0,5.1,1.8-.6-1.6-1.7-.2,2.3Zm5.8-.9,2-.7-1.6-1.7-.4,2.4Zm-23.1-75.3,1.2-.2-.7-1.2-.5,1.4Zm-1.7-7.4-1.2-.1.4,1Zm8,2.6,1,.6-.2-1.2ZM244,313.2l1.3-.8-1.4-1,.1,1.8ZM260.5,338l-.6-.9-.9,1.2.8-.1.6.8.5-1Zm.4-6.3-.9-.5v.9Zm-11.8-15.8-2.1,1,1.6,1.2Zm-10.5-5.6,1.6,1.2.4-2.2Zm24.8-83.5-1.4.9,1.6.6Zm-3,16.6,1.2-.9-1.5-.8Zm1.9-12.5,1.1-.6-1.2-.8.1,1.4Zm9.9,14.4-1-.1.5.9.5-.8Zm-5.3-.6-.1-.8-.6.6Zm4.8-4.9v.7l.8-.3Zm-3.2,15.6-1-.1.6.9.4-.8Zm-5.9-.9.7.2-.1-.8Zm5.5-4.6v.7l.8-.3Zm-1.6,3.3.5-.7-1-.1Zm-5.4-1.6.7.2-.1-.8Zm5.4-4,.7-.3-.7-.4Zm-3.1-4.9-.1-.3-.7.7h.3l-.1.1,1.5.4L264,242l-.6.7Zm3.2-1.2.7-.3-.7-.4Zm-5.1,5.6,1-.3-.6-.6-.4.9Zm-2.4-.3.6-.4-.7-.4.1.8ZM259,240l.2-.8-.3.1.1-.3-.8.1.3.3-.1.1.6.5Zm4.6,5.3.5-1h-1.3Zm-6.9-2.2-.7.9,1,.1-.3-1Zm5.9-5.3,1-.6-1-.4Zm3.2-1.8-.7.7,1,.1Zm-4.1,4.3.5-.5-.7-.4Zm-.1-6.8.2-.8-.8.3.6.5Z" fill="#111723"/>
      <path id="Path_15253" data-name="Path 15253" d="M261.4,234l-1.2-.8.1,1.5Zm2.8-10.3-1.2.9,1.1.6Zm-2.9,6.7-.5.8,1-.1Zm1.8,2.3.2.8.5-.5Zm-2.3,3.9.5-.6-.8-.1.3.7Zm-2.5,5.3-1.5-.8.4,1.7Zm-2.1,6.9-1.5-.7.3,1.7Zm.2-3.4-1.4,1,1.3.7Zm-1.7,5.4-1.4,1,1.3.7.1-1.7Zm7.2-3.1,1,.1-.3-.8Zm-3.6,2.8.2.8.5-.5Zm.1-5.9.2-.8-.7.3Zm6.6-5.1-.6.6.8.1-.2-.7Zm2.4-.7-.4-1.1-1,.9,1.4.2Zm-2.5,2.8-.6.6h.8l-.2-.6Zm-.5,5.9.1-.7-.6.3Zm-16.3,35.7-1.5-.8.3,1.7,1.2-.9Zm1.2,3,.1-1,.6.8.5-1h-1.1v-.1l-.2.1-1,.7,1.1.5Zm8.8.8.5-.8-1-.1Zm-4.7-1.6-.1-.8-.6.6.7.2Zm4.9-4,.7-.3-.7-.5ZM254.2,297l.5-.7-1-.1.5.8Zm-4.9-2.4-.6.6.7.2-.1-.8Zm5-3.9v.7l.8-.3-.8-.4Zm-1.6,3.3.5-.7-1-.1.5.8Zm-4.7-1.6-.1-.8-.6.6.7.2Zm4.9-4.7-.1.7.8-.3-.7-.4Zm-3.7-3.7,1.5.5-.2-1.8Zm4-2.4-.1.7.8-.3-.7-.4Zm-10.7,2.9,1,.2-.2-1,.2-.7-1,.5.6.4Zm6.8-6,1-.5-1.1-.5Zm-.8,9.6-.2.2h.3l.1.9,1.2-.9-.9-.5-.1-.3-.1.1-.3-.2.4-.1-.6-.6-.2.5-.7.7,1.1.2Zm0-.3-.1-.2Zm-5.7,3.6.2,1,.7-.6Zm6-10.9-.8-.4.2.8Zm-.3-7.2-.8.3.6.5Zm-1.5.5v1.5l1.1-.6Zm-2,4.2-1.2.8,1.1.6.1-1.4Zm.4,2.3.2-.7-.8.1Zm2.6-3.7-.8-.2.3.8.5-.6Zm-3.2,5.8-1.5-.8.3,1.7,1.2-.9Zm-2.3,6.9-1.5-.8.3,1.7,1.2-.9Zm.3-3.4-1.5.9,1.3.8.2-1.7Zm-1.8,5.4-1.5.9,1.3.8.2-1.7Zm3.5-.3.2.8.6-.5Zm-.2-6.4.6.5.2-.8Zm6.9-4-.1-.2-.6.6h.8l-.1-.2.5.1-.2-.7-.3.4Zm1.5-1.2,1.4.2-.4-1.2Zm-1.3,3-.5.6h.5v.5l.7-.5-.6-.3-.1-.3Zm-.7,5.9.2-.7-.6.3.4.4Zm6.1-8.3-.3-1-.8.8Zm-4.8-4.1.3-.9-.9.3.6.6Zm-4.1,26.7.1-1,.6.8.5-1.1H248v-.2l-.2.1-.9.6,1,.8Zm9.2.1-1-.2.5.9.5-.7Zm-5.2-1.7-.6.6.7.2-.1-.8Zm4.9-3.2.8-.3-.7-.4-.1.7Zm-7.7,1.3-1.3,1.3,1.5.5Zm-2.3,4.1-.4.9,1-.2-.6-.7Zm-1.9-5.1-.9-.5.3,1.7,1.2-.9-.5-.2,1,.1-.4-1-.7.8Zm-4.3,4.3.7-.5-.9-.5Zm.1-8.1.2-.9-.9.4Zm1.1,5.7-.7.9.9.2Zm6-5.1.9-.5-1-.5Zm.1,9.9-.3-.8-.7.7,1,.1Zm-4.1,3-.7-.4.1.8.6-.4Z" fill="#111723"/>
      <path id="Path_15254" data-name="Path 15254" d="M243.6,300.7l-.8.3.6.5Zm6.4-1.9-.6.6.8.1Zm8.1-39.6V257l-1.7,1.4,1.7.8Zm-5.3-1.9-1.8,1.4,1.7.8.1-2.2Zm-1.4,10.8V266l-1.8,1.4Zm7.9-5.6-1.7,1.4,1.8.8-.1-2.2Zm-7.9-.6h-1.5l1,1.2Zm9.9,0-.6-2.7-1.8,2.1Zm3.3-3.6,1.2-.5-1.1-.6Zm-6.4,8.6.7,2.5,1.7-1.5-2.4-1,.6-.2-.9-.9-.5,1.4.8-.3Zm-7.3-8.1-.4,1.2,1.2-.4-.8-.8Zm-.8,5-.8,1,1.1.2Zm5.9,6.7,1.3-.8-1.2-.7-.1,1.5Zm-4.1.5,1.3-.9-1.1-.7Zm-3.6-2.4-.6,1.1h1.1Zm6.4-6.4.2-1-.9.5Zm7.4-3.5-.8,1h1.3Zm-9,13.1.6,2.5,1.7-1.5Z" fill="#111723"/>
      <path id="Path_15255" data-name="Path 15255" d="M253.1,265.5l1.7-1.5-2.4-1Zm-7.8,46.8,2.6-.8-2-2.3-.6,3.1Zm10.2-56.6,1.7-1.5-2.4-1,.7,2.5Zm4.5-20.3-2,1.7,2.6.6Zm.8,19.3,1.5-1.3-2-.9ZM249.4,272l-2.4-1,.7,2.5Zm-8.7,25.9-2.4-1,.7,2.6Zm21-30.3.2-1-.9.5.7.5Zm8.8-12.1-.6-1.4-1.2,1.3,1.8.1Zm-7.8,6,1-.7-1.3-.7.3,1.4Zm0-11.7.3-1.4-1.3.6,1,.8Zm2.4,41.7.5-.8-1-.1Zm-4.9-2.2-.6.6.7.2-.1-.8Zm4.9-3.3.8-.3-.7-.4-.1.7Zm-3.2,14.9h-.2l.5-.5-.9-.3.2.8-.6-.1.5.9Zm-6-.9.7.2-.1-.8-.6.6Zm5.5-3.9.8-.3-.8-.4v.7Zm-1,1.8-1-.1.5.8.5-.7Zm-5.4-1.5-.6.6.7.2-.1-.8Zm.7-3.2.2.9,1.2-.9-.9-.5-.1-.2-.1.1-.4-.2.1.5-.3.3h.3Zm-3.9,3.6.6-.5-.7-.3.1.8Zm0-6.8.2-.8-.8.3Zm5.9,3,.2-.7-.6.3.4.4Zm5.9-8.4-.3-.9-.8.8,1.1.1Zm-5.3,3.6.7-.5-.8-.5.1,1Zm.4-7.6.2-.9-.9.3.7.6Zm5.1-1.1-1.3-.1.7,1,.6-.9Zm-6.7-.5-.2-1-.7.8.9.2Zm5.8-5.6.9-.5-1-.5Zm6.1-12.9.6-1.2-1.5-.1.9,1.3Zm-7.6-3-.8,1,1.1.2-.3-1.2Zm7.2-5.6,1.2-.5-1.2-.6Z" fill="#111723"/>
      <path id="Path_15256" data-name="Path 15256" d="M253.1,267.8l.8-1.3-1.5.1.7,1.2Zm-1.3,10.3.4-.6.7.1-.3-.7.1-.1h-.1v-.1l-.1.1-1.4.1.7,1.2Zm2.3-19.1.8-1.3-1.5.2.7,1.1Zm3.3-13.5,1.5-.3-1.2-1Zm-5.6,45.6-1.1-1-.3,1.3,1.4-.3Zm5.7-30,1.2.4-.5-1.2-.7.8Zm2.4,10.6,1-.7-1-.5Zm-15.3,35.8,1.5.6-.2-1.8-1.3,1.2Zm13.1,6.4.8,1,.5-1Zm-5.2,0-.3-1-.6.8.9.2Zm5.1-5.9.8-.5-.9-.4Zm-1.4,3.4.4-1h-1.2Zm-6.4-1.9-.6.8.9.1-.3-.9Zm6.3-5.5-.9-.4.1.9Zm-5.9.2-.9-.6-.1.5-.3.1.3.2-.1.3Zm-7.7-.6-1.6,1.4,1.7.7-.1-2.1Zm10.2.4-.7.5.6.3.1-.8Zm9.6,1-1.3,1.3,1.5.5Zm11.5,13.2.5-1h-1.2Zm-7-1.1.9.1-.3-1Zm6-6.7.1.9.8-.6Zm-1.7-21.5h-1l.7.8Zm-5.4,0-.2-.8-.5.7.7.1Zm4.2-4.9.7-.5-.8-.3.1.8Zm-6.6,18.3-1.3,1.9,1.9.2Zm-11.8,5.6-1.9,1.3,1.7.9.2-2.2Zm-5.7-18.5.2-2.9-2.5,1.7,2.3,1.2Zm15.6,18.4-.2,1.2,1.1-.6Zm2.4-5.2,1-.1-.5-.7-.5.8Zm.9,5.9.1.3.8-.5-1-.4v.3l-.7.4.7.3.1-.4Zm.6-12h1.2l-.5-.9Zm-4.3-4.3-.7.4-.4-.2v.7l.5-.2.4.3.2-1Z" fill="#111723"/>
      <path id="Path_15257" data-name="Path 15257" d="M273.5,300.8l.3-.8h-1Zm-5.1-.6-.2-.8-.5.7.7.1Zm4-5.8.1.7.7-.5-.8-.2Zm-7.3,20.3.8.9.4-1-1.2.1Zm-5.6-.7-.6.8.9.1Zm.3-5.1-.6,1,1.3-.1-.7-.9Zm-3.5,5.4-1-.3.4,1Zm-2.1-7.5.1-1-.9.6.8.4Zm35.9,24,1-.2-.8-1Zm1.6-6.4-1.6.7,1.5.8Zm9,22,.2-1.7-2,.7Zm.6-15.7-.5,2.1,1.8-1Zm-5.6-7.9-.4,1.6-.3-.1.2.5v.1h.1l.1.5.7-.6-.3-.1,1.3-.7-1.4-1.2Zm5.5,12.4.1-1.7-2,.8,1.8.9-.5,2.1,1.8-1-1.2-1.1Zm-10.6-28.4-.5,1.4-.3.4h.1l-.1.3.3-.1-.4,1.1,1.1-.4-.7-.7.3-.1h.3l-.1-.1,1-.4-1-1.4Zm9,23.4-2,.8,1.8,1Zm-1.2-13.3-1.6.7,1.5.8Zm-3.2-13-1.6.6,1.4.9Zm-2.8,2.8-.7.2,1.3,1.2.1-1.4,1.1-1-1.9-.8.1,1.8ZM302.8,353l1.7-.8-1.8-1.1.1,1.9Zm2.9,7.1.1,2,1.7-.8-1.8-1.2Zm-9-17,.2,2,1.6-.9-1.8-1.1Zm-16.5-49.9v-.3l-.2.1-.1-.1v.1l-.7.5.8.6v.9l1.7-.7-1.5-1.1Zm18.7,46.2-1.8-1,.2,1.9,1.6-.9Zm8.8,30.4,1.3-.7-1.4-1Zm6.2.2,1.3-.7-1.4-1Zm-16.3-45.7,1.3-.8-1.5-.9.2,1.7Zm-.2,4.2-2,.8,1.8.9.2-1.7Zm-13.1.6.6-.7-.8-.3.2,1Zm14.8.3.1-.8.1-.1-.1-.1.1-.3-.4.2-.5-.2.1.4-.4.2,1,.7Zm-.4-3.5.3,1.2.8-.7-1.1-.5Zm-3.3-4.7-.8,1h1.2l-.4-1Zm4.3,23.4,1.3-.1-.8-1.2-.5,1.3Zm7,9.5-.5,1.3,1.3-.2-.8-1.1ZM300,341.9l1.3-.1-.8-1.2-.5,1.3Zm2.5-5.7,1.1.6v-.4l1.6.3-1.5,1.3-.6-.2.5,2-1.8-1.8-.4,3,2.3-.7.1.5,1.3-1,1.5.5-1.5,1.3h.1l-1,1,2,.6-.8,1.2,2.6.5-1.4,1.5,2,.5-.5-2.1-.1.1-.9-3-.8,1.2-.6-1.4,1.4.2-.5-1.5.2.1-.8-2.1-.7.7-1.7-.8,2,.2-.5-1.6.6.1-.9-3-1.4,1.9-.9.3Zm-9,3.2.8-.8-1-.3.2,1.1Zm12.1,7.5-1.5.1.6,1.1Zm.2,2.6.6,1.1.8-1.1Zm2.1,0,1.9.4-.5-2.1Z" fill="#111723"/>
      <path id="Path_15258" data-name="Path 15258" d="M303.4,345l1.3-1.5-1.6-.4.6-.6-1-.3.1.8-.2-.1.8,2.1Zm2.4,3.9-2.1-.5.8,2,1.3-1.5Zm-7.7-17.2.8,2,1.3-1.5-2.1-.5Zm-1.2-8.6,1.3-1.5-2.1-.5.8,2Zm1.4,38,1.1.4v-1Zm10.7,9.5-.8.8.5.1-1.7.9,1.4,1.1.4-2,.7.2Zm-2.6-12.1.7-1-1.2.1Zm7.8,7.6-.3.8.8-.1-1,1.4,1.5.3-.4-1.7-.5-.7h.2l-.3-1.3-.8,1.1.8.2Zm-22.7-28.8h.8l-.5-.6Zm6.3-1.3.5.4.2-.7-.7.3Zm-1.5-15.7.5-.7-.8-.2.3.9Zm-2.6,3.8h.8l-.5-.6Zm6.3-1.4-.6.9.7.2.1.5h-1l.9,1.1.4.6.6-.9h-.8l.1-.2,1.3-.8-.2-.1.7.1-.9-3-1.3,1.6Zm-5.7-9.4.5-.6-.7-.1Zm-1.8,2.8-.3.5h.7l-.4-.5Zm4.8-.7.5.3.1-.6-.6.3Zm-11.7,39-.5.6.7.1Zm1.5-6.3.3-.6-.8.1Zm11.9,2,1.5-.1-1-1Zm5.8,4.2.8.6.2-1.2Zm.7-9.8.2,1.1.8-.6Zm4,29.1,1.1.6-.2-1.2Zm4.1-.4-.9.6,1,.6Zm-11.8-27.1-.6,1.6,2.1-.2Zm-.3,16.5,1.2-.1-.8-.8-.4.9Zm.8-3.4-.5-.4-.4.9.7-.1-.1.3,1.2-.1-.8-.8-.1.2Zm9.9,18,.4-2-1.8.9Zm1-.8,1.4,1.1.4-2Zm-.6-6.3.4-2-1.8.9Zm-15.7-45.2-.3,1.2,1.1-.5-.8-.7Zm-1.4,9.9,1.1.5-.2-1.1Zm.5-2.3,1.4-.6-1.3-.6Zm7,1.9,1,.3-.2-1.2-.8.9Zm-9.1-5.7-.9.6,1.1.6Zm-3.3-23.4-.5,1.3,1.3-.1-.8-1.2Zm-7.3-2.6v.9h-.9l.5.9.4-.8v.2l.9-.7Zm9.8,17.8-.7-.9-.3,1.1Zm.3-5.9v-.8l-.5.2-.2-.1,1-1.2-2.1-.5.6,1.6h-.1l.3,1.2.5-.4h.5Zm-6.9,3.5.1-.7-1,.7.6.4.1.5.7-.7-.5-.2Zm7.9-3.6.8,1.2.7-1.1Zm25.2,69.2-.3-.9-.6.7.9.2Zm-29.7-95.2-.8,1.4,1.5.1-.6-1.5.9.2-.7-2.4-2.1,1.8,1.8.4Zm4.5,18.2-1.5,1.9h2.3l-.7-1.6,2.2.1-1.6,2.1-.4-.1.1,1-1.2-1.4-.9,1.7h2.1l.1,1,1.7-1.6-1-.4h2l-.8-2.6-.9-3-1.5,2.9Zm-7.2-5.3-.1-.3v.2l-.5.7h.3l-.5,2.2,2.6-.5-.2-.3.7-1-1.4-.1.1.2-.2-.1-.8-1Zm1,1.2.4.6Zm1.4,10-.1-.9-.5.3-.6-.5-.1.9-.1,1,1.1-.4.3.2v-.3l.2-.1-.2-.2Zm5.5,6.9,1.6-.5-1.4-1.4Zm-1.6-3.8-.2,2,1.6-.5Zm5.5,4.2-1.3,1.1,1.6.2-.4.4,1.7.2-.5-1.5-.4.5-.3-.9,1.5.3-.9-3-1.8,2.5.8.2Z" fill="#111723"/>
      <path id="Path_15259" data-name="Path 15259" d="M302.8,327.4l-.9-3-1.8,2.5,1,.2-.9.4.4.2.2,1.7,1.6-.9-.7-.4.1-.9,1,.2Zm-1.5,2.8.8.1.6.8.3-.6.9.2-1.7,2.5.4.1-.6.2,1.1.5v-.6l1.7.3-1.8-6-1.7,2.5Zm5.8,19.2,2.2-1.7-2.9-1.3.7,3Zm6.4,15.6.7-.2-1.4-.7,1.2.3-.5-1.9.1-.1-.1-.1-.4-.9-.5.4-.5-.2.7-.4.2.1-.6-1.9-.9-3.1-.6,1-.2-.6.7-.3-.4-.4-.4-1.3.7.3-.7-2.5-.7.8-.5-.2.5-.4h.2l-.1-.2.5-.4-.7-.3-.2-.8-.5.5H309l.1-.8-1.1.3-.3-.1v.2l-.7.2.8.5.1.6-.5-.2.3,1.2-.1.1h.1l.4,1.7,1.2-1,1,.4-.6.6-.2-.2v.4l-.6.6.6.1v.1l-.8.8,1.7.5-.6.8-2-2-.4,3,2.2-.7-.1.2,2.4.4-.7.9-.3-.2v.6l-.1.1h.1v.2l-.2-.1.2.9v.2l.5,2,1.2-1-.9,1.1.6.1.5.8-2.5.8,1.9,2,1.3-2.6Zm5.6,17.4-2.1-2.2,1.6.3-1.2-4-.7-2.1-.8-2.9-.7-2.4-1,1.5-.3-.2v.7l-.1.1h.1v.8l1.2-.6.6.1L314,374l2.6.5-1.1,1.6-.7-.1.3.8.4-.4,1.6.3-1,1.3,1.7.3-1.2,1.6h.1l-.4,3,2.8-.5Zm.6,2.4-1.3,1.9,2.1.3-.8-2.2Zm-2.9-1.2-.3,2.3,2-.6-1.7-1.7ZM294.3,332l-1,.6.8.6.1.3.5-.7-.5-.1.1-.7Zm-3.6-5.8-.6.9,1-.1Zm-11.9-68.8-1.7.5,1.4,1,.3-1.5Zm6.7,53-.4-.6-.3.6h.7Zm-.3-7.8-.3-.5-.3.5h.6Zm-5.1-35.3.7-1-1.4-.1.7,1.1ZM276,261l-.7-.8-.4,1.1,1.1-.3Zm-2.5,8.7-.9.5,1,.7Zm10.5-.6-.9.3.7.5-.5,1.1,2-.2-1.3-1.3v-.4Zm-8,3.2v1l.7-.6Zm6.4,34.8-.1-.8.3-.1-.9-1.3-.8,1.6.5-.1,1,.7Zm8.4,7.1.6-.7-1-.3Zm-7.7-1.7-.5-.8-.6.9Zm.2-18.3-.2,1,.9-.5h-.1l-.1-3.1-2.4,1.3,1.9,1.3Zm1.3-6.3-.2,1.2,1-.3-.8-.9Zm.6-6.1-.9.5.9.4Zm-7,6.1.6-.8-.3-.1.5-.6-1-.2.4.8-.5-.1.3,1Zm2.2-5.8-.9,1.1H281Zm-1.4,2.4-.3-1.6-1.4,1.1,1.7.5Zm4.2-2.1-.8.6.7.4.1-1Zm-3.7-3.7.8-.1-.4-.6Zm3.3,6-.9-1.9-1.3,1.5,1.6.3v.1h-.5l.5,1,.7-1.1-.1.1Zm6.5,19.7.9-.6-1-.7.1,1.3Zm-1.7-6.7,1,.1-.2-.9Zm-9.2,4.7-.8-.6v1Z" fill="#111723"/>
      <path id="Path_15260" data-name="Path 15260" d="M281.6,281.1l-.7-1.8-1.5,1.7,2.2.1Zm2.3-.6,1.1-1.9-2-.2Zm2.1.1.9,2.1,1.1-2Zm3.1,3.7-1.7,1,1.9,1.3-.2-2.3Zm-3.3-2.2-.7,1.8,1.4-.1,2.9.5-.7-2.7-1.7,1.7-1.2-1.2Zm-3.2-1.3-.5,1.2-.8-.7-.1,1.3.5-.1.2.2.2.3.2-.3,1.8-.2-1.5-1.7Zm.3,4.3,2.2-.3-1.5-1.6Zm-1.1,4.2,1.1-1.9-2-.2Zm4.2-16.2-.7-1.9-1.3,1.2,2,.7Zm-1.5-4.8-.7-1.9-1.3,1.3Zm-2.3-3.9-1.3-1.4-.7,1.6,1.8-.2.3,1.2.8-.7-.9-.5Zm-4.1-12.9-.6,1.6,2-.2-1.4-1.4Zm10.2,45.4.8-1.5-1.5-.1Zm2.4,4.8.6,1.4-.8,1.6h2.3l-1.2-1.5.7-1.3Zm-4.5-10.8-.3,2,.3-.1-.1.8H286v.2h.1l1.3,1.7.5-2.2-1.5.3.6-.3-.6-.5,1.6-.6Zm-1.7-.2-.3.1.2.2,1,.9.1-1.3,1-.4-1.9-1.2-.1,1.7Zm2.3-3.8-.1-.1-.7,1.8.5-.1,1.1,1.7-.6.9,2.3.2-1.1-1.8.6-.9-1.8-.2,1.3-.2-1-1,1.7-.2-1.6-1.6-.6,1.5Zm2.3,5.2-.1,2,1.9-.9-.2,1.6-.2-.2-.3,2,1.8-.7-1.1,1.1,1.6.2-1.3,1,1.2.3-.8.3.9.7.1-.9,1,.3-1.3,2.4h2.4l-1.7,2.4h2.8l-.8-2.4h.1l-1-3.2-.3.6-.2-1.4h.1l-.2-.8L293,295l-.7.7-1.1-.7,1.7-.5-1.8-1.9v.4l-1.2-.6h2.4l-1-2.2-1.7,2.1-.5-.2Zm8.3,20.5-.7,1.8,2.2-.2-1.7,2.4,2.7.5-.9-3-.1.1-1.5-1.6Zm-2.8,1.9,1.7-.2-1.2-1.2-.5,1.4Zm-2.6-5.8-.4.8-.5.2.2.2v.1h.2l.1.1V310H293l-1-1.3Zm3.9,6.7-1.4.6,1.4,1Zm2.6-2.8-.6-2.1-1.5,1.3,2.1.8Zm10.7,49.9.9-1.2-1.4.1Zm-.5,2.4.5-.6v.1l.6-.4.6,1,.8-1.2-1.3.1-.3-.2.3-.5-2-.5Zm-5.3-.2,1.5-.1-.9-1Zm6.6,4.8.2-1.2-1.1.6Zm-.3-10.7.2,1.2.8-.6Zm-21-61.7,1.4,1.7-1.3,1.2,1.7.3-.1.1-1.1.4,1,1-.6.2.4.4.2-.6.2.2.1-1.1h1.8l-1.4-1.7-.6,1.1-.3-1.4.1-.7.8-.4-.6-.4.1-.6-1.8.3Zm-6.8-28.6.4-1.5-1.3.2Zm5.1,32.3.3-1.5h-.2l.3-.3-.7-.2.1.6-.9.2,1.1,1.2Zm-3.2-4.8-.1.4-.1-.1-.4,1.1.3-.1v.1l.8-.4.5-.2h.8l-.2-.5.5-.3-1-.7.1.9-.2.3-1-.5Zm5.1,2.8-.8-.6-.2,1.1Zm-5.6-13.6,1,2.1.8-1.7.2.9.7-.5-.9-.5.1-.3h-1.9ZM283,278l-1.6-1.6-.7,1.8,2.3-.2Zm-5.5-15.7.5-1.1v.4l1-.5-1-.7v.8l-1.2.3.7.8Zm1.8,33.6.8-.2-.5-.6-.3.8Zm-9.5-21.4.8-.4-.8-.6Zm-.3-6.1-.7.5.8.2-.1-.7Zm-5,6,.4-.8h-.7l.3.8Zm19,15.6,1,.2-.2-.9-.8.7Zm-5.3,5.8.5.9.5-.9Zm1.3-5.7-.9.7.9.5Zm2.7,12.4,1.5-1-1.9-.9Zm3.3-25.3-.5,1.6,1.7-.3-.4.6-1,1.3,3,.2-.9-2.9-.5.7-1.4-1.2Zm-5.1,18.9-1.5.9,1.6.6Zm.4-22.6.6.6-.2-.1.3,1.2.5-.4-.4.9h1l-.6-1,.3-.2-.5-.2.4-.9-1.4.1Zm-4.3-4.2-.3-.3h.7l-.3-.8-.5.6-.2-.2-.2,1.2.8-.5Zm-1.4,9.7,1.1.5-.3-1.2-.8.7Zm-4.3-7,.6-.6-1-.3Zm-2.1-4.8-.4-.6-.4.7Zm-2.8,6.6.1-.8-.7.2.6.6Zm14.4-15.3-.7.8h1Zm-3.9,7.4-.9.2.7.8.2-1Zm2.1-1.6.8-.7-1.1-.5.3,1.2Zm-2.2-7.1-.7.8h1Zm-1.6,4.9-.9,1.6,1.8-.3-.9-1.3Zm8,1.2-.7-2.1-1.5,1.3,2.2.8Zm-1.6-4.9-.7-2.1-1.5,1.3,2.2.8Zm2.7,40-1.2.6,1.2,1Zm-3.5,2.8.2-1.2-1,.6Zm-8-27.1.9.2-.2-1-.7.8Zm9,30.4.2-1h-.3l.5-.2-.6-.5-.2.8h-.3l.7.9Zm-.6-6.6-.8.9,1,.3-.2-1.2Zm-9.5-34.8.8-.3-.5-.5Zm6.2-8.9-.8.7,1,.2Zm-5.4,6.5-.9-.1.4.9Zm15.9,53.7.6,1.9,1.4-1.2-2-.7Zm-7.6-2.7-.2,1.7,2-.8-1.8-.9Zm5.3-3.9-1.5.9,1.6.6Zm5.1,11.2.3-1.2-1.4.3,1.1.9Zm-6.9-5v1.2l.9-.7Zm1.5,9.5-.7.8,1.2.3-.5-1.1Zm-9.1-41.2-.4-.6-.4.8.8-.2Zm-2.6,6.7v-.9l-.7.3Zm5.3,28.3.6.8.5-.7-1.1-.1Zm-3.2-3.3.8-.2-.5-.6-.3.8Zm-.7,6.7v-.8l-.6.3Zm14.5-12.6.8-.7-1.2-.5.4,1.2Zm-6,.6-.9.2.7.8.2-1ZM279.7,269l-.4-.8-.7.8Zm6.6,35.7-1,.6.9.6Zm1.9,2.2.9.2-.2-.9-.7.7.1-.4-.3.1.3-.3-.8-.2.1.6-1.3.2,1.4,1.8.5-1.8ZM282.1,320l-.3-1-.6.8Zm5.3-3.2-.1.8.7-.4Zm-1.7-1.4.7.8.2-1-.9.2Zm.6-3.7-.6,1,1,.1Zm-7.2-34.3,1.6-1-1.9-.9Zm3.4-2.7,2.1-.4-1.6-1.2Zm-.9-4.2V269l-1.6.9,1.6.6Zm-6.7,7,.5-1.2h-.1l.2-.8-.9.2.5.6-1.2.1,1,1.1Zm-6.3-4.8,1-.6-.8-.7-.2,1.3Zm.8,9.6-.3-1.2-.8.7,1.1.5Zm8.2,8.8-1.1-.5.3,1.2.8-.7Zm-3.7-5.5h1l-.3-.8Zm-3.1,6.6-.9.1.6.8Z" fill="#111723"/>
      <path id="Path_15261" data-name="Path 15261" d="M276.5,304.1l.4,1.2.8-.7-1.2-.5Zm-1.6-5-.4-.8-.6.8Zm-4,6.8-.9.2.7.8.2-1Zm.5-40.4.9.7.2-1.3.1-.3-.8.1v-.5l-.8.6.8.4-.4.3Zm.3-.5.2.2-.2.1V265Zm15.4,11.8-.7-1.8-1.5,1.7,2.2.1Zm-12.2-6.4-1.3.5,1.2,1,.1-1.5Zm-3.6,2.7.2-1.2-1.1.6Zm-5.9,4,.9.2-.2-1-.7.8Zm6.4-1.5h-.3l.6.9.3-1h-.3l.5-.2-.5-.5-.3.8Zm6.6-.3.9-.7-1.2-.5.3,1.2Zm12.6,53-1,.6.9.6Zm-4.3-4.9,1-.1-.4-.8Zm.7-5.6.9.7-.5.2,1,.7-.1-1.2-.2.1.2-.9-1.3.4Zm-5.3-3.9h.7l-.5-.8-.4.7-.3-.1v1.2l.9-.7-.4-.3Zm1.2,9.6.3-.5-1-.1.3.5-.5.6,1.2.3Zm-2.4-51.3,2.1-.3-1.5-1.3-.6,1.6Zm14.2,57.6.3-1.2-1.4.3,1.1.9Zm-6.9-5.1v1.2l.9-.7Zm.9,10.3,1.2.3-.5-1.1-.7.8Zm-9.3-16.2-.3.8.8-.3Zm-1.2,6.7-.7.3.7.5Zm9.9,15,.5-.7-1-.1.5.8Zm-3.2-5-.3.8.8-.2-.5-.6Zm-1.3,6.6-.7.3.7.5ZM294.6,320l.5-.2-.8-.7-.2.8-.5-.1.5,1.1.7-.8-.2-.1Zm-3.6-5.9-.5.9,1-.2-.5-.7Zm-2.8,7.9-.9.3.7.7.2-1Zm2.6-2.7-1.2-.3.5,1.1.7-.8Zm-3.9-5.9-.4.6-1,.7.9.5v-1l.9-.1Zm-2.7,7.9-.9.3.7.7.2-1Zm1.7,8.6-.6.8.9.1Zm-4.9-8.3,1.1.9.3-1.2-1.4.3Zm-4.9-3.6-.9-.5v1.2Zm.6,9-.7.8,1.2.3-.5-1.1Zm9.3-7.9-1.2-.3.5,1.1.7-.8Zm-6.7,1.8-.9.2.7.8.2-1Zm-4.4-66.3-.8.9,1,.3Zm5.1,17.8v-1.3l-1,.7,1,.6Zm1.6,17,.9.5v-1.3Zm-2.5-9.3.3-1.6-1.4.7Z" fill="#111723"/>
    </g>
    <path id="Path_15262" data-name="Path 15262" d="M128.7,391.5l20.7-32.6,24.3,17.3-25.1,39.3-19.9-24Z" fill="#ea9d7d"/>
    <path id="Path_15263" data-name="Path 15263" d="M145.3,389c8.4,7.2,15.4,7.6,15.4,7.6L173,377.4l-24.8-16.6-12.9,20.7S138.4,383,145.3,389Z" fill="url(#linear-gradient-6)"/>
    <path id="Path_15264" data-name="Path 15264" d="M134.1,383.2a21.809,21.809,0,0,0,8.5,11.9,44.919,44.919,0,0,0,15,6.4l-5.1,8.6s-4.8,1.4-15.5-6.6-6.8-14.4-6.8-14.4l3.9-5.9Z" fill="#fff"/>
    <path id="Path_15265" data-name="Path 15265" d="M135,383.4c-.1.1-.4.2-.5.1a.377.377,0,0,1-.1-.6l11.7-18.2c.1-.2.4-.2.6-.1a.377.377,0,0,1,.1.6L135,383.4Z" fill="#cc7a5e"/>
    <g id="Group_1155" data-name="Group 1155">
      <path id="Path_15266" data-name="Path 15266" d="M147,392.3l-.9.6.8.5.1-1.1Zm6.1,2.2-1.5.7,1.6.8Zm4.5-4.7-.3,1.4,1.2-.3Zm-5.8,1.8.7,1.1.8-1.1Zm2.6,1.8,1-.7-1.3-.7.3,1.4Zm-4-7.6,1,.8.3-1.3Z" fill="#ad5c49"/>
      <path id="Path_15267" data-name="Path 15267" d="M154.8,399.4l-.9-1.1-.2,1.4,1.1-.3Zm-.6-6.5.7,1.1.8-1.1Zm2.9,6.5-.9-1.1-.2,1.4,1.1-.3ZM156,387.6l-1.3.6,1,.8Zm-6.9,6,1,.9.3-1.3Zm3.8-8.2-.1.3.1-.1.2,2.5,3-1-2.5-1.6-.6-.5v.1l-.1-.1v.4Zm4.5,3.4-1.2-1.5-.6,2.2Zm-6.9-1.2-.9.5.8.5.1-1Zm-5.7-7.8-1,.5.8.6Zm4.8,7.1.9-.1-.7-.7-.2.8Zm-2.5-4.4-.3,2,2.3-.5Zm7.9,7.9,1.2,2.2.9-2.2Zm-.3,1.1-.2-.8-.7.6.9.2ZM151,397l-.8-.8-.2,1.1,1-.3Zm0-4.7.6,1.1.8-1.1Zm4.8,4-1.3-.7.3,1.4,1-.7Z" fill="#ad5c49"/>
      <path id="Path_15268" data-name="Path 15268" d="M152.1,388.9l-1.3.6,1,.8Zm6.7,10-1-1.1-.2,1.4Zm-4.9-5.4.7,1.1.8-1.1Zm-1.9-9-2.4-1.6-.2,2.6,2.6-1Zm-4.2-2.7-1.4-1-.1,1.6Zm4.2,7,1.8,1.6.7-2.5Z" fill="#ad5c49"/>
    </g>
    <path id="Path_15269" data-name="Path 15269" d="M116.1,406l29.3,27s34.5-.1,35.2-.9c1.6-1.9.6-5.1-.8-6.7-5.3-6.1-16.6-8.5-16.6-8.5l-5.6-11.6a2.7,2.7,0,0,0-2.7-1.4,21.3,21.3,0,0,1-16.7-4.1c-5.3-4.1-7.2-7.7-7.8-9.6a1.2,1.2,0,0,0-1.8-.7c-2.4,1.4-7.6,5.2-13,13.5a2.564,2.564,0,0,0,.5,3Z" fill="url(#linear-gradient-7)"/>
    <path id="Path_15270" data-name="Path 15270" d="M129.7,410.1c-.1.2-.3.5-.3.5l-1.3-1.1s2.1-2.9,1.4-8.5c-.7-5.1-4.4-8.9-4.3-8.9l1.3-1.1a18.588,18.588,0,0,1,4.7,9.8c.6,5.2-.9,8.3-1.5,9.3Zm33.1,5.8-.9-1.9-10.4,2.6a1.044,1.044,0,0,0,.6,2l10.6-2.6a.1.1,0,0,1,.1-.1Zm-3.2-6.6-.9-1.8-10.6,2.6a1.044,1.044,0,0,0,.6,2l10.7-2.6Z" fill="#fff"/>
    <path id="Path_15271" data-name="Path 15271" d="M116.1,406l27.4,26.4a7.865,7.865,0,0,0,5.6,2.3l29.9.3c1.4,0,2.4-2.6,2.5-5.2-.9-.1-22.2-.6-30.1-.8a7.543,7.543,0,0,1-5.1-2.1l-28.5-26.7a29.765,29.765,0,0,0-2,2.9,2.157,2.157,0,0,0,.3,2.9Z" fill="#3e698c"/>
    <g id="Group_1156" data-name="Group 1156">
      <path id="Path_15272" data-name="Path 15272" d="M158.2,417.2l-1.3.3,1,1.2Zm5,9.2.8-1.3-1.3-.1Zm-5.4-20.2-.6-1.4-1.2,1.3Zm.8,1.3-.6-1.4-1.2,1.3Zm9,13.1,1.3-1.1.6.6.2-1.2-1,.3.1.1-.8-.3.4-.3-1.2-.5v1.4l.4-.3ZM150,405.4l-1.5-.3.3,1.7,1.2-1.4Zm1.5-.8-.6,1.6,1.7-.7-1.1-.9Zm8.4,9.6-1.1-1-1-1-.7,1.6,1.7-.5-.6,1.5,1.7-.6Zm10.6,6.7,1.1-1-1.2-.5.1,1.5Zm-9.4-1.3.7-.9.4.1-.7-1.6-.9,1.3,1.1.3h-1.2l.6.8Zm-14.4-10.5-1.1,1.1,1.5.6Zm0-4.6-1.1,1.1,1.5.6Zm-7,1.8-1.1,1.1,1.5.6Zm-.7-3,.9,1.4.2-.6.7.4-.1-1,1,.4-.5-1.7-.8.8-1.4.3Zm1.2.6.1-.4.3.1-.4.3Zm14.5.3-1.5.3.9,1.4.6-1.7Zm-2,7.1.9,1.4.6-1.7-1.5.3Zm-18.5-12.7-.4-1.4-.9.9,1.3.5Zm-1.2,5.1,1.4.6-.5-1.4Zm-1.6-9.6-.9.9,1.3.5-.4-1.4Zm33.4,26.4,1.4.3-.6-1.4-.8,1.1Zm15.4,6.1-.7,1.1,1.4.2-.7-1.3Zm-1-1,.2,1.3,1.2-.8Zm-1.5-2-.2,1.3,1.4-.4Zm-1.2,5.2.7-.5-.7-.3Zm1.7-2.8-.7-.3v.8l.6-.4.7.5.1-.8-.7.2Zm-2.3,2.5.1-.8-.8.3Zm-13-11.8-1.2-.1.5,1.4Zm-3,1.8.3-1.8-1.4.3,1.1,1.5Zm6.2,4.7.9-.5-.7-.5Zm9.8-.4-.3-.8-.7.7.6.2.5,1.2.8-1.3h-.9Zm.6,1.6v.9l.7-.6Zm-2.6,4.5.2-.8-.9.2.7.6Zm-31.4-18.5,1,.5-.2-1.2Zm5.4,2.8-.2,1,.9-.5Zm-7.4,3.8.3-.8-1,.1.7.7Zm10.7-10.3-.9.6,1,.6ZM144,409h1.2l-.7-1Zm10.4-1-.1-1.2-.9.6Zm3.7,3.2,1-.3-.6-.6Zm-6.6,3.5.5-.8-1-.1Zm4.6-10.5h-.9l.5.8Zm-3.3,15.4.5-1.1-1.2.3.7.8Zm-5.1-3.3,1,.1-.5-.9Zm6.7,3,.1-1-.8.3Zm-4.3-6.2.5-1.2-1.1.4.6.8Zm-3.2-.4.5-1.2-1.2.4.7.8Zm-8.1-11,.5-1.1-1.1.4Zm9.7,5.6-.2,1.6,1.6-.7-1.4-.9Zm-11.1,1.1.4.1-.2-.6-.3.3-.4-.8-1.1,1.6,2.1.4Zm-.1,5.2.7-.7-.7-.3Zm-4.6-11.1-.8-.6v1Zm9.9,5.1-1,.2.6.7.4-.9Zm-2.2-6.1v1l.8-.4Zm5.5,6.8.8-.4-.7-.6Zm-10.5-10.7-.4.6.8.1-.4-.7Zm10,8.6.1.6.6-.4-.7-.2Zm4.1-1.9-.5.2.5.4Zm-1.5,5-.3.6.6-.1Zm10.3,11.5-.7.4.7.3v-.7Zm-8.7-2.5v-.6l-.5.5Zm8.6,5.6.7.3v-.7l-.7.4Zm-2.1-2-.3-.2-.1.6.3-.1.6.2-.2-.7Zm4.8,4,.3-.6-.6.1Zm7.4-3.4v-.7l-.7.3.7.4Z" fill="#dcf3ff"/>
      <path id="Path_15273" data-name="Path 15273" d="M164.8,423.7l-.4-.5-.1.6Zm1.6-5.4-.6.1.3.5Zm7.1,5.2.6.3v-.6l-.6.3Zm-2.9,2.1.4-.1-.3-.4-.1.5Zm-28.5-13.3.5-.4-.5-.2Zm-7.6-4.1,1-.1-.5-1Zm-2-6.6.2.9.7-.7-.9-.2Zm13.6,14.9,1-.1-.5-1Zm-1.8-5.7.7-.7-1-.1.3.8Zm8,2.1-.1-1-.7.5Zm-24.1-12,.7-.6-.9-.5Zm3-2.2.7-.6-.9-.5Zm-.5-4.8-.8.3.6.5Zm2.2,1.5-.3.7h.8Zm4.7,8.6.7.4-.1-.8-.6.4Zm2.6,7.5-.2-.6h.2l-.4-.9-.4.9h.3l-.3.5h.8v.1Zm-.3,3.1,1.4-.1-.7-1.5Zm-2.5-4.9-.4.9.8-.1-.4-.8Zm-5.5-9.9.5,1.4,1.2-1.2-1.7-.2Zm-3.2-8.7.5,1.4,1.3-1.2-1.8-.2Zm-2.6,6-.2-.7-.6.6-.4-.1.1.3h0l.3,1,.7-.6.2.1-.1-.3.4-.3Zm.4-2.4-1.7-.2.5,1.4,1.2-1.2Zm11.6,5.3-2.4.1-1.7-.2.5,1.4,1-1,1,1.8,1.6-2.1Zm-5.9,5.1.6.4-.1-.7-.5.3Zm-1.3,4.1H132l-.5-1.2Zm-2.8-6.6.8-.8-1.1-.2Zm9.5,1.8-.8.5.9.7-.1-1.2Zm24.5,16.7.2-1.3-1,.4Zm2.7,4.8,1-.1-.5-.8Zm-8.7-5.8.6-.7-.9-.3.3,1Zm4.4-7v1.2l.9-.8-.9-.4Zm2.4,8.1,1-.1-.5-.7-.5.8Zm-9-5.7.6-.2-.5-.3Z" fill="#dcf3ff"/>
      <path id="Path_15274" data-name="Path 15274" d="M154.5,415.4l-.2.5.9-.1-.5-.8Zm2.5-1.1-1.2.3.7.8.5-1.1Zm2.6-2-.4.8,1-.3-.6-.5h.3l-.5-.9-.5.8Zm3.6,6.2h0l-.7.5.9.4Z" fill="#dcf3ff"/>
      <path id="Path_15275" data-name="Path 15275" d="M164,418.7l.7.7.1-.8.9.2-.6-1.3-.7.9-.4.1v-.3l-.8.3.7.7.1-.5Zm3.5,5.4,1-.1-.5-.7-.5.8Zm-8.8-4.9.3,1,.6-.6-.9-.4Zm4.2,2.4-.3,1,1.2-.1Zm6.4,1.5.5-.9-.9-.1Zm-10-2.4.9.3-.1-.9-.8.6Zm7.9,4.5,1-.1-.7-.7-.3.8Zm5.3-1.6-.6.8h.6l.2.5.4-.7h-.3l-.3-.6Zm-3.1.2-.7.5.8.2Zm-.3-2.1,1,.1-.6-.8-.4.7Zm5.2-.1.1.8.6-.6-.7-.2Zm-5.4,5.3.8.4v-.8ZM164,424l.3,1,.6-.7-.9-.3Zm8.1-1.5,2.1-1.2-2.5-1.2.4,2.4Zm-14.8-12.2-2.1.9,1.9,1.7.2-2.6Zm-13.1-6.7-1.3,1.9,2.5.5Z" fill="#dcf3ff"/>
    </g>
    <path id="Path_15276" data-name="Path 15276" d="M195.3,206.3c-5.5,24.6-16,71.1-20.1,83.8-3.9,12.2-33.9,66.8-40.4,78.7a2.956,2.956,0,0,0,.9,3.8l39.5,27.9a2.686,2.686,0,0,0,3.9-.8c7.6-12.1,40.8-65.2,48.4-80.3,4.1-8.2,5.4-14,10-26.4l30.6-86.7H195.3Z" fill="url(#linear-gradient-8)"/>
    <path id="Path_15277" data-name="Path 15277" d="M140.4,358.7l-.8,1.2,44.9,30.4.8-1.2Z" fill="#43566d"/>
    <path id="Path_15278" data-name="Path 15278" d="M179.1,399.8,208,353.5c7.5-13,19.7-31.2,22.5-40.5s8.1-22,9.5-27.7c2.6-10.4-11.9-3.3-11.9-3.3L155.7,386.7l19.4,13.8A2.792,2.792,0,0,0,179.1,399.8Z" fill="url(#linear-gradient-9)"/>
    <g id="Group_1157" data-name="Group 1157">
      <path id="Path_15279" data-name="Path 15279" d="M201.3,342.5l.2-1.2-1,.6Zm3.9-2.6,1.2-.9-1.6-.8.4,1.7ZM202.1,362l.9-1.5-2.1-.3,1.2,1.8Zm2.4-3.6.9-1.5-2.1-.3,1.2,1.8Zm-8.6,11.4,1.5-.9-1.8-1.1Zm-.9-12,.2,1.2-.4.2.5.3.1.3,1.5-.9-1.9-1.1Zm10.3-6-1.9-.9.5,2Zm.1-2.3,1.4-1-1.9-1Zm9.9-9.5,1.2-.9-1.6-.8.4,1.7Zm-22,26.5-.2-2.1-1.4,1.4,1.6.7Zm-.2,7.1,1.7.7-.3-2.1Zm-11.7-15L180,360l1.7.7Zm14.2-1.9-.4-2.1-1.3,1.5Zm3.4-4.9-1.4,1.5,1.8.7-.4-2.2Zm-8.7,26.1,1.7.8-.2-2.1-1.5,1.3Zm-5.7,9,1.4.6-.1-1.7-1.3,1.1Zm-1-7.4-1.3,1.1,1.4.6-.1-1.7Zm-.6,11.3,1.4.6-.2-1.7ZM212.4,346l-.3-1.7-.5.5-.8-1-.1.5-.3,1.4h.1l-.2.7,1-.1-.5-.7.2-.1,1.4.5Zm-1-1Zm-.1-3.2-1.2,1.3,1.5.5Zm11.6-16.4,1.3.7v-1.7Zm.5-1.5,1.2-1.3-1.7-.1Zm-3.9,6.6,1.4.5-.3-1.7-1.1,1.2Zm-2.4-4h-1l.6.8Zm1,1.1,1-.2-.6-.7-.4.9Zm4.6-.6-.1.3h-.7l.6.9.2-.4.6-.1-.6-.7Zm-13.6,20.1.1.5-1.2,1.3,1.7.7-.1-.8,1-.8-1.5-.9Zm-3.8-.4,1.4-1-1.9-1Zm13.2-15.2.3,1.5-.5.6,1.2.2-.2-.9.8-.6-1.6-.8ZM207,346.3l.1,1.3,1.3-.8-1.4-.5Zm2.5-1.3-.7,1,1,.2Zm1.5-5.6-1.2.1.8.8Z" fill="#111723"/>
      <path id="Path_15280" data-name="Path 15280" d="M194.6,330.8l-.8.4.6.5Zm3.8-2-.7-.4.2.8Zm-6.1-2.4-.5.6.8.1Zm21.1,1.7-.3,1.1,1-.4Zm-22.3,41.4-.3-1.4-.9,1Zm3.5-5.8.5-.9-1.2-.2Zm-9.7-1.1-.4,1.1,1.1-.3-.7-.8Zm12.4-5.2-1.3.5.9.8.4-1.3Zm-3.8,12.1-1.3.5.9.9.4-1.4Zm6-13.6-1.3.5,1,.9Zm7.3-2.9-1.1-.6.3,1.2Zm-1.8,2.1-1.1-.6.2,1.2.9-.6Zm-8.1-5.9-.7.9,1.2.1Zm1.9,10.3,1.2.1-.3-1Zm-14.1-3.7-.4,1.1,1.5-.1Zm5.8,5.2.9.6V361l.8.9.2-1.4-1,.2v-.3l-.9.6Zm.5-9.8-1.2-.5.4,1.2Zm5.1,14.4-.4,1.1,1.4-.1Zm-6.4,14.7-.3.9-2.2-1.4-.3,2.7,2.9-1.1-.1-.1,1-.1-1-.9Zm9.5-13,1.3-1.7h-2.2ZM185,374.6l.3.3.1-1.4-.4.1.1-1.4-2.1,1.3,1.9,1.3.1-.2Zm-1.8-5.6.7-.7-1.1-.5.4,1.2Zm7.1,2.3-.3,1,1.2-.1Zm1.2,8.6.5-1-1-.1Zm3.6-8.8.5-1-1-.1Zm-3.3-14.6-.7-.6-.2.7Zm2.8-3.1.5-.4-.7-.3.2.7Zm6.2-6.9h.9l-.4-.7Zm-3.9.3-.6.1.5.6Zm5.1,4.3-.7-.3v.7l.7-.4Zm.2-15.4h.9l-.4-.7Zm-3.9.6h.6l-.3-.8-.5.6-.4.1.5.6.1-.5Zm4.5,3.8v.7l.7-.3-.7-.4Zm9.6-1.3-.5.8.9-.1-.4-.7Zm-4.3,1-.6.2.5.6.1-.8Zm4.4,4.8.7-.3-.7-.3v.6Zm4.4-11.6-.2.3h-.3l.2.2-.1.1h.2l.6.8.6-1-.8-.1Zm-3.8,1.7.1-.6-.5.1Zm3.7,3.1.6-.3-.6-.2Zm-27.4-1.1-.8-.3.1.9Zm-1.9,8-.4.6.8.1-.4-.7Zm7.2-1.1.2-.7-.7.2Zm-15.1,10.1h-.7l.3.6Zm5.8-3.6-.1.8.6-.2-.5-.6Zm.6,31.4-1.1-.5.1,1Zm6.1-5.5,1,.2-.3-1.2Zm7.9-12.8-.3-1.2-.7.9,1,.3Zm-18.4,21.5-1-.3.2,1.2.8-.9Zm2,2.6-1-.3.2,1.2.8-.9Zm-1.8,3.7h1l-.6-.8Zm6.4-12.5-.3-1-.6.8.9.2Zm-2.2-9.2.5.5-.3.1.9.8.1-1.2-.2.1V369l-1,.3Zm.8-2.3v-2l-1.6.6Zm-5.1,15.5.2.7.6-1-1-.1.2.4-1.9-.8.1,1.8,1.8-1Zm-.9,12.9,1.8-1-1.8-.8Zm-1.2-8.3.1,1.8,1.8-1-1.9-.8Z" fill="#111723"/>
      <path id="Path_15281" data-name="Path 15281" d="M181,390.9l1.8-1-1.8-.7Zm4.2-6.4,1.8-1-1.8-.7Zm-5.8-3.6.7.1-.2-.8-.5.7Zm4.1-18.6-1.3.5,1.2,1.2Z" fill="#111723"/>
      <path id="Path_15282" data-name="Path 15282" d="M183.4,370.8l.2,1.2.5-.3.5.5.1-1.2-.4.1-.9-.3Zm7.7-6.2,1.2.2-.5-1.3-.7,1.1ZM207,344.1l-.2,1.4,1.2-.2-1-1.2Zm.7-7-1,.5,1.1.6Zm-8.4,5.3.3,1.2.7-.9-1-.3Zm8.7,9,1.2-.2-1-1.1-.2,1.3Zm.9-8.4-1.1.5,1.1.6V343Zm-8.2,6.5.7-.9-1-.3.3,1.2Zm3.1-1.6-.4-1.4-.9.7,1.3.7Zm2.3,6.9.7-.9h-1.2Zm5.5-17.6-1.1.5,1.1.5Zm-8.6,5.7.2,1.2.8-.9-1-.3Zm4.9-1.2-1.3.6,1,.8Zm5.4-3,.8-.6-1.1-.5Zm-8.9-4-.8.9h1.2Zm5.9,2.7.2-1.2-1,.5Zm-2.8-7-.6.8h.9l-.3-.8Zm7,7.9-.9.7.9.5Zm4-3.2.6-.6-.9-.2.3.8Zm-7.9-1.9-.5.8,1-.1-.5-.7Zm4.8,8.2-1-1.1-.2,1-2-.2.9,1.3-.6-.1.9,1.4.8-1.3-.7-.1.5-.8v.1l1.4-.2Zm0-7.2v-.8l.2-.2-.9-.5.1.6-.6.3ZM207,340l.7-.9-1-.2Zm-1.5,11.4,1.2-.2-.9-1.2-.3,1.4Zm-5.8,7.3,1.2-.2-.9-1.1-.3,1.3Zm-8.6,8.1.8,1.1-.1-.1.1,1,1-.5-.9-.3.6-1-1.5-.2Zm15.8-23.7-1.1.4,1.1.6Zm-8.5,5.9.8-.8-1-.3.2,1.1Zm-20.7,42.8-.2-1.7-1.2,1.2Zm-4.2,6.3,1,.3-.2-1.2-.8.9Zm4.1-4.7.5-.7-1-.1.5.8Zm-8.4.4,1-.3-.6-.6Zm-3-2.7,1.2-.1-.9-.8Zm5.8,3.6.1-1-.8.6Zm-1.1-8.9.3.9.6-.6-.9-.3Zm.1-2.7-.3,1,1.2-.2Zm5.4,4.6.1-1-.8.5Zm-.1-8.6-.9-.3.3.9.6-.6Zm3.8,19.2.4-.9h-.8l.4.9Zm52.4-113.7-.8,1.2,1.3.1-.5-1.3Zm-8.3-4.2-.1.9.9-.4-.8-.5Zm5.3,1.8-.6.6.7.2-.1-.8Zm-1.8-6.1-.8-.1.5.7Zm-6.2,14.8-.1.9.9-.4-.8-.5Zm5.3,1.7-.6.6.7.2-.1-.8Zm-2.1-5.5.4-.6-.8-.1.4.7Zm-.3,3,.9-.4-.9-.5Zm4.7,1.5.7.2-.1-.8-.6.6Zm-1.5-6.1.4-.6-.8-.1.4.7Zm5.2-3.2-1.3,1.3,1.5.5Zm-1.4-2.5-.8-.1.4.7.4-.6Zm.8,8.7-.1-.9.2-.6-.9.1.2.3h-.4v-.1l-.2.1-1.1-.1.5,1.4.6-.6.3.2V288Zm-.6-1-.3.2Zm1.6,7.1.8-.7-1-.1.2.8Zm4.9-6.9h.9l-.5-.9Zm-3.4-11.4-.7.5.9.5Zm1,5.9.6-.6-.8-.1Zm4.2-6.3-.3.8h.7Zm.1,2.4.9-1.1h-1.4Zm-.7,4.7,1.2.2-.5-1.4-.7,1.2Zm-.1.2-.6-.5-.2.7Zm-.8-4.4v.7l.7-.4-.7-.3Zm-.4,8.1,1.3-1.2-1.7-.2.4,1.4Zm-2.1,6.9,1.3-1.2-1.7-.2.4,1.4Zm-3.3,11.5.6-1.6-1.6.5Zm2-9,1.5.2-.7-1.6Zm-2.5-3.2.6-.6-.8-.1Zm4.3-6.3-.3.7h.7Zm-3.5-6.7.3.2-.2.1.7.5-.1-.8-.1.1-.1-.5-.5.4Zm-.1-3.1-1,.7,1.3.7-.3-1.4Zm-.4,5.3-.1-.8-.3.1h-.7l.3.8.3-.3.5.2Zm-2.8,3.7-.2.7h.6l-.4-.7Zm.6-10.2-.8.6,1,.5Zm5.4.1.8-.1-.6-.8Zm-11.3,23.9-.5,1.3,1.3-.1-.8-1.2Zm-8.5-5.3-.1.9.9-.4-.8-.5Zm5.2,1.8-.6.6.7.2-.1-.8Zm-1.8-6.1-.8-.1.5.7Zm8.1,7.4,1,.6-.1-1.2Zm2.7,5.7-.9-.1.2.8.7-.7Zm4.8-5.9-.5-.8-.4.9Z" fill="#111723"/>
      <path id="Path_15283" data-name="Path 15283" d="M223.9,299l.9.1-.6-1.7-.7,1.1-.5-.3-.2,1.1,1.1-.3Zm5.9,2.5-.8.7.8.4Zm-2-7.7.6-.8-1.1-.2Zm-3.5,8.6-.7.6-.2-.5-.6.6.4.2-.6.4.9.5-.2-.8.4.1-.1-.3,1,.4-.3-1.2Zm2.3,7,.2-.2.5.8,1.1-1.8-2.1.2.1.2h-.2Zm3.7-7.5.9-.2-.7-.8Zm-5,6.3.5-.7H225Zm3.1-6.9-.2.8.7-.1-.5-.7Zm-4.8-4.6-.6.5.8.3Zm5.7,1.7-1.7.1.7,1.3Zm-46.5,89.9-.1,1.4,1.2-.3-1.1-1.1Zm9.2-13.5.3.2v-.3l.7-.2-.6-.6.2-2.1-2.6,1.6,1.8,1.2v.2h.2Zm5.5-12.4H196l.8.9-.3.7,1.5-.1-.8-.9.3-.6Zm-21.4,37.5.5-1.1h-1.5Zm10.8-26.1.3.1-.2.2,1.7.7-.2-2.1-.6.6-1,.5Zm-6.1,5.5-1-.2.3,1.1Zm63.5-112.1-.9.8,1,.4-.1-1.2Zm-8,.7-1.3-.1.6,1.4Zm3.1,2.8-1.3-.1.6,1.5Zm3.4,2.8.1-1.3-1,.7.9.6Zm-26.6,64.1.3-3.1-2.6,1.7Zm-13.9,17.6-2.6,1.7,2.3,1.5Zm-23.1,41.4.3-3.1-2.6,1.6Zm53.9-94.4,1.7-2-2.6-.1.9,2.1ZM215.9,280l-.1.9.9-.4-.8-.5Zm5.2,1.9-.6.6.7.2-.1-.8Zm-1.5-6.2-.8-.1.4.7.4-.6Zm-6.7,17.9-.9-.3v.9Zm4.5.8-.5.7.7.2-.2-.9Zm-2.5-5.9H214l.5.6Zm1,1.2.9-.4-.8-.5-.1.9Zm5.2,1-.6.6.7.2-.1-.8Z" fill="#111723"/>
      <path id="Path_15284" data-name="Path 15284" d="M219.1,285.1l.4-.6-.8-.1.4.7Zm3.4,2-1-.1.4,1.4.7-.6.3.2v-.4l.4-.4-.4-.1V287Zm1,5.8.6-.6-.8-.1Zm4.8-5.4-.4-.7-.3.7Zm-7.3-1.2h.6l-.3-.6Zm1-10.7-.8.5.9.6-.1-1.1Zm2,5.9-.9-.1.2.8.7-.7Zm3.8-6.6-.3.9h.8ZM223.1,308l1.5-.2-1-1.5Zm-13.6,4.1,1-.8-1.2-.3.2,1.1Zm7,.4-.4-1-.5.9Zm-4.4-7.8-1,.2.7.7.3-.9Zm-7.7,23.5-1,.9,1.1.5Zm4.8-5.3-1.2-.1.6,1,.6-.9Zm-10.3-.3-.4,1.1,1.1-.3-.7-.8Zm13.4-17.3,1.2-.5-1.1-.6-.1,1.1Zm6.6,1.1-.7.8.8.3-.1-1.1Zm-3.2-7.7.6.9.5-.8Zm5.1,5.2.3-.2-.3-.2V303l-1,.5,1,.8v-.4Zm.7,9.2.9,1.4,1-1.6Zm6-8.7-.6,2.1,1.8-.3-1.2-1.8Zm.1,11.2,1.8-.3-1.3-1.7Zm-6.9-13.9-.9.6,1.1.7-.2-1.3Zm1,6.6-.8.1.7.7.2-.5.1.3.8-.7-1-.1Zm5-6.2h.9l-.5-.9Zm-9.4,1.4.7-.2-.6-.6-.1.8Zm-2.5,18.2,1.5-.4-1.2-1.4Zm-9.9-2.7-1.2-.1.3,1Zm6.1.5-.5-.9-.3.9Zm-5.5-6.3.2-.9-1,.3Zm8.1,6,2-.1-1.1-2Zm15-7.3,2,.1-.9-2.1Z" fill="#111723"/>
      <path id="Path_15285" data-name="Path 15285" d="M215.1,329.1l-.5,2.2,2-.4-1.5-1.8Zm4.5-6.1-.8,2.1,2-.1Zm1.4-4.6,2-.1-1.2-2Zm-5,5.6-.2-1.2-.9.6,1.1.6Zm-2.6-4.6.1,1.5,1.4-.9Zm9,1.8-.8,1.1,1.2.2-.4-1.3Zm-4.2-9.7h-1.4l.9,1Zm-3.4,12-.7.9,1.3.2Zm4.2,5.4h0l.5-.7h-1l.5.7-.9.2.5.7.4-.9Zm1.6-7.2.8-.4-.8-.7Zm-8.1,1.1v.9l.7-.3Zm-3.4-12.9-.8.9,1.4.3-.6-1.2Zm3.3,6.6.5.7.1.2.1-.1.8.2-.5-.9.1-.2-1.1.1Zm3.3-8.2,1-.3-.9-.8-.1,1.1Zm10.8,12.2,1.6-2.9-3.2.5,1.6,2.4Zm-26.8-5-1.2-.2.3,1Zm5.3.6h.9l-.5-.9Zm-4.3-7.3-1,.3.8.6Zm2.4,1.9-1.2-.3.2,1Zm5.6.4-.5.9.9.1Zm-3.8-7-1,.1.7.7.3-.8Zm14.2,11.5,1-.7-1.2-.3Zm6.2.5.9.1-.3-1-.6.9Zm-15.9-10-.8.7,1.2.4Zm2.4,6,.5.8.6-.8Zm3.7-8-.1,1,.9-.3-.8-.7Z" fill="#111723"/>
    </g>
    <path id="Path_15286" data-name="Path 15286" d="M222.1,222.2c-6.7,3.4-11.9,3.8-13.8,3.8l4.6-19.4-1.6.2c-.2.7-17.2,73.9-19.2,84.5-2.9,15.4-40.2,75.3-40.5,75.9l1.2.7c.1-.1,9.5-15.3,19.2-32.2,13-22.7,20.3-37.6,21.5-44.2,1.3-7,9.3-41.6,14.5-64.3h.5a32.08,32.08,0,0,0,14.3-3.9c10.2-5.2,10.9-16.4,10.9-16.9l-1.4-.1c0,.3-.7,11.1-10.2,15.9Zm45.3-15.9-33,95.3a.63.63,0,0,0,.3.8h.2a.548.548,0,0,0,.6-.4l33.2-95.7h-1.3Z" fill="#43566d"/>
    <path id="Path_15287" data-name="Path 15287" d="M186.3,246.8s17.2-7.5,30.1-10c34.9-6.8,40.1,2.6,40.1,2.6l11-33H195.3l-9,40.4Z" fill="url(#linear-gradient-10)"/>
    <g id="Group_1158" data-name="Group 1158">
      <path id="Path_15288" data-name="Path 15288" d="M196.4,238.9l1.2-.8-1.4-.5Zm-7.2,7.1.2,1.5,1.5-.9Zm1.5-13.4.1.3,1.2-1-1.6-.7.2.7-.5-.2.2,1.3.4-.4Zm-8.2,32.8-.4-.4-1,3.8,1.5-.2-1,.8h.1l-.5.3,1.4.6-.6.1.6.5-.1.1.8.5.2-1.1-.4.2.1-.4-.5.1v-.5l.5.2v-.9l.6.8.4-.6,1.3.6v-2l-.1.1-.2-.2.5.1-.2-1h.7l.2.3.2-.3,1.1-.1-1.4-2.7v.1l-.1-.3h.3l-1.5-1.5,1.3-1.2-1.8-.7,1.5-.3.4.5.3-.6h.1l.2.9,1.5-1.4-2.1-.9.1.4-2.4-2.1-.1.7-.1-.1-.2,1.4-.4,1.8.9-.2.1.4-.2-.1.2.8-1-.9-1,3.8h.2v.8Zm1.7,3.7-1,.1v-.7l2.1-.3Zm1.8-4.5-.8,1.8-.2-.9-1.1,1.3-.6-.5.1-.1.2.1V266l.7-.7-.8-.3v-.1l1.4.6v-1.4l.6-.1-.3.6h.8Zm-3.7-.2,1.8-.2-.7.6-.1.1Zm17.3,1.4.1-1.6-1.5,1Zm-6-12.2-.8.5v-.8l-1.5,1.3,1.6.7V255l.7.3ZM179,281.1l-1.1.9,1.1.5Zm15.6-63.4,1.1.5.1-1.4-1.2.9-.8-1-.3,1.4,1.2-.3-.1-.1Zm3.2,6.7-.6-.6-.2.7.8-.1Zm-3.3-.3.8-.1-.7-.6-.1.7Zm2.4-2.3h-.7l.3.8Zm-2.5-1.9.4-.8H194l.4.8Zm13.7,19.8-.4.6.7.1-.3-.7Zm-1-2.9.5-.3-.6-.2Zm4.4,1.8.5.4v-.6l-.5.2Zm-18.4-17.8-.2.8.9-.1Zm5.3,6.2h-.8l.4.8.4-.8Zm-10.1,37.3-1,.7,1,.5Zm6.4,1.1.5-.9h-.9ZM190.1,255h1.1l-.5-1Zm-.4-2.1h1.1l-.5-1.1Zm9.5,7.6h-.1l-.2-1-.7.9.3.1H198l.8.9Zm-6.7-1.2-.2.2-.4-.7-.7.9h1l-.3.4.9.2Zm5.7-4.4.9-.5-1-.4Zm-10.5,2.5h-.8v-.8l-1.6,1.3,1.6.7v-.7l.4.4.4-.9Zm.1,14.4,1.9.3-.5-2-.7.9-.2-.3-.7.9h.4Zm-2.1,6.3-.3-.2.1-.3h-.6l-1.4.1,1,2,.6-1.4h.1l.5,1.7,1.1-1-1.5-.6.4-.3Zm8.9-21.3.5.6.3-.6Zm.5-11.4.1-.8-.7.2.6.6Zm1.8,3h.7l-.3-.5Zm-5.1-.3.4-.4-.6-.2.2.6Zm8.8-10,.1-.7-.7.2.6.5Z" fill="#535f87"/>
      <path id="Path_15289" data-name="Path 15289" d="M203,241.1l-.2-.3.1-.6-.7.3.4.3-.2.3h.6Zm-8.7-3.5h.7l-.3-.5Zm-1.2-9.7-.5-.4-.2,1,.8-.1.1.1v-.2h.3l-.2-.2.1-.3-.4.1Zm1.9,2.7-.3.4h.5Zm-4.1-.2-.5-.2.1.5ZM207.7,247l.6-.5-.6-.3Zm-3.6,5.7.1-.5-.6.1Zm-3.6-5.4h.6l-.3-.5Zm2.9,15.6.6-.1-.4-.5-.2.6Zm-1.6-5.7.4-.5h-.7ZM184,279.7v.1l-.1-.1.1.5v.5l.1-.1.1.3.7-.7-.2-.1h.1l-.8-.4Zm-2.7.4-.1,1,.8-.6Zm-2,3v.2l.1-.1.2.2.1-.4.7-.5.4,1.3,1.1-1-1.5-.7v.2l-1.3-.9.2,1.4-.3.1.3.2Zm4.5-11,.6.4.1-.8-.7.4Zm8.8-7.3-1.1,1.2h.5l-.7.9h1.4l-.5-.8h1l-.6-1.3Zm-2.6,3h.6l-.4-.8-.4.4-.1-.2-.6.8h1l-.1-.2Zm-7.2,15.5,1.1-1-1.6-.6Zm-3.6,7,1.1-1-1.6-.7Zm8.5-12.3-.6.3.5.3.1-.6Zm8.9-11.8-.5-1-.7.7h-.1v.1l-.1.2h.2l.4.8.3-.7.5-.1Zm-6.2,4.7.8-.6-.7-.3-.2-.3-.6.8h.6l.1.4Zm0-10-1,.5.8.6Zm6.1-25.2-.6.6,1,.3-.4-.9Zm1.1,7.8-.1.9.9-.5-.8-.4Zm-4.9-4-.3-.9-.6.6.9.3Zm.8,6.8-.1.9.9-.5-.8-.4Zm-1-1.8,1.2.4-.1-1-1.1.6Zm1.9-10.1-.3-1-.6.6.9.4Zm.8,7.1-.1,1,.9-.5-.8-.5Zm-2.2-2.2,1,.1-.4-1.1Zm6.9-3.1-.8.3.7.7Zm-5.1-1.8.9.1-.3-.9-.6.8Z" fill="#535f87"/>
      <path id="Path_15290" data-name="Path 15290" d="M200.5,231.8l-.7.3.6.6.1-.9Zm-6.6-2.3.3,1.1.9-.9-.7-.3-.1-.2.5-.3-.8-.2v.2l-.4.5.3.1Zm1.3,8.3.9-.5-.8-.5-.1,1Zm-1.8,1.9-.6.7,1,.2Zm1.7,8.7.8-.6-.8-.4Zm-13.4,43.5-1.1.9,1.2.5-.1-1.4Zm1.6-6.6-1.2.9,1.2.5ZM175.5,307h0l-1.1.6,1,.7.2-1,.5.9.6-1-1.1-.1V307h-.1Zm5.2-13.4-.8.6.8.4Zm1.1-4.4-.7-.5-.1.7Zm4,5.4.3-.7h-.7Zm3.7-2,.4-.8h-1Zm-4.9-1.1-.2-.8-.5.7.7.1ZM189,287l.7-.4-.8-.3.1.7Zm2-1.3.4-.8h-1Zm-5.1-1.8-.5.6.7.2-.2-.8Zm5.4-4.1-.8-.3v.7l.8-.4Zm-7.2,30.3.6-.7-1-.2.4.9Zm-4.5-2.1v-.8l-.7.5Zm5.4-3.4.8-.2-.7-.5Zm-6.5,14,.4.9.6-.7-1-.2Zm-4-1.1v-.8l-.7.5Zm5.4-4.2-.1.7.8-.2Zm-1.9,3.1.5-.7-.9-.2.4.9Z" fill="#535f87"/>
      <path id="Path_15291" data-name="Path 15291" d="M178.9,310.1l-.1.7.8-.2Zm1-6-.2.7.8-.2Zm-3.7,1.2-.7.6.3.1-.1.1,1.4.7V305l-.8.6-.1-.3Zm-4.7,2.8v.8l.6-.4Zm8.3-8.9-.7.6,1,.2-.3-.8Zm-4.8,2.9.1.8.6-.3-.7-.5Zm-1.2-6.4-.7-.5.1.8.6-.3Zm.8,2.6.2.8.5-.5Zm-4.4,14.2v.8l.6-.4Zm1.2-6.7-.8.2.5.5Zm5.4-5.3.6-.2-1-.6v1l.2-.1.7,1.2.7-1Zm1.4,2.7.4.1-.1-.7-.4.2v-.2l-.6.5.8.1h-.1Zm-2.3,7.3-.9-.6-.1-.2-.1.1-.3-.2.4-.1-.3-.4-.5-.8-.4,1.3h.2l-.5.4,1,.2-.9.3.9.9.2-.5v.5l1-.6-1.4,1.7h2.3l-.8-1.8.2-.2Zm-1.4-.7-.1-.2Zm2.1.6.3-.6-.7.2Zm6.9-8.3-.9.7,1.1.3-.2-1Zm-5.6,3.7.7-.4-.5-.4-.1-.3-.6.6.5.1v.4Z" fill="#535f87"/>
      <path id="Path_15292" data-name="Path 15292" d="M179.8,297.5l-.9.2.6.6.3-.8Zm-23.9,48.9.2-.9.5.9.6-1-.7-.1.5-.2-.8-.7,1.4.7.1-1.8-.8.6-.1-.3-.8.6.3.1-.1.1-.2-.2-.2,1.2-.8.4.9.6Zm9.2,1.5-.9-.3.3.9.6-.6Zm-5.1-2.4-.7.5.7.3Zm5.6-3.2-.1.7.8-.2ZM159,357.8l.6-.6-.9-.3.3.9Zm-4.4-3.1-.7.5.7.3Zm6.2-2.5-.7-.6-.1.5h-1l.6,1.1.6-.8.6-.2Zm-3.1,1.5.3.9.6-.7-.9-.2Zm-4-1.3v-.8l-.7.5Zm5.4-3.3.8-.2-.7-.5Zm-2-11.2-.1,1,1.1-.3Zm-8.4,12.7v1l.8-.4Zm6.7-15.3.2-.1.3.9,1.8-2.9,1.2,1.1.4-1.4-1.5.2V333l-.7-.1,1-.7-1-.7L156,330l-1.3,2.1,1.3-.1.1.9-1.4-.2.6,1.6-1-1.3-1,2.2,2.2-.4Zm-2.9,3.8.1-.6,2.1-.3-1.7-2.6-1.7,3.1.7-.1.5.5Zm-11.1,22.6,1.3-.7-.4-.3.4-.1-.5-.7.4-.5.8.8.3-2.4,1.8-1.1-.3-.2.4.1-.2-.5,1.3-1.6-2.1-.5.2.8-.9.8-.6-.4v.1l-.5-.8-1.7,3.1,2.4-.4.1.5-1,.2.6.7-.2.1-1.6-.4.1.3-.5-.7-1.7,3.2,2.1-.3v.9Z" fill="#535f87"/>
      <path id="Path_15293" data-name="Path 15293" d="M145.3,350.9l1.1.9.3-1.3,1.4-.2-.4-.6,1.3.5-.5-1.3-.8.7-.4-.6.4-.2h.7l-.2-.3.3-.2-.7-.6v-.1l-.6-.4v1.2l-.1.2-.7-1.1-1.7,3.1.9-.1Zm2.1-2v.1l-.1-.1Zm12.8-8.7,1.4.4-.2-1.2-1.2.8Zm4.1,1.2-.2-.9-.9.6,1.1.3Zm-5.2,2.3-.5-.4,1.1-.5-1.1-1-.3,1.3-.5.4.5.1v.5Zm1.5,20.8.6-.7-1-.3Zm1-5.5.8-.1-.7-.6Zm-7.9.1-.8.6-.1-.3-.7.6-.1-.2-.8,1.1.8.1h0l-1.1.5,1,.8.2-1,.5.9.6-1-1-.2h.2l-.3-.9,1.4.7.2-1.7Zm-1.5,1h.2l-.1.1-.1-.1Zm-4.2,2.8.6-.3-.7-.5.1.8Zm1.5-7.4-.8.2.5.6.3-.8Zm-3.1,4.6-.1-1,.3-.7-1,.3.5.5-.6.6.9.3Zm-1.7,7.5.8-.5-.8-.6Zm1.9-.3.6-.3-.6-.5Zm.6-7.2.5.5.3-.7Zm5,4.6-.2.7,1.2-.2-.9-.8-.1.3-.8-.6v-.2l-.1.1-.3-.2h.3l-.5-.7-.3.5-.7.6,1,.2-.2.2.2.1-1.3,1,1.9.7-.3-1,1.1-.7Zm-1.3-.8-.1-.2Zm2.2.7.3-.6-.7.2Zm6.1-7.5,1.1.3-.2-.9-.9.6Zm-4,2.6-.5-.4-.1-.3-.1.1-.5.4.5.1v.5l.7-.4Zm1-7.1.4-.8-.9.2.5.6Zm26.2-68,.6-1-1.2.1.6.9Zm-.6,9.2-.2,1,1.2-.2Zm5.8-22-.2-.4h-.1l-.2-.5-.3.3-.5-.2.3,1.1.4-.3Zm1.3,7.8.8-.6-.8-.4Zm-20.4,39.6-.8.1.1-.1-.8-.1.3-1.3-1.6.4,1.1.9.2.4-.7.1,1.3,2,.3-.9.7.4.3-2.1-.4.2Zm1.6,3.3-.1-.4-1.1,1,.5.1-.2.2,2.3.9-.1-2.7-1.3.9Zm5.1-1.4,1.2-.3-1.1-.7-.1,1Zm-12.3,5.6.1.9-1.2-.1.4.9L162,330l1.4-.6-.9-.7.7-.8.7-.5-1-.7Zm2,5.2,1.4-.6-1-.8Zm-3.8-1.6-.4,1.5,1.4-.6Zm-4-.4h0l.5.1.3.1v0l-.8.6,1.2.6.1.3.1-.2.7.3-.2-1.1.4-.6.2.6.7-1.1h.4l-.2-.4,1-1.6h-.6l.1-.9-1.3.7-.6-.1-.7-1.9-1.4,2.6,1.7-.1.2.5-.7-.1-.1-.2-.1.1-.7-.1.2.7-.7.9.3.3Zm7.8-6.4.3-1-1,.4Zm2.7,5.2.6-.1-.8-1-.7,1.3.9-.2.2,2.6,1.9-1.2-2.1-1.4Zm25.8-97.2-.6-2.5-1.7,2.1Z" fill="#535f87"/>
      <path id="Path_15294" data-name="Path 15294" d="M174.2,299.5l-.2-1.3h.1l-.1-.2-.1-.8-.3.2-.7-.9-.9,1.9-.3.2,2.5.9Zm6.6,17.1-1.3,1.1,1.7.4Zm-8.3,6.2,1.1-.6-.8-.6-.1-.5-.9.8.7.1v.8Zm-1.8,31.3.6-.7-.9-.3.3,1Zm-4.5-3-.7.5.7.3Zm5.5-3.3-.2.7.8-.2Zm-6.2,15.7.6-.7-.9-.3.3,1Zm-4.5-2.9-.7.5.7.3Zm5.5-3.3-.1.7.8-.2Zm-2,3,.5-.7-.9-.3Zm-4.5-2.9-.7.5.7.3Zm5.4-3.3-.1.7.8-.2Zm-3.9-.5-.1.1-.3-.2v.5H161l-.9.3.8.9.2-.6v.5l1.3-.8-.8-.6-.1-.1Zm-4.7,3.7.6-.4-.7-.5.1.9Zm.4-7.3.5.5.3-.8Zm6,4.4.2-.7-.7.2Z" fill="#535f87"/>
      <path id="Path_15295" data-name="Path 15295" d="M170,346l-.9.7,1.1.3-.2-1Zm-5.5,3.8.7-.4-.7-.6Zm.9-8.1.6.6.4-.9Zm.6,20,1.7.4-.4-1.5Zm8.1-20.2.8-1.1-1.5-.3Zm-8-3.4,1,.4-.1-1.3ZM175,333l1.2-.3-1-.8L175,333Zm6.8-4.1.8-1-1.5-.3Zm-8.1-3.3,1,.4-.1-1.3Zm8.9-5.2,1.2-.4-1-.8-.2,1.2ZM156,351.6h1.5l-.9-1.2Zm11.8-28.7,1.1.6-.3-1.3-.8.7Zm1.1,9.6-.3,1.2,1.1-.6Zm24.6-74.9h.6l-.7-1.3-.7,1-1.1-.5.7,2.3,1.5-1.4Zm-4.1-1.6.2.9.4-.4.4.2v.1l.9.4v-1l.5-.3-.6-.1V255l-.5.4-.8-.2.1.7-.1.1-.8-.3.3.3-2.1-1,.6,2.3,1.5-1.3ZM185,273.9l.6,1.8-.7.6,1.2.5v-.9l1.2-1.2Zm1.7-5.2-1.1.9,1,.4-.1.7,2-1.3-1.8-1v.3Zm-2.2,2.5-.2,2.3,2-1.3Zm6.2-6.5-.1-2-.5.4-.4-1-.6,1,.9.1-1,.8,1.7.7Zm-1.3,12.9.8.8.6-1.5-1.3.1v-.2l-.5.2h-.1l-1.1.9,1.6.7Zm-.6-12.2-1.2.8,1.1.5.1-1.3Zm.4-5.8,1.2-.2-.9-.8-.1.3-.6-.4-.2.8.7-.1-.1.4Zm12.2,3.5h-1.3l.8,1.1Zm-7.4-1.6-.8.9,1,.2Zm7.4-5.5-1.1-.5.1,1Zm.1,22.7.6-1h-1.4l.8,1Zm-6.9-2.6-.7.9,1,.2Zm6.5-5.1,1-.5-1-.5Zm-3.7,21.9.5-1.1h-1.4Zm-7.7-1.8,1,.2-.2-1.1Zm7.1-5.8,1-.5-1-.5Zm-1.8,3.6.6-1.1-1.3-.1Zm-7.6-1.7,1,.2-.3-1.1Zm7.1-6,1-.5-1-.5Zm-4.9-6.3-.2-.4-.8,1h.5l-.1.1,2.2.5-.6-2.4-1,1.2Zm4.5-2,1-.5-1-.5Zm-5.9-4.6,1.3-.9-1.5-.5Zm-2.1-5.5.2-1.1-1,.6Zm-2.2,20,1,2,1-2.1Zm12.8-24.5h-1.4l.9,1Zm-2.6-1.5,1-.4-.8-.7Zm-13,18.9.8-.8.2.5.2-.3.3.9.1.1.1.2-1.3-.5.5,1.7.9-.8.1.3-.8.5.8.5.1-.7,1.8-1.9-2.1-.8.7-.9-1.1-.3,1.9-.3-2.5-2.4h.1l-.7-.6v.1l-.2-.2-1,3.8.5-.1.6,2Zm.3-1.9-.6-.2.4-.1.2.3Zm3.2-18.5.5,2.1,1.3-1.1v-.1l.2-.2-.2-.1.1-.6-.7.3-1-.5,3.6-.7-.5-.5.1-.1.6.4v-.9l.8-.8-.3-.2.3-.3h.1v-.1l.9-.9H190l.6-.6-1.5-.6v-.1l-.1.1-.5-.2.2.7-.1.2-.5-.2.1-.1-.9-.3-.6-.4,3.1-.5-2-2-.6-.5-.7-.7-1,3.8.5-.1-.2.9.5-.1.3,1.3.5-.5.3.3.2-.8.1-.1.2.6-.6.7.8.2.1.2-.9-.4.5,2h-.1l.1.1v.2l-1.7-1.5-.2-.6.1-.9-1,.6-.1-.1-.1.2-.7,3.5h.5Zm-6.2,25.5,1.9.8V280l2.4-.4-1.9-1.8v-.1l-.1.1-.3-.3h.6l-.5-1.4-.5.7-.1-.5-.3.4-.2-.2-1,3.7v.2l.3-.1h.3l-.6.5Zm5.3,6.4.7-.7-1-.5Zm8-16.9-.4.5-.1-.2-.6.8h1.1l-.1-.3h.6Zm3.4-1.2-.7-1.5-1.1,1.3-.9-.4v.8l.9-.4-.1.2h1.9Zm-3.3,4.2-.2.2-.5.7h.7l.1.6.9-.7-.8-.4-.2-.4Z" fill="#535f87"/>
      <path id="Path_15296" data-name="Path 15296" d="M189.1,281l-.1-.2-.1.1-.5-.2.5-.2-.9-.8-.3,1.3.8-.3.1.6-.4.6h.6l.3,1.1,1.5-1.4-1.5-.6Zm2.5.3.2-.9-.8.5Zm5.7-12.1,1.6.1-.6-1.2Zm-5.2-6.2-1.2.6.9.7.3-1.3Zm3.6-31.1,1.2.5.1.1v-.1l.4.2-.1-2-1.6,1.3Zm-2.6,4.1h.8l-.3-.3.6-.6-1.6-.7v-.2l.2.1v-1.1l.3-.2-.3-.1v-.6l-.5.4-.2-.1v.2l-.3.2-.1-.6-.7.7.5.1-.2.2,1.2.5-.4.1.1.1.6,2.2.3-.3Zm-2.5-8.1-.4,2.3,2-.7Zm.6,24.3,1.1-1.1.6.3v-1.7l-1.1.7-1.4-.6.8,2.4Zm.8-5.5,2-1.3-1.8-1Zm-1.9.5-.2,2.3,2-1.3Zm6-8.5-1.6,1.2,1.6.7Zm10.8,16.1.6-1.1h-1.3Zm-6.6-1.6-.3-1.1-.7.9,1,.2Zm6.2-7.1v1l1-.5ZM196,249.9l-.2.3.1-.8-.8.3.7.6-.6.7-.2-.3-.8,1h.4l-.1.2,2.1.5-.6-2.5Zm3.5-2,.1,1,1-.5Z" fill="#535f87"/>
      <path id="Path_15297" data-name="Path 15297" d="M189,247.6l.2-1.1-.4.2.1-.4-.7.1.4-.2-1-.3.1.6v.2l.1-.1.4.4-.2.1,1,.5Zm7.2,5.3-1.1.1-.5-.2v.3h-.2l1.3,1.4Zm-2.4-8.6,1.3-.9-1.5-.5ZM186.9,264l.1-.1.1.3.2-.2.6-.5h-.1l1-.2-.5-.4.6-.6-1-.4,1.1.5-.1-1.7-1.4,1.1-1.5-.6.5,1.5-.2-.1.6,1.4Zm10.2-21.6h.2l-.2.3.9.1-.2-.4h.7l-.6-1-.8,1Zm-3.7,4.6-1-.5.3,1.1Zm1.7-8.4h1l-.5-1Zm-8.3,6.1,1.5-.2-1,.8,1.6.7v-1.1l.5.7.2-.3,1.6.7v-1.8l.8-.5-1.7-.5.1.3-.9-.9v-.7l.6-.6.5.2v-.1l.2,1,.3-.2-.4.8,1.7-.1,1-.1-.2-.4.7-.4-1-.3-.3-.7.4-.6h-.7l-.1-.3-.1.3h-.3l.1.2-.4.9-.8-.4v-.9l.1.1.1-.5,1.4-.2-1.6-1.5.5-.5.2.1-.1.1.8.5.2-1.1-.6.3V237l.5-.4-.4-.2v-.1l-.1.1-1.3-.6.3-.1-.4-.3,1.3-.3-.3-.3,1.1-.2-2.4-2.1-.2.9h-.2l.2.2-.3,1.5-.2.8.8-.2.5,1.8h-.2l-.8-.8.2-.2-.6-.2-.2-.2-1,3.8,2.1-.3-.8.7-.6-.2v.1l-.5-.2.3,1.1-.4-.4-1.3,4Zm3.7-.2-.9.8.4-.6-1.1.1v-.3l1.6-.2Z" fill="#535f87"/>
      <path id="Path_15298" data-name="Path 15298" d="M196.7,246.8l-.1-.2-.7.8h1.2l-.2-.2h.6l-.4-.9-.4.5Zm3.1-3.2-1.3,1.4,2,.1Zm2.9,1.6,1.6.1-.6-1.3Zm-5.3,5.6.9-.7-.8-.4-.2-.4-.2.2-.5.6h.7l.1.7Zm.1-11.7-1.2.6.8.6.2.6.4-.4-.5-.1.3-1.3ZM193,224.6l.3.2v-1.4l-1.2.9.1.1-.9.8,1.6.6.1-1.2Zm.3-2.3-1.2.2.9.8Zm-1.9,5.2-.1-.1v.7l.3-.1.1.4,1.2-1.1-.6-.2.1-.4,1-.7-1.4-.5.1.9-.6.3-.3-.1.2.9Z" fill="#535f87"/>
      <path id="Path_15299" data-name="Path 15299" d="M194.2,227.5l.8-.8-1.2-.5Zm2.8,5.2-1.2.9,1.1.5.1-1.4Zm.3-5.8,1.2-.2-.9-.7Zm6.8,7.1.5-1.1-1,.1ZM154.9,361.3l-.2,1.4,1-.6.4.2v-.8l-.5.4Zm-17.6,8.1,1.9.7-.6-1.8-1.3,1.1Zm5.1,1.9,1.9.7-.6-1.9-1.3,1.2Zm-.1-7.5-.9-1.1h.1l-1.2-1.6-.8,1.5-.5-.8-1.7,3.1,3.4-.6-.5-.7,2.1.2Zm-1.9-1.2-.3.7-.5-.7Zm20.1-22.1-1.3,1-.1-.6-.4.2V341l-.7.5.8.2v-.2l.3.1-.2.2,1.6.8-.1.6.8-.1-.3-.3.3.2-.7-2.5Zm-10,10.7v.1l.1-.1,1.3.6-.7-2.1,2.1-1.3-2.3-.7.2,1.8-1.5,1.3.8.4Zm-3.1,2,2.1-1.3-2.3-.7Zm2.2.3-1.5,1.3,2.2.9-.7-2.2Zm13.5-18.8.9-.6-.2-.1.4-.5-2-.7v.2l-.5-.3.3,2.6.6-.4v.1l.5-.3Zm-3.3-10-.6.6.3.1-.5.9h.9l-.1.2h.3v.2l.2-.2,1.7-.1-.6-1.1.3-.3-.5-.2-.3-.6,1.3-.3.1,3.1,1.4-1.2.9-.6-.1-.1.5-.4-2.9-1.4v.3l-.7-.8.1-.2h-.3l-1-1.3-1.6,3.3.9-.2v.3h.3Zm.8-.1-.5-.2.6-.1-.1.3Zm6.3-1.2.6,2.2h-.1l.1.1v.1l1.5.9.3-2.1-1.6.9,1.2-1.4Zm-4.6,21.4-2-.6.6,2.4Z" fill="#535f87"/>
      <path id="Path_15300" data-name="Path 15300" d="M156.5,350.2l1.4-1.7-.7-.2.1-.2-.5.1-.9-.3.2.6-.6-.5-.1-.2-.1.1-.3-.2h.3l-.5-.7-.3.5-.7.6,1,.2-.2.2.3.1v.9l1.2-.7.4,1.4Zm-1.6-2.3-.1-.2Zm7.7-26.3.7-.9.1.2.5-.9.4-.8.5,1,1-1.2h-1.3l.7-1.2-2.3-.1,1-.1.2.2.1-.2.6-.1-.4-.5.1-.2.1.3.2-1.1,1.9.8v.5l.4-.3.3.1v-.3l1.1-.8-1.1-.7V314l-2.9,1.5-.7-.3.6,1.4-.2.1-.7-1-1.1,2.2h.2v.1l-.6,1h.6l-.6.3h-.1v.1l-.2.1-.2-.3-1.1,2.4,2-.3Zm-.5-1.9.1.4-.4-.6.3.2Zm10-2.2.6-.7,1.1-.7-1.8-1.2.1.8-.4-.1.4,1.9Zm-5.4-5,1.2-1.5-.3-.1.7-.4-.3-.2.2-.2.6-.2-.3-.3.5-.7h-.3l.2-1,1.1-.3h.5l-.1.2,1.2-.1-.8-1.1-.1.2-.2-.3-.2.6-.6-.8h.1l-.1-.9,1.8-.5-.4-.5.4-.2-.8-.5.1-.6-.6.2-.3-.3-.8,1.9H169l.1.1-.1.2-.2-.2-1.6,3.3-.9,2.8h.1l.3,1.4Zm-.1-1.9.5-.2v.3l-.5-.1Zm2.9-5.4-.2.2-.1-.1Zm-1.9,2.8.9.7-.8-.1-.5-.5.4-.1ZM150,356.8l-1.6,1.3,2.3,1Zm8.8,12,.7-.9-1.1.1.4.8Zm-13.9-9.5.7-1.2-1.2-.1.5,1.3Zm-.5,5.1-.4,1.1,1.4-.2Z" fill="#535f87"/>
      <path id="Path_15301" data-name="Path 15301" d="M149.6,347.1l1.3.6-.4-1.3-.3.3-.7-1.1.1-.4-.3.1-.2-.4,2.2.1.2.7,1.2-2-.1,2.8-.6-.4v.8l.6-.3,2.8-2.1-1.4-.8,1.2-.6-1.4-1v1.5l-.8-.5.3-.5-2.1-.3.9-.5-1.4-1v.5l-.2-.6,2.3.1-.1-.1h1.6l-1.2-2.3-.3.7h-.4l.3.4h-.1l-.3.7-1-1.3-.9,1.7-.1-.2-1.3,2.2.7.1.2.3-.1.1-.1-.1-.3.5-.1.1-.6,1-.4-.6-1.7,3.1,3.1-.5-.1.5Zm.7-4.1h0l.1-.1.7,2-.8-1Zm5.1-.5.6-.7.1.2,1-2.3-2.3.1.9,1.6-.9-.1.6,1.2Zm2.8-5.2.5-1.3-1.6.2,1.1,1.1Zm1.5-.8.1-.2.3.4.4-.8-.6.1.8-1.7-2.2.1Zm-9.2,18.4,1-2.3-2.3.2,1.3,2.1ZM143.4,365l1-2.2-1,.1,1.1-1.4-1.7-.4.5,1.7-1,.1,1.1,2.1Zm30.8-36-.8.9,1.4.3-.6-1.2Zm-1.3-15.4.5-.1-.6.4.7.3v-.8l.7-.1-.9-1.1-.4,1.4Zm-7.4,14.1.2-1.1-1.4.3,1.2.8Zm-.8-13.7.8-.5-.8-.6.8-.1-.5.2,1.2.9.3-1.3h.2l-.1-.2v-.1h-.1l-.8-1.2-1,1.8-.2.9-.1-.2-.7,1.4,1.5-.3-.5-.7Zm-5.1,42,.7-.2-.6-.7-.1.9Zm-5.5-5.1-.7.5.8.3ZM146.9,365l.7-.2-.7-.6v.8Zm32.4-18.2.9-.1-.5-.7-.4.8Zm-6.5,4.4v-.8l-.7.2.7.6Zm-9-13.2v1.6l1.3-.4Zm.1-6.9-.2-1.2-1.2.7Zm-8.6,7.3.7-1.1-.4-.1.5-.5-.8-.3.2.7-.7-.1Zm15.1-9.8.4-.2-1.1-.8v1.3l.2-.1.1.7.3-.2.6.5.3-.9-.3.1Zm-9.2,10.6-1.2-.9.6.1-.2-.7v-.1l-.1.1-1.4-.1.4.8.1,1.6,1.8-.8ZM172.3,327l1.1-.4-1.1-.9Zm.6-26-.9-1.8-.6.9-.6.3.2.2-.4.6Zm1.5,4.2.2-.1-.3-.2-.2-.6-.2.2-.6-.5.1,1.1-.8.9h2.3Zm3.4-15.3.7-1.7,2.2.5-.6-2.4.3.1-.6-2.1-1.1,1-1-.4.5,1.7.8-.7,1,.4-1.5,1.9-1,.1-.3-.3-.1.3h-.7l1.4,1.6Zm-3.4,12.5,1.1-2.1-2-.1Zm-3.1,1.2,2.1-1-.7-.6.2-.5-.3.1.1-.3h-.8v.1h-.1l-.5,2.2Zm-2.9,10h0l1.1.3-.3-2-1.8,1.4,1,.3Zm-22.6,47.9,1.2-.7-1.3-.5Zm9.2-6.8-.4-1.3-.6.9-.7-.5-.1,1,.9-.3.9.2Zm-3.3,2.3,1-.9-1.6-.6Zm-7.4,10.6-1.3-.5.1,1.2Zm30.3-74.5-.3,1.1,1-.2Z" fill="#535f87"/>
      <path id="Path_15302" data-name="Path 15302" d="M142.1,366.6l.5-.9-1,.1.5.8-.9-.5v2.3l1.8-1.3-.9-.5Zm3.9-13.5.1-1.3-.8.2-.6-.9-1.7,3.1,3.5-.6-.5-.5Zm-7.8,13.5,1.6.7-.6-1.8-1.2,1-.8-1.3-1.7,3.1,3.5-.6-.8-1.1Zm2.2,4.9-2.5,1.4-.2-2.4L135,372l3,2-.1-.8,2.7,1.8ZM176,296.2h0l.8-.8-3-1,.5,3.6,1.7-1.8Zm1.2-5.6.3-.7h-1l.1.2-1-1-.9,2.6,2.5-.9v-.2Zm-.9,1.4.2,1.5.2,1.3.8-.8.2.1v-.2l.9-1-2.3-.9ZM155,357l.2-.3-1,.1.3.5-.7.5,1.4.3Zm-7.7.6.2-.4.6.2-.2-1.4-.8.6h-.2l.1.1-.3.2.5.1.1.6Zm18.9-36.7-1.6.3,1.3,1Zm5.2,1.6v1.6l1.3-.6Zm-.3-7-.2-1.2-1.1.8,1.3.4Zm-8.1,8.2.7-1.2-1.2-.1.5,1.3Zm-9.6,39.6,1.4.3-.2-1.2-1.2.9Zm-7-1.2.1.3-1.6-.5.2,2,1.6-1,.1.3.2-.5.1-.1H147l.2-.5h-.8Zm5.2,8.9,1.2-.2-.9-.8Zm-.3-12.1-1.2.8,1.4.8-.2-1.6Zm1.5,9.7,1-.9-1.3-.2Zm6.4-9,1.2-.1-.7-1.2-.5,1.3Zm6.1-4.3-1,.1.7.9Zm-1.5,6.6.9-.3-.8-.5-.1.8Zm6.5-4.1.8.3-.1-.9Zm-10.5,7.9-.6-.8-.2.4v.1l-.3.6.3-.1v.9l1-.6-.5-.3Z" fill="#535f87"/>
    </g>
    <g id="Group_1159" data-name="Group 1159">
      <path id="Path_15303" data-name="Path 15303" d="M260.7,208.8l1.5-.7-1.4-1.3Zm-14.9,3.7.3-1.9-1.7.9Zm13.8-2.3.5-1.6-1.5.6Zm-14.1,14.5,1,.2-.2-1.1-.8.9Zm-.2-6.5v.8l.8-.4-.8-.4Zm6.9,5.2.2-.9-.8.2Zm-18.8.8,1,.2-.2-1.1-.8.9Zm-.2-6.4v.8l.8-.4-.8-.4ZM240,223l.2-.9-.8.2Zm-4-1.4,1,.2-.2-1.1-.8.9Zm-.1-6.5v.8l.8-.4-.8-.4Zm6.8,5.2.2-.9-.8.2Zm6.5-2.1.2-.9-.8.2Zm-7.7-3.2.5-.9h-1.1Zm3.9-1.2.1.3-.2-.1.1,1.8,1.8-.9-1-.5.2-.2-1-.4Zm-4.3-2,.1-.9-.8.5Zm7.2-3.3h.3l-.4-.8-.3.5-.1-.1-.3.8.9-.1-.1-.3Zm-4.8,7.1,1.3.1-.5-1.4-.8,1.3Zm-1.1-7.5,1-.7-1.2-.4.2,1.1Zm9.8,3.5-1,.4.9.8Zm1.4,3.8.7-.7-1-.5Zm-4.5-4.1-.8.5.7.5Zm6.7-2.7-.3.8.9-.1-.6-.7Zm-.8.8.5-1.6-1.5.6Zm8.8-2.3-.2,1.4,1.6-.5Zm-6.1.6.4,1,.7-.7Zm-.9,3.9.1-.9-.8.5.7.4Zm-4.1-2.6-.7.7.8.3Zm-7.1-2.1-1.7.9,1.4.9.3-1.8Zm-8.1.1-1.7,1,1.4.9Zm1.8-.3-.3,1.6,1.8-.5Zm-6.4.1-.3,1.7,1.9-.5-1.6-1.2Zm7.7,9,.7-.7-1-.4.3,1.1Zm-4.5-4.1-.8.5.7.5Zm6.4-1.9.9-.1-.7-.7Zm7.1,5.8.6-.5-.8-.4Zm2.3,1.9,1.1-.9-1.4-.7.3,1.6Zm-4.6-1.2.6-.5-.8-.4Zm-5.7.3-.2.7.8-.1-.6-.6Zm-35.7,8.6.9.2-.2-1.1-.7.9Zm-.2-5.6.8-.4-.9-.4.1.8Zm6.8,4.4.2-.9-.8.2Zm-16.1-1.9.9.2-.2-1.1-.7.9Zm-.2-6.4v.8l.8-.4-.8-.4Zm6.8,5.2.2-.9-.8.2Zm3.5-5.9.2-.2-1-.5.1.3h-.1l-1-.5.3,1.1.6-.5.1,1.7,1.8-.9-1-.5Zm3.1,3.8.2-.9-.8.2Zm-7.3-4.1h-1.1l.7.9.4-.9Zm-.8-3.3-.8.5.7.5Zm6.4-2,.9-.1-.5-.6,1.5.9.3-2.9-2.5,1.6.6.3-.2.5-.6-.7-.3.8h.9l-.1.2Zm-4.1,6.8,1.3.1-.5-1.4-.8,1.3Zm8.7-3.6.6.5.3-1.5-1.7.3.5.3-.7.3.9.9.1-.8Zm-3.1-.7-.8.5.7.5Zm6.4-2,.9-.1-.1-.2,1-.3-2.1-1.4-.2,2.2.5-.2Zm-3.6,8.2,1.1-.9-1.4-.7.3,1.6Zm-4.6-1.2.6-.6-.8-.3.2.9Zm-5.6.3-.2.6.7-.1Zm21.5,7.1.9.2-.2-1.1-.7.9Zm-.1-6.5v.8l.8-.4-.8-.4Zm6.8,5.2.2-.9-.8.2Zm-16.1-1.8.9.2-.2-1.1-.7.9Zm-.2-6.5v.2l-.2-.1.3,1.1.7-.7-.1-.1.1-.1-.8-.3Zm6.9,4.3-.8.2.6.7Zm6.6-2.1-.8.2.6.7Z" fill="#111723"/>
      <path id="Path_15304" data-name="Path 15304" d="M219.5,214.6l.5-.9h-1.1Zm-.5-3.2.1-.9-.8.5Zm3.8,4-.5-1.4-.8,1.3,1.3.1Zm7.3-2.9.1-1.3-1,.5Zm1.5,2.5.7-.7-1-.4.3,1.1Zm-4.5-4-.8.5.7.5Zm7.3-2.1-.7-.7-.3.8Zm-7,5.4.2.9.6-.5Zm2.4,2.9,1.1-.9-1.4-.7.3,1.6Zm-4.5-1.2.6-.6-.9-.4.3,1Zm-5.7.3-.2.6.8-.1ZM200.5,212l.2-.9-.8.4Zm6.6-4.3-1.6.6,1,1Zm-3.3,12.7.9-.7-1.1-.6.2,1.3Zm-4.9-4,.2-1-1,.5Zm8-3.4-.4.9h1Zm30.9-1.8,2.4-.8-2.1-1.4-.3,2.2ZM226,208.4h.5l-.1-.1.4-.1-2.1-1.4-.2,2.2,1.5-.6Zm-4.9,9.4,2.4-.8-2.1-1.4-.3,2.2Zm.3-9.4-.3-1,.3-.2-.5-.2-.1-.2-.1.1-.6-.2.1.8-.4.7,1.6.2Zm1.9,4.5.1.8h-.1l.1,1.8,1.8-.9-.7-.3.9-.5-2.1-.9Zm7.5,9.4.2-1.4-1.2.4Zm-12-4.4.6-1.4h-1.7l1.1,1.4Zm5.7-11.2h-1.4l.9,1.2Zm-5.6.9-1.4-.6.1,1.3,1.3-.7Zm-3.9,9.8.3-1.5-1.6.3Zm-1.9-10.2-1.4-.3.3,1.2,1.1-.9Zm9.4,3.7-.3,1,1.2-.2Zm5.2,8.6.9-.9-1.3-.5.4,1.4Zm-10.2.8.2-2.1-1.8,1.1Zm-12.4-9.5-1.8,1.1,1.6.9Zm4.8,5,.1.3.2-.2.8.5.3-2.9-2.5,1.6,1.1.7Zm4.2-9.2-.8,1.9,1.8-.2Zm8.6,4.4.3-2.9-2.5,1.6,2.2,1.3Zm-5.7,3,.3-2.9-2.5,1.6L217,214Zm12-4.3-2.1-1.4-.2,2.2,2.3-.8,2.2,1.3.3-2.9-2.5,1.6Zm-24.4-2.8-3,.1,1.3,2.2Zm25.8-.2-3,.1,1.3,2.2Zm-30.3,0-3,.1,1.3,2.2Zm48.7,0,2,2.3,1-2.4-3,.1Zm-14.5,10.4.3-2.5-2.2,1.4Zm-15.2,3.3-.3,1,1.2-.2Zm14.5,1,1-.9-1.4-.6Zm-6.4-5.9-1.2.7,1,.7Zm9.2-2.6,1.3-.1-.9-1-.4,1.1Zm-31,14.6,1.3.2-.3-1.4Zm-.5-8.2.1,1,1-.6Zm8.9,6.2.2-1.2-1,.3Zm6.1,5.6,1.3.2-.4-1.4-.9,1.2Zm-.6-8.2.1,1,1-.6Zm8.9,6.2.2-1.2-1,.3Zm.8-2.3,1.5.2-.5-1.6-1,1.4Zm-.6-8.6,1.3-.7-1.4-.6.1,1.3Zm10.6,6.2.2-1.4-1.2.4Z" fill="#111723"/>
    </g>
    <g id="Group_1160" data-name="Group 1160">
      <path id="Path_15305" data-name="Path 15305" d="M159.7,390.2l-.3,1.4,1-.2-.1,1.3,2.5-.7-2.3-1.5-.1.7-.7-1Zm2.4,3.2.6-.7-.9-.1.3.8Z" fill="#ad5c49"/>
      <path id="Path_15306" data-name="Path 15306" d="M158,394l.9-.6-1-.3Zm2.1-1.9-.6-1.4-1.1,1.2,1.7.2Zm-1.3,3.6,1-.7-1.3-.7.3,1.4Zm2.2-.6.6-1.3h-1.8Z" fill="#ad5c49"/>
      <path id="Path_15307" data-name="Path 15307" d="M162.5,392.8l.6-.7-.9-.1.3.8Zm-2.4-3-2.4-1.5-.2,3.3,2.6-1.8Zm-1.2,8.1-.1-1.5-1.5.7Zm2.7-2.6.9-1.6h-2.1l1.2,1.6Zm-3.5-3.2-.4.7h-1.2l.5.8-.7-.1.3.8.4-.7.1.2.5-.7.9.1.1.6.9-.6-.9-.3-.5-.8Z" fill="#ad5c49"/>
    </g>
    <g id="Group_1161" data-name="Group 1161">
      <path id="Path_15308" data-name="Path 15308" d="M283.1,399.6l-.6.6-.3-.8.9.2Z" fill="#a05a3c" opacity="0.7"/>
      <path id="Path_15309" data-name="Path 15309" d="M295.2,401.1l-.9.2.2-1,.7.8Zm-2.5-5v.8l-.8-.4Zm-6.7,6.8.8.2-.6.7-.2-.9Zm13.7-5.1-.8.2.2-.9.6.7Zm-1.4-2.4v.7l-.7-.3.7-.4Zm-5.7,5.7.7.2-.5.6-.2-.8Z" fill="#a05a3c"/>
      <path id="Path_15310" data-name="Path 15310" d="M285.4,401.4l-.5.8-.7-.8Z" fill="#a05a3c" opacity="0.7"/>
      <path id="Path_15311" data-name="Path 15311" d="M288.1,406.5l.6-1.4,1.2,1.2-1.8.2Zm-1.6-6.6-1-.7,1.3-.7-.3,1.4Zm5.1,2.2-1,.8-.3-1.3Zm-8-2.3,1.1-1.1.6,1.5Zm4.6,1.5-.3-1.2,1.4.2Zm6.5-5.2-1.2.4.2-1.4Zm13.3-4.3-.3,1.2-1-1Zm-11.6,2.4,1.1.7-1.2.8ZM286,406.1l-1-.7,1.3-.7-.3,1.4Zm-2.7-4-.1-1.4,1.6.6Zm9.1-2.6-1.2.5.1-1.4Zm-.4-1.1-2.1-1.7,2.3-1.6-.2,3.3Zm-3.1,1.1-1.4-1.2,1.6-1.1-.2,2.3Z" fill="#a05a3c"/>
      <path id="Path_15312" data-name="Path 15312" d="M289.3,398.1l-1.5-1.2,1.6-1.1-.1,2.3Zm5.4.4-1,.2.3-1Zm8-4.7-1,.2.2-1Zm-7.5,2.8v.8l-.8-.4Zm2.1,1.3v.8l-.8-.4Zm-14.3-.5,2.7-.6-.9,3-1.8-2.4Zm15.6-3.1-.2.9-.9-.5Zm-14.3,10.6.6-1.4,1.2,1.2-1.8.2Z" fill="#a05a3c"/>
      <path id="Path_15313" data-name="Path 15313" d="M291,405.3l-.8-.6,1-.6Zm.2-7.7-1,.8-.4-1.3Zm-4.3,8.6-.7-1,1.5-.2Zm17.5-12.1-1-.7,1.3-.7-.3,1.4ZM289,403.2l-1,.8-.3-1.3Zm7-8.9-.8,3.1-2.6-2.3,3.4-.8Zm4-.9-.4,1.5-1.3-1,1.7-.5Zm1.8,1.8-.2.9-.8-.7,1-.2Zm-19.4,3.7-.9-1.1,1.7-.4-.8,1.5Zm4.5-2.6.3,2.8-3.2-.9,2.9-1.9Z" fill="#a05a3c"/>
    </g>
  </g>
</svg>
