<svg xmlns="http://www.w3.org/2000/svg" xmlns:xlink="http://www.w3.org/1999/xlink" width="265.918" height="229.012" viewBox="0 0 265.918 229.012">
  <defs>
    <linearGradient id="linear-gradient" x1="0.275" y1="0.787" x2="0.573" y2="0.422" gradientUnits="objectBoundingBox">
      <stop offset="0" stop-color="#cc7a5e" stop-opacity="0"/>
      <stop offset="0.924" stop-color="#aa5f4b"/>
    </linearGradient>
    <linearGradient id="linear-gradient-2" x1="0.804" y1="0.31" x2="0.209" y2="0.926" gradientUnits="objectBoundingBox">
      <stop offset="0" stop-color="#af614e"/>
      <stop offset="0.235" stop-color="#ad5f4c"/>
      <stop offset="0.995" stop-color="#5a2a0e"/>
    </linearGradient>
    <linearGradient id="linear-gradient-3" y1="0.5" x2="1.001" y2="0.5" gradientUnits="objectBoundingBox">
      <stop offset="0" stop-color="#341413" stop-opacity="0"/>
      <stop offset="1" stop-color="#240f0e"/>
    </linearGradient>
    <linearGradient id="linear-gradient-4" x1="0.645" y1="0.857" x2="0.507" y2="0.53" xlink:href="#linear-gradient"/>
    <linearGradient id="linear-gradient-5" x1="0.37" y1="-0.154" x2="0.622" y2="0.918" xlink:href="#linear-gradient-2"/>
    <linearGradient id="linear-gradient-6" x1="0.001" x2="1.001" xlink:href="#linear-gradient-3"/>
    <linearGradient id="linear-gradient-7" x1="0.494" y1="1.008" x2="0.508" y2="-0.286" xlink:href="#linear-gradient-3"/>
  </defs>
  <g id="_45" data-name="45" transform="translate(-121.573 -206.1)">
    <path id="Path_15540" data-name="Path 15540" d="M133.5,396.8,157,367.6l21.5,19.3-28.4,35.2Z" fill="#ea9d7d"/>
    <path id="Path_15541" data-name="Path 15541" d="M149.8,396.1c7.3,7.9,14,9,14,9l14-17.2-22.1-18.7L141,387.8a71.167,71.167,0,0,1,8.8,8.3Z" fill="url(#linear-gradient)"/>
    <path id="Path_15542" data-name="Path 15542" d="M140.2,389.4a.446.446,0,0,1-.5,0c-.2-.1-.2-.4,0-.6L153,372.5c.1-.2.4-.2.6,0,.2.1.2.4,0,.6l-13.4,16.3h0Z" fill="#cc7a5e"/>
    <path id="Path_15543" data-name="Path 15543" d="M141.5,382.1l25.1,22.5a1.561,1.561,0,0,1,.4,1.8l-.9,2,2.2,11.7s7.9,2.7,10.9,5.3c2.2,1.8,2.7,2.8,2.5,3.1a30.931,30.931,0,0,0-1.7,5l-30.4-1.8-27.1-30.2a3.763,3.763,0,0,1-.2-4.7,57.76,57.76,0,0,1,8.1-8.6c3.2-2.5,6-4.8,7.7-6.2a2.833,2.833,0,0,1,3.4.1Z" fill="url(#linear-gradient-2)"/>
    <path id="Path_15544" data-name="Path 15544" d="M122.7,401.5,151,433a4.79,4.79,0,0,0,3.5,1.6l24.8.2a2.562,2.562,0,0,0,2.6-2.5v-3l-27.5-.8-29.9-34.2-2,2.6a3.506,3.506,0,0,0,.2,4.6Z" fill="#351412"/>
    <path id="Path_15545" data-name="Path 15545" d="M155.8,429a4.588,4.588,0,0,1-3.1-1.5L124,394.6l1-.9,28.7,32.9a2.99,2.99,0,0,0,2.3,1.1l25.8.6v1.3L156,429C156,429.1,155.9,429.1,155.8,429Z" fill="#d3a094"/>
    <path id="Path_15546" data-name="Path 15546" d="M158.6,410.5a1.351,1.351,0,1,0,.1,2.7l8.2-.4h.1l-.5-2.6-7.9.3Zm1.2,4.8a1.358,1.358,0,0,0,.3,2.7l7.7-.9-.5-2.6Zm1.6,4.9a1.366,1.366,0,0,0,1.1,2.5l6.1-2.6-.6-2.4Z" fill="#4c2215"/>
    <g id="Group_1194" data-name="Group 1194">
      <path id="Path_15547" data-name="Path 15547" d="M158.6,415.6l-.8.2.7.7.1-.9Zm1.7,5.6-.7-1-.7,1.2Zm4.3-15.6.5-1.3-1.7.1,1.2,1.2Zm1.9,1.5-.3-1.4-1.3,1Zm13.3,18.6-1.3-.9-.5,1.7,1.8-.8Zm-11-4.1-.4-1.3-1.1.8Zm-11.7-23-1.3-.5.1,1.7Zm4.1,3.5-.1-1.4-1.5.7,1.6.7Zm3.5,6.9-.8-1.2-.9,1.4,1.7-.2Z" fill="#c67463"/>
      <path id="Path_15548" data-name="Path 15548" d="M165.7,409.7l-.8-1.2L164,410Zm4.3,11-1.2-.2.3,1.3.9-1.1Zm-3.1-7.8-1.5.1.6,1.4Zm-13.6-11.3-1.2.9,1.3.8-.1-1.7Zm3.2-6.2-1.3.8,1.3.9v-1.7Zm-6.8.4-1.3.8,1.3.9v-1.7Zm1.3-2.9h-1.5l.6,1.5Zm7.3,8.2h-1.5l.6,1.4Z" fill="#c67463"/>
      <path id="Path_15549" data-name="Path 15549" d="M160.7,405.9h-1.4l.6,1.5.8-1.5Zm-8.9-13.6-1.2.8,1.3.9-.1-1.7Zm-6.9-5.5-1,.7,1.2.7-.2-1.4Zm-.1,4.7-1,.6,1.2.7-.2-1.3Zm-1.6-8-1,.7,1.2.7-.2-1.4Zm18.4,35.1h-1.2l.5,1.3Zm-2.1.1-1.2.1.6,1.2.6-1.3Zm21,7.9-.9.9,1.3.5-.4-1.4Zm-3.3-2.6-.1,1.2,1.3-.4-1.2-.8Zm-.6.1-.9.9,1.3.5-.4-1.4Zm-3,.4-.6-.4-.1.8.7-.4Zm3,2.1-.6-.4-.1.8.7-.4Zm1,.1.2-.7-.8.1Zm1.7.6.2-.7-.8.1Zm-12.1-5.1-.7-1-.7,1.2Zm-3.6-7.5-.8-1.2-.9,1.4,1.7-.2Zm11.9,8.7-1.2-.2.4,1.3.8-1.1Zm-20.8-3.2.5-.5-.8-.2Zm9.7-6.8-.4.9h1.1l-.7-.9Zm2.5,4.1-.8-.2.2,1Zm-3,5.7-.1-.8-.8.4.9.4Zm9.1-1.3-.7.6.9.4Zm3.5,1.8-.6-.4-.2.8Zm-5.6,2.7.3-.7-.9.1.6.6ZM150,401.6l-.9.5.9.7Zm4.4,4.6-.6-.6-.4.9Zm-8.1,1.9.4-.7-.9-.1.5.8Zm14.9-5.8-1-.2.3,1.1Zm-9.8-2.1-.6.8,1.1.2Zm10.2,3.4-1.1-.2.3,1.1Zm4.5,4.9-.5-.7-.5.8,1-.1Zm-.8-2-.5-.7-.5.8,1-.1Zm-7.7,2.4.6-.6-.9-.3.3.9Zm4.7-4.9.8-.2-.6-.7-.2.9Zm-12.6,10,.5.8.7-1Zm4.7-4.8-.6.6.9.3-.3-.9Zm1.4,8.1-.7-.4-.1.9Zm-.5-12.2.5.8.6-1Zm-1.1-3.3.5.8.6-1Zm-5-11.3.5.8.7-1Z" fill="#c67463"/>
      <path id="Path_15550" data-name="Path 15550" d="M156.2,401l-.4,1.5,1.7-.4Zm-3.8-6.2-1.4,1.3,1.9.7Zm-5.6,6.9-.6-.4-.2,1Zm-3.9-10.6.9-.2-.6-.7-.3.9Zm8.2,6.5.4.8.6-.8Zm-.2-5.2.8-.2-.6-.7-.2.9Zm1.8,8.3.8-.3-.6-.7ZM144.5,389l-.5.5.8.3Zm9.5,10.4v.6l.7-.3-.7-.3Zm4.2-1-.5.1.4.5Zm3.6,9.3-.2-.5-.4.5h.6Zm-3.3,6.5.5-.4-.7-.3.2.7Zm-3.5-2.3.5.3.1-.6-.6.3Zm5-2.2-.2.5.6-.1-.4-.4Zm-3.2,12.2.5-.5-.6-.3Zm-3.5-2.3.5.3.1-.6-.6.3Z" fill="#c67463"/>
      <path id="Path_15551" data-name="Path 15551" d="M158.4,417.5l-.2.5.6-.1-.4-.4Zm-3.5-6.1.5-.4-.7-.3.2.7Zm-3.5-2.2.4.3.1-.6-.5.3Zm5.1-2.2-.2.5.6-.1-.4-.4Zm-9.8-15.2-.4.3.6.2-.2-.5Zm2.4,11.8-.4-.3-.1.6.5-.3Zm-4.7-7,1,.1-.3-1.1Zm-.7-6.6.1.9.8-.5-.9-.4Zm7.4,3.4-.8.3.7.6Zm.5,15.1,1,.1-.3-1.1Zm-.9-6.6.1.9.8-.6-.9-.3Zm7.5,3.2-.8.3.7.6Zm-21-14.2.7-.4-.7-.6Zm5.1-3.2.7-.4-.7-.6Zm-1-3.5.5.5.3-.7Zm3.1.7-.4.6.8.2-.4-.8Zm4.3,8.1-.7.3.6.5.1-.8Zm-.4,7.6.8.2-.2-.9-.6.7Zm5.1-2.4,1.4.2-.4-1.5Zm-7.2,1.2.8.1-.3-.9Z" fill="#c67463"/>
      <path id="Path_15552" data-name="Path 15552" d="M148.4,400.1l.8.1-.2-.9Zm-5-11.5.2,1.5,1.4-.9-1.6-.6Zm-3.3-6.7.3,1.4,1.4-.9Zm-2.4,2.5.2,1.4,1.3-.9Zm.6-1.6.3,1.4,1.3-.9Zm8,4.5.2,1.5,1.3-.9Zm-4.3,4.8-.5.2.4.4Zm-1.5,1.9,1.1.1-.3-1.2Zm-.3-7.5v1l.9-.6Zm8,4.4-.9.3.7.8.2-1.1Zm13.2,14-.8-.5-.2,1Zm-2,5.4.2-.7-.9.1Zm-4.6-5.6.8.1-.3-.8-.5.7Zm5.8-4.8-.8-.5-.2,1.1Zm-2.3,6.2.3-.8-1,.1.7.7Zm-5.1-6.3.9.1-.3-.9-.6.8Zm8.6,6.5.5.8.7-1Zm3.7-.1-.6.6.9.3-.3-.9Zm-5.8,16.2-.7-.4-.1.9Zm6.2-4.4-.8-.6-.2,1.1Zm-.9,4.8.3-.8-.9.1.6.7Zm-8.1-8.1.8.1-.3-.9Zm3.7-1.3-1,.4.8.8.2-1.2Zm3.6,5.5-.5-.7-.5.8,1-.1Zm-8.3.1.6-.6-.9-.3.3.9Zm11.3,3.4-.4.7h1Zm5.4.8-.7-.1.2.8.5-.7Zm-3.1.8-.1-.7-.7.4.8.3Zm-.1-2.8-.5.7,1,.2-.5-.9Zm5.1,1.9-.7-.2v.8l.7-.6Zm-5.5,4.1v-.7l-.8.2Zm-8-4.8-1,.2.7.9Zm1.7,2.2-.4-.8-.6.7,1,.1Zm-6,1.7.7-.6-.9-.4Zm-15.5-42.4-1,.7,1.2.7-.2-1.4Zm29.1,37,.3,2.2,2.1-1.3-2.4-.9Zm-6.2-18.6-1.8-1.3-.5,2.4Zm-16.3-14.1-.3,2.2,2.4-.7-2.1-1.5Zm5.4,4.4-.6,2.1,2.5-.4Z" fill="#c67463"/>
    </g>
    <path id="Path_15553" data-name="Path 15553" d="M147.3,379.4l25.6,21.1a3.241,3.241,0,0,0,4.7-.5l48.2-60.5c15.6-16.3,20.7-26.8,25.1-45.9s14.6-70.1,14.6-70.1l2.8-17.4-67.2,1s-5.1,55.1-9.7,73.4c-3.4,13.6-6.2,30.7-10.5,38.3-5.4,9.6-28.1,46.1-34.3,56.1a3.512,3.512,0,0,0,.7,4.5Z" fill="#341311"/>
    <path id="Path_15554" data-name="Path 15554" d="M245.8,311.4l-47.3-77.3c-2.2,17.3-6,42.3-8.8,54.4-.6,2.3-1.1,7-1.7,8.7,1.1.6,5.3-.2,14.1,14.9,9.5,16.5,18,34,18,34C231.1,333,238.3,327.9,245.8,311.4Z" fill="url(#linear-gradient-3)"/>
    <g id="Group_1195" data-name="Group 1195">
      <path id="Path_15555" data-name="Path 15555" d="M162.4,373.1l1-.6-.8-.7-.2,1.3Zm-3.6,1.5-1.2.9,1.6.7-.4-1.6Zm-7.8,5.5,1.6.7-.4-1.6-1.2.9Zm17.2-25.6-1.5.9,1.8,1.1Zm-8,8.9-.5-1.9,1.8-1-1.9-.8v1.6l-1.3,1,1.9,1.1Zm-3.9.9,1.9-1-1.9-.7Zm1.9.5-1.4,1,1.9,1Zm13.6-16.2-1.7-.7.3,2.1Zm3.3-6.4,1.4-1.4-1.7-.7Zm-6.8,17.4,1.3-1.4-1.7-.6Zm-4.2.7.4,2.1,1.3-1.5Zm13-31.3.5-.6h.2l-.1-.1.5-.7-1.3-.3-.4-.6-1.1,2.2,1.7-.4v.5Zm2.8,6.5,1.2-1.2-1.4-.6.2,1.8Zm-4.1-4.8,1.2-1.2-1.4-.6.2,1.8Zm-23.7,40.1.3,1.7,1.1-1.2-1.4-.5Zm6.2-3.2-1.4,1,1.9,1Z" fill="#68322e"/>
      <path id="Path_15556" data-name="Path 15556" d="M165.3,378.9l.7-.8h-1Zm-9.5-11.7h-.2v.1l-.3.2.4.2.2.5.2-.3.5.2-.1-1.2-.7.3Zm-1.7,2.1.7-1-1-.2Zm-1.4,5.6,1.2-.1-.8-.9Zm13.8-19.4-.3,1.4,1.2-.5Zm3.5-10,1.3-.5-1-.9Zm-5.6,11.6-.3,1.3,1.3-.5Zm2.5,8.2.7-.9-1.1-.1.4,1Zm-1.5-14.8,1,1.1.4-1.1Zm-.3-5-1.2,1.7H166l-.9-1.7Zm-.5,9.8,1-1.9h-1.9l.7,1.4-.8-.1.4,1,.6-.6Zm3.1-4.4,1-1.9h-1.9ZM158.8,366l1-1.9h-2Zm-6.6,8.4,1-1.9h-2Zm27.6-28,1.2.4-.4-1.1Zm-6.6-2.8.3-.9-1.2.1Zm.7-11.8.8-.3-.6-.6,1.7-.1-.7-1.3-1,1.4-.2.8-.1-.1-.8,1.1,1.3-.1Zm-12,36,.2.4-.6.4,1.1.4-.1-1,.2-.3-.8.1Zm4.7-.4.6-.1-.5-.6Zm-5-4.3.7.3v-.7l-.7.4Zm-10.7,11.7.4.7.5-.8-.9.1Zm4.7-.4.6-.2-.5-.6-.1.8Zm-4.4-4h0l1-.1-.4-.7.4-.4.7.8.2-1.3.2-.7-1,.1.5.7h-.2l-1.4-.4v.3l-.4-.7-1.7,2.6,2.1-.2Zm33-9.6h.8l-.3-.6Zm-5.9,3.5.1-.7-.7.1.6.6Zm-7.2-10.5,1.2-.3-1.1-1.1-.1,1.4Zm.4-8.4-1,.6,1.1.5Zm-7.7,6.9.7-.9-1-.2Zm19.1-22.8-.4-1.2-.6,1Zm-2.3-2.3-.4-1.1-.6,1Zm0-3.2.3-.8-.5.1-.9-1.2,1.8-.4-1-1.3,1.8-.4-.1-.1,2.4-1.9-2.4-1.2v3l-.9-1.2-1.6,3.4-.1-.1-1.1,2.2,2-.5ZM176,336.6l-.7-.2.4-1.1-1.4.2.9.9.1.3h-.6l.9,1.8,1-1.9H176Z" fill="#68322e"/>
      <path id="Path_15557" data-name="Path 15557" d="M177.8,345.5l-.5-.4.3-.1-.9-.9-.1,1.1.2-.1v.6Zm-10.5,6.4v2l1.6-.6Zm11.9-9.3-.1,1.1,1-.2Zm4.2-12-1.6,1.2-.3-.6-.4,1.1,1.1-.1-.2-.4,1.9.5Zm-.1-5.5-1.7,1.2,1.9.5Zm2.2-14.2-1.6.9,1.7.8-.1-1.7Zm1.4-3.8-1.5-.3.9,1.4Zm-4.1,13.8-1.7.1,1,1.8Zm1.9-11.5,1.9-.1-1.3-1.5-.6,1.6Zm-3,13.8-1.7,1.2,2,.5Zm-3.7,7.2-1.8,1,1.8.7Zm-22.2,40.4-1.1-.5v1Zm7.1-6-.7.9,1,.3-.3-1.2Zm-3.1,1.6.4,1.3.9-.7-1.3-.6Zm-2.4-6.8-.7.9,1.2.1Zm-5.3,17.5,1-.6-1-.5Z" fill="#68322e"/>
      <path id="Path_15558" data-name="Path 15558" d="M160.3,370.2l-.7.9,1,.2Zm22.3-54.7-.4.9h.9Zm-32.5,61.8,1.6-1.1-1.5-.9Zm3.6-10.5.9.5-.1-.5,1.1-1.3-1.7-.6.1.8-.7.5-.6-.9-1.7,2.6,3-.3-.3-.8Zm2.2-2.2-.4-.7.1-1-.6.2-.5-.8,3-.3-.2-.3.6.3-.3-1.1-.5.4-.9-1.5-3.4,5.2,3.1-.4Zm6.2-8.8-1.7-.3-.6-1.4,1.9.2-.1-.1,1.5.1-.9-1.9,1.4-.1-1.2-2.1h1.8l-.9-1.7-1.2,1.7h.1l-1.5,2.4,1.4-.1-.7,1.3-.8-1.1-.8,1.3-.1-.2-1,1.9h.9l.5,1.8L159,356l-.9,1.4-.3-.5-1.7,2.6,2.4-.2,1.1.6-.3-1.2-.3.2-.8-1.4,1.9.2.2.6,1.1-1.6-.2,2.5,2.6-1.6-2-1.3.3-.5Zm4.1-7.7.9.9.4-1.1-1.1.1.1-.1-2.6-.5.9,3,1.4-2.3Zm-17.4,28.2-.1-.2.3.1-.4-1.6-.3.3-.3-.9,2.2-.2-.4-.7,1.5.2-.9-1.3h.6l-.9-1.5-.8,1.3h.6l-.4.7-.6-1.1-1.7,2.6h.2l-1.3,2,2.7.3Zm.7,2.7-.3-1.4-.6.4v-1.3l-2.3.4,2.1,2.4-.6.3,2.5,1.9v-3l-.8.3Zm-.9-.3.7.3-.7.3v-.6Zm35.7-66.2-1,2.1,2.3-.4Zm.2,5,1.8-1.5-1.8-.9ZM160.6,375l-.7-.7-.3.8,1-.1ZM174,339.1l.4-1.1H173Zm4.8.7-.1,1.4,1.2-.3-1.1-1.1Zm.5-6-.1-1-1,.6Zm-7.9,6.1.7-.9-1-.2Zm6.8-15.8-1.7,2.7,3.1-.4-1.4-2.3ZM167.8,342l.7.1v.3l.3-.2.8.1-.3-.5h1.2l-.8-1.6,1-.1-.2,2.8,2.6-1.7-2-1.2h.2l-1.2-2.1h1.1l.1.4.4-.4h.2v-.1l.1-.1v.2l.6-.7.1-.1,1.1-1.6-1.5-.3h1.3l-.3-.5.3-.9,2.2,1.3.3-2.7-2.7,1-.6-.3.4,1.5-.6-1.1-1.1,1.6h-.1v.1l-.4.9.6.1.1.5-.7-.3-.1-.2-1.1,1.7-1.7,2.7,1.1-.1-.3.6-.7-.3v.4l-.6,1-.1-.5-1.4,2.2h1l.1.4-.6-.1-.1-.2-.1.1-.6-.1.2.7-.4.7.7.1v.1l-.7.4,1,.6.1.3.1-.2.6.3-.2-.9.3-.6.2.6.7-.9h.3l-.1-.3.9-1.3-1.6-.2-.1-1.4Zm-6.9,31.6,1.1.4-.1-1.1Zm-5.3-.9h0l.2-.4-.9-.1.1.3-1.3-.5v1.7l1.5-.8.1.3.3-.5Zm3.4,7.4,1-.1-.7-.7-.3.8Zm.4-9.2-.1-1.4-1.1.6,1.2.8Zm.6,7.1.9-.8-1.1-.3.2,1.1Zm6.2-7.4h1l-.6-1.1Zm5.1-2.2.3-.9-.8.1Zm-1.3,4.7.8-.2-.7-.4Zm5.8-3.2.7.3v-.8Zm-10.4,6.5,1-.1-.4-.7-.6.8Z" fill="#68322e"/>
    </g>
    <path id="Path_15559" data-name="Path 15559" d="M268.4,206.1l-2.9,33.8-28.4-33.7Z" fill="#260807"/>
    <path id="Path_15560" data-name="Path 15560" d="M323.1,421.2l-18.7-31.4,24-13.3L351.8,414l-28.7,7.2Z" fill="#ea9d7d"/>
    <path id="Path_15561" data-name="Path 15561" d="M318.3,413.5c-.2,0-.3,0-.4-.2L309.3,399a.447.447,0,1,1,.8-.4l8.6,14.3a.481.481,0,0,1-.2.6C318.3,413.4,318.3,413.5,318.3,413.5Z" fill="#cc7a5e"/>
    <path id="Path_15562" data-name="Path 15562" d="M326.9,404.7c10-4.7,13.7-8.5,13.7-8.5l-10-17L306,391.8l9,16.2s4.7.1,11.9-3.3Z" fill="url(#linear-gradient-4)"/>
    <path id="Path_15563" data-name="Path 15563" d="M315.5,410.7l28.1-15.8a2.441,2.441,0,0,1,3,.4l1.1,1s21,3.1,29.9,3.5c3,.1,6.9.2,7.9,2,.6,1.1,1,2.4,1.5,3.4a2.774,2.774,0,0,1-1.4,3.8l-58.8,25.8a3.635,3.635,0,0,1-4.5-1.3,48.782,48.782,0,0,1-4.9-10.5c-1.2-3.6-2.4-6.8-3.2-8.9A2.858,2.858,0,0,1,315.5,410.7Z" fill="url(#linear-gradient-5)"/>
    <path id="Path_15564" data-name="Path 15564" d="M326.9,434.7l58.9-25.9a2.746,2.746,0,0,0,1.4-3.8l-1.5-2.9-64.8,28.6,1.5,2.7a3.523,3.523,0,0,0,4.5,1.3Z" fill="#351412"/>
    <path id="Path_15565" data-name="Path 15565" d="M321.1,431.2l-.5-1.2,65-28.4.5,1.2Z" fill="#d3a094"/>
    <path id="Path_15566" data-name="Path 15566" d="M347.2,404a1.3,1.3,0,0,0,2.5.7l2.2-7.8v-.1l-2.7-.4-2,7.6Zm7,.5a1.334,1.334,0,1,0,2.6.6l1.6-7.5-2.6-.3-1.6,7.2Zm7.3,0a1.315,1.315,0,0,0,2.6.4l1-6.4-2.6-.4Z" fill="#4c2215"/>
    <g id="Group_1196" data-name="Group 1196">
      <path id="Path_15567" data-name="Path 15567" d="M351.9,406v.8l.9-.4Zm5.7.2-1.2.3.9,1.1.3-1.4Zm-13.2-9.1-1-.9-.5,1.6Zm2-1.2-1.4-.1.6,1.6Zm16,2.7-1.6-.1.5,1.7Z" fill="#c67463"/>
      <path id="Path_15568" data-name="Path 15568" d="M361.6,398.1h-1.3l.4,1.3Zm-21.7,1.1-1.3-.3.2,1.6,1.1-1.3Zm7.7-1.1-1.3.4,1,1.3.3-1.7Z" fill="#c67463"/>
      <path id="Path_15569" data-name="Path 15569" d="M348.8,397.7l-1.4.4,1,1.3.4-1.7Zm17.9,1.2-1.2.4.9,1,.3-1.4Zm-14.5-2.1-.4,1.4,1.6-.1ZM337,406.4l.4,1.4,1.3-1-1.7-.4Zm1.1-4.8-.4,1.5,1.5-.2Zm5.3-.8-.4,1.4,1.6-.1Zm10.9-3.5-.4,1.1,1.4-.1Zm-.6,3-.4,1.1,1.4-.1Z" fill="#c67463"/>
      <path id="Path_15570" data-name="Path 15570" d="M379.2,401.4l-.4,1.1,1.4-.1Zm-1.4-.8.4,1.1.9-1Zm-4.9-.7-.4,1.1,1.4-.1Zm.9,4.6-.7-.1.2.8.5-.7Zm.1-2.4-.7-.1.2.7Zm1.7,2-.1-.7-.7.4.8.3Zm2.4-2.4-.1-.7-.6.4.7.3Zm-24.9-4.2-1.1.3.9,1.1Zm-.5,3.5-1.3.4,1,1.3.3-1.7Zm19-1.2-1.2.3.9,1.1.3-1.4ZM355,411.1l-.3-.6-.4.6h.7Zm-3.4-11.3.7.7.3-1Z" fill="#c67463"/>
      <path id="Path_15571" data-name="Path 15571" d="M353.8,398.8l-.4.7.9.1-.5-.8Zm6.8,4.7-.8-.2.2,1,.6-.8Zm9.7-4.1-.3.8h1Zm5.8,1-.8-.1.2.9.6-.8Zm-5.2,5.6-.1-.8-.7.4.8.4Zm-29.2.9-.7.3.7.6Zm-.8,8.2-.5-.6-.4.8.9-.2Zm-.8-15.8-.5.9,1.1.1Zm1.5,0-.5.9,1.1.1Zm6-2.7-.8.3.6.7.2-1Zm-2.2.1-.8.2.6.8.2-1Zm-.2,8-.5-.7-.5.8,1-.1Zm-3.1-5.9V398l-.8.4Zm5.3,15,1-.2-.7-.9Zm-3-6,.4.7.5-.7Zm8.2,1.3-.6.5.8.4-.2-.9Zm-11.7-3.5,1-.2-.8-.9Zm-3.5.1.9-.3-.8-.9-.1,1.2Zm-.1-2.2,1.3.9.2-1.7-1.5.8Zm-7,1.6.8,1.7,1.3-1.5-2.1-.2Zm4.7,7.5-.6.4.8.4-.2-.8Zm-11.2.2.1-.9-.9.3Zm21.7-12.4-.5.1.3.5Zm4.9,5.2-.2-.6-.5.6Zm-3.2,2.6.4-.3-.6-.3.2.6Zm-.4-5.5.4.4.1-.6Zm10.6,6.1-.2-.6-.5.5Zm-3.3,2.5.4-.3-.5-.3.1.6Zm-.4-5.4.4.3.2-.6-.6.3Zm-7,2.2-.2-.6-.5.5Zm-3.2,2.6.4-.4-.5-.3.1.7Zm-.4-5.5.4.4.1-.6Zm26.5-3.8-.2-.5-.4.4Zm-2.8,2.1.3-.3-.4-.3.1.6Zm-.3-4.4.3.3.2-.5Zm-29,11.9-.4.3.5.3-.1-.6Zm-8.1,2.2.4-.9-1.1-.1Zm13.5-2.9.4-.9h-1.1Zm-1.1-7.3.1.9.8-.5Zm-20,15.1-.2-.9-.8.5Zm-6-2.7,1.4.3-.4-1.5Zm-1.2-1,1.4.2-.4-1.5Zm9.9-.4v.6l.6-.3-.6-.3Zm1.2,2,.5-1-1.2-.2Zm-7.1-2.2.9.3-.2-1.1-.7.8Zm24.1-13.9-.7.6.9.5-.2-1.1Zm4.5,3.6-.6-.4-.2.8.8-.4Zm-6.8,2.5.3-.7h-.8Z" fill="#c67463"/>
      <path id="Path_15572" data-name="Path 15572" d="M337.8,399.1l-.8.6,1,.5Zm5,4.1-.6-.5-.2,1,.8-.5Zm1.4-3.2,1-.2-.7-.9Zm1-3.6.4.8.6-.7-1-.1Zm8.3,1.6-.6.6.8.4-.2-1Zm1.4.5-.8.6,1,.5Zm5.1,4.1-.6-.5-.2.9.8-.4Zm-7.8,2.7.3-.8h-1Zm1-2.5v1l1-.5Zm6.3-1.7-.8.3.6.7.2-1Zm-2.5,7.8-.4-.7-.6.8,1-.1Zm7.8-5.2v.9l.9-.4Zm5.2-1.3-.7.1.5.6Zm-2.1,6.5-.3-.6-.5.6Zm-2.7-8.6-.2.7.9-.3-.7-.4Zm5.4-.4-.7.1.4.7.3-.8Zm-3.3,5.9-.3-.7-.5.6Zm-6.3-7-.8.6,1,.5Zm5.1,4.1-.7-.5-.2.9.9-.4Zm-7.8,2.6.3-.7h-1Zm-41.8,6.6.3,1.2,1.1-.9-1.4-.3Zm49.8-12.5-.2,2.2,2.3-.8-2.1-1.4Zm-25.1-3-1.8,1.3,2.1,1.2-.3-2.5Zm-12.7,7.1,1.8,1.2.5-2.4-2.3,1.2Z" fill="#c67463"/>
    </g>
    <path id="Path_15573" data-name="Path 15573" d="M339.6,385.6c-5.4-11.8-28.3-62.5-34.5-79.6-7.9-22-25.6-58.8-31.7-73.3-4.1-9.7-8.2-20.4-10.5-26.5H195.2a51.12,51.12,0,0,0,2.7,26.7c5.1,13,18.3,32.8,30.9,52.1l43.3,65.1,33,52.5a2.967,2.967,0,0,0,4,1.1l29.1-14.4a2.86,2.86,0,0,0,1.4-3.7Z" fill="#441b18"/>
    <path id="Path_15574" data-name="Path 15574" d="M311.5,400.8l.5.7.4-.6Z" fill="#ad5c49"/>
    <path id="Path_15575" data-name="Path 15575" d="M311.3,400.2c-.3-.6-30.3-54.2-41.4-74.3-9-16.3-21-33.5-39.3-59.3-7.3-10.4-17.2-26.4-22.6-43.8-3.3-10.5-3.4-16.4-3.4-16.6H206c0,.2.7,24,25.8,59.7,18.3,25.9,30.3,43.1,39.4,59.5l41.4,74.3Z" fill="#772e1f"/>
    <path id="Path_15576" data-name="Path 15576" d="M338.1,389.3a2.791,2.791,0,0,0,1.3-3.6l-22-50.1c-2.9-6.2-8.3-17.8-11.1-26.2-5.1-15.5-16.4-39.5-16.4-39.5s-10.5,21.4-9,35.7,27.2,98.3,27.2,98.3l30-14.6Z" fill="url(#linear-gradient-6)"/>
    <g id="Group_1197" data-name="Group 1197">
      <path id="Path_15577" data-name="Path 15577" d="M245.6,311.7c-.2-.2-16-23.1-28.1-41.9-12.8-19.9-19.2-32.6-19.3-32.8l.9-.4c.1.1,6.5,12.8,19.3,32.7,12.1,18.8,27.9,41.6,28.1,41.9Zm-52.8,49.1-1.1.4.7.8.4-1.2Zm3.6-2.7.2,1.7,1.3-.8-1.5-.9Zm-4.6,23,1.1-1.3-2-.5.3.7-1.6-.3.6,2h-1.5l1,2.3-1.8-.2.7,1.8L190,384h-.1l1.8-2.2h-1.4l.9-1.4Zm-6,7-.9-.7-.1-.3-.1.2-.6-.4.1,1-.4.5-.1-.6-2.1,2.3,1.6.4.3,1.4-.8-.2v-.5l-.6.4-.3-.1.1.1-1.2-.2.2-.9-2.7,1.4,1.8,1.5h-.2l1,2.2-1.2-.1V395l-.4.3H179v.1l-.4.3v-.6l-2.1,2.3,2.2.7v-.3l.1.4.7-1-.8-.2-.1-.6.9.5.1.2,1.2-1.6,2-2.5h-1.6l.4-.7,1,.6v-.1l.1.1,2.4-3-1-.1-.1-.5.6.2.1.2.1-.1.6.2-.1-.8.5-.7-.7-.1v-.1h.7Zm-5.7,5.2.3-1.6.5,1.6Zm4.4-16.4.1,2,1.6-.8-1.7-1.2Zm13.1-6.9-2,.8,1.8.9.2-1.7Zm3.6-8.9-1.6.6-.1-.3-.3.4h-.1l-.3.4.9.2-.1-.3,1.3.7.3-1.7Zm-7.4,11.4,1.5-.8-1.8-1.2.3,1.9-2,.8,1.8.9.2-1.6Zm16.7-22.9-1.4.5h-.5l.1.1-.2.1.3.2-1.1.4,1,.7.1-1,.2.1.2.3v-.1l1,.5.3-1.8Zm-14.8,19.8,1.5-.9-1.8-1.2ZM182,383.2l-1.6,1.2,1.6.9Zm-5.5,9.9-.1-2.1-1.6,1.2,1.7.9Zm8.6-19.9-1.5,1.2,1.7.8Zm4.2-.2-.2-2.1-1.5,1.3,1.7.8Zm13-10.5-1.3,1.1,1.4.6-.1-1.7Zm6.6-14.7.5.9.6-.7-1.1-.2Zm-13.2,16.7.2,2,1.6-.8Zm2.8,2.2-.1-.5-.3.3-.4-.2-.1,1.2.8-.4.2.1v-.1l.3-.1Zm1.8-1.4-.8.9,1,.3-.2-1.2Zm2-5.3-1.2-.1.7.9Zm-15.4,16.8-1.3.3.8,1Zm-5.5,12.8.4-1.3-1.3.3.9,1Zm7.9-14.1-1.3.4.8,1Zm5.4-.7-1-.7.2,1.2.1-.1.6,1.3-1.7-.4-1.3,1.4.5-2.4-2.7,1.3,1.9,1.5-.3.4,1.8.6.4,1.2,1.2-1.8-1.1-.2-.3-1.9.9,1.7.9-1.1.3.7,2-2.4-2.7-.1.3-.2Zm-7.3-6.8-.8.8,1.1.2Zm1.6,10.2-.6.5-.1-.2-1.2,1.8,1.9.2-.6-1.5.8.2-.2-1Zm-2.9,3.8-.6,1.1,1.5.1Zm-1.8,3.8h1.4l-.9-1.1Zm2.4,2.4,1.4-1.6-2.1-.2.7,1.8Zm-2-5.7-1.2,1.8,1.9.2Zm10.5-14.4-1.2,1.7,1.9.2-.7-1.9Z" fill="#260807"/>
      <path id="Path_15578" data-name="Path 15578" d="M202.8,360.5l-1.2,1.8,2,.2Zm5.2-8.3-1.2,1.7.1,1,.7-.4-.8-.5,1.9.2-.7-2Zm-36.5,33.3.3,1.1.8-.6Zm7,4.3-.4.9h1.2Zm13.7-24.4.7-.3-1.1-.5v1l-.2.3h.9l-.3-.5Zm-4.6.3-.6.1.4.6.2-.7Zm3.9,5.1.7-.3-.7-.4v.7Zm12.7-10.5-.3-.8-.6.7.9.1Zm-4.9.5.2-.7-.7.1Zm4,3.8h-1.1l.3.7-.4.3-.6-.8-.4,1.3-.2.7h1l-.4-.7h.2l1.3.6v-.3l.3.7,2-2.4-2-.1Zm5.6-10.2-.5.6h.7Zm-3.7.6-.6.1.4.5.2-.6Zm-23.5,24.2-1.2.2.9,1.2.3-1.4Zm-1.4,7.3v1l1.1-.4Zm8.5-4.9-.8.9,1,.3-.2-1.2Zm-14.1,14.7.7.2-.5,1h1.4l-.8-1-.1-.4.6.1-.7-1.9-1.2,1.8h.7l-.1.2Zm10.5-14.7.3-1.9-1.7.4ZM223,321.4l.2-.2h.4l-.1-.2.9-1-1.6-.7.1.8-.8,1.2.9-.1v.2Zm.7-12.5.2,2.1.3-.3,1,.1-.5-.7.5-.6Zm-51,81,.2-1.1-1,.1Zm1.8-2.1.8.9.2-1.1h-.2l.1-.6-1,.2.4.5Zm25.4-24.5-1.1.4,1,.7Zm-8,4.7-1-.4.2,1.2.8-.8Zm1.2-1.3,1.2.8-.2-1.4Zm3.5,7.1-1.1-.2.3,1Zm6.3-15.7V358l-.1.1-.6.2.3.2-.3.4,1,.2-.1-.3.1-.9-.3.2Zm-8.7,5.6.8-.9-1-.3.2,1.2Zm17.4-15-1.3.5.9.9.4-1.4Zm-1.1-17.2.8.8.3-1ZM201.9,358l.3-1.1-1.1.4Zm6,.5-.6-.9.3-.2-1.3-.8-.1,1.7.7-.4-.3.8,1.3-.2Zm-7.3-3-1-.4.1,1.2.9-.8Zm28-19,1.5-1.9-2.7-.6Zm-2.4,2.1-2.5-.2.8,2-2.6-.2.4,1.3-2,1,1.7,1.4.4-2,.3.9,1.9-2,1.7-1.9,1.6-1.8-2.7-.7,1,2.2Zm-6.2,5.1-.2-1.9-1.7,1,1.2.7-.2-.1,1,2.1-2.2-.6.4.9-1-.6.1,1.1.9-.5.6,1.3-3.1.3.9,1.4-2.1-.1,1.5,2.3,1.2-1.4v.1l2.1-2.6,1.3-1.5h-.1l1.3-1.6-1.9-.3Zm-5.6,7.7.9-.5-1.5-.9.1,1.5h-.4l-.6-1.8-1.3,1.2-.7-.4-.1,1.6H210l1.2,1.4h-.4l.1-.3-1.9.4,1.3,1.6-.7.7,2.3.3-.6-1.9.9,1.4,1.7-2.1h-.2l1.9-2.3-1.2.1Zm-3.8,3.6.3-1.3.4.7-.7.6Zm1.3-1.4.7-1.5-1.5.1,1-.7.7.1h-.4l1.1,2.1Zm23.6-43.2,1,1-1.1,1.7,2-.2-.7-1.3.7.6,1-2.9-2.9,1.1Zm-30,47.8-1.8.9,1.4,1.1.4-2Zm.4-1.9.8.2-.4-1.2-.3.5.1-.2-1.8.9,1.3,1.1.3-1.3Zm-.9,5.8-1.5-.3.7,1.4-.6-.1.8,1.5.9-1.2-.6-.1.4-.6.5,1.2,2-2.4-3-.1.4.7Zm-4.6,5.8-.8-.5v.4l-1.3,1.1,1.7.8v-.8l.8-.4.5,1.1,2-2.4-3-.1Zm-2.5,1.9.3.7-.2.9.6-.1.4.9-3-.1.2.3-.5-.3.2,1.1.6-.3.7,1.6,4-4.8-3.3.1Zm-12.2,15.9,2.6.8-.5-3.1-2.1,2.3Zm9.9-26.8h-1l.6.8Zm28.9-33.3-.7-1.6-.8,1.5Zm-15.3,21.2-.6.7h.9l-.3-.7Zm-5.1.6.4.6.2-.7-.6.1Zm10.1-5.8-.4.6h.7Z" fill="#260807"/>
      <path id="Path_15579" data-name="Path 15579" d="M210.5,342.2l-.6.1.4.6.2-.7Zm5.5-15-1.1.9,1.1.6Zm4.6-3.9.7-.8-1.1-.3.4,1.1Zm-9.5-2.2-.6,1.1,1.2-.2-.6-.9ZM209,332.7l-1.1-.3.2,1,.9-.7Zm5,1.2h.8l-.4-.9-.1.2L214,332l-1.1,1.1,1.4.2-.3.6Zm-3.3-7.4-1,.1.7.7.3-.8Zm.8,9.1v-1.4l-1.1.9Zm1.4,2.2v-1.4l-1.1.8Zm5.3-6.1-1.1-.3.4,1.1.7-.8ZM208,330.3l-.6,1.1,1.2-.2-.6-.9Zm-8.4,21.1.7.1-.1-.4.5-.3-1.1-.5v.8l-.2.2.2.1Zm3.4-5.9.4-.8h-1ZM240.4,311l.1-2-2.1,1.5,1.5.9-1,1.2.6-1.2-1.8.4,1,1.3.2-.3,2.2.1Zm.1,7.6.6-1.1-1.8.4.7.9.5,1.8-2-.5,1.4-.9-1.6-.9,1.4-.9-1.8-1,.1.8-1.8.4.9,1.3.8-1.7.1,1-.1-.1.2,1.9-.6-.1.1.3-.5.4.7.3v-.6l1.1,2.3,1.7-2-.2-.1,1.2-1.8-1.1-.1Zm-38.4-71.9,1.5-.9-1.6-.6Zm6.1,13.1v-1.7l-1.4,1Zm.9,2.3v-1.7l-1.3,1Zm-4.5-13.2-.8-2.6-1.5,2.2,2.3.4Zm-4.1,15.3-.9.3.6.6.3-.9Zm4-1.3.7-.3-.7-.5Zm-5.6-3.8-.6.5.8.2Zm4.3,14.6.3-1-.9.3.6.7Zm4.4-2.3.6-.3-.7-.5.1.8Zm-6.3-3.3.8.2-.1-.7Zm2.8,2.4.4-.9-1,.3Zm4.4-3.1v.8l.6-.3Zm-6.3-2.5.8.2-.2-.7Zm2.3-4,1.4-.7-1.5-1.1.1,1.8Zm5.6,2.4,1.4-.7-1.5-1.1.1,1.8Zm-9.1-4.4.8.2-.2-.7Zm6.8,4.7-.5-.8-.5.7,1,.1Z" fill="#260807"/>
      <path id="Path_15580" data-name="Path 15580" d="M205.7,253.1l-1.2.9,1.6.9v-1.8l1.1.1-1-2.3-1.1,2.2h.6Zm-3.2-9.3-1.3-.6.3,1.4,1-.8Zm3.6,7.1-.8-1.3-.7,1.2Zm-2.6-.2v-.8l-.7.4.7.4Zm-1.3,3.3.2-.8-.8.3Zm7.9,3.5-1.2-1.7-1.1,2.1Zm3.4,6.1-1.2,1.9,1.4.1-1,.1,1.2,1.9,1.3-2.3-.4.1-1.3-1.8Zm-1.2-2.5-.5,2.1,1.9-.4Zm-3-1,.8-.2.3.6.4-.6-.3-.1.7-.1-1.3-1.7-.6,2.1Zm6.8,8-.4.6-2.5.3,1.2,1.9.3-.5,2.1.2-1.3.1v-.2l-1.8,1.3,1.7,1,.1-1.9.9,1,.5-1.2h.3l.3,1.8.7-.5.4,2,1.6-1.1-1.8-.9.8-.6-1.3-.7-1.8-2.6.3-.1-1.3-1.6-.4,2,1.4-.3Zm-9.5-3.6,1-.3-.8-.6Zm-3.7-7,.8-.2-.7-.4Zm-2.3-2-.2,1.2,1.3-.4-1.1-.8Zm2.7,4.1.8-.2-.6-.5Zm1.8,5,.4-.4-.7-.2Zm23.3,32.9,1.3.7v-1.7Zm-1.7-3.9,1.3.7v-1.7Zm-3,7.1.7-.3-.7-.4v.7Zm-6.4-3.1.8.1-.2-.7Zm12.8,11.8-.7-.5v.8Zm-7-2.8.8.1-.2-.7Zm2.8,2.3.3-.9-.9.3.6.6Zm-2-5.5.8.1-.2-.7Zm2.2-4.1,1.4-.8-1.5-1Zm-3.5-1.8.8.1-.2-.7Zm6.3,3.6-.5.8h.4l-.3.2-.1-.1-.1.3-.8.6,1.3.7v-.9l.3-.1-.2-.2,1-.3-.8-.6-.2-.4Zm0,.8v0Zm-1.3-2.5-.2-.1v.2l-1,.2.7.9.4-.9.3,1,1-.8-1.2-.5Zm-1.4-7.2-.9.7,1.1.3-.2-1Zm9,13.3v-.8l1.6.9.1-2.6-2.1,1.5.2.1-.7.5ZM222.9,292l-.2.8.9-.2-.7-.6Zm4.9,2.5-.6.5.6.3-.3.1,1.1,1.4.8-1.9-1.6.4Zm-.7-7.7-1,1,1.2.4Z" fill="#260807"/>
      <path id="Path_15581" data-name="Path 15581" d="M227.2,290.2l.2-.8-.7.3Zm9.6,13.8.5,1.6,1.1-1-1-.4,2.7-.6-1.5-2.1-1.3,2.6Zm-4.1,1,.7.4v-.9Zm-.3-6.8-.8-.2.3.8.5-.6Zm-7.6-2.4v.2l.8-.2-.7-.5v.2l-.4-.2-.1.7Zm-2.7-.7.1.2.4-.4.6-.2L222,294l-.1.6v.1l-.1.6Zm2.8,2.6-.5.4.8.3v-.5l.5-.1-.7-.5-.1.4Zm1.6,4.6.3.6.4-.4Zm-7.2-6.2,1-.4-.9-.6Zm8.9,19.5.1.8.7-.3Zm-5.7-2.9-.7.6.8.1Zm9.5,1.5-1.5-1,.1,1.8Zm1.5-3.4-.2,1,.9-.2-.4.3,1.3.7v-.9l.7-.4-.7-.4-.1-.1v.2l-.6.5Zm5.9,2.9-.8.6.8.4Zm-1.1-7.5-1-.2.4.9.6-.7Zm-6.6,10.1.4-.9.3.9,1-.8-1.1-.4-.3-.1v.1l-1,.2.7,1Zm6.1-3.6v1.1l.9-.4Zm-7-4.8-.9.6,1,.3Zm3.3,5.6.8,1-1.6-.1.9,1.9-1.1.2.3.4-.4.6,1,.1-.2-.3.6-1.1.9-1.7h-.1l.7-1.4-1.8.4Zm.6,3,.9,1.3.8-1.7-1.7.4Zm2.9,2.4-1.8.4,1,1.4Zm.5-4.5-1.8.4,1,1.3.8-1.7Zm1.9-.6v1.1l.9-.3-.9-.8Zm-1.9,1.2v1.1l.9-.3-.9-.8Zm-5.2-6-.9.7,1,.3Zm4.1,4.9-.8-.2.4.7.4-.5Zm-7.6-.1.8-.2-.6-.4Zm-15.9-39,1.6-1.1-1.9-1,.3,2.1Zm-1.9-7.9v-.7l-.6.5.6.3.3,1.9,1.6-1.1-1.9-.9Zm1.4,11.3.4,2.1,1.6-1.1Zm4.3,3.9,1.6-1.1-1.9-1,.3,2.1Zm7.5,7.7,1.6-1.1v.1l.4-.6-.8-.2.3.7-2-1Z" fill="#260807"/>
      <path id="Path_15582" data-name="Path 15582" d="M231,295.9l.4,2.1,1.6-1.1Zm-14.7-20.4,1.6-1.1-1.9-1,.3,2.1Zm1.9-2.1-.6,2.7.8-.2-.6.4-.8-.3.4.9.2-.2,1.5.8.1-1.9.9-.2-1.9-2Zm7.3,8.2-1.4-2.4-1,2.5Zm1.3,2.6-1.4-2.4-.2.5-.3-.3-.2,1.2h.2l-.4,1.2,1.9-.1-1.9,1.3,1.5.9-.1.2h.3l.1.1v-.1h.7l.3,1.9,1.2-.9-1.1,2.1,2.5-.4-1.2-1.8.1-.1-1.6-.8.9-.1-1.3-2.4-.4,1,.1-1h.3ZM207,275.1l-.2-1.1-1,.8,1.2.3Zm7.3,7,1.5.3-.7-1.3Zm6.2-8.1-.5,2.6.7-.2.5.8.6-1,.6-.1-1.8-2,.4.1-.6-1.1-.7.9h.8Z" fill="#260807"/>
      <path id="Path_15583" data-name="Path 15583" d="M223.1,278.5l-.8-.7-.8-1.3-1,2.5,2-.1-1.1.8,2,1.1.1-2.6-.6.4-.1-.1h.3Zm-5.4,6.9-.4-1.4-1,.9Zm2.7-.9,1.4.6-.4-1.4ZM209.5,275l-.3,1,1.2-.2Z" fill="#260807"/>
      <path id="Path_15584" data-name="Path 15584" d="M219.5,285.8l.1-2.6-2.1,1.5Zm4.4,1.3.2-2.6L222,286l1.9,1.1Zm-.8-5-1.2,2.3,2.5-.4Zm-3.6-2.2.1-2.6-2.1,1.5ZM238.6,323l-1.4-2.3-1.7,2.7h.1l1.4,2.7,1.7-2.1-2.9-.6,2.8-.4Zm-3.7,1.2-1.2,2-.3-1.3-1.7,1.5,1.7.3-.1.1H233l1.6,2.6,1.5-2.2-2.6-.3,2.8-.4-1.4-2.3Zm-13.4,11.5-1.1,2.9,2.9-.9-1.8-2Zm-15.6-80,1.4-.2-1.6,1.2,1.6.9v-2.1l1-.2-1.3-1.9-1.1,2.3Zm4,15.2.1-2.2-1.8,1.2Zm.4-5.4.1-2.2-1.8,1.2Zm1.9.1.1-2.2-1.8,1.2Zm28.5,41.1.1-2.6-2.1,1.5Zm-29.1-23,.6-.7-1-.3Zm20.1,23.7,1.7-.4-1.4-1Zm-22.3-29.5v-1.5l-1.1.9Zm-2.3-11.4.8-1-1.4-.3.6,1.3Zm6.7,41.5-.9.3.6.7.3-1Zm-2.2-4.7.8.2-.1-.7ZM219,318l.4-.9-.6.2.1-.9-.9.6.6.4-.2.1.6.5Zm5-2.6-.7-.5v.8Zm-6.1-2.8-.2-.7-.6.6Zm2.3,1.3-.9.3.6.7.3-1Zm2.3-5.9-.2.8.9-.2-.7-.6Zm7.3-4.2-1.3,1,1.3.7Zm-16.2-2,1.1-.4-.9-.6-.2,1Zm4-4.8.5-.6-.9-.2.4.8Zm2.7-6.2.5-1.2-1.2.3.7.9Zm1.6-.7v1l.4-.2,1,1,.5-1.2h-.3l.2-.2-.9-.1.2.4h-.3l.1-.1-.9-.6Zm-3.7-2.3,1,.3-.1-.9Zm-1.5,1,.6-1.4-1.5.4Zm4.4,11.1.6-1.4-1.5.4Zm7,6.4.8,1,.6-1.4-1.4.4Zm3.7,1.7.9,1,.6-1.4Zm-6.1-12.6.6-1.4-1.4.4.8,1Zm-22.6-23.6,1.2.3-.2-1.1-1,.8ZM220,282.2l.5-1.2-1.5.1Zm-7.3-10.6.5-1.2-1.5.2Zm3.6,1.1,1,1.1.5-1.2Zm-6.2-11.4h1.5l-.6-1.2Zm3.2,15.5-1-.7v1.2l1-.5v.2l1.1-.6-.9-.7-.2,1.1Zm3.5.2-.2,1.3,1.1-.6-.9-.7Zm-4.7-4.5-.2,1.3,1.1-.6-.9-.7Zm-2.3-5.3,1.1-.6-.9-.7-.2,1.3Zm3.1,19.5,1.2.5-.3-1.2ZM235,319.5l.2,1.8,1.3-.8ZM224.3,326l-.7.7,1,.2-.3-.9Zm1-.3.6.9.6-1.1-1.2.2Zm6.5-2.2-.1,1,.9-.3-.8-.7Zm-3.7-.4h0l-.3-.1v.2l-1,.2.7.9.4-.9.3.9.9-.8-1-.4Zm-1.6-.1,1.3-.8-.8-.6.6-.5-.9-.4.2.9-.6-.4Zm-.8-6.4,1,.3-.1-1Zm3,2.4-.8-.3.2.8Zm-16.3,27.2-.9.8,1,.4-.1-1.2Zm3.7-3.8.6-.7-1-.1.4.8Zm-8.4-1.1-.4.9,1-.2-.6-.7Zm-.1-33.1.5-.9-1,.1Zm-.3-5.7v-.7l-.7.4.7.3Zm25.1,9-.8-.8h.7l-.7-1-.3.6-.3-.2.1-.3-1.1.4.8.8-.1,1.1,1.7-.6Zm-2.5,10.7.6,2.1,1.5-1.2Zm1.9,7.6-.4-.3.1.7v.3l.4-.2h1.7l-.8-1.8Zm-2.6,4.4,1.9-1.2-1.7-1.1-.2,2.3Zm2.2-5.2-1.9.2.9,1.3-.3-.1,1.2,2.8,1.8-2-2.2-.6.5-1.6Zm-3.8,3.7.9,1.4.7-2.1-1.4.2v-.1l-1.9.2.2.3-.7.3.8.8.2-.7.8,1.1.4-1.4Zm3.5-7.5-1.3-.1.5-1-1.3.3.3.4-.1.2-.2.3h.4l.8,1.6.9-1.7Z" fill="#260807"/>
      <path id="Path_15585" data-name="Path 15585" d="M227.4,327.8l1.3,1.8.7-2.1-2,.3Zm-1.6.1-1.7,1.4,2.1.5-.4-1.9Zm-6.2,1.7-1.6.9,1.6.7Zm2.4,4.8,1.3,1.9.7-2.1Zm1.8-1.9-.2-.3-.2.3-.6,1.2,1.3-.2.5.8v.8l.8-.4-.7-.5.6-1.9-1.5.2Zm1.9,3.2,1.1.3-.4-2.2-1.4,1.5-1.1-.3.3,2.2,1.5-1.5Zm-4.6,3.8-1.7,1,1.9,1.1Zm-11.9,16-1.5.3,1.1,1.3.4-1.6Zm.7-3.6-.9.2-.4-.2v.3h-.2l.1.1v.1h.1l.9,1.1.4-1.6Zm4-3.9,1.5-.3-.9-1.2-.7,1.3-1.8.4,1.5,1.7Zm13.2-23.6.2,1.7h-.1l-.2-.4-.8.8,1.2.3-.1-.2,1.5-1.4-1.7-.8ZM209.8,357l-1.6.3,1.3,1.6h-.7l-.5-.3v.3l-1.6-.1.5,1.1-.8-.5.2,1.7.9-.5.3.8,2-2.4h-.1l.3-1.3.2.7,1.2-1.8-1.9-.3.3.7Zm-32.1,38-.9-1.1-.6,1.1Zm-.9,3.7-.4.8-2-1.6-.6,2.6,2.7-.7.6.4-.2-1.2.4,1,1.4-1.6-2.1-.2.2.5Zm39.9-56.8-.4,2.1-1.7-.2.9,1.5h-.1l-1-.6-.1,1.4-.5-.3-.1.6.6-.2v.3l.9-.6,1.1,1.3.4-2.1-1.2.2.8-1.2.7-.3.8.3v-.7l.5-.2-1.6-1.3Zm1.6-3-1.7,1.5,2.2.3Z" fill="#260807"/>
      <path id="Path_15586" data-name="Path 15586" d="M229.8,319.4l-1.6,1.6,2.1.3Zm-7.7,10-.8,1.1-.4-.4-.9,2.4-.1.1h-.1v.1l-1.5,1.5v-.8l-1.6.8,1.6.7V334l2.1.3-.4-1.5.3.5.5-.8,1.8-.6-1.3-1.4h1.3l-.5-1.1Zm-6,.6.1.2.3.5.7-1.1h-.4l.1-.1-1.2-.3.1.3h-.1l.4.5Zm2.4-.3.5-.8-.6-.1-.5-1.9-1.7,1.5,2.1.4h-.4l.6.9Zm14.7-12-2.5-.2.2-.1-.9-.6.1.6h-.3l.7,1,1.2,1.7,1.2-2-.1.3.3-.1,1.1,1.7-1.5.3,1,1.4.1-.2.7-.3-.4-.3.4-.8,1.5-2.4Zm-17.8,16.4-1.1-.1.6.9Zm18.3-9.3.7-1.2v.2l1.3-.8-1.5-.9.1.8-1.5-.1ZM230.5,300l.1-.2.1.4-.2-.2-.6,1.7,1.5-.2.4,1.6,2-1.6-2.7-1.2.2-.2-.8-.3.7-1.7-1.9.5,1.2,1.4Zm.7.7-.3-.3.2-.1Zm-9.1-11.9.8-1.9-1.9.5,1.1,1.4Zm-.5-5.6.6-1.3,1.2-.8-2-1,.3,1.5-1.2.3,1.1,1.3Zm12.8,24.5.8-1.9-1.9.5,1.1,1.4Zm-4.3-3.2,2-.3-1.5-1.3-.5,1.6Zm11.1,3.5-.6,1.7,1.3-.2-.2.5,2.8-.6-1.5-2.1-.8,1.7Z" fill="#260807"/>
      <path id="Path_15587" data-name="Path 15587" d="M238.8,306.4l.5,1.9-1.3-1-.3,1.5,1.7-.4.2.9,2-1.6-.2-.1,1.5-.5-1.5-2.2-.5,2.5-2.1-1Zm5,8.6,1.3-2.2-2.6-.2.7-1.1,1.5.9.2-2.6-1.1.8-2.9-.2,1.6,2.2h-.2l.3.4-2.1-.2,1.2,1.9-.6.1,1.5,2-.8-.1-.9-1.5-1.2,1.8,1.1-.1,1,1.6,1-1.7h-.2l1.1-2,.1.2Zm-2.2-.3.9-1.6.9,1.2-1.8.4Zm-14.1-25,.6,1.9,1.4-.8-.5.9.4-.1.6,2.1-.8-.3.8,2.8,1.9-1.5.1.6.8-.5-1.2,1,1.9.9-.4-.1.3.6-.1,1,.6-.2-.2.4-1.8,1.3,1.9,1.1.1-2.2.8-.2.3,1.1-.9-.3.5,1.6.6-.5.1.2,1.7-1.3-1.3,2.6h.2l-.6.5v-.6l-2.1,1.5,1.9,1.1.1-1.8,1.2.6v-1.4l2.1-.4-1.5-2,.2-.2-1.7-.8.8-.2-1.5-2.1-.9,1.7-.4-.4.5-.5-.4-.1-.1-2.7-.1.1-1.8-.9.5-.4-1.7-.8.7-.6.4-.1-1.3-1.9-.5.9-2.2-.6Zm4.3,4.8-1.1-.5.2-.4.6-.5Zm-1.5-2.7-.7-.3.6-.1.1.4Zm-9.6,33.4-.5-1.1-.7.8.4.1-.8.3.8.8.3-1,.5.1Zm-4.9-5.7-.2-.3-.6.9,1.2.1h.3l-.2-.7h.5l-.7-.7Zm.2.2-.1-.2h.3Zm1,5.4.2.8.6-.5ZM213,314l1.2-.2-.9-.8Zm4.5-5.3.3.9.3-.3.6.1-.2-.7-.3.3-.7-.3ZM207,319.6l.5-.9-1,.1Zm5.6-1.9-.6-.6v.2l-.1-.4-.7.7.8.1v.2l.6-.2Zm7,19.1-1.1.3.7.8.4-1.1Zm-1.7-5.6-.1-.6.3-1-1.1.4.5.4-.5.4.9.4Zm4-6.4-.4,1,1.2-.1Zm-10,5.1.7-2-1.9.6Zm2.6-7.5h.2l-.1-.2.9-1.5-1.2-.2-.4-.1.1.3-1.4,1.2,1.9.5Zm1.4,2.4-.5,1.6,1.5-.2Zm-5.9,6.6-.9,1.1,1.2.3Zm4.2-5.7-1.2-.1.7,1Zm4.3-9.3.6-.5-.8-.3Zm-6.3-2.4-.5.7h.8Zm-2.2,5-.8.5.7.5Zm3.6-2.2.6-.4-.8-.3.2.7Zm-6-1.9-.3-.7-.6.7h.9Zm16,12.2-.9-.5.1,1,.8-.5Zm-8-3.7-.7.7,1,.1-.3-.8Zm7.9-.8.1,1,.8-.5-.9-.5Zm-4.1-.5-1.7-.7.5,1.7Zm.6,4.6-.1-.2.1-.1h-.1l-.5-.7-.5.8h-.3l.2-.8-1.1.4.5.4H218l.9,1.6.9-1.5h.2v.1Zm-5.7,1.9-.9,1.3,1.5-.1-.6-1.2Zm-2-3-.5.9,1.2.1Zm-2.1,1.8-.8-.1.4.7.4-.6Zm-.5,16.4-1.1.4.8.8.3-1.2Z" fill="#260807"/>
      <path id="Path_15588" data-name="Path 15588" d="M215.4,341.5l-.9-.6.1,1,.8-.4Zm-7.9-4-.8.7,1,.2-.2-.9ZM214,327l1.2-.4-1-.7Zm7.2-7.6-1.9.6,1.2,1.4Zm3.3-3.2-.5,1.6,1.5-.2Zm-6.7,6.2-.3-1.4-.9,1.1Zm2.7-7.1.7.9.6-.9Zm-9.3,1.9,1.1-.5-.8-.7Zm12.4-7.1-.9.5.7.4Zm4.1-2.7-.8-.3.2.8Zm-6.9-1.9-.5.7h.8Zm-2.3,5.9.1-1-.8.5Zm4.3-3.6-.8-.3.2.8Zm-6.5-1.5-.3-.7-.5.7Zm6.5,7.3-.7.7,1,.1-.3-.8Zm4.6,3.5-1.1.4.8.8.3-1.2Zm5.6-2.6-.9-.6.1,1,.8-.4Zm-8.1-3.7-.7.7.4.1.5.5.3-.9-.4.1-.1-.5Zm1.8,2.2-.2-.3-.1.2-.7,1.1h.5l.2,1.7,1.4-.8-.7-.4,1-.9-1.4-.6Zm-.4,1h.4l.1.3Zm1.7,3.1-.6.9,1.3.1Zm-1.4,1.3-1.1,1-.1-.5-.8.6.6.2-.3.2.4.1-1.1.4.8.7.3-1.2,1.7.3-.4-1.8Zm-5.6-1.3-.5.9,1.2.1Zm-5.3-3.5,1-.3-.8-.6Zm10.2,8.8-.8-.6.1,1Zm-7.7-3.4.2.4.4-.6-.8-.1-.1-.3-.8.7,1,.1.1-.2Zm6.5-6.7.2-.1-.1-.1V312h-.1l-.5-.3v.5l-.2.1.1-.2-1.7-.3.7,2,.3-.6.7.8.6-1.7Zm2.6-7.5v-.1l-.1.1-.9-.2.3-.3-.8-.2.3.7.2.7v.4h.1l.1.6.2-.1v.2l.2-.3.3-.2-.2-.1v-.1h.7l-.3-.7.2-.3Zm.8,4.1-.5,1.6,1.5-.2Zm-7,4.8-.9,1.1,1.2.3Zm3.7-4.8.5-.9-1.2-.1Zm-9.9.4-.3-.1.2.7v.2l.2-.2.8-.3-.8-.7-.1.4Zm12.2-5.5.1-1-.8.5Zm-3.2-4.9h.8l-.3-.7Zm1.9,2,.6-.4-.8-.3.2.7Zm-6.1-1.9.5.1-.3-.9-.3.3-.1-.2-.5.7h.7Zm10.6,14.8-1.1.4.8.8.3-1.2Zm-2.5-6.2-.7.7,1,.1-.3-.8Zm8-.9.1.6-.7.4.7.4-1.4.3.8,1,.6-1.4,1.2.7.2-2.6-1,.7-.5-.1Zm-8-2.4,1,.1-.2-.9Zm2.7,3,1.2-1-1.3-.5-.1-.1-.3-.1.5,1.7Zm-.3,3.8-1.7,1.5,2.1.4-.4-1.9Zm-10.9-4.8,1-.3-.8-.6Zm3.2,5.3-.8-.1-.1-.3-.7.7,1,.2-.1-.3.2.4.5-.6Zm1,7.1.1-.2.3.3.3-.9-.5.2.1-.5-.6.2-.5-.3-.2,1,.5-.1.5.3Zm5.3-3.1.8-.4-.9-.6.1,1Zm-1.4-4.8v-.2l-.1.1-.9-.6-.2,1.1.8-.2-.3.2.7.3v-.7ZM204,350.3l-1.2,1.6,1.8.5Zm-.7-21.8.6-1,.8-.3-.8-.7-.1.3-1.2-.2.7,1.9Zm3.5,5.6-1-1.4-.5,1.6Zm-4.9,19.6-.1,1.4,1.1-.4Zm.2-7-1,.6,1.1.4Zm-7.6,7.5.6-1-1-.1Zm8.5-28.9.7.4.1-1Zm-1.7-4.6-.3-.7-.5.7Zm-2.5,4.4-.9.5.7.5Zm3.7-2.2.6-.4-.8-.3.2.7Z" fill="#260807"/>
      <path id="Path_15589" data-name="Path 15589" d="M196.2,320.3l-.5.7h.8Zm13.7,29.5-.4-1.2-.7,1,1.1.2Zm2.7-6.5-1,.1.7.7.3-.8Zm-8.9,2.6.9-.4-.7-.6Zm5.1-12.4-1.1.5.8.8Zm5.6-2.5-.9-.6.1,1,.8-.4Zm-8.1-3.8-.7.7,1,.1-.3-.8Zm.8,2.1,1.2-1-.7-.3.3-1-1.1.4.4.4-.6-.3.2.5-.6,1.1.8-.1.1.3Zm2.9,5.3-.7-1-.6.9Zm-2.1.2-1.7,1.5,2.1.4-.4-1.9Zm9.1,1.1-1.7,1.5,2.1.4-.4-1.9Zm-1,5.2.4-2.1-1.9.4Zm-7.1-.7.9,1,.3-1.3Zm4.7-.1-1.7.4,1.3,1.6Zm6.8-5.4-1.7.4,1.3,1.6Zm-8.7,9.2-1.7,1.5,2.1.4-.4-1.9Z" fill="#260807"/>
      <path id="Path_15590" data-name="Path 15590" d="M206.4,350.2l.2-.7-.8.4-.9.4.9.8v.3l.2-.2.2.2.1-.4.7-.6-.6-.2Zm-4.1-16.7-.5.9,1.2.1Zm-6.4-5.3,1-.3-.8-.6Zm3.5,7,.4.7.4-.6-.8-.1Zm1.2,17.2.9-.4-.7-.6Zm3.5-18.5-.2,1,1.2-.3Zm2.9-11.8,1.2,1.4.7-2-.9.3-.7-.5-.1.4v.3l-.2.1Zm3.8-6.1,1-1.7-1.7-.3Zm1.3,2.4-.5,1.6,1.5-.2Zm-6.6,6.1-.3-1.4-.9,1.1Zm3.9-7.1h-1.2l.7.9Zm-9.5,1.4-.8-.7-.3,1.2Zm11.2-5.5.1-1-.8.5Zm-2.3-5.1-.3-.7-.5.7Zm-2.7,5.3.8.3v-.7l-.8.4.2-1-.9.5.7.5Zm3.8-3.1.6-.4-.8-.3.2.7Zm-6.3-2.6-.5.7h.8Zm10.7,15.4-1.1.4.8.7Zm4.7-3,.1,1,.7-.4Zm-4.2.2.3-1.2-.2.1.1-.6-.8.5.3.2-.5.2.8.8Zm5-4.3.1,1,.8-.5-.9-.5Zm-7.9-2.5,1,.1-.2-.9ZM214,315l.5,1.7,1.2-1Zm-3.4,7.1-.9,1.3,1.5-.1-.6-1.2Zm-2-2.9-.6.9,1.2.1-.6-1Zm-5.2-3.5,1-.3-.8-.6Zm3.1,5.3-.8-.1-.1-.3-.8.7,1,.2-.1-.3.2.4.6-.6Zm6.3,4,.8-.4-.9-.6.1,1Zm-19.9,35.8,1.1-.6-1.1-.5Zm2.9-6.8.6.8.4-.8Zm4.2-22.1,1-1.7-1.7-.3Zm-4.7,31.2-.1,1.4,1.1-.4Z" fill="#260807"/>
      <path id="Path_15591" data-name="Path 15591" d="M194.5,356.7l1.1.4-.1-1Zm-6.6,6.9.6-1-1-.1Zm18-10.6.5.1-.2-1-.5.6-.7.1.7.7.2-.5Zm-8.7,1.2-.2,1,.9-.4Zm4,0-.7,1,1.1.2-.4-1.2Zm3.1-5.3h-1l.7.8Zm-8.9,2.6.9-.4-.7-.6Zm-5-6.3-1,.1.7.7.3-.8Zm10.2,3.4-.9,1.1,1.2.3Zm3-5.7.7.9.5-.9Zm-9.1.7-.3,1.2.7-.3.5.3.1-1-.5.3Zm4.6-2.1.6-.5-.8-.3Zm-6-1.7-.3-.7-.2.3-.6-.4-.3,1.1.9-.3h.5Zm-2.6,4.3-.8.5.7.5Zm4.2-2.6-.8-.3.2.8Zm-6.8-2.1-.5.7h.8Zm-.2,7.9,1-.3-.8-.6ZM198,344l-.9,1.1,1.2.3Zm3.7-4.8.5-.9-1.2-.1Zm-3.4-6.6-1.1.4.8.8.3-1.2Zm5.7-2.3-.8-.5.1,1Zm-8-4-.8.7,1,.2-.2-.9Zm14.2-5.7,1.2-.4-1-.7Zm5.3-11.8.7-2-1.9.6Zm2.6-7.5,1-1.7-1.7-.3Zm1.3,2.6v-.5l-.7.7.6.3-.3,1,1.5-.2-1-1.4Zm-7.8,5.6,1.2.3-.3-1.4Zm4.6-5.9.5-.9-1.2-.1Zm-10.1,1,1.1-.4-.8-.7Zm12.4-6,.1-1-.8.5Zm-3.2-5h.9l-.3-.7-.6.7Zm-1.7,4.3-.9.5.7.5Zm3.7-2.2.6-.4-.8-.3.2.7Zm-6.9-1.9h.8l-.3-.7Zm11.3,14.8-.8.3.3-.4-.7-.2.3.6-.3.1.8.8.4-1.2Zm-2.5-6.3-.1.1-.3.1.1.1-.4.4.8.1h.1l-.1-.2.3-.8-.4.2Zm3.2,2.2-1.1.4.8.8.3-1.2Zm4.8-3,.1,1,.8-.5-.9-.5Zm-5.5.1-.4-.2.2,2.1-.2.1.7.5.1-1-.6.4,1.3-1.5-.7-.3.9-.8-1.7-.7Zm.7,3.9,1.2.1-.7-1Zm-.8.3-1.7,1.5,2.1.4-.4-1.9Zm-3.1,2.9-.6-1.2-.9,1.3,1.5-.1Zm-1.8-3.2-.7-1-.5.9Zm-6-4.5.9-.3-.8-.6-.1.9Zm4.2,12.5.4-1.2-1.1.4.7.8Zm5.2-4.1.1,1,.8-.4-.9-.6Zm-6.8-2.6-.1-.3.2.4.4-.6-.8-.1-.1-.3-.1.1-.4-.4v.9l-.1.1,1,.2Zm4.5-1.9-.2,1.1.2-.1v.8l.7-.3-.6-.4.9-.3-1-.8Zm3.7,22.7-.2,1,1.2-.3Zm2.5,2.8,1.2-.3-1-.7Zm7.2-10-.6,1.2,1.6-.1ZM228.1,331v-1h.3l-.9-1.8-1.3,1.8,1.8-.1-.8.6Zm59.5-35.6-.2,1.1,1-.3-.8-.8Zm.9-5.3-1.6.9,1.6.7Zm10.8,19.3-2,.8,1.9.9.1-1.7Zm-1-13.7-.3,2.1,1.7-1.1-1.4-1Zm-6.1-7.5-.2,1.6-.2-.1.2.5v.1l.2.4.6-.7-.3-.1,1.2-.8-1.5-.9Zm6,14,1.7-1.1-1.3-.9v-1.7l-1.9,1,1.8.7-.3,2Zm-12.4-26.7.6-.1-.1-.1,1.1-.7-1.4-1-.2,1.4-.3.6h.2v.1l.1-.2Zm11,19.7-1.9.9,1.9.8v-1.7ZM289.4,270l-1.5.8,1.5.7-.6,1.6h.3l-.7,1.3-.1-1.2.9-1.2-2-.4.4,1.7-.7.4,1.4.9-.3.4,1.8-.3-.2.4-.2-.2-.6,1.9,2-.4.3,1,1.4-1.8-1.9-.4,1.7-.1-.9-2.1h.1l-1.4-3-.6,1.6V270h-.1Zm1.2,6.1-1-.9.8-.1Zm.2-3.2-.8,1.4-.9-1.2,1.7-.2Zm10.8,42.6.2,1.9,1.6-.9-1.8-1Zm-6.3-5.5,1.5-1-1.9-.9Zm-21.2-48.9v-.2l-.1.1h-.1v.1l-.7.5.8.4.1.9,1.6-.9-1.6-.9Zm20.8,42.3.4,1.9,1.5-1Zm-.9-15.6.3,1.7,1.2-.9-1.5-.8ZM284.5,274l-.3-.8-.6.7v-.3l-.2.1.1-.1-.8-.1.2.3-1,.3,1.6,1.6.2-1.7h.8Zm10,19.6-1.9,1,1.9.8Zm-13.6,1.2.6-.8-.8-.2.2,1Zm15.3-.4v-.9l.1-.1h-.1V293l-.4.3-.5-.1.2.4-.4.3,1.1.5Zm-.7-3.4.4,1.1.8-.8-1.2-.3Zm-3.6-4.4-.7,1,1.2-.1Zm7.4,22.6-.9-1.1-.3,1.3,1.2-.2Zm5.9,10.3,1.3-.3-.9-1Zm-6.7-14.1-.3,1.3,1.2-.2-.9-1.1ZM300,301l1.1.4v-.3l1.6.1-1.3,1.4-.6-.2.6,1.9-1.9-1.6-.2,3,2.2-.9.2.5,1.2-1.1,1.5.3-1.3,1.4h.1l-.9,1.1,2,.4-.7,1.2,2.5.3-1.1,1.5,1.9.3-.7-2v.1l-1.1-2.7-.7,1.2-.7-1.3,1.4.1-.6-1.5h.2l-1-2-.6.7-1.8-.6h1.9l-.6-1.5h.6l-1.1-2.9-1.2,2Zm-8.8,2.6.3,1.1.8-.9-1.1-.2Zm12.1,8.8.8-1.2-1.5.2Zm2.4,1.2-1.4.2.7,1,.7-1.2Zm-4.5-5.8.6-.6-1-.3.1.8h-.2l.9,1.9,1.2-1.6-1.6-.2Zm3.2,5.4-2.1-.3.9,1.9Zm-6.9-16.1-2.1-.3.9,1.9Zm-4-8.8,1.1-1.6-2.1-.3Zm-5.4-8.9,1.1-1.6-2.1-.3Zm17.7,43.2.6-1-1.2.2Zm-16.2-20.4-.3.6h.8Zm6.5-1.6-.7.4.6.3.1-.7Zm-3.6-14.8.4-.7-.8-.1.4.8Zm-2.2,4,.8-.1-.6-.5-.2.6Zm6.1-1.8-.6.9.8.1.1.6-1,.1,1,1,.4.6.5-.9h-.8l.1-.2,1.1-.8-.3-.1.8.1-1.1-2.9-1,1.5Zm-6.6-9.5.4-.7-.7-.1.3.8Zm-1.6,2.8-.2.5.7-.1Zm4.7-1,.4.3.1-.6-.5.3Zm-9.3,40,.7.1-.2-.7Zm2.2-6.3.2-.6-.8.1.6.5Zm12.2-.2-.4,1.1,1.5-.2Z" fill="#260807"/>
      <path id="Path_15592" data-name="Path 15592" d="M304.5,319.1l.2-1.2-1,.6Zm-1-10.3.3,1.1.4-.3.5,1,1-1.3-1.2.1h.1l-1.1-.6Zm-3.3,1.9-.5,1.6,2-.4Zm-6.7-20.4-.2,1.1,1-.6Zm-.6,10,1.1.4-.3-1.1-.8.7Zm.3-2.3,1.3-.7-1.3-.4Zm7.1,1.2,1.1.2-.3-1.1-.8.9Zm-9-13.8-.8-.7-.1.6-.4-.1.3.6v.1h.1l.2.4.7-.8v-.1ZM290,295l1.1.4-.3-1.1-.8.7Zm-4.4-22.9-.2,1.4,1.2-.3Zm-7.4-.1.7-.9-1-.2.2.9-.8.2.6.8.3-.9v.1Zm10.5,13.2-.2,1.1,1-.3-.8-.8Zm.6-5.9-.9.5.5.2h-.1l.6,1.1.7-.8-.7-.1-.1-.9Zm-7,4.9V283l-.9.8.9.5.2.8.6-.8-.8-.1Zm10.5-3.7-1.3.2v-.3l-1.3.7,1.5.9-.1-1.3.9.9.3-1.1Zm-6.8-4.4-.1,1.2,1-.6Zm1.2,10.6-.4-1.1-.3.3.7-.8-1.2-.2.6,1.1-.4.4,1,.3Zm-2.92-22.9h1.6l-1.2,1.1,1,.1-.9.4,1,.5V265l1.5.2-1.3,2.9,1.8-.1-1.1,1.8,2.7-.2-1-2.6v.1l-.9-2.3-.1.3-.4-1.5h.1l-.2-.4-.1-.4-.7-1.5Zm-.88,6.6.4-1.1-1.4.1.1.2h-.2l-.8-.7-.2-.2v.1h-.1v.2l-.3.7.3-.1-.1,2.2,2.5-1-.2-.4Zm-.6-.6.4.5Zm2.2,8.3-.2-.9-.5.3-.6-.5v1.9l1.1-.5.3.1-.1-.2.2-.1-.2-.1Zm6.4,6.8,1.6-.6-1.5-1.3Zm-2.3-4-.1,1.9,1.6-.6Zm5.9,4.4-1.1,1.1,1.6.1-.3.4,1.7.1-.6-1.4-.4.5-.3-.7,1.3.1-1.42-2.63-1.28,2.33Zm2.6,7-.7.3.4.2.3,1.7,1.5-1.1-.7-.3v-.7l1.3.1-1.1-2.9-1.6,2.6.6.1Zm.7,2.9.8.1.7.7.2-.6.9.1-1.5,2.6h.3l-.5.3,1.1.4v-.7l1.7.2-2.2-5.8-1.5,2.7Zm-4.7-13.3-1,.6,1.5.7v-1.1l1.2.1-1.1-2.9-1.6,2.6h1Zm15.5,40.7-.1.2h.1l-.6.2,2,2.4.5-2.4.8.1-1.2-3-.6,1-.3-.6.7-.4-.4-.2v-.1l.2.1-.4-1.1.2.1-.9-2.4-.6.8-.4-.2.4-.4h.2l-.1-.1.4-.4-.7-.3-.3-.8-.4.5-.1-.1v-.8l-.7.3-.5-.3v.4h-.1l.1.2-.7.3.6.3-.1.6.4,1.1-.1.1h.1l.6,1.6,1.1-1.1.5.2-.7.8.6.2-.5.6h.6v.1l-1.4.4-.2-.1v.2H307l.1.1-.2,2.8,2.2-.9Zm-2.6-6.2.1.3-.4-.1.3-.2Zm2.3,4.9.9.2-.5.8-.6-.5Zm-18.1-23.2.8.5.1.3.5-.8h-.5v-.7Zm-3.1-6.2-.5.9,1-.2-.5-.7Zm-19-65.4-1.6.6,1.5.9Zm10.9,43.4-.2.5h.7Zm-8.8-33.7.6-1.1h-1.4Z" fill="#260807"/>
      <path id="Path_15593" data-name="Path 15593" d="M265.4,229.6l-.3,1.1,1.1-.4-.8-.7Zm-.9,9.6-.9.6,1.1.6-.2-1.2Zm10.3-1.7-.9.4.7.4-.3,1.1,1.9-.4-1.4-1.2v-.3Zm-7.5,4.9.7-.7-.8-.3.1,1Zm19.6,36.5-1-.2.4.9.6-.7Zm-9.3-.2,1-.2-.5-.7-.5.9Zm0-19.6-2.2,1.5,2.8,1.5-.6-3Zm-.2-9.6-.8.6,1,.3-.2-.9Zm-4.7.9-.8,1.2,1.5-.2Zm-1.5,1-1.3,1.3,1.8.2Zm4.4,0-.1-1-.7.7.8.3Zm-3.9-4.9-.3.8.8-.2ZM285,270.7l-1.1-.5.3,1.2.8-.7Zm-3.7-5.6h.4l-.1,1.1.9-.6-.8-.4h.6l-.4-.8-.6.7Zm-8.2,6.3-.9-.4.2,1,.7-.6Zm-.3-23.8-1.2,1.9,2.2-.2Zm3.1.8.8-2-2,.1Zm2.1-.1,1.1,1.9.8-2Zm2,4.4,2,1-.4-2.1Z" fill="#260807"/>
      <path id="Path_15594" data-name="Path 15594" d="M277.68,250.12l-.4,1.9,1.3-.3,3,.1-1-2.6-1.5,1.9-1.4-1Zm2.1,4.78,1.6-.4-1.7-1.3-.3,1.4-.1-.1-.4,1.9.8-.2,1.2,1.6-.5.9-.8-.3v1.9l.3-.1v1h.1l1.5,1.5-.8.1.9,1.5.6-1.6h-.7l.2-2.1-1.4.4.5-.3-.7-.4,1.6-.8-1.1-.5h2.1l-1.3-1.7.6-1h-1.9l1.1-.3-.1-.1,1.9.2-.8,1.3,1.5.1-.6-1.5h.6l-1-2.3-1.8,1.9-1.1-.7Zm-5.08-6.1-.3,1.2-.9-.7v1.3l.5-.2.5.5.1-.4,1.7-.4-1.6-1.3Zm.8,4.3,2.2-.6-1.7-1.3-.5,1.9Zm-.5,4.3.8-2h-1.9Zm2.1-16.1-.9-1.8-1.1,1.3Zm-1.9-4.6-.8-1.8-1.2,1.4,2,.4Zm-2.6-3.6-1.4-1.3-.5,1.6,1.8-.3.4,1.1.7-.8Z" fill="#260807"/>
      <path id="Path_15595" data-name="Path 15595" d="M267.3,220.7l-.5,1.6,1.9-.3ZM285,268.5l.8,1.2-.5,1.7,2.2-.4-1.5-1.3.4-1.4-1.4.2Zm-6.9-11.9v.9l-.3-.8.8-.3-1-.8v1.2l.1-.1-.7.7,1,.1v.5l-.2.1.2.2v.2l.2-.1,1,.7v-1.2l.9-.4-2-.9Zm4.2,2.3v2l2-1-.2,1.7-.6-.2v1.9l2-1-1.2-.6,1.9-.6-1.8-1.8-.1.7-1.5-.7h2.5l-1-2.2-1.6,2.1-.4-.3Zm2.6,7-.4,1.2-.6-1.3-1.1,1.4h1.7v.1l-1,.6,1.2.8-.5.3.4.3.1-.6.2.1-.1-1.1,1.7-.3-1.6-1.5Zm5.7,12.2-.4,1.4,1.7-.3-1.3-1.1Zm-1.8-1.8-1.2-1.1-.3.9-.4.3.3.2.2.1v-.2l1.4-.2Zm-13.9-23.6h0l-.5.2.6.9.6-1.1-.2.1-1.1-1.8-1.1,1.7h1.7Z" fill="#260807"/>
      <path id="Path_15596" data-name="Path 15596" d="M292.3,278l-.6,1.8,2.2-.4-1.6-1.4,1.5.3-.9-2-1.2,1.5ZM282,263.9l1.6,1.6.1-.8.7-.5-.6-.3.1-.6-1.9.6Zm-9.3-26.8.3-1.5-1.3.3Zm8.6,31.2.1-1.5-.2.1.2-.4-.7-.1.2.6-.8.3,1.2,1Zm-4.1-4.8-.1,1.5h.1l-.1.8,1-.6-.6-.4.8-.6-1.1-.7Zm0-1.3-.8-.5v1.1Zm-1.3-9.1,1.2,1.9.6-1.7.3.9.7-.6-.9-.3.1-.3-2,.1Zm-2.8-8.3-.5,1.9,2.2-.6-1.7-1.3Zm-11.9-.5.8-.5-.9-.5Zm-.8-6.1-.6.6.8.1-.2-.7Zm-4.4,6.4.3-.8h-.7ZM279.3,264l.9-.6-1.1-.6Zm-7.1-5,1,.4-.1-1.2-.9.8Zm6,10.5-2-.5.8,1.8Zm-1.12-24.03-.3,1.7,1.6-.6-.3.6-.8,1.3,3-.2-1.2-2.7-.4.7-1.6-.8ZM273.8,264l-.8.6.3-.8H273l.5-.2-.5-.5-.3.7h-.3l.5.8-.5.4,1.6.4-.2-1.4Zm-1.7-22,1.1.9.3-1.2Zm-5-3.8h.6l-.4-.8-.4.7-.4-.2-.1,1.2.9-.7Zm.7,9.1-.7.8,1.2.3Zm-5.3-6.3-1-.2.5.9Zm-3.8-3.7.8-.2-.4-.6Zm-1.3,5.8-.7.3.6.6.1-.9Zm12.1-14.8,1-.1-.4-.8-.6.9Zm-2.5,6.8-.9.2.7.8.2-1Z" fill="#260807"/>
      <path id="Path_15597" data-name="Path 15597" d="M269.6,232.6l-1.2-.4.4,1.1.8-.7Zm-3.5-6.1-.6.9,1-.1-.4-.8Zm-3.9,8V234l-.8.7.8.3-.3.2.9.6.1-1.2v-.3Zm0,.2.2.2-.2.1Zm3.8-2-1-1.2-.7,1.7Zm7-.8-.9-2-1.3,1.4,2.2.6Zm-3-6.7-1.3,1.5,2.2.6-.9-2.1Zm6.6,42.1,1.3.7-.2-1.5-1.1.8Zm-1.8,1.4-.9.8,1,.4-.1-1.2Zm-10.2-24.9-.3-1-.6.8Zm11.3,27.6v.8l-.3.1.8.7.1-1-.3.1.4-.3-.7-.4Zm2.8-7.4-.4.9,1-.2-.6-.7Zm-3.6,3.7-.4-1.2-.6,1Zm-13.6-34.9.8-.4-.6-.4-.2.8Zm6.4-3.3.1.8-1.1.4.8.7.3-1.2.1.4.9-.6-1.1-.5Zm-1.1-6-.7.7,1,.1Zm-4.7,6.8h-.9l.6.9ZM283.5,280l.8,1.8,1.3-1.3-2.1-.5Zm-7.8-.5,1.9-.9-1.8-.8-.1,1.7Zm5.4-4.1-1.3,1.1,1.7.3-.4-1.4Zm6.1,8.2-1.4.4,1.2.8.2-1.2Zm-7.4-2,.9-.7-.9-.4Zm2.3,8.1-.6.8,1.2.2Zm-11.2-34.9.5.8-.6-.1.4.9.5-.8h-.3l.4-.7Zm-2.8-4.2-.3.8.8-.2Zm-1.9,7,.7.5v-.8Zm9.6,25.9h-1l.6.8Zm-4.4-3,.8-.3-.5-.5Zm-.9,6.3.7.4-.1-.8Zm14-12.9.6,1.1.7-.9-1.3-.2Zm-5.2,2.7-.8.3.8.7Zm-6-33.2-.3,1,1-.2-.7-.9.2-.2-1.2-.4.4,1.1.6-.4Zm-3.2-6.4-.6.9,1-.1-.4-.8Zm6.7,36.3-.5,1.7.4-.2,1.1.4-.2-.8.3-.1-1.1-1Zm4.5.2-.1-1.2-.9.8,1,.4Zm.9,7.4v-1.2l-.9.8.9.4Zm-4.9,5h.9l-.4-.9Zm4.4-8.5-.3.7-.3-.3-.2.6.4-.1-.1.2,1.1.1-.6-1.2Zm-11.5-33.1.5,1.9,1.5-1.1-2-.8Zm3.7-1,2-.6-1.7-1.1-.3,1.7Zm-1.3-4.1-.1-1.5-1.5,1Zm-5.9,7.4.3-1.2h-.1l.1-.7-.9.2.4.5-.9.2Zm-6.8-5.1v1.2l.9-.7Zm.8,10.3,1.2.3-.5-1.1Zm10.5,8-1.2-.3.5,1.1.7-.8Zm-4.4-4.8,1-.2-.5-.7Zm-2.2,7.9.1-1-.8.3.7.7Zm7.1,10.6.6,1.1.7-.8-1.3-.3Zm-3.6-4.4,1-.2-.5-.7-.5.9Zm-1.7,8.1v-1l-.8.3Zm12.2-32.3-.9-1.8-1.3,1.8h2.2Zm-12.7-5.2-1.2.6,1.3.9-.1-1.5Zm-3.3,3.1.1-1.2-1,.7Zm-5.3,4.6.9.1-.3-1Zm12.1-4.3.4,1.2.8-.8-1.2-.4Zm-5.9,1.9.5-.2-.6-.5-.1.8-.3.1.7.8.2-1h-.4ZM288,295.2l.1-1.2-1,.7Zm-4.6-5.8,1-.1-.5-.8Zm-.1-6,.4.3.7.5.2-1.2-.9.3v-.4l.1-.1-.6-.4v.5l-.3.1.4.4ZM272,240.9l2-.6-1.6-1.1-.4,1.7Zm20.3,54.2.2-1.2-1.3.4,1.1.8Zm-7.3-4.4.1,1.2.9-.8-1-.4Zm1.8,10.1,1.2.2-.6-1Zm-6.9-11.9-1-.1.3.4-.4.6,1.2.2-.4-.7Zm-4.4-3.1.8-.3-.6-.5-.2.8Z" fill="#260807"/>
      <path id="Path_15598" data-name="Path 15598" d="M274.5,292l.7.4-.1-.8Zm12.2,14.2.4-.7-1-.1.6.8Zm-3.9-3.9.8-.3-.5-.5Zm-1.2,6.3.7.4-.1-.8Zm5.3-28.7-.4.9,1-.2-.6-.7Zm-2.1,9v-1l-.8.3Zm-2.4-8.5,1-.2-.6-.7-.4.9Zm-2.5,7.5.8.7v-1Zm2.7,7.5-.5.9h.9Zm-4.3-7,.2-1.2-1.3.4,1.1.8Zm-7.1-3.3.9-.7-.9-.4Zm1.5,9,1.2.2-.6-1Zm25.4,31.6.6-.8-.8-.2.2,1Zm2.6,25.5.7.1-.2-.7Zm2.5-7-.8.1.6.5.2-.6Zm6.3-19.5-1.3.4,1.1.8.2-1.2Zm-7.4-3.2.1,1.2.9-.8-1-.4Zm1.8,10.1,1.2.2-.6-1Zm-7.3-11.2.4-.8h-1Zm-4-3.8.8-.3-.6-.5-.2.8Zm-1,6.3.7.4-.1-.8Zm12.2,14.2.4-.8h-1Zm-3.9-4,.8-.3-.5-.5Zm-1.2,6.3.7.4-.1-.8Zm1.4-12.2-.4-.9-.5.9Zm-4.7-7.9.2-1.2-1.3.4,1.1.8Zm-7.1-3.3.9-.8-.9-.4V316Zm1.5,8.9,1.2.2-.6-1ZM282,284.8l-1.2-.2.5,1.1Zm-4.2-5.7-.4.7-.3-.1.1,1.2.9-.8-.4-.2.6-.1-.5-.7Zm-2.5,8.9.1-1-.8.3.7.7Zm-10.9-63.9-.7,1,1.1.2ZM271,240l-.9.8,1,.5Zm4.1,17.3,1,.4-.1-1.2-.9.8Zm-3.9-8.7.2-1.6-1.3.8,1.1.8Zm51.5,131.1.9.7-.1-1.2Zm3.7,4.2,1.7-.5-1.1-1Zm9.6,2.6-.5,1.4-.7-.4-.4,3,2.7-1.6-1.4-.9,1.4-.4Zm-3.7,2.8,1.7-.6-1.1-1Zm3.6-8.5h.6l-.6-1.4-1.1,1.3h.6l-1,1.2h1.5l-.5.7,3,.7-1.3-2.8-.8,1-.4-.7Zm-15.8-19.6-.6,2,2-.9Zm10.8,9.5-2,.5,1.8,1.2Zm-5-2.6,1.7,1.2-.7,1.8,2-.7-1.2-1.2.2-1.6-2,.5Zm2.9,4.5-.7,1.9,2-.7-1.3-1.2Zm8.1,11-.6,1.6,1.1-.3-.6.8,3,.7-1.3-2.8-.7,1-.9-1ZM319,354.4l-1.8.5,1.2,1.5.6-2Zm-3.4-8.4-1.8.5L315,348l.6-2Zm4.4,18.3-1.8.4,1.2,1.6.6-2Z" fill="#260807"/>
      <path id="Path_15599" data-name="Path 15599" d="M323.4,367.5l-1.8.4,1.1,1.6.7-2ZM318,337l-.9-1.5-.8,1.2,1.7.3Zm-7.5,3.7.4-1.7-1.5.4,1.1,1.3Zm4.6-5.3,1.1,1.2.3-1.7ZM335.2,377l-1.4.3-.2-.1.6-.6-1-.2.1.7.1,1.4.8-.7.3.4-.6.8,3,.7-1.3-2.8-.4.1Zm-1.2,2.3-1.5.2,1,1.4Zm-1.2-5.3.2-.8-1.8.4,1,1.4-.1.4.9-.3-.6.8,3,.7-1.3-2.8-.6.8Zm-4.5,1.4-.7,1.9,2-.7-1.3-1.2ZM320,385.8l.4-.8-1-.1Zm12.2-8.2.5-1.1h-1Zm.4,4.8-.9.8,1.2.2-.3-1Zm-11-20-1,.8,1.2.7Zm-2.1-11.9-1.1.7,1.2.7-.1-1.4Zm3,14.4,1.2.7-.2-1.4-1,.7Zm-2.4,7.2.6-.9h-1.2Zm4.2-9.4.5-.9H324l.9-1.3-1.9-.3.7,2,.1-.2.5.7Zm-.9-5.1-1.4-.2.3,1.2Zm-2.1-3.1.3,1.2,1.1-.9-1.4-.3Zm-3.8-14,.6-1.6-.6.3-2.5-1.3v2.7l2.3-1Zm9.1,16.9-1.6,1.9,1.4.3-1.1,1.7,1.4.1-.1.1h1.9l-.8,1.3-1.7.1.2.4-2.2,1,2.3,2,.1-2.5.9,1.8.3-.6,1.9.1-1,1.3-.2-.2-.4,1.1,1.1-.4,2.3.5-1.3-2.8-.3.4-.7-1.5-1.3,1.4.8-1.7.9.1-.7-2-.1.1-.6-1.5-.9,1-.5-1.5,1.4.4-1.2-2.7h.1l-.9-1.9-1.2,1.6,1.8.6Zm-1-3-.9-1.9-1.2,1.6Zm-5.4,1.3.8,2,1.2-1.7Zm7.8,18.1,1.2-1.7-2-.2.8,1.9Zm6.7,7.4-1.9-.2.8,2Zm-26.4-29.1,1.2-.3-.7-.8-.5,1.1Zm.4-14.9,1.1.2-.3-1.1-.5.6-1.5-1.4-.5,1.7,1.9-.3-.2.3Zm8.1,12.5.9-.7-1.1-.3Zm.6-11.9-.1-.8-.7.6.8.4-.5.7,1.3.2-.6-1.2-.2.1Zm2.6,35.7-.6.5.6.2Zm5-3.3-.1.7.7-.2Zm8.9,13.1.4.8.5-.6-.9-.2Zm-4.4-1,.6.2v-.7Z" fill="#260807"/>
      <path id="Path_15600" data-name="Path 15600" d="M302.7,365.5l.8.1-.3-.7Zm6.1,4.2.6-.5-.6-.2Zm8.7-9.9.1-1.4-1.2.9Zm.8-8.4-.2,1,1.2-.3Zm7.2,6.9-1,.1.5,1Zm-16-23.7-.5-1-.5,1.1Zm2.7-2.9-.5,1.1h1Zm-.3-3,.2.9.8-.7-1-.2Zm9.3,30-1.7,1.2,1.6.8Zm-10.6-10.6-.9.8.9.3v-1.1Zm2.2,2.7-.6.4.9.4.1-.6.2.1V350l-1,.7Zm-1.5-25.2,1.8.4-1.1,1.1,1.9.6-.7-1.9-.1.1-.7-1.8-1.1,1.5Zm-2.7,4.6-.5,1.7,2-.3-1.5-1.4Zm1-4.1.4,2,1.3-1.6-1.7-.4Zm-3-14.7-2-.7.9,2.9,1.1-1,.3.1-.8,1,1.9.3-.7-2-.1.2v-.1l.2-.2-.3-.1-.2-.7-.3.3Zm4.4,17.3-.5,1.7,2-.3-1.5-1.4Zm2.4,7.3-.3,1.8,1.9-.5Zm18.1,42.5-1.1.3,1,.7Zm-7.4-6.4-.4,1.1,1-.1Zm1.5,2.4.8.8.6-1.3Zm4.5-6.9-.6.9,1.2.1Zm3.3,18,.1-1-1.1.3Zm-7.5-7.8-.4,1.1,1-.1Zm9.5,6.2-1.6.8,1.5,1.2Z" fill="#260807"/>
      <path id="Path_15601" data-name="Path 15601" d="M331.3,367.8l-1.1,1.4-.4-.4-.4,1.1.6-.2-.2.3,3,.6-.6.8-.6-.2v1l-.5.6,3,.7-1.3-2.8Zm-6.9-10.5,1.3-2.8-2.7.1,1.4,2.7Zm12.8,31.5,2.2-1.6-1.8-1.4-.4,3Zm-12.3-12.7-.6-.5.3-.4-.9-.2.2.3-.2,1,1.2-.2Zm5.7.2.2-.4.4-.1-.3-.2.1-.1h-.2l-.7-.6-.3,1.2.5-.1.3.3Zm-4.5,6.5-.2-.9-.8.6ZM316,343.9l.3,1.2,1.1-.9-1.4-.3Zm-.9-2.7.2,1.1-.7.1.1.1-.7-.1.8,2,1.2-1.7-.6-.1.1-.3,1-.8-1.4-.3Zm2.6-.9,1.4.2h-1.6l1.4,2.8.1-.2.1.2-.1.1h.2l.3.4.1-.3,1.1.2-1.6,1.9.2.1-2.1.9,2.3,2,.2-2.8.9.3-1,1.5.4.1.6.7-.4.4h.8l.2.3.1-.3h.9l-.5,1h-1.6l.8,1.4-.2.3h.4l.4.9-.3,1,1.1-.5.3.5.3-.8.3-.1-.2-.1.2-.3h.7l-.4-.8.3-.7h-.6l-.1-.1-.1.2h-.6l.2-.4,1,.1-1.1-2.3-.3.7-.6-1.3.1-.4-.4.1-.3-.9,1.1.3-1.3-2.9-.8-1.8v.1l-.8.2.2-.5.6.1-.3-1,.1-.1h-.1l-.8-1.8-1.2,1.4Zm-6,5.5.1-1.4-1.2.9Z" fill="#260807"/>
      <path id="Path_15602" data-name="Path 15602" d="M312.3,338.5l1.2-.3-.9-.7-.3,1Zm6.3,6.2.5,1,.5-1Zm-4-14.7-1.7,1.9,2.9.9-.4.4-1.3.3.5.7-.1.1h.2l.4.6.1-.4,1.7.5-1-2.3-1.1-2.7h.1l-1-2.3-1.3,1.6,2,.7Zm9.4,50.2-.2,1,1.2-.2Zm6.7.8,1.3.9.2-1.7-1.4.3.1-.3H330l.2.4h-.1l.1.1.2.4.3-.1Zm-5.6,6.5,1,.2-.2-.9-.8.7Zm2-10.3-.2,1.4,1.2-.7-1-.7Zm-1.5,7.3-1.1.1.8.9.3-1Zm-5.8-8.2-.7,1,1,.1Zm-4.7-2.6.2,1,.7-.8-.9-.2Zm.2,5.5.8.3v-.7l-.8.4Zm-5.4-3.4.7-.2-.6-.6-.1.8Zm9.9,6.6-.6.7,1,.2-.4-.9Z" fill="#260807"/>
    </g>
    <path id="Path_15603" data-name="Path 15603" d="M195,206.3s-1.9,12.7,1.3,22.1c1.9,5.6,3.2,9.6,5.7,13.4a66.9,66.9,0,0,1,4.7,9,124.608,124.608,0,0,1,35.2-9.4c15.6-1.6,35.1,0,35.1,0L269.9,224c-1.5-3.5-4.5-11.2-7.1-17.9H196.3l-1.3.2Z" fill="url(#linear-gradient-7)"/>
    <g id="Group_1198" data-name="Group 1198">
      <path id="Path_15604" data-name="Path 15604" d="M309.2,383.8l-1,.4,1,.8v-1.2Zm-.2,6.6,1.4-1-1.6-.4Zm.9,7.9,1.4-1-1.6-.4Zm-18.2-21.1.7-1.2-2.2-.1,1,1.4-1.4.1.9,1.5,1.1-1.7h-.1Zm1.4,3.8.6-.9.9.2-.4-.8.1-.1h-.2l-.5-.8,2.1,1.3-.3-3-2.1,1.2-.2-.4-1.2,1.6h-1.3l1.2,1.8.5-.9.8.8Zm1.9-7.7,1.8-1.2-2-.6.2,1.8Zm4.3,8.7-2-.4.3,1.7,1.7-1.3Zm-1.3,4-.1-2.1-1.5,1.4Zm7.5,6.7V391h.3l-.3-.4v-.1l-.2-.4-.5.7h.3l-1.1.9,1.5,1Zm-8.4-11.1-.1-2.1-1.5,1.4Zm2.7,3,.2,1.7,1.8-1.2Zm4.2,14.5,1.4-1-1.6-.5Zm-12.7-33.5-1.4,1.2,2,.7-.6-1.9Zm-6-9.5-1.4,1.2,2,.6-.6-1.8Zm13.4,16-1.3,1.2,2,.6-.7-1.8Zm2,5.6-.7-1.8-1.4,1.2,2.1.6Z" fill="#68322e"/>
      <path id="Path_15605" data-name="Path 15605" d="M281.7,361.4h.1l-.6-1v.1l-.4-.8-1.1,1.5,2,.2Zm-6.9-10.8-.8-1.5-1,1.1h.2l-.9.2,1.6,1.9.3-1.9.6.2Zm6.9.2-.6-1.6-1.1,1Zm-6.5.3-1.1,1,1.7.5Zm28.6,42.2-.6-1.6-1.1,1Zm-1.2-5.7,1.8-1.2-2-.6.2,1.8Zm12.7-3.9-.4.9.9.1ZM300.8,387v.9l-.1.1h.1v.4l.3-.3.6.1-.2-.3.4-.3-1.1-.6Zm-.1,3.1,1.2.2-.6-1Zm5.4,4.1.5-1.1-1.1.3.6.8ZM295,373.5l1.1.9.1-1.3Zm-7.2-9.5-1.2.4,1.1.9Zm8.8,11.6-1.2.4,1.1.9Zm-1,5.3-1.2-.2.1.4-2.3.2,1.6,2.6.8-2.2Zm8.4-5-.6,1,1.1.1Zm-10-.1-.3-.9-.1-.1v-.1l-1.1-1.5-.9,1.7h1.8l-.5.8Zm-3.7-4.8-.6,1.3,1.4-.4Zm-5-1,1,1.9.9-1.9Zm4.6-1.4-.9,1.8h2.1Zm9.3,15.8h2.1l-1.2-1.8Zm5,8.3-.9,1.7,2.1.1-1.2-1.8Zm-13.9-36.5-1.2.1.4.9.8-1Zm-4,5.9,1.1-.4-.7-.7Zm-7.8-3.3.5-.9,2.1.6-1.5-2.5,1.1-.4-.9-.9-.4,1.2-1.3,1.8.6.2h-1l.7-1.6h-.6l-.7-.7,2.1-1.5-2.3-1.4-.2,2.8-.6.4,1.5.2-1.2.1,1.1,1.8.1-.2.9,1Z" fill="#68322e"/>
      <path id="Path_15606" data-name="Path 15606" d="M275.9,354.8V354l-.8.3.6-1.6-1.5.1.9,1.5.6.6h-.2l.7,1.1.4-1.2Zm28.4,27.7h.5l.1,1,.9-.8-.7-.3-.4-.7Zm2.1-5-.8.2.6.4.2-.6Zm-6.4,2.4v.7l.6-.4-.6-.3Zm5.5,15.2-.4.8h.8Zm1.6-3.6.1-.7-.7.2Zm1.7-32.6h-.7l.3.7.4-.7Zm-.6,7-.1.7.8-.2-.7-.5Zm-12.5,1.5-1.5.4,1.2.7Zm-6.7-2.6-1-.4v1.2l1-.8Zm1.7,9.6-.5-1-.7.8Zm-13.1-28.5-1.2-.1.6,1Zm-3.6,2,.6-.9-1.2-.1Zm-2.4-2.1-.2-.2,1.6-.8-2.7-1.3v.7l-1.4.3,1.3,1.6.1-.3v.4l.5-.2-.1.2.9-.4Zm22,26.3.2-1.7-1.9.8,1.7.9Zm-4.3-17.7-1.1.4,1,.6Zm1.3,4.3-1.1.4,1,.6.1-.2.7.4.1-1-.8.3v-.5Zm-11.7-13,.7-.7-1-.1.3.8-.2-.1.4,2-.7.1.8.8.4-1-.4.1,1.2-1.5-1.5-.4Zm-5.3-2,.4,2,1.3-1.6-1.7-.4Zm4.4,7.5-1.6-.7.2,2Zm25.6,38.3-.9.7.9.4Zm-1.1-8.8-1.1-.2.4,1Zm.5,3.4-.2-1.1-1.2.9,1.4.2Zm4.7,10.6-.9.7.9.5Zm-1.6-8.3.7-.8-1.2-.3.5,1.1Zm.6,9.4-1.5.8,1.7,1.1Zm-3.6.1.9-1.2-1.6.1.3-.4-1.5.1.8-1.8h-.8l-.3-.8,1-.2-1.1-.9v.1l-.8-.7-.3,1,1.1-.2-.1.3-1.1,1,1,.3h-1.3l1.5,2.7.3-.8.6,1.1.3-.5.4.7h-1l1.5,2.7,1.2-2.8-1,.2Zm-3.8-6.3.9-.7-1-.3-.5-1.3-1.3,1.3,1.2.3.1.7h-1.6l1.5,2.7,1.2-2.8h-.5v.1Zm-2.2-3.1-.7-.4-.1.5h-.9l1.6,2.7,1.1-2.8h-1Zm-1.6,0,1.1-2.8h-.4l.4-.4-1.1-.2.1.6h-.7l.6-.9h-1.1l.4,1-1,.1,1.7,2.6ZM288,370.1l1.1-.3-.8-.9-.5,1.3h.1l-1.6,2,3,.6-1.3-2.7Zm-3.2-1.4.4.7.4-.6h.2v.4l.5-.3.7.1-.2-.4.9-.5-1.3-.4-.1-.1.6.1-.6-1.1.4-.6H286l-.5-1-1,1.3-1-.2.4-.7.3.1-.1-.4.4-.7-.6.1v-.1l.5-1-2-.1.4-1.3-2.7.4,1.8,2.7.4-1.5.5.7-.6.5.4.1.7,1.2-.8-.1,1.3,2.2.4-.9.5.1-.3.5h-.2l.1.1-.4.5.9.2Zm5.8,5.8-2.5.1.8-1.6h-2l1,1.9v-.1l1.5,2.5ZM305,402.3l1.1-2.8-2.7.2,1.6,2.6Zm1.6,1,2.9-.5-2.7-1.4-.2,1.9Zm1.8-4.5-1.4-.3.3,1.5,1.1-.9v1.6l2.8-1.3-2.7-1.3-.1.7ZM285.5,364l-.3-3-2.4,1.4,2.7,1.6Zm24.1,24.4.4-1-1,.3Zm-27-30.9-.9-.9-.5,1.3Zm-4.4,1.6,1.1,2,1-1.9Zm3.3-5-.2.7-.1-.1-.6.7.4.1-.2.6,2.1-.1-1.4-1.9Zm4.5,0-1.3.5,1.2.7.1-1.2Zm-7.5-1.5.8-.8-1-.3.2,1.1Zm-5-5.4-2.7.5,1.9,2.6.8-3.1Zm35.4,39.2.9-.8-1-.4.1,1.2Zm-4.3-.5v1.2l1.3-.6Zm6.7,3.1,1,.3-.2-1.2-.8.9Zm-2.5-8.6.5-.9h-1.2Zm-.6-5.9,1-.1-.7-.7-.3.8Zm4.6,3.4.1-.8-.7.4Zm.4-7.2-.8-.3.2.8.6-.5Zm.7,12.3H313l.5.9Zm-40.8-44.3.2,1.5,1.4-1Zm-18.7-19.2.7-1.2-2.3-.1,1,1.4-1.4.2.9,1.5,1.1-1.7v-.1Zm1.6,3.8.6-.9.9.1-.4-.8.1-.1H257l-.4-.8,2.1,1.3-.3-3-2,1.2-.2-.4-1.2,1.6h-1.3l1.3,1.8.5-.9.5.9Zm1.5-9.5.2,1.7,1.8-1.2Zm2.9,10,.3,1.7,1.7-1.3-2-.4Zm.9,4.3-.1-2.1-1.5,1.5Zm-1.3-4.3-.1-2.1-1.5,1.4Zm3.3,4.7,1.7-1.2-2-.5Zm4.2,12.7,1.4-1-1.6-.4Zm-13.1-31.5-.6-1.9-1.4,1.2,2,.7Zm-6.7-11.2-1.3,1.3,2,.6Zm13.9,15.7-1.3,1.3,2,.6Z" fill="#68322e"/>
      <path id="Path_15607" data-name="Path 15607" d="M263.1,318l-1.3,1.2,2,.6-.7-1.8ZM244,304.2h.1l-.6-1v.1l-.4-.7-1.1,1.5Zm-7.1-10.7-.8-1.5-.9,1.1.2.1-.9.2,1.7,1.9.3-1.9.4.1Zm6.9.1-.6-1.6-1,1.1Zm-6.5.3-1,1.1,1.7.5Zm29.3,39.9-1,1.1,1.6.5Zm-.7-4.1,1.7-1.2-2-.5Zm12.5-4.1-.4.9h.8Zm-14.3,3.5.1.9-.1.1h.1v.4l.3-.3.5.1-.2-.3.3-.3-1-.6Zm.5,2.3-.6.8,1.2.2Zm5.4,3.7-1.1.3.6.8.5-1.1Zm-11.1-19.8-1.2.4,1.1.9Zm-8.7-7.6.1-1.3-1.2.5,1.1.8Zm9.1,10.2-1.2.4,1.1.9Zm-.9,5.2-1.2-.2.1.3-2.3.2,1.7,2.6.8-2.2.9-.7ZM267,318l-.6,1h1Zm-10.2.1-.3-.8h.1l-.1-.1v-.1l-1.1-1.5-.8,1.8h1.8l-.5.8.9-.1Zm-3.9-4.8-.6,1.3,1.4-.4-.8-.9Zm-5-.9,1,1.9.9-1.9Zm4.6-1.5-.8,1.8h2.1Zm9.9,15.6h2.1l-1.2-1.7Zm5.2,8.3-.9,1.7h2.1ZM252,299.5l.7-1-1.2.1Zm-10.7-8.2.3-1-.4.1,1.2-1.5-1.7-.4.4,2-.7.1.9.7Zm7.9,12.1-.4,1.1,1.1-.4-.7-.7Zm-8.4-1.8.5-.9,2.2.5-1.5-2.5,1.1-.4-.9-.8-.4,1.2-1.2,1.9.6.1h-1l.7-1.7-.6.1-.7-.7,2.1-1.5-2.4-1.3-.1,2.8-.6.4,1.5.2-1.2.1,1.1,1.8.1-.2.7.9Zm-2.7-3.9v-.8l-.8.3.6-1.6-1.5.1.9,1.5.6.5h-.2l.7,1.1.4-1.3-.7.2Zm31.3,21.8-.8.2.6.4.2-.6Zm-5.7,2.8-.6-.3v.8Zm5.2,14.8-.3.8h.8Zm1.5-3.6.1-.6-.7.2Zm1.2-32.7-.7.1.4.6.3-.7Zm-6,8.7.8-.2-.6-.4-.2.6Zm-8.8.6.9.6.1.4.8-.7-.6-.1.1-.7-1.3.5Zm-5.2-3v-.7l-.6.3.2.1-.6-.2v1.2l1-.7v0Zm1.9,9.6-.6-1-.6.8,1.2.2Zm-15.1-28,.7,1,.6-.9Zm-1.8,1.3-1.2-.1.7.9Zm-3.2-1.5.7.1-.5-1-.5.6-.1-.1-.3.9.9-.3-.2-.2Zm23,24.1-1.9.8,1.7.9.2-1.7ZM251.6,297h0l.6-.8-1,.1.3.5-1,.4,1,.6.1-.8Zm1.4,4-1.1.4,1,.6v-.2l.8.4.1-1-.9.3.1-.5Zm-20.8-11.9.4-1.9-1.7.4Zm5.2-2-1.7-.4.4,2Zm2.7,6.9-1.6-.6.2,2,1.4-1.4Zm26.7,38.7v-1.2l-.9.8.9.4Zm-1.1-9.9-1.1-.2.5,1Zm.2,2.3-1.1.9,1.4.2Zm5.2,11.6-.9.7.9.5Zm-1.7-8.3.7-.8-1.2-.3.5,1.1Zm.7,9.4-1.5.8,1.7,1.1Zm-3.6.2.9-1.2-1.6.2.3-.5-1.5.1.7-1.8h-.8l-.3-.8,1-.3-1.1-.8v.1l-.8-.6-.3,1,1.1-.2-.1.3-1,1,1,.3h-1.3l1.6,2.7.3-.8.7,1.1.3-.5.4.6-1,.1,1.6,2.7,1.1-2.8-1.2.1Zm-3.9-6.3.9-.7-1-.3-.6-1.3-1.3,1.3,1.2.3.1.7h-1.6l1.5,2.7,1.2-2.8-.4.1Z" fill="#68322e"/>
      <path id="Path_15608" data-name="Path 15608" d="M260.4,328.7l-.7-.4-.1.5-.9.1,1.6,2.6,1.1-2.8h-1Zm-1.6,0,1-2.9h-.4l.5-.4-1.2-.2.1.6h-.7l.5-.9h-1.1l.4,1-1,.1,1.9,2.7Zm-8.2-16.3,1.1-.4-.8-.9-.5,1.3h.2l-1.6,2.1,3,.5Zm2.8,4.4-2.5.2.8-1.6-2,.1,1,1.8v-.1l1.5,2.5Zm13.5,24.9,1.6,2.6,1-2.8-2.6.2Zm7.7-.5-2.7-1.3v.8l-1.5-.3.3,1.5,1.1-.9v1.6l2.8-1.4ZM248,306.4l-.4-3-2.3,1.4Zm21,18.3-.8-.3-.4-.7-.3.8h.5l.1,1,.9-.8Z" fill="#68322e"/>
      <path id="Path_15609" data-name="Path 15609" d="M272.9,330.3l.4-1-1,.3Zm-24.6-19.1h.2l.1.4.5-.3.7.1-.2-.4.8-.6-1.3-.4v-.1l.6.1-.6-1.1.3-.6h-.7l-.6-1-.9,1.3-1.1-.2.5-.7.2.1-.1-.3.4-.7-.6.1v-.1l.5-1h-2l.4-1.4-2.7.4,1.9,2.6.4-1.5.5.7-.6.6.4.1.7,1.2-.7-.1,1.3,2.2.5-.9.5.1-.4.5H247l.1.1-.4.5.8.1.4.7.4-.5Zm-3.4-10.9-.9-.9-.4,1.3,1.3-.4Zm-4.5,1.6,1.1,2,.9-1.9Zm3.3-5-.2.7-.1-.1-.5.7h.3l-.2.6,2.1-.1-1.4-1.8Zm4.5-.1-1.3.6,1.2.6Zm-7.5-1.3.8-.9-1-.3.2,1.2Zm-5.2-5.4-2.7.5,2,2.6Zm36.7,38.3.9-.8-1-.4.1,1.2Zm-3.4,4.3h0l-.3-.4-.5.8h.3l-1.1.9,1.6.8v-1.7h.3l-.3-.4Zm8.2.5.4-1-1,.3Zm-9.2-4,1.3-.6-1.3-.6Zm7.6.9-.8.9,1,.3-.2-1.2Zm-3.5-7.7.5-.9h-1.2Zm-8.7-4.7,1-.1-.7-.7-.3.8Zm4.6,3.3.1-.8-.7.4Zm.3-7.2-.8-.3.2.8.6-.5ZM256,304.5l.9.5-.1-1.2-.7.4-.8-.1.4.8.3-.4Zm-2.7-3.7-.4-.5-.3.7ZM239.5,287l-.4.6.8.1-.4-.7Zm6,4.6-.7.2.4.5ZM263,303.3l-.3.9h.9Zm-3.2,2.8-1.2.6,1,.8Zm6.2-3.4-1.1-.6.2,1.1Zm-9.7-3.6-.8.9h1.2Zm.2-4.4-.1.8.7-.2-.6-.6Zm-4.9-4-.7.4.8.3-.1-.7Zm-17-10.8-1.4,1.2,2,.7-.6-1.9Zm-5.9-9.6-1.3,1.2,2,.6-.7-1.8Zm-3.8,5.6h.1l-.6-1v.1l-.4-.8-1.1,1.5,2,.2ZM218.1,265l-.8-1.5-.3.5-.1-.2-.7.8h.2v.1h.2l-.9.2,1.6,1.9.4-1.9.4.1Zm6.9.3-.6-1.6-1.1,1,1.7.6Zm-6.5.2-1.1,1.1,1.7.5-.6-1.6ZM231,279.6l.2-1.3-1.2.5Zm3.4,6.5-.8-.9-.6,1.3,1.4-.4Zm-5.8-1.8,1,1.9,1-1.9Zm4.6-1.4-.9,1.8h2.1l-1.2-1.8Zm-1.3-9.5-1.2-.1.3,1Zm-10.2-11.3.8.9.4-1h-.4l1.2-1.5L222,260l.4,2Zm8.4,13.2-.4,1.1,1.1-.4-.7-.7Zm-8.3-2,.5-.9,2.1.6-1.5-2.6,1.1-.4-.9-.9-.4,1.2-1.3,1.8.6.2h-1l.7-1.7h-.6l-.7-.7,2.1-1.4-2.3-1.4-.2,2.8-.6.4,1.5.3-1.2.1,1.1,1.8.1-.2.9,1Z" fill="#68322e"/>
      <path id="Path_15610" data-name="Path 15610" d="M219.2,269.3l.1-.8-.8.3.6-1.6-1.5.1.9,1.5.6.6h-.2l.7,1.1.5-1.2h-.9ZM239,281.7l-1.4.4,1.1.8.3-1.2Zm-7.5-1.9.9-.7h.1v-.7l-.6.3.2.2-.6-.2v1.1Zm-10.6-19.4-1.2-.1.6,1,.6-.9Zm-3.6,2,.6-.9-1.2-.1.6,1Zm17.3,11.7.1-.9-1.1.4Zm-1.9-5.4-1.1.4,1,.6Zm1.7,6.7-1.1.4.9.6.2-1Zm-15.7-16.8-1.7-.4.4,2Zm1.2,8.4,1.4-1.4-1.6-.7.2,2.1Zm11.4,17.3,1.1-.3-.8-.9-.6,1.3.3-.1-1.7,2,3,.6Zm-3.1-1.4.4.7.3-.6.3.1v.4l.5-.3.7.1-.2-.4.8-.5-1.3-.4v-.1l.6.1-.6-1.1.4-.6h-.7l-.5-1-1,1.3-1-.2.5-.7.2.1-.1-.4.4-.7-.6.1v-.1l.5-1-2-.1.4-1.3-2.7.3,1.8,2.7.4-1.5.5.7-.6.5.4.1.7,1.2-.8-.1,1.3,2.2.5-.9.5.1-.3.5h-.2l.1.1-.4.4.8.3Z" fill="#68322e"/>
      <path id="Path_15611" data-name="Path 15611" d="M228.9,278.2l-.3-3-2.4,1.4Zm-3-6.2-.9-.9-.5,1.3Zm-4.5,1.5,1.1,2,1-1.9Zm3.4-4.9-.3.7-.1-.1-.5.7.3.1-.2.5,2-.1-1.2-1.8Zm4.3,1.2.2-1.2-1.4.5Zm-7.3-2.7.8-.8-1-.3.2,1.1Zm-5-5.4-2.7.5,1.9,2.6Zm20.3,14.6-.9-.1.4.8.5-.7Zm-3.2-4.1-.3.7.7-.2Zm-13-13.5-.4.6.8.1-.4-.7Zm-9.9-5.1-.7-1.6-1,1.1.2.1-.9.1,1.5,2,.4-1.9.5.2Zm.4.4-1.1,1,1.6.6Zm2.7-3-1.2.1.8.9Zm-1.3,6.8h-.9l.1-.8-.8.2.7-1.5h-1.5l.8,1.6.6.6h-.2l.6,1.2,1.2,1.5.4-1.9-1.6.3.6-1.2ZM211,248l-1.2-.2.6,1,.6-.8Zm-.6,2.9.6-.9-1.2-.1.6,1Zm-2.9-3-.4.9,1-.2Zm-.7-3.9-1.7-.6.3,2Zm-1.4,3.1,1.2,1.6.6-1.9-1.8.3Zm-2.2-3.9,1.4-1.5-1.7-.6Zm11,11.1-1.6-.7.1,2Zm.1,7.5,2.6-1.6-2.2-1.5-.1,1.2-.3-.3-.3.9.6-.2Zm7.7-4.1-1.4.4,1.2.7Zm-6.5-2.7-1-.4.1,1.2Zm-5.6-4.9-2.7.3,1.7,2.7Zm4.2-2.8-.4.6.8.2-.4-.8Zm12.7,16-.7.2.4.5Zm.9,3.7.6-.8-1,.1.4.7Zm4.9-2.1-.1.8.7-.2-.6-.6Zm-4.8-4.1-.8.4.8.3v-.7Zm48.8,78.7.3-.4.9.6-.1-1.2-.7.4-.8-.1.4.7Zm-2.3-4.1-.4-.5-.3.7.7-.2Zm-13.8-13.8-.4.6.8.1Zm5.7,5.3.3-.8-.7.3.4.5Zm17.8,11-.4.9h.9Zm-3.3,2.8-1.2.7,1,.7.2-1.4Zm6.2-3.4-1.1-.6.2,1.1Zm-9.2-2.6-.4-1-.8.9,1.2.1Zm-4.5-4-1,.1h-.1l.2,1.5,1.4-1.1-.8-.2Zm4.3-1.4-.1.8.7-.2-.6-.6Zm-5.3-3.4-.7.3,1,.8v-1l.2.1v-.7l-.7.4.2.1Zm18,21.5-.7.3.5.4.2-.7Zm.6-6-.7-.3.1.8Zm4.4,11h-.8l.4.6Zm.5,7-.1.8.6-.3Zm-9.4-14.5.8-.1-.6-.7-.2.4-.9-.4.3,1.2.6-.4Zm-3.1-6.4-.6.9,1-.1Zm-.9,3.8v1.4l1.1-.8Zm-5.5,5.9,1.1.3-.4-1.1-.7.8Zm10.1,1.8.6-1-1.1.2Zm5,1.2-.4.9.9-.3Zm-4.4,3.1v-.8l-.7.3Zm6.2,2.5-.8-.2.2.7.6-.5Zm-16.6-31.9-.9.1.5.9Z" fill="#68322e"/>
    </g>
    <g id="Group_1199" data-name="Group 1199">
      <path id="Path_15612" data-name="Path 15612" d="M243.3,218.4l-1.7.9,1.4.9.3-1.8Zm13.4-.4.5-1.6-1.5.6Zm1.5-5.5,1.4-.1-.8-1.4Zm4.9-4.7-.3,1.6,1.4.1-1.1-1.7Zm-5.2,7.2.6-1.3-1.6.1Zm-18.7,5.1,1.4,1.6.7-1.7-2.1.1Zm-17.8,4.8.7-1.7-2.1.1,1.4,1.6ZM254,213.8v-.4l-.7.4.1-.9.1.6.7-.7-.8-.3.1-1-.4.1-.3-.3-.1.4-.6.2.4-1.3-1.5.6.9.8-1.3.4,2.7,1.9v-.4l.2.1.9,1,.6-1.3-1,.1Zm-3.4.9-1.6.1,1.1,1.2Zm-7.9,17.7,1,.2-.2-1.1-.8.9Zm-.1-6.4v.8l.8-.4-.8-.4Zm6.7,5.2.2-.9-.8.2Zm-18.6.8,1,.2-.2-1.1-.8.9Zm.6-6.1-.9-.4v.8l.9-.4Zm5.9,4.8.2-.9-.8.2Zm-3.9-1.4,1,.2-.2-1.1-.8.9Z" fill="#260807"/>
      <path id="Path_15613" data-name="Path 15613" d="M233.1,222.9v.8l.8-.4-.8-.4Zm6.8,5.2.2-.9-.8.2Zm2.7-4.5,1.8-.9-1-.5.2-.2-1-.4.1.3-.2-.1.1,1.8Zm3.8,2.4.2-.9-.8.2Zm-7.2-4.1h-1.1l.7.9.4-.9Zm-1.6-2.8.7.4.1-.9Zm3.2,4.3,1.3.1-.5-1.4-.8,1.3Zm10-.2.7-.7-1-.4.3,1.1Zm-4.5-4.1-.8.5.7.4Zm6.6-2.7-.3.8.9-.1-.6-.7Zm-.8.8.4-1.6-1.5.6Zm2.3-3.8,1.5-.5-1.3-.9Zm.4,2.1.4,1,.7-.7-1.1-.3Zm-.8,3.9.1-.9-.8.5Zm-8.6-3.9-.2.5-.1-.1-.3.8.9-.1-.2-.3h.3l-.4-.8Zm4.5,2.3-.1-.9-.7.7Zm-7.3-1.2.2-1.6.2.1.3-1.9-1.7.9,1,.7-1.5.8Zm2.5-5-2.2,1.3,1.9,1.2Zm-15.2,8.6-.4,1.9,2.1-.5-1.7-1.4Zm8,3.4.7-.7-1-.4.3,1.1Zm-4.5-4-.8.4.7.4.1-.8Zm6.4-2,.9-.1-.7-.7Zm-23.9-4.9.9-.1-.7-.7Zm30.9,10.7.6-.5-.8-.4Zm2.2,1.9,1.1-.9-1.4-.7.3,1.6Zm-4.5-1.2.6-.5-.8-.4Zm-5.6.3-.2.7.8-.1-.6-.6ZM203.3,233l.9.2-.2-1.1-.7.9Zm-.1-5.7.8-.4-.9-.4.1.8Zm6.7,4.4.2-.9-.8.2Zm-6.8-9.3.1,1.8,1.8-.9-1.9-.9Zm3.9,4.2.2-.9-.8.2Zm-7.2-4.1h-1.1l.7.9.4-.9Zm1.9.7.3,1.1.7-.7-1-.4Zm-4.3-2,.1-.9-.8.5Zm4.1.4-.8,1.3,1.3.1-.5-1.4Zm5.7,1.4.2.9.6-.5Zm3.5,2-1.4-.7.3,1.6,1.1-.9Zm-5.6-.3.6-.6-.8-.3.2.9Zm-5.8.9.7-.1-.5-.6-.2.7Zm21.6,6.5.9.2-.2-1.1-.7.9Zm-.2-6.5v.8l.8-.4-.8-.4Zm6.9,4.3-.8.2.6.7Zm-16.1-.9.9.2-.2-1.1-.7.9Zm6.7-2.2-.8.2.6.7Zm4.4-4.4-1.9-.9.1,1.8,1.8-.9Zm-15-.1,1.8-.9-1.9-.9.1,1.8Zm17.2,2.4-.8.3.6.7Zm-7.9-2.3.4-.9h-1.1l.7.9Zm3.9,14.7.7-.7-1-.4.3,1.1Zm-4.6-3.1.1-.9-.8.4Zm6.5-2.9.9-.1-.7-.7Zm2.2-8.1.6-.5-.8-.4Zm1.9.4.3,1.6,1.1-.9-1.4-.7Zm-4.4-.6.2.9.6-.6-.8-.3Zm-5.6,1.9.8-.1-.5-.6-.3.7Zm-10.4-3,.5-1.6-1.6.6Zm2.9.6,1.6,1.5.4-1.2v.8l.8-.4-.8-.4.4-1-2.4.7Zm26.3-1.6,1.5.2-.6-1.6-.9,1.4Zm-7.4,9.3.2-1.4-1.2.4Zm-12.9-7.5h-1.7l1.1,1.3.6-1.3Zm15.2-5.5,1.4,1.9.8-1.9Zm-7.6,11.8,1.2-.7-1.3-.6Zm-14.8,2.4,1.1-.9-1.4-.3.3,1.2Z" fill="#260807"/>
      <path id="Path_15614" data-name="Path 15614" d="M221.2,220.5l-.8-.7.4-.1-2.1-1.4-.2,2.2.5-.2-.2.6,2.4-.4Zm3.8,6.8.9-.9-1.3-.5.4,1.4Zm-9-2.2-1.8,1.1,1.6.9Zm9.6-5.5-.1,2.1,1.7-.8-1.6-1.3Zm-1.5,1.1-1.9.8,1.8,1.1.1-1.9Zm7.6-2-1.9.8,1.9,1Zm-33.3,2.2,1.8-1.2-1.6-.9-.2,2.1Zm-2-1.7,1.8-1.2-1.6-.9-.2,2.1Zm37.2-1.3-.5-.2v.8l.4-.2-.1.7,1.8-1.2-1.6-.9v1Zm12.7-2.2-.2,2.1.6-.4.1.8.6-.5-.7-.4,1.1-.8-1.5-.8Zm-2.4,3.8-.1,1.3,1.1-.8Zm7.8-6v.5l-.1-.1.1.4v.6l.1-.1.1.7,1.1-.9-.6-.3.3-.2-1-.6Zm-34.3,10.3,1.1-.8-1-.6-.1,1.4Zm-16.1-5h.2l.3.2v-.1h.1v.2l-1.2.7,1.6.9.2-1.8v-.2l.1-.1-.3-.1.7-.4v1.1l1.1-.6h.3l-.9.6.9.5-1.6.7,1.8,1.1.1-1.6,1.1.6.3-2.9-.9.6-.3-.9-.4.7h-.1l-.3-.3-.1.2-.3-.2.3-.2-2.4-.8.1.6-1.5.9,1.1.7v-.1Zm-2.1-.6V218l.1.2.2-.5.4.8,1.7-2.4-2.4.1v-.1l-.1.1h-.5l.1.2-1.3.8,1.8,1Zm.1-1,.1.1h-.1Zm-4-1.7,1.6.9.1-.7.1.1-.1.5,2.9-.4-.7-.7.4-.3v.4l1-.7-.4-.1-1.6-.9-.1,1-.4-.4-.7-.8.9-.6-1.6-.9-.1.6L195,211l.1,3.7,2.4-.3-.3,1-.3.2.1-1-1.7.9Zm20.1,3.3-.8,1.9,1.8-.2Zm-2.5-.9,1,.6.1.2.1-.1,1,.6.3-2.9-2.5,1.6Zm46.8-8.6-2.1.7,1.9,1.4.1-1.1,1,.9.4-1.6-1.5.6.2-.9Zm2.6,1.1.2-2.1-2.2.7,2,1.4Zm-27.2,7.2,1.9,1.1.3-2.5Zm-18.9,11.5,1.1-.2-.8-.8Zm14.7.1,1-.9-1.4-.6Zm-6.4-5.9-1.2.7,1,.7Zm9.1-2.6,1.3-.1-.9-1-.4,1.1Zm24.8-14.5h-1.9l1,2.3Zm-1.3,5.2-.3-.2v.3l-.3.1.1-1.3-1,.3-.9-.2.2.4-.5.1,1.2.9h-.1l1,.9v.2l1.5-.7-1-.9v-.1l.1.2Zm1.5-4.1,1,.9.5-1.6-.7.3-.7-.7-.5,1.1h.4Zm-.2,1.2-1.6.1.1.1-.8.5.7.4.1-.9,1,1.1.5-1.3Zm-18.9,6.4h-.3l.4.4.1.6.3-.2.6.7.7-1.7Zm15.6-6.3-1.6.1,1.1,1.2Zm-21.8,15.6,1,.2-.2-1.1-.8.9Zm6.6-1.3.2-.9-.8.2Zm3.6-5.8.2-.2-1-.4.1.3-.2-.1v.6l-1.5-.8-.2,2.1,1.7-1.1v1.1l1.8-.9-.9-.6Zm-5.4-.4.7.9.4-.9h-1.1Zm.2-2.3.1-.9-.8.5Zm12.5,3.6.7-.7-1-.4.3,1.1Zm-4.5-4-.8.5.7.5Zm-.9-3.6-.2.5-.1-.1-.3.8.9-.1-.2-.3h.3l-.4-.8Zm3.7,1.9.8.3-.1-.9-.7.6Zm-8-1.8,1.4.9.1-.4.8.9.7-1.7-1.3.1.1-.7Zm-.9,1.3-2.2,1.3,1.8,1.2Zm-3.9-1.2-.4,2.4,2.7-.7Zm.3,3.6.7-.2-1.5-1-1.6-1.1-.1,1.2-1.5.9,1.3.8v.3l.4-.1.2.1v-.2l1.4-.4-.3,1.8,2.8-.7-1.8-1.4Zm12.3,5.4-.6.2.9.8.1-.8.8-.6-1.4-.7Zm-4.4-.7.6-.5-.8-.4Zm-39.7-5.8-.7-.7-.3.8Zm3.9,3.1-2.5,1.6,1.1.7v.3l.2-.2.8.5.4-2.9Z" fill="#260807"/>
      <path id="Path_15615" data-name="Path 15615" d="M212.2,222.9l-.7.9.3.1-.7.1,1.3,1.1.3-1.5-.4.1-.1-.8Zm5.2-1.1.6.7.1-.3,1.2.7.1-1.8-1.8.8-.2-.1Zm-.1-5.4h-1.1l.7.9.4-.9Zm7.5.6.2.9.6-.5Zm2.8,1.6v-.3l-.3.2-.6-.3.1.6-1.1.7,1.6.9.1-.9.7-.6-.5-.3Zm-5,0,.6-.6-.8-.3.2.9Zm-5.6.3-.2.6.8-.1ZM206.9,215l-1.6.6,1,1Zm-5.2-3.6.1.6-1.5.9,1.5-2h-.1l.6-.4.5-.1-.2-.1.4-.2.2,1,1-.7L203,210l-1.6-.9v.2l-.8-.7.4-.3-1.6-.9-.2,2-.5.4-1-.9-.7,2.5,2.5-.4.1.1-.1.1h-.2v-.1l-.1.1h-.5l.1.2-1.3.8,1.6.9.1-1.1.8,1.3.2-.3,1.6.9.1-.6v.3l.1-.1v.1l.1-.1,1.8-1.2-2.2-.9Zm-.5-.7h.1v.2H201l.4-.3Zm-1.5.1Zm.1,0h0l.1-1.8.5-.3Zm9.5,6.3,1.6,1.6.4-1.2v.8l.8-.4-.8-.4.4-1.1-2.4.7Zm19.4-2.4-1.6,2.5,2.5.3Zm-15.9,3.8-1.6.3.7.6-1,.3.1-.4-1.6.3.1-.9-1,.4.9.9v-.3l1.3,1,.2-1,1.5,1.5.8-2.4-.4.1v-.4Zm-10.2-5-1.8,1.1,1.6.9Zm24.9,1.7.2-2.1-1.8,1.1Zm-8.1.7-1.9.8,1.8,1,.1-1.8Zm-14.6.3.1-1.6,1.1.6.2-2.5,1.5-.8-1.9-.9.1,1.4-2.2,1.4.9.5-1.6.7,1.8,1.2Z" fill="#260807"/>
      <path id="Path_15616" data-name="Path 15616" d="M232.5,216.9l1.8-1.2-1.6-.9-.2,2.1Zm20.2-8-1-.6-.1,1.3Zm-35.2,8.4-.1,1.3,1.1-.8Zm-22.2-6.9,1.6.9.2-1.6h.3l-.3-.3v-.1H197l-1.9-2.9-.4,4,1.5-.5-.9.5Zm67.9-4.2h-3l1.1,2.2Zm-36.3,11.5-1.4-.6.4,1.6Zm-.4-10,1.4.4-.3-1.6-1.1,1.2Zm22.3-1.5h-3.6l2,1.8Zm-7.5,2.7-.8.5.7.4Zm13.2-1v.3l1.5-.5-.7-.4.4-.3-.2.4.9-.1-.5-.6.6-.5h-2.7l.2,2,.5-.3Zm-36.6-.4-.6,1.3h1.6Zm22.9.9,1.9,1.2.3-1.8.6-.1-.5-.5v-.1l.7-.9-3.1.1,1.4,1.6-1.3.5Zm-.4,4.3.3,1.1.7-.7h-.1l.2-.2v.1l.1-.1,1-.7-1.6-.9v.7h-.1l.1.1v.7l-.6-.1Zm-4.2-2.9-.8.4.7.4.1-.8Zm14.1,3.3-.8-.4.2.9Zm-21.9-.4-.8-.4.2.9Zm-22.9-3.8-1.8,1.1,1.6.9Zm16.7,2.4-1.9.8,1.9,1Zm23.3-3.8-1.6-.9-.1,2.1.9-.6.8-.6Z" fill="#260807"/>
      <path id="Path_15617" data-name="Path 15617" d="M245.4,208.9l.1.1-1.1.6,1.4.9.2-1.2.7.6-.1.9-.4-.2-.1,1.6-.7-.3.1.3-.2-.1.1,1.8,1.6-.8-.2,2.2,3.2-1-2.9-1.9-.1.5-.8-.4,1.2-.8.9.9.6-1.3h-1.1l-.9-.5.7-.4,1.1.8.1-1.1.2.1.1-.5,1,1.1.6-1.3-1.5.1v-.3l-.2.2.1-1.2,2.1,1.6.2-2.2,1.9,1.4.3-2.8-2.6.7.5-.8h-2.7l.8,1.4-.4.1v-.1l-3.5,1,.1-.1-1-.6-.1,1.3.7-.3Zm-45-1.4,1.6.9v-.1l1,1,.4-.8,1.2.8.1-.7.1.4,1.5-.9.7,1-.4.3.9.5-1.6.7,1.8,1,.1-1.6,1.1.6.3-2.9-.4.3,1.6-1.8-5.2.1.6.9-1.1-.4.1.6-.9.6.8-1.7H200l1,1-.6.2Zm17.8,1.5-.8,1.9,1.8-.2Z" fill="#260807"/>
      <path id="Path_15618" data-name="Path 15618" d="M209.2,208.1l.8,2.9-.6.4.3-1-1.6.6.8.8-1.4.9,1,.6-2.1-.4,1,3.6,1.3-1.1.6.4.6.5.1-.9.4.4v.5l1.1-.6.7.7.2-.7.2.2v-.1l1.7,1,.2-1.9.2.2-.2.6,1.8-.2-.8-1.3v-.1h-.1l-.1-.2-.1.3-.6.1v-.2l1.3-.5-1.7-1.1.2-.6-.8.2-.7-.4-.1.7-1,.3.8.8-.1.7-1.9.7-.1-.1.1-.3-.4.1h-.1l-1,.2.8-.7v.3l.6-.5-.8-.4v.2h-.2l.2-2.2.1.5,1.9-1.6,1.3,1,.2-1,1.5,1.5.2-.7,1.9,1.1.3-2.9-1.2.8,1.7-3.4,1.5,1.9.7-.9-.6,1.5h-1.1l1.2,2.6h-.7l.7.9.4-.9h.3l1.8-2.2.4.1-.4,1.6.8-.1-.2.2,1.2.3v.3h-.1l.1,1.8.4-.2.1.2-.9.1-.2-.2v.2h-.2l.1.2v.8l-1.7-1.1.1-.1-1-.6-.1,1.3.7-.5-.2,1.4-1.3-1.3.1-.9-.7.4.1-1-2.5,1.6,2.2,1.3.1-1.3.4.3-.4,1.6,1.9-.3v.6h.1v.4h-.1l.1,1.5H220l1.3,1.5.2,1.9,1.9-1.1,1.3-.6-1.6-1.3-.1,1.8-1.5-.6.7-1.6h-.9l1.3-.6-.7-.3.7-.4,1.5.9.1-1.8-1.7.7-1.2-.5h.1v.1l1.6-.5v.2l1.1-.5.2.2.1-.3.2-.1-.1-.1.1-.2.5,1,.6-1-.1,2,1.7-.8-1.5-1.3.8-1.2-2,.1.9-.4-.7-.3.7-.4,1.5.9.1-1.8-1.7.7-1.2-.5,1.7-.6v.2l1.7-.8-1.6-1.3v1.2l-1.9-1.2.9-1.2-1.6.1.4-.8-2.2-.1,1.3,2,.5-1,.6,1-.2,1.8-.1-.1-.1-.3-.1.1-.8-.8-.2-1.3-1,1.1h-.1l-.8-1.8,1-1.2h-7.8l-3.3.1,1.6,2.4-2.9-1.5Zm3.6,6.5.1-.2,1.6-.5-.6.3-1.2.8.1-.4Zm-3.3.3.2.1-.2.1v-.2Zm-.7.2.4-.4.1.1-.5.3Zm6.8-5,.1.2-.2.2.1-.4Zm-3.3-1.3,1-2.1,1.9,2.8-1.6.6.1-.4-1.5.3,1.2-1-1.1-.2Zm17.4-.4.3.4-.8.5-.2-.2-.2.4-.2.1.1.1-.1.3-.3-.2-.1,2.1,1.7-.8-1.1-1h.6l.8.5.1-1.3.9,1.1-1.4,2.1,2,.2h-1.2l.7.9-.9.4h-.1l.2-.1-2.1-1.4-.2,2.2,1.5-.5v.1l.1.7-.1-.1-.4,1.9,2.1-.5-1.6-1.2.5-.4,1.1.6.1-1.5.5.7.8-1.8h-.6l-.2-.5,2.1-.5-1.7-1.4-.4,1.9-.4-1.1.7-1.4,1.8,1,.1-1.5.5.7.8-1.8h-1.2l1-1.7,1.2,2.4-.2,1.7,2.1-.7-.3,1.8,2.8-.7-1.3-1,.1-.5.2-.1-.1-.1.3-2.9-1.1.3.2-.4h-3.7v-.1l-3.8.7.3-.7h-4.1l1.8,2.1v.2Zm4.6.5.1.1-.2.1.1-.2Zm-1.2,0,.4.5-.8.3.4-.8Zm-1.3-1.7.5.6-.8.2Z" fill="#260807"/>
      <path id="Path_15619" data-name="Path 15619" d="M226.8,208.4l1.1,2.2,1.5-2.4Zm-27.3-2-4.5-.1,2.8,2.5Zm28.1-.2h-3.7l1.8,2.3Zm-24.7,29,1.2.2-.3-1.4Zm-.6-8.1.1,1,1-.6Zm8.9,6.2.2-1.2-1,.3Zm6.1,5.5,1.2.2-.4-1.4Zm-.6-8.1.1,1,1-.6Zm8.9,6.1.2-1.2-1,.3Zm.8-2.3,1.5.2-.4-1.6-1.1,1.4Zm-.7-8.5,1.2-.7-1.3-.6Zm10.6,6.2.2-1.4-1.2.4Z" fill="#260807"/>
    </g>
    <g id="Group_1200" data-name="Group 1200">
      <path id="Path_15620" data-name="Path 15620" d="M165.5,396.7l1.2-.1-.8-1.2-.4,1.3Zm-8.3-6.4.9.9.4-1.3-1.3.4Z" fill="#a05a3c"/>
      <path id="Path_15621" data-name="Path 15621" d="M166.8,395.7l-.5,2.1,2.5-.4Zm-7.1-5.9-.1,3,3-.7Zm2.2,4.6,1.7-.5-.9-1.6Zm6,3.2.2.8.6-.6-.8-.2Zm-11.7-5.2.7.6.2-1Zm-4.8-8.1.8.6.2-1Zm5.1,6.2-.3.7h.8Zm9.7,4.6-2.2-1.8-.5,3.2,2.7-1.4Zm-1.9,3,.1.9.9-.4Zm-9.9-11.4-.6,1.9,2.3-.2-1.7-1.7Zm8.9,8.7-2.1-.2.9,2.2,1.2-2Zm-2.5.9-.1-.8-.7.5Zm4.3,4.9-.4-1.4-1.2,1.1,1.6.3Zm-7.9-7.4.9.8.4-1.2-1.3.4Z" fill="#a05a3c"/>
      <path id="Path_15622" data-name="Path 15622" d="M167,400.6l1-1.4-2-.3,1,1.7Zm-2.1.2,1-.6-1.2-.8Zm-8.1-13.5-.5,2.5,2.6-.7Zm-2.9-2.3-.3,1.5,1.6-.4Z" fill="#a05a3c"/>
      <path id="Path_15623" data-name="Path 15623" d="M164.9,401.3l1.2-.6-1.3-1Zm-6.5-8L160,395l.9-2.3-2.5.6Zm5.6,3.9-.6,1,1.3.3Z" fill="#a05a3c"/>
    </g>
    <g id="Group_1201" data-name="Group 1201">
      <path id="Path_15624" data-name="Path 15624" d="M335.4,401.9l-.9,1.1,1.6.5Zm-3.1-.4.3,1.4,1.3-1-1.6-.4Zm-1.9,6.5.4,1.4,1.2-1Zm-2.3-2.2-.5,1.4h1.6Z" fill="#c67463"/>
      <path id="Path_15625" data-name="Path 15625" d="M327.8,404.9l.4,1.4,1.2-1Zm-7.4,4.6.3,1.2,1-.9-1.3-.3Zm4.4,1.6.2,1.2,1.1-.9-1.3-.3Zm-8-1,.3,1.1,1.1-.9Zm19.1-.6.3,1,.9-.7-1.2-.3Zm-.8-1.7.6.8.5-.9Zm-9.9-1,1-.2-.7-.9Zm7.4.4.8-.1-.6-.8-.2.9Z" fill="#c67463"/>
      <path id="Path_15626" data-name="Path 15626" d="M327.6,405.7v-.8l-.9.3Zm8.3,1v-.9l-.9.4Zm-13.5,3.9.3.6.5-.6Zm12.8-5.5.5.2-.1-.7Zm.3-4.3v.5l.6-.2Zm-9.8,8.7.2.5.4-.5Zm-2.6,2.2.8.2-.3-1Zm5.5-5.8.1.8.8-.4Zm7.9,3,.8.2-.3-1Zm-16,3.4-.2-.8-.8.5Zm-3.7-.2.6-.3-.6-.5Zm1.7-2.6.4.6.3-.7-.7.1Zm8.9-1.5.1.7.7-.4-.8-.3Zm7,2.8.4-.7-1-.1.6.8Zm-.5-5.5.6-1.2-1.6-.1,1,1.3Zm-1.3,7,.3-.7-.9-.1.6.8Z" fill="#c67463"/>
      <path id="Path_15627" data-name="Path 15627" d="M334,410.6l.3-.7h-.9Zm-12.3.9,1.4.3-.4-1.6-1,1.3Zm-7.4.9,1.4.2-.4-1.5Zm7.1-4,1.4.3-.4-1.6-1,1.3Zm3.9-.6v.9l1-.4Zm10-1.9.3-.8h-.9Zm-12.6,1.4,2,.9.1-2.4Z" fill="#c67463"/>
    </g>
    <g id="Group_1202" data-name="Group 1202">
      <path id="Path_15628" data-name="Path 15628" d="M314.9,405.8l.5.7.4-.7Zm11.6-1.7.8-.4-.8-.6Zm-9.6-1.2.4.8.4-.7-.8-.1Zm15.2.1.7-.3-.7-.5Zm-3.8-6.8-.1-.6-.6.4Zm-4.1,6.5.4-.6H324Zm-5.2,1.4-1.1.9,1.1.4Zm-2,.6-.8,1.2,1.7.1-.9-1.3Zm4.6.7-1.4.1.5,1Zm2.3-7.5-1.1-.7.1,1.3,1-.6Zm10.3-6.5,1.1.7.1-1.2Zm-19.1,10.8.9-.9-1.1-.4Zm1.1,6.5.8.8.5-1.3Zm3.9-9-1.2-.7.1,1.3,1.1-.6Zm-3.6,8.4.9-.8.6.5.3-.8-.8.2.2-.2-1.7-.2Zm6.9-3.4,1-.7-1.2-.6.2,1.3Zm-.8-4.2-.4-2.8.3.1-.1-.7-.7.5.2.1-1.5,1.6,2.2,1.2Zm-1.7,1.9-1.3,1.3,1.6.8-.3-2.1Zm3-3.2.8-.4-.8-.6Zm7.8-5.4v-1l-.9.5Zm-6.8,3.8-.1-.7-.7.5.8.2Zm2.2.9-.1-.8-.7.6.8.2Zm-12.5,3.8.7.6.2-.5,2.8.2-.7-2.1.5-.5-1.4-.2.3.7-1.7,1.7-.7.1Zm12.8-7.4-.9.6.9.3Z" fill="#ad5c49"/>
      <path id="Path_15629" data-name="Path 15629" d="M319,401.2l.5-.7-.8-.1.3.8Zm.7-.6-.3.7.9-.1Zm2.4,2.8.8-.9-1.4-.2Zm-6.4,1.6-.9-1.3-.3.5.1-.5.2-.5-1.3.5.2.2-.6.2,1,.9.1-.2,1.5.2Zm6.6-5.8.1,1.3,1-.6-1.1-.7Zm11.1-6.1v-1.3l-1.1.9Zm-19.8,8.6-1,.9,1.1.4Zm12.6-6.2-3.1,1.5,2.9,1.6Zm3.3-.4.1-1.5-1.5.7Zm1.1-1.4-.9.4.8.5Zm-9.5,5.5.2,1.3,1-.7-1.2-.6Z" fill="#ad5c49"/>
    </g>
    <path id="Path_15630" data-name="Path 15630" d="M313.7,391.3l.4-1-1,.3Z" fill="#68322e"/>
  </g>
</svg>
