<svg xmlns="http://www.w3.org/2000/svg" xmlns:xlink="http://www.w3.org/1999/xlink" width="433.701" height="255.301" viewBox="0 0 433.701 255.301">
  <defs>
    <linearGradient id="linear-gradient" x1="0.421" y1="0.952" x2="0.494" y2="0.542" gradientUnits="objectBoundingBox">
      <stop offset="0" stop-color="#cc7a5e" stop-opacity="0"/>
      <stop offset="0.924" stop-color="#aa5f4b"/>
    </linearGradient>
    <linearGradient id="linear-gradient-2" x1="0.339" y1="0.816" x2="0.564" y2="0.235" gradientUnits="objectBoundingBox">
      <stop offset="0" stop-color="#093f5c" stop-opacity="0"/>
      <stop offset="1" stop-color="#094193"/>
    </linearGradient>
    <linearGradient id="linear-gradient-3" x1="0.582" y1="0.928" x2="0.406" y2="0.071" gradientUnits="objectBoundingBox">
      <stop offset="0" stop-color="#151e28" stop-opacity="0"/>
      <stop offset="0.998" stop-color="#151e28"/>
    </linearGradient>
    <linearGradient id="linear-gradient-4" x1="0.113" y1="0.49" x2="1.692" y2="0.618" xlink:href="#linear-gradient-3"/>
    <linearGradient id="linear-gradient-5" x1="0.226" y1="0.878" x2="0.632" y2="0.163" gradientUnits="objectBoundingBox">
      <stop offset="0.017" stop-color="#7c59aa" stop-opacity="0"/>
      <stop offset="1" stop-color="#5530b0"/>
    </linearGradient>
    <linearGradient id="linear-gradient-6" x1="0.441" y1="0.508" x2="0.589" y2="0.489" xlink:href="#linear-gradient-5"/>
    <linearGradient id="linear-gradient-7" x1="0.44" y1="0.51" x2="0.597" y2="0.487" xlink:href="#linear-gradient-5"/>
    <linearGradient id="linear-gradient-8" x1="0.489" y1="0.486" x2="0.563" y2="0.544" xlink:href="#linear-gradient-5"/>
    <linearGradient id="linear-gradient-9" x1="0.547" y1="0.112" x2="0.457" y2="0.996" gradientUnits="objectBoundingBox">
      <stop offset="0.017" stop-color="#7c59aa"/>
      <stop offset="1" stop-color="#5530b0"/>
    </linearGradient>
    <linearGradient id="linear-gradient-10" x1="0.489" y1="0.486" x2="0.545" y2="0.515" xlink:href="#linear-gradient-5"/>
    <linearGradient id="linear-gradient-11" x1="0.495" y1="0.399" x2="0.509" y2="0.655" xlink:href="#linear-gradient-5"/>
    <linearGradient id="linear-gradient-12" x1="0.39" y1="0.985" x2="0.478" y2="0.616" gradientUnits="objectBoundingBox">
      <stop offset="0" stop-color="#cc7a5e" stop-opacity="0"/>
      <stop offset="1" stop-color="#aa5f4b"/>
    </linearGradient>
    <linearGradient id="linear-gradient-13" x1="0.655" y1="0.493" x2="1.235" y2="0.656" gradientUnits="objectBoundingBox">
      <stop offset="0" stop-color="#4089c2" stop-opacity="0"/>
      <stop offset="0.891" stop-color="#247cde"/>
    </linearGradient>
    <linearGradient id="linear-gradient-14" x1="0.484" y1="0.587" x2="0.405" y2="1.182" xlink:href="#linear-gradient-13"/>
    <linearGradient id="linear-gradient-15" x1="0.509" y1="0.709" x2="0.466" y2="-0.243" xlink:href="#linear-gradient-13"/>
  </defs>
  <g id="_57" data-name="57" transform="translate(-36.699 -208.1)">
    <path id="Path_12481" data-name="Path 12481" d="M198.7,398.3l5.3-28.2,28.2,6.8-5.9,35.7Z" fill="#ea9d7d"/>
    <path id="Path_12482" data-name="Path 12482" d="M200.4,390.5a.4.4,0,0,1-.2-.4l3.2-17.3c.1-.2.3-.4.5-.3a.382.382,0,0,1,.3.5L201,390.3c-.1.2-.3.4-.5.3Z" fill="#cc7a5e"/>
    <path id="Path_12483" data-name="Path 12483" d="M212.3,393.9c11.1,3.2,17.2.1,17.2.1l2.6-13.9-28.5-6.4-3,14.6a36.378,36.378,0,0,0,11.7,5.6Z" fill="url(#linear-gradient)"/>
    <g id="Group_877" data-name="Group 877">
      <path id="Path_12484" data-name="Path 12484" d="M201.4,387.5l-.1.9.8-.3Zm10.6.8,1,.2-.3-1Zm-9.3-2.5.8,2.2,1.2-1.9Zm11.3,2.9.8.2-.2-.8Zm-5.5-.4.7-.2-.5-.5Zm-6,1.4.2-.1-1.5-.9-.2,1.4,1.2-.3.4.8.7-.7Zm2.4.3.9-1.1h-1.5Zm-2.5-1.6,1.3,1.3.2-1.6Zm4.5.5,1.4-.3-1.1-.8Zm-1.7,2.3.9-1.1h-1.4Zm-1.4.8,1.3-.7-1.4-.6Zm8-4.7-1.3-.1.5,1.3Zm-1.4-.2-1.3-.2.5,1.3Zm-1.6-.3-1.3-.2.5,1.3Zm-2.2-.2-1.9.2.6,1.8Zm9.9,2.7.4-.6-.9-.1Z" fill="#ad5c49"/>
      <path id="Path_12485" data-name="Path 12485" d="M212,390.5l.4-.6-.9-.1Zm-5.1,1.8.5-.7-1-.1Zm1.8-1.7,1.3-.2-1-1.1Zm-4.3-.5-1.3-.5.1,1.2Zm-2.9-2.9,1.2-.1-.9-1.2Z" fill="#ad5c49"/>
    </g>
    <path id="Path_12486" data-name="Path 12486" d="M167.9,242.6S196.3,295.9,198,312c2.5,23.1-.7,65.7-1.3,73.4a1.109,1.109,0,0,0,1.1,1.3l38.1,3.6s16.7-66.9,20.2-92.7c1.8-13.4-28-82.9-28-82.9l-60.2,27.9Z" fill="#73b7e5"/>
    <g id="Group_878" data-name="Group 878">
      <path id="Path_12487" data-name="Path 12487" d="M197.505,373.71l.1-.995,41.085,4.225-.1.995Z" fill="#d2ebff"/>
      <path id="Path_12488" data-name="Path 12488" d="M215.2,374.8l-1-.1c.1-.5,7.8-54.7,7.8-65.5,0-12.3-17-59.7-17.1-60.2l.9-.3c.7,2,17.2,48.1,17.2,60.5,0,10.8-7.8,65-7.8,65.6Z" fill="#d2ebff"/>
    </g>
    <path id="Path_12489" data-name="Path 12489" d="M167.9,243.3S185,273.9,191,292.5s8.9,25.3,8.2,35,43.2,35,43.2,35,12.4-51.7,13.6-65-28-82.9-28-82.9Z" fill="url(#linear-gradient-2)"/>
    <path id="Path_12490" data-name="Path 12490" d="M176.72,269.64l9.965-4.162,10.56,25.282-9.965,4.162Z" fill="#595959"/>
    <path id="Path_12491" data-name="Path 12491" d="M229.2,393.3a128.113,128.113,0,0,1-13,1.5,62.876,62.876,0,0,1-16.5-.8l.4,11.2s1,1.6,14,1.5,15.8-4,15.8-4l-.7-9.4Z" fill="#fff"/>
    <path id="Path_12492" data-name="Path 12492" d="M229.4,395.6l-.1-4.4a65.069,65.069,0,0,1-14.2,1.9,83.553,83.553,0,0,1-15.5-.8l.2,4a73.223,73.223,0,0,0,16.5.8C223.1,396.5,227.3,396,229.4,395.6Z" fill="#10646c"/>
    <g id="Group_879" data-name="Group 879">
      <path id="Path_12493" data-name="Path 12493" d="M267.6,423.8v-3.1l-71.5-6.1-.2,4.3a1.828,1.828,0,0,0,1.7,1.7l67.2,5.8a2.825,2.825,0,0,0,2.8-2.6Z" fill="#fed6d6"/>
      <path id="Path_12494" data-name="Path 12494" d="M267.5,419.5c-.6-3.3-8-9.3-13.2-11.9l-1.6-.8-4.2,12.3,19.2,1.6A2.537,2.537,0,0,1,267.5,419.5Z" fill="#fed6d6"/>
    </g>
    <path id="Path_12495" data-name="Path 12495" d="M244.8,401.7l-4.3,6.7a1.583,1.583,0,0,1-1.6.6.52.52,0,0,1-.4-.2,1.309,1.309,0,0,1-.2-1.9l4.3-6.7-2.5-1.8-5.7,7.1a1.237,1.237,0,0,1-1.4.4.55.55,0,0,1-.5-.3,1.4,1.4,0,0,1-.1-1.9l5.5-6.8-1.9-1.4-.7-6.7a1.208,1.208,0,0,0-1.3-1.1c-1,0-2.4.6-3.2,3.3a19.181,19.181,0,0,0-.7,7.9,30.615,30.615,0,0,1-15.2,5.3,25.4,25.4,0,0,1-15.9-4.3,1.319,1.319,0,0,0-2.1.8,30.778,30.778,0,0,0-.8,8.4c0,1.9.2,3.9.3,5.6l52.3,4.5,4.2-12.3c-2.5-1.4-5.4-3.3-8.1-5.2Z" fill="#ad203a"/>
    <path id="Path_12496" data-name="Path 12496" d="M232.4,405.7c.2.1.3.2.4.2a1.354,1.354,0,0,0,1.4-.4l5.7-7.1c-.9-.5-1.6-1.1-2.2-1.5l-5.5,6.9a1.4,1.4,0,0,0,.2,1.9Zm6.2,3.1c.1,0,.2.1.4.2a1.477,1.477,0,0,0,1.6-.6l4.3-6.7-2.2-1.5-4.3,6.8a1.078,1.078,0,0,0,.2,1.8Z" fill="#fff8f8"/>
    <g id="Group_880" data-name="Group 880">
      <path id="Path_12497" data-name="Path 12497" d="M196.2,415.2v-1.4l71.4,6,.2,1.5-71.6-6.1Z" fill="#442624"/>
      <path id="Path_12498" data-name="Path 12498" d="M249.1,419.2l-1.3-.4,4.2-12.5,1.2.8-4.1,12.1Z" fill="#442624"/>
    </g>
    <g id="Group_881" data-name="Group 881">
      <path id="Path_12499" data-name="Path 12499" d="M240.4,410.6l.9-.1-.6-.8-.3.9Zm5.3,0-1.2-.2.3,1.4.9-1.2ZM235,389.2l-1.2-.8-.3,1.7,1.5-.9Zm-1.2,5.7-.2,1.6,1.4-.9Zm16,10.5.2-.1-1-.7-.2,1.4.7-.4-.2,1.5,1.4-.9Zm-21-5.6-1.3.6,1.2,1.1Zm2.8-.6-1.5-.2.5,1.6Zm8.7,2.3-1.4-.3.4,1.7,1-1.4Zm-1,3.4,1.1-1.4-1.4-.3.3,1.7Zm10,7.4.9-1.1L249,411l.3,1.3ZM245,401.9l-1.1,1,1.5.6Zm-16.7-.1-1.5-.9-.1,1.5Z" fill="#dd5472"/>
      <path id="Path_12500" data-name="Path 12500" d="M225.4,403.1l1.6-.6-1.5-.9Zm-3.7,3.6,1.5-.6-1.5-.9Zm16.8-5.6-1.1,1.1,1.5.6Zm-18.3,2.5-.1,1.1-.8,1.1,1.6.4-.5-1.1,1.2-.5Zm-8.8,2.7,1.3-.5-1.2-.7Zm10.5-3.3-.1,1.2,1.3-.5Zm-16.5,2.5,1.3-.5-1.2-.7Zm-2.8-3.6v1.2l1.2-.5Zm6.4,3.2-1.2-.7v1.3l1.2-.6Zm-9.6-4.8v1.3l1.3-.5Zm48.5,5.1-.9.9,1.3.5-.4-1.4Zm-1.2-2.4-1.1-.5-.1,1.4,1.2-.9Zm-.1,2.7-1.4-.3.4,1.7,1-1.4Zm-5.5,9.5-.5.2-.2-.4-.2.7.3-.1.5.2.1-.6Zm3.7-11.1-1.2-.2.3,1Zm.2.5.9.5-.1-1-.8.5Zm3,4.4.9-.4-.7-.6Zm-45.1-1.5,1.1-.3-1-.7Zm6.2-.8.2-.9-.8.1Zm-8.1-2.2,1,.2-.3-.8-.7.6Zm30.4-4.2,1.1-.1-.8-.9Zm-4.8,6.2.8-.8-1.2-.2Zm6.9-5.9,1.1-.1-.8-.9Zm7,.3.6-.8-.8-.2Zm-5.6-1.4.6-.8-.8-.2Zm-.7,6.8.9.4-.1-.8-.8.4Zm-.6-8.7-.7.5.9.3Zm-5,13.5.9.2-.2-1.2Zm0-6,.8-.4-.9-.5.1.9Zm6,4.3.6.8.2-.9Zm-3.3-2.8.9.2-.3-1.2-.6,1Zm-.7-2.3-.7.9.9.2Zm-13-.6-.6,1.1,1,.1Zm13.8,0,.5-.7h.1l-.1-.1.4-.6h-.6l-.2-1-1.1,1,.3.1.7,1.3Zm4.1-9.1-.3-2.1-1.5,1.1Zm-31.8,9.3-.8.3.7.7Zm11.3.5h-1l.6.7Zm9.2,3,.8.1-.4-.9-.4.8Zm-4.1-3.8-.9.1.7.8Zm7.4,1.2.3-.8-.9.1.6.7Zm-14.4-.5.1.7.6-.4-.7-.3Zm15-1.1.5.4.2-.8Zm1.7-4.1-.2.5h.6l-.4-.5Zm2.8-2.1.1.6.3-.5-.4-.1Zm10.7,9.1-.7.3.6.4.1-.7Zm-7.9,2.2.5-.1-.4-.5Zm2.8-5.1-.6-.1.2.5.4-.4Zm5.5,11.3.6.4.1-.7-.7.3Zm-1.1-3.4.4-.5h-.6l.2.5Zm7.6-3-.7.3.6.4.1-.7Zm-3.7,1.5-.4-.5-.1.6h-.2l.2,1,.6-.5-.6-.4Zm2.3-5.1h-.6l.3.5Zm-27.4,6.1.5-.3-.6-.3.1.6Zm5.6-.9.4.5.1-.7Zm8.7,3.3.6-.7-1-.4Zm-5.9-3.2.8.4.1-1-.9.6Zm7.1-4.1-.1.9.9-.2-.8-.7Zm-24.4,1.9.7.6.1-.9Zm-2.6-.4.7.6.1-.9Zm-2.6-.7.7-.1-.4-.7-.3.8Zm2.4-2.1.2.7.5-.6Zm9.2,2.2-.1.7.8-.2Zm-19.3-2.5.5-.6-.9-.3Zm29.9-1.5,1-1L229,401Z" fill="#dd5472"/>
      <path id="Path_12501" data-name="Path 12501" d="M221.1,408.6l.4.9.6-.7-1-.2Zm4.4-3.8-.8-.3.3,1Zm-8,1.2,1.3.7.1-1.7-1.4,1Zm-10.7-1.2,1.1-1.3-1.4-.4.3,1.7Zm-2.5-.6,1.1-1.2-1.4-.4.3,1.6Zm-3.1-2.9-.1,1.6,1.4-1-1.3-.6Zm9,3.7,1.2.7.1-1.7Zm-13.3-3.4,1.3.7.1-1.6-1.4.9Zm19.8,9.6.6-.1-.5-.4Zm17.2-19,.8-.8-1.2-.5Zm-16.3,15.1-.9.6.9.5Zm1.2,1.2,1-.1-.8-.8Zm25.9-3.1h-.2v0l-.6.1.2.4-.1.2h.3l.3.4.1-.4h.3l-.2-.4-.1-.3Zm1.7,6.2h.9l-.3-.8-.6.8Zm-7.2-1,.7-.6-.8-.4Zm2.9-10.5-1,.2.6,1Zm-4.8,4.5-.8-.4.2,1Zm5.6,4.1.9.2-.2-1.2Zm-2.1-9.3-.8-.4v.9Zm5.3,4.3.4.5.6,1,.1-.5,1.1.4-.4-1.4-.5.6.1-.3-.6.1.2-.7-1,.3Zm3.7,5.6-.6.7,1,.1-.4-.8Zm-8.2-1.3.2,1,.6-.5Zm4.3,0h1.2l-.8-.9Zm4.8.8.6-.7-.8-.2.2.9Zm-6.3,4.8.9.4-.1-.8-.8.4Zm7.5-7.3-.9-.4v1.2l.9-.8Zm-54.1-5.7,1.2-.5-1.4-.4Zm39.1-2.7-1.3-2.3-1.2,1.9Zm-20.4,6.2-1.6,1.7v-.1l-1.4,1,1.3.7.1-1.4,1.9.6-.3-2.5Zm9.1-.6-2.4-.8.3,2.2,2.1-1.4Z" fill="#dd5472"/>
    </g>
    <path id="Path_12502" data-name="Path 12502" d="M183.1,284.5l-6.3-14.8,9.9-4.2,6.6,16.1Z" fill="url(#linear-gradient-3)"/>
    <g id="Group_882" data-name="Group 882">
      <path id="Path_12503" data-name="Path 12503" d="M401.4,458.1l-6.9-73.8,6.9-74.3,1.5.2L396,384.4l6.9,73.5Zm-18.8,3.3-1.5-.2,7-76.8-7-70.9,1.5-.2,7,71.2Z" fill="#595959"/>
      <path id="Path_12504" data-name="Path 12504" d="M467.6,396.6l-74.3-6.9-73.5,6.9-.1-1.5,73.7-6.9,74.3,6.9Zm-74.3-13.3h0l-77-6.9.1-1.5,76.9,6.9,70.9-6.9.2,1.5Z" fill="#595959"/>
      <path id="Path_12505" data-name="Path 12505" d="M348.6,444.5l-1.2-1,47.3-57.1,57.4-47.6,1,1.2-57.3,47.5Zm-16.8-11.9-1-1.2L390.1,382l45.2-55.1,1.2,1-45.4,55.2Z" fill="#595959"/>
      <path id="Path_12506" data-name="Path 12506" d="M449.8,430.6l-57.1-47.2-47.6-57.5,1.2-1,47.6,57.5,56.9,47Zm-12.1,16.6-49.4-59.3-55.1-45.2,1-1.2,55.2,45.4,49.5,59.3Z" fill="#595959"/>
    </g>
    <circle id="Ellipse_357" data-name="Ellipse 357" cx="10.4" cy="10.4" r="10.4" transform="translate(381.6 374.6)" fill="#283749"/>
    <path id="Path_12507" data-name="Path 12507" d="M392,321.6A63.4,63.4,0,1,1,328.6,385,63.483,63.483,0,0,1,392,321.6m0-15A78.4,78.4,0,1,0,470.4,385,78.4,78.4,0,0,0,392,306.6Z" fill="#333"/>
    <path id="Path_12508" data-name="Path 12508" d="M392,324.5a60.6,60.6,0,1,1-60.6,60.6A60.688,60.688,0,0,1,392,324.5m0-7a67.6,67.6,0,1,0,67.6,67.6A67.644,67.644,0,0,0,392,317.5Z" fill="#71b9ea"/>
    <g id="Group_883" data-name="Group 883">
      <path id="Path_12509" data-name="Path 12509" d="M124.4,458.1l-6.9-73.8,6.9-74.3,1.5.2L119,384.4l6.9,73.5Zm-18.8,3.3-1.5-.2,7-76.8-7-70.9,1.5-.2,7,71.2Z" fill="#595959"/>
      <path id="Path_12510" data-name="Path 12510" d="M190.6,396.6l-74.2-6.9-73.6,6.9-.1-1.5,73.7-6.9,74.3,6.9Zm-74.2-13.3h-.1l-77-6.9.1-1.5,77,6.9,70.9-6.9.1,1.5Z" fill="#595959"/>
      <path id="Path_12511" data-name="Path 12511" d="M71.7,444.5l-1.2-1,47.3-57.1,57.4-47.6,1,1.2-57.4,47.5ZM54.9,432.6l-1-1.2L113.1,382l45.3-55.1,1.2,1-45.4,55.2Z" fill="#595959"/>
      <path id="Path_12512" data-name="Path 12512" d="M172.9,430.6l-57.1-47.2L68.2,325.9l1.2-1,47.5,57.5,57,47Zm-12.1,16.6-49.5-59.3-55-45.2,1-1.2,55.2,45.4L162,446.2Z" fill="#595959"/>
    </g>
    <circle id="Ellipse_358" data-name="Ellipse 358" cx="10.4" cy="10.4" r="10.4" transform="translate(104.7 374.6)" fill="#283749"/>
    <path id="Path_12513" data-name="Path 12513" d="M392,321.6A63.4,63.4,0,1,1,328.6,385,63.483,63.483,0,0,1,392,321.6m0-15A78.4,78.4,0,1,0,470.4,385,78.4,78.4,0,0,0,392,306.6Z" transform="translate(-276.9)" fill="#333"/>
    <path id="Path_12514" data-name="Path 12514" d="M392,324.5a60.6,60.6,0,1,1-60.6,60.6A60.688,60.688,0,0,1,392,324.5m0-7a67.6,67.6,0,1,0,67.6,67.6A67.644,67.644,0,0,0,392,317.5Z" transform="translate(-276.9)" fill="#71b9ea"/>
    <path id="Path_12515" data-name="Path 12515" d="M200.8,270H184.3s-21,6.2-27.8,7c-5,.6-12.5-2.4-12.5-9.8V263c0-8.4,7.7-10.4,12.5-10.4h44.3a8.71,8.71,0,0,1,8.7,8.7h0a8.71,8.71,0,0,1-8.7,8.7ZM397.1,381.3,335.5,227.4a5.385,5.385,0,1,0-10,4l9.1,22.7L190.1,286.5c-.2,0-.3.1-.5.1h-.1c-.1,0-.2.1-.4.1H189c-.1.1-.3.1-.4.2l-.1.1c-.1.1-.2.1-.3.2a.1.1,0,0,0-.1.1l-.8.8c-.1.1-.2.2-.2.3l-76.3,93.1a5.368,5.368,0,0,0-.7,5.7,5.49,5.49,0,0,0,4.5,3.1c4.2.5,76,12.3,123.5,20.2h1.6a.6.6,0,0,0,.4-.1c.1,0,.2,0,.2-.1.1,0,.2-.1.4-.1.1,0,.2-.1.3-.1s.2-.1.3-.1.2-.1.3-.2c.1,0,.2-.1.3-.2s.2-.1.3-.2.2-.1.2-.2c.1-.1.2-.1.2-.2l.5-.5c.1-.1.1-.2.2-.2h0L340.4,269,387,385.4a5.4,5.4,0,0,0,5,3.4,4.767,4.767,0,0,0,2-.4A5.453,5.453,0,0,0,397.1,381.3Zm-282.4,8.9Zm10.4-9.2,64.7-78.9,40.5,96.1L125.1,381Zm115.1,13-41.5-98.4,130.5-29.2Z" fill="#7c59aa"/>
    <path id="Path_12516" data-name="Path 12516" d="M346.3,209.3s-20.9,3.5-22.9,13.1c-1.8,8.8,3.8,15.7,3.8,15.7l19.1-7Z" fill="#595959"/>
    <path id="Path_12517" data-name="Path 12517" d="M333.7,213.3l8.8.7,3.5,17.2-17.3,6.3-.6-6.2C328,216.5,333.7,213.3,333.7,213.3Z" fill="url(#linear-gradient-4)"/>
    <path id="Path_12518" data-name="Path 12518" d="M156.5,277c6.8-.8,27.8-7,27.8-7h16.5a8.7,8.7,0,0,0,0-17.4H156.5a10.283,10.283,0,0,0-1.7.1c3.5,3,6.8,7.6,3.1,13.1-2.9,4.2-7.5,6.2-11.8,7.2A12.194,12.194,0,0,0,156.5,277Z" fill="url(#linear-gradient-5)"/>
    <path id="Path_12519" data-name="Path 12519" d="M338.2,234.3l58.9,147s2.2,4.9-3,7c-4.8,1.9-7-3-7-3L333,236.2Z" fill="url(#linear-gradient-6)"/>
    <path id="Path_12520" data-name="Path 12520" d="M199,295.5,243.8,403a5.038,5.038,0,0,1-2.9,7c-4.8,2-7-2.9-7-2.9L193.8,297.5l5.2-2Z" fill="url(#linear-gradient-7)"/>
    <path id="Path_12521" data-name="Path 12521" d="M189.6,301.6l-70.5,86.5s-3.2,4.3-7.6.8c-4-3.2-.8-7.6-.8-7.6l76.6-85.9Z" fill="url(#linear-gradient-8)"/>
    <path id="Path_12522" data-name="Path 12522" d="M232,409.1,114.3,390.2a5.035,5.035,0,0,1-4.5-6.1c.7-5.1,6.1-4.5,6.1-4.5l114.4,18.9Z" fill="url(#linear-gradient-9)"/>
    <path id="Path_12523" data-name="Path 12523" d="M340.5,268.9,244.3,407l-4.6-6.6L337.2,266C337.2,265.9,341.1,264.3,340.5,268.9Z" fill="url(#linear-gradient-10)"/>
    <path id="Path_12524" data-name="Path 12524" d="M198.8,295.6l130.4-29.2s3.2-5.2-6.6-3.4c-9.8,1.9-118.5,26.5-123.2,27.8s-.6,4.8-.6,4.8Z" fill="url(#linear-gradient-11)"/>
    <path id="Path_12525" data-name="Path 12525" d="M238.8,385.5a19,19,0,1,1-19,19,18.992,18.992,0,0,1,19-19m0-4a23,23,0,1,0,23,23,23,23,0,0,0-23-23Z" fill="#333"/>
    <path id="Path_12526" data-name="Path 12526" d="M212.3,430.8a2,2,0,0,1-1.3-3.5l54.5-48.9a1.985,1.985,0,0,1,2.6,3l-54.5,48.9a1.9,1.9,0,0,1-1.3.5Z" fill="#595959"/>
    <g id="Group_884" data-name="Group 884">
      <path id="Path_12527" data-name="Path 12527" d="M226.1,433.4l-27.9-2.1a4.97,4.97,0,0,1-4.6-5.4h0a4.97,4.97,0,0,1,5.4-4.6l27.9,2.1a4.97,4.97,0,0,1,4.6,5.4h0A5.038,5.038,0,0,1,226.1,433.4Zm52.4-40.9-26-10.3a5.013,5.013,0,0,1-2.8-6.5h0a5.013,5.013,0,0,1,6.5-2.8l26,10.3a5.013,5.013,0,0,1,2.8,6.5h0A4.977,4.977,0,0,1,278.5,392.5Z" fill="#283749"/>
      <circle id="Ellipse_359" data-name="Ellipse 359" cx="6.7" cy="6.7" r="6.7" transform="translate(232.1 397.8)" fill="#283749"/>
    </g>
    <path id="Path_12528" data-name="Path 12528" d="M248.1,348.4l8.2-27.5,27.3,9.7L274,365.5Z" fill="#ea9d7d"/>
    <path id="Path_12529" data-name="Path 12529" d="M250.6,340.2a.764.764,0,0,1-.2-.5l5.6-16.6a.474.474,0,0,1,.9.3L251.3,340a.486.486,0,0,1-.6.3.1.1,0,0,0-.1-.1Z" fill="#cc7a5e"/>
    <path id="Path_12530" data-name="Path 12530" d="M262,345.4c10.7,4.4,17.1,1.9,17.1,1.9l4-13.5-27.6-9.4L251,338.6S254.3,342.2,262,345.4Z" fill="url(#linear-gradient-12)"/>
    <g id="Group_885" data-name="Group 885">
      <path id="Path_12531" data-name="Path 12531" d="M251.9,337.9l-.2.9.8-.2Zm10.5,1.9.8.4-.1-1.1Zm-9.1-3.4.6,2.2,1.4-1.7Zm11,4,.7.4v-.9Zm-5.5-.9.7-.2-.4-.5Zm-6.1.7h.2l-1.4-1.1-.3,1.4,1.2-.2.3.8.7-.6Zm2.4.6,1-1-1.5-.2Zm-2.4-1.8,1.2,1.3.3-1.6Zm4.5.9,1.4-.1-1-1Zm-2,2.1,1.1-1-1.5-.1Zm-1.1.1h1l-1.3-.7Zm8.1-3.3-1.3-.3.4,1.4Zm-1.4-.4-1.2-.3.3,1.4Zm-1.5-.4-1.3-.3.4,1.4Zm-2.2-.4h-1.9l.5,1.8Zm9.6,3.7.5-.6-1-.2Z" fill="#ad5c49"/>
      <path id="Path_12532" data-name="Path 12532" d="M262.1,342.1l.5-.7-1-.1Zm-5,.7.5-.8-1-.1Zm1.7-1.1h1.3l-.8-1.2Zm-4.2-.9-1.3-.6v1.2Zm-2.7-3.1,1.3-.1-.8-1.2Z" fill="#ad5c49"/>
    </g>
    <path id="Path_12533" data-name="Path 12533" d="M305.9,240.7c-3.2-7.7-10.3-14.4-20.2-18.5-14.6-6-32.3-10.9-45.1-14.1H153.9c-2.6,8.7-5.6,22.7-1.7,33.3a26.23,26.23,0,0,0,17,16c17.3,5.3,81,7.8,84.5,11,3.4,3.1,2.6,9.1,1.4,14.8-2.3,11.1-9.3,39.3-11.3,47.2a2.2,2.2,0,0,0,1.6,2.7L285,344.5a1.245,1.245,0,0,0,1.5-.8c2-6,11.5-35.1,18-62,4.6-18.9,4.9-32.5,1.4-41Z" fill="#8ab7d9"/>
    <path id="Path_12534" data-name="Path 12534" d="M245.95,321.266l.247-.97,43.9,11.2-.247.97Z" fill="#aad2f9"/>
    <path id="Path_12535" data-name="Path 12535" d="M284.6,344.5a1.812,1.812,0,0,0,2.2-1.2L302,291.9c11.2-40.9,3.5-50.7,3.5-50.7s-13,15.4-25.5,32.5c-14,19.2-35.3,59.1-35.3,59.1l39.9,11.7Z" fill="url(#linear-gradient-13)"/>
    <path id="Path_12536" data-name="Path 12536" d="M248.5,251.3c-20.1-3.8-60.4-10.2-73.6-14.8a117.493,117.493,0,0,1-24.1-12.2s-2.5,15.6,5.7,24.6,17.5,10.3,43.1,13l37.9,3.7L254,268C262,269.5,261.6,253.8,248.5,251.3Z" fill="url(#linear-gradient-14)"/>
    <g id="Group_886" data-name="Group 886">
      <path id="Path_12537" data-name="Path 12537" d="M204.3,220.8l-1.7.8,1.4.9Zm13.4-.6.5-1.4-1.6.5Zm1.4-5.2,1.4-.1-.8-1.4Zm6.3-6-1.8,2.9,2.9-1.3Zm-6.6,8.4.6-1.3-1.7.1Zm-18.7,5,1.4,1.4.7-1.6Zm-17.8,4.4.7-1.5-2.1.1Zm32.6-10.6v-.4l-.7.4.2-.9.1.5.7-.6-.8-.3.1-1-.4.1-.3-.2-.1.4-.7.1.4-1.2-1.5.6.9.7-1.3.4,2.7,1.8v-.3l.2.1,1,1,.5-1.3Zm-3.4.9-1.6.1,1.1,1.1ZM203.7,234l1,.2-.3-1.1Zm-.2-6.1.1.8.8-.4Zm6.8,4.9.2-.9-.8.2Zm-18.7.7,1,.2-.3-1Zm.7-5.7-.9-.3.1.7Zm5.9,4.6.2-.9-.8.2Zm-3.9-1.3,1,.1-.3-1Zm-.2-6.1v.8l.9-.4Zm6.8,4.9.2-.9-.8.2Zm2.7-4.2,1.8-.9-1-.4.3-.2-1.1-.4.1.3-.2-.1Zm3.8,2.2.2-.9-.8.3Zm16.7-7.4,1,.2-.3-1Zm8.9-8,.9.2-.2-1Zm-13.6,12.4,1,.2-.3-1Zm4.5-10.5.1.8.8-.4Zm6.8,4.9.2-.9-.8.3Zm-9.4-2.9.2-.9-.8.3Zm6.5-1.9.2-.9-.8.2ZM200.2,224h-1.1l.6.9Zm-1.6-2.6.7.5.1-.9Zm3.1,4.1,1.4.1-.5-1.3Zm10.1-.2.7-.7-1-.4Zm-4.6-4-.8.5.7.4Zm6.7-2.6-.3.7h.9Zm-.8.8.4-1.5-1.5.6Zm2.2-3.7,1.5-.5-1.3-.9Zm.5,2.1.4.9.6-.6Zm-.9,3.7.1-.9-.8.5Zm-8.5-3.6-.2.5-.1-.1-.3.7h.9l-.2-.3h.3Zm4.5,2-.1-.9-.7.7Zm-7.4-1,.3-1.5.2.2.3-1.8-1.7.9,1,.6-1.5.7Zm2.5-4.8-2.3,1.2,1.9,1.1Zm-15.2,8.2-.3,1.8,2.1-.5Zm8.1,3.2.7-.6-1-.4Zm-4.6-3.8-.8.5.7.4Zm6.4-1.8.9-.1-.6-.7Zm-23.9-4.6.9-.1-.6-.7Zm31,10,.6-.4-.8-.4Zm2.2,1.9,1.1-.9-1.4-.6Zm-4.5-1.2.6-.5-.9-.3Zm-5.6.3-.3.6h.8Zm-35.7,8.1,1,.2-.2-1Zm-3.1-.7,1,.2-.2-1Zm3-4.6.8-.4-.8-.4Zm6.7,4.1.2-.9-.8.3Zm-6.8-8.8.1,1.7,1.8-.8Zm-9.9-10v1.7l1.8-.9Zm-.3,3.3,1.2.3-.3-1.4Zm.7-6-.7,2.5,2.3-.5ZM168,228.5l.1-.9-.8.2Zm-7.3-3.9-1.1-.1.6.9Zm1.9.7.3,1,.8-.6Zm-4.3-1.9.1-.9-.8.5Zm4.1.4-.8,1.2,1.3.1Zm5.7,1.3.2.9.6-.5Z" fill="#5094b5"/>
      <path id="Path_12538" data-name="Path 12538" d="M171.6,227l-1.4-.7.4,1.5Zm-5.6-.3.6-.6-.9-.3Zm-5.9.9.8-.1-.5-.5Zm21.7,6,1,.2-.2-1Zm-.1-6v.7l.8-.4Zm6.9,4-.8.2.6.6Zm-16.2-.9.9.2-.2-1Zm6.8-2-.8.2.6.6Zm4.3-4.2-1.9-.8.1,1.6Zm-15.1-1.7.1,1.6,1.8-.8Zm17.3,3.9-.8.2.6.7Zm-7.4-3h-1.2l.7.8Zm3.5,14.7.7-.6-1-.4Zm-4.7-3,.2-.8-.9.4Zm6.5-2.7h1l-.7-.7Zm2.3-7.6.6-.5-.8-.3Zm1.9.3.3,1.5,1.1-.8Zm-4.5-.5.3.9.6-.5Zm-5.4,1.2-.2.6.8-.1Zm-11.6-3.2,1,1,.6-1.5Zm5.9,1.8.1.7.8-.4-.8-.4.3-.9-2.4.7,1.6,1.4Zm24.3-1.8,1.5.2-.5-1.5Zm-7.4,8.8.2-1.3-1.2.4Zm-12.9-7.1h-1.7l1.1,1.3Zm15.3-5.2,1.4,1.8.8-1.8Zm-7.7,11.2,1.3-.7-1.4-.5ZM169,232.8l1.1-.9-1.5-.3Zm13.1-10.1-.8-.7.5-.1-2.1-1.3-.3,2,.6-.1-.2.5Zm3.9,6.4.9-.8-1.4-.5Zm-9-2.1-1.9,1.1,1.6.9Zm9.6-5.2-.1,2,1.7-.7Zm-1.5,1.1-2,.7,1.9,1Zm7.6-1.9-2,.8,1.9,1Zm-33.4,2.1,1.8-1.1-1.6-.8Zm-2-1.6,1.8-1.1-1.6-.9Zm37.3-1.2-.5-.2v.8l.4-.2v.7l1.8-1.1-1.7-.9Zm12.6-2.2L207,220l.6-.3.2.8.6-.5-.8-.4,1.2-.7Zm-2.3,3.7-.1,1.2,1.1-.7Zm7.7-5.8v.5l-.1-.1.1.4-.1.5.2-.1.1.7,1.1-.8-.6-.3.4-.2Zm-34.2,8.6-.1,1.3,1.2-.8Zm-16.1-3.5h.2l.3.2v-.1h.1v.2l-1.2.7,1.6.8.2-1.7V221l.2-.1-.3-.1.7-.5v1l1.1-.5.3.1-.9.5.9.5-1.7.6,1.9,1v-1.4l1.1.6.3-2.8-.9.5-.3-.8-.4.7h-.1l-.3-.4-.1.2-.3-.2.3-.1-2.4-.8.1.5-1.5.9Zm-2.3-.5v-.2l.1.2.2-.5.4.7,1.7-2.2-2.4.1v-.1l-.1.1h-.5l.1.2-1.3.8Zm.3-.9h-.1v-.1Zm-4.1-1.7,1.6.9.1-.6.1.1-.1.4,2.8-.4-.7-.6.4-.2.1.3,1-.6-.4-.1-1.6-.9-.1.9-.5-.4-.7-.7.9-.6-1.6-.8-.1.6-1.5-1.6.2,3.5,2.3-.3-.2.9-.3.1.1-.9Zm20.1,3.1-.8,1.8,1.8-.1Zm-2.4-.8,1,.6.1.1,1.1.5.3-2.7Zm46.6-8.4-2.1.6,1.9,1.3.1-1,1.1.8.4-1.4-1.5.5Zm2.7,1,.2-2-2.2.7ZM196.1,220l1.9,1.1.2-2.4Zm-18.7,10-.3.9,1.2-.2Zm14.4.9,1.1-.9-1.5-.5Zm-6.3-5.5-1.2.6,1,.6Zm9.1-2.5,1.3-.1-.9-.9ZM219.3,209h-1.9l1,2.2Zm-1.4,4.9-.3-.2v.3l-.2.1.1-1.2-1,.2-.8-.2.2.4-.5.2,1.2.9h-.1l1.1.9-.1.2,1.6-.7L218,214l.1-.2Zm1.1-3.8h.4l1,.8.5-1.5-.7.3-.7-.7Zm.3,1.1-1.7.1,1.1,1.1Zm-18.8,6.3h-.4l.5.4v.6l.3-.2.6.6.7-1.5Zm-19.6,3,1.3,1.4.2,1.8,1.9-1v-.1l1.2-.5-1.6-1.3v1.7l-1.5-.6.6-1.5Zm35-9.2-1.6.1,1,1.1Zm-21.6,14.9,1,.2-.3-1Zm6.6-1.2.2-.9-.8.3Zm3.5-5.5.3-.2-1.1-.4.1.3-.2-.1.1.5-1.5-.7-.2,1.9,1.7-1v1l1.8-.8Zm-5.3-.4.6.9.5-.8Zm.2-2.1.1-.9-.8.5Z" fill="#5094b5"/>
      <path id="Path_12539" data-name="Path 12539" d="M211.7,220.3l.8-.7-1.1-.4Zm-4.5-3.8-.8.4.7.4Zm-.9-3.4-.2.4H206l-.3.7.9-.1-.2-.2h.3Zm3.7,1.7.8.3-.1-.9Zm-8-1.6,1.5.9v-.4l.8.8.7-1.6-1.4.1.1-.7Zm-.9,1.2-2.2,1.2,1.8,1.1Zm-3.6,2.3.7-.2-1.5-1,2.7-.6-2.2-1.6-.5,2.2-1.6-1-.2,1.1-1.5.9,1.3.7v.3l.4-.1.3.1v-.2l1.4-.4-.4,1.7,2.8-.7Zm12.4,5-.6.3,1,.8V222l.8-.6-1.4-.6Zm-4.4-.5.6-.4-.9-.4Zm-39.8-5.5-.6-.6-.3.7Zm2.6,5.4.2-.1.8.4.4-2.7-2.6,1.5,1.2.6Zm4.8,3.9-.7.9h.3l-.7.2,1.4,1,.3-1.4-.4.1Zm5.3-1,.6.6.1-.3,1.2.7v-1.8l-1.8.8Zm-.1-5.2h-1.2l.7.8Zm7.6,1.4.6-.5-.8-.3Zm2.7.8v-.3l-.2.1-.6-.2.1.5-1.1.6,1.6.9.1-.8.7-.6Zm-5.3-.9.3.8.6-.5Zm-5.4,1.1-.2.6.8-.1Zm-10-3.7-1.6.5,1,1Zm-5.3-3.4.1.6-1.5.9,1.6.8.1-.5v.2h.2l.1-.1,1.8-1.1Zm7.6,5.4,1.6,1.5.4-1.2.1.8.8-.4-.8-.4.3-1Zm19.5-2.3-1.6,2.3,2.5.3Zm-16,3.7-1.7.3.7.5-1,.4.1-.4-1.6.3v-.8l-1,.4.9.8.1-.3,1.3,1,.2-.9,1.5,1.4.8-2.3-.5.2Zm-10.2-4.8-1.8,1.1,1.6.9Zm24.9,1.6.2-1.9-1.8,1Zm-1.9,1.3,1.7-.8-1.6-1.3Zm-6.2-.6-1.9.7,1.9,1Zm-14.6.3v-1.5l1.1.6.3-2.3,1.5-.8-1.9-.8.1,1.3-2.2,1.3.9.5-1.7.7Zm27.8.6,1.7-1.1-1.6-.8Zm20.1-7.7-1.1-.6-.1,1.3Zm-35.2,8.1-.1,1.3,1.2-.7Zm-22.2-6.5,1.6.9.2-1.6h.3l-.3-.3v-.1h-.1l-2.6-2.7.1,3.5,1.7-.2Zm68.9-4.2H221l1.2,2.1Zm4,5.9,1.4-.1-.8-1.3Zm-.2,2.4.5-1.2-1.6.1Zm-3.5-4.1.6-1.2-1.7.1Zm7-1.8.6-1.3-1.7.1Zm-3.1-2.4h-1.9l1.1,2.1Zm-.2,1h.4l1,.9.4-1.5-.7.3-.6-.7Zm.2,1.1-1.6.1,1.1,1.2ZM186.9,221l1-.9-1.4-.6Zm2-10-.3-1.6-1.1,1.2Zm20.7-2h-3.7l2.1,1.8Zm-7.4,2.7-.8.4.6.4Zm13.1-1.1v.3l1.5-.5-.7-.4.4-.3-.2.4.9-.1-.4-.5.6-.5-2.7.1.2,1.9Zm-36.4-.2-.6,1.2,1.6.1Zm38.8,1-.8.4.8.4Zm-16-.2,1.8,1.1.3-1.7.6-.1-.5-.4V210l.6-.9-3.1.1,1.4,1.4Zm-8.5,3.7,2.2-.5-1.8-1.3Zm8.1.4.3,1,.8-.6-.2-.1.3-.1.1-.1,1-.6-1.6-.9-.1.8h-.1l.1.1v.7Zm-5-2.4.6.5.2-.9Zm14.8,2.6-.8-.4.2.9Zm-30-1.1H180l.7.9Zm8.3,1-.8-.4.1.9Zm-23-3.7-1.8,1.1,1.6.9Zm16.8,2.3-2,.7,1.9,1Z" fill="#5094b5"/>
      <path id="Path_12540" data-name="Path 12540" d="M205.4,212.1l.8-.5.2.1-1.1.5,1.4.9.1-1.1.8.5-.1.8-.4-.2-.1,1.5-.7-.3.1.3h-.2l.1,1.7,1.6-.8-.3,2.1,3.3-1-2.9-1.8-.1.5-.8-.3,1.2-.8.9.9.5-1.2h-1l-1-.5.7-.3,1.1.7.2-1,.1.1.1-.5,1,1,.5-1.2-1.5.1.1-.3-.3.2.2-1.1,2.1,1.4.2-2.1,2,1.4.3-2.7-2.7.7.5-.8-2.7.1.8,1.3-.5.1v-.1l-3.4,1h.1l-1.1-.6.9-.5-1.7-.9-.1,2,.9-.6Zm-44.1-1.7,1.6.9v-.1l1,.9.4-.7,1.3.7.1-.7v.4l1.5-.9.7,1-.5.3.9.5-1.6.6,1.8,1,.1-1.5,1.1.6.3-2.7-.5.2,1.6-1.7-5.2.1.7.8-1.1-.4v.6l-.9.6.9-1.6h-4.8l1,.9Zm-1.7,2.1-1-.9-.7,2.3,2.5-.4.1.1-.1.1h-.2v-.1l-.1.1h-.5l.1.2-1.3.8,1.6.9.1-1,.8,1.2,1.7-2.2h-.1l.6-.4.5-.1-.2-.1.4-.2.2.9,1-.7-1.1-.3-1.6-.8v.2l-.8-.7.4-.3-1.6-.8-.2,1.9-.5.3Zm1,1.1Zm1.2.1.4-.3v.2Zm.4-.2h0Zm-1.5,0h0l.1-1.7.5-.3Zm17.6.2,1.8-.2-1-1.6Z" fill="#5094b5"/>
      <path id="Path_12541" data-name="Path 12541" d="M170.1,211l.8,2.7-.6.4.3-1-1.6.5.8.7-1.4.8,1,.6-2.2-.4,1,3.4,1.3-1,.6.4.6.5.1-.8.5.4v.5l1.1-.5.7.7.2-.6.2.2v-.1l1.7.9.2-1.8.2.2-.2.6,1.8-.2-.8-1.3v-.1h-.1l-.1-.2-.1.3-.6.1v-.2l1.4-.4-1.7-1,.2-.6-.8.2-.7-.4-.1.6-1,.3.8.8-.1.6-1.9.6-.1-.1.1-.3-.4.1h-.1l-1,.2.8-.6v.3l.6-.5-.8-.4v.2h-.2l.2-2.1.1.5,1.9-1.5,1.3,1,.2-.9,1.5,1.4.2-.6,1.9,1.1.3-2.7-1.2.7,1.7-3.2,1.5,1.8.7-.8-.6,1.4h-1.1l1.3,2.5,1.9-2.2.4.1-.5,1.5.8-.1-.2.2,1.2.3v.3h-.1l.1,1.7.5-.2.1.2-.9.1-.2-.2v.2h-.2l.1.2v.7l-1.7-1,.1-.1-1-.6-.1,1.3.7-.5-.2,1.3-1.4-1.2.1-.8-.7.4.1-.9-2.5,1.5,2.2,1.2.1-1.2.5.3-.5,1.5,1.9-.3v.6h.1v.4H181l.1,1.7,1.8-.8-.7-.3.7-.4,1.5.8.1-1.7-1.7.7-1.2-.5h.1v.1l1.6-.5v.2l1.1-.5.2.2.1-.3.2-.1-.1-.1.1-.2.5.9,1.5-2.2-2,.1.9-.4-.7-.3.7-.4,1.5.8.1-1.7-1.7.7-1.2-.5,1.7-.5v.2l1.7-.8-1.6-1.3v1.1l-1.9-1.2.9-1.2-1.6.1.4-.8-2.3-.1,1.4,1.9.5-.9.6,1-.2,1.7-.1-.1-.1-.3-.1.1-.8-.7-.2-1.2-1,1h-.1l-.8-1.7,1.3-1.3-3.5.1h-4.6l-3.3.1,1.6,2.2-2.3-1.3Zm4.8,5.8h0l-1.2.7v-.4l.1-.2,1.6-.5-.5.4Zm-4.6.8v-.2l.2.1-.2.1Zm0-.3-.6.3.5-.4.1.1Zm6.1-4.1.1-.3.1.2-.2.1Zm-2.1-3.5,1.9,2.6-1.6.5.1-.4-1.5.3,1.2-.9-1.1-.2,1-1.9Zm16.4,1.3.3.4-.8.5-.2-.2-.2.4-.2.1.1.1-.1.3-.3-.2-.1,2,1.7-.8-1.1-.9h.6l.8.5.1-1.2.9,1.1-1.4,2,2,.2h-1.2l.7.8-.9.4h-.1l.2-.1-2.1-1.3-.2,2.1,1.5-.5v.1l.1.7-.1-.1-.4,1.8,2.2-.5-1.6-1.2.5-.4,1.1.6.1-1.4.5.6.8-1.7h-.6l-.6-1.5.7-1.3,1.8,1,.1-1.4.5.6.8-1.7h-1.2l1-1.6,1.2,2.2-.2,1.6,2.1-.6-.3,1.7,2.8-.7-1.7-1.2.5.3.1-.5.2-.1-.1-.1.3-2.8-1.1.3.2-.4h-3.7v-.1l-3.9.7.3-.7H189l1.8,2-.1.1Zm3.4.5.4.5-.8.3.4-.8Zm1.2.1-.2.1Zm-2.5-1.6.5.6-.8.2Z" fill="#5094b5"/>
      <path id="Path_12542" data-name="Path 12542" d="M187.7,211.3l1.1,2.1,1.5-2.2Zm-27.8-1.9-4.5-.1,2.8,2.3Zm28.2-.3h-3.7l1.8,2.1Zm-24.3,27.5,1.3.3-.4-1.3Zm-.6-7.6.1.9,1-.5Zm9,5.8.1-1.1-1,.3Zm6,5.2,1.3.2-.4-1.3Zm-.6-7.7.1,1,1-.5Zm-20.4-5.1.9.2-.2-1.1ZM154,222l1,.2-.3-1Zm3.1,9.9.8-.6-1-.4Zm-4.6-2.9.1-.9-.8.4Zm6.5-2.7.9-.1-.6-.7Zm-3.5,0,.9-.1-.6-.6Zm-1.9,7.3,1.2.2-.3-1.3Zm-.6-7.7.1.9,1-.5Zm33.5,12.2.2-1.1-1,.4Zm.8-2.1,1.5.2-.4-1.5Zm-.6-8.1,1.2-.6-1.3-.6Zm10.6,5.8.2-1.3-1.2.4Zm31.1,19.9.3-.9.9.7Zm5.6,2.8-1.4-.7,1.5-1.1ZM209.3,263l-1.8-.2,1.1-1.8Zm6.3.6-1.8-.2,1.1-1.7Zm19.7,1-1.9-.2,1.2-1.8Z" fill="#5094b5"/>
      <path id="Path_12543" data-name="Path 12543" d="M234.1,265.1l-1.5-.2,1-1.5Zm-32.4-2.9-1.8-.2,1.1-1.9Zm8.7-5.6-1.5-.9,1.8-1.2Zm10.3,4.7-1.5-.9,1.6-1.2Zm4.5-.5-1.6-.8,1.7-1.3Zm13,4.8-1.4-.7,1.4-1.1Zm-12.7-1.8-.1-1.8,1.9.6Zm-23.7-7.1v-1.9l1.9.8Zm-6.8,4.6-.1-1.8,1.9.7Zm-3.1-5.3-.1-1.8,1.9.7Zm10.5-12.2-.1-1.9,1.9.6Zm9.6,10.8-.1-1.8,1.9.6Zm4.3,2.3-.2-1.8,2,.6Zm-26.6,3.8v-1.9l1.9.7ZM178.8,259l-.1-1.5,1.7.6Zm5-4.8-.1-1.5,1.6.6Z" fill="#5094b5"/>
      <path id="Path_12544" data-name="Path 12544" d="M175.6,258.7v-1.5l1.6.7Zm54.3,6.1-.1-1.5,1.6.5Zm1.9-1.8-.1-1.5,1.6.5Zm21.9,4.1.1-1.5,1.6.7Zm.9,1.6,1.1-1.1.6,1.6Zm-4.5-1.6-1.5-.1.9-1.5Zm.3-6.3-.9-.1.5-.9Zm-.6,2.9-.9-.1.5-.9Zm1-1.5-.5.8-.6-.8Zm1.5,3.9-.4.7-.6-.8ZM227.4,264l-1.4-.7,1.4-1.1Zm.4-4.5-1.6-.8,1.7-1.3Zm19,7.3-1.4-.7,1.5-1.1Zm-12.9-18.5-.6.6-.4-.9Zm-7.7,12.4,1.1-.7.1,1.4Zm2.5,1.9-.3-1,1.2.2Z" fill="#5094b5"/>
      <path id="Path_12545" data-name="Path 12545" d="M235.6,260.7h-1.1l.5-1.1Zm.2-17.8.2-.8.7.6Zm4.4,2.3-.6-.3.7-.4Zm-.3-6.5-.5.5-.3-.7Zm4.5,27.4-.2-1.1,1.3.2Zm7.7.3h-1l.5-1Zm-4.8-8.3-.3.9-.9-.7Zm-49.4-2.2-.1-1.2,1.3.4Zm8.2.9-1.1-.1.7-1.1Zm-4.3-9.4-.4,1-.8-.9Zm8.8,9.3.4-1.2,1.1.9Zm-13,1.7.4-1.3,1,1Zm15.4-.3.4-1.3,1.1,1Zm7.3,5-.9-.4,1-.8Zm-2.7-.6-1-.5,1-.8Zm2.1-9.8-.7.8-.4-1.1Zm-7.8,6.3-.8.7-.4-1.1Zm1.2,3.2-.8.8-.4-1.1ZM207,244.5l1.2-.1-.4,1.4Zm-1.4,8.3.2-1,1,.6Zm9.6-4.7-1-.4.9-.8Zm-9.6,10.5,1.3-.1-.6,1.4Zm-3,.3,1.2-.1-.6,1.3Zm-16.8.4,1.3-.1-.6,1.4Zm17.2,1.6,1.2-1.5.9,1.9Zm-12.7-8.2.4-2.3,2.1,1.4Zm-30.6-1.2,2.3-.4-.5,2.4Zm36.4-2.5-1-.4.9-.8ZM182,252.6l.4.9-1.2-.1Zm12.9,3.5,1-.1-.4,1.2Zm-5.7,3.6.3,1h-1.2Zm9.8-.4.4,1-1.2-.1Z" fill="#5094b5"/>
      <path id="Path_12546" data-name="Path 12546" d="M210,250.3l.8-.1-.3.9Zm-.9,5.3.2-.7.6.4Zm6.2-3-.6-.3.5-.5Zm10.1,2-.5.7-.4-.8Zm-3.3-4,.4.5-.7.2Zm-2.1,6.5.6-.3v.8Zm16.2-5.7-.5.7-.4-.8Zm-3.3-4,.4.5-.7.2Zm-2.1,6.5.6-.3v.8Zm6,7.9-.5.7-.5-.9Zm-3.3-4,.4.5-.8.2Zm-2.2,6.5.7-.3-.1.7Zm12.8-.9-.4.5-.4-.6Zm-2.9-3.3.4.4-.7.2Zm-1.7,5.2.5-.2v.6Zm-10.6-25.7v.9l-.9-.3Zm-9.1,2.4.7.1-.4.6Zm4.8,6.1.3-.6.5.6Zm-17.3-9.3.4-.5.3.6Zm6.3,4.6-.4-.5.7-.2Zm-25.2,5.8.8.9-1.4.5Zm-7.5,4,1-.5v1.2Zm8.9,5-.1-1,1.1.2Zm16.5-5.8.8.9-1.4.4Zm-7.4,4,.9-.5v1.2Zm8.9,5-.2-1.1,1.2.2Zm-28.5-8.6.2,1-1.2-.3Zm-1.5,2.8.1,1.1-1.1-.4Zm-4.2,1,.9.1-.5.8Zm14.6.5-.2-.9,1,.2Zm7.8-5.9.7.7-1.1.5Zm3.2-2.3,1.2,1.3-1.9.8Z" fill="#5094b5"/>
      <path id="Path_12547" data-name="Path 12547" d="M193.2,250l.7.8-1.2.3Zm2.4,1.6.7.7-1.2.4Zm-15.6.1,1.6-.8.1,2Zm-10.6,4.8,1.7-.8v2Zm5.4-2.8,1.6-.8.1,2Zm-1.4,2.1,1.6-.8.1,2Zm7.8,1.2,1.7-.8.1,2Zm1.2-6.2-.2-.6.8.1Z" fill="#5094b5"/>
      <path id="Path_12548" data-name="Path 12548" d="M200.6,245.1l1,.9-1.6.6Zm-8.2,5,1.1-.6.1,1.3Zm10.5,5-.3-1.2,1.3.2Zm25.8,5.4-.7-1,1.4-.4Zm7.6-3.7-.9.5v-1.2Zm-8.6-5.4.1,1.1-1.1-.3Zm-3,13-1.9-.2,1-2Zm-5.5-.5-1.8-.1.9-2Zm9.6.9-1.9-.2,1-2Zm2.5-4.5-1,.5v-1.2Zm-8.7-5.4.1,1.1-1.1-.3Zm1.9,1.4,1.1.6-1.1.9Zm-5.6,6.5.7-.8.5,1.1Zm10.4,1.1-.6-.8,1.2-.2Z" fill="#5094b5"/>
      <path id="Path_12549" data-name="Path 12549" d="M230.2,263.9l-.8-1,1.4-.4Zm7.7-3.5-1,.4v-1.2Zm-9-5.4.2,1-1.2-.3Zm1.7,4.2.4-1.2,1.1.9Zm7.5,3.8-1-.5,1-.7Zm-.9-10.2-.7.7-.5-1.1Zm.9,6,.2-1,1,.7Zm6.1,3.1-.7-.4.8-.6Zm-.7-8.5-.6.6-.4-.9ZM236.9,264l.1-1,1.1.5Zm6.8,1.9-.9-.2.7-.7Zm-2.4-8.2-.5.8-.5-.9Zm-5.5,7.7-.8-1,1.4-.3Zm7.7-3.5-1,.4v-1.1Zm-9-5.4.2,1-1.2-.2Zm-11.9,5.3-.7-1,1.4-.3Z" fill="#5094b5"/>
      <path id="Path_12550" data-name="Path 12550" d="M213.1,259.6l-.7-1,1.4-.3Zm17.5,4.2-.7-1,1.5-.3Zm13.5.6-1.2-.1.8-1.3Zm-42.5-8.7-1.3-.1.8-1.2Zm28.7,2.9-.9.5.1-1.3Zm-8.2-5.9.1,1-1.1-.3Zm-51,.6-.1-1.5,1.7.6Zm-7.6-.1-.1-1.1,1.1.4Zm7,.8-.9-.1.6-.9Zm-3.8-7.7-.4.8-.7-.7Zm.2-3.7,1.1-.1-.4,1.1Zm-1,6.7.1-.9.9.6Zm8.1-3.7-.8-.3.7-.7Zm1.5-2,1-.1-.3,1.1Zm-1,6.7.1-.9.9.6Zm8.1-3.7-.8-.3.7-.7Zm5.3,11.1-.8-1,1.4-.4Zm-9.6-1.1-.9-.9,1.4-.5Zm17.9,2-.8-.9,1.3-.4Zm13.5-1-1.3.1.6-1.4Zm-43.4-3.5H165l.6-1.3Zm29-.5-1,.5v-1.2Zm-9-4.9.2,1-1.2-.2Zm53.2,16,.4-2.7,2.7,1.6Z" fill="#5094b5"/>
      <path id="Path_12551" data-name="Path 12551" d="M213.2,261.1l.4-2.7,2.7,1.6Zm-29.5-3.5,2.7-.8-.4,3Zm9.6,1.7.4-2.6,2.7,1.6Zm-26-2.7.4-2.7,2.7,1.7ZM274.5,341l-.3-1.2,1,.2ZM289,329.7l2-.2-.5,1.7Zm-1.8,3.6,2.1-.2-.5,1.7Zm2.9-13.7,1.8-1.1.3,1.8Zm-7.7,6.4,1.7-1.1.3,1.8Zm.4,11.4,1.9-1,.1,1.8Z" fill="#5094b5"/>
      <path id="Path_12552" data-name="Path 12552" d="M284.3,338.9l1.8,1-1.3,1.2Zm-.3-4.6,1.9,1-1.3,1.2Zm-2.6,6.6,1.8-1,.2,1.8Zm1.8,2.9,1.7-1.4.4,2ZM286,320l.1-2,1.6.8Zm7-3.8v-2.1l1.7.8Zm-4.3-5.1V309l1.7.8Zm-8.5,17.4.2-2.1,1.6.9Zm.5,4.8.2-2,1.6.9Zm14-22.4.1-2.1,1.6.9Zm2.6-10.1.1-1.8,1.3.7Zm1,4.3L297,303l2.1-.7Zm-8.3-2.9.1-1.8,1.3.7Zm7,.7v-1.8l1.4.7Zm-16.6,34.3,1.5-.9.1,1.6Zm-1.5,5.4,1.7-1.1.4,1.8Z" fill="#5094b5"/>
      <path id="Path_12553" data-name="Path 12553" d="M282.9,343.8l-1.4-.5.9-.9Zm-2.6-3.2.3-1.2.8.7Zm3.4-12.5-.5-1.3,1.2.1Zm6.2-10.8-.5-1.3,1.3.1ZM284,330.9l-.5-1.3,1.3.1Zm1.5,7.2,1.1-.6.1,1.1Zm.4-2.8,1.1-.6.1,1Zm-8.8-2.9.9.8-1,.3Zm9.3-4.7.9.9-1,.4Zm2.5-3.4h-1.4l.5-1.2Zm1.4-2.7h-1.4l.5-1.2ZM297,306l-1.5.8.5-1.1Z" fill="#5094b5"/>
      <path id="Path_12554" data-name="Path 12554" d="M292.1,326.4l-1.4-1.7,1.9-.5Zm1-3.5-1.3-1.7,1.9-.4Zm-6.9,5.2.8-2,1.3,1.5Zm.9-5.3.7-2.1,1.3,1.5Zm-5.2,17.5.7-2.1,1.3,1.5Zm-1-30.7,1.1-.4v1Zm11.3-11.7-.6,1.1-.6-.8Zm-2.1,15.7h-1.2l.5-1Zm7.2-5-.4,1.1-.8-.8Zm-5.1,8.8-.5,1.2-.7-.8Zm4.8-11.5-.8-1.1,1.1-.2Zm-19.1,32.5.5.8-.8.1Zm-1.9-3.8-.5.6-.3-.6Zm6.1,1.5-.7-.3.6-.4ZM268.6,317l-.5-.7.7-.1Zm1.4,7,.5-.6.3.6Z" fill="#5094b5"/>
      <path id="Path_12555" data-name="Path 12555" d="M284.1,321l-1,1-.5-1.1Zm5.4-3.8-1.1-.6.8-.6Zm-.5,9.6.2-1.1.9.6Zm4.6-31.3-.3,1.1-.9-.6Zm3.6.7-.3,1.2-.8-.7Zm2.3-1.8h-1l.4-.8Zm-2.4,10.3-.4-.9.9.1Zm-5.3,2.6.2-.9.7.5Zm-6.2,4.4-.7.8-.4-.9Zm1,12.1-1.5,1.4-.6-1.7Z" fill="#5094b5"/>
      <path id="Path_12556" data-name="Path 12556" d="M285.2,308l-.7.9-.5-.9Zm1,3.4-.8.9-.4-1Zm5.3-13.3-1.7-1.1,1.5-1Zm10.1-5.7-1.1-1.7,1.8-.3Zm-.4,2.1-1.2-1.7,1.8-.3Zm-5.5.2-1.7-1.2,1.5-1Zm8.1-14-1.9-.6,1.2-1.4Zm.2-6.5.3-1.4,1.4.9Zm-6,17.7.9-1.9,1.1,1.5Zm5.7-15.6,2-.3-.5,1.8Zm-5.2,18.8-1.7-1.1,1.5-1Zm-2.8,7.4-1.8-.9,1.4-1.1Zm-21.9,30.9-1.3.6-.1-1.2Zm6.4-1.8-.8-.9,1-.3Zm-3.9,8.9.7-1,.6.9Zm26.9-53.9-.4,1-.6-.8Zm-17.8,46.8-.4-3.1,2.6.8Zm1.1,10.7-1.6-2.6,2.6-.6Z" fill="#5094b5"/>
      <path id="Path_12557" data-name="Path 12557" d="M287.5,341l-1.8-2.6,2.6-.6Zm1-3.3-1.8-2.5,2.6-.6Zm-1.8-4.1.7-3.1,2.1,1.8Zm3.2-8.8.8-3.1,2.1,1.8Zm1.2-4.2.7-3.1,2.1,1.7Zm-.1,8.9-1.7-2.7,2.7-.4Zm5.4-23.5-2.9-.9,1.8-2.1Zm-4.8,8.7-.4-3.2,2.6.9Z" fill="#5094b5"/>
      <path id="Path_12558" data-name="Path 12558" d="M300.4,290.2l-.3-3.2,2.6,1Zm2.9-4.7-1.4-1.9,2-.5Zm-2.8,1.1-.2-2.4,2,.7Zm-10,44.5-.8,2.1-1.4-1.5Zm-.4-3.1-.9,2.2-1.3-1.5Zm2.3-12.8,2-.3-.5,1.8Zm-.9,3.7,2-.3-.5,1.8Zm1.5-9.2-1.5-.1.6-1.1Z" fill="#5094b5"/>
      <path id="Path_12559" data-name="Path 12559" d="M294,306.9l-1.4-.1.5-1.1Zm2.2,5.5-1.3-1.8,2-.5Zm1.4-4.6-1.3-1.8,1.9-.4Zm-6.8.3.7-2.2,1.3,1.6Zm-2.2-2.1-1,1-.5-1.1Zm5.3-3.8-1-.6.8-.6Zm-.7,9.8.3-1.2.8.7Zm-2.2,7.2.7-3.1,2,1.7Zm3.6-9.2.7-3.2,1.8,1.6Zm.6,5.9-1.7-2.8,2.6-.4Zm4.4-15.8-1.7-2.8,2.7-.4Z" fill="#5094b5"/>
      <path id="Path_12560" data-name="Path 12560" d="M298.9,302.5l-1.3-2.2,2.1-.3Zm1.6-5.6-1.3-2.1,2.1-.4ZM295,316.2l-.7,2.6-1.4-1.6Zm-.4-2.9-.8,2.1-1.3-1.5Zm-22.9,18.9.4-.9.6.7Zm-3,3.6.8.2-.5.6Zm-1.2-6.9v.9l-.6-.3Zm4.1,10.6-.5-.8.8-.2Z" fill="#5094b5"/>
    </g>
    <circle id="Ellipse_360" data-name="Ellipse 360" cx="11.6" cy="11.6" r="11.6" transform="translate(337.3 208.7)" fill="#283749"/>
    <circle id="Ellipse_361" data-name="Ellipse 361" cx="6.2" cy="6.2" r="6.2" transform="translate(342.7 214.1)" fill="#7c59aa"/>
    <path id="Path_12561" data-name="Path 12561" d="M278.4,349.8c-2.1-.3-6.4-.9-12.9-2.3a60.427,60.427,0,0,1-15.6-5.5l-3.5,10.6s1.2,2,13.7,5.6,16.3.7,16.3.7l2-9.1Z" fill="#fff"/>
    <path id="Path_12562" data-name="Path 12562" d="M278,352.1l1.2-4.2a69.773,69.773,0,0,1-14.2-2.2,74.188,74.188,0,0,1-14.6-5.2l-1.2,3.8a71.446,71.446,0,0,0,15.7,5.6c6.7,1.3,11,1.9,13.1,2.2Z" fill="#10646c"/>
    <g id="Group_887" data-name="Group 887">
      <path id="Path_12563" data-name="Path 12563" d="M306.5,390a17.933,17.933,0,0,0,.9-3l-66.7-26.3c-.4,1.7-1.1,3-1.4,4a1.778,1.778,0,0,0,1.1,2.1l62.8,24.8A2.6,2.6,0,0,0,306.5,390Z" fill="#fed6d6"/>
      <path id="Path_12564" data-name="Path 12564" d="M307.6,385.8c.3-3.3-5-11.2-9.3-15.2a13.1,13.1,0,0,1-1.3-1.2l-7.6,10.5,17.9,7a8.112,8.112,0,0,0,.3-1.1Z" fill="#fed6d6"/>
    </g>
    <path id="Path_12565" data-name="Path 12565" d="M291,362.3l-6,5.2a1.514,1.514,0,0,1-1.7.1c-.2-.1-.2-.2-.4-.3a1.28,1.28,0,0,1,.3-1.8l6-5.2-1.9-2.4-7.5,5.1a1.363,1.363,0,0,1-1.5,0,.7.7,0,0,1-.4-.5,1.454,1.454,0,0,1,.5-1.9l7.2-4.9-1.5-1.9,1.2-6.7a1.349,1.349,0,0,0-.9-1.5c-1-.3-2.4-.1-4,2.2a17.912,17.912,0,0,0-2.9,7.4,30.239,30.239,0,0,1-16,.7c-7-1.8-11.8-5.6-14-8.6a1.311,1.311,0,0,0-2.2.1,28.6,28.6,0,0,0-3.2,7.8c-.5,1.8-.9,3.8-1.3,5.5l48.8,19.2,7.6-10.5a76.806,76.806,0,0,1-6.2-7.1Z" fill="#ad203a"/>
    <path id="Path_12566" data-name="Path 12566" d="M277.9,362.6c.1.2.2.2.4.3a1.36,1.36,0,0,0,1.5,0l7.5-5.1-1.7-2.1-7.3,5a1.536,1.536,0,0,0-.4,1.9Zm5.1,4.7c.1.1.1.2.3.3a1.364,1.364,0,0,0,1.7-.1l6-5.2-1.7-2.1-6.1,5.3a1.134,1.134,0,0,0-.2,1.8Z" fill="#fff8f8"/>
    <g id="Group_888" data-name="Group 888">
      <path id="Path_12567" data-name="Path 12567" d="M240.5,361.4l.4-1.4,66.7,26.1-.2,1.5-66.9-26.2Z" fill="#442624"/>
      <path id="Path_12568" data-name="Path 12568" d="M290.1,380.3l-1.1-.8,7.6-10.8.9,1.1-7.4,10.5Z" fill="#442624"/>
    </g>
    <g id="Group_889" data-name="Group 889">
      <path id="Path_12569" data-name="Path 12569" d="M284.2,369.5l.9.2-.4-.9-.5.7Zm5,1.6-1.1-.6L288,372Zm-4.1-23.5-.9-1.1-.7,1.6Zm-2.7,5-.7,1.5,1.7-.5Zm12.3,14.7.3-.1-.8-.9-.5,1.3.8-.2-.6,1.3,1.7-.5-.9-.9Zm-18.5-11.4-1.4.2.8,1.4Zm2.8.2-1.3-.6v1.7Zm7.7,4.7-1.3-.7-.1,1.7Zm-1.9,3,1.4-1.1L285,362l-.2,1.8Zm7.5,10,1.2-.8-1.1-.6Zm-1.2-11.2-1.3.7,1.2,1,.1-1.7Zm-16-4.9-1.2-1.3-.5,1.4Z" fill="#dd5472"/>
      <path id="Path_12570" data-name="Path 12570" d="M272,358.1l1.7-.1-1.2-1.3Zm-4.7,2.4,1.6-.2-1.2-1.3Zm17.8-.5-1.4.8,1.3,1Zm-18.3-2.9-.4,1-1.1.8,1.4.9-.2-1.2,1.3-.1-1-1.4Zm-9.1.1,1.4-.1-1-1Zm11-.2-.4,1.1,1.4-.1Zm-16.6-2.3,1.4-.1-1-1Zm-1.6-4.2-.4,1.1,1.3-.1-.9-1Zm5.2,4.9-1-1-.4,1.2Zm-7.8-7.4-.4,1.2,1.4-.1Zm45,18.8-1.1.6,1.1.9Zm-.5-2.7-.9-.8-.5,1.3Zm-.9,2.5-1.3-.7-.1,1.7Zm-7.9,7.6h-.5l-.1-.4-.4.6h.4l.4.4Zm6.6-9.6-1-.5v1.1Zm.2.5.7.8.2-1-.9.2Zm1.5,5.2,1-.1-.5-.7-.5.8Zm-42.8-14.4h1.1l-.8-.9Zm6.2,1,.5-.8-.8-.2Zm-7.1-4.4.9.4-.1-.8-.8.4Zm30.3,4.6,1.1.2-.5-1.1Zm-6.3,4.7,1-.5-1-.5Zm8.3-3.7,1.1.2-.5-1.1Zm6.5,2.2.8-.6-.7-.4-.1,1Zm-4.9-2.9.8-.6-.7-.4-.1,1Zm-2.6,6.3.7.7.2-.8-.9.1Zm1.9-8.5-.9.3.8.6Zm-8.7,11.5.8.5.1-1.2Zm1.8-5.8.9-.1-.7-.8-.2.9Zm4.5,5.8.4.9.5-.8Zm-2.4-3.6.8.5.1-1.2Zm0-2.4-1,.7.8.5Zm-12.2-4.3-.9.8.9.3v-1.1Zm13.2,4,.7-.5.1.1v-.1l.5-.5-.6-.1v-1l-1.3.7.2.2.4,1.2Zm6.5-7.5.3-2.1-1.8.6Zm-33.2-.2-.8.1.5.9Zm10.8,3.7-1-.3.4.8Zm7.9,5.5.7.3-.1-1Zm-2.9-4.8-.9-.2.4,1Zm6.8,3.2.5-.7-.9-.2.4.9Zm-13.7-4.6-.1.7.7-.2Zm14.7,3.3.3.6.4-.7-.7.1Zm2.8-3.4-.4.4.6.1Zm3.2-1.2-.1.6.5-.4Zm7.8,11.7-.8.1.5.5Zm-8.2-.2.5.1-.2-.6Zm4.1-4.1-.5-.2v.6Zm2.1,12.4.5.5.3-.6Zm-.1-3.5.6-.3-.6-.1Zm8.1-.7-.8.1.5.5Zm-3.9.4-.2-.6-.3.5-.2-.1v1l.8-.3-.5-.5h.4Zm3.6-4.2-.6-.1.1.5Zm-28-2,.5-.1-.5-.4Zm5.6.7.2.6.3-.6Zm7.4,5.7.8-.5-.9-.6Zm-4.7-4.8.6.6.3-.9Zm7.9-1.9-.4.8.9.1Zm-23.9-5.2.5.8.4-.8Zm-2.4-1.1.5.8.4-.8Zm-2.3-1.4.7.1-.2-.8-.5.7Zm3-1.3v.7l.7-.4-.7-.3Zm8.1,4.7-.3.6h.8ZM247,351.7l.7-.4-.8-.6Zm29,7.1,1.2-.7-1.2-1Z" fill="#dd5472"/>
      <path id="Path_12571" data-name="Path 12571" d="M266.2,362.1l.1,1,.7-.5-.8-.5Zm5.3-2.3-.7-.5v1.1Zm-7.9-1.2,1.1,1,.6-1.6Zm-10-4.1,1.5-.9-1.2-.8-.3,1.7Zm-2.1-1.3,1.4-.8-1.2-.8-.2,1.6Zm-2.2-3.8-.6,1.5,1.6-.5Zm7.6,6.3,1,1,.6-1.6ZM245,348.6l1.1,1,.6-1.5-1.7.5Zm16.3,14.7.6.1-.3-.6-.3.5Zm22-13.2,1-.5-1-.8Zm-20,9.8-1.1.3.7.8.4-1.1Zm.8,1.5,1,.2-.5-1Zm25.7,4.4h-.2l.1-.1-.1.1-.6-.1.1.4-.2.1.3.1.2.5.2-.3.3.1-.1-.4v-.4Zm-.1,6.4.8.3-.1-.8-.7.5Zm-6.6-3,.8-.4-.6-.6-.2,1Zm5.7-9.2h-1l.3,1.1Zm-5.9,3-.6-.6v1Zm4.3,5.5.8.5.1-1.2Zm.5-9.5-.6-.6-.3.8.9-.2Zm3.9,5.6.2.6.3,1.1.3-.4.9.7v-1.5l-.7.4.2-.2-.6-.1.4-.6h-1Zm2,6.5-.8.5.9.3Zm-7.5-3.7v1l.8-.3Zm4.1,1.2,1.1.4-.5-1.1Zm4.3,2.2.8-.5-.7-.5-.1,1Zm-7.4,2.8.7.7.2-.8-.9.1Zm9.4-4.9-.7-.7-.4,1.1Zm-50.3-20.9,1.3-.1-1.2-.8Zm38.2,8.6-.6-2.5-1.7,1.5,2.3,1Zm-21.2.1-2.1,1.1.1-.1-1.6.6,1.1,1,.5-1.3,1.7,1.1.3-2.4Zm8.9,2L270,357l-.3,2.2,2.4-.7Z" fill="#dd5472"/>
    </g>
    <path id="Path_12572" data-name="Path 12572" d="M224.9,232.3c-11.8-2.3-24.1-4.6-34.6-7.2a18.733,18.733,0,0,1-8-3.9c1.4-.3,9.3-2,13.3-6.9a21.035,21.035,0,0,0,3.4-6.2h-1.1a19.38,19.38,0,0,1-3.1,5.6c-3.8,4.7-12.2,6.5-13.5,6.7a18.522,18.522,0,0,1-5.2-12.3h-1c.4,5.6,2.9,15,15,18,10.5,2.6,22.8,4.9,34.6,7.2,24.9,4.7,48.3,9.2,52.9,15.3,5.5,7.4,2.9,18.6-.7,34.1l-.7,2.8-9.6,40.6,1,.2c0-.1,3.4-13.5,9.6-40.6l.7-2.8c3.7-15.8,6.4-27.2.6-34.9-4.9-6.4-28.5-10.9-53.6-15.7Z" fill="#aad2f9"/>
    <path id="Path_12573" data-name="Path 12573" d="M151.1,221.2a53.112,53.112,0,0,0-.4,13.8s20.3,5.5,49.3,2.6c46.6-4.8,62.3-23.6,62.3-23.6l-22.2-5.9h-86a123.607,123.607,0,0,0-3,13.1Z" fill="url(#linear-gradient-15)"/>
  </g>
</svg>
