<svg xmlns="http://www.w3.org/2000/svg" width="349.482" height="228.533" viewBox="0 0 349.482 228.533">
  <g id="_91" data-name="91" transform="translate(-56.278 -207.561)">
    <path id="Path_13716" data-name="Path 13716" d="M59.6,388.76l2.7.16,10.44-69.7c-1.26,0-2.5-.4-3.35-.38a2.846,2.846,0,0,0-2.9,2.4l-9.36,64.25a2.713,2.713,0,0,0,2.5,3.26Zm6.65-1.6-.17-.05a2.552,2.552,0,0,0,.73-.6c.04-.2-.3.01-.1-.3l.72-.63c.03.1-.24.3-.1.33,0-.1.36-.4.22-.48l.1.1c.06-.12.2-.1.32-.2.03-.08.03-.17-.12-.06.2-.27.44-.7.7-.8.23-.23.26-.05.4-.03.06-.08.1-.24.07-.27l.04-.01.02-.17c.6-.32.7-1.04,1.23-1.3-.08.12-.3.28-.2.37l.3-.37c-.1.16-.15.33-.03.34.4-.53.64-1.07,1.12-1.7.16.1.37-.37.64-.5-.05.01-.07.01-.08-.01-.1.08-.14.1,0-.13a.031.031,0,0,0,.02.01.318.318,0,0,0,.02-.13c.2-.1.2-.07.15.02.1-.12.2-.27.2-.1.32-.28.13-.48.23-.7a6.129,6.129,0,0,0,.74-1.04v.08c.13-.12.3-.08.47-.37-.3-.54.5-.72.74-1.44-.2-.02.06-.3-.08-.34.64-.7.2-.62.48-.82h.02c.3-.12-.01-.13-.15-.04.16-.08.13-.14.27-.2-.23.1-.22.02-.3-.02-.06-.2-.6-.26-.87-.5l-.48.04.2-.08c-.22-.07-.22-.2-.1-.2-.1-.06-.15-.04-.3-.07l.1-.08c-.24-.16-.46.07-.24.14-.66.1-.25-.28-.82-.26l-.16.12c-.58-.1-.07-.37-.67-.43l.03-.12c-.15-.03-.28-.1-.3.06a10.571,10.571,0,0,1-1.4-.86c-.33-.1.08.15-.1.18-.4.03-.42-.2-.7-.4l.03.15-.58-.3.12-.06-.4-.18c-.15.03.03.1.14.18-.42-.2-.92-.03-1.27-.43l.1-.1c-.02.03.05.06.1.06.5,0-.28-.24-.26-.34-.16.1-.58-.2-.72-.04a.215.215,0,0,0-.2-.18c-.07,0-.1.04-.12.04,0,.04-.01.06-.05.05-.08-.15-.08-.03-.17-.13-.1.04.12.2.1.24a.458.458,0,0,0-.17-.01c.2.26-.26.16-.23.7.16.4-.3.82-.16,1.4h-.13c.04.43-.23.6-.2.96-.14.07-.05-.1-.2-.1.06.36-.25-.13-.14.12-.22.46.37,1.04.26,1.5.12.53-.44.88-.15,1.02l.06-.25-.08.7h-.1c.03.3-.22.93-.1,1.3-.01-.01-.02.02-.05.03.04.37-.13.44,0,.78l-.04-.04a9.444,9.444,0,0,1-.17,2.67c-.17,0-.18.5-.2.88a.15.15,0,0,0-.08-.16c.12.53-.36,1-.22,1.56l-.02-.02c-.12.18.04.83-.26.88a3.734,3.734,0,0,1-.2,1.98l-.04-.05-.38.74a2.2,2.2,0,0,1,.3.14,2.012,2.012,0,0,1,.25-.01,4.355,4.355,0,0,0,1.08-.35l.7-.66a1.438,1.438,0,0,0,1.1-.6ZM78.5,327.73l38.4-7.7,4.9,29.1-46.3,10.3ZM286,418.43l-9.8-38,28.7-6.4,12.7,45.7Zm71.75,2.76-.66-2.6-69.58,11.12c.38,1.2.36,2.5.65,3.3a2.879,2.879,0,0,0,3.17,2.05l64.07-10.5a2.71,2.71,0,0,0,2.35-3.36Zm-3.52-5.86.01.18a2.145,2.145,0,0,0-.8-.5c-.2.02.1.28-.24.18l-.82-.5c.08-.05.36.14.34,0-.08.02-.5-.23-.52-.06l.07-.14c-.13-.02-.15-.17-.3-.24-.1,0-.17.02-.03.13-.32-.1-.8-.2-.97-.42-.28-.15-.13-.23-.15-.38-.1-.03-.26-.03-.28.02l-.03-.03-.17.03c-.5-.47-1.2-.36-1.6-.78.14.04.36.2.42.08l-.44-.17c.2.05.36.04.34-.08-.63-.22-1.22-.28-1.96-.55.04-.18-.46-.24-.67-.46.02.04.03.06.01.08.1.06.14.1-.12.04.01-.01,0-.02,0-.03a.255.255,0,0,0-.13.02c-.17-.14-.12-.17-.02-.14-.15-.06-.3-.1-.15-.15-.37-.22-.5.02-.74-.01a8.31,8.31,0,0,0-1.22-.4h.1c-.15-.08-.16-.26-.5-.34-.42.45-.84-.25-1.6-.27.04.2-.3.03-.3.18-.86-.4-.66,0-.92-.2v-.02c-.2-.24-.12.05.01.15-.12-.13-.17-.1-.28-.2.17.2.1.2.08.3-.18.12-.07.66-.22.98l.18.45-.14-.17c0,.23-.1.26-.17.17-.03.1.01.16.02.3l-.1-.08c-.08.27.2.42.2.2.3.6-.2.32,0,.86l.16.12c.1.58-.33.18-.2.77l-.13.01c.02.15,0,.3.15.26a12.047,12.047,0,0,1-.4,1.6c.01.34.12-.12.2.05.15.37-.08.47-.17.78l.13-.08-.12.65-.1-.1-.05.44c.07.13.08-.06.13-.2-.08.47.25.9-.02,1.34l-.12-.07c.03.01.04-.06.03-.1-.15-.5-.15.34-.24.35.15.12-.02.62.18.7a.2.2,0,0,0-.1.23c.02.06.07.07.08.1.04-.01.06-.01.06.03-.12.12-.01.08-.07.2.06.07.15-.18.2-.16a.419.419,0,0,0,.04.16c.2-.28.23.2.74.01.33-.27.87.04,1.38-.27l.04.12c.4-.17.65.03.98-.1.1.1-.07.08-.04.24.33-.16-.05.28.16.1.5.07.88-.67,1.35-.7.47-.27.97.15,1-.17l-.26.02.68-.13.04.1c.27-.12.95-.07,1.27-.3,0,.01.02.02.05.04.34-.15.46-.01.74-.24l-.03.05a9.375,9.375,0,0,1,2.6-.65c.05.16.54.02.9-.07-.1.02-.1.1-.13.13.47-.27,1.08.04,1.56-.26l-.01.03c.2.06.77-.3.9-.02a3.722,3.722,0,0,1,1.95-.4l-.03.05.83.14a1.437,1.437,0,0,1,.05-.33l-.08-.23a4.885,4.885,0,0,0-.66-.93l-.84-.46a2.217,2.217,0,0,0-1-.86Z" fill="#fff"/>
    <path id="Path_13717" data-name="Path 13717" d="M358.58,420.04l-.1-.6-.2-1-.26-1.2c0-.05-.03-.05-.07-.04h-.1l-.35.04.03-.08a2.2,2.2,0,0,0-.25-.9,5.6,5.6,0,0,0-.3-.48,5.209,5.209,0,0,0-1.78-1.67l-2.27-1.2a17.584,17.584,0,0,0-3.63-2.16,20.546,20.546,0,0,0-2.56-1c-.46.03-1.1-.4-1.6-.4l-.14-.17a.8.8,0,0,1-.53-.14l.02-.03a5.45,5.45,0,0,1-.66-.13l.02-.03-.3-.07.07-.03a5.178,5.178,0,0,1-1.29-.3v.15a3.341,3.341,0,0,0-.54-.2l-.3-.06-.34-.06a7.373,7.373,0,0,1-1.5-.4v-.04a2.5,2.5,0,0,1-.48-.02h-.01l-.32-.1-.4-.12a1.4,1.4,0,0,0-.6-.15l-4.67-1.7-9.25-3.13-2.08-.55a28.206,28.206,0,0,0-1.14-3.62L318,392l-1.5-3.17c-.25-.53-.44-1.13-.9-1.4a4.58,4.58,0,0,0-1.81-.02l-.43.12-.36.15a3.468,3.468,0,0,0-.68.42,4.108,4.108,0,0,0-1.04,1.23,6.693,6.693,0,0,0-.76,2.64l-.18-.83c-.26-.47-.5-1.64-.7-2a5.775,5.775,0,0,0-.15-.66l.6-.17-.06.02a3.72,3.72,0,0,0,2.34-1.53,3.54,3.54,0,0,0,.56-1.34,4.335,4.335,0,0,0-.01-1.4l-.57-4.58-1.16-9.2c-.8-6.13-1.63-12.2-2.6-17.95-.02-.25-.1-.7-.17-1.1l-.1-.5c-.03-.13-.05-.2-.05-.2l-2.08-14.1s-2.56-17.1-4.62-27.63c-1.02-5.27-1.92-8.9-1.97-7.95a19.042,19.042,0,0,0,.18,2.3l-.43-2.23a97.625,97.625,0,0,0-2.64-9.67c1.5,4.2,2.4,6.95,2.85,8.6.78,2.53.84,2.3.7.9a56.715,56.715,0,0,0-1.35-6.33c-.3-1.12-.57-2.16-.8-2.9l-.37-1.2c-2.27-7.46-4.34-12.98-6.64-18.8l-8.35-20.47c-6.07-15.05-7.5-19.12-14.2-34.55l-1.1-2.58.66-1.9,1.52-4.46H196.88l-2.67,11.47,2.04-10.73.1-.73h-.45c-.98,3.2-2.87,10.8-2.87,10.8-4.14,16.2-5.7,24.6-10.15,43.94l-2.62,10.78-1.08,4.38-.5,2.07-.58,1.9a14.714,14.714,0,0,1-4.8,6.5,29.107,29.107,0,0,1-4.23,2.67c-1.64.85-3.48,1.68-5.55,2.56l-6.08,2.5-6.15,2.6-12.1,4.93c-3.66,1.66-10.36,3.95-14.77,5.72l-1.77.5c-1.52.6-3.3,1.3-4.88,1.78l.1-.07c-2.27.9-4.9,1.75-6.03,2.18l.08-.07-2.8.97.47-.2-3.02,1.07-.76.26a5.042,5.042,0,0,0-.95.4,3.544,3.544,0,0,0-1.46,1.72,3.73,3.73,0,0,0-.19,2.19l.67,2.54c-1.2.25-2.46.62-3.85.8l-.37.14-.1.01a2.891,2.891,0,0,1-.67.23c-.28-.02-.01-.16-.93.03-.1.01-.22.03-.35.05l-.01-.9a2.828,2.828,0,0,0-.88-1.87,3.46,3.46,0,0,0-1.67-.88q-.82-.127-1.63-.31l.04-.03c-3.1-.02-4.82-.82-8.02-.7.4-.02-.16-.1-.13-.12-1.46-.06-3.02-.1-3.06.17-1.06-.05-.86-.13-1-.24,0,.13-.92.13-1.75.1l.38-.03-2.37-.08.46.26c-1.25-.13-.3-.3-1.5-.3l.01.2a19.847,19.847,0,0,1-2.23-.3c-.13-.03-.47-.07-.72-.1l-.87-.12-.48-.06c-.03,0-.1-.03-.1,0l-.02.08a.09.09,0,0,1-.05-.01l-.45-.06-.27-.05-.56-.1a6.8,6.8,0,0,0-1.28-.12,3.727,3.727,0,0,0-2.63.98,3.971,3.971,0,0,0-1.24,2.46l-.53,4.28c-.36,2.83-.75,5.6-1.27,8.16l-.18.23c-.23.08.08,1.67-.15,1.86v.7c-.07.2-.17.58-.16.23a4.527,4.527,0,0,0-.07,1.1l-.23.65c-.46,2.47-.52,4.63-.95,7.23-.73,3.1-1.34,9.06-1.7,12.5-.38,4.85-2.03,10.28-2.4,15.24a1.458,1.458,0,0,0-.02.58l-.68,4.48-.44,3.15-.37,2.88-.1.74a3.808,3.808,0,0,0-.04.9,3.425,3.425,0,0,0,.57,1.65,3.035,3.035,0,0,0,2.1,1.33c.57.06.8-.06.67-.18a6.843,6.843,0,0,1-1.4-.98,2.471,2.471,0,0,1-.64-1.5,2.75,2.75,0,0,1,.17-1.04l.37-1.4.03.12a29.926,29.926,0,0,0,.73-5.72c.32-.22.32-2,.5-2.57l.02.06c0-1.54.63-3.06.65-4.54a.565.565,0,0,1,.04.44,9.111,9.111,0,0,1,.44-2.56c.32-2.52.9-6.02.88-7.68l.03.12a20.643,20.643,0,0,1,.2-2.24c.03-.05.05-.12.06-.1-.03-1.03.4-2.92.44-3.75l.12-.03.26-2-.13.74c-.26-.3.4-1.47.42-2.95.23-1.35-.23-2.85.12-4.23-.04-.7.14.63.18-.4.16-.01.03.48.2.25.07-1,.4-1.6.47-2.82l.13-.03c.01-1.62.6-2.96.54-4.05.14-1.65.52-1.03.53-2.77l.26-.63c.13-.72-.13-.55.07-1.35.1.07.23-1,.26-.52.43-1.8.3-3.74.93-6.1-.13-.56.17-1.74.07-2.16.1-.05.37-2.42.36-1.03,0,.12-.03.32-.07.3l.1.18a24.97,24.97,0,0,0,.47-3.86c-.1.4-.17.93-.2.56l.2-1.26.06.28c.03-.14.06-.35.08-.42a1.808,1.808,0,0,1,.1-.27,2.365,2.365,0,0,1,.32-.5,1.517,1.517,0,0,0-.2.06,1.614,1.614,0,0,1,.6-.4,4.242,4.242,0,0,0,.63-.3c.3-.15-.6-.06.03-.22.1,0,.2.01.3.02h.07a9.661,9.661,0,0,1,1.36.28l.4.1c.06.02.1.03.1.04l.13.05a1.244,1.244,0,0,1-.04.16c.08-.03.1-.03.13,0a.127.127,0,0,1,.01.06.549.549,0,0,1-.01.17l-.13.03c-.08,1.7-.36.57-.47,2.24l.13.32c.02,1.52-.38.76-.3,2.47.02-.2.06-.3.1-.32l-.18,1.4c-.05-.01-.13.17-.18.62l-.08-.46.03,1.27c-.27.94-.34,2.48-.56,2.84a12.287,12.287,0,0,0-.28,2.54c-.05-.43-.27.7-.35.35a9.783,9.783,0,0,1-.3,2.75v-.12c-.34,1.6-.4,2.93-.58,4.27a1.826,1.826,0,0,0-.04.3c-.07.5-.15.98-.27,1.5.16-.07-.1,1.02.14.77l-.03.32c-.06.2-.1.35-.1.07a7.594,7.594,0,0,0-.1,1.22l-.24.72c-.5,2.7-.6,5.07-1.1,7.93-.8,3.4-1.52,9.93-1.94,13.7q-.061.686-.15,1.37c-.02.16-.05.33-.07.5a.3.3,0,0,0-.1-.04l-.06.24-.14-.03c-.1-.1-.07.26-.04.6s.07.64-.03.63l.03.46c-.05.08-.13.3-.14.08a1.955,1.955,0,0,0-.01.68,1.463,1.463,0,0,1-.18.3c-.23.84-.1,1.6-.28,2.5a15.183,15.183,0,0,0-.53,4.3c.07,1.7-1.07,3.5-.96,5.24a.213.213,0,0,0,.03.2l-.26,1.54a24.315,24.315,0,0,0-.28,2.88v.25a14.142,14.142,0,0,0-1.62.17c-.86.14-.8.3-.36.46a5.156,5.156,0,0,0,.92.2c.2.03.4.06.6.1l1.03.1,1,.1c.08.01.16.01.23.02.05.02.06-.01.06-.05v-.1l.06-.35a.179.179,0,0,0,.07.05,2.156,2.156,0,0,0,.93.03,5.667,5.667,0,0,0,.55-.14,4.93,4.93,0,0,0,2.13-1.2c.55-.5,1.07-1.07,1.82-1.8a18.124,18.124,0,0,0,3.16-2.8,24.9,24.9,0,0,0,1.74-2.13c.1-.45.7-.9.88-1.4l.2-.08a.8.8,0,0,1,.3-.46l.02.03c.08-.26.3-.46.33-.6l.02.03.16-.27.01.07a5.136,5.136,0,0,1,.68-1.14l-.14-.05a3.118,3.118,0,0,0,.35-.46l.15-.27.16-.3a6.539,6.539,0,0,1,.84-1.29l.04.01a2.98,2.98,0,0,1,.16-.45v-.01l.2-.28.24-.35a1.829,1.829,0,0,0,.33-.54l3.04-3.93s3.67-4.77,5.78-7.87c.5-.73.9-1.36,1.15-1.8a27.757,27.757,0,0,0,3.8.01c2.7-.1,4.75-.32,6.92-.6l3.47-.47a2.943,2.943,0,0,0,1.6-.44,4.363,4.363,0,0,0,.56-1.72l.02-.45-.03-.4a3.355,3.355,0,0,0-.2-.77,4.005,4.005,0,0,0-.85-1.36c-.1-.1-.22-.2-.32-.3a5.738,5.738,0,0,1,.62-.1c.48-.23,1.67-.42,2.03-.6.07.04,2.36-.52,1.06-.1-.1.03-.3.08-.3.05l-.14.1c1.36-.16,2.4-.6,3.72-.88-.4.06-.9.18-.58.06l1.23-.26-.24.12.93-.2a1.176,1.176,0,0,0,.1.3,3.305,3.305,0,0,0,1.2,1.55,3.8,3.8,0,0,0,1.82.67,3.748,3.748,0,0,0,1-.07l.7-.15,2.9-.63c1.98-.45,4.1-.96,6.44-1.6-1.17.32.52-.04.44.01,4.36-1.05,9.02-2.16,9.03-2.46,3.18-.74,2.6-.52,3.05-.5a42.228,42.228,0,0,1,5.2-1.4l-1.13.32,7.1-1.72-1.45.1c3.8-.83,1.02.05,4.63-.86l-.1-.18c5.23-1.2,8.36-1.65,13.44-2.73,10.5-2.5,21.35-5.28,31.98-8.16,5.3-1.48,10.6-2.88,15.66-4.76a45.482,45.482,0,0,0,7.3-3.36,20.626,20.626,0,0,0,5.9-5.32,8.084,8.084,0,0,0,.65-.66,11.283,11.283,0,0,0,1.6-2.67c.68-1.3,1.23-2.7,1.5-3,.33-.72.62-1.45.9-2.18.3-.6.92-1.84.48-.75a37.5,37.5,0,0,0,1.4-3.52c.35-.7.68-1.4,1-2.1l2.04-5.1,3.55,5.84v.05l6.8,11.67c5.1,8.8,10.82,17.16,13.68,25.9l.13.8a16.856,16.856,0,0,0,.9,2.6,17.6,17.6,0,0,1,.9,2.9l.64,2.05c.1.6.37,1.85.07.82.47,1.93.5,1.97.9,3.36l.35,2.12c1.73,7.75,3.77,14.15,5.9,22.18l2.25,8.58,1.36,5a8.168,8.168,0,0,0,.48,1.48,3.28,3.28,0,0,0,1.37,1.39,3.224,3.224,0,0,0,1.96.34.881.881,0,0,0,.29-.07l.17-.05.33-.1.65-.2.67-.2.1.22v.1a2.6,2.6,0,0,1,.26.65c0,.28-.16.02.08.92.12.73.56,2.02.83,2.95-.12-.5-.04-.35.04-.14.12.45.12.73.24,1.07l-.08.07c.04-.2.4,1.16.48,1.3,0,.27-.24-.7-.32-.8l.48,1.8a2.729,2.729,0,0,0-.62.84,3.54,3.54,0,0,0-.34,1.86q.121.822.2,1.65l-.04-.03c.92,2.97.68,4.85,1.77,7.86-.14-.37-.03.18-.07.16.38,1.4.8,2.9,1.1,2.86.27,1.02.14.86.07,1.02.12-.04.4.84.62,1.64l-.14-.36.64,2.28.1-.5c.25,1.23-.2.4.16,1.54l.18-.07a18.817,18.817,0,0,1,.38,2.22c.01.13.07.47.1.72l.15.86.1.47c.01.03,0,.1.04.1l.08-.01c0,.02.01.03.01.05l.07.45.04.27.07.56a6.377,6.377,0,0,0,.27,1.26,3.61,3.61,0,0,0,1.73,2.2,3.98,3.98,0,0,0,2.72.44l4.24-.8c2.8-.5,5.56-.98,8.16-1.25l.28.1c.14.2,1.57-.58,1.82-.42l.67-.2c.2.01.6-.02.27.08a4.816,4.816,0,0,0,1.08-.27l.7.02c2.5-.3,4.57-.9,7.18-1.28,3.17-.24,9.04-1.46,12.42-2.16,4.73-1.1,10.4-1.17,15.25-2.33a1.452,1.452,0,0,0,.56-.16l4.48-.7,3.13-.53,2.86-.52.73-.14a3.694,3.694,0,0,0,.88-.23,3.46,3.46,0,0,0,1.4-1.04,3.044,3.044,0,0,0,.63-2.4c-.12-.57-.3-.75-.38-.58a5.962,5.962,0,0,1-.52,1.62,2.45,2.45,0,0,1-1.25,1.07,2.842,2.842,0,0,1-1.04.16l-1.46.08.1-.06a31.428,31.428,0,0,0-5.67,1.03c-.3-.24-2.02.3-2.6.3l.05-.03c-1.47.46-3.1.32-4.52.76a.572.572,0,0,1,.4-.17,9.468,9.468,0,0,1-2.57.35c-2.5.45-6,.95-7.58,1.48l.1-.06a17.986,17.986,0,0,1-2.2.48c-.06-.01-.13-.01-.12-.02-.97.34-2.9.5-3.7.7l-.07-.1-1.98.35.75-.1c-.2.35-1.53.06-2.94.5-1.35.18-2.65,1.08-4.07,1.16-.65.25.56-.33-.43-.05-.06-.15.45-.18.18-.26-.97.24-1.63.1-2.82.4l-.07-.12c-1.54.48-3,.33-4.02.7-1.6.37-1.14-.2-2.8.33l-.68-.06c-.73.1-.5.3-1.3.34.03-.1-1.03.08-.57-.1-1.84.13-3.66.84-6.1.95-.5.3-1.7.37-2.08.58-.08-.08-2.42.38-1.1-.03.1-.03.32-.07.3-.03l.14-.15a25.984,25.984,0,0,0-3.82.72c.4-.03.94-.12.6.02l-1.26.2.25-.14c-.14.01-.35.05-.43.05s-.2,0-.3-.01a1.62,1.62,0,0,1-.57-.16,1.04,1.04,0,0,0,.12.17,1.359,1.359,0,0,1-.55-.44,4.079,4.079,0,0,0-.47-.5c-.23-.23.12.58-.22.03-.03-.1-.05-.2-.08-.3l-.02-.07a12.53,12.53,0,0,1-.15-1.38l-.03-.42v-.12l.01-.14c.04-.01.12,0,.16-.01-.06-.06-.07-.1-.04-.12a.163.163,0,0,1,.06-.03.531.531,0,0,1,.17-.05l.07.1c1.63-.44.65.17,2.28-.23l.26-.22c1.45-.48.84.13,2.44-.47-.2.04-.3.03-.34,0l1.4-.25c.01.05.2.07.64-.02l-.4.22,1.2-.42c.97-.03,2.46-.43,2.88-.32a13.4,13.4,0,0,0,2.5-.5c-.4.18.74.04.44.23a9.657,9.657,0,0,1,2.7-.53l-.12.03c1.63-.16,2.9-.5,4.24-.74a1.045,1.045,0,0,0,.3-.06q.75-.129,1.51-.19c-.12-.13,1-.23.7-.36.1-.03.2-.04.3-.07.2,0,.37,0,.1.08a5.938,5.938,0,0,0,1.2-.28l.76.01c2.74-.33,5.02-.95,7.9-1.35,3.5-.28,9.93-1.55,13.64-2.3q.671-.152,1.35-.27c.16-.03.33-.05.5-.08a.34.34,0,0,0-.01.1h.25c0,.05.01.1.01.15-.07.12.27-.01.58-.15s.6-.26.6-.16l.43-.17c.1.02.32.03.12.1a1.849,1.849,0,0,0,.65-.2,1.416,1.416,0,0,1,.34.08c.87-.03,1.56-.4,2.47-.5a15.155,15.155,0,0,0,4.27-.8c1.6-.58,3.65-.04,5.28-.67a.244.244,0,0,0,.2-.1l1.55-.2a23.438,23.438,0,0,0,2.83-.6l.24-.07c.28.7.5,1.18.66,1.5.4.77.53.67.55.2a4.724,4.724,0,0,1-.17-.97ZM75.02,375.92H75c-.3.2.16.12-.48.82.14.05-.12.32.08.34-.25.7-1.05.9-.74,1.44-.17.3-.34.24-.47.37v-.08a7.506,7.506,0,0,1-.74,1.04c-.1.22.1.42-.23.7,0-.17-.1-.03-.2.1.05-.1.04-.14-.15-.02a.275.275,0,0,1-.02.13c-.01,0-.02,0-.02-.01-.14.23-.08.2,0,.13.01.02.03.02.08.01-.27.13-.48.6-.64.5-.48.63-.72,1.17-1.12,1.7-.12-.01-.07-.18.03-.34l-.3.37c-.1-.1.12-.25.2-.37-.53.26-.63.98-1.23,1.3l-.02.17-.04.01c.04.04-.01.2-.07.27-.15-.02-.18-.2-.4.03-.26.1-.5.53-.7.8.15-.1.15-.02.12.06-.12.1-.26.1-.32.2l-.1-.1c.15.07-.2.4-.22.48-.15-.03.13-.24.1-.33l-.72.63c-.2.3.14.08.1.3a2.422,2.422,0,0,1-.73.6l.17.05a2,2,0,0,1-1.1.67,18.333,18.333,0,0,1-1.58,1.43c-.02.02-.02.03-.04.05.04-.23.07-.37.07-.37l.42-2.24.26-1.57c.16-1,.27-1.97.38-2.96l.78-7,.56-3.22a.1.1,0,0,1,.08-.02.233.233,0,0,1,.2.18c.14-.17.56.14.72.04-.01.1.77.34.26.34-.04,0-.1-.03-.1-.06l-.1.1c.35.4.85.22,1.27.43-.1-.1-.3-.15-.14-.18l.4.18-.12.06.58.3-.03-.15c.27.18.3.43.7.4.2-.03-.2-.27.1-.18a15.953,15.953,0,0,0,1.4.86c.01-.15.14-.1.3-.06l-.03.12c.6.06.1.33.67.43l.16-.12c.57-.03.16.35.82.26-.14-.04-.1-.14.02-.17.06.03.12.05.17.08l-.06.04c.15.04.22.01.3.07-.1.02-.1.14.1.2l-.2.08.48-.04c.26.25.8.3.87.5.1.04.08.12.3.02-.13.07-.1.13-.27.2.16-.17.46-.17.17-.04Zm13.95-16.08c.17-.43-.02-.44-.76.2l.52-.67,3.6-.34a27.128,27.128,0,0,0-3.36.8Zm13.5-6.9c-.27-.14-.53-.27-.78-.38a15.538,15.538,0,0,0-1.97-.68,15.115,15.115,0,0,0-2.37-.45s-1.44.07-1.9.16l-6.13.48,1.26-1.73,4.77-.6v.05l2.13-.33.04-2.38c.1-2.8.1-5.8.14-8.54-.18-1.3.07-3.6-.08-5.14l.13-.6a6.9,6.9,0,0,1-.01-1.7l.03.03c-.08-.8-.02-1.7-.06-2.08l.03.03-.01-.96.05.17c-.08-1.25-.1-2.53-.07-3.7l6.5-1.2.16.63.06-.35c2,8.04,3.08,10.9,4.85,18.15l-.06-.1c.7,2.26,1.3,4.3,1.8,6.22l.74,2.82-9.26,2.15Zm209.3,50.38-2-4.36a.433.433,0,0,1,.05-.01l-.96-1.93-2.28.68c-2.7.75-5.56,1.65-8.18,2.45-1.2.57-3.45,1.02-4.88,1.63l-.6.06a8.534,8.534,0,0,1-1.6.52l.02-.04c-.73.32-1.6.53-1.97.7l.02-.04-.92.3.14-.1c-1.3.5-2.66.94-3.86,1.3l.14.1-.9.25-.72.23-.74-2.7-1.25-5.24,17.43-5.35,9.78-2.95c.77,2.66,1.5,5.27,2.1,7.73l.78,1.5c.05.1.1.2.13.27l2.3,5.7-2.03-.7Zm9.17-.98-1.42-3.33a32.509,32.509,0,0,0,1.78,2.96c-.46-.03-.42.15.43.66l-.8-.3Zm35.8,15.02-2.26.28-1.58.22c-1,.16-1.96.34-2.94.53l-6.9,1.37-3.24.44a.127.127,0,0,1-.05-.07.208.208,0,0,1,.1-.23c-.2-.08-.03-.57-.18-.7.1-.01.1-.84.24-.35.01.04,0,.1-.03.1l.12.07c.27-.46-.05-.87.02-1.34-.05.14-.06.32-.13.2l.05-.44.1.1.12-.65-.13.08c.1-.3.32-.4.17-.78-.1-.17-.2.3-.2-.05.12-.42.3-1.05.4-1.6-.15.04-.13-.1-.15-.26l.13-.01c-.12-.6.3-.2.2-.77l-.16-.12c-.2-.54.28-.26,0-.86,0,.14-.1.13-.17.04.01-.06.01-.13.02-.2l.06.04c-.01-.16-.06-.2-.02-.3.06.1.17.06.17-.17l.14.17-.18-.45c.16-.32.04-.86.22-.98.01-.1.1-.12-.08-.3.1.1.15.06.28.2-.13-.1-.22-.4-.01-.15v.02c.27.22.06-.2.92.2.01-.15.34.02.3-.18.76.02,1.17.73,1.6.27.33.08.34.25.5.34h-.1a6.979,6.979,0,0,1,1.22.4c.24.03.37-.2.74.01-.16.05,0,.1.15.15-.1-.02-.14,0,.02.14a.318.318,0,0,1,.13-.02v.03c.26.06.23.02.12-.04.01-.01.01-.04-.01-.08.2.22.7.28.67.46.74.27,1.33.33,1.96.55.03.12-.15.12-.34.08l.44.17c-.06.12-.28-.04-.42-.08.4.42,1.12.3,1.6.78l.17-.03.03.03c.02-.05.2-.05.28-.02.03.15-.13.23.15.38a2.81,2.81,0,0,0,.97.42c-.14-.1-.06-.13.03-.13.14.08.16.22.3.24l-.07.14c.03-.16.44.08.52.06.01.15-.26-.05-.34,0l.82.5c.35.1.03-.16.24-.18a2.541,2.541,0,0,1,.8.5l-.01-.18a1.943,1.943,0,0,1,.97.86c.98.48,1.5.9,1.84,1.08.02.01.04.01.06.02-.22.02-.36.04-.36.04Z"/>
    <g id="Group_1018" data-name="Group 1018">
      <path id="Path_13718" data-name="Path 13718" d="M241.02,288.34l.1-.2C241.11,288.13,241.08,288.18,241.02,288.34Zm17.76-51.74a.433.433,0,0,1,.01-.05A.175.175,0,0,0,258.78,236.6Zm-13.92,44.17v.01c0,.02-.01.04-.01.06Z" fill="#fff"/>
      <path id="Path_13719" data-name="Path 13719" d="M241.2,291.17l2.3-6.25,1.37-4.13c.1-.67.6-1.74.75-2.5l.17-.26a2.908,2.908,0,0,1,.26-.82l.01.02c.08-.4.26-.82.3-1.02l.01.02.15-.47v.1a14.679,14.679,0,0,1,.64-1.97l-.1.02c.54-1.26.53-1.8,1.04-2.93l.01.02c.3-1.55.95-2.28,1.27-3.88-.04.2.07-.07.1-.04.22-.7.46-1.46.3-1.53.18-.5.2-.4.28-.44-.07-.02.05-.48.18-.88l-.04.2.37-1.15-.2.18c.25-.6.22-.1.38-.7l-.1-.03c.3-.83.65-1.26,1-2.05,1.2-3.36,2.17-7.08,3.44-10.15l.13-.1c.14-.02.12-.93.27-1l.07-.38c.06-.1.15-.3.12-.1a2.731,2.731,0,0,0,.15-.6l.2-.34c.52-1.3.76-2.5,1.27-3.9a66.574,66.574,0,0,0,2.22-6.7c.7-2.63,2.2-5.45,2.9-8.15a.8.8,0,0,0,.07-.32l.84-2.4s4.05-11.64,0-3.13l-.01-.07a16.045,16.045,0,0,0-1,3.07c-.2.1-.4,1.08-.55,1.37v-.03c-.15.85-.67,1.62-.83,2.43a.359.359,0,0,1,.02-.25,5.071,5.071,0,0,1-.5,1.36,39.338,39.338,0,0,0-1.27,4.14l-.01-.07a8.77,8.77,0,0,1-.34,1.2c-.02.03-.04.06-.05.05-.08.57-.52,1.57-.63,2.02h-.07l-.35,1.07.15-.4c.13.2-.4.77-.54,1.58a21.356,21.356,0,0,1-.5,2.32c-.04.4-.02-.36-.15.2-.1-.01.03-.27-.1-.16-.14.54-.4.83-.55,1.5h-.08c-.16.9-.64,1.57-.7,2.17-.24.9-.4.5-.58,1.47l-.22.32c-.15.38.02.32-.17.73-.05-.05-.24.53-.2.26-.43.94-.55,2.03-1.15,3.26.02.32-.27.94-.25,1.18-.06.02-.45,1.3-.3.53.01-.07.05-.18.07-.16l-.04-.1a13.2,13.2,0,0,0-.66,2.08c.1-.2.2-.5.17-.3l-.24.67-.01-.16-.38,1,.12-.1a3.594,3.594,0,0,0-.48,1.2c-.03.27.26-.43.1.1-.27.64-.7,1.6-1,2.43.1-.05.03.17-.04.4h-.08c-.2.92-.27.27-.5,1.18l-.02-.1.07.28c-.13.85-.3.38-.4,1.33.1-.35.2-.1.03.3l-.03-.13a4.725,4.725,0,0,1-.14.5c.01-.15-.07-.1-.18.25v-.26l-.1.7c-.25.5-.44,1.33-.6,1.5a6.065,6.065,0,0,0-.4,1.37c.01-.24-.22.35-.24.16a4.739,4.739,0,0,1-.45,1.48l.01-.07c-.5,1.22-.62,2.17-1.1,3.26.1-.02-.15.55.01.44-.3,1.2-.94,2.04-.76,2.57a5.425,5.425,0,0,1-.4.87l.03-.13c-.3,1-.4,1.28-.67,2a3.934,3.934,0,0,1-.22,1.13c.01-.23-.07.04-.15.28.04-.16.04-.22-.1.1a1.682,1.682,0,0,1-.02.2c-.01,0-.01.01-.02,0-.12.42-.08.35,0,.16.01.01.02,0,.06-.05-.22.4-.4,1.2-.52,1.2-.4,1.24-.6,2.16-.9,3.2-.1.1-.06-.16.02-.46l-.23.73c-.07-.03.1-.43.16-.66-.42.82-.5,1.83-.95,2.8l-.01.23-.03.06a.907.907,0,0,1-.04.4c-.12.12-.15-.06-.32.44a10.069,10.069,0,0,0-.5,1.67c.1-.28.1-.17.1-.04a6.045,6.045,0,0,0-.24.58l-.1-.01c.12-.07-.13.7-.13.8-.12.12.08-.4.05-.5l-.5,1.52c-.12.56.12-.07.1.22a11.729,11.729,0,0,1-.48,1.5l.14-.15a10.484,10.484,0,0,1-.72,2.02c-1.63,6.86.4,1.7.4,1.7a63.973,63.973,0,0,0,2.33-7.08Z" fill="#fff"/>
    </g>
    <path id="Path_13720" data-name="Path 13720" d="M86.7,353.33Z"/>
    <g id="Group_1019" data-name="Group 1019">
      <path id="Path_13721" data-name="Path 13721" d="M82.4,367.23c.1-.14-.08-.1-.07-.17l.01-.01c-.16.03-.07-.2-.22-.2.01-.01.05-.04.06-.03-.06-.03-.16-.06-.1-.14-.14-.1-.27-.27-.46-.22l.02-.02c-.12.04-.07-.04-.15-.04a.031.031,0,0,0,.01-.02c-.12.04-.15-.1-.22-.1l.04-.05-.1-.07.03.04c-.14.12.01-.15-.14-.12-.05-.08-.4.16-.4.04-.1.03.12-.08.03-.07.06-.07.06-.02.1-.1-.08-.01-.01-.14-.1-.15l.05-.06c-.17.03-.08-.2-.2-.15-.12-.02.1-.2-.08-.18l.04-.1c-.02-.04-.1.07-.1,0,.05-.04-.01-.08.05-.1-.02-.15-.27-.05-.27-.28-.1.07-.12-.04-.2.01.03-.04-.1-.1.03-.14.01,0,.02.01.01.02l.06-.05c.03-.16-.17-.05-.22-.12,0,.04.03.05-.02.08l-.05-.06.05-.03-.06-.1-.04.07c-.02-.07.05-.18-.07-.14-.06.02-.03.1-.1.1a.73.73,0,0,0-.12-.3c-.05.07-.07.05-.1.04l.05-.06c-.15.01.08-.15-.05-.16l.04-.03-.13.1c-.17.05.07-.15-.15-.07.04.02-.1.14-.1.08l.06-.04c-.03-.01-.06.01-.06-.02.04-.02.08-.07.04-.1l.08-.05-.16.02c.01-.1-.13-.1-.08-.18,0,0-.06-.13-.16-.06.07-.03.03-.1.1-.15-.08.03-.2.01-.17-.07h.01c-.05-.16-.27-.1-.3-.25-.05.07-.07-.01-.14.08-.18-.01-.04-.34-.3-.12-.06-.03,0-.1-.01-.14H78a1.15,1.15,0,0,1-.2-.14c-.05,0-.17.1-.2.03.06-.03.03-.04.01-.06.02.01.04-.01.04-.07-.02.01-.03.01-.04.02-.04-.03-.05-.01-.04.02-.01.01-.01.02-.02.03.02-.1-.1-.1-.04-.18a2.25,2.25,0,0,0-.4-.12.113.113,0,0,1,.12-.06l-.08-.04c.05-.06.07,0,.1.01.01-.17-.25-.05-.25-.22l-.06.03v-.01a.128.128,0,0,1-.1.04c.03-.06.1-.12.06-.16.01-.08-.12-.07-.2-.08.02.03-.02.05-.04.06-.02-.02.01-.08-.03-.08l.06-.07c-.05.07-.12.02-.16.04.03-.06.07-.01.12-.05l-.14-.1c-.1.01-.05.07-.13.1-.05-.02-.14-.01-.15-.1l-.04.08c-.12-.02-.16-.07-.16-.18-1.05-.03-.75.58-.75.58.1.35.4.27.7.48.2.25.17.43.46.6a2.088,2.088,0,0,0,.4.3c.14-.04.15.14.3.12l-.02.08c.05-.01.1,0,.1.05v.01c.07-.01.1.05.12.04h-.02l.05.03-.03.02a.243.243,0,0,1,.2.13l.05-.07c.05.18.2.08.24.26l-.02.01c.28-.05.1.3.38.26-.04,0-.02.04-.04.05.08.04.15.1.27-.04.04.04,0,.07-.04.13.05-.06.1-.04.15-.01l-.04.01.12.07.08-.12c.03.08-.1.14-.03.16l.08-.1c.06.08-.02.26,0,.38.26.3.8.38.92.78l-.05.08c-.08.1.2-.07.14.03l.07-.01c-.01.03,0,.06-.04.07.03.03.04.02.1.01l-.02.1c.08.15.28.13.38.27.04.26.42.4.64.48.36.06.28.68.66.73,0,.02.04.01.05,0l.2.2s1,.97.93-.53v-.02c-.06-.2-.12-.26-.3-.23Zm3.96-5.86c.1-.14-.08-.1-.07-.17h.01c-.16.03-.07-.2-.22-.2.01-.01.05-.04.06-.03-.06-.03-.16-.06-.1-.14-.14-.1-.27-.27-.46-.22h.02c-.12.04-.07-.04-.15-.04a.031.031,0,0,0,.01-.02c-.12.04-.15-.1-.22-.1l.04-.05-.1-.07.03.04c-.14.12.01-.15-.14-.12-.05-.08-.4.16-.4.04-.1.03.12-.08.03-.07.06-.07.06-.02.1-.1-.08-.01-.01-.14-.1-.15l.05-.06c-.17.03-.08-.2-.2-.15-.12-.02.1-.2-.08-.18l.04-.1c-.02-.04-.1.07-.1,0,.04-.04-.01-.08.05-.1-.02-.15-.27-.05-.27-.28-.1.07-.12-.04-.2.01.03-.04-.1-.1.03-.14.01,0,.02.01.01.02l.06-.05c.03-.16-.17-.05-.22-.12,0,.04.03.05-.02.08l-.05-.06.05-.03-.06-.1-.04.07c-.02-.07.06-.18-.07-.14-.06.02-.03.1-.1.1a.73.73,0,0,0-.12-.3c-.05.07-.07.05-.1.04l.05-.06c-.15.01.08-.15-.05-.16l.04-.03-.13.1c-.17.05.07-.15-.15-.07.04.02-.1.14-.1.08l.06-.04c-.03-.01-.06.01-.06-.02.04-.02.08-.07.04-.1l.08-.05-.15.04c.01-.1-.13-.1-.08-.18,0,0-.06-.13-.16-.06.07-.03.03-.1.1-.15-.08.04-.2.01-.17-.07h.01c-.05-.16-.27-.1-.3-.25-.05.07-.07-.01-.14.08-.18-.01-.04-.34-.3-.12-.06-.03,0-.1-.01-.14h.02a1.149,1.149,0,0,1-.2-.14c-.05,0-.17.1-.2.03.06-.03.03-.04.01-.06.02.01.04-.01.04-.07-.02.01-.03.01-.04.02-.04-.03-.05-.01-.04.02-.01.01-.01.02-.02.03.02-.1-.1-.1-.04-.18a2.25,2.25,0,0,0-.4-.12.113.113,0,0,1,.12-.06l-.08-.04c.05-.06.07,0,.1.01.01-.17-.24-.05-.25-.22l-.06.03v-.01a.128.128,0,0,1-.1.04c.03-.06.1-.12.06-.16.01-.08-.12-.07-.2-.08.02.03-.02.05-.04.06-.02-.02.01-.08-.03-.08l.06-.07c-.05.07-.12.02-.16.04.03-.06.07-.01.12-.05-.1-.07-.05-.04-.14-.1-.1.01-.05.07-.13.1-.05-.02-.14-.01-.15-.1l-.04.08c-.12-.02-.16-.07-.16-.18-1.05-.03-.75.58-.75.58.1.35.4.27.7.48.2.25.17.43.46.6a2.088,2.088,0,0,0,.4.3c.14-.04.15.14.3.12v.08c.05-.01.1,0,.1.05h-.02c.07-.01.1.05.12.04l-.02.01.05.03-.03.02a.243.243,0,0,1,.2.13l.05-.07c.05.18.2.08.24.26l-.02.01c.28-.05.1.3.38.26-.04,0-.02.04-.04.05.08.04.15.1.27-.04.04.04,0,.07-.04.13.05-.06.1-.04.15-.01l-.04.01.12.07.08-.12c.03.08-.1.14-.03.16l.08-.1c.06.08-.02.26,0,.38.26.3.8.38.92.78l-.05.08c-.08.1.2-.07.14.03l.07-.01c-.01.03,0,.06-.04.07.03.03.04.02.1.01v.1c.08.15.28.13.38.27.04.26.42.4.64.48.36.06.28.68.66.73,0,.02.04.01.05,0l.2.2s1,.97.93-.53l.02-.02c-.07-.2-.13-.28-.3-.25Zm2.34-6.43h0l.05-.01Z" fill="#fff"/>
      <path id="Path_13722" data-name="Path 13722" d="M89.55,359.24c.16-.06-.02-.13.03-.18h.01c-.15-.06.05-.22-.1-.28.01,0,.06-.01.07.01-.04-.06-.1-.14,0-.17-.07-.15-.08-.38-.27-.43h.03c-.12-.03-.04-.07-.1-.12a.031.031,0,0,1,.02-.01c-.12-.03-.07-.18-.12-.2l.06-.02-.05-.12v.05c-.18.03.1-.12-.05-.18,0-.1-.4-.07-.35-.18-.1-.02.15,0,.06-.04.1-.03.07.01.14-.02-.06-.05.07-.13-.02-.18l.07-.02c-.16-.06.04-.2-.1-.24-.1-.08.2-.13.03-.2l.1-.07c0-.05-.13,0-.1-.06.06-.01.03-.08.1-.06.06-.14-.2-.2-.08-.38-.13,0-.08-.1-.17-.1.05-.02-.03-.15.1-.1.01,0,.01.02-.01.02l.07-.01c.1-.12-.12-.13-.12-.22-.02.03,0,.06-.06.05l-.01-.08h.06v-.13l-.07.04c.02-.07.14-.12.02-.16-.07-.01-.08.08-.12.03a1.213,1.213,0,0,0,.07-.33c-.08.03-.08.01-.1-.02l.07-.02c-.13-.07.15-.08.04-.16l-.1.01c-.17-.05.14-.1-.1-.14.02.04-.15.06-.14,0l.07-.01c-.02-.02-.05-.02-.04-.05.04.01.1-.02.08-.06h.1l-.15-.04c.06-.08-.06-.15.03-.2,0,0,.01-.14-.1-.14.07.01.08-.07.16-.07-.08-.01-.17-.1-.1-.15h.01c.04-.17-.18-.2-.12-.37-.08.03-.06-.05-.16-.01-.14-.1.15-.3-.2-.26-.03-.06.06-.1.07-.13l.02.01a1.018,1.018,0,0,1-.1-.22c-.04-.03-.2,0-.18-.08.07.01.05-.02.04-.05.01.02.04.01.07-.03a.09.09,0,0,1-.05-.01c-.02-.05-.04-.04-.04-.01-.01,0-.02.01-.04.02.07-.07-.04-.13.06-.17-.06-.14-.2-.2-.27-.3a.139.139,0,0,1,.14.01l-.04-.08c.08-.02.06.04.08.06.1-.13-.18-.17-.1-.32l-.07-.01.01-.01a.116.116,0,0,1-.1-.02c.06-.04.16-.04.14-.1.05-.06-.07-.12-.12-.17,0,.04-.04.04-.07.03-.01-.03.05-.06.02-.08l.1-.03c-.08.04-.1-.05-.15-.05.06-.04.07.03.12.02l-.06-.17c-.1-.04-.08.04-.17.03-.03-.05-.1-.1-.07-.16l-.08.04c-.1-.1-.1-.15-.04-.24-.87-.58-.94.1-.94.1-.1.35.18.44.34.78.05.33-.1.45.07.76a1.811,1.811,0,0,0,.17.46c.14.04.06.2.18.26l-.06.05c.04.02.08.05.05.1h-.02c.06.03.05.1.08.1h-.02l.02.05H86.9a.255.255,0,0,1,.1.22l.08-.03c-.05.17.14.18.06.35h-.02c.27.1-.08.3.18.43-.03-.01-.04.02-.06.03.05.07.08.16.25.1.01.06-.04.06-.1.1a.1.1,0,0,1,.13.07l-.03-.01.06.12.13-.06c-.02.08-.16.06-.1.12l.1-.03c0,.1-.15.2-.2.32.06.4.46.74.36,1.16l-.08.04c-.12.04.2.05.1.1l.07.03c-.02.02-.04.05-.07.04.01.04.03.04.07.05l-.07.06c-.02.17.17.26.18.43-.1.24.14.56.28.75.27.24-.13.72.16.97-.01.01.03.03.05.03l.06.28s.32,1.36,1.07.05h.03c.06-.18.05-.28-.12-.35ZM77.6,337.26a4.548,4.548,0,0,0,1.52.76,5.763,5.763,0,0,0,2.17.3c.33-.12.93-.04,1.3-.23l.16.04a1.248,1.248,0,0,1,.4-.13v.02c.18-.1.4-.14.5-.2v.02l.22-.1-.03.04.9-.5-.07-.06c.62-.3.7-.58,1.22-.92v.02c.37-.7.94-.83,1.15-1.64-.02.1.06-.02.07,0,.17-.33.27-.7.12-.77.1-.24.12-.18.2-.2-.07-.02-.03-.25.02-.44v.1a2.97,2.97,0,0,0,.1-.57l-.16.08c.1-.3.18-.04.2-.34l-.12-.01c.07-.4.28-.64.35-1.07a5.428,5.428,0,0,0-.65-2.58,11.182,11.182,0,0,0-1.46-2.1l.01-.12c.07-.13-.47-.14-.44-.28l-.18-.07c-.03-.05-.1-.13-.01-.1a.477.477,0,0,0-.28-.12l-.1-.17a6.719,6.719,0,0,0-1.87-.72,4.929,4.929,0,0,0-3.4.13l-1.9.84a3.693,3.693,0,0,0-1.56,1.44.21.21,0,0,0-.06.15,7.758,7.758,0,0,0-.64,1.07l-.1.23a3.779,3.779,0,0,0-.2.6,4.9,4.9,0,0,0-.18,1.55c.05.47.15.77.3.7a.428.428,0,0,0,.15-.2v.2a5.568,5.568,0,0,0,.1.82L75,332c-.14-.2-.23-.2-.3-.07a1.59,1.59,0,0,0-.1.58,1.57,1.57,0,0,0,.01.38c.13,1.42.7,2.08,1.8,3.25l1.22,1.13Zm252.86,68.4-.02-.02a.254.254,0,0,0-.1.36c-.16-.06-.07.1-.14.12h-.01c.08.14-.18.13-.1.27-.01-.01-.05-.03-.05-.05-.01.07-.01.17-.1.13-.04.16-.18.34-.08.5l-.02-.02c.07.1-.02.08.01.16h-.03c.07.1-.06.18-.04.24l-.06-.02-.04.12.03-.04c.16.1-.15.04-.08.17-.06.07.27.32.15.36.06.07-.1-.1-.08-.01-.1-.04-.04-.05-.12-.07.01.08-.13.05-.1.15l-.07-.03c.08.15-.17.13-.08.25.01.12-.23-.03-.14.13h-.1c-.03.04.1.08.03.1-.06-.03-.07.04-.12-.01-.14.06.03.27-.2.34.1.08,0,.12.07.18-.05-.02-.07.14-.14.01-.01-.01,0-.02.02-.01l-.06-.04c-.16.02,0,.18-.05.25.03-.01.04-.05.08-.01l-.04.07-.05-.04-.08.1h.08c-.06.04-.2,0-.12.1.04.05.12-.01.1.06a1,1,0,0,0-.26.2c.08.03.07.05.07.08l-.07-.03c.05.14-.17-.03-.13.1l-.04-.03.13.1c.1.15-.16-.02-.02.16.01-.04.16.05.1.08l-.06-.04c0,.03.03.05,0,.06-.03-.03-.1-.05-.1-.01l-.07-.06.1.13c-.1.02-.05.15-.15.13,0,0-.1.1-.01.17-.05-.05-.1,0-.17-.05.06.06.07.18-.02.18v-.01c-.14.1,0,.28-.15.36.08.03.01.08.12.1.04.17-.3.14-.02.32-.01.06-.1.03-.13.06v-.02a.479.479,0,0,1-.08.23c.01.05.15.13.1.18-.05-.05-.05-.02-.06.01,0-.02-.02-.04-.07-.02.02.01.02.03.03.04-.01.04.01.04.03.03.01.01.02.01.04.01-.1.01-.05.13-.16.1a1.933,1.933,0,0,0,.01.42.116.116,0,0,1-.1-.1l-.02.1c-.07-.03-.02-.06-.02-.1-.16.04.03.25-.13.3l.05.05h-.01a.116.116,0,0,1,.06.08c-.07-.01-.15-.07-.17-.01-.08.02-.03.14-.02.2.02-.03.06,0,.07.02-.01.03-.08.01-.06.05l-.1-.04c.1.03.05.1.1.14-.07-.01-.04-.07-.08-.1l-.06.17c.04.1.1.03.15.1-.01.06.03.14-.05.17l.08.02c.01.12-.02.18-.13.2.3,1,.78.54.78.54.3-.2.14-.46.24-.82.17-.28.36-.3.44-.63a2.175,2.175,0,0,0,.17-.47c-.08-.12.08-.2.03-.3h.08c-.02-.04-.03-.1.02-.1l.02.01c-.03-.06.02-.1.01-.13h.02v-.05l.02.02a.235.235,0,0,1,.07-.23l-.08-.03c.15-.1.01-.23.18-.3l.02.01c-.14-.26.26-.2.14-.44.02.03.04.01.06.02.01-.1.04-.17-.12-.25.03-.05.07-.02.13,0a.113.113,0,0,1-.06-.14v.03l.03-.13-.14-.03c.07-.05.16.06.16-.02l-.1-.05c.06-.08.25-.06.37-.1.2-.35.12-.86.47-1.12h.1c.12.05-.13-.17-.02-.14l-.04-.06c.03,0,.06-.01.08.02.02-.03,0-.04-.02-.1l.1-.01c.12-.12.04-.3.14-.45.23-.1.25-.52.27-.76-.05-.36.57-.47.5-.85.02,0-.01-.04-.02-.05l.14-.25c-.03.02.6-1.22-.82-.7Zm-6.8-2-.02-.02a.254.254,0,0,0-.1.36c-.16-.06-.07.1-.14.12h-.01c.08.14-.18.13-.1.27-.01-.01-.05-.03-.05-.05-.01.07-.01.17-.1.13-.04.16-.18.34-.08.5l-.02-.02c.07.1-.02.08.01.16H323c.07.1-.06.18-.04.24l-.06-.02-.04.12.03-.04c.16.1-.14.04-.08.17-.06.07.27.32.15.36.06.07-.1-.1-.08-.01-.1-.04-.04-.05-.12-.07.01.08-.13.05-.1.15l-.07-.03c.08.15-.17.13-.08.25.01.12-.23-.03-.14.13h-.1c-.03.04.1.08.03.1-.06-.03-.07.04-.12-.01-.14.06.03.27-.2.34.1.08,0,.12.07.18-.05-.02-.07.14-.14.01-.01-.01,0-.02.02-.01l-.06-.04c-.16.02,0,.18-.05.25.03-.01.04-.05.08-.01l-.04.07-.05-.04-.08.1.08.02c-.06.04-.2,0-.12.1.04.05.12-.01.1.06a1,1,0,0,0-.26.2c.08.03.07.05.07.08l-.07-.03c.05.14-.17-.03-.13.1l.1.06c.1.15-.16-.02-.02.16.01-.04.16.05.1.08l-.06-.04c0,.03.03.05,0,.06-.03-.03-.1-.05-.1-.01l-.07-.06.1.13c-.1.02-.05.15-.15.13,0,0-.1.1-.01.17-.05-.05-.1,0-.17-.05.06.06.07.18-.02.18v-.01c-.14.1,0,.28-.15.36.08.03.01.08.12.1.04.17-.3.14-.02.32-.01.06-.1.03-.13.06v-.02a.479.479,0,0,1-.08.23c.01.05.15.13.1.18-.05-.05-.05-.02-.06.01,0-.02-.02-.04-.07-.02.02.01.02.03.03.04-.01.04.01.04.03.03.01.01.02.01.04.01-.1.01-.05.13-.16.1a1.933,1.933,0,0,0,.01.42.116.116,0,0,1-.1-.1l-.02.1c-.07-.03-.02-.06-.02-.1-.16.04.03.25-.13.3l.05.05h-.01a.116.116,0,0,1,.06.08c-.07-.01-.15-.07-.17-.01-.08.01-.03.14-.02.2.02-.03.06,0,.07.02-.01.03-.08.01-.06.05l-.1-.04c.1.03.05.1.1.14-.07-.01-.04-.07-.08-.1l-.06.17c.04.1.1.03.15.1-.01.06.03.14-.05.17l.08.02c.01.12-.02.18-.13.2.3,1,.78.54.78.54.3-.2.14-.46.24-.82.17-.28.36-.3.44-.63a2.175,2.175,0,0,0,.17-.47c-.08-.12.08-.2.03-.3h.08c-.02-.04-.03-.1.02-.1h.02c-.03-.06.02-.1.01-.13h.02l.01-.05.02.02a.235.235,0,0,1,.07-.23l-.08-.03c.15-.1.01-.23.18-.3h.02c-.14-.26.26-.2.14-.44.02.03.04.01.06.02.01-.1.04-.17-.12-.25.03-.05.07-.02.13,0a.113.113,0,0,1-.06-.14l.02.03.03-.13-.14-.03c.07-.05.16.06.16-.02l-.1-.05c.06-.08.25-.06.37-.1.2-.35.12-.86.47-1.12l.1.02c.12.05-.13-.17-.02-.14l-.04-.06c.03,0,.06-.01.08.02.02-.03,0-.04-.02-.1h.1c.12-.12.04-.3.14-.45.23-.1.25-.52.27-.76-.05-.36.57-.47.5-.85.02,0-.01-.04-.02-.05l.14-.25c-.03.02.6-1.23-.82-.7Z" fill="#fff"/>
      <path id="Path_13723" data-name="Path 13723" d="M321.43,407.82h0l-.04-.03Zm-4.7-4.12h0l-.02-.05Z" fill="#fff"/>
      <path id="Path_13724" data-name="Path 13724" d="M320.87,402.54l.25-.14s1.2-.72-.27-1.03l-.01-.03c-.17.03-.26.07-.27.25-.1-.14-.12.06-.18.03v-.01c-.01.16-.23.02-.24.17,0-.01-.03-.05-.01-.07-.04.06-.1.14-.16.06-.12.1-.33.2-.33.38l-.01-.03c.01.12-.05.05-.08.14-.01-.01-.02-.01-.02-.02,0,.12-.15.12-.17.18l-.04-.05-.1.08.05-.01c.1.16-.14-.04-.16.1-.1.03.06.42-.06.4.01.1-.04-.14-.06-.05-.05-.08-.01-.07-.06-.12-.03.07-.14-.03-.17.07l-.04-.06c-.01.17-.2.02-.2.17-.05.1-.18-.15-.2.03l-.1-.06c-.05.01.04.12-.03.1-.03-.05-.08-.01-.1-.07-.15-.02-.12.25-.34.2.04.12-.07.1-.04.2-.03-.04-.13.08-.13-.07,0-.01.01-.02.02,0l-.03-.07c-.15-.07-.1.15-.18.18.03.01.06-.02.07.04l-.07.04-.02-.06-.12.04.06.06c-.07,0-.16-.1-.16.03.01.07.1.06.06.1a1.194,1.194,0,0,0-.33.03c.05.07.03.08.02.1l-.04-.06c-.03.14-.12-.12-.17.01l.04.1c0,.18-.13-.1-.1.13.03-.03.1.13.05.13l-.03-.07c-.02.03-.01.06-.03.06-.01-.04-.05-.1-.08-.06l-.03-.1.01.15c-.1-.03-.12.1-.2.03,0,0-.14.03-.1.14-.02-.07-.1-.05-.12-.13.01.08-.04.2-.1.14v-.01c-.17.01-.15.24-.32.22.05.07-.03.07.04.15-.06.17-.33-.05-.2.26-.04.05-.1-.03-.14-.02v-.02a.5.5,0,0,1-.19.15c-.02.05.06.2-.02.2-.01-.07-.03-.04-.06-.02.01-.02,0-.04-.05-.06a.045.045,0,0,1,0,.05l-.01-.01c-.03.05-.01.06.01.05q0,.015.03.03c-.1-.04-.12.08-.18-.01a3.363,3.363,0,0,0-.22.35.135.135,0,0,1-.03-.13l-.06.06c-.04-.07.02-.07.03-.1-.16-.05-.1.22-.27.2v.07h-.01a.121.121,0,0,1,.01.1c-.05-.05-.1-.14-.14-.1-.08-.03-.1.1-.13.17.03-.01.05.03.05.06-.02.02-.08-.03-.08.01l-.05-.08c.06.07-.01.12,0,.16-.05-.05.01-.08-.02-.12-.1.07-.05.04-.14.1-.01.1.06.07.08.15-.04.05-.05.13-.13.12l.06.06c-.05.1-.1.14-.22.1-.3,1,.37.87.37.87.36-.01.36-.3.64-.57.3-.14.46-.05.7-.3a3.792,3.792,0,0,0,.4-.3c-.01-.15.17-.1.2-.25l.07.04c.01-.05.02-.1.07-.07v.02c.01-.07.07-.07.07-.1v.02l.04-.04.01.03a.239.239,0,0,1,.18-.16l-.05-.07c.18,0,.13-.18.3-.16v.02c.02-.3.32-.02.35-.3,0,.04.03.03.04.05a.184.184,0,0,0,.03-.27c.05-.03.07.02.1.07a.117.117,0,0,1,.02-.15v.04l.1-.1-.1-.1c.08-.01.1.13.15.07l-.06-.1c.1-.04.24.08.37.1.36-.18.56-.66,1-.7l.06.06c.08.1-.02-.22.06-.12v-.07c.02.01.06.02.06.06.04-.02.03-.04.03-.08l.08.04c.17-.03.2-.24.35-.3.26.03.5-.3.63-.5.15-.33.73-.1.87-.45.03-.04.03-.1.02-.1Zm-18.37,12.1v-.17a1.072,1.072,0,0,1-.25-.35h.02c-.16-.13-.26-.34-.35-.4h.02l-.17-.18.05.01-.75-.72-.04.08c-.47-.5-.77-.5-1.24-.9h.02c-.77-.14-1.07-.65-1.9-.6.1-.01-.03-.05-.02-.07-.36-.06-.76-.05-.77.1-.26-.03-.2-.06-.24-.13,0,.07-.23.1-.43.1l.1-.03a3.539,3.539,0,0,0-.58.07l.13.13c-.3-.01-.1-.16-.38-.1l.02.12c-.4.06-.7-.07-1.13-.02a5.45,5.45,0,0,0-2.26,1.4,11.227,11.227,0,0,0-1.56,2.03l-.1.03c-.14-.02,0,.5-.13.5l-.01.2c-.04.04-.1.14-.1.04a.554.554,0,0,0-.03.3l-.13.16a6.052,6.052,0,0,0-.12,2,4.85,4.85,0,0,0,1.15,3.2l1.38,1.57a3.717,3.717,0,0,0,1.85,1.05c.03.04.16.02.16.01a7.108,7.108,0,0,0,1.21.29l.25.02a3.066,3.066,0,0,0,.62.01,4.78,4.78,0,0,0,1.53-.29c.43-.2.7-.38.57-.5a.611.611,0,0,0-.24-.1l.2-.06a7.274,7.274,0,0,0,.75-.35l-.58.57c-.16.2-.1.27.02.3a1.824,1.824,0,0,0,.58-.07,1.966,1.966,0,0,0,.36-.13c1.3-.55,1.77-1.28,2.56-2.7a8.836,8.836,0,0,0,.72-1.48,4.385,4.385,0,0,0,.27-1.68,5.8,5.8,0,0,0-.36-2.16c-.23-.26-.33-.86-.63-1.15Z" fill="#fff"/>
    </g>
    <path id="Path_13725" data-name="Path 13725" d="M405.76,331.53v-.1C405.75,331.5,405.75,331.53,405.76,331.53Z"/>
  </g>
</svg>
