<svg xmlns="http://www.w3.org/2000/svg" width="341.957" height="231.643" viewBox="0 0 341.957 231.643">
  <g id="_93" data-name="93" transform="translate(-63.803 -204.52)">
    <path id="Path_13745" data-name="Path 13745" d="M91.82,319.36l35-9.4,5.8,27.4-42.3,11.2Z" fill="#fff"/>
    <path id="Path_13746" data-name="Path 13746" d="M110.42,315.4a1.93,1.93,0,0,0-.3-1.08,2.449,2.449,0,0,0-.8-.76l-1.1-.6-2.82-1.48.14.01a38.576,38.576,0,0,0-6.34-2.45c-.2-.4-2.32-.8-2.97-1.06h.07c-1.8-.26-3.6-1.06-5.34-1.17a.874.874,0,0,1,.52-.02,15.477,15.477,0,0,1-3.04-.57,4.48,4.48,0,0,0-1.46-.04,3.676,3.676,0,0,0-1.57.65,3.867,3.867,0,0,0-1.12,1.3,9.531,9.531,0,0,0-.47,1.33l-1.1,4v-.14c-.17,1.1-.42,1.35-.7,2.54-.04.06-.08.14-.08.12-.2,1.2-1.06,3.3-1.28,4.25l-.12.02-.7,2.26.3-.83c.2.4-.74,1.64-1.1,3.34-.54,1.52-.4,3.3-1.07,4.84-.1.8,0-.74-.27.43-.16-.01.08-.56-.14-.3-.3,1.13-.75,1.77-1.1,3.18l-.14.02c-.37,1.86-1.26,3.32-1.45,4.58-.5,1.88-.76,1.12-1.15,3.12l-.4.7c-.3.8,0,.65-.37,1.54-.08-.1-.46,1.13-.38.56-.83,2-1.15,4.26-2.3,6.9,0,.65-.56,1.98-.56,2.47-.1.05-.9,2.73-.6,1.14.03-.14.1-.37.14-.34l-.06-.22a36.048,36.048,0,0,0-1.34,4.37c.2-.44.38-1.05.32-.62l-.48,1.42v-.33l-.75,2.1.22-.25a9.91,9.91,0,0,0-.94,2.54c-.08.56.5-.93.16.18l-1.96,5.16c.2-.12.03.35-.1.85l-.14.02-.16.7-.07.5a3.033,3.033,0,0,1-.1.5,1.478,1.478,0,0,0-.04.52,3.037,3.037,0,0,0,.43,1.24,3.485,3.485,0,0,0,.42.36,7.4,7.4,0,0,0,.9.85l.48.4a2.151,2.151,0,0,0,.6.32,4.433,4.433,0,0,0,1.15.16c-.72-.14-.3-.36.6-.07l-.26.06a5.228,5.228,0,0,1,1.02.23c-.32-.02-.2.12.55.3h-.55l.75.1.88.08a3.677,3.677,0,0,0,2.44-.53l1.4-.83s.53-.4,1.06-.87a7.04,7.04,0,0,0,1.2-1.3c-.27.43.73-.5.55-.13a12.635,12.635,0,0,1,2.22-2.36l-.1.1,5.25-4.9c-.18-.03.85-.85.48-.77,1.8-1.85,3.76-2.8,4.08-3.85a12.51,12.51,0,0,1,1.6-1.18l-.2.2,3.36-2.93a9.657,9.657,0,0,1,1.66-1.75c-.3.38.15-.01.57-.37-.26.24-.3.34.28-.07a2.249,2.249,0,0,1,.26-.31c.01,0,.04-.01.03.01.67-.6.53-.54.2-.28.01-.03-.03-.02-.15.04.8-.5,2-1.7,2.2-1.63l.73-.63c.06-.04.1-.12.16-.12l.28-.05.88-.13a6.915,6.915,0,0,0,.93-.17,2.445,2.445,0,0,0,1.71-1.92l.07-.4.15-.83c.15-.23.1.3,0,.96l.3-1.6c.13.04-.12.92-.2,1.42.62-1.83.64-3.92,1.32-6.08v-.48l.05-.13a2.267,2.267,0,0,1,.03-.85c.18-.3.26.08.5-1a27.357,27.357,0,0,0,.67-3.6c-.15.6-.17.4-.16.12a11.743,11.743,0,0,0,.34-1.27l.17-.02c-.2.18.16-1.46.14-1.68.18-.28-.1.87-.03,1.02l.7-3.28c.14-1.2-.2.18-.2-.4a27.286,27.286,0,0,1,.66-3.23l-.22.34a29.975,29.975,0,0,1,1-4.4l.42-3.2.83-3.8a2.78,2.78,0,0,0-.02-.81Z"/>
    <path id="Path_13747" data-name="Path 13747" d="M64.24,372.58c-.01-.02-.01-.03-.02-.04a1.072,1.072,0,0,0-.16-.14l.18.18Z"/>
    <g id="Group_1023" data-name="Group 1023">
      <path id="Path_13748" data-name="Path 13748" d="M75.23,360.27c0,.01-.01.03-.01.04A.158.158,0,0,0,75.23,360.27Z" fill="#fff"/>
      <path id="Path_13749" data-name="Path 13749" d="M89.03,315.58l-1.86,5.1-1.1,3.38c-.05.55-.47,1.42-.58,2.06l-.15.2a2.59,2.59,0,0,1-.2.67h-.02c-.05.33-.2.67-.23.84l-.02-.02-.12.38-.01-.07a11.7,11.7,0,0,1-.5,1.61l.1-.01c-.45,1.03-.4,1.47-.83,2.4h-.02c-.2,1.28-.8,1.86-1,3.17.03-.16-.06.05-.08.03-.17.58-.36,1.2-.2,1.26-.14.42-.16.32-.25.36.07.02-.02.4-.12.72l.02-.16-.3.94.2-.14c-.2.48-.2.07-.33.56l.1.03a16.271,16.271,0,0,1-.86,1.66l-2.73,8.3-.12.1c-.14.01-.06.77-.2.83l-.04.32c-.05.08-.13.25-.1.1a1.331,1.331,0,0,0-.1.5l-.17.27c-.42,1.07-.6,2.04-1,3.18a43.929,43.929,0,0,0-1.76,5.48c-.52,2.16-1.82,4.44-2.33,6.66a.6.6,0,0,0-.05.26l-.68,1.96s-3.24,9.52.2,2.6v.06a10.683,10.683,0,0,0,.78-2.5c.2-.06.3-.88.45-1.1l.01.03c.1-.7.56-1.32.66-2a.234.234,0,0,1,0,.2c.13-.47.3-1.1.42-1.1l1-3.4.01.06a5.916,5.916,0,0,1,.26-1c.02-.02.04-.05.04-.04a12.891,12.891,0,0,1,.5-1.65h.07l.28-.88-.12.32c-.14-.17.33-.62.43-1.3.22-.58.04-1.32.33-1.9.02-.32.05.3.13-.16.1.02-.01.22.1.14.1-.44.33-.67.45-1.23h.08c.1-.74.53-1.28.56-1.78.18-.73.37-.4.48-1.2l.2-.26c.12-.3-.04-.27.12-.6.05.04.2-.43.2-.2.36-.77.4-1.67.92-2.66-.04-.27.2-.77.18-.97.06-.01.36-1.06.28-.43-.01.05-.04.14-.06.13l.05.1a7.721,7.721,0,0,0,.5-1.7c-.08.17-.15.4-.15.23l.2-.55.02.13.3-.8-.1.1a2.851,2.851,0,0,0,.4-.98c.01-.22-.22.35-.1-.08l.82-1.98c-.1.04-.04-.15.01-.34h.08c.15-.76.25-.2.4-.96l.03.08-.08-.24c.08-.7.26-.3.32-1.1-.08.3-.2.08-.05-.26l.04.1a2.1,2.1,0,0,1,.1-.4c0,.13.08.1.16-.2l.02.22.06-.58a8.9,8.9,0,0,1,.5-1.23,3.986,3.986,0,0,0,.3-1.13c.01.2.2-.3.23-.12a3.086,3.086,0,0,1,.35-1.22l-.01.06c.42-1,.47-1.78.88-2.66-.1.01.1-.45-.03-.37.2-.98.8-1.66.58-2.1a2.8,2.8,0,0,1,.34-.7l-.02.1.53-1.65c.07-.3-.07-.4.15-.93,0,.2.06-.03.13-.23-.03.13-.02.18.1-.07a.457.457,0,0,1,.01-.16c.1-.34.07-.3.01-.14-.01-.01-.02,0-.06.04.2-.32.32-.97.44-.98l.7-2.62c.08-.08.07.14.01.4l.18-.6c.07.03-.07.36-.12.54.36-.67.37-1.5.76-2.3v-.2l.03-.05c-.03-.01-.01-.2.02-.34.1-.1.15.06.28-.35a6.42,6.42,0,0,0,.38-1.37c-.1.23-.1.14-.1.03a3.461,3.461,0,0,0,.2-.47l.1.01c-.1.05.1-.57.08-.66.1-.1-.05.34-.02.4l.4-1.24c.08-.46-.1.05-.12-.2a6.092,6.092,0,0,1,.38-1.22l-.13.1a6.776,6.776,0,0,1,.58-1.65c1.17-5.65-.5-1.44-.5-1.44a42.662,42.662,0,0,0-1.87,5.83ZM92.5,345.4c.13.3.04.46.27.7a2.782,2.782,0,0,0,.3.4c.15,0,.1.17.24.2l-.04.07c.05.01.1.02.07.07l-.02.01c.07.01.07.07.1.08l-.02.01.04.04-.03.01a.21.21,0,0,1,.15.18l.07-.05c0,.18.18.14.15.3l-.02.01c.3.03.01.32.3.36-.03-.01-.03.03-.05.04a.181.181,0,0,0,.27.04c.03.05-.02.07-.07.1a.108.108,0,0,1,.15.03h-.04l.1.1.1-.1c0,.08-.14.1-.07.15l.1-.06c.03.1-.1.24-.12.36.16.37.64.58.65,1l-.07.06c-.1.07.22-.01.12.06l.07.01c-.01.02-.02.06-.06.05.02.04.03.03.08.03l-.05.08c.03.17.23.2.3.36-.04.25.28.5.47.64.32.16.06.73.4.88-.01.02.04.02.05.01l.13.25s.67,1.2,1.04-.24l.03-.01c-.02-.17-.06-.26-.24-.28.14-.1-.05-.12-.02-.18h.01c-.16-.01-.01-.22-.16-.24.01,0,.06-.03.07-.01-.05-.05-.13-.1-.05-.16-.1-.12-.18-.34-.37-.34l.03-.01c-.12.01-.05-.06-.13-.08.01-.01.01-.02.02-.02-.12,0-.1-.15-.18-.17l.06-.04-.08-.1.01.05c-.17.08.05-.14-.1-.16-.02-.1-.42.05-.4-.07-.1.01.14-.04.05-.06.08-.05.07-.01.12-.06-.07-.03.03-.14-.06-.17l.06-.04c-.17-.02-.01-.2-.16-.2-.1-.06.15-.17-.03-.2l.06-.1c-.01-.05-.12.04-.1-.03.06-.03.01-.08.08-.1.03-.15-.24-.13-.18-.34-.12.04-.1-.07-.2-.04.04-.03-.07-.14.07-.12.01,0,.02.01,0,.02l.07-.03c.07-.15-.15-.1-.17-.18-.01.03.02.06-.04.07l-.03-.07.06-.02-.03-.12-.06.05c0-.07.1-.15-.02-.15-.07.01-.06.1-.1.06a1.222,1.222,0,0,0-.02-.33c-.07.05-.08.03-.1.01l.06-.04c-.14-.04.12-.12,0-.16l.05-.02-.15.06c-.18,0,.1-.12-.12-.1.03.03-.13.1-.13.04l.07-.03c-.03-.02-.06-.01-.06-.03.04-.01.1-.05.06-.08h-.05c.04-.1-.1-.12-.02-.2,0,0-.02-.14-.14-.1.07-.01.06-.1.14-.1-.08.01-.2-.04-.14-.12h.01c0-.17-.23-.16-.2-.32-.07.05-.07-.03-.15.04-.16-.06.06-.33-.25-.2-.05-.04.03-.1.03-.14h.02c-.08-.1-.1-.1-.14-.2-.05-.02-.2.06-.2-.03.07-.01.04-.03.03-.06.02.01.04,0,.06-.05-.02.01-.03,0-.05,0h.01c-.04-.03-.06-.01-.05.01q-.015,0-.03.03c.04-.1-.08-.12.01-.18-.1-.1-.25-.14-.34-.22a.11.11,0,0,1,.13-.02l-.06-.06c.07-.04.07.02.1.03.06-.15-.22-.1-.18-.28l-.07.01.01-.01a.121.121,0,0,1-.1.01c.05-.05.14-.08.1-.13.03-.08-.1-.1-.16-.13.01.03-.03.05-.06.05-.02-.02.03-.07,0-.08l.08-.05c-.07.06-.12-.02-.16-.01.05-.05.08.01.12-.01l-.1-.15c-.1-.02-.07.06-.16.07-.04-.04-.13-.05-.1-.14l-.06.06c-.1-.06-.13-.12-.1-.22-1-.32-.88.34-.88.34.02.36.3.37.56.65Zm-4.98,4.9c.16.28.08.45.33.68a1.561,1.561,0,0,0,.32.36c.15-.02.12.16.26.17l-.04.07c.05,0,.1.02.07.06l-.02.01c.07,0,.07.06.1.07l-.02.01.04.04-.03.01a.27.27,0,0,1,.17.16l.07-.06c.01.18.2.12.18.3l-.02.01c.3,0,.04.3.32.33-.04,0-.03.03-.05.05a.194.194,0,0,0,.27.01c.03.05-.01.07-.06.12a.117.117,0,0,1,.15.01h-.04l.1.1.1-.1c.01.08-.13.12-.06.15l.1-.07c.04.1-.07.24-.08.37.2.35.7.5.74.93l-.06.07c-.1.08.2-.03.13.05h.07c-.01.02-.02.06-.05.06.02.03.04.02.1.02l-.04.08c.04.16.25.18.32.33-.01.26.33.47.53.6.33.13.13.72.5.83-.01.02.04.02.05.01l.15.24s.77,1.13,1-.34h.03c-.04-.17-.08-.25-.26-.25.13-.12-.06-.1-.04-.18h.01c-.16,0-.03-.22-.18-.22.01-.01.05-.03.07-.02-.06-.04-.14-.1-.06-.15-.12-.1-.2-.32-.4-.3h.03c-.12.02-.06-.05-.14-.07.01-.01.01-.02.02-.02-.12.01-.12-.14-.2-.15l.05-.04-.1-.1.02.05c-.16.1.04-.14-.1-.15-.03-.08-.4.1-.4-.04-.1.02.13-.05.04-.06.08-.06.07-.01.12-.07-.07-.02.02-.14-.08-.16l.06-.05c-.17,0-.03-.2-.18-.2-.1-.05.14-.2-.04-.2l.06-.1c-.01-.05-.12.05-.1-.02.05-.04,0-.08.07-.1.01-.15-.25-.1-.2-.33-.12.05-.1-.06-.2-.02.04-.04-.08-.13.06-.13.01,0,.02.01,0,.02l.07-.04c.06-.15-.15-.08-.2-.16,0,.03.02.06-.03.07l-.04-.07.06-.02-.04-.12-.05.06c0-.07.1-.16-.04-.15-.07.01-.05.1-.1.07a.946.946,0,0,0-.05-.33c-.06.06-.08.04-.1.02l.06-.05c-.15-.02.1-.13-.02-.16l.05-.02-.14.07c-.17.01.1-.13-.13-.1.03.03-.12.1-.12.05l.07-.03c-.03-.01-.06,0-.06-.03.04-.01.1-.06.06-.08l.1-.03-.15.02c.03-.1-.1-.1-.04-.2,0,0-.04-.13-.14-.1.07-.02.05-.1.13-.13-.08.02-.2-.02-.15-.1h.01c-.02-.17-.24-.13-.24-.3-.07.06-.07-.03-.15.05-.17-.04.03-.33-.27-.17-.05-.04.02-.1.02-.14h.02a.648.648,0,0,1-.16-.18c-.05-.01-.18.07-.2-.01.07-.02.04-.04.02-.06.02.01.04,0,.05-.06a.09.09,0,0,1-.05.01l.01-.01c-.05-.03-.06-.01-.05.02q-.015,0-.03.03c.04-.1-.1-.1,0-.18-.1-.1-.26-.12-.36-.2a.144.144,0,0,1,.13-.04l-.07-.06c.07-.05.07.01.1.02.04-.16-.23-.1-.2-.26h-.07a.13.13,0,0,1-.1.02c.05-.06.13-.1.1-.14.03-.08-.1-.1-.17-.1.01.03-.03.05-.06.05-.02-.02.03-.08-.01-.08l.07-.06c-.06.06-.12-.01-.16.01.05-.06.08,0,.12-.02l-.12-.14c-.1-.01-.07.06-.15.1-.05-.03-.13-.04-.13-.12l-.06.07c-.1-.05-.14-.1-.12-.2-1-.22-.85.42-.85.42.05.37.34.35.6.6Zm-4.86,5.45c.14.24.05.4.28.58a2.825,2.825,0,0,0,.3.3c.14-.03.1.13.24.13l-.04.07c.04,0,.08.01.07.05v.01c.07,0,.07.05.1.05l-.02.01.04.03-.03.01a.172.172,0,0,1,.15.13l.07-.06c0,.16.17.1.16.25h-.02c.27-.03.02.28.3.26-.03,0-.03.03-.05.05.06.04.12.1.25-.02.03.04-.02.07-.06.1a.1.1,0,0,1,.14,0h-.03l.1.07.1-.1c.01.07-.13.12-.06.14l.1-.07c.03.08-.08.23-.1.34.17.3.63.4.66.76l-.06.07c-.1.08.2-.05.12.03l.07-.01c-.01.02-.02.05-.05.06.02.03.03.02.08.01l-.04.08c.03.14.22.13.3.26-.02.23.3.4.47.47.3.08.1.63.42.7-.01.02.04.01.05,0l.13.2s.68.94.97-.4h.03c-.03-.14-.07-.22-.23-.2.13-.12-.05-.1-.03-.15l.01-.01c-.15.02-.02-.2-.16-.18.01-.01.05-.03.06-.02-.05-.03-.13-.07-.05-.13-.1-.1-.18-.26-.36-.23l.03-.01c-.12.03-.05-.04-.13-.05.01-.01.01-.02.02-.02-.12.02-.1-.1-.17-.12l.05-.04-.08-.07v.04c-.15.1.04-.13-.1-.12-.03-.07-.4.12-.37.01-.1.03.13-.06.04-.06.07-.06.06-.02.1-.08-.07-.01.02-.13-.07-.14l.06-.05c-.16.02-.02-.2-.16-.15-.1-.03.14-.18-.03-.16l.06-.1c-.01-.04-.1.05-.1-.01.05-.04.01-.07.07-.1.02-.14-.23-.07-.18-.27-.1.05-.1-.04-.18,0,.04-.04-.07-.1.06-.12.01,0,.02.01,0,.02l.06-.04c.06-.14-.14-.06-.17-.13-.01.03.02.05-.03.07l-.03-.06.06-.03-.03-.1-.05.06c0-.06.1-.16-.03-.13-.06.02-.05.1-.1.07a1.089,1.089,0,0,0-.03-.3c-.06.06-.07.04-.1.03l.06-.05c-.14-.01.1-.13-.01-.14l.05-.03-.14.08c-.17.03.1-.13-.12-.07.03.02-.12.1-.12.06l.06-.04c-.03-.01-.06,0-.05-.02.04-.01.1-.06.06-.08l.1-.04-.14.03c.03-.1-.1-.1-.03-.17,0,0-.03-.12-.13-.07.07-.03.05-.1.13-.13-.08.03-.18,0-.14-.08h.01c-.01-.15-.22-.1-.2-.25-.06.06-.06-.02-.14.06-.16-.02.05-.3-.25-.12-.05-.03.02-.1.02-.13h.02a.46.46,0,0,1-.14-.14c-.05-.01-.18.1-.2.01.06-.02.04-.04.02-.06.02.01.04,0,.05-.06a.076.076,0,0,1-.04.01h.01c-.04-.02-.05,0-.05.02s-.02.01-.03.03c.04-.08-.08-.1,0-.16-.1-.08-.24-.08-.33-.13a.155.155,0,0,1,.13-.05l-.06-.04c.06-.05.06,0,.1.01.05-.15-.2-.06-.18-.2l-.06.02h0a.23.23,0,0,1-.09.03c.05-.05.13-.1.1-.14.03-.07-.1-.07-.16-.08.01.03-.03.05-.05.05-.02-.02.03-.07-.01-.07l.07-.06c-.06.06-.12.01-.15.03.05-.05.07-.01.12-.03a.942.942,0,0,0-.1-.1c-.1,0-.06.06-.14.1-.04-.03-.12-.02-.1-.1l-.06.07c-.1-.03-.13-.08-.1-.18-.94-.1-.82.47-.82.47-.06.35.22.3.46.5Z" fill="#fff"/>
    </g>
    <path id="Path_13750" data-name="Path 13750" d="M121.46,312.2l-.22-1.17a1.618,1.618,0,0,1-.53.08l-5.18,1.58c-.2,0,.18-.16.67-.3l-1.2.34c-.01-.08.68-.23,1.05-.35-1.48.26-2.94.92-4.66,1.26l-.33.16h-.1a2.053,2.053,0,0,1-.6.25h-.01l-.28,1.13,7.2-1.85,4.2-1.14Zm-1.5,29.18a.729.729,0,0,1-.28.06l-.13.1a12,12,0,0,0,2.18-.6l-.16-1.22-9.47,2.5-.25-.02c-.13-.1-1.4.57-1.62.5l-.6.22c-.18.02-.54.1-.25-.01a9.006,9.006,0,0,0-.97.3l-.62.08-4.96,1.37-.07.3.22.63.22-.06.06.06c1.38-.5,2.7-.6,3.6-.98a20.1,20.1,0,0,0,2.5-.6l.62-.06c.65-.16.43-.24,1.16-.4-.03.07.92-.2.52-.02,1.65-.33,3.27-1,5.45-1.42.43-.24,1.53-.46,1.86-.64.06.04,2.16-.57.98-.13Z"/>
    <path id="Path_13751" data-name="Path 13751" d="M292.52,414.76l-9.5-34.9,26.4-6.3,12.3,42Z" fill="#fff"/>
    <path id="Path_13752" data-name="Path 13752" d="M361.86,422.23a.138.138,0,0,1-.03.04c-.02.07-.02.14-.04.2l.07-.25Z"/>
    <path id="Path_13753" data-name="Path 13753" d="M362.35,419.24a4.568,4.568,0,0,0-.42-1.08c.22.7-.18.43-.36-.5l.17.2a8.89,8.89,0,0,1-.3-1c.14.3.2.13,0-.64l.27.48-.3-.7a7.7,7.7,0,0,0-.36-.8,3.626,3.626,0,0,0-1.65-1.87l-1.4-.82a12.578,12.578,0,0,0-1.28-.5,6.416,6.416,0,0,0-1.72-.4c.5.03-.8-.4-.38-.42a12.192,12.192,0,0,1-3.14-.8l.14.03-6.83-2.2c.06.17-1.15-.33-.9-.05-2.5-.67-4.3-1.92-5.35-1.7a10.576,10.576,0,0,1-1.8-.84l.27.07-4.2-1.5a9.712,9.712,0,0,1-2.33-.6c.48.07-.1-.12-.6-.32.33.1.45.1-.2-.2a2.353,2.353,0,0,1-.4-.08c0-.01-.03-.03-.01-.03-.86-.3-.73-.2-.34-.04-.03.01,0,.04.1.1a23.84,23.84,0,0,1-2.5-1.14l-.9-.33c-.06-.03-.15-.02-.2-.08l-.18-.22-.54-.7a7.55,7.55,0,0,0-.6-.73,2.367,2.367,0,0,0-2.02-.67,2.441,2.441,0,0,0-.5.12l-.4.14-.8.27c-.27-.02.22-.25.84-.47l-1.54.5c-.02-.13.87-.34,1.34-.5-1.9.35-3.74,1.35-5.95,1.8l-.42.24-.13.02a2.26,2.26,0,0,1-.76.38c-.34-.02-.05-.27-1.12.06a27.386,27.386,0,0,0-3.48,1.17c.6-.16.43-.04.18.08a11.134,11.134,0,0,0-1.27.32l-.1-.14c.25.08-1.35.57-1.53.7-.34-.02.8-.35.9-.47l-3.2,1c-1.1.46.25.08-.26.38a32.361,32.361,0,0,1-3.14,1l.4.02a26.431,26.431,0,0,1-4.33,1.25l-3,1.2-3.72,1.12a2.44,2.44,0,0,0-.76.42,1.958,1.958,0,0,0-.8.8,2.4,2.4,0,0,0-.27,1.06l.01,1.25.08,3.2-.06-.12a39.148,39.148,0,0,0,.94,6.73c-.25.38.42,2.42.52,3.1l-.04-.06c.65,1.7.82,3.65,1.58,5.24a.88.88,0,0,1-.26-.44,18.461,18.461,0,0,1,1,2.94,4.674,4.674,0,0,0,.68,1.3,3.7,3.7,0,0,0,1.33,1.05,3.752,3.752,0,0,0,1.7.34,12.337,12.337,0,0,0,1.4-.23l4.03-.98-.12.07a20.624,20.624,0,0,1,2.57-.62c.07.01.16,0,.15.02,1.13-.4,3.4-.7,4.33-.95l.08.1,2.32-.48-.87.15c.24-.36,1.8-.15,3.45-.67,1.6-.27,3.08-1.25,4.75-1.42.75-.3-.64.36.5.03.07.15-.53.2-.2.27,1.13-.3,1.9-.2,3.3-.58l.08.1c1.8-.58,3.52-.5,4.7-.97,1.88-.47,1.35.1,3.3-.5l.8.02c.85-.14.57-.32,1.52-.42-.04.12,1.2-.15.67.06,2.16-.25,4.28-1.07,7.14-1.34.57-.32,2-.47,2.43-.7.1.07,2.83-.53,1.3-.04-.13.04-.37.1-.36.05l-.17.16c1.65-.08,2.88-.7,4.47-.96-.48.05-1.1.18-.7.02l1.47-.27-.3.16,2.2-.37-.33-.07a9.322,9.322,0,0,0,2.68-.42c.53-.2-1.05.03.07-.23l5.46-.8c-.2-.1.3-.2.8-.32l.08.1.7-.2.48-.18a4.216,4.216,0,0,1,.5-.17,1.337,1.337,0,0,0,.48-.22,3.021,3.021,0,0,0,.88-.98l.1-.54a6.116,6.116,0,0,0,.3-1.2l.1-.6a1.3,1.3,0,0,0,.04-.72Z"/>
    <g id="Group_1024" data-name="Group 1024">
      <path id="Path_13754" data-name="Path 13754" d="M300,428.3l5.36-.86,3.48-.7c.5-.22,1.47-.28,2.08-.5l.26.02a1.988,1.988,0,0,1,.7-.15l-.01.02c.3-.1.7-.15.84-.2v.02l.4-.08-.06.04a11.9,11.9,0,0,1,1.65-.35l-.06-.08c1.12-.1,1.48-.36,2.5-.43v.02c1.2-.46,2-.22,3.26-.67-.16.06.08.03.07.05.6-.14,1.22-.27,1.2-.44.43-.08.36-.01.43.04-.02-.07.35-.17.7-.24l-.15.06.96-.2-.22-.1c.52-.06.16.15.65.02l-.03-.1c.7-.1,1.16-.01,1.87-.06l8.58-1.65.13.06c.07.12.7-.32.82-.23l.3-.12c.1.01.28,0,.13.05a1.567,1.567,0,0,0,.5-.15h.32c1.14-.15,2.07-.48,3.27-.67a44.817,44.817,0,0,0,5.65-1.13c2.14-.6,4.76-.57,6.95-1.2.08,0,.26-.07.25-.1l2.04-.36s9.9-1.8,2.2-1.44l.05-.04a10.717,10.717,0,0,0-2.58.54c-.15-.15-.92.15-1.2.15v-.02c-.66.26-1.42.15-2.06.4.02-.02.03-.07.18-.1-.47.1-1.12.27-1.17.18l-3.44.8.04-.04a6.618,6.618,0,0,1-1,.26c-.03-.01-.06-.01-.06-.02a15.787,15.787,0,0,1-1.68.38l-.04-.06-.9.18.34-.05c-.08.2-.7.01-1.34.25-.62.1-1.17.6-1.83.64-.3.14.24-.2-.2-.04-.03-.1.2-.1.07-.15-.44.13-.75.04-1.3.2l-.04-.07c-.7.27-1.37.16-1.83.37-.73.2-.54-.12-1.28.16l-.32-.04c-.33.05-.2.17-.6.2.01-.07-.47.04-.27-.06-.85.06-1.65.45-2.78.5-.2.17-.78.2-.94.32-.04-.05-1.1.2-.5-.03.05-.02.15-.04.14-.01l.06-.1a9.862,9.862,0,0,0-1.73.38c.2-.01.43-.06.28.02l-.57.1.1-.08-.86.12.13.05a2.528,2.528,0,0,0-1.04.13c-.2.1.4.03-.02.13l-2.13.24c.08.07-.1.1-.3.16l-.04-.07c-.74.24-.3-.1-1.04.1l.06-.06-.17.2c-.65.27-.4-.08-1.1.26.3-.07.17.14-.2.17l.08-.1a1.649,1.649,0,0,1-.4.1c.1-.06.04-.12-.25-.05l.18-.13-.54.24a11.7,11.7,0,0,1-1.32.16,4.607,4.607,0,0,0-1.14.28c.17-.1-.34-.03-.2-.14a3.528,3.528,0,0,1-1.23.3l.05-.02c-1.07.1-1.8.45-2.75.53.06.08-.45.12-.3.2-.96.3-1.83.1-2.12.52a3.443,3.443,0,0,1-.78.05l.1-.04-1.7.34c-.3.1-.32.26-.9.32.17-.1-.06-.04-.26,0,.13-.03.17-.07-.1-.06a.523.523,0,0,1-.15.07h-.01c-.34.1-.28.1-.12.07q-.015.015.06.03c-.38-.01-1,.2-1.07.1l-2.63.67c-.1-.04.1-.12.33-.2l-.6.14c-.01-.08.35-.1.53-.16-.76.01-1.5.4-2.37.45l-.17.1h-.05c.01.03-.18.1-.3.15-.13-.05-.02-.16-.45-.08a6.225,6.225,0,0,0-1.38.33c.24-.03.17.02.07.06a3.264,3.264,0,0,0-.5.06l-.04-.1c.1.07-.54.2-.6.25-.13-.05.32-.12.36-.18l-1.28.25c-.44.16.1.07-.1.2a6.572,6.572,0,0,1-1.25.26l.16.05a7.226,7.226,0,0,1-1.72.3c-5.5,1.73-1,1.14-1,1.14a38.731,38.731,0,0,0,6.04-1.2Zm25.63-17.24c.2-.26.38-.25.5-.58a1.927,1.927,0,0,0,.2-.44c-.07-.13.1-.18.05-.3l.08.01c-.02-.04-.02-.1.03-.1v.01c-.02-.07.03-.1.02-.13l.02.01.02-.05h.02a.26.26,0,0,1,.08-.22l-.08-.04c.16-.08.03-.22.2-.28v.01c-.1-.27.27-.16.17-.43.01.03.04.01.06.03a.18.18,0,0,0-.1-.25c.03-.05.07-.02.13.01a.1.1,0,0,1-.05-.14l.01.03.04-.13-.14-.05c.07-.04.16.07.16-.01l-.1-.06c.07-.07.25-.04.37-.08.24-.32.2-.84.56-1.06l.08.03c.12.06-.1-.18,0-.14l-.03-.07c.03,0,.06-.01.07.02.02-.03.01-.04-.01-.1h.1c.13-.1.06-.3.17-.43.24-.1.3-.5.33-.72-.02-.36.6-.4.57-.8.02,0,0-.04-.01-.05l.16-.24s.73-1.17-.72-.8v-.02c-.14.1-.2.18-.13.34-.16-.07-.08.1-.15.1h-.01c.07.15-.2.1-.13.25-.01-.01-.05-.04-.04-.05-.01.07-.03.17-.12.12-.06.15-.2.32-.12.5l-.02-.02c.07.1-.02.07-.01.16a.037.037,0,0,1-.03-.01c.06.1-.08.17-.06.24l-.06-.03-.05.12.04-.03c.15.1-.15.03-.1.16-.06.06.25.34.12.37.05.08-.1-.1-.08-.01-.08-.05-.04-.06-.1-.08.01.08-.14.04-.12.14l-.07-.03c.07.15-.18.1-.1.24,0,.12-.23-.05-.15.12H327c-.04.03.1.1.02.1-.05-.03-.08.03-.1-.03-.14.05.01.27-.2.32.1.1-.01.12.06.2-.05-.02-.08.13-.14,0,0-.01,0-.02.02-.01l-.06-.05c-.16.01-.01.17-.07.24.03-.01.04-.04.08,0l-.05.06-.05-.05-.1.08h.07c-.06.03-.2-.02-.12.1.04.06.12,0,.1.07a1.1,1.1,0,0,0-.28.18c.08.03.06.06.06.1l-.07-.03c.04.14-.16-.05-.14.08l-.04-.03.12.1c.08.16-.16-.03-.04.16.01-.04.15.06.1.1l-.06-.05c0,.03.02.06,0,.06-.03-.03-.1-.06-.1-.02l-.06-.07.08.13c-.1.01-.06.15-.16.12,0,0-.1.1-.03.17-.05-.06-.1-.01-.17-.07.05.07.06.2-.03.18v-.01c-.15.1-.02.28-.18.34.08.04,0,.07.1.12.03.17-.32.1-.05.32-.01.06-.1.02-.14.04v-.02a.5.5,0,0,1-.1.22c.01.05.14.14.07.2-.04-.05-.05-.02-.06.01,0-.02-.02-.04-.07-.03.01.01.02.03.03.04-.01.04.01.05.03.03.01.01.02.01.04.01-.1,0-.06.12-.16.08-.05.14,0,.28-.03.4a.193.193,0,0,1-.1-.1l-.02.08c-.07-.04-.02-.07-.02-.1-.16.02.01.25-.15.3l.04.05h-.01a.141.141,0,0,1,.06.08c-.07-.02-.14-.08-.17-.03-.08.01-.04.13-.03.2.03-.02.06.01.07.03-.01.03-.08.01-.07.04l-.08-.04c.08.03.04.1.07.14-.07-.02-.03-.07-.07-.1-.05.1-.03.05-.08.16.03.1.08.03.14.1-.01.06.02.14-.06.17l.08.02a.174.174,0,0,1-.14.2c.2,1.02.73.6.73.6.33-.12.2-.38.32-.73Z" fill="#fff"/>
      <path id="Path_13755" data-name="Path 13755" d="M331.06,412.73c.17-.28.36-.3.43-.62a3.111,3.111,0,0,0,.16-.46c-.08-.12.08-.2.02-.3h.08c-.02-.04-.03-.08.02-.1l.02.01c-.03-.06.02-.1,0-.13v.01l.01-.05.02.02a.228.228,0,0,1,.06-.22l-.08-.03c.15-.1.01-.22.17-.3v.01c-.14-.25.26-.2.13-.44.02.03.04.01.06.02.01-.1.04-.17-.12-.24.03-.05.07-.02.13,0a.1.1,0,0,1-.06-.14l.02.03.03-.13-.14-.03c.07-.05.16.06.16-.02l-.1-.05c.06-.08.25-.06.37-.1.2-.34.1-.85.46-1.1l.1.02c.12.05-.13-.17-.02-.14l-.04-.06c.03,0,.06-.01.08.02.02-.03,0-.04-.02-.1h.1c.12-.12.04-.3.13-.44.23-.1.25-.5.26-.75-.05-.35.56-.46.5-.83.02,0-.01-.04-.02-.05l.13-.25s.6-1.23-.8-.72l-.02-.02c-.13.1-.18.2-.1.35-.16-.06-.07.1-.13.12h-.01c.08.14-.18.13-.1.26-.01-.01-.05-.03-.05-.05-.01.07-.01.17-.1.13-.04.16-.18.34-.07.5l-.02-.02c.07.1-.02.07.01.16h-.03c.07.1-.06.17-.04.24h-.06l-.04.12.03-.04c.16.1-.14.04-.07.17-.06.07.28.32.16.36.06.07-.1-.1-.08-.01-.1-.04-.04-.05-.12-.07.02.08-.13.05-.1.15l-.07-.03c.08.15-.17.13-.08.24.01.12-.23-.03-.14.13h-.1c-.03.03.1.08.03.1-.06-.03-.07.04-.12-.01-.14.06.03.27-.18.34.1.08,0,.12.07.18-.05-.02-.07.14-.14.01-.01-.01,0-.02.02-.01l-.06-.04c-.16.02,0,.17-.05.24.03-.01.04-.05.08,0l-.04.07-.05-.04-.08.1.08.02c-.06.04-.2,0-.1.1.04.05.12-.01.1.06a1,1,0,0,0-.26.2c.08.03.07.05.07.08l-.07-.03c.05.14-.17-.03-.13.1l-.04-.03.13.1c.1.15-.16-.02-.02.16.01-.04.16.05.1.08l-.06-.04c0,.03.03.05,0,.06-.03-.03-.1-.05-.1-.01l-.07-.06.1.13c-.1.02-.05.15-.15.13,0,0-.1.1-.01.17-.05-.05-.1,0-.17-.05.06.06.07.18-.02.18h-.01c-.14.1,0,.28-.15.35.08.03.01.07.12.1.04.17-.3.13-.02.32-.01.06-.1.03-.13.06l-.01-.02a.407.407,0,0,1-.08.22c.01.05.15.13.1.18-.05-.05-.05-.02-.06.01,0-.02-.02-.04-.07-.02.02.01.02.03.03.04-.01.04.01.04.03.03.01.01.02.01.04.01-.1.01-.05.13-.15.1a1.752,1.752,0,0,0,.01.4.116.116,0,0,1-.1-.1l-.02.1c-.07-.03-.02-.06-.03-.1-.16.04.03.24-.13.3l.05.05h-.01a.116.116,0,0,1,.06.08c-.07-.01-.15-.07-.17-.01-.08.01-.02.13-.02.2.02-.03.06,0,.07.02-.01.03-.08.01-.06.05l-.1-.04c.1.03.06.1.1.14-.07-.01-.04-.07-.08-.1l-.06.17c.04.1.1.03.15.1-.01.06.03.14-.05.17l.08.02c.02.12-.02.18-.13.2.3,1,.78.54.78.54.32-.22.16-.47.26-.83Z" fill="#fff"/>
    </g>
    <path id="Path_13756" data-name="Path 13756" d="M316.78,396.95l-.07-.6c-.17-.64-.25-.42-.4-1.15.07.03-.2-.9-.03-.5-.37-1.63-1.1-3.22-1.55-5.38-.25-.42-.5-1.5-.68-1.83.04-.07-.62-2.13-.15-.97.04.1.1.28.07.28l.1.12a9,9,0,0,0-.37-1.36l-1.2.3,2.43,8.42-.02.25c-.1.14.6,1.37.54,1.6l.23.58c.03.17.1.54-.01.25a5.852,5.852,0,0,0,.34.95l.1.62,1.02,3.4.96-.3a17.165,17.165,0,0,0-.64-2.2c-.5-1.4-.1-1-.66-2.46Zm-27.63,3-.63-2.48-1.06.57.6,1.9c-.1-.47-.04-.33.04-.13.12.4.1.67.23.98l-.08.06c.04-.2.4,1.06.47,1.2,0,.25-.23-.63-.3-.72l.7,2.5c.3.87.04-.18.24.22l.7,2.44v-.3l.88,3.35a.489.489,0,0,0,.03.07l.97-.22-2.77-9.42Z"/>
    <path id="Path_13757" data-name="Path 13757" d="M318.98,382.2l-.17-.9-.64-3.28-1.3-6.52-2.74-12.65q-.1-.584-.25-1.16l-.14-.53c-.04-.13-.06-.22-.07-.2l-3.13-15.05s-10.26-49.17-8.45-35.88l-.46-2.08c-.44-1.97-1.6-5.74-3.2-10.74,4.3,11.9,4.38,13.13,4.12,10.54a114.927,114.927,0,0,0-2.98-11.16c-2.46-8-4.55-14-6.83-20.34l-8.14-22.4-13.4-37.97-1.5-4.1H192.4l-.7,11,.3-11h-.7c-.38,3.25-.78,7.87-.78,7.87-1.35,14.65-1.5,22.24-2.62,39.7l-1.5,17.42a26.8,26.8,0,0,1-.58,3.53,5.85,5.85,0,0,1-1.53,2.92,11.7,11.7,0,0,1-3.52,2.1l-5.03,2.13-21.37,8.98c-3.18,1.55-9.02,3.76-12.8,5.53l-1.54.5c-1.3.6-2.85,1.3-4.2,1.8l.07-.07c-1.95.9-4.2,1.8-5.18,2.25l.07-.07-2.4,1.02.4-.22q-2.575,1.154-5.18,2.24l-2.54,1.06a3.168,3.168,0,0,0-.83.45,2.363,2.363,0,0,0-.73.86,2.242,2.242,0,0,0-.28,1.14,2.54,2.54,0,0,0,.07.57l.08.33.07-.3c1.6,7.1,2.55,9.6,3.96,16.02l-.06-.08c1.2,3.98,1.93,7.18,2.67,10.4l.56,2.44.3,1.25.15.64a2.687,2.687,0,0,0,.4.95,2.987,2.987,0,0,0,1.7,1.22,2.949,2.949,0,0,0,1.07.07l.28-.05.18-.04.35-.1,2.97-.77c-1.03.28.46-.03.4.02,3.84-.92,7.94-1.9,7.94-2.18,2.8-.64,2.3-.44,2.7-.42a31.568,31.568,0,0,1,4.56-1.24l-1,.28,6.26-1.5-1.28.06c3.34-.7.9.08,4.08-.7l-.08-.18c4.6-1.03,7.37-1.37,11.85-2.26l28.2-6.8,13.9-3.5,3.4-.9c1.12-.28,2.25-.63,3.36-1a31.962,31.962,0,0,0,6.3-2.92,7.121,7.121,0,0,0,.75-.33,8.71,8.71,0,0,0,2.15-1.73,16.027,16.027,0,0,0,1.3-1.34,8.585,8.585,0,0,1,.83-.8c.44-.56.9-1.1,1.3-1.67.4-.45,1.2-1.42.58-.55.6-.77.86-1.2,1.1-1.56s.42-.67.75-1.3c.4-.57.8-1.13,1.17-1.72.92-1.56,1.7-3.12,2.42-4.65l1.25-2.6c.6-1.3,1.42-3.4,2.4-6.02l2.94,4.22c3.1,4.53,6.15,9.04,9,13.53a106.285,106.285,0,0,1,7.54,13.45c.08.28.14.56.2.85-.02.22.56,1.4,1,2.7a17.6,17.6,0,0,1,.9,3.13l.68,2.23c.13.64.43,2,.1.88.52,2.1.57,2.13,1.02,3.62l.44,2.28,6.08,23.94c1.16,5.25,3.02,12.78,4.94,20.4l1.7,6.75a2.863,2.863,0,0,0,.17.52,2.645,2.645,0,0,0,1.66,1.43,2.77,2.77,0,0,0,1.07.1,3.98,3.98,0,0,0,.8-.17l1.36-.32,9.8-2.34,12.4-2.87,6.45-1.4,3.26-.7,1.63-.35.82-.17a3.236,3.236,0,0,0,2.39-2.32,3.415,3.415,0,0,0,.05-1.23Z"/>
    <g id="Group_1025" data-name="Group 1025">
      <path id="Path_13758" data-name="Path 13758" d="M232.14,284.05l-.1-.2C232.03,283.86,232.05,283.92,232.14,284.05Zm-31.08-49.33-.03-.04A.3.3,0,0,0,201.06,234.72Zm27.14,41.2.05.05Z" fill="#fff"/>
      <path id="Path_13759" data-name="Path 13759" d="M234.6,285.8l-3.8-6-2.6-3.85c-.5-.52-1.08-1.63-1.63-2.27l-.12-.3a3.367,3.367,0,0,1-.52-.75h.03c-.28-.33-.52-.75-.66-.92h.03l-.3-.43.07.06a20.482,20.482,0,0,1-1.25-1.82l-.04.1c-.72-1.27-1.17-1.62-1.8-2.78h.03c-1.1-1.26-1.32-2.28-2.45-3.6.14.16-.01-.1.01-.1-.46-.65-.93-1.34-1.08-1.26-.32-.48-.2-.42-.2-.52-.06.04-.36-.36-.6-.73l.14.16-.73-1.06.02.3c-.34-.6.05-.24-.34-.77l-.1.07c-.5-.8-.66-1.36-1.1-2.17-2.04-3.2-4.43-6.5-6.06-9.64v-.18c.08-.12-.66-.74-.62-.92l-.26-.32c-.04-.1-.14-.33-.01-.17a2.724,2.724,0,0,0-.38-.54l-.14-.4c-.7-1.33-1.47-2.35-2.23-3.73-.8-1.72-2.68-4.76-3.76-6.5-1.57-2.43-2.73-5.63-4.33-8.13-.03-.1-.18-.3-.2-.28l-1.26-2.4s-1.53-2.9-2.58-4.65-1.65-2.33.2,2.34l-.06-.05a17.236,17.236,0,0,0,1.66,3c-.08.22.56,1.08.67,1.42h-.03c.54.74.8,1.7,1.3,2.4-.03-.02-.08-.02-.18-.2a5.441,5.441,0,0,1,.7,1.38,43.666,43.666,0,0,0,2.34,3.98l-.06-.04a9.3,9.3,0,0,1,.7,1.14c0,.04.02.08.01.07.38.48.87,1.53,1.15,1.94l-.04.06.6,1.04-.2-.4c.24.05.34.85.88,1.55.38.72,1.15,1.25,1.5,2.03.27.3-.3-.24.06.25-.07.06-.2-.22-.18-.04.33.5.4.9.82,1.5l-.05.06c.6.76.82,1.6,1.25,2.1.55.82.14.68.8,1.5l.12.4c.2.4.27.2.47.65-.07.01.27.56.07.34.47,1,1.27,1.85,1.88,3.18.27.2.58.87.8,1.02-.03.06.77,1.25.23.6a.544.544,0,0,1-.1-.17l-.1-.04a14.144,14.144,0,0,0,1.28,1.94c-.1-.22-.28-.5-.13-.33l.4.65-.14-.1.58.98-.02-.17a4.362,4.362,0,0,0,.7,1.2c.2.2-.2-.5.14-.02.36.65.9,1.63,1.4,2.43.02-.12.16.1.32.3l-.05.07c.64.78.07.4.68,1.18l-.1-.04.27.13c.62.67.14.5.86,1.2-.23-.32.03-.25.28.18l-.13-.06a3.322,3.322,0,0,1,.32.43c-.12-.1-.13-.01.1.3l-.22-.17.52.55c.25.52.84,1.23.88,1.5a7.336,7.336,0,0,0,.9,1.24c-.2-.17.16.42-.02.3a5.59,5.59,0,0,1,.96,1.34l-.05-.05c.7,1.22,1.42,1.94,2.03,3.05.04-.1.37.5.37.3.8,1.03,1.12,2.1,1.67,2.3a6.559,6.559,0,0,1,.48.9l-.1-.1c.64.9.82,1.18,1.27,1.87.25.33.42.3.8.93-.18-.16-.01.08.14.3-.1-.14-.15-.17.01.15a2.112,2.112,0,0,1,.15.15c0,.01,0,.02-.01.02.27.37.25.3.13.1.01,0,.01-.02-.01-.08.2.44.74,1.1.68,1.22.8,1.14,1.43,1.9,2.1,2.85.02.14-.17-.06-.37-.33l.47.67c-.07.04-.3-.37-.45-.57.43.9,1.22,1.6,1.75,2.63l.18.16.03.06c.03-.02.2.17.3.3.03.17-.14.08.17.55a13.114,13.114,0,0,0,1.08,1.5c-.16-.27-.08-.2.02-.1.16.23.2.4.33.58l-.06.07c.01-.14.5.56.58.63.03.17-.3-.33-.38-.36l.95,1.4c.4.47.01-.14.24.05a13.233,13.233,0,0,1,.94,1.38l-.04-.2a11.054,11.054,0,0,1,1.23,1.92c4.7,5.87,1.65.8,1.65.8a75.3,75.3,0,0,0-4.45-6.6Zm53.27,90.7-1.73-7.33a26.394,26.394,0,0,0-.7-3.36l.03.07c-.57-1.9-.8-4-1.34-5.84a1.357,1.357,0,0,1,.2.53l-.72-3.32c-.77-3.23-1.77-7.76-2.4-9.8l.06.14c-.38-1.16-.37-1.53-.73-2.84,0-.08-.02-.17-.01-.16-.4-1.26-.9-3.75-1.2-4.78l.05-.08-.62-2.56.2.96c-.26-.3-.35-1.96-.9-3.8-.4-1.74-1.23-3.43-1.6-5.26-.3-.84.33.72-.06-.54.08-.07.2.58.2.23-.37-1.25-.42-2.1-.94-3.63l.05-.1c-.85-1.93-1.2-3.8-1.88-5.02-.9-1.97-.36-1.42-1.38-3.44l-.3-.83c-.4-.88-.4-.57-.83-1.55.1.03-.54-1.24-.22-.7a30.568,30.568,0,0,0-1.73-3.35c-.65-1.15-1.3-2.4-2.05-3.82-.45-.54-1.2-1.97-1.52-2.37.02-.1-1.65-2.75-.6-1.28.1.13.23.36.2.36l.17.15c-.82-1.62-1.78-2.78-2.7-4.33.26.47.63,1.07.34.7-.28-.48-.58-.95-.87-1.42l.24.26-1.3-2.12.12.33a18.123,18.123,0,0,0-1.57-2.57c-.4-.5.54,1.02-.18-.04l-3.24-5.2c.04.2-.27-.26-.6-.72l.03-.1c-1.3-1.77-.3-.76-1.6-2.53l-.3-.26c-1.22-1.55-.47-.97-1.86-2.67.5.7.1.43-.48-.47l.2.18c-.34-.48-.48-.63-.68-.96.23.27.2.1-.3-.62l.4.43-1.03-1.28c-.64-1.1-1.85-2.7-2.05-3.18,0,0-1.48-2.28-1.92-2.73.36.4-.45-.84-.15-.53a25.408,25.408,0,0,1-2.06-2.97l.1.13c-1.62-2.62-3-4.3-4.4-6.7,0,.15-.75-1.1-.65-.73-1.66-2.33-2.6-4.52-3.44-5.2-.7-1.1-.75-1.35-1.1-1.93l.18.25-2.56-4.23a16.338,16.338,0,0,1-1.47-2.22c.3.42-.02-.15-.32-.67.2.33.28.42-.08-.3-.07-.1-.17-.23-.26-.37,0-.01-.01-.04,0-.03-.52-.87-.45-.7-.22-.3-.02-.02-.01.02.04.16-.45-.95-1.44-2.54-1.4-2.7l-2-3.53-1.76-3.22c-.08-.28.23.23.6.87l-.84-1.58a10.918,10.918,0,0,1,.78,1.38c-.87-1.95-2.08-3.88-3.06-6.18l-.28-.44-.05-.14a4.624,4.624,0,0,1-.47-.8c-.1-.35.16-.05-.37-1.17-.36-.9-1.17-2.52-1.73-3.68.27.64.14.45,0,.2-.25-.57-.34-.92-.55-1.35l.06-.1c.01.26-.72-1.45-.85-1.65-.07-.35.43.86.54.98L217,221.7c-.57-1.2.01.26-.3-.3-.46-1.07-.95-2.1-1.38-3.38l.08.43a44.934,44.934,0,0,1-1.75-4.68l-2.44-5.98h-.5q.416,1.525.9,3.03,1.241,3.965,2.85,7.8c1,2.4,2.12,4.94,3.68,8.46,2.72,6.2,3.34,7.9,6.58,14.13,1.52,2.98,3.27,6.1,4.92,8.93.86,1.3,2.2,3.7,3.2,5.22l.3.65c.35.53.77,1.14,1.08,1.7h-.04c.55.77,1.08,1.7,1.36,2.08l-.04-.02.62.97-.13-.15,2.64,4.06.01-.15c1.65,2.75,2.46,3.6,3.95,6.08l-.04-.02c2.2,2.9,3.08,4.88,5.36,7.87-.3-.37.08.2.04.17a15.991,15.991,0,0,0,2.2,2.87c.7,1.05.53.88.57,1.05a9.724,9.724,0,0,1,1.25,1.65l-.28-.36,1.6,2.32-.2-.54c.8,1.27.07.4.9,1.58l.1-.08c1.13,1.73,1.67,2.83,2.68,4.56,4.52,6.97,9.52,14.4,12.8,21.4l.07.35c-.05.2,1.1,1.83,1.1,2.15l.44.78c.1.24.3.73.08.34.35.75.35.77.63,1.3l.27.85q.437,1.11.92,2.2c.3.7.54,1.43.82,2.14l.82,2.18c.23.76.46,1.52.66,2.37.9,4.05,2.83,11.62,3.94,16,1.63,6.12,2.78,13.4,4.44,19.7a5.059,5.059,0,0,0,.2.73l1.3,5.8s6.3,28.07,2.52,6.52l.1.1Z" fill="#fff"/>
      <path id="Path_13760" data-name="Path 13760" d="M254.27,285.42h0l.15.13Z" fill="#fff"/>
    </g>
    <path id="Path_13761" data-name="Path 13761" d="M303.8,434.3l-.1.03Zm28.9-27.83Zm-1.05,5.2h0l.01.01Zm5.65,2.02.04-.01C337.33,413.68,337.32,413.67,337.3,413.69ZM339.26,408.94Zm-.58,4.47h.01Z"/>
    <path id="Path_13762" data-name="Path 13762" d="M337.83,414.18c.14-.23.32-.24.37-.52a2.644,2.644,0,0,0,.12-.4c-.1-.1.06-.16-.01-.27h.08c-.02-.04-.04-.07.01-.08l.02.01c-.04-.06.01-.08-.01-.1l.02.01.01-.05.02.02a.18.18,0,0,1,.04-.2l-.08-.03c.14-.08-.01-.2.14-.26l.02.01c-.16-.22.23-.15.1-.38.02.03.04.01.06.02,0-.07.02-.15-.14-.2.02-.05.07-.02.13,0a.1.1,0,0,1-.07-.12l.02.03.02-.1-.14-.03c.06-.04.17.05.16-.01l-.1-.04c.05-.07.24-.04.35-.1.17-.3.04-.74.35-.95l.1.02c.12.04-.14-.15-.03-.12l-.04-.06c.03,0,.06-.01.08.02.02-.03,0-.04-.03-.08h.1c.1-.1.01-.26.1-.38.2-.1.2-.44.2-.64-.08-.3.5-.4.4-.7.02,0-.01-.04-.02-.04l.1-.2s.5-1.05-.83-.65l-.02-.02c-.1.1-.16.16-.06.3-.17-.05-.06.1-.12.1v-.01c.1.12-.17.1-.08.23-.01-.01-.05-.03-.05-.05,0,.06,0,.15-.1.1-.03.13-.14.3-.03.43l-.02-.02c.08.1-.01.06.02.14h-.03c.08.1-.04.15-.02.2h-.06l-.03.1.03-.03c.16.08-.14.03-.06.15-.05.06.3.28.18.32.07.07-.12-.08-.08-.01-.1-.04-.05-.05-.12-.06.02.07-.12.04-.1.13l-.07-.03c.1.13-.15.1-.05.2.02.1-.23-.03-.13.1l-.1-.01c-.03.03.1.07.04.1-.06-.03-.07.03-.1-.02-.13.05.05.24-.15.3.1.07.01.1.1.16-.05-.02-.06.12-.14,0-.01-.01,0-.02.02-.01l-.06-.04c-.16.01.02.15-.03.2.03-.01.04-.04.07,0l-.03.06-.05-.04-.07.08.08.02c-.06.03-.18,0-.1.1.05.05.1,0,.12.05a.958.958,0,0,0-.24.17c.08.03.07.05.08.07l-.07-.03c.06.12-.16-.03-.12.08l-.05-.03.14.08c.1.13-.16-.02-.01.14,0-.04.16.05.1.08l-.06-.04c.01.03.03.05.01.06-.03-.03-.1-.05-.1-.01l-.07-.06.1.1c-.1.02-.03.13-.13.1a.086.086,0,0,0,.01.15c-.06-.05-.1,0-.17-.05.06.06.1.16,0,.16h-.01c-.13.08.03.24-.1.3.08.03.02.06.12.1.06.15-.3.1.01.28,0,.06-.1.03-.12.04v-.02a.532.532,0,0,1-.05.2c.02.05.16.1.1.16-.05-.04-.05-.01-.06.01,0-.02-.02-.03-.07-.02.02.01.02.02.03.03,0,.04.02.04.03.02.01,0,.02.01.04.01-.1.01-.04.1-.14.07-.02.12.05.25.05.36a.107.107,0,0,1-.1-.1l-.01.07c-.07-.03-.03-.06-.03-.08-.15.03.05.2-.1.26l.05.04h-.01a.158.158,0,0,1,.07.07c-.07-.01-.15-.06-.16-.02-.08.01-.01.12,0,.18.02-.02.05,0,.07.02-.01.02-.08.01-.06.04l-.1-.03c.1.03.06.1.1.12-.07-.01-.04-.06-.1-.08-.03.1-.02.05-.05.14.05.08.1.03.15.08,0,.05.04.12-.03.15l.08.02c.03.1,0,.15-.1.17.38.87.8.5.8.5.23-.15.06-.37.1-.68Z" fill="#fff"/>
    <path id="Path_13763" data-name="Path 13763" d="M405.76,331.53v-.1C405.75,331.5,405.75,331.53,405.76,331.53ZM227.94,213.83h0l.01-.02Zm17.56-9.3h.06l.32-.01Zm-25.6,2-.3.01Zm10.9,4.88-.07.07C230.74,211.48,230.77,211.47,230.8,211.41Zm1.03-4.36.85.06A3.282,3.282,0,0,0,231.83,207.05Zm32.9,1.96Z"/>
  </g>
</svg>
