<svg xmlns="http://www.w3.org/2000/svg" width="350.21" height="226.988" viewBox="0 0 350.21 226.988">
  <g id="_94" data-name="94" transform="translate(-55.55 -207.83)">
    <g id="Group_1026" data-name="Group 1026">
      <path id="Path_13764" data-name="Path 13764" d="M310.82,404.87l-2.6-12.2a2.505,2.505,0,0,0,1.03-2.66l-2.4-10.2-32.5,9.6,2.5,8a2.794,2.794,0,0,0,3.4,1.9l.48-.1,2.17,8.9c4.47,17.8,22.35,11.73,27.16,5.1,1.9-2.6.77-8.33.77-8.33ZM92.86,320l15.4-4.02,7.04,26.7L96.28,347.4s-6.8,2.34-9.43.5c-6.7-4.68-11.7-23.12,6.02-27.9Z" fill="#fff"/>
      <path id="Path_13765" data-name="Path 13765" d="M102.15,314.8l9.2-2.4,8.4,32.2-9.1,2.4a2.862,2.862,0,0,1-3.5-2.1l-6.8-27.2A2.412,2.412,0,0,1,102.15,314.8Z" fill="#fff"/>
    </g>
    <path id="Path_13766" data-name="Path 13766" d="M292.24,384.9l-.05.03C292.22,384.91,292.23,384.91,292.24,384.9Zm5.83,18.9h0l.01-.05Z"/>
    <path id="Path_13767" data-name="Path 13767" d="M351.97,422.54l-.06-.46-.13-.96a13.951,13.951,0,0,0-1.17-4.12c.18.38.01-.2.05-.18-.55-1.46-1.42-2.95-1.68-2.82l-.5-.85c-.07-.13-.02-.15-.05-.26-.1.03-.98-.63-1.77-1l.38.16a25.026,25.026,0,0,0-2.28-1.1l.35.42c-1.17-.6-.2-.4-1.37-.84l-.06.2c-1.66-.7-2.56-1.33-4.17-2.03-6.86-2.38-14.48-3.86-20.88-5.86l-.25-.22c-.07-.24-1.87-.15-2.07-.4l-.78-.1c-.2-.1-.64-.24-.25-.2a6.69,6.69,0,0,0-1.26-.22,4.137,4.137,0,0,0-.47-.16c-.17-.04-.34-.07-.5-.1a3.53,3.53,0,0,0-2.09.66c-.1-.94-.44-1.67-.62-2.6.04.3.12.66.02.42l-.18-.9.1.17-.25-1.33-.04.2a6.128,6.128,0,0,0-.28-1.62c-.13-.32.03.63-.14-.04-.13-.88-.33-2.2-.55-3.3-.05.1-.1-.06-.15-.28a5.528,5.528,0,0,0,.85-.82,2.885,2.885,0,0,0,.6-1.47,4.662,4.662,0,0,0-.1-.9l-.16-.68-.35-1.36-.75-2.72-.34-1.3q.61-.23,1.2-.51a12.887,12.887,0,0,0,2.86-2.03,15.762,15.762,0,0,0,3.74-5.65,23.307,23.307,0,0,0,1.5-6.3,7.3,7.3,0,0,0,.11-1.18c0-.2.01-.4.01-.54a.718.718,0,0,0-.01-.22,45.04,45.04,0,0,0-.25-7.63q-.424-3.749-1.06-7.47s-.74-4.5-2.02-10.32q-2.013-9.264-4.52-18.41c-1.5-5.43-2.7-9.16-2.67-8.18a15.032,15.032,0,0,0,.4,2.42l-.63-2.36c-.78-2.88-1.85-6.36-3.12-10.23l3.26,9.1c.94,2.6,1.02,2.37.75.9-.15-.74-.4-1.8-.67-2.95l-.98-3.58-1.3-4.28c-2.43-7.8-4.58-13.6-6.96-19.74-2.4-6.12-5.02-12.57-8.85-21.5-3.26-7.9-5.67-12.78-7.77-17.76l-7.5-18.3L269.9,216l-1.7-4.4.24-1.4.4-2.37H193.32l-1.46,8.8c.56-4.03.9-6.87,1.08-8.8h-.7l-.86,4.4-.84,4.5-8.38,45.6c-1.3,5.98-2.6,11.8-5.74,15.3-7.68,8.57-25.1,11.8-28.2,12.63-5,1.63-30.05,3.76-38.13,12.53a10.778,10.778,0,0,0-2.67,5.04c-.1.6-.13,1.17-.17,1.66l-.02,1.23-.03-.1a26.035,26.035,0,0,0,.13,2.66c-.01,0-.03.01-.04.01l-.02-.1c0,.04.01.07.01.1a6.1,6.1,0,0,1-1.76.37c-6.86,2.97-1.1,1.9-1.1,1.9a19.343,19.343,0,0,0,3.07-.72c.58,3.83,1.72,7.5,2.45,10.76l.07-.35,4.26,18.3-.06-.1.46,1.53-1.65.5c-.9.27-1.87.57-2.68.76a1.737,1.737,0,0,1-1.7-.6l.03-.17c.06-.1-.1-.13-.25-.23s-.3-.22-.23-.3a1.5,1.5,0,0,1-.18-.24c.01-.1-.01-.36.1-.17a1.405,1.405,0,0,0-.25-.6l.03-.42c-.26-1.46-.8-2.62-1.14-4.15a47.243,47.243,0,0,0-1.92-7.18c-1-2.7-.98-6.12-2.04-8.86a.53.53,0,0,0-.14-.31l-.62-2.6-.47-1.8a11.564,11.564,0,0,1-.36-1.45,1.86,1.86,0,0,1,.28-1.05c.37-.6.97-.8.77-1.02-.1-.08-.42-.2-1.04.01a2.426,2.426,0,0,0-1,.77,2.8,2.8,0,0,0-.58,1.88l-.06-.08a4.626,4.626,0,0,0,.1.6l.1.47q.079.425.2.84a6.9,6.9,0,0,0,.54,1.44c-.24.22.26,1.17.26,1.53l-.03-.03c.43.8.27,1.83.67,2.62a.313.313,0,0,1-.16-.22c.2.6.46,1.42.3,1.5a26.971,26.971,0,0,0,1.33,4.36l-.06-.05a7.342,7.342,0,0,1,.44,1.25c-.01.04-.01.08-.02.08a16.712,16.712,0,0,1,.64,2.13l-.1.06.3,1.15-.08-.44c.33.08.03.92.43,1.7.16.8,1,1.43,1.07,2.28.24.35-.3-.28-.06.27-.15.06-.16-.25-.25-.07.22.55.07.97.35,1.65l-.1.06c.45.86.27,1.76.63,2.32.3.8-.06.76.14,1.3-.27.03-.54.07-.85.12-2.24.53-4.54,1.17-6.8,1.77l-1.7.45-.42.1c-.13.03-.34.1-.45.13l-.6.18a1.119,1.119,0,0,0-.23-.78c.16-.08-.05-.3-.01-.4h.02c-.18-.2.01-.5-.15-.68.02.01.06,0,.08.05-.05-.15-.14-.36-.04-.4a3.075,3.075,0,0,0-.38-1.12l.03.01c-.14-.12-.05-.18-.14-.32l.02-.02c-.14-.13-.1-.44-.18-.55l.06-.02-.08-.3v.12c-.2,0,.06-.25-.1-.44-.02-.2-.46-.33-.42-.56-.1-.08.16.06.06-.08.1-.02.07.06.14,0-.08-.14.04-.26-.06-.43l.07-.02c-.18-.2,0-.47-.16-.6-.1-.23.18-.2-.02-.44l.08-.12c-.01-.1-.14-.05-.12-.18.06-.01.02-.16.1-.1.04-.3-.26-.53-.17-.92-.14-.05-.1-.25-.2-.3.05-.02-.07-.37.1-.2.01.02.02.05,0,.05l.08.01c.1-.23-.15-.36-.18-.57-.01.07.01.14-.05.1l-.03-.2.07.03-.02-.3-.07.05c.01-.15.13-.22-.01-.36-.07-.06-.07.15-.13.01a4.444,4.444,0,0,0,0-.73c-.08.04-.1-.02-.12-.1l.07-.02c-.15-.23.14-.13.01-.36l-.1-.02c-.2-.2.13-.15-.12-.36.03.1-.15.08-.15-.05h.08c-.03-.06-.06-.08-.06-.13.05.03.1,0,.07-.1l.1.05-.17-.16c.04-.16-.1-.37-.01-.45,0,0-.02-.32-.14-.37.08.05.07-.13.16-.1-.1-.06-.2-.3-.14-.4l.01.02c.01-.37-.24-.58-.2-.9-.08.03-.07-.14-.17-.08-.18-.3.1-.64-.27-.7-.05-.14.04-.2.04-.27l.03.03a2.53,2.53,0,0,1-.14-.56c-.05-.1-.2-.08-.2-.27.07.05.05-.03.03-.1.02.04.04.05.07-.05a.218.218,0,0,1-.05-.04l.01-.01c-.05-.1-.06-.1-.06-.03q-.015,0-.03.03c.05-.14-.08-.33.03-.37-.1-.34-.26-.57-.36-.84.05-.04.1.01.15.1l-.06-.2c.08-.01.07.1.1.17.08-.27-.23-.47-.18-.8l-.07-.05.01-.02c-.03.01-.1-.05-.1-.1.06-.05.16-.03.12-.17.04-.13-.1-.3-.17-.45.01.08-.04.06-.07.04-.02-.07.04-.13,0-.17l.1-.03c-.08.05-.13-.16-.18-.18.06-.05.08.1.14.1-.07-.28-.03-.14-.1-.42-.1-.14-.08.05-.18-.01a.812.812,0,0,1-.12-.4l-.07.07a.8.8,0,0,1-.1-.58c-1.06-1.73-1-.2-1-.2-.03.77.3,1.1.54,1.96a10.1,10.1,0,0,0,.24,1.8c.07.38.2.78.3,1.15.16.15.1.5.25.67l-.05.1a.231.231,0,0,1,.07.22h-.02c.08.1.07.22.1.27H91.2l.04.13h-.03a1.26,1.26,0,0,1,.15.54l.08-.03c-.02.38.2.48.14.83h-.02c.3.37-.01.7.3,1.07-.04-.05-.04.03-.06.03.07.2.12.4.3.37.03.14-.03.13-.1.16.07-.02.13.1.16.2l-.04-.05.1.32.12-.1c0,.18-.16.08-.1.24l.1-.03c.03.24-.12.42-.15.66a18.011,18.011,0,0,1,.64,2.84l-.08.06c-.12.04.24.2.13.26l.08.1c-.02.03-.03.1-.07.05.02.1.04.1.1.15l-.06.12a10.692,10.692,0,0,0,.3,1.07,5.055,5.055,0,0,0,.47,1.86c.34.68.02,1.63.4,2.32-.01.03.04.08.05.08l.13.68q.085.392.19.78a16.794,16.794,0,0,1-2.4.43l-.2-.06c-.06-.08-.58.1-.94.18a3.41,3.41,0,0,0-.4-1.56,3.588,3.588,0,0,0-.42-.58l-.32-.36q-.312-.359-.61-.73a16.584,16.584,0,0,1-2.14-3.37,27.352,27.352,0,0,1-1.8-6.4,20.883,20.883,0,0,1-.17-3.68,13.96,13.96,0,0,1,.42-3.14,8.96,8.96,0,0,1,1.76-3.53,18.4,18.4,0,0,1,3.18-2.84,5.775,5.775,0,0,0,1-.93,3.139,3.139,0,0,0,.24-.42c.7-.25.47.05,1.5-.4-.46.13-.26-.1.32-.22l-.13.1a6.084,6.084,0,0,1,.62-.2c-.18.08-.07.13.4,0l-.3.16.85-.35a10.767,10.767,0,0,0,1.17-.26c.4-.1.37-1.33.37-1.33a.686.686,0,0,1-.17.05c-.1.04-.22.08-.35.12.24-.1-.12-.02-.1-.04-.92.25-1.9.5-1.88.68-.68.17-.56.08-.67.04a3.164,3.164,0,0,1-1.08.38l.24-.1-.5.14c0-.03.01-.06.01-.1a2.032,2.032,0,0,0-.83-1.64,2.14,2.14,0,0,0-.41-.25l-.3-.15c-.18-.1-.36-.16-.53-.24a22.817,22.817,0,0,0-4.23-1.36,2.08,2.08,0,0,0-.65-.12c-1.67-.47-3.36-.86-5.06-1.2,0,0-1.55-.3-3.6-.57a47.339,47.339,0,0,0-6.6-.4,2.62,2.62,0,0,0-1.61.67,2.7,2.7,0,0,0-.72,1c-.23.64-.13.93.01.8.1-.07.26-.4.6-.72a2.4,2.4,0,0,0-.36.78l-.66,3.67c.72-9.27-1.28-.13-1.28-.13-1.3,5.44-1.4,8.34-2.46,14.9-1.1,5.73-1.64,7.2-2.6,13.18L59.05,356c-.03,1.36-.65,3.65-.76,5.24l-.23.58a7.274,7.274,0,0,1-.27,1.7l-.03-.04c-.05.82-.27,1.7-.3,2.12l-.03-.04-.16.98-.02-.18a40.24,40.24,0,0,1-.68,4.12l.16-.08c-.32,1.34-.46,2.28-.6,3.18-.06.45-.13.9-.22,1.37l-.15.76c-.03.14-.06.28-.1.43a3.32,3.32,0,0,0-.07.65l-.04-.05a2.883,2.883,0,0,0,1.95,2.47,5.9,5.9,0,0,0,.64.14l.46.1.96.18a13.968,13.968,0,0,0,4.28.2c-.42.05.18.07.15.1,1.56-.06,3.25-.4,3.2-.7l.97-.2c.15-.02.15.03.26.04.01-.1.9-.73,1.52-1.35l-.28.3a23.113,23.113,0,0,0,1.76-1.82l-.5.2c.94-.92.44-.05,1.23-1.03l-.16-.1c1.2-1.35,2.08-2,3.26-3.3,4.44-5.75,8.27-12.5,12.2-17.92l.28-.17c.25.01.74-1.73,1.04-1.83l.34-.7c.15-.16.43-.53.27-.18a5.229,5.229,0,0,0,.6-1.12,2.166,2.166,0,0,0,.3-.4,3.374,3.374,0,0,0,.25-.46c.02-.06.02-.12.04-.17a1.9,1.9,0,0,1,.4-.03c-.03.07.77-.04.42.06a33.2,33.2,0,0,0,4.47-.93,2.662,2.662,0,0,1,.34-.17l.17-.07.22-.06a3.045,3.045,0,0,0,.7-.24c.06.04,1.72-.42.8-.07-.08.03-.23.06-.22.04l-.1.1a18.847,18.847,0,0,0,2.7-.73c-.3.05-.67.15-.43.04l.9-.2-.17.1,1.34-.3-.2-.03a5.937,5.937,0,0,0,1.63-.34c.32-.14-.64.05.04-.14l2.75-.54a1.108,1.108,0,0,1,.34.52c-.13.03.4.7.1.46.78,1.33,2.67,1.7,4.37,1.4.25-.28.98-.34,1.16-.55.06.08,1.4-.35.67.04-.06.03-.18.06-.18.03l-.06.14c.85.02,1.4-.5,2.2-.67-.24.02-.55.1-.36-.02l.6-.15c.01.03.02.05.03.08l-.03.03.03-.01c.07.2.14.4.2.6q.156.4.33.8a8.8,8.8,0,0,0,.87,1.46,12.857,12.857,0,0,0,4.78,3.9c3.6,1.77,7.68,2.36,12.64,2-1.24.08.54.06.44.08,4.6-.3,9.34-1.43,9.33-1.72,3.2-.72,2.63-.52,3.07-.5a53.651,53.651,0,0,1,5.17-1.57l-1.12.37,7.03-2.1-1.44.2c3.73-1.08,1.03,0,4.57-1.18l-.1-.17c2.56-.82,4.62-1.38,6.64-2,2.03-.6,4.04-1.17,6.5-2a295.045,295.045,0,0,0,30.45-12.9c4.93-2.5,9.8-5.04,14.35-7.9,4.55-2.83,8.9-5.75,12.95-8.8l.8-.43c.48-.04,4.1-3.82,4.77-4.24.56-.56,1.12-1.1,1.64-1.7.07-.06.16-.14.24-.22l4.6,7.5v.04l1.4,2.3,1.6,2.7a23.445,23.445,0,0,1,1.35,2.7l.2.82c-.03.2.54,1.37,1,2.64a12.5,12.5,0,0,1,.83,3c.18.72.35,1.44.5,2.18.07.62.2,1.95,0,.85l.5,3.6c.03.74.04,1.5.05,2.24.48,8.2.4,15.27.9,24.03a79.831,79.831,0,0,0,.85,9.38,30.177,30.177,0,0,0,3.56,10.9,25.073,25.073,0,0,0,3.8,4.6,14.775,14.775,0,0,0,5.02,3.1,17.517,17.517,0,0,0,5.38.96,28.649,28.649,0,0,0,2.98-.12,21.251,21.251,0,0,0,.93,3l.7,1.74.43,1.1a4.357,4.357,0,0,0,3.45,2.43,3.891,3.891,0,0,0,1.1-.06l.75-.12a32.747,32.747,0,0,0,3.47-.76c1.48-.32,3.03-.74,4.46-1.1.63-.36,1.9-.44,2.65-.8l.34.04a2.22,2.22,0,0,1,.88-.24v.04c.4-.18.88-.24,1.07-.33l-.01.04.5-.13-.08.07a11.634,11.634,0,0,1,2.12-.55l-.1-.13c1.44-.17,1.9-.58,3.2-.7v.04c1.52-.74,2.6-.33,4.17-1.07-.2.1.1.05.1.1.75-.22,1.56-.43,1.5-.7.56-.12.47-.02.57.07-.03-.12.44-.28.87-.4l-.2.1c.4-.12.7-.17,1.2-.34l.1,1.15c.45,2.22,1,4.5,1.53,6.77l.1.5q-.189-.05-.38-.09l.01-.03a1.3,1.3,0,0,0-.85.22c-.07-.16-.3.04-.4,0v-.02c-.2.17-.5-.02-.68.14.01-.02,0-.06.05-.08-.15.05-.37.13-.4.04a3.34,3.34,0,0,0-1.13.36l.01-.03c-.12.13-.18.05-.32.13h-.02c-.13.13-.44.1-.55.17l-.02-.06-.3.07.12-.01c0,.2-.25-.07-.45.1-.2.02-.34.46-.57.4-.08.1.06-.15-.08-.06-.02-.1.06-.07.01-.14-.14.07-.26-.05-.43.05l-.02-.07c-.2.18-.47-.01-.6.15-.23.1-.2-.2-.44.01l-.12-.08c-.1.01-.06.14-.2.1,0-.06-.16-.02-.1-.1-.3-.04-.53.25-.93.15-.06.14-.25.1-.3.2-.02-.05-.37.06-.2-.1.02-.01.05-.02.05,0l.01-.08c-.23-.1-.36.15-.57.17.07.01.15-.01.1.05l-.2.03.03-.07h-.3l.05.07c-.15-.01-.22-.13-.36.01-.06.07.15.08.01.13a3.521,3.521,0,0,0-.73-.01c.04.08-.03.1-.1.12l-.02-.07c-.23.15-.12-.14-.36-.01l-.02.1c-.2.2-.15-.13-.36.12.1-.03.08.15-.05.14l.02-.08c-.06.03-.08.06-.13.06.03-.05,0-.1-.1-.08l.05-.1-.16.17c-.16-.05-.37.1-.45,0,0,0-.32.01-.37.13.05-.08-.13-.07-.1-.16-.07.1-.3.2-.4.14h.02c-.37-.02-.58.23-.92.2.03.08-.15.07-.08.17-.3.17-.64-.1-.7.25-.15.05-.2-.04-.27-.05l.03-.02a3.117,3.117,0,0,1-.56.13c-.1.05-.08.2-.28.2.05-.07-.03-.05-.1-.03.04-.02.05-.04-.05-.07a.218.218,0,0,1-.04.05l-.01-.01c-.1.04-.1.06-.03.06,0,.01.01.02.03.04-.14-.06-.33.07-.37-.03-.34.1-.57.25-.85.35-.04-.05.02-.1.1-.15l-.2.06c-.01-.08.1-.07.17-.1-.27-.08-.48.23-.8.16l-.05.07v-.01c.01.03-.05.1-.1.1-.05-.06-.03-.16-.17-.13-.12-.04-.3.1-.45.16.08,0,.06.04.03.07-.07.02-.12-.04-.17,0l-.02-.1c.04.08-.17.13-.2.17-.05-.06.1-.08.1-.14-.28.06-.14.03-.42.1-.14.1.04.08-.01.18-.13.04-.25.13-.4.1l.06.07a.832.832,0,0,1-.58.08c-1.74,1.03-.22,1-.22,1,.77.04,1.1-.27,1.97-.5a10.019,10.019,0,0,0,1.8-.2c.38-.06.78-.18,1.15-.27.15-.16.5-.1.68-.24l.1.05a.257.257,0,0,1,.23-.07h0c.1-.07.23-.07.27-.1v.02l.13-.03-.02.03a1.4,1.4,0,0,1,.55-.14l-.03-.08c.38.02.48-.18.83-.13v.02c.37-.3.7.03,1.08-.27-.05.04.03.04.03.06.2-.06.4-.12.37-.3.14-.03.13.03.16.1-.02-.07.1-.13.22-.15l-.05.04.32-.1-.1-.13c.18.01.08.16.23.1l-.02-.1c.24-.02.4.12.66.16a17.9,17.9,0,0,1,2.85-.6l.06.08c.04.12.2-.23.26-.12l.1-.08c.03.02.1.03.05.07.1-.01.1-.03.16-.1l.12.06c.4-.01.68-.23,1.08-.27a4.905,4.905,0,0,0,1.87-.44c.7-.33,1.63.01,2.33-.35.03.01.08-.04.08-.05l.68-.1a8.335,8.335,0,0,0,1.15-.3q.057.233.1.47l-.18.3c-.15.27-.33.54-.5.8a18.083,18.083,0,0,1-2.5,3.1,26.287,26.287,0,0,1-5.5,3.73,19.663,19.663,0,0,1-3.44,1.33,13.852,13.852,0,0,1-3.11.6,8.949,8.949,0,0,1-3.9-.54,18.664,18.664,0,0,1-3.7-2.1,5.186,5.186,0,0,0-1.2-.64,2.476,2.476,0,0,0-.84-.12,2.8,2.8,0,0,0-.93.16c-.07.03-.14.07-.2.1-.03-.08-.07-.17-.1-.24-.4-1.12-.7-1.9-.8-1.67a7.17,7.17,0,0,0,.3,2.33,1.83,1.83,0,0,0-.48.8,1.786,1.786,0,0,0-.1.47l-.05.33c-.03.2-.04.4-.06.58a21.841,21.841,0,0,0,.06,4.44,2.11,2.11,0,0,0,.1.66c.1,1.73.25,3.46.47,5.18,0,0,.2,1.56.6,3.6a46.431,46.431,0,0,0,1.72,6.38,2.616,2.616,0,0,0,1.15,1.32,2.78,2.78,0,0,0,1.2.36c.68.02.92-.17.74-.26-.1-.08-.45-.12-.88-.35a2.534,2.534,0,0,0,.86.1l3.68-.55c-9,2.27.28,1.25.28,1.25,5.56-.5,8.35-1.33,14.9-2.4,5.78-.78,7.35-.74,13.32-1.74,2.86-.4,5.9-.9,8.68-1.36,1.3-.4,3.66-.54,5.2-.95l.62.03a9.044,9.044,0,0,1,1.7-.3l-.03.04c.8-.2,1.7-.3,2.1-.4l-.03.04.98-.16-.16.07c1.4-.3,2.84-.52,4.12-.67l-.13-.13a29.243,29.243,0,0,0,3.2-.46l1.37-.23.76-.1q.221-.018.44-.05a4.108,4.108,0,0,0,.64-.14l-.04.05a2.886,2.886,0,0,0,1.72-2.64,1.872,1.872,0,0,0-.04-.58Zm-44.64-30.82v-.1a1.433,1.433,0,0,1-.03.29.589.589,0,0,1-.36.16.617.617,0,0,1-.24-.01c-.14-.02-.3-.03-.74.25.38-.1.24.23-.24.28l.1-.14a2.948,2.948,0,0,1-.5.17c.14-.1.04-.2-.33-.08l.22-.2-.67.38c-.6,0-1.43.37-1.7.25a4.635,4.635,0,0,0-1.45.44c.2-.17-.46-.06-.3-.23a3.2,3.2,0,0,1-1.57.46l.07-.03c-1.4.18-2.28.73-3.54.84.1.13-.57.2-.37.34-1.22.47-2.4.17-2.7.83a3.2,3.2,0,0,1-1,.07l.13-.06c-1.06.3-1.37.37-2.17.54-.4.15-.4.42-1.1.52.2-.16-.08-.07-.35-.01.17-.06.2-.1-.16-.1a.387.387,0,0,1-.18.1c0-.01-.02-.01-.02-.02-.44.14-.35.15-.14.12-.01.02.02.03.1.05-.5-.03-1.3.3-1.4.14-1.33.35-2.24.75-3.34,1.08-.15-.06.1-.2.4-.3l-.78.22c-.03-.13.44-.18.67-.26-1,.01-1.9.66-3.04.72l-.2.16h-.07c.02.05-.22.2-.34.23-.15-.1-.04-.25-.44-.22a5.456,5.456,0,0,1-1.3-.34c.18.16.1.17-.03.14-.2-.13-.2-.3-.34-.4l.1-.12c-.08.18-.45-.36-.52-.43.06-.15.23.27.34.26a6.361,6.361,0,0,1-.53-1.4c-.3-.54-.1.15-.33-.1a6.592,6.592,0,0,1-.54-1.57l-.08.22a6.849,6.849,0,0,1-.63-2.17l-.3-.62.24-.03a207.409,207.409,0,0,0,24.73-5.97l6.25-1.87c.13-.04.25-.07.37-.1.03.3.27,1.2-.05.56-.03-.06-.06-.18-.02-.18l-.14-.07c-.04.85.46,1.42.6,2.2-.02-.24-.1-.55.03-.36l.16.74-.14-.13.2,1.1.1-.18c.06.55-.1.78.2,1.35.16.25.05-.54.22.01l.07.6a3.951,3.951,0,0,1,.05.6,1.637,1.637,0,0,1-.23.8c.15.01.1.15.02.3l-.1-.06c-.1.27-.2.24-.28.22-.06-.02-.12-.06-.3.1Zm.37,1.7.2-.04c0,.04.01.08.01.1a1.864,1.864,0,0,1-.22-.07Zm3.13,8.44c.03.08.06.23.03.22l.04.04a.391.391,0,0,1-.1.08c-.08-.43-.2-.96.02-.34Zm-27.76,3.7-.2-1.04-.86.3c2.4,7.16,1.07.74,1.07.74Z"/>
    <path id="Path_13768" data-name="Path 13768" d="M93.2,336.06h0l.05.01Z"/>
    <g id="Group_1027" data-name="Group 1027">
      <path id="Path_13769" data-name="Path 13769" d="M297.88,432.53l-.3-.04c.95-.08,1.74-.27,2.56-.4.43-.15-.67,0,.25-.2l2.6-.4c-.1.07-1.02.2-.77.23.16-.06,1.46-.26,1.28-.33l.06.1c.33-.08.6-.05,1.03-.12.2-.06.36-.12-.13-.06l2.84-.5c.87-.13.62,0,.88.03.26-.05.65-.15.64-.2l.1-.01.35-.12c1.77-.14,3.33-.64,4.84-.73a4.3,4.3,0,0,0-1.1.23l1.26-.2c-.5.1-.92.2-.7.23l5.4-1c.1.1,1.4-.2,2.15-.22-.1,0-.13-.01-.12-.02-.33.04-.46.04.25-.1-.01.01.01.01.02.01l.3-.1c.56-.04.48-.01.2.04.42-.06.9-.14.53-.03a10.037,10.037,0,0,0,1.85-.43l3.47-.54-.2.05a12.48,12.48,0,0,0,1.57-.13c.67-.45,2.37-.36,4.36-.77-.27-.07.76-.18.66-.25,1.95-.2,3.46-.62,5.63-.85l-.1.03a13.887,13.887,0,0,0,2.53-.44c-.3.12.77-.01.4.12a17.192,17.192,0,0,1,2.33-.4c.38.05,1.77-.26,2.67-.3l1.13-.3-.4.15c.6-.1.73-.05.5.02.27-.03.42-.08.8-.15a.847.847,0,0,1-.17.1c.68-.08.73-.38.35-.2a3.391,3.391,0,0,0,.63-.48c.08-.08.24-.18.2-.65a.777.777,0,0,0-.2-.24l.07.07a.3.3,0,0,1-.02-.1l-.01-.07c-.26-1.16.1-.5-.3-1.82l.07-.04c-.03-.06-.04-.13-.07-.13a.217.217,0,0,0-.06.07l-3.72.35c-.9.15.35.02-.08.14a10.164,10.164,0,0,1-2.12.23l.25.04-1.75.2.23-.1-1.17.15c-.33.1.17.02.55-.01-1.26.15-2.27.5-3.56.54l.14-.1a.74.74,0,0,0,.3-.03c1.24-.3-.94.06-1,.01-.35.14-1.48.22-1.95.4-2.25.14-3.96.6-5.67.74.43-.12-.56.03-.52-.04-.75.05-.54.17-1.22.24l-.63-.02c-1.56.36-1.1.01-2.6.28-.96.26-2.3.2-3.74.54l-.06-.07c-1.12.22-1.72.15-2.63.32-.25-.04.22-.07.18-.16-.92.2.22-.2-.4-.02-1.32.1-2.55.66-3.8.8-1.33.3-2.52.16-2.74.38l.7-.08-1.85.3-.06-.06-3.45.53c.01-.01-.06,0-.1-.01-.95.18-1.2.13-2.05.35l.1-.04c-1.47.36-4.74.76-7.07,1.1a12.286,12.286,0,0,0-2.4.28.759.759,0,0,0,.38-.12c-1.33.3-2.83.26-4.2.58h.05a13.878,13.878,0,0,1-2.42.25l-2.37.43-.65.1-.34.04h-.13c-.27-.02-.2.1-.13.5l-.05-.1.38,2.48a1.9,1.9,0,0,0,.86,1.27,4.757,4.757,0,0,0,.76.4,2.213,2.213,0,0,0,.67.05l3.02-.45,2.48-.54a26.727,26.727,0,0,0,3.5-.48Z" fill="#fff"/>
      <path id="Path_13770" data-name="Path 13770" d="M296.1,425.25c-.2-.53-.1-.74-.43-1.24-.12-.26-.3-.5-.44-.74-.18-.05-.18-.32-.35-.4l.03-.1a.148.148,0,0,1-.1-.13v-.01c-.1-.04-.1-.13-.15-.15h.02l-.06-.08h.03a.967.967,0,0,1-.26-.32l-.07.06c-.07-.28-.27-.26-.32-.52l.02-.01c-.36-.1-.17-.5-.55-.6.05.01.02-.04.04-.05-.1-.1-.22-.2-.36-.1-.07-.08-.02-.1.02-.15-.06.05-.14,0-.2-.06l.05.01-.18-.16-.07.13c-.06-.12.1-.14-.01-.2l-.08.08c-.1-.14-.07-.33-.14-.52-.53-.55-1.35-.7-1.85-1.17v-.1c.04-.12-.25.1-.22-.03h-.1c-.01-.03-.04-.07,0-.08-.06-.04-.07-.02-.14,0l-.04-.1c-.24-.16-.52-.12-.8-.23a2.319,2.319,0,0,0-1.36-.3c-.55.07-1.08-.54-1.66-.4-.02-.02-.07.02-.07.03l-.5-.07c-.01-.04-2.4-.15-.64.97v.03a.632.632,0,0,0,.6-.02c.01.17.2.04.26.1l-.01.01c.17-.12.3.15.47.05-.01.01-.02.06-.05.06.1-.01.27-.02.26.08.26.02.6.12.8,0l-.02.02c.12-.1.12.01.24-.02,0,.01.01.02.01.03.13-.08.3.05.4.03l-.01.07.2.04-.07-.03c.07-.17.12.15.3.08.13.06.38-.28.5-.15.1-.06-.1.1.02.08-.03.1-.07.04-.06.12.1-.01.13.14.27.12l-.02.07c.2-.07.25.2.4.12.18.01.02.24.24.18v.12c.06.05.1-.1.15-.01-.03.06.07.1,0,.12.12.17.4.03.53.3.1-.08.17.04.26-.02-.02.05.2.13.03.16-.02,0-.03-.01-.02-.03l-.05.05c.05.18.24.07.34.16-.02-.04-.06-.07-.01-.1l.1.08-.06.04.13.14.03-.08c.05.1,0,.2.14.18.07-.02,0-.14.1-.1a1.98,1.98,0,0,0,.23.4c.05-.07.08-.04.12-.03l-.05.06c.2.03-.07.16.1.22l-.05.03.14-.08c.2.01-.06.16.2.15-.05-.04.1-.13.13-.05l-.07.03c.04.02.08.01.08.05-.05.01-.1.06-.03.1l-.1.03.18.01c0,.13.18.18.12.28,0,0,.1.2.2.16-.08.01-.03.12-.12.14.1,0,.24.1.2.2h-.01c.07.24.33.26.37.5.07-.06.1.06.17-.02.22.13.03.46.36.35.07.08,0,.15.01.2l-.03-.01a1.109,1.109,0,0,1,.22.33c.06.05.2-.02.24.1-.08-.01-.04.03-.02.08-.02-.02-.05-.02-.05.06a.075.075,0,0,1,.05.01v.01c.06.06.07.04.06,0q.015,0,.03-.03c-.03.1.1.2.02.26.13.2.32.3.44.47-.04.05-.1.02-.15-.02l.08.12c-.07.03-.08-.05-.1-.1-.04.2.28.26.25.5l.08.01v.02c.03-.01.1.01.1.03-.05.06-.15.07-.1.15-.03.1.12.2.2.27-.01-.06.03-.05.06-.04.02.04-.03.1.01.12l-.08.04c.07-.05.14.08.18.08-.05.05-.1-.05-.14-.04l.13.27c.1.07.08-.05.17-.04.05.08.15.14.14.26l.07-.06a.376.376,0,0,1,.12.4c.55.5.8.52.9.37a.8.8,0,0,0,.07-.43c-.01-.6-.34-.76-.65-1.32Zm19.8-20.72c-.16.3-.34.3-.4.65a2.543,2.543,0,0,0-.14.47c.1.12-.08.2-.01.32l-.08.01c.02.04.03.08-.02.1l-.02-.01c.03.06-.02.1,0,.13h-.02v.03a.253.253,0,0,1-.05.23l.08.03c-.15.1,0,.23-.16.3l-.02-.01c.15.25-.25.2-.12.45-.02-.03-.05-.01-.06-.02-.01.1-.03.17.13.24-.02.06-.07.03-.13.01a.113.113,0,0,1,.07.13l-.02-.03-.03.14.14.03c-.06.05-.17-.05-.16.03l.1.04c-.06.08-.25.07-.36.13-.2.36-.08.87-.4,1.14l-.1-.02c-.12-.04.14.17.02.14l.04.06c-.03,0-.06.02-.08-.01-.02.04,0,.04.02.1l-.1.01c-.12.12-.02.3-.12.45-.23.13-.23.53-.23.77.06.36-.54.5-.46.87-.02,0,.01.04.02.05l-.12.26s-.57,1.27.82.7l.02.02c.12-.12.17-.2.08-.36.17.05.06-.1.13-.13l.01.01c-.1-.14.18-.14.1-.27.01.01.05.03.05.05,0-.07,0-.17.1-.14.04-.16.16-.35.05-.5l.02.02c-.08-.1.01-.08-.01-.16h.03c-.08-.1.05-.18.03-.24l.06.02.03-.12-.03.04c-.16-.08.14-.05.07-.18.05-.07-.3-.3-.17-.36-.06-.07.12.1.08,0,.1.03.04.05.12.06-.02-.08.13-.06.1-.16l.07.02c-.1-.14.16-.14.07-.25-.02-.12.23.02.14-.14h.1c.03-.04-.1-.08-.04-.1.06.03.07-.04.12.01.14-.07-.04-.27.17-.35-.1-.08-.01-.12-.08-.18.05.02.07-.14.14-.02.01.01,0,.02-.02.01l.06.04c.16-.03-.01-.18.04-.25-.03.01-.04.05-.08.01l.04-.07.05.04.08-.1-.08-.01c.06-.04.2-.01.1-.1-.04-.05-.12.01-.12-.05a.751.751,0,0,0,.25-.22c-.08-.02-.07-.05-.08-.08l.07.02c-.06-.14.17.03.13-.1l.04.03-.13-.08c-.1-.14.16.01.02-.16,0,.04-.16-.04-.1-.08l.06.04c0-.03-.03-.05-.01-.06.03.03.1.05.1,0l.07.06-.1-.12c.1-.03.04-.15.14-.14,0,0,.1-.1,0-.17.05.05.1-.01.17.04-.06-.06-.08-.18.01-.18l.01.01c.13-.1-.01-.28.13-.37-.08-.03-.01-.07-.12-.1-.05-.17.3-.15,0-.32.01-.07.1-.04.13-.06l.01.02a.625.625,0,0,1,.07-.23c-.01-.05-.16-.12-.1-.18.05.05.05.01.06-.01,0,.02.02.04.08.02-.02-.01-.02-.02-.03-.04h.01c0-.05-.02-.05-.04-.04s-.02-.01-.04-.01c.1-.02.05-.13.15-.1a1.587,1.587,0,0,0-.03-.4.107.107,0,0,1,.1.1l.01-.1c.07.03.02.06.03.1.16-.05-.04-.25.12-.3l-.05-.05h.01a.139.139,0,0,1-.07-.08c.07.01.15.06.17,0,.08-.02.02-.14.01-.2-.02.03-.06,0-.07-.02.01-.03.08-.02.06-.05l.1.03c-.1-.02-.06-.1-.1-.13.07.01.04.07.08.1l.06-.17c-.04-.1-.1-.02-.15-.08,0-.06-.04-.14.04-.17l-.1-.01c-.02-.12.01-.18.12-.2-.34-1-.8-.5-.8-.5-.26.2-.1.45-.18.82Zm6.9,1.7c-.16.3-.34.3-.4.65a2.543,2.543,0,0,0-.14.47c.1.12-.08.2-.01.32l-.08.01c.02.04.03.08-.02.1l-.02-.01c.03.06-.02.1,0,.13v-.01l-.01.05-.02-.02a.253.253,0,0,1-.05.23l.08.03c-.15.1,0,.23-.16.3l-.02-.01c.15.25-.25.2-.12.45-.02-.03-.05-.01-.06-.02-.01.1-.03.17.13.24-.02.06-.07.03-.13.01a.113.113,0,0,1,.07.13l-.02-.03-.03.14.14.03c-.06.05-.17-.05-.16.03l.1.04c-.06.08-.25.07-.36.13-.2.36-.08.87-.4,1.14l-.1-.02c-.12-.04.14.17.02.14l.04.06c-.03,0-.06.02-.08-.01-.02.04,0,.04.02.1l-.1.01c-.12.12-.02.3-.12.45-.23.13-.23.53-.23.77.06.36-.54.5-.46.87-.02,0,.01.04.02.05l-.12.26s-.57,1.27.82.7l.02.02c.12-.12.17-.2.08-.36.17.05.06-.1.13-.13l.01.01c-.1-.14.18-.14.1-.27.01.01.05.03.05.05,0-.07,0-.17.1-.14.04-.16.16-.35.05-.5h.02c-.08-.1.01-.08-.01-.16h.03c-.08-.1.05-.18.03-.24l.06.02.03-.12-.03.04c-.16-.08.14-.05.07-.18.05-.07-.3-.3-.17-.36-.06-.07.12.1.08,0,.1.03.04.05.12.06-.02-.08.13-.06.1-.16l.07.02c-.1-.14.16-.14.07-.25-.02-.12.23.02.14-.14h.1c.03-.04-.1-.08-.04-.1.06.03.07-.04.12.01.14-.07-.04-.27.17-.35-.1-.08-.01-.12-.08-.18.05.02.07-.14.14-.02.01.01,0,.02-.02.01l.06.04c.16-.03-.01-.18.04-.25-.03.01-.04.05-.08.01l.04-.07.05.04.08-.1-.08-.01c.06-.04.2-.01.1-.1-.04-.05-.12.01-.12-.05a.751.751,0,0,0,.25-.22c-.08-.02-.07-.05-.08-.08l.07.02c-.06-.14.17.03.13-.1l.04.03-.13-.08c-.1-.14.16.01.02-.16,0,.04-.16-.04-.1-.08l.06.04c0-.03-.03-.05-.01-.06.03.03.1.05.1,0l.07.06-.1-.12c.1-.03.04-.15.14-.14,0,0,.1-.1,0-.17.05.05.1-.01.17.04-.06-.06-.08-.18.01-.18h.01c.13-.1-.01-.28.13-.37-.08-.03-.01-.07-.12-.1-.05-.17.3-.15,0-.32.01-.07.1-.04.13-.06l.01.02a.625.625,0,0,1,.07-.23c-.01-.05-.16-.12-.1-.18.05.05.05.01.06-.01,0,.02.02.04.08.02-.02-.01-.02-.02-.03-.04h.01c0-.05-.02-.05-.04-.04s-.02-.01-.04-.01c.1-.02.05-.13.15-.1a1.587,1.587,0,0,0-.03-.4.107.107,0,0,1,.1.1v-.1c.07.03.02.06.03.1.16-.05-.04-.25.12-.3l-.05-.05h.01a.139.139,0,0,1-.07-.08c.07.01.15.06.17,0,.08-.02.02-.14.01-.2-.02.03-.06,0-.07-.02.01-.03.08-.02.06-.05l.1.03c-.1-.02-.06-.1-.1-.13.07.01.04.07.08.1l.06-.17c-.04-.1-.1-.02-.15-.08,0-.06-.04-.14.04-.17l-.1-.01c-.02-.12.01-.18.12-.2-.34-1-.8-.5-.8-.5-.27.2-.1.45-.18.82ZM66.6,321.5a26.773,26.773,0,0,0-.65,3.48l.14-.28c-.22.93-.3,1.74-.43,2.56,0,.46.22-.63.12.3l-.45,2.6c-.03-.12.14-1.03.03-.8.01.17-.22,1.47-.1,1.3l-.1.02c-.03.34-.14.58-.22,1-.01.2,0,.38.1-.1l-.44,2.85c-.15.87-.2.6-.3.82a2.293,2.293,0,0,0-.03.66l-.03.1v.37c-.43,1.73-.46,3.36-.85,4.83a6.4,6.4,0,0,0,.14-1.12l-.2,1.26c.07-.52.1-.94,0-.75l-.8,5.44c-.12.07-.27,1.4-.48,2.1.04-.1.05-.12.06-.1.07-.33.1-.45,0,.26,0-.01-.01.01-.02.01a1.764,1.764,0,0,0-.01.32c-.14.55-.15.46-.1.2-.08.42-.15.9-.14.5a10.2,10.2,0,0,0-.18,1.9l-.6,3.46.02-.22a12.255,12.255,0,0,0-.37,1.53c.2.78-.4,2.37-.66,4.38.15-.23-.07.78.03.7-.44,1.9-.52,3.47-.98,5.6v-.1a13.1,13.1,0,0,0-.4,2.54c-.03-.3-.24.73-.24.34a18.727,18.727,0,0,1-.35,2.34c-.16.34-.32,1.76-.55,2.63l-.07,1.17v-.42c-.1.6-.18.7-.18.46a6.669,6.669,0,0,0-.1.8.878.878,0,0,1-.04-.2c-.14.67.13.8.08.4a2.821,2.821,0,0,0,.25.74c.05.1.1.3.55.4a1.421,1.421,0,0,0,.29-.1l-.1.04c.03,0,.07.01.1.01l.07.01c1.2.12.43.26,1.82.3l.01.08c.07,0,.13,0,.14-.02a.116.116,0,0,0-.05-.07l.85-3.64c.15-.9-.13.33-.1-.12a10.274,10.274,0,0,1,.46-2.08l-.12.22.37-1.72v.25l.23-1.16c.01-.34-.07.15-.17.52.26-1.24.25-2.3.62-3.55l.04.16c-.02-.02-.06.17-.07.28-.12,1.27.25-.9.3-.96-.02-.38.26-1.47.23-1.98.6-2.18.68-3.95,1.1-5.6-.02.45.15-.54.2-.48.2-.73.02-.57.16-1.23l.22-.6c.16-1.6.34-1.04.57-2.56.06-1,.54-2.24.68-3.72l.08-.03c.15-1.13.4-1.68.53-2.6.12-.22,0,.23.1.22.1-.93.1.27.14-.36.34-1.28.18-2.63.44-3.87.14-1.35.65-2.44.52-2.72l-.15.68.34-1.84.07-.04.6-3.44c0,.01.02-.05.05-.1.13-.96.27-1.2.32-2.05l.01.1c.13-1.5.8-4.74,1.2-7.05a14.9,14.9,0,0,0,.5-2.36.8.8,0,0,0-.01.4c.14-1.35.66-2.77.8-4.17v.05a14.372,14.372,0,0,1,.53-2.37l.35-2.38.12-.64.07-.34.03-.13c.1-.25-.02-.22-.43-.28h.1l-2.47-.43a1.967,1.967,0,0,0-1.48.4,2.425,2.425,0,0,0-.6.6,2.6,2.6,0,0,0-.26.6l-.54,3-.26,2.53Z" fill="#fff"/>
      <path id="Path_13771" data-name="Path 13771" d="M76.3,325.2v.02c.07-.07.16-.06.2-.1v.02l.1-.03v.03a.74.74,0,0,1,.39-.14l-.03-.08c.3.02.33-.17.6-.14h0c.22-.3.52,0,.75-.33-.03.04.03.04.04.06.13-.08.27-.14.2-.3.1-.04.1.01.14.07-.03-.07.04-.14.12-.17l-.02.04.2-.12-.1-.1c.13-.02.1.14.2.06l-.05-.1c.17-.06.34.04.54.03.7-.33,1.1-1.06,1.7-1.38l.08.04c.1.08-.01-.27.1-.2l.01-.1c.03,0,.08-.02.08.03.05-.05.04-.06.05-.13h.1c.23-.18.27-.45.47-.67.35-.18.6-.83.73-1.2.1-.54.85-.85.9-1.45.02-.01.01-.07-.01-.07l.22-.45c.04,0,.9-2.22-.72-.9l-.02-.02a.591.591,0,0,0-.18.57c-.17-.04-.1.18-.18.22h0c.06.2-.24.24-.2.43-.01-.01-.05-.04-.04-.07-.03.1-.06.26-.16.22-.1.24-.3.54-.26.76l-.02-.02c.04.14-.05.1-.06.23h-.03c.04.15-.14.27-.15.36l-.06-.03-.1.18.05-.06c.14.12-.18.07-.17.26-.1.1.14.45-.02.52.03.1-.07-.13-.08-.01-.08-.05-.02-.08-.1-.1-.03.1-.18.08-.2.22l-.06-.04c0,.2-.27.17-.24.34-.06.17-.24-.06-.24.17l-.12-.02c-.06.04.05.12-.04.15-.04-.05-.1.04-.12-.04-.2.06-.16.37-.46.4.04.13-.1.15-.07.25-.04-.04-.2.15-.16-.03,0-.02.02-.03.03-.01l-.03-.07c-.18-.01-.14.2-.26.27.05,0,.1-.04.1.02l-.1.06-.02-.07-.17.08.06.05c-.1.02-.2-.07-.22.08-.01.07.13.05.06.1a1.65,1.65,0,0,0-.47.1c.05.07.02.1-.01.12l-.04-.06c-.1.17-.12-.12-.24.02l-.01-.05.03.16c-.08.2-.14-.1-.2.15.06-.04.1.14.01.14v-.07c-.04.03-.04.07-.07.07.01-.05-.03-.1-.08-.06l.01-.1-.07.17c-.12-.04-.23.1-.3.03,0,0-.2.03-.22.15.02-.08-.1-.07-.1-.15-.03.1-.16.2-.25.14l.01-.01c-.25-.01-.36.23-.6.2.03.08-.1.07-.03.17-.2.17-.45-.12-.45.23-.1.04-.14-.05-.2-.06l.02-.02a1.341,1.341,0,0,1-.38.1c-.06.05-.04.2-.18.2.03-.07-.02-.05-.07-.04.03-.02.03-.04-.04-.07a.085.085,0,0,1-.03.05c-.07.02-.06.03-.02.04,0,.01.01.02.02.04-.1-.06-.23.04-.26-.06-.23.06-.4.2-.6.27-.03-.05.01-.1.07-.14l-.14.04c-.01-.08.08-.06.12-.08-.2-.1-.33.18-.55.08l-.03.07-.01-.01a.208.208,0,0,1-.06.1c-.04-.07-.02-.16-.1-.15-.08-.06-.22.06-.32.1.06.01.04.05.02.07-.05.01-.08-.06-.12-.03l-.01-.1c.03.1-.12.1-.14.15-.03-.07.07-.07.08-.12l-.3.04c-.1.08.03.1-.02.17-.1.02-.18.1-.3.05l.04.08a.379.379,0,0,1-.4-.01c-.65.36-.74.58-.64.74a.678.678,0,0,0,.38.2c.56.17.83-.1,1.46-.2a4.355,4.355,0,0,0,1.3-.01,4.86,4.86,0,0,0,.84-.19c.1-.15.36-.07.5-.2l.07.06c.05-.06.1-.1.16-.07Zm11.16,26.27c-.12-.34-.4-.26-.72-.46-.22-.24-.18-.42-.48-.6a2.455,2.455,0,0,0-.4-.3c-.14.05-.16-.13-.3-.1l.02-.08c-.05.01-.1,0-.1-.05v-.01c-.07.01-.1-.05-.12-.04v-.01l-.05-.03.03-.02a.243.243,0,0,1-.2-.13l-.05.07c-.05-.17-.2-.07-.25-.25v-.01c-.28.06-.1-.3-.4-.25.03-.01.02-.04.04-.06a.183.183,0,0,0-.27.05c-.04-.04,0-.07.03-.13a.1.1,0,0,1-.15.02l.04-.01L84,349l-.1.12c-.03-.08.1-.14.02-.16l-.08.1c-.06-.08.01-.26-.01-.38-.27-.3-.8-.35-.95-.75l.04-.08c.08-.1-.2.08-.14-.02l-.07.02c.01-.03,0-.06.04-.07-.03-.03-.04-.01-.1,0l.02-.1c-.08-.15-.28-.12-.4-.25-.05-.25-.43-.4-.65-.46-.36-.05-.3-.67-.68-.7,0-.02-.04-.01-.05,0l-.2-.2s-1.03-.94-.92.56l-.02.02c.08.15.14.23.3.2-.1.14.1.1.08.16h-.01c.16-.04.08.2.23.18-.01.01-.04.04-.06.03.07.03.16.06.1.14.14.08.28.27.46.2l-.02.02c.12-.04.07.04.15.04a.031.031,0,0,0-.01.02c.12-.04.15.1.22.1l-.04.05.1.07-.03-.04c.13-.13,0,.15.15.12.05.07.38-.18.4-.05.1-.04-.12.08-.03.07-.06.07-.06.03-.1.1.08.01.01.14.12.14l-.05.06c.17-.04.08.2.22.14.12.02-.1.2.1.17l-.03.1c.02.04.1-.07.1,0-.04.05.02.08-.05.1.02.15.27.05.28.27.1-.07.12.03.2-.02-.03.04.1.1-.03.14-.01,0-.02-.01-.01-.02l-.06.05c-.02.16.17.05.22.12,0-.04-.03-.05.02-.08l.05.06-.05.04.07.1.04-.07c.02.07-.05.18.07.14.06-.03.02-.1.1-.1a.741.741,0,0,0,.13.3c.05-.07.07-.05.1-.05l-.05.06c.15-.01-.08.15.06.16l.08-.07c.17-.05-.06.15.15.07-.04-.02.1-.14.1-.08l-.06.05c.03.01.06-.01.06.01-.04.02-.08.07-.04.1l-.08.05.15-.05c0,.1.13.1.1.18,0,0,.07.12.16.06-.06.04-.03.1-.1.15.08-.04.2-.02.17.07h-.01c.06.16.27.08.3.24.05-.07.07.01.13-.08.18.01.05.34.3.1.06.03,0,.1.02.14H84.6a.861.861,0,0,1,.2.14c.05,0,.16-.1.2-.03-.06.03-.03.04-.01.06-.02,0-.04.01-.04.07.02-.01.03-.02.04-.02.04.02.05,0,.04-.02.01-.01.01-.02.02-.04-.01.1.1.1.04.17a1.563,1.563,0,0,0,.4.1.113.113,0,0,1-.12.06l.08.04c-.05.06-.07,0-.1,0-.01.17.25.04.26.2l.06-.03a.128.128,0,0,1,.1-.04c-.03.06-.1.12-.06.16-.01.08.12.06.2.07-.02-.03.02-.05.04-.06.02.02-.01.08.03.07l-.06.07c.05-.08.12-.02.16-.04-.03.06-.07.02-.1.05l.15.1c.1-.01.05-.08.13-.12.06.02.14.01.15.1l.04-.08c.12.02.17.07.16.18,1.07,0,.75-.6.75-.6Z" fill="#fff"/>
      <path id="Path_13772" data-name="Path 13772" d="M83.3,349.9h0l-.04.03Zm-.35,7.1c-.22-.24-.18-.42-.48-.6a2.455,2.455,0,0,0-.4-.3c-.14.05-.16-.13-.3-.1l.02-.08c-.05.01-.1,0-.1-.05v-.01c-.07.01-.1-.05-.12-.04v-.01l-.05-.03.03-.02a.243.243,0,0,1-.2-.13l-.05.07c-.05-.17-.2-.07-.25-.25v-.01c-.28.06-.1-.3-.4-.25.04-.01.02-.04.04-.06a.183.183,0,0,0-.27.05c-.04-.04,0-.07.03-.13a.1.1,0,0,1-.15.02l.04-.01-.12-.07-.07.12c-.03-.08.1-.14.02-.16l-.08.1c-.06-.08.01-.26-.01-.38-.27-.3-.8-.35-.95-.75l.04-.08c.08-.1-.2.08-.14-.02l-.07.02c.01-.03,0-.06.04-.07-.03-.03-.04-.01-.1,0v-.1c-.08-.15-.28-.12-.4-.25-.05-.25-.43-.4-.65-.46-.36-.05-.3-.67-.68-.7,0-.02-.04-.01-.05,0l-.2-.2s-1.03-.94-.92.56v.02c.08.15.14.23.3.2-.1.14.1.1.08.16h-.01c.16-.04.08.2.23.18-.01.01-.04.04-.06.03.07.03.16.06.1.14.14.08.28.27.46.2l-.02.02c.12-.04.07.04.15.04a.031.031,0,0,0-.01.02c.12-.04.15.1.22.1l-.04.05.1.07-.03-.04c.13-.13,0,.15.15.12.05.07.38-.18.4-.05.1-.04-.12.08-.03.07-.06.07-.06.03-.1.1.08.01.01.14.12.14l-.05.06c.17-.04.08.2.22.14.12.02-.1.2.1.17l-.03.1c.02.04.1-.07.1,0-.04.05.02.08-.05.1.02.15.27.05.28.27.1-.07.12.03.2-.02-.03.04.1.1-.03.14-.01,0-.02-.01-.01-.02l-.06.05c-.02.16.17.05.22.12,0-.04-.03-.05.02-.08l.05.06-.05.04.07.1.04-.07c.02.07-.05.18.07.14.06-.03.02-.1.1-.1a.741.741,0,0,0,.13.3c.05-.07.07-.05.1-.05l-.05.06c.15-.01-.08.15.06.16l.08-.07c.17-.05-.06.15.15.07-.04-.02.1-.14.1-.08l-.06.05c.03.01.06-.01.06.01-.04.02-.07.07-.04.1l-.08.05.15-.05c0,.1.13.1.1.18,0,0,.07.12.16.06-.06.04-.03.1-.1.15.08-.04.2-.02.17.07h-.01c.06.16.27.08.3.24.05-.07.07.01.13-.08.18.01.05.34.3.1.06.03,0,.1.02.14h-.02a.861.861,0,0,1,.2.14c.06,0,.16-.1.2-.03-.06.03-.03.04-.01.06-.02,0-.04.01-.04.07.02-.01.03-.02.04-.02.04.02.05,0,.04-.02.01-.01.01-.02.02-.04-.01.1.1.1.05.17a1.563,1.563,0,0,0,.4.1.113.113,0,0,1-.12.06l.08.04c-.05.06-.07,0-.1,0-.01.17.25.04.26.2l.06-.03v.01a.128.128,0,0,1,.1-.04c-.03.06-.1.12-.06.16-.01.08.12.06.2.07-.02-.03.02-.05.04-.06.02.02-.01.08.03.07l-.06.07c.05-.08.12-.02.16-.04-.03.06-.07.02-.1.05l.15.1c.1-.01.05-.08.13-.12.06.02.14.01.15.1l.04-.08c.12.02.17.07.17.18,1.05,0,.73-.6.73-.6-.14-.34-.42-.26-.74-.45Z" fill="#fff"/>
      <path id="Path_13773" data-name="Path 13773" d="M79.5,355.9h0l-.04.03Zm167.6-61.27.13-.2C247.22,294.43,247.18,294.48,247.1,294.63Zm4.7-8.13h0a.127.127,0,0,0-.01.06v-.07Zm4.4-19.9h0l-.03-.1Z" fill="#fff"/>
      <path id="Path_13774" data-name="Path 13774" d="M265.94,221.3l-.01-.07a19.131,19.131,0,0,0-.62,3.52c-.2.13-.26,1.24-.38,1.58l-.01-.04c-.05.95-.48,1.88-.54,2.8a.367.367,0,0,1-.01-.27,5.522,5.522,0,0,1-.35,1.57l-.8,4.72-.01-.07a11.925,11.925,0,0,1-.2,1.37c-.02.03-.04.08-.04.07-.02.64-.35,1.8-.4,2.3l-.07.02-.23,1.23.1-.45c.15.2-.3.9-.37,1.8-.2.82.03,1.76-.24,2.6,0,.43-.06-.4-.12.24-.1,0,0-.3-.1-.16-.08.6-.3.97-.4,1.73h-.08c-.07,1-.48,1.8-.5,2.48-.15,1-.36.62-.44,1.7l-.18.38c-.1.44.05.34-.1.83-.06-.04-.18.6-.18.3-.33,1.1-.35,2.3-.83,3.73.05.35-.18,1.07-.14,1.33-.06.03-.33,1.48-.27.62a.789.789,0,0,1,.05-.2l-.05-.1a15.866,15.866,0,0,0-.46,2.36c.08-.24.14-.57.15-.34l-.18.77-.03-.17-.3,1.14.1-.14a4.732,4.732,0,0,0-.37,1.38c-.01.3.22-.5.1.1l-.8,2.8c.1-.07.04.2,0,.46l-.08.01c-.13,1.04-.25.34-.4,1.36l.06.2c-.07.94-.26.45-.3,1.5.08-.4.2-.15.06.33l-.04-.14a3.7,3.7,0,0,1-.1.55c0-.17-.08-.1-.16.3l-.03-.3-.05.8a17.666,17.666,0,0,1-.5,1.72,8.613,8.613,0,0,0-.33,1.54c0-.27-.2.4-.23.2a5.428,5.428,0,0,1-.4,1.66l.01-.07-1.1,3.63c.1-.03-.16.6,0,.48-.3,1.32-1,2.26-.83,2.83a6.023,6.023,0,0,1-.44.95l.03-.14-.78,2.2a4.544,4.544,0,0,1-.3,1.23c.03-.25-.07.04-.17.3.06-.17.06-.24-.12.1a.86.86,0,0,1-.04.21c-.01,0-.01.01-.02,0-.15.45-.1.38-.02.18,0,.01.02,0,.06-.06-.26.43-.5,1.3-.63,1.3l-1.24,3.45c-.1.1-.04-.17.08-.5l-.32.8c-.07-.04.15-.47.24-.7-.52.88-.7,1.96-1.3,3l-.04.25-.04.06a1.2,1.2,0,0,1-.1.44c-.13.12-.14-.08-.38.46a13.088,13.088,0,0,0-.75,1.77c.15-.3.14-.18.1-.04-.12.27-.26.4-.33.6l-.1-.02c.13-.07-.25.73-.26.85-.14.12.15-.44.13-.52l-.77,1.6c-.22.6.13-.06.07.24a12.335,12.335,0,0,1-.76,1.56l.17-.14a10.728,10.728,0,0,1-1.13,2.08l-1.4,3.3c0,.05-.18.23-.08.13.03-.03.02-.01.01.01l-.02.05a.165.165,0,0,0-.02.13c.02.05.1.03.23-.02-.17.2.18-.1.2-.14l.23-.26c.15-.18.3-.4.43-.58l.47-.7a51.844,51.844,0,0,0,3.7-7.46l3.17-6.7,1.78-4.5c.15-.73.72-1.9.92-2.77l.18-.3a3.809,3.809,0,0,1,.3-.9v.02c.1-.44.3-.9.34-1.13v.02l.17-.52v.1l.7-2.2-.1.03c.55-1.42.54-2,1.04-3.3l.02.02c.26-1.73.9-2.6,1.1-4.4-.03.22.07-.08.08-.06.17-.8.35-1.66.2-1.72.14-.58.16-.46.24-.52-.07-.01.01-.53.1-.98v.22l.28-1.3-.2.22c.2-.68.2-.14.33-.8l-.12-.02c.24-.95.54-1.47.83-2.38.93-3.84,1.53-8.05,2.5-11.6l.12-.14c.14-.04.02-1.03.17-1.14l.03-.43c.05-.1.12-.36.1-.14a2.992,2.992,0,0,0,.1-.7l.17-.4c.4-1.5.5-2.84.87-4.44.56-1.9,1.16-5.56,1.5-7.67.4-2.98,1.6-6.3,1.97-9.37a.816.816,0,0,0,.03-.36l.56-2.76s.66-3.35.94-5.45c.26-2.15.17-3-1.33,2Zm-33.22-12.98c-.18-.01-.23.48-.35.6h-.01c-.04.42-.45.68-.5,1.08a.124.124,0,0,1-.01-.13c-.1.26-.24.6-.34.6a9.678,9.678,0,0,0-.8,1.84v-.04c-.02.26-.14.28-.22.55-.02.01-.03.02-.04.01-.03.28-.37.68-.43.9l-.06-.02-.25.46.1-.16c.12.15-.3.28-.4.67-.2.3-.04.82-.3,1.1-.02.2-.04-.2-.12.05-.1-.04.01-.14-.1-.12-.1.25-.3.3-.42.62l-.07-.03c-.1.43-.5.6-.54.92-.18.4-.34.12-.46.58l-.18.1c-.12.15.03.18-.13.33-.05-.05-.2.2-.17.06-.35.35-.43.9-.92,1.32.03.2-.23.38-.2.52-.05-.02-.4.5-.27.14.01-.03.04-.07.06-.06l-.03-.08c-.33.2-.33.55-.56.82.08-.07.16-.18.14-.08l-.2.25v-.1l-.32.36h.1c-.2.15-.35.12-.45.4-.04.13.23-.1.08.1l-.93.77c.1.03.01.1-.05.2l-.06-.04c-.24.37-.23-.01-.5.33v.14c-.2.36-.26.02-.44.45.12-.12.17.07-.01.2l-.01-.1a1.142,1.142,0,0,1-.15.18c.03-.08-.04-.1-.16.02l.03-.14-.15.3c-.23.1-.5.4-.64.4,0,0-.46.28-.5.44.04-.12-.2.03-.2-.08-.07.14-.35.45-.54.46h.02c-.56.25-.8.64-1.32.84.06.06-.2.17-.1.23-.44.37-1,.28-1.03.68-.22.14-.3.07-.43.12l.05-.04a5.073,5.073,0,0,1-.87.44c-.15.1-.1.26-.42.36.07-.1-.05-.04-.15.01.07-.04.08-.07-.08-.05-.01.03-.04.05-.06.07l-.01-.01c-.17.1-.13.1-.05.08,0,.01.01.02.04.02-.22.02-.54.22-.6.13-.55.23-.9.5-1.38.7-.07-.04.02-.12.16-.18l-.33.13c-.02-.08.18-.1.28-.15-.44.01-.8.4-1.3.43l-.08.1h-.03c.01.03-.08.1-.15.13-.1-.05-.04-.16-.27-.1a2.451,2.451,0,0,0-.76.28c.14-.02.1.02.05.06-.12.03-.2-.02-.3.03l-.03-.1c.07.08-.3.16-.33.2-.08-.05.17-.1.2-.16l-.72.18c-.24.13.06.08-.04.2a2.308,2.308,0,0,1-.7.16l.1.07a1.848,1.848,0,0,1-1,.13l-1.03.4.6-4.5a3.57,3.57,0,0,0,.05-.63l.68-4.96,1.12-9.77c.3-3.75.26-5.22-1.4,3.86l-.01-.13-.75,6.3a23.994,23.994,0,0,0-.46,2.85v-.06c-.1,1.67-.57,3.4-.68,5a1.128,1.128,0,0,1,0-.47l-.44,2.83-1.12,8.43-.01-.13c-.05,1.03-.2,1.3-.3,2.45-.02.06-.04.14-.05.12-.06,1.12-.5,3.2-.6,4.1l-.08.05-.35,2.2.15-.82c.14.32-.4,1.63-.56,3.24-.3,1.47-.14,3.08-.54,4.6-.06.75-.01-.67-.16.44-.1.02.04-.52-.1-.25-.16,1.08-.44,1.74-.63,3.08l-.08.04c-.2,1.76-.8,3.22-.9,4.4-.33,1.78-.46,1.14-.77,3l-.27.7c-.2.78-.02.6-.28,1.45-.05-.07-.32,1.08-.25.56-.66,1.9-.94,4-2.1,6.37a13.552,13.552,0,0,1-.86,2.15c-.04.02-.33.6-.58,1-.27.38-.43.6-.07-.04.07-.1.16-.3.17-.3l.02-.2-1.12,1.75a8.511,8.511,0,0,1-1.2,1.7c.3-.32.66-.77.45-.44l-.88,1.05.13-.26a12.173,12.173,0,0,1-1.42,1.45l.25-.14-1.88,1.6c-.36.36.8-.5,0,.17a18,18,0,0,1-1.97,1.35l-2.3,1.35c.18,0-.22.22-.63.46l-.08-.04c-1.55.97-.66.18-2.25,1.04l-.25.23c-1.42.83-.85.25-2.46,1.12.66-.28.38.02-.46.33l.18-.15-.9.4c.26-.15.1-.15-.56.12l.42-.26c-.4.22-.83.4-1.24.6l-3.02.97-2.65.92c.42-.2-.8.14-.47-.04a18.975,18.975,0,0,1-2.9.92l.12-.05-6.5,1.84c.13.06-1.07.33-.75.36-2.3.74-4.3.92-5.05,1.47a14.933,14.933,0,0,1-1.83.38l.25-.08-4.03,1.1a15.572,15.572,0,0,1-2.13.75c.4-.18-.13-.02-.62.12.3-.1.4-.15-.25-.01l-.35.14c-.01,0-.03,0-.02-.01-.82.26-.67.23-.28.13-.02.01.02.02.14,0-.88.17-2.38.68-2.5.62l-6.14,2.26c-.24.03.2-.2.78-.42l-1.4.46a6.584,6.584,0,0,1,1.24-.52c-.87.25-1.74.6-2.64.96l-2.82,1.15-.38.22-.12.04a3.417,3.417,0,0,1-.7.38c-.3.06-.04-.16-1,.28a29.66,29.66,0,0,0-3.1,1.5c.53-.25.38-.13.16,0-.47.23-.77.3-1.12.5l-.1-.06c.23-.01-1.2.68-1.34.82-.3.07.7-.43.8-.53l-2.8,1.5c-.95.6.22-.02-.2.3l-2.66,1.58.35-.1L118,313.31a27.274,27.274,0,0,0-4.62,4.25c-.54.72-.42.76-.03.44l1.7-1.34,1.17-.88,5.7-3.86,6.68-3.8,3.28-1.47,2.63-1.05,2.68-1.03,3.48-1.28,8.12-2.56c1.2-.5,3.47-.96,4.94-1.46l.6-.08,1.63-.46-.03.03c.75-.26,1.63-.46,2-.58l-.03.03.93-.26-.15.07,3.93-1.1-.12-.06,5.9-1.6-.03.03a34.385,34.385,0,0,1,3.8-1.17l3.85-1.3c-.36.16.17-.02.15.02a10.944,10.944,0,0,0,2.8-1.23c1-.4.83-.28.98-.27a7.031,7.031,0,0,1,1.6-.76l-.34.17c.74-.3,1.45-.66,2.18-1l-.5.07c1.17-.5.37.02,1.45-.53l-.07-.1,2.05-.97.97-.44,1.03-.58a24.586,24.586,0,0,0,7.68-7.68,40.759,40.759,0,0,0,4.03-9.66l.17-.25c.17-.1.26-1.8.44-2.02l.13-.75c.07-.2.2-.64.14-.26a7.853,7.853,0,0,0,.24-1.2l.25-.72c.65-2.7,1.02-5.04,1.58-7.9.86-3.4,1.8-9.95,2.33-13.7.45-3.7,1.27-7.76,1.9-11.72q.274.028.55.03a11.088,11.088,0,0,0,3.5-.77,16,16,0,0,0,3.1-.78,20.579,20.579,0,0,0,1.93-.8c.24-.25.8-.36,1.1-.6h.16a.549.549,0,0,1,.36-.2v.02c.15-.14.36-.2.43-.28v.02l.2-.12-.02.05a6.275,6.275,0,0,1,.85-.5l-.07-.06c.6-.26.72-.54,1.28-.76v.02c.5-.6,1.05-.57,1.55-1.2-.06.08.06.01.07.03.28-.22.54-.5.44-.63.2-.17.2-.1.26-.07-.05-.06.1-.23.25-.36l-.05.08.42-.4-.18-.03c.26-.17.18.08.37-.14l-.08-.08c.33-.26.6-.33.96-.57q.459-.462.88-.96l.75-1.08c.52-.7.96-1.42,1.48-2.02l.1-.01c.12.05.08-.47.2-.45l.05-.18c.05-.03.13-.1.1-.02a.42.42,0,0,0,.1-.28l.17-.1c.4-.53.58-1.08.98-1.66a12.752,12.752,0,0,0,1.62-2.9c.45-1.2,1.6-2.3,1.97-3.58.04-.03.05-.15.03-.15l.52-1.1s.17-.37.35-.85h-1.16c-.01.13-.06.3-.08.5Zm-49.84,80.34h0l.12-.1Z" fill="#fff"/>
    </g>
    <path id="Path_13775" data-name="Path 13775" d="M405.76,331.53v-.1C405.75,331.5,405.75,331.53,405.76,331.53Z"/>
  </g>
</svg>
