<svg xmlns="http://www.w3.org/2000/svg" width="151.992" height="243.254" viewBox="0 0 151.992 243.254">
  <g id="_99" data-name="99" transform="translate(-161.286 -205.104)">
    <path id="Path_12532" data-name="Path 12532" d="M239.52,416.34l-.4-10.42,28.4-1.44.4,6.95Z" fill="#fff"/>
    <path id="Path_12533" data-name="Path 12533" d="M239,405.48l.3.02A1.043,1.043,0,0,0,239,405.48Z"/>
    <path id="Path_12534" data-name="Path 12534" d="M167,415.52l2.86-12.67,23.7,2.45-.4,5.93Z" fill="#fff"/>
    <path id="Path_12535" data-name="Path 12535" d="M168.74,405.8l.07-.17C168.79,405.63,168.77,405.67,168.74,405.8Zm12.5,7.84c-.01.01-.02.01-.04.01A.1.1,0,0,1,181.24,413.64Zm-7.7-9.66Zm1.7-74.02a.2.2,0,0,0,.01-.07l.04-.34-.05.4Zm55.27,105.36-.07-.13C230.42,435.22,230.44,435.25,230.51,435.32Zm-36-30.22-.2.35C194.33,405.45,194.39,405.35,194.51,405.1Zm-11.98,6.66h.02l.1-.03-.13.03Zm9.9-.03-.01.01Zm-2.92,3.67.02.08C189.54,415.47,189.54,415.45,189.51,415.4Zm.74,3Zm11.22,1.77-.04-.01A.06.06,0,0,0,201.47,420.17Zm-1.58-.27Zm5.93,2.82h-.04C205.79,422.73,205.8,422.74,205.82,422.72Zm-1.58.15ZM217,442.02l-.4-.06C216.61,441.98,216.7,442,217,442.02Zm9.3-1.3c.01,0,.02-.01.03-.01A.044.044,0,0,0,226.3,440.72Z"/>
    <path id="Path_12536" data-name="Path 12536" d="M233.9,437.63l-.02.18a2.487,2.487,0,0,0-.72-.66c-.2-.02.06.3-.27.13l-.74-.65c.1-.04.34.2.34.06-.1.01-.46-.32-.5-.16l.1-.13c-.13-.04-.13-.2-.26-.3-.1-.02-.17-.01-.05.13-.3-.17-.77-.35-.92-.6-.27-.2-.1-.26-.1-.4-.1-.05-.26-.08-.3-.03l-.02-.04h-.17c-.43-.56-1.16-.57-1.5-1.06.14.06.33.26.4.15l-.42-.24c.18.08.36.1.35-.02-.6-.33-1.2-.5-1.9-.9.07-.18-.44-.3-.6-.57.02.05.02.07,0,.08.1.08.12.13-.13.02a.037.037,0,0,0,.01-.03.331.331,0,0,0-.14,0c-.15-.17-.1-.2,0-.15-.14-.08-.3-.16-.13-.18-.34-.28-.5-.06-.75-.13a9.092,9.092,0,0,0-1.18-.6l.1.01c-.15-.1-.13-.28-.45-.4-.5.4-.8-.38-1.6-.52.01.2-.3-.01-.33.13a1.883,1.883,0,0,0-.46-.25.367.367,0,0,0-.2-.02c-.1.01-.15.04-.3-.1v-.02c-.2-.28-.12.06-.02.16a.288.288,0,0,0-.14-.12l-.2.94-.2.84-.15.6-.2.73.08.08c-.01.34-.12.34-.2.4l-.18.64c.01,0,.01.01.03.01l-.1.3-.22.8-.16.54a.077.077,0,0,1,.02.03c.07.33-.08.43-.2.62-.01.04-.03.08-.04.13l.1-.04-.23.64-.03-.05-.12.4a1.832,1.832,0,0,0,.1-.2c-.16.46.1.94-.26,1.36l-.1-.1c.03.01.05-.06.05-.1a.34.34,0,0,0-.04-.15l-.25.82v.03c-.02.14-.05.34.06.33-.24.13-.13.3-.1.33.06-.01.1-.01.1.03-.14.1-.01.08-.1.18.06.08.17-.15.22-.12a.51.51,0,0,0,.03.17c.1-.12.25-.06.35.01a.516.516,0,0,0,.5.12c.38-.2.88.18,1.45-.04v.12c.44-.1.66.14,1.02.07.1.13-.1.07-.08.23.36-.1-.1.26.15.12.5.16,1-.5,1.5-.47.52-.2.97.3,1.06,0l-.27-.03h.72l.02.1c.3-.07.98.08,1.34-.1,0,.01.02.02.04.04.37-.1.47.07.8-.1l-.04.05a10.012,10.012,0,0,1,2.75-.2c.03.17.55.1.93.08-.12,0-.13.08-.15.1.52-.2,1.1.22,1.63,0h-.02c.2.1.84-.16.93.13a3.922,3.922,0,0,1,2.05-.08l-.04.05.74.24.12-.4-.06-.27a4.615,4.615,0,0,0-.5-1.07l-.76-.63a2.307,2.307,0,0,0-.86-1.03Zm2.46,4.72-.2.02a25.737,25.737,0,0,1-2.9.1l-1.62-.05c0,.02-.15.1-.2.06-1.77.35-3.77-.53-5.5-.22a16.608,16.608,0,0,1-4.5.08c-.94-.06-1.7.2-2.6.07l-.24-.14a1.69,1.69,0,0,1-.68.08c.22-.05-.02-.1-.1-.13l-.45.1c-.01-.1-.3-.02-.64.06s-.68.15-.6.05a.757.757,0,0,1-.01-.15l-.4-.04a1.024,1.024,0,0,0,.04-.14l-1.55-.04q-1.33-.013-2.66.05c-3.9.1-10.7.3-14.3-.01-3-.08-5.42.15-8.27.02l-.4-.07c-.2.02-.4.04-.35.1a31.712,31.712,0,0,0-3.9,0,1.408,1.408,0,0,1-.5.01q-.97.016-1.94-.04l.12-.01a9.992,9.992,0,0,0-2.85.07c.34-.13-.84-.2-.4-.3a13.753,13.753,0,0,1-2.63.08,23.074,23.074,0,0,0-2.7-.14h-.5l-1.1.18.46-.15q-.23,0-.46-.02l-1.4.01a2.5,2.5,0,0,1-1.4.01l-.97.01a.375.375,0,0,1-.1.01l-.3.17-.15.1.15-.1a2.159,2.159,0,0,1-1.44-.18h-.7a1.358,1.358,0,0,0-.2.02l-.01-.02h-.36c0,.02-.01.02,0,.05a.793.793,0,0,0-.17-.02l-.04.17a2.625,2.625,0,0,0-.04.33c-.02.17-.03.34-.05.5a5.917,5.917,0,0,0-.05,1.53c.26.66.02-.28.22.01a6.913,6.913,0,0,1,.4.65,1.44,1.44,0,0,0,.47.55l-.08-.2a1.67,1.67,0,0,0,.54.25,3.011,3.011,0,0,0,.73.08l-.27.1,1.3.02c.37-.08-.18-.07-.6-.12a28.071,28.071,0,0,1,4-.07l-.17.12c.01-.03-.2-.04-.32-.02-1.42.2,1.04.13,1.1.22.4-.15,1.67-.02,2.2-.23,2.5.3,4.46-.1,6.36.08-.5.1.62.08.57.2.84.1.63-.15,1.38-.12l.7.17c1.77-.23,1.2.24,2.9.14,1.1-.2,2.56.2,4.2-.03l.05.12c1.26-.1,1.92.14,2.94.07.27.13-.25.07-.22.23,1.04-.1-.27.26.43.13,1.46.16,2.92-.5,4.33-.46,1.5-.2,2.8.32,3.07.01l-.78-.03h2.08l.05.1c.84-.07,2.84.1,3.9-.08-.01.01.06.02.12.04,1.07-.1,1.35.07,2.3-.1l-.12.05c1.68-.26,5.34-.16,7.96-.2a10.047,10.047,0,0,0,2.68.08.661.661,0,0,0-.44.1c1.5-.2,3.15.23,4.72.01h-.06c.6.1,2.43-.15,2.7.14a31.72,31.72,0,0,1,5.94-.06l-.12.05,1.5.17a2.461,2.461,0,0,0,1.08.01,2.622,2.622,0,0,0,1.46-.9,3.265,3.265,0,0,0,.5-.76,3.169,3.169,0,0,0,.11-.76c0-.52-.06-1.2-.12-1.88Z" fill="#fff"/>
    <path id="Path_12537" data-name="Path 12537" d="M292.66,442.02l-.4-.06C292.27,441.98,292.36,442,292.66,442.02Zm9.3-1.3c.01,0,.02-.01.03-.01A.044.044,0,0,0,301.96,440.72Z"/>
    <path id="Path_12538" data-name="Path 12538" d="M309.54,437.63l-.02.18a2.487,2.487,0,0,0-.72-.66c-.2-.02.06.3-.27.13l-.74-.65c.1-.04.34.2.34.06-.1.01-.46-.32-.5-.16l.1-.13c-.13-.04-.13-.2-.26-.3-.1-.02-.17-.01-.05.13-.3-.17-.77-.35-.92-.6-.27-.2-.1-.26-.1-.4-.1-.05-.26-.08-.3-.03l-.02-.04h-.17c-.43-.56-1.16-.57-1.5-1.06.14.06.33.26.4.15l-.42-.24c.18.08.36.1.35-.02-.6-.33-1.2-.5-1.9-.9.07-.18-.44-.3-.6-.57.02.05.02.07,0,.08.1.08.12.13-.13.02a.037.037,0,0,0,.01-.03.331.331,0,0,0-.14,0c-.15-.17-.1-.2,0-.15-.14-.08-.3-.16-.13-.18-.34-.28-.5-.06-.75-.13a9.092,9.092,0,0,0-1.18-.6l.1.01c-.15-.1-.13-.28-.45-.4-.5.4-.8-.38-1.6-.52.01.2-.3-.01-.33.13a1.883,1.883,0,0,0-.46-.25.367.367,0,0,0-.2-.02c-.1.01-.15.04-.3-.1v-.02c-.2-.28-.12.06-.02.16a.288.288,0,0,0-.14-.12l-.2.94-.2.84-.15.6-.2.73.08.08c-.01.34-.12.34-.2.4l-.18.64c.01,0,.01.01.03.01l-.1.3-.22.8-.16.54a.077.077,0,0,1,.02.03c.07.33-.08.43-.2.62-.01.04-.03.08-.04.13l.1-.04-.23.64-.03-.05-.12.4a1.832,1.832,0,0,0,.1-.2c-.16.46.1.94-.26,1.36l-.1-.1c.03.01.05-.06.05-.1a.34.34,0,0,0-.04-.15l-.25.82v.03c-.02.14-.05.34.06.33-.24.13-.13.3-.1.33.06-.01.1-.01.1.03-.14.1-.01.08-.1.18.06.08.17-.15.22-.12a.51.51,0,0,0,.03.17c.1-.12.25-.06.35.01a.516.516,0,0,0,.5.12c.38-.2.88.18,1.45-.04v.12c.44-.1.66.14,1.02.07.1.13-.1.07-.08.23.36-.1-.1.26.15.12.5.16,1-.5,1.5-.47.52-.2.97.3,1.06,0l-.27-.03h.72l.02.1c.3-.07.98.08,1.34-.1,0,.01.02.02.04.04.37-.1.47.07.8-.1l-.04.05a10.012,10.012,0,0,1,2.75-.2c.03.17.55.1.93.08-.12,0-.13.08-.15.1.52-.2,1.1.22,1.63,0h-.02c.2.1.84-.16.93.13a3.922,3.922,0,0,1,2.05-.08l-.04.05.74.24.12-.4-.06-.27a4.614,4.614,0,0,0-.5-1.07l-.76-.63a2.126,2.126,0,0,0-.86-1.03Zm2.48,4.72-.2.02a25.737,25.737,0,0,1-2.9.1l-1.62-.05c0,.02-.15.1-.2.06-1.77.35-3.77-.53-5.5-.22a16.608,16.608,0,0,1-4.5.08c-.94-.06-1.7.2-2.6.07l-.24-.14a1.69,1.69,0,0,1-.68.08c.22-.05-.02-.1-.1-.13l-.45.1c-.01-.1-.3-.02-.64.06s-.68.15-.6.05a.756.756,0,0,1-.01-.15l-.4-.04a1.028,1.028,0,0,0,.04-.14l-1.55-.04q-1.33-.013-2.66.05c-3.9.1-10.7.3-14.3-.01-3-.08-5.42.15-8.27.02l-.4-.07c-.2.02-.4.04-.35.1a31.712,31.712,0,0,0-3.9,0,1.408,1.408,0,0,1-.5.01q-.97.016-1.94-.04l.12-.01a9.992,9.992,0,0,0-2.85.07c.34-.13-.84-.2-.4-.3a13.753,13.753,0,0,1-2.63.08,23.074,23.074,0,0,0-2.7-.14h-.5l-1.1.18.46-.15q-.23,0-.46-.02l-1.4.01a2.5,2.5,0,0,1-1.4.01l-.97.01a.375.375,0,0,1-.1.01l-.3.17-.15.1.15-.1a2.159,2.159,0,0,1-1.44-.18h-.7a1.358,1.358,0,0,0-.2.02v-.02h-.36c0,.02-.01.02,0,.05a.793.793,0,0,0-.17-.02l-.04.17a2.625,2.625,0,0,0-.04.33c-.02.17-.03.34-.05.5a5.917,5.917,0,0,0-.05,1.53c.26.66.02-.28.22.01a6.913,6.913,0,0,1,.4.65,1.44,1.44,0,0,0,.47.55l-.08-.2a1.669,1.669,0,0,0,.54.25,3.011,3.011,0,0,0,.73.08l-.27.1,1.3.02c.37-.08-.18-.07-.6-.12a28.071,28.071,0,0,1,4-.07l-.17.12c.01-.03-.2-.04-.32-.02-1.42.2,1.04.13,1.1.22.4-.15,1.67-.02,2.2-.23,2.5.3,4.46-.1,6.36.08-.5.1.62.08.57.2.84.1.63-.15,1.38-.12l.7.17c1.77-.23,1.2.24,2.9.14,1.1-.2,2.56.2,4.2-.03l.05.12c1.26-.1,1.92.14,2.94.07.27.13-.25.07-.22.23,1.04-.1-.27.26.43.13,1.46.16,2.92-.5,4.33-.46,1.5-.2,2.8.32,3.07.01l-.78-.03h2.08l.05.1c.84-.07,2.84.1,3.9-.08-.01.01.06.02.12.04,1.07-.1,1.35.07,2.3-.1l-.12.05c1.68-.26,5.34-.16,7.96-.2a10.047,10.047,0,0,0,2.68.08.661.661,0,0,0-.44.1c1.5-.2,3.15.23,4.72.01h-.06c.6.1,2.43-.15,2.7.14a31.72,31.72,0,0,1,5.94-.06l-.12.05,1.5.17a2.461,2.461,0,0,0,1.08.01,2.621,2.621,0,0,0,1.46-.9,3.265,3.265,0,0,0,.5-.76,3.171,3.171,0,0,0,.11-.76c-.01-.52-.06-1.2-.12-1.88Z" fill="#fff"/>
    <path id="Path_12539" data-name="Path 12539" d="M220.2,433.62h0l.07.07Zm-52.5,8.44h0l-.15.08Zm128.15-8.44h0l.07.07Z"/>
    <path id="Path_12540" data-name="Path 12540" d="M312.48,440.2a.423.423,0,0,0,.05-.07,2.259,2.259,0,0,0-.1-.96l-.2-.54a5.452,5.452,0,0,0-1.5-2.03l-2.1-1.62a17.065,17.065,0,0,0-3.35-2.8,23.508,23.508,0,0,0-2.45-1.45c-.47-.04-1.05-.6-1.58-.68l-.12-.2a.951.951,0,0,1-.52-.22l.03-.03a5.547,5.547,0,0,1-.66-.24l.03-.03-.3-.12.07-.02a4.948,4.948,0,0,1-1.27-.5l-.02.15a4.389,4.389,0,0,0-.52-.27l-.67-.24a6.79,6.79,0,0,1-1.42-.62v-.04a.528.528,0,0,1-.13-.01l-.2-.1-1.18-.63-2.25-1.23s-5.45-3-8.9-4.73c-2.28-1.13-3.7-1.66-2.2-.36l-.75-.42a18.285,18.285,0,0,1-2.1-1.3l-.3-1.04.35.84c.02.13.15.17.24.22l.3.14.56.26a7.535,7.535,0,0,0,.85.32c.9.27.94.1.54-.25-.2-.17-.47-.4-.78-.62l-.47-.37-.2-.17c-.03-.03-.02-.03-.03-.05s0-.06,0-.07c-.01-.08-.07-.3-.1-.42l-.1-.44-2-6.9-1.15-3.4-.3-.9s-.7-3.88-1.72-4.24a3.994,3.994,0,0,0-2.1-.66,1.873,1.873,0,0,0-.3.05l.05-.68.17-3.44.7-62.44.16-.85c.22-.37-.25-5.34-.05-6.07l-.07-2.25c.05-.63.1-1.96.14-.84l-.05-3.63.16-2.23c.18-8.2.1-15.17.12-23.85.22-10.4-.55-29.92-1.05-41.16-.37-7.42-.52-15.4-.68-23.47l-.26-12.1-.2-5.97-.28-6.84-2.5.02-1.5.03a11.088,11.088,0,0,0-1.14.01l-.52.03H263.4l-.3-.06a2.238,2.238,0,0,0-.67-.08h-1.2l-3.3.01-6.48.08c-.28-.02-.77-.01-1.2.01-.16.01-.3.02-.44.02h-.17l-9.5.01-6.25-.01s-11.86-.01-22.6.08c-.07-.17-.1-.16-.14,0-11.7.1-22.02.34-14.22.85h-2.57c-.43,1.97-1.04,5.84-1.8,11.15l1.15-10.16c.4-2.88.2-2.68-.25-1.2-.46,1.55-1,4.4-1.45,6.9l-.76,4.58c-1.36,8.37-2.22,14.74-3.12,21.5l-3.24,23.93-5.67,40.43-3.86,26.37c-.5,4.04-1.94,11.08-2.6,15.85l-.44,1.82c-.23,1.64-.52,3.57-.88,5.2l-.02-.1c-.34,2.46-.88,5.2-1.04,6.42l-.02-.1-.5,2.97.04-.52c-.65,4.27-1.42,8.66-2.14,12.52l.2-.3c-1.6,8.24-1.85,11.3-3.35,18.74l-.02-.1q-.439,3.25-1.01,6.48c-.04.26-.1.5-.13.76a3.346,3.346,0,0,0,.01,1,3.62,3.62,0,0,0,.81,1.79,3.434,3.434,0,0,0,1.67,1.05c.15.04.37.08.48.1l.36.04.7.1,1.74.2-.06.36a5.216,5.216,0,0,1-.27,1.24l.02.2-.02.05c.03,0,.03.2.02.34-.1.1-.16-.04-.25.38a7.566,7.566,0,0,0-.25,1.42c.07-.24.1-.15.1-.04a2.79,2.79,0,0,0-.15.5h-.1c.1-.06-.03.58-.01.67-.1.1.02-.34-.02-.4l-.28,1.3c-.03.47.1-.06.14.17a7.26,7.26,0,0,1-.26,1.26l.1-.13a6.092,6.092,0,0,1-.42,1.7q-.093.873-.15,1.75-1.171.168-2.33.41l-.67.13a5.85,5.85,0,0,0-.8.17,3.512,3.512,0,0,0-1.85,1.36v-.06a3.417,3.417,0,0,0-.4,1.6c.02.38.03.7.03,1.06.01.67-.02,1.3-.03,1.94a20.6,20.6,0,0,0,.2,4.18c-.07-.4-.07.18-.1.15.12,1.5.25,3.1.54,3.1.07,1.1-.02.9-.12,1.05a4.886,4.886,0,0,1,.33,1.78l-.08-.4.26,2.44.2-.5c.05,1.3-.26.35-.1,1.58l.2-.03c.1,1.8-.1,2.86-.08,4.62l.07.73q.062.572.15,1.14l.04.26c0,.16,0,.3-.01.47l-.05,1.38a7.257,7.257,0,0,0,.05,1.44,3.93,3.93,0,0,0,1.8,2.7,3.768,3.768,0,0,0,1.58.54,12.905,12.905,0,0,0,1.38.01l2.52-.04c3.34-.05,6.63-.07,9.68.12l.27.15c.12.22,1.7-.3,1.92-.1l.7-.1c.2.04.62.08.27.13a5.327,5.327,0,0,0,1.15-.08l.7.14c2.6.12,4.8-.13,7.52-.06,3.27.3,9.43.08,12.98-.05,5-.3,10.78.6,15.9.26a1.532,1.532,0,0,0,.6-.06l4.67.06h3.27l3-.03.77-.02a4.442,4.442,0,0,0,.93-.08,3.38,3.38,0,0,0,1.58-.83,3.285,3.285,0,0,0,1.1-2.26c.01-.6-.13-.82-.24-.67a6.949,6.949,0,0,1-.87,1.53,2.527,2.527,0,0,1-2.54.89l-1.5-.17.12-.05a32.6,32.6,0,0,0-5.94.06c-.27-.3-2.1-.04-2.7-.14h.06c-1.57.2-3.2-.2-4.72-.01a.689.689,0,0,1,.44-.1,10.05,10.05,0,0,1-2.68-.08,79.617,79.617,0,0,0-7.96.2l.12-.05a18.743,18.743,0,0,1-2.3.1c-.06-.02-.13-.03-.12-.04-1.05.17-3.04.01-3.9.08l-.05-.1-2.08.01.78.03c-.27.3-1.57-.2-3.07-.01-1.4-.05-2.87.62-4.33.46-.7.14.62-.23-.43-.13-.03-.16.5-.1.22-.23-1.02.07-1.68-.17-2.94-.07l-.05-.12c-1.65.22-3.1-.18-4.2.03-1.7.1-1.14-.38-2.9-.14l-.7-.17c-.76-.03-.54.2-1.38.12.05-.1-1.06-.1-.57-.2-1.9-.18-3.86.2-6.36-.08-.54.2-1.8.07-2.2.23-.07-.1-2.52-.03-1.1-.22.12-.02.34-.01.32.02l.17-.12a25.385,25.385,0,0,0-4,.07c.42.04.98.04.6.12l-1.3-.02.27-.1a2.527,2.527,0,0,1-.73-.08,1.89,1.89,0,0,1-.54-.25l.08.2a1.536,1.536,0,0,1-.47-.55,5.825,5.825,0,0,0-.4-.65c-.2-.3.04.65-.22-.01a6.417,6.417,0,0,1,.05-1.53c.02-.17.03-.34.05-.5a2.989,2.989,0,0,1,.04-.33l.04-.17c.05,0,.12.02.17.02-.02-.03,0-.04,0-.05h.36l.01.02c.08-.01.14-.01.2-.02h.7a2.51,2.51,0,0,0,1.44.18l.3-.17a.375.375,0,0,1,.1-.01l.97-.01a2.7,2.7,0,0,0,1.4-.01l1.4-.01c.1.01.25.02.46.02l-.46.15,1.1-.18h.5a21.14,21.14,0,0,1,2.7.14,13.739,13.739,0,0,0,2.63-.08c-.43.1.75.17.4.3a9.651,9.651,0,0,1,2.85-.07h-.12c.7.05,1.33.05,1.94.04a1.408,1.408,0,0,0,.5-.01,31.7,31.7,0,0,1,3.9,0c-.04-.06.14-.08.35-.1l.4.07c2.85.13,5.27-.1,8.27-.02,3.6.3,10.38.12,14.3.01.87-.04,1.76-.06,2.66-.05l1.55.04a1.024,1.024,0,0,0-.04.14c.13.01.26.03.4.04a.757.757,0,0,0,.01.15c-.08.1.28.03.6-.05s.63-.16.64-.06l.45-.1c.1.04.33.08.1.13a1.859,1.859,0,0,0,.68-.08l.24.14c.9.1,1.66-.14,2.6-.07a16.227,16.227,0,0,0,4.5-.08c1.73-.3,3.73.57,5.5.22a.231.231,0,0,0,.2-.06l1.62.05a28.822,28.822,0,0,0,2.9-.1l.35-.04c.15.74.27,1.25.38,1.6.25.87.37.8.5.33a9.453,9.453,0,0,0,.1-.97c.01-.2.01-.4.02-.6l-.03-1.07c.25-1.08-.2-1.37-.66-1.43a.423.423,0,0,0,.05-.07,2.258,2.258,0,0,0-.1-.96c-.1-.3-.2-.54-.2-.54a5.452,5.452,0,0,0-1.5-2.03c-.6-.5-1.24-.96-2.1-1.62a17.064,17.064,0,0,0-3.35-2.8,23.508,23.508,0,0,0-2.45-1.45c-.47-.04-1.05-.6-1.58-.68l-.12-.2a.951.951,0,0,1-.52-.22l.03-.03a5.546,5.546,0,0,1-.66-.24l.03-.03-.3-.12.07-.02a4.948,4.948,0,0,1-1.27-.5l-.02.15a4.388,4.388,0,0,0-.52-.27,6.784,6.784,0,0,0-.67-.24,6.789,6.789,0,0,1-1.42-.62v-.04a.528.528,0,0,1-.13-.01l-.2-.1-1.18-.63-2.25-1.23s-5.45-3-8.9-4.73c-2.28-1.13-3.7-1.66-2.2-.36l-.75-.42a18.283,18.283,0,0,1-2.1-1.3l-.3-1.04.35.84c.02.13.15.17.24.22s.2.1.3.14l.56.26a7.53,7.53,0,0,0,.85.32c.9.27.94.1.54-.25-.2-.17-.47-.4-.78-.62-.16-.12-.32-.24-.47-.37l-.2-.17c-.03-.03-.02-.03-.03-.05s0-.06,0-.07c-.01-.08-.07-.3-.1-.42l-.1-.44c-.65-2.73-1.27-4.75-2-6.9l-1.15-3.4c-.01-.04-.03-.08-.04-.12l1.63.16.47.05a5.622,5.622,0,0,0,.58,0,3.528,3.528,0,0,0,2.1-.9,3.292,3.292,0,0,1-1.67.6,3.284,3.284,0,0,0,1.9-1.1,4.26,4.26,0,0,0,.44-.55,1.949,1.949,0,0,0,.3-.57c.1-.3.27-.8.55-1.7l-.2-.01c1.7-5.16,2.96-8.1,4.7-13.07L226,342.52c.2,1.36.38,2.84.47,4.15l-.05-.1c.35,2.33.6,4.98.77,6.14l-.05-.1.33,2.84-.1-.48c.55,4.07,1.02,8.28,1.4,12l.1-.32c.72,7.94,1.34,10.8,1.95,18l-.05-.1c.7,4.5,1.03,8.08,1.36,11.7l.55,5.57.17,1.48.1.76a4.859,4.859,0,0,0,.2,1,3.2,3.2,0,0,0,2.7,2.08,3.011,3.011,0,0,0,.6,0l.44-.04c-1.17.1.5.05.4.1l1.4-.08c.03.3.08.6.1.88,0-.26.04-.18.07-.07.01.24-.05.37-.02.55l-.1.03c.1-.1.12.6.16.7-.06.14-.07-.36-.13-.42l.07,1.42c.1.5.1-.1.18.14a7.768,7.768,0,0,1,.08,1.4l.08-.16a7.737,7.737,0,0,1,.04,1.9q.127.894.3,1.78a3.844,3.844,0,0,0-.4.1,3.512,3.512,0,0,0-1.85,1.36v-.06a3.417,3.417,0,0,0-.4,1.6c.02.38.03.7.03,1.06.01.67-.02,1.3-.03,1.94a20.6,20.6,0,0,0,.2,4.18c-.07-.4-.07.18-.1.15.12,1.5.25,3.1.54,3.1.07,1.1-.02.9-.12,1.05a4.886,4.886,0,0,1,.33,1.78l-.08-.4.26,2.44.2-.5c.05,1.3-.26.35-.1,1.58l.2-.03c.1,1.8-.1,2.86-.08,4.62l.07.73q.062.572.15,1.14l.04.26c0,.16,0,.3-.01.47l-.05,1.38a7.257,7.257,0,0,0,.05,1.44,3.93,3.93,0,0,0,1.8,2.7,3.768,3.768,0,0,0,1.58.54,12.905,12.905,0,0,0,1.38.01l2.52-.04c3.34-.05,6.63-.07,9.68.12l.27.15c.12.22,1.7-.3,1.92-.1l.7-.1c.2.04.62.08.27.13a5.327,5.327,0,0,0,1.15-.08l.7.14c2.6.12,4.8-.13,7.52-.06,3.27.3,9.43.08,12.98-.05,5-.3,10.78.6,15.9.26a1.532,1.532,0,0,0,.6-.06l4.67.06h3.27l3-.03.77-.02a4.442,4.442,0,0,0,.93-.08,3.38,3.38,0,0,0,1.58-.83,3.285,3.285,0,0,0,1.1-2.26c.01-.6-.13-.82-.24-.67a6.949,6.949,0,0,1-.87,1.53,2.527,2.527,0,0,1-2.54.89l-1.5-.17.12-.05a32.6,32.6,0,0,0-5.94.06c-.27-.3-2.1-.04-2.7-.14l.06-.02c-1.57.2-3.2-.2-4.72-.01a.689.689,0,0,1,.44-.1,10.05,10.05,0,0,1-2.68-.08,79.617,79.617,0,0,0-7.96.2l.12-.05a18.743,18.743,0,0,1-2.3.1c-.06-.02-.13-.03-.12-.04-1.05.17-3.04.01-3.9.08l-.05-.1-2.08.01.78.03c-.27.3-1.57-.2-3.07-.01-1.4-.05-2.87.62-4.33.46-.7.14.62-.23-.43-.13-.03-.16.5-.1.22-.23-1.02.07-1.68-.17-2.94-.07l-.05-.12c-1.65.22-3.1-.18-4.2.03-1.7.1-1.14-.38-2.9-.14l-.7-.17c-.76-.03-.54.2-1.38.12.05-.1-1.06-.1-.57-.2-1.9-.18-3.86.2-6.36-.08-.54.2-1.8.07-2.2.23-.07-.1-2.52-.03-1.1-.22.12-.02.34-.01.32.02l.17-.12a25.385,25.385,0,0,0-4,.07c.42.04.98.04.6.12l-1.3-.02.27-.1a2.527,2.527,0,0,1-.73-.08,1.89,1.89,0,0,1-.54-.25l.08.2a1.536,1.536,0,0,1-.47-.55,5.825,5.825,0,0,0-.4-.65c-.2-.3.04.65-.22-.01a6.417,6.417,0,0,1,.05-1.53c.02-.17.03-.34.05-.5a2.989,2.989,0,0,1,.04-.33l.04-.17c.05,0,.12.02.17.02-.02-.03,0-.04,0-.05h.36l.01.02c.08-.01.14-.01.2-.02h.7a2.51,2.51,0,0,0,1.44.18l.3-.17a.375.375,0,0,1,.1-.01l.97-.01a2.7,2.7,0,0,0,1.4-.01l1.4-.01c.1.01.25.02.46.02l-.46.15,1.1-.18h.5a21.14,21.14,0,0,1,2.7.14,13.739,13.739,0,0,0,2.63-.08c-.43.1.75.17.4.3a9.651,9.651,0,0,1,2.85-.07h-.12c.7.05,1.33.05,1.94.04a1.408,1.408,0,0,0,.5-.01,31.7,31.7,0,0,1,3.9,0c-.04-.06.14-.08.35-.1l.4.07c2.85.13,5.27-.1,8.27-.02,3.6.3,10.38.12,14.3.01.87-.04,1.76-.06,2.66-.05l1.55.04a1.028,1.028,0,0,0-.04.14c.13.01.26.03.4.04a.756.756,0,0,0,.01.15c-.08.1.28.03.6-.05s.63-.16.64-.06l.45-.1c.1.04.33.08.1.13a1.859,1.859,0,0,0,.68-.08l.24.14c.9.1,1.66-.14,2.6-.07a16.227,16.227,0,0,0,4.5-.08c1.73-.3,3.73.57,5.5.22a.231.231,0,0,0,.2-.06l1.62.05a28.822,28.822,0,0,0,2.9-.1l.35-.04c.15.74.27,1.25.38,1.6.25.87.37.8.5.33a9.457,9.457,0,0,0,.1-.97c.01-.2.01-.4.02-.6l-.03-1.07c.2-1.27-.26-1.56-.7-1.62Zm-94.1-.22c-.1.01-.08-.2-.06-.33v-.03l.25-.82c.02.02.03.06.04.15,0,.04-.02.12-.05.1l.1.1c.35-.42.1-.9.26-1.36-.05.08-.08.17-.1.2l.12-.4.03.05.23-.64-.1.04c.01-.04.03-.08.04-.13.14-.2.28-.3.2-.62,0-.01-.01-.02-.02-.03.05-.18.1-.36.16-.54.08-.26.14-.52.22-.8a1.762,1.762,0,0,0,.1-.3.037.037,0,0,1-.03-.01l.18-.64c.1-.04.2-.04.2-.4l-.08-.08q.107-.363.2-.73l.15-.6.2-.84.2-.94a.442.442,0,0,1,.14.12c-.1-.1-.17-.43.02-.16v.02a.313.313,0,0,0,.3.1.383.383,0,0,1,.2.02,2.086,2.086,0,0,1,.46.25c.03-.15.35.07.33-.13.77.14,1.1.9,1.6.52.32.13.3.3.45.4l-.1-.01a7.116,7.116,0,0,1,1.18.6c.24.07.4-.15.75.13-.17.02-.01.1.13.18-.1-.04-.14-.02,0,.15a.331.331,0,0,1,.14,0,.037.037,0,0,1-.01.03c.25.1.23.05.13-.02.01-.01.02-.03,0-.08.17.26.68.4.6.57.7.4,1.3.56,1.9.9.01.12-.17.1-.35.02l.42.24c-.08.1-.27-.1-.4-.15.35.5,1.1.5,1.5,1.06h.17v.04c.03-.05.2-.01.3.03,0,.15-.17.2.1.4.14.24.6.42.92.6-.13-.13-.04-.15.05-.13.13.1.13.25.26.3l-.1.13c.05-.16.43.16.5.16-.01.15-.26-.1-.34-.06l.74.65c.33.16.06-.15.27-.13a2.621,2.621,0,0,1,.72.66l.02-.18a2.044,2.044,0,0,1,.83,1.05,19.228,19.228,0,0,1,1.64,1.46.417.417,0,0,0,.08.06c-.2.01-.33.04-.3,0-.1,0-.17-.01-.25-.01a1.177,1.177,0,0,1,.07.2l.06.27a4.021,4.021,0,0,0-.12.4q-.366-.133-.74-.24l.04-.05a3.929,3.929,0,0,0-2.05.08c-.1-.3-.73-.04-.93-.13l.02-.02c-.54.22-1.1-.2-1.63,0,.02-.02.03-.1.15-.1-.38.03-.9.1-.93-.08a10.012,10.012,0,0,0-2.75.2l.04-.05c-.33.18-.43.02-.8.1-.02-.02-.05-.03-.04-.04-.36.17-1.05.02-1.34.1l-.02-.1-.72.02.27.03c-.1.3-.54-.2-1.06,0-.5-.04-1,.63-1.5.47-.24.14.2-.23-.15-.12-.01-.16.17-.1.08-.23-.35.07-.58-.17-1.02-.07l-.02-.12c-.57.22-1.07-.17-1.45.04a.542.542,0,0,1-.5-.12c-.1-.08-.26-.13-.35-.01a.51.51,0,0,1-.03-.17c-.05-.03-.16.2-.22.12.08-.1-.05-.1.1-.18,0-.05-.03-.05-.1-.03a.2.2,0,0,1-.04-.17.37.37,0,0,1,.17-.18ZM168.05,414.3l.12.12c-.06.01-.1.01-.16.02.02-.06.03-.1.04-.14Zm26.28,6.04h-.02a.448.448,0,0,0-.13-.1c-.02-.03-.05-.06-.08-.1a.656.656,0,0,1,.08.13c-.1-.07-.14.03-.2-.07.1,0-.3-.03-.4.08.08-.07-.14-.1-.1-.17-.08.08-.1.14-.12.08h.01l.01-.01c.1,0-.35-.28-.48-.64-.06.07-.15-.13-.2-.03-.33-.27-.27-.75-.63-.67-.13-.14-.07-.23-.1-.32l.04.03a5.485,5.485,0,0,1-.45-.57c-.1-.1-.25-.01-.35-.22.1.02.03-.05-.02-.12.04.04.07.04.04-.08a.091.091,0,0,1-.07-.03c-.1-.12-.1-.08-.06-.02-.01,0-.02.01-.02.04-.02-.17-.26-.34-.18-.42-.28-.34-.56-.53-.8-.8.02-.07.1-.03.2.05l-.17-.2c.07-.05.13.1.2.15-.08-.33-.48-.44-.6-.8l-.1-.02v-.02c-.03.02-.1-.02-.15-.06.03-.08.13-.1.02-.24-.03-.16-.27-.3-.4-.44.05.1,0,.1-.05.06-.06-.07-.03-.15-.1-.2l.07-.06c-.05.08-.22-.13-.27-.14.03-.08.13.08.2.06l-.33-.43c-.17-.1-.05.08-.17.06-.12-.13-.27-.22-.34-.4l-.03.1a1.113,1.113,0,0,1-.4-.6q-.216-.165-.44-.32l-.37-.5-.87-1.2-3.34.6c-1.3.43-3.67.6-5.2,1.04l-.63-.02a7.722,7.722,0,0,1-1.7.32l.03-.04c-.8.22-1.7.32-2.1.43l.03-.04-.98.18.16-.08c-1.4.33-2.83.57-4.1.74.02-.07.04-.12.04-.12a54.4,54.4,0,0,0,1.24-6.03c.27-1.12.5-1.83.7-2.55l.3-1.13c.04-.16.08-.34.12-.52,2.86.34,5.9.67,9.53.92-1.23-.08.52.13.4.15,4.53.44,9.36.93,9.46.65,1.33.14,2.02.23,2.4.3a19.236,19.236,0,0,0-.34,2.06c-.05.48-.1.98-.12,1.52,0,.13-.01.27-.02.4v.2a23.716,23.716,0,0,0,.74,2.58,18.153,18.153,0,0,0,.8,2.34l-.07.14c.01.14.14.07.12.24-.06,0-.01.2-.1.13-.03.36.28.67.2,1.16.14.07.12.32.22.37-.05.02.08.46-.08.23-.01-.02-.02-.06,0-.06l-.08-.02c-.08.3.17.45.2.72.01-.08-.02-.18.04-.12l.04.24-.07-.04.04.36.06-.06c0,.18-.12.27.03.44.08.08.07-.18.13-.01a7.107,7.107,0,0,0,.03.9c.08-.04.1.04.13.1l-.07.02c.16.28-.13.2-.04.23h-.05a.5.5,0,0,1,.16.03c.18.12-.17-.05.07.13-.02-.04.2.08.16.14l-.1-.07c-.03.05,0,.08,0,.1Zm3.8-13.7-2.73-.35,2.7.26v.01l-.93-.06.94.1c.01.01.01.03.02.05Zm71.86,13.7a.927.927,0,0,0-.15-.1c-.02-.03-.05-.06-.08-.1a.654.654,0,0,1,.08.13c-.1-.07-.14.03-.2-.07.1,0-.3-.03-.4.08.08-.07-.14-.1-.1-.17-.08.08-.1.14-.12.08h.01l.01-.01c.1,0-.35-.28-.48-.64-.06.07-.15-.13-.2-.03-.33-.27-.27-.75-.63-.67-.13-.14-.07-.23-.1-.32l.04.03a5.487,5.487,0,0,1-.45-.57c-.1-.1-.25-.01-.35-.22.1.02.03-.05-.02-.12.04.04.07.04.04-.08a.091.091,0,0,1-.07-.03c-.1-.12-.1-.08-.06-.02-.01,0-.02.01-.02.04-.02-.17-.26-.34-.18-.42-.28-.34-.56-.53-.8-.8.02-.07.1-.03.2.05l-.17-.2c.07-.05.13.1.2.15-.08-.33-.48-.44-.6-.8l-.1-.02v-.02c-.03.02-.1-.02-.15-.06.03-.08.13-.1.02-.24-.03-.16-.27-.3-.4-.44.05.1,0,.1-.05.06-.06-.07-.03-.15-.1-.2l.07-.06c-.05.08-.22-.13-.27-.14.03-.08.13.08.2.06l-.33-.43c-.17-.1-.05.08-.17.06-.12-.13-.27-.22-.34-.4l-.03.1a1.114,1.114,0,0,1-.4-.6q-.216-.165-.44-.32l-.37-.5-.87-1.2-3.34.6c-1.3.43-3.67.6-5.2,1.04l-.63-.02a7.722,7.722,0,0,1-1.7.32l.03-.04c-.8.22-1.7.32-2.1.43l.03-.04-.98.18.16-.08c-1.4.33-2.84.57-4.13.74l.13.13c-1.38.15-2.3.33-3.2.5l-.4.08c.01-.22.01-.38.01-.38a58.055,58.055,0,0,0-.38-6.63c-.01-.4-.01-.74-.01-1.07,3.33-.2,6.23-.4,6.4-.62.2-.01.4-.03.58-.04,2.5-.1,2.04,0,2.42.08a40.67,40.67,0,0,1,5.16-.44l-1.13.1,7.03-.4-1.05-.13c.1-.02.2-.03.32-.05-.18.04.08.04.07.06q.386-.029.77-.08a11.857,11.857,0,0,0,3.03.03l-.06-.2,3.54-.1c.02,0,.05-.01.07-.01l.03.24.08.9.15,1.76.12,1.73.03.67.52,1.55a5.067,5.067,0,0,0,.24.72,18.153,18.153,0,0,0,.8,2.34l-.07.14c.01.14.14.07.12.24-.06,0-.01.2-.1.13-.03.36.28.67.2,1.16.14.07.12.32.22.37-.05.02.08.46-.08.23-.01-.02-.02-.06,0-.06l-.08-.02c-.08.3.17.45.2.72.01-.08-.02-.18.04-.12l.04.24-.07-.04.04.36.06-.06c0,.18-.12.27.03.44.08.08.07-.18.13-.01a7.1,7.1,0,0,0,.03.9c.08-.04.1.04.13.1l-.07.02c.16.28-.13.2-.04.23h-.05a.5.5,0,0,1,.16.03c.18.12-.17-.05.07.13-.02-.04.2.08.16.14l-.1-.07a.105.105,0,0,0,.01.1Zm41.83,19.85c-.1,0-.17-.01-.25-.01a1.178,1.178,0,0,1,.07.2l.06.27a4.019,4.019,0,0,0-.12.4q-.366-.133-.74-.24l.04-.05a3.929,3.929,0,0,0-2.05.08c-.1-.3-.73-.04-.93-.13v-.02c-.54.22-1.1-.2-1.63,0,.02-.02.03-.1.15-.1-.38.03-.9.1-.93-.08a10.012,10.012,0,0,0-2.75.2l.04-.05c-.33.18-.43.02-.8.1-.02-.02-.05-.03-.04-.04-.36.17-1.05.02-1.34.1v-.1l-.72.02.27.03c-.1.3-.54-.2-1.06,0-.5-.04-1,.63-1.5.47-.24.14.2-.23-.15-.12-.01-.16.17-.1.08-.23-.35.07-.58-.17-1.02-.07l-.02-.12c-.57.22-1.07-.17-1.45.04a.542.542,0,0,1-.5-.12c-.1-.08-.26-.13-.35-.01a.51.51,0,0,1-.03-.17c-.05-.03-.16.2-.22.12.08-.1-.05-.1.1-.18,0-.05-.03-.05-.1-.03a.2.2,0,0,1-.04-.17c.01-.05.05-.1.14-.16-.1.01-.08-.2-.06-.33v-.03l.25-.82c.02.02.03.06.04.15,0,.04-.02.12-.05.1l.1.1c.35-.42.1-.9.26-1.36-.05.08-.08.17-.1.2l.12-.4.03.05.23-.64-.1.04c.01-.04.03-.08.04-.13.14-.2.28-.3.2-.62,0-.01-.01-.02-.02-.03.05-.18.1-.36.16-.54.08-.26.14-.52.22-.8a1.762,1.762,0,0,0,.1-.3.037.037,0,0,1-.03-.01l.18-.64c.1-.04.2-.04.2-.4l-.08-.08q.107-.363.2-.73l.15-.6.2-.84.2-.94a.442.442,0,0,1,.14.12c-.1-.1-.17-.43.02-.16v.02a.313.313,0,0,0,.3.1.383.383,0,0,1,.2.02,2.086,2.086,0,0,1,.46.25c.03-.15.35.07.33-.13.77.14,1.1.9,1.6.52.32.13.3.3.45.4l-.1-.01a7.115,7.115,0,0,1,1.18.6c.24.07.4-.15.75.13-.17.02-.01.1.13.18-.1-.04-.14-.02,0,.15a.331.331,0,0,1,.14,0,.037.037,0,0,1-.01.03c.25.1.23.05.13-.02.01-.01.02-.03,0-.08.17.26.68.4.6.57.7.4,1.3.56,1.9.9.01.12-.17.1-.35.02l.42.24c-.08.1-.27-.1-.4-.15.35.5,1.1.5,1.5,1.06h.17l.02.04c.03-.05.2-.01.3.03,0,.15-.17.2.1.4.14.24.6.42.92.6-.13-.13-.04-.15.05-.13.13.1.13.25.26.3l-.1.13c.05-.16.43.16.5.16-.01.15-.26-.1-.34-.06l.74.65c.33.16.06-.15.27-.13a2.622,2.622,0,0,1,.72.66l.02-.18a2.044,2.044,0,0,1,.83,1.05,19.234,19.234,0,0,1,1.64,1.46.417.417,0,0,0,.08.06c-.16-.01-.3.02-.26-.02Z"/>
    <path id="Path_12541" data-name="Path 12541" d="M243.36,442.06h0l-.16.08ZM227.14,430.7h0a.09.09,0,0,0,.05.01Z"/>
    <g id="Group_873" data-name="Group 873">
      <path id="Path_12542" data-name="Path 12542" d="M179.35,425.35c.01-.01,0-.04-.06-.1Zm-1.47,11.25h0l-.02.07Z" fill="#fff"/>
      <path id="Path_12543" data-name="Path 12543" d="M181.72,430.38l-.1-1.06c-.06-.2-.2-.2-.26-.53.1.1.04-.04.01-.16.03.08.06.1.06-.08a.554.554,0,0,1-.06-.08l.01-.01c-.08-.2-.1-.16-.07-.06-.01,0-.02.01-.03.04.01-.23-.2-.58-.1-.64a4.99,4.99,0,0,0-.95-1.33c.01-.08.12-.01.23.1l-.24-.3c.07-.05.17.15.25.23-.16-.45-.66-.67-.97-1.1l-.12-.03-.02-.03c-.02.03-.14-.02-.2-.06-.01-.1.1-.12-.1-.28-.12-.2-.5-.32-.75-.42.12.1.06.1-.01.08-.1-.07-.14-.17-.25-.18l.03-.1c0,.1-.35-.06-.4-.05-.04-.1.2.03.26,0a5.1,5.1,0,0,0-.73-.3c-.28-.03.02.1-.13.13a3.53,3.53,0,0,1-.73-.18l.07.1a3.622,3.622,0,0,1-1-.17,4.084,4.084,0,0,0-.7.16,6.265,6.265,0,0,0-.86.09,1.469,1.469,0,0,0-.2.05,3.624,3.624,0,0,0-1.53.05l.02-.04a2.443,2.443,0,0,0-1.32.9c-.17-.08-.44.36-.6.44v-.02c-.2.4-.67.6-.8,1a.122.122,0,0,1,.01-.13c-.15.26-.32.63-.42.6a4.133,4.133,0,0,0-.58,2.1l-.02-.04c.07.27-.05.33-.01.63-.01.01-.02.03-.03.03.07.3,0,.82.06,1.04h-.07l.1.55-.01-.2c.2.04-.06.44.16.8.08.38.58.6.66.97.15.13-.2-.1-.02.13-.08.05-.1-.1-.15.01.15.23.1.45.34.7l-.06.05c.35.3.4.75.7.88.35.3.05.38.5.6l.07.2c.16.14.2-.01.35.17-.05.04.2.22.06.18.4.38.96.45,1.54.84.18-.05.5.12.62.05,0,.06.67.17.26.2-.03,0-.1-.02-.08-.04l-.06.06c.36.23.73.08,1.1.12-.1-.03-.27-.04-.16-.08l.36.03-.08.06a3.287,3.287,0,0,0,.54.05l-.08-.07c.26.02.37.17.66.02.13-.08-.26-.07.01-.13a4.872,4.872,0,0,0,1.33-.12c-.07-.07.05-.1.16-.16l.04.07c.4-.26.23.1.64-.17l.03-.13c.32-.3.3.04.6-.38-.15.1-.16-.1.05-.18l-.01.1a1.155,1.155,0,0,1,.2-.16c-.04.08.03.1.17-.01l-.05.15.2-.32c.28-.1.52-.48.68-.47,0,0,.45-.4.45-.58-.02.14.2-.1.2.02a2.051,2.051,0,0,1,.4-.7l-.01.03c.45-.54.44-1.07.74-1.6-.1,0,.04-.3-.1-.25.07-.6.44-1.08.12-1.33,0-.28.1-.32.12-.47l.02.07Zm17.2-7.85h0l.03.04Z" fill="#fff"/>
      <path id="Path_12544" data-name="Path 12544" d="M200.05,421.6c-.06-.06.03-.08-.05-.15.06-.18.37,0,.2-.3.05-.06.12.01.16,0v.02a1.14,1.14,0,0,1,.2-.19c.02-.06-.07-.2.02-.2.02.07.04.04.06.02-.01.02,0,.04.06.05a.09.09,0,0,1-.01-.05h.01c.03-.05.01-.06-.01-.05q0-.015-.03-.03c.1.03.13-.1.2-.02.12-.12.15-.3.23-.4a.11.11,0,0,1,.03.14l.07-.08c.05.06-.02.07-.03.1.17.03.12-.25.3-.24l-.02-.07h.01a.121.121,0,0,1-.01-.1c.06.04.1.13.15.08.08.02.1-.12.14-.2-.04.01-.05-.02-.05-.05.03-.02.08.02.1-.02l.06.07c-.06-.06.01-.13,0-.17.06.04-.01.08.02.13a1.072,1.072,0,0,1,.16-.14c.02-.1-.07-.06-.1-.15.04-.05.05-.15.14-.15l-.07-.05c.06-.13.12-.16.24-.15.3-1.1-.42-.86-.42-.86-.4.07-.4.38-.7.7-.32.2-.5.13-.77.4a2.187,2.187,0,0,0-.42.38c.01.15-.2.15-.2.3l-.08-.03c-.01.05-.02.1-.08.1l-.01-.02c-.01.08-.08.1-.08.12l-.01-.02-.04.05-.01-.03a.33.33,0,0,1-.2.2l.06.07c-.2.03-.14.2-.34.22h-.01c-.02.3-.35.07-.38.37,0-.04-.04-.03-.05-.05-.06.08-.13.15-.03.3-.06.04-.08-.01-.13-.05a.112.112,0,0,1-.02.16v-.04l-.1.12.1.1c-.1.02-.12-.12-.16-.05l.07.1c-.1.05-.27-.05-.4-.05-.4.24-.6.78-1.08.88l-.07-.06c-.08-.1.02.22-.06.14v.08c-.03-.01-.06-.01-.06-.05-.04.02-.03.04-.03.1l-.1-.03c-.18.06-.2.28-.38.37-.28.01-.54.4-.68.62-.16.37-.8.2-.95.6-.02-.01-.02.04-.01.06l-.27.2s-1.3.93.3,1.04l.01.03c.18-.06.28-.1.3-.3.12.13.13-.08.2-.06l.01.01c.01-.17.25-.05.26-.2.01.01.03.05.01.07.05-.06.1-.16.17-.08.13-.13.36-.25.36-.45l.01.03c-.01-.13.06-.07.1-.16.01.01.02.01.02.02-.01-.13.16-.14.18-.22l.04.05.1-.1-.05.02c-.1-.16.16.02.17-.13.1-.04-.07-.43.06-.42-.01-.1.05.14.07.04.06.07.01.07.07.12.03-.08.15.01.18-.1l.05.06c.01-.18.23-.06.22-.2.06-.12.2.13.2-.06l.1.05c.05-.02-.04-.12.03-.12.04.05.1-.01.1.06.17,0,.13-.28.37-.25-.04-.12.07-.12.04-.2.04.04.15-.1.14.05,0,.01-.01.02-.03,0l.03.07c.16.05.1-.17.2-.22-.04,0-.07.03-.08-.03l.08-.05.02.06.13-.06-.06-.05c.08-.01.18.08.17-.05-.01-.07-.1-.04-.07-.1a1.169,1.169,0,0,0,.36-.08c-.06-.06-.03-.08-.02-.1l.05.06c.03-.16.14.1.18-.04l-.05-.1c0-.18.14.1.1-.15-.03.04-.12-.12-.05-.13l.03.07c.02-.03.01-.06.03-.06.01.04.06.1.1.05l.03.1-.01-.16c.1.02.13-.13.22-.06,0,0,.15-.05.1-.16.02.07.1.04.13.12-.02-.1.04-.2.12-.17v.01c.2-.02.17-.26.36-.27Z" fill="#fff"/>
      <path id="Path_12545" data-name="Path 12545" d="M206.2,422.2c-.01-.1-.08-.04-.12-.12.02-.06.01-.15.1-.18l-.08-.03c.02-.13.07-.2.2-.2-.01-1.12-.63-.7-.63-.7-.36.17-.27.46-.47.83-.25.27-.44.25-.62.6a3.146,3.146,0,0,0-.3.47c.05.14-.14.2-.1.33h-.08c.01.05,0,.1-.05.1l-.02-.01c.01.07-.05.1-.04.14h-.02l-.03.06-.02-.03a.317.317,0,0,1-.13.23l.07.05c-.18.08-.08.24-.26.3h-.02c.07.3-.3.16-.26.45-.01-.04-.04-.02-.06-.03-.04.1-.1.18.05.28-.04.05-.08.01-.13-.02.06.04.05.1.02.16v-.04l-.07.14.13.06c-.08.04-.15-.1-.17,0l.1.07c-.1.08-.27.02-.4.06-.3.33-.36.9-.78,1.1l-.08-.04c-.1-.07.08.2-.02.15l.02.07c-.03,0-.06.01-.07-.03-.03.03-.01.05,0,.1h-.1c-.16.1-.12.32-.26.45-.27.08-.4.5-.48.76-.05.4-.7.4-.74.82-.02,0-.01.05.01.06l-.2.25s-.98,1.22.6.9l.02.02c.16-.1.24-.18.2-.36.15.1.1-.1.17-.1h.01c-.04-.17.22-.1.2-.26.01.01.05.04.03.06.03-.07.06-.18.14-.12.1-.16.28-.33.22-.52l.02.02c-.05-.12.04-.08.04-.17a.037.037,0,0,1,.03.01c-.04-.12.1-.18.1-.25l.06.04.07-.12-.04.03c-.14-.13.16-.02.12-.17.08-.06-.2-.4-.06-.4-.04-.1.1.12.08.02.08.06.03.06.1.1.01-.08.15-.03.15-.14l.06.04c-.04-.17.2-.1.15-.25.02-.13.22.07.18-.1l.1.02c.04-.03-.08-.1,0-.12.05.04.08-.03.1.04.16-.04.05-.3.28-.33-.08-.1.03-.13-.02-.2.05.03.1-.13.15.01,0,.01-.01.02-.02.01l.05.05c.17,0,.05-.2.12-.25-.04.01-.05.04-.08-.01l.06-.07.04.05.1-.1-.07-.03c.07-.03.2.03.15-.1-.03-.06-.12-.01-.1-.08a1.227,1.227,0,0,0,.32-.17c-.08-.04-.05-.07-.05-.1l.06.04c-.01-.16.16.06.16-.08l.04.04-.1-.12c-.05-.17.16.05.07-.17-.02.05-.15-.08-.08-.1l.05.05c.01-.03-.01-.06.01-.07.02.04.08.07.1.03l.05.08-.05-.15c.1-.01.1-.15.2-.1,0,0,.13-.1.06-.18.04.07.1.02.16.08-.04-.08-.02-.2.07-.2h0c.17-.08.08-.3.25-.36-.07-.05.01-.08-.1-.13.01-.2.35-.1.1-.34.03-.07.1-.02.15-.04h0a.919.919,0,0,1,.14-.23c0-.06-.12-.16-.04-.2.03.06.05.02.07,0,0,.02.01.04.07.03-.01-.02-.02-.03-.02-.04.02-.05,0-.05-.02-.04-.01-.01-.02-.01-.04-.02.1,0,.1-.13.18-.07a1.85,1.85,0,0,0,.1-.44.131.131,0,0,1,.07.12l.04-.1c.06.05,0,.07,0,.1.17-.01.04-.27.22-.3l-.03-.06h.01a.1.1,0,0,1-.04-.1c.07.03.13.1.17.04.1,0,.06-.14.08-.22-.03.02-.06-.01-.07-.04.02-.03.1,0,.08-.04l.08.05c-.08-.04-.02-.13-.05-.16.07.03.02.08.05.12.05-.15.01-.1.1-.2Zm3.07,3.23v-.01Z" fill="#fff"/>
      <path id="Path_12546" data-name="Path 12546" d="M211,424.78c-.03-.1-.08-.04-.14-.1.01-.06-.02-.13.06-.16l-.08-.03c0-.12.03-.17.14-.18-.2-1-.72-.6-.72-.6-.3.16-.18.42-.3.76-.2.25-.38.24-.48.55a2.072,2.072,0,0,0-.2.43c.07.13-.1.17-.05.3l-.08-.01c.02.04.02.1-.03.1l-.02-.01c.02.07-.03.1-.02.12l-.02-.01-.02.05-.02-.02a.21.21,0,0,1-.08.2l.08.04c-.16.08-.03.22-.2.27l-.02-.01c.1.26-.27.15-.17.4-.01-.03-.04-.01-.06-.03-.02.08-.05.16.1.25-.03.05-.07.01-.13-.01a.111.111,0,0,1,.05.14l-.01-.03-.04.13.13.05c-.07.04-.16-.07-.16,0l.1.06c-.07.07-.25.03-.37.06-.24.3-.2.8-.55,1.02l-.08-.03c-.1-.06.1.18,0,.13l.03.07c-.03,0-.06.01-.07-.03-.02.03-.01.04.01.1l-.1-.01c-.13.1-.06.3-.17.4-.24.08-.3.47-.32.7.02.35-.6.38-.56.75-.02,0,0,.04.01.05l-.16.23s-.72,1.12.7.8l.02.02c.14-.1.2-.17.13-.33.16.07.08-.1.14-.1v.01c-.07-.15.2-.1.13-.24.01.01.05.04.04.05.01-.07.03-.16.1-.1.06-.15.2-.3.12-.47l.02.02c-.06-.1.02-.07.01-.15a.037.037,0,0,1,.03.01c-.06-.1.08-.16.06-.23l.06.03.05-.1-.04.03c-.15-.1.15-.02.1-.16.06-.06-.24-.34-.12-.37-.05-.08.1.1.08.02.08.05.04.06.1.08-.01-.07.13-.03.12-.13l.07.04c-.07-.15.18-.1.1-.23,0-.12.22.06.15-.1l.1.02c.04-.03-.1-.1-.02-.1.05.03.08-.03.1.03.14-.05-.01-.27.2-.3-.1-.1.01-.12-.06-.18.05.02.08-.12.14.01,0,.01,0,.02-.02.01l.06.05c.16,0,.01-.17.07-.23-.03.01-.04.04-.08,0l.05-.06.05.05.1-.08-.07-.03c.06-.03.18.02.12-.1-.04-.06-.12-.01-.1-.07a1.4,1.4,0,0,0,.28-.17c-.08-.04-.06-.06-.06-.1l.07.04c-.04-.14.16.05.14-.08l-.08-.07c-.08-.15.16.04.04-.15-.01.04-.15-.07-.1-.1l.06.05c0-.03-.02-.05,0-.06.03.03.1.06.1.02l.06.07-.08-.13c.1-.01.06-.14.16-.1,0,0,.1-.08.03-.16.05.06.1.01.16.07-.05-.07-.06-.18.03-.17h0c.15-.08.02-.27.18-.33-.08-.04,0-.07-.1-.12-.03-.17.32-.1.05-.3.01-.06.1-.02.14-.04l.01.02a.469.469,0,0,1,.1-.2c-.01-.05-.14-.14-.07-.18.04.05.05.02.06,0,0,.02.02.04.07.03-.01-.01-.02-.03-.03-.04.01-.04-.01-.04-.03-.03-.01-.01-.02-.01-.04-.01.1,0,.06-.12.16-.07.05-.13,0-.28.03-.4a.127.127,0,0,1,.08.1l.02-.08c.07.04.02.06.02.1.16-.02-.01-.24.15-.28l-.04-.05h.01a.141.141,0,0,1-.06-.08c.07.02.14.08.16.03.08,0,.04-.13.03-.2-.03.02-.05-.01-.07-.03.01-.03.08,0,.07-.04l.08.05c-.08-.04-.04-.1-.07-.14.07.02.03.07.07.1a.734.734,0,0,1,.08-.22Zm44,.57c.01-.01,0-.04-.06-.1Zm-1.46,11.25h0l-.02.07Z" fill="#fff"/>
      <path id="Path_12547" data-name="Path 12547" d="M257.37,430.38l-.1-1.06c-.06-.2-.2-.2-.26-.53.1.1.04-.04.01-.16.03.08.06.1.06-.08a.554.554,0,0,1-.06-.08l.01-.01c-.08-.2-.1-.16-.07-.06-.01,0-.02.01-.03.04.01-.23-.2-.58-.1-.64a4.99,4.99,0,0,0-.95-1.33c.01-.08.12-.01.23.1l-.24-.3c.07-.05.17.15.25.23-.16-.45-.66-.67-.97-1.1l-.12-.03-.02-.03c-.02.03-.14-.02-.2-.06-.01-.1.1-.12-.1-.28-.12-.2-.5-.32-.75-.42.12.1.06.1-.01.08-.1-.07-.14-.17-.25-.18l.03-.1c0,.1-.35-.06-.4-.05-.04-.1.2.03.26,0a5.1,5.1,0,0,0-.73-.3c-.28-.03.02.1-.13.13a3.53,3.53,0,0,1-.73-.18l.07.1a3.622,3.622,0,0,1-1-.17,4.084,4.084,0,0,0-.7.16,6.265,6.265,0,0,0-.86.09,1.469,1.469,0,0,0-.2.05,3.624,3.624,0,0,0-1.53.05l.02-.04a2.443,2.443,0,0,0-1.32.9c-.17-.08-.44.36-.6.44v-.02c-.2.4-.67.6-.8,1a.122.122,0,0,1,.01-.13c-.15.26-.32.63-.42.6a4.133,4.133,0,0,0-.58,2.1l-.02-.04c.07.27-.05.33-.01.63-.01.01-.02.03-.03.03.07.3,0,.82.06,1.04h-.1l.1.55v-.2c.2.04-.06.44.16.8.08.38.58.6.66.97.15.13-.2-.1-.02.13-.08.05-.1-.1-.15.01.15.23.1.45.34.7l-.06.05c.35.3.4.75.7.88.35.3.05.38.5.6l.07.2c.16.14.2-.01.35.17-.05.04.2.22.06.18.4.38.96.45,1.54.84.18-.05.5.12.62.05,0,.06.67.17.26.2-.03,0-.1-.02-.08-.04l-.06.06c.36.23.73.08,1.1.12-.1-.03-.27-.04-.16-.08l.36.03-.08.06a3.287,3.287,0,0,0,.54.05l-.08-.07c.26.02.37.17.66.02.13-.08-.26-.07.01-.13a4.872,4.872,0,0,0,1.33-.12c-.07-.07.05-.1.16-.16l.04.07c.4-.26.23.1.64-.17l.03-.13c.32-.3.3.04.6-.38-.15.1-.16-.1.05-.18v.1a1.155,1.155,0,0,1,.2-.16c-.04.08.03.1.17-.01l-.05.15.2-.32c.28-.1.52-.48.68-.47,0,0,.45-.4.45-.58-.02.14.2-.1.2.02a2.051,2.051,0,0,1,.4-.7l-.01.03c.45-.54.44-1.07.74-1.6-.1,0,.04-.3-.1-.25.07-.6.44-1.08.12-1.33,0-.28.1-.32.12-.47l.02.07Zm17.23-7.85h0v.04Z" fill="#fff"/>
      <path id="Path_12548" data-name="Path 12548" d="M200.05,421.6c-.06-.06.03-.08-.05-.15.06-.18.37,0,.2-.3.05-.06.12.01.16,0v.02a1.14,1.14,0,0,1,.2-.19c.02-.06-.07-.2.02-.2.02.07.04.04.06.02-.01.02,0,.04.06.05a.09.09,0,0,1-.01-.05h.01c.03-.05.01-.06-.01-.05q0-.015-.03-.03c.1.03.13-.1.2-.02.12-.12.15-.3.23-.4a.11.11,0,0,1,.03.14l.07-.08c.05.06-.02.07-.03.1.17.03.12-.25.3-.24l-.02-.07h.01a.121.121,0,0,1-.01-.1c.06.04.1.13.15.08.08.02.1-.12.14-.2-.04.01-.05-.02-.05-.05.03-.02.08.02.1-.02l.06.07c-.06-.06.01-.13,0-.17.06.04-.01.08.02.13a1.072,1.072,0,0,1,.16-.14c.02-.1-.07-.06-.1-.15.04-.05.05-.15.14-.15l-.07-.05c.06-.13.12-.16.24-.15.3-1.1-.42-.86-.42-.86-.4.07-.4.38-.7.7-.32.2-.5.13-.77.4a2.187,2.187,0,0,0-.42.38c.01.15-.2.15-.2.3l-.08-.03c-.01.05-.02.1-.08.1l-.01-.02c-.01.08-.08.1-.08.12l-.01-.02-.04.05-.01-.03a.33.33,0,0,1-.2.2l.06.07c-.2.03-.14.2-.34.22h-.01c-.02.3-.35.07-.38.37,0-.04-.04-.03-.05-.05-.06.08-.13.15-.03.3-.06.04-.08-.01-.13-.05a.112.112,0,0,1-.02.16v-.04l-.1.12.1.1c-.1.02-.12-.12-.16-.05l.07.1c-.1.05-.27-.05-.4-.05-.4.24-.6.78-1.08.88l-.07-.06c-.08-.1.02.22-.06.14v.08c-.03-.01-.06-.01-.06-.05-.04.02-.03.04-.03.1l-.1-.03c-.18.06-.2.28-.38.37-.28.01-.54.4-.68.62-.16.37-.8.2-.95.6-.02-.01-.02.04-.01.06l-.27.2s-1.3.93.3,1.04l.01.03c.18-.06.28-.1.3-.3.12.13.13-.08.2-.06l.01.01c.01-.17.25-.05.26-.2.01.01.03.05.01.07.05-.06.1-.16.17-.08.13-.13.36-.25.36-.45l.01.03c-.01-.13.06-.07.1-.16.01.01.02.01.02.02-.01-.13.16-.14.18-.22l.04.05.1-.1-.05.02c-.1-.16.16.02.17-.13.1-.04-.07-.43.06-.42-.01-.1.05.14.07.04.06.07.01.07.07.12.03-.08.15.01.18-.1l.05.06c.01-.18.23-.06.22-.2.06-.12.2.13.2-.06l.1.05c.05-.02-.04-.12.03-.12.04.05.1-.01.1.06.17,0,.13-.28.37-.25-.04-.12.07-.12.04-.2.04.04.15-.1.14.05,0,.01-.01.02-.03,0l.03.07c.16.05.1-.17.2-.22-.04,0-.07.03-.08-.03l.08-.05.02.06.13-.06-.06-.05c.08-.01.18.08.17-.05-.01-.07-.1-.04-.07-.1a1.169,1.169,0,0,0,.36-.08c-.06-.06-.03-.08-.02-.1l.05.06c.03-.16.14.1.18-.04l-.05-.1c0-.18.14.1.1-.15-.03.04-.12-.12-.05-.13l.03.07c.02-.03.01-.06.03-.06.01.04.06.1.1.05l.03.1-.01-.16c.1.02.13-.13.22-.06,0,0,.15-.05.1-.16.02.07.1.04.13.12-.02-.1.04-.2.12-.17v.01c.2-.02.17-.26.36-.27Z" transform="translate(75.65)" fill="#fff"/>
      <path id="Path_12549" data-name="Path 12549" d="M281.86,422.2c-.01-.1-.08-.04-.12-.12.02-.06.01-.15.1-.18l-.08-.03c.02-.13.07-.2.2-.2-.01-1.12-.63-.7-.63-.7-.36.17-.27.46-.47.83-.25.27-.44.25-.62.6a3.144,3.144,0,0,0-.3.47c.05.14-.14.2-.1.33h-.08c.01.05,0,.1-.05.1v-.01c.01.07-.05.1-.04.14h-.02l-.03.06-.02-.03a.317.317,0,0,1-.13.23l.07.05c-.18.08-.08.24-.26.3h-.02c.07.3-.3.16-.26.45-.01-.04-.04-.02-.06-.03-.04.1-.1.18.05.28-.04.05-.08.01-.13-.02.06.04.05.1.02.16l-.01-.04-.07.14.13.06c-.08.04-.15-.1-.17,0l.1.07c-.1.08-.27.02-.4.06-.3.33-.36.9-.78,1.1l-.08-.04c-.1-.07.08.2-.02.15l.02.07c-.03,0-.06.01-.07-.03-.03.03-.01.05,0,.1h-.1c-.16.1-.12.32-.26.45-.27.08-.4.5-.48.76-.05.4-.7.4-.74.82-.02,0-.01.05.01.06l-.2.25s-.98,1.22.6.9l.02.02c.16-.1.24-.18.2-.36.15.1.1-.1.17-.1h0c-.04-.17.22-.1.2-.26.01.01.05.04.03.06.03-.07.06-.18.14-.12.1-.16.28-.33.22-.52l.02.02c-.05-.12.04-.08.04-.17a.037.037,0,0,1,.03.01c-.04-.12.1-.18.1-.25l.06.04.07-.12-.04.03c-.14-.13.16-.02.12-.17.08-.06-.2-.4-.06-.4-.04-.1.1.12.08.02.08.06.03.06.1.1.01-.08.15-.03.15-.14l.06.04c-.04-.17.2-.1.15-.25.02-.13.22.07.18-.1l.1.02c.04-.03-.08-.1,0-.12.05.04.08-.03.1.04.16-.04.05-.3.28-.33-.08-.1.03-.13-.02-.2.05.03.1-.13.15.01,0,.01-.01.02-.02.01l.05.05c.17,0,.05-.2.12-.25-.04.01-.05.04-.08-.01l.06-.07.04.05.1-.1-.07-.03c.07-.03.2.03.15-.1-.03-.06-.12-.01-.1-.08a1.227,1.227,0,0,0,.32-.17c-.08-.04-.05-.07-.05-.1l.06.04c-.01-.16.16.06.16-.08l.04.04-.1-.12c-.05-.17.16.05.07-.17-.02.05-.15-.08-.08-.1l.05.05c.01-.03-.01-.06.01-.07.02.04.08.07.1.03l.05.08-.05-.15c.1-.01.1-.15.2-.1,0,0,.13-.1.06-.18.04.07.1.02.16.08-.04-.08-.02-.2.07-.2h0c.17-.08.08-.3.25-.36-.07-.05.01-.08-.1-.13.01-.2.35-.1.1-.34.03-.07.1-.02.15-.04h0a.92.92,0,0,1,.14-.23c0-.06-.12-.16-.04-.2.03.06.05.02.07,0,0,.02.01.04.07.03-.01-.02-.02-.03-.02-.04.02-.05,0-.05-.02-.04-.01-.01-.02-.01-.04-.02.1,0,.1-.13.18-.07a1.851,1.851,0,0,0,.1-.44.131.131,0,0,1,.07.12l.04-.1c.06.05,0,.07,0,.1.17-.01.04-.27.22-.3l-.03-.06h.01a.1.1,0,0,1-.04-.1c.07.03.13.1.17.04.1,0,.06-.14.08-.22-.03.02-.06-.01-.07-.04.02-.03.1,0,.08-.04l.08.05c-.08-.04-.02-.13-.05-.16.07.03.02.08.05.12.06-.15.02-.1.1-.2Zm3.07,3.23v-.01h-.01Z" fill="#fff"/>
      <path id="Path_12550" data-name="Path 12550" d="M286.65,424.78c-.03-.1-.08-.04-.14-.1.01-.06-.02-.13.06-.16l-.08-.03c0-.12.03-.17.14-.18-.2-1-.72-.6-.72-.6-.3.16-.18.42-.3.76-.2.25-.38.24-.48.55a2.072,2.072,0,0,0-.2.43c.07.13-.1.17-.05.3l-.08-.01c.02.04.02.1-.03.1l-.02-.01c.02.07-.03.1-.02.12l-.02-.01v.03a.21.21,0,0,1-.08.2l.08.04c-.16.08-.03.22-.2.27l-.02-.01c.1.26-.27.15-.17.4-.01-.03-.04-.01-.06-.03-.02.08-.05.16.1.25-.03.05-.07.01-.13-.01a.111.111,0,0,1,.05.14l-.01-.03-.04.13.13.05c-.07.04-.16-.07-.16,0l.1.06c-.07.07-.25.03-.37.06-.24.3-.2.8-.55,1.02l-.08-.03c-.1-.06.1.18,0,.13l.03.07c-.03,0-.06.01-.07-.03-.02.03-.01.04.01.1l-.1-.01c-.13.1-.06.3-.17.4-.24.08-.3.47-.32.7.02.35-.6.38-.56.75-.02,0,0,.04.01.05l-.16.23s-.72,1.12.7.8l.02.02c.14-.1.2-.17.13-.33.16.07.08-.1.14-.1l.01.01c-.07-.15.2-.1.13-.24.01.01.05.04.04.05.01-.07.03-.16.1-.1.06-.15.2-.3.12-.47l.02.02c-.06-.1.02-.07.01-.15a.037.037,0,0,1,.03.01c-.06-.1.08-.16.06-.23l.06.03.05-.1-.04.03c-.15-.1.15-.02.1-.16.06-.06-.24-.34-.12-.37-.05-.08.1.1.08.02.08.05.04.06.1.08-.01-.07.13-.03.12-.13l.07.04c-.07-.15.18-.1.1-.23,0-.12.22.06.15-.1l.1.02c.04-.03-.1-.1-.02-.1.05.03.08-.03.1.03.14-.05-.01-.27.2-.3-.1-.1.01-.12-.06-.18.05.02.08-.12.14.01,0,.01,0,.02-.02.01l.06.05c.16,0,.01-.17.07-.23-.03.01-.04.04-.08,0l.05-.06.05.05.1-.08-.07-.03c.06-.03.18.02.12-.1-.04-.06-.12-.01-.1-.07a1.4,1.4,0,0,0,.28-.17c-.08-.04-.06-.06-.06-.1l.07.04c-.04-.14.16.05.14-.08l-.08-.07c-.08-.15.16.04.04-.15-.01.04-.15-.07-.1-.1l.06.05c0-.03-.02-.05,0-.06.03.03.1.06.1.02l.06.07-.08-.13c.1-.01.06-.14.16-.1,0,0,.1-.08.03-.16.05.06.1.01.16.07-.05-.07-.06-.18.03-.17h0c.15-.08.02-.27.18-.33-.08-.04,0-.07-.1-.12-.03-.17.32-.1.05-.3.01-.06.1-.02.14-.04l.01.02a.469.469,0,0,1,.1-.2c-.01-.05-.14-.14-.07-.18.04.05.05.02.06,0,0,.02.02.04.07.03-.01-.01-.02-.03-.03-.04.01-.04-.01-.04-.03-.03-.01-.01-.02-.01-.04-.01.1,0,.06-.12.16-.07.05-.13,0-.28.03-.4a.127.127,0,0,1,.08.1v-.08c.07.04.02.06.02.1.16-.02-.01-.24.15-.28l-.04-.05h.01a.141.141,0,0,1-.06-.08c.07.02.14.08.16.03.08,0,.04-.13.03-.2-.03.02-.05-.01-.07-.03.01-.03.08,0,.07-.04l.08.05c-.08-.04-.04-.1-.07-.14.07.02.03.07.07.1a1.2,1.2,0,0,1,.08-.22ZM270.02,250.53l.02.3Zm-13.34-22.76.1-.03-1.3,3.64-.01-.1-1.07,4.43a12.156,12.156,0,0,0-.6,2v-.05c-.17,1.2-.73,2.36-.9,3.5a.648.648,0,0,1,.02-.34,9.413,9.413,0,0,1-.57,1.98l-1.44,5.94v-.1c-.1.74-.23.92-.4,1.73-.02.04-.05.1-.05.08-.1.8-.6,2.26-.72,2.9l-.08.02-.4,1.54.17-.57c.12.25-.43,1.13-.62,2.28-.3,1.04-.2,2.22-.6,3.28-.06.54-.01-.5-.16.3-.1,0,.04-.38-.1-.2-.17.77-.44,1.22-.63,2.17h-.08c-.2,1.26-.73,2.28-.83,3.12-.3,1.27-.45.78-.67,2.13l-.24.48c-.17.56.01.43-.2,1.04-.05-.05-.27.77-.22.4-.48,1.38-.65,2.9-1.32,4.7.01.44-.32,1.35-.3,1.68-.07.04-.52,1.87-.35.8.02-.1.06-.25.08-.23l-.04-.15a26.027,26.027,0,0,0-.76,2.98c.1-.3.22-.72.2-.43l-.28.97v-.22l-.43,1.44.13-.18a7.106,7.106,0,0,0-.54,1.74c-.04.38.28-.64.1.1l-1.13,3.54c.1-.1.02.23-.05.57h-.08c-.25,1.3-.3.43-.56,1.72l.04.25c-.17,1.2-.32.58-.48,1.9.13-.5.22-.2.02.42l-.03-.18a6.337,6.337,0,0,1-.16.7c.02-.22-.07-.14-.2.37l.01-.36-.14,1c-.28.72-.5,1.9-.7,2.2a11.788,11.788,0,0,0-.48,1.97c.02-.34-.25.53-.25.26a9.713,9.713,0,0,1-.52,2.13l.02-.1-1.28,4.7c.1-.05-.18.8-.01.6-.35,1.7-1.06,3-.9,3.68a12.022,12.022,0,0,1-.45,1.27l.03-.2-.77,2.9a6.625,6.625,0,0,1-.28,1.6c.02-.32-.07.07-.17.42.05-.23.05-.3-.12.15,0,.07-.02.17-.03.27-.01,0-.01.02-.02.01-.14.6-.1.5-.01.23.01.02.02,0,.06-.08a15.65,15.65,0,0,1-.6,1.76l-1.07,4.57c-.1.15-.05-.2.04-.64l-.3,1.06c-.08-.03.12-.6.2-.94-.47,1.2-.58,2.6-1.1,4.04l-.02.32-.03.08a1.724,1.724,0,0,1-.06.56c-.12.2-.15-.06-.35.67a22.673,22.673,0,0,0-.6,2.4c.12-.4.12-.26.1-.08-.1.36-.22.55-.27.84h-.1c.13-.12-.17.97-.17,1.12-.12.2.1-.58.07-.68l-.6,2.18c-.14.8.12-.12.1.28l-.56,2.14.15-.23a18.973,18.973,0,0,1-.83,2.9c-1.98,9.76.35,2.26.35,2.26,1.22-3.72,1.52-5.73,2.7-10.24,1.13-3.93,1.57-4.94,2.63-9.04l1.6-5.95c.13-.94.7-2.5.88-3.6l.18-.4a6.8,6.8,0,0,1,.3-1.18l.01.03c.1-.57.3-1.18.35-1.46l.01.03.18-.67v.12c.2-.98.48-1.97.74-2.83l-.1.05c.6-1.84.62-2.57,1.2-4.22l.01.03c.36-2.2,1.08-3.32,1.47-5.58-.05.28.08-.1.1-.08.25-1.02.54-2.1.38-2.16.2-.74.22-.6.3-.66a3.774,3.774,0,0,1,.23-1.24l-.04.27.43-1.65-.23.3c.28-.86.23-.18.42-1.02l-.12-.02c.35-1.2.72-1.86,1.13-3,1.4-4.85,2.54-10.15,3.98-14.62l.14-.18c.15-.05.16-1.3.32-1.44l.1-.54c.06-.14.17-.45.13-.18a4.738,4.738,0,0,0,.18-.86l.22-.5c.6-1.9.9-3.57,1.5-5.6.83-2.38,1.94-7,2.57-9.65.82-3.75,2.47-7.93,3.25-11.8a1.4,1.4,0,0,0,.08-.45l.92-3.48s1.1-4.22,1.63-6.88l.22-1.24.3-.1c5.3-2,5.8-4.1,5.9-4.6.2-2.1.3-15.8.3-16.4v-.1h-6.9l-.18,21.38Zm1.5-20.6h4.2c0,2.9-.1,13.9-.3,15.6-.1,1-2.2,2.2-4.1,3.1l.2-18.7Z" fill="#fff"/>
      <path id="Path_12551" data-name="Path 12551" d="M230.04,324.8c-.02,0-.05.07-.1.3Zm4.16-10.86c0,.05-.01.07-.01.1v-.1Zm5.5-25.5h0l-.02-.12Z" fill="#fff"/>
    </g>
  </g>
</svg>
