<svg xmlns="http://www.w3.org/2000/svg" viewBox="0 0 480 480" xmlns:v="https://vecta.io/nano"><path d="M362.02 207.7c-.6-.35-1.47-.7-2.46-1.06l.42-.07c1.03-.3 2.16-1.18 2.45-1.76s.3-1.08.2-1.32-1.28-1.14-1.28-1.14l-9.45-1.5-5.2-.27-3.16.1c-3.54-1.27-6.75-2.4-9.7-3.78-1.26-.63-8.7-5.56-17.26-11.26l.26-.44c.6-.8.4-1.9-.4-2.5-5.3-3.8-23.5-17-27.9-20.7-5.1-4.4-11.3-12.4-23.1-30.2-7-10.55-13.18-18.3-17.06-22.84-2.3-4.6-6.15-8.27-12.4-10.3.58-.86 1.12-1.83 1.5-2.95l2.16-1.12c1.3-.6 1.8-2.1 1.1-3.4l-8.18-15.55c-.01-.01-.01-.04-.02-.05l-3-5.7c-.6-1.3-2.2-1.7-3.4-1.1l-8.9 4.6c-1.3.6-1.7 2.2-1.1 3.4l3.74 7.1c-.75-.47-1.44-.1-1.44-.1.5 3 0 6.4-.2 8.7 0 2 1.06 3.66 1.1 5.07-2.54.57-5.12 1.55-7.74 3.04-10 2.15-20.16 11.2-31.77 28.8-13.6 20.6-17.4 31.7-16 41.3.37 2.38.75 4.4 1.22 6.2l-12.52 28.3c-.6 1.3.3 2.6 1.6 2.6h2.1c.13 1.1 1.92 12.4 22.1 12.4 26.1 0 57.5-12.5 57.5-12.5H184.5l60.74-.2s1.36-10.36 2.8-27.3c5.82 6.5 11.3 11.83 15.2 13.9 11.4 6 32.1 11.2 38.5 12.7 1.1.3 2.3-.2 2.9-1.2l.18-.3c10.3 2.7 19.55 4.74 28.02 6.9 1.7.4 3.4 1.3 5.8 1.6 2-3.5 5.8-5.8 10.1-5.8 6.4 0 11.6 5.1 11.6 11.5 0 1.1-.2 2.2-.5 3.3.1.2.2.4.4.5 3.6 1.7 4.8-14 1.8-15.6zM223.8 91.4c-.37-.12-.72-.6-1.08-1.1-.5-.7-.7-1.7-1.1-3.05l2.18 4.15zM191 220.6l.13-.03h-.02l-.1.03zm79.84-82.03l.4.68c.02-.02-.07-.2-.4-.68zm-30.4 70.2l.3-.02h-.05l-.24.02zm-67.7-70.46l-.1.18c.01-.01.01-.02.02-.03.02-.05.05-.1.07-.15z" fill="#fff"/><path d="M220.67 75.85c0-.86-.7-1.56-1.56-1.56s-1.56.7-1.56 1.56.7 1.56 1.56 1.56 1.56-.7 1.56-1.56zm-2.1 0a.56.56 0 1 1 1.12 0 .56.56 0 1 1-1.12 0zm2 1.33c-.86 0-1.56.7-1.56 1.56s.7 1.56 1.56 1.56 1.56-.7 1.56-1.56a1.57 1.57 0 0 0-1.56-1.56zm0 2.1a.56.56 0 1 1 .56-.56c0 .3-.26.56-.56.56zm77.82 128h0l-.3.01zm-78.33-64.65h0l-.04.23z"/><path d="M364.05 211.73c-.2-1.5-.55-2.78-1.1-3.53-.25-.38-.57-.6-.75-.67s-.2-.05-.12.04c.24.17.9.9 1.15 2.62.27 1.7.36 4.3-.25 7.8v-.2c-.16 1.04-.38 1.97-.64 2.8-.27.8-.6 1.56-1.04 2-.22.23-.42.3-.6.3-.15.01-.28-.08-.33-.22l.17-.87.13-1.14c.13-.23.2-1.17.1-2.16-.03-.5-.15-1-.22-1.45l-.27-1.08.04.1c-.88-2.58-2.54-5.15-4.85-6.53.1.05.16.04.66.4-.76-.6-1.8-1.12-2.62-1.5l-1.58-.6c-1.3-.36-2.8-.5-4.3-.36.93-.15 1.93-.23 3-.17 3.8.2 6.3.3 8.7 0 .5-.07.97-.22 1.42-.4l.44.14a10.86 10.86 0 0 1 1.04.4c.5.22.6.2.42.05a3.89 3.89 0 0 0-.46-.34l-.38-.23-.22-.13-.14-.1-.04-.04c.04-.01.08-.01.12-.02.16-.07 0 .1.66-.4.43-.34.68-.66.68-.66.12-.13.26-.38.33-.53a3.24 3.24 0 0 0 .19-.52 2.61 2.61 0 0 0 .09-.58c.01-.2-.02-.5-.1-.73-.06-.12-.12-.23-.2-.33l-.23-.24-.32-.3-.63-.52-.3-.23-.37-.06-.4-.07-.72-.12-2.77-.44-5.46-.8-3.18-.12-1.07-.06-.25.01-.78-.03-2.05.1h-1.15l-1.45-.5-5.28-2.04-2.1-.93c-.68-.3-1.18-.65-1.8-1.04l-8.7-5.7-6.2-4.1.15-.27c.2-.42.28-.9.26-1.33-.04-.9-.5-1.7-1.15-2.22l-1.3-.9-4.9-3.55c.07.23-1.7-1.17-1.37-.7-3.7-2.46-6.32-5.08-7.95-5.57-1.65-1.17-1.85-1.53-2.67-2.17l.4.26-6.18-4.58c-1.14-.8-1.5-.72-3.42-2.32.7.42-.12-.2-.83-.8.47.36.62.46-.25-.38-.15-.1-.36-.25-.55-.4 0-.01-.03-.05-.01-.04-1.15-1.03-.97-.83-.46-.32-.04-.01-.01.04.13.22l-3.13-3.48a143.29 143.29 0 0 1-7.65-9.2c-.2-.4.42.28 1.13 1.17l-1.67-2.23c.12-.06 1 1.25 1.53 1.92-1.8-2.8-4.17-5.4-6.2-8.73l-.54-.6-.12-.2c-.04.04-.6-.64-.93-1.1-.2-.52.24-.12-.84-1.7-.76-1.32-2.45-3.56-3.62-5.2.58.9.33.65.04.3-.54-.8-.76-1.33-1.2-1.92l.06-.13c-.17-.05-1.55-2.06-1.8-2.3-.22-.52.94 1.17 1.14 1.33-2.22-3.18-1.1-1.6-3.35-4.75-1.3-1.6.1.4-.6-.33-1.08-1.47-2.23-2.83-3.4-4.56l.3.6c-2.14-2.67-3.4-4.3-4.72-6.18l-1.96-2.2c-.07-.18-.13-.36-.2-.54-1.44-3.75-4-7.18-7.32-9.48-1.86-1.3-3.9-2.26-5.97-2.98.24-.48.4-.9.8-1.96l2.17-1.12c.75-.35 1.3-.96 1.55-1.7.26-.77.18-1.62-.23-2.37l-11.2-21.28c-.32-.7-.9-1.23-1.65-1.5-.8-.28-1.68-.22-2.43.15l-8.88 4.6c-.7.32-1.23.9-1.5 1.65a3.14 3.14 0 0 0 .16 2.44l3.5 6.64c.52.04 1.2.38 1.75 1.63.28.67.48 1.27.65 1.82-.2-.56-.4-1.1-.62-1.54-.3-.64-.64-1.14-1.03-1.4-.38-.27-.75-.3-1-.24a.53.53 0 0 0-.19.06c-.08-.27-.14-.38-.16-.22-.01.06-.02.17-.02.32-.06.04-.1.08-.17.12-.13.1-.2.16-.2.2-.02.06.13.02.37-.07 0 .43.01 1.08-.03 2-.04.77-.12 1.7-.27 2.86l-.45 3.25c-.01.15 0 .22-.01.33-.01.2.02.42.03.63-.02-.06-.03-.12-.05-.18.15 1.36.6 2.47.85 3.4l-.64.24c-.98.38-2 .74-2.27.78l-1.53.72c-.47.12-1.37.55-.64.12l-1.4.75a6.8 6.8 0 0 0-.6.1l-.7.14c-4.25.87-7.18 2.5-9.97 4.44-2.78 1.98-5.47 4.38-8.86 7.98-3 3.14-4.8 5.23-6.55 7.38-.87 1.1-1.76 2.17-2.7 3.48l-1.52 2.1-1.7 2.56c-2.4 3.53-4.8 7.4-6.88 11-.84 1.8-2.73 4.76-3.66 6.93a20.34 20.34 0 0 0-.52.76c-.3.76-.7 1.63-1.1 2.33l-.01-.06c-.42 1.14-1.04 2.37-1.23 2.94v-.06l-.54 1.38.05-.25c-.74 2-1.4 4.1-1.98 5.95l.2-.12c-.32 1-.5 1.85-.68 2.6l-.33 2.15-.18 2.1c-.01.74-.1 1.55-.1 2.5l-.04-.05c.1 1.2.27 2.26.4 3.27l.4 2.82c.17 1.07.34 2.17.66 3.35l-2.78 6.1s-5.42 11.9-8.4 19.48l-.52 1.36-.48 1.3c-.33 1.08.16 2.12.75 2.54.6.47 1.18.48 1.45.45.28-.04.3-.1.13-.16-.18-.07-.66-.13-1.16-.6-.5-.44-.84-1.46-.18-2.45l4.84-9.75-.07.26c2.5-5.35 4.04-8.73 5.5-12.54.34-.3 1.1-2.07 1.76-3.6l.14.32c-.25-.57.02.28-.02.24.46 1.07 1.02 2.15 1.58 2.9.54.75 1.02 1.18 1.13 1.1 1.1 1.27.85 1.08.92 1.3.08-.1 1.15.9 2.2 1.66-.17-.1-.34-.2-.5-.33.98.76 2 1.44 3.05 2.05-.17-.18-.33-.38-.48-.58 1.6 1.06.26.5 1.9 1.4l.07-.18c2.32 1.3 3.64 2.23 6.1 3.17.5.15 1.13.12 1.74.1.5.1 1.52.1 1.68.25l.82.07c.22.1.7.23.28.2.74.15.77.08 1.32.1l.8.23c3 .32 5.55-.18 8.56-.98 1.83-.4 4.44-1.38 6.7-3 .6-.35 1.1-.83 1.64-1.25l.78-.64c.25-.22.47-.47.7-.7l1.3-1.33 1.02-1.3c1.7-2.3 3.4-4.8 4.9-7.44 1.52-2.64 2.9-5.4 3.7-8.15.1-.16.2-.64.18-.64a119.8 119.8 0 0 0 1.7-4.94s.48-1.5 1-3.52c.53-2 1.07-4.5 1.35-6.45.3-1.94.32-3.32.04-3.03-.3.3-.88 2.24-2.42 6.73l-.01-.13c-.78 2.7-1.3 4.38-1.65 6.3-.37.2-.72 2.2-1.05 2.77v-.07c-.35 1.7-1.38 3.24-1.83 4.83 0-.07-.05-.13.1-.48-.44 1.1-1 2.65-1.22 2.65-1.1 2.64-3.15 6.05-3.92 7.72l.03-.13c-.44.95-.74 1.1-1.32 2.1-.05.04-.1.1-.1.08-.3.48-.82 1.1-1.34 1.7-.5.6-1.12 1.08-1.4 1.43l-.12-.04c-.5.54-1.1 1-1.68 1.46l.67-.5c-.06.4-1.4.96-2.68 1.92-.63.4-1.24.88-1.9 1.36-.62.5-1.33.9-2.1 1.1-.67.4.55-.45-.48.05-.08-.14.46-.28.15-.3-.5.25-.96.3-1.43.4-.48.07-.97.23-1.63.38l-.08-.1c-.85.25-1.68.38-2.44.36-.76.02-1.44.02-2.03.1-1.83.07-1.2-.42-3.08-.37-.23-.1-.46-.2-.68-.3-.77-.2-.6.1-1.45-.2.06-.06-1.54-.05-1.65-.13-2.64-.55-2.64-.7-8.35-3.8a5.05 5.05 0 0 1 .66.76c-.27-.27-.54-.55-.8-.87-1.1-.55-1.3-.8-1.56-1.05-.26-.25-.55-.5-1.66-1.22.83.64.16.56-.72-.4l.32.14c-.54-.46-.72-.62-1-.98.34.26.25.07-.4-.72.17.15.35.3.54.44-.46-.44-.92-.9-1.32-1.42-.36-.66-.8-1.53-1.12-2.33-.32-.8-.56-1.54-.56-1.87 0 0-.23-.8-.44-1.7-.22-.9-.45-1.92-.6-2.3.24.65-.06-1.2.17-.7-.15-.42-.34-1.27-.5-2.15-.1-.86-.24-1.73-.16-2.24l.02.2c-.02-3.7.05-6.44 1.1-9.7-.18.1.4-1.6.1-1.23.88-3.48 2.62-5.95 2.64-7.36.63-1.5.96-1.7 1.35-2.44l-.15.36c.65-1.4 1.1-2.27 1.52-3.06s.78-1.5 1.36-2.48c.52-1 .35-1.32 1.46-3.05-.25.62.16-.1.56-.76-.24.43-.28.58.3-.25.04-.14.14-.34.23-.52.01 0 .04-.03.04-.01.62-1.12.48-.94.16-.44 0-.03-.04 0-.16.14.8-1.07 1.95-3.15 2.18-3.2l5.14-8.35c.28-.24-.07.42-.57 1.2l1.26-1.9c.1.1-.7 1.1-1.05 1.7 1.7-2.1 3.03-4.68 5.13-7.06l.32-.6.13-.14c-.05-.03.34-.62.62-1 .37-.27.2.2 1.18-1.02.43-.45 1-1.12 1.58-1.83s1.17-1.5 1.72-2.1c-.62.6-.47.37-.24.07.54-.56.94-.8 1.32-1.27l.16.06c-.16.06.17-.34.55-.78.4-.43.87-.9.95-1 .4-.22-.82.9-.9 1.1l1.7-1.6c.3-.27.55-.55 1.75-1.55 1.2-1.16-.33.08.2-.54.55-.5 1.1-.97 1.7-1.43.6-.46 1.2-.96 1.96-1.35l-.53.17c1.14-.8 2.05-1.44 2.96-1.87.44-.23.86-.44 1.28-.64l1.3-.47.84-.42c.28-.12.56-.22.82-.33.54-.2 1.04-.43 1.52-.6a21.63 21.63 0 0 0 1.2-.37c.98-.22 1.97-.37 2.95-.46l.65-.18c.26-.1.45-.18.62-.25.17-.03.33-.05.47-.08 1.36-.22 1.3-.34.62-.48.24-.1.57-.2 1.14-.34-.03.05.26-.01.6-.1-.1.26-.25.5-.4.76-.3.55-.66 1.1-1 1.65-.37.24-1.84 2.53-2.4 3.23l.04-.08c-1.26 1.97-2.9 3.83-4.1 5.74.04-.08.03-.15.32-.57-.93 1.36-2.16 3.23-2.32 3.27-2.2 3.25-5.25 7.77-6.5 9.95l.07-.16c-.7 1.25-1 1.55-1.84 2.9-.06.07-.13.16-.12.14-.77 1.36-2.5 3.8-3.14 4.88l-.1.03-1.7 2.6.65-.96c-.04.25-.47.82-1.05 1.62l-1.84-1.02-2.3-1.3-.95-.52c-.1-.1-.14.07-.2.1l-.2.2-.4.38-.75.76-.4.42c-1.04 1.12-2 2.27-2.94 3.37-.73 1.17-2.4 2.92-3.23 4.32l-.48.42c-.28.5-.63 1.04-1 1.45l-.01-.05c-.43.72-1 1.47-1.2 1.83l-.01-.05-.56.84.06-.17c-.72 1.26-1.55 2.5-2.27 3.6l.18-.02c-.8 1.15-1.28 2-1.7 2.82-.1.2-.2.4-.3.6-.14.8-.16 1.48.15 1.64.5.25 1.54-.84 2.3-1.74.4-.73.82-1.44 1.35-2.18-.18.02.54-1 .23-.85 1.18-2.18 2.8-3.53 2.85-4.6.64-.93.9-1 1.26-1.45l-.13.23c1.22-1.72 1.6-2.2 2.58-3.4.44-.64.3-.9 1.27-1.94-.2.42.14-.04.48-.44-.2.27-.25.37.26-.1.04-.1.12-.22.2-.34.01 0 .03-.02.03 0 .55-.68.42-.6.14-.3 0-.03-.04-.01-.14.06.7-.6 1.68-1.9 1.9-1.84l.64-.7c.1-.1.2-.22.28-.33.02-.02.04-.07.07-.07l.27.12.2.1.37.18 2.87 1.44c.17.2-.32.02-.9-.26l1.38.74c-.08.1-.82-.38-1.25-.6 1.5 1.1 3.44 1.7 5.24 2.96l.45.13.1.08c.02-.05.5.12.78.27.2.25-.15.22.8.75.7.52 2.14 1.15 3.14 1.65-.5-.32-.3-.28-.07-.18.47.26.68.52 1.07.68l-.03.16c-.1-.23 1.3.56 1.5.6.2.25-.78-.33-.94-.32l2.84 1.6c1.06.47-.1-.23.44-.08.9.48 1.82.87 2.8 1.53l-.25-.3c1.72.85 2.7 1.43 3.76 2.2l2.84 1.3.05.03c8.14 3.6 1.12-.8.53-1.17l.03-.06c-.17.17.1-.43.35-1.05l.1-.04c.92-2.43.53-.8 1.45-3.22l.07-.46c.73-2.2.6-1.1 1.35-3.6-.34.96-.32.4.14-.78l-.04.32c.22-.66.27-.9.45-1.32-.1.4.03.24.35-.73l-.14.68.5-1.88c.55-1.4 1.2-3.66 1.48-4.2 0 0 1.05-3.02 1.17-3.75-.14.63.44-1.03.36-.53.2-.8.9-3.15 1.28-4.06l-.05.18c1.22-3.4 1.83-5.92 2.95-8.98-.13.1.45-1.5.22-1.13.95-3.23 2.14-5.75 2.2-7 .46-1.46.65-1.7.9-2.44l-.1.35.13-.4c.18-.2.35-.4.5-.57l.48-.58.78-1 .85-1.1c.87.28 1.67.6 2.1.7.04.08 1.32.66 2.16 1.18.83.53 1.3.85-.07.12-.23-.14-.65-.35-.6-.36l-.4-.06c2.64 1.6 4.83 2.98 6.65 5.5-.48-.8-1.33-1.66-.72-1.1.33.34.58.76.87 1.14.3.38.54.8.8 1.2l-.4-.46c.35.62.75 1.2 1.03 1.87l.46.97.4 1-.1-.6c.4.98.53 1.7.72 2.42l.72 2.64c.32 1.05-.24-2.03.25.2.27 1.4.43 3.2.55 5.1.1 1.9.1 3.92.06 5.78.15-.35.13.66.13 1.7l-.13.12c.01 3.96-.32 1.44-.4 5.37l-.06-.35.2 1.06c-.02 3.58-.4 1.9-.38 5.9.1-1.57.33-.72.13 1.2l-.08-.5c-.06 1.07-.03 1.43-.1 2.15-.02-.64-.15-.35-.24 1.23l-.08-1.07.04 3c-.25 2.3-.28 5.93-.5 6.86 0 0-.38 4.92-.26 6.06-.05-1-.27 1.72-.36.93.04 1.28-.1 5.06-.35 6.56v-.3c-.54 5.57-.53 9.55-1.12 14.54.17-.22-.15 2.42.1 1.78-.27 5.2-1.26 9.4-.88 11.3-.22 2.35-.42 2.77-.58 3.98l.03-.56-.5 4.9-.44 3.67v.23c-.02.06-.1.04-.14.07-.14.03-.17.07-.45.1-.64.07-1.44.12-2.9.1.95-.1-.25-.1-1.35-.08.7-.02.92-.06-.52-.12-.2.03-.52.05-.8.07-.01-.01-.07-.01-.04-.03-1.84.04-1.52.08-.66.1-.04.02.03.04.3.07-1.9-.13-5.32.03-5.55-.15l-14.08.35c-.52-.1.56-.18 1.9-.22l-3.26.04c.03-.13 1.87-.08 2.88-.1-3.9-.2-8 .24-12.57.06l-.94.1-.27-.02c.01.06-1 .14-1.68.16-.64-.1.04-.27-2.2-.25-1.78-.1-5.07.07-7.4.14 1.26.02.85.08.3.12-1.13.01-1.78-.1-2.65-.05l-.08-.12c-.16.12-3 .14-3.4.2-.64-.1 1.75-.1 2.03-.2l-6.78.04c-2.4.13.44.15-.7.3-2.13.04-4.2.15-6.65.07l.77.14c-4 .12-6.4.1-9.1-.02l-6.5.3h-4.42l1.12.17-2.8.2c0-.01-.01-.02-.01-.03a2.99 2.99 0 0 0-.12-.33h-.42a2.8 2.8 0 0 0 0 .41c-3.1.3-2.05.5.05.62.06.48.17 1 .32 1.46.26.86.6 1.53.6 1.53.3.7.7 1.28 1.06 1.85.42.52.8 1.07 1.24 1.5.86.9 1.8 1.6 2.8 2.25 2.04 1.23 4.38 2.1 7.66 2.86l1.98.46 1.7.26c1.06.17 2 .32 2.93.36.94.06 1.9.15 2.98.16 1.08-.02 2.3-.06 3.8-.13 1.44-.01 2.9-.2 4.37-.32 1.47-.1 2.9-.33 4.3-.5.64-.2 1.55-.3 2.5-.4.93-.15 1.9-.3 2.65-.5l.62.02c.52-.15 1.14-.28 1.7-.3l-.03.04c.77-.24 1.67-.36 2.06-.48l-.03.04.96-.2-.16.08c1.36-.35 2.77-.65 4.02-.9l-.13-.12c2.7-.42 3.6-.95 6.02-1.36l-.02.04c1.46-.55 2.66-.8 3.87-1.07 1.2-.25 2.44-.5 3.92-1.14-.37.15.18.02.16.07 1.4-.44 2.9-.92 2.84-1.2 1.02-.3.86-.17 1.03-.1-.04-.12.83-.44 1.63-.7l-.35.16 2.27-.78-.52-.08c1.23-.33.4.17 1.53-.26l-.08-.18c1.67-.53 2.75-.57 4.4-1 1.24-.42 2.48-.9 3.73-1.4.05.01.1.02.16.02l-.01-.05 4.88-.05c.7-.06 1.54-.08 2.46-.1l1.87-.02h1.18c.04-.02.02-.1.04-.15l.17-1.36.4-3.3a53.93 53.93 0 0 0 .24-2.74l.26-1.27c.07-1.15.17-2.5.35-3.64l.03.08c.1-1.72.34-3.64.38-4.5l.03.07.2-2.08.02.36c.17-2.6.4-5.25.64-7.68l.77 1.08c1 1.1.9.64 1.97 1.9-.15 0 1.4 1.56.66.94 1.25 1.4 2.7 2.7 4.25 4.08 1.6 1.34 3.3 2.78 5.46 4.25.54.23 1.36.6 2.14.98.78.4 1.54.7 1.95.8.07.17 4.62 2 1.94 1.08-.23-.08-.62-.24-.58-.27l-.36-.03c2.54 1.33 4.83 1.86 7.46 2.82-.77-.32-1.8-.68-1.1-.5l2.45.9-.55-.08 3.65 1.3-.47-.3c1.78.64 2.35 1.07 4.45 1.52.95.2-1.66-.7.26-.14a169.62 169.62 0 0 0 9.11 2.88c-.25-.22.58.01 1.46.2l.07.15c3.36.7 1.15.6 4.48 1.3l.63-.03c1.52.25 1.9.4 2.32.55.2.07.6.2 1.15.2.55-.03 1.4-.2 2.24-1.02-.72.6-1 .54-.75.37.1-.1.33-.25.6-.5.13-.13.27-.27.4-.45a2.75 2.75 0 0 0 .23-.33c.02.01.04.01.07.02-.03.08-.04.14-.08.23.06-.1.1-.15.13-.2l8.5 2.08c2.66.74 6.52 1.66 10.44 2.57l5.78 1.35 2.66.63c.8.18 1.57.46 2.28.7.5.16 1.02.32 1.56.45a23.7 23.7 0 0 0 .81.19l.4.08.52.08.3.04c.1 0 .23.07.26-.06l.33-.53c.17-.28.3-.45.46-.68a10.88 10.88 0 0 1 1.04-1.21c1.52-1.5 3.54-2.57 5.68-2.98s4.4-.16 6.37.62c1.98.8 3.7 2.14 4.92 3.76.17.2.53.8.55.77 1.27 2.14 1.78 4.75 1.37 7.2 0 0-.03.14-.07.4-.03.13-.06.3-.1.47-.02.1-.05.2-.08.33-.05.17-.1.36-.1.55.13.8 1.4 1.4 2.24.9.85-.46 1.2-1.24 1.54-2 1.14-3 1.3-6.96.96-9.97zm-123.6-118.7a1.91 1.91 0 0 1-1.03 1.13l-1.2.62c.02-.06.03-.1.05-.18.02-.17.03-.36.05-.55.01-.01.01-.05.02-.02.1-1.24.05-1.02 0-.45-.01-.03-.02.02-.06.2a6.55 6.55 0 0 0 .05-1.9c-.05-.34-.14-.68-.3-.97-.07-.15-.18-.28-.28-.4-.08-.07-.1-.1-.13-.1-.04-.01-.04-.03-.03-.06.01-.02.02-.04.03-.05v-.04l.01-.9c-.01-.35 0-.66-.08-1.07-.1-.37-.24-.7-.48-1a2 2 0 0 0-.43-.39c-.15-.1-.4-.2-.45-.2a.71.71 0 0 0-.29 0c.01-.07.04-.18.04-.27 0-.04 0-.3-.04-.48-.03-.2-.08-.38-.15-.56-.13-.36-.32-.67-.54-.96-.2-.27-.5-.6-.92-.75-.44-.15-.92 0-1.24.22-.17.1-.12 0 .13-.16.12-.08.32-.16.56-.2a1.38 1.38 0 0 1 .83.16c-.42-.26-1.03-.22-1.4.01-.27.14-.48.33-.67.53 0-.03 0-.06.01-.08.08-.08.16-.16.27-.25a2.1 2.1 0 0 1 .68-.37c.27-.08.58-.08.82-.02-.46-.15-.96-.01-1.3.2-.17.1-.32.23-.46.36.06-1.28.2-2.56.4-3.95v-.62l.03-.17c-.03.01-.02-.66 0-1.1.06-.26.1-.18.16-.42l7.2 13.68c.27.5.33 1.06.16 1.57zm-23.88-16.44a2.15 2.15 0 0 1-.1-1.65c.17-.48.5-.87.98-1.08l8.9-4.6a2.06 2.06 0 0 1 .94-.22 2.06 2.06 0 0 1 .7.12c.48.17.87.5 1.1 1l2.34 4.45c-.27.06-.52.22-.7.4-.2.23-.32.44-.43.66-.2.42-.34.87-.44 1.2.28-.77.24-.5.14-.16-.23.68-.45 1.05-.6 1.6l-.1.03c.2-.24-.6 1.8-.65 2.08-.22.36.35-1.08.37-1.27l-1.58 4.1c-.5 1.48.2-.23-.01.5-.5 1.3-.93 2.56-1.58 4l.27-.43c-.46 1.2-.84 2.18-1.2 3.02-.17.37-.35.7-.6.9l-7.7-14.6zm17.77 23.15l-1.06 1.4-.58.57c-.13.16-.17.22-.46.53l-.32 1c-.1.3-.2.57-.3.83l-.01-.05c-.3 1.07-.72 2.25-.87 2.78l-.01-.05-.4 1.28.04-.23c-.55 1.86-1.17 3.75-1.75 5.42l.13-.1c-1.27 3.54-1.53 4.9-2.7 8.1l-.01-.05c-1.13 4.14-2.28 6.4-3.45 10.66.15-.53-.12.2-.12.16-.6 1.95-1.3 4-1.14 4.08-.5 1.4-.46 1.1-.58 1.27.07.02-.33 1.24-.75 2.3l.16-.5-1.2 3.1.38-.55c-.7 1.6-.32.35-.94 1.9l.12.03c-.47 1.1-.9 1.95-1.33 2.78-4.2-2.62-6.93-3.76-12.42-6.76l-8.94-5.37 4.46-7c3.96-6.32 9.12-13.3 13.4-19.6.08-.1.2-.28.3-.44.1-.16.2-.3.18-.3l4.1-5.67s.3-.43.8-1.2c.23-.4.52-.86.72-1.53.22-.7.1-1.52-.1-2.2-.4-1.4-1.04-2.78-.9-4.15.13-1.52.27-3.04.3-4.37.04-1.57-.12-2.84-.27-3.53.18-.02.45 0 .66.15.3.17.56.6.75 1.03.2.46.36.96.47 1.3l.17.57c.26.9.43 1.74.8 2.66a4.56 4.56 0 0 0 .36.69c.14.2.25.36.4.56.15.18.26.36.57.6.3.26.68.42 1.06.4s.73-.2 1-.47c.12-.12.26-.3.33-.4.06-.1.13-.2.18-.32.22-.43.33-.75.5-1.1l.85-2.13 3.8-10.16c.18-.48.32-.94.48-1.3.14-.35.4-.68.43-.65.1-.01.08-.05.32.2.07.08.04.04.06.15s.03.3.03.45c-.01 1.35-.2 2.62-.34 3.87-.16 1.24-.32 2.57-.44 4.04-.01.2-.03.38-.03.62.02.16-.05.16.1.62l.05.1c.01.02.01.02.04.06a.71.71 0 0 0 .12.13c.17.18.5.26.62.23.16-.01.35-.08.47-.18.06-.04.07-.06.1-.1.15-.16.15-.2.2-.27.18-.3.38-.56.6-.76.25-.2.4-.22.44-.2.05.02.13.06.24.2.12.15.25.3.34.5.1.17.16.34.2.5.02.1.03.17.04.25 0 .04.01.08.01.13.01.08-.02.24-.05.36l.44.58.46.56.2.03c.04.01.04.01.06.02.03.01.05.03.08.05.05.04.1.08.15.16a1.6 1.6 0 0 1 .23.55c.02.17.03.53.03.8l-.01.46-.03.7c.16.2.26.33.36.42l.17.2c.02.06.04.2.05.2.02.02.05.05.07.1.06.1.1.24.14.4.07.33.1.7.07 1.1a8.93 8.93 0 0 1-.38 2.31c-.18.83-.67 1.92-1.37 2.95-.35.54-.73 1.04-1.13 1.54zm-5.13 109.2c.01.1-.36.2-.74.37l-.1-.1c-1.7.76-.73-.04-2.43.67l.13-.13-.38.4c-1.5.75-.92.04-2.58.9.7-.24.4.16-.46.37l.18-.18c-.47.17-.6.27-.93.34.26-.15.1-.2-.6.02l.42-.3-1.25.62c-1.06.17-2.64.8-3.1.76l-1.17.3c-.62.17-1.3.38-1.52.54.4-.23-.82.06-.5-.17-.54.28-2.2.85-2.92.87l.12-.05c-2.55.5-4.26 1.26-6.57 1.57.13.12-1.08.3-.75.42-2.32.7-4.38.48-5.12 1.22-1.07.25-1.3.1-1.87.16l.25-.07-4.1.7c-.75.15-.83.42-2.2.53.42-.16-.13-.07-.63-.01.32-.06.42-.1-.26-.1-.1.04-.23.08-.37.1-.01-.01-.03-.01-.02-.02-.84.14-.7.16-.3.12-.02.02.02.03.14.05-.9-.01-2.45.27-2.57.1-1.27.12-2.36.27-3.4.4-1.04.13-2.02.2-3.1.27-.24-.1.25-.18.87-.24l-1.5.08c.01-.13.86-.1 1.33-.14-.9-.08-1.82 0-2.78.08-.96.04-1.95.05-3-.1l-.44.1-.12-.02c0 .07-.47.1-.78.08-.28-.15.05-.27-.98-.38-.4-.1-.97-.16-1.58-.2-.6-.07-1.24-.16-1.76-.24.56.14.36.16.1.15-.5-.1-.77-.28-1.17-.3l-.01-.16c.15.23-1.32-.25-1.52-.24-.24-.2.8.15.93.1l-1.46-.46c-.25-.07-.5-.14-1.42-.56-1.04-.34.12.22-.4.13-.92-.32-1.77-.77-2.68-1.42.06.1.15.2.22.3-.8-.47-1.4-.9-1.9-1.34-.45-.48-.9-.87-1.22-1.4-1.24-1.18-1.97-2.34-2.48-3.25a12.15 12.15 0 0 1-.65-1.33c2.58.13 6.03.18 6.03.18 11.74.27 17.8-.16 31.77-.3l28.27.14 5.88-.02c.38.06.75.08 1.1.08zm74.76-3.84c-.08.17-.13.3-.3.47-.28.34-.85.63-1.4.6.17-.01.33-.03.5-.1-.25.06-.5.07-.76.01l-1.04-.24-2.13-.5.78.43c-2.24-.62-.5-.42-2.67-.9l-.02.2c-3.1-.83-4.84-1.6-7.8-2.6-6.2-1.8-12.6-3.72-18.7-6.08l-2.27-.92-2.22-.98-2.16-1.05c-.68-.4-1.34-.74-1.97-1.2-2.54-1.8-4.8-3.94-6.86-6.1l-.27-.47c-.01-.3-2.53-2.13-2.7-2.6l-1.03-.95c-.24-.32-.76-.95-.26-.47-.86-.96-.9-.96-1.58-1.6l-.06-.08c.47-4.65.42-6.86.93-11.58l.03.07c.1-6.64.98-10.45 1-17.3 0 .85.1-.36.13-.3.12-3.16.3-6.5.02-6.56.16-2.28.22-1.85.35-2.14-.13 0-.02-1.98.1-3.77l-.02.83.35-5.13-.3 1c.25-2.72.35-.67.44-3.3l-.2.02c.22-3.77.6-5.98.55-9.7-.12-2.36-.4-4.78-.93-7.16l4.1 5.22c2.47 3.17 5.07 6.55 8.42 11.47l6.53 10.02c1.88 2.8 3.77 5.67 7.1 10 3.15 4.16 6.7 8.56 10.82 11.87 2.04 1.38 5.3 4.1 7.7 5.66l.82.76c.83.54 1.78 1.2 2.53 1.83h-.07c1.24.8 2.54 1.82 3.15 2.22l-.07-.01 1.45 1.04-.28-.14a141.67 141.67 0 0 1 6.11 4.38l-.07-.23c1.96 1.52 3.36 2.5 4.7 3.42l1 .7c.4.28.53.36.63.56.1.2.13.42.06.62-.05.14-.04.1-.27.44l-.44.68v-.07c-2.58 5.06-4.82 7.55-7.5 12.75.33-.65-.22.23-.22.16-1.34 2.33-2.8 4.8-2.58 5-1 1.68-.9 1.32-1.12 1.5.04.03 0 .13-.07.3zm38.46 3.1c-1.3 1-2.4 1.7-2.4 1.7-.2.2-.3.5-.1.7.1.1.2.2.4.2-.4.4-.73.8-.97 1.14l.1-.17c-.25.34-.45.62-.62.88-.18.25-.34.53-.38.6l-.05.08c-.02.02-.06 0-.1 0-.08-.01-.16-.03-.25-.04-.3-.05-.66-.12-1.08-.22-.1-.04-.2-.08-.2-.08-.84-.16-2.02-.6-3.23-1-1.23-.33-2.36-.62-3.06-.77l-.07-.1-3.4-.82 1.27.32c-.48.07-2.54-.74-5.03-1.2-2.3-.58-4.76-.75-7.13-1.4-1.16-.2 1.04.1-.68-.24-.03-.1.8.13.4-.05-1.68-.36-2.72-.76-4.8-1.2l-.07-.1c-1.92-.38-3.6-.9-5.1-1.3.1-.15.17-.3.3-.48-.22.5 0 .34.68-.83l-.33.85 1.12-2.3c1.12-1.62 2.58-4.38 3.14-4.98 0 0 2.24-3.58 2.58-4.5-.34.8.9-1.2.67-.55.45-1 2.02-3.84 2.8-4.88l-.1.22.6-.97 8.65 5.52c.28.25-.4-.14-1.22-.66l2 1.3c-.06.06-1.17-.7-1.8-1.1 2.3 1.67 4.94 3.12 7.7 4.98l.65.3.17.1c0-.02.17.07.4.15l.75.3c.4.25-.1.15 1.43.78.95.46 2.62 1.03 4.07 1.52-.2.04-.42.22-.42.48a.47.47 0 0 0 .5.5c1.03.04 2 .05 2.93.06.1.03.2.06.3.1l1.2-.07c.13-.01.25-.02.36-.02h.44c-.16.04-1.35.08-1.52.13l2.75-.1 2.15.1c1.7.02-.18-.1.47-.14 1.02.13 2.28.38 3.62.64 2.2.4 4.4.9 6.1.9 2.7.1 3.3 1.2 3.3 1.2a1.9 1.9 0 0 1-.3.9c-.6.8-1.6 1.3-2.8 1.5-2.3.3-4.7.2-8.5 0-3.43-.18-6.83.92-8.33 2.12z"/></svg>