<svg xmlns="http://www.w3.org/2000/svg" viewBox="0 0 480 480" xmlns:v="https://vecta.io/nano"><path d="M361.9 207.7c-1.9-1.1-6.3-2.2-9.4-3.5-4.97-2.15-9.35-3.58-13.3-5.04.33-2.18-1.7-4.52-4.8-5.46-2.02-.6-4-.47-5.4.26l-6.2-4.07 1.65-4.98c.1-.2 0-.5-.2-.6l-1.7-.9.1-.3c.2-.6-.1-1.2-.6-1.4-3.52-1.76-16.78-8.46-29.62-17.16 4.24-4.9 7.53-9.38 9.23-11.74.6-.8.5-1.97-.18-2.68l.38.38 1.3-1.2c.1-.1.1-.4 0-.5l-4.28-4.28 9.03-12.5 1.65-1.12 6.1-4.6c1.6-1.2 11.1-16.9 11.1-16.9l-.48-.2c.24-.2.47-.47.68-.8 1.03-1.6-1.7-2.9-2.87-3.65l4.77-5.95c.5-.7.2-1.7-.7-1.9l-4.2-.84c-1.12-.4-1.73.4-2.24 1.02l-6.97 8.04c-.07-.1-.14-.18-.17-.2-.01-.01-.02-.01-.02-.01s-6.8 2-8.5 3.4c-1.7 1.3-4.8 3.2-5 5.3-.1 2.1-.4 4-1.8 6.6-1.07 2-8.7 9.2-12.23 12.47l-.77-.77c-.1-.2-.4-.2-.6-.1l-1.57 1.08c-.7-.5-1.63-.5-2.33.02-3.08 2.43-9.24 7.1-13.17 9.8-6.93-9.12-12.5-19.1-15.63-25-1.67-3.42-3.8-7.2-6.62-10.5-1.73-2.4-4.03-4.46-7.07-6-2.95-1.7-6.4-2.78-10.45-2.93-.95-.1-1.93-.2-2.96-.24-1.24-.07-2.5-.04-3.75.07.14-.12-.16-.13-.74-.08-.75.08-1.93.34-3.12.76-10.58 2.7-21.84 12.7-33.1 35.45-8.9 17.9-28.7 61.4-33 72-.6 1.3.3 2.6 1.6 2.6l91.1-.3s.54-4.12 1.3-11.4c3.7-1.13 7.24-2.74 10.65-4.6 5.5 2.9 10.9 5.15 16.04 7 15.7 5.7 35.6 10.9 39.8 12 .3.06.54 0 .75-.14l-.05.14 1.7.5c.2.1.4 0 .5-.2l1.15-3.48 9.48 2.28c-.2.7.2 1.4.8 1.6l2.9.6c.7.2 1.4-.2 1.6-.8l.03-.1 1.17.3c1.7.4 3.4 1.3 5.8 1.6 2-3.5 5.8-5.8 10.1-5.8 6.4 0 11.6 5.1 11.6 11.5 0 1.1-.2 2.2-.5 3.3.1.2.2.4.4.5 3.62 1.68 4.82-14.02 1.82-15.62zm-31.1-14.75l.1.03c0-.02-.03-.03-.1-.03zm-32.06-73.33l-.04.1h.01zm-58.64 90.14l.3-.02h-.05l-.24.02z" fill="#fff"/><path d="M339.97 198.22c.02.01.04.02.05.03l-.05-.03zm-2.57-1.52c-.12-.2-.3-.2-.5-.2l-2.42.17a1.88 1.88 0 0 0-.7-.45c-.68-.23-1.35-.1-1.5.33s.3.95.97 1.18c.33.1.65.13.92.08l1.13.78c.17.1.4.2.62.08.18-.12-.02-.28-.12-.38l-1.1-.82c.02-.03.05-.05.06-.08.03-.08.01-.16 0-.24l2.45-.17c.2.02.28-.16.2-.28zm-145.5 11.22l.02.04c.02-.02.02-.03-.02-.04z"/><path d="M363.86 211.1c-.22-1.3-.6-2.38-1.1-3-.24-.32-.5-.5-.68-.56-.15-.07-.2-.03-.1.04.2.16.8.77 1.05 2.23.28 1.44.4 3.66.02 6.7l-.01-.17c-.2 1.8-.5 3.26-.9 4.5-.2.6-.45 1.18-.76 1.6-.15.23-.34.36-.5.47-.17.07-.36.07-.5.03-.02-.05-.08-.14-.1-.26.02-.08.03-.08.07-.27l.13-.6c.17-.83.22-1.75.24-2.2l.01.1c-.1-1.18-.16-2.4-.5-3.55-.32-1.15-.78-2.28-1.47-3.2.06.07.12.08.4.53-.43-.7-1-1.5-1.56-2.08l-1-1.06c-1.5-1.3-3.7-2.4-5.9-2.74-2.18-.37-4.23-.05-5.4.4.05-.03.1-.05.16-.07-1.34.5-1.8.57-3.15 1.42l-.17.08c-.64.45-1.54 1.15-2.3 1.95a10.79 10.79 0 0 0-1.01 1.21l-.38.56-.14.25-.07-.07c-.1 0-.74-.12-1.18-.22l-1.4-.4 1.05.33c-.2.04-.74-.14-1.46-.43-.72-.28-1.7-.7-2.8-.88-.07-.02-.13-.03-.2-.04l.2-.64.4-1.47c.27-.98.56-1.93.94-2.78l.1-.05c.13.01-.02-.54.1-.57l.01-.22c.04-.05.1-.16.1-.05.07-.2.05-.2.05-.35l.14-.18c.3-.73.36-1.4.65-2.18l.2-.42c.07.03.14.05.32-.03l.17.08c.18-.02.1-.14.3-.13 0 .07.25 0 .15.08.47-.02.84-.36 1.45-.48.07-.16.36-.26.4-.4.05.05.5-.36.3-.05-.02.03-.06.06-.07.04l.01.08c.38-.1.47-.46.73-.7-.1.06-.2.16-.16.06.08-.08.16-.15.23-.24v.1l.33-.38-.1.01c.16-.18.32-.2.36-.5 0-.14-.2.16-.1-.08.08-.12.16-.27.24-.44l1.74.55c.36.2-1.05-.3-1.24-.33l4 1.42c1.44.45-.23-.18.48-.01l3.9 1.43-.42-.25c2.37.83 3.72 1.48 5.27 2.17l5.3 1.57 2.85.9c1.18.5 1.12.4.58-.02-.6-.44-1.8-.98-2.82-1.37l-1.9-.7-4.6-1.7-4.15-1.66-8.82-3.08c-.02-.25.17-.1.08-.48-.04-.02-.07-.05-.1-.07-.23-.35.13-.25-.2-.62.06.16-.13.12-.16-.08l.08.03c-.05-.1-.1-.13-.1-.2.05.05.12-.01.04-.15.04.02.1.04.13.07-.08-.1-.17-.16-.25-.24-.02-.26-.3-.54-.27-.68 0 0-.06-.12-.15-.23-.1-.12-.2-.23-.27-.25.12.04-.04-.2.07-.2-.15-.05-.45-.3-.5-.46l.03.01c-.36-.48-.8-.56-1.16-.93-.03.08-.22-.1-.23.03-.5-.18-.72-.67-1.04-.44-.2-.1-.22-.18-.32-.25h.06l-.84-.3c-.16-.02-.23.12-.5.01.1-.04-.01-.06-.1-.08.07.01.1-.01-.03-.1a.24.24 0 0 1-.09.02v-.02c-.18-.02-.15 0-.07.03-.01.01 0 .02.02.05-.16-.13-.5-.1-.5-.2-.54-.07-.94.01-1.38.03-.05-.06.06-.1.2-.12l-.32.01c0-.08.18-.04.28-.05-.38-.15-.8.12-1.24.05l-.1.07-.03-.01c.01.03-.1.1-.15.1-.07-.06-.02-.16-.24-.12-.2-.04-.5.14-.7.24.12-.02.1.03.05.06-.1.03-.2-.02-.26.04l-.04-.1c.03.03-.01.06-.06.1l-5.8-3.82c-.02-.01-.04-.03-.06-.04 0-.26.18-.64.14-.8.06-.01.33-.97.26-.4-.01.05-.04.13-.05.12l.05.1c.3-.5.26-1.02.46-1.56-.08.15-.14.37-.14.2l.18-.5.02.12.28-.74-.1.08c.08-.18.16-.3.23-.4a1.19 1.19 0 0 0 .08-.2l.03-.13c.01-.1.04-.17.06-.27.04-.33-.3.58-.1-.08.15-.37.03-.98-.48-1.26l-.8-.48-.23-.13c.14-.67-.05-1.4-.56-1.85-.27-.26-.7-.43-.86-.52l-.63-.33-2.48-1.34-.47-.4c-.14-.3-3.5-1.5-3.87-1.92l-1.45-.68c-.38-.25-1.2-.74-.47-.4l-2.3-1.17-1.32-.9c-5-2.98-9.4-5.3-14.5-8.74l-.73-.52.2-.27c1.1-1.1 2.52-3.1 3.05-3.5 0 0 2.12-2.56 2.43-3.3-.3.6.83-.83.62-.34.2-.4.67-1.1 1.17-1.82.25-.36.5-.72.74-1.03.12-.15.23-.3.34-.43.12-.15.24-.3.34-.4l-.15.24c.85-1.1.84-2.54.23-3.6.05-.03.1-.06.16-.1.14-.1.34-.22.5-.38.16-.15.22-.43.18-.7l.04.05c-.05-.3-.33-.54-.52-.75l-.36-.38c-.24-.23-.47-.4-.73-.58.05-.2-.5-.53-.6-.72h.02c-.48-.3-.7-.87-1.17-1.16.02 0 .07-.02.15.06-.3-.25-.68-.6-.63-.7-.08-.08-.17-.16-.25-.24l1.9-2.53.2-.14c.16-.01.7-1.3.92-1.4l.3-.53c.12-.13.35-.4.2-.14.34-.46.33-.48.54-.84l.42-.45c1.37-1.8 2.36-3.43 3.77-5.33.14-.18.3-.37.46-.57l.03-.02.12-.07.25-.16.5-.33c.35-.23.72-.47 1.07-.75l2.22-1.7 2.18-1.72 1-.8c.3-.2.7-.63.87-.9l4-5.67c1.02-1.48 2.04-2.98 2.94-4.46l.8-1.4c.1-.1.25-.45.24-.46l1.06-1.6c.3-.47.77-1.75.77-1.75s.4-.5.77-1.26c.16-.32.4-.9.45-1.02l-.03-.03c.1-.3.14-.6.08-.87-.3-1.1-1.8-2.1-2.8-2.7a.7.7 0 0 0-.1-.08l4.5-5.63a1.73 1.73 0 0 0 .22-1.64c-.2-.53-.65-.9-1.23-1.04l-4.18-.84c-1.38-.48-2.2.5-2.7 1.1l-6.5 7.5c-.06-.05-.13-.1-.2-.13l-1.1.35-.6.2-1.25.45c-.87.32-1.83.68-2.9 1.12-1.1.43-1.98.8-2.8 1.27l-1.95 1.35c-.62.44-1.24.9-1.92 1.5a8.14 8.14 0 0 0-1.03 1.12c-.33.46-.7 1-.84 1.8-.04.2-.06.4-.06.5l-.03.43-.08.83a12.63 12.63 0 0 1-.29 1.63c-.27 1.07-.68 2.1-1.18 3.06-.28.85-1.7 2.18-2.45 3.14l-.38.3c-.27.33-.6.7-.94 1V124c-.4.5-.95 1-1.16 1.23v-.03l-.55.56.07-.12a39.44 39.44 0 0 1-2.34 2.33h.12c-1.64 1.44-2.1 2.12-3.62 3.38l.01-.03a6.64 6.64 0 0 1-.36.38c-.02-.03-.04-.06-.05-.1-.04-.06-.06-.08-.13-.16-.1-.1-.2-.2-.34-.27-.23-.12.32.44-.1.08-.26-.23-.78-.3-1.2-.04-.48.3-.5.28-.93.56.1.01.01.1-.12.2a2.87 2.87 0 0 0-.61-.16c-.3-.04-.6-.05-1 .02-.38.06-.92.27-1.35.6.1-.12.16-.18.16-.2-.01-.01-.1.03-.16.1l-.77.6c.36-.3.45-.42-.35.1-.1.1-.24.25-.4.4-.01 0-.05.02-.04 0-.95.78-.76.67-.3.34-.01.03.04.02.2-.07-1.1.67-2.8 2.16-3.05 2.1l-7.4 5.8c-.34.12.2-.36.9-.9l-1.28.93c-.02-.02-.03-.04-.05-.06l1.08-.78c-.38.22-.75.48-1.1.73-5.83-7.8-10.83-17.23-15.47-25.52-.13-.35-.66-1.2-.68-1.17-1.53-2.86-3.3-5.63-5.4-8.16-1.3-1.8-2.88-3.4-4.7-4.65a22.29 22.29 0 0 0-1.54-.98c-.06-.04-.12-.08-.18-.13l-1.46-.83c-.25-.14-.5-.3-.76-.42-.27-.1-.54-.23-.8-.35-.55-.23-1.1-.48-1.66-.68l-1.74-.5c-.57-.2-1.17-.28-1.75-.38l-1.73-.28-1.5-.07-.58-.1-2.8-.24c-.94-.02-1.87-.06-2.8-.04-.92.1-1.85.08-2.75.24l-.66-.03c-.08-.04-.36.01-.76.1-.2.05-.4.1-.65.16l-.72.27c-.98.38-2 .74-2.27.78l-1.53.72c-.47.12-1.37.55-.64.12-1.4.7-1.4.76-2.38 1.33-.5.23-1 .5-1.5.76-1.35.76-2.5 1.7-3.65 2.57-1.1.92-2.16 1.9-3.2 2.88-2 2.04-3.92 4.2-5.88 6.7-2.52 2.9-5.58 7.5-8.28 12.36-2.73 4.86-5.07 9.98-6.8 13.7-4.72 10.52-11.12 22.32-15.7 33.2-.1.17-.23.5-.34.76-.1.28-.2.5-.18.5l-4.5 9.82s-5.42 11.9-8.4 19.48l-.52 1.36-.48 1.3c-.33 1.08.16 2.12.75 2.54.6.47 1.18.48 1.45.45.28-.04.3-.1.13-.16-.18-.07-.66-.13-1.16-.6-.5-.44-.84-1.46-.18-2.45l4.84-9.75-.07.26c2.5-5.35 4.04-8.73 5.5-12.54.53-.47 2.03-4.4 2.68-5.63l-.03.13c1.3-3.37 3.25-6.67 4.52-9.9-.04.13.01.23-.32.96 1.02-2.32 2.42-5.48 2.65-5.58l7.55-16.72-.07.26c.78-2.07 1.2-2.6 2.18-4.86.08-.1.16-.26.16-.24.88-2.24 3.03-6.32 3.83-8.1l.16-.06 2.17-4.25-.84 1.57c.01-.34.46-1.13 1.1-2.2.67-1.06 1.53-2.43 2.3-3.98.83-1.4 1.6-2.84 2.33-4.33.77-1.47 1.65-2.9 2.66-4.26.84-1.37-.66 1.26.7-.7.18.03-.6.94-.12.53 1.38-1.9 2.43-2.98 4.27-5.2h.17c2.35-2.95 5.06-4.94 6.93-6.56 1.5-1.23 2.13-1.44 2.72-1.74.3-.15.6-.3 1.03-.56.43-.25 1.03-.55 1.88-1.06l.72-.28.75-.2c1.58-.58 1.03-.72 2.86-1.15-.04.07.53-.08 1-.2.45-.1.8-.12.28.01.08-.01.15-.02.23-.04.8-.3 1.64-.56 2.48-.73.46-.1.92-.18 1.37-.26l2.45-.12c1.16.03 2.6-.03 4.32.24 1.72.17 3.7.7 5.9 1.54l-.26-.03c2.6 1.02 4.52 2.25 6.16 3.5 1.6 1.3 3 2.52 4.33 3.95.1.33.84 1.2 1.58 2.22.77 1 1.5 2.12 1.83 2.7l-.08-.1c1 1.43 1.84 3 2.6 4.64.76 1.62 1.6 3.24 2.5 4.68-.08-.1-.2-.13-.57-.82 1.22 2.17 2.98 5.08 2.93 5.33 1.52 2.56 3.36 5.6 5.2 8.36 1.82 2.75 3.6 5.2 4.85 6.67l-.2-.18c1.45 1.63 1.7 2.26 3.28 4.1.07.12.16.26.14.24l3 3.47c1.14 1.23 2.18 2.47 2.9 3.1l.01.17 1.7 1.66 1.77 1.58-1.3-1.2c.33.1.97.73 1.86 1.6a29.07 29.07 0 0 0 3.54 2.87c2.48 2 5.56 3.37 8.2 5.38 1.4.77-1.28-.6.73.64-.03.18-.97-.53-.54-.1 1.97 1.23 3.07 2.26 5.54 3.7l.03.17c3.28 1.8 5.9 3.84 8.17 4.9 3.4 1.83 2.05 1.62 5.67 3.36l1.3.9c1.5.85 1.18.4 2.82 1.38-.15.04 2.1 1.2 1.05.77 1.06.6 2.16 1.2 3.3 1.75l1.75.85.1.05c.02.01.04.01.05.03.04.02.06.05.1.1.05.07.05.16.03.25l-.44 1.44-.5 1.56c-.35 1.06-.73 2.15-1.16 3.3-.18 1.23-1.16 3.9-1.3 4.83-.13.12-1.75 5.43-.96 2.32.07-.27.22-.73.24-.7v-.4c-1.2 3-1.67 5.62-2.67 8.65.33-.9.7-2.1.52-1.26l-.92 2.82.1-.62-1.4 4.2.3-.54c-.18.5-.34.93-.5 1.32-.04.1-.08.2-.1.28-.03.06-.03.04-.04.07-.02.03-.04.05-.07.06-.06.03-.12.02-.17 0h-.02l-.17-.04c-.12-.03-.24-.05-.36-.08l-.83-.17c-1.1-.18 1.93.7-.28.14l-10.44-3.12c.3.23-.66-.04-1.65-.3l-.08-.15c-3.8-.9-1.3-.65-5.06-1.6l-.7-.03c-3.42-.77-1.73-.78-5.55-1.6 1.47.44.6.48-1.18-.14l.5.03c-1-.3-1.36-.34-2-.58.6.13.37-.07-1.1-.52l1.03.17-2.84-.68c-2.1-.82-5.5-1.8-6.32-2.28l-2.4-.87c-1.25-.47-2.65-.96-3.2-1.07.94.25-1.5-.77-.75-.62-.6-.18-1.77-.57-2.93-1.04-1.16-.48-2.34-1-2.98-1.36l.26.1c-4.88-2.38-8.43-3.93-12.5-6.6.1.24-2.04-1.18-1.6-.7a53.13 53.13 0 0 1-5.53-3.83c-.75-.58-1.43-1.1-2.04-1.5-.6-.42-1.1-.74-1.55-.92-1.82-1.4-2.06-1.8-2.93-2.6l.43.34-3.63-3.13-2.88-2.73c-1.17-1.1-1.52-1.1-3.47-3.2.73.6-.13-.2-.83-1.02.47.5.64.63-.25-.47-.16-.13-.37-.34-.58-.54 0-.01-.03-.06-.01-.05-1.22-1.3-1.03-1.06-.5-.43-.04-.02-.01.05.14.26-.56-.75-1.44-1.7-2.14-2.54-.7-.85-1.24-1.54-1.24-1.7-1.75-2.05-3.15-3.88-4.5-5.6-.7-.85-1.32-1.72-1.95-2.6a45.57 45.57 0 0 1-1.84-2.7c-.2-.48.44.37 1.15 1.45l-1.7-2.67c.13-.05 1.03 1.5 1.57 2.32-1.86-3.26-4.2-6.56-5.72-10.73l-.44-.8-.08-.25c-.02.02-.16-.22-.32-.54-.47-.6-.94-1-1.3-.88-.36.1-.4.77-.3 1.65l.86 2.26c1.52 3.63 3.3 7.24 6.92 12.45 3.44 4.94 7.5 9.9 11.52 14.2 1.05.92 2.37 2.33 3.8 3.73 1.46 1.35 2.9 2.83 4.22 3.82l.9.93c.9.7 1.92 1.55 2.8 2.3l-.08-.02c1.4.98 2.84 2.24 3.56 2.68l-.08-.01 1.67 1.2-.32-.17c1.15.8 2.35 1.6 3.53 2.35-.38 3.62-.9 6.5-.6 7.98-.22 2.35-.42 2.77-.58 3.98l.03-.56-.5 4.9-.44 3.67v.23c-.02.06-.1.04-.14.07-.14.03-.17.07-.45.1-.64.07-1.44.12-2.9.1.95-.1-.25-.1-1.35-.08.7-.02.92-.06-.52-.12-.2.03-.52.05-.8.07-.01-.01-.07-.01-.04-.03-1.84.04-1.52.08-.66.1-.04.02.03.04.3.07-1.9-.13-5.32.03-5.55-.15l-14.08.35c-.52-.1.56-.18 1.9-.22l-3.26.04c.03-.13 1.87-.08 2.88-.1-3.9-.2-8 .24-12.57.06l-.94.1-.27-.02c.01.06-1 .14-1.68.16-.64-.1.04-.27-2.2-.25-1.78-.1-5.07.07-7.4.14 1.26.02.85.08.3.12-1.13.01-1.78-.1-2.65-.05l-.08-.12c-.16.12-3 .14-3.4.2-.64-.1 1.75-.1 2.03-.2l-6.78.04c-2.4.13.44.15-.7.3-2.13.04-4.2.15-6.65.07l.77.14c-4 .12-6.4.1-9.1-.02-29.8 1.24-6.28 1.58-6.28 1.58 11.74.27 17.8-.16 31.77-.3l28.27.14 18.5-.13c.7-.06 1.54-.08 2.46-.1l1.87-.02h1.18c.04-.02.02-.1.04-.15l.17-1.36.4-3.3a53.93 53.93 0 0 0 .24-2.74l.26-1.27c.06-1.03.15-2.2.3-3.27a8.95 8.95 0 0 0 .88-.37c2.47-.96 1.8-.27 4.27-1.56.35-.1.7-.17 1.05-.3 1.07-.5.67-.56 1.88-1.07-.02.14 1.52-.67.88-.23.25-.12.5-.25.74-.38l4.36 2.2h-.08c6.08 2.4 9.43 4.32 15.9 6.17-.8-.23.32.2.24.2 2.94.96 6.1 1.94 6.22 1.68 2.14.7 1.72.64 1.97.83.03-.13 1.9.42 3.6.92l-.8-.2 4.83 1.4-.88-.5c2.54.82.57.47 3.04 1.13l.02-.2c3.53 1.07 5.53 1.94 8.94 3.03l4.68 1.28 2.37.62.6.15c.3.07.67.2 1 .17.5 0 .95-.23 1.28-.6.13.07.28.15.5.25.2.1.42.22.68.2.27-.04.48-.24.62-.53v.08l.32-.82c.08-.2.14-.4.2-.58a5.97 5.97 0 0 0 .24-1.06c.1-.03.17-.22.23-.44l7.33 1.7a33.75 33.75 0 0 0 1.11.3l.26-.88c-1.25-.3-2.13-.6-3.77-.95l-.05-.1c-1.73-.3-3.25-.76-4.57-1.1.16-.46.42-.9.48-1.36.01.03.05.05.01.2.12-.43.27-1.02.38-1.02.3-1.02.82-2.4.88-3.1l.01.05c.02-.4.14-.48.23-.9.02-.02.04-.05.04-.04.03-.44.37-1.18.44-1.52h.07l.25-.8-.1.3c-.14-.16.3-.57.4-1.2.2-.54 0-1.22.27-1.76.01-.3.05.28.12-.14.1.02-.01.2.1.13.1-.4.3-.62.4-1.12h.08c.08-.68.5-1.17.5-1.63.16-.67.36-.37.44-1.1l.18-.23c.1-.3-.05-.25.1-.56.05.04.18-.4.18-.18.2-.43.3-.92.45-1.44l1.9 1.2c.24.23-.35-.1-1.06-.55l1.72 1.1c-.06.06-1-.6-1.54-.94 1.26.94 2.67 1.78 4.14 2.7-.04.02-.06.05-.1.07l.1.02c-.27.28-.43.43-.67.57-.35.67-.28 1.1-.24 1.28.05.2.15.22.25.14.1-.06.2-.17.28-.28.1-.1.16-.17.16-.17l.76-.77a3.27 3.27 0 0 1 1.11-.72c1-.2 1.3-.07 2.36-.1.5.06 1.06.1 1.56.23.27-.07.64.2.95.2l.08.1c.1 0 .22.03.3.1l-.01.02c.16.01.3.12.37.13l-.02.02.16.07-.04.01c.25.08.5.2.66.36l.03-.08c.35.36.6.34.86.73l-.02.01c.58.24.48.73.94 1.08-.06-.05-.02.05-.05.05.15.2.26.45.42.4.06.18 0 .16-.06.2.07-.03.16.12.2.26l-.04-.06.1.4c.05-.03.1-.07.13-.1-.01.23-.16.08-.1.3l.12-.01c-.01.32-.2.5-.35.73-.15.55-.42 1.1-.9 1.5-.46.42-1.07.7-1.67.76l-.07-.07c-.05-.1-.28.25-.35.14l-.13.08c-.04-.01-.13-.03-.06-.07-.13.01-.13.03-.22.08l-.15-.07c-.5-.02-.95.13-1.5.03-.63-.22-1.85-.4-2.54-.63-.5-.13-.96-.47-1.34-.86-.4-.4-.72-.8-1.1-1.1-.01-.03-.1-.08-.1-.07a5.05 5.05 0 0 1-.46-.77s-.13-.24-.23-.56-.2-.73-.2-1.05c-.02-.32-.03-.58-.2-.57-.1.02-.55.3-.7 1.4l-.03-.02c.02.64.2 1.02.5 1.33-.12.14.23.44.26.58h-.02c.3.22.37.67.7.85-.02 0-.06.03-.12-.03.2.17.47.38.42.47.06.05.13.1.2.16-.28.7-.5 1.22-.8 2.3-.25.76-.47 1.58-.7 2.33.01.4-.3.98-.34 1.42l-.12.14c-.01.15-.04.33-.12.46v-.02c-.02.23-.12.46-.13.58l-.02-.02-.07.26-.01-.05a5.31 5.31 0 0 1-.31 1.11h.1c-.16.35-.22.6-.28.85-.04.2-.18.56-.17 1.06l-.02-.01c.2.6.46 1 .86 1.35.1.08.2.15.36.2.17.07.25.07.34.1a2.8 2.8 0 0 0 .61.06c-.1 0 .04.05.02.07.4.06.84.14.88-.03.3.06.23.1.25.17.01-.07.28-.05.5-.01l-.1.01.54.1-.03-.01.16.03-.12-.16h.02-.01c.38.12.06.2.5.2l-.01-.12c.57-.03 1.03-.06 1.5-.54l1.43.36 2.46.8c.42.12.85.24 1.27.33.46.1.73.15 1.52.25l.25.03c.05-.06.1-.14.14-.2l.26-.43.18-.3.16-.23c.2-.3.43-.6.65-.88.46-.54.93-1.02 1.4-1.4 1.32-1.12 3-1.94 4.8-2.28s3.74-.2 5.52.37c3.58 1.18 6.35 4.22 7.32 7.6a7.89 7.89 0 0 0 .23.78c.08.53.17 1.06.18 1.6a7.79 7.79 0 0 1-.05 1.6 12.7 12.7 0 0 1-.3 1.59c-.03.15-.12.42-.13.63-.01.22.16.42.28.6.14.2.32.34.55.4l.33.12c.1.02.23.02.33.03 0 0 .2.02.54-.1.32-.1.74-.4 1.03-.8.63-.8 1.04-1.98 1.35-3.33.5-2.6.64-6 .2-8.57zm-61.98-60.6l-.85-.84a7.74 7.74 0 0 0 .76.47c-.08.14-.1.24-.02.26.05.01.17-.02.3-.08l-.2.2zm10.1-31.7c-.2-.3-.4-.6-.3-1 0-.2.2-.4.4-.8.8-.4 2.1-.3 2.8-.1.2.1.4.1.7.2 1.5.4 3.1.8 2.9 1.8-.3 1.4-.9 2.1-3.2 1.7-1.4-.2-2.7-1-3.3-1.8zm1.9-4c-.2-.3-.4-.7-.3-1.1 0-.4.2-.6.5-.8.4-.3 1.1-.4 1.7-.4.5 0 1 0 1.5.1.2.1.4.1.7.2.13.04.28.07.43.1a9.44 9.44 0 0 0 1.17.39c.3.1.63.17.94.25.55.22 1.02.5 1.26.85.1.2.1.4.1.6-.2 1-.9 2.1-4.3 1.6-1.5-.1-3-.8-3.7-1.8zm6.9-6a14.29 14.29 0 0 1 1.39.47c.07.04.14.1.2.13.44.26.85.44 1.24.56.56.34 1 .72 1.16 1.14.1.2.1.4 0 .6-.55 1.17-1.47 1.54-3.22 1.27-.98-.57-2.44-.85-3.48-1.07-.04 0-.07-.01-.1-.01-.95-.52-1.7-1.2-2-1.9-.2-.4-.2-.7-.1-1 .6-1.4 3.4-.8 4.4-.4.2.1.3.1.5.2zm5.08 1.24c-.03.07-.08.16-.14.3-.07.03-.14.13-.2.27a2.64 2.64 0 0 0-.29-.42 2.62 2.62 0 0 0 .63-.14zm-3.4 5.36c.04-.13.1-.25.12-.4a1.86 1.86 0 0 0-.16-1.2h.06c.4 0 .77-.04 1.13-.14-.4.64-.76 1.04-1.15 1.74zm4.22-8.1c.1.3 0 .5-.1.7-.75 1.25-1.64 1.5-3.07.94-.32-.17-.65-.33-.98-.47-1.38-.7-2.45-1.9-2.75-2.97-.1-.3-.1-.8.1-1.1s.5-.4.8-.5h.4c.9 0 2 .5 2.5.8.2.1.4.2.7.4.8.5 2.2 1.4 2.4 2.2zm-4.57-9.9l.07-.08c.43-.52.76-.87 1.22-.87a1.05 1.05 0 0 1 .4.08l4.27.86c.24.05.42.2.5.42.1.23.05.5-.08.68l-4.53 5.65.04.04c-.8-.54-2.17-1.06-3.3-.88-.6.1-1 .4-1.3.9-.3.4-.4 1-.2 1.7.18.53.5 1.1.97 1.64-1.54-.5-4.25-.76-5.07 1.06-.2.5-.2 1.1.1 1.7.2.45.57.9 1.02 1.3-.87-.06-1.9.05-2.62.5-.5.3-.8.8-.9 1.4-.1.5.1 1.2.5 1.7.25.32.6.62 1.02.9-.76-.1-1.7-.07-2.42.4-.4.3-.7.8-.8 1.3s0 1.1.4 1.6l.03.03c-.1.01-.22 0-.3-.01l-4.53-1.32c-.1-.07-.2-.13-.3-.17.84-1.6 1.86-3.73 2.15-4.35.82-.36 4.1-1.94 5.85-4.62a9.57 9.57 0 0 0 .77-1.46c.27-.26.56-.7.7-1.4.01-.16 0-.53-.08-.8-.02-.12-.07-.23-.12-.34l6.54-7.55zM291.96 129c-.12 0 .63-.66.38-.57 1.34-1.44 2.72-2.34 2.97-3.1.62-.64.8-.7 1.14-1.02l-.14.17 2.3-2.53c.37-.54.35-.64 1-1.63-.13.35.1-.06.28-.44-.12.24-.13.33.16-.15.02-.08.06-.2.1-.3.01 0 .02-.02.02-.01.27-.66.2-.55.06-.26 0-.02-.02 0-.08.1.4-.63.73-1.92.84-1.98.28-1.04.37-1.97.4-2.83.02-.44 0-.86.07-1.18.08-.36.26-.7.48-1.05.16-.1-.05.22-.22.63.14-.33.37-.64.6-.94.04.05-.38.54-.52.85.73-1.05 1.78-2.2 3.22-3.13l.25-.26.1-.05c-.02-.02.26-.3.46-.45.22-.07.1.1.75-.36.52-.3 1.6-.9 2.38-1.25-.44.17-.3.08-.14-.03.4-.16.64-.18.93-.33l.07.07c-.2-.03 1-.47 1.13-.56.25-.01-.6.28-.68.36 1.6-.58.8-.3 2.4-.84.84-.35-.18-.03.2-.25l1.3-.45c.02.03.04.06.08.08.2.18.47 1.1-.82 3.13-1.8 2.73-5.53 4.3-5.57 4.3l-.18.07-.08.18c-.02.03-1.52 3.22-2.5 5.02-.03-.01-.03-.01-.01.02-.02.04-.05.1-.07.13-.13.24-.05.55.2.68.05.03.1.03.15.04.4.15 1.02.12 2.36 1.92.8 1.1 1.28 2.46 1.57 3.66.22.13.46.22.63.15.16-.07.26-.24.33-.43-.32-1.3-.85-2.74-1.73-3.97-.17-.23-.34-.44-.5-.63l2.82.82c.16.03.3.05.46.05a1.7 1.7 0 0 0 .87-.25c.78.6 1.85 1.08 2.97 1.22.4.1.8.1 1.2.1 1.3 0 2.6-.5 2.9-2.5.15-.66-.1-1.15-.54-1.5.1.01.23.01.34.01.84 0 1.8-.15 2.5-.73-.2.32-.37.55-.42.55-1.2 1.94-2.96 4.57-3.65 5.85l.03-.1c-.38.74-.6.9-1.1 1.66-.04.03-.08.08-.08.07-.23.4-.6.9-1.03 1.26-.5.38-1 .74-1.3.98l-.08-.03-1.43 1.1.55-.4c-.08.3-1.16.73-2.13 1.6-.5.36-.93.8-1.38 1.26-.46.44-.94.84-1.5 1.17-.46.4.34-.38-.3.1-.02.03-.04.06-.06.1-.03-.01-.01-.07.02-.14.1-.1.26-.2.06-.13l-.1.08c-.53.8-.92 1.1-1.5 2.02l-.1-.01c-.73 1.24-1.66 2.13-2.1 2.98-.8 1.23-.76.67-1.54 2l-.43.43c-.4.52-.18.45-.64 1.02-.03-.07-.58.72-.38.34-.74.9-1.38 1.94-2.17 3.06-.38-.36-.74-.68-1-.84h.05c-.3-.16-.32-.3-.62-.52-.01-.02-.02-.05-.01-.05-.33-.18-.76-.74-1-.9l.03-.06-.52-.5.18.2c-.2.06-.3-.47-.76-.75-.33-.36-.97-.43-1.27-.86-.23-.1.25.05-.05-.16.06-.08.16.08.15-.04-.28-.22-.34-.48-.7-.75l.04-.07c-.5-.3-.7-.83-1.06-1-.46-.37-.12-.44-.66-.77l-.1-.24c-.17-.2-.22-.05-.4-.3.06-.03-.22-.3-.06-.22-.4-.54-1.05-.85-1.54-1.58-.22-.05-.48-.4-.64-.44.02-.05-.6-.63-.18-.36.04.02.1.08.07.1l.1-.01c-.2-.36-.53-.53-.83-.77 1.57-1.37 2.52-2.53 3.94-3.75zm-3.98 3.75zm.04-.03c0-.01.01-.01.01-.02h-.01zm-2.3-.22c.1-.06.14-.1.22-.06l.42.4 1.3 1.2c.85.8 1.68 1.58 2.36 2.4v.13c-.06.12.55.28.52.42l.22.13c.03.07.12.2.01.12.16.16.18.15.32.24l.12.23c.6.68 1.24 1.1 1.9 1.8.7.92 2.3 2.33 3.25 3.14 1.36 1.1 2.43 2.88 3.84 3.98.03.05.16.13.17.12l1.14 1.16.8.8.16.15.07.06c.05.03.1.1.1.16-.03.12-.1.16-.36.46l-.2.22c-.22-.32-.5-.65-.5-.65-1.13-1.38-1.95-1.84-3.5-3.28-1.3-1.33-1.52-1.8-2.93-3.1-.64-.65-1.36-1.3-2-1.93-.4-.2-.84-.82-1.27-1.1l-.1-.2c-.15-.1-.3-.22-.4-.37l.02-.01c-.22-.14-.4-.37-.52-.44l.02-.01-.23-.2.06.02c-.36-.28-.7-.6-.97-.9l-.04.1c-.55-.68-.9-.78-1.4-1.42l.02-.01c-.87-.54-1-1.22-1.9-1.8.1.07-.01-.07.01-.08-.35-.32-.72-.66-.85-.55-.24-.24-.16-.24-.15-.3-.03.03-.1-.01-.2-.07a2.23 2.23 0 0 1-.24-.2l.06.02-.28-.24a.54.54 0 0 0-.13.07c-.1-.15.1-.08.06-.14.02-.01.03-.02.05-.04l-.17-.03a1.27 1.27 0 0 1 .45-.17c.15.01.44-.1.67-.22zm-2.7 23.88c-4.24-3.2-8-7.15-10.6-10.17a57.46 57.46 0 0 1-2.4-2.89l2.34-1.68c3.32-2.37 6.75-5.04 9.86-7.5.1-.08.18-.17.27-.25.05-.04.07-.07.12-.1a.72.72 0 0 1 .34-.11c.13 0 .27.02.4.1.14.07.2.13.48.42.95.95 1.93 1.94 2.78 2.66l.53.7c.6.5 1.26 1.1 1.76 1.7h-.06c.88.74 1.76 1.7 2.2 2.06l-.06-.01 1 .97-.2-.13a82.81 82.81 0 0 1 4.21 4.1v-.2a60.75 60.75 0 0 0 3.21 3.22l1.4 1.36.18.18c.06.07.07.07.1.12.06.07.1.16.14.26.07.2.1.44.03.66l-.03-.03c0 .14-.02.28-.08.4a2.86 2.86 0 0 1-.16.27l-.2.32c-.28.42-.56.8-.83 1.2-.55.75-1.1 1.43-1.66 2.1-1.12 1.36-2.26 2.72-3.55 4.6.32-.47-.2.14-.2.08l-2 2.54c-2.74-1.95-6.05-4.33-9.3-6.88zm-29.54 36.75l-.93.57c-.28.1-.9.3-.42.06-.92.38-.93.42-1.56.76l-1.03.3-2.1.74.25-2.8.03.07.2-2.08.02.36.18-2.42 1.87 1.2-.1-.24c1.95 1.24 3.44 2.1 4.83 2.84-.53.34-1.04.66-1.23.65zm60.3 17.06a16.36 16.36 0 0 0-.13 1.07c-.16-.01-.24.02-.25.08l.38-1.15zm-.4 1.18c.03.05.1.13.26.23l-.3-.1.05-.14zm8.35-20.06l-.12.08c-.14 0-.03.7-.18.76l-.03.3c-.05.07-.12.22-.1.08-.1.25-.07.26-.1.46l-.17.25c-.4.98-.52 1.88-.9 2.92-.57 1.2-1.22 3.64-1.6 5.03-.45 2-1.68 4.06-2.12 6.1a.49.49 0 0 0-.04.24l-.6 1.8-.4 1.27-.25.82c-.04.08-.13.08-.2.06l-.13-.02-.27-.06a8.87 8.87 0 0 0-.41-.07c.2-.4.4-.9.4-.9.82-1.9.92-3 1.62-5.35.7-2.04 1.05-2.54 1.68-4.7.35-1 .66-2.1.97-3.1.03-.5.43-1.3.5-1.9l.14-.2c.03-.2.08-.44.18-.62l.02.02c.04-.3.18-.62.2-.77l.02.02.1-.35v.07a8.85 8.85 0 0 1 .45-1.48l-.1.01c.4-.94.36-1.35.75-2.2l.02.02c.14-1.18.72-1.7.9-2.92-.02.15.06-.05.08-.03.15-.53.32-1.1.16-1.16.13-.38.15-.3.23-.33-.07-.02.01-.36.1-.66l-.02.15.13-.43.06-.23a.38.38 0 0 0-.15 0c.13-.26.16.07.2-.18l-.08-.14.04-.08c.4.26.3.4.88.78l.1.06c.08.03.12.13.08.2-.1.3-.18.57-.26.87l-.56 1.9c-.38 1.24-.77 2.48-1.25 3.6zm8.07 21.78h0zm1.33-1.78c-.04.1-.1.2-.14.3s-.1.25-.14.26c-.08.1-.18.17-.3.22.06.06 0 .1-.06.14l-.03-.07c-.24.16-.1-.12-.34-.05l.03-.05c-.03.05-.06.1-.1.14h-.01l-.05-.01c-.46.04-.2-.2-.75-.1.2.03.06.18-.18.1l.08-.06c-.14-.01-.2.01-.28-.03.1-.02.06-.1-.14-.12l.15-.06-.4.05c-.28-.14-.77-.14-.87-.26 0 0-.16-.05-.33-.08-.12-.02-.13-.02-.14-.02-.03 0-.07 0-.1.01.08-.02-.03-.14.06-.18-.1.05-.32-.16-.25-.3l.01.01v-.24l.01-.1.05-.23c.07-.3.13-.6.28-.9-.1 0 .06-.3-.07-.26.1-.68.6-1.12.34-1.45.08-.3.2-.33.25-.47l-.01.08c.15-.56.2-.72.33-1.13.03-.22-.1-.3.04-.65.02.14.06-.02.1-.15-.02.1 0 .12.1-.04-.01-.03-.01-.07-.01-.1.07-.24.04-.2 0-.1-.01-.01-.02 0-.05.03.15-.2.2-.67.32-.66.2-.7.24-1.23.4-1.8.07-.05.08.1.05.27l.1-.4c.08.03-.03.25-.05.38.28-.45.2-1.04.5-1.57l-.02-.14.01-.02c.15.07.3.13.4.14h-.04c.24.01.26.12.5.18.01.02.02.03.01.04.25.01.63.26.83.3l-.01.07.45.14-.16-.07c.1-.15.3.23.66.2.3.1.7-.24 1-.1.16-.07-.15.12.08.08-.01.1-.12.05-.07.13.23-.02.36.15.65.1l.01.08c.12-.03.23-.03.33-.02-.07.23-.22.4-.27.72l-.08-.01c-.02.52-.38.86-.36 1.22-.1.5-.32.26-.34.8l-.16.17c-.1.2.07.2-.06.42-.06-.03-.15.3-.16.13-.27.52-.23 1.15-.62 1.82.07.2-.12.53-.07.68-.06 0-.24.72-.22.28 0-.04.02-.1.04-.1l-.05-.07c-.26.37-.17.77-.32 1.17.06-.1.1-.28.12-.15l-.13.37-.03-.1-.22.55.1-.05c-.13.26-.28.32-.28.66.01.14.18-.24.1.05z"/></svg>