<svg xmlns="http://www.w3.org/2000/svg" viewBox="0 0 480 480" xmlns:v="https://vecta.io/nano"><path d="M362.36 208c-.47-.27-1.1-.55-1.82-.82 1.7-.8 2.28-1.87 2.02-2.58-.9-2.3-7.5-2-13.6-3-1-.2-2.23-.2-3.6-.08-4.14-1.5-7.83-2.73-11.2-4.32-.4-.2-1.5-.87-3.03-1.86l1.13-2.84a1.59 1.59 0 0 0-.7-2c-5.7-3.2-29.8-17.1-43.2-27.5-7.2-5.6-11.4-12.4-23.1-30.2-4.5-6.77-8.64-12.38-12.07-16.74l.37-17.06-11.5-1.8-.52 2.68-30.18-7.78s-1.95 2.46-5.35 7.44c-14.3.75-36.87 6.75-58.35 26.86-26.2 24.6-29.3 68.9-29.7 76.1 0 .6.4 1 1 1.1l6.87.73-.27 5.77s-1.2 5.82-.3 12.47L98.96 220c-1.5-.2-2.9 1-3.1 2.6l-4.2 41.3c-.2 1.6.9 3 2.5 3.2l61.4 6c1.6.1 3-1 3.1-2.6l.63-6.18c22.07 3.43 59.32-4.03 66.97-13.72 6.35-8.03 8.2-19 10.4-42.07l7.62-.03v.3l6.9 1.6.54-25.2c4.4 4.62 8.4 8.24 11.46 9.9 15.7 8.5 49.7 19.8 57.4 22.3.9.3 1.9-.1 2.2-1l2.34-5.88 8.06 1.98c1.7.4 3.4 1.3 5.8 1.6 2-3.5 5.8-5.8 10.1-5.8 6.4 0 11.6 5.1 11.6 11.5 0 1.1-.2 2.2-.5 3.3.1.2.2.4.4.5 3.6 1.7 4.8-14 1.8-15.6zm-223.7 13.4c0-.2.35 1.77.55 2.47l2.88.17c0-2.1-.13-6.54-.13-6.94l-.1-.35a5.62 5.62 0 0 0-.2-.76c-.12-.42-.25-.82-.4-1.2-.4-.9-.9-1.6-.9-1.7l1.75-7.05 7.05.75c.9.1 1.7-.5 1.9-1.4.6-3.2 2.1-10.3 3.7-15.6 2.06-6.77 7.3-17.86 14.3-23.56-5.46 11.82-10.33 23.52-14.36 34.44l-2.34 5.52c-.2.46-.23.92-.1 1.32-2.1 6.08-3.93 11.84-5.4 17.16l-8.82-.86c.32-1.37.6-2.34.63-2.42zm134.97-77.22l.44.76c.01-.02-.1-.22-.44-.76zm-34.13 65.58l.28-.02h-.05c-.07.01-.16.02-.23.02zm-75-35.26l.1-.26-.1.26zm-40.87 96.2l-.57-.1c.01.03.15.06.57.1zm83.07-8.98l.4-.2c-.01 0-.01 0-.02.01l-.4.2zM172.84 107.9l.2-.1c-.14.06-.18.1-.2.1z" fill="#fff"/><path d="M364.32 211.48c-.2-1.32-.58-2.44-1.1-3.1-.24-.33-.52-.5-.7-.57-.16-.07-.2-.04-.1.04.2.17.8.8 1.07 2.3.28 1.48.4 3.75-.02 6.86l-.01-.17c-.2 1.85-.53 3.34-.98 4.58-.23.6-.5 1.18-.86 1.54-.34.36-.74.38-.95.15a.24.24 0 0 0 0-.12c.02-.05.05-.1.07-.18a10.72 10.72 0 0 0 .25-1.15 12.56 12.56 0 0 0 .14-2.27l.02.1c-.17-2.38-.82-4.98-2.34-6.78.06.07.15.06.44.5-.9-1.47-2.74-2.93-2.8-3.04-.9-.7-2.04-1.3-3.25-1.73 2.3.1 4.12.08 5.87-.13.9-.12 1.7-.47 2.38-.94l.52.2.65.2c.37.15.46.14.37.04-.34-.33-.76-.54-.98-.72l.2-.07c.03-.02-.02.02.08-.05l.23-.2.4-.43c.23-.3.37-.62.44-.88.07-.25.07-.42.07-.42a1.85 1.85 0 0 0-.07-.61c-.06-.2-.15-.32-.24-.48-.16-.33-.42-.5-.63-.7-.46-.33-.92-.55-1.37-.72-.9-.33-1.7-.46-2.5-.6l-4.57-.48-4.73-.5c-.88-.17-1.9-.2-2.9-.15l-.77.05c-.18.01-.12.02-.16.01l-.3-.1-1.53-.54-8.26-3.3-.84-.4-.78-.47-1.34-.85.98-2.3-.1.27.1-.23c.05-.13.1-.27.13-.4.06-.27.1-.55.08-.83-.03-.57-.25-1.13-.6-1.56-.32-.44-.9-.75-1.08-.84l-.8-.44-3-1.66-5.87-3.43c.12.24-2.03-1.14-1.6-.65-4.4-2.4-7.6-5.03-9.42-5.5-1.95-1.17-2.2-1.54-3.2-2.2l.47.26-7.3-4.65c-1.35-.82-1.7-.75-4-2.38.82.43-.15-.2-1.02-.8.56.37.76.46-.34-.4-.18-.08-.44-.24-.68-.4 0-.01-.05-.05-.02-.04-1.47-.98-1.23-.78-.57-.3-.04-.01 0 .05.2.2-1.42-1.16-4.15-2.97-4.2-3.26-4.3-3.06-7-5.65-9.8-9.05-.23-.45.45.33 1.3 1.26-.68-.78-1.32-1.6-1.97-2.4.12-.05 1.16 1.36 1.8 2.08-2.18-2.97-4.8-5.96-7.1-9.7l-.6-.7-.13-.23c-.04.04-.65-.73-1.02-1.26-.24-.58.25-.1-.96-1.92-.85-1.5-2.73-4.04-4-5.88.65 1.02.38.73.06.32-.6-.9-.84-1.5-1.35-2.16l.06-.14c-.18-.07-1.7-2.35-1.96-2.6-.25-.58 1.03 1.34 1.25 1.52-2.45-3.6-1.2-1.82-3.7-5.4-1.42-1.84.12.43-.63-.4-1.2-1.66-2.45-3.23-3.78-5.18l.33.68-4.15-5.45c.01-.94 0-1.88-.02-2.8.04-.26-.02-.94-.04-.93l.2-7.34.14-7.77-4.1-.6-3.2-.43c-2.02-.25-3.7-.43-4.55-.43-1.68-.01.03.66 9.28 2.73l-.2.02c.15.03.3.06.45.08l.23.05c.1.02.2.05.3.07l-.03.42-.03.98-.04 1.9c-.01 1.22.02 2.35.1 3.52-.3.43-.1 3.3-.2 4.24l-.02-.1c.17 2.46-.3 5.04-.15 7.4-.02-.1-.1-.14-.1-.7 0 1.72.01 4.08-.16 4.2-.04 4.1-.25 9.85-.03 12.48l-.04-.18c.15 1.5-.01 1.94.04 3.62-.02.1-.04.2-.05.2.14 1.64-.07 4.77-.03 6.1l-.1.08-.04 3.26.05-1.22c.3.43-.24 2.46-.1 4.82-.1 2.2.54 4.5.34 6.8.12 1.1-.2-.97-.14.67-.16.05-.08-.77-.22-.35.04 1.6-.22 2.63-.15 4.6l-.13.08c.17 2.6-.27 4.87-.1 6.6.05 2.67-.4 1.78-.22 4.56l-.2 1.08c-.05 1.2.2.86.08 2.17-.1-.08-.12 1.66-.2.9-.23 2.98.1 6.05-.26 9.97.2.86.02 2.83.16 3.47-.1.1-.1 3.96-.25 1.74-.01-.2 0-.53.03-.5l-.12-.27c-.28 2.23.04 4.07-.04 6.28.05-.66.06-1.53.13-.94l-.06 2.06-.1-.43-.13 3.06.14-.42c-.1 1.5-.33 2.02-.18 3.72.08.77.2-1.42.2.17-.08 1.1-.2 3.53-.25 3.28l-.3-.1-1.27-.33c.2.2-.47.03-1.17-.1l-.05-.14c-.52-.1-.86-.16-1.1-.22l.15-2.56c.05-.97.08-1.9.1-2.73l.2-1.27c.01-1.14.04-2.48.18-3.62l.03.07c.01-1.7.18-3.62.18-4.46l.03.07.1-2.06.03.36c.08-2.97.25-6.02.45-8.7l-.16.2c.5-5.74.32-7.86.82-13.04l.03.07c0-6.58.87-10.36.9-17.14 0 .85.1-.36.13-.3.15-3.1.3-6.45.02-6.5.1-2.28.17-1.85.3-2.14-.13.01-.1-1.97-.07-3.75l.03.82c.03-1.7.03-3.4.01-5.1l-.24 1c.06-2.7.3-.7.2-3.28l-.2.04c-.07-3.74.1-5.96-.17-9.6-.42-3.7-1.15-7.46-2.4-11.12l.03-.34.13-.1c-.1-.2.26-3.84.25-4.33.2-.8-.13 2.24-.08 2.6l.86-8.66.1-1.28c.01-.14.01-.25.02-.34.02-.05-.03-.06-.07-.06-.03-.01-.06-.01-.1-.01-.1-.01-.1 0-.06.02.02.03.2.01.12.17-.1.52-.2 1.23-.18.3-.01-.1.06-.25-.01-.3l-.96-.24-1.1-.26-2-.48-2.4-.6c.3-3.24.1-3.4-.26-2.35-.18.5-.4 1.3-.6 2.1l-.98-.27.93.38c-5-1.17-7.95-1.95-11.26-2.95l-17.68-3.75c.24-.4.28-.57.06-.4-.08.07-.2.18-.38.35-1.3-.2-1.18-.03-.3.3-.85.9-2.4 2.74-4.72 5.8-1.92.04-3.82.16-5.6.5.13-.04.2-.13 1-.23-2.56.28-5.98 1.05-6.2.9l-4.8 1.12c-1.65.5-3.37.9-4.97 1.48s-3.15 1.06-4.48 1.64c-1.33.57-2.5 1.08-3.37 1.5l.23-.14c-2 1.02-2.6 1.22-4.84 2.34-.13.04-.3.1-.28.08-2.1 1.25-6.25 3.32-7.85 4.48l-.17-.03c-1.37.85-2.75 1.68-4.05 2.64l1.5-1c-.17.3-.95.8-2.03 1.46l-1.8 1.16c-.66.43-1.35.92-2 1.5-1.3 1-2.5 2.15-3.73 3.3-1.2 1.2-2.34 2.42-3.67 3.48-1.1 1.18.9-1.12-.83.57-.17-.06.78-.82.23-.5-.43.4-.84.76-1.23 1.1l-1.14 1.06-1.2 1.14c-.4.43-.84.92-1.32 1.48l-.17.01c-2.4 3-4.78 5.47-6.04 7.72-1.1 1.65-1.5 2.18-1.94 2.7-.43.54-.88 1.1-1.8 2.95l-.95 1.3c-.86 1.55-.42 1.2-1.4 2.9-.04-.16-1.17 2.18-.75 1.1-2.12 3.9-3.56 8.26-5.75 13.67-.22 1.26-1.24 4.02-1.35 4.97-.16.1-1.63 5.64-.92 2.42.06-.28.2-.76.23-.7l-.01-.4c-1.16 3.13-1.46 5.87-2.22 9.06.24-.94.54-2.2.42-1.34l-.68 2.97.04-.64-.96 4.45.24-.6c-.48 2.17-.83 2.9-1.04 5.42-.08 1.14.5-2.05.17.27-.55 2.92-1.25 7.33-1.6 11.12.17-.34.08.68.04 1.73l-.13.1-.04 1.25c0 .17-.03.28 0 .6a2.4 2.4 0 0 0 .16.64c.35.74.73.94 1 1.13a2.43 2.43 0 0 0 .51.23c.1.03.25.07.34.08.07.01.16.03.25.04.38.06.96.12 1.95.2l.7-.1c2.46.1 2.44.27 3.47.4-.03 1.4-.1 2.83-.18 4.3l-.02.3c0 .06 0 .06-.01.1l-.03.15-.1.6-.2 1.2c-.12.8-.2 1.63-.3 2.45-.22 2.32-.23 4.7.01 6.96-1.85-.13-3.84-.23-6.12-.63-.8.13-2.6-.17-3.2-.07-.1-.1-3.64-.37-1.58-.36.18 0 .5.03.46.07l.26-.1c-2.03-.43-3.75-.24-5.8-.47.6.1 1.4.17.86.2l-1.9-.2.4-.06-2.8-.34.37.16c-1.37-.2-1.83-.46-3.4-.43-.72.03 1.3.3-.17.2l-1.53-.22-.85-.12-.45-.06a3.25 3.25 0 0 0-.63-.03c-1.8.05-3.27 1.52-3.6 3.1.1-.13.1.01.07.3-.02.23-.04.56-.06.9l-.13.06c-.08 2.52-.37.88-.48 3.38l-.06-.23.2.68c.02 2.26-.38 1.18-.3 3.7.08-.98.32-.43.14.77l-.1-.32c-.04.67-.02.9-.1 1.34-.02-.4-.15-.23-.23.76l-.08-.68.03 1.9c-.27 1.42-.34 3.72-.57 4.3 0 0-.4 3.08-.28 3.8-.05-.63-.27 1.06-.35.56.05.8-.1 3.2-.32 4.12v-.18c-.5 3.48-.42 6-.9 9.13.16-.13-.1 1.52.14 1.13-.07 1.63-.32 3.1-.5 4.32-.08.6-.15 1.15-.17 1.62-.02.4 0 1.03.2 1.35.16.9.46 1.4.7 1.78.25.37.48.64.9.9-.14-.07-.27-.15-.4-.24.7.56 1.55.74 2.1.77l1.33.12 2.55.25c1.03.05 1.22-.2 3.06.04-.6.05.15.1.84.17-.44-.03-.58 0 .3.16.13-.02.33-.02.52-.02.01.01.04.02.02.03 1.15.08.96.02.43-.04.03-.01-.01-.04-.18-.08 1.18.25 3.33.32 3.45.5 3.46.3 5.95.35 8.83.56.3.12-.37.14-1.2.1l2.04.17c-.03.13-1.18-.04-1.8-.07 2.4.45 5.03.27 7.86.75l.6-.05.17.03c0-.06.64-.07 1.07-.05.4.16-.06.26 1.35.4 1.1.22 3.17.25 4.64.33-.8-.1-.52-.14-.18-.14.7.07 1.1.22 1.65.22l.05.16c-.26-.17 1.86.02 2.13-.02.4.16-1.1-.01-1.3.06l4.24.4c1.52.03-.26-.18.48-.24 1.33.1 2.65.12 4.17.36l-.47-.2c2.5.14 4 .3 5.68.6 18.75.7 4.08-1.16 4.08-1.16-7.3-1.02-11.13-1-19.88-1.73-7.67-.82-9.68-1.3-17.65-1.96l-11.56-1.06c-1.78.04-4.87-.47-6.97-.5-.12-.03-.3-.06-.36-.1-.07-.03-.15-.07-.22-.1-.44-.05-.92-.38-1.05-.8l.04.01c-.2-.26-.28-.6-.25-.93.03-.4.1-.9.1-1.15l.03.05.12-1.3.03.23c.1-1.88.28-3.8.5-5.5l-.16.12c.53-3.6.37-4.97.9-8.23l.03.05c.04-4.2.93-6.52 1-10.83-.01.54.1-.22.13-.17.16-1.97.35-4.07.07-4.14.15-1.43.2-1.16.34-1.33-.12-.01-.05-1.26.06-2.38v.52l.28-3.2-.3.6c.24-1.7.33-.4.44-2.03h-.2a36.03 36.03 0 0 1 .23-1.6l.13-.72c.04-.23.1-.48.15-.62.24-.67.8-1.22 1.48-1.4.38-.14.6-.1 1.3-.02l1.8.17 3.62.32 7.28.6c4.38.36 8.67.75 12.7 1.27.05.25.07.5.12.75a4.15 4.15 0 0 0 .17.7c.37 1.85.8 3.68 1.3 5.5 0 0 .2.77.64 1.93.2.57.54 1.28.9 1.93.07.1.16.43.38.67.2.25.54.36.87.36.16 0 .35-.04.48-.08l.1-.03.02-.01.05-.02a.94.94 0 0 0 .18-.12c.03.03.04.13.06.2l.04.1.12.3c.2.43.44.85.83 1.2.38.35.95.6 1.53.46.28-.06.53-.2.7-.4.1-.08.18-.2.23-.25.04-.05.05-.1.07-.12.03-.05.04-.1.06-.17.04 0 .07-.02.1-.03.02.02.04.04.06.05.03.02.07.04.1.06.03.01.07.03.18.07.18.05.36.08.52.07.67-.04.96-.37 1.02-.44.05-.1-.1-.01-.58.1a1.41 1.41 0 0 1-.92-.16c-.02-.02-.04-.03-.06-.03.02-.06.03-.1.03-.18l-.4-10.55c-.01-.28-.26-.5-.52-.48-.28.01-.5.24-.48.52l.4 10.55c0 .05.02.1.03.15-.35.6-.9.74-1.4.33-.25-.2-.46-.52-.62-.9a2.09 2.09 0 0 1-.11-.3 5.12 5.12 0 0 1-.13-.43c-.1-.35-.15-.8-.22-1.22l.06.2c-.03-.1-.03-.26-.07-.3-.02.01-.03.02-.05.04l-.23-7.88c-.01-.28-.25-.47-.5-.5a.51.51 0 0 0-.49.51l.25 8.5c-.05.03-.1.06-.16.1-.1.05-.1.04-.13.05s-.04.01-.06.01c-.13.03-.26-.03-.3-.15l-.06-.15-.1-.22c-.07-.13-.14-.27-.2-.4-.13-.25-.24-.5-.35-.74-.42-.97-.74-1.9-1.08-2.86.07-.36-.62-2.42-.7-3.14l.03.06c-.56-1.8-.68-3.75-.94-5.5.02.07.07.1.12.5-.18-1.28-.26-3.06-.16-3.16-.05-1.55.01-3.4.17-5.12.07-.86.17-1.67.27-2.4a10.7 10.7 0 0 0 .07-.52c.01-.08.03-.16.04-.32v-.25l-.01-.86.02.14c-.05-1.15.05-1.48.06-2.77.02-.07.03-.16.03-.14a8.85 8.85 0 0 1 0-.73c.4.02.9.05 1.54.06-1.57-.14-.7-.35 1.2-.1l-.5.07c1.07.1 1.43.08 2.14.18-.64 0-.35.14 1.22.28l-1.07.04 3 .1c2.28.37 5.92.6 6.84.86l.87.1-.95 4.3c-.12.25-.03-.3.1-1l-.4 1.65c-.08-.03.2-.96.3-1.47-.15.48-.28.98-.4 1.5-.06.28-.1.44-.2.87-.05.18-.01.4.1.57l.25.4c.28.45.55.9.73 1.4.2.5.33 1.05.45 1.63a3.7 3.7 0 0 1 .08.21c.02.03.03.06.04.16l-.01.14c.03-.01.1.52.1.87-.06.33-.16-.02-.14 1.15-.03.46 0 1.12.03 1.82l.1 1.96c0-.13.01-.2.01-.27 0-.07.01-.1.02-.1.01.01.03.13.05.27.01.24-.02.38-.03.5-.1-.01-.18-.02-.27-.02l-.07-.1c.03.02.01.04-.05.05-.04 0-.06.01-.15.01h-.3c-.44-.01-.93-.03-1.04-.01-.33-.1.9-.01 1.06-.05l-1.13-.06c-.1-.03-.23.04-.23-.06-.02-.07-.04-.15-.07-.27l-.22-1.07.04-.14.04-.16c.01-.02.02-.07.01-.05h0l-.2-.1c-.08-.28-.08-.17-.07-.04l-.1-.05-.04-.16v-.05c0-.01 0-.01-.03-.07-.01-.02.01 0-.04-.05-.02-.02-.1-.1-.26-.06-.13.06-.13.13-.15.15v.02c0 .02 0 .03-.01.05-.01.04-.02.07-.03.1-.03.01-.06.02-.1.03l-.33.1v.01l.01.05.03.13.07.3c.02.1.05.22.08.34-.15.62-.3 1.25-.5 1.95l.18-.37c-.42 2.04-.7 3.25-1.03 4.62-.3 1.93-.28 3.44-.42 4.58-.12 1.15-.23 1.94-.4 2.48-.06.14-.1.26-.22.4s-.15.14-.2.2c-.1.1-.14.15-.14.18-.01.06.15.01.4-.1.3-.22.42-.46.52-.66.1-.2.18-.43.26-.66.15-.45.27-.94.36-1.4.2-.9.3-1.68.3-1.68.27-2.08.63-3.72.97-5.38l.37-1.74c1.77.13 3.56.25 5.54.47 2.35.37 5.75.7 9.2 1l5.1.4 1.2.1c.2.01.4.03.58.04.14.02.26.03.4.07a2.07 2.07 0 0 1 1.17.85c.18.27.3.6.32.93.02.3-.04.8-.08 1.27l-.3 2.83-.75 5.8c-.53 3.9-1.05 7.83-1.24 11.54-.05.24-.05.86-.02.86l-.72 6.75-.47 4.73-.4 4.32-.17 2.2c-.06.68-.08 1.5-.16 1.87-.2.9-1 1.43-1.56 1.6-.54.18-.9.2-.7.35.1.06.32.15.73.15.4 0 1-.1 1.64-.57a2.86 2.86 0 0 0 .85-1.07 3.17 3.17 0 0 0 .24-.79l.15-.8.72-3.98.03.17c.01-.1.03-.2.04-.32 3.44.55 6.54.5 10.1.58-1.25-.06-2.9-.1-1.8-.15a101.98 101.98 0 0 0 3.91.07l-.8.1c1.94.03 3.9-.01 5.83-.08l-.8-.1c2.85-.07 3.87.1 7.05-.4 1.44-.24-2.7.08.3-.24a127.28 127.28 0 0 0 14.23-1.85c-.47-.05.8-.3 2.12-.6l.18.1c4.98-1.33 1.93-.12 6.83-1.55l.84-.42c2.2-.77 2.8-.92 3.47-1.08.67-.18 1.4-.35 3.76-1.44-1.9.75-.98.1 1.35-.8l-.54.35c1.28-.55 1.68-.8 2.53-1.16-.73.4-.32.37 1.52-.57l-1.18.75c1.14-.63 2.27-1.3 3.35-2.04 1.33-.72 2.97-1.88 4.22-3.22.64-.7 1.07-1.36 1.5-1.9l.9-1.22s.92-1.36 1.72-3c.4-.8.76-1.7 1.08-2.46.28-.77.48-1.43.56-1.8-.17.63.06.1.3-.44.24-.56.45-1.16.37-.65l.98-4.07.98-4.27-.05.37c1.45-7.1 1.64-12.24 2.5-18.63-.17.28.24-3.1-.03-2.28.04-.6.1-1.2.15-1.8h2.35c.7-.06 1.53-.08 2.44-.1l3.23-.03.34.1.78.23 1.44.46 1.44.48 2.7.76c.01-.12.01-.24.02-.37l.1-4.96.05-3.94.06-7.9.1-7.37c.5.53 1 1 1.5 1.4 1.38 1.3 1.8 1.78 2.23 2.3.43.5.9 1 2.5 2.2l1.12 1.1c1.42 1.02 1.1.6 2.73 1.65-.15.07 2.07 1.17 1.05.76 3.7 2.13 7.85 3.58 12.88 6 1.2.3 3.75 1.44 4.64 1.65.1.15 5.22 2.07 2.22 1.1-.26-.08-.7-.26-.66-.28l-.4-.02c2.87 1.4 5.42 1.98 8.35 3.13-.86-.36-2.02-.8-1.2-.58l2.73 1.04-.6-.12 4.06 1.56-.52-.32c1.98.78 2.6 1.26 4.92 1.9 1.06.27-1.84-.84.3-.12 2.64 1.04 6.62 2.57 10.04 3.78-.27-.24.65.07 1.6.37l.07.16c3.7 1.07 1.25.7 4.92 1.8l.7.05c1.68.42 2.1.63 2.57.84.3.13.77.28 1.47.17.35-.06.78-.2 1.2-.54a2.41 2.41 0 0 0 .6-.69c.18-.3.27-.65.33-.83-.04.1-.07.17-.1.24-.04.1-.07.2-.12.28-.1.17-.18.28-.24.35-.13.13-.13.08-.05-.1.1-.14.23-.58.3-.82a16.15 16.15 0 0 1 .42-1.1l-.06.48c.36-.97.44-1.3.7-1.93-.17.6.04.36.58-1.05l-.23 1 .8-2.55 6.67 1.65c1.68.34 3.3 1.1 5.02 1.44.44.1 1.53-.13 1.53-.13.15-.26.62-.78.78-.83.4-.6 1-1.04 1.44-1.5 1.23-1.28 2.87-2.26 4.7-2.76 1.82-.5 3.8-.54 5.66-.05 3.77.9 6.76 3.9 7.95 7.26.07.22.24.8.26.8.26 1.06.36 2.18.3 3.26-.04.54-.13 1.1-.25 1.63l-.1.4c-.03.14-.12.43-.14.64.1.42.4.9.87 1.02 0-.03.2.14.58.13.36.04.93-.15 1.3-.55.8-.77 1.24-2 1.6-3.37.57-2.8.7-6.28.3-8.92zm-218.2 12.9c-1.02.04.9-.14-.6-.18-.03-.16.7-.03.34-.2-1.15-.05-1.97-.26-3.13-.4l-.03-3.98v-2.43c0-.1 0-.25-.04-.36l-.05-.2-.1-.38c-.12-.5-.26-1.03-.47-1.58-.22-.57-.5-1.08-.8-1.6l-.04-.07.05-.2.24-.97.53-2.2.6-2.45c1.5.16 3.34.34 4 .3-1 .01 1.7.34.92.4.32 0 .8.02 1.36.05.1 0 .4.03.63.01a2.41 2.41 0 0 0 .74-.17 2.87 2.87 0 0 0 1.26-.91c.33-.4.54-.95.6-1.36l.18-.9c.12-.57.24-1.08.35-1.44l-.04.28c1.28-5.42 1.85-9.4 3.47-14.07-.23.17.7-2.27.33-1.72 1.6-4.92 4.14-8.38 4.56-10.25.58-1.02.97-1.6 1.3-2.03l.94-1.25-.3.47c1.2-1.8 2.05-2.94 2.86-3.9.27-.33.55-.65.83-.96-.6 1.37-1.08 2.33-1.95 4.45-.1.15-.2.35-.18.3-1.08 2.9-3.54 8.27-4.4 10.6l-.16.1-2.28 5.7.88-2.12c-.01.85-1.92 4.24-3.3 8.47-1.5 3.9-2.34 8.14-3.87 12.18-.52 2 .36-1.8-.52 1.16-.18.04.36-1.4-.01-.7-.9 2.9-1.73 4.66-2.73 8.27l-.16.1c-.56 2.2-1.18 4.22-1.74 6.1-.04 0-.06 0-.08-.01zM160 265.47c.01-.04.01-.08.02-.12.98.16 1.42.24-.02.12zm77.24-75.2c-.1 1.47-.22 3.2-.44 4.65l-.03-.1c-.14 2.2-.44 4.65-.48 5.75l-.03-.1-.23 2.66-.01-.46c-.25 3.82-.62 7.75-1 11.2l.17-.27-1 8.63c-.3 2.42-.56 4.76-1.23 8.02l-.02-.1c-.55 4.17-1.38 7.4-2.5 10.5-1.13 3-2.53 5.94-4.87 9.24.03-.1-.52.55-.5.47-1.2 1.38-2.9 2.52-4.2 3.33-1.3.82-2.24 1.34-2.2 1.5-2.6 1.24-2.18.9-2.56.96.07.1-2.23 1.14-4.4 1.87l.97-.4c-2.03.75-4.1 1.4-6.2 2l1.3-.13c-3.35.87-.92-.02-4.1.88l.1.18c-4.67 1.1-7.5 1.35-12.08 1.95a154.11 154.11 0 0 1-14.55 1.52c-4.9.26-9.87.28-14.73-.2-.73-.07-1.46-.17-2.18-.27.3-2.4.45-4.22.47-6.18.33-.38.34-3.03.52-3.88l.02.08c.01-2.27.65-4.62.68-6.8.01.1.1.14.04.64.12-1.58.28-3.75.46-3.85.34-3.78.95-9.04.93-11.5l.03.17c-.02-.7.02-1.15.07-1.6.03-.23.05-.47.08-.75.02-.3.06-.55.06-1.06.02-.1.03-.24.04-.22-.1-.94-.75-2.3-1.95-2.9-.56-.32-1.3-.42-1.7-.44-.46-.05-.87-.08-1.18-.1l-.07-.12-3-.27 1.12.13c-.42.27-2.24-.4-4.44-.43-1.45-.17-2.97.02-4.5.01.95-3.58 2-7.17 3.3-11.13l6.43-17.7c2.48-6.6 5.16-13.25 7.18-18.08 1.46-3.6 3.12-7.3 4.9-11.03.46-.47 1.07-.98 2.43-1.84-.72.6.24-.08 1.18-.64-.6.37-.75.5.5-.15a7.83 7.83 0 0 1 .66-.47c.01 0 .07-.02.05 0 1.58-.9 1.3-.78.54-.4.03-.03-.04-.02-.3.08 1.7-.82 4.7-2.4 5-2.3 4.98-2.3 8.66-3.76 13-5.27.52-.07-.48.34-1.73.8l3.1-1.04c.01.14-1.76.65-2.7 1 3.74-1.02 7.56-2.6 12.02-3.58l.9-.34.27-.05c-.03-.05.94-.38 1.6-.56.65-.04.02.26 2.2-.28 1.54-.28 4.3-1.02 6.43-1.82.04-.03.08-.05.1-.08-.37.1-.1-.04.26-.2.34-.3.55-.6.52-.88-.05-.44-.75-.52-1.63-.45a7.17 7.17 0 0 1-.43.14l-1.9.5c-1.2.33-2.4.57-3.48.83l-6.03 1.43c-3.85.98-7.75 2-13.8 4.17-5.8 2.03-11.88 4.58-17.03 7.88-1.17.86-2.84 2-4.4 3.46-1.56 1.42-2.94 3.07-3.9 4.48l-.9 1-1 1.58c-.34.54-.68 1.08-1.03 1.56l.01-.08c-.83 1.55-1.84 3.24-2.18 4.04V179c-.32.63-.64 1.26-.93 1.9l.1-.35c-1.24 2.8-2.43 5.68-3.3 8.33l.2-.18c-.97 2.8-1.4 4.75-1.85 6.63l-1.46 6.25v-.08l-.38 2.35-.2 1.1-.05.26a.84.84 0 0 1-.04.12c-.03.1-.07.17-.13.23a.77.77 0 0 1-.39.28c-.07.02-.15.04-.23.03-.04 0-.07-.01-.13-.01l-.25-.03-1.98-.26c-2.63-.35-5.28-.7-8.7-.88.85.04-.36-.1-.28-.14-3.14-.3-6.5-.62-6.57-.35-2.28-.25-1.85-.3-2.14-.43 0 .13-2-.03-3.77-.2l.83.04-5.12-.5.98.34c-1.35-.18-1.52-.27-1.67-.34-.08-.04-.15-.07-.37-.1-.1-.01-.25-.03-.45-.06l-.7-.07-.02.2c-.3-.07-.47-.23-.5-.44-.01-.07-.01-.08 0-.18l.03-.3.06-.6.3-2.25.74-4.7c.9-7.48 2.22-15.2 4.13-22.65s4.45-14.6 7.6-20.86c.13-.17.27-.33.4-.5.3-.15 1.43-3.6 1.9-3.96l.68-1.48c.26-.38.78-1.2.42-.46.76-1.3.75-1.34 1.24-2.3l.98-1.3c3.26-4.92 6.18-9.06 10.66-13.38 1.37-1.26 3.17-2.7 5.04-4.37.92-.85 2-1.6 3.03-2.44 1.06-.8 2.1-1.7 3.2-2.5 2.24-1.57 4.45-3.24 6.67-4.56 1.1-.68 2.13-1.4 3.16-1.96l2.9-1.62c5-2.78 10.8-5.08 16.8-6.7 6-1.63 12.17-2.6 17.96-3.1.38.01 1.36-.07 1.35-.1 2.47-.07 4.9.06 7.32.4l.27-.17s2.17-1.2-.4-1.68l-3.47-.27.13-.02-4.1.01 3.75-5.64c2.72.95 9.74 2.86 9.74 2.86 7.24 2.02 12.76 3.42 18.64 4.86l5.68 1.37.6.14c.14.03.08.02.1.02h.03l.07.01c.01.02 0 .04.01.06v.05c0-.01 0 .01-.01.08l-.06.65-1.07 11.74-3.9 36-2.33 23.56c-.16 3.6-1 9.93-1.26 14.2l-.25 1.66zm8.15-6.96c.16-.22-.08 2.4.15 1.77-.12 5.15-.93 9.35-.46 11.25-.1 2.34-.3 2.76-.4 3.97v-.56l-.24 4.88-.1 1.88c-.02.25-.03.52-.05.8 0 .07-.01.14-.01.2-.01.06.02.17-.1.14-.14.01-.25.04-.38.07l-.86.1c-.63.07-1.43.12-2.88.1.94-.1-.25-.1-1.34-.08.7-.02.9-.06-.52-.12-.15.03-.37.04-.6.06.5-4.88 1.1-8.74.84-10.7.28-3 .5-3.56.68-5.1l-.04.72 1.13-11.48c.16-2.1-.07-2.45.37-6.2-.02 1.22.12-.3.26-1.7-.07.9-.06 1.18.2-.66a10.14 10.14 0 0 1 .04-1.04c.01-.01.02-.1.03-.05.2-2.34.13-1.94 0-.85-.01-.06-.04.03-.1.37.38-2.42.68-6.77.9-7.05l1.53-17.96c.16-.65.1.73-.03 2.43l.4-4.16c.13.05-.17 2.4-.27 3.68.72-4.93.82-10.22 1.6-16l.02-1.2.05-.34c-.06.01 0-1.3.07-2.16.2-.8.26.08.55-2.8.24-1.57.44-4.08.6-6.47.25 1.33.47 2.92.66 4.6.2 1.9.36 3.88.45 5.73.12-.35.2.64.26 1.66l-.12.12c.32 3.9-.2 1.44.01 5.33l-.1-.34.26 1.03c.22 3.53-.25 1.9-.02 5.82.03-1.55.3-.72.18 1.2l-.1-.5c-.01 1.06.02 1.4-.03 2.12-.04-.63-.15-.34-.2 1.2l-.1-1.05.07 2.95c-.26 2.27-.3 5.88-.54 6.8 0 0-.37 4.88-.25 6-.06-1-.26 1.7-.35.93.06 1.27-.06 5.02-.28 6.5v-.28c-.47 5.5-.37 9.46-.83 14.42zm97.23 17.56c.1.03.16.06.24.1h-.2c-.58-.22-.34-.17-.03-.1zm-16.94 5.66c.26-.78-.2.3-.2.23-1.08 2.83-2.26 5.84-2 6-.82 2.05-.75 1.64-.96 1.87.06.02-.07.47-.3 1.13-.05.15-.1.3-.17.48a.81.81 0 0 1-.17.28.96.96 0 0 1-.67.28c.16-.02.3-.08.43-.15a1.1 1.1 0 0 1-.7.09c-.1-.02-.32-.1-.5-.15l-.6-.2-2.35-.75.85.53c-2.46-.9-.54-.48-2.93-1.22l-.03.2c-3.42-1.2-5.33-2.16-8.6-3.44l-20.9-7.52c-6.92-2.64-13.7-5.38-19.63-8.54l-.46-.4c-.07-.15-.92-.5-1.8-.87-.86-.4-1.7-.8-1.85-1.04-.43-.27-.87-.52-1.3-.8-.32-.3-1-.9-.37-.46l-1.97-1.52c-.36-.36-.7-.74-1.06-1.13l-4.86-4.8.22-5.33.16-.42c.22-.18-.26-2.65-.05-3l-.07-1.12c.04-.3.1-.97.14-.42.03-1.03 0-1.06-.05-1.8l.16-1.1c.2-4.06.01-7.52.15-11.8.38-5.13.34-14.8.32-20.38-.12-6.14.5-13.05.67-19.62l2.75 3.58c2.74 3.6 5.6 7.45 9.3 13.04l7.27 11.32c1.05 1.6 2.1 3.2 3.4 5 1.3 1.8 2.82 3.83 4.94 6.15 1.97 2.24 4.35 4.36 6.8 6.14 2.42 1.83 4.9 3.53 7.26 5.15 2.37 1.36 6.25 4.2 9.06 5.77l1 .77c.97.54 2.1 1.2 3 1.85h-.08c1.45.8 3 1.83 3.73 2.22h-.08l1.72 1.03-.32-.14c2.5 1.42 5.06 2.94 7.3 4.32l-.1-.24c2.37 1.5 4.04 2.43 5.65 3.32l2.46 1.38 1.35.8c.6.34.7.42.76.66l-.04-.01c.07.1.1.27.05.44l-.36 1.03-.75 1.95c-.5 1.25-1 2.42-1.5 3.6-1.03 2.32-2.05 4.7-3.1 7.8zm24.8.57c-3.4-.2-6.8.9-8.3 2.1-1.3 1-2.4 1.7-2.4 1.7-.2.2-.3.5-.1.7.1.1.2.2.4.2.03 0 .06 0 .1.01-.22.24-.73.6-.93.85-.17.23-1.2.88-1.36.86l-.06-.08c-.97-.2-1.92-.54-2.9-.87l1.08.38c-.22.03-.75-.2-1.5-.5-.78-.3-1.8-.57-2.88-.8-1.77-.46-3.66-.63-5.5-1.05.9-2.02 1.9-4.88 2.34-5.6 0 0 1.83-4.4 2.06-5.46-.24.93.76-1.5.6-.75.14-.5.46-1.44.82-2.43 1.02.6 2.13 1.3 3.3 1.8l.6.18.16.08c.01-.04.63.18 1.04.33.36.22-.1.15 1.27.67 1 .46 2.92 1.06 4.34 1.52l-2.66-.06c-.2 0-.5.2-.5.5a.47.47 0 0 0 .5.5c2.9.1 5.4.1 7.6 0 .1-.01.23-.01.36-.01.3.02.74.07 1.53.2.68.07.72.06.6.02.8.13 1.68.3 2.6.5 2.2.4 4.4.9 6.1.9 2.7.1 3.3 1.2 3.3 1.2a1.9 1.9 0 0 1-.3.9c-.6.8-1.6 1.3-2.8 1.5-2.33.28-4.73.18-8.53-.02z"/><path d="M203.94 207.18l-.36-.43-.4.4c-.13.14-13.54 14.42-21.12 19.63l-.3.2.1.35c.05.15 1.15 3.73 2.92 5.7l1.02 1.02a1.78 1.78 0 0 0 1.27.53 1.75 1.75 0 0 0 1.06-.35c2.73-2 9.58-7.15 14.32-12 5.27-5.4 7.13-7.62 5.8-9.53-1.5-2.14-4.22-5.4-4.33-5.54zm-2.2 14.37c-4.7 4.8-11.5 9.92-14.2 11.9a.79.79 0 0 1-1.03-.08l-1-1c-1.3-1.46-2.26-4.04-2.58-4.97 6.97-4.9 18.34-16.78 20.58-19.14.8.98 2.77 3.38 3.9 5.03.85 1.2-.68 3.12-5.7 8.26zm31.28-64.7a4.39 4.39 0 0 0-3.14 1.26c-.84.83-1.32 1.95-1.35 3.15-.05 2.48 1.9 4.54 4.3 4.58h.1c1.15 0 2.23-.45 3.05-1.26.84-.83 1.32-1.95 1.35-3.15s-.4-2.34-1.22-3.2a4.29 4.29 0 0 0-3.09-1.38zm2.27 7.02c-.65.65-1.52.98-2.42.97-1.87-.04-3.37-1.64-3.33-3.57.02-.94.4-1.8 1.05-2.46.64-.63 1.47-.97 2.35-.97h.07a3.34 3.34 0 0 1 2.38 1.07 3.52 3.52 0 0 1 .95 2.5 3.57 3.57 0 0 1-1.05 2.46zm-7.2 28.3c-2.42-.06-4.44 1.93-4.5 4.4s1.9 4.54 4.3 4.58h.1c1.15 0 2.23-.45 3.05-1.26.84-.83 1.32-1.95 1.35-3.15.05-2.48-1.88-4.54-4.3-4.58zm2.26 7.02a3.36 3.36 0 0 1-2.42.97c-1.87-.04-3.37-1.64-3.33-3.57s1.58-3.5 3.47-3.43c1.87.04 3.37 1.64 3.33 3.57-.02.94-.4 1.8-1.05 2.46zm-9.06 29.96c-2.4-.06-4.44 1.93-4.5 4.4s1.9 4.54 4.3 4.58h.1c1.15 0 2.23-.45 3.05-1.26.84-.83 1.32-1.95 1.35-3.15.05-2.47-1.88-4.53-4.3-4.58zm2.27 7.03a3.32 3.32 0 0 1-2.42.97c-1.87-.04-3.37-1.64-3.33-3.57s1.6-3.48 3.47-3.43c1.87.04 3.37 1.64 3.33 3.57-.02.94-.4 1.8-1.05 2.46zm-102.45-31.1h0l-.36.05zm195.78 12.44h0l-.34-.03z"/></svg>