<svg xmlns="http://www.w3.org/2000/svg" viewBox="0 0 480 480" xmlns:v="https://vecta.io/nano"><path d="M361.96 207.7c-1.9-1.1-6.3-2.2-9.4-3.5-4.92-2.13-9.25-3.55-13.16-5 .05-.2.1-.4.13-.6.34-1.7 0-2.5-3.42-3.64-3.53-1.25-5.47-2.28-6.72-1.82-.37.12-.66.27-.9.44l-40.32-26.78c-2.82-2.07-9.73-11-15.9-19.33l2.8-1.47s-11.8-21.1-22.2-32.5c-2.73-2.97-5.5-5.98-8.37-8.62a19.17 19.17 0 0 0-3.19-2.71c-6.48-5.03-13.75-7.66-22.95-3.8-10.67 2.58-22.02 12.57-33.38 35.53-8.9 17.9-28.7 61.4-33 72-.6 1.3.3 2.6 1.6 2.6l91.1-.3s1.84-13.98 3.52-36.03c6.72 8.5 13.24 16.38 15.68 18.23 6.7 5.3 17.2 8.2 31.4 12.3 10.8 3.12 20.5 5.37 29.35 7.5-.23.68.17 1.4.93 1.6 1.2.3 3.4 1.1 4.7 1.4 1.1.3 1.8.5 2.1-.5l.18-.56.24.06c1.7.4 3.4 1.3 5.8 1.6 2-3.5 5.8-5.8 10.1-5.8 6.4 0 11.6 5.1 11.6 11.5 0 1.1-.2 2.2-.5 3.3.1.2.2.4.4.5 3.6 1.7 4.8-14 1.8-15.6z" fill="#fff"/><path d="M153.43 208.92c.28-.04.3-.1.13-.16-.18-.07-.66-.13-1.16-.6-.5-.44-.84-1.46-.18-2.45l4.83-9.75-.07.26c2.5-5.35 4.04-8.73 5.5-12.54.53-.47 2.03-4.4 2.68-5.63l-.03.13c1.3-3.37 3.25-6.67 4.52-9.9-.04.13.01.23-.32.96 1.02-2.32 2.42-5.48 2.65-5.58l7.55-16.72-.07.26c.78-2.07 1.2-2.6 2.18-4.86.08-.1.16-.26.16-.24.88-2.24 3.03-6.32 3.83-8.1l.16-.06 2.17-4.25-.84 1.57c.01-.34.46-1.13 1.1-2.2.67-1.06 1.53-2.43 2.3-3.98.83-1.4 1.6-2.84 2.33-4.33a32.16 32.16 0 0 1 2.66-4.26c.84-1.37-.66 1.26.7-.7.18.03-.6.94-.12.53 1.38-1.9 2.43-2.98 4.27-5.2h.17c2.35-2.95 5.06-4.94 6.93-6.56 1.5-1.23 2.13-1.44 2.72-1.74.3-.15.6-.3 1.03-.56.43-.25 1.02-.54 1.86-1.05.03-.01.06-.02.1-.04 4.93-2.05 9.05-2.84 9.05-2.84.66-.16 1.3-.4 1.97-.47a32.7 32.7 0 0 1 2.1-.16c-.14-.2 1.4-.02 1.02-.23.38-.01.75 0 1.12.01a9.74 9.74 0 0 0 .54.02c.17.03.34.07.5.1l1.84.4c1.08.4 1.94.64 2.56.58 1.3.56 1.47.8 2.1 1.14-.1-.05-.2-.08-.3-.12a44.85 44.85 0 0 1 2.57 1.42l2 1.4c.8.58 1.1.45 2.44 1.64-.5-.3.06.17.56.6-.33-.27-.45-.33.15.3.1.06.27.17.4.28 0 .01.02.04 0 .04.86.7.74.56.36.2.03.01.01-.04-.1-.17.77.87 2.34 2.24 2.32 2.46l6.14 6.06c.14.3-.36-.13-.94-.7l1.36 1.46c-.1.08-.8-.8-1.25-1.24.74.94 1.55 1.83 2.44 2.75.85.95 1.75 1.93 2.52 3.1l.44.4.1.14c.04-.04.48.4.75.72.14.4-.22.13.6 1.24.56.94 1.88 2.46 2.75 3.6-.43-.64-.23-.48-.01-.23.4.56.53.95.88 1.36l-.1.14c-.03-.3 1.15 1.4 1.34 1.58.12.4-.7-.83-.86-.92 1.57 2.3.8 1.13 2.33 3.44.9 1.17-.02-.3.48.2.75 1.07 1.52 2.1 2.25 3.4l-.14-.48c1.4 2.02 2.17 3.28 2.9 4.76 5.22 7.54 5.92 8.28 5.52 6.98-.44-1.3-2.2-4.47-2.2-4.47-3.47-6.37-5.77-9.35-10.75-16.4a256.86 256.86 0 0 0-4.98-7.07 82.94 82.94 0 0 0-2.41-3.05 75.06 75.06 0 0 0-3.36-3.71c-2.53-2.76-5.35-5.65-8.2-8.06-.73-.5-1.7-1.26-2.7-2.05-1.06-.72-2.1-1.53-3.1-1.95l-.66-.52c-.65-.34-1.47-.64-2.12-1l.06-.01c-1.02-.42-2.2-.8-2.75-.94l.05-.02c-.44-.1-.85-.3-1.3-.35l.24-.01c-.97-.1-1.94-.32-2.9-.4-.96-.02-1.9-.12-2.8-.1l.15.13c-.93.05-1.72.12-2.43.2-.7.1-1.3.3-1.9.45-.58.18-1.2.26-1.8.52l-.95.34a3.25 3.25 0 0 0-.3.07l-.65.16-.72.27c-.98.38-2 .74-2.27.78l-1.53.72c-.47.12-1.37.55-.64.12-1.4.7-1.4.76-2.38 1.33-.5.23-1 .5-1.5.76-1.35.76-2.5 1.7-3.65 2.57-1.1.92-2.16 1.9-3.2 2.88-2 2.04-3.92 4.2-5.88 6.7-2.52 2.9-5.58 7.5-8.28 12.36-2.73 4.86-5.07 9.98-6.8 13.7-4.72 10.52-11.12 22.32-15.7 33.2-.1.17-.23.5-.34.76s-.2.5-.18.5l-4.5 9.82s-5.42 11.9-8.4 19.48l-.52 1.36-.48 1.3c-.33 1.08.16 2.12.75 2.54.6.5 1.18.5 1.45.48zm176.2-15.07c-.01.02-.01.04-.01.06l.01-.06z"/><path d="M364.1 213.32c-.1-2.02-.44-3.75-1.02-4.8-.3-.52-.64-.87-.9-.97-.23-.12-.28-.08-.15.02.14.13.48.4.73 1 .26.58.48 1.44.6 2.6.1 1.15.14 2.6 0 4.34-.17 1.72-.4 3.84-1.33 5.98l.07-.24c-.25.63-.6 1.2-.96 1.5-.2.13-.36.2-.52.16-.12-.01-.23-.08-.27-.2-.04-.05.01-.1.02-.16l.1-.4.18-.88a10.17 10.17 0 0 0 .15-1.72c-.03-2.23-.6-4.23-1.7-6-.1-.32-.72-1.42-1.68-2.36-.93-.96-2.13-1.76-2.74-2.12l.12.06c-3.2-1.8-7.45-2.24-10.74-.76.08-.03.14-.1.4-.2-1.1.4-2.2 1-3.05 1.64-1 .73-1.64 1.43-1.74 1.46-.27.28-.52.6-.77.92l-.36.5c-.06.08-.12.17-.17.26l-.06.1c.1.17-.98-.1-1.7-.3-.78-.22-1.56-.5-2.37-.77a14.6 14.6 0 0 0-1.08-.31c.01-.08.04-.17.05-.25.2-.03.23-.64.34-.8l.01.02c.03-.52.43-.96.46-1.45.01.02.05.05.02.15.1-.34.2-.82.3-.8.24-.8.64-1.92.66-2.5v.04c-.01-.33.1-.4.16-.73.02-.01.03-.04.04-.03 0-.3.2-.72.28-1.03.1.02.2.03.33.05.53.07 1.3-.1 1.7-.42.4-.32.57-.62.42-.67-.08-.03-.23 0-.5.06s-.63.13-1.06.03v-.03c-.5-.03-.84-.15-1.28-.13-.01-.18-.47-.17-.6-.27l.02-.01c-.42 0-.74-.36-1.13-.35.02-.01.04-.05.12-.03-.27-.06-.63-.13-.62-.23-.63-.16-1.48-.47-1.92-.44l.04-.02c-.26.03-.3-.08-.56-.1-.01-.02-.03-.03-.02-.03-.28.02-.72-.22-.93-.24l.01-.07-.48-.15.17.08c-.12.15-.32-.23-.7-.25-.3-.14-.8.1-1.08-.13-.2.01.2-.06-.06-.1.03-.1.13 0 .1-.1-.24-.07-.3-.26-.52-.35l.04-.06c-.32-.12-.2-.47-.35-.64-.1-.35.2-.23.07-.6l.12-.14c.04-.16-.1-.14-.02-.32.06.02.1-.23.14-.1.2-.4.1-.9.43-1.44-.08-.16.1-.44.03-.56.06 0 .2-.58.2-.22 0 .03-.02.08-.04.07l.06.06c.24-.3.1-.6.27-.9-.06.08-.1.2-.12.1l.13-.28.03.08c.07-.14.14-.27.2-.4l-.1.02c.13-.17.27-.17.3-.4 0-.12-.2.1-.1-.1.2-.2.48-.38.76-.5-.07-.06 0-.1.08-.16l.04.06c.28-.24.17.1.5-.1.01-.04.02-.08.02-.1.23-.2.14.1.43-.1-.13.02-.07-.17.1-.13l-.05.07c.1-.01.13-.04.2-.02-.06.04-.04.1.1.1-.04.02-.07.05-.1.08.1-.04.2-.06.3-.1.2.1.57.1.64.24 0 0 .46.2.6.13-.12.03.14.15.04.2.15-.03.55.04.67.18h-.03c.53.3 1 .25 1.46.54.01-.1.26.06.23-.07.56.1.88.57 1.2.32.25.07.26.18.38.24h-.06c.46.14.6.17.9.3.17.03.26-.1.53.04-.1.02 0 .06.1.1-.07-.02-.1-.01.02.1.03-.01.06-.01.1-.01v.02c.18.05.16.02.08-.02.01-.01.01-.02-.01-.05.15.15.5.23.47.33.5.23.87.36 1.15.67-.02.07-.1.02-.2-.05.06.07.12.13.17.2-.06.03-.12-.1-.18-.16.08.3.43.48.3.94l.06.1-.01.02c.04 0 .07.1.07.17-.08.06-.16-.03-.2.2-.1.16-.06.52-.08.77.04-.13.07-.08.08-.02-.02.12-.1.17-.1.26h-.1c.1-.02.02.32.04.38-.1.05-.01-.2-.06-.24l-.17.7c0 .26.1-.02.14.12-.05.22-.05.45-.18.68l.1-.05c-.07.42-.17.66-.36.9-.14.8-.28 1.24-.36 1.5-.08.26.01.3.14.27.16-.06.4-.26.53-.43.15-.17.24-.32.24-.32.72-1.1.73-1.83.98-3.14l1.07.4-.7-.34c3.72 1.27 5.93 2.05 8.36 3.1 1.72.6 3.22 1.24 4.57 1.73 1.36.48 2.56.83 3.6 1.14 2.08.6 3.52 1.04 4.45 1.42 1.83.82 1.7.7.83.1-.97-.66-2.84-1.35-4.46-1.93l-2.95-1.05c-.66-.25-1.3-.5-1.9-.76l-1.83-.8c-1.2-.5-2.35-.96-3.47-1.4-2.25-.85-4.38-1.58-6.57-2.34l-.77-.27c.08-.32.15-.6.18-.93a2.25 2.25 0 0 0-.8-1.94c-.63-.58-1.35-.85-1.97-1.1-.34 0-.8-.3-1.2-.32l-.1-.1c-.13-.01-.27-.03-.37-.1l.01-.02c-.2-.01-.37-.1-.46-.12l.01-.02-.2-.07.05-.01c-.32-.06-.63-.17-.9-.3l-.01.1c-.55-.3-.82-.23-1.3-.53h.01c-.75-.03-1.02-.54-1.84-.54.1 0-.03-.05-.02-.07-.36-.07-.77-.1-.8.06-.27-.03-.22-.07-.25-.14 0 .07-.25.1-.48.12l.1-.04a2.38 2.38 0 0 0-.65.16l.16.1c-.32.06-.14-.14-.4-.01l.05.1c-.07.03-.14.04-.2.06l-2.15-1.38-23-15.5-15.12-9.95c-1.02-.76-2.36-2.1-3.62-3.6-1.3-1.47-2.56-3.05-3.62-4.3l-.73-1.03a46.06 46.06 0 0 1-2.21-2.8l.06.04c-.7-.83-1.4-1.75-1.94-2.5l-1.07.63c.43.54.82.98 1.15 1.28 1.43 1.83 1.62 2.23 2.34 3.2l-.35-.43c2.72 3.4 3.5 4.4 5.63 6.85.55.6.88.93 1.36 1.35s1 1 2.13 1.98c-.38-.3-.34-.24-.1-.02.13.1.26.27.53.42l.67.42c-.58-.36-.77-.45.4.34.18.1.44.25.7.4.01.01.05.04.02.03 1.52.96 1.27.78.57.3.04.01-.01-.03-.22-.2 1.52 1.1 4.35 2.87 4.48 3.08l11.58 7.52c.4.33-.5-.22-1.6-.93l2.67 1.76c-.07.05-1.55-.98-2.38-1.52 3.1 2.23 6.6 4.26 10.25 6.84l.8.46.22.16c.01-.04.87.48 1.42.84.5.4-.13.1 1.72 1.33 1.42 1.03 4.16 2.72 6.1 3.95-1.02-.7-.67-.5-.2-.23.92.6 1.42 1 2.15 1.46l.03.1c.03 0 .1.05.22.1-.28.3-.5.63-.64.96-.18.42-.3.82-.44 1.24a21.14 21.14 0 0 1-.75 2.33l-.1.05c-.14 0 .1.48-.03.52l.03.2c-.03.05-.07.17-.08.06-.02.18-.01.2.03.33l-.08.2c-.02.4.06.8.28 1.16.23.37.6.64.94.84.06.05.13.1.2.13-.18.6-.56 1-.35 1.32-.1.32-.2.35-.28.5l.01-.08a12.22 12.22 0 0 1-.39 1.2c-.04.23.1.3-.07.7-.02-.15-.06.02-.1.16.02-.1.01-.13-.1.05.01.03.01.08 0 .12-.08.25-.05.2 0 .1.01.01.02 0 .05-.03-.16.23-.24.7-.35.7-.23.74-.3 1.3-.47 1.92-.08.05-.07-.1-.03-.3l-.13.44c-.07-.03.04-.26.07-.4-.3.47-.24 1.1-.56 1.66l-.56-.1.26.03c-2.13-.4-2.73-.64-5.1-1.15-.13-.04-.3-.1-.26-.1-2.32-.44-6.7-1.6-8.55-2.03l-.1-.1-4.55-1.15 1.7.45c-.64.03-3.4-1-6.72-1.77-3.06-.86-6.32-1.4-9.48-2.4-1.54-.36 1.37.25-.9-.34-.05-.1 1.08.25.5.01-2.24-.6-3.62-1.15-6.37-1.93l-.1-.1c-3.6-.96-6.65-2.24-9-3-1.8-.67-2.36-.98-2.94-1.3-.6-.3-1.2-.6-3-1.44-.44-.27-.88-.53-1.3-.83-1.44-.87-1.1-.5-2.63-1.6.06.01-.4-.35-.77-.64-.38-.28-.6-.53-.18-.2l-1.15-1.05c-.4-.35-.75-.77-1.13-1.16-.77-.77-1.52-1.62-2.3-2.5a95.78 95.78 0 0 1-4.92-5.9c-.88-.86-2.6-3.13-3.26-3.8-.06-.14-3.55-4.47-1.47-2.04.18.2.48.6.44.58l.3.25c-1.9-2.6-3.7-4.55-5.65-7.08.56.76 1.35 1.75.8 1.12l-1.82-2.34.43.45-1.92-2.5c3.88-1.88 7.84-3.76 11.35-5.84.22-.08.73-.43.72-.45l5.9-3.06s28.5-14.9 6.05-5.1l.12-.12c-3.27 1.6-5.3 2.63-7.4 4-.48-.07-2.65 1.36-3.45 1.67l.06-.06c-1.86 1.23-4.12 1.96-5.92 3.13.06-.06.07-.15.5-.38-1.36.76-3.2 1.8-3.4 1.7-3.27 1.77-7.9 4.1-9.88 5.45l.12-.12c-1.12.8-1.54.84-2.84 1.63-.08.02-.18.06-.17.04-1.23.85-3.8 2.03-4.83 2.65l-.12-.06-2.5 1.35.9-.45c-.05.1-.2.22-.43.34-.1.05-.27.14-.38.18-.08.03-.17.06-.26.1a4.26 4.26 0 0 1-.27.09c-.05.04-.07-.03-.1-.08l-.07-.16c-.05-.1-.1-.2-.16-.3-.1-.18-.26-.43-.4-.65-.9-1.77-2.47-3.27-3.3-5.17-.6-.8.6.66-.18-.6.12-.12.4.56.35.17-.74-1.25-.97-2.18-1.9-3.72l.08-.12c-1.28-1.96-1.9-3.98-2.8-5.26-1.18-2.1-.4-1.6-1.75-3.73l-.3-.95c-.46-.97-.53-.6-.98-1.7.13.02-.6-1.38-.2-.8-1.03-2.5-2.63-4.8-3.78-8.13-.5-.62-1.07-2.3-1.43-2.77.03-.12-1.27-3.3-.38-1.53.08.15.18.43.14.43l.2.18c-.46-1.74-1.2-3.07-1.76-4.7v.1c.08.3.12.46-.03.18-.2-.58-.35-1.17-.53-1.75l.01.01c-.46-1.42-1.16-3.16-1.7-2.97-.46.15-.4 1.67-.24 3.14.5 1.66 1.07 3.3 1.7 4.9 1.72 4.48 3.76 8.7 5.5 12.67l.04.4c-.12.25 1.35 2 1.32 2.4l.54.86c.1.27.33.82.06.4.4.84.45.84.8 1.4l.34.95c1.58 3.33 3.25 5.98 5 9.43.48 1.06 1.1 2.33 1.83 3.7l1.14 2.13 1.35 2.46.54.97.27.48c.13.01.32-.15.48-.2l1.8-.97 2.16-1.2 3.8-2.13c2.34-1.37 4.92-2.67 7.55-3.95l5.52 6.97c-.25 3.64-.36 6.8-.8 10.5.17-.22-.15 2.42.1 1.78-.27 5.2-1.26 9.4-.88 11.3-.22 2.35-.42 2.77-.58 3.98l.03-.56-.5 4.9-.44 3.67v.23c-.02.06-.1.04-.14.07-.14.03-.17.07-.45.1-.64.07-1.44.12-2.9.1.95-.1-.25-.1-1.35-.08.7-.02.92-.06-.52-.12-.2.03-.52.05-.8.07-.01-.01-.07-.01-.04-.03-1.84.04-1.52.08-.66.1-.04.02.03.04.3.07-1.9-.13-5.32.03-5.55-.15l-14.08.35c-.52-.1.56-.18 1.9-.22l-3.26.04c.03-.13 1.87-.08 2.88-.1-3.9-.2-8 .24-12.57.06l-.94.1-.27-.02c.01.06-1 .14-1.68.16-.64-.1.04-.27-2.2-.25-1.78-.1-5.07.07-7.4.14 1.26.02.85.08.3.12-1.13.01-1.78-.1-2.65-.05l-.08-.12c-.16.12-3 .14-3.4.2-.64-.1 1.75-.1 2.03-.2l-6.78.04c-2.4.13.44.15-.7.3-2.13.04-4.2.15-6.65.07l.77.14c-4 .12-6.4.1-9.1-.02-29.8 1.24-6.28 1.58-6.28 1.58 11.74.27 17.8-.16 31.77-.3l28.27.14 18.5-.13c.7-.06 1.54-.08 2.46-.1h1.87 1.18c.04-.02.02-.1.04-.15l.17-1.36.4-3.3a53.93 53.93 0 0 0 .24-2.74l.26-1.27c.07-1.15.17-2.5.35-3.64l.03.08c.1-1.72.33-3.64.38-4.5l.03.07.2-2.08.02.36a207.59 207.59 0 0 1 .75-8.77l-.16.2c.4-3.62.5-5.82.67-8.24l6.03 7.42c2.37 2.82 4.62 5.6 7.06 8.13.13.17.27.33.4.5.07.12.8.82 1.66 1.34.82.58 1.74 1.07 1.92 1.28.47.28.96.52 1.43.8.38.26 1.23.7.5.37 1.33.7 1.37.7 2.36 1.14a27.67 27.67 0 0 0 1.43.74c5.42 2.4 10.28 3.68 16.18 5.48 3.54 1.1 8.66 2.63 13.9 4 5.25 1.4 10.6 2.64 14.52 3.54l7.67 1.8c-.06.37.2.93.5 1.16-.14-.18-.06-.15.02-.1.13.15.18.27.33.33l-.03.1c-.03-.1.53.15.6.1.1.1-.3-.02-.37-.01.4.15.43.13.52.16.07.02.15.04.45.12.34.03-.03-.1.14-.14.3.07.6.1.9.25l-.08-.1c.55.1.87.22 1.2.4 2.1.3 2.36.05 2.1-.15-.24-.2-1-.5-1-.5a12.16 12.16 0 0 0-1.99-.66l-1.05-.23-.62-.13a.65.65 0 0 1-.33-.14c-.23-.24-.17-.48-.08-.63l.02-.05c.28-.66.52-1.2.85-2.3.3-.8.55-1.67.8-2.47.01-.4.35-1.03.4-1.5l.13-.15c.02-.16.06-.35.15-.5l.02.02c.03-.25.15-.5.16-.6v.02l.1-.28v.06c.04-.2.1-.4.15-.58.65.23 1.36.4 1.85.5 1.24.2 2.47 1.1 3.73 1.26.03.03.15.02.15.01l.76.26-.17.7c-.3 1.6-1.38 3.23-1.68 4.87-.03.05-.04.2-.02.2l-.48 1.43-.32 1c-.1.33-.15.53-.22.6-.05.04-.1.07-.17.08a1.25 1.25 0 0 1-.34.01c-.5-.04-.94-.08-.88.1.03.08.17.2.47.4a2.4 2.4 0 0 0 .63.27c.27.1.8.07 1.16-.36l-.01.06c.2-.24.26-.45.32-.6l.88.24 2.2.76c.38.12.76.23 1.15.32l.6.13.32.06.5.07.25.04c.08.02.17.04.2-.06l.26-.42c.2-.33.26-.42.38-.58.2-.3.43-.58.67-.86.48-.54 1-1.05 1.56-1.5 2.26-1.8 5.16-2.6 7.9-2.4.18.01.5.07.77.1.26.03.46.04.5.05 3.3.7 6.24 2.94 7.66 6 0 0 .38.67.7 1.9s.6 3 .16 4.97l-.08.37-.1.46c-.18.42.1.85.4 1.16.37.25.86.38 1.26.32.43-.07.77-.3 1.02-.55.5-.5.78-1.08 1.02-1.65.23-.57.4-1.15.54-1.74.45-2.26.56-4.6.48-6.62z"/></svg>