<svg xmlns="http://www.w3.org/2000/svg" viewBox="0 0 480 480" xmlns:v="https://vecta.io/nano"><path d="M239.87 209.5l.3-.02h-.05l-.24.02zm122.07-1.77c-1.9-1.1-6.3-2.2-9.4-3.5-7.4-3.2-13.5-4.8-18.8-7.3-3-1.5-41.3-27.5-45.6-30.1-1.98-1.45-5.96-6.26-10.28-11.87l1.95-1.03s-.12-.22-.35-.6c-2.42-4.2-17.1-29.36-26.62-39.8-2.73-2.97-5.5-5.98-8.37-8.62a19.17 19.17 0 0 0-3.19-2.71c-6.48-5.03-13.75-7.66-22.95-3.8-10.66 2.58-22.02 12.57-33.38 35.53-7.9 15.9-24.43 52.03-31.02 67.3-.04.1-.08.18-.1.26l-.97 2.27c-.15.34-.28.67-.4.98a4.97 4.97 0 0 1-.09.22l-.4.96c-.45.97-.06 1.95.72 2.38a1.85 1.85 0 0 0 .88.22h0l91.1-.3.9-7.66c.01-.06.01-.13.02-.2l.1-.9c0-.02.01-.05.01-.07h0c.68-6.27 1.6-15.63 2.5-27.22 6.72 8.5 13.24 16.38 15.68 18.23 6.7 5.3 17.2 8.2 31.4 12.3s26.5 6.7 37.5 9.5c1.7.4 3.4 1.3 5.8 1.6 2-3.5 5.8-5.8 10.1-5.8 6.4 0 11.6 5.1 11.6 11.5 0 1.1-.2 2.2-.5 3.3.1.2.2.4.4.5 3.58 1.7 4.78-14 1.78-15.6zm-73.36-41.5a.88.88 0 0 1 .1.06l-.12-.07c.02.02-.03-.03-.06-.05l.03.03c.05.03.03.01.05.03zm-97.05 43.42l.16-.02h-.03c-.04.01-.1.01-.13.02z" fill="#fff"/><path d="M247.48 106.08l.02.02.13.1-.15-.12z"/><path d="M364.08 213.35c-.1-2.02-.44-3.75-1.02-4.8-.3-.52-.64-.87-.9-.97-.23-.12-.28-.08-.15.02.14.13.48.4.73 1 .26.58.48 1.44.6 2.6s.14 2.6 0 4.34c-.17 1.72-.4 3.84-1.33 5.98l.07-.24c-.25.63-.6 1.2-.96 1.5-.2.13-.36.2-.52.16-.12-.01-.23-.08-.27-.2-.04-.05.01-.1.02-.16l.1-.4.18-.88a10.17 10.17 0 0 0 .15-1.72c-.03-2.23-.6-4.23-1.7-6-.1-.32-.72-1.42-1.68-2.36-.93-.96-2.13-1.76-2.74-2.12l.12.06c-3.2-1.8-7.45-2.24-10.74-.76.08-.03.14-.1.4-.2-1.1.4-2.2 1-3.05 1.64-1 .73-1.64 1.43-1.74 1.46-.27.28-.52.6-.77.92l-.36.5c-.06.08-.12.17-.17.26l-.06.1c.1.17-.98-.1-1.7-.3-.78-.22-1.56-.5-2.37-.77-.82-.28-1.68-.47-2.46-.67-3.2-.8-6.14-1.47-8-1.83l.26.03c-2.13-.4-2.73-.64-5.1-1.15-.13-.04-.3-.1-.26-.1-2.32-.44-6.7-1.6-8.55-2.03l-.1-.1-4.55-1.15 1.7.45c-.63.03-3.4-1-6.72-1.77-3.06-.86-6.32-1.4-9.48-2.4-1.54-.36 1.37.25-.9-.34-.05-.1 1.07.25.5.01-2.24-.6-3.62-1.15-6.37-1.93l-.1-.1c-3.6-.96-6.65-2.24-9-3-1.8-.67-2.36-.98-2.94-1.3s-1.2-.6-3-1.44c-.44-.27-.88-.53-1.3-.83-1.44-.87-1.1-.5-2.63-1.6.06.01-.4-.35-.77-.64-.38-.28-.6-.53-.18-.2l-1.15-1.05c-.4-.35-.75-.77-1.13-1.16-.77-.77-1.52-1.62-2.3-2.5a95.78 95.78 0 0 1-4.92-5.9c-.88-.86-2.6-3.13-3.26-3.8-.06-.14-3.55-4.47-1.47-2.04.18.2.48.6.44.58l.3.25a66.86 66.86 0 0 0-2.09-2.69l1.8-1c.8-.66 2.47-1.3 3.46-2.02.01-.01.02-.01.03-.02l.46-.1c.34-.25.75-.5 1.15-.65l-.01.04c.5-.37 1.15-.65 1.4-.83l-.01.04.66-.36-.1.1c.9-.6 1.9-1.1 2.8-1.53l-.14-.1c1.94-.83 2.48-1.46 4.24-2.17l-.01.04c.3-.22.57-.4.84-.56l1.14-.6c1.13-.53 2.22-.9 3.5-1.84-.25.18.15 0 .15.05.7-.4 1.46-.83 1.78-1.12l.9-.5c.01.01.02.01.04.02-.01-.01 0-.03.01-.04l4.7-2.64a.69.69 0 0 0 .08-.03l.8-.25.42-.14.24-.1.38-.17 1.6-.83.2-.1c-.02-.06-.07-.13-.1-.2l-.23-.4-.45-.77c-.67-1.56-2.2-4.33-2.2-4.33-3.75-6.9-6.2-10.14-11.37-17.9l-5.1-7.83c-.74-1.1-1.48-2.2-2.4-3.43-.9-1.25-1.98-2.62-3.34-4.28-.66-.8-1.35-1.58-2.05-2.38l-2.13-2.3a165.34 165.34 0 0 0-4.32-4.41c-1.5-1.2-3.82-3.64-5.77-4.88a9.36 9.36 0 0 0-.63-.63c-.7-.4-1.46-.9-2.1-1.4h.06c-1.1-.5-2.2-1.27-2.77-1.45l.06-.01-1.33-.58.25.06c-.95-.43-2-.67-3-1-.5-.18-1-.25-1.5-.35l-1.45-.28.14.17c-2-.3-3.42-.26-4.74-.05-1.34.1-2.56.5-4.35.84l.04-.05c-.46.22-.9.4-1.3.6-.1.02-.2.04-.32.07-.2.05-.4.1-.65.16l-.72.27c-.98.38-2 .74-2.27.78l-1.53.72c-.47.12-1.37.55-.64.12-1.4.7-1.4.76-2.38 1.33-.5.23-1 .5-1.5.76-1.35.76-2.5 1.7-3.65 2.57-1.1.92-2.16 1.9-3.2 2.88-2 2.04-3.92 4.2-5.88 6.7-2.52 2.9-5.58 7.5-8.28 12.36-2.73 4.86-5.07 9.98-6.8 13.7-4.72 10.52-11.12 22.32-15.7 33.2-.1.17-.23.5-.34.76s-.2.5-.18.5l-4.5 9.82-6.56 14.97c-.06.06-.12.14-.2.24-.7 1.02-2.1 4.04-2.1 4.04l-1 2.13c-.15.3-.43 1-.4 1.62 0 .63.2 1.26.56 1.76a3.12 3.12 0 0 0 1.41 1.11c.28.1.57.18.86.2.13.01.33.02.4.02h.25l2-.05 3.38-.12 2.37.05c6.03.14 10.56.1 15.44 0l14.64-.15c1.37-.2 3.65-.07 5.45-.15h1.23l.33.05c.2-.02.44-.03.66-.04l1.38.01-.02.02c.08-.01.16-.01.23-.02l20.7.1 18.5-.13c.7-.06 1.54-.08 2.46-.1l1.87-.02h1.18c.04-.02.02-.1.04-.15l.17-1.36.4-3.3a53.93 53.93 0 0 0 .24-2.74l.26-1.27c.07-1.15.17-2.5.35-3.64l.03.08c.1-1.72.33-3.64.38-4.5l.03.07.2-2.08.02.36a207.59 207.59 0 0 1 .75-8.77l-.16.2c.58-5.2.22-4.47.58-8.35l6.12 7.53c2.37 2.82 4.63 5.6 7.06 8.13.13.17.27.33.4.5.07.12.8.82 1.66 1.34.82.58 1.74 1.07 1.92 1.28.47.28.96.52 1.43.8.38.26 1.23.7.5.37 1.33.7 1.37.7 2.36 1.14a27.67 27.67 0 0 0 1.43.74c5.42 2.4 10.28 3.68 16.18 5.48 3.54 1.1 8.66 2.63 13.9 4 5.25 1.4 10.6 2.64 14.52 3.54 5.5 1.25 11.5 2.67 17.33 4.32l2.2.76c.38.12.76.23 1.15.32l.6.13.32.06.5.07.25.04c.08.02.17.04.2-.06l.26-.42c.2-.33.26-.42.38-.58.2-.3.43-.58.67-.86.48-.54 1-1.05 1.56-1.5 2.26-1.8 5.16-2.6 7.9-2.4.18.01.5.07.77.1.26.03.46.04.5.05 3.3.7 6.24 2.94 7.66 6 0 0 .38.67.7 1.9s.6 3 .16 4.97l-.08.37-.1.46c-.18.42.1.85.4 1.16.37.25.86.38 1.26.32.43-.07.77-.3 1.02-.55.5-.5.78-1.08 1.02-1.65.23-.57.4-1.15.54-1.74.55-2.32.66-4.66.58-6.68zm-128.5-46.28c.34.15 1.58-.77 2.06-.9l-.03.04c1.06-.8 2.47-1.05 3.5-1.8-.03.04-.02.13-.28.26.8-.45 1.88-1.07 2.02-.95 1.93-1.03 4.68-2.35 5.8-3.22l-.06.08c.63-.52.9-.5 1.66-.98.05 0 .1-.02.1-.01.7-.55 2.25-1.18 2.84-1.56l.1.08 1.53-.8-.6.27c.06-.37 1.25-.42 2.28-1.17 1.06-.5 1.83-1.65 3-2.07.45-.4-.35.44.37-.05.1.13-.32.27-.06.3.73-.46 1.32-.5 2.2-1.06l.1.1c1.12-.83 2.38-1.03 3.1-1.64 1.22-.73 1-.1 2.22-1l.6-.1c.57-.26.3-.4.97-.63.01.1.83-.33.5-.05 1.5-.57 2.76-1.67 4.75-2.37.04-.05.1-.1.15-.14l.1-.07.03-.03c.03-.04.08-.07.13-.1.1-.07.2-.16.26-.14-.02.06.07.22.13.34.03.06.05.1.07.15.03.06.04.1.04.12s-.02.01-.07-.03c-.03-.02-.14-.17-.16-.15-.02-.01-.04-.05-.02-.07a.36.36 0 0 0-.1.07c-.01.04-.01.07-.02.1-.01-.01.02.06.06.13l.1.18c.14.24.3.46.46.68.32.43.66.86.95 1.37-.14-.32-.4-.7-.16-.5l.54.95-.2-.14.77 1.43v-.26c.17.36.25.63.36.9a2.98 2.98 0 0 0 .2.4c.04.07.1.14.15.22.03.03.07.1.1.1h.04c.07.02.1-.03.1-.08.01-.01-.02-.1.01-.08.03.02.06.05.1.1.03.1.05.18.06.25.07.1-.15.1-.22.12.04-.08-.9.37-1.46.64.18.07-.15.23-.47.43l-.1-.1c-1.2.83-.6 0-1.8.8l-.14.27c-1.03.82-.74.1-1.85 1.06.5-.28.36.12-.28.4l.1-.2c-.33.2-.42.3-.66.4.17-.16.03-.2-.47.07l.27-.3-.85.7c-.8.27-1.9 1.03-2.27 1.04 0 0-1.62.76-1.9 1.1.26-.27-.63.15-.44-.1-.35.33-1.5 1.06-2.06 1.2l.08-.06c-1.86.82-2.97 1.78-4.66 2.48.14.1-.75.47-.45.52-1.4.92-2.84 1.2-3.38 1.83-.5.24-.98.48-1.46.74l.1-.07-1.27.7c.05-.06.14-.16.5-.36-1.48.82-3.5 1.95-3.68 1.86-3.54 1.9-8.56 4.46-10.7 5.9l.14-.12c-.53.37-.9.58-1.3.78-.1.01-.24.07-.5.2-.45.14-1.08.55-1.66.93-.4.25-.88.53-1.4.82l-.06-.07c.06.02.01.08-.08.15l-.56.3c.1-.08.22-.15.23-.2l-2.04 1.1c-.04.03-.06.06-.1.08-.06.03-.12.07-.17.1-.05.03-.1.06-.14.08-.04.03-.1.07-.1.01l.03-.17-1.27-2.2.56 1.05c-.47-.2-1-2.2-2.3-4.12-.45-.85-1.03-1.65-1.62-2.45.73-.13 2.2-.58 4.73-1.5l-.06.1c1.97-.9 3.18-1.5 4.38-2.37zm-64.92 33.05c.36.3 2.74.03 3.52.12l-.07.02c2.03-.22 4.2.18 6.15-.01-.08.02-.12.1-.57.1 1.43-.04 3.38-.1 3.5.07 3.4-.04 8.17.03 10.36-.23l-.15.05c1.25-.18 1.6-.03 3-.12.08.02.17.03.16.04 1.36-.18 3.96-.03 5.06-.1l.07.1 2.7-.03-1-.02c.35-.3 2.04.2 4-.01 1.83.04 3.72-.64 5.62-.5.9-.14-.8.23.56.12.04.16-.63.1-.28.23 1.33-.08 2.2.16 3.83.06l.07.12c2.15-.23 4.05.16 5.48-.05 2.2-.1 1.48.37 3.8.13l.9.17c1 .03.7-.2 1.8-.12-.07.1 1.38.08.74.2 2.47.17 5.02-.24 8.28.04.7-.2 2.35-.08 2.88-.24.1.1 3.3.01 1.45.2-.16.02-.44.01-.42-.02l-.22.12c.46.06.9.08 1.34.08l.64-.02.32-.02c.03-.01.03-.01.05-.02.06-.02.16-.07.25-.08a.56.56 0 0 1 0 .26c.05-.12.07-.32.14-.24l-.14 1.04-.06-.36-.35 2.5.17-.33c-.2 1.23-.47 1.63-.46 3.05.03.64.3-1.15.2.16-.02.1-.03.2-.05.3l-.03.1c-.02.06-.04.13-.06.2-.02.06-.15 0-.2 0l-.1-.02c-.03 0-.01-.01-.08-.01h-.2l-3.32-.1c.2.14-.37.14-.96.17l-.07-.12c-2.26.18-.83-.27-3.07-.13l-.4.17c-2.02.25-1.1-.25-3.33.1.76-.02.52.2-.24.22-.02-.01-.04-.01-.05-.02h-.35l.24-.1c-.6.03-.8.08-1.2.05.36-.07.2-.18-.7-.15l.6-.15-1.68.23c-1.3-.12-3.35.04-3.9-.12 0 0-2.8-.07-3.43.1.56-.12-.98-.16-.54-.3-.72.13-2.86.25-3.7.1l.16-.02c-3.16-.13-5.4.2-8.24.05.13.14-1.37.07-1 .25-2.77.18-5.06-.3-6.2.14h-.3c-.47-.03-1.04-.04-1.66-.03-.16-.02-.32-.04-.52-.05l.32-.03-5.1.06c-.75.05-1 .23-1.96.27a7.71 7.71 0 0 0-.68 0h-.1c.34-.07.2-.08-.12-.1l-.02-.03a.5.5 0 0 1-.12.03h-.5c.4-.02.52-.06-.3-.13-.1.03-.3.05-.46.07-.01-.01-.04-.01-.02-.03-.56.02-.76.04-.75.06l-2.2.01c-.2-.01-.35-.04-.38-.08l-3.18.1h-.22c-.28.01-.5.03-.64.04l-3.9.18c-.3-.1.3-.18 1.07-.22l-1.84.04c.02-.13 1.06-.08 1.63-.1-2.2-.2-4.52.23-7.1.04l-.53.1-.15-.02c.01.06-.57.13-.95.15-.36-.12.02-.27-1.25-.26-1-.1-2.86.07-4.18.13.7.02.48.08.18.13-.64.01-1-.1-1.5-.06l-.06-.16c.25.15-1.66.17-1.9.23-.36-.12 1-.1 1.15-.2l-3.83.03c-1.36.12.25.15-.4.3-1.2.03-2.38.15-3.76.06l.44.14c-1.1.04-2.07.12-2.8.04-.74-.15-1.2-.8-1.18-1.45-.08-.4.07-.8.22-1.23l3.12-6.3c1.08.22 3.46.48 7.7.82l-.15.05c3.33.14 5.43.16 7.72-.07zm19.27 7.6c0 .01.04.03.16.06a5.92 5.92 0 0 0-.47-.04c.1-.01.22-.02.3-.02zm56.28-25.68c.17-.22-.15 2.42.1 1.78-.27 5.2-1.26 9.4-.88 11.3-.18 1.92-.34 2.55-.5 3.38l-1.3.02c-4.36.07-8.64.1-12.62-.06l-.35-.15c-.15-.2-2.2.32-2.5.12l-.92.1c-.26-.04-.8-.08-.35-.13-.86-.01-.88.03-1.5.1l-.92-.13c-3.37-.1-6.24.15-9.8.1-4.26-.27-12.3-.02-16.92.12-6.5.32-14.06-.53-20.72-.17-.22-.03-.78.04-.77.06l-6.1-.03s-11.13-.03-14.53.36l1.4-2.84-.07.26c2.5-5.35 4.04-8.73 5.5-12.54.53-.47 2.03-4.4 2.68-5.63l-.03.13c1.3-3.37 3.25-6.67 4.52-9.9-.04.13.01.23-.32.96 1.02-2.32 2.42-5.48 2.65-5.58l7.55-16.72-.07.26c.78-2.07 1.2-2.6 2.18-4.86.08-.1.16-.26.16-.24.88-2.24 3.03-6.32 3.83-8.1l.16-.06 2.17-4.25-.84 1.57c.01-.34.46-1.13 1.1-2.2.67-1.06 1.53-2.43 2.3-3.98.83-1.4 1.6-2.84 2.33-4.33.77-1.47 1.65-2.9 2.66-4.26.84-1.37-.66 1.26.7-.7.18.03-.6.94-.12.53 1.38-1.9 2.43-2.98 4.27-5.2l.17-.01c2.35-2.95 5.06-4.94 6.93-6.56 1.5-1.23 2.13-1.44 2.72-1.74.3-.14.6-.3 1-.54l1.82-.8c.13-.1 3.66-1.6 4.4-2 1-.26 2.5-.5 2.98-.62l-.17.08c.84-.33 1.64-.48 2.4-.67l1.1-.3c.36-.1.73-.1 1.1-.16 1.44-.25 2.87-.24 4.42 0-.12-.17 1.5.2 1.14-.05.4.07.82.08 1.2.2l1.1.36 1 .36.88.44c.56.3 1.07.5 1.5.7.43.2.8.35 1.15.38 1.36.72 1.47 1.1 2.1 1.55l-.32-.18c1.2.77 1.93 1.37 2.6 1.9.67.5 1.22 1.02 2.02 1.74.85.67 1.14.6 2.5 2-.53-.36.06.17.58.7-.34-.32-.47-.4.15.34a2.85 2.85 0 0 1 .42.34c0 .01.02.04 0 .04.88.85.75.67.37.26.03.01.01-.04-.1-.18.8 1 2.44 2.55 2.4 2.8 2.55 2.66 4.4 4.48 6.32 6.85.14.33-.37-.18-.95-.85l1.36 1.68c-.1.06-.82-.93-1.26-1.43 1.43 2.13 3.4 4.1 4.98 6.67l.45.45.1.16c.04-.04.5.48.76.84.15.42-.24.13.6 1.36.6 1.03 1.92 2.76 2.84 4.02-.45-.7-.24-.52-.01-.24.42.62.55 1.05.9 1.5l-.1.15c-.04-.33 1.2 1.56 1.4 1.76.13.42-.72-.92-.9-1.03l2.45 3.8c.96 1.3-.03-.33.5.25.8 1.18 1.6 2.3 2.38 3.73l-.15-.5c1.38 2.04 2.18 3.37 2.93 4.83l-1.7.88a62.9 62.9 0 0 1-3.57 1.68l-.27-.03c-.18-.15-1.1.92-1.37.83l-.48.36c-.17.04-.5.16-.26-.01-.5.24-.5.28-.8.52l-.58.15c-1.97.9-3.5 1.95-5.54 2.94-2.56 1-7.03 3.55-9.6 5.03-3.56 2.18-8.27 3.6-11.9 5.88-.14.04-.43.26-.4.28l-3.5 1.74s-6.82 3.44-8.3 4.68c-.64-.87-1.26-1.75-1.72-2.74-.64-.87.66.72-.2-.64.1-.12.45.6.36.2-.82-1.34-1.1-2.34-2.1-4l.07-.13c-1.4-2.12-2.12-4.28-3.1-5.66-1.32-2.25-.5-1.72-1.98-4l-.34-1c-.5-1.04-.57-.64-1.1-1.82.13.02-.67-1.5-.23-.86-1.18-2.67-2.9-5.16-4.24-8.75-.54-.67-1.2-2.48-1.56-3 .02-.12-1.42-3.57-.45-1.64.08.17.2.47.16.46l.2.2c-.6-2.1-1.55-3.62-2.18-5.67.16.62.44 1.4.18.9l-.6-1.9.22.36c-.23-.78-.43-1.57-.62-2.36l-.15-.07s-1.2-3.92-2.05-3.5c-.63.32-.18 2.63.1 3.85.67 2.44 1.52 4.84 2.44 7.16 1.92 4.82 4.18 9.38 6.17 13.65l.06.44c-.1.26 1.47 2.16 1.46 2.57l.6.92c.1.3.37.88.08.42.46.9.5.9.9 1.52l.4 1.02c1.78 3.57 3.6 6.43 5.57 10.14.73 1.53 1.76 3.47 2.9 5.55a27.69 27.69 0 0 0 .95 2.2 44.06 44.06 0 0 0 2.6 4.79l1.23 2.08.08.14c.03.05.05.1.1.05l.3-.16c.2-.1.4-.22.6-.33l1.2-.67 2.94-1.68c3.96-2 5.13-2.3 9.15-4.55l2.3-1.2c-.2 3.14-.33 6.03-.73 9.33z"/><path d="M274.38 155.38h0l.08-.14zM235.78 207h0l.2-.1zm48.38-43.45l1.36 1.35 2.13 1.98c-.38-.3-.34-.24-.1-.02.13.1.26.27.53.42l.67.42c-.58-.36-.77-.45.4.34l.7.4c.01.01.05.04.02.03 1.52.96 1.27.78.57.3.04.01-.01-.03-.22-.2l4.48 3.08 11.58 7.52c.4.33-.5-.22-1.6-.93l2.67 1.76c-.07.05-1.55-.98-2.38-1.52 3.1 2.23 6.6 4.26 10.25 6.84l.8.46.22.16c.01-.04.87.48 1.42.84.5.4-.13.1 1.72 1.33 1.42 1.03 4.16 2.72 6.1 3.95-1.02-.7-.67-.5-.2-.23.92.6 1.42 1 2.15 1.46l.03.1c.17.03 2.5 1.55 2.85 1.72.5.4-1.48-.88-1.74-1l2.8 1.8.88.55c.2.13.46.3.8.48l.56.32c.2.1.44.2.7.32 2.2.9-.36-.25.72.13 1.93.82 3.87 1.47 6.1 2.34l-.7-.34c3.72 1.27 5.93 2.05 8.36 3.1 1.72.6 3.22 1.24 4.57 1.73 1.36.48 2.56.83 3.6 1.14 2.08.6 3.52 1.04 4.45 1.42 1.83.82 1.7.7.83.1-.97-.66-2.84-1.35-4.46-1.93l-2.95-1.05c-.66-.25-1.3-.5-1.9-.76l-1.83-.8-3.47-1.4c-2.25-.85-4.38-1.58-6.57-2.34-2.18-.77-4.43-1.56-6.8-2.63-1.1-.56-2.3-1.34-3.55-2.13l-4.03-2.6-23-15.5-15.12-9.95c-1.02-.76-2.36-2.1-3.62-3.6-.58-.66-1.15-1.34-1.7-2-.48-.35-.9-.58-1.05-.45-.25.22.17 1.06.52 1.68l1.46 1.73z"/></svg>