<svg xmlns="http://www.w3.org/2000/svg" viewBox="0 0 480 480" xmlns:v="https://vecta.io/nano"><path d="M346.75 218.12c0-.9-2.2-2-4.7-2.9-2.1-.8-6.4-3.9-7.3-4.4-.9-.4 1.8-.6 3.4-.6 1.8-.1 3.5-1.3.4-2.1l-6.2-1.9c-.9-.2-4-.9-6.2-.7-1.5.1-3.9 1.3-6.9-.4-5.3-2.6-17.8-12.7-25.6-18.8-5.6-4.5-13.6-10.2-15.5-13.3-1.45-3.4-3.4-8.8-5.43-14.77l4.23-1.93c.8-.3 1.2-1.3.9-2.1-1.2-3.6-4.4-12.9-7.7-21.1-3.84-9.5-13.85-25.07-25.2-29.42-2.9-1.7-6-2.86-9.3-3.35-12.5-6.05-26.86 2.85-37.1 12.46-8.6 8.5-20.5 21.6-20.5 21.6l9.77 9-3.27 3.8c-4.7 4.8-7.3 9.4-9.1 13.7-2.1 5.2-2.1 13.6-.7 27.8 1.14 12.07 3.3 24.5 4.94 32.93-.56.2-.94.6-.94 1.17l.8 5.3c.2.6.6 1 1.2 1l.45-.05.65 2.95s-1.5 6.9 2 13.7c3.4 7 3.7 8.2 4.5 9 1.3 1.2 2-.5 2-.5s1 1.9 2.4 1.8c1.2-.1 1.2-1.7 1.2-1.7s.8 1.1 1.9.5c.7-.5.57-3.26.35-6.24l-.65-7.86c-.2-1 1.4 1.2 2.3 2.6 1.1 1.5 3 2.2 2-.8s-1.4-5.5-1.7-6.3-1.4-3.9-2.8-5.6c-.57-.76-1.65-1.6-2.45-2.97.5-.2.85-.6.85-1.13l-.4-5.4c-.2-.7-.7-1.1-1.3-1.1l-.25.03c.13-7.4 1.43-19.28 2.15-27.13.7-7.1 1.2-16.9 2.8-20.3 1.4-2 3.3-4.8 5.6-7.8l.48-.6-8.38 43.9h79.3l-.93-11.4c2.02 1.1 4.23 2.27 6.63 3.5 18.8 9.7 40.3 17.4 40.3 17.4s5 5 12.6 5.7c7.7.8 8.9 1.3 10 1.1 1.7-.5.7-2 .7-2s2.2.2 2.9-1.1c.6-1.1-.7-1.9-.7-1.9s1.4-.08 1.5-1.28z" fill="#fff"/><path d="M277.26 157h-.02zm-.02.02h0c-.01 0-.02.01-.02.01l.02-.01zm-28.38-52.82h.01l.22.02z"/><path d="M347.3 217.83a1.8 1.8 0 0 0-.42-.75c-.48-.5-1-.8-1.5-1.1-.5-.28-1.04-.52-1.57-.74l-1.6-.62c-.46-.18-.96-.44-1.44-.7l-2.86-1.74-1.33-.87-.28-.18-.22-.14c-.06-.01-.07-.08-.01-.1.04-.02.1-.03.13-.04.1-.02.2-.03.3-.04l.16-.01.44-.03.92-.03a4.58 4.58 0 0 0 1.05-.14c.17-.04.34-.1.5-.16.2-.1.44-.2.64-.35.4-.28.67-.73.52-1.2-.13-.44-.57-.73-1.02-.96-.68-.3-1.3-.4-1.87-.57l-1.77-.53-3.6-1.12c-.03-.01-.01 0-.02 0l-3.72-.64c-1.23-.13-2.57-.18-3.8.12-1.18.25-2.3.4-3.38.2-.54-.1-1.05-.28-1.54-.5l-1.5-.82-.45-.37c-.16-.2-3.17-1.78-3.52-2.18l-1.3-.84c-.34-.26-1.07-.82-.43-.4l-2.05-1.42-1.2-.98-13-10-4.95-4-6-4.66-5.77-4.98c-.4-.43-.8-.87-1.1-1.32l-.12-.16c-.04-.06-.02-.03-.06-.12l-.17-.4-.33-.78-1.17-2.9c-1.3-3.33-2.72-7.73-3.15-6.88 0 0 .65 2.86 1.5 5.04l.07.26 1.62 4.1.44 1.1.2.53c.08.17.1.33.25.55.4.63.84 1.1 1.16 1.44l.03.13c1.06 1.12 2.2 2.12 3.37 3.1l-1.28-1.13c.56.26 2.53 2.35 5.2 4.28l7.6 5.58c1.25.87-1.14-.72.7.63 0 .12-.87-.6-.46-.2l5.03 4 .04.13 7.28 5.6c3 2.2 1.84 1.7 5.06 3.86l1.17.96c1.35.97 1.04.58 2.54 1.66-.13-.01 1.94 1.3 1 .77.87.6 1.8 1.12 2.77 1.6 1 .54 2.2.9 3.44.88 1.23.03 2.48-.36 3.57-.5 1.14-.1 2.4.02 3.7.27.58.03 1.53.2 2.44.4.02 0 .07.01.06.01.8.16 1.7.5 2.1.58.06.05 1.37.5 2.3.8s1.5.47-.03.08c-.26-.07-.7-.2-.67-.22l-.38-.04 2.16.7 1 .27.4.14c.02.01.04.01.06.02.05.02.08.1.04.13s-.03.06-.4.18c-.3.1-.6.14-.9.15l-1.16.04h1.32c.26-.02.34-.01.01.04a23.95 23.95 0 0 0-1.44.04c-.6.04-1.65.1-2.15.32.2-.1.46-.2.78-.26-.48.06-.88.18-1.1.35-.1.08-.2.17-.26.27-.03.05-.07.13-.07.2v.03c-.1.15-1.4 1.9-3.98 2.47-2.5.5-4.4-1.3-4.4-1.3-.2-.3-.5-.2-.7 0-.3.2-.2.5 0 .7.2.1 2.4 2.2 5.4 1.6 2.4-.53 3.8-1.85 4.38-2.56l.03.03.5.32 1.4.93-.45-.4c1.73 1.18 2.25 1.73 4.42 2.8 1 .47-1.73-1.06.27 0 .5.28 1.13.55 1.7.77a28.13 28.13 0 0 1 1.81.81c.6.3 1.23.67 1.63 1.07.2.25.17.2.14.34a.61.61 0 0 1-.13.22c-.04.04-.05.05-.13.1l-.2.1-.28.08-.12.32-9.14-3.32.4-1.54c.01-.3-.08-.6-.38-.6s-.5.08-.6.38c0 0-.12.7-1.02 3.37-.34 1.1-.76 1.88-1.2 2.66-.1.3-.32.6-.43 1-.1.2-.02.5.28.6.2.1.5.02.6-.28.2-.4.44-.53.56-.93l.3-.64 8.04 2.86-.2.3c.06.14.14.43.12.44 0 .07-.02.08-.03.1-.01.02-.04.05-.13.12-.05.03-.1.07-.2.1-.06.02-.03.02-.07.02-.05.01-.1.02-.18.02.01 0 .02-.01.03-.01a3.26 3.26 0 0 1-.6.1c-3.3-.27-1.77-.42-5.52-.68 1.48.17.68.24-1.14 0l.47-.02-2.02-.2c.6.02.32-.06-1.15-.22l1 .02-2.74-.26c-2.08-.4-5.2-1.72-5.9-2.27l-1.76-1.1-1.4-1-.6-.48-.26-.2-.3-.28-.4-.13c.6.15-1.56-.67-.88-.5-1.16-.34-4.53-1.55-5.83-2.15l.26.1c-4.9-2-8.45-3.23-12.78-5.18.16.17-2.12-.87-1.6-.52-4.56-1.85-8.1-3.83-9.84-4.28-2.03-.93-2.36-1.2-3.4-1.72l.5.22c-3.78-1.8-4.85-2.36-7.62-3.78-1.4-.68-1.7-.65-4.12-2 .6.27.23.06-.36-.26-.14-1-.26-2.1-.28-3.1l.04.06c-.22-1.55-.3-3.32-.42-4.1l.04.06-.18-1.9.08.32a167.42 167.42 0 0 1-.74-7.99l-.13.22c-.3-5.3-.77-7.2-1-11.98l.04.06c-.5-3.3-.64-5.87-.82-8.55.55-.27 1-.42 1.84-.88.08-.01.17-.04.16-.03 1.14-.72 3.55-1.65 4.5-2.17l.1.07c1.3-.52 1.73-2.1 1.26-3.15.04.12.14.42.15.64.03.24.01.48-.03.7-.05-.13-.05-.36-.08-.68-.01-.16-.06-.35-.1-.53-.03-.14-.07-.3-.1-.47-.16-.68-.38-1.57-.8-2.45-.55-1.73-1.8-3.27-2.3-5.1-.44-.8.48.67-.07-.56.14-.1.3.56.3.2-.52-1.22-.58-2.1-1.24-3.58l.1-.1c-.94-1.9-1.24-3.8-1.95-5.05-.9-2-.18-1.5-1.25-3.54l-.18-.9c-.36-.93-.46-.58-.83-1.6.13.01-.5-1.3-.14-.75-.92-2.32-2.44-4.4-3.9-7.32-.54-.5-1.33-1.94-1.75-2.3.04-.13-1.85-2.7-.64-1.3.1.12.26.36.22.36l.23.1c-.86-1.67-2.05-2.7-3.17-4.16.3.45.77 1.02.4.7l-1.05-1.35.3.2c-.52-.67-1.05-1.34-1.6-2l.14.35c-.78-.98-.9-1.46-2.02-2.36-.5-.4.7.98-.25.05-1.1-1.26-2.85-3.1-4.56-4.43.07.24-.37-.13-.88-.45V106c-2-1.17-.53-.73-2.56-1.83l-.44-.05c-.96-.4-1.2-.56-1.45-.74-.26-.17-.54-.4-1.7-.65.64.23.5.34-.05.2-.14-.08-.28-.17-.42-.25h.05c-.04-.01-.07-.02-.1-.03a1.18 1.18 0 0 0-.19-.11 18.2 18.2 0 0 0-.98-.51h.05c-.02 0-.04 0-.06-.01a30.66 30.66 0 0 0-3.24-1.39c-1.68-1.02-5.3-1.8-7.2-2.53.1.15-1.46-.32-1.1-.04-3.08-.6-5.74-1-6.83-.36-1.4.13-1.68.07-2.42.13.1-.03.22-.05.33-.08-2.62.5-3.34.8-5.22 1.38-.9.38-.96.67-2.58 1.3.47-.32-.17-.02-.77.25.38-.18.47-.28-.33.02-.1.08-.25.18-.4.27-.01 0-.04 0-.03-.01-.96.5-.78.46-.32.25-.02.03.03.03.18-.02-1.08.36-2.77 1.48-2.97 1.4-2.8 1.7-4.6 3.2-6.68 4.9-.3.1.15-.34.76-.84a43.76 43.76 0 0 0-1.5 1.2c-.07-.12.8-.75 1.27-1.12-1.96 1.22-3.56 3.1-5.66 4.75l-.34.46-.13.1c.04.03-.35.5-.6.8-.35.18-.17-.2-1.1.73-.82.66-2.04 2.14-2.95 3.16.53-.5.4-.3.22-.04-.46.47-.8.66-1.12 1.06l-.16-.06c.3-.08-1.08 1.35-1.2 1.57-.34.2.64-.8.7-.98l-2.72 2.87c-.88 1.1.28-.08-.08.5-.83.92-1.58 1.88-2.63 2.85l.4-.23c-1.52 1.77-2.48 2.78-3.65 3.83-2.7 3.32-4.13 5.24-4.78 6.24-.53-.34-.66-.28-.22.35-.4.7-.2.7.24.35.76.96 2.34 2.77 5.14 5.77l-.15-.07c2.45 2.4 4.03 3.9 5.93 5.33.08.47 2.06 1.94 2.6 2.55l-.07-.03c1.7 1.26 3.05 3.06 4.68 4.3-.07-.04-.16-.01-.5-.32 1.1.97 2.63 2.3 2.6 2.5l6.07 5.48a81.95 81.95 0 0 0-1.94 2.59l.13-.22c-1.22 1.7-1.63 2.16-2.95 4.1-.08.1-.2.23-.18.2-.62.96-1.6 2.3-2.53 3.6l-.7.96c-.1.16-.22.3-.33.46-.04.06-.15.17-.18.3l-.1.27c-.3.7-.44 1.3-.54 1.75l-.1.1c-.36 1.5-.58 3-.78 4.5l.25-1.68c.08.6-.6 3.4-.78 6.7-.3 3.06-.15 6.24-.55 9.4-.06 1.52-.01-1.35-.16.92-.1.07.04-1.06-.1-.5-.16 2.23-.45 3.64-.65 6.38l-.1.1c-.2 3.6-.73 6.74-.8 9.14-.22 3.7-.43 2.46-.52 6.33l-.17 1.5c-.07 1.3.02 1.32.01 2.16l-1.54.2c-.56-.36-1.2-.54-1.87-.5l-4.6.5c-.82.1-1.56.5-2.05 1.1l-.93.12c-.68-3.42-1.3-6.36-1.82-9.86-.05.23-.4-2.25-.42-1.62-.9-4.83-1.14-8.87-1.7-10.6-.3-2.2-.27-2.63-.38-3.78l.08.53c-.53-4.15-.63-5.36-.93-8.45-.18-1.54-.36-1.77-.55-4.54.13.9.03-.24-.05-1.28.06.66.1.86.04-.5-.03-.2-.06-.5-.1-.76 0-.01 0-.07.01-.04-.13-1.73-.13-1.43-.1-.62-.01-.04-.02.03-.02.28-.04-1.8-.24-5-.12-5.23-.06-2.6-.04-4.83.12-6.93.18-2.1.43-4.1 1.15-6.1.22-.43-.1.5-.4 1.7.26-.98.55-1.92.97-2.86.05.06-.64 1.6-.84 2.52.53-1.7 1.3-3.4 2.16-5.16.87-1.75 1.9-3.5 3.2-5.2l.47-.75.16-.2c-.04-.01.5-.8.9-1.3.44-.42.08.12 1.48-1.46.3-.3.68-.63 1.03-1.06 2.65-3.36-.2-1.56-.55-1.13l-1.1 1.16c-1.46 1.57-2.66 3.02-3.76 4.56a39.57 39.57 0 0 0-3.12 5.13c-.5 1-1 2.03-1.48 3.24-.5 1.24-.84 2.62-1.1 4.14-.5 2.9-.6 5.93-.55 8.9.05 2.98.23 5.92.45 8.72.32 2.66.65 7.36 1.1 10.5l.07 1.22a65.59 65.59 0 0 1 .44 3.43l-.03-.07c.27 1.6.47 3.43.62 4.22l-.03-.06.3 1.95-.08-.33 1.34 8.22.05-.23c.7 4.52 1.2 6.63 1.82 10a1.67 1.67 0 0 0-.81 1.5l.82 5.38c.28.83.86 1.3 1.67 1.33l.5 2.42c0-.01-.04.17-.06.32l-.07.45c-.05.3-.08.6-.1.9-.06.6-.1 1.23-.1 1.87-.01 1.28.1 2.65.4 4.14-.16-.8.01.36-.01.3.28 1.5.73 3.03 1.22 4.13.47 1.1.9 1.8.98 1.8.94 1.94.7 1.6.78 1.9.06-.04.9 1.64 1.62 3.17l-.35-.7 1.03 2.2c.36.73.66 1.47 1.2 2.2-.18-.32-.3-.63-.4-.94.6 1.2.9 1.3 1 1.44.07.06.13.13.37.25.13.05.3.13.6.12a1.23 1.23 0 0 0 .47-.11c.16-.06.34-.2.35-.24l-.07-.1.04-.04c.1-.1.17-.2.22-.3.06.02.14.22.2.3a3.93 3.93 0 0 0 .67.73c.3.25.65.46 1.06.56.4.1.87.07 1.27-.18a1.92 1.92 0 0 0 .48-.46c.06-.07.13-.22.14-.23l.05-.1c.04-.08.06-.2.08-.24a1.04 1.04 0 0 0 .21.21c.02.02.06.04.1.06.1.03.2.08.33.1a1.68 1.68 0 0 0 .74-.02c.23-.05.56-.18.75-.4.2-.25.32-.52.37-.73.25-1.03.2-1.93.2-2.86a49.74 49.74 0 0 0-.15-2.74c-.13-1.82-.3-3.64-.5-5.46l-.13-1.37.6.8c.28.37.46.72.82 1.16a5.62 5.62 0 0 0 .54.55c.1.1.2.16.3.25.15.1.3.2.46.26.33.17.7.22 1 .13.34-.08.56-.4.66-.7.1-.33.06-.74.02-1.05-.05-.25-.1-.5-.18-.72-.6-1.74-1.04-3.45-1.45-5.22-.1-.44-.2-.87-.37-1.36l-.5-1.26c-.34-.84-.7-1.67-1.12-2.47s-.9-1.6-1.5-2.3c-.62-.7-1.22-1.26-1.7-1.92-.07-.1-.12-.2-.18-.28a1.63 1.63 0 0 0 .64-1.32l-.4-5.4-.02-.1c-.22-.78-.78-1.28-1.47-1.4 0-.33.01-.6.04-.7v-1.54c.04-.43.1-1.34.1-.57.1-1.42.06-1.46.1-2.5l.18-1.52 1.4-16.33c.44-3.54.86-8.7 1.33-13.87.26-2.6.54-5.2 1.06-7.55.13-.58.3-1.15.48-1.67l.15-.38c.02-.06.02-.06.05-.1l.12-.18 2.3-3.27a68.7 68.7 0 0 1 1.42-2.06l-.9 5.2c-.1.34-.2 1.24-.17 1.24l-1.86 9.66s-8.93 46.86-.46 11.57v.25c1.1-5.27 1.77-8.6 2.22-12.3.4-.53.85-4.34 1.18-5.57v.12c.4-3.27 1.44-6.62 1.83-9.77 0 .12.07.2-.07.92l.9-4.9 2.03-2.56a19.43 19.43 0 0 0 1.18.93l-.15-.07c1.07.74 1.24 1.1 2.36 2 .04.07.1.15.1.14 1.15.82 3.02 2.75 3.9 3.46l-.02.13 2.07 1.87-.75-.72c.24.01.58.4 1.1.95.38.4.84.86 1.36 1.35l.1.1c.03.04.07.07.1.02l.18-.2.36-.42c.24-.3.5-.6.72-.9 1.33-1.5 2.03-3.36 3.4-4.8.5-.8-.35.78.46-.37.15.07-.34.57-.01.37.8-1.12 1.56-1.64 2.54-3.04l.14.02c1.2-1.87 2.72-3.18 3.45-4.5 1.3-1.88 1.23-1 2.46-3.06l.7-.65c.62-.8.26-.72 1-1.6.05.12.9-1.1.6-.52 1.6-2.02 2.8-4.4 4.78-7.17.22-.73 1.16-2.17 1.3-2.72.13-.04 1.64-2.97.9-1.2 0 0 .8-1.48 1.74-3.4.01-.03.01-.05.03-.1l.32-.6c1.1-2.26 2.36-4.9 2.86-6.46 1-3.1-3.6 5.4-6.08 8.6-2.04 4-4.32 7.7-6.8 10.97l-.32.2c-.25.01-1.04 2.02-1.4 2.15l-.47.83c-.2.2-.56.62-.3.2-.53.7-.5.74-.84 1.28l-.67.68c-2.17 2.7-3.8 5.18-6.13 7.98-.74.8-1.62 1.82-2.57 2.93l-2.23 2.64-.2.27c-.02.01-.03.06-.05.05l-.24-.2-.14-.12-.45-.4-1.76-1.54-3.1-2.7c-5.15-4.3-10.3-10.22-15.6-14.6-.14-.17-.62-.52-.63-.5l-4.6-4.28s-8.34-7.7-11.22-9.85c1.14-.98 2.96-2.84 2.96-2.84 4.87-4.8 6.96-7.66 12.52-13.57 2.52-2.52 4.14-4.1 5.84-5.55 1.73-1.46 3.47-2.94 6.37-5.13 2.8-2.02 5.94-4 9-5.37 1.37-.86 4.08-1.62 5.86-2.18l.73-.03c.6-.2 1.36-.33 2-.36l-.04.04a14.51 14.51 0 0 1 1.42-.18c.44-.01.83-.02 1.07-.05l-.04.04c.38-.02.77.01 1.15.02l-.2.04c1.65-.03 3.34.28 4.75.77l-.08-.18c1.1.4 2.65.45 3.4.8l1.98.7c.2.13.4.25.6.4.1.02.18.04.28.07 2.02.55 4.13 1.45 6.22 2.9 1.06.4 3.08 2 3.8 2.44.04.06 1 .92 1.68 1.55.65.65 1 1.04-.1.1-.2-.15-.52-.45-.48-.46l-.34-.14c2 2.1 3.88 3.62 5.67 5.94-.5-.7-1.23-1.6-.7-1.05.56.7 1.12 1.4 1.64 2.15l-.42-.4c.8 1.1 1.54 2.2 2.25 3.34l-.2-.54c1 1.7 1.2 2.4 2.43 4.26.58.84-.75-1.73.3.1 1.2 2.36 2.74 6.03 3.78 9.23.03-.34.33.5.63 1.4l-.1.14c.6 1.68.6 2.03.6 2.35.01.33.03.65.45 2.35l-.14-.3.42.86c.73 3.1-.01 1.73.77 5.26-.2-1.42.2-.7.34 1.06l-.17-.43c.13.97.2 1.28.26 1.93-.13-.57-.2-.3-.03 1.14l-.25-.94.5 2.67c.1 2.1.57 5.38.48 6.25 0 0 .35 4.5.62 5.5-.2-.9-.01 1.6-.2.9.24 1.15.66 4.57.64 5.96l-.04-.26c.32 5.1.97 8.68 1.2 13.26.13-.22.25 2.2.4 1.6.6 4.7.36 8.64 1.07 10.3.2 2.15.08 2.56.14 3.67l-.07-.5.7 8.18c.1.74.2 1.17.32 1.74.06.3.1.6.16 1.03.01.12.03.26.05.42.01.07.01.15.02.24l.01.13c0 .04.02.1-.05.08.07.01.01-.1.01-.1-.01-.04-.02-.05-.03-.06-.02-.01-.01.03-.02.1-.15-.01-.4 0-.66 0 .16-.01.25-.02.23-.04-.01-.01-.06-.02-.13-.04-.08-.01-.1-.03-.5-.05-.2.03-.47.05-.74.07-.01-.01-.06-.01-.04-.03-1.68.04-1.38.07-.6.08-.04.02.03.04.27.07-1.74-.14-4.85.01-5.06-.17l-14.1.12c.03-.13 1.7-.08 2.63-.1-3.54-.22-7.3.22-11.46.02l-.86.1-.25-.02c.01.06-.92.13-1.53.15-.6-.12.04-.27-2.02-.26-1.63-.1-4.62.06-6.75.12 1.15.02.78.08.28.13-1.03 0-1.62-.1-2.4-.06l-.08-.12c-.14.12-2.74.13-3.1.2-.6-.12 1.6-.1 1.85-.2l-6.18.02c-2.2.12.4.15-.65.3-1.94.03-3.84.14-6.07.05l.7.14c-3.65.1-5.83.1-8.3-.05-27.2 1.14-5.73 1.56-5.73 1.56 10.7.3 16.23-.1 28.97-.2 11.2.07 14.17.34 25.78.23l8.47-.02 9.38-.06c.15-.01.3-.01.45-.02.07-.01.16 0 .23-.01L275 209l-.1-1.03-.18-1.87-.22-2.65c-.15-1.83-.3-3.72-.5-5.23v-.1c2.45 1.2 6.28 3.3 9 4.54l1.07.6a74.35 74.35 0 0 1 3.13 1.48l-.07-.01c1.5.64 3.14 1.45 3.9 1.75l-.07-.01 1.8.8-.32-.1 7.65 3.3-.16-.16c5.03 2.23 6.97 2.82 11.55 4.75l-.07-.01 4.32 1.58 3.7 1.43c-.01 0 .13.13.24.23l.34.3c.23.2.47.4.7.58.48.38 1 .74 1.53 1.1 1.1.7 2.3 1.36 3.74 1.9-.77-.3.3.18.24.17 1.42.57 2.95 1 4.15 1.18 1.2.2 2.02.2 2.05.14 2.15.23 1.74.25 2.02.34 0-.08 1.87.1 3.54.33l-.77-.07 2.4.32c.8.1 1.58.27 2.5.22-.37-.02-.7-.1-1.02-.18.66.08 1.04.08 1.33.04.27-.08.35-.08.44-.12s.18-.04.4-.2c.1-.08.25-.23.38-.47a1.19 1.19 0 0 0 .12-.45c.01-.1 0-.16 0-.25 0-.07-.01-.08-.02-.12h0-.1v-.01c-.03-.13-.08-.25-.13-.35.05-.04.25 0 .36-.02a4.42 4.42 0 0 0 1-.16c.38-.1.75-.3 1.06-.57.3-.28.55-.64.6-1.1.04-.23 0-.47-.06-.68-.03-.1-.08-.22-.12-.3-.01-.03-.03-.06-.05-.1a.71.71 0 0 0-.18-.2 1.33 1.33 0 0 0 .3-.06c.03-.01.14-.06.35-.25.18-.16.32-.38.42-.62a1.13 1.13 0 0 0 .12-.82zm-163.9 3l4.58-.5c.05 0 .1-.01.14-.01.48 0 .96.18 1.34.5a1.94 1.94 0 0 1 .69 1.35l.5 4.67a1.14 1.14 0 0 1-.09.72c-.22.66-.9 1.18-1.68 1.26l-4.63.5c-.46.08-1.1-.2-1.56-.44-.3-.2-.57-.7-.66-1.33l-.5-4.55c0-.33 0-.65.12-.82l.06-.12c.22-.64.9-1.16 1.68-1.24zm-3.36 7.22l-.8-5.23c0-.12 0-.5.56-.7l.85-.1c-.1.34-.1.7-.1 1.07l.5 4.62c.05.32.13.6.24.87l-.54.06c-.13 0-.5 0-.7-.58zM194.9 231c.72.9 1.28 2.03 1.78 3.27.3.5.67 1.42.98 2.26.25.83.44 1.76.6 2.17-.01.08.3 1.43.58 2.38s.42 1.5-.08.02c-.08-.26-.2-.7-.18-.7l-.17-.34c.17.77.36 1.5.6 2.2l.3.98.08.35c.01.03.01.05.01.07.01.05-.05.1-.1.08-.03 0-.05-.01-.1-.04-.04-.03-.22-.15-.3-.24-.24-.22-.42-.4-.6-.7l-.65-.95c.26.38.56.85.72 1.1.15.2.2.3-.03.03-.52-.8-1.06-1.6-1.7-2.38l.44.45c-.23-.3-.44-.58-.76-.9-.04-.04-.1-.08-.15-.13-.04-.03-.06-.04-.12-.08l-.08-.04c-.04-.02-.1-.04-.16-.05-.1-.03-.43-.06-.67.18-.18.18-.2.38-.2.44-.02.18 0 .26.01.32l.01.48c.04.73.1 1.44.16 2.15l.02-.6c.15 2.1.1 2.82.4 5.15.14 1.05-.05-1.97.14.2.06 1.1.14 2.4.13 3.8-.01.68-.03 1.4-.17 2-.1.34-.1.32-.2.35-.1.03-.18.03-.26.02-.04 0-.1-.02-.13-.03-.1-.05-.25-.13-.4-.28-.12.03-.22.05-.3.07l-2.22-9.35a.49.49 0 1 0-.97.23l2.24 9.44c-.03.01-.06.03-.1.04-.01.16-.05.3-.1.42-.01.04-.06.17-.06.17l-.03.05c-.04.06-.08.1-.12.15.16-.06-.06.4-.8.08l-.04-.1c-.45-.27-.66-.46-1.1-1.1l-2.25-8.8a.5.5 0 1 0-.97.25l2.16 8.46c-.1 0-.2.01-.34.01-.08.13-.26.36-.3.35-.06.04-.07.03-.1.03.02.01-.24-.01-.6-.44.07.05.13.1.2.15-.2-.12-.4-.33-.58-.58-1.6-2.9-.63-1.7-2.42-4.98.64 1.34.15.7-.6-.97l.27.4-.9-1.82c.3.53.22.23-.42-1.1l.5.85c-.44-.84-.9-1.6-1.24-2.46-.77-1.97-1.33-5.3-1.24-6.2 0 0-.05-.92-.03-2.02.01-.55.04-1.15.1-1.7l.08-.77c.01-.12.03-.23.04-.34.02-.15.05-.3.07-.42-.1-.38-.12-.43-.16-.56.27.9-.26-1.6-.02-.92-.07-.22-.15-.55-.24-.92.06.05.1.1.18.14.58.3 1.25.57 1.87.57.1 0 .2-.01.3-.02l4.6-.5c.97-.1 1.84-.68 2.28-1.42l1.26-.15c.01.01.01.02.02.03.64 1.02 1.63 1.85 2.33 2.72zm-2.05-9.8l.4 5.3c0 .12 0 .5-.6.7l-.96.1c.03-.22.03-.46-.03-.68l-.5-4.58a2.93 2.93 0 0 0-.48-1.38l1.4-.18c.37.01.65.26.78.7zM269 146.66c-.22-2.08-.1-1.7-.01-2-.12.03-.37-1.78-.58-3.4l.14.74c-.2-1.54-.37-3.12-.7-4.68l-.06.96c-.4-2.48.18-.7-.4-3.03l-.18.08c-.84-3.36-1.23-5.38-2.4-8.56-1.48-3.54-3.37-7-5.58-10.25 3.5 4.2 6.48 8.84 8.48 13.4v.37c-.12.22 1.2 1.8 1.12 2.15l.44.8c.06.24.22.77.01.36.3.78.34.8.63 1.33l.2.9c1.1 3.13 2.34 5.7 3.48 9 .44 1.52 1.12 3.52 1.87 5.65l1.16 3.25.3.83c.05.14.07.22.05.36-.02.27-.2.5-.35.56l-.06.02-3.5 1.73c-.82.43-1.68.83-2.56 1.24-.13-1.7-.3-3.5-.64-5.6.12.77.04-.34.08-.28-.33-2.86-.66-5.9-.96-5.92zm76 74.8l-.1-.02c-.5.26-.77.32-1.53.33L335 218.8l.38-.95c.14-.4.28-.78.4-1.17l9.17 3.33c.01 0 .02 0 .03.01 0 .03-.01.04-.01.07.13.1.2.2.3.3.1.15.07.1.1.16.02.06.04.1.04.16.03-.07.08-.02.07.13-.01.14-.16.44-.47.62z"/><path d="M239.87 140.97v.26l.45-.7-.22.06c-.07.16-.2.4-.23.37z"/></svg>