<svg xmlns="http://www.w3.org/2000/svg" viewBox="0 0 480 480" xmlns:v="https://vecta.io/nano"><path d="M327.2 74.86l3.05-6.8c.4-.9-.3-2-1.3-1.9l-3.9.2c-1.03.03-1.23.85-1.84 1.97l-4.17 8.46c-.1-.2-.2-.33-.2-.33s-5.6 3.4-6.8 5.1c-1.2 1.6-2.8 3.8-2.8 6.3 0 2-.4 7.6-.8 8.9-.46 1.76-5.44 10.28-8.86 16.03l-.04-.03c-.5-.4-1.2-.4-1.6.1l-2.34 3c-3.4 4.02-9.3 10.53-12.36 12.5-2.47 1.27-17.3-8.66-26.87-15.4-6.1-7.4-13.97-12.78-22.98-13.1-2.57-1.06-5.42-1.58-8.35-1.6-6.76-.14-11.72 1.86-15.8 5.37-5.62 2.16-11.6 5.62-17.9 9.63-11.5 7.2-27.8 19.1-32.8 25.5-1.8 2.27-3.44 4.73-4.55 7.35-2.2 3.86-2.22 8.3-1.65 12.65.86 6.3 8.75 15.25 22.45 14.55l-4.75 32.05c-1.3 12.2-1.9 29.7 35.6 33.9 18.4 2.07 28.62-.03 34.5-5.34.15-.14.3-.27.46-.4l.22-.22c4.46-4.4 6.27-10.8 7.32-18.73l.78-6.7h25.12l-.9-15.5h-.1l-.8-12.9h.1l-.66-9.67c11.32 2.13 18.44-.3 27.36-10.43 6.94-7.84 12.96-18.18 16.53-25.12l.17.12 4-5.9c.4-.5.3-1.2-.2-1.6l-8.34-5.88 7.83-18.3 1.2-1.43s3.3-4.1 4.3-5.6c.74-.94 2.94-8.83 4.3-13.86.36-.34.6-.78.7-1.34.05-.28-.01-.52-.16-.73l.36-1.37c.25-.27.45-.63.6-1.1.45-1.47-2.05-2-3.16-2.4z" fill="#fff"/><path d="M317.3 134.3c-.01.06-.01.1-.01.17v-.17zm-57.17 3.92h0l.14-.1zm10.64 36.24h0l-.1-.15zm1.67 27.04h0l-.1-.18zm-.92-13.7h0l-.1-.17zm-67.28-20.85h0l-.06.1zM318.78 82.2h0l.02.05z"/><path d="M327.9 74.56l2.82-6.3c.27-.6.2-1.32-.2-1.87-.38-.52-.97-.8-1.58-.74l-3.9.2c-1.14.04-1.55.84-1.98 1.7l-.3.55-3.63 7.36c-.02-.03-.04-.05-.06-.08l-2.97 1.98-2.7 2.03-1.27 1.07c-.2.18-.37.37-.54.58l-.4.52-1.38 1.96c-.4.67-.77 1.4-1.05 2.3-.13.46-.24.96-.28 1.52l-.03 1.67-.55 6.82c-.01.53-.17 1.07-.5 1.75l-.9 1.92-.3.4c-.17.4-.38.85-.63 1.2l-.01-.03c-.26.6-.64 1.2-.77 1.5l-.01-.03-.38.68.04-.13-1.6 2.88.12-.03-2.53 4.25v-.03c-.4 1.27.85 1.1 3.62-3.58-.12.03.42-.8.2-.65.88-1.75 1.96-3 2-3.78.42-.8.58-.9.8-1.28l-.08.2 1.53-3.06c.12-.3.15-.48.2-.74l.26-1.13c-.01.38.07-.1.13-.5-.03.27-.02.35.1-.2-.01-.08 0-.2 0-.3.01 0 .01-.03.02-.01.06-.7.03-.58-.02-.26-.01-.02-.02.01-.05.1.17-.7.2-2 .32-2.08.15-2.08.12-3.6.1-5.3.07-.17.1.18.1.7l.04-1.18c.07.03-.02.63.01 1.03.06-.73.1-1.37.3-2.1.18-.7.5-1.45.97-2.13l.13-.33.06-.08c-.03-.01.13-.35.27-.57.2-.16.12.1.6-.58a5.25 5.25 0 0 0 .37-.46c.05-.06.1-.13.14-.2.02.14.08.2.18.17.2-.04.54-.3.55-.3.78-.5 1.04-1 1.95-1.78.88-.58 1.2-.6 2.07-1.27l1.3-.9c.12-.22.1-.07.2-.24v-.01c0 .03-.01.07-.02.1.02-.04.05-.04.04.02v.02c.05-.03.04.03.06.02l-.02.01.02.03-.03.01c.02-.03.1.12.1.2.07.1.07.2.07.3l.08-.03c-.06.4.1.57-.1.9l-.02-.01c.06.54-.44.72-.5 1.3.01-.07-.05 0-.07-.01-.1.23-.23.48-.1.57-.1.16-.13.1-.2.1.06.04 0 .2-.08.32l.01-.07-.23.36h.16c-.17.16-.17-.06-.27.14l.1.07c-.22.23-.47.27-.74.43l-.94 1-.5.5-.26.23-.43.32-.08.43-.07.3c-.04.17-.1.34-.16.5l-.1.04c-.13 0 .12.37 0 .4l.03.15c-.03.03-.07.1-.1.04-.03.13-.01.13.01.23l-.1.12c-.16.5-.1.95-.25 1.48-.3.6-.42 1.83-.54 2.5-.02.25-.1.5-.2.76l-.47 1.1c.04.1.1.2.16.3l.1.15c.03.02.05.02.1.04.1.06.32.2.57.38.15.04.35.07.4.06.02.03.1.01.1-.01a5.27 5.27 0 0 1 .78.34l1.57.8c.6.3 1.05.25-.13-1.17l.04-.01c-.42-.33-.7-.52-1.1-.55.02-.2-.4-.2-.5-.3h.02c-.14 0-.26-.05-.4-.1l-.2-.1c-.01-.02-.03-.03-.05-.03-.02-.01-.05 0-.1.02.01-.01.05-.05.07-.05-.05.01-.14.02-.16.01-.01-.01.01-.02.05-.05-.05.01.01-.08.01-.12.02-.06.02-.1.03-.17.04-.17.06-.32.04-.44l.02.03c-.03-.13 0-.2.03-.27l-.02.15 4.72.28c.73 0 1.3-.35 1.76-1.1l.04-.08c.5.18 1.04.28 1.58.28a4.28 4.28 0 0 0 .96-.11c1.2-.07 2-.38 2.52-.95a2.03 2.03 0 0 0 .29-.43l-1.68 5.6v-.1l-.15.5-.16.3-.02.03-.56.82c-.04.03-.08.08-.08.07-.44.8-1.58 2.1-2 2.7h-.08l-1.1 1.42.43-.52c-.01.3-.92 1-1.68 2.05-.15.17-.22.27-.42.53-.38 1.08-.5 2.07-1 3.03-.16.6.08-.54-.2.3-.1-.01.1-.4-.05-.23-.3.83-.66 1.3-1.03 2.33l-.1.01c-.44 1.37-1.15 2.44-1.4 3.36-.52 1.38-.6.82-1.06 2.3l-.33.5c-.27.6-.07.48-.4 1.13-.04-.07-.4.83-.3.4-.6 1.2-1.03 2.53-1.7 4l-1.4-1.04c.04.2-1.33-.84-1.08-.45l-.84-.55a1 1 0 0 0-.1-.09c-.13-.18-.4-.33-.7-.47-2-1.43-3.46-2.76-4.5-2.94-1.28-.85-1.4-1.15-2.05-1.62l.32.18-.8-.54c-.38-.24-.8-.32-1.18-.3-.77.03-1.36.42-1.68.9l-.4.5v-.05c-.6.64-1.02 1.1-1.32 1.64l-.15.18c-.12.15-.2.3-.3.4-.24.17-.48.7-.67.84v-.03c-.13.35-.4.6-.65.86-.22.23-.46.5-.67.78 0-.03-.14.1-.52.45a3.47 3.47 0 0 1-.3.44c-.01 0-.04.02-.04 0-.76.9-.6.77-.22.38-.01.03.04.01.17-.1-.92.83-2.3 2.54-2.55 2.52l-3.24 3.47c-1 1.03-2 2.02-3.12 2.83-.1.02-.1-.04.04-.18.16-.17.45-.38.76-.67-.26.23-.53.42-.8.6-.2.18-.3.18-.55.18.04-.07.2-.06.34-.13.04-.01.07-.05.12-.08l.24-.17c.16-.1.3-.2.42-.32l-.73.46c-.15.08-.18.08-.42.07-.48-.04-1.1-.2-1.7-.4-1.22-.4-2.5-1-3.73-1.76l-.58-.2-.14-.1c-.02.05-.63-.2-1.02-.4-.3-.3.16-.2-1.1-.94-.93-.68-2.82-1.64-4.13-2.4.68.45.42.37.1.2-.62-.4-.9-.7-1.4-.97l.03-.17c.16.28-1.68-.9-1.94-1-.28-.32 1 .54 1.2.56l-3.67-2.4c-1.36-.77.15.28-.54-.02l-3.58-2.4.33.4-2.06-1.34-.7-.88-.87-.96-1.14-1.27-1.2-1.3-2.48-2.65c-.87-.86-1.8-1.7-2.74-2.44-1-.7-1.95-1.43-3.02-1.9a1.47 1.47 0 0 0-.5-.22l-.9-.54-.95-.47-1.93-.9-.8-.3c-.5-.16-1.2-.48-2.03-.65-.83-.17-1.74-.45-2.68-.54l-2.05-.18c-1.2-.57-2.5-1-3.58-1.2-.3-.14-.6-.2-.88-.32l-2.6-.36.06-.03-3.22-.05.05-.04-1.48.05.25-.06a12.41 12.41 0 0 0-1.6.17l-1.6.2-1.55.32-1.47.35.2.1c-1 .28-1.86.5-2.57.87-.73.32-1.37.6-1.95.98l-1.78 1.12-1.9 1.35c-.04.01-.07.03-.1.04h0l-.64.26-8.32 3.8-8.02 4.7c-3.35 2.06-6.84 4.42-10 6.63-1.4 1.2-4.14 2.9-5.78 4.32l-.75.4c-.57.5-1.25 1.04-1.88 1.44l.02-.06c-.84.74-1.87 1.45-2.28 1.83l.02-.06-1.06.84.15-.18c-1.48 1.27-3.03 2.53-4.42 3.63l.2.02c-3 2.33-3.84 3.45-6.4 5.77l.01-.06-1.9 2.35-1.64 2.1c-1.04 1.4-2.1 2.88-2.85 5.07.18-.55-.16.2-.18.14-.16.38-.3.78-.43 1.17-.4.86-.7 1.75-.88 2.66-.4 1.65-.53 3.33-.52 4.93-.02 1.62.1 3.16.22 4.68l-.1.3c-.1.08.07.5.25.94.22.4.45.82.4.97.1.22.2.45.35.65.05.2.2.6 0 .3.28.6.3.63.6 1.02l.25.7c1.3 2.34 3.02 3.85 5.14 5.56a16.98 16.98 0 0 0 5.55 3.2c.55.25 1.15.36 1.72.53s1.14.3 1.7.4l1.6.27 1.43.1c1 .1 2.05.07 3.1.1l-1.35 9.67-1.95 11.66c-.52 3.3-1.13 6.62-1.6 12.07-.23 2.6-.32 5.35 0 8.1.3 2.74 1.06 5.46 2.24 7.85.66 1.08 1.55 2.6 2.68 3.98 1.1 1.42 2.5 2.65 3.7 3.5l.83.78 2.7 1.7h-.07l2 1.02c.63.3 1.17.58 1.52.7l-.07.01 1.67.7-.3-.08c2.44.88 4.97 1.68 7.22 2.3l-.15-.2c2.4.7 4.07 1 5.68 1.27.8.15 1.6.24 2.47.4l2.9.48-.07.03c2.66.18 4.76.4 6.87.64v.03c.05-.01.1-.01.14-.02l.27.03c2.24.23 4.52.43 7.45.25-.73.05.3.07.25.1 1.82-.02 3.7-.15 4.77-.3a48.32 48.32 0 0 0 2.67-.28c.01 0 .02.01.03.01 0-.01.02-.02.03-.02 2.25-.3 4.48-.78 6.65-1.5 2.06-.68 4.04-1.64 5.83-2.82 1.1-.6 2.14-1.32 3.28-2.38a18.83 18.83 0 0 0 2.48-3.14l.18-.14c.14-.02.4-.6.66-1.2.08-.18.15-.36.2-.53.37-.73.7-1.48 1-2.24.07-.12.1-.14.02.1.3-.74.3-.9.4-1.3.03-.1.07-.2.1-.3.02-.06.03-.1.05-.17l.4-.78c1.2-3.6 1.43-6.82 1.98-10.67.23-1.24.44-2.78.64-4.47.26 0 .48-.01.63-.02l-.04.04 1.1-.02-.2.05c1.56-.1 3.16-.1 4.58-.06l-.12-.15c3.02.16 4.13-.14 6.86.05l-.04.04c3.45-.38 5.46.26 9-.1-.44.05.2.07.15.1l2.5-.05c.15 0 .3-.01.45-.01l.2-.01c.03 0 .07 0 .1-.01l-.01-.1c-.1-1.15-.23-1.88-.38-1.9-.03-.5-.03-.64-.03-.8 0-.15.01-.24.03-.3.03-.1.08-.1.13-.18-.12.01-.24-1.02-.3-1.95l.07.43-.2-2.67-.2.54c-.01-1.42.27-.38.13-1.73l-.2.03c-.08-1.96.15-3.12.2-5.03l-.08-1.48-.07-1.23-.04-.65c-.03-.2.06-.52-.25-.43h-.1c-.01-.1-.03-.2-.04-.33a18.78 18.78 0 0 1-.13-1.29l.07.4-.2-2.5-.2.5c-.01-1.32.27-.35.13-1.6l-.2.03c-.07-1.83.15-2.92.2-4.7l-.1-1.53-.07-1.2-.04-.6c.02-.07-.05-.06-.1-.06h-.07c.02-.23.08-.2.13-.32-.03.01-.07-.12-.1-.23-.03-.1-.06-.24-.08-.4-.05-.34-.1-.78-.13-1.2l.07.38-.2-2.4-.2.5c-.02-1.28.26-.34.12-1.56l-.2.03c-.05-1.02.01-1.8.07-2.6.1.02.23.04.33.07 1.05.25 2.02.35 2.86.34 1.3.08 1.73.13 2.17.23a4.53 4.53 0 0 0 .8.11c.34-.01.8-.05 1.48-.14.36.03.72.1 1.08.1 1.17-.15.8-.3 2.1-.45-.06.12 1.63-.32.9-.03 2.96-.57 5.63-2.24 8.85-4.33.58-.63 2.07-1.85 2.45-2.35.14 0 2.76-2.67 1.36-1.03-.12.14-.36.37-.37.33l-.1.27c.86-.68 1.56-1.4 2.17-2.16l1.94-2.34c-.44.46-.98 1.1-.68.62l1.3-1.5-.2.38c.67-.73 1.3-1.5 1.92-2.25l-.35.24c.96-1.1 1.43-1.37 2.26-2.78.36-.65-.95 1-.08-.25 1.22-1.5 2.97-3.8 4.33-5.85-.24.12.12-.44.46-1.03h.15c1.24-2.3.74-.67 1.98-2.94l.1-.48c.96-2.14.88-.95 1.86-3.37-.5.9-.48.28.2-.8l-.05.34c.32-.62.4-.85.63-1.24-.14.4.05.28.52-.63l-.2.68.73-1.8c.17-.26.34-.56.5-.87.03.02.06.03.1.05l.05-.1.06.13c.7-1.36.42-.14 1.18-1.5.01-.1.02-.23.02-.33.08-.17.1-.23.12-.28.02-.06.05-.1.08-.13.05-.06.1-.1.15-.12.1-.06.2-.13.28-.54-.16.27-.3-.03-.05-.32l.05.15c.1-.2.1-.27.2-.38-.02.14.1.15.26-.1l.01.26.14-.6c.36-.3.63-.98.87-1.04 0 0 .6-.75.58-1.04-.01.23.32-.2.35.01.02-.14.1-.38.23-.6a5.18 5.18 0 0 0 .54-1.03l-.01.1c.3-.98-.2-1.9-.88-2.35l-.7-.43c-.2-.13-.37-.27-.55-.45-.01.03-.04.04-.08.03-.01-.01-.02-.02-.03-.02-.64-.42-1.23-.85-1.56-1.16l.16.1c-2-1.5-3.72-2.55-5.44-3.7l1.57-3.5.17-.18c.16-.04.4-1.42.6-1.56l.2-.6c.1-.15.26-.48.16-.18.23-.52.2-.54.34-.93l.3-.53c.94-2.04 1.55-3.86 2.5-6a39.98 39.98 0 0 0 .82-1.76l.88-2.03 1.14-1.38 1.14-1.5 1.95-2.66 1.1-1.57c.33-.52.48-.97.68-1.44l.52-1.4 1-2.86c.63-1.92 1.2-3.84 1.62-5.7.06-.13.1-.5.1-.5l.57-2.1c.32-.34.56-.78.67-1.37a1.41 1.41 0 0 0-.08-.79c.03-.12.07-.27.12-.45l.22-.85c.2-.28.4-.62.53-1.06.48-1.66-1.7-2.35-3-2.77zm-27.08 39.1c-3.64-1.43-.72 1.06-.72 1.06 1.7 1.58 2.9 1.93 5.2 3.4 1.92 1.44 2.3 2.03 4.4 3.38.96.7 2.03 1.38 3 2.03.57.15 1.25.88 1.88 1.1l.14.24c.22.08.46.2.6.38l-.03.02c.33.12.6.38.77.44l-.03.02.34.22h-.1c.53.26 1.03.6 1.44.94l.05-.14c.2.2.4.34.58.47l.26.17c.08.05.18.1.2.1.1.02.24.15.13.3h-.04c.1.08.08.2.02.27-.15.23-.33.42-.5.62-.35.4-.7.78-.92 1.44.06-.16-.1.02-.12-.01-.3.53-.66 1.1-.43 1.26-.26.37-.28.25-.4.24.1.07-.07.42-.26.7l.05-.16-.26.43-.13.2-.06.1c.07.03.15.05.24.06-.24.23-.25-.14-.36.12l.1.2c-.1.12-.2.18-.27.2-.2-.27-.3-.54-.36-.7.01 0-.2-.15-.34-.25l-.46-.32c-.3-.2-.63-.4-.95-.62l-1.93-1.2c-1.28-.8-2.52-1.62-3.56-2.55l-.02-.2c.08-.2-.8-.17-.78-.4l-.32-.1c-.05-.08-.18-.23-.03-.17-.24-.18-.26-.15-.48-.22l-.2-.3c-.9-.75-1.86-1.1-2.85-1.86-1.06-1.07-3.5-2.46-4.9-3.25-.8-.4-1.54-1-2.27-1.6l-1.1-.94c-.1-.12-.14-.2-.2-.26a.55.55 0 0 0 .09-.14c.01-.02.02-.05.03-.08.02-.05-.02-.02.06-.16a.38.38 0 0 0 .12-.25l1.32-1.65.9-1.17.8-1.1.38-.57c.07-.12.05-.12.1-.17.18-.2.67-.04.73-.28.01-.07-.01-.2-.13-.36.1.05.2.1.3.16l1.28.87zm-61.2-11.8c.76.26 1.45.45 2.2.6.1.37 1.62.8 2.05 1.1h-.05c.66.2 1.2.62 1.78 1 .3.2.57.38.84.57.27.2.55.38.84.52-.05-.01-.12.04-.37-.13.8.5 1.9 1.2 1.83 1.4 1.8 1.34 4.04 3.56 5.2 4.48l-.1-.04c.7.5.77.75 1.42 1.4.02.05.05.1.04.1.36.3.8.8 1.2 1.3s.74 1.02 1 1.3l-.06.1c.36.48.75.94 1.1 1.44a10.84 10.84 0 0 0-.37-.56c.4 0 .6 1.24 1.5 2.2.64 1.04 1.85 1.8 2.38 2.97.42.47-.46-.36.07.4-.13.1-.3-.33-.3-.06.5.75.56 1.36 1.17 2.3l-.1.1c.1.15.2.3.28.45.07.13.1.17.14.25.07.15.12.3.16.42 0 .01 0 .01.01.02-.3.04-.7.14-1 .18-.23-.06-.52-.1-1.2.02l-.2-.06c.02-.01.05-.01.1-.02H261l-.33-.1c-.5-.02-.52.1-.8.13l-.4-.1h-.3c-.23-.03-.48-.04-.22-.1-1.67-.17-3.4.24-5.6-.04-.4.17-1.2.12-1.68.18a39.45 39.45 0 0 0-1.63-.05c-.01-.02.1-.05.38-.1.1-.02.3-.01.28.02l.15-.12c-1.26-.23-2.28.13-3.53.1.34.04.78.03.58.1-.2 0-.4 0-.6.01h-.6l.24-.1-1.35-.05.13-2.47c.07-1.37.1-2.75.07-4.36s-.18-3.5-.64-5.74c-.48-2.15-1.23-4.34-2.37-6.35-1.1-1.9-2.57-3.56-4.2-4.87.35.1.7.18 1 .3zm26.72 32.06c-.05-.1-.1-.3-.07-.28l-.16-.1c.18 1.3.82 2.2 1.1 3.44-.05-.38-.2-.86-.03-.56l.27 1.15-.16-.2.1.43c.03.14.07.32.06.3v.15c.05.01.1.01.13.01-.02.24-.28-.07-.32.13-.05.05.02.1.08.13h-.46c-.12 0-.24.01-.35.01l-1.14-.07a64.05 64.05 0 0 0-2.34-.11c.14.14-.26.14-.68.17l-.05-.12c-1.6.17-.58-.27-2.17-.14l-.28.17c-1.43.25-.77-.26-2.36.08.42-.01.4.12.1.18h-.53l.14-.1c-.43.03-.57.08-.85.05.25-.06.13-.17-.5-.15l.42-.15-1.2.22c-.92-.13-2.37.03-2.75-.14 0 0-.2-.01-.46-.01-.05-.08-.28-.05-.57-.01-.55 0-1.17.03-1.4.12.4-.12-.7-.16-.38-.3a9.48 9.48 0 0 1-2.35.14c.05-.14.1-.27.15-.43.05-.2.1-.35.1-.63.01-.2-.01-.44-.06-.68-.06-.24-.15-.5-.33-.72a1.53 1.53 0 0 0-.27-.26c-.06-.04-.1-.05-.14-.06-.1-.03-.2-.03-.3-.03a.77.77 0 0 0-.15.02l-.07.01c-.01 0 .03-.01.04-.02-.02.01-.06.02-.05.02h.1c.03 0 .03 0 .02.01-.06.01-.15.02-.25.04-.1.02.04-.03.06-.04l.13-.06c.08-.04.15-.08.22-.12.06-.04.1-.1.16-.14.02-.03.04-.05.05-.08.02-.04.05-.12.07-.2.04-.02.08-.04.1-.06-.08.14.06-.26-.07-.73l.01.04c-.07-.3-.1-.65-.3-.93-.12-.3-.36-.46-.4-.52-.14-.2.1.01.35.32.1.17.2.36.26.53a2.67 2.67 0 0 0 .1.34c-.04-.37-.2-.68-.33-.92-.18-.2-.32-.4-.47-.5-.3-.2-.48-.3-.67-.34-.07-.03-.14-.05-.22-.07l.38-4.72 8.85-.15h0c.04-.01.07-.01.1-.01 1.3.01 2.56.04 3.78.12l.24.15c.07.15.76-.06 1.24-.14.23.05.54.06 1.18-.03l.2.06c-.02.01-.05.01-.1.02h.16l.35.1c.48.02.54-.1.8-.12l.35.07c.13 0 .26 0 .4.01.25.03.56.05.27.1l.33.03.16.01.03.01c.04.01.1 0 .14 0 .04.02.05.07.08.1.02.04.01-.01.07.12l.15.32c.4.85.82 1.78 1.08 2.9.37.4.64 1.5.9 1.8-.06.05.7 2.15.1 1zm3.44 44.57h-.08c-.62 0-1.16 0-1.38-.08 0 0-2.32-.08-2.85.1.47-.12-.8-.16-.45-.3-.6.13-2.38.24-3.1.1h.13c-2.63-.14-4.5.2-6.85.02.1.14-1.14.07-.83.25-.2.01-.38.01-.57.01l-.98-.03c.2-2.04.38-4.06.45-6.02.05-.23.04-.85.01-.85l.13-1.48.3-2.85 1.73.02-.06-.1c.33-.01.68-.01 1.03-.01.25.01.5.01.7.01a19.54 19.54 0 0 1 1.48.09c.33-.1.9-.13 1.4-.14.38.01.78.02 1.25.06l-.03.04a15.91 15.91 0 0 1 1.3-.11c.22.02.2.06-.34.13-.13.02-.36.01-.35-.02l-.18.12c1.54.23 2.8-.13 4.34-.1-.38-.03-.85-.03-.77-.08l1.33.05-.1.03 2.12.06-.3-.13c.52.03.87.1 1.23.14a5.28 5.28 0 0 0 .59.03h.08l.04-.01c.02-.01.05-.03.08-.05.06-.04.05-.07.04-.1.08 0 .16 0 .24-.01l-.03.28c-.01-.01 0 .26 0 .45 0 .2.01.4.01.6.01.82.04 1.67.07 2.46.13-.17.16.3.22.8l-.12.07c.3 1.86-.23.7.04 2.55l.2.3c.36 1.66-.2.92.27 2.76-.07-.74.25-.35.26.53-.04-.05-.1-.14-.13-.2.03.3.05.25.07.34.02.06.03.1.02.17-.07-.14-.18-.12-.15.08-.06-.1-.1-.16-.17-.22.03.05.07.1.1.18-.01.02-.04.04-.06.06l-1.42-.01zm-26.74 50.2c-.38.52-.7 1.1-1.07 1.62l-1 1.33c-.01.01-.02.03-.03.04a18.01 18.01 0 0 1-3.58 2.97h.05c-.07.04-.13.08-.2.12-.13.14-.3.33-.53.47-.13.08-.3.16-.43.24l-.1-.05c-1.37.83-1.7.86-2 .9-.17.01-.32.05-.66.16-.44.1-.85.25-1.24.4l.07-.05-.07.05c-.35.13-.7.27-1.06.4-.85.26-1.7.54-2.64.75.54-.1 1.22-.26.9-.1h-.07c-.36.01-.74.1-1.7.34l.3-.13-2.7.32.4.07c-.57.06-1 .06-1.4.05.6-.23 1.1-.5 1.33-.66-.55.35 1.1-.27.7.04.37-.18 1.05-.66 1.78-1.08.36-.22.74-.4 1.06-.62a8.59 8.59 0 0 1 .82-.52l-.14.12c.77-.5 1.47-1 2.03-1.6.6-.56 1.15-1.1 1.6-1.73.97-1.18 1.73-2.43 2.57-3.82-.2.06.64-1.43.28-1.13.36-.75.58-1.5.88-2.18.3-.68.52-1.32.72-1.9.42-1.17.63-2.12.48-2.75.32-1.44.5-1.68.67-2.43l-.03.35c.47-2.73.52-3.53.8-5.55.06-1.02-.18-1.2.1-3 .04.6.1-.14.18-.82-.03.43-.01.57.16-.3-.02-.13-.02-.32-.01-.5.01-.01.02-.04.03-.02.1-1.13.03-.94-.04-.42-.01-.03-.04.01-.1.17.27-1.15.34-3.26.53-3.4.3-3.4.36-5.84.56-8.67.12-.3.14.36.1 1.18l.16-2c.13.03-.03 1.16-.07 1.78.45-2.36.25-4.94.7-7.7l-.05-.6.03-.17c-.06 0-.08-.63-.06-1.05.15-.38.27.05.38-1.33.2-1.08.22-3.12.3-4.55-.1.77-.13.52-.14.18.06-.7.2-1.08.2-1.62l.16-.05c-.17.26 0-1.82-.04-2.08.15-.38.01 1.08.08 1.26l.34-4.17c.01-1.5-.17.26-.25-.46.08-1.3.08-2.6.3-4.1l-.18.46c.1-2.47.24-3.93.52-5.58.1-4.46.07-6.98-.02-8.25l4.67.42.1.12 3.8.32-1.28-.14c.06-.04.2-.05.36-.05l.76.12a4.88 4.88 0 0 1 .52.13l-.1.04c.26-.04.14.22.13.37-.01.1-.03.2-.04.28l-.06.58-.2 2.13c-.1 1.34-.15 2.54-.14 3.8-.32.37-.28 2.98-.45 3.82l-.02-.08c.03 2.23-.57 4.54-.56 6.7-.02-.08-.1-.14-.05-.63-.1 1.56-.22 3.68-.4 3.8l-.7 8.5c-.05.44-.1 1.04-.12 1.97l-.3 1.32c-.17 1.47.1 1.07-.13 2.7-.1-.1-.3 2.05-.3 1.1-.52 3.67-.5 7.5-1.32 12.32.08 1.07-.3 3.5-.26 4.3-.1.12-.62 4.87-.48 2.12.01-.24.07-.65.1-.62l-.08-.34c-.56 2.73-.5 5-1.1 7.64.22-.77.4-1.83.34-1.1-.17.82-.34 1.64-.55 2.45l.03-.53c-.32 1.2-.64 2.4-1.06 3.55l.28-.44c-.63 1.7-1.06 2.2-1.78 4.07-.33.85.94-1.42.1.27-.04.08-.1.16-.14.24-.2.3-.4.55-.25.2zm26.03-63.4h-.1c-.5 0-.9-.01-1.08-.08 0 0-2.22-.08-2.73.1.45-.12-.78-.16-.43-.3-.57.13-2.27.24-2.95.1h.13c-2.52-.14-4.3.2-6.56.02.1.14-1.1.07-.8.25-.18.01-.36.02-.54.02h-.13l.44-5.7.18-2.53c.07-.18.07-.3.02-.38 0-.01-.01-.02-.02-.02-.17-.2-.68-.1-.98-.17l-1.4-.12-3.4-.26-5.97-.43c-.05 0-.1-.01-.17-.01l.23-1.3c1.24-.16 3.24.01 4.6-.16l.56.12c.5-.06 1.08-.1 1.58-.04l-.03.03c.74-.1 1.58-.04 1.95-.08l-.03.04.9-.02-.15.05c1.3-.1 2.63-.1 3.8-.06l-.07-.1c.72-.01 1.48.01 2.3.1.3-.1.86-.13 1.35-.14.6-.01 1.22-.01 2.02.06l-.03.04c.17-.02.33-.03.5-.05a3.75 3.75 0 0 1-.39.07c-.13.02-.35.01-.33-.02l-.18.12c1.48.23 2.7-.13 4.15-.1-.43-.04-1-.03-.63-.1h.12l1.12.06-.16.06 2.03.06-.2-.1c.08 0 .16 0 .24-.01l.86.1a4.95 4.95 0 0 0 .52.03c.03 0 .06-.02.14-.07.05-.02.06-.04.06-.06h.2c0 .04-.01.1-.01.13-.01.1-.02.1-.02.24 0 .2.01.43.01.64l.1 2.63c.13-.17.16.28.23.75l-.12.06c.3 1.77-.22.68.05 2.43l-.1-.15.3.45c.37 1.58-.2.88.28 2.63-.08-.7.25-.35.26.52l-.14-.2c.07.54.1.48.1.63-.07-.13-.18-.08-.15.1-.06-.08-.1-.14-.17-.18.05.06.15.2.15.3-.44.02-.86.02-1.3.02zm-42.42-16c.9-.33.98-.53 2.6-1.03-.5.23.15 0 .76-.2-.38.14-.5.2.3-.02.1-.06.27-.12.43-.2.01 0 .04 0 .03.01 1-.36.82-.32.35-.17.02-.02-.02-.02-.17.02.27-.07.58-.16.9-.26.26-.1.6-.12.92-.16.05 0 .1-.01.14-.01l-.17 1.25-.42 3.3a6.19 6.19 0 0 0-.05.45l-6.2.2c-2.7.17-5.62.02-8.56-.1 1-.3 1.8-.58 2.23-.9 1.3-.45 1.56-.43 2.24-.64l-.3.12 4.94-1.66zm-1.65 4.7a.62.62 0 0 1 .1.03c-.07-.01-.14-.02-.2-.02.04 0 .07 0 .1-.01zm4.15-.06l.06.1 2.15-.03-.8-.02c.17-.2.75-.08 1.53-.01l-.1.83-6.82-.78c1.1-.17 3.12-.02 3.98-.1zm5.32-5.78c.1-.12.18-.45.25-.9 2.8-.06 5.1-.24 7.4-1.38.24-.08-.06.14-.57.38.32-.13.63-.3.93-.46 0 .03-.01.05-.01.07-.34.2-.8.42-1.12.53a7.2 7.2 0 0 0 1.12-.47c-.16 1.5-.34 2.7-.6 3.96l-.33 4.54c0 .04-.01.07-.01.1l-.06 1.17c-2.5-.17-5.07-.42-7.7-.7.38-2.67.6-4.7.7-6.86zm9.02-4.8h0c-.01 0-.15.1 0 0zm-.01 0v.06l-.02-.03-.01-.01c.02-.01.03-.02.03-.02zm.28-.22c.02-.02.03-.02.06-.04h0v.02h-.04zm24.97 9.17c-.1 0-.17 0-.25-.01-.22-.01-.4-.03-.5-.07 0 0-2.14-.08-2.63.1.43-.12-.75-.16-.4-.3-.55.13-2.2.24-2.84.1h.12c-2.42-.14-4.14.2-6.32.02.1.14-1.05.07-.77.25-.33.03-.65.03-.96.04l-1.65-.06-.28-.15c-.12-.2-1.74.32-2 .12l-.74.1c-.2-.04-.64-.08-.28-.13-.68-.01-.7.03-1.2.1l-.73-.13c-1.46-.06-2.8-.01-4.17.04.45-2.84.74-5.26.97-7.76.07-.1.15-.17.2-.28.18-.32.4-.77.23-1.27a44.97 44.97 0 0 0 .72-.68c.3-.27.72-.64.93-1.2.06-.2.06-.43.03-.65a1.34 1.34 0 0 0 .2.01l-.03.04c1.05-.15 1.92-.14 2.76-.1l.16.04a1.78 1.78 0 0 0 .34-.01c.58.04 1.17.08 1.8.08 1.84.13 3.75-.24 6.16.04.54-.2 1.8-.08 2.2-.24.07.1 2.52.01 1.1.2-.12.02-.34.01-.32-.02l-.17.12c1.42.23 2.6-.13 4-.1-.42-.04-.97-.03-.6-.1l.73.01.3.03h.2l-.2.08 1.95.06-.27-.13c.48.03.8.1 1.14.14l.1.01.02.01c.01.01.02.01.04.01.03 0 .06-.02.15-.07.04.01.08-.08.06-.1h.12v.3l.15 1.16c.08.8.1 1.7.16 2.52.13-.17.17.27.24.7l-.12.07c.34 1.7-.2.66.1 2.34l.2.28c.4 1.5-.18.85.33 2.53-.1-.67.24-.34.27.5l-.14-.2c.07.46.14.6.14.9-.05-.13-.1-.17-.12-.08-.01.04-.02.1-.02.22.01.14 0 .17.01.2-.03-.02-.05-.04-.08-.06-.03 0-.06-.13-.1-.18l.04.16c.01.04.02.03.03.05.02.02.04.05.06.08.04.06.1.14.13.24-.01.02-.01.04-.02.06h-.7zm-97.25 20.32c-.05-.03-.12-.05-.1-.06-.5.03-1.2-.04-1.9-.12-.68-.1-1.32-.3-1.72-.32l-.03-.12c-.64-.1-1.26-.3-1.87-.48l.68.24c-.32.2-1.37-.54-2.7-.95-.3-.14-.62-.22-.95-.32-.32-.1-.65-.2-1-.3-.68-.17-1.34-.44-1.87-.9-.64-.25.62.13-.27-.32.07-.15.44.17.3-.07-.43-.22-.7-.5-1-.8-.3-.3-.66-.57-1.1-.95l.05-.12a7.62 7.62 0 0 1-.86-.72c-.25-.25-.45-.54-.65-.8-.42-.5-.72-1.02-1.1-1.37-.52-.6-.53-.9-.6-1.17-.06-.28-.2-.5-.62-1.2l-.1-.63c-.22-.63-.35-.38-.52-1.12.08.02-.13-.93.05-.53l-.4-2.66c-.05-.48-.1-.98-.13-1.5a13.75 13.75 0 0 1 .1-1.65c-.16-.5.01-1.66-.06-2.04.08-.06.42-2.26.37-.96 0 .1-.04.3-.07.28l.1.17c.43-1.2.4-2.28.93-3.44-.18.33-.35.8-.3.45.16-.36.28-.74.5-1.06 0 0 .36-1.77 1.77-4a13.25 13.25 0 0 1 .95-.87c.14-.25.27-.47.3-.6-.26.58.76-.8.6-.32.18-.37.6-1.04 1.1-1.7.5-.64 1-1.26 1.4-1.55l-.1.14c2.5-2.45 4.22-4.36 6.78-6.3-.2-.02 1.16-1.04.7-.92 2.47-2.25 5-3.48 5.62-4.66 1.2-.94 1.52-.98 2.17-1.42l-.27.24a113.46 113.46 0 0 1 4.68-3.43c.84-.65.82-.97 2.4-2-.45.43.18-.02.77-.42-.36.27-.46.38.35-.1.1-.1.25-.23.4-.35.01 0 .05-.01.04.01.96-.7.77-.6.3-.3.01-.03-.04-.02-.2.05 1.1-.58 2.84-1.9 3.07-1.85l7.5-5.1c.33-.1-.22.33-.93.82a57.69 57.69 0 0 1 1.77-1.12c.06.13-1 .68-1.53 1.05 2.24-1.13 4.3-2.86 6.96-4.1l.48-.38.16-.07c-.03-.05.5-.42.88-.64.42-.08.1.23 1.38-.4.54-.2 1.26-.56 2-.97l2.24-1.1c-.75.3-.53.14-.23-.04.66-.3 1.1-.33 1.6-.56l.12.12c-.32-.03 1.7-.82 1.94-.93.2 0-.05.1-.37.23s-.72.3-.8.38c1.34-.52 1.7-.55 2.04-.68.35-.08.68-.25 2.07-.57 1.47-.43-.3-.1.38-.37 1.3-.35 2.62-.6 4.18-.63-.17-.05-.33-.1-.5-.1 2.55-.22 4.12-.06 5.75.47.58.12 1.14.2 1.66.32l1.43.47c.92.25 1.63.7 2.3.97.32.16.64.28.9.44l.72.44a27.83 27.83 0 0 0 1.09.64c1.15.66 1.15.5.7-.06-.5-.52-1.5-1.5-2.47-2.16l-1.87-1.18c-3.63-1.88-6.9-2.2-10.1-1.95-.25.02-.5.06-.76.1.05-.01.1-.03.14-.04.35-.1.67-.2.43-.23.83-.23 1.64-.4 2.4-.44.77-.07 1.48-.13 2.14-.1.65.01 1.24.01 1.74-.03.5-.01.9-.06 1.23-.2.8 0 1.25.14 1.62.2l1.03.25-.37-.04 1.83.34 1.35.37c.4.1.77.28 1.18.43l.63.25.67.34c.5.22.82.27 1.2.45.2.1.4.2.68.34.28.14.6.35.96.68-.56-.3.08.17.65.62-.38-.27-.5-.35.17.32.12.07.28.2.42.32 0 .01.02.04 0 .04.88.82.76.65.37.25.03.01.01-.04-.1-.18.43.47.96 1.16 1.42 1.74.44.6.72 1.13.7 1.23.12.2.25.38.37.56l.3.58.58 1.1c.3.75.62 1.45.86 2.17.2.73.46 1.42.6 2.15.13.73.32 1.46.4 2.23-.06.36-.2-.36-.4-1.23.06.36.14.72.18 1.08l.1 1.1c-.15-.01-.14-1.26-.3-1.9.14 2.57.6 5.38.32 8.5l.1.65-.02.2c.06-.01.1.7.1 1.16-.14.44-.27-.04-.33 1.5-.18 1.2-.13 3.47-.2 5.08.1-.86.13-.58.14-.2a4.04 4.04 0 0 1-.04.38c-.1.01-.18.01-.28.02-1.42.24.27.05-.4.22-1.24.17-2.4.5-3.8.7h.45c-1.13.25-2.04.4-2.86.5-.18.03-.37.04-.52-.04-.16-.08-.24-.25-.26-.42-.04-.3.05-.7.16-1.06.14-.57.23-1.1.3-1.63.05-.1.1-.23.14-.34.12-.23.3-.87.27-.87.88-2.16 1.6-4.5 1.98-6.85 0 0 .1-.54.2-1.44.1-.9.2-2.17.1-3.62-.1-2.9-1.2-6.48-2.9-8.67-.2-.27-.4-.54-.6-.8l-.6-.65c-.37-.42-.74-.72-1.04-.95-.6-.47-.92-.62-.83-.38.04.12.18.35.43.7l.46.6.56.84c.8 1.27 1.97 3.26 2.43 6.3l-.08-.15c.37 1.78.42 3.27.4 4.62 0 1.35-.12 2.56-.22 3.84-.17.17-.34.9-.52 1.7.34.16.9.7.47 2.53l-.33 1.43a41.41 41.41 0 0 1 .22-1.28c.12-.63.15-1.16.08-1.58s-.26-.7-.44-.78c-.06-.04-.1-.05-.16-.06.13-.2.16-.27.04-.22-.06.03-.17.1-.32.23h-.02c-.15.02-.22.04-.25.06s.02.05.1.08c-.28.25-.67.64-1.15 1.22-.44.53-.93 1.25-1.5 2.13-.28.42-.6.93-.95 1.34-.43.34-.98.84-1.5 1.32l.1-.13c-1.2 1.2-2.17 2.26-3.1 2.84a42.01 42.01 0 0 1-3.1 1.62c-.4 0-2.6.92-3.4 1.06l.07-.03c-1.95.7-4.15.9-6.1 1.33.07-.03.1-.08.56-.15-1.43.27-3.4.56-3.5.48-3.83.26-5.3 1.6-4.26 1.55 3.62-.2 7.3-.56 10.65-1.42a4 4 0 0 0 .77-.21c2.05-.48 4.08-1.06 6.05-1.88 0 0 .45-.18 1.17-.53a27.57 27.57 0 0 0 1.25-.66c.2-.12.5-.27.76-.47.26-.2.5-.4.74-.6.95-.87 1.85-1.93 2.8-2.87l.36-.35.18-.17c.05-.04.2-.2.24-.27.2-.3.38-.6.55-.88l.9-1.64c.66-1.18 1.3-2.05 1.67-2.54.01 0 .03.01.04.01-.01.04.17.14.2.46.05.32-.01.8-.12 1.23l-.33 1.26-.13.55c-.18.8-.32 1.54-.46 2.22a12.02 12.02 0 0 1-.23.95c-.1.37-.2.7-.23 1.14-.02.18-.02.6.06.88.1.3.27.58.52.76.26.17.55.28.87.26.15.02.32-.01.48-.04-.02 0 .01 0 .06-.01l.12-.02c.65-.08 1.3-.2 1.92-.32 1.26-.24 2.53-.57 3.87-.77.66-.1 1.37-.17 1.98-.07.6.13.9.4 1 1.1v.06.02c.02.14.04.2-.02.33-.02.12-.45.32-.77.5-.32.2-.63.43-.64.55-.03.13.13.15.24.16h.1c.05 0-.03.03-.04.04a.85.85 0 0 0-.14.09c-.05.03-.03.07-.05.1.07.04.05.08.2.12.1.04.26.06.43.1.17.02.33.07.52.07.47-.06.62.1.6.1.02.03.05.07.07.13a1.35 1.35 0 0 1 .07.44c-.01.1 0 .18-.02.2l-.06.27a3.12 3.12 0 0 1-.18.49c-.03.07-.07.12-.1.18-.9 0-1.7.05-2.5.08l-.22 2.12c.65-.02 1.23-.05 1.9-.05a.22.22 0 0 1 .01.08.68.68 0 0 1-.03.19c-.04.13-.14.3-.28.44l-1.3 1.16-.06 1c-.03.01-.05.02-.07.02l-.01.04c-.01.05-.06.16-.14.28-.18.25-.48.52-.84.78-.7.5-1.63.92-2.78 1.2-1.62.37-3.36.4-5.18.4-.46.01-.93.03-1.4.07l-.7.07-.36.05-.24.05-.2.07-2.5.84c-1.5.63-4.28 1.42-6.08 2.13l-.73.17c-.62.24-1.35.5-2 .7l.03-.03c-.93.36-2 .7-2.46.87l.03-.03-1.14.4.2-.1c-1.63.6-3.32 1.16-4.82 1.63l.15.04c-1.8.54-2.95.95-4.1 1.36a16.86 16.86 0 0 1-.25-1.45c-.12-.37-.4-.38-.44-1.07.14.2.08-.07.03-.32.04.16.1.2.1-.14-.04-.04-.07-.1-.1-.17.01 0 .01-.02.02-.01-.1-.4-.13-.34-.1-.14-.02-.01-.04.01-.05.08.06-.46-.2-1.2-.04-1.3-.25-1.26-.58-2.13-.83-3.17.07-.13.2.1.28.4l-.16-.74c.13-.02.15.42.2.64.07-.92-.52-1.8-.5-2.87l-.14-.2.01-.06c-.05.01-.17-.2-.2-.36.1-.17.27-.03.17-.55.04-.43-.25-1.15-.4-1.67.03.3-.05.2-.1.1-.05-.26.04-.42-.04-.62l.15-.05c-.13.13-.27-.65-.35-.73.1-.17.17.38.26.43l-.28-1.55c-.2-.53-.13.12-.3-.12-.1-.48-.3-.94-.3-1.5l-.1.2c-.26-.9-.33-1.45-.3-2.1-.45-1.32-.8-2.15-1.04-2.66.44-.2.4-.4-.43-.6-.04-.02-.07-.03-.1-.02-.56-.13-1.43-.26-2.73-.4l.06-.05c-.7.01-1.25.02-1.75.08a7.76 7.76 0 0 0-.72.11l-.47.12-.04-.24c-.02-.06 0-.18-.06-.2l-.23.01-1.83.12-1.1.1c-1.17.3-3.27.3-4.64.64l-.55-.06c-.47.1-1.03.23-1.52.22l.03-.04c-.7.18-1.52.24-1.87.33l.02-.04-.87.14.14-.07c-.7.16-1.4.3-2.08.4l.1.01s-9.98 2.47-10.15 3.07 10.5-1.2 10.5-1.2h-.01c1.73-.3 3.18-.13 3.78-.7.97-.16 1.17-.01 1.68-.05l-.23.06c1.82-.27 2.35-.32 3.7-.45.67-.12.76-.4 1.98-.43-.4.14.1.08.57.04-.3.04-.38.08.23.1l.2-.1c0 .01.01.01 0 .03.12-.02.18-.04.22-.05.04.28.06.55.1.82.02.43.03.85.2 1.24-.03-.03-.1-.03-.14-.2.13.57.32 1.36.16 1.43.27 1.38.5 3.32.9 4.16l-.06-.05c.26.48.13.65.3 1.2-.02.03-.02.08-.03.07.26.52.28 1.6.43 2.03l-.1.05.2 1.1-.04-.4c.33.1-.06.86.27 1.62.01.1.04.22.08.32.03.7.3 1.76.5 2.64 0 .3-.01.58.12.97l-.12.05c.36.83.1 1.67.4 2.2.24.88-.27.66.12 1.56l-.1.4c.04.4.25.25.24.7-.1-.01.01.57-.13.33 0 1.03.56 2 .5 3.36.25.25.24.94.42 1.13-.08.05.2 1.34-.1.62-.03-.06-.04-.18-.01-.17l-.14-.07c-.1.8.34 1.35.43 2.1 0-.23-.05-.52.06-.34l.1.7-.12-.13.1 1.04.1-.16c.02.52-.17.73.1 1.27.14.24.1-.5.22.02.03.43.08 1 .15 1.64-.96.16-2.57.5-5.08 1.05l.1-.08c-2.36.66-3.84 1.1-5.4 1.8-.33-.2-1.95.52-2.52.6l.05-.04c-1.4.6-3.02.6-4.37 1.1.05-.03.06-.12.38-.2-1 .27-2.4.63-2.5.5-1.22.27-2.7.53-4.03.76-.67.1-1.3.13-1.9.2l-1.47.2.1-.04c-.8.13-1.06-.02-2.07.05zm32.3-7.56l.28.18c-.63.08-.22-.24-.8-.05l.05.2c-1 .2-1.13-.08-1.24-.2-.01-.13-.03-.24-.05-.35l-.23-1.22-.53-2.64c-.35-1.76-.67-3.5-.76-5.12l.12-.17c.2-.1-.46-.84-.28-1l-.16-.36c.02-.1.03-.34.1-.16-.05-.35-.08-.35-.2-.6l.07-.4c-.12-1.38-.56-2.5-.74-3.95-.01-1.77-.78-5-1.22-6.84-.74-2.58-.4-5.8-1.18-8.4.03-.03-.05-.1-.08-.1l-.04-.36h.45c-.05.01 3.4-.3 5.2-.7-.02.58.04 1.24.04 1.24.14 2.73.77 4.05 1.4 7.23.4 2.82.25 3.6.84 6.5.2 1.4.52 2.86.77 4.22.32.6.3 1.78.6 2.5l-.07.32c.1.25.2.55.17.83l-.04-.01c.15.38.17.83.25 1.02l-.04-.01.1.47-.06-.07c.2.67.33 1.37.4 2l.13-.08c.06 1.36.44 1.8.45 3.02l-.04-.01c.23.52.3 1 .35 1.44.01.25-.06.27-.06.38-.1.01-.13.04-.23.17.04-.06-.05-.07-.05-.1-.67.2-1.45.4-1.4.68-.52.12-.44.01-.53-.08.03.12-.4.28-.8.38l.17-.1-1.1.3zm-8.6-31.62c-.02 0-.04 0-.07-.01.01-.02.01-.04-.05-.06.03.01.07.01.1.01.01.02.01.04.01.06zm15.13 105.03c-1.08.06-4.26-.15-5.5-.46h.24c-4.63-.7-7.97-.95-11.98-2.16.15.2-1.96-.47-1.5-.15-4.26-1-7.23-3.04-8.85-3.25-1.73-.92-1.95-1.26-2.76-1.85l.4.23c-1.54-.96-2.43-1.73-3.22-2.4-.78-.7-1.42-1.38-2.27-2.4-.82-1.04-1.26-1-2.34-3.18.47.63-.05-.2-.4-1.04.25.52.36.66-.06-.44-.1-.14-.2-.38-.3-.6 0-.01-.01-.06.01-.04-.54-1.4-.45-1.16-.27-.48-.03-.03-.03.03.02.25-.2-.76-.5-1.8-.68-2.7-.17-.9-.28-1.65-.2-1.75-.3-2.25-.38-4.22-.36-6.1.03-1.88.14-3.68.34-5.6.15-.42.1.5.03 1.6l.28-2.73c.13.04-.1 1.57-.18 2.4.57-3.2.66-6.72 1.4-10.5v-.8l.05-.22c-.06 0-.01-.86.06-1.43.2-.52.26.08.54-1.8.33-1.47.6-4.24.83-6.2-.18 1.05-.2.7-.16.24.14-.94.34-1.47.4-2.2l.13-.05c-.1-.15.26-2.53.25-2.86.2-.52-.13 1.48-.08 1.73l.87-5.67c.2-2.03-.2.34-.2-.64l.15-1.13c1.02-.03 2.06-.04 3.07-.2 2.64-.3 5.27-.76 7.63-1.54.16-.01.55-.18.54-.2a128.26 128.26 0 0 0 4.38-1.18s1.32-.38 3.03-.94 3.8-1.32 5.37-2a19.96 19.96 0 0 0 1.26-.58l.03.27a47.96 47.96 0 0 0 1.89-.36c-.14-.1.3-.2.65-.32l.06.1c.86-.38.4.2 1.26-.15l.12-.2c.75-.43.5.15 1.32-.4-.35.1-.23-.23.22-.28l-.08.14c.24-.08.3-.15.47-.16-.13.1-.04.2.3.08l-.2.2.62-.37c.27 0 .6-.08.9-.16.48-.12.94-.22 1.18-.2 0 0 .53-.1 1.1-.24-.1-.56-.23-1.2-.36-1.42.2.43.05-.68.24-.36-.05-.12-.13-.4-.18-.54-.05-.12-.1-.27-.13-.4-.07-.3-.12-.6-.08-.78l.03.06c-.07-1.3-.55-2.16-.57-3.34-.13.08-.16-.54-.3-.36-.38-1.16.01-2.23-.62-2.57-.01-.04-.01-.06-.01-.1l3.1-1.07c1.76.2 3.5.46 5.2.5-.12.01-.2.1-.86.03 2.13.16 5.05.36 5.2.55 5.1.42 12.2 1.16 15.48 1.2l-.23.03c1.87-.01 2.4.2 4.5.3.1.03.26.06.23.06.63 0 1.44.06 2.3.13-.32 1.56-.63 4.32-.63 4.32-.9 7.18-.82 10.93-1.47 19.5-.74 7.53-1.2 9.5-1.83 17.3l-1.1 11.32c.03 1.75-.54 4.75-.68 6.77l-.26.75c-.07.7-.15 1.5-.37 2.17l-.02-.05c-.16 1.02-.44 2.16-.56 2.65l-.02-.05-.34 1.2.01-.22c-.4 1.75-1.12 3.44-1.9 4.83l.2-.05c-.9 1.46-1.5 2.44-2.22 3.3l-.5.66c-.18.22-.4.4-.62.6l-.7.64-.4.34c-.15.1-.3.2-.47.3l.01-.05c-.72.64-1.4 1.2-2.14 1.57-.72.4-1.4.76-2.16 1-1.46.57-3 .96-4.94 1.6.5-.14-.23-.03-.2-.07-.92.18-1.87.43-2.6.56s-1.24.27-1.24.4c-1.38.15-1.13.04-1.32-.05.01.1-.44.17-1.05.23-1.33-.05-.43-.32-2.53-.3l.22-.08-.66.22c-.3-.05-.56-.1-.28-.14zm62.82-32.08c-.04-.16-.1-.2-.12-.1-.01.03-.02.18-.03.22s-.01.08 0 .14a.55.55 0 0 0-.16-.15c.06.07.2.28.2.46-.3-.06-.22-.06-1.14-.05-.7 0-1.28 0-1.53-.08 0 0-2.57-.08-3.16.1.52-.12-.9-.16-.5-.3-.67.13-2.64.24-3.42.1l.15-.02c-2.92-.14-5 .2-7.6.02.12.14-1.26.07-.92.25-1.96.13-3.65-.12-4.82-.05.34-3.34.63-6.98.83-9.9l.06-.53.2-.5c.15-.13.1-1.43.12-2.48a17.71 17.71 0 0 1 1.03-.03l.95-.01 1.47.02-.05-.07 1.1-.03a23.96 23.96 0 0 0 1.2 0 20.85 20.85 0 0 1 1.89.1c.3-.1.78-.12 1.25-.13.28.01.57.03.9.05l-.03.04c.72-.1 1.37-.12 2-.12.46.02.67.05-.1.14-.15.02-.4.01-.4-.02l-.2.12c1.7.23 3.1-.13 4.8-.1l-.5-.03a20.9 20.9 0 0 0 1.12 0l-.1.03 2.35.06-.23-.1c.1 0 .18-.01.28-.01l1 .1a6.46 6.46 0 0 0 .65.03c.06 0 .1 0 .18-.01l.03-.01c.03-.01.06-.03.1-.05.08-.05.06-.1.01-.13-.01-.01-.02-.01-.02-.02a2.46 2.46 0 0 0 .28-.02c.01.01.02.01.02.02a1.64 1.64 0 0 0-.02.23l-.01.1c0 .02 0 .02-.01.06v.18l.01.75.07 3.05c.13-.2.16.34.22.87l-.12.07c.3 2.06-.23.78.03 2.83l.2.35c.35 1.84-.2 1.02.26 3.06-.07-.8.25-.4.26.6l-.13-.25c.04.55.1.74.1 1.1zm-1.07-15c-.01 0-.01-.01-.02-.01-.01.02-.1 0-.2.01a.2.2 0 0 0-.02-.15c0 .05-.05.1-.14.16l-1.08.01c-.98-.01-2.03.04-2.37-.08 0 0-2.4-.08-2.95.1.48-.12-.84-.16-.46-.3-.62.13-2.46.24-3.2.1l.14-.02c-2.72-.14-4.65.2-7.1.02.1.14-1.18.07-.86.25-.1.01-.2.01-.3.01l-1.2-.04-.32-.15c-.04-.07-.26-.06-.55-.03l.01-.43c.07-.38.2-1.2.18-.5.13-1.28.1-1.3.12-2.23l.26-1.36a123.86 123.86 0 0 0 .46-5.07l.13-1.1c.2-.01.42-.02.63-.02.1 0 .18 0 .27-.01l1.8.02-.06-.08.9-.02c.38.01.72.01 1.05.01.5.01 1.03.04 1.6.1.33-.1.88-.13 1.4-.14.37.01.76.02 1.2.06l-.03.04c.53-.06 1-.1 1.47-.1.25.02.27.06-.32.13-.14.02-.38.01-.36-.02l-.2.12c1.6.23 2.9-.13 4.5-.1-.37-.03-.84-.03-.8-.07l1.37.05-.08.03 2.2.06-.3-.13c.54.03.9.1 1.28.14a5.66 5.66 0 0 0 .61.03c.06 0 .1 0 .17-.01.06 0 .13-.01.12-.01.02-.01.05-.03.08-.05.06-.04.05-.07.02-.1.1 0 .2-.01.28-.01 0 .04-.01.1-.01.12-.01.06-.02.13-.03.2-.01-.01 0 .2 0 .28v.35l.07 2.85c.13-.18.16.3.22.82l-.12.07c.3 1.93-.23.73.03 2.64l.2.33c.35 1.72-.2.95.26 2.85-.03-.38.03-.47.1-.35.04.06.07.17.1.33.02.08.04.17.03.27-.04-.05-.1-.1-.13-.13.02.12.05.2.06.3-.04-.03-.07-.03-.1-.03zm41.17-54.18c-.7 1.3-.66 1-.85 1.13.1.05-.47 1.2-1.04 2.2l.22-.5-1.64 2.87.54-.44c-.96 1.47-.48.23-1.3 1.7l.18.08c-1.3 2.05-2.33 3.08-3.76 4.94-2.76 4-5.76 8.06-9.1 11.68-1.72 1.75-3.45 3.48-5.4 4.8-1.93 1.33-4 2.4-6.1 2.96-.13 0-.27-.02-.4-.03-.1-.08-.66.14-1.25.37-.57.26-1.22.37-1.4.32l-1 .24c-.3 0-.9-.03-.4-.1-.94.04-.96.07-1.64.17-.34-.02-.68-.1-1.02-.15-1.83-.1-3.54-.28-5.27-.54 0-.07 0-.13.01-.2l-.23-3.46h-.3c-.02-.65.06-.52.14-.64-.12.01-.24-.88-.3-1.68l.08.37-.22-2.3-.2.47c-.03-1.23.26-.33.12-1.5l-.2.03c-.1-1.7.13-2.7.14-4.36l-.1-1.3-.01-.08h.1c.03-.04-.01-.13-.01-.2-.04-.26-.07-.52-.1-.76a15.84 15.84 0 0 0-.12-.69l-.02-.2-.01-.14c-.01-.02-.03-.02-.05-.02-.07-.3-.15-.47-.22-.47-.1-1.04.01-.83.1-.98-.12.02-.26-.84-.34-1.6l.08.35-.26-2.2-.2.46c-.05-1.18.26-.33.1-1.45l-.2.03c-.12-1.63.08-2.6.07-4.2-.03-.4-.14-.83-.2-1.25l-.34-1.77c.05-.4-.08-.57-.28-.65l-.23-1-.3-1.14c-.2-.76-.45-1.5-.7-2.25-.5-1.5-1.02-2.94-1.56-4.35l-.8-2.1c-.02-.06-.04-.1-.07-.16h.27c.05 0 .13.01.16-.01l-.24-.48-.65-1.27c-1-2-1.34-2.54-1.96-3.7a18.4 18.4 0 0 0-1.19-2.32 38.96 38.96 0 0 0-1.15-1.84l7.57 4.75c3.36 2.17 5.5 3.54 7.77 4.82 1.14.63 2.3 1.26 3.8 1.83.38.14.8.27 1.26.4.24.05.5.1.8.12a4.97 4.97 0 0 0 .55 0c.2-.04.4-.06.6-.13.2-.06.4-.16.55-.28l.33-.24c.2-.15.42-.3.6-.45.4-.32.8-.65 1.18-1 2.64-2.33 5.06-5 7.32-7.57l1.35.9c.55.36 1.07.66 1.46.77l-.07.01c.46.1.47.3.92.5.01.03.03.06.02.07.5.12 1.14.76 1.5.92l-.04.1.78.5-.27-.22c.27-.18.47.56 1.14.8.5.4 1.42.22 1.88.72.34.06-.36.03.1.2-.08.14-.24-.04-.2.13.42.2.53.57 1.06.8l-.05.12c.74.24 1.06.94 1.6 1.04.7.35.2.6 1 .85l.16.32c.27.22.32-.03.58.25-.08.07.34.34.1.3.6.63 1.56.8 2.33 1.68.32-.03.72.4.95.37-.03.1.93.66.3.46-.05-.02-.13-.08-.1-.1l-.13.06c.4.56 1.03.57 1.54.96-.13-.14-.34-.28-.16-.25l.48.35-.16.01.7.55-.03-.17c.32.3.32.57.82.7.24.04-.24-.37.16-.15l.76.7c.08.07.17.14.26.2-.66 1.35-1.2 2.48-1.03 2.6zm15.84-56.8c-.2 1.2-1.12 1.6-3.63 1.6-1.68.07-3.1-.5-3.64-1.1-.2-.2-.27-.43-.24-.63v-.01c.12-.9 1.82-1.28 2.97-1.28a4.61 4.61 0 0 1 .39.02l.25.02.9.1c.2.07.38.13.58.18.42.1.9.2 1.37.2.43.14.8.3.97.55.08.1.1.2.08.35zM328 82.7l.1-.03c-.01.03-.02.06-.02.1l-.07-.07zm1.87-5.58c-.25.82-.67 1.34-1.7 1.35-.56-.17-1.2-.28-1.88-.37-1.55-.58-2.64-1.8-2.47-2.5a.77.77 0 0 1 .45-.53c.66-.3 1.85-.1 2.46.17.2.1.48.18.82.28 1.3.4 2.54.87 2.3 1.6zm-10.8 13.35l-4.52-.27c.02-.06.03-.12.03-.17l.07.01.1-.4-.05.15c-.16-.1.2-.28.14-.6.1-.27-.24-.65-.1-.9-.05-.16.1.15.1-.07.1.01.04.1.12.07 0-.2.17-.3.16-.57h.08c-.06-.35.22-.6.14-.83.01-.35.26-.18.2-.56l.13-.12c.05-.15-.1-.13-.02-.3.06.02.1-.2.13-.1.08-.18.1-.37.1-.58.01-.1.01-.2.04-.32.01-.06.03-.07.07-.08h.01c-.1-.1.05-.1.1-.25.05.04.42-.32.26-.05-.01.02-.05.05-.06.03v.08c.32-.08.38-.4.6-.6-.08.04-.16.12-.14.03l.2-.18v.08l.32-.25-.1-.02c.17-.1.32-.06.4-.3.03-.12-.2.06-.08-.1.22-.15.55-.4.8-.65-.1-.03-.03-.1.02-.18l.06.04c.15-.35.22 0 .37-.34l-.05-.1c.07-.35.24-.05.27-.47-.07.13-.17-.04-.05-.16l.04.08c.04-.1.03-.13.08-.18 0 .07.07.08.14-.05l.02.13.03-.3c.17-.14.26-.48.38-.52 0 0 .26-.4.18-.54.03.1.15-.1.2-.01-.03-.15.04-.47.17-.6v.03c.27-.56.1-1.04.15-1.56-.08.03-.08-.25-.18-.16-.1-.27-.08-.43-.17-.75-.06-.23-.15-.4-.28-.44l3.94-8c.1-.2.2-.4.3-.56.43-.84.6-1.13 1.13-1.15l3.93-.2h.08c.33 0 .54.23.6.33.2.26.23.6.1.87l-2.85 6.37c-.78-.3-2.14-.52-3.1-.07-.5.24-.84.65-1 1.18v.01c-.22.9.33 1.85 1.23 2.6-1.43.08-3.33.6-3.54 2.14-.08.5.1 1 .48 1.44.26.3.6.54 1.02.75-.63.18-1.27.47-1.7.93a1.83 1.83 0 0 0-.51 1.39l.01.05c.13.75.75 1.36 1.6 1.78-1.53.37-2.38 1.15-2.3 2.18v.01c.05.46.32.88.8 1.23l-.03.07c-.22.38-.5.55-.83.55zm6.07-1.62c-.32.36-.93.57-1.92.63-1.08.25-2.15-.05-2.7-.44-.24-.17-.38-.36-.4-.52-.06-.94 2.03-1.23 2.2-1.26.15 0 .36-.02.6-.03.68-.05 1.96-.15 2.38.22.08.07.1.14.12.25.04.5-.05.88-.3 1.15zm-.53-2.78c-1.9.1-3.62-.77-3.78-1.56a.78.78 0 0 1 .25-.61c.55-.58 1.8-.83 2.36-.83.13 0 .33-.01.56-.02 1.04-.06 3.48-.2 3.54.82 0 1.18-.8 1.76-2.93 2.2zm1.82 2.1c.02-.17.02-.36.01-.55-.03-.36-.18-.66-.43-.9a5.65 5.65 0 0 0 1-.41c-.22.85-.47 1.78-.57 1.8 0 .01-.01.03-.01.04zm.64-1.9z"/><path d="M154.6 147.32v-.23l-.03.26c.01-.01.01-.02.02-.03z"/></svg>