<svg xmlns="http://www.w3.org/2000/svg" viewBox="0 0 480 480" xmlns:v="https://vecta.io/nano"><path d="M352.1 219.52c2.16 0 4.4-1.75 1.4-2.45-3-.6-6.9-1.98-7.8-1.98-.8-.1-4-.9-6.2-.5-1.4.2-3.3 1.1-6.4-.5l-.17-.1c.33-.9-.06-2.03-.93-2.7l-4.15-2.5c.98-3.17 1.5-6.35 1.05-9.1-1.3-8.1-6.9-11.2-20-18.9-11.9-7-20.7-19.8-36.4-45.9-5.16-8.63-10.63-15.64-15.96-21.04C249.93 105.23 241 99 230.6 99.5c-.12 0-.26.01-.4.01-7.5-1.7-16.7-.4-25.1 7.4-9 8.6-18.3 22.9-26.5 39.4s-16.5 43.4-14.1 68.5c2.4 25 13.3 25.6 19.1 25.8l1.93.04.87 4.76c.08.95.85 1.64 1.75 1.8l1.95 6.8s-.8 7.1 3.3 13.5c.2.6 1.3.8 2.2 1.1.6.2 1.1.7 1.6.7.4 0 .5-.4 1-.3.8 0 1.7.4 2.4.1 1.9-1 1.9-.4 2.6-.6 1-.3 1.4-1.3 1.5-1.5l-.4-5.4c-.3-.9 1.6 1 2.5 2.4 1.2 1.4 3.2 1.9 1.9-1-1.2-2.9-2-5.4-2.4-6.1s-1.8-3.7-3.4-5.3c-1-1.1-2.9-2-3.5-5.4-.04-.27-.07-.6-.1-.93l.4-.07c1.1-.1 2-1.1 1.7-2.1l-.22-4.02c3.65-.9 6.98-2.3 9.12-4.48 5.85-5.95 3.24-10.24 3.2-27.2h57.07c4.2 6.28 9.24 11.8 15.53 15.5 18.7 11.2 31.1 5.9 34.2 1.2l.65-1 4.75 2.1c1.08.54 2.23.1 2.74-.78l5.15 1.98s5.2 4.9 12.9 5.5c.6.2 1.4-.5 2.3-1.1.24-.2.25-.5.24-.84.08-.26.1-.5.03-.7a.6.6 0 0 1 .13-.25c.2-.4 1.2.1 1.5-.2.12-.15.3-.33.5-.52a1.27 1.27 0 0 0 .51-.58c.01-.01 0-.02.01-.03.13-.2.2-.4.15-.6.03-.45-.15-.8-.48-1.1-.04-.35.1-.57.34-.73.5-.01.92-.18 1.2-.55.13-.07.23-.16.28-.26.4-1-.2-1.9-.4-2.1-1.9-1.1-3.7-2.5-4.6-2.8-.9-.52 2.3.01 3.9.01z" fill="#fff"/><path d="M355 218.9c.37-.33.64-.94.3-1.44-.14-.24-.38-.45-.65-.6-.2-.1-.43-.22-.66-.3l-2.03-.5-2-.53-2.03-.56-1.04-.26c-.36-.08-.68-.17-1.17-.2h.07c-2.1-.33-4.43-.83-6.68-.37-1.1.24-2.05.44-3.02.33-.96-.1-1.9-.45-2.7-.9l-.1-.12c.18-.38.33-1.04.01-1.93l.07.02c-.27-.5-.58-.88-1.02-1.13-.3-.16-.57-.27-.9-.33.06-.3-.6-.4-.74-.6h.03c-.58-.1-.87-.73-1.42-.83.03-.01.08-.07.2-.01l-.45-.22c.01-.03.01-.05.02-.08l-.03.08c-.07-.04-.13-.08-.18-.12l.3-1.2v.5l.42-2.13c-.07.65.14.38.35-1.22.02.37 0 .73-.02 1.1.07-.5.1-1.02.1-1.54l-.01-1.54.05-.95c.01-.34-.04-.7-.07-1.05-.04-.73-.2-1.43-.34-2.1l-.5-1.8-.38-1.15-.37-.75c-.2-.47-.58-1.05-1-1.66-.84-1.2-1.96-2.3-2.46-2.63.83.6-1.2-1.32-.53-.88l-2.65-1.9-2.76-1.94.25.14c-2.3-1.58-4.37-2.73-6.36-3.86l-5.87-3.6c.1.25-1.93-1.3-1.53-.78-4.15-2.88-6.54-6.37-8.2-7.32-1.55-1.7-1.68-2.15-2.43-3.08l.38.4c-2.75-3.32-3.5-4.34-5.37-6.96-.97-1.28-1.35-1.32-2.92-3.75.6.7-.07-.25-.67-1.14.4.56.55.72-.18-.5-.14-.15-.32-.4-.5-.63 0-.01-.03-.07 0-.05-1.02-1.5-.88-1.2-.43-.5-.04-.03-.02.04.1.28-.92-1.63-2.85-4.37-2.8-4.66l-7.53-11.6c-.18-.48.43.38 1.14 1.48l-1.7-2.72c.13-.05 1.02 1.54 1.55 2.37-1.8-3.36-4.2-6.66-6.56-10.5l-.6-.7-.14-.23c-.03.04-.67-.75-1.08-1.28-.28-.58.26-.13-1.06-1.93-.95-1.5-3.08-3.96-4.62-5.68.78.97.47.7.1.32-.72-.85-1.06-1.4-1.66-2.02l.04-.14c-.08-.02-.47-.4-.9-.85-.1-.14-.18-.26-.27-.4.12.12.23.22.27.25l-.38-.4c-2.37-3.48-4.37-5.8-6.54-7.98-.66-.65-1.32-1.3-2.08-1.9-.74-.63-1.5-1.28-2.4-1.9l-1.38-.96-1.58-.92-.84-.48-.92-.43c-.64-.27-1.27-.62-2-.87-2.7-1.1-5.7-1.68-8.7-1.8h-.57c-1.96-.44-7-.73-9.52-.6l-1.32.23c-3.1.24-4.76 1-6.82 1.93-2.06.97-3.73 1.67-5.36 2.98-.37.05-1.34.84-2.4 1.68l-2.58 2.34.08-.1c-2.5 2.73-5.33 5.4-7.36 8.32.07-.12.05-.23.55-.87-1.6 2.03-3.6 4.92-3.84 4.98-3.6 5-8.08 12.3-9.74 15.87l.1-.26c-.94 2.04-1.4 2.54-2.5 4.78-.08.1-.18.26-.17.23-.98 2.24-3.26 6.3-4 8.15l-.16.07c-.7 1.46-1.32 2.96-1.98 4.44l.76-1.65c.02.7-1.67 3.28-2.75 6.65-.6 1.53-1.05 3.15-1.45 4.8-.43 1.63-.82 3.3-1.4 4.9-.35 1.6.2-1.44-.42.92-.18.03.25-1.1-.06-.55l-.95 3.1c-.32 1-.68 2.07-.97 3.52l-.15.1c-.37 1.9-.84 3.65-1.22 5.27l-.55 2.3c-.14.73-.25 1.42-.3 2.06-.63 3.93-.82 2.57-1.2 6.7-.14.52-.25 1.05-.36 1.58-.22 1.76.07 1.3-.23 3.24-.12-.13-.27 2.48-.3 1.32a72.28 72.28 0 0 0-.27 3.38c-.06 1.15-.04 2.33-.06 3.55l-.02 1.87.05 1.95c.03 1.33-.01 2.72.05 4.2.15.63.24 1.7.33 2.7.07 1.02.25 2 .37 2.45-.03.08.14 1.56.26 2.6.18 1.04.26 1.65-.14.02-.05-.28-.1-.8-.07-.76l-.17-.38c.03.42.05.84.1 1.24l.2 1.18c.15.78.3 1.53.48 2.28.16.75.44 1.48.65 2.24.24.75.4 1.54.7 2.33l-.24-.74c-.06-.24-.1-.47-.15-.64-.08-.34-.1-.45.07-.03.24 1 .65 1.98.98 2.98l-.3-.58c.24.74.5 1.48.84 2.2.35.7.6 1.46 1.02 2.14-.07-.2-.16-.4-.2-.63l1.3 2.46a22.69 22.69 0 0 0 .8 1.08c.15.2.32.4.5.6.2.2.44.4.7.63.92.8-1.46-1.7.33.03 1.05 1.17 2.66 2.42 4.6 3.27 1.93.88 4.14 1.28 6.1 1.4-.36-.16.7-.1 1.76-.1l.12.13c.18 0 .34-.01.5-.01a2.28 2.28 0 0 1 .09.7c.14-.06.13.35.3.22.32.74-.1 1.47.5 1.65.1.35-.06.44-.05.63l-.04-.08.17.72-.01-.08c.04.28.08.53.22.87.22.3.44.23.77.68-.2-.06-.03.1.14.24-.12-.08-.2-.08.01.16.05 0 .12.02.18.04 0 .01 0 .02-.01.03.34.17.3.1.16 0 .02-.01.01-.03-.01-.1.1.15.3.25.5.32l.7 2.5 1.15 3.84v.01c0 1.25-.01 3.65.35 5.15 0 .2.02.4.03.6.12.52.3 1.13.38 1.67l-.03-.03c.25.77.5 1.64.66 2l-.03-.02c.12.3.2.62.35.9l-.1-.14c.54 1.25 1.2 2.48 1.84 3.55 0 .01 0 .01.01.02h0l.03.06-.03-.07v-.1l.07.14v-.07c.01.02.02.03.03.05l-.06-.13c.24.63.68.8.95.95.3.14.57.22.8.3l.67.2c.2.06.32.1.5.2l.6.32c.2.1.6.27 1 .2.2-.03.38-.12.54-.23.1-.07.12-.06.12-.06s.01 0 .03.01a.88.88 0 0 0 .17.02l.08.01c.1.01.23.03.37.06l-.03.02c.35.02.72.1 1.12.1a2.86 2.86 0 0 0 .64-.04c.1-.02.22-.05.33-.1a.67.67 0 0 0 .17-.08l.1-.05c.53-.27 1.08-.48 1.44-.4.1.01.3.06.54.05a2.07 2.07 0 0 0 .65-.15 2.67 2.67 0 0 0 .99-.7c.14-.15.26-.3.36-.5.05-.1.1-.17.15-.26l.18-.4c.03-.14-.02-.33-.02-.45l-.03-.27c-.02-.18-.05-.37-.08-.56.06.38.03-.17.06-.14l-.2-2c-.02-.14-.04-.26-.05-.38-.02-.07-.03-.08-.04-.12-.03-.06-.07-.13-.1-.15 0-.06-.01-.1-.01-.15-.01-.3.05-.17.1-.1a.57.57 0 0 1-.06-.15c0-.05-.1-.18-.01-.2.1.02.26.15.4.28l-.12-.07a6.11 6.11 0 0 1 .36.36 14.37 14.37 0 0 1 .68.84l-.15-.44c.35.5.35.58.36.66-.01.05.05.24.52.64l.07-.1c.34.3.65.56 1.15.75a1.36 1.36 0 0 0 .71.09c.23-.05.44-.18.56-.38.27-.36.18-1 .1-1.42-.08-.4-.23-.77-.35-1.15l-1.88-4.87-.3-.75c-.1-.22-.24-.46-.33-.62l-.63-1.17c-.44-.78-.9-1.55-1.4-2.3-.5-.75-1.1-1.45-1.78-2.07-.68-.6-1.3-1.1-1.76-1.76-.86-1.14-1.18-2.52-1.26-3.92-.04.01-.08.02-.13.03l-1.04.2a9.35 9.35 0 0 0 .3 1.64c.3 1.12.86 2.3 1.78 3.4.5.4 1.5 1.28 1.8 1.5.07.04 1.58 1.97.63.92-.08-.1-.2-.26-.2-.26l-.16-.08c.78 1.15 1.56 2.08 2.24 3.37-.18-.4-.47-.9-.24-.58l.63 1.2-.2-.22.47.93a11.3 11.3 0 0 1 .36.86l-.03-.28c.32.93.32 1.3.82 2.33.24.46-.24-.93.16.06a66.59 66.59 0 0 0 .79 2.28l.46 1.24c.15.5.12.47.1.54.1.02.08.17-.07.16l-.03-.1c-.06.02-.2-.05-.32-.16-.1-.1-.15-.16-.2-.2-.04-.06-.07-.13-.17-.23-.05-.06-.1-.12-.18-.2-.02-.02 0 0-.01-.02a1.25 1.25 0 0 1-.08-.12c-.06-.07-.12-.16-.2-.25l-.3-.22c-.15-.17-.27-.3-.36-.4-.12-.14-.2-.25-.3-.34l-.48-.57c-.14-.16-.3-.34-.56-.54s-.6-.36-.94-.3c.3-.01.4.13.32.13-.04.01-.13 0-.25 0-.05 0-.17 0-.22.08-.03.06-.02.1-.06.2 0-.08.01-.17 0-.22-.04.14-.1.28-.13.44-.02.08-.03.15-.05.22.01.1-.02.18.01.34-.05-.2-.04-.25-.06-.28-.01-.01-.06.01-.02.2.04.2.02.5.07.97l-.14-.9.14 1.24c.02.23.04.3.06.42l.06.33c0 .52.05 1.2.1 1.8.04.55.1 1.24.03 1.12 0 0-.03.06-.1.16a2.13 2.13 0 0 1-.39.5 1.64 1.64 0 0 1-.53.34c-.12.05-.2.05-.4.06.22 0 .08-.06-.22-.1s-.6 0-.37-.08c-.43.08-1.03.35-1.57.65-.18.1-.17.1-.26.12-.07.02-.16.03-.26.02a2.42 2.42 0 0 1-.56-.1l.12.01c-.28-.05-.6-.13-.94-.17-.1-.01-.17-.02-.27-.02-.16 0 .03 0-.2-.02-.3-.03-.66.1-.82.22l-.1.07c-.01 0-.01.01-.02.01-.02.01-.03.01-.05 0-.1-.02-.34-.15-.57-.28s-.57-.3-.85-.37l-.76-.22c-.24-.07-.47-.15-.65-.25-.1-.05-.17-.1-.2-.14-.04-.05-.02-.05-.1-.01v-.18l-.02-.03c-.02.13-.58-.9-.52-.6-1.27-1.95-1.52-3.9-2.07-4.6-.3-1-.23-1.23-.33-1.76l.07.24c-.4-1.93-.45-2.5-.53-3.97-.05-.73-.24-.85-.13-2.15.01.16.03.18.04.13.01-.1.02-.24.04-.43l-.13-.44c.05.15.1.25.1.24 0-.05-.02-.17-.1-.5-.05-.08-.1-.22-.14-.34 0-.01 0-.03.01-.02-.26-.8-.23-.65-.13-.28-.01-.02-.02.02 0 .14-.17-.85-.68-2.32-.6-2.45l-.72-2.37c.2-.04.4-.1.52-.16.32-.12.63-.24.96-.34.1.08-.05.2-.24.26l.48-.12c.02.13-.26.13-.4.18.6.1 1.15-.43 1.86-.36l.12-.13.04.01c-.01-.05.13-.16.22-.2.12.1.04.27.37.2.28.06.74-.2 1.08-.32-.2.02-.14-.06-.07-.12.17-.03.28.06.4-.01l.04.15c-.1-.13.4-.24.46-.3.12.1-.24.15-.27.24l1-.2c.34-.18-.1-.13.05-.3.3-.1.6-.25.98-.23l-.14-.12c.57-.22.93-.27 1.36-.2 4.2-1.94.65-1.7.65-1.7-1.8.02-2.62.58-4.67 1.07-1.83.27-2.36.1-4.23.55l-.68.12c-.12.02-.2.03-.3.03-.2-.01-.4-.08-.55-.2-.25.02-.27-.26-.34-.43l-.01-.1c-.03-.1-.07-.2-.1-.27l.08-.2c-.1-.16-.17-.35-.14-.53h.04c-.14-.24-.13-.53-.2-.65h.04l-.07-.3.06.04c-.18-.43-.27-.88-.3-1.3l-.14.06c0-.1-.01-.18-.02-.27l.15.03c.37.07.74.16 2.76.02l.72-.2c3.64-.5 2 .2 6.02-.62-1.6.22-.78-.15 1.18-.4l-.48.2c1.08-.2 1.44-.3 2.16-.42-.6.18-.33.24 1.03-.06v.03l-.8.3.8-.23c.02.04.04.07.05.07l.06 1.63a10.34 10.34 0 0 0 .02.33c.01.1.01.22.02.36.02.13 0 .26.07.57.05.18.05.24 0 .42a1.44 1.44 0 0 1-.32.48c-.28.3-.6.44-.5.68.05.1.24.26.66.28.4-.01 1.16-.08 1.77-1.06l.03.07c.14-.3.2-.65.18-.95 0-.08-.01-.15-.02-.22-.01-.06-.01-.04-.01-.07 0-.01 0-.1-.01-.2-.03-.33-.1-.62-.23-.92.28-.1-.01-.73.07-.94h.02c-.17-.36-.05-.76-.03-1.13l.33-.1c1.17-.25 2.64-.77 3.9-1.33.63-.3 1.2-.62 1.7-.85.48-.26.84-.5 1.08-.6 0 0 .3-.17.7-.48.4-.35 1-.8 1.48-1.35.96-.96 1.8-2.25 2.1-2.9-.08.23.16-.1.4-.47.25-.45.52-.93.4-.5.28-.67.63-2.06.8-3.45.17-1.4.18-2.78.24-3.56l.02.3c.05-2.9-.2-5.3-.35-7.64-.17-2.33-.3-4.6-.26-7.1-.08.14-.1-.74-.14-1.35l.47.04c5.46.1 10.1-.15 15.84-.1 6.9.27 19.88.02 27.36-.12 2.63-.08 5.36-.1 8.16-.06l3.95.06c.68 1.03.96 1.5 1.25 1.97.35.57.7 1.2 2.05 2.7l.9 1.3c.56.67.8.87 1.05 1.1s.5.47 1.18 1.18c-.16-.01 1.68 1.8.8 1.06 3.03 3.2 6.97 5.7 11.98 8.48.6.18 1.56.6 2.48 1.02.9.4 1.83.7 2.3.82.07.25 5.55 1.82 2.36 1.05-.28-.07-.75-.22-.7-.24h-.42c3.1 1.25 5.87 1.55 9.16 1.87-.98-.1-2.26-.3-1.4-.26 1 .18 2.04.18 3.06.24l-.64.07 1.15.06 1.16-.03 1.16-.04 1.15-.14-.65-.04 1.47-.13c.43-.04.82-.12 1.22-.2.8-.1 1.62-.38 2.82-.9 1.05-.52-2.1.6.15-.3 1.42-.54 3.17-1.42 4.72-2.88.4-.33.73-.8 1.08-1.23.07-.1.12-.18.2-.28.3.1.58.2.85.4.03-.15.36.1.35-.12.8.15 1.15.92 1.65.52.34.12.33.3.5.4l-.1-.01.7.26c.2.08.42.2.75.27.36.01.43-.22 1-.2-.18.12.06.1.28.04-.13.05-.18.1.14.1.03-.04.1-.08.14-.12.01.01.02.01.02.02.35-.17.26-.18.1-.12 0-.02-.02-.03-.08-.04.43.02.9-.54 1.04-.45a.55.55 0 0 0 .07-.09l1.14.45 3.35 1.25.38.32.48.38c1.14.75 3.1 2.1 4.6 2.68l.54.32c.52.2 1.13.4 1.64.63l-.04.01c.8.22 1.68.52 2.1.58l-.04.01c.33.07.65.17.98.22h-.18l1.4.2 1.4.15-.15-.03c.47.15.87.02 1.14-.08.28-.1.5-.25.7-.37l-.14-.01c.32-.2.6-.38.83-.54l.18-.12c.08-.06.2-.13.27-.22a1.26 1.26 0 0 0 .32-.6c.08-.46.02-.7.03-.88 0-.06-.01-.14.03-.2.03-.07.1-.06.17-.06-.03-.02.4.08.78.02.4-.03.7-.5.83-.6.2-.18.4-.37.63-.65v.05c.07-.1.13-.2.2-.33.08-.15.14-.3.17-.46.05-.22.02-.44-.06-.64-.03-.4-.18-.72-.43-1 .01-.04.03-.07.06-.1.17-.02.32-.05.47-.1a1.79 1.79 0 0 0 .6-.35 1.61 1.61 0 0 0 .45-.3c.17-.16.27-.4.34-.6.05-.18.08-.36.1-.55.02-.37-.05-.75-.18-1.1a3.07 3.07 0 0 0-.26-.51c-.1-.15-.33-.44-.54-.52-.27-.14-.55-.3-.86-.47.35.18-.12-.13-.08-.13l-.92-.57c-.13-.08-.2-.1-.3-.15-.18-.08-.42-.18-.64-.22-.45-.26-.2-.14-.01-.1l-.06-.02c-.06-.02-.15-.04-.2-.1-.03-.06.01-.06.05-.07.1-.02.27-.01.45 0l-.1.02 1.23.07c-.16-.05-.33-.1-.4-.17.52.06.7.1.74.14.07.03.14.08.8.01l-.03-.1c.47-.04.88-.15 1.26-.28.36-.17.67-.3 1.06-.63zm-35.72 4.88c-.98 1.28-2.46 2.3-4.05 3.05-.8.4-1.65.66-2.5.95-.88.2-1.75.46-2.66.55-3.6.53-7.38.2-10.97-.7-3.6-.9-7.02-2.4-10.2-4.1l-2.36-1.32-2.2-1.5-1.08-.74-1-.84-1.94-1.67c-.13-.16-.23-.34-.34-.52-.01-.35-2.92-2.37-3.07-2.95l-1.1-1.14c-.26-.36-.84-1.1-.3-.53l-1.67-1.94-.83-1.34-.56-.8.95.02.44.01h.1c.04 0 .08.01.06-.04V208l-.1-2.37c-.24-5.72-.48-11.47-1-16.85.01-.35-.12-1.26-.14-1.25l-.6-9.85-1.42-19.33c-.68-7.4-1.28-10.18-1 8l-.06-.24c.23 5.38.42 8.76.9 12.46-.25.6.25 4.42.24 5.68l-.03-.12c.43 3.27.25 6.76.65 9.9-.03-.12-.1-.2-.17-.9.18 2.3.45 5.45.3 5.62l.15 2.15c.03.37.03.75.1 1.13l.92 3.78.04.15c.16 0-1.37.01-.72 0h0v.05l.02.2c.01.1.05.25-.1.2l-3.56.06c-1.3.03-2.45.08-3.33.14l.24-.05c-2 .18-2.6.03-4.86.12-.12-.02-.28-.03-.26-.04-2.2.18-6.4.03-8.18.1l-.1-.1-4.37.03 1.63.02c-.57.3-3.3-.2-6.47.01-2.97-.04-6.02.64-9.1.5-1.47.14 1.3-.23-.9-.12-.07-.16 1.03-.1.46-.23-2.16.08-3.54-.16-6.2-.06l-.1-.12c-3.47.23-6.55-.16-8.86.05-2.3.07-2.64-.1-3.58-.17-.04-4.56.72-8.2.4-9.94.25-2.35.5-2.76.74-3.96l-.07.56c.7-4.37 1.08-5.6 1.92-8.78.44-1.58.2-1.92 1.23-4.7-.22.93.17-.2.54-1.25-.22.67-.26.9.3-.45a7.97 7.97 0 0 1 .21-.79c.01-.01.04-.06.04-.03.65-1.72.5-1.44.17-.65 0-.05-.05.01-.17.25.42-.86.92-2.1 1.34-3.14.45-1.03.84-1.86.96-1.93 2.23-5.07 3.9-8.7 6.12-12.76.34-.4-.12.58-.75 1.76l1.58-2.88 2.68-4.44.6-1.05c.27-.45.55-.9.84-1.34l1.57-2.63c.07-.2.47-.95.76-1.46.1-.12.17-.17.23-.2 1.98-3.34 3.76-6.4 4.3-7.54.02-.1.1-.26.18-.44-.05-.66-13.37 19.08-13.37 19.08l-.03-.05-2.07 3.82c-2.94 5.43-5.66 11.48-7.63 17.22l-1.57 5.26-.78 2.98a50.4 50.4 0 0 0-.53 2.76c-.13.42-.27.85-.38 1.27-.12 1.17-.37 2.53-.56 3.7l-.03-.08c-.06.88-.18 1.8-.27 2.63l-.15 1.97-.03-.08c-.06.7-.12 1.42-.13 2.13l-.03-.37c-.1 3.06-.1 6.2-.1 8.97l.14-.23c-.05 5.9.5 8.06.5 13.3l-.04-.07c.3 3.3.03 5.85-1.18 7.95-.6 1.05-1.43 2-2.37 2.98-.95.88-2.08 1.74-3.53 2.53.7-.42-.34.1-.3.03-2.74 1.3-6.02 1.97-6 2.25-2.23.45-1.84.24-2.15.2.04.13-1.9.5-3.7.66l.8-.13c-1.7.2-3.4.33-5.1.42l1.02.2c-2.73.05-.7-.25-3.3-.13l.04.2c-1.9 0-3.4-.12-4.85-.3-1.45-.18-2.85-.46-4.46-1.04-1.7-.55-3.25-1.46-4.6-2.64-.64-.64-1.3-1.26-1.84-2.02-.6-.7-1.05-1.52-1.54-2.3-1.87-3.26-2.94-7.02-3.68-10.77-1.5-7.55-1.63-15.24-1-22.26l.2-.6c.12-.13.1-1.1.1-2.1.02-1 .06-2.05.18-2.3l.08-1.64c.1-.45.24-1.42.2-.6.2-1.5.2-1.54.3-2.63l.37-1.6c1.07-5.9 1.95-10.92 3.73-16.98 1.18-3.6 2.85-8.8 4.87-13.96 2-5.17 4.38-10.25 6.24-13.94 5.07-10.44 12.8-21.6 20.3-30.64.14-.13.36-.4.54-.63s.34-.42.33-.43c2.43-2.65 5.25-4.6 8.17-6.6 0 0 .17-.1.47-.32.3-.22.75-.5 1.32-.83l.93-.56c.34-.2.72-.37 1.12-.57.78-.43 1.92-.66 2.88-1.06 2.3-.58 4.3-1.23 6.6-1.27 1.9-.04 7.24.54 8.32.4l1.03.43h.02l1.65.17c.27.03.54.04.8.1l2.26.47c.97.26 1.9.57 2.83.9.9.4 1.84.75 2.74 1.25.35.32-.5-.13-1.6-.57.44.2.9.38 1.3.62l1.27.72c-.1.13-1.46-.83-2.3-1.13 2.98 1.7 6.26 3.5 9.06 6.52.23.17.46.34.68.52l.15.2c.03-.05.7.57 1.14 1 .3.52-.2.12 1.1 1.68a14.98 14.98 0 0 0 .88 1.12l1.06 1.36c.77.93 1.5 1.96 2.1 2.83-.6-.96-.36-.7-.05-.3.58.84.77 1.42 1.2 2.07l-.07.13c.08.03.4.5.73 1.02.4.65.8 1.4.93 1.56.17.57-.82-1.35-1.04-1.52 1.95 3.6 1.02 1.77 2.8 5.44.93 1.97-.01-.43.5.48.78 1.76 1.5 3.5 2.1 5.66a15.39 15.39 0 0 0-.08-.71c1.2 3.44 1.65 5.6 2 8.02 1.53 6.62 1.9 10.4 2.3 12.18.34 1.8.5 1.64.54.65.04-1-.01-2.83-.12-4.44-.1-1.6-.26-2.96-.26-2.96-.55-5.4-1.5-9.46-2.87-13.65a62.79 62.79 0 0 0-2.53-6.34c1.23 1.73 2.27 3.3 3.3 4.87 2.08 3.2 4 6.62 7.32 11.94 3.1 5.1 6.54 10.5 9.85 15.33 1.7 2.2 4.4 6.33 6.6 8.83l.7 1.08c.74.87 1.65 1.85 2.35 2.77l-.07-.03 3.1 3.26-.08-.03 1.5 1.46-.3-.22c2.22 2 4.6 4 6.85 5.57l-.1-.25c2.4 1.7 4.12 2.6 5.75 3.54s3.2 1.82 5.32 3.26l-.08-.01c2.83 1.56 4.9 3.07 6.67 4.8.47.42.84.9 1.27 1.36.37.5.8.98 1.12 1.53.7 1.08 1.35 2.3 1.82 3.82-.27-.74.03.34-.03.3.37 1.43.48 2.87.47 4.04-.03 1.15-.06 1.96.07 2-.4 2.16-.44 1.73-.6 1.98.06.01-.01.48-.15 1.15-.18.67-.4 1.55-.7 2.36.07-.26.16-.5.22-.77-.52 1.56-1.1 3.12-1.78 4.63l.62-.8c-1.15 2.4-.52.5-1.56 2.8l.2.06c-.84 1.63-1.6 2.87-2.42 4.06-.8 1.15-1.63 2.4-2.66 3.7zm27.6-2.2h0a.77.77 0 0 1 .79-.51c.5 0 1.24.25 2.33.65l.5.2c1.13.5 1.8.85 2.1 1.2.04.1.08.22.1.34.02.1.02.22.02.32-.01.1-.04.24-.04.24-.03.08-.02.1-.13.17.14-.1.01-.07-.18-.02s-.44.1-.27.01c-.1.06-.28.14-.5.27-.08.05-.2.12-.3.2-.48-.08-1.15-.3-2.07-.75-1.28-.57-2.14-1.23-2.36-1.8a.67.67 0 0 1 .02-.52zm1.2-1.5c.02.01.04.03.07.04l-.28-.03.1-.12c.03.04.07.07.12.1zm.84 5.06l.18.08c.76.34 1.3.6 1.67.85a2.78 2.78 0 0 0 .08.36 3.65 3.65 0 0 0 .34.69c.02.04.01.08-.02.1l-.01-.02c-.02.03-.01.02-.05.08-.06.08-.14.18-.23.28-.15.16-.3.3-.44.45-.48.04-1.28-.1-2.63-.78-1.28-.57-2.14-1.23-2.36-1.8a.65.65 0 0 1 .01-.53c.46-.95 1.18-.8 3.46.24zm-2.36 2.9c.38.13 1.44.5 1.88 1-.06.24-.07.5-.06.7a4.47 4.47 0 0 1 .01.34c-.3.28-.95.23-2.6-.5-1.07-.38-1.87-.93-2.05-1.4-.05-.14-.04-.25.02-.38l.01-.02c.12-.24.27-.38.48-.44a1.21 1.21 0 0 1 .3-.04c.4 0 1 .16 2.02.73zm7.15-9.57c-.7.35-.9.3-1.03.28-.07-.01-.15-.02-.3-.02h-.82l.16-.04c-.18.04-.27.1-.52.13-1.44-.04-1.83-.13-2.3-.18-.2-.02-.47-.05-.7 0-.01-.01-.02-.02-.03-.02-.24-.13-.55-.04-.68.2-.01.02-.88 1.56-2.9 3.03-2.12 1.54-5.07 1.32-5.1 1.32-.27-.02-.52.18-.54.46s.18.52.46.54c.03 0 .22.02.52.02 1.03 0 3.37-.17 5.25-1.52.23-.17.45-.34.65-.5.02.1.05.2.1.32.1.28.3.55.5.8-.78-.04-1.43.26-1.87 1.2h0c-.2.42-.2.87-.04 1.3.08.2.2.4.34.6-.33-.04-.65-.04-.92.04-.47.14-.83.46-1.08.94a1.39 1.39 0 0 0-.08 1.21c.3.78 1.26 1.5 2.62 1.98.48.2 1.1.47 1.7.6-.03.02-.06.04-.1.05-.18.1-.27.1-.18.16-.1.03-.14.03-.16.02l-.13-.03c-2.17-.13-3.8-.88-4.64-.83-1.04-.3-1.18-.5-1.7-.72.08.03.16.05.25.08-1.88-.75-2.4-1.06-3.68-1.83-.65-.38-.85-.3-1.92-1.13.4.2-.07-.1-.45-.42.26.2.34.24-.13-.2-.1-.06-.17-.1-.33-.23 0-.01-.03-.04-.01-.03-.03-.02-.05-.05-.07-.06l-.5-.17c-.1-.03-.13-.04-.14-.04s.1.06.3.13c-.01.01-.01.02.13.1-.84-.4-2.33-.88-2.4-1.02l-2-.73c.01-.03.02-.07.03-.1.08-.33.15-.65.25-1 .12-.04.13.14.08.34l.16-.46c.12.05-.04.3-.08.44.43-.46.28-1.2.73-1.75l-.04-.17.03-.03c-.05-.02-.06-.2-.04-.3.15-.05.25.1.37-.2.2-.2.25-.72.33-1.07-.1.17-.13.1-.13 0 .06-.16.2-.2.22-.34l.15.05c-.16 0 .03-.47-.01-.55.15-.04-.01.28.05.35l.38-.95c.03-.38-.16 0-.22-.2.1-.3.12-.64.35-.94l-.17.05c.14-.6.3-.92.6-1.24.73-4.58-1.06-1.48-1.06-1.48-1 1.5-.98 2.52-1.7 4.5-.8 1.68-1.25 2.03-1.9 3.85l-.26.6c-.04.12-.07.16-.13.24a.75.75 0 0 1-.44.29c-.07.12-.22.12-.36.08-.07-.02-.14-.05-.23-.08-.1-.03-.27-.1-.4-.1l-.13-.2c-.18-.02-.4-.06-.52-.2l.02-.03c-.28-.02-.52-.2-.66-.2l.02-.03-.3-.1.07-.02a4.4 4.4 0 0 1-1.24-.49l-.03.15c-.2-.14-.38-.22-.54-.3a41.97 41.97 0 0 0 1-1.62c-.3.23.22-.64.7-1.56l.17-.05c1.7-3.6.98-1.14 2.56-4.8l.13-.7c.6-1.7.82-2.12 1.05-2.6.1-.24.24-.5.4-.95.2.1.38.2.58.27.03.06.2.07.2.05l1.38.86.84.5c.35.26.66.75.78 1.14.13.38.1.72.37.75.07 0 .2-.04.3-.14-.02.08-.04.17-.07.25l-.22.5a8.02 8.02 0 0 0 2.38.87c1.2.26 2.57.14 3.9-.1.54-.28 1.78-.3 2.2-.36.06.01 2.62.24 1.14.2-.13-.01-.35-.02-.33-.04l-.18.06c1.34.22 2.4.3 3.82.52h.08a1.37 1.37 0 0 1 .3.04 3.13 3.13 0 0 0-.3-.06h-.08c-.35-.06-.54-.1-.25-.1l.26.04h.07c.24.02.66.12 1 .2l-.3-.01c.65.17 1.32.38 2 .58l-.26-.15c.98.32 1.3.55 2.45.75.53.08-.92-.36.14-.1.66.2 1.5.46 2.4.67.24.05.4.12.6.18.1.03.17.08.25.1.1.04.13.06.14.07.08.06.07.15 0 .2.05.01.05.04.03.08a2.52 2.52 0 0 1-.39.28l-.05-.04z"/></svg>