<svg xmlns="http://www.w3.org/2000/svg" viewBox="0 0 480 480" xmlns:v="https://vecta.io/nano"><path d="M346.03 218.03c0-.9-2.2-2-4.7-2.9-2.1-.8-6.4-3.9-7.3-4.4-.9-.4 1.8-.6 3.4-.6 1.8-.1 3.5-1.3.4-2.1l-6.2-1.9c-.9-.2-4-.9-6.2-.7-1.07.07-2.6.7-4.5.43l.1-.23c.2-.6-.2-1.1-.6-1.4l-5-2.1c-.4-.25-.88-.02-1.2.3-6.16-4.15-15.17-11.4-21.3-16.2-5.6-4.5-13.6-10.2-15.5-13.3-1.4-3.3-3.28-8.5-5.26-14.27l5.86-2.63-2.13-5.84c-1.56-4.53-3.93-11.18-6.37-17.16-3.65-9.05-12.9-23.6-23.58-28.7-3.32-2.17-7-3.62-11.05-4.1-12.48-5.93-26.77 2.94-36.96 12.53-5.42 5.36-12.15 12.54-16.38 17.12l-.02-.02-4.1 4.5 9.72 8.95-3.22 3.85c-4.7 4.8-7.3 9.4-9.1 13.7-2.1 5.2-2.1 13.6-.7 27.8 1.2 12.52 3.46 25.42 5.12 33.85l-.22.05c-.6.2-.8.7-.8 1.2l1.3 5.1c.2.6.7.8 1.2.8l.5 2.3s-1.5 6.9 2 13.7c3.4 7 3.7 8.2 4.5 9 1.3 1.2 2-.5 2-.5s1 1.9 2.4 1.8c1.2-.1 1.2-1.7 1.2-1.7s.8 1.1 1.9.5c.7-.5.5-2.9-.1-5.6-.5-2.2-.2-7.5-.2-8.5-.2-1 1.4 1.2 2.3 2.6 1.1 1.5 3 2.2 2-.8s-1.4-5.5-1.7-6.3-1.4-3.9-2.8-5.6c-.6-.82-1.83-1.75-2.63-3.33l.33-.07c.6-.2.8-.7.8-1.2l-1-5.3c.1-.58-.55-.97-1.04-.9.15-7.42 1.43-19.13 2.14-26.9.7-7.1 1.2-16.9 2.8-20.3 1.45-2.12 3.56-4.94 6.03-8.1l-7.06 37h-.07l-1.2 6.6 79.4.2-.5-6.8h-.08l-.35-4.7 6.43 3.4c11.12 5.74 23.2 10.78 31.2 13.94l-.1.26c-.2.6.2 1.1.6 1.4l5 1.7c.6.2 1.1-.2 1.4-.6l.04-.1 2.16.8s5 5 12.6 5.7c7.7.8 8.9 1.3 10 1.1 1.7-.5.7-2 .7-2s2.2.2 2.9-1.1c.6-1.1-.7-1.9-.7-1.9s1.4-.1 1.5-1.3z" fill="#fff"/><path d="M248.5 104.25c.08.02.15.02.2.04l-.2-.04zm-54.76 105.02h-.02l-.36.1.38-.1z"/><path d="M346.57 217.74a1.8 1.8 0 0 0-.42-.75c-.48-.5-1-.8-1.5-1.1-.5-.28-1.04-.52-1.57-.74l-1.6-.62c-.46-.18-.96-.44-1.44-.7l-2.86-1.74-1.33-.87-.28-.18-.22-.14c-.06-.01-.07-.08-.01-.1.04-.02.1-.03.13-.04.1-.02.2-.03.3-.04l.16-.01.44-.03.92-.03a4.58 4.58 0 0 0 1.05-.14c.17-.04.34-.1.5-.16.2-.1.44-.2.64-.35.4-.28.67-.73.52-1.2-.13-.44-.57-.73-1.02-.96-.68-.3-1.3-.4-1.87-.57l-1.77-.53-3.6-1.12c-.03-.01-.01 0-.02 0L328 205c-1.23-.13-2.57-.18-3.8.12-.83.18-1.63.3-2.4.3.01-.23-.02-.46-.1-.7a2.7 2.7 0 0 0-.31-.64c-.14-.2-.32-.4-.46-.54l-.18-.1c-.7-.45-1.4-.94-2.2-1.05-.03-.05-.16-.03-.17 0l-1.15-.5s-.7-.3-1.47-.55l.1.06a1.52 1.52 0 0 0-1.07-.15c-.32.07-.54.22-.7.36l-.06.06a1.77 1.77 0 0 1-.22-.18l-1.3-.84c-.34-.26-1.07-.82-.43-.4l-2.05-1.42-1.2-.98-13-10-4.95-4-6-4.66-5.77-4.98c-.4-.43-.8-.87-1.1-1.32l-.12-.16c-.04-.06-.02-.03-.06-.12l-.17-.4-.33-.78-1.17-2.9c-4.88-12.5-2.5-4-1.65-1.83l.07.26 1.62 4.1.44 1.1.2.53c.08.17.1.33.25.55.4.63.84 1.1 1.16 1.44l.03.13c1.06 1.12 2.2 2.12 3.37 3.1l-1.28-1.13c.56.26 2.53 2.35 5.2 4.28l7.6 5.58c1.25.87-1.14-.72.7.63 0 .12-.87-.6-.46-.2l5.03 4 .04.13 7.28 5.6c3 2.2 1.84 1.7 5.06 3.86l1.17.96 1.08.72c-.3.18-.6.74-.6.74-.75 1.18-.6 1.98-1.06 3.55-.55 1.32-.93 1.6-1.33 3.02-.26.66-.46 1.4-.66 2.05.1.38-.3.86-.27 1.28l-.01.01c-3.32-1.3-6.17-2.38-9.46-3.86.16.17-2.12-.87-1.6-.52-4.56-1.85-8.1-3.83-9.84-4.28-2.03-.93-2.36-1.2-3.4-1.72l.5.22c-3.78-1.8-4.85-2.36-7.62-3.78-1.4-.68-1.7-.65-4.12-2 .52.24.3.1-.16-.14-.13-1-.26-2.18-.28-3.2l.04.06c-.2-1.55-.3-3.32-.4-4.1l.04.06-.17-1.9.08.32c-.3-2.7-.55-5.52-.7-8l-.13.22c-.3-5.3-.76-7.2-1-11.98l.04.06c-.47-3-.64-5.4-.8-7.83 1.2-.46 2.34-.96 3.4-1.57.12-.02.37-.2.35-.23l3-1.32 2.27-1.03-.85-2.27-.64-1.6c-.4-.98-.8-1.88-1.13-2.45-.6-1.3-1.44-2.53-1.8-3.94-.44-.8.5.67-.07-.56.14-.1.3.56.3.2-.5-1.22-.58-2.1-1.24-3.6l.1-.1c-.94-1.92-1.25-3.82-1.96-5.07-.9-2-.18-1.5-1.26-3.55l-.18-.9c-.36-.93-.45-.58-.82-1.62.12.02-.5-1.3-.14-.76-.9-2.34-2.44-4.42-3.9-7.36-.54-.5-1.32-1.95-1.74-2.3.04-.13-1.84-2.73-.64-1.32.1.12.26.36.22.36l.23.1c-.85-1.68-2.05-2.7-3.16-4.2.3.45.76 1.03.4.7l-1.05-1.36.3.22c-.5-.7-1.06-1.35-1.6-2l.13.35c-.78-.98-.9-1.47-2.02-2.38-.5-.4.7.98-.25.05-1.1-1.27-2.84-3.1-4.54-4.47.07.24-.38-.13-.88-.47v-.14c-2-1.18-.53-.74-2.54-1.85l-.46-.06c-.97-.4-1.18-.6-1.45-.76-.26-.16-.53-.4-1.6-.64-.34-.2-.68-.4-1.03-.56-1.8-.98-3.72-1.7-5.65-2.23a19.84 19.84 0 0 0-.98-.4c.1.15-6.28-1.86-5.93-1.6-3.08-.6-5.74-1-6.83-.36-1.4.13-1.68.07-2.42.13.1-.03.22-.05.33-.08-2.62.5-3.34.8-5.22 1.38-.9.38-.96.67-2.58 1.3.47-.32-.17-.02-.77.25.38-.18.47-.28-.33.02-.1.08-.25.18-.4.27-.01 0-.04 0-.03-.01-.96.5-.78.46-.32.25-.02.03.03.03.18-.02-1.08.36-2.77 1.48-2.97 1.4-2.8 1.7-4.6 3.2-6.68 4.9-.3.1.15-.34.76-.84a43.76 43.76 0 0 0-1.5 1.2c-.07-.12.8-.75 1.27-1.12-1.96 1.22-3.56 3.1-5.66 4.75l-.34.46-.13.1c.04.03-.35.5-.6.8-.35.18-.17-.2-1.1.73-.82.66-2.04 2.14-2.95 3.16.53-.5.4-.3.22-.04-.46.47-.8.66-1.12 1.06l-.16-.06c.3-.08-1.08 1.35-1.2 1.57-.34.2.64-.8.7-.98l-2.72 2.87c-.88 1.1.28-.08-.08.5-.83.92-1.58 1.88-2.63 2.85l.4-.23c-1.52 1.77-2.48 2.78-3.65 3.83l-.94 1.16c-.14-.1-.3-.23-.46-.37l-.42.47.27-.37-1.58 1.8.4-.1c-.66.62-.37-.02-.9.65l.15.12c-.43.45-.83.76-1.23 1.05l-.3.22-.16.12-.24.2c-.33.28-.68.6-1.08 1l-.38.4 2.1 1.94 1.4 1.25 2.85 2.48 1.22 1.08c1.28 1.25 2.32 2.25 3.32 3.12l.74.76.05.25c-.08.22 1.16.64 1.16.9l.47.3c.1.13.3.38.06.23.36.35.4.33.7.53l.3.46c1.4 1.42 2.8 2.37 4.3 3.82.86.98 2.24 2.25 3.67 3.5l6.13 5.53-1.94 2.6.13-.2c-1.2 1.7-1.65 2.14-3.03 4.03-.1.1-.2.22-.18.2-.64.95-1.64 2.27-2.58 3.58l-.7.97c-.1.16-.22.3-.33.46-.04.06-.14.18-.17.3l-.1.26c-.28.7-.44 1.3-.54 1.75l-.1.1c-.36 1.5-.58 3-.77 4.5l.25-1.68c.08.6-.6 3.4-.78 6.7-.3 3.06-.15 6.24-.55 9.4-.06 1.52-.01-1.35-.16.92-.1.07.04-1.06-.1-.5-.16 2.23-.45 3.64-.65 6.38l-.1.1c-.2 3.6-.73 6.74-.8 9.14-.22 3.7-.43 2.46-.52 6.34l-.17 1.5c-.04.75-.03 1.06-.01 1.35-.32-.07-.73-.04-.73-.04-1.4 0-1.98.56-3.53 1.03-1.4.25-1.83.07-3.24.5-.7.14-1.4.37-2.07.55-.27.28-.88.2-1.2.47l-.14-.07c-.7-3.5-1.33-6.5-1.86-10.07-.05.23-.4-2.25-.42-1.62-.9-4.83-1.14-8.88-1.7-10.6-.3-2.2-.27-2.63-.38-3.78l.08.53c-.53-4.15-.63-5.36-.93-8.45-.18-1.54-.36-1.77-.55-4.54.13.9.03-.24-.05-1.28.06.66.1.86.04-.5-.03-.2-.06-.5-.1-.76 0-.01 0-.07.01-.04-.13-1.73-.13-1.43-.1-.62-.01-.04-.02.03-.02.28-.04-1.8-.24-5-.12-5.23-.06-2.6-.04-4.83.12-6.93.18-2.1.43-4.1 1.15-6.1.22-.43-.1.5-.4 1.7.26-.98.55-1.92.97-2.86.05.06-.64 1.6-.84 2.52.52-1.7 1.3-3.4 2.16-5.16.87-1.75 1.9-3.5 3.2-5.2l.47-.75.16-.2c-.04-.01.5-.8.9-1.3.44-.42 2.83-3.6 1.95-3.65-.38.4-3.77 4.18-4.87 5.72a39.57 39.57 0 0 0-3.12 5.13c-.5 1-1 2.03-1.48 3.24-.5 1.24-.84 2.62-1.1 4.14-.5 2.9-.6 5.93-.55 8.9.05 2.98.23 5.92.45 8.73.32 2.66.65 7.36 1.1 10.5l.07 1.22a65.59 65.59 0 0 1 .44 3.43l-.03-.07c.27 1.6.47 3.43.62 4.22l-.03-.06.3 1.95-.08-.33 1.34 8.22.05-.23c.7 4.62 1.22 6.72 1.87 10.25-.1.04-.2.1-.28.14l.04-.08c-.5.38-.85.9-1.03 1.42h.15c-.24.53-.13.94.01 1.3.1.23.17.4.15.74h-.04c.56.65.05 1.24.6 1.92-.07-.08-.06.06-.1.06.13.34.25.7.52.65.06.26-.03.23-.13.3.12-.03.23.18.3.38l-.07-.08.2.62a2.11 2.11 0 0 1 .19-.23c.05.43-.26.2-.05.6l.17-.1c.22.53.35 1.04 1 1.38.08.02.15.02.23.03l.28 1.35c0-.01-.04.17-.06.32l-.07.45c-.05.3-.08.6-.1.9-.06.6-.1 1.23-.1 1.87-.01 1.28.1 2.66.4 4.15-.16-.8.01.36-.01.3.28 1.5.73 3.03 1.22 4.13.47 1.1.9 1.8.98 1.8.94 1.94.7 1.6.78 1.9.06-.04.9 1.64 1.62 3.17l-.35-.7 1.03 2.2c.36.73.66 1.47 1.2 2.2-.18-.32-.3-.63-.42-.94.6 1.2.9 1.3 1 1.44.07.06.12.13.38.25.13.05.32.13.6.1a1.02 1.02 0 0 0 .46-.12c.16-.07.33-.2.35-.23l-.07-.1.03-.03c.06-.06.1-.13.14-.2.06.03.12.07.2.07h.02c.03.04.05.1.08.12a3.93 3.93 0 0 0 .67.73c.3.25.65.46 1.06.56.4.1.87.07 1.27-.18a1.92 1.92 0 0 0 .48-.46c.06-.07.13-.22.14-.23l.05-.1c.04-.08.06-.2.08-.24a1.04 1.04 0 0 0 .21.21c.02.02.06.04.1.06.1.03.2.08.33.1a1.68 1.68 0 0 0 .74-.02c.22-.05.56-.18.75-.4a2 2 0 0 0 .37-.75c.23-1.07.1-1.97-.01-2.9-.1-.9-.33-1.86-.5-2.7-.25-1.7-.23-3.54-.2-5.35l.03-1.37v-.23c.23.3.46.6.68.92.28.38.46.72.8 1.16.17.2.34.38.54.56a3.76 3.76 0 0 0 .31.25c.14.1.3.2.45.27.33.17.7.23 1 .15.34-.08.57-.37.68-.68.02-.18.08-.34.06-.53-.01-.17-.02-.4-.04-.53-.05-.25-.1-.5-.18-.73-.6-1.75-1.04-3.45-1.45-5.22-.1-.45-.2-.87-.37-1.36l-.48-1.26c-.34-.84-.7-1.67-1.12-2.47s-.9-1.6-1.5-2.3c-.62-.7-1.22-1.26-1.7-1.92-.07-.1-.13-.2-.2-.32.27-.16.5-.37.7-.64a2.28 2.28 0 0 0 .38-1.61c-.01-.74-.02-1.47-.33-2.1.02-.05-.07-.15-.1-.14l-.2-1.23s-.12-.7-.32-1.45c-.02-.3-.14-.63-.3-.84a1.58 1.58 0 0 0-.71-.5c-.12-.04-.23-.06-.33-.07.01-.13.02-.24.04-.3v-1.54c.04-.43.1-1.34.1-.57.1-1.42.06-1.46.1-2.5l.18-1.52.27-3.37c.3 0 .73 0 1.28-.02.25-.06.5-.1.73-.17.22-.01.4-.03.58-.04 2.38.17 6.12.24 6.12.24 10.7.3 16.22-.1 28.96-.2 11.2.07 14.17.34 25.77.23l8.47-.02 9.35-.06c.15-.01.3-.01.45-.02l.23-.01c.04-.04 0-.15 0-.23l-.1-1.03-.16-1.87-.2-2.65c-.13-1.83-.26-3.72-.47-5.23v-.03c2.45 1.22 6.16 3.23 8.82 4.44l1.07.6a74.35 74.35 0 0 1 3.13 1.48l-.07-.01c1.5.64 3.14 1.45 3.9 1.75l-.07-.01 1.8.8-.32-.1 7.65 3.3-.16-.16c4.2 1.87 6.26 2.6 9.5 3.9-.03.14-.04.28-.04.4l-.05-.08c.06.64.34 1.22.7 1.66l.08-.13a1.77 1.77 0 0 0 .43.46l.12.1.16.05c.38.13.67.08 1.07.37l-.02.03c.85-.1 1.07.64 1.94.55-.1.01.02.08 0 .12.36.08.74.18.84-.08.25.1.18.15.17.27.04-.12.28-.1.47-.03l-.1.01.6.16c-.04-.1-.05-.18-.06-.27.34.18.01.32.45.37l.01-.2c.57.1 1.05.27 1.72-.1a2.27 2.27 0 0 0 .31-.31l1.2.46c-.01 0 .12.13.24.23l.34.3c.23.2.47.4.7.58.48.38 1 .74 1.53 1.1 1.1.7 2.3 1.36 3.74 1.9-.77-.3.3.18.24.17 1.42.57 2.95 1 4.15 1.18 1.2.2 2.02.2 2.05.14 2.15.23 1.74.25 2.02.34 0-.08 1.87.1 3.54.33l-.77-.07 2.4.32c.8.1 1.58.27 2.5.22-.37-.02-.7-.1-1.02-.18.66.08 1.04.08 1.33.04.27-.08.35-.08.44-.12s.18-.04.4-.2c.1-.08.25-.23.38-.47a1.19 1.19 0 0 0 .12-.45c.01-.1 0-.16 0-.25 0-.07-.01-.08-.02-.12h0-.1v-.01c-.03-.13-.08-.25-.13-.35.05-.04.25 0 .36-.02a4.42 4.42 0 0 0 1-.16c.38-.1.75-.3 1.06-.57.3-.28.55-.64.6-1.1.04-.23 0-.47-.06-.68-.03-.1-.08-.22-.12-.3-.01-.03-.03-.06-.05-.1a.71.71 0 0 0-.18-.2 1.33 1.33 0 0 0 .3-.06c.03-.01.14-.06.35-.25.18-.16.32-.38.42-.62.2-.25.28-.6.2-.9zm-152.28 13.2c.72.9 1.27 2.04 1.77 3.27.3.5.67 1.42.98 2.26.25.84.44 1.77.6 2.18-.01.08.3 1.43.58 2.38s.42 1.5-.08.02c-.08-.26-.2-.7-.18-.7l-.17-.34a27.35 27.35 0 0 0 .59 2.21l.3.97.08.34c.01.03.01.05.01.07.01.06-.05.1-.1.08-.03 0-.05-.01-.1-.04-.05-.04-.22-.15-.32-.25-.24-.22-.42-.4-.6-.7l-.65-.95c.26.38.56.85.72 1.1.15.22.2.3-.03.03-.52-.8-1.06-1.6-1.7-2.38l.44.45c-.23-.3-.44-.58-.77-.9-.05-.04-.1-.08-.16-.14-.07-.04-.13-.13-.45-.18-.12 0-.22 0-.36.06s-.28.2-.3.27c-.1.2-.1.28-.12.37-.01.15.01.22.01.23 0 .06-.01.3-.01.46l-.08 2.13.1-.6c-.07 2.1-.26 2.83.02 5.25.15 1.1-.06-2.04.15.22.1 1.2.46 2.42.56 3.8.06.67.1 1.4-.03 1.97-.1.32-.1.3-.2.33-.1.03-.18.03-.26.02-.04 0-.1-.02-.13-.03-.1-.05-.25-.13-.4-.28-.12.03-.2.05-.3.06l-2.53-10.37c-.07-.27-.34-.43-.6-.37-.27.07-.43.34-.37.6l2.55 10.45c-.04.02-.06.03-.1.04-.01.16-.05.3-.1.42l-.03.1c-.03.08-.03.06-.03.07l-.03.05c-.04.06-.08.1-.12.15.16-.06-.06.4-.8.08l-.04-.1c-.47-.28-.67-.46-1.14-1.18-.06 0-.1-.01-.16-.01l-2.43-9.5a.5.5 0 1 0-.97.25l2.36 9.23c-.05 0-.1 0-.16.01-.1.13-.26.36-.3.35-.06.04-.07.03-.1.03.02.01-.24-.01-.58-.44.07.05.13.1.2.15-.2-.12-.4-.33-.58-.57-1.6-2.9-.63-1.68-2.42-4.98.64 1.34.15.7-.6-.97l.26.4-.9-1.82c.3.53.22.23-.42-1.1l.5.85c-.44-.84-.9-1.6-1.25-2.46-.77-1.97-1.33-5.3-1.24-6.2 0 0-.06-.92-.03-2.02a24.19 24.19 0 0 1 .09-1.7l.08-.77c.01-.12.03-.23.04-.34.02-.15.05-.3.07-.42-.1-.38-.1-.43-.15-.55.2.66-.04-.53-.08-.92.02 0 .03-.01.05-.01 0 .01 0 .01.01.02v-.02l.23-.06 1.3-.4c.86-.26 1.7-.48 2.54-.48l.1.13c.08.2.37-.4.48-.22l.16-.14c.06.03.18.04.1.1.17-.03.17-.06.28-.15l.2.1c.7-.04 1.22-.42 1.94-.52.8.07 1.96-.33 2.9-.67.01.02.02.05.04.07.66 1.04 1.65 1.87 2.35 2.74zm-2.44-7.85l-.03-.01c.3.37-.02.88.25 1.24-.03-.01-.1 0-.13-.1.1.28.23.66.07.72l.3 1.33-.03-.04c.07.2-.07.12-.14.25-.02-.02-.03-.02-.03-.03.03.18-.63.16-.8.28l-.04-.1-.54.14.2-.02c-.01.3-.45-.1-.8.18-.38.04-.6.78-1.03.72-.15.18.1-.26-.14-.1-.04-.15.1-.13.01-.23-.25.13-.47-.07-.78.1l-.04-.12c-.38.3-.85.01-1.1.3-.42.2-.37-.3-.8.04l-.2-.13c-.2.02-.1.23-.33.2-.01-.1-.3-.02-.2-.15-.53-.06-.96.45-1.67.3-.1.23-.45.18-.53.36-.04-.08-.66.13-.33-.14.03-.02.1-.03.1 0l.02-.13c-.42-.15-.65.27-1.03.3.12.02.26-.03.18.08l-.35.06.05-.12-.52.05.1.1c-.26-.01-.4-.2-.64.03-.1.13.27.12.02.2-.22-.03-.26-.2-.3-.27-.1.13-.1.1-.15.1l.1-.1c-.2.03.22-.18.08-.15l.08-.03c-.08.03-.17.05-.25.07-.33-.3.2-.27-.24-.63.07.17-.24.15-.25-.08l.13.03c-.06-.1-.1-.14-.1-.23.08.06.18-.01.1-.18l.18.08-.3-.28c.06-.3-.2-.66-.06-.8 0 0-.06-.57-.27-.66.14.08.1-.23.26-.18-.16-.1-.37-.5-.28-.7l.02.03c-.01-.33-.13-.6-.24-.84-.06-.05-.12-.1-.01-.14-.15-.04-.05-.08-.23-.15-.04-.15.13-.17.2-.15.1.01.1.02.12-.3.26-.1.35.06.5.05l-.06.04a6.18 6.18 0 0 1 1.01-.27c.17-.1.14-.36.5-.38-.08.13.05.08.17.05-.08.03-.1.08.1.1.02-.04.05-.06.08-.1 0 .01.01.01.01.02.2-.08.16-.1.06-.1 0-.02-.01-.03-.05-.06.25.08.6-.15.66.02.6-.2 1.02-.47 1.52-.66.08.08-.02.2-.17.26l.36-.12c.03.13-.2.12-.3.18.5.1.85-.42 1.4-.34l.08-.13h.03c-.01-.05.08-.16.16-.2.1.1.06.26.3.2.23.06.56-.2.8-.3-.15.01-.12-.06-.06-.1.13-.03.23.06.3-.01l.05.15c-.08-.13.3-.23.33-.3.1.1-.17.14-.2.24.5-.13.25-.07.76-.2.25-.18-.08-.13.02-.3.23-.1.44-.25.74-.22l-.12-.12c.43-.2.7-.26 1.04-.2.53-.32.88-.58 1.1-.8v.25l.45-.1a.81.81 0 0 1 .22 0c.12.12.25.26.33.45.1.2-.01.4-.16.34v.25l-.02.07h-.05c.02.7.07 1.12.4 1.54-.28.15.07.58.01.75zm27.9-20.76l.78.13c2.85.1 5.28-.15 8.3-.1 3.6.27 10.4.02 14.3-.12 5.5-.32 11.9.53 17.53.17.18.03.66-.04.65-.06l5.15.03h1.94l3.08-.03c.12-.01.25-.01.37-.02l.1 1.48c.08.74.2 1.17.3 1.75.05.3.1.6.15 1.03.01.12.03.26.04.42 0 .06.01.12.01.18-1.25-.16-3.08-.23-3.08-.23-5.6-.32-8.5.08-15.17.17-5.86-.1-7.42-.36-13.5-.27-2.9-.03-6 .03-8.83.05-1.35.2-3.72-.01-5.3.17l-.62-.12c-.55.06-1.2.1-1.74.03l.03-.03c-.82.1-1.74.03-2.15.08l.03-.04h-1l.17-.05a42.48 42.48 0 0 1-4.2.05l.1.15c-2.77-.17-3.8.13-6.3-.07l.03-.04c-3.17.37-5-.27-8.27.08.4-.04-.17-.08-.14-.1-1.5.04-3.1.06-3.13.34-1.1-.01-.9-.1-1.03-.2.01.12-.95.17-1.8.18l.4-.05-1.96.04a.53.53 0 0 0 .15.24c-.68-.06-.17-.23-.47-.24.01-.05.02-.1.02-.17l-.23.15a5.13 5.13 0 0 1 .21-.74 31.58 31.58 0 0 1 .32-1.04c.22-.68.45-1.34.68-2.2l.17-.88 4.24-.06 5.1-.1c3.38-.06 6.7-.08 9.8.08l.3.15c.13.2 1.86-.32 2.1-.12l.78-.1c.22.04.68.08.3.13.76-.01.77-.04 1.3-.1zm56.68-47.48l.07.17c.03.06.06.12-.02.13l-.2.12-.15.08-3.55 1.75c-.83.43-1.7.84-2.6 1.25-.14-1.6-.34-3.32-.67-5.3.1-.04.2-.08.3-.12l-.27-.03c1.06-.6 1.73-.9 2.53-1.1 1.33-.83 2.23-1.43 2.82-1.87l1.04 2.97.7 1.95zm-9.2-24.68l.01.37c-.12.22 1.18 1.8 1.1 2.17l.44.8c.06.25.22.77.01.37.3.8.35.8.63 1.33l.2.9c1.12 3.14 2.35 5.7 3.5 9.02.32 1.12.77 2.5 1.28 4-.7.2-1.44.5-1.44.5a29.14 29.14 0 0 0-3.78 1.66c-.32-2.43-.7-4.65-.93-4.65-.28-2.08-.16-1.7-.1-2-.14.03-.42-1.77-.74-3.4l.18.74a78.61 78.61 0 0 0-.99-4.61l-.02.95c-.52-2.44.16-.7-.5-3l-.18.08c-.86-3.34-1.2-5.36-2.28-8.56-1.43-3.7-3.25-7.38-5.46-10.82 3.75 4.38 6.97 9.3 9.06 14.14zm-21.92-27.18c-.07-.04-.14-.1-.2-.13.12.06.2.1.2.13zm-59.43 32.45c.4.2 1.4.95 1.7 1.38l-.08-.05c1.3 1.35 2.5 1.98 3.62 3.22.04-.16.64.5.6.2 1.4 1.02 2.1 2.38 2.93 2.37.6.5.6.72.88 1l-.16-.1a55.96 55.96 0 0 1 2.25 1.97c.44.32.68.18 1.37.88-.3-.13 0 .12.28.36-.18-.14-.26-.16.05.2.07.02.16.08.25.13 0 .01.01.03-.01.03.48.38.42.28.22.08.02 0 .02-.03-.03-.1.38.52 1.32 1.17 1.25 1.36 1.4 1.2 2.5 1.93 3.67 2.9.07.18-.26.01-.6-.26l.83.7c-.1.1-.5-.36-.78-.56.8 1.02 2.12 1.6 3.1 2.77l.3.13.06.07c.03-.04.34.12.52.26.08.23-.2.2.37.68.36.48 1.3 1.08 1.9 1.55-.3-.3-.15-.25.01-.16.28.25.36.48.6.63l-.08.14c-.01-.2.83.53.98.58.08.23-.5-.3-.63-.3l1.7 1.5c.67.45-.01-.2.37-.05.55.45 1.13.83 1.67 1.44l-.1-.28c1.06.8 1.64 1.35 2.2 2.05 1.4 1 2.4 1.65 3.1 2.06l-1.37 1.6-2.23 2.64-.2.27c-.02.01-.03.06-.05.05l-.24-.2-.14-.12-.45-.4-1.76-1.54-1.76-1.53c-.37-.4-.74-.8-1.18-1.08.05.01.12-.03.32.15-.64-.54-1.53-1.27-1.46-1.44-1.46-1.3-3.4-3.16-4.54-3.88l-.06-.06.05.01a.88.88 0 0 1-.1-.06c-3.3-3.22-6.62-6.63-10-9.42-.14-.17-.62-.52-.63-.5l-3.76-3.5-.1-.16a1.04 1.04 0 0 0-.35-.25l-.4-.38-.2-.2c-.13-.16-.32-.35-.1-.24-.96-1.1-2.33-1.83-3.55-3.33-.4-.12-.93-.7-1.28-.9-.1-.08-.17-.15-.25-.23-.32-.34-1.1-1.03-.35-.56.08.05.2.16.17.18h.18c-.65-.9-1.55-1.25-2.32-2 .2.25.53.53.26.4l-.73-.7.22.07-1.06-1.06.07.23c-.5-.54-.54-.88-1.27-1.3-.34-.18.4.6-.2.1a4.06 4.06 0 0 1-.27-.3c-.1-.1-.07-.1-.1-.14-.04-.07-.07-.13-.1-.18.03-.03.06-.05.1-.08l.1-.07c.04-.03.02 0 .1-.08.1-.1.22-.22.32-.33l1.22-1.2c.07-.05.17-.14.3-.3l.17-.17v.1-.1l.72-.72.02.02c-.05 0-.08.03-.1.07-.04.01.07.14.28.3l-.36-.12.88.5c.48.6 1.5 1.3 1.6 1.63 0 0 1.16 1.16 1.57 1.27-.32-.14.33.5.04.43zm19.93 26.17c1.67 1.73 3.34 3.54 5.16 4.92.07.1.36.28.38.26l2.6 2.45 2.43 2.22 1.74-1.98 1.14-1.36c.73-.9 1.36-1.7 1.66-2.23.26-.45.28-.67-.1-.5.12-.14.24-.3.37-.42.05-.08.08-.13.1-.17.01 0 .03.01.04.01-.06.17-.18.5.32-.2.15.07-.34.57-.01.37.8-1.12 1.56-1.64 2.54-3.04l.14.02c1.2-1.87 2.72-3.18 3.45-4.5 1.3-1.88 1.23-1 2.46-3.06l.7-.65c.62-.8.26-.72 1-1.6.05.12.9-1.1.6-.52 1.6-2.02 2.8-4.4 4.78-7.17.22-.73 1.16-2.17 1.3-2.72.13-.04 1.64-2.97.9-1.2-.06.15-.2.4-.23.37v.26c.44-.62.78-1.23 1.08-1.86l-.13.1 1-2.23a.64.64 0 0 1 .04-.15l.18-.34c1.3-2.92 3.15-7.26 3.06-8.07-.14-1.24-6.14 9.95-6.14 9.95-2.04 4-4.32 7.7-6.8 10.97l-.32.2c-.25.01-1.04 2.02-1.4 2.15l-.47.83c-.2.2-.56.62-.3.2-.53.7-.5.74-.84 1.28l-.67.68c-2.17 2.7-3.8 5.18-6.13 7.98-.2.2-.4.44-.62.68-.5-.6-1.08-1.16-1.08-1.16-2.7-2.83-4.46-3.87-7.98-6.9-2.98-2.77-3.6-3.7-6.82-6.44-1.48-1.36-3.12-2.75-4.6-4.04-.84-.47-1.93-1.73-2.87-2.33l-.24-.38c-.32-.2-.68-.48-.93-.78l.04-.01c-.48-.3-.93-.78-1.17-.94l.04-.01-.52-.45.12.04a19.98 19.98 0 0 1-2.21-1.91l-.04.16c-1.33-1.4-2.05-1.66-3.22-2.96l.04-.01c-1.9-1.18-2.4-2.52-4.34-3.76.24.16-.04-.14 0-.15-.8-.67-1.65-1.4-1.85-1.2l-.12-.12c3.86-3.94 6.06-6.8 11.02-12.06 2.52-2.52 4.14-4.1 5.84-5.55 1.73-1.46 3.47-2.94 6.37-5.13 2.8-2.02 5.94-4 9-5.37 1.37-.86 4.08-1.62 5.86-2.18l.73-.03c.6-.2 1.36-.33 2-.36l-.04.04a14.51 14.51 0 0 1 1.42-.18c.44-.01.83-.02 1.07-.05l-.04.04c.38-.02.77.01 1.15.02l-.2.04c1.54-.03 3.1.25 4.45.67.1.01.2.02.28.04l-.05-.12c.17.06 3.14 1.05 3.3 1.1l1.9.28c.18.1.36.2.54.33.18.04.36.07.54.12 2.03.5 4.16 1.35 6.26 2.77 1.1.33 3.07 2 3.8 2.4.02.1 1 .92 1.65 1.57s1 1.04-.1.1c-.2-.16-.5-.47-.46-.47l-.34-.14c2 2.1 3.83 3.66 5.53 6.03-.47-.72-1.2-1.6-.66-1.06.56.7 1.06 1.46 1.6 2.2l-.4-.4c.76 1.1 1.46 2.25 2.14 3.4l-.18-.54c.96 1.73 1.1 2.44 2.28 4.34.54.86-.7-1.75.28.1 1.1 2.4 2.53 6.13 3.5 9.36.04-.35.3.52.62 1.4l-.1.14c1.15 3.4.12 1.33 1.13 4.75l-.16-.3.47.86c.9 3.1.14 1.73 1.07 5.2-.24-1.4.17-.7.38 1.03l-.2-.42c.17.95.28 1.27.34 1.9-.15-.56-.2-.28-.01 1.13l-.27-.93.57 2.65c.14 2.1.68 5.36.6 6.23 0 0 .4 4.48.68 5.5-.2-.9 0 1.58-.2.9.25 1.15.7 4.56.68 5.95l-.04-.26c.34 5.1.98 8.67 1.2 13.25.13-.22.25 2.2.38 1.6.57 4.7.32 8.64 1.03 10.3.2 2.15.06 2.56.12 3.67l-.07-.5.42 4.98-1.07-.03-1.66-.02c-1.04.01-1.97.06-2.94.18-.3-.3-2.32-.03-2.98-.12l.06-.02c-1.72.22-3.54-.18-5.2.01.06-.02.1-.1.48-.1-1.2.04-2.86.1-2.95-.07-2.9.04-6.92-.03-8.77.23l.13-.05c-1.05.18-1.36.03-2.54.12-.06-.02-.15-.03-.13-.04-1.15.18-3.35.03-4.28.1l-.06-.1-2.3.03.85.02c-.3.3-1.73-.2-3.4.01-1.55-.04-3.15.64-4.76.5-.77.14.68-.23-.47-.12-.04-.16.54-.1.24-.23-1.13.08-1.85-.16-3.24-.06l-.06-.12c-1.8.23-3.42-.16-4.63.05-1.87.1-1.26-.37-3.2-.13l-.76-.17c-.83-.03-.6.2-1.52.12.06-.1-1.17-.08-.63-.2-2.1-.17-4.25.24-7-.04-.6.2-2 .08-2.43.24-.07-.1-2.78-.01-1.22-.2.13-.02.37-.01.35.02l.2-.12c-1.57-.23-2.86.13-4.4.1.46.04 1.07.03.66.1l-1.45-.02.3-.1-2.15-.06.3.13c-1.05-.07-1.42-.28-2.6-.1-.54.1 1 .17-.1.2-.2-.01-.44-.02-.66-.02l1.37-5.6v.25c1.1-5.27 1.77-8.6 2.22-12.3.4-.53.85-4.34 1.18-5.57v.12c.4-3.27 1.44-6.62 1.83-9.77 0 .12.07.2-.07.92l.83-4.58 2.23-2.8c.18.17.35.3.5.44zm-12.78 44.7a12.22 12.22 0 0 1-.06.4c-.04.24-.08.44-.1.6-.07.32-.12.52-.18.68-.06.18-.12.3-.2.53l1.06-12.17c.44-3.54.86-8.7 1.33-13.87.26-2.6.53-5.2 1.06-7.55.13-.58.3-1.15.48-1.67l.15-.38c.03-.07.03-.08.05-.1l.12-.18.48-.7a102.81 102.81 0 0 1 1.81-2.56l1.4-1.9-.86 5c-.1.34-.2 1.24-.17 1.24l-1.85 9.66-3.1 17.12c-.08 0-.15-.01-.23-.01l-1.03 4.7c.17-.14.08.34.02.83l-.13.03c-.02.1-.03.2-.04.3zm123.3 8.77l-.24.47.14-.02c-.15.22-.4.23-.32.56.05.16.25-.17.2.1l-.2.3.13-.24c-.04.02-.08.05-.12.06h-.07c-.04 0-.08-.01-.1-.02.05.14.03.14 0 .18l-.02-.13c-.1.18-.02-.28-.07-.15l.03-.08c-.02.08-.05.17-.13.23-.47.1-.13-.32-.68-.15.18.04-.01.3-.2.16l.1-.1c-.13-.02-.18.02-.25-.03.1-.04.1-.15-.1-.2l.16-.1-.4.1c-.2-.2-.67-.2-.72-.4 0 0-.52-.26-.7-.13.15-.07-.14-.22-.01-.3-.18.08-.63.03-.76-.15h.04c-.35-.2-.7-.23-1.02-.3v-.02c-.01.01-.01.01-.02.01a1.74 1.74 0 0 1-.22-.05l.16.08c-.03 0-.06-.01-.16.06-.15-.05-.08-.2-.03-.26.06-.1.05-.05-.17-.28.06-.27.24-.26.3-.4l.01.07a6.99 6.99 0 0 1 .32-1c.01-.2-.23-.32-.05-.62.06.14.1 0 .13-.12-.01.08.02.12.14-.01-.02-.03-.03-.07-.03-.1h.03c.04-.2-.01-.2-.05-.1-.01-.01-.04-.01-.07.01.2-.16.2-.6.38-.55.18-.62.16-1.12.27-1.64.1-.03.14.12.12.28l.1-.37c.12.05 0 .23-.02.35.36-.35.1-.95.48-1.38l-.06-.14.03-.02c-.05-.02-.08-.16-.08-.24.14-.03.25.1.33-.15.18-.16.15-.57.18-.85-.07.13-.1.06-.13-.01.04-.12.18-.16.16-.27l.15.04c-.16 0-.03-.38-.08-.44.14-.03.03.23.1.3l.25-.75c-.02-.3-.16 0-.24-.18.05-.24.03-.5.22-.74l-.16.04c.06-.48.16-.73.4-.98.02-.87-.03-1.38-.13-1.68.1.06.22.13.36.23l.08-.22c.04-.06.1-.1.16-.16.15-.02.35-.05.56-.02.22.01.4.17.3.3l.1.05.08.08-.05.03c.6.37.98.56 1.5.53-.04.3.5.25.62.4l-.02.02c.47-.04.73.5 1.18.48-.02.02-.06.08-.15.05.3.08.68.18.64.34l1.1.42-.2-.12c.18.12.23.12.4.2h-.05c.2.06.07.13.14.26-.02 0-.04.01-.05.01.04.04.04.08.04.13-.01.06-.05.18-.1.26-.07.18-.16.36-.16.47l-.1-.03-.17.53.1-.2c.26.18-.33.33-.28.78-.17.34.33.94.05 1.26.07.23-.16-.24-.16.06-.15-.05-.05-.16-.2-.13-.03.28-.3.37-.33.72l-.12-.03c.06.5-.45.72-.35 1.08-.06.46-.45.16-.4.7l-.22.1c-.1.18.14.2-.01.4-.1-.05-.18.24-.23.08-.33.42-.14 1.05-.64 1.58.14.2-.1.48.01.64-.1-.01-.25.63-.3.2 0-.04.02-.1.05-.07l-.1-.1c-.35.28-.13.7-.3 1.04.08-.1.12-.24.16-.1l-.14.32-.1-.1zm27.95 6.3l-.1-.02c-.54.27-.8.33-1.66.34-.03.03-.04.05-.07.08-.06-.06-.12-.1-.2-.15l-8.35-3.2a12.99 12.99 0 0 0 .32-.89c.1-.2.1-.4.3-.5l.3-1.04 9.52 4.08c.08.07.15.15.22.23.1.15.07.1.1.16.02.06.04.1.04.16.03-.07.08-.02.07.13s-.16.45-.47.63zm1.06-3.24a.61.61 0 0 1-.13.22c-.04.04-.05.05-.13.1l-.2.1-.28.08c-.07.22-.13.36-.17.46l-9.37-4.02c.3-1.17.36-1.54.36-1.54 0-.3-.1-.6-.4-.6s-.5.1-.6.4c0 0-.1.7-.9 3.4-.3 1.1-.7 1.9-1.1 2.7-.1.3-.3.6-.4 1-.1.2 0 .5.3.6.2.1.5 0 .6-.3.1-.4.3-.6.4-1l.2-.43 8.38 3.22c-.04.07-.1.16-.18.3.06.14.14.43.12.44 0 .07-.02.08-.03.1-.01.02-.04.05-.13.12-.06.03-.1.07-.2.1-.06.02-.03.02-.07.02-.05.01-.1.02-.18.02.01 0 .02-.01.03-.01a3.26 3.26 0 0 1-.6.1c-3.3-.27-1.77-.42-5.52-.68 1.48.17.68.24-1.14 0l.47-.02c-1-.1-1.35-.1-2.02-.2.6.02.32-.06-1.15-.22h1c-.95-.07-1.84-.1-2.74-.26-2.08-.4-5.2-1.72-5.9-2.27 0 0-.83-.46-1.76-1.1-.46-.32-.96-.67-1.4-1l-.6-.48c-.1-.08-.18-.15-.26-.2l-.3-.28c-.23-.08-.33-.1-.4-.13.45.1-.6-.3-.93-.46 0-.02.01-.03.01-.04.01 0 .02 0 .04.01-.01 0-.02-.01-.04-.01.4-1.32.7-2.7 1.38-3.8l.16-.02c.2.05-.14-.54.07-.52l-.02-.2c.05-.04.13-.13.14-.02.07-.16.04-.18.02-.32l.2-.13c.34-.62.3-1.26.6-1.93.5-.63.8-1.9 1.02-2.88.05 0 .1.01.16.01 1.23.03 2.48-.36 3.57-.5 1.14-.1 2.4.02 3.7.27.58.03 1.53.2 2.44.4.02 0 .07.01.06.01.8.16 1.7.5 2.1.58.06.05 1.37.5 2.3.8s1.5.47-.03.08c-.26-.07-.7-.2-.67-.22l-.38-.04c.74.28 1.45.5 2.16.7l1 .27.4.14c.02.01.04.01.06.02.05.02.08.1.04.13s-.03.06-.4.18c-.3.1-.6.14-.9.15l-1.16.04 1.32-.01c.26-.02.34-.01.01.04a23.95 23.95 0 0 0-1.44.04c-.6.04-1.65.1-2.15.32.2-.1.46-.2.78-.26-.48.06-.88.18-1.1.35-.1.08-.2.17-.26.27-.02.02-.03.06-.05.1-.2.28-1.5 1.9-3.96 2.44-2.5.5-4.4-1.3-4.4-1.3-.2-.3-.5-.2-.7 0-.3.2-.2.5 0 .7.2.1 2.4 2.2 5.4 1.6 2.3-.5 3.64-1.7 4.27-2.43l.1.08.5.32 1.4.93-.45-.4c1.73 1.18 2.25 1.73 4.42 2.8 1 .47-1.73-1.06.27 0 .5.28 1.13.55 1.7.77a28.13 28.13 0 0 1 1.81.81c.6.3 1.23.67 1.63 1.07.26.22.23.2.2.32z"/></svg>