<svg xmlns="http://www.w3.org/2000/svg" viewBox="0 0 480 480" xmlns:v="https://vecta.io/nano"><path d="M325 73.5l-3.9.1c-1.03.01-1.25.82-1.9 1.93l-4.36 8.36-.18-.33s-5.68 3.27-6.9 4.94c-1.24 1.57-2.9 3.74-2.94 6.23-.05 2-.57 7.6-1 8.88-.5 1.77-5.8 10.35-9.35 16l-.2-.14c-.5-.4-1.4-.3-1.8.3-2.1 2.7-10.6 12.6-14.5 15.1-1.97.96-10.36-6.66-17.78-14-2.83-6.63-7.08-10.95-10.94-13.66l.22-4.04-8.3-4.7-.38 1.34-.02-.04-20.5-7c-.5-.2-1.1.1-1.3.6l-1.6 3.8 1.36 1.2c-11.72-.72-20.8 10.13-30.26 24.2-7.6 11.2-17.8 28.7-19.8 36.5-.72 2.8-1.25 5.72-1.2 8.58-.5 4.44 1.3 8.54 3.5 12.32 2.32 3.78 8.26 7.34 15.76 7.12l-6.46 26.9h45.2c4.37 0 9.86-2.34 12.6-6h26.2c.01.13.01.27.02.4.1 3.1 2.7 5.6 5.9 5.6h4.9s-1.65-16.92-4.3-37.06c8.9.73 15.28-2.27 23-11.04 10-11.3 18.1-27.8 19.7-31.8.2-.6 0-1.3-.5-1.6l-6.87-4.77 8.16-17.93 1.25-1.4s3.4-4.02 4.43-5.5c.76-.93 3.14-8.76 4.6-13.75.37-.33.63-.76.74-1.33.06-.28 0-.52-.14-.73l.4-1.37c.26-.26.47-.62.62-1.08.5-1.46-2-2.06-3.1-2.47l3.2-6.73c.42-.88-.26-2-1.26-1.92zm-98.14 148.1l-36.3-4.2c-2.7-.4-5 1.5-5.4 4.2l-2.2 19.3c-.4 2.7 1.5 5 4.2 5.4l36.3 4.2c3 .3 5.6-1.8 6-4.8l2.1-18.2c.3-2.9-1.7-5.6-4.7-5.9z" fill="#fff"/><path d="M314.46 89.3h0l.02.05z"/><path d="M323.75 81.87l2.96-6.23a1.9 1.9 0 0 0-.16-1.87c-.37-.53-.96-.82-1.56-.77l-3.9.1c-1.14.01-1.57.8-2.02 1.65l-.3.55-3.8 7.28c-.02-.03-.04-.05-.06-.08l-3.02 1.9-2.76 1.97-1.3 1.04-.55.56-.43.5c-.54.66-1 1.27-1.42 1.93a9.99 9.99 0 0 0-1.1 2.27 7.81 7.81 0 0 0-.32 1.52l-.07 1.67-.7 6.8c-.02.53-.2 1.07-.55 1.74l-.95 1.9-.3.38c-.18.4-.4.84-.66 1.2v-.03c-.28.58-.67 1.2-.8 1.48v-.03l-.4.68.04-.13-1.67 2.84.12-.03-2.62 4.2v-.03c-.5 1 .88.62 3.7-3.5-.12.03.44-.8.22-.65.92-1.73 2.03-2.94 2.1-3.73.44-.78.6-.87.84-1.27l-.1.2 1.6-3.02c.13-.28.16-.48.2-.74l.28-1.12c-.02.38.07-.1.14-.5-.04.27-.02.35.1-.2a1.68 1.68 0 0 1 .01-.31c.01 0 .01-.02.02-.01.08-.7.04-.58-.01-.26-.01-.02-.02.01-.05.1.2-.7.25-2 .36-2.07l.23-5.3c.07-.17.1.18.1.7l.06-1.18c.07.03-.03.63-.02 1.03.08-.73.13-1.37.34-2.1a6.62 6.62 0 0 1 1.02-2.11l.13-.32.06-.08c-.03-.01.14-.35.28-.56.2-.15.1.1.62-.56.1-.12.24-.28.38-.46l.15-.18c.01.14.08.2.18.17.2-.03.54-.3.56-.3.8-.5 1.06-1 2-1.73.9-.56 1.2-.58 2.1-1.22l1.33-.87c.12-.22.1-.07.2-.24v-.01c0 .03-.01.07-.02.1.02-.04.05-.04.04.02v.02c.05-.03.04.03.06.02l-.02.01.02.03-.03.01c.02-.03.08.12.1.2a1.02 1.02 0 0 1 .03.3l.08-.02c-.07.4.1.57-.12.9l-.02-.01c.04.54-.45.7-.52 1.28.01-.07-.05 0-.07-.01-.1.23-.24.47-.1.57-.1.16-.13.1-.2.08.06.04-.01.2-.1.32l.02-.07c-.07.12-.16.24-.24.36h.16c-.17.16-.17-.06-.28.13l.1.07c-.23.23-.47.26-.75.4l-.96.98-.5.47-.26.22-.44.3-.1.43-.07.3-.17.5-.1.03c-.13 0 .1.37-.01.4l.03.15c-.03.03-.07.1-.1.04-.03.13-.01.13 0 .23l-.1.12c-.17.5-.12.95-.28 1.47-.3.6-.47 1.82-.6 2.5-.02.25-.12.5-.23.75l-.5 1.1a2.3 2.3 0 0 0 .15.32c.03.05.06.1.1.16.02.02.05.02.1.05l.57.4c.15.04.35.08.4.07.02.03.1.01.1-.01a4.87 4.87 0 0 1 .77.36l1.55.85c.6.3 1.04.28-.1-1.17l.04-.01c-.4-.34-.7-.53-1.1-.57.03-.2-.4-.2-.5-.3l.02-.01c-.14 0-.26-.05-.4-.1l-.2-.1c-.01-.02-.03-.03-.05-.03-.02-.01-.05 0-.1.02.01-.01.05-.05.07-.05-.05 0-.15.02-.16.01s.01-.02.05-.05c-.05.01.01-.08.01-.12.02-.06.02-.1.03-.17a1.48 1.48 0 0 0 .05-.44l.02.03c-.02-.13.01-.2.04-.27v.15l4.7.38c.73.02 1.32-.32 1.78-1.05l.04-.08c.5.2 1.03.3 1.57.32.33.01.66-.02.96-.1 1.2-.04 2.02-.33 2.54-.9.12-.13.22-.27.3-.43l-1.8 5.57.01-.1-.17.5-.17.3-.02.03-.58.8c-.04.03-.1.08-.08.07-.46.78-1.62 2.06-2.05 2.65l-.08-.01-1.13 1.4.44-.5c-.01.3-.94.97-1.73 2-.16.17-.23.27-.43.52-.4 1.07-.56 2.06-1.07 3-.17.6.1-.54-.22.3-.1-.01.12-.4-.05-.23-.33.83-.7 1.28-1.1 2.3l-.1.01c-.47 1.36-1.2 2.4-1.48 3.33-.55 1.37-.6.8-1.1 2.26l-.34.5c-.3.6-.08.48-.43 1.12-.04-.07-.43.82-.3.4-.6 1.1-1.03 2.34-1.67 3.7.03.2-1.36-.86-1.1-.46-2.92-1.8-4.9-3.87-6.25-4.1-1.3-.86-1.44-1.16-2.08-1.65l.32.2-2.23-1.5a2.15 2.15 0 0 0-2.94.5l-.77.95c-.64.86-.54 1.17-1.84 2.6.33-.54-.17.07-.64.62.3-.36.35-.5-.32.18a3.49 3.49 0 0 1-.3.45c-.01 0-.04.02-.04 0-.77.93-.6.8-.22.38-.01.03.04.01.18-.1-.92.85-2.32 2.6-2.56 2.6l-6.34 6.64c-.32.13.18-.34.8-.95l-1.6 1.34c-.06-.1.9-.77 1.36-1.23l-1.5 1.13c-.32.22-.32.27-.48.3-.07.01-.12.01-.22-.01-.12-.02-.25-.06-.4-.1-1.13-.4-2.36-1.2-3.46-2.16l-.55-.3-.13-.12c-.03.05-.6-.3-.95-.57-.25-.36.2-.18-.94-1.12-.82-.83-2.54-2.13-3.7-3.12.6.57.36.44.07.23-.55-.5-.78-.87-1.23-1.23l.06-.16c.1.3-1.52-1.2-1.76-1.35-.23-.37.9.72 1.1.78l-3.23-3.07c-1.22-1.02.1.3-.54-.12-.07-.06-.14-.12-.2-.2-.65-1.64-1.46-3.07-2.12-4.3-1.98-3.27-4.5-6.54-7.67-9.28-.5-.45-1.04-.87-1.6-1.3l.2-3.43c.02-.28-.13-.55-.38-.7l-8.3-4.7c-.2-.1-.44-.13-.66-.04-.2.1-.37.27-.44.5l-.15.55-19.75-6.74c-.87-.35-1.9.12-2.27 1l-1.6 3.8c-.03.06-.04.13-.05.2-.34 0-.68.01-1 .02-.9.14-1.76.24-2.57.42-.8.24-1.58.48-2.34.74l-2.17 1c-2.8 1.54-5.44 3.62-8.62 6.87-2.8 2.84-4.43 4.77-6.06 6.73-1.6 1.98-3.17 4.03-5.43 7.44-2.23 3.2-4.45 6.72-6.42 9.97-.78 1.64-2.6 4.27-3.54 6.2l-.52.66c-.32.67-.72 1.43-1.14 2.05l-.01-.06c-.46 1-1.12 2.06-1.35 2.56l-.01-.06-.63 1.18.07-.23c-.84 1.73-1.76 3.48-2.6 5.02l.2-.06c-1.82 3.28-2.15 4.63-3.6 7.7l-.02-.06c-.6 2.08-1.16 3.75-1.58 5.4-.43 1.67-.83 3.4-.76 5.68-.02-.57-.08.24-.12.2-.02.6 0 1.23.04 1.8-.08 1.6.1 3.22.55 4.73.4 1.63 1.08 3.14 1.75 4.58l1.07 2.1c.33.68.8 1.37 1.24 2.03l.07.3c-.04.1.32.4.68.67.37.27.78.5.8.65l.6.4c.14.15.46.43.14.26.53.4.57.38 1 .6.16.18.35.33.53.5 2.2 1.44 4.42 2 7.06 2.56.95.3 2.2.46 3.57.48l-1.33 5.8-2.28 9.75-1.16 4.7-1.33 5.16-.4 1c-.05.1-.1.27-.18.54.37.01.95-.01 1.58-.04l.98-.05.5-.03.32-.03c.74-.07 1.44-.1 1.64-.03l1.44-.1c.4.04 1.25.08.54.13.95.01 1.24-.01 1.67-.04l-.26 2.06c-.04.03-.1.05-.13.08l-.1-.08c-.8.6-.92.7-1.12.77-.16.08-.4.13-.92.97-.02.13-.03.26-.04.4-.3.8-.4 1-.55 1.23a2.07 2.07 0 0 0-.18.45c-.04.2-.1.6-.04.97.05-.63.3-.26.16.5l-.1-.2c-.02.43.01.58-.05.86-.04-.26-.16-.16-.2.47l-.1-.44.08 1.2c-.23.9-.24 2.37-.45 2.72 0 0-.3 1.95-.17 2.43-.07-.4-.24.67-.34.34.07.53.01 2.04-.2 2.63v-.12c-.4 2.2-.24 3.83-.64 5.8.15-.07-.04.97.17.74a11.27 11.27 0 0 1-.14 1.48c-.06.44-.18.9-.2 1.4-.05.94.2 1.7.62 2 .48.97.5 1.2.86 1.67l-.2-.18c.7.8 1.3 1.14 1.82 1.42.54.27 1.03.46 1.8.6.7.05.8-.22 2-.02-.4.06.1.1.53.15-.28-.02-.37.01.2.15.1-.02.2-.03.33-.03 0 .01.03.02.01.03.74.05.6 0 .28-.05.02-.01-.01-.04-.1-.08.74.22 2.12.24 2.18.43 2.2.2 3.8.2 5.64.35.2.12-.24.15-.78.12l1.3.12c-.03.13-.76-.01-1.16-.03 1.52.4 3.2.15 5 .56l.4-.06.1.03c0-.06.42-.08.7-.07.24.15-.05.27.85.36.7.2 2.02.18 2.96.22-.5-.08-.33-.12-.1-.14.45.05.7.2 1.05.18l.02.16c-.16-.17 1.2-.02 1.36-.07.24.15-.7.02-.83.1l2.7.3c.97-.01-.16-.17.32-.25.85.07 1.7.05 2.65.26l-.3-.17c1.6.08 2.55.2 3.6.47 2.46.05 4.02.02 4.95-.04.96.48 1.65.3 1.86.18.33-.2.33-.36.12-.48-.16-.06-.08-.1-.2-.18-.1-.06-.2-.13-.3-.2-.18-.12-.3-.23-.3-.23-.5-.5-.85-.94-1.2-1.53-.33-.58-.66-1.34-.65-2.46.3-2.18.66-2.83.82-5.18.15-1.13.23-2.34.32-3.45-.15-.55.16-1.45.06-2.1l.15-.23c-.04-.22-.05-.48.04-.68l.03.02c-.05-.33.04-.68.02-.85l.03.02.03-.4.04.07c-.03-.57.03-1.14.13-1.64l-.15.03c.3-1.06.03-1.5.34-2.44l.03.02c-.12-.64 0-1.12.13-1.6.13-.45.24-.83.25-1.4 0 .14.1-.03.12-.01.12-.48.37-.94.13-1.1.2-.32.24-.2.35-.18-.1-.07.04-.36.23-.58l-.05.13c.16-.22.35-.4.56-.58l-.27-.1c.4-.2.25.15.56-.1l-.1-.17c.56-.27 1-.07 1.44.06.04.01.08.01.12.01.07.04.13.07.2.1l.35.07c.12.01.23.07.35.1a2.98 2.98 0 0 1 .67.33c.43.3.8.7 1.1 1.2a4.49 4.49 0 0 1 .35 3.41l-.16.1c-.22.03.23.76.02.84l.06.32c-.05.08-.1.26-.14.1-.04.28-.01.3.03.5l-.17.3c-.23 1.1-.08 2.07-.27 3.24-.43 1.38-.5 4.05-.52 5.6.07 2.17-1.07 4.58-.95 6.8-.04.07.01.23.04.24-.07.6-.24 1.13-.5 1.63 0 0-.2.48-.62.98-.4.52-1.04 1-1.6 1.24-.55.24-1.02.32-.94.58.05.1.25.3.73.4.47.1 1.3.13 2.3-.37l-.02.07c1.05-.68 1.5-1.42 1.7-2.23l.1-.15c.12-.05.2-.24.27-.46.4-.8.6-1.58.64-2.23.06-.53.08-1.03.1-1.53.01-.01.02-.02.03-.02.03-.37.08-.8.12-1.22.15-.56.14-1.74.26-2.17l.02.05c-.05-1.46.52-2.93.5-4.34.02.06.1.1.06.4.08-1 .18-2.4.35-2.45l.43-3.98c.07-.67.12-1.3.16-1.88.01-.1.01-.2.01-.3a5.93 5.93 0 0 0 .02-.44v-.4c-.01-.1-.01-.23-.02-.35v.04c-.01-.04-.01-.07-.02-.1-.02-.4-.04-.8-.03-1.27-.24-.23-.28-.87-.5-1 .1-.07-.48-1.18-.01-.6.04.05.08.15.05.16l.15.03c-.07-.8-.7-1.18-1.18-1.76.1.2.3.42.12.32a3.8 3.8 0 0 0-.46-.52l.18.03c-.23-.27-.5-.52-.8-.73l.06.2c-.03-.03-.06-.05-.1-.08l.7-7.62c.2-.07.4-.14.6-.22 2.42-1 4.86-2.35 6.8-4.46.1-.1.2-.24.3-.35h1.6c3.46.14 8.44.14 13.5.1l9.93-.15c.02.22.05.44.1.63.18.88.5 1.62.93 2.27.87 1.26 2.02 2.34 4.05 3l-.07.02c.66.15 1.3.16 1.9.15.52-.02 1.02-.03 1.5-.03h1.42l2.07.05.6.01.3.01c.07.02.05-.05.05-.1l-.01-.15-.1-1.2-.17-1.94c-.1-1-.24-2.03-.45-3.2.1.58.05-.26.1-.22-.27-2.17-.54-4.5-.83-4.5-.17-1.58-.05-1.3.03-1.52-.12.02-.33-1.35-.47-2.58l.1.56-.45-3.54-.15.72c-.15-1.88.23-.5-.03-2.3l-.2.05c-.26-2.6-.16-4.16-.3-6.7-.4-3.47-.88-7.02-1.4-10.57l.8.15c1.2.07.85-.2 2.17-.16-.07.13 1.68-.03.9.14 3.05-.12 6.03-1.36 9.54-3.15.3-.33.93-.67 1.46-1.1.54-.4 1.06-.8 1.27-1.06.17.05 3-2.54 1.46-.94-.13.14-.4.35-.4.3l-.12.27c.92-.64 1.7-1.3 2.35-2.07l2.08-2.3c-.47.45-1.04 1.1-.7.6l1.38-1.48-.2.38c.7-.72 1.37-1.47 2.03-2.23l-.37.23c1-1.07 1.5-1.35 2.38-2.76.4-.65-1 .98-.07-.25.65-.74 1.4-1.7 2.22-2.7.77-1.03 1.62-2.1 2.32-3.14-.25.1.13-.44.5-1.03h.15c1.3-2.3.76-.67 2.06-2.95l.1-.5c1.02-2.16.9-.95 1.95-3.4-.5.9-.48.28.2-.8l-.06.34c.34-.62.4-.86.66-1.25-.15.4.04.28.54-.64l-.2.68.77-1.83c.85-1.27 1.84-3.48 2.27-3.96l.8-1.54c.4-.82.83-1.74.9-2.12-.18.65.64-.98.54-.45.13-.4.42-1.2.74-2.02l.26-.65c.12-.36.16-.72.14-1.05-.04-.7-.36-1.28-.67-1.6a1.88 1.88 0 0 1 .24.25c-.16-.22-.36-.4-.56-.54-2.46-1.82-4.5-2.97-6.67-4.54l1.53-3.2.18-.18c.16-.04.43-1.4.62-1.54l.2-.58c.1-.15.27-.47.17-.18.24-.52.23-.54.36-.93l.33-.52c1-2.02 1.64-3.82 2.64-5.96.26-.5.55-1.1.86-1.74l.92-2 1.17-1.35 1.17-1.46 2-2.6 1.15-1.58-.02.03c.34-.5.5-.96.7-1.43l.55-1.4 1.05-2.84c.68-1.9 1.3-3.8 1.75-5.65.06-.13.13-.5.1-.5l.62-2.1c.33-.33.58-.76.7-1.36a1.51 1.51 0 0 0-.06-.79c.04-.12.08-.26.13-.44l.24-.84c.22-.27.4-.6.55-1.04.6-1.7-1.56-2.45-2.86-2.9zM241.2 102.1c-.06-.05-.12-.1-.18-.14-.74-.58-1.54-1.14-2.45-1.7a21.74 21.74 0 0 0-2.11-1.13l3.78 1.3.96 1.68zm7.48 1.54l-.3 5.42-2.94-2.52-3.87-6.78.03-.12 7.07 4zm-29.03-9.95c.05-.14.23-.22.36-.17l12.57 4.3a26.36 26.36 0 0 0-1.02-.2c-1.4-.26-2.83-.35-4.24-.36-.7 0-1.4.01-2.1.03-.67.03-1.4.04-2.14.13-.52.06-1.03.15-1.54.25-.3-.1-.6-.16-.9-.22l-2.17-.32c-.14 0-.28 0-.42-.01l.2-.1 1.4-3.3zm-36.3 93.07c-.67.03.6-.13-.38-.2-.01-.16.46-.02.23-.2-.96-.1-1.52-.38-2.67-.6l-.01-.13c-.78-.05-1.43-.4-2.03-.64-.6-.27-1.1-.6-1.6-.7-.7-.33-.88-.56-1.08-.75s-.4-.4-1.1-.77c-.13-.17-.27-.33-.4-.5-.48-.47-.5-.17-1-.73.1-.03-.57-.75-.2-.5-.24-.34-.55-.64-.77-.98-.25-.33-.52-.65-.77-1.1-.52-.8-1.04-1.73-1.4-2.83-.4-.37-.74-1.5-.98-1.8.04-.05-.16-.6-.26-.98-.08-.4-.1-.63.14-.04.03.1.1.3.07.28l.17.1c-.1-.64-.23-1.2-.44-1.74-.16-.55-.3-1.1-.38-1.74 0 .37.1.87-.04.55-.07-.4-.07-.78-.07-1.17 0 0-.06-3.15.5-6.72a2 2 0 0 1 .1-.21c.08-.52.16-1 .18-1.33.01-.03.01-.06.02-.1.06.16.38-1.1.4-.64.04-.83.57-3.06 1.07-3.9l-.05.17c1.35-3.2 2.18-5.6 3.75-8.38-.2.06.64-1.4.28-1.1 1.36-3.02 3.2-5.12 3.28-6.44.7-1.33 1-1.48 1.4-2.14l-.15.33c1.37-2.47 1.8-3.17 2.9-4.96.5-.92.35-1.2 1.4-2.77-.23.57.16-.1.53-.7-.22.4-.26.53.28-.22.04-.13.13-.3.2-.48.01 0 .04-.03.04-.01.6-1 .46-.85.15-.4 0-.03-.04 0-.16.12.77-.95 1.8-2.86 2.05-2.88l4.77-7.6c.27-.2-.07.4-.52 1.1l1.17-1.72c.1.1-.63 1.02-.97 1.56 1.6-1.9 2.76-4.3 4.7-6.44l.3-.54.12-.12c-.05-.03.3-.58.55-.93.35-.25.18.18 1.1-.9.4-.4.9-1.02 1.44-1.67l1.6-1.9c-.56.57-.43.34-.22.06.48-.53.88-.7 1.23-1.13l.16.07c-.3.1 1.2-1.42 1.4-1.6.38-.18-.77.8-.82 1 1.02-1 1.34-1.16 1.6-1.4.14-.1.27-.23.5-.43.23-.2.57-.5 1.15-.9 1.16-.97-.3.04.2-.5.54-.4 1.05-.83 1.65-1.17.6-.34 1.18-.77 1.9-1.03-.17.03-.34.04-.5.08 2.24-1.17 3.72-1.66 5.42-1.8.57-.12 1.1-.28 1.63-.35l1.48-.14c.47-.06.9-.1 1.3-.06l.9.1.66.2c.24.02 1.34.17 1.58.23l.88.2c.18.05.37.1.55.16.1.03.2.08.3.12.06-.01.1-.01.17-.01 6.14 1.66 10.6 4.9 11.3 21.23.8.26.8 1.62.08 2.8.01.4 0 .8 0 1.2-.96.7-1.74 1.2-2.5 1.67.08-.08.16-.16.23-.24l.92-1c.55-.65 1.07-1.2 1.34-1.76.57-1.12.38-2.15.03-2.33-.06-.04-.12-.05-.18-.06.15-.17.2-.25.07-.2-.07.02-.2.1-.37.2-.14 0-.22.01-.24.03s0 .04.06.07c-.32.2-.77.5-1.4.9-.57.37-1.26.9-2.13 1.44-.9.53-2 1.06-3.2 1.98l.1-.13c-.35.28-.68.58-.96.9-.3.35-.48.67-.68.97a26.54 26.54 0 0 0-1.03 1.77c-.6 1.12-1.05 2.17-1.62 3.1-.16.1-.6.58-1.13 1.07-.54.5-1.15 1-1.48 1.23l.05-.06c-1.56 1.36-3.53 2.37-5.15 3.55.06-.05.07-.12.45-.37-1.2.8-2.9 1.9-3.04 1.86-7 3.33-5.06 4.16-3.22 3.2 3.24-1.7 6.36-3.6 9.16-5.6.2-.1.65-.47.64-.48.86-.6 1.7-1.22 2.54-1.9.8-.68 1.66-1.37 2.28-2.38 0 0 .26-.4.64-1.12.38-.7.85-1.68 1.47-2.73.3-.5.66-1.13 1-1.55.4-.45.9-.87 1.44-1.26 1.06-.77 2.3-1.46 3.2-2.27 1.07-.9 1.92-1.63 2.36-2.06.02.01.04.01.07.02.05.04.07.06.1.1.02.06.06.17.06.33.01.33-.1.77-.3 1.13-.2.37-.4.66-.63.87l-.37.4a36.33 36.33 0 0 1-1.43 1.38l-.7.64-.35.33-.06.05-.04.05-.03.03c-.03.04-.06.08-.1.13v.03c.1-.08-.28.2.03.84.44.56.85.34.76.4l.08-.01c.1-.01.25-.08.27-.1l.07-.04.08-.05.2-.14c.24-.15.48-.3.72-.43l.75-.5c.5-.33.96-.66 1.42-1 .93-.66 1.83-1.34 2.8-1.88.48-.27 1-.5 1.44-.52.42-.03.7.13 1.02.63l.03.05c.06.1.07.13.1.18.01.03.01.05.02.08 0 .03-.01.15-.1.3-.3.32-.5.7-.66 1.02-.16.32-.05.4.08.36.1-.02.36-.2.18 0-.06.1-.15.26.08.26.43-.01 1.97-.7 1.66-.46.1.06.24.24.33.47l.07.17c.01.02.01.06.03.14.03.13.05.25.06.37.02.24.02.46-.01.66-.02.1-.04.2-.07.27l-.05.12-.15.24c.03.37.04.57.03.68.04.1.1.33.16.66.27.2.22.2.27.28.02.07.05.13.05.22.02.15-.03.4-.08.56l-.7 1.53.34.9c-.01.01-.02.02-.02.03-.05.04-.02.02-.03.03.01.01.01.06.02.1 0 .13-.03.33-.12.54a4.88 4.88 0 0 1-.8 1.37c-.73.9-1.8 1.8-3.3 2.67-.73.42-1.52.8-2.33 1.15-.83.37-1.67.76-2.5 1.22l-.33.2a.92.92 0 0 0-.23.18l-.12.1-.5.46-1 .9-1.94 1.77c-1.13 1.2-3.35 3.02-4.72 4.4l-.6.45c-.47.47-1.03 1-1.56 1.43l.02-.04c-.7.7-1.56 1.43-1.9 1.78l.02-.04-.9.8.13-.16a101.35 101.35 0 0 1-3.76 3.43l.16-.02a65.59 65.59 0 0 0-2.03 1.79l-3.98-5.75c-2.68-4.33-3.17-5.6-6.1-10l-1.03-1.6-.53-.8c-.1-.14-.15-.24-.34-.5a2.58 2.58 0 0 0-.69-.63c-.53-.34-1.15-.47-1.74-.4-.3.03-.58.1-.85.22-.28.14-.38.2-.52.27l-1.66.92c-.93.75-2.84 1.6-3.94 2.48l-.52.18c-.38.3-.84.63-1.28.83v-.05c-.56.45-1.27.84-1.55 1.07l.01-.05-.72.48.1-.12a42.1 42.1 0 0 1-3.04 2.07l.16.07c-1.96 1.15-2.6 1.9-4.2 2.9-2.7 2.2-6.47 5.4-6.3 5.9.25.82 9.67-5.73 9.67-5.73l-.01.01c.62-.48 1.26-.93 2-1.36-.16-.07.8-.6.46-.62 1.68-1.34 3.48-1.8 3.83-2.7.8-.54 1.06-.5 1.5-.73l-.18.15c1.54-1 2-1.26 3.17-1.93.56-.4.52-.67 1.6-1.2-.3.28.13.03.53-.2-.25.15-.3.23.25.01.06-.07.16-.15.26-.22.01.01.03 0 .03.02.65-.4.52-.36.2-.2.01-.02-.03-.03-.14 0 .2-.06.4-.16.63-.27l.33-.16a1.04 1.04 0 0 1 .2-.08c.25-.07.46.02.44.1.12.04.22.1.3.2.03.04.1.14.18.26l.22.32.85 1.18 1.63 2.26c.04.23-.27-.1-.6-.55l.76 1.12c-.12.06-.48-.62-.73-.95.68 1.47 1.97 2.7 2.82 4.4l.3.28.05.1c.04-.03.34.28.5.5.04.3-.24.13.27.9.3.68 1.18 1.74 1.75 2.53-.26-.45-.12-.34.04-.17.26.4.3.68.54.96l-.1.12c.03-.23.8.95.94 1.06.04.3-.48-.56-.6-.6l1.53 2.36c.64.78.03-.23.4.1.5.73 1.06 1.4 1.52 2.3l-.05-.34c.98 1.34 1.5 2.2 2 3.2 7.6 9.82 2.72 1.36 2.72 1.36-.9-1.65-1.72-2.94-2.55-4.18.68-.63 1.37-1.26 2.15-1.9-.16.02 1.02-.97.66-.8 2.16-2.1 4.23-3.5 4.8-4.5 1-.93 1.26-1.03 1.8-1.5l-.23.23 3.86-3.5c.68-.66.7-.88 1.98-2-.37.42.14-.06.62-.5-.3.28-.37.38.28-.15.07-.1.2-.22.32-.35.01 0 .04-.02.03 0 .78-.73.63-.62.25-.3.01-.02-.03-.01-.15.08.87-.68 2.28-2.06 2.46-2.07.03-.04.26-.16.4-.25.16-.1.32-.17.47-.26l-6.02 72.16c-1.38.32-2.7.35-3.53.4l-.1-.1-4.2.03 1.57.02c-.54.3-3.17-.2-6.2.01-2.85-.04-5.77.64-8.73.5-1.4.14 1.24-.23-.87-.12-.07-.16.98-.1.44-.23-2.07.08-3.4-.16-5.95-.06l-.1-.12c-3.33.23-6.28-.16-8.5.05-1.57.05-2.2-.03-2.74-.1l3.36-26.27 1.6-.57c4.52-1.96 9.53-4.7 13.18-8.03.14-.08.43-.4.4-.4 1.18-.93 2.34-1.9 3.5-2.86 0 0 1.04-.88 2.36-2.1s2.9-2.74 4.06-4c.14-.15.3-.3.46-.53.15-.2.27-.44.34-.67a1.91 1.91 0 0 0 0-1.21c-.1-.3-.27-.5-.38-.57-.1-.08-.15-.04-.17.04-.03.17.25.86-.33 1.6-.27.34-.83.64-1.42 1.1l-2.15 1.58.05-.1c-1.87 1.56-3.04 2.56-4.16 3.83-.4-.04-1.55 1.27-2.05 1.56l.03-.05c-1 1.12-2.5 1.77-3.5 2.8.03-.05.01-.13.26-.34-.8.67-1.9 1.55-2.07 1.47-1 .74-2.22 1.6-3.35 2.35-1.1.8-2.2 1.34-2.83 1.84l.07-.1c-.7.6-1.03.5-1.9 1-.06 0-.13.02-.12 0-.2.13-.48.27-.77.4-.3.12-.64.2-.97.3-.66.18-1.3.4-1.67.5l-.08-.1-1.88.42c.24-.03.47-.08.7-.12-.2.4-1.46.05-2.83.38-.65-.01-1.3.17-2 .32-.68.13-1.4.22-2.07.08zm59.36-54.15h0l-.01.02v.03l-.01.01c.14-.24-.04.07.04-.06zm-.17.4l-.04-.02c.01-.01.01-.02.02-.03l.02.05zm-56.03 80.2l-1.4-.17c-1.53-.03-1.1.2-2.8.12-.36-.1-.84-.08-.53-.2l-.18-.03c.03-.1.06-.2.08-.28l.23-1.03.6-2.78c.42-1.9.9-3.95 1.56-6.18.06-1.12.77-3.56.8-4.4.12-.1 1.2-4.96.73-2.13-.04.24-.15.66-.17.63l.04.36c.9-2.75 1.1-5.12 1.8-7.9-.24.8-.5 1.9-.4 1.16l.57-2.3h.06l-.01.28.07-.3.7-.06c.9-.08 1.8-.25 2.65-.46l-3.22 25.56a22.53 22.53 0 0 0-1.22.07zm21.25 34.42c-4.87-.63-6.13-1.05-11.2-1.53-2.4-.3-5-.54-7.35-.78a6.74 6.74 0 0 1-.99-.02c-.18-.02-.37-.04-.57-.05-.2-.02-.4-.04-.53-.08-.6-.12-1.22-.4-1.68-.64-.08-.12-.17-.22-.23-.35-.3-.18-.6-.5-.72-.83h.04c-.35-.4-.44-1-.5-1.25l.04.02c-.04-.2-.04-.42-.05-.63l.05.1c-.04-.42.03-1.08.1-1.66.06-.6.13-1.17.22-1.7l-.15.07c.33-1.76.28-2.7.44-3.96.3.38.65.72 1.1 1 2.2 1.4 13.3 2.7 24.8 3.8 1.9.1 3.3.3 3.8.4.6.1 1.2.1 1.9 0 1.66-.4 3.44-1.3 4.85-2.94-.01.02-.02.04-.03.07.03.04.04.1.05.16-.01 0-.02.01-.03 0 0 .35.04.3.07.13.02.01.04 0 .07-.05-.18.34-.1 1-.3 1-.08 1.03.02 1.8 0 2.65-.1.1-.16-.12-.17-.37l-.04.6c-.13-.02-.04-.36-.04-.55-.3.7.04 1.5-.25 2.34l.1.2-.02.05c.06 0 .1.2.1.33-.13.1-.27-.04-.3.38-.15.33-.06.93-.03 1.4.04-.26.1-.16.13-.05-.01.23-.14.35-.1.53l-.16.02c.15-.1.16.6.24.68-.1.14-.13-.35-.2-.4.07.93.01.47.16 1.4.23.46.12-.12.3.08.13.4.34.76.46 1.24l.07-.2.56.9c-.72-.15-1.35-.25-1.35-.25-4.64-.87-7.1-.74-12.66-1.27zm13.57-11.32zm-.1.13c0 .04-.01.08-.01.13 0-.05-.01-.08-.02-.1.01-.02.02-.03.03-.04zm2.3-13.32l-.03-.16c-.12.2-.12.3-.22.4.02-.15-.1-.16-.27.15l-.01-.28c-.06.23-.1.45-.13.68-.36.4-.44 1.2-.65 1.35 0 0-.08.26-.14.55-.05.3-.06.62.02.74-.1-.2-.2.3-.3.15.1.25.13.97-.04 1.23l-.01-.05c-.26 1.03-.01 1.8-.3 2.72.15-.03.01.46.2.36.07 1-.58 1.72-.05 2.13-.02.44-.2.5-.25.73l-.02-.1c-.03.52-.05.8-.08 1.1-1.8 3.06-4.54 3.98-6.8 3.6-.5 0-1.9-.2-3.9-.4-6.6-.6-22.1-2.1-24.4-3.6-.57-.37-.97-.95-1.26-1.62-.01-2.5.73-3.95.68-6.6.01.34.1-.14.12-.1.1-1.26.23-2.6-.05-2.65.1-.9.17-.73.3-.84-.1.01-.12-.88.03-1.42-.02.1-.01.2-.02.28a4.57 4.57 0 0 1 .63-1.63l-.4.18c.3-.4.4-.4.47-.4.08 0 .12-.04.4-.37l-.15-.13c.5-.47 1-.67 1.5-.76s1-.07 1.56.02l2.2.25 2.3.24 4.64.43c3.08.28 6.1.6 8.88 1.1l.23.17c.08.23 1.58-.14 1.77.1l.66-.02c.18.06.56.14.23.15.6.08.62.04 1.06.03l.63.2c2.37.38 4.42.36 6.9.7 1.12.23 2.62.43 4.24.6-.07.08-.15.2-.24.46.2-.3.3.03.02.33zm4.33-2.3h-.07c-.53-.13-1.17-.14-1.7-.01-.38-.07-.8-.13-1.24-.12-1.3-.2-2.7.33-4 .03-.66.07.6-.17-.38-.17-.01-.16.46-.05.23-.2-.95-.03-1.52-.34-2.7-.37l-.03-.13c-1.54.05-2.83-.5-3.86-.4-1.57-.08-1-.5-2.65-.43l-.6-.24c-.7-.1-.52.15-1.28-.02.06-.1-.96-.2-.5-.24-1.72-.37-3.56-.18-5.82-.72-.52.15-1.66-.1-2.05 0-.05-.1-2.3-.28-1-.33.1 0 .3.02.3.06l.17-.1c-1.28-.38-2.4-.15-3.68-.33.38.08.9.13.54.18l-1.2-.16.26-.07-1.78-.27.23.15c-.87-.17-1.15-.42-2.16-.35-.46.05.8.27-.12.2l-2.08-.4c-.43-.1-.9-.1-1.38-.08l.16-1.26.14.01c5.24.1 9.7-.15 15.2-.1 3.3.14 8.08.14 12.92.1l7.14-.1a15.76 15.76 0 0 0 3.62-.38l-.6 6.26zm23.84-13.5c-2.97-.04-6.03.64-9.12.5-1.47.14 1.3-.23-.9-.12-.07-.16 1.03-.1.46-.23-1.03.04-1.9 0-2.8-.03a9.23 9.23 0 0 0 .85-1.86c.25-.72.37-1.35.56-2.03.18-.67.35-1.34.5-2 1.24-5.4 2.08-10.9 2.43-16.07.06-.33.08-1.2.06-1.2.34-3.14.6-6.3.87-9.43l.48-6.6.68-11.93c.16-3.55.22-6-.07-5.44-.3.58-.94 4.2-1.97 12.86l-.03-.24c-.47 5.15-.73 8.4-.78 11.97-.33.54-.38 4.23-.6 5.42l-.01-.12c-.06 3.16-.82 6.43-1 9.46-.01-.1-.06-.17-.02-.64-.23 2.17-.58 4.95-.77 5.08a102.18 102.18 0 0 1-1.57 8.53c-.32 1.48-.6 2.64-1.2 3.6-.55.98-1.23 1.76-1.78 2.34l.13-.18c-.6.68-1.1 1.04-1.6 1.4-.52.34-1.08.68-2 1.2-.1.03-.25.08-.23.06-.42.26-.98.52-1.6.76l6-72.58c.23-.1.47-.22.7-.34 1.17-.6 2.26-1.26 3.33-2.1.24-.13-.08.2-.6.58a14.09 14.09 0 0 0 1.29-1.02c.05.08-.83.77-1.32 1.1.93-.56 1.8-1.3 2.5-2.27.36-.5.65-1 .88-1.62.1-.3.2-.64.2-1.02-.01-.27-.07-.58-.28-.85.03-.07.07-.14.1-.2l.16-.53.07-.14c-.02 0 .02-.15.1-.33.03-.08.08-.23.1-.35.03-.12.05-.24.06-.36.06-.2.1-.2.12-.34.02-.07.02-.18-.01-.38a1.67 1.67 0 0 0-.4-.81l-.05-.06c-.04-.05-.1-.1-.18-.12.06-.04.1-.1.14-.17l.05-.1.08-.22c.05-.15.08-.3.1-.45.04-.3.03-.6 0-.9-.05-.3-.1-.54-.2-.87-.1-.26-.24-.5-.42-.73.26.37.26.5.26.5-.02 0-.1-.13-.2-.28-.2-.32-.45-.57-.76-.7-.25-.1-.28-.06-.45-.02l.07-.1c0 .01-.04.04-.13.1-.04.03-.1.06-.15.1-.03.01-.06.04-.1.05l.06-.06c.18-.18.25-.47.2-.6.01-.12.02-.1.04 0 .01.1.01.15-.01.23s-.06.15-.1.2a.9.9 0 0 0 .14-.22c.03-.1.04-.12.02-.37-.06-.38-.18-.56-.25-.67-.15-.2-.23-.38-.48-.64a2.07 2.07 0 0 0-1.58-.61c-1.56.32.28.02-.45.23-.74.2-1.38.55-2 .94-.27-15.36-3.86-21.58-9.9-24 .5-.01 1 0 1.47.01 1.92.05 3.73.35 5.58 1 .38.25-.5-.03-1.6-.3.9.22 1.75.55 2.6.9-.07.1-1.48-.56-2.3-.75 1.53.56 3.07 1.22 4.6 2.1l1.14.7 1.13.8 1.1.9c.27.25.58.68.87 1.02.2.16.38.36.55.56l.1.2c.02-.03.62.6.86 1.13.1.55-.2.06.53 1.8.52 1.4 1.26 4.1 1.6 6.1-.12-1.08-.01-.74.1-.28.12.97.1 1.54.2 2.28l-.12.1c.12.13.35 2.6.4 2.92-.08.56-.18-1.5-.3-1.75.18 1.95.13 2.45.17 2.94.02.5.06.98.07 2.95.13 2.1.15-.38.3.62.03 1.86.1 3.68-.07 5.8l.17-.67c-.01 3.5-.16 5.6-.45 7.94l-.16 11.9c.06 1.75.22 1.64.43.7.2-.93.43-2.68.6-4.2l.3-2.8c.53-5.13.76-9.03.82-13.2.03-2.08.04-4.23-.04-6.64-.07-2.4-.2-5.06-.6-8.17-.13-1.37-.4-2.6-.6-3.75a6.58 6.58 0 0 0-.06-.22l.3.05a.57.57 0 0 0 .13.01c.1 0 .17-.03.25-.06 2.24 4.18 7.3 15.58 7.45 33.4.18 21.06-.48 56.15-.6 61.97-.83-.03-1.73-.04-2.68.02zm20.25-10.38l.23.46c.53 2.44-.1 1.36.54 4.06-.14-1.08.22-.54.3.8l-.16-.32c.1.74.18.98.2 1.47-.1-.43-.2-.2-.06.87l-.23-.7.44 2.03c.04 1.6.47 4.1.37 4.76l.17 1.8c.07.65.06.53.1.68.02.06.04.12.05.16-.03.02-.05.03-.06.06.05-.06-.08-.1-.16-.14-.1-.04-.13-.1-.12-.15 0 .02-.01.03-.03.05l-.52.04c-.4.03-.83.05-1.28.06h-1.3c-.22 0-.4-.01-.52-.03-.14-.02-.27-.03-.37-.07.05 0 .1.01.16 0-1.54-.23-2.75-1-3.5-2.03a4.35 4.35 0 0 1-.77-1.76c-.1-.58-.1-1.5-.1-2.35-.14.16-.13-1.68-.3-1.22-.3-3.6.18-6.58-.42-7.87-.07-1.64.1-1.95.1-2.8l.04.4-.18-6.25c-.08-1.14-.35-1.3-.34-3.36.12.66.08-.18.06-.94.03.5.07.64.12-.37-.04-.14-.06-.36-.1-.56.01-.01.01-.05.03-.03-.07-1.28-.1-1.05-.1-.46-.02-.03-.04.02-.06.2.1-1.33-.1-3.7.06-3.86-.17-3.84-.45-6.57-.67-9.76.08-.36.2.38.27 1.3l-.13-2.26c.13.01.13 1.3.2 2 .1-2.7-.48-5.55-.46-8.72l-.15-.65.01-.2c-.06.01-.18-.7-.23-1.16.1-.45.27.01.16-1.55.04-1.25-.3-3.5-.52-5.12.05.87-.03.6-.1.23-.07-.78.01-1.24-.1-1.84l.12-.07c-.12-.1-.32-2.07-.42-2.33.07-.46.23 1.2.33 1.4l-.5-4.7c-.3-1.66-.12.32-.34-.46-.2-1.47-.5-2.9-.63-4.58l-.07.55c-.46-2.74-.76-4.38-.9-6.26-.63-2.52-1.1-4.47-1.6-5.94-.48-1.46-.84-2.46-1.1-3.1-.53-1.28-.67-1.14-.6-.4.06.75.3 2.1.52 3.28a56.66 56.66 0 0 1 .4 2.17l1.67 10.2c.5 3.22 1.04 6.64 1.5 11.45.62 8.48.46 10.74.95 19.54l.48 12.8c.26 1.95.14 5.4.36 7.7l-.1.9c.08.8.14 1.73.1 2.53l-.04-.05c.12 1.2.1 2.53.16 3.13l-.04-.05.06 1.45-.06-.25c.15 2.08.22 4.22.26 6.1l.14-.16c0 .2 0 .4.01.6l-2.2.02-.12-.1-4.38.03 1.64.02c-.33.18-1.4.1-2.82.02l.6-62c-.17-19.15-5.96-31.08-8-34.65l.6.52a.71.71 0 0 0 .33.15c.6.67 1.34 1.56 2.12 2.62 1.75 2.32 3.55 5.45 4.66 7.98l.74 1.74.54 1.33c.3.7.5 1.04.56.78.03-.25-.03-1.1-.42-2.73s-1.14-4-2.74-7.14l.13.14c-1.63-2.83-3.05-4.7-4.63-6.3l.04-.78a20.55 20.55 0 0 1 1.13.92c.45.34.83.74 1.22 1.1.38.37.8.7 1.1 1.05.65.7 1.28 1.28 1.72 1.77l-.14-.1c1 1.1 1.24 1.5 2.17 2.88.03.1.08.2.06.18a13.47 13.47 0 0 1 .83 1.2l.78 1.52c.56 1.02.9 2.08 1.2 2.68l-.07.12c.45 1 .75 2.04 1.06 3.08l-.33-1.18c.4.33.58 2.4 1.27 4.7.24 1.1.65 2.17 1.06 3.26.4 1.1.74 2.2.9 3.37.37 1.06-.43-.92.02.7-.15.1-.26-.74-.3-.3.4 1.6.4 2.66.86 4.62l-.1.1c.7 2.55.76 4.9 1.25 6.6.56 2.66-.06 1.86.66 4.6l.01 1.1c.16 1.2.34.82.47 2.16-.12-.06.18 1.7-.04.93.32 3.02 1.17 6.06 1.47 10.06.34.83.48 2.84.73 3.47-.07.12.54 4 .04 1.8-.04-.2-.1-.53-.05-.5l-.16-.25c.1 2.3.7 4.1.95 6.34-.05-.67-.17-1.55-.01-.97l.26 2.08-.16-.42.35 3.1.07-.44c.14 1.53-.02 2.1.38 3.78.2.76-.01-1.46.23.14l.68 7.7c.1-.26.2.44.3 1.15l-.1.1c.5 2.72-.15 1.03.3 3.75zm40.43-63.6c.14.05.23.18.22.36.05.04-.23.62-.37.96-.35.78-.72 1.5-1.1 2.23-.78 1.46-1.57 2.94-2.42 4.9.22-.5-.18.18-.2.12-.92 1.84-2 3.77-1.76 3.93-.74 1.3-.68 1.02-.87 1.14.1.05-.5 1.2-1.1 2.22l.23-.5-1.7 2.9.55-.44c-1 1.48-.48.23-1.35 1.7l.18.1c-1.36 2.06-2.42 3.1-3.9 4.95-2.88 4-6.07 8.04-9.64 11.52-1.83 1.7-3.77 3.2-5.86 4.36a17.93 17.93 0 0 1-6.54 2.06l-.4-.1c-.1-.1-.68.1-1.3.2-.63.1-1.3.23-1.46.14-.34.05-.7.05-1.04.08-.3-.05-.9-.1-.4-.14l-.6-.02-2.7-18.88.08-.45c.18-.22-.73-2.62-.6-3.02l-.27-1.1c-.01-.32-.1-1 .06-.44-.17-1.04-.2-1.06-.4-1.8l-.06-1.14c-.58-4.12-1.48-7.55-2.27-11.86-.2-1.3-.5-2.88-.83-4.6-.35-1.72-.83-3.58-1.28-5.45-.18-.8-.43-1.6-.7-2.4l3 2.73c2.97 2.78 4.88 4.52 6.98 6.18.53.4 1.08.8 1.68 1.2.62.4 1.24.8 2.18 1.13.12.04.24.08.4.1a2.35 2.35 0 0 0 .55.08c.38.04.77-.06 1.13-.2.18-.08.33-.2.48-.3l.28-.2a5.84 5.84 0 0 0 .56-.42 29.75 29.75 0 0 0 2.24-1.99c2.98-2.8 5.8-6.03 8.36-9.02.68-1 1.85-2.3 2.92-3.67.05-.07.13-.1.2-.1.04 0 .08.01.12.03l.52.3.63.58c.66.38 1.4.86 2 1.34h-.06c.98.57 2 1.34 2.48 1.63h-.06l1.14.77-.22-.1c1.67 1.05 3.34 2.2 4.8 3.26l-.04-.2c3.05 2.32 4.37 2.87 7.1 5h-.06l.5.3zm12.4-45.6c-.24 1.18-1.16 1.56-3.66 1.5-1.7.03-3.1-.57-3.62-1.18-.2-.22-.26-.43-.23-.63h0c.14-.9 1.85-1.24 3-1.22.14 0 .27.01.4.03l.24.03c.22.02.54.06.9.1.2.07.38.14.57.2a6.55 6.55 0 0 0 1.36.24c.42.15.78.33.96.57.1.1.12.23.1.37zm-1.1 2.3l.1-.03c-.01.03-.02.06-.02.1-.03-.02-.05-.04-.07-.06zm2-5.54c-.27.8-.7 1.32-1.72 1.3-.55-.18-1.2-.3-1.87-.4-1.54-.6-2.6-1.85-2.4-2.56a.77.77 0 0 1 .46-.52c.66-.3 1.85-.06 2.46.22.2.1.48.2.8.3 1.3.44 2.52.93 2.27 1.66zm-11.1 13.1l-4.5-.37c.02-.06.03-.12.03-.17l.07.01.1-.4-.06.15c-.16-.1.2-.28.16-.6.1-.27-.23-.65-.07-.9-.05-.16.1.15.1-.07.1.02.04.1.12.08.01-.2.18-.3.17-.57l.07.01c-.06-.35.24-.6.16-.83.02-.35.27-.17.2-.55l.13-.1c.05-.15-.1-.13-.01-.3.06.02.1-.2.13-.1.1-.17.1-.37.1-.57.01-.1.02-.2.04-.32.01-.06.03-.07.07-.07h.01c-.1-.1.05-.1.1-.24.05.04.43-.3.26-.04-.01.02-.05.05-.06.03v.08c.33-.07.4-.4.62-.57-.08.04-.17.12-.14.03l.2-.17v.08l.33-.25-.1-.02c.17-.1.32-.06.4-.3.03-.12-.2.06-.07-.1.23-.15.56-.38.8-.63-.1-.03-.02-.1.03-.18l.06.04c.16-.35.22.01.38-.34l-.04-.12c.08-.35.24-.04.28-.46-.07.13-.17-.04-.05-.16l.03.08c.04-.1.04-.13.1-.18 0 .07.07.08.14-.04l.02.13c.02-.1.03-.2.04-.3.18-.14.27-.48.4-.5 0 0 .26-.4.2-.53.03.1.15-.1.2-.01-.02-.15.05-.47.18-.6v.03c.3-.55.13-1.03.18-1.55-.08.03-.07-.25-.17-.16-.1-.27-.07-.43-.16-.75-.05-.23-.14-.4-.27-.45l4.12-7.9c.1-.2.2-.38.3-.56.44-.83.63-1.12 1.15-1.12l3.94-.1h.08a.78.78 0 0 1 .6.34.88.88 0 0 1 .08.87l-3 6.3c-.77-.3-2.13-.57-3.1-.14a1.77 1.77 0 0 0-1.01 1.16v.01c-.24.9.3 1.86 1.17 2.64-1.43.05-3.34.53-3.6 2.06-.1.5.07 1 .45 1.45.25.3.6.55 1 .77-.63.16-1.28.44-1.72.9a1.82 1.82 0 0 0-.54 1.38v.05c.1.75.7 1.37 1.55 1.8-1.54.33-2.4 1.1-2.35 2.13v.01c.03.46.3.9.77 1.25l-.03.07c-.22.35-.48.5-.83.5zm6.1-1.48c-.33.35-.95.55-1.93.6-1.08.23-2.14-.1-2.68-.5-.23-.17-.37-.37-.4-.53-.04-.94 2.05-1.18 2.23-1.2.15 0 .36-.01.6-.02.7-.04 1.96-.1 2.38.27.07.07.1.14.1.25.03.5-.08.88-.32 1.14zm-.47-2.8c-1.9.05-3.6-.85-3.74-1.65a.84.84 0 0 1 .26-.61c.56-.57 1.82-.8 2.38-.77.13 0 .33 0 .56-.01 1.05-.03 3.5-.1 3.52.9-.03 1.2-.83 1.75-2.98 2.14zm1.8 2.1c0 .01-.01.03-.01.04a3.29 3.29 0 0 0 .02-.55c-.02-.36-.16-.66-.4-.9.36-.1.7-.23 1-.4-.24.84-.5 1.77-.6 1.8zm.67-1.83z"/><path d="M305.03 152.6h-.01l-.05.24zm-33.07 44.32h0l-.1-.23z"/><circle cx="250.76" cy="196.9" r="1.5"/><circle cx="251.06" cy="173.1" r="1.5"/><circle cx="251.46" cy="150.6" r="1.5"/><circle cx="250.86" cy="130.8" r="1.5"/><path d="M184.95 218.75l.03-.2-.03.2zm-16.47-48.95l-.1-.2.1.24v-.05z"/></svg>