<svg xmlns="http://www.w3.org/2000/svg" viewBox="0 0 480 480" xmlns:v="https://vecta.io/nano"><path d="M340.34 83.65l-3.86-.57c-1-.17-1.37.6-2.2 1.57l-5.76 7.47c-.06-.22-.12-.36-.12-.36s-6.16 2.23-7.67 3.66c-1.5 1.33-3.5 3.17-4 5.62-.4 1.96-1.9 7.37-2.54 8.57-.8 1.63-7.33 8.97-11.82 13.92l-.04-.04c-.5-.5-1.4-.6-1.9-.1-2.6 2.2-9.9 8.1-14.2 10.5-4.1 2.3-10.1 1.8-16.6-3.7-2.17-1.8-4.98-4.78-7.77-7.94-5.82-14.44-18.63-18.93-20.53-19.66l.12.1c-3.32-1.78-6.93-2.83-10.85-3.06-1.52-.27-3.13-.43-4.87-.43-.63 0-1.55.12-2.67.44-5.77.1-11.8 1.92-16.13 4.96-10.3 7.6-27.4 32.6-32.2 53.8-4 17.3 7 58.2 7 58.2.3.8 1.5 1.1 2.1 1l2.27-.36c5.97 18.63 13.33 32.86 13.33 32.86s.77 9.5 7.66 19.16c1.23 1.5 3.2 3.38 3.9 3.78 1.6.9 2.14.16 2.14.16s1.5 1.7 2.8 1.3c1.2-.4.7-1.9.7-1.9s1.1.9 1.9.2c.6-.6-.2-3-1.3-5.4-.9-1.9-1.9-7.2-2.2-8.2-.4-.9 1.7.8 2.9 1.9 1.4 1.1 3.4 1.5 1.7-1.2-1.6-2.6-2.7-5.1-3.2-5.8-.5-.6-2.1-3.4-4-4.8-1.2-.9-3-1.6-4.1-4.9-1.26-4.6-2.72-19.36-3.75-29.8h26.75c4.42 0 10-2.33 12.7-6h21.58c.01.13.01.27.02.4.1 3.1 2.7 5.6 5.9 5.6h4.9s-2.1-21.5-5.36-44.9c5.77 2.82 10.17 2.27 19.66-5 11.9-9.2 21.6-23.5 24-27.1.3-.4.3-1.2-.2-1.6l-2.27-2.32 11.13-16.15 1.47-1.17s4.05-3.37 5.32-4.64c.9-.78 4.62-8.07 6.94-12.73a2.33 2.33 0 0 0 .96-1.18.97.97 0 0 0-.01-.75l.63-1.28c.3-.2.57-.53.8-.96.74-1.35-1.6-2.38-2.6-2.98l4.33-6.06c.58-.8.1-2.02-.9-2.12z" fill="#fff"/><path d="M327.2 97.35h0v.06z"/><path d="M341.8 84.2c-.27-.6-.8-.97-1.4-1.03l-3.86-.57c-1.13-.2-1.7.52-2.28 1.27l-.4.5-5 6.5c-.01-.03-.03-.06-.04-.1l-3.3 1.36-3.06 1.46-1.45.8a5.41 5.41 0 0 0-.64.46l-.5.43-1.74 1.65c-.53.57-1.03 1.2-1.48 2.04a7.71 7.71 0 0 0-.58 1.44l-.36 1.63-1.9 6.58c-.12.52-.38 1.02-.84 1.62l-1.27 1.7-.36.33c-.25.35-.55.76-.86 1.06v-.03c-.37.52-.87 1.05-1.06 1.3v-.03l-.5.6.07-.12-2.14 2.5.12-.01-3.32 3.67v-.03c-.62.83.1 1.67 4.25-2.8-.12.01.57-.7.33-.6 1.2-1.54 2.5-2.54 2.7-3.3.56-.7.74-.75 1.05-1.1l-.12.18 2.1-2.7c.18-.26.24-.44.34-.7l.47-1.06c-.08.37.1-.07.23-.47-.1.26-.1.34.14-.16.01-.08.04-.2.06-.3.01 0 .02-.02.02-.01.2-.67.14-.56.03-.26 0-.02-.02 0-.07.1.3-.66.6-1.92.72-1.97l1.15-5.18c.1-.16.05.2-.03.7.1-.42.14-.78.27-1.15.06.05-.14.6-.2 1 .2-.7.36-1.33.7-2 .32-.66.77-1.32 1.37-1.9l.2-.3.08-.06c-.03-.02.2-.32.37-.5.22-.1.1.12.7-.45l.46-.38.18-.16c-.01.14.04.2.15.2.2.01.6-.2.6-.2.87-.34 1.22-.78 2.26-1.36.97-.4 1.3-.36 2.28-.84l1.46-.63c.16-.2.1-.05.23-.2v-.01c-.01.02-.02.06-.04.1.03-.03.06-.03.03.02l-.02.02c.05-.02.03.03.06.03l-.02.01.01.03h-.03c.03-.02.06.13.06.23a.97.97 0 0 1-.02.3l.1-.01c-.14.38-.01.57-.28.86l-.02-.01c-.05.54-.57.62-.73 1.17.02-.07-.05-.01-.07-.02-.15.2-.32.42-.2.54-.14.13-.15.07-.2.04.05.05-.04.2-.14.3l.03-.07c-.1.1-.2.2-.3.3l.16.05c-.2.12-.16-.1-.3.08l.08.1c-.26.18-.5.17-.8.28l-1.12.8-.58.38-.3.17-.5.23-.17.4-.12.28-.26.47-.1.02c-.13-.03.05.38-.08.38v.15c-.04.03-.1.1-.1.02-.06.12-.04.13-.04.23l-.13.1c-.26.45-.3.92-.53 1.4-.4.53-.78 1.7-1.02 2.35-.07.24-.2.48-.36.7l-.68.98c.02.1.05.23.1.34.02.06.05.12.07.17.02.02.04.03.08.06.1.08.27.27.5.5.14.07.33.14.37.14.02.03.1.03.1.01a5.22 5.22 0 0 1 .7.49l1.38 1.1c.54.4.98.46.1-1.17h.04c-.34-.4-.6-.65-.98-.76.06-.18-.35-.28-.43-.4l.02-.01c-.14-.02-.25-.1-.36-.18a2.5 2.5 0 0 0-.17-.12c-.01-.02-.03-.03-.04-.04-.02-.01-.05-.01-.1 0 .02-.01.06-.04.08-.04-.05-.01-.15 0-.16-.02-.01-.01.01-.02.05-.04-.05 0 .02-.08.03-.12.03-.05.04-.08.06-.16.07-.16.12-.3.13-.42l.01.03c0-.13.04-.2.08-.25l-.05.15 4.57 1.2c.72.14 1.36-.08 1.94-.73l.05-.07c.45.27.96.48 1.5.6.32.07.65.1.96.08 1.18.17 2.05.03 2.66-.44a2.16 2.16 0 0 0 .37-.37l-2.76 5.17.03-.1-.25.45-.22.27-.03.02-.7.7c-.05.02-.1.06-.1.05-.6.68-1.96 1.75-2.48 2.25l-.08-.02-1.36 1.17.52-.42c-.07.3-1.1.8-2.05 1.68l-.52.44c-.58 1-.9 1.93-1.58 2.78-.27.55.2-.52-.27.26-.1-.03.2-.38-.01-.23-.47.76-.9 1.14-1.47 2.08l-.1-.01c-.7 1.25-1.6 2.16-2.04 3.02-.78 1.25-.74.7-1.5 2.03l-.42.43c-.4.53-.16.46-.62 1.03-.03-.07-.56.73-.37.34-.77.98-1.42 2.1-2.27 3.32-.48-.47-.94-.96-1.17-1.28l.13.1-6.1-6.22c-.01.2-1.06-1-.92-.58l-.83-.8-.38-.4c-.13-.13-.2-.24-.46-.46-.44-.35-.95-.53-1.48-.54-.52-.02-1.1.17-1.5.57l.06-.05c-.9.7-1.6 1.28-1.85 1.84-1.07.9-1.38.94-1.97 1.37l.24-.23-4.2 3.3c-.75.62-.7.93-2.17 1.9.4-.4-.17.02-.7.4.33-.25.42-.35-.33.07-.08.1-.22.22-.36.33-.01 0-.04.01-.03-.01-.88.62-.7.55-.28.3-.01.03.03.02.18-.04-1 .52-2.65 1.68-2.84 1.52-1.34.7-2.64 1.03-3.9 1.14a11.64 11.64 0 0 1-3.79-.29c-.26-.17.36-.08 1.1.04l-1.8-.44c.06-.12 1.04.25 1.6.32-2.06-.64-4.42-1.26-6.5-2.93l-.5-.23-.12-.1c-.03.05-.56-.23-.87-.48-.22-.33.18-.18-.83-1.02-.7-.76-2.23-1.95-3.23-2.9.5.55.3.42.04.22-.47-.48-.66-.83-1.05-1.17l.07-.16c.07.3-1.3-1.17-1.52-1.3-.17-.36.78.7.96.75l-2.22-2.4c-.98-2.38-2.17-4.5-3.27-6.12-2.08-3.04-4.64-6.07-7.7-8.68-1.55-1.26-3.18-2.47-4.9-3.48-1.72-1-3.55-1.88-5.36-2.5L234 98.93l.55.37c-.01 0-.03-.01-.04-.02-2.6-.94-5.2-1.1-7.97-1.12-.33-.02-.83-.02-1.34.01l-.02-.01c-2.55-.18-4.73.44-6.58.77-1.86.3-3.6.98-5.23 1.63-.3-.02-1.3.27-2.33.75-1.04.44-2.08 1.06-2.63 1.3l.1-.07c-.67.4-1.3.9-2 1.3l-1.9 1.45c-.63.48-1.2 1.02-1.77 1.54a13.46 13.46 0 0 0-1.57 1.64c.06-.1.05-.2.52-.7l-2.3 2.5c-.67.77-1.2 1.34-1.32 1.34-1.67 1.95-3.55 4.37-5.22 6.67-1.64 2.3-3.06 4.5-3.82 5.95l.08-.2c-.87 1.66-1.3 2.04-2.28 3.87-.08.1-.16.2-.16.18-.46.9-1.2 2.18-1.9 3.44-.7 1.25-1.4 2.44-1.73 3.2l-.15.04c-.6 1.2-1.24 2.4-1.8 3.62.22-.46.45-.9.7-1.34.02.6-1.52 2.66-2.55 5.42-.55 1.26-.97 2.6-1.35 3.95-.35 1.37-.74 2.73-1.28 4.04-.28 1.34.14-1.2-.37.75-.17.01.2-.93-.1-.48-.52 1.93-1.2 3.05-1.7 5.48l-.15.07c-.13.8-.35 1.54-.5 2.3l-.4 2.16-.2 1c-.04.33-.06.65-.1.96-.04.62-.07 1.2-.05 1.75-.1 1.67-.12 2.22-.2 2.8-.07.57-.13 1.17 0 2.9l-.1 1.35c.05 1.48.26 1.05.27 2.7-.13-.1.07 2.07-.1 1.12.16 3.7.95 7.46 1.43 12.3.35 1.02.63 3.45.93 4.2-.08.15.84 4.83.16 2.16-.06-.23-.12-.64-.08-.62l-.18-.3c.26 2.77 1.03 4.94 1.55 7.63-.12-.8-.35-1.86-.12-1.17l.5 2.5-.2-.5.73 3.73.01-.54c.33 1.83.26 2.52.9 4.52.3.9-.23-1.75.25.15l.9 4.34.55 2.44.15.65c.1.36.28.7.54.97.57.58 1.1.76 1.64.9-.18-.12.01-.1.4-.06.2.01.47.03.8-.03l.62-.12.12.1 1.03-.2.4 1.4a50.19 50.19 0 0 0 .59 1.9c2.22 6.92 3.77 10.36 7.23 18.28l3.5 7.9.8 1.68c.13.26.25.52.38.8.04.28.07.57.1.87.22 1.44.55 3.03 1.12 4.95 1.06 3.66 2.72 7.42 4.67 10.58l1.9 2.8c.8 1.06 1.72 1.95 2.52 2.65l.56.6c.3.23.6.48.98.73a5.43 5.43 0 0 0 1.23.56l-.06.01c.37.07.73.15 1.27-.01.02-.01.04-.02.06-.04.02-.03.04.02.06.03-.03-.03.2.18.36.3.16.12.3.22.44.3l-.05-.01c.4.26.9.5 1.5.56-.1 0-.2 0-.3-.02.48.1 1.1.05 1.6-.3a1.62 1.62 0 0 0 .59-.68 1.8 1.8 0 0 0 .13-.36c.01-.07.01-.1.01-.1 0-.06-.01-.12-.03-.17.04.03.1.06.15.08l.04.01h.01c-.06-.01.01 0 .02 0l.14.02a1.81 1.81 0 0 0 .61-.06c.43-.12.85-.42 1-.86-.06.06-.1.13-.17.18.08-.17.16-.34.18-.52.03-.16.02-.28.03-.42a6.83 6.83 0 0 0-.06-.69c-.07-.42-.17-.78-.27-1.12-.2-.67-.44-1.25-.68-1.8l-.73-1.64c-.22-.56-.4-1.2-.6-1.98l.03.04c-.58-1.74-.87-3.2-1.16-4.65a.36.36 0 0 0 .1.07l1.04.84c.33.28.8.7 1.32.93-.52-.27.2.17.15.16.16.07.26.13.46.2.2.07.4.13.6.15.4.05.75-.02 1.02-.25a1.06 1.06 0 0 0 .31-.92c.01-.16-.07-.34-.12-.5-.05-.18-.1-.3-.16-.4-.46-.87-.75-1.16-.83-1.16-.7-1.2-.52-1-.56-1.2-.06.04-.68-1-1.2-1.98l.26.44c-.5-.9-.88-1.76-1.48-2.7l-.03-.04-.07-.1c.02.04.02.06.05.1v.04c.07.17.13.33.17.48a4.98 4.98 0 0 0-.25-.43c-.01-.01-.02-.03-.02-.03-.48-.75.05-.17-.77-1.32l-.08.08c-.66-.97-1.18-1.74-1.78-2.47-.3-.37-.62-.72-1-1.07-.38-.36-.82-.66-1.25-.98-1.87-1.2-2.9-3.22-3.26-5.55-.47-2.3-.82-4.7-1.15-7.04-.65-4.7-1.16-9.36-1.5-13.7l.05-.4c.1-.18-.46-2.26-.37-2.6 0 0-1.24-4.63-.95 1.07-.07-.07.1 1.5-.03.82.18 2.7.7 5.45.93 9 .2.76.34 2.55.5 3.1-.05.1.44 3.57.07 1.6-.03-.17-.07-.48-.04-.46l-.1-.23c.12 2.04.54 3.66.82 5.66-.06-.6-.2-1.38-.06-.86l.27 1.86-.13-.38c.14.92.27 1.85.45 2.77v-.4c.1.68.16 1.15.26 1.65.08.5.25 1.04.64 1.76.37.64-.47-1.3.2.1.4.88 1.08 1.95 2.1 2.77.5.4 1.04.76 1.5 1.1s.85.73 1.22 1.13c-.08-.2.33.22.73.7l-.01.1c.78.9.86 1.13.95 1.33.1.22.14.38.92 1.42.03.02.05.05.07.06h.01c.06.05.13.1.2.18 1.15 1.8.4 1.1 1.73 3.18-.47-.86-.08-.48.47.6l-.2-.23.7 1.15c-.23-.32-.2-.13.32.7l-.42-.52c.34.5.78 1.1.93 1.36.02.1.06.24-.05.3-.06.02-.12.01-.18 0-.07-.02-.07-.02-.24-.1-.28-.13-.6-.36-.78-.5-.2-.2-.4-.4-.5-.5 0 0-.57-.52-1.27-1.06-.18-.13-.36-.27-.56-.4-.1-.06-.2-.13-.32-.2-.14-.06-.18-.13-.55-.18-.08 0-.3-.01-.5.16-.12.1-.2.22-.2.3-.04.1-.05.2-.04.24 0 .1.02.2.03.23.02.06.03.1.04.13.01.01.04.12.06.17.04.13.08.25.12.33-.2-.57.15 1.05-.04.6.25.75.82 3.02 1 3.96l-.05-.17c.2.85.4 1.64.67 2.4.13.37.3.76.45 1.1l.44.96c.28.64.54 1.28.74 1.93.1.33.18.66.23.98.06.3.02.7-.01.65.04.01.03.1-.07.12-.12.06-.33.02-.2.1h-.06c-.1-.02-.1-.04-.17-.05-.1-.03-.2-.08-.3-.14-.16.08-.28.12-.38.14l-3.8-9.43c-.1-.26-.4-.38-.65-.28s-.38.4-.28.65l3.9 9.7c.04.1.1.17.18.23v.05l-.03.22c-.02.06-.05.12-.08.17a.48.48 0 0 1-.25.19c-.2.08-.47.07-.74-.03s-.52-.25-.75-.4c-.06-.04-.1-.08-.15-.1.04-.12.04-.25-.02-.37l-4.3-9.3c-.12-.25-.4-.36-.66-.24s-.36.4-.24.66l4.07 8.8c-.1.03-.17.06-.27.1-.07.01-.13.02-.18.03a1.86 1.86 0 0 1-1.05-.27c-.27-.16-.4-.26-.67-.48l.26.17c-1-.75-1.65-1.4-2.2-1.95-.53-.56-1.05-1.06-1.6-1.84-.56-.82-.84-.8-1.73-2.4.36.47-.04-.16-.38-.73.24.36.3.47-.1-.32-.08-.1-.18-.26-.27-.42 0-.01-.01-.04 0-.03-.56-.98-.48-.8-.24-.33-.02-.02-.01.03.05.18-.5-1.05-1.48-2.9-1.42-3.08-1.4-3.07-2.23-5.35-2.93-8.08-.02-.32.18.3.4 1.1-.17-.64-.33-1.3-.47-1.94.08 0 .28 1.1.45 1.7-.23-1.16-.5-2.35-.72-3.6l-.07-.47-.04-.32-.15-.3-.46-.88a31.86 31.86 0 0 1-.87-1.86l-.3-.5-.06-.16c-.03.02-.34-.53-.52-.9-.1-.4.16-.04-.43-1.3-.4-1.03-1.32-2.83-1.93-4.13.3.72.16.5.01.2-.28-.64-.37-1.03-.6-1.5l.06-.1c.02.3-.8-1.63-.93-1.86-.1-.4.47.97.6 1.1-1.08-2.57-.56-1.28-1.6-3.85-.63-1.35.02.28-.33-.34-.52-1.2-1.03-2.38-1.53-3.8l.1.47c-.94-2.28-1.45-3.67-1.93-5.26l-2.67-6.7c1.12-.15.47.2 3-.3l.55-.26c2.93-.72 1.64 0 4.9-.86-1.3.23-.66-.17.95-.38l-.4.18c.88-.17 1.17-.27 1.77-.34-.52.15-.25.22 1.05-.01l-.85.3 2.43-.6c1.53-.14 3.7-.57 4.96-.73l.03.32 7-.06c3.24.14 7.9.14 12.64.1l6.98-.1c2.4-.06 4.5-.64 6.2-1.33 2.37-.98 4.7-2.4 6.6-4.46.03-.04.06-.08.1-.12 5.95.1 14.13-.02 20.5-.13.05.53.13 1.05.3 1.5.3.86.74 1.55 1.25 2.13 1.04 1.14 2.35 2.05 4.46 2.45l-.06.03c.33.03.68.01.98 0l.8-.04a40.1 40.1 0 0 1 1.52-.03l1.75.02 1.8.03c.01-.17-.02-.38-.03-.57l-.18-2.24-.12-1.45c-.1-1-.24-2.05-.46-3.23.1.6.05-.26.1-.22-.27-2.2-.55-4.53-.84-4.53-.17-1.6-.06-1.3.03-1.53-.12.02-.33-1.36-.48-2.6l.1.57-.45-3.57-.15.73c-.15-1.9.23-.5-.04-2.32l-.2.05c-.27-2.62-.16-4.2-.33-6.75-.64-5.55-1.5-11.3-2.35-16.92.47.2.92.35 1.36.42 1.18.32 1.6.4 2 .57.4.16.88.24 2.2.1l1.03.04c.57-.04.75-.16.95-.26s.4-.2 1-.3c-.02.17 1.47-.45.84-.1 2.7-.82 4.87-2.6 7.87-4.4.48-.63 2-1.54 2.32-2.04.13.01 2.75-2.2 1.34-.8-.12.12-.36.3-.36.27l-.1.24c.86-.53 1.53-1.14 2.17-1.78.65-.63 1.27-1.3 2-1.95-.45.37-1 .9-.7.5l1.34-1.24-.2.33c.68-.6 1.33-1.23 2-1.86l-.36.17c1-.9 1.48-1.07 2.37-2.3.4-.56-1 .8-.05-.25a79.21 79.21 0 0 0 4.64-4.83c-.24.07.15-.4.53-.9l.14.02c1.4-1.96.77-.5 2.16-2.45l.13-.44c1.1-1.85.93-.75 2.1-2.86-.55.77-.5.2.25-.7l-.08.3c.37-.53.45-.73.72-1.06-.17.35.02.27.56-.5l-.25.6.87-1.58c.9-1.04 2-2.94 2.46-3.32 0 0 .05-.06.12-.17l.15-.22a2.16 2.16 0 0 0 .27-.48c.32-.72.2-1.9-.56-2.52-.42-.4-.8-.74-1-.87.5.34-.6-.85-.2-.6-.2-.14-.5-.4-.82-.7l2-2.8.2-.14c.16-.01.67-1.3.88-1.4l.3-.54c.12-.13.34-.42.2-.15.33-.47.32-.5.52-.85l.4-.46c1.33-1.8 2.28-3.47 3.65-5.4a50.66 50.66 0 0 0 1.15-1.56l1.26-1.82 1.4-1.13 1.4-1.23 2.44-2.22 1.4-1.35v.02c.42-.45.66-.86.95-1.28l.8-1.28 1.53-2.6c1-1.75 1.95-3.52 2.72-5.26.08-.12.2-.47.2-.48l.98-1.94c.38-.27.7-.65.92-1.2.1-.26.12-.53.08-.8.06-.1.12-.25.2-.4l.38-.8c.26-.23.5-.53.72-.93.88-1.6-1.1-2.7-2.32-3.38l4-5.6c.48-.57.54-1.28.26-1.9zm-68.8 108.37l-.1.1c.5 2.76-.15 1.05.3 3.8l.23.47c.53 2.46-.1 1.37.55 4.1-.14-1.1.22-.55.3.8l-.16-.33c.1.74.2 1 .22 1.48-.1-.44-.2-.22-.06.88l-.23-.72.45 2.05c.04 1.6.48 4.13.38 4.8l.17 1.82c.05.47.1 1 .17 1.38.03.1.07.2.12.3-.07-.13-.1-.06-.14-.04-.01.02-.07-.01-.1-.03-.01 0-.01-.01-.01-.02-.42.1-2.7.14-3.47.03l.2-.02c-.9-.02-1.55-.15-2.2-.43a5.02 5.02 0 0 1-1.65-1.12c-.46-.47-.8-1.03-1-1.65-.22-.63-.22-1.26-.2-2.2-.14.17-.13-1.7-.3-1.23-.32-3.63.17-6.64-.43-7.94-.07-1.65.1-1.97.1-2.82l.04.4-.18-6.3c-.08-1.15-.35-1.32-.34-3.4.12.66.08-.18.06-.95.03.5.07.64.12-.37-.04-.14-.06-.36-.1-.57.01-.01.01-.05.03-.03-.07-1.3-.1-1.06-.1-.46-.02-.03-.04.02-.06.2.1-1.34-.1-3.73.06-3.9-.17-3.87-.45-6.63-.66-9.85.08-.37.2.38.27 1.32l-.13-2.3c.13.01.13 1.3.2 2 .1-2.73-.48-5.6-.45-8.8l-.15-.66v-.2c-.06.01-.18-.7-.23-1.17.1-.46.27.01.16-1.57.04-1.26-.3-3.54-.5-5.17.05.88-.03.6-.1.23-.07-.8.01-1.25-.1-1.86l.12-.07c-.12-.1-.32-2.1-.4-2.35.07-.46.23 1.2.33 1.4l-.5-4.74c-.3-1.67-.12.32-.34-.47-.2-1.48-.5-2.9-.63-4.63l-.07.56c-.45-2.77-.77-4.42-.9-6.32-.63-2.55-1.12-4.52-1.6-6-.48-1.48-.84-2.48-1.1-3.13-.53-1.3-.68-1.15-.6-.4.06.76.3 2.13.53 3.3.25 1.18.4 2.2.4 2.2l1.68 10.3c.5 3.25 1.05 6.7 1.5 11.56.6 8.55.46 10.84.95 19.72l.48 12.92c.26 1.97.14 5.45.36 7.8l-.1.9c.08.8.14 1.75.1 2.56l-.04-.05c.12 1.2.1 2.56.16 3.15l-.04-.05.06 1.46-.06-.25a123.54 123.54 0 0 1 .26 5.86l-2.24.02-.12-.1-4.4.03 1.64.02c-.57.3-3.32-.2-6.5.01-2.55-.03-5.16.44-7.8.5.47-.73.86-1.53 1.1-2.4.36-1.3.74-2.6 1.05-3.92 1.3-5.26 2.2-10.62 2.65-15.68.07-.32.1-1.18.08-1.18.38-3.07.7-6.15.98-9.22 0 0 .26-2.8.5-6.47s.46-8.22.53-11.7-.01-5.9-.27-5.32c-.28.58-.7 4.15-1.64 12.62l-.03-.23c-.43 5.04-.72 8.2-.78 11.7-.34.52-.42 4.13-.65 5.3v-.1c-.1 3.1-.9 6.28-1.13 9.24-.01-.12-.07-.2.02-.87-.26 2.14-.67 5.07-.87 5.2-.4 2.55-1 5.56-1.66 8.33-.17.68-.32 1.4-.5 2-.15.58-.38 1.1-.63 1.6-.5.98-1.2 1.72-1.68 2.32l.12-.18c-.58.68-1.04 1.04-1.54 1.4-.5.34-1.04.68-1.92 1.2-.1.03-.24.1-.22.07-.85.52-2.2 1.08-3.56 1.4-1.36.34-2.7.46-3.5.5l-.1-.1-4.1.03 1.53.02c-.53.3-3.1-.2-6.08.01-2.78-.04-5.65.64-8.54.5-1.38.14 1.2-.23-.85-.12-.07-.16.96-.1.43-.23-1.92.07-3.2-.14-5.45-.07.05-.1.1-.2.12-.3l.15-.7c.06-.35.08-.6.1-.87.06-.53.1-.98.07-1.22.01.85.34-1.43.4-.76.01-1.1.26-4.26.55-5.5l-.01.24a95.06 95.06 0 0 0 .5-4.28c.43.08.8.14.94.24a10.63 10.63 0 0 0 .83.13c.44.03.93.05 1.1-.03-.33.1.54.2.3.32.42-.1 1.62-.16 2.1-.03h-.1c1.8.15 3.06-.3 4.7-.36-.1-.13.76-.2.52-.35 1.6-.48 3.1-.4 3.47-1.18.7-.3.9-.23 1.27-.4l-.15.1.8-.46.6-.4c.37-.22.66-.48 1.1-.82.38-.4.26-.66.95-1.34-.1.32.12-.01.34-.3-.13.2-.15.28.2-.07.01-.08.07-.17.1-.26.01 0 .02-.01.03 0 .28-.56.2-.48.04-.24-.01-.02-.04-.01-.1.05.2-.24.47-.62.6-.97.15-.35.27-.63.37-.63.15-.45.22-.88.3-1.28l.1-1.1c.07-.7.1-1.37.2-2.08.12-.14.15.2.1.6l.13-1c.13.03-.01.6-.04.9.4-1.16.17-2.5.56-3.86l-.06-.3.03-.08c-.06 0-.1-.33-.08-.54.14-.18.26.05.35-.64.2-.53.15-1.57.17-2.3-.07.38-.12.25-.14.08.04-.35.18-.53.16-.8h.16c-.16.12-.05-.93-.1-1.06.14-.18.03.55.1.65l.22-2.1c-.03-.76-.16.12-.26-.25.05-.66.01-1.3.2-2.05l-.17.22c.03-1.24.12-1.98.35-2.8-.04-1.96-.12-3.18-.24-3.9.54-.12.6-.3-.1-.54-.12-.4-.26-.37-.4-.12-.72-.2-1.88-.45-3.65-.75l.08-.04c-1.82-.16-2.97-.2-4.24-.01-.2-.3-1.5-.07-1.93-.17l.04-.02c-1.12.2-2.3-.24-3.37-.07.04-.02.07-.1.3-.1-.78.02-1.86.06-1.9-.1-.9 0-2-.03-3-.04.05-.15.1-.3.15-.45-.1.76.08-.2.5-.9-.2.5-.3.65.32-.3.06-.16.16-.38.28-.6.01 0 .04-.04.04-.01.8-1.28.63-1.08.23-.5.01-.04-.04 0-.2.17.96-1.24 2.54-3.62 2.8-3.67l7-9.5c.34-.28-.15.48-.82 1.38l1.67-2.17c.1.1-.92 1.28-1.42 1.96 2-2.22 3.72-4.9 5.92-7.55 1.6-2.54 5.7-9.2 5.26-9.5-.24-.16-1.57 1.4-2.97 3.17l-.5.78c-1.1 1.47-2.04 2.74-3.1 4.02l-7.5 9.38a229.9 229.9 0 0 0-4.78 6.21l-2.3 3.2c-.73 1.1-1.48 2.1-2.07 3.52-.36 1.34-.7 2.95-1 4.64-.32 1.7-.57 3.42-.7 4.82l-.27 1.06a28.23 28.23 0 0 1-.38 3.05l-.03-.07c-.1 1.44-.36 3.05-.4 3.77l-.03-.06-.2 1.74-.01-.3c-.22 2.5-.5 5.08-.82 7.34l.17-.17c-.72 4.83-.62 6.64-1.3 11l-.03-.06c-.13 2.78-.43 4.96-.78 7.15-.18.98-.36 2.58-.5 2.4.08.01-.8.15-1.38.26a51.89 51.89 0 0 0-2 .42c.7-.16-.32-.02-.26-.07-2.6.46-5.38.93-5.37 1.22-1.9.3-1.56.16-1.83.1.03.12-1.6.44-3.1.68l.67-.16-4.24.72.87.1c-2.26.3-.62-.2-2.77.2l.06.2a43.53 43.53 0 0 1-2.15.27l-.97.1-.23.02c-.04 0-.08 0-.13-.01-.1-.01-.2-.04-.32-.07-.22-.07-.42-.18-.56-.3-.1-.1-.16-.2-.17-.34l-.4-2.03c-2.97-12.3-6.15-25.62-6.88-37.37l.1-.53c.1-.12-.06-.92-.2-1.75-.13-.83-.25-1.7-.17-1.9l-.17-1.36c.02-.38.02-1.2.1-.52-.06-1.26-.05-1.28-.13-2.2l.13-1.35c-.01-1.24.1-2.4.17-3.58l.1-1.73.5-3.4.42-1.73c.28-1.17.58-2.38 1-3.6 1-2.97 2.66-7.18 4.5-11.4 1.83-4.22 4.03-8.35 5.65-11.36 2.3-4.23 5.26-8.53 8.5-12.62 3.26-4.06 6.72-8.02 10.28-11.26.26-.17.84-.73.82-.75 2.28-1.78 5.13-3.28 7.92-4.14 4.34-1.34 7.96-1.68 8.83-1.74.9-.04 1.74-.1 2.46-.18a24.48 24.48 0 0 1 2.3.33 28.54 28.54 0 0 1 3.36.42c1.83.4 3.54.96 5.24 1.85.16.15.04.13-.24 0-.3-.1-.76-.3-1.26-.52l1.22.57 1.17.68c-.1.1-1.35-.76-2.13-1.05 1.4.76 2.8 1.62 4.15 2.7 1.35 1.06 2.6 2.38 3.6 4l.54.6.1.2c.04-.04.55.65.86 1.13.16.53-.25.1.63 1.76.56 1.38 1.73 3.88 2.34 5.76-.3-1.02-.13-.7.05-.3.26.92.32 1.47.55 2.18l-.1.1c.15.1.73 2.45.82 2.76-.01.56-.4-1.44-.55-1.64.8 3.74.45 1.86 1.08 5.65.4 2 .1-.4.37.56.28 1.8.58 3.55.65 5.64l.1-.67c.4 3.4.43 5.46.35 7.77l.63 11.63c.14 1.7.3 1.6.46.67.15-.92.3-2.65.38-4.15.1-1.5.12-2.77.12-2.77a92.61 92.61 0 0 0-.37-13c-.46-4.07-1-8.4-2.7-14.3-1.47-5.17-3.02-8.33-5.03-11.25-.46-.62-.94-1.24-1.46-1.85.2.14.4.26.42.24 1.98 1.5 3.87 3.12 5.6 4.88 0 0 1.6 1.57 3.34 3.92 1.77 2.33 3.4 5.57 4.46 8.16 1.04 2.6 1.63 4.47 1.76 3.94.04-.26-.02-1.12-.38-2.76l-.33-1.38-.5-1.67c-.2-.6-.45-1.26-.7-1.98-.3-.7-.6-1.47-1-2.26l.14.14c-2-3.74-3.84-5.8-6.03-7.7-.02-.13-.18-.34-.4-.58.47.34.93.68 1.37 1.03.88.73 1.73 1.42 2.42 2.1.74.64 1.33 1.25 1.82 1.7l-.15-.1c1.16 1 1.28 1.48 2.36 2.77.04.1.1.2.08.18.54.63 1.17 1.66 1.78 2.65l1.35 2.63-.07.13c.4 1.02.86 2.02 1.22 3.05-.1-.4-.28-.77-.4-1.16.5.28.64 2.4 1.45 4.66.46 2.22 1.72 4.33 2.02 6.68.37 1.07-.43-.92.02.7-.15.1-.26-.75-.3-.3.4 1.6.4 2.68.9 4.66l-.1.1c.7 2.57.76 4.96 1.3 6.66.56 2.7-.06 1.88.66 4.65l.02 1.12c.18 1.2.35.83.48 2.18-.12-.06.18 1.7-.04.94.32 3.05 1.2 6.1 1.5 10.15.33.84.5 2.87.74 3.5-.07.12.54 4.04.04 1.8-.04-.2-.1-.54-.05-.52l-.16-.25c.08 2.3.7 4.13.97 6.4-.05-.68-.18-1.57-.01-.98l.26 2.1-.16-.42.35 3.14.07-.45c.14 1.54-.01 2.1.4 3.8.2.77-.01-1.47.23.14l.7 7.77c.15-.25.23.45.34 1.17zm-62-1.4c.33-4.35 1.33-7.84.97-9.48.22-1.97.44-2.3.6-3.32l-.04.47c.47-3.68.6-4.75 1.1-7.44.1-.68.08-1.08.14-1.6v-.03c2.25.2 4.54.45 6.68.3a.89.89 0 0 0 .42-.05l3.34.1s4.98.15 7.32-.08c-.2.76-.35 1.7-.35 1.7-.68 3.57-.47 5.47-.88 9.76-.55 3.75-.94 4.7-1.45 8.57-.17.9-.32 1.92-.52 2.64-.26.76-.57 1.5-1.08 2.1-.3.74-1.46 1.48-2.18 2.08-.12.03-.25.05-.38.07-.26.2-.57.43-.9.5l.01-.04c-.4.27-.95.43-1.17.54l.01-.04-.57.2.08-.08c-.8.34-1.7.54-2.5.62l.1.13c-1.72.08-2.34.43-3.92.25l.02-.04c-2 .37-3.13-.32-5.16-.28.25 0-.1-.1-.07-.13-.08-.01-.16-.02-.24-.04.17-1.93.35-3.8.68-5.88-.16.2.18-2-.07-1.48zm102.8-54.1l-.46.75-.52.9c.25-.44-.18.14-.2.08-1.02 1.56-2.17 3.18-1.96 3.37-.8 1.1-.72.84-.92.92.1.07-.56 1.05-1.2 1.9l.26-.42L307 147l.56-.32c-1.06 1.22-.48.14-1.4 1.4l.16.1c-1.44 1.7-2.5 2.52-4.03 4.05-3 3.33-6.17 6.7-9.58 9.73-.85.75-1.73 1.46-2.6 2.17-.9.67-1.78 1.37-2.7 1.98-1.8 1.26-3.67 2.33-5.53 3.08l-.38-.01c-.1-.07-.58.2-1.1.48-.5.23-1.05.45-1.22.4-.28.13-.58.18-.87.25-.26-.01-.8.02-.35-.1a5.16 5.16 0 0 1-.8.07c-.18.02-.34.03-.63.06a3.3 3.3 0 0 1-.86-.22c-1.37-.23-2.63-.67-3.9-1.23l-1.78-12.6.08-.45c.18-.22-.74-2.64-.6-3.05l-.3-1.12c-.02-.32-.1-1 .05-.45-.17-1.05-.2-1.07-.4-1.8l-.06-1.15c-.3-2.08-.68-3.98-1.1-5.9l-1.25-6.05c-.37-2.54-1.14-6.1-2.12-9.75l.76.78c2.55 2.68 4.32 4.34 6.33 5.77 1.02.7 2.08 1.37 3.42 1.97 1.34.58 2.94 1.15 5.03 1.34 1 .1 2.03.08 3.06-.06a11.81 11.81 0 0 0 3.01-.88c.98-.47 1.77-.97 2.56-1.48s1.55-1.04 2.28-1.56c1.28-1.14 3.8-2.76 5.26-4.14l.68-.38c.5-.47 1.1-1 1.7-1.4l-.01.05c.74-.72 1.68-1.4 2.04-1.77l-.01.05.72-.62.03-.1v.03c.01.01.02.03.02.04 0-.01.01-.01.02-.02.03-.01.1-.02.17 0a.71.71 0 0 1 .15.07l.47.47 1.77 1.85.01-.2c2.3 2.6 3.4 3.3 5.45 5.66l-.05-.01c1.96 1.66 3.15 3.13 4.56 4.67a.35.35 0 0 1 .04.38zm18.3-31.93c-.38.3-1.03.37-2 .24-1.1.03-2.1-.47-2.55-.96-.2-.2-.3-.43-.3-.6.12-.94 2.23-.8 2.4-.8.14.03.35.06.6.1.68.08 1.95.24 2.3.68.06.08.08.16.07.27-.06.5-.23.85-.52 1.07zm.04-2.83c-1.9-.3-3.4-1.47-3.4-2.28.04-.23.15-.4.36-.55.65-.46 1.93-.45 2.47-.34.13.03.32.05.55.1 1.03.15 3.45.5 3.3 1.5-.23 1.15-1.12 1.56-3.3 1.57zm5.47-4.7c-.44 1.12-1.4 1.33-3.87.84-1.67-.26-2.95-1.1-3.36-1.8-.14-.25-.18-.47-.1-.66h0c.3-.87 2.04-.9 3.16-.67a7.33 7.33 0 0 1 .38.09l.24.07a25.39 25.39 0 0 1 .87.26c.17.1.35.2.53.3.4.2.84.36 1.3.47.4.22.7.46.84.73.07.12.07.24.02.38zm-4.1 7.1c-.01.01-.01.02-.02.04.05-.17.1-.35.1-.54a1.36 1.36 0 0 0-.25-.96c.37-.04.73-.1 1.06-.2-.36.78-.8 1.65-.9 1.66zm.98-1.7zm1.66-3.26c-.02-.03-.03-.05-.05-.08.03 0 .06-.01.1-.01-.01.03-.02.06-.04.1zm2.9-5.18c-.4.75-.92 1.18-1.93 1-.5-.28-1.12-.52-1.77-.73-1.4-.87-2.24-2.28-1.92-2.95a.78.78 0 0 1 .55-.43c.7-.18 1.84.26 2.38.65.18.12.44.27.74.44 1.2.65 2.32 1.35 1.95 2.03zm1.75-9.1l-4.05 5.68c-.7-.44-2-.94-3-.68-.54.14-.96.47-1.2.96v.01c-.4.84-.04 1.88.7 2.8-1.4-.2-3.4-.06-3.9 1.4-.17.48-.1 1 .2 1.5.2.33.5.65.85.93-.65.05-1.34.2-1.85.57a1.82 1.82 0 0 0-.78 1.26v.05c-.03.76.46 1.48 1.2 2.06-1.57.06-2.56.66-2.7 1.68v.01c-.05.46.14.93.54 1.36l-.04.06c-.3.34-.6.45-.94.38l-4.38-1.15a.64.64 0 0 0 .06-.16l.06.02.17-.4-.08.14c-.14-.13.24-.24.26-.56.14-.25-.1-.68.1-.9-.02-.16.08.17.1-.05.1.03.02.1.1.1.04-.2.23-.27.27-.53l.07.02c.01-.36.34-.54.3-.8.08-.34.3-.12.3-.5l.15-.1c.07-.13-.07-.15.04-.3.05.03.13-.18.15-.06.12-.16.16-.35.2-.55.03-.1.06-.2.1-.3.02-.05.04-.06.08-.06h.01c-.07-.1.06-.08.14-.22.04.04.47-.23.26.01-.02.02-.06.04-.07.02v.08c.33-.02.45-.32.7-.45-.1.02-.2.1-.14.01l.24-.13-.02.08.37-.18-.1-.03c.2-.08.32 0 .45-.22.05-.1-.2.02-.05-.12.25-.1.62-.28.9-.48-.08-.05-.01-.1.06-.18l.06.05c.2-.3.2.04.43-.26l-.02-.12c.14-.33.24 0 .36-.4-.1.1-.16-.07-.02-.17l.02.08c.06-.08.06-.12.12-.16-.01.07.05.1.15-.02v.13c.03-.1.06-.2.1-.3.2-.1.35-.42.47-.43 0 0 .33-.33.3-.5.01.12.17-.08.2.03 0-.15.13-.45.3-.57l-.01.03c.38-.5.3-1 .45-1.5-.1.02-.03-.26-.14-.2-.05-.3 0-.44-.02-.77-.01-.24-.07-.43-.18-.5l5.44-7.05c.15-.17.28-.34.4-.5.58-.74.8-1 1.33-.9l3.9.58c.03 0 .05.01.08.01.33.07.48.33.53.44.13.28.1.6-.07.86z"/><path d="M308.57 148.2h0l-.06.22zm-35.35 48.25h0l-.12-.23zm1.8 16.88c.02.03.04.05.06.07.1-.03.1-.05-.06-.07zm-10.93-60.77l-.03.02c.01.01.02 0 .03-.02zm-48.32 101.9c-.02-.02-.03-.03-.05-.04l.05.04zm-26.5-36.48h0l-.27.13z"/></svg>