<svg xmlns="http://www.w3.org/2000/svg" viewBox="0 0 480 480" xmlns:v="https://vecta.io/nano"><path d="M343.1 205.65c-3.1-.3-7.14-1.38-8.04-1.38s-4.1-.3-6.2.3c-1.5.4-3.1 1.5-6.4.3-2.7-1.1-8.6-4.47-14.8-8.22l1.5-4.78c.3-1.1-.1-2.3-1-2.9-5.7-4-25.5-16.3-28.5-20.5-7.87-11.13-11.25-29.98-22.27-48.45-5.58-12.6-16.3-16.63-19.1-17.2-3.07-1.66-6.38-2.73-9.95-3.12-2.06-.68-4.3-1.04-6.77-1.05-.7 0-1.62.1-2.7.47-4.17.18-9.08 1.86-15 5.33-10.5 6.3-20.6 18.3-31.5 41.2-6 12.7-10.5 24.1-13.9 47.6-2.3 16.2-1.1 34.7-.3 38.6.2 1.1 1.1 1.8 2.1 1.8l3.83-.02c.36 8.5.87 14.32.87 14.32s-2.3 6.8.6 14c.1.6 1 1 2 1.6.5.4.9.9 1.5 1.1.4.1.6-.3 1.1-.1.6.2 1.6.7 2.3.5 2-.6 1.8 0 2.8-.1 1.1-.1 1.7-1 1.6-1.2.3-2.3.7-4.4.6-5.4s1.3 1.3 2 2.9c.9 1.7 2.8 2.6 2.1-.5-.7-3-.9-5.6-1.1-6.4s-1-4-2.2-5.8c-.8-1.2-2.4-2.5-2.2-6 .16-1.83.76-5.1 1.57-8.98l4.93-.02c1.1 0 2-.8 2.1-1.8.22-1.38.57-4.6 1.1-8.68l-1.3 21.98c-.2 2 .9 3.9 2.5 3.9l32.8.7c7.8 0 20.4-3.1 23.4-12.5 1.8-5.7 2.6-16.8 2.97-29.6h16.77l1.36 25.7c.9 10.7 8.1 13.2 11.2 13.2h3.3c.9 0 1.5-.8 1.4-1.6l-6.03-38.8c.02.1.04.22.05.33 9.5 3.3 17.13 6.05 25.98 8.67.9.3 1.7-.2 2-1l.8-2.5c12.1 3.63 21.5 5.8 21.5 5.8s5.7 4.2 13.4 3.9c.6.1 1.3-.7 2.1-1.4.2-.15.2-.38.17-.64l.03-.06c.14-.45.06-.78-.14-1.06.01-.05.02-.1.04-.14.2-.4.75-.32 1.6-.4.93-.24 1.3-1.5.9-2-.02-.02-.03-.04-.04-.05-.05-.3-.2-.56-.46-.77-.27-1 1.45-.9 1.6-1.63.2-1.1.13-1.98-.62-2.25-2-1-3.9-2-5-2.3-1-.2 3.3-.32 4.9-.62 1.82-.3 3.24-2 .14-2.3z" fill="#fff"/><path d="M345.32 206.1c-.05-.13-.16-.23-.25-.35l-.38-.28c-.25-.13-.52-.24-.74-.3-.5-.12-.97-.15-1.4-.2l-1.3-.2-2.66-.48-2.7-.5c-.24-.03-.45-.08-.76-.08l-.67-.01-1.37-.03c-.92-.01-1.84.01-2.77.12-.92.08-1.88.36-2.7.66-.8.3-1.6.47-2.4.44-.8-.01-1.57-.2-2.3-.47l-.23-.17c-.06-.15-1.7-.54-1.86-.78l-.7-.3c-.18-.12-.57-.35-.22-.2l-1.12-.53-.63-.43c-8.14-5.1-7.03-2.8-5.82-2.17l.01.1c1.6.78 2.88 1.77 3.98 2.25 1.65.83.97.8 2.75 1.58l.62.44c.74.38.6.15 1.4.6-.08.04 1.07.53.54.36.95.5 2.08.8 3.3.83.62.01 1.26-.05 1.9-.2l1.9-.54c.48-.3 1.77-.43 2.2-.53.07.01 2.67-.05 1.17.08-.13.01-.35.02-.34-.01l-.18.08c.75.05 1.43.04 2.13.03l1.06-.01h.28l.2.01c.16.01.34.05.52.08l-.6-.1c-.1-.02-.15-.03 0-.04.42.05.9.15 1.35.24h-.3l2.07.46-.27-.13c1 .24 1.35.45 2.53.55.54.03-.96-.27.13-.1l2.46.43c.4.05.87.2.9.25.08.06.05.15-.03.2.05.01.05.04.01.1-.05.06-.23.18-.4.28l-.07-.05c-.68.33-.9.24-1.06.25-.17-.02-.32-.04-1.23.1l.16-.07c-.18.07-.26.13-.52.2l-2.3.2c-.23.01-.5.02-.73.1l-.06.03a.49.49 0 0 0-.53.24c-.01.02-1 1.72-3.2 3.23-2.06 1.43-4.24.82-4.26.82a.49.49 0 0 0-.62.34c-.08.26.07.54.34.62.02 0 .1.03.2.05.67.14 2.82.44 4.9-1l1.2-.93c-.01.3.05.6.2.86.12.2.28.4.46.57-.7.1-1.3.47-1.6 1.35h0c-.16.47-.12.95.12 1.38.1.2.27.4.46.56-.75.02-1.42.33-1.77 1.24l-.01.04c-.5 1.67 1.8 2.54 2.83 2.92.4.13 1.04.32 1.7.38-.02.03-.02.05.03.04-.18.15-.35.2-.38.2l-.04-.01h-.07c-2.03.1-3.6-.4-4.4-.22-1.08-.17-1.25-.35-1.8-.5l.26.04c-1.97-.5-2.53-.74-3.92-1.34-.7-.3-.9-.18-2.06-.87.4.16-.08-.1-.5-.36.28.16.38.2-.16-.2-.1-.03-.22-.1-.33-.17 0-.01-.02-.02-.01-.02l-.27-.18-.4-.08-.08-.01c.03.01.1.04.35.1-.02 0-.01.01.1.05a.75.75 0 0 0 .08.07c-.03-.02-.05-.04-.08-.06l-.8-.22-.78-.2c-.5-.12-.9-.23-.93-.3l-6.45-1.47c-.22-.12.28-.04.9.1l-1.5-.37c.03-.07.86.18 1.32.3-1.73-.6-3.67-.85-5.7-1.54l-.44-.06-.12-.04c0 .04-.48-.05-.8-.13-.27-.15.06-.15-.96-.44-.8-.3-2.3-.62-3.36-.9.56.18.37.16.12.1l-1.18-.4 2.74-7.97c-.23.25.04-.58.28-1.44l.15-.06c.86-3.32.64-1.12 1.53-4.4v.3-.3l.01-.62c.7-3 .74-1.5 1.45-4.85-.2.65-.3.78-.3.55 0-.1.03-.3.1-.6.08-.36.14-.8.1-1.34.06.17.1.35.13.54.01-.6-.1-1-.22-1.33-.13-.33-.26-.6-.5-.94.24.28.3.36.23.14-.05-.1-.14-.28-.33-.5a3.04 3.04 0 0 0-.36-.36 2.5 2.5 0 0 0-.24-.18l-.2-.14.2.1.28.16c.18.12.36.26.52.42-.2-.23-.47-.44-.72-.6l-.57-.33-1.12-.63c-1.57-1.22-4.27-2.8-4.85-3.38l-4.4-2.78c.77.37-1.14-.95-.52-.7-.98-.5-3.73-2.2-4.7-3.06l.2.13-5.26-3.66c-1.62-1.12-3.2-2.23-4.73-3.65.03.12-.37-.2-.73-.48-.34-.3-.65-.55-.52-.3l-.6-.52-.47-.54c-.32-.33-.57-.83-.83-1.2l-.74-1.2-.6-1.14c-.8-1.43-1.34-2.6-1.96-3.2-.9-1.8-.87-2.22-1.3-3.17l.22.42-2.95-7.08c-.55-1.3-.9-1.4-1.72-3.78.4.72 0-.23-.33-1.1.23.56.33.72-.04-.46a6.2 6.2 0 0 1-.31-.63c0-.01-.01-.06.01-.04-.6-1.46-.53-1.2-.28-.5-.03-.03-.03.04.03.26-.45-1.58-1.65-4.25-1.56-4.5-1.8-4.4-3.28-7.46-5.04-11-.1-.44.36.36.88 1.38l-1.22-2.53c.13-.04.76 1.43 1.15 2.2-1.2-3.14-3.2-6.12-4.95-9.63-.16-.22-.32-.44-.5-.65l-.1-.2s-.03-.02-.04-.03c-.15-.42-.3-.84-.5-1.25-.6-1.27-1.2-2.57-1.96-3.78-2.84-4.95-7.24-9.06-12.1-11.42-.3-.2-1.15-.53-1.15-.5-.72-.36-1.48-.66-2.24-.95-.8-.26-1.5-.53-2.48-.66l-3.85-.5a19.89 19.89 0 0 0-4.6-2.54c-2.06-.8-4.25-1.28-6.78-1.42l-.97-.04c-.33-.01-.73.02-1.1.04-.75.1-1.5.26-2.24.5a13.23 13.23 0 0 0-1.42.58c-1.86.22-3.46.67-4.9 1.15l-1.47.54c-.47.2-.92.4-1.37.62-.9.4-1.75.9-2.6 1.38-.35-.01-1.4.56-2.5 1.2-1.1.62-2.2 1.44-2.8 1.76l.1-.1c-2.78 2.14-5.87 4.26-8.1 6.8.07-.1.06-.22.62-.76-.88.87-1.85 1.95-2.65 2.8-.77.88-1.38 1.53-1.5 1.54-1.88 2.25-4.04 5.02-5.84 7.7-.9 1.34-1.73 2.66-2.46 3.83a68.29 68.29 0 0 0-1.72 3.08l.1-.24c-.9 1.93-1.37 2.4-2.45 4.5-.08.1-.17.25-.17.22-.97 2.1-3.15 5.97-3.9 7.7l-.15.06-1.98 4.16.76-1.54c.01.67-1.67 3.06-2.84 6.2-1.3 2.85-1.9 6.08-3.13 9.07-.38 1.5.23-1.36-.43.85-.18.02.26-1.05-.05-.53-.68 2.17-1.38 3.47-2.08 6.2l-.15.07c-.82 3.57-2 6.62-2.3 9.05-.73 3.7-.9 2.4-1.45 6.3l-.45 1.47c-.34 1.65-.02 1.22-.4 3.04-.1-.13-.48 2.3-.4 1.22-.84 4.13-1.1 8.5-1.78 14.04.1 1.22-.17 4-.04 4.92-.12.14-.18 5.6-.3 2.46-.01-.27 0-.75.04-.7l-.1-.38c-.33 3.17 0 5.77.01 8.9.03-.93.01-2.17.1-1.34l.03 2.92-.12-.6.08 4.35.1-.6c.03 2.13-.15 2.9.2 5.28.2 1.08.01-2.03.23.2a63.33 63.33 0 0 0 .15 2.38c.03.43.08.88.13 1.34.02.23.06.47.1.7.04.23.05.47.16.82.2.65.6 1.27 1.2 1.7.3.2.62.37.96.48.17.05.35.1.53.1a5.09 5.09 0 0 0 .47.03l2.8.03c-.14-.06-.05-.1.17-.1a142.23 142.23 0 0 0 .26 5.15l.27 4.1.33 3.93c-.01.05-.03.1-.04.14-.28 1.33-.75 3.62-.7 5.2l-.08.6c.02.54.08 1.17.05 1.72l-.02-.03c.1.8.18 1.7.28 2.1l-.03-.03c.05.32.1.65.18.97l-.06-.16c.3 1.32.74 2.64 1.15 3.8l-.04-.14c.02.1.05.22.1.3a1.49 1.49 0 0 1 .02-.21c.18.6.54.83.8 1.03a8.41 8.41 0 0 0 .73.46c.22.12.42.24.62.35.07.02.28.2.43.34.17.14.34.3.55.45.22.15.43.3.85.4.37.1.92-.2.9-.14.03 0 0-.01.1.04l.4.16-.04.01c.66.18 1.3.46 2.14.33.37-.1.56-.15.82-.2a2.26 2.26 0 0 1 .66-.05c.18.01.35.1.74.18.38.06.7.03 1.07-.05a2.69 2.69 0 0 0 1-.5c.15-.12.3-.26.42-.44.06-.1.13-.18.18-.3a1.02 1.02 0 0 0 .08-.23c.01-.06.03-.15.01-.28l.07-.85c-.03.4.07-.16.08-.12l.24-2.02.02-.33c0-.08-.01-.1-.02-.14-.02-.08-.04-.15-.08-.2.05-.5.07-.3.13-.23-.03-.08-.06-.22-.07-.42.12-.08.23.15.34.3l-.1-.08a4.55 4.55 0 0 1 .28.43l.16.28.26.5-.08-.47c.26.56.25.65.25.72 0 .04 0 .08.03.17.02.08.13.3.3.55l.1-.08c.26.4.48.7.84 1 .37.3.87.58 1.32.4.45-.18.66-.68.67-1.25.04-.5-.02-.85-.08-1.3-.38-1.67-.65-3.38-.9-5.14-.07-.44-.12-.9-.25-1.37a31.66 31.66 0 0 0-.37-1.3c-.26-.86-.56-1.72-.92-2.55-.35-.83-.78-1.67-1.35-2.4-.55-.7-1.03-1.34-1.33-2.07-.63-1.48-.5-3.1-.2-4.65l.13-.27c.14-.1.1-1.77.26-2l.07-.74c.06-.2.17-.63.13-.26.13-.68.12-.7.17-1.2l.22-.7.3-1.5c.4-.02.7-.03 1.1-.02-.6.07-.32.18 1.2.15l-1 .15 2.85-.23c.15.01.25.02.46.01a3.58 3.58 0 0 0 .64-.07c.34-.07.66-.23.97-.43l-.62 10.75c-.12 1.04.01 2.3.6 3.32.3.52.7 1 1.3 1.34.28.17.62.28.95.34.16.02.35.03.48.04l.36.01 5.65.2.65.16c.28.22 4.1-.23 4.65-.02l1.72-.06c.48.05 1.5.1.65.14 1.6.04 1.63.01 2.78-.03l1.7.17c3.14.12 6.05.14 9 .16l4.5.03c1.5.05 3.18-.04 4.85-.2a32.51 32.51 0 0 0 7.12-1.36c2.6-.8 5.38-2.04 7.84-3.88 2.45-1.83 4.44-4.42 5.4-7.2.15-.34.24-.68.3-1.02l.24-1c.15-.66.33-1.3.43-1.93l.54-3.5c.68-6.07 1.17-12.6 1.55-19.2l.13-2.66 4.02-.02 10.75-.17c.05 1 .12 2 .2 2.84l-.07 1.15c.1 1 .2 2.2.2 3.23l-.04-.06c.16 1.5.2 3.23.27 3.98l-.04-.06.1 1.84-.07-.3c.22 2.64.4 5.37.48 7.78l.13-.2c.04 1.3.1 2.38.18 3.35l.1 1.4.2 1.34c.3 1.74.63 3.43 1.64 5.7l-.06-.04c1.6 2.72 3.4 4.56 5.64 5.8 1.1.62 2.33 1.1 3.74 1.28.34.06.73.06 1.1.07l1-.02 2.16-.1c-.75.04.28.08.38.1a2.47 2.47 0 0 0 1.57-.86c.38-.46.58-1.05.57-1.63-.02-.34-.06-.47-.08-.63-.03-.16-.06-.32-.08-.47-.06-.3-.1-.6-.16-.87-.2-1.08-.4-1.8-.55-1.8-.3-2-.16-1.65-.1-1.93-.12.03-.44-1.7-.7-3.27l.16.7-.73-4.48-.1.92c-.3-2.4.2-.65-.22-2.92l-.2.06c-.47-3.3-.48-5.28-.83-8.5l-2.26-13.9c2.18.7 4.5 1.46 7.12 2.53 1.08.16 3.4 1.08 4.2 1.2.1.13 4.73 1.6 2 .9-.23-.06-.64-.2-.6-.22h-.36c2.6 1.12 4.9 1.5 7.57 2.38-.78-.3-1.83-.6-1.1-.47l2.48.8-.55-.06 3.68 1.18-.47-.27.68.23c.3.1.63.13.94.1a2.59 2.59 0 0 0 1.59-.7 2.62 2.62 0 0 0 .52-.67c.07-.13.13-.25.2-.42l.1-.3c.1-.37.23-.8.34-1.32.2-.95-.7 1.66-.14-.26.01-.03.03-.07.04-.1l.76.22c5.54 1.66 6.98 2.23 12.8 3.7l3.56.9 3.42.8.5.33.6.36c1.23.6 3.37 1.7 4.96 2.07l.58.25c.54.13 1.18.25 1.72.4l-.04.01c.4.05.85.13 1.23.2.4.05.72.1.93.1l-.04.02c.33.05.67.06 1 .08l-.18.02c.82.04 1.65.02 2.45.01l-.13-.01c.66.07 1.02-.22 1.3-.4.3-.2.5-.4.73-.6l-.14.01c.25-.22.48-.4.7-.6.37-.3.45-.76.4-1.15-.01-.07-.02-.12-.04-.2.04-.27.04-.52-.02-.73.02-.01.03-.04.06-.04.01-.01.25-.03.44-.04.23-.03.35.02.78-.1.6-.22 1.1-.74 1.3-1.45l.01.05c.05-.23.07-.47.04-.72-.02-.25-.13-.54-.3-.74-.02-.03-.03-.04-.05-.07-.03-.08-.06-.17-.1-.24-.06-.1-.13-.22-.22-.3.01-.03.02-.06.04-.1.06-.06.1-.07.34-.18.22-.1.44-.16.77-.38.16-.12.3-.27.4-.46.1-.17.14-.43.15-.52.04-.26.08-.53.08-.83a2.34 2.34 0 0 0-.19-.99c-.15-.37-.53-.73-.94-.85l.07.03c-.33-.14-.67-.3-1.06-.47.37.16-.13-.12-.1-.12l-1-.48a2.51 2.51 0 0 0-.37-.15c-.2-.06-.43-.12-.66-.13-.5-.2-.22-.12-.03-.12-.08-.01-.15-.03-.24-.04-.14-.02-.1-.07-.05-.07.08-.03.27-.06.46-.08l-.1.04 1.25-.13c-.18-.03-.32-.07-.44-.1 1.2-.07.3.16 1.53-.02l-.03-.1c.9-.1 1.67-.25 2.37-.82.4-.4.73-.97.46-1.5zM176.4 237.3l-.24.7c-.15.8.02.6-.18 1.46-.06-.07-.23 1.1-.2.58-.2 1-.36 2-.34 3.2.04 1.16.26 2.46.92 3.76.4.5 1.22 1.6 1.5 1.86.05.03 1.15 2.25.43 1.02-.06-.1-.16-.3-.13-.3l-.15-.1c.54 1.3 1.1 2.37 1.5 3.78-.1-.42-.28-.97-.1-.62a28.05 28.05 0 0 1 .36 1.31l-.13-.26c.18.68.3 1.24.36 1.94l.04-.3c.1 1 .01 1.38.3 2.5.14.5-.05-.97.14.1a40.97 40.97 0 0 0 .36 2.41c.1.46.18.88.2 1.26.02.26.01.22 0 .27-.01.03-.03.07-.06.08.1.08-.02.15-.14.1l.01-.08c-.08-.02-.32-.25-.4-.36a.68.68 0 0 1-.13-.26c-.02-.07-.05-.14-.1-.27-.02-.03-.04-.07-.06-.1-.01-.02-.02-.03-.01-.02-.01-.03-.03-.06-.04-.1-.06-.14-.15-.3-.26-.5l-.24-.25c-.2-.3-.5-.84-.64-1.08l-.37-.64c-.2-.33-.5-.87-1.2-.8.33 0 .36.13.3.13-.04.01-.1-.01-.25-.01-.2.06-.13.18-.2.3l.02-.2c-.1.26-.2.44-.28.9-.01-.3.01-.32-.05-.26-.04.1-.04.55-.08 1.2l-.04-1.02a11.78 11.78 0 0 1-.02 1.35l-.04.84c-.2.92-.34 2.37-.48 2.95l.54.12c-.1.05-.36-.01-.48-.06.01 0-.05-.02-.06-.02-.02.03-.04.06-.1.1-.08.1-.25.24-.44.34s-.42.15-.63.17c-.2.02-.32 0-.47-.01.2.02.07-.04-.2-.13-.27-.1-.6-.12-.33-.14-.44-.01-1.1.15-1.68.33-.2.06-.2.06-.28.07-.08 0-.18-.01-.28-.02-.2-.04-.4-.1-.54-.18l.1.03-.83-.32-.23-.08c-.1-.04-.26-.08-.4-.08-.32-.02-.6.1-.72.14-.02.01-.03.02-.05.01-.02 0-.01.01-.12-.05-.16-.08-.34-.22-.53-.4l-.3-.26-.17-.14c-.04-.04-.2-.15-.25-.17l-.7-.4c-.22-.13-.44-.26-.62-.4-.18-.13-.28-.3-.26-.3-.02.01-.02.01-.04.01l-.04-.14c-.1-.2-.34-.88-.35-.63-.9-2.16-.8-4.13-1.2-4.92-.12-1.06.02-1.26 0-1.8l.03.25c-.04-1.98.04-2.56.25-4.02.1-.72-.07-.88.3-2.15-.02.18-.01.2.02.1.03-.1.1-.32.17-.55a2.64 2.64 0 0 1-.02-.29c.02.13.03.22.04.3-.02.08-.01.1.02 0v-.54c-.03-.1-.05-.23-.07-.37 0-.01.01-.03.01-.02-.1-.84-.1-.7-.07-.3-.01-.02-.02.01-.03.14.01-.87-.2-2.42-.08-2.54l-.57-6.4c.04-.24.12.25.17.86l-.1-1.5c.08.01.1.85.13 1.3.02-1.28-.14-2.6-.22-4.03.08 0 .16 0 .24-.01l.12.12c3.83-.2 1.4.27 5.2.1l.67-.18c3.43-.26 1.85.25 5.66-.1-1.34.02-.85-.2.58-.23-.27 1.67-.44 1.08-.64 2.92zm100.14-9.57l-.1.12c.7 3.47-.07 1.32.6 4.77l.27.58c.72 3.1 0 1.73.87 5.16-.23-1.37.17-.7.38 1l-.18-.4c.17.93.27 1.24.34 1.87-.15-.55-.22-.27.01 1.1l-.3-.9.62 2.57.1.8c.03.27.1.65.07.65-.02.2-.17.37-.33.4-.01.02-.36.01-.62.01-.27 0-.5-.01-.74-.01-.45-.01-.8-.03-1.02-.07 0 0-.27 0-.7-.01-.46 0-.87-.03-1.42-.1-1.06-.18-2.2-.63-2.64-.78.38.13.1-.07-.22-.27s-.6-.47-.3-.36c-.46-.2-1.34-.72-2.08-1.45s-1.36-1.6-1.6-2.18l.12.2c-1.1-1.98-1.68-3.9-2.03-5.8l-.2-1.44-.12-1.52c-.07-1.03-.14-2.07-.16-3.18-.13.2-.2-2.14-.34-1.55-.45-4.58-.05-8.4-.7-10.03-.13-2.1.02-2.5 0-3.57l.05.5-.4-7.97c-.12-1.45-.4-1.67-.46-4.27.15.84.08-.23.03-1.2.05.62.1.8.1-.47-.04-.18-.07-.46-.1-.72.01-.01.01-.06.02-.04-.1-1.62-.13-1.34-.1-.58-.02-.04-.04.03-.05.26.06-1.7-.24-4.7-.07-4.92-.28-4.9-.67-8.37-.96-12.44.07-.46.2.48.3 1.66l-.2-2.88c.14.02.17 1.65.25 2.54.03-3.45-.64-7.07-.7-11.1l-.16-.83v-.24c-.06.02-.2-.88-.26-1.48.08-.58.27.02.12-1.97.01-1.6-.38-4.48-.62-6.53.07 1.1-.02.76-.1.28-.1-1-.02-1.58-.13-2.34l.12-.08c-.13-.13-.34-2.65-.45-2.98.06-.58.25 1.54.35 1.78l-.6-6c-.32-2.12-.1.4-.35-.6-.2-1.88-.54-3.7-.7-5.86l-.06.7c-.5-3.5-.8-5.6-1-8-.28-1.63-.6-3.06-.9-4.33l-.8-3.32c-.56-1.88-.97-3.16-1.27-4-.6-1.65-.76-1.48-.62-.53.1.95.4 2.68.7 4.17.16.74.23 1.45.32 1.95l.13.83.55 3.6.44 3.3.45 3.1.4 3.08.84 6.58.85 8.1 1.44 24.96.9 16.34c.2 1.4.27 3.44.36 5.48-1.2-.01-2.28-.01-3 .02l-.12-.1-4.38.03 1.64.02c-.57.3-3.3-.2-6.5.01-.76-.01-1.52.03-2.3.1.23-5.15.36-10.26.25-15.1.02-.2.01-.56 0-.87s-.04-.57-.05-.57l.08-11.35-.04-22.27c-.03-4.26-.08-7.22-.35-6.5-.25.7-.76 5.1-1.26 15.55l-.04-.28c-.14 6.2-.17 10.12.05 14.4-.3.68-.04 5.1-.15 6.55l-.02-.14c.2 3.8-.24 7.8-.1 11.45-.02-.14-.1-.22-.1-1.06 0 2.66-.01 6.3-.18 6.5-.07 6.35-.55 15.18-.63 19.23v-.28c-.03 2.3-.18 3-.4 5.55-.04.14-.07.32-.08.3-.01 2.54-1.1 7.23-1.62 9.12l-.15.08c-.5 1.5-1.35 2.86-2.33 4.1.36-.47.74-.93 1.08-1.42-.01.18-.2.43-.44.77s-.6.77-1.07 1.2c-.88.93-2.22 1.85-3.65 2.9-1.42.84-2.9 1.68-4.46 2.43-1.58.7-3.25 1.3-5 1.57-1.63.44 1.4-.48-1.04.06-.1-.14 1.13-.3.48-.3-2.4.47-3.97.44-7 .5l-.12-.13c-4 .14-7.53-.32-10.2-.16-4.12.01-2.76-.43-7.05-.28l-1.67-.2c-1.83-.07-1.32.18-3.35.05.12-.1-2.57-.14-1.38-.2-2.3-.13-4.64-.12-7.16-.13h-.95a1.13 1.13 0 0 1-.51-.1c-.3-.14-.63-.5-.83-.98-.2-.48-.28-1.03-.22-1.6l.23-2.2c-.12-1.33.2-4.38.1-5.37.1-.16.36-6.1.36-2.68 0 .3-.03.82-.07.78l.1.42c.43-3.44.23-6.3.45-9.7-.1 1-.16 2.36-.2 1.45l.2-3.18.07.67.2-2.68c.1-.46.25-1.17.28-.73.02-1.23.43-4.82.8-6.22l-.03.27c.98-5.24 1.36-9.03 2.7-13.6-.2.16.56-2.2.2-1.67 1.25-4.8 3.25-8.4 3.4-10.24.85-2.08 1.17-2.4 1.7-3.42l-.2.5c1.77-3.8 2.44-4.83 4.06-7.5.8-1.33.68-1.7 2.35-3.97-.42.8.2-.16.82-1-.4.55-.48.73.4-.33a7.19 7.19 0 0 1 .41-.66c.01 0 .05-.04.04-.01 1.02-1.42.8-1.2.3-.56.01-.04-.05 0-.22.18 1.2-1.38 3.12-4 3.4-4.05 3.32-4.1 5.75-7 8.7-10.26 4.36-5.07 11.6-13.57 13.06-15.72l.26-.47c0-.1-.2.02-.66.45-.58.53-4.07 4.02-7.56 7.54-1.13 1.32-2.38 2.58-3.72 4.08-1.48 1.6-3.25 3.38-5.27 5.68-3.96 4.3-8 9.1-11.3 13.82-1.44 2.32-4.22 6.3-5.53 9.3-.24.35-.45.7-.67 1.07a42.98 42.98 0 0 1-.72 1.62 24.19 24.19 0 0 1-.75 1.61v-.08c-.6 1.56-1.33 3.3-1.57 4.08l-.01-.08-.7 1.9.07-.34c-.87 2.76-1.83 5.57-2.53 8.14l.2-.17c-.8 2.7-1.14 4.6-1.5 6.4l-1.13 6.04-.02-.07c-.64 6.35-1.68 9.96-2.13 16.48.06-.8-.12.33-.15.27l-.07.57a.84.84 0 0 1-.06.28 1.04 1.04 0 0 1-.33.43 1.22 1.22 0 0 1-.51.22c-.12.03-.55.03-.82.05-1.2.05-2 .13-2.03.27-2.2.01-1.8-.08-2.08-.2.01.12-1.9.2-3.6.2l.8-.05-4.92.06.97.23c-2.6-.06-.66-.28-3.16-.22l.03.2c-1.8-.01-3.23-.1-4.65-.18l-2.16-.14-.57-.03-.28-.02-.16-.03c-.22-.05-.42-.17-.57-.34a1.18 1.18 0 0 1-.35-.65c-.06-.38-.15-.83-.2-1.27a56.77 56.77 0 0 1-.29-2.69c-.17-1.8-.28-3.65-.4-5.5-.2-3.7-.28-7.4-.26-11.08.03-7.37.6-14.6 1.88-21.2l.23-.56c.25-.22.3-3.7.58-4.18l.2-1.55c.12-.42.33-1.33.23-.55.28-1.42.24-1.46.4-2.5l.44-1.5c1.27-5.55 2.24-10.3 4.16-15.97 1.25-3.37 3.13-8.2 5.26-13a250.35 250.35 0 0 1 6.22-13.13c2.45-4.92 5.62-9.98 9.18-14.74 3.58-4.76 7.6-9.16 11.73-12.86.3-.2 1-.83.97-.85 2.65-2.1 5.54-3.87 8.6-5.35 0 0 .17-.1.5-.24.3-.17.78-.37 1.36-.6.58-.25 1.27-.57 2.08-.84l1.26-.45 1.4-.4c1.9-.5 4.1-.84 6.24-.67 2.14.14 4.17.83 5.78 1.74 1.62.9 2.83 1.95 3.62 2.65.13.1.24.2.34.3l.55.08c-.3-.48-.94-1.37-2.24-2.6a15.48 15.48 0 0 0-3.6-2.46c-.04-.02-.1-.03-.12-.05 1.42.2 2.84.58 4.2 1.22.3.1.6.2.9.3l.24.13c.02-.08.97.36 1.57.7.5.46-.15.16 1.68 1.52.66.6 1.64 1.44 2.54 2.45.94.98 1.8 2.13 2.5 3.12-.7-1.08-.42-.77-.07-.33.6 1 .87 1.6 1.32 2.4l-.07.13c.18.07 1.5 2.73 1.63 3.1.07.33-.12-.08-.35-.6-.25-.5-.56-1.13-.66-1.25.5 1.05.78 1.73.96 2.2.2.47.3.74.4 1.02.18.56.43 1.1 1.1 3.34.77 2.4.03-.48.47.64.63 2.13 1.18 4.24 1.52 6.78v-.82c.8 4.12 1.02 6.64 1.1 9.47.8 7.78.84 12.14 1 14.24.15 2.1.3 1.95.46.82.15-1.14.3-3.26.35-5.1l.05-3.4c0-6.23-.45-10.97-1.37-15.94a66.41 66.41 0 0 0-1.95-7.81c-.9-2.77-2.03-5.83-4-9.08-1.56-2.7-3.28-4.7-5.03-6.28l1.7.9c1.38.74 2.7 1.6 3.95 2.56l.4.3c.26.2.62.48 1.06.87.9.74 2.08 1.87 3.34 3.23 2.52 2.72 5.08 6.57 6.54 9.78 1.5 3.18 2.2 5.56 2.3 4.9.01-.16-.02-.5-.12-1.07-.1-.57-.26-1.35-.56-2.36-.6-2.02-1.66-5.05-4.07-8.84l.18.17c-1.95-2.85-3.72-4.82-5.56-6.4l2.23 1.48c-.1-.05-.2-.02-.77-.42.9.6 1.9 1.43 2.68 2.1.74.72 1.3 1.28 1.3 1.4 1.82 1.84 3.67 4.36 5.05 6.9l.97 1.87c.3.6.52 1.23.77 1.8.52 1.12.85 2.16 1.15 2.94l-.1-.2c.74 1.77.7 2.4 1.3 4.5.01.12.03.27.02.25.7 2 1.38 6.04 1.82 7.7l-.1.13.88 4.14-.3-1.56c.4.48.44 3.18 1.24 6.15.5 2.83 1.7 5.6 2.12 8.58.4 1.38-.45-1.2.04.88-.14.1-.28-.96-.3-.4.45 2.04.45 3.4 1.02 5.92l-.1.13c.83 3.27.94 6.28 1.55 8.45.7 3.4.04 2.35.9 5.87l.07 1.4c.23 1.53.4 1.06.6 2.76-.12-.1.28 2.15.01 1.18.48 3.85 1.53 7.73 2.08 12.82.38 1.06.68 3.62.96 4.4-.06.15.8 5.1.16 2.27-.06-.24-.12-.68-.08-.65l-.18-.32c.24 2.9.97 5.2 1.4 8.06-.1-.85-.3-1.97-.08-1.23l.4 2.65-.2-.53.57 3.95.04-.56c.24 1.94.13 2.65.66 4.8.26.97-.12-1.85.24.18l1.27 9.78c.06-.4.2.5.36 1.4zm25.42-16.34l-.73 2.34c-.05.15-.18.32-.3.38-.13.07-.24.1-.45.03a335.96 335.96 0 0 1-9.5-2.87c-5.53-1.76-10.9-3.64-15.97-5.52l-3.86-23.68.05-.57c.17-.27-.9-3.34-.77-3.84l-.34-1.4c-.03-.4-.13-1.26.03-.56-.22-1.32-.26-1.35-.48-2.3l-.1-1.44c-.8-5.24-1.83-9.63-2.8-15.12-.92-6.64-3.53-18.98-5.32-26.04l-.2-.8 1.73 3.68c2.08 4.72 4.1 9.85 5.95 14.6 1.05 2.18 2.38 6.25 3.67 8.83l.32 1.08c.43.9.98 1.93 1.32 2.87l-.06-.04c.7 1.3 1.43 2.84 1.82 3.47l-.06-.04.9 1.58-.2-.25c.65 1.13 1.46 2.2 2.17 3.3.46.56.93 1.1 1.4 1.53a25.89 25.89 0 0 0 1.38 1.26l-.06-.24c1.9 1.7 3.3 2.67 4.65 3.63 1.35.94 2.66 1.84 4.46 3.2l-.07-.01c4.9 2.9 7.32 5.24 12.4 8.15-.63-.36.22.23.15.23l3.2 2.03c.9.56 1.55.9 1.6.78.5.47.52.84.54.96 0 .14-.05.13-.1.23.05-.02.18.28.12.72-.1.5-.37 1.34-.6 2.05l.17-.7-1.28 4.2.5-.75c-.77 2.2-.45.48-1.07 2.62l.2.03c-1 3.06-1.86 4.78-2.93 7.7l-1.48 4.7zm34.98-.34c.4-1 1.2-.85 3.4-.2 1.12.28 2.3.65 2.63 1.23.07.13.15.34.02.72a1.14 1.14 0 0 1-.1.19c-.1.02-.17.04-.08-.03-.08.06-.2.13-.43.25a2.4 2.4 0 0 0-.41.26c-.54.02-1.3-.14-2.38-.48-1.36-.34-2.3-.84-2.6-1.38-.1-.2-.12-.37-.06-.57zm.76-1.7l.16-.22a2.02 2.02 0 0 0 .31.12c.1.04.2.07.3.1-.27-.03-.53-.04-.77-.01zm.18-.26zm-1.93 5.23c.3-.88 1.05-.9 3.4-.17.77.2 1.57.43 2.1.74.01.06 1.5.73.4 1.76-.45.42-2.14-.02-3.26-.37-1.36-.34-2.3-.84-2.6-1.38-.1-.18-.13-.37-.05-.58zm-1.2 3.2c.3-.73.9-.77 2.75-.2l.26.1c2.83.8 1.72 1.9 1.72 1.92-.3.26-.96.33-2.53-.16-1.62-.6-2.34-1.15-2.2-1.67z"/><path d="M260.75 158.5h-.03c.01.02.02.02.03-.02zm16.3 74.12h0l-.14-.3zm-97.2 27.68h0l.12.12zm-9.7-25.43h0l-.34.1z"/></svg>