<svg xmlns="http://www.w3.org/2000/svg" viewBox="0 0 480 480" xmlns:v="https://vecta.io/nano"><path d="M351.52 219.18c1.8-.1 4.02-2.03 1.02-2.73l-7.46-1.24c-.8-.1-4-.9-6.2-.5-1.4.2-3.3 1.1-6.4-.5l-.17-.1c.33-.9-.06-2.03-.93-2.7l-4.15-2.5c.98-3.17 1.5-6.35 1.05-9.1-.67-4.2-2.52-7.06-5.96-9.9l-.36-.3c-1.8-1.44-3.98-2.9-6.64-4.5-2.3-1.7-7.44-4.48-7.44-4.48l-.02.04c-11.7-7.05-20.46-19.85-35.98-45.64-5.16-8.63-10.63-15.64-15.96-21.04-6.45-8.4-15.1-14.5-25.13-14.37-6.86-1.75-14.14.1-22.4 6-10 7.4-21 20.4-31.2 35.8-10.1 15.3-21.7 41-22.4 66.2l-.03 2.4c-.02 1.18 0 2.36.1 3.37.18 3.62.65 6.65 1.32 9.16.01.05.02.08.02.08 3.04 11.1 10.14 12.33 14.4 13 .6.1 1.34.2 2.13.3l.27 4.7c0 .9.6 1.67 1.42 1.97l1.08 7.03s-1.7 6.9 1.7 13.8c.2.6 1.2.9 2.1 1.4.5.3 1 .8 1.5.9.4.1.5-.3 1.1-.2.8.1 1.7.6 2.4.4 2-.8 1.9-.2 2.7-.3 1.1-.2 1.5-1.1 1.7-1.3l.2-5.4c-.2-1 1.5 1.2 2.2 2.6 1 1.5 2.9 2.3 2-.7s-1.3-5.6-1.6-6.3c-.3-.8-1.3-3.9-2.7-5.6-.9-1.2-2.6-2.4-2.8-5.8-.01-.3 0-.63.01-1l.2-.01c1.1 0 2-.8 2.1-1.9l.26-4.03c3.6-.48 6.93-1.45 9.24-3.27 3.13-2.47 4.28-4.8 4.86-8.4h.04s.48-2.14.6-6.78l.03-.4c.28-2.2.7-7.07.92-9.83h65.73c4.2 6.28 9.24 11.8 15.53 15.5l.35.2-.05.1 2.75 1.4c1.28.67 2.52 1.27 3.73 1.78.68.3 1.34.6 1.92.8l1 .32c13.26 4.64 21.98.4 24.5-3.42l.65-1 4.75 2.1c1.08.54 2.23.1 2.74-.78l5.16 1.98s4.43 5.1 12.13 5.7c1.03.12 2.17-.7 3.07-1.3.26-.2.34-.7.3-1.18a1 1 0 0 0-.06-.42c-.06-.3-.15-.55-.27-.7.3.4 1.35.28 1.82.16.14-.03.3-.14.43-.27.28-.13.5-.35.67-.68a1.67 1.67 0 0 0 .15-.75c.05-.25.04-.48-.07-.63-.36-.6.12-.9.62-1.23.1-.05.2-.12.3-.2l.12-.1c.17-.12.3-.25.37-.4.53-1.25-.13-1.7-.38-2.2-1.88-1.56-3.72-2.4-4.62-2.7-.88-.5 2.1-.08 3.96-.44z" fill="#fff"/><path d="M353.65 216.2c-.5-.25-1-.35-1.43-.44l-1.32-.26-2.68-.47-2.74-.37c-.8-.03-1.75-.28-2.65-.38a20.97 20.97 0 0 0-2.76-.2c-.94 0-1.88.24-2.7.4-1.63.35-3.24-.01-4.6-.78-.05-.05-.1-.1-.15-.17.18-.38.32-1.04 0-1.9l.07.02c-.27-.5-.58-.88-1.02-1.13-.3-.16-.57-.27-.9-.33.06-.3-.6-.4-.74-.6l.03-.01c-.58-.1-.87-.73-1.42-.83.03-.01.08-.07.2-.01l-.45-.22c.01-.03.01-.05.02-.08l-.03.08c-.07-.04-.13-.08-.18-.12l.3-1.2v.5l.42-2.13c-.07.65.14.38.35-1.22.02.37 0 .73-.02 1.1a11.17 11.17 0 0 0 .1-1.54l-.01-1.54.05-.95c.01-.34-.04-.7-.07-1.05-.04-.73-.2-1.43-.34-2.1l-.5-1.8-.38-1.15-.37-.75c-.2-.47-.58-1.05-1-1.66-.84-1.2-1.96-2.3-2.46-2.63.83.6-1.2-1.32-.53-.88l-2.65-1.9-2.76-1.94.25.14c-2.3-1.58-4.37-2.73-6.36-3.86l-5.87-3.6c.1.25-1.93-1.3-1.53-.78-4.15-2.88-6.54-6.37-8.2-7.32-1.55-1.7-1.68-2.15-2.43-3.08l.38.4c-2.75-3.32-3.5-4.34-5.37-6.96-.97-1.28-1.35-1.32-2.92-3.75.6.7-.07-.25-.67-1.14.4.56.55.72-.18-.5-.14-.15-.32-.4-.5-.63 0-.01-.03-.07 0-.05-1.02-1.5-.88-1.2-.43-.5-.04-.03-.02.04.1.28-.92-1.63-2.85-4.37-2.8-4.66l-7.53-11.6c-.18-.48.43.38 1.14 1.48l-1.7-2.72c.13-.05 1.02 1.54 1.55 2.37-1.8-3.36-4.2-6.66-6.56-10.5l-.6-.7-.14-.23c-.03.04-.67-.75-1.08-1.28-.28-.58.26-.13-1.06-1.93-.94-1.5-3.08-3.96-4.62-5.68.78.97.47.7.1.32-.72-.85-1.06-1.4-1.66-2.02l.04-.14c-.08-.02-.47-.4-.9-.85-.1-.14-.18-.26-.27-.4.12.12.23.2.27.24l-.38-.4c-2.37-3.48-4.37-5.8-6.54-7.98-.66-.65-1.32-1.3-2.08-1.9-.74-.63-1.5-1.28-2.4-1.9l-1.38-.96-1.58-.92-.84-.48-.92-.43c-.64-.27-1.27-.62-2-.87-2.7-1.1-5.7-1.68-8.7-1.8-1.3-.01-2.53-.02-3.8.12-.65-.1-1.33-.2-2.05-.23l.28-.04c-3.1-.13-5.62.4-7.8 1.06-2.16.72-3.98 1.6-5.76 2.7-.38 0-1.44.67-2.58 1.37l-2.86 2 .1-.1c-2.8 2.4-5.97 4.7-8.36 7.33.08-.1.08-.22.66-.8-1.84 1.82-4.2 4.43-4.44 4.46-4.2 4.5-9.55 11.2-11.65 14.54l.12-.24c-1.2 1.9-1.7 2.35-3.07 4.44-.1.1-.2.24-.2.2-1.25 2.1-4.02 5.86-5 7.6l-.16.05c-.88 1.36-1.68 2.77-2.5 4.16l.95-1.55c-.07.7-2.06 3.06-3.54 6.27-.8 1.45-1.43 3-2.03 4.58-.63 1.57-1.22 3.16-2 4.7-.55 1.54.38-1.4-.53.86-.18.01.38-1.08 0-.56l-1.32 2.95c-.44.96-.93 1.97-1.4 3.37l-.16.07c-.6 1.84-1.3 3.52-1.86 5.08l-.83 2.2a22.07 22.07 0 0 0-.56 2c-1.1 3.82-1.14 2.45-2.03 6.5-.2.5-.38 1-.56 1.52-.44 1.72-.1 1.3-.63 3.18-.1-.15-.58 2.42-.46 1.27a67.14 67.14 0 0 0-.69 3.32c-.2 1.13-.33 2.3-.5 3.52l-.25 1.85-.2 1.94c-.13 1.32-.35 2.7-.47 4.17.07.64.03 1.68-.01 2.7-.1.9-.2 1.84-.05 3-.04-.32-.08.14-.1.1.01.82.05 1.68.17 2.15.04.97.04 1.47-.15-.13-.02-.3-.01-.8.02-.76l-.12-.4c-.03.42-.05.84-.06 1.24l.06 1.2c.05.8.12 1.56.2 2.32.06.76.25 1.52.36 2.3.12.63.2 1.3.33 1.95-.15-.88-.2-1.73-.05-1 .1.9.32 1.77.5 2.65l.05.27c.01.03.01.06.02.1l-.22-.55c.15.77.3 1.54.56 2.3.25.75.42 1.52.75 2.25-.04-.22-.1-.43-.13-.65l1 2.6c.2.37.4.75.66 1.17a7.3 7.3 0 0 0 1.02 1.4c.82.9-1.24-1.88.33.07.88 1.3 2.34 2.73 4.15 3.83 1.8 1.12 3.95 1.8 5.88 2.17-.33-.2.7 0 1.76.12l.1.14.8.1a2.22 2.22 0 0 1-.02.51c.14-.04.1.36.27.26.23.77-.3 1.44.3 1.7.05.35-.1.43-.13.6l-.04-.08.08.74c.02.22.02.5.12.83.17.32.4.27.66.76-.2-.1-.05.1.1.26-.1-.1-.17-.1-.02.16.05.01.1.04.17.07 0 .01 0 .02-.01.02.3.2.28.14.16.02.02-.01.02-.03 0-.1.07.15.22.26.38.36l.4 2.68.66 3.92c-.18 1.35-.46 3.65-.28 5.22-.02.2-.02.4-.04.6.06.54.16 1.16.2 1.7v-.03c.17.8.3 1.7.43 2.07L175 259c.08.32.15.64.25.95l-.08-.15c.4 1.3.93 2.6 1.44 3.75.01.04.03.07.04.1v-.2l.06.14a.54.54 0 0 0 .07.13c.05.1.1.16.16.23.1.13.23.23.33.3.22.16.42.27.6.37l.96.47c.26.12.46.28.74.47.3.18.52.4 1.1.55a1.05 1.05 0 0 0 .63-.04c.25-.1.3-.14.34-.14.03-.02.33.03.6.13l-.03.01c.6.1 1.2.37 2.02.27.1-.02.22-.04.32-.1l.2-.07c.12-.05.24-.08.36-.12.24-.07.47-.12.67-.13.22-.01.28.01.6.1.33.1.8.07 1.12-.04.7-.2 1.27-.74 1.63-1.34l.1-.24c.04-.07.06-.16.1-.24v-.5c0-.13-.01-.27-.01-.4.01.4.05-.17.07-.13.03-1.44.07-2.98-.1-3 .01-.32.03-.52.04-.65.4.5.8 1.04 1.13 1.6l-.1-.45c.3.53.3.62.3.7 0 .04.01.07.04.16.01.02.07.16.13.23.06.08.13.2.24.3l.08-.1c.3.36.54.63 1 .92.42.26.97.38 1.32.05.35-.3.4-.87.38-1.38-.03-.42-.12-.83-.2-1.22-.47-1.64-.85-3.32-1.26-5.05l-.18-.67c-.04-.12-.07-.24-.12-.36l-.1-.3-.48-1.25c-.33-.83-.7-1.66-1.13-2.46-.42-.8-.97-1.57-1.56-2.24-.6-.66-1.12-1.26-1.48-1.97-.38-.7-.6-1.46-.7-2.24-.1-.57-.07-1.16-.03-1.76.08.03.17.05.27.07.4.05 1.15.01 1.87-.78l.01.07c.18-.25.3-.52.38-.77.04-.12.06-.26.08-.38s.02-.18.02-.27c.01-.33-.02-.63-.12-.94.3-.08.08-.73.18-.93v.02c-.14-.4.06-.8.12-1.2 1.18-.1 2.68-.44 4-.83.66-.2 1.27-.46 1.8-.63.5-.2.9-.4 1.15-.47 0 0 .3-.13.77-.4.43-.3 1.08-.67 1.64-1.15 1.07-.83 2.07-2 2.44-2.62-.1.22.18-.08.46-.42.3-.4.63-.86.46-.45.37-.63.88-1.97 1.23-3.33a31.86 31.86 0 0 0 .49-2.49c.01-.06.03-.12.04-.2l.04-.26.1-.57-.02.3c.4-2.88.46-5.3.6-7.63.12-2.33.28-4.6.64-7.08-.03.04-.05-.03-.04-.17 1.07-.06 2.92-.3 3.28-.16l1.5-.1c.42.04 1.3.08.56.13 1.38.01 1.42-.03 2.4-.1l1.48.13c5.46.1 10.1-.15 15.84-.1 6.9.27 19.88.02 27.36-.12 2.63-.08 5.36-.1 8.16-.06l3.95.06c.68 1.03.97 1.5 1.25 1.97.35.57.7 1.2 2.05 2.7l.9 1.3c.56.67.8.87 1.05 1.1s.5.47 1.18 1.18c-.16-.01 1.68 1.8.8 1.06 2.1 2.22 4.64 4.1 7.66 5.96-.1.1.05.14.14.2l.28.15 1.06.58.82.47c.43.26.87.52 1.36.76.22.12.43.24.65.37.22.06.5.17.78.28.05.04.12.1.1.1.58.26 1.2.52 1.64.65a15.01 15.01 0 0 0 1.3.51v.02c0-.01.01-.01.02-.01.38.13.7.23.93.28.07.25 5.55 1.82 2.36 1.05-.28-.07-.75-.22-.7-.24h-.42c3.1 1.25 5.87 1.55 9.16 1.87-.98-.1-2.26-.3-1.4-.26 1 .18 2.04.18 3.06.24l-.64.07 1.15.06 1.16-.03 1.16-.04 1.15-.14-.65-.04 1.47-.13c.43-.04.82-.12 1.22-.2.8-.1 1.62-.38 2.82-.9 1.05-.52-2.1.6.15-.3 1.42-.54 3.17-1.42 4.72-2.88.4-.33.73-.8 1.08-1.23.07-.1.12-.18.2-.28.3.1.58.2.85.4.03-.15.36.1.35-.12.8.15 1.15.92 1.65.52.34.12.33.3.5.4l-.1-.01.7.26c.2.08.42.2.75.27.36.01.43-.22 1-.2-.18.12.06.1.28.04-.13.05-.18.1.14.1.03-.04.1-.08.14-.12.01.01.02.01.02.02.35-.17.26-.18.1-.12 0-.02-.02-.03-.08-.04.43.02.9-.54 1.04-.45a.55.55 0 0 0 .07-.09l1.15.45 3.3 1.23.35.34c.16.14.3.3.46.43 1.08.84 3 2.32 4.5 2.9l.53.33 1.65.64h-.04c.8.24 1.7.5 2.1.57h-.04c.33.08.66.13 1 .2h-.18c.72.13 1.44.17 2.15.25.94.08 1.7-.3 2.28-.6l-.14-.02c.32-.16.6-.32.83-.48.12-.08.24-.15.35-.23.1-.07.35-.24.45-.42.25-.4.25-.7.28-.98.01-.13 0-.3 0-.37-.01-.07-.01-.1-.02-.12a.88.88 0 0 0-.05-.15c-.01-.02-.02-.05-.04-.07h-.01c.07.05.17.05.26.06h.08c.08-.01.17-.01.26-.02.18-.02.34-.04.55-.08a1.8 1.8 0 0 0 .47-.2c-.01.02-.02.03-.03.05a2.87 2.87 0 0 0 .52-.53c.2-.17.34-.38.46-.64.12-.28.2-.53.2-.76.01-.07.03-.13.04-.2.05-.27.01-.67-.17-.94-.02-.03-.01-.05-.02-.06.03-.02.14-.13.3-.22l.55-.33c.2-.13.47-.3.66-.66a2.88 2.88 0 0 0 .27-.83 2.07 2.07 0 0 0-.07-.98c-.1-.33-.3-.6-.45-.8l-.1-.14c-.06-.1-.1-.2-.22-.26-.12-.1-.25-.18-.38-.27.34.23-.1-.14-.07-.14a14.16 14.16 0 0 0-.93-.65l-.45-.28c-.15-.1-.3-.18-.33-.18-.2-.1-.38-.13-.54-.12-.47-.23-.24-.16-.1-.17-.1-.01-.3-.07-.53-.14h0c-.04-.02-.1-.04-.1-.08.02-.03.06-.03.1-.04a1.79 1.79 0 0 1 .24-.02l-.1.03c.32-.02.67-.01 1.05-.04-.1-.04-.2-.08-.35-.13a1.71 1.71 0 0 1 .4.03c.1.01.13.03.16.04.07.02.15.06.78-.05l-.03-.1c.87-.06 1.67-.3 2.32-.7.16-.12.33-.24.48-.4s.32-.44.37-.72c.2-.6-.36-1.26-.83-1.48zm-35.47-18.4c-.04.03-.08.1-.08.07-.22.85-1.08 2.27-1.32 2.93h-.12l-.73 1.55.3-.57c.18.33-.74 1.08-1.1 2.3-.55 1.03-.47 2.4-1.13 3.43-.12.58.01-.56-.27.26-.16-.04.1-.4-.13-.26-.3.8-.76 1.18-1.12 2.16l-.13-.02c-.4 1.33-1.3 2.23-1.5 3.14-.54 1.3-.75.68-1.2 2.1l-.4.43c-.3.55-.02.5-.4 1.08-.08-.1-.47.74-.38.34-.85 1.33-1.22 2.95-2.4 4.67-.02.5-.6 1.37-.6 1.74-.1.01-.95 1.86-.6.72.03-.1.1-.25.14-.23l-.05-.18c-.73.95-.85 1.97-1.4 3 .2-.3.4-.7.32-.4l-.5.96.01-.25-.6 1.05-.1.16-.03.04a.69.69 0 0 0 .13.02c-.1.1-.16.1-.2.1-.07-.04-.07-.06-.16.02-.22.07.3.22-.1.2l-3.8-1c.1.17-.26.08-.62.02v-.13c-1.4-.18-.43-.38-1.8-.62l.14-.05-.42.15c-1.26-.15-.57-.4-1.93-.58.22.08.27.15.2.2-.17-.06-.34-.12-.5-.2l.03-.01a2.75 2.75 0 0 0-.33-.1l-.36-.15c.2.01.13-.12-.36-.32l.4.01-1.05-.23c-.7-.46-1.92-.88-2.15-1.18 0 0-1.54-.86-1.98-.88.35.05-.46-.4-.17-.42-.05.01-.1.01-.2 0-.05 0-.1 0-.16-.01-.03-.01-.05-.01-.07-.03l.03-.06a.21.21 0 0 1 .11-.08l.01.01.04-.04c.01-.01.01 0 .08-.14l.3-.6.54-1.17c.34-.76.68-1.5 1.17-2.26-.17.01.34-.8.07-.68.7-1.74 1.9-2.85 1.7-3.7.36-.77.58-.83.8-1.2l-.07.2 1.45-2.9c.22-.55.03-.75.57-1.66-.06.35.12-.04.3-.4-.1.23-.1.32.2-.1 0-.08.04-.2.07-.3.01 0 .02-.02.03 0 .27-.6.2-.52.03-.25-.01-.02-.04-.01-.1.06.44-.54.87-1.7 1.07-1.7.87-1.78 1.36-3.12 2.06-4.62.17-.12.06.26-.12.7l.5-1.06c.1.07-.24.63-.38.97.83-1.14 1.13-2.65 2.06-4l.06-.35.06-.08c-.05-.02.05-.38.14-.6.2-.15.23.14.6-.58.4-.52.8-1.64 1.1-2.4-.23.4-.22.23-.16.04.18-.36.4-.5.5-.8l.16.04c-.2.07.34-1 .35-1.17.2-.15-.2.6-.17.73l1.1-2.17c.3-.82-.2.07-.14-.36.32-.7.57-1.4 1.06-2.14l-.25.18c.56-1.32.97-2.08 1.54-2.87.72-1.84 1.16-3.1 1.4-3.9 1.4.9 2.6 1.53 3.72 2.18 1.63.93 3.2 1.82 5.32 3.26l-.08-.01c1.87 1.03 3.4 2.04 4.74 3.1-.04-.02-.1-.05-.16-.1l.33.23.48.4c-.02.06-.1.1-.15.1l-.04.1-.1.23-.4.8-.8 1.66c-.5 1.1-.95 2.1-1.14 2.8v-.1c-.1.82-.34.96-.65 1.8zm-162.08 8.14c-.01-.2-.01-.4-.02-.6-.01-.1-.01-.23.08-.17v.02a1.64 1.64 0 0 1 .11.03h.2l1.34-.01c.87-.02 1.7-.03 2.65.08-.08-.15.9-.04.67-.23 1.95-.12 3.53.48 4.25-.07.9 0 1.04.17 1.5.2h-.2c1.66 0 2.14.01 3.37.06.62-.04.72-.3 1.82-.2-.36.1.1.1.5.1-.26.01-.35.04.2.13a1.33 1.33 0 0 1 .3-.06c0 .01.03.02.01.03.7-.02.57-.05.25-.08.02-.02-.01-.04-.1-.07.7.16 2 .05 2.07.23 2.07.02 3.55-.12 5.27-.14.2.1-.2.17-.7.2h1.22c-.01.13-.7.06-1.08.07 1.45.26 3-.12 4.7.13l.36-.1.1.02c0-.06.38-.12.63-.13.24.12-.03.27.82.3.66.13 1.9 0 2.77-.03-.47-.03-.32-.1-.1-.13.42.01.66.13 1 .1l.04.16c-.16-.15 1.1-.13 1.26-.2.24.12-.66.08-.77.17l2.54.06c.9-.1-.16-.15.28-.28.8-.01 1.58-.1 2.5.03l-.3-.15c1.5-.06 2.4-.02 3.4.15 2.1-.15 3.5-.3 4.4-.44l-.47 3.56.17-.2c-.8 5.85-.52 8.06-1.16 13.27l-.03-.07a30.03 30.03 0 0 1-.11 1.74h-.15c-.18 0-.37-.01-.56-.01l-1.9-.03c-1.25-.01-2.4.01-3.13.12l.1-.04c-.83.16-1.07 0-2 .07-.05-.02-.1-.04-.1-.05-.9.16-2.62-.04-3.35.02l-.04-.1-1.8-.02.67.04c-.24.3-1.35-.23-2.65-.06-1.2-.07-2.48.57-3.74.4-.6.13.54-.22-.37-.13-.02-.16.42-.1.2-.22-.9.05-1.44-.2-2.54-.12l-.04-.13c-1.43.2-2.67-.23-3.63-.04-1.47.06-.97-.38-2.5-.2l-.6-.2c-.65-.05-.48.2-1.2.08.05-.1-.9-.13-.48-.2-1.63-.24-3.33.1-5.47-.3-.48.18-1.55 0-1.9.13-.05-.1-2.17-.15-.94-.27.1-.01.3.01.27.04l.15-.1c-1.2-.3-2.23-.02-3.44-.14.35.07.83.1.5.15l-1.12-.1.24-.08-1.66-.2.22.15c-.4-.07-.67-.16-.95-.23a3.03 3.03 0 0 0-.45-.07c-.04 0-.08-.01-.13-.01-.03 0-.02.01-.03.01-.02.01-.04.03-.07.04-.17.08.16.2-.12.2-.04-.02-.1-.03-.13-.06 0-.1.01-.18.01-.28.01.01-.02-.2-.03-.35l-.05-.47-.22-1.87c-.12.15-.18-.22-.26-.6l.12-.06c-.38-1.44.2-.57-.14-2l.1.12-.3-.35c-.4-1.3.17-.72-.3-2.17.04.3-.03.37-.1.26-.01-.17-.01-.34-.03-.52h.01c0-.02-.01-.03-.01-.05l-.03-.62c.05.01.1-.15.06-.55l.17.37c-.1-.35-.18-.7-.26-1.07.1-.84-.02-2.18.16-2.52 0 0 .15-1.82 0-2.25.1.37.2-.63.32-.33-.05-.1-.07-.28-.08-.5zm17.65 31.28c.03.01.07.02.1.03l-.1.03c.01-.02.01-.04.01-.06zm15.55 22.34l.06.06-.06-.06zm-1.9-20.45l-.06 1.08c-.02.37-.26.78-.58 1.02-.3.26-.67.38-.6.63.03.07.1.16.27.23-.1.01-.18.02-.27.02l-.84.05a11.4 11.4 0 0 0 .08 1.62c.17 1.15.53 2.4 1.3 3.62.44.47 1.3 1.5 1.6 1.75 0 .05.4.54.6.92.22.4.34.62-.07.05-.07-.1-.18-.27-.16-.27l-.15-.1c.66 1.2 1.32 2.22 1.83 3.6-.13-.4-.35-.94-.16-.6.17.42.32.84.47 1.27l-.15-.25.34 1c.1.24.16.57.23.9v-.28c.2.96.13 1.35.5 2.43.18.5-.12-.96.15.08a61.05 61.05 0 0 0 .51 2.37l.3 1.27.04.27c.02.1 0 .06 0 .1s-.01.07-.03.1c.1.05.03.18-.1.13l-.01-.1c-.03 0-.08-.02-.12-.05-.08-.07-.16-.13-.2-.18a.75.75 0 0 1-.16-.24c-.03-.07-.06-.13-.14-.25l-.1-.17a4.37 4.37 0 0 0-.3-.5l-.27-.24c-.52-.68-.63-.87-.75-1.1a1.98 1.98 0 0 0-.28-.4 2.55 2.55 0 0 0-.29-.31c-.07-.06-.14-.13-.24-.2-.05-.04-.1-.08-.2-.13a.68.68 0 0 0-.17-.08c-.05-.02-.1-.04-.17-.05H189c.06.01.1.02.14.03.1.03.1.05.16.07.08.04.1.08.15.1.07.06.1.1.12.12.04.06.02.06-.05.03-.05-.03-.1-.06-.15-.1-.04-.02-.07-.04-.14-.08-.08-.02-.1-.1-.4-.07-.1-.01-.36.16-.38.25-.08.14-.07.2-.08.26-.01.12.01.2.01.2.01.04 0 .16-.01.27l-.06-.22c0 .47.02.64-.01.96-.03-.3-.1-.15-.1.56l-.07-.48.08 1.35c-.05.43-.07.97-.1 1.48l-.03.73c-.01.1-.01.22-.02.32 0 .05-.01.1-.01.14l-.01.04c-.01.02 0 .03-.02.03-.02.01-.03.02-.04.02h0c.01-.03-.28.44-.63.65-.17.12-.43.2-.55.22-.1.03-.3-.02-.5-.03.26.03.08-.06-.23-.12-.3-.06-.6-.04-.36-.1-.42.06-1.03.27-1.6.5-.2.14-.76-.02-1.07-.15l.12.03c-.38-.12-.8-.28-1.3-.33a1.58 1.58 0 0 0-.96.17c-.1.05-.06.03-.1.04.01.01-.12-.04-.24-.1s-.25-.16-.4-.26l-.47-.3c-.2-.13-.36-.2-.53-.28-.33-.16-.65-.3-.93-.46-.28-.14-.5-.37-.46-.38l-.05-.1c-.07.01-.46-.94-.44-.65-1.05-2.08-1.08-4.04-1.55-4.8-.2-1.04-.08-1.25-.13-1.8l.04.25c-.2-1.96-.15-2.54-.06-4 .04-.73-.14-.87.13-2.16-.01.17 0 .2.02.12l.1-.47c-.02-.13-.04-.26-.07-.4.03.13.07.3.07.28 0-.05-.01-.22-.04-.53-.03-.1-.07-.23-.1-.36 0-.01 0-.03.01-.02-.16-.82-.15-.67-.1-.3-.01-.02-.02.02-.02.14-.06-.87-.38-2.4-.3-2.5l-.43-2.5c.25-.01.48-.05.62-.1.33-.08.65-.16 1-.22.08.1-.07.18-.27.23l.5-.06c0 .13-.28.1-.43.13.6.18 1.2-.28 1.9-.12l.14-.1h.04c-.01-.06.14-.14.24-.16.1.1.01.27.35.24.28.1.76-.1 1.1-.18-.2-.01-.13-.08-.05-.12.17-.01.27.1.4.04l.03.16c-.08-.14.43-.18.5-.25.1.1-.26.1-.3.2l1.02-.08c.36-.14-.07-.15.1-.3.32-.05.62-.18 1-.1l-.12-.13c.6-.14.96-.15 1.37-.03 4.42-1.38.86-1.6.86-1.6-1.8-.2-2.68.25-4.78.47-1.86.03-2.37-.2-4.28 0l-.67.03c-.1.01-.17 0-.27-.01-.18-.03-.38-.14-.5-.3-.14-.01-.22-.14-.25-.27-.02-.07-.02-.12-.04-.2-.01-.07-.04-.27-.1-.38l.1-.2c-.07-.17-.12-.37-.07-.55h.04c-.1-.26-.07-.55-.12-.68l.04.01-.03-.3.05.05a4.26 4.26 0 0 1-.13-1.31c.34.1.9.2 2.48.28l.74-.12c3.67-.04 1.96.43 6.05.1-1.6.03-.76-.25 1.22-.25l-.5.14c1.1-.08 1.46-.13 2.2-.16-.65.1-.34.2 1.28.04l-1.08.25 1.2-.2c.01.06.04.13.05.13l-.1 1.6zm12.37-9.64c-.73.97-1.67 1.8-2.73 2.65-1.05.76-2.3 1.46-3.83 2.06.75-.33-.35.06-.3-.01-2.88.94-6.22 1.2-6.24 1.5-2.27.18-1.86.02-2.16-.06.02.13-1.96.26-3.75.2l.82-.03a79.64 79.64 0 0 1-5.12-.2l1 .3c-2.72-.28-.67-.33-3.27-.53v.2a39.71 39.71 0 0 1-4.78-.88c-1.42-.35-2.77-.8-4.3-1.6-1.6-.76-3.04-1.86-4.23-3.2l-.84-1.07c-.3-.35-.48-.78-.73-1.16-.52-.76-.85-1.64-1.24-2.5-.2-.46-.36-.92-.53-1.4l.42.04 1.94.13 3.86.17c2.56.1 5.05.22 7.4.47l.23.16c.1.22 1.47-.25 1.66-.05l.62-.07c.17.05.53.1.23.14.57.03.58 0 1-.05l.6.15c2.23.16 4.14-.05 6.5.06 2.82.34 8.15.23 11.22.16 2.16-.1 4.5.1 6.83.27l.88.07.6.04c-.34 1.56-.9 2.9-1.74 4.02zm82.85-9.4l-1-.84-1.94-1.67c-.13-.16-.23-.34-.34-.52-.02-.35-2.92-2.37-3.07-2.95l-1.1-1.14c-.26-.36-.84-1.1-.3-.53l-1.67-1.94-.83-1.34-.56-.8.95.02.44.01h.1c.04 0 .08.01.06-.04l-.01-.22-.1-2.37c-.24-5.72-.48-11.47-1-16.85.01-.35-.12-1.26-.14-1.25l-.6-9.85-1.42-19.33c-.68-7.4-1.28-10.18-1 7.98l-.06-.24c.23 5.38.42 8.76.9 12.45-.25.6.25 4.42.24 5.68l-.03-.12c.43 3.27.25 6.76.65 9.9-.03-.12-.1-.2-.17-.9.18 2.3.45 5.45.3 5.62l.15 2.15c.03.37.03.75.1 1.13l.92 3.78.04.15c.16 0-1.37 0-.72 0h0v.05l.02.2c.01.1.05.25-.1.2l-3.56.06c-1.3.03-2.45.08-3.33.14l.24-.05c-2 .18-2.6.03-4.86.12-.12-.02-.28-.03-.26-.04-2.2.18-6.4.03-8.18.1l-.1-.1-4.37.03 1.63.02c-.57.3-3.3-.2-6.47.01-2.97-.04-6.02.64-9.1.5-1.47.14 1.3-.23-.9-.12-.07-.16 1.03-.1.46-.23-2.16.08-3.54-.16-6.2-.06l-.1-.12c-3.47.23-6.55-.16-8.86.05-3.58.1-2.4-.37-6.13-.13l-1.45-.17c-1.6-.03-1.14.2-2.9.12.1-.1-2.23-.08-1.2-.2-.15-.01-.3-.01-.44-.01.47-4.95 1.85-8.8 1.75-10.68.28-1.15.5-1.82.67-2.35.2-.52.37-.9.56-1.5l-.13.55c1.23-4.25 1.77-5.43 3-8.48.64-1.5.45-1.88 1.8-4.5-.34.9.2-.2.7-1.17-.3.64-.37.85.35-.4.06-.2.2-.5.3-.76.01-.01.05-.05.04-.02.86-1.63.68-1.37.25-.62.01-.05-.05.01-.2.23.52-.8 1.17-1.97 1.72-2.95.57-.97 1.06-1.74 1.2-1.8 2.84-4.76 4.95-8.14 7.65-11.9.38-.36-.2.56-.96 1.66l1.92-2.66c.1.1-1.06 1.56-1.64 2.4 1.25-1.5 2.38-3.18 3.64-4.86.86-1.2 1.77-2.4 2.76-3.62 2.8-4.2 9.1-12.42 8.46-13.18-.43-.5-2.17 2.48-4.16 4.87l-1.03 1.27-4.77 5.75-1.2 1.46c-1.96 2.4-4.06 5.17-6.82 9.1-3.58 5.03-7.03 10.7-9.7 16.15-1.12 2.65-3.37 7.24-4.23 10.57a18.73 18.73 0 0 0-.53 1.22c-.27 1.15-.68 2.47-1.02 3.6l-.02-.08c-.17.86-.4 1.77-.6 2.57l-.4 1.93v-.08c-.15.7-.3 1.4-.4 2.1v-.37l-.66 4.52c-.94-.15-2.1-.24-2.1-.24-4.38-.44-6.66-.1-11.9-.15-4.6-.2-5.8-.52-10.56-.55-2.27-.1-4.7-.1-6.9-.14-1.06.18-2.9-.1-4.17.05l-.48-.13c-.43.05-.94.07-1.37 0l.03-.03c-.64.07-1.37 0-1.7.03l.03-.03-.78-.01.14-.05c-1.12.06-2.28.03-3.3-.04l.08.15c-1.08-.1-1.83-.1-2.54-.1h-1.1l-.67-.04-.4-.03c.3-3.9.9-7.7 1.67-11.28l.26-.58c.13-.1.24-1.08.35-2.08.14-1 .3-2.03.47-2.27l.28-1.62c.14-.44.4-1.38.27-.57.4-1.47.38-1.5.6-2.58l.56-1.53c1.8-5.7 3.28-10.6 5.8-16.4 1.6-3.43 3.92-8.4 6.56-13.26 2.6-4.9 5.6-9.64 7.9-13.07 6.33-9.74 15.38-19.85 23.98-27.86.15-.12.4-.35.62-.56.2-.2.4-.38.38-.38 2.74-2.32 5.67-4.37 8.82-6 0 0 .18-.1.5-.26.32-.18.8-.4 1.42-.66l1-.44 1.18-.43c.83-.33 1.78-.55 2.8-.83 2.03-.45 4.36-.66 6.63-.42 2.28.22 4.47.88 6.3 1.64.9.43 1.75.78 2.45 1.2l2.57 1-.38-.34c-.48-.45-1.2-1-2.2-1.67-.58-.38-1.26-.78-2.05-1.2.26.03.53.04.8.1l2.26.47c.97.26 1.9.57 2.83.9.9.4 1.84.75 2.74 1.25.35.32-.5-.13-1.6-.57.44.2.9.38 1.3.62l1.27.72c-.1.13-1.46-.83-2.3-1.13 2.98 1.7 6.26 3.5 9.06 6.52.23.17.46.34.68.52l.15.2c.03-.05.7.57 1.14 1 .3.52-.2.12 1.1 1.68a14.98 14.98 0 0 0 .88 1.12l1.06 1.36c.77.93 1.5 1.96 2.1 2.83-.6-.96-.36-.7-.05-.3.58.84.77 1.42 1.2 2.07l-.07.13c.08.03.4.5.73 1.02.4.65.8 1.4.93 1.56.17.57-.82-1.35-1.04-1.52 1.95 3.6 1.02 1.77 2.8 5.44.93 1.97-.01-.43.5.48.78 1.76 1.5 3.5 2.1 5.66a15.39 15.39 0 0 0-.08-.71c1.2 3.44 1.65 5.6 2 8.02 1.53 6.62 1.9 10.4 2.3 12.18.34 1.8.5 1.64.54.65.04-1-.01-2.83-.12-4.44-.1-1.6-.26-2.96-.26-2.96-.55-5.4-1.5-9.46-2.87-13.65-.7-2.03-1.5-4.1-2.52-6.34 1.23 1.72 2.27 3.3 3.3 4.87 2.08 3.2 4 6.62 7.32 11.94 3.1 5.1 6.54 10.5 9.85 15.33 1.7 2.2 4.4 6.33 6.6 8.83l.7 1.08c.74.87 1.65 1.85 2.35 2.77l-.07-.03 3.1 3.26-.08-.03 1.5 1.46-.3-.22c2.22 2 4.6 4 6.85 5.57l-.1-.25 1.32.9c-.5.74-1.05 1.65-1.05 1.65-2.2 3.6-2.85 5.7-5.05 10.2-2.1 3.88-2.87 4.8-4.87 8.9-1.02 1.92-2.03 4.02-2.98 5.92-.28 1-1.28 2.48-1.67 3.63l-.32.36c-.14.4-.32.84-.57 1.18l-.02-.04c-.2.6-.57 1.18-.67 1.47l-.02-.04-.33.67.01-.14a21.3 21.3 0 0 1-1.4 2.83l.17-.01c-1.1 1.8-1.16 2.54-2.25 4.22l-.01-.05c-.03.08-.07.16-.1.24l-1.63-1.1-1.1-.77zm36.02 3.82c-.98 1.28-2.46 2.3-4.05 3.05-.8.4-1.65.66-2.5.95-.88.2-1.75.46-2.66.55-1.55.23-3.14.3-4.72.22l1.54-3.26c1.18-2.5 2.37-4.96 3.66-7.15l.23-.13c.24.01.34-1.4.6-1.47l.18-.57c.1-.13.3-.42.2-.14.25-.48.23-.5.34-.9l.38-.46c1.06-1.87 1.65-3.62 2.67-5.62 1.43-2.32 3.45-7 4.6-9.7.76-1.93 1.86-3.87 2.96-5.84l.82-1.47.07-.12c.37.37.7.77 1.07 1.16.37.5.8.98 1.12 1.53.7 1.08 1.35 2.3 1.82 3.82-.27-.74.03.34-.03.3.37 1.43.48 2.87.47 4.04-.03 1.15-.06 1.96.07 2-.4 2.16-.44 1.73-.6 1.98.06.01-.01.48-.15 1.15-.18.67-.4 1.55-.7 2.36.07-.26.16-.5.22-.77-.52 1.56-1.1 3.12-1.78 4.63l.62-.8c-1.15 2.4-.52.5-1.56 2.8l.2.06c-.84 1.63-1.6 2.87-2.42 4.06-.8 1.17-1.65 2.4-2.68 3.73zm27.6-2.2v-.01a.77.77 0 0 1 .79-.51c.5 0 1.24.25 2.33.65l.5.2c1.47.65 2.14 1.04 2.27 1.54a.78.78 0 0 1-.03.33 2.58 2.58 0 0 1-.1.33c-.01.03-.03.06-.1.13-.15.14-.36.28-.46.38.18-.15 0-.08-.22.04-.03.01-.06.03-.1.05-.5.01-1.27-.16-2.53-.8-1.28-.57-2.14-1.23-2.36-1.8-.07-.18-.06-.35.02-.53zm1.43-1.57c-.2-.1-.3-.14-.25-.07.03.03.07.1.2.18.01.01.03.01.05.02-.1-.02-.2-.03-.3-.04-.01 0-.02-.01-.02-.01.01 0 .01.01.02.01-.07-.01-.14-.01-.2-.02.08-.12.15-.22.2-.32.08.07.17.15.3.25zm.6 5.12l.18.08c1 .44 1.62.76 1.96 1.07a1.05 1.05 0 0 0 .15.32c.02.04.04.02.03.13 0 .1-.04.24-.1.36a1.69 1.69 0 0 1-.4.6l.05-.1c-.15.2-.37.35-.37.33a3.58 3.58 0 0 1-.37.06h0c-.5-.05-1.2-.26-2.24-.77-1.28-.57-2.14-1.23-2.36-1.8a.65.65 0 0 1 .01-.53c.45-.93 1.18-.77 3.46.25zm-2.36 2.9c.36.13 1.32.47 1.8.93-.02.02-.03.03-.05.04.1.26.14.48.15.66a1.31 1.31 0 0 1 0 .28c0 .03-.01.06-.02.1-.3.33-.92.32-2.66-.45-1.07-.38-1.87-.93-2.05-1.4-.05-.14-.04-.25.02-.38v-.02c.12-.24.27-.38.48-.44a1.21 1.21 0 0 1 .3-.04c.4.02 1 .17 2.02.74zm7.36-10.55a1.84 1.84 0 0 1-.28.27c.15-.02-.12.22-.5.4l-.07-.05c-.34.18-.57.22-.7.24-.14 0-.25 0-.37-.01-.08-.01-.15-.02-.32-.01l-1.1.1.3-.06-.86.18-1.47.07-.37.05a.45.45 0 0 0-.14-.1c-.25-.1-.55 0-.66.25-.01.02-.7 1.53-2.82 3.17-2 1.55-4.88 1.13-4.92 1.13-.27-.04-.53.15-.57.42s.15.53.42.57a7.26 7.26 0 0 0 1.09.07c1.17 0 3.05-.2 4.58-1.4.25-.2.48-.4.7-.58.02.1.04.17.07.26.1.28.3.55.5.8-.78-.04-1.43.26-1.87 1.2h0a1.7 1.7 0 0 0-.04 1.31c.08.2.2.4.34.6-.33-.04-.65-.04-.92.04-.47.14-.84.46-1.08.94a1.39 1.39 0 0 0-.08 1.21c.3.78 1.26 1.5 2.62 1.98.46.2 1.04.44 1.62.6l-.17.1c-.2.1-.38.17-.24.2a1.84 1.84 0 0 1-.7.15c-.2-.01-.53-.06-.78-.1a10.58 10.58 0 0 1-1.44-.27c-.87-.18-1.53-.4-2-.35-1.03-.32-1.18-.5-1.7-.73l.24.08c-1.86-.77-2.36-1.1-3.6-1.92-.63-.4-.84-.33-1.84-1.23.37.24-.06-.1-.42-.45.24.2.32.26-.12-.22-.1-.06-.16-.1-.3-.26 0-.01-.03-.04-.01-.03l-.1-.1-.5-.17c-.08-.03-.12-.03-.12-.03-.01.01.1.06.3.13-.03 0 .01.03.16.1-.9-.42-2.35-.9-2.44-1.03l-2.02-.74c.01-.03.02-.07.03-.1.08-.33.15-.65.25-1 .12-.04.13.14.08.34l.16-.46c.12.05-.04.3-.08.44.43-.46.28-1.2.73-1.75l-.04-.17.03-.03c-.05-.02-.06-.2-.04-.3.15-.05.25.1.37-.2.2-.2.25-.72.33-1.07-.1.17-.13.1-.13 0 .06-.16.2-.2.22-.34l.15.05c-.16 0 .03-.47-.01-.55.15-.04-.01.28.05.35l.38-.95c.03-.38-.16 0-.22-.2.1-.3.12-.64.35-.94l-.17.05c.14-.6.3-.92.6-1.24.73-4.58-1.06-1.48-1.06-1.48-1 1.5-.98 2.52-1.7 4.5-.8 1.68-1.25 2.03-1.9 3.85l-.26.6c-.04.12-.07.16-.13.24a.75.75 0 0 1-.44.29c-.07.12-.22.12-.36.08-.07-.02-.14-.05-.23-.08-.1-.03-.27-.1-.4-.1l-.13-.2c-.18-.02-.4-.06-.52-.2v-.03c-.28-.02-.52-.2-.66-.2l.02-.03-.3-.1.07-.02a4.4 4.4 0 0 1-1.24-.49l-.03.15c-.2-.14-.38-.22-.54-.3a41.97 41.97 0 0 0 1-1.62c-.3.23.22-.64.7-1.56l.17-.05c1.7-3.6.98-1.14 2.56-4.8l.13-.7c.6-1.7.82-2.12 1.05-2.6.1-.24.24-.5.4-.95.2.1.38.2.58.27.03.06.2.07.2.05l1.38.86.84.5c.35.26.66.75.78 1.14.13.38.1.72.37.75.07 0 .2-.04.3-.14-.02.08-.04.17-.07.25l-.22.5c.72.4 1.55.7 2.45.88 1.2.26 2.57.1 3.9-.14.53-.27 1.78-.3 2.2-.35.06.01 2.62.26 1.14.2-.13-.01-.35-.03-.33-.05l-.18.06c.73.13 1.4.2 2.08.3l1.03.13.56.08a1.15 1.15 0 0 0 .21.02h.1l.26.02c-.1-.01-.22-.03-.3-.04l-.07-.01c-.06 0-.1 0-.14-.01-.06-.01-.1-.02-.16-.03-.16-.04-.2-.06 0-.04.33.06.5.03.74.07l.68.1h-.3c.68.1 1.36.23 2.05.35l-.27-.12c1 .2 1.33.4 2.5.5.53.04-.94-.28.13-.1.65.16 1.56.33 2.32.57.2.05.35.15.48.2.13.1.15.1.15.16.1.07.08.1.05.14zm-26.95-2.8h0l-.06.35z"/><path d="M191.43 260.6h0l.13.1zm-2.43-2.53h0zm-12.62-20.5l-.36.06.36-.06z"/></svg>