<svg xmlns="http://www.w3.org/2000/svg" viewBox="0 0 480 480" xmlns:v="https://vecta.io/nano"><path d="M265.78 208.14l.27-.01H266l-.22.01zm80.52-46.44c-.3-.76-.77-1.07-1.35-1.14l-.05-.46.1-.36c.55-.5.82-1.1.5-1.94-.1-.3-.3-.5-.52-.63-.62-.63-3-.42-4.88.33-2 .8-2.1.8-3.1 1-1 .1 1.9-1.4 3.3-2.4s1.6-3.1-1.3-2l-6.3 2.2c-.8.4-2.6 1.5-3.8 2.5l-1.2.9s-.9.8-4.1.9c-1.84.06-13.5.02-24-.1l-.4-3.2c-.2-1.3-1.3-2.2-2.5-2.1-2.6.2-7.4.7-14.5.9-11.2.3-11.9-3.8-20.1-22.3-5.14-11.6-12.18-19.16-16.7-23.17-3.9-5.06-8.7-9.12-14.65-11 .74-1 1.52-2.15 2.05-3.53l2.3-1.2c1.2-.6 1.6-2.1 1-3.3L228.45 77c-.02-.3-.07-.52-.15-.6-.1-.08-.2-.16-.3-.23L225.3 71c-.6-1.2-2.1-1.6-3.3-1l-8.6 4.5c-1.2.6-1.6 2.1-1 3.3l3.48 6.63c-.67-.35-1.28-.03-1.28-.03.5 2.9 0 6.2-.2 8.2 0 2.1 1.3 3.9 1.1 5.3-.08.53-.35 1.13-.98 2.1-.85.35-1.7.76-2.52 1.3-11.2-.2-21.4 7.3-34.5 27.4-13.1 20-16.8 30.8-15.4 40 1.4 9.3 2.9 13.1 10.5 17.5 5.06 2.93 11.13 4.7 16.93 3.3l-2.13 15.6c0 .2-.1.9-.2 1.1v.1c0 .3-.1.4-.1.5v.1h3.2c.16 4.2 2.88 12.2 21.4 12.2s39.77-8 49.63-12.2h10.27l-2.7-14.64c2.56-.03 5.34-.2 8.4-.56 12-1.3 19.8-3.7 23.3-4.9 1.2-.4 2-1.6 1.8-2.9l-.24-1.97 28.04-8.03s5.28-.18 11.78-3.08a8.27 8.27 0 0 0 1.52-.32c1.7-.6 2.3-1.1 1.9-2.2-.04-.15-.17-.26-.32-.34-.1-.23-.27-.44-.4-.63 1.16-.54 1.5-1.15 1.1-2.24-.07-.2-.23-.34-.44-.44.01-.25 0-.5-.01-.76.83-.46 1.3-1.1.95-2.2zM219.72 91.76c-.35-.14-.67-.6-1.02-1.06-.4-.62-.64-1.57-1.03-2.84l2.05 3.9zm75.14 97.52l-.66.1c.02.02.2 0 .66-.1zm-33.16-58.06l.08.14-.08-.14zm-91.6 7.04l-.1.17c.01-.01.01-.02.02-.03l.07-.14z" fill="#fff"/><path d="M188.46 190.7l-1.04 8.58c-.82 7.53-.8 10.5 2.6-7.76l.01.25.23-1.45 2.98-.68c1.77-.4 4.3-1.35 6.45-2.94.58-.34 1.06-.82 1.57-1.22l.75-.63.67-.68 1.24-1.3 1-1.25c1.63-2.22 3.26-4.65 4.7-7.22 1.44-2.56 2.76-5.24 3.52-7.9.1-.16.2-.62.17-.62l.72-2.04v.47l1.9-3.6c1.3-2.2 2.9-5.53 4.3-9 1.4-3.48 2.6-7.05 3.45-9.68 1.12-3.72 2.52-7.7 3.65-11.78.45-1.65.87-3.33 1.2-5l-2.54 2.4c-.75 3.42-1.82 7.14-2.23 9.13l.01-.18c-.27 1.46-.54 1.83-1 3.42-.05.08-.1.2-.1.16-.33 1.6-1.53 4.44-1.92 5.68l-.13.04-1.13 3 .46-1.1c.12.5-1.04 2.2-1.78 4.4-.88 1.98-1.22 4.3-2.35 6.26-.2.64-.08.13-.1-.01.06-.22.12-.44.17-.68.5-1.94 1.02-4.36 1.28-6.24.27-1.87.3-3.2.01-2.93-.3.28-.86 2.16-2.35 6.5v-.13c-.74 2.6-1.24 4.24-1.56 6.1-.37.2-.7 2.12-1 2.68v-.06c-.32 1.64-1.32 3.14-1.73 4.68 0-.07-.06-.13.08-.46-.42 1.08-.96 2.57-1.17 2.57-1.05 2.56-3 5.87-3.72 7.5l.03-.12c-.42.9-.7 1.07-1.27 2.04-.05.04-.1.1-.1.08-.28.47-.8 1.08-1.3 1.66-.5.6-1.08 1.04-1.36 1.4l-.12-.04c-.5.53-1.05.97-1.6 1.4l.65-.48c-.05.38-1.34.93-2.58 1.86-.32.18-.6.43-.9.65-.3.2-.6.45-.9.68-.6.5-1.28.9-2.03 1.1-.64.4.53-.45-.46.04-.08-.14.44-.28.14-.3-.48.24-.92.3-1.38.4-.46.07-.94.22-1.58.37l-.08-.1a7.97 7.97 0 0 1-1.93.33l-.07-.3-.4.08c-.47.08-.94.1-1.4.16l.4.08c-.7.08-1.17-.01-1.67-.03a12.02 12.02 0 0 1-.6-.02c-.08-.03-.15-.06-.23-.08l-.18.08c-.23 0-.48 0-.77.02-.45.04.15.12.34.17l-.1.04h-.42c-.47-.05-1-.17-1.56-.26-.56-.1-1.15-.28-1.75-.43-1.2-.37-2.44-.8-3.55-1.3.16.22-.45-.03-1.08-.28l-.02-.15c-1.2-.48-1.4-.65-1.56-.83-.17-.2-.35-.33-1.5-.93l.24.04-.72-.13c-2.1-1.06-.95-.84-3.15-2.13.78.63.2.52-.73-.33.1.04.2.08.32.12-.53-.43-.7-.57-1.02-.9.35.23.25.05-.4-.7l.54.4c-.47-.4-.92-.83-1.34-1.3-.77-1.2-1.8-3.3-1.78-3.94 0 0-.07-.18-.15-.48l-.3-1.13c-.22-.87-.46-1.83-.6-2.18.24.62-.06-1.15.17-.67-.28-.8-.8-3.3-.74-4.25l.04.18c-.1-1.8-.14-3.3-.03-4.8l.08-1.1.17-1.1c.1-.75.3-1.5.53-2.3-.2.1.34-1.55.05-1.18.77-3.36 2.4-5.76 2.4-7.12.62-1.45.87-1.65 1.26-2.36l-.14.35c1.24-2.67 1.66-3.43 2.7-5.36.5-.98.34-1.26 1.36-2.95-.22.6.15-.1.53-.74-.23.4-.27.56.3-.24.04-.13.13-.32.22-.5.01 0 .04-.03.04-.01.6-1.08.46-.9.15-.43 0-.03-.04 0-.16.13.76-1.03 1.83-3.05 2.07-3.1l4.86-8.08c.27-.24-.06.4-.53 1.17l1.2-1.83c.1.1-.63 1.1-.98 1.66.8-1.02 1.5-2.17 2.27-3.33.76-1.17 1.55-2.4 2.55-3.54l.3-.57.12-.13c-.05-.03.3-.62.56-1 .36-.26.2.2 1.13-.98.42-.42.93-1.1 1.48-1.8l1.62-2.04c-.57.62-.44.37-.23.07.5-.58.88-.8 1.25-1.25l.16.06c-.3.12 1.23-1.53 1.4-1.76.38-.22-.76.9-.8 1.1 1.02-1.1 1.34-1.32 1.6-1.58.28-.25.52-.54 1.65-1.52 1.15-1.1-.32.07.18-.52 1.05-.95 2.1-1.86 3.5-2.72-.17.05-.34.1-.5.18 2.17-1.56 3.6-2.33 5.32-2.87 1.1-.58 2.16-.9 3.07-1.28.95-.25 1.76-.55 2.5-.68.73-.13 1.35-.3 1.88-.37l1.3-.2c1.36-.22 1.25-.35.53-.5-.75-.1-2.17-.2-3.4-.07a11.91 11.91 0 0 0-1.6.18l-.67.12c-4.12.76-6.96 2.35-9.65 4.23-2.68 1.92-5.22 4.3-8.42 7.8l-3.5 3.98c-1 1.15-1.82 2.2-2.65 3.24-1.66 2.1-3.25 4.3-5.58 7.9-2.26 3.42-4.53 7.15-6.52 10.64-.38.88-1.02 2.03-1.7 3.22-.63 1.2-1.32 2.44-1.74 3.5l-.5.74a24.14 24.14 0 0 1-1.03 2.26l-.01-.06c-.4 1.1-.98 2.3-1.14 2.85v-.06l-.52 1.33.04-.25-.95 2.94c-.27 1-.6 1.93-.82 2.84l.18-.12c-.27.96-.48 1.78-.58 2.54l-.17 1.07-.16 2-.03 1.04c-.04.7-.03 1.5-.03 2.4l-.04-.05.9 5.82c.3 1.78.62 3.64 1.73 5.8-.28-.54.03.27-.02.24.92 2.08 2.58 3.9 2.82 3.72 1.1 1.18.86 1 .92 1.23.07-.1 1.14.8 2.15 1.52l-.5-.3c.95.72 1.95 1.33 2.96 1.92l-.47-.56c1.55 1 .24.5 1.83 1.32l.07-.18c2.25 1.22 3.54 2.08 5.94 2.94 2.53.72 5.27 1.1 8 .78l1.3-.2zm27.46-112.65l.07-.03a1.7 1.7 0 0 0 .71-.87c.15-.4.12-.8-.08-1.15a1.7 1.7 0 0 0-.87-.71c-.4-.15-.8-.12-1.15.08-.64.38-1.05 1.3-.63 2a1.55 1.55 0 0 0 1.36.76c.2.01.4-.02.6-.1zm-1.3-1.05c-.2-.3.05-.8.37-1 .08-.05.17-.07.25-.07a.73.73 0 0 1 .25.05c.2.07.38.22.48.4s.06.4.02.5a.97.97 0 0 1-.36.46c-.4.14-.8 0-1-.34z"/><path d="M216.75 81c.24 0 .48-.06.72-.18l.03-.01c.64-.38 1.05-1.3.63-2a1.7 1.7 0 0 0-.87-.71c-.4-.15-.8-.12-1.15.08a1.7 1.7 0 0 0-.71.87c-.15.4-.12.8.07 1.12.2.38.5.66.85.78a1.54 1.54 0 0 0 .43.06zm-.63-1.2c-.1-.18-.06-.4-.02-.5.07-.2.22-.38.4-.48.08-.05.17-.07.25-.07.1 0 .2.02.25.05.2.07.38.22.48.4.18.3-.04.78-.36.98-.2.1-.4.12-.56.06s-.3-.2-.43-.43zm13.18 4.1c-.01 0-.02.01-.03.01.13-.03.26-.05.4-.05-.13 0-.26.01-.37.04zm-12.97 57.02h0l-.03.22zm-4.88-63.6v-.01l-.07-.08zm53.5 65.17l2.8 6.22c1.05 2 2.27 4.02 4.08 5.52.2.22.84.7.87.64 1.16.84 2.5 1.4 3.86 1.72l2.03.33 2 .1h1.6l3.9-.16 9.82-.85.98-.1a1.37 1.37 0 0 1 .64.1c.4.14.7.43.88.68.36.5.44.92.54.65.03-.12.08-.4-.07-.83-.14-.42-.5-1.06-1.38-1.4-.44-.2-1-.14-1.5-.15l-1.78.01-4.6.04.2-.06-5.4.2-4.37.24c-.2-.18-1.07-.18-1.95-.3-.9-.08-1.8-.32-2.23-.5h.1c-1.14-.32-2.24-.92-3.07-1.83-.44-.4-.8-.93-1.2-1.4-.34-.52-.73-.98-1.08-1.47.07.06.14.1.47.52-1-1.4-2.17-3.6-2.08-3.78-1.94-3.83-4.23-9.47-5.62-11.9l.12.16c-.8-1.38-.87-1.87-1.72-3.46-.02-.1-.07-.22-.05-.2l-1.63-2.97c-.23-.46-.48-.9-.7-1.3l1.86 6.73c1.3 2.8 2.48 5.8 3.72 8.8z"/><path d="M346.7 163.2c.2-.5.2-1.1 0-1.7-.3-.87-.83-1.26-1.46-1.38.23-.2.42-.44.56-.72.2-.5.2-1 0-1.6-.27-.77-.93-1.15-1.7-1.3.03-.01.05-.02.05-.02l-.23-.05-.24.01c-.9-.1-1.9.08-2.5.27-.4.06-.8.13-1.17.24l.37-.24c.4-.26.86-.66 1.13-1.15.14-.24.27-.52.3-.9s-.07-.77-.35-1.02c-.26-.24-.68-.38-.98-.36-.32-.02-.57.03-.83.1-.5.12-.96.3-1.37.46l-1.3.46-2.6.87-1.3.45-.67.3-.6.34-2.3 1.47-2.12 1.6-.03.03c-.16.1-.58.3-.92.38-.36.1-.74.17-1.12.22-.76.1-1.53.14-2.3.13l-.55-.08c-.24-.12-3.46.2-3.94.08l-1.46.06c-.4-.02-1.28-.05-.55-.08-1.35-.01-1.38.01-2.36.05l-1.45-.1c-4.66-.08-8.73 0-13.42-.04-1.8-8.56-.67 3.25-.67 3.25.35 4.22.76 7.4 1.24 10.77l.78 5.36.44 3.08.23 1.67c.06.37 0 .7-.2 1.03a1.6 1.6 0 0 1-.72.6l-.6.2-.67.2a72.72 72.72 0 0 1-2.45.71c-1.53.4-2.9.73-4.26 1.02-2.74.6-5.53 1.14-10 1.87-4.13.6-8.55 1.12-12.6 1.26a151.44 151.44 0 0 1-1.37-7.19l-.1.24c-.83-5.36-1.5-7.25-2.2-12.1l.05.06c-1.5-6-1.54-9.67-3.06-15.86.2.77.01-.35.06-.3-.58-2.88-1.17-5.96-1.46-5.94-.4-2.1-.23-1.73-.18-2.03-.12.04-.5-1.78-.82-3.42l.2.75c-.12-.78-.38-1.57-.6-2.35l-.66-2.3.03.97c-.62-2.47.1-.7-.62-3.03l-.18.08c-.97-3.38-1.32-5.44-2.34-8.72-2.4-6.7-5.64-13.46-10.1-19.3-2.25-2.9-4.78-5.57-7.68-7.68-1.42-1.1-2.98-1.97-4.54-2.78a36.72 36.72 0 0 0-2.43-1.02 17.32 17.32 0 0 0 .37-.55c.27-.46.38-.75.53-1.13.13-.34.32-.77.58-1.48 3.1-2.12 1.42-1.5.42-1.08.03-.1.06-.2.1-.35.01-.17.03-.35.04-.53.01-.01.01-.04.02-.02.1-1.2.03-1-.01-.44-.01-.03-.02.02-.06.2.08-.47.12-1.1.02-1.7-.05-.3-.14-.62-.3-.9-.07-.14-.17-.26-.28-.37-.08-.07-.1-.1-.14-.1-.05-.01-.04-.04-.03-.08.01-.03.01-.05.02-.07s.01-.03.02-.03l.01-.88c-.01-.33-.01-.62-.06-1-.07-.34-.2-.68-.42-.98-.1-.15-.25-.28-.4-.4-.08-.05-.16-.1-.25-.14l-.13-.05c.01 0-.03-.01-.04-.01a.81.81 0 0 0-.31 0c.02-.07.06-.18.06-.28 0-.05.01-.1 0-.18a2.64 2.64 0 0 0-.02-.29c-.02-.2-.08-.38-.14-.56-.13-.36-.34-.67-.57-.95-.22-.25-.5-.58-.96-.7-.46-.12-.9.08-1.2.33-.16.1-.1.01.1-.17.1-.08.27-.18.5-.24-.2.04-.37.1-.5.2-.2.12-.34.26-.48.4 0-.02 0-.05.01-.07.04-.04.07-.08.1-.12.3-.3.9-.62 1.4-.5-.48-.1-.93.1-1.23.32-.1.08-.2.17-.28.25a41.73 41.73 0 0 1 .4-3.82v-.6l.03-.17c-.03.01-.02-.64 0-1.06 0-.02.01-.03.01-.05l.67 1.15c1.4 2.23 2.35 5.16 3.8 7.44.02.1.17.27.18.26l1.12 2.18.8 1.52.35.66c.1.18.16.4.2.6.07.43 0 .86-.15 1.2-.3.7-.86.96-.66 1.04.1.02.4.02.85-.34.42-.34 1.05-1.18.82-2.52l.05.06a4.43 4.43 0 0 0-.18-.55c-.07-.14-.13-.28-.2-.4l-.36-.7a8.89 8.89 0 0 0-.75-1.19c.1-.2-.5-1-.6-1.3l.03.02c-.5-.67-.7-1.55-1.16-2.2.03.02.08.01.16.17-.3-.5-.7-1.18-.62-1.26-.66-1.2-1.5-2.93-2.06-3.63l.05.04c-.33-.4-.32-.57-.63-1.04 0-.03-.01-.07-.01-.07-.35-.44-.76-1.4-1-1.78l.05-.06-.52-.96.18.37c-.1-.02-.16-.15-.23-.34v-.26a1.49 1.49 0 0 0-.06-.35c-.03-.15-.13-.25-.18-.4-.18-.18-.32-.28-.47-.38-.36-.52-.9-.97-1.13-1.58-.25-.28.27.22-.04-.23.08-.06.17.2.17.04-.3-.46-.32-.82-.7-1.38l.05-.06c-.54-.72-.64-1.46-1.1-1.97l-.56-.7c-.12-.14-.27-.32-.82-.44-.12-.08-.26-.14-.4-.2-.5-.08-.36.07-.88.04.03-.08-.67.07-.38-.05-.3.03-.64.17-.87.3l-.7.4c-.47.28-.98.56-1.6.8-.2.24-.82.48-.96.66-.06-.03-1.18.6-.57.16.05-.04.15-.1.16-.07l.05-.1c-.73.22-1.17.7-1.84 1.02.2-.08.46-.22.3-.1l-.6.3.1-.12-.92.44h.16c-.46.2-.68.16-1.13.52-.2.17.47-.13.01.14-.33.14-.66.27-1.14.5a2.78 2.78 0 0 0-1.18 1.22c.12-.05-.02.2-.08.5l-.08.01c-.1.57-.1.67-.15.77-.04.1-.12.22.02.78l.15.18c.22.46.28.6.3.7.03.12.07.25.37.6-.18-.3.07-.22.24.18l-.12-.07c.13.2.2.27.25.42-.1-.1-.13-.02.05.3l-.2-.17.43.54c.17.5.64 1.2.65 1.42 0 0 .48 1.02.7 1.2-.17-.17.1.4-.06.27.2.22.66.95.75 1.3l-.04-.05c.08.18.16.3.24.4-.03 0-.06.01-.08.01-.07.01-.12.03-.17.05-.08-.27-.14-.37-.16-.22-.01.06-.02.17-.02.32-.05.04-.1.08-.16.12-.12.1-.2.16-.2.2-.02.06.12.02.36-.07 0 .4.01 1.03-.03 1.9-.04.74-.12 1.65-.27 2.76l-.27 1.82-.16 1.03c-.04.45-.02.8.04 1.24l-.06-.17c.13.98.44 1.8.66 2.53.23.72.4 1.37.3 1.86-.1.52-.42 1.08-.72 1.6l-.97 1.6c-.36.23-1.77 2.45-2.32 3.12l.04-.07c-1.2 1.9-2.8 3.7-3.95 5.55.04-.08.02-.14.3-.56-.9 1.32-2.07 3.13-2.22 3.18-2.1 3.15-5.03 7.53-6.22 9.64l.07-.15c-.67 1.2-.97 1.5-1.77 2.82-.06.06-.12.15-.12.13-.73 1.32-2.4 3.68-3 4.72l-.1.03-1.62 2.52.62-.93c-.03.24-.45.8-1 1.55l-1.76-.98-2.33-1.34-.46-.25-.23-.13c-.08-.04-.16-.1-.2-.01l-.74.75-.7.72-.37.4c-1 1.1-1.93 2.2-2.8 3.3-.7 1.14-2.3 2.84-3.1 4.2l-.46.4c-.27.47-.6 1-.97 1.4v-.05c-.4.7-.94 1.43-1.14 1.78l-.01-.05-.54.8.05-.17c-.7 1.23-1.5 2.42-2.17 3.5l.18-.01a19.93 19.93 0 0 0-1.63 2.73 40.87 40.87 0 0 1-1.47 2.6l-.02-.05c-.8 2.13-1.74 3.43-2.53 5.2.86-.15 1.88-.5 2.82-.92.08-.1.13-.13.14-.06.01 0 .01 0 .02-.01.14-.6.8-2.16 1.24-2.7l-.05.12c.65-1.1 1.13-2.1 1.62-3.03.47-.95.97-1.85 1.65-2.8-.18.01.52-.98.2-.82 1.12-2.12 2.7-3.42 2.72-4.45.6-.9.86-.97 1.2-1.4l-.13.23c1.16-1.67 1.52-2.14 2.47-3.32.42-.62.3-.9 1.2-1.9-.2.4.14-.03.46-.42-.2.26-.23.36.25-.1.04-.1.1-.2.2-.33.01 0 .03-.01.03 0 .52-.66.4-.57.13-.3 0-.03-.04-.01-.14.06.67-.58 1.6-1.84 1.82-1.8l.6-.7a9.65 9.65 0 0 1 .28-.33c.08-.18.2-.03.32 0 .12.05.2.08.5.23l2.77 1.4c.16.2-.3.02-.87-.25l1.33.72c-.08.1-.8-.37-1.2-.57 1.45 1.08 3.32 1.66 5.05 2.88l.43.13.1.08c.02-.05.47.12.75.26.2.25-.15.22.76.74.66.5 2.06 1.12 3.03 1.6-.5-.3-.3-.27-.06-.18.45.26.66.5 1.03.66l-.04.16c-.1-.23 1.26.54 1.46.58.2.25-.75-.32-.9-.3l2.73 1.54c1.03.45-.1-.23.43-.08.87.46 1.76.85 2.7 1.5l-.24-.3c1.66.83 2.6 1.4 3.62 2.14 12.53 5.9 3.3.1 3.3.1.06-.15.13-.3.2-.44-.17.17.1-.4.34-1.02l.1-.04c.88-2.35.52-.78 1.4-3.1l.07-.45c.7-2.14.6-1.07 1.3-3.47-.33.93-.3.38.13-.75l-.04.3c.2-.64.27-.86.43-1.27-.1.4.03.24.34-.7l-.13.66.48-1.82c.52-1.34 1.14-3.53 1.42-4.06 0 0 1-2.92 1.12-3.62-.13.6.43-1 .35-.5.17-.78.85-3.05 1.22-3.92l-.05.17c1.17-3.3 1.75-5.72 2.83-8.67-.13.1.43-1.45.2-1.1.9-3.12 2.06-5.56 2.1-6.78a19.42 19.42 0 0 1 .51-1.44l.33-.82-.01.07-.05.17c.03-.1.06-.2.07-.24l.5-.58.48-.58.62-.8c.8.24 1.58.5 2.37.85 1.97.84 4 2.03 5.9 3.8 1.04.52 2.83 2.47 3.5 3 .03.07.9 1.08 1.5 1.8.57.75.88 1.2-.1.1-.18-.18-.47-.53-.42-.53l-.32-.2c1.75 2.4 3.44 4.2 4.97 6.8-.4-.8-1.06-1.77-.56-1.15.47.8.96 1.58 1.4 2.4l-.37-.45a85.08 85.08 0 0 1 1.91 3.67l-.15-.56c.86 1.85.96 2.58 2.06 4.6.5.9-.6-1.84.28.12 1 2.53 2.35 6.4 3.37 9.72.03-.35.33.54.64 1.45l-.1.14c1.24 3.5.15 1.37 1.3 4.86l-.17-.3.5.87c.56 1.57.6 2.02.68 2.5.1.47.15 1 .65 2.8-.3-1.44.14-.74.42 1.05l-.2-.42c.2.98.32 1.3.4 1.95-.17-.57-.23-.27.06 1.17l-.33-.93.72 2.68c.27 2.13 1.05 5.44 1.04 6.34 0 0 .76 4.55 1.14 5.55-.28-.9.14 1.62-.12.94.35 1.15 1.1 4.6 1.22 6l-.06-.26c.82 5.16 1.82 8.74 2.5 13.37.1-.24.48 2.2.55 1.57 1.07 4.73 1.25 8.76 2.13 10.37.43 2.16.35 2.6.53 3.72l-.13-.5.8 4.15.43 2.3h-.3c-.07.01-.13.02-.2.03-.08.01-.06.03-.24.04l-.84.1c-.6.07-1.34.12-2.72.08.9-.1-.23-.1-1.26-.1.66-.02.86-.06-.5-.13-.2.03-.48.05-.76.07-.01-.01-.07-.01-.04-.03-1.7.04-1.42.07-.62.08-.04.02.03.04.27.07-1.78-.14-4.96.01-5.18-.17l-13.13.3c-.48-.1.52-.18 1.77-.2l-3.04.03c.03-.13 1.75-.08 2.7-.1-3.62-.22-7.47.22-11.72.02l-.88.1-.25-.02c.01.06-.94.13-1.57.15-.6-.12.04-.27-2.06-.26-1.66-.1-4.73.06-6.9.12 1.17.02.8.08.3.13-1.05 0-1.66-.1-2.47-.06l-.08-.12c-.15.12-2.8.13-3.16.2-.6-.12 1.63-.1 1.9-.2l-6.33.02c-2.25.12.4.15-.67.3-2 .03-3.93.14-6.2.05l.72.14c-3.73.1-5.97.1-8.48-.05l-11.52.62-.32.03-.03-.37-.01-.08a.41.41 0 0 1 .02-.18 1.27 1.27 0 0 1 .04-.15c.01-.07.01-.1 0-.2.01-.07-.01-.14.02-.2.07-.37.06-.6.06-.85-.01-.16-.06-.4-.08-.52-.06-.28-.1-.37-.17-.32-.05.06-.1.26-.14.58l-.02.12c-.01 0-.01.02-.02.05-.02.07-.04.15-.06.23s-.05.17-.07.26c-.04.1-.03.1-.1.33-.03.08-.04.17-.07.27v.07c-.02 0-.02-.01-.1.18-.01.05-.03.12-.04.2l-.01.14v.08l-.06 1 1.14.07 2.02.1c0 .01 0 .03.01.05.01.08.02.13.02.13.33 3 1.7 5.18 3.5 6.76 1.83 1.57 4.07 2.77 7.28 3.7 1.4.4 2.57.67 3.6.92l2.87.46c.92.18 1.85.18 2.92.25 1.07.04 2.3.14 3.77.02 1.4-.06 2.9-.05 4.33-.22l4.25-.48c1.26-.4 3.58-.52 5.07-.96h.6c.5-.16 1.1-.32 1.65-.36l-.03.04c.76-.24 1.65-.36 2.03-.48l-.03.04c.3-.06.62-.15.94-.23l-.15.1c1.33-.4 2.7-.74 3.94-1l-.14-.12c2.63-.54 3.5-1.06 5.88-1.56l-.02.04c1.4-.63 2.58-.9 3.77-1.2 1.18-.32 2.37-.64 3.8-1.3-.36.17.18.02.16.06 1.35-.53 2.8-1.07 2.73-1.34 1-.35.84-.2 1-.15-.05-.12.8-.5 1.56-.8l-.34.18 2.2-.88-.52-.06c1.2-.4.4.15 1.5-.34l-.1-.18c1.33-.5 2.28-.66 3.46-1l5.37-.04c.72-.06 1.6-.08 2.56-.1l4.4-.01-.72-3.8c-.16-.8-.32-1.55-.5-2.23l-.1-1.2c-.26-1.04-.53-2.27-.66-3.34l.05.06c-.38-1.56-.66-3.34-.85-4.12l.05.06-.1-.44c.1.01.22.01.36.02.15-.04.38-.06.6-.1.01.01.05.01.03.03 1.33-.1 1.1-.14.48-.1.03-.02-.02-.03-.22-.05 1.4.06 3.85-.27 4.03-.13 4-.42 6.8-1 10.06-1.62.38.03-.37.24-1.32.43l2.32-.43c0 .14-1.32.32-2.04.45 2.82-.24 5.67-1.23 8.92-1.82l.64-.27.2-.03c-.02-.05.68-.3 1.14-.45.48-.01.04.28 1.6-.18.64-.12 1.52-.4 2.43-.73l1.37-.52a3.48 3.48 0 0 0 1.39-.93c-.4.4-.6.45-.6.43-.01-.03.16-.16.32-.33.7-.65 1.05-1.2 1.13-1.97l.13-.06c-.02-.03-.03-.13-.03-.28-.01-.24-.08-.6-.13-.87l-.2-1.13c.02-.01.04-.01.06-.02.08.4.17 1.04.23 1.15l-.15-1.17 9.5-2.64-.06.04c5.63-1.84 9.04-2.42 14.83-4.35-.72.24.33-.05.27-.01l2-.6.84-.26c.25-.02.6-.06.88-.1 1.12-.15 1.87-.34 1.88-.42 2.04-.37 1.66-.3 1.94-.27-.03-.07 1.72-.5 3.25-1l-.7.25c1.47-.46 2.92-1 4.33-1.62l-.9.22.7-.27c.7-.06 1.45-.3 1.9-.38 1.5-.5 2.7-1.1 2.2-2.7-.1-.2-.2-.4-.6-.6-.07-.04-.16-.05-.24-.07 1.02-.53 1.66-1.27 1.24-2.63a1.54 1.54 0 0 0-.59-.63c.6-.3.98-.63 1.2-1.1zM233.64 94.8c0 .02-.01.03-.01.05h0c0-.02.01-.04.01-.05zm-19.25-14.4c.1.16 0-.1.03-.1-.35-.62-.72-1.3-.88-1.23-.24-.46-.15-.4-.12-.5-.07.04-.3-.35-.5-.7l.1.15c-.2-.36-.36-.64-.43-.95-.03.07-.07.15-.1.23-.08-.54.12-.17.04-.66l-.12.01c.05-.76.45-1.12.95-1.44l4.5-2.48c1.52-.84 3.1-1.7 4.5-2.3.04.01.1.03.13.04.05.08.63-.33.75-.18.1-.02.2-.02.3-.02.08.04.24.1.1.1.25.08.26.07.45.12a2 2 0 0 1 .19.22 2.02 2.02 0 0 1 .45.56c.16.27.3.55.47.83.32.55.65 1.1.97 1.75.2.47.47 1.04.8 1.66a1.38 1.38 0 0 0-.57.45c-.17.2-.28.42-.38.63-.2.42-.3.82-.42 1.16.28-.73.23-.5.14-.16-.23.66-.44 1.02-.6 1.53l-.1.03c.18-.23-.56 1.75-.62 2-.2.35.33-1.04.34-1.23l-1.5 3.96c-.48 1.43.18-.22 0 .48-.47 1.25-.88 2.48-1.5 3.87l.26-.42c-.44 1.17-.8 2.1-1.17 2.9-.15.28-.3.54-.5.72-.2-.38-.4-.75-.6-1.04l-.07-.3c-.15-.2-.32-.48-.4-.73h.03c-.23-.32-.4-.73-.52-.88h.03l-.23-.42.06.06c-.37-.58-.7-1.2-.96-1.75l-.05.1c-.53-1.2-.9-1.56-1.36-2.67h.03c-.93-1.22-1-2.17-1.9-3.45zM229 100.85l-.56.56-.2.26-.1.13-.22.24c-.1.3-.2.6-.28.9-.08.25-.17.5-.26.72l-.01-.05c-.28 1.04-.7 2.17-.83 2.7l-.01-.05-.4 1.24.04-.22c-.53 1.8-1.12 3.63-1.68 5.23l.13-.1c-1.22 3.42-1.47 4.74-2.6 7.82v-.05c-1.07 4-2.2 6.17-3.3 10.3.14-.5-.1.2-.12.16-.58 1.88-1.24 3.86-1.1 3.94-.46 1.35-.44 1.08-.56 1.23.07.02-.3 1.2-.72 2.23l.16-.5-1.15 2.98.37-.53c-.68 1.55-.3.34-.9 1.85l.12.03c-.52 1.22-.98 2.12-1.47 3.05-3.98-2.5-6.63-3.62-11.87-6.52l-8.6-5.23 4.27-6.76c3.8-6.1 8.75-12.88 12.85-18.97.08-.1.2-.27.3-.43s.18-.3.17-.3l3.94-5.5s.3-.42.76-1.16c.23-.37.5-.82.74-1.43a3 3 0 0 0 .19-1.07c0-.4-.08-.75-.17-1.1-.2-.7-.45-1.35-.65-2.02-.2-.65-.36-1.38-.32-1.97.14-1.46.3-2.94.3-4.22.04-1.5-.12-2.72-.26-3.4.17-.01.42 0 .6.14.26.16.5.56.68 1 .17.45.33.94.43 1.27l.17.56c.25.86.43 1.7.76 2.56.14.42.5.95.74 1.22.14.17.24.33.54.6.3.25.64.42 1 .42s.7-.16 1-.4c.14-.1.26-.26.36-.4l.2-.3c.23-.4.37-.76.5-1.1.3-.7.55-1.37.82-2.06l3.62-9.82.47-1.25c.14-.35.38-.7.43-.7.03-.02.07-.02.1-.01.01.01.03.02.06.03.04.02.08.06.12.1l.15.28c0 .04 0 .1.01.17 0 1.28-.18 2.52-.32 3.72-.16 1.2-.33 2.48-.44 3.9a9.17 9.17 0 0 0-.04.59c0 .12-.01.2.02.42.01.05.01.1.07.25.03.07.04.1.1.2.12.18.4.33.62.34.15.01.32-.03.47-.1.18-.1.14-.1.2-.14.05-.05.13-.14.15-.17l.18-.3.14-.2c.1-.13.2-.26.3-.36.22-.22.4-.26.4-.24.03.01.1.05.2.16a3.55 3.55 0 0 1 .35.44c.1.16.16.32.2.48.02.08.03.16.04.24 0 .05.01.06 0 .14-.03.12-.02.2-.07.35l.42.6.45.58c.85.1.66.98.63 2.67.16.2.26.33.36.42l.16.18c.04.06.05.2.06.2s.04.04.06.08a1.17 1.17 0 0 1 .13.35c.07.3.1.65.08 1a8.46 8.46 0 0 1-.33 2.14c-.16.8-.63 1.85-1.3 2.86-.64 1.03-1.44 2.06-2.04 2.9zm23.8 108.36c.66-.27.4.14-.43.4l.17-.2c-.45.2-.6.3-.9.38.25-.16.08-.22-.58.04l.4-.3-1.2.66c-1.03.24-2.54.94-3 .9 0 0-2.16.63-2.6.97.4-.25-.8.1-.5-.14-.52.3-2.14.9-2.84.96l.12-.05c-2.47.62-4.14 1.36-6.4 1.8.14.12-1.06.32-.72.43-2.26.73-4.28.63-5 1.32-1.05.24-1.28.1-1.83.2l.25-.08c-1.97.45-2.55.5-4.03.73-.73.17-.8.45-2.15.58.4-.17-.12-.06-.62-.01.32-.05.4-.1-.25-.1a1.55 1.55 0 0 1-.36.1c-.01-.01-.03-.01-.02-.02-.83.12-.68.14-.3.1-.02.02.02.04.14.05-.88-.05-2.4.24-2.53.07-1.25.17-2.32.23-3.34.33-1.02.08-2 .23-3.04.23-.23-.12.25-.14.86-.2-.5.05-.98.01-1.48.01.02-.14.85-.03 1.3-.07-.88-.1-1.78-.1-2.72-.08-.94.02-1.94.07-2.94-.2l-.43.05-.12-.03c0 .06-.47.08-.77.06-.27-.15.06-.26-.95-.38-.77-.23-2.2-.44-3.26-.6.54.14.35.17.1.15-.5-.1-.72-.36-1.1-.43l.01-.17c.14.2-1.3-.3-1.5-.3-.22-.2.77.17.92.13-.95-.33-1.2-.4-1.4-.54l-1.33-.68c-1-.4.1.22-.43.1-.42-.22-.8-.5-1.2-.77l-.6-.43a9.86 9.86 0 0 1-.53-.58l.15.35-.9-.84c-.27-.26-.44-.57-.63-.82-.18-.27-.37-.5-.5-.8-.1-.26-.74-1.68-1.12-3.4l2.08.05c10.95.3 16.6-.1 29.63-.2l26.37.23 6.52-.01c-1.4.8-.9.1-2.47 1.04zm87.86-51.36c.2-.1.3-.1.5-.2 2.3-.8 3.7-.35 4 .45.1.4.1.7 0 1-.22.5-.9.85-1.56 1.12-.46.1-.92.25-1.34.38l-.2.1c-.12.03-.26.08-.4.12-1.08.23-2.3.3-3-.12-.3-.1-.4-.3-.5-.6-.2-1 1-1.95 2.5-2.25zm-2.13 13.62c-.45.12-.93.28-2.6.83 1.33-.4.68.01-1 .38l.4-.17c-.9.24-1.2.33-1.83.43.54-.15.27-.14-1.1.1l.9-.25c-.84.2-1.7.37-2.55.5-.13.01-.25.01-.38.02l-.24.01c-.12 0-.25.06-.3.07l-.85.24-1.74.52c-1.13.33-2.1.62-2.52.7 0 0-4.24 1.2-5.2 1.58.83-.3-1.5.34-.87.07-1.07.4-4.3 1.4-5.62 1.67l.24-.08c-4.06 1.08-7.1 2.06-10.54 2.98l-.3-2.4c-.33-1.7-.1.33-.35-.47-.2-1.52-.5-3-.62-4.75l-.07.57c-.45-2.85-.64-4.56-.73-6.5l-1.22-6.6c.48.01 1 .01 1.58 0l.1.08c3.4-.1 6.4.15 8.66.03 3.5-.04 2.34.24 6 .1l1.42.1c1.56.02 1.12-.12 2.85-.07-.1.07 2.2.05 1.17.1 1.06.01 2.12.04 3.26-.05a11.92 11.92 0 0 0 1.73-.27c.3-.07.6-.15.9-.26.32-.13.56-.2.97-.5l-.04.03 1.22-.93a18.87 18.87 0 0 1 1.23-.93 16.78 16.78 0 0 1 1.37-.86c.47-.27 1-.57 1.45-.72.95-.5 3.5-1.2 4.24-1.58.04 0 .37-.1.8-.25.43-.15.96-.35 1.34-.46.4-.1.68-.1.7-.08.04.03-.06-.02-.67.16-.2.07-.58.2-.57.18l-.3.2c.37-.12.67-.22.96-.3.28-.07.58-.1.67-.07.04.04.18-.04-.1.48-.13.2-.3.38-.5.54-.25.2-.52.37-.8.56-.56.37-1.15.73-1.78 1.12.76-.45 1.73-1.04 1.1-.6l-1.1.67c-.18.12-.37.24-.56.38-.1.08-.2.13-.35.3-.02.03-.06.07-.1.15-.01-.01-.02-.02-.04-.03.03-.06.06-.1.07-.13.07-.1.1-.12.14-.17-.05.05-.08.07-.15.16-.01.02-.05.07-.08.13-.04-.02-.1-.03-.13-.03-.2 0-.4.2-.4.4 0 0 0 2.1-1.3 3.8s-4.4 2.1-4.4 2.1c-.3.1-.4.3-.4.5s.2.4.4.4c.13-.06 1.52-.25 2.9-.9 3.17 2.8 2.3 6.8 2.3 7-.1.2.1.4.3.5h.1c.2 0 .3-.1.4-.4.1-.1 1-4.45-2.3-7.54.5-.3.95-.7 1.3-1.16 1.1-1.38 1.4-2.97 1.47-3.77.1.06.15.07.22.1.1.03.1.02.18.03.1.01.13 0 .2 0h.01l.5-.23c-.23.4-.36.87-.27 1.4.1.5.4.9.9 1.2.32.2.68.3 1.08.35-.95.58-1.68 1.35-1.48 2.35.1.4.3.8.7 1 .35.2.74.3 1.18.36-.68.43-1.16.98-.98 1.74.1.5.4.9.8 1.1.24.12.52.2.8.24-.58.36-.98.82-.8 1.46.1.36.27.64.6.84-.88.36-1.23.45-1.6.54zm-1.44-12.4v.02h-.04a1.44 1.44 0 0 1-.36 0c-.07-.03-.13-.03-.22-.1 0-.01 0-.03.01-.04.1.07.13.07.2.1.25.06.4.03.4.03l.03-.01zm6.2 10.93c-1.2.4-2.2.5-2.7.2-.2-.1-.3-.2-.3-.4-.1-.4 1-.8 1.7-1.1.2 0 .4-.1.6-.2a4.53 4.53 0 0 1 1.6-.3c.2 0 .4.1.6.1l.1.1c.2.6.3 1-1.6 1.6zm0-2.7c-1.4.5-2.7.6-3.4.3-.2-.1-.3-.3-.4-.5-.2-.6 1.1-1.1 2.2-1.5a4.34 4.34 0 0 1 .48-.2 21.53 21.53 0 0 0 1.42-.3l.67-.24c.37-.01.7.03.93.14.2.1.2.2.2.2.2.8.2 1.3-2.1 2.1zm2.6-4.4c-.23.47-1 .8-1.86 1.13-.7.05-1.47.24-2.04.47-.1.05-.2.1-.32.14-1.13.17-2.25.2-2.78-.14-.2-.1-.3-.2-.3-.4-.3-1.3 2.7-2.3 3.7-2.5l.2-.1c2-.6 3-.8 3.4.4.1.4.1.7 0 1z"/></svg>