<svg xmlns="http://www.w3.org/2000/svg" viewBox="0 0 480 480" xmlns:v="https://vecta.io/nano"><path d="M179.76 172.82l.15-.17-.03.03-.12.14zm16.3-11.62c-.03.01-.1.2-.2.8l.2-.8zm60.5 47.56l-.2.01c.14 0 .18 0 .2-.01zm103.26-37.44c.7-.4 1.1-1.4 1-2.3-.2-1.6-1.5-1.4-1.5-2 0-.5.6-1 1-1.6.6-1.2.2-2.9-1.1-3.2s-5.2.2-5.2.2 3.1-1.2 4.3-2.6c.8-1 .3-1.6.3-1.6l-8.9.2c-1.7 0-4.4 2.8-5.6 3.6-1.3.8-3.6 1.6-4.8 1.8-.2.03-.97.05-2.13.05-.08-.53-.52-.96-1.07-1.05l-2.8.1c-.8-.1-1.3.2-1.3.9v.03l-9.4-.1.26-4.53s-31.66-4-44.06-10.7c-12.4-6.8-23.1-25.5-29.1-33.8-5.46-8.1-14.28-18.12-28.87-14.3-4.8.76-8.18 2.96-10.67 6.1-11.33 2.9-33.25 10.4-50.26 27.9-23.9 24.6-29.46 55.94-29.46 55.94l4.7 2.7-4.64 14.76s-2.72 4.45-3.93 11.35c-.2.4-.36.85-.47 1.35-.5 1.7-.3 2.4.8 2.7.15.04.3 0 .46-.1.24.03.48.01.68.02-.2 1.3.13 1.92 1.16 2.16.2.04.4-.02.6-.14.2.14.4.28.6.4-.07.96.2 1.73 1.3 2.03.76.17 1.27-.05 1.64-.48a9.35 9.35 0 0 1 .36.18s.1.12.26.3c.1.67.5 1.2 1.34 1.4a1.22 1.22 0 0 0 .6 0h.01c.9.1 2.1-2.1 2.6-4.2.4-2.1.4-2.1.9-3.1.4-.9.34 2.35.67 4 .38 1.9 2.03 3.28 2.63.38.6-3 1.02-5.6 1.12-6.5s-.23-2.98-.23-4.48v-1.5s-.2-1.2 1.5-3.9c.52-.83 2.57-3.92 5.25-7.9l6.53 3.76s12.22-24.66 23.72-35.36c4.7-4.37 10.87-8.28 16.54-11.4L188.9 208h81.9s-.72-9.47-2.2-21.48c3.88.93 7.7 1.56 11.5 2.08 17.5 2.4 41.06.5 41.06.5l.45-7.92c3.4.05 8.15.1 10.97-.01.17.5.64.83 1.12.83l2.8-.1c.64 0 1.1-.5 1.17-1.04a54.96 54.96 0 0 0 2.73-.16c2.6-.2 11-.7 15.5-2.6s4.1-3.4 4.1-4.2c0-.4-.5-.8-.6-1.2-.1-.48.01-1.18.4-1.38zm-9.72 9.08l.1-.03-.02.01z" fill="#fff"/><path d="M322.5 157.84h0c.04-.01.06-.03.1-.04l-.1.04zm16.12 15.08l-2.58.23c-.1-.24-.27-.47-.52-.63-.6-.3-1.3-.1-1.7.5-.3.6-.1 1.3.5 1.7a1.34 1.34 0 0 0 1.02.06l.88 1.14c.2.1.3.1.5-.1.1-.1.1-.4 0-.5l-.78-1c.02-.04.06-.06.08-.1.06-.1.08-.23.1-.35l2.6-.25c.2 0 .3-.2.3-.4s-.2-.3-.4-.3zm-132-56.68l-.03-.03v.07c.01-.01.01-.03.02-.04z"/><path d="M361.3 168.57c-.08-.32-.22-.64-.43-.9-.2-.27-.5-.5-.7-.62-.17-.1-.15-.2-.04-.34l.5-.65.14-.2a1.14 1.14 0 0 0 .16-.31c.07-.18.12-.36.15-.56-.07.4.08-.15.1-.12.13-.72.01-1.5-.3-2-.3-.53-.7-.75-.76-.7-.45-.32-.68-.34-.77-.4-.1-.04-.07-.06-.13-.1-.03.05-.84 0-1.52.03l.32-.03-1.18.05c.54-.3 1.08-.65 1.58-1.1.3-.3.58-.56.82-1.12.24-.58.2-1.22-.15-1.65-.1-.1-.24-.1-.35-.13-.12-.03-.24-.07-.4-.05l-.75.02-3.27.12-4.57.14-.33.03a3.76 3.76 0 0 0-.6.15c-.38.13-.7.3-1.02.48-.63.36-1.2.77-1.74 1.17l-.24.08c-.17-.03-1.02 1.1-1.24 1.12l-.43.42c-.14.08-.4.24-.2.06l-.77.5-.57.18-2.93 1.02c-.24.07-.47.1-.7.12l-.78.04h-.6c-.25-.5-.74-.88-1.34-.98-.03-.01-.07-.01-.1-.01l-2.72.1c-.76-.1-1.2.13-1.42.33a1.25 1.25 0 0 0-.32.47l-5.25.05c.13-.57-.03-1.07.03-1.65-.03.18-.04.43-.08.26l.04-.58.05.12.08-.86-.08.1c.03-.2.08-.35.1-.5.02-.07.03-.15.03-.24v-.14l-.01-.3c-.04-.36-.14.7-.12-.06l.1-.96-2.1-.36c.06.1-.14.07-.33.06l-.01-.08c-.2 0-.3-.01-.38-.03-.1-.02-.2-.05-.25-.08-.12-.06-.28-.12-.97-.17-.06.03-.13.05-.18.08h-.14v.3l-.37-.05-1.3-.2-.55-.23c-.22-.24-3.6-.22-4.07-.5l-1.52-.15c-.42-.1-1.3-.3-.54-.22l-2.43-.32-1.46-.4c-5.43-1.08-10.1-1.75-15.73-3.23-3.34-1-8.22-2.3-12.83-4.3-4.58-1.96-8.53-5.3-11.2-7.94-3.83-3.67-7.3-8.3-10.55-13.1-3.26-4.8-6.3-9.8-9.65-14.2-.18-.3-.76-1.04-.8-1-1.98-2.75-4.2-5.4-6.8-7.66 0 0-.15-.13-.4-.37l-1.2-.94c-1.03-.8-2.57-1.78-4.44-2.7-.47-.22-.98-.4-1.48-.6-.5-.2-1.03-.4-1.58-.53l-1.65-.44-1.7-.25-.85-.1-.85-.02-1.67-.03c-1.1.1-2.14.2-3.1.35l-2.58.6c-.74.25-1.37.5-1.87.7-1 .4-1.43.65-1.08.66.35.04 1.47-.24 3.63-.63l1.83-.23c.67-.12 1.44-.06 2.25-.1 1.64-.05 3.57.18 5.73.7-.08-.01-.16-.01-.24 0 5.13 1.34 7.86 3.45 10.78 5.7.3.53 3.1 3.14 3.8 4.22l-.1-.08c1.13 1.2 2.1 2.6 3.03 4.03.94 1.42 1.87 2.84 2.85 4.12-.1-.1-.2-.1-.6-.7 1.35 1.92 3.2 4.56 3.15 4.8l5.36 7.64c1.87 2.52 3.68 4.76 4.96 6.07l-.2-.16c1.44 1.5 1.75 2.03 3.37 3.7.07.1.18.23.15.22.84.76 1.98 1.95 3.16 3.03.57.56 1.16 1.08 1.7 1.53s1 .85 1.38 1.12l.03.16 1.84 1.33c.6.44 1.3.8 1.94 1.2l-1.44-.9c.34.03 1.04.5 2.04 1.2.5.32 1.12.63 1.78.97.33.16.68.34 1.04.5.37.14.75.28 1.14.4 2.83 1.22 6.03 1.46 9 2.47 1.5.25-1.34-.1.86.35.03.17-1.04-.17-.5.1 2.15.5 3.46 1.08 6.13 1.6l.08.15c3.5.56 6.5 1.57 8.87 1.8 3.6.57 2.34.8 6.14 1.22l1.43.4c1.6.3 1.2-.02 2.96.34-.13.1 2.25.42 1.18.37a47.29 47.29 0 0 0 2.13.35l.9.12.33.03.01.23-.03.92-.1 2.24c-.08 1.53-.2 3.15-.38 4.9.14 1.18-.14 3.87-.03 4.74-.1.14-.32 5.4-.34 2.37 0-.26.03-.72.06-.7l-.1-.37c-.4 3.04-.2 5.56-.4 8.6.1-.9.15-2.1.2-1.3l-.18 2.8-.07-.6-.28 3.9c.02-.01.04-.02.07-.04.02-.04.05-.17.08-.26-.03.34-.04.3-.05.36-.01.05-.03.1-.05.12-.06.03-.18-.03-.23-.03-.04 0 .02-.01-.1-.01h-.28l-.6.03c-.42.03-.9.08-1.47.16-1.04.16 1.94.06-.2.22l-10.32.14c.33.14-.6.15-1.58.2l-.1-.12c-3.7.2-1.36-.25-5.03-.1l.32-.08-.97.25c-3.32.22-1.78-.28-5.47-.03 1.46.01.68.3-1.1.18l.46-.1c-1-.02-1.32.02-1.98-.04.6-.04.32-.16-1.14-.2l.98-.1c-.92.04-1.84.04-2.76.06-2.1-.25-5.47-.4-6.3-.7l-2.4-.3c-1.26-.2-2.65-.35-3.18-.35.92.04-1.55-.43-.82-.44-1.2-.05-4.63-.6-5.95-1.06l.26.05c-4.96-1.3-8.56-2.05-12.76-3.97.13.24-2.06-.82-1.6-.4-1.1-.46-2.16-.9-3.1-1.4l-2.6-1.42c-1.55-.9-2.76-1.64-3.66-1.83-1.88-1.12-2.1-1.5-3.03-2.14l.45.26c-1.74-1.07-2.8-1.87-3.75-2.56s-1.83-1.3-3-2.27c-1.2-.92-1.6-.8-3.63-2.64.73.5-.12-.22-.88-.9.5.42.68.52-.28-.4-.16-.1-.4-.28-.6-.44 0-.01-.04-.05-.01-.04-1.3-1.1-1.1-.87-.52-.34-.04-.01 0 .04.16.23-1.27-1.23-3.6-3.36-3.64-3.62-1.9-1.72-3.4-3.3-4.92-4.75-.76-.72-1.48-1.44-2.17-2.2-.7-.73-1.4-1.48-2.1-2.3-.23-.43.46.3 1.3 1.2-.67-.75-1.3-1.52-1.95-2.3.12-.06 1.16 1.28 1.77 1.98-2.15-2.85-4.8-5.62-6.8-9.33l-.52-.7-.1-.23c-.04.04-.58-.74-.9-1.28-.17-.58.26-.1-.7-1.93-.6-1.52-1.96-4.2-2.62-6.25.35 1.1.17.77-.03.3-.35-.98-.35-1.6-.62-2.35l.1-.1c-.15-.1-.76-2.65-.84-3 .01-.3.1.1.2.6.13.5.28 1.08.35 1.2-.24-1-.36-1.64-.42-2.1l-.16-.95c-.05-.25-.07-.5-.12-.96-.04-.45-.15-1.1-.18-2.12-.22-2.2-.13.4-.32-.64-.07-1.95-.1-3.9.36-6.1-.1.22-.17.45-.25.68l.16-1.07c.1-.3.2-.62.3-.9l.6-2.78c.4-1.16.9-2.17 1.48-3.17 1.48-3.1 3.28-5.18 4.84-6.53 1.56-1.36 2.83-2.1 3.68-2.55 1.68-.9 1.5-.95.5-.73-1.04.25-2.9 1.03-4.32 2.03l-1 .72-.77.66c-.45.37-.7.65-.7.65-.43.43-.83.86-1.2 1.3-4.42 1.17-8.7 2.53-12.68 3.9l-.5.05c-.28-.12-2.77 1.44-3.24 1.42-.4.2-.77.4-1.16.6-.35.1-1.08.4-.5.08-1.1.5-1.12.53-1.9.94l-1.24.4c-4.34 2.02-7.84 4.1-12.1 6.78-1.3.76-2.9 1.7-4.53 2.9-1.64 1.18-3.44 2.44-5.1 3.92l-2.52 2.15c-.82.72-1.56 1.52-2.3 2.24-1.48 1.47-2.87 2.82-3.9 4.1-1.5 1.75-3.13 3.5-4.65 5.4l-2.36 2.84-3.4 4.48-1.05 1.55-2.07 3.1-1.84 3.2-.88 1.58-.77 1.6a5.44 5.44 0 0 0-.45 1l-1 1.9-.92 1.95c-.6 1.3-1.24 2.6-1.78 3.93l-.67 1.6c-.44 1-.94 2.4-1.54 4.02-1.16 3.22-2.4 7.27-3.1 10.45-.18.8-.33 1.57-.45 2.23-.2-.28-.7 1.6-.7 1.6a19.41 19.41 0 0 0-.34 1.29c-.04.2-.08.4-.13.6l-.23 1.15.7.4.34.2.18.1c.25.13.5.26.78.4a52.92 52.92 0 0 1 1.85.97l.88.54c-1.02 3.18-1.76 5.04-2.87 9.14.2-.68-.13.28-.14.2l-1.05 3.53c-.14.5-.25.92-.32 1.22 0 .14-.14.38-.08.4-.9 1.7-.75 1.38-.94 1.58.07.02-.6 1.55-1.1 2.97l.2-.66c-.5 1.34-.94 2.7-1.3 4.1l.36-.78c-.63 2.18-.33.5-.8 2.64h.12c-.07.3-.12.57-.18.85-.4.63-.63 1.36-.75 1.9-.3 1.4-.5 2.8 1.1 3.2h.2c.2 0 .4-.1.6-.2.05-.04.1-.1.14-.13-.12 1.1.1 2.08 1.46 2.43h.3c.18 0 .35-.08.52-.17-.04.56 0 1.06.23 1.47.3.4.74.72 1.34.82.78.18 1.44-.17 1.97-.75 0 .5.08.95.34 1.33.2.4.7.8 1.3.9h.4c1.48 0 2.22-1.9 2.6-3.06.2-.45.64-1.32.68-1.58.06-.32.46-.9.52-1.2.01.17.03.34.04.5.06.62.1 1.24.27 1.9.17.67.43 1.3 1 1.86.28.3.83.55 1.3.38.46-.13.8-.6.93-.9.32-.66.4-1.3.5-1.88l.62-3.56.4-2.2c.02-.16.03-.34.03-.5 0-.3-.01-.6-.03-.9-.07-1.18-.2-2.3-.16-3.4l.1-.52c.04-.07.04-.37.02-.78v-.1c-.01-.02-.01-.34.03-.57.04-.25.1-.52.2-.77.16-.5.36-.9.46-1.03.18-.4.4-.78.6-1.17.22-.3.68-.96.34-.38.68-1.04.7-1.08 1.15-1.85l.8-1.08c1-1.48 1.77-2.7 2.64-4.03.45.3.9.63 1.57.9-.16-.06.04.08.02.1.55.3 1.13.6 1.23.47.4.23.3.23.3.32.04-.07.4.1.7.28l-.16-.06.9.5-.1-.22c.45.3.03.22.5.45l.05-.1c.3.2.5.35.75.56.33.25.7.54 1.2.88l.1-.2.65-1.5c.13-.33.27-.66.4-1l.27-.68c.08-.15.15-.3.23-.45 2.32-4.25 3.95-6.85 5.6-9.47l6.15-9.42c2.74-3.9 5.8-7.98 9-11.28 1.33-1.76 4.43-4.08 6.42-5.77l.9-.5c.7-.58 1.53-1.22 2.32-1.66l-.03.06c.8-.64 1.77-1.23 2.42-1.65l.8-2.88c-1.5.84-2.68 1.56-3.2 2.26-1.55 1.08-1.95 1.1-2.76 1.66l.35-.3c-1.43 1.06-2.37 1.7-3.16 2.38-.8.65-1.55 1.2-2.54 2.07-.96.92-.96 1.22-2.67 2.85.47-.6-.2.08-.83.7.4-.4.46-.58-.37.23-.1.14-.24.34-.4.53-.01 0-.05.03-.04.01-.96 1.12-.76.95-.3.45-.01.04.04.01.2-.13-1.16 1.02-2.75 3.24-3.02 3.26-2.73 3.48-4.38 6.17-6.36 9.24-.3.3.1-.47.67-1.37-.5.72-.95 1.45-1.42 2.18-.1-.1.74-1.3 1.2-1.97-1.9 2.45-3.33 5.44-5.36 8.44l-.3.7-.12.18c.05.02-.3.76-.55 1.23-.36.38-.22-.17-1.1 1.4-.7 1.02-1.64 2.92-2.4 4.5l-1.17-.63c-.7-.4-1.36-.78-1.98-1.2l-.06-.14c.02-.14-.76-.2-.8-.37l-.3-.1c-.07-.06-.22-.18-.07-.13-.26-.15-.28-.14-.48-.2l-.24-.23c-1-.63-1.96-1-3.03-1.63-1.23-.87-3.76-2.12-5.22-2.83-2.08-.95-4.15-2.7-6.3-3.64-.06-.05-.25-.1-.26-.1l-1.86-1.06s-3.42-1.93-4.56-2.3c.6-1.8 1.5-4.53 3-8.43l-.02.2 1.1-3 .98-2.55c.57-1.62 1.17-3.03 1.66-4.56.42-.37 1.62-3.46 2.15-4.4l-.02.1c1.06-2.64 2.78-5.14 4-7.58-.03.1.01.2-.3.74l1.52-2.73c.5-.8.92-1.4 1.02-1.4 2.4-4.1 6.5-9.3 8.27-11.8l-.1.2c.94-1.48 1.4-1.75 2.66-3.24.1-.06.2-.16.18-.14.57-.76 1.5-1.8 2.4-2.77l2.44-2.35h.15l1.35-1.3.68-.65.72-.6c-.36.3-.74.57-1.08.9.13-.6 2.3-1.7 4.27-3.6.97-.83 1.97-1.65 2.94-2.56 1-.87 1.95-1.82 3.13-2.46 1-.8-.82.8.73-.32.14.1-.7.56-.2.4 1.54-1.05 2.64-1.54 4.56-2.8l.14.06c1.25-.83 2.5-1.5 3.64-2.1 1.15-.58 2.22-1.03 3.06-1.58 2.72-1.48 2-.6 4.83-2.13l1.2-.35c1.26-.54.82-.58 2.27-1.07-.05.13 1.82-.63 1.03-.2 3.25-1.13 6.48-2.66 10.92-3.68.2-.1.5-.22.8-.33-.01.02-.02.04-.03.05-1.66 2.56-2.58 4.8-2.65 6.1-.7 2.07-.93 2.43-1.3 3.5l.1-.5c-1.07 3.95-1.2 5.15-1.84 8.1-.25 1.5-.02 1.77-.6 4.4.06-.87-.13.2-.32 1.2.1-.63.1-.84-.2.45 0 .2-.03.48-.07.74-.01.01-.03.06-.03.03-.27 1.66-.18 1.38-.03.6.01.04.04-.02.1-.25-.45 1.7-.86 4.78-1.08 4.95-.85 4.98-1.3 8.56-1.94 12.7-.17.45-.1-.53.1-1.74l-.48 2.94c-.13-.05.22-1.7.35-2.6-.83 3.46-1.04 7.24-1.94 11.3l-.04.87-.06.24c.06 0-.02.93-.1 1.54-.2.56-.26-.1-.6 1.95-.4 1.6-.72 4.57-1 6.68.2-1.13.2-.75.17-.26-.17 1.02-.38 1.58-.46 2.37l-.13.06c.1.16-.33 2.73-.33 3.08-.2.56.17-1.6.12-1.86l-1 6.1c-.25 2.2.2-.37.17.7-.3 1.92-.5 3.8-.96 6l.25-.67c-.5 3.62-.87 5.77-1.4 8.18-.84 6.9-1.22 10.67-1.3 12.44-.8.1-.9.2-.01.36-.05 1.42.16 1.1.45.06 1.7.22 5.56.5 12.53.83l-.24.05c5.4.1 8.8.14 12.5-.1.6.3 4.43.03 5.7.12l-.12.02c3.3-.22 6.77.18 9.94-.01-.12.02-.2.1-.92.1 2.3-.04 5.47-.1 5.64.07 5.52-.04 13.22.03 16.75-.23l-.24.05c2-.18 2.6-.03 4.86-.12.12.02.28.03.26.04 2.2-.18 6.4-.03 8.18-.1l.1.1 4.37-.03-1.63-.02c.14-.08.42-.1.8-.1.2.01.4.01.66.02l1.05.04 1.42.04c.02-.01.08.02.08-.01v-.1l-.01-.18-.02-.38-.05-.8-.1-1.38c-.04-.38-.1-.77-.15-1.16-.22-2.96-1.2-5.94-1.36-9-.3-1.45.37 1.26.03-.9.15-.1.2 1 .28.43-.3-2.14-.22-3.54-.63-6.17l.1-.12c-.08-.42-.13-.8-.2-1.22l6.74 1.3c1.22.24 2.44.43 3.76.64 1.33.15 2.75.33 4.36.38-.8-.03.33.1.27.13 2.94.25 6.08.37 6.14.1 2.14.1 1.74.17 2 .3-.01-.12 1.85-.1 3.52-.07l-.77.03c1.6.04 3.2.03 4.8.03l-.94-.24c2.53.1.64.3 3.07.24l-.03-.2c3.5.02 5.57.27 8.97.3l5-.2 2.52-.15 1.35-.1 1.08-.1.54-.04c.08-.02.2.01.25-.05l.02-.27v-.01l1.4-.02-.05.04.6-.08c.23-.03.45-.07.65-.1.1-1.28.1-1.58.02-2.2.18-.1.07-.92.14-1.18l.01.03c-.1-.7.2-1.4.1-2.07.01.03.06.04.05.2.01-.48 0-1.14.1-1.17.01-.34.03-.7.05-1.1 2.06-.02 4.1-.12 7.16-.23.33.43.86.68 1.37.68l2.78-.1c.63 0 1.13-.34 1.42-.8 1.46-.02 2.96-.12 5.28-.34a69.49 69.49 0 0 0 6.97-.9c1.04-.3 2.93-.56 4.14-1.05l.5-.08c.42-.16.9-.4 1.34-.5l-.02.03c.6-.3 1.3-.6 1.57-.8l-.01.03c.24-.14.48-.27.7-.43l-.1.1c.5-.35 1-.72 1.44-1.2.44-.46.82-1.1.9-1.8l-.1.1c.05-.26.05-.5.05-.7v-.13c0-.03-.01-.15-.01-.2-.02-.15-.07-.3-.13-.42-.22-.4-.43-.63-.47-.74-.02-.01-.03-.1-.04-.22-.01-.1 0-.2.01-.3.04-.2.07-.26.15-.3.47-.28.8-.67 1.04-1.2l.01.04c.17-.65.2-1.34.03-1.98zm-234.27 54.25c-.63-.04-1-.4-.5-2.2.3-1.1.8-2 1.3-2.3 1.34-.14.7 1.53.4 2.5-.2.67-.62 2.03-1.2 2zm3.4.6l-.15.53c-.2.36-.44.64-.65.77-.2.1-.3.1-.3.1-.8-.2-1.2-.5-.6-2.8.3-1.5 1.06-2.5 1.6-2.9.18-.13.3-.2.7-.06.46.15.3 1.4.01 2.78a13.86 13.86 0 0 0-.61 1.58zm3.5.9s-1 3.1-2.2 2.8c-.4-.1-.6-.2-.8-.5-.28-.57-.03-1.67.25-2.7a6.18 6.18 0 0 0 .24-.84c.42-1.3 1.08-2.63 2-3.05.8-.23 1.92.56.5 4.3zm3.9.56c-.82 2.5-1.37 3.83-2.5 3.64a1.02 1.02 0 0 1-.8-.5c-.3-.6-.1-1.8.1-2.6.3-1.2 1.02-3.3 2.1-3.6 1.44-.4 1.53 1.76 1.1 3.06zm10.67-21c-1.75 2.74-1.4 1.7-3.15 4.6l-.8 1.06c-.4.63-.5.9-.6 1.16l-.55 1.34c-.01-.06-.2.45-.3.9s-.08.87-.1.26c-.01.16-.04.26-.01.53l-.01-.1c-.01.87-.04 1.78.04 2.72.07.92.2 1.86.23 2.76.03.4-.1.88-.16 1.38l-.26 1.5-.6 3.22c-.02.5-.15 1.43-.44 1.85-.1.15-.22.16-.33.1-.12-.06-.3-.27-.4-.38-.01-.02-.14-.26-.27-.6s-.2-.78-.25-1.2c-.08-.83-.1-1.3.1-.01.04.22.1.6.07.57.04.1.1.17.13.25-.2-1.18-.22-2.45-.4-3.72-.03-.17-.05-.32-.12-.57-.02-.06-.04-.13-.12-.27.01-.01.02-.01.03-.02.1-.2.1-.5-.1-.6 0 0-1.7-1.1-2.4-3.1s.7-4.7.7-4.7c.1-.2 0-.5-.2-.6s-.5 0-.6.2c-.07.07-.74 1.36-.96 2.9-3.9.93-6.64-1.9-6.74-1.98-.2-.1-.4-.2-.6 0-.1.2-.2.4 0 .6.1.1 2.3 2.4 5.7 2.4a7.88 7.88 0 0 0 1.57-.18c-.01.53.05 1.07.23 1.58.6 1.7 1.7 2.78 2.3 3.28-.02.02-.04.03-.07.06-.13.12-.12.13-.16.2s-.04.08-.06.1l-.06.13c-.05.1-.1.23-.16.35a1.6 1.6 0 0 0-.79-.72 1.95 1.95 0 0 0-1.5 0c-.38.18-.73.5-1.04.9.1-1.23-.05-2.47-1.06-2.9-.4-.2-.8-.2-1.2 0-.32.18-.62.48-.9.84.03-.72-.15-1.3-.9-1.54-.4-.2-.9-.1-1.3.1-.24.15-.44.36-.64.6.06-.7-.08-1.34-.76-1.6a1.89 1.89 0 0 0-.82-.03l.32-1.35-.02.3.07-.86c.33-1.42.5-1.78.68-2.18.18-.4.34-.84.87-2.37-.47 1.2-.4.5.27-.95l-.1.4c.34-.8.45-1.07.73-1.58-.1.24-.1.3-.02.18.05-.08.1-.2.2-.35.05-.08.1-.18.16-.3.03-.05.06-.1.1-.17a1.15 1.15 0 0 0 .15-.33c-.01.12-.1.26-.13.33l-.08.2-.16.4.26-.54.1-.2c.03-.07.06-.2.07-.23l.07-.3.3-1.2c.64-1.8 1.45-4.7 1.78-5.42 0 0 1.28-3.9 1.46-4.82-.18.8.53-1.34.4-.7.1-.44.16-.76.32-1.34.8.52 1.5.98 2.82 1.7 1.03.62 2.16 1.23 3.2 1.8.55.17 1.34.77 1.96 1l.2.2c.2.08.46.2.64.34l-.02.01c.32.12.64.34.8.4l-.02.01.36.2-.08-.01c.54.25 1.07.55 1.52.84l.01-.1c.95.66 1.4.72 2.24 1.34l-.02.01c.2.07.36.15.52.23a25.1 25.1 0 0 0-1.13 1.81zm-14.7-15.65h-.06c1 .63 1.62 1 2.4 1.27.03.2.83.5 1.04.67h-.03c.7.23 1.23.8 1.9 1.05-.03 0-.07.03-.2-.04.45.23 1.06.53 1.05.63 1.06.56 2.5 1.42 3.24 1.65h-.06c.43.12.5.26.95.45a.39.39 0 0 1 .04.05c.47.14 1.22.66 1.58.8l-.01.07.83.45-.3-.2c.2-.1.57.45 1.23.68.55.33 1.33.3 1.86.7.32.08-.3-.02.13.16-.03.1-.22-.06-.15.07.43.2.62.46 1.16.7l-.02.08c.72.25 1.2.78 1.7.9.7.33.35.45 1.12.72l.22.24c.3.18.28.01.6.24-.05.04.4.28.17.22.7.5 1.6.74 2.52 1.44.28.01.74.36.95.37-.01.03.27.2.4.27.06.04.06.06-.05.07 0 .01-.12-.06-.1-.07l-.1.03c.04.04.17.13.15.13 0 .01.01.02.01.02.01.01.04 0 .08.01.01.01.03.03.03.06s.02.02-.07.22a1.78 1.78 0 0 0 .07-.13c.02-.04.02-.03.03-.04s.03-.02.04.01l-.22.48-.01-.14-.38.8.12-.08c-.2.4-.4.48-.48.97-.03.23.26-.34.1.1l-.15.28-.08.15c-.02.03-.02.03-.04.05-.04.05-.08.08-.1.1l-.12-.12c-.03.08 0 .1-.24-.02l.02-.08c-.74-.3-.17-.3-.9-.6l.1-.01-.26.03c-.7-.23-.25-.33-1.04-.55.28.15.04.22-.27 0l.12-.01c-.2-.1-.27-.1-.38-.2.13.03.1-.06-.17-.2l.23.03-.58-.18c-.35-.3-1.03-.57-1.14-.76 0 0-.82-.53-1.07-.55.2.04-.25-.25-.07-.25-.26-.06-.94-.38-1.16-.6l.05.02c-.92-.63-1.7-.85-2.5-1.44 0 .1-.44-.2-.38-.05-.95-.42-1.5-1.14-2-1.03-.4-.22-.44-.35-.64-.48l.1.04c-.77-.42-1-.54-1.55-.88-.3-.13-.42-.02-.9-.35.2.04-.02-.07-.2-.18.13.06.17.06-.05-.12-.04 0-.1-.02-.16-.04 0-.01-.01-.01 0-.02-.33-.16-.28-.1-.14-.02-.01 0-.01.02.03.06-.3-.26-.9-.52-.9-.64-.96-.53-1.7-.82-2.5-1.24-.06-.1.15-.04.4.08l-.57-.3c.05-.07.34.15.52.23-.6-.5-1.44-.68-2.16-1.24l-.2-.04-.04-.04c-.01.03-.2-.03-.33-.1-.08-.12.1-.14-.3-.36-.27-.24-.88-.47-1.3-.67.2.14.12.13.02.1-.2-.1-.27-.24-.43-.3l.03-.1c.03.12-.55-.2-.64-.22-.07-.12.33.12.4.1l-1.17-.66c-.45-.18.03.12-.2.08-.35-.18-.8-.38-1.1-.6.01.04.03.08.05.13-.16-.08-.3-.14-.42-.2a5.32 5.32 0 0 1 .31-1.17l.05-.57c.15-.35.37-1.02.7-2.04.33.3.96.83 2.02 1.63zm135.87 18.3l.04.32c0 .07.07.2-.06.18l-.25.01-.77.01-3.66.06-6.46.12c-10.5.32-22.74-.53-33.5-.17-.35-.03-1.26.04-1.25.06l-9.85-.03s-18.9-.03-23.88.4c.57-2.25 1.35-6.48 1.35-6.48 2.05-10.52 2.56-16.04 4.57-28.63l4.6-25.38 2.93-16.6c.16-1.47.57-3.56 1-5.63 0 .05 0 .1.01.15.23 2.6.74 5.45 1.7 8.63 1.72 5.6 3.44 8.9 5.3 12.15 1.9 3.2 4.07 6.37 8.14 10.8 3.9 4.17 8.2 8.45 12.5 12.02 2.12 1.58 5.67 4.64 8.35 6.3.3.27.6.55.92.8.94.54 2.02 1.2 2.9 1.85l-.08-.01 3.68 2.1h-.08a26.13 26.13 0 0 0 1.73.94l-.32-.1c1.28.6 2.55 1.27 3.82 1.84 1.3.55 2.5 1.17 3.7 1.65l-.14-.2c1.26.53 2.32.98 3.3 1.33l2.72.88c.86.28 1.72.47 2.65.75.76.23 1.58.46 2.5.7a152.57 152.57 0 0 1 .71 5.82c.2 3.42.7 8.36 1.18 13.37zm51.1-18.28c.04.5.08.85.13 1.1-.02.01-.06.02-.08.03a1.31 1.31 0 0 0-.13.07l.08-1.2zm-.1 1.5l.01-.14c.05.03.14.05.3.07v.01l-.3.06zm19-13.54c-.66 1.28-1.8 2.22-3.17 2.64-1.4.42-2.86.26-4.15-.44-2.6-1.44-3.58-4.66-2.2-7.32 1-1.8 2.85-2.83 4.78-2.83.86 0 1.73.2 2.55.62 2.6 1.44 3.57 4.66 2.2 7.33zm-7.06-12.7c.1-.1.34-.13.72-.1l2.74-.1c.36.08.64.38.64.7l.1 3.5c-1.4-.43-2.88-.36-4.2.14h0l-.1-3.85c0-.14.03-.24.1-.3zm-6.3-.34c0 .04 0 .08-.01.1h-.1c.03-.25.05-.48.1-.1zm-1.5 3.92c-.13.04.15.75.02.85l.04.32c-.03.1-.06.27-.08.1-.02.3 0 .3.03.5l-.1.3c-.13 1.13-.03 2.1-.13 3.3-.24 1.43-.25 4.14-.25 5.7.07 2.2-.6 4.72-.5 6.98-.02.07.01.26.02.26l-.16 2.52c-.01.14-.02.3-.02.5v.2l-1.47.32c-.3.07-.6.14-.83.2.1-.44.15-.93.15-.93.34-2.22.17-3.4.28-6.05.2-2.33.4-2.94.5-5.37.1-1.15.14-2.4.2-3.52-.1-.54.1-1.48.04-2.12l.1-.24c-.02-.22-.03-.48.02-.7l.02.02c-.03-.33.03-.7.01-.86l.02.02.02-.4.03.07c-.02-.57.02-1.16.08-1.67l-.1.04c.17-1.1.02-1.5.2-2.5l.02.02c-.14-1.28.3-1.98.16-3.3.02.16.05-.07.07-.05.02-.6.05-1.24-.12-1.26.03-.44.08-.35.15-.4-.04 0-.06-.1-.07-.24 0-.12 0-.23-.01-.34l.02.08v-.35l.1.01c-.06-.05-.13-.1-.2-.17.35.08.2.2.42.2l-.02-.12c.53.1 1.13.34 1.64.5l.17.03-.1 3.5c-.04 1.35-.1 2.68-.27 3.9l-.1.1zm7.1 13.76l-.04-.1c.17.08-1.1.12-1.26.16-.24-.07.66-.07.76-.13l-2.55.04c-.9.08.17.1-.27.17-.8.02-1.6.1-2.5.02l.3.1c-.4.02-.76.02-1.1.03.02-.6.02-1.13-.03-1.48l.03.05c-.08-.43.01-.54-.01-1.02.01-.02.02-.06.03-.05-.08-.46.06-1.34.03-1.7l.07-.02.04-.9-.03.34c-.18-.13.15-.68.07-1.35.06-.62-.3-1.28-.18-1.9-.07-.3.12.28.08-.18.1-.01.05.22.13.1-.02-.45.14-.73.1-1.3l.08-.02c-.1-.73.18-1.36.07-1.85-.02-.75.25-.5.15-1.27l.12-.3c.04-.33-.1-.25-.04-.6.06.03.08-.46.12-.24.15-.83-.05-1.7.18-2.8-.05-.1-.05-.27-.05-.44.6.01 1.17.03 1.5.01l.05.07h1.8l-.67-.02c.23-.18 1.34.12 2.64.02l.1 3.87c-.96.57-1.8 1.4-2.37 2.45-1.63 3.15-.5 6.96 2.6 8.67.03.02.07.03.1.05h0l.04 1.52v.02h-.12zm4.58.58l-2.78.1c-.33 0-.7-.3-.7-.7l-.03-1.08a6.31 6.31 0 0 0 1.97.33c.62 0 1.24-.1 1.84-.28.13-.04.26-.1.4-.14h0l.03 1.08c0 .33-.3.7-.72.7zm23.58-11.64l.01-.08c-.1.46-.4.84-.6.97-.27.14-.47.37-.6.63-.12.26-.16.46-.2.68a3.11 3.11 0 0 0 0 .61 1.73 1.73 0 0 0 .22.7c.2.33.42.6.4.64v.3a1.4 1.4 0 0 1-.04.37c.05-.02.03.14 0 .28-.04.14-.1.28 0 .22-.3.72-1.1 1.2-1.68 1.52-.62.33-1.12.57-1.36.87-.8.38-.98.3-1.4.47l.2-.1c-1.52.56-2 .64-3.2.92-.6.15-.65.34-1.75.5.34-.12-.1-.03-.5.04.26-.06.33-.1-.2-.04-.07.03-.2.06-.3.1-.01 0-.03 0-.02-.01-.68.13-.56.13-.24.1-.01.01.01.02.1.02-.72.03-1.97.28-2.07.18l-5.25.68c-.2-.04.2-.12.7-.18l-1.22.1c0-.08.7-.1 1.08-.14-1.26-.02-2.57.25-4 .3l-.04-1.23a6.18 6.18 0 0 0 2.39-2.52c1.63-3.15.5-6.96-2.6-8.67-.04-.02-.08-.03-.1-.05l-.1-3.67a4.35 4.35 0 0 0 .35-.02l.05.07c.7-.06 1.5-.08 2.1-.25.62-.14 1.17-.3 1.6-.52.7-.3.95-.35 1.2-.4.26-.07.52-.13 1.2-.6.2-.07.42-.2.6-.3.55-.4.3-.4.9-.83.01.08.74-.55.45-.23.66-.48 1.28-1.03 1.98-1.5.35-.23.73-.45 1.1-.57.2-.06.32-.07.57-.07l.8.03c.47-.13 1.57-.1 1.92-.2.06.05 2.2-.04.97.1-.1.01-.3.01-.28-.01l-.15.08c1.25.1 2.26-.13 3.5-.13-.37-.02-.85 0-.53-.06l1.14-.02-.24.07h.85c.1.01.12 0 .16.02.02-.04.02-.05.02-.08.1.02.02.18-.01.2-.02.03-.03.04-.04.07-.04.06-.1.2-.2.35-.18.3.5-.4.04.14-.7.67-2.18 1.4-3.44 1.93.15.03-.2.18-.53.33l-.02-.02.3 1.2.03.04c1.46-.27.56.1 2-.12l-.12.06.37-.2c1.3-.22.73.08 2.14-.1-.56 0-.24-.2.4-.1l-.17.05c.35.03.44.02.6.12-.17-.02-.1.02.2.25-.08-.04-.17-.06-.24-.08.2.07.4.23.56.47a2.51 2.51 0 0 1 .09 1.14 1.76 1.76 0 0 1-.16.49.97.97 0 0 1-.2.22s-.07.1-.18.22c-.06.07-.13.16-.2.25-.08.1-.15.18-.3.4-.26.4-.32.88-.16 1.24.17.35.52.5.67.57-.3-.14-.03.05.12.17.1.1.18.2.08.16.16.06.35.2.46.53.18.34.13.73.03.93z"/></svg>