<svg xmlns="http://www.w3.org/2000/svg" viewBox="0 0 480 480" xmlns:v="https://vecta.io/nano"><path d="M146.3 150.28l-.07.27c.01-.02.01-.03.01-.04l.06-.23zM193.13 109l.5-.12c-.01-.02-.14 0-.5.12zm-5.85 49.2l-.07-.1c.05.08.07.1.07.1zm80.52 50.1h.22-.22zm33.47-19.17l.22-.15c-.02.01-.03.02-.04.02-.06.05-.12.1-.18.13zm57.5-49.77s1.6-1.8.9-3-2.24-.24-2.24-.24.48-1.05-.1-1.88c-.85-.4-2.33.44-5.05 2.02-1.7 1.3-6.9 3.6-7.8 4.1s1.2-2.1 2.2-3.5.4-3.5-1.9-1.4-4.8 3.4-5.3 4.1c-.6.6-1.8 2.3-2.6 3.6s-.6 1.6-.6 1.6-.42.67-2.13 1.6l-.07-.1c-.4-.7-1.3-.9-2.1-.6l-4.5 2.4c-.86.34-1.2.9-.9 1.63-9.1 3.7-24.58 9.65-31.9 11.87-4.7 1.4-11.7 0-15.4-3.7-1.7-1.7-6.3-7.42-10.8-13.14l4.1-2.96s-8.3-11.8-15.43-21.08c-6.07-11.33-15.98-22.14-30.57-21.72-4.1.1-8.1.3-12.1 2.8-.1 0-2.2 1.6-2.5 1.8-.3.25-.73.67-1.26 1.32-3.34.64-6.75 1.56-10.14 2.48-13.6 3.7-33.3 14.2-33.3 14.2l1.94 3.4c-6.75 2.96-10.58 5.9-13.74 8.8-5.5 5.2-8 14.3-11.5 28.1-3.4 13.9-8.7 42.9-8.7 42.9s-3 5.7-2.6 13.4 1.2 8.5 1.4 9.6 1.7.2 1.7.2.24 3.13 1.54 3.63c1.3.4 1.73-1.5 1.73-1.5s.72 1.18 1.62 1.18 2.03-3.05 2.92-5.45c1.07-2.5 1.98-7.15 2.38-8.15.3-1 1 3.1 1.3 4.9.2 1.7 1.4 2.1 1.7-1s.9-5.7.9-6.5c0-.9-.2-3-.5-4.5l-.2-1.5s-.3-1.2 1-4.1c1.4-2.9 16.3-31.9 18.8-36.1 3.17-5.35 12.9-11.1 18.05-12.65l5.16 9.05 3.62-2.02-5.82 42.02c0 .2-.1.9-.2 1.1v.1c0 .3-.1.4-.1.5v.1h80.9l-1.1-13.96c4.6 2.77 7.4 2.86 11.7 2.86 7.9 0 15.7-4.5 27.5-12.6 7.56-5.2 19.64-14.03 27.34-19.72.53.64 1.43.78 2.16.32l3.9-2.4c.8-.5 1-1.5.5-2.3l-.2-.32.9-.68s6.5-3.4 11.3-9.5c4.8-6 4.7-6.32 5.3-7.32.66-1.9-1.1-2.08-1.1-2.08z" fill="#fff"/><path d="M360.1 139.78c-.14-.23-.38-.42-.45-.46-.1-.06-.2-.1-.28-.12-.04 0-.02-.02.01-.05l.06-.07.1-.13c.07-.07.33-.45.5-.82.16-.36.3-.78.28-1.26-.03-.5-.24-1-.7-1.35-.23-.18-.52-.28-.8-.32-.15-.02-.27-.02-.4-.01-.03 0-.06 0-.1.01-.06.01-.12.02-.16.05-.01 0-.02.02-.02.01.03-.07.04-.14.05-.2V135v-.1c-.01-.05-.01-.1-.02-.15-.03-.22-.16-.52-.3-.74-.1-.1-.12-.27-.27-.3-.13-.05-.26-.1-.4-.12-.26-.06-.6-.04-.77-.01-.8.15-1.4.47-2 .77l-1.74.97-.43.25c-.13.1-.3.15-.47.3-.24.18-.5.35-.78.5-1.1.66-2.27 1.25-3.45 1.84l-1.8.9c.03-.2.2-.36.3-.54l.8-1.1c.18-.25.43-.6.57-.96s.23-.76.18-1.22c-.04-.48-.35-1.05-.87-1.17-.52-.14-1.05.06-1.34.24-.68.38-1.13.9-1.6 1.28l-1.5 1.18-1.57 1.1c-.53.4-1.06.68-1.6 1.27l-.02.02c-.76.82-1.3 1.64-1.9 2.5l-.83 1.28c-.26.44-.56.93-.64 1.53 0 .03.02.06-.01.08-.02.04-.32.32-.54.48-.24.18-.5.35-.76.5l-.16.1c-.57-.63-1.55-.84-2.53-.47l-4.48 2.4c-.66.27-1.08.66-1.23 1.16-.04.14-.06.32-.05.53l-1.73.76-1.44.5-15.1 5.9c-3.34 1.14-8.1 2.92-13 4.47-2.35.75-4.94.72-7.26.32-2.33-.4-4.42-1.24-5.97-2.23-1.12-.67-2.06-1.6-2.97-2.64-.92-1.04-1.82-2.13-2.72-3.24-1.8-2.22-3.6-4.53-5.37-6.85l-1.05-1.36c.28-.2.53-.4.7-.54l.12.05 2.4-1.78-1.07.75c.03-.12.13-.22.36-.4.28-.2.65-.44 1.12-.74.12-.08.24-.15.36-.23.05-.04.16-.08.15-.13l-.1-.18-.52-.8c-.1-.14-.2-.28-.3-.43-.1-.12-.18-.25-.27-.38-.14-.2-.3-.38-.45-.56-1.03-1.52-2.67-2.65-3.66-4.28-.65-.65.66.5-.23-.52.1-.13.45.46.35.1-.84-1.03-1.15-1.87-2.2-3.13l.06-.13c-1.44-1.6-2.25-3.36-3.28-4.38-1.4-1.7-.58-1.4-2.16-3.1l-.4-.82c-.57-.8-.6-.44-1.18-1.36.12-.01-.77-1.15-.3-.7-1.38-2.06-3.23-3.85-5.1-6.55-.6-.42-1.6-1.75-2.07-2.05.02-.13-2.22-2.46-.82-1.23.12.1.3.32.27.33l.24.08c-1.1-1.55-2.42-2.42-3.73-3.74.38.4.9.93.5.64-.4-.4-.83-.8-1.24-1.2l.33.17-1.9-1.78.2.33c-.92-.87-1.13-1.33-2.4-2.06-.58-.3.86.86-.24.1-.83-.7-2-1.58-3.24-2.38l-1.56-1.55a29.77 29.77 0 0 0-6.87-2.02c-.2-.08-.38-.14-.57-.2-.12-.1-1.06-.15-2.03-.1-.97.07-1.96.14-2.2.04l-1.53.15c-.43-.02-1.35-.01-.58-.1-1.43.07-1.47.13-2.5.3-.52.02-1.04.06-1.57.1-2.28.38-4.4 1.2-6.24 2.4l-.07.04h-.01l-.03.02-.1.07-.14.1-.25.18-.47.36-.93.7-.45.35c-.05.03-.22.16-.3.23l-.25.23a13 13 0 0 0-.87.96c-.06.08-.12.16-.18.25-.93.17-1.86.4-1.98.3-3.05.75-5.15 1.53-7.64 2.27-.3-.01.26-.26.98-.48l-1.77.53c-.02-.13 1-.38 1.54-.54-1.1.17-2.17.57-3.3.95-1.1.43-2.27.85-3.5 1.2l-.47.28-.15.04c.03.05-.5.32-.84.47-.38.02-.08-.27-1.26.2-.98.26-2.66 1.1-3.85 1.66.67-.25.48-.1.2.05-.6.25-.97.28-1.4.5l-.12-.12c.3.04-1.47.8-1.66.96-.38.04.87-.48.98-.63-2.34 1.03-1.18.5-3.5 1.55-1.2.66.3.04-.25.43-1.1.5-2.1 1.1-3.4 1.6l.46-.06c-2 1.05-3.22 1.62-4.65 2.16-3.55 2.06-5.5 3.3-6.4 4.02-.4-.5-.57-.5-.33.27-.6.5-.42.6.1.42.01 0 .03-.01.04-.01.18.5.46 1.2.85 2.1-1.24.54-2.4 1.08-3.54 1.65-1.7.87-3.38 1.83-5.22 3.1-.92.63-1.87 1.35-2.86 2.18-1 .84-2.05 1.73-3.13 2.93-1 1.13-1.88 2.4-2.68 3.7-.75 1.33-1.45 2.7-2.03 4.1-1.2 2.8-2.1 5.66-2.9 8.4-.66 2.63-2 7.2-2.66 10.33l-.37 1.18a67.56 67.56 0 0 1-.78 3.42l-.01-.07-.9 4.22-.01-.07-.4 1.95.04-.34-1.68 8.25.13-.2c-1.2 5.43-1.4 7.46-2.47 12.37l-.01-.07c-.5 3.14-1 5.6-1.5 8.07l-.76 3.83-.2 1.03-.03.16-.1.2c-.07.17-.15.34-.23.52-.3.7-.55 1.45-.8 2.25.24-.8-.16.32-.15.26-.95 2.94-1.23 6.23-1.07 6.3-.17 2.22-.14 1.8-.23 2.1.04-.01.04.48.08 1.18.03.7.1 1.6.15 2.47l-.08-.8c.1 1.64.24 3.28.5 4.92l.01-.98c.14 1.3.14 1.47.13 1.63 0 .16-.04.3.27 1.54l.1-.06c.1.37.2.72.3 1.05.04.16.1.32.13.47s.07.38.17.6c.2.42.7.55 1.12.48.17-.03.3-.06.44-.1.07.68.2 1.35.44 2.05.18.44.38.93.92 1.34.3.2.66.3 1.05.28s.77-.24 1-.5c.1-.1.22-.25.26-.3.02-.02.03-.05.05-.07.03-.05.05-.1.06-.16.04.02.1.12.16.17l.02.02s.02.02 0 0l.06.05c.08.06.17.12.26.18.2.1.38.2.68.25.27.04.57.02.8-.13.13-.05.24-.15.34-.24.1-.08.15-.15.22-.23.26-.3.43-.6.6-.92.65-1.22 1.1-2.46 1.56-3.7.47-1.2.94-2.52 1.26-3.8l.5-1.93.24-1c.05-.14.06-.38.17-.46.1.14.12.3.16.47l.13.62.27 1.47.06.37c.02.1.06.37.1.54.07.4.23.72.4 1 .2.24.43.45.77.46.34 0 .58-.2.77-.43.2-.24.35-.58.45-.96.07-.2.1-.34.12-.5a4.23 4.23 0 0 0 .07-.43l.16-1.48a55.84 55.84 0 0 1 .42-2.89c.13-.97.4-1.88.36-2.98-.04-1-.14-1.95-.27-2.9-.06-.47-.15-.97-.22-1.4l-.17-1.4-.02-.08c-.03-.3.03-.8.13-1.23a10.38 10.38 0 0 1 .4-1.31c.1-.17.2-.34.28-.5.12-.16 1.44-3.37 1.77-3.78l.66-1.42c.22-.38.66-1.2.34-.5.66-1.3.66-1.33 1.1-2.28l.78-1.35 7.57-14.77 6.67-12.4c1.27-2.2 3.2-4.02 5.08-5.56 1.9-1.55 3.82-2.83 5.5-3.82.82-.5 1.67-.96 2.54-1.4l-.27-.86-.68.35c-.12.05-.27.12-.25.1-1 .6-2.47 1.42-3.84 2.32-1.37.9-2.66 1.8-3.38 2.42l-.14.02c-1.2.96-2.37 2-3.4 3.15a17.84 17.84 0 0 1 1.23-1.23c-.16.27-.8.85-1.65 1.76-.85.9-1.75 2.26-2.47 3.75-1.5 2.72-2.64 5.74-4.22 8.56-.64 1.4.5-1.27-.5.8-.12.02.44-.98.1-.5-1 2.02-1.8 3.24-3.03 5.74l-.12.07c-1.55 3.3-3.24 6.05-4.23 8.26-1.66 3.36-1.35 2.13-3 5.68l-.78 1.3c-.77 1.48-.43 1.12-1.3 2.75-.01-.14-1.1 2.1-.67 1.08-.4.7-.7 1.48-.96 2.27-.13.4-.24.82-.3 1.25-.07.46-.14.84-.05 1.47v.02c.1.67.2 1.4.34 2.1a33.11 33.11 0 0 1 .3 2.16c.06.74.17 1.52.04 2.2-.12.77-.28 1.6-.44 2.44-.03.6-.17 1.6-.27 2.56l-.13 1.33a7.27 7.27 0 0 0-.05.4c-.01.06-.01.1-.01.16-.02 0-.04.13-.17.24-.06.06-.18.03-.22-.06a.63.63 0 0 1-.09-.25c-.01-.1-.03-.2-.04-.28-.02-.16-.04-.28-.04-.32s.02.01.05.15c.02.07.04.16.06.27a.69.69 0 0 0 .04.1c.02.05.06.14.05.17.03-.01.06-.04.08-.08-.04-.06-.04-.12-.05-.16v-.06l-.08-.48-.18-1-.26-1.27c-.13-.6-.27-1.2-.43-1.66-.17-.48-.37-.72-.54-.84-.04-.02-.07-.05-.1-.07a.37.37 0 0 0-.19-.18s-1.9-1-2.8-2.9c-.8-1.8.2-4.8.2-4.8.1-.2 0-.4-.2-.5s-.4 0-.5.2c0 .1-1.1 3.3-.1 5.5.77 1.64 2 2.62 2.72 3.05-.02.02-.04.04-.05.07l-.14.3c-.13.35-.23.8-.35 1.2.12-.4.23-.86.36-1.2.08-.17.15-.3.22-.38.02.01.04.02.05.03l-.1.12-.15.32c-.18.55-.35 1.2-.5 1.83l-.33 1.3.1-.6c-.36 1.38-.73 2.77-1.2 4.1l.25-.53c-.32 1-.65 1.58-.93 2.3-.3.7-.55 1.4-.97 2.5-.37 1 .87-1.75.02.25-.14.3-.3.6-.48.9-.17.3-.4.63-.57.75-.1.07-.18.07-.47-.12l-.1-.07-.2-.2c-.1-.1-.2-.25-.3-.38.1-1.6 1.16-7.12 1.32-7.96.46-.12.94-.28 1.42-.52.2 0 .3-.3.2-.5 0-.2-.3-.3-.5-.2-4 1.7-7.3-1-7.4-1.1a.47.47 0 0 0-.6.1.47.47 0 0 0 .1.6 17.19 17.19 0 0 0 .7.5 9.3 9.3 0 0 0 1.49.75l-.56 5.7-.34.2a2.31 2.31 0 0 1-.56.24c-.03-.02-.03-.04-.05-.07-.1.03-.17-.02-.18-.1a3.77 3.77 0 0 1-.09-.36c-.03-.12-.07-.22-.1-.3-.1-.35-.12-.5-.15-.68-.03-.34-.12-.63-.43-2.46l.1.32-.3-.95c-.27-1.67-.25-2.13-.26-2.64 0-.5-.04-1.07-.2-2.93.06 1.47-.17.7-.14-1.12.02.15.04.3.07.46 0-1-.03-1.34.04-2 0 .6.06.32.2-1.15a16.34 16.34 0 0 0 0 .99c.02-.93.1-1.85.2-2.78.22-1.06.53-2.4.9-3.6.36-1.18.77-2.17 1-2.55.01-.02.1-.22.33-.7.06-.08.06-.2.08-.3.01-.06.02-.12.04-.2.02-.13.05-.27.08-.42l.17-.93c.24-1.3.5-2.73.54-3.27-.1.95.4-1.6.34-.87.15-1.22.76-4.78 1.12-6.2l-.04.27 2.68-13.7c-.13.2.42-2.28.2-1.7.88-4.9 2.1-8.82 2.14-10.64.48-2.2.67-2.6.96-3.72l-.1.53c.95-4.12 1.3-5.3 2.1-8.34.38-1.52.28-1.8 1.1-4.5-.2.9.1-.22.42-1.22-.2.64-.23.85.22-.46.04-.2.12-.48.2-.75.01-.01.03-.06.03-.03.52-1.67.4-1.4.15-.62 0-.04-.03.02-.13.25.6-1.72 1.68-4.77 1.88-4.93 1.95-4.85 4-8.07 7.4-10.85.4-.27-.35.4-1.27 1.28.76-.7 1.54-1.37 2.34-2.02.03.07-1.35 1.15-2.04 1.8 2.8-2.36 5.87-4.84 9.8-6.68.25-.16.5-.3.77-.46l.24-.1c-.01-.01.2-.13.48-.3a16.19 16.19 0 0 1 .93-.47c.26-.08.3-.06.42-.08.45 1.02 1 2.23 1.7 3.7l-.1-.1c1.55 2.95 2.57 4.78 3.9 6.66-.07.46 1.33 2.4 1.63 3.1l-.06-.05c1.2 1.65 1.9 3.73 3.05 5.33-.06-.05-.15-.05-.37-.44.74 1.22 1.76 2.88 1.67 3.06 1.72 2.94 4 7.1 5.32 8.87l-.1-.1c.77 1 .82 1.4 1.6 2.55.02.08.06.17.04.16.83 1.1 1.98 3.42 2.6 4.34l-.06.12 1.53 2.63-.65-1.18c.12.06.2.13.36.43s.37.7.6 1.2c.06.12.13.25.2.4.02.1.1.03.16.01l.2-.1.85-.43c.7-.37 1.02-.55 1.43-.84l-.48 4.06c-.08.35-.14 1.27-.12 1.26l-1.4 9.9-2.5 19.48c-.8 7.48-.8 10.42 2.58-7.7l.01.25c.86-5.4 1.35-8.8 1.64-12.58.37-.55.65-4.45.92-5.7l.01.12c.24-3.34 1.14-6.78 1.4-10 .01.13.07.2-.03.94.3-2.33.68-5.5.87-5.66l2.26-16.84.01.25c.14-2.05.38-2.6.7-4.87.05-.12.1-.27.1-.25.13-1.1.42-2.7.73-4.23l.83-3.9.13-.1 1.03-4.3c-.16.53-.3 1.06-.43 1.6-.16-.63.98-3.2 1.73-6.3.9-2.83 1.27-6 2.7-8.8.5-1.4-.34 1.28.5-.77.17 0-.35.98.01.5.4-1 .85-1.77 1.33-2.6a66.02 66.02 0 0 1 1.74-2.75l.16-.01c.53-.8 1.1-1.53 1.8-2l1.1-.8c.18-.12.36-.25.53-.37l.26-.17.12-.08.04-.02h.01c-.04-.1-.08-.14-.1-.16-.13-.13-.2-.3-.2-.48l.4.6c1.05-.6 2.05-1.06 2.93-1.48 1.63-.62 2.25-.6 2.85-.65a12.63 12.63 0 0 0 1.14-.1l6.07.2c.37-.02.57 0 .68.02l.87.03a14.22 14.22 0 0 1 1.38.08h-.45c.92.08 1.83.25 2.73.47l-.48-.36c1.43.42.3.37 1.67.72l.05-.2c1.94.72 2.9 1.55 4.55 2.66 7.05 4.36 13.26 11.27 17.77 17.73l.1.37c-.08.25 1.57 1.55 1.6 1.9l.63.68c.12.23.42.7.1.35.5.7.54.68.96 1.13l.44.8c1.92 2.76 3.82 4.9 5.85 7.8.57.9 1.3 1.97 2.1 3.14l1.28 1.8 1.28 1.76.2.24c-.06.06-.15.13-.23.2l-1.68 1.3-3.16 2.43c-5.07 4.06-11.7 7.8-16.85 11.98-.2.1-.6.5-.6.5l-4.94 3.54s-8.8 6.33-11.45 8.7c-.66-1.3-1.92-3.38-1.92-3.38-3.28-5.7-5.44-8.37-9.34-15.16-1.63-3.03-2.5-5.02-3.4-7.02l-1.37-3.18-1.68-4.16-1.13-3.02-.87 3.15 1.12 2.58c.02.3-.3-.23-.58-.92.23.57.46 1.14.72 1.7-.13.04-.48-.96-.7-1.48.3 1.06.8 2.1 1.3 3.18.55 1.05 1.08 2.16 1.56 3.36l.33.44.05.15c.05-.03.37.46.55.8.06.38-.27.1.33 1.24.36.95 1.37 2.53 2.06 3.65-.32-.64-.16-.46.03-.2.3.56.38.94.66 1.35l-.1.13c.01-.3.96 1.37 1.13 1.55.08.37-.57-.8-.73-.9 1.27 2.22.62 1.12 1.92 3.32.8 1.12 0-.3.45.2.63 1.03 1.33 1.97 1.96 3.2l-.1-.45c1.26 1.87 1.96 3.03 2.65 4.4 2.43 3.3 3.9 5.1 4.7 5.93-.45.46-.43.62.3.3.57.54.63.35.4-.15 0-.01-.01-.02-.01-.03 1.08-.53 3.1-1.68 6.45-3.72l-.1.13c2.76-1.86 4.48-3.06 6.2-4.6.46.02 2.23-1.58 2.92-1.96l-.05.06c1.52-1.37 3.5-2.3 4.97-3.6-.05.06-.04.15-.4.42 1.13-.86 2.68-2.06 2.86-2 2.73-2.03 6.63-4.75 8.24-6.25l-.1.13c.9-.87 1.3-.96 2.36-1.85.07-.03.16-.08.15-.06.56-.53 1.5-1.2 2.37-1.82 2.82 3.57 5.78 7.26 7.52 9.16l-.18-.17c.7.76 1.13 1.27 1.6 1.8.46.53.92 1.1 1.78 1.92.1.1.2.22.18.2.9.76 2.3 1.7 3.8 2.37 1.48.68 3 1.08 3.92 1.23l.1.1c1.5.28 3.03.4 4.57.3-.57.03-1.15.03-1.72 0 .3-.08 1.16 0 2.37-.1.6-.04 1.3-.12 2.03-.3.74-.17 1.46-.44 2.24-.7 2.9-.92 5.72-2.35 8.7-3.35 1.38-.6-1.2.6.9-.25.1.06-.97.42-.4.3 2.06-.8 3.44-1.16 5.96-2.2l.13.03c3.28-1.4 6.3-2.3 8.46-3.3 3.4-1.4 2.37-.7 5.86-2.26l.1-.04c0 .01.01.01.01.02l1.94 2.85c-.28.43-.36.92-.42 1.62h0c-.13 2.02 4.47 7.8 4.5 7.85.62.75 1.34 1.13 2.17 1.14l-10.3 7.57c.22-.06-1.8 1.36-1.25 1.1-3.87 2.94-7.32 5-8.55 6.3-1.8 1.3-2.2 1.45-3.13 2.1l.42-.32-6.92 4.78c-1.26.87-1.37 1.15-3.7 2.6.72-.53-.22.1-1.1.63.55-.35.72-.47-.46.2-.15.12-.4.28-.63.43-.01 0-.06.03-.04.01-1.46.9-1.2.75-.5.36-.03.03.04.01.25-.1-1.56.85-4.3 2.43-4.56 2.4-4.56 2.3-8.08 3.58-12.32 3.8-.48-.06.5-.07 1.73-.25-1 .13-1.98.16-3 .16.03-.08 1.73-.04 2.64-.17-3.5.05-7.54.48-11.26-1.5l-.8-.32-.2-.13c0 .01-.1-.03-.24-.1-.01-.05-.01-.1-.02-.16l-1.34-.65c-.1-.13-.14-.2-1.4-1.05-1.33-.97-3.8-2.76-5.5-4.15.9.76.58.55.17.24-.8-.67-1.23-1.1-1.86-1.62l-.01-.1c-.15-.03-2.17-1.78-2.44-2-.4-.46 1.24 1.06 1.48 1.18-3.13-2.82-1.6-1.37-4.62-4.3-1.62-1.55.22.36-.6-.35-1.4-1.4-2.78-2.78-4.24-4.53l.4.6c-2.52-2.76-3.9-4.52-5.4-6.55l-.5-.62-.68.7c1.9 2.5 3.73 4.67 5.7 6.85 3 3.3 6.34 6.66 11.4 10.85 2.2 1.87 4.05 3.33 5.77 4.57a36.81 36.81 0 0 0 1.89 1.27c.2 2.05.06 2.5.12 3.6l-.07-.52.7 8.32c.03.2.05.35.07.5.01.08.03.15.04.23l.03.1c.04.12.1.25.13.42.01.07.07.2.04.26a6.81 6.81 0 0 1-.29.03c-.12.01-.25.01-.4.01-.25 0-.54-.01-.86-.01.88-.1-.23-.1-1.25-.1.65-.02.85-.06-.5-.13-.2.03-.48.05-.75.07-.01-.01-.06-.01-.04-.03-1.7.04-1.4.07-.62.08-.04.02.03.04.27.07-1.77-.14-4.93.01-5.14-.17l-13.04.3c-.48-.1.52-.18 1.75-.2l-3.02.03c.03-.13 1.74-.08 2.67-.1-3.6-.22-7.42.22-11.64.02l-.88.1-.25-.02c.01.06-.93.13-1.56.15-.6-.12.04-.27-2.05-.26-1.65-.1-4.7.06-6.86.12 1.17.02.8.08.3.13-1.05 0-1.65-.1-2.45-.06l-.08-.12c-.14.12-2.8.13-3.14.2-.6-.12 1.62-.1 1.88-.2l-6.28.02c-2.24.12.4.15-.66.3-1.97.03-3.9.14-6.16.05l.72.14c-3.7.1-5.93.1-8.42-.05l-11.43.62-.3.03-.03-.37v-.08a.41.41 0 0 1 .02-.18c.02-.1.03-.12.04-.15.01-.07.01-.1 0-.2.01-.07-.01-.14.02-.2.07-.37.06-.6.06-.84 0-.04-.01-.1-.02-.14h-.01l-.06-.38c-.06-.28-.1-.37-.17-.3-.05.06-.1.26-.14.57l-.01.06v.07l-.01.04c-.02.07-.04.15-.06.23s-.05.17-.07.26c-.04.1-.03.1-.1.33-.03.08-.04.17-.07.27v.07c-.03 0-.02-.01-.1.18-.01.05-.03.12-.04.2l-.01.14v.08l-.06 1 1.14.07c2.38.14 5.6.2 5.6.2 10.87.3 16.5-.1 29.43-.2 11.38.07 14.4.34 26.2.23l17.13-.07c.33-.03.68-.05 1.07-.06l2.22-.03h.3c.1-.01.24.04.18-.1-.02-.2-.03-.4-.05-.6l-.1-1.22-.13-1.72c-.14-1.86-.28-3.78-.5-5.3l.03-1.2c-.15-1.06-.3-2.3-.3-3.37l.04.06c0-.02 0-.04-.01-.05.4.2.8.4 1.2.6 1.75.78 3.7 1.3 5.9 1.42 1.1.08 2.25.08 3.5.07 1.3-.02 2.7-.15 4.2-.46 5.8-1.16 11.18-4.33 15.88-7.28 2.18-1.5 6.12-4 8.63-5.87l1.04-.63c.86-.65 1.88-1.4 2.8-1.98l-.04.06c1.28-.98 2.77-2 3.4-2.5l-.04.06 1.58-1.14-.26.22 6.65-4.85-.22.05c4.45-3.12 5.95-4.45 9.97-7.26l-.04.06 1.14-.9c.36.25.77.4 1.2.4.4 0 .8-.1 1.18-.34l3.9-2.4c.5-.3.84-.8.96-1.36.1-.5.02-1-.2-1.45.17-.13.35-.25.52-.38l.83-.47c1.17-.7 2.36-1.5 3.63-2.53-.63.5.3-.17.26-.1 2.38-1.8 4.6-4.13 4.5-4.28 1.48-1.6 1.22-1.28 1.46-1.45-.03-.02.25-.4.67-.94l1.47-1.9-.45.62c.98-1.27 1.97-2.53 2.9-3.85l-.67.7c.77-1.02.9-1.14 1-1.25.1-.1.24-.2.83-1.3l-.12-.03.17-.3c.1-.1.13-.3.16-.4a2.15 2.15 0 0 0 .1-.76c-.14-.3-.2-.56-.35-.8zm-223.54 88.88l.68-6.85c.8.22 1.7.35 2.7.25l-1.05 6.76c-.04-.05-.08-.1-.1-.15l-.44 1.52c-.07.2-.2.48-.28.55-.05.06-.1.12-.15.16a.35.35 0 0 1-.25.09.35.35 0 0 1-.25-.11c-.2-.17-.4-.55-.54-.95-.14-.4-.23-.82-.3-1.24-.01-.02 0-.03 0-.03zm70.8-120.2c-1.83 3.1-3.6 7.93-5 12.9-1.4 4.97-2.4 10.1-3.05 13.85l-2.8 16.7-1.7 10.7-1.98 1.12-.26.17c-.07-.02-.12-.15-.18-.22l-1.07-1.77-2.08-3.4c-3.5-5.48-6.5-12.46-10.1-18.06-.08-.2-.42-.66-.44-.64l-2.98-5.3s-5.34-9.44-7.42-12.33c1.37-.5 3.57-1.54 3.57-1.54 6.04-2.64 8.92-4.5 16.1-7.65 3.2-1.3 5.26-1.95 7.35-2.64l3.3-1.03 4.32-1.24 5.4-1.36-1 1.76zm119.82 41.33c-.13-.2-.28-.48-.2-.72.06-.2.3-.4.67-.54l4.5-2.4c.17-.06.36-.1.55-.1.38 0 .75.15.96.5l1.53 2.34c-1.08.55-2.6 1.48-3.9 2.26l-1.64.98c-.24.13-.43.25-.6.37h0l-1.85-2.7zm15.14 10.63a1.16 1.16 0 0 1-.51.72l-3.9 2.4c-.28.17-.6.23-.9.17-.22-.05-.4-.18-.57-.36h0c.48-.22.98-.5 1.52-.88.78-.56 1.56-1.06 2.24-1.5.78-.5 1.45-.94 1.97-1.36h0c.13.27.2.55.14.82zm.08-2.53c-.05.14-.16.3-.3.46l-.26.2.02.03c-.5.46-1.3.97-2.2 1.54-.7.45-1.48.96-2.27 1.53-2.67 1.85-3.58 1.17-4.23.4-1.34-1.62-4.36-5.98-4.28-7.14.1-1.04.1-1.3 1.25-1.9.4-.23 1-.6 1.68-1 1.55-.94 3.67-2.23 4.54-2.56 1.17-.42 2.74 1.63 3.82 3.2l.25.36c1.3 1.94 2.45 3.6 1.98 4.88zm16.94-17.02c-.01.1-.06.2-.1.27-.03.06 0-.02-.08.1-.24.3-.35.58-1.32 2.04l.14-.3-.43.87c-1.88 2.74-1.2 1.34-3.33 4.38.9-1.17.57-.42-.6.94l.23-.4c-.6.78-.8 1.04-1.27 1.5.35-.47.15-.28-.85.76.2-.26.42-.5.6-.76-.6.7-1.2 1.37-1.84 2.03-.8.7-1.84 1.6-2.8 2.32-.96.74-1.84 1.34-2.23 1.54 0 0-.92.6-2 1.23.07-1.5-1.02-3.12-2.27-4.95l-.25-.36c-1.42-2.1-3.12-4.13-4.88-3.62l-1.18-1.8c.18-.1.35-.22.53-.34.2-.15.42-.3.63-.48.1-.1.2-.18.3-.28a4.02 4.02 0 0 0 .39-.46c.01-.15 0-.24 0-.38.2-.65.74-1.5 1.28-2.32.55-.8 1.16-1.7 1.83-2.4.02-.02.08-.1.08-.1.24-.26.73-.58 1.18-.88.9-.74 3.2-2.3 3.77-3.02.04-.02.3-.26.64-.5.17-.12.36-.24.54-.3.17-.06.24-.07.32-.04.15.1.14.2.13.28-.02.04 0-.15-.17-.2-.03-.01-.07 0-.1 0-.05.01-.12.03-.1.02-.04.03-.13.12-.2.17l.2-.08.12-.03c.02 0 .04.01.06.02.03.05.04-.01.03.23-.01.47-.3.87-.73 1.48l-.8 1.13c-.37.5-.75 1.04-.98 1.5-.22.45-.2.7-.18.92.01.05.02.1.05.17.01.03.04.08.08.1.03.02.05.03.07.03l.27.07c-.14-.04-.2-.05-.33-.1-.15-.2-.1-.28-.1-.4.02-.23.06-.3.05-.05-.01.08-.01.15.01.23.01.04.01.07.04.13.04.07.1.07.1.08.1.01.22.03.38.04h.3c.13-.03.32-.12.48-.18.32-.1.72-.33 1.07-.5l-.96.53 2.76-1.3 1.9-.94-.56.2c.94-.46 1.58-.75 2.24-1.1.33-.18.67-.38 1.05-.66l1.2-.74c.88-.57-1.74.87.13-.22.62-.33 1.33-.7 2.07-1 .33-.14.84-.22.85-.17.07.01.1.07.1.13 0 .01.02.08.03.18.01.1-.01.4-.08.6.02.02.03.04.05.06l-6.66 4.8c-.2.2-.32.5-.12.7.2.2.5.32.7.12l6.8-4.92c.07.05.16.1.26.18.75-.3.8-.18.92-.15a.54.54 0 0 1 .27.3c.12.24.03.72-.2 1.17.07-.08.07-.03.03.1-.03.06-.06.14-.12.24-.02.04-.06.1-.1.16-.06.01-.13.04-.2.1l-6.25 4.9c-.3.18-.32.48-.13.7.1.1.3.2.4.22.1 0 .2.01.4-.28l5.68-4.46.01.1.2.37c.43.16.4.2.46.26.04.06.07.12.08.18.05.06.04.2.01.3z"/></svg>