<svg xmlns="http://www.w3.org/2000/svg" viewBox="0 0 480 480" xmlns:v="https://vecta.io/nano"><path d="M292.6 122.1l-.1.1c.04-.04.07-.08.1-.1zm-28.58 6.06l.3.3c.01-.02-.06-.1-.3-.3zm-119.32 21.9l-.07.27c.01-.02.01-.03.01-.04a1.12 1.12 0 0 0 .06-.23zM264.57 208h.22-.22zm-76.75-38.88l.16-.1c-.01.01-.02.01-.03.02-.04.02-.1.05-.13.08zm63.8 38.08l-.47-.03c.01.02.13.03.47.03zm55.6-103.22l-.03.1.01-.01zm27.26-26.1l-4.86-.5a1.89 1.89 0 0 0-.41-.01c-.48.05-.88.32-1.12.73l-6.84 9.7c-1.52.7-5.92 2.82-7.07 4.06-1.4 1.5-4.1 3.7-4 5.7.1 2.1 0 3.9-1 6.5-.5 1.3-3.2 5.3-6.2 8.6-7.9 8.8-19.1 18.3-24.6 22.6-1.33 1.04-3.05 1.22-4.45 1.14l-18.8-13.9c-5.24-11.87-14.6-23.87-31.04-23.43-3.7.08-7.3.26-10.8 1.78-3.2.72-6.05 1.68-8.2 2.62-4 1.8-47 19.7-47 19.7l2.8 5.18a42.12 42.12 0 0 0-7.11 5.42c-5.5 5.2-8 14.2-11.4 28.1-3.4 13.8-8.7 42.8-8.7 42.8s-3 5.7-2.6 13.4.84 8.56 1.04 9.66 2.06.14 2.06.14-.06 2.53 1.24 3.03c1.73.47 2.1-1.06 2.1-1.06s.62 1.2 1.52 1.2 1.9-3.15 2.53-5.17c.9-2.9 2.4-7.2 2.7-8.2s.4 2.3.7 4c.2 1.7 2 2.8 2.3-.2.3-3.1.9-5.6.9-6.5s-.2-3-.5-4.5l-.2-1.5s-.3-1.2 1-4.1c1.4-2.9 16.3-31.8 18.8-36 1.94-3.27 6.33-6.68 10.6-9.2l5.6 10.3 7.57-3.98-4.93 33.78h-.15l-1 7h85.9l-.9-6.9h-.12l-3.3-22.05 6.43 2.05.3-10.27c2.36.36 6.47.54 10.6-1.43 5-2.4 9.8-9.2 12.8-14.1 2.5-4.1 6.3-10.3 11.2-19.2l10.94-20.83 1.16-1.07 5.2-5.1c.85-.85 4.28-8.06 6.54-12.92.5-.3.9-.74 1.2-1.43a1.2 1.2 0 0 0-.08-.97l.7-1.5c.3-.26.58-.62.82-1.1.75-1.47-1.33-2.5-2.7-3.17l4.13-6.34c.3-.52.3-1.14.05-1.66-.25-.5-.73-.83-1.32-.9z" fill="#fff"/><path d="M169.08 165.9l1.2-1.18-1.2 1.18z"/><path d="M170.3 164.7c.01-.01.02-.01.03-.02-.01 0-.02.01-.03.02zm104.1 10.03h0l.1.16zm42.35-77.7h0v.05z"/><path d="M336.27 78.55a2.17 2.17 0 0 0-1.71-1.17l-4.9-.5c-.14-.02-.32-.02-.5-.01-.62.07-1.15.4-1.5.96l-6.37 9.04-.94.43-.9.43-1.73.9c-1.13.6-2.23 1.22-3.36 2.07l-.43.35-.4.4-.7.73-1.52 1.62c-.5.6-1.05 1.26-1.44 2.14-.2.44-.36.95-.35 1.53l.04 1.36c-.01 1.9-.43 3.4-.93 4.7-.47 1.18-1.26 2.23-1.96 3.24-1.47 2.04-3.03 4.03-5.8 7.03a201.55 201.55 0 0 1-8.41 8.39c-1.24 1.33-3.7 3.4-5.25 4.88l-.67.5c-.53.52-1.18 1.1-1.77 1.55v-.05l-2.18 1.9.02-.05-1.03.87.16-.17-2.2 1.87-1.1.88-.28.22.06 1.56c.1-.08.35-.27.57-.44.27-.23.52-.45.32-.36 2.58-2.17 4.9-3.7 5.6-4.75l2.04-1.62-.26.25 4.35-3.88c.77-.74.78-.97 2.2-2.23-.4.46.16-.07.68-.56-.32.32-.4.43.3-.18.08-.1.22-.25.35-.4.01 0 .04-.02.03-.01.85-.83.7-.7.28-.33.01-.03-.03 0-.17.1l2.66-2.42 6.18-6.7c.27-.2-.16.34-.73 1l1.4-1.6c.05.07-.77.95-1.2 1.44 1.82-1.77 3.3-4.02 5.08-6.4l.3-.55.1-.14c-.03-.01.3-.6.5-.98.14-.16.17-.14.26-.23.08-.1.26-.28.56-1.03.24-.54.5-1.34.7-2.22a13.45 13.45 0 0 0 .26-2.59c-.05.83-.08.56-.08.2.03-.74.1-1.17.04-1.74l.07-.06c-.01-.02-.03-.1-.04-.2-.01-.14-.02-.35.03-.6.08-.47.38-.98.42-1.1.13-.15 0 .1-.14.38-.13.3-.24.67-.22.75.14-.6.4-.98.55-1.23l.37-.53c.22-.27.4-.56 1.42-1.6 1.04-1.15-.26.14.2-.45l1.43-1.48c.52-.44 1.14-.83 1.83-1.2l-.47.18c2.12-1.32 3.53-1.97 5.06-2.62l.14.13-.01.02c-.01.03-.02.06-.02.08a.29.29 0 0 0 0 .1c-.06.38.18.74 0 1.58-.3.7-.52.84-.83 1.54l-.6.97c0 .22-.3.38-.37.6l-.1.01c-.02.08-.07.16-.14.18l-.01-.02c-.04.12-.15.18-.16.24l-.01-.02-.1.1v-.04a1.28 1.28 0 0 1-.39.41l.07.05c-.35.17-.33.4-.67.53h-.01c-.2.45-.63.3-.86.73.03-.05-.05-.02-.05-.04-.15.14-.33.27-.23.42-.13.08-.13.02-.18-.02.04.06-.05.16-.15.23l.03-.05-.27.2.13.1c-.17.06-.13-.12-.26-.01l.06.1c-.13.06-.28.1-.44.13-.1.1-.25.27-.35.4-.4.93-.5 2.06-1.03 2.86l-.1.01c-.13-.03.1.3-.04.3l.02.12c-.03.02-.08.07-.1.01-.04.1-.02.1-.01.2l-.1.07c-.2.35-.17.73-.35 1.1-.15.2-.28.5-.4.83l-.43 1.23c.02.03.04.07.05.1.05.08.08.17.1.25.01.04.02.1.04.13.03 0 .06.01.1.03.13.06.27.2.47.42l.63.4c.17.1.34.22.54.3.01.03.08.03.1.02.18.13.36.3.53.43l1.1.86c.45.3.82.28.2-1.06l.03-.01c-.25-.33-.45-.5-.75-.6.07-.16-.26-.23-.3-.33l.02-.01c-.28-.04-.37-.4-.65-.44.02-.01.05-.04.1-.02-.16-.08-.4-.17-.37-.27l-.32-.15c-.13-.06-.13-.05-.2-.08-.06-.01-.14-.01-.27.04l-.05.02.04-.02c-.23.1-.04-.02-.1-.05.02-.01.03-.02.04-.02-.04-.01-.04-.05-.02-.1.03-.07.08-.13.07-.17h.07l.03-.08.04-.1 5.43 1.07h.05a2.53 2.53 0 0 0 .55 0c.5-.05.92-.25 1.25-.55.75.36 1.63.6 2.53.62.4.06.8.02 1.2-.03 1.3-.14 2.53-.77 2.62-2.8a1.52 1.52 0 0 0-.62-1.46l.36-.03c.6-.06 1.22-.2 1.77-.5l-1.46 3.02v-.08c-.45 1.07-1.02 2.13-1.6 3.16l-.88 1.5c-.15.27-.28.4-.42.6l-.6.62c.05-.07.05-.14.42-.5l-2.88 2.77-2.24 2.2-.9.84-.2.2c-.08.07-.13.23-.17.3l-.76 1.46-2.4 4.84.05-.16c-.57 1.3-.84 1.64-1.54 3.08-.05.07-.1.17-.1.15-.63 1.42-2.1 4.02-2.64 5.15l-.1.04-1.42 2.74.55-1.02c-.02.44-1.2 2-2.13 4.06l-2.87 5.76c-.44.95.33-.86-.38.52-.1 0 .3-.66.04-.35l-2.2 3.78-.1.03c-1.12 2.2-2.43 3.94-3.16 5.4-1.26 2.2-1.07 1.34-2.3 3.66l-.62.82c-.6.94-.32.75-1.03 1.77-.01-.1-.9 1.28-.56.64-1.64 2.26-3.12 4.8-5.78 7.33-.45.67-1.86 1.85-2.27 2.28-.05.01-.78.57-1.32.9-.55.34-.87.52-.05-.07.14-.1.4-.27.4-.24l.15-.2-2.46 1.4c-.82.4-1.7.75-2.67 1 .6-.1 1.35-.36.86-.15l-1.84.42.37-.13c-.92.2-1.85.26-2.8.3l.4.05c-1.33.02-1.83-.1-3.26-.14h0c.16-1.03.05-2.68.23-3.1 0 0 .15-2.23-.02-2.74.1.45.18-.78.3-.42-.1-.58-.17-2.3-.01-2.97l.01.13c.22-2.52-.06-4.33.18-6.6-.15.1-.03-1.1-.23-.8-.1-2.35.5-4.27-.04-5.13 0-1.07.17-1.26.22-1.8l.02.26.08-4.07c-.03-.74-.3-.87-.2-2.2.1.43.1-.1.1-.6.01.32.04.42.13-.23-.03-.1-.05-.24-.06-.37.01-.01.02-.03.03-.02-.01-.83-.05-.7-.08-.3-.02-.02-.04.01-.07.13.04-.2.06-.46.08-.72l.04-1.14-.82-.63c-.16-.14-.23-.22-.23-.27l-4.4-2.94-.9-.64c-.01-.1.37.1.8.38l-1.2-.85c.1-.1.73.44 1.1.7-1.28-1.22-3.04-1.98-4.57-3.36l-.4-.17-.1-.1c-.03.05-.44-.16-.7-.33-.16-.27.18-.2-.65-.8-.53-.52-1.65-1.18-2.5-1.73l.01.07c.02.03.02.04 0 .04l.2 2.27 7.3 5.65-.01.35-.03.97v-.04c.1 1.04-.18 2.13-.1 3.13-.01-.04-.06-.06-.05-.3 0 .73 0 1.72-.1 1.77l-.03 5.27-.03-.08c.1.64-.01.82.02 1.53-.01.04-.02.1-.03.08.08.7-.05 2-.02 2.57l-.07.03-.03 1.37.03-.5c.18.18-.15 1.03-.06 2.03-.05.93.32 1.9.2 2.87.07.46-.13-.4-.08.28-.1.02-.05-.32-.13-.15.02.68-.13 1.1-.1 1.95l-.08.03c.1 1.1-.17 2.05-.06 2.78.02 1.13-.25.75-.14 1.92l-.12.45c-.03.5.1.36.04.92-.06-.04-.07.7-.12.37-.14 1.25.06 2.56-.17 4.2.1.36.01 1.2.1 1.47-.06.04-.06 1.67-.15.73-.01-.08 0-.22.02-.2l-.07-.1c-.1.6-.07 1.12-.04 1.67-1.14-5.63-1.13-9.26-2.42-15.27.17.8.02-.35.06-.3-.5-2.92-1.03-6.05-1.32-6.05-.34-2.13-.2-1.75-.13-2.05-.12.03-.48-1.8-.77-3.48l.18.76-.9-4.77-.05.98c-.43-2.54.17-.7-.4-3.1l-.18.07c-.75-3.48-1.03-5.58-1.96-8.93-2.23-6.84-5.58-13.73-10.42-19.4-1.2-1.42-2.53-2.72-3.9-3.94-1.42-1.17-2.86-2.3-4.44-3.2-3.1-1.9-6.5-3.1-9.85-3.76l-.57-.24c-.24-.33-3.8-.05-4.3-.2-.53.03-1.06.05-1.57.1-.43-.03-1.36-.04-.6-.1-1.44.04-1.48.08-2.52.2-.52-.01-1.05 0-1.58.02-1.96.2-3.84.64-5.6 1.37l.42.01c-3.44.78-6.77 1.96-9.14 3.1-6.94 3.26-15.5 5.92-22.6 9.3-.25.07-.83.4-.82.4l-6.64 2.75s-18.23 7.6-16.52 7.67c-.25.27.9.02 4.8-1.28l-.07.06 1.2-.46c.04.08.1.16.13.24l.35.6a19.93 19.93 0 0 0 .73 1.14c-.05.27.76 1.43.93 1.86l-.03-.03c.7 1 1.1 2.23 1.75 3.2-.03-.03-.1-.03-.22-.26.42.73 1 1.73.95 1.83 1 1.76 2.3 4.26 3.06 5.32l-.07-.06c.45.6.47.83.9 1.53.01.05.03.1.02.1.48.65 1.14 2.05 1.5 2.6l-.04.07.78 1.4-.27-.53c.26.1.48 1.12 1.14 2.08.5.96 1.4 1.75 1.85 2.78.33.43-.35-.35.1.32-.07.07-.23-.3-.2-.08.42.67.53 1.18 1.06 2l-.05.07c.73 1.05 1.06 2.15 1.58 2.83.68 1.12.23.88 1 2l.17.5c.26.52.3.3.58.9-.07 0 .35.74.1.44.6 1.33 1.55 2.54 2.32 4.3.3.3.7 1.2.94 1.43-.02.07.92 1.7.3.8-.05-.08-.13-.22-.1-.22l-.13-.08c.4 1.03 1.02 1.72 1.53 2.68-.13-.3-.34-.67-.16-.44l.48.9-.16-.16.7 1.34-.03-.22c.32.67.33.96.82 1.63.23.3-.24-.66.15.01.17.34.2.4.2.5-.07.05-.15.1-.23.15-.07.03-.17.08-.34.16l-.6.3c.01-.06-.5.23-1 .5.4-.23.52-.33-.37.05-.1.1-.28.2-.45.3-.01 0-.05.01-.04-.01-.17.1-.3.17-.4.23-.1.05-.25.13-.46.25l-.1.14c-.06.03-.1.05-.17.08-.2.1-.38.2-.56.28-.04.01-.08.06-.1.04l-.06-.1c-.03-.07-.07-.14-.1-.2-.05-.12-.07-.2-.04-.24l-1.24-2.16-1.2-2a26.65 26.65 0 0 0-.33-.55c-.03-.13-.2-.5-.06-.37-.27-.34-.93-1.42-1.1-1.9l.05.08c-.36-.74-.72-1.36-1.07-1.96.18.12.65 1.1.96 1.6-1.04-2.38-2.73-4.58-4-7.34l-.4-.5-.07-.17c-.04.03-.4-.47-.63-.85l.1.13c-.05-.1-.1-.16-.14-.24-.06-.36.23-.1-.47-1.37-.47-1.1-1.66-2.94-2.46-4.27.38.75.2.54-.01.24-.36-.66-.47-1.1-.8-1.58l.1-.14c.01.33-1.08-1.65-1.27-1.86-.1-.43.64.98.8 1.1l-2.17-3.96c-.77-1.2-.17-.02-.36-.16-.32-.53-.65-1.1-.93-1.7l-.2-.25-.03-.08c-.02.01-.1-.1-.2-.22-.05-.1-.1-.2-.16-.3 0-.14.12-.08-.2-.67-.22-.56-.84-1.47-1.24-2.14.2.38.1.27-.02.13-.18-.33-.22-.55-.4-.8l.07-.08c-.01.17-.55-.82-.65-.92-.04-.22.33.48.42.54l-1.1-1.98c-.43-.65-.05.1-.24-.1a2.72 2.72 0 0 1-.11-.25l-.68-1.1c-.1-.2-.2-.4-.3-.6l.03.17-.57-.9a17.52 17.52 0 0 1-.84-1.68c-2.62-4.12-3.1-4.54-2.93-3.9-1.48-1.72 1.38 4 1.86 4.95a31.55 31.55 0 0 0-1.22.8c-1.82 1.3-3.8 2.8-5.97 5.08-2.03 2.24-3.56 4.95-4.73 7.73-1.2 2.78-2.1 5.63-2.88 8.35-.65 2.62-1.94 7.2-2.6 10.3l-.36 1.18c-.22 1.08-.5 2.33-.78 3.4l-.01-.07-.9 4.2-.01-.07-.4 1.94.04-.34-1.67 8.2.13-.2c-1.2 5.4-1.4 7.42-2.47 12.3v-.07c-.48 3.12-1 5.56-1.5 8.03l-.75 3.8-.2 1.02-.1.5c0 .01 0 .02-.01.03l-.04.08-.12.26a19.46 19.46 0 0 0-.82 2.23c.24-.8-.16.32-.16.25-.98 2.9-1.33 6.18-1.14 6.24-.2 2.2-.2 1.8-.27 2.08.04 0 .05.48.06 1.17l.13 2.46-.07-.78.37 4.9.06-.97c.2 2.6-.14.67.2 3.16l.1-.05c.06.46.13.9.2 1.3l.12.6.05.3c.02.14.07.26.1.4.2.53.92.63 1.34.54a1.55 1.55 0 0 0 .35-.07c.08-.02.16-.05.23-.07.01.16-.01.3.01.5.04.3.1.74.26 1.13s.38.83.85 1.16c.12.06.25.16.4.2.15.03.24.06.37.08.25.03.52.05.82-.01.22-.04.43-.13.63-.24a2.83 2.83 0 0 0 .28-.2c.08-.07.05-.05.08-.08.04-.04.07-.1.1-.15.02.01.06.1.1.13.02.03.06.08.32.27.2.14.47.3.83.34.34.06.67-.07.95-.25.3-.26.4-.4.53-.6.5-.76.76-1.5 1.05-2.27.28-.76.52-1.52.75-2.28l1.65-5.14.28-.88c.04-.12.1-.35.12-.38.06-.03.05.1.07.14a15.87 15.87 0 0 1 .1.8l.12.85c.06.4.17.9.42 1.3.12.2.27.4.5.6.23.2.54.34.85.34.66.05 1.13-.62 1.28-1.04.18-.44.23-.86.3-1.28l.12-1.15a43.51 43.51 0 0 1 .33-2.29l.37-2.3a5.61 5.61 0 0 0 .06-1.23c-.02-.4-.04-.78-.08-1.16-.1-1.54-.44-3.03-.6-4.48l-.02-.08c-.04-.37.05-.97.18-1.45.13-.5.3-1.02.5-1.5.1-.17.2-.33.3-.5.18-.15 1.46-3.36 1.8-3.76l.66-1.4c.22-.38.66-1.2.33-.5.66-1.28.66-1.32 1.1-2.26l.78-1.34 7.55-14.68 6.67-12.3c1.2-1.93 2.9-3.58 4.6-5l-.22-1.12a31.04 31.04 0 0 0-1.95 1.69c-.16.28-.82.84-1.66 1.72s-1.8 2.2-2.52 3.7c-1.5 2.7-2.64 5.7-4.2 8.5-.64 1.4.5-1.26-.5.8-.12.02.44-.98.1-.5-1 2-1.8 3.22-3.02 5.7l-.12.07c-1.55 3.27-3.23 6-4.22 8.2-1.66 3.34-1.34 2.12-3 5.65l-.78 1.3c-.77 1.47-.43 1.12-1.3 2.74-.01-.13-1.1 2.07-.66 1.07-.4.75-.8 1.58-1.1 2.45-.14.44-.27.9-.36 1.36-.08.5-.17.92-.07 1.6v.02c.1.63.17 1.32.3 2 .12.65.2 1.33.3 2.03.07.68.14 1.46.1 2.1-.08.7-.24 1.47-.4 2.26-.04.6-.18 1.6-.3 2.54a28.39 28.39 0 0 0-.14 1.35c-.03.38-.08.67-.1.86-.01.01-.14.38-.26.5-.06.06-.15.1-.24.06-.08-.03-.16-.1-.27-.26-.2-.3-.26-.62-.27-.67.01-.07.02.17.34.62.15.2.2.2.2.22.03-.01.06-.04.08-.06-.07-.03-.05 0-.23-.25-.13-.2-.22-.45-.26-.74l-.08-.52-.1-.72-.23-1.98c-.05-.3-.1-.6-.16-.8s-.15-.33-.22-.4c-.17-.18-.23-.28-.46-.34-.1.01-.1 0-.15.07l-.1.3-.22.57-.44 1.16c.36-.9.83-2.16.52-1.27l-1.1 2.9.2-.66-1.7 4.36.3-.57-.56 1.37c-.18.4-.33.77-.44 1.1l-.85 2.5c-.33 1 .8-1.76.03.25-.2.47-.47 1.02-.8 1.4-.1.12-.17.13-.27.1-.13-.1-.27-.05-.72-.7-.07 0-.13 0-.18-.01 0-1.2 1.5-8.23 1.5-8.23.08-.52-.2-.7-.4-.7-.2-.1-.5.1-.5.3l-1.57 8.63c0 .04.01.07.01.1a1.49 1.49 0 0 0-.18.04c-.05.1-.1.2-.18.27-.08.07-.07.06-.1.1-.05.04-.1.06-.16.1-.1.05-.25.06-.4.06-.13-.01-.4-.06-.4-.08-.1-.04-.18-.14-.27-.25-.17-.25-.3-.6-.37-1-.01-.08-.04-.25-.06-.45a.3.3 0 0 0 .07-.2l.7-7.1c0-.3-.2-.5-.4-.5-.3 0-.5.2-.5.4l-.7 6.06c-.1.06-.24.12-.36.18-.23.1-.58.22-.68.23-.16.03-.15.02-.2.02 0-.03 0-.05.01-.08-.04-.01-.07-.05-.08-.1-.04-.16-.07-.3-.1-.43a10.58 10.58 0 0 1-.14-.69c-.06-.35-.06-.52-.07-.7 0-.34-.03-.66-.25-2.52l.08.32-.24-.97c-.4-3.36-.02-1.85-.37-5.56.07 1.46-.2.7-.12-1.12l.06.46c0-1 0-1.34.07-2 .01.6.04.32.2-1.14l-.02 1a25.75 25.75 0 0 1 .26-2.76c.23-1.05.56-2.4.94-3.56s.8-2.15 1.03-2.52c0 0 .03-.06.08-.17.01-.03.03-.06.05-.1.03-.07.08-.13.1-.2.02-.1.04-.24.07-.38l.32-1.7c.24-1.3.5-2.7.53-3.25-.1.94.4-1.6.34-.86.15-1.2.76-4.76 1.1-6.16l-.04.27 2.68-13.63c-.13.2.42-2.27.2-1.68.88-4.87 2.08-8.77 2.14-10.6.48-2.2.67-2.58.96-3.7l-.1.52 2.05-8.32c.37-1.5.26-1.8 1.07-4.48-.18.9.1-.22.4-1.22-.18.64-.22.84.22-.45.04-.2.1-.48.18-.75.01-.01.03-.06.03-.03.52-1.66.4-1.38.15-.6 0-.04-.03.02-.12.25.6-1.7 1.68-4.74 1.87-4.9 1.96-4.83 4.04-7.98 7.4-10.76.4-.27-.34.4-1.26 1.28.75-.7 1.53-1.37 2.32-2.02.03.08-1.34 1.15-2.03 1.8 1.6-1.36 3.3-2.73 5.2-4 3.2 6.36 5.47 9.78 9.78 17.5 3.84 7.22 4.63 9.26 8.77 16.65l4.24 7.74c.06.1.1.23.18.3l.33-.17 1.96-1.04 2.67-1.43c.5-.34 1.15-.7 1.85-1.1v.03c-.04.18-.08.5-.1.78s-.04.5-.02.5l-1.5 10.06-2.7 19.82h-.03c-.02.12-.04.24-.05.36l.06-.36h.02l-.1.98-.1.6-.02-.33-.36 2.3.12-.3c-.14.8-.28 1.23-.37 1.87-.01 0-.01 0-.02.01-.05.06-.1.26-.14.58l-.02.12c-.01.01-.01.01-.02.05-.02.07-.04.15-.06.23s-.05.17-.07.26c-.04.1-.03.1-.1.33-.03.08-.04.17-.07.27v.07c-.02 0-.02-.01-.1.18-.01.05-.03.12-.04.2l-.01.14v.08l-.06 1 1.14.07c2.43.14 5.74.2 5.74.2 11.06.3 16.76-.1 29.92-.2l26.63.23 17.4-.07c.66-.05 1.45-.08 2.32-.1l3.2-.01h1.8c.04-.01.15.03.1-.05l-.1-.64-.36-2.37c-.14-.9-.3-1.78-.45-2.55l-.06-1.22c-.22-1.06-.45-2.3-.54-3.4l.04.06c-.33-1.6-.54-3.4-.7-4.18l.04.06-.3-1.94.1.33c-.5-2.77-.95-5.65-1.3-8.18l-.1.23c-.23-1.9-.45-3.38-.67-4.7.55.26.9.48 1.78.6.5.06-.85-.45.17-.17l1.45.56 2.84 1 .17-3.34c-.15.15-.13-.3-.14-.77l.13-.05c-.12-1.8.3-.65.2-2.45l-.16-.32c-.2-1.62.28-.86 0-2.67 0 .7-.28.33-.2-.55l.1.22c-.01-.48-.06-.65-.02-.97.04.22.12.2.15-.16.04 0 .1.01.13.01l.02.08-.01-.08c.9.08 1.82.13 2.74.08 2.57-.15 5.15-.77 7.43-2 2.28-1.25 4.1-3.03 5.77-4.82 1.65-1.8 3.1-3.7 4.44-5.56l.3-.28c.22-.07 1.24-2.2 1.52-2.45l.5-.94c.17-.24.52-.76.27-.3.5-.83.5-.86.84-1.5l.6-.86c2.06-3.27 3.6-6.18 5.66-9.7 1.28-2.08 3.05-5.13 4.68-8.3l4.46-8.77c1.65-3.34 3.6-6.86 5.54-10.4l4.24-4.05 2.12-2.08c.17-.17.4-.5.53-.7l.4-.66.67-1.3c.07-.1.16-.3.24-.48s.14-.32.13-.32c1.07-2.08 2.08-4.17 3.1-6.27l1.7-3.63c.37-.32.66-.75.84-1.35a1.15 1.15 0 0 0 .14-.8l.3-.63.5-1.1a3.71 3.71 0 0 0 .63-.85c.26-.43.3-.94.16-1.32-.36-1-1.58-1.75-2.6-2.25l3.94-6.06c.4-.7.42-1.48.08-2.15zm-22.34 24.5c-.03-.02-.03-.05-.03-.07l.06.01-.03.06zm-127.37 96.12c.06 0 .07.01 0 .02v-.02zm82.5 1.06v.04-.04zm.62 4.1l.2 1.3.02.17c0 .05.05.15-.05.12h-.4l-.1.01c-.05 0-.1.01-.15.01l-1.4.01-3.04.05c-.2 0-.4.01-.62.01-.16-.02-.4-.03-.8-.05-.2.03-.5.05-.77.07-.01-.01-.07-.01-.04-.03-1.03.02-1.33.04-1.24.06l-1.45.03c-1.42-.01-2.75.01-2.9-.1l-4.7.08-7.64-.08c-1.76-.08-3.57-.02-5.46.03l-5.3.02c-.2-.01-.37-.01-.56-.02l-.37.04c-.78.04-1.77.04-2.77.04-.16-.06-.48-.1-1.67-.1-1.6-.1-4.52.04-6.7.1l.14-.02a78.57 78.57 0 0 1-2.65.05l-.05-.08c-.04.03-.3.06-.62.08-.4 0-.82-.01-1.2-.01l.08.06c-.15.01-.3.01-.45.01l-.98-.02c.4-.05 1.7-.06 1.9-.12l-6.4.02c-.6.03-.85.06-.92.08-3.33.2-5.32-.16-8.8.06.44-.03-.2-.04-.15-.07-1.62.02-3.35.04-3.38.2-1.18 0-.96-.05-1.1-.12.01.07-1.02.1-1.94.1l.42-.03-2.64.03.52.14c-1.4-.04-.36-.17-1.7-.14l.02.12c-1.94-.02-3.07-.2-4.95-.3-.4 0-.8 0-1.22-.01l.78-5.84 6.9-.06c2.42-.01 4.8.01 7.04.08l.32.1c.14.13 2-.2 2.28-.07l.84-.06c.24.02.74.05.32.08.78.01.8-.02 1.36-.05l.84.08c3.08.07 5.7-.1 8.93-.05 3.9.17 11.2.03 15.43-.06 5.93-.2 12.83.34 18.9.12.2.02.7-.02.7-.04l5.56.02s9.87.03 13.12-.2l.66 4.13zm-1-7.84c.3 1.92.27 2.5.35 3.37h-.04l-.02-.1c.01.04.01.07.02.1-1.13-.12-3.2-.27-6.6-.45l.14-.03c-3.04-.07-4.96-.1-7.05.05-.33-.17-2.5-.02-3.2-.08l.07-.01c-1.86.13-3.82-.12-5.6 0 .07-.01.1-.06.52-.06-1.3.02-3.08.06-3.18-.04-3.1.02-7.45-.03-9.45.13l.14-.03c-1.14.1-1.47.01-2.74.07-.07-.01-.16-.02-.14-.03-1.24.1-3.6.01-4.6.06l-.06-.07-2.46.01.92.02c-.32.18-1.86-.12-3.65 0-1.67-.03-3.4.38-5.13.3-.83.08.73-.14-.5-.07-.04-.1.58-.06.26-.14-1.22.04-2-.1-3.5-.04l-.06-.07c-1.96.13-3.7-.1-5 .03-2.02.06-1.35-.22-3.45-.08l-.82-.1c-.9-.02-.64.12-1.64.07.06-.06-1.26-.05-.68-.1-2.26-.1-4.58.14-7.55-.04-.65.12-2.14.05-2.62.14-.08-.05-3-.01-1.32-.13.14-.01.4-.01.38.01l.2-.07c-.8-.07-1.55-.05-2.3-.02l-1.1.05-.58.02 1.57-7.85.01.26c.9-5.5 1.44-8.95 1.76-12.78.37-.56.7-4.52.97-5.8l.01.13c.17-2.06.57-4.15.93-6.2.94-.5 1.86-1 2.6-1.47l.82-.3c.65-.4 1.42-.87 2.13-1.18l-.03.05c.96-.62 2.13-1.18 2.6-1.5l-.03.05 1.2-.68-.2.16c1.7-1.03 3.5-2.02 5.12-2.86l-.2-.05c3.47-1.72 4.56-2.67 7.7-4.22l-.02.05c1.1-.76 2.12-1.35 3.1-1.9l1.53-3.15a5.04 5.04 0 0 0-.54.4c.5-.43-1.08.44-.7.06-.67.54-2.8 1.88-3.74 2.25l.16-.1c-3.3 1.7-5.46 3.28-8.47 4.74.2.05-1.38.83-.9.8-2.95 1.82-5.72 2.68-6.55 3.77-1.37.77-1.7.77-2.44 1.12l.32-.2-5.27 2.85a6.51 6.51 0 0 0-.43.28l-.47-.85-.9-1.58-1.8-3.16c-1.2-2.1-2.33-4.17-3.3-6.15l-.02-.22c.07-.14-.8-1.05-.77-1.26l-.3-.45c-.05-.15-.2-.44-.03-.22-.24-.45-.26-.45-.47-.75l-.2-.52c-.9-1.78-1.85-3.2-2.83-5.06-1.06-2.3-3.47-6.4-4.86-8.75-2-3.3-3.7-7.46-5.78-10.8-.05-.12-.24-.4-.25-.38l-1.7-3.17-.9-1.6 2.47-.84-.15.1c3.67-1.42 5.97-2.35 8.38-3.62.5.1 3-1.22 3.88-1.5l-.07.06c2.13-1.13 4.63-1.74 6.7-2.82-.07.06-.1.15-.58.36 1.54-.68 3.64-1.63 3.82-1.53 3.7-1.6 8.9-3.7 11.18-4.94l-.14.1c1.28-.73 1.74-.76 3.22-1.48.1-.01.2-.05.2-.03.7-.4 1.77-.86 2.8-1.26 1.04-.4 2.06-.72 2.66-.95l.1.08c1-.33 2-.6 3.02-.87l-1.14.27c.32-.4 2.34-.43 4.54-1 2.1-.32 4.23-1.22 6.48-1.12v.01l.5.04 8.62.9c.8.18 1.63.38 2.47.66 2.06.66 4.22 1.65 6.3 3.24 1.08.45 3.07 2.22 3.77 2.73.01.04.26.28.6.6l1.03 1.1c.63.7.97 1.14-.1.1-.2-.17-.5-.5-.46-.5l-.33-.17c1.92 2.3 3.7 4.03 5.3 6.57-.44-.78-1.13-1.74-.6-1.14.5.8 1.03 1.56 1.48 2.37l-.4-.45c.7 1.2 1.37 2.4 1.98 3.66l-.15-.57c.87 1.86 1 2.58 2.07 4.62.5.92-.6-1.85.28.12 1 2.55 2.26 6.47 3.13 9.86.05-.35.3.55.57 1.5l-.1.14c.54 1.78.54 2.13.54 2.48s.01.68.44 2.48l-.15-.3.44.9c.83 3.26.07 1.82 1.03 5.45-.27-1.45.16-.73.4 1.07l-.2-.44c.2 1 .3 1.3.37 1.98-.16-.58-.22-.28.03 1.17l-.3-.96.67 2.73c.2 2.16.9 5.52.88 6.42 0 0 .64 4.6.98 5.64-.26-.9.1 1.64-.15.93.3 1.17.96 4.68 1.04 6.1l-.06-.26c.66 5.23 1.55 8.9 2.08 13.6.1-.23.4 2.25.5 1.6.87 4.78.9 8.85 1.73 10.52zm4.36-52.08l-.14.58c.04.52.07 1.13-.01 1.65l-.03-.03c.07.78-.01 1.65.02 2.03l-.03-.03-.01.94-.04-.16c.06 1.35.02 2.74-.06 3.97l.15-.1c-.24 2.62.03 3.58-.23 5.95l-.03-.03c.3 3-.4 4.72-.13 7.8-.03-.4-.08.16-.1.13 0 1.42-.03 2.94.26 2.97-.03 1.03-.1.84-.23.97.12 0 .15.9.13 1.7l-.04-.37-.03 2.32.23-.4c0 .03 0 .06.01.1-.1 1-.28.23-.26 1.36l.2-.01c-.04.8-.14 1.46-.25 2.1l-.04.23-.04.1-.08.17a1.21 1.21 0 0 1-.14.22l-.07-.04-.33-.1-1.02-.32-2.5-.76c-.18-.05-.36-.1-.54-.16l.03-.24c.2-4.34.05-9.02.4-13.05l.1-.18c.13-.07-.15-1.12-.03-1.27l-.04-.47c.03-.13.06-.4.08-.17.02-.43 0-.45-.03-.76l.1-.46c.12-1.7.01-3.18.1-4.98.23-2.16.22-6.25.2-8.6-.08-3.3.55-7.14.45-10.53.02-.1-.01-.4-.02-.4l.07-1.67c.01.01.03.02.04.03l2.24 1.66 1.14.82.55.4.04.02.01.05-.03 2.05c.14 1.23-.14 3.47 0 4.98zm1.25 24.76l-.01-.05c.2.04.37.07.01.05zm49.64-65.86c-1.4-.05-2.8-.7-3.47-1.44-.23-.28-.46-.55-.4-.96-.03-.3.15-.52.3-.84.75-.48 2.06-.52 2.77-.4.2.08.4.06.72.13 1.53.24 3.17.47 3.07 1.5-.15 1.4-.68 2.17-3 2zm1.86-4.2c-1.5-.04-3.08-.58-3.88-1.5-.23-.28-.47-.65-.4-1.06-.04-.4.14-.62.4-.85.37-.34 1.05-.5 1.65-.58.5-.05 1-.01 1.5.04.2.08.4.06.72.13.15.03.33.05.5.08a7.36 7.36 0 0 0 1.13.25 15.93 15.93 0 0 0 .96.15c.57.17 1.07.4 1.34.72.12.2.14.4.16.6-.08 1-.66 2.17-4.1 2.03zm4.76-2.76c-.05-.2-.13-.37-.23-.54h.06c.15-.02.3-.04.45-.07-.1.2-.2.4-.28.6zm1.9-2.9l-.03.1c-.42 1.15-1.26 1.62-2.93 1.56-1.04-.56-2.6-.7-3.7-.8-.06.01-.1 0-.15 0-.97-.44-1.76-1.03-2.14-1.67-.24-.38-.27-.68-.2-.98.55-1.47 3.4-1.16 4.33-.86.2.08.3.07.52.15a34.25 34.25 0 0 1 1.28.34c.13.06.25.13.4.2a5.55 5.55 0 0 0 1.31.43c.58.28 1.06.6 1.25 1a.59.59 0 0 1 .07.56zm1.53-4.55c.13.3.05.5-.03.7-.6 1.26-1.4 1.65-2.78 1.3-.5-.22-1-.4-1.5-.56-1.32-.66-2.38-1.64-2.76-2.62-.13-.3-.18-.8-.02-1.1.17-.32.46-.45.74-.58l.4-.04c.9-.1 2.04.3 2.58.63.2.08.42.16.74.32.86.42 2.34 1.17 2.63 1.94zm1.4-8.7l-3.96 6.1a1.06 1.06 0 0 1-.24-.12c-.76-.52-2.42-1.05-3.7-.72-.6.16-.95.5-1.2 1.03-.26.43-.3 1.04-.02 1.7.22.5.58 1.03 1.04 1.5-1.6-.32-4.22-.25-4.83 1.6-.15.52-.08 1.1.28 1.68.25.42.64.82 1.12 1.18-.87.03-1.86.25-2.52.78-.47.35-.7.88-.75 1.5-.05.5.23 1.18.68 1.64.27.3.62.57 1.02.8-.77-.01-1.7.1-2.38.65-.37.34-.6.87-.66 1.38s.12 1.1.57 1.55c.15.18.34.34.55.5a1.25 1.25 0 0 1-.43.12c-.1.01-.23.01-.35 0L314.1 102c0-.04.01-.1.04-.12-.04-.14.1.15.1-.03.1.03.03.1.1.1.01-.17.18-.2.2-.42l.07.02c-.03-.3.26-.42.2-.63.04-.27.27-.08.23-.4l.13-.06c.06-.1-.08-.13.01-.23.06.03.1-.14.13-.04.2-.24.08-.62.38-.92-.1-.12.05-.28-.01-.38.05.01.15-.37.18-.12 0 .02-.01.05-.03.04l.06.05c.2-.16.07-.4.17-.6-.05.05-.07.14-.1.06l.08-.2.04.06.14-.27h-.1c.1-.13.23-.13.2-.33-.03-.1-.15.1-.1-.06.1-.15.33-.52.32-.43-.04-.03-.06-.04-.06-.06V97l.05.05c0-.12.05.17.23-.04l-.01-.1c.13-.26.2.06.32-.26-.1.07-.13-.1 0-.16l.01.08c.05-.05.06-.1.1-.1-.02.06.04.1.12.03l-.01.12.1-.23c.18-.02.33-.25.44-.2 0 0 .3-.16.3-.3-.01.1.15 0 .16.1.03-.12.2-.33.33-.33v.02c.36-.18.44-.52.77-.68-.07-.05.1-.15-.01-.2.2-.32.64-.3.48-.64.1-.13.2-.1.27-.14v.04c.2-.25.24-.32.4-.5.05-.1-.06-.22.1-.36.01.1.05.02.1-.04-.02.05-.01.07.08.02-.01-.02 0-.05 0-.07.07-.1.04-.1 0-.06-.01-.01-.02-.01-.04-.01.15-.05.22-.3.3-.25.2-.34.25-.63.37-.94.07-.01.07.08.05.18l.1-.2c.07.04-.03.14-.05.2.26-.18.14-.56.4-.8l-.03-.1.02-.01c-.03-.01-.05-.1-.04-.14.08-.02.15.06.2-.1.1-.1.1-.35.1-.52-.04.08-.07.04-.08 0 .02-.08.1-.1.1-.17h.1c-.1.01-.03-.23-.07-.27.08-.03.03.14.07.17.07-.32.03-.16.1-.48-.04-.2-.1.02-.16-.08 0-.16-.03-.3.03-.48l-.1.05c-.04-.28-.05-.44.01-.65-.13-.26-.28-.4-.4-.48l6.76-9.6c.2-.33.47-.5.77-.52a.88.88 0 0 1 .28.01l4.88.5c.94.1 1.35 1.06.92 1.8z"/></svg>