<svg xmlns="http://www.w3.org/2000/svg" viewBox="0 0 480 480" xmlns:v="https://vecta.io/nano"><path d="M133.1 407.6c-1.8-4.7 1.8-9.3 6.8-14.5 2.9-3 5.7-8.3 9.4-13.9 14.7-22.1 21-38 29.6-51.8 5.6-9 26.2 10.8 12.3 31.2-9.9 14.4-29 37.2-30.7 41.3-.8 1 10.9 11.3 12.6 13 5.6 2.6 12 3.6 12 6.5s-1.7 3.2-1.7 3.2l-19.8-.1-30.5-14.9zm188.5 13.7c-3 0-4.9-5.6-4.2-10.3.5-3.5-2.1-4.3-3.6-8.6-2.1-5.3-12.9-20.6-25.7-48.1-8.3-19.2 25.7-28.7 30.7-7.5 6.2 25.8 16.7 47.8 19.6 51.7 1.9 2.5 9.7 4.1 22.9 6.4 6.4.6 11.7.8 14.3 2.7.9.7 1.6 3.5 1.6 3.5l-55.6 10.2z" fill="#e79a7a"/><linearGradient id="A" gradientUnits="userSpaceOnUse" x1="154.8984" y1="388.5123" x2="162.6538" y2="378.1419"><stop offset="0" stop-color="#cc7a5e" stop-opacity="0"/><stop offset=".9241" stop-color="#aa5f4b"/></linearGradient><path d="M154.7 391.4c7.8 7.4 8 4.9 8 4.9l11.7-15.3-16.4-15.2-10.8 16.9c-.1.3 1 2.6 7.5 8.7z" fill="url(#A)"/><path d="M137.6 397.8c-.2.1-.3 0-.4-.1-.2-.1-.2-.4-.1-.6l19-28.9c.1-.2.4-.2.6-.1s.2.4.1.6L145 386.5l-7.4 11.3z" fill="#cc7a5e"/><g fill="#ad5c49"><path d="M163.9 387.5l1.3-.2-.8-1.1zm-.6 6.2l.2.9.9-1zm-12.2-6l.6.4.3-.8zm6.5-6l-.2.7.7-.1zm2.5 7.6l-.6-.2.2.8zm-1.4 3.9l.1.9.9-.4zm-1-2.5l1.2-.2-.8-1.2zm-2.8-5.6l.3 1 .8-.8z"/><path d="M160.2 391.9l-.4-1.4-1.2 1zm-3.8-1.9l.9-.6-1-.7zm-.9-9l.9.9.4-1.4zm4.6 14.8l1.1-.6-1.2-.9zm3.9-6.4l.8.9.6-1.3zm-1.4 6.6l.9-1.1-2-.2zm-10-15.2l.7.9.4-1.1zm12.6 5.6l-.5 2.2 2.6-.4zm-7.1-5.9l-.2 3 3-.7zm2.2 4.6l1.8-.4-1-1.6zm6.1 3.3l.2.8.7-.5zm-12-5.3l.8.7.3-1.1zm.5-2l-.3.7.9.1zm9.8 4.8l-2.3-1.8-.5 3.2zm-2 3l.1.9.9-.4zm-10-11.6l-.6 1.9 2.3-.2zm8.9 8.9l-2.1-.3 1 2.4zm-2.5.8l-.1-.8-.8.5zm-4 5.4l-.1-.8-.7.6zm-2.6-9.6l-.1-.8-.7.6zm9.4 10.7l.8-.1-.6-.7zm-5.5-6l.6 1.2.9-1.1zm7.1 4.6l-.4-1.5-1.3 1.2zm-2.8 1.5l1-.6-1.1-.9z"/><path d="M155.4 384.6l.9.8.5-1.2zm2.7 10.1l.5.7.7-.7zm7.9-3.3l1.2-1.4-2.1-.3zm-2.7.2l1.1-.6-1.2-.8z"/><path d="M155 377.9l-.4 2.6 2.7-.7zm-2.8-2.3l-.3 1.5 1.6-.4zm12.7 17.3l.8-1.1-1.7-.3zm-8.2-8.8l1.6 1.7 1-2.3zm5.6 4l-.6.9 1.3.3z"/></g><path d="M147.5 371.1l26.3 21.6c.8.7 2.1.6 2.8-.3l50.7-62.8c9.1-10.5 14-20.1 16.9-25.9s19.2-65.2 22-75.9c2.5-9.5 4.1-19.9 4.1-19.9l-66.5-.1-7 54.9c-2.2 13.4-2.8 21-10.7 37.7-9.6 19.2-33.1 55.8-39.4 66.1-.9 1.5-.5 3.5.8 4.6z" fill="#dd97b3"/><linearGradient id="B" gradientUnits="userSpaceOnUse" x1="193.4681" y1="326.1686" x2="225.6873" y2="353.3051"><stop offset="0" stop-color="#d581aa" stop-opacity="0"/><stop offset=".9975" stop-color="#d581aa"/></linearGradient><path d="M172.8 391.9c1.3 1.3 2.4 2 3.6.6 6.9-8 27.9-34.5 34.7-43.4 9.9-12.9 26.1-30 31.1-41.5 3.7-8.5 4.3-10.9 3.5-16.6-.9-5.7-1.5-5.3-1.5-5.3l-15.3-7.2-73.7 98.7 17.6 14.7z" fill="url(#B)"/><linearGradient id="C" gradientUnits="userSpaceOnUse" x1="324.8999" y1="399.9863" x2="317.9724" y2="384.4644"><stop offset="0" stop-color="#cc7a5e" stop-opacity="0"/><stop offset=".9241" stop-color="#aa5f4b"/></linearGradient><path d="M326 402.3c10.3-3.2 10.3-7.6 10.3-7.6l-7.6-16.8-23.4 9 9.5 17.7c0 .1 2.6.4 11.2-2.3z" fill="url(#C)"/><path d="M317 408.4c0 .2-.1.4-.3.4-.2.1-.5.1-.5-.1l-9.8-18.8c-.1-.2.1-.4.1-.5.2-.1.5-.1.5.1l10 18.9z" fill="#cc7a5e"/><g fill="#ad5c49"><path d="M327 384.9l.5-1.1-1.5.3zm5.4 3.5l.9.1-.6-1.1zm-10.5 8.2l.6-.3-.6-.6zm13.6.2l.6-.3-.6-.6zm-16.3-8.5l.4.4.4-.6zm7.9.9l-.4.5.7.1zm2.9 2.9l.9.3v-1.1zm-2.6-.1l.3-1.2-1.4.3zm-6.3.3h1.1l-.5-1.1zm8.5-2.1l-1.6-.2.5 1.5zm-3.5 2.6v-1l-1.1.6zm-8.6-2.9l1.3-.5-1-.8zm15.5 2l-.2-1.2-1.2.8zm-4.2-6.2l1.2-.4-.9-1zm5.1 4.6l-.5-1.4-1.2 1.7zm-17.7 2.2l1.1-.4-.8-.8z"/><path d="M326.6 383.4l1.8 1.3.7-2.4zm-8.3 4l2.6 1.4.7-3zm5.1-.1l.4-1.8-1.9.2zm5.5-4.2l.9.1-.3-.8zm-9.8 8.6l.8-.4-.7-.6zm-8.8.3l1-.4-.9-.6zm7.2-1.4l.5.5.4-.7zm8.4-6.9l-2.6 1.2 2.7 1.9zm1.9 3l.9.3v-1zm-14.7 4.2l1.5 1.3.8-2.2zm11.8-4.4l-1.1 1.8 2.4.2zm-.3 2.7l-.7-.3.1.9zm3.3 5.8l-.8-.2.2.9zm5.4.5l-.8-.2.1.9zm-1.2 2l-.4-.6-.5.7zm5.2.8l-.5-.6-.4.8zm-19.2-4.9l-.8-.3.1.9zm13.6-4l.2-.8-.9.2zm-7.8 2.4h1.3l-.5-1.2zm7.1-4.5l-1.4-.2.4 1.5zm.3 3.1l-.1-1.1-1.3.6zm-10.5 1l1.2-.4-.9-.9zm10.3 1.8l.9-.1-.3-.8zm-1.4 1.9l.9-.1-.3-.9zm4.2-.7l.9-.1-.3-1zm1.3.2l.9-.1-.3-.9zm-3.6-9.8l-.7-1.6-1.3 1.6zm-1 2.4l-.1-1.1-1.2.7zm-16 1.8l2.2 1.5.5-2.7zm-3.3 1.6l1.2 1 .3-1.7zm21.1-4.1l-.6-1.3-1.2 1.2zm2.8 6.4l-.5-1.3-1.2 1.3z"/><path d="M320.9 390.1l2.2-.8-1.7-1.8zm5.9-3.5l.7 1 .8-1.1z"/></g><path d="M334.2 379.4L300 393.5c-1.8.5-4.2-1.8-4.8-3.5-7.1-13.3-31.2-58-42.7-76.4-5-9.5-13.1-21.6-18.3-30.3-8.3-13.2-21.8-37.9-29.3-52.9-5.5-11-5.5-22.5-5.5-22.5l65.2.2 33.6 75.7c9.6 21.5 34.2 79 37.8 92.4.3 1.4-.4 2.8-1.8 3.2z" fill="#eeb3ca"/><path d="M310.9 388.9c-.3-.7-34.3-67.2-44.7-87.7-22.5-43.6-45.4-92.7-45.6-93.2l1.1-.1c.2.5 22.9 49.3 45.4 92.9l44.7 87.7-.9.4z" fill="#f9dcf1"/><path d="M153.7 376.2l-.8-.6 48.1-72.7c13.4-20.1 14.6-49.6 14.6-49.9h1c0 .3-1.1 30.1-14.7 50.5l-48.2 72.7z" fill="#eabed9"/><linearGradient id="D" gradientUnits="userSpaceOnUse" x1="280.539" y1="330.3745" x2="246.9914" y2="358.836"><stop offset="0" stop-color="#d581aa" stop-opacity="0"/><stop offset=".9975" stop-color="#d581aa"/></linearGradient><path d="M329.2 381.7L300.8 393c-1.9.6-3.8.2-4.8-2.3-3.1-6.7-11.1-18.2-17.3-31.7-8.3-16.2-23.5-40.1-29.5-50.7-3.6-8.1-17.5-29.1-17.5-29.1l10.9-7.1s52.7 22.4 63.6 46.9c10.9 24.1 23 62.7 23 62.7z" fill="url(#D)"/><linearGradient id="E" gradientUnits="userSpaceOnUse" x1="238.7628" y1="230.2491" x2="237.4992" y2="202.7384"><stop offset="0" stop-color="#d581aa" stop-opacity="0"/><stop offset=".9975" stop-color="#d581aa"/></linearGradient><path d="M209.9 240.5s11.8-2.2 23.7-3c19.9-1.3 43.8-.6 43.8-.6l-12.8-29.1h-65.2s.5 8.7 2.9 15.5c1.3 4.3 7.6 17.2 7.6 17.2z" fill="url(#E)"/><linearGradient id="F" gradientUnits="userSpaceOnUse" x1="206.4341" y1="282.7134" x2="237.6222" y2="259.1806"><stop offset="0" stop-color="#d581aa" stop-opacity="0"/><stop offset=".9975" stop-color="#d581aa"/></linearGradient><path d="M202 223.8s12 25.3 21.7 42.9l21.4 34.7s-1.2 3.5-4.3 8.6c-2.6 4.3-5.1 9.7-12.8 18.7-10.4 3.6-26.1-43.7-26.1-43.7l-6.2-15.2 3.5-23.8c1.8-12.6 2.8-22.2 2.8-22.2z" fill="url(#F)"/><g fill="#efbfd8"><path d="M163.5 361.9c.2.1.5.2.7-.1l.1-.1-.9-.7c-.2.4-.2.7.1.9zm4.9-3l1.1-.6-.9-.8-.2 1.4z"/><path d="M162.9 361.6l.5.2-.4.3v-.2l-.8.6.2.1-.2.1 1.4.8.1-1.4.8.4v.1h.2l.5-.2-.5-.4v-.4l-.2.1-.3-1.1-1.3 1zm-13.5 3.1l-.3-.6-1.8 2.4 3.4.5-1.1-1.8h1.3l-1.3-1.4-.2.9zm3.7 3.1l-.4-1.9-1.4 1 1.8.9zm8.8-18.7l2.1-1.2-2.1-.8v2zm-1.6 9.9l.1.3.2-.5.1-.1.2-.5-1-.1.1.3-.4-.2.2-.5-.7.1.1.2-.7-.3v1.9l1.8-.6zm5.5-13.2l-.7-.7-.1 1.4-.7.5 2.2 1.1-.5-1.7.4-.1-.3-.3 1.9-1-2.1-.8-.1 1.6zm-1.8 3.8l-1.6 1.2 2.2 1.1-.6-2.3zm13.6-16.8l1.6-1.6-1.9-.9.3 2.5zm4.7-11.2l.4 2.2 1.5-1.6-1.9-.6zm-7.1 22.2l1.5-1.6-1.9-.7.4 2.3zm-2.8 1.5l-1.9-.7.5 2.3.5-.6h.6l-.2-.3.5-.7zm-15.6 11.4l.3 1.9 1.4-1.4-1.7-.5zm5.7-2.7l1.1.6-.2.1.6.4v-.1l.5.2-.6-2.3-1.4 1.1zm9.1 11.5l.7-.9-1.1-.1.4 1zm-12.8-4.3l-.9-1-.5 1.1 1.4-.1zm14.4-22.1l-.4 1.6 1.4-.6-1-1zm4.4-12.7l-.4 1.6 1.4-.6-1-1zm-4.1 23.7l.9-1.1-1.3-.2.4 1.3zm-.7-15.8l-.3.9 1.4-.6-.7-.6.4-.9-1.6.1.8 1.1zm-1-6v-.6l-.2.3-.5-.7-1.1 2.1 2.4-.3-.6-.8z"/><path d="M170.1 336.7l.8 1.5-.9-.1.4 1.1.6-.7.1.2 1.1-2.2-2.1.2zm19.1-9.1l-.9.8 1.3.5-.4-1.3zm-15.1-2.8l-.2-.6.1-.1-.1-.2-.2-.7.3.2-.1.2.4.1.9.7.1-.4h1.2v.2l.2-.1h.1l-.1-.1.4-.4v1.2l2.8-2-2.5-1.3-1.6-2.4-1.8 3.1.6-.2-.1.3-.4.6-.6.3v-.2l-1.6 2.4 1.5.1.1.4-.7-.1-.1-.2-.2.1-.7-.1.1.5-.3-.1.3.4-.4.6h.7l.1.1-.7.5 1.1.7.1.3.1-.2.7.5-.2-1.2.4-.6v.1l.1 2.6 1.9-1.1-1.6-1.2.7-.8.4.1-.1-.4 1-1.4-2.1-.2zm3.1-3.3l-.1 1.5-.8-.1-.1-.1.3-.2-.5-.2-.3-.6 1.5-.3zm-1.4.3l-.3.3-.6-.2.9-.1zm-2.2 30l-.1.8.6-.2-.5-.6zm-5.8-5v-.2l-.8.6.3.2-.1.1.8.5-.1.1.8.4v-.6l.2-1.2-1.1.1zm-6.4 13.7l-.6-.7-.1.8.7-.1zm-5.8-4l1.2-.1-.4-.7.4-.5.8.9.3-1.5.1-.8-.7.1.2-.6 1.4-.1-1.6-2.5-1.9 2.9.8-.1.8.9.4.4h-.2l-1.6-.5v.4l-.4-.8-2 3 2.4-.4zm38.3-11.2l-.4-.7-.5.7h.9zm-7.5 3.8l.1-.8-.6.2.5.6zm-7.9-13.3l-.2 1.6 1.3-.4-1.1-1.2zm.5-8.1l-1.1.6 1.2.5-.1-1.1zm-9.3 6.5l.5 1.2.8-1-1.3-.2zm6.2 2.4l-1.8-1.6-.1 1.9-.7-.5v2.5l-.1.1 2.1 1.3-.3-2.1.4-.1-1-.8 1.5-.7zm11.6-12.5v1.1l-.1.8 1.3-.3-.6-.5.5-.1-1.1-1zm-2.5 1.8v.1-.4l-1 .7.7.1v.6l.6-.3v.6l1-.3-.6-.6.4-.1-1.1-.4zm6.1-15.6v-.2l-.6.5.2.1-.6.6 2.3.2-.6-1.9-.7.7z"/><path d="M191.2 305.3l-.6-1.9-1.6 1.7h.9l-.1.8 1-.3-.7-.5 1.1.2zM159.7 356l.1 1.2 1.1-.6-1.2-.6zm8.3-5.2l1.1.4-.4-1.3-.7.9zm-2 1.2l.9-.4-.7-.7v-.2l-.1.1-.2-.2h.4l-.4-.8-.3.4-.2.1.7-1.4-2.2.1.8 1.7.1.3.1-.2.7.1-.2.2.3.1-.1.4-.2-.1.6 1.6 1-.9-1-.2zm-.4-1.5h0v.2-.2zm-8.9 12v1.2l1.1-.6-1.1-.6zm8.5-5.5l1.2.3-.4-1.3-.8 1zm4.7-15.8l-2.3-1.3.4-.5-2.2-.4-.6-1.6 1.6.2-.1.8 1.2-.4-.4-.4h.6l1 .1-.6-1.3 1-.7-.6-.4.5-.1-1.6-2.6-1.8 3 1.5-.1.1.8-.6.7-1-1.3-1 1.6v-.2l-1.3 2.2 1.2.2.6 2-2.1-2 .1 1.5-.3.2-.3-.6v.9l-.3.1-.4.1-1 1.8 2.9.1.3.1-.3.3 1.3.6-.4-1.3-.3.3-.2-.3.1-.2h-.1l-.1-.1.1-.1h-.1l-.4-.8.1-.2 1.9.2.2.6 1.3-1.8-.2 2.8 2.6-2.5zm-14.4 22.9l-1.5-1-.2 2.3 1.7-1.3z"/><path d="M150.1 368.5l-1.5-1-.2 2.3 1.7-1.3zm4-8.6l.3-.1 1.2.2-.3-.5.3-.1.9 1.5-.8.2.5.5-1 .1.4.8.2-.3.6.2-.1-1 .2-.5.1.1 1-2.1h-2l-.9-.6.3.1-1.1-1.6-.4.7-.4.6-.4-.8-1.8 3 3.4-.5-.2.1zm-1.1-1.6h.4l-.1.4-.1.1-.2-.5zm-3.5 13.2l2.6 2.4.2-3.4-2.8 1zm19.6-18.2l.3-.3-.7.1.1-.3-.7.1.5.5.1-.2.1.3-.7.4 1.3.5-.3-1.1zm-3.4 8l1.2-.1-.8-.9-.4 1zm14.7-41.9l1.2 1.1.5-1.3-1.7.2zm1.1-2.9l1.1.9.1.4h-.6l1.2 2 1-2.3-.7.1.2-.2h-.1l-.5-.4-.1.3h-.1l.4-1.2-1.9.4zm-5.4 2.5h1.7l.1.4.4-.4h.2l-.1-.2.2-.1v.2l.6-.9.2-.1 1.4-1.8-1.7-.3 1.5-.1-.2-.2.7-.2-.6-.7.2-.4 2.4 1.5.4-3-1.6.6.5-1.3-1.3.4-.1-.1.9-.3-.6-.7 2-.1-.1-.3.2.1v.1l1.4-1.3-.3-.1.9-.4-.3-.3.1-.1.7-.1-.2-.3.6-.6-1.4-.4.2-.2 1-.5.1.4-.1.1.4.6.4-.6-.3.1.2-.3-.6-.1 1-.5.5.7 1.1.1-.6-1.1-1 .3-2.5-2.9-1.2 2.2 1.1 1.8-1.5-.9-1.1 1.9 1.2 1.4-.2-.5-.4.1.4.6-.3.2-.6-.8-1 1.8-.3.8-.1-.2-.8 1.3 1.4-.1.2.2-.9.4-.6-.4.3.8-.1-.1-.1.3-.8-.8-.9 1.6v.4l-.1.3.1-.1-.6.8.8.3-.7.2-.3-.3-1.5 2.2zm7.6-9.7v.4l-.3-.2.3-.2zm3.1 13.3l1.3-.5-1.2-1.1-.1 1.6zm-22.2 44.5l1.2-.2-.8-.9-.4 1.1zm-.4-11.4l1.3.8-.1-1.5-1.2.7zm1.8 7.7l.2 1.2 1-.9-1.2-.3zm7.6-8.4l-.6 1.1 1.2-.1-.6-1zm5-1.3l.3-1-1 .2.7.8zM177 359l.9-.3-.8-.6-.1.9zm7.3-3.3v-.9l-.7.6.7.3zm14.4-74.6h-.2l.2-.2-2.1-.9.6 2.3.7-.8.8-.4zm1.8 9.8l-1.3 1.1 1.4.5-.1-1.6zm-7.7 2.1l-1.3 1.1 1.4.5-.1-1.6zm1 3.4l-1.3 1.1 1.4.5-.1-1.6zm5.9-7.7l-.1-1.6-1.3 1.1 1.4.5zm-3.5-12.3l.1.2-.7.1.5.7.3-.5.7-1.4-.6.1-.4-.4v-.1l-.1.1-.2-.2.3-.2-.6-.2v.2l-.2-.9-.6 2.6.7-.2.8.1zm.1-.5h0zm.6-.8l1.1.4-.1-1.4-1 1zm1.4-14.5l1.1.4v-1.4l-1.1 1-.8-1-.2 1.4 1.2-.4h-.2zm1.9.4l-1.2 1 1.1.4.1-1.4zm3.1 6l-.6-.6-.2.7.8-.1zm-2.1-5.3l.8-.1-.6-.5-.2.6zm2.3-2.3h-.7l.3.8.4-.8zm-3.1 5.3l.4-.7h-.7l.3.7zm-1.5 15.7l1.5-1-1.7-.5.2 1.5zm-1.6-2.4l.2-1-.9.5.7.5zm2.2-4.3l1-.1-.7-.7-.3.8zm11.8 5.1l-.4.6.6.1-.2-.7zm-7.9 3.4l.2-.5-.6.2.4.3zm5.1.4l.5.4v-.6l-.5.2zm-10.8-17.3l.1-.6 1-.7-1.4-.4.1.9-.7.4.9.4z"/><path d="M199.7 258.6l-.2.8.9-.1-.7-.7zm-2.4 30.7l-.5 1h.3l-.2 2.1.4-.3-.2.3h.1l.1.3-.2-.1.4 1.4.2-.1.5.1-.1-.4.8-.6-.8-.2.1-.2-.6-.2h.5l-.3-.7 1-.6-1.5-.7h.4l-.4-1.1zm7.7 2.8l.9-.4-1-.4.1.8zm-3.1 2.5l.3-.6h-.8l.5.6zm-.4-4.6v.5l.5-.3-.5-.2zm.3-7.1l.1-.8-.6.2.5.6zm1.8 2.9h.7l-.3-.4-.4.4zm-5.3-.9l.2.6.4-.4-.6-.2zm6.6-7.2l-.6.2.5.5.1-.7zm-1.1.7l.4-.4-.6-.2.2.6zm-4.8-6l.2-.7-.6.2.4.5zm1.9 2.9h.6l-.3-.4-.3.4zm-1-9.8l-.5-.4-.2 1 .8-.1.1.1v-.1l.3-.1-.2-.2.1-.3-.4.1zm1.4 2.9l-.3.4h.5l-.2-.4zm-3.8 0l-.5-.2.1.5.4-.3zm13.3 21l-.6.1.5.4.1-.5z"/><path d="M207.3 284.1l-.2.5h.6l-.4-.5zm-10.9 17.6l.4-.4-.6-.1.2.5zm12.1-7.5l.4-.5h-.6l.2.5zm-20.7 16.2l-1.3-1v1.7l1.3-.7zm11.7-32.5l-1.2.2.5.9.7-1.1zm3.8-3.6l-.3-.9-.6.6.9.3zm.9 6.6l-.1.9.9-.5-.8-.4zm-9.5.9l.5-.6 1.6-.4-.8-.7.2.1v-.5l1.2.4v-.1l.8-.6-.9-.4v-.7l-1.1 1v-.4l.3-.2-.5-.1.6-.5-1.6-.6.2 1h-.1l.2 1.1-.2.2-.7-.6-.6 2.6.5-.1.4.1zm5.8 2.1l-.2-.5-.4 1h.4v.3l.4-.2h.1v-.1l.3-.2-.6-.3zm-.3-2.5l-1 .6 1.2.3-.2-.9zm.7-9.2l-.3-1-.6.6.9.4zm.9 6.9l-.1 1 .9-.5-.8-.5zm-1-2l-.5-1.1-.5 1 1 .1zm-2.2-6.8l.1.9.8-.5-.9-.4zm7.8 3.5l-.8.3.7.7.1-1zm-3.8-2l-.6.3.6.5v-.8z"/><path d="M198.4 271.1l-.1-1-.7.7.8.3zm-.3-6.1v.7l.8-.3-.8-.4zm5.2 5.2l.2-.8-.7.2.5.6zm-1.9-3l-.2-.5.4-.3-.8-.2v.3l-.4.4 1 .3zm.4 7.3l-.1 1 .9-.5-.8-.5zm-1.5 3.4l1.5.5-.1-1.9-1.4 1.4-.2-.6-.6.6 1 .2-.2-.2zm-8.1 21.1l-.9-1-.3 1.4 1.2-.4zm-.1 1.6l-.6-.8-.2 1 .8-.2zm1.1-7.7v.7l.8-.3-.8-.4zm5 4.2l.5.6.2-.7-.7.1zm1.1-2.3l.5.6.2-.7-.7.1zm-5.9.1l.5.6.2-.7-.7.1zm.4 3.8l.5.6.2-.7-.7.1zm3.6-3.5l-.4.7.7-.1-.3-.6zm4.5.2l.3-.8-1 .1.7.7zm-5.6-.4h.7l-.3-.8-.4.8zm.4 20.8l.6-.7-.9-.3.3 1zm-4.3-2.4v-.9l-.7.4.7.5zm-4.4 5.5l.2-2.3-1.7 1.2 1.5 1.1zm9.9-8.4l.7-.1-.6-.6-.1.7zm-6.9 14.2l.6-.7-.9-.3.3 1zm-4.1-3.3l-.7.5.7.4v-.9zm5.3-2.1l.7-.1-.6-.6-.1.7zm-2.3 1.3l.3.9.6-.7-.9-.2zm-4.6-1.9l.6.3.1-.8-.7.5zm6.1-2.6l.7-.1-.6-.6-.1.7zm-2-5.3l-.1-.3-.8.6.3.1-.2.1.5.2-.1.7-.2-.1v-.1h-.2l-1.1.4.9.8.2-.9.5.9.7-.9h-.1l.4-.1-.3-.4.3.2.1-1.6-.8.4zm3.3-.4l.7-.1-.6-.6-.1.7zm-7.8 3.7l-1.3-1.2v1.7l1.3-.5zm-4 2.9l-1.3-1.2v1.7l1.3-.5zm.2.1l-.1 1 .8-.4-.7-.6zm12.3-11.4l-.1-.7-.8.6.9.1z"/><path d="M190.4 299.9l-.1-.7-.8.6.9.1zm-1.4 7.9l-.6-.6.1.8.5-.2zm.4-6.7l-.8-.8-.6 2.2.4-.1 1.2-.5-.1-.1.6-.3-.2-.2.2-.6-.7.4zm-1.8-.1l-.7-.5.1.8.6-.3zm.8 3.4l.5-.5-.8-.4.3.9zm5.8 3.5l-.2-1.2-1.1.7 1.3.5zm-2.8-5.2l-.2-1.2-1.1.7 1.3.5zm.1 6.1v-.2l.4.2-.1-.7-.4.1v-.1l-.2.2-.5-1.1-.5 1.2 1-.1-.2.2.5.3zm-3.1 5.7l-1.6-.5-.1-.4-.3.3-.2-1.2-1.1.7 1.3.5-.1.1-.8.6 1 .3-.8.2.8.9.2-.5-.1.4.4-.3v.1l.2-.2.6-.3-.1-.2.7-.5zm-1.8 0v-.2.2zm.3.1l-.3-.2h.2l.1.2zm2.5 1l.3-.6-.6.2.3.4zm7.4-6.7l-.2-1-1 .5 1.2.5zm-3.9-4.9l.5-.8-1 .2.5.6zm-3.8-6l.5-.8-1 .2.5.6zm-14.3 53l.3.9.7-.6-1-.3zm-4.6-1.8l.6.4v-.9l-.6.5zm7-2.7l-.7-.6-.1.7.8-.1zm-8.5 13.2l.3.9.7-.6-1-.3zm-4.4-1.9l.6.4v-.9l-.6.5zm6.3-3.1l-.1.7.7-.1-.6-.6zm-1.6 2.2l-.8-.3.3.9.5-.6zm1.5-4.8l-.6-.6-.1.7.7-.1zm-7-2.8l-.6-.6.1.8.5-.2zm3.6-1.2v-.1l-.3.1-1.1.4.9.8.2-.9.4.9.7-.9-.8-.3zm-6.2-1.6v-.1l1.7-.2-.1-.2.7.3-.4-1.3-.5.5-.3-.4h.8v-.2l.1-.1-.3-.2-.3-.6-.2.1-.6-.5v.6l-.4-.6-1.8 3 1.3-.2.3.1zm-1.4 6.3v.9l-.8-.1.5 1.3.7-1.2h-.1l.6-.3-.9-.6zm12.3-11.8l-.8-.1-.1-.2v.1l-.3-.1.3.6-.2.8 1.5-.6-.1-.1.2.1-.1-.7v-.1l-.4.3zm-4.9 2.3v.9l.6-.3-.6-.6zm-8.9 8.3h.2l-.3.2 1.8.9-.2-.5 1.4-1.4-2-.7.1.7-.9-.8 2.8-.3-.6-1.1.1-.8h-.1l.1-.1-.4.1-.5-1-1.9 2.9.4-.1v2zm-6.4 11.7h0l.7-.1-.1-.2.7-.4-.1-.2.5.2-.4-1.9-1 .8-.1-.2v.2l-.1.1-.7-1.2-1.8 2.9h2.4zm9.6-10.4v.9l.6-.3-.1-.2.1-.2.6.2-.1-1.4-.8.6-.3-.1.1.1-.4.1.6.2v.1h-.3zm1.1-6.1l.5.5.4-.8-.9.3zm10.5-2.7l-.1-1.2-1.2.8 1.3.4z"/><path d="M168.9 346.7l.4.2-.1.4.8-.3-.5-.4v-.4l-.6.5zm.3-2l.7.2v-.2l.4.2-.1-.7-.4.1v-.1l-.6.5zm-1.8 6.4l.4.4.3-.6-.7.2zm7.7-7l-1 .5 1 .4v-.9zm-3.6-4l.5-.8-.9.1.4.7zm-9.2 23.2h-.2l-.1-.1-1.1.4.9.8.2-.9.4.9.7-.9-.8-.2zm7.8 3.9l.6-.7-.9-.3.3 1zm-4.2-2.3l.1-.8-.7.4.6.4zm5.7-3.5l-.1.7.7-.1-.4.8 1.1-.1-.5-.9-.2.3-.6-.7zm-13.6 2.7l.1.8.6-.3-.7-.5zm5.6-7.7l-.2 1 1.1-.3-.9-.7zm-9.2 9.2l.9.3-.2.2.3.1v.9l1.3-.6-.7-.7v-.2l-.1.1-.3-.2h.4l-.4-.8-.3.4-.9.5zm1-.2v.2-.2zm-.9 3.8l.8-.4-.7-.7-.1 1.1zm1.7-.1l.6-.3-.6-.6v.9zm1.7-6.4l.4-.7-.7.1.3.6zm4.9 4.2l.3-.6-.6.2.3.4zm7.4-7.6l-1 .5 1 .4v-.9zm-4-4.5l.4.7.5-.8-.9.1zm26.2-55.5l.3.6-.3.1.9.7.1-.9-.4.1.4-.6h-1zm-4.7-.8l.3.6-.3.1.9.7.1-.9-.4.1.4-.6h-1zm-8.3 25.8l.6.5-.1.1 1.1.9.3-1h-.1l.3-1.2-2.1.7zm1.5 6.6l.4-2.1-2 1 1.6 1.1zm1.3-4l-.1-.4-1.1 1 .5.2-.2.2 2.3 1v-2.7l-1.4.7zm-3 4.8l-.7 1.3 1-.2v2.5l1.9-1.1-1.9-1.5.5-.1-.8-.9zm-2.7 4.2l1.4-.6-1-.9-.4 1.5zm-8.1-3.1l1 .3-.2-1 1.1-.1.3.9.9-1.3.8.6.4-1.8 1 1v-.1l.1.1-.4-.1 1.1 2.2 1.1-2.2h-.6l.1-.1.7-.4-1-.8.1 1-.9-.1.4-.9-1.4.1v-.1l-.2.1-3-.7.6 2.1-1-1.5-1.1 2.1.9-.1-.8.8zm8.6-5.2l.4-.9-1 .3.6.6zm21.5-59.4l-.5-2.5-1.6 2 2.1.5zm-17.4 52.3l-2-1.5.1 1.5-.9-.1.5 1.2.6-.9.1.8 1.6-1zm4.1-16.8l2.3 1.2v-2.2l.2-.1-.3-.3.2-.5-.4.1-1.1-1.1-1 2.7 1.1-.4-1 .6zm1 17.1l-1.8-1.2.1 2.2 1.7-1zm-4.2 12.8l.6.7.4-.9-1 .2zm11.3-10.2l-.4-1.4-1.3.9 1.7.5zm-12.5 34.4l.6-.7-.9-.3.3 1zm-4.4-2.3l-.1-.8-.6.4.7.4zm5.5-3.1l.7-.1-.6-.6-.1.7zm-6.9 14.2l.6-.7-.9-.3.3 1zm-4.2-3.1l-.7.4.6.4.1-.8zm5.4-2.2l.7-.1-.6-.6-.1.7zm-2.4 1.2l.3.9.6-.6-.9-.3zm-4.5-1.7l.7.3v-.7l-.7.4zm6.3-3.3l-.1.7.7-.1-.6-.6zm-3.8-.8l-.2.1-.3-.3.1.4-.1.1-1.1.2.8.9.2-.5-.1.4 1.3-.6-.8-.7h.2zm-4.7 3.1l.9.2-.1-1.2-.7.4-.3-.3.1.4-.2.1.2.1v.1l.1.2zm6.3-2.2l.3-.7-.6.2.3.5zm7.4-6.8l-.2-1-1 .5 1.2.5zm-5.9 2.3l.6-.3-.7-.6.1.9zm2-7.1l.5-.8-1 .2.5.6zm.3 19.3l-.4-1.4-1.4 1 1.8.4zm-8.6 4.1l1.1-.5-1.1-.9v1.4zm16.2-23.7l.9-1.1-1.4-.4.5 1.5zm-6.6-3.4v-1.2l-1 .8 1 .4zm8.1-4.8l1.3-.3-1.1-.9-.2 1.2zm6.9-3.5l.9-1.1-1.4-.4.5 1.5zm-6.8-3.3v-1.2l-1 .8 1 .4zm8.2-5l1.3-.3-1.1-.9-.2 1.2zm-11-14.4l1.1.4-.2-1.9-.9.6.1-.3-.8.1.4.4-.2.1-.2-.3-.6 1.1 1.5.1-.2-.3zm-16.5 42l-.6 1.1 1.5.1-.9-1.2zm12.8-26.1l1 .6-.2-1.3-.8.7zm.1 10.6l1.1-.5-.8-.8-.3 1.3zm20.8-33.4l-.2-1.2-1 .8 1.2.4zm8.5-17l1-.5-1-.4v.9zm-12.6 17.4l-.3-1.2-1 .9 1.3.3zm3.6-5l.9-.5-.9-.7v1.2zm6.9-4.5l.9-.6-1.2-.3.3.9zm-1.2 3.9l.3-1.1-1.3.2 1 .9zm-9.9-.8l.9-.5-.9-.7v1.2zm-1.3-5.9l-1-.3.5 1.1.5-.8zm-2.3-.7l-1-.3.5 1.1.5-.8zm3 5.2l.6-2.2-1.9.4 1.3 1.8zm-3.7.1l.6-2.2-1.9.4 1.3 1.8zm15.2-5.7l-.8.6.6.4.2-1z"/><path d="M194.8 295.2l1.8-1.3-1.8-1v2.3zm6-8.7l-.1-1.9-1.4 1.3 1.5.6zm-3.1 14.6l-.2-1.2-1.1.7 1.3.5zm6.6-15.6l-1.1.1.6.8.5-.9zm-.1 9l1-.5-1.1-.4.1.9zm-5.6-4.5l1.3-1-1.5-.4.2 1.4zm4-3h0v-.4l-.8.3.5.5-.5.7 1.4-.1-.6-1zm-6.4-3.2l.3 1.1 1.5-1-1.1-.2.1-.6-.7.4-.2.1.1.2zm-3.7 3.2l-2 3.5h1.7l-.1.6-.1.1-.1.3.5-.1 1.1.4v-.7h.1l-.1-.1v-.7l1.2-.3.3.3-.8.6.5.2.8.6v-.3l.4.2-.1-1.5.2-.3h-.2v-.1l-.1.1-.4-.4 1.1.1-.4-1.1 1.7-.1-1.3-2.6-.6 1.4v-.1l-1.2 1.7-.8-.8.5-.5h.1l.4-.3.4.2-.1-1.3.1-.1h-.1v-.1l1.6-.3-1.8-1.6.1-.1v.1l1-.9.1-.2.3-.3h-.1l.2-.4-.9.1-1.3-.4.5 1.8-.5-.2v.1l-1-.9-.9 3.7 1.8-.3v.1l-.7.5-1-.4v.8zm3.2 3.1h0zm-2.6.4l-.1.1-.1-.1h.2zm8.7 1.5l-.4.5-.1-.2-.6.8 1.1-.1-.2-.3h.6l-.4-.7zm2.7-2.8l-1.2 1.5 1.9.1-.7-1.6zm2.8 1.6h1.6l-.7-1.2-.9 1.2zm-21.2 10.1l2-.7-1-1.9-1 2.6zm3-7.1l2.3.1-1.3-2.6-1 2.5zm-1.1 2.9l2.3.1-1.3-2.6-1 2.5zm15-1.2l-.8-.4-.2-.4-.2.2-.5.6h.7l.1.6.9-.6zm-1.1-9.8l.7-.5-.6-.2v-.1l-.2.1-.1-.1v.1l-.9.4.9.7.2-.4zm-4.3-17.1l-1.1.3.9.8.2-1.1zm.7 6.6l.5 1.3-.3.3.9.3-.3-.8.6-.6-1.4-.5zm-2-2.2l-.3-.3v.1l-.3-.1.2.6-.1.6.3-.1.2.6 1-1-.3-.1 1-.2-1.3-.9.3-.4.5.2-.2-1.4.6-.4-1.4-.4.1.9-.9.7.6.3h-.6l.5.9v-.1l.1.5zm2.4.6l.8-.8-1.2-.4.4 1.2zm2.7 6.4v-1.3l-1.1 1 1.1.3z"/></g><g fill="#ce7aa0"><path d="M239.2 212.7l.2 1.4-1.5-.4zm2.2-3.5l.2 1.5-1.6-.4zm-5.8.5h-.8l.3-.9zm5.4 5.5l-1.5 1-.3-2zm4.4-5.6l-1.5.9-.3-1.9zm3.6-.6l-1.3 1-.3-2zm-8 0l-1.4 1-.4-2zm-.6 2.3l-1.5 1-.3-2zm3.1-.2l-1.5.9-.3-1.9zm-7.7 0l-1.5 1-.3-1.9zm2-.4l-1.5 1-.3-1.9zm18.6 2.5l-1.5.9-.3-1.9zm-6.3 1l-.5-1.7 2 .3zm2.8-1.2l-.4-1.7 1.9.3zm-7.3.6l.3 1.5-1.6-.5zm-8.1-.1l.3 1.5-1.6-.5zm18 1.8l.2 1.5-1.6-.4zm-7.7-2.5l.2 1-1.1-.2zm-6.7 0h.9l-.4.9zm4.6 7.2l.2-.9.8.6zm-2.2 3.4l-1 .2.2-1.1zm0-6.7v.8l-.8-.4zm-7 4.5l.8.3-.6.7zm18.7 5.6l-.9.3.2-1.2zm.1-6.6v.8l-.8-.4zm-7 4.5l.7.2-.5.7zm20.7.6l-.9.4v-1.1zm-1.6-6.5l.2.8-.9-.2zm-5.8 6.2h.9l-.4.9zm1.4-1.5l-1 .2.2-1.1zm.1-6.7l-.1.9-.8-.5zm-7.1 4.5l.8.2-.6.8z"/><path d="M265.6 215.5l-.3 1-.8-.8zm-5.6-3.6l.7.5-.7.5zm.1 8.5l.6-.6.3.9zm-4.8-4.6v1.9l-1.9-.9zm-4.2 3.5l.8.2-.6.7zm6.3-2.6l-.5-.9h1.1zm-4.3-.1l-.8-.7 1-.4zm5.5-3.7l-.7.4-.2-.9z"/><path d="M250.8 209.6l.3.8-1-.1zm4.5 7.7l-1.4.2.5-1.5zm1.3-8.8l-.2 1.1-1-.7zm-10.2 4.7l1.1.5-1 .9zm12.9 4.9l-1.1-.6 1.1-.9zm5.4-6.3l-.7.8-.5-1.1zm-10.3-1.5l.6.9-1.2.2zm-7.1 6.8l-.8-.7 1.1-.5z"/><path d="M252.7 213.3l-.7.5-.1-1zm-7.7-3.2l.3.8-1-.1zm2.4-1l.2 1.4-1.6-.4zm1.6 1.6l-.7 2.2-1.9-1.7zm-2.8 1.3l-1.9 1.2-.4-2.6zm9.6-.8l-2 1.2-.3-2.6zm4.9.1l-1.8 1.2-.4-2.5zm.9 1.2l-.8-2.2 2.6.2z"/><path d="M259.7 214.7l.4-1.6 1.5 1.2zm4.9.8l.1-1.7 1.7.8zm-9.1-2.1l.5-1.7 1.5 1.3zm6.8.4v-1.7l1.8.8zm0-4.1l-2 1.1-.3-2.5zm-11.3.7l.2 1.4-1.6-.4zm.6-1.9l.2 1.5-1.6-.5zm-11.2 10l-1 .2.3-1.1zm-2.2-1.5l-.3-.7.8-.1zm2.7 3.4v.8l-.9-.4zm11.9-10.4h-.8l.3-.9zm-7.9 3.5l-.2.8-.8-.6zm12.1-4.8l-1.5 1-.2-1.9z"/><path d="M252.2 208l3.4-.1-1.4 3.2zm3.5-.2h3.3l-1.3 3.3zm-7.8.1h3.4l-1.4 3.2zm12.7-.1l3.2.1-1.2 3.2zm6.9 12l1.4-1.7 1.1 2.2zm-23.5-12l3.3.1-1.3 3.2zm-3.4 0h3.3l-1.6 3.4zm-4 .1l3.3.1-1.6 3.1z"/><path d="M263.1 209.4l-1.5 1-.3-1.9zm-3.5-1.3l.4 1.8-1.9-.5zm3.9 2.2l1.7.2-.9 1.7zm2 1.1l1.2 2.4-2.4.2zm2.2 4.5l1 2.1-2.2.1zm-4.7-2.2l.5 2.5-2.4-.5zm-3.5-2.3l.5 3.2-2.9-.6zm11.8 11.9l.7 1.5h-1.4zm-2.5-2l.6 1.2-1.3.1zm-5.2-2.6l.3 1.2-1.2-.2zm-8.2-6.1l.5 2.3-2.2-.5zm6.5 3.6l-.7 2.1-1.5-1.4z"/><path d="M265.8 216.3l.9 1.8-1.9.2zm-6.2 2.5l-.9-.4.9-.8zm4.3-5l-.5.6-.4-.8zm-8.3-1.2l.5.7-.9.1zm-4.7 4.9l-.7-.5.9-.4zm-2.2 2l-1.1-.8 1.4-.8z"/><path d="M253.3 218.2l-.6-.5.8-.4zm-2.1-1l-.6-.6.8-.4zm6 1.3l.3.6h-.8zm-9.1 4.3l-.9-.8 1.1-.6z"/><path d="M253.9 218.1l-.8.6-.2-1.1zm-9-3.1l.4.9h-1.1zm-26.9-2.4l.2 1.5-1.6-.5zm2.2-3.4l.3 1.5-1.7-.5zm-.4 6l-1.5 1-.3-2zm4.4-5.6l-1.5.9-.3-1.9zm4-.7l-1.4.9-.3-1.9zm-8.4.1l-1.4 1-.4-2zm-.6 2.2l-1.5 1-.3-1.9zm3.1-.2l-1.4 1-.4-1.9zm-5.8-.3l-1.3.9-.4-1.9zm19.1 2.3l-1.5.9-.3-1.9zm-6.2.9l-.5-1.7 2 .3zm2.7-1.1l-.4-1.7 1.9.3zm-7.2.5l.3 1.5-1.6-.5zm-8.7.2l.3 1.5-1.5-.5zm10.4-.7l.3 1-1.2-.2zm-6.7 0h.9l-.4.9zm4.6 7.1l.3-.8.7.6zm-2.2 3.5l-1 .2.2-1.2zm0-6.7v.8l-.8-.4zm-7 4.5l.7.2-.5.8zm19.3 5.3l-1 .3.2-1.2zm0-6.7v.9l-.8-.4zm-7.1 4.6l.8.2-.6.7zm7.1-8.9v1.9l-1.9-.9z"/><path d="M230.4 218.9l.8.3-.6.7zm3.8-2.5l-.7-.7 1-.4zm5.4-3.8l-.7.5-.2-1zm-7.7-3.2l.3.8-1-.1zm4.6 7.7l-1.4.2.5-1.5zm1.2-8.8l-.2 1.1-1-.7zm-10.3 4.8l1.1.5-1 .8zm11.9 3.4l-.9-.9 1.3-.5z"/><path d="M246.1 211.7l-.8.7-.2-1.2zm-9.6-3.9l.4 1-1.2-.1zm-10.4 9.3l-.7-.7 1-.5zm5.4-3.9l-.7.5-.1-.9zm-7.7-3.2l.3.8h-1zm2.9-1.3l.2 1.5-1.6-.4zm1.4 1.9l-.7 2.2-1.9-1.7zm-3 1.4l-2 1.2-.4-2.6zm11.8-1l-2 1.2-.3-2.6zm-6.7-.8l.2 1.5-1.6-.4zm.5-1.8l.2 1.4-1.6-.4zm-11.5 10.1l-1 .2.3-1.1zM217 217l-.4-.8h.9zm2.7 3.3v.9l-.9-.5zm12.3-10.5l-.9.1.4-.9zm-8.3 3.7l-.2.8-.8-.6z"/><path d="M236 209.1l-1.5.9-.3-1.9z"/><path d="M231.2 207.9l3.3-.1-1.4 3.4zm-4.2 0l3.3-.1-1.4 3.4zm-3.9.1l3.3-.1-1.2 3.3zm-3.6-.2l3.3.1-1.6 3.3zm-4.1 0l3.3.1-1.5 3.3zm14.8 9.4l-.7-.5.9-.5zm-2.3 2l-1-.8 1.3-.8zm4.7-1.3l-.6-.5.9-.4z"/><path d="M230.5 216.8l-.6-.5.8-.4zm-3.2 5.7l-.8-.8 1-.6zm5.9-4.7l-.8.5-.2-1zm-9-3.1l.4.9h-1.1zm-13.9-1.7l.2 1.5-1.6-.5zm2.3-3.3l.2 1.4-1.6-.5zm-5.9.3h-.9l.4-.9zm5.4 5.6l-1.5 1-.3-2zm.1-6.2l-1.5 1-.3-2zm-.7 2.2l-1.4 1-.4-1.9zm3.7-.4l-1.5 1-.3-2zm-8.4.2l-1.4 1-.3-2zm2.1-.3l-1.5.9-.3-1.9zm-.3 2.8l.2 1.4-1.6-.4zm10.8-.8l.2 1-1.2-.2zm-6.7-.2l.9.1-.4.9z"/><path d="M217.1 220.1l.3-.8.7.7zm-2.2 3.5l-1 .1.3-1.1zm.2-6.8v.9l-.9-.4zm-7.2 4.5l.8.2-.6.7zm3.5-2.4l-1 .2.3-1.1zm-2.1-1.5l-.5-.8h1zm3.1 3.1v.9l-.9-.5zm-.6-12.5l3.3-.1-1.4 3.4zm-3.8-.2l3.3.1-1.6 3.3zm-1.4 5.5l-1.5.9-.3-2zm-6.5.9l-.2-1.8 1.8.6zm2.7-.7l-.5-1.7 2 .3zm1.5.3l-.1 1.8-1.8-.9zm-1.6 5.2l.8.2-.6.8zm3.5-1l-.8-.7 1.1-.4zm5.5-3.7l-.7.5-.1-1z"/><path d="M204.1 211l.2.8-.9-.1zm2.4 5.1l-.9-.9 1.3-.5zm10.1-3.5l-.8.6-.2-1.2zm-8.9-4l.4 1-1.2-.1zm59.2 5.6l.6 1.4h-1.7zm-64.4.5l-.6 1.7-1.5-1.3zm5.5-3.4l-2 1.2-.3-2.6zm-6.3-1l.2 1.4-1.6-.4zm.5-1.9l.3 1.5-1.7-.5z"/><path d="M203.2 210.1h-.9l.4-.9zm3.9-.7l-1.5.9-.3-1.9z"/><path d="M202.9 207.8h3.2l-1.3 3.4zm-3.5 0h3.2l-1.4 3.2zm3.3 9.5l-.7-.5.9-.4zm.6 5l-1.2-.9 1.5-.8zm-1.9-3.4l-.7-.5.9-.4zm-9.1 133.2l-1.1.5.8.8zm3.9-2.9l.1 1.9 1.4-.8zm-5.9 22.7l1 1.8 1.1-1.3zm2.1-3.5l1 2 1.1-1.5zm11.4-15.3l.9 2 1.3-1.4z"/><path d="M203.8 354.5l.9 1.6.9-1.3zm-20.9 24.7l.2 2.2 1.6-.9zm.6-10.6l.1 2.2 1.7-.8zm9.7-6.2l.2 2.1 1.6-.8z"/><path d="M195.3 362.8l1.9 1 .2-1.8zm3.8-9.5l2 1 .1-1.8zm-7.8 11.9l1.9 1 .2-1.8zm17.6-24.2l2.1 1v-1.8zm-13.7 18l.2 2.3 1.6-1zm11.5-8.4l.2 1.8 1.4-.8zm7.9-9.9l.2 1.8 1.4-.9zm-2.6 1.4l2.4.3-.6-2.1zm-1.7 4.8l2.3.4-.6-2.1zm.5-3.9l1.5 1.8 1-1.9zm-11 16.4l-1.6 1.3 1.7.9zm-19.1 15.9l-1.7 1.3 1.7.9zm.6 8.4l-1.7 1.3 1.7 1zm-6.5-.1l-1.7 1.2 1.7 1zm9.4-18.2l-1.6 1.3 1.7.8zm4.2-2.5l-1.5 1.3 1.7 1z"/><path d="M177.8 388l-1.6 1.1 1.7 1.1zm25.3-31.5l-1.3 1.1 1.4.8zm-.6-2.6l-1.4 1.2 1.5.5zm6.9-15.6l.5.9.6-.8zm-9.8 20.8l.1 1.8 1.4-.8zm-4.2-3l.3 2.1 1.6-.8zm-6.2-9.7l1 .2-.2-.9zm9.6 12.2l-1.3-.5v1.2zm1.5-1.7l-.8.9 1.1.4zm.9-5.7l.6 1 .7-.9zm-15.3 17.3l-1.3.4.8 1zm-5.4 12.3l-1.3.3.9 1zm7.9-13.6l-1.3.3.8 1.1zm7-2.9l.1 1.2 1-.5zm-2.1 2l.2 1.3.8-.6zm-7.6-5.7l1.2.3-.3-1.1zm1.6 10.3l1.1.3-.2-1.2zm-1.2 4.5l-1-1.3-.6 1.1zm-1.5 2.7l-.9-1.2-.6 1.2zm-9.3 14.9l-.2-1.3-.5 1.2z"/><path d="M189.4 376.2l-2.3-.3.8 2zm-2.2 2.7l-2.3-.2.8 2zm.2-8.5l-1.2 1.9 2 .2zm-3.8 4.2l-1.3 1.8 2.1.3zm11.3-14.8l-1.2 1.9 2 .2zm8.1-8l-1.2 1.9 1.9.2zm5.5-8.8l-1.3 1.9 2.1.2zm-39 34.8l.3 1.2.9-.7zm8.3 5.5l-.8-1.1-.5 1zm-.7 8.1l.7-1-1.1-.2zm4.9-8.7l.7-1.1-1.1-.2zm9-25.2h.8l-.2-.8zm-4.3.6l.1-.7-.7.1zm5 4.4l-.8-.4v.7zm11.8-10.9l.9-.1-.2-.7zm-4.3.5l.2-.7-.7.1zm5.1 4.5l-.8-.5v.7zm4.7-10.7l.7.1-.3-.7zm-3.7.7l.2-.6h-.5zm4.2 3.5l-.6-.3-.1.5zm-32 27.8l-.8-.1.3.8zm-.1-13.2l-.3.7.8-.1zm2.7 7.9l.3-1.5-1.2.2zm-.1 6.9l-1.1-.6v1zm8-5.9l-.8.9.9.4zm-14.4 14.9l-.6.8.8.2zm-.1-8l.2-1.1-1 .2zm10.7-6.9l.3-2.1-1.8.4zm36.2-51.2l.6-2h-1.8zm2-21.5l1.5-1.5-1.7-.8zm-2.2-8.1l1.5-1.4-1.7-.8zm-49.3 89.6l.2-1.1h-1z"/><path d="M173.6 381.2l.2-1.3-1 .3zm24.6-19.2l-.4 1.5 1.4-.2zm.5-6.8l1 .7.2-1.1zm-8.2 5.4l.8-.8-1-.4zm3.4-1.4l-.2-1.4-1 .6zm2.5 6.7l-1.2-.2.4 1.1zm5-8.6l-.4 1.2h1.1z"/><path d="M201.6 356.4l-.4 1.3 1.4-.1zm.6-6.9l1.1.7.2-1.2zm-8.3 5.7l.8-.9-1.1-.4zm18.4-16l-1.4.6 1 .9zm6-3.4l.2 1.3.9-.6zm-9.7-3.5l1.2.2-.3-1zm-6.2 15.6l-1.2.4.8.8zm4.8-3l.2 1 .7-.5z"/><path d="M199.3 342.1l.9.2-.2-.9zm8.3 6.4l-.5 1.4 1.3-.2zm.5-7l1.1.8.1-1.2zm-8.4 5.8l.9-.9-1-.4zm15.8-7.7l1.6 2.4 1.7-2.2zm-4 4.9l1.6 2.4 1.8-2.3zm7.3-9.1l1.3 2.6 1.6-1.9z"/><path d="M220 334l1.4 2.6 1.6-2.1zm-3.4 4l1.6 2.5 2.3-2.8zm4.7-6l1.6 2.4 1.8-2.2zm3.8-3.9l1.2 2.6 1.7-1.9z"/><path d="M226.8 326.2l1.2 2.6 1.7-2zm2-2.6l1.4 2.5 1.6-2zm-5.6 7.1l1.1 2.2 2.1-2.1zm-9.7 11.5l1.4 2.5 2.3-2.7zm21.1-41.4l2 2 1.2-3zm5.6 5.3l1.6 2 1.5-3zm-48.7 60.7l-2.9 1.4 2.2 1.8zm21.8-33.3l-2.9 1.4 2.2 1.8zM207 340l-1.9.9 1.4 1.2zm-1.2 9.3l-1.8 1 1.4 1.1zm.6-2.7l-1.9.9 1.5 1.1zm1.9 6.3l-3.2-.1 1.2 2.6zm-5 5.9l-3.3-.1 1.2 2.7zm2.3-2.6l-3.2-.1 1.2 2.6zm-4.5 5.6l-3.3-.1 1.1 2.6z"/><path d="M199 364.3h-3.3l1.2 2.6zm-2.1 2.8l-3.3-.1 1.1 2.6zm-4.6.8l-2.2 2.3 2.8.9zm-5.6 7.8l-2.1 2.4 2.7.8zm-3 3.7l-2.2 2.4 2.7.9zm7.5-5.6l-3.1-.1 1.1 2.6zm19.4-23.7l-3.3-.1 1.1 2.7zm-31.3 33l-2.9 1.4 2.3 1.8zm13.1-26.4l-1.2-.5v1.1zm5.8 1.2l-.6.8.9.3zm-4-7.8l.6.9.5-.9zm24.6-31.5l.1 1.8 1.4-.7zm-9.7 19.4h.9l-.3-.8zm-4.3.6l.2-.8-.6.1zm5 4.4l-.7-.5v.8zm4.9-10.4h.8l-.3-.6zm-3.6.7l.2-.6h-.6zm4.2 3.5l-.6-.4-.1.6zm-2.1-11.4l-.7 1.5 1.3-.1zm1.4-6.6l.9.7.3-1zm-9.1 4.7l1-.8-1-.5zm2.5 10.8l-1.2.4.8.8zm4.8-3l.1 1 .8-.5zm-7.9-2.8l.9.2-.2-.9zm7.8 6.1l-.6 1.3h1.3zm1.3-6.9l1.1.8.2-1.1zm-8.9 4.8l.9-.8-.9-.5zm-4.4 9.1l-1.2-.6-.1 1.2zm5.8 1.3l-.6.8.9.2zm-4.1-7.9l.7.8.5-.7zm38.3-25.1l1.2-1.7-2.4-.3zm.2-4.2l1.2-1.7-2.3-.4zm-.3-2.3l-.8-1.9-1.6 1.7zm0 6.7l-2.1-.4.6 2.3zM206 234.9l-1.5-.4.2 1.4zm3.9 10.9l-1.3.9 1.2.7zm-.7-2.5l-1.5 1.1 1.4.8zm-1.1-2.5l-1.6 1.1 1.5.8zm2.1 7l-1.5 1.1 1.4.8zm-3.9-12.4l-1.3 2.2 2.2.2zm-3.9 15.8l-.9.2.5.6zm3.8-1.9v.8l.6-.3zm-5.6-2.6l.7.3-.1-.7zm2.5 14l-1 .2.6.7zm4.4-2.2v.9l.7-.3zm-6.5-2.9l.8.2-.1-.8zm3.2 1.7l-1 .3.6.7zm4.4-2.1v.9l.7-.4z"/><path d="M202.1 252.2l.9.3-.2-.8zm4.2-5.6v1.6l1.3-.6zm4.2 2.5v1.9l1.5-.7zm-7.4-2.8l.8.2-.1-.7zm5 4.9l-.5-.9-.6.7zm.2-12.1l-1.2 1.9 2 .2zm-4.7-6.4l.4 1.2.9-.7zm4.6 6.3l-.7-1.2-.7 1.1zm-2.3-1.1l-.7.4.6.4zm-1.2 3.1l-.7.2.5.5zm4.7 4.7l2.2-.3-1-1.7zm6.6 7.8l-1.4-2.3-1.4 2zm.3 3.5l-2.7.2 1.2 2.1zm-.5-3.5l-2.7.2 1.2 2.1zm-2.9-4.8l-.6 2.2 2-.3zm-1.5-2.9l-.6 1.9 1.7-.3z"/><path d="M216.1 254.1l-.7 2 1.8-.1zm-7.8-2.3l-.8-.6-.2.9zm4.2 2.4l-.6.5.6.4zm-1.3-7l.3.8.6-.6zm-5.5-2.3l-.6-.5-.2.6zm-1.7-1.1l-1.1-.8-.2 1.1zm2 3.1l-.6-.5-.1.6zm-1.1 4.5l.3.6.4-.4zm24.3 34.3l-1.4 1 1.4.8zm-1-4.3l-1.5 1 1.4.8zm-1.6 7.2l.3 1.5 1.1-.8zm-8.4 2.7l-1 .3.6.7zm4.3-2.2l.1.8.7-.3zm-6.5-2.8l.8.2-.1-.7zm8 14.9l-1 .2.6.7zm4.3-2.3v.9l.7-.4z"/><path d="M221.7 296.1l.9.2-.2-.7zm3.3 1.7l-1 .2.6.7zm4.3-2.3v.9l.7-.3zm-6.6-2.8l.9.2-.2-.7zm2.4-6l.1 1.9 1.5-.8zm-3.6-.3l.8.2-.1-.7zm7.1 5.1l-.5-.9-.5.8zm-1.7-2.8l-1.4.3.7 1z"/><path d="M232.9 286.5l-.1 1.1 1-.3zm-8.2-4.8l1.1.4-.1-1.1zm4.5 10l-1-.8-.3 1.1zm5.4 2.8l-.9.6.8.5z"/><path d="M232.6 285.8l.5 1 .6-.6zm-9.7-4.5l-.7-.6-.3.9zm4.4 2.2l-.7.6.6.3zm-1.6-6.9l.4.8.5-.6zm2.2.1l-1 1 1.2.5zm2.9 4.1l.3 1.5 1.1-.8zm.4 1.7l-.9.1.4.7zm-3-3l-.8.3.6.5z"/><path d="M233.8 283.5l-2.3 1.7 2.2 1.2zm2.1 7.7l-1.4 1.1 1.4.7zm-2.2-2.4l.4 1.7 1.3-1zm2.7 5.3l.4 1.7 1.3-1zm-8-1.9l-.9-.7-.2 1zm4.3 2.2l-.8.5.7.4zm-1.6-7l.3.8.6-.5zm-6.8-2.7l-.6-.5-.2.7z"/><path d="M222.4 283.5l-1.2-.8-.3 1.3zm2.4 3.5l-.7-.5-.2.7zm0-2.1l-.7-.6-.2.7zm3.2 6.5l-1.4 1.1 1.4.7z"/><path d="M225.5 291.8l.3.7.4-.5zm-6.2-7.4l-1-.7-.2 1.1zm5 2.2l-.8.6.8.4zm-2.2-7.7l.4.9.5-.7zm4.1 33.3l1 1.2.6-1.3zm-6.2 6.2l-.7.8.8.3zm2.8-3.9l.4.7.5-.6zm-7.1.5l.9-.2-.6-.6z"/><path d="M229.2 303.5v1.9l1.5-.7zm.2 10.4l-.9-.6-.1.8zm4.1-12l-1-.7-.3 1zm5.1 2.6l-.8.7.8.4zm-1.8-8.3l.4 1 .6-.7zm-10.2 15.9l-1.1.9 1 .6zm4.2-4.7l.5 1.1.8-.8zm-9.4-.5l1.1-.1-.6-.9z"/><path d="M226.8 309l-1.1.9 1.1.6zm4.3-4.8l.4 1.2.8-.8zm-9.5-.4l1.1-.1-.6-.9zm7.5 8.5l-1.1.8 1.1.7zm7.8-4.2l-1.9.3 1 1.5zm2.1-6.2l-1.9.3.9 1.4zm-4.1 1.8l-1.9.3 1 1.4zm-1.9 5.4l-1.9.3 1 1.4zm-2.7-3.2l-1.9.3 1 1.4zm.8 5.4l-1.6 1.1 1.5.8zm-.1 4.7l-1.6 1.2 1.6.9zm2.3-2.5l-1.5 1.2 1.5.9zm3.9-8.3l-2 .3 1 1.5zm3 3.4l-1.9.3.9 1.4zm-1-4l-.1 1.2 1-.3zm-2 1.2l-.1 1.2.9-.4zm-6.2-5.9l1.1.4-.1-1.1zm-1.6 14.7l-1-.2.2.9zm4.8 0l-.4.8h.8zm-4.5-5.5l.6.5.3-.7zm-.8-5.2l-.7-.6-.2.8zm5.4-2.6l-1.5 1 1.4.8zm-7.6 14.2l.5.5.2-.6zM213.3 261l.3 2.3 1.7-1.1zm5-2.6l-.7 2.2 2-.2zm-6.5-3.6l.4 2.3 1.7-1.1z"/><path d="M219.3 260.1l-.6 2.2 2-.3zm2.3 9.2l.4 2.3 1.7-1.1zm-8.8-2.4l.3 2.3 1.8-1.1zm4.1 2.1l.3 2.3 1.8-1.1zm7.6 8.6l.4 2.2 1.7-1.1zm6.1 7.5l.3 2.3 1.8-1.1zm-2.6-8.9l.3 2.2 1.7-1zm3.8 5.9l.3 2.2 1.8-1.1zM216.1 262l.4 2.2 1.7-1.1zm6.4 2.8l-1.6.2.8 1.2z"/><path d="M220.7 262.9l-.7 2.8 2.5-.5z"/><path d="M218.6 262.1l-.7 2.8 2.5-.5zm6 6.4l-1.2 2.7 2.6-.1zm3.3 5.3l-1.2 2.6h2.6zm-1.7-2.4l-1.1 2.6h2.5zm-4.2-5.8l-1.1 2.6h2.5zm-16.6-2.7l1.2.4-.1-1.1zm10.2 8.6l-.7-1.4-.8 1.1zm5.3-8.1l-.6-1.2-.7 1z"/><path d="M222.6 266.8l-.1 1.3 1.1-.4zm-5.1 8l-.4-1.6-1.1.9zm4.4-.2l-.4-1.5-1.1.8zm2.9-3.1l-.3 1.3 1.2-.2zm-7.6-6.7l.4 1 .7-.6zm-6.9-.6l-1-.9-.3 1.1zm9.4 8.4l-2.3 1.4 2 1.3zm15.1 18.9l-2.3 1.5 2 1.3zm-10.5-17.4l-2.3 1.5 2 1.3zm9.2 13.6l-2.3 1.4 2 1.4zm3.2 8.8l-2.3 1.5 2 1.3zm-8.3-16.8l2.7-.3-1.3-2.1zm-6.3-5.8l2.7-.3-1.3-2.1zm7.7 8l2.7-.4-1.3-2zm-9.8-15.6l-2.3 1.4 2 1.3zm4 1.2l-2.3 1.5 2 1.3z"/><path d="M236.3 311.8l1.6 2.9 1.7-2.3zm-3.2 6.9l2.8-1.7-2.4-1.6zm-12.9 12.8l2.6-1.9-2.5-1.4zm-1.5-72.6l-1.7-3-1.8 2.5zm-10.8-15.4l2.3-.3-1.1-1.8zm2.3 13.1l-2 1.3 1.8 1.1zm.6-5.7l-2 1.2 1.8 1.2zm5.2 8.1l-2 1.2 1.8 1.1zm3.5 5.2l-2 1.3 1.8 1.1zm-6.6-13.1l-2 1.3 1.7 1.1zm14.1 22.7l-2.3 1.5 2 1.3zm13.1 25.7l-2.3 1.4 2 1.4zm4.6 2l-2.6.7 2 1.4zm-8.2-8.5l-2.3 1.5 2 1.3zm4.1 1.4l-2.3 1.4 2 1.4zm-29.8-22.8l.3 1 .7-.6zm21.8 25.4l-1.4-1.1-.4 1.5zm6.2 1.8l-1.4-1.1-.4 1.5zm-29.6-34l-1.2.9 1.1.7zm-2.5-12l.5 1.4 1-1zm5 44.3l-1 .3.6.7zm4.4-2.1v.9l.7-.3zm-6.5-2.9l.8.2-.1-.8zm5.3 27.7l-.8.8.9.3zm2.9-3.9l.4.8.5-.5zm-7.1.3l.9-.1-.5-.6zm7.5-12.4l-1 .2.6.7zm4.4-2.1v.8l.7-.3zm-6.5-3l.8.2-.1-.7zm5.7-.4l-.8-.6-.3.8zm4.2 2.3l-.7.5.7.4zm-1.3-6.9l.3.8.5-.6zm4.2-.1l-1.5 1 1.3.8zm-10 4.2l.3.7.4-.5zm-6-7.5l-.9-.7-.3 1zm5 2.3l-.8.6.8.4zm-2-7.8l.4.9.6-.7zm4.7-5.4l-1.3.3.7 1zm1.2.6l-.1 1.1.9-.4zm-3.9-2.6l1.1.3-.2-1zm17.3 21.1l-1.5.3.8 1.1zM217 276.9l-1.5.4.8 1.1zm3.6 10.5l-1.6.4.8 1.1zm8 8.4l-1.6.3.9 1.1zm3.8 1.9l-1.6.3.9 1.2zm-6.7-14.7l-1.5.3.8 1.1zm-13.4-18.3v1.3l1.1-.4zm-9.6-5l1.3.3-.2-1.1z"/><path d="M219.1 270.3l1 1.2.6-1.3zm-3.2-11.1l1 1.2.6-1.3zm-4.1-.5l1 1.2.6-1.3zm10.3 22.1l1 1.2.6-1.3zm-5.5-19.6l1.1 1.2.6-1.3zm-5.5-12.4l1.6.1-.5-1.3zm14.1 46.8h1.6l-.6-1.3zm-11.9-29.9l1.1-.5-.9-.8zm3.4 1.4l1.2-.6-.9-.7zm-4.8-4.9l1.2-.6-.9-.7zM210 255l1.2-.6-.9-.7zm3.6 21.6l-.3-1.3-.9.7zm17.5 38.7l1 1.7.9-1.4zm.4 2.7l.9 1.6 1-1.4z"/><path d="M231.1 321.9l1 1.7 1-1.4zm1.1-2.7l1.2 2.6 1.7-2.2zm-4.7-3.2l-.9-.9-.3 1.1zm-1.7 5.8l.9 1.1.6-1.2zm2.6 3.7l.9 1.2.6-1.3zm1.6-2.2l1.3-.9-1.3-.7zm-2.5 1.5l1.3-.9-1.1-.6zm-4.3 4l1 1.1.6-1.2z"/><path d="M223.5 320.7l1 1.6.9-1.4zm2.6 1l-1.2.8 1.1.6zm4.3-4.8l.4 1.1.7-.8zm-9.5-.5l1.1-.1-.5-.9zm15.9-9.2l.2 2.2 1.7-1z"/><path d="M236.9 309.2l.2 2.2 1.7-1zm1.9-1.1l2.2-.1-.9-1.8zm-4.4-4.5l2.2-.1-.9-1.8zm-10.5 13.9l.6.7.3-.7zm.7-13.5l.1 1.9 1.4-.8zm-11.5 32.6l-.9.9 1 .4zm3.4-5l.5 1 .6-.8zm-8.8.8l1.1-.2-.7-.8zm-2-36.2l-1.1.1.5.8zm4.7-1.6l-.1.9.7-.2zm-6.2-3.9l.9.3-.1-.7zm25.5 9.4l-.3 2.3 1.9-.5zm-2.3 20l1.5 1.9.8-1.9zm-10.7 7.4l1.9-.2-.8-1.4zm.6 4l1.8-.1-.7-1.5zm-2.6 7.2l1.8-.3-1-1.3zm.8-4.4l1 1.6.9-1.3z"/><path d="M217.4 337.9l.4-2.3-2 .4zm-6.2 8.4l.4-2.2-2 .4zm-1 4l.5-2.3-2 .4zm-.9-2.1l.4-1.7-1.6.3z"/><path d="M210.1 344.4l.4-1.8-1.5.4zm-3.5 5.1l1.5-1-1.4-.8zm5-6.5l1.5-1-1.4-.8zm3.6-6l1.4-.9-1.3-.8zm5.3-10.1l1.6-.8-1.2-.9zm1.2 5.5l1.5-.8-1.2-1zm-7.2 8.3l.4-2.3-1.9.5zm-3.7 8.9l1.3-2-2-.3zm-18.3 23l1.3-1.9-2.1-.4zm-2.9 1.3l1.3-1.9-2.1-.4zm-9.3 10.2l1 1.9 1.3-1.4zm2.2-3.4l.9 2 1.2-1.5zm-6.4 7.1l-1-1.2-.5 1.1zm3.3.7l-2.2-.2.7 2zm-2.2 2.9l-2.3-.2.8 1.8zm-3.6-4.2l-1.3 1.9 2 .1z"/><path d="M182.5 380.1l-2.3 2.4 2.7.9zm-5.7 7.9l-2.2 2.5 2.3.7z"/><path d="M181.4 386.1h-3.3l1.1 2.6zm.9-1.1l1.7-2.1-2.3-.3z"/><path d="M179.6 386.3l1.3-2-2-.3zm41.8-51.9l-.4-2.3-1.7 1.2zm-4 .2l2.1-1-1.6-1.3zm8-9l2.2-.6-1.2-1.6zm-7.5-1.2l1.5-.5-1-1zm-4.3 8.8l1.4-.7-1.1-.8zm.4-5.4l1.5.7V327zm1.8-1.8l.9.5.2-1.1z"/><path d="M225.2 315.6l2.9 1.8.5-3.1zm7-3.5l3 1.8.4-3.1zm2.1 2.8l1.9 2.9 1.8-2.6zm-18.9 18.2l1 .4v-1zm2.5 1.1l1.1.4-.1-1zm11.1-21.6l.2-2.4-2 .8zm-2.2 8.1l.1-2.3-1.9.7zm-3 5.3l.1-2.2-1.9.7zm6.6-36.1l.7 2.9 2.2-1.5zm.4-2.3l-2.1.4 1.1 1.5zm-1.9-3.6l-2 .4 1.1 1.5zm-5.9-7.3l-2.1.4 1.1 1.5z"/><path d="M222.7 270.7l-2.1.5 1.1 1.5zm11.9 25.2l-2.1.5 1.1 1.5zm-3.2-1.8l-1.5-1.5-.7 1.7zm-.1-3l-1.5-1.5-.7 1.7zm11 9l-1.5-1.6-.7 1.8zm-4-3.4l.7 3 2.2-1.6zm2.8 6.8l1.6 2.6 1.3-2.3z"/><path d="M240.3 301l1.6 2.6 1.5-2.2zm-6.1-13.7l.6 3 2.2-1.6zm-4.9-5.1l.7 3 2.2-1.6zm-1.1-2.4l.6 2 2.2-1.2z"/><path d="M241.1 295.2l-.8 3 2.3-.6zm-8-7.1l3-.4-1.5-2.3zm2.1 3.5l3-.5-1.5-2.2zm1.7 2.8l3-.5-1.4-2.3zm4.3 6.2l3-.5-1.4-2.2zm-24.7 20.6l-1-.8-.2 1.1zm-3.6 2.6l-1-.3.1.9z"/><path d="M212.3 323.7l.7.5.2-.7zm-4.9-3.7l-1.2-.1.2 1zm5.6 0l-.5.9h1zm-5.3-6.4l.8.7.1-.9zm-3.7 14.6l-.8.7.8.3zm3.2-3.9l.4.9.5-.6zm-3.9-21.6l.8.3v-.8zm15.4 18l-1.2-.4.1 1.1zm-8.5 8.1l-1.3 1.7 1.9.5zm1-4.7l.5 1.7 1.2-1zm-3.2 8.4l-.1 1.5 1.2-.4zm-.8-6.8l1.1.4-.1-1.1zm-7.1 7.4l.7-1.1-1.1-.2zm10.7-9l-.5 1h1zm1.3-4.6l.7.7.3-.8zm-6.6 2.8l.8-.5-.6-.4zm.9 4.9l-.6.8 1 .1zm1.5-4.6l.6.5.3-.6zm-6.6 2.6l.7-.5-.6-.5zm15 1.5l-.8 1 1.1.3zm2.8-5.1l.7.8.5-.8zm-8.6 1.6l1-.4-.7-.6zm6.4 8.2l-.9 1 1.2.3zm2.8-5.2l.7.8.5-.8zm-8.6 1.6l1-.3-.7-.7zm5.4-3.2l-.8 1 1.1.3zm2.8-5.3l.7.9.5-.8zm-6.5-13l1.1.1-.3-.9zm.2 23.2l1.2 1.5.6-1.6zm3.7-6.6l-1.2-.6-.1 1.2zm-4.6 7.1l1.3-1-1.3-.6zm-2.3-2.6l-1.2-.4.1 1.2z"/><path d="M206.1 330.8l-1-.1.4.9zm1-.6l.7.5.1-.9zm5.1 3.3l-.8.9 1.1.3zm3.1-5.2l.6.9.5-.8zm-8.7 1.4l1-.3-.7-.8zm5.1-3.5h-1.3l.4 1zm6-5l-1.5 1.3 1.8.9zm3.6-17.3l1.2-1.8-1.8-.4zm-1.8 12.7l.3 1.8 1.4-.8zm2.5-16.7l-.9.6.7.5zm3.7-3.1l.2.9.6-.5zm-7-1.3h.9l-.3-.7zm-2 4.5l-.9.5.7.6zm3.8-3l.2.8.6-.4zm-6.9-1.5h.8l-.3-.7zm8.4 24.4l-1 .9 1.1.4zm3.2-5l.5.8.5-.7zm-8.8 1.1l1-.4-.6-.7zm6.3.3l-.9.9 1.2.4zm3.3-5.1l.6.9.4-.8zm-8.8 1.1l1-.4-.6-.6zm7.6-9.3l.5 1.8 1.3-1zm-.4 13.6l-1.1-.5-.1 1zm-.4 11l2.2-.6-1.2-1.6zm-6.4-7.9l-1.1-.6-.1 1.1zm-3.1-16.8l-.8-.6-.2.9zm-.1 19.1l.7.5.2-.8zm5.3-3.2l-1.3-.2.2 1.1zm14-13.7l-2 .6 1.2 1.5zm-8.2-8.8l1.2-1.8-1.8-.4zm1.3 2.6l-.5 1.7 1.6-.2zm-7.6 4.7l-1 1.1 1.2.4z"/><path d="M222.7 297.7l.6 1 .7-.9zm-10.1 1.6l1.2-.5-.8-.8zm13.6-6.9l-.9.5.7.5zm3.7-3.1l.2.8.6-.4zm-7-1.3h.9l-.3-.7zm-2 4.4l-.9.5.7.6zm3.8-3l.2.9.6-.5zm-7-1.5l.9.1-.3-.7zm11.2 16.3l-1.2.4.8.8zm5.2-3l.1 1 .8-.4zm-8.3-3.1l1 .2-.2-.9zm5.4 21.5l-.9.9 1 .4zm5.6-8.4l.1 1.1.8-.5zm-11.5 6.5l1-.2-.7-.7zm4.6-17.8l-1.2.5.8.8zm5.2-3l.1 1.1.8-.5zm-8.3-3l1.1.2-.3-1zm2.2 1.5l.4 1.9 1.4-1.1zm2.2 5.7l-.7-1.1-.6 1zm-4.1 1.6l2.3.6-.4-2.1zm-3.1 1.4h1.6l-.6-1.3zm-.2-3.4l-.7-1.1-.6.9zm-5.1-5.4l-.8-.6-.2.9zm1.2 5.9l.4.8.4-.6zm6.1-.4l-1-.7-.3 1.1zm-21.8 40.1l-1.3 1.7 1.9.5zm-1.7-6l-.2-2-1.6.7zm2.6 1.3l.6 1.7 1.2-1.1zm-3.1 8.4l-.1 1.4 1.1-.4zm-.9-6.8l1.2.4-.2-1.1zm-7 7.4l.7-1.1-1.2-.1zm6.6-13.7l-.4 1 .9-.2zm1-4.8l.7.6.1-.8zm-6.3 3.3l.7-.5-.7-.4zm1.1 4.7l-.4 1h.9zm1.2-4.6l.6.5.2-.7zm-6.5 3l.7-.5-.6-.4zm18.8 6.1l-.7 1.1h1.1zm2.2-5.6l.7.8.4-.9zm-8.3 2.7l.9-.5-.8-.6zm4.3-1.1l-.6 1 1.1.3zm2.3-5.6l.7.9.3-1zm-8.5 2.6l1.1-.4-.9-.6zm2.7-.1l1.5 1.2.4-1.6zm5.2 3.2l-1.2-.4.1 1.1zm-2.2 3.8l2.1-1-1.5-1.4zm-1.6 3l1.2-1-1.2-.6zm-2.3-2.6l-1.2-.4.1 1.1zm-7.3-1.1h-1l.4.8zm4.5 3.9l.8.4.1-.8zm5.7 4l-.8 1 1.3.3zm2.4-5.6l.7.9.4-.9z"/><path d="M200.6 343.1l1.1-.4-.8-.6zm5.1-4.9l-1.3.1.5 1.1zm10.8-9.4l-1.5 1.4 1.8.8zm-8.5-3.4l.5 1.7 1.2-1zm-3.8 8.1l-.2 1.5 1.2-.3zm-.3-6.8l1 .5v-1.1zm-7.5 6.9l.7-1.1-1.1-.2zm17.4-20.7l-.9.5.7.5zm3.7-3.1l.2.8.6-.4zm-7-1.3h.9l-.3-.7zm-3.7 5.8l-.9.5.7.6zm3.8-2.9l.2.8.6-.5zm-7-1.6l.9.1-.3-.7zm3 14.3l-.7 1.1 1.1.2zm2.6-5.3l.7.9.4-.9zm-8.5 2.1l1-.4-.7-.7z"/><path d="M213.6 325.2l1.2 1.5.7-1.6zm-.8-.4l-1.2-.5.1 1.2zm-4.3 6.5l1.3-.9-1.2-.7zm-7.2-26.8l-.8-.6-.2.9zm2.2 26.7l.8.4v-.7zm-9.9 20.3l-1.2-.5.1 1.2zm5.9 1.3l-.6.9.8.1zm-4-7.9l.6.9.5-.8zm5.4-2.4l-.1 1.5 1.3-.5zm-.8-6.8l1.2.4-.1-1.1zm-6.9 7.4l.5-1.1-1-.2zm6.4-3.9l-.2-2.2-1.6.8z"/><path d="M194.9 354.6v1.5l1.1-.5zm-.8-6.9l1.1.5V347zm-7 7.4l.7-1-1.2-.2zm6.6-13.7l-.4 1 .8-.1zm1-4.7l.7.5.2-.7zm-6.4 3.2l.8-.5-.8-.3zm1.1 4.8l-.3.9.9.1zm1.3-4.7l.7.5.1-.7zm-6.5 3l.8-.5-.8-.4zm18.8 6.1l-.7 1.1 1.1.1zm2.2-5.5l.7.7.4-.8zm-8.4 2.7l1-.6-.7-.5zm4.4-1.2l-.7 1.1 1.2.2zm2.2-5.5l.8.8.4-1zm-8.3 2.6l.9-.4-.7-.6zm-5.5 6.1h-1.1l.4.8zm4.2-9.1l-.1 1.5 1.3-.5zm-.9-6.9l1.2.4-.1-1.1zm-6.9 7.4l.6-1.1-1-.1zm12.6 1.1l-.7 1.1 1.1.2zm2.4-5.5l.6.8.4-.8zm-8.5 2.4l1-.5-.8-.6zm15.8-10.3h-1.2l.4 1.1zm18.8-17.2l-.6 1.5 1.3-.2zm1.4-6.7l1 .8.2-1zm-9 4.8l.9-.8-.9-.6zm2.4 10.8l-1.1.4.7.8zm4.9-3l.1 1 .7-.5zm-8-2.8l1 .2-.3-.9zm2.5-8.5l-1.2-.2.3 1.1zm5.7 0l-.5.9h.9zm-5.4-6.4l.8.6.2-.8z"/><path d="M218 312.9l-.9.7.9.4zm3.2-3.8l.3.9.6-.6zm.7 8.2l-.1 1.5 1.2-.4zm-.8-6.8l1.2.4-.2-1.1zm-7 7.4l.6-1.1-1-.2zm10.7-9l-.6 1h1zm1.3-4.6l.6.7.3-.8zm-6.6 2.8l.8-.5-.7-.4zm6 .4l-.5.9 1 .1zm1.3-4.6l.7.6.3-.8zm-6.6 2.8l.8-.5-.6-.4zm.1 6.3l-.5.8.9.1zm1.5-4.6l.6.5.3-.6zm-6.5 2.5l.6-.4-.5-.5zm8.4 2.3l-1.1-.4.1 1.1zm2-1.2h-1.4l.5 1z"/><path d="M214.6 316.2l-.4 1 .9-.1zm1.1-4.7l.6.6.2-.8zm-6.4 3.2l.8-.5-.8-.3zm12.6-4.5l.5 1.7 1.3-1.1zm5.2-3.3l.5 1.6 1.2-1zm6.2-.3l.6 1.7 1.2-1zm-15.1 11.7l-.2 1.5 1.2-.3zm-.4-6.8l1.1.5v-1.1zm-7.5 6.9l.7-1.1-1.1-.2zm10.3-9.5l-.7 1.1 1.1.2zm2.6-5.3l.7.9.3-.9zm-8.5 2l.9-.3-.6-.7zm7.6 6.6h-1.2l.3 1.1zm-8-16.2l-2 .6 1.2 1.5zm2.3-5.7l1.2-1.8-1.8-.4zm1.4 2.6l-.6 1.7 1.6-.2zm-8.9-15.6l-1 1.1 1.3.4zm3.5-6l.7 1.1.6-.9zm-10 1.6l1.1-.4-.7-.8zm14.7 13.5l-.9.5.8.5zm3.7-3.1l.2.8.6-.5zm-7-1.3h.9l-.3-.7zm-2 4.4l-.9.5.7.6zm3.8-3l.2.9.6-.5zm-6.9-1.5l.8.1-.3-.8zm11.1 16.3l-1.2.4.8.8zm5.2-3.1l.1 1.1.8-.4zm-8.3-3l1.1.2-.3-.9zm4.2 1.8l-1.3.4.8.9zm5.1-3l.1 1.1.9-.5zm-8.3-3l1.1.2-.3-1zm2.2 1.5l.5 1.9 1.3-1.1zm2.2 5.7l-.7-1.1-.6.9zm-4.1 1.6l2.3.6-.4-2.1zm-3.1 1.4h1.6l-.6-1.3zm-.2-3.4l-.7-1.1-.6.9zm-5.1-5.4l-.8-.6-.2.9zm1.2 5.9l.4.8.5-.6zm2.1 6.6l-1.2.4.7.9zm5.3-2.9v1.1l.8-.5z"/><path d="M210.2 295.6l1 .3-.2-1zm7.6 12.1l-1.2.4.7.9zm5.3-2.9v1.1l.8-.5zm-8.2-3.3l1 .3-.2-1zm2.2-6.7l-1-.8-.3 1.2zm4.7 27.8l-1.3-.5.1 1.2zm2.2 5.5l-1.3-.4.1 1.1zm-3.6-.1l-1.2-.5.1 1.2zm9-9.5l-1.6-.7v1.4zm-4.7 2.9l-.7.9 1 .1zm-1.1-1.4l.8.9.4-.9z"/></g><g fill="#db8aab"><path d="M302.2 323.6l-.1 1.1.9-.3zm-.6-4.2l1.5.6-.1-1.5zm15.6 14.2l2 .1-.7-1.5zm-1.8-3.1h2l-.6-1.5zm-7.2-15.6h2l-.6-1.5z"/><path d="M309.3 315.3l1.6.1-.5-1.3zm10.5 27.4l1.8.8.1-1.6zm-8-5l1.7.9.1-1.7zm-.8-10.4l1.8.8v-1.7z"/><path d="M312.2 325.8l1.7-1.1-1.5-.9zm-5.9-7.1l1.6-1.2-1.3-.9zm6.1 11.3l1.7-1.1-1.4-.9zm-11.7-25.1l1.7-1-1.4-.9zm8.5 19.3l1.9.8-.1-1.7zm-2-12.7l1.5.6-.1-1.4zm-4.2-11.1l1.5.6v-1.4zm-.2 2.8l1.4-1.8-1.9-.5zm3.1 3.5l1.4-1.7-2-.4zm-2.8-2.3l2.2-.3-1.2-1.7zm8.4 16.3l.4 1.9 1.4-1zm4.4 22.1l.2 1.8 1.5-.9zm6.9 3.2l.3 1.9 1.5-.9zm-3.3 5.1l.3 1.9 1.5-1zm-10.1-15.3l.4 1.8 1.4-1zm-19.7-44.3l.3 1.9 1.5-1z"/><path d="M309.3 331.3l.5 1.8 1.4-1.1zm15.3 19.2l.2 1.9 1.6-.9zm3.7 9.7l.2 1.6 1.2-.8zm.4-3.5l-.8 1.3 1.4.3zm-6.7 1.9l.3 1.6 1.2-.8zm5.9-.5l.3 1.6 1.1-.7zm-17.3-41.3l.3 1.7 1.2-.9zm-2.4-.6l.4 1.7 1.1-1zm-9.5-12.7h1l-.3-.8zm12.4 17.4l1.5.6V320zm-4.1 1.9l1.8.8-.1-1.7zm-10.7.9l.6-.8-.9-.2zm14.2-2.5l-1.1.8 1 .6zm-.8-1.9l.5 1.1.7-.7zm-4.1-3.2l1.1-.1-.5-.9zm7.1 19.6l-.3 1.2 1.3-.2zm7 9.7l-.3 1.2 1.2-.2zm-6.9-12.3l-.3 1.3 1.1-.3zm.7-6.7l1 .4v-.9zm.6 2.5l1.1.4v-.9zm-8 3.6l.7-.8-1.1-.2zm9 3.2l.9-.8-1.1-.3zm3 2.9l-1.2.2.6.9zm1.7 2.3l-1.3.2.6.9z"/><path d="M328 354.8l-1.6-.5.7.9zm-7.7-18.6l-1.2 1.7 1.9.2zm1.2 3l-1.2 1.7 1.9.2zm-6.6-3.9l.9 1.9 1.1-1.5zm1.6 4.9l1 1.8 1.1-1.5zm-6.8-15.4l1 1.9 1-1.6zm-2.8-9.8l.9 1.7 1-1.5zm-4.6-8.3l.8 1.9 1.1-1.5zm10.3 46l1 .4-.1-1zm11.4 9.2l-.4-1.1-.7.8zm-3.5-13.3l-1 .2.4.8zm6.6 4l-.5-.9-.7.7zm-5.2-7.6l-.6-1.1-.6.8zm6.1 9.9l-.7 1.1h1.1zm-21.8-28l.4-.7h-.8zm-1.5 3.7l-.4-.5-.3.6z"/><path d="M310.4 328.5l-.6.4.6.3zm-3.6-14.1l.5-.7-.8-.1zm-1.4 3.7l-.4-.5-.3.5zm5.7-2.1l-.6.4.5.3zm-6.4-8.2l.4-.7h-.6zm-1.2 3l-.5-.4-.2.4zm4.7-1.5l-.6.3.4.4zm-8.4 38.2l-.4.6.7.1zm.4-6.5l.6.4.1-.5zm13.2 1l-1-.8-.4 1zm5.5 3.1l-1.1.6.9.5zm-1.2-8.7l.3.9.7-.6zm7.7 27.7l-.3-1.1-.7.6zm3-.2l-.2-1.1-.8.6zm2.3 1.6l-.9.1.4.7zm-2.5-9.6l-.3.9.8-.1zm-5.2-1.8l.2.9.6-.5zm-6.4-3.3l-.9-.6-.3.9zm-.6-11.4l-1.5-1.2-.4 1.5zm.8 14.3l-.7-.7-.4.9z"/><path d="M317.1 351l-.9-.6-.3.9zm6.3 10.6l-1.6 1 1.4 1zm9.4 5.9l-.9 1.6 1.7.2z"/><path d="M332.2 365.7l-1 1.7 1.7.2zm-4.8-.9l-1.6 1.1 1.4.9zm2.4.2l-1.7 1 1.4.9zm-2.7-6.9l-1.6 1 1.4 1zm-14.2-35l1 .9.4-1zm-5.2-3.3l.9-.5-.8-.6zm.7 8.9l-.3-1.1-.7.7zm.5-3.4l-1.4-.4.2 1.1zm6.3 1l-.7.9 1 .2zm-4.7-7.7l.8.8.5-.8z"/><path d="M309.9 318l.9.9.5-1.1zm-5.2-3.5l.9-.5-.8-.6zm.9 9.2l-.4-1.2-.7.7zm-4.8-22.1l-.2 1.3 1.1-.3zm-.1-6.2l1 .4v-1zm-7 6l.7-.9-.9-.3zm9.4 12.4l-.2 1.1 1-.3zm-.3-5.2l.9.4v-.8zm-5.6 5.2l.5-.7-.7-.2zm8.7-4.3l.9 1 .5-1zm-5.1-3.5l1-.6-.9-.6zm.6 9.1l-.3-1.1-.7.7zm33.3 57.2l-.3-.8-.6.7zm-35-82.7l-.1 2.3 1.9-.8zm-3.2-3.8l2.7.1-1.1-2.2zm1.3 3.7l2.7-.1-1.2-2.1z"/><path d="M302.3 299.3l2.6-.1-1-2.4zm2.2 5.3l2.6-.2-1-2.5zm-4-9.8l2.7.3-.8-2.3z"/><path d="M300.1 293.7l2.6-.1-1.1-2.1zm1.5 4l2.6-.2-1.1-2.9zm2.1 4.9l2.6-.2-1.3-2.9zm10 27.9l-.1 3 2.4-1zm-17-32.3l-.2 3 2.5-1zm2.3 8l-.1 1.8 1.5-.6zm6.8 5.5l-.1 1.9 1.5-.7zm-2-1.7l-.1 1.9 1.6-.7zm6.1 1.2l-1.5 2.5 2.6.3zm2.6 6.6l-1.4 2.5 2.5.2zm-1-3l-1.5 2.5 2.6.2zm2.5 6l-1.5 2.5 2.5.3z"/><path d="M315 323.6l-1.4 2.5 2.6.3zm1.3 2.8l-1.4 2.5 2.5.2zm-1.3 3.9l.9 2.7 1.8-1.7zm3.7 7.8l1 2.8 1.8-1.8zm1.7 4.2l.9 2.7 1.9-1.8zm-1.2-8.6l-1.5 2.5 2.6.3zm-10.5-25.3l-1.5 2.5 2.6.2zm18.7 46.5l-2.7 1.1 1.9 1.7zm-6-7.6l-.2 2.9 2.5-1zm10.5 21.8l-.1 3 2.4-1.1zm3.2 4.2l-1.2 2 2.1.2zm-2.9-.9l-.1 2.3 1.8-.8zm-33.8-86.7l-.7 1.5h1.4zm7.7 39.7l-.9.8.8.5zm3.5-4l.4.9.6-.7zm-7.9-.2l.9-.2-.4-.7zm-19.8-62l1.4.7v-1.5zm16.4 44.3l.5-.7-.8-.1zm-1.4 3.7l-.5-.6-.2.6zm5.7-2l-.6.4.6.3zm-6.1-8.5l.4-.6-.6-.1zm-1.1 3.2l-.4-.5-.3.5zm4.6-1.7l-.6.3.5.3zm-14.7-31.7l.9 1 .4-1.1zm-5-3.7l1-.5-.7-.6zm.4 9.1l-.2-1.1-.9.7zm8.6 2.1l-.2 1.2.9-.2zm0-5.1l.8.4v-.8zm-5.9 4.8l.7-.7-.9-.2zm14.5 25.3l.8 1 .5-1.1zm-5.1-3.6l.9-.5-.8-.6zm.6 9.2l-.3-1.2-.7.7zm4 7.1l-.9.8.8.4zm3.6-4l.4 1 .5-.7zm-7.9-.4l.9-.1-.4-.7zm2-21l1.4 1.5.8-1.7zm-2-7.5l2.7-.3-1.3-2.6zm1.6 3l2.52.23-1.2-2.5zm-.9 10.8l-.7-2.9-2 1.6zm-.1-6.5v1.2l1-.5zm-1.3-5.3l1 .3-.2-.9zm-4.7 6.4l.4-.9h-.9zm.4-4.7l1.3-.2-.7-1zm-2.3 1.3l1.7.1-.5-1.5zm5-3l-.8.5.6.5z"/><path d="M289.5 280.4l.1 1.2 1-.6zm2 .8l-.8.7.9.2zm2.2-3.7l.4.7.4-.6zm-6.3.8l.6-.2-.3-.5zm3.1 5.5l.6-.2-.4-.5z"/><path d="M291.2 283.4l-1.1.2.7.8zm8 16.3l.2 1.2.8-.7zm-2.4-4.8l.9-.1-.3-.7zm-3.4 7.2l.3-1-.9.2zm-5.5-1.9l.3 1 .7-.5zm-.3-19.7l2.1-.3-1-1.6zm4.1-1.2l.8-2-1.9.1zm3.2 1.6l.7-2-1.9.1zm2.7 3.1l-.6-2.1-1.5 1.2zm-2.1-2.4l-1.7-1.2-.4 1.9zm1.3 4.3l-1.7-1.2-.3 1.9zm-4.5-5l-1.6-1.2-.4 1.9zm.9 2.2l-1.7-1.2-.3 1.9zm-2.6 5l.7-2-1.8.2zm2.1-16.2l-.9-1.7-1.1 1.4zm-2.3-4.2l-.9-1.7-1 1.4zm-2.7-3.3l-1.5-1.1-.4 1.6zm3.9 5.3l-1.4-1-.4 1.6zm-8.6-15.3l-1.1-1.5-.7 1.4zm14.3 39.7l.5-1.6-1.5.1zm4 5.4l.5-1.5-1.4.1zm-3.1-2.7h1.7l-.7-1.3zm-1-7.3l-1.9-.9.1 1.9zm-1.7-1.5l-1.9-.9.1 1.9z"/><path d="M297.2 284.6l-1.7-1.2-.4 1.9zm1 4l-1.4-1.5-.7 1.7zm1.6 1.6l-2.1-.9.1 1.9zm2 6.8l-1.5-1.4-.6 1.8zm4.1 8.7l-1.6-1.4-.6 1.8zm2.6 2.9l-1.6-1.4-.6 1.8z"/><path d="M306.4 308.5l-1.2-1.1-.4 1.4zm-2.5-2.8l-1.2-1.2-.4 1.4zm2.4 5.4l-.2-1.6-1.3.8zm-2.9-7.2l-.1-1.6-1.2.7zm-3.2-5.5l-.1-1.6-1.3.6zm-5.4-8.7l-.2-1.5-1.3.7zm7.9 10.9l-1.5-1.5-.6 1.8zm-11.6-17.1l-1.2-1.8-.9 1.7zm17.3 24.6l-.9-1.9-1.2 1.4zm10.3 24.2l-.9-1.9-1.1 1.4zm-.1 2.8l-.9-1.9-1.3 1.5zm3.7 11.8l2 .1-.6-1.5zm-1.4-3.2l1.9.1-.7-1.6zm2.9 8.2l-1.4.2.6 1zm1.2 2.4l-1.3.2.6 1zm.7-4.8l-1.1 1.7 2 .4zm1.3 3l-1.1 1.8 1.8.1zm-5.1 1.1l.9 1.9 1-1.6zm-2.8 1.8l-.9-.9-.5 1.2zm5.4 3.2l-.9.6.9.5z"/><path d="M323.2 349.6l.3 1 .7-.7zm-2.8-6.1l.9 2.8 1.8-1.8zm4.2 7.9l1 2.8 1.6-1.6zm0-4.5l-1.3 2.7 2.5.1zm5.6 14.2l-1.5 2.6 2.7.2z"/><path d="M329.4 358.9l-1.1 2.1 2 .2zm1.9 4.8l-1.1 2.2 2 .1zm-7.1-17.9l-1-2.3-1.1 1.6zm.1 2.5l-.9-1.9-1.1 1.5zm-23.4-56l-1.9-.7.1 1.8zm-1.7 3.3l.3-2.2-1.9.7zm-2.1-3l.2-2.1-1.8.6zm-9-24.3l.2-1.5-1.2.5z"/><path d="M296.7 297.9l.1-1.5-1.1.4zm-3.7-2.5l1.2-.9-1.2-.6zm-.8-2.1l.8-.7-.8-.4zm5.2 3.1l.8-.7-.8-.4zm1.8-1.4l.8-.7-.8-.4zm-3.5-3.8l.7-.6-.8-.4zm-2.8-5.6l.6-2.1-1.9.3zm-2.4-8.5l-1.6-1.2-.4 1.9zm-7.3-15l-1.1.6.8.6zm-5.4 4l-.6.7.7.2zm10.9 28.4l.8-.3-.6-.4zM277.6 275l.2 1 .6-.5zm-1.7-4.1h.7l-.2-.7zm-3.2 5.9l.2-.9-.7.1zm22.1 16.3l.2 1.2.9-.6zm-2.2-5l1 .1-.3-.7z"/><path d="M289 295.3l.3-1-.9.1zm-.2-6.4l-.8.9 1.1.3zm3 9.6l.7 1.8 1.2-1.3zm2.6-21.8l-1.7-.8-.2 1.7z"/><path d="M288.6 295.6l1.5.3-.3-1.4zm-.6-22.4l1 .8.3-1.2zm-5.7-2.6l.9-.7-.9-.4zm2.4 8.9l-.6-1.1-.6.8zm-6.9-6.8l.5.8.4-.7zm-3.1-3.1l.7-.2-.5-.6zm-.6 6.4l-.1-.8-.6.3zm13.5-11.6l.4 1 .7-.8zm-3.2-4.3l.9-.3-.5-.6zm-1.9 7.7v-.9l-.8.3zm1.2-3.9l.4 1 .7-.8zm-3.3-4.3l1-.3-.5-.7zm-1.9 7.7l.1-1-.8.3zm1.2-2.2l1.7-.5-1.2-1.1zm10.2 26.3l-.8.8.9.4zm-2-28.2l-.9-1.9-1.1 1.6zm-2.5-4.3l-1.1-1.9-1.1 1.6zm8.1 38.6l-.1-1.4-1.2.7zm-3 .7l-.9.7.9.4zm-9.9-23.8l-.5.8.8.1zm10.8 27.2l.7-.5-.6-.3zm5.6-2.6l.6 1 .7-.8z"/><path d="M293.9 294.5l1-.1-.5-.7zm-2 7.7l.1-.9-.9.3zm-1.6-6.1l-.5 1.1h1zM277.1 265l.6-.5-.5-.3zm5.9-3.7l.2 1.2.8-.6zm-2.3-4.9l1 .1-.3-.8zm-3.5 7.1l.3-.9-.9.1zm21.2 45.9l.8 1.7 1.1-1.4zm-5.3-2.1l-1.7-.9-.2 1.7zm2.1-1.4l1.6.3-.3-1.5zm5.2 6.9l1.1.6.2-1.1zm-5.8-2.4l.8-.7-.9-.4zm2.8 8.8l-.5-1.1-.6.9zm-10.2-33.6l.6.7.4-.6zm-3.1-3l.7-.3-.4-.6zm-.5 6.4l-.1-.8-.6.3zm6.5 22.8l.5.9.4-.8zm-3.1-3l.7-.2-.5-.5zm-.6 6.4v-.8l-.6.4zm13.3-11.8l.6 1 .6-.8zm-3.2-4.4l.8-.2-.5-.6zm-1.9 7.8l.1-.9-.8.3zm-6.2-33.1l.5 1 .7-.8zm-3.2-4.5l1-.1-.5-.7zm-2 7.7l.1-.9-.8.3zm8.7 27.4l1.6-.6-1.1-1.1zm4.8-2.7l-.9.8.9.4zm1.9 3.5l.3-2-1.9.5zm1.7 2.6l-.3-1.3-1 .6zm-3.2 1.3l-.9.8 1 .4zm-4 5.3l-.5.9h.9zm5.1-1.9l.6-.5-.6-.3z"/><path d="M303.8 309.2l.4 1 .7-.7zm-3.2-4.4l.9-.2-.5-.7zm-2 7.7l.1-.9-.8.2zm-1.5-6.2l-.6 1 1 .2zm-10.7-31l.6 1.8 1.3-1.2zm5.3-2l-1.8-.8-.2 1.6zm-5.1-3.4l1.6.3-.3-1.4zm-4.6 7.2l1.1.8.2-1.2zm-5.7-2.6l.9-.6-.9-.5zm2.4 9l-.5-1.1-.6.8zm7.4 6.6l.5 1 .7-.8zm-3.1-4.4l.8-.2-.4-.6zm-2 7.8v-1l-.8.3zm6.4 9.2l.5 1.1.7-.8zm-3.3-4.3l1-.1-.5-.8zm-1.8 7.8l.1-.9-.8.3zm-3.7-39.7l-.9.8.9.4zm13.7 8.9l2.1-.2-.9-1.7zm-10.3-2.6l-.2-1.5-1.1.7zm-3.1.5l-.9.7.9.5zm-4.5 5.1l-.6.7.9.1zm5.4-1.6l.6-.5-.5-.3zm5.7-2.6l.5 1.1.7-.7zm-3.1-4.4l1-.1-.5-.8z"/><path d="M280.3 277.4l.1-.9-.9.2zm22.3 44.8l-1 .8 1 .5zm3.6-4l.3.8.6-.6zm-8-.2l.9-.2-.4-.7zm.1-5.5l1.1.8.1-1.1zm-5.9-2.3l.9-.7-.9-.4zm2.9 8.9l-.6-1.1-.5.9zm-5.6-47.9l-1.7-.9-.2 1.6z"/><path d="M305.6 322.5l1.1.7.2-1.1zm-5.8-2.3l.8-.7-.9-.4zm2.8 8.8l-.5-1-.6.7zm-8.4-11.1l.6.7.3-.7zm-3.3-2.8l.8-.4-.6-.5zm-.2 6.3l-.1-.7-.6.3zm10.2 11.9l.5.7.4-.7zm-3.3-3l.8-.3-.5-.5zm-.3 6.4l-.1-.8-.6.4zm7.1-22.8l.5.9.6-.8zm-3.5-4.2l1-.3-.6-.7zm-1.5 7.7v-.9l-.8.3zm1-3.9l.5 1 .8-.8zm-3.4-4.1l.9-.3-.5-.7zm-1.6 7.7l.1-.9-.8.3zm2.5 7.1l-.4.8h.9zm-5.4-7.4l1.1.8.1-1.3zm-5.8-2.3l.9-.7-1-.4zm2.9 8.7l-.7-.9-.6.8zm6.1-10.1l.5 1.1.7-.8zm-3-4.5l1-.1-.5-.8zm-2.3 7.7l.2-1.1-.9.3zm-11.3-59.8l-.6 1 1.1.1zm7.7 14.6l-.8.8 1 .4zm4.7 16l-.8.9 1 .3zm-4.3-9l-1.2.9 1.1.7zm6.1 5.7l.3.9.6-.6zm-28.8-76l4.2 8.9 1.6-8.9zm36.2 166l.1-1.3-1 .5zm1.2 6.8l-1.7-.5.2 1.5zm-1.5 11l-1.6-.5.2 1.5zm-.9-2.8l-.3-1.6-1.3.8zm-1.5 1l-1.6-.5.2 1.5zm-14-25l-2.1.2.9 1.5zm2.2 3.1l-2.1.1.8 1.6zm9.2 15.6l-2.1.1.8 1.6z"/><path d="M294.2 383.1l-1.7.1.6 1.3zm-14.1-27.5l-1.9-.6.1 1.7zm9.2 4.4l-2-.7.1 1.8zm1.9 10.7l-2-.5.2 1.7z"/><path d="M290.1 372.5l-1.7 1.3 1.6.8zm6.9 6.9l-1.6 1.3 1.5.8zm-7.7-11.2l-1.5 1.3 1.5.8zm4.1 5.6l-2.1-.5.2 1.6zm3.4 13.2l-1.6-.5.2 1.5zm-5.4-9.3l-.7-1.9-1.3 1.2zm-7-22.6l-.4-1.9-1.6 1.1zm-7.5-2.7l-.4-1.9-1.5 1.2zm2.9-5.7l-.5-1.8-1.5 1.1zm12.1 15.1l-.6-1.9-1.5 1.2zm.5 4.7l-.6-1.9-1.4 1.2zM274.3 348l-.4-1.8-1.5 1.1zm-4.8-9.6l-.8-1.7-.9 1.1zm-.4 3.5l.7-1.5-1.4-.1zm7.2-2.7l-.4-1.7-1.2 1.1zm-6.1 1.1l-.4-1.7-1.2 1z"/><path d="M292.7 381.6l-.5-1.5-1.2 1zm2.5.4l-.6-1.5-1 1zm-3.5-4.4l-1.6-.6.2 1.6zm4.2-2.5l-2-.6.2 1.7zm11-2l-.5.8.8.1zm-14.6 4l1.1-.9-1.1-.6zm1.1 1.9l-.6-1-.7.8zm4.7 3l-1.2.2.6.8zm-9.7-19.8l.2-1.3-1.2.3zm-8.2-9.4l.2-1.3-1.3.3zm8.5 12.1l.1-1.4-1.1.4zm0 7.1l-1.1-.3.1 1zm-1-2.5l-1.2-.4.2 1zm8.1-4.7l-.7 1 1.1.1zm-9.9-2.3l-.7 1 1 .1zm-3.5-2.7l1.5-.4-.9-.9z"/><path d="M280.4 357.5l1.3-.4-.7-.9zm-10-13.6l1.6.4-.8-.9zm10 18.6l1-1.9h-1.9zm-1.7-3.1l1.1-1.8h-2zm7.5 3.4l-1.1-1.9-1 1.8zm-2.3-4.9l-1.2-1.8-1 1.7zm8.8 15.4l-1.1-1.9-1 1.7zm4.1 10l-1.1-1.8-1 1.7z"/><path d="M287 344.3l-1.2-.2.2 1zm-13.7-8.6l.8 1 .5-1zm5.7 13.8l1.1-.3-.7-.8zm-7.5-3.4l.7 1 .7-.9zm6.4 7.3l.7 1 .6-.9zm-7.5-9.5l.5-1.3-1.2.1zm25.9 26.8l-.4.8.8-.1zm1-4.1l.7.5.1-.6zm-5.7 2.8l.7-.4-.7-.3zm5.3 14.4l-.4.9h.8zm1.1-3.9l.6.4.1-.6zm-5.8 2.7l.6-.5-.6-.2zm8.7-34.2l.3-.6h-.7zm.1 6.9l-.7-.4-.1.7zm-14.1.4l1.2.7.3-1.1zm-6-2.7l.9-.7-.9-.5z"/><path d="M283.1 362.1l-.4-1-.8.8zm-11.6-28.4l.6 1 .6-.8zm-3.1.9l.5 1 .7-.8zm-2.6-1.3l1-.1-.5-.8zm4.2 9.4l.2-.9-.9.2zm5.9 1.2l-.4-.9-.6.7zm7.1 2.8l.9.6.3-1zm1.6 12.1l1.7 1 .3-1.8z"/><path d="M282.3 343.7l1 .6.2-.9zm.1 2.9l1 .5.2-.9zm-8.2-10.9l1.4-1.5-1.7-.6zm-10.9-4.1l.8-1.8h-1.8z"/><path d="M264.3 333.4l.8-1.9-1.8.1zm5 0l1.5-1.5-1.7-.6zm-11.2-11.7l1.6-1.2-1.5-1zm-2.3-5.9l-.8-1.2-1 1.2zm10.9 15.4l-1.2-1.6-.9 1.5zm-9.4-13.5l-2 .4 1 1.4zm9.6 16.1l1.4-1.4-1.7-.6zm4.2 6.5l1.6-1.2-1.6-.8zm18.5 35.1l-1.2-.9-.3 1.2zm5.9 2.9l-1 .7.8.5zm-1.8-9.2l.4 1.1.7-.8zm-.1 3.6l1.4.3-.2-1.2zm-6.8-.4l.7-1h-1.1zm5.7 7.5l-.8-.8-.3 1z"/><path d="M293.3 380.5l-1.1-1-.2 1.2zm5.9 3l-1.1.7 1 .5zm-2-9.5l.5 1.2.7-.8zm-36.6-47.2l.5.8.4-.8zm27.4 40.9l-.2-3.1-2.4 1.2zm10.3 18.9l-.2-2-1.5.8zm-4.3.9l1.3-2.8h-2.7zm-3.4-6.6l1.2-2.8-2.7.1zm1.4 3.1l1.2-2.8h-2.7zm-3.2-6.1l1.2-2.8h-2.7z"/><path d="M287.3 375.2l1.3-2.9h-2.8zm-1.6-2.9l1.3-2.8h-2.7zm1-4.2l-1.3-2.9-1.7 2.2zm-4.9-7.7l-1.3-2.9-1.8 2.1zm-2.2-4.2l-1.3-2.8-1.7 2.1zm2.1 8.7l1.3-2.8-2.7.1zm13.9 25.4l1.3-2.7h-2.8zm7.4 1.7l-2.6-1.5-.2 2.8z"/><path d="M305.8 390.9l-2.7-1.6-.2 2.7zM271 343.8l2.7-1.6-2.2-1.5zm7.2 7.1l-.2-3.1-2.4 1.4zm-14.3-21.3l-.6-3.1-2.2 1.6zm-3.8-3.9l.8-2.2-2.1.3zm3.2.5l-.4-2.3-1.8 1.1zm33.1 46l1-.8-1.1-.5zm-3.1 4.6l-.6-.8-.6.7zm8.3-.6l-1 .3.6.6zm-19.1-9.8l1.2 1.9 1-1.7zm-.1-3l1.1 1.9 1.1-1.7zm-5.1-12l-2.1.1.9 1.6zm1.6 3.3l-2 .1.8 1.6zm-3.6-8.3l1.4-.4-.8-.9zm-1.8-2.3l1.4-.4-.8-.9zm-.2 5.1l1-1.9-2.1-.1zm-1.7-3l1-1.9h-2zm5.5-1.8l-1.2-1.8-.9 1.7zm2.6-2.2l1.1.7.3-1.1zm-6-2.7l.9-.7-.9-.5z"/><path d="M276.1 348.7l-.4-1.1-.7.8zm3.4 6.2l-1.3-2.8-1.7 2.1zm-5.2-7.8l-1.4-2.7-1.4 1.8zm.3 4.7l1.3-2.9-2.8.1zM267 338l1.2-2.9h-2.7z"/><path d="M268.3 340.2l.8-2.4-2.1.2zm-2.9-5l.8-2.3-2.1.1zm9.9 17.7l1.2 2.3 1-1.9zm-.3-2.8l1.2 2 1-1.7zm25.5 25.1l.9-.8-1-.5zm-3.2 4.6l-.5-.9-.5.8zm8.3-.6l-1 .3.6.6zm-3.2 5.1l.9-.7-1-.5zm-2.2 2.3l-.5-.8-.6.7zm2.7.7l-1 .3.6.7zm-5.5-12.1l-1.3-.6v1.2zm6.3 1.8l-.8.8.9.4zm-4-8.9l.7 1.1.5-1zm1.4-4.7l-.7-.7-.4.9zm3.7 2.8l-.8.4.6.4zm-.4-6.7l.2.7.6-.3zm.7 13.2l.4-1-.9.1z"/></g><path d="M337.6 415.1l-21.4-1.2.6-6.2 20.9 1.7z" fill="azure"/><path d="M320.6 430.3c.3 1.4 1.6 2.3 3 2l55.3-10.3c1.4-.3 2.3-1.6 2-3l-.5-2.9-60.4 11.2.6 3z" fill="#0a5f66"/><path d="M376.9 411.2l-55.3 10.3c-1.4.3-2.3 1.6-2 3l.5 2.9 60.5-11.2-.5-2.9c-.4-1.5-1.7-2.3-3.2-2.1z" fill="azure"/><linearGradient id="G" gradientUnits="userSpaceOnUse" x1="358.7358" y1="403.6787" x2="359.3941" y2="414.6596"><stop offset="0" stop-color="#0a7b95"/><stop offset=".9241" stop-color="#0a5657"/></linearGradient><path d="M365.3 413.5l-.3-8c0-.4-.3-.6-.6-.7l-10.6-2.2c-.6-.1-.9.2-.8.7l.3 12.4 12-2.2z" fill="url(#G)"/><linearGradient id="H" gradientUnits="userSpaceOnUse" x1="341.2293" y1="398.9146" x2="342.9207" y2="419.4243"><stop offset="0" stop-color="#0a7b95"/><stop offset=".9241" stop-color="#0a5657"/></linearGradient><path d="M348.4 416.5l.2-13.9c0-.3-.2-.7-.5-.8l-11-3.1c-.2 0-.5.1-.5.4l-.8 19.7 12.6-2.3z" fill="url(#H)"/><g fill="#46a3b2"><path d="M337.1 398.8l3.2.9-1.9 1.7zm3.3 1l3.2.8-1.9 1.8zm3.7 1l3.3.9-2 1.8zm-4.7 1.7l1.1-1.2.3 1.2zm3.4-.2l1.1-1.2.3 1.2zm-5.4-.1h1.3l-.5.8zm4.6 1.2l1.2-.1-.5.9zm5-.4l1.3-.1-.5.9z"/><path d="M341.2 402.7l1.1-.7v1zm-2.2-2.5l1.5.4-.9.8zm-1.4 1l-.2-.5h.5zm1.3 2.9l-.1-.6.4.1zm1.7.6l-.2-.5.5.1zm2.1 1.4l-.2-.6.4.1zm-1.8-2.6l-.2-.7.5.2zm3.6-.2l-.2-.8.6.1zm-1.1 2.1l-.2-.7.5.1zm1.8-1.2l-.2-.7.6.2zm-5.7-.5l-.3-.8.6.2zm6.7.2l-.2-.7.5.2zm1.4-1.1l-.4-1.1.9.2zM338 405l.5-.4v.5zm1.5.9l.4-.4.1.4zm5.5-.8l.4-.3.1.4zm-1.4-1.2l.5-.3v.4zm-6.6 2.5l.5-.4.1.5zm2-4.2l-.2-.6.6.1zm-2.5 1.3l.5-.4.1.5zm.5-.7l-.1-.6.5.1zm.9-.7v-.6l.3.2zm-1.3-1.5l.5-.4.1.5zm0-1.4l.5-.4v.6z"/><path d="M336.5 400.7l1 1-1.2.3zm0-1.5l1 .9-1.1.3zm16.9 3.3l3.4.7-1.8 1.9zm3.4.8l3.4.5-1.8 2zm3.8.7l3.3.6-1.8 2zm-4.5 2l1-1.2.4 1.1zm3.4-.5l1-1.2.3 1.2zm-5.4.4l1.3-.2-.5.9z"/><path d="M358.7 406.7l1.2-.2-.4 1zm5-.8l1.3-.2-.5.9zm-5.8.2l1-.7.1.9zm-2.4-2.3l1.6.2-.9.9zm-1.3 1.2l-.3-.7.6.1zm1.5 2.6l-.2-.5.5.1zm1.8.6l-.3-.6.4.1zm2.1 1.1l-.2-.5h.4zm-2-2.3l-.2-.8.6.2zm3.7-.7l-.3-.6h.5zm-1 2.3l-.3-.6h.5zm1.8-1.4l-.3-.6h.5zm-5.8 0l-.3-.7.6.1zm6.6-.2l-.3-.8.7.2zm1.4-1.4l-.4-.9.8.2zm-9.4 3l.4-.4.1.5zm1.6.8l.4-.4v.4zm5.3-1.3l.4-.4.2.5zm-1.4-1l.5-.4v.5zm-6.3 3l.4-.4.1.4zm1.6-4.3l-.3-.7.5.1zm-2.5 1.5l.5-.5.2.6zm.5-.8l-.1-.6.4.2zm.8-.8v-.6l.4.2zm-1.4-1.2l.5-.6.2.6zm-.1-1.5l.5-.4.1.5z"/><path d="M353 404.5l1.1.8-1.1.5zm-.1-1.5l1.2.8-1.2.4z"/></g><path d="M150 411.6l-14.1-15 4.3-4.2 14.1 14.3z" fill="azure"/><path d="M127.6 414.9c-.4 1.4.4 2.8 1.8 3.2l30.9 14.4c.7.3 1.5.5 2.4.5l21 .1c1.8 0 3.7.2 3.8-1.5l.2-3.7-24.9-.3-34.4-15.6-.8 2.9z" fill="#0a5f66"/><path d="M186.6 422.7l-21.8-.2c-.7 0-1.4-.2-2-.5l-30.4-14.5c-1.4-.4-2.8.4-3.2 1.8l-.7 2.7 33.1 15.3c.8.4 1.6.5 2.5.5h23.6l.2-2.1c0-1.4.2-2.6-1.3-3z" fill="azure"/><linearGradient id="I" gradientUnits="userSpaceOnUse" x1="174.376" y1="411.9493" x2="172.9697" y2="422.8588"><stop offset="0" stop-color="#0a7b95"/><stop offset=".9241" stop-color="#0a5657"/></linearGradient><path d="M179.1 422.7l1.1-7.9c0-.3-.1-.7-.5-.8l-9.9-4.1c-.4-.2-.9 0-1 .5l-2 12.3h12.3z" fill="url(#I)"/><linearGradient id="J" gradientUnits="userSpaceOnUse" x1="164.459" y1="401.8255" x2="152.7691" y2="419.4666"><stop offset="0" stop-color="#0a7b95"/><stop offset=".9241" stop-color="#0a5657"/></linearGradient><path d="M159 420.3l9-11c.2-.3.2-.7.1-.9l-6.8-9.3c-.1-.2-.4-.2-.6 0l-13.2 15.5 11.5 5.7z" fill="url(#J)"/><g fill="#46a3b2"><path d="M161.3 399.1l2.1 2.8-2.7.1zm2.1 2.9l2 2.7-2.7.2zm2.3 3.1l2 2.7-2.7.2zm-4.8-1.7l1.6-.2-.5 1.1zm2.8 2l1.6-.2-.5 1.1zm-4.1-3.3l1 .6-.9.5zm2.7 3.6l1.1.8-1 .3zm4.3 2.9l1 .7-.9.4z"/><path d="M162.2 404.8h1.2l-.5.9zm-.1-3.4l.8 1.3h-1.1zm-1.8.1l.2-.7.4.4zm-.8 3l.3-.7.3.4zm.9 1.5l.2-.6.3.4zm.8 2.3l.2-.5.3.4zm.2-3l.3-.8.3.5zm3.1 1.9l.3-.6.3.4zm-2.3 1l.3-.6.3.4zm2.2.3l.3-.8.3.5zm-4.2-4l.3-.7.4.5zm5.1 4.3l.3-.7.2.5zm1.8 0l.5-1.1.5.7zm-8.9-4.2h.6l-.2.3zm.7 1.6l.5-.1-.3.5zm4.7 2.8l.7-.1-.3.5zm-.3-1.8l.6-.1-.3.5zm-6.6-2.1l.5-.1-.2.5zm4.1-2.1l.2-.6.3.4zm-2.8-.5l.6-.1-.3.6zm.9-.3l.2-.5.2.4zm1 0l.4-.5.2.4zm-.1-1.9h.6l-.2.4zm.8-1.1h.7l-.3.4z"/><path d="M159.7 400.2l.2 1.5-1.1-.5zm1-1.1l.2 1.3-1-.4zm8.7 10.7l3.2 1.2-2.2 1.5zm3.3 1.3l3.2 1.2-2.3 1.7zm3.4 1.5l3.2 1.2-2.1 1.6zm-4.8 1.1l1.3-1.1.1 1.2zm3.4.2l1.3-1.1.2 1.2zm-5.3-.7l1.4.1-.7.8z"/><path d="M173.8 414.9h1.2l-.5.8zm5 .1l1.4.1-.6.8zm-5.6-.8l1.1-.7-.1 1.1zm-2-2.8l1.5.5-1 .8zm-1.4.9l-.2-.6.5.1zm.9 3l-.1-.7.4.2zm1.6.8l-.1-.5.4.1zm1.9 1.5l-.1-.6.5.3zm-1.5-2.6l-.1-.8.5.2zm3.7 0l-.2-.7.6.2zm-1.4 2.1l-.1-.8.5.2zm2.1-1l-.3-.8.6.2zm-5.7-1.2l-.2-.7.6.2zm6.6 1l-.2-.8.6.2zm1.5-1.1l-.2-1 .7.4zm-9.8 1.2l.5-.3v.5zm1.4 1.1l.4-.4.1.5zm5.5-.2l.5-.3.1.5zm-1.2-1.3l.5-.3v.5zm-6.8 1.8l.5-.4v.5zm2.4-4.1l-.1-.5.5.1zm-2.7 1.2l.6-.5.1.5zm.7-.8v-.6l.4.2zm.9-.6v-.6l.5.3zm-1.2-1.6l.6-.3.1.5zm.2-1.3l.5-.4.1.6z"/><path d="M168.6 411.7l.9 1-1 .2zm.2-1.6l1 1-1.1.2z"/></g></svg>