<svg xmlns="http://www.w3.org/2000/svg" viewBox="0 0 480 480" xmlns:v="https://vecta.io/nano"><path d="M134.8 415.6c-1.8-4.7-3.1-6.7 2-11.8 3.3-3.3 9.1-15 11.9-20 12.6-23.3 13.8-34.9 22.1-50.6 9.9-18.7 19.2-29 22.5-34.5 4.9-8 13.5-35.1 13.5-35.1l38.3.5s-5.6 20.2-9.5 30.9c-3 8-12.5 20-15 22.5-34.2 42.4-54.6 73.6-58.4 83.2-.8 1 7.2 13.4 8.9 15.1 5.6 2.6 13.2 3.7 13.2 6.6s-1.7 3.2-1.7 3.2l-19.7-2.9-28.1-7.1z" fill="#e79a7a"/><linearGradient id="A" gradientUnits="userSpaceOnUse" x1="192.4296" y1="334.0496" x2="224.406" y2="354.4005"><stop offset="0" stop-color="#cc7a5e" stop-opacity="0"/><stop offset=".9241" stop-color="#aa5f4b"/></linearGradient><path d="M162.5 399.8c4.6-9.6 25.4-42.3 59.3-84.1 2.5-2.6 13.7-16.4 15.2-22.5 3.9-11.6 6.3-26.2 6-28l-7.7-1.3 13.6 2.1c-.8 1.3-30.3-5-32.9-.2-2.7 5.1-15.1 48.3-27 63.2-11.8 15-43 63.6-41.7 74.2.7 6.4 12.1 18.7 21.1 11.2-4.3-10.3-7.1-12-5.9-14.6z" fill="url(#A)"/><path d="M308.3 422.6c-3 0-3.6-2.9-2.9-7.6.5-3.5-2.3-10.4-3.5-13.9-1.6-4.5-10.1-21.9-22.8-49.5-8.3-19.2-11.6-35.5-13.5-44.2-1-4.4-24.2-45.7-24.2-45.7l39.6-12.4 14 44.4c3.6 12.2 7.6 32.4 12.6 53.6 6.2 25.8 12.8 48.5 15.7 52.4 1.9 2.5 11.2 3.7 24.4 6 6.4.6 12-.2 14.5 1.8.9.7 1.6 3.5 1.6 3.5l-55.5 11.6z" fill="#e79a7a"/><linearGradient id="B" gradientUnits="userSpaceOnUse" x1="295.8011" y1="335.1079" x2="329.9069" y2="326.5792"><stop offset="0" stop-color="#cc7a5e" stop-opacity="0"/><stop offset=".9241" stop-color="#aa5f4b"/></linearGradient><path d="M322.3 398.2c-2.9-4.4-10.4-29.7-17.8-64.3-2.7-12.7-5.4-24.3-9.4-39.3-.8-3.5-10.9-34.5-14.9-43.2-4.9-8-16.4 3.8-18.1 3.1h-.2v.1c.7 1.4-11.9 12-9.3 16.9 2.7 5.1 31.8 49.8 37.5 68s18.1 71.6 27.5 76.5c3.9 2.1 18.1 2.4 26.6-1.7 3.9-1.9 4.1-3.7 4.9-7-14.9-.7-23.1-2.8-26.8-9.1z" fill="url(#B)"/><linearGradient id="C" gradientUnits="userSpaceOnUse" x1="206.7728" y1="309.7982" x2="217.0454" y2="291.3856"><stop offset="0" stop-color="#cc7a5e" stop-opacity="0"/><stop offset=".9241" stop-color="#aa5f4b"/></linearGradient><path d="M200.5 318.1c9.8 4.4 12.9 8.2 12.9 8.2l9.5-11.6c8.3-10 10.9-15.3 10.9-15.3l-37.6-6.7c-1.2 2.6-3 6.2-4.5 8.4-1.3 2-5.5 7.5-5.5 7.5 1.3.7 6.1 5.9 14.3 9.5z" fill="url(#C)"/><g fill="#ad5c49"><path d="M218.8 313.2l1.2-.1-.8-1.2zm-12.1-11.6l1.6-.2-1.1-1.5zm1-2.8l1.5-.2-1.1-1.5zm9.9 20.5l.3 1 .9-1zm-21.8-14.9l.6.5.2-.8zm-3.3-2.9l.7.5.2-.8zm14.6 7.5l.9.3-.1-.9zm4.2 5.6l.8.3v-1zm3.6.1l-.7-.2.2.7zm5.7-6.8v1.4l1.6-.6zm-8.3-6.1v1.4l1.5-.7zm5.5 3.3h1.2l-.8-1.4zm-15.8-7.2l-.2 1 1.1-.2zm-5.1 2.4l.4 1 .8-.8zm19.4 3.4l-.4-1.5-1.2 1zm-.7 2.4l.9-.5-1-.8z"/><path d="M213.7 306.2l1.1-.5-1-.9zm4.9 8.9l.9 1 .5-1.3zm-1.9 6.6l1.1-1.2-2-.2zm3.4-9.4l-.6 2 2.5-.2zM198.2 294l.4 3 2.7-2zm1 4.9l1.9-.4-1-1.7zm-3.8-3.4l1.8-.4-.9-1.7zm25.7 18.7l.2.8.6-.5zm-2.1-4l.3.8.6-.5zm1.9.2l.2.9.7-.6zm-14.3-11.3l-.2.7.9-.1zm11 11.8l.1.8.7-.5zm.6-1.9v.8l.8-.5zm2.6-5.4l.2.8.8-.4zm1.5 4.2v.9l.8-.4zm1.9-2.1l.1.8.7-.4zm3.7-3l.1.9.7-.4zm-2.2.9l.2 1.9 1.9-1.1zm-6.7-3.4l-.3.7h.9zm1.4-.6l-.3.7h.8zm2.4 9.7l.2.8.6-.5zm2.2-1.1l.1 1.3 1.4-.8zM202.9 296l.2.9.8-.7zm12.6 2l-2.9-.4 1.2 3.1z"/><path d="M220.6 298.7l-2.9-.3 1 2.5zm3.8.4l-2.9-.3 1 2.6zm-7 15.3v1l.9-.4zm1.5-13.4l-2.1-.4.8 2.4zm-5.6-.7l-1.6-1.4-.6 2.3zm4.6-.7l-1.6-1.4-.6 2.4zm-7.1-2.3l-2.1-.5.7 2.4zm18.1 9.4l-2.1-.4.8 2.3z"/><path d="M231 303.7l-2.2-.3.8 2.4zm2.7-4.1h-3.1l1.5 2.5zm-7.6.8l-1.7-1.3-.4 2.4zm-8.6 7.4l-.2-.9-.7.5zm-3.4.6v-.8l-.8.5zm-19.6-.7l-.2-.8-.7.5zm20.9 3.3l-.3-.8-.6.7zm-18.1-11.3l-.1-.8-.8.4zm19 19.3h.8l-.5-.8zm3.5-13.1l.4 1.1 1-.9zm-25.8-6.1l1.2-.1-.7-1.2zm2.9-2.5l.9-.5-1-.7zm7.3 2l.5 1.2.9-1zm13.7 18.4l-.3-1.4-1.3.9zm.5-10.1l1.1-.6-1.1-.8zm-15.6-9.8l.2 1.2 1.1-.7zm-1.6-2.9l.3 1.7 1.5-1zm11.2 25l.4.8.8-.6zm.5 4.3l.8.4.3-.9zm-7.1-21.8l-.6-.6-.3.7zm-5.2 1.5l-.6-.5-.4.8zm2.2 1.2l.9.5.2-1zm-2.4-2.4l.6.5.2-.8zm9.9 4.7l.8.2-.1-.9zm-2.9-4.1l.9.5.2-1zm13.2 14l1.2-1.4-2.1-.4zm-2.7 0l1-.5-1.1-1zm1.3 1.4l1-1.2-1.7-.4zm3.1-7.8l.8 1 .5-1.4zm.2-7.5l.8 1 .5-1.3zm-8.3-3.3l.3 1.2 1.1-.8zm-5.5-.1l.3 1.2 1.1-.8zm1.4-1.6l.3 1.2 1.1-.8zm13.7 12.1l.9.9.4-1.2zm-.5-2.8l.3 1.2 1.1-.9zm1.2-5.7l.6 1.8 1.5-1.3zm2.1-.6l.4 1.5 1.2-1zm2.8-1.2l.4 1.5 1.3-1.1zm.3 1.7l.3 1.4 1.3-1.1zm-9.4-.3l.5 1.6 1.4-1.1z"/><path d="M226.7 309.9l-1.5-.2.4 1.6zm-2.4 3l1.1-1.4-2.1-.3zm-2.8.2l1.1-.5-1.1-.9zm1.6 1.4l.8-1.2-1.6-.3zM204.9 296l.7 2.3 1.8-1.7zm12.2 17.5l-.7 1 1.3.4zm6.6-8.8l-.9 1 1.4.3zm-.2-3.5l-.8 1 1.4.3zm3.5-2l-1.2.4 1 1zm3.1.2l-2.6-.2.6 1.7zm-1.6 5.5l-1 .6 1.2.8zm-2.3 1.7l-1.1.6 1.2.8z"/></g><linearGradient id="D" gradientUnits="userSpaceOnUse" x1="283.8815" y1="315.6732" x2="275.1664" y2="287.7827"><stop offset="0" stop-color="#cc7a5e" stop-opacity="0"/><stop offset=".9241" stop-color="#aa5f4b"/></linearGradient><path d="M275.7 318.9c10.6-2 23-9.9 23-9.9s-2.3-8.5-2.9-11.6c-1.6-6.9-3.7-12.5-3.7-12.5l-32 11.7s4.1 6.5 4.9 9c1.4 4.5 2.1 15.5 10.7 13.3z" fill="url(#D)"/><linearGradient id="E" gradientUnits="userSpaceOnUse" x1="239.8485" y1="264.4784" x2="258.14" y2="303.8447"><stop offset="0" stop-color="#cc7a5e" stop-opacity="0"/><stop offset=".9241" stop-color="#aa5f4b"/></linearGradient><path d="M242.6 270.3h0v.2-.2z" fill="url(#E)"/><linearGradient id="F" gradientUnits="userSpaceOnUse" x1="239.9066" y1="264.4513" x2="258.1982" y2="303.8176"><stop offset="0" stop-color="#cc7a5e" stop-opacity="0"/><stop offset=".9241" stop-color="#aa5f4b"/></linearGradient><path d="M242.6 270.2s-.1 0 0 0h0z" fill="url(#F)"/><linearGradient id="G" gradientUnits="userSpaceOnUse" x1="199.5132" y1="253.5268" x2="350.6362" y2="253.5268"><stop offset="0" stop-color="#874130"/><stop offset="1" stop-color="#531700"/></linearGradient><path d="M181.3 281.9c-.6.9-.4 2.2.4 2.9 3.9 3.7 17.3 13.6 49.6 14.6 34 1 57.9-12.3 64.4-16.3 1-.7 1.5-1.9 1.1-3.1-1.7-5.4-6.9-21.3-15.4-41.4-5.5-13-15.6-31-15.6-31l-67.5.05s.5 20.75-6.4 49.35c-2.6 11-8.4 21.2-10.6 24.9z" fill="url(#G)"/><linearGradient id="H" gradientUnits="userSpaceOnUse" x1="238.502" y1="235.2071" x2="240.8023" y2="191.9887"><stop offset="0" stop-color="#330900" stop-opacity="0"/><stop offset=".9975" stop-color="#330900"/></linearGradient><path d="M194.1 247.3s14.3-7.5 26-9.9c31.9-6.7 61.9 2.7 61.9 2.7l-7.1-15.5c-2.9-5.8-9.2-17.1-9.2-17.1l-67.4.1s-.4 12.3-1.5 20.8c-.8 7.1-2.7 18.9-2.7 18.9z" fill="url(#H)"/><g fill="#491913"><path d="M243.1 212.4l.2 1.4-1.5-.4zm2.1-3.2l.2 1.4-1.5-.4zm-5.6.5h-.8l.4-.9zm5.1 5.2l-1.3.9-.3-1.9zm4.2-5.4l-1.4.9-.3-1.8zm3.5-.5l-1.4.9-.2-1.9zm-7.6 0l-1.4.9-.3-1.8zm-.6 2.1l-1.4 1-.3-1.9zm2.9-.2l-1.3.9-.3-1.8zm-7.3.1l-1.4.9-.3-1.8zm1.9-.4l-1.4.9-.3-1.8zm17.6 2.3l-1.4.9-.3-1.8zm-5.9 1l-.4-1.6 1.8.3zm2.7-1.2l-.5-1.6 1.9.3zm-7 .6l.3 1.4-1.6-.4zm-7.7 0l.2 1.4-1.5-.5zm17.1 1.6l.2 1.4-1.5-.4zm-7.3-2.3l.2 1-1.1-.2zm-6.3 0h.8l-.4.9zm4.3 6.7l.2-.8.7.6zm-2.1 3.3l-1 .2.3-1.1zm0-6.4v.9l-.8-.4zm-6.6 4.3l.7.2-.6.7zm17.7 5.3l-.9.2.2-1zm.1-6.3v.8l-.8-.4zm-6.7 4.3l.8.2-.6.7zm19.7.6l-.9.4v-1.1zm-1.6-6.2l.2.8-.9-.2zm-5.4 5.8l.8.1-.4.8zm1.3-1.4l-.9.3.1-1.1zm.1-6.2l-.1.8-.8-.5zm-6.8 4.2l.8.2-.6.7z"/><path d="M268.1 215.1l-.3 1-.8-.8zm-5.3-3.3l.7.4-.8.5zm.1 8l.5-.6.3.9zm-4.6-4.4v1.8l-1.8-.9zm-4 3.3l.8.2-.6.7zm5.9-2.4l-.4-.9h1zm-4-.1l-.7-.7.9-.4zm5.2-3.6l-.7.5-.1-.9z"/><path d="M254.1 209.5l.2.8-.9-.1zm4.2 7.4l-1.3.1.5-1.4zm1.3-8.4l-.2 1.1-1-.7zm-9.8 4.5l1.1.4-1 .8zm12.3 4.5l-1.1-.5 1.1-.8zm5.1-5.8l-.6.7-.5-1zm-9.7-1.5l.5.9-1.1.1zm-6.8 6.4l-.7-.6 1-.5z"/><path d="M255.9 213l-.7.5-.1-.9zm-7.4-3l.3.8-.9-.1zm2.3-1l.2 1.4-1.5-.4zm1.5 1.6l-.7 2.1-1.8-1.6zm-2.6 1.2l-1.8 1.1-.4-2.4zm9.1-.7l-1.9 1.1-.3-2.4zm4.7.1l-1.9 1.1-.3-2.4zm.8 1.1l-.7-2.1 2.4.2z"/><path d="M262.5 214.4l.4-1.6 1.4 1.2zm4.6.7l.1-1.6 1.6.8zm-8.6-2l.5-1.5 1.4 1.1zm6.4.4l.1-1.6 1.6.8zm.1-3.9l-1.9 1.1-.3-2.4zm-10.7.7l.2 1.4-1.5-.4zm.5-1.8l.2 1.4-1.5-.4zm-10.6 9.5l-.9.1.2-1zm-2.1-1.4l-.4-.8h.9zm2.6 3.1l-.1.8-.8-.4zM256 210h-.8l.3-.9zm-7.6 3.2l-.1.8-.8-.5zm11.5-4.5l-1.4.9-.3-1.8z"/><path d="M255.4 207.8h3.1l-1.3 3.2zm3.3 0l3.1-.1-1.3 3.2zm-7.3 0l3.1-.1-1.3 3.2zm12 0l2.32-.22-.52 3.32zm6.4 11.4l1.3-1.6 1.1 2zm-22.2-11.4l3.1-.1-1.2 3.3zm-3.2 0l3.1.1-1.5 3.1zm-3.9 0h3.2l-1.5 3.2z"/><path d="M265.7 209.4l-1.4.9-.3-1.8zm-3.3-1.2l.3 1.6-1.8-.5zm3.7 2.1l1-.05-.3 1.75zm1.65 1.1l1.08 2.22-2.03.08zm2.25 4.1l1 2-2.1.1zm-4.4-2.1l.4 2.4-2.2-.5zm-3.4-2.1l.6 3-2.9-.6zm11.3 11.2l.6 1.4h-1.4zm-2.4-1.9l.6 1.2h-1.3zm-4.9-2.4l.2 1.1-1-.2zm-7.8-5.8l.4 2.1-2-.4zm6.2 3.4l-.7 2-1.5-1.3z"/><path d="M268.3 215.9l.8 1.7-1.8.1zm-6 2.4l-.8-.5.8-.7zm4.2-4.8l-.5.6-.4-.8zm-7.9-1.1l.5.6-.9.2zm-4.5 4.6l-.6-.5.8-.4zm-2.1 1.9l-1.1-.8 1.4-.7z"/><path d="M256.4 217.7l-.6-.5.8-.4zm-2-1l-.5-.5.7-.4zm5.7 1.2l.2.6h-.7zm-8.7 4.1l-.8-.7 1-.6z"/><path d="M257 217.6l-.8.5-.2-1zm-8.5-2.9l.3.8h-1zm-25.5-2.3l.2 1.4-1.5-.4zm2.1-3.2l.2 1.4-1.5-.5zm-.4 5.6l-1.4.9-.3-1.8zm4.1-5.3l-1.4.9-.3-1.8zm3.8-.6l-1.3.9-.3-1.9zm-7.9 0l-1.4 1-.3-1.9zm-.6 2.2l-1.4.9-.3-1.8zm2.9-.2l-1.3.9-.3-1.8zm-5.4-.3l-1.4.9-.3-1.8zm-3.4-.5l.2 1.7-1.7-.5zm-1.8.6l-.7-1.5 1.8-.1zm23.2 2l-1.4.9-.3-1.8zm-5.8.9l-.5-1.6 1.9.3zm2.5-1l-.4-1.6 1.8.2zm-6.8.4l.2 1.4-1.5-.4zm-8.2.2l.3 1.4-1.6-.4zm-1.7-1.1l.2 1.4-1.5-.4zm11.5.5l.2.9-1.1-.2zm-6.3 0h.8l-.4.8zm4.3 6.7l.2-.8.7.6zm-2.1 3.2l-.9.2.2-1zm.1-6.3l-.1.8-.8-.4zm-6.7 4.3l.7.2-.5.7zm-.7 1l-.9.1.2-1zm.1-6.4v.8l-.8-.3zm-6.7 4.3l.8.2-.6.7zm25.5 6.1l-.9.3.2-1.1zm.1-6.3v.8l-.8-.4zm-6.7 4.3l.7.2-.5.7zm6.7-8.4l-.1 1.8-1.7-.9z"/><path d="M234.7 218.4l.8.2-.6.7zm3.6-2.4l-.7-.6 1-.5zm5.2-3.6l-.7.4-.2-.8zm-7.4-3l.3.7-.9-.1zm4.3 7.2l-1.2.2.4-1.4zm1.2-8.3l-.2 1-1-.6zm-9.7 4.5l1.1.5-1 .8zm11.3 3.2l-.9-.8 1.2-.5z"/><path d="M249.6 211.6l-.8.6-.2-1.2zm-9.1-3.8l.3 1-1.1-.1zm-9.9 8.8l-.7-.6 1-.5zm5.2-3.6l-.7.4-.1-.8zm-7.4-3l.3.7-.9-.1zm2.8-1.3l.2 1.4-1.5-.4zm1.3 1.8l-.6 2.1-1.8-1.6zm-2.9 1.3l-1.8 1.1-.4-2.4zm11.2-1L239 212l-.4-2.4zm-6.3-.7l.2 1.4-1.5-.4zm.5-1.7l.2 1.4-1.5-.4zm-10.9 9.6l-.9.1.3-1zm-4.8-.7l-.9.2.3-1.1zm2.8-.8l-.4-.7h.9zm-5.6-.8l-.4-.8h.9zm8.1 4v.8l-.8-.4z"/><path d="M236.2 209.8h-.8l.3-.9zm-7.9 3.4l-.1.8-.8-.6zm11.7-4.1l-1.4.9-.3-1.8z"/><path d="M235.4 207.9l3.2-.1-1.3 3.3zm-3.9.1l3.1-.1-1.3 3.2zm-3.6-.1l3.1-.1-1.3 3.2zm-10.4-.2h3.1l-2 2.5z"/><path d="M214 207.7h3.2l-2 2.5zm10.3.1l3.2.1-1.5 3.1zm-3.8-.1l3.1.1-1.4 3.2zm14 9l-.6-.5.8-.4z"/><path d="M232.4 218.6l-1.1-.8 1.4-.7zm4.4-1.2l-.6-.5.8-.4zm-2-1l-.6-.5.8-.4zm-3 5.3l-.9-.7 1.1-.6z"/><path d="M237.3 217.3l-.7.5-.2-1zm-8.5-2.9l.4.8h-1zm-20.3-1.6l.2 1.4-1.5-.5zm2.1-3.2l.2 1.4-1.5-.5zm-5.5.4h-.8l.3-.9zm5 5.3l-1.4.8-.3-1.8zm.1-5.9l-1.3.9-.3-1.9zm-.6 2.1l-1.4.9-.3-1.8zm3.4-.4l-1.4.9-.2-1.8zm1.4-1.7l-1.4.8-.3-1.8zm-9.2 1.9l-1.4.9-.3-1.8zm1.9-.4l-1.4.9-.2-1.8zm-.3 2.7l.2 1.4-1.5-.5zm10.3-.8l.1 1-1-.2zm-6.3-.1h.8l-.4.9zm4.1 6.8l.3-.8.7.6z"/><path d="M215.8 210.9l.2 1-1-.2zm-6.3-.1h.9l-.4.9zm4.2 6.8l.3-.8.7.6zm-.9 5.1l-.9.2.2-1zm.2-6.3l-.1.8-.8-.4zm-6.8 4.2l.8.2-.6.7zm3.3-2.2l-.9.1.3-1.1zm-2-1.5l-.4-.7h.9zm2.9 2.9v.8l-.8-.4zm-.5-11.9l3.1-.1-1.3 3.2zm-3.8-.2h3.2l-2 2.7zM205 213l-1.4.9-.3-1.9zm-6.5.8l-.2-1.7 1.8.6zm2.8-.5l-.4-1.6 1.8.3zm1.4.2v1.7l-1.8-.9zm-1.5 4.9l.8.2-.6.7z"/><path d="M204.6 217.5l-.7-.6.9-.5zm5.2-3.5l-.7.4-.1-.9zm-7.3-3.2l.3.8-.9-.1zm2.4 4.8l-.9-.8 1.3-.5zm9.6-3.2l-.8.6-.2-1.2zm-8.5-3.8l.4 1-1.2-.1zm63.15 5.46l.65 1.14h-1.6zm-68.15.24l-.5 1.7-1.4-1.3zm-.7-4.1l.2 1.4-1.5-.4zm.5-1.7l.2 1.3-1.5-.4z"/><path d="M201.7 210h-.9l.4-.8zm3.7-.6l-1.4.8-.2-1.8z"/><path d="M201.4 207.9l3.2-.1-1.4 3.3zm-3.12-.25l2.82-.05-1.3 3.3zm2.92 9.15l-.6-.5.8-.3zm.6 4.7l-1.1-.8 1.4-.7zm-1.8-3.2l-.6-.5.8-.3z"/></g><g fill="#441b18"><path d="M131.1 416.1c-.8 2.7 3.3 3.9 4.8 4.6l25 12c.7.3 1.4.4 2.1.4l25.1-.2c1.4.2 2.7-1 2.8-2.4l.2-2.9-27.6-.1-31.5-14.1-.9 2.7z"/><path d="M138.7 402.1c-.5-.3-1.3.1-1.9.7-1 1-3 2.6-3.9 6.3l-.8 4.3 31.4 14.2 27.6.1s.1-3.7-4.3-7c-2.6-1.9-10.5-2.4-16.1-7.7-.8-.8-7.2-8.8-7.2-8.8s-1-1.4-2.5.3c-1.5 1.6-3 2.7-2.1 5 1.1 1.8 3.1 5.4 3.1 5.4s-.9 1.1-2.4.2c-1.5-1.1-3.7-4.6-4.4-4.5s-5.3 0-9-1.2c-6-2.2-5.7-6-7.5-7.3z"/></g><path d="M191.2 428.2l-26.2-.1c-1.3 0-2.6-.2-3.8-.7l-29.6-13.7.4-.9 29.5 13.7c1.1.4 2.2.6 3.4.6l26.2.1.1 1zm-21.1-16s-.4 1.8-3.1 4.7l-3.8 4c-1.3 1.3.2 2.8 1.6 3.1 2.4.7 25.5.8 25.5.8s-1.1-2.9-3.8-4.6c-2-1.2-7.1-3.4-11.9-5-1.8-.6-4.5-3-4.5-3z" fill="#cf8580"/><g fill="#823d3d"><path d="M150.2 410.2l2.1.2-1 1.9zm2.3.2l2.3.1-.9 1.4zm8.1 1.6l-1.2-1.9 1.6-.1zm1.2 2l-1.1-1.8 1.7-.1zm.8 1.3l-.7-1.2 1.1-.1zm-3.6-6.1l-.4-1.2 1.4.3zm-.2-1.6l.4-1 1.1.8zm-10.8 2.2l2.1.3-1.2 2z"/><path d="M146 409.1l2 .6-1.4 1.8zm-2.4-1l1.9 1-1.7 1.5zm-3.2-3.2l1 1.6-1.6-.3zm1.5 1.8l1.6 1.4-1.7.3zm7.4 5.5l.8-.5.1.9zm-.6.6l.3-.8.6.7zm-.8-1.7l.7-.5.2.9zm-2.7.3l.5-1 .8 1z"/><path d="M143.8 410.3l.5-1.1.9 1zm.5 1.9l-1-.8 1.2-.5zm-1.2-2.1l-.9-.7 1.2-.6zm-1.9-1.3l-1.2-.3.9-1z"/><path d="M140.9 407.5l-1.2-.3.9-1zm1 2.7l-1 .5.1-1.1zm1.1-1.3l-1 .6v-1.2zm-.9-1.6l-.9.4v-1.2zm3.3 5.3l-.9-.8 1.1-.6zm-4.2-.8l-.7-.9 1.2-.3zm11 1.3v-1l.9.4zm2.4-1.3l-.1-.9.9.3zm-.9 1.1l.7-.7.4.9zm-3.3 1.5l.1-.7.7.3zm-1.6-1l-.6-.5.8-.3zm-1.6-.5l-.5-.5.7-.3zm.2-1.2l-.6-.4.7-.4zm-1.8-1.3l-.4-.5.7-.3zm5.3 1.8l-.5-.6.6-.2zm1.5 1.9l-.6-.5.6-.3z"/><path d="M154 413.7l-.6-.4.6-.4zm1.9-1.2l-.6-.4.6-.4zm5.8-.2l-.8-.7 1-.5zm-.8-1v-1l1 .5zm-1.5-1.1l-.5-.9h1.2zm-4.2 5.2l-.6-.4.7-.4zm1.7-3.4h-.8l.3-.7zm-.7-.7l-.8.2.2-.8zm1.9 4.3l-.6-.4.7-.4zm4.7-1.3l-.7-.7 1-.5zm-5.5-1.3l-.6.3v-.6zm3.2-3.1l-.6.2.1-.5zm2 5.6l-.6.3.1-.7zm.5-2.8l-.6.2.1-.6zm-7.6 5.7l-.6.3v-.6zm-17.2-8.3h-.6l.2-.6zm15.4 1.9l-.6-.4.6-.4zm-10.1-1l-.5-.5.7-.2zm-3.5-2.7l-.3-.7h.8zm-.7-5.6l.9 1.7-1.7-.4z"/><path d="M139.4 405.5l-1.1-.6.9-.8zm-4 .5l-1-.3.6-.9zm.7-1.4l-.8-.2.6-.8zm2.7 1.9l-.3-.7.8.1zm-1-2.8l-.1-.7.7.1zm-1.1 0l-.3-.7.8.1zm16.1 12.7l-.4-.3.5-.3zm-2.7-1.1l-.5-.3.6-.3zm11.4-6l-.2.6-.6-.4zm-1.7-1.6l-.2.6-.6-.5zm.6.9l-.1.7-.7-.6zm3.2 2.8l.5.3-.6.3zm-1.1-1.8l-.1.4-.4-.3zm-1.9-1.3l-.4.2-.1-.5zm0 .6l-.2-.4h.5zm-.9-1.7l-.2-.4.5-.1zm3.1 4.4l-.2.5-.4-.3zm-2.4-5.6l-.2.5-.3-.4zm-21.8 2.3l-.1-.6.5.1zm2.6 5.2l-.3-.5h.6zm-1.7-2.7l-.2-.5h.5zm8.8 4.3l-.4.4-.2-.5zm-5.6-3.9l-.4.3-.1-.6zm3.9 1.4l-.4.3-.1-.6zm-2.6 1.9l-.4.3-.1-.6zm2.9-.1l-.5.3-.1-.4zm-1.8-1.3l-.5.2-.1-.5zm-5.5-5.4l-.5.1.1-.5zm-3.5-1.3l-.5.4.1-.6zm-1.7.2h-.5l.3-.4zm-.1 1.2l-.6-.1.4-.5zm4.1-1.3l-.4.3v-.6zm-.7-1.1l-.4.3-.2-.5zm-1.8-.5l-.5.3-.1-.6zm2.1-.4l-.6.2.1-.5z"/><path d="M137.6 404.2l.1.5h-.5zm-.6-.8l.1.5-.5-.1zm.7-.7l-.5.3v-.6zm1.3.2l-.5.1v-.5zm-2.5 1.1l-.5.4-.1-.6zm3.5.9l-.4.2v-.5z"/></g><g fill="#441b18"><path d="M308.9 431c.4 1.4 1.8 2.2 3.2 1.8l54.4-14.7c1.4-.4 2.2-1.8 1.8-3.2l-.8-2.8-59.4 16 .8 2.9z"/><path d="M305.9 417.1c-.6-.2-1.3.4-1.3 1 .1 1.3.4 3 .9 4.7.9 2.9 2.6 5.4 2.6 5.4l59.4-16s-1.2-3.5-6.5-5.1c-5.2-1.5-33.7-6-33.7-6s-1.3 0-1.7 2.1c-.3 2.1.4 3.6 2 4.3s6.8 3.2 6.8 3.2-.4 2-2.2 1.5-5.2-1.5-5.9-1.2c-.6.3-4.2 3.6-9 5.5-4.7 1.7-9.3 1.1-11.4.6z"/></g><path d="M308.0775 427.8226l59.3414-16.156.2627.965-59.3414 16.156zM339 402.8s.4 3.3-1.1 6.9c-.6 1.4-1.3 2.7-2 3.8-.7 1.2.2 2.6 1.6 2.5 2.5-.2 6.2-1 11-2.2l17.1-4.2s-1.5-2.1-4.7-2.7c-2.9-.6-21.9-4.1-21.9-4.1z" fill="#cf8580"/><g fill="#823d3d"><path d="M321.8 414l1.8-1.1.3 2.1zm2-1.4l1.8-1.3.2 1.6zm6.1-4.3l-2-1 1.3-.9zm2.3 1l-2-.9 1.3-1zm1.9 1l-1.9-.9 1.3-1zm-7.1-3.5l-.9-.8 1.2-.4zm-1-1l-.3-1.1 1.2.1zm-6.4 9.5l1.8-1.2.3 2.3z"/><path d="M317.3 416.4l1.9-1 .1 2.2zm-2.5.8l2.1-.7-.4 2.3zm-5.9.4l2 .1-1.2 1.2zm3.2 0l2.1-.5-.9 1.7zm9.7-1.6l.4-.8.7.7zm-.1 1.3l-.1-.9.9.4zm-1.6-1l.4-.9.7.8zm-2 2.2l-.3-1.2 1.3.2z"/><path d="M316.4 418.5l-.3-1.1 1.2.2zm1.6 1.2l-1.2.1.5-1.2zm-2.2-.8h-1.2l.4-1.2zm-2.6.4l-1 .7-.3-1.2zm-1.9-.5l-.8.8-.4-1.3zm3.5.7l-.3 1-.9-.6zm-.3-1.5l-.2 1-.9-.6zm-2.1-.5l-.2 1-.8-.6zm6.7 1.7l-1.2.1.5-1.2zm-3.4 1.8h-1.3l.5-1.2zm8.8-6.1l-.5-.9 1-.1zm1.9-2.7l-.6-.8 1.1-.2zm-.6 1.9l.2-1 .8.6zm-1.7 3l-.4-.5.8-.2zm-1.9.6l-.7-.1.4-.6zm-1.6.4l-.7-.1.5-.6z"/><path d="M320.1 417.1l-.7-.1.4-.6zm-2.3.4l-.8-.1.5-.7zm5.3-2.3l-.7-.1.5-.7zm2 .4l-.8-.1.4-.6zm1.3-.9l-.7-.2.3-.6zm1.1-1.9l-.7-.1.5-.7zm3.4-4.9l-.9-.1.6-1zm-1.1-.4l-.5-.8 1-.2zm-1.8-.1l-.9-.5.9-.6zm.2 8.3l-.7-.1.4-.7zm.2-4.8l-.5.5-.4-.7zm-1 0l-.5.4-.3-.6zm3.5 3.7l-.8-.2.5-.6zm2.2-5.7l-1-.2.6-.9zm1.9 1.8l-.9-.4.8-.7zm-5.3 1.2l-.3.5-.3-.5zm-.9-5.3l-.4.5-.3-.5zm6.1 2.3l-.3.5-.3-.5zm-2.6-1.3l-.3.4-.3-.5zm-2.7 10.7l-.3.5-.4-.6zm-17.7 4.1l-.3.5-.4-.5zm13.3-9.1l-.7-.2.4-.6zm-8.5 6.1l-.7-.1.3-.6zm-4.7.4l-.7-.1.5-.7zm-5.5-2.6l1.9.3-1.2 1.2z"/><path d="M308.8 418.8l-1.1.6v-1.3zm-2.4 3.5l-.7.7-.4-1zm-.5-1.3l-.6.4-.4-1zm3.4-1.1l-.7-.3.5-.5zm-2.9-.9l-.6-.2.5-.5zm-.8 1l-.8-.2.5-.6zm20.9-2.4l-.6-.1.4-.5zm-2.2.6l-.5-.1.2-.5zm4.9-12.7l.2.7-.7-.1zm-2.3-.4l.1.7-.6-.2zm1 .3l.3.8-.8-.1zm4.3.6l.5.2-.3.5z"/><path d="M330.2 405.1l.1.5-.5-.1zm-2.3.1l-.3.4-.2-.4zm.4.5l-.5-.2.4-.4zm-1.7-1l-.4-.2.3-.3zm5 2.1l.1.5-.5-.1zm-5.1-3.5l.1.5-.5-.1zM310.7 421l-.5-.1.3-.5zm6.3.9l-.5-.1.3-.3zm-3.7-.1l-.5-.1.2-.5zm9.4-2.8l-.1.5-.4-.4zm-6.5 1l-.1.5-.5-.4zm3.8-1.7l-.1.6-.4-.4zm-.7 3l-.1.5-.4-.4zm1.9-2l-.1.5-.5-.3zm-2 .5l-.1.5-.5-.4zm-8.5.1l-.1.5-.5-.4zm-3.4 2.2l-.1.5-.4-.3zm-.9 1.5l-.4.4-.3-.6zm.8.8l-.4.4-.1-.6zm2-4.3l-.2.6-.4-.4zm-2.1.6l-.1.5-.4-.4zm-1.1.6l-.1.5-.5-.3zm1.2-1.9l-.1.5-.5-.3zm-1 .5l.5.2-.5.3zm-.7-.4l.4.2-.4.4zm-.2-.8l-.1.4-.5-.3zm1.2-1l-.1.4-.5-.3zm-.9 2.7l-.1.5-.3-.4zm3.2-2.5l-.2.5-.4-.3z"/></g><g fill="#ad5c49"><path d="M288.6 289.1l.5-1.1-1.5.1zm5.1 3.7l.9.3-.3-1.3zm-11.1 7.7l.8-.4-.7-.6zm12.7 1.2l.7-.3-.6-.6zm-14.8-9.8l.5.5.3-.6zm7.9 1.4l-.4.5.7.1zm2.7 3.1l.9.4v-1.1zm-2.6-.3l.4-1.1-1.4.1zm-6.3-.1l1.1.1-.4-1.1zm-10.8 2.8h1.1l-.5-1.1zm-4.4-.8h1l-.4-1.1zm23.7-3.6l-1.4-.2.3 1.5zm-3.5 2.5v-1l-1.1.6zm-6.7 2.2l1.2-.4-1-1zm-1.8-1.6l1.2-.4-1-.9zm-5.8-.2l1.2-.4-1-1z"/><path d="M268.9 298.7l1.2-.4-1-.9zm3.4-4l1.2-.4-1-.9zm8.2 2.1l1.2-.4-.9-1zm-1.7-2.7l1.2-.4-.9-1zm15.5 2.3v-1.2l-1.3.6zm-4-6.4l1.2-.4-.9-1zm4.6 4.9l-.2-1.4-1.5 1.4zm-16.9 4.7l1-.3-.8-.8zm-3.4-2.4l1.1-.3-.8-.8zm-3.2-.9l.5 1 .7-.9zm16.7-9l1.8 1.8.3-2.9zm-7.1 3.1l1.3 1.5.8-2.4zm3.8.8l.4-1.8-1.9.1zm5.6-5.1l.9 1.5.2-2zm-10.2 9.3l.9-.4-.8-.7zm-7 5.7l.9-.4-.8-.6zm7.1-1.3l.6.5.4-.7zm7.1-12.1l-2.5 1.2 2.4 2.2zm1.8 3.2l.9.3v-1zm-15.7 2.4l1.4 1.3.9-2.1zm7.3-2.8l-1.7.7 1 1.7zm5.5 0l-1.2 1.8 2.5.2zm-.4 2.6l-.8-.2.1.8zm2.9 6.1l-.8-.2.1.8zm5.6.8l-.8-.3.1.9zm-1.5 1.9l-.5-.6-.5.7zm3.8 1.6l-.3-.7-.6.6zm-15.8-.9l-.8-.3.1.9zm-15.3-3.8l-.8-.2.1.8zm9-3.2l-.8-.2.1.8zm1.6-.9l-.7-.2.1.8zm16.7-.9l.3-.8-.9.1z"/><path d="M285 295.7l1.3.1-.5-1.3zm7.5-4l-1.5-.3.3 1.6zm-.1 3.1v-1.2l-1.3.7zm.1-7.5v-1.2l-1.3.7zm-10.5 7.9l1.2-.4-.9-1zm10.1 2.4h.9l-.2-1zm-1.5 1.8l1-.1-.3-.9zm-19.2.9l-.6-1.2-.9 1.5zm-4.9-3.7l-.6-1.2-.9 1.6zm1.3-.2l.6-1.7-1.5.5zm3.4 8.5l-.7-.1.2.8zm-3.8-2.3l-.7-.1.2.7zm8.6-2.1l-.7-.1.2.7zm-7.8.3l-.5-.6-.4.7zm26-1.8l.9.1-.1-1zm1 .7l.9-.1-.3-.9z"/><path d="M293.5 289.4l-.5-1.8-1.5 1.5zm-1.5 2.2l-.1-1.2-1.3.6zm-15.8.7l2 1.7.7-2.8zm-1.8 6.3l1.2.9.3-1.6zm-11.6-2.4l1 .8.6-1.2zm13.7-.5l1.2 1 .3-1.6zM294 291l-.4-1.3-1.2 1.2zm1.6 6.8l-.3-1.4-1.4 1zm-13.5-4l2.3-.5-1.6-2zm-13.3.8l1.6 1.4 1.1-2.1zm19.5-3.9l.6 1.1.9-1.1z"/></g><g fill="#9b583b"><path d="M184.1 280.5l.2.3.3-.4.3.1-.1-.3v-.1h-.1l-.1-.3.2.1.6 2 .8-1.3v.1l1.3-.8-1.4-.9.1.9-.8-.1.2-1.1h.6l1.7.7v-.6h.1l-.1-.1-.1-1.8-.7.7-.5-.7 1.8-1.5-2.7-1.3v1.5l-.7-.5-1.8 3.6.8-.2-.2.4h.2l-1.6 1.1 1.7.5zm.3-1.8h0l-.2.2-.1-.1.3-.1zm1.5 6.9l.7-1.8-2.3.2.6.6-.6.5 1 .4-.2-.8.8.9z"/><path d="M186.46 274.48h.9v.9l1.2-.8v.8l.1-.1.2 1.6-.9.2.7.6.2-.7 1.4-1 .1.3.8-.9-.3-.1-1.2-.7.5-.3-.5-.3.7-.7-.7-.3h1l-.4-.6.5-.2-.7-.5-.1.4-.6-.8-.5-.6-.9-1.2v.1l-.1-.1-1.1 2.4-.5 1h.1l-.1.1.5.4.1.6-.5-.8.1 1.3zm2.2-1.2v.6l-.8-.5v-.2l.8.1zm17.94-38.58l.9.1-.3-.9-.6.8zm-4.9 1h-.2l.2-.2-2.2-.9.7 2.3.7-.8.8-.4zm-2.1 18.4l-.2-1.6-1.4 1.1 1.6.5zm-1.7 8.2v-1.6l-1.4 1.1 1.4.5zm11.9-5.2v-1.6l-.3.2-1-.5.1 1 .9-.5-1.1.7 1.4.7zm-6.2-11.7l-1.4 1 1.4.6v-1.6zm-.8-2.2l-.1-1.6-1.4 1 1.5.6zm-6 25.6v-.4l.1.3 1.3-.9-1.5-.5v.2l-1 .8 1.1.5zm2-37.4l.1.2-.7.1.5.7.9-1.5.2-.4-.6.1-.4-.4v-.1l-.1.1-.2-.2.3-.2-.6-.2v.2l-.3-.9-.6 2.6.7-.2.8.1zm.1-.5h0zm-.9-2.5l1.1.5v-1.4l-1.1.9zm13.5 5.2l-.7.3.4.3-.2.3h.7l-.2-.3v-.6zm-11.3-1.1l.2-1-.9.5.7.5zm2.1-4.3l1-.1-.7-.7-.3.8zm14.9 3.2l-.4.6.6.1-.2-.7zm-1-2.9l.5-.3-.6-.2.1.5zm4.4 1.7l.5.4v-.6l-.5.2zm-16.2-4.4l.4-.8h-.8l.4.8zm-5.5 25.4h0l.4 1.2 1.5-1.4-2.1-.8.2 1zm6.5 4.9h-.9l.4.9.5-.9zm-9.5.3l.3 1.1 1.5-1.3.1.6-.1.1.2.1v.1l.7.3v-.5l1 .4-.2-1.9-1.2 1-.7-.3.5-.5h-.1l1.1-.2-.9-.7-.2 1-.8-.3.3.9h.1v.2l-1.3-.6-.1-.2-.1.1-.6-.3.2.9-.1.2.4-.2zm4.4-12.6l-.6 1h.3l-.1 2.1.4-.3-.2.3h.1l.1.3-.2-.1.3 1.4.2-.1.5.1-.1-.4.8-.6-.8-.2.1-.2-.6-.2h.5l-.3-.7 1-.6-1.5-.8h.4l-.3-1zm9 8.1h-1.2l.7.9.5-.9zm-1.2-5.3l.9-.4-1-.4.1.8zm-5.1 14v.8l.9-.4-.9-.4zm-5.5-1.9h-1l.6.7.4-.7zm7.6-9.6l.3-.6h-.8l.5.6zm-.5-4.6v.5l.5-.3-.5-.2zm.2-7.1l.1-.8-.6.2.5.6zm1.8 2.8h.7l-.3-.4-.4.4zm-5.2-.7l.2.6.4-.4-.6-.2zm8.7-10.1l-.6.2.5.5.1-.7zm-3.3 3.4l.4-.4-.6-.2.2.6zm-4.9-5.8l.2-.7-.6.2.4.5zm1.9 2.8h.6l-.3-.4-.3.4zm.4-6.9l-.3.4h.5l-.2-.4zm-3.9 0l-.5-.2.1.5.4-.3zm16.9 15.7l.6-.4-.6-.3v.7zm-3.4 5.2l-.6.1.5.4.1-.5zm-3.5-5.3l-.2.5h.6l-.4-.5zm3.1 15.7l.5-.1-.4-.4-.1.5zm-1.7-5.6l.4-.5h-.6l.2.5zm-8.8 7.9l.3-.1-.7-.7-.3 1.1.4-.2-.5.5-.5-1-.7 1-1-.4.7 2-.3.3-.1-.2-.6.8h1l-.1-.2h.5l-.2-.5 1.4-1.3 1.5.1-.8-1.2zm-1 1.1h0zm-5.5 12.7l1-.6-1.7-1-.2 2.3.9-.7.4 1.6 1.1-1-1.5-.6zm-3.5 4.4l-1.3-.5 1.7-1.2h-.1l.4-.3.1.2.7-.6-1-.4.1.6-.5-.3-.1.7-1.5-.8-.2 2.3.1-.1.4 1.4.3-.3.4 1.5 1.4-1.4-1.4-.5.5-.3zm5.6-4.1l.1-.6-.6.3.5.3zm8-14l-.9 1 1.4.1-.5-1.1zm-5.3 5.5l-.2-.3-.6.8h.6l.1.5.7-.6-.6-.4z"/><path d="M199.6 253.2l.8.6.2-1.1-1 .5zm2.8-20.8l-1.2.1.5.9.7-1zm3.8-3.7l-.3-.9-.6.6.9.3zm1 6.7l-.1.9.9-.5-.8-.4zm-9.9 1.3l.5-.6 1.6-.4-.8-.7.2.1v-.5l1.2.5v-.1l.8-.6-.9-.4v-.7l-1.1.9v-.4l.3-.2h-.6l.6-.5-1.6-.6.2 1h-.1l.1 1.1-.2.2-.7-.6-.5 2.6.5-.1h.5zm6.2 1.7l-.2-.5-.5 1h.4v.3l.4-.2h.1v-.1l.3-.2-.5-.3zm-.3-2.5l-1 .6 1.2.4-.2-1zm-.3-4.8l-.3-1-.6.6.9.4zm1.8 2.5l-.1 1 .9-.5-.8-.5zm-3.7-3.4l-.4-1.1-.6 1 1 .1zm.4-5.3l.1.9.8-.5-.9-.4zm8.3-1l-.6.3.6.5v-.8zm-8.6 1.8l-.1-1-.7.7.8.3zm-.6-5.8v.7l.8-.3-.8-.4zm5.6 4.7l.2-.8-.7.2.5.6zm-1.4 4.4l-.1 1 .9-.5-.8-.5zm-11.8 56v-1.4l-1.1.9 1.1.5zm-1.1 1.2v-1l-.8.6.8.4zm.4-5.8l-.1.7.8-.2-.7-.5zm4.3 5l.4.7.3-.7h-.7zm3.8-1.1l.4-.8h-1l.6.8zm-5.4-1.2l.7.1-.2-.8-.5.7zm5-4.3l.7-.4-.7-.3v.7zm1.9-1.3l.4-.8h-1l.6.8zm-4.7-1l-.2-.8-.5.6.7.2zm4.3-5.1v.7l.7-.4-.7-.3zm-12.5 14.2l.4-.7-1-.1.6.8zm-1 2.2l-.1-.8-.5.6.6.2zm1.2-7.3l-.1-1.1-1.9 1.3.4.1 1.2.5v-.1l.6.2v-.3l.5-.3-.7-.3zm-1 3.1l-.2-.8-.5.6.7.2zm-1.6 3.1h.7l-.3-.8-.4.8zm3.7 2.6l.9-.3-.8-.5-.1.8zm2.7-3.9l-.2.7-.3-.1.3 1.1.7-.6-.4-.1.7-.2-.8-.8zm5.5-21.5l-.5.4 1.6.7v-1.1l.3.1.8.6.3-1.2-.4.2-.4-1.4-.7.9-.2-.3-.3.4-.3-.7-.3.6v-.1l-.6.6.7.3zm.1-.3l-.1.1h.3l-.2.2-.1-.3h.1zM181 283l1.3 2.3 1.8-2.9.2-.1-.2-.4.3-.4-.4-.1-1.4-1.1-1 1.8 1.2.3-1.8.6zm20.1-27.7l-.2-1.9-1.5 1.3 1.7.6zm-2.9 21.6l-.4.3h-.1l-1.1.9 1.6.6v-1.1l.8.8.5-1.5h-1.3zm-.8-9.7l.1-1.3-1.1.8 1 .5zm.5-7.1l1.1-.2-.9-.7-.2.9zm6.5 7.1l.5-1.1-1 .1.5 1zm5.4-3.7h-1.3l.8 1.1.5-1.1zm-7.2-1.5l-.7.9 1 .2-.3-1.1zm7.4 16.7l.6-1.1h-1.3l.7 1.1zm-6.7-2.5l-.7.9 1 .2-.3-1.1zm6.3-5l1-.4-1-.5v.9zM198.5 291l1 .2-.2-1.1-.8.9zm7.1-5.9l1-.5-1.1-.5.1 1zm-1.8 3.6l.5-1-1.3-.1.8 1.1zm-7.5-1.6l1 .2-.3-1.1-.7.9zm6.9-5.8l1-.5-1-.5v1zm-3.4-4.9l-.5-2.4-1 1.1-.2-.4-.8 1h.5l-.1.1 2.1.6zm4-3.9l-1-.5v1l1-.5zm-10 7.8l-1-.4.3 1.1.7-.7zm6.9-14.1l-.8 1.1h1.4l-.6-1.1zm-5.8-2.9l.2-1.1-1 .6.8.5zm-5.2 21.2l1-2.1-1.9.1.9 2z"/><path d="M191.8 278.3v-.5l-.7.6H190l1 2 .6-1.3.2.1v-.6l.1-.3h-.1zm13.4-19.6h-1.3l.9 1.1.4-1.1zm1.5 2.2l1 .2-.3-1.1-.7.9zm-18.8 8.4l2.3-.2.4.1v-.1l.4-.1-.3.3-.8.1.3.3-.1.1.5.2.2.2-.6.5.3.1.5.5-.1.1.8.5.2-1.1-.4.2.1-.4h-.2l.1-.3h.1v-.3l.3-1.1-.4.1v-.2l.6-.1.2.6.9-.8h.2l-1.3 1.1 1.6.5-.1-1.8.3-.5.5-.5-.5-.2 1.7-.2-1.5-2.6-.9 2.2-.1-.4.6-.8-.6-.1v-1l1.1-.1.4.2.1-.8-.5.3-1.3-1.2 1-.9.2.2.3-.4.4 1.4-.2-.1.3 1.4.1-.1.1.3 1.8-2-2.7-1 .3-.5-1.2.1-.5-.2v-.2l-.1.1-.4-.2 2.2-.5.2.9 1.5-1.4-.7-.3-.5-1.9-.3.3v-.8l-1 .9v-.7l.9-.8-1.7-.6 1.2-.2-.1.2.9-.3 1.5-.3-.5-.4 1.5-1.4-.3-.1 1.3-1.3-.5-.2.5-.5-2-.8.2.9-.1-.1v.1l-.5-.2.1-.1-1.7-.6 2.1-.4.8.9.4-.9h-1.1l1.1-.2-1.2-1.2.1-.3.3.2.2-1.1-.4.2.1-.4-1.1.2.5.5-.2.1.3.2-.2.1-1.3-1.7-.7 3.5-.5 1.8.8-.3.2 1 .5-.5.3.3.2-.8.1-.1.2.8h-.4l.6.7v.1l-.9-.4.3 1.1-1.4-.3-.2-.5-.4-.6-.9 3.7.4 1.5-.5.4-.2-.7-.8 4 .7-.2.1.5-.4.3-.9-.3-1.1 3.3.8.1.3 1-1.3-.5-1.8 3.9zm7.4-15.7l.3 1.1-.8-.7.5-.4zm-1.9 4.7l-.2.1.9.4-.2.3-1.3-1.2.8.4zm-1 4.1h0l-.1-.1.1.1zm-.5 2.3h.3l-.5.4.2-.4zm-.4 1.9l.5.2.3.6.3-.4.4.1-.1.3h.6l.1.5-.8.1-1.3-1.4zm-1-1.7l.6-.1.3.3h-.1l.1.2-.9-.4zm9.9 5.7l-.2.2-.4-.2v.4l-.5.6h1.1l-.1-.3h.6l-.5-.7zm2.5-2.7l-1.2 1.4 1.9.1-.7-1.5zm-8.4 10.2l-.1-.2-.1.1-.5-.2.5-.2-.9-.8-.4 1.3.8-.3.1.6-.4.5h.5l.3 1.1 1.5-1.3-1.3-.6zm6 2.4l-.8.5.6.4.2-.9zm5.4-11.1l1.6.1-.6-1.2-1 1.1zm-4.4 4.9l-.8-.4-.2-.4-.2.2-.5.6h.7l.1.6.9-.6zm-3.5-24.5l1.9-1.4-1.7-.9-.2 2.3zm5.8-8.8l-.2-1.9-1.5 1.2 1.7.7zm11 13.3l.5-1.1H214l.8 1.1zM208 252l-.7.9 1 .2-.3-1.1zm7.1-5.6l-1-.5v1l1-.5zm-11.2 3.5l-.9 1-.2-.3-.3.4v-.1l-.2.2-.4-.7-.7.9h1l-.3.3.7.1 1.8.3-.5-2.1z"/><path d="M207.4 248.9l1-.5-1.1-.5.1 1zm-3.1 4l-1.8.2 1.2 1.3.6-1.5zm-2.6-8.3l1.3-.9-1.5-.5.2 1.4zm4-3.1h0v-.4l-.8.3.5.5-.5.7h1.4l-.6-1.1zm-6.5-3.1l.2 1.1 1.5-.9-1.1-.3.1-.6-.7.4-.2.1.2.2zm-3.8 3.3l-.9 3.7.7-.1-.1.6-.1.1-.1.3.5-.1 1.1.5v-.7h.1l-.1-.1v-.7l1.2-.2.3.3-.8.6.5.2.8.6v-.3l.4.2v-1.5l.2-.3h-.2v-.1l-.1.1-.4-.4 1.1.2-.3-1.1 1.7-.2-1.4-2.7-.7 1.4v-.1l-1.2 1.6-.8-.8.5-.5h.1l.4-.3.4.2v-1.3l.1-.1h-.1v-.1l1.6-.3-1.8-1.5.1-.1v.1l1-.9.1-.2.3-.3h-.1l.2-.4-.9.1-1.3-.5.6 1.8-.5-.2v.1l-1-1-.9 3.7 1.8-.4v.1l-.7.5-1-.4.2.8v.1h-.5zm3.2 3h0zm-2.6.5l-.1.1-.1-.1h.2zm8.9 1.3l-.4.5-.1-.2-.6.8h1.1l-.2-.3h.6l-.4-.8zm2.6-2.8l-1.3 1.4h1.9l-.6-1.4zm2.9 1.5h1.6l-.6-1.2-1 1.2zm-4.3 4.8l-.8-.4-.2-.4-.2.2-.5.6h.7l.1.6.9-.6zm-1.2-9.8l.7-.5-.5-.2v-.1l-.2.1-.1-.1v.1l-.9.4.9.7.1-.4zm-4.4-17.1l-1.1.2.9.8.2-1z"/></g></svg>