<svg xmlns="http://www.w3.org/2000/svg" viewBox="0 0 480 480" xmlns:v="https://vecta.io/nano"><path d="M405.76 331.53v-.1c-.01.07-.01.1 0 .1z"/><g fill="#fff"><path d="M305.56 186.9c12.1-7.2 35.6-22.4 35.6-22.4s6.27-3.22 11.7-8.5c4.47-4.34 5.5-6.2 5.8-7.6.26-1.33-1.1-1.4-1.1-1.4s1.6-1.7 1.1-2.8c-.6-1.2-1.9-.5-1.9-.5s.2-1.6-.4-2.1c-.6-.6-2.9.6-5 1.9-1.7 1.2-7 3-7.9 3.5s1.2-1.92 2.2-3.32c1.3-2 .66-3.57-1.74-1.67s-4.46 3.5-5.06 4.1-2.1 1.5-3 2.7-.7 1.9-.7 1.9-.6.9-3.6 2.1c-4.9 1.9-28.8 9.6-38.3 11.8-4.7 1.1.2 29.5 12.3 22.3zm-166.6-16.7c-3.5 13.7-9 42.1-9 42.1s-2.5 5.2-2.7 12.8c-.1 4.5 2.2 1.9 2.4 3s2.3 1.9 3.5 2.4c1.3.4 2.1.8 2.1.8s1.5 1.5 2.3 1.5c.9 0 1.9-2.3 2.1-4.4s.2-2.2.5-3.1c.3-1 .4 2.3.6 4s2 2.8 2.3-.2c.3-3.1 1-5.6 1-6.4 0-.9-.2-2.9-.4-4.4l-.2-1.5s-.3-1.2 1.1-4 16.4-31.2 18.9-35.3c3.2-5.3-21-21-24.5-7.3z"/><path d="M138.46 225.1c-1.57-.52-2.53 1.77-2.88 3.5.3-1.9.56-4.5-.82-4.9-1.02-.3-1.88 1.17-2.4 2.72.07-1.36.4-3.04-.6-3.32-1.3-.3-2.2 1.4-2.5 3.6s-.1 3 1.3 3.2c.5.06.97-.5 1.3-1.22-.24 1.6-.3 3.05 1.4 3.32 1.46.16 1.93-1 2.16-2.35-.15 1.5-.04 2.97 1.54 3.15 1.7.2 2.1-2.8 2.2-3.7s.9-3.5-.7-4zm-9.6-2.6c-1.1-.2-1.8 1.2-2 2.9s-.1 2.4 1 2.6c.7.1 1.4-1.4 1.5-2.5s.4-2.8-.5-3z"/></g><path d="M138.56 224.7c-.5-.2-1-.1-1.5.2-.3.2-.58.52-.82.9-.04-1.17-.37-2.26-1.38-2.6-.4-.1-.8 0-1.2.2-.3.18-.6.48-.84.85-.05-.8-.3-1.47-1.06-1.65-.4-.1-.9 0-1.3.3a2.68 2.68 0 0 0-.59.62c-.06-.63-.3-1.15-.9-1.32a1.39 1.39 0 0 0-1.1.2c-.9.6-1.3 2.1-1.4 3-.2 1.5-.2 2.8 1.4 3.1h.1c.2 0 .4-.1.6-.2.02-.02.04-.05.07-.07.05 1.04.46 1.87 1.73 2.07h.2c.26 0 .44-.01.68-.2.04.53.16 1 .42 1.4.4.5.8.7 1.5.8h.4a1.78 1.78 0 0 0 1.51-.75c.08.35.2.7.4.95.3.5.8.7 1.4.8h.2c1.9 0 2.3-3.1 2.5-4.1 0-.1.1-.3.1-.5.2-1.2.6-3.5-1.1-4zm-10.4 2.8c-.1.1-.2.1-.2.1-.6-.1-1-.2-.7-2.1.2-1.2.6-2.2 1.1-2.5.1-.1.2-.1.3-.1h.2c.4.1.3 1.2.2 2-.1.2-.1.4-.1.6-.1.8-.4 1.7-.8 2zm2.4 2c-.8-.1-1.3-.3-.9-2.7.2-1.5.7-2.7 1.3-3.1.2-.1.3-.2.5-.2h.2c.6.1.4 1.5.3 2.5v.01c-.25.7-.42 1.38-.5 1.9l-.16.9c-.13.26-.28.47-.44.6-.2.1-.3.1-.3.1zm2.8 2c-.4 0-.7-.2-.9-.4-.5-.6-.3-1.67-.1-2.86.12-.38.2-.78.27-1.15.36-1.28.92-2.5 1.54-2.9.1-.1.2-.1.3-.1h.2c1.1.25.9 2.5.7 3.8a12.7 12.7 0 0 0-.31 1.41c-.06.28-.1.6-.1.93-.26.96-.68 1.42-1.6 1.28zm5.4-3c0 .3-.1.4-.1.6-.3 2.4-.9 3.5-1.7 3.4-.4 0-.7-.1-.9-.4-.4-.6-.3-1.8-.2-2.6.2-1.2.8-3.2 1.7-3.8.2-.1.3-.2.5-.2h.2c1 .3.8 1.7.5 3z"/><g fill="#fff"><path d="M142.76 288.6l-50.7-16c-4.8-1.5-7.4-6.6-5.9-11.4l8.9-28.1c1.5-4.8 6.6-7.4 11.4-5.9l50.7 16.1c4.8 1.5 7.4 6.6 5.9 11.4l-8.9 28.1c-1.5 4.6-6.6 7.3-11.4 5.8z"/><path d="M157.16 243.2l-4.9-1.6c4.4 1.7 6.8 6.6 5.4 11.2l-8.9 28.1c-1.5 4.8-6.6 7.4-11.4 5.9l-45.8-14.5c.2.1.4.1.5.2l50.7 16.1c4.8 1.5 9.9-1.1 11.4-5.9l8.9-28.1c1.5-4.8-1.1-9.9-5.9-11.4z"/></g><path d="M154.47 265.3l-.23.53c.03-.01.1-.14.23-.53z"/><path d="M188.96 206.1c0 .2-.1.9-.2 1.1v.1c0 .3-.1.4-.1.5v.1h79.6s-4-53.2-6-64.7c-2-11.6-13.1-42.3-37.3-41.6-4.1.1-5.96.26-9.86 2.66-1.15 1.4-1.87 1.43-3.4 3.08-1.7 1.4-8.63 6.85-13.33 32.65-2.1 11.6-9.4 66.1-9.4 66.1zm-34.3-8.1l-3.8 6.4-19.9-6.6 1.6-9.7z" fill="#fff"/><path d="M91.86 271.22c.01 0 .02.01.02.01l.13.03-.15-.04z"/><path d="M338.54 165.5c.7-.97 1.12-2.17 1.12-3.48 0-3.3-2.6-5.9-5.9-5.9l-.64.03-2.16-3.73c-.3-.5-.9-.7-1.5-.5l-2.6 1.1c-.5.3-.7 1-.4 1.7l2.34 4.08a5.96 5.96 0 0 0-.94 3.22c0 3.3 2.6 5.9 5.9 5.9h.27l.93 1.6c.3.6 1.1.8 1.6.4l2.4-1.4c.6-.3.8-1.1.4-1.6l-.82-1.42zm-27.28-7.2l7.2-1.9 9.4 18.7-8 5.7z" fill="#fff"/><path d="M97.46 227.64c.01-.01.02-.01.02-.02l.13-.2-.15.22zm59.44 30.06h-.04c0 .02.02.02.04 0zm-58 18.24h0l-.23.02zM336.66 159.7l-2.13 1.38a1.19 1.19 0 0 0-.77-.28c-.7 0-1.2.5-1.2 1.2-.1.7.5 1.2 1.2 1.2.36 0 .66-.13.87-.35l1.23.55h.1c.2 0 .3-.1.4-.2.1-.2 0-.4-.2-.5l-1.24-.5c.01-.07.04-.12.04-.2 0-.1-.03-.2-.05-.3l2.15-1.4c.2-.1.2-.3.1-.5s-.3-.2-.5-.1z"/><path d="M358.9 147.5c-.08-.23-.36-.48-.4-.5a.78.78 0 0 0-.29-.12l-.04-.01c0-.01.02-.02.03-.03l.07-.07.12-.14c.07-.1.1-.1.2-.24.1-.14.2-.3.3-.46.17-.32.33-.68.38-1.12a1.54 1.54 0 0 0-.09-.72c-.1-.24-.2-.43-.38-.62-.18-.2-.4-.34-.67-.43-.13-.04-.26-.07-.4-.08l-.17-.01c-.06 0-.1.01-.16.03-.02 0 .01-.07 0-.1v-.18a4.03 4.03 0 0 0-.06-.47c-.03-.16-.08-.33-.16-.5-.08-.2-.24-.4-.4-.56-.25-.2-.57-.3-.9-.3a2.94 2.94 0 0 0-.71.11c-.42.1-.8.26-1.15.42-.72.32-1.4.7-2.06 1.1l-1 .6c-.3.2-.6.37-.93.54l-2.03.93-3 1.23-.17.08c-.1.06-.08-.04-.04-.08l.2-.3.86-1.15c.23-.3.47-.7.64-1.07.16-.4.33-.77.32-1.35a1.39 1.39 0 0 0-.26-.83c-.2-.23-.46-.36-.76-.4-.14-.02-.3.02-.44.02-.14.02-.26.07-.4.1a4.05 4.05 0 0 0-.59.29c-.72.45-1.25.94-1.85 1.4l-1.75 1.4-1.73 1.4-.43.38c-.15.15-.24.22-.38.34l-.86.66c-.58.45-1.17.93-1.68 1.53-.5.6-.97 1.26-1.05 2.2v.07c.01.03 0 .05-.02.06a3.64 3.64 0 0 1-.54.41c-.24.16-.5.3-.76.45-.52.28-1.07.52-1.62.74l-.26.06-.03-.06c-.42-.7-1.26-1-2.12-.7l-2.66 1.13c-.56.34-.84 1-.77 1.68h0c-.43.12-1.1.32-.46.08l-2.3.82-1.45.4c-1.8.56-1.54.62-2.56 1l-.4-.66-.56.2c.3-.07.2 0 .07.06-.24.07-.47.05-.6.12l-.04-.1c.1.07-.47.22-.53.28-.13-.04.28-.14.3-.2l-1.14.3c-.01 0-.01.01-.02.01l-.6-1.34.14.25-1.3-2.72-1.48.6-1.1.42-1.47.56-2.84 1.04-5.84 1.73c.25.1-2.27.66-1.6.67-2.44.7-4.7 1.06-6.56 1.2l-4.18.27c-.55-.05-.98-.15-1.34-.22l-.88-.28c-.5-.17-.82-.37-1.35-.57.16.06.33.1.5.15-1.9-.7-3-1.5-3.94-2.24-.95-.75-1.7-1.52-2.76-2.7-1.06-1.16-1.45-1.2-3.16-3.5.65.67-.08-.24-.72-1.1.43.54.58.7-.2-.48a9.42 9.42 0 0 1-.52-.6c0-.01-.03-.06 0-.05-1.1-1.43-.93-1.16-.45-.48-.04-.02-.01.04.12.27l-3-4.54-8.06-11.24c-.2-.47.46.35 1.23 1.42l-1.84-2.63c.13-.05 1.1 1.48 1.7 2.28-1.98-3.28-4.64-6.37-7.07-10.14l-.62-.7-.14-.23c-.04.04-.68-.73-1.1-1.26-.3-.58.26-.13-1.1-1.9-.98-1.5-3.22-3.88-4.88-5.5.85.92.52.67.12.3-.77-.8-1.16-1.33-1.8-1.9l.02-.15c-.1-.01-.56-.4-1.08-.86-.01-.01-.02-.01-.02-.02l-.54-.55c.3.24.57.46.66.5-1.07-.97-1.65-1.44-2.03-1.76-1.68-1.47-3.46-2.8-5.34-3.92-2.34-1.4-4.85-2.42-7.4-3.1.23 0-.16-.18-1.4-.5l1.06.12c-.8-.15-1.57-.3-2.36-.38-.08-.1-.5-.12-1-.13-.44-.1-.9-.17-1.4-.24-.68-.03-1.4-.15-2.06-.1-1.34.01-2.46.22-2.95.2 0 0-.3.04-.78.15-.46.1-1.1.2-1.74.44-.12.02-.24.03-.36.06-1.2.3-2.3.8-3.3 1.33-.4.16-.82.3-.52.1a63.55 63.55 0 0 0-2.69 1.7c-1.07.7-2.1 1.52-2.73 1.94l.2-.2c-1.62 1.26-2.9 2.6-3.96 4.03-5.47.98-10.74 2.33-15.63 3.72l-.5.01c-.13-.07-.84.24-1.57.56-.73.33-1.46.7-1.7.68l-1.18.54c-.35.1-1.1.32-.5.05-1.12.4-1.14.43-1.9.83l-1.23.37c-4.42 1.67-7.87 3.77-12.22 6.15-1.3.73-2.86 1.67-4.56 2.72-1.62 1.17-3.4 2.4-5.12 3.76-3.44 2.77-6.4 6.12-8.4 8.67-2.75 3.63-5.6 7.63-8.1 11.9-2.5 4.26-4.7 8.73-6.28 13.1-.14.27-.36 1.02-.34 1.02-1.06 2.62-2.03 5.28-2.92 7.96 0 0-.83 2.43-1.75 5.67s-1.92 7.28-2.5 10.4c-.6 3.13-.8 5.35-.47 4.86.1-.15.27-.58.5-1.32l-.25 1.37 1.22.44c-.04.1-.07.22-.08.36-3.2-.8-1.97-.1-.02.76-.12.44-.24.94-.34 1.4.1-.05.06.13.05.3l-.08.01c-.01.35-.06.4-.1.46-.03.03-.05.06-.08.12-.02.07-.06.3-.1.6.02.07.05.14.07.2 0 .2-.01.33-.03.44.24.07.3.13.42.2.1.06.4.16.8.2-.38-.1-.04-.2.24-.06l-.1.04c.18.04.25.04.36.1-.1 0-.1.05.05.1 0 .02-.01.04-.01.06l-.07.01h.06c-.54 2.47-1.02 4.54-1.55 7.85.1-.7-.1.3-.1.23l-.66 3.62c-.18 1.02-.25 1.74-.17 1.65-.75 1.8-.62 1.45-.78 1.66.07.01-.46 1.6-.8 3.07a8.28 8.28 0 0 1 .15-.68c-.34 1.3-.6 2.6-.8 3.92-.6.14-1.2.22-1.85.34l-.23.18h-.08c.02.05-.24.2-.42.27-.2-.06-.07-.26-.7-.08-.5.1-1.32.64-1.87 1 .32-.17.25-.04.14.06-.27.18-.48.18-.66.36l-.1-.12c.2.06-.62.6-.68.7-.22.01.36-.35.38-.47-.55.35-.66.47-.78.58s-.24.2-.73.64c-.44.54.2.03.04.34-.4.44-.7.95-1.22 1.4.08-.03.16-.06.24-.08-.6.94-.97 1.46-1.45 2.04a13.77 13.77 0 0 0-.53 1.64c-.03.08-.06.15-.1.22-1.68-.6-3.36-1.14-5-1.56-.6-.26-1.12-.5-2.13-.68-.22-.04-.18.01-.07.07l-1.13-.36-1.15-.37c-.15-.05-.33-.1-.5-.15a14.12 14.12 0 0 0-.48-.15 9.93 9.93 0 0 0-4.05-.31c.26.1-.44.18-1.12.4l-.1-.1c-1.3.5-1.52.6-1.8.64a1.52 1.52 0 0 0-.5.17c-.24.1-.6.3-1.13.75-.1.15-.2.3-.3.46-.44.44-.7.74-.9.95l-.47.45c-.26.26-.6.54-1.1 1.85.35-.7.42-.56.22-.01-.06.03-.14.1-.24.23-.28.4-.6 1.06-.88 1.73l.01-.1-.03.15a3.06 3.06 0 0 0-.11.27c-.3.76-.48 1.43-.48 1.43-.23.8-.4 1.55-.52 2.3-.25.8-.46 1.47-.64 1.73 0 0-1 2.9-1.04 3.63.08-.62-.48.98-.46.48-.12.8-.72 3.07-1.14 3.93l.04-.17c-1.2 3.28-1.6 5.74-2.72 8.67.18-.1-.4 1.46-.1 1.12-.4 1.57-.94 2.95-1.35 4.1-.44 1.24-.53 2.35-.26 2.98.01.8.03 1.26.05 1.64 0 .38.02.66.1 1.07l-.12-.37c.37 1.47.83 2.35 1.3 3.1.48.73.94 1.37 1.77 2.13.9.66 1.14.65 2.87 1.53-.3-.08-.28-.05-.1.05.07.03.17.06.27.1l-.08.2c.05.03.1.04.15.06l-.01.04 3.38 1.18c-.06-.08-.01-.1.1-.08l.96.3.02.08c2.42.6.8.54 3.18 1.15l.47-.03c2.2.44 1.07.6 3.53 1.03-.28-.08-.4-.15-.45-.2l1.54.46c.16.06.32.13.48.18.1.07.37.18.85.32l-.67-.05 1.83.35c1.32.55 3.53 1.08 4.04 1.42 0 0 2.9 1 3.64 1.04-.62-.08.98.48.48.46.63.1 2.17.5 3.22.86l.08.06c.03.07.23.14.5.2 2.4.86 4.35 1.32 6.38 1.94l1.47.48a23.81 23.81 0 0 1 .77.28c-.01-.02.01-.02.03-.03 2.5.76 4.92 1.4 7.67 2.3 1.1.42 2.46.9 3.95 1.38l2.33.74 1.2.38a13.52 13.52 0 0 0 1.36.33c.94.17 1.9.18 2.84.1.93-.12 1.84-.34 2.66-.68 1.33-.55 2.43-1.36 3.27-2.2a9.01 9.01 0 0 0 2.44-3.55c.43-1.2.68-2.24.93-3.34l.18-.5c.25-.36.55-1.44.82-2.37l.56-1.6c1.06-3 2.1-6 2.97-8.95.01 0 .01-.02.02-.02l2.8-9.18.4-1.3c.13-.4.28-.9.44-1.43l.24-.95c.05-.34.1-.7.15-1.05a10.14 10.14 0 0 0-.7-4.62c-.62-1.5-1.62-2.78-2.68-3.65-.67-.57-1.35-.94-1.94-1.2-.43-.25-.92-.47-1.45-.62 1.52-.01-4.8-2.27-4.8-2.27-.05-.02-.1-.04-.14-.05l-.23.64-.5-.2-.2-.23c-.04-.25-1.75-.28-1.92-.54l-.5-.1c.15-.35.3-.76.46-1.2.14-.55.32-1.12.38-1.67-.15.1-.12-.2-.13-.5l.13-.03c-.1-1.17.32-.42.16-1.6l-.18-.2c-.13-.52-.1-.66-.07-.82s.04-.34-.22-.9c.1.45-.23.26-.27-.3l.14.1c-.07-.3-.16-.4-.2-.6.12.16.2.05.04-.4l.24.26-.48-.77c-.02-.17-.07-.36-.13-.55-.07-.2-.18-.37-.26-.54-.18-.34-.33-.65-.32-.8 0 0-.04-.08-.1-.2s-.14-.3-.27-.47c-.24-.33-.53-.67-.7-.75.27.17-.18-.5.06-.4-.18-.1-.4-.4-.7-.64-.3-.25-.56-.52-.67-.73l.07.05a10.7 10.7 0 0 0-.81-.83c-.28-.23-.58-.4-.86-.58-.12-.07-.23-.15-.34-.22l.24-1.24a4.64 4.64 0 0 0 .07-1.05l-.05-.97c-.1-1.27-.22-2.52-.37-3.74l.02-.52c.02-.05.01-.17-.02-.4 0-.01 0-.03-.01-.04 0-.01-.01-.03-.01-.04-.04-.18-.01-.93.13-1.5.14-.6.34-1.13.45-1.26.15-.4.33-.8.52-1.22.2-.33.58-1.03.3-.42.58-1.1.58-1.15.96-1.97l.7-1.16 2.44-4.66c.04.03.1.06.2.1.12.1.77.26 1.24.38l.25-.5c-.17.27-.14.14-.1 0 .13-.22.3-.37.34-.5l.1.03c-.12.02.18-.5.18-.57.12-.06-.1.3-.08.36l.6-1.03c.15-.4-.12.02-.08-.2.01-.01.01-.02.02-.03l1.32.44 4.3 1.5.47-1.64.4-1.33a91.1 91.1 0 0 1 4.04-10c1.32-2.74 2.63-5.53 5.1-9.73 2.44-3.94 5.43-7.94 8.84-10.8.38-.37.9-.76 1.43-1.2l.86-.65.96-.6c1.27-.85 2.68-1.57 3.76-2.26l.95-.3c.77-.43 1.68-.9 2.53-1.16l-.04.05c.37-.2.77-.36 1.16-.52l.02-.08c1.68-.54 3.33-.96 4.9-1.28l-.9 4.82c-.2.46-.06-.56.17-1.8l-.6 3.05c-.13-.05.3-1.76.47-2.7-.98 3.57-1.38 7.5-2.47 11.7l-.08.9-.07.25c.06 0-.07.97-.2 1.6-.24.58-.25-.1-.7 2-.46 1.64-.94 4.73-1.34 6.92.27-1.17.25-.78.18-.26-.22 1.05-.46 1.63-.58 2.45l-.14.05c.08.17-.46 2.83-.48 3.2-.24.57.25-1.65.2-1.93l-1.3 6.32c-.36 2.27.23-.38.14.73-.4 2-.7 3.95-1.26 6.2l.3-.7c-.68 3.75-1.16 5.98-1.82 8.46l-1 6.07-1.53 7.33c-.9 9 20.9 8 39.6 4.8 18.9-3.3 20.8-11.8 22.2-20.8a80.28 80.28 0 0 0 .35-2.37l6.26-.02 15.16-.06c.15 1.18.3 2.54.6 3.55v.64c.16.54.38 1.16.44 1.73l-.04-.03c.3.78.52 1.7.7 2.08l-.04-.02.35.96-.1-.15c.6 1.34 1.2 2.72 1.83 3.92l.07-.17c.63 1.3 1.22 2.1 1.87 2.82a14.54 14.54 0 0 0 2.44 2.25l-.05.01c.8.43 1.64.64 2.44.77.4.01.83.03 1.2 0 .36-.05.7-.07 1.08-.2a3.95 3.95 0 0 0 2.1-1.26c.6-.68.93-1.58 1-2.48-.05.46.12-.18.14-.14.24-1.67.05-3.3-.22-3.3-.07-1.1.03-.9.12-1.06-.13.02-.26-.93-.4-1.78l.1.38-.38-2.4-.16.5c-.13-1.28.24-.37-.01-1.58l-.2.05c-.25-1.76-.15-2.83-.3-4.55-.2-1.24-.44-2.5-.67-3.75 2.8.05 5.8-.2 9.2-.6.6-.23 1.62-.44 2.6-.67.97-.26 1.9-.5 2.33-.7.1.03 1.48-.4 2.46-.7.98-.32 1.55-.5.04.14-.26.1-.74.25-.72.2l-.34.23c3.23-.78 5.6-2.17 8.53-3.56-.88.38-2.03.94-1.3.5.9-.44 1.82-.84 2.7-1.3l-.5.38c1.33-.68 2.68-1.33 3.98-2.06l-.6.2c1.95-1 2.72-1.2 4.75-2.62.9-.66-1.86.92.1-.3 2.54-1.43 6.28-3.7 9.36-5.78-.37.08.46-.5 1.28-1.1l.17.03c3.1-2.43 1.35-.6 4.43-3.03l.45-.55.46-.4.48-.4 1-.8c.07-.05.14-.1.2-.15l.1-.07-.04-.1-.16-.36c-.1-.23-.18-.43-.27-.64-.1-.22-.2-.44-.3-.7a7.06 7.06 0 0 0-.24-.51c-.2-.4-.5-.96-1-1.8.7 1.38.07.77-.7-.96l.32.38c-.2-.4-.37-.7-.5-.94l.95-.58c-.1-.03.05-.13.18-.25l.06.05c.25-.24.33-.25.4-.25.04-.01.06.01.15-.04.1-.06.27-.18.52-.38.03-.06.06-.13.1-.2l.27-.24c-.15-.27-.15-.35-.2-.5-.02-.07-.06-.15-.13-.28-.03-.05-.07-.1-.13-.22-.06-.1-.1-.16-.16-.2.15.27-.1.18-.2-.13l.1.04c-.1-.16-.15-.2-.2-.32.06.05.08.03.06-.05 1.9-1.2 1.96-1.2 4.8-2.92l-.04.05 1.86-1.26-.18-.32.3.52a1.64 1.64 0 0 0 1.1.85c.12.03.24.04.35.04.33 0 .64-.1.85-.28l2.37-1.38a1.64 1.64 0 0 0 .85-1.1c.1-.46 0-.92-.24-1.2l-.66-1.14.42.73 1.17-.73.75-.47c.3-.15.57-.3.87-.47a36.54 36.54 0 0 0 3.64-2.34c-.65.46.3-.15.27-.1 2.42-1.65 4.8-3.7 4.72-3.85 1.6-1.4 1.33-1.12 1.58-1.25-.06-.05 1.27-1.33 2.4-2.54l-.5.57c1.1-1.14 2.2-2.3 3.14-3.6-.23.23-.46.45-.7.66.8-.98.9-1.12 1.03-1.22.1-.12.25-.17.8-1.33l-.12-.02c.2-.44.34-.83.4-1.3-.07-.2-.1-.46-.2-.7zM132.2 194l3.32 1.2-3.36-.95c.02-.1.03-.17.04-.25zm-4.68 25.7a9.11 9.11 0 0 1-.09.49c-.03.01-.05.01-.08.02.06-.17.1-.34.17-.5zm-.65 5.73c.2-1.7.9-3.1 2-2.9.9.2.6 1.9.5 3s-.8 2.6-1.5 2.5c-1.1-.2-1.2-.9-1-2.6zm-.73 4.93c0 .04.04.1-.08.26.36-.5.97-1.08 1.12-.95.52-.47 1.28-.8 2-1.05-.06-.47-.02-1.1.1-1.9.3-2.2 1.2-3.9 2.5-3.6 1 .27.68 1.96.6 3.32.5-1.55 1.37-3 2.4-2.72 1.37.4 1.1 3 .82 4.9.35-1.72 1.3-4.02 2.88-3.5 1.6.5.8 3.1.7 4-.03.25-.08.67-.18 1.13.04.02.08.03.12.04.18.13.34.28.47.47.4.2-.43-.1.1.27-.1.12-.27-.14-.26.06a1.59 1.59 0 0 1 .29.29c.06.1.1.23.17.35.1.24.27.45.44.76l-.1.08c.14.18.25.38.33.58.06.2.08.42.1.6.08.4.02.76.18 1.05.1.98-.32.63-.2 1.65-.07.12-.15.24-.23.36-.01.04-.01.07-.01.1l-.72-.23c-2.77-1.16-7.9-2.64-11.5-3.63-1-.3-2.02-.65-3.12-1.1-.03 0-.08-.01-.1-.02.34-.57.9-1.04 1.2-1.6zm28.28 34.45c.23-.35.25.1.67-1.23.44-1.02.9-3.02 1.28-4.43-.26.74-.24.48-.18.15.2-.67.44-1.02.56-1.55l.13-.01c-.05-.08.13-.74.27-1.3.05-.1.1-.2.14-.3-.08.32-.18.7-.16.78l.4-1.3a23.07 23.07 0 0 0 .75-1.85 13.42 13.42 0 0 0 .65-5.51c-.1-.93-.3-1.87-.7-2.75-.1-.3-.27-.57-.44-.84.66.3 1.3.66 1.85 1.1.57.5 1.1 1.02 1.52 1.62.74 1.02 1.15 2.14 1.36 3.17.16 1.26.04 2.37-.2 3.34l-.84 3.22c-.06.2-.13.37-.2.56-.25.36-.55 1.44-.82 2.37l-.56 1.6c-1.06 3-2.1 6-2.97 8.95-.01 0-.01.02-.02.02l-2.8 9.17-.4 1.3-.45 1.42-.28.75-.38.77c-.6 1.04-1.5 2.05-2.62 2.8-1.1.74-2.4 1.2-3.53 1.38-.5.08-.94.1-1.35.1a29.97 29.97 0 0 1-1.68-.29c-.01-.08-.2-.2-.5-.35.02-.01.04-.01.07-.02.52-.2.8-.38 1.16-.63.36-.24.82-.5 1.63-1.04-.47.44.22.01.76-.5-.34.32-.44.45.35-.14.08-.1.2-.3.33-.44.01 0 .04-.02.04 0 .8-.95.6-.84.24-.38.01-.03-.04-.01-.18.1.48-.42 1-1.16 1.36-1.82s.56-1.23.67-1.28c1.05-3.34 1.58-5.7 2.4-8.47.2-.28.06.38-.15 1.2l.58-1.95c.12.06-.28 1.14-.44 1.74.94-2.24 1.3-4.82 2.34-7.46l.08-.6.07-.16c-.08.01.04-.62.15-1.03zm-2.85-2.53h-.54c1.2-.52.45.16 1.5-.57l-.12-.15c.7-.46 1.23-.86 1.74-1.27-1.87 5.6-2.8 7.8-4.84 14.6l-1.73 5.52c-.27.84-.6 1.57-1.05 2.27a8.43 8.43 0 0 1-1.66 1.76c-.53.55-1.48 1.1-2.54 1.4s-2.2.35-3.12.33l-.68-.23-.2-.03c-6.56-2.38-10.27-3.17-17.88-5.44-.18-.07-.35-.13-.55-.2l.05-.02c-.27-.06-.5-.12-.77-.2-.8-.3-1.64-.56-2.5-.8-5.1-1.72-7.4-2.63-13.9-4.6l-10.9-3.4c-.74-.18-1.7-.7-2.5-1.45-.8-.75-1.43-1.7-1.88-2.5-.07-.23-.12-.46-.15-.7a4.76 4.76 0 0 1-.46-1.93l.04.04c-.2-.93.03-2 .08-2.45l.02.05c.1-.37.16-.72.3-1.15l-.02.23a68.96 68.96 0 0 1 1.6-5.23l-.18.1c1.25-3.4 1.36-4.75 2.53-7.8l.02.05c.46-2.1 1.03-3.66 1.6-5.27.23.84.56 1.7 1.06 2.55.7 1.2 1.8 2.4 3.33 3.27.65.4 1.3.7 1.85.92l1.5.6 2.58 1.02a84.39 84.39 0 0 0 6.06 2.09c2.58.87 5.35 1.7 7.9 2.5 1.26.2 3.32 1.06 4.8 1.35l.5.3c.5.1 1.1.24 1.57.46l-.04.02c.76.15 1.57.46 1.94.53l-.04.02.9.27h-.17c1.3.3 2.62.73 3.76 1.14l-.05-.17c2.42.94 3.42.94 5.6 1.85l-.04.02c2.92.6 4.57 1.68 7.78 1.63-.4.01.16.1.13.12 1.47.1 3.06-.03 3.06-.32 1.06-.08.88 0 1.03.1-.02-.12.9-.28 1.72-.52l-.37.15c.8-.2 1.6-.45 2.32-.85zm-4.06-55.98c-1.46 2.9-1.2 1.82-2.65 4.9l-.7 1.13c-.34.65-.42.92-.5 1.2l-.47 1.37c-.02-.06-.18.45-.26.9s-.1.8-.1.25c-.03.28-.07.5-.01.9h0c.2 1.67.47 3.4.6 5.2a4 4 0 0 1-.06 1.29l-.27 1.45a2.74 2.74 0 0 0-.05.28c-.97-.64-2.1-1.25-3.36-1.82-.55-.5-1.2-1.2-1.64-2.1-.9-1.9.2-4.8.2-4.8.1-.2 0-.4-.2-.5s-.4 0-.5.2c-.05.1-.38 1-.53 2.12-3.97 1.03-6.52-1.12-6.6-1.22-.2-.2-.67-.16-.77.04-.2.2-.2.5 0 .6s2.2 1.8 5.2 1.8c.76 0 1.3-.1 2.1-.38-.03.8.06 1.66.4 2.42-.36-.12-.68-.23-1.15-.35-.46-.07-.6.17-1.37-.12.28-.03-.05-.1-.34-.18.2.04.26.02-.1-.16-.06.02-.15.01-.23.01 0-.01-.02-.02-.01-.03-.5-.1-.43-.02-.2.03-.02.01 0 .04.06.1-.5-.25-1.46-.23-1.5-.43-1.53-.27-2.67-.02-3.94.01-.15-.1.15-.17.53-.2-.23.01-.46.01-.7.03v-.08c.18-.02.42-.01.58-.02-.2-.05-.38-.06-.58-.05.18-1.44.32-1.8.44-2.23.14-.4.25-.87.62-2.45-.35 1.23-.36.52.18-.97l-.06.4c.26-.83.34-1.1.57-1.64-.08.25-.08.32 0 .18.04-.07.1-.2.17-.36.04-.1.08-.2.14-.3.04-.08.1-.2.1-.33.01-.07.03-.15.04-.23l-.02.22c0 .1-.04.26-.1.35l-.12.4.15-.42c.04-.1.07-.17.08-.27l.1-.63.17-1.22c.44-1.85.94-4.83 1.2-5.58 0 0 .86-4 .93-4.95-.07.63.2-.54.3-.8.01 0 .03.01.04.01v.05-.05c.14.05.25.1.3.15 0 0 .7.4.92.37-.2.01.37.1.2.13.24 0 .88.14 1.1.3l-.05-.01c.9.4 1.63.42 2.43.8-.01-.1.4.1.34-.05.9.18 1.5.74 1.92.5.4.1.44.23.64.3l-.1-.01c.74.22.96.28 1.5.47.28.06.38-.08.85.12-.18.01.03.06.2.12-.12-.03-.16-.02.06.1.04-.01.1 0 .15.01 0 .01.01.01 0 .02.3.08.27.04.13-.01.01-.01 0-.02-.04-.05.3.18.88.3.9.4.93.28 1.62.4 2.4.6.07.08-.13.07-.35.02l.55.16c-.03.07-.33-.06-.5-.1.5.3 1.14.33 1.76.55-.44.82-.75 1.3-1.13 2.15zm3.82-4.04l-.7 1.3c-.02.03-.04.05-.06.07-.04-.02-.08-.04-.1-.06-.16-.06-.32-.13-.47-.18l-.9-.36a27.4 27.4 0 0 0-2.21-.75c-1-.35-2.1-.67-3.08-.98-.5-.03-1.3-.43-1.88-.5l-.2-.14c-.2-.03-.43-.08-.6-.18l.02-.02c-.3-.04-.6-.18-.76-.2l.02-.02-.35-.1h.07c-.5-.1-1.03-.28-1.47-.45l.01.1c-.93-.4-1.34-.36-2.18-.76l.02-.02c-1.17-.15-1.7-.73-2.9-.9.15.02-.05-.06-.03-.08-.53-.15-1.1-.32-1.15-.16-.38-.13-.3-.15-.32-.23-.02.07-.4-.02-.5-.05h.08l-.22-.06.02-.18c-.05.04-.1.08-.17.14.1-.33.18-.05.2-.38l-.12-.01c.13-.65.37-1 .56-1.6.02-.1.03-.2.05-.32l3.23 1.3c4 1.6 7.1 2.7 10.38 3.82l5.12 1.72.6.2c-.03.03-.03.04-.04.06zm111.98 4.92c-.01-.01-.06-.01-.04-.03-1.67.04-1.38.07-.6.08-.04.02.03.04.27.07-1.73-.14-4.83.01-5.04-.17-5.02.04-8.6.23-12.8.3-.47-.1.5-.18 1.72-.2l-2.96.03c.03-.13 1.7-.08 2.62-.1-1.23-.08-2.5-.07-3.8-.04.66-5.55 1.38-13.65 2.03-21.36 1.14 1.02 2.28 2.05 3.3 3.2 1.2 1.03-1.15-.83.6.78-.06.17-.85-.7-.5-.2 1.7 1.6 2.58 2.82 4.75 4.72v.17c.73.6 1.42 1.2 2.07 1.8l1.9 1.7c1.26 1.04 2.42 2 3.57 2.54.83.52 1.4.84 1.84 1.08a9.79 9.79 0 0 1 .7.45l.57 5.2c-.07-.01-.14 0-.2 0zm63.76-53.7l2.56-1.1c.38-.13.73-.01.9.28l1.8 3.1c-1.4.3-2.6 1.05-3.48 2.1l-1.94-3.38c-.17-.44-.1-.87.15-1.02zM325.58 176l-.43-.9.58.84c-.05.02-.1.04-.15.07zm1.42-.82l.07.1c-.5.32-.87.43-1.35.65l-1.47-2.5c-.88-2.1-2.6-5.23-2.85-6.14 0 0-2.06-4.4-2.72-5.32.53.83-.6-1.6-.15-.97-.4-.64-1.17-2.05-1.84-3.4l1.32-.42c.04 0 .07-.01.1-.01.02.05.03.1.03.12l.2.45.38.88a28.89 28.89 0 0 0 1.02 2.08c.46.95 1 1.94 1.5 2.86.33.38.6 1.2.97 1.68l.04.23c.12.16.25.36.3.56h-.02c.18.24.3.56.4.68h-.02l.17.32-.05-.04a9.35 9.35 0 0 1 .72 1.35l.06-.07c.37.95.7 1.2 1 2.07h-.02c.72.93.68 1.7 1.4 2.67-.1-.12-.01.08-.04.08.27.48.54 1 .7.93.18.36.1.3.06.4.06-.05.28.33.32.4l-.06-.05.13.22-.12.1c.07.01.14.02.22.01-.3.16-.2-.07-.4.1zm5.78-6.12l.22-.15-5.78 3.6c-.1-.18-.17-.34-.16-.43 0 0-.34-.8-.53-.92.14.12-.05-.3.08-.23-.17-.16-.52-.72-.57-1l.03.04c-.36-.9-.85-1.44-1.16-2.27-.06.07-.23-.36-.27-.2-.5-.76-.54-1.58-1-1.72-.2-.36-.15-.47-.23-.67l.06.08c-.37-.68-.48-.88-.73-1.4-.16-.24-.32-.2-.52-.7.13.12.03-.06-.06-.23.06.1.1.13.03-.12-.03-.02-.07-.07-.1-.1-.15-.3-.15-.23-.1-.1-.01 0-.02.01-.01.06-.08-.33-.42-.83-.34-.9-.46-.85-.86-1.4-1.26-2.1.01-.1.14.04.26.24l-.27-.5c.07-.03.2.27.28.42-.2-.66-.74-1.2-1-1.95l-.13-.12-.01-.05c-.03.02-.15-.12-.2-.22 0-.03.01-.05.02-.06 3.14-1.06 2.24-.5 5.68-1.77l1.2-.3 2 3.5c-.54.95-.86 2.05-.86 3.24 0 3.6 2.8 6.4 6.4 6.4l.03.06a21.85 21.85 0 0 1-1 .6zm6.28-1.43c-.04.18-.16.34-.35.43l-2.46 1.44c-.1.1-.27.12-.42.08-.18-.04-.34-.16-.43-.34l-.54-.95c1.44-.24 2.7-.94 3.63-1.95l.5.85c.08.13.1.3.08.44zm-5.3-.23c-3.03 0-5.4-2.37-5.4-5.4s2.37-5.4 5.4-5.4 5.4 2.37 5.4 5.4-2.37 5.4-5.4 5.4zm24.04-21.78c-.03.06-.08.15-.13.25-.1.16-.26.4-.44.6v.01l-5.7 4.02a.5.5 0 0 0-.12.7c.1.14.25.2.4.2a.52.52 0 0 0 .29-.09l5.45-3.84c.04.07.08.14.1.22.08.03.2.07.24.1l.06.05c.02.02.03.04.04.06.02.04.03.1.04.14.01.13-.02.23-.06.37-.07.24-.14.36-.2.48-.17.24-.23.54-1.17 1.92l.14-.28a9.33 9.33 0 0 1-.43.83c-.95 1.3-1.32 1.57-1.66 1.9-.36.33-.73.7-1.95 2.05 1-1.02.6-.34-.7.85l.28-.36c-.7.68-.92.92-1.42 1.34.4-.42.17-.27-.92.66.23-.23.45-.45.67-.7-.65.63-1.32 1.23-2 1.83-1.68 1.25-4.4 3.17-5.2 3.52 0 0-.96.6-2.05 1.2l-.4.22a3.47 3.47 0 0 0-.26.15l-.2.13c-.26.18-.52.35-.76.5-.08.05-.16.1-.23.16.4-.85.64-1.8.64-2.8 0-3.6-2.8-6.4-6.4-6.4a4.34 4.34 0 0 0-.36.02l-1.58-2.73.23.4c.3-.13.63-.25.94-.4a13.49 13.49 0 0 0 1.29-.69 7.96 7.96 0 0 0 .64-.43c.1-.08.2-.16.32-.25.13-.1.3-.28.42-.44.03-.1.04-.2.05-.3l.04-.3c.03-.36.24-.85.56-1.27.3-.43.72-.83 1.18-1.2.46-.4.97-.74 1.53-1.2.3-.27.5-.45.76-.66l.8-.63c.8-.82 2.97-2.4 3.58-3.02.04-.01.3-.22.66-.44.16-.1.4-.22.54-.27.16-.06.2-.04.28-.02.15.08.1.25.1.25-.03.04.02-.1-.14-.17-.05-.02-.16.01-.18 0l-.18.15c.3-.12.27-.07.3-.06.01.01.02.03.02.05s0 0-.01.12c-.04.2-.13.5-.27.75-.13.27-.26.5-.47.77l-.66.9c-.38.5-.77 1-1.1 1.5-.35.5-.4.83-.4 1.06 0 .13-.01.2.08.36.12.12.15.06.26.1-.1-.07-.2.04-.3-.2-.04-.14-.01-.28 0-.4.05-.25.1-.35.06-.05-.02.18-.06.3.01.48.1.13.12.07.18.1.05 0 .1.01.18.03.05.02.15.02.27.02.1 0 .2.02.4-.07a40 40 0 0 0 1.1-.42l-.98.45 2.86-1.1 1.94-.77-.56.15c.95-.38 1.6-.62 2.3-.93.34-.16.7-.33 1.07-.57l1.2-.8c.85-.57-1.7.87.12-.22.5-.27 1.07-.56 1.68-.82.3-.12.62-.24.92-.3.15-.04.3-.05.4-.06a.19.19 0 0 1 .13.05c.02.03.04.04.05.1.03.06.05.16.07.25.02.1.03.2.04.33.01.14.01.32 0 .5l-7.25 4.93a.49.49 0 0 0-.13.69c.1.14.25.22.4.22.1 0 .2-.03.28-.1l7.36-5a5.91 5.91 0 0 1 .39.21c.3-.12.46-.07.5-.07.06.02.1.03.15.06.08.04.2.2.2.3.07.16-.04.62-.27 1 .05-.1.05-.05-.01.08z"/><path d="M328.3 175.72c-.02.04-.03.07-.05.1l.05-.1zM130.24 197.6l-.03-.1.03.1zm195.98-12.44h0l-.22.28z"/><g fill="#fff"><path d="M203.7 119.97l-.07.1c.01 0 .04-.03.07-.1zm-7.72 30.13v.03c.01-.02 0-.03 0-.03zm5.2-25.9h0v-.04.04z"/><path d="M203.1 118.22c-.53 1.56-.8 1.93-1.25 3.58l-.68 2.4c.01.4-.3 1-.32 1.47l-.12.15c-.01.16-.04.34-.12.48v-.02c-.01.24-.12.48-.12.6l-.02-.02-.07.27-.02-.05c-.05.4-.17.8-.3 1.15l.1-.01c-.3.72-.2 1.05-.5 1.7h-.02c-.02.92-.53 1.32-.56 2.26 0-.12-.06.04-.07.02-.1.4-.2.85-.03.9-.08.3-.12.23-.2.25.07.02.03.28-.02.52v-.1l-.15.67.17-.1c-.13.34-.2.05-.25.4l.1.03c-.15.48-.4.72-.6 1.18l-1.36 5.97-.1.06c-.13.01.07.55-.06.6l.01.23c-.04.06-.1.18-.1.06-.05.2-.03.2-.02.36l-.12.2c-.23.77-.23 1.47-.43 2.3-.37.96-.62 2.86-.75 3.95-.13 1.55-.98 3.2-1.08 4.8a.3.3 0 0 0 0 .19l-.3 1.42s-1.4 6.9.67 1.85v.04c.22-.76.33-1.25.3-1.8.2-.05.14-.63.24-.8l.01.02c-.04-.5.3-.95.28-1.43.01.02.05.04.04.15.05-.34.1-.8.2-.8.13-.8.4-1.9.35-2.44l.02.04c-.05-.3.06-.38.07-.7.02-.01.03-.04.03-.03-.04-.34.17-.92.18-1.2h.07l.12-.63-.06.23c-.16-.12.2-.45.2-.93.1-.42-.2-.94-.01-1.37-.04-.23.1.2.1-.1.1.01.03.16.12.1.02-.32.2-.5.22-.88h.08c-.03-.53.3-.92.24-1.28.05-.53.3-.3.27-.86l.14-.2c.07-.23-.08-.2.02-.43.06.03.12-.3.15-.15.23-.55.12-1.2.46-1.9-.08-.2.08-.55.01-.7.06-.01.18-.76.2-.3 0 .04-.02.1-.04.1l.06.07c.23-.4.1-.8.23-1.22-.05.12-.1.3-.1.17l.1-.4.04.1.18-.58-.1.06c.1-.28.26-.35.23-.7-.02-.16-.17.25-.12-.06l.5-1.4c-.1.02-.06-.1-.04-.25h.08c.04-.54.2-.15.26-.68l.04.06-.12-.18c-.02-.5.22-.2.16-.78-.04.2-.18.05-.1-.2l.05.08c.02-.14 0-.2.04-.3.02.1.1.07.13-.14l.05.16-.02-.42c.16-.28.2-.77.32-.87 0 0 .22-.63.15-.8.03.15.15-.2.2-.08-.03-.2.04-.7.18-.86v.04c.28-.7.23-1.27.52-1.9-.1.01.05-.32-.08-.27.08-.7.57-1.16.3-1.5.07-.3.18-.34.25-.5v.08l.32-1.16c.03-.22-.1-.3.04-.67.02.14.06-.02.1-.16-.02.1 0 .13.1-.05-.01-.03-.01-.08-.01-.12.01 0 .01-.01.02 0 .05-.24.02-.2-.02-.1-.01-.01-.02 0-.05.03.15-.22.2-.68.3-.68.2-.72.24-1.26.38-1.86.07-.05.08.1.05.28l.1-.42c.08.03-.03.25-.05.4.28-.46.2-1.06.5-1.6l-.02-.14.02-.03c-.03-.01-.04-.15-.02-.24.1-.06.15.05.24-.24.14-.2.17-.66.23-.97-.06.16-.08.1-.08.02.04-.15.13-.2.14-.33l.1.01c-.1.03.02-.4 0-.47.1-.06-.01.24.03.3l.25-.88c.03-.33-.1.03-.14-.14.06-.28.08-.56.23-.86l-.1.08c.1-.53.2-.84.37-1.17.2-2.03-.05-2.27-.24-2.02-.2.24-.45.97-.45.97-.58 1.43-.6 2.27-1.07 4.08zm41.27 67.18c-.06-.13-.32-.34-.47-.16l-.26-.37c-.45-.7-.76-.77-1.22-1.13.08-.18-.4-.55-.47-.74h.02c-.4-.32-.54-.9-.93-1.2.02.01.07-.01.14.07-.23-.27-.56-.63-.5-.7-.54-.65-1.22-1.62-1.67-1.95l.04.01c-.27-.18-.26-.3-.5-.55 0-.02-.01-.05 0-.05-.3-.2-.6-.77-.8-.95l.04-.05-.42-.52.14.2c-.2.04-.22-.47-.6-.78-.26-.37-.86-.5-1.08-.93-.2-.13.23.07-.03-.15.07-.07.14.1.15-.03-.24-.23-.25-.5-.55-.77l.05-.06c-.43-.34-.53-.85-.85-1.06-.38-.4-.05-.43-.5-.8l-.05-.24c-.14-.2-.2-.06-.33-.3.06-.03-.17-.3-.02-.2-.3-.55-.87-.9-1.23-1.64-.2-.06-.4-.43-.55-.48.03-.05-.5-.65-.12-.36.03.03.07.08.05.1h.1c-.17-.45-.57-.62-.83-1 .06.12.18.26.06.2l-.25-.34.1.03-.36-.52-.01.12c-.16-.27-.12-.43-.42-.64-.14-.1.1.3-.12.05l-.83-1.33c-.04.1-.12-.02-.22-.13l.05-.06c-.42-.38.01-.26-.4-.65l-.14-.01c-.42-.3-.04-.3-.54-.63.14.17-.07.18-.2-.05l.1.01c-.1-.1-.16-.13-.2-.22.08.05.1-.03-.03-.2l.16.06-.36-.25c-.13-.3-.52-.65-.52-.82 0 0-.38-.58-.56-.64.14.07-.07-.25.06-.2a1.82 1.82 0 0 1-.61-.7l.03.03c-.4-.67-.9-1-1.25-1.6-.05.08-.24-.24-.27-.1-.53-.5-.63-1.2-1.06-1.2-.22-.25-.18-.36-.27-.5l.06.05-.8-.98c-.17-.16-.3-.1-.54-.44.13.07.02-.06-.08-.18.07.07.1.08.01-.1-.03-.01-.07-.04-.1-.06-.17-.2-.15-.15-.1-.05-.01 0-.01.02-.01.06-.1-.26-.46-.58-.4-.68-.5-.6-.93-.96-1.36-1.44 0-.1.13 0 .26.13l-.3-.35c.07-.05.2.18.3.28-.23-.5-.8-.8-1.1-1.37l-.13-.06-.02-.04c-.03.02-.15-.06-.22-.13 0-.1.13-.1-.07-.34-.1-.24-.47-.53-.7-.76.1.14.03.12-.03.08-.1-.12-.1-.24-.2-.3l.06-.07c-.03.1-.33-.26-.4-.28 0-.1.2.15.27.15l-.6-.73c-.27-.22-.03.1-.2.03-.2-.22-.43-.4-.6-.7v.14c-.4-.4-.6-.66-.77-1-1.54-1.43-1.84-1.5-1.8-1.16.06.33.5 1.04.5 1.04.87 1.43 1.6 1.93 2.87 3.4 1.04 1.36 1.2 1.82 2.34 3.17l1.62 2c.34.23.67.86 1.04 1.16l.05.2a1.13 1.13 0 0 1 .33.39h-.02c.2.16.33.4.42.47h-.02l.18.22-.05-.02c.3.3.57.63.78.95l.05-.08c.42.7.74.83 1.1 1.48h-.02c.75.6.76 1.26 1.5 1.9-.1-.08 0 .07-.03.07.3.33.58.7.72.6.2.26.1.24.1.3.06-.05.25.16.4.35l-.1-.07.46.55.03-.2c.2.33-.08.18.17.45l.1-.07c.3.43.35.78.6 1.24 1.25 1.7 2.87 3.33 3.9 5.02v.12c-.08.1.48.32.43.45l.2.15c.02.07.08.2-.01.1.12.17.15.16.27.26l.07.23c.46.7 1.02 1.17 1.53 1.9.5.94 1.84 2.42 2.6 3.28 1.13 1.16 1.87 2.96 3.05 4.13.02.05.14.14.15.13l.9 1.2 2.03 2.07-.08.6c-.44 3.57-.9 8.73-1.36 13.96s-1 10.52-1.73 14.28c-.5 2.63-1.36 5.3-3.05 7.54-1.64 2.24-3.98 3.98-6.58 5.2-2.6 1.23-5.44 2-8.24 2.66-2.82.6-5.68 1.06-8.43 1.54-.18.01-.5.06-.78.12-.27.05-.5.1-.5.12-3.38.44-6.77.8-10.16 1 0 0-3.1.24-7.12.22-2-.02-4.26-.12-6.44-.4-2.17-.3-4.3-.8-5.86-1.63-1.6-.8-2.4-2.04-2.56-2.96-.2-.9-.17-1.45-.34-1.13-.04.15-.2.5-.17 1.1-.02.6.17 1.5.88 2.44 1.45 1.9 4.9 3.33 9.63 4l-.26.02c2.85.36 5.17.4 7.26.36 2.1-.04 3.96-.18 5.9-.44.64.26 4.63-.36 5.95-.43l-.12.04c3.4-.6 7.07-.73 10.3-1.48-.12.04-.18.13-.93.26 1.2-.2 2.6-.54 3.75-.77 1.14-.22 2-.48 2.1-.4 2.83-.75 6.22-1.9 9.03-3.74 1.4-.93 2.66-1.94 3.6-3.03l.7-.78c.2-.26.38-.54.56-.8.35-.5.65-.98.85-1.42l-.1.25.63-1.26.46-1.04c.17-.33.3-.68.45-1.1.13-.4.33-.87.46-1.46.06-.12.1-.28.12-.25.53-2.3 1.32-6.64 1.5-8.5l.13-.1.5-4.55-.22 1.7c-.24-.62.58-3.4.7-6.73.34-3.08-.05-6.3.38-9.5-.01-1.54.12 1.36.2-.93.17-.06.01 1.07.2.5.1-1.9-.14-1.65.01-3.67.02-.02.13.34-.56-.55z"/><path d="M218.76 153.07c.01-.01 0-.05-.05-.12l.05.12zm2.1 4.53h0l-.03-.02zm7.84 7.75h0l.07.01zm35.1 40.48l-.03.07c.02 0 .03-.02.03-.07zm4.17 16.3l.01.01zM263 208.6h0v-.02z"/><path d="M262.6 205.16c.07.9-.06 1.17.14 2.1.05.45.16.92.25 1.35.16.2.1.57.24.8l-.05.1c.05.08.1.17.07.26h-.02c.08.12.07.26.1.32h-.02l.04.15-.03-.02c.1.2.14.43.15.63l.08-.03c-.02.44.2.56.15.96h-.02c.32.44 0 .8.3 1.24-.04-.06-.04.04-.06.03.07.22.14.46.3.43.03.17-.02.15-.08.18.07-.02.14.12.17.25l-.04-.05.1.36.12-.1c0 .2-.16.1-.08.27l.1-.03c.04.28-.1.47-.12.76.2 1.1.8 2.2.92 3.26l-.07.07c-.12.06.27.22.17.3l.1.1c-.01.04-.01.12-.06.07.03.1.05.1.12.17l-.04.14c.08.45.37.75.52 1.2.05.6.64 1.5 1 2 .56.67.64 1.8 1.36 2.42 0 .04.08.07.1.06l.5.66s.63.78 1.18 1.12c.27.17.52.24.56.1s-.08-.5-.37-1.18h.03c-.23-.35-.4-.56-.68-.7.1-.14-.2-.28-.2-.4h.02c-.27-.12-.22-.5-.46-.62.02 0 .06-.02.1.02-.12-.13-.3-.32-.2-.4-.26-.35-.52-.88-.8-1.05h.03c-.17-.1-.12-.17-.25-.3.01-.01.01-.03.01-.03-.17-.1-.24-.44-.35-.55l.06-.04c-.06-.1-.1-.2-.16-.3l.04.12c-.18.04 0-.3-.2-.46-.07-.22-.55-.28-.56-.55-.12-.08.17.04.04-.1.1-.04.1.05.14-.02-.1-.14-.01-.3-.15-.47l.07-.04c-.23-.2-.1-.52-.28-.64-.15-.25.15-.25-.1-.48l.06-.14c-.03-.12-.15-.05-.15-.2.06-.01 0-.18.08-.12 0-.33-.32-.57-.28-1.02-.15-.05-.13-.27-.24-.32.05-.03-.1-.4.07-.2.01.02.02.05 0 .06l.08.01c.07-.27-.18-.4-.22-.63-.01.07.02.16-.04.1l-.05-.22.07.03-.05-.33-.06.06c0-.17.1-.25-.03-.4-.08-.07-.06.17-.13.01l-.04-.82c-.08.04-.1-.03-.13-.1l.07-.03c-.16-.26.14-.14-.01-.4l.06.01-.17-.04c-.2-.22.12-.17-.14-.4.04.1-.15.1-.15-.06l.08.02c-.03-.07-.07-.1-.06-.15.05.04.1 0 .07-.1l.1.06-.18-.18c.04-.18-.1-.42-.02-.5 0 0-.02-.36-.15-.42.08.06.07-.14.16-.1-.1-.08-.2-.33-.15-.46v.02c.01-.42-.24-.66-.2-1.04-.08.03-.07-.17-.17-.1-.17-.36.1-.72-.26-.8-.05-.17.04-.22.05-.3l.02.04c-.08-.3-.1-.4-.13-.65-.05-.1-.2-.1-.2-.33.07.06.05-.03.04-.1.02.05.04.06.07-.05a.12.12 0 0 1-.05-.05l.01-.01c-.04-.13-.06-.1-.06-.04-.01 0-.02.01-.04.03.06-.15-.06-.38.04-.42-.08-.4-.24-.67-.33-1 .05-.05.1.03.14.12l-.05-.23c.08-.01.06.13.1.2.1-.3-.2-.56-.14-.9l-.07-.06h.01c-.03.01-.1-.06-.1-.1.06-.06.16-.02.14-.18.05-.14-.08-.36-.14-.53 0 .1-.04.07-.07.03-.01-.08.05-.14.01-.2l.1-.02c-.08.04-.12-.2-.16-.23.06-.06.08.12.13.13l-.07-.5c-.1-.17-.08.04-.18-.03-.04-.15-.12-.3-.08-.48l-.08.07c-.1-.28-.1-.46-.04-.67-.45-1.05-.7-1.15-.82-.98-.13.18-.15.62-.15.62-.1.9.2 1.32.4 2.34z"/></g></svg>