<svg xmlns="http://www.w3.org/2000/svg" viewBox="0 0 480 480" xmlns:v="https://vecta.io/nano"><path d="M234.6 205l.07-.26c-.01.02-.01.03-.01.04l-.06.22zm127.44 2.82c-1.9-1.1-4.07-4-7.42-4.3-6.14-.58-11.4-1.13-15.83-2.17l.4-.86c.27-.68-.58-1.62-2-2l-4.62-1.38c-.4-.15-.8-.2-1.03-.2-.95-.05-1.68.3-1.9.75l-.03.06c-10.82-5.65-44.35-23.4-48.08-26.63-2.5-1.83-7.78-9.3-12.85-16.98l3.87-2.16s-12.7-24.02-22.54-35.48c-4.26-4.92-8.58-9.95-13.42-13.27-1.3-.97-2.73-1.77-4.3-2.4a17.23 17.23 0 0 0-7.5-1.4c-11.66-.37-24.93 7.84-39.83 36.8-8.9 17.3-28.32 59.1-32.32 69.52-.56 1.28.28 2.56 1.5 2.56l78.2-.3s4.62-14.48 11.25-39.87l.9-.5c7.36 9.8 15.67 20 20.07 22.56 7.45 4.85 17.2 8.2 31.4 12.3 11.12 3.2 21.05 5.5 30.13 7.7.03.43.22.78.62 1l5.1 1.33c.6.1 1.14-.06 1.42-.56l.24.06c1.64.4 3.3 1.23 5.56 1.56 1.9-3.77 5.82-6.36 10.34-6.36a11.6 11.6 0 0 1 11.6 11.6c0 .08-.01.17-.01.25s.01.17.01.25c0 1.1-.2 2.2-.5 3.3.1.2.2.4.4.5 1.8.85 2.5-2.54 2.97-6.13s.7-7.37-1.8-9.12zm-75.8-34.56l-.24-.14c.02.01.03.02.04.02l.2.12zM243.3 107.2l-.14-.1.02.02.12.1z" fill="#fff"/><path d="M154.02 208.68c.27-.04.28-.1.13-.16-.17-.07-.63-.13-1.1-.6-.45-.44-.75-1.4-.17-2.34l4.54-9.24-.06.25c2.35-5.07 3.84-8.25 5.22-11.86.5-.44 1.94-4.16 2.57-5.3l-.03.12c1.23-3.2 3.1-6.3 4.33-9.36-.03.13.01.22-.3.9.98-2.2 2.32-5.18 2.54-5.27l7.27-15.77-.07.25c.74-1.96 1.16-2.44 2.1-4.58.08-.1.16-.25.16-.22.84-2.12 2.92-5.96 3.7-7.63l.15-.06c.66-1.36 1.38-2.68 2.08-4l-.82 1.48c0-.33.45-1.06 1.06-2.08.6-1.03 1.4-2.33 2.15-3.78 1.54-2.64 2.64-5.67 4.54-8.24.75-1.33-.57 1.23.63-.7.17.03-.52.93-.08.52.6-.93 1.16-1.66 1.75-2.44.6-.77 1.28-1.56 2.07-2.68l.17-.01a16.64 16.64 0 0 1 1.59-2.05l1.6-1.8c1.1-1.07 2.07-2.03 2.84-2.94 1.33-1.26 1.85-1.6 2.36-1.96.54-.33 1.1-.67 2.52-1.92 4.42-2.13 9.67-4.9 14.3-4.6l1.02-.1c.35-.04.7.04 1.06.06-.13-.15 1.4 0 1.04-.2 1.52.07 2.88.46 3.94.92 1.1.36 1.87.84 2.5.8.66.27 1 .54 1.26.75.26.2.45.38.76.58l-.3-.15c1.16.64 1.82 1.2 2.46 1.65.64.43 1.14.93 1.9 1.57.8.6 1.07.54 2.35 1.8-.5-.32.06.15.53.64-.3-.3-.43-.37.13.32.1.07.26.2.4.3 0 .01.02.04 0 .04.8.78.7.62.34.23.03.01.01-.04-.08-.17.73.92 2.24 2.38 2.2 2.6 2.3 2.5 4.07 4.22 5.9 6.37.13.3-.35-.16-.9-.76l1.28 1.53c-.1.06-.78-.85-1.2-1.3 1.35 1.95 3.18 3.75 4.65 6.15l.42.42.08.15c.04-.04.46.44.7.77.13.4-.24.13.55 1.27.52.97 1.77 2.57 2.6 3.75-.4-.67-.2-.5 0-.23.38.6.5 1 .82 1.42l-.1.14c-.02-.3 1.1 1.45 1.3 1.64.1.4-.65-.87-.82-.96l2.2 3.55c.87 1.22-.01-.3.47.23.7 1.1 1.46 2.16 2.14 3.5l-.12-.48c1.35 2.08 2.07 3.37 2.77 4.9 5.02 7.75 5.73 8.5 5.34 7.18-.4-1.3-2.08-4.55-2.08-4.55a94.1 94.1 0 0 0-4.59-8.14l-5.63-8.73-4.67-7.34c-1.38-2.04-2.78-4.1-5.4-7.15-2.44-2.86-5.13-5.88-7.83-8.47-1.42-1.08-3.6-3.38-5.5-4.44l-.6-.6c-.67-.34-1.43-.76-2.03-1.2l.06-.01c-1.02-.45-2.15-1.02-2.67-1.2l.06-.02-1.3-.42.24.03c-.47-.13-.94-.3-1.42-.4l-1.46-.26c-.95-.23-1.9-.23-2.8-.3l.14.15c-.95-.13-1.75-.01-2.46.06l-.46.06c-2.64.1-5.22.65-7.6 1.5l-.62.1c-.15-.03-1.05.34-1.88.9-.84.53-1.7 1.07-1.97 1.1l-1.3.94c-.4.2-1.2.7-.57.22-.63.4-.92.62-1.17.84l-.85.74-1.33.86c-4.47 3.7-7.47 7.62-11.03 12.44-2.24 2.84-5.03 7.24-7.58 11.84-2.5 4.63-4.82 9.42-6.46 12.94-4.54 9.93-10.74 21.03-15.1 31.32-.1.16-.22.46-.32.72s-.18.48-.17.48l-4.3 9.28s-5.18 11.26-7.94 18.46l-.48 1.3c-.07.2-.15.4-.22.6l-.1.3c-.04.12-.08.23-.1.35-.27 1.02.16 1.98.72 2.42.6.5 1.16.53 1.42.5z"/><path d="M364.22 210.44c-.23-.82-.6-1.5-1-1.94-.38-.46-.75-.7-.95-.82s-.26-.1-.14.01c.1.14.42.4.8.9.37.5.75 1.33.93 2.46.17 1.14.14 2.57-.1 4.3l-.45 2.83c-.2 1-.4 2.12-.83 3.2l.05-.24c-.22.62-.53 1.26-.87 1.46-.3.2-.63.01-.6-.2l.18-.73.16-.88c.08-.58.13-1.17.1-1.7.06-2.2-.53-4.2-1.53-6-.1-.32-.7-1.42-1.6-2.4a13.02 13.02 0 0 0-2.65-2.2l.12.06c-1.6-.92-3.4-1.6-5.26-1.8-1.86-.2-3.77.03-5.42.7.1-.04.15-.1.5-.22a12.62 12.62 0 0 0-3.18 1.59c-1 .7-1.67 1.38-1.77 1.4-.55.55-1.06 1.2-1.52 1.9l-.33.54-.12.2c-.04.02-.1-.01-.16-.01l-.55-.12c-1.32-.3-2.67-.85-4.07-1.23l2.9-7.43c.8-.1 1.45-.46 1.7-1l.65-1.4 2.05.44-.73-.22 8.8 1.28c3.6.4 6.56.12 8.45 1.4 1.88 1.1 2.98 2.17 3.8 2.64 1.65.92 1.64.73.74.15-.8-.5-2.16-1.93-3.63-2.98-.73-.52-1.5-.92-2.08-1.15s-1-.3-1-.3c-.8-.2-1.5-.22-2.17-.3l-1.97-.2-3.67-.4-6.8-.96-1.4-.28.03-.06c.14-.34.1-.72-.08-1.1-.35-.7-1.2-1.28-2.24-1.58l-4.58-1.37c-.46-.17-.96-.22-1.18-.22-.8-.05-1.52.16-1.98.54l-3.5-1.8-24.3-13.16-15.74-8.83-2.05-1.2a18.53 18.53 0 0 1-2.25-1.6l-1.03-.96-.95-1.06-1.7-2.02-.7-1.04-2.12-2.85.06.05-2.56-3.57.06.05s-4.72-6.28.66 2.88l2.23 3.26-.35-.43 3 3.83c.85.96 1.54 1.85 2.84 2.94 1.33.98 1.63.98 4.08 2.53-.83-.42.18.17 1.1.72-.6-.34-.8-.43.4.33.18.08.45.23.7.37.01.01.05.04.03.03 1.57.88 1.3.7.6.28.04.01-.01-.03-.23-.18l4.67 2.78c4.73 2.63 8.18 4.38 12.15 6.48.42.3-.53-.17-1.7-.77l2.82 1.5c-.06.06-1.63-.83-2.5-1.3 3.28 1.93 6.95 3.6 10.83 5.82l.85.38.23.13c0-.04.9.4 1.5.7.52.36-.1.12 1.84 1.15 1.5.88 4.4 2.3 6.43 3.32-1.08-.58-.7-.43-.23-.2.98.5 1.5.87 2.27 1.24l.04.1c.1.01 1.18.54 2 .96l-.02.04c-.37-.18-.72-.35-.82-.38l.8.42-.88 1.9c-.35.6.06 1.3.3 1.7.03.05.1.1.13.13l-2.9 7.97c-.14-.03-.28-.06-.4-.08l.26.03c-2.12-.4-2.72-.64-5.08-1.14-.12-.04-.3-.1-.26-.1-2.3-.44-6.67-1.6-8.52-2l-.1-.1L307 205l1.7.45c-.63.03-3.4-.98-6.7-1.76-3.06-.85-6.3-1.36-9.45-2.38-1.53-.37 1.37.26-.9-.35-.05-.1 1.07.26.5.01-2.23-.62-3.6-1.18-6.33-1.98l-.1-.1c-3.58-1-6.6-2.33-8.93-3.12-3.56-1.4-2.3-1.13-5.96-2.67l-1.33-.78c-1.48-.82-1.14-.44-2.74-1.42.12.02-2-1.3-1.03-.76-.92-.57-1.7-1.2-2.6-1.8-.8-.73-1.65-1.44-2.5-2.24-.8-.83-1.68-1.67-2.52-2.6-.84-.95-1.72-1.94-2.6-3.04-.87-.86-2.66-3.06-3.28-3.73-.05-.15-3.55-4.44-1.47-2.03.18.2.48.6.44.57l.3.25c-.96-1.3-1.87-2.43-2.8-3.56-.92-1.12-1.85-2.25-2.8-3.53.55.77 1.3 1.76.77 1.12l-1.07-1.42c2.1-1.1 4.14-2.24 6.04-3.44.22-.1.73-.45.7-.47l5.84-3.23s28.3-15.7 5.97-5.27l.12-.12c-3.25 1.68-5.27 2.78-7.35 4.22-.5-.06-2.64 1.44-3.43 1.77l.06-.06c-1.84 1.28-4.1 2.08-5.88 3.3.06-.06.06-.15.5-.4-1.35.8-3.2 1.9-3.37 1.8-3.24 1.86-7.84 4.34-9.8 5.74l.12-.12c-1.1.82-1.53.9-2.82 1.7-.08.02-.18.06-.17.05-1.2.88-3.78 2.14-4.8 2.8l-.12-.06-.64.37c-.12-.14-.2-.36-.33-.58l.23.5c-.06.05-.13-.02-.2-.15-.03-.07-.07-.14-.1-.23l-.2-.46c-.3-.72-.7-1.65-1.26-2.56-.88-1.8-2.4-3.35-3.22-5.28-.57-.83.6.68-.16-.6.12-.12.4.58.34.18-.72-1.27-.93-2.2-1.83-3.78l.08-.12c-1.25-2-1.8-4.05-2.7-5.36-1.15-2.14-.38-1.62-1.7-3.8l-.27-.96c-.44-.98-.52-.6-.96-1.72.13.02-.57-1.4-.18-.8-1-2.52-2.55-4.87-3.64-8.26-.5-.63-1.03-2.34-1.38-2.82.03-.12-1.2-3.36-.35-1.54.07.16.18.44.14.43l.14.13c-1.22-3.12-2.82-7.02-3.2-7.02-.47 0 1.72 7.6 2.9 11.5l3.08 7.28.03.4c-.12.24 1.3 2.04 1.28 2.43l.53.87c.1.27.3.83.05.4.4.85.44.86.8 1.44l.32.96c1.52 3.38 3.14 6.1 4.84 9.6.93 2.15 2.44 5.17 4.03 8.2l1.33 2.5.5.95c.18.27.27.82.65.43l1.78-1.03 3.76-2.24c3.1-1.92 6.6-3.72 10.13-5.53-.48 1.97-.96 3.9-1.6 6 .2-.17-.53 2.23-.2 1.68-1.1 4.8-2.73 8.55-2.66 10.4-.58 2.16-.85 2.52-1.2 3.62l.12-.52-2.33 8.2c-.4 1.5-.2 1.82-1.07 4.46.16-.9-.15.2-.46 1.2.18-.64.2-.85-.27.44a8.68 8.68 0 0 1-.16.75c-.01.01-.03.06-.04.03-.05.17-.1.32-.12.44-.02.08-.03.14-.05.2l-.03.17c0 .04.06-.1.13-.3.01.03.04.01.1-.13-.05.12-.1.25-.16.38-.03.05-.03.15-.1.16l-.2-.01h-1.4c-1.06 0-1.92 0-2.03-.1l-13.33.35c-.5-.1.53-.18 1.8-.22l-3.1.05c.03-.13 1.77-.08 2.73-.1-3.68-.2-7.58.24-11.9.06l-.9.1-.26-.02c.01.06-.95.14-1.6.16-.6-.1.04-.27-2.1-.25-1.7-.1-4.8.07-7 .15 1.2.02.8.08.3.12-1.07.01-1.68-.1-2.5-.05l-.08-.12c-.15.12-2.85.14-3.2.2-.6-.1 1.66-.1 1.92-.2l-6.42.05c-2.28.13.42.15-.68.3-2.02.04-3.98.16-6.3.07l.73.14c-3.8.12-6.05.12-8.6-.02-28.22 1.25-5.94 1.58-5.94 1.58 11.1.27 16.85-.16 30.07-.32 11.63.03 14.7.3 26.76.13l8.8-.05 5.84-.06c.12-.08.12-.3.2-.45l.15-.48.45-1.48.6-2.05c.58-2.62 2.1-7.08 2.8-10.17l.45-1.14c.25-1.06.55-2.3.9-3.34l.01.08c.36-1.6.9-3.34 1.07-4.13l.02.07.5-1.9-.04.34a193.17 193.17 0 0 1 2.13-8.06l-.2.17c1.04-3.46 1.5-5.53 2.08-7.88.08-.04.16-.08.24-.13l4.02 5.2 3.54 4.4c1.22 1.42 2.37 2.87 3.6 4.23l1.82 2.05 1.87 1.96c.6.67 1.28 1.26 1.93 1.87l.98.9 1.08.8.46.44c.08.16.9.62 1.77 1.1.88.46 1.8.93 2 1.1.5.24.96.5 1.46.7.4.22 1.24.68.5.34 1.33.68 1.4.65 2.37 1.08l1.43.72c5.4 2.37 10.2 3.76 16.07 5.6 3.52 1.16 8.63 2.66 13.87 4.02 5.23 1.37 10.58 2.62 14.48 3.5l7.76 1.83c.1.47.38.85.8 1.08l5.24 1.38c.14.02.28.04.42.04.5 0 .94-.17 1.26-.5.6.16 1.16.34 1.75.56.72.26 1.46.52 2.23.72l.58.14c.2.05.35.08.72.14.3.01.72.27.8-.17l.4-.73a11.27 11.27 0 0 1 2.9-3.17 11.25 11.25 0 0 1 7.93-2.15c.18.04.5.08.76.1.27.04.5.1.5.1a11.11 11.11 0 0 1 4.45 2.25 11.3 11.3 0 0 1 3 3.98 2.87 2.87 0 0 0 .21.5c.12.33.3.8.44 1.4.1.3.14.64.2 1 .07.37.1.77.1 1.2.01.2.03.43.01.66.02.24.01.46 0 .7-.02.46-.08.94-.17 1.44l-.16.75c-.01.1-.1.36-.13.56-.08.22.08.4.18.6.2.4.7.6 1.13.65.43.07.9-.15 1.18-.4.56-.53.8-1.13 1-1.7.2-.58.34-1.17.46-1.75.43-2.33.7-4.6.7-6.64.04-.94-.07-1.9-.32-2.72zm-35.2-10.2l1.1-2.36c.1-.22.6-.5 1.46-.46.14-.01.5.02.87.17l4.62 1.38c.93.26 1.46.73 1.62 1.06.04.08.08.2.06.26l-1.1 2.36c-.1.22-.6.5-1.5.46-.24.03-.6-.06-.96-.14l-4.6-1.37c-.76-.24-1.24-.54-1.33-.67-.28-.48-.27-.63-.25-.7zm2.93 11.76l-5.03-1.3c-.14-.08-.4-.28-.3-.8l2.8-7.7c.33.16.66.28.9.36l4.65 1.4c.28.07.56.12.82.15l-2.94 7.57c-.07.1-.25.44-.9.34z"/></svg>