<svg xmlns="http://www.w3.org/2000/svg" viewBox="0 0 480 480" xmlns:v="https://vecta.io/nano"><path d="M259.5 215.05l-.3-.07.3.07zm102-7.63c-.66-.38-1.36-.98-2.12-1.6 1.8-.76 2.4-1.9 2.16-2.6-.83-2.2-6.5-.78-12.12-1.74-1.82-.4-3.63-.03-6.44.38-4.16-.64-7.75-1.48-10.7-2.87-1.64-.82-15.56-8.1-28.52-15.13l1.26-2.98c.33-.55.24-1.24-.3-1.57l-6-3.5c-13.04-9.74-28.6-22.4-32.76-29.54-5.45-9.35-10.6-20.56-16-29.26-4.25-6.82-9.94-13.4-16.86-16.37.66-.64 1.3-1.37 1.86-2.23l2.5-.7c1.3-.34 2-1.73 1.66-3.02l-4.5-15.86c.04-.3.04-.52-.02-.62a1.28 1.28 0 0 0-.22-.24l-1.6-5.66c-.34-1.3-1.73-2-3.02-1.66l-9.34 2.64c-1.3.34-2 1.73-1.66 3.02l2.04 7.2c-.6-.48-1.24-.3-1.24-.3-.1 2.94-.73 6.4-1.23 8.32-.43 2.06.2 3.92-.28 5.25-.04.1-.08.23-.13.36-.95-.22-1.92-.4-2.9-.5-9.23-1.13-15.5 2.07-20.95 7.84-5.36 4.32-10.36 10.86-15.52 18.46-5.62 8.2-10.63 15.14-13.5 21.45l-1.7-.33-13.9 53.57c-2.53 12-4.9 29.36 32 37.33 33.14 7.2 40.44-2.32 44.68-20.28l1.58-7.06 4.16-.02s2.8-8.28 6.12-19.65l.7-2.3a71.3 71.3 0 0 0 4.14 2.4c14.43 7.64 28.28 13.45 42.4 17.83l-.2.46 6.87 2.44c.55.33 1.23.14 1.56-.4l2.58-6.12c13.96 4 26.08 6.58 36.93 9.34 1.64.4 3.3 1.23 5.56 1.56 1.02-2 2.6-3.66 4.53-4.8 1.05-.5 2.3-1 3.52-1.3.27-.07.52-.1.78-.16.5-.06 1-.1 1.5-.1a11.6 11.6 0 0 1 11.6 11.6c0 .08-.01.17-.01.25s.01.17.01.25c0 1.1-.2 2.2-.5 3.3.1.2.2.4.4.5 1.8.85 2.5-2.54 2.97-6.13s.7-7.35-1.8-9.1zM223 91.43c-.3-.2-.53-.74-.78-1.25-.28-.7-.3-1.67-.42-3l1.2 4.24zm92.4 97.8l-.17-.08c.01.01.02.01.03.01.05.03.1.05.14.07zm-81.3 15.43l.07-.26c-.01.02-.01.03-.01.04l-.06.22zm-85.88 10.77l.1.24c-.01-.02-.01-.03-.02-.04-.02-.06-.05-.14-.08-.2zm24.88-86.88l-.1.15c.01-.01.01-.02.02-.02l.07-.13zm112.26 79.32l.2-.02c-.07 0-.12.02-.2.02z" fill="#fff"/><path d="M222.12 77.37l.1-.02c.38-.13.72-.4.94-.76.24-.4.3-.85.17-1.25-.26-.76-1.15-1.4-2-1.1-.38.13-.72.4-.94.76-.24.4-.3.85-.17 1.25.24.7.9 1.14 1.66 1.14l.23-.01zm-.95-1.46c-.05-.15.02-.3.07-.4a.82.82 0 0 1 .42-.34.36.36 0 0 1 .11-.02c.24 0 .52.22.62.5.05.15-.02.3-.07.4-.1.14-.22.26-.37.32-.4.02-.67-.16-.78-.47zm3.1 2.7c-.26-.76-1.15-1.4-2-1.1-.76.26-1.4 1.15-1.12 1.97.2.76.8 1.22 1.5 1.22a2.02 2.02 0 0 0 .47-.06l.04-.01c.75-.28 1.4-1.16 1.1-2zm-1.42 1.05c-.38.1-.64-.07-.75-.48-.1-.25.16-.62.5-.73a.36.36 0 0 1 .11-.02c.24 0 .53.22.62.5.1.24-.15.6-.47.72zM302.4 188.9l.18-.45-.17-.05c.16-.1-.07.4-.01.5z"/><path d="M363.88 210.73c-.14-.68-.35-1.3-.62-1.8-.3-.5-.6-.9-.9-1.17-.6-.53-.95-.64-.8-.46.1.2.86.7 1.36 2.15.52 1.44.5 3.73-.07 6.88l-.01-.17c-.28 1.88-.54 3.4-.96 4.68-.2.6-.5 1.22-.82 1.4-.27.17-.7.05-.66-.3.05 0 .14-.27.22-.6a9.97 9.97 0 0 0 .21-1.19c.05-.44.07-.9.06-1.3v-.97l.02.1c-.2-2.4-.86-5.03-2.42-6.85.06.07.14.07.46.52-.93-1.47-2.8-2.94-2.86-3.06-1.04-.8-2.37-1.46-3.8-1.88 2.1.1 4 .1 5.72-.12.65-.08 1.26-.3 1.8-.6.75.6 1.5 1.05 1.86 1.2.44.18.53.17.4.03-.15-.15-.5-.37-.9-.72l-.5-.44c-.03-.04-.07-.08-.06-.1.05-.01.1-.03.13-.04a2.08 2.08 0 0 0 .28-.19c.13-.1.24-.2.35-.28.42-.38.62-.75.62-.75a2.2 2.2 0 0 0 .34-.99 1.77 1.77 0 0 0-.27-1.12c-.37-.63-.97-.95-1.45-1.1-1-.33-1.84-.36-2.66-.4-1.63-.06-3.1 0-4.6-.03l-2.3-.1c-.8-.04-1.5-.2-2.5-.3-.96-.07-1.94.02-2.94.16l-1.53.24-.23.04-2.94-.22c-2.9-.56-4.93-1.15-6.87-1.92-1.16-.44-2.22-1.05-3.56-1.75l-4.64-2.4-10.62-5.57c-.9-.4-2.14-1.07-3.4-1.74-1.9-.96-4.3-2.1-4.36-1.78-.06.37 2.48 2 4.02 2.96a1.62 1.62 0 0 1 .18.1c.96.47 1.18.4 2.85 1.35-.57-.24.12.12.75.46-.4-.2-.54-.25.26.23.13.04.3.13.5.2 0 .01.04.03.02.03 1.06.54.9.43.4.16.03 0-.01-.03-.15-.12l3.13 1.78 8.17 4.1c.27.2-.37-.07-1.15-.46l1.9.96c-.05.06-1.1-.52-1.68-.8 1.1.64 2.25 1.22 3.47 1.8l1.87.92 2.03.88.6.15.17.07c0-.03.65.13 1.08.25.4.18-.08.16 1.36.54 1.12.37 3.25.7 4.76.9-.8-.15-.54-.14-.2-.1l.9.18.25.05.25-.03.4-.07.06.06c.03-.03.23-.07.5-.12 1.36.03 2.38-.04 3.28-.1l.75-.05c1.26-.06 3.5.1 5.65.23l4 .22c2.4.08 2.84.88 2.85.88.05.16.01.48-.25.87-.4.6-1.27 1.3-2.56 1.47-2.25.3-4.87.17-7.82 0-3.53-.22-6.54 1.1-7.7 2.03a30.5 30.5 0 0 1-2.17 1.6.5.5 0 0 0-.14.69c.04.06.1.1.15.14-.38.4-.78.87-1.13 1.36l-.47.7-.2.35-.1.16-.04.08c-.02.01-.06 0-.08-.01-.06-.01-.1-.02-.16-.02l-.47-.08-.06-.08c-.98-.22-1.94-.55-2.93-.88l1.1.4c-.22.03-.76-.2-1.53-.5-.8-.3-1.82-.57-2.92-.8-2.04-.53-4.24-.65-6.35-1.25-1.04-.16.93.08-.6-.22-.03-.1.72.1.35-.06l-4.28-1.06-.06-.1c-2.43-.44-4.5-1.18-6.12-1.45-2.48-.55-1.6-.62-4.2-1.12l-.97-.35c-1.1-.3-.82-.08-2.02-.44.1-.04-1.52-.44-.8-.32l-9.05-2.48a25.5 25.5 0 0 1 .55-1.35c.1-.37-.13-.53.2-1.12.01.24.1-.02.2-.25-.05.15-.03.22.16-.06a.69.69 0 0 1 .01-.2c.01 0 .02-.01.03 0 .13-.4.07-.35-.02-.17-.01-.02-.04-.01-.1.04.3-.35.46-1.12.65-1.1.45-1.18.63-2.1.98-3.08.13-.07.1.2.03.48l.26-.7c.12.06-.1.43-.16.65.55-.73.5-1.77 1.1-2.66v-.24l.04-.05c-.05-.02-.03-.26.01-.4.16-.1.24.1.44-.36.26-.33.4-1.1.55-1.6-.13.26-.15.15-.14.02.1-.24.26-.33.3-.53l.15.04c-.18.04.1-.68.1-.8l1.9-5.88c.87-4.46-1.2-.46-1.2-.46-1.33 2.35-1.5 3.8-2.63 6.78-1.16 2.56-1.7 3.14-2.73 5.87l-1.58 3.93c-.06.68-.7 1.64-.82 2.42l-.23.23c-.05.27-.13.57-.3.78l-.03-.03c-.07.4-.3.78-.32.98l-.03-.03-.17.45v-.1a10.21 10.21 0 0 1-.73 1.88l.15.01c-.33.58-.48 1-.62 1.43l-.23.63-.16.34c-.04.08-.06.08-.1.1l-.03-.03c.03.14-.06.26-.17.27-.05.01-.1-.01-.15-.03-.06-.03-.03-.05-.2-.13-.55-.27-1.1-.54-1.9-.63.2.02-.05-.1-.03-.13-.7-.2-1.42-.44-1.53-.17-.5-.18-.37-.23-.4-.35-.04.12-.5.02-.87-.1h.2l-1-.3c0 .08 0 .17.02.26-.34-.2.05-.3-.26-.34l-.16.15c-.14-.06-.24-.14-.28-.2.26-.33.5-.47.68-.6 1.45-3.15 2.46-6.76 4.05-9.6l.2-.07c.22.03.06-.94.3-.98l.06-.38c.08-.08.2-.27.17-.08.14-.32.12-.34.15-.6l.27-.3c.64-1.22.86-2.4 1.48-3.7.93-1.48 2-4.57 2.6-6.35.36-1.24 1.02-2.46 1.7-3.7.33-.62.67-1.23.97-1.86l.2-.45c.02-.03.03-.07.04-.1a2.21 2.21 0 0 0 .06-.3l.04-.01c.03.05.07 0 .07-.03l1.54.93 1.5.86 1.4.75.7.36.34.16.1.03c.1.04.2.24.22.4.03.16.04.32.2.32.07 0 .23-.06.37-.26a1.43 1.43 0 0 1-.15.39l-.7 1.65 1.4-1.8.3-.66-.73-.55c-.01-.03-.01-.07-.03-.1-.07-.2-.3-.44-.45-.56-.3-.3-.67-.63-1.1-1h.08c-1.04-.73-1.74-1.16-2.58-1.44-.07-.05-.13-.1-.2-.15-.06-.12-.24-.23-.44-.34l-1.9-1.46-6.65-4.98a4.1 4.1 0 0 0-.59-.44c-.22-.15-.4-.27-.4-.25l-7.4-6.03s-8.96-7.38-13.78-12.62c-2.45-2.58-3.74-4.63-3.66-4 .03.16.16.48.42 1 .13.25.28.57.48.92l.77 1.17c1.2 1.75 3.18 4.24 6.27 7.44l-.2-.13c3.78 3.7 6.3 5.84 9.25 7.98.25.6 3.32 2.76 4.23 3.6l-.1-.05c2.65 1.82 5.07 4.24 7.66 5.95-.1-.05-.2-.03-.78-.46l3 2.2-.4 1.04c-.1.25-.22.43-.3.42-.5 1.3-1.34 3.03-1.44 3.95l-.02-.07c-.03.54-.23.6-.37 1.17-.03.02-.06.05-.06.04-.05.58-.6 1.5-.7 1.92l-.1-.02-.4 1.02.18-.37c.23.25-.5.7-.64 1.5-.33.67-.01 1.64-.45 2.3-.01.4-.1-.4-.2.16-.15-.05.01-.28-.16-.2-.14.53-.5.75-.66 1.4l-.12-.02c-.13.9-.8 1.44-.83 2.06-.26.86-.58.4-.72 1.36l-.3.27c-.18.36.08.34-.17.72-.1-.07-.3.48-.3.2-.55.86-.6 1.96-1.37 3.07.08.34-.3.9-.24 1.17-.1 0-.54 1.22-.42.46.01-.07.06-.17.1-.15l-.08-.13c-.5.6-.42 1.3-.75 1.98.12-.2.23-.46.23-.25l-.3.63-.04-.17-.46.92.17-.08c-.26.44-.53.52-.6 1.1-.01.28.35-.37.17.13l-.6 1.05-.18.32-.27.56c-.03.06-.05.1-.08.16-.03-.01-.07-.02-.1-.03-1.4-.3 1.27.16-.8-.38-.02-.17.98.2.5-.08-2-.57-3.2-1.2-5.7-1.95l-.06-.15c-3.25-.9-5.92-2.3-8.07-2.93-3.27-1.17-2.03-1.2-5.46-2.35l-1.23-.7c-1.4-.63-1.1-.24-2.64-1 .14-.06-1.95-.95-1-.64-3.47-1.73-7.26-3.07-11.7-5.62-1.1-.3-3.3-1.6-4.12-1.86-.12-.1-4.44-2.52-1.87-1.27.22.1.6.32.55.34l.35.06c-1-.7-2-1.2-2.95-1.75l.3-1.03-.04.34c.67-2.76 1.45-5.58 2.14-8.06l-.2.17c.8-2.64 1.2-4.48 1.62-6.24.42-1.77.8-3.47 1.45-5.88l.02.07c.82-5.14 1.93-8.4 2.65-13.04.1-.33.18-.67.13-.9.1-.7.2-1.45.26-2.24-.08.8.13-.33.15-.26.42-2.97.7-6.17.44-6.24.17-2.22.2-1.8.32-2.08-.1 0-.1-1.03-.13-2.25h.15c.02 0 .06.01.06-.01v-.37l-.03-1.77-.06-1.48-.08-1.4c-.12-1.87-.32-3.72-.6-5.53a57.18 57.18 0 0 0-.48-2.67l-.14-.65-.13-.56c-.1-.7-.23-1.46-.4-2.3-.43-1.77-.94-3.55-1.6-5.3-.64-1.75-1.4-3.46-2.35-5.1-.57-1.03-1.2-2.03-1.92-3l.03.02.16.18c.03-.05.72.53 1.15.94.3.5-.22.15 1.1 1.63.96 1.23 2.82 3.42 4.04 5.08-.62-.92-.36-.66-.05-.3.56.82.76 1.37 1.23 2l-.06.12c.17.04 1.5 2.18 1.72 2.45.2.54-.88-1.28-1.1-1.44 2.06 3.42 1.05 1.7 3.03 5.17 1.14 1.8-.06-.4.56.42.94 1.64 1.9 3.2 2.84 5.17l-.2-.67c1.76 3.1 2.72 5 3.7 7.18 3.3 5.74 5.32 8.8 6.38 10.23 1.05 1.42 1.13 1.23.75.34-.37-.9-1.17-2.47-1.87-3.84l-1.28-2.53c-2.32-4.65-4.13-8.16-6.17-11.85-2.07-3.67-4.2-7.6-7.7-12.84-.74-1.17-1.5-2.18-2.16-3.14-.72-.92-1.34-1.8-2-2.57a46.68 46.68 0 0 0-3.82-4.12c-.68-.6-1.33-1.24-2.1-1.8-.78-.55-1.52-1.2-2.44-1.75-.83-.5-1.7-1.05-2.7-1.5.3-.35.57-.7.8-1.03l2.24-.63c1.53-.4 2.43-2.03 2-3.64l-4.52-15.92c0-.1 0-.24-.02-.38a1.13 1.13 0 0 0-.19-.38l-1.62-5.7c-.2-.76-.7-1.38-1.4-1.76-.68-.36-1.47-.46-2.24-.25l-9.33 2.64c-.76.2-1.38.7-1.76 1.4a3.05 3.05 0 0 0-.25 2.24l1.92 6.77c.5.1 1.16.54 1.4 1.96l.1.7c-.08-.43-.17-.82-.28-1.16-.18-.5-.45-.88-.73-1.08-.3-.2-.57-.22-.77-.2-.03.01-.06.02-.1.02-.03-.26-.07-.37-.12-.25-.03.05-.06.16-.1.32-.18.08-.3.17-.3.2-.02.05.08.05.26.03-.17.93-.48 3-1.44 6.62v-.13l-.26 1a7.59 7.59 0 0 0-.19 1.02c-.07.65-.06 1.25-.03 1.8.03.7.1 1.32.06 1.9-.38-.08-.7-.16-.92-.17l.06-.03-1.43-.2.25-.01c-1.03-.1-2.08-.1-3.1-.2-1.03.01-2.04-.02-2.98.03l.17.13c-1 .08-1.86.1-2.6.27s-1.42.3-2.05.5l-1.93.66-2.22.93.03-.06c-.96.65-1.85 1.16-2.63 1.74-.82.53-1.52 1.1-2.25 1.64-.74.54-1.38 1.2-2.1 1.85-.08.08-.15.17-.23.25a50.57 50.57 0 0 0-2.95 2.65c-2.8 2.65-4.4 4.45-6 6.3-1.6 1.85-3.1 3.83-5.34 7.06l-6.37 9.4c-.8 1.54-2.7 3.97-3.66 5.8l-.53.6c-.34.63-.73 1.36-1.17 1.94v-.06c-.48.95-1.13 1.97-1.35 2.45l-.01-.06-.6 1.14.06-.22-1.62 3.38c-1-.1-1.2.01-.18.38l-.55 1.23.2-.08c-1.52 3.32-1.5 4.86-2.17 8l-.03-.05c-.1 2.07-.33 3.7-.44 5.36-.1 1.66-.12 3.4.52 5.54-.16-.53-.02.25-.07.2.47 2 1.52 3.97 1.8 3.85.7 1.3.55 1.07.54 1.3.05-.04.26.2.54.58l1.07 1.25c-.14-.1-.25-.25-.38-.37.7.84 1.5 1.6 2.33 2.3l-.32-.6c1.24 1.18.13.53 1.46 1.5l.1-.17c1.88 1.4 2.94 2.37 5.05 3.4 2.25.92 4.74 1.44 7.25 1.42 2.5-.03 5-.57 7.27-1.45 4.6-1.77 8.45-4.77 11.5-7.96l.37-.2c.3.02 1.34-2.05 1.68-2.2l.55-.86c.2-.2.6-.66.33-.23.57-.75.56-.8.9-1.37l.7-.74c2.23-2.96 3.72-5.72 5.86-8.93l.38-.54c3.8.73 7.63 1.46 9.8 1.7H220c1.87.18 2.38.44 4.44.75.1.04.25.08.23.1.6.06 1.36.2 2.16.34-.47 1.54-1.03 4.14-1.03 4.14-1.63 7.05-1.92 10.8-3.43 19.26-1.5 7.4-2.15 9.33-3.58 17.04l-2.24 11.15c-.15 1.74-1.02 4.67-1.36 6.66l-.33.72c-.14.68-.3 1.5-.6 2.13l-.02-.05c-.26 1-.65 2.1-.82 2.58l-.02-.05-.46 1.16.04-.22c-.58 1.7-1.46 3.3-2.37 4.62l.2-.03c-1.03 1.36-1.75 2.28-2.54 3.06l-.58.6c-.2.2-.44.36-.67.55l-.76.56c-.14.1-.28.2-.42.3l-.5.25.02-.05c-.78.56-1.5 1.06-2.3 1.34-.76.32-1.48.62-2.25.77-1.5.42-3.07.65-5.07 1.1.5-.1-.23-.05-.2-.1-.94.1-1.9.24-2.65.3-.75.06-1.26.14-1.27.28-1.4.01-1.13-.08-1.3-.18.01.1-.46.13-1.06.13-1.32-.18-.4-.36-2.5-.57l.23-.05-.68.16c-.06 0-.1 0-.16-.01v.04c-.16-.06-.22-.1-.02-.1-1.08-.05-4.22-.58-5.42-1l.24.04c-4.53-1.18-7.83-1.75-11.7-3.36.13.2-1.9-.67-1.46-.3-4.14-1.42-6.9-3.75-8.47-4.13-1.63-1.1-1.8-1.45-2.56-2.12l.38.27c-1.44-1.1-2.24-1.97-2.96-2.73-.7-.78-1.28-1.5-2.02-2.62-.7-1.12-1.15-1.14-2-3.4.4.68-.03-.2-.28-1.07.2.54.3.7-.01-.44a3.9 3.9 0 0 1-.23-.62c.01-.01 0-.06.02-.04-.4-1.44-.33-1.2-.22-.5-.02-.03-.03.03 0 .25-.13-.77-.3-1.85-.4-2.76-.08-.92-.1-1.67-.02-1.76-.1-2.27.04-4.23.26-6.1s.5-3.65.9-5.54c.2-.4.06.5-.13 1.6l.56-2.7c.13.05-.27 1.55-.43 2.38.9-3.13 1.33-6.62 2.46-10.3l.1-.8.07-.22c-.06 0 .08-.86.2-1.42.25-.5.25.1.72-1.74.48-1.43 1-4.16 1.45-6.1-.3 1.03-.26.68-.2.22.24-.92.5-1.43.63-2.15l.14-.04c-.08-.16.52-2.5.54-2.82.25-.5-.28 1.46-.25 1.7l1.44-5.55c.4-2-.24.32-.12-.66.43-1.75.77-3.48 1.4-5.45l-.3.6c.76-3.3 1.3-5.25 2.03-7.42 5.44-24.65-.13-5.53-.13-5.53-2.86 9.5-3.8 14.57-6.68 26.03l-3.12 11.4c-.85 3.23-1.8 6.47-2.8 11.84-.5 2.56-.86 5.3-.82 8.06.03 2.76.5 5.54 1.44 8.04.55 1.15 1.28 2.73 2.26 4.23.96 1.52 2.22 2.9 3.3 3.87l.75.86 2.52 1.98h-.07c.63.4 1.3.86 1.9 1.22.6.38 1.1.7 1.44.85h-.07l1.6.87-.3-.1c2.34 1.13 4.78 2.17 6.95 3.03l-.13-.2c2.3.94 3.95 1.4 5.52 1.84.78.23 1.57.4 2.4.63l2.84.77-.07.02c2.8.47 4.96.95 7.17 1.42 2.2.46 4.46.9 7.4 1-.73-.03.3.1.24.13 2.38.22 4.92.26 5.5.07l1.75-.02c.12.03.12.07.23.12-.01-.06.47-.12 1.15-.18.6-.04 1.22-.1 1.82-.16l-.45.08c1.47-.15 2.94-.34 4.38-.68l-.2-.01c.24-.05.48-.13.72-.2.16.03.24.05 1.4-.3l-.04-.08c.7-.22 1.4-.48 2.1-.76a23.94 23.94 0 0 0 1.86-.71c1.2-.5 2.35-1.12 3.65-2.1 2.63-2.15 4.56-5.1 5.9-8.17.13-.28.23-.58.35-.86l.1-.15c1.55-3.47 2.1-6.64 3.05-10.4.37-1.28.76-2.9 1.15-4.67l3.16-.03 1.04-.01c.04-.01.1.02.1-.03l.04-.12.08-.25.16-.5.48-1.46.65-2.03c.63-2.6 2.24-7.04 2.98-10.12l.47-1.14c.25-1.06.58-2.3.95-3.33l.01.08c.23-.98.53-2.02.77-2.86.04.02.08.05.12.07 3.03 1.74 6.07 3.23 9.04 4.74l8.73 4.3.44.36c.13.3 3.3 1.1 3.65 1.5l1.38.48c.36.2 1.14.57.46.33 1.24.54 1.28.52 2.2.82l1.3.67c4.9 2.1 9.25 3.43 14.56 5.23a66.07 66.07 0 0 0 2.58.91c-.04.1-.08.24-.13.38l-.18.12c1.73.43.3.4 2.05.87.12-.02.25-.03.36-.06.93.07.35.4 1.34.4-.35-.1-.07-.32.33-.12l-.15.08c.24.06.33.04.48.12-.16.01-.13.14.22.24l-.28.06.72.02c.45.3 1.3.42 1.44.66 0 0 1.04.46 1.34.37-.13.02-.05.1.04.16.05.06.26.22.1.2.27.06.8.14 1.3.03.52-.1.96-.4 1.23-.56l-.08.1c.23-.18.42-.4.55-.63.07-.12.12-.25.17-.38l.1-.22a12.02 12.02 0 0 0 .27-.78c.17-.5.33-1 .63-1.5-.15-.01.15-.54-.07-.47.3-1.17 1.2-1.85.83-2.47a1.12 1.12 0 0 1 .1-.22l8.1 2.3.37.2c.14.17 2.5.45 2.8.65l1.05.2c.28.1.9.27.37.17.95.24.98.23 1.68.36l1 .33c3.75 1 7 1.6 10.96 2.6 2.37.65 5.8 1.47 9.28 2.33.9.2 1.68.42 2.53.7.84.28 1.7.55 2.56.74l.66.13.75.12c.07-.01.2.08.2-.04l.44-.83c.1-.17.2-.32.28-.48.4-.62.82-1.17 1.25-1.64.6-.66 1.3-1.26 2.1-1.77.73-.45 1.7-.82 2.6-1.13.92-.3 1.86-.52 2.82-.5.96-.07 1.93.08 2.88.27 3.8.88 6.88 3.88 8.1 7.3.1.22.25.8.27.8.16.53.2 1.1.3 1.64.04.55.04 1.1.05 1.7a10.26 10.26 0 0 1-.17 1.65c-.05.28-.1.55-.17.82-.02.1-.1.35-.14.58-.1.24.07.45.18.65.01-.01.1.22.43.43.37.16.96.4 1.6.04.6-.34.9-.9 1.16-1.5.25-.6.43-1.26.58-1.95.3-1.4.5-2.95.65-4.5.16-1.63.2-3.2-.08-4.57zm-66.68-34.95c-.01.04-.03.1-.05.13 0-.04-.01-.08 0-.17.02.01.03.03.05.04zm-49.9-37.52c-.02-1.47.3-.7.2 1.12l-.1-.46c0 1 .03 1.33-.03 2-.04-.6-.12-.33-.26 1.12a15.29 15.29 0 0 0-.05-.98c0 .9-.06 1.85-.1 2.78-.33 2.13-.75 5.53-1.05 6.38 0 0 0 .02-.01.05h-1l-2.95.03-5.93.1-8.05.03c1.08-4.37 1.68-7.9 2.6-13.2.07-.03.1-.07.1-.1 1.1 0 .9.1 1.04.2-.01-.12.95-.18 1.8-.18l-.4.05 2.46-.04-.48-.24c1.3.07.33.3 1.58.23l-.02-.2c1.8.04 2.86.33 4.6.48 1.8.02 3.66.01 5.5-.02h.45c.03.26.05.53.08.87zm-1.47-14.63l.3 1.78c.08-.35.25.58.4 1.54l-.1.13c.64 3.67-.06 1.38.4 5.04l-.1-.32.25.73c.02.2.03.4.06.6l.12 1.06.04.55v.28.1c0 .01.01-.01.01-.03 0 .05 0 .1-.01.14-.02.07-.02.14-.12.1l-.1-.02h-.05-.15c.04.02.1.04.14.06.01.02.02.04.04.06l-1.14-.14a4.95 4.95 0 0 0-1.36.04c-.54.1 1 .17-.1.2-1.4-.1-3.53-.22-5.33-.26.17.14-.32.14-.82.17l-.06-.12c-1.9.17-.7-.27-2.6-.14l-.33.17c-1.7.25-.92-.26-2.83.08.75-.02.35.27-.57.22l.23-.12c-.5.03-.68.08-1.03.05.23-.05.2-.12-.14-.15l.03-.15.03-.01h-.03l.3-1.7 1.68-9.22.17-1.2c.34.01.7.02 1.14-.01l.06.12c1.82-.22 3.43.17 4.65-.05 1.88-.1 1.26.37 3.2.13l.76.17c.84.03.6-.2 1.53-.12-.06.1 1.17.1.63.2.23.01.45.03.68.04.04.02.08.02.12.02zm-7.05-16.57l-.78-.97c-.2-.22-.26-.3.05-.06.6.7 1.2 1.38 1.73 2.14l-.42-.4c.4.56.8 1.1 1.15 1.7.37.58.72 1.16 1.03 1.78l-.16-.56c.47.9.73 1.53 1 2.2.3.65.56 1.35 1.1 2.37.5.93-.58-1.85.28.13.58 1.62 1.18 3.8 1.68 6.05-.54.03-1.62.32-1.82.16l-.78.1c-.22-.04-.7-.08-.3-.13-.73-.01-.74.03-1.27.1l-.78-.13c-2.5-.1-4.68.07-7.18.1.06-.45.1-.9.15-1.4.15-1.53.3-3.33.16-5.55-.04-2.12-.5-4.32-1.17-6.42-.47-1.48-1.2-2.85-2.04-4.12l.17-.2c.57-.64 1.18-1.2 1.88-1.8 2.4 1.46 4.46 2.7 6.33 4.95zm-6.3-5c.05-.04.1-.1.16-.14.24.12.47.25.67.38.4.23.72.4.76.47.05.05-.16-.05-.83-.35-.23-.1-.6-.32-.57-.34l-.2-.02zm1.57-19.77c.17-.52.33-1.04.48-1.56.08.04-.23.9-.38 1.4a12.27 12.27 0 0 0 .47-1.37l3.98 14.02c.28 1.07-.3 2.15-1.3 2.4l-1.23.35c.35-.7.5-1.32.5-1.74.15-.6.2-.97.25-1.28.03-.3.04-.53-.03-.87-.04-.14-.06-.28-.13-.4-.16-.26-.16-.22-.2-.26-.07-.02 0-.08-.01-.1l.17-.73a11.85 11.85 0 0 0 .15-.78c.04-.26.05-.58 0-.88-.05-.3-.15-.67-.44-1a1.14 1.14 0 0 0-.27-.23l-.13-.08c.01.01-.02 0-.03 0-.1-.02-.2-.02-.34-.02 0-.04.06-.14.1-.26.02-.07.1-.4.1-.75.03.52.1-.05-.03-.62.07.25.12.22-.07-.46-.06-.1-.14-.26-.23-.4 0-.01-.01-.04 0-.03-.35-.55-.6-.6-.63-.62-.03-.01.14.1.33.3-.02-.01-.01.02.1.17-.18-.25-.45-.5-.86-.62s-.83 0-1.13.15c-.2.1-.37.22-.5.32l.03-.15c.15-.56.34-1.1.5-1.64l1-3.18c.13-.23.02.3-.18.93zm-14.84-6.13c-.13-.5-.07-1.06.17-1.5a1.79 1.79 0 0 1 1.14-.91l9.33-2.64a1.93 1.93 0 0 1 .53-.07 2.02 2.02 0 0 1 .97.24c.46.24.78.64.9 1.14l1.38 4.88c-.2.03-.4.1-.56.2-.3.2-.53.4-.74.64-.1.15-.18.3-.25.44l-.1.1c.03.01-.22.5-.37.77-.23.23-.12-.1-.72.84-.53.7-1.34 2.12-1.96 3.1.36-.5.28-.32.15-.1-.3.47-.55.7-.76 1.07l-.1-.01c.2-.13-.74 1.27-.82 1.46-.24.22.44-.75.47-.9L226 87.7c-.62 1.03.2-.13-.06.4-.6.87-1.1 1.8-1.88 2.68a3.15 3.15 0 0 0 .3-.24c-.27.37-.53.7-.84.83l-4.3-15.2zm-9.14 76.5c-.4.9.27-.86-.43.44-.16-.05.3-.63-.02-.38-.72 1.26-1.42 1.9-2.3 3.46l-.14-.01c-1.1 2.07-2.55 3.57-3.25 4.96-1.3 2.02-1.2 1.1-2.48 3.24l-.7.66c-.68.8-.3.73-1.1 1.58-.04-.12-1 1.07-.65.48-.9.95-1.77 1.95-2.78 2.96-1 1-2.18 2-3.68 2.8-.25.3-.76.64-1.27.94-.5.3-1 .6-1.22.78-.06-.02-.84.35-1.4.6-.57.2-.9.3-.06-.13.15-.08.4-.2.4-.16l.16-.2c-1.83.57-3.2 1.44-5.07 1.73.55-.08 1.3-.24.8-.06-.58.12-1.15.24-1.74.28l.35-.15c-.43.04-.86.1-1.3.12l-1.3.02.36.1c-1.28-.07-1.7-.3-3.14-.33-.67.01 1.18.33-.17.2-1.7-.35-4.1-1.32-5.96-2.46.1.22-.4-.06-.94-.36l.01-.14c-1.02-.57-1.16-.75-1.28-.94-.12-.2-.26-.35-1.18-1.04l.2.07-.62-.2c-.87-.6-.98-.88-1.16-1.13-.1-.13-.18-.26-.36-.45-.17-.2-.42-.47-.84-.87.6.68.01.53-.57-.44l.25.17c-.35-.5-.53-.64-.7-1.02.23.3.24.08-.2-.7l.4.46c-.33-.46-.66-.92-.93-1.43-.4-1.25-1-3.28-.87-3.86 0 0-.02-.18-.06-.45l-.07-1.06c-.04-.8-.08-1.7-.16-2.04.1.6.2-1.02.3-.56-.13-.75-.02-3.02.25-3.9l-.01.17c.3-1.65.47-3.12.74-4.4.3-1.32.66-2.6 1.33-3.95-.2.07.5-1.36.18-1.07 1.13-2.93 2.96-4.9 3.04-6.15.72-1.25 1-1.4 1.42-2l-.16.3c1.4-2.3 1.84-2.96 2.97-4.62.5-.86.38-1.15 1.45-2.6-.24.54.16-.08.54-.63-.23.37-.27.5.3-.2.04-.12.14-.3.22-.45.01 0 .04-.03.04-.01.6-.95.47-.8.16-.38 0-.03-.04-.01-.16.1.77-.9 1.84-2.7 2.07-2.7 1.9-2.82 3.08-4.93 4.68-7.24.26-.2-.06.38-.5 1.06l1.13-1.64c.1.1-.6.98-.94 1.5.77-.9 1.44-1.92 2.17-2.97.7-1.06 1.5-2.13 2.44-3.14l.28-.52.12-.12c-.05-.03.3-.55.55-.87.35-.22.2.2 1.08-.84.4-.38.9-.95 1.43-1.56s1.06-1.28 1.57-1.77c-.57.5-.44.3-.22.04.5-.47.86-.66 1.2-1.05l.15.07c-.14.04.14-.3.5-.66s.8-.73.88-.83c.37-.16-.75.75-.82.92 2.1-1.7 1-.94 3.2-2.5 1.12-.93-.3.03.2-.5.5-.4 1.07-.7 1.62-1.06l.87-.5c.3-.15.65-.27 1-.4l-.5.06 1.5-.72c.46-.2.9-.3 1.33-.44.42-.12.8-.24 1.2-.32.4-.05.8-.1 1.2-.12 2.2-.54 4-.54 5.36-.5.7-.03 1.26.07 1.75.12s.88.08 1.2.1c1.26.1 1.2-.05.6-.36-.64-.25-1.88-.67-2.98-.9l-2.05-.27 1-.07c-.16-.18 1.54-.1 1.12-.28.42-.03.83-.04 1.23-.05.4 0 .8.06 1.16.1.75.1 1.45.14 2.07.28l1.63.27c-.26.65-.56 1.43-.8 1.76l.02-.06-.1.18c-.05.02-.1.04-.14.06-1.6-.55-2.65-.63-2.37-.38.13.16.63.4 1.46.84l-1.52.83c-.06.03-.13.08-.2.12.66-.3 1.32-.57 1.98-.8.12.06.22.12.35.2-.67 1.23-1.56 2.38-2.24 3.52.03-.06.01-.12.23-.44-.68 1.04-1.68 2.42-1.82 2.43-1.77 2.38-4.63 5.42-5.82 6.94l.07-.12c-.66.88-.95 1.05-1.74 1.98-.06.04-.12.1-.1.08-.4.5-1.04 1.2-1.65 1.84h.01s-4.06 4.56-3.65 4.8 6.75-6.93 6.75-6.93v.02l4.65-5c2.1-2.32 4.1-4.8 5.54-7.4a3.34 3.34 0 0 0 .32-.61c.92-1.56 1.7-3.22 2.3-4.97 0 0 .17-.5.18-1.2.03-.73-.1-1.66-.07-2.67.02-.52.06-1 .2-1.54a31.49 31.49 0 0 0 .37-1.74c.22-1.17.37-2.33.47-3.34.1-1.1.13-2 .1-2.56.13.02.3.07.42.16.18.14.35.4.45.7.1.33.14.65.18.95l.05.46c.17 1.42.1 2.6.4 4.03a3.09 3.09 0 0 0 .2.58l.2.4a4.88 4.88 0 0 0 .26.47c.13.2.34.46.57.6.46.34 1.1.3 1.57-.01.12-.07.23-.16.33-.25.1-.08.14-.14.2-.2.13-.13.23-.27.34-.4 1.4-2 2.7-4.06 4.6-6.97l2.18-3.22.88-1.33c.26-.4.52-.77.8-1.03.13-.12.28-.2.3-.22.02 0 .03.01.04.02.05.04.02.03.03.05l-.03.22c-.02.12-.05.24-.07.36-.25 1.03-.64 2.25-1.14 3.74l-.76 2.16a17.57 17.57 0 0 0-.36 1.16c-.05.2-.1.4-.14.65-.02.13-.04.24-.02.48.02.1.01.1.06.26.1.17.1.3.48.5.08.04.17.06.25.06.07.01.1 0 .15-.01.1-.01.2-.04.28-.07.12-.06.14-.08.2-.13.12-.1.14-.13.2-.2l.1-.1.17-.17a2.34 2.34 0 0 1 .35-.29c.23-.17.43-.2.5-.2s.25.1.33.3c.14.26.23.53.25.78.02.1.03.18.03.28 0 .05-.01.1-.01.15a1.8 1.8 0 0 1-.13.36c.14.34.2.55.23.66.07.08.18.24.36.6.07.03.13.03.2.07l.04.03c.02.02.05.04.07.07.04.05.08.1.1.18.06.14.08.37.08.57-.04.46-.18 1.04-.26 1.52l-.13.4c.08.2.12.36.2.47l.04.07.1.15c.01.05.01.1.02.17.01.04.03.04.05.08.04.06.06.15.08.26.04.2.01.48-.04.72l-.02-.03c-.05.75-.4 1.6-.54 1.97l-.01-.04c-.12.3-.27.58-.42.86l.05-.16c-.6 1.25-1.6 2.33-2.6 3.2l.14-.01c-1.08.9-1.85 1.6-2.5 2.32l-.25.28c-.08.1-.16.17-.28.36l-.37.65a35.64 35.64 0 0 1-.9 1.46v-.04c-1.45 2.96-2.75 4.42-4.26 7.46.2-.38-.13.13-.13.1-.76 1.36-1.6 2.8-1.45 2.92-.57.98-.5.77-.64.87.07.03-.4.9-.84 1.67l.18-.37-1.26 2.2.37-.36c-.7 1.15-.32.2-.94 1.35l.1.04c-.96 1.6-1.66 2.46-2.65 3.98l-5.63 9.83a.65.65 0 0 0-.49-.1c-.43-.34-.4-.53-.6-.74l.12.06c-.8-.64-1.03-.83-1.6-1.34-.32-.2-.54-.05-1.02-.54.24.07.01-.1-.18-.27.13.1.2.1-.01-.17a.73.73 0 0 1-.19-.07c0-.01 0-.02.01-.03-.35-.25-.3-.18-.17-.04-.02.01-.02.03.01.1-.24-.4-.94-.8-.86-.97-1-.8-1.8-1.27-2.66-1.92-.03-.15.2-.05.47.13l-.6-.47c.1-.1.38.23.57.36-.54-.76-1.54-1.06-2.2-1.9l-.23-.06-.04-.05c-.03.04-.26-.05-.4-.14-.04-.2.18-.2-.2-.53-.24-.36-.92-.73-1.37-1.04.2.2.1.2-.03.14-.2-.17-.24-.36-.42-.45l.08-.14c-.02.18-.62-.33-.74-.34-.04-.2.37.2.48.17l-1.18-1-.93-.34a3.4 3.4 0 0 1-.6-.55l.04.22c-.77-.53-1.18-.9-1.56-1.42-1.2-.73-1.98-1.16-2.5-1.38.22-.42.07-.56-.72-.2-.03.01-.06.02-.08.04-.52.25-1.28.7-2.37 1.42v-.08c-.53.44-.95.8-1.3 1.16a7.98 7.98 0 0 0-.49.54l-.53.7c-.32 0-.97.8-1.4 1.24.06.05.12.1.17.15l-.5.4-.36.3c-.8.9-2.5 2.13-3.42 3.2l-.48.28c-.3.37-.7.8-1.1 1.08v-.05c-.46.56-1.08 1.1-1.3 1.38v-.05l-.6.63s-3.94 4.74-4.05 6.1 6.77-6.24 6.77-6.24c.68-.7.93-.7 1.32-1.03l-.15.18a44.11 44.11 0 0 1 2.73-2.52c.48-.48.38-.76 1.36-1.5-.23.33.13 0 .5-.28-.2.2-.26.28.25-.04.07-.1.06-.12.1-.17.01.01.02.01.02.02.25-.24.22-.26.07-.16 0-.02-.01-.04-.07-.03.1-.03.2-.1.3-.15.1.04.17.14.25.2l.06-.1c.28.3.55.6.9.8-.04 0-.1.04-.25-.07.46.36 1.1.84 1.03 1 1.08.9 2.5 2.25 3.34 2.64l-.08-.01c.5.2.5.42 1 .73.01.04.03.07.02.08.54.24 1.24 1.06 1.63 1.3l-.05.1.85.72-.3-.3c.3-.13.5.7 1.24 1.08.54.53 1.57.54 2.05 1.17.37.14-.4-.04.1.24-.1.13-.26-.1-.24.1.46.3.56.72 1.14 1.08l-.06.1c.8.4 1.14 1.22 1.72 1.45.75.52.2.68 1.08 1.12l.16.37c.3.3.35.04.64.4-.1.06.37.44.1.34.65.8 1.7 1.2 2.52 2.3.35.04.78.58 1.04.6-.03.1 1 .9.3.55-.06-.03-.14-.1-.1-.13l-.15.03c.42.68 1.12.82 1.67 1.35-.14-.18-.37-.37-.17-.3l.5.48-.18-.02.74.74v-.2c.34.4.33.67.88.92.26.1-.25-.45.18-.12l1.83 1.84c-.6 1.07-1.1 2.2-1.82 3.17zm14.24-28.77c-.97 3.5-3.2 8.12-4 10.34l.03-.16c-.44 1.28-.74 1.57-1.38 2.94-.06.06-.12.15-.12.13-.36.96-1.2 2.4-1.86 3.55-.04-.02-.08-.04-.1-.06.42.22-.4-.55-.04-.42a4.65 4.65 0 0 1-.51-.33c-.12-.07-.24-.15-.37-.24-.24-.18-.47-.4-.56-.55l.06.03c-.9-.96-1.8-1.3-2.57-2.2-.05.14-.47-.32-.47-.08-.28-.18-.5-.38-.7-.58.54-.9.96-1.82 1.54-2.78-.26.4-.58.96-.4.56l.76-1.3-.1.3 1.16-1.92-.22.23c.58-.93.9-1.2 1.42-2.32.23-.5-.6.85-.05-.17l2.9-4.7c-.16.1.1-.33.34-.78l.1-.01c.9-1.77.5-.55 1.42-2.3l.08-.35c.76-1.6.62-.75 1.43-2.56-.38.68-.33.24.18-.58l-.06.25c.25-.47.32-.64.5-.93-.13.3.01.2.4-.48l-.2.5.63-1.34c.64-.95 1.46-2.56 1.8-2.9 0 0 .08-.13.2-.34.03.12.05.24.08.37.18.73.27 1.55.26 1.96l-.03-.07c.42 2.12-.3 4.33-.55 6.38-.01-.08-.08-.14.01-.6-.23 1.46-.78 3.48-.98 3.53zm-10.1 19.54c-.32.42-.33.3-.46.28.1.07-.14.47-.38.8l.08-.18-.68.97.33-.04c-.43.46-.33-.05-.64.47l.16.1c-.65.8-.9.65-1.07.63-.1-.1-.17-.17-.26-.24l-.95-.8-2.1-1.7c-1.4-1.13-2.73-2.27-3.84-3.48v-.2c.1-.2-.9-.36-.85-.6l-.35-.18c-.05-.1-.2-.28-.02-.2-.26-.24-.3-.22-.52-.34l-.2-.35c-.97-1-2.02-1.58-3.08-2.6-1.13-1.36-3.77-3.36-5.3-4.5-2.2-1.53-3.98-4.23-6.26-5.76 0-.04-.1-.04-.12-.02l-.27-.25.33-.3 1.2-1.18c.7-.7 1.55-1.6 2.15-2.33.08-.1.16-.2.24-.3.36.46.83.94.83.94 1.85 2.02 3.18 2.64 5.7 4.68 2.1 1.92 2.5 2.62 4.8 4.48 1.05.94 2.22 1.88 3.28 2.76.63.27 1.36 1.18 2.06 1.56l.15.3c.24.13.5.3.66.53h-.04c.36.2.66.53.84.62l-.04.02.37.3-.1-.02a10.29 10.29 0 0 1 1.58 1.29l.06-.14c.9 1 1.48 1.1 2.27 2.05l-.04.02a4.14 4.14 0 0 1 1.16.87c.14.16.12.23.18.3-.08.08-.1.12-.08.3 0-.07-.07-.03-.12-.02-.42.58-.87 1.22-.65 1.4zm2.52 7.6l-.58 2.55-4.56-1c1.06-1.58 2.24-3.43 3.4-5.34 1.7-2.82 3.3-5.76 4.46-8l-.17.84c-.1.24-.18.9-.15.9l-1.7 7c-.01 0-.3 1.23-.72 3.04zm8.7 4.4c-2.46-.42-4.98-.92-7.56-1.47l.5-2.1c.33-1.4.58-2.7.77-4.04.38-.35.78-3.14 1.08-4.02v.1c.34-2.4 1.32-4.77 1.66-7.07 0 .1.07.16-.05.68.35-1.65.83-3.9 1.02-4l.5-2.08a81.1 81.1 0 0 0 1.16-2.51 46.16 46.16 0 0 0 2.06-5.47c.54-1.87.93-3.77 1.02-5.66.04-.24.01-.9-.01-.88.1-2.25-.08-4.58-.88-6.77.01-.04.04-.08.05-.1-.2.46.5-.7.4-.32.25-.6 1.14-2.24 1.6-2.85l-.06.13.6-1c.53 1.03 1.08 2.25.97 2.4 1.23 3.3 1.56 5.92 1.54 8.93-.1.33-.17-.37-.18-1.24l-.03 2.13c-.13-.03-.04-1.22-.05-1.88-.07.63-.1 1.27-.12 1.92-.05.66-.08 1.33-.1 2.02-.07 1.38-.2 2.8-.5 4.3l.02.64-.04.18c.06 0 .04.68-.01 1.13-.18.4-.25-.07-.48 1.4-.3 1.15-.5 3.33-.7 4.87.17-.82.18-.54.16-.18-.13.74-.32 1.14-.38 1.72l-.13.03c.1.12-.25 2-.24 2.25-.2.4.12-1.16.07-1.36l-.86 4.43c-.2 1.6.2-.26.2.52-.26 1.4-.45 2.77-.88 4.34l.25-.47c-.47 2.63-.84 4.18-1.4 5.9l-.94 5.42zm1.3.22l-.16-.03.34-1.2.57-2.1c1.1-.03 2.28-.05 3.6.08.64-.2 2.12-.08 2.6-.24.08.1 2.97.01 1.3.2-.14.02-.4.01-.38-.02l-.2.12c1.68.23 3.05-.13 4.7-.1-.5-.04-1.15-.03-.7-.1l1.54.02-.32.1 2.3.06-.32-.13c1.13.07 1.52.28 2.8.1.57-.1-1.07-.17.12-.2l.6.03c.12.01.15.02.22.04l.17.04.03.01c-.01.07-.03.15-.04.22l-.03.08-.04.1-.02.04-.05.18-.35 1.44c.18-.15.07.35-.02.88l-.13.04c-.26 2.02-.42.67-.7 2.67l-.05-.2.14.57c-.14 1.83-.46.9-.55 2.95.03-.2.07-.3.1-.35-.16.75-.33 1.43-.48 1.87l.05-.27c-.05.18-.08.34-.13.5l-.02-.3-.03.5-.27 1.06h-.27c-.67 0-1.26 0-1.5-.08 0 0-2.52-.08-3.1.1.5-.12-.88-.16-.5-.3-.08.02-.2.03-.32.05l.6-3.37.43-2.5c.13-.26.1-.4-.03-.47 0-.03-.02-.04-.05-.04l-.08-.01c-.1-.03-.25-.05-.38-.07h-.1l-.2-.03c-.03-.01-.06-.01-.08-.02l-1.4-.26-3.34-.6-5.87-1.07zm-17.8 79.48c.12-.04.3-.1.4-.1-.1.03-.24.06-.4.1zM226.67 207c-.03 1.08-.67 3.45-.7 4.25-.12.1-1.1 4.78-.7 2.06.04-.23.13-.64.16-.6l-.05-.35c-.83 2.66-1 4.9-1.87 7.48.3-.74.57-1.78.45-1.07-.25.8-.5 1.6-.8 2.38l.08-.52c-.44 1.16-.88 2.32-1.42 3.42l.33-.4c-.8 1.63-1.28 2.08-2.18 3.87-.3.56.32-.26.4-.33-.06.1-.13.22-.23.37-.04-.1-.94 1.1-.62.5-.43.48-.8 1.02-1.23 1.5l-1.38 1.48c-.5.47-1.1.9-1.7 1.36-.3.25-.65.4-1 .6-.36.18-.73.35-1.1.53-.14.13-.33.3-.57.4-.25.1-.52.23-.8.34-.45.18-.87.36-1.14.5-.3.1-.45.1-.6.1-.16-.01-.3.01-.62.08l.16-.14c-.98.1-1.8.4-2.66.6-.87.17-1.74.37-2.7.48.57-.04 1.34-.15.84 0-.6.07-1.2.17-1.8.16l.37-.12-2.7.04.38.1c-.57.01-1-.05-1.4-.1.6-.17 1.15-.4 1.4-.52-.58.3 1.12-.16.68.1.4-.14 1.12-.55 1.88-.9.38-.18.78-.33 1.12-.5s.64-.34.87-.43l-.15.1c.8-.42 1.56-.84 2.18-1.38.64-.5 1.25-.98 1.75-1.56 1.08-1.07 1.96-2.24 2.95-3.54-.2.04.78-1.36.4-1.1.43-.7.73-1.44 1.1-2.08s.65-1.26.9-1.82c.54-1.12.85-2.04.76-2.7.46-1.4.68-1.62.92-2.35l-.07.35c.74-2.67.88-3.46 1.37-5.44.16-1-.06-1.22.4-2.98-.02.6.12-.13.26-.8-.07.43-.06.57.2-.3-.01-.13.02-.32.04-.5.01-.01.02-.04.03-.02.2-1.12.13-.93 0-.42-.01-.03-.04.01-.1.16.38-1.12.66-3.2.87-3.3.65-3.35.95-5.77 1.43-8.56.15-.3.1.37-.02 1.2l.36-1.98c.13.04-.15 1.15-.25 1.76.68-2.3.75-4.88 1.5-7.6l.01-.6.05-.16c-.06 0-.01-.64.05-1.05.2-.37.26.08.52-1.3.32-1.06.54-3.08.75-4.5-.17.76-.18.5-.16.16.13-.68.32-1.05.37-1.6l.17-.04c-.2.24.18-1.8.17-2.08.2-.37-.1 1.08-.05 1.27l.76-4.1c.16-1.48-.2.24-.2-.5.22-1.3.34-2.57.72-4.04l-.23.44c.35-2.44.64-3.9 1.08-5.5.53-4.32.77-6.82.82-8.12l4.7.9.08.13 3.75.7-1.26-.27c.2-.1.9.06 1.35.2.06.02.1.04.17.06l-.1.03c.26-.01.12.23.1.38-.02.1-.04.2-.07.28l-.12.57-.4 2.1c-.24 1.32-.4 2.5-.52 3.76-.36.34-.58 2.93-.83 3.75l-.01-.08c-.2 2.22-1.03 4.46-1.24 6.6-.01-.1-.08-.15.01-.63-.26 1.54-.6 3.64-.78 3.73-.63 3.5-1.63 8.3-1.9 10.8l-.3.92c-.3 1.44 0 1.08-.4 2.67-.08-.12-.5 2-.4 1.05-.9 3.6-1.28 7.42-2.57 12.13zm6.96-7.85c-.4 1.5-.23 1.8-1.14 4.44.18-.9-.15.2-.48 1.2.2-.64.22-.84-.27.43-.03.2-.1.48-.17.75-.01.01-.03.06-.04.03-.15.5-.15.52-.18.63a1.54 1.54 0 0 0-.03.16c0 .03.06-.08.13-.27.01.01.03.04.12-.14-.05.12-.1.25-.17.38-.04.04-.02.16-.1.14h-.2-2.24l1.38-7.25.6-2.7.25-.5c.15-.1.24-1.16.34-2.12a47.84 47.84 0 0 0 1.75.06c.36 0 .73 0 1.12-.02l.85-.06-1.52 4.85zm5.12-18.33l-.34 1.24c.18-.13.06.35-.05.86l-.14.03c-.36 1.96-.45.63-.86 2.56l-.03-.2.1.57c-.28 1.8-.52.85-.8 2.85.22-.76.37-.27.03.64l-.04-.27c-.14.52-.15.7-.28 1.04.04-.33-.12-.22-.33.55l.02-.55-.24 1.5-.18.45c-.04.1-.05.15-.07.22h-.48c-.36-.01-.65-.03-.8-.08 0 0-1.58-.05-2.5.02l.1-.9c.1-.37.3-1.17.23-.5.26-1.26.23-1.3.34-2.2l.4-1.32c.5-2.36.9-4.56 1.3-6.8l.87.02-.3-.13c1.1.07 1.5.28 2.76.1.57-.1-1.05-.17.12-.2l.6.03c.1.01.2.01.32.02.1.01.08.01.12.02.12.03.24.05.3.08l-.14.34zm.93-2.4h-1.77l-2.92.03c-.16 0-.32.01-.48.01.36-1.77.68-3.53.9-5.25a1.92 1.92 0 0 0 .07-.41 174.12 174.12 0 0 0 1.36-6.64c1.74.06 3.34.23 5.56 0-.3.03-.1.05.03.08-.76 3.34-1.34 6.25-2.36 9.6.2-.17-.52 2.23-.2 1.68-.05.3-.13.6-.2.9z"/></svg>