<svg xmlns="http://www.w3.org/2000/svg" viewBox="0 0 480 480" xmlns:v="https://vecta.io/nano"><path d="M354.56 218.48v-.01l-.01-.02zM234.5 205l.07-.26c-.01.02-.01.03-.01.04l-.06.22zm127.46 2.84c-1.9-1.1-4.07-4-7.42-4.3-6.9-.66-12.72-1.25-17.44-2.57l.2-.64c.07-.63-.13-1.16-.67-1.4l-5.07-1.9c-.72-.1-1.3.18-1.54.72l-.06.2c-10.36-5.4-44.7-23.57-48.5-26.85-2.4-1.76-7.36-8.7-12.24-16.05l3.8-2.1-.56-1 .02-.01s-12.7-24.02-22.54-35.48c-4.26-4.92-8.58-9.95-13.42-13.27-1.3-.97-2.73-1.77-4.3-2.4a17.23 17.23 0 0 0-7.5-1.4c-11.66-.37-24.93 7.84-39.83 36.8-8.07 15.67-24.74 51.42-30.8 65.77-.6 1.18-1.87 3.84-1.72 4.73.02.1.05.18.08.26.18.75.8 1.3 1.6 1.3l28.17-.1h50.1l2.06-6.78h-.1c1.9-6.4 5.06-17.34 8.92-32.06l1.78-.98c7.22 9.56 15.22 19.33 19.5 21.82 7.45 4.85 17.2 8.2 31.4 12.3 11.27 3.25 21.33 5.56 30.5 7.78.1.32.28.58.6.73l5.15 1.5c.54.06 1-.1 1.28-.48 1.63.4 3.27 1.23 5.52 1.55 1.9-3.77 5.82-6.36 10.34-6.36a11.6 11.6 0 0 1 11.6 11.6c0 .08-.01.17-.01.25s.01.17.01.25c0 1.1-.2 2.2-.5 3.3.1.2.2.4.4.5 1.8.85 2.5-2.54 2.97-6.13.46-3.58.7-7.36-1.8-9.1zm-75.8-34.56l-.24-.14c.02.01.03.02.04.02l.2.12zm-42.95-66.05l-.14-.1.02.02c.04.03.08.07.12.1zM207.6 208.9l-.45-.06c.01.03.12.05.45.06z" fill="#fff"/><path d="M151.6 208.05c0-.01-.01-.01-.01-.02l-.2-.2.22.2z"/><path d="M364.14 210.46c-.23-.82-.6-1.5-1-1.94-.38-.46-.75-.7-.95-.82s-.26-.1-.14.01c.1.14.42.4.8.9.37.5.75 1.33.93 2.46.17 1.14.14 2.57-.1 4.3l-.45 2.83c-.2 1-.4 2.12-.83 3.2l.05-.24c-.22.62-.53 1.26-.87 1.46-.3.2-.63.01-.6-.2l.18-.73.16-.88c.08-.58.13-1.17.1-1.7.06-2.2-.53-4.2-1.53-6-.1-.32-.7-1.42-1.6-2.4a13.02 13.02 0 0 0-2.65-2.2l.12.06c-1.6-.92-3.4-1.6-5.26-1.8-1.86-.2-3.77.03-5.42.7.1-.04.15-.1.5-.22a12.79 12.79 0 0 0-3.18 1.59c-1 .7-1.67 1.38-1.77 1.4-.55.55-1.06 1.2-1.52 1.9l-.33.54-.12.2c-.04.02-.1-.01-.16-.01l-.55-.12c-1.08-.24-2.17-.65-3.3-1 .46-1.52.65-3.2 1.38-4.47l.16-.02c.2.04-.16-.53.05-.53l-.03-.2c.05-.04.13-.14.14-.03.06-.17.03-.18.01-.32l.2-.14c.32-.64.26-1.3.54-1.98.27-.38.47-1 .63-1.62l.2-.94c.01-.03.01-.06.02-.08l3.25.73-.73-.22 8.8 1.28c3.6.4 6.56.12 8.45 1.4 1.88 1.1 2.98 2.17 3.8 2.64 1.65.92 1.64.73.74.15-.8-.5-2.16-1.93-3.63-2.98-.73-.52-1.5-.92-2.08-1.15s-1-.3-1-.3c-.8-.2-1.5-.22-2.17-.3l-1.97-.2-3.67-.4-6.8-.96-2.86-.62c.01-.4-.03-.74-.15-1.13a2.1 2.1 0 0 0-.93-1.13l-.06-.02c-.77-.44-1.53-.95-2.38-1.03-.03-.04-.17-.02-.17 0l-1.18-.47-.84-.3-.43-.14c-.2-.1-.45-.07-.68-.07a2 2 0 0 0-1.15.43c-.2.17-.32.34-.4.5l-3.7-1.9-24.3-13.16-15.74-8.83-2.05-1.2a18.53 18.53 0 0 1-2.25-1.6l-1.03-.96-.95-1.06c-.64-.68-1.18-1.42-1.7-2.02a19.02 19.02 0 0 1-.71-1.04l-2.12-2.85.06.05-1.98-2.6-.75-.96s-4-5.48.9 2.93l2.23 3.26-.35-.43 3 3.83c.85.96 1.54 1.85 2.84 2.94 1.33.98 1.63.98 4.07 2.53-.83-.42.18.17 1.1.72-.6-.34-.8-.43.4.33.18.08.45.23.7.37.01.01.05.04.03.03 1.57.88 1.3.7.6.28.04.01-.01-.03-.23-.18l4.67 2.78c4.73 2.63 8.18 4.38 12.15 6.48.42.3-.53-.17-1.7-.77l2.82 1.5c-.06.06-1.64-.83-2.5-1.3 3.28 1.93 6.95 3.6 10.83 5.82l.84.38.23.13c0-.04.9.4 1.5.7.52.36-.1.12 1.84 1.15 1.5.88 4.4 2.3 6.43 3.32-1.08-.58-.7-.43-.23-.2.98.5 1.5.87 2.28 1.24l.04.1c.1.01 1.07.5 1.9.9l-.03.03c-.32-.16-.6-.3-.68-.32l.67.35c-.16.22-.27.45-.27.45-.7 1.23-.53 2.03-.92 3.64-.5 1.36-.87 1.65-1.2 3.1-.23.68-.4 1.43-.58 2.1.1.38-.27.88-.22 1.3l-.16.1c.02.15.01.3-.1.42l-.03-.02c.01.06.01.1-.01.17-.03.1-.05.18-.07.26 0 .04 0 .07-.01.1-1.95-.37-2.6-.6-4.88-1.1-.12-.04-.3-.1-.26-.1-2.3-.44-6.67-1.6-8.52-2l-.1-.1-4.54-1.14 1.7.45c-.63.03-3.4-.98-6.7-1.76-3.06-.85-6.3-1.36-9.45-2.38-1.53-.37 1.37.26-.9-.35-.05-.1 1.07.26.5.01-2.23-.62-3.6-1.18-6.33-1.98l-.1-.1c-3.58-1-6.6-2.33-8.93-3.12-3.56-1.4-2.3-1.13-5.96-2.67l-1.33-.78c-1.48-.82-1.14-.44-2.74-1.42.12.02-2-1.3-1.03-.76-.92-.57-1.7-1.2-2.6-1.8-.8-.73-1.65-1.44-2.5-2.24-.8-.83-1.68-1.67-2.52-2.6-.84-.95-1.72-1.94-2.6-3.04-.87-.86-2.66-3.06-3.28-3.73-.05-.15-3.55-4.44-1.47-2.03.18.2.48.6.44.57l.3.25c-.96-1.3-1.87-2.43-2.8-3.56-.83-1-1.65-2.02-2.5-3.14.73-.45 1.48-.9 2.33-1.35 2.33-.97 6.34-3.46 8.65-4.9 3.2-2.12 7.5-3.5 10.75-5.72.13-.03.38-.25.37-.27l3.15-1.7 2.88-1.6-.94-1.6c-.01-.06-.03-.1-.05-.18-.4-1.3-2.08-4.55-2.08-4.55a94.1 94.1 0 0 0-4.59-8.14l-5.63-8.73-4.67-7.34c-1.38-2.04-2.78-4.1-5.4-7.15-2.44-2.86-5.13-5.88-7.83-8.47-1.42-1.08-3.6-3.38-5.5-4.44l-.6-.6c-.67-.34-1.43-.76-2.03-1.2l.06-.01c-1.02-.45-2.15-1.02-2.67-1.2l.06-.02-1.3-.42.24.03c-.47-.13-.94-.3-1.42-.4l-1.46-.26c-.95-.23-1.9-.23-2.8-.3l.15.15c-.95-.13-1.75-.01-2.46.06l-.46.06c-2.64.1-5.22.65-7.6 1.5l-.62.1c-.15-.03-1.05.34-1.87.9-.84.53-1.7 1.07-1.97 1.1l-1.3.94c-.4.2-1.2.7-.57.22-.63.4-.92.62-1.17.84l-.85.74-1.33.86c-4.47 3.7-7.47 7.62-11.03 12.44-2.24 2.84-5.03 7.24-7.58 11.84-2.5 4.63-4.82 9.42-6.46 12.94-4.54 9.93-10.74 21.03-15.1 31.32-.1.16-.22.46-.32.72s-.18.48-.17.48l-4.3 9.28s-3.95 8.6-6.8 15.56c-.08 0-.16 0-.18.1l-.6 1.1-.38.7c-.23.44-.45.88-.65 1.3.2-.1-.01.36-.17.87h-.14c-.28 1-.36 1.24-.5 1.44-.06.1-.12.22-.16.54.02.18-.03.4.06.7.06.24.18.55.4.88.16.14.32.26.5.35.26.23.46.36.7.48s.4.2.58.27c.3.1.6.08.72.12a2.44 2.44 0 0 0 .72.03c2.4.2 6.92.26 6.92.26 11.1.27 16.85-.16 30.07-.32 11.63.03 14.7.3 26.76.13l8.8-.05 5.84-.06c.12-.08.12-.3.2-.45l.15-.48.45-1.48.6-2.05c.58-2.62 2.1-7.08 2.8-10.17l.45-1.14c.24-1.06.55-2.3.9-3.34l.01.08c.36-1.6.9-3.34 1.07-4.13l.02.07.5-1.9-.04.34a193.17 193.17 0 0 1 2.13-8.06l-.2.17c.85-2.83 1.3-4.73 1.77-6.6a17.4 17.4 0 0 0 1.13-.63l3.43 4.42 3.54 4.4c1.22 1.42 2.37 2.87 3.6 4.23l1.82 2.05 1.87 1.96c.6.67 1.28 1.26 1.93 1.87l.98.9 1.08.8.46.44c.08.16.9.62 1.77 1.1.88.46 1.8.93 2 1.1.5.24.96.5 1.46.7.4.22 1.24.68.5.34 1.33.68 1.4.65 2.37 1.08l1.43.72c5.4 2.37 10.2 3.76 16.07 5.6 3.52 1.16 8.63 2.66 13.87 4.02 5.23 1.37 10.58 2.62 14.48 3.5l7.45 1.75c.17.5.48 1 .9 1.32l.04-.15c.12.12.25.2.37.27l.14.05c.47.2.78.06 1.25.37l-.02.03c.86-.15 1.1.6 2 .47-.1.02.02.08 0 .12.37.06.75.15.84-.12.26.08.2.15.2.26.03-.12.27-.1.48-.05l-.1.02.66.15c-.04-.1-.08-.2-.1-.28.4.16.06.32.52.3l-.01-.2c.28.01.53.05.83.04a1.51 1.51 0 0 0 .86-.31 22.27 22.27 0 0 1 .97.33c.72.26 1.46.52 2.23.72l.58.14c.2.05.35.08.72.14.3.01.72.27.8-.17l.4-.73a11.27 11.27 0 0 1 2.9-3.17 11.25 11.25 0 0 1 7.93-2.15c.18.04.5.08.76.1.27.04.5.1.5.1a11.11 11.11 0 0 1 4.45 2.25 11.3 11.3 0 0 1 3 3.98 2.87 2.87 0 0 0 .21.5c.12.33.3.8.44 1.4.1.3.14.64.2 1 .07.37.1.77.1 1.2.01.2.03.43.01.66.02.24.01.46 0 .7-.02.46-.08.94-.17 1.44l-.16.75c-.01.1-.1.36-.13.56-.08.22.08.4.18.6.2.4.7.6 1.13.65.43.07.9-.15 1.18-.4.56-.53.8-1.13 1-1.7.2-.58.34-1.17.46-1.75.42-2.33.7-4.6.7-6.64 0-.94-.12-1.9-.36-2.72zm-183.46-8.16l.8.13c2.9.1 5.37-.15 8.43-.1 3.67.27 10.58.02 14.56-.12 5.6-.32 12.1.53 17.83.17a2.18 2.18 0 0 0 .67-.06l5.24.03h1.92l2-.01.7-.01c.14-.01.28-.01.42-.02l-.1.37c-.03.14-.04.2-.16.64l-.5 2c-.2.76-.33 1.4-.4 1.9-1.2-.2-3.6-.3-3.6-.3-5.7-.3-8.64.1-15.43.2-5.96-.07-7.55-.34-13.73-.23-2.95-.02-6.1.04-8.98.07-1.37.2-3.78 0-5.4.18l-.63-.12c-.56.06-1.2.1-1.77.04l.04-.03c-.83.1-1.77.04-2.2.08l.03-.04-1 .02.17-.05c-1.45.1-2.95.1-4.27.06l.1.15c-2.82-.16-3.85.14-6.4-.05l.03-.04c-3.22.38-5.1-.26-8.4.1.4-.05-.18-.07-.14-.1-1.53.04-3.16.06-3.18.35-1.1 0-.9-.1-1.05-.2.01.12-.96.18-1.83.18l.4-.05c-.4 0-.93.03-1.02 0a1.18 1.18 0 0 1-.54-.45 1.1 1.1 0 0 0 .02.4c-.3-.4-.2-.5-.18-.55.02-.03.03-.06.03-.13 0-.08-.02-.1-.01-.32l-.2-.01c.15-.76.53-1.42.87-2l.57-.9.3-.5c.1-.15.25-.4.26-.4.03-.05.05-.12.1-.15h1.5l2.8-.03 5.65-.1c3.75-.07 7.43-.1 10.85.06l.3.15c.13.2 1.9-.32 2.15-.12l.8-.1c.22.04.7.08.3.13.73 0 .75-.03 1.28-.1zm47.85 5.88c1.7-.17 2.8-.32 3.42-.45 0 .05-.01.12-.01.17 0 .36.15.32.5-.3.02-.01.05-.02.07-.02l-.18.6h-3.8zm11.5-30.37c-1.1 4.8-2.73 8.55-2.66 10.4-.58 2.16-.85 2.52-1.2 3.62l.12-.52-2.33 8.2c-.1.4-.17.74-.22 1.05l-1.3-.03-1.68-.02a26.07 26.07 0 0 0-2.98.18c-.3-.3-2.36-.03-3.03-.12l.06-.02c-1.75.22-3.6-.18-5.3.01.07-.02.1-.1.5-.1-1.23.04-2.9.1-3-.07-2.94.04-7.03-.03-8.9.23l.13-.05c-1.07.18-1.4.03-2.6.12-.07-.02-.15-.03-.14-.04-1.17.18-3.4.03-4.35.1l-.06-.1-2.33.03.87.02c-.3.3-1.76-.2-3.44.01-1.58-.04-3.2.64-4.84.5-.78.14.7-.23-.48-.12-.04-.16.55-.1.24-.23-1.15.08-1.88-.16-3.3-.06l-.06-.12c-1.85.23-3.48-.16-4.7.05-1.9.1-1.28-.37-3.26-.13l-.77-.17c-.85-.03-.6.2-1.55.12.06-.1-1.2-.08-.64-.2-2.13-.17-4.32.24-7.12-.04-.6.2-2.02.08-2.47.24-.08-.1-2.83-.01-1.24-.2.14-.02.38-.01.36.02l.2-.12c-1.6-.23-2.9.13-4.5.1.47.04 1.1.03.68.1l-1.47-.02.3-.1-2.2-.06.3.13c-1.07-.07-1.45-.28-2.66-.1-.55.1 1 .17-.12.2l-1.2-.07c-.1-.01-.23-.01-.35-.02l2-4.05-.06.25c2.35-5.07 3.84-8.25 5.22-11.86.5-.44 1.94-4.16 2.57-5.3l-.03.12c1.23-3.2 3.1-6.3 4.33-9.36-.03.13.01.22-.3.9.98-2.2 2.32-5.18 2.54-5.27l7.27-15.77-.07.25c.74-1.96 1.16-2.44 2.1-4.58.08-.1.16-.25.16-.22.84-2.12 2.92-5.96 3.7-7.63l.15-.06c.66-1.36 1.38-2.68 2.08-4l-.82 1.48c0-.33.45-1.06 1.06-2.08.6-1.03 1.4-2.33 2.15-3.78 1.54-2.64 2.64-5.67 4.54-8.24.75-1.33-.57 1.23.63-.7.17.03-.52.93-.08.52.6-.93 1.16-1.66 1.75-2.44.6-.77 1.28-1.56 2.07-2.68l.17-.01a16.64 16.64 0 0 1 1.59-2.05l1.6-1.8c1.1-1.07 2.07-2.03 2.84-2.94 1.33-1.26 1.85-1.6 2.36-1.96.54-.33 1.1-.67 2.52-1.92l1.32-.65c.25-.16.42-.27.57-.38 3.24-1.68 7.95-3.64 12.4-3.57l1.02-.1c.35-.04.7.04 1.06.06-.13-.15 1.4 0 1.04-.2 1.52.07 2.88.46 3.94.92 1.1.36 1.87.84 2.5.8.66.27 1 .54 1.26.75s.45.38.76.58l-.3-.15c1.16.64 1.82 1.2 2.46 1.65.64.43 1.14.93 1.9 1.57.8.6 1.07.54 2.35 1.8-.5-.32.06.15.53.64-.3-.3-.43-.37.13.32.1.07.26.2.4.3 0 .01.02.04 0 .04.8.78.7.62.34.23.03.01.01-.04-.08-.17.73.92 2.24 2.38 2.2 2.6 2.3 2.5 4.07 4.22 5.9 6.37.13.3-.35-.16-.9-.76l1.28 1.53c-.1.06-.78-.85-1.2-1.3 1.35 1.95 3.18 3.75 4.65 6.15l.42.42.08.15c.04-.04.46.44.7.77.13.4-.24.13.55 1.27.52.97 1.77 2.57 2.6 3.75-.4-.67-.2-.5 0-.23.38.6.5 1 .82 1.42l-.1.14c-.02-.3 1.1 1.45 1.3 1.64.1.4-.65-.87-.82-.96l2.2 3.55c.87 1.22-.01-.3.47.23.7 1.1 1.46 2.16 2.14 3.5l-.12-.48c1.35 2.08 2.07 3.37 2.77 4.9l1.27 1.96c-.76.15-2.47 1-2.47 1-3.54 1.65-5.1 3-9.07 5.37-3.58 1.94-4.65 2.24-8.28 4.4-1.76.97-3.6 2.08-5.3 3.08-.7.64-2.25 1.27-3.12 1.97l-.43.1c-.3.24-.67.5-1.04.63v-.04c-.45.36-1.04.63-1.26.8v-.04l-.6.35.08-.1a21.45 21.45 0 0 1-2.51 1.49l.14.1c-1.76.8-2.22 1.42-3.83 2.1v-.04c-1.73 1.42-3.15 1.48-4.95 2.92.22-.18-.14-.01-.14-.05-.9.55-1.85 1.12-1.72 1.37l-.47.25c-.13.06-.22.1-.28.1-.86-1.33-1.9-2.6-2.52-4.1-.57-.83.6.68-.16-.6.12-.12.4.58.34.18-.72-1.27-.93-2.2-1.83-3.78l.08-.12c-1.25-2-1.8-4.05-2.7-5.36-1.15-2.14-.38-1.62-1.7-3.8l-.27-.96c-.44-.98-.52-.6-.95-1.72.13.02-.57-1.4-.18-.8-1-2.52-2.55-4.87-3.64-8.26-.5-.63-1.03-2.34-1.38-2.82.03-.1-1.07-3-.47-1.8-1.3-3.15-2.65-6.3-2.88-6.32-.46-.08 4 14.06 4 14.06h0l2.06 4.85.03.4c-.12.24 1.3 2.04 1.28 2.43l.53.87c.1.27.3.83.05.4.4.85.44.86.8 1.44l.32.96c1.52 3.38 3.14 6.1 4.84 9.6.93 2.15 2.44 5.17 4.03 8.2l1.33 2.5.5.95c.14.2.23.58.43.56.04.08.07.16.1.25l.27.5 2.5-1.38 1.63-.94 3.26-1.9c2.16-1.27 4.3-2.48 6.4-3.43l.25.03c.17.14.9-.8 1.18-.8-.4 1.56-.8 3.12-1.3 4.8.17-.15-.55 2.26-.2 1.7zm2.1-8.9c0 .01-.01.02-.01.03-.14.08-.3.18-.5.35l-.54.1c-.52.26-.26.38-.87.62-.02-.1-.75.32-.47.05-1.35.55-2.47 1.63-4.3 2.3-.27.38-1.17.74-1.37 1.02-.1-.05-1.7.92-.85.23.07-.06.22-.14.23-.1l.05-.17c-1.07.32-1.68 1.07-2.64 1.56.3-.12.67-.33.46-.12l-.9.47.13-.2-1.34.67.24.01c-.67.3-1 .23-1.64.8-.28.27.7-.18.03.22-.12.05-.24.1-.37.16-.12.05-.1.03-.17.05-.08.02-.16.03-.2.03l-.06-.24c-.02-.05.01-.02-.04-.13l-.2-.4c-.07.17-.23-.12-.42-.4l.1-.1c-.8-1.07 0-.56-.76-1.64l.13.06-.4-.18c-.2-.26-.18-.18-.22-.24-.02-.03 0-.05.01-.07.03-.04.1-.04-.04-.13-.01-.02-.02-.04-.03-.08-.1.08-.43-.07-.1-.2.01.04.03.07.05.1.08-.07.1-.14.2-.16-.02.05 0 .1.04.1 0 .04.16-.02.38-.16l-.23.3.75-.68c.73-.26 1.7-1 2.05-1 0 0 1.47-.73 1.7-1.08-.23.26.58-.14.42.1.3-.32 1.34-1.03 1.85-1.16l-.08.06c1.7-.8 2.67-1.73 4.2-2.4-.14-.1.67-.45.4-.5 1.4-1 2.92-1.22 3.18-2.02.67-.4.88-.34 1.24-.52l-.15.12c1.26-.76 1.63-.98 2.58-1.5.45-.32.4-.6 1.27-1-.22.25.1.03.43-.15-.2.13-.24.2.2.02a.92.92 0 0 1 .2-.19c.01.01.03 0 .02.02.5-.33.4-.3.15-.18 0-.02-.03-.03-.12-.01.62-.2 1.53-.88 1.7-.76 1.58-.94 2.62-1.75 3.92-2.56.2 0-.07.24-.44.5l.93-.56c.06.12-.5.37-.78.56 1.23-.45 2.2-1.5 3.62-2.07l.22-.25.1-.03c-.03-.05.23-.28.4-.4.24 0 .12.24.77-.13.57-.2 1.44-.88 2.08-1.3-.37.2-.3.07-.15-.06.32-.2.57-.2.8-.38l.1.12c-.2-.06.77-.62.86-.74.24 0-.46.37-.5.5l1.95-1.13c.64-.5-.2-.06.07-.37.6-.37 1.15-.8 1.9-1.13h-.3c1.1-.75 1.8-1.12 2.65-1.44 2.32-1.7 3.4-2.6 3.73-3.04l.5.78c.12.66.58 2 1.5 4.34l-.08-.05.23.47c.02.06.05.12.07.17a7.85 7.85 0 0 0 .12.28c-.16.08-.28.15-.4.25-.35.22-.7.47-1.04.74-.33-.15-1.43.75-1.87.9l.03-.04c-.94.77-2.25 1.02-3.16 1.75.03-.04.01-.12.24-.25-.72.44-1.7 1.05-1.83.93-1.74 1-4.23 2.28-5.22 3.14l.05-.08c-.55.5-.82.48-1.5.95-.05 0-.1.02-.1.01-.6.54-2.03 1.15-2.55 1.52l-.1-.08-1.38.8.53-.26c-.03.37-1.15.4-2.06 1.14-.96.5-1.6 1.6-2.66 2.02-.4.38.3-.43-.35.05-.1-.13.28-.27.04-.28-.65.44-1.2.48-2 1.04l-.1-.1c-.6.48-1.24.74-1.8 1 .02-.1.04-.17.07-.25l-2.5 1.4zm4.52.68l-.53-.7c.02-.01.03-.02.05-.03.48.65.93 1.26.48.73zm78.6 39.9c-.02 0-.04 0-.06-.01l.06.01zm7.63 1.6c-.07.12-.16.26-.25.4l.04-.1c-.1.01-.05.03-.12-.06.06.13.05.13.02.17l-.03-.12c-.1.2-.1-.26-.14-.12l.02-.1c-.01.1-.04.17-.07.25-.4.14-.13-.3-.66-.1.18.03.01.3-.2.17l.1-.1c-.13-.01-.18.03-.26-.02.1-.04.1-.16-.1-.2l.16-.1-.4.1c-.22-.2-.68-.16-.74-.36 0 0-.54-.24-.72-.1.14-.08-.15-.2-.03-.3-.18.08-.64.06-.77-.12l.04-.01c-.45-.24-.87-.2-1.28-.3v-.02c-.01.01-.01.01-.01.02-.05-.01-.1-.02-.14-.04l.13.05c-.04.05-.04.03-.15.14-.1.02-.07-.12-.02-.22.04-.12.03-.1-.22-.24.04-.23.22-.26.3-.38l.01.07c.1-.5.15-.66.28-1.03 0-.2-.24-.3-.08-.62.07.14.1 0 .13-.13-.01.08.02.12.14-.02-.02-.03-.03-.07-.04-.1h.03c.03-.22-.01-.2-.06-.1-.01-.01-.04-.01-.07.01.2-.17.18-.6.36-.57.15-.63.1-1.14.2-1.67.1-.03.15.12.14.28l.08-.38c.13.04.01.23 0 .36.34-.37.07-.97.42-1.42l-.07-.14.03-.03c-.05-.02-.1-.15-.08-.23.13-.04.26.1.33-.17.17-.17.12-.6.15-.87-.06.14-.1.07-.13 0 .04-.13.17-.17.15-.28l.15.03c-.16.01-.05-.38-.1-.45.13-.04.03.23.1.28.14-.5.07-.26.22-.77-.03-.3-.16.01-.25-.17.05-.25.01-.52.2-.76l-.16.05c.04-.48.14-.75.37-1-.01-.48-.03-.85-.07-1.14l.12.06.02-.06c-.04-.02-.1-.04-.15-.07 0-.02-.01-.03-.01-.05.06.03.13.06.17.08l.16-.52c.03-.07.1-.12.14-.2.08-.02.15-.05.25-.07.28-.05.7.01.95.27l-.02.04a2.72 2.72 0 0 0 .64.31 1.84 1.84 0 0 0 .74.09c-.03.3.53.23.65.37l-.02.02c.48-.06.76.48 1.2.44-.02.02-.06.1-.15.06.3.07.7.15.66.32.38.12.83.3 1.24.42l-.07-.03c.1.02.12-.02.27.01l-.05.01c.2.03.07.13.16.27-.02.01-.03.02-.04.01.2.07-.16.62-.15.85l-.1-.02-.15.54.1-.2c.27.16-.3.35-.25.8-.16.35.36.94.1 1.27.08.22-.17-.23-.15.07-.15-.04-.05-.16-.2-.13-.01.3-.3.38-.3.74l-.12-.03c.08.5-.42.75-.3 1.1-.05.47-.45.18-.36.7l-.22.13c-.1.2.15.2 0 .4-.1-.05-.17.25-.22.1-.32.44-.1 1.07-.58 1.63.15.2-.07.5.04.65-.1-.01-.23.65-.3.22 0-.04.02-.1.05-.08l-.1-.08c-.34.3-.1.7-.25 1.06.07-.1.1-.24.16-.12l-.13.33-.07-.1-.22.5.14-.03c-.14.23-.38.25-.3.58.01.2.2-.14.15.13z"/></svg>