<svg xmlns="http://www.w3.org/2000/svg" viewBox="0 0 480 480" xmlns:v="https://vecta.io/nano"><path d="M361 207.84c-.66-.38-1.36-.98-2.12-1.6 1.8-.76 2.4-1.9 2.16-2.6-.32-.85-1.37-1.16-2.85-1.27l-.8-.06-8.86-.47c-1.24-.2-2.5-.07-4.13.16a36.91 36.91 0 0 1-4.34-.26v.14c-3.14-.6-5.9-1.35-8.26-2.46-1.65-.83-15.74-8.2-28.78-15.27l1.42-3.34c-13.8-9.96-34.13-25.8-39-34.12-5.45-9.35-10.6-20.56-16-29.26-.8-1.28-1.65-2.56-2.55-3.8l-.12.53-1.97-3.45 4.2 3.6.4-7.4-8.3-4.7-.38 1.34-.02-.04-20.5-7c-.5-.2-1.1.1-1.3.6l-1.13 2.68c-11.1-1.13-20.96 8.47-31.48 21.02-8.74 10.34-20.72 26.66-23.54 34.2-1 2.7-1.85 5.55-2.1 8.4-.95 4.36.38 8.63 2.2 12.63.3.66.73 1.3 1.23 1.96l-15.68 35.44c-.56 1.28.6 2.92 1.8 2.92l24.06-.12c-.78.66-1.38 1.56-1.67 2.66l-4.22 18.96c-.68 2.64.96 5.13 3.6 5.8l35.66 8c2.95.6 5.76-1.2 6.47-4.14l4-17.88c.6-2.85-1.1-5.75-4.05-6.36l-31.6-7.1 11.14-.06c6.4-.03 12.26-3.1 15.96-8.02l23.06-.1s1.4-4.52 3.35-11.47c-1 4.33-1.93 8.52-2.66 12.48-.76 3-.44 5.53 2.75 5.84 3.33.33 3.77-2.2 3.77-2.2s1.85-9.86 3.98-23.4c16.58 8.66 32.43 14.93 48.86 19.36l2.56-6.03c14.1 4.06 26.3 6.65 37.24 9.43 1.64.4 3.3 1.23 5.56 1.56 1.02-2 2.6-3.66 4.53-4.8 1.05-.5 2.3-1 3.52-1.3.27-.07.52-.1.78-.16.5-.06 1-.1 1.5-.1a11.6 11.6 0 0 1 11.6 11.6c0 .08-.01.17-.01.25s.01.17.01.25c0 1.1-.2 2.2-.5 3.3.1.2.2.4.4.5 1.8.85 2.5-2.54 2.97-6.13s.7-7.37-1.8-9.12z" fill="#fff"/><path d="M363.4 211.15c-.14-.68-.35-1.3-.62-1.8-.3-.5-.6-.9-.9-1.17-.6-.53-.95-.64-.8-.46.1.2.86.7 1.36 2.15.52 1.44.5 3.73-.07 6.88l-.01-.17c-.28 1.88-.54 3.4-.96 4.68-.2.6-.5 1.22-.82 1.4-.27.17-.7.05-.66-.3.05 0 .14-.27.22-.6a9.97 9.97 0 0 0 .21-1.19c.05-.44.07-.9.06-1.3v-.97l.02.1c-.2-2.4-.86-5.03-2.42-6.85.06.07.14.07.46.52-.93-1.47-2.8-2.94-2.86-3.06-1.04-.8-2.37-1.46-3.8-1.88 2.1.1 4 .1 5.72-.12.65-.08 1.26-.3 1.8-.6.75.6 1.5 1.05 1.86 1.2.44.18.53.17.4.03-.15-.15-.5-.37-.9-.72l-.5-.44c-.03-.04-.07-.08-.06-.1.05-.01.1-.03.13-.04a2.08 2.08 0 0 0 .28-.19l.35-.28c.42-.38.62-.75.62-.75a2.2 2.2 0 0 0 .34-.99 1.77 1.77 0 0 0-.27-1.12c-.37-.63-.97-.95-1.45-1.1-1-.33-1.84-.36-2.66-.4-1.63-.06-3.1 0-4.6-.03l-2.3-.1c-.8-.04-1.5-.2-2.5-.3-.96-.07-1.94.02-2.94.16l-1.53.24-.22.04-2.94-.22c-2.9-.56-4.93-1.15-6.87-1.92-1.16-.44-2.22-1.05-3.56-1.75l-4.64-2.4-10.62-5.57c-1.67-.75-4.46-2.38-6.4-3.3l-.7-.46c-.67-.32-5.3-1.95 3.58 3.3.92.54 1.18.4 2.85 1.35-.57-.24.12.12.75.46-.4-.2-.54-.25.26.23.13.04.3.13.5.2 0 .01.04.03.02.03 1.06.54.9.43.4.16.03 0-.01-.03-.15-.12l3.13 1.78 8.17 4.1c.27.2-.37-.07-1.15-.46l1.9.96c-.05.06-1.1-.52-1.68-.8l3.47 1.8 1.87.92 2.03.88.6.15.17.07c0-.03.65.13 1.08.25.4.18-.08.16 1.36.54 1.12.37 3.25.7 4.76.9-.8-.15-.54-.14-.2-.1l1.15.23.25-.03.4-.07.07.06c.03-.03.23-.07.5-.12 1.36.03 2.38-.04 3.28-.1l.75-.05c1.26-.06 3.5.1 5.64.23l4 .22c2.4.08 2.84.88 2.85.88h0c.05.16.01.48-.25.87-.4.6-1.27 1.3-2.56 1.47-2.26.3-4.88.17-7.82 0-3.54-.2-6.54 1.1-7.7 2.03a30.5 30.5 0 0 1-2.17 1.6.5.5 0 0 0-.14.69.5.5 0 0 0 .15.14 12.94 12.94 0 0 0-1.13 1.36l-.47.7-.2.35-.1.16-.04.08c-.02.01-.06 0-.08-.01-.06-.01-.1-.02-.16-.02l-.47-.08-.06-.08c-.98-.22-1.94-.55-2.93-.88l1.1.4c-.22.03-.76-.2-1.53-.5-.8-.3-1.82-.57-2.92-.8-2.04-.53-4.24-.65-6.35-1.25-1.04-.16.93.08-.6-.22-.03-.1.72.1.35-.06l-4.28-1.06-.06-.1c-2.43-.44-4.5-1.18-6.12-1.45-2.48-.55-1.6-.62-4.2-1.12l-.97-.35c-1.1-.3-.82-.08-2.02-.44.1-.04-1.52-.44-.8-.32l-9.16-2.52-.15-.03.17-.4 2.52-6.27 2.95-7.1 3.54-7.98-2.28-1.72-1.7-1.3-3.38-2.6-6.65-4.98a4.1 4.1 0 0 0-.59-.44l-.4-.25-7.4-6.03s-8.96-7.38-13.78-12.62c-2.45-2.58-3.74-4.63-3.66-4 .03.16.16.48.42 1l.48.92.77 1.17c1.2 1.75 3.18 4.24 6.27 7.44l-.2-.13c3.78 3.7 6.3 5.84 9.25 7.98.25.6 3.32 2.76 4.23 3.6l-.1-.05c2.65 1.82 5.07 4.24 7.66 5.95-.1-.05-.2-.03-.78-.46 1.8 1.34 4.32 3.13 4.35 3.37l5.22 3.8-1.65 4c-.58 1.45-1.07 2.73-1.4 3.7l.05-.24c-.6 1.88-.97 2.35-1.74 4.4-.07.1-.14.24-.14.2-.67 2.04-2.4 5.75-3 7.37l-.15.06-1.64 3.93.64-1.45c.03.3-.28.94-.72 1.84l-.74 1.53-.36.8c-.06.14-.12.28-.17.45-.1-.01-.18-.03-.28-.04l-.26-.07-.5-.13-1.07-.23-2.17-.42c-1.46-.27-2.92-.6-4.33-1.1-1.4-.3 1.27.16-.8-.38-.02-.17.98.2.5-.08-2-.57-3.2-1.2-5.7-1.95l-.06-.15c-3.25-.9-5.92-2.3-8.07-2.93-3.27-1.17-2.03-1.2-5.46-2.35l-1.23-.7c-1.4-.63-1.1-.24-2.64-1 .14-.06-1.95-.95-1-.64-3.47-1.73-7.26-3.07-11.7-5.62-.7-.2-1.84-.8-2.8-1.26.17-.67.35-1.36.52-2.17 1.6-9.85 2.56-20.53 3.9-29.72l.2-.4c.23-.16-.04-2.58.2-2.9l.02-1.08c.07-.3.17-.93.17-.4.1-1 .07-1.02.07-1.75l.23-1.06c.23-1.96.36-3.78.44-5.63l.3-5.8c.1-1.25.26-2.75.3-4.44v-2.65c-.03-.9-.17-1.83-.26-2.76a35.7 35.7 0 0 0-2.78-9.86 52.21 52.21 0 0 0-1.3-2.59l.26.1c.1.04.2.06.3.06.12 0 .24-.04.35-.1.4.7.84 1.4 1.07 1.7l-.06.12c.17.04 1.5 2.18 1.72 2.45.2.54-.88-1.28-1.1-1.44 2.06 3.42 1.05 1.7 3.03 5.17 1.14 1.8-.06-.4.56.42.94 1.64 1.9 3.2 2.84 5.17l-.2-.67c1.76 3.1 2.72 5 3.7 7.18 3.3 5.74 5.32 8.8 6.38 10.23 1.05 1.42 1.13 1.23.75.34-.37-.9-1.17-2.47-1.87-3.84l-1.28-2.53c-2.32-4.65-4.13-8.16-6.17-11.85a255.63 255.63 0 0 0-7.87-12.97c.08-.01.15-.02.22-.05.26-.1.44-.36.45-.65l.4-7.4c.02-.28-.13-.55-.38-.7l-8.3-4.7a.8.8 0 0 0-.66-.04.84.84 0 0 0-.44.5l-.15.55-19.75-6.74a1.7 1.7 0 0 0-1.36.06c-.4.2-.75.55-.9.95l-.7 1.64a28.73 28.73 0 0 0-1.53-.13c-.9.04-1.77.05-2.6.15l-2.4.5-2.26.78c-2.95 1.23-5.8 3.03-9.3 5.92-3.1 2.53-4.9 4.27-6.74 6.05-1.8 1.8-3.58 3.67-6.18 6.82-2.55 2.95-5.13 6.2-7.44 9.24-.95 1.55-3.04 3.97-4.17 5.8l-.6.6c-.4.63-.86 1.35-1.35 1.9V136c-.56.95-1.33 1.93-1.6 2.4v-.06l-.75 1.1.1-.22c-1.02 1.63-2.12 3.28-3.1 4.72l.2-.04c-2.15 3.07-2.62 4.37-4.4 7.28l-.01-.06-2.14 5.2c-.6 1.6-1.18 3.3-1.35 5.57.04-.57-.1.23-.14.18-.1.62-.13 1.25-.15 1.84-.25 1.58-.25 3.2.05 4.72.23 1.67.74 3.24 1.26 4.74.28.75.54 1.48.84 2.2.25.7.64 1.45 1 2.15l.04.3c-.01.02 0 .06.02.1l-2.5 5.64c-.17.3-.48 1.15-.46 1.16l-4.06 8.9-2.78 6.27c-1.55 3.56-3.44 8-4.74 11.45l-.46 1.24-.1.3c-.04.12-.1.26-.12.4-.05.27-.07.54-.04.8.12 1 .66 1.65 1.16 2.03.52.38 1.05.46 1.32.42.27-.03.27-.1.13-.16-.18-.07-.6-.15-1.04-.6-.4-.4-.93-1.2-.7-2.2.86-1.9 2.3-4.8 4.3-8.84l-.05.24c2.24-4.86 3.65-7.93 4.94-11.4.5-.4 1.83-4 2.44-5.1l-.03.12c1.15-3.07 2.95-6.05 4.1-9-.03.12.01.22-.28.88l.46-1.06.38.32c.12.16.4.48.1.27.5.45.53.44.92.7.14.2.3.36.48.54 2.05 1.67 4.18 2.45 6.75 3.3 1.5.66 3.9 1.03 6.28 1.02.9.02 1.82-.06 2.68-.18l-6.8 28.9a.61.61 0 0 0-.14.07l-.1-.1c-.85.5-1 .6-1.2.64-.16.06-.4.1-.92.75h-.07c0-.02.01-.04.01-.07-.01.02-.01.04-.02.07-.64.01-1.3 0-1.98-.03l.7.14c-3.63.13-5.8.12-8.25-.01-27.04 1.28-5.7 1.6-5.7 1.6 5.65.14 9.85.08 14.44-.04 0 .01-.01.01-.01.02-.07.1-.15.22-.23.43-.06.2-.16.58-.14.96.12-.62.33-.23.1.52l-.07-.22c-.07.42-.05.58-.14.85-.01-.26-.14-.17-.26.45l-.05-.45-.04 1.2c-.33.87-.48 2.33-.73 2.66 0 0-.5 1.9-.43 2.4-.03-.4-.3.64-.37.3.02.53-.2 2.03-.48 2.6l.01-.12c-.63 2.15-.64 3.8-1.25 5.7.16-.06-.15.96.1.75-.07.52-.18 1-.3 1.45-.1.43-.27.9-.34 1.36-.15.93.02 1.72.4 2.05.38 1.02.38 1.26.68 1.75l-.18-.2a5.74 5.74 0 0 0 1.66 1.6c.5.33.98.57 1.72.8.7.13.83-.13 1.98.2-.4.02.08.1.5.2-.28-.05-.37-.03.18.17a1.81 1.81 0 0 1 .33 0c0 .01.02.02.01.03.73.12.6.06.28-.02.02-.01 0-.04-.1-.1.7.3 2.08.46 2.13.65 2.17.44 3.76.6 5.57.94.18.14-.26.12-.8.04l1.28.25c-.04.13-.75-.1-1.15-.15 1.47.55 3.18.5 4.9 1.08h.4l.1.04c.01-.06.42-.04.7 0 .23.17-.08.26.8.45.67.27 2 .4 2.92.53-.5-.13-.3-.16-.1-.15.44.1.67.27 1.02.3l.01.16c-.14-.18 1.2.1 1.36.08.22.17-.7-.06-.84.01l2.65.57c.97.1-.14-.18.34-.22.84.16 1.67.23 2.6.54l-.27-.2c1.6.24 2.52.47 3.54.84 2.44.3 4 .45 4.92.48.9.57 1.6.48 1.83.38.35-.16.37-.32.17-.47-.15-.08-.06-.12-.17-.2-.1-.07-.18-.15-.27-.22l-.3-.26a6.61 6.61 0 0 1-1.03-1.65c-.27-.6-.5-1.4-.4-2.52.52-2.14.96-2.74 1.36-5.07.27-1.1.47-2.3.68-3.4-.1-.56.32-1.42.28-2.07l.17-.2c-.01-.22 0-.48.1-.67l.03.02c-.02-.33.1-.67.1-.84l.03.02.07-.38.03.08c.03-.57.15-1.13.3-1.62l-.15.01c.4-1.03.2-1.48.6-2.4l.03.02c-.05-.65.12-1.1.3-1.58.18-.43.33-.8.4-1.36-.01.14.1-.02.12 0 .17-.47.46-.9.25-1.07.23-.3.26-.18.37-.14-.1-.08.08-.36.3-.55l-.06.12c.2-.2.4-.37.62-.5l-.26-.12c.42-.17.24.17.57-.05l-.1-.18c.58-.2 1 .04 1.43.2l.14.03c.06.04.1.08.18.1l.34.1c.12.02.22.1.34.13a2.67 2.67 0 0 1 .63.4c.4.33.73.8.95 1.32a4.48 4.48 0 0 1-.01 3.43l-.17.08c-.22 0 .15.78-.06.83l.03.32c-.06.08-.14.24-.15.1-.07.28-.04.3-.02.5l-.2.27c-.35 1.07-.3 2.05-.6 3.2-.58 1.32-.9 3.98-1.1 5.5-.16 2.17-1.54 4.45-1.67 6.68-.05.06-.01.23.01.24a5.12 5.12 0 0 1-.66 1.57s-.26.45-.72.9c-.46.48-1.14.9-1.72 1.06-.57.18-1.05.2-1 .48.04.1.22.33.7.48.46.14 1.27.26 2.3-.13l-.03.07c1.1-.57 1.65-1.25 1.9-2.04l.1-.14c.13-.04.23-.2.3-.42.48-.74.75-1.5.87-2.15.1-.52.2-1.02.26-1.5.01-.01.02-.02.03-.02.07-.37.16-.78.25-1.2.2-.55.32-1.7.5-2.13l.01.06c.1-1.46.83-2.86.94-4.26.01.06.08.1.02.42.2-1 .43-2.36.6-2.4l.84-3.9c.14-.66.26-1.3.36-1.85.02-.1.03-.2.04-.3.03-.13.05-.28.06-.43 0-.02.01-.04.01-.06 0-.03 0-.06.01-.1l.03-.25a4.35 4.35 0 0 1 .02-.35v.05c0-.04-.01-.08-.01-.1.02-.4.04-.8.1-1.27-.2-.25-.2-.9-.4-1.06.1-.05-.35-1.22.05-.6.03.06.06.16.03.16l.14.05c.01-.8-.58-1.25-1-1.87.1.2.26.45.08.33a4.49 4.49 0 0 0-.4-.57l.17.05c-.2-.3-.44-.56-.72-.8l2.82-14.15 7.3-.04 4.4-.05.66-.01c-.43 1.74-.5 3.3.33 4.7.45.73 1.2 1.28 1.98 1.56.8.28 1.62.4 2.67.37l-.05.04c.85-.13 1.7-.5 2.3-1.05a3.83 3.83 0 0 0 1.22-2.05c.5-2.38 1.08-4.46 1.36-7.5-.05.56.12-.22.14-.17.3-2.05.66-4.24.4-4.32.25-1.5.3-1.2.43-1.37-.12-.01.04-1.3.22-2.48l-.04.54.5-3.34-.34.62c.35-1.76.36-.4.57-2.1l-.2-.01c.15-.86.32-1.58.48-2.26l3.77 1.9 8.73 4.3.44.36c.13.3 3.3 1.1 3.65 1.5l1.38.48c.36.2 1.14.57.46.33 1.24.54 1.28.52 2.2.82l1.3.67c4.9 2.1 9.25 3.43 14.56 5.23 1.47.56 3.27 1.16 5.25 1.78l3.1.92 4.14 1.13 1.84-4.46.85-2.1 1.35.4 6.83 1.93.37.2c.14.17 2.5.45 2.8.65l1.05.2c.28.1.9.27.37.17.95.24.98.23 1.68.36l1 .33c3.75 1 7 1.6 10.96 2.6 2.37.65 5.8 1.47 9.28 2.33.9.2 1.68.42 2.53.7.84.28 1.7.55 2.56.74l.66.13.75.12c.07-.01.2.08.2-.04l.44-.83c.1-.17.2-.32.28-.48.4-.62.82-1.17 1.25-1.64.6-.66 1.3-1.26 2.1-1.77.73-.45 1.7-.82 2.6-1.13.92-.3 1.86-.52 2.82-.5.96-.07 1.93.08 2.88.27 3.8.88 6.88 3.88 8.1 7.3.1.22.25.8.27.8.16.53.2 1.1.3 1.64.04.55.04 1.1.05 1.7a10.26 10.26 0 0 1-.17 1.65 10.82 10.82 0 0 1-.17.82c-.02.1-.1.35-.14.58-.1.24.07.45.18.65.01-.01.1.22.43.43.37.16.96.4 1.6.04.6-.34.9-.9 1.16-1.5.25-.6.43-1.26.58-1.95.3-1.4.5-2.95.65-4.5.25-1.48.3-3.06.01-4.42zM241.56 103.3l7.06 4-.3 5.42-2.94-2.52-3.87-6.78.04-.12zm-21.97-5.95c.03-.07.1-.13.16-.16a.23.23 0 0 1 .2-.01l20.23 6.9 5.25 9.2-11.93-5c-.06-.2-.1-.38-.17-.57-.62-1.76-1.6-3.45-2.97-4.8-.36-.32-.7-.67-1.08-.95l-1.2-.8c-.85-.43-1.7-.87-2.6-1.12-.88-.34-1.8-.46-2.7-.65l-1.6-.16-.25-.1-1.9-.5.53-1.3zm13.4 26.47c-.07.02-.2.07-.4.15-.06-.01-.1-.01-.14-.01l.38-.24c.08-.24.14-.32.18-.4-.01.16-.01.32-.02.48zm.01.1c0 .05-.01.1-.01.14-.03-.01-.06-.03-.1-.04l.1-.1zm-.58.14c-.13.06-.28.14-.45.22.15-.1.3-.18.4-.26l.04.04zm-48.4 61.17c.6-.13 1.16-.27 1.66-.4 4.7-1.47 9.97-3.68 13.96-6.6.15-.06.47-.34.45-.36a135.71 135.71 0 0 0 3.77-2.47s1.13-.77 2.57-1.83 3.18-2.42 4.46-3.54c.15-.14.3-.26.5-.48a2.72 2.72 0 0 0 .41-.63 1.94 1.94 0 0 0 .13-1.2c-.08-.32-.2-.52-.3-.6s-.15-.06-.17.03c-.05.17.16.9-.5 1.57-.3.3-.9.55-1.53.94l-2.3 1.35.06-.1c-2.03 1.36-3.3 2.22-4.54 3.37-.38-.1-1.67 1.1-2.2 1.33l.03-.05c-1.12 1-2.67 1.5-3.78 2.4.04-.05.02-.13.3-.3-.86.58-2.07 1.34-2.22 1.24-1.06.63-2.37 1.35-3.58 1.98-1.2.67-2.33 1.1-3 1.53l.08-.08c-.76.52-1.08.4-2 .78-.06-.01-.13 0-.12-.01a8.3 8.3 0 0 1-.8.32c-.3.08-.66.14-1 .2-.68.1-1.32.27-1.7.32l-.07-.1-1.9.2c.24 0 .48-.03.72-.04-.23.37-1.46-.1-2.85.08-.65-.08-1.32.03-2 .1-.68.02-1.4.03-2.06-.18-.67-.04.6-.07-.36-.23.01-.16.46.03.25-.17-.94-.2-1.47-.54-2.6-.88v-.13c-.77-.14-1.38-.54-1.95-.85-.56-.34-1.02-.7-1.52-.87-.67-.4-.82-.65-1-.86-.18-.2-.35-.42-1.02-.88-.1-.18-.24-.35-.34-.54-.43-.52-.48-.22-.92-.83.1-.02-.5-.8-.16-.52-.2-.36-.48-.7-.67-1.06-.2-.35-.45-.7-.65-1.16-.43-.86-.85-1.83-1.08-2.96-.35-.4-.57-1.56-.78-1.9.04-.04-.1-.6-.16-1-.01-.1-.02-.2-.02-.28-.3-1.16-.14-3.88.06-5.9.06-.13.1-.26.16-.37.1-.87.25-1.65.4-1.94l.4-1.56c.23-.82.48-1.73.52-2.1-.1.62.5-.97.47-.47.13-.83.9-3 1.48-3.77l-.06.17c1.68-3.04 2.75-5.35 4.62-7.93-.2.04.78-1.33.4-1.08 1.67-2.86 3.7-4.76 3.94-6.06.85-1.25 1.15-1.37 1.63-1.98l-.2.3c1.62-2.3 2.12-2.96 3.4-4.62.6-.86.47-1.16 1.68-2.6-.3.54.17-.07.6-.63-.26.36-.32.5.3-.2.05-.12.16-.3.26-.45.01 0 .04-.03.04 0 .7-.94.55-.8.2-.38 0-.03-.04-.01-.17.1.86-.87 2.1-2.66 2.34-2.65l5.54-7.06c.3-.18-.1.38-.63 1.05l1.34-1.58c.1.1-.73.94-1.13 1.44 1.8-1.72 3.2-3.98 5.36-5.9l.34-.5.13-.1c-.05-.03.35-.55.64-.87.37-.2.16.2 1.2-.78.45-.34 1-.92 1.6-1.5l1.78-1.7c-.6.5-.46.3-.23.03.53-.48.95-.6 1.35-1l.15.08c-.3.06 1.36-1.28 1.56-1.45.4-.14-.85.7-.92.9 1.12-.88 1.45-1.02 1.73-1.23l.55-.37c.25-.18.62-.42 1.24-.76 1.26-.84-.3.01.25-.47.58-.34 1.13-.72 1.76-1s1.26-.64 2-.82c-.17.01-.34.01-.5.03 2.35-.93 3.88-1.26 5.58-1.22.58-.06 1.14-.16 1.66-.18l1.5.02a9.55 9.55 0 0 1 .54.01l5.37 1.75c.14.02.27.05.4.07.3.1.63.2.95.32-.38-.14-.82-.33-1.1-.4s-.36-.1.01-.07c.42.1.8.27 1.2.4.4.12.8.3 1.16.5l-.5-.14c.54.3 1.13.53 1.6.92.25.18.5.35.74.54l.66.63-.28-.44c.94.96 1.3 1.56 1.82 2.53-.02.07-.03.13-.05.2.6.88 1.12 1.92 1.54 3.17a16.31 16.31 0 0 1 .31 2.31c.1 1.68.05 3.47-.1 5.12.17-.3.1.6.02 1.52l-.13.1c-.14 1.77-.27 2.08-.4 2.4-.14.3-.23.6-.52 2.35l-.02-.32.07.97-.08.52-.06.03c-.6.3-1.35.78-2.27 1.2-.94.44-2.1.85-3.4 1.63l.12-.1c-.38.24-.73.5-1.05.8-.33.32-.55.62-.78.9a21.44 21.44 0 0 0-1.21 1.65c-.7 1.05-1.27 2.04-1.94 2.9-.17.07-.64.5-1.24.95-.6.44-1.25.88-1.6 1.07l.06-.05c-1.7 1.2-3.77 2-5.5 3 .06-.05.08-.1.5-.32-1.3.68-3.08 1.57-3.22 1.53-11.65 5.44-5.47 3.6-3.54 2.85a77.46 77.46 0 0 0 9.7-4.61c.2-.1.7-.4.68-.4a39.6 39.6 0 0 0 2.72-1.61c.88-.6 1.8-1.2 2.52-2.12 0 0 .3-.38.76-1.04s1.02-1.58 1.74-2.56c.36-.47.77-1.06 1.16-1.44.43-.4 1-.77 1.56-1.1 1.13-.66 2.45-1.2 3.4-1.92 1.15-.77 2.08-1.42 2.56-1.8.02.01.04.02.07.03.04.05.07.06.08.12.02.06.04.18.02.34-.03.33-.2.75-.42 1.1a3.17 3.17 0 0 1-.71.8l-.4.35c-.53.44-1.06.84-1.56 1.22l-.76.56-.4.3-.06.05-.05.04-.03.03a.58.58 0 0 0-.1.12l-.02.03c.1-.07-.3.18-.05.84.38.6.8.42.72.46h.08a1.09 1.09 0 0 0 .28-.06l.08-.03.08-.04.22-.12.76-.35.8-.4 1.52-.83c1-.55 1.96-1.14 3-1.58.5-.22 1.06-.4 1.5-.37.43.01.7.2.94.74l.03.06a.53.53 0 0 1 .07.2c.01.03.01.05.01.08s-.02.15-.14.28c-.34.3-.56.66-.77.95-.2.3-.1.38.04.37.1 0 .38-.16.18.02-.07.1-.18.25.06.27.43.04 2.04-.5 1.7-.28.1.07.2.27.28.5l.05.18c.01.02.01.06.02.14.02.13.02.25.02.37a2.57 2.57 0 0 1-.08.65c-.03.1-.06.18-.1.26l-.06.1-.18.23c0 .37-.02.57-.04.67.03.12.06.33.1.67.25.22.2.23.24.3.02.07.04.14.03.22 0 .15-.07.4-.14.55l-.86 1.45.24.94c-.01.01-.02.02-.03.02-.05.03-.02.01-.03.03.01.01.01.06.01.12-.01.13-.07.32-.18.53a4.88 4.88 0 0 1-.94 1.28c-.83.83-2 1.6-3.57 2.3-.77.34-1.6.63-2.43.9-.86.28-1.74.58-2.6.95l-.35.16a.83.83 0 0 0-.25.16l-.14.1-1.62 1.2-2.12 1.56c-1.25 1.06-3.65 2.65-5.15 3.87l-.65.38c-.52.42-1.13.9-1.7 1.26l.02-.04c-.77.63-1.7 1.26-2.08 1.57l.02-.04-.97.72.15-.15a106.17 106.17 0 0 1-4.1 3.02l.16-.01c-.9.6-1.6 1.1-2.2 1.57l-3.35-6.14c-2.2-4.6-2.56-5.9-5-10.6l-.85-1.7-.44-.86c-.08-.15-.12-.25-.3-.55-.16-.27-.38-.5-.62-.7-.5-.4-1.1-.6-1.7-.6a2.82 2.82 0 0 0-.87.13c-.3.1-.4.16-.55.22l-1.74.74c-1 .65-3 1.3-4.18 2.05l-.54.12c-.4.26-.9.54-1.36.7l.01-.04c-.6.4-1.36.7-1.66.9l.01-.04-.77.4.1-.1c-1 .6-2.08 1.17-3.05 1.64l-.04.18s-6.8 3.84-6.53 4.82c.27 1 8.04-3.52 8.04-3.52 1.82-1.16 3.65-1.44 4.1-2.3.86-.46 1.1-.38 1.57-.57l-.2.13a52.1 52.1 0 0 1 3.36-1.58c.6-.32.6-.6 1.73-1.03-.32.25.13.04.55-.14-.26.13-.33.2.25.03.06-.06.18-.13.28-.2.01.01.03 0 .03.02.7-.32.55-.3.22-.18.01-.02-.02-.03-.14-.02.2-.04.42-.12.65-.2l.34-.13c.08-.03.14-.05.2-.06.26-.04.45.07.43.15.12.05.2.12.28.22.03.04.1.15.16.27l.2.34.72 1.27 1.38 2.42c.01.23-.26-.13-.54-.6l.63 1.2c-.13.05-.42-.66-.63-1.03.52 1.54 1.68 2.88 2.34 4.66l.27.3.03.1c.05-.03.3.32.45.56.01.3-.25.1.17.93.23.7 1 1.86 1.48 2.7-.22-.48-.08-.35.06-.17.2.42.23.7.43 1l-.12.1c.05-.23.7 1.02.82 1.15.01.3-.4-.6-.55-.67l1.27 2.5c.55.84.05-.23.4.14.42.78.9 1.5 1.27 2.45l-.02-.35c.84 1.44 1.27 2.33 1.64 3.4 6.53 10.56 2.56 1.64 2.56 1.64a55.39 55.39 0 0 0-2.1-4.43c.74-.55 1.5-1.1 2.34-1.67-.16.01 1.1-.86.74-.72 2.37-1.86 4.57-3.04 5.25-3.95 1.1-.82 1.36-.9 1.94-1.3l-.25.2 4.2-3.08c.75-.6.78-.8 2.18-1.77-.35.32.01.06.45-.27 0 .01 0 .01-.01.02-.03.03-.03.03-.01.02-.08.33-.16.58-.18.28-.01 1.16-.5 4.54-.9 5.85l.03-.26c-1.08 4.93-1.56 8.5-2.8 12.9.2-.17-.45 2.15-.13 1.6-.96 4.6-2.5 8.2-2.4 10-.54 2.07-.8 2.4-1.13 3.47l.1-.5-2.2 7.86c-.37 1.44-.18 1.74-1 4.28.15-.86-.15.2-.44 1.15.17-.62.2-.82-.26.42-.02.2-.1.46-.15.73-.01.01-.03.06-.04.03-.45 1.6-.34 1.34-.1.6 0 .04.04-.01.14-.23-.64 1.6-1.4 4.6-1.65 4.75-.36 1.2-.68 2.33-1.04 3.32a20.45 20.45 0 0 1-1.25 2.8c-.95 1.73-2.1 3.26-3.57 4.66-.4.22.28-.43 1.03-1.33a11.92 11.92 0 0 1-.99 1.02 11.92 11.92 0 0 1-1.07.95c-.05-.1 1.2-1.1 1.78-1.78-1.25 1.14-2.57 2.28-4.1 3.27-1.53.98-3.3 1.8-5.25 2.18l-.8.27-.24.03c.03.07-.85.3-1.44.37-.58-.05.01-.23-1.95-.13-1.6-.1-4.6.08-6.7.16 1.14.01.77.08.28.12-1.02.01-1.6-.1-2.4-.05l-.08-.12c-.03.03-.2.05-.4.07l-1.72-.45.2.18c-.85-.26-1.1-.54-2.1-.58-.46 0 .78.35-.14.18l-2.03-.6a5.53 5.53 0 0 0-1.38-.23l6.84-28.85zM230.18 129c0 .02-.01.04-.01.06-.05.02-.1.05-.16.08.06-.05.1-.1.17-.14zm1.85-.9c.03-.1.05-.2.08-.3l-.06.3c-.01 0-.02 0-.02.01zm.3-1.04c-.06.05-.1.1-.16.16l-.17.14c.33-.32.63-.63.83-.95 0-.01.01-.01.01-.02l-.13 1.33-.63.35c.1-.34.17-.67.25-1zm6.86 9.34h0l-.01.02-.02.03-.01.01c.16-.23-.05.07.04-.06zm-.2.38l-.04-.02c.01-.01.01-.02.02-.03l.02.05zm-32.52 102.04c-.2 1.02-.16 1.78-.28 2.63-.1.07-.15-.14-.13-.4l-.1.6c-.13-.03 0-.36.02-.55-.37.66-.12 1.5-.5 2.3l.06.2-.03.05c.06.01.1.2.08.34-.14.1-.26-.07-.35.35-.18.3-.16.92-.18 1.4.06-.25.1-.15.13-.04-.03.22-.18.34-.15.52h-.16c.16-.07.1.6.17.7-.12.13-.1-.36-.16-.42-.03.93-.04.46.02 1.4.18.48.14-.1.3.12.08.42.26.8.32 1.28l.1-.2.46.95-1.32-.4c-4.5-1.33-6.97-1.46-12.44-2.58-4.78-1.14-6-1.7-10.98-2.7-2.36-.55-4.9-1.06-7.23-1.55-.3-.01-.62-.06-.98-.13a9.3 9.3 0 0 0-.56-.1 6.54 6.54 0 0 1-.52-.13c-.6-.18-1.17-.52-1.6-.82-.07-.13-.15-.24-.2-.37-.28-.2-.55-.56-.62-.9h.04c-.3-.43-.33-1.04-.38-1.3l.04.02c-.02-.2 0-.42.02-.63l.04.12c.01-.42.15-1.07.26-1.65.12-.58.26-1.15.4-1.67l-.16.05c.5-1.7.57-2.65.86-3.9a3.97 3.97 0 0 0 1 1.1c2.04 1.62 12.94 4.1 24.26 6.4 1.88.3 3.25.65 3.74.8.6.16 1.18.23 1.9.2a9.27 9.27 0 0 0 5.14-2.41c-.01.02-.02.03-.04.06a.38.38 0 0 1 .03.16c-.01 0-.02.01-.03 0-.04.34.01.3.06.14.01.01.04 0 .08-.04-.22.3-.22.96-.4.97zm.4-1.32c0-.05 0-.08-.01-.1l.03-.03a.5.5 0 0 1-.02.12zm.14-.22zm3.58-12.9l-.02-.16c-.14.2-.15.28-.26.4.03-.15-.1-.17-.3.12l.02-.28c-.08.22-.15.44-.2.66-.4.35-.56 1.14-.8 1.27 0 0-.1.25-.2.53-.08.28-.13.6-.06.74-.07-.2-.23.28-.33.1.08.26.02.97-.17 1.22v-.06c-.37 1-.2 1.8-.58 2.67.15-.01-.03.46.17.38-.03 1-.75 1.65-.27 2.12-.07.44-.25.48-.32.7l-.01-.1-.2 1.1c-2.1 2.85-4.94 3.47-7.13 2.86-.5-.05-1.87-.4-3.84-.8-6.5-1.3-21.76-4.42-23.88-6.15-.53-.43-.86-1.05-1.08-1.74.25-2.48 1.14-3.85 1.37-6.5-.03.34.1-.13.13-.1.23-1.24.5-2.56.23-2.64.2-.9.25-.7.38-.8-.1 0-.02-.9.18-1.4-.03.1-.03.2-.05.28.16-.56.43-1.1.8-1.55l-.4.13c.33-.37.43-.36.5-.36s.13-.02.45-.33l-.13-.14a2.86 2.86 0 0 1 1.57-.6c.5-.03 1 .03 1.55.18l2.15.48 2.27.48 4.57.9c3.03.6 6 1.24 8.72 2.02l.2.2c.06.23 1.6.03 1.75.27l.66.05c.17.08.54.2.2.18.6.14.6.1 1.05.14l.6.27c2.3.63 4.35.82 6.8 1.42 1.1.35 2.56.7 4.15 1.05-.08.07-.17.2-.3.43.26-.24.32.1 0 .37zm6.53-.76c-.02-.02-.03-.04-.05-.06.01-.03.01-.07.02-.1l.03.16zm-1.95-1.05l-.1-.03c-.52-.18-1.15-.26-1.7-.2-.37-.1-.77-.22-1.22-.25-1.26-.32-2.7.04-4-.4-.66 0 .6-.1-.36-.2 0-.16.46 0 .25-.18-.94-.13-1.48-.5-2.64-.65l-.02-.13c-1.53-.1-2.76-.8-3.8-.8-1.55-.24-.94-.6-2.6-.7l-.58-.3c-.68-.18-.53.1-1.27-.16.07-.1-.94-.3-.47-.3-1.42-.46-2.98-.54-4.76-1.03l1.48.01c2.12.02 4.02-.23 5.85-.7 1.83-.48 3.64-1.18 5.53-2.34 1.8-1.1 3.66-2.62 5.43-4.86l7.6-.04-2.63 13.27zm3-15.15l-3.5.1c-.5-.1.53-.18 1.8-.22l-3.1.05c.03-.13 1.78-.08 2.73-.1-1.4-.08-2.87-.05-4.36-.01.01-.02.02-.03.03-.05.36-.65.76-1.3 1.06-1.98.66-1.34 1.1-2.84 1.5-4.15l2.4-8c.54-2.5 2.02-6.8 2.67-9.76l.43-1.1c.23-1.02.52-2.2.86-3.2v.07c.33-1.53.84-3.2 1-3.97l.02.07.47-1.84-.04.33c.6-2.66 1.3-5.38 1.9-7.77l-.2.17c1.4-5.1 1.52-7.06 2.64-11.7l.02.07.62-4.1.64-3.63a42.73 42.73 0 0 0 .26-1.69c.62-.45 1.17-.85 1.27-.84.04-.04.28-.14.43-.2l.52-.2-12.1 63.7zm2.13-.07l12.2-64.47.7-.25c1.23-.48 2.38-1 3.53-1.75.25-.1-.1.2-.66.52.48-.27.95-.56 1.4-.88.04.1-.9.68-1.43.96.98-.46 1.93-1.1 2.73-2 .4-.45.75-.94 1.04-1.52.14-.3.26-.6.3-1 .02-.27-.01-.58-.2-.87.04-.07.08-.13.12-.2l.22-.5.1-.13c-.02 0 .04-.14.12-.32a2.35 2.35 0 0 0 .14-.34 2.58 2.58 0 0 0 .09-.35l.16-.32c.02-.06.04-.17.03-.37a1.61 1.61 0 0 0-.32-.85l-.04-.06a.43.43 0 0 0-.16-.14.75.75 0 0 0 .16-.15l.06-.1.1-.2c.06-.14.1-.3.15-.44a3.94 3.94 0 0 0 .1-.9c-.02-.3-.03-.55-.12-.9-.08-.27-.2-.53-.34-.77.22.4.2.53.2.53-.02 0-.08-.14-.17-.3-.16-.34-.4-.6-.7-.77-.24-.12-.27-.1-.45-.07l.08-.08c0 .01-.05.04-.14.07-.05.02-.1.05-.16.07-.03.01-.07.04-.1.04l.06-.05c.2-.16.3-.44.27-.57.02-.12.03-.1.04.01 0 .1 0 .15-.03.23a.75.75 0 0 1-.11.2c.06-.07.13-.13.16-.2.04-.1.05-.1.06-.37-.02-.38-.12-.57-.18-.7-.13-.2-.2-.4-.4-.68a2.01 2.01 0 0 0-1.51-.77c-1.58.16.27.05-.47.18-.75.12-1.42.4-2.1.72.62-7.16.3-12.4-.82-16.24-.01-.06-.03-.1-.04-.17l7.04 2.96a54.26 54.26 0 0 1 1.4 2.74c1 3.75 2.94 14.53-1.3 32.14-4.93 20.45-13.98 53.66-15.5 59.25-1.9.01-3.64.07-5.3.12zm23.5-25.55c-.01.75.37-1.33.2.2l-1.36 7.2c.18-.2.07.45-.01 1.13l-.14.06c-.25 2.62-.42.9-.7 3.5l-.05-.24.15.72c-.13 2.36-.46 1.2-.55 3.84.15-1.02.35-.44.1.8l-.07-.34c-.1.7-.08.94-.18 1.4 0-.42-.13-.25-.3.78l-.03-.7-.1 1.97c-.38 1.47-.63 3.85-.9 4.44 0 0-.65 3.18-.6 3.95 0-.66-.36 1.1-.4.56a13.56 13.56 0 0 1-.13 1.36c-.01.2-.2.62-.43.8a1.23 1.23 0 0 1-.74.35c.04-.02.08-.03.1-.05-.55.17-1.28.16-1.9.05-.6-.12-1-.33-1.27-.66s-.42-.87-.42-1.5c0-.65.1-1.3.35-2.1-.17.12.24-1.58-.02-1.2.46-3.42 1.63-6.02 1.32-7.35.3-1.52.54-1.77.75-2.54l-.05.37 1.3-5.77c.2-1.06-.02-1.3.5-3.16-.05.63.12-.14.3-.84-.1.45-.1.6.2-.3 0-.14.03-.34.06-.54.01-.01.03-.04.03-.02.25-1.18.17-1 .02-.44-.01-.03-.04.01-.1.17.43-1.2.82-3.4 1.03-3.5.82-3.54 1.26-6.12 1.88-9.08.17-.3.1.4-.08 1.26l.46-2.1c.13.05-.2 1.22-.33 1.87.8-2.44 1-5.2 1.84-8.07l.03-.63.06-.17c-.05 0 .01-.68.1-1.12.2-.4.26.1.56-1.37.36-1.13.64-3.28.86-4.8-.18.8-.2.54-.16.18.14-.73.33-1.13.4-1.7l.13-.03c-.1-.12.25-1.97.22-2.23.18-.4-.1 1.16-.05 1.35l.75-4.4c.15-1.6-.2.26-.2-.5.2-1.4.27-2.77.6-4.35l-.2.5c.28-2.62.42-4.2.78-5.94.18-4.92-.03-7.64-.18-8.94-.16-1.3-.33-1.2-.46-.5-.15.7-.3 2-.4 3.13l-.12 1.46-.07.62-1.08 9.74c-.36 3.07-.74 6.32-1.56 10.83-1.65 7.88-2.4 9.9-4.22 18.06l-2.8 11.83c-.24 1.85-1.2 5-1.53 7.17l-.3.8c-.1.75-.27 1.63-.5 2.36v-.05c-.17 1.12-.48 2.36-.56 2.92l-.02-.05-.27 1.35v-.24l-.7 3.9c-.02 0-.05 0-.07.01-.1.01-.13.02-.16.02 0 .01.1.02.2.03 0 .01-.01.03-.01.04-.03 0-.07-.01-.1-.01-.1 0-.2-.01-.32-.01-.14 0-.28 0-.42-.01H230c-1.06 0-1.92-.01-2.03-.1l-1.3.02 15.37-59c3.28-13.63 2.85-23.14 1.98-28.55l.46 1.23a47.94 47.94 0 0 1 2.15 8.5l.25 1.77a34.54 34.54 0 0 0 .15 1.35c.1.72.2 1.08.33.85.1-.22.26-1.02.34-2.6.05-1.58-.03-3.94-.66-7.22l.1.16c-.92-3.85-1.9-6.2-3.24-8.55.03-.17-.1-.55-.33-1l.8.33c.33.43.5.8.7 1.14.2.43.5.85.84 1.57.02.1.05.2.04.18a14.08 14.08 0 0 1 1.23 2.73l.52 1.48c.12.46.24.87.34 1.17l-.1.1.4 1.5.3 1.52-.18-1.14c.35.34.32 2.32.66 4.53l.4 3.18c.18 1.08.25 2.2.12 3.3.1 1.06-.2-.94-.15.64-.16.04-.07-.74-.2-.34-.01 1.55-.26 2.53-.3 4.45l-.13.07c.04 2.5-.47 4.68-.42 6.35-.13 2.57-.52 1.7-.52 4.38l-.27 1.02c-.15 1.14.12.84-.1 2.1-.1-.1-.25 1.6-.28.84-.45 2.84-.42 5.83-1.15 9.57.1.84-.27 2.72-.2 3.35-.1.1-.5 3.8-.43 1.64.01-.18.05-.5.08-.48l-.1-.27c-.5 2.1-.4 3.9-.73 6.03.13-.62.23-1.46.24-.9l-.3 1.97-.04-.42-.47 2.93.2-.4c-.26 1.4-.55 1.88-.6 3.53zm-18.95 13.74c-.8-.2-1.62.3-1.82 1.1s.3 1.62 1.1 1.82 1.62-.3 1.82-1.1a1.49 1.49 0 0 0-1.09-1.82zm6.07-23c-.8-.2-1.62.3-1.82 1.1s.3 1.62 1.1 1.82 1.62-.3 1.82-1.1-.28-1.62-1.1-1.82zm5.85-21.73c-.8-.2-1.62.3-1.82 1.1s.3 1.62 1.1 1.82 1.62-.3 1.82-1.1a1.5 1.5 0 0 0-1.09-1.82z"/><path d="M182.8 145.18l-.07.18c.12-.1.2-.17.07-.18z"/></svg>