<svg xmlns="http://www.w3.org/2000/svg" viewBox="0 0 480 480" xmlns:v="https://vecta.io/nano"><path d="M353.52 218.23v-.01l-.01-.02zm-94.92-3l-.3-.07.3.07zm42.43-99.34l-.03.1v-.02zM262.62 141c.18.1.35.22.54.3 0-.03-.14-.1-.54-.3zm98.12 66.6c-1.9-1.1-4.07-4-7.42-4.3-9.2-.88-16.5-1.65-21.8-4.15-1.65-.83-15.74-8.2-28.78-15.27l1.42-3.34c-5.57-4.02-12.2-9-18.45-14.05 8.17-8.52 14.35-18.2 16.2-20.98.3-.4.3-1.2-.2-1.6l-2.28-2.33 11.52-16.9 1.05-.86 5.3-4.6c.88-.82 4.56-8.2 6.82-12.84.46-.22.83-.58 1.08-1.16a.89.89 0 0 0-.08-.91l.46-.97c.35-.2.66-.53.9-1.02.76-1.33-1.7-2.47-2.65-3l4.25-6c.6-.8.1-2-.9-2.1l-3.8-.6c-.5-.1-1 0-1.5.4l-6.43 8.4-.07-.2s-6.2 2.3-7.7 3.7-3.5 3.3-3.9 5.7c-.4 2-1.9 7.4-2.5 8.6-.8 1.64-7.4 9.15-11.88 14.14-.5-.44-1.34-.52-1.82-.04-2.6 2.2-9.9 8.1-14.2 10.5-2.85 1.6-6.62 1.84-10.83-.01-4.5-8.26-8.86-17.34-13.4-24.65-5.93-9.52-14.67-18.6-25.65-17.97-3.38-.13-6.9.47-10.56 2.08.03-.02.06-.04.08-.05l-.1.05c-8.98 3.96-18.77 14.05-29.4 34.7L183 137c-7.77 15.23-22.5 46.75-29.13 62.1l-8.4 19.4c-.56 1.28.28 2.56 1.5 2.56l45.95-.2a26.28 26.28 0 0 0 22.56-13.05l11-.04v.03c3 4.58 9.17 3.2 9.95 2.42.73-.73-.4-2.54-.62-4.63-.44-4.43-.23-8.5.92-14.8 2.87.58 6.1.38 9.54-.4 15.6 7.93 30.6 13.76 46.13 17.95l2.56-6.03c14.1 4.06 26.3 6.65 37.24 9.43 1.64.4 3.3 1.23 5.56 1.56 1.9-3.77 5.82-6.36 10.34-6.36a11.6 11.6 0 0 1 11.6 11.6c0 .08-.01.17-.01.25s.01.17.01.25c0 1.1-.2 2.2-.5 3.3.1.2.2.4.4.5 1.8.85 2.5-2.54 2.97-6.13s.7-7.37-1.8-9.12zM320.02 99.2c-.05.1-.08.24-.1.37.02-.13.05-.25.1-.37zm.02 1.2c-.02-.06-.03-.12-.05-.2.01.07.03.13.05.2zm-.1-.42c-.01-.08-.01-.16-.01-.24 0 .08 0 .16.01.24zm-4.76 2.34a4.34 4.34 0 0 1-.25.54l-.24.18a7.02 7.02 0 0 0 .49-.72zm-4.25 85.1l-.16-.08c.01.01.02.01.03.01.04.03.1.05.13.07z" fill="#fff"/><path d="M176.86 202.88c-.05.5-.13 1-.12 1.5l.12-.2c-.06.74-.25 1.04.06 1.87.17.36.06-.74.23.04.08 1 .58 2.6 1.54 3.62.01-.18.27.07.56.3l-.05.12c.58.42.68.5.73.64.07.12.12.3.77.57l.3-.04c.6.2.72.26.87.4.15.1.32.27 1 .28-.5-.13-.14-.33.44-.1l-.2.07c.34.07.47.07.68.14-.22.02-.15.15.35.23l-.37.07 1-.01c.7.26 1.88.25 2.16.43l.83.1c.44.03.92.01 1.1-.08-.32.1.54.18.3.3.4-.1 1.6-.24 2.1-.12h-.1c1.8.06 3.02-.46 4.63-.62-.1-.12.74-.25.5-.38 1.54-.58 3.05-.58 3.36-1.38.67-.35.87-.27 1.23-.45l-.14.12.78-.5.56-.4c.35-.24.64-.48 1.05-.83.38-.4.23-.66.94-1.3-.13.3.13 0 .34-.3-.13.2-.14.28.2-.06a1.06 1.06 0 0 1 .11-.25c.01 0 .03-.01.03 0 .34-.5.23-.45.06-.22 0-.02-.04-.01-.1.04.48-.43.9-1.48 1.07-1.5.4-.87.5-1.54.7-2.22l.53-2c.14-.12.1.22.01.62l.3-.95c.12.05-.12.57-.2.87.6-1.05.62-2.4 1.27-3.64v-.3l.04-.07c-.05-.02-.02-.34.03-.54.18-.15.25.1.47-.55.3-.48.47-1.48.64-2.18-.15.36-.17.22-.15.05.1-.33.3-.47.33-.74l.16.02c-.18.08.15-.9.13-1.05.18-.15-.08.54-.03.65l.67-1.97c.14-.74-.18.08-.2-.3.2-.63.3-1.26.64-1.94l-.2.18c.3-1.2.57-1.88.98-2.6l.67-3.66c.65-.12.8-.3.04-.57 0-.67-.22-.56-.5-.15-.72-.2-1.84-.43-3.52-.72l.08-.04c-1.8-.16-2.94-.2-4.2-.01-.2-.3-1.48-.07-1.9-.17h.04c-1.1.2-2.27-.24-3.34-.07.04-.02.07-.1.3-.1-.78.02-1.84.06-1.9-.1-1.85 0-4.43-.14-5.63.1l.08-.04c-.68.16-.88.01-1.63.08l-.1-.04c-.74.16-2.15-.02-2.75.04l-.04-.1-1.66-.01.74.04c-.06.15-.43.1-1.04.02l-.5-.06c-.13.05-.17.26-.27.4l-.24.52c-.08.2-.15.38-.17.5-.44.9-.23 2.1-.77 3-.06.5-.04-.5-.23.23-.16-.04.04-.36-.15-.23-.2.7-.6 1.03-.86 1.9l-.13-.01c-.24 1.17-1 1.98-1.07 2.78-.35 1.16-.64.62-.87 1.88l-.33.4c-.22.5.06.43-.23.96-.1-.07-.34.68-.3.32-.62 1.22-.7 2.66-1.5 4.3.08.44-.3 1.26-.22 1.6-.1.02-.48 1.76-.4.72.01-.1.05-.24.08-.22l-.1-.15c-.5.95-.33 1.9-.5 2.93.1-.3.14-.72.18-.43l-.14.98-.04-.2zm2.3-1.84c.45-2.25 1.17-4.46 2.05-6.4l.2-.13c.23 0 .1-1.22.36-1.3l.08-.5c.1-.12.23-.38.2-.13.17-.43.14-.45.2-.78l.3-.4c.76-1.65 1.1-3.2 1.9-4.94.3-.5.6-1.14.9-1.84l.48-1.1.24-.57.1-.24.03-.08c.03-.04.02-.14.07-.14l.17-.02 1.1-.03 2.17-.07c3.53-.23 7.6.72 11.23.44.12.03.42-.03.42-.05l3.3.1s4.52.13 6.94-.05c-.3.6-.56 1.2-.56 1.2-1.5 3.28-1.72 5.17-3.05 9.23-1.32 3.52-1.9 4.36-3.1 8.07l-.47 1.33c-.16.44-.3.95-.47 1.28-.28.76-.77 1.46-1.24 2.1-.34.73-1.5 1.5-2.2 2.14-.12.04-.25.06-.38.1-.25.2-.55.46-.88.53v-.04c-.4.3-.92.48-1.13.6l.01-.04-.55.23.08-.08c-.77.4-1.64.64-2.42.77l.1.13c-1.7.18-2.28.56-3.84.47l.02-.04c-1.95.47-3.1-.2-5.12-.04.25-.01-.1-.1-.07-.12-.92-.07-1.87-.26-1.95.01-.66-.15-.5-.23-.56-.35-.02.1-.6.03-1.08-.16l.23.04c-.45-.17-.92-.33-1.34-.56l.14.34c-.65-.44-.06-.32-.7-.67l-.1.17c-.87-.64-1.08-1.32-1.4-2.18-.92-1.68-.9-4-.43-6.22z"/><path d="M180.7 211.35h0l-.15.01zm130.1-24c-8.67-4.4-5.24-1.4-3.47-.44.93.46 1.15.4 2.78 1.32-.56-.23.12.12.73.45-.4-.2-.53-.25.26.22.12.04.3.13.47.2 0 .01.03.03.02.03 1.04.53.87.42.4.15.03 0-.01-.03-.14-.12l3.05 1.75 7.97 4.02c.26.2-.36-.07-1.12-.45l1.84.95c-.05.06-1.07-.5-1.64-.8 2.12 1.26 4.55 2.25 7.05 3.7l.56.22.15.1c.01-.03.6.22 1 .4.34.24-.12.16 1.2.76 1.03.55 3.07 1.14 4.53 1.46-.78-.2-.5-.2-.17-.12l1.63.44.05.1c-.26-.14 1.86.3 2.13.3.4.15-1.1-.14-1.3-.13l4.26.7c1.53.15-.26-.13.47-.1l4.2.48-.48-.14 5.73.6c2.36.06 3.96 1.23 5.1 2l2.45 1.7c1.1.54 1.1.4.53 0-.5-.36-1.4-1.2-2.25-1.94-.84-.75-1.68-1.3-1.68-1.3-.82-.55-1.7-.98-2.6-1.2-.44-.13-.94-.2-1.33-.23l-1.17-.12-4.46-.42c-2.96-.3-6.13-.55-10.38-1.5-1.85-.47-3.33-1-4.58-1.54-1.23-.55-2.3-1.2-3.4-1.78l-8-4.24-10.36-5.47z"/><path d="M363.1 210.8c-.14-.66-.37-1.26-.63-1.76-.28-.5-.58-.88-.88-1.13-.58-.5-.93-.62-.78-.44.1.2.83.7 1.34 2.1.52 1.4.52 3.64-.02 6.7l-.01-.17-.88 4.6c-.2.6-.4 1.22-.73 1.56-.16.18-.3.24-.46.24-.15.01-.3-.04-.4-.18 0-.08.05-.1.1-.34.1-.32.18-.72.24-1.15.14-.84.13-1.8.14-2.22l.01.08c-.08-1.18-.18-2.4-.5-3.58-.33-1.17-.8-2.3-1.5-3.22.06.07.12.08.4.54l-.75-1.1a8.52 8.52 0 0 0-.84-1l-1-1.07c-1.53-1.3-3.75-2.44-5.97-2.73-2.2-.36-4.28.01-5.47.48l.16-.08c-1.34.56-1.8.63-3.15 1.52-.08.04-.18.1-.17.08-.63.48-1.52 1.2-2.26 2.04-.37.4-.7.85-.98 1.25-.26.38-.53.85-.55.93-.02-.01-.04-.01-.06-.02l-.04.08h-.08l-.17-.03-.7-.15-1.43-.4 1.06.33c-.2.04-.74-.14-1.48-.43-.73-.28-1.72-.7-2.82-.88-2-.53-4.14-.64-6.2-1.23-1-.16.9.07-.6-.22-.03-.1.7.1.34-.06l-4.17-1.04-.06-.1c-2.37-.43-4.4-1.15-5.98-1.4-2.43-.53-1.56-.6-4.1-1.08l-.95-.34c-1.07-.3-.8-.07-1.97-.42.1-.04-1.5-.43-.78-.3l-8.96-2.4c-.57-.06-1.6-.37-2.4-.57l.2-.48 2.52-6.27 2.95-7.1 3.54-7.98-2.28-1.72-1.7-1.3-3.38-2.6-6.65-4.98a4.1 4.1 0 0 0-.59-.44c-.22-.15-.4-.27-.4-.25l-3.03-2.43a14.57 14.57 0 0 0 .83-1.07c-.73.83-.55.2.4-.77l-.14.33.97-1.16c-.24.38-.02.3.7-.56l-.37.66 1.2-1.73c1.14-1.15 2.62-3.25 3.16-3.67l1.14-1.44c.6-.77 1.2-1.64 1.36-2.02-.32.63.85-.88.64-.37.43-.8 1.88-3.03 2.6-3.82l-.1.17 2.28-3.35 1-1.6c.6-.92.47-2.26-.36-3l-1.7-1.82c0 .08-.18-.07-.4-.27l2.03-2.87.2-.14c.16-.01.67-1.3.88-1.4l.3-.54c.12-.13.34-.42.2-.15.32-.47.32-.5.5-.85l.4-.46 3.62-5.42 1.36-1.88 1.5-2.22.57-.48.63-.55 1.2-1.1 2.13-1.95 1.23-1.12c.2-.2.43-.34.64-.63.23-.27.34-.5.52-.75l1.8-3.04 3.18-6.18c.08-.12.2-.48.2-.48l1.04-2.1c.45-.27.82-.68 1.1-1.3.15-.34.16-.7.05-1.03l.38-.8c.3-.24.6-.56.85-1.03.2-.37.26-.77.15-1.16-.28-1-1.58-1.76-2.5-2.27l3.92-5.52a1.82 1.82 0 0 0 .2-1.83c-.27-.6-.8-1-1.42-1.06l-3.8-.6c-.68-.13-1.32.04-1.9.5l-5.83 7.6-3.15 1.32-2.95 1.4c-1.04.52-1.97 1-2.65 1.65l-1.72 1.65c-.52.58-1.04 1.2-1.5 2.02a6.76 6.76 0 0 0-.6 1.43c-.1.27-.14.58-.2.84l-.17.8-1.84 6.62c-.06.25-.14.55-.26.82-.14.27-.28.53-.5.83l-1.25 1.7-.36.33c-.24.35-.54.76-.85 1.07v-.03c-.37.53-.86 1.06-1.05 1.32V122l-.5.6.06-.12c-.68.9-1.44 1.77-2.13 2.52l.12-.01-3.3 3.7v-.03c-.74 1-.45 1.98 4.24-2.82-.12.01.57-.72.32-.6 1.2-1.55 2.5-2.56 2.7-3.33.56-.7.74-.76 1.04-1.1l-.12.18 2.1-2.72c.3-.57.33-.75.73-1.8-.07.37.1-.07.22-.47-.08.26-.08.34.14-.17l.05-.3c.01 0 .02-.02.02-.01.2-.67.13-.56.03-.26 0-.02-.02 0-.07.1.3-.66.57-1.93.7-1.98.54-2 .82-3.5 1.12-5.2.1-.16.05.2-.02.7.08-.4.14-.77.27-1.13.06.03-.15.63-.2 1 .33-1.3.9-2.7 2.12-3.86l.2-.3.08-.06c-.03-.02.2-.32.37-.5.22-.12.1.12.7-.46l.96-.76 1.2-.76c-.42.2-.3.1-.14-.02.37-.2.62-.24.9-.4l.08.07c-.2-.01.95-.55 1.08-.64.25-.03-.57.32-.64.4l2.32-1.02c.8-.4-.2-.02.18-.26l.86-.38.43-.18c-.08.14-.06.4-.06.4-.06.6.23.9.1 1.56-.1.25-.3.4-.44.58s-.3.34-.5.64l-.7.8c-.04.2-.33.3-.42.52h-.1c-.03.07-.08.14-.15.15l-.01-.02c-.05.1-.16.15-.18.2l-.01-.02-.1.08v-.04c-.1.16-.26.26-.4.33l.06.06c-.34.1-.35.33-.7.4l-.01-.02c-.23.4-.62.17-.9.55.05-.05-.04-.03-.06-.05-.16.1-.36.2-.45.28-.01.1.01.18.06.22-.08.2-.1.14-.18.13.07.04.02.25-.01.33v-.06l-.1.3.15-.01c-.1.14-.18-.02-.2.14l.1.04c-.1.2-.32.27-.5.46-.4.86-.5 1.92-1.04 2.64h-.1c-.12-.04.08.3-.04.28v.12c-.03.02-.08.06-.1 0-.04.08-.02.1-.02.17l-.1.06c-.2.3-.2.66-.4 1-.33.33-.5.83-.9 1.77a1 1 0 0 1 .1.21c.08.13.07.32.2.3.13.06.27.2.46.44l.22.14.12.1.22.18c.15.12.3.22.5.3.01.03.08.03.1.02l.48.42s.57.54 1 .83c.42.28.78.27.28-1.02l.03-.01c-.22-.32-.4-.5-.68-.57.08-.16-.23-.22-.26-.32l.02-.01c-.27-.05-.32-.4-.6-.43.02-.01.05-.04.1-.01-.15-.08-.38-.18-.34-.27l-.3-.15-.15-.07-.04-.01a.67.67 0 0 0-.31.04l.04-.02-.04.01c-.07.02-.1.02-.1.02-.01-.01.03-.04 0-.05.02-.01.03-.02.04-.02-.07-.01-.02-.08.01-.14.02-.04.05-.07.04-.1l.07.01.05-.13-.04.04c-.17-.07.17-.08.18-.34.03-.05.03-.1.03-.18l4.43 1.14c.18.06.36.1.53.1.5 0 1.02-.25 1.53-.77l.07-.1c.7.45 1.63.76 2.56.8.25.03.5.04.72.04.93 0 1.62-.24 2.1-.7l-2.68 5.12.03-.1c-.3.66-.64.72-1.28 1.37-.05.02-.1.06-.1.05-.6.67-1.98 1.74-2.5 2.25l-.08-.02-1.34 1.2.52-.43c-.03.14-.27.32-.62.58l-.6.43-.33.25-.38.33-.15.25c-.7 1-1.08 2.26-1.87 3.26-.27.55.18-.52-.27.27-.1-.03.2-.38-.01-.23-.46.76-.9 1.15-1.46 2.1l-.1-.01c-.7 1.26-1.6 2.17-2.03 3.03-.78 1.25-.74.7-1.48 2.04l-.42.44c-.38.53-.16.46-.6 1.03-.03-.07-.56.73-.37.35-.8 1.03-1.46 2.2-2.36 3.5-2.52-2.4-4.15-4.78-5.43-5.3-1.17-1.16-1.27-1.5-1.84-2.12l.3.26-2.17-2.17c-.56-.7-2.08-1.48-3.35-.34l.05-.05-.6.5c-.84.77-.8 1.1-2.45 2.32.45-.5-.2.04-.8.52.37-.32.47-.44-.36.13-.1.1-.25.26-.4.4-.01 0-.05.02-.04 0-.98.8-.8.7-.3.35-.01.03.04.02.2-.07l-3.17 2.2L275 140l-1.9 1.27c-.63.36-1.3.7-2.02.9-.36-.01.32-.23 1.1-.6-.65.28-1.32.52-2.02.64-.01-.13 1.18-.3 1.76-.62-1.2.36-2.45.65-3.8.7s-2.8-.2-4.2-.8l-.14-.03-.98-1.93c-2.32-4.65-4.13-8.16-6.17-11.85-2.07-3.67-4.2-7.6-7.7-12.84-.74-1.17-1.5-2.18-2.16-3.14-.72-.92-1.34-1.8-2-2.57a46.68 46.68 0 0 0-3.82-4.12c-.68-.6-1.33-1.24-2.1-1.8-.78-.55-1.52-1.2-2.44-1.75-.9-.55-1.87-1.17-3.03-1.65-1.1-.58-2.43-.95-3.87-1.4-2.8-.7-5.84-.76-8.74-.24l-1.52.38a26.24 26.24 0 0 0-6.48 1.86c-3.42 1.48-6.4 3.55-9.1 5.74l-.55.3c-.17.01-.84.7-1.5 1.44-.63.76-1.28 1.55-1.54 1.67-.34.4-.7.8-1.04 1.23-.32.3-.97 1-.5.37-.98 1.12-.97 1.17-1.62 2.02-.4.37-.74.76-1.1 1.15-3.7 4.52-6.2 8.83-9.28 14.1-3.98 6.2-9.67 18.73-12.94 25.93-4.48 10.18-10.7 21.54-15.1 32.05-.1.16-.22.47-.32.73-.1.27-.18.5-.17.5l-4.33 9.47s-5.23 11.5-8.06 18.82l-.93 2.57c-.3 1.02.12 2.02.67 2.47.56.48 1.14.52 1.4.48s.28-.1.13-.16c-.18-.07-.65-.13-1.1-.6-.46-.45-.74-1.43-.12-2.4l4.63-9.42-.06.25c2.4-5.16 3.9-8.42 5.3-12.1.52-.45 1.95-4.25 2.6-5.43l-.03.12c1.24-3.26 3.14-6.44 4.36-9.56-.03.13.01.23-.3.93.98-2.23 2.32-5.3 2.55-5.4l7.26-16.14-.07.25c.74-2 1.15-2.5 2.08-4.7.08-.1.16-.26.15-.23.82-2.18 2.9-6.12 3.62-7.84l.15-.06 2-4.17-.77 1.54c-.02-.68 1.7-3.06 3-6.14.72-1.4 1.3-2.88 1.9-4.37.63-1.48 1.28-2.97 2.1-4.37.6-1.44-.44 1.3.56-.78.17.01-.43 1-.03.54 1.06-2 1.98-3.15 3.34-5.6l.17-.03c.9-1.6 1.8-3.05 2.74-4.3.94-1.26 1.76-2.4 2.4-3.44 1.1-1.5 1.56-1.96 2.02-2.42.44-.48.92-.94 2.1-2.5l1.1-1.03c1.17-1.17.68-1 2.02-2.26 0 .08.4-.34.77-.62.36-.3.62-.5.26-.1.8-.65 1.56-1.37 2.38-2.05.85-.64 1.66-1.37 2.58-2 .6-.4 1.23-.84 1.9-1.24 2.22-1.08 5.22-2.32 8.2-2.9.94-.23 1.7-.4 1.8-.34 4.6-1.08 8.16-.58 11.84.92.2.14.06.13-.25.03-.3-.1-.8-.3-1.35-.43l.67.2.64.28 1.3.57c-.1.13-1.48-.65-2.3-.9 3 1.34 6.3 2.95 9.06 5.84l.66.5.16.18c.03-.05.72.53 1.15.94.3.5-.22.15 1.1 1.63.96 1.23 2.82 3.42 4.04 5.08-.62-.92-.36-.66-.05-.3.56.82.76 1.37 1.23 2l-.06.12c.17.04 1.5 2.18 1.72 2.45.2.54-.88-1.28-1.1-1.44 2.06 3.42 1.05 1.7 3.03 5.17 1.14 1.8-.06-.4.56.42.94 1.64 1.9 3.2 2.84 5.17l-.2-.67c1.76 3.1 2.72 5 3.7 7.18l3.37 5.67c-.02-.01-.05-.02-.07-.03l1.36 2.47c.08.03.16.07.24.1.03.01.07.02.1.03.57.86 1.02 1.52 1.37 2 1.05 1.42 1.13 1.23.75.34-.2-.5-.55-1.2-.93-1.97a13.19 13.19 0 0 0 3.39.44c.9.02 1.84-.12 2.86-.35 1-.25 2.1-.72 3.12-1.33 3.8-2.24 7.32-5.08 10.57-7.7.8-.8 2.1-1.82 3.35-2.87l.06-.05-.04-.07c-.01-.02.04.06.04.06s.02-.01.05-.01c.06 0 .16.02.22.05.02.01.03.02.04.02.01.01.01 0 .08.07l.3.28.57.52.54.73c.6.53 1.3 1.17 1.8 1.8l-.06-.01c.9.8 1.8 1.8 2.25 2.2h-.06l1.03 1.03-.2-.14c1.53 1.43 3.03 2.96 4.32 4.35l-.01-.2c.64.7 1.2 1.32 1.7 1.82.12.1.15.28.1.4l-.73 1.16a39.85 39.85 0 0 1-1.99 2.86v-.06c-2.3 4-4.4 5.78-7.04 9.7.33-.5-.22.15-.2.1-1.34 1.72-2.84 3.5-2.65 3.7-1.04 1.2-.92.9-1.14 1 .1.07-.7 1.03-1.5 1.9l.23-.32c-.1.1-.18.2-.27.28l-2.92-2.4s-8.96-7.38-13.78-12.62c-2.45-2.58-3.74-4.63-3.66-4 .03.16.16.48.42 1 .13.25.28.57.48.92l.77 1.17c1.2 1.75 3.18 4.24 6.27 7.44l-.2-.13c3.78 3.7 6.3 5.84 9.25 7.98.25.6 3.32 2.76 4.23 3.6l-.1-.05c2.65 1.82 5.07 4.24 7.66 5.95-.1-.05-.2-.03-.78-.46 1.8 1.34 4.32 3.13 4.35 3.37l5.22 3.8-1.65 4c-.58 1.45-1.07 2.73-1.4 3.7l.05-.24c-.6 1.88-.97 2.35-1.74 4.4-.07.1-.14.24-.14.2-.67 2.04-2.4 5.75-3 7.37l-.15.06-1.64 3.93.64-1.45c.03.3-.28.94-.72 1.84l-.74 1.53-.36.8c-.06.14-.12.28-.17.45-.1-.01-.18-.03-.28-.04l-.26-.07-.5-.13-1.07-.23-2.17-.42c-1.46-.27-2.92-.6-4.33-1.1-1.4-.3 1.27.16-.8-.38-.02-.17.98.2.5-.08-2-.57-3.2-1.2-5.7-1.95l-.06-.15c-3.25-.9-5.92-2.3-8.07-2.93-3.27-1.17-2.03-1.2-5.46-2.35l-1.23-.7c-1.4-.63-1.1-.24-2.64-1 .14-.06-1.95-.95-1-.64-3.47-1.73-7.26-3.07-11.7-5.62-1.1-.3-3.3-1.6-4.12-1.86-.12-.1-4.44-2.52-1.87-1.27.22.1.6.32.55.34l.35.06c-1.18-.83-2.36-1.4-3.48-2.05-1.1-.68-2.28-1.26-3.4-2.13.64.55 1.6 1.13.93.8-.74-.5-1.42-1.05-2.14-1.57l.5.24-1.57-1.2-1.5-1.28.34.45c-.72-.64-1.18-1.1-1.67-1.58-.47-.5-1-.98-1.84-1.66-.8-.6 1.22 1.37-.3.01-1.8-1.85-4.37-4.75-6.3-7.4.1.32-.48-.36-1.04-1.08l.04-.16c-2.17-2.75-.57-1.17-2.6-3.98l.24.2-.72-.62c-.94-1.26-1.1-1.67-1.3-2.1-.2-.43-.43-.88-1.4-2.33.7 1.2.08.7-.7-.8l.32.32c-.5-.8-.65-1.08-.92-1.64.3.47.3.18-.36-1.04l.56.76c-.47-.74-.93-1.48-1.36-2.24-.8-1.86-2.2-4.75-2.36-5.6l-.86-2.13c-.45-1.12-.94-2.37-1.2-2.8.3.58-.04-.5-.1-.88-.96-2.3-1.86-4.1-2.25-4.02-.9.2 3.9 13.1 5.15 16.46.54 1 .97 1.67 1.1 1.63.93 1.83.7 1.53.7 1.82.1-.07 1 1.47 1.8 2.86-.14-.2-.28-.4-.4-.62.8 1.3 1.56 2.64 2.43 3.9l-.3-.88c1.28 2.07.1.67 1.43 2.6l.14-.14c1.92 2.76 2.85 4.54 4.92 7.1.6.73 1.25 1.43 1.92 2.12-.75 2.4-1.37 4.3-1.34 5.47-.6 2.2-.88 2.56-1.23 3.68l.12-.53-2.42 8.34c-.4 1.53-.22 1.85-1.1 4.55.17-.9-.15.2-.46 1.22.18-.65.2-.87-.27.45-.03.2-.1.5-.16.77-.01.01-.03.06-.04.03-.48 1.7-.36 1.42-.1.64 0 .04.04-.02.15-.25l-1.08 3.06c-.36 1-.77 1.74-.88 1.8-2.24 4.65-4.74 7.6-8.23 10.2-.47.2.36-.4 1.3-1.24-.77.67-1.63 1.23-2.46 1.82-.07-.15 1.45-1 2.14-1.65-.72.55-1.53 1-2.3 1.55-.82.46-1.6 1-2.5 1.42-1.73.9-3.66 1.64-5.78 1.96l-.85.3c-.08.01-.17.02-.25.02.02.05-.92.25-1.56.35-.6-.04.02-.25-2.1-.14-1.7-.08-4.88.1-7.13.16 1.2.01.82.08.3.12-1.1.01-1.7-.1-2.55-.05l-.08-.12c-.15.12-2.9.14-3.27.2-.62-.1 1.7-.1 1.96-.2l-6.54.05c-2.33.13.42.15-.7.3-2.05.04-4.06.16-6.42.07l.75.14c-3.86.13-6.17.12-8.77-.01-28.76 1.27-6.05 1.58-6.05 1.58 11.32.26 17.17-.17 30.64-.34l7.53.05c2.24-.03 4.22-.2 6.17-.64 1.93-.46 3.88-1.03 5.95-2.07 2.07-1.03 4.33-2.43 6.66-4.66 1.7-1.6 3.25-3.47 4.5-5.52h.98l8.93-.05c.06.1.12.2.2.3.3.37.65.8 1.05 1.1.76.67 1.54 1.02 1.54 1.02 1.47.73 2.92.96 4.24.94.66-.02 1.3-.08 1.94-.23a8 8 0 0 0 .97-.28c.13-.05.43-.14.65-.3.23-.14.47-.28.67-.45.38-.42.6-.97.6-1.55l-.02-.44c-.01-.14-.05-.33-.07-.4a6.78 6.78 0 0 0-.14-.53c-.2-.66-.4-1.23-.58-1.83-.08-.3-.15-.6-.2-.9l-.12-1.07c-.1-.74-.13-1.53-.17-2.4-.01-2.93.32-4.77.6-6.64l.64-3.7c.9.13 1.73.17 2.46.1 1.4-.08 1.88-.03 2.37-.01s1 .04 2.42-.34l1.14-.07c.03-.01.05-.01.1-.02l1.36.7 8.73 4.3.44.36c.13.3 3.3 1.1 3.65 1.5l1.38.48c.36.2 1.14.57.46.33 1.24.54 1.28.52 2.2.82l1.3.67c4.9 2.1 9.25 3.43 14.56 5.23 1.47.56 3.27 1.16 5.25 1.78l3.1.92 4.14 1.13 1.84-4.46.85-2.1c.03.01.06.02.08.02l10.14 2.8.36.18c.13.17 2.43.42 2.74.62l1.02.2c.28.1.87.26.36.17.93.24.96.22 1.64.35l.98.32c3.67.96 6.84 1.55 10.7 2.5 2.3.64 5.68 1.45 9.02 2.3l2.5.8a15.26 15.26 0 0 0 1.29.33l.7.14.52.08c.16.01.38.12.42-.1l.44-.8c.1-.17.2-.33.3-.5.2-.32.42-.62.64-.9.45-.57.92-1.05 1.38-1.47 1.3-1.17 2.97-2.05 4.8-2.44 1.83-.38 3.78-.26 5.58.3a11.44 11.44 0 0 1 4.71 2.97c1.26 1.35 2.22 2.96 2.72 4.66.04.23.24.8.24.8.2 1.06.2 2.17.2 3.26-.04.54-.12 1.08-.24 1.6l-.23.97c-.08.23.07.44.18.64.12.2.28.4.5.47 0-.01.2.1.57.18.35.1 1-.08 1.37-.5.77-.84 1.08-2.07 1.37-3.43.27-1.37.46-2.87.6-4.4.27-1.45.27-3 0-4.32zm-42.67-100.08a6.02 6.02 0 0 0 1.01-.2c-.3.6-.62 1.3-.83 1.66.03-.13.07-.26.1-.4a1.35 1.35 0 0 0-.27-1.05zm1-.02c.01-.04 0-.07.04-.18.02-.01.04-.01.06-.02-.04.06-.07.13-.1.2zm1.72-3.48c-.03-.04-.08-.08-.1-.12a.88.88 0 0 0 .17-.02c-.02.05-.04.1-.06.14zm1.6-2.23c-.5 1.13-1.43 1.35-3.88.9-1.68-.2-2.97-1.02-3.4-1.7-.16-.26-.2-.5-.1-.7v-.01c.2-.58 1.1-.78 2-.78.58 0 1.16.08 1.6.2l.18.05c.14.04.34.1.57.16a4.83 4.83 0 0 0 .67.36c.5.24 1.1.48 1.7.57.3.2.54.4.64.6.08.12.08.23.02.37zm1.38-3.34a.48.48 0 0 1-.06.4c-.36.67-.8 1.07-1.67.98-.64-.35-1.43-.63-2.24-.87-.75-.5-1.37-1.2-1.64-1.88-.13-.35-.15-.65-.06-.87.12-.22.32-.36.6-.42.77-.17 1.87.24 2.38.62.13.08.3.18.52.3.68.4 1.98 1.1 2.16 1.75zm-12.36 10.8c.02.02.04.04.06.07l-.08.1c-.47.47-.78.45-1.02.37l-4.2-1.08c.05-.2.26-.3.2-.47.05-.25.27-.06.24-.36l.13-.05c.06-.1-.08-.12.01-.22.06.03.1-.12.13-.03.2-.22.1-.57.4-.85-.08-.12.05-.26-.01-.35.05.01.15-.34.18-.1 0 .02-.01.05-.03.04l.06.05c.2-.14.07-.38.17-.56-.05.05-.07.13-.1.06l.08-.17.04.06.14-.25-.1.01c.1-.1.23-.1.2-.3-.03-.1-.14.08-.1-.06.12-.15.3-.38.4-.6-.1-.01-.06-.07-.05-.14l.07.02c0-.27.2-.03.2-.3l-.08-.08c-.06-.26.2-.08.08-.35-.01.06-.16-.05-.1-.08l.06.04c-.01-.03-.03-.05-.01-.06.03.04.1.07.1.04.02.03.05.05.07.07-.02-.02-.04-.05-.06-.08l-.02-.04c.04.02.07 0 .1-.01.04-.02.13-.07.18-.03 0 0 .3-.1.33-.24-.03.1.15.03.14.13.04-.1.22-.3.35-.27l-.01.02c.36-.12.48-.43.8-.53-.06-.06.1-.12.01-.2.22-.28.64-.2.53-.53.1-.1.2-.05.27-.1l-.02.04c.2-.2.27-.26.44-.4.06-.1-.04-.23.13-.33 0 .1.05.03.1-.02-.03.04-.02.07.08.03 0-.02 0-.05.01-.07.08-.1.05-.1 0-.06 0-.01-.02-.01-.04-.01.15-.03.24-.25.33-.2.23-.3.32-.55.46-.82.06.01.06.1.03.18l.1-.2c.06.05-.04.13-.06.2.26-.13.22-.5.47-.7l-.02-.1.02-.01c-.03-.02-.03-.1-.02-.14.08 0 .14.1.2-.04.12-.08.15-.34.17-.5-.05.08-.07.04-.08-.01.03-.07.1-.1.1-.16h.1c-.1 0-.03-.23-.06-.27.08-.03.03.13.07.17.08-.32.04-.16.1-.48-.05-.18-.1.02-.17-.07 0-.15-.06-.3-.01-.45l-.08.05c-.07-.26-.08-.4-.02-.6-.08-.13-.14-.22-.2-.3.02.02.03.04.05.07l6.55-8.57c.34-.25.67-.34 1.04-.27l3.85.6c.28.03.52.2.63.48.12.28.1.6-.1.84l-3.98 5.6c-.7-.4-1.9-.8-2.87-.6-.58.13-1.02.45-1.28.94l-.01.03c-.2.47-.2 1.04.03 1.66.14.37.36.74.63 1.08-1.34-.15-3.26-.03-3.77 1.4-.2.5-.13 1.05.2 1.58.2.3.46.6.8.87-.58.03-1.2.17-1.7.48-.52.33-.84.8-.92 1.38v.02c-.06.77.44 1.5 1.23 2.1-.65.02-1.5.14-2.05.6-.34.27-.54.64-.58 1.07-.06.4.06.82.37 1.22zm3.47.53c-1.23-.07-2.27-.63-2.67-1.14-.1-.12-.2-.3-.16-.46l.01-.06c.01-.17.08-.3.2-.4.35-.3 1.03-.38 1.62-.38.22 0 .43.01.6.04l.33.04c.62.06 2.08.2 2.47.7.07.1.1.18.07.3-.15.96-.6 1.57-2.5 1.36zm1.85-3.2c-1.83-.3-3.33-1.48-3.28-2.25.04-.27.2-.48.46-.65.64-.4 1.77-.4 2.34-.2.15.03.38.07.66.1.85.13 2.62.4 3.07 1.02a.45.45 0 0 1 .08.39c-.2 1.17-1.1 1.58-3.33 1.6zm-101.8 97.34c.36-.7.65-1.44.97-2.15.28-.73.52-1.48.77-2.2l1.25-4.2c.6-2.66 2.16-7.2 2.9-10.35l.47-1.16c.25-1.08.58-2.34.95-3.4l.01.08c.37-1.62.94-3.4 1.12-4.2l.01.08.47-1.7.03.03-.01.08c.01-.02.01-.05.02-.07 1.26 1.15 2.5 2.35 3.84 3.4.62.52 1.25 1 1.9 1.5-.63 2-1.2 4-1.6 5.95a2.13 2.13 0 0 0-.12.66l-1.42 5.1s-1.7 6.18-2.47 10.1c-.2.95-.32 1.75-.36 2.33l-8.75.23c.01-.03.03-.06.04-.08zm18.73-16.36c-.13-.04.1-.92.16-1.4-.6 1.84-.5 3.92-.98 6.12l.05.48-.03.13c.06 0 .08.5.06.84-.14.3-.27-.05-.36 1.07-.08.44-.1 1.07-.1 1.74l.1 1.95c.03-.63.1-.42.13-.16 0 .56-.1.88-.03 1.3l-.16.06c.13-.22.22 1.46.32 1.66-.1.33-.18-.86-.26-1l.14 1.68c.03.26.01.6.28 1.74.42 1.16.1-.25.37.28l.48 1.48c.03.12.07.25.1.37a2.91 2.91 0 0 1 .04.31c.01.2-.06.44-.26.56h-.01.01c.1-.02.2-.07.3-.14a.49.49 0 0 1-.17.25c-.28.23-.62.35-.98.46-.34.1-.68.16-1 .2-.63.08-1.2.05-1.8-.04-1.78.04-3.18-.4-4.14-.94a16.28 16.28 0 0 1-.66-.4c-.2-.14-.36-.28-.52-.4-.3-.2-.5-.43-.7-.6l-.03-.94c.04-.08.08-.16.13-.27.14-.3.3-.7.53-1.25.44-1.1 1.05-2.7 1.88-5v.14c.85-2.76 1.34-4.5 1.64-6.5.36-.23.65-2.28.92-2.9l.01.07c.25-1.76 1.14-3.45 1.4-5.14 0 .07.07.13-.03.5.3-1.2.7-2.85.87-2.9.01-.03.02-.06.02-.1 1.04.73 2.1 1.43 3.18 2.1l-.6 3.94c-.14.23-.12-.3-.03-.95l-.26 1.57zm7.58-.8l-1.1-.01c-1.5.1-2.9.12-4.3-.01l.24-1.35.27-1.3c1.64.94 3.27 1.8 4.9 2.64-.02.01-.02.02-.03.02z"/></svg>