<svg xmlns="http://www.w3.org/2000/svg" viewBox="0 0 480 480" xmlns:v="https://vecta.io/nano"><path d="M234.66 205l.07-.26c-.01.02-.01.03-.01.04a.9.9 0 0 0-.06.22zm127.44 2.84c-1.9-1.1-4.07-4-7.42-4.3-6.93-.66-12.78-1.26-17.5-2.6l.78-2.38c.07-.63-.13-1.16-.67-1.4l-7.74-2.72c.36-7.06-3.57-13.9-10.33-16.96l-1.45-.54c.01-.08.01-.1.01-.1s-5.6-2.12-9.63-3.9c-3.2-1.5-9.37-3.38-9.37-3.38l-.02.06c-5.08-2.05-9.86-4.06-12.6-5.46-8.25-4.2-13.05-10.13-17.9-18.46-5.45-9.35-12.12-22.77-17.35-29.84-6.9-9.33-15.84-18.04-27.24-16.42-11.37.23-24.23 8.84-38.62 36.8-8.9 17.3-28.32 59.1-32.32 69.52-.56 1.28.28 2.56 1.5 2.56l78.2-.3s1.8-5.6 4.73-15.9l1.26 1.13c14.96 13 36.93 20.37 55.97 23.93l4 .84 3.13.34 1.82.26c9.72 1.3 18.42-1.35 21.7-7.68l7 2.08c.63.07 1.16-.13 1.4-.67l.1-.33c1.63.4 3.28 1.23 5.54 1.56 1.9-3.77 5.82-6.36 10.34-6.36a11.6 11.6 0 0 1 11.6 11.6c0 .08-.01.17-.01.25s.01.17.01.25c0 1.1-.25 2.2-.55 3.3.1.2.25.4.45.5 1.8.85 2.5-2.54 2.97-6.13s.7-7.36-1.8-9.1zm-24.44-7.54h-.08a.22.22 0 0 1 .08.01zM226.4 98h-.27c.1-.01.2-.01.27-.01z" fill="#fff"/><path d="M364.75 213.2c0-1.33-.24-3.07-1-4.22-.36-.57-.8-.96-1.1-1.16s-.48-.24-.44-.12c.03.14.32.4.7 1 .36.6.74 1.6.78 3.03l-.04-.07c.12 1.7-.03 2.8 0 4.03-.2.17-.2 1.44-.3 1.85l-.01-.04c-.02 1.1-.45 2.18-.6 3.17 0-.04-.04-.07.01-.3-.14.73-.48 1.64-.6 1.6-.17.35-.44.6-.6.63-.1-.01-.24-.03-.28-.06-.04-.04-.13-.1-.1-.18l.13-.6.13-.7c.07-.45.1-.85.07-1.16l.02.1c-.06-.72.02-.9-.06-1.67l.02-.1c-.1-.75-.28-2.18-.5-2.76l.05-.06c-.13-.48-.33-.95-.5-1.4l.2.53c-.23-.1-.3-1.12-.97-2-.5-.9-1.5-1.45-2.14-2.23-.42-.27.42.2-.17-.26.05-.1.3.2.2 0-.56-.47-.85-.87-1.64-1.34l.01-.08c-1.06-.54-1.95-1.14-2.75-1.3-.6-.17-.78-.24-.98-.35-.2-.1-.4-.2-1.06-.2l-.48-.18c-.55-.05-.4.1-1 .02.04-.08-.78-.05-.42-.12-1.4-.06-2.82.37-4.56.92-.33.25-1.18.6-1.38.85-.1-.05-1.54 1-.75.33.07-.06.2-.15.2-.12l.06-.13c-.97.46-1.5 1.2-2.24 1.92.23-.2.5-.5.36-.27l-.67.7.08-.2c-.33.35-.64.72-.93 1.1l.18-.1-.55.64c-.08.1-.16.2-.23.33-.02.05-.1.18-.08.17v.07c-.01.14.17-.1.08.13-.03.1-.15-.01-.2-.02l-.75-.2-1.63-.56c.07.1-.2.02-.52-.07l-.01-.08c-.88-.2-.66-.28-.98-.42.48-1.74.82-3.56 1.6-5.03l.17-.04c.22.03-.12-.65.1-.66l-.02-.26c.06-.05.14-.18.15-.05.08-.2.05-.23.04-.4l.2-.2c.38-.8.37-1.6.7-2.5.13-.2.25-.48.36-.77.5.1.4.06.17-.01.01-.01 0-.02-.08-.06.55.22 1.58.37 1.63.48 1.66.33 2.87.4 4.25.57.15.08-.18.08-.6.04l.98.12c-.02.08-.57-.03-.88-.06 1.15.3 2.43.22 3.8.5l.3-.03.08.02c0-.03.3-.04.52-.03.2.1-.03.16.65.23.53.13 1.53.13 2.24.16-.38-.05-.25-.08-.1-.08.34.03.53.12.8.12v.1c-.12-.1.9-.01 1.03-.03.2.1-.53.01-.62.05l2.05.2c.73 0-.12-.1.23-.15.63.05 1.24.1 1.9.4l-.2-.15c1.14.35 1.75.8 2.36 1.32 3.7 2.62 4.3 2.45 3.8 2.02l-1.73-1.57c-1.3-1.2-2.52-2.1-4.02-2.6-.38-.13-.77-.22-1.2-.3l-1.25-.1-2.78-.2-8.43-1.2-4.6-.9c.01-.04.02-.08.04-.13l.28-1.18c.03-.13.15-.53.1-.8-.01-.3-.07-.52-.16-.75-.2-.47-.6-.93-1.08-1.14l-.06-.02c-1.38-.5-2.7-1.52-4.16-1.7-.04-.05-.2-.03-.2-.01l-1.5-.56-1.07-.36c-.01 0-.02 0-.02-.01.04-1.52-.1-3.03-.42-4.5-.8-3.5-2.64-6.72-5.15-9.03-.3-.32-1.14-1.03-1.17-.98-1.5-1.27-3.2-2.27-5.04-2.98l.01-.05-.06-.04-.13-.07-.25-.14c-.17-.1-.33-.2-.53-.28l-.97-.44a14.81 14.81 0 0 0-.7-.31 11.53 11.53 0 0 0-1.63-.54c.3.08-.1-.12-.06-.14-1.1-.4-2.25-.84-2.38-.6-.78-.32-.6-.34-.66-.48-.04.12-.75-.1-1.36-.35l.3.07-1.77-.67.13.2c-.1-.04-.23-.1-.34-.13-.1-.13.04-.17-.58-.4l-.06.16c-.1-.04-.2-.07-.3-.1-1.1-.54-1.77-1.06-2.9-1.62-1.33-.5-2.7-.94-4.1-1.36l-1.73-.52-.43-.13-.1-.03c-.01.02-.01.04-.02.06l-5.72-2.26c-3.98-1.58-6.66-2.8-6.14-2.25.47.5 3.7 2.4 11.44 5.96l-.6 2.2c-.76 2.76-1.54 5.47-2.46 7.92l-.2.18c-.23.03-.1 1.47-.36 1.6l-.08.6c-.1.15-.23.5-.2.18-.17.54-.14.56-.2.97l-.3.54c-.74 2.1-1.04 3.97-1.77 6.2-1.07 2.6-2.36 7.73-3.1 10.68-.47 2.1-1.26 4.26-2.06 6.45-.4 1.1-.8 2.2-1.15 3.28-.18.55-.34 1.1-.5 1.63l-.5 1.92c-3.58-.75-6.6-1.98-9.02-2.53-2-.55-2.6-.9-3.26-1.2-.64-.32-1.34-.55-3.38-1.2l-1.5-.75c-1.7-.67-1.3-.27-3.16-1.13.15-.05-2.34-1.07-1.2-.7-4.14-1.98-8.62-3.65-13.64-7.05-1.2-.53-3.72-2.26-4.57-2.75-.04-.08-1.27-.98-2.14-1.62-.83-.7-1.3-1.1.1-.1.25.16.67.46.62.47l.4.14c-2.6-2.22-4.94-3.8-7.45-6.13.73.7 1.74 1.6 1 1.06-.8-.7-1.56-1.43-2.3-2.18l.55.38c-1.12-1.1-2.26-2.2-3.32-3.37l.36.56c-.78-.86-1.27-1.47-1.8-2.08a25.01 25.01 0 0 0-2.03-2.18c-.87-.8 1.34 1.74-.33-.05-2-2.38-4.8-6.06-7.02-9.32.1.4-.5-.5-1.14-1.38l.03-.17c-1.25-1.68-1.36-2.07-1.5-2.42-.13-.36-.3-.7-1.4-2.45l-.52-.54c-1.06-1.55-1.22-2.05-1.46-2.55-.23-.5-.48-1.06-1.6-2.84.8 1.45.1.82-.76-1.02l.33.4c-.52-1-.73-1.3-1.04-2 .36.57.3.25-.42-1.24l.6.94-1.52-2.74c-.88-2.26-2.5-5.73-2.66-6.7l-.28-.8c-.94-2.3-1.8-4.3-2.05-4.47-.6-.4 3.22 12.58 3.22 12.58l-.14-.17c.74 1.53 1.34 2.63 1.5 2.58 1.06 2.2.8 1.82.83 2.16.1-.06 1.1 1.8 2 3.48l-.45-.75c.87 1.6 1.77 3.2 2.72 4.74l-.35-1.04c1.43 2.5.1.8 1.62 3.12l.15-.13c2.1 3.4 3.23 5.5 5.47 8.67 2.45 3.22 5.17 6.32 8.08 9.26a117.25 117.25 0 0 0 5.73 5.42l-2.04 7.13c-.4 1.5-.2 1.82-1.07 4.46.16-.9-.15.2-.46 1.2.18-.64.2-.85-.27.44a8.68 8.68 0 0 1-.16.75c-.01.01-.03.06-.04.03-.05.17-.1.32-.12.44-.02.08-.03.14-.05.2l-.03.17c0 .04.06-.1.13-.3.01.03.04.01.1-.13-.05.12-.1.25-.16.38-.03.05-.03.15-.1.16l-.2-.01h-1.4c-1.06 0-1.92 0-2.03-.1l-13.33.35c-.5-.1.53-.18 1.8-.22l-3.1.05c.03-.13 1.77-.08 2.73-.1-3.68-.2-7.58.24-11.9.06l-.9.1-.26-.02c.01.06-.95.14-1.6.16-.6-.1.04-.27-2.1-.25-1.7-.1-4.8.07-7 .15 1.2.02.8.08.3.12-1.07.01-1.68-.1-2.5-.05l-.08-.12c-.15.12-2.85.14-3.2.2-.6-.1 1.66-.1 1.92-.2l-6.42.05c-2.28.13.42.15-.68.3-2.02.04-3.98.16-6.3.07l.73.14c-3.8.12-6.05.12-8.6-.02-28.22 1.25-5.94 1.58-5.94 1.58 11.1.27 16.85-.16 30.07-.32 11.63.03 14.7.3 26.76.13l8.8-.05 5.84-.06c.12-.08.12-.3.2-.45l.15-.48.45-1.48.6-2.05c.58-2.62 2.1-7.08 2.8-10.17l.3-.78 1.78 1.46c6.44 5.2 13.62 9.07 20.38 12.34l.54.4c.18.32 3.95 1.3 4.4 1.72l1.67.53c.44.2 1.4.6.57.35 1.5.57 1.55.58 2.67.9l1.6.68c6 2.14 11.3 3.33 17.83 4.82a112.84 112.84 0 0 0 8.98 1.83c.02.01.03.02.05.02.77.33 2.94.66 2.94.66a45.86 45.86 0 0 0 2.93.42l1.2.12 1 .1.16.02c.06.01.04-.1.07-.13l.06-.2c5.38.18 10.8-1.06 14.2-3.4 1.7-1.13 3.28-2.65 4.4-4.5.4.1.73.1 1.2.37l-.02.03c1.06-.1 1.42.7 2.5.64-.13.01.03.1.01.12.46.1.95.22 1.04-.05.33.1.24.16.25.28.03-.12.33-.1.6-.02h-.13l.74.18-.08-.27c.38.18-.01.3.43.37l.04-.2c.38.1.67.17 1 .2a1.63 1.63 0 0 0 1.19-.39 2.12 2.12 0 0 0 .36-.54l.02-.04.01-.03c.03.01.05.02.1.03l.03-.1c1.06.37 1.63.8 2.7 1.17.62.17.98.26 2.15.44.28-.3.55-.96.65-1.1.15-.23.3-.48.45-.7.63-.92 1.4-1.75 2.28-2.44 1.74-1.4 3.93-2.18 5.96-2.2l.18.08c.04.07.32 0 .6-.05.3-.03.6-.07.66-.01.16-.01.32-.03.48-.03.13.04.4.1.17.1.43.07.44.05.76.06.15.04.3.12.44.18 1.63.47 3.04 1 4.45 2.14.78.76 1.86 1.9 2.64 3.3.8 1.38 1.24 2.95 1.4 4.13.08.82.16 1.74.02 2.6a10.4 10.4 0 0 1-.29 1.32l-.23.8-.05.27c.03.1.08.17.12.25a1.89 1.89 0 0 0 .34.46c.14.14.32.22.52.3.15.07.33.1.52.1.18.03.37-.04.56-.08.17-.07.33-.16.47-.26.52-.43.77-.93.97-1.4.4-.95.57-1.9.7-2.8.04-.1.05-.42.04-.42.18-1.1.34-2.17.45-3.27.1.07.2-.92.2-2.27zm-78.6.87c.04-.1.05-.07.1-.23s.1-.32.17-.48c.1-.32.2-.64.23-.96.01.05.08.1-.01.4.24-.9.55-2.16.73-2.18.6-2.16 1.6-5.13 1.75-6.6l.02.1c.06-.84.28-1.02.46-1.93.04-.04.06-.1.07-.1.1-.9.73-2.5.86-3.2h.12l.5-1.7-.22.63c-.23-.3.57-1.23.76-2.52.4-1.14.1-2.52.6-3.68.04-.6.07.57.22-.32.16.02-.02.43.16.24.18-.86.57-1.33.78-2.4l.13-.01c.2-1.42.93-2.5 1-3.46.32-1.42.64-.83.84-2.35l.33-.5c.2-.6-.06-.5.22-1.17.1.07.34-.84.32-.4.63-1.5.73-3.23 1.62-5.2-.06-.5.37-1.5.32-1.88.1-.03.64-2.06.48-.85-.01.1-.07.28-.1.26l.07.17c.3-.55.42-1.1.52-1.64l.16-.82c.04-.2.02-.14.03-.2 0-.03.01-.07.03-.1-.05.04-.08.17-.14.06l.1-.3c.02.06.03.12.05.17.01-.08.1 0 .14.02l.16.08c-.03-.06-.01-.1-.03-.14-.01.02.2.1.34.18s.27.14.4.2c.26.13.54.23 1 .3.43.04-.68-.4.15-.17l3.76 1.62c-.07-.18.28-.05.64.07l-.01.13c1.4.4.38.44 1.75.9l.3-.06c1.34.28.56.5 2.08.76-.55-.2-.15-.36.5-.03l-.22.04c.38.13.52.13.76.25-.25-.03-.2.1.37.32l-.42-.01 1.12.2c.75.44 2.07.8 2.33 1.1 0 0 .42.2.9.38.24.1.5.2.7.26l.16.05c.02 0 .03 0 .04-.01.03-.01.05-.02.08-.03-.13.07.01.17-.16.25.03-.02.1-.04.13-.03.03.02.04.05.04.1v.07c-.03.1-.05.2-.07.3-.06.2-.12.4-.18.5l.01-.1c-.62 1.95-.68 3.46-1.33 5.2.16-.04-.17.88.07.7-.34 1.9-1.3 3.28-.95 4.1-.2.85-.42.96-.57 1.4l.03-.2a68.21 68.21 0 0 1-.89 3.22c-.12.6.1.77-.28 1.8 0-.37-.1.06-.23.46.06-.25.05-.34-.18.15.01.08-.01.2-.02.3-.01 0-.02.02-.03.01-.16.66-.1.56.01.26.01.02.04 0 .1-.08-.34.64-.57 1.9-.77 1.92-.56 1.97-.8 3.43-1.25 5.08-.15.16-.1-.25 0-.73l-.32 1.17c-.13-.05.13-.7.2-1.05-.63 1.3-.67 2.9-1.35 4.46v.37l-.05.1c.06.01.02.4-.04.64-.18.2-.25-.1-.5.7-.3.6-.5 1.8-.7 2.66.16-.44.17-.28.15-.07-.12.4-.3.6-.35.92l-.16-.01c.2-.1-.17 1.1-.15 1.26-.18.2.1-.65.04-.78l-.72 2.4c-.15.9.2-.1.2.34-.2.76-.32 1.53-.68 2.37l.22-.23-.22.9c-.04.13-.07.26-.1.38-.08.06-.23 0-.34 0-.24-.03-.46-.06-.67-.1l-.73-.16-2.54.03-2.78-.3c-.18-.04-.4-.08-.62-.12-.72-.37-2.15-.93-4.6-1.78l.1-.02c-2.12-.57-3.46-.9-4.98-.98-.1-.17-.52-.27-1-.35l-.7-.12c-.1-.01-.17-.03-.2-.06l.03-.02c-.15.02-.34.01-.44-.04a2.14 2.14 0 0 1 .17-.43zm37.58-2.4l-.73.94c-.27.34-.64.7-1.05 1.15-.12.07-.26.17-.25.15-.82.9-2.34 1.86-3.94 2.54-1.6.7-3.24 1.08-4.22 1.3l-.15-.1c-1.6.34-3.25.47-4.9.5.62.03 1.23-.04 1.85-.06-.37.2-1.6.2-3.25.08.04-.13.07-.25.1-.38.44-1.7.86-3.52 1.57-6 1.4-4.34 2.02-5.42 3.3-9.97.68-2.15 1.33-4.47 1.95-6.58.1-1.06.84-2.77 1-4l.25-.43c.06-.43.16-.92.34-1.3l.03.04c.1-.64.34-1.3.38-1.63l.03.04.2-.75.01.14c.2-1.1.5-2.2.82-3.17l-.16.04c.72-2.05.64-2.88 1.3-4.74l.03.03c.03-.3.07-.6.1-.9.02-.14.05-.28.07-.4.01-.05.02-.1.03-.13.22.08.43.15.54.22l.56.3-.13-.04c1.67.7 3.23 1.85 4.47 3.22 1.26 1.37 2.26 2.9 3.1 4.44-.1-.1-.15-.16-.56-.85.34.53.6 1.18.9 1.8.23.65.52 1.27.64 1.86.35 1.16.4 2.1.35 2.2.42 2.47.1 5.44-.83 8.1l-.02.05-.01.02-1.62 5.82-.65 2.5-.27 1.08-.12.5c0 .07-.08.24-.12.36l.06-.25c-.18.5-.32.94-.5 1.3a13.21 13.21 0 0 1-.55 1zm9.4-1.48l-.07-.12-.27.62.15-.05c-.16.3-.4.33-.35.74.04.2.26-.24.2.1l-.3.54.04-.1c-.04.04-.1-.01-.07.01-.03-.04-.03-.07-.07-.06.05.14.01.14-.05.18l-.02-.12c-.1.1-.1.02-.08-.06 0-.04.02-.07.01-.1-.05-.04-.13-.06-.28-.07l-.15.14c-.58.08-.2-.33-.87-.18.23.05.03.3-.23.16l.1-.1c-.16-.02-.23.01-.32-.04.1-.04.1-.15-.13-.2l.2-.1-.5.1c-.3-.22-.86-.22-.94-.42 0 0-.68-.3-.9-.16.17-.07-.2-.23-.05-.32-.22.07-.8.01-.97-.2h.05c-.37-.18-.7-.24-1.04-.3.13-.35.26-.7.35-1.06l2.76-9.08a20.06 20.06 0 0 0 1.07-4.25 2.5 2.5 0 0 0 .82.11c0 .3.67.27.84.42l-.03.02c.58-.03.98.54 1.54.52-.03.01-.06.1-.18.05.37.1.88.2.85.37.86.26 2.02.75 2.66.68l-.05.03c.08-.01.14-.01.2-.01.04.02.06.06.14.08-.01.02-.02.03-.03.04.1 0 .17.13.17.3s-.03.2-.06.4l-.1-.02-.2.7.1-.25c.26.18-.35.45-.32 1-.2.45.3 1.13 0 1.56.06.27-.16-.27-.16.1-.16-.04-.04-.2-.2-.14-.04.36-.33.5-.37.94l-.12-.02c.04.6-.5.96-.4 1.4-.08.6-.47.26-.43.9l-.23.17c-.1.24.14.24-.03.5-.1-.05-.2.32-.24.13-.36.57-.2 1.33-.72 2.06.14.24-.1.6-.01.8-.1-.01-.28.82-.32.3 0-.04.02-.1.06-.1l-.1-.1c-.37.4-.16.9-.34 1.34.08-.12.13-.3.17-.16l-.17.4z"/><path d="M154.1 208.7c.27-.04.28-.1.13-.16-.17-.07-.63-.13-1.1-.6-.45-.44-.75-1.4-.17-2.34l4.54-9.24-.06.25c2.35-5.07 3.84-8.25 5.22-11.86.5-.44 1.94-4.16 2.57-5.3l-.03.12c1.23-3.2 3.1-6.3 4.33-9.36-.03.13.01.22-.3.9.98-2.2 2.32-5.18 2.54-5.27l7.27-15.77-.07.25c.74-1.96 1.16-2.44 2.1-4.58.08-.1.16-.25.16-.22.84-2.12 2.92-5.96 3.7-7.63l.15-.06c.66-1.36 1.38-2.68 2.08-4l-.82 1.48c0-.33.45-1.06 1.06-2.08.6-1.03 1.4-2.33 2.15-3.78 1.54-2.64 2.64-5.67 4.54-8.24.75-1.33-.57 1.23.63-.7.17.03-.52.93-.08.52.6-.93 1.16-1.66 1.75-2.44.6-.77 1.28-1.56 2.07-2.68h.17a16.64 16.64 0 0 1 1.59-2.05l1.6-1.8c1.1-1.07 2.07-2.03 2.84-2.94 1.33-1.26 1.85-1.6 2.36-1.96.54-.33 1.1-.67 2.52-1.92l1.32-.65c.63-.4.86-.6 1.08-.78a36.88 36.88 0 0 1 2.68-1.31c.13-.04.13-.01-.14.13a29.38 29.38 0 0 0 .85-.32c.28-.15.55-.28.82-.42 1.85-.68 3.7-1.15 5.48-1.2.45-.16.8-.32 1.25-.45.32-.07.68-.15 1.15-.22.24-.03.5-.07.8-.12s.63-.08 1-.05c-.97.1.26.1 1.38.1-.72.01-.94.05.53.13.2-.03.53.02.82.04.01.01.07.03.04.03 1.85.24 1.54.16.68.02.05-.01-.02-.04-.3-.1.47.13 1.06.16 1.64.35l1.73.5c1.08.38 1.93.8 2 .9a32.24 32.24 0 0 1 6.48 3.97c.93.7 1.78 1.5 2.64 2.25.82.8 1.68 1.6 2.48 2.5.28.48-.5-.35-1.5-1.3.82.78 1.55 1.67 2.32 2.5-.13.07-1.34-1.43-2.1-2.17.67.76 1.32 1.57 2.03 2.34l2.08 2.45c1.4 1.7 2.77 3.5 3.97 5.57l.62.78.14.25c.04-.04.67.84 1.06 1.43.25.64-.25.1.96 2.14.85 1.68 2.7 4.6 3.95 6.75-.63-1.17-.36-.83-.05-.35.58 1.04.8 1.7 1.3 2.48l-.06.14c.18.1 1.64 2.73 1.9 3.05.22.65-.98-1.58-1.2-1.8l3.48 6.28c1.35 2.18-.1-.48.62.52l3.57 6.1-.3-.78c2.3 3.58 3.75 5.65 5.47 7.96 2.65 2.97 5.1 4.86 7.07 6.12 1.97 1.25 3.42 1.96 4.4 2.35 1.93.8 1.9.57.92-.05-.93-.63-2.7-1.7-4.13-2.77s-2.55-2.06-2.55-2.06c-2.23-2-3.96-4-5.5-5.98s-2.86-3.96-4.17-6.06c-2.6-4.2-5.23-8.82-8.84-15.28-3.1-5.72-5.1-9.34-7.34-12.93-1.12-1.8-2.38-3.56-3.88-5.5-1.54-1.92-3.33-4.07-5.85-6.46-2.37-2.3-5.14-4.42-8.26-5.96-3.1-1.55-6.62-2.4-9.96-2.3-.8-.01-1.72.18-2.74.32-.68.05-1.37.23-2.07.42-2.03.23-4 .7-5.86 1.35l-.62.1c-.15-.03-1.05.34-1.88.9-.84.53-1.7 1.07-1.97 1.1l-1.3.94c-.4.2-1.2.7-.57.22-.63.4-.92.62-1.17.84l-.85.74-1.33.86c-4.47 3.7-7.47 7.62-11.03 12.44-2.24 2.84-5.03 7.24-7.58 11.84-2.5 4.63-4.82 9.42-6.46 12.94-4.54 9.93-10.74 21.03-15.1 31.32-.1.16-.22.46-.32.72s-.18.48-.17.48l-4.3 9.28s-5.18 11.26-7.94 18.46l-.7 1.9-.1.3c-.04.12-.08.23-.1.35-.27 1.02.16 1.98.72 2.42.6.5 1.16.53 1.42.5zm153.67-34.6h0l-.16.03z"/></svg>