<svg xmlns="http://www.w3.org/2000/svg" viewBox="0 0 480 480" xmlns:v="https://vecta.io/nano"><path d="M393.13 244.9l.01.1-.01-.1zM214.74 69.3l-.04.35c.02-.01.04-.1.04-.35zm33.1-20.96l-.07-.04c.05.03.06.04.07.04zM219.1 82.57l-.02-.01-.08-.06zM203.04 50.3c-.14.12-.3.22-.44.32.02.01.15-.05.44-.32zm8.13 26.75l-.07-.1.07.1zm2.13-22.97l.08-.1c-.02 0-.05.02-.08.1zm8.8-1.7c0 .01-.01.02-.01.03.01-.02.01-.03.01-.03zm-5.3-1.28h0c-.01.02-.01.02-.01.03v-.03z"/><path d="M252.66 52.24c-3.5-4.5-8.4-7.76-13.4-7.96-3.46-.27-7.22.26-11.2 2.45-.06-.06-1.7-1.5-2.3-2.1-.26-.26-1.03-.5-2.2-.3-.88-1.56-2.6-3.3-5.9-3.5-5.6-.4-9.6.7-13.2 6.7-2.3 3.8-6.1 5.2-11.2 6.5-4.2 1.1-9.1 4.8-8.6 12.1.6 7.3 0 11.2-3.9 14.5s-8.7 16.6 5.4 25.3c12.7 7.9 26.2 2.97 30.3-7.93 4-10.5-2.92-17.12-6.32-24.32-4.38-7.05-1.22-16.3 2.67-18.97.42-.5.82-.67 1.2-.7-.76 2.3-.04 3.4-.04 3.4l2.4 1.6c-.88 1.86-1.58 3.9-2.1 6.2-1.85 12.98 8.24 18.9 10.07 19.85l-5.57 18.2-2.2 5.7s3.2 4.1 10.8 5.7c5.2 1.1 8.7 1.2 11 1 1.9-.2 4.2-.6 3-4.1-1.7-5.2-1.1-8.5-1.1-8.5l2.4-13c1.46.24 2.82.25 3.9-.1 3.2-1 6.2-4 7.3-10 .7-4 1.1-9.1 1.1-12.9 0-2.13-.22-5.1-.22-5.1l-.82-.2c2.13.2 3.48-.01 3.84-.64.6-.4-1.8-4.6-5.1-8.9zm-24.73 27.44c.01.02.01.04.01.05l-.05-.03c.01 0 .03-.01.04-.02zm7.85-16.88c.28-2.72.48-4.7.96-5.25l-.96 5.25zM217 57.77c-.01.03-.03.05-.04.08a.3.3 0 0 1 .04-.08zm8.57 23.1c.02 0 .04-.01.06-.02l-.27.88.2-.86zm11.68-23.6c1.1-.22 3 1 7.88 2.52-2.75-.75-6.62-2.08-7.88-2.52z" fill="#fff"/><path d="M222.65 43.44h.01l.02-.08z"/><path d="M258.55 60.05c-.1-.3-.17-.42-.25-.6l-.24-.48-1.07-1.9c-.68-1.37-1.9-3.18-3.26-4.92-1.37-1.78-3.06-3.36-4.4-4.36-1.9-1.37-4-2.8-6.47-3.68-1.22-.44-2.55-.7-3.82-.77-1.24-.1-2.53-.07-3.72.15-.16-.02-.56.1-.55.13-1.47.2-2.9.56-4.3 1.08 0 0-1 .35-2.3 1.03-.15-.12-.28-.23-.4-.25.03-.03-.2-.24-.3-.36-.08-.1-.12-.16.1-.1.02 0 .12.1.1.1l.14-.02c-.12-.18-.16-.24-.23-.3s-.15-.1-.23-.15c-.17-.1-.35-.15-.48-.3.06.1.18.2.06.2l-.26-.26.12-.02-.3-.32c.05.04-.07-.08-.08-.07l-.08-.07c.02.06.02.1.04.17-.3-.33-.47-.6-.92-.57-.2.03.3.25-.1.17-.3-.14-.73-.24-1.15-.27-.43-.7-.87-1.17-.87-1.17-.65-.72-1.42-1.25-2.2-1.66a9.11 9.11 0 0 0-2.35-.74l-1.13-.13-1.04-.04a24.54 24.54 0 0 0-2.1.06c-1.42.12-2.92.42-4.46 1.13-1.54.7-3.06 1.87-4.4 3.47-.6.7-1.1 1.36-1.52 2l-.6.9-.52.72a9.9 9.9 0 0 1-2.31 2.11c-1.7 1.1-3.7 1.87-7.1 2.82-.78.18-1.8.48-2.64.86-.88.37-1.7.88-2.5 1.43-1.56 1.14-2.85 2.65-3.65 4.32-.34.8-.73 1.95-.97 3.16-.27 1.2-.26 2.48-.15 3.48l-.06.74c.1.64.18 1.38.16 2.02l-.03-.04c.12.94.07 2 .1 2.47l-.03-.04-.05 1.13-.03-.2c-.03 1.6-.34 3.23-1 4.46l.16-.05c-.7 1.33-1.35 2.12-2.04 2.85-.66.64-1.65 1.52-2.54 2.8v-.05c-.93 1.78-1.52 3.2-1.96 4.7-.46 1.5-.73 3.12-.47 5.14-.08-.5-.05.22-.08.18.1 1.9.76 3.8 1.02 3.75.43 1.27.28 1.07.25 1.27.08-.04.65 1 1.13 1.92l-.25-.46c.2.46.5.86.8 1.27l.87 1.22c-.08-.2-.12-.4-.17-.6.4.68.5.74.5.86.02.1.05.2.57.74l.1-.13c.68.86 1.3 1.44 1.9 2.07.3.3.57.66.92.94l1.13.92c1.78 1.3 3.8 2.3 5.9 3.13 2.14.7 4.35 1.32 6.6 1.42l.84.07.84-.02 1.67-.05c1.1-.14 2.2-.24 3.27-.54 1.08-.2 2.08-.63 3.1-.96.96-.47 1.95-.84 2.82-1.42l.38-.1c.1.02.6-.3 1-.75.42-.43.84-.87 1.02-.9.24-.2.44-.47.64-.72.2-.17.64-.56.33-.18.62-.65.65-.65 1-1.2l.68-.7c1.12-1.38 1.84-2.88 2.44-4.4.3-.77.5-1.58.74-2.4.15-.85.4-1.7.46-2.63.4-2.2.14-5.58-1.16-8.55-1.2-3.02-3.03-5.66-4.23-7.62l-1.27-2.1c-.44-.74-.72-1.43-1.18-2.3-.82-1.42-1.32-3.06-1.5-4.72-.4-3.34.35-6.74 1.64-9.58.06-.08.14-.25.2-.4l.1-.27c.5-.82 1.08-1.56 1.74-2.18l.52-.4c-.03.1-.1.2-.07.3l-.14.01c.12-.05.14.4.2.45-.1.1-.1-.23-.17-.27.03.62 0 .3.1.94.17.3.12-.1.27.04a2.69 2.69 0 0 0 .2.43c.07.15.15.3.28.42v-.15c.53.25.7.38.92.67l.54.17c-.74 1.73-1.36 3.64-1.93 6.3l-.06.23c-.04.12-.04.23-.05.3l-.05.44-.1.83L213 68l.03 2.56c.2 1.62.36 3.35 1.52 5.77 1.02 2.34 2.7 4.54 4.5 6.22.5.32 1.08.88 1.74 1.4a11.72 11.72 0 0 0 1 .74l.5.32.6.33.7.5-5.3 17.27-2.3 5.96.17.22c.14.17 3.4 4.26 11.1 5.88 3.44.73 6.48 1.1 9.08 1.1a22.56 22.56 0 0 0 2.07-.09c1.28-.13 2.7-.37 3.4-1.45.5-.8.52-1.88.03-3.3-1.63-5-1.1-8.22-1.08-8.25l2.3-12.53a11.6 11.6 0 0 0 1.53.11c.76 0 1.47-.1 2.12-.3 2.27-.7 6.3-3 7.64-10.4.67-3.84 1.1-8.94 1.1-13 0-1.44-.1-3.28-.17-4.32.46.02.93 0 1.4-.08.15-.03.25-.06.45-.1s.36-.15.54-.23c.2-.07.33-.2.47-.32.15-.1.26-.27.37-.42.36-.43.23-1.02.05-1.54zm-46.2-5.9l-.36.3c-.15.13-.32.25-.44.4-.25.27-.47.5-.63.63l.04-.07c-1.3 1.75-2.56 3.66-2.98 5.7 0-.08-.05-.14.1-.6-.46 1.43-.7 3.46-.83 3.56-.2 1.78-.12 3.96.4 5.9.15.48.28.95.44 1.4l.54 1.24c.2.38.42.72.6 1.03l.48.75-.1-.12c.7 1.07.77 1.45 1.53 2.64.02.08.06.17.05.16.82 1.1 2.05 3.4 2.62 4.3l-.05.1a35.23 35.23 0 0 1 1.25 2.35c-.13-.3-.27-.6-.42-.9.4.2.77 1.86 1.56 3.58.55 1.66 1.47 3.4 1.33 5.32.13.9-.2-.8-.1.55-.14.04-.1-.62-.2-.28.02 1.3-.3 2.1-.55 3.66l-.12.04c-.22 1-.5 1.97-.94 2.75L215 99.7c-.2.34-.38.67-.52 1-.48.96-.8 1.17-1.08 1.43a5.29 5.29 0 0 0-.45.47c-.1.1-.18.24-.3.4-.12.15-.27.32-.45.54l-.7.5c-.67.65-.38.58-1.22 1.2 0-.06-.27.14-.48.3-.2.16-.4.22-.16.03-1.97 1.2-4.07 2.64-7.2 3-.3.17-.87.22-1.4.3s-1.05.14-1.3.2c-.04-.04-.83-.04-1.4-.04-.28.01-.5-.03-.54-.06s.1-.01.54-.07c.15-.02.42-.02.4.02l.2-.1c-1.75-.18-3.2-.1-4.94-.5.5.14 1.2.27.72.25-.53-.14-1.08-.2-1.6-.4l.35.02-2.3-.8c.1.08.18.15.28.22-1.1-.5-1.4-.84-2.7-1.27-.58-.2.94.67-.2.1-1.4-.82-3.42-2.17-4.9-3.54.06.22-.35-.14-.8-.5l.03-.12a10.51 10.51 0 0 1-.52-.4c-.12-.13-.2-.23-.27-.3-.13-.16-.17-.26-.2-.35-.08-.2-.15-.37-.9-1.12l.18.1a2.94 2.94 0 0 1-.52-.3c-.62-.73-.72-.98-.84-1.23-.14-.25-.22-.54-.83-1.42.4.74-.04.46-.46-.5l.22.2c-.28-.5-.33-.7-.45-1.05.16.3.2.12-.08-.67l.3.5c-.23-.47-.48-.95-.62-1.46a10.99 10.99 0 0 0-.16-1.01c-.07-.36-.06-.73-.1-1.08-.08-.7-.05-1.3.04-1.56l.03-.42a7.79 7.79 0 0 1 .09-.96l.14-1.07c.05-.33.1-.6.1-.76-.03.53.36-.86.38-.42 0-.35.22-.98.42-1.64.27-.62.55-1.27.82-1.57l-.07.13.57-.88.6-.76c.2-.24.4-.43.6-.64.2-.22.5-.48.74-.72 1-1 1.83-2.14 2.55-3.53-.14.1.5-1.4.2-1.1.83-3.02 1.1-5.53.63-6.6-.06-1.35.05-1.6.04-2.3l.05.32-.13-1.6-.04-1.13c.03-.68.06-1.3.23-2.15.16-.84-.1-1.08.6-2.5-.14.5.12-.1.4-.6-.15.34-.2.44.24-.18a2.53 2.53 0 0 1 .18-.4c.01 0 .03-.02.03-.01.55-.8.44-.68.14-.33 0-.03-.04-.01-.14.1a6.79 6.79 0 0 0 .58-.66l.65-.68c.44-.4.82-.7.92-.68a13.31 13.31 0 0 1 3.4-1.97c1.12-.4 2.35-.73 3.57-1.16.3-.01-.26.24-.98.5.6-.18 1.2-.37 1.78-.58.02.12-1 .4-1.55.58 2.2-.45 4.37-1.55 6.64-3 .14-.13.26-.28.38-.42l.13-.1c-.03-.03.38-.48.64-.77.33-.2.18.2 1.03-.84.78-.84 1.5-2.47 2.3-3.48-.45.52-.35.3-.2.06.4-.5.7-.68 1-1.05l.14.05c-.28.06 1.05-1.2 1.23-1.34.33-.13-.7.64-.74.82.9-.8 1.18-.94 1.42-1.1.26-.15.5-.36 1.6-.82 1.17-.54-.27-.05.27-.38 1.08-.4 2.22-.7 3.58-.68a6.96 6.96 0 0 0-.44-.1c1.1-.12 2-.12 2.82-.06.8.06 1.5.17 2.2.44 1 .22 1.84.6 2.5 1.08a8.08 8.08 0 0 1 1 .89c-.06-.01-.14 0-.3.07l-.05.18c-.38.37-.34-.14-.73.35.18-.1.18.18-.07.24v-.12c-.12.08-.14.14-.24.16.05-.1-.02-.16-.2-.05l.07-.18c-.1.1-.18.23-.26.35-.32.04-.66.4-.84.35 0 0-.6.3-.6.52.04-.16-.26.02-.25-.13-.06.2-.4.56-.62.6v-.03c-.63.38-.8.93-1.35 1.28.1.07-.18.26 0 .3-.33.58-1.04.66-.82 1.16-.17.24-.3.2-.42.3l.02-.07c-.3.46-.4.58-.67.9-.08.2.1.36-.17.62-.01-.15-.08-.02-.16.1.04-.08.03-.12-.13-.01.01.04 0 .08-.01.12-.01 0-.02 0-.02-.01-.1.2-.06.2.01.1.01.01.03.02.07 0-.24.12-.35.56-.5.5-.35.6-.43 1.13-.63 1.66-.1.03-.12-.14-.06-.3-.06.12-.1.26-.15.4-.1-.05.03-.25.07-.37-.28.27-.3.66-.4 1.05-.03.01-.06.01-.1.02-.46.1-.84.43-1.15.76-.06 0-.02-.03 0-.05zm2.58 2.5c0 .01-.01.01-.02.02-.02.01-.03.02-.06.02-.01.06-.07-.08-.1-.18-.07-.22-.15-.5-.13-.84.1-.6.28-1 .47-1.36a23.24 23.24 0 0 0 .66-1.4c.33-.58.67-1.23 1.04-1.8.03-.37.52-.72.65-1.12l.18-.05c.04-.14.1-.28.24-.35l.02.03c.06-.2.25-.34.3-.44l.02.03.15-.2.01.06c.17-.3.4-.6.65-.77l-.1-.07c.57-.37.57-.73 1.14-1l.01.03c.37-.75 1.06-.55 1.5-1.22-.06.08.07.04.08.07.28-.2.6-.4.5-.62.23-.1.22-.01.3.06-.05-.1.13-.24.32-.3l-.07.07.52-.22-.17-.16c.3-.04.15.22.4.1l-.05-.17c.42-.07.7.16 1.04.28.37.01.77.1.83.15l1.22.97c.17.1.38.27.46.4-.12.06-.26.12-.4.14l-.14-.06c-.1-.05-.04 0-.01.06.03.07.04.15-.04.1l-.1.2c-.07.01-.18.05-.13-.05-.15.1-.14.13-.2.26l-.23.02c-.64.37-1 .93-1.63 1.38-.87.4-2.06 1.7-2.68 2.52-.8 1.17-2.5 1.87-3.15 3.25-.05.02-.08.15-.06.17-.3.34-.54.72-.8 1.07 0 0-.25.32-.5.8-.2.33-.4.73-.56 1.12-.04-.04-.07-.06-.07-.06-.26-.25-.5-.45-.74-.6-.12-.08-.24-.16-.37-.23-.03-.04-.14-.1-.13-.1zM216 58.6c-.01.08 0 .15.02.2l-.44-.3c.15.03.3.07.42.1zm.47.23c-.03.07-.07.14-.1.2l-.16-.1c.06-.01.15-.05.26-.1zm23.3 44.15c-.03.14-.6 3.5 1.12 8.75.38 1.1.4 1.93.07 2.45-.45.7-1.6.88-2.64 1-2.9.25-6.55-.08-10.85-1-6.34-1.33-9.56-4.47-10.33-5.3l2.1-5.45 6.78-22.16c.57-.16 1.1-.4 1.6-.73.1.32.17.65.24.96.53 2.22 2.42 4.1 5.96 5.93 1.7.87 5.03 2.43 8.23 3.05l-2.3 12.5zm13.6-23.1c-.93 5.1-3.4 8.5-6.96 9.6-3.64 1.14-10.2-1.98-12.12-2.97-3.2-1.66-5-3.38-5.44-5.27a33.87 33.87 0 0 0-.45-1.72l-.22-.76-.6.52c-.87.76-1.9 1.17-3.03 1.17-2.65 0-4.8-2.33-4.8-5.2s2.15-5.2 4.8-5.2c1.42 0 2.77.68 3.68 1.87l.08.1.13.05c.1.04 2.54.98 4.57-.17 1.26-.72 2.06-2.06 2.38-4l1.8-10.14c1.67.58 6.67 2.3 9.23 2.84l7.84 1.73c.06.86.2 3.06.2 4.7a59.62 59.62 0 0 1-.06 2.62c-.1-.08-.2-.12-.34-.12-.3 0-1.2.01-2.2.4-.05.03-.1.07-.15.1a1.33 1.33 0 0 0-.26.21c-.01.01-.02.03-.04.04a1.4 1.4 0 0 0-.36.93c0 .77.63 1.4 1.4 1.4s1.4-.63 1.4-1.4a1.35 1.35 0 0 0-.2-.7c.15-.01.3-.01.4-.01a.52.52 0 0 0 .31-.1c-.14 3.22-.5 6.66-1 9.43zm3.72-19.05c-.23.2-.33.18-.76.34-.68.13-.95.02-1.2-.04-.25-.07-.5-.12-1.28-.1a7.8 7.8 0 0 1-.58-.22c-.66-.1-.5.12-1.22-.08.06-.08-.9-.25-.47-.25-1.62-.46-3.42-.54-5.5-1.42-.52.04-1.57-.4-1.96-.4-.03-.1-2.14-.76-.88-.5.1.02.3.1.27.1l.18-.05c-1.14-.6-2.22-.68-3.4-1.18.35.17.82.34.48.3l-1.12-.44h.27c-.57-.22-1.12-.47-1.88-.63l.28.17c-.53-.2-1.22-.24-1.8.02l-.08-.03-.01.07c-.43.23-.8.65-.92 1.36-.02.26.06.05.16-.12.06-.1.1-.2.1-.17.01.03-.07.2-.12.45-.4 1.26-.66 2.98-.86 4.46.14-.13.1.27.08.68l-.1.04c-.01 1.58-.3.55-.35 2.1l-.06-.14.18.43c.04 1.4-.3.76-.24 2.25.04-.3.12-.34.16-.22-.01.03-.01.07-.02.1-.02.15-.07.27-.1.4h-.01c-.01.07-.02.12-.03.17-.04.18-.08.38-.13.55 0-.17-.12-.08-.26.4v-.4a5.66 5.66 0 0 1-.21 1.01c-.18.25-.4.53-.63.77a2.81 2.81 0 0 1-.51.4c-.13.08-.27.13-.4.18h-.03s-.33.14-.76.18c-.28.04-.57.05-.8.06-.1 0-.17-.01-.25-.01-.02-.03-.1-.06-.2-.1l-.33-.12c-.1-.04-.1-.07.03-.07-.13-.01-.27-.02-.43-.04l-.26-.03c-.06-.02-.1.04-.16.1-1.1-1.36-2.7-2.14-4.38-2.14-3.2 0-5.8 2.78-5.8 6.2s2.6 6.2 5.8 6.2h.05l-.25.86c-.1.36-.2.76-.2.97 0 .1.03.24.1.4l-.13.43c-.07-.04-.15-.15-.2-.18h.06c-.13-.06-.24-.1-.34-.17-.03-.02-.37-.22-.54-.34-.4-.28-.77-.52-1.24-.93-.52-.35-.75-.24-1.55-1.04.34.17-.03-.1-.32-.42.2.2.28.22-.06-.22a1.54 1.54 0 0 1-.26-.18c0-.01-.01-.03.01-.03-.5-.48-.45-.38-.23-.13-.02 0-.02.03.03.12-.44-.6-1.3-1.56-1.25-1.7-1.26-1.68-2.05-2.98-2.75-4.6 0-.2.23.15.45.6-.17-.38-.34-.76-.45-1.16.06-.01.12.15.2.37.08.2.18.46.26.63-.23-.7-.4-1.44-.7-2.18-.24-.75-.37-1.58-.43-2.44l-.1-.35v-.1c-.05.01-.13-.38-.15-.64.1-.25.24.01.2-.85.08-.67.1-1.94.1-2.82-.06.45-.1.3-.12.1.05-.36.24-.63.27-.96l.14-.01c-.18.13.16-1.14.15-1.3.16-.2-.1.68-.05.8.47-1.68.2-.85.77-2.5.23-.9-.2.1-.14-.35.27-.78.5-1.57 1-2.4l-.24.22.12-.27a10.53 10.53 0 0 0 1.03-.88l.02.05c.44-.54.67-.9.8-1.4.25.08.35-.45.5-.53v.02c.1-.46.66-.58.78-1 .01.03.05.08 0 .15.15-.26.38-.6.5-.52.43-.57 1.16-1.23 1.3-1.72l.01.05c.07-.3.22-.26.37-.52h.05c.1-.3.58-.6.7-.8l.08.06.4-.4-.17.13c-.13-.25.43-.16.62-.57.3-.22.24-.93.63-1.1.01-.02.01-.03.02-.04.01 0 .01-.01.02-.01.02.04.01.25.13.06.1.1-.05.15.08.2.18-.23.45-.18.66-.47l.08.08c.23-.44.76-.4.88-.74.32-.35.44.08.7-.38l.24.01c.18-.1-.01-.2.34-.38.04.08.47-.23.35-.04.62-.3 1.06-.73 1.6-1.1l1.82-.93c.16.08.6-.06 1.06-.22.47-.14.98-.33 1.24-.33l-.04.03c1.3-.5 2.8-.3 4.1-.45-.05.02-.08.1-.38.1.95-.05 2.3 0 2.35.15 1.12.06 2.43.36 3.6.8 1.18.42 2.2.95 2.9 1.22h-.1c.8.3.93.56 1.74 1.05.03.04.08.1.06.1.84.42 2.07 1.72 2.62 2.22l-.04.1c.44.43.84.9 1.24 1.36l-.43-.54c.37 0 .77 1.15 1.7 2.15.72 1.04 1.96 1.78 2.57 2.97.45.47-.47-.36.12.4-.1.1-.3-.32-.27-.06.55.75.68 1.36 1.3 2.3l-.08.1c.24.33.42.7.54 1 .02.25.1.46-.05.58zm-32.22 11.45c-1.6 0-2.9 1.35-2.9 3s1.3 3 2.9 3 2.9-1.35 2.9-3-1.3-3-2.9-3zm0 5c-1.05 0-1.9-.9-1.9-2s.85-2 1.9-2 1.9.9 1.9 2-.86 2-1.9 2zm14.7-9c.4-.4 1.2-1.8 3.9-1.6.4 0 .8-.3.8-.7s-.25-.74-.7-.8c-3.6-.3-5.18 2-5.3 2.2a.78.78 0 0 0 .2 1c.26.18.87.12 1.1-.1zM253 66.45c.36.22.8.1.97-.18.2-.3.18-.77-.1-1-1.32-1.07-2.46-.75-2.8-.7-.4.06-.68.5-.6.9.1.42.5.6.9.6.44 0 .95-.04 1.63.38zm-5.33 7.83c-.3.2-.3.6-.1.9s.7 1.2.5 1.8-.7.6-.9.6c-.3 0-.7.2-.7.6 0 .3.2.7.6.7h.2c.6 0 1.7-.3 2.1-1.5.4-1.4-.7-2.8-.8-3-.2-.3-.6-.3-.9-.1zm-3.5-3.4a.47.47 0 0 0-.5-.5c-.3 0-1.4-.02-2.38.46a1.04 1.04 0 0 0-.42.38 1.36 1.36 0 0 0-.3.86c0 .77.63 1.4 1.4 1.4s1.4-.63 1.4-1.4c0-.25-.07-.48-.18-.68.2-.02.37-.02.48-.02a.47.47 0 0 0 .5-.5zm-.23 11.97c-3.6-.2-4.35-3.17-4.4-3.3-.14-.42-.5-.6-.9-.5s-.6.5-.5.9c.4 1.5 2 4.2 5.8 4.4.4 0 .7-.3.7-.8 0-.3-.3-.7-.7-.7z"/></svg>