<svg xmlns="http://www.w3.org/2000/svg" viewBox="0 0 480 480" xmlns:v="https://vecta.io/nano"><path d="M393.13 244.9l.01.1-.01-.1z"/><path d="M256.55 69.86c-.5-5.8-1.42-11.16-4.12-15.46-2.4-3.9-5.5-8.3-9.6-8.9-1.8-.2-3.84 1.17-4.05 1.1-2-.8-5.65-2.8-9.35-1.5-4.4 1.5-9.8 5.7-15.1 16s-6.4 17.1-7.3 28.8l-2.2 26.7c-.2 2.7 1.9 5 4.6 5h7.9s.02-.06.05-.16l35.45-.64c2.2-.1 3.9-1.9 3.8-4-.4-11.3.34-42.03-.08-46.94zM219.63 51l-.1.15.02-.02c.03-.05.06-.1.1-.13z" fill="#fff"/><path d="M257.37 94.13l.08-6.86s.1-8.3-.12-13.5c-.1-2.58-.38-4.4-.56-3.94-.17.47-.33 3.1-.76 9.43l-.04-.17.03 8.7c-.26.4-.05 3.08-.14 3.96l-.02-.08c.18 2.3-.2 4.72-.04 6.93-.02-.1-.1-.13-.1-.64l-.08 3.93c.02 3.84-.04 9.2.24 11.68l-.04-.17c.17 1.4.06 1.82.18 3.4-.02.08-.03.17-.04.15.1.63-.18 1.6-.86 2.25a3.71 3.71 0 0 1-2.07 1l-.08-.1c-.94.05-2 .06-3 .1h1.14c-.4.28-2.3-.13-4.5.1-2.07 0-4.17.64-6.32.54-1.02.14.9-.22-.63-.1-.05-.14.7-.1.3-.2-1.5.1-2.47-.1-4.3.03l-.08-.1c-2.4.24-4.56-.06-6.16.16-2.5.14-1.68-.3-4.27-.03l-1-.13c-1.1 0-.8.2-2.02.15.07-.1-1.56-.05-.84-.15-1.26-.04-2.54.02-3.9.08l-.67.03-.04.15c-1.4.03-2.9.05-4.58-.07-.4.1-1.06.1-1.7.12l-.9.02c-.24 0-.42.02-.55.03-.04-.04-.8-.17-1.26-.46s-.7-.47.06-.1c.13.06.36.16.33.17l.22-.03c-.72-.37-1.3-.8-1.77-1.37-.46-.57-.78-1.3-.74-2.14-.06.5.1 1.14-.05.72-.04-.26-.06-.53-.04-.78 0-.25.05-.62.07-.92l.06.4.3-2.85-.14.38c.17-1.4.4-1.87.37-3.46-.03-.72-.26 1.3-.17-.17l.8-7.04c-.14.2-.1-.43-.06-1.1l.12-.07c.06-2.54.32-.9.4-3.43l-.12-.45c-.03-2.28.33-1.2.24-3.75-.06 1-.28.45-.13-.77l.08.32c.03-.68.01-.9.07-1.36.02.4.14.23.2-.77l.08.68-.04-1.9c.23-1.45.28-3.76.5-4.34l.18-1.64c.08-.87.18-1.82.14-2.18.02.63.27-1.06.33-.56-.01-.8.24-3.18.56-4.08l-.02.18c.77-3.4 1.16-5.87 2.38-8.78-.18.1.48-1.44.2-1.1 1.05-3.1 2.72-5.3 2.8-6.57.68-1.33.92-1.5 1.33-2.16l-.15.32c1.34-2.43 1.8-3.1 2.96-4.8.57-.85.46-1.14 1.67-2.54-.3.52.15-.08.6-.6-.28.34-.34.46.3-.17.06-.1.18-.28.3-.42.01 0 .04-.02.03 0 .77-.84.6-.72.23-.35.01-.03-.04-.01-.17.1.87-.82 2.4-2.27 2.62-2.23 1.32-1.07 2.54-1.87 3.78-2.48.6-.32 1.25-.57 1.87-.77a7.59 7.59 0 0 1 1.99-.27c.3.1-.34.1-1.1.24.63-.1 1.28-.1 1.92-.03-.03.1-1.1-.03-1.7.06a13.36 13.36 0 0 1 3.53.41 14.44 14.44 0 0 1 1.87.6c.32.13.63.26.95.4.17.08.35.16.53.24s.37.14.56.16l-.01.05c.03.01 3.35.68 7.6 8.08-1.3.63-4.8 2.68-9.07 7.98-2.53 3.15-4.25 5.48-5.75 7.8-.25.38-.54.6-.9.66-.72.13-1.5-.37-1.7-.5-1.1-1.4-2.7-2.2-4.43-2.2-3.2 0-5.8 2.78-5.8 6.2s2.6 6.2 5.8 6.2c.12 0 .24-.02.36-.03l-6.63 21.65-2.3 5.96.17.22c.14.17 3.4 4.26 11.1 5.88 3.44.73 6.48 1.1 9.08 1.1a22.56 22.56 0 0 0 2.07-.09c1.28-.13 2.7-.37 3.4-1.45.5-.8.52-1.88.03-3.3-1.63-5-1.1-8.22-1.08-8.25l2.3-12.53a11.6 11.6 0 0 0 1.53.11c.76 0 1.47-.1 2.12-.3 2.27-.7 6.3-3 7.64-10.4.67-3.84 1.1-8.94 1.1-13 0-2.26-1.18-4.74-2.18-6.42-1.96-3.32-5.13-5.1-5.8-5.47-3.2-5.67-5.98-7.76-7.44-8.5a4.59 4.59 0 0 1 .77-.4c.2-.02.2.04.33.05.12.02.35-.05.96-.13.26 0 .5-.01.8.05.32.06.68.13 1.05.25a8.43 8.43 0 0 1 2.07.99c-.62-.44-.4-.35-.1-.2.56.4.8.73 1.22 1.05l-.04.15c-.1-.3 1.38 1.17 1.57 1.36.2.36-.78-.76-.97-.82.96 1 1.16 1.3 1.38 1.57.22.28.45.54 1.26 1.7.93 1.2-.04-.3.46.23.76 1.1 1.58 2.16 2.2 3.55l-.12-.5c1.25 2.2 1.68 3.68 2 5.35.72 2.24 1.08 4.06 1.38 5.43l.62 2.97c.3 1.25.42 1.14.47.45.05-.7.01-2-.1-3.1-.1-1.12-.22-2.07-.22-2.07-.48-3.78-1.33-6.68-2.86-9.47-.8-1.4-1.66-2.65-2.7-4.1-1.07-1.4-2.3-3-4.18-4.47-.82-.65-1.66-1.18-2.52-1.53-.43-.16-.84-.33-1.28-.4-.22-.04-.4-.1-.66-.13a4.18 4.18 0 0 0-.7-.02c-.88.05-1.62.27-2.28.52-.33.12-.65.26-.94.38-.1.04-.07.03-.08.03h-.02c-.01 0-.03-.01-.04-.02-.02-.01.03.01-.06-.03l-.2-.1-.43-.2-.9-.4c-.63-.26-1.3-.52-2.06-.73-1.5-.4-3.43-.73-5.7-.04-4.07 1.24-7.4 4.24-9.9 7.2-1.08 1.5-3.1 4.05-4.04 6l-.5.67c-.33.67-.72 1.44-1.12 2.08v-.06l-1.25 2.6-.01-.05-.56 1.22.06-.23-2.15 5.25.17-.1c-1.4 3.5-1.48 4.9-2.36 8.17l-.02-.05c-.47 4.25-1.27 6.64-1.35 11.02.01-.55-.1.23-.1.18-.12 2-.28 4.13-.03 4.18-.12 1.45-.18 1.18-.3 1.36.1 0 .05 1.27-.03 2.4v-.53l-.23 3.25.26-.62c-.2 1.72-.3.42-.37 2.07l.17-.01c-.23 2.38-.6 3.76-.92 6.05l-.53 6.54-.23 3.3c-.02.3-.04.53-.05.85-.02.33.01.65.05.98a5.55 5.55 0 0 0 .6 1.83 5.31 5.31 0 0 0 2.82 2.48c.6.22 1.23.35 1.86.35h1.64l6.35.03.53.01.06-.16 2.12.02.4.12c.18.2 2.46-.32 2.8-.16l1.04-.1c.3.03.9.05.4.1.96-.01 1-.04 1.68-.1l1.04.1c3.8.02 7.03-.26 11.03-.3 2.4.08 5.87.02 9.38-.1l5.2-.2c2.02-.16 3.56-1.6 4.06-3.06.18-.5.26-1.07.24-1.6l-.05-1.42c-.04-.94-.04-1.9-.04-2.87 0-1.94.05-3.92.1-5.9.1-3.98.25-7.98.1-11.72.06-.22 0-.85-.02-.85zM239.73 103c-.03.14-.6 3.5 1.12 8.75.38 1.1.4 1.93.07 2.45-.45.7-1.6.88-2.64 1-2.9.25-6.55-.08-10.85-1-6.34-1.33-9.56-4.47-10.33-5.3l2.1-5.45 6.78-22.16c.57-.16 1.1-.4 1.6-.73.1.32.17.65.24.96.53 2.22 2.42 4.1 5.96 5.93 1.7.87 5.03 2.43 8.23 3.05l-2.3 12.5zm12.66-41.82c.93 1.57 2.04 3.87 2.04 5.9a59.62 59.62 0 0 1-.06 2.62c-.1-.08-.2-.12-.34-.12-.3 0-1.2.01-2.2.4-.05.03-.1.07-.15.1a1.33 1.33 0 0 0-.26.21c-.01.01-.02.03-.04.04a1.4 1.4 0 0 0-.36.93c0 .77.63 1.4 1.4 1.4s1.4-.63 1.4-1.4c0-.25-.07-.48-.2-.7.15-.01.3-.01.4-.01a.52.52 0 0 0 .31-.1c-.16 3.2-.52 6.64-1 9.4-.93 5.1-3.4 8.5-6.96 9.6-3.64 1.14-10.2-1.98-12.12-2.97-3.2-1.65-5-3.38-5.44-5.27a33.87 33.87 0 0 0-.45-1.72l-.22-.76-.6.52c-.87.76-1.9 1.17-3.03 1.17-2.65 0-4.8-2.33-4.8-5.2s2.15-5.2 4.8-5.2c1.42 0 2.77.68 3.68 1.87l.1.1c.05.04 1.26.95 2.5.73.64-.1 1.17-.48 1.58-1.1 1.48-2.3 3.18-4.6 5.7-7.72 4.47-5.56 8.1-7.43 8.98-7.82.76.44 3.6 2.13 5.33 5.07z"/><path d="M207.4 98.58h0l.06.23zm17.42-26.3c-1.6 0-2.9 1.35-2.9 3s1.3 3 2.9 3 2.9-1.35 2.9-3-1.3-3-2.9-3zm0 5c-1.05 0-1.9-.9-1.9-2s.85-2 1.9-2 1.9.9 1.9 2-.85 2-1.9 2zm14.7-9c.4-.4 1.2-1.8 3.9-1.6.4 0 .8-.3.8-.7s-.25-.74-.7-.8c-3.6-.3-5.18 2-5.3 2.2a.78.78 0 0 0 .2 1c.26.18.88.12 1.1-.1zm11.8-2.2c.44 0 .96-.05 1.63.38.36.22.8.1.97-.18.2-.3.18-.77-.1-1-1.32-1.07-2.46-.75-2.8-.7-.4.06-.68.5-.6.9.1.4.5.6.9.6zm-4.2 11.5c-.3 0-.7.2-.7.6 0 .3.2.7.6.7h.2c.6 0 1.7-.3 2.1-1.5.4-1.4-.7-2.8-.8-3-.2-.3-.6-.3-.9-.1s-.3.6-.1.9.7 1.2.5 1.8-.7.6-.9.6zm-3-6.7a.47.47 0 0 0-.5-.5c-.3 0-1.4-.02-2.38.46a1.04 1.04 0 0 0-.42.38 1.36 1.36 0 0 0-.3.86c0 .77.63 1.4 1.4 1.4s1.4-.63 1.4-1.4c0-.25-.07-.48-.18-.68.2-.02.37-.02.48-.02a.47.47 0 0 0 .5-.5zm-.22 11.97c-3.6-.2-4.35-3.17-4.4-3.3-.14-.42-.5-.6-.9-.5s-.6.5-.5.9c.4 1.5 2 4.2 5.8 4.4.4 0 .7-.3.7-.8 0-.3-.3-.7-.7-.7z"/></svg>