<svg xmlns="http://www.w3.org/2000/svg" viewBox="0 0 480 480" xmlns:v="https://vecta.io/nano"><path d="M393.13 244.9l.01.1-.01-.1z"/><path d="M252.88 58.92c1 1 2.1 3.3 2.1 3.3s1.14-1.16.44-3.86c-1-4.1-4.08-7.95-9.94-9.72-3.23-1.15-7.2-2.3-12.68-.68 2.2-.78 3.66-1.05 3.66-1.05s-.8-1.07-1.43-1.85l.05-.03s1.25-2.72-.05-4.02c-1.8-1.8-3.95.42-3.95.42s1.87-3.1-.53-5.2c-2.3-2-5.37.6-5.37.6s.1-3.4-3.6-3.7c-3.7-.2-3.8 3.8-3.8 3.8s-2.1-3.7-5.4-1.5c-3.6 2.4-.7 5.8-.7 5.8s-3.8-1.8-5.6 1.4c-1.9 3.4 2.1 5.3 2.1 5.3s-3.85 1.27-2.65 4.97 5.35 1.63 5.35 1.63-1.95 2.33-.25 3.93c1.23 1.23 2.9.76 3.45.55l1.48 1.9a31.78 31.78 0 0 1 2.94-3.71c-3.82 4.52-4.84 9.65-3.6 16.17 1.72 9.06 8.58 11.68 9.2 11.9l-5.5 18-2.2 5.7s3.2 4.1 10.8 5.7c5.2 1.1 8.7 1.2 11 1 1.9-.2 4.2-.6 3-4.1-1.7-5.2-1.1-8.5-1.1-8.5l2.4-13c1.46.24 2.82.25 3.9-.1 3.2-1 6.2-4 7.3-10 .7-4 1.1-9.1 1.1-12.9 0-2.13-.22-5.1-.22-5.1s-.56-2.6-4.24-3.38a9.72 9.72 0 0 0-.37-.06c1.56 0 2.6.07 2.9.4zm-9.37-.34l-3 .1-1.62.05c1.4-.16 3-.16 4.62-.16zm-15.75 21.1c.01.02.01.04.01.05l-.05-.03c.02 0 .03-.01.04-.02zm-13.9-10.1c-.02.01-.04.1-.04.36l.04-.36zm-8.95-16.6l-.02-.3c-.03.01-.03.1.02.3z" fill="#fff"/><path d="M231.65 43.37h0l.04-.1zm13.45 3.98h0l.15-.03z"/><path d="M255.26 63.2l.33-.4c.42-.52.74-1.14.94-2.06l-.13-1.65c-.04-.3-.13-.6-.18-.86-.06-.2-.1-.3-.17-.4.1-.1-.74-2.22-.13-1.04.05.1.1.3.08.3l.15.12c-.23-1.36-1-2.24-1.7-3.35.2.34.45.8.22.53-.2-.35-.44-.7-.67-1.02l.22.15a14.35 14.35 0 0 0-1.12-1.45l.1.26c-.56-.7-.67-1.06-1.55-1.6-.4-.22.55.66-.2.08a14.26 14.26 0 0 0-3.73-2.44c.08.17-.3.01-.7-.12l-.01-.12c-1.5-.37-.5-.42-1.94-.8l-.3.06c-1.4-.2-.65-.46-2.24-.57.6.13.22.3-.5.08l.2-.06c-.4-.08-.56-.05-.83-.13.26-.01.16-.13-.46-.22l.43-.05c-.4-.02-.8 0-1.2.02-.44-.13-1.04-.14-1.56-.17-.52 0-.98 0-1.17-.07l-.33.01a3.24 3.24 0 0 1-.24-.31l.2.3H237l-.5-.67.2.12-.7-1v.15a1.64 1.64 0 0 1-.14-.32c.02-.03.03-.06.05-.1.17-.36.36-.86.3-1.45.05-.53-.13-1.13-.5-1.6-.38-.48-.84-.73-1.27-1.03-.53-.1.52-.01-.26-.22.02-.14.4.06.23-.13-.37-.12-.7-.2-1.03-.23-.43-.01-.5-.01-.68.07-.03.02-.07.03-.1.06l.04-.12-.6.44c.14-.24.3-.5.2-.57l.02-.15a.74.74 0 0 1 .19-.36c.03.02.05-.16.06-.3 0-.17-.03-.4-.12-.7.01-.2.04-.4.01-.6-.2-.62-.3-.36-.6-1 .1-.02-.47-.75-.15-.48-.44-.64-1.2-1.17-2.1-1.37-.9-.22-1.84-.1-2.8.1a3.62 3.62 0 0 1-.61.37c-.13.08-.14.1-.2.16-.02.03-.05.06-.07.1 0-.06-.15.07-.2.05.01-.1.02-.16.07-.17.03-.04.05-.06.04-.01l.07-.17c0-.03-.01-.04 0-.07.02-.08 0-.06-.04-.07-.01 0-.03-.01-.05-.02l.03.02c.01.02.01.04-.01-.01l-.1-.18c-.13-.24-.27-.48-.44-.72.2.3.4.73.18.48-.17-.32-.38-.63-.63-.9l.23.1c-.35-.45-.8-.8-1.3-1.1l.15.22c-.67-.42-.92-.7-1.8-.7-.4.03.68.25-.1.17-.48-.12-1.14-.14-1.85-.04a3.92 3.92 0 0 0-1.96 1.05c.2-.01-.1.25-.3.58l-.12-.03-.32.6c-.03.03-.06.04-.1.03-.08.01-.12-.06-.1.05l-.05-.1a1.63 1.63 0 0 1 .13.32c.04.26.01.26-.02.2-.06-.15-.04-.2-.12-.1.07.07.1.43-.1.16.02-.03.04-.06.05-.1-.07-.05-.13-.03-.18-.1.04 0 .06-.04.06-.08 0-.02-.01-.04-.02-.06s-.02-.03-.15-.12c.15.06.2.05.23.01-.03 0-.02.03-.1-.01l-.24-.1c-.17-.06-.33-.14-.5-.18-.34-.23-.87-.43-1.37-.47-.5-.05-.92-.01-1.1-.04 0 0-.48.05-.93.25-.47.18-.9.5-1 .66.2-.3-.55.24-.4-.01-.33.3-1.17 1.38-1.48 1.9l.03-.1c-.4.66-.5 1.42-.44 2.05a3.98 3.98 0 0 0 .16.87l.08.14c.04.07.08.15.04.15l.2.16c.01.02-.01.02.16.15-.07.01-.25-.05-.4-.1l-.24-.08c.04-.01-.15-.02-.24-.02-.1 0-.22-.01-.33 0-.42.03-.76.17-.93.4-.75.28-.94.27-1.32.5l.15-.14c-.64.48-.96.88-1.2 1.25-.25.36-.42.7-.63 1.24-.1.58.02.7.02 1.7-.1-.33-.1.1.01.47-.07-.23-.13-.3-.06.2l.15.25c-.01.01 0 .03-.02.02.3.58.28.45.16.18.02.01.03-.02.01-.12.1.68 1.03 1.47.92 1.57.17.15.26.2.4.28a3.91 3.91 0 0 0 .41.2c-.13.07-.27.18-.43.3l-.27.26-.45.47c-.17.08-.01-.26.32-.56a3.98 3.98 0 0 0-.72.81c-.1-.08.34-.55.6-.77-.55.36-.98.97-1.2 1.68-.22.7-.24 1.46-.2 2.23.04.1.1.2.16.3l.01.1c.05-.02.18.3.28.48-.01.23-.25.07.08.76.06.15.15.3.27.5.13.17.3.33.5.5a3.42 3.42 0 0 0 1.27.6c-.4-.16-.25-.17-.07-.13.36.1.56.25.86.24l.02.14c-.07-.07.18-.08.46-.1.17-.01.22-.03.3-.05.07-.02.13-.03.15-.05.04.04-.04.08-.14.1l-.15.04c-.07.01-.15.02-.17.04.23 0 .23-.01.3-.02l.14-.02c.07-.01.1-.02.15-.03.08-.02.16-.03.47-.15.5-.28.12-.15.48-.4l.18-.08c-.14.2-.28.5-.47.9l-.05.1.13-.14.07-.07v.06c-.1.4-.15.9-.1 1.34.05.43.22.8.44 1.16.88.83 1.86.86 2.45.74.45-.1.77-.24 1-.38a2.12 2.12 0 0 1 .22.42l1.4 1.1c-.1.3-.1.48.07.48-.6 1.4-.88 2.67-1.1 4.05-.12.18-.1-.24-.02-.76l-.23 1.26c-.13-.03.07-.73.14-1.13-.55 1.47-.3 3.14-.44 4.9l.1.36-.01.1c.05-.01.12.4.17.64-.08.26-.24 0-.15.87-.02.35.05.84.17 1.34l.38 1.47c-.1-.48 0-.34.08-.14.1.42.06.7.18 1l-.12.08c.05-.1.13.17.25.48l.3.72c-.02.27-.3-.62-.4-.7.6 1.67.23.86.95 2.48.47.82.05-.2.34.15l1.33 2.2-.06-.32 2.2 2.7c2 1.56 3.46 2.03 4.26 2.2l-5.6 18.33-2.3 5.96.17.22c.14.17 3.4 4.26 11.1 5.88 3.44.73 6.48 1.1 9.08 1.1a22.56 22.56 0 0 0 2.07-.09c1.28-.13 2.7-.37 3.4-1.45.5-.8.52-1.88.03-3.3-1.63-5-1.1-8.22-1.08-8.25l2.3-12.53a11.6 11.6 0 0 0 1.53.11c.76 0 1.47-.1 2.12-.3 2.27-.7 6.3-3 7.64-10.4.67-3.85 1.1-8.94 1.1-13 0-1.2-.07-2.72-.14-3.8.07.06.1.05.15-.03zm-40.74-7.72l-.12-.07c.15.02-.18.48-.17.58-.15.03.1-.3.06-.38-.42.64-.22.3-.62.97-.13.4.15.01.15.24-.08.16-.14.33-.22.5a3.81 3.81 0 0 1-.34.61l.2-.12c-.04.16-.12.3-.12.42a3.84 3.84 0 0 1-.48 0c-.37-.02-.62-.1-.62-.1-.25-.1-.43-.2-.6-.36a2.2 2.2 0 0 1-.38-.45c-.05-.13-.1-.25-.1-.42-.05.01.1-.82.6-1.56-.53-.63-.66-.8-.7-.92-.12-.1-.28-.15-.84-.7-.3.1-.6.22-.9.3-.24.04-.55.1-.74.12-.24.01-.5.01-.72-.04-.6-.17-.9-.5-1.1-.92a3.47 3.47 0 0 1-.33-1.31c-.04-.43.03-.8.2-1.2.1-.2.2-.4.4-.6l.3-.3.1-.08c.04-.03.17-.1.25-.17.2-.12.34-.26.6-.36.78-.34 1.88-.73 2.72-1.07l-2.3-1.17c-.3-.2-.7-.4-.9-.58l-.32-.27-.14-.15c-.38-.4-.6-.82-.68-1.23-.13-.24-.1-.64.04-1.05a8.59 8.59 0 0 1 .61-1.14c.1-.04.17-.1.26-.12.14-.2.36-.38.6-.42V42c.3-.22.73-.23.92-.3l-.01.03c.08-.02.16-.01.24-.01h.25l.14.02-.23.02c.3.02.5.05.75.08.23.01.5.13.75.2.48-.53.7-.62.85-.67 0-.03.01-.07.02-.12l-.05-.01c0-.2.14-.5.34-.9l-.36-.58c-.07-.17-.13-.34-.2-.5-.03-.07-.08-.18-.1-.22l-.03-.1-.05-.23c-.03-.3-.03-.64.15-1l.03.02c.07-.7.6-1.18 1.17-1.5.58-.3 1.12-.52 1.82-.65-.18.03.07.07.05.1.64.01 1.3.46 1.47.3.4.3.5.56.58.66.06.12.04.16.08.3.01-.07.2.13.42.42.24.32.56.77.83 1.2l-.24-.3.5.78a40.49 40.49 0 0 1 .16-2.11c-.08.08-.16.15-.23.17.24-1.2.2-.06.44-1.36l-.15-.1.2-.46.2-.25c.14-.14.27-.28.43-.36.3-.2.6-.3 1-.37.68-.25 1.63-.2 2.4.1.38.15.7.36.97.66a2.34 2.34 0 0 1 .35.5l.07.14.03.07.02.04c.01.03.03.08.04.1.05.22.13.42.15.66.4.28.6.47.7.64.17.02.48-.01.92.08.3-.2.62-.42.9-.54.17-.08.34-.16.52-.22a3.5 3.5 0 0 1 1.03-.21c.66-.01 1.25.2 1.65.68l.01.2c-.05.1.17.17.34.32.2.12.35.3.3.4.08.1.13.2.2.3 0 .1 0 .33-.08.16.07.32.07.33.16.58l-.06.2-.02.05s-.01.1-.02.1a.68.68 0 0 1-.07.2l-.14.58c-.07.2-.18.43-.26.64.55.58.58.75.6.9.08-.03.18-.06.34-.04.16.01.38.06.76.24.35-.3.62-.4.93-.53a1.15 1.15 0 0 1 .2-.04l.1-.01c.06-.01.1.01.17.01a1.34 1.34 0 0 1 .5.21c.14.1.4.3.47.43.2.28.3.88.2 1.56-.01.07-.04.14-.05.2-.2-.1-.44-.2-.68-.22-.37-.07-.67-.07-.98-.06.07.12-.1.13-.3.18l-.04-.1c-.7.26-.3-.2-.98.04l-.1.18c-.55.35-.4-.16-.98.32.26-.1.2.2-.14.24l.05-.12c-.17.07-.22.13-.34.14.1-.1.01-.17-.24-.06l.13-.18-.42.35c-.4.01-.94.37-1.14.3 0 0-.8.25-.92.48.1-.16-.33-.01-.25-.17-.16.18-.7.55-.98.55l.04-.03c-.9.3-1.37.88-2.17 1.18.1.1-.32.25-.15.34-.67.57-1.53.56-1.52 1.15-.3.24-.45.17-.63.26l.06-.08-1.2.9c-.2.2-.1.42-.5.66.07-.17-.08-.04-.23.08.08-.08.1-.14-.14-.03a.33.33 0 0 1-.07.13c-.01 0-.02 0-.02-.01-.22.22-.16.2-.04.13 0 .02.02.02.07.01-.32.1-.68.56-.82.47-.68.63-1.06 1.2-1.57 1.77-.12 0-.04-.17.1-.35l-.37.4c-.08-.1.18-.27.28-.4-.6.32-.82 1.07-1.46 1.52l-.04.18-.04.02c.04.03-.03.2-.1.3-.15.02-.17-.16-.4.13-.28.16-.5.7-.7 1.04.14-.16.15-.07.12.03-.1.1-.25.13-.3.28zm.33 2.6c-.01 0-.01-.01-.02-.02l-.01-.02a.48.48 0 0 1 .05-.11l.25-.54c.18-.38.42-.78.73-1.24 1.25-1.48 1.77-1.7 3.14-3.15.7-.64 1.46-1.34 2.2-1.94.25-.4.98-.75 1.34-1.17l.23-.03c.12-.15.28-.3.46-.36l.01.03c.18-.23.47-.34.56-.45v.03l.27-.2-.03.07a4.38 4.38 0 0 1 1.17-.77l-.1-.1c.87-.35 1.05-.72 1.88-.96v.03c.8-.76 1.6-.5 2.48-1.18-.1.1.08.04.08.07.45-.2.95-.38.88-.63.35-.1.3-.01.38.07-.03-.1.26-.23.53-.32l-.1.08c.26-.1.52-.15.77-.22l-.2-.17c.43-.04.16.22.55.1l-.03-.17c.58-.07 1 .16 1.42.3.14.01.16.03.22.08l.16.17.25.28.25.3c.08.1.07.07.1.1.1.1.3.28.4.42-.01.01-.03.01-.05.02-.17-.03-.63 0-.43-.12-.24.1-.72.27-1.22.4-.3.1-.6.18-.86.24-.03-.01-.06 0-.1.02a2.61 2.61 0 0 1-.33.06l.1-.05c-2.16.56-3.46 1.5-5.25 2.27.12.05-.67.46-.52.52-.36.22-.72.45-1.07.7-.43.25-.85.47-1.2.7-.66.38-1.14.73-1.28 1.15-.7.57-.95.53-1.33.82l.15-.16-.7.6c-.72.5-1.44 1.02-1.92 1.72a.44.44 0 0 0-.13.2c-.43.42-.9.82-1.28 1.3 0 0-1.27 1.4-1.95 2.58l-.14-.24c-.24-.42-.48-.77-.72-1.1.01-.05.02.02-.03-.01zm8.2 25.53c-.5-.35-.9-.66-.9-.66a19.87 19.87 0 0 1-3.64-3.75c-.97-1.33-1.9-2.9-2.5-5.34-.13-.53-.2-1.04-.26-1.5s-.13-.9-.14-1.3l-.07-1.15.01-1.08c.06-1.4.1-2.85.67-5 .6-2.04 1.68-4.1 3.03-5.74.25-.45.73-.97 1.24-1.5l1.17-1.13c.15-.12.3-.26.45-.4l.32-.16c.28-.3.65-.65 1.03-.85v.04c.46-.44 1.05-.83 1.3-1.03v.04l.63-.44-.1.1c.86-.7 1.86-1.26 2.74-1.72l-.13-.07c1-.43 1.62-.8 2.26-1.1.6-.32 1.23-.56 2.13-.8l.04.01-.01.02c.22-.1.43-.2.63-.26.1-.01.17-.02.1.06.35-.05.67-.2 1.03-.37.06-.03.13-.05.2-.07a10.07 10.07 0 0 1 1.06-.16c.96-.1 1.9-.14 3.13-.28-.3.04.13.06.1.1 1.13 0 2.33.17 2.4-.06.83.16.66.2.74.32.02-.1.74 0 1.38.18l-.3-.04a31.36 31.36 0 0 1 1.83.52l-.3-.32c.95.38.17.32 1.12.6l.04-.17c1.34.46 1.98 1.02 3.06 1.75 2.18 1.23 4.14 3.02 5.3 5.3.58 1.03 1.05 2.7 1.02 2.92.02.27-.01.55-.12.77a.56.56 0 0 1-.1.15l-.06.06c-.02-.01-.03-.06-.05-.1l-.18-.4-.2-.44a1.23 1.23 0 0 1 .02-.2c.02-.06.01-.07-.01-.08-.01 0-.03-.01-.05-.01s-.05-.01-.15-.1c-.17-.14-.3-.28-.56-.47-.2-.16-.4-.23-.46-.3-.36-.1-.58-.1-.83-.1-.2-.06-.6-.13-.25-.14-.63-.06-.63-.02-1.07.02l-.63-.13c-2.3-.1-4.2.2-6.57.15-1.43-.1-3.5-.22-5.74.23-.56.12-1.13.28-1.7.58-.1.04-.18.1-.27.16a2.04 2.04 0 0 0-.82.69c-.13.15-.25.3-.34.46-.66 1.12-.64 2.18-.68 2.96 0 1.13-.02 2.22-.13 3.4-.1 1.16-.17 2.34-.4 3.43-.2 1.1-.64 2.03-1.28 2.37l-.26.12-.34.12c-.22.06-.44.12-.64.14-.07.01-.13-.01-.2-.01a6.35 6.35 0 0 1-1.2-.57c-.05-.04-.1-.07-.15-.1a7.39 7.39 0 0 1-.56-.4c-1.1-1.43-2.74-2.25-4.47-2.25-3.2 0-5.8 2.78-5.8 6.2s2.6 6.2 5.8 6.2c.08 0 .15-.01.23-.02l-.37 1.36L224 84l-.07.24-.9-.6zM239.6 103c-.03.14-.6 3.5 1.12 8.75.38 1.1.4 1.93.07 2.45-.45.7-1.6.88-2.64 1-2.9.25-6.55-.08-10.85-1-6.34-1.33-9.56-4.47-10.33-5.3l2.1-5.45 6.45-21.06.53-1.15a5.8 5.8 0 0 0 1.42-.68c.1.32.17.65.24.96.53 2.22 2.42 4.1 5.96 5.93 1.7.87 5.03 2.43 8.24 3.05l-2.3 12.5zm13.6-23.1c-.93 5.1-3.4 8.5-6.96 9.6-3.65 1.14-10.2-1.98-12.12-2.97-3.2-1.66-5-3.38-5.44-5.27a33.87 33.87 0 0 0-.45-1.72l-.22-.76-.6.52c-.85.75-1.93 1.17-3.03 1.17-2.65 0-4.8-2.33-4.8-5.2s2.15-5.2 4.8-5.2c1.42 0 2.77.68 3.75 1.94.1.1 2.68 2.32 4.8 1.38 1.53-.67 2.34-2.75 2.42-6.18.05-2.27.01-3.46-.02-4.25-.03-.9-.04-1.2.12-1.96.34-1.63.8-1.7 4.9-1.8h.15l3.08-.12c2.7-.12 5.53-.24 6.63 0 3.13.66 3.77 2.7 3.85 2.97.03.37.22 3.1.22 5.04a59.62 59.62 0 0 1-.06 2.62c-.1-.08-.2-.12-.34-.12-.3 0-1.2.01-2.2.4-.05.03-.1.07-.15.1a1.33 1.33 0 0 0-.26.21c-.01.01-.02.03-.04.04a1.4 1.4 0 0 0-.36.93c0 .77.63 1.4 1.4 1.4s1.4-.63 1.4-1.4a1.35 1.35 0 0 0-.2-.7c.15-.01.3-.01.4-.01a.52.52 0 0 0 .31-.1c-.16 3.2-.52 6.65-1 9.42zm-28.5-7.62c-1.6 0-2.9 1.35-2.9 3s1.3 3 2.9 3 2.9-1.35 2.9-3-1.3-3-2.9-3zm0 5c-1.05 0-1.9-.9-1.9-2s.85-2 1.9-2 1.9.9 1.9 2-.85 2-1.9 2zm14.7-9c.4-.4 1.2-1.8 3.9-1.6.4 0 .8-.3.8-.7s-.25-.74-.7-.8c-3.6-.3-5.18 2-5.3 2.2a.78.78 0 0 0 .2 1c.26.18.88.12 1.1-.1zm13.43-1.83c.36.22.8.1.97-.18.2-.3.18-.77-.1-1-1.32-1.07-2.46-.75-2.8-.7-.4.06-.68.5-.6.9.1.42.5.6.9.6.44 0 .96-.04 1.63.38zm-5.33 7.83c-.3.2-.3.6-.1.9s.7 1.2.5 1.8-.7.6-.9.6c-.3 0-.7.2-.7.6 0 .3.2.7.6.7h.2c.6 0 1.7-.3 2.1-1.5.4-1.4-.7-2.8-.8-3-.2-.3-.6-.3-.9-.1zm-3.5-3.4a.47.47 0 0 0-.5-.5c-.3 0-1.4-.02-2.38.46a1.04 1.04 0 0 0-.42.38 1.36 1.36 0 0 0-.3.86c0 .77.63 1.4 1.4 1.4s1.4-.63 1.4-1.4c0-.25-.07-.48-.18-.68.2-.02.37-.02.48-.02a.47.47 0 0 0 .5-.5zm-.22 11.97c-3.6-.2-4.35-3.17-4.4-3.3-.14-.42-.5-.6-.9-.5s-.6.5-.5.9c.4 1.5 2 4.2 5.8 4.4.4 0 .7-.3.7-.8 0-.3-.3-.7-.7-.7z"/></svg>