<svg xmlns="http://www.w3.org/2000/svg" viewBox="0 0 480 480" xmlns:v="https://vecta.io/nano"><path d="M393.13 244.9l.01.1-.01-.1z"/><path d="M258.95 60.05c-.9-.9-4.95-8.16-11.75-12.06-5.65-3.2-11.24-1.48-13.08-.76l-1.9-4.13-.46.2c.43-1 1.18-3.44.04-6.63-1.7-5-9.05-6.98-14.65-4.88-4.6 1.7-8.32 7.56-7.12 12.56.9 4.04 3.8 5.7 5.47 6.34l1.9 3.8.16.82s-5.72 5.27-4.5 15.65c1.33 11.32 10.5 14.78 10.5 14.78l1.85-4.9c.02 0 .03-.01.05-.02l-6.87 22.43-2.2 5.7s3.2 4.1 10.8 5.7c5.2 1.1 8.7 1.2 11 1 1.9-.2 4.2-.6 3-4.1-1.7-5.2-1.1-8.5-1.1-8.5l2.4-13c1.46.24 2.82.25 3.9-.1 3.2-1 6.2-4 7.3-10 .7-4 1.1-9.1 1.1-12.9 0-2-.2-5.72-.24-6.2 2.85-.04 4.8-.5 4.4-.83zm-46.12 3.3c-.02 0-.07.12-.16.46l.16-.46zM233.38 38l-.12-.17z" fill="#fff"/><path d="M224.7 72.28c-1.6 0-2.9 1.35-2.9 3s1.3 3 2.9 3 2.9-1.35 2.9-3-1.3-3-2.9-3zm0 5c-1.05 0-1.9-.9-1.9-2s.85-2 1.9-2 1.9.9 1.9 2-.85 2-1.9 2zm14.7-10.52c.4-.4 1.2-1.8 3.9-1.6.4 0 .8-.3.8-.7s-.25-.74-.7-.8c-3.6-.3-5.18 2-5.3 2.2a.78.78 0 0 0 .2 1c.26.18.88.12 1.1-.1zm11.8-2.2c.44 0 .96-.05 1.63.38.36.22.8.1.97-.18.2-.3.18-.77-.1-1-1.32-1.07-2.46-.75-2.8-.7-.4.06-.68.5-.6.9.1.42.5.6.9.6zm-3.53 9.72c-.3.2-.3.6-.1.9s.7 1.2.5 1.8-.7.6-.9.6c-.3 0-.7.2-.7.6 0 .3.2.7.6.7h.2c.6 0 1.7-.3 2.1-1.5.4-1.4-.7-2.8-.8-3-.2-.3-.6-.3-.9-.1zm-4.17-3.9c-.3 0-1.4-.02-2.38.46a1.04 1.04 0 0 0-.42.38 1.36 1.36 0 0 0-.3.86c0 .77.63 1.4 1.4 1.4s1.4-.63 1.4-1.4c0-.25-.07-.48-.18-.68.2-.02.37-.02.48-.02a.5.5 0 1 0 0-1zm.28 12.32c-3.6.1-4.6-2.78-4.67-2.92a.72.72 0 0 0-.94-.41c-.4.13-.55.55-.42.94.53 1.46 2.35 4 6.16 3.9.4-.03.67-.36.63-.86-.03-.3-.36-.68-.76-.64zm15.74-22.64c-.02-.1-.1-.24-.18-.37-.08-.14-.1-.26-.24-.4l-1.26-1.87c-.33-.5-.66-.95-1-1.3-1.32-1.54-.57-1.3-2.12-2.76l-.44-.7c-.62-.67-.57-.36-1.24-1.1.1-.02-.87-.94-.38-.6-.8-.84-1.72-1.57-2.77-2.28-1.05-.72-2.2-1.42-3.6-2.2-.36-.04-.9-.23-1.4-.4-.52-.14-1.03-.27-1.3-.27-.03-.05-.8-.2-1.35-.3-.55-.07-.87-.13.02-.13.15.01.42.06.4.1l.23-.07c-1.76-.5-3.27-.2-5-.04.52-.03 1.2-.1.76.02l-1.6.2.32-.15c-.8.1-1.6.28-2.4.5l.35.02-.72.16-.14-.26-.15-.23c-.1-.13-.2-.2-.33-.15-.12-.27-.03-.25.04-.33-.1.05-.25-.17-.35-.37l.08.08-.3-.6-.13.2c-.1-.34.2-.2.01-.47l-.15.08c-.12-.3-.17-.6-.24-.95l.06-.17a9.1 9.1 0 0 0 .27-.99c-.16.17-.04-.4-.01-.98l.12-.06.05-1.54c.04-.2.13-.43-.14-1.52l-.24-.35-.5-1.5c-.07-.3-.15-.66-.9-1.54.25.38.25.5.13.4-.06-.05-.15-.15-.26-.3a5.34 5.34 0 0 1-.44-.52l.26.15c-.4-.47-.57-.57-.84-.86.3.2.26.01-.43-.57.2.08.35.2.53.3-.44-.36-.96-.6-1.44-.88-1-.85-2.95-1.4-3.4-1.62 0 0-.65-.2-1.4-.32-.74-.12-1.57-.17-1.88-.1.55-.1-.94-.16-.52-.27l-3.57.5.15-.05c-1.5.28-2.8.87-3.85 1.63-1.06.75-1.96 1.6-2.9 2.63.17-.02-.76 1.1-.4.9-1.5 2.35-2.48 4.62-2.1 5.72l-.16 2.2-.05-.3c.12 1.24.4 1.98.6 2.65.26.66.5 1.25 1 2.02a3.63 3.63 0 0 0 .76.76l1.18 1.06c-.46-.26.05.16.54.5-.32-.2-.45-.25.18.25a3.7 3.7 0 0 1 .4.2c0 .01.03.03.01.03.9.47.76.33.35.12.03 0 0-.04-.1-.13.2.17.5.32.8.46l.63 1.3s.84 1.72 1.5 2.53l.08.28-.3.38-.46.62-.84 1.3c-.18.16-.04-.2.25-.7l-.76 1.24c-.1-.07.44-.9.74-1.34-1.35 1.62-1.93 3.8-2.7 6.05v.5l-.05.14c.06.01-.01.54-.05.9-.15.32-.23-.07-.4 1.1-.12.46-.13 1.13-.16 1.84l.12 2.05c-.01-.66.07-.45.1-.17.05.58-.03.93.05 1.38l-.13.07c.06-.12.1.26.2.7l.24 1.02c-.05.35-.24-.9-.34-1.03.42 2.34.13 1.2.76 3.48.47 1.18.05-.26.34.3l.64 1.54.75 1.62-.07-.42a40.17 40.17 0 0 0 2.62 3.89c1.4 1.35 2.65 2.16 3.64 2.7.94.5 1.64.76 2.12.9-.1.5-.04.65.25.24l-5.4 17.64-2.3 5.96.17.22c.14.17 3.4 4.26 11.1 5.88 3.44.73 6.48 1.1 9.08 1.1a22.56 22.56 0 0 0 2.07-.09c1.28-.13 2.7-.37 3.4-1.45.5-.8.52-1.88.03-3.3-1.63-5-1.1-8.22-1.08-8.25l2.3-12.53a11.6 11.6 0 0 0 1.53.11c.76 0 1.47-.1 2.12-.3 2.27-.7 6.3-3 7.64-10.4l.3-2c1.6-.9 2.72-3.2 2.72-5.92 0-2.26-.76-4.2-1.92-5.33-.01-1.77-.16-4.6-.22-5.6a4.64 4.64 0 0 0 .4-.03c.05.14-.58.1-.25.2.6-.06 1.12-.06 1.66-.1l.42-.03c.2-.02.4-.05.63-.1.43-.07.9-.2 1.23-.45l.16.02a.99.99 0 0 0 .25-.32c.1-.12 0-.2-.02-.3zm-43.86-10.5c-.14-.06-.3-.1-.42-.17a6.85 6.85 0 0 1-1.5-.92c-.55-.3-1.2-.94-1.67-1.7-.48-.77-.82-1.65-1.08-2.4-.03-.2-.02-.4-.02-.6-.08-.25-.15-.53-.16-.8-.03-.28-.04-.57.01-.83l.03.03c-.08-.8.18-1.67.23-2.06l.02.04c.06-.32.18-.62.28-.93l-.01.17a9.27 9.27 0 0 1 1.98-3.61h-.17c.93-1.03 1.65-1.64 2.38-2.17.74-.53 1.47-.97 2.7-1.23l-.02.04c1.47-.6 2.78-.65 4.04-.56 1.27.1 2.5.35 4.1.76-.4-.1.14.12.1.14 1.43.47 2.62 1.48 2.8 1.32.8.74.56.67.6.84.04-.04.2.1.45.36.2.26.47.62.64 1-.06-.1-.12-.22-.2-.32.37.68.67 1.46.84 2.27l.1-.52c.13.65.07.75.03.83-.05.1-.04.15.04.77l.17-.03a5.95 5.95 0 0 1-.22 2.1c-.1.3-.2.6-.32.9-.05.1-.1.23-.16.34a5.43 5.43 0 0 0-.35.16l-.37.2-1.33.7c-.88.47-1.76.9-2.65 1.14l-.13-.08c-.1-.16-.34.46-.48.33l-.16.17c-.07-.01-.2.01-.12-.07-.18.07-.17.1-.28.2l-.24-.02c-.74.23-1.25.7-2 1-1 .18-2.57 1.14-3.5 1.7-.62.43-1.4.66-2.2.9-.4.12-.78.23-1.16.38l-.6.27zm.98 2.03c.08-.12.05-.2.02-.23-.04-.05-.12-.12-.1-.15l.03.01c-.12-.07-.15-.15-.15-.2.18-.03.33 0 .34-.12.01.02.06.07.03.1.03-.03.08-.08.13-.1.12-.05.25-.1.3-.02.7-.36 1.72-.74 2.08-1.16l-.01.05c.2-.26.33-.17.58-.38.02.01.05.01.05.02.22-.27.82-.4 1.02-.56l.04.07.55-.28-.22.08c-.04-.28.5-.04.83-.38.4-.14.55-.86 1-.92.14-.2-.08.26.16.05.07.12-.1.14.02.2.25-.2.52-.07.82-.32l.06.1c.37-.38.9-.25 1.12-.56.42-.3.44.16.84-.26l.25.05c.22-.07.07-.23.33-.27.02.1.32-.06.22.08.58-.1.96-.66 1.74-.74.07-.23.46-.3.5-.46.05.06.7-.3.38.03-.03.03-.1.05-.1.02v.12c.47.01.66-.42 1.06-.56-.13.02-.28.1-.2-.02l.36-.15-.04.12.55-.2-.12-.07c.14-.03.26-.02.36-.02.13-.02.06.02.1-.08.02-.1-.1-.12-.02-.2a.34.34 0 0 1 .19.09v.17c.08-.12.1-.1.13-.07l-.08.08c.2.05-.26.02.06.4l.18.02c.4.33-.1.32.38.66-.1-.18.18-.2.24.06h-.12c.08.12.14.14.16.23-.1-.05-.16.02-.06.2l-.18-.07.34.27c.01.08.03.16.06.24.02.06.02.05.04.08.02.04.04.08-.04.1 0 0-.02.05.05.1 0 .02.02.04.06.07-.1-.07-.2-.06-.3-.14.12.07.07.2-.03.1.01-.01.01-.01.01-.02-.67.18-1.03.68-1.67.82.08.1-.26.2-.1.3-.54.43-1.25.23-1.25.8-.26.16-.38.05-.53.1l.05-.06c-.5.28-.65.36-1.04.53-.17.14-.1.36-.47.47.07-.14-.06-.05-.2.01.08-.05.1-.1-.1-.07-.01.04-.04.07-.07.1 0-.01-.01-.01-.01-.02-.2.13-.15.14-.05.1 0 .02.02.03.06.04-.27 0-.62.3-.7.17-.63.34-1.02.7-1.53 1.02-.1-.05 0-.17.14-.27l-.37.2c-.05-.1.2-.17.3-.24-.54.04-.85.62-1.46.7l-.07.14h-.04c.02.04-.07.16-.14.2-.12-.06-.1-.22-.36-.1-.25.01-.57.33-.82.5.15-.05.13.02.08.08-.13.07-.25.01-.33.1l-.07-.12c.1.1-.28.3-.3.37-.12-.06.17-.18.17-.26l-.78.4c-.24.23.1.1.03.27-.24.14-.44.35-.76.4l.14.07c-.43.3-.7.43-1.08.47-.27.23-.48.42-.67.6l-.9.42-.1-.2c.04-.33 0-.9-.16-1.8h.05c-.22-.72-.42-1.16-.84-1.54zM239.6 103c-.03.14-.6 3.5 1.12 8.75.38 1.1.4 1.93.07 2.45-.45.7-1.6.88-2.64 1-2.9.25-6.55-.08-10.85-1-6.34-1.33-9.56-4.47-10.33-5.3l2.1-5.45 6.8-22.17a5.91 5.91 0 0 0 1.6-.72c.1.32.17.65.24.96.53 2.22 2.42 4.1 5.96 5.93 1.7.87 5.03 2.43 8.24 3.05l-2.3 12.5zm13.6-23.1c-.93 5.1-3.4 8.5-6.96 9.6-3.65 1.14-10.2-1.98-12.12-2.97-3.2-1.66-5-3.38-5.44-5.27-.12-.55-.28-1.14-.45-1.72l-.22-.76-.6.52c-.85.75-1.93 1.17-3.03 1.17-2.65 0-4.8-2.33-4.8-5.2s2.15-5.2 4.8-5.2c1.42 0 2.77.68 3.68 1.87l.15.2h.25c.05 0 .4-.01.95-.08l7.8 1.3c0 .08-.01.16-.01.25 0 3.6 2.2 6.6 5 6.6 2.7 0 5-3 5-6.6a8.76 8.76 0 0 0-.07-1.03c.18-.17.46-.4.76-.4.3-.03.55.04.74.13.06 3.48 1.9 6.2 4.28 6.2.17 0 .34-.02.5-.05l-.24 1.45zm-15.7-22.1c1.88.68 7 2.47 9.9 2.7 2.95.24 5.7.62 6.68.77l.2 4.82a3.14 3.14 0 0 0-1.35-.31c-2.2 0-3.95 2.33-4.24 5.44-.2-.06-.45-.1-.77-.1a1.91 1.91 0 0 0-1 .31c-.7-2.55-2.58-4.42-4.7-4.42-2.38 0-4.45 2.33-4.9 5.35l-5.44-.94c1.36-.55 2.82-1.52 3.72-3.23 1.84-3.54 1.94-8.5 1.9-10.4zm8.72 15.8c0 3.1-1.8 5.6-4 5.6s-4-2.5-4-5.6 1.8-5.6 4-5.6 4 2.5 4 5.6zm8-3.9c-.1-.08-.2-.12-.34-.12-.3 0-1.2.01-2.2.4-.05.03-.1.07-.15.1a1.33 1.33 0 0 0-.26.21c-.01.01-.02.03-.04.04a1.4 1.4 0 0 0-.36.93c0 .77.63 1.4 1.4 1.4s1.4-.63 1.4-1.4a1.35 1.35 0 0 0-.2-.7c.15-.01.3-.01.4-.01a.52.52 0 0 0 .31-.1 85.84 85.84 0 0 1-.62 6.9 2.01 2.01 0 0 1-.65.1c-1.78 0-3.3-2.45-3.3-5.35s1.5-5.35 3.3-5.35c.48 0 .94.2 1.36.5 0 .76-.02 1.58-.06 2.4zm1.05-1.27c.58.97.94 2.28.94 3.7 0 1.86-.62 3.53-1.53 4.5a92.03 92.03 0 0 0 .6-8.2zm-.2-7.33v-.05c.23-.04.1 0 0 .05zm2.4-1.27c-.1.03-.2.05-.3.06l-.33.04-.46.04c-1.86.05-4.57.03-7.28-.4a56.84 56.84 0 0 1-7.46-1.7c-.7-.2-1.4-.42-2.1-.7a11.74 11.74 0 0 1-1.03-.43l-.24-.12c-.1-.06-.06-.03-.18-.1-.2-.13-.36-.26-.72-.37-.2-.04-.5-.1-.83.14l-.05.05-.07-.03.01.08c-.18.18-.25.37-.28.5-.1.3-.1.54-.1.76-.01.43 0 .86.02 1.24.02.78 0 1.55-.05 2.32-.23 3.06-1 6.2-2.88 7.98a1.92 1.92 0 0 0-.45.39c-.25.16-.53.26-.8.4-.3.12-.62.23-.94.34s-.63.2-.95.3l-.48.13c-.13.03-.35.1-.66.15l-.24.16c-1.1-1.26-2.62-1.97-4.24-1.97-3.2 0-5.8 2.78-5.8 6.2s2.6 6.2 5.8 6.2h.03c-.44 1.3-.82 2.45-1.02 3.22-.42-.28-.98-.64-1.45-.98-.67-.5-1.2-.95-1.2-.95-2.1-1.86-3.44-3.54-4.55-5.5-1.1-1.97-1.98-4.28-2.28-7.7-.15-3.02.26-4.9.8-6.72.6-1.78 1.27-3.65 3.08-6.04l.14-.17.2-.22c.18-.2.4-.4.6-.6.24-.05.43-.12.43-.12 1.5-.4 2.04-1.07 3.63-1.93 1.46-.63 1.94-.6 3.38-1.4.72-.32 1.45-.73 2.13-1.1.25-.32.9-.44 1.23-.76l.2.02c.1-.1.25-.22.4-.23v.03c.17-.17.4-.23.5-.32l.01.03.24-.13-.03.07a3.76 3.76 0 0 1 1-.54l-.08-.1c.74-.2.87-.55 1.56-.7l.01.03c.06-.06.08-.1.16-.15l.26-.16a4.66 4.66 0 0 1 .5-.25c.33-.14.68-.26 1.04-.4.25-.08.5-.17.75-.24.75-.2 1.52-.38 2.3-.47 1.55-.2 3.12-.18 4.63.13 3.03.58 5.65 2.37 7.75 4.37l.15.3c-.02.2 1.6 1.12 1.65 1.45l.63.53c.13.2.43.58.12.3.5.57.54.56.93.94l.43.7 2.82 3.7c.06.07.12.14.2.2.05.1-.1.12-.17.15z"/></svg>