<svg xmlns="http://www.w3.org/2000/svg" viewBox="0 0 480 480" xmlns:v="https://vecta.io/nano"><path d="M393.13 244.9l.01.1-.01-.1z"/><path d="M259.15 90.93c-.9-4.74-3.3-8.16-5.3-11.26.67-3.95 1.05-8.9 1.05-12.6 0-1.5-.1-3.44-.18-4.44h1.02c.5 0 .9-.5.9-1-.4-2.6-1.9-9.16-8.5-12.5-2.8-1.42-5.42-2.08-7.65-2.34-.38-.3-1.3-.8-3.35-.86-2.5-.08-6.7.03-10.18 3.24-1.84 1.04-4 2.76-5.82 5.56-2.5 3.9-4.6 4.3-8.5 6-2.7 1.2-5.2 5.7-4.7 10.9.5 5.6-1.5 7.4-5.8 9.8s-7.5 6-6 14.1 9.7 9.6 14.7 9.4c3.7-.14 5.66-.56 7.18-2.07.22-.06.5-.13.86-.2l-.2.6-2.2 5.7s3.2 4.1 10.8 5.7c5.2 1.1 8.7 1.2 11 1 1.9-.2 4.2-.6 3-4.1-1.23-3.75-1.26-6.5-1.18-7.75.01 0 .02.01.02.01 2.2 1 5.6 1.7 10.8.5 9.72-2.3 8.92-9.8 8.22-13.4z" fill="#fff"/><path d="M224.8 72.28c-1.6 0-2.9 1.35-2.9 3s1.3 3 2.9 3 2.9-1.35 2.9-3-1.3-3-2.9-3zm0 5c-1.05 0-1.9-.9-1.9-2s.85-2 1.9-2 1.9.9 1.9 2-.85 2-1.9 2zm14.7-9c.4-.4 1.2-1.8 3.9-1.6.4 0 .8-.3.8-.7s-.25-.74-.7-.8c-3.6-.3-5.18 2-5.3 2.2a.78.78 0 0 0 .2 1c.26.18.87.12 1.1-.1zm13.44-1.83c.36.22.8.1.97-.18.2-.3.18-.77-.1-1-1.32-1.07-2.46-.75-2.8-.7-.4.06-.68.5-.6.9.1.42.5.6.9.6.44 0 .95-.04 1.63.38zm-5.34 7.83c-.3.2-.3.6-.1.9s.7 1.2.5 1.8-.7.6-.9.6c-.3 0-.7.2-.7.6 0 .3.2.7.6.7h.2c.6 0 1.7-.3 2.1-1.5.4-1.4-.7-2.8-.8-3-.2-.3-.6-.3-.9-.1zm-3.5-3.4a.47.47 0 0 0-.5-.5c-.3 0-1.4-.02-2.38.46a1.04 1.04 0 0 0-.42.38 1.36 1.36 0 0 0-.3.86c0 .77.63 1.4 1.4 1.4s1.4-.63 1.4-1.4c0-.25-.07-.48-.18-.68.2-.02.37-.02.48-.02a.47.47 0 0 0 .5-.5zm-.22 11.97c-3.6-.2-4.35-3.17-4.4-3.3-.14-.42-.5-.6-.9-.5s-.6.5-.5.9c.4 1.5 2 4.2 5.8 4.4.4 0 .7-.3.7-.8 0-.3-.3-.7-.7-.7zm-5.3-37.9h0l.1-.06z"/><path d="M259.37 90.9c-.08.23-.01 1-.04 2.48-.03.74-.08 1.65-.3 2.7-.24 1.06-.66 2.27-1.5 3.43l.04-.15c-.92 1.42-2.1 2.23-3.18 2.85-1.1.64-2.2 1.03-3.34 1.46-.42-.1-2.9.57-3.74.52l.08-.03c-2.17.4-4.44-.17-6.36-.74.08.01.14-.03.58.1a12.81 12.81 0 0 1-.92-.33l2.3-12.54a11.6 11.6 0 0 0 1.53.11c.76 0 1.47-.1 2.12-.3 2.23-.7 6.13-2.93 7.55-9.98.53.82.97 1.56 1.38 2.36 2.63 3.8 3.4 6.36 3.85 7.54.43 1.2.53 1.07.52.4-.02-.35-.08-.85-.17-1.4-.12-.54-.24-1.15-.42-1.7-.16-.55-.33-1.04-.47-1.4l-.23-.58c-1.27-3.04-2.77-5.13-4.12-7.2.53-3.6.86-7.92.86-11.44 0-1.12-.06-2.48-.12-3.52h.06c.1-.01.34 0 .5-.02.35-.04.7-.2.96-.47-.27.27.17-.05.16-.02.52-.53.67-1.33.46-1.9-.1-.4-.22-.57-.34-.57-.13-.63-.04-.53.04-.63-.1.03-.28-.5-.42-1l.1.2c-.14-.46-.3-.92-.47-1.36l-.1.33c-.2-.73.17-.27-.12-.94l-.16.07c-.37-.98-.38-1.66-.8-2.62-1.04-1.9-2.64-3.6-4.46-4.84-1.84-1.25-3.8-2.05-5.62-2.83l-.13-.18c-.02-.2-1.12-.07-1.23-.25l-.47-.03c-.12-.06-.38-.17-.14-.15-.4-.1-.43-.08-.74-.08l-.43-.2a8.52 8.52 0 0 0-.97-.16c-.03-.03-.07-.06-.1-.1-.2-.15-.42-.26-.62-.36.03.15-.2.05-.45-.01l.01-.1c-.96-.1-.3-.35-1.22-.4l-.18.13c-.8.13-.42-.28-1.3-.03.34 0 .15.24-.26.2l.1-.1c-.23.02-.3.06-.45.04.14-.06.07-.15-.26-.14l.23-.13-.63.2c-.5-.1-1.27.1-1.48-.04 0 0-.27.01-.57.05s-.62.12-.73.22c.2-.13-.4-.08-.25-.22-.26.17-1.04.44-1.4.43l.06-.03c-1.24.24-1.94.86-2.98 1.3.1.07-.43.34-.22.4-.7.58-1.5.88-1.75 1.32-.67.38-.93.55-1.28.78-.35.2-.67.46-1 .7-1.3.98-2.5 2.18-3.56 4 .28-.48-.2.16-.2.1-.52.82-1.06 1.58-1.52 2.13-.45.55-.8.9-.72 1-1.06.82-.93.56-1.12.6.08.1-.9.73-1.93 1.16l.44-.24c-.94.44-1.93.84-2.9 1.28l.66-.06c-.8.3-.92.28-1.04.3-.1.02-.27-.02-1 .52l.12.13c-1.02.74-1.67 1.5-2.27 2.27-.6.78-1.1 1.63-1.53 2.76a13.85 13.85 0 0 0-.66 3.73c-.02.64 0 1.28.06 1.9.04.6.1 1.15.1 1.73 0 1.13-.13 2.24-.56 3.2-.4.97-1.14 1.78-2.02 2.5s-1.9 1.3-2.92 1.9c-1.06.6-2.1 1.3-3 2.15-.9.83-1.7 1.8-2.3 2.88-.6 1.07-.97 2.23-1.2 3.37l-.2.4c-.05.04-.1.22-.1.48a15.9 15.9 0 0 0 .03.92c.03.67.15 1.34.06 1.52.04.36.1.7.17 1.05-.01.3.03.93-.08.4.13.97.17 1 .34 1.67l.15 1.08c.5 1.95 1.5 3.64 2.87 4.95 1.37 1.32 3.06 2.27 5 2.95 1.15.47 2.62.85 4.25 1.03 1.64.2 3.42.14 5.17-.03.9-.1 1.8-.23 2.7-.48.83-.24 1.65-.63 2.34-1.16l-1.93 5 .17.22c.14.17 3.4 4.26 11.1 5.88 3.44.73 6.48 1.1 9.08 1.1a22.56 22.56 0 0 0 2.07-.09c1.28-.13 2.7-.37 3.4-1.45.5-.8.52-1.88.03-3.3-.9-2.76-1.14-4.98-1.17-6.42.2.08.4.16.6.22.98.3 1.97.45 2.94.5.25.06.9.03.9.01 2.36.1 4.66-.2 6.9-.84 0 0 .13-.04.36-.1.23-.07.58-.15 1-.33.82-.33 2-.8 3.14-1.7 1.16-.85 2.27-2.13 2.9-3.62.65-1.48.86-3.06.84-4.38-.03-2.68-.7-4.36-.78-3.9zm-13-1.4c-3.65 1.14-10.2-1.98-12.12-2.97-3.2-1.66-5-3.38-5.44-5.27a33.87 33.87 0 0 0-.45-1.72l-.22-.76-.6.52c-.85.75-1.93 1.17-3.03 1.17-2.65 0-4.8-2.33-4.8-5.2s2.15-5.2 4.8-5.2c.08 0 .15.01.22.01.05.02.1.03.13.05l.24-.01c.62.05.48.06 1.24.35.35.13.65.45.98.6.07.05.13.1.2.17.12.16.25.32.4.47.12.14.25.25.38.35v.03h.02a4.52 4.52 0 0 0 .43.32c.44.3.95.5 1.52.57a3.14 3.14 0 0 0 1.59-.23c.26-.08.42-.23.63-.35.2-.13.38-.26.5-.42l.43-.45.33-.47c.23-.32.4-.65.55-1 .1-.2.15-.28.28-.6l.16-.56.7-2.4c.57-1.57.98-2.54 1.38-3.54l.15-.38.1-.28.03-.01c.01-.01.01-.01.02-.1.01.04.02.05.03.06v.02l.01.02.01.01v.01l.06.14a1.84 1.84 0 0 0 1.1 1.16c.25.1.52.12.8.1h.52c.77-.2 2.12 0 3.02-.16l.35.1c.3-.05.68-.1 1-.03l-.02.03c.47-.08 1-.03 1.22-.07l-.02.03h.57l-.1.04c.8-.08 1.65-.1 2.4-.05l-.06-.13c1.58.14 2.16-.12 3.58.05l-.02.03c.9-.17 1.6-.1 2.33-.05.1.01.23.01.34.02.06 1.04.12 2.43.12 3.56a59.62 59.62 0 0 1-.06 2.62c-.1-.08-.2-.12-.34-.12-.3 0-1.2.01-2.2.4-.05.03-.1.07-.15.1a1.33 1.33 0 0 0-.26.21c-.01.01-.02.03-.04.04a1.4 1.4 0 0 0-.36.93c0 .77.63 1.4 1.4 1.4s1.4-.63 1.4-1.4c0-.25-.07-.48-.2-.7.15-.01.3-.01.4-.01a.52.52 0 0 0 .31-.1c-.16 3.2-.52 6.64-1 9.4-.93 5.12-3.4 8.53-6.95 9.64zm-3.8-41.63l.37.24c.44.14.37-.1.84.1-.05.08.6.27.28.26 1.04.46 2.28.57 3.54 1.45.38-.02.97.45 1.25.45 0 .07 1.23.85.45.52-.07-.03-.17-.1-.15-.12l-.14.03c.58.62 1.3.78 1.9 1.37-.15-.2-.42-.4-.2-.3.2.17.37.36.55.54l-.18-.05c.27.27.52.56.76.86l-.02-.2c.34.46.3.72.82 1.13.25.18-.2-.52.2-.06a20.53 20.53 0 0 1 1.27 2.57c.07-.14.2.1.32.33l-.1.07c.54.9-.06.43.4 1.34l-.1-.06.3.18c.48.82-.05.53.5 1.45-.13-.4.2-.25.26.26l-.13-.1c.08.27.15.35.17.54-.1-.15-.17-.05-.07.34l-.18-.24.17.36c.06.1.12.3.15.28-.03.1-.05.2-.12.28-.06.08-.18.08-.22.01 0 0-.02 0-.05-.01-.13 0-.3 0-.47-.01-.37 0-.8.02-.94.1.27-.1-.47-.14-.26-.26-.35.1-1.38.2-1.8.1l.08-.01c-1.52-.12-2.6.17-3.97.02.06.13-.66.06-.48.22-1.4.16-2.58-.33-3.1.17-.64.03-.76-.12-1.1-.14l.15-.03c-1.2.04-1.55.05-2.45.03-.45.05-.52.28-1.32.23.26-.1-.07-.08-.37-.08.1-.01.16-.02.15-.04-.01-.01-.03-.02-.08-.03a1.02 1.02 0 0 1-.15-.04c-.02.03-.06.05-.1.06v-.02c-.23 0-.2 0-.1.06-.01.01-.01.03.02.06-.14-.07-.27-.23-.3-.4-.03-.07-.05-.14-.08-.2-.03-.08-.05-.16-.08-.23-.04-.14-.06-.24-.04-.3-.66-1.55-1.2-2.6-1.64-3.5l-.47 1.6c-.1.03.01-.5.18-1.1l-.42 1.32c-.05-.2.23-.87.36-1.32-.3.57-.58 1.56-.83 2.43l-.4 1.3c-.1.3-.2.57-.34.85v.27l-.04.06c.05.01.02.3-.02.48-.15.13-.22-.1-.4.5-.25.43-.4 1.32-.55 1.94.13-.32.15-.2.13-.04-.1.3-.25.42-.3.66h-.14c.16-.07-.13.8-.1.93-.15.13.07-.48.02-.58l-.58 1.75c-.1.65.16-.07.18.27-.05.25-.18.47-.3.75-.1.27-.28.5-.5.74l.22-.1c-.52.9-1.13 1.34-1.8 1.34-.6.2-1.17.07-1.64-.12-.12-.07-.24-.15-.35-.23h-.06c-.05-.06-.1-.1-.14-.16-.23-.2-.43-.4-.58-.57-.01-.01-.02-.01-.03-.02 0-.14 0-.3-.01-.48-.03-.45-.07-.9-.03-1.13l.02.05c-.03-.14-.04-.34-.05-.42-.01-.1-.01-.2-.01-.28 0-.2.02-.38.04-.56.04-.38.1-.75.01-1.1.02.03.1.04.1.2-.03-.52-.07-1.22.07-1.26-.02-1.23.1-2.95-.08-3.75l.04.06c-.14-.46 0-.58-.04-1.1.02-.03.03-.06.04-.05-.13-.5.08-1.43.05-1.83l.1-.02.07-.97c-.03.1-.04.24-.06.36-.26-.16.25-.7.2-1.4.02-.1.03-.2.03-.3l.65-2.36c.1-.16.2-.33.26-.6l.1.03c.16-.76.78-1.15.9-1.65.38-.67.55-.2.9-.94l.3-.12c.25-.22.04-.3.36-.5.04.08.4-.25.3-.05.7-.42 1.22-1.2 2.3-1.48.1-.26.65-.34.78-.5.04.06 1.08-.25.5.06-.05.02-.14.05-.14.01l-.04.12c.63.05 1.08-.34 1.72-.4-.2-.01-.44.03-.28-.07l.6-.05-.1.1.9-.02-.13-.1c.44.03.6.2 1.08.05.22-.1-.42-.14.04-.2l3 .4-.22-.35a.51.51 0 0 0 .2.04zm-2.55-.4c.01.01.02.03.03.04h0l-.01-.01-.02-.03zm-3.66-.94zm-4.62.88v.03c1.14-.7 2-.26 3.27-.67-.16.05.08.06.06.1h.02c-.52.17-1.02.36-1.48.6-.72.37-1.38.8-2.03 1.2l-.2-.01c-.18-.1-.46.78-.66.73a3.37 3.37 0 0 0-.19.32c-.1.05-.27.18-.17.02-.23.24-.22.26-.33.5l-.32.2c-.9 1-1.28 2.1-1.82 3.35-.4.73-.75 1.9-.9 3.08-.15 1.2-.12 2.34-.13 3.2.1 2.4-.7 5.14-.38 7.58-.03.08.03.28.06.28L226.5 69c0-.01.01.04-.03.01-.05-.02-.13-.06-.23-.1-.05-.01-.1-.03-.17-.05l-.56-.12c-.87-.16-1.83-.17-2.55-.02.07-.43.1-.86.1-.86.3-2.36-.03-3.6.14-6.42.35-2.45.67-3.06 1.18-5.5.32-1.14.7-2.34 1.2-3.3.07-.55.76-1.22 1.06-1.8l.24-.1c.1-.2.24-.42.44-.53l.01.03c.18-.28.48-.5.57-.64l.01.03.3-.25-.03.08c.38-.43.87-.76 1.32-.98l-.1-.1c1.02-.4 1.3-.78 2.3-.96zm-14.43 55.35l-.12-.03c-.67.56-1.5.92-2.4 1.13a8.01 8.01 0 0 0 .99-.27c-.12.2-.63.33-1.38.42-.74.1-1.72.12-2.78.27-1.96.1-4.06.57-6.1-.01-1-.12.9.02-.56-.26-.01-.15.68.1.35-.12-1.4-.3-2.22-.77-3.77-1.53v-.13c-1-.5-1.83-1.2-2.42-1.95-.33-.34-.53-.76-.8-1.1-.24-.35-.4-.7-.64-1-.5-1.04-.55-1.44-.57-1.84-.02-.4-.12-.78-.4-2-.01-.32.02-.64.04-.96-.07-1.04-.24-.73-.2-1.9.08.07.16-1.43.2-.76.17-1.26.4-2.52.94-3.76.54-1.24 1.5-2.42 2.9-3.36.45-.63 1.98-1.4 2.46-1.8.06.01.87-.44 1.43-.8.56-.35.9-.56.07.1-.15.1-.42.3-.42.25l-.16.22c1.8-.9 3.22-2.25 4.18-4.22-.28.54-.62 1-.4.54.38-.6.64-1.28.83-1.95 0 .15-.01.3-.04.45.34-1 .46-2.05.5-3.05-.04.14-.07.27-.12.4.1-1.45.15-2.05-.03-3.44-.1-.66-.16 1.22-.2-.14.04-1.73.7-4.3 1.9-6.08-.2.1.08-.4.42-.87l.13.02c.65-.9.9-.93 1.06-1 .1-.04.2-.06.35-.15.08-.05.18-.12.32-.18a2.18 2.18 0 0 1 .22-.12c.1-.05.23-.1.36-.18l-.17.15.5-.46c1.97-1.08 1.2-.2 3.4-1.58-.92.47-.53.03.6-.55l-.23.25c.6-.38.78-.56 1.17-.82-.32.3-.07.3.73-.42l-.47.56a11.86 11.86 0 0 0 1.34-1.52c.55-.53 1.13-1.34 1.6-2.04.43-.65.84-1.2 1.08-1.36l.22-.27a15.9 15.9 0 0 0-.36 1.44c-.07.47-.13.92-.22 1.4-.1.1-.12-.15-.08-.43a7.91 7.91 0 0 0-.13.67c-.12-.03.02-.4.05-.6-.38.75-.2 1.68-.5 2.58l.06.2v.02c.05.01.08.23.07.37-.12.12-.24-.05-.3.42-.14.36-.1 1.05-.08 1.54.04-.26.1-.17.12-.05-.02.23-.13.36-.1.54l-.14.01c.14-.08.08.62.13.7-.12.12-.05-.37-.12-.43-.08.94-.04.47-.1 1.4.07.5.14-.08.24.16-.01.44.07.87-.04 1.37l.13-.15c.05.83.03 1.32-.1 1.87.17 1.15.34 1.9.5 2.38-.3.14-.42.3-.23.4.08.05.24.1.44.13 0 .01.01.02.01.02-2.16.9-3.7 3.13-3.7 5.76 0 3.42 2.6 6.2 5.8 6.2.12 0 .24-.02.36-.03l-6.33 20.7-.76.2c-.2.14-.4.38-.48.44zm23.62 11.42c-.45.7-1.6.88-2.64 1-2.9.25-6.55-.08-10.85-1-6.34-1.33-9.56-4.47-10.33-5.3l2.1-5.45 6.78-22.16c.57-.16 1.1-.4 1.6-.73.1.32.17.65.24.96.53 2.22 2.42 4.1 5.96 5.93 1.7.87 5.03 2.43 8.23 3.05l-2.3 12.5c-.03.14-.6 3.5 1.12 8.75.38 1.1.4 1.93.08 2.45z"/></svg>