<svg xmlns="http://www.w3.org/2000/svg" viewBox="0 0 480 480" xmlns:v="https://vecta.io/nano"><path d="M393.13 244.9l.01.1-.01-.1zM234.5 100.94l.6.05c-.01-.03-.16-.05-.6-.05zM212.2 62.1l.03.14c-.02-.1-.02-.13-.03-.14zm45.58 40.56h-.03c-.05 0-.1.01-.16.01l.2-.01z"/><g fill="#fff"><path d="M273.05 95.38c-.2-3.9-2.7-6.2-5.2-8.1-2.5-1.8-3.2-4.9-1.7-7.9s2.2-5.5-1-9.2-4.7-5.5-4.7-10.9-3.2-6.2-5-6.9-3-3.2-3.9-4.5c-1.3-2-3.9-3.5-7.4-2.3-2.7.9-5 0-6.7-1.5s-5.5-1.8-7.9-.8-3.2 3-4.2 4.4-3.4 2.9-6.4 3.4-5.7 2.2-7 4.7-.3 6.2-.2 8.4c.2 2.2-.3 4.2-4.2 5.9s-5.7 6.4-4.4 9.9 2 5.7.8 7.7-3.7 2.9-5.7 5.5c-1.3 1.8-2 7.7 3 8.4h17.92l-.52 1.7-2.2 5.7s3.2 4.1 10.8 5.7c5.2 1.1 8.7 1.2 11 1 1.9-.2 4.2-.6 3-4.1-1.7-5.2-1.1-8.5-1.1-8.5l.28-1.5h26.42c3.9 0 6.4-2.3 6.2-6.2z"/><path d="M252.68 61.6c-1.6-2.43-4.33-4.14-4.33-4.14s-4.8 2.3-10.6 6.4c-4.9 3.4-8.92 7.5-8.92 7.5l-.3.26c-.97-1.26-2.44-2.06-4.08-2.06-2.93 0-5.3 2.55-5.3 5.7s2.37 5.7 5.3 5.7c1.28 0 2.45-.5 3.36-1.3a32.63 32.63 0 0 1 .44 1.69c.5 2.1 2.4 3.9 5.7 5.6 3.9 2 9.3 4 12.5 3s6.2-4 7.3-10c.7-4 1.1-9.1 1.1-12.9 0-2.12-1.1-3.82-2.17-5.46z"/><ellipse cx="224.75" cy="75.28" rx="2.4" ry="2.5"/></g><path d="M262.35 68.53h0l-.2-.14z"/><path d="M273.88 94.15l-.1.18c-.26-2.08-1.1-3.37-1.9-4.42-.85-1.05-1.8-1.9-3.12-3.06l.06.01c-.5-.34-.85-.55-1.16-.85-.3-.3-.57-.6-.77-.95-.4-.67-.6-1.4-.62-2.14-.03-.74.1-1.48.36-2.25.23-.72.77-1.64 1.1-2.8-.17.58.15-.22.16-.17.37-1.05.5-2.32.35-3.24-.16-.93-.47-1.5-.6-1.45-.63-1.5-.5-1.22-.5-1.46-.08.05-.86-1.1-1.67-1.98l.4.4-2.16-2.53.24.63c-1.02-1.4-.1-.5-1.08-1.8l-.13.1c-.64-1-.93-1.9-1.1-2.78-.17-.9-.22-1.8-.22-2.93-.06-1.13.02-2.5-.3-3.86-.3-1.35-1.03-2.76-2.2-3.66-.58-.46-1.22-.8-1.85-1.05-.6-.26-1.3-.45-1.65-.67-.87-.5-1.6-1.52-2.26-2.53l-1.06-1.6a7.11 7.11 0 0 0-1.45-1.5c-1.1-.85-2.5-1.33-3.85-1.34-.68-.01-1.35.06-2 .2l-.92.26-.78.2c-1.05.18-2.1.04-3.02-.37-.1-.08-.2-.17-.27-.26-.03-.1-.55-.3-1.07-.56a6.87 6.87 0 0 1-.72-.45l-.54-.44c-.37-.2-.75-.36-1.14-.47-.3-.16-.96-.4-.4-.26-1.05-.3-1.1-.26-1.86-.3l-1.14-.2c-1.06-.04-2.1.1-3.1.4-1 .32-1.93.87-2.68 1.6s-1.3 1.58-1.8 2.4l-.75 1.14a5.1 5.1 0 0 1-.94.91c-.9.64-2.18 1.27-3.65 1.67l-1.14.25-1.36.3a11.92 11.92 0 0 0-2.66 1.14c-1.7 1-3.12 2.5-3.84 4.32-.65 1.87-.45 3.58-.3 4.93l.4 2.84c.1.96.14 1.86-.16 2.66s-.9 1.45-1.66 1.96c-.37.27-.8.5-1.23.7l-1.4.64c-2.03 1.02-3.58 2.88-4.32 5-.37 1.06-.55 2.18-.5 3.3l.1.83.18.8.27.77.27.67c.06.24.33.82.35.8.37 1.1.7 2.18.77 3.2a3.64 3.64 0 0 1-.85 2.71s-.27.36-.9.9l-2.72 2.24c-.55.5-1.1 1.06-1.6 1.72-.58.78-.8 1.62-.98 2.45-.3 1.66-.12 3.43.7 4.75.18.34.45.6.67.87.28.22.5.48.78.6.52.34 1.03.46 1.42.57.8.1 1.16.08.95-.07-.18-.2-1.1-.28-2.2-1.3-.54-.5-1-1.34-1.16-2.43-.15-1.07-.04-2.45.57-3.78l-.01.16c.07-.2.18-.37.26-.55.1-.14.17-.28.32-.44l.8-.86c.55-.53 1.1-.98 1.65-1.42 1.07-.87 2.2-1.7 2.95-3.02.24-.1.74-.94.86-1.95.13-1-.08-1.98-.14-2.46l.04.1-1.1-3.53c-.2-.6-.36-1.07-.43-1.6-.1-.5-.12-1.03-.14-1.55.01.08.1.13.1.6a6.58 6.58 0 0 1 .28-2.3c.2-.68.48-1.16.57-1.17a7.35 7.35 0 0 1 1.7-2.26l.58-.46.63-.4 1.47-.73c1.03-.54 2-1.23 2.66-2.1a4.58 4.58 0 0 0 .96-2.6c0 .07.02.13.01.2.04-.83-.02-1.34-.04-1.83-.02-.5-.07-1.03-.2-1.82.01-.1 0-.2.01-.2a14.57 14.57 0 0 1-.33-2.95c-.02-1.07.18-2.03.35-2.57l.1-.04c.32-.84.9-1.66 1.58-2.33-.26.25-.5.5-.73.8.01-.48 1.52-1.62 3.4-2.6.93-.4 1.84-.76 2.92-1.07 1.07-.35 2.08-.82 3.1-1.26.9-.62-.74.63.63-.22.12.1-.62.44-.2.34.7-.4 1.25-.76 1.82-1.22.58-.43 1.12-1.12 1.56-1.94h.13c.56-1.1 1.25-1.96 2.04-2.5.8-.55 1.6-.8 2.34-1.05 1.16-.27 1.6-.14 2-.08.4.1.83.1 2.04.27.3.12.57.26.83.42l.77.32c.2.07.28.12.83.6-.06.01.27.3.56.5.3.2.5.35.13.17 1.3.9 3.08 1.36 4.85 1.08a7.55 7.55 0 0 0 1.31-.31l1.1-.3c.74-.14 1.53-.16 2.3.08.36-.03.92.14 1.4.4.5.26.9.62 1.14.76.02.06.55.65.88 1.23.34.56.52.9-.1.07-.1-.14-.28-.4-.24-.4l-.22-.12 1.6 2.52c.56.7 1.18 1.42 2.1 2.05-.5-.37-.83-.73-.42-.42a4.85 4.85 0 0 0 .98.68c.4.2.7.3 1 .4l-.42-.06c.92.36 1.7.7 2.32 1.22-.05-.1-.14-.2-.2-.3.48.38.7.7.92 1.05a8.32 8.32 0 0 1 .7 1.34c.3.58-.23-1.18.22.07a7.14 7.14 0 0 1 .2 1.43c.03.54.01 1.08 0 1.77-.01 1.3.1 2.74.46 4.04.05-.28.23.42.53 1.1l-.07.12.86 1.74c.08.24.15.53 1.02 1.57l.4.28c.84.86 1 1.12 1.2 1.42s.45.6 1.27 1.47c-.6-.75-.04-.53.56.5l-.24-.2c.36.53.5.7.65 1.1-.23-.3-.18-.12.12.7-.1-.18-.22-.34-.33-.5.3.48.47 1 .58 1.54a6.92 6.92 0 0 1-.36 2.2c-.25.74-.56 1.4-.76 1.63l-.23.47c-.16.3-.34.75-.5 1.24-.3.97-.32 2.14-.2 2.55-.08-.37-.1-.05-.1.3s.04.73-.08.44c.12.48.43 1.43.96 2.26.52.85 1.24 1.56 1.65 1.94l-.17-.12 1.05.86.9.76c.57.5 1.08 1 1.53 1.52.88 1.04 1.52 2.24 1.66 3.7.15-.16.18 1.4.3 1 .15 1.55-.46 2.87-1.22 3.58-.75.75-1.56 1.05-2 1.45-1.37.4-1.66.15-2.4.16l.36-.03-5.87.04c-1.07.05-1.24.28-3.16.23.62-.1-.16-.08-.88-.08.46-.01.6-.05-.34-.1-.13.03-.34.05-.53.06-.01-.01-.05-.01-.03-.02-1.2.03-1 .06-.43.07-.03.01.02.03.2.06-1.24-.12-3.47.01-3.62-.15l-9.2.26c-.34-.08.36-.15 1.24-.2l-2.13.03c.02-.12 1.22-.07 1.88-.1-.98-.07-2-.05-3.03-.02l1.88-10.24a11.6 11.6 0 0 0 1.53.11c.76 0 1.47-.1 2.12-.3 2.27-.7 6.3-3 7.64-10.4.67-3.85 1.1-8.94 1.1-13 0-2.3-1.2-4.12-2.25-5.74h0c-1.63-2.5-4.37-4.2-4.48-4.3l-.23-.15-.25.12c-.05.02-4.9 2.37-10.67 6.44-4.5 3.12-8.3 6.88-8.9 7.45-1.1-1.18-2.56-1.84-4.13-1.84-3.2 0-5.8 2.78-5.8 6.2s2.6 6.2 5.8 6.2c.12 0 .24-.02.36-.03l-6.06 19.8c-.86.03-1.74.05-2.72 0l.5.12c-2.6.1-4.17.08-5.93-.04-19.46 1-4.1 1.37-4.1 1.37 4.63.16 7.92.1 11.8 0l-.12.4-2.3 5.96.17.22c.14.17 3.4 4.26 11.1 5.88 3.44.73 6.48 1.1 9.08 1.1a22.56 22.56 0 0 0 2.07-.09c1.28-.13 2.7-.37 3.4-1.45.5-.8.52-1.88.03-3.3-1.63-5-1.1-8.22-1.08-8.25l.08-.42 4.96-.02 12.06-.06c1.84-.2 5.1 0 7.26-.16l.84.1 1.2-.06c.45-.01.9-.06 1.32-.08l-.05.04c1.24-.23 2.62-.84 3.12-1.3l-.03.06c.45-.3.83-.7 1.2-1.1l-.16.24c.78-.9 1.24-2.03 1.42-3.12.22-1.06.17-2.1.03-3.08zm-49.43-13.67c-2.65 0-4.8-2.33-4.8-5.2s2.15-5.2 4.8-5.2c1.42 0 2.77.68 3.68 1.87l.33.42.73-.64c.04-.04 4.04-4.1 8.85-7.44 4.95-3.5 9.2-5.7 10.27-6.23.68.46 2.7 1.93 3.95 3.83h0c1.03 1.57 2.1 3.2 2.1 5.2a59.62 59.62 0 0 1-.06 2.62c-.1-.08-.2-.12-.34-.12-.3 0-1.2.01-2.2.4-.05.03-.1.07-.15.1a1.33 1.33 0 0 0-.26.21c-.01.01-.02.03-.04.04a1.4 1.4 0 0 0-.36.93c0 .77.63 1.4 1.4 1.4s1.4-.63 1.4-1.4a1.35 1.35 0 0 0-.2-.7c.15-.01.3-.01.4-.01a.52.52 0 0 0 .31-.1c-.16 3.2-.52 6.64-1 9.4-.93 5.1-3.4 8.5-6.96 9.6-3.65 1.14-10.2-1.98-12.12-2.97-3.2-1.65-5-3.38-5.44-5.27a33.87 33.87 0 0 0-.45-1.72l-.22-.76-.6.52c-.85.77-1.93 1.2-3.03 1.2zm16.33 31.26c.38 1.1.4 1.93.07 2.45-.45.7-1.6.88-2.64 1-2.9.25-6.55-.08-10.85-1-6.34-1.33-9.56-4.47-10.33-5.3l2.1-5.45 6.78-22.16c.57-.16 1.1-.4 1.6-.73.1.32.17.65.24.96.53 2.22 2.42 4.1 5.96 5.93 1.7.87 5.03 2.43 8.24 3.05l-2.3 12.5c-.02.14-.6 3.48 1.12 8.75zm-16.03-39.46c-1.6 0-2.9 1.35-2.9 3s1.3 3 2.9 3 2.9-1.35 2.9-3-1.3-3-2.9-3zm0 5c-1.05 0-1.9-.9-1.9-2s.85-2 1.9-2 1.9.9 1.9 2-.85 2-1.9 2zm14.7-9c.4-.4 1.2-1.8 3.9-1.6.4 0 .8-.3.8-.7s-.25-.74-.7-.8c-3.6-.3-5.18 2-5.3 2.2a.78.78 0 0 0 .2 1c.26.18.88.12 1.1-.1zm11.8-2.2c.44 0 .96-.05 1.63.38.36.22.8.1.97-.18.2-.3.18-.77-.1-1-1.32-1.07-2.46-.75-2.8-.7-.4.06-.68.5-.6.9.1.4.5.6.9.6z"/><path d="M246.95 78.88h.2c.6 0 1.7-.3 2.1-1.5.4-1.4-.7-2.8-.8-3-.2-.3-.6-.3-.9-.1s-.3.6-.1.9.7 1.2.5 1.8-.7.6-.9.6c-.3 0-.7.2-.7.6 0 .3.2.7.6.7zm-2.9-8a.47.47 0 0 0-.5-.5c-.3 0-1.4-.02-2.38.46a1.04 1.04 0 0 0-.42.38 1.36 1.36 0 0 0-.3.86c0 .77.63 1.4 1.4 1.4s1.4-.63 1.4-1.4c0-.25-.07-.48-.18-.68.2-.02.37-.02.48-.02a.47.47 0 0 0 .5-.5zm-.22 13.47c.4 0 .7-.3.7-.8 0-.3-.3-.7-.7-.7-3.6-.2-4.35-3.17-4.4-3.3-.14-.42-.5-.6-.9-.5s-.6.5-.5.9c.4 1.5 2 4.2 5.8 4.4zM290.4 59.4c.01-.01.01-.02.01-.03l.06-.14-.07.17z"/></svg>