<svg xmlns="http://www.w3.org/2000/svg" viewBox="0 0 480 480" xmlns:v="https://vecta.io/nano"><path d="M238.3 127.6s6 22.4 12.2 41.8c1.5 6.6 4 11.2 6.6 15 3.2 4.5 10.4 9.1 23.1 15.6 18.8 9.7 40.3 17.4 40.3 17.4s5 5 12.6 5.7c7.7.8 8.9 1.3 10 1.1 1.7-.5.68-2.28.68-2.28s2.22.48 2.92-.82c.6-1.1-.7-1.9-.7-1.9s1.08-.17 1.18-1.37c0-.9-1.88-1.93-4.38-2.83-2.1-.8-6.4-3.9-7.3-4.4-.9-.4 1.8-.6 3.4-.6 1.8-.1 3.5-1.3.4-2.1-3-.8-5.4-1.8-6.2-1.9-.9-.2-4-.9-6.2-.7-1.5.1-3.9 1.3-6.9-.4-5.3-2.6-17.8-12.7-25.6-18.8-5.6-4.5-13.6-10.2-15.5-13.3-5.2-12.2-16.6-49.6-16.6-49.6l-24 4.4z" fill="#ea9d7d"/><linearGradient id="A" gradientUnits="userSpaceOnUse" x1="283.271" y1="187.483" x2="298.662" y2="169.219"><stop offset="0" stop-color="#cc7a5e" stop-opacity="0"/><stop offset=".924" stop-color="#aa5f4b"/></linearGradient><path d="M272.1 154.6l-12.9-4.1s-1.1-.4-1.2 10.7c2.1 10.5 9.5 21.7 12 24.5 3.1 3.2 28.6 17.4 38.4 22.5 8.8 4.6 7.1 4.6 10.6 1 1.4-1.5 3.9-3.1 3.9-3.1l-4.4-1.6-32.7-24.5c-1.5-1.2-5.4-4.2-6.1-5.5-3-3.8-7.6-19.9-7.6-19.9z" fill="url(#A)"/><linearGradient id="B" gradientUnits="userSpaceOnUse" x1="331.954" y1="204.705" x2="335.424" y2="200.766"><stop offset="0" stop-color="#cc7a5e" stop-opacity="0"/><stop offset=".924" stop-color="#aa5f4b"/></linearGradient><path d="M318.5 204.9l4 1.4s1.8-.7 4.8-.8c3-.2 10.5 2 12.3 2.3 1.7.3 1.6.9 1.5 1.4 0 .5-.8.9-1.6 1s-4.8.1-4.8.1-2.2 2.5-5.6 2.5c-3.1-.1-5.5-3-5.5-3l-5.1-4.9z" fill="url(#B)"/><linearGradient id="C" gradientUnits="userSpaceOnUse" x1="264.067" y1="172.934" x2="263.412" y2="149.343"><stop offset="0" stop-color="#cc7a5e" stop-opacity="0"/><stop offset=".924" stop-color="#aa5f4b"/></linearGradient><path d="M255.2 181.1l6.9-1.5c11.1-2.1 16.9-5.2 16.9-5.2l-7.2-20.5-22.9 8.6c-.2 2.7 3.5 14 6.3 18.6z" fill="url(#C)"/><g fill="#cc7a5e"><path d="M346.9 221.3c-.44 1.38-2.4 1.14-3.3.8-.3-.1-.4-.3-.3-.6s.3-.4.6-.3c.6.2 1.87.45 2.1-.2.24-.67-.47-1.17-.67-1.27-.2-.2-.33-.23-.13-.43.1-.2.3-.3.5-.4h0s.77.05.9-.9c.04-.53-.64-1.1-3.14-2.2-3.3-1.5-8.86-5-9.06-5.1-.2-.2-.3-.4-.2-.6s.02-.27.22-.37c1.7.1 5.25.3 5.98-.23.1-.08.42-.6-.73-.92-.6-.2-3.07-.78-3.47-.98-2.8-.9-6.5-2.2-9.2-1.7-2.8.5-4.6.8-6.4.1-1.7-.7-2.6-1.2-21-15.1-18.1-13.6-19.6-15.8-19.7-15.9-.6-.6-1.7-2.5-1.6-2.6.3-.1 1.5 1.1 2.4 2 .1.1 1.9 2.5 19.5 15.7 18.2 13.7 19.2 14.4 20.8 14.9 1.5.5 3.2.3 5.8-.2 3-.6 6.9.8 9.7 1.7a63.74 63.74 0 0 1 3.3 1.1c.6.2 1.58.58 1.7 1.3.1.53-.15.93-.55 1.23-.8.6-2.78.64-4.38.64 1.9 1.2 5.03 2.93 7.13 3.93 2.8 1.3 3.78 2.04 3.82 3.14.05 1.6-1.04 1.52-1.14 1.62.43.54.8.98.53 1.85z"/><path d="M346.1 219.5h0c-.1.3-.4.4-.6.3l-9.8-4.2c-.3-.1-.17-.32-.07-.52.1-.3.17-.48.37-.38l9.8 4.2c.3.1.4.4.3.6zm-2 2.2h0c-.1.3-.3.4-.6.3l-8.6-3.3c-.3-.1-.4-.3-.3-.6s.3-.4.6-.3l8.6 3.3c.3.1.4.3.3.6z"/><path d="M334.8 219.6c-.1.4-.3.6-.4 1-.1.3-.4.4-.6.3-.3-.1-.4-.4-.3-.6.1-.4.3-.7.4-1 .4-.8.8-1.6 1.1-2.7l.9-3.4c.1-.3.3-.4.6-.4s.4.3.4.6c0 0-.93 3.67-2.1 6.2z"/></g><linearGradient id="D" gradientUnits="userSpaceOnUse" x1="329.754" y1="217.121" x2="329.265" y2="208.347"><stop offset="0" stop-color="#cc7a5e" stop-opacity="0"/><stop offset=".924" stop-color="#aa5f4b"/></linearGradient><path d="M326.03 212.3s-2.7 2.4-1.1 5c1.3 2.3 4.2 2.6 5.6 2.5 2.4-.3 4.5-3.4 4.3-5.5 0-2.2-1-2.5-1-2.5s-1.9 1.5-3.8 1.7c-2.6.2-4-1.2-4-1.2z" fill="url(#D)"/><path d="M335.1 210.5h0c-.1.2-1.5 2.3-4.7 3-3 .6-5.2-1.5-5.4-1.6-.2-.2-.3-.5 0-.7.2-.2.5-.3.7 0 0 0 1.9 1.8 4.4 1.3 2.7-.6 4-2.5 4-2.5.2-.3.4-.3.7-.1.3 0 .3.4.3.6z" fill="#cc7a5e"/><g fill="#af6b56"><path d="M279.5 174.8l1 1.3-1.4.1zm3.6 5.3l.4 1.2-1.3-.3zm4.6 2.2l-1.2.4.2-1.2zm-2-1.7l-1.2.4.2-1.2zm10.7 8.9l-.9.4.2-1zm-15-7.3l.9-.3-.8-.5zm1.6 1.7l.8-.5-.7-.4zm3.2 2.2l1 .3-.2-.9zm.3-1.4l.7-.5-.7-.4zm6.1 3.4l.9.4-.1-.9zm-3.3-2.9l.8.3-.2-.8zm.2 2.2l.7.2-.1-.7zm-5-1.2l.7.3-.1-.8zm-5.1-4.8l.7.3-.1-.8zm.3-3.8l1 .1-.5-.8zm2.6 2l.9.1-.2-.8zm-1.6-2.3l.8-.3-.6-.5zM279 179l.8-.5-.7-.3z"/><path d="M279.5 178.5h1.1l-.6.9zm-1.1-.2l.3.9-1-.1zm-.1-5.1l.1.9-.7-.4zm-1.7 6.1l.3.8-.7-.1zm2.6-2.6l-.1.7-.6-.5z"/><path d="M278.8 176.8h1l-.5.9zm2.4 2l1.1.2-.8.8zM271 163.1l1.5.1-.8 1.2zm5.5 4.9l-1.5-.3 1-1.1zm1.9 5.4l-1.2-.1.8-1.1zm-5-5.8l-1.4-.1.7-1.1zm2.4-1.6l-1.3-.2.8-1.4zm-2.3-5.9l-1.3.1.4-1.1zm1.7 3.5l-1.4-.2.9-1zm-2.1-2.1l1.1.7-1 .6zm-1.2 7.9l-.5-1h1zm2.9 1.4l-.6-1 1-.1zm-1.6 1.1l-.6-1.1h1zm-.8 2.1l-.4-.9h.7zm4.6-1.3l-.5-.9.9-.1zm1.7 3.5l-.4-1 .9.1zm-3.4-3l-.4-.8.8-.2zm1.3 2.7l-.8-.4.5-.5zm.7-5.5l-1-.2.5-.6zm-2.2 3.7l-.8.4-.2-.8zm-1.7 1.3l-.9.4-.2-.8zm0 3.1l-.8.4v-.6zm2.1-1l-.1.9-.6-.4zm-2-13.2v.8l-.7-.3zm-2.2-3.6l1-.4-.1.9zm2.7 13l.1.3h-.4zm-.9 4l.3-.1v.4zm4.3 1l.1.3-.4-.1zm-1.1-6.2l.2.2-.3.2zm.9 4l.3-.2.1.3zm2.2 1.7h.3l-.2.2zm1.7 2.4l.1-.2.2.3zm-.3-.7l.4.2v-.4zm.8-2.8l-.1.4.3-.1zm2.3 2.9h-.3l.1.3zm-7.1-8.4v-.4l-.4.1zm-2.9.2l.4.1-.2-.4zm1.7-3.2l.2.3.3-.2zm3.8 11.3v-.2l-.2.1zm-1.4-1.6l.2.2.1-.2zm13.2 8.5v-.3l-.2.2zm-3.2.2l.2-.1-.2-.2zm1-2.7l.2.2.2-.2zm-1.4.6l.2-.3h-.5zm-3.2-2.4l.2.1v-.4zm1 5.4l.2-.3h-.4zm-3.2-2.4l.3.1-.1-.3zm3.1-1.6l.1.3.1-.1zm7.9 9.8l.3-.5-.6.1zm-3.8-2.9h.3l-.1-.3zm3.7-1.9v.3l.3-.1zm-13.1-2.2l.2-.2h-.3zm-2.5-1.9l.3-.1-.1-.1zm2.5-1.4v.2h.2zm-.6 1.5l.2.1-.1-.4zm.7-3l-.1.1.3-.2zm2.1 1.5l-.3.1.3.2zm-1.3-7.1l.4-.2-.3-.2zm-2-1.9l.4.3v-.4zm-.4 7l-.2-.3-.1.4z"/></g><linearGradient id="E" gradientUnits="userSpaceOnUse" x1="277.35" y1="124.224" x2="259.664" y2="130.326"><stop offset=".298" stop-color="#f5c52a"/><stop offset="1" stop-color="#e46c26"/></linearGradient><path d="M235.5 175.4s-6.4-19.5-7.7-32.3c-1.2-12.9-10.2-35.2 4.3-40 15.3-5.3 31.8 17.4 36.8 29.8 3.3 8.2 8.5 17.5 9.7 21.1.3.8-.1 1.8-.9 2.1l-42.2 19.3z" fill="url(#E)"/><g fill="#ffcce1"><path d="M238 158.5l1.2-.1-.8-1.2zm-1.7.9l1-.1-.7-1.1zm-.9-2.1l1-.1-.6-1zm.8.8l1.2-.2-.8-.9zm3.4 2.2l.3-1.2-1.4.2zm-2.5 2l.4-1.2-1.6.2zm.4 2.9l.4-1.1-1.6.1zm-3.1-7.8l.4 1.5 1.5-1.2zm3.1-.6l.3-1.1-1.4.1zm.2 3.9l.3-1.2-1.3.2zm-1.3-5.5l.3-1.3-1.4.2zm4.5 9.7l-1.4.3.8 1.2zm-2.4 2.5h-1.4l.8 1.3zm-.1-4.1l1.1-.1-.8-1zm-1.4-7.8l1.1-.3-.7-.9zm-2.1.2l1.1-.1-.6-1z"/><path d="M240.8 167.1h.6l-.4-.8zm-1.3-4.8l.1.7.7-.5zm5.8 1.9l-.4.3.5.4zm-.8-.4l.4.5.3-.6zM242 161l.6.4.2-.8zm-1.3-7l.4.6.4-.6zm3.6-3.2l-.5.4.6.2zm-.4 6.9l-.4.4.7.2zm1.3-.9l-.5-.3-.1.8zm-.4-2l-.2.7.6-.1zm2.7 1.3l-.2.6.7-.1zm-10.5 8.1l1-.3-.6-.9z"/><path d="M238.2 165l1.3-1.1-1.7-.8zm.7-2.5l.5-1.7-1.8.3zm-.3 4.2l1.1-.4-.9-.9zm-1.1.8l1.1-.2-.8-1z"/><path d="M240.3 155.8l-.7-.1.1.7zm-1.4 11.8l-.3-.5-.5.4zm0-6.3l.5-.3-.6-.4zm-2.4 3.5l.7 2.3 2-1.7zm-1-2.9l.7 2.4 2.1-1.8zm-.8-2.9l.7 2.5 2-1.9zm-.8-3.9l.5 2.3 2.2-1.6zm9.3 9.1l-.5-.3-.1.7zm-1.9-.1l-.9-.5.1 1.2zm-.6-3.4l-.5-.2v.7zm3.7 4.9l-.5-.3-.1.8zm-6.5-14.4l.7.2v-.8zm-4.1-6.6l.5.4.4-.7zm1.2-3l-.3.5.8.1zm-1.9-3.3l-.3.6.6.1zm-1.4-2.9l-.4.6.8.1z"/><path d="M239 148.5l-.6-.2.1.7zm-2.7-.4l-.7-.2.1.7zm-2.5-1.7l1.3.6-.1-1.5zm5.1-1.9l-.1.7.6-.4zm-6.4-7.5v.6l.6-.2zm-1.1-2.5l-.1.7.8-.3zm6.2 11.2l-.2-.6-.5.5zm-1.9-.6l-.1-.7-.6.6zm4.6 7.3l-.1-.5-.6.4zm2.7 12.1l-.5-.2v.6zm-10.9-18.6l.8-.1-.4-.6zm1.9 2.7l.4-.9-1.1-.1zm-.3 2.2l.4-1-1.2.1zm-1.8-5.9l.7-.5-.8-.5zm5.1 5.5l-1.3.1.6 1.2zm0 2.5h-1.2l.7 1.2z"/><path d="M240 153.2l-.6-.3v.8zm-1.1 4.3l.2-.6-.7.1zm-3.7-4.2h.5l-.2-.5zm-1.4-3.2l.9-.2-.6-.8z"/><path d="M234.6 151.2l1-.8-1.4-.6zm.1.6l1-.1-.5-.8zm-1.1 1.2h1.1l-.7-1z"/><path d="M235.3 153.2l-.2-.6-.5.4zm-1.7-.2l.4 2.2 2.3-1.3zm-.7-2.3l.4 1.9 1.8-1.1zm-.4-2.3l.4 1.7 1.6-1zm-.9-6.2l.1 1.5 1.5-.8zm.5 4.1l.3 1.6 1.5-.9zm-.3-6.9l.4.3.2-.7zm1.3 2l1 .4-.1-1.2z"/><path d="M231.4 137l1 .5-.1-1.3zm1.3 5.2l.4-.8h-.9zm-1.3-2.1l.1 1.4 1.3-.8zm-.2-2.5l.2 1 .9-.5z"/></g><linearGradient id="F" gradientUnits="userSpaceOnUse" x1="273.824" y1="154.844" x2="196.528" y2="153.636"><stop offset=".298" stop-color="#f5c52a"/><stop offset="1" stop-color="#e46c26"/></linearGradient><path d="M195.2 207.9h79.3l-8.2-68.1C264.5 125 249.4 99 229 99.9c-4.1.1-15.1.3-20.6 38.1-2 11.7-13.2 69.9-13.2 69.9z" fill="url(#F)"/><linearGradient id="G" gradientUnits="userSpaceOnUse" x1="240.157" y1="170.302" x2="204.377" y2="155.528"><stop offset=".01" stop-color="#f5b421" stop-opacity="0"/><stop offset=".985" stop-color="#dd6002"/></linearGradient><path d="M240.4 114.1s13 28.9 8.1 66.8l-7.1 27.1h-46.3l9.9-49.8 35.4-44.1z" fill="url(#G)"/><g fill="#e06c1e"><path d="M226.5 163.7l1.4-.8-1.1-.7zm-.5-3.9l1-1-1.2-.5zm-22 11.6l1.5.9.2-1.5z"/><path d="M204.3 170.5l1.4.9.2-1.5zm4.6 2.7l1.5-1.1-1.3-.7zm-4.7-5.4l1.5.9.2-1.5zm4.3 1.9l1.4 1 .2-1.6zm17.9-13.4l1.5.7.1-1.6zm-2 2.7l1.3 1.1.4-1.5zm1.4 1.3l1.5 1 .3-1.5zm.8-1.9l1.6.6v-1.5zm-2.2 4.4l1.6.6-.1-1.5z"/><path d="M223.6 162.6l1.4.8.2-1.6zm1.7 1.8l1.4-.2-.7-1zm-20.4 5.4l-.4-.8-.5.5zm2.7 1.6l-.9.2.4.6zm-.7 4.5l.5.8.5-.7zm1-5.1l.8-.4-.5-.5zm-.4 7.1l-.1-.8-.6.4zm-2-2.3l-.6.9.9.1zm2.1-4.7l.6.7.3-.7zm-2.3.3l.8-.4-.7-.4zm1.5 14.5l1.4-1-1.4-.8zm-2.5-19.6l1.9 1.3.4-2zm2 7.1l.6.8.4-.7zm22.3-8.5l-.6.6.8.3zm-20 10.2l.8-.3-.5-.5zm-2.2-7l.9-.1-.5-.6zm23.3-11.7l-1.8-2.7-1.6 2.4zm-2 2.7l-1.6-2.8-1.7 2.4zm-1.8 2.5l-1.7-2.7-1.7 2.3z"/><path d="M224.1 163.8l-1.6-2.8-1.7 2.4z"/><path d="M222.4 166.2l-1.5-3-1.9 2.4zm-15.9 2.8l-.6 1.3h1.2zm-.7 3l-.6 1.3 1.2.1zm-.4 16l-1.1 1.1 1.3.3z"/><path d="M226.1 164.1l1.6.8.1-1.6zm-.5-.1l-1.2 1.2 1.5.6zm-6.4 1.3l-1.1 1.4 1.4.4zm2.3.9l-1.3 1.4 1.5.4zm1.4-2.2l-1.1 1.2 1.4.6zm2.1 4.3l.3-1-.9.1zm-.3 4.7l-.8-.5-.1.8zm-20.2 5.5l-.6.6.6.3zm4.9-1.9l.9.5.1-.9zm-4.7-1.1l.7-.7-.8-.2zm2.8 6.3l-.5-.6-.4.5zm14.9-12.5l1.3-1.3-1.4-.5zm-15.4 9.3l-.3-.7-.6.5zm-3.3-4l-.4 1h.9zm.8-4.8l.8.5.1-.8zm19-4.8l.5-.6-.7-.2z"/><path d="M204.8 192l-.6-.9-.5.8zm3.7 4l-.9.2.6.5zm.6-8.5l.1.8.7-.3zm-2.6.5l-.5-1-.5.8zm3.2 3.4l-.8.3.5.5zm.8-6.7v.8l.8-.3zm2.1-7.9l.3 1 .6-.6zm-2-4.4l.8-.1-.3-.6zm-3 6.8l.1-.8-.7.1zm17.6-2.5l-.6.8.8.2zm1.4-7.1l-.7.7.8.3zm1.1 3.1l.5.7.4-.6zm-6.8.9l.8-.3-.6-.5zm1.7-10.1l2 1.1.3-2zm.3-1.4l1.7.5-.2-1.5zm0 3.6l.5 1.4.9-.9zm-17.1 9.9l-.1.9.7-.3zm2.5 3.5l.2 1.2.8-.6zm-2.1-4.9l1 .1-.2-.9zm22.6-2.3l.1-1-.8.2zm-7.9-3.5l.1-1.4-1.3.6zm-3.3 1.4l1.3-.6-1-.9z"/><path d="M219.1 170v-1.5l-1.2.5z"/><path d="M217.9 168.5l-1.4 1.9 2 .4z"/><path d="M218.4 166.4l-1.8 2 2.2.5zm-.3 4.2l1.5.9.2-1.5zm-2.3 1.3l1.4 1.2.5-1.5zm2.3 1.3l1.3-.6-1-.8zm-1.8-1.9l1.2-.8-1-.7zm6-1.7v.8l.6-.4z"/><path d="M218 171.3l-1.3-2.9-1.9 2zm-16.1 18.5l1-.1-.5-.7zm-1.7-1.8l.7 1.1.7-1zm.7-1.4l.8 1 .6-1.2z"/><path d="M202.9 189.5l.6.9.6-.8zm12.4-14.2l-1.5.8 1.1.9zM203 186.1l-1.5.6.9 1zm14-13.4l-1.4.7 1.1.9zm2.7 2.3l-.4.9.8.1zm1.2-4l.6.5.2-.7zm-5.8 2.4l.6-.5-.6-.3zm-5.1 7.3l-.6.8.9.1zm8.2-2.5l.6.5.2-.6zm-13.1 14.3l.8-.3-.5-.4zm-2 5.5l-.7 1 1 .4zm5-17.8l.5.5.3-.6zm-6.9 15.4l.7-.3-.4-.5zm19.5-16.6l-.4.8h.8zm1.2-4.2l.6.6.2-.7zm-5.8 2.5l.7-.4-.6-.4zm-5 2.3l1.1.3-.2-.9zm1.8.9l.5-.8h-.7zm-2.5 4.4l-.6-.5-.2.7zm3.4 1.4l.9-.5-.8-.5zm1.1-7.7l.9.2-.2-.8zm-2.2 7l.3-.6h-.7zm2.5-3l.9.1-.3-.7zm-4.3.8l.3-.7-.7.1zm3.8 5.7l-.7-.5v.7zm14.6-29l.1.8.7-.3zm.7 3.8l-.9.4.6.5zm.6-6.6v.8l.8-.3zm3.3 1.5l.9-.5-.8-.5zm3.3-2.5l.3-.7-.7.1zm-2.3 5.3l-.7-.5v.7zM206.7 183l-.7.6.7.4z"/><path d="M228.6 176l-.5.7.8.2zm-24.4 5.6l.4.6.4-.5zm22.5-6.2l.6.6.2-.6zm-20.3 7.3l-.5.8.7.2zm-3.2 1.6l.9.4v-.9zm19.3-5.4l-.6-.5-.2.6zm-4.2 1.6l.9-.5-.8-.5zm-12 10l.9.3-.2-.9zm-2.7-2.7l.5-.6-.7-.2zm3 10.7l-.5-.5-.3.7zm-2-11.9l.9.2-.2-.8zm26.8-21l.2-.8h-.7zm-24.9 27.1l-.6-.4-.1.7zm-5.3-7.7l1.2-.1-.5-1zm11.3-9.7l1.8.5-.4-1.6z"/><path d="M213.5 175.3l1.1-.4-.8-.7zm-.4-2.1l1.2-.5-.9-.9z"/><path d="M214.5 172.6l.2.7.5-.4zm1.9.2l-1.5-2.7-1.8 2zm-14 10l-2-1.4-.4 2.3zm-.7 2.7l-1.9-1.5-.4 2.3zm-.4 2.2l-1.9-1.3-.3 1.9zm.5-5.4l2-.2-.9-1.6zm-1 16.1l2-.1-.8-1.6zm19.2-25.5l1.5 1.2.4-1.7zm-15.6.6l1.5 1.5.6-1.7zm-3.3 17.5l1.4-.2-.7-1.1z"/><path d="M202 191h1.4l-.6-1.2zm-.7.7l.9 1.6.9-1.3zm-2.2 1.3l.7 1.6 1.1-1.2zm1.3 1.5l1.5-.1-.6-1.1zm-1.1 3.3h1.5l-.6-1.2zm21.2-27.4l1.4-.3-.6-1zm4.1 2l1.5-.2-.7-1.1zm6.4-11l1.5-.1-.7-1.2zm-20.7 14.1l2.1-.3-1-1.5zm-6.2 18.9h1.5l-.6-1.2zm-4.9 1.2l1.4-.1-.6-1.1zm.1-3.8l1.4-.2-.7-1.1z"/><path d="M203.3 195.1l-.8.2.6.6zm-1.6-4.9l-2.6-1.9-.6 2.6zm-1.7 4.2l-1.5.3.7 1.2zm9.2-22.6l-.8-.3-.1.8zm-.4 3l-.4.5.7.3zm-2.6-5.8l.5.6.3-.6z"/><path d="M206.6 166.9l.5 1.3.8-.9zm.3 1.4l-.6.3.4.5zm.6 1.6l2.1-1.3-1.6-1.4zm3.7 3.2l2.1-1.2-1.6-1.5z"/><path d="M209.5 171.6l2.7-.5-2.1-2.1zm-12.3 26.9l2.3-1.3-1.9-1.4zm.9-4.9l2.3-1.4-1.9-1.4zm6.1-15.9l1.1-.1-.5-.7zm-1.7-1.9l.7 1.2.7-1zm.7-1.4l.9 1.1.5-1.2z"/><path d="M205.2 177.4l.6.9.6-.8zm.1-3.4l-1.4.6.8 1zm.2-1.8l.9.4v-.9zm.5 3.5l.4-.7-.7-.1zm-2.5-2.8l1.2-.1-.4-1zm1.2-2.2l-2-1.4-.4 2.3zm.5-2.6l-2-1.4-.4 2.4z"/><path d="M205.6 166l-2.1-1.5-.4 2.4zm-1.6 7.4l-1.8-1.5-.5 2.3zm-.4 2.2l-1.8-1.3-.4 1.9zm.5-5.5l2-.1-.9-1.6zm-.7 8.8l1.4-.2-.6-1.1z"/><path d="M204.3 178.9h1.4l-.5-1.2zm-2.7.8l1.4-.2-.7-1.1z"/><path d="M204.1 178l-2.7-1.8-.5 2.6z"/><path d="M200.5 181.5l2.2-1.4-1.9-1.4zm-2.9 14.5l2.3-1.2-1.8-1.4zm2.2 3.5l1 1.5.8-1.4zm26.8-31.9l1 1.4.8-1.4zm1.8-9.1l1.1 1.5.7-1.4zm-2.9 7.4l-.4 1.7 1.5-.4zm-2.5 4.6l-.3 1.7 1.5-.5zm-16.2 1.7l-.3 1.8 1.5-.4zm-3.9 23.3l-.4 1.7 1.6-.3zm33.4-53.5l.9-.2-.5-.7zm1.4 7.2l-1.3.6 1.1.8zm-1.9 3.5l-.2-1-.7.6zm6.4-18.3l-.2.8.7-.1zm-3.4 15.1l-.2-1-.7.5zm2-10.2h-.9l.3.7zm-.6-4.8l-.2.7h.8zm-6.3 15.2l1 .3-.3-.9zm-1-2.3l.2 1.3 1.1-.7zm1.1-1.1l.5 1.2.9-.8zm.9 3.4l.2 1.1.9-.6z"/><path d="M236.2 146.6h-1.6l.5 1.3zm-.3 6.7h.8l-.2-.6zm-4.7 1.5h.8l-.3-.6zm10.8-13.5l-.9.4.5.5zm-3.1 1.4l.1.8.6-.3zm2.2-5.4l.1.7.6-.3zm-.5 7.3l-.8.6.6.4zm-3.7.4l.8.7.3-.9zm.8 6.8l.8.6.1-.8zm-1.5-3.4l.6-.5-.6-.3zm1.3-.7l.8.4.1-.8zm-.3 6.3l-.5-.6-.3.6zm-2.3-9.1l1.2.4-.2-1.1zm1.4-2l-1-1.5-.9 1.5zm-1.3 2.3l-1-1.7-1 1.7zm-1 2.3l-1.2-1.9-1.1 1.7zm3.1-5.1l.9.2-.1-.8zm1.5-2.4l.9.3-.1-.9zm-.2-2.2l.9.3-.1-.9zm-5.7 12.7l1.4.3-.3-1.2z"/><path d="M233.5 150.8l1.3.5-.1-1.3zm-.9.5l.3 1.7 1.3-.9zm-2.5.4l.1 1.7 1.4-.7zm.8 1.8l1.4.5-.2-1.3zm3.4 1.2l1.4.6-.1-1.3zm-5-.5l1.4.4-.2-1.3zm1.4-3.6l1.4.3-.2-1.2zm2.6 4.5h-.8l.3.7z"/><path d="M233 149.5l-1.3-2-1.1 1.7zm-2.5 3.8l-1.6-.2.3 1.4zm-1.5-1.4l2.6-.5-1.3-2zm6.7-11.8l1.6-.3-.8-1.2z"/><path d="M227.7 154l2.5-.3-1.2-2zm3.2.8l-1 1.5 1.6.3zM217.2 175l1 1.5.8-1.4zm-12 5.7l1.7-.4-1-1.3zm-.8 17.1l1.7-.4-.9-1.2zm2.1-21.1l1.5 1 .3-1.5zm-8.7 21.7l.7 1.6 1.1-1.2z"/><path d="M196.7 201.2l2.2-1.3-1.8-1.3z"/></g><path d="M210.9 115.2s-15.6 17.1-28.6 32.8c-4.7 4.8-7.3 9.4-9.1 13.7-2.1 5.2-2.1 13.6-.7 27.8 2 21.1 7.1 43.3 7.1 43.3s-1.5 6.9 2 13.7c3.4 7 3.7 8.2 4.5 9 1.3 1.2 2.32-.57 2.32-.57s.68 1.97 2.08 1.87c1.2-.1 1.2-1.7 1.2-1.7s.8 1.1 1.9.5c.7-.5.88-2.96.28-5.66-.5-2.2-.58-7.44-.58-8.44-.2-1 1.4 1.2 2.3 2.6 1.1 1.5 3 2.2 2-.8s-1.4-5.5-1.7-6.3-1.4-3.9-2.8-5.6c-.9-1.2-3.1-2.6-3.4-6-.7-5.8 1.1-21.9 2-31.7.7-7.1 1.2-16.9 2.8-20.3 1.4-2 3.3-4.8 5.6-7.8 10.3-13.3 27.3-32.9 27.3-32.9l-16.5-17.5z" fill="#ea9d7d"/><linearGradient id="H" gradientUnits="userSpaceOnUse" x1="184.703" y1="186.057" x2="208.384" y2="189.163"><stop offset="0" stop-color="#cc7a5e" stop-opacity="0"/><stop offset=".924" stop-color="#aa5f4b"/></linearGradient><path d="M206.5 158.2l-3.5-13s-.3-1.2-9.6 4.8c-7.7 7.5-13.2 19.7-14.1 23.3-1 4.4.8 33.5 1.8 44.5.9 9.9-1.47 10.57 3.53 11.57 2.67.56 5.64-1.34 5.64-1.34l-.68-3.74 2.9-40.7c.2-1.9.6-6.8 1.3-8.1 1.6-4.8 12.7-17.3 12.7-17.3z" fill="url(#H)"/><linearGradient id="I" gradientUnits="userSpaceOnUse" x1="186.744" y1="161.301" x2="206.253" y2="148.021"><stop offset="0" stop-color="#cc7a5e" stop-opacity="0"/><stop offset=".924" stop-color="#aa5f4b"/></linearGradient><path d="M175.1 158.2s1.8 1.6 5 5c7.8 8.2 14.2 10.8 14.2 10.8l5.6-7.5 7.1-8.9-19.6-14.7c-2.4 1.3-10 10.5-12.3 15.3z" fill="url(#I)"/><g fill="#cc7a5e"><path d="M190.6 257.13c-1.98.33-2.3-2.13-2.4-2.43s.1-.5.4-.6.5.1.6.4c.2.6.33 1.8 1.2 1.6.72-.1.76-1.22.66-1.42 0-.2.04-.28.24-.18.2-.1.58.12.78.32 0 0 .66.8 1.44.22.3-.3.42-1.1.02-3.8-.5-3.6-.84-10.03-.84-10.33 0-.2.2-.5.4-.5.2-.1.4.1.6.3.8 1.5 2.4 4.2 3.3 4.6.38.15.4-.1.4-.3 0-.1-.1-.5-.2-.8-.2-.6-.8-3-.9-3.5-.7-2.8-1.6-6.7-3.6-8.7-1.9-2.1-3.2-3.4-3.5-5.3-.4-1.8-.4-2.8 1.4-25.9 1.7-22.5 2.7-25.1 2.8-25.2.2-.9 1.1-2.8 1.4-2.7.2.1-.1 1.9-.4 3.1-.1.1-1.1 3-2.7 24.9-1.7 22.7-1.8 23.9-1.4 25.6.4 1.5 1.5 2.8 3.3 4.8 2.1 2.2 3.1 6.2 3.8 9.1.1.4.7 2.9.9 3.4.2.6.6 1.76-.1 2.32-.33.27-1.03.3-1.53.1-.9-.4-1.8-1.66-2.5-3.06.1 2.3.12 5.53.42 7.83.4 3.1.47 4.35-.53 5.05-.6.4-1.15.3-1.45.25-.23-.04-.58-.15-.78-.25-.4.6-.4.94-1.25 1.08z"/><path d="M191.7 255.5h0c-.3.1-.6-.2-.6-.4l-1.8-10.5c-.1-.3.2-.6.4-.6.3-.1.6.2.6.4l1.8 10.5c.1.3-.1.5-.4.6zm-2.9-.5h0c-.3.1-.5-.1-.6-.4l-1.8-9c-.1-.3.1-.5.4-.6s.5.1.6.4l1.8 9c0 .3-.1.6-.4.6z"/></g><g fill="#ffc1a6"><path d="M176.7 159.2h.7l-.2.8zm-.8 5.1l.2-.6.6.3zm5.9-2.8l-.6-.2.6-.5zM175 166l.6.4-.7.4zm-1.4 1.1l.8.5-.8.5zm-1.3 4l.8-.7.3 1.1zm.1 4.5l-.6-.9 1.2-.3zm1.8-2.3l-.9-1.1 1.5-.5zm-2.2 5.9l-.1-1.5 1.6.5zm1.9-18.8l1.2-1.7 1.1 1.9zm3.1-5.7l1.6-2.3 1.5 2.6zm-4.9 13.2l.5-.4.2.7zm5.2 3.1l-.3-.4.7-.1zm-3.9-4.6l-.3-.7.8-.1zm6.3-4.6l.1 1-.9-.4zm-5-.9l.7.1-.5.5z"/><path d="M177 166.9l.3-.6.5.6zm-.5-11.4l1.1 2-2.4.1zm3.7-4.9l.5 1.4-1.5-.2zm2.9-3l.4 1.4-1.7-.2zm-8.7 15.4l-.1.8-.6-.6zm.4-1.9l-.2.7-.7-.4zm3-6.1v.8l-.8-.3zm4.3 0l.7.3-.5.5zm-5 7.5l.3-.5.5.6zm3.3-5.5l.4-.5.5.6zm1.8-2.7l-.8.2.1-.9zm2.6-6v.7l-.6-.4zm-8 9.3l.1 1.3-1.5-.5zm3.3-1.5l-1.1.3.2-1.1zm-1 5.1l-.6.2v-.8zm.9-8.8h.6l-.5.7zm1 13.7l-.1.4-.5-.3zm-2.9-1.7l.4.2-.4.3zm.3 4.2l.3-.3.2.4zm-3.7 5l-.3-.5h.6zm3.1-1h-.4l.1-.5zm-3.3-2.7l.1.4-.5-.1zm3.2 11.1l-.3-.2.3-.4zm2.2-2.6l-.4.3-.1-.4zm-4.2-.5l.3.4-.5.1zm8.5-8.4l.3-.2.1.5zm.9-12.7l-.5.6-.3-.9zm-2.3-4.5l.4.6h-.8zm-3.3 5.7l.7-.2-.2.8zm-.9 5.7l-.7.2.1-.9zm-2.3-3.9l.4.6h-.8zm-3.5 3.4l1 1-1.5.7z"/><path d="M172.4 166.1l1 1-1.4.8zm-.6 2.8l1.7 1.2-1.8 1.1zm3.8-7.2l1.4.5-1.2 1.1zm-1.6 3.2l1.3-.8.1 1.8zm3.5-5.4l1.1-1.1.5 1.6zm7.9-8.1l-.7.1.2-.8zm-2.5-1.1l-.7.2.3-.9zm3.5-.5l.6-.2-.1.7zm-4.5 5.4h.5l-.1.5zm.5-4.1l-1 .9-.5-1.4zm2.7 2l-.5.4-.2-.7zm-5.2 6.9l-.6.3-.1-.7zm6.4 1.6l-.7.3.2-.7zm1.6-11.2l.2.5-.6-.1zm-5.1 4.1l.5-.1-.1.6zm-10.9 18.4l.5-.5.4.8zm2.9 4.4l-.3-.7h.8zm2.5-6.1l-.6.2v-.7zm-2.2 2l.6-.6.3.8zm3 4.3l-.4-.7.7-.1zm2.4-6.1l-.6.1.1-.6zm-.6 1.4l-.3.6-.6-.5zm-4.5-2.6l.6.3-.7.3zm.3 6.4l.4-.4.4.6zm-1.9 6.1l.4-.5.5.8zm3 4.2l-.4-.6h.7zm2.4-6l-.7.2.2-.7zm-4.2 5.8l.5-.5.4.8zm2.9 4.2l-.3-.5.7-.1zm2.4-5.9l-.6.2.1-.7zm-6.1-9.4l.4-.7.5.9zm-.4-6.1l.5-.6.4.8z"/><path d="M174.4 180.9l.4-.7.6.7zm2 8l-.2-.6.9.2zm-3.3-26.1l.4-1.4 1.3 1.2zm4.3 16.8l-.5-.5.7-.2zm2-6.2l-.5.3-.1-.7zm-.9-9.7l.8-.4.2.9zm1.6-5.9l.7-.4.2.8zm-2.8 11l.6-.5.1.9zm-.8 8.3l.2-.7.7.4zm6.3-26.6l.1-.7.8.5zm-2.4 18l-.2-.6.7.1zm3.8-5.1l-.6-.1.2-.7z"/></g><g fill="#af6b56"><path d="M192.2 160.3l.6.4-.7.3zm-2.8 3.2l.4-.4.2.5zm5.1.8l-.3-.5.6-.1zm-6.1 2.4l.4.1-.5.4zm-1.8 1.7l.1-.2.1.4zm3.1.8l-.2-.3h.4zm3.5-16.8l.5.4-.7.3zm.9-.1l1.1 1.1-1.4.3zm-.6 23l-.6 1.5-.8-1.1zm-2.6 6l-.8.9-.4-1.2zm.7 5l-1-.8 1.1-.5zm.4-2.6l-1.1-.8 1.2-.5zm-1.8 13.8l-.8-.6.9-.3zm-1.9-16.6l.7.5v-.9zm-.6 2.2l.8.4v-.8zm-.1 4l.2 1 .7-.7zm1.3-.6l.8.4v-.9zm.5 7l.1.9.7-.4zm.6-4.3l.2.8.6-.6zm-1.7 1.3l.1.7.5-.4zm-1.7-4.8l.1.7.6-.5zm1.2-6.9l.2.7.6-.5zm3.4-1.8l.5.9.4-.9zm-.2 3.2l.3.9.6-.6zm1-2.5l.7.4.1-.7zm-2.3-.6l.8.5-.1-.8z"/><path d="M190.3 177.3l.7 1-1.2-.1zm-.4-1.1l-.6.8-.4-.9zm4.3-2.8l-.7.6-.1-.8zm-6.1 1.9l-.5.7-.3-.7zm3.7.8l-.8.3.1-.8z"/><path d="M191.4 175.8l.5.9h-1zm-.4 3.1l.4 1-1.1-.2zm8.5-21.8l1 1.1-1.3.4zm2.1 2l1.1 1-1.5.4zm-2.5 2.5l.7 1.3-1.5-.1zm-1.4 7.6l-.6-1.4 1.4.3zm-3.7 4.4l-.5-1.1 1.3.1zm2.2-7.3l-.6-1.2h1.3z"/><path d="M199.1 167.4l-.7-1.2 1.7-.1zm-1-4.1l-.7-1 1.2-.2zm2.4 2.3l-.6-1.3 1.3.3zm2.1-2.7l-.5-1.3 1.3.3zm-1.1-.4v1.4l-1.1-.6zM190 148.4l1 1.1-1.3.4zm-3.8-3.5l.9 1.1-1.3.4zm.8 2.6h1.5l-.6 1.2zm-1.7 4.2h1.1l-.5 1zm-2-2.7h1l-.5.8zm.7-2.1h1.1l-.6.8zm1.7 2.6l.9-.1-.4.8zm2.6 6.4l1.1-.1-.5.8zm3.4 2.1l.5-.8.5.8zm-.9 3.2l.6-.8.4.8zm2 4.7l.5-1.1.7 1.1z"/><path d="M193.9 166l.6-.9.5.8zm.4 3.1l.6-.9.6.7zm-4.1-2l.5-1 .6.8zm-5.7-10.5l.8-.7.4.8zm-2.1 2.2l.7-.9.3.7zm7.9 10.1l.5-.8.4.6zm3.6 3.1l.5-.8.5.7zm-2 3.3l.6-.7.4.7zm.7-4.4l.4-.8.6.7zm-1.6 2.6l-.1-.9.7.1zm5-2.4l-.3-.9.8.1zm-4.2.1l-.9-.5.6-.5zm-2.1-.8l-.9-.5.6-.5zm-3 1.5l-.8-.4.6-.3zm2.3 1.5l-.7.4-.1-.7zm.5-5.6l-.7.4-.1-.7zm5.7-6.6l-.8.2v-.6zm-5.7-8.3l1.5-.1-.7 1.4zm.9-3l1.2.1-.6.9zm1.6 1.5l1.2-.1-.5.9zm2.9 2.6h1.1l-.5.9zm-2.4.5l.8.8-.9.3zm-7-8.2l.9.7-1.1.2zm3.3 7.9l1.1-.1-.4 1zm5.4 3.2l1.1-.1-.3.9zm3.8-.7l1-.1-.4 1zm.4 2.2l.9.6-.9.4zm2.9 1.7l.9.7-.9.3zm-5.9-.5l.8.7-.9.4zm-4.1-2.5l.8.7-.9.4zm4.3 1.2l.9.6-.9.4zm-2.5-3l.5-1 .5.9zm2.6.4l1.2-.2-.5 1zm4.3 2.4l1.1-.2-.6 1z"/><path d="M197 155l1.1 1-1.3.5zm-5.6-2.6l.6-.3v.6z"/><path d="M197.6 156.8l-.3-.6.6.1zm-7.6-6.3l-.3.6-.5-.5zm-3.4-2.4l.4.3-.6.2zm-.3 5.2l.5-.2.1.5zm.8 6.3l-.2-.4.4.1zm2.7-.5l-.5-.1.1-.3zm-2.5-2.4l.1.3-.4-.1zm-4.8 19.3l-.2-.4h.3zm2.7-2.8l-.1.2v-.4zm-3-1.1l-.1.2-.2-.1zm.1-7.6l-.5-.3.5-.3zm1.4-5.4l-.2.4-.2-.5zm-4.7.8l.3.3-.4.1zm7.4 4.9l-.3-.3.4-.1zm1.1-4.1l-.2.2-.1-.3zm-3.5.7l.2.2h-.3zm6.1 9.7l-.3.3-.2-.3zm-3.9 1.4l.3.2-.4.2zm2.9 3.1l-.3.3-.1-.4zm4.5-4.2v.3l-.3-.1zm-2.8 2.9l.3.1-.2.3zm-.2 2.7l.1.3h-.3zm-1.2 2.8l.2-.1-.1.4zm1.2-20.2l-.4-.1.3-.3zm1.2-4.4l-.2.3-.2-.4zm-4 .7l.2.3h-.4zm2 1.1l-.2.3-.2-.5zm-3.5-3l.1.3h-.4zm-1 3.9l.3-.1-.1.4zm.7 2.5l-.3.2-.1-.6zm-4.3-3.6l.3.3h-.5zm-1.1 4.6l.3-.2v.5z"/><path d="M186.6 165.7l.2.3-.4.2zm-3 3.7l.3-.2.1.4zm4 .9l-.1-.2.3-.1zm11.4-13l-.2.6-.4-.5zm-2.8-1.9l.4.3-.5.2zm-.2 4.3l.4-.4.1.5zm-2.5-2.1h-.5l.3-.6zm1.2-3.3l-.2.5-.3-.4zm-4.2 1.1l.4.2-.5.4zm4.8.9l-.5.1.1-.6zm-3.7-1l.5.1-.3.4zm5.2 7.3h-.5l.2-.7zm.8-3.3l-.2.3-.4-.2zm-4.1 1.4l.3.3-.3.2zm7.8 1.9l-.6-.1.4-.5zm-.9-4l-.2.3-.3-.3zm-1.9 1.4l.3.3-.4.1zm-6.5-6.1l-.4.2v-.6zm-.1-3.5v.5l-.4-.2zm-3.5 2.7h.4l-.2.5zm.1-3.7l-.4.2v-.5zm-1.6-3v.5l-.5-.2zm-2 2.1l.4.3-.3.2zm4.2 3.5l-.5.2.2-.6zm-.1-3.5l.1.6-.6-.3zm-3.5 2.6l.4.1-.3.4zm13.8 9.1l.6-.3v.7zm.8 4l-.1-.5.6.1zm3-3.4l-.4-.1.2-.5zm-6.7-2.7v-.5l.6.3zm-12.9-7.3l.6-.2-.2.7zm-.2 4.1v-.5l.5.3zm4.5-2.6l-.5-.1.4-.5zm-1.2-1.3l.6-.1-.1.8zm-.2 4.2v-.6l.6.4zm4.6-2.6l-.6-.2.5-.5zm-.6 13.1l.1-.7.6.4zm3.7 1.8l-.5-.3.5-.4zm-.7-5.3l-.3.5-.3-.6zm-.4 4.1l-.1-.5h.6zm4.2 0l-.6-.1.2-.4zm-3-4.4l-.1.4-.4-.3zm-4.3 17.3v.4l.3-.2zm2.8-.9l-.4.1.2.3zm-1.2 3.5l-.2-.2-.2.2zm4.5-17.7l.3.3.2-.5zm1.3-2.2l-.3.2.5.1zm1.4 2.8h-.3l.1.3zm-4 6.6l.3-.2-.3-.3zm-1.8-2.3l.2.3.2-.3zm3.7-.3l-.2.3.4.1zm-7.4 9.3l.1-.1-.2-.2zm.5-2.1l-.1.3h.2zm0 15.7l.2-.2h-.3zm-1.9-2.6l.2.1.1-.2zm2.8-.5l-.1.2h.3zm-1.2-.9h.3l-.3-.5zm.2-4v.3l.4-.3zm-4 3.8l.4-.1-.2-.3zm.3-4l.1.3.2-.3zm3 1.7l-.2.3h.2zM185 197h.5l-.3-.4zm.3-4.7l.2.3.2-.3zm3.6 2.1l-.2.1.2.2zm-5.2-12.2h.4l-.2-.3zm.3-3.2l.2.2.1-.1zm2.5 1.4l-.2.1.1.2zm-1.6.3v.1l.3-.2zm2.9-1.1h-.1l.3.2zm-.1 2.6l-.3-.1v.3zm5.3-4.9l.4.2v-.4zm.5-2.7v.4l.2-.1zm-6.1 3.4l.1-.3-.4.1z"/></g><linearGradient id="J" gradientUnits="userSpaceOnUse" x1="196.505" y1="235.633" x2="201.694" y2="236.43"><stop offset="0" stop-color="#cc7a5e" stop-opacity="0"/><stop offset=".924" stop-color="#aa5f4b"/></linearGradient><path d="M189.2 224.4l1 4.1s1.5 1.2 3.3 3.6 4 9.9 4.7 11.6c.6 1.6.1 1.8-.4 2.1-.4.3-1.2-.2-1.7-.8s-2.7-4-2.7-4-3.3-.5-5.1-3.3c-1.6-2.7-.5-6.3-.5-6.3l1.4-7z" fill="url(#J)"/><linearGradient id="K" gradientUnits="userSpaceOnUse" x1="208.555" y1="130.055" x2="216.936" y2="186.895"><stop offset="0" stop-color="#f5c12e"/><stop offset="1" stop-color="#e46c26"/></linearGradient><path d="M173.9 136.9s11.6-13.4 20-22c11.3-11.2 28-21.5 41.6-10.1 12.9 10.7 5.3 25.1-1.2 37.7-6.4 12.5-20.8 29.5-20.8 29.5l-39.6-35.1z" fill="url(#K)"/><g fill="#ea7d24"><path d="M221 154l-1.4-.9-.4 1.9zm5.2-.2l-1.1-1.3-.8 1.7zm-5.5-4.2l-1.9.7 1.4 1.7zm8.1.4l-1.9.6 1.4 1.8z"/><path d="M230.5 145.2l-1.5 1.3 2.1.9zm-4.8 8.3l-1.8 1 1.9 1.3zm-2.2-1.4l-1.7 1.1 1.8 1.3zm2.7-1.6l-1.9.6 1.3 1.8zm-4.5 4.5l-1.9.5 1.3 1.7z"/><path d="M221.9 155.9l-1.8.8 1.6 1.5zm4.2-9.2l-1-1.4-.9 1.8z"/><path d="M220.1 155.4l-1.6-.5.1 1.8zm6.9-9.6l-.7-.8-.6 1.2zm-4.3 6.4l.5-.8-1-.3zm-3.7-9l.9.3-.1-1.1zm-3.5-1.8l-.9.7 1.1.7zm5.8 4.9l-.7-.6-.3 1.1zm-9.2 2.9l.4-.9h-1.1zm10.6-6.3l.5 1.1.9-1.1zm5.8-5l-.7.6 1 .5zm1.2 9.6l-.7-.5-.3 1.1z"/><path d="M230.9 148.2l-1-1.3-.9 1.7zm-.9-2.3l-2.4-.9.3 3zm6.7-8.2l-2-.1.9 2.1zm-9.3 9.8l-2.5.8 1.9 2.2zm2.4-3.9l-1.6-.8v2zm2.1-.1l-1.5-.6v1.9zm-15.2 3.9l-.8.8 1.1.6zm-1.3 5.2l.5.8.5-.9z"/><path d="M215.6 145.6l-.8-.6-.3 1zm9.5 1.9l-.9-.4-.1 1.1zm7-1.2l1.6-2.7-3.4-.5zm-3.2 5l1.5-2-2.7-.7zm-2.3 3.5l1.5-2-2.8-.7zm7.5-14l-1.9.8 1.6 1.5zm2.9-3.7l.9-1.9-2.4-.1zm-13 21.2l1.7-2.2-3-.7zm-2.5 3.6l1.9-2.6-3.4-.9z"/><path d="M219.3 164.9l2.2-3.1-4.1-.9zm1.7-17.1l.3 1.5 1.5-1zm-2.3 5.2l-1.8.7 1.6 1.6zm-2.2 3.2l1.3 1.6 1.1-2z"/><path d="M216.8 164.9l1.1 1.7 1.2-1.9zm-1.6-2.7l1.1 1.6 1.1-1.9zm2.7-2.4l1.2 1.6 1.1-1.9zm-4-21.6l-1.1.3.7 1zm3.3 6.9l-.5-.8-.7.9zm-9.6-1.3l.7-.6-1-.4zm7.9 17.7l-1.4-1.7-1 2.2zm-4.9-11.6l.5-.9-1.1-.2zm4.4 2.2l.2 1.1 1.2-.5zm7.4-2.3l-1 .3.8.8zm-2.6 9.3l-.5-.8-.6.9zm11.9-28.7l-.6 1.1 1.3.1zm7.3 2.1l-1-.3.3 1.2zm-7.4 6.4l.1-1-1 .5zm-20.3 15.4l-.5 1.2 1.3-.1zm3.5.7l-.5 1.1 1.3-.1z"/><path d="M203.5 145l-.4.8 1.1-.1zm5.9 12.5l-.4 1.2 1.4-.1zm3.9-2.3l-.5 1.2 1.5-.1zm-8.3-15.1l-.3.7h1zm13.8 15.3l-.9-.1.2 1zm2.3 1.2l-2.4 1.1 2.2 2zm2.4-.1l-1.9.4 1.4 1.8zm-6.9 1.8l-.8 1.5 1.8.1zm-3.3-9.1l-.3 1 1.1-.3zm-5-3.2l-.6 1.2h1.5zm8.3 2l-1.1-.3.3 1.3zm-7.8 7.6l-.1-1.2-1.1.6zm7.9 10.3l.2-1.7-1.8.4zm-4.4-4.9l-.2.9 1-.2zm-.3-9.9l-1.1.1.6 1zm2.3 6.6l-.4-.8-.7.7zm-8.6-2.1l.8-.5-.9-.6zm5.8 3.6l1.2-1.2-1.8-.6zm-9.6-17h-1.1l.6 1.2zm2.2 6.5l-.3-.8-.7.7zm-8.4-2.1l.6-.5-.8-.5zm10.7.9l-1-.5v1.2zm-1.3 6.9l.2-1-1 .2zm-6.3-6.1l.8-.1-.4-.8zm14.5 12.6l-.7-1.8-1.6 1.6zm-12.6-7.1l-.2-1.2-1.1.7zm6.5 8.1l1-.4-.9-.8zm-8.2-2.8l1.2 1 .2-1.8zm-.5-6l-.3.8.9-.1zm-5.4-4l-.3.8 1-.1zm9.4 5.4l-.5 1.2 1.5-.1zm-6.1-3.2l-.5 1.2 1.5-.1zm15.7 12.4l-.2-1-.8.6zm.2 6l1.3-1-1.6-.9z"/><path d="M215 168.8l.1-1.7-1.7.7zm-2.6.5l1.2 2.4 2-2.4z"/><path d="M214.6 167l.9 2.6 2-2.6z"/><path d="M214.8 167.5l-.5-2-1.8 1.5zm-3.7-3.3l-.7-1.8-1.6 1.5zm-.3 2.3l-.1-1.6-1.6.8z"/><path d="M210.5 168l1.3-1.1-1.7-.9z"/><path d="M208.8 167.6l2.7 2.4 1.5-3.9zm-9.8-9.1l.8-.9-1.3-.3zm3.5.9l-.7-1.5-1.2 1.3zm2.2 2.7l-.5-1.5-1.3 1.1z"/><path d="M202.2 158.1l-.5-1.2-1 1.1zm6.1.5l-1.4 1.3 1.8.8zm1 1.9l-1.4 1.2 1.9.8zm4.1 2.5v2.1l1.5-.7zm-9.4-2l.8-1.2-1.6-.3z"/><path d="M206.1 161.9l.5-2-2.3.4zm.9.4l.9-1-1.4-.5zm-.4 3l1.1-1.1-1.6-.6zm2.1-1.3l-.6-.7-.3 1z"/><path d="M206 165.2l2.8 2.3 1.4-3.5zm-2.7-2.2l2.2 2.1 1.1-3.2zm-2.9-2.6l2.2 2 1.2-3zm-2.7-2.4l.3-1.6-1.9.3zm7.4.8l1.2-1.2-1.8-.6zm-16.3-9.2l.8-.9-1.2-.3zm3.5.8l-.7-1.4-1.1 1.3zm2.3 2.8l-.5-1.6-1.4 1.2z"/><path d="M192.1 149.2l-.6-1.2-.9 1zm1.8 2.8l.7-1.1-1.5-.3zm9.4 5.3l.3-1.1-1.3.1zm-5.5-1.3l.3-1.5-1.7.3zm-4.5-1.8l2.4 1.9.9-3zm-2.9-2.7l1.7 1.6.8-2.2zm-2.9-2.5l.5-1.6-2 .4zm13.3 6.5l.7-.8-1-.3zm-1.7 1.6l1.2-1.3-1.8-.6zm12.8 8.7l1.2-1.3-1.8-.6z"/></g><g fill="#fcd842"><path d="M235.3 104.7l-.4 1.3 1.3-.2zm-19.8 4.2l.6-.6-.6-.2zm-7.1-4l.6-.6-.8-.3zm10.2 6.2l-.5-.7-.5.6zm11.5-7.5l1 .4.1-.9zm-13.6 0l.9.5.1-.9zm-2.2-1.7l.9.4-.1-.9zm22.5 6.8l1.8-.7-1.1-1.1z"/><path d="M238.9 111.8l1.9-.1-.9-1.4zm-1.3-2.5l1.2.7.1-1.3zm.2 3.6l.9.4v-.9zm2.3 0l.8.5.1-.9zm-15-12l.6-.6-.6-.2zm5.5 2.6l-.8-1.3-.8 1.2zm-3.2-.9l-.5-.8-.5.7zm-5.7-.2l-.2 1 .9-.3zm-.5-2.4l.7.7.4-.7zm1.1 4.6l.8.4-.1-.8zm10.4 6.7l.9.3v-.7zm3.2 1.1l.7.3v-.7zm2.5 1.9l.7.3v-.7zm.6.7l.8.3v-.7zm-26.4-9.4l.8.5v-.8zm-1.8-1.5l.8.4-.1-.7zm4.6.8l-.2.9.8-.3zm3.3-2.4l-.1 1 .7-.3zm-2.4 0l.5-.8-.8-.1zm18.7 11.4l-.3.6.5.1zm-.3-3.1l.3.4.2-.5zm-6.5 1.1l.5-.4-.4-.2zm2.7-.8l.5.4.2-.4zm-6.7.2l.5-.1-.3-.4zm-13.4-1.2l.6-.1-.5-.4zm10 3.1l-.1-.5-.4.2zm-4.6 1.3l-.2-.5-.3.1zm4.3 6v-.6l-.4.2zm0-14.6l.3 1 .7-.6zm6.2-5.7l.5 1.9 1.3-1.2zm8.6 7.7l.3 1.1.7-.6zm-16.4-7.3h.8l-.3-.7z"/><path d="M216.2 107.3l.2-.8-.7.1zm5.6-6.5l-.5 1.5 1.4-.1zm-1.5.9l-.4 1 1-.1zm.3-1.8l-.5 1h.9zm4 6.4l.7.5.2-.7zm-7.1-4.7l.4-1.4-1.2.2zm21.7 12l.7.5.1-.8zm-2.5-5.7l.3-.5-.4-.3zm4.9 8.4l.5-.5-.5-.2zm-.2-1.5l-.4-.7-.3.5zm-4.3-4.8l-.1.8.7-.2zm1.4 1l.3 1.2.9-.7zm-2-1.6l-.2.8.7-.1zm-2.5-2.5l-.1.9.7-.2zm1.1.2l1.5.5-.2-1.4zm3.9 3.3l.5.3v-.6zm-5.7-1.4l.4-.5-.6-.2zm4 2.3l-.3.7.7-.1zm2 5.8l.6.3.1-.5zm.3-4.5l.5-.5-.6-.2zm-1.8 2.7l-.2.8.7-.1zm-3.5 1.1l.6.4.1-.7zm7.3.8l.5.4.1-.6zm-4.8 1.3l.5-.5-.6-.2zm4.1-2.2l-.7.2.4.5zm1.9 3.9l-.6.2.3.5zm-.2-2.2l-.6.1.3.4zm-.9 3.7l.1.6.5-.3zm-.6 2.5l.2.8.4-.5zm.8-4.9l-.7.4.5.5zm-3.2-1.7l.1.7.5-.4zm.2 3.3h.7l-.2-.6zm-.2 2.2h.7l-.3-.5zm2 3.9l.1.7.5-.4zm-3.8-2.2l.7.1-.2-.7zm-.6 3.9h.7l-.2-.6zm-3.3-25.6l.1 2.5 2-1zm-1.1.8l.8.2-.2-.7zm1.6 2.3h.7l-.2-.5zm-3.7.4l.2-.6h-.6zm-11.4-1.2l.2-.6-.6.1zm13.4.9l.2-.6-.6.1zm-2.8-5.2l.2.9.5-.4zm-1.5 4.8l.1.8.6-.5zm2.8-4.3l.4 1.6 1.2-.8zm-5.8 2.1l.1.8.6-.4zm-4.9 4.4l.2.8.5-.4zm0 7.5l.6-.7-.7-.2zm3 2l-.5-.6-.4.6zm2.2 2.2l-.1-.6-.4.3zm-1.1-5.1l.1.8.6-.4zm2.6 3.2l.2.9.7-.4zm1.9 4.5l.2.8.6-.4zm6.8-2.2l.1.8.6-.4zm-11.1-19.1h.7l-.3-.7zm1.8.4l.3-.6-.6.1zm-2.6.6l.4-.7-.7.1zm-10.2 1.1l-.1 1 .8-.3zm.7 2.3l.7.3v-.8zm-3.7-2.2v.9l.7-.3zm1.9 3.3l.2 1.1.7-.6zm1.3-5l-.5.9h1.1zm-1.5.8l-.4 1.1.9-.2zm-1.9 3.8l.2-.7-.7.1z"/><path d="M215.1 104.5l.2-.7-.6.2zm11.6 3l.2.8.5-.4zm-.2-2.9l.7.1-.2-.6zm-2.8 4.2l.3-.7-.6.1zm-.5-7.9l.7-1.1h-1.1zm4.9 3.2l.8-.4-.6-.4zm-.6-1.6l.8-.5-.7-.4zm4.2 6.1l-.1-.9-.6.5zm-.1-1.2l1.3.7v-1.4zm1.9-.4l.3.4.3-.5zm-3.7.3l.4.5.2-.6zm2.3-2.1l.4-.6-.6-.1zm-1.5-.5l-.2-.8-.6.5zm-1.1 2l-.3-.8-.5.6z"/><path d="M227.5 109.7l-.2-.8-.6.5zm2.1-5.7l-.2 1.5 1.3-.4zm-5.1-2.2l-.6.8.8.2zm-1.2 3.4l-.6.8 1 .3zm12.1 3.6l-.5.8.9.2zm-2.7 3.1l-.5.8.9.1zm-1.2-6.1l-.1.8.7-.2zm-4.7-2.7l.6.2v-.6zm1.4 2.3l.4-.6-.6-.1zm-2.6-.1l.4-.7h-.6zm2.6 3.3l.8.2-.1-.6zm2.3 11.5h.5l-.1-.4zm-3.3-2.4l.6.1-.2-.5zm2.9-4.2l.2.7.6-.5zm-5.3-1l-.2.9.7-.1zm6.5 3l-.3.8h.7zm-3.2-.3l.5-.5-.6-.2zm4.1 2l.4.6.3-.5zm-6.3-13.3l.4-.7h-.6zm-8.3.8l.7.4.2-.7zm2.9-.6l.2.8.6-.4zm-3.2-2.1l.3.9.6-.4zm2.2 1h.7l-.2-.6zm1.8.6l.3-.6-.6-.1zm-2.7.1l.4-.7-.6-.1zm.2-1.5l.3-.6-.6-.1zm11.5 7.2l.2-.7h-.6zm-9.6-4l1.5.8.1-1.6z"/><path d="M223.7 102.4l1.6.9v-1.6zm-4.8-1.6l-.4.9.9.1zm3.1 5.5l-.3 2.1 1.8-.6zm5.6-4.8l-.1 2.1 1.7-.6zm4.6 1l-.8 1.9 1.8-.1zm-8.5-2.3v2l1.7-.6zm-1.5 1.9l-.1 2.1 1.7-.6zm3.3.5l-.2 2.1 1.7-.6zm-5.4.2l.5 2 1.5-1.2z"/><path d="M219.8 101.8l.1 2.1 1.6-1zm7.8 5.9l1.4.8.1-1.6zm-8.5-2.9l1.2 1.2.5-1.5zm10.8 2.7l1 .4.1-1.1zm-5.4-1.2l.6-.8-.9-.2zm3.7 7.4l-.6-.8-.4.7zm-4.6 1.8l-.5 1.1 1 .1zm1.2-5.4l.8.5.1-.9zm-7.3 3.7l.8-.6-.8-.4zm10.2-4.3l-1.2-.1.2 1zm5.5-.3l-.4 1 .9-.1zm-5.5-6l.7.5.2-.9zm2.6.3l1.6.7.1-1.5zm-.1 1.4l1.7 2.2 1.1-2.2zm7.5 6.2l1.3 1.7.9-1.6zm-10.1-7.3l-.2 2.6 2.2-.8zm4.8 3.1l1.2 1.2.6-1.5zm1.5-1.4l1.1 1.3.7-1.5zm-12.2 4.3l-.6 1.1 1 .1zm-.6-1.5l-1.1-.3.3.9z"/><path d="M221.3 113.2l.7.6.2-.9zm5.6-6.3l.6.8.4-.9zm5.3.5l3-2.3-3-1.7zm-3.4-2.4l3.1-2.4-3-1.7zm-3-2.1l1.7-2.5-2.6-.5zm9.7 4.1l-1.1 1.8 1.9.2z"/><path d="M234.3 109.3l3.5-1.6-2.5-2.4zm-12.3-7.1l.9-2.5-2.3.1zm3.9 5.3l-1.7.1.6 1.4zm-16.7 4.9l1.5-.8-1.1-1z"/><path d="M208.4 108.2l1.7-.7-1.3-1zm.1 3.5l1.2 1.6.9-1.6zm.9-7.1l1.1 1.7 1-1.5zm3.9-2.5l.7 1.9 1.3-1.3z"/><path d="M204 106.3l1.6 1.4.5-1.8zm3.4 3l1.7 1.2.3-1.7zm.8-2.4l1.2 1.7.9-1.6zm-5.7 3l1.6 1.4.5-1.9zm17.4-4.5l.4 2.1 1.5-1.1zm-1.6.3l-2 .1.8 1.7z"/><path d="M219.8 104.8l-2-.4.5 1.8zm-8.6 4.4l1.7.1-.6-1.5zm-3.3 4.6l1.5-.8-1.3-1zm7.2-6.7l1.1-.5-.7-.7zm-4.7 2.8l-.2-1-.8.5zm7.7 2.8l-1-.2.1 1zm-4.3 4.4l.4 1 .7-.7zm-.7-4.6l1-.1-.5-.8zm-4.9 7.5l.1-1-.9.2zm13.7-1.8v1.3l1-.5zm1-5.2l1 .3-.2-.8zm-7.3 6.3l.5-1h-.8zm3.2-9.2l1.9 1v-2zm-2.3 3.5l.6-.8-.7-.2z"/><path d="M220.7 108.8l-1.1.5.8.7zm4.5-3.2l.1 1 .8-.4zm-7.9-2.2l1 .1-.3-.8zm16.4 10.6l-1.1.6.9.6zm4.2-3.7l.3 1 .7-.6zm-8.1-1.4h1l-.4-.8zm-13.5 1l-.8.9 1 .3zm2.8-5l.5.9.5-.8zm-8.1 1.5l.9-.4-.6-.6zm1-2.3l1.8.1-.6-1.4zm.5 1.4l2.4 1.3.2-2.4zm-2 .9l1.5 2.3 1.3-2zm7.8-4.9l.2 2.7 2.1-1zM216 105h1.7l-.6-1.5zm-.7-2.5l1.8.6-.3-1.6zm-6.8 11.7l.3 1.2.8-.7z"/><path d="M208.4 113.3l-.8.5.8.5zm2.1 3.6h1l-.5-.8zm7.1-14.7l-.3.9h.9zm-5.7 7.2l1 .1-.2-.8zm19.1-1.7l.5 2 1.4-1.1zm-11.9-4.9l.9-2.9-2.7.3zm-3.5.7l.3-2.9-2.8 1zm-3.6 1.3l.4-3-3.2 1.5zm-3.6 1.6l.3-2.9-2.8 1.6zm-3.6 2.4l-.6-2.6-2.3 1.7zm11.5 1l-.9.4.8.6zm.4 1.8l-1.4 1.1 1.5.6z"/><path d="M218.9 110.6l-.9.5.6.5zm-2.2-1.2l-.9.4.6.6zm-16.3 7l1.6-.8-1.2-1zm.1-3.8l1.6-.7-1.1-1zm-5.3 1.3l.3 1 .8-.7zm6.6 2l1.6 1.3.6-1.7zm-3.4-4.5l1.6 1.4.5-1.9zm.3 1.8l1.6 1.2.5-1.7z"/><path d="M201.8 111.3l1.5 1.4.6-1.8zm-6.3 4.6l1.5 1.2.5-1.8zm1.3-1.8l1.6 1.2.5-1.7zm3.4 3.7l1.5-.8-1.1-1zm9.6-7.3l1-.7-.8-.6zm-6.4 3.3l-.2-.9-.7.6zm8.1 1.5l-1-.1.3.9zm-.7 5l.6 1 .6-.8zm-3.7-4.1l.9-.3-.6-.7zm-1.2 8.2l-.1-1-.7.4zm-.8-5.8l.5 1.1.6-.8zm-2.3-.8l-.7.7.8.3zm5.3 3.6l1.1-.2-.6-.7zm-6.1-10.7l-.5-2.6-2.5 2.1zm-3.1 2.7l-.4-2.7-2.4 2.1zm-11.3 16.5l1.5-.8-1.3-1zm-1.4-2.5l1.6-1-1.3-.8zm-2.8 2.1l1.5-.8-1.2-1zm1.7-.3l1.5-.8-1.3-1zm3.9-1.8l1.7 1.3.3-1.8z"/><path d="M187.3 123.5l1.6 1.2.4-1.8zm1.9-3.1l1.7 1 .3-1.7zm-4.1 7.9l-1-2.6-1.7 1.7zm-1.1 2l1.7 1.2.3-1.8zm3.1-4.8l1.7 1.2.4-1.9zm-5.5 6.5l1.5 1.4.6-1.8zm15-14.6l1.5 1.3.5-1.8zm-2 1.9l-1.7 1.1 1.5 1.1zm1.2-2.3l-1.8 1.1 1.6.9zm-4.6 7.1l1.6-.7-1.1-1zm-7 9.4l1.6-.6-1.2-1.1zm-2.2-2.2l1.6-.9-1.3-.9zm15.5-11.2l.9-.8-1-.6zm-3.7 4.2l-.4-.8-.6.6z"/><path d="M202.3 124.3l-1.1.2.5.7zm-4.1-4.8l2.1-.6-1.2-1.5zm1.3 6.3v-1l-.8.4zm3.2-3l-.5 1.1h1.1zm1.3-5.5l.7.7.2-.9zm-7.3 3.7l.8-.5-.9-.5zm11.7-1.2l-.3 1.1 1.1-.1zm2.4-5.3l.9.4v-.9zm-8.7 4.8l.7-.8-.9-.3zm-12 2.9l1.5-.8-1.2-1z"/><path d="M190.6 122.2l2.7.1-.9-2.2zm-1.6 2.3l1.9 1.8.9-2.3zm6.5-9.5l2.1 1.7.7-2.3zm-2.4 5.4l1.5-.9-1.2-1z"/><path d="M192.2 118.5l1.5-.8-1.2-1zm-3.7 14.5l-.8.6.8.4zm4.9-16l.4.9.6-.6zm-3.2 9h1l-.4-.7z"/><path d="M195.6 117l-.8-2.9-2.3 2.4zm-2.1 3.5l-1.6-3.5-2.2 2.7zm-2.7 2.9l-1.5-3.4-2.4 2.5zm-2.9 3l-1.3-3.6-2.6 2.9zm-3.8 4.5l-1.7-3.5-2.2 2.5zm12.8-7.8l-.4.9h.8zm-3.1-1.7l-.5 1.6 1.4-.1zm-1.3 4.6l-.5 1.1 1-.1z"/><path d="M199.2 122l-.3.9.8-.1zm-2.4.6l-.3.8.8.1zm-2 1.2l-1.7.7 1.1 1.2zm-11.9 9.1l-1.7 1 1.4 1zm3.1 2.9l-.4.9 1 .1zm1.5-4.9l.7.6.2-.8zm-6.9 2.9l.8-.5-.6-.4zm16.1-1.3l-.5.9 1 .1z"/><path d="M198.1 127.6l.7.7.3-.9zm-7 2.8l.8-.5-.7-.4zm-9.3 8.2l-.3 1.1 1-.1zm7-6.5l.8.5.1-.8zm-7.4 5.4l.6-.6-.8-.3zm-1.4-4.6l.2.8.6-.5zm2.1.1l-1.7-3.1-2.1 2.3zm-4.5 3.5l1.5 1.3.6-1.7zm.4-.8l1.5-.8-1.2-.9z"/><path d="M180.1 135.4l-1.7-3.5-2.2 2.5zm-2 2.6l-1.7.9 1.4 1.1zm-1.5.3l.8-.5-.7-.4zm4.3-1.7l.6-.6-.8-.4z"/><path d="M175.9 137.3l.3.9.6-.5zm2.1.2l-1.6-3.1-2.2 2.3z"/></g><g fill="#283749"><path d="M190 219.6l-12.3 1.6c-.6.2-1 .6-1 1.2l.8 5.3c.2.6.6 1 1.2 1l12-1.4c.6-.2 1-.6 1-1.2l-.4-5.4c-.2-.7-.8-1.2-1.3-1.1z"/><path d="M179.1 221.5c.3-.9 1.2-1.5 2.1-1.6l4.6-.5c1.3-.1 2.6.9 2.7 2.3l.5 4.6c.1.4 0 .8-.1 1-.3.9-1.2 1.5-2.1 1.6l-4.6.5c-.6.1-1.3-.2-1.9-.5-.5-.3-.8-1-.9-1.7l-.5-4.6c0-.5.1-.9.2-1.1z"/></g><path d="M188.4 227.1c-.2.6-.9 1.2-1.7 1.3l-4.6.5c-1.1.2-2.1-.7-2.1-1.8l-.5-4.6c0-.3.1-.6.1-.9.2-.6.9-1.2 1.7-1.3l4.6-.5c1.1-.2 2.1.7 2.1 1.8l.5 4.6c-.1.3 0 .6-.1.9m.9.3h0c.1-.4.2-.9.2-1.3l-.5-4.6c-.1-.8-.4-1.5-1.1-2-.6-.5-1.4-.7-2.2-.7l-4.6.5c-1.1.2-2.2.8-2.6 2-.1.4-.2.9-.2 1.3l.5 4.6c.1 1.6 1.6 2.8 3.2 2.6l4.6-.5c1.3 0 2.3-.7 2.7-1.9h0z" fill="#d3d3d3"/></svg>