<svg xmlns="http://www.w3.org/2000/svg" viewBox="0 0 480 480" xmlns:v="https://vecta.io/nano"><path d="M238.2 127.5s6 22.4 12.2 41.8c1.5 6.6 4 11.2 6.6 15 3.2 4.5 10.4 9.1 23.1 15.6 18.8 9.7 40.3 17.4 40.3 17.4s5 5 12.6 5.7c7.7.8 8.9 1.3 10 1.1 1.7-.5.7-2 .7-2s2.2.2 2.9-1.1c.6-1.1-.7-1.9-.7-1.9s1.4-.1 1.5-1.3c0-.9-2.2-2-4.7-2.9-2.1-.8-6.4-3.9-7.3-4.4-.9-.4 1.8-.6 3.4-.6 1.8-.1 3.5-1.3.4-2.1-3-.8-5.4-1.8-6.2-1.9-.9-.2-4-.9-6.2-.7-1.5.1-3.9 1.3-6.9-.4-5.3-2.6-17.8-12.7-25.6-18.8-5.6-4.5-13.6-10.2-15.5-13.3-5.2-12.2-16.6-49.6-16.6-49.6l-24 4.4z" fill="#ea9d7d"/><linearGradient id="A" gradientUnits="userSpaceOnUse" x1="331.845" y1="204.515" x2="335.316" y2="200.576"><stop offset="0" stop-color="#cc7a5e" stop-opacity="0"/><stop offset=".924" stop-color="#aa5f4b"/></linearGradient><path d="M318.4 204.7l4 1.4s1.8-.7 4.8-.8c3-.2 10.5 2 12.3 2.3 1.7.3 1.6.9 1.5 1.4 0 .5-.8.9-1.6 1s-4.8.1-4.8.1-2.2 2.5-5.6 2.5c-3.1-.1-5.5-3-5.5-3l-5.1-4.9z" fill="url(#A)"/><linearGradient id="B" gradientUnits="userSpaceOnUse" x1="283.212" y1="187.334" x2="298.603" y2="169.071"><stop offset="0" stop-color="#cc7a5e" stop-opacity="0"/><stop offset=".924" stop-color="#aa5f4b"/></linearGradient><path d="M272 154.5l-12.9-4.1s-1.1-.4-1.2 10.7c2.1 10.5 9.5 21.7 12 24.5 3.1 3.2 28.6 17.4 38.4 22.5 8.8 4.6 7.1 4.6 10.6 1 1.4-1.5 3.9-3.1 3.9-3.1l-4.4-1.6-32.7-24.4c-1.5-1.2-5.4-4.2-6.1-5.5-3-4-7.6-20-7.6-20z" fill="url(#B)"/><linearGradient id="C" gradientUnits="userSpaceOnUse" x1="263.967" y1="172.751" x2="263.312" y2="149.16"><stop offset="0" stop-color="#cc7a5e" stop-opacity="0"/><stop offset=".924" stop-color="#aa5f4b"/></linearGradient><path d="M255.1 180.9l6.9-1.5c11.1-2.1 16.9-5.2 16.9-5.2l-7.2-20.5-22.9 8.6c-.2 2.7 3.5 14 6.3 18.6z" fill="url(#C)"/><g fill="#cc7a5e"><path d="M346.8 221.1c-.73 1.82-2.95.87-3.25.77s-.45-.27-.35-.57.2-.48.5-.38c.92.32 1.9.7 2.2-.12.28-.73-.54-1.14-.74-1.24-.2-.2-.26-.26-.06-.46.1-.2.32-.36.32-.36s.58-.04.88-.24c.2-.2.2-.3.2-.7-.07-.52-.7-1.26-3.2-2.36-3.3-1.5-8.8-4.84-9-4.94-.2-.2-.3-.4-.2-.6s.03-.28.23-.38c1.7.1 5.17.18 5.97-.22.1-.1.26-.22.2-.3-.68-.95-3.55-1.45-4.4-1.7-2.8-.9-6.5-2.1-9.2-1.6-2.8.5-4.6.8-6.4.1-1.7-.7-2.6-1.2-21-15.1-18.1-13.6-19.6-15.8-19.7-15.9-.6-.6-1.7-2.5-1.6-2.6.3-.1 1.5 1.1 2.4 2 .1.1 1.9 2.5 19.5 15.7 18.2 13.7 19.2 14.4 20.8 14.9 1.5.5 3.2.3 5.8-.2 3-.6 6.9.8 9.7 1.7 4.1 1.1 4.86 1.84 5 2.4.1.44-.12.9-.52 1.2-.8.6-2.88.5-4.48.5 1.9 1.2 5.1 3.1 7.2 4.1 2.8 1.3 3.82 2.13 3.88 3.22.06 1.23-.7 1.35-1.04 1.42.4.67.7 1.15.36 1.96z"/><path d="M346 219.4h0c-.1.3-.4.4-.6.3l-9.8-4.2c-.3-.1-.4-.4-.3-.6.1-.3.4-.4.6-.3l9.8 4.2c.3 0 .4.3.3.6zm-2 2.1h0c-.1.3-.3.4-.6.3l-8.6-3.3c-.3-.1-.4-.3-.3-.6s.3-.4.6-.3l8.6 3.3c.3.1.4.4.3.6z"/></g><linearGradient id="D" gradientUnits="userSpaceOnUse" x1="329.53" y1="216.851" x2="329.04" y2="208.077"><stop offset="0" stop-color="#cc7a5e" stop-opacity="0"/><stop offset=".924" stop-color="#aa5f4b"/></linearGradient><path d="M325.8 212s-2.7 2.4-1.1 5c1.3 2.3 4.2 2.6 5.6 2.5 2.4-.3 4.5-3.4 4.3-5.5 0-2.2-1-2.5-1-2.5s-1.9 1.5-3.8 1.7c-2.6.2-4-1.2-4-1.2z" fill="url(#D)"/><path d="M334.8 219.1c-.1.4-.34.77-.5 1.3-.1.3-.4.4-.6.3-.3-.1-.4-.4-.3-.6.1-.4.3-.7.4-1 .4-.8.76-1.6 1.06-2.7l.94-3.4c.1-.3.3-.4.6-.4s.4.3.4.6c.08-.17-1.35 4.6-2 5.9zm.2-8.8h0c-.1.2-1.5 2.3-4.7 3-3 .6-5.2-1.5-5.4-1.6-.2-.2-.3-.5 0-.7.2-.2.5-.3.7 0 0 0 1.9 1.8 4.4 1.3 2.7-.6 4-2.5 4-2.5.2-.3.4-.3.7-.1.3.1.3.4.3.6z" fill="#cc7a5e"/><g fill="#af6b56"><path d="M279.4 174.6l1 1.3-1.4.1zm3.6 5.4l.4 1.1-1.3-.3zm4.6 2.1l-1.2.4.2-1.2zm-2-1.7l-1.2.4.2-1.2zm10.7 9l-.9.3.2-1zm-15-7.4l.9-.3-.8-.5zm1.6 1.7l.8-.5-.7-.4zm3.2 2.2l1 .3-.2-.9zm.3-1.4l.7-.5-.7-.4zm6.1 3.4l.9.4-.1-.9zm-3.3-2.9l.8.3-.2-.8zm.2 2.2l.7.2-.1-.6zm-5-1.2l.7.3-.1-.7zm-5.1-4.8l.7.3-.1-.8zm.3-3.7h1l-.5-.8zm2.6 1.9l.9.2-.2-.8zm-1.6-2.2l.8-.4-.6-.5zm-1.7 1.6l.8-.5-.7-.3z"/><path d="M279.4 178.3h1.1l-.6 1zm-1.1-.2l.3.9-1-.1zm-.1-5.1l.1.9-.7-.4zm-1.7 6.1l.3.8-.7-.1zm2.6-2.6l-.1.8-.6-.5z"/><path d="M278.7 176.6l1 .1-.5.8zm2.4 2l1.1.2-.8.8zm-10.5-18.9l1.4-.5-.4 1.6zm.3 3.2l1.5.1-.8 1.2zm5.5 4.9l-1.5-.3 1-1zm1.9 5.5l-1.2-.2.8-1zm-5-5.9l-1.4-.1.7-1.1zm2.4-1.6l-1.3-.2.8-1.4zm-3.2-.1l-1.3.1.4-1.1zm2.6-2.2l-1.4-.3.9-.9zm-2.1-2.2l1.1.7-1 .6zm-.6 9l-.6-1h1.2zm-.4-1.4l-.5-1h1zm2.7 1.7l-.6-1 1-.1zm-2.3 1.7l-.5-1h1zm-.1 1.5l-.4-.9.7.1zm4.6-1.3l-.5-.9.9-.1zm1.7 3.5l-.4-1 .9.1zm-3.4-3l-.4-.8.8-.1zm1.3 2.7l-.8-.3.5-.6zm.7-5.4l-1-.3.5-.6zm-2.2 3.6l-.8.4-.2-.8zm-1.7 1.3l-.9.4-.2-.8zm0 3.5l-.7.4v-.6zm2.1-1.4l-.1.9-.6-.3zm-2.5-13.6v.9l-.7-.3zm-.2-3.4l1-.4-.1.9zm1.3 14.9l.2.4h-.4zm-.9 4l.3-.1v.4zm4.2-.7l.1.4-.4-.2zm-1.1-6.2l.2.2-.3.3zm.9 4l.3-.2.1.4zm2.2 1.7h.3l-.2.2zm1.7 2.5l.1-.2.2.2zm-.3-.8l.4.2v-.4zm.8-2.8l-.1.4.3-.1zm2.3 2.9h-.3l.1.4zm-7.1-8.3v-.5l-.4.1zm-2.9.2h.4l-.2-.4zm1.7-3.3l.2.3.3-.2zm3.8 11.3v-.2l-.2.1zm-1.4-1.5l.2.1.1-.1zm13.2 8.4v-.3l-.2.2zm-3.2.2l.2-.1-.2-.2zm1-2.7l.2.3.2-.3zm-1.4.6l.2-.3h-.5zm-3.2-2.3l.2.1v-.5zm1 5.4l.2-.4h-.4zm-3.2-2.5l.3.1-.1-.3zm3.1-1.6l.1.4.1-.2zm7.9 9.8l.3-.5-.6.1zm-3.8-2.8h.3l-.1-.4zm3.7-2v.3l.3-.1zm-13.1-2.2l.2-.2h-.3zm-2.5-1.9l.3-.1-.1-.1zm2.5-1.4v.3l.2-.1zm-.6 1.5l.2.1-.1-.4zm.7-3l-.1.1.3-.1zm2.1 1.5l-.3.2.3.1zm-1.3-7.1l.4-.2-.3-.2zm-2-1.8l.4.2v-.3zm-.4 6.9l-.2-.3-.1.4z"/></g><path d="M315.4 202.4l-4.2 11.7c-.2.6.2 1.1.6 1.4l5 1.7c.6.2 1.1-.2 1.4-.6l4.2-11.2c.2-.6-.2-1.1-.6-1.4l-5-2.1c-.5-.4-1.2 0-1.4.5z" fill="#ffcce1"/><linearGradient id="E" gradientUnits="userSpaceOnUse" x1="267.157" y1="125.098" x2="226.756" y2="141.676"><stop offset="0" stop-color="#ed89ae"/><stop offset="1" stop-color="#f4c0ca"/></linearGradient><path d="M235.4 175.2s-6.4-19.5-7.7-32.3c-1.2-12.9-11.2-35.2 3.3-40 15.3-5.3 30.6 14.4 38.8 29.8 5.3 10.6 9.2 22.6 9.2 22.6l-43.6 19.9z" fill="url(#E)"/><linearGradient id="F" gradientUnits="userSpaceOnUse" x1="276.921" y1="167.061" x2="236.388" y2="157.802"><stop offset=".007" stop-color="#ff9f00"/><stop offset=".983" stop-color="#ffd86b"/></linearGradient><path d="M277 149.4l-43.4 20.1 2 5.8 43.8-19.6z" fill="url(#F)"/><g fill="#ffcce1"><path d="M237.9 158.3h1.2l-.8-1.2zm-1.7.9l1-.1-.7-1.1zm-.9-2.1l1-.1-.6-1zm.8.8l1.2-.1-.8-1zm3.4 2.2l.3-1.2-1.4.2zm-2.5 2l.4-1.2-1.6.2zm.4 3l.4-1.2-1.6.2zm-3.1-7.9l.4 1.5 1.5-1.2zm3.1-.6l.3-1.1-1.4.1zm.2 3.9l.3-1.2-1.3.2zm-1.3-5.5l.3-1.3-1.4.2zm4.5 9.7l-1.4.3.8 1.2zm-2.4 2.5H237l.8 1.4zm-.1-4l1.1-.2-.8-1zm-1.4-7.9l1.1-.2-.7-1zm-2.1.2l1.1-.1-.6-1zm5.9 11.4h.6l-.4-.8zm-1.3-4.8l.1.7.7-.5zm5.8 1.9l-.4.3.5.4zm-.8-.3l.4.4.3-.6zm-2.5-2.9l.6.4.2-.8zm-1.3-7l.4.6.4-.6zm3.6-3.2l-.5.4.6.2zm-.4 6.9l-.4.4.7.2zm1.3-.9l-.6-.2v.7zm-.4-2l-.2.7.6-.1zm2.7 1.3l-.2.6.7-.1zm-10.5 8.1l1-.2-.6-1z"/><path d="M238.1 164.9l1.3-1.2-1.7-.8zm.7-2.6l.5-1.7-1.8.3zm-.3 4.2l1.1-.4-.9-.9zm-1.1.8l1.1-.2-.8-1z"/><path d="M240.2 155.7l-.7-.2.1.7zm-1.4 11.7l-.3-.5-.5.5zm0-6.3l.5-.3-.6-.4zm-2.4 3.5l.7 2.4 2-1.8zm-1-2.9l.7 2.4 2.1-1.8zm-.8-2.9l.7 2.5 2-1.8zm-.8-3.9l.5 2.3 2.2-1.6zm9.3 9.1l-.5-.3-.1.7zm-1.9-.1l-.9-.5.1 1.3zm-.6-3.3l-.5-.3v.7zm3.7 4.8l-.5-.2-.1.7zm-6.5-14.4l.7.2v-.8zm-4.1-6.6l.5.5.4-.8zm1.2-3l-.3.6h.8zm-1.9-3.3l-.3.6.6.1zm-1.4-2.8l-.4.5.8.1z"/><path d="M238.9 148.3l-.6-.2.1.8zm-2.7-.4l-.7-.2.1.8zm-2.5-1.6l1.3.5-.1-1.5zm5.1-2l-.1.7.6-.3zm-6.4-7.5v.6l.6-.2zm-1.1-2.5l-.1.7.8-.2zm6.2 11.2l-.2-.6-.5.5zm-1.9-.6l-.1-.7-.6.6zm4.6 7.3l-.1-.5-.6.4zm2.7 12.1l-.5-.2v.6zM232 145.7h.8l-.4-.7zm1.9 2.7l.4-.9h-1.1zm-.3 2.3l.4-1.1-1.2.1zm-1.8-6l.7-.5-.8-.5zm5.1 5.6l-1.3.1.6 1.1zm0 2.4h-1.2l.7 1.2z"/><path d="M239.9 153.1l-.6-.4v.8zm-1.1 4.2l.2-.6-.7.1zm-3.7-4.2h.5l-.2-.5zm-1.4-3.1l.9-.3-.6-.8z"/><path d="M234.5 151.1l1-.9-1.4-.6zm.1.5l1-.1-.5-.8zm-1.1 1.2h1.1l-.7-1z"/><path d="M235.2 153l-.2-.6-.5.5zm-1.7-.2l.4 2.2 2.3-1.3zm-.7-2.3l.4 1.9 1.8-1.1zm-.4-2.2l.4 1.7 1.6-1.1zm-.9-6.3l.1 1.5 1.5-.8zm.5 4.1l.3 1.6 1.5-.9zm-.3-6.9l.4.3.2-.6zm1.3 2l1 .4-.1-1.2z"/><path d="M231.3 136.8l1 .5-.1-1.3zm1.3 5.2l.4-.8h-.9zm-1.3-2.1l.1 1.4 1.3-.8zm-.2-2.5l.2 1 .9-.5z"/></g><linearGradient id="G" gradientUnits="userSpaceOnUse" x1="223.909" y1="154.96" x2="283.317" y2="160.938"><stop offset="0" stop-color="#ed89ae"/><stop offset="1" stop-color="#f4c0ca"/></linearGradient><path d="M195.1 207.8h79.3s-5.4-49.2-8.2-65.6c-3.5-20.6-18.9-43.3-39.3-42.4-4.1.1-13.1.3-18.6 38.1-2 11.7-13.2 69.9-13.2 69.9z" fill="url(#G)"/><linearGradient id="H" gradientUnits="userSpaceOnUse" x1="240.979" y1="171.651" x2="194.223" y2="153.058"><stop offset=".01" stop-color="#bc547a" stop-opacity="0"/><stop offset=".985" stop-color="#bc547a"/></linearGradient><path d="M243.7 118.3s7.2 24.4 4.6 64.1c-2.7 21.7-7 25.4-7 25.4H195l9.9-49.8 38.8-39.7z" fill="url(#H)"/><g fill="#c65d80"><path d="M228.5 163l1.3-.7-1-.8zm-.5-3.9l1-1-1.1-.5zm-24.1 12.2l1.5.9.2-1.5zm7.8 2.9l1.4-1.1-1.3-.8zm-7.2-5.9l1.4.9.2-1.5z"/><path d="M204.1 167.6l1.5.9.2-1.5zm3.1 1.7l1.6 1.1.2-1.6zm4 1.4l1.5 1 .2-1.6zm17.3-15.1l1.5.8.1-1.6zm-24.6 9.3l1.2 1.4.6-1.4zm22.5-6.6l1.4 1.1.3-1.5zm1.5 1.3l1.4 1 .3-1.4zm.8-1.9l1.5.7.1-1.5zm-2.4 4.4l1.7.6-.1-1.5z"/><path d="M225.6 161.9l1.4.8.2-1.6zm1.7 1.9l1.4-.3-.8-1zm-20.9 4.9l.8-.7-.8-.4zm-1.7.9l-.3-.8-.5.5zm5.6 2.8l-.8.1.3.7zm.9 1.5l.6.8.4-.7zm-5-.4l.8-.3-.5-.5zm1.2 4.3l-.1-.9-.6.4z"/><path d="M209.9 173.6l-.6.9.9.1zm.5-1.7l.6.7.2-.8zm-5.2-.9l.8-.4-.7-.4zm-1-3.6l2.2-.3-1.1-1.8zm2.5 18.1l1.4-1-1.4-.8zm-.2-18.9l1.4-.5-.9-1zm-.8-1.1l1.4-.6-1-.9zm.5 7.5l.6.9.4-.8z"/><path d="M230.6 164.1l-.7.6.8.2zm-22.1 10.6l.8-.3-.5-.5zm-3.8-4l.9-.2-.5-.6zm1.7-6.4l-2.4-2.4-.5 2.6zm25.4-8.7l-1.7-2.8-1.7 2.5zm-2.1 2.6l-1.5-2.7-1.8 2.3zm-1.8 2.6l-1.6-2.8-1.8 2.3z"/><path d="M226.1 163l-1.6-2.7-1.8 2.3z"/><path d="M224.3 165.4l-1.5-3-1.9 2.4zm-17.9 3.4l-.6 1.3h1.2zm2.2 4.2l-.7 1.3 1.2.1zm-3.3 14.8l-1.1 1.1 1.3.3z"/><path d="M228.1 163.4l1.5.9.1-1.6zm-.5-.1l-1.3 1.2 1.5.6zm-6.5 1.4l-1.2 1.3 1.5.5zm2.3.8l-1.3 1.3 1.5.5zm1.5-2.3l-1.2 1.3 1.4.5zm2 4.4l.2-1-.9.2zm-.3 4.7l-.8-.4-.2.8zm-22.2 6l-.6.6.6.3zm9.3-3.6l1 .5v-1zm-4.6-1.2l.6-.7-.8-.2zm2.7 6.3l-.5-.6-.4.6zm12.4-11.2l1.4-1.2-1.5-.6zm-17.3 9.9l-.3-.8-.6.5zm-3.3-4l-.4.9h.9zm.8-4.9l.8.5.1-.8zm21-5.3l.6-.6-.7-.2z"/><path d="M204.7 191.8l-.6-.9-.5.8zm3.7 4l-.9.2.6.5zm.6-8.5l.1.8.7-.2zm-2.6.5l-.5-1-.5.8zm3.2 3.4l-.8.3.5.5zm.8-6.7v.9l.8-.3zm4.1-8.4l.3 1.1.6-.6zm-1.2-2.7l.9-.1-.4-.7zm-1.4 3.8l.2-.8-.8.2zm15.2-1.1l-.7.7.8.3zm1.3-7.2l-.6.8.8.2zm1.2 3.2l.4.7.5-.7zm-6.9.8l.8-.2-.5-.5zm1.9-10.2l2 1.2.2-2zm.3-1.4l1.7.6-.1-1.5zm-.1 3.6l.5 1.5.9-.9zm-19.1 10.5l-.1.9.7-.3zm2.5 3.5l.2 1.2.8-.6zm-2.1-4.9l1 .1-.2-.8zm24.5-2.8l.2-1-.9.3zm-8.1-3.5v-1.4l-1.2.6zm-3 1.5l1.2-.7-.9-.8z"/><path d="M221 169.4v-1.5l-1.3.5z"/><path d="M219.8 167.9l-1.4 1.8 2 .4z"/><path d="M220.2 165.8l-1.8 2 2.2.5zm-.2 4.1l1.4 1 .3-1.5zm-2.3 1.3l1.3 1.3.5-1.5zm2.2 1.3l1.4-.5-1-.9zm-1.8-1.9l1.3-.7-1-.8zm6-1.7l.1.8.6-.4z"/><path d="M219.9 170.7l-1.4-3-1.9 2zm-18.1 18.9h1l-.5-.8zm-1.7-1.8l.7 1.2.7-1.1zm.7-1.4l.8 1 .6-1.1z"/><path d="M202.8 189.3l.6.9.6-.8zm14.3-14.6l-1.4.7 1.1 1zM202.9 186l-1.5.5.9 1zm16-13.9l-1.5.7 1.2.9zm2.7 2.3l-.5.9h.8zm1.1-4.1l.6.6.3-.7zm-5.8 2.5l.6-.5-.5-.3zm-2.6 5.9l-.5.8.9.1zm5.2-3.9l.6.5.2-.6zM205 192.3l.8-.3-.5-.4zm-2 5.5l-.7 1.1 1 .3zm9.4-19.6l.5.6.3-.6zm-11.3 17.2l.7-.3-.4-.5zm21.5-17.1l-.5.8.8.1zm1.2-4.1l.5.5.3-.7zm-5.9 2.4l.8-.3-.6-.5z"/><path d="M215.5 177.7l1.1.2-.2-.9zm-.7 2.2l.4-.8h-.7zm-.1 3.1l-.6-.6-.2.7zm-1 3.1l.9-.4-.8-.6zm3.1-8.1l.9.1-.3-.8zm-2.3 7l.4-.7-.7.1zm2.5-3h.9l-.2-.7zm-1.7-.5l.2-.8-.7.2zm-.7 7.4l-.7-.4v.7zm16.7-29.4l.1.8.7-.3zm.6 3.8l-.9.3.6.6zm.8-6.6v.8l.8-.3zm3.2 1.5l1-.4-.8-.6zm3.4-2.4l.3-.7-.7.1zm-2.4 5.2l-.7-.4v.7zm-25.8 20l-.7.7.7.3zm19.3-5.7l-.4.8.8.1zm-26.3 6.1l.4.7.4-.6zm24.4-6.7l.6.7.2-.6zm-22.2 7.8l-.5.8.7.2zm-3.2 1.6l.9.4v-.9zm21.2-5.9l-.6-.5-.2.7zm-4.9 4.9l.9-.5-.8-.5zm-13.2 7.2l.9.3-.2-.9zm-2.7-2.7l.5-.6-.7-.2zm3 10.7l-.5-.5-.3.7zm-2-11.8l.9.1-.2-.8zm28.9-21.5l.1-.8h-.7zm-27 27.5l-.6-.4-.1.7zm-5.3-7.7l1.2-.1-.5-.9zm7.5-8l1.8.5-.3-1.6zm6.7-2.1l1.2-.4-.8-.8zm-.4-2.1l1.3-.6-.9-.8zm1.5-.7l.1.8.5-.4z"/><path d="M218.3 172.1l-1.5-2.6-1.8 2zm-16 10.5l-2-1.4-.4 2.4zm-.7 2.7l-1.9-1.5-.4 2.3zm-.4 2.2l-1.9-1.3-.3 1.9zm.5-5.4l2-.2-.9-1.6zm-1 16.2l2-.2-.8-1.6zm5.9-16.6l1.5 1.2.4-1.7zm-2.3-8.4l1.5 1.5.6-1.7zm-3.3 17.5l1.4-.2-.7-1.1z"/><path d="M201.9 190.8h1.4l-.6-1.2zm-.7.8l.9 1.5.9-1.3zm-2.2 1.2l.7 1.6 1.1-1.2zm1.3 1.5h1.5l-.6-1.2zm-1.1 3.4h1.5l-.6-1.2zm23.2-28l1.4-.2-.7-1zm4.1 2l1.5-.1-.8-1.1zm6.5-10.9l1.5-.1-.7-1.1zm-26.2 11.3l2.2-.3-1-1.5zm-2.8 22.1h1.5l-.6-1.2zm-4.9 1.2l1.4-.1-.6-1.1zm.1-3.8l1.4-.2-.7-1.1z"/><path d="M203.2 194.9l-.8.2.6.6zm-1.6-4.9l-2.6-1.9-.6 2.6zm-1.7 4.2l-1.5.3.7 1.2zm7.6-19.6l-.8-.4-.1.8zm5.7-1.8l-.4.6.6.2zm-4.3-2.8l.5.6.3-.7zm-2.6-2.2l.7 1 .5-.9zm3 .1l.5 1.2.9-.8z"/><path d="M209.7 169.3l-.7.3.4.5zm.6 1.5l2-1.2-1.6-1.4zm-2.1-1.7l2.4-1.1-1.7-1.5zm5.8 5l2-1.3-1.6-1.4z"/><path d="M212.2 172.6l2.7-.6-2.1-2zm-5.7-5l2.4-1.1-1.7-1.6zm-9.4 30.7l2.3-1.3-1.9-1.4zm.9-4.9l2.3-1.3-1.9-1.5zm6.1-15.9l1.1-.1-.5-.7zm-1.7-1.8l.7 1.2.7-1.1zm.7-1.4l.9 1 .5-1.2zm2 2.9l.6.9.6-.8z"/><path d="M205.2 173.9l-1.4.5.8 1zm.2-1.9l.9.4v-.9zm.5 3.5l.4-.6-.7-.2zm-2.5-2.8l1.2-.1-.4-.9zm1.2-2.2l-2-1.4-.4 2.3zm.5-2.5l-2-1.5-.4 2.4z"/><path d="M205.5 165.8l-2.1-1.4-.4 2.3zm-1.6 7.4l-1.8-1.5-.5 2.3zm-.4 2.2l-1.8-1.3-.4 1.9zm.5-5.4l2-.2-.9-1.6zm-.7 8.7l1.4-.2-.6-1.1z"/><path d="M204.2 178.7h1.4l-.5-1.2zm-2.7.8l1.4-.2-.7-1.1z"/><path d="M203.9 177.9l-2.6-1.9-.5 2.6z"/><path d="M200.3 181.3l2.3-1.4-1.9-1.4zm-2.8 14.5l2.3-1.2-1.8-1.4zm2.2 3.5l1 1.5.8-1.3zm28.7-32.4l1 1.5.8-1.4zm2-9l1.1 1.4.7-1.3zm-3 7.3l-.4 1.7 1.5-.4zm-2.5 4.6l-.3 1.7 1.4-.4zm-15.4 3.4l-.2 1.8 1.5-.5zm-6.7 22.1l-.4 1.8 1.6-.4zm35.9-53.8l.9-.2-.5-.7zm1.2 7.3l-1.3.5 1.1.8zm-2 3.4l-.1-1-.8.5zm6.8-18.2l-.2.8.7-.1zm-3.7 15.1l-.1-1.1-.8.6zm2.2-10.2h-.9l.3.7zm-.5-4.8l-.3.7h.9zm-6.6 15l1 .3-.2-.9zm-.9-2.3l.2 1.3 1-.6zm1.1-1.1l.4 1.3 1-.9zm.8 3.5l.2 1.1.9-.6z"/><path d="M238.4 146.1h-1.5l.4 1.3zm-.3 6.7h.8l-.3-.6zm-4.8 1.4h.8l-.2-.6zm11.1-13.3l-1 .4.6.6zm-3.2 1.4l.1.8.6-.4zm2.4-5.4l.1.7.6-.3zm-.7 7.3l-.8.5.6.5zm-3.7.3l.8.7.3-.9zm.7 6.9l.7.5.2-.8zm-1.5-3.5l.7-.4-.6-.4zm1.3-.7l.8.5.2-.9zm-.4 6.3l-.4-.6-.4.6zm-2.1-9.1l1.1.4v-1.1zm1.5-2l-1.1-1.5-.9 1.5zm-1.4 2.2l-1-1.6-1 1.6zm-1 2.3l-1.3-1.8-1 1.6zm3.1-5l.9.3-.1-.9zm1.6-2.3l.9.3-.1-.9zm-.2-2.2l.9.3-.1-.9zm-5.9 12.6l1.4.3-.2-1.3z"/><path d="M235.7 150.3l1.3.5-.1-1.3zm-.9.4l.3 1.8 1.3-.9zm-2.5.4l.1 1.7 1.4-.7zm.7 1.8l1.4.6-.2-1.4zm3.4 1.3l1.4.6-.1-1.3zm-5-.6l1.4.4-.1-1.3zm1.5-3.6l1.4.3-.2-1.2zm2.5 4.6l-.7-.1.2.7z"/><path d="M235.2 148.9l-1.3-2-1 1.7zm-2.5 3.8l-1.6-.2.3 1.4zm-1.5-1.4l2.6-.4-1.3-2.1zm6.9-11.7l1.6-.3-.8-1.2z"/><path d="M229.8 153.4l2.6-.4-1.2-2zm3.3.8l-1.1 1.5 1.6.3zM212 175.4l1 1.5.8-1.4zm-6.9 5.1l1.7-.4-1-1.2zm-.8 17.1l1.7-.4-.9-1.2zm2.1-21.1l1.5 1 .3-1.4zm-8.7 21.7l.7 1.6 1.1-1.2z"/><path d="M196.6 201.1l2.2-1.4-1.8-1.3z"/></g><linearGradient id="I" gradientUnits="userSpaceOnUse" x1="193.279" y1="204.6" x2="272.679" y2="204.6"><stop offset=".007" stop-color="#ff9f00"/><stop offset=".983" stop-color="#ffd86b"/></linearGradient><path d="M274.5 208l-79.4-.2 1.2-6.6h77.4z" fill="url(#I)"/><path d="M210.8 115.7s-15.6 17.1-28.6 32.8c-4.7 4.8-7.3 9.4-9.1 13.7-2.1 5.2-2.1 13.6-.7 27.8 2 21.1 7.1 43.3 7.1 43.3s-1.5 6.9 2 13.7c3.4 7 4.42 8.08 5.22 8.88 1.3 1.2 2.3-.78 2.3-.78s.3 2.4 1.7 2.3c1.2-.1 1.63-1.7 1.63-1.7s.6 1.08 1.7.48c.7-.5-.01-2.98-.6-5.68-.5-2.2-.35-7-.35-8-.2-1 1.45 1.2 2.35 2.6 1.1 1.5 3.1 1.7 2.1-1.3s-1.4-5.5-1.7-6.3-1.4-3.9-2.8-5.6c-.9-1.2-3.1-2.6-3.4-6-.7-5.8 1.1-21.9 2-31.7.7-7.1 1.2-16.9 2.8-20.3 7.5-11 32.9-40.7 32.9-40.7l-16.5-17.5z" fill="#ea9d7d"/><linearGradient id="J" gradientUnits="userSpaceOnUse" x1="184.647" y1="186.036" x2="208.328" y2="189.142"><stop offset="0" stop-color="#cc7a5e" stop-opacity="0"/><stop offset=".924" stop-color="#aa5f4b"/></linearGradient><path d="M206.3 158.8l-3.5-13s-.3-1.2-9.6 4.8c-7.7 7.5-13.2 19.7-14.1 23.3-1 4.4.8 33.5 1.8 44.5.9 9.9-.1 8.5 4.9 9.5 2.1.4 4.7 1.6 4.7 1.6l-1.1-4.6 2.9-40.7c.2-1.9.6-6.8 1.3-8.1 1.7-4.9 12.7-17.3 12.7-17.3z" fill="url(#J)"/><linearGradient id="K" gradientUnits="userSpaceOnUse" x1="186.588" y1="161.787" x2="206.098" y2="148.507"><stop offset="0" stop-color="#cc7a5e" stop-opacity="0"/><stop offset=".924" stop-color="#aa5f4b"/></linearGradient><path d="M174.9 158.7s1.8 1.6 5 5c7.8 8.2 13.5 11.4 13.5 11.4l13.4-17.1-19.6-14.7c-2.4 1.4-9.9 10.6-12.3 15.4z" fill="url(#K)"/><g fill="#ffc1a6"><path d="M176.5 159.8l.7-.1-.1.9zm-.7 5l.1-.6.6.3zm5.9-2.8l-.6-.2.6-.5zm-6.8 4.5l.6.4-.7.4zm-1.4 1.2l.8.4-.8.5zm-1.3 3.9l.8-.7.3 1.2zm.1 4.5l-.6-.8 1.1-.3zm1.8-2.3l-.9-1.1 1.5-.5zm-2.2 6l-.1-1.6 1.6.5zm1.8-18.9l1.3-1.7 1.1 1.9zm3.2-5.7l1.6-2.3 1.5 2.7zm-4.9 13.2l.5-.4.2.7zm5.2 3.2l-.3-.5h.7zm-3.9-4.7l-.3-.6.8-.1zm6.3-4.5v.9l-.8-.4zm-5-1l.6.1-.4.6zm2.3 6l.2-.6.6.6zm-.5-11.3l1 1.9-2.3.2zm3.7-5l.5 1.4-1.5-.2zm2.8-3l.5 1.4-1.7-.2zm-8.6 15.4l-.1.8-.7-.6zm.3-1.9l-.2.8-.6-.5zm3-6v.8l-.8-.3zm4.4 0l.6.2-.4.5zm-5 7.5l.3-.5.4.6zm3.3-5.6l.4-.5.5.6zm1.8-2.7l-.8.2.1-.8zm2.6-6l-.1.7-.6-.4zm-8.1 9.3l.2 1.3-1.5-.5zm3.4-1.5l-1.1.4.1-1.2zm-1 5.1l-.7.2v-.8zm.8-8.8l.7.1-.5.6z"/><path d="M180.9 166.6l-.1.4-.5-.3zM178 165l.4.2-.4.3zm.2 4.1l.4-.3.2.4zm-3.6 5l-.4-.4.7-.1zm3.1-1h-.4l.1-.4zm-3.4-2.7l.1.4-.4-.1zm3.3 11.1l-.3-.1.3-.4zm2.1-2.5l-.3.3-.1-.4zm-4.1-.6l.3.4-.5.2zm8.4-8.4l.4-.2v.5zm1-12.6l-.6.5-.2-.8zm-2.3-4.6l.4.6h-.9zm-3.3 5.7l.7-.2-.2.8zm-.9 5.7l-.8.2.1-.8zm-2.3-3.8l.3.5h-.7zm-3.5 3.3l1 1-1.5.7zm-.5 3l1.1.9-1.4.8zm-.5 2.8l1.7 1.1-1.8 1.2zm3.8-7.3l1.4.6-1.3 1zm-1.6 3.2l1.2-.7.2 1.7zm3.4-5.3l1.2-1.2.5 1.7zm8-8.2l-.7.1.2-.8zm-2.5-1.1l-.8.2.4-.9zm3.5-.5l.6-.1-.2.6zm-4.5 5.4h.5l-.2.5zm.5-4l-1 .8-.5-1.4zm2.7 2l-.5.3-.2-.7zm-5.3 6.8l-.5.3-.1-.7zm6.4 1.6l-.6.3.1-.7zm1.7-11.1l.1.4h-.5zm-5.2 4h.5v.5zm-10.8 18.5l.5-.6.4.9z"/><path d="M174.7 177.8l-.4-.6h.8zm2.4-6.1l-.5.2v-.7zm-2.1 2l.6-.6.3.9zm2.9 4.3l-.3-.6.7-.2zm2.5-6.1l-.6.1.1-.6zm-.7 1.4l-.2.7-.7-.6zm-4.5-2.6l.6.3-.6.4zm.4 6.5l.4-.5.3.7zm-1.9 6l.4-.5.5.8zm3 4.2l-.4-.5.7-.1zm2.3-6l-.6.2.2-.7zm-4.1 5.8l.4-.5.5.8zm2.9 4.2l-.3-.5.7-.1zm2.4-5.8l-.7.1.1-.7zm-6.2-9.5l.5-.6.4.8zm-.3-6.1l.5-.5.4.7zm.6 11.4l.4-.7.5.8zm2 8.1l-.2-.7.9.2zm-3.4-26.1l.5-1.5 1.2 1.2zm4.4 16.7l-.5-.5.7-.2zm2-6.2l-.6.4v-.7zm-.9-9.7l.7-.4.3.9zm1.6-5.9l.7-.3.1.8zm-2.9 11l.7-.5.1.9zm-.7 8.4l.1-.8.8.4zm6.3-26.7l.1-.7.7.5zm-2.4 18l-.3-.5h.8zm3.8-5.1l-.6-.1.2-.6z"/></g><g fill="#af6b56"><path d="M192.1 160.9l.6.4-.7.3zm-2.8 3.2l.4-.4.2.5zm5.1.8l-.3-.5.6-.1zm-6.1 2.4l.3.1-.4.3zm-1.8 1.7l.1-.3.1.4zm3 .7l-.1-.2h.4zm3.6-16.7l.4.4-.6.3zm.9-.1l1.1 1.1-1.4.3zm-.6 23l-.6 1.5-.9-1.2zm-2.6 5.9l-.8.9-.4-1.2zm.7 5l-1.1-.8 1.2-.5zm.3-2.6l-1-.8 1.1-.5zM190 198l-.7-.5.9-.4zm-1.9-16.6l.8.6v-.9zm-.5 2.3l.8.4v-.9zm-.1 3.9l.2 1 .7-.7zm1.3-.5l.8.3v-.8zm.4 7l.2.9.7-.5zm.6-4.4l.3.9.5-.7zm-1.7 1.4l.2.6.5-.4zm-1.6-4.9l.1.7.6-.4zm1.2-6.9l.2.8.6-.6zm3.3-1.8l.6.9.4-.8zm-.2 3.2l.4.9.5-.6zm1-2.5l.8.4.1-.7zm-2.3-.5l.9.4-.1-.8z"/><path d="M190.2 177.8l.7 1h-1.2zm-.4-1l-.6.8-.4-1zm4.2-2.9l-.6.6-.1-.8zm-6 1.9l-.5.8-.3-.8zm3.6.8l-.7.3.1-.7z"/><path d="M191.2 176.3l.6.9-1 .1zm-.3 3.1l.4 1-1.1-.2zm8.5-21.7l1 1.1-1.3.4zm2.1 2l1.1 1-1.5.4zm-2.5 2.5l.7 1.3-1.5-.1zm-1.5 7.4l-.6-1.4 1.4.3zm-3.6 4.6l-.5-1.1h1.3zm2.2-7.4l-.6-1.2h1.2zm2.7 1.2l-.6-1.2 1.6-.1zm-1.1-3.8l-.8-1 1.2-.2zm2.7 2l-.5-1.3 1.3.3zm2-2.5l-.6-1.3 1.3.2zm-1.3-.5v1.4l-1-.6zM189.8 149l1.1 1.1-1.3.4zm-3.8-3.5l1 1.1-1.4.4zm.9 2.6h1.5l-.6 1.2zm-1.8 4.2h1.2l-.5 1zm-1.9-2.7h.9l-.4.8zm.7-2.1h1l-.5.8zm1.7 2.6l.9-.1-.5.8zm2.6 6.4l1.1-.1-.5.8zm3.4 2.1l.5-.8.5.8zm-.9 3.2l.6-.8.4.8zm1.9 4.6l.6-1 .7 1zm1.2.2l.6-1 .5.8zm.4 3.1l.6-1 .6.8zm-4.2-2.1l.6-.9.5.8zm-5.6-10.4l.8-.7.4.8zm-2.1 2.2l.7-.9.3.7zm7.9 10l.5-.8.4.6zm3.6 3.1l.5-.8.5.7zm-2 3.4l.6-.8.4.7z"/><path d="M192.5 171.4l.4-.8.6.7zm-1.6 2.6l-.2-.9.8.1zm4.9-2.4l-.3-.9.8.1zm-4.2.2l-.8-.5.5-.6zm-2-.8l-.9-.5.6-.6zm-3.1 1.5l-.7-.5.5-.3zm2.4 1.4l-.8.4v-.7zm.5-5.6l-.7.4-.1-.7zm5.7-6.5l-.7.2-.1-.6zm-5.7-8.3l1.5-.1-.8 1.4zm.9-3l1.2.1-.6.9zm1.6 1.5l1.2-.1-.5.9zm2.9 2.6h1.1l-.5.9zm-2.4.5l.7.8-.8.3zm-7-8.2l.9.7-1.1.2zm3.3 8l1.1-.2-.4 1zm5.4 3.1l1.1-.1-.3.9zm3.7-.7l1-.1-.4 1zm.5 2.2l.9.6-.9.4zm2.9 1.7l.9.6-.9.4zm-5.9-.5l.8.7-.9.4zm-4.1-2.5l.8.7-.9.4zm4.3 1.1l.9.7-.9.4zm-2.5-2.9l.5-1 .5.9zm2.6.4l1.2-.2-.5 1zm4.3 2.3l1.1-.1-.6.9z"/><path d="M196.9 155.6l1.1 1-1.3.5zm-5.6-2.6l.6-.3v.6z"/><path d="M197.5 157.4l-.3-.6.6.1zm-7.6-6.3l-.3.6-.5-.5zm-3.4-2.4l.4.3-.6.2zm-.3 5.2l.4-.2.2.5zm.8 6.3l-.2-.3h.4zm2.7-.5h-.5l.1-.4zm-2.5-2.4l.1.3-.5-.1zm-4.8 19.2l-.2-.3.3-.1zm2.7-2.7l-.2.1v-.4zm-3.1-1.2v.2h-.2zm.2-7.5l-.4-.3.4-.3zm1.4-5.4l-.2.4-.2-.5zm-4.7.8l.3.4-.4.1zm7.4 4.9l-.3-.3.4-.1zm1.1-4.1l-.2.2-.1-.3zm-3.5.7l.2.2h-.3zm6 9.6l-.2.4-.2-.4zm-3.8 1.4l.2.2-.3.2zm2.8 3.2l-.2.2-.1-.3zm4.6-4.3v.3l-.3-.1zm-2.8 2.9l.3.1-.2.3zm-.3 2.7l.2.3h-.3zm-1.1 2.8h.2l-.1.3zm1.2-20.1l-.4-.1.3-.3zm1.2-4.4l-.2.3-.2-.4zm-4 .7l.2.3h-.4zm2 1.1l-.2.3-.2-.5zm-3.5-3l.1.3h-.4zm-1 3.9l.3-.1-.1.4zm.7 2.5l-.3.2-.1-.5zm-4.3-3.6l.3.3h-.5zm-1.1 4.6l.3-.2v.6z"/><path d="M186.5 166.3l.2.2-.4.2zm-3 3.6l.3-.1.1.4zm4 1l-.1-.3.3-.1zm11.4-13l-.2.6-.4-.5zm-2.8-2l.4.4-.5.2zm-.2 4.4l.3-.4.2.5zm-2.5-2.1h-.5l.3-.6zm1.2-3.3l-.2.5-.3-.5zm-4.2 1.1l.4.2-.5.4zm4.8.9l-.5.1.1-.6zm-3.7-1l.4.1-.2.4zm5.2 7.3h-.5l.2-.7zm.8-3.3l-.2.3-.4-.2zm-4.1 1.4l.3.3-.3.2zm7.8 1.8h-.6l.4-.5zm-.9-3.9l-.2.3-.3-.3zm-1.9 1.4l.3.3-.4.1zm-6.5-6.1l-.4.2v-.6zm-.1-3.5v.5l-.4-.2zm-3.5 2.7h.4l-.2.5zm.1-3.7l-.4.2v-.5zm-1.6-3v.5l-.5-.2zm-2 2.2l.4.2-.3.2zm4.2 3.4l-.5.2.2-.6zm-.2-3.5l.2.6-.6-.3zm-3.4 2.6l.3.1-.2.4zm13.8 9.1l.6-.3v.7zm.9 4l-.2-.6.6.2zm2.9-3.5h-.4l.2-.5zm-6.7-2.6v-.5l.6.2zm-12.9-7.3l.6-.1-.2.6zm-.2 4.1v-.5l.5.3z"/><path d="M187.7 152.9l-.5-.1.4-.5zm-1.2-1.3l.6-.1-.1.8zm-.2 4.2v-.6l.5.4zm4.5-2.6l-.5-.2.5-.5zm-.6 13.7v-.7l.6.4zm3.7 1.6l-.5-.2.4-.4zm-1-5.2l-.2.5-.3-.6zm-.1 4.1l-.2-.5h.7zm4.1-.2l-.6-.1.2-.4zm-3.1-4.3l-.1.5-.5-.3zm-4.1 16.8v.4l.4-.2zm2.8-.8l-.4.1.3.2zm-1.1 3.5l-.2-.3-.2.3zm4.3-17.4l.3.4.1-.6zm1.1-2.2l-.2.2.4.1zm1.6 2.8h-.3v.2zm-3.9 6.2l.4-.2-.3-.3zm-1.7-2.3l.2.4.2-.4zm3.6-.3l-.1.3.4.1zm-7.4 9.3l.2-.1-.2-.2zm.5-2.1v.4l.2-.1zm.1 15.7l.2-.1-.3-.1zm-2-2.6l.3.2v-.2zm2.9-.5l-.1.2.3.1zm-1.3-.9h.3l-.2-.5zm.2-4l.1.3.4-.3zm-3.9 3.8l.4-.1-.2-.2zm.3-4l.1.3.2-.3zm3 1.7l-.2.3h.2zm-3.9 12l.5-.1-.3-.4zm.3-4.8l.2.3.2-.3zm3.6 2.1l-.2.2.2.1zm-5.2-12.2h.3l-.1-.2zm.2-3.1l.3.1v-.1zm2.5 1.3l-.1.1.1.2zm-1.5.3v.2l.2-.3zm2.9-1.1h-.1l.2.2zm-.2 2.6l-.2-.1v.3zm5.4-4.9l.3.3v-.5zm.4-2.7v.5l.3-.2zm-6 3.5l.1-.4-.4.1z"/></g><linearGradient id="L" gradientUnits="userSpaceOnUse" x1="196.379" y1="236.145" x2="201.568" y2="236.941"><stop offset="0" stop-color="#cc7a5e" stop-opacity="0"/><stop offset=".924" stop-color="#aa5f4b"/></linearGradient><path d="M189 224.9l1 4.1s1.5 1.2 3.3 3.6 4 9.9 4.7 11.6c.6 1.6.1 1.8-.4 2.1-.4.3-1.2-.2-1.7-.8l-2.73-3.24s-3.27-1.26-5.07-4.06c-1.6-2.7-.5-6.3-.5-6.3l1.4-7z" fill="url(#L)"/><linearGradient id="M" gradientUnits="userSpaceOnUse" x1="199.366" y1="152.612" x2="224.821" y2="101.379"><stop offset="0" stop-color="#ed89ae"/><stop offset="1" stop-color="#f4c0ca"/></linearGradient><path d="M175.7 135.7s11.9-13.1 20.5-21.6c11.6-10.9 28.5-20.9 42-9.2 12.8 10.9 4.8 25.2-2 37.6-6.7 12.3-21.5 29.1-21.5 29.1l-39-35.9z" fill="url(#M)"/><linearGradient id="N" gradientUnits="userSpaceOnUse" x1="221.161" y1="155.698" x2="173.739" y2="147.174"><stop offset=".007" stop-color="#ff9f00"/><stop offset=".983" stop-color="#ffd86b"/></linearGradient><path d="M219.1 166.6l-39.2-35.3-4.2 4.4 38.9 35.8z" fill="url(#N)"/><g fill="#d87390"><path d="M222.6 153.9l-1.3-1-.4 1.9zm5.3-.2l-1.1-1.3-.8 1.7zm-5.5-4.2l-1.9.5 1.4 1.8zm8.1.5l-1.9.6 1.4 1.8z"/><path d="M232.3 145.3l-1.4 1.2 2 1zm-4.9 8.1l-1.8 1 1.9 1.4zm-2.2-1.4l-1.7 1 1.8 1.4zm2.7-1.5l-1.9.5 1.3 1.8zm-4.5 4.3l-2 .5 1.3 1.7z"/><path d="M223.5 155.8l-1.8.8 1.6 1.5zm4.4-9.2l-1-1.4-.9 1.8z"/><path d="M221.7 155.2l-1.5-.5v1.8zm7.2-9.4l-.8-.9-.6 1.2zm-4.5 6.3l.5-.8-1-.3zm-3.6-9.1l1 .3-.1-1.1zm-3.4-1.8l-.9.6 1.1.7zm5.7 4.9l-.7-.6-.3 1.1zm-9.3 2.7l.5-.9h-1.2zm10.7-6.1l.6 1.2.9-1.1zm6-4.8l-.7.6 1 .5zm1 9.7l-.7-.6-.3 1.1z"/><path d="M232.7 148.3l-1-1.3-.9 1.6zm-.8-2.4l-2.5-1 .3 3zm6.8-8l-2-.2.9 2.2zm-9.5 9.5l-2.5.8 1.8 2.3zm2.5-3.8l-1.6-.8v2zm2.1 0l-1.5-.7v2zm-15.3 3.5l-.9.8 1.1.6zm-1.5 5.3l.6.8.5-1z"/><path d="M217.4 145.3l-.8-.6-.3 1zm9.5 2.1l-.9-.4-.1 1.1zm7-1l1.7-2.7-3.4-.6zm-3.3 5l1.6-2.1-2.7-.7zm-2.3 3.4l1.6-2.1-2.9-.7zM236 141l-1.8.6 1.5 1.6zm3-3.7l1-1.9-2.4-.2zm-13.4 20.9l1.7-2.1-3-.8zm-2.6 3.6l1.9-2.6-3.4-.9z"/><path d="M220.7 164.7l2.3-3-4.1-1.1zm2.1-17.1l.3 1.6 1.5-1.1zm-2.4 5.2l-1.8.7 1.5 1.6zm-2.3 3.1l1.2 1.7 1.2-2z"/><path d="M218.3 164.7l1 1.7 1.2-1.9zm-1.7-2.8l1.2 1.7 1.1-2zm2.8-2.3l1.2 1.6 1.2-1.9zm-3.5-21.7l-1.2.2.7 1.1zm3.1 7l-.5-.9-.6.9zm-9.6-1.5l.7-.6-.9-.5zm7.6 17.8l-1.4-1.7-1.1 2.2zm-4.7-11.7l.5-.8-1.1-.3zm4.4 2.3l.1 1.1 1.2-.5zm7.4-2.1l-.9.2.7.9zm-2.8 9.2l-.4-.8-.7.9zm12.6-28.4l-.6 1 1.3.1zm7.3 2.2l-1-.2.2 1.1zm-7.6 6.3l.1-1-1 .4zm-20.7 15l-.5 1.1 1.3-.1zm3.5.7l-.5 1.1h1.3zm-11.2-10.2l-.3.7h1zm5.7 12.6l-.4 1.2h1.4zm4-2.3l-.6 1.2h1.6zm-8-15.2l-.3.7h1zm13.5 15.6l-.9-.2.2 1.1zm2.3 1.2l-2.4 1.1 2.1 2zm2.4 0l-1.9.3 1.3 1.9zm-7 1.7l-.7 1.4 1.8.2zm-3.1-9.2l-.3.9 1.1-.2zm-5-3.4l-.6 1.2 1.5.1zm8.4 2.2l-1.1-.3.3 1.3zm-8.1 7.4V154l-1.1.5zm7.8 10.6l.2-1.7-1.8.3zm-4.3-5.1l-.3 1 1.1-.2zm-.1-9.9l-1.1.2.5 1zm2.1 6.7l-.3-.8-.8.6zm-8.5-2.3l.8-.5-.9-.5zm5.7 3.8l1.2-1.2-1.8-.7zm-9.3-17.3h-1.1l.6 1.2zm2.1 6.6l-.3-.8-.7.6zm-8.4-2.3l.7-.5-.9-.5zm10.7 1.1l-1-.5v1.2zm-1.4 6.9l.2-1-1 .2zm-6.2-6.2l.8-.1-.4-.9zm14.3 12.9l-.7-1.8-1.7 1.5z"/></g><g fill="#ffa124"><path d="M202.2 153.2l-.1-1.2-1.1.6zm6.5 8.2l1-.3-.9-.9zm-8.2-3l1.1 1.1.2-1.8zm-.4-5.9l-.3.7h.9zm-5.3-4.1l-.4.7h1.1zm9.2 5.5l-.5 1.2h1.6zm-6-3.3l-.5 1.2h1.5zm15.5 12.7l-.1-.9-.9.5zm.1 6l1.4-.9-1.7-1zm2.8-.8l.1-1.7-1.8.7z"/><path d="M213.7 168.9l1.1 2.5 2.1-2.4z"/><path d="M216 166.7l.8 2.6 2.1-2.6z"/><path d="M216.2 167.3l-.5-2.1-1.9 1.4zm-3.7-3.4l-.7-1.9-1.5 1.4zm-.3 2.2l-.1-1.6-1.7.8z"/><path d="M211.8 167.6l1.4-1.1-1.7-.9z"/><path d="M210.1 167.2l2.7 2.4 1.6-3.8zm-9.6-9.4l.8-.8-1.3-.4zm3.5 1.1l-.7-1.6-1.2 1.3zm2.1 2.7l-.4-1.5-1.3 1.1z"/><path d="M203.7 157.5l-.5-1.2-1 1.1zm6.1.7l-1.5 1.2 1.9.9zm1 1.9l-1.5 1.1 1.9.9zm4.1 2.5l-.1 2.2 1.5-.7zm-9.5-2.2l.8-1.1-1.5-.3z"/><path d="M207.6 161.4l.4-2-2.3.4zm.8.4l1-.9-1.4-.6zm-.4 3.1l1.1-1.2-1.6-.6zm2.1-1.4l-.6-.6-.3 1z"/><path d="M207.4 164.8l2.7 2.3 1.6-3.5zm-2.7-2.3l2.2 2.1 1.2-3.2zm-2.8-2.7l2.1 2 1.3-2.9zm-2.7-2.5l.4-1.6-2 .3zm7.4 1l1.2-1.2-1.8-.6zm-16.2-9.6l.8-.9-1.1-.3zm3.5.9l-.6-1.4-1.2 1.3zm2.3 2.9l-.5-1.6-1.4 1.1z"/><path d="M193.8 148.4l-.6-1.2-.9 1zm1.7 2.8l.7-1.1-1.5-.2zm9.3 5.6l.4-1.2-1.4.2zm-5.5-1.4l.4-1.6-1.8.3zm-4.4-1.9l2.3 1.9 1-3zm-2.9-2.8l1.7 1.6.9-2.1zm-2.9-2.5l.5-1.7-2 .4zm13.2 6.7l.8-.8-1.1-.3zm-1.7 1.5l1.3-1.2-1.8-.6zm12.7 9l1.2-1.2-1.8-.6z"/></g><g fill="#ffcce1"><path d="M238 104.8l-.4 1.4 1.3-.2zm-19.9 3.9l.6-.6-.7-.3zm-7.1-4.3l.6-.6-.8-.2zm10.1 6.5l-.5-.8-.5.7zm11.7-7.3l1 .5.1-.9zm-13.7-.2l1 .4v-.9zm-2.2-1.8l1 .4-.1-.9zm22.6 7.3l1.8-.6-1.1-1.2z"/><path d="M241.5 112.1l1.8-.1-.8-1.5zm-1.2-2.6l1.1.7.2-1.3zm0 3.6l1 .4v-.9zm2.3.1l.9.4.1-.9zm-14.7-12.3l.6-.6-.7-.2zm5.4 2.7l-.7-1.4-.8 1.2zm-3.2-1l-.5-.8-.5.6zm-5.7-.3l-.2 1 .9-.3zm-.5-2.4l.7.7.4-.7zm1.1 4.6l.7.4v-.8zm10.3 6.9l.8.3.1-.7zm3.1 1.1l.8.4v-.7zm2.5 2l.7.3.1-.7zm.7.7l.7.4v-.7zm-26.4-9.9l.8.4v-.8zm-1.8-1.5l.9.3-.1-.7zm4.6.8l-.2.9.8-.3zm3.3-2.3v.9l.6-.2zm-2.4-.1l.6-.7-.8-.1zm18.6 11.9l-.3.5.5.1zm-.2-3.2l.3.5.2-.5zm-6.6 1l.5-.4-.4-.2zm2.8-.8l.4.5.3-.4zm-6.8.1l.5-.1-.3-.3zm-13.4-1.5l.6-.1-.5-.3zm10 3.4l-.2-.6-.3.3zm-4.7 1.1l-.1-.5-.3.2zm4.3 6.1v-.6l-.5.2zm.3-14.6l.2 1.1.7-.6zm6.2-5.6l.6 2 1.3-1.2zm8.6 8l.2 1 .7-.5zm-16.4-7.7h.8l-.3-.7zm-2.8 6.7l.2-.8-.7.1zm5.8-6.4l-.6 1.4h1.4zm-1.6.8l-.4 1 .9-.1zm.3-1.7l-.4.9h.8zm3.9 6.4l.7.6.3-.8zm-7-4.9l.5-1.3-1.3.2zm21.5 12.5l.7.6.2-.8zm-2.4-5.7l.4-.5-.5-.3z"/><path d="M244.1 116.6l.5-.5-.5-.2zm-.2-1.6l-.4-.6-.3.5zm-4.2-4.8l-.1.8.7-.2zm1.4 1l.2 1.2 1-.6zm-2-1.6l-.2.8.7-.1zm-2.4-2.6l-.2.9.7-.2zm1 .2l1.6.6-.2-1.5zm3.9 3.5l.5.3v-.7zm-5.7-1.6l.4-.5-.6-.2zm4 2.4l-.3.7h.7zm1.9 5.8l.5.4.1-.6zm.4-4.4l.5-.5-.6-.2zm-1.9 2.6l-.2.8.7-.1zm-3.5 1l.5.4.1-.7zm7.3 1l.5.4.1-.6zm-4.9 1.2l.5-.5-.6-.3zm4.2-2.1l-.7.1.4.5zm1.8 4l-.6.1.3.5zm-.2-2.3l-.6.1.3.4zm-.9 3.7l.1.6.5-.3zm-.7 2.5l.2.7.5-.4zm.9-4.9l-.7.4.5.5zm-3.1-1.8l.1.7.4-.4zm.1 3.4l.7-.1-.2-.5zm-.3 2.2h.7l-.2-.6zm1.9 3.9l.2.7.5-.4zm-3.7-2.3l.7.1-.2-.7zm-.7 3.9h.7l-.2-.6zm-2.8-25.7l.1 2.6 2-1zm-1.1.8l.8.2-.2-.7zm1.6 2.3l.7.1-.2-.6zm-3.7.4l.2-.7h-.6zm-11.5-1.5l.2-.6-.6.1zm13.4 1.2l.3-.6h-.7zm-2.6-5.2l.1.8.6-.4zm-1.7 4.6l.2.9.6-.5zm3-4.2l.3 1.7 1.2-.8zm-5.9 2v.8l.7-.4zm-5 4.3l.1.8.6-.4zm-.2 7.5l.6-.6-.6-.3zm3 2.1l-.5-.7-.4.7zm2.2 2.3l-.1-.7-.4.4zm-1.1-5.2l.2.8.5-.4zm2.6 3.3l.2.8.7-.3zm1.9 4.5l.1.8.6-.4zm6.8-2l.1.8.6-.4zM226.6 101h.7l-.2-.7zm1.9.5l.3-.7-.6.1zm-2.7.5l.4-.7-.6.1zm-10.2.8l-.2 1 .9-.2zm.6 2.4l.7.3v-.8zm-3.6-2.3l-.1.9.7-.3zm1.8 3.4l.2 1 .7-.6zm1.4-5.1l-.5 1h1zm-1.6.9l-.4 1 1-.1zm-2 3.7l.3-.7-.7.1zm5.6-1.6l.2-.6-.6.1zm11.5 3.2l.2.9.5-.4zm-.1-2.8l.7.1-.2-.6zm-2.9 4.1l.3-.7-.6.1zm-.3-7.9l.7-1.1-1.1-.1zm4.8 3.3l.8-.4-.6-.4zm-.6-1.6l.8-.5-.6-.4zm4.2 6.1l-.2-.8-.6.5z"/><path d="M234.3 107.5l1.2.7.1-1.4zm1.8-.4l.4.4.3-.5zm-3.6.2l.3.6.3-.6zm2.3-2l.4-.6-.6-.1zm-1.5-.5l-.2-.9-.6.5zm-1.1 1.9l-.3-.7-.6.5z"/><path d="M230.1 109.7l-.2-.8-.6.5zm2.2-5.7l-.2 1.5 1.3-.4zm-5.1-2.3l-.6.8.8.2zm-1.2 3.4l-.7.8 1 .3zm12 3.9l-.5.7.9.3zm-2.7 3l-.6.8.9.1zm-1.2-6.1v.8l.6-.2zm-4.6-2.8l.6.2v-.6zm1.4 2.3l.4-.6-.6-.1zm-2.6-.2l.4-.6h-.6zm2.5 3.4l.8.3-.1-.7zm2.1 11.6h.5l-.1-.5zm-3.3-2.6l.6.2-.1-.5zm3-4.1l.2.8.6-.5zm-5.3-1l-.3.8h.8zm6.5 3.1l-.3.8.7-.1zm-3.2-.4l.4-.4-.5-.3zm4 2.1l.4.6.3-.5zm-6.1-13.5l.5-.6-.6-.1zm-8.3.7l.8.4.1-.7zm3-.6l.1.8.6-.4zm-3.2-2.1l.3.9.6-.4zm2.2 1h.7l-.2-.6zm1.8.6l.3-.5-.6-.1zm-2.8 0l.5-.6-.6-.1zm.3-1.4l.3-.6-.6-.1zm11.4 7.4l.2-.7h-.6zm-9.6-4.2l1.5.9.2-1.6z"/><path d="M226.4 102.3l1.5.9.1-1.6zm-4.7-1.7l-.5.9.9.1zm2.9 5.6l-.3 2.1 1.8-.6zm5.8-4.7l-.2 2.1 1.7-.6zm4.5 1.1l-.8 1.8 1.8.1zm-8.4-2.5l-.1 2 1.8-.6zm-1.6 1.9l-.1 2.1 1.7-.6zm3.3.6l-.2 2.1 1.7-.6zm-5.4 0l.5 2 1.5-1.1z"/><path d="M222.5 101.6l.1 2.1 1.6-.9zm7.7 6.1l1.4.9.1-1.6zm-8.5-3.1l1.2 1.3.6-1.5zm10.8 2.9l1.1.5.1-1.1zm-5.4-1.3l.7-.8-.9-.2zm3.6 7.5l-.5-.8-.5.7zm-4.6 1.7l-.5 1.1 1 .1zm1.2-5.4l.8.6.2-.9zm-7.4 3.6l.8-.6-.7-.4zm10.4-4.1l-1.2-.2.2 1.1zm5.5-.2l-.4 1 .9-.1zm-5.4-6.1l.7.5.3-.9zm2.6.3l1.6.8.1-1.5zm-.1 1.4l1.6 2.3 1.2-2.2zm7.4 6.4l1.3 1.7.9-1.6zm-10-7.6l-.3 2.6 2.3-.7zm4.8 3.2l1.2 1.3.6-1.4zm1.5-1.3l1.1 1.3.7-1.4zm-12.3 4.1l-.6 1.1 1 .1zm-.7-1.6l-1-.3.2.9z"/><path d="M223.8 113l.7.7.2-.9zm5.7-6.1l.6.8.4-.9zm5.4.6l3-2.3-3-1.7zm-3.4-2.5l3.1-2.3-2.9-1.7zm-3-2.2l1.8-2.4-2.6-.6zm9.6 4.4l-1.1 1.7 1.9.3z"/><path d="M236.9 109.4l3.5-1.5-2.4-2.5zm-12.2-7.4l1-2.4-2.4.1zm3.8 5.5h-1.7l.5 1.4zm-16.9 4.5l1.6-.8-1.2-1z"/><path d="M211 107.8l1.6-.7-1.2-1.1zm-.1 3.4l1.3 1.7.9-1.6zm1.1-7l1.1 1.7 1-1.5zm4-2.4l.6 1.9 1.4-1.2z"/><path d="M206.6 105.8l1.5 1.4.6-1.8zm3.3 3l1.7 1.3.4-1.7zm.9-2.4l1.1 1.8 1-1.6zm-5.8 3l1.6 1.4.5-1.9zm17.5-4.2l.4 2.1 1.5-1.1zm-1.5.3l-2.1.1.8 1.6z"/><path d="M222.5 104.6l-2.1-.4.5 1.8zm-8.8 4.2l1.7.2-.5-1.5zm-3.4 4.6l1.5-.8-1.2-1zm7.4-6.6l1.1-.4-.7-.8zm-4.8 2.8l-.1-1.1-.8.5zm7.6 2.9l-.9-.2.1.9zm-4.4 4.2l.4 1.1.8-.6zm-.6-4.5l1.1-.1-.5-.8zm-5 7.4l.1-1-.9.1zm13.8-1.5l-.1 1.2 1-.4zm1.1-5.2l1 .3-.2-.8zm-7.5 6.1l.5-.9-.8-.1zm3.4-9.1l1.9 1 .1-2zm-2.4 3.5l.7-.8-.8-.2z"/><path d="M223.2 108.7l-1.1.4.8.7zm4.6-3.2l.2 1.1.7-.5zm-7.8-2.4l1 .2-.3-.9zm16.2 11.1l-1.1.5.9.6zm4.3-3.6l.3.9.7-.6zm-8.1-1.7l1 .1-.4-.9zm-13.6.7l-.7.9.9.4zm2.9-4.9l.6 1 .4-.9zm-8.1 1.3l.9-.3-.6-.6zm1-2.2l1.8.1-.5-1.4zm.5 1.4l2.4 1.3.2-2.4zm-2 .8l1.4 2.3 1.4-2zm7.9-4.7l.1 2.7 2.1-1zm-2.4 3.4l1.7.1-.5-1.5zm-.6-2.4l1.7.6-.2-1.6zm-7.1 11.5l.3 1.1.8-.6z"/><path d="M210.9 112.9l-.9.4.8.6zm1.9 3.7l1-.1-.4-.8zm7.5-14.6l-.4.9h.9zm-5.9 7l1.1.2-.3-.8zm19.2-1.2l.4 2 1.6-1.1zm-11.8-5.2l.9-2.9-2.7.3zm-3.5.6l.3-2.9-2.8.9zm-3.7 1.3l.4-3.1-3.2 1.5zM211 106l.3-2.9-2.8 1.5zm-3.7 2.3l-.5-2.6-2.4 1.6zm11.5 1.2l-.9.5.8.5zm.4 1.8l-1.4 1.1 1.4.6z"/><path d="M221.4 110.4l-.9.4.6.5zm-2.2-1.2l-.9.3.6.6zm-16.4 6.6l1.5-.8-1.1-1zm.1-3.8l1.7-.7-1.2-1zm-5.3 1.2l.3 1 .7-.7zm6.6 2.1l1.5 1.4.6-1.7zm-3.4-4.6l1.6 1.4.5-1.8zm.3 1.8l1.6 1.3.5-1.7z"/><path d="M204.3 110.8l1.4 1.3.6-1.7zm-6.5 4.4l1.5 1.3.5-1.9zm1.3-1.8l1.6 1.3.5-1.7zm3.4 3.7l1.6-.7-1.2-1zm9.8-7l1-.7-.8-.6zm-6.5 3.2l-.2-1-.7.6zm8.1 1.6h-1l.3.8zm-.8 5.1l.5 1 .7-.8zm-3.7-4.3l1-.2-.6-.7zm-1.3 8.2l-.1-1-.7.4zm-.7-5.8l.5 1.1.6-.8zm-2.3-.9l-.7.7.8.3zm5.3 3.8l1.1-.2-.6-.7zm-5.9-10.8l-.5-2.6-2.5 1.9zm-3.2 2.6l-.3-2.7-2.5 2.1zM189.6 129l1.5-.8-1.2-.9zm-1.3-2.5l1.6-1-1.3-.8zm-2.9 2l1.6-.7-1.3-1.1zm1.7-.2l1.5-.8-1.2-1zm3.9-1.7l1.7 1.3.4-1.8z"/><path d="M189.4 122.6l1.6 1.2.4-1.7zm2-3.1l1.7 1.1.3-1.7zm-4.3 7.9l-.9-2.6-1.7 1.6zm-1.1 1.9l1.7 1.2.3-1.7zm3.2-4.7l1.7 1.2.4-1.8zm-5.6 6.4l1.4 1.4.6-1.7zm15.3-14.3l1.5 1.4.6-1.8zm-2 1.9l-1.8 1.1 1.5 1.1zm1.2-2.3l-1.8 1.1 1.6.9zm-4.8 7l1.7-.7-1.2-1zm-7.2 9.3l1.6-.6-1.1-1.2zm-2.1-2.3l1.6-.9-1.3-.9zm15.8-10.9l.8-.8-.9-.5zm-3.8 4.2l-.4-.9-.7.6z"/><path d="M204.5 123.7l-1.1.2.5.7zm-4-4.9l2.1-.5-1.2-1.6zm1.2 6.4l-.1-1-.7.4zm3.2-2.9l-.5 1.1h1.1zm1.4-5.5l.7.6.3-.8zm-7.4 3.6l.8-.6-.8-.5zm11.8-1.1l-.3 1.2 1-.1zm2.5-5.2l.9.5.1-.9zm-8.8 4.6l.7-.8-.9-.2zm-12.1 2.7l1.5-.8-1.2-1z"/><path d="M192.8 121.4l2.7.2-.8-2.3zm-1.7 2.2l1.9 1.9.9-2.3zm6.8-9.3l2 1.8.8-2.3zm-2.6 5.3l1.6-.8-1.3-1.1zm-.9-1.9l1.6-.7-1.2-1zm-4 14.4l-.8.6.8.5z"/><path d="M195.7 116.2l.3 1 .7-.6zm-3.4 9h1l-.4-.7zm5.6-8.9l-.8-3-2.3 2.5zm-2.1 3.5l-1.6-3.5-2.3 2.6zm-2.9 2.8l-1.4-3.5-2.4 2.5zm-2.9 3l-1.3-3.7-2.6 2.9zm-3.9 4.3l-1.6-3.5-2.3 2.4zm12.9-7.5l-.3 1 .8-.1z"/><path d="M196 120.7l-.6 1.6 1.5-.2zm-1.4 4.6l-.5 1h1zm6.9-4l-.4 1 .8-.1zm-2.5.6l-.3.9h.8zm-2 1.2l-1.7.7 1.1 1.2zm-12.2 8.8l-1.7 1 1.3 1zm3.1 2.9l-.5 1 1 .1zm1.6-4.8l.7.7.2-.9zm-7 2.8l.8-.5-.6-.4zm16.2-1l-.5.9 1 .1zm1.5-4.8l.7.6.3-.8zm-7.1 2.6l.8-.5-.6-.4z"/><path d="M190.3 136.4l-.3 1 1-.1zm.5-5.1l.8.4v-.8zm-6.1 4.2l.6-.6-.8-.4zm-2.8-3.7l.2.9.6-.5zm2.1.2l-1.6-3.1-2.2 2.2z"/></g><g fill="#cc7a5e"><path d="M188.86 255.33c-.03-.22 0-.35.23-.5.2-.06.53-.03.7.2.2.64.4 2 1.28 1.8.9-.23.73-1.42.73-1.42.04-.2-.02-.28.18-.24.2-.06.62-.2.68.01.08.12.32.88 1.03.6.45-.22.33-1.26-.1-3.88-.76-3.6-1-10.05-1.07-10.26.04-.2.17-.38.4-.54.2-.06.32.2.48.43 1.12 2.06 2.62 3.9 3.5 4.17.1.02.6-.1.55-.42.02-.1-.12-.43-.25-.86-.2-.55-2.7-9.65-5.04-11.9-2.27-2.04-2.74-3.35-3.34-5.1-.44-1.5.05-9.14.76-19.7l.18-2.1c1.48-22.5 2.7-29.07 2.7-29.17a.46.46 0 0 1 .58-.4.46.46 0 0 1 .4.58c-.02.1-1.12 6.6-2.7 29.07l-.18 2.1c-.47 7.54-1.26 17.97-.8 19.37.52 1.62.93 2.7 3.02 4.62 2.5 2.5 5.15 11.82 5.26 12.35.2.55.58 2.13-.25 2.5-.4.17-.76.27-1.23.08-.85-.36-2.2-1.93-3.07-3.2.1 2.25.43 5.98.92 8.3.56 3.05.7 4.4-.33 5.04-.58.4-1.56-.14-1.66-.16-.2.47-.5 1.07-1.28 1.33-2.05.12-2.22-2.33-2.27-2.7z"/><path d="M192.3 256.12c-.2-.04-.38-.17-.44-.4l-2.1-10.24c-.04-.3.1-.5.42-.63.3-.04.5.1.63.42l2.1 10.24c.04.3-.1.5-.42.63l-.2-.03z"/></g><path d="M189.4 221.1l-12.1 2.8c-.6.2-.8.7-.8 1.2l1.3 5.1c.2.6.7.8 1.2.8l11.7-2.5c.6-.2.8-.7.8-1.2l-1-5.3c.1-.6-.6-.9-1.1-.9z" fill="#ffcce1"/><path d="M189.26 255.93c-.2-.05-.37-.2-.42-.4l-2.1-10.03c-.03-.3.1-.5.35-.64.3-.03.5.1.64.35l2.1 10.03c.03.3-.1.5-.35.64-.12.08-.22.06-.22.06z" fill="#cc7a5e"/></svg>