<svg xmlns="http://www.w3.org/2000/svg" viewBox="0 0 480 480" xmlns:v="https://vecta.io/nano"><path d="M297.3 211.1c17.7 9 35.9 15.7 35.9 15.7s5.2 4.9 12.9 5.5c.6.2 1.4-.5 2.3-1.1.5-.4 0-1.4.4-1.8.2-.4 1.2.1 1.5-.2.4-.5 1.5-1.3 1.1-1.9-1.4-2.1 1.1-1.8 1.4-2.5.4-1-.2-1.9-.4-2.1l-4.7-2.8c-.9-.5 1.9-.6 3.5-.6 1.8-.1 3.4-1.4.4-2.1s-5.4-1.7-6.3-1.7c-.8-.1-4-.9-6.2-.5-1.4.2-3.3 1.1-6.4-.5-5-2.7-20.6-15.5-28.2-21.8-3.8-3-20.1 11.9-7.2 18.4z" fill="#ea9d7d"/><linearGradient id="A" gradientUnits="userSpaceOnUse" x1="332.816" y1="219.16" x2="323.749" y2="231.144"><stop offset=".005" stop-color="#cc7a5e" stop-opacity="0"/><stop offset=".924" stop-color="#aa5f4b"/></linearGradient><path d="M312.9 218.6c11.4 4.9 20.2 8.3 20.2 8.3s5.1 4.3 12.9 5.5c2.7.4-1.6-7.2-5.4-9.6-25.7-16.5-32.6-6.3-27.7-4.2z" fill="url(#A)"/><g fill="#ad5c44"><path d="M328.7 222.6l-.3-.8.7-.2zm2-3.1l-.6-.7.9-.4zm-.3 2l-.3.9-.8-.5zm-.5 1.2l-.4 1.2-1-.7z"/><path d="M328.9 221l.5-1.3.6 1.1zm.5 4.3l-1.7-.5 1.4-.9zm-2.2-1l.7-1.5.8 1.3zm1.2-1.4v-.6l.6.2zm3.9-3.9l-.1.4-.3-.2zm-1.9 1h.5l-.1.5zm-.6 4.5l-.6-.3.4-.4zm2.7-3.7l-.1-.6.4.3zm-1.7 4.2l-.7.6-.4-.9zm7.3 4.2l-.6-.5.7-.4zm-4.7-3.4l-.6.8-.3-1zm-.3-1.6l.1.8-1-.1zm2.4 2l.9.1-.5 1zm-.5 1.1l-1.1-.7 1-.6zm-2.6-.8l-1.7-.7 1.3-.8zm4.4 2l-.8-.5.8-.4z"/><path d="M331.7 224.6h-.3v-.4zm.2-2.2l-.1.3-.2-.2zm-2.5 1.4l.3-.1-.2.4zm7.8 2.6l-.2-.5.5.1zm2.1 2.8l-.1.4-.3-.3zm-8.1-4.9l-.1-.4.6.1zm2.9 1.9l-.1-.5.5.1zm4.5 1.5l-.5-.3.4-.4zm-4.1-3.5l-.3.1.1-.6zm-3.9-1.6l-.1-.5.5.2zm2.6.6l-.4-.2.3-.4zm7.7 7.4l-.5-.1.4-.4zm-4.8-6.6l-.3.3-.2-.3zm3.2 3.8l.3.3-.5.1z"/></g><path d="M353.6 219.4c-1.2.8-4.8.7-6 .7-.6.7-2.6 2.6-5.5 2.4-3.6-.3-4.7-2.1-4.8-2.2-.1-.2-.1-.5.2-.7.2-.1.5-.1.7.2.1 0 1.1 1.4 4 1.7 2.8.3 4.9-2.2 4.9-2.2.1-.1.3-.2.5-.2 1.9.1 5.7.1 5.5-.8 0-.2-.5-.2-.8-.3-.6-.2-1.4-.3-2.4-.7-.4-.1-.9-.2-1.3-.4-2.8-.9-6.5-1.9-9.3-1.3-2.8.7-4.2.5-6-.1-.3-.1-.4-.3-.3-.6s.3-.4.6-.3c1.7.6 2.9.7 5.5.1 3-.6 6.9.5 9.8 1.4.5.1 1 .3 1.3.4l2.3.6c.5.1.7.1.9.2.6.2 1.2 1.3.2 2.1z" fill="#cc7a5e"/><path d="M346 221.8c-.5 1.1.8 2.2 2.6 3 1.8.9 3.5 1.3 4.1 0 .7-1.6-.8-2.2-2.6-3-2-.7-3.5-1.4-4.1 0z" fill="#ea9d7d"/><path d="M353.2 224.7c0 .1-.1.3-.1.4a1.65 1.65 0 0 1-1 1c-.8.3-2 .1-3.6-.7-1.1-.5-2.6-1.2-2.9-2.4-.2-.5-.2-.9.1-1.3.9-1.8 2.7-1.1 4.4-.3l.2.1c1.5.6 2.6 1.1 2.9 2.2.1.2.1.6 0 1zm-6.9-2.5c-.2 1 1.1 1.6 2.4 2.2 1.4.7 2.4.9 2.9.7.1 0 .4 0 .6-.4.1-.5 0-.7-.1-.9-.2-.7-1.5-1.2-2.5-1.6l-.2-.1c-1.9-.9-2.5-.8-3-.4 0 0-.1.4-.1.5z" fill="#cc7a5e"/><path d="M344.5 225.1c-.5 1.1.8 2.2 2.6 3 1.8.9 3.5 1.3 4.1 0 .7-1.6-.8-2.2-2.6-3-1.9-.9-3.3-1.5-4.1 0z" fill="#ea9d7d"/><path d="M350.6 229.3c-.8.3-2 .1-3.6-.7-1.1-.5-2.5-1.2-2.9-2.4-.2-.5-.3-1 0-1.4.8-1.8 3.1-.9 4.8-.1 1.5.6 2.6 1.1 2.9 2.2.15.4.1 1.8-1.2 2.4zm-3.3-1.6c1.4.7 2.4.9 2.9.7.2 0 .8-.5.5-1.3-.2-.7-1.5-1.2-2.5-1.6-2.2-1-2.9-1.1-3.4-.2h0c-.2 1.2 1.2 1.8 2.5 2.4z" fill="#cc7a5e"/><path d="M342.9 228c-.5.9.6 1.9 2.3 2.5 1.6.7 2.9 1.1 3.4 0 .5-1.2-.6-1.9-2.3-2.5-1.4-.8-2.8-1.2-3.4 0z" fill="#ea9d7d"/><path d="M345 231c-1.3-.5-2.2-1.2-2.6-2-.2-.5-.2-.9 0-1.2h0a1.65 1.65 0 0 1 1-1c.9-.3 2 .2 3.1.7 1.3.5 2.3 1.1 2.6 1.9.18.18.46 1.02-.44 1.93-.8.8-3.07-.03-3.66-.33zm-1.7-2.7c0 .1-.1.2 0 .3.2.5 1 1 2 1.4 2.1 1 2.6.7 2.8.3.2-.3.1-.5.1-.6-.2-.5-1.2-1-2-1.3-.9-.5-1.8-.8-2.4-.7-.1.1-.3.2-.5.6h0z" fill="#cc7a5e"/><linearGradient id="B" gradientUnits="userSpaceOnUse" x1="321.268" y1="225.51" x2="327.131" y2="208.95"><stop offset="0" stop-color="#ebffff"/><stop offset="1" stop-color="#c2e4f9"/></linearGradient><path d="M332.4 214.5l-4.3 10c-.4 1.1-1.7 1.7-2.9 1.1l-9.7-4.3 8-14.4 8 4.8c1 .7 1.4 1.9.9 2.8z" fill="url(#B)"/><linearGradient id="C" gradientUnits="userSpaceOnUse" x1="272.289" y1="167.426" x2="314.088" y2="180.598"><stop offset="0" stop-color="#7ba1c8"/><stop offset="1" stop-color="#8fc3e5"/></linearGradient><path d="M227.8 101.6c8-4.9 27.7 6.1 44.2 33.7 15.7 26.1 24.5 38.9 36.4 45.9 13.1 7.7 18.7 10.8 20 18.9s-5.5 19.7-8.6 24.4-15.5 10-34.2-1.2c-18.8-11.1-26.5-38.3-33.8-54-7.4-15.7-20.5-30-22-42.1-1.8-14.3-11.3-19.9-2-25.6z" fill="url(#C)"/><linearGradient id="D" gradientUnits="userSpaceOnUse" x1="312.659" y1="192.578" x2="296.764" y2="222.058"><stop offset="0" stop-color="#ebffff"/><stop offset="1" stop-color="#c2e4f9"/></linearGradient><path d="M308.1 180.9L286 223.6l8.4 4c4.4 1.5 9.1 2.1 9.1 2.1s2.3-4.3 9.1-18.1l10.3-21.1s-1.8-1.7-7.2-5c-2.2-1.7-7.6-4.6-7.6-4.6z" fill="url(#D)"/><linearGradient id="E" gradientUnits="userSpaceOnUse" x1="209.25" y1="153.84" x2="264.97" y2="153.913"><stop offset="0" stop-color="#7ba1c8"/><stop offset="1" stop-color="#8fc3e5"/></linearGradient><path d="M269.2 153.2c-.4-4.9-1.1-15.8-5.8-26.7-6.4-14.2-18.3-27.3-33.2-26.6-3.6.1-15 .3-21.4 26.6-.8 3.4-15.4 81.3-15.4 81.3h79.3c0-.1-3.1-50.8-3.5-54.6z" fill="url(#E)"/><g fill="#609ecc"><path d="M263 149l-.4 1.6 1.4-.3zm3.3 1.9l-.4 1.6 1.4-.3zm1.1-4.8l-.9-.3.1.8zm-4.9 4.3l-1.9.3 1 1.4zm6.1 3.8l-2.1.4 1.1 1.6zm.7 4l-2.2.3 1.1 1.6zm-.9-8.1l-1.8.5 1 1.2zm-2.2-.6l-1.8.5 1 1.4z"/><path d="M266.6 152l-2.1.5 1.2 1.5zm-.4-6.9l-1.9.4 1 1.4zm.4 1.9l-1.8.4 1 1.4zm-1.4 19.3l-2.1.5 1.1 1.4zm-.9-3.2l.2-2.2-1.8.6zm1.5 3l.2-2.2-1.8.6zm-3.9-11l-.4 1.8 1.7-.4zm.2-7.7l-.4 1.6 1.4-.3zm-1.2 20.7l-.4 1.8 1.6-.3zm2.4-10.2l-.1 1.3 1-.3zm-.7-5.6l1 .2v-.9zm-5.9 6l.5-.8-.9-.2zm-1.9-4.2l-1-.2.2.9zm5.1-.3l-.4.8h.8zm-5.1-5.5l.8.5.1-.7zm-4.5 18.7l-1.3-.2.4 1.1zm5.8-.3l-.4.9.9-.1zm-5.9-6.3l.9.6.2-.9zm1.7 20.2l-1.2-.1.2 1zm5.7-.3l-.3.9.9-.1zm-5.8-6.4l.9.7.2-.9zm2.8 3.4l-1.2-.1.3 1zm5.9-.3l-.5.9 1 .1zm-5.8-6.3l.8.7.1-1zm6.3 11.9l-1 .8 1 .5zm4-4.2l.3 1 .7-.7zm-8.5-.5l1-.2-.5-.8zm3.7-12.6l-1 2.1 2-.2z"/><path d="M256.2 163.2l.9.7.2-1zm5.5 9.1v-1.2l-1 .6zm0-5.1l-.6-1.1-.7.9zm3.6 4.6l-1 .2.5.7zm1.8-8.3v1l.8-.3zm-5.9 4.9l-1.7-.4.2 1.5zm7.7.7l-.7 1.2 1.2.1zm-6.6-9.5l.9 1 .5-1.1z"/><path d="M262.7 172.8l-.6-1.5-1 1zm4.3 5.7l-1.3.2.7 1zm2.5-10.3v1.2l1-.3zm-8.8-9.3l-.6-1.2-.6.9zm3.7 4.5l-1.1.2.6.8zm1.7-8.4v1l.8-.3zm.9 1.8l-.5 1.8 1.7-.3zm-1.3.4l-1.7 2.2 2.4.7zm.5-2.6l-2.6.4 1.3 2.1zm1.8 12.5l-2.8.4 1.4 2.1zm0 5.5l-2.6.4 1.3 2.1zm.1 5.2V175l-2.2.9z"/><path d="M263.5 176.2l1.4-1.6-1.9-.5zm1.2-4.6l1.3-1.6-1.8-.5zm5.3 2.5l-2.7.6 1.3 2zm-4.3-13.2l-.4 1.7 1.6-.3zm2.1.4l-.5 1.8 1.6-.3zm-9.6-10.7l-1.3-.2.4 1.1zm2.4-.6l-.1-.9-.7.5zm-5.8 1.3l-.4 1 .9-.1zm13.5 12.4l-1-.3.1.9zm-5.4-9l-.6.9.9.1zm6.5 11.9l-2.1.4 1.1 1.6z"/><path d="M266.4 166.2l3.8 1.3-.2-3.5zm.5 5.6l3.8 1.3-.2-3.7zm-.7-10.6l3.7 1.3-.2-3.5zm.8 17.5l3.8 1.4-.2-3.7z"/><path d="M265.8 157.1l3.8 1.3-.3-3.6zm-.2-4l3.7 1.3-.3-3.6zm0-3.8l3.4 1.1-.3-3.2zm4.6 26.2l-2.1.4 1.1 1.6zm-.7-2.3l-.5 2.1 1.9-.4zm-.3 5.8l-.4 2 1.8-.4zm-.9 2.8l1.6 1.4.5-1.9zm-2.3-2.1v2l1.7-.8zm1.3 3.2v2.1l1.6-.8zm-6.2-9.8l-.5-1.2-.8.9zm3.7 4.5l-1.1.2.5.7zm1.8-8.4l-.1 1 .9-.3zm-6.4-6.5l-.5-.9-.6.7zm-1.6-2.3l-.9-1.5-.9 1.3z"/><path d="M259.6 165.5l-.5-1-.5.8zm1-2.5l-.5-.9-.5.8zm.5 8.9l-2.1.5 1.2 1.4zm-2.9-.8l-.1.9.7-.4z"/><path d="M254.8 159.9l-.7-1.2-.7 1zm4.5 4.9l-1.2.3.6.8zm1.3-9.6l.1 1.2.8-.5zm2.3-24.1l-.1 1.5 1.2-.5zm3 3l-1.6.6 1 1.1zm1.1 4.2l-1.4.4 1.1 1.3zm-2.9-8.3l-1.4.9 1.3.9zm-2 .3l-1.5.9 1.3.9z"/><path d="M264 132.2l-1.5.5.9 1.2zm-1.5-3.9l-1.4.8 1.1.9zm1.9 16.7l-1.9.3 1 1.4zm-.7-1.9v-1.9l-1.5.6zm1.2 2v-1.9l-1.5.7zm-3.8-9.1l-.2 1.4 1.2-.4zm-1.2 8.7l-.6 1.9 1.8-.1z"/><path d="M261.3 146.4l-.6-.9-.5.8zm3.3 3.7l-.8.3.5.6zm1.2-7.4v.9l.7-.2zm-4.5 5.2l-1.4-.2.3 1.3zm6.8-.1l-.5 1.1h1.1zm-6.6-7.7l.9.8.3-1zm.2 10.8l-.6-1.2-.8.9zm4 4.9l-1.1.2.6.9zm1.9-9.1v1.1l.9-.4zm2.6 30.9l-2.1.4 1.1 1.6zm.9 4l-2.1.5 1.1 1.5zm-4 8.4l-2.1.4 1.2 1.6zm-.9-3.4l.2-2.2-1.8.7zm1.5 3.2l.2-2.2-1.8.6zm-4.2-10.9l-.4 1.8 1.6-.5zm-.8 12.9l-.4 1.9 1.6-.4zm2.1-10.1l-.1 1.2 1-.3zm-.5-5.8l.9.3v-.9zm-6.2 6l.6-.8-.8-.2zm-3.3-4l-1.2-.2.3 1.1zm5.9-.6l-.4 1h.9zm-6.1-6l.9.6.3-1zm-2.4 19.7l-1.3-.1.4 1zm5.8-.5l-.4 1h.9zm-6-6l.9.5.1-.9zm2 20.1l-1.3-.2.4 1.1zm5.8-.6l-.4 1h.9zm-6-6l.8.6.3-1zm2.9 3.3l-1.3-.2.4 1.1zm5.8-.5l-.4.9h.9zm-6-6.2l.8.6.2-.8zm6.5 10.7l-1 .7 1 .6zm3.9-4.4l.3 1 .6-.7zm-8.7-.3l1.1-.2-.5-.7zM262 189l-.9 2.2 2.1-.2zm-3.9-1.9l.8.6.2-.9z"/><path d="M263.6 196.1l-.1-1.2-1 .5zm0-5.2l-.7-1.1-.6 1zm3.6 4.5l-.9.3.5.7zm1.7-8.3v1l.8-.4z"/><path d="M263 192.2l-1.5-.3.2 1.4zm7.9.4l-.7 1.2 1.2.2zm-6.9-9.2l1 1 .4-1.2zm.2 13.3l-.7-1.4-.8 1.1z"/><path d="M268.8 202.2l-1.3.3.8 1zm2.1-10.4l-.1 1.3 1.1-.5zm-8.4-9.4l-.5-1.2-.8.9zm3.7 4.5l-1.1.2.6.8zm1.7-8.4l-.1 1 .9-.3zm.8 1.8l-.3 1.8 1.6-.3zm-1.1.5l-1.7 2.2 2.3.6zm.4-2.7l-2.7.6 1.4 1.9zm1.7 12.5l-2.7.7 1.4 2zm.3 5.5l-2.7.6 1.4 2zm-.1 5.4l-.1-2.8-2.3 1zm-4.4-1.5l1.3-1.8-1.8-.3z"/><path d="M266.7 195.3l1.2-1.8-1.9-.3zm5.2 2.4l-2.7.5 1.5 2zm-4.3-13.3l-.4 1.8 1.5-.3zm2.1.5l-.5 1.7 1.6-.3zm.4 2.4l-.9-.4.1.9zm-5.7-8.9l-.6 1 1 .1zm6.9 11.7l-2.1.5 1.2 1.5z"/><path d="M267.9 189.2l3.7 1.2-.3-3.6zm.5 6.3l3.7 1.2-.3-3.6zm-.8-11l3.7 1.4-.2-3.7zm1.3 17.7l3.6 1.4-.1-3.5z"/><path d="M267.4 180.4l3.9 1.4-.4-3.6zm4.5 18.7l-2.1.5 1.1 1.5zm-1.3-3.5l-.4 2.1 1.9-.6zm.5 6.9l-.3 2.2 1.8-.6zm-.8 2.9l1.7 1.4.5-1.9zm-2.4-2l.1 2 1.7-.9zm1.3 2.1l.1 2.1 1.6-.8zm-6.2-8.7l-.5-1.2-.7.9zm3.8 4.4l-1.1.3.7.7zm1.6-8.4v1.1l.8-.4zm-6.3-6.3l-.6-.9-.5.8zm-1.7-2.2l-1-1.5-.8 1.3z"/><path d="M261.5 189.2l-.6-.8-.5.7zm.9-2.4l-.5-.8-.5.7zm.6 8.9l-2.1.4 1.2 1.5zm-3-.8l-.1.9.8-.4z"/><path d="M256.6 183.9l-.9-1.3-.6 1.2zm4.5 4.7l-1.2.3.7.8zm1.1-9.7v1.3l1-.5zm.8-5.2l-.7-1.4-.8 1.1zm4.6 5.7l-1.3.3.7.8zm2.1-10.5v1.3l1-.4zm-9.6-30.3l-.6-.8-.4.8zm3.4 3.4l-.9.3.6.6zm.6-7v.9l.8-.3zm1.4 2.3l-.2 1.6 1.3-.4zm-1.3.4l-1.3 2.1 2.1.3zm0-3l-2.2.7 1.3 1.5zm2.4 10.9l-2.3.6 1.1 1.8zm-2.1-4.8l-.1 1.7 1.4-.5zm1.9.3l-.2 1.6 1.4-.4zm.5 1.8l-.9-.2.1.8z"/><path d="M261.5 135.1l-.4.8.7.1zm6.5 10.1l-1.8.4 1 1.4z"/><path d="M265 144.6l3.4 1-.5-3.1zm-.4-3.4l3.4.9-.6-3.1zm-.9-4.1l3.2.7-.6-3zm-1-3.7l3.2.5-.8-2.8zm-.6-3l2.9.3-.8-2.4zm-2.2 12.1l-.4-.7-.5.7z"/><path d="M259.5 145l-.5-.8-.4.7zm.7-2.1l-.4-.8-.5.6zm-1.9-24.4l.1 1.3 1-.7zm-2.1-3l-.7.2.4.5zm1.8 4l-.7 1 1 .2zm.6 4l-.7.9 1 .3zm2.5 3.1l-.6.7.9.3zm-.9 2.9l-.9-.5-.1.9zm-.1-2.7l-.8-.4v.8zm-2.5-7.6l-1-.4v.9zM256 115l-.5-.3v.6zm-1.7-.8l.4-.5-.6-.1zm-.6-.8l.3-.4-.5-.1zm4.4 7.4l-1.1 1 1.2.5zm3.1 4.1l-1.5-.4.1 1.3zm-.8-3l-1.5-.3.3 1.2z"/><path d="M257.8 121.4l2.8-.2-1.2-2.3zm1.3 2.4l2.8-.3-1.2-2.3z"/><path d="M260.2 125.9h2.8l-1.1-2.5zm1 2.4h2.9l-1-2.5zm-4.1-9.7l1.7-.2-.9-1.5zm-.5-2.9v1.5l1.3-.5z"/></g><g fill="#4479b2"><path d="M230 163.4l1.5-.9-1.2-.9zm-1.1-4.7l1.3-1.1-1.4-.5zm4.3 2.5l2 .4-.6-1.8zm-1.4-1.8l-1.4 1.3 1.8.7zm-.2-2l1.9.3-.4-1.6zm-8.2 13.4l2 .2-.5-1.6zm5.7-15.5l1.7.8.1-1.7zm2.8-3.9l1.5 1.4.5-1.7z"/><path d="M227.3 157.8l1.6 1.1.3-1.6zm1.5 1.6l1.4 1.1.6-1.7zm.9-2.1l1.8.7v-1.7zm-1.8 5l1.9.6-.2-1.7z"/><path d="M227 162.1l1.7.9.1-1.8zm7-4.2l1.1-1.3-1.5-.3zm2.2-7.8l1.3-.9-1.4-.6zm-.5 5.1l1.1-1.2-1.4-.4zm2.6-11.2l.9-.9-.5-.5zm-1.7 2.5l1.3-.9-.7-1.1zm1.1 4.7l.7-1.5-1.5.1zm-2.6-1.4l.7-1.5-1.4-.1zm-6 14.4l1.6-.6-1-1zm4.6-8.4l.7-1-1-.2zm-2.2 4.8l-.6-.8-.4.8zm7.6-2l-1 .3.7.6zm-2 11.9l1 .4v-.9zm-5.1-1.2l.6-.7-.8-.2zm3.5 6.9l-.6-.7-.4.7zm.2-18l-.5 1h1zm.8-5.2l.8.5v-.8zm-6.7 3.8l.8-.5-.8-.4zm1.9-3.2l1.1-1.1-.5-1.1z"/><path d="M231.9 154.8l2.4-1.1-1.8-1.5zm-1 1.3l2.3 1.2.1-2.3zm4.1-3.2l1.5-.7-1.1-1zm-.8-2.1l1.6-.6-1-1zm2.6 10.6l.9.5.2-1zm-4 2.7l-.6.8.9.1zm5.6-3.3l.8-.6-.8-.3zm-11.9 28.5l.9-.6-.7-.3z"/><path d="M208.7 196.9l.9-.3-.6-.6zm25-39.8l.7-.7-.6-.4zm-.5-2.3l-2.1-2.9-2 2.8zm-2.7 3.2l-1.7-3.2-2.1 2.6zm6.1-9.7l1.8.5-.3-1.7zm-.2-.7l-.5-1.6-1.3 1.9zm2.7-1l-.8-.9-.3.9zm-17.3 33.3l1.4-.6-1-.9z"/><path d="M234.6 150.8l-1-1.9-1.6 1.9zm-6.3 9.4l-1.6-2.9-1.8 2.6zm-1.7 3l-1.9-3.2-1.9 2.7z"/><path d="M225.1 165.6l-2.2-3-1.6 2.5zm9.8-8l-.2 1.6 1.4-.3zm-5 6.1l1.9.7-.1-1.8zm-12 12.9l1.8.7v-1.8z"/><path d="M221.9 176.2l1.7.6-.2-1.6zm7.5-12.6l-1.1 1.4 1.6.5zm-8 1.5l-1.2 1.5 2.8.5zm3.6 1.3l-1.3 1.4 1.8.5zm1.4-2.5l-1.1 1.4 1.6.4zm2.5 4.4l.2-1.1-1 .2zm.1 5.2l-.9-.4v.8zm6-5.1l-.8.7.9.3zm-11.1-1.5l.3-1.1-1 .2zm.2 5.3l-1-.5.1.9zm5.9-5.1l-.7.8.8.1zm2.9 11.6h1.1l-.4-.8zm-5.2.9l.3-.9-1 .1zm5.9 5.1l-.8-.5-.1.8zm-7.5-15l1.4-1.6-1.9-.5zm1.8 2.3l1.3-1.4-1.6-.5z"/><path d="M221.5 169l1.3-1.4-1.7-.5zm8.9-2.1l1.4-1.5-1.8-.4zm-10.5 14.8l1.4-1.4-1.6-.6zm20.8-15.7l-.6-.7-.3.8zm-8.7-.9l-.3 1 1-.1zm0-5.3l.9.5.1-.9zm-6.1 4.7l.7-.8-.8-.2zm16.7-16.8l.8.9.4-1zm-4.3-2.9l.8-.6-.7-.4zm.6 7.8l-.2-1-.7.5zm3.6-.8l.7.9.5-1zm-4.4-3l.8-.5-.6-.5zm.7 7.8l-.2-.9-.7.5zm.1-14.2l1.6 1.3.4-1.7zm4.2-1.3l1.3-1.1-1.4-.5zm-.1 4.9l1.1-1.2-1.5-.4zm1-11.3l.8-.8-.6-.4zm-1.2 2.4l1.1-1-.7-.9zm1.8 5l.8-1.6-1.5.1zm-2.6-1.4l.7-1.5-1.5-.1zm-2.8 10.9l.6-.9-.9-.2zm-2.2 4.9l-.7-.8-.3.8zm7.5-2.1l-.9.3.7.6zm-1.6-5.4l-.4 1.1 1-.1z"/><path d="M243.8 143.8l.7.5.1-.8zm-6.7 3.9l.7-.6-.8-.4zm1.9-1.9l2.3-1.2-1.8-1.4zm1.4 3.1l.3-2.6-2.3.6zm1.7-5.2l1.5-.7-1.1-1zm-1-2l1.6-.6-1-.9zm2.3-2.5l1.8.4-.3-1.8zm-.3-.9l-.8-1.4-1 2z"/><path d="M245 136.8l-.7-.7-.3.9zm-3.5 4.9l-1-1.9-1.6 2zm6.8-3.5l.7.6.3-.9zm-4.1-2l.6-.7-.6-.3zm1.5 6.6l-.4-.8-.5.6zm1.2.1l.3-1.1-1 .2zm-.2 5.4l-.8-.5-.1.7zm3.5-3.2l-.7.8.9.2zm-2.5-7.9l-.7.6.9.3zm-1.1-2.9l-1.1.3.6.8zm-.1-1.7l-1.1.2.6.8zm-1.5 19.9l.8.8.4-1zm-4.4-3l.9-.5-.6-.4zm.8 7.7l-.4-.8-.6.6zm-10.9 20.3l-.7 1.1.9.1zm2.4-4.6l.5.7.4-.7zm-7.7 1.9l.9-.4-.7-.6zm4.5-7.5l-.6 1 .9.2zm2.4-4.7l.5.7.4-.7zm-7.7 1.9l.9-.4-.7-.6zm1.6-1.1l2.3 1 .2-2.2zm-.3-2.5l1.9.5-.2-1.7zm.9 4.7l.7 1.6.9-1.1zm11.3-2l.3.8.6-.6zm.7 4.4l.6 1.1.8-.8zm-3.6-4.8l1.1-.1-.4-.8zm-2.1 8.5l.1-1-.9.4zm-7.7 9.5l1.1.8.3-1.1zm-5.4-2.7l.9-.5-.8-.5zm2.2 8.6l-.5-1-.6.7zm2.4-18.1l-.3-1.7-1.2.8zm-3.2 2l1.3-1-1.2-.8z"/><path d="M222.8 170.9l-.1-1.7-1.2.7z"/><path d="M221.4 169.3l-1.3 2.2 2.3.3zm-1.1-2.6l-1.2 1.9 2.6.7z"/><path d="M221.8 171.6l1.8 1 .1-1.8zm-2.1 1.8l1.5 1.1.4-1.7zm2.6 1l1.4-.8-1.1-.8zm-2.3-1.8l1.2-1-1.2-.8z"/><path d="M226 170l.1.9.8-.6zm-5 1.4l-1.9-3.1-1.8 2.6zm-6.7 9.7l.8-.6-.7-.6zm-.1-1.7l1.2 1 .3-1.3z"/><path d="M215.2 177.3l1.3.8.2-1.4zm-.3 3.2l1.1.6.3-1.1zm4.9-2.9l-1.5 1 1.4.8zm-8.9 9.7l-1.4-1.2-.4 1.5z"/><path d="M217.7 179l-1.4 1 1.4.8zm3.3-4.9l-1.5 1 1.5.8zm3.4 2.1l-.4 1h.9zm.6-4.7l.8.6.1-.8zm-6 3.7l.7-.7-.8-.2zm4.9 8l-.4.9.9-.1zm.4-4.8l.7.4.1-.7zm-5.9 3.9l.7-.5-.7-.3zm6.3-1.4l-.4 1h.9zm1-4.7l.6.6.3-.7zm-6.3 3.5l.7-.6-.7-.3zm-3.6-.5l1.3-.5-.9-.9z"/><path d="M216.5 178.3h2.1l-.7-1.6z"/><path d="M217.9 177.9l1.2-.6-1-.7zm-.9-2.5l1.3-.7-1.1-.9zm1.2-1l.4.8.5-.6zm1.2-.8l-2-2.6-1.7 2.5zm-2 2.6l-1.5-2.4-1.4 2.3zm-1 2.2l-2-2.1-1.1 2.2zm-1.4 2l-1.6-1.8-1 1.9zm2.3 2.8l1.3-.8-1.1-.8zm-3.3-.5l1.4-.9-1.4-.8z"/><path d="M214.9 182.3l1.5-.9-1.3-.8zm0 2l1.6 1.1.3-1.7zm-2.2 1.3l1.3 1.4.6-1.6zm2.2 1.7l1.5-.7-1.1-.9zm-1.9-3.1l1.4-.9-1.3-.8zm4.9 2.5l-.7.5.7.4z"/><path d="M214.7 183.6l-2.3-3.2-1.5 2.4zm-1.1 2.9l-1.7.6 1.1 1.1zm2.1 3l-.4 1 .8.1zm1.8-4.4l.6.7.3-.7zm-6.7 2.3l.8-.4-.6-.5zm3 9l-.6.8.9.3zm2.4-4.2l.5.8.4-.7zm-6.9 1.3l.7-.3-.5-.6zm6.6-.5l-.5.9.8.2zm2.4-4.1l.5.7.4-.6zm-6.8 1.2l.8-.3-.6-.5zm26.5-17.5l1.1.5-.1-1zm-5.2-.6l.4-.6-.9-.2zm4.1 6.6l-.6-.7-.4.9zm-9.5 14.2l.8-.5-.8-.4zm6.9-7.9l1.2.1-.4-.9zm-5.2.7l.4-.8-.8.1zm5.8 5.3l-.8-.5-.1.8zm-13.6-3.3l1.4-1.4-1.6-.6zm-9.1 4.1l1.8-.8-1.4-1.1zm-2.6 4.2l1.8-.9-1.3-1.1zm1.5-4.2l-.2 2 1.6-.6zm2.4-4.9l.1 2 1.5-1zm-7.9 17.8l-.2 1.3 1.2-.3zm-.5-.4l2.4-1.2-2.1-1.5zm14.3-17.1l1.5-1.4-1.7-.6zm-13.2 10.3l2.9-2.2-2.3-.2zm-.7 3.9l2.5-1.2-2-2zm2.2-1.7l.6-1.1-1.3-.1zm1-5.2l.6-1.1h-1.4zm.9-2.5l.6-1.1-1.4-.1zm22.2-10.9l-.7 1 1 .2z"/><path d="M233.7 176.3l.6.5.4-.7zm-7.5 2.3l.8-.6-.6-.4zm.4 8.6l1 .8.4-1.1zm-5.2-2.8l.9-.6-.9-.5zm1.7 8.7l-.3-1.1-.7.7zm1.8-4.4l-.2 1h.9zm.7-4.6l.7.5.1-.9zm-6 3.6l.7-.5-.7-.3zm6.5-3.2l-.2 1 .9-.3zm.6-4.8l.6.4.2-.8zm-5.9 3.9l.6-.6-.7-.3zm-5.6 5.9l1.6 1.2.4-1.7zm-.1 3l1.6-.6-1-1zm-7.9 5.4l1.6-.4-.9-1.1zm1.9-3.3l1.7-.2-.9-1.3zm9.2-2.3l-.8.5.8.4zm-2.2 2.8l-.6.9.9.1zm2-4.3l.5.6.4-.7zm-6.9 1.9l.8-.4-.5-.5zm4.3 8.6l-.6.8.9.2zm1.9-4.4l.6.6.3-.7zm-6.8 1.9l.8-.4-.5-.5zm.2-6.3l.6-1.2-1.1-.1zm-1.3-2.9l.9-1.1-1.2-.4z"/><path d="M210.5 186.2l-.1.9.8-.2zm2.3-1.3L211 183l-1.1 2.6zm-3.5 8.5l-1.6-1.9-.9 3.2zm1.7-3l-2.3-1.7-.6 2.5z"/></g><linearGradient id="F" gradientUnits="userSpaceOnUse" x1="211.017" y1="159.983" x2="247.578" y2="171.826"><stop offset="0" stop-color="#4479b2"/><stop offset="1" stop-color="#4479b2" stop-opacity="0"/></linearGradient><path d="M247.5 119.9s4 19.4 3.8 39.9l-.7 47.9h-52.5s-4.1-24.6 6.8-48.4 42.6-39.4 42.6-39.4z" fill="url(#F)"/><path d="M171.4 210.9c1 19.8 4.3 39 4.3 39s-1.7 6.9 1.7 13.8c.2.6 1.2.9 2.1 1.4.5.3 1 .8 1.5.9.4.1.5-.3 1.1-.2.8.1 1.7.6 2.4.4 2-.8 1.9-.2 2.7-.3 1.1-.2 1.5-1.1 1.7-1.3l.2-5.4c-.2-1 1.5 1.2 2.2 2.6 1 1.5 2.9 2.3 2-.7s-1.3-5.6-1.6-6.3c-.3-.8-1.3-3.9-2.7-5.6-.9-1.2-2.6-2.4-2.8-5.8-.1-5.7 3.1-25.6 4.7-35.3.8-5-20.3-11.5-19.5 2.8z" fill="#ea9d7d"/><linearGradient id="G" gradientUnits="userSpaceOnUse" x1="182.208" y1="245.632" x2="167.295" y2="243.785"><stop offset=".005" stop-color="#cc7a5e" stop-opacity="0"/><stop offset=".924" stop-color="#aa5f4b"/></linearGradient><path d="M172.9 228.2c1.4 12.4 2.9 21.7 2.9 21.7s-1.2 6.7 1.7 13.8c1 2.5 5.5-5 5.7-9.5 1.2-30.5-10.9-31.4-10.3-26z" fill="url(#G)"/><path d="M177.1 264.3c-.7-1.2-1.5-4.2-1.8-5.9-.5-2.5.1-8.4 0-8.6.1-.3.3-.5.5-.5.3.1.5.3.5.5 0 0-.6 6-.1 8.4.6 3 1.5 5.3 2.2 6 .5.5.9.4.9.4.2-.1.3-.2.4-.1.1 0 .2.2.3.3 0 0 .4.8 1 .8.7 0 .8-.5.8-.6.1-.3.3-.4.5-.5.3.1.5.2.5.5 0 .2.1.9 1.1.8.4 0 .7-.1.8-.2.4-.4.4-1 .4-1 0-.2.2-.5.5-.5.2 0 .5.2.5.4.1.1.2.7 1.1.7.8 0 .9-.2 1.1-2l.3-5.1c0-.2.2-.5.4-.5a.55.55 0 0 1 .5.3c.8 1.6 2.4 4.3 3.2 4.7.1 0 .3-.1.3-.4 0-.1-.9-3.6-.9-3.6-.6-2.8-1.6-7.2-3.7-9.4-1.9-2.1-2.5-3.4-3-5.3-.1-.3.1-.6.4-.6s.6.1.6.4c.3 1.7 1 2.8 2.6 4.8 2.3 2.4 3.3 6.9 3.9 9.9 0 0 .6 2.4.8 2.8.5 1.5.1 2-.2 2.3-1.8.86-3.2-2.1-4-3.5 0 .9-.2 3.4-.2 3.4-.1 1.6-.3 2.8-2.1 2.9a1.72 1.72 0 0 1-1.5-.5c-.1.2-.2.4-.4.5a2.16 2.16 0 0 1-1.54.64c-.9 0-1.46-.44-1.76-.84-.3.3-.64.52-1.3.56-.8 0-1.4-.56-1.7-.96-.4 0-1.42-.46-1.9-1.4z" fill="#cc7a5e"/><g fill="#ad5c44"><path d="M177.3 243.9l.4-.7.6.5zm3.6 0l.3-.8.8.7zm-1.9.9l-.8.3-.1-1.1zm-1.3.1l-1.2.3.1-1.3z"/><path d="M178.6 243.2l1.5-.1-.6 1.1zm-3.4 2.6l-.3-1.7 1.3.6zm-.3-2.3l1.8-.1-.8 1.1zm2 .3l.3-.4.2.6zm5.2 1.3l-.4.2.1-.5zm-1.9-1.1l.4.4-.6.2zm-4.1 1.7v-.6l.5.3zm4.6.4l.4-.2v.5zm-4.5.6l-1-.1.7-.8zm-.1 8.6l.2-.7.8.2zm.6-5.7l-.9-.3.7-.8zm1.3-1.2l-.6.5-.3-.9zm-.5 3l.3.9-1 .1zm-1.1.3l-.1-1.5 1 .7zm-.7-2.8l-.3-1.7 1.4.7zm.4 5l.1-1.1.8.6zm.9-6.5l-.2-.2.4-.2zm2-.9l-.2.1-.1-.3zm-2.4-1.5l.1.3-.4-.1zm1.5 8l.5-.3.1.5zm-1.3 3.3l-.4.3.1-.7zm.2-9.4l.3-.4.2.5zm-.3 3.4l.4-.4.3.6zm1.1 4.7l-.1-.7.6.3zm1-5.2l-.2-.4h.5zm-.7-4.4l.5-.2v.5zm.9 2.6l-.1-.4h.5zm-2.6 10.5l-.2-.6.7.1zm3.3-7.6h-.5l.2-.4zm-1.6 4.7l-.2.3-.4-.2z"/></g><linearGradient id="H" gradientUnits="userSpaceOnUse" x1="186.437" y1="236.697" x2="168.299" y2="236.693"><stop offset="0" stop-color="#ebffff"/><stop offset="1" stop-color="#c2e4f9"/></linearGradient><path d="M186.3 242.4l-10.9.6c-1.2.1-2.3-.9-2.3-2.1l-.6-10.5 16.5.8-.6 9.3c0 1.1-1 1.9-2.1 1.9z" fill="url(#H)"/><linearGradient id="I" gradientUnits="userSpaceOnUse" x1="177.129" y1="135.716" x2="221.257" y2="195.414"><stop offset="0" stop-color="#b9e4ff"/><stop offset="1" stop-color="#84b4d7"/></linearGradient><path d="M240.1 104.4c8.2 6.1 13.6 20.1-6.9 44.8s-26.4 39.8-28.6 57c-2.1 17.2 0 21.8-6.6 27s-21.5 3.6-27.2 2.7-16.5-2.8-15.8-28 12.3-50.9 22.4-66.2c10.2-15.4 21.2-28.4 31.2-35.8 12-8.6 21.8-8.6 31.5-1.5z" fill="url(#I)"/><linearGradient id="J" gradientUnits="userSpaceOnUse" x1="159.18" y1="212.282" x2="200.301" y2="216.301"><stop offset="0" stop-color="#ebffff"/><stop offset="1" stop-color="#c2e4f9"/></linearGradient><path d="M204.6 205.8l-49.3-1.5s-.6 6.3-.2 9.8c.4 4.4 1.3 8.8 1.3 8.8s3.6.6 18.8 1.2l27.7.7s.5-2.2.6-7c.4-3 1.1-12 1.1-12z" fill="url(#J)"/><g fill="#e6f7ff"><path d="M157 216.5l1.1-.2-.8-1.1zm.1-3.7v-.6l-.6.3zm-1.5 4.6l.9-.9-1.3-.5zm2.9-1.7l.4-1.2-1.4.1zm.4 2.6l.3-1.3-1.4.2zm-.7-3.9l.3-1.3-1.4.1zm8.6-1.2l.8-.2-.7-.7zm-11.5-.5l-.1 2.5 2.5-1.1zm3.7-11.4l1.1.2-.3-1.2zm-2 .3l1.1.2-.3-1.2zm-.1-2.4l1.1.2-.3-1.1zm.6 1.1l1.1.2-.3-1.2zm2.4 3.3l.7-1.1-1.4-.3zm-3 1.1l.7-1.1-1.5-.1zm-.7 2.8l.7-1.2-1.5-.2zm-.3-8.5l-.1 1.6 1.8-.7zm3 .5l.9-1-1.5-.2zm-1 3.9l.9-1.1-1.5-.3zm.8-5.9l.7-1.1-1.4-.2zm.7 14.7l.5-1.2-1.5.2zm-.1-4.3l-1.2-.1.3 1.3zm-.4 1.9l-1.3-.1.4 1.4zm-1.2-3.9l1 .2-.4-1.3zm1.3-8l1.1.2-.3-1.1z"/><path d="M157.1 197.6l.9.2-.3-1.2zm1.7 13.1l.8.1-.2-.9zm-.2-5l.1.7.6-.3zm5.3 3.1l-.5.2.4.6zm-4 3.5l1.3-.4-.9-1.2zm3.2-4.6l.3.5.4-.5zm-1.3-2.9l.5.7.4-.8zm1.3-7.5l.1.8.6-.5zm4.4-2.2l-.7.4.6.4zm-2.8 7.1l-.6.3.6.5zm2-.8l-.4-.4-.4.6zm.1-2l-.4.5.7.1zm2.1 1.8l-.4.5.7.1zm-12.9 5.1l1.1.2-.4-1.3z"/><path d="M156.9 207.5l1.5-.6-1.3-1.3zm1.6-2.3l.9-1.4-1.9-.2zm-1.3 11.2l.5-1.6-1.9.3zm-.5-7.4l1.1-.1-.5-1.1zm-1.2.6l1-.1-.4-1.1zm6.4-10.2l-.5-.4v.7z"/><path d="M156.7 210v-.6l-.6.3zm2.2-5.7l.6-.2-.5-.6zm-2.1 8.8l.4-1.1h-1.4z"/><path d="M155.2 209.9v2.5l2.5-1.1zm-.1-3.1l.1 2.3 2.4-1.1zm.3-3.1l-.1 2.4 2.5-.9zm.3-3l-.3 2.6 2.5-.9zm.5-4.1l-.3 2.4 2.6-.8zm5.6 11.2l-.5-.4-.1.7zm-1.7-.6l-.8-.6-.3 1.1zm.6-3.1l-.4-.4-.4.8zm2 5.4l-.5-.5-.2.7zm-1.3-15.6l.7.5.2-.9zm-1.3-7.5l.4.7.5-.7zm2.1-2.4l-.5.4.6.3zm-.8-3.6l-.4.4.7.3zm-.4-3.2l-.4.4.6.4zm2.3 14.5l-.5-.4-.1.8zm-2.2-.9l-.5-.4-.2.6z"/><path d="M159.5 188.2l.9 1.1.5-1.5zm5.4 0l-.3.6.7.1zm-3.4-9.1l-.3.5h.6zm-.5-2.8l-.2.6h.8zm2.2 12.5v-.5l-.6.2zm-1.5-1.3l.1-.6-.6.3zm1.7 8.5v-.6l-.7.2zm-1.8 12.1l-.5-.4-.2.7zm-3.5-20.9l.7.2-.1-.8zm.8 3.2l.7-.7-1.1-.4zm-1.3 1.9l.6-.7-1.1-.4zm.6-6.1l.9-.2-.6-.8zm2.4 6.8l-1.1-.4.2 1.3zm-.5 2.2l-1.1-.2.2 1.3zm2.5 1.6l-.4-.5-.4.8zm-2.5 3.7l.4-.4-.7-.2zm-2.2-5.2l.6.2-.1-.6zm.4-3.6l.8.1-.4-.8z"/><path d="M158.2 193l1.3-.5-1.1-1.1zm.1.5l.9.2-.2-.9zm-1.5.9l1 .1-.4-1zm1.6.6v-.6l-.6.3z"/><path d="M156.6 194.3l-.3 2.2 2.4-.5zm.2-2.4l-.2 1.9 2.1-.5zm.8-2.2l-.4 1.8 1.9-.5zm1.3-6.1l-.4 1.5 1.7-.3zm-1 4l-.4 1.7 1.8-.4zm2-6.7l.2.6.5-.5zm.8 2.5l.7.7.5-1.2zm-.5-4.7l.9.8.2-1.3zm-.2 5.2l.6-.6-.9-.3zm-.6-2.3l-.4 1.3 1.5-.3zm.5-2.5l-.1 1 1.1-.2zm0 44.2l1-.3-.7-1zm-1.7 1.1l1.1-.3-.9-.9zm-1.2-2.1l1.1-.2-.6-.9zm1.1.7l1-.3-.7-.9zm3.7 1.7l.1-1.2-1.4.5zm-2.1 2.6l.2-1.4-1.4.6zm1.3 2.7l-.1-1.3-1.2.6zm-4.6-7.4l.4 1.7 1.5-1.2zm2.8-.9l.3-1.2-1.5.3zm.9 3.9v-1.3l-1.3.5zm-2-5.6l.2-1.4-1.3.4zm7.1 9.5l-1 .7 1.1.8zm-3.7-1.5l1-.7-1-.6zm-2.8-7.8l1-.3-.8-1zm-2.2.4l1.1-.2-.7-1zm7.8 4.3l.7.3.1-.8zm-2.3-6.7l.6.7.4-.8zm3.4-3.6l-.3.4.6.3zm.1 6.6l-.4.5.7.3zm1.5-1l-.6-.2v.8zm-.8-1.9l-.1.7.7-.2z"/><path d="M169.1 219.3l-.2.6.8-.2zm-5-3.2l.5-.4-.5-.4zm-1.5 1l.5.5.2-.7zm-2.7-1.2l.5.4.3-.7zm1.4.8l.3-.6h-.6zm-.6 3l.7-.9-1.3-.3zm2.6 3.6l.4-1.2-1.3.2zm-3.3-6l.3-.5-.7-.1zm.3 11.8l.9-.5-.9-.8zm1.5.5l.9-1.5-1.9-.3zm.1-2.8l-.1-1.6-1.7.7zm1.3 4.1l.8-.7-1-.6zm-.3 1.9l.8-.7-1.1-.6zm-1.1-12.3l-.6-.1.2.7z"/><path d="M163.9 231.7l-.5-.4-.3.6zm-2.6-5.7l.4-.6-.6-.2zm-1 4.7l1.6 1.7 1.1-2.4zm-2.1-3.2l1.3 2 1.5-2.2zm-1.3-3.1l1 2.5 1.7-2.1zm-.9-4.2l.3 2.4 2.4-1.5zm10.4 7.1l-.6-.1.2.6zm-1.8.5l-.9-.3.1 1.2z"/><path d="M163.1 224.9l-.7-.2.1.7zm3.2 2.7h-.6l.3.7zm-8-10.2l-1.1.1.7 1.1zm3.2.5l-.7-.3v.7z"/><path d="M160.6 222.3l.1-.6-.6.2zm-3.9-3.9l.4-.1-.2-.5zm.7.6l.9-.3-.5-.7zm-1.1 1.3l.9-.3-.6-.9z"/><path d="M158 220.3l-.2-.5-.4.4zm-2.4-2.4l.3 1.8 1.8-1.2zm10.1 16.7l-.1-1.4-1 .9zm1.2-2.9l-.9-.9-.4 1.4z"/></g><g fill="#609ecc"><path d="M241.5 123.8l-.5-.7-.5.9zm-4.2 7.8l-1-1.2-.8 1.8zm4.3.3l-1.2-1.1-.5 1.6zm-1.5 1.5l-1.7.9 1.8 1.3zm2.9-4.3l-1.5 1.1 1.9 1zm1.9-4.2l-1.2 1.5 2 .5zm-2.5 9.7l-1.8.7 1.5 1.5zm-3.1-3.1l-1.8.6 1.4 1.6z"/><path d="M240.9 130.5l-1.5 1 1.8 1zm-2 5.9l-1.7.7 1.3 1.4zm6.7-14.6l1.8.8-.1-2.2zm-5.8 6.7l-1.5-.4.2 1.7zm-2.8 6.3l-1.2-1.1-.6 1.6zm4.7-9.8l-.7-.6-.4 1.3zm-3.1 6.6l.3-.8-1-.1zm4-14.3l1 .1-.3-1zm2.6-5.9l-.6.9 1.1.2zm.2 4.4l-1-.4.1 1.1zm-16.5 18.6l.2-.9-1 .3zm16.8-21.2l-.4 1.1 1.2-.1zm-2 2.2l-.1-.7-.9.5zm2.1 3.9l-.4-.8-.6.7zm-6.8 7.4l.9.7.4-1.1zm5.7-4.5l-.9-.2.3.9z"/><path d="M240.5 121.5l.4.9.9-.7zm1.8 7.8l-.6-.6-.2 1zm2.5-2.1l-1.6-.4.3 1.7zm-1.5-1.8l-2.4.3 1.5 2.4zm-2.4 2l-1.8 1.6 2.3 1.2zm3-4.1l-1.5-.6.2 1.8zm2 0l-1.5-.1.6 1.7zm-12.7 8.6l-.5.9 1.2.2z"/><path d="M233.9 133.1l.5.7.4-.9zm-2.1-2.5l-.9-.4v1zm12.5-8.5v.9l1-.5zm-5.3 6.2l-1-.2.4 1zm7.3-1.2l.6-2.9-2.8.5zm-1.6 4.2l1.1-3.3-2.9.7zm-1.5 3.4l1.4-2.9-3 .6zm-2.4 4.3l1.4-2.4-2.6-.4zm2.9-18.6l.6.7.3-.9zm2.3-3.4l1.3.7V116zm-5.9 3.2l.6.6.3-1zm6-1.3l.7.5.3-.9zM235 140l-1.3-1-.5 1.6zm2.8.1l-1.3-1-.5 1.6zm-3.1 5.4l-.5.8 1 .2zm.6-10.1l-1.7.7 1.5 1.5zm6.6-2.4l-1.3.5 1.1 1zm-1.5 5.2l-1-.8-.4 1.4zm-1.3-3.5l-1-.8-.4 1.5zm-1.4 5.9l-1.7.8 1.5 1.4zm-1.8.2l-1.8.7 1.5 1.4zm1.6-3.5l-1.7.7 1.5 1.5zm-3.9 6.9l-1.9.7 1.5 1.5zm1.6-1.3l-1.9.6 1.5 1.5zm-2.5-1.9l-1.1-1.1-.6 1.6zm6-10l-.7-.7-.5 1.1zm-3.5 7.9l.5-.7-1-.2zm-1.4-10.2l.9.3-.2-1zm3.5-1.5l-.8.6 1.1.6zm-4.3 6.9l-.8-.5-.2 1zm-8.4 3.2l.4-.8h-1zm3.8-.1l-.7.7 1.2.4z"/><path d="M229.9 138.9l.3.9.6-.8zm-2.3-5.5l-.7-.6-.2 1zm11.1 8.7l1.7-2.7-2.6-.3zm-2.6 3.5l2-2.6-2.7-.2zM221.2 157l-1.2-1.1-.5 1.7zm2.7.9l-1.1-1.1-.6 1.6zm-1.6 3.2l-1.1-1.1-.6 1.6zm0-1.8l-1.2-1.1-.4 1.7z"/><path d="M221.8 153.6l-1.7.6 1.6 1.5zm4.6.8l-1.6.6 1.5 1.6zm3-2.4l-1.8.6 1.5 1.5zm-6.6 10.5l1.5-2-2.8-.6zM220 159l-1.8.7 1.5 1.5zm4.1-3.9l-1.6.7 1.4 1.5zm-5.6 6.7l-1.7 1 1.6 1.2zm14.6-20.3l-1.2 1.4 2.1.6zm-6 7.6l1.2 1.4.9-2zm2.9-2.4l1.1 1.3 1-1.8zm-3.4 5.4l-1.2-1.2-.5 1.9zm-8.6 8.7l-1.2-1-.3 1.7zm2.8 2.1l-1.2-1.1-.4 1.7zm9.2-18.3l-.5-.8-.7 1zm-5.3 6.6l.6-.8-1-.3zm-1.2-10.4l.8.4v-1.1z"/><path d="M231.4 142.7l-1.5-1.2-.4 2.2zm-7.7 1l.3-.8h-1.1zm1-4.7l.1 1 1-.5zm6.6-2.2l-.8.3.5.7zm-3.2 9.8l-.6-.7-.4.9zm2.1-14.9l-.1 1.2 1.1-.5zm7.9-6.6l-.9.1.5.9zm-7.6 14.8l-.4-.8-.6.6zm-1.7 13.1l-1.2-1.1-.6 1.7z"/><path d="M228.8 150.9l-2.4-.6.5 2.6zm-4.2 1.5l-2.2 1.2 2.2 1.7zm9.8-8.9l-2.3.9 1.9 1.9zm-4 4.4l-1.2-1-.6 1.7zm2.2 1.6l-1.2-1.2-.5 1.7zm-17.3 7.8l.6.9.3-1z"/><path d="M231.8 147.6l-.7.8 1.1.3zm-8.3 5.9l-.9-.2.2 1zm9.3-4l2.2-2.5-3.1-.6zm-3.2 4.1l2.2-2.7-3.7-1.1zm-2.3 3.1l2-2.8-3.7-1zm-3.1 3.7l2.5-3.2-3.8-.6zm-3.3 4.8l1.9-2.8-3.8-.7zm4-20v.9l.9-.4zm.7 3.8l.1 1.5 1.6-.8zm-3.8 2.3l.1 1.1 1-.5zm4.2-8.8l-.1.8 1-.5zm1.5 1.2l.1.8.8-.5zm-10.2 25.9l-1.4.3 1 1.4zm-3-4l1 1.3.9-1.7zm-1.5 3.5l1.2 1.2.8-1.7zm10-19.1l1.5.9.3-1.9z"/><path d="M215.5 163.4l1.2 1.2.7-1.7zm-2.7-3.7l.3 1 .9-.7zm5.8-2.9l-.8.5.8.4zm-.8 8.2l-.5-.6-.3.8zm1.1-18l.2.9.9-.5zm2.5-3.5l-.8.3.7.6zm-2.2 10.4l-.5-.6-.4.8zm-4.4-2.6l.1 1.1 1-.5zm2.5 4.4l-.8.3.6.7zm-2.5 7.9l-.4-.8-.5.8zm1.4 6.6l-1-.7-.3 1.4zm1-2.2l-1.8-.5.4 2.1zm.3-1.2l-.8-.9-.6 1.4zm1.6.6l-1.2-.7-.2 1.5z"/><path d="M217.4 165.4l-.3.6 1 .1zm1.7 2.7l1.7-2.7-3.4-1zm-1.8 2.8l1.3-2.4-3-.4zm-1.9 3l1.3-2.5-3.1-.3zm-9.4 8.4l-1.3-.9-.2 1.9zm2.8.4l-1.1-.9-.3 1.7zm-.8 3.5l-1.4-.8-.1 1.8zm-.4-1.9l-1.3-.8-.3 1.8z"/><path d="M211.4 169l-1.5 1 1.9 1zm-.7 9.7l-1.5 1 1.7 1.2zm2.4-2.9l-1.7.9 1.7 1.2zm-4.2 11.5l.9-2.2-2.8.2zm-3.7-2.4l-1.4 1.2 1.9.9zm3.4-5l-1.6 1 1.8 1.1zm-4.1 8.1l-1.2 1.4 1.7.6zm7.6-14.9l-1.4-.7v1.8z"/><path d="M204 187.1l-1.6-.5.2 1.7zm3.1 1.2l-1.4-.7v1.8zm5.5-11.4l-1.3-.9-.2 1.7z"/><path d="M212.2 174.7h-2.4l1 2.5zm1.3-2.5l-.8.7 1.1.6zm-13.2 11.6l.6.6.4-.9zm7.4-5.4h-1l.5 1z"/><path d="M213.5 177.2l1.7-3.1-3.9-.3zm-1.6 3.6l1.5-3.2h-3.8zm-2.2 4.2l1.9-3.5-4 .1zm-1.8 5.6l1-3.3-3.9.3zm-2.2 5.3l-1.3.8 1.5.8zm-1.6 3.2l1.4 1 .2-2zm-1.1 6.6l1.4.8.2-1.8zm-1-15.3l1.6.8.1-1.9z"/><path d="M201.5 203l.5.9.6-.8zm4.5-26.6l-.7.5.8.4zm-1.3 14.9l-.7-.5-.1.9zm3.2-18.5l-.6-.6-.2 1zm-4 5.9l-.7.5.7.6zm-1.3 20.4l-.6-.6-.3.8zm2.2-2.3l-1.1-.3.1 1.4zm.2-2.4l-1.8.2 1 1.9zm-1.1-1.6l-1.1-.6-.1 1.4zm2.8.4l-1.3-.4.1 1.5z"/><path d="M204.5 191.7l-.1.7.9-.1zm2.4 2.1l.8-3.1-3.4.2zm-.9 3.3l.7-2.7-3.1.7zm-1.2 6.1l.6-2.7-3 .8z"/></g><g fill="#e6f7ff"><path d="M174.9 150.9l1.1-.7-1-.4zm-2.3 1.7l.6.6.3-.6zm.2-3.1l1.4-.2-.7-1zm2 1.9l1.3.8.1-1.4zm1-2.1l1.2.5v-1.2zm-2.2 3.1l1.3.7.1-1.4zm8.6 4.7l.9-.3-.6-.5zm-7.9-5.1l-1.7-2.1-1.2 2.1zm-4.7 12.9l.8-.9-.9-.3zm-1.5-1.3l.8-.9-1-.3zm-1.3 2l.9-1-1-.2zm1.1-.7l.8-.8-1.1-.4zm2.2-1.9l1.4.3-.2-1.2zm-2.1-2.4l1.3.4v-1.4zm.9-2.9l1.4.5-.2-1.2zm-1.4 6.4l-1.2-1.5-.7 1.6zm-.1 1.8l1.4.4-.3-1.2zm.9-3.7l1.3.5v-1.3zm-2.3 5.2l1.3.5v-1.3zm8-12.8l1.3.8V154zm-.9 1.8l-1 1 1.3.5zm.5-1.9l-1 1.1 1.3.4zm-2.8 5.7l1-.7-1.1-.6zm-2.8 7.6l.9-1-1-.4zm-1.9-.7l.8-.9-1-.4zm8.2-10.9l.6-.8-.7-.1zm-1.6 3.6l-.5-.7-.2.6zm5.6-1.6l-.7.3.6.5zm-2.7-2.4l1.2-.7-1.1-.8zm1.9 4.2l-.2-.7-.5.3zm-3 2.5v-.8l-.6.4zm-2.6 6.7l-.4-.7-.4.5z"/><path d="M174.2 172.3l-.8.2.4.5zm1.2-7.3l-.7.1.3.5zm.3 1.8v.7l.5-.1zm.2 2l-.8-.2.2.6zm2.9-.6l-.6-.3.1.7zm-9.1-9.1l.9-.9-1.1-.3z"/><path d="M170.1 159l1.8-.4-1-1.4zm-.7 2l1.8.7-.1-1.7zm4-10.4l1.6.8.2-1.6zm-1.8 6.6l.9-.9-1-.5zm-1-1.2l.9-.8-.9-.5zm.2 10.1l-.4.6.7-.1zm-4.6 18.4l-.7-.4-.2.6zm3.4 2l-.6.4.4.3z"/><path d="M166.7 191.4l-.6.5.4.3zm.9-12.1l-.6.4.5.3zm1 1.5l.3.6.5-.3zm1 1.7l-.7.2.4.4zm2.4-1.7h-.6l.3.6zm-1.5-5h-.6l.4.6zm-6.6 6.4l-.1.7.6-.4zm7.3-27.3l.5.5.4-.5zm-.6 6.9l.7-.3-.5-.5zm1.3-8.9l1.3.6.1-1.4zm1 1.5l-1.6-2.1-1.1 2.1zm-1.2 2.4l-1.7-1.9-1.1 2.2zm-1.4 3.1l-1.8-2.2-1.1 2.2zm-1.3 2.5l-1.7-2.1-1.1 2.5zm-1.5 3.7l-1.9-2-.8 2.1zm7.6-7.5l-.1.6.7-.2zm-2.1-.8l-.2 1.2 1-.3zm-1.1 3.6v.8l.7-.2zm4.7-4.1l-.1.7.6-.1zm-8.4 14.5l.4-.8-.8.2zm-4.7 5.5l-.1-.8-.6.4zm.5 2.2h-.7l.1.5zm-2.7 2.7h-.8l.3.7zm-1.9 2.6l-.8-.1.3.7zm8.4-11.4l-.3.6h.6zm-2.4-.1l-.2.6.5-.1zm-1.2 3l.2-1.6-1.3.3zm3.7 1.3l-.7-.4-.2.7zm-7.2 6.1l-.5-.3-.1.6zm-1.5 2.2l-.7-.3v.6zm6.8-9.5l.3.6.4-.5zm-1.9.2l.3.7.4-.7z"/><path d="M169.7 170.4l.5.5.2-.5zm5.4-12.2l-.2.6.6-.1zm-13.4 17.9l.4-.8-.6-.1zm1.1-2.4l1.2.2-.2-1zm-.2-2.6l1.2.4-.2-1.1zm-2 6l1-.4-.6-.5zm5.7-7l-.9 1 1.2.4zm.8 1.8l-.9 1 1.2.4zm-.1-3.9l-.9.9 1.1.4zm3 .6l-.2.8.7-.2zm-.5-3.5l.6.2.1-.6zm-3.7 3.8l.5-.5-.7-.2zm7.2 7.2l-.5-.7-.4.5zm2.3 3.1l-.8.2.3.5zm-4.5 14.1l-.8.2.3.5zm6.1-17.6l-.8-.2.3.6zm-6.2 1.6l.5.5.2-.5zm.3-1.8l-.1.8.6-.2zm-.4-3.5l.5.2.1-.6zm-3.8 3.8l.5-.5-.6-.2zm-2.9-3.4l.7-.7-.7-.2z"/><path d="M163.8 171.6l1.4-.3-.7-1.1zm1.2-.8l.7-.7-.9-.3zm-.9-1.4l.9-.7-1-.4zm.9-.8l.4.4.3-.4z"/><path d="M166.5 167.9l-1.8-1.6-1 2zm-1.4 2.3l-1.5-1.6-.8 1.8zm-.9 2.3l-1.4-1.4-.7 1.7zm-2.4 5.9l-1.2-1.1-.5 1.5zm1.5-3.9l-1.2-1.2-.7 1.5zm-3 7.4l-.2-.7-.5.4zm1.9-1.1l.4-1.2-1.1.2zm-2.5 3.9l.4-1.2-1.1.2z"/><path d="M160.5 179.6l1 .2-.2-.8zm.6.8l-1.2-1-.4 1.3zm-1.2 2.6l-.8-.7-.3.8zm28.7-52.2l1.1-.6-.9-.6zm-2.4.8l.3.7.6-.5zm.4-2.6l1.5-.1-.7-1.1zm1.9 2.4l1.2.7.2-1.2z"/><path d="M189.3 132.2l1.2.9.1-1.4zm-2.1-.7l1.2.8.2-1.2z"/><path d="M195 137.4l.9-.2-.5-.6zm-7.1-6l-1.4-2.3-1.4 2zm-6.3 12l.9-.8-.9-.5zm-1.4-1.5l1-.7-1-.4zm-1.5 1.8l.9-.9-1-.4zm1-.4l1-.8-.9-.5zm2.5-1.8l1.4.7.1-1.4zm-1.7-2.7l1.4.6-.1-1.2zm1.2-2.7l1.2.7.2-1.3zm-2.5 6.1l-.9-1.7-1 1.4zm0 1.9l1.3.6.1-1.3zm1.4-3.5l1.3.7.1-1.4zm-2.9 4.8l1.2.7.1-1.3zm9.5-11.5l1.3.8.2-1.4zm-1 1.5l-1.1.9 1.1.6zm.6-1.7l-1.1.9 1.2.6zm-3.4 5.2l1-.7-.9-.6zm-3.8 7.1l1-.7-1-.6zm-1.8-.9l1-.9-1-.4zm9.6-9.7l.6-.7-.8-.3zm-2.1 3.2l-.3-.5-.5.4zm5.7-.6l-.6.2.4.4zm-2.4-2.9l1.4-.5-1-1zm1.3 4.4v-.7l-.6.3zm-3.1 2.2l.1-.8-.8.2zm-3.5 6.2l-.2-.7-.6.4zm1.7 2.9l-.7.1.2.5zm2.3-6.6l-.7.1.2.5zm0 1.9l-.1.6.6-.1zm-.4 1.3l-.6-.2.1.6zm3.4.3l-.7-.2v.6zm-9 5.3l.6-.2-.3-.5z"/><path d="M180.8 151.3v-.7l-.6.2zm-2.6.3l-.1-.7-.5.3zm2.2-2.3l.8.1-.3-.6zm-2.1-.6l1.3.2-.4-1.2zm5.5-5.2l1.4.1-.3-1.1zm-6.3 6.8l.7.1-.1-.5zm4.7-12.7l1-.7-1.1-.5zm.6.1l1.8-.3-.8-1.5zm-.9 1.8l1.7.9.1-1.7zm5.3-9.7l1.1.9.4-1.7zm-2.6 6.1l.9-.7-1-.5zm-.9-1.2l1.1-.7-.9-.6z"/><path d="M182.5 144.7l-.4.5.6.1zm2-11.1l.4.6.3-.5zm-1.6 6.8l.7-.2-.3-.4zm2.5-8.6l1.2.7.2-1.3z"/><path d="M186.3 133.4l-1.2-2.4-1.5 1.9zm-1.6 2.5l-1.5-2.4-1.4 2zm-1.8 2.4l-1.5-2.3-1.3 2zm-1.9 2.4l-1.2-2.4-1.6 2.2zm-2.1 3.4l-1.5-2.2-1.3 1.9zm9-6.3l-.2.6h.6zm-2.1-1l-.3 1.3 1.1-.2zm-1.4 3.5l-.2.7.7-.2z"/><path d="M189.5 136.8l-.2.8.5-.2zm-1.7.7l-.2.6h.6zm-9.2 8.5l-1.1.9 1.2.6zm2.8 1.2l-.2.7.7-.1zm0-3.6l.6.3.1-.6zm-4.1 3.2l.4-.6-.5-.1zm-1.3 1.7l.7-.7-.9-.4zm-.4-1.4l.8-.7-.8-.4z"/><path d="M176.5 146.4l.3.5.4-.4zm1.1-.5l-1.5-2-1.2 1.9zm-1.7 2l-1.3-1.7-1 1.8zm28.7-35.6l1.1-.3-.5-.9zm-2.4.9l.2.8.5-.5zm1.3-2.8l1.4.2-.3-1.3zm.9 2.3l1 1.1.4-1.3zm-.4 2.6l.9 1 .6-1.1zm-.9-1.9l1.2 1 .3-1.1zm5.8 3.5l.9-.1-.4-.6zm-4.9-3.8l-.9-2.6-1.8 1.6zm-8 11.1l1.1-.7-.9-.6zm-1.2-1.8l1-.5-.9-.6zm-1.7 1.7l1.1-.7-1-.7zm1.1-.4l1.2-.6-1-.6zm2.7-1.3l1.3.8.2-1.3z"/><path d="M195.8 119.2l1.1 1 .4-1.3zm1.5-2.4l1.2 1 .3-1.2zm-3.2 5.9l-.8-1.8-1 1.2zm-.5 1.9l1.2.7.2-1.3zm1.9-3.6l1.1.9.5-1.2zm-3.8 4.6l1.3.9.3-1.3zm11.4-9.7l1.1 1 .4-1.2zm-1.3 1.3l-1.2.6.9.8zm1-1.6l-1.3.7 1 .8zm-4.3 4.3l1.2-.4-.9-.9zm-4.7 6.5l1-.5-.9-.7zm-1.7-1.2l.9-.6-.8-.6zm11-7.9l.6-.5-.6-.4zm-2.6 2.8l-.3-.6-.5.4zm5.6.5l-.7.1.3.6zm-6 .7l1.4-.3-.6-1zm4.7.2l.1-.7-.6.2zm-3.5 1.7l.2-.9-.7.2zm-4.3 5.7l-.1-.8-.6.4zm3.1 1.9l-.8-.2.3.6zm1.4-5.1h-.7l.3.6zm-2.6 3l-.2.7h.6zm5.8-3.9l-.7-.4-.1.6zm-.6 4.9l-.7-.3-.1.6zm-9.8 4h.7l-.3-.7zm-.1-1.8l.2-.8-.7.2zm-2.6.1v-.6l-.5.1zm2.5-1.8l.7.2-.1-.7zm-1.8-1l1.2.3-.1-1.2zm-2-.4l.8 1.1.6-1.1zm7-4.2l1.3.6-.2-1.2zm-6.1 6.1l.6.2-.1-.7z"/><path d="M197.6 118.5l1.2-.7-.9-.5zm.5.2l1.7.1-.4-1.5zm-1.1 1.6l1.4 1.1.4-1.6zm5.3-6.4l1.4 1.4.5-1.5zm-2.3 3.4l1.2-.4-.8-.8zm-.5-1.3l1.2-.3-.8-.9z"/><path d="M196.7 125.5l-.3.6h.6zm3.5-10.5l.1.7.5-.5zm-2.4 6.4l.6-.1-.3-.5zm3.6-8.2l1 1.1.5-1.4zm.5 1.8l-.8-2.6-1.8 1.7zm-2 2l-.9-2.5-1.8 1.6zm-2 2l-1-2.3-1.6 1.6zm-1.9 2.1l-.9-2.4-1.8 2zm-2.8 3.6l-1-2.7-1.6 1.7zm10-5l-.3.6h.6zm-1.8-1.3l-.6 1.1h1zm-2.2 3l-.2.8.7-.1z"/><path d="M206.6 117.3l-.4.6h.6zm-3.4 2.1l-.4.5.7.1zm11.7-6.6h.9l-.4-.8zm7.9-11.4l.9.1-.3-.8zm-.6 3.4h.9l-.3-.6zm-10.9 6.5l.7-.5-.7-.5zm-2.5 2.9l-.3-.6-.4.4zm5.6.1l-.6.1.4.5zm7.8-12.1l.7-.3-.4-.5zm-2.2 2.5l-.2-.7-.5.4zm1.3 2.5l-.3-.6-.4.5zm4.4-4.2l-.1-.8-.5.4zm2.6-.1l-.1-.7-.5.3zm-.8-1.5l-.2-.7-.4.4zm1.7-.9l-.2-.7-.4.3zm-3.2 3.9h-.7l.3.5zm-.7-3.7l-.7-.1.2.6zm-12.4 15.2v-.7l-.5.2zm.7 3l-.6-.5-.2.8zm-2.3-4.8l-.3.7h.6z"/><path d="M211.4 113.7l-.4.7h.7zm-18.8 12.6l-1.1.7.9.7zm2.6 1.6l-.2.6h.7zm.6-3.6l.5.5.1-.7zm-4.5 2.6l.4-.4-.3-.3zm-1.3 1.7l.8-.5-.8-.6zm-.5-1.5l.9-.6-.8-.6zm1.1-.7l.2.7.4-.4zm1.2-.3l-1.4-2.1-1.3 1.8zm-1.9 1.8l-1.1-1.7-1.1 1.3zm14.8-18.9l1.5.4-.2-1.4zm10.1-2.1l1.2-.3-.8-.9zm-.8-1.9l1.1-.4-.5-.8zm-2 1l1.2-.3-.7-.9zm1.1 0l1.2-.3-.7-.9zm3-.6l1 1.2.5-1.2zm0-3.1l.7 1.3.8-1.1zm2.4-1.5l.7 1.3.8-1zm-5 4.2l-.2-1.9-1.6.9zm-1.3 1.6l1 1.1.5-1.1zm3-2.8l.7 1.1.7-1.1zm-4.9 3.4l.8 1.1.7-1.2zm1.5 1.3l1.3-.2-.7-1zm-1.1-1.6l1.1-.3-.7-.9z"/><path d="M215.8 107.8l1.1.8.3-1.3zm3.5-5.4l.8.9.6-1zm3.6-2.9l.9 1 .5-1.1zm2.7-.2l.6.7.4-.8zm-9 4.2l.9 1.7 1-1.3zm-1.5 5l-.6.3.6.3z"/><path d="M217.2 104.7l.7.2-.2-.6zm1.1-1.3l.2-2.7-2.3.8zm-2.5 1.1l-.1-2.7-2.4 1.1zm5.3-3.1l.4-1.7-1.5.4zm-15.4 12.2l1.3-.3-.7-.9zm-.4-2l1.1-.3-.6-.8zm1.8.6l.8 1.1.7-1zm-.7-1.7l.8 1.1.7-1z"/><path d="M208.8 112.1l1 .8.3-1zm-.5-2.5l1.1 1.6.8-1.3zm0 1.9l.6.2-.1-.6zm-1.5-.5l.2-2.7-2.6 1.1zm5.3-4.4l-.6-2.6-1.8 1.2zm-1.3 1.4l-1.3.3.7.9zm2.2 2.2l-.4.7.6.1zm1.5-3.1l.4.4.3-.5zm-5.1 1.2l.6-.3-.4-.3zm-1.6 1.2l1-.2-.5-.7z"/><path d="M207.9 107.8l1.2-.1-.5-.9zm1.3-.1v.6l.5-.3z"/><path d="M210.3 107.6l-.5-2.4-1.9 1.2zm-2.1 1.4l-.2-2.2-1.7 1z"/></g><g fill="#4479b2"><path d="M274.7 169.1l.5-1.3-1.2.1zm-2.9-2.5l.2-1.4-1.3.4zm3.8.1l1.7-.6-1-1.1zm-5.7-2.9l1.6-.6-1-1.1z"/><path d="M269.8 159.4h1.7l-.6-1.3zm.3 7.6l1.8-.1-.8-1.3zm2 0l1.7-.1-.8-1.3zm-.6-1.8l1.5-.6-1-1.1zm1.2 4.6l1.4-.6-1-1z"/><path d="M271.8 170.2l1.7-.3-.9-1.3zm2.8-8.2l.2-1.4-1.2.5zm-.2 8.5l.8-1.2-1.3-.2zm-.5-10.2v-1l-.7.3zm.6 4.5l-.8-.2.2.7zm4.7-5.1l-.5.7.8.1zm3 2.8l1 .1-.3-.8zm-4.5.8l.2-.7-.7.1zm5.1 4.5l-.7-.5-.1.8zm-6.6-6.3l.2.9.8-.5zm-1.9-4.3h.8l-.3-.6zm-3.1 6.1l.2-.8-.8.2zm-.5-2.2l.2-1.3-1.3.3zm1.2-.3l1.1-1.9-1.9-.2zm-1-8l.3-1.7-1.4.4zm.7 10.5l2.2-.7-1.4-1.6zm1.1-4.7l.6-1.4-1.3.1zm-1.5-.8l.6-1.3h-1.3zm7.2 8l1 .1-.2-.8zm-1.1 2.6l-.1.8.8-.2z"/><path d="M281.1 165.1l.3-.7h-.7zm-6.9-2.2l.4-.8-.7-.1zm-1.8-6.1l-3-.9.3 2.8zm.3 4.6l-3-1 .3 2.8zm.1 3.3l-2.8-1 .1 2.8zm-1.5-9.5l1.6-.4-.8-1.2zm.9-1.7l-3-1.1.2 3zm-.8-3.8l-2.5-.9.2 2.5zm-1-2.8l-1.7-.5.1 1.7zm2.9 21.2l-3.1-1.1.2 2.9zm.2 3l-3-1.1.2 2.9z"/><path d="M273.7 174l-3-1.1.1 2.9zm1.4-10.7l.5 1.4.8-.9zm-.2 6.3l1.7-.5-1-1.2zm-.6.3l-.1 1.7 1.3-.6z"/><path d="M271.3 175.1l-.1 1.8 1.3-.7zm1.5-.7l-.1 1.7 1.3-.6zm-.5-2.8v1.8l1.3-.6zm4.7 1.8l-.5-.8-.6.6zm2.8 3.7l-.8.2.4.6zm1.5-6.6l-.1.8.8-.2zm-7.3 20.3l1.1-.3-.6-.6zm6.6-26.9l-.1-.9-.7.5zm.5 14.4l-.8-.1.2.7zm-5.6-2.4l.2-1.8-1.5.5zm6.5 7.2l-.7-.2v.7zm-4.3-14.2l.5.8.5-.7zm-3.2-3.5l.8-.2-.5-.7zm-1.1 6.6v-.8l-.7.3zm3.4-20.3l1 .3-.1-.8zm-4.7-.7l.5-.6-.7-.1zm3.9 5.4l-.7-.6-.2.7zm-5.3-9.8l.1-1.4-1.1.4zm-1-1.3l.5-1h-1z"/><path d="M269.7 144.1l-1.5-.4.4 2.3zm.2 4.5l1.2-.5-.8-.8zm-.8-6.4l-1.1-.7.3 1.7zm3.1.8l.8.1-.1-.6zm-1.9-.2l.4-.7-.6.1zm-1.7-1.4l.3-.6h-.6zm0-2.1l.3-.6h-.5zm3.9 8.2l-.4-.4-.2.5zm6.4 24.8l.9.6.2-.9zm-4.4-1.9l.7-.5-.7-.3zm2.1 6.6l-.3-.6-.5.5zm-4.8-5.5l2.1-.4-1-1.7zm-.7-1.2l1.6-.7-1.1-1zm2.3 2.6l1.2.8.1-1.3zm6.4-5.2l.7.6.2-.7zm-1.8 17.9l1 .5.1-1zm1.2-19.2l.5-.6-.6-.3zm2.9 7.2l-.5-.9-.5.8zm-1.6 12.4l-.6-.5-.3.7zm3.5-5.6l.2-.7-.7.1zm-5.4 8l-.1.8.8-.1zm2.4-2.9l-.1-.8-.6.5zm-4.9 4.4l.8.7.2-.9zm6.7-6.9l.5.6.3-.7zm-4.7-1.7l.8.8.3-.9zm.9 10.3l-.4-.9-.5.7zm-5.6-14.4l-.8-1.3-.7 1.2zm.2 3.4l-.9-1.2-.5 1.1z"/><path d="M273.1 179.2l-.9-1.2-.5 1.2zm-1.9-.3v2.3l1.8-.9z"/><path d="M270.9 176.9l.1 2.3 1.7-.9zm3.6 9.2l1.7-.3-1-1.2zm-1.2-1.7l1.7-.1-.8-1.4zm4.4-3.3l-.7-1.3-.7 1zm-2.5 1.7l-.6-1.2-.8 1zm-2.1 1l.3-1.5-1.4.2z"/><path d="M275.8 176.2l.6.6.2-.8zm-1.6 6l-3.1-1 .4 2.8zm-.5-2.6l1.3-.3-.6-.9zm3.4-2.9l-.3 1.4 1.3-.1zm-.7-2.3l-.4 1.5 1.3-.2zm1.3.3l.5.9.5-.6zm-2.1-3.5l.7-.1-.3-.6zm-2 5.9l.1-.8-.7.2zm5.6-2.9l.3.8.6-.5zm-2.2-3.6h.7l-.3-.7zm-2 5.9l.1-.8-.6.3zm1 7.2l.6-1.1-1.1-.1zm-.8-4.2l1.4-1.2-1.4-.8zm3.3.6l.5-1-1 .1zm-3.2 12.9l-.9.1.4.6zm1.1-1.5l-.8-.2.1.6z"/><path d="M277.7 185.2l-.4 1.5 1.4-.3zm-4.1 7.8l.6-1.2-1 .1zm0-8.3l-2.1-.5v1.9zm2-7.3l-2.3-1 .1 2.4zm0 3.2l-2.3-1.1v2.4zm6.1 10.8l-.6.4.5.4zm3.3 3.6l-.7.2.4.5zm-9.5 1.3l-1.3-.6v1.3zm4.9-.9l-1.4-.6v1.2zm-6.1 0l1-.9-1.1-.6zm2-1.6l.4 1.4 1.2-.9zm1.9-9.2l.2-1.8-1.5.4zm-3.4 6.7l1.7-.3-.9-1.2zm-1.1-1.7l1.6-.2-.7-1.3zm2-1.6l-.7-1.2-.7 1zm-2.3.9l.4-1.4-1.3.2z"/><path d="M274.6 187.3l-3.1-.9.3 2.7zm1.8 1.5l.6-1-1.1-.1zm-2.5 1.1l-2.1-.6.1 2zm.3 4.1l-2.2-.5.1 1.9z"/><path d="M274.1 192.1l-2.2-.5.1 1.9zm1.9-6.3l-2.3-1.1.1 2.3zm.3 25.3L274 210v2.3zm2.2-21.3l.4-1.8-1.6.3zm2.1 4.4l-.2-1.1-.9.6zm-5.9 8.1l1-.3-.5-.7zm4-5.2l1 .5.1-1zm2.5.4l-.7-.5-.3.7zm-1.9 2.4l-.1.8.7-.2zm2.3-2.9l-.1-.8-.5.4zm-4.8 4.4l.7.7.2-.9zm2.8 1.6l-.4-.8-.4.6zm-4.5-5.4l1.8-.3-1-1.2zm.9 6.8l-.9.1.4.7zm1-1.5l-.7-.1.1.6zm1.3-6.2l-.3 1.5 1.3-.3zm-1.5 16.8l-.4 1.6 1.4-.3zm-2.5-9.1l.6-1.1-1 .1zm0-8.2l-2.2-.5.1 1.9zm8.3 5.3l-.7.4.6.5zm.8-2.8l-.7.1.4.6zm-9.1 8.8l-1.3-.5-.1 1.2zm4.3.8l-1.3-.7v1.2zm-3.6-1.5l1-.9-1.1-.5zm2-1.5l.3 1.4 1.2-.9zm1 9.7l.3 1.5 1.2-.9zm-.2-21.5l.3-1.7-1.5.3zm-2.3 9.3l1.7-.3-1-1.3zm-1.2-1.8l1.7-.1-.7-1.4zm2-1.6l-.6-1.1-.8 1zm-2.2 1l.4-1.5-1.4.3z"/><path d="M275.3 198.8l-3.1-.9.3 2.7zm1.7 1.5l.7-1-1.1-.1zm-2.4 1.1l-2.1-.6v1.9zm.2 4.1l-2.1-.5.1 1.9z"/><path d="M274.8 203.6l-2.2-.5.1 1.9zm1.9-6.3l-2.3-1.1v2.3zm2.4 4l.4-1.8-1.5.3zm1.7 3.2l-.1-1.1-.9.6zm-3.9 7l-.6.6.7.2zm-1.3 1.1l-.3-1.3-.7.8zm7-6.8l-.3.6.6.1zm-3.3 8l-1.4.5.8.9zm-.1-3.5l-1.4.5.8.9zm-1.4 3.6l.1-1.3-1.2.3z"/><path d="M274.6 207.8l1.3.8.3-1.4zm2.2 5.2l-2 1.1 1.4 1.3z"/><path d="M275.8 211.6l-2 .9 1.2 1.5zm4.8-2.9l-.9-.6-.1 1zm1.6 9.7l.4-1h-.8zm-2.7-5.5l1.1-.4-.7-.7zm2.7-2.6l-.7.3.3.6zm.8 3l.6.5.4-.6zm-.9-3.6l-.7-.4v.7zm.7 6.5l1-.2-.6-.7zm3-1.3l-.9-.2.2.8zm-9.4-4.1l1.1-1.4-1.6-.2zm8.3 7.9l-.5.8h.8zm-.5-1.8l-.7.5.6.3zm-9.8-7.4l.9 1.3.7-1.2zm9.3 10.5l-.5-1.1-.6.8zm-5.4-5.4l-2 1 1.4 1.4zm8-3v.8l.7-.2zm-1.7-2.3l-.4.6.7.1zm1.6 12.6l-1.2.7.9.8zm-5.1-8.6l-1.3.6.9.8zm5 7.6l-.2-1.4-1.1.7zm-7.5-14.2l1.4.6v-1.5zm-5.4 5.2l.8-1.5-2-.1zm4.1-6.8l.8-1.6h-1.6zm4.1 12.8l1-1.3-1.5-.4zm.2-2.5l-1.4-.3.3 1.2zm-.8 2.2l-.7-1.3-.8 1.1z"/><path d="M280.6 215.7l-2.9 1.5 2.1 1.7zm2.1-.2l-.4-1.2-.8.7zm-.9 2.4l-1.9 1.3 1.5 1.2zm3.1 2.3l-1.7 1.4 1.6 1.1z"/><path d="M283.3 219.1l-1.7 1.4 1.6 1.1zm-10.4-11.2h-2.7l1.5 2.2zm2.1 1.7l-1.2-1.4-.7 1.4zm12.7 5.2l-1-.5-.1 1z"/></g></svg>