<svg xmlns="http://www.w3.org/2000/svg" xmlns:xlink="http://www.w3.org/1999/xlink" viewBox="0 0 480 480" xmlns:v="https://vecta.io/nano"><linearGradient id="A" gradientUnits="userSpaceOnUse" x1="169.558" y1="106.814" x2="169.558" y2="106.814"><stop offset="0" stop-color="#997ebd"/><stop offset=".406" stop-color="#7c59aa"/><stop offset="1" stop-color="#6629c8"/></linearGradient><path d="M169.6 106.8h0z" fill="url(#A)"/><path d="M200.2 289.2s6.4 16.9 3.1 37.4c-3.5 21.9-4.4 34.5-5.1 45.3l-1.8 26.2 9.5 10.6 18.7-2.4s-1.9-6.6-1.1-11.8c3.6-24.7 22.3-76 23.8-81.7 7.2-27.1-6.6-32.3-6.6-32.3l-40.5 8.7z" fill="#eb9c79"/><linearGradient id="B" gradientUnits="userSpaceOnUse" x1="220.545" y1="341.619" x2="257.568" y2="351.893"><stop offset="0" stop-color="#bc5a32" stop-opacity="0"/><stop offset=".99" stop-color="#bc5a32"/></linearGradient><path d="M230.6 292.8l-11.5 46.6c-5 18.5-13.4 65-13.4 65l17.8-1.5s-1.4-5.8 2.2-19.2c6.6-24.3 16.7-57.5 19.3-64.3 11.2-29-2.9-38.8-2.9-38.8l-11.5 12.2z" fill="url(#B)"/><linearGradient id="C" gradientUnits="userSpaceOnUse" x1="231.974" y1="319.421" x2="214.698" y2="297.795"><stop offset="0" stop-color="#bc5a32" stop-opacity="0"/><stop offset=".99" stop-color="#bc5a32"/></linearGradient><path d="M222.4 325.9c8.7-7.3 24.5-13.4 24.5-13.4s3.2-9.4 2-19.6c-.9-8-5.4-16.1-5.4-16.1l-39.9 28.4c.3 2.8.9 12-.6 23.7-.3 2.4-.8 10.7-.8 10.7s14-8.5 20.2-13.7z" fill="url(#C)"/><g fill="#a05a3c"><path d="M227.4 310.8l.1 1.3 1.3-.8zm-2.4-3.2l-.2 1.3 1.4-.5zm17.8 3l1.1 1 .6-1.6zm-17.1 1.7l.3-1.5-1.6.3zm-3-1.7l1 1 .6-1.6zm12.7-1.3l.9 1.1.8-1.5z"/><path d="M222.7 309.7l1.1 1 .6-1.6zm2.4-1.7l1.4.4-.1-1.7z"/><path d="M224.6 310.1l1.4.5-.2-1.7zm-1.3-.9l1.2.8.3-1.6zm3.5-.1l1.1.9.5-1.6z"/><path d="M227.7 308.8l1.3.7.2-1.6zm.5 1.3l.3 1.2 1.1-1zm2.3 9.4l.7.4.1-1zm1.8-5.4l-.2.7.8-.1zm4.5 5.4h-.8l.3.7zm-13.7-4.6l.7.3.1-.9zm5.4-1.3l.2-.7-.8.1zm-4.8 2.3l-.2.7.8-.2zm-.9-2.2v.8l.7-.4zm3-7l-2.8.3 1.5 2.7z"/><path d="M228.1 306.4l-2.8.3 1.5 2.7zm2.9-.3l-2.8.3 1.5 2.7zm2.9-.3l-2.8.3 1.4 2.7zm13.2 4.4l.9-.8-1.3-.6zm-19.2 2l1.3.7.1-1.7zm14.5-4.1l1.2.8.3-1.6zm-2 2.7l1.1.7.3-1.5zm-10.1.6l.4-1.4-1.7.2z"/><path d="M234.8 307.1l.3-1.4-1.6.3zm-.5 2.2l.5-1.4-1.7.2zm-2.5.1l.5-1.5-1.7.3zm.7 1.5l-.6.6.9.4zm4.8 2.9l-.7-.3-.1.8zm-6.6 3.2l.2-.7-.8.1zm2.9-7.6l-.4 1.6 1.8-.4zm1.1 2.4l-.4 1.5 1.6-.4zm-4.9-.5l-.5 1.4 1.7-.3zm15.9-1.2l-.4 1.5 1.7-.4zm-19.5 8.9l-.8-.2.2.8zm2.5-4.2l.6-.7-.9-.3zm-4.9-2.8l.6.3.1-.8zm6.5-3.3l-.2.7.8-.2zm11.1 7.8l.3-.8-1 .1zm-5.7-.4l.8.1-.3-.8z"/><path d="M240.2 310.4l.1.7.7-.4zm-11.7-1.5l1.7.9.2-2.1zm-1.4-1.2l1.1 1 .6-1.6zm4.4 2.8l1.2-.2-.7-1.2zm-6.5 6.8l.7-.1-.5-.7zm3.3 2.8l1-.2-.6-.9zm-2.4-5.8l.3.7.6-.7zm8 1.3l-.7.5.8.4zm-14.2 5.2l-.7-.1.1.8zm2.9.6l1-.2-.6-.9zm-2.4-5.8l.3.7.6-.7zm8 1.3l-.7.5.8.4zm-5 1.5l.8-.6-1-.6zm-4.8-4.1l.6.5.3-1zm7.8-2.5l-.4.8h.9zm9.1-4.5l-1.1.7 1.1.8zm1.5-.8l-.1 1.2 1.3-.6z"/><path d="M237.4 307l-1.1.6 1.1.9z"/><path d="M238.1 308.4l.9-1.7-2.2-.1z"/><path d="M236.7 307.6l.7-2.1-2.5.3zm.4 1.5l1.3.6V308zm2.3-.7l1.4.4-.1-1.6zm-.4.6l.1 1.3 1.2-.7zm-.2-2.6l-.1 1.2 1.3-.5zm-3.7 5l.8-.2-.6-.6z"/><path d="M240 305.3l-2.7.2 1.3 2.8zm7.9.5v.9l.8-.4zm-1.2.4l1.1.3-.1-1.3zm-2.2-.1l1 .5.1-1.3z"/><path d="M247.1 307.2l.9.4v-1.1zm-2 2.3l-.1-1.4-1.3.7zm1.9-.8v-1.4l-1.4.6zm-5 .6l.1-1.4-1.5.6zm-.9 3.4l.5-.6-.9-.2zm-4.8-1.8l.6.2v-.7zm5.4-3.8l-.1.6.7-.2zm2.4 7.8l.5-.7-.9-.2z"/><path d="M239.3 313.1l.6.2v-.7zm5.3-3.9v.7l.7-.3zm.9-2.9l.2 1 .9-.7z"/><path d="M243.8 306.9l.9 1.3 1-1.4z"/><path d="M243.7 307v1l1.1-.5zm-1.5-1.6l.1 1.1 1.1-.6z"/><path d="M241.9 307.3l.6-.1-.4-.6zm.7-2.3l-2.6.2 1 2.6z"/><path d="M244.8 304.8l-2.3.2 1.1 2.1zm2.3-.3l-2.2.2 1.1 2.2z"/><path d="M248.9 304.3l-1.9.2.9 1.8zm-16.6 17.5l.7.5.2-1zm2.3-5.2l-.3.7.8-.1zm3.9 5.8h-.7l.2.7zm5.8-3.4l.4-.8h-1zm-5.6-.9l.7.1-.2-.8zm5-5.3l.1.7.7-.4zm-29.9-1.1l.9 1.1.8-1.5zm-4.4 5.2l.7.6.3-1zm-3.3-5.7l1.3.7.2-1.6zm.9 1l.3 1.2 1.1-.9zm2.8-3.8l-2.8.2 1.4 2.7z"/><path d="M212.4 308.1l-2.8.3 1.4 2.7zm-3.6 7.2l.7.4v-.8zm12-4.8l1.2.8.3-1.7zm-2 2.7l1.1.7.3-1.5z"/><path d="M208.7 313.8l.4-1.4-1.7.3zm4.6-4.3l.4-1.5-1.7.3zm-.6 2.2l.5-1.4-1.7.2zm-2.5.1l.5-1.4-1.7.2zm1.8 0l-.4 1.6 1.8-.4zm1.1 2.4l-.4 1.5 1.6-.4zm-1.9-.1l-.3 1.1 1.3-.2zm6.8 6l.3-.8-1 .1z"/><path d="M212.3 319.8h.7l-.2-.7zm4.5-5.8l.1.7.7-.4zm-9.9-2.6l1.7.9.2-2.2zm-1.3-2.6l.8 1.3.9-1.4zm4.3 4.1l1.2-.2-.7-1.2zm3.8-3.2l-1.1.7 1.1.8zm1.6-.7v1.3l1.3-.6z"/><path d="M215.8 309.4l-1.1.6 1.1.9z"/><path d="M216.7 310.9l.9-1.7-2.2-.1z"/><path d="M215.2 309.9l.7-2.2-2.6.4zm.3 1.6l1.3.6v-1.7zm2.3-.8l1.4.5-.1-1.6zm-.4.7l.1 1.3 1.2-.7zm-.2-2.6l-.1 1.2 1.3-.5zm-3.7 5l.8-.2-.6-.6z"/><path d="M218.3 307.4l-2.7.3 1.5 2.8zm8 .8v.8l.8-.3zm-3.4.3l1 .5.1-1.4zm.6 3.3l-.1-1.3-1.4.7zm-3.1-.2l.1-1.3-1.5.6zm-.9 3.5l.5-.6-.9-.2zm-4.8-1.8l.6.2v-.7zm5.4-3.8l-.1.6.7-.2z"/><path d="M222.5 317.2l.5-.6-.9-.2zm-4.8-1.7l.6.2v-.7zm5.3-3.9v.6l.7-.2zm-.8-2.3l.9 1.3.9-1.5z"/><path d="M222.1 309.4v1l1.1-.5zm-1.5-1.6v1.1l1.2-.6zm-.3 1.9l.6-.2-.4-.6zm.4-2.4l-2.6.2 1 2.6z"/><path d="M223.3 307l-2.3.2 1.1 2.2zm-3.8 15.3l.3-.8-1 .1zm-5.6-.9l.7.1-.2-.7zm5-5.3v.7l.7-.4z"/></g><g fill="#ffbca4"><path d="M209.9 366.6l.6-.8-.9-.2zm-1.6 3.6l-.9-1.1-.6 1.1zm-6.4 6.3l-.9-1.1-.5 1.1zm3.3-.1l-.9-1.1-.6 1.1zm-3.7-24.1l-1.6-.9-.1 1.5zm.2 3.1l-1.6-.9-.1 1.5zm-.6 15.9l-1.5-1-.1 1.5z"/><path d="M200.4 370.4l-1.2-.7-.1 1.2zm3.4-25.9l-.4-.6-.3.5zm3.4 6.7l-1.1-1.4-.7 1.3zm-3.3 8.5l-1.2-1.3-.6 1.3z"/><path d="M202.3 360.4l-1.7.2.6 1.3zm1.9 8.7l-1.8.2.7 1.3zm-.4-12.1l-1.7.2.7 1.3zm.2 5.9l-1.2-1.4-.6 1.4zm-3.6 11.4l-.8-1.1-.6 1.2zm.4-9.5l.4-1.7-1.5.2zm4.8-19.4l.5-1.6-1.5.1zm2.1-7.5l.2-.6h-.6z"/><path d="M209.3 354l.5-1.6-1.5.1zm-2.6 3.3l.4-1.6-1.5.2zm-3.3-21.7l.5-1.6-1.5.1zm-3.3 33.1l.4-1.4-1.3.2zm1.5 1.5l.4-1.4-1.2.2zm-.2-5.2l-.9-1.1-.6 1.1zm3.7 0l-1.1-1.3-.7 1.3zm4.1-16.1l-.7.3.5.5zm-7.1 16l1.2-.1-.6-.9zm-.4 2.2l.1-1.1-.9.3zm2 4.3l-.9-.3v.9zm1.9-19l.7-.8-1-.4zm-1.7-10.3l.7-.9-1-.3zm.7 12.4l.7-.9-1-.3zm-3.1 5l-.6-.8-.4.8zm.5-2.3l-.6-.8-.4.8zm8.8.8l-.9.3.7.6zm-7.3-6.6l-1 .4.7.6zm-1.2-3.5l1.1.4-.1-1zm-.7-2.3l1.2.4-.2-1.1z"/><path d="M200.3 348.8l1.6-.9-1.4-.9zm.3-3l1.6-.8-1.4-1zm2.9 6l.1-1.8-1.5.8zm.5-4.6v-1.9l-1.5.8zm-.2 15.1v-1.9l-1.4.8zm-1.6 9.5l.1-1.8-1.5.7zm5.7-39l-.7-.7-.3.8zm-3.6 6.2l1 .3-.2-.9zm-1.9-6.1l-.1 1 .9-.4zm-.4 8.6v1l.9-.4zm5.5 20.6l-.7.4.6.3zm2.6-2.4l.2.6.4-.3zm-5.3-.7h.6l-.3-.5zm-2.8 13.2l-.7.4.6.4zm2.6-2.3l.2.6.4-.3zm-5.3-.8h.7l-.3-.5zm9.7-16.7l-.4.5.6.1zm.5-5.8l.4.5.2-.5zm-2.3.4l.4 1.1.8-.7zm-3-4.7l1-.1-.5-.7zm-2.7 7.5l.2-1-.9.2zm2-18.5l.5-.6-.7-.3zm2.7 2.1l.1-.8-.7.2zm-2.1-.7l.3.8.6-.5z"/><path d="M204.3 348.2l.7 1.5 1-1zm.7-18l.3 1 .7-.6zm-1.3 2.1l.4.9.6-.6zm-3.3 30.2l-.4-1.1-.8.7zm2.7 4.8l-1 .1.4.7zm3-7.3l-.2 1 .9-.2zm-1.7 2.5l.9.8.4-.9zm-4.5-3.4l.9-.4-.7-.6zm.5 8l-.3-1-.7.5z"/><path d="M200.7 367.9l-.4-1.2-.8.7zm2.6 4.9h-1l.4.8zm3-7.6l-.2 1 .9-.3zm-3.5-9.1l1.3-2.3-2.3-.2zm-1.2 18.7l.9-1.4-1.5-.2zm-3.4-1.3l2.1-1.5-1.9-1.2zm.4-6.4l2.1-1.4-1.9-1.2zm-.2 2.9l2.2-1.4-1.9-1.3zm.4-6.2l2.1-1.4-1.9-1.2zm.2-2.8l2.1-1.4-1.9-1.3z"/><path d="M199.2 358.3l2.2-1.4-1.9-1.3zm2.5-2.5l.4-2.6-2.2.6zm-1.2-8.6l1.3-.8-1.1-.7zm.3-2.6l2.2-1.4-1.9-1.3zm-.8 6.9l2.1-1.4-1.9-1.3zm-2 24.7l2.2-1.4-1.9-1.3zm2.7 1.4l-1.1-2.3-1.5 1.8zm2.7.5l-1.1-2.3-1.5 1.8z"/><path d="M205.6 337.9l.6-1.3H205zm1.3 25.3l1-.1-.5-.8zm-4.4 1.8v-.9l-.7.3zm6.1 3.5l-.8-.3.1.8zm-8.8-15.8l-.2 1.9 1.6-.5zm1.1-2.3l-.1 1.9 1.5-.6zm2-10.8l-1.4-.9-.2 1.5zm1.6 3.5l-.7-.4v.7z"/><path d="M204.6 334.8l1.1.5v-1.1zm.8-.8l1.1.4-.1-1zm-3.3 1.9l1.6-.9-1.4-1.1zm2.2 4.5l.1-1-.8.3zm-2.5-1.5l2.2-1.5-1.9-1.3zm-.5.9l-.2 2.2 1.5-.8zm5.2-4.7v.7l.5-.2zm1.6 32.4l1-.1-.5-.8zm-4.5 1.8l.1-.9-.7.3zm6.2 3.5l-.8-.3v.7zm-2.1 9.6l-.8-1.2-.6 1.2zm-6.6 5.9l-.9-1.2-.6 1.1zm3.2 0l-.9-1.2-.6 1.2zm-3.8-5.3l-1.5-1-.2 1.5z"/><path d="M199.8 382.2l-1.2-.9-.2 1.3zm3.8-1.2l-1.8.1.7 1.3zm-3.9 5.1l-.9-1.2-.6 1.2zm-.4-5.6l.4-1.4-1.2.2zm1.6 1.5l.4-1.4-1.3.2zm2.1 1.3l-.9-.4v.9zm-1.5.3l.1-1.8-1.5.7zm-.3.5l-.6.3.5.4z"/><path d="M203.8 381.8l.2.6.4-.4zm-5.3-.8l.7-.1-.3-.5zm1.4-6.4l-.3-1.2-.8.7zm2.7 4.8h-1l.4.8zm3.1-7.2l-.2.9.9-.2zm-1.7 2.4l.8.9.4-.9zm-4.5-3.5l.9-.3-.7-.6zm.4 8.1l-.2-1-.8.5z"/><path d="M200.1 379.9l-.3-1.1-.8.7zm2.6 5h-1l.4.8zm3.1-7.6l-.2 1 .9-.2zm-5 9.3l.9-1.4-1.4-.2zm-3.4-1.5l2.1-1.5-2-1.2zm.4-6.2l2.2-1.4-1.9-1.3zm-.2 3.1l2.2-1.5-2-1.2zm-.5 5.8l2.3-1.3-1.9-1.3zm1.6 1.5l-.5-1.3-.9.5zm2.1.5l-.6-1.3-.9 1zm7-10.1l1-.1-.5-.8zm-4.5 1.7l.1-.8-.7.2zm6.1 3.6l-.8-.3.1.8zm-3.3-19.2l-.6-1-.6.8zm3.6 4.2l-1 .3.6.7zm1.3-8.1l.1 1 .8-.4zm-.4-22.1l.5.8.4-.6zm-2.6-2.9l.7-.1-.4-.5zm-.8 5.7v-.7l-.5.3zm6.4 25.5l.7-.5-.6-.4z"/></g><path d="M196.8 392.8s4.9 2.1 13.3 2.4c10.3.4 14.9-2.4 14.9-2.4l1.8 10.1s-3.2 3.8-16.5 3.2c-13.9-.7-14.1-5-14.1-5l.6-8.3z" fill="#fff"/><linearGradient id="D" gradientUnits="userSpaceOnUse" x1="226.808" y1="419.999" x2="228.759" y2="400.022"><stop offset="0" stop-color="#911319"/><stop offset=".98" stop-color="#ba3024"/></linearGradient><path d="M195.3 420.7l63.2 5.2c1.1.1 2.1-.7 2.2-1.8.2-2.5.2-6.6-1.1-9.6-1.5-3.8-24.8-15.7-31.5-19.1a2.59 2.59 0 0 0-3 .5c-2.2 2.4-7.5 6.8-15.6 6.7-6.7-.1-10.3-1.9-11.9-2.9-.7-.5-1.6-.2-1.9.6-1.1 2.6-2.9 8.6-2.3 18.5 0 .9.8 1.8 1.9 1.9z" fill="url(#D)"/><path d="M195.3 420.7l63.2 5.2c1.1.1 2.1-.7 2.2-1.8.1-.8.1-1.7.1-2.7l-67.5-6.3.1 3.5c0 1.1.8 2 1.9 2.1z" fill="#ffd570"/><g fill="#c4412c"><path d="M234.1 410.2l.9.1-.5-.9zm4.6 1.1l.9-1.2-1.3-.2zm-8.9-15l-1.6-.9-.2 2.2zm2.5 3.1l1.5-1.1-1.3-.8v1l-.4-.1v.3l-.7-.1.3 1 .5-.8v.4h.2zm-12.1.4l-1.3.8 1.3 1zm1.4-.9l-1.2.9 1.5.9zm3 .2h-1.5l.6 1.6zm10.4 2l-1.5-.2.1.1-1.5-.2.6 1.7.9-1.4.3 1.4zm11.2 6l.8-1.1-1.2-.2zm-7.6-6.3l-1.1 1.2 1.7.5zm-17.4 5.6l1.6-.5-1.4-1zm-1.2-4.1l-1.4-1-.3 1.5zm-4.4 5.7l-1.4-1.1-.2 1.6zm8.9-7.3l-1 1.2.6.2-1.1.1.8 1.5.7-1.4.5.2zm3.2 2.4l1.6.6-.6-1.8zm-22.5 1.2l-1.1-1-.3 1.3zm2.2 4.7l1.3-.4-1.2-.9zm-7.3-5.4l1.4-.4-1.2-.8zm41.5 1l-.9.9 1.3.5zm17.4 9.8l-.9.9 1.4.4zm-1.1-1.4v1.2l1.3-.5zm-5.2-1.9l1.3.5-.5-1.4zm-1 4.3l.8-.4-.6-.4zm1.2-2.1l.7-.5-.6-.4z"/><path d="M254.4 415.4l.3-.7-.9.2zm3.3-1.3l.2-.7-.8.1zM241.1 402l-1.2-.4-.1 1.4zm-3.9 3l-1.5-.3.5 1.8zm-2.1 9.9l-.4.3-.2-.3-.1.7.3-.1.5.1zm2.8-11.4h-1.2l.4.9zm4 4.9l.9-.4-.7-.5zm9.4.2l-.7.6.5.3.4 1.3.9-1.3-.9-.1zm4.3 3.9l.8-.4-.6-.5zm-6.5 2.8l.3-.8-.9.1zm-30-7.9l-.2 1 1.1-.2zm6.2.9l.4-.9h-.8zm-4.9 6.3l1 .3-.3-.9zm4.4-15.4l-.4 1 1.1-.1zm-5.8 6.1l.2 1.1 1-.7zm7.2-6.4l-.3 1.1 1.1-.2zm7.6 1.5l.6-.8-.9-.2zm-6.2 5.5l1 .4-.1-.8zm-.8-7.6l-.2-.9-.7.5-.6-1.7-1.6 1.6 2.4.9-.3-.7zm.1 17.7l1 .2-.4-1.1zm-.4-6.2l.9-.5-.9-.3zm6.5 4.1l.6.8.2-1zm-7.4-8l1.1.2-.4-1.1zm-2.8-2.5l-.6 1 .9.1zm-12.5-.7l-.6 1 1 .1zm3.3 7.3l.4-.2-.5-.3-.1.5-.8-.5.1 2 1.9-1zm2.5 3.3l.7.8.1-1zM206 409l.4-.8-1-.1zm11.3-2.8l-.6.8.8.2zm-4.5-3.4l-1-.1.6.8zm7.5 1.9l.3-.8h-.9zm-13.9-1.7l-.8-.4v.8z"/><path d="M220.2 402.9l.5.5.3-.9zm2.1-4l-.2.5h.6zm8 3.8l.4-.4-.5-.2zm3 6l-.7.3.6.4zm-4.2 1.8l.5-.2-.3-.5zm2.1-4.9l.4-.5h-.6zm6.6 8.5l.7.4v-.7zm-1.3-3.5l.4-.5h-.7zm7.7-3.5l-.7.4.6.3zM240 409l.5-.2-.3-.5zm2.5-5.5l-.6.1.2.4zm7.2 6.2l-.5.2.5.4zm-3.5 1.3h.5l-.4-.4zm2.1-4.3h-.6l.3.4zm-28.4 2.9h-.5l.3.5zm-8.7 2l.8-.8-1.1-.5zm-5.5-4l.7.6.1-1.1zm8.2-2.7l-.6-.7 1-.3-1.4-1.1-.1 1.1-1 1.1 1.6.5-.2-.6h.7zm-.7-.2l-.1-.4.3-.1-.2.5zm12.2 6.3l.8-.6-1.1-.5zm-4.8-3.4l.1-1-.9.5zm6.9-3.9l-.3.8.9-.1zm-25.6 5.9l.2-.8-.9.1zm.9-3.5l.3-.9-1 .2zm-3.6-3.3l-.4.8h.7zm2.9-.2l.2.6.7-.5zm9.3 3.1l-.2.7.7-.1zm8 7.7l1.1-1-1.5-.8zm-4.7-1.4l.6-.6-.8-.4zm2.7-1.8l-.9-.3.2 1 .3-.2v.5l.7-.5-.5-.3zm-13.5-3.6l1.2.9.3-1.8zm-5.3-6.4l-1.5.8 1.1.8zm-1.9 8.3l1.4.9.2-1.7zm-.9-2.7l1.1 1.2.8-1.5zm11.3 4.7h.7l-.5-.5zm1.7 2.5l.8-.8-1.1-.6zm-6.6-2.6l.8.6.2-1.2zm8.9-3.4l-.4 1h1.1zm29.3 3.9h1l-.4-.8zm-7.4-.5l.6-.6-.8-.4zm2.7-11.1l-1 .3.7.9zm2.5 5.4v.1l-.9.3.7.9.2-.6h.5zm-7.2-.4l-1-.5.2 1zm-.5-4l-.7 1.1 1 .1zm8 2.6l.7.7-.6.3.9.5-.2-1v.1l.1-.9zm1.5.6l.7.9.2-.7.9.2-.6-1.4-.7.9zm3.2 5.8h1l-.4-.8zm-7.9-1.7l.3.9.6-.6zm3.6-1l-.4.9h1.1zm6.7 1l-.8-.1.2.9zm-6.7 6.1l1 .3-.2-.8zm3.9-3.2l1-.1-.7-.7zm.3 5.1l.8.3v-.7zm2.3-9.1l-.4.6.9.3zm5.4 1.9l-.7-.3.1.9zm-6.5 3.8l.7.5.1-.7zm.1-7.1l-.9-.6.9-.6-1.1-.6-.1 1.4h.1l-.1 1.5 1.4-1 .5.7.3-1.2-1.1.3zm3.7 4.9l-.5.8h.5l.1.4.5-.6h-.3zm-8.1 0l.6-.6-.9-.4zm-42.5-2.7l1.9-.3-1.1-1zm49.9-.1l-1.1 2 2.6.2zm-38.2-1.8v-2.5l-2 1.6.1-.1-1.5.8 1.2.9.2-1.4zm8.7-4.4l-2.5.9 2.3 1.5z"/></g><g fill="#fff"><path d="M206.9 416.4s0-3.5-3.9-7.7c-3.5-3.5-8.5-4.4-8.6-4.5 0 0-.1 0-.1-.1l.4-1.7c.2 0 5.6.8 9.6 5 4.4 4.6 4.4 8.8 4.4 8.9l-1.8.1zm29.7-16.7l-6.8 8.3a.97.97 0 0 0 .1 1.4c.1.1.2.1.4.2.3.1.8 0 1.1-.3l7.1-8.7-1.9-.9z"/><path d="M230.2 396.4l-6.9 8.5a.97.97 0 0 0 .1 1.4c.1.1.2.1.4.2.3.1.8 0 1.1-.3l7.2-8.8-1.9-1zm-36.884 19.3l.1-.996 67.422 6.1-.1.996z"/></g><path d="M168.3 241.6s18.1 33.7 25.7 52.3c3.1 6.6 3.9 6.6 4.5 10.7l56.9-6.8s0-5.7-1-14.4c-1.9-16.9-25.9-69.7-25.9-69.7l-60.2 27.9z" fill="#750e29"/><linearGradient id="E" gradientUnits="userSpaceOnUse" x1="207.18" y1="305.349" x2="263.439" y2="295.408"><stop offset="0" stop-color="#f25779"/><stop offset=".975" stop-color="#cb1e3a"/></linearGradient><path d="M196.5 309.5l60-6-1.3-9-59.5 6z" fill="url(#E)"/><g fill="#560921"><path d="M195.6 300.045l59.49-6.076.102.995-59.49 6.076z"/><path d="M222.9 297.8c0-.3-3.7-31-13.4-47.7l.9-.5c9.8 16.9 13.5 47.8 13.5 48.1l-1 .1z"/></g><path d="M177.116 268.615l9.965-4.162 10.56 25.282-9.965 4.162z" fill="#595959"/><linearGradient id="F" gradientUnits="userSpaceOnUse" x1="186.73" y1="282.139" x2="183.84" y2="265.84"><stop offset="0" stop-color="#151e28" stop-opacity="0"/><stop offset=".998" stop-color="#151e28"/></linearGradient><path d="M183.5 283.5l-6.3-14.8 9.9-4.2 6.6 16.1z" fill="url(#F)"/><g fill="#595959"><path d="M401.7 457.1l-6.9-73.8 6.9-74.3 1.5.2-6.9 74.2 6.9 73.5zm-18.8 3.3l-1.5-.2 7-76.8-7-70.9 1.5-.2 7 71.2z"/><path d="M467.9 395.6l-74.2-6.9-73.6 6.9-.1-1.5 73.7-6.9 74.3 6.9zm-74.2-13.3h-.1l-77-6.9.1-1.5 77 6.9 70.9-6.9.1 1.5z"/><path d="M348.9 443.5l-1.1-1 47.3-57.1 57.4-47.6.9 1.2-57.3 47.5zm-16.8-11.9l-.9-1.2 59.2-49.4 45.3-55.1 1.1 1-45.4 55.2z"/><path d="M450.2 429.6l-57.1-47.2-47.6-57.5 1.1-1 47.6 57.5 56.9 47zm-12.1 16.6l-49.5-59.3-55-45.2.9-1.2 55.2 45.4 49.5 59.3z"/></g><circle cx="392.4" cy="384" r="10.4" fill="#283749"/><path d="M392.4 320.6c35 0 63.4 28.5 63.4 63.4s-28.5 63.4-63.4 63.4S329 418.9 329 384s28.4-63.4 63.4-63.4m0-15c-43.3 0-78.4 35.1-78.4 78.4s35.1 78.4 78.4 78.4 78.4-35.1 78.4-78.4-35.1-78.4-78.4-78.4h0z" fill="#333"/><use xlink:href="#V" fill="#3aaaa7"/><g fill="#595959"><path d="M124.8 457.1l-6.9-73.8 6.9-74.3 1.5.2-6.9 74.2 6.9 73.5zm-18.8 3.3l-1.5-.2 7-76.8-7-70.9 1.5-.2 7 71.2z"/><path d="M190.9 395.6l-74.2-6.9-73.5 6.9-.2-1.5 73.8-6.9 74.3 6.9zm-74.2-13.3h-.1l-77-6.9.2-1.5 76.9 6.9 70.9-6.9.2 1.5z"/><path d="M72 443.5l-1.2-1 47.3-57.1 57.4-47.6 1 1.2-57.4 47.5zm-16.8-11.9l-1-1.2 59.3-49.4 45.2-55.1 1.2 1-45.4 55.2z"/><path d="M173.2 429.6l-57.1-47.2-47.6-57.5 1.2-1 47.5 57.5 57 47zm-12.1 16.6l-49.4-59.3-55.1-45.2 1-1.2 55.2 45.4 49.5 59.3z"/></g><circle cx="115.4" cy="384" r="10.4" fill="#283749"/><path d="M115.4 320.6c35 0 63.4 28.5 63.4 63.4s-28.5 63.4-63.4 63.4S52 418.9 52 384s28.4-63.4 63.4-63.4m0-15C72.1 305.6 37 340.7 37 384s35.1 78.4 78.4 78.4 78.4-35.1 78.4-78.4-35.1-78.4-78.4-78.4h0z" fill="#333"/><g fill="#3aaaa7"><use xlink:href="#V" x="-277"/><path d="M201.2 269h-16.5s-21 6.2-27.8 7c-5 .6-12.5-2.4-12.5-9.8V262c0-8.4 7.7-10.4 12.5-10.4h44.3a8.71 8.71 0 0 1 8.7 8.7h0a8.71 8.71 0 0 1-8.7 8.7z"/></g><path d="M397.5 380.3l-61.6-153.9c-1.1-2.8-4.2-4.1-7-3s-4.1 4.2-3 7l9.1 22.7-144.5 32.4c-.2 0-.3.1-.5.1h-.1c-.1 0-.2.1-.4.1h-.1c-.1.1-.3.1-.4.2l-.1.1c-.1.1-.2.1-.3.2 0 0-.1 0-.1.1l-.8.8c-.1.1-.2.2-.2.3l-76.3 93.1c-1.3 1.6-1.6 3.8-.7 5.7.8 1.8 2.6 2.9 4.5 3.1 4.2.5 76 12.3 123.5 20.2h1.6c.1 0 .3 0 .4-.1.1 0 .2 0 .2-.1.1 0 .2-.1.4-.1.1 0 .2-.1.3-.1s.2-.1.3-.1.2-.1.3-.2c.1 0 .2-.1.3-.2s.2-.1.3-.2.2-.1.2-.2c.1-.1.2-.1.2-.2l.5-.5c.1-.1.1-.2.2-.2h0L340.8 268l46.6 116.4c.8 2.1 2.9 3.4 5 3.4.7 0 1.3-.1 2-.4 2.9-1.2 4.2-4.3 3.1-7.1zm-282.4 8.9h0zm10.4-9.2l64.7-78.9 40.5 96.1L125.5 380zm115.1 13l-41.5-98.4 130.5-29.2-89 127.6z" fill="#642c1e"/><path d="M346.7 208.3s-20.9 3.5-22.9 13.1c-1.8 8.8 3.8 15.7 3.8 15.7l19.1-7v-21.8z" fill="#595959"/><linearGradient id="G" gradientUnits="userSpaceOnUse" x1="330.462" y1="224.163" x2="358.718" y2="227.255"><stop offset="0" stop-color="#151e28" stop-opacity="0"/><stop offset=".998" stop-color="#151e28"/></linearGradient><path d="M334.1 212.3l8.8.7 3.5 17.2-17.3 6.3-.6-6.2c-.1-14.8 5.6-18 5.6-18z" fill="url(#G)"/><linearGradient id="H" gradientUnits="userSpaceOnUse" x1="158.051" y1="269.047" x2="196.223" y2="253.242"><stop offset=".131" stop-color="#093f5c" stop-opacity="0"/><stop offset="1" stop-color="#093f5c"/></linearGradient><path d="M156.9 276c6.8-.8 27.8-7 27.8-7h16.5a8.71 8.71 0 0 0 8.7-8.7 8.71 8.71 0 0 0-8.7-8.7h-44.3c-.5 0-1.1 0-1.7.1 3.5 3 6.8 7.6 3.1 13.1-2.9 4.2-7.5 6.2-11.8 7.2 2.5 3.1 7 4.4 10.4 4z" fill="url(#H)"/><linearGradient id="I" gradientUnits="userSpaceOnUse" x1="333.354" y1="310.533" x2="397.916" y2="310.533"><stop offset="0" stop-color="#552828" stop-opacity="0"/><stop offset="1" stop-color="#441814"/></linearGradient><path d="M338.6 233.3l58.9 147s2.2 4.9-3 7c-4.8 1.9-7-3-7-3l-54.1-149.1 5.2-1.9z" fill="url(#I)"/><linearGradient id="J" gradientUnits="userSpaceOnUse" x1="216.365" y1="353.095" x2="224.264" y2="350.446"><stop offset="0" stop-color="#552828" stop-opacity="0"/><stop offset="1" stop-color="#441814"/></linearGradient><path d="M199.4 294.5L244.2 402s2.3 4.8-2.9 7c-4.8 2-7-2.9-7-2.9l-40.1-109.6 5.2-2z" fill="url(#J)"/><linearGradient id="K" gradientUnits="userSpaceOnUse" x1="149.004" y1="340.476" x2="154.928" y2="346.025"><stop offset="0" stop-color="#552828" stop-opacity="0"/><stop offset="1" stop-color="#441814"/></linearGradient><path d="M190 300.6l-70.5 86.5s-3.2 4.3-7.6.8c-4-3.2-.8-7.6-.8-7.6l76.6-85.9 2.3 6.2z" fill="url(#K)"/><linearGradient id="L" gradientUnits="userSpaceOnUse" x1="176.946" y1="381.898" x2="165.892" y2="407.984"><stop offset="0" stop-color="#552828" stop-opacity="0"/><stop offset="1" stop-color="#441814"/></linearGradient><path d="M232.4 408.1l-117.7-18.9s-5.3-.5-4.5-6.1c.7-5.1 6.1-4.5 6.1-4.5l114.4 18.9 1.7 10.6z" fill="url(#L)"/><linearGradient id="M" gradientUnits="userSpaceOnUse" x1="289.327" y1="333.295" x2="295.036" y2="337.403"><stop offset="0" stop-color="#552828" stop-opacity="0"/><stop offset="1" stop-color="#441814"/></linearGradient><path d="M340.9 267.9L244.7 406l-4.6-6.6L337.6 265c0-.1 3.9-1.7 3.3 2.9z" fill="url(#M)"/><linearGradient id="N" gradientUnits="userSpaceOnUse" x1="263.106" y1="274.77" x2="265.522" y2="285.591"><stop offset="0" stop-color="#552828" stop-opacity="0"/><stop offset="1" stop-color="#441814"/></linearGradient><path d="M199.2 294.6l130.4-29.2s3.2-5.2-6.6-3.4c-9.8 1.9-118.5 26.5-123.2 27.8s-.6 4.8-.6 4.8z" fill="url(#N)"/><path d="M239.2 384.5c10.5 0 19 8.5 19 19s-8.5 19-19 19-19-8.5-19-19 8.6-19 19-19m0-4c-12.7 0-23 10.3-23 23s10.3 23 23 23 23-10.3 23-23-10.3-23-23-23h0z" fill="#333"/><path d="M212.7 429.8c-.5 0-1.1-.2-1.5-.7-.7-.8-.7-2.1.2-2.8l54.5-48.9c.8-.7 2.1-.7 2.8.2.7.8.7 2.1-.2 2.8L214 429.3c-.4.3-.9.5-1.3.5z" fill="#595959"/><path d="M275.2 238.4s-10.5 19.6-14.8 39.9c-4.6 21.7-6.1 34.2-7.4 45l-3.1 26.1 8.9 11.1 18.8-1.5s-1.6-6.7-.5-11.8c4.9-24.5 26.2-74.8 28-80.4 8.6-26.7-4.9-32.6-4.9-32.6l-25 4.2z" fill="#eb9c79"/><linearGradient id="O" gradientUnits="userSpaceOnUse" x1="276.858" y1="294.223" x2="313.309" y2="306.366"><stop offset="0" stop-color="#bc5a32" stop-opacity="0"/><stop offset=".99" stop-color="#bc5a32"/></linearGradient><path d="M289.4 245.9s-7.9 27.7-13.9 45.9-16.7 64.3-16.7 64.3l17.9-.5s-1.1-5.8 3.2-19c7.8-24 19.6-56.5 22.6-63.2 12.6-28.4-.9-38.9-.9-38.9l-12.2 11.4z" fill="url(#O)"/><linearGradient id="P" gradientUnits="userSpaceOnUse" x1="288.112" y1="273.752" x2="272.306" y2="251.757"><stop offset="0" stop-color="#bc5a32" stop-opacity="0"/><stop offset=".99" stop-color="#bc5a32"/></linearGradient><path d="M279.6 278.6c9.1-6.9 25.2-12.2 25.2-12.2s3.6-9.2 3-19.5c-.5-8-9.2-15.5-9.2-15.5l-41.1 33.5c.2-.8 5.2 6 2.7 15.6-.6 2.3-1.4 10.6-1.4 10.6s14.3-7.6 20.8-12.5z" fill="url(#P)"/><g fill="#a05a3c"><path d="M266.5 275.8l.8 1 .6-1.4zm-3.7-1.4l.5 1.2.9-1.1zm2.9 3.9l-.5-1.4-1.2 1.2zm6.6-8.2l1.4.4-.1-1.7z"/><path d="M260.7 278.8l1.5.2-.5-1.7zm2.3-4.1l1.5-.4-1.1-1.3zm-.8 2.1l1.4-.1-.6-1.5zm2.8-2.1l1.4.2-.4-1.6z"/><path d="M265.6 273.9l1.5-.1-.7-1.5zm1.2.8l.9.8.4-1.4zm2 3.2l-.2-.8-.6.6zm14.9-6.3l.2.7.6-.6zm-20.7 1.7l-2.2 1.8 2.7 1.5z"/><path d="M264.7 271.9l-2.1 1.9 2.7 1.4zm2.6-2.1l-2.2 1.7 2.6 1.5z"/><path d="M269.4 268l-2.2 1.8 2.7 1.5zm7.9-2.4h1.5l-.7-1.6z"/><path d="M277.1 269l1.3-.1-.5-1.4zm-6.3-.4l-.4-1.4-1.3 1.2zm.7 2.1l-.4-1.4-1.3 1.1zm-2.1 1.4l-.4-1.4-1.3 1.1zm1.4 1l-.2.8 1-.2zm5.6-.3l-.7.1.3.8zm-3.7 6.3l-.3-.7-.6.5zm12.8-14.3l-.9.1.5.8z"/><path d="M287.2 270.3l-.2-.7-.6.6zm-6.8-1.9l.6-.4-.7-.4zm-16.7 12.4l-.6.3.5.6zm6.4-4.2l.2-.8-1 .2zm-5.6.4l.7-.1-.3-.7zm3.6-6.3l.2.7.6-.6zm11.3 3.3l-.2-.8-.8.6zm-4.9 2.9l.6-.4-.6-.4zm.5-7.3l.5.6.3-.8zm-8.6 4l1.9-.2-1-1.9zm-2.3-.4l1.5.2-.5-1.6zm5.7 0l.8-.8-1.2-.6zm-1.9 9.7l.5-.5-.7-.3zm5.3-9.9l.7-.8-1-.4zm-6.7 7.2l.6.4.2-.9zm6.2-6.2l-.3.8.9-.1zm-1.5-5.5l-.6 1.1 1.4.1zm1-1.5l.6 1.1.8-1.3z"/><path d="M272.8 267.1l-.6 1.1 1.4.1z"/><path d="M274.3 267.9l-.2-2-1.9 1.2z"/><path d="M272.7 268l-.5-2.2-2 1.6zm.7 1.3l1.5-.2-.9-1.4zm1.6-1.8l1.4-.4-1-1.3zm0 .7l.8 1 .6-1.2zm-1.7-2l.7 1.1.8-1.3zm0 5.8l.4-.6-.8-.1z"/><path d="M274.2 264.2l-2.2 1.7 2.7 1.6zm6.5-3.5l.4.7.5-.8zm-.9.9l1.2-.3-.9-1zm-1.9 1.1l1.1-.2-.6-1.1z"/><path d="M280.7 262.3l1-.2-.6-.9zm-.4 3l-.8-1.2-.7 1.4zm1.1-1.8l-.6-1.1-.9 1.2zm-3.8 3.3l-.7-1.2-.8 1.3zm1.2 3.4v-.8l-.8.3zm-5 1.1l.6-.2-.4-.6zm2.4-6.2l.3.6.4-.6zm8.1 4.4l.1-.7-.9.2z"/><path d="M279.2 270.2l.7-.1-.4-.6zm2.9-5.9l.2.6.5-.5zm.4 6v-.8l-.8.3zm-5 1.1l.6-.1-.4-.6zm2.3-6.1l.3.5.4-.5zm-.9-2.9l.7.7.4-1.1z"/><path d="M277.9 263.8l1.4.6v-1.7z"/><path d="M277.8 264l.6.8.6-1zm-2.2-.6l.7 1 .6-1.2z"/><path d="M276.4 265.2l.5-.5-.7-.2zm-.7-2.3l-2.1 1.6 2.3 1.6zm1.8-1.5l-1.8 1.4 2.2 1.2zm1.8-1.5l-1.7 1.4 2.1 1.2zm1.5-1.2l-1.4 1.2 1.8 1zm1.3 4.7l.7 1 .7-1.3zm-.5-3l.6 1.1.8-1.1z"/><path d="M281.2 261.3l.7 1.1.8-1.2zm1.7 1.2l1.4-.1-.7-1.5zm2.5-2.8l1.4-.4-.9-1.3zm-1.3.6l.7 1 .7-1.2zm-1-1l.6 1.1.8-1.2zm1.9 4.5l-.3-.7-.5.6z"/><path d="M283 256.9l-2.1 1.7 2.7 1.5zm7.5 10.3l-.1-.8-.8.4zm-4.9 1.5l.6-.2-.5-.6zm1.8-6.3l.4.5.4-.6z"/><path d="M285.3 254.9l-2.3 2 2.1 1.8zm5.3 1.3l.8 1 .6-1.4zm-3.8-1.4l.6 1.2.9-1.1zm2.5 5.7l1.4.2-.4-1.6zm.6-2.1l-.5-1.4-1.2 1.2zm-3.4.2l1.4.3-.4-1.7z"/><path d="M296.4 250.5l1.4.4-.2-1.7zm-10.3 7.3l1.4.3-.4-1.7zm1-2.7l1.4-.4-1-1.3zm.7 2.1l1.4-.4-1-1.3z"/><path d="M286.2 257.2l1.5-.1-.7-1.5zm2.9-2.1l1.4.2-.4-1.6z"/><path d="M289.7 254.3l1.4-.1-.7-1.5zm1.1.8l1 .8.4-1.4zm6.5 7l.9-.1-.5-.8zm-1.5-5.5l.2.7.6-.5zm6.7 2l-.6.4.7.5zm-13.3 3.4l.8-.1-.4-.9zm3.8-4.1l-.2-.7-.6.6zm-2.7 4.5l.2.7.6-.5zm-1.9-1.2l.4.6.4-.8zm-1.4-7.5l-2.1 1.8 2.7 1.5z"/><path d="M288.8 252.3l-2.2 1.9 2.7 1.4zm2.6-2.1l-2.3 1.7 2.7 1.5z"/><path d="M293.4 248.4l-2.2 1.8 2.7 1.5zM289 261l.3-1.2-1.3.2zm2.7-3.9l1.5-.2-.8-1.5zm9.8-11.5h1.5l-.7-1.5z"/><path d="M301.3 249h1.4l-.6-1.5zm-8 6.1l-.4-1.4-1.3 1.1zm1.6-6.1l-.5-1.4-1.2 1.2zm.6 2.1l-.4-1.4-1.3 1.1zm-2 1.4l-.5-1.4-1.2 1.1zm1.3 1l-.1.8.9-.2zm5.7-.3l-.8.1.4.7zm-3.8 6.3l-.2-.7-.6.5zm-1.7-7.9l.5 1.5 1.3-1.3zm2.2 1.4l.4 1.4 1.3-1.2zm-4.4 2.3l.4 1.4 1.3-1.2zm12.1-9.9l.5 1.5 1.2-1.2zm-10.8 18.3l-.7.3.5.5zm-.3-4.9l.2-.9-.9.2zm-5.6.4l.8-.1-.4-.7zm3.6-6.4l.2.7.6-.5z"/><path d="M304.5 255.2l-.2-.9-.7.7zm-4.9 2.8l.6-.3-.6-.5zm.6-7.2l.5.5.2-.8zm-9.8 3.2l1.9-.2-1-1.9zm-2.2-.4l1.4.2-.4-1.6zm5.6 0l.9-.8-1.3-.6zm-1.7 9.3l.6-.4-.8-.3zm3.9.8l.7-.7-1-.4zm-5.3-3.5l.7.5.1-1zm7.4-3.4l-.3.8.9-.1zm-8.4 12l-.7.3.6.6zm1.9.1l.7-.8-1-.4zm-5.2-3.5l.6.4.2-1zm7.3-3.4l-.3.7h.9zm-3.7 3.5l.7-.7-1-.4zm-5.2-3.5l.7.5.1-1zm7.3-3.4l-.3.8 1-.1zm3.1-9.7l-.6 1.1 1.4.1zm1-1.5l.7 1.1.7-1.3z"/><path d="M296.8 247.5l-.6 1.1 1.4.1z"/><path d="M298.3 248.3l-.1-2-2 1.2z"/><path d="M296.7 248.4l-.5-2.2-1.9 1.6zm.9 1l1.5-.2-.9-1.5zm1.6-1.9l1.4-.4-1-1.3zm0 .8l.8 1 .6-1.3zm-1.6-2.1l.6 1.1.8-1.2zm-.3 6.2l.5-.6-.8-.1z"/><path d="M298.2 244.6l-2.1 1.7 2.6 1.6zm6.7-3.9l.4.7.5-.8zm-.8 1l1.1-.4-.9-1zm-1.9 1.1l1.1-.2-.6-1.1z"/><path d="M304.9 242.3l1-.2-.6-.9zm-.4 3l-.7-1.1-.8 1.3zm1.1-1.8l-.6-1.1-.9 1.3zm-3.8 3.3l-.6-1.2-.9 1.3zm1.2 3.4v-.8l-.8.3zm-5 1.1l.7-.2-.5-.6zm2.4-6.2l.3.6.4-.6zm6.3 5.2v-.8l-.8.3z"/><path d="M301.7 251.5l.7-.2-.5-.6zm2.3-6.2l.3.6.5-.6zm-.9-2.9l.7.7.4-1.1z"/><path d="M302.1 243.9l1.4.6v-1.8z"/><path d="M302 244l.6.8.6-1zm-2.1-.5l.6.9.6-1.2z"/><path d="M300.7 245.2l.4-.4-.7-.3zm-.7-2.2l-2.1 1.6 2.3 1.6zm1.8-1.5l-1.8 1.4 2.2 1.2zm1.8-1.5l-1.7 1.4 2.1 1.2zm1.4-1.3l-1.4 1.2 1.8 1zm-5.9 23.9h.9l-.4-.9zm-.9-5.7l.1.8.6-.5zm6.4 2.7l-.6.4.6.5zm2.4-3.4l-.2-.8-.8.5zm-5.2 2.4l.7-.3-.6-.6zm1.2-7.2l.5.6.4-.8z"/></g><g fill="#ffbca4"><path d="M265 318.6l.6-.8-.8-.2zm-1.7 3.5l-.9-1.1-.6 1.1zm-6.7 6l-.9-1.2-.6 1.1zm3.2.1l-.8-1.2-.7 1.1zm-2.5-24.3l-1.4-1-.2 1.5zm.1 3.1l-1.5-1-.2 1.5zm-1.4 15.8l-1.5-1-.2 1.5z"/><path d="M255.4 321.9l-1.2-.8-.2 1.3zm4.7-25.7l-.4-.6-.3.5zm3 6.9l-1-1.5-.8 1.3zm-3.7 8.3l-1.1-1.3-.7 1.3z"/><path d="M257.7 312.1l-1.7.1.6 1.3zm1.5 8.8h-1.8l.6 1.4zm.2-12.2l-1.7.1.6 1.4zm-.1 5.9l-1.1-1.4-.7 1.3zm-4.1 11.3l-.8-1.2-.6 1.1zm.8-9.6l.5-1.6-1.5.1zm5.8-19.1l.6-1.5h-1.5zm2.5-7.4l.3-.6h-.6z"/><path d="M265.1 306l.6-1.6-1.6.1zm-2.8 3.2l.5-1.6-1.5.1zm-2.2-21.9l.6-1.6h-1.5zm-5 32.9l.5-1.4-1.3.2zm1.5 1.6l.5-1.4-1.3.2zm.1-5.2l-.9-1.2-.6 1.1zm3.7.2l-1.1-1.4-.8 1.3zm4.8-15.9l-.7.3.5.5zm-7.9 15.7l1.2-.1-.5-.9zm-.5 2.1l.1-1.1-.8.3zm1.8 4.4l-.9-.4v.9zm2.8-18.9l.8-.8-1-.4zm-1.2-10.4l.9-.8-1.1-.4zm.1 12.4l.8-.8-1-.4zm-3.3 4.9l-.6-.8-.4.7zm.6-2.3l-.6-.8-.4.7zm8.8 1.2l-1 .3.7.7zm-7-6.9l-1 .4.7.6zm-1-3.6l1.1.5-.1-1zm-.6-2.3l1.1.4v-1z"/><path d="M256.3 300.4l1.6-.8-1.3-1zm.5-3l1.6-.8-1.3-1zm2.6 6.1l.1-1.8-1.5.7zm.7-4.6l.1-1.8-1.5.7zm-.9 15.1l.1-1.9-1.5.7zm-2.1 9.4l.1-1.8-1.5.7zm7.7-38.6l-.7-.7-.4.7zm-4 6l1 .3-.1-.9zm-1.6-6.3v1l.8-.2zm-.8 8.6v1l.8-.3zm4.4 20.9l-.6.3.5.4zm2.7-2.2l.2.6.4-.4zm-5.2-1h.6l-.2-.5zm-3.5 13l-.6.4.5.4zm2.8-2.1l.1.6.5-.4zm-5.3-1.1h.7l-.3-.5zm10.6-16.2l-.5.5.6.1zm.7-5.8l.4.5.3-.5zm-2.3.3l.4 1.1.8-.6zm-2.8-4.8l1.1-.1-.5-.7zm-3 7.3l.2-1-.8.2zm2.9-18.4l.6-.5-.7-.3zm2.6 2.3l.2-.8-.7.1zm-2.1-.9l.4.9.6-.5z"/><path d="M260.4 299.9l.6 1.6 1.1-1zm1.6-17.8l.3.9.7-.5zm-1.4 1.9l.3.9.7-.5zm-4.9 30.1l-.3-1.2-.8.6zm2.5 4.9h-1l.4.8zm3.4-7.1l-.2.9.8-.2zm-1.8 2.3l.8.9.4-.9zm-4.4-3.6l.9-.3-.7-.6zm.1 8l-.2-.9-.7.4z"/><path d="M255.7 319.4l-.3-1.2-.8.7zm2.4 5h-1l.4.8zm3.4-7.4l-.2 1 .8-.2zm-3-9.2l1.4-2.2-2.3-.4zm-2.1 18.6l.9-1.4-1.5-.2zm-3.4-1.5l2.2-1.3-1.9-1.3zm.7-6.3l2.2-1.3-1.8-1.4zm-.3 2.8l2.2-1.2-1.8-1.4z"/><path d="M254.1 315.3l2.2-1.3-1.9-1.4zm.3-2.9l2.2-1.3-1.8-1.3zm.4-2.7l2.2-1.2-1.8-1.4zm2.6-2.3l.6-2.6-2.3.6zm-.8-8.6l1.4-.7-1.1-.8zm.5-2.6l2.3-1.3-1.9-1.4zm-1.2 6.8l2.2-1.3-1.8-1.3zm-3.3 24.6l2.3-1.3-1.8-1.4z"/><path d="M255.3 329.2l-1-2.4-1.6 1.7zm2.7.6l-1-2.4-1.6 1.7zm4.2-40.1l.7-1.2-1.2-.1zm0 25.4l1-.1-.5-.8zm-4.5 1.6l.1-.9-.7.2zm5.9 3.7l-.8-.3.1.8zm-7.9-16.1l-.3 1.8 1.6-.4zm1.1-2.3l-.1 1.9 1.5-.6zm2.7-10.7l-1.5-.9-.2 1.4zm1.4 3.6l-.7-.5-.1.7zm.5-8.3l1.1.5-.1-1.1zm.8-.7l1.1.4-.1-1.1z"/><path d="M258.8 287.5l1.6-.7-1.3-1.2zm2 4.7l.2-1-.9.2zm-2.4-1.7l2.3-1.3-1.9-1.4zm-.6.9l-.3 2.2 1.6-.7zm5.4-4.4v.7l.5-.2zm-.1 32.4l1.1-.1-.5-.8zm-4.4 1.6v-.9l-.7.3zm5.9 3.8l-.8-.4v.8zm-2.5 9.5l-.8-1.2-.7 1.1zm-7 5.5l-.8-1.2-.7 1.1zm3.2.2l-.8-1.2-.6 1.1zm-3.5-5.5l-1.5-1-.3 1.5z"/><path d="M254.1 333.6l-1.1-.8-.3 1.2zm3.9-.9h-1.8l.6 1.4zm-4.2 4.8l-.8-1.1-.6 1zm-.1-5.5l.5-1.4-1.2.1zm1.5 1.5l.5-1.3-1.2.1zm2.1 1.4l-.9-.4v.9zm-1.5.3l.2-1.8-1.6.6zm-.3.4l-.7.4.5.4zm2.7-2.1l.2.6.4-.4zm-5.2-1.1h.6l-.3-.5zm1.7-6.3l-.3-1.2-.9.6zm2.4 5l-1-.1.4.8zm3.5-7.1l-.3.9.9-.1zm-1.9 2.3l.8.9.5-.9zm-4.3-3.7l.9-.3-.6-.6zm0 8l-.2-.9-.7.4z"/><path d="M254.6 331.4l-.3-1.1-.8.6zm2.3 5.1l-1-.1.4.9zm3.5-7.4l-.2 1 .8-.2zm-5.4 9l.9-1.3-1.4-.3zm-3.4-1.7l2.2-1.3-1.9-1.3zm.8-6.1l2.2-1.3-1.8-1.3zm-.4 3l2.2-1.3-1.9-1.3zm-.8 5.9l2.3-1.2-1.8-1.5zm1.4 1.5l-.4-1.3-.9.5zm2.2.7l-.6-1.4-.9.9zm7.4-9.8l1.1-.1-.5-.8zm-4.5 1.5l.1-.9-.7.3zm5.9 3.9l-.8-.4v.8zm-2.3-19.4l-.5-1.1-.7.9zm3.4 4.4l-1 .2.5.7zm1.7-8v1l.8-.3zm.7-22.1l.4.8.5-.6zm-2.4-3l.6-.1-.3-.5zm-1.1 5.6v-.7l-.6.3zm5 25.8l.8-.4-.6-.4z"/></g><path d="M226.5 432.4l-27.9-2.1c-2.8-.2-4.8-2.6-4.6-5.4h0c.2-2.8 2.6-4.8 5.4-4.6l27.9 2.1c2.8.2 4.8 2.6 4.6 5.4h0c-.2 2.7-2.6 4.8-5.4 4.6z" fill="#283749"/><path d="M286.1 221.2c-13.1-5.4-28.8-9.9-41.1-13.1h-91c-2.6 8.7-5.2 22.1-1.4 32.3 3.3 8.8 10.2 13.9 17 16 17.3 5.3 81 7.8 84.5 11 1 .8 1.4 1.5 2.3 2.4 16.9-15.2 38.1-37.2 41.9-40.4-1.5-1.2-2.3-4.1-12.2-8.2z" fill="#bd2641"/><g fill="#283749"><path d="M278.9 391.5l-26-10.3c-2.6-1-3.8-4-2.8-6.5h0c1-2.6 4-3.8 6.5-2.8l26 10.3c2.6 1 3.8 4 2.8 6.5h0c-1 2.6-3.9 3.8-6.5 2.8z"/><circle cx="239.2" cy="403.5" r="6.7"/></g><path d="M250.9 339.7s3.9 3.6 11.9 6.1 14.8.4 14.8.4l-1.1 11.9s-4.2 2.7-16.7-1.8c-13.1-4.7-11-8.5-11-8.5l2.1-8.1z" fill="#fff"/><linearGradient id="Q" gradientUnits="userSpaceOnUse" x1="271.668" y1="374.388" x2="279.388" y2="355.86"><stop offset="0" stop-color="#911319"/><stop offset=".98" stop-color="#ba3024"/></linearGradient><path d="M241.4 365.8l58.9 23.5c1 .4 2.2-.1 2.6-1.1.9-2.3 2.1-6.3 1.8-9.5-.3-4.1-19.1-22.3-24.5-27.5-.8-.8-2-.9-3-.4-2.8 1.6-9.2 4.3-16.9 1.8-6.4-2.1-9.3-4.8-10.5-6.3-.5-.7-1.5-.7-2 0-1.8 2.2-5.3 7.4-7.6 17-.4 1 .1 2.1 1.2 2.5z" fill="url(#Q)"/><path d="M241.4 365.8l58.9 23.5c1 .4 2.2-.1 2.6-1.1.3-.7.6-1.6.9-2.5l-62.7-25.8-.9 3.4c-.4 1 .1 2.1 1.2 2.5z" fill="#ffd570"/><g fill="#c4412c"><path d="M281.5 367.2l.9.3-.3-1zm4.1 2.4l1.2-.9-1.2-.6zm-4.1-17l-1.3-1.3-.8 2zm1.5 3.7l1.7-.6-1-1.1-.3.9-.3-.2-.1.3-.7-.3v1l.7-.6-.1.4h.2z"/><path d="M271.3 353.2l-1.5.3.9 1.4zm1.6-.5l-1.4.5 1.1 1.3zm2.8 1.1l-1.4-.5.1 1.7zm9.4 4.9l-1.4-.6v.1l-1.3-.6v1.8l1.3-1.1-.1 1.5zm8.9 9.1l1.1-.9-1.1-.5zm-5.4-8.3l-1.4.8 1.4 1zm-18.3.3h1.7l-1.1-1.4zm0-4.3l-1-1.4-.7 1.4zm-5.8 4.1l-1-1.4-.7 1.4zm10.6-4.3l-1.3.8.5.4-1.1-.2.4 1.6 1.1-1.1.4.3zm2.4 3.2l1.3 1v-1.8zm-21.9-5.5l-.8-1.2-.6 1.1zm.7 5.2h1.4l-.9-1.2zm-5.4-7.3h1.5l-.9-1.1zm39.4 13.1l-1.1.6 1.1.9zm13.8 14.5l-1.1.6 1.2.8zm-.6-1.7l-.4 1.2 1.4-.1zm-4.5-3.3l1.1.8v-1.4zm-2.2 3.8l.9-.1-.5-.6zm1.8-1.7l.8-.2-.5-.6zm.8 2.5l.5-.6-.9-.1zm3.5-.3l.4-.6-.8-.1zm-12.3-16.4l-1-.8-.5 1.4zm-4.6 1.7l-1.3-.7-.1 1.8zm-4.9 8.9l-.5.1-.1-.3-.3.6h.3l.5.3zm6-10.1l-1.1-.4.1 1zm2.4 5.8l1-.1-.5-.7zm8.9 3l-.8.4.4.4v1.3l1.2-.9-.8-.4zm3 5l.9-.2-.5-.6zm-7 .7l.5-.6-.9-.2zM268 360.1l-.5.9 1.1.1zm5.6 2.7l.7-.8-.8-.2zm-6.5 4.6l.9.5v-.9zm8.8-13.5l-.7.9 1.1.2zm-7.4 4.2l-.1 1.1 1.1-.4zm8.8-4l-.6.9 1.1.2zm6.8 3.6l.8-.6-.8-.4zm-7.5 3.5l.8.6.2-.8zm1.4-7.6l.1-.9-.8.3-.1-1.8-2 1.1 2.1 1.5-.1-.7zm-5.1 17l.9.5v-1.2zm1.5-6l1-.2-.8-.6zm5 5.8l.3.9.5-.9zm-4.8-9.8l1 .5v-1.2zm-1.9-3.3l-.9.8.9.4zM261 353l-.9.8.9.4zm1 8l.4-.1-.4-.4-.2.4-.6-.7-.5 1.9 2.1-.4zm1.4 3.9l.4.9.4-.9zm-8.4-7.1l.6-.7-.9-.3zm11.6.6l-.8.6.7.4zm-3.3-4.6l-.9-.3.3.9zm6.6 4.1l.6-.7-.9-.3zm-12.8-5.7l-.6-.6-.2.7zm13.3 3.9l.3.6.5-.7zm3.2-3.2l-.4.4.6.2zm6.5 6l.5-.3-.4-.3zm1.1 6.6l-.8.1.5.5zm-4.6.5l.6-.1-.2-.5zm3.5-4.1l.5-.4-.6-.1zm3.8 10.1l.6.6.2-.7zm-.2-3.7l.5-.4-.6-.2zm8.4-1.1l-.8.1.5.5zm-4.6.5h.6l-.2-.6zm4-4.5l-.6-.1.1.5zm5.1 8.1h-.6l.4.5z"/><path d="M292.8 371.5l.5.1-.2-.5zm3.3-3.5l-.5-.2.1.5zm-28-5.6l-.5-.1.2.6zm-8.9-.6l1-.5-.9-.8zm-4.1-5.4l.5.7.4-1zm8.7-.2l-.4-.9h1l-1-1.5-.4 1-1.3.7 1.4 1v-.6l.7.3zm-.7-.4v-.4h.3l-.3.4zm9.9 9.6l.9-.4-.9-.8zm-3.6-4.7l.4-.9-1 .2zm7.7-1.7l-.5.7.9.2zm-26.2-1.8l.4-.8-.9-.1zm1.9-3.1l.5-.8-1-.1zm-2.5-4.2l-.6.6.7.2zm2.9.6v.7l.8-.3zm7.9 5.7l-.4.6.7.1zm5.4 9.7l1.4-.6-1.2-1.2zm-4.1-2.7l.8-.4-.7-.6zm3.1-.9l-.7-.6-.1 1 .3-.1-.1.5.8-.3-.4-.4zm-11.8-7.4l.9 1.2.8-1.6zm-3.2-7.7l-1.7.3.9 1.1zm-4.2 7.4l1 1.2.7-1.5zm-.1-2.9l.7 1.5 1.2-1.2zm9.4 7.8l.7.2-.3-.6zm.9 2.9l1-.5-.9-.9zM251 358l.6.8.5-1.1zm9.5-.6l-.7.8 1.1.3zm26.8 12.3l1 .3-.2-.9zm-6.9-2.7l.8-.4-.7-.6zm5.8-9.8h-1l.4 1.1zm.9 5.9l-.1.1h-.9l.4 1.1.3-.5.5.1zm-6.8-2.5l-.8-.7-.1 1zm.7-3.9l-1 .8.9.4zm6.9 4.8l.4.8-.6.2.7.7.1-1-.1.1.4-.9zm1.2 1l.4 1.1.4-.7.8.5-.1-1.5-1 .6zm1.4 6.5l.9.3-.1-.9zm-7.1-4v1l.8-.4zm3.8.1l-.7.8 1.1.3zm6.1 3l-.8-.4v1zm-8.2 3.8l.8.6.1-.8zm4.6-1.9l1 .2-.4-.9zm-1.2 5l.7.5.2-.7zm4.9-8.1l-.6.5.8.5zm4.6 3.4l-.6-.5-.1.9zm-7.3 1.8l.5.7.3-.7zm2.2-6.8l-.7-.8 1-.3-.9-.9-.5 1.3h.1l-.5 1.4 1.6-.5.3.8.6-1.1h-1.1zm2.1 5.8l-.8.6.5.1v.5l.7-.5-.3-.1zm-7.8-2.4l.8-.4-.8-.6zm-39.8-15l1.9.2-.8-1.2zm47.7 14.5l-1.6 1.6 2.4.9zm-36-12.9l.7-2.4-2.3.9h.1l-1.7.3.9 1.2.6-1.3zm9.6-1.7l-2.6.2 1.7 2z"/></g><path d="M253.7 365.1s1-3.4-1.5-8.5c-2.3-4.4-6.8-6.7-6.9-6.8 0 0-.1 0-.1-.1l.9-1.5c.2.1 5.1 2.4 7.7 7.6 2.9 5.7 1.6 9.7 1.6 9.8l-1.7-.5zm33.3-7.2l-8.9 6c-.5.3-.6 1-.3 1.4l.3.3c.3.2.8.2 1.1 0l9.3-6.2-1.5-1.5zm-5.2-5.1l-9.1 6.1c-.5.3-.6 1-.3 1.4l.3.3c.3.2.8.2 1.1 0l9.5-6.3-1.5-1.5z" fill="#fff"/><path d="M255.887 269.46l42.238-40.186.69.725-42.238 40.186z" fill="#890320"/><linearGradient id="R" gradientUnits="userSpaceOnUse" x1="203.486" y1="249.018" x2="198.374" y2="264.454"><stop offset=".01" stop-color="#9a0c10" stop-opacity="0"/><stop offset=".985" stop-color="#a20c21"/></linearGradient><path d="M248.9 250.3c-20.1-3.8-60.4-10.2-73.6-14.8-13.2-4.7-24.1-12.2-24.1-12.2s-2.5 15.6 5.7 24.6 17.5 10.3 43.1 13l37.9 3.7 16.5 2.4c8 1.5 7.6-14.2-5.5-16.7z" fill="url(#R)"/><g fill="#870f34"><path d="M228.8 252.6l.3-.9.9.7zm5.6 2.8l-1.4-.7 1.5-1.1zm-24.7 6.6l-1.8-.2 1.1-1.8zm6.3.6l-1.8-.2 1.1-1.7zm19.7 1l-1.9-.2 1.2-1.8z"/><path d="M234.5 264.1l-1.5-.2 1-1.5zm-32.4-2.9l-1.8-.2 1.1-1.9zm8.7-5.6l-1.5-.9 1.8-1.2zm10.3 4.7l-1.5-.9 1.6-1.2zm4.5-.5l-1.6-.8 1.7-1.3zm13 4.8l-1.4-.7 1.4-1.1zm-12.7-1.8l-.1-1.8 1.9.6zm-23.7-7.1v-1.9l1.9.8zm-6.8 4.6l-.1-1.8 1.9.7zm-3.1-5.3l-.1-1.8 1.9.7zm10.5-12.2l-.1-1.9 1.9.6zm9.6 10.8l-.1-1.8 1.9.6zm4.3 2.3l-.2-1.8 2 .6zm-26.6 3.8v-1.9l1.9.7zm-10.9-1.7l-.1-1.5 1.7.6zm5-4.8l-.1-1.5 1.6.6z"/><path d="M176 257.7v-1.5l1.6.7zm54.3 6.1l-.1-1.5 1.6.5zm1.9-1.8l-.1-1.5 1.6.5zm21.9 4.1l.1-1.5 1.6.7zm.9 1.6l1.1-1.1.6 1.6zm-4.5-1.6l-1.5-.1.9-1.5zm.3-6.3l-.9-.1.5-.9zm-.6 2.9l-.9-.1.5-.9zm1-1.5l-.5.8-.6-.8zm1.5 3.9l-.4.7-.6-.8zm-24.9-2.1l-1.4-.7 1.4-1.1zm.4-4.5l-1.6-.8 1.7-1.3zm19 7.3l-1.4-.7 1.5-1.1zm-12.9-18.5l-.6.6-.4-.9zm-7.7 12.4l1.1-.7.1 1.4zm2.5 1.9l-.3-1 1.2.2z"/><path d="M236 259.7h-1.1l.5-1.1zm.2-17.8l.2-.8.7.6zm4.4 2.3l-.6-.3.7-.4zm-.3-6.5l-.5.5-.3-.7zm4.5 27.4l-.2-1.1 1.3.2zm7.7.3h-1l.5-1zm-4.8-8.3l-.3.9-.9-.7zm-49.4-2.2l-.1-1.2 1.3.4zm8.2.9l-1.1-.1.7-1.1zm-4.3-9.4l-.4 1-.8-.9zm8.8 9.3l.4-1.2 1.1.9zm-13 1.7l.4-1.3 1 1zm15.4-.3l.4-1.3 1.1 1zm7.3 5l-.9-.4 1-.8zm-2.7-.6l-1-.5 1-.8zm2.1-9.8l-.7.8-.4-1.1zm-7.8 6.3l-.8.7-.4-1.1zm1.2 3.2l-.8.8-.4-1.1zm-6.1-17.7l1.2-.1-.4 1.4zm-1.4 8.3l.2-1 1 .6zm9.6-4.7l-1-.4.9-.8zm-9.6 10.5l1.3-.1-.6 1.4zm-3 .3l1.2-.1-.6 1.3zm-16.8.4l1.3-.1-.6 1.4zm17.2 1.6l1.2-1.5.9 1.9zm-12.7-8.2l.4-2.3 2.1 1.4zm-30.6-1.2l2.3-.4-.5 2.4zm36.4-2.5l-1-.4.9-.8zm-14.1 3.6l.4.9-1.2-.1zm12.9 3.5l1-.1-.4 1.2zm-5.7 3.6l.3 1h-1.2zm9.8-.4l.4 1-1.2-.1z"/><path d="M210.4 249.3l.8-.1-.3.9zm-.9 5.3l.2-.7.6.4zm6.2-3l-.6-.3.5-.5zm10.1 2l-.5.7-.4-.8zm-3.3-4l.4.5-.7.2zm-2.1 6.5l.6-.3v.8zm16.2-5.7l-.5.7-.4-.8zm-3.3-4l.4.5-.7.2zm-2.1 6.5l.6-.3v.8zm6 7.9l-.5.7-.5-.9zm-3.3-4l.4.5-.8.2zm-2.2 6.5l.7-.3-.1.7zm12.8-.9l-.4.5-.4-.6zm-2.9-3.3l.4.4-.7.2zm-1.7 5.2l.5-.2v.6zm-10.6-25.7v.9l-.9-.3zm-9.1 2.4l.7.1-.4.6zm4.8 6.1l.3-.6.5.6zm-17.3-9.3l.4-.5.3.6zm6.3 4.6l-.4-.5.7-.2zm-25.2 5.8l.8.9-1.4.5zm-7.5 4l1-.5v1.2zm8.9 5l-.1-1 1.1.2zm16.5-5.8l.8.9-1.4.4zm-7.4 4l.9-.5v1.2zm8.9 5l-.2-1.1 1.2.2zm-28.5-8.6l.2 1-1.2-.3zm-1.5 2.8l.1 1.1-1.1-.4zm-4.2 1l.9.1-.5.8zm14.6.5l-.2-.9 1 .2zm7.8-5.9l.7.7-1.1.5zm3.2-2.3l1.2 1.3-1.9.8z"/><path d="M193.6 249l.7.8-1.2.3zm2.4 1.6l.7.7-1.2.4zm-15.6.1l1.6-.8.1 2zm-10.6 4.8l1.7-.8v2zm5.4-2.8l1.6-.8.1 2zm-1.4 2.1l1.6-.8.1 2zm7.8 1.2l1.7-.8.1 2zm1.2-6.2l-.2-.6.8.1z"/><path d="M201 244.1l1 .9-1.6.6zm-8.2 5l1.1-.6.1 1.3zm10.5 5l-.3-1.2 1.3.2zm25.8 5.4l-.7-1 1.4-.4zm7.6-3.7l-.9.5v-1.2zm-8.6-5.4l.1 1.1-1.1-.3zm-3 13l-1.9-.2 1-2zm-5.5-.5l-1.8-.1.9-2zm9.6.9l-1.9-.2 1-2zm2.5-4.5l-1 .5v-1.2zm-8.7-5.4l.1 1.1-1.1-.3zm1.9 1.4l1.1.6-1.1.9zm-5.6 6.5l.7-.8.5 1.1zm10.4 1.1l-.6-.8 1.2-.2z"/><path d="M230.6 262.9l-.8-1 1.4-.4zm7.7-3.5l-1 .4v-1.2zm-9-5.4l.2 1-1.2-.3zm1.7 4.2l.4-1.2 1.1.9zm7.5 3.8l-1-.5 1-.7zm-.9-10.2l-.7.7-.5-1.1zm.9 6l.2-1 1 .7zm6.1 3.1l-.7-.4.8-.6zm-.7-8.5l-.6.6-.4-.9zm-6.6 10.6l.1-1 1.1.5zm6.8 1.9l-.9-.2.7-.7zm-2.4-8.2l-.5.8-.5-.9zm-5.5 7.7l-.8-1 1.4-.3zm7.7-3.5l-1 .4v-1.1zm-9-5.4l.2 1-1.2-.2zm-11.9 5.3l-.7-1 1.4-.3z"/><path d="M213.5 258.6l-.7-1 1.4-.3zm17.5 4.2l-.7-1 1.5-.3zm13.5.6l-1.2-.1.8-1.3zm-42.5-8.7l-1.3-.1.8-1.2zm28.7 2.9l-.9.5.1-1.3zm-8.2-5.9l.1 1-1.1-.3zm-51 .6l-.1-1.5 1.7.6zm-7.6-.1l-.1-1.1 1.1.4zm7 .8l-.9-.1.6-.9zm-3.8-7.7l-.4.8-.7-.7zm.2-3.7l1.1-.1-.4 1.1zm-1 6.7l.1-.9.9.6zm8.1-3.7l-.8-.3.7-.7zm1.5-2l1-.1-.3 1.1zm-1 6.7l.1-.9.9.6zm8.1-3.7l-.8-.3.7-.7zm5.3 11.1l-.8-1 1.4-.4zm-9.6-1.1l-.9-.9 1.4-.5zm17.9 2l-.8-.9 1.3-.4zm13.5-1l-1.3.1.6-1.4zm-43.4-3.5h-1.3l.6-1.3zm29-.5l-1 .5v-1.2zm-9-4.9l.2 1-1.2-.2zm53.2 16l.4-2.7 2.7 1.6z"/><path d="M213.6 260.1l.4-2.7 2.7 1.6zm-29.5-3.5l2.7-.8-.4 3zm9.6 1.7l.4-2.6 2.7 1.6zm-26-2.7l.4-2.7 2.7 1.7z"/></g><circle cx="349.3" cy="219.3" r="11.6" fill="#283749"/><circle cx="349.3" cy="219.3" r="6.2" fill="#3aaaa7"/><linearGradient id="S" gradientUnits="userSpaceOnUse" x1="268.348" y1="267.527" x2="307.222" y2="227.328"><stop offset="0" stop-color="#f25779"/><stop offset=".975" stop-color="#cb1e3a"/></linearGradient><path d="M260.4 275.1l45.2-36.7-6.8-8.4-42.2 40.2z" fill="url(#S)"/><path d="M181.9 219.5s-2.5-1.6-4.2-6c-1.8-4.8-1.3-5.3-1.3-5.3h21.8s-1.3 4.1-6.3 7.3c-4.4 2.9-10 4-10 4z" fill="#750e29"/><g fill="#8e163b"><path d="M204.7 219.8l-1.7.8 1.4.9zm13.4-.6l.5-1.4-1.6.5zm1.4-5.2l1.4-.1-.8-1.4zm6.1-5.8l-1.8 2.9 2.9-1.3zm-6.4 8.2l.6-1.3-1.7.1zm-18.7 5l1.4 1.4.7-1.6zm-17.8 4.4l.7-1.5-2.1.1zm32.6-10.6v-.4l-.7.4.2-.9.1.5.7-.6-.8-.3.1-1-.4.1-.3-.2-.1.4-.7.1.4-1.2-1.5.6.9.7-1.3.4 2.7 1.8v-.3l.2.1 1 1 .5-1.3zm-3.4.9l-1.6.1 1.1 1.1zm-7.8 16.9l1 .2-.3-1.1zm-.2-6.1l.1.8.8-.4zm6.8 4.9l.2-.9-.8.2zm-18.7.7l1 .2-.3-1zm.7-5.7l-.9-.3.1.7zm5.9 4.6l.2-.9-.8.2zm-3.9-1.3l1 .1-.3-1zm-.2-6.1v.8l.9-.4zm6.8 4.9l.2-.9-.8.2zm2.7-4.2l1.8-.9-1-.4.3-.2-1.1-.4.1.3-.2-.1zm3.8 2.2l.2-.9-.8.3zm16.7-7.4l1 .2-.3-1zm8.7-7.8l.9.2-.2-1zm-13.4 12.2l1 .2-.3-1zm4.5-10.5l.1.8.8-.4zm6.8 4.9l.2-.9-.8.3zm-9.4-2.9l.2-.9-.8.3zm6.5-1.9l.2-.9-.8.2zm-27.6 9.5h-1.1l.6.9zm-1.6-2.6l.7.5.1-.9zm3.1 4.1l1.4.1-.5-1.3zm10.1-.2l.7-.7-1-.4zm-4.6-4l-.8.5.7.4zm6.7-2.6l-.3.7h.9zm-.8.8l.4-1.5-1.5.6zm2.2-3.7l1.5-.5-1.3-.9zm.5 2.1l.4.9.6-.6zm-.9 3.7l.1-.9-.8.5zm-8.5-3.6l-.2.5-.1-.1-.3.7h.9l-.2-.3h.3zm4.5 2l-.1-.9-.7.7zm-7.4-1l.3-1.5.2.2.3-1.8-1.7.9 1 .6-1.5.7zm2.5-4.8l-2.3 1.2 1.9 1.1zm-15.2 8.2l-.3 1.8 2.1-.5zm8.1 3.2l.7-.6-1-.4zm-4.6-3.8l-.8.5.7.4zm6.4-1.8l.9-.1-.6-.7zm-23.9-4.6l.9-.1-.6-.7zm31 10l.6-.4-.8-.4zm2.2 1.9l1.1-.9-1.4-.6zm-4.5-1.2l.6-.5-.9-.3zm-5.6.3l-.3.6h.8zm-35.7 8.1l1 .2-.2-1zm-3.1-.7l1 .2-.2-1zm3-4.6l.8-.4-.8-.4zm6.7 4.1l.2-.9-.8.3zm-6.8-8.8l.1 1.7 1.8-.8zm-9.9-10v1.7l1.8-.9zm-.3 3.3l1.2.3-.3-1.4zm.7-6l-.7 2.5 2.3-.5zm13.5 16.7l.1-.9-.8.2zm-7.3-3.9l-1.1-.1.6.9zm1.9.7l.3 1 .8-.6zm-4.3-1.9l.1-.9-.8.5zm4.1.4l-.8 1.2 1.3.1zm5.7 1.3l.2.9.6-.5z"/><path d="M172 226l-1.4-.7.4 1.5zm-5.6-.3l.6-.6-.9-.3zm-5.9.9l.8-.1-.5-.5zm21.7 6l1 .2-.2-1zm-.1-6v.7l.8-.4zm6.9 4l-.8.2.6.6zm-16.2-.9l.9.2-.2-1zm6.8-2l-.8.2.6.6zm4.3-4.2l-1.9-.8.1 1.6zm-15.1-1.7l.1 1.6 1.8-.8zm17.3 3.9l-.8.2.6.7zm-7.4-3h-1.2l.7.8zm3.5 14.7l.7-.6-1-.4zm-4.7-3l.2-.8-.9.4zm6.5-2.7h1l-.7-.7zm2.3-7.6l.6-.5-.8-.3zm1.9.3l.3 1.5 1.1-.8zm-4.5-.5l.3.9.6-.5zm-5.4 1.2l-.2.6.8-.1zm-11.6-3.2l1 1 .6-1.5zm5.9 1.8l.1.7.8-.4-.8-.4.3-.9-2.4.7 1.6 1.4zm24.3-1.8l1.5.2-.5-1.5zm-7.4 8.8l.2-1.3-1.2.4zm-12.9-7.1h-1.7l1.1 1.3zm15.3-5.2l1.4 1.8.8-1.8zm-7.7 11.2l1.3-.7-1.4-.5zm-14.8 2.2l1.1-.9-1.5-.3zm13.1-10.1l-.8-.7.5-.1-2.1-1.3-.3 2 .6-.1-.2.5zm3.9 6.4l.9-.8-1.4-.5zm-9-2.1l-1.9 1.1 1.6.9zm9.6-5.2l-.1 2 1.7-.7zm-2.2 1.8h-1.3l1.9 1zm8.3-2.6l-2 .8 1.9 1zm-33.4 2.1l1.8-1.1-1.6-.8zm-2-1.6l1.8-1.1-1.6-.9zm37.3-1.2l-.5-.2v.8l.4-.2v.7l1.8-1.1-1.7-.9zm12.6-2.2l-.2 1.9.6-.3.2.8.6-.5-.8-.4 1.2-.7zm-2.3 3.7l-.1 1.2 1.1-.7zm7.7-5.8v.5l-.1-.1.1.4-.1.5.2-.1.1.7 1.1-.8-.6-.3.4-.2zm-34.2 8.6l-.1 1.3 1.2-.8zm-16.1-3.5h-.1.3l.3.2v-.1h.1v.2l-1.2.7 1.6.8.2-1.7v-.2l.2-.1-.3-.1.7-.5v1l1.1-.5.3.1-.9.5.9.5-1.7.6 1.9 1v-1.4l1.1.6.3-2.8-.9.5-.3-.8-.4.7h-.1l-.3-.4-.1.2-.3-.2.3-.1-2.4-.8.1.5-1.5.9zm-2.3-.5v-.2l.1.2.2-.5.4.7 1.7-2.2-2.4.1v-.1l-.1.1h-.5l.1.2-1.3.8 1.8.9zm.3-.9h-.1v-.1l.1.1zm-4.1-1.7l1.6.9.1-.6.1.1-.1.4 2.8-.4-.7-.6.4-.2.1.3 1-.6-.4-.1-1.6-.9-.1.9-.5-.4-.7-.7.9-.6-1.6-.8-.1.6-1.5-1.6.2 3.5 2.3-.3-.2.9-.3.1.1-.9zm20.1 3.1l-.8 1.8 1.8-.1zm-2.4-.8l1 .6.1.1 1.1.5.3-2.7zm46.4-8.2l-2.1.6 1.9 1.3.1-1 1.1.8.4-1.4-1.5.5zm2.7 1l.2-2-2.2.7zm-26.9 6.9l1.9 1.1.2-2.4zm-18.7 10l-.3.9 1.2-.2zm14.4.9l1.1-.9-1.5-.5zm-6.3-5.5l-1.2.6 1 .6zm9.1-2.5l1.3-.1-.9-.9zm24.5-13.7h-1.9l1 2.2zm-1.2 4.7l-.3-.2v.3l-.2.1.1-1.2-1 .2-.8-.2.2.4-.5.2 1.2.9h-.1l1.1.9-.1.2 1.6-.7-1.1-.8.1-.2zm.9-3.6h.4l1 .8.5-1.5-.7.3-.7-.7zm.3 1.1l-1.7.1 1.1 1.1zm-18.6 6.1h0-.4l.5.4v.6l.3-.2.6.6.7-1.5zm-19.6 3l1.3.5v.9l.5.8h.7l.9-.1 1.2-.5-1.6-1.3v1.7l-1.5-.6.6-1.5zm34.8-9l-1.6.1 1 1.1zm-21.4 14.7l1 .2-.3-1zm6.6-1.2l.2-.9-.8.3zm3.5-5.5l.3-.2-1.1-.4.1.3-.2-.1.1.5-1.5-.7-.2 1.9 1.7-1v1l1.8-.8zm-5.3-.4l.6.9.5-.8zm.2-2.1l.1-.9-.8.5z"/><path d="M212.1 219.3l.8-.7-1.1-.4zm-4.5-3.8l-.8.4.7.4zm-.9-3.4l-.2.4h-.1l-.3.7.9-.1-.2-.2h.3zm3.7 1.7l.8.3-.1-.9zm-8-1.6l1.5.9v-.4l.8.8.7-1.6-1.4.1.1-.7zm-.9 1.2l-2.2 1.2 1.8 1.1zm-3.6 2.3l.7-.2-1.5-1 2.7-.6-2.2-1.6-.5 2.2-1.6-1-.2 1.1-1.5.9 1.3.7v.3l.4-.1.3.1v-.2l1.4-.4-.4 1.7 2.8-.7zm12.4 5l-.6.3 1 .8v-.8l.8-.6-1.4-.6zm-4.4-.5l.6-.4-.9-.4zm-39.8-5.5l-.6-.6-.3.7zm2.6 5.4l.2-.1.8.4.4-2.7-2.6 1.5 1.2.6zm4.8 3.9l-.7.9h.3l-.7.2 1.4 1 .3-1.4-.4.1zm5.3-1l.6.6.1-.3 1.2.7v-1.8l-1.8.8zm-.1-5.2h-1.2l.7.8zm7.6 1.4l.6-.5-.8-.3zm2.7.8v-.3l-.2.1-.6-.2.1.5-1.1.6 1.6.9.1-.8.7-.6zm-5.3-.9l.3.8.6-.5zm-5.4 1.1l-.2.6.8-.1zm-10-3.7l-1.6.5 1 1zm-5.3-3.4l.1.6-1.5.9 1.6.8.1-.5v.2h.2l.1-.1 1.8-1.1zm7.6 5.4l1.6 1.5.4-1.2.1.8.8-.4-.8-.4.3-1zm19.3-.7l-1.4.7 2.5.3zm-15.8 2.1l-1.7.3.7.5-1 .4.1-.4-1.6.3v-.8l-1 .4.9.8.1-.3 1.3 1 .2-.9 1.5 1.4.8-2.3-.5.2zm-10.2-4.8l-1.8 1.1 1.6.9zm24.9 1.6l.2-1.9-1.8 1zm-1.9 1.3l1.7-.8-1.6-1.3zm-6.7.1h-1.4l1.3.5zm-14.1-.4v-1.5l1.1.6.3-2.3 1.5-.8-1.9-.8.1 1.3-2.2 1.3.9.5-1.7.7zm27.8.6l1.7-1.1-1.6-.8zm19.9-7.5l-1.1-.6-.1 1.3zm-35 7.9l-.1 1.3 1.2-.7zm-22.2-6.5l1.6.9.2-1.6h.3l-.3-.3v-.1h-.1l-2.6-2.7.1 3.5 1.7-.2zm68.7-4h-4.1l1.2 2.1zm4.2 5.7l1.4-.1-.8-1.3zm-.2 2.4l.5-1.2-1.6.1zm-3.7-3.9l.6-1.2-1.7.1zm7-1.8l.6-1.3-1.7.1zm-3.1-2.4h-1.9l1.1 2.1zm-.2 1h.4l1 .9.4-1.5-.7.3-.6-.7zm.2 1.1l-1.6.1 1.1 1.2zm-42.2 9.7l1-.9-1.4-.6zm2-10l-.3-1.6-1.1 1.2zm20.5-1.8h-3.7l2.1 1.8zm-7.2 2.5l-.8.4.6.4z"/><path d="M215.5 209.8v.3l1.5-.5-.7-.4.4-.3-.2.4.9-.1-.4-.5.6-.5-2.7.1.2 1.9zm-36.2-.4l-.6 1.2 1.6.1zm38.6 1.2l-.8.4.8.4zm-16-.2l1.8 1.1.3-1.7.6-.1-.5-.4v-.1.1-.1l.6-.9-3.1.1 1.4 1.4zm-8.3 3.5l1.2-.6-.8-1.2zm8.1.4l.3 1 .8-.6-.2-.1.3-.1.1-.1 1-.6-1.6-.9-.1.8h-.1l.1.1v.7zm-5-2.4l.6.5.2-.9zm14.8 2.6l-.8-.4.2.9zm-30-1.1h-1.1l.7.9zm8.3 1l-.8-.4.1.9zm-23-3.7l-1.8 1.1 1.6.9zm16.8 2.3l-2 .7 1.9 1z"/><path d="M205.6 211.3l.8-.5.2.1-1.1.5 1.4.9.1-1.1.8.5-.1.8-.4-.2-.1 1.5-.7-.3.1.3h-.2l.1 1.7 1.6-.8-.3 2.1 3.3-1-2.9-1.8-.1.5-.8-.3 1.2-.8.9.9.5-1.2h-1l-1-.5.7-.3 1.1.7.2-1 .1.1.1-.5 1 1 .5-1.2-1.5.1.1-.3-.3.2.2-1.1 2.1 1.4.2-2.1 2 1.4.3-2.7-2.7.7.5-.8-2.7.1.8 1.3-.5.1v-.1l-3.4 1h.1l-1.1-.6.9-.5-1.7-.9-.1 2 .9-.6zm-43.9-1.9l1.6.9v-.1l1 .9.4-.7 1.3.7.1-.7v.4l1.5-.9.7 1-.5.3.9.5-1.6.6 1.8 1 .1-1.5 1.1.6.3-2.7-.5.2 1.6-1.7-5.2.1.7.8-1.1-.4v.6l-.9.6.9-1.6h-4.8l1 .9zm-1.7 2.1l-1-.9-.7 2.3 2.5-.4.1.1-.1.1h-.2v-.1l-.1.1h-.5l.1.2-1.3.8 1.6.9.1-1 .8 1.2 1.7-2.2h-.1l.6-.4.5-.1-.2-.1.4-.2.2.9 1-.7-1.1-.3-1.6-.8v.2l-.8-.7.4-.3-1.6-.8-.2 1.9-.5.3zm1 1.1h0zm1.2.1l.4-.3v.2l-.4.1zm.4-.2h-.1.1zm-1.5 0h0l.1-1.7.5-.3-.6 2zm17.6.2l1.8-.2-1-1.6z"/><path d="M170.6 209.4l.8 2.7-.6.4.3-1-1.6.5.8.7-1.4.8 1 .6-2.2-.4 1 3.4 1.3-1 .6.4.6.5.1-.8.5.4v.5l1.1-.5.7.7.2-.6.2.2v-.1l1.7.9.2-1.8.2.2-.2.6 1.8-.2-.8-1.3v-.1h-.1l-.1-.2-.1.3-.6.1v-.2l1.4-.4-1.7-1 .2-.6-.8.2-.7-.4-.1.6-1 .3.8.8-.1.6-1.9.6-.1-.1.1-.3-.4.1h-.1l-1 .2.8-.6v.3l.6-.5-.8-.4v.2h-.2l.2-2.1.1.5 1.9-1.5 1.3 1 .2-.9 1.5 1.4.8-.7 1.3 1.2.3-2.7-.8.4 1.3-2.9 1.5 1.8.7-.8-.6 1.4h-1.1l1.3 2.5 1.9-2.2.4.1-.5 1.5.8-.1-.2.2 1.2.3v.3h-.1l.1 1.7.5-.2.1.2-.9.1-.2-.2v.2h-.2l.1.2v.7l-1.7-1 .1-.1-1-.6-.1 1.3.7-.5-.2 1.3-1.4-1.2.1-.8-.7.4.1-.9-1.2 1.2.9 1.5.1-1.2.5.3-.5 1.5 1.9-.3v.6h.1v.4h-.1l.1 1.7 1.8-.8-.7-.3.7-.4 1.5.8.1-1.7-1.7.7-1.2-.5h.1v.1l1.6-.5v.2l1.1-.5.2.2.1-.3.2-.1-.1-.1.1-.2.5.9 1.5-2.2-2 .1.9-.4-.7-.3.7-.4 1.5.8.1-1.7-1.7.7-1.2-.5 1.7-.5v.2l1.7-.8-1.6-1.3v1.1l-1.9-1.2.9-1.2-1.6.1.4-.8-2.3-.1 1.4 1.9.5-.9.6 1-.2 1.7-.1-.1-.1-.3-.1.1-.8-.7-.2-1.2-1 1h-.1l-.8-1.7 1.3-1.3-3.5.1h-4.6l-3.3.1 1.6 2.2-2.3-1.3zm4.8 5.8h0l-1.2.7v-.4l.1-.2 1.6-.5-.5.4zm-4.6.8v-.2l.2.1-.2.1zm0-.3l-.6.3.5-.4.1.1zm5.3-3.9l.8-1.1.7.5v1.1l-1.5-.5zm-1.2-3.3l2.7 1.9-2.5.8.1-.4-1.5.3 1.2-.9-1.1-.2 1.1-1.5zm16.1 1.7l.3.4-.8.5-.2-.2-.2.4-.2.1.1.1-.1.3-.3-.2-.1 2 1.7-.8-1.1-.9h.6l.8.5.1-1.2.9 1.1-1.4 2 2 .2h-1.2l.7.8-.9.4h-.1l.2-.1-2.1-1.3-.2 2.1 1.5-.5v.1l.1.7-.1-.1-.4 1.8 2.2-.5-1.6-1.2.5-.4.6-.6.6-.2.5-.4.8-.7h-.6l-.6-1.5.7-1.3 1.8 1 .1-1.4.5.6.8-1.7h-1.2l1-1.6 2.7.4-1.7 3.4 2.1-.6-.3 1.7 2.8-.7-1.7-1.2.5.3.1-.5.2-.1-.1-.1.3-2.8-1.1.3.2-.4H197v-.1l-3.9.7.3-.7h-4.1l1.8 2-.1.1zm3.4.5l.4.5-.8.3.4-.8zm1.2.1l-.2.1.2-.1zm-2.5-1.6l.5.6-.8.2.3-.8z"/><path d="M188.1 210.3l1.1 2.1 1.5-2.2zm-27.8-1.9l-4.5-.1 2.8 2.3zm28.2-.3h-3.7l1.8 2.1zm-24.3 27.5l1.3.3-.4-1.3zm-.6-7.6l.1.9 1-.5zm9 5.8l.1-1.1-1 .3zm6 5.2l1.3.2-.4-1.3zm-.6-7.7l.1 1 1-.5zm-20.4-5.1l.9.2-.2-1.1zm-3.2-5.2l1 .2-.3-1zm3.1 9.9l.8-.6-1-.4zm-4.6-2.9l.1-.9-.8.4zm6.5-2.7l.9-.1-.6-.7zm-3.5 0l.9-.1-.6-.6zm-1.9 7.3l1.2.2-.3-1.3zm-.6-7.7l.1.9 1-.5zm33.5 12.2l.2-1.1-1 .4zm.8-2.1l1.5.2-.4-1.5zm-.6-8.1l1.2-.6-1.3-.6zm10.6 5.8l.2-1.3-1.2.4z"/></g><path d="M240.853 360.36l.38-.925 62.7 25.798-.38.925z" fill="#fff"/><linearGradient id="T" gradientUnits="userSpaceOnUse" x1="207.478" y1="225.417" x2="199.546" y2="187.952"><stop offset=".01" stop-color="#9a0c10" stop-opacity="0"/><stop offset=".985" stop-color="#9a0c10"/></linearGradient><path d="M151.5 220.2c-1.2 8.2-.4 13.8-.4 13.8s20.3 5.5 49.3 2.6c46.6-4.8 62.7-23.8 62.7-23.8l-18.3-4.7h-90.6c-1 3.4-2.1 7.7-2.7 12.1z" fill="url(#T)"/><path d="M218.1 230.4l-27.4-6.2c-3.4-.8-6-2.2-8-3.9 1.4-.3 9.3-2 13.3-6.9 1.3-1.6 2.3-3.4 3-5.2h-1.1c-.7 1.6-1.6 3.2-2.7 4.6-3.6 4.5-11.9 6.3-13.5 6.7-3.5-3.5-4.7-7.9-5.1-11.2h-1c.6 5.7 3.5 14.2 14.9 17 8.5 2.1 18.1 4.2 27.5 6.2 26.7 5.8 54.3 11.8 59.3 18.4l.8-.6c-5.4-7.1-33.1-13.1-60-18.9z" fill="#890320"/><defs ><path id="V" d="M392.4 323.5c33.4 0 60.6 27.2 60.6 60.6s-27.2 60.6-60.6 60.6-60.6-27.2-60.6-60.6 27.2-60.6 60.6-60.6m0-7c-37.3 0-67.6 30.3-67.6 67.6s30.3 67.6 67.6 67.6 67.6-30.3 67.6-67.6-30.3-67.6-67.6-67.6h0z"/></defs></svg>