<svg xmlns="http://www.w3.org/2000/svg" viewBox="0 0 480 480" xmlns:v="https://vecta.io/nano"><path d="M282.77 408.1L279 392.63l27.7-6.45 4 18.7s1.12 5.74-.76 8.33c-4.8 6.62-22.7 12.68-27.16-5.1z" fill="#fff"/><path d="M305.25 401.84l.01-.01z"/><path d="M92.74 320l15.4-4.02 7.04 26.7-19.02 4.72s-6.8 2.34-9.43.5c-6.7-4.68-11.7-23.12 6.02-27.9z" fill="#fff"/><path d="M96.27 327.82l-.02.06c.02 0 .03-.02.02-.06zm3.1 14.55l.01.01zM95.6 330.3c-.01-.01-.01-.01-.01-.02v.02zm-36.68 25.8c0-.06 0-.1.01-.13l-.01.13zm1.72-7h.01v-.1zm25.06 2.54v-.04c-.01.01-.01.02 0 .04zm.03-1.5h.01z"/><path d="M351.85 422.54l-.06-.46-.13-.96c-.2-1.28-.44-2.58-1.17-4.12.18.38.01-.2.05-.18-.55-1.46-1.42-2.95-1.7-2.82l-.5-.85c-.07-.13-.02-.15-.05-.26-.1.03-.98-.63-1.77-1l.38.16c-.75-.43-1.52-.76-2.28-1.1l.35.42c-1.17-.6-.2-.4-1.37-.84l-.06.2c-1.66-.7-2.56-1.33-4.17-2.03-6.86-2.38-14.48-3.86-20.88-5.86l-.25-.22c-.07-.24-1.87-.15-2.07-.4l-.78-.1c-.2-.1-.64-.24-.25-.2-.7-.18-.72-.15-1.26-.22-.1-.05-.28-.1-.47-.16-.17-.04-.34-.07-.5-.1a3.53 3.53 0 0 0-2.09.66c-.1-.94-.44-1.67-.62-2.6.04.3.12.66.02.42l-.18-.9.1.17-.25-1.33-.04.2c-.1-.66-.02-.9-.28-1.62-.13-.32.03.63-.14-.04-.13-.88-.33-2.2-.55-3.3-.06.12-.12-.18-.2-.48l.07-.05c-.35-1.15.07-.46-.26-1.6l-.15-.18c-.37-1.02.03-.6-.42-1.72.1.46-.1.25-.2-.32l.1.13c-.08-.3-.13-.4-.16-.62.08.18.12.08.01-.38l.15.3-.32-.85c-.01-.1-.03-.2-.04-.3V387l4.94-1.12 1.5-.33c.52-.13.95-.17 1.6-.4 1.2-.45 2.14-1.46 2.53-2.68.2-.6.25-1.27.15-1.92l-.78-4.64-4.38-24.26c-.03-.25-.13-.7-.2-1.1-.05-.2-.1-.37-.12-.5s-.06-.2-.06-.2l-2.66-14.17-1.97-9.9c-1.14-5.6-2.64-12.54-4-17.8-1.33-5.27-2.64-8.85-2.6-7.9.01.3.14.98.37 2.15a59.43 59.43 0 0 0-.61-2.07c-.62-1.94-1.9-5.33-3.63-9.72l3.73 8.62c1.05 2.46 1.1 2.23.8.82-.64-2.9-3.46-10.24-3.46-10.24-5.56-14.7-9.1-21.98-16.43-39.14l-14.6-34.82-2.23-5.17.88-2.4c.04-.1.08-.2.12-.32h-72.75l-1.94 8.1-2.23 10.1c-.08.26-.18.74-.25 1.15-.04.2-.07.4-.1.53l-.03.22-3.45 14.84-6.72 29.15-1.7 7.28c-.06-.03-.32.28-.7.83.06-.13-.05 0-.2.07a10.34 10.34 0 0 1-.57.28c-.44.2-.95.4-1.5.62-1.1.43-2.33.87-3.48 1.28l-4.26 1.47-20.14 6.62-22.45 7.26-10.57 3.12-4.82 1.4c-.22.07-.45.14-.67.25a4.44 4.44 0 0 0-1.19.8 4.73 4.73 0 0 0-1.38 2.42 4.5 4.5 0 0 0-.1 1.42c.01.23.07.5.1.7l1.66 7.05 6.78 27.67c-.05 0-.1.01-.1 0-.92.25-1.9.5-1.88.68-.68.17-.56.08-.67.04.02.07-.56.25-1.08.38l.24-.1-1.5.4.33.06c-.8.16-.25-.12-1 .1l.04.1c-1.12.25-1.8.24-2.9.43-1.64.4-3.3.83-4.98 1.28a.99.99 0 0 0-.22-.59c.16-.08-.05-.3-.01-.4l.02.01c-.18-.2.01-.5-.15-.68.02.01.06 0 .08.05-.05-.15-.14-.36-.04-.4-.1-.37-.17-.9-.38-1.12h.03c-.14-.12-.05-.18-.14-.32l.02-.02c-.14-.13-.1-.44-.18-.55h.06l-.08-.3.01.12c-.2 0 .06-.25-.1-.44-.02-.2-.46-.33-.42-.56-.1-.08.16.06.06-.08.1-.02.07.06.14 0-.08-.14.04-.26-.06-.43l.07-.02c-.18-.2 0-.47-.16-.6-.1-.23.18-.2-.02-.44l.08-.12c-.01-.1-.14-.05-.12-.18.06-.01.02-.16.1-.1.04-.3-.26-.53-.17-.92-.14-.05-.1-.25-.2-.3.05-.02-.07-.37.1-.2.01.02.02.05 0 .05l.08.01c.1-.23-.15-.36-.18-.57-.01.07.01.14-.05.1l-.03-.2.07.03-.02-.3-.07.05c.01-.15.13-.22-.01-.36-.07-.06-.07.15-.13.01.01-.2.03-.5 0-.73-.08.04-.1-.02-.12-.1l.07-.02c-.15-.23.14-.13.01-.36l.06.01-.17-.03c-.2-.2.13-.15-.12-.36.03.1-.15.08-.15-.05l.08.02c-.03-.06-.06-.08-.06-.13.05.03.1 0 .07-.1l.1.05-.17-.16c.04-.16-.1-.37-.01-.45 0 0-.02-.32-.14-.37.08.05.07-.13.16-.1-.1-.06-.2-.3-.15-.4l.01.02c.01-.37-.24-.58-.2-.9-.08.03-.07-.14-.17-.08-.18-.3.1-.64-.27-.7-.05-.14.04-.2.04-.27l.03.03a2.53 2.53 0 0 1-.14-.56c-.05-.1-.2-.08-.2-.27.07.05.05-.03.03-.1.02.04.04.05.07-.05-.02-.01-.04-.03-.05-.04l.01-.01c-.05-.1-.06-.1-.06-.03-.01 0-.02.01-.03.03.05-.14-.08-.33.03-.37-.1-.34-.26-.57-.36-.84.05-.04.1.01.15.1l-.06-.2c.08-.01.07.1.1.17.08-.27-.23-.47-.18-.8l-.07-.05.01-.02c-.03.01-.1-.05-.1-.1.06-.05.16-.03.12-.17.04-.13-.1-.3-.17-.45.01.08-.04.06-.07.04-.02-.07.04-.13 0-.17l.1-.03c-.08.05-.13-.16-.18-.18.06-.05.08.1.14.1-.07-.28-.03-.14-.1-.42-.1-.14-.08.05-.18-.01-.05-.13-.14-.25-.12-.4l-.07.07c-.12-.24-.14-.4-.1-.58-1.06-1.73-1-.2-1-.2-.03.77.3 1.1.54 1.96.12.78.01 1.02.24 1.8.07.38.2.78.3 1.15.16.15.1.5.25.67l-.05.1c.05.06.1.14.07.22h-.02c.08.1.07.22.1.27h-.02l.04.13-.03-.02a1.26 1.26 0 0 1 .15.54l.08-.03c-.02.38.2.48.14.83h-.02c.3.37-.01.7.3 1.07-.04-.05-.04.03-.06.03.07.2.12.4.3.37.03.14-.03.13-.1.16.07-.02.13.1.16.2l-.04-.05.1.32.12-.1c0 .18-.16.08-.1.24l.1-.03c.03.24-.12.42-.15.66.15.96.66 1.92.64 2.84l-.08.06c-.12.04.24.2.13.26l.08.1c-.02.03-.03.1-.07.05.02.1.04.1.1.15l-.06.12c.02.4.24.67.3 1.07-.06.5.28 1.37.47 1.86.34.68.02 1.63.4 2.32-.01.03.04.08.05.08l.13.68s.06.28.15.6l-.8.2-1.7.45-.42.1c-.13.03-.34.1-.45.13l-.8.24c-1.08.3-2.15.52-3.2.62l-.2-.06c-.06-.08-.58.1-.94.18-.01-.54-.14-1.08-.4-1.56-.12-.22-.27-.4-.42-.58l-.32-.36a23.52 23.52 0 0 1-.61-.73c-.8-1-1.53-2.07-2.14-3.37-.64-1.6-1.47-3.92-1.8-6.4-.16-1.24-.23-2.5-.17-3.68a13.96 13.96 0 0 1 .42-3.14c.3-1.25.9-2.47 1.76-3.53.87-1.07 1.96-1.9 3.18-2.84.3-.24.55-.42.9-.83.01 0 .02-.01.02-.01 1.13-.44 1.92-.76 1.68-.84-.1-.02-.52-.03-1.3.1.01-.04.03-.07.05-.1.1-.28.15-.62.14-.93-.01-.64-.3-1.27-.83-1.64a2.14 2.14 0 0 0-.41-.25l-.3-.15c-.18-.1-.36-.16-.53-.24-1.42-.62-2.83-1.05-4.23-1.36a2.08 2.08 0 0 0-.65-.12c-1.67-.47-3.36-.86-5.06-1.2 0 0-1.55-.3-3.6-.57-2.06-.27-4.56-.44-6.6-.4a2.62 2.62 0 0 0-1.61.67c-.38.34-.6.7-.72 1-.23.64-.13.93.01.8.1-.07.26-.4.6-.72a2.4 2.4 0 0 0-.36.78l-.66 3.67c.72-9.27-1.28-.13-1.28-.13-1.3 5.44-1.4 8.34-2.46 14.9-1.1 5.73-1.64 7.2-2.6 13.18l-1.48 8.66c-.03 1.36-.65 3.65-.76 5.24l-.23.58c-.04.55-.1 1.2-.27 1.7l-.03-.04c-.05.82-.27 1.7-.3 2.12l-.03-.04-.16.98-.02-.18c-.16 1.42-.4 2.86-.68 4.12l.16-.08c-.32 1.34-.46 2.28-.6 3.18-.06.45-.13.9-.22 1.37l-.15.76c-.03.14-.06.28-.1.43a3.32 3.32 0 0 0-.07.65l-.04-.05c.1 1.2 1 2.2 1.95 2.47.23.08.48.1.64.14l.46.1.96.18c1.27.22 2.6.4 4.28.2-.42.05.18.07.15.1 1.56-.06 3.25-.4 3.2-.7l.97-.2c.15-.02.15.03.26.04.01-.1.9-.73 1.52-1.35l-.28.3c.65-.58 1.2-1.2 1.76-1.82l-.5.2c.94-.92.44-.05 1.23-1.03l-.16-.12c1.2-1.35 2.08-2 3.26-3.3 4.44-5.75 8.27-12.5 12.2-17.92l.28-.17c.25.01.74-1.73 1.04-1.83l.34-.7c.15-.16.43-.53.27-.18.4-.6.38-.64.6-1.12.08-.08.2-.23.3-.4.1-.14.18-.3.25-.46.02-.06.02-.12.04-.17.1-.02.2-.03.4-.03-.03.07.77-.04.42.06 1.4-.06 2.7-.58 4.47-.93.08-.06.2-.1.34-.17l.17-.07.22-.06c.3-.08.58-.16.7-.24.06.04 1.72-.42.8-.07-.08.03-.23.06-.22.04l-.1.1c1-.1 1.75-.5 2.7-.73-.3.05-.67.15-.43.04l.9-.2-.17.1 1.34-.3-.2-.03c.66-.12.92-.05 1.63-.34.32-.14-.64.05.04-.14.88-.17 2.2-.4 3.32-.67-.12-.06.18-.13.48-.22l.05.06c1.15-.4.47.05 1.62-.32l.18-.15c1.02-.4.6.01 1.73-.48-.46.13-.26-.1.32-.22l-.13.1c.3-.1.4-.15.62-.2-.18.08-.07.13.4 0l-.3.16.85-.35c.35-.05.8-.16 1.17-.26.04-.01.08-.04.12-.08l1.87 7.6c.06.2.18.63.34.94a4.24 4.24 0 0 0 .63.97c.5.6 1.2 1.1 2.03 1.37a4.34 4.34 0 0 0 1.31.23c.23.01.46-.01.7-.03.24-.04.48-.1.62-.13l2.05-.5 7.87-2.05 1.8-.33c1.56-.46 3.4-.96 5-1.3l-.1.06c2.33-.7 5-1.3 6.14-1.66l-.1.06 2.85-.75-.48.17c4.07-1.15 8.28-2.25 12-3.2l-.34-.06c7.97-1.95 10.8-3 18-4.8l-.1.06c4.46-1.44 8.04-2.4 11.64-3.4s7.25-2.02 11.78-3.8c-1.13.45.52-.1.43-.04 4.22-1.55 8.54-3.7 8.45-4.03 2.9-1.5 2.38-1.2 2.82-1.3-.04-.05.55-.45 1.42-1 .85-.6 1.98-1.32 3.02-2.08-.3.25-.62.5-.94.72 2-1.4 3.94-2.93 5.7-4.65-.4.27-.8.56-1.2.8 1.44-1.3 1.67-1.43 1.87-1.54.2-.1.38-.23 1.64-1.62l-.18-.1c1.8-2 3.17-3.64 4.38-5.4a40.61 40.61 0 0 0 3.52-5.87c.58-1.23 1.08-2.5 1.58-3.78l1.38-3.8 2-5.6 2.7 4.3-.01.02 11.83 20.45 3.73 6.7.84 1.65c.23.57.46 1.13.67 1.72.42 1.17.8 2.36 1.17 3.55 1.48 4.75 2.74 9.47 3.9 14.02l.07.84c-.1.4 1.64 4.93 1.62 5.67l.64 2.1c.12.6.4 1.87.08.83.5 1.96.53 2 .95 3.4l.4 2.14 2.52 11.08 2.08 11.54.64 4.1.58 3.5c.1.42.1.74.28 1.4.38 1.18 1.45 2.07 2.66 2.3.3.05.6.08.92.06.15 0 .3-.03.47-.06l.34-.08 1.3-.3 5.34-1.25 25.3-6.1c.03.13.07.26.1.37.1.36.2.6.3.6.14.67.06.56.02.66.07-.02.23.56.34 1.08l-.08-.24.35 1.5.08-.32c.13.8-.13.24.07 1l.1-.03c.2 1.1.18 1.8.32 2.88.43 2.12.95 4.3 1.45 6.46l-.4-.1.01-.03c-.38.01-.62.04-.85.22-.07-.16-.3.04-.4 0l.01-.02c-.2.17-.5-.02-.68.14.01-.02 0-.06.05-.08-.15.05-.36.13-.4.04-.38.1-.9.16-1.13.36l.01-.03c-.12.13-.18.05-.32.13l-.02-.02c-.13.13-.44.1-.55.17l-.02-.06-.3.07.12-.01c0 .2-.25-.07-.45.1-.2.02-.34.46-.57.4-.08.1.06-.15-.08-.06-.02-.1.06-.07.01-.14-.14.07-.26-.05-.43.05l-.02-.07c-.2.18-.47-.01-.6.15-.23.1-.2-.2-.44.01l-.12-.08c-.1.01-.06.14-.2.1 0-.06-.16-.02-.1-.1-.3-.04-.53.25-.93.15-.06.14-.25.1-.3.2-.02-.05-.37.06-.18-.1.02-.01.05-.02.05 0l.01-.08c-.23-.1-.36.15-.57.17.07.01.14-.01.1.05l-.2.03.03-.07-.3.02.05.07c-.15-.01-.22-.13-.36.01-.06.07.15.08.01.13a3.52 3.52 0 0 0-.73-.01c.04.08-.03.1-.1.12l.02.05c-.23.15-.12-.14-.36-.01l.01-.06-.04.17c-.2.2-.15-.13-.36.12.1-.03.08.15-.05.14l.02-.08c-.06.03-.08.06-.13.06.03-.05 0-.1-.1-.08l.05-.1-.16.17c-.16-.05-.37.1-.45 0 0 0-.32.01-.37.13.05-.08-.13-.07-.1-.16-.07.1-.3.2-.4.14l.02-.01c-.37-.02-.58.23-.92.2.03.08-.14.07-.08.17-.3.17-.64-.1-.7.25-.15.05-.2-.04-.27-.05l.03-.02c-.27.08-.35.1-.56.13-.1.05-.08.2-.28.2.05-.07-.03-.05-.1-.03.04-.02.05-.04-.05-.07-.01.02-.03.04-.04.05l-.01-.01c-.1.04-.1.06-.03.06 0 .01.01.02.03.04-.14-.06-.33.07-.37-.03-.34.1-.57.25-.85.35-.04-.05.02-.1.1-.15l-.2.06c-.01-.08.1-.07.17-.1-.27-.08-.48.23-.8.16l-.05.07h-.02c.01.03-.05.1-.1.1-.05-.06-.03-.16-.17-.13-.12-.04-.3.1-.45.16.08 0 .06.04.03.07-.07.02-.12-.04-.17 0l-.02-.1c.04.08-.17.13-.2.17-.05-.06.1-.08.1-.14-.28.06-.14.03-.42.1-.14.1.04.08-.01.18-.13.04-.25.13-.4.1l.06.07c-.24.1-.4.13-.58.08-1.74 1.03-.22 1-.22 1 .77.04 1.1-.27 1.97-.5.78-.1 1.02.01 1.8-.2.38-.06.78-.18 1.15-.27.15-.16.5-.1.68-.24l.1.05c.07-.05.15-.1.23-.07v.02c.1-.07.23-.07.27-.1v.02l.13-.03-.02.03a1.4 1.4 0 0 1 .55-.14l-.03-.08c.38.02.48-.18.83-.13v.02c.37-.3.7.03 1.08-.27-.05.04.03.04.03.06.2-.06.4-.12.37-.3.14-.03.13.03.16.1-.02-.07.1-.13.22-.15l-.05.04.32-.1-.1-.13c.18.01.08.16.23.1l-.02-.1c.24-.02.4.12.66.16.96-.14 1.93-.63 2.85-.6l.06.08c.04.12.2-.23.26-.12l.1-.08c.03.02.1.03.05.07.1-.01.1-.03.16-.1l.12.06c.4-.01.68-.23 1.08-.27.5.07 1.37-.25 1.87-.44.7-.33 1.63.01 2.33-.35.03.01.08-.04.08-.05l.68-.1s.68-.12 1.17-.3l.3 1.28-.18.3c-.15.27-.33.54-.5.8-.7 1.07-1.48 2.1-2.5 3.1-1.3 1.12-3.25 2.64-5.5 3.73-1.12.55-2.3 1.02-3.44 1.33a13.85 13.85 0 0 1-3.11.6c-1.28.12-2.62-.07-3.9-.54-1.3-.5-2.44-1.25-3.7-2.1-.35-.22-.6-.42-1.2-.64-.3-.1-.55-.12-.84-.12a2.8 2.8 0 0 0-.93.16c-.07.03-.14.07-.2.1-.03-.08-.07-.17-.1-.24-.4-1.12-.7-1.9-.8-1.67-.03.16-.05.88.3 2.33-.22.22-.4.5-.48.8-.06.15-.08.3-.1.47l-.05.33c-.03.2-.04.4-.06.58-.14 1.54-.1 3.02.06 4.44-.02.2.07.66.1.66.1 1.73.25 3.46.47 5.18 0 0 .2 1.56.6 3.6.4 2.04 1.03 4.47 1.72 6.38.25.63.7 1.07 1.15 1.32s.86.34 1.2.36c.68.02.92-.17.74-.26-.1-.08-.45-.12-.88-.35.28.08.58.12.86.1l3.68-.55c-9 2.27.28 1.25.28 1.25 5.56-.5 8.35-1.33 14.9-2.4 5.78-.78 7.35-.74 13.32-1.74 2.86-.4 5.9-.9 8.68-1.36 1.3-.4 3.66-.54 5.2-.95l.62.03c.53-.14 1.16-.27 1.7-.3l-.03.04c.8-.2 1.7-.3 2.1-.4l-.03.04.98-.16-.16.07c1.4-.3 2.84-.52 4.13-.67l-.13-.13a29.25 29.25 0 0 0 3.2-.46l1.37-.23.76-.1a7.42 7.42 0 0 0 .44-.05c.2-.03.42-.07.64-.14l-.04.05c1.12-.5 1.76-1.64 1.72-2.64.03-.2-.02-.46-.04-.62zM177.28 280.47c-.42.7-4.33 2.3-10.12 4.36 4.63-1.82 7.53-3.15 9.05-4.12.27-.18.5-.37.6-.5.08-.2.16-.35.22-.48.03-.07.04-.1.06-.16-.06.22-.1.4-.13.55-.06.3-.1.4.1.2.18-.22.53-.98 1.02-2.34-.38 1.34-.66 2.2-.8 2.47zm87.4-68.16l.3-.85-.28.92c0-.03-.01-.05-.02-.07zm46 189.9c-.08-.44-.2-.97.02-.34.03.08.06.23.03.22l.04.04c-.03.02-.05.05-.1.08z"/><path d="M282.95 405.56c-.36-1.93-.73-3.32-1.17-4.87l-.9.48.08.37.03-.25c.35 1.15.5 1.85.62 2.66 2.77 8.53 1.35 1.6 1.35 1.6zm25.55-14.6h0l.08.1zM95.3 320.13c2-.4 3.42-.82 5.03-1.3l-.48-.9-.5.13.25.02c-1.16.37-1.87.54-2.68.67-8.6 2.94-1.6 1.38-1.6 1.38zm183.4 73.1l-.06-.4c-.01 0 0 .1.06.4zm10.28-2.18c-.03.01-.05.02-.08.02l.08-.02zm14.26-4.6l.28-.08-.28.08zm-26.18-33.07l.02.06c-.02-.05-.02-.06-.02-.06zm-2.04 27.18l.1.01c-.01-.02-.04-.02-.1-.01zm25.4-5.9c.01 0 .02-.01.02-.01-.01 0-.02 0-.02.01zm-21.25 6.14h0c-.01.01-.02.01-.03.02l.03-.02zM107.8 315.6l.4-.07c.01-.01-.1 0-.4.07zm2.27 10.64l-.03-.08.03.08zm164.63-88.72l-.43-1.15c-.01.03.1.32.43 1.15zm-158.85 113.7c-.01-.03-.01-.05-.02-.07l-.1-.32.1.4zm5.67-39.22l-.01.12c.02 0 .03-.04.01-.12zm6.52 29.47c0 .01.01.02.01.03l-.01-.03zm-6.67-24.7c-.01-.02-.01-.03-.02-.03l.02.03zm86.13-89.64l-.1.37c.01-.01.05-.1.1-.37zm-48.13 74.28l-.08.03.08-.03zm43.8-59.95l.01-.02v-.1zm11.8-16.97c-.01 0-.01.01-.02.01.02 0 .02-.01.02-.01zm40.8 68.5l.08.24c.01 0 0-.07-.08-.24zm3.42 9.33v-.01l-.04-.05.05.06z"/><g fill="#fff"><path d="M287.4 377.37h0l.03-.06z"/><path d="M306.92 373.15l.02-.03c-.66.08-1.07.16-1.5.4-.1-.15-.54.1-.7.1h.01c-.36.22-.84.08-1.2.28.01-.02.01-.06.1-.1-.27.1-.64.2-.7.12-.66.18-1.6.35-1.98.6l.02-.03c-.22.16-.3.1-.57.2-.02-.01-.04-.01-.04-.02-.24.17-.76.2-.97.3l-.03-.06-.52.14.2-.03c-.03.2-.42-.02-.78.18-.36.06-.64.54-1.02.54-.16.12.12-.17-.12-.05-.03-.1.1-.1.02-.15-.25.1-.45 0-.75.14l-.03-.07c-.4.23-.8.1-1.05.28-.42.16-.34-.15-.75.1l-.2-.06c-.2.03-.1.15-.33.15 0-.06-.28.01-.17-.07-.5.01-.94.36-1.6.35-.1.15-.44.15-.53.27-.03-.05-.64.14-.3-.06.03-.02.08-.03.08-.01l.03-.08c-.4-.05-.64.23-1 .3.1 0 .25-.04.17.03l-.33.07.05-.08-.5.08.1.06c-.25.02-.36-.1-.6.08-.1.1.25.05 0 .13l-1.25.13c.06.07-.05.1-.16.14l-.03-.07c-.4.2-.2-.12-.6.06l-.05.12c-.36.23-.25-.1-.64.2.17-.05.12.14-.1.16l.04-.08c-.1.04-.15.08-.23.08.06-.05.01-.1-.16-.06l.1-.1-.3.2c-.27-.02-.65.17-.77.1 0 0-.55.08-.65.2.1-.1-.2-.05-.14-.15-.12.1-.52.27-.7.22l.03-.02c-.63.06-1.02.36-1.6.38.04.08-.26.1-.16.2-.54.24-1.1.02-1.22.4-.25.08-.32-.01-.46.01l.06-.03-.98.25c-.17.07-.16.24-.5.27.1-.1-.04-.04-.16-.02.07-.03.1-.06-.07-.06-.02.02-.05.04-.08.06l-.01-.01c-.2.07-.16.08-.06.07 0 .01.01.02.04.03-.23-.03-.58.14-.63.04-.6.16-1 .37-1.5.53-.07-.04.04-.12.18-.17l-.35.1c-.02-.08.2-.1.3-.13-.45-.03-.85.33-1.37.33l-.1.1h-.03c.01.03-.1.1-.16.13-.1-.05-.03-.16-.28-.1-.2-.02-.55.16-.8.26.14-.02.1.03.05.07-.12.03-.2-.02-.3.03l-.03-.1c.07.08-.3.17-.34.22-.1-.05.18-.1.2-.16l-.74.18c-.25.13.07.08-.04.2-.23.07-.44.2-.72.2l.1.06c-.42.16-.7.22-1 .2-3.1 1.42-.48 1.07-.48 1.07 1.33-.12 1.93-.5 3.45-.93 1.35-.27 1.75-.2 3.13-.58l2-.5c.28-.2.85-.2 1.2-.4l.16.04c.12-.06.26-.12.4-.1v.02c.18-.1.4-.1.48-.16v.02l.23-.06-.03.04a4.35 4.35 0 0 1 .95-.26l-.04-.08c.66-.05.85-.28 1.45-.3v.02c.67-.4 1.18-.1 1.88-.5-.1.05.05.03.05.06.34-.1.7-.2.67-.37.25-.06.22 0 .26.06-.02-.07.2-.15.4-.2l-.08.05.56-.15-.14-.1c.3-.03.1.15.4.05l-.03-.1c.42-.07.7.04 1.12.04 1.67-.34 3.38-1.04 4.97-1.2l.1.07c.06.12.38-.28.47-.18l.17-.1c.06.01.17.01.08.06.17-.03.17-.05.28-.12l.2.04c.67-.1 1.2-.37 1.9-.5.86-.03 2.4-.54 3.26-.83 1.22-.48 2.8-.32 4.04-.83.05.01.15-.06.14-.07l1.2-.26c-.03-.02 5.7-1.3 1.1-1.33zm-52.52-82.57c-.15-.28-.17-.47-.3-.67l.07-.07c-.02.15-.46-.68-.55-.77-.02-.2.28.4.36.45l-.87-1.66c-.37-.56-.02.15-.24-.1l-.87-1.62.02.23c-.57-.95-.86-1.55-1.13-2.25-4.42-7-1.63-1.1-1.63-1.1 1.33 2.97 2.32 4.34 4.15 7.75l.78 1.6 1.02-.6-.77-1.3c.14.3.05.23-.04.1z"/><path d="M272.2 337.33c-.1.1.43 1 .35 1.17l.16.43c.01.13.04.4-.04.18.08.36.1.42.2.62l1.03-.3-.12-.36v-.45c-.1-.47-.2-.3-.28-.84.07.02-.1-.67.02-.38-.18-1.2-.7-2.37-.9-3.96-.2-.3-.32-1.1-.47-1.34.04-.05-.37-1.57-.04-.72.03.07.06.2.03.2l.1.1c-.08-.92-.46-1.6-.66-2.48.04.27.13.6.03.4l-.2-.82.1.15-.23-1.06-1.13.65 2.1 8.62-.03.2zm4.42 18.17l.9-.35-.12-.33.04.07c-.24-.57-.2-.77-.4-1.42 0-.04 0-.1.01-.08-.25-.62-.45-1.9-.62-2.4l.06-.05-.3-1.3.1.5c-.22-.13-.1-1-.44-1.9-.08-.4-.25-.77-.4-1.15l-.86.28 1.45 5.67.6 2.47zm-14.18-49.34c-.3-.58-.28-.73-.4-1.04l.1.13-1.14-2.22c-.23-.4-.4-.38-.74-1.13.18.2.01-.1-.12-.36.1.17.14.2 0-.16-.04-.04-.1-.1-.14-.18 0-.01 0-.02.01-.02-.25-.44-.23-.36-.13-.14-.01-.01-.02.02 0 .1-.17-.5-.67-1.3-.6-1.42l-1.54-2.7-.97.56.1.2 2.36 4.54c.46.64.97 1.92 1.48 2.7l.1.35a4.54 4.54 0 0 1 .47.9l-.03-.01c.26.4.47.9.6 1.1l-.03-.01.05.1 1.1-.63c-.16-.3-.32-.52-.5-.63zm15.86 57.14l.64 2.92s3.13 14.14 1.76 3.17l.04.07c-.3-1.6-.5-2.62-.9-3.7.13-.2-.28-1.3-.3-1.7l.02.03c-.2-.5-.28-1.07-.37-1.6l-1.04.34.03.1c.01.1.1.36.12.36zm-9.55-43.93l.12.1c-.13-.28-.2-.36-.25-.55.1.15.13.05-.04-.36l.2.25-.45-.72c-.2-.62-.7-1.5-.7-1.8 0 0-.54-1.26-.77-1.5.18.22-.12-.48.05-.32-.22-.3-.73-1.2-.84-1.62l.04.07-.45-.98-1.12.65.23.54-.03-.01c1 1.55 1.1 2.68 2.1 4.3-.12-.2 0 .1-.03.1.38.78.76 1.62.9 1.56.23.58.14.5.1.6.06-.03.32.45.45.92l-.1-.2.32 1 .92-.57c-.15-.44.06-.37-.4-1.2.16.42-.1.26-.26-.26zM129.3 347.3c.15-.12-.12-.62-.1-.8h.02c-.23-.43-.1-.97-.3-1.38.02.01.07.01.1.1-.1-.32-.23-.75-.13-.8-.2-.76-.4-1.84-.65-2.3l.03.03c-.17-.26-.1-.36-.22-.66.01-.02.01-.04.02-.04-.17-.28-.2-.9-.3-1.12l.06-.03-.15-.6.04.23c-.2-.04.01-.48-.2-.9-.07-.42-.56-.75-.56-1.2-.13-.2.18.15.04-.14.1-.03.1.13.15.03-.1-.3-.01-.5-.16-.87l.07-.03c-.24-.45-.1-.93-.3-1.22-.17-.48.14-.38-.1-.87l.05-.22c-.03-.23-.16-.13-.16-.4.07 0-.02-.32.07-.2-.03-.58-.4-1.1-.38-1.87-.16-.13-.17-.52-.28-.62.05-.03-.15-.74.05-.35.02.03.03.1.01.1l.08.03c.04-.45-.24-.74-.3-1.16 0 .13.05.3-.03.2l-.08-.4.08.07-.1-.58-.06.1c-.02-.3.08-.42-.1-.7-.1-.13-.04.3-.13 0l-.16-1.45c-.07.06-.1-.07-.15-.2l.07-.03c-.2-.48.12-.22-.07-.7l.06.03-.18-.1c-.24-.42.1-.28-.2-.74.06.2-.14.13-.16-.12l.08.05c-.04-.13-.08-.17-.1-.27.06.07.1.02.06-.18l.12.1-.2-.35c.01-.3-.2-.75-.1-.9 0 0-.1-.64-.23-.76.1.1.04-.24.15-.16-.1-.15-.28-.6-.24-.82l.02.03c-.07-.73-.38-1.2-.42-1.85-.08.05-.1-.3-.2-.2-.25-.64-.05-1.25-.43-1.42-.08-.3 0-.37-.02-.53l.03.07-.28-1.14c-.08-.2-.24-.2-.3-.58.1.1.04-.04.01-.18.03.1.06.1.06-.08-.02-.02-.05-.06-.06-.1h.01c-.07-.23-.08-.18-.07-.07-.01 0-.02.01-.03.05.03-.26-.15-.67-.05-.73-.18-.7-.4-1.17-.57-1.75.04-.08.12.05.18.2l-.1-.4c.08-.01.1.23.14.35.02-.52-.35-1-.36-1.6l-.1-.1v-.04c-.03.01-.1-.1-.14-.2.05-.1.16-.03.1-.3.02-.24-.17-.64-.28-.92.02.16-.03.12-.06.06-.03-.14.02-.24-.04-.34l.1-.03c-.07.08-.18-.35-.23-.4.05-.1.1.2.17.23l-.2-.86c-.14-.3-.07.07-.2-.05-.08-.27-.2-.52-.2-.84l-.06.12c-.18-.5-.23-.8-.23-1.16-1.5-3.64-1.1-.6-1.1-.6.15 1.53.56 2.25 1 4 .3 1.57.23 2.02.66 3.62l.56 2.34c.2.33.22 1 .42 1.4l-.03.18c.07.14.13.3.12.46h-.02c.1.2.12.46.17.56h-.02l.07.26-.04-.04a5.39 5.39 0 0 1 .28 1.1l.08-.05c.07.76.3 1 .34 1.68h-.02c.4.8.14 1.36.54 2.18-.05-.1-.03.06-.06.05.1.4.22.82.4.8.06.3 0 .25-.06.3.07-.02.16.23.2.45l-.05-.1.17.65.1-.16c.04.35-.15.12-.04.45l.1-.03c.08.48-.03.8-.01 1.28.37 1.93 1.12 3.93 1.3 5.76l-.07.1c-.12.06.3.45.2.55l.1.2c-.01.06-.01.2-.06.1.04.2.06.2.13.32l-.03.22c.1.77.4 1.38.54 2.2.05 1 .6 2.77.9 3.8.5 1.42.38 3.23.93 4.68-.01.05.06.17.07.17l.28 1.37s1.42 6.65 1.34 1.38l.03.03c-.1-.8-.18-1.26-.43-1.75zm110.5-67.17c-.02 0-.05.04-.1.2l.1-.2zm3.84-7.23h0c0 .02-.01.04-.01.06l.01-.07z"/><path d="M261.84 222.2c.05-.08.1-.3.07-.3l.87-2.36s4.2-11.45.04-3.1v-.07c-.53 1.27-.84 2.08-1.03 3.02-.2.08-.4 1.06-.56 1.34v-.03c-.16.83-.7 1.6-.86 2.4 0-.03-.04-.07.02-.24-.18.56-.42 1.33-.53 1.34l-1.32 4.07-.01-.07c-.07.52-.2.63-.36 1.2-.02.03-.04.06-.05.05-.1.56-.54 1.54-.65 1.98h-.07l-.37 1.05.16-.4c.12.2-.4.75-.56 1.56-.28.7-.16 1.57-.52 2.28-.05.38-.02-.36-.15.2-.1-.02.03-.27-.1-.16-.14.53-.4.82-.57 1.48h-.08c-.17.88-.66 1.54-.74 2.14-.25.88-.42.5-.6 1.44l-.22.3c-.15.38.02.32-.18.72-.05-.05-.24.52-.2.25-.44.93-.57 2-1.2 3.2.02.32-.28.93-.27 1.17-.06.02-.47 1.27-.32.52.01-.06.05-.17.07-.16l-.04-.1c-.4.67-.4 1.34-.68 2.04.1-.2.2-.5.17-.28l-.25.66-.01-.16-.4.98.12-.1c-.2.47-.4.6-.5 1.18-.03.27.26-.42.1.1l-1.03 2.4c.1-.05.03.17-.04.4h-.08c-.22.9-.27.27-.5 1.16v-.1l.06.28c-.14.83-.3.37-.42 1.3.1-.35.2-.1.03.3l-.03-.13c-.07.24-.07.33-.14.48.01-.15-.07-.1-.2.24v-.26l-.1.7c-.26.48-.45 1.3-.62 1.48 0 0-.44 1.07-.42 1.35.01-.24-.23.35-.24.15-.03.3-.27 1.16-.47 1.46l.01-.07c-.52 1.2-.65 2.14-1.15 3.2.1-.02-.16.54 0 .44-.3 1.18-.96 2-.8 2.53-.17.52-.3.6-.4.85l.03-.13-.7 1.98c-.1.37.03.48-.24 1.1.02-.23-.07.04-.16.28.05-.16.04-.2-.1.1a.74.74 0 0 1-.03.19c-.01 0-.01.01-.02 0-.12.4-.08.35-.01.16.01.01.02 0 .06-.05-.23.4-.42 1.17-.54 1.18l-.95 3.15c-.1.1-.05-.16.03-.46l-.24.72c-.07-.03.1-.43.17-.65-.43.8-.5 1.8-1 2.76l-.02.23-.03.06c.03.01-.01.25-.05.4-.12.12-.15-.06-.32.43-.2.37-.37 1.12-.52 1.65.1-.27.12-.17.1-.04-.1.25-.2.37-.25.57l-.1-.01c.12-.07-.14.68-.14.78-.12.12.08-.4.05-.48l-.53 1.5c-.12.55.12-.07.1.22-.15.47-.25.95-.5 1.47l.14-.14c-.26.9-.46 1.42-.75 1.98-1.72 6.77.38 1.7.38 1.7 1.1-2.5 1.36-3.92 2.4-7l2.37-6.15 1.43-4.07c.1-.66.62-1.7.78-2.47l.17-.26c.06-.26.14-.57.27-.8l.01.02c.08-.4.27-.8.3-1v.02l.16-.46v.1c.18-.68.42-1.35.66-1.94l-.1.02c.55-1.24.55-1.77 1.08-2.88v.02c.3-1.53.98-2.24 1.32-3.8-.04.2.07-.06.1-.04.23-.7.48-1.44.32-1.5.18-.5.2-.4.28-.43-.07-.02.06-.47.2-.86l-.04.2.38-1.13-.2.17c.25-.58.22-.1.4-.68l-.1-.03c.32-.82.66-1.24 1.03-2 1.25-3.3 2.26-6.97 3.57-9.98l.13-.1c.14-.02.13-.92.28-1l.07-.38c.06-.1.16-.3.12-.1.12-.33.1-.35.16-.6l.2-.33c.53-1.3.8-2.45 1.32-3.82.75-1.6 1.74-4.77 2.3-6.6.82-2.6 2.36-5.35 3.1-8zm-60.14 26.2l-.3 1.43v-.03l-.18.85v-.15l-.77 3.6.1-.07-.64 2.77 1.22.4.65-2.87c-.1.07.2-1 .02-.76.37-2.15 1.1-3.82.93-4.66l.07-.3-1.1-.18zm-4 18c.06-.35-.08.14-.1.1-.28 1.28-.6 2.65-.44 2.7-.17.66-.22.76-.27.8l.82.63.07-.25.02.22.2-.88c-.03.27.07.16.2-.48l-.02.45.17-1.24.76-2.78.53-2.5c-.02.3.12-.17.2-.35l-1.22-.4-.93 3.95zm-14.68 25.5l.36 1.15c1.48-.76 2.9-1.77 4.7-3.04l1.26-1.23-.85-.65c-1.66 1.57-3.55 2.83-5.46 3.77zm20.18-50.45c-.04.37-.12.8-.22 1.3l1.07.17c.02-.25.07-.57.2-1.1-.02.4.07-.1.17-.54-.05.3-.05.38.12-.2 0-.1.02-.22.03-.34.01 0 .01-.03.02-.01.14-.76.1-.63.01-.28-.01-.02-.02.01-.06.1.25-.76.47-2.17.6-2.25l.45-2.33-1.18-.2-1.2 5.66zm-6.9 35.42l-.95-.73-.76 1.93c-.6 1.9-1.42 3.8-2.47 5.54l.97.74.8-1.33-.2.2c.5-.8.7-1.08 1.08-2.08.15-.46-.47.77-.07-.14a34.59 34.59 0 0 0 1.6-4.12zm-24.44 19.5l-.43.12.27.87c.67-.2 1.27-.32 2.17-.7l.07.05c1.46-.65 2.88-.9 3.82-1.4l.24-.1-.3-1-5.83 2.15zm-5.96 1.87l-7.47 2.52.26.85.56-.2c.06 0 .13-.02.12-.01.93-.4 2.8-.9 3.56-1.18l.07.05 1.9-.62-.72.2c.15-.2 1-.3 2.02-.6l-.3-1zm-30.2 10.62l-.1.06 4.27-1.32-.3-1.02c-3.77 1.2-18.02 5.76-3.86 2.28zm9.57-4.1a.94.94 0 0 0-.18.06l.32 1.03 2.47-.77c-.05.03-.07.08-.38.2l2.48-.74 3.24-1.04-.33-1.08-7.62 2.35zm81.1-84.4h-.01v.07z"/><path d="M233.3 209.93c-.55 1.08-.84 1.28-1.4 2.38l-.96 1.53c-.06.3-.45.6-.57.94l-.13.06c-.04.1-.1.22-.22.28l-.01-.02c-.07.16-.22.28-.25.37l-.01-.02-.13.16v-.05c-.15.26-.34.5-.55.66l.08.04c-.47.33-.5.6-.94.9v-.02c-.33.6-.88.55-1.24 1.16.05-.08-.05-.01-.06-.03-.23.2-.5.4-.4.55-.18.13-.18.07-.24.03.05.06-.1.2-.24.3l.05-.07-.4.32.16.06c-.24.12-.15-.1-.34.08l.07.1c-.33.17-.62.14-.97.25-1.27.75-2.63 1.68-4 2.03l-.1-.06c-.07-.1-.3.3-.38.22l-.13.1c-.05-.01-.15 0-.08-.05-.14.05-.14.07-.23.14l-.18-.02c-.57.16-1 .42-1.6.58-.76.06-2.08.5-2.87.73-1.1.38-2.47.02-3.6.28-.04-.01-.13.03-.13.04-.35 0-.7.01-1.06-.01l-2.02-.01.16-.95c-.12.5-.12.34-.1.1.1-.46.22-.7.27-1.08l.1-.02c-.13.16.16-1.23.16-1.4.12-.25-.1.73-.07.85l.58-2.78c.14-1-.13.16-.1-.33l.55-2.73-.15.3.8-3.72.6-4.3h-.6l-.06.24-.32 1.3c-1.2 4.77-1.47 7.3-2.62 13.02l-1.8 7.75 1.23.2c.13-.74.27-1.5.5-2.28l.02-.4.03-.1c-.03 0 .01-.43.06-.7.12-.25.15.05.35-.87.1-.36.2-.88.3-1.43.2.1.48.2.82.32l-.03.03c.6.1 1 .13 1.4-.01.07.18.5.01.64.07l-.01.01c.37-.13.77.1 1.12-.05-.01.01-.02.06-.1.07.26-.04.6-.1.64 0 .62-.08 1.5-.13 1.86-.35l-.02.03c.2-.14.3-.06.53-.15.02.01.03.02.03.02.22-.14.7-.15.9-.23l.03.06.48-.1-.18.02c.02-.2.4.04.7-.16.33-.06.56-.53.9-.52.13-.13-.1.17.12.04.03.1-.1.1-.01.15.22-.1.4-.02.67-.17l.03.07c.33-.25.73-.1.94-.32.36-.2.33.12.67-.16l.2.04c.17-.05.08-.16.28-.18.01.06.25-.04.17.06.46-.06.8-.5 1.4-.56.07-.16.37-.22.42-.34.04.04.54-.26.3 0-.02.02-.07.04-.07.02v.08c.36-.03.52-.35.82-.48-.1.02-.2.1-.16 0l.28-.13-.03.08.43-.18-.1-.04c.22-.07.36.01.52-.22.07-.1-.24.02-.04-.12a11.11 11.11 0 0 0 1.07-.46c-.08-.05.01-.1.1-.18l.05.06c.3-.3.23.07.52-.24v-.13c.22-.34.25.01.47-.4-.12.1-.16-.1.02-.18v.1c.08-.08.1-.12.16-.15-.03.07.03.1.16 0l-.03.14.17-.3c.25-.07.48-.4.6-.38 0 0 .42-.3.44-.46-.03.12.2-.04.2.07.05-.15.3-.45.48-.5l-.02.03c.48-.34.62-.78 1.07-1.08-.08-.04.15-.2.02-.23.28-.47.8-.6.68-.96.14-.2.25-.17.35-.25l-.02.06c.27-.37.33-.5.55-.75.08-.16-.04-.27.17-.5-.01.12.06.01.12-.08-.04.06-.03.1.1 0 0-.03.01-.06.02-.1 0 0 .01 0 .02.01.1-.17.05-.15 0-.1-.01-.01-.02-.01-.05 0 .17-.12.3-.46.4-.42.3-.5.42-.9.6-1.32.07-.02.06.1.01.23l.15-.3c.07.04-.06.2-.1.3.3-.3.3-.77.62-1.13l-.01-.12.02-.02c-.03-.01-.02-.13 0-.2.1-.03.14.08.24-.13.15-.13.2-.48.26-.72-.06.1-.08.06-.08 0 .04-.1.14-.14.15-.23l.1.03c-.1.01.04-.3.02-.37.1-.03-.02.2.02.23.18-.43.1-.2.26-.65.02-.26-.1.01-.13-.13.06-.2.08-.43.22-.64l-.1.05c.07-.4.17-.63.33-.86v-.06h-1.03c-.3.6-.38 1.18-.73 2.1z"/></g><path d="M80.26 336.52l-.02-.07c.01.05.02.06.02.07zm-16.42 3.25l-.13.42c.02 0 .06-.1.13-.42zm20.26-13.05l.03-.1-.03.1zm-19.86 8.9l-.1.35c.02-.01.05-.1.1-.35zm4.23.5l.01-.08c-.01.05-.01.07-.01.08zm5.23-11.63l.04.03c0-.02-.01-.03-.04-.03zm8.3-4.74v-.01zm-6.55 5.66h0l-.01.01zm5.53 22.2zm.92 10v-.04c0 .01-.01.02 0 .04zm-4.7-4.02zm4.74 2.5h.01z"/><g fill="#fff"><path d="M72.2 316.2l.12-.64.07-.34.03-.13c.1-.25-.03-.22-.43-.28h.1l-2.47-.43c-.6-.12-1.13.16-1.48.4-.28.2-.46.4-.6.6-.12.2-.2.4-.26.6l-.54 3-.28 2.52c-.27 1.02-.44 1.94-.65 3.48l.14-.28c-.22.93-.3 1.74-.43 2.56 0 .46.22-.63.12.3l-.45 2.6c-.03-.12.14-1.03.03-.8.01.17-.22 1.47-.1 1.3l-.1.02c-.03.34-.14.58-.22 1-.01.2 0 .38.1-.1l-.44 2.85c-.15.87-.2.6-.3.82-.04.26-.06.66-.03.66l-.03.1v.37c-.43 1.73-.45 3.36-.85 4.83.05-.4.2-1.1.14-1.12l-.2 1.26c.07-.52.1-.94 0-.75l-.8 5.44c-.12.07-.27 1.4-.48 2.1.04-.1.05-.12.06-.1.07-.33.1-.45 0 .26 0-.01-.01.01-.02.01-.01.1-.02.24-.01.32-.14.55-.15.46-.1.2-.08.42-.15.9-.14.5-.24 1.12-.1 1.25-.18 1.9l-.6 3.46.02-.22c-.1.47-.23.62-.37 1.53.2.78-.4 2.37-.66 4.38.15-.23-.07.78.03.7-.45 1.9-.52 3.47-1 5.6l.01-.1c-.2.57-.38 2.03-.4 2.54-.03-.3-.24.73-.24.34.03.46-.35 2.34-.35 2.34-.16.34-.32 1.76-.55 2.63l-.07 1.17-.02-.42c-.1.6-.18.7-.18.46-.06.27-.06.43-.1.8-.02-.05-.03-.12-.04-.2-.14.67.13.8.08.4.1.54.22.6.25.74.05.1.1.3.55.4a1.42 1.42 0 0 0 .29-.1l-.1.04c.03 0 .07.01.1.01l.07.01c1.2.12.43.26 1.82.3l.01.08c.07 0 .13 0 .14-.02-.01-.03-.02-.05-.05-.07l.85-3.64c.15-.9-.13.33-.1-.12.08-.97.26-1.25.46-2.08l-.12.22.37-1.72.01.25.23-1.16c.01-.34-.07.15-.17.52.26-1.24.25-2.3.62-3.55l.04.16c-.02-.02-.06.17-.07.28-.12 1.27.25-.9.3-.96-.02-.38.26-1.47.23-1.98.6-2.18.68-3.95 1.1-5.6-.02.45.15-.54.2-.48.2-.73.02-.57.16-1.23l.22-.6c.16-1.6.34-1.04.57-2.56.06-1 .54-2.24.68-3.72l.08-.03c.15-1.13.4-1.68.53-2.6.12-.22 0 .23.1.22.1-.93.1.27.14-.36.34-1.28.18-2.63.44-3.87.14-1.35.65-2.44.52-2.72l-.15.68.34-1.84.07-.04.6-3.44c0 .01.02-.05.05-.1.13-.96.27-1.2.32-2.05l.01.1c.13-1.5.8-4.74 1.2-7.05.1-.05.33-1.4.5-2.36-.06.3-.01.34-.01.4.14-1.35.66-2.77.8-4.17v.05c.16-.52.3-2.16.53-2.37l.38-2.37zm3.97 9v.02c.07-.07.16-.06.2-.1v.02l.1-.03-.01.03a.74.74 0 0 1 .39-.14l-.03-.08c.3.02.33-.17.6-.14h0c.22-.3.52 0 .75-.33-.03.04.03.04.04.06.13-.08.27-.14.2-.3.1-.04.1.01.14.07-.03-.07.04-.14.12-.17l-.02.04.2-.12-.1-.1c.13-.02.1.14.2.06l-.05-.1c.17-.06.34.04.54.03.7-.33 1.1-1.06 1.7-1.38l.08.04c.1.08-.01-.27.1-.2l.01-.1c.03 0 .08-.02.08.03.05-.05.04-.06.05-.13h.1c.23-.18.27-.45.47-.67.35-.18.6-.83.73-1.2.1-.54.85-.85.9-1.45.02-.01.01-.07-.01-.07l.22-.45c.04 0 .9-2.22-.72-.9l-.02-.02c-.16.2-.24.35-.18.57-.17-.04-.1.18-.18.22h-.01c.06.2-.24.24-.2.43-.01-.01-.05-.04-.04-.07-.03.1-.06.26-.16.22-.1.24-.3.54-.26.76v-.02c.04.14-.05.1-.06.23H82c.04.15-.14.27-.15.36l-.06-.03-.1.18.05-.06c.14.12-.18.07-.17.26-.1.1.14.45-.02.52.03.1-.07-.13-.08-.01-.08-.05-.02-.08-.1-.1-.03.1-.18.08-.2.22l-.06-.04c0 .2-.27.17-.24.34-.06.17-.24-.06-.24.17l-.12-.02c-.06.04.05.12-.04.15-.04-.05-.1.04-.12-.04-.2.06-.16.37-.46.4.04.13-.1.15-.07.25-.04-.04-.2.15-.16-.03 0-.02.02-.03.03-.01l-.03-.07c-.18-.01-.14.2-.26.27.05 0 .1-.04.1.02l-.1.06-.02-.07-.17.08.06.05c-.1.02-.2-.07-.22.08-.01.07.13.05.06.1-.13.02-.33.03-.47.1.05.07.02.1-.01.12l-.04-.06c-.1.17-.12-.12-.24.02l-.01-.05.03.16c-.08.2-.14-.1-.2.15.06-.04.1.14.01.14l-.01-.07c-.04.03-.04.07-.07.07.01-.05-.03-.1-.08-.06v-.1l-.07.17c-.12-.04-.23.1-.3.03 0 0-.2.03-.22.15.02-.08-.1-.07-.1-.15-.03.1-.16.2-.25.14l.01-.01c-.25-.01-.36.23-.6.2.03.08-.1.07-.03.17-.2.17-.45-.12-.45.23-.1.04-.14-.05-.2-.06l.02-.02a1.34 1.34 0 0 1-.38.1c-.06.05-.04.2-.18.2.03-.07-.02-.05-.07-.04.03-.02.03-.04-.04-.07-.01.02-.02.04-.03.05-.07.02-.06.03-.02.04 0 .01.01.02.02.04-.1-.06-.23.04-.26-.06-.23.06-.4.2-.58.27-.03-.05.01-.1.06-.14l-.14.04c-.01-.08.08-.06.12-.08-.2-.1-.33.18-.55.08l-.03.07-.01-.01c0 .03-.04.08-.06.1-.04-.07-.02-.16-.1-.15-.08-.06-.22.06-.32.1.06.01.04.05.02.07-.05.01-.08-.06-.12-.03l-.01-.1c.03.1-.12.1-.14.15-.03-.07.07-.07.08-.12l-.3.04c-.1.08.03.1-.02.17-.1.02-.18.1-.3.05l.04.08c-.17.07-.28.07-.4-.01-.65.36-.74.58-.64.74.1.15.38.2.38.2.56.17.83-.1 1.46-.2.57-.01.74.13 1.3-.01a4.86 4.86 0 0 0 .84-.19c.1-.15.36-.07.5-.2l.07.06c.04-.06.1-.1.16-.07zm7 24.7h0l-.04.03z"/><path d="M87.34 351.47c-.12-.34-.4-.26-.72-.46-.22-.24-.18-.42-.48-.6-.1-.12-.27-.2-.4-.3-.14.05-.16-.13-.3-.1l.02-.08c-.05.01-.1 0-.1-.05l.01-.01c-.07.01-.1-.05-.12-.04l.02-.01-.05-.03.03-.02c-.1-.01-.16-.06-.2-.13l-.06.08c-.05-.17-.2-.07-.25-.25l.02-.01c-.28.06-.1-.3-.4-.25.03-.01.02-.04.04-.06-.08-.04-.16-.08-.27.05-.04-.04 0-.07.03-.13-.05.06-.1.05-.15.02h.04l-.12-.07-.07.12c-.03-.08.1-.14.02-.16l-.08.1c-.06-.08.01-.26-.01-.38-.27-.3-.8-.35-.95-.75l.04-.08c.08-.1-.2.08-.14-.02l-.07.02c.01-.03 0-.06.04-.07-.03-.03-.04-.01-.1 0l.02-.1c-.08-.15-.28-.12-.4-.25-.05-.25-.43-.4-.65-.46-.36-.05-.3-.67-.68-.7 0-.02-.04-.01-.05 0l-.2-.2s-1.03-.94-.9.56l-.02.02c.08.15.14.23.3.2-.1.14.1.1.08.16v.01c.16-.04.08.2.23.18-.01.01-.04.04-.06.03.07.03.16.06.1.14.14.08.28.27.46.2h-.02c.1-.04.07.04.15.04-.01.01-.01.02-.01.02.12-.04.15.1.22.1l-.04.05.1.07-.03-.04c.13-.13 0 .15.15.12.05.07.38-.18.4-.05.1-.04-.12.08-.03.07-.06.07-.06.03-.1.1.08.01.01.14.12.14l-.05.06c.17-.04.08.2.22.14.12.02-.1.2.1.17l-.03.1c.02.04.1-.07.1 0-.04.05.02.08-.05.1.02.15.27.05.28.27.1-.07.12.03.2-.02-.03.04.1.1-.03.14-.01 0-.02-.01-.01-.02l-.06.05c-.02.16.17.05.22.12 0-.04-.03-.05.02-.08l.05.06-.05.04.07.1.04-.07c.02.07-.05.18.07.14.06-.03.02-.1.1-.1.03.1.06.23.13.3.05-.07.07-.05.1-.05l-.05.06c.15-.01-.08.15.06.16l.08-.07c.17-.05-.06.15.15.07-.04-.02.1-.14.1-.08l-.06.05c.03.01.06-.01.06.01-.04.02-.07.07-.04.1l-.08.05.15-.05c0 .1.13.1.1.18 0 0 .07.12.16.06-.06.04-.03.1-.1.15.08-.04.2-.02.17.07h-.01c.06.16.27.08.3.24.05-.07.07.01.13-.08.18.01.05.34.3.1.06.03 0 .1.02.14h-.02c.1.06.14.08.2.14.05 0 .16-.1.2-.03-.06.03-.03.04-.01.06-.02 0-.04.01-.04.07.02-.01.03-.02.04-.02.04.02.05 0 .04-.02.01-.01.01-.02.02-.04-.01.1.1.1.05.17.13.08.28.06.4.1-.03.05-.08.07-.12.06l.08.04c-.05.06-.07 0-.1 0-.01.17.25.04.26.2l.06-.03c.02-.03.07-.04.1-.04-.03.06-.1.12-.06.16-.01.08.12.06.2.07-.02-.03.02-.05.04-.06.02.02-.01.08.03.07l-.06.07c.05-.08.12-.02.16-.04-.03.06-.07.02-.1.05l.15.1c.1-.01.05-.08.13-.12.06.02.14.01.15.1l.04-.08c.12.02.17.07.16.18 1.04-.01.73-.6.73-.6zM82.82 357c-.22-.24-.18-.42-.48-.6-.1-.12-.27-.2-.4-.3-.14.05-.16-.13-.3-.1l.02-.08c-.05.01-.1 0-.1-.05l.02-.01c-.07.01-.1-.05-.12-.04l.02-.01-.05-.03.03-.02c-.1-.01-.16-.06-.2-.13l-.05.07c-.05-.17-.2-.07-.25-.25l.02-.01c-.28.06-.1-.3-.4-.25.03-.01.02-.04.04-.06-.08-.04-.16-.08-.27.05-.04-.04 0-.07.03-.13-.05.06-.1.05-.15.02l.04-.01-.12-.07-.07.12c-.03-.08.1-.14.02-.16l-.08.1c-.06-.08.01-.26-.01-.38-.27-.3-.8-.35-.95-.75l.04-.08c.08-.1-.2.08-.14-.02l-.07.02c.01-.03 0-.06.04-.07-.03-.03-.04-.01-.1 0l.02-.1c-.08-.15-.28-.12-.4-.25-.05-.25-.43-.4-.65-.46-.36-.05-.3-.67-.68-.7 0-.02-.04-.01-.05 0l-.2-.2s-1.03-.94-.9.56l-.02.02c.08.15.14.23.3.2-.1.14.1.1.08.16h-.01c.16-.04.08.2.23.18-.01.01-.04.04-.06.03.07.03.16.06.1.14.14.08.28.27.46.2l-.02.02c.1-.04.07.04.15.04-.01.01-.01.02-.01.02.12-.04.15.1.22.1l-.04.05.1.07-.03-.04c.13-.13 0 .15.15.12.05.07.38-.18.4-.05.1-.04-.12.08-.03.07-.06.07-.06.03-.1.1.08.01.01.14.12.14l-.05.06c.17-.04.08.2.22.14.12.02-.1.2.1.17l-.03.1c.02.04.1-.07.1 0-.04.05.02.08-.05.1.02.15.27.05.28.27.1-.07.12.03.2-.02-.03.04.1.1-.03.14-.01 0-.02-.01-.01-.02l-.06.05c-.02.16.17.05.22.12 0-.04-.03-.05.02-.08l.05.06-.05.04.07.1.04-.07c.02.07-.05.18.07.14.06-.03.02-.1.1-.1.03.1.06.23.13.3.05-.07.07-.05.1-.05l-.05.06c.15-.01-.08.15.06.16l-.04.03.12-.1c.17-.05-.06.15.15.07-.04-.02.1-.14.1-.08l-.06.05c.03.01.06-.01.06.01-.04.02-.08.07-.04.1l-.08.05.15-.05c0 .1.13.1.1.18 0 0 .07.12.16.06-.06.04-.03.1-.1.15.08-.04.2-.02.17.07h-.01c.06.16.27.08.3.24.05-.07.07.01.13-.08.18.01.05.34.3.1.06.03 0 .1.02.14h-.02c.1.06.14.08.2.14.05 0 .16-.1.2-.03-.06.03-.03.04-.01.06-.02 0-.04.01-.04.07.02-.01.03-.02.04-.02.04.02.05 0 .04-.02.01-.01.01-.02.02-.04-.01.1.1.1.05.17.13.08.28.06.4.1-.03.05-.08.07-.12.06l.08.04c-.05.06-.07 0-.1 0-.01.17.25.04.26.2l.06-.03v.01c.02-.03.07-.04.1-.04-.03.06-.1.12-.06.16-.01.08.12.06.2.07-.02-.03.02-.05.04-.06.02.02-.01.08.03.07l-.06.07c.05-.08.12-.02.16-.04-.03.06-.07.02-.1.05l.15.1c.1-.01.05-.08.13-.12.06.02.14.01.15.1l.04-.08c.12.02.17.07.16.18 1.05 0 .73-.6.73-.6-.13-.34-.4-.26-.74-.45z"/></g><path d="M290.65 404.68l.06.02c0-.01-.02-.02-.06-.02zm2.47.72c-.01.01-.01.01-.02.01h.02zm23.56-.2h-.04c.02.01.03.01.04-.01zm-1.44.45h0l-.01-.01zm8.32 1.25h-.04c.01.01.02.01.04-.01zm-1.46.44h0v-.01zm-23.05 12.6l-.06.02c.04-.01.05-.01.06-.02zm13.35 9.76h.44c-.02-.02-.13-.03-.44.01zm-18.84-15.04h-.1.1zm35.88 14.5c-.06.01-.1.02-.13.03l.13-.03zm-21.1 1.5l.36-.02c-.01-.02-.1-.02-.36.02zm-.87-4.18l-.08.02c.06-.01.08-.01.08-.02zm14.8 3.3h-.02l-.1.03zm-27.48-4.52l.01-.05c-.01 0-.02.02-.01.05zm-7.12-6.37zm7.45 4.4h0v.01zm19.28-12.32zm6.88 1.7h0z"/><g fill="#fff"><path d="M350.36 423.2c-.05-.1-.12-.17-.2-.24l.07.07c-.01-.03-.02-.06-.02-.1v-.07c-.26-1.16.1-.5-.3-1.82l.07-.04c-.03-.06-.04-.13-.07-.13-.02.01-.04.04-.05.07l-3.72.35c-.9.15.35.02-.08.14-.95.24-1.26.15-2.12.23l.25.04-1.75.2.23-.1-1.17.15c-.32.1.17.02.55-.01-1.26.15-2.27.5-3.56.54l.14-.1c-.01.02.18 0 .3-.03 1.24-.3-.94.06-1 .01-.35.14-1.48.22-1.95.4-2.25.14-3.96.6-5.67.74.43-.12-.56.03-.52-.04-.75.05-.54.17-1.22.24l-.63-.02c-1.56.36-1.1.01-2.6.28-.96.26-2.3.2-3.74.54l-.06-.07c-1.12.22-1.72.15-2.63.32-.25-.04.22-.07.18-.16-.92.2.22-.2-.4-.02-1.32.1-2.55.66-3.8.8-1.33.3-2.52.16-2.74.38l.7-.08-1.85.27-.06-.06-3.45.53c.01-.01-.06 0-.1-.01-.95.18-1.2.13-2.05.35l.1-.04c-1.47.36-4.74.76-7.07 1.1-.1-.1-1.42.13-2.4.28.3-.04.33-.1.38-.12-1.33.3-2.83.26-4.2.58l.05-.02c-.54.02-2.15.4-2.42.25l-2.37.43-.65.1-.34.04h-.13c-.27-.02-.2.1-.13.5l-.05-.1.38 2.48c.08.6.5 1.02.86 1.27.3.2.54.3.76.4.23.05.46.07.67.05l3.02-.45 2.48-.54c1.05-.07 1.98-.2 3.5-.5l-.3-.04c.95-.08 1.74-.27 2.56-.4.43-.15-.67 0 .25-.2l2.6-.4c-.1.07-1.02.2-.77.23.16-.06 1.46-.26 1.28-.33l.06.1c.33-.08.6-.05 1.03-.12.2-.06.36-.12-.13-.06l2.84-.5c.87-.13.62 0 .88.03.26-.05.65-.15.64-.2h.1l.36-.12c1.77-.14 3.33-.64 4.84-.73-.4.07-1.1.15-1.1.23l1.26-.2c-.5.1-.92.2-.7.23l5.4-1c.1.1 1.4-.2 2.15-.22-.1 0-.13-.01-.12-.02-.33.04-.46.04.25-.1-.01.01.01.01.02.01l.3-.1c.56-.04.48-.01.2.04.42-.06.9-.14.53-.03 1.14-.13 1.22-.3 1.85-.43l3.47-.54-.2.05c.47-.05.66.02 1.57-.13.67-.45 2.37-.36 4.36-.77-.27-.07.76-.18.66-.25l5.63-.85-.1.03c.6 0 2.05-.3 2.53-.44-.3.12.77-.01.4.12.42-.18 2.33-.4 2.33-.4.38.05 1.77-.26 2.67-.3l1.13-.3-.4.15c.6-.1.73-.05.5.02.27-.03.42-.08.8-.15-.04.03-.1.07-.17.1.68-.08.73-.38.35-.2.48-.28.5-.4.62-.48.07-.05.23-.15.18-.6zm-63.96-4.5c-.01.01-.02.06-.05.06.1-.01.27-.02.26.08.26.02.6.12.8 0v.02c.12-.1.12.01.24-.02 0 .01.01.02.01.03.13-.08.3.05.4.03l-.01.07.2.04-.07-.03c.07-.17.12.15.3.08.13.06.38-.28.5-.15.1-.06-.1.1.02.08-.03.1-.07.04-.06.12.1-.01.13.14.27.12l-.02.07c.2-.07.25.2.4.12.18.01.02.24.24.18l.02.12c.06.05.1-.1.15-.01-.03.06.07.1 0 .12.12.17.4.03.53.3.1-.08.17.04.26-.02-.02.05.2.13.03.16-.02 0-.03-.01-.02-.03l-.05.05c.05.18.24.07.34.16-.02-.04-.06-.07-.01-.1l.1.08-.06.04.13.14.03-.08c.05.1 0 .2.14.18.07-.02 0-.14.1-.1.06.12.14.3.23.4.05-.07.08-.04.12-.03l-.05.06c.2.03-.07.16.1.22l-.05.03.14-.08c.2.01-.06.16.2.15-.05-.04.1-.13.13-.05l-.07.03c.04.02.08.01.08.05-.05.01-.1.06-.03.1l-.1.03.18.01c0 .13.18.18.12.28 0 0 .1.2.2.16-.08.01-.03.12-.12.14.1 0 .24.1.2.2h-.01c.07.24.33.26.37.5.07-.06.1.06.17-.02.22.13.03.46.36.35.07.08 0 .15.01.2l-.03-.01c.13.15.16.2.22.33.06.05.2-.02.24.1-.08-.01-.04.03-.02.08-.02-.02-.05-.02-.05.06.02 0 .04 0 .05.01v.01c.06.06.07.04.06 0 .01 0 .02-.01.03-.03-.03.1.1.2.02.26.14.2.32.3.44.47-.04.05-.1.02-.15-.02l.08.12c-.07.03-.08-.05-.1-.1-.04.2.28.26.25.5l.08.01v.02c.03-.01.1.01.1.03-.05.06-.15.07-.1.15-.03.1.12.2.2.27-.01-.06.03-.05.06-.04.02.04-.03.1.01.12l-.08.04c.07-.05.14.08.18.08-.05.05-.1-.05-.14-.04l.13.27c.1.07.08-.05.17-.04.05.08.15.14.14.26l.07-.06c.13.14.16.25.12.4.55.5.8.52.9.37s.07-.43.07-.43c-.02-.58-.35-.75-.66-1.32-.2-.53-.1-.74-.43-1.24-.12-.26-.3-.5-.44-.74-.18-.05-.18-.32-.35-.4l.03-.1c-.06-.03-.1-.07-.1-.13h.02c-.1-.04-.1-.13-.15-.15l.02-.01-.06-.08h.03c-.12-.1-.2-.2-.26-.32l-.07.06c-.07-.28-.27-.26-.32-.52v-.01c-.36-.1-.17-.5-.55-.6.05.01.02-.04.04-.05-.1-.1-.22-.2-.36-.1-.07-.08-.02-.1.02-.15-.06.05-.14 0-.2-.06h.05l-.18-.16-.07.13c-.06-.12.1-.14-.01-.2l-.08.08c-.1-.14-.07-.33-.14-.52-.53-.55-1.35-.7-1.85-1.17l.01-.1c.04-.12-.25.1-.22-.03h-.1c-.01-.03-.04-.07 0-.08-.06-.04-.07-.02-.14 0l-.04-.1c-.24-.16-.52-.12-.8-.23-.3-.27-.98-.3-1.36-.3-.55.07-1.08-.54-1.66-.4-.02-.02-.07.02-.07.03l-.5-.07c-.01-.04-2.4-.15-.64.97l-.01.03c.25.08.4.1.6-.02.01.17.2.04.26.1v.01c.18-.1.32.15.48.05zm27.4-6.28l.02.02c.12-.12.17-.2.08-.36.17.05.06-.1.13-.13l.01.01c-.1-.14.18-.14.1-.27.01.01.05.03.05.05.01-.07 0-.17.1-.14.04-.16.16-.35.05-.5h.02c-.08-.1.01-.08-.01-.16h.03c-.08-.1.05-.18.03-.24l.06.02.03-.12-.03.04c-.16-.08.14-.05.07-.18.05-.07-.3-.3-.17-.36-.06-.07.12.1.08 0 .1.03.04.05.12.06-.02-.08.13-.06.1-.16l.07.02c-.1-.14.16-.14.07-.25-.02-.12.23.02.14-.14h.1c.03-.04-.1-.08-.04-.1.06.03.07-.04.12.01.14-.07-.04-.27.17-.35-.1-.08-.01-.12-.08-.18.05.02.07-.14.14-.02.01.01 0 .02-.02.01l.06.04c.16-.03-.01-.18.04-.25-.03.01-.04.05-.08.01l.04-.07.05.04.08-.1-.08-.01c.06-.04.2-.01.1-.1-.04-.05-.12.01-.12-.05.08-.05.2-.13.25-.22-.08-.02-.07-.05-.08-.08l.07.02c-.06-.14.17.03.13-.1l.04.03-.13-.08c-.1-.14.16.01.02-.16 0 .04-.16-.04-.1-.08l.06.04c0-.03-.03-.05-.01-.06.03.03.1.05.1 0l.07.06-.1-.12c.1-.03.04-.15.14-.14 0 0 .1-.1 0-.17.05.05.1-.01.17.04-.06-.06-.08-.18.01-.18h.01c.13-.1-.01-.28.13-.37-.08-.03-.01-.07-.12-.1-.05-.17.3-.15 0-.32.01-.07.1-.04.13-.06l.01.02c.02-.12.03-.15.07-.23-.01-.05-.16-.12-.1-.18.05.05.05.01.06-.01 0 .02.02.04.08.02-.02-.01-.02-.02-.03-.04h.01c0-.05-.02-.05-.04-.04-.01 0-.02-.01-.04-.01.1-.02.05-.13.15-.1.03-.15-.03-.3-.03-.4.06.01.1.05.1.1v-.1c.07.03.02.06.03.1.16-.05-.04-.25.12-.3l-.05-.05h.01c-.03-.01-.06-.05-.07-.08.07.01.15.06.17 0 .08-.02.02-.14.01-.2-.02.03-.06 0-.07-.02.01-.03.08-.02.06-.05l.1.03c-.1-.02-.06-.1-.1-.13.07.01.04.07.08.1l.06-.17c-.04-.1-.1-.02-.15-.08 0-.06-.04-.14.04-.17l-.1-.01c-.02-.12.01-.18.12-.2-.34-1-.8-.5-.8-.5-.3.22-.12.46-.2.83-.16.3-.34.3-.4.65-.07.14-.1.32-.14.47.1.12-.08.2-.01.32l-.08.01c.02.04.03.08-.02.1v-.01c.03.06-.02.1 0 .13h-.02l-.01.05h-.02c.02.1 0 .17-.05.23l.08.03c-.15.1 0 .23-.16.3v-.01c.15.25-.25.2-.1.45-.02-.03-.05-.01-.06-.02-.01.1-.03.17.13.24-.02.06-.07.03-.13.01.07.03.08.1.07.13l-.02-.03-.03.14.14.03c-.06.05-.17-.05-.16.03l.1.04c-.06.08-.25.07-.36.13-.2.36-.08.87-.4 1.14l-.1-.02c-.12-.04.14.17.02.14l.04.06c-.03 0-.06.02-.08-.01-.02.04 0 .04.02.1h-.1c-.12.12-.02.3-.12.45-.23.13-.23.53-.23.77.06.36-.54.5-.46.87-.02 0 .01.04.02.05l-.12.26c.01-.02-.56 1.26.83.68zm8.9-2.6h0l.05.02z"/><path d="M320.67 414.1l.02.02c.12-.12.17-.2.08-.36.17.05.06-.1.13-.13v.01c-.1-.14.18-.14.1-.27.01.01.05.03.05.05 0-.07 0-.17.1-.14.04-.16.16-.35.05-.5l.02.02c-.08-.1.01-.08-.01-.16h.03c-.08-.1.05-.18.03-.24l.06.02.03-.12-.03.04c-.16-.08.14-.05.07-.18.05-.07-.3-.3-.17-.36-.06-.07.12.1.08 0 .1.03.04.05.12.06-.02-.08.13-.06.1-.16l.07.02c-.1-.14.16-.14.07-.25-.02-.12.23.02.14-.14h.1c.03-.04-.1-.08-.04-.1.06.03.07-.04.12.01.14-.07-.04-.27.17-.35-.1-.08 0-.12-.08-.18.05.02.07-.14.14-.02.01.01 0 .02-.02.01l.06.04c.16-.03-.01-.18.04-.25-.03.01-.04.05-.08.01l.04-.07.05.04.08-.1-.08-.01c.06-.04.2-.01.1-.1-.04-.05-.12.01-.12-.05.08-.05.2-.13.25-.22-.08-.02-.07-.05-.08-.08h.07c-.06-.14.17.03.13-.1l-.1-.06c-.1-.14.16.01.01-.16 0 .04-.16-.04-.1-.08l.06.04c0-.03-.03-.05-.01-.06.03.03.1.05.1 0l.07.06-.1-.12c.1-.03.04-.15.14-.14 0 0 .1-.1 0-.17.05.05.1-.01.17.04-.06-.06-.08-.18.01-.18l.05.02c.13-.1-.01-.28.13-.37-.08-.03-.01-.07-.12-.1-.05-.17.3-.15 0-.32.01-.07.1-.04.13-.06l.01.02c.02-.12.03-.15.07-.23-.01-.05-.16-.12-.1-.18.05.05.05.01.06-.01 0 .02.02.04.08.02-.02-.01-.02-.02-.03-.04h.01c0-.05-.02-.05-.04-.04-.01 0-.02-.01-.04-.01.1-.02.05-.13.15-.1.03-.15-.03-.3-.03-.4.06.01.1.05.1.1v-.1c.07.03.02.06.03.1.16-.05-.04-.25.12-.3l-.05-.05h.01c-.03-.01-.06-.05-.07-.08.07.01.15.06.17 0 .08-.02.02-.14.01-.2-.02.03-.06 0-.07-.02.01-.03.08-.02.06-.05l.1.03c-.1-.02-.06-.1-.1-.13.07.01.04.07.08.1l.06-.17c-.04-.1-.1-.02-.15-.08 0-.06-.04-.14.04-.17h-.1c-.02-.12.01-.18.12-.2-.34-1-.8-.5-.8-.5-.3.22-.12.46-.2.83-.16.3-.34.3-.4.65-.07.14-.1.32-.14.47.1.12-.08.2-.01.32l-.08.01c.02.04.03.08-.02.1v-.01c.03.06-.02.1 0 .13l-.02-.01-.01.05-.02-.02c.02.1 0 .17-.05.23l.08.03c-.15.1 0 .23-.16.3v-.01c.15.25-.25.2-.1.45-.02-.03-.05-.01-.06-.02-.01.1-.03.17.13.24-.03.06-.07.03-.13.01.07.03.08.1.07.13l-.02-.03-.03.14.14.03c-.06.05-.17-.05-.16.03l.1.04c-.06.08-.25.07-.36.13-.2.36-.08.87-.4 1.14l-.1-.02c-.12-.04.14.17.02.14l.04.06c-.03 0-.06.02-.08-.01-.02.04 0 .04.02.1l-.1.01c-.12.12-.02.3-.12.45-.23.13-.23.53-.23.77.06.36-.54.5-.46.87-.02 0 .01.04.02.05l-.12.26c-.02-.01-.58 1.26.8.68z"/></g></svg>