<svg xmlns="http://www.w3.org/2000/svg" viewBox="0 0 480 480" xmlns:v="https://vecta.io/nano"><path d="M75.5 313.98l-3.9-.4c-1.2-.1-2.2.8-2.4 1.9l-11.5 68.2c-.3 1.4.6 2.6 1.9 2.9.97.2 2.23.3 3.5.3h.1v-.01a6.61 6.61 0 0 1 1.2-.1c3.4-.4 10.3-7.4 13.3-12.5.3-.5.6-1 1-1.6l-12.22-5.26 9.02-53.44zm290.57 106.95c-.13-1-.44-2.2-.84-3.4h0l-.04-.1h-.01c-.22-.4-.35-.76-.47-1.1-1.47-3.1-10.3-7.4-16.1-8.6a41.14 41.14 0 0 1-1.84-.43l-1.07 13.26-53.5 8.6c.42 1.55.65 2.84.87 3.82.3 1.17 1.46 1.83 2.57 1.66l68.3-10.96c1.43-.18 2.28-1.42 2.15-2.74zM98.45 318.46l-.1-.55-3.9 1 .05.6-15.22 4.1 4.55 29.55 17.54-5.05.07.18 3.77-1.3 24.03-6.9-6.5-28.2-24.3 6.56zm225.7 98.02l-4.83-17.6.18-.07-1.24-3.78-3.4-11.9-28.28 6.15 3.03 12.17-.55.1.95 3.9.6-.04 3.9 15.26 29.62-4.2z" fill="#fff"/><path d="M366.8 418.53l-.06-.3-.13-.5-.24-.83-.24-.78-.03-.1c-.02-.02-.07 0-.1 0l-.22.02-.27.03c.03-.04.06-.08.08-.15.01-.23-.12-.63-.27-.94l-.3-.5c-.6-.9-1.22-1.35-1.88-1.77l-2.4-1.27c-1.65-1.04-2-1.5-3.87-2.26-.86-.42-1.84-.75-2.72-1.06-.5.03-1.16-.42-1.7-.42l-.16-.18c-.2 0-.4-.02-.56-.14l.02-.03c-.3 0-.56-.14-.7-.13l.02-.03-.32-.07.07-.03a6.39 6.39 0 0 1-1.37-.29v.15a4.01 4.01 0 0 0-.59-.19l-.73-.14c-.02 0-.04-.01-.06-.01h0c0-.03.02-.1 0-.1l-.33-.1-.44-.13-.87-.25-1.05-.3-.95-.26a1.93 1.93 0 0 0-.6-.14l-4.6-1.62-9.1-3.04-2.02-.53c-.1-1-.93-3.56-.93-3.56l-.57-1.8-.28-.83-.4-1.1c-.08-.28-.22-.5-.34-.7l-.2-.32c-.05-.12-.23-.07-.34-.12-.48-.1-1-.15-1.53-.07l-.4.06-.38.1c-.2.06-.37.15-.55.23a4.18 4.18 0 0 0-.98.7c-.57.56-.92 1.24-1.16 1.9-.2.66-.33 1.33-.36 2.02l-.3-1-.28-.83-.22-.63-.1-.3c-.02-.04-.03-.12-.07-.13l-.17.05c-.01 0-.03.01-.04.01l-.15-.42-.08-.67c-.18-.72-.26-.48-.43-1.28.07.03-.23-1-.04-.57-.35-1.6-.97-3.2-1.45-5.23.17-.04.34-.07.5-.14a3.1 3.1 0 0 0 .94-.48 3.58 3.58 0 0 0 1.3-1.7c.12-.34.2-.7.2-1.07.02-.35-.05-.77-.1-1l-.27-1.63-4.73-25.66c-.04-.27-.14-.75-.23-1.15l-.13-.52s-.06-.22-.07-.2l-2.88-15s-3.54-18.16-6.3-29.3c-1.37-5.58-2.57-9.4-2.55-8.4 0 .3.12 1.07.35 2.38l-.6-2.3c-.84-3.1-1.96-6.62-3.27-10.4 1.76 4.54 2.8 7.5 3.4 9.23.96 2.66 1.03 2.42.77.9-.3-1.5-1-4.3-1.74-6.66a93.68 93.68 0 0 0-.96-3.07l-.43-1.28c-2.64-7.9-5.04-13.75-7.66-19.9l-9.57-21.64-7.77-18.13-6.03-15.28 1.14-3.23.85-2.46h-77.75v.02l-.03 2.1c.03 2.76.2 5.4.7 9.15l-.05-.1c.37 1.75.76 3.35 1.18 4.86l-3 12.94-5.38 22.6c-2.23 8.22-3.9 13.35-6.05 18.25-1.1 2.42-2.34 4.84-4.35 6.9-1 1-2.28 1.83-3.88 2.6a67.07 67.07 0 0 1-2.6 1.18c-.88.38-1.86.77-2.88 1.18l-24.08 8.93c-3.6 1.53-10.2 3.67-14.5 5.4l-1.73.5c-1.48.6-3.24 1.26-4.77 1.74l.08-.07c-2.22.9-4.77 1.74-5.87 2.18l.08-.07-2.73 1 .45-.2-1.46.55-.73.27c-.24.1-.47.16-.85.34a3.56 3.56 0 0 0-1.93 3.74l1.2 5.92.08-.34c1.5 7.94 2.4 10.76 3.7 17.94l-.05-.1c.57 2.23 1.02 4.25 1.42 6.15l.14.68-4.98 1.36-.28-.01c-.15-.1-1.53.64-1.78.6l-.65.25c-.2.03-.6.12-.27 0a8.16 8.16 0 0 0-.76.24c-.02-.08-.05-.16-.07-.24l-.24-.7c-.17-.5-.34-1.04-.54-1.68-.58-2.28-.6-2.92-1.3-5.25-.3-1.12-.66-2.3-.98-3.4-.26-.5-.4-1.44-.67-2.03l.01-.26c-.1-.2-.18-.45-.2-.67v.01c-.13-.3-.2-.67-.26-.82h.02l-.1-.38.05.06a9.27 9.27 0 0 1-.43-1.62l-.07.06c-.17-1.1-.43-1.46-.55-2.46l.02.01c-.5-1.18-.3-2-.78-3.22.06.15.03-.08.05-.07-.15-.58-.3-1.2-.47-1.18-.1-.43-.02-.36.03-.43-.07.02-.18-.35-.26-.68l.06.15-.22-.96-.1.22c-.06-.52.14-.16.01-.65l-.1.03c-.06-.36-.07-.65-.06-.93v-.04l5.18-1.3-.28-1.24c-.97.3-1.97.62-3.07.85l-.37.17-.1.02c.01.03-.4.2-.66.27-.26 0-.07-.13-.76.04 0-.02 0-.05-.01-.07-.04-.2-.07-.4-.1-.6l-1.65.43-2.06.6-.76.2-.42.12c-.05 0-.06.03-.04.07l.03.33.03.32-2.53.7c-.97.33.2.04-.25.25l-1.8.53c.6-.86 1.04-1.48 1.52-2.07.44-.53.64-1.24.5-1.97a2.34 2.34 0 0 0-.5-1.06c-.14-.16-.3-.32-.5-.45-.1-.07-.2-.12-.32-.18-.07-.03-.15-.07-.23-.1l.04-.02-3.96-.9c-1.2-.28-2.4-.5-4-.5.4 0-.16-.1-.12-.12-1.44-.13-3.02-.17-3.05.12-1.05-.04-.85-.1-1-.23 0 .06-.23.1-.56.13l-.56.03h-.16c.01-.02.01-.05.02-.07l.03-.12c.01-.04-.06-.02-.1-.04l-.23-.04c-.16-.03-.32-.05-.48-.08l-3.23-.34-.63-.06c-.12-.01-.18-.02-.35-.03-.16-.01-.32-.01-.47.01a3.16 3.16 0 0 0-1.69.71 3.55 3.55 0 0 0-1.03 1.46c-.2.66-.2.98-.27 1.43l-.37 2.54c-.5 3.37-1.02 6.7-1.7 9.72l-.2.24c-.23.08.03 1.75-.2 1.95l-.02.73c-.07.2-.18.6-.17.25-.12.66-.1.68-.1 1.17l-.25.68c-.54 2.6-.66 4.84-1.17 7.57-.82 3.24-1.62 9.48-2.08 13.08-.53 5.08-2.35 10.75-2.86 15.96a1.74 1.74 0 0 0-.04.61l-.82 4.7-.54 3.3-.46 3.02-.2 1.53c-.02.23-.1.52-.1.85a2.97 2.97 0 0 0 .13.9c.35 1.17 1.27 1.75 1.83 1.92.6.18.86.07.73-.06-.1-.17-.74-.4-1.25-1.26a2.1 2.1 0 0 1-.17-1.68l.77-2.72.03.12c.55-2.55.84-4.17.9-6 .33-.23.4-2.1.58-2.7v.06c.05-1.6.73-3.2.8-4.75.01.06.08.1.03.46.15-1.1.34-2.63.52-2.68.4-2.64 1.1-6.3 1.12-8.04l.03.12c-.02-1 .18-1.25.27-2.34.03-.05.06-.13.06-.1 0-1.08.5-3.06.56-3.92l.12-.03.33-2.1-.16.78c-.26-.33.45-1.54.5-3.1.28-1.4-.14-3 .25-4.43-.02-.73.13.66.2-.4.16-.01.02.5.2.26.1-1.04.45-1.66.55-2.95l.13-.03c.06-1.7.7-3.1.66-4.24.2-1.73.56-1.08.62-2.9l.28-.66c.16-.76-.1-.58.1-1.4.1.07.26-1.05.28-.54.5-1.88.42-3.92 1.12-6.38-.1-.58.22-1.83.14-2.26.1-.05.44-2.53.4-1.08 0 .12-.04.34-.08.32l.1.2c.47-1.4.3-2.63.6-4.04-.1.4-.2.98-.2.6l.24-1.32.06.3c.07-.4.1-.45.2-.64a1.31 1.31 0 0 1 .35-.39c-.06 0-.13 0-.2.01.23-.17.42-.2.58-.2l.83-.03c.5-.05-.9-.27.12-.2l1.08.18c.36.06.96.15.9.17l.1.05c.04.01.07.03.03.1l-.05.12-.02.05c-.01.02-.01.01-.03.15.17-.13.1.3.04.77l-.12-.06c-.12 1.77-.38.6-.53 2.34l.12.33c0 .14-.01.26-.01.36-.1.36-.23.75-.34 1.18-.44 2.44-.8 4.95-1.17 7.46-.07.4-.14.86-.18 1.24-.03.17-.05.35-.08.52-.1.13-.24.7-.3.44.03.58-.14 2.24-.4 2.88l.01-.13c-.55 2.42-.5 4.2-1.05 6.36.1-.05.03.4.02.66l-.2.9-.2.25c-.23.1.02 1.8-.2 2l-.03.75c-.07.2-.2.63-.17.25-.12.68-.1.7-.1 1.2l-.25.7c-.55 2.66-.67 4.97-1.2 7.77-.42 1.67-.83 4.1-1.2 6.58l-.5 3.66-.22 1.7-.08.58c-.02-.01-.04-.02-.05-.03l-.12.43c-.05-.01-.1-.01-.15-.01-.1-.1-.08.28-.05.62.02.34.06.65-.04.66l.02.47c-.05.1-.14.33-.15.1-.07.37-.05.47-.02.64l-.17.22c-.26.9-.13 1.7-.35 2.65-.46 1.1-.58 3.3-.65 4.57.02 1.8-1.17 3.7-1.1 5.54-.04.05 0 .22.03.22l-.3 1.63s-.3 1.64-.35 2.9v.2c-.1.01-.2.02-.3.02-1 .07-1.68.1-2.15.1-.93.03-.88.2-.44.4.5.23 1.42.44 2.23.54.1.01.2.02.3.04a7.79 7.79 0 0 1 .5.04c.33.01.62.03.87.04l.82.02h.12c.03-.01.02-.07.03-.1l.05-.22.06-.27a.34.34 0 0 0 .12.12c.2.08.64.1.98.05.32-.06.58-.14.58-.14 1.05-.28 1.67-.72 2.28-1.22.6-.5 1.17-1.1 1.97-1.86 1.5-1.23 2.07-1.4 3.38-2.94.68-.68 1.3-1.5 1.87-2.24.13-.47.77-.97.95-1.5l.22-.1c.06-.18.15-.38.3-.5l.02.03c.1-.27.3-.5.35-.63l.02.03.17-.28.01.08c.2-.45.46-.86.72-1.2l-.14-.05a3.21 3.21 0 0 0 .37-.5c.14-.23.25-.44.36-.64l.03-.06c.03.01.07.05.1.03l.07-.1.13-.2.78-1.1.62-.9.55-.82c.13-.12.35-.52.33-.53l3-3.84s3.67-4.65 5.8-7.66c.5-.7.9-1.3 1.15-1.74.97.23 3.67.26 3.67.26l1.9.04h.88l1.18-.02c.3.01.53-.05.77-.1l.36-.08c.13-.01.14-.2.22-.28.25-.43.46-.9.55-1.43a2.57 2.57 0 0 0 .07-.4v-.4c.01-.2-.02-.4-.04-.6a4.61 4.61 0 0 0-.34-1.15c-.35-.72-.88-1.27-1.44-1.7-.57-.42-1.18-.76-1.84-1a15.89 15.89 0 0 0-1.52-.5 9.17 9.17 0 0 1 1.16-.36c.63-.27-.54.3.42-.04.06.08-.44.2-.17.2.95-.32 1.6-.36 2.77-.76l.07.06a14.41 14.41 0 0 1 1.6-.49c-1.22.82 1.36.1 1.36.1.55-.14 1.02-.28 1.46-.43l.83-.3.63-.23.3-.1c.04-.02.12-.03.13-.07l-.05-.16c0-.01-.01-.03-.01-.04.13-.04.25-.1.42-.15l.67-.1c.7-.2.47-.27 1.27-.44-.03.07 1-.24.56-.05 1.74-.4 3.44-1.1 5.7-1.62l.2 1c.04.2.1.52.2.8.1.3.24.57.4.84.34.52.82.94 1.36 1.24s1.15.45 1.76.47a3.95 3.95 0 0 0 .91-.07 17.35 17.35 0 0 0 .73-.16l2.8-.68c1.92-.48 3.97-1.02 6.25-1.7-1.14.33.5-.05.43.01 4.23-1.1 8.76-2.27 8.76-2.56 3.1-.77 2.54-.55 2.97-.54-.05-.12 2.63-.84 5.04-1.46l-1.1.33 6.9-1.78-1.42.1c3.68-.86 1 .04 4.5-.9l-.1-.18c5.08-1.24 8.13-1.7 13.08-2.8l31.16-8.1 7.75-2.12c2.57-.82 5.1-1.7 7.47-2.9 4.76-2.3 9.07-5.3 12.67-8.76l.72-.53c.1-.03.38-.3.75-.72.38-.4.83-.94 1.24-1.52.87-1.14 1.73-2.32 2-2.6l1.13-1.68.54-.75c.34-.47.63-.88.2-.15l1.14-1.83c1.28-2 2.43-4.13 3.44-6.37l3.25 4.84c6.04 9.06 11.82 18.1 15.6 27.25l.2.86c0 .4 2.34 4.92 2.4 5.7l.84 2.14c.18.62.58 1.92.16.86l1.2 3.5c.18.74.38 1.47.53 2.22l3.22 11.64 3.48 11.94c1.37 5.17 3.62 12.55 6 19.97.08.24.13.43.27.8.14.3.3.6.53.87.43.52.98.9 1.6 1.15a4.13 4.13 0 0 0 1.91.26c.6-.1.98-.2 1.48-.3l5.56-1.14 9.8-2.03 12.4-2.48 5.77-1.06 1.17 4.53-.02.28c-.1.14.62 1.53.56 1.78l.24.65c.03.2.1.6 0 .27.1.43.16.57.23.76-.08.02-.16.05-.24.07-.23.07-.46.15-.7.23-.5.16-1.04.33-1.68.5-2.3.55-2.93.55-5.27 1.23-1.13.28-2.32.63-3.4.93-.5.26-1.44.38-2.03.64h-.26c-.2.1-.45.17-.67.2v-.02c-.3.13-.67.2-.83.25h.01l-.4.1.06-.04a9.49 9.49 0 0 1-1.63.41l.06.08c-1.1.15-1.46.42-2.47.52v-.02c-1.2.5-2 .27-3.23.74.15-.06-.08-.03-.07-.05-.58.14-1.2.28-1.2.45-.43.08-.36.02-.43-.04.02.07-.35.18-.7.25l.15-.06-.96.2.22.1c-.52.06-.16-.14-.65-.02l.03.1a4.4 4.4 0 0 1-.93.05H290l-1.3-5.5-1.2.47c.3 1 .62 2.04.84 3.18l.16.37v.1c.03-.01.18.4.26.67 0 .26-.13.07.03.76-.02 0-.05 0-.07.01l-.6.1.4 1.65.27 1.03.28 1.03.2.76.1.42c0 .05.03.06.07.04l.33-.03.32-.03.66 2.54c.32.97.04-.2.24.25.24.87.52 1.7.73 2.72v-.34c.27.9.46 1.6.6 2.24a18.48 18.48 0 0 1-.89-.31 2.33 2.33 0 0 0-2.02.16 2.65 2.65 0 0 0-.84.8 2.26 2.26 0 0 0-.27.61c-.03.1-.05.23-.07.36-.01.08-.01.16-.02.25l-.03-.04.4 4.04c.12 1.22.3 2.45.8 3.94-.13-.37-.04.18-.08.16.34 1.4.8 2.92 1.1 2.85.3 1 .17.85.1 1 .06-.02.17.18.3.5l.2.52c.02.05.04.1.05.15-.03 0-.05 0-.08.01l-.13.01c-.04.01 0 .06-.01.1l.04.23c.03.16.05.32.08.48l.7 3.17.15.62c.03.12.04.18.1.34.04.15.1.3.16.44a3.16 3.16 0 0 0 1.21 1.37c.52.32 1.1.5 1.7.5.7-.02 1-.14 1.44-.2l2.52-.46c3.36-.6 6.66-1.18 9.76-1.5l.3.1c.15.2 1.65-.6 1.9-.43l.7-.2c.2.01.64-.02.3.08.66-.1.67-.14 1.14-.28l.73.02c2.62-.32 4.8-.93 7.55-1.32 3.33-.26 9.5-1.5 13.05-2.22 4.98-1.12 10.94-1.22 16.03-2.4.17 0 .6-.13.6-.16l4.7-.73 3.3-.54 3-.54 1.52-.3c.23-.05.52-.08.83-.2a3.15 3.15 0 0 0 .82-.41 2.86 2.86 0 0 0 1.23-2.35c-.02-.62-.2-.84-.3-.67-.13.15-.13.83-.8 1.6a2.06 2.06 0 0 1-1.54.7l-2.82.14.1-.06c-2.6.3-4.22.54-5.96 1.06-.32-.24-2.12.3-2.74.3l.05-.03c-1.54.47-3.26.34-4.75.78.06-.03.08-.12.42-.18-1.1.2-2.6.52-2.7.37-2.63.47-6.32.98-7.97 1.52l.1-.06c-.94.33-1.24.23-2.3.5-.06-.01-.14-.01-.13-.02-1.02.35-3.06.52-3.9.73l-.07-.1-2.1.36.78-.1c-.23.35-1.6.06-3.1.5-1.42.2-2.78 1.1-4.28 1.18-.68.25.58-.33-.45-.05-.06-.15.48-.18.2-.26-1.02.24-1.7.1-2.97.42l-.07-.1c-1.62.5-3.15.34-4.22.73-1.7.38-1.2-.18-2.95.35l-.72-.06c-.77.1-.52.3-1.37.35.04-.1-1.08.1-.6-.1-1.94.14-3.85.86-6.4.98-.52.3-1.8.37-2.2.6-.08-.08-2.54.4-1.15-.03.12-.04.34-.07.33-.03l.15-.15c-1.47 0-2.6.54-4.02.74.43-.03 1-.13.62.02l-1.32.2.26-.15c-.4.06-.46.05-.67.02a1.38 1.38 0 0 1-.48-.21c.02.06.04.12.07.18-.24-.16-.3-.34-.37-.5-.08-.22-.15-.4-.3-.77-.2-.46.04.95-.23-.05l-.17-1.08c-.06-.36-.17-.95-.13-.9l.01-.12c-.01-.04 0-.07.07-.06h.2c.02 0 .01 0 .15-.02-.18-.12.27-.18.72-.28l.07.1c1.72-.45.68.17 2.4-.25l.28-.22c.14-.05.25-.07.36-.1.38-.01.78-.02 1.22-.06 2.45-.37 4.95-.82 7.45-1.28.4-.06.86-.14 1.23-.23.17-.03.35-.06.52-.1.16.04.75 0 .5.14.54-.22 2.17-.6 2.85-.56l-.12.04c2.47-.25 4.15-.86 6.37-1.04-.08-.08.36-.15.62-.23l.92-.1.3.1c.16.2 1.7-.6 1.96-.44l.72-.22c.2 0 .65-.03.3.08.68-.1.7-.14 1.17-.28l.75.01c2.7-.33 4.92-.96 7.75-1.36 1.7-.14 4.15-.53 6.6-.98l3.63-.7 1.67-.33.57-.1c0 .02 0 .04-.01.06l.45-.03c.01.05.02.1.04.14-.05.12.3-.02.6-.15.32-.13.6-.26.64-.17l.44-.17c.1.02.36.02.14.1.37-.05.47-.1.6-.2l.27.1c.92-.04 1.66-.42 2.62-.52 1.2.1 3.3-.5 4.53-.85 1.7-.6 3.87-.08 5.6-.73.06.02.2-.07.2-.1l1.64-.23s1.65-.25 2.85-.6l.2-.05.12.27c.4.9.62 1.56.8 2 .33.87.46.77.53.28.14-.53.04-1.48-.12-2.27zM76.96 373.27l-.02-.01c-.16.12-.14.18-.15.3-.01.05-.02.1-.04.16-.08.14-.2.3-.32.42.14.05-.13.34.07.36-.27.76-1.1.96-.8 1.52-.2.3-.36.26-.5.4l.03-.1c-.35.57-.48.72-.8 1.1-.1.23.08.43-.26.73.01-.18-.1-.03-.2.1.06-.1.05-.14-.15-.02.01.04-.01.1-.03.14-.01 0-.02 0-.02-.01-.15.24-.1.22 0 .13.01.02.03.02.08.01-.3.14-.5.62-.68.53-.52.66-.8 1.22-1.22 1.78-.12-.01-.07-.18.04-.36l-.3.38c-.1-.1.14-.26.22-.4-.55.28-.7 1.02-1.32 1.36l-.03.17-.05.04c.04.04-.02.2-.08.28-.15-.02-.18-.2-.42.04-.27.1-.53.55-.75.83.16-.1.15-.02.12.06-.13.1-.28.1-.34.2l-.1-.1c.15.07-.24.4-.25.5-.15-.03.14-.24.12-.34l-.78.65c-.22.3.14.08.1.3-.24.2-.43.5-.8.62l.17.05c-.44.42-.77.62-1.2.68-.83.8-1.43 1.16-1.74 1.43-.06.05-.1.1-.14.14l.17-.8.23-1.17.3-1.65c.18-1.06.33-2.06.46-3.1l.97-7.33.86-4.37c.04.03.08.07.1.15.01-.02.03-.04.04-.05h.1a.9.9 0 0 1 .22.06c.15.05.3.1.38.06-.01.1.82.37.28.35-.05 0-.1-.04-.1-.07l-.1.1c.37.4.9.25 1.34.48-.12-.1-.3-.16-.15-.2l.42.2-.13.06.6.33-.04-.15c.3.2.3.44.73.43.2-.02-.23-.28.12-.18.38.26.95.65 1.47.9.01-.15.15-.1.3-.05l-.03.12c.63.08.1.34.7.46l.17-.12c.06 0 .1 0 .14.01.07.04.15.07.22.1.06.08.1.18.36.17l.6.3-.1.03h.15l1.62.75c-.02.03-.05.06-.1.1.05-.03.12-.05.18-.05.02.01.05.02.07.03-.03.03-.05.05-.1.07zm17-54v.04a5.89 5.89 0 0 0-.57.19c-.2.01.26-.13.57-.23zm-2.23 37.5c.18-.43-.01-.44-.75.17l.5-.64 3.55-.1c-1.7.23-2.74.4-3.3.56zm6.38-8.26c-1 .23-2.3.58-3.68.98a31.25 31.25 0 0 0-1.26-.25c-.92-.18-1.75-.3-2.5-.37-.38-.04-.74-.06-1.1-.07-.24 0-.2-.01-.24-.01l-.06-.01c-.03-.05-.01-.06-.04-.15l-.36-.8a26 26 0 0 1-.68-1.66 49.17 49.17 0 0 1-1.45-4.3c-.67-2.55-1.05-5.36-1-7.9-.17-1.24.28-3.38.42-4.83.07-.18.16-.35.24-.52.05-.5.16-1.08.36-1.55l.02.04c.12-.74.44-1.53.53-1.9l.02.04c.1-.3.2-.57.3-.85l-.01.16a13.81 13.81 0 0 1 1.16-2.66l5.32-1.57.16.98.3 2-.06.14c-.1.08.34.7.25.82l.12.3c0 .1.01.28-.05.13.06.3.08.3.16.5l-.01.32c.2 1.14.57 2.05.82 3.23.18 1.45 1 4.06 1.46 5.56.73 2.1.97 4.68 1.7 6.83 0 .08.08.25.1.25l.46 2 .34 1.4c.2.8.48 1.8.77 2.53.05.13.1.26.16.37a53.61 53.61 0 0 1-2.66.8zm7.04-2.08c-1.37.36-2.6.75-3.87 1.14l-.23-2.05.04.04c-.2-1.1-.35-1.8-.67-2.53.14-.16-.2-.9-.2-1.18l.02.02c-.3-.64-.23-1.4-.5-2.03.02.02.07.02.1.17-.14-.47-.34-1.1-.25-1.16-.3-1.12-.7-2.7-1.06-3.37l.04.04c-.2-.38-.15-.52-.32-.97.01-.03 0-.06.01-.06-.22-.42-.34-1.3-.48-1.65l.06-.04-.24-.9.07.34c-.2-.07-.06-.7-.33-1.32-.13-.6-.67-1.13-.74-1.78-.16-.28.2.23.03-.2.1-.04.1.2.16.06-.15-.43-.08-.74-.27-1.27l.07-.04c-.3-.68-.22-1.36-.46-1.8-.23-.72.1-.54-.2-1.27l.03-.32c-.06-.33-.17-.2-.2-.58.07.01-.05-.47.06-.27-.07-.83-.48-1.63-.5-2.74-.1-.15-.22-1.02-.27-1.25l.58-.17 2.26-.58c.03.05.13.73.17.86l-.07.04c.25.73-.1.3.13 1.04l-.06-.06.06.06.13.1c.28.64-.08.4.28 1.1-.07-.3.13-.17.18.2l-.1-.08c.06.2.1.26.1.4-.06-.1-.12-.04-.04.25l-.13-.18.25.53c.02.45.26 1.1.2 1.3 0 0 .16.94.3 1.13-.1-.17-.02.35-.13.22.13.22.35.92.34 1.22l-.02-.05c.16 1.07.53 1.77.66 2.73.07-.06.15.44.23.3.34.94.22 1.82.64 2.1.13.44.06.54.1.77l-.04-.1c.23.82.32 1.05.47 1.67.12.3.28.3.4.86-.1-.16-.04.06.02.26-.05-.13-.08-.16-.05.12.03.03.06.1.08.14.1.34.1.28.07.12.01.01.02-.01.02-.06.02.37.27.98.18 1.05.3 1.02.6 1.72.9 2.56-.03.1-.13-.08-.22-.32l.2.6c-.08.02-.14-.33-.2-.52.07.75.53 1.45.65 2.32l.1.16v.05c.03-.01.13.16.17.3-.03.14-.16.04-.04.45.03.35.3.93.44 1.35-.05-.24.01-.17.06-.08.06.2.03.35.1.5l-.1.05c.06-.1.24.52.3.58-.03.14-.15-.3-.2-.34l.36 1.25c.2.43.06-.1.2.08.08.25.16.46.22.65l-.06.03zm214.5 52.08v.05c-.01-.02-.01-.05-.02-.07.01 0 .02.01.02.02zm-29.3 7.44h.04c.08.27.15.5.2.58 0 .2-.13-.27-.23-.58zm.28-1.06l-.16-.6-.55-2.27c.05-.03.68-.15.8-.18l.04.07c.74-.24.3.1 1.04-.1l.1-.13c.65-.28.4.08 1.1-.26-.3.07-.17-.13.2-.17l-.08.1c.2-.05.26-.1.4-.1-.1.06-.04.12.25.04l-.18.13.53-.24c.45-.01 1.1-.25 1.3-.18 0 0 .94-.14 1.13-.3-.17.1.35.02.22.13a3.24 3.24 0 0 1 1.22-.32l-.05.02c1.07-.15 1.77-.5 2.74-.62-.06-.07.45-.14.3-.22.95-.33 1.83-.2 2.1-.6.44-.12.54-.05.77-.1l-.1.04 1.67-.45c.3-.1.3-.28.86-.38-.16.1.06.04.26-.02-.13.04-.16.08.12.05.03-.03.1-.06.14-.08 0 0 .02.01.01.01.34-.1.27-.1.1-.08.01-.01-.01-.02-.06-.02.37-.01 1-.26 1.06-.17 1.02-.3 1.73-.6 2.57-.86.1.03-.08.13-.32.2l.6-.18c.02.08-.34.14-.52.2.76-.06 1.45-.5 2.33-.62l.16-.1h.05c-.01-.03.17-.13.3-.17.14.04.03.16.45.04.35-.02.93-.28 1.36-.43-.24.05-.17-.01-.08-.06.2-.06.35-.02.5-.1l.05.1c-.1-.06.52-.24.6-.3.14.04-.3.14-.35.2l1.26-.34c.43-.2-.1-.06.1-.2l.65-.2.01.04c.34 1.37.7 2.6 1.1 3.9l-2.06.2.04-.04c-1.1.2-1.8.33-2.54.64-.16-.14-.9.2-1.18.2h.02c-.65.28-1.42.2-2.04.48.02-.02.03-.07.17-.1-.47.13-1.1.33-1.17.24-1.13.3-2.7.67-3.38 1.02l.04-.04c-.38.2-.53.14-.97.3-.03-.01-.06-.01-.06-.01-.42.2-1.3.33-1.65.46l-.04-.06-.9.23.34-.07c-.07.2-.7.05-1.32.32-.6.12-1.14.66-1.8.72-.28.15.23-.2-.2-.03-.04-.1.2-.1.06-.15-.43.15-.75.07-1.27.26l-.04-.07c-.68.3-1.36.2-1.8.43-.72.22-.54-.1-1.27.2l-.32-.04c-.33.05-.2.17-.58.2.01-.07-.47.04-.27-.06-.84.06-1.64.46-2.74.45-.15.1-.96.23-1.2.27zm29.34.75a42.22 42.22 0 0 1-1.35 1.18c-.96.8-2.06 1.68-3.6 2.75-2.2 1.45-4.74 2.72-7.17 3.5-1.12.56-3.3.82-4.7 1.15-.2-.01-.38-.04-.57-.06-.5.12-1.08.2-1.58.15l.03-.04c-.74.13-1.6.07-1.96.1l.03-.03c-.3 0-.6 0-.9-.02l.16-.04a14.28 14.28 0 0 1-3.77-.44l.06.16-1-.3c-.64-2.5-1.3-4.64-2.2-7.87l1-.15 2-.28.13.06c.08.12.7-.33.82-.24l.3-.12c.1 0 .28-.01.13.05.3-.05.3-.08.5-.16h.32c1.14-.18 2.06-.55 3.24-.78 1.45-.16 4.07-.94 5.58-1.4 2.12-.7 4.7-.9 6.85-1.6.08 0 .25-.08.25-.1l2.02-.44 1.4-.33c.8-.2 1.8-.45 2.54-.74.14-.05.26-.1.37-.15l.75 2.67c.2.86.46 1.92.77 3.08-.14.15-.3.28-.43.42zm7.17-5.2l-1.22-3.34c.76 1.54 1.27 2.47 1.6 2.96-.46-.03-.42.15.4.66l-.77-.28zm37.27 15.78l-1.18.15-1.66.24a73.53 73.53 0 0 0-3.09.56l-7.25 1.43-4.42.6c.01-.05.04-.1.1-.15-.03-.01-.05-.01-.06-.02-.01-.03-.02-.07-.03-.1a1.64 1.64 0 0 1-.02-.23c0-.15 0-.3-.07-.38.1-.02.1-.9.24-.38.01.04 0 .12-.03.1l.12.07c.27-.5-.05-.93.02-1.42-.05.14-.06.34-.13.2l.05-.46.1.1.12-.7-.13.08c.1-.33.32-.43.17-.83-.08-.17-.18.25-.2-.01 0-.03.01-.07.01-.1.12-.44.3-1.08.38-1.63-.15.04-.13-.1-.15-.27l.13-.01c-.12-.63.3-.2.2-.82l-.16-.12a1.13 1.13 0 0 1-.04-.15l.03-.22c.06-.1.15-.14.05-.43l.08-.66.07.1-.06-.17.2-1.74c.03.01.07.03.12.08-.05-.04-.08-.1-.1-.16 0-.02.01-.05.01-.07.03.02.06.03.1.07v.02c.17.1.22.07.32.05.05-.01.1-.02.17-.01a2.18 2.18 0 0 1 .51.17c0-.15.36.02.3-.18.8.01 1.26.73 1.7.26.35.08.36.26.53.34h-.1c.65.15.83.22 1.3.4.25.03.38-.2.78.01-.17.05 0 .1.16.15-.1-.02-.15 0 .03.15.04-.02.1-.02.14-.02v.03c.27.07.24.02.12-.04.01-.01.01-.04-.02-.08.22.23.75.3.72.47.8.28 1.4.35 2.07.6.03.12-.15.12-.35.07l.46.18c-.06.12-.3-.05-.44-.1.44.43 1.2.33 1.7.82l.17-.03.03.04c.02-.05.2-.04.3-.01.03.15-.13.23.17.4.2.22.7.32 1.03.45-.15-.1-.07-.14.02-.13.15.08.17.23.3.26l-.07.14c.02-.17.46.1.55.08.02.15-.27-.06-.36-.01l.87.53c.37.1.03-.16.25-.18.28.16.6.26.84.55l-.01-.18c.54.28.83.53 1.03.9 1.03.53 1.56.98 1.9 1.2.07.04.13.07.18.08-.28.01-.56.04-.83.08zM99.97 317.6l.38-.07c-.01-.01-.1 0-.38.07z"/><path d="M98.26 334.47c.01.01.01.02.02.04-.02-.03-.02-.04-.02-.04zm225.94 80.5l.03.1-.03-.1zm-18.6-13.15c.01-.01.02-.01.04-.02-.03.01-.04.02-.04.02zm29.7 25.68l.1-.03-.1.03zm-4.5-5.8h.02l.1-.03zm-8.52-15.62l-.23.2-.18.14c.04-.01.07.01.4-.35zm-14.46 6.96l.02-.01c.03-.01.07-.03.1-.04l-.1.05zM114.84 314.8h-.02l-.1.03zm-11.14 27v-.18c-.02.01-.02.06.01.18zm-.68-6.9h0c.01.02.02.04.02.05l-.02-.05zm19.34-19.16l-.01.1c.02-.01.02-.04.01-.1zm-.32 3.74h0c-.01-.01-.01-.02-.02-.03l.02.03zm166.72 80.42l-.06-.38c-.01.01 0 .1.06.38zm24.24-3.42l-.18.01c.01.02.05.02.18-.01zm-6.9.6h0c.02-.01.04-.02.05-.02l-.05.02zm40.56 24.06l-.4.01c.02.02.12.03.4-.01zm8.5-2.76c.01-.01.02-.01.03-.02-.02.01-.03.02-.03.02zm-1.05-10.27h0zm-8.98 11.55l-.01-.05.01.05zM73.47 318.5h0l-.06-.17zm274.16 93.73h0l.1.06zm10.67-.08l-.1-.12c-.01.03.01.07.1.12zM65.62 368.13l.12-.4c-.03.01-.07.1-.12.4zm-2.4-12.8v.1-.1zm7.17 26.7l.14-.05c-.02-.02-.06-.02-.14.05zm-4.9-5c0 .01 0 .02.01.04 0-.03-.01-.04-.01-.04zm10.08 2.3h0c-.01.02-.01.03-.02.04l.02-.04zm-8.08-12.2l.05.01c-.03-.01-.04-.01-.05-.01zm18.23-33.2v.02a.34.34 0 0 0 .01.1l-.01-.12zm-7.33 27.24v.04c.01-.01.02-.02 0-.04zm4.84 3.87h0zm-4.82-2.35h0-.01z"/><path d="M77.5 361.84c.23.24.2.42.5.58.12.1.28.2.4.27.14-.05.16.13.3.1l-.02.08c.05-.01.1-.01.1.04l-.01.02c.07-.01.1.04.12.04v.02l.05.03-.03.02c.1.01.16.05.2.12l.05-.07c.06.17.22.07.25.25v.02c.28-.07.12.3.4.24-.03.01-.02.04-.04.06.08.03.16.08.27-.05.05.04.01.07-.03.13.05-.06.1-.05.15-.02l-.04.01.12.07.07-.13c.03.08-.1.15-.02.16l.07-.1c.06.08 0 .26.02.38.28.3.8.33.97.73l-.04.08c-.08.1.2-.08.14.02l.07-.02c0 .03 0 .06-.04.07.03.03.04.01.1 0l-.02.1c.08.15.3.1.4.24.05.25.44.37.67.44.36.04.32.67.7.7 0 .02.04.01.05-.01l.2.2s1.05.9.9-.58l.02-.02c-.08-.15-.15-.23-.32-.18.1-.15-.1-.1-.08-.16h.01c-.16.04-.08-.2-.23-.18.01-.01.04-.04.06-.03-.07-.03-.16-.05-.1-.13-.14-.08-.3-.26-.47-.2l.02-.02c-.1.05-.07-.04-.16-.03.01-.01.01-.02.01-.02-.12.04-.16-.1-.22-.1l.04-.05-.1-.07.03.04c-.13.13 0-.15-.15-.12-.05-.07-.38.2-.4.06-.1.04.12-.1.03-.07.06-.08.06-.03.1-.1-.08 0-.02-.14-.12-.14l.04-.06c-.16.04-.1-.2-.22-.14-.12-.02.08-.22-.1-.17l.03-.1c-.03-.04-.1.08-.1.01.04-.05-.02-.08.04-.1-.03-.15-.27-.04-.3-.27-.1.08-.12-.03-.2.03.03-.04-.12-.1.03-.14.01 0 .02.01.01.02l.05-.05c.02-.16-.17-.04-.23-.1 0 .04.04.05-.01.08l-.06-.06.05-.04-.07-.1-.04.07c-.02-.07.04-.18-.08-.14-.06.03-.02.12-.08.1-.03-.1-.07-.22-.13-.3-.05.07-.07.05-.1.05l.04-.06c-.15.01.07-.15-.06-.15l.04-.03-.12.1c-.17.06.06-.15-.15-.06.04.02-.1.14-.1.08l.06-.05c-.03-.01-.06.01-.06-.01.04-.02.07-.08.03-.1l.08-.05-.14.05c0-.1-.14-.08-.1-.18 0 0-.07-.12-.16-.05.06-.04.02-.1.1-.15-.08.04-.2.03-.17-.06h.01c-.06-.16-.27-.07-.3-.23-.05.07-.08-.01-.13.1-.18 0-.06-.33-.3-.1-.06-.03-.01-.1-.02-.14h.02a.53.53 0 0 1-.2-.13c-.05 0-.16.12-.2.04.06-.03.03-.04 0-.06.02 0 .04-.01.04-.07-.02.01-.03.02-.04.02-.04-.02-.05 0-.04.02-.01.01-.01.02-.02.04.01-.1-.1-.08-.05-.17-.13-.07-.28-.05-.4-.1.02-.05.08-.07.12-.07l-.08-.04c.05-.06.07 0 .1 0 0-.17-.25-.03-.27-.2l-.06.03v-.01c-.02.03-.07.05-.1.04.03-.07.1-.13.05-.16.01-.08-.13-.06-.2-.07.02.03-.01.05-.04.06-.02-.02.01-.08-.03-.07l.06-.08c-.05.08-.12.03-.15.05.03-.07.07-.02.1-.05l-.15-.1c-.1.02-.05.08-.12.12-.06-.02-.14 0-.16-.1l-.04.08c-.12-.02-.17-.06-.17-.17-1.05.03-.72.62-.72.62.13.28.4.2.74.38z" fill="#fff"/><path d="M82.03 355.1v.04c.01-.02.01-.03 0-.04zm4.82 3.86zm-4.82-2.36h0-.01z"/><path d="M81.12 355.75c.23.24.2.42.5.58.12.1.28.2.4.27.14-.05.16.13.3.1l-.02.08c.05-.01.1-.01.1.04v.02c.07-.01.1.04.12.04v.02l.05.03-.03.02c.1.01.16.05.2.12l.05-.07c.06.17.22.07.25.25l-.01.02c.28-.07.12.3.4.24-.03.01-.02.04-.04.06.08.03.16.08.27-.05.05.04.01.07-.03.13.05-.06.1-.05.15-.02l-.04.01.12.07.07-.13c.03.08-.1.15-.02.16l.07-.1c.06.08 0 .26.02.38.28.3.8.33.97.73l-.04.08c-.08.1.2-.08.14.02l.07-.02c0 .03 0 .06-.04.07.03.03.04.01.1 0l-.02.1c.08.15.3.1.4.24.05.25.44.37.67.44.36.04.32.67.7.7 0 .02.04.01.05-.01l.2.2s1.05.9.9-.58l.02-.02c-.08-.15-.15-.23-.32-.18.1-.15-.1-.1-.08-.16h.01c-.16.04-.08-.2-.23-.18.01-.01.04-.04.06-.03-.07-.03-.16-.05-.1-.13-.14-.08-.3-.26-.47-.2l.02-.02c-.1.05-.07-.04-.16-.03.01-.01.01-.02.01-.02-.12.04-.16-.1-.22-.1l.04-.05-.1-.07.03.04c-.13.13 0-.15-.15-.12-.05-.07-.38.2-.4.06-.1.04.12-.1.03-.07.06-.08.06-.03.1-.1-.08 0-.02-.14-.12-.14l.04-.06c-.16.04-.1-.2-.22-.14-.12-.02.08-.22-.1-.17l.03-.1c-.03-.04-.1.08-.1.01.04-.05-.02-.08.04-.1-.03-.15-.27-.04-.3-.27-.1.08-.12-.03-.2.03.03-.04-.12-.1.03-.14.01 0 .02.01.01.02l.05-.05c.02-.16-.17-.04-.23-.1 0 .04.04.05-.01.08l-.06-.06.05-.04-.07-.1-.04.07c-.02-.07.04-.18-.08-.14-.06.03-.02.12-.08.1-.03-.1-.07-.22-.13-.3-.05.07-.07.05-.1.05l.04-.06c-.15.01.07-.15-.06-.15l.04-.03-.12.1c-.17.06.06-.15-.15-.06.04.02-.1.14-.1.08l.06-.05c-.03-.01-.06.01-.06-.01.04-.02.07-.08.03-.1l.08-.05-.14.05c0-.1-.14-.08-.1-.18 0 0-.07-.12-.16-.05.06-.04.02-.1.1-.15-.08.04-.2.03-.17-.06h.01c-.06-.16-.27-.07-.3-.23-.05.07-.08-.01-.13.1-.18 0-.06-.33-.3-.1-.06-.03-.01-.1-.02-.14h.02a.53.53 0 0 1-.2-.13c-.06 0-.16.12-.2.04.06-.03.03-.04 0-.06.02 0 .04-.01.04-.07-.02.01-.03.02-.04.02-.04-.02-.05 0-.04.02-.01.01-.01.02-.02.04.01-.1-.1-.08-.05-.17-.13-.07-.28-.05-.4-.1.02-.05.08-.07.12-.07l-.08-.04c.05-.06.07 0 .1 0 0-.17-.25-.03-.27-.2l-.06.03h0c-.02.03-.07.05-.1.04.03-.07.1-.13.05-.16.01-.08-.13-.06-.2-.07.02.03-.01.05-.04.06-.02-.02.01-.08-.03-.07l.06-.08c-.05.08-.12.03-.15.05.03-.07.07-.02.1-.05l-.15-.1c-.1.02-.05.08-.12.12-.06-.02-.14 0-.16-.1l-.04.08c-.12-.02-.17-.06-.17-.17-1.05.03-.72.62-.72.62.13.3.4.2.74.38z" fill="#fff"/><path d="M142.24 298.14c.03-.01.05-.02.06-.02l.3-.13-.37.15zm-14.52 40.23c0 .01.01.01.01.02 0-.01-.01-.01-.01-.02zm10.28-25.6l.28-.06c-.01-.02-.08-.01-.28.06zm10.85-2.57l-.08.04.08-.04zm3.3 28.5h0l.45-.2zm36.36-81.4h-.04c0 .03.01.03.04-.02zM286.16 385v.02l.04.1zm13.6 2.25l.3-.07-.3.07zM213.2 230.92l.15.45c.01-.01-.02-.13-.15-.45zm59.67 104.56l.04.1c-.02-.08-.03-.1-.04-.1zM220.63 248c-.01-.01-.01-.02-.01-.02l-.07-.1.08.12zm59.54 130.4h.1c-.01-.01-.04-.02-.1-.01zm25.8-4.96c.01 0 .02-.01.02-.01-.01.01-.02.01-.02.01zm-21.6 5.36h0c-.01.01-.02.01-.03.01h.03zM198.7 278.45l.02-.06c-.02.04-.02.05-.02.06z"/><g fill="#fff"><path d="M125.3 326.76h0l.05.02z"/><path d="M128.68 342.23l.02.01c-.2-.32-.06-.75-.26-1.06.02.01.06.01.1.08-.08-.24-.2-.57-.1-.6-.16-.58-.3-1.42-.56-1.76h.03c-.16-.2-.08-.27-.2-.5.01-.02.01-.03.02-.03-.16-.2-.18-.68-.27-.86l.06-.03-.13-.46.03.18c-.2-.02.03-.38-.17-.7-.05-.32-.52-.55-.5-.9-.12-.14.17.1.05-.1.1-.03.08.1.14.02-.1-.22.01-.4-.12-.67l.07-.03c-.22-.34-.07-.72-.25-.94-.15-.37.16-.3-.08-.67l.06-.18c-.02-.17-.15-.1-.15-.3.06 0-.01-.25.08-.15 0-.45-.34-.84-.3-1.44-.15-.1-.14-.4-.26-.46.05-.03-.13-.57.06-.28.02.03.03.07 0 .08l.08.02c.06-.35-.2-.57-.27-.9 0 .1.03.22-.03.15l-.06-.3.07.05-.07-.45-.06.08c-.01-.22.1-.33-.07-.55-.08-.1-.05.23-.13.01l-.1-1.12c-.08.05-.1-.05-.14-.14l.07-.03c-.2-.37.13-.18-.05-.55l-.12-.04c-.23-.3.1-.22-.18-.56.05.15-.14.1-.16-.1l.08.03c-.04-.1-.08-.13-.08-.2.05.05.1.01.06-.14l.1.08-.2-.26c.02-.24-.16-.57-.08-.7 0 0-.07-.5-.2-.58.1.08.05-.2.15-.13-.1-.1-.26-.46-.2-.63l.02.03c-.05-.57-.33-.9-.35-1.42-.08.04-.1-.23-.2-.14-.23-.48 0-.98-.38-1.08-.07-.23.01-.3 0-.4l.03.05-.23-.87c-.07-.15-.23-.14-.26-.44.08.08.04-.04.02-.14.03.07.05.08.06-.07-.02-.02-.04-.04-.06-.07h.01c-.06-.17-.08-.14-.06-.05-.01 0-.02.01-.03.04.04-.2-.13-.52-.03-.56-.15-.53-.35-.9-.5-1.33.04-.06.12.03.17.16l-.1-.3c.08-.02.1.17.13.27.04-.4-.3-.75-.3-1.22l-.08-.08v-.03c-.03.01-.1-.08-.13-.14.05-.08.16-.03.1-.25.02-.2-.15-.5-.24-.7.02.13-.03.1-.07.05-.03-.1.02-.2-.02-.27l.1-.03c-.08.06-.16-.27-.2-.3.05-.08.1.16.16.17l-.17-.66c-.12-.22-.08.06-.18-.03-.07-.2-.18-.4-.18-.64l-.06.1c-.16-.38-.2-.6-.18-.9-1.35-2.75-1.05-.4-1.05-.4.1 1.2.47 1.72.85 3.07.24 1.2.16 1.56.52 2.8l.47 1.8c.2.25.18.76.36 1.06l-.04.14c.06.1.12.23.1.35h-.02c.1.15.1.35.15.43h-.02l.06.2-.04-.03c.12.28.2.58.24.85l.08-.04c.04.6.26.75.27 1.3h-.02c.38.6.1 1.06.46 1.67-.05-.08-.04.05-.06.04.1.3.2.63.35.6.05.22-.01.2-.07.24.07-.02.15.17.2.34l-.05-.07.14.5.1-.13c.02.27-.15.1-.06.35l.1-.03c.06.37-.06.63-.06 1 .3 1.5.96 3 1.1 4.42l-.07.08c-.12.06.27.34.17.4l.1.15c-.01.05-.01.15-.06.08.03.15.05.15.1.24l-.04.18c.08.6.34 1.06.46 1.68.02.77.5 2.13.76 2.9.45 1.08.26 2.5.75 3.6-.01.04.05.13.07.12l.23 1.06s1.16 5.1 1.28 1h.03c-.07-.6-.14-.96-.37-1.32.2-.14-.04-.52-.02-.66zm116.3-61.53h0l.14.12zm-13.3 9.08c-.01.01 0 .06.08.18l-.08-.18zm-3.16-6.7l.05.05z"/></g><path d="M232.9 465.62l.03.04c-.02-.03-.03-.04-.03-.04zm-1.65-.62l-.1.57c.02-.01.05-.15.1-.57z"/><g fill="#fff"><path d="M171.15 300.46h0l.08-.1z"/><path d="M205.82 261.5v-.1l-1.48 4c-.23.12-.57 1.4-.78 1.77v-.04c-.3 1.1-.97 2.1-1.27 3.14 0-.04-.03-.08.06-.3-.28.73-.66 1.74-.78 1.75l-2.2 5.25.01-.1c-.2.67-.37.8-.65 1.52-.03.03-.06.08-.06.07-.23.72-.96 1.95-1.2 2.5h-.08l-.7 1.3.3-.47c.06.25-.64.92-1.1 1.9-.54.84-.77 1.92-1.47 2.72-.23.45.15-.43-.24.2-.1-.04.16-.3-.02-.2-.4.6-.8.9-1.33 1.6h-.08c-.67.97-1.56 1.55-2.04 2.16-.83.88-.75.37-1.6 1.3l-.44.23c-.44.3-.23.33-.73.65-.01-.07-.63.4-.4.15-1.14.7-2.17 1.66-3.8 2.4-.28.3-1.1.66-1.3.88-.06-.01-1.6.8-.76.26.07-.05.2-.1.2-.1l.07-.12c-.97.32-1.6.9-2.53 1.3.28-.1.64-.28.42-.12l-.85.38.15-.14-1.28.55.2-.01c-.63.25-.9.22-1.58.62-.3.2.64-.16-.02.15l-3.25 1.17c.13.04-.16.15-.45.3l-.06-.06c-1.1.55-.48.02-1.6.54h0l-.16.17c-.98.54-.62.07-1.7.7.45-.2.27.07-.3.26l.12-.12-.6.27c.17-.1.06-.14-.4.05l.27-.2-.82.45c-.7.18-1.72.67-2.03.67 0 0-1.46.5-1.75.72.27-.17-.54.1-.34-.06-.35.2-1.43.68-1.9.76l.08-.04c-1.66.52-2.75 1.14-4.26 1.57.1.06-.7.3-.47.33-1.48.65-2.85.8-3.28 1.3-.7.26-.85.22-1.2.33l.16-.08-2.63.96c-.47.2-.5.38-1.37.65.26-.16-.1-.02-.4.1.2-.08.26-.13-.18-.02-.05.04-.14.08-.22.12-.01 0-.02 0-.02-.01-.53.2-.43.2-.18.12-.01.01.02.02.1.01-.6.12-1.56.56-1.66.48l-4.07 1.62c-.17 0 .13-.16.5-.3l-.95.35c-.02-.08.54-.24.82-.35-1.18.28-2.3.94-3.7 1.3l-.26.16-.08.02c.02.03-.27.18-.47.26-.2 0-.04-.16-.7.08-.55.12-1.48.55-2.15.82.37-.12.27-.04.12.04-.33.12-.54.12-.8.23l-.06-.08c.16.04-.83.4-.94.47-.2 0 .5-.23.56-.3l-2 .7c-.7.3.16.04-.15.24l-1.95.7h.25c-1.16.46-1.86.7-2.7.9-8.56 3.63-1.55 1.5-1.55 1.5 3.52-1 5.22-1.84 9.3-3.32l8.36-2.75 5.4-1.95c.78-.4 2.3-.8 3.23-1.26l.4-.07c.32-.15.7-.32 1.06-.4v.03c.48-.23 1.06-.4 1.3-.52l-.01.03.6-.23-.1.07 2.56-.96-.1-.06 3.87-1.37-.01.03c1.86-.92 3.12-.98 5.03-1.93-.24.12.12 0 .1.03.9-.36 1.88-.75 1.84-.92.67-.25.56-.16.67-.13-.03-.07.54-.32 1.06-.52l-.23.12 1.48-.6-.34-.02c.8-.27.26.1 1-.24l-.05-.1c1.1-.4 1.8-.5 2.9-.84 4.4-1.73 8.9-4.18 12.65-6.56l.2-.04c.15.06.87-.9 1.08-.9l.38-.36c.13-.07.38-.25.2-.06.37-.3.37-.33.6-.58l.45-.27c1.46-1.22 2.48-2.5 3.75-4.02.8-.9 1.8-2.3 2.67-3.82.86-1.52 1.62-3.1 2.15-4.26 1.44-3.3 3.56-6.94 4.75-10.43a1.63 1.63 0 0 0 .13-.41l1.26-3.12s1.5-3.8 2.25-6.2c.73-2.5.85-3.47-1.8 2.13zm106.73 110.68l.02-.03c-.67.06-1.08.12-1.5.35-.1-.16-.54.1-.7.06l.01-.02c-.38.2-.85.05-1.2.24.01-.02.01-.06.1-.08-.28.08-.65.2-.7.1-.67.15-1.6.3-2 .53l.02-.03c-.22.15-.3.08-.58.18-.02-.01-.04-.01-.04-.02-.25.16-.78.17-.98.25l-.03-.06-.53.12.2-.02c-.03.2-.42-.04-.8.15-.37.05-.66.52-1.05.5-.16.12.13-.17-.12-.05-.03-.1.1-.08.03-.14-.25.1-.45-.01-.76.1l-.03-.07c-.4.2-.82.06-1.07.24-.42.14-.33-.16-.76.07l-.2-.07c-.2.02-.12.15-.34.14 0-.07-.28 0-.17-.08-.5 0-.96.33-1.63.3-.12.15-.45.14-.54.25-.03-.05-.65.12-.3-.07.03-.02.08-.02.08 0l.03-.08c-.4-.07-.65.2-1.02.25.1 0 .25-.03.17.04l-.34.05.06-.07-.5.06.08.06c-.25.01-.36-.1-.62.06-.1.08.25.06 0 .13l-1.27.1c.06.08-.06.1-.17.13l-.03-.07c-.42.2-.2-.13-.62.04l-.06.12c-.37.22-.24-.1-.65.17.17-.05.1.15-.1.16l.04-.08c-.12.04-.15.07-.23.08.06-.05.02-.1-.15-.06l.1-.1-.3.2c-.27-.03-.66.15-.78.07 0 0-.56.06-.66.2.1-.1-.2-.06-.14-.15-.13.1-.54.25-.72.2l.03-.02c-.64.04-1.04.32-1.62.32.04.08-.26.1-.17.2-.56.22-1.1-.02-1.24.36-.26.07-.33-.02-.47-.01l.06-.03-1 .2c-.18.07-.17.23-.5.25.1-.08-.04-.05-.16-.02.08-.02.1-.05-.07-.06-.02.02-.05.04-.08.06v-.01c-.2.06-.16.07-.06.06 0 .01.01.02.04.03-.23-.04-.6.12-.64.02-.6.14-1.03.34-1.53.48-.07-.04.04-.12.2-.17l-.36.1c-.01-.08.2-.1.3-.12-.46-.05-.87.3-1.4.28l-.1.08h-.03c.01.03-.1.1-.17.12-.08-.06-.03-.16-.28-.1-.2-.03-.56.14-.8.23.14-.02.1.03.05.07-.12.03-.2-.03-.3.02l-.03-.1c.07.08-.3.16-.35.2-.08-.06.18-.1.2-.15l-.75.16c-.25.12.07.08-.05.18-.23.06-.45.17-.73.17l.1.07c-.43.15-.7.2-1.02.16-3.18 1.3-.52 1.05-.52 1.05 1.34-.07 1.97-.44 3.5-.8 1.37-.22 1.76-.13 3.17-.46l2.05-.44c.3-.18.87-.17 1.22-.34l.16.04c.12-.06.27-.1.4-.1v.02c.18-.1.4-.1.5-.14h0l.23-.05-.03.04a3.87 3.87 0 0 1 .97-.22l-.04-.08c.66-.03.87-.25 1.47-.25h0c.7-.37 1.2-.07 1.9-.43-.1.04.05.04.05.06.34-.1.72-.18.7-.34.26-.05.22.01.26.07-.02-.07.2-.15.4-.2l-.1.05.57-.13-.14-.12c.3-.02.1.15.4.07l-.03-.1c.42-.06.7.07 1.12.08 1.7-.27 3.44-.9 5.04-1l.1.07c.05.12.4-.27.48-.16l.17-.1c.06.01.17.02.08.06.17-.03.17-.05.28-.1l.2.04c.68-.07 1.2-.33 1.92-.43.87 0 2.42-.45 3.32-.7 1.24-.43 2.83-.22 4.1-.68.05.01.15-.05.15-.07l1.2-.2c0-.07 5.82-1.14 1.2-1.34zm-78.58-80.88l-3.22-5-2.22-3.2c-.44-.42-.92-1.36-1.4-1.88l-.1-.27c-.17-.18-.35-.4-.45-.62h.03c-.25-.27-.45-.62-.57-.76h.03l-.25-.36.07.05a14 14 0 0 1-1.07-1.51l-.05.1c-.6-1.07-1-1.34-1.53-2.32h.03c-.97-1.03-1.1-1.9-2.1-2.98.12.13-.01-.1.02-.1-.4-.53-.8-1.1-.95-1.03-.27-.4-.18-.36-.16-.44-.06.04-.32-.3-.54-.6l.12.13-.63-.88v.25c-.3-.5.06-.22-.27-.65l-.1.07c-.42-.67-.54-1.15-.9-1.83l-5.36-7.93v-.16c.08-.12-.6-.58-.56-.74l-.23-.26c-.03-.1-.12-.28 0-.15-.16-.27-.18-.27-.34-.44l-.1-.33c-.6-1.1-1.3-1.93-1.94-3.08-.68-1.44-2.26-3.97-3.16-5.44-1.32-2.04-2.14-4.78-3.4-6.9-.02-.08-.14-.25-.16-.24l-.94-2.06-1.87-4.03c-.72-1.53-1.27-2.06-.13 2.02l-.05-.04c.43 1.17.74 1.9 1.23 2.62-.1.2.4.94.5 1.23l-.02-.02c.45.63.57 1.47 1 2.07-.02-.02-.07-.01-.15-.16.26.47.6 1.1.54 1.2l1.9 3.4-.05-.04c.3.36.3.53.6.96 0 .03.01.07.01.06.33.4.72 1.3.96 1.63l-.05.06.5.88-.17-.34c.22.03.27.72.74 1.3.32.6 1 1.02 1.3 1.68.25.25-.27-.2.04.22-.07.06-.17-.17-.17-.02.3.4.33.75.7 1.25l-.05.06c.52.62.7 1.35 1.1 1.73.5.67.1.6.68 1.24l.1.34c.18.32.25.16.43.53-.07.01.24.46.06.3.42.83 1.13 1.5 1.67 2.6.25.15.53.7.72.8-.03.06.68 1.02.2.52-.04-.04-.1-.13-.08-.14l-.1-.03c.27.65.77 1 1.14 1.58-.1-.18-.25-.4-.1-.28l.35.53-.13-.08.5.8-.01-.15c.23.4.2.6.6 1 .18.16-.16-.42.13-.03l1.2 2.03c.03-.1.15.07.28.24l-.05.06c.56.64.04.35.57 1l.17.06c.55.54.1.42.74 1-.2-.27.05-.22.25.13l-.12-.05c.14.18.2.22.28.36-.1-.1-.13 0 .07.27l-.2-.13.46.45c.2.44.72 1.03.74 1.25 0 0 .54.9.77 1.03-.17-.13.12.36-.03.27.22.18.72.8.83 1.1l-.1-.06c.6 1.02 1.23 1.6 1.74 2.54.04-.1.32.4.33.22.7.85.93 1.78 1.44 1.92.3.4.26.53.4.76l-.08-.1 1.08 1.56c.22.27.38.22.7.76-.16-.13-.01.07.12.26-.1-.12-.14-.14 0 .13.04.02.1.07.13.12 0 0 0 .02-.01.02.24.3.2.24.12.1.01 0 .01-.02 0-.07.16.38.63.92.57 1.03l1.8 2.35c.01.12-.15-.04-.33-.26l.4.56c-.07.04-.26-.3-.4-.47.35.75 1.05 1.32 1.5 2.2l.16.13.02.05c.03-.02.18.13.27.24.02.15-.14.08.13.47.15.35.63.86.93 1.25-.14-.23-.06-.18.03-.1.14.2.15.35.28.48l-.07.07c.02-.13.43.46.5.5.02.15-.26-.27-.33-.3l.8 1.18c.34.38.02-.13.23.03.27.36.57.7.8 1.14l-.02-.18c.53.66.8 1.08 1.05 1.6 4.08 4.8 1.5.57 1.5.57-1.24-2.15-2.16-3.07-3.86-5.46z"/><path d="M277.06 353.75l1.48 5.42 3 10.62c1.2 4.05 1.9 5.57-.3-4.57l.06.13-1.94-6.87c.08-.37-.66-2.44-.8-3.15l.03.06c-.63-1.77-.93-3.76-1.54-5.47.03.06.1.1.2.5l-.84-3.1-2.77-9.16.07.13c-.43-1.07-.43-1.42-.85-2.64-.01-.07-.03-.16-.02-.15-.45-1.17-1.06-3.5-1.4-4.46l.04-.08-.75-2.38.26.9c-.27-.25-.45-1.84-1.1-3.53-.5-1.62-1.4-3.16-1.9-4.85-.35-.77.37.65-.1-.5.08-.07.25.53.2.2-.43-1.15-.58-1.94-1.2-3.35l.05-.1-1.14-2.56-1.04-2.04c-1-1.78-.45-1.32-1.6-3.13l-.33-.77c-.44-.8-.43-.5-.9-1.4.1.02-.6-1.13-.25-.65-1.08-2.02-2.5-3.9-3.97-6.56-.45-.5-1.2-1.8-1.55-2.17 0-.1-1.63-2.57-.6-1.2.1.12.22.34.2.33l.17.13c-.8-1.53-1.76-2.58-2.67-4 .26.44.63 1 .34.65l-.85-1.33.23.24-1.27-1.98.12.3c-.6-.98-.72-1.4-1.53-2.4-.38-.46.52.96-.17-.03l-3.12-4.9c.03.2-.26-.24-.58-.68l.03-.1c-1.26-1.66-.3-.72-1.53-2.38l-.3-.24c-1.18-1.46-.44-.92-1.8-2.5.48.67.08.4-.46-.44l.2.17-.66-.9c.22.25.2.08-.3-.58l.4.4-1-1.2-1.98-3-1.86-2.56c.35.38-.44-.8-.14-.5-.45-.5-1.63-2.08-2.02-2.77l.1.12-4.4-6.2c0 .15-.76-1-.66-.66-1.65-2.15-2.7-4.15-3.5-4.76-.7-1-.75-1.25-1.1-1.78l.18.23-2.6-3.9c-.48-.7-.68-.74-1.45-2.06.3.4-.02-.14-.32-.62.2.3.28.4-.08-.27-.07-.08-.17-.2-.26-.34 0-.01-.01-.04 0-.03-.52-.8-.44-.66-.23-.27-.02-.01-.01.02.05.15l-1.33-2.56-3.57-6.4c-.07-.26.23.2.56.82l-.78-1.5c.08-.02.48.85.73 1.3l-1.36-2.82s-1-1.98-1.4-3.08l-.25-.43-.04-.13c-.03.02-.27-.45-.42-.77-.06-.34.16-.04-.3-1.12l-1.45-3.56c.22.62.1.43-.01.18l-.44-1.3.07-.08c-.02.25-.6-1.4-.7-1.6-.04-.34.34.84.44.97l-1.12-3.34c-.43-1.18-.02.25-.27-.3l-1-3.3.03.4c-.6-2-.9-3.2-1.12-4.6l-1.33-5.4h-.56a15.39 15.39 0 0 0 .08.71l.23 1.68c.46 3.06 1.08 5.32 1.75 7.7l2.84 8.3c2.23 6.03 2.76 7.68 5.8 13.63l1.1 2.16 1.2 2.14c.8 1.42 1.6 2.84 2.45 4.15.9 1.18 2.1 3.5 3.22 4.86l.32.6c.37.48.8 1.05 1.1 1.57l-.04-.02c.55.7 1.1 1.57 1.38 1.9l-.04-.02.64.88-.13-.13a86.59 86.59 0 0 1 2.68 3.71v-.15c1.67 2.53 2.46 3.33 3.94 5.62l-.04-.02c2.17 2.7 3 4.55 5.22 7.35-.28-.35.07.18.03.16.96 1.33 1.96 2.76 2.12 2.7.68.98.5.83.54 1 .06-.05.67.8 1.2 1.55l-.27-.34 1.53 2.2-.18-.5c.77 1.2.06.4.85 1.5l.1-.08c1.1 1.63 1.6 2.68 2.58 4.3 4.37 6.55 9.28 13.48 12.84 19.88l.1.32c-.03.18 1.18 1.65 1.22 1.95l.48.7c.1.22.33.67.1.3.4.68.4.7.7 1.17l.33.78c1.4 2.76 2.72 5.03 3.76 8.1l4.78 14.84c1.9 5.7 3.3 12.55 5.17 18.4.05.13.23.62.24.6z"/></g><path d="M335.98 411.24l.04-.01c-.02-.01-.03-.01-.04.01zm2.12-5.8h0zm-.7 5.32h0v.01z"/><path d="M336.9 411.9c.15-.3.33-.32.4-.66.07-.15.1-.32.13-.48-.1-.1.07-.2 0-.32l.08-.01c-.02-.04-.03-.08.01-.1l.02.01c-.04-.06.01-.1 0-.13h.02l.01-.06.02.02c-.03-.1 0-.17.05-.23l-.08-.02c.14-.1-.01-.23.15-.32h.02c-.15-.24.24-.2.1-.45.02.03.05.01.06.02.01-.1.02-.18-.14-.24.02-.06.07-.03.13-.01-.07-.03-.08-.1-.07-.13v.03l.02-.14-.14-.02c.06-.05.17.04.16-.03l-.1-.04c.06-.1.24-.08.36-.14.2-.36.05-.87.38-1.15l.1.01c.12.04-.14-.16-.03-.14l-.04-.06c.03 0 .06-.02.08.01.02-.04 0-.04-.03-.08l.1-.01c.1-.13.01-.3.1-.45.22-.13.2-.54.2-.77-.07-.35.53-.5.43-.88.02 0-.01-.04-.02-.05l.12-.26s.53-1.3-.84-.66l-.02-.02c-.12.12-.17.2-.07.36-.17-.04-.06.12-.13.13l-.01-.01c.1.14-.17.15-.1.28-.01-.01-.06-.03-.05-.05 0 .07 0 .17-.1.14-.03.16-.15.35-.04.5h-.02c.08.1-.01.08.02.16h-.03c.08.1-.05.18-.02.25l-.06-.02-.03.12.03-.04c.17.08-.14.05-.06.18-.05.07.3.3.18.35.07.07-.12-.08-.08 0-.1-.03-.05-.05-.12-.06.02.07-.13.06-.1.16l-.07-.02c.1.14-.16.15-.06.25.02.12-.23-.01-.13.14h-.1c-.03.04.1.07.04.1-.06-.02-.07.04-.12-.01-.13.08.05.27-.16.36.1.07.01.12.1.18-.05-.01-.06.14-.14.02-.01-.01 0-.02.02-.01l-.07-.04c-.16.03.02.18-.03.25.03-.02.04-.05.08-.01l-.04.07-.05-.04-.08.1.08.01c-.06.04-.2.02-.1.12.05.05.12-.02.12.05-.08.06-.2.14-.25.23.08.02.07.05.08.08l-.07-.02c.06.14-.17-.02-.13.1l-.05-.03.14.08c.1.14-.16-.01-.01.16 0-.04.16.04.1.08l-.06-.04c0 .03.03.05.01.06-.03-.03-.1-.04-.1 0l-.08-.06.1.12c-.1.03-.04.16-.14.14 0 0-.1.1 0 .17-.06-.05-.1.01-.17-.04.06.06.1.18 0 .18v-.01c-.13.1.02.28-.12.37.08.02.01.07.12.1.06.17-.3.16.01.32 0 .07-.1.04-.13.07l-.01-.02c-.01.12-.02.15-.06.23.02.05.16.1.1.17-.05-.05-.05-.01-.06.02 0-.02-.02-.03-.08-.01.02.01.02.02.03.03-.02.05.01.05.02.03.01 0 .02.01.04.01-.1.02-.04.13-.15.1-.03.15.04.28.04.4-.06-.01-.1-.05-.1-.1l-.01.1c-.08-.03-.03-.06-.03-.1-.16.05.05.24-.1.32l.05.05h-.01c.03.01.07.05.07.07-.07-.01-.15-.06-.17 0-.08.02-.01.14 0 .2.02-.03.06 0 .07.02-.01.03-.08.02-.06.05l-.1-.03c.1.02.06.1.1.13-.07-.01-.04-.06-.1-.1l-.05.17c.04.08.1.02.16.08 0 .06.04.13-.04.18l.1.01c.02.12-.01.18-.1.22.37.98.82.48.82.48.27-.25.1-.48.16-.85z" fill="#fff"/><path d="M329.05 409.76l.04-.01c-.01 0-.03 0-.04.01zm2.12-5.8zm-.7 5.32h0l.01.01z"/><path d="M329.96 410.4c.15-.3.33-.32.4-.66.07-.15.1-.32.13-.48-.1-.1.07-.2 0-.32l.08-.01c-.02-.04-.03-.08.01-.1l.02.01c-.04-.06.01-.1-.01-.13l.02.01v-.06l.02.02c-.03-.1 0-.17.05-.23l-.08-.02c.14-.1-.01-.23.15-.32l.02.01c-.15-.24.24-.2.1-.45.02.03.05.01.06.02.01-.1.02-.18-.14-.24.02-.06.07-.03.13-.01-.07-.03-.08-.1-.07-.13l.02.03.02-.14h-.14c.06-.05.17.04.16-.03l-.1-.04c.06-.1.24-.08.36-.14.2-.36.05-.87.38-1.15l.1.01c.12.04-.14-.16-.03-.14l-.04-.06c.03 0 .06-.02.08.01.02-.04 0-.04-.03-.08l.1-.01c.1-.13.01-.3.1-.45.22-.13.2-.54.2-.77-.07-.35.53-.5.43-.88.02 0-.01-.04-.02-.05l.12-.26s.53-1.3-.84-.66l-.02-.02c-.12.12-.17.2-.07.36-.17-.04-.06.12-.13.13l-.01-.01c.1.14-.17.15-.1.28-.01-.01-.06-.03-.05-.05 0 .07 0 .17-.1.14-.03.16-.15.35-.04.5l-.02-.02c.08.1-.01.08.02.16h-.03c.08.1-.05.18-.02.25l-.06-.02-.03.12.03-.04c.17.08-.14.05-.06.18-.05.07.3.3.18.35.07.07-.12-.08-.08 0-.1-.03-.05-.05-.12-.06.02.07-.13.06-.1.16h-.07c.1.14-.16.15-.06.25.02.12-.23-.01-.13.14h-.1c-.03.04.1.07.04.1-.06-.02-.07.04-.12-.01-.13.08.05.27-.16.36.1.07.01.12.1.18-.05-.01-.06.14-.14.02-.01-.01 0-.02.02-.01l-.07-.04c-.16.03.02.18-.03.25.03-.02.04-.05.08-.01l-.04.07-.05-.04-.08.1.08.01c-.06.04-.2.02-.1.12.05.05.12-.02.12.05-.08.06-.2.14-.25.23.08.02.07.05.08.08l-.07-.02c.06.14-.17-.02-.13.1l-.05-.03.14.08c.1.14-.16-.01-.01.16 0-.04.16.04.1.08l-.06-.04c0 .03.03.05.01.06-.03-.03-.1-.04-.1 0l-.08-.06.1.12c-.1.03-.04.16-.14.14 0 0-.1.1 0 .17-.06-.05-.1.01-.17-.04.06.06.1.18 0 .18l-.01-.01c-.13.1.02.28-.12.37.08.02.01.07.12.1.06.17-.3.16.01.32 0 .07-.1.04-.13.07h-.01c-.01.12-.02.15-.06.23.02.05.16.1.1.17-.05-.05-.05-.01-.06.02 0-.02-.02-.03-.08-.01.02.01.02.02.03.03-.02.05.01.05.02.03.01 0 .02.01.04.01-.1.02-.04.13-.15.1-.03.15.04.28.04.4-.06-.01-.1-.05-.1-.1v.1c-.08-.03-.03-.06-.03-.1-.16.05.05.24-.1.32l.05.05h-.01c.03.01.07.05.07.07-.07-.01-.15-.06-.17 0-.08.02-.01.14 0 .2.02-.03.06 0 .07.02-.01.03-.08.02-.06.05l-.1-.03c.1.02.06.1.1.13-.07-.01-.04-.06-.1-.1l-.05.17c.04.08.1.02.16.08 0 .06.04.13-.04.18l.1.01c.02.12-.01.18-.1.22.37.98.82.48.82.48.28-.24.1-.47.17-.85z" fill="#fff"/><path d="M405.76 331.53v-.1c-.01.07-.01.1 0 .1z"/></svg>