<svg xmlns="http://www.w3.org/2000/svg" viewBox="0 0 480 480" xmlns:v="https://vecta.io/nano"><g fill="#fff"><path d="M322.14 76.57l-3.26 3.63.36-.83c.6-1.5-.4-2.9-.4-2.9s-5.6 3.4-6.8 5.1c-1.2 1.6-2.8 3.8-2.8 6.3 0 2-.4 7.6-.8 8.9-.7 2.7-12.1 21.4-12.1 21.4l12.6 8.1 10.1-23.57 1.2-1.43s3.3-4.1 4.3-5.6c1.1-1.4 5.4-18.04 5.4-18.04l-7.8-1.06zm-124.5 115.8h75.4l-.8-12.9h-72.2l-2.4 12.9zm5-26.1h68.8l-1-13h-65.4l-2.4 13zm7.5-39.8c-.8 3.4-1.6 7.2-2.2 11.5-.12.5-.22 1-.3 1.5h61.2c-.8-4.2-2.3-8.6-4.2-12.9l-54.5-.1z"/><path d="M241.22 156.44c1.08-7.58 3.62-26.8 3.22-38.48-.5-14.1-9.5-19.6-19.4-19.7-14.3-.3-20.6 8.9-27.3 22-4.83 9.45-7.53 24-8.66 31.38l-10.64-.98-8.4 54.7c-1.3 12.2-1.9 29.7 35.6 33.9 33.7 3.8 40-6.4 42.4-24.7s5.4-57 5.4-57l-12.22-1.12zm-46.26-4.25l41.58-26.02-3.78 29.5-37.8-3.48z"/></g><path d="M170.8 223.45c-.01-.02-.01-.03-.02-.04l-.1-.2c.04.08.07.16.12.24h0z"/><path d="M244.14 156.77l-5.3 56.9c-2 15.8-6.8 25.6-28.5 26 29.6 2.3 35.5-7.7 37.8-25.1 2.3-18.3 5.4-57 5.4-57l-9.4-.8zm2.8-19.4c.1-1.4-.7-1.7-1.5-1.6s1.2-.1.9-1.5c-.3-3.3-5.1-1.2-9.7-.7-1.3.3-1.1-.9-.8-2 .3-1 .4-2.4 1-4.8.6-2.5-.7-2.6-.7-2.6-2 2.1-2.6 3.9-3.7 5.4-1.6 1.4-3.3 3.6-4.6 4.3s-5.2 3.1-15.6 4.4l-7.55.65 2.68 16.16 24.57-8.1s.9-.2 2.9-.2 5.3 0 7.7-1.5c2.3-1.5 1.5-2.4 1.5-2.4s.9-.8 1.3-1.2c1.1-1.2.1-2.1.1-2.1s1.2-.3 1.5-2.2h0zm80-62.6c-.9-.4-3.2-.8-3.6.7-.27 1.08 1.1 2.48 2.83 3.12l-1.23-.12c-1.1-.1-3.7.2-3.9 1.7-.15.96.97 1.97 2.53 2.4h-.13c-.9 0-3.2.5-3.1 2 .12.7.92 1.3 1.96 1.67-1.02.32-2.74 1.23-2.66 2.33.1 1 2 1.8 3.7 1.4 1.8-.1 2.7-.8 2.6-2.3-.04-.58-.47-.94-1-1.17 1.83-.4 3.1-1.02 3.1-2.63-.04-.67-.56-1.02-1.24-1.2 1.5-.23 2.5-.9 2.74-2.2.13-.76-.55-1.2-1.44-1.5 1.16.01 1.86-.5 2.24-1.7.5-1.6-2.5-2.1-3.4-2.5h0zm-129.58 58.7l-.45.02.04.36c.03.01.1.07.08.1.8 2.6.44 5.83 1.18 8.4.44 1.85 1.2 5.07 1.22 6.84.18 1.45.62 2.57.74 3.95l-.07.4c.1.24.14.24.2.6-.08-.18-.08.05-.1.16l.16.36c-.18.15.48.9.28 1l-.12.17c.1 1.64.4 3.37.76 5.12l.53 2.64.23 1.22.05.35c.1.12.24.4 1.24.2l-.05-.2c.57-.2.17.13.8.05l-.28-.18 1.15-.3-.18.1c.4-.1.84-.26.8-.38.1.1.02.2.53.08-.06-.28.7-.48 1.4-.68 0 .04.1.05.05.1.1-.13.14-.16.23-.17 0-.1.07-.13.06-.38-.03-.5-.15-.98-.35-1.44l.04.01c-.01-1.23-.4-1.67-.45-3.02l-.13.08c-.06-.63-.18-1.33-.4-2l.06.07-.1-.47h.04c-.08-.2-.1-.64-.25-1.02h.04c.02-.27-.07-.58-.17-.83l.07-.32c-.3-.73-.28-1.9-.6-2.5l-.77-4.22c-.6-2.9-.45-3.68-.84-6.5-.64-3.18-1.27-4.5-1.4-7.23 0 0-.06-.66-.04-1.24-1.84.43-5.3.72-5.23.72v-.02zm5.94-.93c.2.4.37.8.53 1.22l-.3-1.8-.4.04c.6.18.57.36.18.53v.01z" fill="#fff"/><path d="M327.88 74.56l2.82-6.3a1.88 1.88 0 0 0-.2-1.87c-.38-.52-.97-.8-1.58-.74l-3.9.2c-1.14.04-1.55.84-1.98 1.7l-.3.55-3.63 7.36c-.02-.03-.04-.05-.06-.08l-2.97 1.98-2.7 2.03-1.27 1.07c-.2.18-.37.37-.54.58l-.4.52-1.38 1.96c-.4.67-.77 1.4-1.05 2.3-.13.46-.24.96-.28 1.52l-.03 1.67-.55 6.82c-.01.53-.17 1.07-.5 1.75l-.9 1.92-.3.4c-.17.4-.38.85-.63 1.2l-.01-.03c-.26.6-.64 1.2-.77 1.5l-.01-.03-.38.68.04-.13-1.6 2.88.12-.03-2.53 4.25v-.03c-.4 1.27.85 1.1 3.62-3.58-.12.03.42-.8.2-.65.88-1.75 1.96-3 2-3.78.42-.8.58-.9.8-1.28l-.08.2 1.53-3.06c.12-.3.15-.48.2-.74l.26-1.13c-.01.38.07-.1.13-.5-.03.27-.02.35.1-.2-.01-.08 0-.2 0-.3.01 0 .01-.03.02-.01.06-.7.03-.58-.02-.26-.01-.02-.02.01-.05.1.17-.7.2-2 .3-2.08.15-2.08.12-3.6.1-5.3.07-.17.1.18.1.7l.04-1.18c.07.03-.02.63.01 1.03.06-.73.1-1.37.3-2.1a6.75 6.75 0 0 1 .97-2.13l.13-.33.06-.08c-.03-.01.13-.35.27-.57.2-.16.12.1.6-.58l.37-.46a1.43 1.43 0 0 0 .14-.2c.02.14.08.2.18.17.2-.04.54-.3.55-.3.78-.5 1.04-1 1.95-1.78.88-.58 1.2-.6 2.07-1.27l1.3-.9c.12-.22.1-.07.2-.24v-.01c0 .03-.01.07-.02.1.02-.04.05-.04.04.02l-.01.02c.05-.03.04.03.06.02l-.02.01.02.03-.03.01c.02-.03.1.12.1.2.03.1.04.2.04.3l.08-.03c-.06.4.1.57-.1.9l-.02-.01c.06.54-.44.72-.5 1.3.01-.07-.05 0-.07-.01-.1.23-.23.48-.1.57-.1.16-.13.1-.2.1.06.04 0 .2-.08.32l.01-.07-.23.36.16.02c-.17.16-.17-.06-.27.14l.1.07c-.22.23-.47.27-.74.43l-.94 1-.5.5-.26.23-.43.32-.08.43-.07.3a4.16 4.16 0 0 1-.16.5l-.1.04c-.13 0 .12.37 0 .4l.03.15c-.03.03-.07.1-.1.04-.03.13-.01.13.01.23l-.1.12c-.16.5-.1.95-.25 1.48-.3.6-.42 1.83-.54 2.5-.02.25-.1.5-.2.76l-.47 1.1c.04.1.1.2.16.3l.1.15c.03.02.05.02.1.04l.57.38c.15.04.35.07.4.06.02.03.1.01.1-.01.27.1.53.2.78.34l1.57.8c.6.3 1.05.25-.13-1.17l.04-.01c-.42-.33-.7-.52-1.1-.55.02-.2-.4-.2-.5-.3h.02c-.14 0-.26-.05-.4-.1l-.2-.1c-.01-.02-.03-.03-.05-.03-.02-.01-.05 0-.1.02.01-.01.05-.05.07-.05-.05.01-.15.02-.16.01s.01-.02.05-.05c-.05.01.01-.08.01-.12.02-.06.02-.1.03-.17.04-.17.06-.32.04-.44l.02.03c-.03-.13 0-.2.03-.27l-.02.15 4.72.28c.73 0 1.3-.35 1.76-1.1l.03-.08c.5.18 1.04.28 1.58.28.32 0 .65-.04.96-.1 1.2-.07 2-.38 2.52-.95a2.16 2.16 0 0 0 .29-.43l-1.68 5.6.01-.1-.15.5-.16.3-.02.03-.56.82c-.04.03-.08.08-.08.07-.44.8-1.58 2.1-2 2.7h-.08l-1.1 1.42.43-.52c-.01.3-.92 1-1.68 2.05-.15.17-.22.27-.42.53-.38 1.08-.5 2.07-1 3.03-.16.6.08-.54-.2.3-.1-.01.1-.4-.05-.23-.3.83-.66 1.3-1.03 2.33h-.1c-.44 1.37-1.15 2.44-1.4 3.36-.52 1.38-.6.82-1.06 2.3l-.33.5c-.27.6-.07.48-.4 1.13-.04-.07-.4.83-.3.4-.6 1.2-1.03 2.53-1.7 4l-1.4-1.04c.04.2-1.33-.84-1.08-.45l-.84-.55a.9.9 0 0 0-.1-.09c-.13-.18-.4-.33-.7-.47-2-1.43-3.46-2.76-4.5-2.94-1.28-.85-1.4-1.15-2.05-1.62l.32.18-.8-.54c-.38-.24-.8-.32-1.18-.3-.77.03-1.36.42-1.68.9l-.4.5v-.05c-.6.64-1.02 1.1-1.32 1.64l-.15.18c-.12.15-.2.3-.3.4-.24.17-.48.7-.67.84v-.03c-.13.35-.4.6-.65.86-.22.23-.46.5-.67.78 0-.03-.14.1-.52.45a3.47 3.47 0 0 1-.3.44c-.01 0-.04.02-.04 0-.76.9-.6.77-.22.38-.01.03.04.01.18-.1-.92.83-2.3 2.54-2.55 2.52l-3.24 3.47c-1 1.03-2 2.02-3.12 2.83-.1.02-.1-.04.04-.18.16-.17.45-.38.76-.67-.26.23-.53.42-.8.6-.2.18-.3.18-.55.18.04-.07.2-.06.34-.13.04-.01.07-.05.12-.08l.24-.17a2.32 2.32 0 0 0 .42-.32l-.73.46c-.15.08-.18.08-.42.07-.48-.04-1.1-.2-1.7-.4-1.22-.4-2.5-1-3.73-1.76l-.58-.2-.14-.1c-.02.05-.63-.2-1.02-.4-.3-.3.16-.2-1.1-.94-.93-.68-2.82-1.64-4.13-2.4.68.45.42.37.1.2-.62-.4-.9-.7-1.4-.97l.03-.17c.16.28-1.68-.9-1.94-1-.28-.32 1 .54 1.2.56l-3.67-2.4c-1.36-.77.15.28-.54-.02l-3.58-2.4.33.4-2.06-1.34-.7-.88-.87-.96-1.14-1.27-1.2-1.3-2.48-2.65c-.87-.86-1.8-1.7-2.74-2.44-1-.7-1.95-1.43-3.02-1.9-.1-.1-.5-.24-.5-.22l-.9-.54-.95-.47-1.93-.9-.8-.3c-.5-.16-1.2-.48-2.03-.65s-1.74-.45-2.68-.54l-2.05-.18c-1.2-.57-2.5-1-3.58-1.2-.3-.14-.6-.2-.88-.32l-2.6-.36.06-.03-3.22-.05.05-.04-1.48.05.25-.06c-.54.02-1.07.08-1.6.17l-1.6.2-1.55.32-1.47.35.2.1c-1 .28-1.86.5-2.57.87-.73.32-1.37.6-1.95.98l-1.78 1.12-1.9 1.35c-.04.01-.07.03-.1.04h0-.01l-.63.25-8.32 3.8-8.02 4.7c-3.35 2.06-6.84 4.42-10 6.63-1.4 1.2-4.14 2.9-5.78 4.32l-.75.4c-.57.5-1.25 1.04-1.88 1.44l.02-.06c-.84.74-1.87 1.45-2.28 1.83l.02-.06-1.06.84.15-.18c-1.48 1.27-3.03 2.53-4.42 3.63l.2.02c-3 2.33-3.84 3.45-6.4 5.77v-.06l-1.9 2.35-1.64 2.1c-1.04 1.4-2.1 2.88-2.85 5.07.18-.55-.16.2-.18.14-.16.38-.3.78-.43 1.17-.4.86-.7 1.75-.88 2.66-.4 1.65-.53 3.33-.52 4.93-.02 1.62.1 3.16.22 4.68l-.1.3c-.1.08.07.5.25.94.22.4.44.82.4.97.1.22.2.45.35.65.05.2.2.6 0 .3.28.6.3.63.6 1.02l.25.7c1.3 2.34 3.02 3.85 5.14 5.56a16.84 16.84 0 0 0 5.55 3.2c.55.25 1.15.36 1.72.53a15.45 15.45 0 0 0 1.7.4l1.6.27 1.43.1c1 .1 2.05.07 3.1.1l-1.35 9.67-1.95 11.66c-.52 3.3-1.13 6.62-1.6 12.07-.23 2.6-.32 5.35 0 8.1.3 2.74 1.06 5.46 2.24 7.85.66 1.08 1.55 2.6 2.68 3.98 1.1 1.42 2.5 2.65 3.7 3.5l.83.78 2.7 1.7h-.07l2 1.02c.63.3 1.17.58 1.52.7l-.07.01 1.67.7-.3-.08a100.67 100.67 0 0 0 7.22 2.3l-.15-.2c2.4.7 4.07 1 5.68 1.27.8.15 1.6.24 2.47.4l2.9.48-.07.03c2.66.18 4.76.4 6.87.64v.03c.05-.01.1-.01.14-.02l.27.03c2.24.23 4.52.43 7.45.25-.73.05.3.07.25.1 1.82-.02 3.7-.14 4.77-.3a48.32 48.32 0 0 0 2.67-.28c.01 0 .02.01.03.01 0-.01.02-.02.03-.02 2.25-.3 4.48-.78 6.65-1.5 2.06-.68 4.04-1.64 5.83-2.82a15.71 15.71 0 0 0 3.28-2.38c.94-.96 1.77-2 2.48-3.14l.18-.14c.14-.02.4-.6.67-1.2a4.36 4.36 0 0 0 .2-.53c.37-.73.7-1.48 1-2.24.07-.12.1-.14.02.1.3-.73.3-.9.4-1.3.03-.1.07-.2.1-.3.02-.06.03-.1.05-.17l.4-.78c1.2-3.6 1.43-6.82 1.98-10.67.23-1.24.44-2.78.64-4.47.26 0 .48-.01.63-.02l-.04.04h1.1l-.2.05c1.56-.1 3.16-.1 4.58-.06l-.12-.15c3.02.16 4.13-.14 6.86.05l-.04.04c3.45-.38 5.46.26 9-.1-.44.05.2.07.15.1l2.5-.05c.15 0 .3-.01.45-.01l.2-.01c.03 0 .07 0 .1-.01l-.01-.1c-.1-1.15-.23-1.88-.38-1.9-.03-.5-.03-.64-.03-.8 0-.15.01-.24.03-.3.03-.1.08-.1.13-.18-.12.01-.24-1.02-.3-1.95l.07.43-.2-2.67-.2.54c-.01-1.42.27-.38.13-1.73l-.2.03c-.07-1.96.15-3.12.2-5.03l-.08-1.48-.07-1.23-.04-.65c-.03-.2.06-.52-.25-.43h-.1c-.01-.1-.03-.2-.04-.33-.06-.43-.1-.86-.13-1.3l.07.4-.2-2.5-.2.5c-.01-1.32.27-.35.13-1.6l-.2.03c-.07-1.83.15-2.92.2-4.7l-.1-1.53-.07-1.2-.04-.6c.02-.07-.05-.06-.1-.06h-.07c.02-.23.08-.2.13-.32-.03.01-.07-.12-.1-.23-.03-.1-.06-.24-.08-.4-.05-.34-.1-.78-.13-1.2l.07.38-.2-2.4-.2.5c-.02-1.28.26-.34.12-1.56l-.2.03c-.05-1.02.01-1.8.07-2.6.1.02.23.04.33.07 1.05.25 2.02.35 2.86.34 1.3.08 1.73.13 2.17.23a4.28 4.28 0 0 0 .8.11c.34-.01.8-.05 1.48-.14.36.03.72.1 1.08.1 1.17-.15.8-.3 2.1-.45-.06.12 1.63-.32.9-.03 2.96-.57 5.63-2.24 8.85-4.33.58-.63 2.07-1.85 2.45-2.35.14 0 2.76-2.67 1.36-1.03-.12.14-.36.37-.37.33l-.1.27a13.44 13.44 0 0 0 2.17-2.16l1.94-2.34c-.44.46-.98 1.1-.68.62l1.3-1.5-.2.38c.67-.73 1.3-1.5 1.92-2.25l-.35.24c.96-1.1 1.43-1.37 2.26-2.78.36-.65-.95 1-.08-.25 1.22-1.5 2.97-3.8 4.33-5.85-.24.12.12-.44.46-1.03h.15c1.24-2.3.74-.67 1.98-2.94l.1-.48c.96-2.14.88-.95 1.86-3.37-.5.9-.48.28.2-.8l-.05.34c.32-.62.4-.85.63-1.24-.14.4.05.28.52-.63l-.2.68.73-1.8a9.99 9.99 0 0 0 .5-.87c.03.02.06.03.1.05l.05-.1.06.13c.7-1.36.42-.14 1.18-1.5a3.65 3.65 0 0 0 .02-.33c.08-.17.1-.23.12-.28.02-.06.05-.1.08-.13.05-.06.1-.1.15-.12.1-.06.2-.13.28-.54-.16.27-.3-.03-.05-.32l.05.15c.1-.2.1-.27.2-.38-.02.14.1.15.26-.1v.26l.14-.6c.36-.3.63-.98.87-1.04 0 0 .6-.75.58-1.04-.01.23.32-.2.35.01a1.84 1.84 0 0 1 .23-.6 5.06 5.06 0 0 0 .54-1.03l-.01.1c.3-.98-.2-1.9-.88-2.35l-.7-.43c-.2-.13-.37-.27-.55-.45-.01.03-.04.04-.08.03-.01-.01-.02-.02-.03-.02-.64-.42-1.23-.85-1.56-1.16l.16.1c-2-1.5-3.72-2.55-5.44-3.7l1.57-3.5.17-.18c.16-.04.4-1.42.6-1.56l.2-.6c.1-.15.26-.48.16-.18.23-.52.2-.54.34-.93l.3-.53c.94-2.04 1.55-3.86 2.5-6 .3-.58.56-1.17.82-1.76l.88-2.03 1.14-1.38 1.14-1.5 1.95-2.66 1.1-1.57c.33-.52.48-.97.68-1.44l.52-1.4 1-2.86c.63-1.92 1.2-3.84 1.62-5.7.06-.13.1-.5.1-.5l.57-2.1c.32-.34.56-.78.67-1.37a1.42 1.42 0 0 0-.08-.79c.03-.12.07-.27.12-.45l.22-.85c.2-.28.4-.62.53-1.06.52-1.67-1.64-2.36-2.96-2.78l-.02.06zM267.8 154.3l.86.1c.17.02.35.03.52.03.03 0 .06-.02.14-.07.05-.02.06-.04.06-.06h.2c0 .04-.01.1-.01.13-.01.1-.02.1-.02.24 0 .2.01.43.01.64l.1 2.63c.13-.17.16.28.23.75l-.12.06c.3 1.77-.22.68.05 2.43l-.1-.15.3.45c.37 1.58-.2.88.28 2.63-.08-.7.25-.35.26.52l-.14-.2c.07.54.1.48.1.63-.07-.13-.18-.08-.15.1-.06-.08-.1-.14-.17-.18.05.06.15.2.15.3l-1.4.01c-.5 0-.9-.01-1.08-.08 0 0-2.22-.08-2.73.1.45-.12-.78-.16-.43-.3-.57.13-2.27.24-2.95.1h.13c-2.52-.14-4.3.2-6.56.02.1.14-1.1.07-.8.25-.18.01-.36.02-.54.02h-.13l.44-5.7.18-2.53c.07-.18.07-.3.02-.38 0-.01-.01-.02-.02-.02-.17-.2-.68-.1-.98-.17l-1.4-.12-3.4-.26-5.97-.43c-.05 0-.1-.01-.17-.01l.23-1.3c1.24-.16 3.24.01 4.6-.16l.56.12c.5-.06 1.08-.1 1.58-.04l-.03.03c.74-.1 1.58-.04 1.95-.08l-.03.04.9-.02-.16.05c1.3-.1 2.63-.1 3.8-.06l-.07-.1c.72-.01 1.48.01 2.3.1.3-.1.86-.13 1.35-.14a18.3 18.3 0 0 1 2.02.06l-.03.04c.17-.02.33-.03.5-.05a5.32 5.32 0 0 1-.39.07c-.13.02-.35.01-.33-.02l-.18.12c1.48.23 2.7-.13 4.15-.1-.43-.04-1-.03-.63-.1h.12l1.12.06-.16.06 2.02.06-.2-.1a1.04 1.04 0 0 0 .25 0v-.02zm-24.34-10.97h0s-.14.1 0 0zm0 0v.06l-.02-.03-.01-.01c.02-.01.03-.02.03-.02zm.28-.22c.02-.02.03-.02.06-.04h0l-.02.02h-.04 0zm1.7-15.68l8.85-.15v.01c.04-.01.07-.01.1-.01 1.3.01 2.56.04 3.78.12l.24.15c.07.15.76-.06 1.24-.14.23.05.54.06 1.18-.03l.2.06c-.02.01-.05.01-.1.02h.16l.35.1c.48.02.54-.1.8-.12l.35.07c.13 0 .26 0 .4.01.25.03.56.05.27.1l.33.03.16.01.03.01c.04.01.1 0 .14 0 .04.02.05.07.08.1.02.04.01-.01.07.12l.15.32c.4.85.82 1.78 1.08 2.9.37.4.64 1.5.9 1.8-.05.08.7 2.18.1 1.02-.05-.1-.1-.3-.07-.28l-.16-.1c.18 1.3.82 2.2 1.1 3.44-.05-.38-.2-.86-.03-.56l.27 1.15-.16-.2.1.43c.03.14.07.32.06.3v.15c.05.01.1.01.13.01-.02.24-.28-.07-.32.13-.05.05.02.1.08.13l-.46.01c-.12 0-.24.01-.35.01l-1.14-.07c-.78-.05-1.56-.1-2.34-.1.14.14-.26.14-.68.17l-.05-.12c-1.6.17-.58-.27-2.17-.14l-.28.17c-1.43.25-.77-.26-2.36.08.42-.01.4.12.1.18h-.53l.14-.1c-.43.03-.57.08-.85.05.25-.06.13-.17-.5-.15l.42-.15-1.2.22c-.92-.13-2.37.03-2.75-.14 0 0-.2-.01-.46-.01-.05-.08-.28-.05-.57-.01-.55 0-1.17.03-1.4.12.4-.12-.7-.16-.38-.3-.77.14-1.56.2-2.35.14.05-.14.1-.27.15-.43.05-.2.1-.35.1-.63.01-.2-.01-.44-.06-.68-.06-.24-.15-.5-.33-.72a1.66 1.66 0 0 0-.27-.26c-.06-.04-.1-.05-.14-.06-.1-.03-.2-.03-.3-.03a.77.77 0 0 0-.15.02l-.07.01c-.01 0 .03-.01.04-.02-.02.01-.06.02-.05.02h.1c.03 0 .03 0 .02.01-.06.01-.15.02-.25.04s.04-.03.06-.04l.13-.06a4.37 4.37 0 0 0 .22-.12c.07-.04.1-.1.16-.14.02-.03.04-.05.05-.08.02-.04.05-.12.07-.2.04-.02.08-.04.1-.06-.08.14.06-.26-.07-.73l.01.04c-.07-.3-.1-.65-.3-.93-.12-.3-.36-.46-.4-.52-.14-.2.1.01.35.32a3.24 3.24 0 0 1 .26.53c.03.12.06.23.1.34-.04-.37-.2-.68-.33-.92-.18-.2-.32-.4-.47-.5-.3-.2-.48-.3-.67-.34-.07-.03-.14-.05-.22-.07l.38-4.75.08.01zm-27.14-27.4c.35-.1.67-.2.43-.23.83-.23 1.64-.4 2.4-.44.77-.07 1.48-.13 2.14-.1.65.01 1.24.01 1.74-.03.5-.01.9-.06 1.23-.2.8 0 1.25.14 1.62.2l1.03.25-.37-.04 1.83.34 1.35.37c.4.1.77.28 1.18.43l.63.25.67.34c.5.22.82.27 1.2.45l.68.34c.28.14.6.35.96.68-.56-.3.08.17.65.62-.38-.27-.5-.35.17.32.12.07.28.2.43.32 0 .01.02.04 0 .04.88.82.76.65.37.25.03.01.01-.04-.1-.18.43.47.96 1.16 1.42 1.74.44.6.72 1.13.7 1.23.12.2.25.38.37.56l.3.58.58 1.1c.3.75.62 1.45.86 2.17.2.73.46 1.42.6 2.15.13.73.32 1.46.4 2.23-.06.36-.2-.36-.4-1.23.06.36.14.72.18 1.08l.1 1.1c-.15-.01-.14-1.26-.3-1.9.14 2.57.6 5.38.32 8.5l.1.65-.02.2c.06-.01.1.7.1 1.16-.14.44-.27-.04-.33 1.5-.18 1.2-.13 3.47-.2 5.08.1-.86.13-.58.14-.2-.01.13-.02.25-.04.38-.1.01-.18.01-.28.02-1.42.24.27.05-.4.22-1.24.17-2.4.5-3.8.7h.45c-1.13.25-2.03.4-2.85.5.05-.26.1-.44.14-.46l.78-6.24c.48-1.47.88-2.98 1.13-4.52 0 0 .1-.54.2-1.44s.2-2.17.1-3.62c-.1-2.9-1.2-6.48-2.9-8.67l-.6-.8-.6-.65c-.37-.42-.74-.72-1.04-.95-.6-.47-.92-.62-.83-.38.04.12.18.35.43.7.06.08.14.18.2.27a29.07 29.07 0 0 0-.8-.77c-1.3-1.13-2.63-2.03-4-2.73l1.2.56c.32.16.64.28.9.44l.72.44c.36.22.72.43 1.1.64 1.15.66 1.15.5.7-.06-.5-.52-1.5-1.5-2.47-2.16l-1.87-1.18c-3.63-1.88-6.9-2.2-10.1-1.95-.25.02-.5.06-.76.1.02-.03.07-.05.1-.06l.04-.01zm18.23 28.18l.22-1.28c.12-.63.15-1.16.08-1.58s-.26-.7-.44-.78a.35.35 0 0 0-.16-.06c.13-.2.16-.27.04-.22-.06.03-.17.1-.32.23h-.02c-.04 0-.06.01-.08.01l.3-.35s.1.01.23.07h0c.01 0 .02.01.03.02.16.1.36.26.48.6v.01a2.43 2.43 0 0 1 .1.37c.02.1.03.2.03.33v.06c0 .14-.01.28-.03.42a.59.59 0 0 1-.02.14l-.1.58-.2.8-.08.36c-.02.08-.05.18-.06.27h0zm-.75-3.56a9.81 9.81 0 0 0-.33.32c.1-.1.2-.22.3-.33.01 0 .02.01.03.01zm-30.37 14.22l2.65-.2c-.54.32-.6.58-.1.55 3.62-.2 7.3-.56 10.65-1.42a3.52 3.52 0 0 0 .77-.21c2.05-.48 4.08-1.06 6.05-1.88 0 0 .45-.18 1.17-.53.42-.2.84-.43 1.25-.66.2-.12.5-.27.76-.47s.5-.4.74-.6c.95-.87 1.85-1.93 2.8-2.87l.36-.35.18-.17a1.59 1.59 0 0 0 .24-.27c.2-.3.38-.6.55-.88l.9-1.64a21.81 21.81 0 0 1 1.67-2.54c.01 0 .03.01.04.01-.01.04.17.14.2.46.05.32-.01.78-.12 1.2l-.12.08h.1l-.3 1.2-.13.55c-.18.8-.32 1.54-.46 2.22-.06.32-.14.64-.23.95-.1.37-.2.7-.23 1.14-.02.18-.02.6.06.88.1.3.27.58.52.76.26.17.55.28.87.26.15.02.32-.01.48-.04-.02 0 .01 0 .06-.01l.12-.02c.65-.08 1.3-.2 1.92-.32 1.27-.24 2.53-.57 3.87-.77.66-.1 1.37-.17 1.98-.07.6.13.9.4 1 1.1l.01.06v.02c.02.14.04.2-.02.33-.02.12-.45.32-.77.5-.32.2-.63.43-.64.55-.03.13.13.15.24.16h.1c.05 0-.03.03-.04.04-.05.03-.1.06-.14.1-.05.03-.03.07-.05.1.07.04.05.08.2.12.1.04.26.06.43.1.17.02.33.07.52.07.47-.06.62.1.6.1.02.03.05.07.07.13a1.31 1.31 0 0 1 .07.44c-.01.1 0 .18-.02.2l-.06.27a4.09 4.09 0 0 1-.18.49c-.03.07-.07.12-.1.18-.9 0-1.47 2.15-.8 2.15a.22.22 0 0 1 .01.08.63.63 0 0 1-.03.19c-.04.13-.14.3-.28.44l-1.3 1.16-.06 1c-.03.01-.05.02-.07.02l-.01.04c-.01.05-.06.16-.14.28-.18.25-.48.52-.84.78-.7.5-1.63.92-2.78 1.2-1.62.37-3.36.4-5.18.4-.46.01-.93.03-1.4.07l-.7.07-.36.05-.24.05-.2.07-2.5.84c-1.5.63-4.28 1.42-6.08 2.13l-.73.17c-.62.24-1.35.5-2 .7l.03-.03c-.93.36-2 .7-2.46.87l.03-.03-1.14.4.2-.1c-1.63.6-3.32 1.16-4.82 1.63l.15.04c-1.8.54-2.95.95-4.1 1.36a17.56 17.56 0 0 1-.25-1.45c-.12-.37-.4-.38-.44-1.07.14.2.08-.07.03-.32.04.16.1.2.1-.14-.04-.04-.07-.1-.1-.17.01 0 .01-.02.02-.01-.1-.4-.13-.34-.1-.14-.02-.01-.04.01-.05.08.06-.46-.2-1.2-.04-1.3-.25-1.26-.58-2.13-.83-3.17.07-.13.2.1.28.4l-.16-.74c.13-.02.15.42.2.64.07-.92-.52-1.8-.5-2.87l-.14-.2v-.06c-.05.01-.17-.2-.2-.36.1-.17.27-.03.17-.55.04-.43-.25-1.15-.4-1.67.03.3-.05.2-.1.1-.05-.26.04-.42-.04-.62l.15-.05c-.13.13-.27-.65-.35-.73.1-.17.17.38.26.43-.1-1-.04-.62-.18-1.44l-.02-.01zm37.03 7.05c-.16 1.5-.34 2.7-.6 3.96l-.33 4.54c0 .04-.01.07-.01.1h.01l-.07 1.17c-2.5-.17-5.07-.42-7.7-.7.4-2.66.62-4.68.72-6.85.1-.12.18-.45.25-.9 2.8-.06 5.1-.24 7.4-1.38.24-.08-.06.14-.57.38.32-.13.63-.3.93-.46 0 .03-.01.05-.01.07-.34.2-.8.42-1.12.53a8.93 8.93 0 0 0 1.1-.48v.02zm-11.9 8.06c.17-.2.75-.08 1.53-.01l-.1.83-6.82-.78c1.1-.17 3.12-.02 4-.1l.06.1 2.15-.03-.8-.02-.02.01zm-5.45.03c-.07-.01-.14-.02-.2-.02.04 0 .07 0 .1-.01.04.02.08.03.1.03h0zm-21.54-22.03l.3 1.8c-.16-.4-.33-.82-.53-1.22.4-.17.4-.35-.18-.54l.4-.03.01-.01zm-6.18 1.5c-.05.01 3.4-.3 5.2-.7-.02.58.04 1.24.04 1.24.14 2.73.77 4.05 1.4 7.23.4 2.82.25 3.6.84 6.5.2 1.4.52 2.86.77 4.22.32.6.3 1.78.6 2.5l-.05.25-.01.07c.1.25.2.55.17.83l-.04-.01c.15.38.17.83.25 1.02l-.04-.01.1.47-.06-.07c.2.67.33 1.37.4 2l.13-.08c.06 1.36.44 1.8.45 3.02l-.04-.01c.23.52.3 1 .35 1.44.01.25-.06.27-.06.38-.1.01-.13.04-.23.17.04-.06-.05-.07-.05-.1-.67.2-1.45.4-1.4.68-.52.12-.44.01-.53-.08.03.12-.4.28-.8.38l.18-.1-1.15.3.28.18c-.63.08-.22-.24-.8-.05l.05.2c-1 .2-1.13-.08-1.24-.2-.01-.13-.03-.24-.05-.35l-.23-1.22-.53-2.64a79.03 79.03 0 0 1-.49-2.68h0c-.13-.83-.23-1.65-.27-2.44l.12-.17c.2-.1-.46-.84-.28-1l-.16-.36c.02-.1.03-.34.1-.16-.05-.35-.08-.35-.2-.6l.07-.4c-.12-1.38-.56-2.5-.74-3.95-.01-1.77-.78-5-1.22-6.84-.74-2.58-.4-5.8-1.18-8.4.03-.03-.05-.1-.08-.1l-.04-.36.48-.04-.01.04zm22.6 104.22c.5-.14-.23-.03-.2-.07-.92.18-1.87.43-2.6.56s-1.24.27-1.24.4c-1.38.15-1.13.04-1.32-.05.01.1-.44.17-1.05.23-1.33-.05-.43-.32-2.53-.3l.22-.08-.66.22h-.01c-.3-.06-.56-.12-.28-.16-1.08.06-4.26-.15-5.5-.46h.24c-4.63-.7-7.97-.95-11.98-2.16.15.2-1.96-.47-1.5-.15-4.26-1-7.23-3.04-8.85-3.25-1.73-.92-1.95-1.26-2.76-1.85l.4.23c-1.54-.96-2.43-1.73-3.22-2.4-.78-.7-1.42-1.38-2.27-2.4-.82-1.04-1.26-1-2.34-3.18.47.63-.05-.2-.4-1.04.25.52.35.66-.06-.44-.1-.14-.2-.38-.3-.6 0-.01-.01-.06.01-.04-.54-1.4-.45-1.16-.27-.48-.03-.03-.03.03.02.25-.2-.76-.5-1.8-.68-2.7-.17-.9-.28-1.65-.2-1.75-.3-2.25-.38-4.22-.36-6.1.03-1.88.14-3.68.34-5.6.15-.42.1.5.03 1.6l.28-2.73c.13.04-.1 1.57-.18 2.4.57-3.2.66-6.72 1.4-10.5l.01-.8.05-.22c-.06 0-.01-.86.06-1.43.2-.52.26.08.54-1.8.33-1.47.6-4.24.83-6.2-.18 1.05-.2.7-.16.24.14-.94.34-1.47.4-2.2l.13-.05c-.1-.15.26-2.53.25-2.86.2-.52-.13 1.48-.08 1.73l.87-5.67c.2-2.03-.2.34-.2-.64l.15-1.13c1.02-.03 2.06-.04 3.07-.2 2.64-.3 5.27-.76 7.63-1.54.16-.01.55-.18.54-.2a128.26 128.26 0 0 0 4.38-1.18s1.32-.38 3.03-.94 3.8-1.32 5.37-2c.43-.18.85-.37 1.26-.58l.03.27a62.81 62.81 0 0 0 1.89-.36c-.14-.1.3-.2.65-.32l.06.1c.86-.38.4.2 1.26-.15l.12-.2c.75-.43.5.15 1.32-.4-.35.1-.23-.23.22-.28l-.08.14c.24-.08.3-.15.47-.16-.13.1-.04.2.3.08l-.2.2.62-.37c.27 0 .6-.08.9-.16.48-.12.94-.22 1.18-.2 0 0 .53-.1 1.1-.24-.1-.56-.23-1.2-.36-1.42.2.43.05-.68.24-.36-.05-.12-.13-.4-.18-.54a2.67 2.67 0 0 1-.13-.4c-.07-.3-.12-.6-.08-.78l.03.06c-.07-1.3-.55-2.16-.57-3.34-.13.08-.16-.54-.3-.36-.38-1.16.01-2.23-.62-2.57-.01-.04-.01-.06-.01-.1l3.1-1.07c1.76.2 3.5.46 5.2.5-.12.01-.2.1-.86.03 2.13.16 5.05.36 5.2.55 5.1.42 12.2 1.16 15.48 1.2l-.23.03c1.88-.01 2.4.2 4.5.3.1.03.26.06.23.06.63 0 1.44.06 2.3.13-.32 1.56-.63 4.32-.63 4.32-.9 7.18-.82 10.93-1.47 19.5-.74 7.53-1.2 9.5-1.83 17.3l-1.1 11.32c.03 1.75-.54 4.75-.68 6.77l-.26.75c-.07.7-.15 1.5-.37 2.17l-.02-.05c-.16 1.02-.44 2.16-.56 2.65l-.02-.05-.34 1.2v-.22c-.4 1.75-1.12 3.44-1.9 4.83l.2-.05c-.9 1.46-1.5 2.44-2.22 3.3l-.5.66c-.18.22-.4.4-.62.6l-.7.64-.4.34c-.15.1-.3.2-.47.3v-.05c-.72.64-1.4 1.2-2.14 1.57-.72.4-1.4.76-2.16 1-1.46.6-2.98.98-4.93 1.62l.03-.03zm31.14-62.45c-.1 1.56-.22 3.68-.4 3.8l-.7 8.5c-.05.44-.1 1.04-.12 1.97l-.3 1.32c-.17 1.47.1 1.07-.13 2.7-.1-.1-.3 2.05-.3 1.1-.52 3.67-.5 7.5-1.3 12.32.08 1.07-.3 3.5-.26 4.3-.1.12-.62 4.87-.48 2.12.01-.24.07-.65.1-.62l-.08-.34c-.56 2.73-.5 5-1.1 7.64.22-.77.4-1.83.34-1.1-.17.82-.34 1.64-.55 2.45l.03-.53c-.32 1.2-.64 2.4-1.06 3.55l.28-.44c-.63 1.7-1.06 2.2-1.78 4.07-.33.85.94-1.42.1.27-.04.07-.1.16-.14.23-.2.28-.38.54-.23.2-.38.52-.7 1.1-1.07 1.62l-1 1.33c-.01.01-.02.02-.03.04-1.06 1.14-2.26 2.14-3.58 2.97h.05c-.07.04-.13.08-.2.12-.13.14-.3.33-.53.47-.13.08-.3.16-.44.24l-.1-.05c-1.37.83-1.7.86-2 .9-.17.01-.32.05-.66.16a9 9 0 0 0-1.24.4l.07-.05-.07.05-1.06.4c-.85.26-1.7.54-2.64.75.54-.1 1.22-.26.9-.1h-.07c-.36.01-.74.1-1.7.34l.3-.13-2.7.32.4.07c-.57.06-1 .06-1.4.05.6-.23 1.1-.5 1.33-.66-.55.35 1.1-.27.7.04.37-.18 1.05-.66 1.78-1.08.36-.22.74-.4 1.06-.62.26-.2.54-.36.82-.52l-.14.12c.77-.5 1.47-1 2.03-1.6.6-.56 1.15-1.1 1.6-1.73.97-1.18 1.73-2.43 2.57-3.82-.2.06.64-1.43.28-1.13.36-.75.58-1.5.88-2.18s.52-1.32.72-1.9c.42-1.17.63-2.12.48-2.75.32-1.44.5-1.68.67-2.43l-.03.35c.47-2.73.52-3.53.8-5.55.06-1.02-.18-1.2.1-3 .04.6.1-.14.18-.82-.03.43-.01.57.16-.3a2.68 2.68 0 0 1-.01-.5c.01-.01.02-.04.03-.02.1-1.13.03-.94-.04-.42-.01-.03-.04.01-.1.17.27-1.15.34-3.26.53-3.4.3-3.4.36-5.84.56-8.67.12-.3.14.36.1 1.18l.16-2c.13.03-.03 1.16-.07 1.78.45-2.36.25-4.94.7-7.7l-.05-.6.03-.17c-.06 0-.08-.63-.06-1.05.15-.38.27.05.4-1.33.2-1.08.22-3.12.3-4.55-.1.77-.13.52-.14.18.06-.7.2-1.08.2-1.62l.16-.05c-.17.26 0-1.82-.04-2.08.15-.38.01 1.08.08 1.26l.34-4.17c.01-1.5-.17.26-.25-.46.08-1.3.08-2.6.3-4.1l-.18.46c.1-2.47.24-3.93.52-5.58.1-4.46.07-6.98-.02-8.25l4.67.42.1.12 3.8.32-1.28-.14c.06-.04.2-.05.36-.05l.76.12c.18.03.35.08.52.13l-.1.04c.26-.04.14.22.13.37-.01.1-.03.2-.04.28l-.06.58-.2 2.13c-.1 1.34-.15 2.54-.14 3.8-.32.37-.28 2.98-.45 3.82l-.02-.08c.03 2.23-.57 4.54-.56 6.7-.05-.07-.12-.12-.08-.6v-.1zm21.02 16.13h-.1c-.01 0-.01-.01-.02-.01-.01.02-.1 0-.2.01a.2.2 0 0 0-.02-.15c0 .05-.05.1-.14.16h-1.08c-.98-.01-2.03.04-2.37-.08 0 0-2.4-.08-2.95.1.48-.12-.84-.16-.46-.3-.62.13-2.46.24-3.2.1l.14-.02c-2.72-.14-4.65.2-7.1.02.1.14-1.18.07-.86.25-.1.01-.2.01-.3.01l-1.2-.04-.32-.15c-.04-.07-.26-.06-.55-.03v-.43c.07-.38.2-1.2.18-.5.13-1.28.1-1.3.12-2.23l.26-1.36a123.93 123.93 0 0 0 .46-5.07l.13-1.1c.2-.01.42-.02.63-.02.1 0 .18 0 .27-.01l1.8.02-.06-.08.9-.02c.38.01.72.01 1.05.01a18.8 18.8 0 0 1 1.6.1c.33-.1.88-.13 1.4-.14.37.01.76.02 1.2.06l-.03.04c.53-.06 1-.1 1.47-.1.25.02.27.06-.32.13-.14.02-.38.01-.36-.02l-.2.12c1.6.23 2.9-.13 4.5-.1-.37-.03-.84-.03-.8-.07l1.37.05-.08.03 2.2.06-.3-.13c.54.03.9.1 1.28.14a6.23 6.23 0 0 0 .61.03c.06 0 .1 0 .17-.01.06 0 .13-.01.12-.01.02-.01.05-.03.08-.05.06-.04.05-.07.02-.1.1 0 .2-.01.28-.01 0 .04-.01.1-.01.12-.01.06-.02.13-.03.2-.01-.01 0 .2 0 .28v.35l.07 2.85c.13-.18.16.3.22.82l-.12.07c.3 1.93-.23.73.03 2.64l.2.33c.35 1.72-.2.95.26 2.85-.03-.38.03-.47.1-.35.04.06.07.17.1.33.02.08.04.17.03.27-.04-.05-.1-.1-.13-.13.01.1.04.18.05.26h0zm28.1-77.92l-.7-.48c-.05-.04-.1-.05-.17-.08-.01-.1-.05-.2-.12-.28a4.37 4.37 0 0 1 .3.16l1.27.9c-.2-.08-.38-.15-.58-.2v-.01zm18.5 14.12c.01-.02 0-.04.01-.06.01 0 .03.02.03.01.1.02.24.15.13.3h-.04c.1.08.08.2.02.27-.15.23-.33.42-.5.62-.1.1-.2.2-.28.33.27-.6.48-1.1.63-1.47zm6.4-38.72c-.32.36-.93.57-1.92.63-1.08.25-2.15-.05-2.7-.44-.24-.17-.38-.36-.4-.52-.06-.94 2.03-1.23 2.2-1.26.15 0 .36-.02.6-.03.68-.05 1.96-.15 2.38.22.08.07.1.14.12.25.05.5-.05.88-.3 1.15h.02zm1.3-.7c0 .01-.01.03-.01.04.02-.17.02-.36.01-.55a1.37 1.37 0 0 0-.43-.9c.35-.1.68-.24 1-.4-.22.84-.47 1.78-.57 1.8v.02zm.63-1.84h0zm-2.46-.23c-1.9.1-3.62-.77-3.78-1.56-.01-.23.08-.45.25-.6.55-.58 1.8-.83 2.36-.83.13 0 .33-.01.56-.02 1.04-.06 3.48-.2 3.54.82-.01 1.18-.8 1.76-2.93 2.2zm3.44-3.3c-.02-.02-.04-.05-.06-.07l.1-.03c-.02.04-.02.07-.03.1h-.01zm-2.64-.8c-1.68.07-3.1-.5-3.64-1.1-.2-.2-.27-.43-.24-.63v-.01c.12-.9 1.82-1.28 2.97-1.28.13 0 .26.01.4.02h.25l.9.1a6.44 6.44 0 0 0 .58.18 6.4 6.4 0 0 0 1.37.21c.43.14.8.3.97.55.1.12.12.23.1.38-.22 1.16-1.13 1.56-3.65 1.56h0zm4.45-4.85c-.25.82-.67 1.34-1.7 1.35-.56-.17-1.2-.28-1.88-.37-1.55-.58-2.64-1.8-2.47-2.5.06-.24.22-.43.45-.53.66-.3 1.85-.1 2.46.17.2.1.48.18.82.28 1.3.4 2.54.87 2.3 1.6h.02z"/><g fill="#fff"><path d="M192.46 134.62l-.1-.02c.01.01.03.02.1.02zm-20.02 5.48h-.02c.02 0 .02-.01.02 0h0zm16.66-6.03h0z"/><path d="M193.26 133.38c-1.1.15-1.42.04-2.54.32l-1.63.37c-.22.18-.7.15-.96.32l-.13-.05c-.1.06-.2.1-.32.1v-.02c-.14.1-.32.1-.4.13v-.02l-.18.05.02-.04c-.24.12-.5.2-.77.22l.04.08c-.53.03-.68.25-1.17.24v-.02c-.53.36-.96.08-1.5.44.07-.05-.04-.04-.04-.06-.27.1-.56.18-.52.35-.2.05-.18-.01-.22-.07.02.07-.15.15-.3.2l.06-.05-.44.15.12.1c-.25.03-.1-.15-.32-.05l.03.1c-.33.07-.57-.05-.9-.04-1.34.3-2.65 1.04-3.92 1.2l-.08-.07c-.06-.1-.27.3-.36.2l-.12.1c-.05-.01-.14 0-.08-.06-.13.04-.13.06-.2.13l-.16-.03c-.53.1-.92.4-1.47.55-.7.07-1.86.65-2.52.98-.9.53-2.2.52-3.13 1.1-.04 0-.1.07-.1.08l-.9.36s-4.35 1.82-.64 1.38v.03c.5-.15.82-.26 1.1-.54.12.14.4-.16.54-.15h-.01c.25-.25.66-.14.9-.37-.01.02.01.06-.06.1.2-.1.48-.25.53-.16.5-.22 1.2-.45 1.48-.73l-.01.03c.14-.17.23-.1.42-.23.02.01.03.01.03.02.17-.17.58-.23.73-.33l.03.06.4-.16-.16.04c-.01-.2.34 0 .6-.22.28-.08.43-.56.74-.58.1-.13-.07.17.1.04.04.1-.08.1 0 .14.2-.1.36-.02.6-.16l.03.07c.28-.24.64-.1.8-.3.3-.17.3.14.6-.12l.17.05c.15-.03.07-.15.25-.16.01.06.22-.02.15.07.4-.03.72-.37 1.26-.36.07-.15.34-.16.4-.27.03.05.5-.14.26.05-.02.02-.06.03-.07.01v.08c.32.05.5-.23.77-.3-.1 0-.2.04-.14-.03l.26-.07-.04.08.4-.08-.07-.06c.2-.02.3.1.5-.07.08-.1-.2-.05-.01-.13l1-.12c-.05-.07.03-.1.12-.14l.03.07c.32-.2.17.12.5-.05l-.02.06.05-.18c.27-.23.2.1.5-.18-.13.05-.1-.14.07-.15l-.02.08c.1-.04.1-.08.18-.08-.05.05 0 .1.13.06l-.07.1.22-.2c.22.02.5-.15.62-.07 0 0 .44-.06.5-.2-.07.1.17.05.13.15.1-.1.4-.25.56-.2h-.02c.5-.03.8-.3 1.27-.3-.04-.08.2-.1.12-.18.43-.2.87.02.96-.34.2-.06.26.03.37.02l-.05.03.78-.2c.14-.06.13-.22.4-.24-.07.08.03.05.13.02-.06.02-.07.05.06.06.01-.02.04-.04.06-.06v.01c.16-.05.12-.07.05-.06 0-.01-.01-.02-.03-.03.18.05.47-.1.5 0 .48-.12.8-.3 1.2-.42.06.05-.03.1-.14.16l.28-.08c.01.08-.16.08-.24.1.36.06.68-.26 1.1-.22l.07-.08h.03c-.01-.03.07-.1.13-.12.07.06.02.16.22.12.17.04.44-.1.64-.18-.1.01-.08-.04-.04-.07.1-.02.17.04.24 0l.03.1c-.05-.08.24-.14.27-.18.07.06-.14.1-.16.14l.6-.1c.2-.1-.05-.08.04-.18.2-.05.36-.14.6-.12l-.08-.07c.35-.12.56-.14.8-.1 1.28-.52 1.4-.75 1.2-.88s-.76-.12-.76-.12c-1.05-.03-1.56.3-2.8.57l-.06.06zm60.48 75.14l.06.03c0-.02-.02-.03-.06-.03zm2.28 1.18h0c-.01 0-.01.01-.02.01h.02z"/><path d="M253.03 209.6c.8.04 1 .2 1.8.14.4.01.8-.02 1.18-.04.18-.13.5 0 .7-.1l.08.07c.07-.04.16-.06.23-.02v.02c.1-.05.23-.02.3-.05v.02l.13-.01-.02.03c.2-.06.4-.06.56-.04v-.1c.37.1.5-.08.84.03v.02c.42-.23.67.16 1.1-.06-.05.03.02.04.02.07.2-.02.42-.04.42-.2.15 0 .12.05.14.12 0-.08.13-.1.24-.1l-.05.03.33-.03-.06-.14c.17.04.04.17.2.14v-.12c.24.02.38.2.6.3.97.05 2-.25 2.9-.04l.04.1c.02.13.25-.2.28-.07l.1-.06c.03.02.1.05.04.08.1 0 .1-.02.17-.05l.1.08c.38.06.7-.1 1.1-.06.48.16 1.4.01 1.92-.07.74-.2 1.6.32 2.35.1.02.02.1-.02.1-.04l.7.02s3.35.05.8-1.02l.02-.03c-.38-.07-.62-.08-.88.06-.04-.17-.3-.02-.4-.07h.01c-.23.13-.47-.1-.7.01.01-.01.01-.06.06-.06-.16.02-.38.06-.4-.04-.4.03-.93-.02-1.17.14l.02-.03c-.14.1-.18.02-.34.07-.01-.01-.02-.02-.02-.03-.15.1-.45.02-.57.06v-.07l-.3.02.1.01c-.04.18-.23-.12-.45 0-.2-.02-.42.38-.64.3-.1.1.1-.14-.06-.07-.01-.1.07-.06.03-.14-.15.05-.25-.1-.43-.03l-.01-.07c-.24.14-.46-.1-.62.03-.25.06-.17-.22-.43-.08l-.1-.1c-.1-.02-.08.12-.2.07.01-.06-.16-.05-.08-.1-.28-.1-.57.14-.94-.03-.08.12-.27.05-.33.14-.01-.05-.37-.01-.16-.13.02-.01.05-.01.05.01l.02-.07c-.2-.14-.38.08-.6.05.06.02.14.02.1.07l-.2-.01.04-.06-.3-.04.04.08c-.14-.04-.2-.17-.35-.06-.07.06.13.1-.02.13-.2-.05-.47-.13-.7-.15.02.1-.04.08-.1.1l-.01-.07c-.26.1-.1-.16-.35-.08v-.05l-.07.16c-.23.15-.12-.15-.38.05.1-.01.05.16-.08.13l.03-.07c-.07.02-.1.05-.14.03.04-.04.02-.1-.08-.1l.07-.1-.2.13c-.15-.08-.38.02-.44-.08 0 0-.32-.05-.4.06.06-.07-.1-.1-.06-.18-.08.08-.32.14-.42.06h0c-.36-.1-.6.12-.93.01.01.1-.16.04-.1.15-.33.1-.6-.23-.73.12-.15.02-.18-.08-.26-.1l.04-.02c-.2.03-.4.03-.58.02-.1.03-.12.2-.3.15.06-.06-.02-.05-.1-.05.04-.01.06-.03-.03-.08-.01.02-.03.03-.05.04v-.02c-.12.02-.1.04-.04.05 0 .01 0 .02.02.04-.12-.08-.34.01-.35-.1-.35.03-.6.14-.9.18-.03-.06.04-.1.12-.13l-.2.02c0-.08.12-.05.18-.06-.25-.13-.5.13-.8.01l-.06.06h-.02c0 .03-.06.08-.1.1-.04-.07 0-.16-.14-.16-.1-.07-.32.03-.47.07.08.01.05.05.02.08-.07 0-.1-.07-.17-.04l-.01-.1c.03.1-.2.1-.2.13-.04-.07.1-.06.13-.1h-.43c-.15.07.03.1-.05.17-.14.02-.27.08-.43.03l.05.08c-.26.07-.4.06-.58-.03-1.9.68-.4.93-.4.93.75.2 1.13-.04 2.03-.1l.04-.07zm42.25-92.33s.1.82 2.45 2.1c1.63.98 4.47 2.7 5.74 3.92 1.16.9 2.27 1.36 3.34 2.24l.23.33c.24.1.27.07.55.28-.18-.07-.02.1.04.2l.37.14c-.01.23.98.3.9.5l.03.2c1.23 1.1 2.7 2.07 4.2 3.05l1.7 1.13 1.03.7a1.94 1.94 0 0 1 .29.21c.16.01.45.1 1-.74l-.17-.1c.27-.55.2-.03.6-.53l-.32.08.72-1.03-.06.2c.2-.36.4-.78.3-.84.13 0 .15.13.43-.33-.24-.15.58-.5.9-1.13.03.02.1-.03.1.04-.02-.16-.02-.2.04-.3-.08-.07-.05-.14-.23-.3-.35-.3-.74-.55-1.27-.76h.03c-.88-.86-1.46-.9-2.47-1.8l-.04.15c-.5-.4-1.08-.8-1.7-1.12l.1.01-.4-.26h.03c-.2-.08-.52-.38-.9-.53l.03-.02c-.18-.2-.46-.35-.7-.46l-.18-.27c-.73-.3-1.56-1.13-2.2-1.33l-3.55-2.4-4.54-3.1c-1.33-.98-.5.17-2.56-1.65l-.8-.4c-1.32 1.15-3.1 4.04-3.06 4v-.08zm-84.83-15.02l-.1-.01c0 .02.03.02.1.01zm-19.5 9.43l-.01.02c0-.01.01-.02.01-.02zm15.95-9.48h0v-.02z"/><path d="M211.17 100.93c-1.15.26-1.5.2-2.63.64l-1.65.62c-.2.2-.7.27-.95.48l-.14-.02c-.1.07-.2.14-.32.14v-.02c-.13.1-.32.15-.38.2v-.02l-.18.1.02-.04a3.09 3.09 0 0 1-.76.36l.05.07c-.55.13-.66.37-1.16.46v-.02c-.48.47-.97.28-1.46.75.06-.06-.05-.03-.05-.05-.26.15-.54.3-.47.45-.2.1-.18.03-.24-.02.03.07-.12.17-.27.25l.06-.06-.42.24.15.08c-.25.08-.13-.13-.34.02l.05.1c-.33.14-.6.08-.94.16-1.3.6-2.5 1.6-3.77 2.07l-.1-.05c-.1-.1-.23.34-.33.26l-.1.13c-.05 0-.14.03-.1-.04-.13.07-.12.1-.2.18l-.17.01c-.52.23-.85.6-1.38.9-.7.22-1.78 1.04-2.38 1.54-.8.75-2.17.97-2.97 1.8-.04.01-.1.1-.1.1l-.85.56s-4.12 2.72-.4 1.5v.04c.5-.25.8-.44 1.03-.77.15.1.4-.24.53-.27v.02c.2-.3.64-.3.84-.58 0 .02.02.06-.04.1.18-.15.44-.36.5-.28.46-.33 1.16-.7 1.38-1.04l-.01.04c.12-.2.22-.16.38-.33.02 0 .04 0 .04.01.13-.2.55-.37.68-.5l.05.05.37-.25-.15.08c-.05-.2.34-.1.56-.35.27-.14.33-.64.65-.73.1-.15-.04.2.12.02.06.08-.06.1.03.14.17-.15.36-.1.56-.3l.05.06c.24-.3.63-.26.77-.5.3-.24.32.07.58-.26l.18.01c.15-.07.04-.16.22-.2.02.06.23-.07.16.04.4-.1.66-.52 1.2-.64.04-.16.32-.23.35-.36.04.04.48-.26.27-.01-.02.02-.06.04-.07.02v.08c.34-.03.45-.34.73-.46-.1.02-.2.1-.15 0l.25-.13-.02.08.4-.16-.1-.04c.2-.06.33.02.48-.18.07-.1-.22 0-.04-.12l1-.34c-.07-.06.02-.1.1-.16l.04.06c.3-.26.2.1.5-.16v.06l.02-.18c.23-.28.23.05.47-.3-.13.07-.13-.12.04-.17l-.01.08c.08-.06.1-.1.17-.1-.04.06.02.1.14.03l-.05.12.2-.24c.23-.02.5-.25.62-.2 0 0 .44-.15.5-.3-.06.1.2.02.15.12.08-.12.37-.33.53-.3h-.02c.5-.13.77-.46 1.25-.55-.05-.07.2-.12.1-.2.4-.3.9-.14.93-.52.2-.1.27-.02.4-.04l-.04.04.78-.32c.13-.1.1-.24.37-.3-.06.1.04.04.14 0-.06.03-.07.06.07.05.01-.03.03-.05.06-.07.16-.07.13-.08.05-.06 0-.01-.01-.02-.04-.03.2.01.47-.17.52-.07.48-.2.8-.4 1.2-.6.06.04-.02.12-.13.18l.28-.12c.02.08-.15.1-.24.15.38 0 .67-.34 1.1-.35l.07-.1h.03c-.01-.03.07-.1.13-.13.08.05.04.16.24.1.18.01.44-.16.65-.25-.12.02-.1-.03-.05-.07.1-.03.18.02.25-.02l.03.1c-.06-.08.24-.16.27-.2.07.05-.14.1-.16.16l.6-.16c.2-.12-.06-.08.03-.18.2-.06.37-.16.6-.16l-.1-.07c.35-.15.58-.17.84-.13 1.3-.56 1.52-.72 1.3-.88-.26-.14-.84-.13-.84-.13-1.16.02-1.7.37-2.98.77zm50.18 20.67l-.01-.1c-.02.01-.02.03.01.1zm-16.95-19.33h-.03.03zm16.2 15.15v.01l.02.02z"/><path d="M262.84 122.35c-.5-1.32-.52-1.74-1.22-3.04-.3-.64-.68-1.3-1.02-1.88-.27-.22-.44-.8-.72-1.07l-.01-.16c-.1-.1-.2-.22-.23-.35h.02c-.15-.14-.23-.35-.3-.42h.02l-.13-.2.05.02a4.02 4.02 0 0 1-.57-.84l-.06.07c-.27-.62-.58-.72-.8-1.3l.02-.01c-.62-.5-.58-1.08-1.2-1.6.08.06.01-.06.03-.07-.24-.27-.5-.57-.63-.47-.16-.2-.1-.2-.06-.27-.06.05-.22-.1-.35-.27l.08.06-.4-.44-.03.18c-.17-.27.08-.17-.14-.38l-.1.08c-.26-.34-.28-.66-.5-1.03-1.12-1.36-2.7-2.45-3.8-3.65v-.1c.06-.12-.47-.14-.44-.27l-.18-.08c-.03-.05-.1-.14-.01-.1-.13-.1-.15-.1-.27-.15l-.1-.18c-.53-.46-1.07-.72-1.67-1.13-.63-.64-2.14-1.38-3.02-1.72-.64-.22-1.24-.62-1.9-.96-.63-.37-1.3-.7-2-.8-.04-.03-.16-.03-.16-.02-.4-.16-.8-.28-1.2-.4l-.85-.23c-.48-.13-1.1-.2-1.57-.25-.95-.08-1.3.1.77 1.1l-.04.02c.63.2 1.02.36 1.5.34.02.2.52.16.65.27l-.02.01c.42.01.75.38 1.15.4-.02.01-.04.05-.13.02.27.08.66.16.63.27.63.25 1.5.63 1.94.7l-.04.01c.27.01.3.13.57.2.01.02.02.03.02.04.3.03.72.33.92.4l-.02.07.47.26-.17-.1c.15-.12.3.3.7.4.3.2.83.08 1.1.36.2.03-.2.03.05.12-.05.08-.14-.02-.12.08.25.1.3.32.62.45l-.03.07c.43.14.6.56.9.63.4.22.1.35.55.52l.07.2c.14.14.2-.01.32.17-.05.04.18.2.04.18.32.38.86.53 1.22 1.1.2 0 .38.28.52.28-.02.05.46.46.12.3-.03-.02-.07-.06-.05-.07l-.08.02c.17.36.53.42.77.7-.06-.1-.17-.2-.06-.16l.23.25h-.1l.33.38.01-.1c.14.2.1.36.37.5.13.05-.08-.24.1-.07l.72 1.03c.04-.1.1 0 .2.08l-.05.06c.37.28-.02.23.33.52h-.07l.2-.01c.37.22.02.26.46.48-.12-.13.08-.17.2.02h-.1c.1.1.13.1.17.17-.07-.03-.1.03.01.17l-.14-.04.3.18c.1.25.43.52.4.67 0 0 .3.48.45.52-.12-.05.04.2-.08.2.15.07.45.38.47.57l-.03-.02c.28.57.7.82.92 1.36.06-.07.18.2.23.1.4.44.37 1.02.77 1.03.15.22.1.3.15.44l-.05-.05.52.87c.12.15.27.1.4.4-.1-.06-.03.05.03.16-.05-.07-.08-.08-.04.1.03.01.06.04.08.06.1.18.1.14.07.05.01 0 .02-.01.02-.05.03.23.28.53.2.6l.87 1.35c-.02.08-.12-.01-.2-.14l.18.32c-.07.03-.13-.17-.2-.27.08.45.5.77.6 1.28l.1.07v.03c.03-.02.12.07.16.14-.03.1-.15.06-.04.3.02.2.26.5.4.74-.04-.14.01-.1.06-.06.05.12.01.2.08.3l-.08.05c.06-.08.22.27.27.3-.04.1-.13-.16-.2-.17l.3.7c.17.23.07-.08.2.01.1.22.25.42.3.7l.05-.1c.22.4.3.67.32.98.87 1.5 1.1 1.64 1.2 1.36.07-.3-.07-.97-.07-.97-.25-1.35-.73-1.93-1.4-3.4z"/></g></svg>