<svg xmlns="http://www.w3.org/2000/svg" viewBox="0 0 480 480" xmlns:v="https://vecta.io/nano"><path d="M210.2 109.7s-34.3 15.6-49.2 24.1c-4.8 2.8-10.1 7-11.6 11.4-1.8 5.3-1.2 13.7 1 27.8 3.3 20.9 9.7 42.8 9.7 42.8s-1.1 7 2.8 13.6c3.9 6.7 4.2 8 5 8.7 1.4 1.1 2-.6 2-.6s1.1 1.9 2.5 1.7c1.2-.2 1.1-1.7 1.1-1.7s.9 1.1 1.9.4c.7-.5.3-2.9-.4-5.5-.6-2.1-.6-7.5-.8-8.5s1.5 1.1 2.5 2.4c1.2 1.4 3.1 2 1.9-.9s-1.8-5.4-2.1-6.2c-.4-.8-1.6-3.8-3.1-5.4-1-1.1-3.3-2.4-3.8-5.8-1-5.8-.3-21.9.1-31.8.3-7.1.5-18.6 2.8-19.8 7.9-4.1 47.5-20.7 47.5-20.7l-9.8-26z" fill="#ea9d7d"/><linearGradient id="A" gradientUnits="userSpaceOnUse" x1="174.522" y1="140.781" x2="193.813" y2="135.191"><stop offset="0" stop-color="#cc7a5e" stop-opacity="0"/><stop offset=".924" stop-color="#aa5f4b"/></linearGradient><path d="M165 131.7s3.6 5.7 5.6 9.9c4.9 10.2 3.4 14.1 3.4 14.1l19.3-8.1-12.5-23.3c-3.3.3-11.4 5.2-15.8 7.4z" fill="url(#A)"/><linearGradient id="B" gradientUnits="userSpaceOnUse" x1="224.508" y1="145.882" x2="200.749" y2="108.669"><stop offset="0" stop-color="#ed89ae"/><stop offset="1" stop-color="#f4c0ca"/></linearGradient><path d="M174.5 119.8s18-9.8 30.4-13.3c12.5-3.5 26.9-7.9 34.3 5.5 7.9 14.1-5.3 27.9-16.6 35.1-9.4 6-24.5 14.4-24.5 14.4l-23.6-41.7z" fill="url(#B)"/><linearGradient id="C" gradientUnits="userSpaceOnUse" x1="187.921" y1="161.308" x2="189.937" y2="117.322"><stop offset=".007" stop-color="#ff9f00"/><stop offset=".983" stop-color="#ffd86b"/></linearGradient><path d="M203.5 158.4l-23.8-41.5-5.3 3.1 23.2 41.8z" fill="url(#C)"/><linearGradient id="D" gradientUnits="userSpaceOnUse" x1="245.463" y1="155.051" x2="185.783" y2="153.204"><stop offset="0" stop-color="#ed89ae"/><stop offset="1" stop-color="#f4c0ca"/></linearGradient><path d="M192 208h79.3s-2.8-54-4.6-65.8c-2.7-18.1-17.5-43.1-37.9-42.2-4.1.1-18.1.3-23.6 38.1-2 11.7-13.2 69.9-13.2 69.9z" fill="url(#D)"/><linearGradient id="E" gradientUnits="userSpaceOnUse" x1="227.458" y1="168.645" x2="285.461" y2="140.157"><stop offset=".01" stop-color="#bc547a" stop-opacity="0"/><stop offset=".985" stop-color="#bc547a"/></linearGradient><path d="M212.1 115.3s-5.1 17 6.5 61.3c5.3 20.4 17.8 31.4 17.8 31.4h34.9l-1.4-23.4-22.3-27.2-35.5-42.1z" fill="url(#E)"/><path d="M231 136.7s21.1 36.2 32.6 47.9c3.9 3.9 6.5 6.4 13.4 6.9 7.9.5 20.2-3.9 33.1-10 18-8.4 34.5-18.7 34.5-18.7s7-1 12.2-6.7 6.4-6.3 6.8-7.3c.7-1.7-1.2-1.7-1.2-1.7s1.5-1.7.9-2.9c-.6-1.1-2-.5-2-.5s.7-1.2-.1-1.9c-.7-.5-2.9.6-5.1 2-1.8 1.2-6.9 2.8-7.8 3.3s.6-1.8 1.6-3.1c1-1.5 1-3.6-1.4-1.6s-4.7 3.3-5.3 3.9-3.1 2.6-4.2 4.6c-.7 1.3-1.2 3.2-4.3 4.7-5.2 2.2-24.9 6.7-34.5 8.9-4.8 1.1-15.1 3.5-16.8 1.6-5.6-6.2-30.2-44.3-30.2-44.3L231 136.7z" fill="#ea9d7d"/><linearGradient id="F" gradientUnits="userSpaceOnUse" x1="313.178" y1="170.29" x2="319.41" y2="193.73"><stop offset=".005" stop-color="#cc7a5e" stop-opacity="0"/><stop offset=".924" stop-color="#aa5f4b"/></linearGradient><path d="M277.1 191.6c7.9.5 20.3-3.7 33.1-10l15.5-7.9c11-5.9 19-10.8 19-10.8s7-1 12.2-6.7 6.4-6.3 6.8-7.3c.2-.6.2-.9 0-1.2-4.2 1-13.6 4.8-17.7 6.9-5.5 2.8-32.1 8.7-49.4 15.7-8.9 3.6-26.3 12.8-37.5 9.4 1.6 2 3.1 3.7 4.5 5.1 4 3.9 6.6 6.3 13.5 6.8z" fill="url(#F)"/><linearGradient id="G" gradientUnits="userSpaceOnUse" x1="267.882" y1="168.819" x2="254.79" y2="148.916"><stop offset="0" stop-color="#cc7a5e" stop-opacity="0"/><stop offset=".924" stop-color="#aa5f4b"/></linearGradient><path d="M262.5 183.3s-.6-7.5 3.4-12.7c6.8-9 13.6-9.6 13.6-9.6l-12.8-18.1-22.2 15.4c4.8 8.2 11.1 17.5 18 25z" fill="url(#G)"/><linearGradient id="H" gradientUnits="userSpaceOnUse" x1="251.093" y1="154.769" x2="235.102" y2="99.839"><stop offset="0" stop-color="#ed89ae"/><stop offset="1" stop-color="#f4c0ca"/></linearGradient><path d="M232.6 170.7s-11.6-19.1-16-32.4c-4.5-13.4-9.8-28.9 4.7-37.4 15.3-9.1 30.2 3.7 39.7 16.5 7 9.9 16.4 24.9 16.4 24.9l-44.8 28.4z" fill="url(#H)"/><path d="M284.6 167.4a.47.47 0 1 1 0-1c.1 0 8.1-.2 29.8-5.7 1.4-.4 2.9-.7 4.4-1.1 6.8-1.7 15.2-3.8 16.4-4.6 1.4-.9 2.3-1.8 3.5-4.3 1.4-2.9 4.9-5.3 7.4-7.1l.8-.6c.8-.5 1.4-1 1.8-1.3s.7-.5.9-.6c.7-.3 1.1-.2 1.4 0 .4.3.5.8.5 1.1 0 1-1.2 2.6-2.1 3.8 2.1-.8 5.5-2.2 7.6-3.4 2.6-1.4 3.8-2 4.7-1.3.6.4.7.9.7 1.2v.5c.6 0 1.1.2 1.5.8.7 1.3-.72 2.7-1.43 3.26-.22.17-.47-.06-.67-.26s-.16-.27.04-.47c1-.73 1.46-1.63 1.16-2.03-.2-.4-.68-.48-1.4-.05-.2.1-.4-.15-.5-.35a.47.47 0 0 1 .1-.6c.1-.1.3-.4.3-.7 0-.2-.1-.3-.3-.5-.4-.3-1.3.1-3.7 1.4-3.3 1.8-9.3 4-9.5 4.1s-.5 0-.6-.2-.1-.4 0-.6c1.2-1.3 3.1-3.8 3.1-4.7 0-.1 0-.2-.1-.3 0 0-.1 0-.4.1-.1 0-.4.3-.7.5-.4.3-1 .8-1.8 1.4l-.8.6c-2.5 1.7-5.8 4-7.1 6.7-1.2 2.6-2.3 3.6-3.8 4.7-1.2.8-7.4 2.4-16.7 4.7-1.5.4-3 .8-4.4 1.1-22 5.6-29.8 5.8-30.1 5.8h0z" fill="#cc7a5e"/><g fill="#ffcce1"><path d="M190.4 115.6l.4 1.1.9-.9zm-1.2-1.6l.3 1.1.9-.9zm1.9-1.2l.4 1 .9-.8zm-.6 1l.4 1 .9-.8zm-1.6 3.7l1.3.1-.5-1.4zm-2.4-2.1l1.3.1-.5-1.4zm-2.8.9l1.3.1-.5-1.4zm7.2-4.5l-1.5.7 1.5 1.2zm1 3l1.2.1-.4-1.4zm-3.7.9l1.3.1-.5-1.3zm5.2-2.3l1.3.1-.5-1.3zm-8.8 6.1l-.4-1.2-1.1.9zm-2.8-1.9l-.4-1.3-1.1 1zm3.9-.7l.4 1 .8-1zm7.6-2.8l.4 1 .8-.9zm-.7-2l.3 1 .9-.8z"/><path d="M182.5 119.8l.2.7.6-.5zm4.4-2.1l-.5.3.5.5zm-.8 6.1l-.4-.4-.3.6zm.2-.9l-.3.5.6.1zm2.4-2.9l-.3.7h.8zm6.6-2.6l-.6.5.8.3zm3.9 3l-.5-.4-.2.7zm-6.8.8l-.6-.3-.1.7zm.9 1.2l.2-.6-.7.1zm2-.8l-.7-.1.2.7zm-.8 2.9l-.7-.1.2.7zm-9.9-8.9l.4 1 .9-.8z"/><path d="M184 116.9l1.3 1.1.5-1.8zm2.8.3l1.6.1-.6-1.7zm-4.2.4l.4 1 .8-1zm-1.1-.9l.5 1 .8-1z"/><path d="M193.4 117.3v-.7l-.6.3zm-11.8.8l.5-.4-.6-.4zm6.2-1.2l.5.5.2-.7zm-3.9-1.7l-2.2 1.1 2.1 1.7zm2.7-1.4l-2.2 1.1 2.1 1.7zm2.8-1.4l-2.4 1.2 2.2 1.6zm3.6-1.5l-2.1.9 1.9 1.9zm-7.3 10.8l.2-.6-.7.1zm-.2-1.8l.3-1-1.2.2zm3.2-1.2l.3-.6-.8.1zm-4.1 4.5l.1-.6-.7.1zm13.1-9l-.2.8.9-.2zm5.7-5.2l-.4.6.8.2zm3.1.7l-.5-.2v.7zm2.9-2.6l-.6-.2.1.7zm2.6-1.8l-.6-.3v.8z"/><path d="M200.5 114.8v-.6l-.6.2zm-.2-2.8l.1-.7-.7.2zm1.3-2.7l-.3 1.3 1.5-.3zm2.8 4.7h-.6l.3.6zm6.2-7.6l-.6.1.3.6zm2.2-1.6l-.6.1.3.6zm-9.8 8.1l.5-.3-.6-.4zm.2-2l.6-.2-.6-.5zm-6.4 5.9l.5-.2-.5-.5zm-11.4 4.8l.2-.5-.7.1zm16.3-14l.2.7.7-.5zm-2.3 2.3l1 .2-.2-1.1zm-2.2.1l1 .2-.2-1.1zm5.5-2.8l.6.6.4-.9zm-4.6 5.9l-.3-1.2-1 .8zm-2.3.5l-.3-1.1-1 .8z"/><path d="M195.9 116.7l.3-.7-.8.1zm-4.4-.4h.6l-.2-.6zm3.5-4.4l.1.5.5-.3zm3-1.9l.3.8.7-.7z"/><path d="M196.9 110.9l1 .9.5-1.5zm-.4.3l.2.9.7-.6zm-1.5-.9l.3 1 .8-.8zm.2 1.7l.5-.3-.5-.4z"/><path d="M195 110.3l-2 .8 1.6 1.9zm2.2-1.1l-1.8.7 1.5 1.6zm2.2-.8l-1.7.6 1.3 1.4zm6-2l-1.5.4 1.1 1.3zm-4.1 1.2l-1.5.6 1.2 1.3zm6.9-1.6l-.4.5.7.1zm-1.8 1.7l-.3 1.1 1.3-.3zm3.9-2.5l-.2 1.1 1.2-.3z"/><path d="M205.6 107.5l.8.2-.2-.9zm1.7-1.7l-1.2.4.9 1.1zm2.5-.6l-1 .3.7.8z"/></g><path d="M352.4 149.5c-.2 0-.3-.1-.4-.2-.1-.2-.1-.5.2-.7l9-5.3c.2-.1.5-.1.7.2.1.2.1.5-.2.7l-9 5.3h-.3zm2.5 2.2c-.2 0-.3-.1-.4-.2-.1-.2-.1-.5.2-.7l7.1-4.5c.2-.1.5-.1.7.2.1.2.1.5-.2.7l-7.1 4.5c-.1-.1-.2 0-.3 0zm-189.92 76.88c-.1-.3.12-.58.42-.68s.6-.1.8-.2c1-.2 1.9-.4 3.1-.8l3.3-1.3c.2-.1.57-.1.7.2.12.28 0 .5-.2.7l-3.4 1.4c-1.3.5-2.3.7-3.3.9-.3.1-.5.1-.8.2a.66.66 0 0 1-.62-.42z" fill="#cc7a5e"/><linearGradient id="I" gradientUnits="userSpaceOnUse" x1="267.597" y1="176.948" x2="259.954" y2="184.371"><stop offset="0" stop-color="#cc7a5e" stop-opacity="0"/><stop offset=".924" stop-color="#aa5f4b"/></linearGradient><path d="M246.9 162.4s9.2 14.3 13.5 18.7c5.2 5.8 8.7 8.9 12.3 9.8 4.1 1 5.7.7 7.2.6 2.5-.2 5.5-.8 10-1.7 4.2-1.1 4.8-1.6 4.8-1.6s-19.8-6-28.6-15.2-10.6-15-10.6-15-12.2-.5-8.6 4.4z" fill="url(#I)"/><linearGradient id="J" gradientUnits="userSpaceOnUse" x1="229.2" y1="153.95" x2="277.4" y2="153.95"><stop offset=".007" stop-color="#ff9f00"/><stop offset=".983" stop-color="#ffd86b"/></linearGradient><path d="M232.8 170.7l44.6-28.4-3.3-5.1-44.9 27.8z" fill="url(#J)"/><path d="M329.7 157.1l5.6 11.1c.3.5.9.7 1.4.5l4.7-2.5c.5-.3.7-.9.5-1.4l-5.4-10.8c-.3-.5-.9-.7-1.4-.5l-4.9 2.2c-.5.2-.7.9-.5 1.4z" fill="#ffcce1"/><g fill="#d87390"><path d="M229.6 153.1v-1.9l-1.6.7zm-4.9-1.6l-.5-1.8-1.3 1.1zm4.4-1.5l1.7-1.5-1.8-.9zm-8.1-.9l1.7-1.5-1.8-.9z"/><path d="M219 143.8l2.2-.6-1.2-1.5zm3.9 9.1l2.1-1-1.6-1.3zm2.4-1l2-1-1.5-1.3zm-1.7-1.9l1.6-1.5-1.8-.9zm3.8 5l1.6-1.5-1.9-.8z"/><path d="M226.7 155.9l1.8-1.2-1.7-1.1zm-.8-11.4l-.5-1.9-1.3 1.2z"/><path d="M229.9 154.9l.5-1.8-1.7.3zm-5.3-11.5l-.4-1.3-.9.7zm2.8 5.4l-1.2.1.4.9zm3.6-8.2l-.3 1 1-.1zm4 1l1.3-.5-.8-.8zm-5.1 3.2l-.2-1.1-.8.5zm8.5 2.9l-1.1-.2.3 1zm-11.7-7.3l.7 1.2.7-1zm-4-4.6l1-.3-.6-.7zm-1.4 9v-1.1l-.9.4z"/><path d="M220.9 145.3l-.5-1.8-1.3 1.1zm1.3-.5l.7-2.9-2.6.5zm-6.4-9.3l1.2-2-2-.2zm7 12l2.2-1.9-2.3-1.2zm-.5-5.9l.3-1.9-1.6.5zm-2.2-.3l.3-1.9-1.6.4zm12.7 6l1.2-.4-.7-.9zm0 3.8l.3 1 .7-.7z"/><path d="M235.7 145l-.1-1.1-.8.5zm-9.9.6l.1-1.1-.9.3zm-5.3-6H217l1.3 2.9zm1.8 5.9l-2.9.2 1.2 2.3zm1.7 3.8l-2.9.2 1.2 2.3zm-7-10.2l1.8-1.3-1.7-1zm-.4-8.2l-2.4-.3.6 2.1zm9.5 22.1l-3 .2 1.2 2.4zm2.3 3.4l-3.6.3 1.5 2.9z"/><path d="M230.5 159.2l-4.2.3 1.8 3.4zm-3.4-13.3l1.3 1.3.6-1.5zm3.3 7.6l1.8-1.3-1.8-1zm-.5.5l.8 2.1 1.4-1.4z"/><path d="M228.2 162.7l.9 2.1 1.3-1.5zm2.1-2.5l.8 2.1 1.4-1.4zm-2.4-2.8l.8 2.1 1.5-1.4zm9.8-18.7l1-.9-1.2-.4zm-3.4 5.2l-.5-1-.6.8zm9-1l-1 .3.6.7zm-8.7 18.1l-.7-2.3-1.5 1.4zm5.1-12.6l-1.1.1.5.9zm-6.8 2.9l1 .7.3-1.1zm-5.5-2.7l.8-.7-.9-.4zm2.1 8.8l-.5-1-.6.7zm-9.3-29.5l1.4.1-.4-1.1zm-6 .9l.3-1.1-1 .1zm6.7 6.1l-1-.6-.1 1zm15.7 19.7l1.3.3-.2-1.2zm-3.6.1l1.3.3-.2-1.2zm13.1-8.4l.9.2-.2-.8zm-8.3 11.8l1.5.3-.3-1.3zm-3.5-2.9l1.5.3-.3-1.3zm10.9-14l1 .2-.2-.8zm-14.7 13.4l.5-1h-1zm-3.3 2.9l2.5-1.6-2.2-1.5zm-1.8-1.3l1.6-1.6-1.9-.7zm5 2l1.9.2-.6-1.6zm5.1-9.3l1 .4-.1-1zm5.3-1.9l1.5.2-.4-1.3zm-6.9.7l.5-1.2-1.1.1zm7.3 7.2l-1.1-.7-.2 1.1zm-9 8.3l-1.6-.6-.2 1.7zm2.4-2.5l1 .4-.1-1zm3.1-9.1l.7-.9-1-.3zm-2.5 5l-.6-.8-.4.8zm8-1.8l-.9.4.6.6zm-5.7 2l-1.9.3 1 1.4zm11.7-12.4l.7-1-1.1-.2zm-2.6 4.9l-.6-.8-.4.8zm8-1.8l-.9.4.6.6zm-10.2 1.1l.2-1.2-1 .3zm.2 5.5l-.9-.4v1zm6.1-5.4l-.6.8.9.2zM236.9 160l-1.3-1.8-1 1.7z"/></g><g fill="#ffa124"><path d="M249.6 154.5l-1-.8-.4 1.1zm-9.1 6.1l-1 .7.9.5zm7.3-1.3l-.1 1.8 1.3-.8zm1.9-4.2l.9.2-.1-.8zm6-3.1l.9.2-.2-.8zm-10.5 4.2l1.4.3-.3-1.3zm6.4-2.2l1.5.3-.3-1.3zm-15.2 8.6l-.8-.7-.3.9zm-1.5 4.3l-1.9.6 1.2 1.2zm-1.5-.2l-1.6-1-.2 1.7z"/><path d="M231 167.8l1.6 2.7 1.5-2.2z"/><path d="M229.4 165.2l1.7 2.9 1.2-2.4z"/><path d="M234.4 166l-1.6-1.7-.7 1.9zm4.1-2.5l-1.3-1.7-1 1.7zm-.4 1.8l-1.6-1.1-.3 1.6z"/><path d="M236.9 165.4l-1.8.6 1.1 1.3z"/><path d="M234.1 165.1l.9 4 3-1.9zm15.7-6.5l-1.3.1.6 1zm-2.4 1.6l-1-1.5-.8 1.4zm-2.6 2.1l-1.2-1.3-.7 1.4z"/><path d="M247.5 159l-.8-1.3-.7 1.1zm-8.4 1.4l2-.5-1.2-1.5zm-1.3 1.6l2-.5-1.2-1.4zm-5.4 1.1l1.4.9.4-2.1zm12.4-3h-1.6l.6 1.3z"/><path d="M243.6 160.7l-2.2-.8.1 2.1zm-2.3.1l-1.4.3.8 1.1zm.1 2.9l-1.8.3 1 1.3zm-1.9.4l-.1-1-.8.5z"/><path d="M237.1 163.4l1 3.7 3-1.8zm3.9-1.5l.6 3.3 2.5-1.7zm3.2-2l.8 3.1 2.4-1.6zm8.1-1.5l-1.8-.6.1 1.6zm-8.4-1l-1.9.3 1 1.4zm17.3-6l-1.2.1.6 1zm-2.3 1.6l-1-1.5-.9 1.3zm-2.7 2.1l-1.2-1.4-.7 1.5z"/><path d="M259 151.7l-.8-1.2-.8 1.1zm-2.8 1.2h-1.5l.5 1.2zm-10 4.2l-1.2-.4v1.2zm6.1-.6l-1.7-.6.1 1.6zm0-1.7l.5 3.1 2.6-1.5zm4-1.6l.5 2.3 2-1.3zm7.4-2l-1.9-.7.2 1.7zm-15.3 4.3l-1.2.1.6.9zm1.8 1.1l-1.9.3.9 1.4zm-14.1 6.6l-1.9.3 1 1.4z"/></g><g fill="#ffcce1"><path d="M220.2 101.9l1.2.4-.1-1.4zm20.3 5.5l-.7.1.5.7zm7.9-2.9l-.7.1.4.7zm-10.5 5.4l-.3-.7-.6.7zm-12.2-9.9l-.1.9 1-.3zm13.6 2.2l-.1.9 1-.3zm2.6-1.4l-.1.9 1-.3zm-23.2 1.9l-1.3 1 1.7.9z"/><path d="M215.8 105.7l-1.1 1.3 1.9.4zm1.2-1.4l-.1 1.3 1.3-.5zm-.4 3.7l-.1.9 1-.3zm-2.3-.3v.9l.9-.3zm17.9-9.7l-.7.1.5.7zm-4.5 2.6l-.6-1.3-1 1.2zm2.8-.5l-.3-.7-.6.7zm3.9 1.3l.8.4v-1zm.7-3.1l.2.8.8-.6zm-1.5 4.1l-.2.7.9-.2zm-11.5 4.9l-.1.7.8-.2zm-3.3.6l-.1.7.9-.2zm-2.8 1.5l-.1.7.8-.2zm-.8.6l-.1.7.8-.2zm27.8-5.1l-.1.8.8-.3zm2.1-1.2l-.1.7.8-.2zm-4.7 1l.7.4v-.9zm-2.9-2.8l.7.4v-.9zm3.5-1h-.8l.4.8zm-21.2 9.8h.5l-.2-.6zm.6-3.8l.1.5.4-.4zm6.8 1.6l-.4.2.4.4zm-3.3-.7l.2.5.5-.4zm7.3.9l-.4.3.5.2zm13.6.9l-.4.3.5.2zm-9.8 1.8l-.4-.3-.2.5zm4.3 1.9l-.3-.2-.2.5zm-5.3 5.2l-.4-.3-.1.6zm.8-13.8l.6.7.4-1zm-6.2-6.5l1.1 1.4 1-1.8zm-8.9 6.2l.6.7.4-1zm18.2-5.7l-.4.6.8.1z"/><path d="M240.5 105.9l-.7-.2.1.8zm-6.2-5.5l1.3.3-.3-1.5zm1.7.7l.9.2-.2-1zm.1-1.7l.9.1-.3-1zm-5.2 4.4v.8l.8-.4zm9.7-4.2l-1.2-.4.1 1.4zm-25.3 9.1l-.1.8.8-.4zm4.4-5.6l-.6.2.4.6zm-6.4 7.6l-.6.1.4.6zm1-.8l-.2-.6-.5.6zm3.7-3.5l.6.3v-.8zm-2.2.6l.8.8.5-1.2zm2.9-1l.7.2v-.8zm2.8-2.1l.7.3v-.9zm-1.6-1.7l-.3 1.4 1.5-.3zm-3.7 3.4l-.1.6.6-.2zm6.7-.8l-.6.1.3.6zm-5.2 2.9l.7.2-.2-.8zm-3 4.5v.6l.6-.3zm1.2-4.8l-.6.1.5.6zm.6 4.2l.7.2-.1-.8zm3.3.6v.7l.6-.3zm-7.4-.2v.6l.6-.3zm5.4 1.6l-.6.2.4.5zm-3.8-1.4l.5-.4-.6-.3zm-2.5 3.6l.4-.4-.6-.3zm.6-2.3l.4-.4-.6-.2zm-.6 3.4l.5.4.2-.6zm.2 2.6l.4.5.3-.7zm.7-4.3l.7-.4-.7-.5zm2.8-1.9l.4.5.2-.7zm-.5 2.4l-.3.5.7.2zm-.1 2.3l-.3.5.7.1zm-2.9 4.3l.5.5.2-.7zm4.4-2.4l-.3.6h.7zm.1 3.9l-.4.6.7.1zm5.3-22.9l1.8 1.3.5-2.5zm2.9-.8l-.3.6h.7zm-2 2l-.3.5.7.1zm4.6 1l-.7-.1.1.7zm11.5.7l-.5-.2v.7zm-13.5-1.2l-.6-.2.1.7zm2.3-3.9l.6.5.3-.8zm.8 4.8l.5.6.3-.8zm-3.1-4.3l1.1 1 .6-1.6zm6.4 2.7l.6.5.3-.8zm4.2 5.1l.5.5.3-.8zm-.2 6.3l-.7.1.5.7zm-2.6 2.5l-.3-.7-.6.6zm-2.9 1.5l-.4-.4-.1.6zm.6-4.4l.6.5.2-.8zm-3.2 2.8l.5.5.3-.8zm-2.6 4.1l.5.5.3-.8zm-6.4-3.2l.6.5.3-.8zm14.6-18.2l-.3.6.7.1zm-1.1.4l-.6-.2.1.7zm2.5.9l-.6-.2.1.8zm8.7 3.8l.8.4v-1zm-.8 1l-.2.8.9-.2zm3.8-.5l.7.4.1-.9zm-2.6 2.8l.6.7.4-1zm-.1-4.7l.9.2-.2-1zm1.3 1.1l.9.3-.2-1.1zm2.5 2.7l-.6-.2.1.7z"/><path d="M241.9 103.4l-.6-.2.1.7zm-13.3 1.9l.5.5.3-.8zm1-3.7l-.3.6h.7zm3.1 4.6l-.6-.2.1.8zm1.8-8.2l-1.1-.1.5 1.2zm-6 2.6l-.6.3.6.6zm.9-1.5l-.7.3.7.6zm-4.4 6l-.5-.6-.3.8zm-1.7-1.8l-.2 1.4 1.5-.5zm-1.2 0l.2.5.4-.3zm3.6.9l.2.6.5-.5zm-1-2.9h-.6l.3.6zm2.1.2l-.5-.6-.3.8zm.8 2.2l-.5-.6-.4.7z"/><path d="M229.1 106.9l-.5-.6-.3.8zm-3.3-4.9l1.2.6.1-1.5zm6.3-1.3l.9-.1-.5-.9zm.5 3.6l1-.1-.5-.9zm-12.6 1.6l.9-.1-.4-.8zm2.2 3.4h.9l-.4-.9zm2-6.2l.7.3v-.8zm5.3-2.9l-.1.6.7-.1zm-1 1.9h-.6l.3.6zm2.6.3l-.6-.1.3.7zm-4 3l-.1.6.7-.1zm-3.7 11l-.3.4.5.1zm3.5-1.8l-.1.4h.5zm-2.6-4.1l.4.6.4-.7zm5.6.5l.7.2-.1-.9zm-6.9 1.9l.7.2-.1-.9zm4-1.2l-.6.2.4.5zm-5.3 2l.2.6.6-.5zm9.5-12.8h-.7l.3.7zm6.9 2.4v.7l.8-.3zm-2.8-.4l.5.5.3-.8zm3.4-1.5l.5.5.4-.8zm-1.8-.4l-.3.6.7.1zm-1.1.4h-.6l.3.6zm2.7.4h-.7l.3.7zm0-1.4h-.6l.2.6zm-12.5 5.3l-.6-.1.1.7zm8.2-2.8l-.1 1.6 1.7-.6z"/><path d="M231.7 99.5l-.1 1.6 1.6-.6zm5.9 1l.9.1-.3-1zm-5 5.3l1.6.9.2-2.1zm-5-5.6l1.6.9.2-2.1zm-4.2.7l1.8.3-.5-2zm8.3-1.5l1.5.9.3-2zm1.2 2.2l1.6.9.2-2.1zm-3.3 0l1.6.9.2-2.1zm5 .3l1.3 1.4.8-1.9z"/><path d="M235.3 101.3l1.4 1.2.5-2zm-8.2 2.8l-.2 1.6 1.6-.6zm8.6-1.1l.3 1.6 1.4-1zm-10.5.7l-.1 1.1 1.1-.3zm7-.5l-.9.1.5.9zm-4.3 7.8l-.3-.8-.7.7zm2.6 3.5l1.1.1-.4-1.2zm-.5-7.1l.1.9.8-.4zm7.7 4.3l-.8.3.7.7zm-8.8-3.8l.5-1h-1.3zm-6.9-1.4l.9.2-.2-1zm6.2-6.4l.1.9.9-.4zm-3.3-.6l-.2 1.5 1.7-.5zm-1.4 2l.8 2.3 2-1.9zm-7.9 5.1l.7 1.7 1.5-1.4zm11.2-3.9l2.2 1.1.2-2.6zm-4.7.3l.3 1.5 1.4-1zm-1.3-1.5l.4 1.5 1.4-1.1zm12.6 7.7l1 .1-.3-1.2zm2.2-1.8l.4-.8-1 .1z"/><path d="M233 111.1l.1.9.8-.5zm-4.6-6.9l.2.9.8-.7zm-3.8-4.1l-3.3 1.2 2.7 2.8zm3.7-1.9l-3.3 1.2 2.7 2.8zm4.1-.4l-2.7.1 1.3 2.7zm-12.8 7.2l1.9.1-.7-1.9z"/><path d="M221.2 101.5l-2.9 2 3.2 2.1zm15.6-3.1l-2.3-.5.4 2.6zm-5.7 8.4l.8-1.3-1.6-.3zm14.9 4l-1.3.8 1.4 1z"/><path d="M247.4 106.8l-1.3.8 1.4 1zm-2.6 4.9l.6 1.7 1.5-1.4zm.2-7l.8 1.7 1.4-1.5zm-3.5-2.6l1.1 1.5 1-1.8z"/><path d="M250.3 106.7l.1 1.8 1.8-1.1zm-3.9 2.3l.1 1.8 1.9-1zm-.6-1.9l.7 1.7 1.4-1.5zm5.3 3.3l.2 1.9 1.8-1.1zm-16.6-5.7l1.4 1.3.6-2zm4.5 1.8l1.1-1.5-2.1-.4z"/><path d="M238.1 105.1l.7-1.7h-2.1zm5.6 2.5l-.8 1.4 1.7.1zm3.5 4.8l-1.4.8 1.5 1zm-6.4-7.2l-.8.6 1.1.6zm5.5 4.4l-.7-.6-.3 1zm-8.4 2.8l.3-.9h-1zm1.7 4.3l.7.8.5-1zm2.2-5.6l-.6.7 1 .3z"/><path d="M246.8 119.6l-.9-.3v1zm-15.4-2.6l.9.6.2-1.2zm.2-6.6l-.3.8 1-.1zm7.5 7.1l-.8-.1.3 1zm-4-10l-.3 2 2.1-.7zm3.9 4.2l-.9.1.5.9z"/><path d="M235.3 108.5l1-.6-1-.6zm-5.1-4.7l.7.6.3-1zm8.6-2.2l-.4.8h1zm-17.4 10l1-.5-1-.7zm-4.6-5.3l.5.7.5-.9zm8.8-1.3l-.5.8 1 .1zm13.4 5.2l1.1-.2-.7-1zm-2.6-6.6l.3.9.7-.8zm8.7 1.8l-.7.5.8.5zm-1.5-2.9l-.8 1.3 1.8.2zm-2.1 1.3l-.2 2.4 2.6-.9zm1.4 2.5l1 2.2 1.8-2zm-6.7-4.6l2 1.4.6-2.7zm3.4.9l-.8 1.4 1.7.2zm.6-1.9l-.5 1.5 1.8-.3zm5.1 14.1l.7.8.5-1.1z"/><path d="M246.6 114.6l.9-.4-.8-.6zm-2.9 1.4l-.6.7 1 .2zm-5.1-14l.9.2-.2-1zm4.6 6.4l-.3.8h1zm-20.1-3.3l1.2 1.4.8-1.9zm16.9-5.8l-2.6-.7.4 3zm3.9 2l-2.6-1.4-.2 2.9zm3.6 2.3l-2.9-2-.1 3.1zm3 2.3l-2.5-2-.2 2.9zm3.6 3.4l-2.1-2-1 2.4zm-14.7.6l.8-.4-.8-.6zm-.9 2.4l1.4-.4-1.1-1.3z"/><path d="M236.8 110.3l.7-.4-.8-.6zm2.4-.8l.7-.5-.8-.5zm14.9 6.6l-1.3.8 1.5 1zm.4-3.7l-1.3.8 1.5 1zm4.3 4l.5.8.5-.9zm-8 .1l.3 1.8 1.8-1.1zm4.2-4l.2 1.9 1.8-1.1zm-.6 1.7l.2 1.8 1.8-1z"/><path d="M251.6 112l.3 1.8 1.7-1.1zm5.7 5.3l.2 1.9 1.7-1zm-1-1.9l.2 1.8 1.7-1zm-2.1 2.1l-1.4.8 1.5 1zm-8.4-8.2l-.9.5.9.8zm6.9 5.4l-.7-.7-.4.9zm-8.8 1.3l.5-.8-1-.1zm-1.9 4.2l.5.9.8-.9zm5.4-4.5l-.6.6.8.4zm1.1 8.8l-.8-.5-.2 1zm-.5-5l.5.9.7-1zm3.3.4l.9-.2-.6-.8zm-5.9.8l-.7.6 1 .4zm11.2-8.7l-2.2-2.4-.9 2.5zm2.6 3.1l-2.2-2.5-.8 2.6zm5.7 16.4l-1.4.7 1.5 1.1zm1.8-2.3l-1.5.6 1.4 1.2zm2.4 2.5l-1.4.8 1.4 1zm-1.6-.5l-1.4.7 1.4 1.1zm-5.6-1.4l.1 1.8 1.9-1z"/><path d="M264.3 126.1l.1 1.8 1.8-.9zm-1.4-3.5v1.8l1.9-.8zm7.5 9l-1.4-1.9-1.3 2.4zm-3.9 1.7l.1 1.8 1.8-.9zm-2.4-5.3l.1 1.9 1.8-.9zm4.4 7.6l.3 1.8 1.7-1.1zm-12.6-16.9l.2 1.9 1.8-1.1zm3.5 5.2l1.7-.8-1.5-1.4zm-.8-2.6l1.7-.7-1.5-1.4zm3.5 3.9l-1.4.8 1.5 1zm5.4 10.4l-1.3.9 1.5.9zm2.7-1.9l-1.4.7 1.4 1.1zm-13.4-13l-1 .4.8.9zm3.8 6l-.5-.7-.6.8z"/><path d="M251.5 126.4l.6-.6-1-.4zm3.9-7.3l-1.5 1.3 2 .9zm-.9 7.8l-.7-.5-.2 1zm-4.3-2l1 .2-.3-1.2zm-.6-7l.1.9.9-.5zm7.8 4.2l-.8.3.7.7zm-12.6-1.2l1 .3-.1-1.2zm-1.5-7.1l-.1.9 1-.3zm9.1 5.7l-.9.1.6.9zm11.3 4l-1.4.7 1.3 1.1z"/><path d="M261.7 122.8l-1.3 2.1 2.7.3zm0 4l.4 2.4 2.2-1.5zm-5-10.5l.3 2.4 2.3-1.4zm4.2 4.8l-1.4.8 1.4 1.1zm1.1-1.6l-1.3.8 1.4 1zm1.3 17.7l.9-.3-.7-.7z"/><path d="M260.1 119.8l.5.7.5-.9zm2.3 8.4l-.5.7 1 .1zm-.2-8.9l-1.9-2.8-1.4 2.8zm2.2 3.6l-1.8-3-2.2 3.2zm2.3 3.2l-1.9-2.9-2.1 3.2zm2.4 3.6l-2.1-3.3-1.9 3.4zm3.2 4.7l-1.9-2.8-2.2 3.2zm-16.2-8.5l.8.2-.2-1z"/><path d="M258.9 125.2l1.5.4-.4-1.7zm1 4.4l1 .2-.2-1.1zm-6-5.2l.8.2-.2-1zm2.3 1l.8.1-.2-.9zm2.7 2.7l1.3-1-1.6-1zm10.2 10.9l1.5-.8-1.5-1.2zm-4.2 1.2l.9.1-.3-1zm-1-6.3l.2.9.7-.5zm7.3 3.4l-.7.3.7.6zm-16.5-2l1 .1-.3-1zm-.9-6.3l.1.9.8-.5zm7.6 3.3l-.8.3.7.6z"/><path d="M262.1 141.2l.9.3-.1-1.1zm.4-6.4l-.1.8.9-.3zm6.4 4.8l-.8.2.6.7zm2.2-2l.5.6.4-.8zm2.8-.6l-1.9-2.6-2.1 2.8zM208 151l1.4.4-.2-1.6zm-3.4 1.7l1.3.4-.2-1.6zm1.1-5.5l.1-.8-.9.2z"/><path d="M210.3 153l1.1-1.3-1.9-.5zm-6.3 3.4l1.3-1.4-2.1-.7zm-1.2 3.8l1.3-1.4-2-.6zm1.6-7.9l1.1-1.2-1.8-.6zm2.2-.3l1.1-1.3-1.8-.6zm-.5 2.6l1.3-1.4-2-.7zm.9-7.1l1.1-1.3-1.8-.5zm-.6 1.9l1.1-1.3-1.8-.5zm-.6 19.4l1.3-1.3-2-.8zm2.4-6.5l-1.7-.8-.1 2.2zm-2 2.8l-1.7-.8v2.2zm2.2-7.8l1.5.6-.1-1.8zm.7-7.8l1.3.4-.2-1.6zm-1.3 20.9l1.6.5-.1-1.8zm-.6-10.8l1 .4v-1.3zm1.2-7.2l-.1.9 1-.2zm6.8 6.2l-1 .1.6.9zm2.5-2.3l.3-.9-1.1.1zm-6.4-.7l.9.1-.3-.9zm5.2-6.2l.1.8.8-.5zm4.1 21l.4-1h-1.2zm-7.2-1.3l1 .2-.3-1zm6.3-6.7v.9l1-.4zm-2.3 21.3l.4-1h-1.3zm-7.2-1.3l.9.2-.2-1zm6.2-6.7l.2.9.9-.5zm-1.4 4.4l.5-1h-1.2zm-7.1-1.2l.9.1-.3-1zm6.3-6.8v1l.9-.6zm-7.1 12.7l1-.4-.9-.9zm-4.3-5.8l.6.7.4-.9zm9.2-.6l-.6.7 1 .3zm-3.2-10.2l2 .4-.6-2.2zm4.5-3.8l.1 1 .9-.6z"/><path d="M209 172.7l-.9-.7-.3 1.2zm.8-4.6l-.6-1-.7 1zm-5.2 5.1l.7-.7-1-.3zm-1.9-8.9l.8.4.1-1z"/><path d="M210.1 170.6l.4-1.4-1.7.2zm-9.7-.3h1.2l-.5-1.3zm7-10.1l.4 1.2 1.1-.9zm1 13.1l-.7-1.2-.8 1.4zm-6.1 6.6l.8-.9-1.3-.4zm-2.7-11.1l1 .5.1-1.2zm12.2-8.9l-.6-1-.7 1.1zm-5.2 5.1l.7-.7-1-.3zm-1.8-9l.8.4.1-1zm-1.6 2.4l1.5.5-.1-1.8zm1.5 2l2.5-.3-1.5-2.4zm1.9-2.7l1.6-1.9-2.6-.8zm-3.2 12.2l1.7-1.9-2.7-.8zm-.9 5.4l1.7-1.9-2.7-.8zm.8.9l-2.2-1.2-.2 2.8zm3-1.4l-1.8.2 1 1.8z"/><path d="M205.8 170.1l-1.9.2 1.1 1.8zm-5.4 6.5l1.7-1.8-2.7-.9zm3.5-14l1.5.5-.1-1.8zm-2.1.2l1.6.5-.2-1.8zm12.9-10.1l.3-1-1.2.1zm-2.4-2.1l-.7-.5-.1.9zm4.2 3l1 .1-.4-1zm-13.3 10.9l.2-.9-1.1.2zm5.2-8h1l-.5-.9zm-6.8 12.1l1.3-1.4-2-.7z"/><path d="M200.7 163.8l-.7 3.5 3.9-.8zm-1.1 5.4l-.8 3.6 4-.8zm1.9-10.3l-.7 3.5 3.9-.8zm-2.9 17.2l-.7 3.6 3.9-.9z"/><path d="M202.5 154.8l-.8 3.5 4-.8zm.5-3.6l-.6 3.5 3.9-1zm.8-3.6l-.3 3.2 3.3-1.1zm-4 29.7l1.2-1.4-2-.7zm-1.4-2.7l1.8.6-.1-2.1zm-.5 5.6l1.8.7-.1-2.1zm.1.8l.3 1.9 1.8-1.2zm2.8-.1l1.6 1 .3-2zm-1.7 3.1l1.6 1 .3-2zm10.6-10.1l-.6-1-.7 1.1zm-5.2 5.1l.7-.6-1-.4zm-1.9-8.9l.8.4.1-1zm8.9-6.3l-.4-.8-.6.8zm2.7-2l-.7-1.4-1.1 1.4z"/><path d="M211.8 166.6l-.5-.8-.6.9zm-.7-2.5l-.5-.8-.5.8zm-1.9 10.8l1.4-1.3-2.1-.7zm1.7-2l.6.4.1-.9z"/><path d="M217.7 161.8l-.6-1.1-.9 1.1zm-6.2 5.4l.8-.7-1.1-.5zm-1.4-10.3l.8.6.2-1.2zm-2.3-24.1l1.3.5v-1.6zm-.9 3.5l1.1-1.3-1.8-.5zm-1.1 3.8l1.1-1.3-1.8-.5zm1.9-7.8l1.3-1.1-1.7-.8zm2.3 0l1.2-1.1-1.7-.8z"/><path d="M208.5 134.7l1.1-1.3-1.8-.5zm.9-4.6l1-1.1-1.5-.6zm-.6 17.4l1.1-1.3-1.9-.5zm1.6-5.7l-1.5-.6v1.9zm-1.4 2.5l-1.5-.7v1.9zm1.4-6.9l1.3.4-.2-1.5zm.9 9.5l1.8.2-.7-1.9z"/><path d="M212.2 146.7l-.5-.8-.6.9zm-4.2 4.7l.5-.6-.9-.3zm-2.2-7.7l.8.3v-.9zm6.7 5.2l.3-1.3-1.4.3zm-8.5.1h1.1l-.5-1.1zm5.7-9.1l.4 1 .9-.8zm1.9 11.7l-.7-1-.6 1.2zm-5.2 5.9l.6-.8-1-.3z"/><path d="M203.8 147.8l.9.5v-1.1zm-4.3 31.6l1.3-1.4-2.1-.7zm-1.4 3.9l1.3-1.4-2-.7zm2.8 8.8l1.4-1.4-2.1-.7zm2.5-6.6l-1.7-.9-.1 2.2zm-1.9 2.9l-1.7-.9-.1 2.2zm2.4-7.8l1.5.7-.1-1.8zm-1 13.1l1.5.6v-1.9zm-.4-10.8l1 .4.1-1.2zm1.5-7.2l-.1.9 1-.2zm6.6 6.5l-1 .1.5.9zm4.1-1.6l.5-1h-1.3zm-7.1-1.4l.9.1-.2-1zm6.4-6.6l.1 1 .9-.5zm1.6 21.4l.5-1h-1.2zm-7-1.4l.9.1-.3-1zm6.4-6.6v.9l.9-.4zm-11 5.5l2 .5-.6-2.3zm4.6-3.6l.1.9.9-.5zM204 196l-.8-.7-.3 1.2z"/><path d="M204.9 191.4l-.6-1-.7 1zm-5.3 5l.7-.6-.9-.4zm-1.7-9l.8.5.1-1zm7.2 6.6l.5-1.4-1.7.1z"/><path d="M195.5 193.4h1.2l-.5-1.3zm7.3-9.9l.3 1.2 1.1-.8zm3 11.6l-.7-1.1-.9 1.2zm-6.5 6.3l.8-.8-1.2-.5zm-2.2-11.2l1 .6.2-1.3zm10-7.2l-.6-1-.7 1.1zm-5.2 5.1l.6-.7-.9-.3zm-1.9-9l.8.4.1-1z"/><path d="M198.5 181.5l1.5.5-.1-1.8zm1.4 2l2.5-.3-1.4-2.4zm1.9-2.7l1.7-1.8-2.6-.9zm-3.3 12.3l1.7-1.8-2.6-1zm-1 5.3l1.7-1.8-2.6-.9zm1 1.2l-2.1-1.3-.4 2.8zm2.8-1.5l-1.8.1.9 1.9zm-.4-4.8l-1.9.1 1 1.9z"/><path d="M195.4 199.7l1.7-1.8-2.7-.9zm3.7-14l1.6.5-.2-1.8zm-2 .2l1.5.5-.2-1.8zm1.3 1.7l.2-.9-1.1.2zm5.5-7.7h.9l-.4-1zm-7.2 11.8l1.3-1.4-1.9-.7z"/><path d="M196.5 186.3l-.9 3.5 4-.7zm-1.3 6.2l-.8 3.5 3.9-.7zm2.1-10.7l-.8 3.6 3.9-.9zm-3.3 16.1l-.7 3.5 3.9-.9z"/><path d="M198 177.8l-.8 3.5 3.9-.8zm-3.1 22.7l1.4-1.3-2-.8zm-.5-4.1l1.7.8v-2.1zm12.4-9.2l-.4-.8-.7.8z"/><path d="M209.4 185.3l-.6-1.4-1.2 1.3zM207 190l-.5-.8-.6.8zm-.7-2.5l-.4-.8-.6.8zm-2.1 10.7l1.4-1.3-2-.7z"/><path d="M205.9 196.2l.6.5.1-.9zm7.1-10.8l-.6-1.2-.9 1.1zm-6.3 5.2l.8-.7-1.1-.5zm-1.2-10.3l.8.6.3-1.2zm2.5-6l-.7-1.2-.9 1.3zm-6.4 6.3l.8-.7-1.2-.5zm-2.3-11.1l1 .6.1-1.3zm14.5-30.5l-.6-.8-.5.9zm-4.3 4.8l.6-.6-.9-.3zm-2.1-7.8l.7.3.1-.9zm-1.6 2.6l1.4.4-.2-1.6zm1.6 1.6l2.2-.4-1.4-2.1zm1.7-2.8l1.4-1.7-2.4-.7zm-2.4 11.2l1.4-1.7-2.4-.7zm.1-6.5l1.4.4-.2-1.6zm-1.8.3l1.4.4-.3-1.6z"/><path d="M206.3 143.8l.1-.8-.9.2zm4.4-7.5l.8-.1-.5-.8zm-5.6 11.2l1-1.3-1.7-.5z"/><path d="M204.5 142.8l-.5 3.1 3.4-.9zm.6-3.7l-.5 3.1 3.4-.9zm.7-3.8l-.5 3.2 3.4-.9zm.8-3.6l-.7 3.1 3.5-.7zm.4-3.1l-.5 2.7 3-.7zm6.4 14.4l-.4-.7-.5.7z"/><path d="M213.8 145.4l-.4-.7-.5.8zm-.7-2.2l-.5-.6-.5.7zm-5.4-17.1l1.2.3-.3-1.4zm2.4-3.5l.2-.7-.8.1zm-.3 4.8l1.3-.8-1.5-.9z"/><path d="M210.1 128.9l1-1-1.5-.6z"/><path d="M207.6 125.9l-.5 2.8 3.1-.8zm.8-2.5l-.4 1.7 1.8-.3zm.8 0l1.2-.9-1.5-.8z"/></g><g fill="#c65d80"><path d="M249.6 173.5l-1 .7 1.3.8zm1.1-3.9l-1.2.5 1 1zm-4.5 2.8l-.1 1.5 1.7-.6zm-4.1-3.6l-.1 1.5 1.7-.6zm-3.2 1l-1.5.5 1.2 1.3zm-6.6 1.4l1.3.8.3-1.7zm12.9-5l-.1 1.5 1.7-.6zm1.5 2.6l-.1 1.5 1.7-.6z"/><path d="M242.2 166.7l-.1 1.6 1.7-.7zm-4 .7l-.1 1.6 1.6-.7zm10.5-.7l-.1 1.6 1.6-.7zm-2.6-3.2l.4 1.5 1.4-1.1zm4.3 6.4l.3 1.5 1.4-1zm-1.5 1.2l.3 1.5 1.4-1zm-.5-2.3l-.1 1.5 1.6-.6zm2.1 4.4l-.2 1.5 1.7-.5z"/><path d="M251.2 173.2l.1 1.6 1.5-.8zm-5.8-5.6l-1.3.4 1.1 1.1zm5 6.9l-.8 1 1.4.3zM245 166l-.9.3.7.8zm3.1 5.4l-.4-.6-.5.7zm-7.6-.5l.5-.6-.8-.3zm-1.5 3.5l.3.8.7-.7zm5-3.4l-.7.4.7.5zm-.2 7.7l-.5-.5-.3.8zm-2.9-3.3l1 .1-.5-1zm-1.4-6l.1.8.7-.6zm7 2.6l-.7.3.7.5zm1.9-7.4l-1 .5 1 1.1zm-2-.6l-1.4 1.5 2.1.8zm-15.3 4.3l-1.5.5 1.1 1.3zm15.2-1.4v2l2.1-.9zm-1.5-3.4l-1 .8 1.3.7zm1.1-.9l-1.1.7 1.2.8zm-1.8 11.9l.3.8.7-.7zm3.4 2.3l.8-.2-.6-.6z"/><path d="M242.5 175l-.7.4.7.4zm3.3-6.4l-.6.5.8.3zm2.5-4.3l-1.5-2.3-1.9 2.4zm1.8 2.9l-1.6-2.5-1.8 2.7zm1.9 2.8l-1.7-2.4-1.7 2.7zm-20.6 0l-.1 1.5 1.6-.5zm22.4 2.6l-1.7-2.4-1.7 2.7z"/><path d="M255.4 174.9l-1.7-2.4-1.7 2.7z"/><path d="M257.1 177.1l-1.8-2.4-1.6 2.9zm-12.2-5.5l1.2.2-.4-1.4zm-3.9.6l1.3.1-.5-1.4zm-11.4-4.3l1.3-.1-.7-1.2z"/><path d="M248.6 174.6v1.6l1.6-.8zm1.8 2.5l1.5-.5-1.2-1.3zm6.3 1.7l1.4-.4-1.1-1.4zm-2.2.7l1.5-.4-1.1-1.4zm-1.4-2.3l1.5-.5-1.2-1.3zm-1.2 1.7l-.9-.2.3 1zm.3 5.9l-.1-.8-.8.4zm-6.5-3.8l.7-.2-.5-.7zm-9-6.7l-.2.9 1-.3zm5.8-.6h-.7l.4.8zm-3.3 6.6l-.3-.6-.6.5zm14.9-1.3l-1.6.5 1.3 1.3zm-9.8.7l-.5-.6-.4.7zm2.4-2.4l.9.2-.1-1zm0-6.2v.8l.8-.3zm6.3 4.5l-.7.2.5.6z"/><path d="M223.2 165l.6.7.4-.9zm3.4-4.8l-.4.6.8.1zm2.8 6.9l-.7-.2.1.8zm-4.4 2.3l.6.7.4-1zm3.4-4.9l-.4.6.8.2zm2.7 6.7l-.7-.2v.8zm2.2 3.5l.6.7.4-1zm3.5-5l-.5.6.9.2zm2.6 7.4l-.7-.3v.8zm11 12l.9-.2-.7-.8zm-1-7.2l.8-.2-.6-.8zm-2 2.1l.4.7.5-.7zm7.5.4l-.5.5.7.3zm-3.4-10.4l.2 2 2-1.1zm.5-1.8l-.1 1.5 1.6-.5zm0 5.4l.8.9.6-1.4zm-7.5-.1l.6.4.1-.9zm-3.6 2.9l.7.7.5-1.1zm3.6-5.7l-.5.8 1 .1zm3.5 7.7l-.8-.3.1 1zm8.8-3.2l-1.2-.6v1.4zm1.6.9l-1.1.8 1.3.7z"/><path d="M258.3 180.8l-1.2-.6v1.5z"/><path d="M257.6 182.5l2-.3-1.3-1.9z"/><path d="M257.3 180.6l2.2-.4-1.7-2.1zm-1 1.1l.3 1.5 1.4-.9zm2.1 1.7l.5 1.5 1.3-1.2zm-.8.1l-1 .8 1.4.6zm2.1-1.9l-1.1.7 1.3.8zm-6.5-.1l.7.4.1-.8z"/><path d="M261.2 182.2l-1.8-2.1-1.5 2.9zm5.4 6.4l-.5.7.9.2zm-1.5-.6l.6 1.1.8-1.1zm-2-2.1l.4 1.2 1-.9z"/><path d="M264.9 189l.5.9.7-.8zm-4-.1l1.1-.9-1.4-.8zm2.1.8l1-.9-1.4-.7zm-3.8-3.6l1.2-.8-1.3-.8zm-3.4 1.5h.8l-.3-.9zm-1.4-5.2l.2.7.6-.5zm6.5 2.1l-.6.3.6.5zm-2.1 10.2l.8-.1-.5-.8zm-2.1-4.9l.3.6.5-.5zm6.6 1.2l-.5.4.7.4zm1 7.8l1.1-.2-.6-1.1zm-4.1-5.5l.3.6.5-.5zm6.7 1.2l-.6.4.7.4zm-12.3-3.1h.8l-.4-.8zm-1.4-5.2l.2.7.6-.5zm6.4 2.1l-.5.4.6.4zm-2.5 3.7l-.1.9 1-.2zm5.9-.3h-.7l.4.8zm-3.6 6.5l-.3-.7-.6.5zm-.1 2l-.8.5.9.5zm-10.9-3.2l-.3.8.9-.1zm5.3.4l-.7-.1.3.7zm-.5-2.6l-.3.7h.9zm5.3 1.1l-.7-.2.2.8zm-4.8 4.8v-.7l-.7.4zm-15.1-18.2l.9-.2-.7-.8zm8.4 5.6l.8-.1-.5-.8zm-2.1-4.9l.3.6.5-.6zm3.5 3.5l.3.6.5-.6zm-5.6-1.9h.8l-.4-.9zm2.5.6l-.1.9 1-.2zm2.2 6.2l-.2-.7-.6.5zm3.2.6l-.8.5.9.5zm-14.1-1.8l-.3.8.9-.1zm5.3.3h-.7l.3.7zm-1.1 9l-.1-.7-.7.4zm.6-11.6l-.3.8h.9zm5.3 1.1l-.7-.1.2.8zm-4.8 4.9v-.7l-.7.3zm21.8-7.3l-.6.9 1.2.2z"/><path d="M262 186.1l-.3 1.6 1.7-.4z"/><path d="M262.1 186.1l-.8.7 1.1.5zm.5-2.3l-.9.8 1.2.6z"/><path d="M260.8 184.8l.5.4.3-.7zm2.1-.7l-1.7-2.1-1.6 2.6zm1.7 1.7l-1.5-1.8-1.1 2.3zm1.9 1.6l-1.8-1.5-.5 2.3zm1.6 1.2l-1.6-1.1-.4 2.2zm-3.9 1.8l-1.1 1.5 2 .4zm2 5.9l-1.1 1.5 1.9.4zM254.1 184l.3 1.7 1.7-1.1zm-9.2-9.4l.3 1.8 1.7-1.2zm22.2 14.8l-.8 1 1.5.4z"/><path d="M266.1 189.4l-.7 1.1 1.5.2zm-.5 2.1l.7 1.4 1.1-1.4zm2 1.7l.9 1.3.9-1.5zm-.4-.2l-.8 1.1 1.5.2zm.7 3.5l-.7 1.1 1.4.2zM255 180.7l-.8 1 1.5.3zm-4.3 1.8l-.8 1.1 1.5.2zm8.6 7.7l-1 1.5 2.1.4zm4.3 2.3l-.8 1.1 1.5.2zm4.7 1.8l-.7 1 1.5.3zm.5-3.9l-.8 1 1.4.4zm-3.6 5l.6-.5-.8-.3z"/><path d="M270.3 190.1l-2.2-1.5-.6 3.2zm-1.3 5.8l.9-1.1-1.6-.5zm-25.7-22.6l.1-.8-.9.2zm-5.2.6l.7-.1-.4-.6zm3.1-6.2l.3.7.5-.5zm2.6-1.6l.4 1 .8-.8z"/><path d="M240.6 165.9l.7 1 .7-1.1zm.9 2l.6-.4-.7-.4z"/><path d="M240.7 165.9l-1.9 1.1 1.8 1.6zm2.3-1.4l-2 1.2 2.1 1.5zm-7.4 4.7l-1.9 1.1 1.8 1.6zm2.2-1.5l-2 1.2 2.1 1.5z"/><path d="M244.8 163.3l-2 1.2 2.1 1.5zm25.7 32.7l-2 1.1 2.1 1.6zm-.2-5.1l-2 1.2 2 1.6z"/><path d="M270.4 193.5l-2 1.2 2.1 1.5zm-4.3 5.8l.7 1.4 1.1-1.3zM248 178.9l.6 1.4 1.2-1.4zm1.6-.4l1.5.5-.2-1.8zm2.3 4.7l1.5.5-.3-1.7zm9.1 7.2l1.5.5-.2-1.8zm3.1 5.9l1.4.5-.2-1.8zm-7.2-9.5l.7 1.4 1.1-1.4zm-2.1 1.4l-1.1 1.2 1.7.5zm8.2 7.2l-1.1 1.1 1.7.6zm-7.7-1.1l.2 1.5 1.5-1zm13 4.4l.9 1.3.8-1.5z"/><path d="M270.7 198.8l-2 1.1 2.1 1.6z"/></g><g fill="#d87390"><path d="M200.8 139.7l-1.3-.2.4 1.4zm3.4-1.9l-1.1-.5v1.4zm-5.2-1.2l-1.2 1 1.6.8zm5.8-2.2l-1.1 1 1.6.7z"/><path d="M205 130.3l-.7 1.3 1.7.2zm-1.1 7.5l-.9 1.2 1.7.3zm-2-.2l-.8 1.2 1.7.3zm1.3-2l-1.1 1 1.5.7zm-1.6 4.5l-1.2.9 1.5.8z"/><path d="M202 140.6l-1 1.2 1.6.5zm-.1-7.6l-1.2-.6v1.4zm-1.3 7.9l-1.2.1.7 1.3zm2.1-9.3l-.8-.4-.1 1zm-1.5 5.6l.2-.7-.9.1zm-4.9-5.4h.7l-.3-.8zm-3.5.9l-.4.8h.9zm5.6 1.5l-.8-.2.2.8zm.1-.8l.6.6.4-.9zm2.9-5l-.4.6.8.1zm3.3 6.5l-.7-.2.1.8zm1.4-2.4l-1.2-.5v1.4zm-1.2-1.6h-2l.9 2zm2.4-6.9l-1.4-.6v1.7zm-4.3 9.1l-1.4 1.4 2 .9zm1.1-3.7l-1.3-.2.5 1.4zm1.5-.6l-1.2-.1.5 1.3zm-9.5 7.6l-.4.8h1zm.7 4l.7.3v-.8zm-2.1-4.9l-.7-.1.1.8z"/><path d="M201.5 133.9h-.7l.3.8zm4.7-2.8l.7-2.8-3.1.6zm-.8 4.4l.5-2.8-3.1.7zm-.6 3.3l.6-2.8-3.1.7zm-.2-13.3l-1.1 1.1 1.5.6z"/><path d="M206.9 127.8l.8-2.7-3.2.3zm1.1-3.9l.7-2.3-2.7.3zm.8-3.2l.5-1.5-1.8.1zm-4.5 21.4l.5-2.8-3.1.7zm-.5 3l.5-2.8-3.1.7z"/><path d="M203.3 147.9l.4-2.9-3.1.8zm-4.5-12.5l.7 1 .7-1.3zm.3 4.2l-1 1.1 1.6.6zm-.3 3.1l1.4.7.1-1.7z"/><path d="M201.4 148.2l1.3.7.2-1.7zm-1.6-.9l1.4.7.1-1.7zm.8-2.6l1.3.7.1-1.8zm-2.2.1l-.5-.7-.5.8zm-7.2-13.7l-.7.5.8.4zm4.4 3.6l-.5-.5-.2.8zm4.2 11.7l-1.4-.7-.1 1.8zm-3.7-6.1l.5.8.6-.8zm4.2-4l-.5.6.8.3zm1.3 7.2l-.6-.4-.1.8zm-2-21.4l-.3.8 1-.1zm5.8.3l-.7-.1.3.8zm-4.3 5.9l-.2-.7-.6.5zm7.3-10.1l-1-.6-.2 1.3zm.8-1.2l-1-.2.2 1.1z"/><path d="M209.3 118.8l.9-2.1-1.5.1zm-1.8.9l-1 .7 1.1.7zm2.9-3.5l.7-1.5-1.3.3zm1.1-2.7l.8-1.7-1.4.7zm1-2.3l.5-1.2-.9.6zm-6.7 3.3l-.2.6h.7zm3.1.2l-.6-.1.2.6zm2-.8l-.5-.1.1.6zm.6-2.1l-.6-.1.2.6zm-5.6 8v-.6l-.6.3zm-5.8 21.6l-.7.2.5.6zm1.6 0l-1.3 1.5 2.2.7zm1.6-.9l-1.2.9 1.5.8zm-3.8 3.6v1.3l1.3-.6zm-5.2-5.4l.2.7.6-.5zm1.9-1.9l-.8.2.6.7zm5.7 12.3l-.5-1.2-.9 1.1zm-.5 3.4l-.5-1.2-1 1.1z"/><path d="M202 151.2l-.5-1.2-1 1.1zm-1.5 1l1.7 1.1.3-2.3z"/><path d="M201 150.2l1.7 1.1.4-2.3zm-3.5-3.2l.1.7.7-.5zm4.4 8.5l.4-2.2-1.7-.3zm-5-9.1l1.4.4-.3-1.6zm1.8-4.3l-.4.6.7.1zm2.2 6.3l-.6-.3v.8zm-3.6-7l-.4.6.7.1zm2.3 6.3l-.7-.3.1.8z"/><path d="M200.4 150.6l.3-2.3-2.5.7z"/></g><g fill="#ffa124"><path d="M194.4 149.1l.5-.6-.8-.3zm-1.2 3l.5-.5-.8-.3zm3.4-3.7l-.4-.6-.5.7zm1.3 7.8l-1 1.1 1.6.5zm1.2-1.6l-.9 1.3 1.6.3zm-1.8-2.3l-.6-1.1-.9 1.2zm-3.3 3l1.1-1.5-2-.4zm1.7 2.9l1.1-1.5-2.1-.4z"/><path d="M201.1 154.8l-1.2-.4.2 1.4zm-2.1-3l-.7.9 1.3.4zm-3.3-2.5l1.4.3-.3-1.5zm-1.6-2.6l.2.8.7-.6zm-1.6 2.7l.2.8.7-.6zm0-4.2l.5.7.4-.8zm5.3 8.9h-1l.5 1.1zm.2-4l-1.5.6 1.3 1.2zm-2.3.1l-1-.2.3 1.2zm5.5 8.5l-1.2-.2.3 1.3zm-1.8-1.4v.7l.7-.3zm2 .8l.3-1.9-2.1.3zm-3.5 3.5l2.1-1-2-1.6z"/></g><g fill="#af6b56"><path d="M267.2 179.9l.7.1-.4.7zm-1.9 4.5l.3-.6.4.6zm6.1-1.1l-.5-.4.6-.3zm4.3-5.2l.6-.5.2.9zm1.9 4.5l-.2-.6h.7zm3.5-5.2l-.7.1.2-.7zm-25.3-5l.3-.7.6.6zm3.8 3l-.5-.4.7-.3zm.6-6.2l-.5.4-.2-.7zm1.7 7.6l.6-.5.2.8zm.8 1.4l.6-.5.2.8zm1.2 3l-.3-.5.7-.1zm-.8-1.4l-.3-.5.7-.1zm4.1-4.1l-.6.2.2-.7zm-5.3 2.6l-.6.2.1-.7zm-2.8-22.6l.6.3-.6.5zm-.2 20.5l.6.3-.6.5zm-1.6-.9l.6.4-.6.5zm-6.5-8.5l.7.3-.7.5zm2.1 2.7l.7.3-.7.6zm12.8-18.6l.6.3-.6.5zm-9.9 8.4l.4-.5.3.7zm6.1.9l-.3-.5.7-.1zm-2.4-1.4l-.3-.5.7-.1zm-.9-2.3l-.4-.5.7-.1zm-3.2 5.8l-.1.7-.7-.5zm-4.5-2l.6.3-.6.4zm3.3 11.2l.6.3-.6.4zm.5-3.6l-.1.6-.6-.4zm3.8 3.4l-.1.6-.6-.3zm-6.6-4.9l.4-.5.3.6zm11.4 4.8l.4.2-.4.4z"/><path d="M261.2 173.5l.2-.3.2.4zm3.9.7l-.2-.4.4-.1zm3.8 4.5l-.4.2v-.6zm-.3-3.1v.4l-.4-.2zm-3.1 2.5h.4l-.2.4zm9.6 2.7l-.4.2v-.5zm-.3-3.1v.4l-.4-.2zm-3.1 2.5h.4l-.3.4zm.4 6l-.5.1.1-.5zm-.3-3.2v.4l-.4-.1zm-3.1 2.5l.4.1-.2.3zm6.9 2.9l-.4.2.1-.6zm-.1-3.1v.4l-.4-.2zm-3.2 2.3l.4.1-.3.3zm9.5 2.9l-.4.1v-.5zm-.1-3.1v.4l-.4-.2zm-3.2 2.2l.3.1-.2.4zm11.4-2.2l-.4.2.1-.6zm-.1-3.1v.4l-.4-.2zm-3.2 2.3h.4l-.3.4zm-13.4-30.7l-.2.4-.4-.4zm-5-1.9l.2.2-.4.2zm.3 4.7l.3-.3.1.5zm17.5 17.5h.5l-.2.4zm3.6 3.1l.1-.4.3.3zM266 158l.2.4-.5.1zm-.4 6.6l.4-.1-.1.4zm-7.7-.4l.1.8-.8-.2zm-7 4.5l2-.4-.5 2.2zm5.7 7.5l2-.4-.5 2.2zm2.7 3.6l2-.4-.5 2.2zm2.9 3.4l1.9-.5-.4 2.2zm2.9 2.8l1.4-.5-.1 1.7zm-11.7-15.5l.8-1.2 1 1.4zm-.6-3.4l.8-1.3.6 1.3zm2.3-1.9l.8-1.3.5 1.3zm2.3 9.6l.8-1.3.6 1.3zm-.2-4.2l.8-1.2.6 1.2zm0-11.6l.8-1.3.6 1.3zm-.5-1.6l-.1-1.5 1.2.7zm3.9.2l-.1-1.5 1.2.7zm1.8-3.5v-1.5l1.1.7zm1.7 1v-1.5l1.1.7zm4.5-4.4l-.1-1.5 1.2.7zm-4.9 7.8l-1.1-.8 1.2-.4zm-1.2 16l.8-1.3.6 1.2zm3.9 6.7l-.8-1.3h1.4zm-1.6 4.4l-.8-1.3h1.4zm3 2.8l-1.2-1 1.3-.4zm2.8-2l-.8-1.3 1.4.1zm4.6-.1l-1.4.3.5-1.3zm-6.9.1l-1.5.2.6-1.1zm8.4 3.9l-1.5.2.6-1.3zm1.5-4.3l-1.1 1.1-.3-1.4zm4.7-1.3l-1.1 1.1-.2-1.3zm-2.3 1l1 1.1-1.4.2z"/><path d="M279.3 190.1l.8 1.3h-1.4zm-.7-1.6l1.4-.4-.4 1.3zm3.1 2.7l.1-1.1 1-.9.9 1.9zm2.5-.4l.3-1 .9-.3.6 1zm-10.4-.6l-1.3-.8 1.2-.6zm-.3-11.7l-1.5.2.6-1.2zm1.7 7.2l-1.5.2.6-1.3zm13.3.1l-.8 1.3-.5-1.3zm3.3 2.7l-1.5-.3 1-1zm1.8-1l-1.5-.4 1-.9zm-7.5 1.4l-1.4-.3.9-.9zm7.2-.2l-1.5.3.5-1.3zm-23.5-4.9l-.8-1.4 1.4.2zm1.6-1.4l-1.5-.1.9-1.1zm.9 8.4l-1.4-.6 1.1-.8zm-8-12l-.8-1.3h1.4zm-5-4.9l-.8-1.2h1.4zm2.7 8.9l.8-1.3.6 1.2zm-1.9-5.8l.8-1.2.5 1.2zm-4.9-5.6l.8-1.2.5 1.2zm2-10.6l.8-1.2.6 1.2zm3.1 2.2l.6-.9.4.9zm-7.5 1.1l-.2-1.5 1.2.6zm-1.8 2.1l-.2-1.5 1.3.6zm4.9 1.2l.8-1.2.6 1.2zm-7.2-3l.8-1.3.5 1.3zm.2-2.7l1.6-1.2.1 1.8zm5-.9l1.6-1.1.1 1.8zm-5 4.8l1.9-.4-.5 2.2zm5.2 7.4l2-.4-.5 2.1zm14.2 15.8l1.6-1.2.4 2.3zm4.9 2.4l1.1-1.6 1.1 1.9z"/><path d="M269.8 188.3l1.7-1.2.4 2.2zm6.1 3.1l1-1.8 1.3 1.8zm12.1-1.2l.6-1.8 1.6 1.1zm8.5-2.9l.6-1.6 1.4 1.1zm1.2-1.8l.3-1.1 1 .8zm11.1-3.8l.3-1.1 1 .8zm3.8-3.4l1-.4v1.3zm4.4-1.6l1.1-.3-.1 1.2zm4.9-2.4l1-.3v1.2zm2.6-1.7l.8.7-1 .6zm-4.3 1.1l.7.6-.9.5zm-4.5 2.8l.7.6-.9.5zm-8.6 3.5l.7.6-.8.5zm-2.4 3l.7.6-.9.5zm-3.1.4l.7.5-.9.5zm-1.4 1.7l.7.6-.8.4z"/><path d="M296.8 183.6l.7.6-.9.5zm7.6-4l.7.6-.9.4zm12-5.3l.1.9-1-.3zm-5.1 2.6l.1.9-1-.3zm12.2-6.4l.2.9-1-.3zm3.9 1.4l.1.9-.9-.2zm5.8-2.9l-.1.7-.8-.1zm-3.3 1.4l.1.9-1-.3zm-1.8-.8l.8.4-.7.7zm14.92-6.8l.74.57-1.04.43zm1.68-.6l.7-.7.4 1zm-13.4 6.7l.6-.6.4.9zm-17.7 10.3l.6-.7.4 1zm7-3.5l.7-.6.4.9zm23.5-13.5l.7.5-.8.5zm5.3-2.6l.8.3-.7.7zm3.3-1.6l.7-.4.1 1zm2.7-2.1l.5.8-1 .1zm.92-.44l.7.4-.7.6zM354 156.6l.4.7-.9.2zm-2.7.2l.3.5-.7.1zm-1 1.1l-.1.7-.6-.5zm-1.3-1.2l-.1.7-.6-.4zm7.4-2l-.1.6-.6-.4zm1.6-.4l-.1.6-.6-.4zm-10.4 3.7l.8-.3v.9zm-1.3 4.3l.3-.8.7.6zm-20.8 10.5l.7-.6.3 1zm-30.9 11.5h-1.3l.6-1.3zm9.2.2l-1.2.5.2-1.5zm8.6-4.1l-1.5.8.2-1.4zm7.4-3.7l-1.5.8.1-1.4zm4.9-2.7l-1.5.8.2-1.3zm7.5-3.9l-1.5.9.1-1.5zm-2.6 1.5l-1.6.9.2-1.5zm5.3-3.1l-1.5.9.1-1.5zm14.7-7.3l-1.45.57.05-1.17zm3-1.6l-1.5.9.1-1.5zm2.95-2.36l-1.16 1.15.2-1.4zM307.9 182.5l-1.5.9.2-1.5zm-61.3-19.9l1.9-.4-.4 2.2zm8.4-5.3l.2 2-2.2-.8zm4.4-2.8l.2 2-2.1-.8zm8.2-5.2l.2 1.8-1.9-.7zm-15.2 9.7l.1 2-2.1-.8zm.6 5h.6l-.3.6zm3.1 5.4l.2-.6.5.4zm4.9 3.8l.1.7-.8-.2z"/><path d="M256.1 172.9h.6l-.3.7zm3.1 5.4l.2-.6.5.5zm-5.5-16.8l-.3.7-.5-.7zm-2 1.2l-.3.7-.5-.6zm-3.2-.6l.5.4-.6.3zm1 2.7l.4-.4.2.6zm20.1-15.4l.5.3-.5.4zm-2.2 2.4l.4-.4.2.5zm-.1.9l-.1.6-.6-.4zm-2-.9l-.1.6-.6-.4zm-4.5 2.3l-.2.6-.5-.4zm3.6-1.7l.5.2-.5.4zm-1.2 0l.5.2-.5.3zm1.2 3.6l.3-.3.3.5zm1.4-3.3l.4.5-.7.2zm-3.6 1.7l.4-.2v.6z"/><path d="M266.4 157.2v-.6l.5.2zm-3.5-3.3l.1.5-.7-.1zm-2.4 1l.5.1-.3.5zm.9-1.2h.5l-.3.5zm0 4.3l.2-.5.4.4zm-8.6 1.6l.1-.5.4.4zm2.2 6.6l.1-.5.5.4zm6.9-9.7l.2-.5.4.4zm-4.2.7l.1.6-.7-.2zm-1.6 0l.1.6-.7-.1zm2.4 4.8l.1.6-.7-.2zm1.7 3.7l.2.6-.7-.2zm-6.3-6.8h.5l-.3.6zm2.3 2.5l.2-.5.4.4zm7.4-.4l.1.6-.7-.2zm-4-.2h.5l-.3.5zm2.5 4.4l.1-.5.5.4zm6.5 17.5v-.7l.8.3zm4.8.9l-.5-.2.3-.5zm-2.4-5.7l-.3.6-.4-.6zm-6.2 5l-.1-.8.8.3zm4.8.8l-.6-.1.4-.6zm-2.5-5.7l-.2.6-.5-.6zm.5 1.4l.4.6-.9.1z"/><path d="M262.9 180.6l.6-.1-.1.7zm4.6 4.1v-.6l.6.3zm.3-1.8v-.8l.8.4zm4.8 1.1l-.6-.1.4-.6zm-2.1-5.8l-.3.5-.4-.5zm4.9 5.5v-.8l.8.3zm4.7 1.1l-.6-.1.5-.6zm-2-5.8l-.3.5-.4-.5zm-8.4 1.8l.6-.4.2.8zm2 4.5l-.3-.5h.7zm3.4-5.1l-.6.1.2-.7zm-1.4 2.8l.6-.4.2.8zm2 4.5l-.3-.5h.7zm3.4-5.1l-.6.1.2-.7zm-5.7 6.2v-.7l.8.3zm4.8 1.2l-.6-.2.4-.5z"/><path d="M276.1 183.9l-.3.6-.4-.6zm-7.8 1.6l-.1-.7.8.3zm4.7 1.2l-.6-.2.4-.5zm-2-5.8l-.3.5-.5-.5zm-10.9-3v-.8l.8.4zm-3.8-4.4v-.8l.8.4zm7.1 8.1v-.7l.8.3zm6.2 5.1l-.5-.5.7-.4zm-17.5-19.2l-.6-.5.8-.3zm12.8 11.5l-.6-.2.4-.5zm-2.1-5.8l-.3.5-.4-.5zm-2.1-.5l-.1-.7.8.2zm-4.1-4.1l-.1-.7.8.2zm7.6 7.6l-.1-.7.8.3zm6.6 4.6l-.6-.5.7-.4zM251.9 163l-.6-.5.7-.4zm13.6 10.5l-.6-.1.4-.6zm-2.5-5.7l-.2.6-.5-.5zm16 19.3v-.8l.8.4zm4.8 1.1l-.7-.1.5-.6zm-2.1-5.8l-.3.5-.4-.5zm2.6 1.9l-.6-.4.8-.5zm3.8-3.2l-.5.5-.2-.8zm-5.9-1.8l.2.6h-.7zm5.5 10.6l-.7-.2.5-.7zm2-4.5l-.2.6-.5-.5zm-6.1 1l.5.3-.6.3zm26.4-7.7v-.4l.5.2zm3.2 1l-.4-.1.3-.3zm-1-3.4l-.3.3-.2-.3zm.4-.1v-.5l.5.3zm3.2 1.2l-.5-.1.4-.4zm-1-4.2l-.2.4-.3-.5zm.2 5.4l-.2-.3.4-.2zm2.1-1.6l-.3.2v-.4zm-2.3-1.2l.1.3-.3-.1zm-18.4 9.8l-.2-.5.6.1zm3.4-.3l-.5.1.2-.5zm-2.6-3.4l-.1.5-.4-.3zm4.4 3.1l.1-.5.5.3zm6.5-3.9l-.4-.1.4-.4zm-4.2.9l-.3.3-.3-.4zm-5.9-2.7l.6-.1-.1.6zm0 3.4l.1-.4.4.2zm3.7-2.3l-.4-.1.3-.4zm-11.5-4.9l.6-.2-.1.6zm0 3.3l.1-.4.4.2zm3.7-2.3l-.5-.1.3-.4zm-2.5 4.1l.3.4-.6.1zm-3.2 1l.4-.1-.1.5zm3.4 2.7l-.1-.4.5.2zm8.1-2.8l.3-.1v.4zm0 2.2v-.3l.3.1zm2.3-1.5l-.2-.1.1-.3zm4.1.5l-.2.3-.2-.3zm-1.6-1.4l.2.1-.3.2zm-.4 2.7l.2-.1v.2zm6.2-3.1l-.2.3-.2-.3zm-1.6-1.4l.2.2-.3.1zm-.4 2.7l.2-.1v.2zm-11.2-2.4l-.2.3-.2-.3zm-1.6-1.5l.2.2-.3.2zm-.4 2.8l.2-.2v.3zm51.8-21.7l-.1.3-.3-.2zm-2.1-.8l.3.1-.2.2zm.6 2.7l.2-.2.2.2zm-17.8 9.6l-.1.3-.2-.3zm-1.6-1.4l.2.2-.2.1zm-.4 2.7l.2-.2.1.4zm-29.4 14.6l-.2.3-.2-.3zm-1.7-1.5l.2.2-.2.1zm-.4 2.7l.2-.1.1.3zm18-13l-.2.3-.2-.3zm-3.6-1.3l.2.2-.3.1zm.3 3.3l.3-.2v.3zm-2.1-1.1l.1.4-.4-.1zm-3.5 1.4h.3l-.2.2zm2.4 2.2l.1-.3.2.3zm0-6.9v.3l-.3-.1zm-3.6 1.3h.3l-.2.3zm2.4 2.3l.1-.3.2.2zm10.5-5.4l.1.3h-.4zm-3.5 1.4h.2l-.1.2zm2.3 2.2l.1-.3.3.2zm6.1-7.6v.3l-.3-.1zm-3.6 1.3h.3l-.1.3zm2.4 2.2l.1-.2.2.2zm1.6-.2l.3.2-.3.2zm-1.3 3.6l.2-.2.1.3zm3.3-.3l-.2-.2.3-.1zm-4.9-7l.3.1-.2.3zm0 3.8l.1-.3.2.3zm2.9-1.4l-.2-.2.3-.1zm-20.8 2.7l.1.3-.4-.1zm-3.5 1.3l.3.1-.2.3zm2.4 2.3l.1-.3.2.2zm22.2-2.9l.1.3-.4-.1zm-3.5 1.3l.2.1-.1.2zm2.3 2.3l.1-.3.2.2zm-21.3-2.6l.3.1-.2.3zm-.2 3.8l.1-.2.2.2zm3-1.2l-.2-.2.3-.1zm2.1-.3l.4.1-.3.3zm-.2 3.8l.1-.2.2.2zm3-1.2l-.2-.2.3-.1zm1.8-.7l.1-.3.3.3zm3.6 1.3l-.2-.2.2-.1zm-.4-3.3l-.2.2v-.3zm-17.1 5l.5.3-.5.3zm-2.6 2.2l.3-.3.2.5zm4.1 1.3l-.2-.4h.5zm-4.6 5.2l-.4-.3.6-.2zm6.1-11.3l-.3.3-.1-.5zm10.2 3.5l.1.4h-.4zm25.6-13.5l-.5-.2.5-.4zm11-7.2l-.3.4-.3-.4zm-13.3 4.2l.3.3-.5.2zm-9 6.1l-.4-.4.6-.2zm2.9-1.9l-.4.3-.1-.5zm-3.9-1.7l.1.4-.5-.1zm22.8-4.7l-.5-.2.4-.4zm1.6-2.2l-.2.3-.2-.4zm-.6.8l.3.3-.5.1zm-16.7 10l-.5-.2.4-.4zm-3.8 1.3l-.5-.2.4-.4zm7.1-2.4l-.5-.2.4-.4zm3.9-2.3l-.5.2v-.6zm-16 5.9l-.5.2v-.6zm10.8-5.3l-.3.3-.2-.4zm-4.4-.2l.3.3-.4.2zm-.2 2.5l-.4-.3.5-.3zm2.8-1.8l-.3.2-.1-.5zm-3.9-1.8l.2.4h-.5zm-31.6 21l-.6.1.2-.6zm.2-3.4v.4l-.5-.2zm-3.8 2.1l.5.1-.4.4zm41.9-19.1l-.4.3-.1-.6zm-1.3-3.2l.2.5-.5-.1zm-2.4 3.5h.4l-.2.4z"/></g><g fill="#ffb7a4"><path d="M304.5 165l-.4-.1v.5zm-16.5 3.2l-.2.3.4.2zm27.5-6.2v-.3l-.3.1zm-15.4 3.7l-.3-.1-.1.3zm-2.3 2.4v-.3l-.3.1zm-1.4-1.3l.3-.1-.1-.3zm-1.5 1.3l-.2-.3-.2.3zm-3.9 1l.2-.2-.3-.2zm5.6 1.7l-.1-.3-.3.3zm-4.6 1.9l.2-.2-.3-.1zm.7-3.4l.2.2.1-.3zm12.3-1.7l-.1-.3-.3.2zm-3.6.3l.2-.2-.3-.2zm.4-2.7l.3.2v-.3zm9.4 2.6l-.1-.3-.3.3zm-3.4 1.3l.3-.2-.3-.1zm.7-3.4l.3.2v-.3zm1.6-.8l.1-.3h-.4zm-.4 5l.3-.2-.4-.2zm-2.2-3.3l.2.2.1-.3zm3.4-.5l-.1.3h.3zm-15.9 5.4l-.2-.3-.2.3zm-6.8 2.9l.2-.2-.3-.1zm0-3.3l.2.2.1-.3zm2.1 3.1l.2-.3-.3-.1zm-.5-2.4l-.1.3.4-.1zm2-1.1l.3-.2-.4-.2zm-2-2.7l.2.2.1-.3zm2.9-1.2l-.1.3h.3zm1.9-.4l.3.1.1-.4zm4-.3h-.2l.1.3zm23.8-6l-.3.5h.6z"/><path d="M325.1 160.7l-.4-.1v.5zm-3.6 2.8v-.4l-.5.1zm-9.8-.9l-.1.6.6-.2zm-2.9 1l-.1.6.6-.2zm-1.63-.14l-1.57.34 1.1 1.3zm6.93-1.66l-2.1.5 1.3.8zm6.3-1.5l-2.1.4 1.3.9zm-16.73 3.9l-1.67.4 1.2 1.4zm-6.87 1.64l-1.56.18 1.16 1.28zm-6.92 1.06l-1.58.2.9 1.5zm8.62-.4l-.3 1 1.1-.2zm-1.7 2l-.2.7.8-.1zm3.7.3l.6.4.2-.8zm10.1-3.2l.6.5.2-.9zm-3.2-1.8l.5.4.2-.8zm9.7-2.6l.5.4.2-.8z"/><path d="M304.5 164.3l.6.5.2-.8zm-2.1 2.4l.6.4.2-.8zm-1.5-1.9l-.3 1 1.1-.1zm3.9.8l-.3.9 1.2-.1zm-14.2 1.7l.7.8.5-1.1zm2.1 1.5l.9-.1-.4-.8zm14.3-4.2l.7.5.1-1zm5.2.3l.7.5.1-.9zm-3.3.7l.8-.4-.7-.6zm.5-1.7l.8-.4-.7-.6zm-8.7 3.2l.3-.8h-1zm-2.2-1l.3-.8-1.06.22zm-2.7 1.8l.3-.8h-1zm14.4-4.8l.7.5.2-1zm6.4-.7l1 .6.1-1.3zm4.4-2.3l1 .8.5-1.2zm2.7-.7l1 .7.5-1.1zm-9.5 2.7l.8.5.1-1zm-20.7 5h.8l-.4-.9zm20.5-3.5h-.5l.2.5zm-1.2 3.1l-.2-.4-.3.3zm13.6-7.4l-.4-.2.1.5zm-3.6 2.8v-.5l-.4.2zm-3.8-.2l-.4-.2v.5zm-3.8 1.9l.1-.4-.5.1zm1.5-2.2h-.5l.3.5zm-.9 4l-.1-.5-.4.4zm4.7-4.2h-.6l.3.5zm.2 3.1l-.2-.5-.4.3zm-3.4-.9l.5-.3-.5-.3z"/></g><g fill="#ffc1a6"><path d="M154.5 141.3l.7.2-.5.7zm-2.3 4.6l.3-.5.5.5zm6.5-.8l-.5-.4.7-.3zm-7.4 4.3l.7.4-.8.5zm-1.2 1.3l.7.4-.8.5zm-1.2 4l.8-.8.5 1.2zm.5 4.5l-.8-.8 1.2-.4zm1.6-2.4l-1.1-1.1 1.6-.5zm-1.8 6l-.2-1.5 1.6.5zm2.3-21.2l1.6-1.3.5 2.2zm4.9-4.4l2.1-1.6.7 2.9zm-7.8 14.3l.5-.4.2.7zm5.4 2.9l-.3-.5.7-.1zm-4.3-4.5l-.3-.6.8-.1zm6.8-5.1l-.2.8-.6-.6zm-4.4-2.5l.5.3-.6.4zm.3 6.4l.5-.4.3.7zm3-10.9l.5 2.1-2.3-.5zm5.4-3.6v1.5l-1.4-.7zm3.6-2v1.5l-1.5-.7zm-13.4 14l-.2.8-.7-.6zm.3-1.9l-.1.8-.7-.5zm5.5-6.6l-.2.8-.7-.6zm4.1 1.3l.6.4-.6.4zm-7 5.6l.4-.4.3.7zm4.9-4.2l.5-.4.2.7zm2.5-2.1h-.8l.3-.8zm4.5-4.9l-.2.7-.6-.5zm-10.7 6.4l-.3 1.3-1.2-.9zm3.6-.4h-1.1l.5-1.1zm-2.6 4.5h-.6l.3-.7zm3.6-8.1l.6.3-.6.4z"/><path d="M157.4 149.1l-.1.5-.5-.3zm-3-1.4l.4.2-.4.3zm.5 4.1l.3-.3.2.4zm-3.4 5.2l-.3-.4.6-.1zm3-1.2l-.3.1v-.5zm-3.4-2.4l.1.4-.5-.1zm3.9 10.8l-.5-.1.4-.4zm1.9-2.6l-.2.3-.3-.4zm-4.1-.3l.2.4-.4.1zm7.9-8.9l.4-.2v.5zm2.6-10.7l-.8.3.1-.9zm-.8-5.1v.7l-.7-.2zm-4.9 4.4l.7.1-.4.6zm-2.8 5.9l-.7.3v-.9zm-.8-5.1l.1.6-.7-.2zm-5.1 5l1.2.9-1.5.8zm-.2 3l1.2.8-1.4.9zm-.3 2.8l1.7 1-1.7 1.3zm4.4-9.3l1.1 1-1.5.6zm-2.6 5.1l1.3-.8.2 1.7zm5-6.5l1.3-.7.1 1.7zm10-5.3l-.8-.2.5-.7zm-1.7-1.8l-.8-.1.5-.8zm3.4.6h.5l-.3.6zm-6.3 3.7l.6.1-.3.5zm2.1-3.7l-1.2.5v-1.5zm1.7 2.7l-.6.2v-.7zm-7.1 4.9l-.6.2v-.7zm5 1.4l-.6.3v-.7zm5.6-8v.5l-.5-.2zm-6.2 2.3l.6.1-.3.5zm-13 17.9l.5-.6.4.8z"/><path d="M151.9 160.7l-.4-.6.7-.1zm2.1-6.2l-.6.3v-.8zm-2.1 2.1l.5-.6.4.8zm3.2 4.1l-.4-.6.7-.2zm2.1-6.2l-.7.2.1-.7zm-.6 1.4l-.2.7-.7-.5zm-4.6-2.3l.6.3-.6.4zm.7 6.4l.4-.4.3.6zm-1.6 6.2l.5-.6.4.8zm3.2 4l-.3-.5.7-.1zm2.1-6.1l-.6.2v-.7zm-3.8 6.1l.4-.6.4.8zm3.2 4l-.4-.5.7-.2zm2-6.1l-.6.2v-.7zm-6.7-9l.4-.7.5.8zm-.7-6.1l.4-.6.5.7zm1.3 11.3l.4-.7.4.8zm2.4 8l-.2-.7.9.2zm-4.5-26.3l.5-1.4 1.2 1.2zm4.9 16.9l-.4-.5.7-.2zm1.7-6.3l-.6.3v-.7zm-1-10.4l.8-.2-.1.9zm3.3-5.1l.7-.2-.1.8zm-6.2 9.5l.8-.2-.1.9zm-3.2 7.8l.4-.7.5.6zm14.1-23.4l.4-.7.6.7zm-7.7 16.3l-.1-.6.7.3zm5.2-3.7l-.6-.2.4-.6z"/></g><g fill="#af6b56"><path d="M180.2 141.6l.2.6h-.7zm-4.1 1.1l.6-.1-.2.6zm3.9 3.5v-.5l.6.2zm-5.3-.4l.2.3h-.5zm-2.5.6l.3-.1-.1.4zm2.4 2.2v-.3l.3.1zm7.9-12.4l.3.6h-.7zm.9.2l.7 1.4-1.4-.1zm-13 21.3l-.5 1.5-1-1.1zm-2.2 6l-.8 1-.4-1.2zm1 5l-1.1-.7 1.1-.6zm.2-2.6l-1.1-.7 1.1-.6zm-1 13.9l-.8-.5.8-.4zm-2.9-16.4l.8.4-.1-.9zm-.4 2.2l.8.4v-.9zm.1 4l.3.9.5-.7zm1.3-.7l.8.3-.1-.8zm.9 7l.1.9.7-.5zm.2-4.4l.3.8.6-.7zm-1.5 1.4l.2.7.5-.5zm-2.1-4.7l.3.7.5-.5zm.9-7l.3.8.5-.6zm-.3-4.3l.3.9.5-.7zm3.6 5.6l.3.8.6-.6zm.8-2.6l.8.4-.1-.8zm-2.3-.4l.8.4-.1-.8zm4.6-3.7v1.1l-.9-.5zm.2-1.1l-1 .4.1-1zm-3.3-.7l-.8.4.1-.8zm2.1-1l-.8.4.1-.8zm-1.6 5.3l-.8.4.1-.8zm4.2-3.4l.1 1.1-1-.4zm-3.4.8v1.1l-.9-.5zm17.4-13.2l.7 1.4-1.5-.1zm1.4 2.6l.7 1.3-1.5-.1zm-3 1.2l-.2 1.5-1.2-.9z"/><path d="M182 152l-.1-1.5 1.3.7zm-5.7 2.6l.1-1.3 1 .7zm5.5-5.5v-1.3l1.1.6zm1.7-1.7l-.1-1.3 1.1.6zm2.3 3.2l.2-1.3 1 .8zm3.4-1.3v-1.4l1.2 1.1zM188 148l-.2 1.3-.9-.8zm-7.2-16.6l.6 1.4-1.4-.1zm-2.6-4.6l.7 1.4-1.5-.1zm.1 2.8l1.5.4-1.1 1zm-3.1 3.4l1.1.3-.8.8zm-1-3.2l1 .3-.7.6zm1.1-2.2l.9.3-.7.6zm1 3.4l1 .2-.7.7zm.5 6.9l.9.3-.7.6zm2.5 3.2l.7-.6.2.9zm-1.9 2.7l.8-.6.1.9zm1.5 3.4l1-.7.1 1.2z"/><path d="M179.8 147.8l.9-.6.2 1zm-1.1 2.9l1-.6.1 1zM176 147l.9-.6.2.9zm-3-9.6l.9-.4.1.8zm-2.7 1.3l.8-.6.2.8zm5 9.9l.8-.5.1.8zm1.7 4.5l.8-.5.1.8zm-3.4 1.9l.9-.4v.8zm1.2-1.9l.8-.5.1.8zm-.2 1l.2-.9.7.5zm4.6-.9l.1-1 .7.5zm-5.4-.9l-.6-.8.8-.2zm.2-2.7l-.5-.8.8-.2zm-3.4-.1l-.4-.7.6-.1zm1.3 2.4h-.7l.2-.6zm3.2-4.7h-.8l.2-.6zm6.4-2h-.7l.2-.6zm-2.6-9.7l1.3.4-1 1zm1.8-2.5l1.1.4-.8.7zm1.1 1.9l1 .3-.7.7zm1.8 3.4l1.1.3-.8.7zm-2.4-.3l.5 1h-1.1zm-3.8-12.7l.5.9h-1.1zm-.1 2.6l.5 1-1-.1zm.5 8.7l1.1.2-.7.8zm4.1 4.7l1.1.2-.7.8zm3.6.6l1.1.2-.7.8zm-.1 2.1l.6.9-1 .1zm2.2 2.6l.6.9-1 .1zm-5.5-2.4l.6.9-1 .1zm-3.1-3.7l.6.9-1.1.1zm3.8 2.5l.6.9-1 .1z"/><path d="M181.3 139.4l.8-.8.2 1zm2.4 1.2l1 .3-.7.7zm3.2 3.6l1 .3-.7.7zm-1.6-4.3l.7 1.3h-1.4z"/><path d="M180.9 135.6l.5-.1-.1.6zm4.2 6.2v-.6l.6.3zm-11.5-8.4l-.4.4-.3-.6zm-2.4-3.5l.3.5-.6.1zm-2 4.9l.5-.2v.6zm10.9-1.4l-.5.5-.2-.7zm-2.4-3.4l.3.4-.6.1zm-2 4.8l.5-.1-.1.6zm-1.3 6.3v-.4l.4.1zm2.7.3l-.4-.1.2-.3zm-1.5-3l-.1.3-.3-.3zm-10.5 12.7l-.1-.4.4.1zm3.7-1.1h-.3l.2-.3zm-2.2-2.5l-.1.2-.2-.2zm1.7-3.4l-.3-.4.5-.1zm3.1-4.6l-.3.2-.1-.5zm-4.7-.8l.1.4h-.4zm5.4 7l-.2-.3.3-.1zm2.4-3.5l-.3.2v-.4zm-3.6-.5l.1.3-.4-.1zm3.1 8.7l-.3.2-.1-.4zm-4-.6l.1.3h-.4zm-7.3 5.6l-.3.2v-.4zm5.4-3.3l-.1.3-.3-.2zm-3.4 2.2l.3.2-.3.2zm-.7 2.7l.1.3-.3-.1zm-1.8 2.5h.3l-.2.3zm15.4-17.3l-.3-.3.5-.1zm2.6-3.8l-.2.2-.1-.4zm-3.9-.6l.1.3-.4-.1zm-15.2 16.7l-.2-.4.4-.1zm3.1-3.5l-.4.1v-.3z"/><path d="M160.3 149.9l.1.4-.4-.2zm17.6-10.4l-.4.1v-.5zm-2.4-4v.3l-.4-.1zm-2.2 3.3l.3.1-.2.3zm-.1 2.6l-.4.2v-.6zm-2.9-4.8l.1.4-.5-.1zm-2.6 4h.4l-.3.5zm5.4 1.8l.1.4-.5-.1zm-4.4 1.2l.3.1-.2.3zm2.6 3.1l.1-.3.3.2zm15.1-3.9l-.3.4-.3-.5zm-1.9-2.8l.2.4-.5.1zm-1.7 4l.4-.2v.5zm-1.6-2.8l-.5-.2.5-.4zm2.1-2.7l-.3.4-.2-.5zm-4.4-.3l.3.3-.4.2zm4.4 2.4l-.5-.1.2-.5zm-3.2-2.1l.4.2-.4.3zm2.7 7.6l-.4-.3.5-.4zm2.5-2.4l-.3.3-.2-.5zm-4.2-1l.2.4h-.5zm5.8 5.8l-.5-.3.5-.3zm.4-4.1l-.3.3-.2-.5zm-2.2.7l.2.4h-.5zm-4.1-7.8h-.5l.2-.6zm.9-3.3l-.1.4-.4-.3zm-4.1 1.3l.4.2-.4.3zm1.3-3.4h-.5l.2-.5zm-.7-3.4l-.1.5-.3-.4zm-2.5 1.4l.4.3-.5.2zm2.9 4.6h-.5l.3-.5zm1-3.3l-.2.5-.3-.4zm-4.2 1.3l.4.2-.4.3zm10.6 13l.6.1-.3.6zm-1.5 3.8l.1-.5.5.4zm4.4-1.2l-.4-.3.5-.3zm-5.4-5.5l.2-.5.4.5zm-9.8-11.1l.6.1-.4.6zm-1.6 3.9l.2-.5.4.4zm5.2-1l-.5-.3.6-.3zm3.2 13.8l.6.2-.5.6zm4.5-2.1l.6.2-.5.6zm-8.4 3.9l.7.2-.5.5zm-5.5 4l.5-.4.2.7zm12.2-5l.6-.4.1.7zm-4.9 2.9l.3-.5.4.5zm5.3-.4l-.4-.4.6-.2zm-7.1-18.7l.6.1-.4.6z"/><path d="M175.2 136.6l.2-.5.4.5zm5.2-.9l-.5-.4.6-.3zm-4.7 9.4l.5-.5.2.7zm2.2 3.5l-.3-.4.6-.1zm2.3-4.7l-.5.2.1-.6zm-2.6 3.2l.2-.6.5.5zm3.5 2.3l-.5-.4.5-.3zm0-5.3l-.4.3-.2-.5zm-10.9 13.3h-.5l.2.4zm-2.8 1.7l.4-.2-.4-.2zm-.5 2.6l.1.4.4-.2zm2.7-1l-.3.1.3.3zm-.8 3.6l-.2-.3-.2.3zm4.5-12.8v.4l.4-.2zm2.7-1l-.3.1.2.3zm-.8 3.5l-.2-.3-.3.4zm6.1-7.1l.1.4.4-.3zm2.3-1.1l-.3.1.2.3zm-.4 3.1l-.2-.2-.1.3zm-5.2 3.9h.4l-.1-.4zm-.5-2.9l.1.4.3-.2zm3.4 1.5l-.3.2.2.3zm-14.7 9.2l.2-.2-.3-.1zm-1.6-.9l.2.1v-.3zm2-1.2v.3l.2-.1zm5-2l.2-.2-.3-.1zm-1.6-.8l.2.1v-.3zm2-1.2v.3l.2-.1zm-4.4 19.6l.2-.2h-.3zm-2.1-2.5l.3.2v-.3zm2.7-.6v.2h.2zm-1.2-.9h.3l-.2-.4zm0-4l.1.3.2-.3zm-3.8 4.1l.4-.1-.3-.3zm0-4l.2.2.2-.2zm3.2 1.5l-.3.2.3.1z"/><path d="M163.2 179.9l.5-.1-.3-.4zm.1-4.8l.1.3.3-.3zm3.6 1.8l-.2.2.3.2zm-5.8-11.8h.3l-.2-.3zm0-3.2l.1.2.2-.2zm2.5 1.2l-.2.2.3.1zm16.5-12.9l.3-.1-.2-.2zm-.3-3.2l.1.2.1-.2zm2.6.9l-.2.2.3.1zm-20.3 15.6l.1.2.2-.3zm2.9-1.3l-.1.1.2.1zm-.1 2.7l-.2-.1v.3zm1.4-7.1l.3.3.1-.5zm.9-2.6l-.1.4.3-.1zm1.7 2.6h-.3l.1.4zm2.9-5.2l-.4-.2-.1.5zm-7.3 8.1l.1-.3-.4.1zm6.8-6.7l-.1-.5-.4.3zm1.9-.2h-.5l.3.5zm-4.5 1.3l.3-.1-.3-.3zm.6-3.6l.2.3.2-.4z"/></g><linearGradient id="K" gradientUnits="userSpaceOnUse" x1="177.03" y1="217.655" x2="182.257" y2="218.138"><stop offset="0" stop-color="#cc7a5e" stop-opacity="0"/><stop offset=".924" stop-color="#aa5f4b"/></linearGradient><path d="M169 206.9l1.2 4s1.6 1.1 3.5 3.4 4.6 9.7 5.3 11.3.2 1.8-.3 2.1c-.4.3-1.2-.1-1.7-.7s-2.9-3.8-2.9-3.8-3.4-.3-5.3-3c-1.8-2.6-.9-6.2-.9-6.2l1.1-7.1z" fill="url(#K)"/><linearGradient id="L" gradientUnits="userSpaceOnUse" x1="164.383" y1="169.307" x2="194.962" y2="175.161"><stop offset="0" stop-color="#cc7a5e" stop-opacity="0"/><stop offset=".924" stop-color="#aa5f4b"/></linearGradient><path d="M178.6 153.5l11.7-4.6-9.4-17s-.3-1.6-9.3 4.9c-8.8 6.4-15 16.1-15.7 19.7-.8 4.5 2.8 33.4 4.5 44.3 1.5 9.8.4 8.5 5.5 9.1 2.1.3 4.8 1.3 4.8 1.3l-1.3-4.5.4-40.8c.1-1.9-.2-4.6 1.6-8 .9-1.9 4.3-3.2 7.2-4.4z" fill="url(#L)"/><linearGradient id="M" gradientUnits="userSpaceOnUse" x1="165.593" y1="223.162" x2="172.392" y2="217.596"><stop offset="0" stop-color="#cc7a5e" stop-opacity="0"/><stop offset=".924" stop-color="#aa5f4b"/></linearGradient><path d="M167.37 217.25s-3.5-.8-4.7 2c-1.1 2.5.3 4.9 1.3 6 1.6 1.8 5.4 1.6 7 .3 1.8-1.3 1.5-2.3 1.5-2.3s-2.3-.6-3.6-2.1c-1.8-1.9-1.5-3.9-1.5-3.9z" fill="url(#M)"/><g fill="#cc7a5e"><path d="M172.2 239.5c-1.8.2-2.26-2.02-2.36-2.32s.16-.48.46-.58.27-.44.37-.14c.42 1.28.78 2.17 1.63 2.04.65-.26.48-1.15.48-1.35s.22-.25.42-.35.3-.37.4-.17c.17.4.34.7.64.83.2 0 .47.04.67-.16.4-.3.3-1.3-.2-3.9-.7-3.7-1-10-1-10.3 0-.2.1-.4.4-.5.32-.1.58 0 .68.2.9 1.5 2.45 3.9 3.25 4.2.36 0 .67-.1.58-.6-.2-.7-1.02-2.62-1.33-3.5-1.02-2.86-2.18-6.78-4.28-8.78s-3.3-3.2-3.9-5c-.5-1.7-.5-2.5-.2-23.5v-2.3c.3-22.6 1.2-25.2 1.3-25.3.1-.3.4-.4.7-.3s.4.4.3.6c0 .1-.9 3.1-1.2 24.9v2.3c-.3 20.4-.3 21.6.2 23.2s1.5 2.6 3.6 4.5c2.3 2.2 3.6 6.2 4.5 9.2 0 0 1.3 3.8 1.3 4 .35 1-.68 1.95-1.8 1.56-.9-.3-2.02-1.52-2.78-3 .2 2.2.47 5.53.87 7.93.5 2.9.8 4.55-.2 5.25-.6.4-1.13.36-1.44.3-.2-.03-.5-.26-.6-.36-.2.5-.37 1.28-1.45 1.4z"/><path d="M173.3 237.8c-.2 0-.4-.2-.5-.4l-2.4-10.4c-.1-.3.1-.5.4-.6s.5.1.6.4l2.4 10.4c.1.3-.1.5-.4.6h-.1zm-2.9-.3c-.2 0-.4-.1-.5-.4l-2.4-8.9c-.1-.3.1-.5.3-.6.3-.1.5.1.6.3l2.4 8.9c.1.3-.1.5-.3.6 0 .1-.1.1-.1.1zm3.7-13.9c-.4 0-2.7-.1-4.9-2.1-2.3-2-1.9-5.1-1.9-5.2 0-.3.3-.5.6-.4.3 0 .5.3.4.6 0 0-.3 2.7 1.5 4.3 2.1 1.9 4.3 1.8 4.3 1.8a.47.47 0 0 1 .5.5c.1.3-.2.5-.5.5h0z"/></g><path d="M169.3 202.8l-12.2 2.7c-.6.1-.9.7-.8 1.3l1.2 5.2c.1.6.7.9 1.3.8l11.8-2.5c.6-.1.9-.7.8-1.2l-.9-5.3c0-.8-.6-1.2-1.2-1z" fill="#ffcce1"/><linearGradient id="N" gradientUnits="userSpaceOnUse" x1="269.131" y1="204.751" x2="189.732" y2="204.879"><stop offset=".007" stop-color="#ff9f00"/><stop offset=".983" stop-color="#ffd86b"/></linearGradient><path d="M271.4 208.2L192 208l1.2-6.6h77.7z" fill="url(#N)"/></svg>