<svg xmlns="http://www.w3.org/2000/svg" viewBox="0 0 480 480" xmlns:v="https://vecta.io/nano"><path d="M296.8 181c18.8-6.4 36.4-14.8 36.4-14.8s7.1-.3 12.9-5.3c.5-.3.6-1.4.8-2.4.1-.6-1-.9-1.1-1.5-.1-.4 1-.7 1-1.3 0-.8.1-2-.5-2.1-2.5-.5-.4-2-.8-2.8-.5-1-1.5-1.2-1.7-1.2-2.2.5-4.3.9-5.3 1.3-.9.4.8-1.7 1.9-2.9 1.2-1.4 1.4-3.5-1.2-1.8s-5 2.7-5.7 3.3c-.7.5-3.4 2.3-4.7 4.1-.9 1.2-1.5 3.1-4.8 4.2-5.4 1.6-25.5 3.9-35.3 5-4.8.7-5.4 22.8 8.1 18.2z" fill="#ea9d7d"/><linearGradient id="A" gradientUnits="userSpaceOnUse" x1="327.399" y1="161.158" x2="329.648" y2="176.017"><stop offset=".005" stop-color="#cc7a5e" stop-opacity="0"/><stop offset=".924" stop-color="#aa5f4b"/></linearGradient><path d="M313.1 174.9c11.6-4.7 20.1-8.6 20.1-8.6s6.8-.6 12.9-5.3c2.1-1.6-6.2-3.9-10.6-2.9-29.7 6.9-27.4 18.9-22.4 16.8z" fill="url(#A)"/><g fill="#ad5c44"><path d="M322.9 168.1l-.7-.2.3-.8zm-.7-3.5l-.9-.1.5-.9zm1.1 1.7l.5.8-1 .1zm.6 1.2l.7 1-1.3.3z"/><path d="M322 167l-.5-1.4 1.2.3zm3.5 2.6l-1.6.8.3-1.5zm-2.5.9l-.5-1.7 1.4.5zm-.1-1.9l-.4-.3.5-.3zm.2-5.5l.2.4h-.5zm-.7 2.1l.3-.4.3.5zm2.7 3.6l-.5.2.1-.6zm-.8-4.5l-.3-.4.5-.1zm1.9 4.1v.9l-.9-.3zm8.3-2.4l-.8.1v-.8zm-5.8 1.1v.9l-.9-.3zm-1.5-.9l.7.5-.8.6zm3.2-.3l.7-.6.3 1zm.4 1l-1.3.5.4-1.2zm-2.4 1.4l-1.6.8.3-1.5zm4.7-1.8l-1.1.2.3-.9zm-6.5 1l-.2.2-.2-.3zm-1.5-1.7l.2.3h-.3zm-.7 2.7l.2-.1v.3zm7.3-3.6l-.5-.3.5-.3zm3.5.4l.3.3-.5.1zm-9.1 2.3l-.5-.2.5-.4zm3.4-.7l-.5-.2.5-.4zm4.1-2.2l-.5.2v-.6zm-5.3.4l-.3.3-.1-.4zm-4 1.8l-.3-.3.5-.2zm2.3-1.5l-.4.2v-.5zm10.8-.3l-.5.3v-.6zm-8.1-1.2l.1.5-.5-.1zm4.8.4h.5l-.2.4z"/></g><path d="M331.6 158.8h-.4c-.3 0-.5-.3-.4-.6 0-.3.3-.5.6-.4.1 0 1.8.3 4-1.7 2.2-1.9 1.8-5 1.8-5.1 0-.2 0-.3.2-.4 1.3-1.2 3.5-3.5 3.6-4.3v-.3h-.4c-.1 0-.4.2-.7.4l-2 1.2-.9.5c-2.6 1.4-6.2 3.4-7.8 5.9-1.5 2.5-2.6 3.4-4.3 4.2-.2.1-.5 0-.7-.2-.1-.2 0-.5.2-.7 1.5-.8 2.5-1.6 3.9-3.9 1.7-2.7 5.4-4.7 8.1-6.2l.9-.5c.8-.5 1.5-.8 1.9-1.1.5-.3.7-.5.9-.5.7-.2 1.1-.1 1.4.1.4.3.5.8.4 1.2-.2 1.4-2.8 3.9-3.7 4.7.1.9 0 3.7-2.2 5.7-1.9 1.8-3.6 2-4.4 2z" fill="#cc7a5e"/><path d="M338.5 153.7c.4 1.2 2.1 1 4 .2 1.9-.7 3.3-1.5 2.8-2.9-.6-1.5-2.1-1-4-.2-1.9.7-3.3 1.3-2.8 2.9z" fill="#ea9d7d"/><path d="M340 155c-.4 0-.8-.1-1-.2-.4-.2-.7-.5-.9-1h0c-.8-2.1 1.4-2.9 3.1-3.6 1.5-.6 2.7-1 3.7-.6.5.2.8.6 1 1.1.8 2-1.6 3-3.1 3.6-1.1.5-2 .7-2.8.7zm-1-1.5a.78.78 0 0 0 .4.4c.3.1 1.1.3 3-.5 2.2-.9 2.8-1.4 2.5-2.3-.2-.4-.3-.5-.5-.6-.6-.3-1.9.2-2.9.6-2.1 1-2.8 1.4-2.5 2.4z" fill="#cc7a5e"/><path d="M339.9 156.9c.4 1.2 2.1 1 4 .2 1.9-.7 3.3-1.5 2.8-2.9-.6-1.5-2.1-1-4-.2-1.9.7-3.4 1.4-2.8 2.9z" fill="#ea9d7d"/><path d="M341.3 158.3c-.4 0-.8-.1-1-.2-.4-.2-.7-.5-.9-1h0c-.8-2.1 1.4-2.9 3.1-3.6 1.5-.6 2.7-1 3.7-.6.5.2.8.6 1 1.1.8 2-1.6 3-3.1 3.6-1.1.4-2 .7-2.8.7zm-1-1.6a.78.78 0 0 0 .4.4c.3.1 1.1.3 3-.5 2.2-.9 2.8-1.4 2.5-2.3-.2-.4-.3-.5-.5-.6-.6-.3-1.9.2-2.9.6-2.1 1-2.8 1.5-2.5 2.4z" fill="#cc7a5e"/><path d="M340.9 160.1c.4 1 1.8.8 3.4.2s2.8-1.3 2.4-2.5c-.5-1.3-1.8-.8-3.4-.2s-2.9 1.2-2.4 2.5z" fill="#ea9d7d"/><path d="M342.1 161.3c-.4 0-.7-.1-.9-.2-.4-.2-.7-.5-.8-.9-.7-1.8 1.2-2.5 2.6-3.1 1.3-.5 2.3-.9 3.2-.5.4.2.7.5.9 1 .7 1.8-1.4 2.6-2.6 3.1-1 .4-1.8.6-2.4.6zm3.3-3.8c-.6 0-1.4.3-2 .6-1.9.8-2.3 1.1-2.1 1.8h0c.1.1.1.2.3.3.4.2 1.3.1 2.5-.4 2-.8 2.3-1.3 2.1-1.8-.1-.3-.3-.4-.4-.4-.1-.1-.2-.1-.4-.1z" fill="#cc7a5e"/><linearGradient id="B" gradientUnits="userSpaceOnUse" x1="226.553" y1="149.141" x2="325.162" y2="149.141"><stop offset=".394" stop-color="#331012"/><stop offset=".71" stop-color="#441b18"/></linearGradient><path d="M226.9 108.1c7.2-7.2 19-10.8 32.9 10.1 16 24 13.8 41.4 21.6 40.9 9.4-.6 29.4-4.1 35-5.1.8-.2 1.7.4 1.9 1.2l6.8 22.4a1.76 1.76 0 0 1-.7 1.9c-3.7 2.3-17.2 9.9-47.1 16-24.6 5-37.8-51-41.4-63-4.6-15.2-10.9-22.5-9-24.4z" fill="url(#B)"/><path d="M264.8 139.6c-.8-4.2-2.4-8.5-4.2-12.9-7.4-17.7-18.3-27.3-33.2-26.6-3.6.1-15 .3-21.4 26.6-.8 3.4-15.4 81.4-15.4 81.4h79.3c-.1-.1-4.9-67.6-5.1-68.5z" fill="#fffdf3"/><path d="M148.9 180c-5.9 19-9.4 38.1-9.4 38.1s-4 5.9-3.2 13.6c-.1.6.7 1.3 1.5 2.1.4.5.6 1.1 1.2 1.4.4.2.6-.1 1.1.2.6.4 1.4 1.1 2.1 1.1 2.1-.1 1.8.5 2.7.7 1.1.2 1.9-.5 1.9-.7.9-2.1 1.8-4 2-5s.9 1.6 1.2 3.3c.4 1.8 2 3.2 2.1.1s.7-5.7.7-6.5.1-4.1-.6-6.2c-.5-1.4-1.6-3.1-.6-6.4 1.9-5.3 11.8-22.9 16.6-31.5 2.5-4.5-15-18-19.3-4.3z" fill="#ea9d7d"/><linearGradient id="C" gradientUnits="userSpaceOnUse" x1="147.157" y1="216.405" x2="133.809" y2="209.5"><stop offset=".005" stop-color="#cc7a5e" stop-opacity="0"/><stop offset=".924" stop-color="#aa5f4b"/></linearGradient><path d="M144.3 196.7c-3 12.1-4.8 21.3-4.8 21.3s-3.5 5.8-3.2 13.6c.1 2.7 6.8-2.8 8.6-6.9 11.7-28.1.7-33.2-.6-28z" fill="url(#C)"/><path d="M144.62 237.63c-.83-.28-.92-.63-1.12-1.03-.5.4-1.23.64-2.13.24-.8-.3-1.17-.84-1.37-1.34-.3.1-.9.18-1.4-.02-.8-.3-1.06-1.03-1.2-1.48-.3-.1-.8-.4-1.3-1.2-.8-1.5-.3-5.4-.1-7 .4-2.5 2.9-7.8 3-8s.4-.4.7-.2c.2.1.4.4.2.7 0 .1-2.6 5.4-3 7.7-.5 3-.5 5.5 0 6.3.3.6.7.7.7.7.1 0 .3 0 .4.1s.2.2.2.4c0 0 .1.9.7 1.1s.9-.2 1-.3c.1-.2.4-.3.6-.2s.4.4.3.6c0 .1-.2.8.8 1.3 1 .4 1.5-.5 1.5-.7.1-.2.4-.3.6-.3.2.1.4.3.3.6 0 .1-.1.8.8 1.1.7.2.9.1 1.7-1.4l2-4.7c.1-.2.3-.4.5-.3.2 0 .4.2.4.4.2 1.8.8 4.8 1.4 5.5.1.1.2.1.2.1s.1-.1.2-.3c0-.1.1-.5.1-.8 0-.5.1-1.3.2-2.3l.1-1c.4-3 1-7-.2-9.7-1.1-2.7-1.2-4.1-.9-5.9 0-.3.3-.5.6-.4.3 0 .5.3.4.6-.3 1.7-.2 2.9.8 5.4 1.2 3 .6 7.2.2 10.2l-.1 1c-.1.9-.2 1.7-.2 2.2 0 .6-.1.9-.1 1.1-.2.7-.6.9-.9 1-.5.1-.9-.1-1.2-.4-.7-.7-1.1-2.6-1.4-4.2-.3.8-1.4 3-1.4 3-.4 1.12-1.24 2.25-2.58 1.83z" fill="#cc7a5e"/><g fill="#ad5c44"><path d="M144.7 205.6l.6-.4.5.6zm3.4 1.4l.6-.7.4.8zm-2.1 0h-.9l.4-.9zm-1.2-.3h-1.3l.5-1.3zm1.4-1.2l1.4.4-1 .8zm-4.1 1.2l.4-1.7 1 1.1z"/><path d="M142.7 204.4l1.7.5-1.2.9zm1.6 1l.5-.2v.6zm4.5 3.1h-.4l.2-.5zm-1.4-1.7l.2.5h-.6zm-4.4.1l.1-.5.5.4zm4.2 2h.4l-.1.4zm-4.5-.9l-.8-.5.9-.5zm-.5 2.8l-.7-.5.8-.5zm1.7-.7l-.8.3v-1zm-3.2 2.5l.4-1.4.7 1zm.6-2.7l.4-1.7 1 1.1zm1.9-1.1l-.1-.2h.4zm2.2-.2l-.3.1.1-.3zm-1.7-2.1l-.1.2-.2-.1zm-.3 1.8l.4-.2.1.6zm-1.4 3.2l.4-.2.1.6zm2.1.2l-.1-.5.5.1zm.9-4.4h.5l-.2.5zm-.1 2.8l.1-.4.4.2zm-.4 3l-.4-.2.3-.3z"/></g><g fill="#260807"><path d="M274.2 163.4l1.3-.2-.4 1.4zm-3.4-2l1.2-.5v1.5zm5.5-1l1.1 1-1.6.7zm-6-2.4l1.1 1.1-1.6.6z"/><path d="M270.4 153.9l.7 1.4-1.7.1zm.8 7.5l.9 1.3-1.7.3zm1.9-.1l.9 1.2-1.7.3zm-1.2-2l1.1 1-1.5.7zm1.5 4.5l1.2 1-1.5.7z"/><path d="M273 164.3l.9 1.2-1.6.5zm.3-7.6l1.2-.6-.1 1.5zm1.1 7.9l1.2.2-.7 1.2zm-1.7-9.3l.8-.4.1 1zm1.2 5.6l-.2-.7.9.2zm11.5 5.4h-.8l.4-.8zm-1.7 4.5l.4.8h-1zM277 158l.7-.2-.1.8zm5.3 5v-.8l.7.4zm-16.7-32.4l-.6.7-.3-1zm8.5 21.5l.3.6-.8.1zm-3.6 6.4l.7-.1-.2.8zm-1.2-2.4l1.2-.5v1.4zm1.2-1.6l2 .1-1 2zm-1.9-7l1.5-.4-.2 1.7zm3.5 9.3l1.4 1.4-2 .8zm-.7-3.8l1.3-.1-.5 1.4zm-1.6-.6l1.3-.1-.5 1.4zm9.4 7.8l.3.8h-1zm-.8 4l-.7.3v-.8z"/><path d="M280.7 161.1l.7-.2-.2.8zm-7-3.5h.7l-.3.8zm-4.5-2.9l-.6-2.8 3.1.6zm.5 4.4l-.4-2.8 3 .8zm.5 3.3l-.4-2.8 3 .7zm.9-13.1l1 1.2-1.6.5zm-2.5 2.1l-.5-2.9 3.1.7zm-.7-4l-.5-2.4 2.7.6zm-.5-3.3l-.3-1.6 1.8.4zm3.3 21.7l-.5-2.9 3.1.8zm.5 3l-.5-2.9 3.1.8z"/><path d="M271.6 171.5l-.4-2.8 3.1.9zm4.8-12.3l-.8.9-.6-1.2zm-.5 4.2l1.1 1.1-1.7.6zm.2 3.1l-1.3.6-.1-1.7z"/><path d="M273.6 172l-1.3.6-.1-1.7zm1.4-1l-1.3.7-.1-1.7zm-.7-2.6l-1.3.7-.1-1.8zm2.4.2l.5-.7.5.8zm3.6 4.6l-.5-.5.9-.3zm2.2-7.3l-.7.3v-.8zm-16.3-29.8l.6-.5.1.9zm15.2 38.1l-.3-.6h.9zm-6.3-4.1l1.4-.7v1.9zm7.3 8.8v-.8l.8.3zm-3.3-14.8l-.5.8-.5-.8zm-4.3-4l.5.5-.8.3zm-1.5 7.1l.6-.4.1.9zm-7.1-34.1l.1.9-1-.3zm4.5 13h.7l-.4.8zm1.4 5.9l.2-.7.6.5zm-4.1-10.3l1.1-.6.1 1.4zm-.5-1.4h1l-.4 1z"/><path d="M267 142.1l-.4-2.3 1.4.4zm1.8 1.1l.9.8-1.1.6zm-2.3-3.9l-.4-1.6 1.2.6zm-1-7.9l.2.7-.8-.1zm2.7 6.7h.6l-.3.6zm-1.8-1.1h.6l-.3.6zm-.2-2.2h.6l-.3.6zm4.2 8.7l.1-.6.5.4zm10.2 23.5l-.1.9-.9-.5zm-5.7-1.8l.7.2-.6.6zm1.9 7l.5-.6.4.7zm-3.5-7.1l1.2 1.5-2.1.6zm-1.6-1l1.1 1-1.5.8zm3.7 3.8v1.2l-1.3-.5zm5.5-5.3l-.1.7-.7-.5zm-.7 17.9v1l-1.1-.4zm-1.1-19.9l.8.2-.6.8zm2.7 7.8l.4-.8.6.8zm3 13.2l.1-.8.7.4zm-.3-6.7l.7-.1-.2.8zm-3.1 5.6l.6-.5.1.9zm3.3-2.4l-.2.7-.6-.5zm18.9 7.5l.8-.1-.2.8zm6.4-2l.3.7h-.8zm-20.5.2l.3.7h-.8zm17.5.8h-.8l.4-.7zm-26.7-8l-.3.9-.9-.7zm-7.5-3.8l.6-1.2.9 1.2zm.3 3.4l.6-1.1.9 1.1zm-.5-1.3l.6-1.1.9 1.1z"/><path d="M274 176l-1.7 1-.2-2.3z"/><path d="M273.7 173.9l-1.8 1-.2-2.2zm2.7 6.2l.9 1.2-1.6.4zm-1.1-1.6l.8 1.3-1.7.2zm2-2.2l.6-1 .8 1.2zm-2.4 1.9l.7-1 .8 1.2zm-1.7.1l1.2-.3-.2 1.4z"/><path d="M277.6 171.3l-.2.8-.6-.6zm-5 8.4l-.4-2.8 3.1.8zm2.7-5.8l.7 1-1.3.3zm3.7-.5l-1.4.2.4-1.5zm-.7-2.5l-1.3.4.2-1.6zm1.3-.8l-.5.7-.4-.8zm-3.1-4.2l.4.6-.8.1zm-2.4 6.2l.6-.3v.8zm6.8-2.6l-.5.6-.4-.8zm-3-4.3l.3.6-.7.1zm-2.4 6.2l.6-.2v.7zm1.1 6.7l1 .1-.5 1zm-.5-4.9l1.4.6-1.3 1.2zm2.8 1.4l1-.2-.3 1.2zm-4.1 6.6v.6l-.7-.2zm-2.1.6l-.1-1.9 2.1.5z"/><path d="M274.3 174.4l-.2-2.3 2.4.8zm.1 3.1l-.1-2.3 2.3.9zm16.8 9.1l.2-.9.8.7zm6.6-.2l-.5-.5.7-.3zm3.2-3.1l.6.9-1.1.2zm-23-4.7l1.6-.3-.3 1.7zm7.3 5.3l.3.8h-.9zm-12.1.6l-.4-2.8 3 .9z"/><path d="M274.6 185.3l-1.3.6-.1-1.7zm2-1.3l-1.4.7V183zm5.3 2.3l-.5-.6.8-.2zm1.1.9l-.3-.6h.8zm-6.4-4l1.5-.7v1.8zm7.4 8.6l-.1-1.3 1.4.5zm-5.6-6.5l.4-.6.5.7zm2.5 8l1.3 1.1-1.9.3zm5.9-4.7l.1-.8.7.4zm-2.8-.1l.7-.2-.2.8zm.2-2.2l.6-.5.1.9zm-.4 2.4l.4.8-1-.1zm-2.4 3.2l-.3-.7.8.1zm1.2-.9l.7-.4v.8zm3.6.1l-.1.7-.7-.5zm-4.4-1.5l-.2.9-.9-.7zm-7.4-3.8l.6-1.1.9 1.1zm.3 3.5l.6-1.2.9 1.1z"/><path d="M274.2 188l.5-1.2 1 1.1zm1.3 1.2l-1.7.9-.2-2.3z"/><path d="M275.2 186.9l-1.7 1.1-.2-2.3zm2.9 6.8l1.2 1.1-2 .4zm-1.2-2.2l.8 1.3-1.7.3zm1.9-2.1l.7-1.1.8 1.2zm-2.3 1.9l.7-1.1.8 1.2zm-1.7 0l1.2-.3-.3 1.4z"/><path d="M279.1 184.3l-.1.8-.7-.5zm-4.9 8.4l-.5-2.7 3.2.8zm2.7-5.7l.7.9-1.4.3zm3.7-.6l-1.4.3.4-1.5zm-.7-2.5l-1.3.4.1-1.5zm1.2-.7l-.5.6-.4-.8zm-5.4 1.9l.6-.2v.7zm6.8-2.6l-.5.6-.4-.8zm-5.5 1.9l.7-.2-.1.8zm1.2 6.7l1 .1-.5 1zm-.6-4.9l1.5.7-1.4 1.1zm2.8 1.4l1-.1-.3 1.1z"/><path d="M276.4 194.2l.4 1.3h-1.6zm-2 1.3l-.2-2.8 2.2 1.3zm1.5-8.1l-.2-2.2 2.4.8zm0 3.1l-.1-2.3 2.4 1zm3.7 1.2l1.5-.4-.3 1.7zm20.9-4.1l.7-.8.4 1.1zm-7.3.5l.6-.8.6 1zm-10.3 4.8l.8-1.1.9 1.3z"/><path d="M281.3 193.6l1-1.4 1 1.6zm-3.1.1l1-1.5 1 1.7zm11.7-4.2l-.7.1.2-.9zm-2.3.8l.4-.9.8.8zm.8 1.7l.5-1.2 1 1zm-5 2l.5-1.2 1 1zm18.4-6.4l.4-.7.5.8zm5-1.2l.4-.8.5.9zm-4.7 2.7l.1-.9.9.6zm4.2-1.4l.1-.9.8.6zm-5.5-1.4l-.8.2.2-.8zm-6.8 4.1l-1.2-.4 1-1.1z"/><path d="M292.8 191.1l-1.2-.4 1-1.1zm.5-1.2l1.3 1.4-2 .5zm-2.9.8l1.4 1.4-2 .5zm5.6-2.8l1.1-.9.5 1.6zm-10.5 2.6l1.1-1 .5 1.7zm10.5-.4l-.4-1.2h1.4z"/><path d="M297.5 190.4l-2.6.9v-2.1zm-7.9 2.3l-2.6.6v-1.9zm.4-2.7l.9-.8.4 1.3zm-4.6 2l1.5 1.4-2.1.5zm10-5.3l-.1-1 1.1.4zm4.8 3l.3-1.3 1 .9zm3.9-1.3l.3-1.3.9.9zm-5.4-.4l.7-.1-.2.8zm1 1.8l-1.7.5.3-1.9z"/></g><path d="M259.1 125.7c6.3 23.2 5.6 62.4 6.5 82.7.1 3.1 2.7 5.6 5.9 5.6h4.9s-5.7-58.6-13-87.5c-4.6-18.3-19.4-23.1-21.6-23.3 6.4 3.5 14.2 11.3 17.3 22.5z" fill="#441b18"/><path d="M242.5 98.5l-1.2 4.3 9.1 7.8.4-7.4z" fill="#fff"/><path d="M250.8 111.7l-10.1-8.7 1.5-5.2 9.1 5.1-.5 8.8zm-8.9-9.1l8.1 7 .3-6.1-7.4-4.2-1 3.3z" fill="#ddd"/><path d="M218.7 97.2l1.6-3.8c.2-.5.8-.8 1.3-.6l20.5 7 6.5 11.4-17.7-3.1-12.2-10.9z" fill="#fff"/><path d="M249.5 112l-18.9-3.3-12.5-11.3 1.7-4.1c.3-.8 1.2-1.2 2-.9l20.7 7.1 7 12.5zm-18.4-4.3l16.6 2.9-5.9-10.3-20.3-6.9c-.3-.1-.6 0-.7.3l-1.4 3.4 11.7 10.6z" fill="#ddd"/><linearGradient id="D" gradientUnits="userSpaceOnUse" x1="197.164" y1="155.319" x2="240.501" y2="163.23"><stop offset="0" stop-color="#331012"/><stop offset="1" stop-color="#441b18"/></linearGradient><path d="M246.8 150.8c2.2-26.4 2.8-38.2-3.4-44.3-6.8-5.8-12.8-7.2-18.3-7-3.6.1-16.1.8-22.5 27.1l-21 87.4h45.2c5.5 0 12.8-3.7 14.1-9.1 3.8-14.3 4.5-37.7 5.9-54.1z" fill="url(#D)"/><path d="M215.2 231l-1.9-.5c.2-.7 19-74.4 25.3-99 3.6-14.2 3-21.8.1-26.3-1.9-2.9-5.2-4.6-11-5.7-11.1-2.1-17.5 1.7-22.2 12.6-3.6 8.4-3.6 8.4-28.3 101.9l-.7 2.6-1.9-.5.7-2.6 28.4-102.2c5-11.8 12.4-16 24.4-13.8 6.5 1.2 10.2 3.2 12.4 6.6 3.2 5.1 4 12.9.1 27.9l-25.4 99z" fill="#e57d00"/><linearGradient id="E" gradientUnits="userSpaceOnUse" x1="193.244" y1="158.891" x2="166.996" y2="132.814"><stop offset="0" stop-color="#441b18"/><stop offset="1" stop-color="#59221f"/></linearGradient><path d="M239.7 107.6c3.7 7.8 0 29.8-26.8 45.5-23.5 13.8-30 21.2-38.2 33.5-6.7 10.2-10.4 18.3-11.8 21.5-.4.8-1.3 1.3-2.2 1.1l-22-5.8c-.9-.2-1.4-1-1.4-1.9.3-3.7 1.7-14 8.4-29.1 9.5-21.3 16.9-31.1 26.1-41.5 16.6-18.8 29.6-27.6 41.4-30.9 14.8-4.1 22.5-.9 26.5 7.6z" fill="url(#E)"/><g fill="#753837"><path d="M180.7 124.8l.8.8.4-1.1zm2.4-2.2l.4-.5-.7-.2zm-4.5 1.2l1.2.3-.2-1.4zm3.5 1.9l1.3-.4-1-1.1zm-1.9 1.4l1.2-.4-.9-1zm2.5-2.9l1.2-.4-1-1zm6.5 5.8l.7.4.1-.8zm-7.6-9.1l-1.7 1.7 2.5.9zm10.6-5.4l.6.9.7-1zm-1.6-1.1l.6.9.6-1.1zm1.5-1.7l.6.9.6-1.1zm-.3 1.1l.6.9.7-1zm-.5 3.9l1.2-.2-.8-1.2zm-2.9-1.3l1.2-.2-.8-1.2zm-2.5 1.6l1.3-.3-.9-1.1zm5.8-6.3l-1.3 1.1 1.7.8zm1.7 2.6l1.2-.1-.7-1.2zm-3.3 1.9l1.2-.2-.8-1.2zm4.5-3.4l1.2-.3-.8-1.1zm-9.6 11.1l1.2-.4-1-1zm2.7-3.1l-.8-1-.7 1.2zm-1.3 1.1l-.7-1-.7 1.3zm1.6-3.9l.7.8.5-1.1zm6.5-4.7l.7.9.6-1.1zm-1.1-1.6l.6.9.7-1zm-8 10.5l.4.6.5-.6zm3.7-3.2l-.5.4.7.3zm.9 6l-.5-.3-.1.7zm-4.7-.8l1.1.9.3-1.5zm5.5-.5l-.3.6.7-.1zm1.4-3.4l-.1.7.8-.2zm5.6-4.7l-.4.7.8.1z"/><path d="M202.4 117.2l-.6-.2.1.7zm-6.8 3.1l-.6-.2.1.7zm2.3.7v-.6l-.6.2zm1.2-1.4l-.6.1.4.6zm.6 3h-.6l.4.6zm-13-5.5l.6.9.6-1z"/><path d="M186.4 118.5l1.6.7-.1-1.9zm2.7-.4l1.7-.4-1.1-1.5zm-8.2 6.9l1.5-.6-1.3-1.3zm4.3-5.4l.7.8.6-1.1zm-1.3-.6l.8.8.5-1.1zm11.6-2.7l-.1-.6-.5.5z"/><path d="M184.4 120.3l.5-.5-.7-.2zm5.7-2.8l.5.3.1-.7zm-7.5 5l1.2-.4-1-1.1z"/><path d="M183.5 119l-1.8 1.6 2.5 1.1zm2.3-2.1l-1.8 1.6 2.5 1.1zm2.2-2l-1.7 1.6 2.4 1.1zm2.4-2.1l-2 1.8 2.5.9zm3.2-2.4l-1.9 1.4 2.4 1.4zm-3.8 12.4v-.6l-.6.3zm-1.1-1.8v-1.1l-1.1.5zm2.8-2v-.7l-.7.3zm-2.3 5.5l-.1-.6-.6.3zm9.9-12.3v.8l.8-.5zm4.4-6l-.3.7h.8zm3.2 0l-.6-.1.2.7zm2.1-2.7l-.6-.1.2.7zm2.2-2.2l-.6-.1.2.7zm-9.1 10.7l-.1-.6-.6.4zm-.9-2.7l-.2-.6-.5.4z"/><path d="M201.7 106.9v1.4l1.4-.7zm3.7 3.2l-.6.2.5.5zm4.5-7.4l-.6.1.4.6zm1.9-2l-.6.2.4.5zm-8.1 8.8l.5-.5-.7-.2zm0-1.4l.5-.3-.6-.3zm-4.7 6.5l.4-.4-.6-.2zm-9.5 8.2v-.6l-.6.3zm12.1-17.6l.3.7.5-.6zm-1.8 2.7h1l-.5-1zm-2.1.6h1l-.5-1zm4.5-3.8l.7.5.3-.9zm-3.1 6.3l-.5-1-.8 1.1zm-2 1.2l-.6-1-.8 1zm.7 3.1v-.7l-.7.2zm-4.4.6l.5-.1-.3-.5z"/><path d="M195.7 110.9l.2.5.5-.5zm2.7-2.6l.5.7.5-.8z"/><path d="M197.4 109.3l1.2.5v-1.4zm-.4.5l.5.7.6-.8zm-1.6-.5l.6.8.5-1zm.7 1.5l.4-.4-.6-.2z"/><path d="M195.4 109l-1.8 1.4 2 1.3zm2-1.4l-1.6 1.1 1.8 1.1zm2-1.2l-1.5 1 1.6 1zm5.3-2.9l-1.4.6 1.3 1.1zm-3.5 1.8l-1.4.9 1.4 1zm6.2-2.7l-.2.5.6.1zm-1.5 2v1.1l1.1-.5zm3.5-3.1l-.1 1.1 1.2-.5z"/><path d="M205.1 104.5l.8.1-.3-.9zm1.4-1.9l-1.2.5 1.1 1zm2.3-1l-.8.4.8.7zm-44.6 42l.8.7.4-1.2zm2-2.8l.4-.5-.7-.1zm-3.9 2.2l1.3.2-.4-1.4zm3.4 1.3l1.2-.5-1.1-1zm1.6.3l1.1-.5-1-.9zm-1.2-1.8l1.2-.5-1-.9zm7.3 5.3l.7.4v-.8zm-8.4-8.7l-1.6 1.9 2.6.7zm10.1-6.4l.7.9.5-1.1zm-2-1l.7.8.5-1.1zm1.3-2.1l.7.8.6-1zm-.1 1.4l.7.8.5-1.1zm0 4.2l1.3-.3-.9-1.1zm-3-1.2l1.2-.4-.9-1zm-2.3 1.8l1.2-.4-1-1zm4.9-7l-1.2 1.2 1.9.6zm2 2.5l1.2-.3-.9-1.1zM173 134l1.2-.4-.9-1.1zm3.8-4.3l1.2-.4-.9-1.1zm-8.4 12.7l1.2-.5-1.1-1zm2.7-3.5l-.9-1-.6 1.3zm-1.6 1l-.8-.9-.6 1.3zm1.7-3.8l.7.8.4-1.2zm5.7-5.6l.8.8.4-1.1zm-1.4-1.7l.7.8.5-1.1zm-6.5 11.7l.4.6.5-.7zm3.3-3.5l-.4.4.7.3zm1.5 5.9l-.5-.3-.1.7zm-5-.3l1.1.8.2-1.6z"/><path d="M174.1 141.6l-.2.6h.7zm1-3.7v.7l.8-.3zm5.5-5.3l-.3.6.8.1zm4.8 1.1l-.7-.2.2.7zm-6.4 4l-.6-.2v.7zm1.9.4v-.6l-.6.3zm1.5-1.5l-.7.2.5.5zm.4 3l-.6.1.4.6zm2.3-9.1l.5.3.1-.7zm-1.8-1l-.1.6.7-.2zm-.4-2.6l-.1.6.7-.2zm-1.4 4l.7-.1-.3-.6zm-1.5-1.5h1.2l-.5-1.2zm-3.7 7h1.2l-.6-1.2zm5.4-8.7h.6l-.3-.6zm-12.1 7.5l.7.8.6-1.1zm0 1.6l1.6.5-.2-1.9zm2.7-.7l1.6-.6-1.3-1.3zm-8.7 7.5l1.5-.8-1.1-.8zm4.9-5.7l.8.7.4-1.1zm-1.3-.4l.8.7.4-1.2zm11.2-4l-.2-.6-.5.5z"/><path d="M167.8 138.7l.4-.5-.7-.2zm5.3-3.3l.6.3v-.7zm-7.4 5.4l1.2-.5-1-1z"/><path d="M166.6 137.4l-1.5 1.9 2.6.6zm2.1-2.4l-1.6 1.8 2.6.9zm2-2.4l-1.6 1.8 2.6.9zm2-2.3l-1.8 2 2.6.7zm2.7-2.9l-1.7 1.7 2.6.9zm-2.4 13.1l-.1-.6-.5.4zm-.9-1.5l-.1-1.1-1.1.6zm2.6-2.3l-.1-.7-.7.4z"/><path d="M172.6 142.6l-.1-.6-.6.3zm.1-2l-.1-.6-.6.3zm6.5-11.9l-.7-.9-.6 1.2zm1.2 3l-.1-.7-.6.3zm-4.3 1.2l.6-.1-.5-.5zm1.6-5.3l.3.5.3-.5zm1.1-1.3l.6.7.4-.9zm-1.7-.2l.7.7.4-1zm.9 1.4l.4-.4-.6-.2zm-1.1-1.9l-1.5 1.5 2.1 1.1zm1.7-1.7l-1.4 1.4 2 .8zm-26.9 41.3l.9.7.2-1.2zm1.5-3.3l.2-.6-.7.1zm-3.6 2.8l1.3-.1-.7-1.3zm3.7 1.1l1.1-.6-1.2-.8zm2-1.7l1-.7-1.2-.7zm-2-.5l1-.7-1.2-.7zm3.5 4.9l.7.4v-.9zm-5.4-7.6l-1.1 2.1 2.7.2zm8.7-8.4l.9.7.3-1.2zm-1.9-.7l.9.7.3-1.2zm1-2l.8.7.4-1.2zm0 1.1l.9.7.3-1.1zm.6 4l1.2-.6-1.2-.9zm-3.2-.3l1.1-.6-1.1-.9zm-1.9 2.1l1.1-.6-1.2-.8zm3.6-7.7l-.9 1.4 1.9.2zm2.6 2l1.2-.5-1.1-.9zm-2.7 2.9l1.1-.7-1.1-.8zm3.3-4.8l1.1-.6-1.1-.8zm-6.1 13.6l1-.8-1.2-.7zm2-3.7l-1-.8-.3 1.4zm-1.2 1.3l-1.1-.7-.3 1.4zm.6-4.1l1 .6.1-1.2zm4.9-6.5l.9.7.3-1.2zm-1.6-1.3l.8.7.3-1.1zm-4.3 12.6l.5.5.3-.8zm2.4-4.2l-.3.5.7.1zm2.8 5.4l-.6-.1.1.6zm-2.4-4.5l1.3.5-.2-1.5zm1.9 3v.6l.6-.2zm.5-3.6l.1.7.7-.4zm4.5-6l-.2.7.8-.1zm3.5 2.3h-.6l.3.7zm-4.2 2.8l-.7-.1.3.7zm2.4-2.5l-.1-.6-.6.4zm-2.9 5.6l-.6.2.5.5zm4.6-2l-.6.3.5.5z"/><path d="M169.8 148.3l.6.2-.1-.7zm-2-.5v.6l.7-.3zm-1.1-2.6v.6l.6-.3zm-.4 4.1l.7-.1-.4-.6zm-1.7-1l1.2-.2-.8-1.1zm-.3-1.8l.8-.8-1.2-.5zm-2.6 7.9l1.2-.2-.8-1.1zm3.9-8.2l.7-.1-.4-.6zm-10.5 9.5l.9.6.3-1.2zm.4 1.5l1.7.1-.7-1.7zm2.4-1.3l1.4-.8-1.5-1.1zm-4.2 7.2l1.3-1-1.6-.9zm1-4.5l.9.5.2-1.2zm-1.4-.2l.9.6.1-1.2z"/><path d="M163.5 152.3l-.3-.5-.4.6zm-9.3 7.2l.2-.6h-.7zm4.4-4.5l.6.1-.1-.7zm-6 7l1.1-.8-1.3-.7z"/><path d="M152.6 158.4l-1 2.1 2.7.1zm1.5-2.7l-1.2 2.1 2.7.2zm1.6-2.6l-1.2 2.1 2.7.2zm1.6-2.7l-1.3 2.4 2.7.1zm2.4-3.3l-1.4 1.9 2.7.6zm0 13l-.2-.5-.5.4zm-1.3-1.3l-.3-1-.9.8zm2-2.8l-.2-.7-.6.5z"/><path d="M158.2 164.1l-.2-.5-.5.4zm1.2-3.9l-.3-.5-.4.4zm-5.3 15.4l.7.4v-.9zm-11.8 10.2l.6.4.1-.9zm3.6-1.1l.6.4.1-.8zm6-13.1l.5.6.3-.8zm2.9-3.8l-.3.5.7.1zm2.1 5.7l-.6-.2.1.7zm-13.8 11.3l.4.6.4-.7zm3.4-3.8l-.4.4.7.2zm3.2.6l-.4.5.7.2zm-5.8 6.1l-.4.4.6.3zm-.4 2.7l-.5.4.7.3zm-1.4-1.1l-.4.5.7.2zm-1.2 1.6l-.4.5.7.2zm7-3.8l-.5-.2-.1.7zm-5.3.2l-.6-.3v.7zm14.1-15.4l-.2.6.7-.1zm3.9-.9l-.6.2.4.5zm-4.7.3l-.1-.6-.6.4z"/><path d="M155.5 171.3l-.1-.5-.5.4zm8.2-23.5l-.8-.8-.4 1.2zm1.7 2.7l-.2-.7-.6.5zm-4 2l.5-.3-.5-.4zm.6-5.5l.4.4.2-.6zm.6-1.6l.7.5.2-.9zm-1.7.1l.8.5.2-1zm1.1 1.2l.3-.5h-.7z"/><path d="M160.7 145.1l-1.3 1.9 2.4.6zm1.4-1.8l-1.1 1.6 2.1.4zm-13.4 23l1.3.1-.6-1.3zm-.8 10.3l.9.6.2-1.2zm-2-.5l.9.6.2-1.2zm.8-2.4l.9.5.1-1.2zm.2 1.1l.9.5.1-1.2zm.9 4.1l1.1-.6-1.2-.8zm-2.9.3l1-.8-1.3-.7zm-1.7 2.3l1.1-.8-1.3-.6zm2.5-8.3l-.6 1.5 1.9-.1zm2.8 1.4l1.1-.7-1.2-.7zm-2.4 3.5l1.1-.7-1.3-.8zm2.7-5.5l1-.8-1.3-.6zm.3.6l1 .5v-1.2zm-1.8-1l.9.5.1-1.2z"/><path d="M149.7 178.3l1.1-.3-.8-1zm-5.6 4.9l1.2-.4-.9-1zm-3.3 3.3l1.2-.3-.9-1zm-.5 2.3l.8-.3-.6-.7zm5.7-8.6l1.4-1-1.7-.9zm5.4-4.8l-.5-.4-.2.6z"/><path d="M146.6 179.2l.7.1-.3-.7zm-2.9-1.4l-.8 2.2 2.6-.1zm1.1-3l-1 2.4 2.7-.2zm-2.7 7.4l-.6 1.6 1.7-.3zm11.1-15.9l.9.6.1-1.3zm-2-.3l.9.5.1-1.2zm2.1 2.7l1-.8-1.2-.7zm-1.8-.7l1-.8-1.3-.6z"/><path d="M153.2 170.5l1.2-.4-1-1zm-2.1.1l1.2-1.1-1.7-.8zm1-1.6l.7.1-.3-.7zm-2.1-4.2l-.9 2.5 2.7-.4zm-3.4 6.2l-.9 2.1 2.7.1zm4.1-.1l-1-.6-.1 1.3zm2.1 2.4l-.2-.6-.5.5zm-3.5 2.6l.4-.3-.5-.3zm-.4-5.5l.4.4.2-.6zm.6-1.6l.8.4.1-.9zm-1.6.4l.8.4v-1.1zm1.3 1l.2-.5h-.7z"/><path d="M147.6 168.9l-.9 2 2.4.2zm.9-2.1l-.8 1.7 2.1.1z"/></g><g fill="#260807"><path d="M221.3 153.4l1.7-.3-.9-1.2zm.7-4.3l1.5-.7-1.1-1zm3.5 3.5l1.7.8.1-1.7zm-.8-2.1l-1.7 1 1.5 1zm.3-2.1l1.7.9.1-1.7zm-13.3 9.3l1.8.9v-1.7zm11.8-11.9l1.7.9.1-1.8zm4.5-4.4l1.2 1.6.8-1.5z"/><path d="M220.6 147.7l1.2 1.6.8-1.5zm1.2 1.9l1.1 1.6.9-1.5zm1.4-1.7l1.5 1.2.5-1.6zm-3.8 3.9l1.5 1.2.4-1.7z"/><path d="M218.5 151.3l1.3 1.4.7-1.6zm10.3-3.2l1.3-1-1.4-.6zm3.6-7l1.4-.9-1.3-.8zm-1.4 4.7l1.3-1-1.4-.6zm4.1-10.8l1-.6-.9-.6zm-1.9 2.5l1.4-.9-.8-1.2zm.6 4.8l.9-1.4-1.5-.2zm-2.4-1.8l.8-1.4-1.4-.1zm-11.6 13.4l1.6.2-.5-1.4zm9.1-7.9l.8-.8-.9-.4zm-3 4.3l-.5-.8-.5.7zm7.8-.6l-1 .2.6.7zm-9 13.1l.8.8.4-.9zm-4.3-3l.9-.5-.7-.5zm.6 7.7l-.2-.9-.7.5zm9.4-18.8l-.6 1 1 .1z"/><path d="M232.2 143.7l.7.7.2-.8zm-7.3 2.7l.8-.5-.7-.5zm1.3-2.3l1.2-1-.5-1.2zm1.2.6l2.4-.6-1.4-1.8zm-2.1 2l2.3 1.2.1-2.3zm5.5-3.4l1.6-.4-.9-1.1zm-.4-1.8l1.6-.4-.9-1.2zm-1.9 12.6l.7.8.4-.8z"/><path d="M223.2 155.3l-.8.4.7.5zm7.5-1.7l.9-.5-.7-.5zM210 171.2l.9-.5-.7-.5zm-18 6.6l.9-.3-.6-.6zm35.8-29.3l.9-.3-.5-.7zm-.1-2.7l-1.6-3-2.4 2zm-3.7 3l-.8-3.5-2.6 1.9zm8.9-9.6l1.8.7-.1-1.7zm0-.7l-.8-1.7-1.2 1.3zm2.8-.7l-.7-1-.5.8zm-29 27.3l1.5.1-.5-1.3zm24.1-23.6l-1-2.1-1.5 1.5zm-9.7 9.1l-.5-3.3-2.6 1.8z"/><path d="M218.5 152.8l-.5-3.7-2.7 1.8zm-2.4 1.6l-1-3.5-2.4 1.6zm12-4.8l-.6 1.5 1.4-.1zm-7.3 4.2l1.4 1.3.6-1.6zm-16.5 7.1l1.4 1.4.6-1.6zm3.8 1.1l1.3 1.3.6-1.5zm12.2-8.6l-1.7 1 1.4 1zm-7.7-.9l-1.6 1 1.3 1.1z"/><path d="M214.9 154.2l-1.7 1 1.4 1zm2.5-1.6l-1.7.9 1.4 1.1zm.6 5l.5-.9-.9-.2zm-1.9 5l-.7-.8-.3.8zm7.4-2.6l-.9.5.7.5zm-5.9 8l1 .4v-1zm-5.2-1l.6-.7-.9-.2zm3.7 6.8l-.6-.7-.3.7zm-1.2-15.9l1.8-1-1.4-1.1zm.6 2.9l1.8-.9-1.4-1.1zm4.4-3.9l1.8-.9-1.4-1.1zm-15.6 9.4l1.8-.8-1.4-1.1zm25.6-6.3l-.4-.9-.6.7zm-6.6-4l-.5 1h1zm1.5-5.1l.7.7.3-.8zm-7.1 3l.8-.5-.7-.5zm21.2-13.8l.7.9.5-.9zm-4-3.4l.8-.4-.6-.5zm-.1 7.9l-.2-1-.7.5zm3.7-1.3l.7.9.5-.9zm-4-3.4l.8-.4-.6-.6zm-.1 7.8l-.2-.9-.7.4zm-18.8 19l-1 .6.8.6zm3.9-3.5l.3.9.6-.5zm-7.7-1.2h1l-.4-.8zm5.5-10l1.7 1.8.9-2zm.8-1.8l1.6 1.2.4-1.7zm-1.3 4.2l.1 1.6 1.2-.6zm11.3 2.3v1l.8-.4zm-1 4.4v1.3l1.1-.5zm-1.5-5.8l1.1.3-.2-1zm-5.2 7.1l.5-1h-.9z"/><path d="M209.5 167.7l.7 1 .7-.9zm-4.1-4.4l1.1-.3-.7-.7zm-1.1 8.7v-1.1l-.9.5zm9-15.6l.5-1.6-1.5.2zm-3.8.6l1.7-.4-.9-1.2z"/><path d="M211.1 157.5l.5-1.5-1.5.2z"/><path d="M210.3 155.5l-2 1.7 2.1 1z"/><path d="M211 153.5l-1.9 1.2 2.1 1.6zm-1.1 4.3l1.2 1.6.8-1.6zm-2.7.8l1 1.6 1-1.4zm2 2l1.6-.2-.8-1.2zm-1.4-2.6l1.6-.4-.9-1.1zm6.8.1l-.2.9.8-.2z"/><path d="M209.6 158.3l-.6-3.6-2.7 1.7zm-10.4 5.1l1-.3-.6-.7zm.5-1.6l.8 1.3.8-1.1zm1.7-1.6l1 1.2.6-1.2z"/><path d="M200 163l.8 1.1.6-1zm5.6-.8l-1.8.3.9 1.3zm-11.2 6l-1.3-1.2-.5 1.5zm8.8-5.5l-1.8.5 1 1.2zm5-2.9l-1.8.4 1 1.3zm2.2 3.3l-.7.8.9.2zm2.5-4.1l.5.7.4-.6zm-7 1l.8-.2-.5-.6z"/><path d="M207.5 169l-.6.8.9.2zm2.1-4.3l.5.6.4-.6zm-6.8 1.6l.8-.4-.6-.5zm6.3.9l-.7.8.9.3zm2.5-4l.5.7.4-.7zm-7 .9l.8-.3-.5-.5zm-3.3-1.9h1.4l-.5-1.1z"/><path d="M202.4 161.7l1.9.7-.1-1.8z"/><path d="M203.7 161.7l1.3-.2-.7-1zm.1-2.5l1.5-.2-.7-1.1z"/><path d="M205.5 159v.9l.7-.4zm1.8.4l-.8-3.1-2.5 1.6z"/><path d="M204.4 160.7l-.4-2.8-2.2 1.4z"/><path d="M202.3 162.1l-.5-2.8-2.2 1.5zm-2.3 1.2l-.5-2.4-1.8 1.2zm1.2 3.2l1.6-.2-.8-1.3zm-2.8-1.6l1.6-.5-1-1.1z"/><path d="M199.4 164.8l1.6-.3-.9-1.2zm-.6.9l1.3 1.5.7-1.6zm-2.8 1l1.1 1.5.9-1.4zm2.1 1.9l1.6-.3-.8-1.2zm-1.5-2.6l1.6-.4-1-1.1zm4.7 3l-.9.3.7.6z"/><path d="M198.4 165.9l-.8-3.6-2.6 1.8zm-1.5 2.1l-1.8.3.9 1.3zm1.7 3.4l-.8.7.9.4zm2.7-3.9l.4.7.5-.6zm-7 .6l.8-.2-.5-.6zm2.5 9.2l-.7.7.8.4zm2.7-3.9l.4.7.5-.6zm-7 .6l.8-.2-.5-.6zm6.7.1l-.7.7.9.4zm2.7-3.9l.4.7.5-.6zm-7 .6l.8-.2-.4-.6zm29.5-5.8l.8.8.3-1zm-4.6-2.5l.7-.6-.7-.4zm1.3 7.6l-.3-.9-.6.6zm-10.5 4.7l.8-.5-.8-.4zm7.2-3.9l1 .3-.1-1z"/><path d="M212.5 170.4l.5-.8-.9-.1zm4.4 6.4l-.7-.6-.3.8zm-12.5-6.2l1.7-1.1-1.5-.9zm-8.8 2.1l1.8-.8-1.3-1.1zm-2.6 4.1l1.8-.9-1.4-1.1zm1.5-4.2l-.3 2 1.7-.5zm2.2-4.3l-.1 2 1.6-.8zm-8 17.1l-.3 1.3 1.2-.3zm.1-.8l1.8-.8-1.4-1.1zm13.8-15.2l1.7-1-1.5-1zm-12 7.6l1.8-.9-1.3-1.1zm-1.1 4.8l1.8-.9-1.4-1.1zm1.4-1.4l.7-1.1-1.4-.1zm1.1-5.1l.7-1.1-1.4-.1zm1-2.5l.7-1.1-1.4-.1zm22.6-3l-.9.7.9.5z"/><path d="M219.2 165.9l.3.9.6-.6zm-7.8-.4l.9-.1-.4-.7zm-1.7 5.9l.8 1 .5-1zm-4.5-3.9l1-.5-.7-.6zm-.2 8.7l-.2-1-.8.5zm2.8-3.3l-.5.8.9.2zm1.7-4.5l.6.6.3-.7zm-6.7 2.3l.8-.4-.6-.5zm6.4.3l-.6.8.9.2zm2.1-4.3l.6.7.3-.7zm-6.8 1.6l.8-.3-.6-.5zm-5.7 2.2l1.4 1.3.6-1.6zm-.4 3l1.6-.5-1-1.1zm-8 5.2l1.7-.3-.8-1.2zm2-3.2l1.7-.2-.8-1.3zm9.3-2l-.9.5.7.5zm-2.5 2.7l-.7.8.9.3zm2.3-4.2l.5.7.4-.7zm-7 1.3l.8-.3-.5-.5zm3.5 9l-.6.7.9.3zm2.3-4.2l.5.7.4-.7zm-6.9 1.3l.8-.3-.5-.6zm.8-6l.7-1.2-1.2-.1zm-1.2-2.9l1-1.1-1.3-.4z"/><path d="M193.9 166.8l-.2.9.8-.2zm2.7.5l-1.5-3.2-1.7 1.5zm-1.9 3.9l-2.4-1.6-.5 2.6z"/></g><g fill="#2d100f"><path d="M190.2 167.6l-.7-1.1-.8 1.2zm1.7-.7l-.7-1.1-.8 1.3z"/><path d="M194.9 164.8l-1.2-.6-.2 1.4zm-1.9 1.4l-1.2-.7-.1 1.5zm7.9-5.5l-1.2-.7-.1 1.5zm-12.3 9.1l1.6-1.4-2.2-.9zm-.7-2.4l-1.5.4 1.1 1.4zm-2.7-4.1l.3.8.5-.7zm2.3 2.7l.3.7.6-.6zm7.5-3l.2.7.6-.6zm-2.3-1.1l.3.8.5-.7zm8-4l.3.8.6-.7zm-8.7 6.7l.3.8.5-.7zm-10.7 12.1l-.7-.6-.3 1zm.7-1.8l-1.1.5 1.1.9zm1.7-2.2l-1.2.4.9 1z"/><path d="M181 175l-.9.5.8.7zm-.1-5l1 1 .6-1.4zm-1.1 2.6l1 1.1.6-1.5zm4.3-4.2l.8 1.2.9-1.4zm-1.5-3.5v.8l.9-.3zm5.4-1.3l-.7.2.5.6zm-2.3 6.4l-.3-.6-.5.7zm-10.6-2.7l.1.9.8-.5zm5.2-1.8l-.7.3.6.5zm-1.6 6.7l-.4-.6-.4.7zm-9.7 8.4v.8l.9-.3zm5.4-1.3l-.7.2.5.6zm-2.3 6.5l-.3-.6-.5.6zm6.6-22.2v.8l.9-.4zm5.4-1.3l-.7.2.5.6zm-2.3 6.4l-.3-.6-.5.7zm15.5-12.9l.2.7.6-.6zm-2.6 1.5v.8l.9-.3zm5.4-1.3l-.7.2.5.6zm-2.3 6.5l-.3-.6-.5.6zm2.5-7.3l-.6.6.9.3zm4.7 2.8l-.6-.4-.1.8zm-6.2 3l.2-.7-.8.1zm-11.6-1.2l.1.8.8-.4zm5.2-1.8l-.7.2.5.6zm-1.6 6.6l-.5-.5-.4.6zm0-8.6v.8l.9-.3zm5.4-1.3l-.7.2.5.6zm-2.3 6.5l-.3-.6-.5.6zm-11.1 12.1l-1-.6-.1 1.2z"/><path d="M183.5 171.6l-1.6-.3.4 1.8z"/><path d="M184 171.3l-.7-.8-.5 1zm2.4.5l-.8-1-.6 1.3z"/><path d="M185.4 170l-.5.5.8.2zm1 1.9l2-1.9-2.7-1.4zm-2.3 2l1.8-1.6-2.4-1.1zm-1.8 2.2l1.6-1.7-2.5-.9zm-1.4 1.9l1.3-1.5-2.1-.7zm-2.1-4.1l-1.1-.8-.3 1.4zm1.6 3.3l-1-.9-.5 1.4zm-.2-1.6l-1-.9-.4 1.4zm-1.8-.1l-1.5.6 1.3 1.2zm-1.2 2.4l-1.4.8 1.4 1.1zm-.3-.7l-1.1-.8-.3 1.5zm2.3 1.6l-1-.9-.4 1.4z"/><path d="M174.5 174.2l.4.7.4-.8zm4.6 6l1.8-2.2-3.3-.9zm-6.3 8.2l-.8-.5-.1 1zm.4-1.9l-1 .7 1.2.8z"/><path d="M175.3 184.1l-1.2.5 1.1.9zm-3 2.7l-.9.6 1 .6zm-.1-5.1l1.1.9.5-1.5zm2.4-2.3l1.1.9.5-1.5zm-2.8-2.4l.3.8.7-.7zm4.6-3l-.6.4.7.4zm0 6.9l-.5-.5-.2.7zm-1.9 4.1l-1-.4v1.2z"/><path d="M175 183l-1.7-.1.6 1.7zm.2-.7l-.9-.6-.3 1.1zm2.4 0l-1-.7-.3 1.3zm-1.3-1.6l-.4.6.8.1z"/><path d="M177.6 182.4l1.6-2.2-2.9-.8zm-1.7 2.5l1.3-2-2.6-.5zm-2.1 3l1.4-1.9-2.6-.6zm-1.2 1.9l1-1.7-2.2-.2zm-7.5-3.9l-.1.9.9-.3zm5.5-.5l-.7.1.3.7zm-3.2 6.1l-.3-.7-.5.6zm-6 2.9v.9l.8-.3zm5.5-.8l-.7.2.4.6zm-2.9 6.3l-.3-.7-.5.6zm-5.6 4.3l.2.8.8-.5zm5-2.3l-.6.3.6.5zm-.9 6.8l-.5-.5-.3.7zm6.2-13.7l-.7-.5-.2 1zm.6-1.8l-1 .8 1.2.6zm-1.7 2.7l-1 .8 1.3.6zm3.5-5.2l-1.2.5 1.1 1zm-2.9 2.7l-.8.6.9.6zm-1.1 6.2H166l.5 1.1zm-2 3.7l-1.1.1.6 1zm-.7 1.7l-1.1.1.6 1zm3.7-16.8l1.1 1 .5-1.5zm2.1 3.4l-.9-.4-.1 1.2zm.6-2l-1.6-.2.5 1.8z"/><path d="M171.1 189l-.9-.7-.3 1.1zm.2 3l1.3-2-2.6-.4zm-1.4 2.3l1.3-2-2.7-.4zm-1.2 2.3l.9-1.7-2.2-.2zm-3.5 6.5l.8-1.9h-2.2zm2-3.6l.9-1.7-2.3-.1z"/></g><g fill="#ddd"><path d="M256.7 208.1h-1l.6-62.8c-.2-22.7-8.4-35.1-8.5-35.2l.8-.6c.1.1 8.5 12.7 8.6 35.8.3 22.9-.5 62.4-.5 62.8z"/><circle cx="252.1" cy="196.9" r="1.5"/><circle cx="252.4" cy="173.1" r="1.5"/><circle cx="252.9" cy="150.6" r="1.5"/><circle cx="252.2" cy="130.8" r="1.5"/></g><path d="M207 249.8l-35.4-8.9c-2.6-.7-4.2-3.3-3.5-5.9l4.7-18.8c.7-2.6 3.3-4.2 5.9-3.5l35.4 8.9c2.9.7 4.6 3.6 3.9 6.5l-4.5 17.8c-.7 2.8-3.6 4.6-6.5 3.9z" fill="#ffb600"/><g fill="#e57d00"><path d="M208.3 250.1h-.2c-2.2-.6-3.4-3.4-2.7-6.3l4.5-17.8c.7-2.9 3-4.7 5.2-4.2l.2.1c2.2.6 3.4 3.3 2.7 6.2l-4.5 17.8c-.7 2.8-3 4.7-5.2 4.2z"/><path d="M207.8 234.3l1-4c-2.1 5.9-6.2 7.1-9.1 6.3-.5-.1-1.9-.5-3.8-.9-6.5-1.5-21.6-5-23.7-6.8-1.8-1.6-1.3-5.2-.9-6.9l-1.2 4.9c.2 1.1.6 2.1 1.5 2.8 2 1.7 12.8 4.4 24.1 7 1.9.4 3.2.7 3.7.9.6.2 1.2.3 1.9.3 2.2-.2 4.6-1.2 6.5-3.6z"/></g><g fill="#ffdb43"><path d="M209 221.9l-.7-.2.5-.6zm-.2 1.1l-1.2.4.1-1.5zm1.7 0l-1.3.5.1-1.5zm-.8 2.1l-.1 1.2-1.1-.7zm.4-4.6l2.5.7-1.8 2.2zm-15 .2l-.1 1.2-1.1-.6zm2.3-2.1l-.1 1.1-1.1-.6zm-1.5 4.4l-1.2.5.1-1.6zm4.4-3.4l-1.3.4.2-1.5zm3.2.2l-1.2.5.1-1.6zm-6.4-1.5l-1.2.5.1-1.6zm-.9 1.6l-1.2.5.1-1.6zm2.5.5l-1.3.4.1-1.5zm-4.4-1.4l-1.2.4.1-1.5zm-2.6-1l-.1 1.3-1.3-.7zm-1.5 0l-.3-1.3 1.5.3zm18.1 6.3l-1.3.5.2-1.6zm-4.8-.4v-1.4l1.4.6zm2.3-.4l-.1-1.3 1.5.5zm-5.6-1l-.1 1.2-1.1-.6zm-6.6-1.4l-.1 1.1-1.1-.6zm-1.2-1.3l-.1 1.2-1.1-.7zm9.2 2.7l-.1.8-.8-.4zm-5.1-1.3l.7.2-.5.6zm2.1 6.3l.4-.6.4.6zm-18.1-.9h-.6l.3-.7zm1-3.9l-.1.5-.4-.4zm-4.8 1.6l.5.2-.5.4zm14 3.1l-.8-.1.4-.8zm1.3-5.1l-.2.6-.6-.4zm-6.2 2.1l.5.3-.6.5zm1.4 5.8h-.6l.3-.6z"/><path d="M188.3 226.3l-.2.5-.4-.4zm-4.8 1.6l.4.3-.5.3zm23.6-1.8l-.3 1.4-1.3-1.1zm-3.8 1.8l.6.3-.6.5zm4.9-.3l-1-.1.6-1zm2.6-6.5l-.3.9-.7-.7zm-8.6 1.8l.7.5-.9.5zm-1.8 2.7l-.5-.6.9-.2zm4.8-1.8l-.6.2.1-.7zm-5.2-3.9v.6l-.7-.2zm2.4-.5l-.1 1.2-1.2-.6zm.7 1.7l-.9 1.5-1.2-1.6zm-2.6.5l-1.7.5.2-2zm9.2 1.4l-1.7.6.2-2zm-4.9-1.8l-.1 1.2-1.1-.6zm.7-1.3l-.1 1.2-1.1-.7z"/><path d="M194.9 225.4h-.8l.4-.8zm-3.7-1.4l-.8-.1.4-.8zm2.3-.1l-.2-.7.8.2zm-4.3-1.8l-.1-.7.7.2zm5.7 4.8l-.2.7-.5-.5zm11.3-5.6l-.6-.2.4-.6zm-7 1.1l-.3.6-.4-.5zm10.2-1l-1.3.5.1-1.5z"/><path d="M206 219.6l2.5.6-1.7 2.3zm-3.2-.7l2.5.5-1.6 2.4zm-2.9-.8l2.5.5-1.6 2.4zm-8.3-2.2l2.5.6-2.1 1.6z"/><path d="M188.9 215.2l2.5.6-2.2 1.6zm8.2 2.1l2.5.7-1.8 2.2zm-3.1-.8l2.5.7-1.8 2.2zm9.5 10l-.4-.5.7-.2z"/><path d="M201.4 227.6l-.7-.8 1.2-.4zm3.8-.1l-.4-.5.7-.2zm-1.4-1.2l-.4-.5.7-.2zm-20.2.5l-.4-.6.7-.2zm4.1-1.9l-.5.2v-.6zm-4.8-3.1l.1.6-.6-.2zm.5-3.6l-.1 1.1-1.2-.7zm2.3-2.2l-.1 1.2-1.1-.7zm-4.5-.8l-.6-.1.4-.7zm3 5.3l-1.3.4.2-1.6zm1.3-4.7l-1.3.4.1-1.5zm-1 1.5l-1.2.5.1-1.5zm2.9.4l-1.3.4.1-1.5zm1.4-1.1l-1.3.4.2-1.5zm-7.7-.3l-1.3.4.1-1.5zm1.6.1l-1.3.4.1-1.5z"/><path d="M181.9 218.5l-.1 1.1-1.2-.6zm8.4 1.4l-.1.8-.8-.4zm-5.1-1.4l.7.2-.5.6zm2 6.3l.4-.5.4.6zm2.5-6.7l-.1.8-.8-.3zm-5.1-1.3l.7.2-.5.6zm2 6.3l.4-.6.4.6zm-1.8 3.9h-.7l.4-.8zm1.5-5.1l-.2.7-.6-.5zm-6.3 2l.6.4-.6.4zm3.1-1.1h-.8l.5-.8zm-1.3-1.5l-.2-.7.7.2zm1.7 2.9l-.2.6-.5-.5zm2-9.7l2.5.5-1.7 2.4zm-3-.9l2.5.7-2.1 1.7zm-2 4l-1.3.5.2-1.6zm-5.3-.6l.2-1.4 1.3.8zm-2.5-.4l.4-1.3.9 1.4zm.7-1.8l.9-1.1.4 1.5zm4.1 2.3v-1.4l1.4.6zm1.1.5l-.4 1.4-1.2-1.1zm-5.1 3.4l.6.4-.6.4zm5.8.2l-.4-.7.8-.2zm4.9-1.8l-.6.2v-.7z"/><path d="M179 215.4v.7l-.7-.3zm-4.3 3.5l-.4-.7.8-.1zm-1 .3l-.6.3v-.8zm1-3.6v.6l-.7-.2zm5.2 4.1l-.5-.8 1.1-.1zm8.4-.7l-.8.3.1-.9zm-6-4.7v.9l-.9-.3zm-5.2 3.6l-.7 1.2-1-1.3zm-.6-4.4l-.8 1.2-.9-1.3zm.8.9l-.1 1.2-1.1-.6zm.8-1.2l-.1 1.1-1.2-.7z"/><path d="M178.5 214.6l-.7-.2.5-.6zm3.1.2l-1.3.4.2-1.5z"/><path d="M178.7 212.8l2.5.6-1.7 2.3zm-2.4-.1l1.9-.1-1.3 1.8zm.4 7.3l-.4-.6.7-.1zm-.5 3.8l-.6-.9 1.2-.3zm-.7-2.9l-.4-.5.7-.1z"/></g><g fill="#ed8e11"><path d="M202.2 239.8l-.6-.1.4-.6zm-.1 1.1l-1.3.4.2-1.4zm1.5 0l-1.2.5.1-1.5zm-.7 2l-.1 1.1-1.1-.6zm-1.4-5.2l2.4-.3-.7 2.6zm-12.4 1.1l-.1 1.1-1.1-.6zm2.2-2.1l-.1 1.1-1.1-.6zm-.7 2.8l-1.2.4.1-1.5zm3.4-1.8l-1.2.4.1-1.4zm3.1.2l-1.3.5.2-1.5zm-6.1-1.4l-1.2.5.1-1.5zm-.8 1.5l-1.2.5.1-1.5zm2.2.4l-1.2.4.1-1.4zm-4-1.3l-1.2.5.1-1.5zm-2.5-.9l-.1 1.3-1.3-.7zm-1.4 0l-.3-1.2 1.4.2z"/><path d="M201.6 242.1l-1.3.5.2-1.5zm-4.6-.4v-1.3l1.3.6zm2.2-.3l-.1-1.3 1.4.6zm-5.3-.9l-.1 1.1-1.1-.6zm-6.2-1.4l-.1 1.1-1.1-.6zm-.9-2l-.1 1.1-1-.6zm8.4 3.3v.8l-.8-.4zm-4.8-1.2l.6.2-.4.6z"/><path d="M192.4 245.1l.3-.5.4.6zm-16.5-4.2h-.6l.3-.6zm.9-3.7l-.1.5-.4-.4zm-4.5 1.5l.4.3-.4.3zm12.3 3.7h-.7l.4-.7zm1.3-4.7l-.2.6-.5-.5zm-5.9 1.9l.6.4-.6.4zm2.7 2.9h-.6l.3-.6zm1-3.7l-.2.5-.4-.4zm-4.5 1.5l.4.2-.5.4zm26-3.5l-.1 1.3-1.3-.8zm-7 7.8l.6.3-.6.4zm6.4-2l-1-.1.6-1zm.9-3.6l-.3.7-.7-.6zm-8.6-.2l.7.6-.9.4zm-2.8 4.6l-.5-.6.9-.2zm4.6-1.8l-.6.3v-.7zm-5-3.6v.6l-.6-.2zm2.3-.5l-.1 1.1-1.1-.5zm.7 1.6l-.9 1.5-1.1-1.6zm-2.5.5l-1.6.5.2-1.9zm8.7 1.4l-1.6.5.2-1.9zm-4.7-1.8l-.1 1.1-1-.6zm.7-1.2l-.1 1.1-1-.6z"/><path d="M188.9 243.2l-.7-.1.4-.7zm-3.5-1.4l-.7-.1.4-.7zm2.2-.1l-.2-.6.7.2zm-4-1.7l-.2-.6.7.2zm5.9 3.9l-.2.6-.5-.5zm10.1-4.6l-.6-.1.4-.6zm-6.6 1.1l-.3.6-.4-.6zm9.6-1l-1.3.5.2-1.5zm-3.5-1.9l2.4.5-1.6 2.2zm-2.8-.6l2.4.5-1.6 2.2zm-2.7-.7l2.4.5-1.6 2.2zm-7.8-2l2.4.5-2 1.6zm-2.6-.6l2.4.5-2 1.5zm7.8 1.9l2.3.6-1.7 2.2zm-2.9-.7l2.3.6-1.7 2.1zm8.9 9.4l-.4-.5.7-.1z"/><path d="M195 245.3l-.6-.9 1.1-.2zm5.7-1l-.4-.5.7-.1zm-3.4-.3l-.4-.5.7-.1zm-19.1-1.9l-.4-.6.7-.2zm3.9-1.8l-.5.2v-.6zm-4.5-2.9l.1.5-.6-.1zm-.3-2l-.1 1.1-1.1-.6zm3-1.1l-.2 1.1-1-.6zm-4.3-.7l-.6-.2.4-.6zm4 .5l-1.2.4.1-1.4zm-.9 1.5l-1.2.4.1-1.4zm2.7.3l-1.2.4.1-1.4zm1.4-1l-1.2.4.1-1.5zm-7.3-.3l-1.3.4.2-1.4zm1.5.1l-1.3.4.2-1.4zm-.8 1.9l-.1 1.1-1-.6z"/><path d="M184.5 238v.7l-.8-.3zm-4.7-1.3l.6.2-.5.6zm1.9 5.9l.3-.5.4.6zm2.3-6.3l-.1.8-.7-.4zm-4.8-1.3l.6.2-.4.6zm1.9 6l.3-.6.4.6zm-2.4-3.9l-.8-.1.5-.7zm-2.2 2.2l-.1-.7.6.2zm3.3-1.2l-.2.6-.5-.5zm.2-5.3l2.4.6-1.9 1.4zm-2.8-.9l2.4.8-2 1.6zm-1.9 4l-1.2.4.2-1.5zm-5-.7l.2-1.3 1.2.8zm0-2.4l.4-1.3.8 1.3z"/><path d="M169.5 231.4l.9-1 .3 1.4zm3 4v-1.3l1.3.5zm-2.9 2.4l.5.4-.6.4zm1.7-1.4l-.4-.7.8-.1zm-2.2.2l-.5.3-.1-.7zm.7-2.7l.1.6-.7-.2zm5 3.9l-.5-.7 1-.2zm7.8-.6l-.7.2.1-.8zm-5.6-4.4v.7l-.8-.3zm-5.5-3.2l-1.3.3.2-1.4zm.8 3.2l-.1 1.1-1-.6zm.8-1.2l-.2 1.1-1-.6z"/><path d="M173.4 233l-.6-.2.4-.6zm3 .2l-1.2.4.1-1.4z"/><path d="M173.8 230.8l2.4.8-1.9 1.4zm-2.3-1.2l1.5.8-1.5.8zm1.1 7.2l-.4-.5.7-.2zm-2 2.1l-.4-.4.7-.2z"/></g></svg>