<svg xmlns="http://www.w3.org/2000/svg" width="217.109" height="160.651" viewBox="0 0 217.109 160.651">
  <g id="_103" data-name="103" transform="translate(-147.056 -68.015)">
    <g id="Group_1153" data-name="Group 1153">
      <path id="Path_16745" data-name="Path 16745" d="M361.96,207.7a16.336,16.336,0,0,0-2.46-1.06l.42-.07a4.674,4.674,0,0,0,2.45-1.76,1.757,1.757,0,0,0,.2-1.32,8.617,8.617,0,0,0-1.28-1.14l-9.45-1.5-5.2-.27-3.16.1c-3.54-1.27-6.75-2.4-9.7-3.78-.6-.3-2.58-1.56-5.4-3.4l2.2-5.2a1.317,1.317,0,0,0-.6-1.8c-6.4-3.3-37.6-19.6-42.2-23.5-5.1-4.4-11.3-12.4-23.1-30.2-5.5-8.3-10.5-14.86-14.28-19.5-2.07-4.9-5.26-8.83-10.12-10.92.01.06.04.13.05.2a18.845,18.845,0,0,0-5.12-2.93,13.33,13.33,0,0,0,2.2-3.93l2.16-1.12a2.406,2.406,0,0,0,1.1-3.4l-8.18-15.55c-.01-.02-.01-.04-.02-.05l-3-5.7a2.51,2.51,0,0,0-3.4-1.1l-8.9,4.6a2.51,2.51,0,0,0-1.1,3.4l3.74,7.1a1.5,1.5,0,0,0-1.44-.1c.5,3,0,6.4-.2,8.7,0,2.2,1.3,4,1.1,5.5-.02.15-.06.3-.1.47a26.53,26.53,0,0,0-5.06,1.58,11.264,11.264,0,0,0-1.74.08,12,12,0,0,0-1.65.2l-.7.14a25.468,25.468,0,0,0-9.97,4.44,59.172,59.172,0,0,0-8.86,7.98c-3,3.14-4.8,5.23-6.55,7.38-.87,1.1-1.76,2.17-2.7,3.48l-1.52,2.1-1.7,2.56c-2.4,3.53-4.8,7.4-6.88,11-.84,1.8-2.73,4.76-3.66,6.93q-.269.374-.52.76a19.091,19.091,0,0,1-1.1,2.33l-.01-.06c-.42,1.14-1.04,2.37-1.23,2.94l-.01-.06-.54,1.38.05-.25c-.74,2-1.4,4.1-1.98,5.95l.2-.12c-.32,1-.5,1.85-.68,2.6l-.33,2.15-.18,2.1c-.01.74-.1,1.55-.1,2.5l-.04-.05c.1,1.2.27,2.26.4,3.27l.4,2.82a24.387,24.387,0,0,0,1.16,4.9l-11.76,26.65a2,2,0,0,0-.16.49c-4.23,10.48-4.22,13.94-2.84,16.5,3.4,6.5,30.5,6.1,48.8-.1,10.93-3.75,16.3-9.1,19.42-14.5h.18l19.6-.1h7.7l.56-4.67-.36,4.97,7.1,2s-.03-9.44.3-24.5c3.9,4.03,7.46,7.17,10.2,8.7,19.5,10.9,47.9,19.9,54.5,21.9a1.553,1.553,0,0,0,2-.9l2.75-6.52,11.14,2.72c1.7.4,3.4,1.3,5.8,1.6a11.635,11.635,0,0,1,21.7,5.7,12.574,12.574,0,0,1-.5,3.3,1,1,0,0,0,.4.5c3.58,1.72,4.78-13.98,1.78-15.58ZM223.74,91.4c-.37-.12-.72-.6-1.08-1.1a11,11,0,0,1-1.1-3.05l2.18,4.15ZM211.2,101.46c-.05.03-.1.05-.15.08-.13.03-.25.05-.38.08Zm61.83,42.38.46.75A3.791,3.791,0,0,0,273.03,143.84Z" fill="#fff"/>
      <path id="Path_16746" data-name="Path 16746" d="M239.5,209.75l.3-.01h-.05l-.24.01Zm-67.68-70.28c.01-.01.01-.02.02-.03.02-.05.05-.1.07-.15l-.1.18Z" fill="#fff"/>
    </g>
    <path id="Path_16747" data-name="Path 16747" d="M220.6,75.85a1.56,1.56,0,1,0-1.56,1.56A1.562,1.562,0,0,0,220.6,75.85Zm-2.1,0a.56.56,0,1,1,.56.56A.56.56,0,0,1,218.5,75.85Zm2.02,1.33a1.56,1.56,0,1,0,1.56,1.56A1.562,1.562,0,0,0,220.52,77.18Zm0,2.1a.56.56,0,1,1,.56-.56.56.56,0,0,1-.56.56Zm-29.28,42.06c-.02.04-.05.08-.07.12l.02-.02.05-.1Zm123.7,96.26h0Z"/>
    <path id="Path_16748" data-name="Path 16748" d="M246.2,206.6l-.26,1.2C246.01,207.73,246.14,207.65,246.2,206.6Zm.02-.57.07.23ZM364,211.73a8.159,8.159,0,0,0-1.1-3.53,1.8,1.8,0,0,0-.75-.67c-.18-.07-.2-.05-.12.04a3.978,3.978,0,0,1,1.15,2.62,24.1,24.1,0,0,1-.25,7.8v-.2a19.043,19.043,0,0,1-.64,2.8,5.371,5.371,0,0,1-1.04,2,.816.816,0,0,1-.6.3.325.325,0,0,1-.33-.22l.17-.87.13-1.14a5.543,5.543,0,0,0,.1-2.16c-.03-.5-.15-1-.22-1.45l-.27-1.08.04.1a12.233,12.233,0,0,0-4.85-6.53,2.633,2.633,0,0,1,.66.4,13.8,13.8,0,0,0-2.62-1.5l-1.58-.6a12.14,12.14,0,0,0-4.3-.36,13.859,13.859,0,0,1,3-.17,49.822,49.822,0,0,0,8.7,0,6.1,6.1,0,0,0,1.42-.4l.44.14a10.864,10.864,0,0,1,1.04.4c.5.22.6.2.42.05a3.89,3.89,0,0,0-.46-.34l-.38-.23-.22-.13-.14-.1-.04-.04c.04-.01.08-.01.12-.02.16-.07,0,.1.66-.4a4.4,4.4,0,0,0,.68-.66,2.46,2.46,0,0,0,.33-.53,3.238,3.238,0,0,0,.19-.52,2.61,2.61,0,0,0,.09-.58,2.141,2.141,0,0,0-.1-.73,1.811,1.811,0,0,0-.2-.33l-.23-.24-.32-.3-.63-.52-.3-.23-.37-.06-.4-.07-.72-.12-2.77-.44-5.46-.8-3.18-.12-1.07-.06-.25.01-.78-.03-2.05.1h-1.15l-1.45-.5-5.28-2.04-2.1-.93a13.366,13.366,0,0,1-1.8-1.04l-.4-.26-.45,1.14.64.4.65.3.17.1a3.815,3.815,0,0,1,.4.15l.75.3c.4.25-.1.15,1.43.78a42.586,42.586,0,0,0,4.07,1.52.514.514,0,0,0-.42.48.47.47,0,0,0,.5.5l2.93.06.3.1,1.56-.1h.44c-.16.04-1.35.08-1.52.13l2.75-.1,2.15.1c1.7.02-.18-.1.47-.14l3.62.64a39.153,39.153,0,0,0,6.1.9c2.7.1,3.3,1.2,3.3,1.2a1.9,1.9,0,0,1-.3.9,4.28,4.28,0,0,1-2.8,1.5,47.42,47.42,0,0,1-8.5,0c-3.4-.2-6.8.9-8.3,2.1l-2.4,1.7a.494.494,0,0,0-.1.7.52.52,0,0,0,.4.2,8.966,8.966,0,0,0-.97,1.14l.1-.17-.62.88c-.18.25-.34.53-.38.6l-.05.08c-.02.02-.06,0-.1,0l-.25-.04-1.08-.22-.2-.08a31.547,31.547,0,0,1-3.23-1l-3.06-.77-.07-.1-3.4-.82,1.27.32c-.48.07-2.54-.74-5.03-1.2l-.48-.1.1-.34,2.7-6,2.17-5.4c-.26.92.8-1.46.63-.73a47.515,47.515,0,0,1,2.36-5.83l-.1.26,1.02-2.3a4.353,4.353,0,0,0,.27-.84,2.71,2.71,0,0,0-.04-1.1,2.37,2.37,0,0,0-1.32-1.6l-8.1-4.17c.13.23-2.08-1.02-1.6-.57-4.48-2.16-7.83-4.6-9.67-4.93-2-1.05-2.3-1.4-3.3-1.97l.5.23-7.56-4.12a31.548,31.548,0,0,1-4.15-2.06c.84.36-.17-.2-1.08-.72.6.32.78.4-.37-.36-.18-.07-.45-.2-.7-.33-.01-.01-.05-.05-.02-.04-1.53-.86-1.28-.67-.6-.25-.04-.01.01.05.2.2-1.5-1.02-4.3-2.64-4.38-2.93-.55-.35-1-.7-1.5-1.07-.45-.4-.9-.77-1.32-1.17-.85-.77-1.62-1.54-2.37-2.3-1.48-1.53-2.83-3.06-4.22-4.76-.23-.44.46.3,1.3,1.27l-1.96-2.4a19.566,19.566,0,0,1,1.78,2.08c-2.15-3-4.83-5.9-7.18-9.58l-.6-.68-.14-.22a7.261,7.261,0,0,1-1.04-1.23c-.25-.57.25-.12-1-1.88-.87-1.47-2.77-3.97-4.07-5.8.66,1,.4.72.06.32-.6-.9-.85-1.48-1.35-2.14l.06-.13c-.18-.06-1.7-2.32-1.96-2.6-.25-.58,1.02,1.34,1.24,1.5l-3.68-5.37c-1.42-1.83.12.43-.63-.4-1.2-1.65-2.44-3.2-3.76-5.15l.33.68c-2.35-3.03-3.75-4.84-5.23-6.96l-.43-.5c-.07-.2-.22-.6-.43-1.17a29.738,29.738,0,0,0-1.5-3.23,23.358,23.358,0,0,0-2.61-3.79,16.789,16.789,0,0,0-3.35-3,14.206,14.206,0,0,0-1.6-.95,9.2,9.2,0,0,0-1.24-.55,21.346,21.346,0,0,0-4.92-3.02c-.07-.03-.13-.05-.2-.08l.28-.4a14.934,14.934,0,0,0,1.13-2.58l2.17-1.12a2.908,2.908,0,0,0,1.55-1.7,2.951,2.951,0,0,0-.23-2.37l-11.2-21.28a2.842,2.842,0,0,0-1.65-1.5,3.153,3.153,0,0,0-2.43.15l-8.88,4.6a2.842,2.842,0,0,0-1.5,1.65,3.11,3.11,0,0,0,.16,2.43l3.5,6.64c.52.04,1.2.38,1.75,1.63.28.67.48,1.27.65,1.82a14.477,14.477,0,0,0-.62-1.54,3.4,3.4,0,0,0-1.03-1.4,1.243,1.243,0,0,0-1-.24.53.53,0,0,0-.19.06c-.08-.27-.14-.38-.16-.22a2.105,2.105,0,0,0-.02.32c-.06.04-.1.08-.17.12-.13.1-.2.16-.2.2-.02.06.13.02.37-.07,0,.43.01,1.08-.03,2q-.08,1.435-.27,2.86l-.45,3.25c-.01.15,0,.22-.01.33-.01.2.02.42.03.63-.02-.06-.03-.12-.05-.18.22,2.03,1.13,3.5,1,4.63a4.465,4.465,0,0,1-.66,1.65c-.2.37-.44.73-.67,1.1-1.2-.06-1.85.1-1.54.23a6.026,6.026,0,0,0,1.2.34c-.4.28-1.83,2.53-2.4,3.2l.04-.08c-1.26,1.97-2.9,3.83-4.1,5.74a2.14,2.14,0,0,1,.32-.57l-1.9,2.78.88.8,3.73-5.38c.08-.1.2-.28.3-.44a1.627,1.627,0,0,0,.18-.3l4.1-5.67s.3-.43.8-1.2a6.663,6.663,0,0,0,.72-1.53,3.924,3.924,0,0,0-.1-2.2c-.4-1.4-1.04-2.78-.9-4.15.13-1.52.27-3.04.3-4.37a15.791,15.791,0,0,0-.27-3.53.985.985,0,0,1,.66.15,2.266,2.266,0,0,1,.75,1.03c.2.46.36.96.47,1.3l.17.57a25.838,25.838,0,0,0,.8,2.66,4.559,4.559,0,0,0,.36.69l.4.56a3.012,3.012,0,0,0,.57.6,1.436,1.436,0,0,0,2.06-.07,3.459,3.459,0,0,0,.33-.4,2.427,2.427,0,0,0,.18-.32c.22-.43.33-.75.5-1.1l.85-2.13,3.8-10.16c.18-.48.32-.94.48-1.3a1.519,1.519,0,0,1,.43-.65c.1-.01.08-.05.32.2.07.08.04.04.06.15a2.99,2.99,0,0,1,.03.45,36.4,36.4,0,0,1-.34,3.87c-.16,1.24-.32,2.57-.44,4.04-.01.2-.03.38-.03.62a1.418,1.418,0,0,0,.1.62l.05.1a.288.288,0,0,0,.04.06.71.71,0,0,0,.12.13.832.832,0,0,0,.62.23.877.877,0,0,0,.47-.18.314.314,0,0,0,.1-.1,1.29,1.29,0,0,0,.2-.27,3.359,3.359,0,0,1,.6-.76c.25-.2.4-.22.44-.2a.564.564,0,0,1,.24.2,2.311,2.311,0,0,1,.34.5,1.865,1.865,0,0,1,.2.5q.025.124.04.25c0,.04.01.08.01.13a1.286,1.286,0,0,1-.05.36l.44.58.46.56.2.03a.2.2,0,0,1,.06.02.351.351,0,0,1,.08.05.585.585,0,0,1,.15.16,1.6,1.6,0,0,1,.23.55c.02.17.03.53.03.8l-.01.46-.03.7a3.815,3.815,0,0,0,.36.42l.17.2c.02.06.04.2.05.2a.285.285,0,0,1,.07.1,1.542,1.542,0,0,1,.14.4,3.9,3.9,0,0,1,.07,1.1,8.93,8.93,0,0,1-.38,2.31,9.1,9.1,0,0,1-1.37,2.95q-.533.783-1.13,1.52l-1.06,1.4-.58.57a6.9,6.9,0,0,1-.46.53l-.32,1q-.14.418-.3.83l-.01-.05c-.3,1.07-.72,2.25-.87,2.78v-.05l-.4,1.28.04-.23c-.55,1.86-1.17,3.75-1.75,5.42l.13-.1c-1.27,3.54-1.53,4.9-2.7,8.1v-.05q-.436,1.578-.96,3.13c-4.64-2.3-8.13-3.6-14.55-6.55l-4.23-2.1-1.7-.87-2.12-1.06-.78-.38c-.2.18-.37.43-.56.64l-.97,1.16-1.25,1.52q-1.533,1.9-3.01,3.85c-2.28,2.9-4.62,6.04-6.74,8.95-.86,1.5-2.8,3.8-3.85,5.54l-.55.57a12.809,12.809,0,0,1-1.26,1.82v-.06c-.54.9-1.24,1.84-1.5,2.3v-.06l-.7,1.05.08-.2c-.97,1.54-2,3.1-2.95,4.45l.2-.03q-.606.84-1.17,1.71c-.34.82-.7,1.94-.27,2.3.7.57,3.2-2.83,3.2-2.83-.2.03.76-1.25.38-1.02,1.58-2.72,3.54-4.5,3.7-5.76a18.5,18.5,0,0,1,1.54-1.88l-.17.3c1.5-2.2,1.97-2.83,3.16-4.42a12.769,12.769,0,0,1,1.53-2.5c-.26.52.16-.07.56-.6-.24.35-.3.48.3-.18a3.964,3.964,0,0,1,.24-.43c.01,0,.04-.02.04,0,.63-.9.5-.78.17-.37,0-.03-.04-.01-.16.1.8-.84,1.93-2.56,2.16-2.57l4.97-6.9c.27-.2-.07.37-.54,1.03l1.2-1.57c.1.1-.64.93-1,1.43a30.294,30.294,0,0,0,2.26-2.86l1.15-1.55q.155-.208.33-.4c.04-.1.13.02.2.04l.2.13a2.27,2.27,0,0,1,.46.1l.14.1a3.367,3.367,0,0,1,.98.3c.3.27-.14.23,1.1.8a39.917,39.917,0,0,0,4.1,1.8c-.68-.34-.43-.3-.12-.2.62.3.92.56,1.42.74l-.01.17c-.18-.25,1.68.62,1.93.67.3.27-1-.36-1.2-.35l3.72,1.73c1.37.52-.18-.25.5-.07,1.18.52,2.36.96,3.66,1.68l-.36-.33a38.586,38.586,0,0,1,4.95,2.4c16.78,6.68,4.1.22,4.1.22l-1.8-.92c.28-.93.62-1.97.85-2.5l-.05.18c1.22-3.4,1.83-5.92,2.95-8.98-.13.1.45-1.5.22-1.13.95-3.23,2.14-5.75,2.2-7,.46-1.46.65-1.7.9-2.44l-.1.35.13-.4.5-.57.48-.58c.12-.15.22-.3.33-.42a9.988,9.988,0,0,0,1.36.82,10.226,10.226,0,0,1,1.54,1.73c.3.44.5.77.8,1.26l-.33-.42a15.847,15.847,0,0,1,2.22,4.04,14.2,14.2,0,0,1,.8,3.7c.05.76.18,1.2.2,1.8a6.571,6.571,0,0,1-.01,1.08l-.1.74-.16,1c.02-.94-.12.23-.26,1.3.07-.7.06-.9-.2.5q0,.4-.04.8c-.01.01-.03.07-.03.03-.27,1.8-.18,1.48-.03.66.01.04.04-.02.1-.27-.42,1.83-.9,5.16-1.14,5.35l-2.64,13.65c-.2.48-.05-.58.22-1.87l-.7,3.15a18.148,18.148,0,0,1,.54-2.8c-1.07,3.7-1.6,7.76-2.86,12.08l-.12.93-.08.26a7.3,7.3,0,0,1-.26,1.65c-.27.6-.25-.1-.78,2.06-.55,1.68-1.18,4.87-1.7,7.12.33-1.2.3-.8.2-.27-.28,1.08-.55,1.67-.72,2.52l-.14.05c.07.18-.63,2.9-.67,3.3-.27.58.35-1.7.33-2l-1.7,6.48c-.5,2.33.26-.38.1.76-.52,2.04-.97,4.05-1.7,6.35l.34-.7c-.97,3.84-1.62,6.12-2.5,8.63l-3.2,13.04c-.4,1.94-.22,1.84.23.87s1.13-2.86,1.7-4.5l1-3.02c3.63-11.06,4.83-16.96,8.26-30.36l3.58-13.36c.98-3.78,1.96-7.6,3.3-13.78,1.32-5.88,2.64-12.16,3.38-18.08.01-.18.03-.36.04-.55l.01-.15c0-.02-.01.03-.01.03l.05-.4c.05-.44.13-.9.17-1.38l.07-1.5c-.02-.52-.03-1.05-.07-1.58a15.034,15.034,0,0,0-1.77-5.8c-.17-.42-.34-.85-.55-1.25q-.473-.723-1-1.41a17.1,17.1,0,0,1,4.26,4.63c-.42-.83-1.2-1.76-.64-1.16.3.38.54.8.8,1.2s.5.82.72,1.26l-.37-.5a29.033,29.033,0,0,1,1.74,3.95l-.1-.6a22.689,22.689,0,0,1,.7,2.45c.2.73.38,1.5.76,2.64.36,1.04-.33-2.02.26.18a71.264,71.264,0,0,1,1.1,10.85c.12-.35.2.64.24,1.67l-.12.12c.25,3.94-.22,1.45-.1,5.36l-.08-.35.24,1.04c.16,3.55-.3,1.9-.1,5.86.05-1.56.3-.72.17,1.2l-.1-.5c-.02,1.06.01,1.42-.05,2.13-.03-.64-.16-.35-.22,1.22l-.1-1.06.07,2.97c-.25,2.28-.28,5.9-.5,6.84,0,0-.37,4.9-.27,6.04-.05-1-.27,1.7-.36.93a49.7,49.7,0,0,1-.35,6.54l.01-.3c-.54,5.55-.53,9.52-1.13,14.5.16-.2-.15,2.4.1,1.78-.27,5.17-1.26,9.36-.88,11.27-.2,2.35-.42,2.76-.58,3.97l.03-.56-.5,4.88-.42,3.46v.12l-.1.02a1.361,1.361,0,0,1-.17.04l-.2.05c-.14.02-.3.03-.44.05a20.181,20.181,0,0,1-2.9.08c.95-.1-.25-.1-1.35-.1.7-.02.92-.06-.52-.13-.2.03-.52.05-.8.07-.01-.01-.07-.01-.04-.03-1.83.04-1.5.08-.66.1-.04.02.03.04.3.06-1.9-.13-5.3.04-5.53-.14l-13.14.35q.048-.081.1-.16.455-.029.91-.04l-.9.01c.01-.02.02-.05.03-.07.17,0,.33-.01.48-.01-.15-.01-.3-.01-.47-.02.23-.47.45-.93.64-1.37,1.6-3.78,2.15-6.53,1.75-5.95-.23.28-.7,1.4-1.72,3.52a31.4,31.4,0,0,1-5.93,8.72l.14-.22a31.107,31.107,0,0,1-5.5,4.7c-.85.6-1.72,1.1-2.54,1.65l-2.56,1.46a12.3,12.3,0,0,0-2.6,1c-1.2.45-2.44,1-3.1,1.15l.1-.06c-3.28,1.33-7.02,1.85-10.3,2.7a2.33,2.33,0,0,1,.7-.24,32.5,32.5,0,0,1-5.7.94c-2.93.46-6.46.84-9.73,1.02-3.27.2-6.28.23-8.18.27l.26-.03a34.038,34.038,0,0,1-5.2-.3c-.13-.04-.3-.07-.27-.08a21.335,21.335,0,0,1-4.42-.8,13.6,13.6,0,0,1-3.66-1.64l-.02-.16a5.381,5.381,0,0,1-.74-.68,5.169,5.169,0,0,1-.52-.85,5.87,5.87,0,0,1-.54-2.03,6.169,6.169,0,0,0,.3,1.55,3.294,3.294,0,0,1-.4-2.17,28.76,28.76,0,0,1,.68-4.32c.82-3.02,1.38-6.35,2.78-9.4.48-1.52-.32,1.38.5-.85.18-.01-.33,1.06.02.55.82-2.18,1.63-3.46,2.68-6.14l.16-.06c1.3-3.53,3-6.42,3.83-8.8,1.5-3.58,1.4-2.22,2.83-6l.8-1.36c.7-1.48.38-1.26,1.07-2.7.02.1.04.16.03.15a15.094,15.094,0,0,0,1.58,2.9c.54.75,1.02,1.18,1.13,1.1,1.1,1.27.85,1.08.92,1.3a21.722,21.722,0,0,1,2.2,1.66,3.922,3.922,0,0,1-.5-.33,29.028,29.028,0,0,0,3.05,2.05,6.713,6.713,0,0,1-.48-.58c1.6,1.06.26.5,1.9,1.4l.07-.18c.46.25,1.78,1.63,8.28,3a26.876,26.876,0,0,0,5.55.95l1.1.15-.28-.1c.1,0,.23.02.34.02a1.871,1.871,0,0,0,.4.13c.2.2,2.42-.47,2.77-.4l1-.27c.3.01.9-.1.4.06a13.028,13.028,0,0,0,1.6-.5,8.348,8.348,0,0,0,1.02-.17,23.936,23.936,0,0,0,9.18-5.74,24.284,24.284,0,0,0,4.55-5.4,75.891,75.891,0,0,0,5.7-9.8c3.03-6.3,7.04-13.44,9.3-20.26a3.335,3.335,0,0,0,.24-.8l2.33-6.12,1.52-4.32c.84-2.46,1.8-5.52,2.46-7.9s1-4.06.64-3.73-1.38,2.66-3.7,8.2l.01-.17a74.432,74.432,0,0,0-2.64,7.83c-.4.26-1.05,2.73-1.42,3.48l.01-.08c-.58,2.1-1.77,4.1-2.4,6.12a1.11,1.11,0,0,1,.13-.6,18.326,18.326,0,0,1-1.47,3.42c-1.38,3.37-3.52,7.97-4.35,10.15l.03-.16c-.43,1.27-.73,1.55-1.32,2.92-.06.06-.12.15-.12.13-.54,1.34-1.94,3.75-2.5,4.76h-.13l-1.45,2.48.57-.9c.03.24-.27.7-.74,1.3a15.671,15.671,0,0,0-1.58,2.26,8.091,8.091,0,0,0-.5.79l-.03.04c-.4.7-.76,1.46-1.14,2.22a9.358,9.358,0,0,1-1.5,2.03c-.52.83.38-.8-.48.36-.13-.06.37-.57.04-.38a10.322,10.322,0,0,1-1.37,1.3c-.24.2-.46.4-.73.63q-.468.342-.9.73l-.13-.06a10.772,10.772,0,0,1-2.56,1.78,19.656,19.656,0,0,0-2.27,1.18c-2.13.9-1.53.26-3.77,1.1a5.835,5.835,0,0,1-.94.03c-1,.13-.68.35-1.8.4.06-.1-1.42.01-.78-.13q-.475,0-.95.03c-.32,0-.64-.01-.97-.01a16.931,16.931,0,0,1-2-.07l-1.05-.1-1.08-.22a11.242,11.242,0,0,1-2.24-.73,14.351,14.351,0,0,1-2.76-.97l-5-1.92a4.735,4.735,0,0,0-.56-.3l.25.05-.74-.14s-.12-.08-.3-.22q.088.071.17.15a4.569,4.569,0,0,1-1.43-.98,9.983,9.983,0,0,0-1.66-1.22c.83.64.16.56-.72-.4l.32.14a5.822,5.822,0,0,1-1-.98c.34.26.25.07-.4-.72.17.15.35.3.54.44a12.749,12.749,0,0,1-1.32-1.42,23.03,23.03,0,0,1-1.12-2.33,7.111,7.111,0,0,1-.56-1.87s-.23-.8-.44-1.7-.45-1.92-.6-2.3c.24.65-.06-1.2.17-.7a16.813,16.813,0,0,1-.5-2.15,10.744,10.744,0,0,1-.16-2.24l.02.2c-.02-3.7.05-6.44,1.1-9.7-.18.1.4-1.6.1-1.23.88-3.47,2.62-5.95,2.64-7.36a15.721,15.721,0,0,1,1.35-2.44l-.15.36q.715-1.552,1.52-3.06c.42-.8.78-1.5,1.36-2.48a16.889,16.889,0,0,1,1.46-3.05c-.25.62.16-.1.56-.76-.24.43-.28.58.3-.25a3.633,3.633,0,0,1,.23-.52c.01,0,.04-.03.04-.01.62-1.12.48-.94.16-.44,0-.03-.04,0-.16.14.8-1.07,1.95-3.15,2.18-3.2l5.14-8.35c.28-.24-.07.42-.57,1.2l1.26-1.9c.1.1-.7,1.1-1.05,1.7,1.7-2.1,3.03-4.68,5.13-7.06l.32-.6.13-.14a4.393,4.393,0,0,1,.62-1c.37-.27.2.2,1.18-1.02.43-.45,1-1.12,1.58-1.83s1.17-1.5,1.72-2.1c-.62.6-.47.37-.24.07.54-.56.94-.8,1.32-1.27l.16.06c-.16.06.17-.34.55-.78l.95-1c.4-.22-.82.9-.9,1.1l1.7-1.6c.3-.27.55-.55,1.75-1.55,1.2-1.16-.33.08.2-.54.55-.5,1.1-.97,1.7-1.43a12.738,12.738,0,0,1,1.96-1.35l-.53.17a21.394,21.394,0,0,1,2.96-1.87c.44-.23.86-.44,1.28-.64l1.3-.47.84-.42c.28-.12.56-.22.82-.33.54-.2,1.04-.43,1.52-.6.98-.27,1.82-.6,2.6-.73.76-.15,1.4-.34,1.95-.4s1-.14,1.35-.2c1.4-.23,1.3-.35.55-.5a16.866,16.866,0,0,0-3.54-.04,12,12,0,0,0-1.65.2l-.7.14a25.468,25.468,0,0,0-9.97,4.44,59.172,59.172,0,0,0-8.86,7.98c-3,3.14-4.8,5.23-6.55,7.38-.87,1.1-1.76,2.17-2.7,3.48l-1.52,2.1-1.7,2.56c-2.4,3.53-4.8,7.4-6.88,11-.84,1.8-2.73,4.76-3.66,6.93q-.269.374-.52.76a19.092,19.092,0,0,1-1.1,2.33l-.01-.06c-.42,1.14-1.04,2.37-1.23,2.94v-.06l-.54,1.38.05-.25c-.74,2-1.4,4.1-1.98,5.95l.2-.12c-.32,1-.5,1.85-.68,2.6L162,164l-.18,2.1c-.01.74-.1,1.55-.1,2.5l-.04-.05c.1,1.2.27,2.26.4,3.27l.4,2.82a31,31,0,0,0,.67,3.38,24.8,24.8,0,0,1-1.34,3.34l-.58,1.52c-.22.4-.65,1.26-.37.5-.62,1.36-.6,1.4-1,2.42l-.78,1.4c-2.5,5.36-4.33,10.05-6.83,15.76q-1.426,3.027-2.61,6.16a44.526,44.526,0,0,0-2.32,7.77,12.106,12.106,0,0,0-.1,4.42,7.387,7.387,0,0,0,.75,2.16,5.392,5.392,0,0,0,1.52,1.78,11.786,11.786,0,0,0,3.6,1.77,26.983,26.983,0,0,0,3.3.8,89.723,89.723,0,0,0,18.22.68,82.319,82.319,0,0,0,18.16-2.93c.2-.04.52-.14.8-.23a2.1,2.1,0,0,0,.5-.2,58.586,58.586,0,0,0,10.16-3.77l1.95-1.02,2.07-1.27c.76-.52,1.6-1.1,2.46-1.78a29.221,29.221,0,0,0,4.93-5c.6-.78,1.13-1.6,1.63-2.4l4.07-.03,18.42-.15c.7-.05,1.54-.08,2.45-.1l1.6-.01h1.53c.13.05.27.1.4.14l1.06.42,2.3.88,3.78,1.07-.06-14.88q-.009-4.591.15-9.18a25.4,25.4,0,0,1,2,2.1,13.138,13.138,0,0,0,2.45,2.22c.35.38.73.74,1.1,1.1a5.793,5.793,0,0,0,1.24.84c.3.15.57.36,1.4.9-.08.01.43.36.84.62.4.24.7.42.2.2,3.63,2.2,7.7,3.78,12.62,6.33,1.18.3,3.68,1.56,4.57,1.76.1.15,5.14,2.2,2.18,1.16a2.9,2.9,0,0,1-.65-.3l-.4-.03a87.749,87.749,0,0,0,8.25,3.26c-.85-.38-2-.82-1.2-.6l2.7,1.08-.6-.12,4.02,1.6-.5-.33a33.84,33.84,0,0,0,4.9,1.9c1.05.27-1.83-.84.3-.12,2.63,1.04,6.6,2.56,10,3.73-.28-.24.65.07,1.6.35l.07.15c3.7,1,1.26.7,4.9,1.7l.7.03c.43.1.7.16,1.07.27a2.814,2.814,0,0,0,1.17.06,2.93,2.93,0,0,0,1.34-.59,2.444,2.444,0,0,0,.48-.52,3.407,3.407,0,0,0,.33-.67c.17-.4.38-.98.67-1.9-.57,1.4-.53.55.24-1.13l-.07.48c.37-.95.46-1.3.75-1.9-.18.6.04.36.6-1.03l-.25,1,.46-1.38,1.85.43,5.78,1.35,2.66.63a22.641,22.641,0,0,1,2.28.7q.771.254,1.56.45l.8.2.4.08.52.08.3.04c.1,0,.23.07.26-.06l.33-.53c.17-.28.3-.45.46-.68a10.875,10.875,0,0,1,1.04-1.21,11.18,11.18,0,0,1,5.68-2.98,11.481,11.481,0,0,1,11.29,4.38c.17.2.53.8.55.77a10.8,10.8,0,0,1,1.37,7.2s-.03.14-.07.4c-.03.13-.06.3-.1.47-.02.1-.05.2-.08.33a1.984,1.984,0,0,0-.1.55,1.594,1.594,0,0,0,2.24.9,3.774,3.774,0,0,0,1.54-2,23.48,23.48,0,0,0,1-10.13ZM230.66,74.98a2.961,2.961,0,0,0-.43.66,8.628,8.628,0,0,0-.44,1.2c.28-.77.24-.5.14-.16-.23.68-.45,1.05-.6,1.6l-.1.03a18.242,18.242,0,0,1-.65,2.08c-.22.36.35-1.08.37-1.27l-1.58,4.1c-.5,1.48.2-.23-.01.5-.5,1.3-.93,2.56-1.58,4l.27-.43-1.2,3.02a2.444,2.444,0,0,1-.6.9l-7.68-14.6a2.15,2.15,0,0,1-.1-1.65,1.8,1.8,0,0,1,.98-1.08l8.9-4.6a2.111,2.111,0,0,1,1.64-.1,1.863,1.863,0,0,1,1.1,1l2.34,4.45a1.47,1.47,0,0,0-.71.4ZM237,87.25a2,2,0,0,0-.43-.39,1.538,1.538,0,0,0-.45-.2.71.71,0,0,0-.29,0,1.935,1.935,0,0,0,.04-.27,2.61,2.61,0,0,0-.04-.48,2.565,2.565,0,0,0-.15-.56,3.608,3.608,0,0,0-.54-.96,2.061,2.061,0,0,0-.92-.75,1.443,1.443,0,0,0-1.24.22c-.17.1-.12,0,.13-.16a1.5,1.5,0,0,1,.56-.2,1.38,1.38,0,0,1,.83.16,1.424,1.424,0,0,0-1.4.01,2.533,2.533,0,0,0-.67.53.2.2,0,0,1,.01-.08,3.45,3.45,0,0,1,.27-.25,2.1,2.1,0,0,1,.68-.37,1.635,1.635,0,0,1,.82-.02,1.61,1.61,0,0,0-1.3.2,2.709,2.709,0,0,0-.46.36c.06-1.28.2-2.56.4-3.95v-.62l.03-.17a7.318,7.318,0,0,1,0-1.1c.06-.26.1-.18.16-.42l7.2,13.68a2,2,0,0,1,.16,1.58,1.91,1.91,0,0,1-1.03,1.13l-1.2.62c.02-.06.03-.1.05-.18.02-.17.03-.36.05-.55.01-.01.01-.05.02-.02.1-1.24.05-1.02,0-.45-.01-.03-.02.02-.06.2a6.549,6.549,0,0,0,.05-1.9,2.889,2.889,0,0,0-.3-.97,1.91,1.91,0,0,0-.28-.4c-.08-.07-.1-.1-.13-.1s-.04-.03-.03-.06a.219.219,0,0,1,.03-.05v-.04l.01-.9a5.874,5.874,0,0,0-.08-1.07,2.665,2.665,0,0,0-.48-1.02ZM164.1,180.7Zm74.73-78.13c.66.5,1.04.84.28.35A2.387,2.387,0,0,1,238.83,102.57Zm13.45,61.5c.02,1.52-.26,2.48-.2,4.35l-.13.07c.14,2.44-.32,4.6-.15,6.22.03,2.52-.42,1.67-.25,4.3l-.2,1c-.06,1.12.2.8.07,2.05-.1-.08-.13,1.57-.2.84-.23,2.8.1,5.7-.25,9.4.2.8.04,2.67.18,3.27-.1.1-.07,3.74-.23,1.64-.01-.18-.01-.5.03-.48l-.12-.25a55.851,55.851,0,0,0,.02,5.93c.05-.62.04-1.44.12-.9l-.04,1.94-.1-.4-.08,2.9.13-.4c-.04.7-.1,1.2-.15,1.7-.02.25-.03.5-.03.8.01.15.01.3.02.47.01.08.01.17.02.26s.02.22.03.2c.03.04.05.05.07.03s.04,0,.06-.16c.02-.12.03-.2.05-.2a.614.614,0,0,1,.02.15c0,.05.01.13.02.24-.02.13-.04.28-.07.43a8.128,8.128,0,0,0-1.4-.5l-2.7-.84c.1.1-.02.1-.24.06a3.836,3.836,0,0,1-.4-.1.82.82,0,0,0-.18-.03l.06-.1a.615.615,0,0,1-.14-.01l-.16.16.37-3.02q.156-1.367.24-2.74l.26-1.27c.06-1.15.17-2.5.35-3.63l.03.08c.1-1.7.34-3.63.38-4.48l.03.07.2-2.07.02.36q.282-4.378.75-8.74l-.16.2c.65-5.76.53-7.9,1.1-13.1l.03.07c.1-6.62.98-10.4,1-17.24,0,.85.1-.36.13-.3.13-3.14.28-6.48,0-6.55.12-2.28.18-1.86.3-2.15a20.75,20.75,0,0,1-.02-3.77l.02.82.1-5.13-.25,1c.1-2.72.3-.7.26-3.3l-.2.03c0-3.76.2-6-.01-9.67a49.737,49.737,0,0,0-.9-5.73,36.677,36.677,0,0,0-1.65-5.68,25.171,25.171,0,0,0-3.86-6.96,17.984,17.984,0,0,1,2.7,3.4l-.14-.1a41.3,41.3,0,0,1,3.88,7.56c-.1.46.82,2.94.9,3.82l-.04-.08c.7,2.18.66,4.64,1.08,6.8a1.476,1.476,0,0,1-.17-.62,17.309,17.309,0,0,1,.26,3.9c.3,3.82.15,9.2.3,11.68l-.04-.17c.13,1.42-.04,1.82-.02,3.4-.03.08-.04.2-.05.18.1,1.54-.2,4.5-.18,5.74l-.1.08-.12,3.07.08-1.15c.28.4-.3,2.3-.2,4.55-.13,2.08.46,4.25.23,6.4.1,1.04-.2-.92-.15.63-.2.1-.13-.68-.27-.28Zm68.15,46.44c-.86,2.02-.78,1.6-1,1.84a19.373,19.373,0,0,1-1.23,3.4l.26-.74a9.863,9.863,0,0,1-.4.93.74.74,0,0,1-.53.3.89.89,0,0,1-.32-.02l-.55-.17-1.2-.35.86.5c-2.48-.84-.55-.47-2.94-1.16l-.03.2c-3.4-1.13-5.32-2.08-8.56-3.34-6.82-2.38-13.88-4.9-20.72-7.63a154.748,154.748,0,0,1-19.27-9.03l-.45-.4a8.577,8.577,0,0,0-1.77-.9,6.092,6.092,0,0,1-1.8-1.12c-.43-.26-.85-.55-1.27-.85-.3-.3-1-.9-.37-.46-1.1-.9-1.12-.93-1.94-1.55l-1.03-1.14-3.1-3.1.07-1.47.16-.4c.22-.17-.25-2.5-.05-2.84l-.07-1.05c.05-.3.1-.9.14-.4a10.832,10.832,0,0,0-.05-1.7l.16-1.04c.2-3.83.07-7.1.26-11.1.44-4.83.6-13.94.72-19.2.04-3.7.33-7.7.4-11.75a54.529,54.529,0,0,0-.84-11.93,5.233,5.233,0,0,0-.2-.87q-.245-1.444-.58-2.87l3.06,3.98c2.74,3.58,5.55,7.4,9.3,12.96l7.42,11.15a122.7,122.7,0,0,0,8.33,11q1.446,1.731,3.03,3.34a25.72,25.72,0,0,0,3.5,3.1c2.58,1.8,5.15,3.2,7.63,4.65,2.45,1.18,6.5,3.67,9.4,5.05l1.03.7a34.016,34.016,0,0,1,3.1,1.64h-.08c1.5.7,3.1,1.63,3.84,1.97h-.08l1.77.93-.33-.12c2.57,1.26,5.18,2.64,7.47,3.9l-.12-.23c3.56,2,5.56,2.9,8.1,4.2a.34.34,0,0,1,.2.4.9.9,0,0,1-.05.16c-.06.13-.12.26-.17.4l-.4.87-.01-.08c-2.12,6-4.14,9.14-6.35,15.3.28-.77-.2.3-.2.22-1.16,2.77-2.4,5.74-2.14,5.9Z"/>
  </g>
</svg>
