<svg xmlns="http://www.w3.org/2000/svg" xmlns:xlink="http://www.w3.org/1999/xlink" width="190.555" height="172.07" viewBox="0 0 190.555 172.07">
  <defs>
    <linearGradient id="linear-gradient" x1="0.604" y1="0.297" x2="0.348" y2="0.933" gradientUnits="objectBoundingBox">
      <stop offset="0.005" stop-color="#cc7a5e" stop-opacity="0"/>
      <stop offset="0.924" stop-color="#aa5f4b"/>
    </linearGradient>
    <linearGradient id="linear-gradient-2" x1="0.85" y1="0.5" x2="-0.254" y2="0.5" xlink:href="#linear-gradient"/>
    <linearGradient id="linear-gradient-3" x1="0.738" y1="0.249" x2="0.313" y2="0.927" gradientUnits="objectBoundingBox">
      <stop offset="0.298" stop-color="#f5b02a"/>
      <stop offset="1" stop-color="#e46c26"/>
    </linearGradient>
    <linearGradient id="linear-gradient-4" x1="0.919" y1="0.416" x2="0.282" y2="0.507" gradientUnits="objectBoundingBox">
      <stop offset="0.298" stop-color="#f5c52a"/>
      <stop offset="1" stop-color="#e46c26"/>
    </linearGradient>
    <linearGradient id="linear-gradient-5" x1="0.874" y1="0.484" x2="0.096" y2="0.57" xlink:href="#linear-gradient-4"/>
    <linearGradient id="linear-gradient-6" x1="-0.029" y1="0.492" x2="1.016" y2="0.513" gradientUnits="objectBoundingBox">
      <stop offset="0" stop-color="#dd6d22"/>
      <stop offset="1" stop-color="#dd6d22" stop-opacity="0"/>
    </linearGradient>
    <linearGradient id="linear-gradient-7" x1="0.043" y1="0.557" x2="1.104" y2="0.389" xlink:href="#linear-gradient-3"/>
    <linearGradient id="linear-gradient-8" x1="0.251" y1="0.373" x2="1.06" y2="0.785" xlink:href="#linear-gradient-4"/>
  </defs>
  <g id="_11" data-name="11" transform="translate(-163.78 -98.48)">
    <path id="Path_11956" data-name="Path 11956" d="M297.5,211.2a379.974,379.974,0,0,0,35.9,15.7,23.119,23.119,0,0,0,12.9,5.5c.6.2,1.4-.5,2.3-1.1.5-.4,0-1.4.4-1.8.2-.4,1.2.1,1.5-.2.4-.5,1.5-1.3,1.1-1.9-1.4-2.1,1.1-1.8,1.4-2.5a2.1,2.1,0,0,0-.4-2.1l-4.7-2.8c-.9-.5,1.9-.6,3.5-.6,1.8-.1,3.4-1.4.4-2.1s-5.4-1.7-6.3-1.7c-.8-.1-4-.9-6.2-.5-1.4.2-3.3,1.1-6.4-.5-5-2.7-20.6-15.5-28.2-21.8-3.8-3-20.1,11.9-7.2,18.4Z" fill="#ea9d7d"/>
    <path id="Path_11957" data-name="Path 11957" d="M313.1,218.7c11.4,4.9,20.2,8.3,20.2,8.3a28.432,28.432,0,0,0,12.9,5.5c2.7.4-1.6-7.2-5.4-9.6C315.1,206.4,308.2,216.6,313.1,218.7Z" fill="url(#linear-gradient)"/>
    <g id="Group_828" data-name="Group 828">
      <path id="Path_11958" data-name="Path 11958" d="M328.9,222.7l-.3-.8.7-.2Zm2-3.1-.6-.7.9-.4Zm-.3,2-.3.9-.8-.5Zm-.5,1.2-.4,1.2-1-.7Z" fill="#ad5c44"/>
      <path id="Path_11959" data-name="Path 11959" d="M329.1,221.1l.5-1.3.6,1.1Zm.5,4.3-1.7-.5,1.4-.9Zm-2.2-1,.7-1.5.8,1.3Zm1.2-1.4v-.6l.6.2Zm3.9-3.9-.1.4-.3-.2Zm-1.9,1h.5l-.1.5Zm-.6,4.5-.6-.3.4-.4Zm2.7-3.7-.1-.6.4.3Zm-1.7,4.2-.7.6-.4-.9Zm7.3,4.2-.6-.5.7-.4Zm-4.7-3.4-.6.8-.3-1Zm-.3-1.6.1.8-1-.1Zm2.4,2,.9.1-.5,1Zm-.5,1.1-1.1-.7,1-.6Zm-2.6-.8-1.7-.7,1.3-.8Zm4.4,2-.8-.5.8-.4Z" fill="#ad5c44"/>
      <path id="Path_11960" data-name="Path 11960" d="M331.9,224.7h-.3v-.4Zm.2-2.2-.1.3-.2-.2Zm-2.5,1.4.3-.1-.2.4Zm7.8,2.6-.2-.5.5.1Zm2.1,2.8-.1.4-.3-.3Zm-8.1-4.9-.1-.4.6.1Zm2.9,1.9-.1-.5.5.1Zm4.5,1.5-.5-.3.4-.4Zm-4.1-3.5-.3.1.1-.6Zm-3.9-1.6-.1-.5.5.2Zm2.6.6-.4-.2.3-.4Zm7.7,7.4-.5-.1.4-.4Zm-4.8-6.6-.3.3-.2-.3Zm3.2,3.8.3.3-.5.1Z" fill="#ad5c44"/>
    </g>
    <path id="Path_11961" data-name="Path 11961" d="M353.8,219.5c-1.2.8-4.8.7-6,.7a6.91,6.91,0,0,1-5.5,2.4c-3.6-.3-4.7-2.1-4.8-2.2a.515.515,0,0,1,.9-.5,6.261,6.261,0,0,0,4,1.7c2.8.3,4.9-2.2,4.9-2.2a.764.764,0,0,1,.5-.2c1.9.1,5.7.1,5.5-.8,0-.2-.5-.2-.8-.3-.6-.2-1.4-.3-2.4-.7a6.469,6.469,0,0,1-1.3-.4c-2.8-.9-6.5-1.9-9.3-1.3a9.236,9.236,0,0,1-6-.1.474.474,0,0,1,.3-.9,8.409,8.409,0,0,0,5.5.1c3-.6,6.9.5,9.8,1.4a10.381,10.381,0,0,1,1.3.4l2.3.6a4.121,4.121,0,0,1,.9.2,1.2,1.2,0,0,1,.2,2.1Z" fill="#cc7a5e"/>
    <path id="Path_11962" data-name="Path 11962" d="M346.2,221.9c-.5,1.1.8,2.2,2.6,3,1.8.9,3.5,1.3,4.1,0,.7-1.6-.8-2.2-2.6-3C348.3,221.2,346.8,220.5,346.2,221.9Z" fill="#ea9d7d"/>
    <path id="Path_11963" data-name="Path 11963" d="M353.4,224.8c0,.1-.1.3-.1.4a1.65,1.65,0,0,1-1,1c-.8.3-2,.1-3.6-.7-1.1-.5-2.6-1.2-2.9-2.4a1.213,1.213,0,0,1,.1-1.3c.9-1.8,2.7-1.1,4.4-.3l.2.1c1.5.6,2.6,1.1,2.9,2.2A1.668,1.668,0,0,1,353.4,224.8Zm-6.9-2.5c-.2,1,1.1,1.6,2.4,2.2,1.4.7,2.4.9,2.9.7a.625.625,0,0,0,.6-.4,1.165,1.165,0,0,0-.1-.9c-.2-.7-1.5-1.2-2.5-1.6l-.2-.1c-1.9-.9-2.5-.8-3-.4a4.331,4.331,0,0,0-.1.5Z" fill="#cc7a5e"/>
    <path id="Path_11964" data-name="Path 11964" d="M344.7,225.2c-.5,1.1.8,2.2,2.6,3,1.8.9,3.5,1.3,4.1,0,.7-1.6-.8-2.2-2.6-3C346.9,224.3,345.5,223.7,344.7,225.2Z" fill="#ea9d7d"/>
    <path id="Path_11965" data-name="Path 11965" d="M352,228c-.1.2-.1.3-.2.4a1.65,1.65,0,0,1-1,1c-.8.3-2,.1-3.6-.7-1.1-.5-2.5-1.2-2.9-2.4a1.4,1.4,0,0,1,0-1.4c.8-1.8,3.1-.9,4.8-.1,1.5.6,2.6,1.1,2.9,2.2a1.668,1.668,0,0,1,0,1Zm-4.5-.2c1.4.7,2.4.9,2.9.7a.943.943,0,0,0,.5-1.3c-.2-.7-1.5-1.2-2.5-1.6-2.2-1-2.9-1.1-3.4-.2h0c-.1,1.2,1.2,1.8,2.5,2.4Z" fill="#cc7a5e"/>
    <path id="Path_11966" data-name="Path 11966" d="M343.1,228.1c-.5.9.6,1.9,2.3,2.5,1.6.7,2.9,1.1,3.4,0,.5-1.2-.6-1.9-2.3-2.5C345.1,227.3,343.7,226.9,343.1,228.1Z" fill="#ea9d7d"/>
    <path id="Path_11967" data-name="Path 11967" d="M349.4,230.5c0,.1-.1.2-.1.4-.9,1.8-3.1.7-4.1.2a4.645,4.645,0,0,1-2.6-2,1.258,1.258,0,0,1,0-1.2h0a1.65,1.65,0,0,1,1-1c.9-.3,2,.2,3.1.7,1.3.5,2.3,1.1,2.6,1.9a1.147,1.147,0,0,1,.1,1Zm-5.9-2.1c0,.1-.1.2,0,.3a3.659,3.659,0,0,0,2,1.4c2.1,1,2.6.7,2.8.3a.726.726,0,0,0,.1-.6c-.2-.5-1.2-1-2-1.3a4.251,4.251,0,0,0-2.4-.7,1.649,1.649,0,0,0-.5.6Z" fill="#cc7a5e"/>
    <path id="Path_11968" data-name="Path 11968" d="M181.3,216.5c3.5,19.5,9.1,38.2,9.1,38.2a22.468,22.468,0,0,0,3.4,13.5c.3.6,1.3.7,2.3,1.1.5.2,1.1.7,1.6.7.4,0,.42-.64,1.02-.54.8,0,1.95.5,2.55.2,1.1-1.8,1.83-.25,2.53-.45a2.316,2.316,0,0,0,1.5-1.5c-.2-2.3-.3-4.4-.5-5.4-.3-1,1.6,1,2.5,2.3,1.2,1.4,3.2,1.9,1.9-.9-1.3-2.9-2-5.4-2.4-6.1a20.366,20.366,0,0,0-3.4-5.2c-1-1.1-2.9-2.1-3.5-5.4-.8-5.6-.1-25.8.3-35.6.3-5.2-21.4-9-18.9,5.1Z" fill="#ea9d7d"/>
    <path id="Path_11969" data-name="Path 11969" d="M185,233.5c2.9,12.1,5.6,21.2,5.6,21.2a27.017,27.017,0,0,0,3.4,13.5c1.3,2.4,4.8-5.6,4.5-10.1C195.8,227.6,183.7,228.2,185,233.5Z" fill="url(#linear-gradient-2)"/>
    <path id="Path_11970" data-name="Path 11970" d="M193.7,268.8a30.847,30.847,0,0,1-2.6-5.7c-.8-2.4-.9-8.3-1.1-8.5a.51.51,0,1,1,1-.2s.2,6,.9,8.3c1,2.9,2.1,5.1,2.9,5.7.6.4.9.3.9.3.2-.1.3-.2.4-.1.1,0,.22.18.3.3.15.23.25.7.85.7.84-.04.93-.6.95-.7.05-.3.12-.54.4-.6.3-.07.5.1.6.4,0,.2.2.9,1.2.7a1.207,1.207,0,0,0,.8-.3,1.908,1.908,0,0,0,.3-1,.622.622,0,0,1,.4-.6.565.565,0,0,1,.5.3,1.026,1.026,0,0,0,1.2.6c.8-.1.9-.3.8-2.1l-.4-5.1c0-.2.1-.5.3-.5s.4,0,.5.2c1,1.5,2.9,4,3.8,4.3h.2s.1-.1,0-.4c0-.1-.8-1.9-1.2-3,0,0-2.7-7.4-5-9.4a11.025,11.025,0,0,1-3.6-4.9c-.1-.3,0-.6.3-.6s.6,0,.6.3c.5,1.6,1.3,2.7,3.2,4.4,2.6,2.1,4.1,6.4,5.1,9.3a25.679,25.679,0,0,0,1.2,2.7c.7,1.4.5,2.22.08,2.46-1.9.92-3.48-1.86-4.38-3.16.1.9.3,3.4.3,3.4.1,1.6.23,2.86-1.55,3.26a2.182,2.182,0,0,1-1.75-.46,1.688,1.688,0,0,1-1.66,1.4,2.312,2.312,0,0,1-1.94-.7,1.136,1.136,0,0,1-1.2.75,1.694,1.694,0,0,1-1.63-.8c-.63.28-1.6-.44-1.96-.95Z" fill="#cc7a5e"/>
    <g id="Group_829" data-name="Group 829">
      <path id="Path_11971" data-name="Path 11971" d="M191.3,248.5l.3-.7.7.4Zm3.6-.4.2-.9.8.6Zm-1.8,1.1-.8.4-.2-1.1Zm-1.3.2-1.1.5-.1-1.3Z" fill="#ad5c44"/>
      <path id="Path_11972" data-name="Path 11972" d="M192.5,247.6l1.5-.2-.5,1.1Zm-3.1,3-.5-1.6,1.4.4Zm-.5-2.2,1.7-.3-.6,1.2Zm2,0,.2-.4.3.6Zm5.3.7-.4.2.1-.5Zm-2-.9.4.4-.5.3Zm-3.9,2.2v-.6l.5.3Zm4.6-.1.4-.3.1.5Zm-4.3,1.1h-1.1l.6-.8Zm.9,8.6.1-.8.9.1Zm-.1-5.8-.9-.2.6-.8Zm1.2-1.3-.6.5-.4-.8Zm-.2,3,.4.9-.9.2Zm-1,.5-.3-1.5,1.1.5Zm-1.1-2.7-.5-1.7,1.5.5Zm1.1,4.9-.1-1.1.9.5Zm0-6.6-.2-.2.4-.2Zm1.9-1.1-.2.1-.1-.3Zm-2.6-1.2.2.3-.4-.1Zm2.5,7.7.5-.3.1.5Zm-.9,3.5-.3.3v-.7Zm-.9-9.4.2-.4.3.5Zm.1,3.4.3-.4.4.5Zm1.7,4.6-.2-.7.6.2Zm.3-5.3-.2-.4.5-.1Zm-1.2-4.3.4-.3.1.5Zm1.2,2.5-.2-.4.5-.1Zm-1.3,10.7-.3-.6h.8Zm2.3-8-.4.1.1-.4Zm-1,4.9-.1.3-.4-.1Z" fill="#ad5c44"/>
    </g>
    <path id="Path_11973" data-name="Path 11973" d="M332.5,214.5l-4.3,10a2.062,2.062,0,0,1-2.9,1.1l-9.7-4.3,8-14.4,8,4.8a2.209,2.209,0,0,1,.9,2.8Z" fill="url(#linear-gradient-3)"/>
    <path id="Path_11974" data-name="Path 11974" d="M227.9,101.6c8-4.9,27.7,6.1,44.2,33.7,15.7,26.1,24.5,38.9,36.4,45.9,13.1,7.7,18.7,10.8,20,18.9s-5.5,19.7-8.6,24.4-15.5,10-34.2-1.2c-18.8-11.1-26.5-38.3-33.8-54-7.4-15.7-20.5-30-22-42.1-1.7-14.3-11.3-19.9-2-25.6Z" fill="url(#linear-gradient-4)"/>
    <path id="Path_11975" data-name="Path 11975" d="M269.3,153.2c-.4-4.9-1.1-15.8-5.8-26.7-6.4-14.2-18.3-27.3-33.2-26.6-3.6.1-15,.3-21.4,26.6-.8,3.4-15.4,81.3-15.4,81.3h79.3c0-.1-3.1-50.8-3.5-54.6Z" fill="url(#linear-gradient-5)"/>
    <g id="Group_830" data-name="Group 830">
      <path id="Path_11976" data-name="Path 11976" d="M263.1,149l-.4,1.6,1.4-.3Zm3.3,1.9-.4,1.6,1.4-.3Zm1.1-4.8-.9-.3.1.8Zm-4.9,4.3-1.9.3,1,1.4Zm6.1,3.8-2.1.4,1.2,1.6Zm.7,4-2.2.3,1.1,1.6Zm-.9-8.1-1.8.5,1,1.2Zm-2.2-.6-1.8.5,1,1.4Z" fill="#f4a627"/>
      <path id="Path_11977" data-name="Path 11977" d="M266.7,152l-2.1.5,1.2,1.5Zm-.4-6.9-1.9.4,1,1.4Zm.4,1.9-1.8.4,1,1.4Zm-1.4,19.3-2.1.5,1.1,1.4Zm-.9-3.2.2-2.2-1.8.6Zm1.5,3,.2-2.2-1.8.6Zm-3.9-11-.4,1.8,1.7-.4Zm.2-7.7-.4,1.6,1.4-.3Z" fill="#f4a627"/>
      <path id="Path_11978" data-name="Path 11978" d="M261,168.1l-.4,1.8,1.6-.3Zm2.4-10.2-.1,1.3,1-.3Zm-.7-5.6,1,.2v-.9Zm-5.9,6,.5-.8-.9-.2Zm-1.9-4.2-1-.2.2.9Zm5.1-.3-.4.8h.8Zm-5.1-5.5.8.5.1-.7ZM250.4,167l-1.3-.2.4,1.1Zm5.8-.3-.4.9.9-.1Zm-5.9-6.3.9.6.2-.9Zm1.7,20.2-1.2-.1.2,1Zm5.8-.3-.4.9.9-.1Zm-5.9-6.4.9.7.2-.9Zm2.8,3.4-1.2-.1.3,1Zm5.9-.3-.5.9,1,.1Zm-5.8-6.3.8.7.1-1Zm6.3,11.9-1,.8,1,.5Zm4-4.2.3,1,.7-.7Zm-8.5-.5,1-.2-.5-.8Zm3.7-12.6-1,2.1,2.1-.2Z" fill="#f4a627"/>
      <path id="Path_11979" data-name="Path 11979" d="M256.3,163.2l.9.7.2-1Zm5.5,9.1v-1.2l-1,.6Zm0-5.1-.6-1.1-.7.9Zm3.6,4.6-1,.2.5.7Zm1.8-8.3v1l.8-.3Zm-5.9,4.9-1.7-.4.2,1.5Zm7.7.7-.7,1.2,1.2.1Zm-6.6-9.5.9,1,.5-1.1Z" fill="#f4a627"/>
      <path id="Path_11980" data-name="Path 11980" d="M262.8,172.8l-.6-1.5-1,1Zm4.3,5.7-1.3.2.7,1Zm2.5-10.3v1.2l1-.3Zm-8.8-9.3-.6-1.2-.6.9Zm3.7,4.5-1.1.2.6.8Zm1.7-8.4v1l.8-.3Zm.9,1.8-.5,1.8,1.7-.3Zm-1.3.4-1.7,2.2,2.4.7Zm.5-2.6-2.6.4,1.3,2.1Zm1.8,12.5-2.8.4,1.4,2.1Zm0,5.5-2.6.4,1.3,2.1Zm.1,5.2V175l-2.2.9Z" fill="#f4a627"/>
      <path id="Path_11981" data-name="Path 11981" d="M263.6,176.2l1.4-1.6-1.9-.5Zm1.2-4.6,1.3-1.6-1.8-.5Zm5.3,2.5-2.7.6,1.3,2Zm-4.3-13.2-.4,1.7,1.6-.3Zm2.1.4-.5,1.8,1.6-.3Zm-9.6-10.7-1.3-.2.4,1.1Zm2.4-.6-.1-.9-.7.5Zm-5.8,1.3-.4,1,.9-.1Zm13.5,12.4-1-.3.1.9Zm-5.4-9-.6.9.9.1Zm6.5,11.9-2.1.4,1.1,1.6Z" fill="#f4a627"/>
      <path id="Path_11982" data-name="Path 11982" d="M266.5,166.2l3.8,1.3-.2-3.5Zm.5,5.6,3.8,1.3-.2-3.7Zm-.7-10.6,3.7,1.3-.2-3.5Zm.8,17.5,3.8,1.4-.2-3.7Z" fill="#f4a627"/>
      <path id="Path_11983" data-name="Path 11983" d="M265.9,157.1l3.8,1.3-.3-3.6Zm-.2-4,3.7,1.3-.3-3.6Zm0-3.8,3.4,1.1-.3-3.2Zm4.6,26.2-2.1.4,1.1,1.6Zm-.7-2.3-.5,2.1,1.9-.4Zm-.3,5.8-.4,2,1.8-.4Zm-.9,2.8,1.6,1.4.5-1.9Zm-2.3-2.1v2l1.7-.8Zm1.3,3.2V185l1.6-.8Zm-6.2-9.8-.5-1.2-.8.9Zm3.7,4.5-1.1.2.5.7Zm1.8-8.4-.1,1,.9-.3Zm-6.4-6.5-.5-.9-.6.7Zm-1.6-2.3-.9-1.5-.9,1.3Z" fill="#f4a627"/>
      <path id="Path_11984" data-name="Path 11984" d="M259.7,165.5l-.5-1-.5.8Zm1-2.5-.5-.9-.5.8Zm.5,8.9-2.1.5,1.2,1.4Zm-2.9-.8-.1.9.7-.4Z" fill="#f4a627"/>
      <path id="Path_11985" data-name="Path 11985" d="M254.9,159.9l-.7-1.2-.7,1Zm4.5,4.9-1.2.3.6.8Zm1.3-9.6.1,1.2.8-.5Zm2.3-24.1-.1,1.5,1.2-.5Zm3,3-1.6.6,1,1.1Zm1.2,4.2-1.5.4,1.1,1.3Zm-3-8.3-1.4.9,1.3.9Zm-2,.3-1.5.9,1.3.9Z" fill="#f4a627"/>
      <path id="Path_11986" data-name="Path 11986" d="M264.1,132.2l-1.5.5.9,1.2Zm-1.5-3.9-1.4.8,1.1.9Zm1.9,16.7-1.9.3,1,1.4Zm-.7-1.9v-1.9l-1.5.6Zm1.2,2v-1.9l-1.5.7Zm-3.8-9.1-.2,1.4,1.2-.4Zm-1.2,8.7-.6,1.9,1.8-.1Z" fill="#f4a627"/>
      <path id="Path_11987" data-name="Path 11987" d="M261.4,146.4l-.6-.9-.5.8Zm3.3,3.7-.8.3.5.6Zm1.2-7.4v.9l.7-.2Zm-4.5,5.2-1.4-.2.3,1.3Zm6.8-.1-.5,1.1h1.1Zm-6.6-7.7,1,.8.2-1Zm.2,10.8-.6-1.2-.8.9Zm4,4.9-1.1.2.6.9Zm1.9-9.1v1.1l.9-.4Zm2.6,30.9-2.1.4,1.1,1.6Zm.9,4-2.1.5,1.1,1.5Zm-4,8.4-2.1.4,1.2,1.6Zm-.9-3.4.2-2.2-1.8.7Zm1.5,3.2.2-2.2-1.8.6Zm-4.2-10.9-.4,1.8,1.6-.5Zm-.8,12.9-.4,1.9,1.6-.4Zm2.1-10.1-.1,1.2,1-.3Zm-.5-5.8.9.3v-.9Zm-6.2,6,.7-.8-.9-.2Zm-3.3-4-1.1-.2.2,1.1Zm5.9-.6-.4,1h.9Zm-6.1-6,.9.6.3-1ZM252.3,191l-1.3-.1.4,1Zm5.8-.5-.4,1h.9Zm-6-6,.9.5.1-.9Zm2,20.1-1.2-.2.3,1.1Zm5.8-.6-.4,1h.9Zm-6-6,.8.6.3-1Zm2.9,3.3-1.3-.2.4,1.1Zm5.8-.5-.4.9h.9Zm-6-6.2.8.6.2-.8Zm6.5,10.7-1,.7,1,.6Zm3.9-4.4.3,1,.6-.7Zm-8.7-.3,1.1-.2-.5-.7Zm3.8-11.6-.8,2.2,2-.2Zm-3.9-1.9.8.6.2-.9Z" fill="#f4a627"/>
      <path id="Path_11988" data-name="Path 11988" d="M263.7,196.1l-.1-1.2-1,.5Zm0-5.2-.7-1.1-.6,1Zm3.6,4.5-.9.3.5.7Zm1.7-8.3v1l.8-.4Z" fill="#f4a627"/>
      <path id="Path_11989" data-name="Path 11989" d="M263.1,192.2l-1.5-.3.2,1.4Zm7.9.4-.7,1.2,1.2.2Zm-6.9-9.2,1,1,.4-1.2Zm.2,13.3-.7-1.4-.8,1.1Z" fill="#f4a627"/>
      <path id="Path_11990" data-name="Path 11990" d="M268.9,202.2l-1.3.3.8,1Zm2.1-10.4-.1,1.3,1.1-.5Zm-8.4-9.4-.5-1.2-.8.9Zm3.7,4.5-1.1.2.6.8Zm1.7-8.4-.1,1,.9-.3Zm.8,1.8-.3,1.8,1.6-.3Zm-1.1.5L266,183l2.3.6Zm.4-2.7-2.7.6,1.4,1.9Zm1.7,12.5-2.7.7,1.4,2Zm.3,5.5-2.7.6,1.4,2Zm-.1,5.4-.1-2.8-2.3,1Zm-4.4-1.5,1.3-1.8-1.8-.3Z" fill="#f4a627"/>
      <path id="Path_11991" data-name="Path 11991" d="M266.8,195.3l1.2-1.8-1.9-.3Zm5.2,2.4-2.7.5,1.5,2Zm-4.3-13.3-.4,1.8,1.5-.3Zm2.1.5-.5,1.7,1.6-.3Zm.4,2.4-.9-.4.1.9Zm-5.7-8.9-.6,1,1,.1Zm6.9,11.7-2.1.5,1.2,1.5Z" fill="#f4a627"/>
      <path id="Path_11992" data-name="Path 11992" d="M268,189.2l3.8,1.2-.4-3.6Zm.5,6.3,3.7,1.2-.3-3.6Zm-.8-11,3.7,1.4-.2-3.7Zm1.3,17.7,3.6,1.4-.1-3.5Z" fill="#f4a627"/>
      <path id="Path_11993" data-name="Path 11993" d="M267.5,180.4l3.9,1.4-.4-3.6Zm4.5,18.7-2.1.5,1.1,1.5Zm-1.3-3.5-.4,2.1,1.9-.6Zm.5,6.9-.3,2.2,1.8-.6Zm-.8,2.9,1.7,1.4.5-1.9Zm-2.4-2,.2,2,1.6-.9Zm1.3,2.1.1,2.1,1.6-.8Zm-6.2-8.7-.5-1.2-.7.9Zm3.8,4.4-1.1.3.7.7Zm1.6-8.4v1.1l.8-.4Zm-6.3-6.3-.6-.9-.5.8Zm-1.7-2.2-1-1.5-.8,1.3Z" fill="#f4a627"/>
      <path id="Path_11994" data-name="Path 11994" d="M261.6,189.2l-.6-.8-.5.7Zm.9-2.4-.5-.8-.5.7Zm.6,8.9-2.1.4,1.2,1.5Zm-3-.8-.1.9.8-.4Z" fill="#f4a627"/>
      <path id="Path_11995" data-name="Path 11995" d="M256.7,183.9l-.9-1.3-.6,1.2Zm4.5,4.7-1.2.3.7.8Zm1.1-9.7v1.3l1-.5Zm.8-5.2-.7-1.4-.8,1.1Zm4.6,5.7-1.3.3.7.8Zm2.1-10.5v1.3l1-.4Zm-9.6-30.3-.6-.8-.4.8Zm3.4,3.4-.9.3.6.6Zm.6-7v.9l.8-.3Zm1.4,2.3-.2,1.6,1.3-.4Zm-1.3.4-1.3,2.1,2.1.3Zm0-3-2.2.7,1.3,1.5Zm2.4,10.9-2.3.6,1.1,1.8Zm-2-4.8-.2,1.7,1.4-.5Zm1.8.3-.2,1.6,1.4-.4Zm.5,1.8-.9-.2.1.8Z" fill="#f4a627"/>
      <path id="Path_11996" data-name="Path 11996" d="M261.6,135.1l-.4.8.7.1Zm6.6,10.1-1.9.4,1,1.4Z" fill="#f4a627"/>
      <path id="Path_11997" data-name="Path 11997" d="M265.1,144.6l3.4,1-.5-3.1Zm-.4-3.4,3.4.9-.6-3.1Zm-.9-4.1,3.2.7-.6-3Zm-1-3.7,3.2.5-.8-2.8Zm-.6-3,2.9.3-.8-2.4ZM260,142.5l-.4-.7-.5.7Z" fill="#f4a627"/>
      <path id="Path_11998" data-name="Path 11998" d="M259.6,145l-.5-.8-.4.7Zm.7-2.1-.3-.8-.6.6Zm-1.9-24.4.2,1.3.9-.7Zm-2.1-3-.7.2.4.5Zm1.8,4-.7,1,1,.2Zm.6,4-.7.9,1,.3Zm2.5,3.1-.6.7.9.3Zm-.9,2.9-.9-.5-.1.9Z" fill="#f4a627"/>
      <path id="Path_11999" data-name="Path 11999" d="M260.2,126.8l-.8-.4v.8Zm-2.5-7.6-1-.4v.9Zm-1.6-4.2-.5-.3v.6Zm-1.7-.8.4-.5-.6-.1Zm-.6-.8.3-.4-.5-.1Zm4.4,7.4-1.1,1,1.2.5Zm3.1,4.1-1.5-.4.1,1.3Zm-.8-3-1.5-.3.3,1.2Z" fill="#f4a627"/>
      <path id="Path_12000" data-name="Path 12000" d="M257.9,121.4l2.9-.2-1.3-2.3Z" fill="#f4a627"/>
      <path id="Path_12001" data-name="Path 12001" d="M259.2,123.8l2.8-.3-1.2-2.3Z" fill="#f4a627"/>
      <path id="Path_12002" data-name="Path 12002" d="M260.3,125.9h2.8l-1.1-2.5Zm1,2.4h2.9l-1-2.5Zm-4.1-9.7,1.7-.2-.9-1.5Zm-.5-2.9v1.5l1.3-.5Z" fill="#f4a627"/>
    </g>
    <g id="Group_831" data-name="Group 831">
      <path id="Path_12003" data-name="Path 12003" d="M233,161.7l1.4-1-1.3-.7Zm-1.7-4.5,1.1-1.1-1.3-.4Zm4.6,2,2,.2-.8-1.7Zm-1.6-1.6-1.2,1.5,1.8.4Zm-.4-2,1.8.1-.5-1.6ZM227.4,170l2-.1-.7-1.5Zm3.7-16.2,1.8.7-.1-1.7Zm2.3-4.2,1.7,1.2.3-1.7Z" fill="#dd6d22"/>
      <path id="Path_12004" data-name="Path 12004" d="M229.6,156.6l1.7.8.2-1.6Zm1.7,1.3,1.6,1,.3-1.8Zm.7-2.2,1.8.6-.2-1.7Zm-1.2,5.3,1.9.3-.4-1.7Z" fill="#dd6d22"/>
      <path id="Path_12005" data-name="Path 12005" d="M229.8,160.9l1.9.6-.2-1.8Zm6.5-5,.9-1.5-1.5-.1Zm1.2-8,1.2-1.1-1.5-.4Zm.2,5,.9-1.3-1.5-.2Zm1.2-11.4.7-1-.5-.4Zm-1.5,2.7,1.3-1.1-.9-1Zm1.7,4.5.6-1.5-1.5.2Zm-2.7-1,.5-1.7-1.4.2Zm-4.2,15,1.5-.8-1.1-.9Zm3.5-9,.6-1-1-.1Zm-1.5,5.1-.8-.7-.3.8Zm7.2-2.9-.9.5.8.4Zm-.5,12,1.1.4-.1-.9Zm-5.2-.5.5-.8-.8-.1Zm4.3,6.4-.7-.6-.3.8Zm-2-17.9-.3,1.1,1-.2Zm.2-5.2.8.4v-.9Zm-6.2,4.6.7-.6-.8-.3Zm1.5-3.5.9-1.2-.6-1Z" fill="#dd6d22"/>
      <path id="Path_12006" data-name="Path 12006" d="M233.9,153.1l2.1-1.4-1.9-1.3Zm-.9,1.3,2.5.9-.3-2.3Zm3.7-3.7,1.4-.8-1.2-.9Zm-1.1-1.9,1.5-.8-1.1-.9Zm3.9,10.1.9.5.1-1Zm-3.6,3.2-.6.9h.9Zm5.2-3.9.7-.7-.9-.2Zm-8.3,29.7.8-.7-.8-.3Z" fill="#dd6d22"/>
      <path id="Path_12007" data-name="Path 12007" d="M216,197.7l.9-.4-.7-.5ZM235.9,155l.6-.7-.7-.3Zm-.8-2.2-2.5-2.6-1.6,3Zm-2.3,3.6-2.1-3-1.7,2.9Zm4.9-10.4,1.8.3-.5-1.7Zm-.3-.7-.7-1.5-1.1,2ZM240,144l-.9-.8-.2.9Zm-13.1,35.2,1.3-.7-1.1-.9Z" fill="#dd6d22"/>
      <path id="Path_12008" data-name="Path 12008" d="M236,148.7l-1.2-1.8-1.3,2.1Zm-5.1,10.1-1.9-2.6-1.5,2.7Zm-1.3,3.2-2.3-2.9-1.5,2.8Z" fill="#dd6d22"/>
      <path id="Path_12009" data-name="Path 12009" d="M228.4,164.6l-2.5-2.7-1.4,2.6Zm8.7-9.2.1,1.7,1.3-.6ZM233,162l2,.5-.4-1.7Zm-10.4,14.4,1.9.5-.3-1.8Z" fill="#dd6d22"/>
      <path id="Path_12010" data-name="Path 12010" d="M226.5,175.5l1.8.4-.3-1.6Zm5.9-13.5-.9,1.6,1.6.2Zm-7.8,2.5-.9,1.7,2.8.2Zm3.8.9-1.1,1.5,1.8.3Zm1.1-2.7-1,1.5,1.7.3Zm3,4.1.1-1.2-1,.4Zm.7,5.1-.9-.2.1.7Zm5.3-5.8-.6.9.9.1Zm-11.1-.1.1-1.1-.9.3Zm.8,5.3-1-.4.2.9Zm5.3-5.9-.6.9.8.1Zm4.3,11.2,1.1-.1-.5-.8Zm-5.1,1.6.2-1-.9.3Zm6.5,4.2-.9-.3.1.8Zm-9.3-13.9,1.3-1.7-2-.3Zm2,2.1,1.2-1.6-1.6-.3Z" fill="#dd6d22"/>
      <path id="Path_12011" data-name="Path 12011" d="M225.2,168.4l1.2-1.6-1.8-.3Zm8.7-3.2,1.1-1.6-1.8-.3Zm-8.6,16,1.1-1.6-1.6-.3ZM243.9,163l-.7-.6-.1.8Zm-8.7.2-.2,1.1,1-.3Zm-.6-5.2.9.3v-.9Zm-5.5,5.3.6-.8-.8-.1Zm14.5-18.7.9.8.3-1Zm-4.7-2.3.8-.6-.8-.4Zm1.6,7.7-.3-1-.6.6Zm3.4-1.3.9.8.3-1Zm-4.7-2.4.8-.6-.7-.4Zm1.7,7.6-.3-.8-.7.6Zm-1.6-14.1,1.6,1.1.3-1.7Zm3.9-1.8.7-.7-.8-.2Zm.5,4.9,1-1.3-1.5-.2Zm-.3-11.4.6-.8-.6-.3Zm-1.6,2.8,1-.7-.6-.7Zm3.3.6.3-.9-.8.1Zm-3.9,2.4.3-.9-.8.1Zm-.5,11.7.5-1-1-.1Zm-1.6,5.1-.8-.7-.2.8Zm7.2-3.1-.9.5.8.5Zm-2.3-5.1-.3,1.1,1-.2Zm.3-5.2.7.4.1-.9Zm-6.2,4.6.6-.6-.8-.3Zm1.6-2.1,2.2-1.4-1.9-1.3Zm1.9,2.9-.1-2.6-2.1.9Zm1-5.3,1.4-.9-1.3-.9Zm-1.3-1.9,1.1-.6-.8-.6Zm2.1-2.5,1.1.1-.3-1Zm-1.3-.9-.5-.8L241,136Zm2.5-1.9-.7-.6-.2.8Zm-3.8,5.4-.8-1.2-.8,1.4Zm6.5.4.1-1.1-.9.2Zm.4,5.3-.8-.3v.7Zm3.1-3.5-.6.8.9.1ZM244,128.7l-.6.8.9.2Zm-.6,3.3-1.1.4.8.7Zm-.5,4.2-1.1.4.7.7Zm3.7,13,.8.6.3-1Zm-4.8-2.6.8-.5-.6-.3Zm1.7,7.7-.4-.8-.5.7Zm-8.2,21.5-.6,1,.9.1Zm1.7-5,.6.6.3-.7Zm-7.3,2.9.8-.6-.8-.4Zm3.5-8.1-.5,1.1.9.1Zm1.8-4.9.6.6.3-.7Zm-7.4,2.9.9-.6-.8-.5Zm1.4-1.4,2.5.8-.2-2.2Zm-.5-2.4,1.8.3-.3-1.6Zm1.4,4.6.9,1.5.7-1.2Zm11-3.4.4.8.5-.7Zm1.3,4.3.6,1,.7-.9ZM238,161l1-.3-.5-.7Zm-1.1,8.6v-1l-.8.6ZM230.4,180l1.2.7.2-1.2Zm-5.6-1.9.8-.7-.9-.3Zm3.2,8.2-.6-1-.6.8Zm.1-18.3-.4-1.6-1.1.9Zm-2.9,2.4,1.2-1.2-1.3-.6Z" fill="#dd6d22"/>
      <path id="Path_12012" data-name="Path 12012" d="M226.8,170.1l-.4-1.7-1,.9Z" fill="#dd6d22"/>
      <path id="Path_12013" data-name="Path 12013" d="M225.2,168.7l-1,2.4,2.3-.1Zm-1.4-2.4-1,1.9,2.7.4Z" fill="#dd6d22"/>
      <path id="Path_12014" data-name="Path 12014" d="M225.9,170.9l1.9.8-.1-1.8ZM224,173l1.7.9.1-1.8Zm2.7.6,1.3-.9-1.2-.7Zm-2.5-1.4,1.1-1.2-1.3-.6Z" fill="#dd6d22"/>
      <path id="Path_12015" data-name="Path 12015" d="M229.8,168.8l.3.9.7-.7Zm-4.7,2-2.3-2.8-1.4,2.8Zm-5.5,10.5.7-.7-.8-.5Zm-.3-1.7,1.3.8.2-1.3Z" fill="#dd6d22"/>
      <path id="Path_12016" data-name="Path 12016" d="M220,177.4l1.4.7v-1.5Zm.1,3.2,1.2.5.1-1.1Zm4.5-3.4-1.3,1.1,1.4.7ZM217,187.8l-1.5-1-.3,1.6Z" fill="#dd6d22"/>
      <path id="Path_12017" data-name="Path 12017" d="M222.8,178.8l-1.4,1.2,1.5.6Zm2.6-5.3-1.3,1.2,1.5.6Zm3.6,1.7-.2,1,.8-.1Zm.1-4.8.8.5v-.8Zm-5.5,4.4.6-.7-.9-.2Zm5.8,7.4-.3,1,.9-.3Zm-.2-4.8.8.3V177Zm-5.3,4.5.6-.6-.8-.1Zm6-2.1-.2,1.1.8-.2Zm.4-4.8.7.5.2-.7Zm-5.8,4.2.6-.6-.7-.3Zm-3.6,0,1.2-.6-1-.8Z" fill="#dd6d22"/>
      <path id="Path_12018" data-name="Path 12018" d="M221.5,178.3l2-.4-.9-1.4Z" fill="#dd6d22"/>
      <path id="Path_12019" data-name="Path 12019" d="M222.8,177.7l1.1-.8-1.1-.6Zm-1.2-2.4,1.2-.9-1.2-.7Zm1.1-1.2.5.8.4-.7Zm1-.9-2.2-2.3-1.4,2.7Zm-1.6,2.8-1.8-2.1-1.1,2.4Zm-.8,2.4-2.2-1.9-.8,2.3Zm-1.1,2.1-1.8-1.6-.8,2Zm2.6,2.5,1.3-1-1.2-.6Zm-3.2-.1,1.2-1.1-1.5-.6Z" fill="#dd6d22"/>
      <path id="Path_12020" data-name="Path 12020" d="M220.4,182.4l1.3-1-1.4-.7Zm.2,2,1.7.9.1-1.7Zm-2,1.6,1.4,1.2.5-1.7Zm2.3,1.3,1.4-.8-1.1-.8Zm-2.2-2.7,1.2-1.1-1.3-.7Zm5.1,1.8-.6.6.8.3Z" fill="#dd6d22"/>
      <path id="Path_12021" data-name="Path 12021" d="M220.3,183.7l-2.7-2.8-1.1,2.5Zm-.8,3-1.6.8,1.3,1Zm2.6,2.8-.4,1h.8Zm1.2-4.6.7.6.2-.8Zm-6.4,3.1.7-.6-.7-.4Zm4.1,8.5-.5.9.9.2Zm1.9-4.4.6.7.3-.7Zm-6.8,2.1.8-.4-.6-.5Zm6.6-1.3-.5.9.9.2Zm1.9-4.4.6.6.3-.6Zm-6.7,2,.7-.3-.5-.5ZM242.1,170l1.1.3-.2-1Zm-5.3,0,.4-.7-.9-.1Zm5,6-.7-.6-.3.9Zm-7.7,15.3.7-.6-.9-.3Zm5.8-8.7,1.2-.1-.5-.8Z" fill="#dd6d22"/>
      <path id="Path_12022" data-name="Path 12022" d="M234.9,183.9l.3-.8-.8.2Zm6.3,4.6-.8-.4v.7Zm-13.9-1.6,1.3-1.6-1.7-.4Zm-8.5,5.2,1.7-1.1-1.6-.8Zm-2,4.5,1.6-1.2-1.4-.9Zm.9-4.4v2l1.6-.8Zm1.8-5.1.4,1.9,1.3-1.2Zm-5.7,18.6V207l1.2-.4Zm-.5-.3,2.3-1.6-2.3-1.2Zm12.1-18.8,1.4-1.6-1.8-.4Zm-11.8,11.9,2.6-2.6-2.3.1Zm-.2,3.9,2.3-1.5-2.2-1.7Zm2-2,.4-1.2-1.3.1Zm.3-5.2.5-1.2-1.4.1Zm.6-2.6.4-1.2-1.4.1ZM237,179l-.6,1.1,1,.1Z" fill="#dd6d22"/>
      <path id="Path_12023" data-name="Path 12023" d="M238.2,174.1l.7.5.3-.8Zm-7.1,3.2.8-.6-.7-.4Zm1.4,8.5,1.2.7.2-1.1Zm-5.4-2.1.8-.7-1-.4Zm2.7,8.4-.4-1.1-.6.8Zm1.3-4.6-.2,1,.9-.1Zm.1-4.7.7.4v-.8Zm-5.5,4.4.6-.6-.7-.2Zm6-4v1l.8-.3Zm0-4.9.7.4v-.8Zm-5.4,4.7.5-.7-.7-.2Zm-4.7,6.5,1.6,1,.3-1.7Zm.2,3,1.5-.8-1.1-.9Zm-7.2,6.3,1.5-.5-.9-1.1Zm1.5-3.4,1.6-.5-.9-1.2Zm8.9-3.5-.7.6.8.3Zm-1.9,3.1-.5.9h1Zm1.4-4.6.6.5.3-.7Zm-6.5,2.7.7-.5-.6-.4Zm5.2,8-.4.9.9.1Zm1.5-4.5.6.5.3-.8Zm-6.6,2.7.7-.5-.5-.4Zm-.5-6.3.4-1.3-1.1.1Zm-1.7-2.7.8-1.2-1.3-.2Z" fill="#dd6d22"/>
      <path id="Path_12024" data-name="Path 12024" d="M216.5,186.8l-.1.9.8-.3Zm2.1-1.6-2.1-1.6-.7,2.7Zm-2.5,8.9-1.7-1.7-.5,3.3Zm1.4-3.2-2.5-1.4-.3,2.6Z" fill="#dd6d22"/>
    </g>
    <path id="Path_12025" data-name="Path 12025" d="M241.6,117.9s9.3,12.4,11.4,40.9c1.5,20.4,2.7,48.9,2.7,48.9H198.2s-4.1-24.6,6.8-48.4,36.6-41.4,36.6-41.4Z" fill="url(#linear-gradient-6)"/>
    <path id="Path_12026" data-name="Path 12026" d="M199.4,245.6l-10.8,2a2.111,2.111,0,0,1-2.5-1.8l-1.9-10.4,16.4-1.2.5,9.3a1.779,1.779,0,0,1-1.7,2.1Z" fill="url(#linear-gradient-7)"/>
    <path id="Path_12027" data-name="Path 12027" d="M235.8,102c8.9,5.1,16,18.3-1.3,45.3s-21.3,42.8-21.3,60.1S215.9,229,210,235s-20.9,6.2-26.7,6-16.7-.8-19.1-25.8c-2.4-25.1,5.9-52,14.1-68.5s17.5-30.8,26.5-39.4c10.7-10,20.5-11.1,31-5.3Z" fill="url(#linear-gradient-8)"/>
    <g id="Group_832" data-name="Group 832">
      <path id="Path_12028" data-name="Path 12028" d="M167.1,223.5l1-.4-.8-1Zm-.3-3.7-.2-.6-.5.4Zm-1,4.8.9-1-1.4-.4Zm2.7-2.1.3-1.2-1.5.3Zm.7,2.5.1-1.3-1.3.3Zm-1.2-3.7.2-1.4-1.4.3Zm8.4-2.3.8-.3-.8-.6Zm-11.5.9.3,2.5,2.3-1.4Zm2.3-11.8,1.1.1-.5-1.1Zm-1.9.6h1.1l-.4-1.1Zm-.4-2.4,1.1.1-.4-1.1Zm.7,1.1h1.1l-.5-1.2Zm2.7,2.9.6-1.2-1.4-.1Zm-2.8,1.5.6-1.2-1.5.1Zm-.3,2.8.5-1.2-1.5-.1Zm-1.3-8.4v1.6l1.8-.9Zm3,.2.8-1.1-1.5-.1Zm-.5,3.9.7-1.2h-1.5Zm0-5.8.6-1.3h-1.4Zm2.6,14.4.3-1.2-1.4.3Zm-.7-4.3-1.2.1.5,1.3Zm-.2,2h-1.2l.5,1.4Zm-1.6-3.7h1l-.6-1.2Zm.3-8.1h1.1l-.5-1Z" fill="#ffe05f"/>
      <path id="Path_12029" data-name="Path 12029" d="M164.9,204.7h.9l-.4-1.1Zm3.3,12.8h.8l-.3-.8Zm-.8-4.9.1.6.6-.4ZM173,215l-.5.3.5.5Zm-3.6,3.9,1.3-.5-1.1-1.1Zm2.7-4.9.3.4.4-.5Zm-1.6-2.7.5.6.3-.8Zm.3-7.6.2.7.5-.6Zm4.1-2.8-.7.6.7.2Zm-1.9,7.5-.5.3.6.4Zm1.8-1.1-.4-.4-.3.6Zm-.1-2-.4.5.8.1Zm2.3,1.5-.3.6h.7Zm-12.1,6.7,1.1.1-.5-1.3Z" fill="#ffe05f"/>
      <path id="Path_12030" data-name="Path 12030" d="M165.9,214.6l1.4-.8-1.4-1.2Zm1.3-2.6.7-1.5-1.9.1Zm0,11.3.4-1.6-1.8.5Zm-1.4-7.3,1.2-.1-.6-1.1Zm-1,.8,1-.2-.6-1Zm5.1-10.9-.6-.3.1.7Z" fill="#ffe05f"/>
      <path id="Path_12031" data-name="Path 12031" d="M166,217.1l-.1-.6-.6.3Zm1.5-6,.5-.3-.5-.4Zm-1,9,.2-1.1-1.4.2Z" fill="#ffe05f"/>
      <path id="Path_12032" data-name="Path 12032" d="M164.5,217.2l.3,2.4,2.3-1.4ZM164,214l.4,2.3,2.2-1.3Zm-.1-3,.3,2.4,2.3-1.3Zm0-3.1-.1,2.6,2.5-1.1Zm-.1-4.1.1,2.4,2.4-1.1Zm7,10.4-.5-.3-.1.7Zm-1.8-.3-.9-.6-.1,1.2Zm.2-3.2-.4-.4-.3.9Zm2.7,5.1-.6-.4-.1.7Zm-3.2-15.3.8.4V200Zm-2.2-7.3.5.6.4-.7Zm1.8-2.6-.4.4.6.3Zm-1.2-3.5-.4.5.7.2Zm-.8-3.1-.4.5.6.2Zm4,14.1-.6-.3v.8Zm-2.3-.7-.5-.3-.2.6Z" fill="#ffe05f"/>
      <path id="Path_12033" data-name="Path 12033" d="M166.1,195.1l1,1,.3-1.6Zm5.4-.7-.2.7h.6Zm-4.5-8.6-.3.6.7-.2Zm-.8-2.7-.2.6.7-.1Zm3.6,12.1v-.5l-.6.3Zm-1.6-1.1v-.6l-.6.3Zm2.7,8.2-.1-.6-.7.3Zm-.3,12.2-.6-.3v.7Zm-6-20.2h.7l-.2-.8Zm1.1,3.1.7-.8-1.1-.3Zm-1,2,.5-.8-1.1-.3Zm-.2-6.1.9-.4-.7-.7Zm3.3,6.4-1.2-.2.4,1.2Zm-.3,2.3-1.1-.1.4,1.2Zm2.7,1.2-.4-.4-.3.8Zm-1.9,4,.2-.4-.7-.1Zm-2.9-4.8.6.1-.2-.7Zm-.1-3.7h.8l-.4-.8Z" fill="#ffe05f"/>
      <path id="Path_12034" data-name="Path 12034" d="M165.3,200l1.3-.6-1.2-1Zm.2.5h.9l-.2-.8Zm-1.4,1,1.1.1-.5-1Zm1.7.5v-.7l-.6.4Z" fill="#ffe05f"/>
      <path id="Path_12035" data-name="Path 12035" d="M163.9,201.5l.1,2.2,2.2-.8Zm0-2.5v2l2-.8Zm.5-2.2-.2,1.8,1.8-.7Zm.5-6.2-.1,1.6,1.6-.6Zm-.5,4.1-.1,1.7,1.7-.6Zm1.2-6.9.3.6.4-.6Zm1.1,2.4.8.6.3-1.3Zm-1.1-4.6,1,.6.1-1.2Zm.5,5.2.5-.7-1-.2Zm-.9-2.2-.2,1.3,1.4-.5Zm.2-2.6v1l1.1-.3Zm5.5,43.8.9-.4-.8-.8Zm-1.7,1.4,1.1-.5-.9-.8Zm-1.3-2,1-.3-.7-.9Zm1.1.6,1-.4-.9-.9Zm3.9,1.2-.1-1.2-1.3.7Zm-1.8,2.8v-1.3l-1.3.7Zm1.6,2.6-.2-1.3-1.2.7Zm-5.4-6.8.5,1.6,1.4-1.3Zm2.6-1.2.1-1.3-1.4.5Zm1.4,3.7-.2-1.3-1.2.6Zm-2.7-5.3v-1.4l-1.2.6Zm8.2,8.6-.9.8,1.2.7Zm-3.8-1.1.9-.8-1.1-.5Zm-3.8-7.4,1-.4-.9-.8Zm-2,.7,1-.3-.9-.9Zm8.2,3.3.7.3v-.9Zm-3.1-6.3.6.5.4-.8Zm2.9-4-.3.4.7.2Zm.9,6.5-.3.5.7.3Zm1.4-1.1-.6-.2.1.7Zm-1-1.9-.1.7.7-.2Z" fill="#ffe05f"/>
      <path id="Path_12036" data-name="Path 12036" d="M179.5,224.7l-.1.6.7-.2Zm-5.4-2.5.5-.4-.6-.4Zm-1.3,1.2.4.4.2-.7Zm-2.9-.9.6.3.2-.6Zm1.5.6.3-.6H171Zm-.2,3.1.6-1-1.4-.1Zm3,3.2.3-1.2-1.3.3Zm-4-5.5.2-.5-.7-.1Zm1.7,11.7.9-.6-1.1-.7Zm1.5.3.8-1.6-1.9-.1Zm-.2-2.8-.3-1.6-1.6.9ZM175,237l.8-.8-1.1-.4Zm-.1,1.9.8-.8-1.1-.4Zm-2.5-12.1-.6.1.3.6Z" fill="#ffe05f"/>
      <path id="Path_12037" data-name="Path 12037" d="M175.8,237.7l-.5-.4-.2.7Zm-3.2-5.4.2-.6-.6-.1Zm-.5,4.8,1.8,1.5.8-2.5Zm-2.4-2.9,1.4,1.9,1.3-2.4Zm-1.7-2.8,1.2,2.3,1.5-2.3Zm-1.5-4.1.7,2.3,2.1-1.7Zm11.2,5.8-.5-.1.2.6Zm-1.7.6-.9-.1.3,1.2Z" fill="#ffe05f"/>
      <path id="Path_12038" data-name="Path 12038" d="M174.2,231.1l-.7-.2.2.7Zm3.5,2.3h-.6l.4.6Zm-9.2-9.2-1.1.3.9,1Zm3.2.1-.7-.2.1.7Z" fill="#ffe05f"/>
      <path id="Path_12039" data-name="Path 12039" d="M171.4,228.7v-.5l-.6.2Zm-4.4-3.3.4-.1-.3-.6Zm.8.5.9-.4-.6-.7Zm-.9,1.4.9-.4-.7-.8Z" fill="#ffe05f"/>
      <path id="Path_12040" data-name="Path 12040" d="M168.5,227.1l-.2-.5-.4.5Zm-2.6-2.1.5,1.7,1.7-1.3Zm12,15.3-.2-1.3-.9,1Zm.9-2.9-1-.8-.3,1.4Z" fill="#ffe05f"/>
    </g>
    <g id="Group_833" data-name="Group 833">
      <path id="Path_12041" data-name="Path 12041" d="M240.7,123.7l-.5-.6-.4.9Zm-4.4,5.6-1.2-1.1-.5,1.9Zm4.3-.2-1.3-1-.3,1.7Zm-1.3,1.6-1.5,1.2,1.9,1Z" fill="#ea8f2d"/>
      <path id="Path_12042" data-name="Path 12042" d="M241.6,126.4l-1.1,1,1.7.7Zm.1,5.3-1.6.9,1.6,1.3Zm-3.4-2.7-1.7.8,1.5,1.4Zm1.4-1.2-1.3,1.2,1.9.8Zm-1.2,6.1-1.6.9,1.5,1.2Zm0-7.9-1.6-.3.4,1.7Zm-2.1,6.5-1.3-.9-.4,1.7Zm7.9-9.5-.9-.6-.2,1.3Zm-6.7,6.2.2-.9-1,.1Zm4.3-14.7,1-.1-.4-.9Zm-13.6,18.7.2-1-1,.5Zm15-17.1-.6-.8-.5.8Zm-5.9,8.1.9.7.4-1.2Zm5.1-5.1-.9-.1.4.9Zm-2.1,2.1.5.8.8-.8Zm.7,5.2-.7-.5-.2,1.1Z" fill="#ea8f2d"/>
      <path id="Path_12043" data-name="Path 12043" d="M244,125.1l-1.7-.2.5,1.7Zm-11.7,5-.4,1h1.2Zm.8,1.1.7.7.2-.9Zm-2.4-2.2-.9-.3.2,1Zm6.9-3.2h-1l.5.9Zm5.1,5.6.6-1.9-1.8.6Zm-2,4.8,1.1-2.6h-2.7Zm2.5-16.1.7.6.2-.9Zm-5.5-2.4.6.4.3-.9Zm5.8-2.1.7.5.2-1Zm-8.4,22.3-1.4-.8-.3,1.6Zm2.7-.2-1.3-.8-.3,1.6Zm-2.3,5.7-.4.9.9.1Zm-.7-10.1-1.6,1,1.6,1.2Zm6.3-3.1-1.2.6,1.1.9Zm-.9,5.3-1.1-.7-.2,1.5Zm-1.7-3.3-1.1-.7-.2,1.5Zm-.7,6.1-1.6.9,1.7,1.2Zm-1.7.4-1.7.8,1.6,1.3Zm1.1-3.8-1.5,1,1.6,1.2Zm-3,7.4-1.7.9,1.5,1.3Zm1.4-1.5-1.7.9,1.6,1.2Zm-2.7-1.6-1.2-.9-.4,1.6Zm4.8-10.6-.8-.6-.4,1.1Zm-2.5,8.2.4-.7-1.1-.1Zm-2.7-9.9.9.1-.3-.9Zm3.3-1.9-.7.7,1.1.4Zm-3.4,7.4-.9-.5-.1,1Zm-7.9,4.1.2-.8-1,.1Zm3.7-.5-.6.8,1.2.2Zm1.6,1.5.5.8.5-.8Zm-2.8-5.2-.8-.5-.1,1Z" fill="#ea8f2d"/>
      <path id="Path_12044" data-name="Path 12044" d="M239,139.6l1.4-3-2.6.1Zm-2.2,3.8,1.7-2.9-2.7.2Zm-13.3,13.1-1.3-.9-.4,1.8Zm2.8.5-1.2-.9-.5,1.6Zm-1.3,3.4-1.2-1-.3,1.8Zm-.1-1.7-1.3-1-.3,1.8Zm-1.2-5.7-1.6.9,1.7,1.3Zm4.7.3-1.6.8,1.7,1.4Z" fill="#ea8f2d"/>
      <path id="Path_12045" data-name="Path 12045" d="M231,150.5l-1.7.8,1.6,1.3Zm-5.2,11.2,1.2-2.1-2.9-.3Zm-3.2-3-1.8.9,1.7,1.2Zm3.5-4.4-1.4.8,1.5,1.4Zm-4.7,7.3-1.5,1.2,1.7,1Zm11.9-22-1,1.7,2.2.2Zm-5,8.4,1.4,1.2.6-2.1Zm2.6-2.8,1.3,1.1.7-1.9Zm-2.7,5.8-1.3-1-.3,1.9Zm-7.4,9.7-1.3-.9-.1,1.8Zm3.1,1.7-1.4-.9-.2,1.7Zm6.8-19.2-.7-.8-.5,1.1Zm-4.5,7.1.5-.8-1-.2Zm-2.5-10.2.9.3-.1-1.1Zm8.1,1-1.6-1-.1,2.2Zm-7.5,1.9.2-.8-1,.1Z" fill="#ea8f2d"/>
      <path id="Path_12046" data-name="Path 12046" d="M224.7,138.2l.2,1,1-.7Zm6.3-3-.8.4.7.6Zm-2,10.2-.7-.7-.2.9Zm.3-15.1v1.2l1.1-.6Zm7-7.5-.9.2.7.8Zm-5.7,15.6-.5-.8-.5.8Zm0,13.2-1.4-1-.4,1.8Z" fill="#ea8f2d"/>
      <path id="Path_12047" data-name="Path 12047" d="M230.3,149.5l-2.5-.3.8,2.6Zm-4.1,2.1-1.9,1.4,2.3,1.4Zm8.7-10.1-2.2,1.1,2.2,1.7Zm-3.4,4.9-1.3-.9-.4,1.8Zm2.3,1.3-1.2-1-.4,1.7Zm-16.1,9.9.6.7.3-1Z" fill="#ea8f2d"/>
      <path id="Path_12048" data-name="Path 12048" d="M232.9,145.9l-.6.9,1,.1Zm-7.6,6.9-.9-.1.3.9Zm8.7-5.2,1.9-2.7-3.1-.3Zm-2.6,4.5,1.8-3-3.8-.6Zm-1.9,3.4,1.6-3.1-3.8-.4Zm-2.6,4,2.1-3.4-3.8-.2Zm-2.7,5.2,1.5-3-3.8-.2Zm1.5-20.4.1,1,.8-.6Zm1.1,3.8.3,1.4,1.5-1Zm-3.4,2.7.2,1,.9-.6Zm3-9.3.1.9.9-.7Zm1.6,1,.3.8.7-.6Zm-6.8,27-1.4.5,1.2,1.2Zm-3.5-3.6,1.2,1.2.7-1.9Zm-1.1,3.6,1.3,1.1.6-1.8Zm7.6-20.2,1.6.8.1-1.9Z" fill="#ea8f2d"/>
      <path id="Path_12049" data-name="Path 12049" d="M218.6,163.6l1.4,1,.4-1.8Zm-3.1-3.3.4.9.8-.8Zm5.3-3.7-.7.6.9.4Zm.3,8.3-.6-.6-.2.9Zm-1.1-18,.3.8.8-.6Zm2-3.8-.7.4.7.5Zm-.9,10.6-.6-.6-.2.8Zm-4.7-2,.2,1,1-.6Zm3,4-.7.4.6.6Zm-1.4,8.1-.6-.7-.3.9Zm2.1,6.5-1-.6-.1,1.4Zm.8-2.4-1.9-.2.7,2Zm.2-1.2-1-.8-.4,1.4Zm1.6.4-1.3-.6V168Z" fill="#ea8f2d"/>
      <path id="Path_12050" data-name="Path 12050" d="M220.8,165.3l-.2.7h.9Zm1.9,2.5,1.4-2.9-3.5-.6Zm-1.4,3,1-2.5-3-.1Zm-1.5,3.2,1-2.6-3.1.1Zm-8.3,9.5-1.4-.7v1.8Zm2.9,0-1.3-.7-.1,1.7Zm-.4,3.6-1.5-.6.1,1.8Zm-.6-1.8-1.5-.6v1.8Z" fill="#ea8f2d"/>
      <path id="Path_12051" data-name="Path 12051" d="M215.3,169.6l-1.4,1.2,2,.8Zm.4,9.8-1.3,1.1,1.8,1Zm2-3.2-1.5,1.1,1.8.9ZM215,188.1l.6-2.3-2.7.6Zm-4-1.9-1.2,1.3,2,.7Zm2.8-5.4-1.5,1.2,1.9.9Zm-3.1,8.5-1,1.5,1.8.5Zm5.7-15.7-1.4-.5.2,1.8Z" fill="#ea8f2d"/>
      <path id="Path_12052" data-name="Path 12052" d="M210.1,188.5l-1.6-.3.4,1.6Zm3.3.8-1.5-.5.2,1.8Zm4-12-1.4-.7v1.7Z" fill="#ea8f2d"/>
      <path id="Path_12053" data-name="Path 12053" d="M216.7,175.2l-2.4.3,1.4,2.4Zm1-2.7-.7.9,1.2.4ZM206,185.7l.8.6.2-1Zm6.7-6.2h-1l.6.9Z" fill="#ea8f2d"/>
      <path id="Path_12054" data-name="Path 12054" d="M218.3,177.5l1.3-3.3-3.8.2Zm-1.1,3.8,1.1-3.4-3.8.4Zm-1.7,4.4,1.4-3.7-3.8.6Zm-1.1,5.8.6-3.4-3.8.8Zm-1.5,5.5-1.2,1,1.6.6Zm-1.2,3.4,1.5.8v-2Zm-.3,6.7,1.5.6v-1.8ZM208.6,192l1.6.6-.1-1.9Z" fill="#ea8f2d"/>
      <path id="Path_12055" data-name="Path 12055" d="M209.6,204.6l.6.8.5-.8Zm1.2-26.9-.6.5.8.3Zm.6,14.9-.8-.4v.9Zm.9-18.8-.7-.5-.1,1Zm-3.3,6.4-.6.5.7.6Zm1.2,20.4-.6-.5-.2.8Zm1.9-2.5-1.1-.3.3,1.5Zm-.1-2.4-1.8.3,1.3,1.8Zm-1.3-1.6-1.1-.4v1.4Zm2.9.1-1.4-.2.3,1.5Z" fill="#ea8f2d"/>
      <path id="Path_12056" data-name="Path 12056" d="M211.2,193v.7l.8-.2Zm2.6,1.8.4-3.2-3.4.6Zm-.4,3.4.3-2.7-3,1Zm-.5,6.2.3-2.8-2.9,1.1Z" fill="#ea8f2d"/>
    </g>
    <g id="Group_834" data-name="Group 834">
      <path id="Path_12057" data-name="Path 12057" d="M176.8,156.2l1-.8-1.1-.4Zm-2,1.9.6.5.2-.6Zm-.3-3,1.4-.4-.8-.9Zm2.3,1.6,1.4.6-.1-1.4Zm.6-2.3,1.4.4-.2-1.2Zm-1.7,3.4,1.4.5L177,157Zm9.1,3.6.8-.4-.6-.4Zm-8.5-4-1.9-2-1,2.3Zm-3.1,13.3.7-1-.9-.2Zm-1.6-1.1.7-1-1.1-.1Zm-1.1,2.1.8-1-1-.2Zm1-.8.7-.9-1.1-.2Zm2-2.2,1.4.2-.3-1.1Zm-2.4-2.1,1.4.3-.2-1.4Zm.6-3,1.4.4-.3-1.2Zm-.6,6.5-1.4-1.3-.5,1.7Z" fill="#ffe05f"/>
      <path id="Path_12058" data-name="Path 12058" d="M171.2,172l1.4.2-.4-1.2Zm.5-3.8,1.3.3-.2-1.2Zm-1.7,5.4,1.4.4-.2-1.3Zm6.3-13.6,1.4.5-.1-1.3Zm-.6,1.8-.8,1.2,1.2.3Zm.3-1.9-.9,1.2,1.3.2Zm-2.2,6,1-.9-1.2-.4Zm-1.8,7.8.8-1-1-.3Zm-2-.4.7-1-1-.3Zm6.9-11.8.4-.8-.7-.1Zm-1.2,3.7-.5-.5-.2.6Zm5.4-2.2-.7.4.6.4Zm-3.1-2.1,1.2-.8-1.2-.6Zm2.5,3.9-.3-.6-.5.4Zm-2.7,3-.1-.9-.6.5Zm-1.7,6.9-.6-.7-.3.6Zm2.7,2.8-.8.3.4.4Zm.2-7.4-.7.2.4.4Zm.5,1.7.1.7.5-.2Zm.4,2h-.7l.3.5Zm2.9-1-.6-.2.1.7ZM172.6,165l.8-1.1-1.1-.2Z" fill="#ffe05f"/>
      <path id="Path_12059" data-name="Path 12059" d="M173,164.8l1.8-.6-1.2-1.3Zm-.5,2,1.9.5-.2-1.6Zm2.8-10.8,1.7.6-.1-1.5Zm-1.1,6.8.9-1-1.1-.3Zm-1.1-1,.9-.9-1-.4Zm1.5,9.9-.3.7.7-.2Zm-2.3,18.9-.8-.3v.6Zm3.6,1.5-.6.6.5.2Z" fill="#ffe05f"/>
      <path id="Path_12060" data-name="Path 12060" d="M173.6,197.4l-.5.5.5.2Zm-.6-12.2-.5.5.5.2Zm1.2,1.4.4.6.4-.4Zm1.2,1.6-.7.3.5.3Zm2.2-2H177l.4.6Zm-2.1-4.8-.6.1.4.6Zm-5.8,7.2v.7l.6-.5Zm3.9-28,.5.4.4-.5Zm.3,6.9.6-.3-.5-.5Zm.1-9,1.4.4-.1-1.3Zm1.3,1.3-1.9-1.8-.9,2.2Zm-1,2.6-1.9-1.6-.8,2.3Zm-1,3.3-2-2-.8,2.4Zm-1,2.7-1.9-2-.8,2.7Zm-1,3.8-2.1-1.8-.6,2.2Zm6.6-8.4v.6l.7-.2Zm-2.2-.5v1.2l.9-.5Zm-.6,3.6.1.8.7-.2Zm4.2-4.6v.8l.5-.3Zm-6.5,15.4.2-.8-.8.3Zm-4.1,6.1-.2-.8-.5.5Zm.8,2.1h-.7l.2.6Zm-2.4,3-.7.1.3.6Zm-1.5,2.8h-.8l.4.6Zm6.9-12.3-.2.6.6-.1Zm-2.4.1-.1.7.5-.2Zm-.8,3.2V181l-1.3.6Zm3.8.9-.8-.4v.8Zm-6.3,6.9-.5-.2-.1.5Zm-1.3,2.3-.7-.2.1.6Zm5.6-10.2.4.6.3-.6Zm-1.9.5.4.5.3-.6Z" fill="#ffe05f"/>
      <path id="Path_12061" data-name="Path 12061" d="M174,176.2l.6.4.1-.5Zm3.9-12.8-.1.6.6-.2Zm-11.1,19.4.3-.8-.7-.1Zm.8-2.5h1.2l-.3-1Zm-.5-2.6,1.2.3-.3-1.1Zm-1.2,6.2.8-.5-.6-.5Zm4.7-7.6-.7,1.1,1.2.2Zm1,1.7-.7,1.1,1.2.2Zm-.5-3.9-.8,1,1.1.2Zm3,.3-.1.7.7-.2Zm-.9-3.5.6.2v-.7Zm-3.2,4.2.4-.5-.7-.1Zm8,6.3-.6-.7-.3.6Zm2.6,2.8-.7.3.3.4Zm-2.7,14.6-.7.3.3.4Zm3.9-18.3H181l.3.5Zm-5.9,2.4.6.4.1-.5Zm0-1.8v.7l.7-.2Zm-.8-3.4.6.1-.1-.7Zm-3.3,4.2.5-.6-.7-.1Zm-3.3-3,.7-.8-.8-.2Z" fill="#ffe05f"/>
      <path id="Path_12062" data-name="Path 12062" d="M168.3,178.1l1.4-.5-.9-1Zm1.1-1,.6-.7-.9-.2Zm-1.1-1.2.9-.9-1.1-.2Zm.8-1,.5.4.3-.4Z" fill="#ffe05f"/>
      <path id="Path_12063" data-name="Path 12063" d="M170.5,174.1l-2-1.4-.7,2.2Zm-1.1,2.4-1.7-1.4-.5,1.9Zm-.5,2.5-1.6-1.3-.5,1.8Zm-1.7,6.1-1.4-1-.3,1.6Zm1-4.1-1.4-1.1-.4,1.6Zm-2.1,7.7-.2-.7-.5.5Zm1.8-1.3.2-1.2-1.1.3Zm-2.1,4.2.3-1.3-1.1.4Z" fill="#ffe05f"/>
      <path id="Path_12064" data-name="Path 12064" d="M166.1,186.4l.9.1-.3-.8Zm.6.7-1.3-.8-.2,1.4Zm-.8,2.8-.9-.6-.2.8Zm22-55.3,1-.8-1-.5Zm-2.3,1,.4.6.5-.5Zm.1-2.6,1.4-.3-.7-1Zm2.1,2.1,1.3.6.1-1.3Z" fill="#ffe05f"/>
      <path id="Path_12065" data-name="Path 12065" d="M188.7,135.8l1.3.8v-1.4Zm-2.1-.4,1.3.7v-1.3Z" fill="#ffe05f"/>
      <path id="Path_12066" data-name="Path 12066" d="M195.1,140.3l.8-.4-.5-.4Zm-7.8-5.1-1.7-2.1-1.2,2.1Zm-4.8,12.7.8-.9-1-.3Zm-1.6-1.3.9-.8-1-.3Zm-1.2,1.9.8-1-1-.3Zm.9-.5.9-.9-1-.4Zm2.3-2.1,1.4.5-.1-1.3Zm-2-2.5,1.4.5-.2-1.2Zm.8-2.7,1.3.5v-1.4ZM180,147l-1.1-1.6-.8,1.6Zm.2,1.9,1.4.4-.1-1.2Zm.9-3.7,1.4.5-.1-1.3Zm-2.2,5.2,1.3.5-.1-1.3Zm8-12.7,1.4.7V137Zm-.8,1.7-1,1,1.2.5Zm.4-1.8-1,1,1.2.5Zm-2.8,5.6.9-.8-1-.5Zm-2.8,7.5.9-.8-1.1-.4ZM179,150l.8-1-1-.3Zm8.3-10.8.5-.7-.8-.2Zm-1.7,3.5-.4-.5-.4.5Zm5.6-1.4-.6.3.4.4Zm-2.8-2.5,1.4-.7-1.1-.8Zm1.9,4.2-.1-.7-.6.4Zm-2.9,2.6.1-.9-.8.4Zm-2.6,6.6-.4-.8-.5.5Zm2,2.6-.7.2.3.5Zm1.5-6.8-.7.1.3.6Zm.2,1.9-.1.6.6-.2Zm-.2,1.3-.7-.1.2.6Zm3.4-.1-.8-.1.1.6Zm-8.3,6.4.6-.4-.4-.4Z" fill="#ffe05f"/>
      <path id="Path_12067" data-name="Path 12067" d="M182.7,155.8l-.1-.7-.5.3Zm-2.6.6-.1-.6-.5.3Zm2-2.5h.7l-.3-.6Zm-2.2-.4,1.3.1-.5-1.1Zm4.8-5.8h1.4l-.4-1.1Zm-5.5,7.6h.8l-.2-.6Zm3.2-13.2.9-.9-1.1-.3Z" fill="#ffe05f"/>
      <path id="Path_12068" data-name="Path 12068" d="M182.9,142.1l1.9-.5-1.1-1.4Zm-.6,1.9,1.8.7L184,143Zm4.1-10.2,1.2.7.2-1.8Zm-1.9,6.3.8-.8-.9-.4Zm-.9-1.1,1-.8-1-.5Zm0,10.1-.4.5h.7Z" fill="#ffe05f"/>
      <path id="Path_12069" data-name="Path 12069" d="M184.2,137.8l.4.6.3-.5Zm-.8,6.9.7-.2-.4-.4Zm1.5-8.8,1.2.5v-1.2Z" fill="#ffe05f"/>
      <path id="Path_12070" data-name="Path 12070" d="M186,137.4l-1.6-2.2-1.2,2Zm-1.4,2.7-1.7-2.2-1.1,2.1Zm-1.5,2.5-1.7-2-1.1,2.1Zm-1.5,2.6-1.5-2.1-1.3,2.3ZM180,149l-1.9-2.1-1,2.1Zm8-7.4-.1.6.6-.1Zm-2.2-.8-.1,1.3,1-.3Zm-.9,3.7-.1.7.6-.3Z" fill="#ffe05f"/>
      <path id="Path_12071" data-name="Path 12071" d="M189.6,140.4l-.2.8.5-.3Zm-1.6.9-.2.6.6-.1Zm-8.1,9.6-1,.9,1.2.5Zm2.8.8v.7l.6-.2Zm-.4-3.6.6.2.1-.6Zm-3.6,3.7.3-.6-.5-.1Zm-1.1,1.8.6-.7-.9-.3Zm-.6-1.3.8-.7-1-.4Zm.9-.8.3.4.3-.4Zm1-.6-1.7-1.8-1.1,2Zm-1.5,2.1-1.5-1.4-.7,1.8Zm24.1-38.8,1.1-.4-.7-.8Zm-2.2,1.2.2.7.5-.5Zm.9-2.9h1.4l-.5-1.2Zm1.1,2.1,1.2,1,.3-1.3Zm0,2.6,1,.9.4-1.2Z" fill="#ffe05f"/>
      <path id="Path_12072" data-name="Path 12072" d="M200.2,115.5l1.2.8.2-1.2Zm6.1,2.7.9-.2-.5-.5ZM201,115l-1.2-2.4-1.6,1.8Zm-6.5,12.1,1-.8-1.1-.5Zm-1.5-1.6,1-.7-1-.5Zm-1.4,1.8.9-.8-1-.6Zm1-.5,1.1-.7-1-.5Zm2.5-1.7,1.4.7v-1.3Zm-1.5-2.9,1.2.8.2-1.4Zm1.2-2.6,1.3.8.2-1.2Zm-2.4,6.2-1-1.6-.9,1.2Zm-.4,1.9,1.3.6.1-1.3Zm1.6-3.7,1.2.7.3-1.3Zm-3.2,5,1.3.7.1-1.3Zm10-11,1.3.8.2-1.2Zm-1,1.4-1.2.8,1,.7Zm.7-1.7-1.2.8,1.1.7Zm-3.7,4.8,1.1-.6-.9-.7Zm-3.9,7,.9-.6-.9-.6Zm-1.9-.9.9-.8-.9-.5Zm10-9.2.5-.6-.6-.3Zm-2.3,3.1-.3-.7-.5.5Zm5.7-.3-.7.2.4.5Zm-5.9,1.5,1.4-.5-.7-.9Zm4.8-.4-.1-.7-.5.2Zm-3.3,2.1.1-.9-.7.3Zm-3.6,6.2-.2-.8-.5.5Zm3.3,1.5h-.8l.4.5Zm.8-5.2h-.7l.4.6Zm-2.2,3.2-.2.8.6-.1Zm5.2-4.5-.7-.3v.5Zm0,5-.7-.3v.6Z" fill="#ffe05f"/>
      <path id="Path_12073" data-name="Path 12073" d="M193.9,136.7l.7-.1-.4-.6Zm-.3-1.8.1-.7-.7.2Zm-2.6.5v-.7l-.6.2Zm2.3-2.2.7.2-.1-.7Zm-2-.7,1.3.2-.3-1.2Zm-1.9-.2.8,1,.5-1.1Zm6.3-4.9,1.4.3-.3-1.2Zm-5.3,6.7.7.2-.2-.7Zm4.9-12.9,1.1-.8-.9-.4Zm.5.2,1.8-.1-.7-1.5Zm-.9,1.7,1.5.9.3-1.7Zm4.5-7,1.5,1.2.4-1.6Zm-1.8,3.7,1.1-.7-.9-.6Zm-.7-1.3,1.1-.5-.8-.8Z" fill="#ffe05f"/>
      <path id="Path_12074" data-name="Path 12074" d="M195.3,128.3l-.3.6h.7Zm2.2-10.9.2.7.4-.6Zm-1.7,6.7.7-.2-.4-.5Zm2.6-8.6,1.1.9.4-1.4Z" fill="#ffe05f"/>
      <path id="Path_12075" data-name="Path 12075" d="M199.2,117.2l-1.1-2.5-1.7,1.9Zm-1.8,2.3-1.2-2.5-1.6,1.9Zm-1.7,2.2-1.3-2.2-1.4,1.8Zm-1.6,2.3-1.3-2.3-1.5,2.2Zm-2.4,3.9-1.3-2.6-1.4,2Zm9.3-6.2-.2.6h.6Zm-2-1.1-.4,1.2,1-.1Zm-1.7,3.3-.2.8.7-.1Z" fill="#ffe05f"/>
      <path id="Path_12076" data-name="Path 12076" d="M204.1,118.9l-.3.6h.6Zm-3.1,2.5-.3.5.6.1Zm10.8-7.9.9-.2-.6-.7Zm6.5-12.4h.8l-.4-.7Zm-.2,3.5.9-.1-.5-.6ZM208,112.3l.7-.5-.8-.4Zm-2.1,3.3-.4-.6-.3.4Zm5.6-.6-.6.2.4.4Zm6.2-12.9.6-.5-.4-.4Zm-1.8,2.7-.3-.7-.5.5Zm1.6,2.3-.4-.6-.4.6Zm3.8-4.7-.2-.8-.4.5Zm2.5-.4-.2-.7-.4.4Zm-1-1.4-.2-.7-.4.4Zm1.6-1.2-.2-.7-.4.4Zm-2.6,4.3-.7.1.3.5Zm-1.2-3.6-.7.1.2.5Zm-10.4,16.7-.1-.7-.5.2Zm1,2.9-.6-.4-.1.7Zm-2.8-4.5-.2.7.6-.1Z" fill="#ffe05f"/>
      <path id="Path_12077" data-name="Path 12077" d="M208.4,114.7l-.3.8h.7Zm-17.1,14.9-.9.8.9.6Zm2.8,1.2-.2.6h.8Zm.2-3.7.5.5v-.7Zm-4.2,3.3.4-.5-.4-.3Zm-1.1,1.8.7-.6-.8-.5Zm-.7-1.5.9-.6-.9-.6Zm1-.8.4.6.2-.4Z" fill="#ffe05f"/>
      <path id="Path_12078" data-name="Path 12078" d="M190.5,129.5l-1.6-1.9-1.1,1.9Zm-1.6,2-1.4-1.6-.9,1.5Zm12.3-20.6,1.6.2-.5-1.3Zm9.8-3.3,1.1-.5-.9-.7Zm-1.1-1.8,1.1-.5-.6-.7ZM208,107l1.2-.5-.8-.7Zm1.2-.1,1.1-.4-.8-.8Zm2.8-.9,1.2,1,.4-1.2Zm-.4-3.1.9,1.1.7-1.1Zm2.3-1.9.8,1.3.7-1.1Zm-4.5,4.8L209,104l-1.4,1.1Zm-1,1.8,1,1,.4-1.2Zm2.6-3.2.8,1.1.5-1.2Zm-4.5,4,1,1,.5-1.2Zm1.7,1.2,1.2-.4-.7-.9Zm-1.4-1.5,1.2-.5-.9-.7Z" fill="#ffe05f"/>
      <path id="Path_12079" data-name="Path 12079" d="M212,108.3l1.3.7.1-1.3Zm2.9-5.8.9.9.4-1.1Zm3.1-3.3,1.1.9.4-1.1Zm2.8-.5.7.6.2-.8Zm-8.4,5.3,1,1.6.9-1.5Zm-.9,5.1-.6.4.6.2Z" fill="#ffe05f"/>
      <path id="Path_12080" data-name="Path 12080" d="M213.1,105.1l.7.1-.3-.6Zm.9-1.4-.1-2.8-2.2,1.1Zm-2.3,1.3-.5-2.6-2.2,1.4Zm4.8-3.7.3-1.7-1.5.6Zm-13.7,14,1.2-.4-.8-.8Zm-.7-1.9,1.1-.4-.8-.7Zm1.9.4.9,1,.6-1.1Zm-1-1.6,1,1,.6-1.1Z" fill="#ffe05f"/>
      <path id="Path_12081" data-name="Path 12081" d="M205.6,113.5l1.2.7.1-1.1Zm-.7-2.5,1.2,1.5.7-1.4Zm.2,2,.6.1-.2-.6Zm-1.6-.3-.2-2.7-2.3,1.4Zm4.8-5-1-2.6-1.6,1.5Zm-1.2,1.4-1.2.5.8.8Zm2.5,2-.4.7h.7Zm1.1-3.3.4.4.3-.6Zm-5,1.8.6-.4-.4-.2Zm-1.4,1.4,1-.3-.6-.7Z" fill="#ffe05f"/>
      <path id="Path_12082" data-name="Path 12082" d="M204.2,109.4l1.2-.3-.6-.9Zm1.3-.4.1.6.5-.3Z" fill="#ffe05f"/>
      <path id="Path_12083" data-name="Path 12083" d="M206.6,108.9l-.8-2.4-1.7,1.4Zm-1.9,1.6-.5-2.2-1.5,1.2Z" fill="#ffe05f"/>
    </g>
    <g id="Group_835" data-name="Group 835">
      <path id="Path_12084" data-name="Path 12084" d="M274.8,169.1l.5-1.3-1.2.1Zm-2.9-2.5.2-1.4-1.3.4Zm3.8.1,1.7-.6-1-1.1Zm-5.7-2.9,1.6-.6-1-1.1Z" fill="#dd6d22"/>
      <path id="Path_12085" data-name="Path 12085" d="M269.9,159.4h1.7l-.6-1.3Zm.4,7.6,1.7-.1-.8-1.3Zm1.9,0,1.7-.1-.8-1.3Zm-.6-1.8,1.5-.6-.9-1.1Zm1.2,4.6,1.4-.6-1-1Z" fill="#dd6d22"/>
      <path id="Path_12086" data-name="Path 12086" d="M271.9,170.2l1.7-.3-.9-1.3Zm2.8-8.2.2-1.4-1.2.5Zm-.2,8.5.8-1.2-1.3-.2Zm-.5-10.2v-1l-.7.3Zm.6,4.5-.8-.2.2.7Zm4.7-5.1-.5.7.8.1Zm3,2.8,1,.1-.3-.8Zm-4.5.8.2-.7-.7.1Zm5.1,4.5-.7-.5-.1.8Zm-6.6-6.3.2.9.8-.5Zm-1.9-4.3h.8l-.3-.6Zm-3.1,6.1.2-.8-.8.2Zm-.5-2.2.2-1.3-1.3.3Zm1.2-.3,1.1-1.9-1.9-.2Zm-1-8,.3-1.7-1.4.4Zm.7,10.5,2.2-.7-1.4-1.6Zm1.1-4.7.6-1.4-1.3.1Zm-1.5-.8.6-1.3h-1.3Zm7.2,8,1,.1-.2-.8Zm-1.1,2.6v.8l.7-.2Z" fill="#dd6d22"/>
      <path id="Path_12087" data-name="Path 12087" d="M281.2,165.1l.3-.7h-.7Zm-6.9-2.2.4-.8-.7-.1Zm-1.8-6.1-3-.9.3,2.8Zm.3,4.6-3-1,.3,2.8Zm.1,3.3-2.8-1,.1,2.8Zm-1.5-9.5,1.6-.4-.8-1.2Zm.9-1.7-3-1.1.2,3Zm-.8-3.8-2.5-.9.2,2.5Zm-1-2.8-1.7-.5.1,1.7Zm2.9,21.2-3.1-1.1.2,2.9Zm.2,3-3-1.1.2,2.9Z" fill="#dd6d22"/>
      <path id="Path_12088" data-name="Path 12088" d="M273.8,174l-3-1.1.1,2.9Zm1.4-10.7.5,1.4.8-.9Zm-.2,6.3,1.7-.5-1-1.2Zm-.6.3-.1,1.7,1.3-.6Z" fill="#dd6d22"/>
      <path id="Path_12089" data-name="Path 12089" d="M271.4,175.1l-.1,1.8,1.3-.7Zm1.5-.7-.1,1.7,1.3-.6Zm-.5-2.8v1.8l1.3-.6Zm4.7,1.8-.5-.8-.6.6Zm2.8,3.7-.8.2.4.6Zm1.5-6.6-.1.8.8-.2Zm-7.3,20.3,1.1-.3-.5-.6Zm6.6-26.9-.1-.9-.7.5Zm.5,14.4-.8-.1.2.7Zm-5.6-2.4.2-1.8-1.5.5Zm6.5,7.2-.7-.2v.7Zm-4.3-14.2.5.8.5-.7Zm-3.2-3.5.8-.2-.5-.7Zm-1.1,6.6v-.8l-.7.3Zm3.4-20.3,1,.3-.1-.8Zm-4.7-.7.5-.6-.7-.1Zm3.9,5.4-.7-.6-.2.7Zm-5.3-9.8.1-1.4-1.1.4Zm-1-1.3.5-1h-1Z" fill="#dd6d22"/>
      <path id="Path_12090" data-name="Path 12090" d="M269.8,144.1l-1.5-.4.4,2.3Zm.2,4.5,1.3-.5-.9-.8Zm-.8-6.4-1.1-.7.3,1.7Zm3.1.8.8.1-.1-.6Zm-1.9-.2.4-.7-.6.1Zm-1.7-1.4.3-.6h-.6Zm0-2.1.3-.6h-.5Zm3.9,8.2-.4-.4-.2.5Zm6.4,24.8.9.6.2-.9Zm-4.4-1.9.7-.5-.7-.3Zm2.1,6.6-.3-.6-.5.5Zm-4.8-5.5,2.1-.4-1-1.7Zm-.7-1.2,1.6-.7-1.1-1Zm2.3,2.6,1.2.8.1-1.3Zm6.4-5.2.7.6.2-.7Zm-1.8,17.9,1,.5.1-1Zm1.2-19.2.5-.6-.6-.3Zm2.9,7.2-.5-.9-.5.8ZM280.6,186l-.6-.5-.3.7Zm3.6-5.6.1-.7-.7.1Zm-5.5,8-.1.8.8-.1Zm2.4-2.9-.1-.8-.6.5Zm-4.8,4.4.7.7.2-.9Zm6.6-6.9.5.6.3-.7Zm-4.7-1.7.8.8.3-.9Zm.9,10.3-.4-.9-.5.7Zm-5.5-14.4-.9-1.3-.7,1.2Zm.1,3.4-.9-1.2-.5,1.1Z" fill="#dd6d22"/>
      <path id="Path_12091" data-name="Path 12091" d="M273.2,179.2l-.9-1.2-.5,1.2Zm-1.9-.3v2.3l1.8-.9Z" fill="#dd6d22"/>
      <path id="Path_12092" data-name="Path 12092" d="M271,176.9l.1,2.3,1.7-.9Zm3.6,9.2,1.7-.3-1-1.2Zm-1.2-1.7,1.7-.1-.8-1.4Zm4.4-3.3-.7-1.3-.7,1Zm-2.5,1.7-.6-1.2-.8,1Zm-2.1,1,.3-1.5-1.4.2Z" fill="#dd6d22"/>
      <path id="Path_12093" data-name="Path 12093" d="M275.9,176.2l.6.6.2-.8Zm-1.6,6-3.1-1,.4,2.8Zm-.5-2.6,1.3-.3-.6-.9Zm3.4-2.9-.3,1.4,1.3-.1Zm-.7-2.3-.4,1.5,1.3-.2Zm1.3.3.5.9.5-.6Zm-2.1-3.5.7-.1-.3-.6Zm-2,5.9.1-.8-.7.2Zm5.6-2.9.3.8.6-.5Zm-2.2-3.6h.7l-.3-.7Zm-2,5.9.1-.8-.6.3Zm1,7.2.6-1.1-1.1-.1Zm-.8-4.2,1.4-1.2-1.4-.8Zm3.4.6.4-1-1,.1ZM275.4,193l-.9.1.4.6Zm1.1-1.5-.8-.2.1.6Z" fill="#dd6d22"/>
      <path id="Path_12094" data-name="Path 12094" d="M277.8,185.2l-.4,1.5,1.4-.3Zm-4.1,7.8.6-1.2-1,.1Zm0-8.3-2.1-.5v1.9Zm2-7.3-2.3-1,.1,2.4Zm0,3.2-2.3-1.1v2.4Zm6.1,10.8-.6.4.5.4Zm3.3,3.6-.7.2.4.5Zm-9.5,1.3-1.3-.6V197Zm4.9-.9-1.4-.6V196Zm-6.1,0,1-.9-1.1-.6Zm2-1.6.4,1.4,1.2-.9Zm1.9-9.2.3-1.8-1.6.4Zm-3.4,6.7,1.7-.3-.9-1.2Zm-1.1-1.7,1.6-.2-.6-1.3Zm2-1.6-.7-1.2-.7,1Zm-2.3.9.4-1.4-1.3.2Z" fill="#dd6d22"/>
      <path id="Path_12095" data-name="Path 12095" d="M274.7,187.3l-3.1-.9.3,2.7Zm1.8,1.5.6-1-1.1-.1Zm-2.5,1.1-2.1-.6.1,2Zm.3,4.1-2.2-.5.1,1.9Z" fill="#dd6d22"/>
      <path id="Path_12096" data-name="Path 12096" d="M274.2,192.1l-2.2-.5.1,1.9Zm1.9-6.3-2.3-1.1.1,2.3Zm.3,25.3-2.3-1.1v2.3Zm2.2-21.3.4-1.8-1.6.3Zm2.1,4.4-.2-1.1-.8.6Zm-5.9,8.1,1-.3-.5-.7Zm4-5.2,1,.5.1-1Zm2.5.4-.7-.5-.2.7Z" fill="#dd6d22"/>
      <path id="Path_12097" data-name="Path 12097" d="M279.4,199.9l-.1.8.7-.2Zm2.3-2.9-.1-.8-.5.4Zm-4.8,4.4.7.7.2-.9Zm2.9,1.6-.5-.8-.4.6Zm-4.6-5.4,1.8-.3-1-1.2Zm.9,6.8-.9.1.4.7Zm1-1.5-.7-.1.1.6Zm1.4-6.2-.4,1.5,1.3-.3Zm-1.6,16.8-.4,1.6,1.4-.3Zm-2.5-9.1.6-1.1-1,.1Zm0-8.2-2.2-.5.1,1.9Zm8.3,5.3-.7.4.6.5Zm.8-2.8-.7.1.4.6Zm-9.1,8.8-1.3-.5-.1,1.2Zm4.3.8-1.3-.7v1.2Zm-3.6-1.5,1-.9-1.1-.5Zm2-1.5.3,1.4,1.2-.9Zm1,9.7.3,1.5,1.2-.9Zm-.2-21.5.3-1.7-1.5.3Zm-2.3,9.3,1.7-.3-1-1.3Zm-1.2-1.8,1.7-.1-.7-1.4Zm2-1.6-.6-1.1-.8,1Zm-2.2,1,.4-1.5-1.4.3Z" fill="#dd6d22"/>
      <path id="Path_12098" data-name="Path 12098" d="M275.4,198.8l-3.1-.9.3,2.7Zm1.7,1.5.7-1-1.1-.1Zm-2.4,1.1-2.1-.6v1.9Zm.2,4.1-2.1-.5.1,1.9Z" fill="#dd6d22"/>
      <path id="Path_12099" data-name="Path 12099" d="M274.9,203.6l-2.2-.5.1,1.9Zm1.9-6.3-2.3-1.1v2.3Zm2.4,4,.4-1.8-1.5.3Zm1.8,3.2-.2-1.1-.9.6Zm-4,7-.6.6.7.2Zm-1.3,1.1-.3-1.3-.7.8Zm7-6.8-.3.6.6.1Zm-3.3,8-1.4.5.8.9Zm-.1-3.5-1.4.5.8.9Zm-1.4,3.6.1-1.3-1.2.3Z" fill="#dd6d22"/>
      <path id="Path_12100" data-name="Path 12100" d="M274.7,207.8l1.3.8.3-1.4Zm2.2,5.2-2,1.1,1.4,1.3Z" fill="#dd6d22"/>
      <path id="Path_12101" data-name="Path 12101" d="M275.9,211.6l-2,.9,1.2,1.5Zm4.9-2.9-1-.6-.1,1Zm1.5,9.7.4-1h-.8Zm-2.7-5.5,1.1-.4-.7-.7Zm2.7-2.6-.7.3.3.6Zm.8,3,.6.5.4-.6Zm-.9-3.6-.7-.4v.7Zm.7,6.5,1-.2-.6-.7Zm3-1.3-.9-.2.2.8Zm-9.4-4.1,1.1-1.4-1.6-.2Zm8.3,7.9-.5.8h.8Zm-.5-1.8-.7.5.6.3Zm-9.8-7.4.9,1.3.7-1.2Zm9.3,10.5-.5-1.1-.6.8Zm-5.4-5.4-2,1,1.4,1.4Zm8-3v.8l.7-.2Zm-1.7-2.3-.4.6.7.1Zm1.6,12.6-1.2.7.9.8Zm-5.1-8.6-1.3.6.9.8Zm5,7.6-.2-1.4-1.1.7Zm-7.5-14.2,1.4.6v-1.5Zm-5.4,5.2.8-1.5-2-.1Zm4.1-6.8.8-1.6h-1.6Zm4.1,12.8,1-1.3-1.5-.4Zm.2-2.5-1.4-.3.3,1.2Zm-.8,2.2-.7-1.3-.8,1.1Z" fill="#dd6d22"/>
      <path id="Path_12102" data-name="Path 12102" d="M280.7,215.7l-2.9,1.5,2.1,1.7Zm2.1-.2-.4-1.2-.8.7Zm-.9,2.4-1.9,1.3,1.5,1.2Zm3.1,2.3-1.7,1.4,1.6,1.1Z" fill="#dd6d22"/>
      <path id="Path_12103" data-name="Path 12103" d="M283.4,219.1l-1.7,1.4,1.6,1.1ZM273,207.9h-2.7l1.5,2.2Zm2.1,1.7-1.2-1.4-.7,1.4Zm12.7,5.2-1-.5-.1,1Z" fill="#dd6d22"/>
    </g>
  </g>
</svg>
