<svg xmlns="http://www.w3.org/2000/svg" width="232.883" height="138.037" viewBox="0 0 232.883 138.037">
  <g id="_111" data-name="111" transform="translate(-113.122 -98.222)">
    <path id="Path_16779" data-name="Path 16779" d="M321.3,113.58l-.3.17C321.01,113.77,321.1,113.73,321.3,113.58Zm10.2,16.14.04-.07C331.51,129.7,331.5,129.71,331.5,129.72Zm-17.26-5.57.01-.02.03-.08Zm16.02-11.4-.06.04C330.21,112.8,330.23,112.79,330.26,112.75Zm-9.4,11.44Zm7.05-10.24h.01v-.02Zm-51.22,35.38a4.952,4.952,0,0,0,.54.06A2.016,2.016,0,0,0,276.69,149.33Zm20.18-10.5c-.01.01-.02.01-.02.02a.933.933,0,0,0-.1.1l.13-.13Zm-39.8-15.73-.03.03C257.06,123.13,257.07,123.13,257.07,123.1Zm10.2,90.6.2.3C267.39,213.9,267.34,213.8,267.27,213.7Z"/>
    <g id="Group_1156" data-name="Group 1156">
      <path id="Path_16780" data-name="Path 16780" d="M328.72,118.03c.3-1.8,3.1-1.6,4.2-1.3s5.4.8,5,2.9c-.4,2-2.3,2.3-4.8,2-2.5-.5-4.6-2.1-4.4-3.6Z" fill="#fff"/>
      <path id="Path_16781" data-name="Path 16781" d="M326.82,122.23c.3-1.6,2.7-1.5,3.7-1.2s4.2.6,3.9,2.4c-.4,1.8-1.5,2.3-3.7,2-2.1-.3-4.1-1.8-3.9-3.2Zm4.4-9c.7-1.7,3.8-1.2,5-.7s5.6,1.8,4.7,3.8c-1,1.9-2.8,1.8-5.4,1.1-2.8-.7-5-2.8-4.3-4.2Z" fill="#fff"/>
    </g>
    <path id="Path_16782" data-name="Path 16782" d="M269.8,220.3l-.5-1.26A7.741,7.741,0,0,0,269.8,220.3Zm-42.38-16.27h.07l.35-.01-.42.01Zm22.2-29.93-.03-.14Zm10.1-42.44.12.63C259.87,132.27,259.84,132.11,259.72,131.66Zm-7.58,21.84c-.02-.05-.03-.1-.05-.14A.51.51,0,0,0,252.14,153.5Zm11.88,2.63c0-.01-.01-.02-.01-.03a.749.749,0,0,1-.05-.16l.06.2Zm.37,44.17-.02-.7C264.34,199.62,264.34,199.8,264.39,200.3Zm-39.58-48.25.04.16Zm38.36,21.5v.04c.01.06.03.12.04.17l-.04-.2Zm-74.58-10.66-.26.8A2.7,2.7,0,0,0,188.59,162.89Zm54.5-41.08-.03-.2Zm19.67,84.18.02.04C262.79,206.01,262.79,206,262.76,205.99ZM178.7,194.2c0-.02.01-.03.01-.04l.04-.22-.05.26Zm-30.64-62.03-.15.16C148.01,132.23,148.06,132.19,148.06,132.17Zm27.96,33.16a.138.138,0,0,0-.04.03l-.18.15.22-.18ZM150.6,184.77a.43.43,0,0,1,.07-.1Zm-28.34,10.57c0-.01.01-.02.01-.03l.03-.14Z"/>
    <path id="Path_16783" data-name="Path 16783" d="M345.35,101.98a1.694,1.694,0,0,0-1.23-1.04l-4.78-1a1.9,1.9,0,0,0-.4-.05,1.535,1.535,0,0,0-1.2.6l-7.8,8.9c-1.27.4-6.73,2.08-8.23,3.32-1.7,1.3-4.8,3.2-5,5.3a15.565,15.565,0,0,1-1.9,6.6c-1.06,1.97-8.58,9.02-12.18,12.34l-1.12-1.14a1.983,1.983,0,0,0-2.6-.2c-3.8,3-14,11.1-17.2,13-4,2.3-8.1,2.3-14.1-3.5-2.84-2.7-5.68-7.03-7.9-10.9l-1.85-6.37c-6.3-21.58-17.73-24.42-17.73-24.42l.17.68a30.135,30.135,0,0,0-13.17-4.32,38.781,38.781,0,0,0-8.6-.66,39.529,39.529,0,0,0-12.3,1.08c-16.8,4-40.7,13.4-59.2,31.9-18,18-26.7,39.2-33.1,60.6a2.619,2.619,0,0,0,1.3,3.2l6.75,2.9-2.95,9.9a28.5,28.5,0,0,0-4,13.2c-.4,7.8-.04,8.54.1,9.65s1.95.55,1.95.55-.3,2.92.9,3.52c1.42.5,2.13-1.28,2.13-1.28a1.322,1.322,0,0,0,1.3,1.35c1.36-.13,2.06-2.37,3.07-4.4,1.2-2.43,3.43-7.5,3.83-8.4.4-1,.2,2.4.2,4.1,0,1.8,1.8,3.1,2.4,0s1.5-5.6,1.6-6.5a34.844,34.844,0,0,0,0-4.6l.1-1.3s-.2-1.2,1.5-4c.4-.64,1.63-2.56,3.34-5.18l6.26,2.68a1.864,1.864,0,0,0,2.6-1.2c2.3-7.6,11.8-34.1,33.1-45,3.57-1.83,6.84-3.43,9.88-4.85l-13.78,54.15c-2.3,8.1,1.3,8.2,8,8.2,5,0,40-1.2,47.5-2.9,4.76-1.08,8.47-4.14,10.9-9.8h23.84c1,4.7,2.2,7.52,6.36,9.8,5.3,2.9,7.7.3,6.4-3.2-.46-1.2-2.25-9.24-4.7-20.2,4.83-.9,9.95-3.47,16.6-7.9,12.1-8.1,24.6-24.4,28.2-29.4a2.118,2.118,0,0,0-.2-2.7l-4.02-4.1,9.28-12.68,1.33-.9,6.1-4.6c1.42-1.07,8.45-12.83,10.06-15.68.46-.22,1.16-1.65,1.54-2.22.9-1.4-1.06-2.64-2.36-3.43l4.77-5.88a1.73,1.73,0,0,0,.23-1.64Z" fill="#fff"/>
    <path id="Path_16784" data-name="Path 16784" d="M151.98,191.04l.48-.8A3.838,3.838,0,0,0,151.98,191.04Zm179.37-80.1a.143.143,0,0,0,.02-.03.123.123,0,0,0-.02.03Zm-22.77,59.3h0l-.1.23Zm-87.66-69.86-.4.03C221.22,100.49,221.25,100.46,220.92,100.38Z"/>
    <path id="Path_16785" data-name="Path 16785" d="M219.46,100.3l-.4.08a4.794,4.794,0,0,0,1.46.05l-.36-.04c-.27-.01-.75-.06-.7-.1Z"/>
    <path id="Path_16786" data-name="Path 16786" d="M345.8,101.8a2.116,2.116,0,0,0-1.58-1.34l-4.8-1a2.28,2.28,0,0,0-.5-.06,1.984,1.984,0,0,0-1.6.8l-7.34,8.4-.74.24-.6.2-1.26.46-2.94,1.14a16.459,16.459,0,0,0-2.78,1.3l-1.94,1.34-1.9,1.5a7.631,7.631,0,0,0-1.02,1.13,4.426,4.426,0,0,0-.82,1.8,4.255,4.255,0,0,0-.07.48l-.05.42-.1.84c-.08.55-.2,1.1-.33,1.64a14.42,14.42,0,0,1-1.19,3.05c-.28.85-1.7,2.17-2.45,3.13l-.38.3a8.786,8.786,0,0,1-.94,1v-.03c-.4.5-.95.98-1.16,1.22v-.03l-.55.55.08-.1c-.76.83-1.6,1.63-2.35,2.3h.12l-3.62,3.36v-.03a1.209,1.209,0,0,1-.16.16l-.05-.05a9.569,9.569,0,0,0-1.16-1.06,2.79,2.79,0,0,0-1.69-.44,3.17,3.17,0,0,0-.93.2,3.372,3.372,0,0,0-.83.5,17.145,17.145,0,0,1-2.33,2.17c.42-.47-.18.03-.75.48.35-.3.44-.42-.35.1a4.221,4.221,0,0,1-.37.38c-.01,0-.04.02-.04,0-.92.77-.74.67-.3.33-.01.03.04.02.2-.07-1.06.66-2.73,2.15-2.96,2.1l-7.14,5.77c-.33.12.2-.35.87-.9l-1.7,1.27c-.06-.12.94-.77,1.46-1.17-2.17,1.25-4.04,3.44-6.84,3.65a4.974,4.974,0,0,1-.55.16h-.16a2.316,2.316,0,0,1-1.02.12c-.2-.1-.17-.15-.28-.22a5.567,5.567,0,0,0-.98-.3l-1.96-.8a14.943,14.943,0,0,1-2.13-1.2c.63.5.4.4.08.22-.58-.43-.84-.76-1.3-1.1l.05-.17c.1.32-1.52-1.12-1.75-1.27-.22-.36.9.7,1.08.75l-1.56-1.5-.24-.24.48,3,1.7,1.4a16.082,16.082,0,0,0,4.77,2.7,9.3,9.3,0,0,0,4.56.33,11.7,11.7,0,0,0,4.2-1.7c1.33-.85,2.7-1.85,4.36-3.12,3.2-2.37,6.5-5.03,9.54-7.46a34.811,34.811,0,0,1,2.68-2.25.865.865,0,0,1,.83-.2.791.791,0,0,1,.37.2l.6.55.5.7a17.966,17.966,0,0,1,1.7,1.68h-.06c.85.74,1.7,1.68,2.1,2.05l-.06-.01.96.96-.2-.13c1.43,1.33,2.85,2.77,4.06,4.07v-.2c2.54,2.83,3.72,3.6,5.98,6.2l-.06-.01q.588.505,1.15,1.04c.43.4.52.48.62.76a1.2,1.2,0,0,1-.01.75,1.524,1.524,0,0,1-.17.3l-.4.5c-1.07,1.35-2.16,2.7-3.4,4.54.3-.46-.2.14-.2.08-1.23,1.63-2.6,3.33-2.4,3.54-.95,1.15-.84.88-1.05.96a8.89,8.89,0,0,1-1.45,2l.3-.44-2.16,2.54.6-.34c-1.23,1.28-.5.15-1.6,1.44l.16.12a60.578,60.578,0,0,1-4.65,4.2,91.362,91.362,0,0,1-11.24,9.8,71.009,71.009,0,0,1-6.24,3.97,33.79,33.79,0,0,1-6.36,2.88h-.42c-.2-.1-2.24,1.04-2.63.9l-.07.02a5.938,5.938,0,0,0-.27-.8c.26.65-.1-1.2.14-.7a26.208,26.208,0,0,1-1.1-4.44l.06.2c-.72-3.83-1.65-6.45-2.26-9.9-.1.2-.44-1.63-.52-1.14-.98-3.48-1.1-6.5-1.96-7.64a25.607,25.607,0,0,1-.47-2.76l.12.37-1.48-6.08a19.846,19.846,0,0,1-1.04-3.2c.26.62.04-.2-.14-.93.13.47.2.6.04-.38a3.49,3.49,0,0,1-.2-.53c.01-.01,0-.05.02-.03-.34-1.23-.32-1-.2-.43-.02-.03-.03.03-.02.2-.18-1.32-.88-3.6-.75-3.8-.97-3.72-1.82-6.34-2.7-9.4,0-.37.27.33.54,1.22l-.6-2.2a9.009,9.009,0,0,1,.6,1.9c-.46-2.67-1.64-5.33-2.28-8.44l-.28-.6-.04-.2a4.619,4.619,0,0,1-.47-1.08c-.01-.46.27-.04-.18-1.55a36.7,36.7,0,0,0-1.65-4.9c.25.85.1.6-.05.25a12.959,12.959,0,0,0-.55-1.77l.1-.1a22.867,22.867,0,0,1-1.04-2.15c-.06-.46.54,1.1.7,1.26a45.771,45.771,0,0,0-1.9-4.37c-.83-1.48,0,.34-.47-.33l-2.36-4.02.17.53-1.08-1.57-.97-1.28c-.57-.83-1.17-1.5-1.7-2.26a23.175,23.175,0,0,0-4.82-3.66,23.381,23.381,0,0,0-4.02-2.74,29.907,29.907,0,0,0-8.43-3c-.46-.1-.92-.16-1.38-.23a28.742,28.742,0,0,0-3.91-.71,4.834,4.834,0,0,0-1.3-.1,36.31,36.31,0,0,0-7-.2,39.15,39.15,0,0,0-6.7.3,88.58,88.58,0,0,0-10.82,2.33l-.65.03c-.32-.12-3.66,1.44-4.23,1.45l-1.53.62c-.45.1-1.4.4-.63.08a19.031,19.031,0,0,0-2.48,1l-1.6.45a125.576,125.576,0,0,0-15.88,7.37,98.173,98.173,0,0,0-12.7,7.76l-3.35,2.5-3.15,2.56c-1.97,1.75-3.83,3.35-5.27,4.84a149.187,149.187,0,0,0-12.34,13.68,89.761,89.761,0,0,0-10,15.7,7.328,7.328,0,0,0-.38.75,2.038,2.038,0,0,0-.2.5c-1.66,3.23-3.23,6.5-4.64,9.85l-.85,2.02-1.96,5.06c-1.52,4.04-3.13,9.13-4.24,13.06l-.4,1.4a12.314,12.314,0,0,0-.33,1.36,3.27,3.27,0,0,0,.58,2.44,2.2,2.2,0,0,0,1.17.86c.26.08.3.03.18-.1a3.738,3.738,0,0,1-.87-.96,2.859,2.859,0,0,1-.1-2.6l3.9-10.18-.04.27,4.82-12.8c.5-.48,2-4.4,2.7-5.6l-.04.13a43.23,43.23,0,0,1,2.47-4.9c.88-1.6,1.85-3.14,2.63-4.7a3.269,3.269,0,0,1-.4.92l.97-1.74,1.02-1.66a9.762,9.762,0,0,1,1.26-1.8l2.7-4c1.02-1.35,2-2.78,3.04-4.07,2.03-2.64,4.04-4.94,5.22-6.47l-.14.23c1.38-1.7,1.93-2.1,3.6-3.9.1-.08.25-.2.23-.16q1.578-1.7,3.31-3.24l3.23-2.82.17.01,3.73-2.97-1.42,1.08c.28-.65,2.97-2.05,5.7-4.18,2.7-1.78,5.16-4.15,8.18-5.68,1.33-.9-1.12.9.92-.38.15.1-.93.64-.33.45,2-1.25,3.47-1.7,6-3.14l.16.06c3.3-1.86,6.54-2.88,8.8-4.02,3.6-1.56,2.57-.63,6.3-2.28l1.55-.35a29.541,29.541,0,0,1,2.98-1.1c-.08.14,2.35-.64,1.3-.2l3.2-.9,3.34-.94a37.4,37.4,0,0,1,4.83-1.01l2.45.42c1-.3,2-.56,2.98-.8a14.218,14.218,0,0,0,2.54-.14c.05,0,.1-.01.15-.01.5.07,1.4.17,2.08.25l.72.15a6.7,6.7,0,0,1,1.95.01l1.6-.2c2.1.3,4.15.84,6.05,1.3a2.575,2.575,0,0,1-.9-.15,18.738,18.738,0,0,1,3.27,1.14,4.929,4.929,0,0,1,1.58,1.07,18.137,18.137,0,0,1,5.73,6.44,24.949,24.949,0,0,1,2.35,6.95l-.08-.23a47.761,47.761,0,0,1,.62,4.82,1.46,1.46,0,0,1-.02.26c.37,2.18.53,6.42.7,8.2l-.1.12.3,4.4-.07-1.64c.33.55.01,3.33.36,6.5.12,2.98.9,6.02.9,9.13.2,1.47-.27-1.3-.1.9-.16.08-.13-1.03-.24-.45.14,2.17-.04,3.56.14,6.24l-.12.1c.32,3.5-.02,6.6.22,8.9.15,3.6-.35,2.42-.1,6.16l-.17,1.46c-.04,1.6.2,1.15.1,2.93-.1-.1-.12,2.24-.2,1.2-.22,4,.04,8.17-.56,13.42.1,1.16-.23,3.8-.14,4.66-.05.07-.2,1.38-.34,2.3s-.26,1.45-.14-.02a2.125,2.125,0,0,1,.1-.66l-.08-.37c-.6,2.9-.66,5.36-1.54,8.14.3-.8.56-1.93.45-1.16-.2.88-.53,1.72-.8,2.58l.08-.57a26.813,26.813,0,0,1-1.6,3.63l.35-.43a34.119,34.119,0,0,1-2.7,3.88c-.56.8,1.3-1.26.02.3a13.7,13.7,0,0,1-3.64,2.62,15.874,15.874,0,0,1-4.83,1.4c.34.1-.56.23-1.5.38l-.12-.1c-3.6.58-1.34-.1-4.94.37l.3-.1-.93.34c-3.25.5-1.78-.1-5.4.48,1.44-.1.7.23-1.08.3l.44-.15c-.98.1-1.3.16-1.96.18.58-.1.3-.2-1.14-.1l.96-.2-2.72.38c-2.1-.01-5.45.32-6.32.2,0,0-4.54.13-5.57.35.9-.15-1.6-.1-.9-.26a43.193,43.193,0,0,1-6.03.33l.26-.03c-2.57.02-4.77.14-6.9.23a37.733,37.733,0,0,1-6.37-.1c.1.1-.43.05-.9-.01-.45-.06-.83-.14-.6.01a3.763,3.763,0,0,1-1.3-.52,1.948,1.948,0,0,1-.68-.93,5.587,5.587,0,0,1-.1-2.48,25.309,25.309,0,0,0,.65-3.9c.56-2.12.8-2.46,1.12-3.54l-.1.5,2.04-8.04a34.07,34.07,0,0,1,.85-4.38c-.1.87.14-.2.4-1.18-.14.63-.16.84.24-.44a6.25,6.25,0,0,1,.12-.74c.01-.01.03-.06.03-.03.38-1.65.27-1.37.07-.6-.01-.04-.04.02-.13.24.56-1.67,1.2-4.74,1.42-4.9l2.87-12.63c.2-.44.05.54-.22,1.74l.7-2.92a16.635,16.635,0,0,1-.54,2.6c1.08-3.4,1.58-7.2,2.8-11.2l.1-.87.08-.24a7.521,7.521,0,0,1,.23-1.54c.26-.55.25.1.75-1.9a21.561,21.561,0,0,0,.57-2.18l.2-.1-.05.06c1.5-.8,3.3-1.56,4.05-1.94l-.05.06,1.9-.86-.3.2q3.959-1.881,8.08-3.39l-.26-.06,7.52-2.72,1.94-2.9c-3.6,1.17-6.58,2.4-10.2,3.65.26.04-2.25.95-1.57.9-4.8,2.1-8.94,3.38-10.42,4.7-2.14,1.03-2.62,1.05-3.73,1.57l.5-.27-8.1,4.04c-1.44.84-1.53,1.23-4.16,2.66.4-.3.32-.27.04-.12-.28.17-.75.52-1.2.84.57-.43.74-.6-.5.2a6.673,6.673,0,0,1-.64.53c-.01,0-.07.03-.05,0-1.5,1.1-1.22.95-.5.46-.03.04.05.01.28-.12a12.592,12.592,0,0,0-1.38.94l-1.38,1.15a10.049,10.049,0,0,1-1.74,1.33l-2.78,2.8c-.85.9-1.57,1.83-2.32,2.7-.76.85-1.4,1.77-2.06,2.66s-1.35,1.78-1.98,2.76c-.36.38.15-.58.95-1.67-.67.87-1.26,1.8-1.9,2.7a14.79,14.79,0,0,1,1.6-2.44c-2.5,3.07-4.4,6.8-6.74,10.76l-.34.9-.14.24a8.758,8.758,0,0,1-.65,1.58c-.4.53-.23-.16-1.2,1.9a54.915,54.915,0,0,0-2.83,6.92c.5-1.17.4-.77.23-.25-.4,1.06-.73,1.64-1,2.48l-.15.04c.05.2-.86,2.9-.9,3.3-.3.6.44-1.72.46-2-.37,1.08-.57,1.78-.72,2.25a4.171,4.171,0,0,1-.16.48,1.1,1.1,0,0,1-.15.24,1.16,1.16,0,0,1-.53.37,1.126,1.126,0,0,1-.57.04,2.049,2.049,0,0,1-.44-.15l-.7-.3c-2.27-.84.34.3-.78-.02-1.98-.8-3.94-1.53-6.15-2.58l.66.43c-3.73-1.48-5.93-2.44-8.36-3.63-23.9-9.17-11.6-3.42-7.54-1.57-.22.74-.43,1.46-.58,2.08l-.3.74c-.17.68-.38,1.48-.62,2.14l-.01-.05c-.25,1.02-.6,2.14-.73,2.65l-.01-.05-.33,1.17a.692.692,0,0,1,.02-.16l-.04.14a.037.037,0,0,1-.01.03l-.17.3-.34.63q-.327.624-.63,1.26c-.4.84-.74,1.68-1.06,2.46l.13-.1a21.621,21.621,0,0,0-1.21,4.05c-.25,1.17-.42,2.3-.62,3.92V221q-.054,2.637-.21,5.27a18.946,18.946,0,0,0,.3,5.43c-.1-.55-.02.22,0,.28a1.288,1.288,0,0,0,.6.74,2.136,2.136,0,0,0,.82.23,1.107,1.107,0,0,0,.27,0l.07-.01a.573.573,0,0,0,.14-.04c.03.14.02.12.08.62.05.35.12.57.18.57a4.937,4.937,0,0,0,.3,1.2c.04.14.02.15.05.27.06-.05.18.36.85.62a1.8,1.8,0,0,0,.98.02,2.131,2.131,0,0,0,.84-.47,2.2,2.2,0,0,1-.43.34,2.421,2.421,0,0,0,.39-.27.861.861,0,0,0,.14-.14.934.934,0,0,0,.12-.18l.05-.1c.02-.03.03-.1.03-.03a.654.654,0,0,0,.13.35,1.67,1.67,0,0,0,.52.37,1.113,1.113,0,0,1-.44-.5l-.01-.02a.035.035,0,0,0,.01.02,1.536,1.536,0,0,0,.37.33,1.875,1.875,0,0,0,.32.16c.12.04.2.08.28.1s.4.22,1.2-.35l-.1-.08a4.5,4.5,0,0,0,1.08-1.3c.26-.42.48-.83.7-1.23l1.25-2.3,2.18-4.8.28-.63.07-.15c.01-.02.02-.05.04-.05.03.03.02.07.03.1a4.1,4.1,0,0,1,.02.5v.9a3.22,3.22,0,0,0,.53,2,1.555,1.555,0,0,0,1.1.68,1.359,1.359,0,0,0,1.15-.63,4.67,4.67,0,0,0,.66-1.84c.22-1.13.5-2.24.8-3.34l.46-1.64.22-.84a5.784,5.784,0,0,0,.14-.9c.08-1.15.08-2.24.07-3.34l.07-.4a.487.487,0,0,0,.02-.24c0-.12-.03-.32-.03-.38v-1.34a1.76,1.76,0,0,1,0-.33.766.766,0,0,1,.07-.25c.05-.3.12-.6.2-.9.1-.24.36-.74.2-.3l.64-1.4c.18-.26.37-.53.57-.8.86-1.3,1.63-2.53,2.4-3.76l5.64,2.3a3.923,3.923,0,0,0,1.4.38,3.02,3.02,0,0,0,1.66-.39,3.066,3.066,0,0,0,1.2-1.27,9.527,9.527,0,0,0,.42-1.26c.42-1.43.94-2.97,1.53-4.6a91.942,91.942,0,0,1,5.9-12.5,95.883,95.883,0,0,1,7.8-11.75,58.511,58.511,0,0,1,13.16-12.35,22.439,22.439,0,0,1,2.02-1.3c.78-.45,1.58-.97,2.5-1.4q2.581-1.269,5.11-2.64l1.2-.45.77-.42c-1.63,6.12-2.7,9.84-4.8,18.52l-4.1,16.5c-.43,2.56-1.77,6.94-2.36,9.95l-.42,1.12a26.651,26.651,0,0,1-.82,3.25l-.02-.07c-.16.77-.38,1.57-.57,2.28s-.36,1.4-.43,1.8l-.02-.08c-.1.68-.26,1.33-.3,2.05l-.02-.37a8.556,8.556,0,0,0,.1,2.4,4.268,4.268,0,0,0,1.24,2.4,5.29,5.29,0,0,0,2.22,1.2,13.17,13.17,0,0,0,2.09.37l-.2-.16a29.947,29.947,0,0,0,3.56.18q1.405-.005,2.81-.06c1.77-.07,3.46-.15,5.88-.13l-.06.04c6.08-.6,9.65-.1,15.92-.77-.78.1.34.06.28.1,2.9-.2,5.98-.4,6-.68,2.1-.13,1.72-.02,2,.07a18.339,18.339,0,0,1,3.45-.42l-.75.1,4.7-.4-.95-.15c2.5-.15.66.24,3.05-.05l-.05-.2,4.5-.34a16.958,16.958,0,0,0,4.5-.93,14.429,14.429,0,0,0,4.64-3.14,18.965,18.965,0,0,0,3.28-4.54q.209-.421.4-.85c7.46.18,12.1-.17,21.67-.27h.77a13.674,13.674,0,0,0,2.45,5.9c-.35-.55-.63-1.08-.3-.64a11.331,11.331,0,0,0,1.38,1.84,3.79,3.79,0,0,1-.4-.3,12.054,12.054,0,0,0,2.57,2.28l-.3-.37c.66.5,1.1.82,1.6,1.14a6.3,6.3,0,0,0,2,.82c.44.08.05-.08-.2-.2-.24-.15-.4-.2.45.05a5.071,5.071,0,0,0,.88.26,4.557,4.557,0,0,0,1.03.15,4.046,4.046,0,0,0,2.47-.57,3.485,3.485,0,0,0,1.5-2.43,5.384,5.384,0,0,0-.23-2.5c-.02.16-.1.04-.2-.22a8.217,8.217,0,0,1-.28-.84l.1-.1c-.83-2.58.01-1.02-.75-3.64l.14.22-.42-.65c-.8-2.36-.05-1.36-1-3.97.26,1.06-.15.56-.4-.76l.2.3a12.7,12.7,0,0,1-.38-1.44c.16.42.22.2-.04-.87l.3.68-.67-1.97c-.22-1.6-.94-4.02-.9-4.7,0,0-.13-.66-.3-1.46a6.62,6.62,0,0,1,1.18-.38c-.05.12,1.6-.38.9-.07,2.9-.76,5.47-2.43,8.9-4.1.6-.6,2.32-1.5,2.74-1.97.13.02,3.22-2.08,1.53-.74-.15.1-.42.3-.42.25l-.15.24a14.706,14.706,0,0,0,1.36-.79c.42-.3.8-.6,1.2-.9.8-.6,1.52-1.28,2.38-1.94-.53.36-1.2.9-.8.48l1.6-1.22-.26.34c.8-.6,1.55-1.25,2.33-1.87l-.4.17a14.988,14.988,0,0,0,2.76-2.33c.48-.57-1.14.8-.03-.26,1.47-1.27,3.65-3.2,5.38-5-.26.07.2-.4.65-.93l.15.03c1.66-2.04.86-.53,2.5-2.54l.18-.46c1.36-1.94,1.05-.77,2.48-3-.65.8-.52.2.34-.74l-.12.32c.44-.55.55-.76.86-1.1-.22.36-.01.28.64-.53l-.32.63,1.07-1.65c1.05-1.1,2.4-3.07,2.9-3.46a28.267,28.267,0,0,0,2.32-3.25c-.3.6.8-.82.6-.33.03-.07.14-.24.25-.47a4.69,4.69,0,0,0,.27-.75,3.558,3.558,0,0,0-.1-1.82,3.428,3.428,0,0,0-.42-.86c-.1-.13-.2-.26-.3-.37-.08-.08-.15-.16-.22-.24a6.6,6.6,0,0,1-.63-.74l.14.12c-1.1-1.2-2.1-2.2-3.08-3.14l1.26-1.63.2-.14c.16-.01.7-1.3.92-1.38l.32-.53c.12-.13.36-.4.2-.14a6.584,6.584,0,0,0,.54-.83l.43-.45c1.38-1.78,2.38-3.4,3.8-5.3l.5-.62.5-.63.88-.58c.34-.22.66-.47,1-.72l2.02-1.57,1.95-1.54.9-.7a8.493,8.493,0,0,0,.82-.7c.77-.94,1.33-1.86,2-2.83l1.94-2.93a67.023,67.023,0,0,0,3.58-5.95,2.35,2.35,0,0,0,.23-.46l.5-.85a2.814,2.814,0,0,0,1.2-1.4,1.183,1.183,0,0,0,.2-1l.14-.24.43-.75.13-.23a3.3,3.3,0,0,0,1-.96,1.592,1.592,0,0,0,.3-1.3,5.089,5.089,0,0,0-2.34-2.5l4.55-5.6a2.23,2.23,0,0,0,.37-2.2ZM135.08,208.36a14.052,14.052,0,0,1-1.15,1.66,7.055,7.055,0,0,0-1.05,1.86c-.17.3-.34.6-.5.9a3.794,3.794,0,0,0-.23.93l-.03.35c0,.14-.03.26-.02.53-.01.07-.02.15-.03.25-.06-.08-.17,1.5-.17.8a2.839,2.839,0,0,0-.02.58l.02.5.03,1q.033,1.045.02,2.09a4.52,4.52,0,0,1-.1,1q-.117.556-.28,1.1l-.72,2.42c-.04.4-.18,1.02-.3,1.62-.12.62-.23,1.2-.25,1.43-.02.02-.1.22-.2.45a.836.836,0,0,1-.34.45c-.1.04-.18,0-.18-.02s.05.02.15-.06c.03-.02.07-.07.1-.08l.02-.16c-.05.04-.1.13-.12.13a.06.06,0,0,1-.04.01.084.084,0,0,1-.06-.02.985.985,0,0,1-.18-.23,1.93,1.93,0,0,1-.18-.44,5.11,5.11,0,0,1-.1-1.26l.01-2.5c-.01,1.02-.05,2.4-.08,1.52a7,7,0,0,0-.17-2.53,1,1,0,0,1,.16.18,1.216,1.216,0,0,0-.47-.75c-.13-.04-.15-.05-.2.03l-.17.33-.34.65.18-.28c-.64,1.24-.9,1.58-1.65,3.16-.32.7.64-1.13-.04.25l-1.6,3.02-.92,1.72c-.3.56-.55,1.1-.8,1.62.17-.16-.1.4-.35.96l-.1.03c-.5,1.04-.7,1.06-.83,1.16-.07.03-.14.07-.26.12a.587.587,0,0,1-.2.06c.04.02-.16,0-.25-.03l.1-.02a.785.785,0,0,1-.14.02h-.07c-.01-.01-.02.01-.04-.01l-.08-.1a.56.56,0,0,1-.09-.22c-.08-.02-.14-.03-.2-.05l2.78-8.54a.51.51,0,0,0-.32-.63.493.493,0,0,0-.63.32l-2.8,8.6v.04a1.917,1.917,0,0,1-.22-.03,2.262,2.262,0,0,1-.54.67.723.723,0,0,1-.56.18c.27.05.33.03.25.1a.391.391,0,0,1-.27.03c-.08-.02-.12-.01-.16-.05-.06-.02-.12-.1-.18-.17a.849.849,0,0,0,.17.08,1.5,1.5,0,0,1-.44-.84c.14.3.1.17-.02-.68a3.952,3.952,0,0,0,.17.55,5.841,5.841,0,0,1-.2-1.93c0-.01.01-.01.01-.02l1.56-7.25a.5.5,0,1,0-.98-.22l-1.48,6.88c-.01,0-.03.01-.04.01a2.844,2.844,0,0,1-.5.06,1.413,1.413,0,0,1-.22-.01.488.488,0,0,1-.22-.06.222.222,0,0,1-.08-.13,6.651,6.651,0,0,1-.15-1.5s-.05-.72-.06-1.55-.02-1.75-.06-2.1c.06.6.12-1.05.2-.58a28.674,28.674,0,0,1,.1-4v.17a27.669,27.669,0,0,1,1.78-8.48c-.14.1.5-1.36.25-1.04a16.4,16.4,0,0,1,.92-2.02c.17-.3.33-.6.5-.87.08-.13.17-.26.25-.4a.932.932,0,0,0,.17-.33l.07-.23a10.657,10.657,0,0,0,.63-2.64c.4-1.4.56-1.62.8-2.33l-.08.33,1.08-3.7a.109.109,0,0,1,.04.02c5.35,2.46,9.45,4.2,13.84,5.98l.35.14a19.478,19.478,0,0,0-1.28,2Zm129.55-2.16c-.14,0-.23-.01-.37-.02l-.5-.03a5.627,5.627,0,0,0-.92-.01l-.06-.12c-.12.12-2.25.13-2.54.2-.48-.12,1.3-.1,1.52-.2l-5.08.02c-1.8.12.33.15-.54.3-1.6.03-3.15.14-4.98.05l.58.14a59.217,59.217,0,0,1-6.8-.05l-1.93.1a36.469,36.469,0,0,0,2.1-8.1c.56-3.57.75-7.1.98-10.55l.52-10.06.16-.57c.22-.25-.27-3.6-.06-4.08l-.1-1.5c.04-.42.08-1.32.13-.57a20.454,20.454,0,0,0-.1-2.44l.13-1.5c.06-5.5-.27-10.2-.4-15.98.04-3.48-.18-8.5-.48-13.57q-.443-7-1.12-13.98c-.3-2.65-.5-5.38-.94-8.24a21.945,21.945,0,0,0-3.17-8.26,19.215,19.215,0,0,0-2.43-3.03,14.778,14.778,0,0,1,1.46,1.02c.45.33.93.65,1.68,1.13.7.4-1.1-1.04.27-.06.42.33.83.76,1.3,1.2.42.47.92.93,1.34,1.5a26.008,26.008,0,0,1,2.37,3.48c-.02-.3.38.33.78.98l-.06.14c1.53,2.48.3,1.04,1.65,3.58l-.18-.2.55.6c1.22,2.34.32,1.4,1.6,4.03-.4-1.1.1-.6.5.77l-.23-.3a12.213,12.213,0,0,1,.53,1.5c-.2-.43-.24-.2.12.92l-.37-.7c.3.68.57,1.36.83,2.05.35,1.67,1.16,4.26,1.16,5l.43,1.9a16.448,16.448,0,0,0,.7,2.5c-.27-.7.12,1.3-.14.76a26.338,26.338,0,0,1,1.1,4.78l-.06-.2c.68,4.12,1.52,6.98,1.96,10.7.12-.2.35,1.78.46,1.27.8,3.8.7,7.06,1.48,8.37a27.24,27.24,0,0,1,.26,3l-.1-.4.96,6.67a22.386,22.386,0,0,1,.73,3.56c-.2-.7-.06.2.04,1-.08-.52-.14-.68-.07.4.05.15.1.38.15.6-.01.01-.01.05-.02.03.2,1.36.22,1.12.15.48.02.03.03-.03.04-.23.05,1.43.5,3.95.35,4.14.55,4.1,1.1,7,1.56,10.43-.05.4-.22-.4-.38-1.38l.32,2.42a10.006,10.006,0,0,1-.35-2.13c.12,2.9.9,5.93,1.1,9.34l.18.7v.2a6.7,6.7,0,0,1,.3,1.24c-.06.5-.27,0-.08,1.67.02.67.13,1.6.27,2.6l.03.2.02.08.03.17.07.36.02.1c-.01.02-.05.01-.07.01l-.16.02-.33.03c.46.01.37.08.14.12Zm.44,2.3c-.06-.2-.14-.54-.1-.52l-.12-.16h.22l.14.65c.18.72.26,1.15-.14.03Zm10-6.5c.35,1.55.2,1.28.14,1.5a9.641,9.641,0,0,1,.76,2.5l-.17-.55.84,3.47.07-.74c.37,1.86-.18.53.3,2.3l.18-.07c.15.64.26,1.22.36,1.76l.33,1.6a2.9,2.9,0,0,1-.32,2.4,1.4,1.4,0,0,1-1,.57,4.075,4.075,0,0,1-1.57-.1,12.291,12.291,0,0,1-3.35-1.5,9.571,9.571,0,0,1-2.72-2.46,11.633,11.633,0,0,1-1.65-3.35q-.24-.75-.42-1.5h.07c.02-.01.08.01.07-.01v-.1l-.03-.35q-.027-.341-.07-.68l-.13-1.33-.25-2.8-.4-4.6c-.26-2.94-.56-5.92-1.18-10.66l-1.78-13.74c-.47-2.07-.77-5.8-1.3-8.25l-.02-.98a20.488,20.488,0,0,1-.42-2.7l.04.05c-.26-1.26-.43-2.7-.57-3.33l.04.05-.25-1.54.1.26c-.42-2.2-.8-4.5-1.08-6.5l-.12.2c-.56-4.33-1.14-5.85-1.7-9.76l.04.05c-1.36-4.8-1.33-7.77-2.93-12.68.2.6,0-.28.05-.24-.62-2.3-1.37-4.72-1.66-4.67-.5-1.66-.33-1.37-.3-1.62a12.954,12.954,0,0,1-1.1-2.64l.26.57c-.45-1.2-.93-2.42-1.48-3.6l.1.8c-.78-1.9.08-.6-.84-2.37l-.16.1-1.56-3.22c.84,1.04,1.6,2.1,2.34,3.2a47.141,47.141,0,0,1,5.05,10.12c1.28,4,1.9,6.64,2.6,9.27l2.5,9.58,3.16,12.42c.67,1.85,1.26,5.26,1.97,7.47l.1.9a14.718,14.718,0,0,1,.6,2.46l-.05-.04c.36,1.14.6,2.46.8,3.03l-.05-.04.34,1.4-.1-.23c.56,2,1.04,4.1,1.42,5.94l.1-.18c.74,3.97,1.35,5.34,1.97,8.94l-.05-.04c1.38,4.4,1.34,7.16,2.73,11.7-.17-.57-.02.26-.06.22.57,2.12,1.1,4.4,1.4,4.36Zm61-79.8c-1.13,1.96-2.83,4.63-3.5,5.92l.03-.1a13.509,13.509,0,0,1-1.06,1.66c-.04.03-.08.08-.08.07a3.29,3.29,0,0,1-1.11,1.18c-.5.38-1,.74-1.3.98l-.08-.03-1.43,1.1.54-.4c-.08.3-1.15.73-2.12,1.6a8.882,8.882,0,0,0-1.17,1.05,14.481,14.481,0,0,1-1.24,1.04,5,5,0,0,1-.36.48c-.3.54.2-.5-.28.26-.1-.03.2-.38,0-.23-.5.74-.94,1.12-1.53,2.04h-.1c-.73,1.23-1.67,2.12-2.13,2.96-.82,1.22-.76.67-1.55,2l-.43.42c-.4.52-.18.45-.65,1-.03-.07-.58.7-.38.33-.54.66-1.03,1.38-1.56,2.15q-1.451-1.385-2.79-2.88c0,.2-1.15-1.1-1-.65-2.5-2.3-4.06-4.7-5.32-5.17a19.913,19.913,0,0,1-1.72-2l.28.24-.3-.3c1.42-1.26,2.35-2.36,3.7-3.5-.12,0,.63-.66.38-.57,1.34-1.43,2.72-2.33,2.98-3.07a10.315,10.315,0,0,1,1.14-1l-.14.16,2.3-2.52c.37-.53.35-.64,1-1.63-.13.35.1-.06.28-.44-.12.24-.13.33.16-.15a2.625,2.625,0,0,1,.1-.3c.01,0,.02-.02.02-.01.27-.66.2-.55.06-.25,0-.02-.02,0-.08.1.4-.63.73-1.9.85-1.97a13.742,13.742,0,0,0,.47-2.8c.03-.42.04-.87.1-1.2a3.471,3.471,0,0,1,.47-1.05c.16-.1-.05.22-.22.63a4.145,4.145,0,0,1,.6-.94c.05.06-.37.54-.5.85a11.388,11.388,0,0,1,3.2-3.13l.25-.26.1-.05a2.09,2.09,0,0,1,.46-.45c.23-.08.1.1.75-.36.52-.3,1.57-.9,2.37-1.26-.43.17-.3.08-.13-.02.4-.16.64-.18.93-.33l.07.07c-.2-.03,1-.47,1.13-.56.25-.01-.6.28-.67.36,1.58-.58.8-.3,2.4-.84.84-.35-.18-.03.2-.25l1.23-.44.12.14-.01.02c-.01.03-.02.05-.03.08a.58.58,0,0,0-.01.1,6.538,6.538,0,0,1-.17,1.57c-.36.66-.6.78-1,1.44-.23.3-.46.62-.7.9-.03.22-.35.34-.43.57h-.1a.249.249,0,0,1-.16.17l-.01-.02a1.114,1.114,0,0,1-.2.22l-.01-.02-.1.1v-.04a1.153,1.153,0,0,1-.43.37l.06.06c-.36.14-.37.37-.72.46l-.01-.02c-.24.43-.66.23-.93.64.03-.05-.04-.03-.05-.05-.17.12-.35.23-.28.4-.13.07-.13.01-.18-.04.04.07-.07.15-.17.2l.04-.05-.3.17.12.1c-.18.04-.1-.14-.25-.03l.05.1a1.631,1.631,0,0,1-.45.08c-.1.08-.27.24-.4.37a20.458,20.458,0,0,1-1.32,2.74h-.1c-.12-.04.05.32-.07.3v.13c-.03.02-.08.06-.1,0-.05.1-.03.1-.03.18l-.12.06c-.23.33-.25.7-.47,1.07a4.06,4.06,0,0,0-.5.78l-.55,1.17a1.037,1.037,0,0,0,.04.1.96.96,0,0,1,.08.26.5.5,0,0,0,.03.13.69.69,0,0,1,.1.04,1.861,1.861,0,0,1,.42.47,5.818,5.818,0,0,1,.58.46,2.449,2.449,0,0,0,.5.34c.01.03.08.04.1.03.17.15.32.32.5.5a12.257,12.257,0,0,0,1,.97c.42.34.8.37.32-1.03h.03a1.238,1.238,0,0,0-.7-.66c.1-.15-.23-.25-.26-.36h.02c-.28-.07-.32-.44-.6-.5.02,0,.05-.04.1,0-.15-.1-.4-.2-.34-.3l-.3-.18a1.19,1.19,0,0,0-.2-.1.5.5,0,0,0-.27.01l-.06.01.05-.02c-.24.07-.04-.03-.1-.06.02-.01.03-.01.04-.02-.04-.01-.03-.05-.01-.1.04-.06.1-.12.1-.16l.07.02.03-.07.05-.1,5.24,1.62.05.02h.05a2.573,2.573,0,0,0,.55.06,2.129,2.129,0,0,0,1.3-.42,6.15,6.15,0,0,0,2.45.88,4.869,4.869,0,0,0,1.2.1,2.643,2.643,0,0,0,2.9-2.5,1.487,1.487,0,0,0-.46-1.5c.12.01.24.01.36.01a5.075,5.075,0,0,0,1.7-.27c-.18.25-.3.4-.35.4Zm-15.02,1.6-.04.05c-.03-.03-.03-.05-.02-.07Zm6.55-.44a1.209,1.209,0,0,1-.3-1c0-.3.2-.5.4-.8a4.5,4.5,0,0,1,2.8-.1,6.373,6.373,0,0,0,.7.2c1.5.4,3.1.8,2.9,1.8-.3,1.4-.9,2.1-3.2,1.7a5.314,5.314,0,0,1-3.3-1.8Zm5.6-2.2a5.537,5.537,0,0,1-3.7-1.9,1.431,1.431,0,0,1-.3-1.1.891.891,0,0,1,.5-.8,3.064,3.064,0,0,1,1.7-.4,7.719,7.719,0,0,1,1.5.2,6.373,6.373,0,0,0,.7.2l.5.13a7.11,7.11,0,0,0,1.1.37c.3.1.63.17.94.25a2.77,2.77,0,0,1,1.26.85,1.268,1.268,0,0,1,.1.6c-.2,1-.9,2.1-4.3,1.6Zm5-2.35a1.76,1.76,0,0,0-.15-.44h.06c.13,0,.25-.01.38-.02-.1.15-.2.3-.3.46Zm2.2-2.55c-.53,1.15-1.43,1.53-3.1,1.3a11,11,0,0,0-3.6-1.2.681.681,0,0,1-.15-.02,4.724,4.724,0,0,1-1.95-1.88,1.211,1.211,0,0,1-.1-1c.7-1.4,3.5-.8,4.4-.4.2.1.3.1.5.2l1.24.47q.177.12.36.23a5.744,5.744,0,0,0,1.26.57,2.571,2.571,0,0,1,1.14,1.13.637.637,0,0,1,0,.6Zm2-4.4a.821.821,0,0,1-.1.7,2.075,2.075,0,0,1-2.9,1,12.572,12.572,0,0,0-1.43-.7,5.612,5.612,0,0,1-2.47-2.9,1.417,1.417,0,0,1,.1-1.1,1.374,1.374,0,0,1,.8-.5h.4a4.673,4.673,0,0,1,2.5.9,5.736,5.736,0,0,1,.7.4C340.8,110.16,342.2,111.06,342.4,111.86Zm2.3-8.5L340.12,109a.933.933,0,0,1-.22-.14,5.177,5.177,0,0,0-3.6-1.1,1.761,1.761,0,0,0-1.3.9,1.919,1.919,0,0,0-.2,1.7,5,5,0,0,0,.88,1.6c-1.55-.5-4.18-.7-4.98,1.1a2.046,2.046,0,0,0,.1,1.7,4.286,4.286,0,0,0,1,1.3,4.6,4.6,0,0,0-2.6.5,1.945,1.945,0,0,0-.9,1.4,2.265,2.265,0,0,0,.5,1.7,4.438,4.438,0,0,0,.93.9,3.669,3.669,0,0,0-2.43.4,2.223,2.223,0,0,0-.8,1.3,1.955,1.955,0,0,0,.4,1.6,3.66,3.66,0,0,0,.5.56,1.364,1.364,0,0,1-.44.08,1.393,1.393,0,0,1-.35-.04l-5.32-1.65c.01-.04.02-.1.05-.12-.03-.14.08.15.1-.02.1.04.02.1.1.1.03-.17.2-.2.23-.4l.07.03c0-.3.3-.4.27-.6.06-.27.27-.05.27-.37l.14-.05c.07-.1-.07-.13.03-.23.05.04.12-.12.14-.03.22-.22.15-.6.47-.88-.07-.13.08-.28.03-.37.05.02.18-.35.2-.1,0,.02-.02.05-.03.04l.05.06c.22-.14.1-.4.23-.6-.05.05-.08.13-.1.05l.1-.18.04.07.17-.26h-.1c.1-.12.24-.1.22-.3-.02-.1-.16.08-.1-.07.13-.14.38-.48.37-.4a.169.169,0,0,1-.06-.07.037.037,0,0,1,.01-.03l.05.06c.01-.12.03.17.24-.02V118c.16-.24.2.08.35-.23-.1.06-.12-.12.01-.16v.08c.06-.05.07-.08.12-.1-.02.06.03.1.12.04l-.02.1.12-.22c.18-.01.35-.22.46-.16,0,0,.32-.13.33-.27-.02.1.15.02.15.12.04-.1.23-.3.36-.3h-.01c.38-.14.5-.47.84-.6-.06-.06.1-.14.01-.2.22-.3.67-.23.55-.58.1-.12.2-.06.28-.1l-.02.04a6.288,6.288,0,0,1,.45-.45c.06-.1-.04-.23.13-.35,0,.1.05.02.1-.03-.03.04-.02.07.08.03a.17.17,0,0,1,.01-.07c.08-.1.05-.1.01-.06,0-.01-.02-.01-.04-.01.16-.04.25-.28.34-.22a4.319,4.319,0,0,0,.47-.9c.07,0,.06.1.03.18l.12-.2c.07.05-.04.13-.07.2.28-.15.2-.54.47-.76l-.02-.1.02-.01a.151.151,0,0,1-.02-.15c.08-.01.14.08.2-.06.12-.08.14-.33.17-.5-.05.08-.07.03-.08-.01.03-.07.1-.1.1-.16l.1.03c-.1,0-.01-.23-.04-.27.08-.02.01.14.06.18l.15-.47c-.02-.2-.1.01-.15-.1a1.366,1.366,0,0,1,.08-.47l-.1.04a1.528,1.528,0,0,1,.07-.64,1.115,1.115,0,0,0-.36-.52l7.73-8.83a1.023,1.023,0,0,1,.82-.44.825.825,0,0,1,.28.04l4.8,1a1.223,1.223,0,0,1,.66,1.92Z"/>
  </g>
</svg>
