<svg xmlns="http://www.w3.org/2000/svg" width="241.584" height="192.924" viewBox="0 0 241.584 192.924">
  <g id="_131" data-name="131" transform="translate(-110.716 -99.148)">
    <path id="Path_14919" data-name="Path 14919" d="M171.77,290.98l-52.6-9.3a9.2,9.2,0,0,1-7.4-10.5l5.1-29.1a9.2,9.2,0,0,1,10.5-7.4l52.6,9.3a9.2,9.2,0,0,1,7.4,10.5l-5.1,29.1a9.1,9.1,0,0,1-10.5,7.4Z" fill="#fff"/>
    <path id="Path_14920" data-name="Path 14920" d="M150.17,210.4l-.08.34C150.11,210.74,150.13,210.64,150.17,210.4Zm18.66-13.84.02-.08A.2.2,0,0,0,168.83,196.56ZM147.1,223.54v0Zm-2.13,2.23.26-.05C145.22,225.69,145.15,225.7,144.97,225.77Zm27.13,10.7h0l.1.1Z"/>
    <path id="Path_14921" data-name="Path 14921" d="M159.66,233.33l-.65-.13a2.081,2.081,0,0,1-.62-.14.142.142,0,0,1-.06-.02l.01-.4v-.37q0-.271.03-.54c.08-1.2.2-3.17-1.3-3.44h0a1.35,1.35,0,0,0-1.14.32,4.456,4.456,0,0,0-1.16,2.55c.02-1.75-.23-3.6-1.6-3.77a.757.757,0,0,0-.15-.01c-.77,0-1.4.84-1.8,2.4-.08-1.18-.18-2.5-1.07-2.58a1.322,1.322,0,0,0-1.03.37,3.769,3.769,0,0,0-.92,2.08l-.02-.3-.03-.53a.17.17,0,0,0-.01-.07c-.07-.87-.23-1.68-.9-1.75a1.059,1.059,0,0,0-.85.3,4.233,4.233,0,0,0-.83,3c0,1.68.22,2.48,1.48,2.48a.838.838,0,0,0,.58-.28,1.964,1.964,0,0,0,.43-.84,3.126,3.126,0,0,0,.52,2.2,1.645,1.645,0,0,0,1.27.43c.38,0,.72-.3,1-.84a2.877,2.877,0,0,0,.6,2.04,1.579,1.579,0,0,0,1.15.4h.15a1.66,1.66,0,0,0,1.8-1.47c.04.01.07.01.1.02.17,1.12.64,1.96,1.88,1.96a1.391,1.391,0,0,0,1.25-.84,3.026,3.026,0,0,0,1.45.46c.57-.06,1.06-1.06,1.32-2.34a1.611,1.611,0,0,0-.26-.15c-.2-.06-.44-.1-.66-.15Zm-7.63-41.97-.88,7.26-2.67-.6-.42,4.16,2.6.5-1.7,14a31.725,31.725,0,0,0-1.2,8.04,2.723,2.723,0,0,1,1.18-.2c-.28.04-.8.08-.8.23a7.165,7.165,0,0,1,.9-.18c-.37.08-.65.2-.5.27a18.066,18.066,0,0,1,3.92-.55c.06.2,1.02.04,1.54.22-.07-.04-.1-.06-.08-.08-.24-.02-.32-.08.2-.06-.01.01.01.02.01.03a.787.787,0,0,0,.23-.04c.4.13.33.16.13.15.3.04.64.07.36.14.8.18.9-.08,1.37-.07a22.442,22.442,0,0,1,2.47.47l-.16-.01a4.418,4.418,0,0,0,1.05.43,1.316,1.316,0,0,1,1.26.1,8.973,8.973,0,0,0,1.8.73c-.1-.24.57.1.57-.05l1.06.57.03-1.86a36.02,36.02,0,0,0-1-4.3l-.4-1.4s-.5-1.1.5-4.1l2.92-9.46,2.38.46,1.06-3.42-2.35-.52c1.4-4.5,2.84-8.87,3.7-10.88,2.53-5.7-8.62-2.36-19.1,0Z" fill="#fff"/>
    <path id="Path_14922" data-name="Path 14922" d="M314.16,197.2l.48-.1A1.906,1.906,0,0,0,314.16,197.2Zm-24.62-16.8h-.12A.415.415,0,0,0,289.54,180.4Zm43.12,13a.037.037,0,0,0-.03.01c-.04.01-.08.03-.12.04l.15-.05Z"/>
    <path id="Path_14923" data-name="Path 14923" d="M134.47,226.98Z" fill="#136870"/>
    <path id="Path_14924" data-name="Path 14924" d="M351.76,178.8c-.2-1.3-1.8-.83-1.8-.83s1.16-.98.4-1.86c-.6-.68-2.78-.38-5.5.06l-8.6,1.1c-1,.2,1.9-1.5,3.2-2.4,1.4-1,1.6-3.1-1.3-2-2.8,1.2-5.4,1.8-6.1,2.2s-2.5,1.6-3.7,2.5l-1.2.9s-.9.7-4,1l-.2.01-.1-.4a1.13,1.13,0,0,0-1.3-.9l-2.8.3a1.059,1.059,0,0,0-.93,1.24l-8.1.2-.26-1.73-3.88.22.24,1.57c-8.47.1-17.76.07-22.9-.3-4.8-.3-8.4,28.5,5.3,25,5.54-1.38,13.26-3.5,20.5-5.52l.1.58,3.72-1.16-.07-.47,9.03-2.58.24,1.04a1.3,1.3,0,0,0,1.4.9l2.7-.6a1.3,1.3,0,0,0,.9-1.4l-.32-1.37,2.52-.73a40.355,40.355,0,0,0,13.8-4.8c6.5-3.9,6.9-4.9,7.7-5.6s-.6-1.6-.6-1.6,2.2-1.26,1.9-2.56Z" fill="#fff"/>
    <path id="Path_14925" data-name="Path 14925" d="M310.4,181.34v.13c.02-.01.03-.04.02-.13Zm-.4,5.1h0a.076.076,0,0,1-.01-.04v.04Zm3.1,10.6h0l.06.04Zm13.07-9.45-2.57.8a1.381,1.381,0,0,0-.53-.4,1.2,1.2,0,0,0-.7,2.3,1.163,1.163,0,0,0,1.03-.2l.97.8c.2.13.4.2.6-.04.1-.13-.1-.46-.2-.56l-.9-.78c0-.01.01-.01.01-.02a1.028,1.028,0,0,0,.01-.55l2.5-.75c.1,0,.24-.15.2-.4-.03-.14-.2-.2-.4-.2ZM165.1,205.92l-.12-.06C164.98,205.88,165.01,205.9,165.1,205.92Zm-4.75-2.12Zm30.68-33.25-.02.02c-.04.04-.07.1-.1.13l.13-.15Zm2.55,7.85a3,3,0,0,0-.24.85Zm52.1,38.62-.05.2Zm61.18-10.06h0l-.3.18Zm-187.98,73.4a.037.037,0,0,1,.03.01.571.571,0,0,0,.13.01l-.16-.02Zm-.33-43.98.02-.02c.04-.07.06-.14.1-.2l-.12.23Zm61.55,30.56c.03,0,.08-.14.16-.55Zm-6.94,19.67h.02a.7.7,0,0,0,.08-.1l-.1.12Zm-46.8-2.4h0l-.23.05Zm15.7-21.97h0ZM339.7,177.6h-.01l-.2.08a1.048,1.048,0,0,0,.22-.08Z"/>
    <path id="Path_14926" data-name="Path 14926" d="M352.3,178.86a1.911,1.911,0,0,0-.18-.68,1.412,1.412,0,0,0-.53-.58,2.311,2.311,0,0,0-.3-.16.145.145,0,0,0-.07-.02.51.51,0,0,0-.21-.01.863.863,0,0,0,.16-.18c.02-.04.01,0,.04-.1a1.579,1.579,0,0,0,.03-.49,1.631,1.631,0,0,0-.42-.92,1.926,1.926,0,0,0-1.2-.53,5.057,5.057,0,0,0-1.1,0c.48-.04-.2-.04-.17-.06a10.867,10.867,0,0,0-3.48.65c-1.2.18-.98.1-1.14.05a9.312,9.312,0,0,1-1.96.36l.43-.08-2.7.35.55.08c-.74.07-.76.03-.82,0-.04-.03-.17-.04-.48.02l-.1.13-.73.05h-.22a.2.2,0,0,1-.08-.01c-.05,0,.03-.1.1-.12.5-.3.9-.47,1.16-.6l.64-.4a3.961,3.961,0,0,0,1-.9,2.235,2.235,0,0,0,.5-1.55,1.21,1.21,0,0,0-.48-.83,1.565,1.565,0,0,0-.9-.3,5.907,5.907,0,0,0-2.5.68l-2.17.8-2.22.75-.57.2a3.135,3.135,0,0,0-.58.3l-.97.67-3.78,2.66a4.513,4.513,0,0,1-1.14.45,11.1,11.1,0,0,1-1.3.27,10.265,10.265,0,0,1-1.1.12,1.485,1.485,0,0,0-.65-.97,1.613,1.613,0,0,0-1.17-.27l-2.75.3a1.331,1.331,0,0,0-1.1.58,1.617,1.617,0,0,0-.27.58l-.82.08-.86-.05-5.6.16-.18-1.12c-.14-.44-.07.15-.18-.01l-.06-.25a4.744,4.744,0,0,1-.92.06l.13.08a3.645,3.645,0,0,1-1.3.04l-.6.14-.18-1.8.05.27-.15-1.34-.3-2.33-1.44.12-1.18.1-1.42.1-2.74.12a45.944,45.944,0,0,1-5.57-.15c.2.16-2.28-.08-1.68.14a33.256,33.256,0,0,1-6.4-.9l-3.98-.94a9.934,9.934,0,0,1-2.03-.97c-.45-.25-.75-.5-1.22-.8l.45.24-2.16-1.4-.82-.6-.7-.6-.65-.58-.6-.64-.64-.7-.66-.83-1.2-1.34a9.723,9.723,0,0,1-1.4-2.14c0-.02-.01-.03-.01-.05.24.32.14.12-.07-.3l-.1-.4c-1.14-5.66-4.1-16.1-5.94-22.1-1.36-4.2-2.5-8.8-3.92-13.4a34.406,34.406,0,0,0-6.45-12.77,6.265,6.265,0,0,0-.7-.8,39.706,39.706,0,0,0-4.35-4.64q-.837-.858-1.71-1.68l.47.6a28.134,28.134,0,0,0-3.92-2.82c-.26-.16-.52-.3-.78-.45-.5-.34-.77-.5-1.03-.72a5.043,5.043,0,0,0-.88-.56c-.44-.18-1.06-.42-2.02-.73.74.3.9.44.63.4s-.9-.28-1.85-.53l.5.02-2.1-.5c.63.1.37-.14-1.2-.34l1.07.02c-1-.07-2-.2-2.98-.2a44.081,44.081,0,0,0-6.8-.14l-.8.06-1.8.3a14.987,14.987,0,0,0-1.98.53,5.977,5.977,0,0,0-1.33.54c.9-.47-1.7.5-1,.08-.3.13-.72.38-1.22.67a14.862,14.862,0,0,0-1.6.97c-.23.14-.44.3-.66.44-.55.24-1.1.5-1.63.74-5.47,2.52-10.68,5.3-15.5,7.9l-.5.12c-.3-.1-2.43,1.83-2.9,1.9l-1.03.76c-.33.16-1,.52-.48.14a11.629,11.629,0,0,0-1.68,1.2l-1.13.6a114.5,114.5,0,0,0-10.8,8.15c-1.15.92-2.6,2.02-4.04,3.36l-2.23,2.1-1.15,1.1-1.1,1.2-2.2,2.4c-.72.8-1.32,1.7-1.96,2.5a46.177,46.177,0,0,0-3.1,4.64c-.28.5-.6.97-.87,1.47l-.8,1.53-1.7,3.1c-1.03,2.15-2.22,4.3-3.17,6.54l-1.5,3.35-1.33,3.4c-.9,2.24-1.57,4.52-2.25,6.72a5.069,5.069,0,0,0-.26,1.04l-1.26,4-1.17,4.03s-.2.6-.45,1.63l-1.06,4.05c-.8,3.24-1.7,7.25-2.25,10.36s-.8,5.3-.46,4.8a6.717,6.717,0,0,0,.5-1.3l-.25,1.34,1.58.35c-.01.1-.01.22-.02.33-3.8-.46-2.24.14,0,.8,0,.05-.01.1-.01.15l.03-.15c.02,0,.03.01.05.01l-.05.37-.05-.1-.1.63.08-.08c-.07.3-.2.4-.14.77.04.17.13-.28.12.05l-.14.64-.2,1.28c.16.04.3.07.45.1-.02-.1.23-.04.5-.01l-.01.07c.56.05.5.08.56.14.04.05.08.1.37.12l.12-.08c.43-.04.33.12.6.13l-.3,2.9-.74,5.2-.32,2.32-.34,2.9a30.817,30.817,0,0,0-1.1,7c.02.4.01.9,0,1.44-.5.18-1.03.35-1.58.53l-.2.2h-.08c.03.05-.2.24-.38.33-.22-.03-.1-.25-.7.02a7.616,7.616,0,0,0-1.72,1.26c.3-.2.24-.08.14.04-.24.2-.45.24-.6.44l-.13-.1c.2.03-.53.67-.57.8-.22.04.3-.4.3-.52a4.487,4.487,0,0,0-.7.7c-.12.13-.2.25-.63.74-.36.6.2,0,.1.33a17.616,17.616,0,0,1-1,1.56.944.944,0,0,1,.23-.1,19.271,19.271,0,0,1-1.16,2.23,10.7,10.7,0,0,0-.3,1.75c-.03.1-.05.2-.07.28a10.014,10.014,0,0,1-1.2-.2c.52.13,1.2.24.96.26-.6-.13-1.2-.24-1.8-.36l.23-.02-2.76-.55.36.2a16.137,16.137,0,0,0-3.34-.7c-.7-.02,1.25.4-.18.18l-1.5-.34c-.56-.1-1.06-.27-1.77-.36a9.947,9.947,0,0,0-4.07.26c.28.07-.4.24-1.06.56l-.13-.08a9.048,9.048,0,0,1-1.7.88,1.408,1.408,0,0,0-.48.23,5.277,5.277,0,0,0-1.02.9,3.811,3.811,0,0,0-.23.5c-.38.5-.6.83-.76,1.06-.17.2-.28.35-.4.5a4.194,4.194,0,0,0-.86,1.97c.28-.77.36-.6.2.07a.987.987,0,0,0-.13.2c-.04.08-.08.18-.12.27v-.04c-.01.03-.01.06-.02.1a12.339,12.339,0,0,0-.55,1.74l-.02-.36-.03.57c-.17.76-.26,1.4-.26,1.4-.1.58-.14,1.13-.18,1.67a15.894,15.894,0,0,1-.5,2.43,30.227,30.227,0,0,0-.55,3.75c-.01-.63-.34,1.04-.4.54a20.769,20.769,0,0,1-.6,4.06l.02-.18c-.74,3.42-.84,5.92-1.55,8.98.17-.12-.2,1.5.06,1.13-.2,1.6-.54,3.05-.8,4.25a4.548,4.548,0,0,0,.18,3c.13.78.22,1.24.3,1.62a4.779,4.779,0,0,0,.27,1.05l-.17-.35a10.509,10.509,0,0,0,1.73,2.87,10.909,10.909,0,0,0,2.06,1.86,4.628,4.628,0,0,0,1.22.5c.42.13.9.32,1.84.6-.46-.04-.2.04.25.15l-.03.38,3.42.7c-.18-.17.38-.07,1,.01.03,0,.06.01.08.01l.05.13c2.5.26.85.43,3.3.72l.46-.1c2.24.15,1.14.46,3.64.56-.43-.07-.55-.14-.45-.18l.94.15-.04.01c.16.02.3.04.4.05l.84.14c-.3.02-.08.14.8.28l-.67.03,1.87.1c1.4.38,3.66.6,4.2.88a28.13,28.13,0,0,0,3.75.56c-.63.01,1.04.35.54.4a20.855,20.855,0,0,1,4.06.62l-.18-.02c3.42.75,5.92.85,8.98,1.57-.07-.1.44-.02.82.02l4.2.65a15.161,15.161,0,0,0,2.24.38l.9.16c1.15.27,2.56.56,4.1.84l2.4.43,1.25.2c.42.07.93.13,1.4.16a10.49,10.49,0,0,0,2.85-.27,11.546,11.546,0,0,0,2.56-1.04,10.14,10.14,0,0,0,3.45-3.33c.1-.18.2-.38.3-.58a8.773,8.773,0,0,0,1.04-2.66q.194-.969.32-1.95c.02-.13.05-.27.07-.4l1.16-5.7c.8-3.83,1.6-7.68,2.05-11.33a5.487,5.487,0,0,0,.1-.85l1.2-6.63.23-1.33.25-1.48.12-.98c.01-.34.03-.7.01-1.07a10,10,0,0,0-1.32-4.51,9.7,9.7,0,0,0-3.16-3.26,7.584,7.584,0,0,0-2.02-.9,6.612,6.612,0,0,0-2.1-.6c-.32-.06-.65-.1-1-.14-1.34-.26-3.33-.57-4.36-.74l-.2-.17c-.08-.24-1.78-.04-1.98-.3l-.53-.04c-.01-.1-.05-.06-.1-.01l-.1-.01a.249.249,0,0,1,.01-.08c.14-.4.23-.93.36-1.5a12.511,12.511,0,0,0,.16-1.7c-.14.1-.15-.2-.2-.5l.12-.04c-.24-1.16.26-.46-.05-1.6l-.2-.18a1.441,1.441,0,0,1-.18-.8c.01-.16,0-.35-.34-.86.16.44-.2.3-.3-.26l.16.1a6.1,6.1,0,0,0-.27-.56c.14.14.2.02-.01-.4l.27.22-.58-.7a3.158,3.158,0,0,0-.2-.53c-.1-.17-.22-.34-.33-.5a2.836,2.836,0,0,1-.43-.76s-.05-.08-.13-.2a1.98,1.98,0,0,0-.33-.43,2.432,2.432,0,0,0-.8-.65c.3.13-.24-.48.01-.4-.2-.08-.46-.35-.8-.54a3.241,3.241,0,0,1-.76-.63l.08.04a11.346,11.346,0,0,0-.9-.72,10.017,10.017,0,0,0-.93-.46l-.24-.12c.02-.65.06-1.3.02-2a17.417,17.417,0,0,0-.4-2.1c-.3-1.33-.68-2.62-1-3.86l-.03-.07a3,3,0,0,1-.05-.45l.08-.2c.1-.06-.1-1.34.1-1.52l.08-.6c.07-.16.18-.5.13-.2a6.285,6.285,0,0,0,.23-.94l.27-.56c.73-2.13,1.14-4,1.86-6.25q.385-1.056.72-2.13v.05c-.04-.1.43-.02.5-.04.08.1-.26.01-.3.06l.97.17c.5.02-.08-.1.15-.15l.7.1c.04-.14.1-.28.15-.42a.88.88,0,0,0-.1.06,3.968,3.968,0,0,1,.43-1.3c.04-.27.07-.5.1-.72l1.7.33,4.38.9.7-2.5c1.4-4.52,2.45-7.33,3.53-10.16,1.1-2.82,2.18-5.7,4.14-10.17,1-2.1,2-4.27,3.2-6.3a29.878,29.878,0,0,1,3.9-5.58,23.608,23.608,0,0,1,4.96-4.07c-.8,3.32-1.23,6.9-2.23,10.74l-.1.9-.07.25a7.35,7.35,0,0,1-.2,1.62c-.24.58-.25-.1-.7,2.03-.47,1.66-.96,4.78-1.36,7,.27-1.18.25-.8.18-.27-.22,1.06-.46,1.65-.6,2.48l-.14.05c.08.17-.47,2.86-.5,3.23-.24.58.25-1.67.22-1.95l-1.32,6.4c-.36,2.3.23-.38.14.73-.4,2-.7,4-1.27,6.28l.3-.7c-.7,3.8-1.17,6.04-1.84,8.55l-1,6.13-1.55,7.4a5.021,5.021,0,0,0,.1,1.7,4.027,4.027,0,0,0,.85,1.93,8.826,8.826,0,0,0,3.63,2.48,25.682,25.682,0,0,0,6.1,1.53l-.26.02a52.154,52.154,0,0,0,7.34.35,51.477,51.477,0,0,0,5.96-.45c.65.25,4.68-.37,6.02-.45l-.12.04c3.43-.62,7.14-.76,10.42-1.53a2.044,2.044,0,0,1-.7.22c1.15-.2,2.46-.54,3.53-.75a12.206,12.206,0,0,1,2.13-.43,31.876,31.876,0,0,0,9.08-3.9,16.174,16.174,0,0,0,1.97-1.5l.88-.78.75-.84a13.484,13.484,0,0,0,1.23-1.6,9.608,9.608,0,0,0,.82-1.45l-.1.25a23.871,23.871,0,0,0,1.94-4.94c.06-.12.1-.3.12-.26.46-2.15,1.16-6.04,1.4-8.1h3.43c.45.2.8.38.26.2,3.88,1.86,8.24,2.74,13.72,3.78.1-.01.2,0,.33,0,.02.1.04.17.05.26l-.05-.04a28.387,28.387,0,0,1,.9,3.28c.1.5.22,1.07.3,1.58.1.52.26,1.03.38,1.55a14.417,14.417,0,0,0,1.27,3.05,10.263,10.263,0,0,0,2.43,2.96c-.55-.45.17.26.1.25a10.081,10.081,0,0,0,3.18,1.93,9.444,9.444,0,0,0,1.23.32c.3.03.5.01.53-.06.92.2,1.3.2,1.48.27.18.05.15.1.27.15.01-.15,1.6-.06,3.1-.56-.22.1-.45.15-.67.23a5.2,5.2,0,0,0,2.07-.9,4.1,4.1,0,0,0,1.36-1.88,4.865,4.865,0,0,1-.6.68,8.66,8.66,0,0,0,.53-.97,1.619,1.619,0,0,1,.2-.3c.06-.1.2-.23.3-1.3h-.2a36.033,36.033,0,0,0,.17-3.82c-.01-1.15-.04-2.3-.18-3.7q-.232-1.605-.53-3.2c.85-.1,1.7-.22,2.55-.37l-.6-.02a27.453,27.453,0,0,0,5.2-.88c1.04-.3-2,.23.18-.25,2.78-.5,6.94-1.37,10.42-2.32-.36-.05.57-.3,1.53-.6l.15.1c3.62-1.25,1.43-.12,5.02-1.4l.6-.37c.83-.34,1.18-.46,1.98-.73l.84-.26c.12-.04.24-.07.35-.1l-.02-.32q-.055-.838-.18-1.67c-.06-.43-.18-1.04-.4-1.96.22,1.48-.18.74-.37-1.1l.18.45q-.051-.347-.12-.69c.08-.03.17-.07.25-.1a1.663,1.663,0,0,1,.31-.12c-.14.02-.3.08-.2-.01l.4-.12-.07.1.6-.15-.1-.05c.3-.05.45.04.75-.17.13-.1-.3-.01-.01-.13.07-.01.16-.03.24-.04.1-.02.16-.03.35-.07l1.05-.27-.05-.42,7.97-2.18.07.3a1.807,1.807,0,0,0,1.7,1.25,2.3,2.3,0,0,0,.28-.02l2.75-.6a1.815,1.815,0,0,0,1.23-2l-.15-.64.83-.24,1.18-.35,1.13-.2c.82-.16,1.6-.34,2.4-.53a48.823,48.823,0,0,0,5.66-1.94l.67-.2c.56-.27,1.2-.6,1.78-.83l-.03.04c.8-.45,1.74-.93,2.13-1.2l-.02.04c.33-.18.64-.38.96-.58l-.15.12,3.93-2.57h-.15a17.178,17.178,0,0,0,2.72-2.15l.5-.5.3-.28a1.3,1.3,0,0,0,.32-.5,1.357,1.357,0,0,0-.24-1.2,2.231,2.231,0,0,0-.18-.2c.01-.03.1-.05.14-.08l.01.02.04-.06.03-.04.12-.1a6.326,6.326,0,0,0,.44-.46,3.216,3.216,0,0,0,.67-1.14,1.9,1.9,0,0,0,.02-.68ZM149.86,234.68a1.643,1.643,0,0,0,.8-.33,2.51,2.51,0,0,0,.6,1.33,2.143,2.143,0,0,0,3.3-.4,2.456,2.456,0,0,0,.5.8,2.035,2.035,0,0,0,1.5.6s.1-.01.26-.01a1.456,1.456,0,0,0,1.1-.46q.226.119.46.22a1.857,1.857,0,0,0,.94.17,1.615,1.615,0,0,0,.88-.47,2.814,2.814,0,0,0,.44-.66,4.609,4.609,0,0,0,.34-1.03,1.355,1.355,0,0,1,.3.37,6.367,6.367,0,0,0,.54.7l-.1.1a2.961,2.961,0,0,1,.41.54,3.519,3.519,0,0,1,.2.6,4.905,4.905,0,0,0,.32,1.02,1.037,1.037,0,0,1,0,.82,1.387,1.387,0,0,0,.02.85,3.392,3.392,0,0,1-.18.39.57.57,0,0,0,.01.27l-.68-.12c-.97-.26-2.2-.53-3.55-.78l-.03-.01a3.351,3.351,0,0,0-.36-.06l-2.45-.42c-.16-.05-.2-.07.05-.07-2.65-.64-5.48-.73-8.96-1.63.27-.6.7-1.1.92-1.66a.283.283,0,0,1-.04.27c.3-.54.82-1.2.98-1.1l.15-.15a2.371,2.371,0,0,0,1.32.33Zm-1.3-3.5a5,5,0,0,1,.9-3.3.764.764,0,0,1,.5-.2h.3c.6.1.6,1.44.6,2.44a14.207,14.207,0,0,0-.3,2.06v.73a1.9,1.9,0,0,1-.4.77.774.774,0,0,1-.3.1,1.1,1.1,0,0,1-.9-.3c-.3-.3-.4-1-.4-2.3Zm3.1-.2v-.73a4.433,4.433,0,0,1,1-2.17.4.4,0,0,1,.4-.2c1.4.2,1.2,3.3,1.1,4.4v.2c-.1,2-.2,3-1.5,3a1.222,1.222,0,0,1-.9-.3,2.753,2.753,0,0,1-.45-1.8,5.382,5.382,0,0,0,.35-2.4Zm3.33,2.85a12.413,12.413,0,0,0,.06-1.35v-.2l.02-.77a4.17,4.17,0,0,1,1.08-2.53,1.421,1.421,0,0,1,.6-.2.93.93,0,0,1,.3.05c.75.18.8,1.45.7,2.85v.8c0,.9-.1,3.4-1.3,3.4a1.222,1.222,0,0,1-.9-.3,2.824,2.824,0,0,1-.56-1.75Zm3.6,1.23a.142.142,0,0,1-.06-.02,7.791,7.791,0,0,0,.23-1.88,2.164,2.164,0,0,0,.25.04,5.744,5.744,0,0,0,.65.13,2.932,2.932,0,0,1,.37.1,2.812,2.812,0,0,1-.36,1.13s-.08.2-.2.43c-.06.1-.14.22-.2.3a.155.155,0,0,1-.1.07,2.1,2.1,0,0,1-.34-.01c.3.05-.5-.27-.23-.27Zm-11.82-7.38a.76.76,0,0,1,.4-.2c.5.1.5,1.3.6,2.1v.5a3.282,3.282,0,0,1-.5,2.1c-.1.1-.1.1-.2.1-.5,0-.6-.1-.7-.2a3.124,3.124,0,0,1-.3-1.8,4.045,4.045,0,0,1,.7-2.6Zm33.27,39.4.05-.16a3.5,3.5,0,0,1,.03-1.06c.18-.38.26.07.5-1.3a41.353,41.353,0,0,0,.68-4.57c-.16.77-.18.5-.16.17.12-.7.3-1.07.35-1.62l.17-.04c-.08.1-.06-.2-.02-.63.04-.1.08-.2.12-.32a.378.378,0,0,0,.01.12c.01-.1.03-.16.04-.24a22.405,22.405,0,0,0,.88-3,9.208,9.208,0,0,0,.21-1.41c.03-.47.05-.93.04-1.4a11.935,11.935,0,0,0-.33-2.78,8.635,8.635,0,0,0-1.07-2.65,4.48,4.48,0,0,0-.67-.9,8.679,8.679,0,0,1,1.84.82,7.948,7.948,0,0,1,1.73,1.42,8.729,8.729,0,0,1,1.97,3.44,8.229,8.229,0,0,1,.29,1.51,9.04,9.04,0,0,1-.05,1.39l-.25,1.83-.1.46-1.16,5.7c-.8,3.83-1.6,7.67-2.05,11.33a5.487,5.487,0,0,0-.1.85l-1.2,6.62-.23,1.33-.25,1.47-.17.8-.27.82a8.574,8.574,0,0,1-2.18,3.15,9.028,9.028,0,0,1-3.32,1.85,11.223,11.223,0,0,1-1.51.33q-.766-.021-1.53-.08c-.03-.07-.23-.17-.54-.28a4.809,4.809,0,0,0,1-.74c.33-.28.75-.6,1.5-1.24-.4.5.2-.03.7-.6-.3.36-.37.5.33-.18l.28-.48c.01,0,.04-.03.04-.01a2.945,2.945,0,0,0,.46-.78c0-.04-.1.14-.27.37,0-.03-.04,0-.17.12a7.081,7.081,0,0,0,1.14-1.97,8.205,8.205,0,0,1,.52-1.35c.62-3.47.8-5.9,1.26-8.74.15-.3.1.37,0,1.2l.32-2c.13.04-.13,1.17-.2,1.8.63-2.35.65-4.96,1.34-7.73v-.6Zm-10.64-1c-.4.06.17.07.14.1,1.47-.1,3.04-.42,3-.7,1.05-.2.87-.12,1.04-.03a7.925,7.925,0,0,1,1.65-.74l-.35.2a11.85,11.85,0,0,0,2.2-1.15l-.53.07c1.1-.67.46.1,1.43-.76l-.14-.14c.55-.48,1-.9,1.4-1.3-1.1,5.66-1.7,8-2.82,14.94l-1,5.72a7.937,7.937,0,0,1-2.23,4.33,5.809,5.809,0,0,1-2.36,1.7,10.992,10.992,0,0,1-2.94.73l-.83-.18c-7.15-1.58-10.95-1.84-19.54-3.25l-.47-.1c-.52-.1-1.04-.2-1.58-.3-5.9-1.14-8.2-1.76-15.27-2.9l-11.28-1.95a5.943,5.943,0,0,1-2.68-1.1,10.907,10.907,0,0,1-2.23-2.22,3.4,3.4,0,0,1-.25-.67,4.5,4.5,0,0,1-.74-1.84l.05.03a8.071,8.071,0,0,1-.3-2.43l.03.04c.05-.38.05-.72.14-1.17l.01.23c.23-1.85.55-3.75.9-5.4l-.17.1c.8-3.54.72-4.9,1.47-8.08l.03.05a39.833,39.833,0,0,1,.92-5.55,10.732,10.732,0,0,0,1.46,2.55,9.378,9.378,0,0,0,3.72,2.83,14.857,14.857,0,0,0,1.97.7l1.6.4,2.7.67c1.73.42,3.5.8,6.32,1.28,2.68.53,5.56,1,8.2,1.44,1.28.02,3.45.62,4.96.7l.55.22a7.386,7.386,0,0,1,1.62.25l-.04.03c.78.05,1.62.25,2,.27l-.04.03.93.15-.17.02a39.253,39.253,0,0,1,3.9.63l-.07-.16c2.54.62,3.54.48,5.8,1.1l-.04.03c2.97.2,4.76,1.05,7.94.6Zm-3.56-59c-.1.6.02-.55-.18.33-.1,0,.07-.42-.07-.22-.22.86-.52,1.36-.78,2.43l-.08.02c-.3,1.4-.88,2.54-1.04,3.5-.38,1.43-.5.86-.83,2.38l-.26.57c-.17.67,0,.5-.18,1.25-.07-.06-.15.98-.17.5a3.9,3.9,0,0,0-.04.77,2.635,2.635,0,0,0,.18.93l-.03-.1a25.34,25.34,0,0,1,1.05,3.94,11.716,11.716,0,0,1,.47,1.76c-.02,0-.06,2.12-.13.9-.01-.1,0-.3.02-.27l-.07-.14a7.534,7.534,0,0,0-.06.81,3.125,3.125,0,0,1-.35-.2c0,.16-.67-.18-.57.05a9.076,9.076,0,0,1-1.8-.73,1.317,1.317,0,0,0-1.26-.1,4.029,4.029,0,0,1-1.05-.43l.16.01c-.14-.03-.27-.06-.4-.08-.1-.13-.2-.26-.3-.4-1.1-1.7-.4-4.7-.4-4.7.1-.2-.1-.4-.3-.5s-.4.1-.5.3a13.009,13.009,0,0,0-.16,2.84,7.232,7.232,0,0,1-7.3-.25c-.2-.1-.5-.1-.6.1s-.1.5.1.6a7.985,7.985,0,0,0,4.4,1.3,7.268,7.268,0,0,0,3.54-.83,5.439,5.439,0,0,0,.48,1.33c-.32-.06-.62-.1-1.04-.17-.47-.01-.57.24-1.37.07.27-.07-.06-.1-.36-.14.2.01.26-.02-.13-.15a1.365,1.365,0,0,1-.23.04c0-.01-.02-.02-.01-.03-.5-.03-.43.04-.2.06-.01.01.01.04.08.08-.52-.18-1.5-.03-1.54-.22a17.557,17.557,0,0,0-3.92.55c-.16-.07.12-.2.5-.27a7.122,7.122,0,0,0-.9.17v-.01c.02-.14.5-.18.77-.22a1.982,1.982,0,0,0-.8.07,4.746,4.746,0,0,1,.02-.9c.05.36.05-.1.08-.5-.01.26.01.34.1-.2a2.662,2.662,0,0,1-.02-.3c.01,0,.01-.03.02-.01.03-.68.01-.56-.03-.25-.01-.02-.02.01-.05.1a15.894,15.894,0,0,1,.34-2.03c.14-1,.28-1.88.44-2.7.04-.2.1-.4.13-.6l.07-.3a1.18,1.18,0,0,0,.06-.36l.1-1.26c.08-.2.08.22.04.72l.13-1.22c.08.02-.04.7-.07,1.08a12.139,12.139,0,0,0,.24-1.85,24.943,24.943,0,0,1,.32-2.84l-.02-.36.02-.1a2.353,2.353,0,0,1-.01-.64c.1-.23.16.04.26-.8a23.573,23.573,0,0,0,.26-2.77c-.07.47-.1.3-.1.1.05-.42.15-.65.16-.98l.1-.03c-.1.15.04-1.1.02-1.27.1-.23-.02.66.02.77l.2-1.8c.3.13.8.13.9.26a2.458,2.458,0,0,0,.86.1c-.15.04.22.14.1.2a1.876,1.876,0,0,1,.93.12h-.04c.76.23,1.36.14,2.04.38-.02-.1.35.03.27-.1.75.03,1.28.48,1.6.2a1.8,1.8,0,0,1,.54.2h-.08c.62.1.8.12,1.26.22.24.01.3-.14.7-.02-.14.04.02.06.18.1-.1-.01-.13.01.06.1a.43.43,0,0,1,.12-.02c0,.01.01.01,0,.02.26.03.22,0,.1-.03.01-.01,0-.02-.03-.05.25.13.74.14.75.25.77.12,1.35.12,2,.2.06.07-.1.1-.3.07l.46.07c-.02.08-.27-.01-.4-.02.52.23,1.14.1,1.75.33l.14-.04.04.02c0-.03.16-.05.25-.04.08.1-.04.16.28.2a1.474,1.474,0,0,0,.6.1c-.1.34-.18.66-.3.97Zm2.47-2.26-.08.28-.03.13h.01a.107.107,0,0,1,.03.05c0,.01,0,.02-.02.03s-.01.01-.02.01a.918.918,0,0,1-.2-.02c-.34-.04-.7-.1-1.12-.16-1.7-.37-2.13-.62-3.9-.9-.84-.18-1.75-.3-2.58-.45-.42.05-1.1-.2-1.57-.2l-.17-.1a1.17,1.17,0,0,1-.5-.08l.01-.02c-.25.01-.5-.08-.64-.07v-.02l-.3-.05.06-.02a5.856,5.856,0,0,1-1.23-.2l.01.1c-.8-.25-1.12-.13-1.83-.4l.01-.02c-.97.05-1.43-.44-2.42-.4.12,0-.04-.05-.03-.07-.44-.06-.9-.14-.95.03-.32-.06-.25-.1-.28-.18-.01.07-.3.05-.55.01h.12l-.73-.1.1.17c-.37-.1-.06-.2-.43-.22l-.02.12a.8.8,0,0,1-.34-.14c-.06-.05-.1-.1-.1-.14a1.118,1.118,0,0,0,.1-.18l.01-.06.02-.15.04-.47.07-.94.03-.48q1.534.418,3.08.79c4.18,1.07,7.43,1.77,10.83,2.45l5.85,1.15a7.6,7.6,0,0,0-.35.93Zm27.46-36.7a6.137,6.137,0,0,1,.26-1.68l.1-.06-.35,1.74Zm.45-1.25c-.12.28-.1.01-.04-.53a.586.586,0,0,1,.17-.1q-.074.318-.13.64Zm122.23,12.28a.44.44,0,0,1,.37-.19l2.83-.3a.34.34,0,0,1,.1-.01.63.63,0,0,1,.37.12.6.6,0,0,1,.26.42l.82,3.46a6.38,6.38,0,0,0-3.95.97l-.9-3.86-.01-.02a.788.788,0,0,1,.1-.6Zm2.67,15.14a4.384,4.384,0,1,0,0-.01Zm-11.03-14.97h-.05a1.4,1.4,0,0,0-.08-.23c.04-.08.08.14.13.23Zm-.57,19.52q.013.051.03.1l-.02.01c0-.03-.01-.07-.01-.1Zm2.43-.66c-.04,0-.07-.01-.1-.01l-.12.03-.4.13-.88.3-.8.28a10.824,10.824,0,0,0-.14-1.25l.28.98-.6-2.78c-.17-2.2-.8-5.6-.74-6.52,0,0-.55-4.68-.88-5.72.24.92-.06-1.66.17-.94-.17-.7-.43-2.16-.64-3.56.4.01.76,0,1.1-.02l.32-.03.16-.02c.06-.01.1-.01.1-.02s.02-.03.06-.06c.02.01.04-.01.07.08l.18.9c.2,1.7.12,2.18.45,3.93.1.84.3,1.73.43,2.55.18.37.16,1.08.34,1.52l-.04.2a1.437,1.437,0,0,1,.1.5l-.02-.01a3.854,3.854,0,0,1,.14.62l-.02-.01.05.3-.04-.05a6.069,6.069,0,0,1,.22,1.21l.08-.04c.02.82.25,1.1.24,1.83l-.02-.01c.37.88.06,1.47.42,2.4-.04-.1-.04.06-.06.05.1.43.17.9.34.88.05.32-.01.27-.07.32.07-.01.15.26.2.5l-.05-.1.13.7.12-.16c.02.38-.16.12-.07.48l.12-.02c.08.5-.04.62-.12.68Zm2.83-1.14-.14.03a4.421,4.421,0,0,1-.83.33c-.3.02-.13-.1-.73.05.03-.1.13-.1.02-.44l-.12-.08c-.22-.47.1-.3-.17-.8.05.22-.15.13-.16-.15l.08.06a1.129,1.129,0,0,1-.07-.3c.05.08.1.03.07-.18l.1.13-.2-.4c.03-.33-.14-.82-.06-.96,0,0-.05-.7-.2-.83.1.13.06-.25.15-.16a1.831,1.831,0,0,1-.2-.9l.02.04c-.03-.8-.32-1.3-.32-2.02-.08.04-.1-.33-.2-.22-.22-.7.03-1.35-.35-1.55a1.675,1.675,0,0,1,.01-.57l.03.08a11.945,11.945,0,0,1-.2-1.24c-.07-.22-.23-.23-.25-.65.08.12.05-.04.02-.2.02.1.05.12.06-.08a1.091,1.091,0,0,1-.06-.11l.01-.01c-.06-.25-.07-.2-.06-.08-.01,0-.02.01-.03.05.04-.28-.12-.73-.01-.78-.14-.76-.33-1.3-.47-1.92.04-.08.12.06.17.24l-.1-.45c.08-.01.08.25.12.4.05-.56-.3-1.1-.27-1.74l-.08-.12v-.04c-.03.01-.1-.13-.12-.22.06-.1.16-.02.1-.33a1.681,1.681,0,0,0-.1-.58c1.43-.03,2.73.04,3.74-.1,2.02-.1,1.43.17,3.42-.01l.95,4.05a6.74,6.74,0,0,0-1.9,2.96,6.469,6.469,0,0,0,4.3,8c-1.74.47-3.52,1.15-5.55,1.6l-.47.17Zm6.04-1.8c.04.01.07.01.1.02l-.74.22a2.5,2.5,0,0,1,.64-.24Zm.1.15c-.12.01-.08-.03.05-.1l.01.06-.06.03Zm4.85,1-2.67.6a.788.788,0,0,1-.83-.52l-.23-1c.2.02.4.04.6.04a6.562,6.562,0,0,0,3.4-.97l.24,1.02a.81.81,0,0,1-.52.83Zm25.35-17.25a1.909,1.909,0,0,1-.78,1.04l.1-.1-.24.2c-.06.05-.13.1-.2.15l-7.6,2.2a.5.5,0,0,0-.34.62.492.492,0,0,0,.48.36.59.59,0,0,0,.14-.02l6.45-1.87a4.4,4.4,0,0,1,.82.66.111.111,0,0,1,.03.1c-.02.03.02,0-.06.07l-.78.8a15.364,15.364,0,0,1-2.4,1.88c.15.01-1.02.75-.68.64-2.22,1.6-4.33,2.45-5.03,3.18a13.414,13.414,0,0,1-1.94.82l.26-.14a34.418,34.418,0,0,1-4.38,1.7,11.88,11.88,0,0,1-2.4.84c.47-.2-.14-.01-.7.12.36-.1.46-.14-.28-.01a2.691,2.691,0,0,1-.4.13c-.01,0-.04,0-.02-.01-.94.22-.77.2-.33.12-.02.01.02.02.16.01-.5.06-1.18.2-1.76.28l-.2.03a2.609,2.609,0,0,0-.26.06l-.34.1a.87.87,0,0,1-.37.05q-.258.071-.51.16a6.312,6.312,0,0,0,1.35-2.4,6.455,6.455,0,0,0-4.34-8.02l-.23-.06-.66-2.8.33-.03a16.48,16.48,0,0,0,1.7-.34,6.889,6.889,0,0,0,1.9-.72l1-.7c.46-.5,1.76-1.26,2.1-1.62.1,0,2.52-1.7,1.17-.64-.12.1-.33.23-.33.2l-.13.18q.534-.3,1.04-.65a6.647,6.647,0,0,1,.96-.4l2.3-.83c-.5.14-1.15.36-.73.17l1.53-.52-.3.17q1.146-.377,2.26-.84l-.33.05a4.6,4.6,0,0,1,1.2-.28,1.934,1.934,0,0,1,.35,0,.152.152,0,0,1,.12.06c.03.05.07,0,.06-.07-.02-.05.01-.13.07.07a1.38,1.38,0,0,1-.4.7,2.034,2.034,0,0,1-.45.36l-.63.4c-.64.4-1.6.97-2.27,1.46a1.668,1.668,0,0,0-.6.64.855.855,0,0,0-.15.43c.05-.06.07-.04.08.07a.156.156,0,0,0,.13.14,1.471,1.471,0,0,0,.17.07l-.1.07a2.655,2.655,0,0,0,1.04.15c.36-.04.52-.04.67-.05s.3,0,.7-.03q.812-.079,1.62-.2c.13-.05.24-.1.37-.15,1.86-.37,1.03.04,3.1-.42-.83.12-.4-.1.6-.2l-.25.1c.56-.1.75-.15,1.13-.2-.34.1-.16.13.67-.01l-.54.18,1.53-.37c.6-.05,1.37-.15,2.03-.2a2.809,2.809,0,0,1,1.33.12.9.9,0,0,1,.2.1c.04.06.1.13.1.18v.1a.426.426,0,0,1-.1.2,1.739,1.739,0,0,1-.2.3c.06.15.1.25.13.34l-8.52,1.72a.514.514,0,0,0-.4.6.5.5,0,0,0,.49.4.34.34,0,0,0,.1-.01l8.82-1.78c0,.01.01.01.01.02a.942.942,0,0,1,.4.01c.06.02.03.03-.14.03.1,0,.2.01.3.01h.07c.03.01.06.01.08.04a.983.983,0,0,1,.13.5Z"/>
    <g id="Group_1138" data-name="Group 1138">
      <path id="Path_14927" data-name="Path 14927" d="M215.3,152.84l.05.3C215.37,153.13,215.36,153.06,215.3,152.84Zm2.33,11.58a.035.035,0,0,0-.01-.02l-.03-.07.04.1Z" fill="#fff"/>
      <path id="Path_14928" data-name="Path 14928" d="M282.32,212.8a35.9,35.9,0,0,0-4.9-.22l.1-.03-4.5.17a12.386,12.386,0,0,0-2.04-.1l.04-.01c-1.2.1-2.43-.18-3.57-.13a.518.518,0,0,1,.33-.04,7.884,7.884,0,0,1-2-.17l-5.96-.58.1-.01a9.808,9.808,0,0,1-1.7-.27l-.08-.04a19.965,19.965,0,0,1-2.82-.72l-.02-.08-1.48-.5.54.2c-.25.1-1.07-.5-2.16-.83a23.943,23.943,0,0,1-3.1-1.1c-.5-.16.48.08-.26-.2.02-.1.35.1.2-.05-.7-.3-1.08-.67-1.94-1.08v-.08a22.336,22.336,0,0,1-2.63-1.72c-1.06-.72-.54-.7-1.66-1.42l-.33-.4c-.4-.4-.4-.18-.82-.63.07-.02-.56-.57-.24-.37a40.268,40.268,0,0,1-3.37-3.4c-.38-.2-.95-.97-1.22-1.14.01-.07-1.24-1.44-.45-.7.07.06.17.2.15.2l.14.05a7.41,7.41,0,0,0-.98-1.15l-1-1.13c.18.26.44.6.23.4l-.6-.78.18.12-.88-1.18.06.2a7.417,7.417,0,0,0-1-1.48c-.26-.26.32.6-.15.01l-.93-1.45-1-1.64c-.01.14-.2-.14-.4-.4l.04-.07c-.8-1.04-.13-.48-.9-1.54l.1.07-.3-.2c-.72-.94-.18-.62-1-1.64.27.44-.02.3-.3-.27l.14.1-.38-.6c.14.16.15.04-.12-.4l.25.25-.6-.78c-.28-.7-.9-1.72-.96-2.04a13.048,13.048,0,0,0-.97-1.74c.2.26-.16-.55.03-.36a9.9,9.9,0,0,1-.95-1.93l.05.08c-.34-.85-.7-1.55-1.03-2.23l-.86-2.15c-.05.1-.33-.72-.35-.48a16.082,16.082,0,0,1-.8-2.12,3.107,3.107,0,0,0-.63-1.32,7.823,7.823,0,0,1-.35-1.28l.08.17-1-2.8a6.748,6.748,0,0,1-.66-1.46c.16.28.02-.1-.1-.44.08.22.12.28.02-.2a1.78,1.78,0,0,1-.12-.24c0-.01,0-.02.01-.02-.2-.57-.2-.46-.12-.2-.01-.01-.02.02-.01.1a17.035,17.035,0,0,1-.47-1.77l-1.54-4.37c.01-.18.15.15.3.56l-.33-1.02c.08-.01.22.58.33.9-.24-1.26-.88-2.5-1.17-3.96l-.15-.28-.01-.1a1.737,1.737,0,0,1-.24-.5c.01-.22.16-.03-.05-.74a24.2,24.2,0,0,0-.7-2.33c.1.4.03.28-.05.12a6.318,6.318,0,0,0-.2-.85l.08-.06c-.05.16-.34-.9-.4-1.04.01-.22.2.54.28.62l-.57-2.16c-.26-.75-.05.16-.22-.2a17.564,17.564,0,0,1-.56-2.12l-.02.27a17.369,17.369,0,0,1-.67-2.92c-1.43-4.7-1.7-5.2-1.72-4.46a21.379,21.379,0,0,0,.35,2.65,96.527,96.527,0,0,0,2.63,10.16c1.02,3.92,1.17,5,2.44,9,.57,1.92,1.26,3.95,1.9,5.8.42.84.83,2.44,1.3,3.44l.08.43a6.73,6.73,0,0,1,.43,1.13h-.03c.24.52.43,1.13.55,1.38l-.03-.02.25.64-.07-.1q.614,1.323,1.1,2.7l.05-.1c.3.9.57,1.52.82,2.1.27.57.55,1.12.85,1.93h-.03a15.18,15.18,0,0,1,1.2,2.57,19.164,19.164,0,0,0,1.36,2.56c-.15-.24.02.13-.01.12.5.92,1.04,1.9,1.2,1.8.38.66.26.56.26.68.06-.04.42.5.72,1.02l-.16-.22.88,1.45-.05-.36c.42.8-.04.3.45,1l.1-.07c.66,1.05.9,1.76,1.5,2.83a82.216,82.216,0,0,0,9.77,11.5l.1.2c-.02.16,1.1.72,1.15.93l.45.32c.1.12.34.34.1.2a4.438,4.438,0,0,0,.72.52l.37.4a25.479,25.479,0,0,0,4.9,3.14,28.194,28.194,0,0,0,4.44,2.12,33.691,33.691,0,0,0,4.87,1.46,59.47,59.47,0,0,0,12.08,1.56,1.78,1.78,0,0,0,.45-.02l3.57.07s1.08.01,2.5-.05,3.17-.17,4.5-.35,2.24-.4,2-.5ZM199.2,156.93c-.02,0-.04.04-.07.15Zm2.3-5.65h0v0Z" fill="#fff"/>
      <path id="Path_14929" data-name="Path 14929" d="M198.83,164.58a38.087,38.087,0,0,0,.97-5.4c.46-2.07.74-2.6,1.1-4.76l.6-3.14c-.03-.5.27-1.32.28-1.9l.1-.2a1.873,1.873,0,0,1,.1-.62v.02c.01-.3.1-.62.1-.77l.02.02.06-.35.02.07a9.746,9.746,0,0,1,.27-1.5l-.1.02c.3-.96.2-1.36.5-2.22v.02c0-1.17.5-1.74.54-2.94,0,.15.06-.05.07-.04.08-.54.2-1.1.02-1.15.08-.4.12-.3.2-.34-.07-.01-.04-.36.02-.66v.15l.15-.87-.17.14c.13-.45.2-.08.25-.53l-.12-.02a16.406,16.406,0,0,1,.6-1.57l1.52-7.7.1-.1c.14-.02-.05-.7.08-.76v-.3c.04-.07.1-.23.1-.1a1.314,1.314,0,0,0,.04-.46l.13-.26c.26-1,.3-1.88.56-2.93.45-1.22.9-3.6,1.26-4.98.4-1.96,1.63-3.96,2.17-5.92a.473.473,0,0,0,.05-.23l.7-1.7,1.38-3.36c.5-1.28.5-1.94-1.45.97l-.01-.05a8.164,8.164,0,0,0-.9,2.2c-.2.04-.34.77-.48.97v-.03c-.1.63-.58,1.16-.68,1.77a.287.287,0,0,1,0-.2c-.13.42-.3,1-.4,1a16.829,16.829,0,0,0-.9,3.06l-.01-.05a6.375,6.375,0,0,1-.2.9c-.02.02-.03.05-.04.04a12.463,12.463,0,0,1-.4,1.5h-.07l-.2.8.1-.3c.15.15-.28.58-.32,1.2-.17.54.1,1.2-.13,1.75.02.3-.08-.27-.1.15-.1-.01-.01-.2-.1-.12-.06.4-.24.63-.3,1.14h-.08c-.01.67-.36,1.2-.32,1.65-.07.68-.3.4-.3,1.12l-.15.25c-.08.3.08.24-.04.55-.06-.03-.13.4-.15.2-.25.72-.17,1.53-.53,2.48.08.24-.1.7-.04.9-.06.02-.2.98-.2.4,0-.05.02-.13.04-.12l-.06-.08a7.055,7.055,0,0,0-.26,1.57c.06-.16.1-.38.1-.22l-.1.5-.04-.12-.2.76.1-.1c-.1.37-.27.47-.25.9.02.2.17-.33.12.07l-.53,1.85c.1-.04.06.13.04.3h-.08c-.04.7-.2.22-.27.9l-.04-.07.12.2c.02.63-.22.3-.16,1,.04-.27.2-.1.1.23l-.05-.1a1.735,1.735,0,0,1-.04.37c-.02-.12-.1-.08-.13.2l-.05-.2.03.53c-.15.37-.2,1-.32,1.15a3.653,3.653,0,0,0-.15,1.04c-.03-.18-.15.27-.2.13a2.6,2.6,0,0,1-.17,1.12v-.05c-.28.93-.22,1.64-.5,2.47.1-.02-.04.42.1.33-.07.9-.55,1.56-.28,1.95a2.777,2.777,0,0,1-.23.66v-.1l-.3,1.53c-.02.28.12.36-.02.85-.03-.17-.06.03-.1.22.01-.12,0-.16-.1.07a.709.709,0,0,1,.01.15c-.01,0-.01.01-.02,0-.04.32-.01.27.03.12.01.01.02,0,.05-.04-.15.3-.18.9-.3.92-.17.94-.2,1.63-.3,2.42-.07.08-.08-.12-.06-.35l-.1.56c-.08-.02.02-.33.04-.5-.26.63-.15,1.38-.42,2.13l.03.17-.02.04c.03,0,.04.2.03.3-.1.1-.16-.04-.23.34a5.248,5.248,0,0,0-.18,1.27c.05-.2.08-.13.08-.04-.04.2-.13.3-.13.44h-.1c.1-.06-.01.52.02.6-.1.1,0-.3-.04-.37l-.22,1.15c-.01.42.1-.06.14.16a6.119,6.119,0,0,1-.2,1.13l.1-.1a5.2,5.2,0,0,1-.34,1.53c-.4,5.18.67,1.24.67,1.24Zm4.12,70.22c0-.02-.05-.03-.18-.03Z" fill="#fff"/>
      <path id="Path_14930" data-name="Path 14930" d="M209.66,235.6h0a.134.134,0,0,1-.05.01h.05Zm36.42-24.18-.02-.05a13.45,13.45,0,0,0-.34,2.6c-.2.1-.17.9-.28,1.15l-.01-.03c-.02.7-.4,1.35-.44,2-.01-.03-.05-.05-.01-.2-.1.47-.24,1.1-.35,1.1a14.547,14.547,0,0,1-.56,1.78l-.5,1.5v-.06a4.678,4.678,0,0,1-.36.93c-.02.02-.05.04-.05.03a11.151,11.151,0,0,1-.8,1.47l-.07-.02-.52.73.2-.26c.06.2-.46.5-.8,1.04-.44.4-.53,1.2-1.1,1.54-.18.26.1-.28-.2.07-.07-.06.12-.18-.02-.16-.3.32-.6.4-1,.8l-.06-.05c-.5.5-1.17.67-1.5,1.04-.6.4-.54.04-1.14.53l-.3.05c-.3.14-.15.23-.5.35-.01-.07-.44.13-.27,0a17.136,17.136,0,0,1-2.56,1c-.18.2-.73.3-.86.44-.04-.04-1.04.34-.5.03.05-.03.14-.05.14-.03l.05-.1a12.269,12.269,0,0,0-1.66.52c.18-.02.42-.1.27,0l-.56.14.1-.1-.83.18.13.04c-.4.07-.6-.03-1.02.18-.2.1.4.02-.02.13l-2.1.3c.08.07-.1.1-.3.17l-.04-.07c-.73.24-.3-.1-1.03.1l-.1.13c-.64.27-.4-.1-1.1.25.3-.07.17.14-.2.17l.08-.1a1.648,1.648,0,0,1-.4.1c.1-.06.05-.1-.25-.05l.18-.12-.54.23a12.347,12.347,0,0,1-1.3.12,4.643,4.643,0,0,0-1.14.24c.18-.1-.34-.04-.2-.15a3.132,3.132,0,0,1-1.23.23l.05-.02c-1.07.05-1.8.36-2.76.35.05.08-.46.1-.32.18-.98.2-1.82-.04-2.15.34a2.881,2.881,0,0,1-.78-.03l.1-.03-1.7.17c-.3.06-.35.23-.9.23.18-.08-.05-.05-.26-.03.13-.02.17-.04-.1-.07a.659.659,0,0,1-.15.05.035.035,0,0,1-.01-.02c-.35.05-.3.06-.12.06-.01.01.01.02.06.04-.37-.06-1,.07-1.07-.03l-2.68.33c-.1-.05.1-.1.36-.15l-.62.05c0-.08.36-.06.55-.1-.75-.1-1.52.2-2.4.1l-.18.07h-.05c0,.03-.2.1-.32.1-.13-.07,0-.16-.43-.14a7.034,7.034,0,0,0-1.4.1c.24.01.16.05.06.07-.22.01-.34-.06-.5-.03l-.02-.1c.1.1-.56.1-.64.15-.12-.07.33-.06.4-.12l-1.3.03c-.46.08.08.1-.14.17a5.878,5.878,0,0,1-1.27.03l.15.08a6.043,6.043,0,0,1-1.74-.04c-2.86.3-3.18.5-2.77.66a7.8,7.8,0,0,0,1.55.25,37.8,37.8,0,0,0,6.12-.14c2.36-.01,3,.13,5.44-.06l3.55-.26c.53-.16,1.5-.12,2.13-.28l.25.05a2.354,2.354,0,0,1,.7-.08l-.01.02c.32-.08.7-.1.86-.13l-.01.02.4-.05-.07.04a10.228,10.228,0,0,1,1.68-.2l-.05-.08c1.12-.02,1.5-.27,2.52-.28v.02c1.24-.38,2.02-.13,3.3-.54-.16.05.08.03.07.06.6-.1,1.23-.23,1.2-.4.43-.08.36-.01.43.04-.02-.07.36-.17.7-.24l-.15.06.97-.2-.22-.1c.52-.05.16.15.65.02l-.03-.1c.72-.1,1.16-.03,1.87-.1a51.065,51.065,0,0,0,8.43-2.6l.15.03c.1.1.62-.47.76-.43l.26-.2c.1-.02.27-.1.14.01a1.769,1.769,0,0,0,.43-.3l.32-.08a8.38,8.38,0,0,0,1.42-.9l.68-.5.68-.58a6.492,6.492,0,0,0,1.04-.84l1.08-1.18.92-1.34c.27-.44.47-.88.66-1.23.94-2.04,2.23-4.4,2.5-6.7a.682.682,0,0,0,.02-.27l.4-2.05c.1.01,1.32-9.95-.66-2.52Z" fill="#fff"/>
      <path id="Path_14931" data-name="Path 14931" d="M224.32,232.26h0l.05-.07Zm40.93-14.76Z" fill="#fff"/>
      <path id="Path_14932" data-name="Path 14932" d="M271.78,226.52c-.14-.22-.24-.34-.47-.36.1-.14-.14-.16-.14-.24l.01-.01c-.2-.02-.14-.3-.33-.33.01-.01.05-.04.08-.01-.1-.06-.22-.14-.15-.22-.2-.17-.4-.47-.63-.5l.03-.01c-.14,0-.1-.08-.2-.13a.037.037,0,0,0,.01-.03c-.15-.01-.2-.22-.3-.26l.05-.05-.14-.15.04.07c-.16.1-.01-.2-.2-.24-.07-.12-.48.01-.5-.16-.1,0,.15-.04.03-.08.07-.06.08,0,.12-.06-.1-.05-.02-.2-.15-.25l.06-.05c-.2-.05-.1-.3-.27-.32-.15-.1.12-.22-.1-.28l.05-.1c-.03-.07-.13.02-.14-.07.06-.03-.02-.12.06-.1-.02-.2-.33-.24-.3-.53-.13.02-.13-.12-.23-.1.04-.03-.1-.2.06-.15.01.01.02.02,0,.03h.07c.05-.17-.18-.18-.22-.3,0,.05.02.1-.04.08l-.05-.12h.07l-.05-.18-.06.06c0-.1.1-.18-.04-.23-.07-.02-.06.12-.12.04a2.2,2.2,0,0,0-.04-.5c-.07.05-.1.01-.12-.03l.07-.03c-.16-.12.13-.1-.01-.24h.05l-.16.01c-.2-.1.12-.13-.13-.22.03.06-.14.1-.14,0h.07c-.03-.04-.06-.04-.06-.08.05.01.1-.02.07-.08l.1.01-.17-.07c.04-.12-.1-.23-.01-.3,0,0-.02-.22-.14-.23.08.02.07-.1.16-.1-.1-.03-.2-.16-.14-.25l.01.01c.02-.25-.22-.36-.18-.6-.08.03-.07-.1-.17-.03-.17-.2.12-.45-.23-.44-.04-.1.05-.14.05-.2h.02a.857.857,0,0,1-.1-.37c-.05-.06-.2-.04-.2-.17.07.03.05-.02.04-.07.02.03.04.03.07-.04a.085.085,0,0,1-.05-.03c-.03-.08-.05-.07-.05-.03-.01,0-.02.01-.04.02.06-.1-.06-.22.05-.26a4.859,4.859,0,0,0-.3-.56c.05-.03.1,0,.14.06l-.05-.13c.08-.01.06.07.1.1.1-.2-.2-.32-.1-.53l-.07-.03.01-.01c-.03.01-.1-.03-.1-.06.06-.04.16-.03.14-.12.05-.1-.07-.2-.12-.3,0,.06-.04.04-.07.03-.01-.05.05-.1.02-.12l.1-.02c-.08.03-.12-.1-.16-.12.06-.04.07.07.13.07l-.06-.3c-.1-.1-.1.03-.18,0-.03-.1-.1-.17-.07-.28l-.08.05a.35.35,0,0,1-.03-.4c-.43-.6-.66-.65-.8-.54a.724.724,0,0,0-.17.4c-.12.55.17.78.33,1.38a4.109,4.109,0,0,0,.1,1.26,6.681,6.681,0,0,0,.2.8c.15.1.08.34.22.46l-.06.07c.05.04.1.1.06.15h-.02c.07.06.06.15.1.18h-.02l.03.1-.03-.01a.559.559,0,0,1,.13.37l.08-.03c-.02.28.18.32.13.58h-.02c.3.22-.01.5.3.72-.04-.03-.04.03-.06.03.07.13.13.27.3.2.03.1-.02.1-.08.13.07-.03.13.05.16.12l-.04-.02.1.2.12-.1c0,.13-.15.1-.08.2l.1-.04c.04.16-.08.32-.1.5.2.67.84,1.2,1.02,1.83l-.06.07c-.1.08.26.04.17.13l.1.03c-.01.03,0,.08-.05.07.03.06.05.05.1.07v.1c.1.26.36.35.5.6.07.37.6.78.9,1,.47.26.5,1.06,1.03,1.3,0,.03.06.03.07.02l.33.36c-.01.03,1.72,1.6,1.1-.36l.06-.04Z" fill="#fff"/>
    </g>
  </g>
</svg>
