<svg xmlns="http://www.w3.org/2000/svg" width="185.45" height="150.984" viewBox="0 0 185.45 150.984">
  <g id="_138" data-name="138" transform="translate(-164.52 -70.596)">
    <path id="Path_15001" data-name="Path 15001" d="M348.48,166.07l-.01-.85a1.7,1.7,0,0,0,.95-2.2,1.591,1.591,0,0,0-1.35-1.14l-.05-.46.05-.18a1.7,1.7,0,0,0,.55-2.02,1.14,1.14,0,0,0-.38-.52c-.01-.02-.01-.06-.02-.08-.4-.8-3-.6-5,.2a11.373,11.373,0,0,1-3.1,1c-1,.1,1.9-1.4,3.3-2.4s1.6-3.1-1.3-2l-6.2,2.1a42.689,42.689,0,0,0-3.8,2.4l-1.2.9s-.9.8-4.1.9c-1.9.06-24.67-.1-24.67-.1l3.23,21.6,28.04-8a34.285,34.285,0,0,0,11.7-3.08,8.081,8.081,0,0,0,1.5-.32c1.7-.5,2.2-1.1,1.9-2.1a.513.513,0,0,0-.28-.3,3.156,3.156,0,0,0-.44-.75c1.15-.54,1.5-1.13,1.1-2.14a.76.76,0,0,0-.43-.45ZM194.04,208.7s.65,11.6,21.17,11.6c25,0,49.1-12.12,49.1-12.12l-70.27.52ZM218.12,85.9s1.5-.8,2.4,1.5,1.1,3.9,1.7,4.8c.7.9,1.3,1.9,2.1.1.8-1.7,4.4-10.9,5.2-13.2s1.6-1.6,2.1-1.1-.3,5.9-.4,7.2-.3,2.7.1,2,1.4-1.9,2.4-.9a2.22,2.22,0,0,1,.6,2.6s1.3-.3,1.6,1.3a14.045,14.045,0,0,1,0,2.1s1.1.1.8,2.9a11.981,11.981,0,0,1-3,6.4,23.666,23.666,0,0,1-1.9,2.3l-10.1,30.7c-1.85,5.65-4.42,12.66-4.42,12.66l-22.06-11.9,16.2-24.64c5.6-8,7.3-9.9,7.5-11.3s-1.1-3.2-1.1-5.3a26.793,26.793,0,0,0,.3-8.2Z" fill="#fff"/>
    <path id="Path_15002" data-name="Path 15002" d="M193.63,192.76l.01.25.36-2.3-1.8.27-1.16,9.53c-.8,7.5-.8,10.47,2.6-7.74Z"/>
    <path id="Path_15003" data-name="Path 15003" d="M349.82,164.5a2.479,2.479,0,0,0,0-1.7,1.872,1.872,0,0,0-1.46-1.38,2.33,2.33,0,0,0,.56-.72,2.2,2.2,0,0,0,0-1.6,1.92,1.92,0,0,0-2.1-1.16,7.279,7.279,0,0,0-1.8-.02,8.03,8.03,0,0,0-1.67.36l.3-.14c-.24.08-.47.18-.7.27l.2-.13a6.181,6.181,0,0,0,.98-.73,2.711,2.711,0,0,0,.75-1.2,1.36,1.36,0,0,0-.5-1.63,1.636,1.636,0,0,0-.85-.22,3.136,3.136,0,0,0-.7.07,9.339,9.339,0,0,0-1.16.37l-2.1.77-2.1.7a13.508,13.508,0,0,0-2.14.8l-3.64,2.25-.25.07c-.1-.03-.56.45-.92.78l-.04.03a.5.5,0,0,1-.3.16q-.249.137-.51.25c-.16.03-.5.1-.23-.01l-.93.24h-.6c-1.1.1-2.18.05-3.25.1l-3.4.03c-2.92-.17-8.4-.05-11.56.03q-1.724.055-3.45.02l-3.52-.1-.52-4.38c.1-.06.1-.1-.01-.14h-.01l-.03-.25s-.18.03-.53.08c-.25-.77-.36-.6-.4.05-.1.01-.2.02-.3.04-1.48-.02-4.27.02-8.93-.04l.18-.06c-4.02.07-6.6.14-9.32.32a8.448,8.448,0,0,0-1.84-.3,8.526,8.526,0,0,1-2.1-.48c.03,0,.05.01.08.01a6.368,6.368,0,0,1-2.9-1.77c-.43-.4-.75-.9-1.14-1.32-.33-.5-.7-.94-1.04-1.4a1.784,1.784,0,0,1,.46.5,13.3,13.3,0,0,1-2-3.6c-1.87-3.63-4.05-9-5.38-11.32l.12.15c-.8-1.3-.8-1.8-1.62-3.3-.02-.1-.06-.2-.05-.2-.83-1.45-2.2-4.33-2.95-5.46l.05-.13-1.75-2.82c.23.34.42.7.63,1.07-.46-.2-1.17-2.23-2.73-4.08a16.663,16.663,0,0,0-2.3-2.54,26.973,26.973,0,0,1-2.38-2.52c-.84-.74.82.58-.36-.6.08-.15.58.52.4.1a45.919,45.919,0,0,0-3.22-3.42l.03-.15a1.371,1.371,0,0,1-.18-.16l.15.44-1-1.4a38.082,38.082,0,0,0-7.66-7.66,28.628,28.628,0,0,0-4.53-2.77c-.82-.38-1.65-.72-2.5-1.03a4.892,4.892,0,0,0,.98-2l.52-1.23,1.8-.94a1.981,1.981,0,0,0,.34-.22,1.7,1.7,0,0,0,.44-.25,2.073,2.073,0,0,0,.68-.86,2.732,2.732,0,0,0,.16-1.65l.05.06a8.542,8.542,0,0,0-.74-1.65,8.841,8.841,0,0,0-.74-1.19c.1-.2-.5-1-.6-1.3l.03.02c-.5-.66-.68-1.55-1.15-2.2.03.02.08.01.16.17-.28-.5-.68-1.18-.6-1.26a39.957,39.957,0,0,0-2.05-3.64l.05.04a10.991,10.991,0,0,1-.62-1.04.355.355,0,0,0-.01-.07c-.35-.44-.75-1.4-1-1.78l.05-.06-.52-.96.17.37c-.23-.04-.28-.78-.75-1.43-.32-.67-1.03-1.15-1.3-1.88-.25-.3.27.22-.04-.23.08-.06.17.2.17.04-.3-.46-.32-.83-.68-1.38l.05-.06c-.53-.72-.63-1.46-1.08-1.97l-.56-.7a1.28,1.28,0,0,0-.82-.45,2.488,2.488,0,0,0-.4-.2c-.48-.08-.36.06-.88.04.03-.08-.67.07-.38-.05a2.307,2.307,0,0,0-.87.3l-.7.4a10.365,10.365,0,0,1-1.6.8c-.2.24-.8.48-.96.66-.06-.03-1.18.6-.57.16.05-.04.15-.1.16-.07l.05-.1a12.68,12.68,0,0,0-1.84,1.02c.2-.08.46-.22.3-.1l-.6.3.1-.12-.92.44h.16a3.473,3.473,0,0,0-1.13.52c-.2.17.47-.13.01.14-.32.14-.66.27-1.13.5a2.76,2.76,0,0,0-1.19,1.2c.12-.05-.02.2-.1.5l-.08.01a4.023,4.023,0,0,1-.15.77c-.04.1-.12.22.01.78l.15.18c.48.9.07.58.65,1.32-.18-.3.07-.22.24.18l-.12-.07a1.822,1.822,0,0,1,.25.42c-.1-.1-.13-.02.05.3l-.2-.17.43.54c.17.5.64,1.2.65,1.43a5.852,5.852,0,0,0,.7,1.2c-.17-.17.1.4-.06.27a4.586,4.586,0,0,1,.74,1.3l-.04-.05a1.2,1.2,0,0,0,.08.16,1.405,1.405,0,0,1,.9.15.939.939,0,0,1,.18.12.875.875,0,0,1,.1.08c.06.05.12.12.18.18a.58.58,0,0,1,.1.12c.06.08.13.18.2.28a.709.709,0,0,0,.1.14,4.048,4.048,0,0,1,.26.55q.17.424.31.86a11.518,11.518,0,0,0-.5-1.1,2.293,2.293,0,0,0-.95-1.03,1.116,1.116,0,0,0-.84-.08.313.313,0,0,0-.1.05c-.08-.26-.15-.36-.17-.23a1.832,1.832,0,0,0-.03.33.973.973,0,0,0-.28.27c-.01.05.1.03.28-.03a31.3,31.3,0,0,1-.82,7.22l-.01-.14-.05.3-.02.14a.715.715,0,0,0-.02.2,5.735,5.735,0,0,0,.03.6,5.366,5.366,0,0,0,.2,1.1c.16.68.38,1.26.55,1.8a5.626,5.626,0,0,1,.34,1.46,2.823,2.823,0,0,1-.35,1.3c-.24.18-1.14,1.7-1.68,2.44l-.8-.05a23.14,23.14,0,0,0-4.98.45,11.288,11.288,0,0,1,1.3-.33c1.46-.33,2.5-.44,3.17-.56,1.35-.22,1.24-.35.53-.5a15.922,15.922,0,0,0-3.4-.07,13.411,13.411,0,0,0-1.58.18l-.66.12a23.293,23.293,0,0,0-9.63,4.2,53.122,53.122,0,0,0-8.4,7.8l-3.5,3.97c-1,1.14-1.8,2.18-2.64,3.23a94.7,94.7,0,0,0-5.56,7.9c-2.24,3.42-4.5,7.15-6.48,10.63a35.488,35.488,0,0,1-1.68,3.2,36.351,36.351,0,0,0-1.73,3.5l-.5.73q-.458,1.153-1.02,2.26l-.01-.06c-.4,1.1-.97,2.28-1.13,2.85l-.01-.06-.5,1.32.04-.24-.95,2.93c-.27.98-.6,1.92-.8,2.84l.18-.12a20.519,20.519,0,0,0-.58,2.53l-.17,1.07-.08,1-.08,1-.02,1.03c-.04.7-.02,1.5-.03,2.4l-.04-.05.9,5.8a18.038,18.038,0,0,0,1.75,5.8c-.28-.54.03.27-.02.24.94,2.07,2.6,3.88,2.84,3.68,1.1,1.16.86.98.93,1.22a16.03,16.03,0,0,1,2.16,1.5l-.5-.3a30.935,30.935,0,0,0,2.96,1.9l-.46-.56c1.55,1,.24.5,1.83,1.32l.07-.18a39.348,39.348,0,0,0,5.93,2.93,20.614,20.614,0,0,0,8,.76,18.494,18.494,0,0,0,1.95-.34l-2,14.56a4.253,4.253,0,0,1-.2,1.1v.1a2.034,2.034,0,0,1-.1.5v.1h4.1c-.2.03-.38.07-.52.1l-3.58.25-.32.03-.03-.37-.01-.08a.41.41,0,0,1,.02-.18.852.852,0,0,1,.04-.15.662.662,0,0,0,0-.2,1.23,1.23,0,0,1,.02-.2,3.907,3.907,0,0,0,.06-.85c-.01-.16-.06-.4-.08-.52-.06-.28-.1-.37-.17-.32s-.1.26-.14.57l-.02.12c-.01,0-.01.02-.02.05-.02.07-.04.15-.06.23s-.05.17-.07.26c-.04.1-.03.1-.1.33-.03.08-.04.17-.07.27v.07c-.03,0-.02-.01-.1.18-.01.05-.03.12-.04.2l-.01.14v.08l-.06,1,1.14.07,2.38.1a7.638,7.638,0,0,0,.3,1.76c.13.38.23.74.34,1l.18.4a11.273,11.273,0,0,0,4.5,5.06,23.032,23.032,0,0,0,6.76,2.72l3.25.76,2.6.4a25.841,25.841,0,0,0,2.64.2l1.57.06,1.83-.08a72.641,72.641,0,0,0,7.72-.57c1.14-.37,3.23-.42,4.58-.8l.55.02a6.238,6.238,0,0,1,1.5-.3l-.02.04c.7-.2,1.5-.3,1.83-.4l-.02.04a8.584,8.584,0,0,0,.85-.18l-.14.08a32.52,32.52,0,0,1,3.57-.83l-.12-.12c2.4-.4,3.17-.9,5.33-1.3l-.02.04a16.563,16.563,0,0,1,3.4-1.04,17.524,17.524,0,0,0,3.45-1.14c-.32.16.17.02.15.06,1.22-.47,2.54-.94,2.46-1.22.9-.3.76-.18.9-.1-.05-.12.7-.45,1.4-.72l-.3.16,1.98-.8-.47-.07c1.07-.35.37.16,1.35-.3l-.08-.18c1.26-.45,2.86-.8,5.33-1.73l1.87-.86,5.3-.04q1.143-.081,2.29-.09l3.57-.01h.96c.04-.01.14.02.13-.02l-.03-.16-.24-1.27-.4-2.04-.54-2.5-.1-1.2a29,29,0,0,1-.66-3.34l.05.06c-.38-1.55-.66-3.34-.85-4.1l.05.06-.05-.24,1.42-.1a21.64,21.64,0,0,1,3.3-.55c-.64.17.18.07.93-.01-.48.07-.63.12.37.1a3.191,3.191,0,0,1,.55-.13c.01.01.05.01.03.02,1.26-.17,1.03-.2.45-.13.03-.02-.02-.03-.2-.05,1.32-.02,3.64-.43,3.82-.3,3.77-.56,6.43-1.22,9.5-1.95.37.02-.34.25-1.23.47.73-.16,1.47-.32,2.2-.5a7.839,7.839,0,0,1-1.92.52c2.68-.33,5.35-1.42,8.42-2.13l.6-.3.18-.04a4.773,4.773,0,0,1,1.06-.5c.46-.04.06.28,1.54-.26q.248-.065.49-.15.4-.144.8-.31c.15-.06.3-.13.46-.2l.23-.1.12-.05.06-.03v-.06l-.14-1.06-.13-.87-.12-.68-.2-1.28c.08.86-.01.6-.1.23q-.026-.214-.04-.43c1-.18,2.53-.57,2.53-.57,4.4-1.06,6.6-1.94,11.76-3.48,4.57-1.26,5.83-1.45,10.53-2.86l2.58-.74c.06-.05.46-.04.75-.1a33.781,33.781,0,0,0,3.6-.6c1.06-.35,2.98-.74,4.18-1.27l.5-.1a12.867,12.867,0,0,1,1.34-.53l-.02.03c.6-.3,1.32-.57,1.6-.74l-.02.03.74-.36-.1.1c.08-.04.16-.1.24-.13.23-.05.45-.1.67-.13,1.4-.5,2.6-1.1,2.1-2.7a1.134,1.134,0,0,0-.6-.6.381.381,0,0,0-.1-.03,2,2,0,0,0,1.1-2.57,1.54,1.54,0,0,0-.7-.7.06.06,0,0,0-.04-.01,2.293,2.293,0,0,0,1.27-1.07Zm-133.9-59.2,1.67-2.34a21.241,21.241,0,0,0,1.57-2.5,2.957,2.957,0,0,0,.33-1.34,9.987,9.987,0,0,0-.75-2.92,8.774,8.774,0,0,1-.37-1.63c-.02-.13-.02-.3-.03-.4,0-.01.01-.08.02-.17l.03-.23.12-.94a27.582,27.582,0,0,0,.24-3.62,13.4,13.4,0,0,0-.27-2.8.837.837,0,0,1,.5.1,1.467,1.467,0,0,1,.6.7,3.627,3.627,0,0,1,.22.5c.06.2.12.36.17.5l.15.47c.22.72.4,1.4.6,2.1a6.2,6.2,0,0,0,.9,2.1,4.546,4.546,0,0,0,.86.94,1.356,1.356,0,0,0,1.64.1,2.312,2.312,0,0,0,.58-.64,5.814,5.814,0,0,0,.28-.53c.14-.3.26-.6.38-.9.94-2.36,1.54-4.9,2.85-8.38.6-1.52,1.16-2.72,1.52-3.86.54-1.7,1.07-1.36,1.42-1.12a5.558,5.558,0,0,1,0,2.6c-.4,3.13-1.02,6.7-.83,6.8a3.8,3.8,0,0,0,.9.32.92.92,0,0,0,.37-.14,5.106,5.106,0,0,0,.4-.47,4.182,4.182,0,0,1,.7-.78c.16-.08.2-.1.26-.06.07.02.55.05.7.26a5.046,5.046,0,0,1,.4,1.08,3.151,3.151,0,0,1-.1.64c.24.34.06.3.1.4.08.08.64.57.64.57h.05l.01.01c.01.01.1.05.12.07a.49.49,0,0,1,.14.17,3.194,3.194,0,0,1,.23.78c.01.2.01.4.01.64s-.01.37-.04.9a4.988,4.988,0,0,1,.5.64.683.683,0,0,0,.04.13.712.712,0,0,1,.12.2,3.205,3.205,0,0,1,.15.56,6.878,6.878,0,0,1,.04,1.28c-.04.2-.1.42-.15.63a5.63,5.63,0,0,1-.44,1.75l-.01-.04a10,10,0,0,1-.96,2.03v-.04q-.276.453-.59.88l.08-.17c-.38.6-.88,1.2-1.32,1.8q-.328.43-.68.84l-.34.4q-.214.245-.45.47c-.04.13-.1.25-.13.37a.323.323,0,0,0,.13-.13c-1.1,3-1.25,4.05-2.23,6.68l-.01-.04c-.88,3.42-1.9,5.24-2.8,8.75.12-.44-.1.17-.1.13a15.93,15.93,0,0,0-.9,3.37c-.38,1.16-.36.93-.47,1.06a10.039,10.039,0,0,1-.52,1.94l.1-.42-.83,2.6.3-.46c-.5,1.36-.28.3-.68,1.62h.12c-.65,1.9-1.18,2.95-1.87,4.76l-3.96,11.6-.35,1.05c-.01.16-.12.03-.2,0l-3.08-1.65-5.07-2.82-.25-.23c-.07-.18-1.9-.8-2.1-1.05l-.8-.36c-.2-.14-.65-.4-.25-.22a9.472,9.472,0,0,0-1.26-.62l-.72-.48c-1.38-.78-2.68-1.46-4-2.14l-2-1.04-1.03-.54-.17-.1c-.1-.03-.06-.07,0-.15l.1-.13a1.675,1.675,0,0,0,.15-.22q.24-.345.48-.72l1.05-1.6,2.3-3.6,4.3-6.85c1.6-2.6,3.48-5.33,5.4-8.04s3.93-5.38,5.65-8a5.217,5.217,0,0,0,.43-.7Zm41.67,104.78a.318.318,0,0,0-.1-.1c-1.46.76-.66-.03-2.12.7l.1-.13-.3.4c-1.28.75-.83.04-2.24.92.6-.24.38.15-.38.38l.15-.18a4.752,4.752,0,0,1-.8.35c.23-.15.07-.2-.53.02l.36-.28-1.08.6a25.654,25.654,0,0,1-2.72.77,12.1,12.1,0,0,0-2.34.85c.35-.23-.72.06-.46-.17a8.743,8.743,0,0,1-2.56.83l.1-.05c-2.24.5-3.74,1.2-5.78,1.5.12.12-.96.27-.65.4a20.513,20.513,0,0,1-2.78.55,2.881,2.881,0,0,0-1.74.56,8.45,8.45,0,0,1-1.65.13l.22-.07a35.013,35.013,0,0,1-3.64.58,7.184,7.184,0,0,1-1.94.52c.38-.16-.1-.06-.56-.03.3-.04.37-.1-.23-.1a1.738,1.738,0,0,1-.32.1c-.01-.01-.03-.01-.02-.02-.75.1-.6.12-.26.1-.02.02.02.04.13.06-.8-.07-2.17.2-2.28.02-1.12.14-2.1.22-3,.3l-2.74.24c-.2-.1.23-.18.77-.23-.44.02-.9.07-1.33.05.01-.12.76-.07,1.18-.1a22.1,22.1,0,0,0-2.45-.03,9.965,9.965,0,0,1-2.65-.14l-.4.06-.1-.03c0,.06-.42.08-.7.07-.25-.15.05-.27-.86-.36a25.212,25.212,0,0,0-2.95-.46c.5.12.32.15.1.15-.45-.08-.66-.3-1-.35v-.16c.13.2-1.18-.2-1.36-.2-.2-.2.7.1.84.06a12.065,12.065,0,0,1-1.3-.42l-1.25-.52c-.94-.27.1.2-.4.15-.4-.16-.77-.37-1.17-.56a4.417,4.417,0,0,1-1.16-.77l.17.3a8.826,8.826,0,0,1-1.65-1.22,5.726,5.726,0,0,1-1.06-1.26,11.85,11.85,0,0,1-2.21-2.88,12.71,12.71,0,0,1-.77-1.62l2.63.07,3.82.08c1.5.06,2.66.08,3.72.03l6.8-.07a9.488,9.488,0,0,0,2-.03.656.656,0,0,1-.42.1,8.78,8.78,0,0,1,2.55.05,71.761,71.761,0,0,0,7.58-.3l-.1.05a14.184,14.184,0,0,1,2.1-.13h.13a.647.647,0,0,0,.1.03c.1-.02.2-.03.28-.04l1-.01,2.47.02v.01l.26-.01c9.25.1,12.73.3,23.57.2h5.56c.08.1.08.06.24.01.01,0,.03-.01.04-.01h.68c-.22.06-.25.07.01.05a1.811,1.811,0,0,0,.36-.05h.25c-.67.2-1.2.3-1.63.45.17.05.03.1-.1.2Zm86.33-50.47c.2-.1.3-.1.5-.2a8.388,8.388,0,0,1,2.6-.6,1.486,1.486,0,0,1,1.3.6,1.7,1.7,0,0,1,0,1,2.555,2.555,0,0,1-1.4,1.08,14.4,14.4,0,0,0-1.5.42l-.2.1-.57.17a4.3,4.3,0,0,1-2.73-.17c-.3-.1-.4-.3-.5-.6-.2-.9,1.2-1.4,2.5-1.8Zm-1.44,13.03.2-.1a27.787,27.787,0,0,1-3.25,1.08,7.635,7.635,0,0,1-1.76.6c.34-.14-.1-.03-.52.06.26-.07.34-.1-.2-.04-.07.03-.2.07-.3.1-.01,0-.03,0-.02-.01-.68.15-.56.14-.24.1-.01.01.01.02.12.02a14.144,14.144,0,0,1-2.1.2l-.75.08-.18.02a1,1,0,0,0-.27.05l-.34.1-3.75,1.22c-.2,0,.18-.16.67-.32l-1.2.36c-.01-.08.68-.24,1.05-.36-1.48.3-2.94.97-4.66,1.34l-.33.16-.1.02a2.274,2.274,0,0,1-.6.26c-.26,0-.03-.16-.86.08a27.385,27.385,0,0,0-2.73.85c.47-.12.33-.04.14.04-.42.12-.68.12-1,.24l-.07-.08c.2.04-1.07.4-1.2.5-.26,0,.63-.24.72-.32l-2.5.73c-.88.32.2.04-.22.24-.8.24-1.54.53-2.46.73h.3a23.855,23.855,0,0,1-3.38.93c-2.4.85-3.85,1.4-4.63,1.73a4.657,4.657,0,0,0-.1-.98l.1-.07c-.13-.1-.37-2.03-.46-2.28.06-.45.24,1.18.35,1.36l-.57-4.62c-.3-1.63-.1.32-.34-.45-.2-1.45-.48-2.85-.6-4.53l-.08.54a55.222,55.222,0,0,1-.7-6.2l-.7-3.82h.68c1.3-.01,2.48-.03,3.23-.1l-.1.03c.85-.1,1.1-.01,2.06-.06.05.01.12.02.1.03.93-.1,2.7-.01,3.46-.05l.05.07,1.85-.01h-.7c.24-.18,1.4.12,2.74.01,1.26.03,2.54-.37,3.84-.28.62-.08-.54.14.38.08.03.1-.43.06-.2.14.9-.04,1.5.1,2.62.04l.05.07c1.46-.13,2.77.1,3.75-.02a8.3,8.3,0,0,1,1.3-.02,3.6,3.6,0,0,0,1.36-.2c.22-.01.44-.04.66-.07a1.8,1.8,0,0,0,.57-.26c.13-.1.2-.1.56-.38l-.03.03a.758.758,0,0,0,.13-.1c0,.08.78-.52.47-.2l2.12-1.5c.38-.26.77-.53,1.2-.78a5.523,5.523,0,0,1,1.3-.63c.4-.27,1.5-.53,1.8-.73.07.04,2.15-.7.98-.18a.863.863,0,0,1-.28.08l-.12.12a23.082,23.082,0,0,0,3.38-1.23c-.36.1-.83.3-.53.13q.529-.2,1.07-.37l-.2.13a2.022,2.022,0,0,1,1.1-.13.375.375,0,0,0-.01-.1.132.132,0,0,1,.06.2c-.02.01-.07.23-.24.54-.15.3.45-.44.05.14a7.259,7.259,0,0,1-1.54,1.02c-.65.37-1.33.74-1.98,1.16.08,0,.04.05-.07.14a1.59,1.59,0,0,0-.22.18,1.059,1.059,0,0,0-.16.15.849.849,0,0,0-.1.14.911.911,0,0,0-.07.14c-.02,0-.03-.01-.05-.01a.43.43,0,0,0-.4.4,6.943,6.943,0,0,1-1.3,3.8c-1.3,1.6-4.4,2-4.4,2a.51.51,0,0,0-.4.5.43.43,0,0,0,.4.4,9.343,9.343,0,0,0,2.96-.85,7.749,7.749,0,0,1,2.24,6.95c-.1.2.1.4.3.5h.1c.1,0,.3-.2.4-.4a8.068,8.068,0,0,0-2.25-7.5,5.232,5.232,0,0,0,1.25-1.1,7.441,7.441,0,0,0,1.48-3.9c.34-.1,1.3-.55,1.42-.54a2.016,2.016,0,0,0,.28-.06,1.817,1.817,0,0,0-.97,1.92,1.785,1.785,0,0,0,.9,1.2,2.6,2.6,0,0,0,1.08.35c-.95.58-1.68,1.35-1.48,2.35a1.445,1.445,0,0,0,.7,1,3.12,3.12,0,0,0,1.35.38c-.72.4-1.23.93-1.05,1.72a1.548,1.548,0,0,0,.8,1.1,2.872,2.872,0,0,0,.86.25c-.6.36-1.04.8-.86,1.45a1.27,1.27,0,0,0,.7.9.3.3,0,0,0,.08.04c-.5.13-.7.13-1.05.25Zm3.94-1.23a3.749,3.749,0,0,1-2.7.2c-.2-.1-.3-.2-.3-.4-.1-.4,1-.8,1.7-1.1a1.421,1.421,0,0,0,.6-.2,3.534,3.534,0,0,1,2.2-.2l.1.1c.2.6.2,1-1.6,1.6Zm0-2.8a5.313,5.313,0,0,1-3.4.3,1,1,0,0,1-.4-.5c-.1-.6,1.2-1.1,2.1-1.5a3.693,3.693,0,0,1,.4-.17,8.719,8.719,0,0,0,1.6-.43l.4-.12a2.084,2.084,0,0,1,1.1.12c.2.1.2.2.2.2.3.8.3,1.3-2,2.1Zm2.6-4.4c-.27.55-1.3.93-2.3,1.3a8.518,8.518,0,0,0-1.28.33c-1.32.26-2.77.37-3.4-.03-.2-.1-.3-.2-.3-.4-.2-1.2,2.8-2.2,3.7-2.5l.2-.1c2-.6,3-.8,3.4.4a1.611,1.611,0,0,1-.01,1Z"/>
    <g id="Group_1150" data-name="Group 1150">
      <path id="Path_15004" data-name="Path 15004" d="M217.93,146.96c-4.55-2.95-7.18-4-12.83-7.1-4.9-2.87-6.06-3.85-11.2-6.67l-2.28-1.3-.9-.5-.74.74-.73.75-.37.4c-1,1.1-1.92,2.2-2.8,3.27-.7,1.14-2.3,2.83-3.08,4.2l-.46.4a7.945,7.945,0,0,1-.97,1.4l-.01-.05c-.4.7-.94,1.42-1.14,1.77v-.05l-.54.8.05-.17c-.7,1.22-1.48,2.42-2.17,3.5l.18-.01a20.344,20.344,0,0,0-1.63,2.72c-.26.5-2.45,5.78-2.76,6.33,0,0-.68,1.77-.22,1.9.33.1,2.22-1.97,2.36-2.14l.45-1.24c.64-1.1,1.45-2.76,1.95-3.7a19.063,19.063,0,0,1,1.64-2.78c-.18.01.52-.98.2-.82,1.12-2.1,2.7-3.4,2.7-4.44a10.642,10.642,0,0,1,1.2-1.4l-.13.23c1.16-1.66,1.5-2.13,2.46-3.3a7.624,7.624,0,0,1,1.2-1.88c-.2.4.14-.03.46-.42-.2.26-.23.36.25-.1a1.378,1.378,0,0,1,.2-.33c.01,0,.03-.01.03,0,.52-.66.4-.57.13-.3,0-.03-.04-.01-.14.06.66-.58,1.6-1.83,1.8-1.78l.6-.68c.1-.1.17-.2.26-.3l.07-.08c.03,0,.05.02.08.03l.17.07.18.08.33.16,2.76,1.4c.16.2-.3.02-.86-.25l1.32.72c-.08.1-.8-.36-1.2-.57,1.45,1.08,3.32,1.64,5.04,2.86l.43.12.1.08a2.177,2.177,0,0,1,.75.25c.2.25-.15.22.76.73a26.967,26.967,0,0,0,3.03,1.6c-.5-.3-.3-.27-.06-.18.45.25.66.5,1.03.66l-.03.16c-.1-.23,1.26.53,1.46.57.2.25-.75-.3-.9-.3l2.73,1.53c1.03.45-.1-.23.43-.1a25.437,25.437,0,0,1,2.7,1.48l-.24-.3a22.85,22.85,0,0,1,3.62,2.12c12.52,5.87,3.3.12,3.3.12Zm2.84,3c-.3.28-.88,2.15-2.38,6.47l-.02-.13-1.6,6.07c-.37.2-.7,2.1-1,2.67v-.06c-.32,1.64-1.33,3.12-1.74,4.66a.647.647,0,0,1,.08-.46,9.978,9.978,0,0,1-1.17,2.56c-1.06,2.55-3,5.85-3.7,7.47l.03-.12a18.23,18.23,0,0,1-1.26,2.03c-.05.04-.1.1-.1.08a13.379,13.379,0,0,1-1.28,1.66c-.48.6-1.08,1.04-1.35,1.4l-.12-.04-.77.74-.83.67.64-.48c-.01.2-.36.42-.84.72l-.8.52a6.871,6.871,0,0,0-.92.63,10.14,10.14,0,0,0-.9.65l-.9.68a6.424,6.424,0,0,1-.95.66,5.835,5.835,0,0,1-1.07.43c-.64.4.52-.45-.46.05-.08-.14.44-.28.14-.3a5.181,5.181,0,0,1-1.37.4c-.46.07-.94.22-1.57.38l-.08-.1c-.22.07-1.2.07-1.42.12l-.3,1.78,4.1-.8a17.933,17.933,0,0,0,6.42-2.96,14.3,14.3,0,0,0,1.56-1.23l.75-.63.66-.68,1.23-1.3.98-1.25a76.981,76.981,0,0,0,4.68-7.2,38.4,38.4,0,0,0,3.54-7.86,1.516,1.516,0,0,0,.17-.62l1.63-4.76.96-3.4a60.689,60.689,0,0,0,1.3-6.2c.28-1.86.32-3.2.03-2.9Zm34.53-25.08,2.13,5.87,1.36,3.85c.3.55.54,1.63.84,2.3l.01.3a2.782,2.782,0,0,1,.25.77l-.02-.01c.16.35.25.77.33.94l-.02-.01.14.44-.05-.07a16.733,16.733,0,0,1,.55,1.86l.07-.07c.24,1.27.55,1.67.72,2.83v-.01c.57,1.37.4,2.3.96,3.7-.07-.18-.03.1-.05.08.17.68.34,1.4.5,1.37.1.5.03.42-.02.5.07-.02.2.4.28.8l-.07-.17.26,1.1.1-.25c.1.6-.14.18.02.74l.1-.03c.13.82.04,1.34.1,2.15.58,3.3,1.44,6.82,1.8,9.93l-.06.15c-.12.08.34.82.24.95l.12.35c0,.1.01.32-.05.15a2.5,2.5,0,0,0,.16.57v.37c.18,1.32.53,2.4.76,3.78a57.768,57.768,0,0,0,1.33,6.53c.68,2.47.78,5.5,1.55,8a1.007,1.007,0,0,0,.1.3l.5,2.35s.62,2.84,1.16,4.57c.56,1.73.94,2.34.45-2.07l.04.05a15.7,15.7,0,0,0-.72-2.95c.14-.18-.22-1.05-.22-1.37l.02.03c-.3-.75-.24-1.63-.5-2.36.02.03.07.03.1.2a4.121,4.121,0,0,1-.24-1.35,38.017,38.017,0,0,0-.96-3.96l.04.05a8.582,8.582,0,0,1-.3-1.14.264.264,0,0,0,.01-.07c-.2-.5-.32-1.52-.45-1.94l.06-.04-.22-1.04.06.4c-.2-.1-.04-.8-.3-1.54-.1-.7-.65-1.37-.7-2.12-.15-.34.2.28.03-.23.1-.03.1.23.15.08-.14-.5-.06-.86-.25-1.5l.07-.04c-.3-.8-.2-1.58-.42-2.1-.22-.84.1-.6-.2-1.48l.04-.36c-.05-.38-.17-.25-.2-.68.07.01-.05-.54.06-.3-.07-.97-.48-1.92-.54-3.2-.17-.25-.2-.9-.33-1.1.05-.04-.2-1.27.03-.58.02.06.04.17.01.16l.1.07a12,12,0,0,0-.4-2c.01.22.07.5-.01.32l-.1-.66.08.13-.14-1-.05.15a3.16,3.16,0,0,0-.16-1.2c-.1-.24-.02.48-.13-.03-.07-.66-.17-1.64-.3-2.47-.07.1-.1-.13-.17-.35l.07-.04c-.26-.86.1-.35-.16-1.2l.07.07-.2-.2c-.3-.75.06-.45-.32-1.28.1.34-.13.2-.18-.23l.1.1c-.06-.23-.1-.3-.13-.46.07.13.12.05.03-.3l.14.2-.27-.62c-.03-.52-.3-1.3-.25-1.52a5.413,5.413,0,0,0-.38-1.3c.12.2,0-.4.12-.25a4.54,4.54,0,0,1-.4-1.4l.02.06c-.2-1.24-.66-2.04-.84-3.15-.07.07-.18-.5-.25-.34-.4-1.1-.36-2.1-.8-2.4a3.855,3.855,0,0,1-.16-.9l.05.12-.6-1.9a3.659,3.659,0,0,1-.48-.98c.13.18.03-.07-.04-.3.06.15.1.18.04-.13a1.116,1.116,0,0,1-.1-.16s0-.02.01-.01c-.15-.38-.15-.3-.1-.12-.01-.01-.02.01-.02.07-.05-.43-.37-1.12-.3-1.2-.43-1.15-.83-1.95-1.2-2.9.01-.13.14.08.26.35l-.27-.68c.08-.02.2.38.28.58-.17-.86-.75-1.62-1-2.62l-.13-.17V127c-.03.02-.15-.18-.22-.32.01-.16.15-.05-.04-.5a9.378,9.378,0,0,0-.7-1.5c.1.26.02.2-.04.1a4.975,4.975,0,0,0-.2-.56l.08-.06c-.04.13-.35-.56-.42-.63.01-.16.2.33.28.37l-.62-1.38c-.28-.46-.04.13-.22-.08a12.7,12.7,0,0,1-.65-1.33v.2a10.134,10.134,0,0,1-.85-1.84c-1.8-2.8-2.25-2.92-2.12-2.45a12.405,12.405,0,0,0,.66,1.63c.98,2.38,1.77,3.48,3.04,6.3Z" fill="#fff"/>
      <circle id="Ellipse_388" data-name="Ellipse 388" cx="1.1" cy="1.1" r="1.1" transform="translate(217.461 77.82) rotate(-27.529)" fill="#fff"/>
      <circle id="Ellipse_389" data-name="Ellipse 389" cx="1.1" cy="1.1" r="1.1" transform="translate(218.852 80.634) rotate(-27.529)" fill="#fff"/>
    </g>
  </g>
</svg>
