<svg xmlns="http://www.w3.org/2000/svg" xmlns:xlink="http://www.w3.org/1999/xlink" width="167.359" height="192.6" viewBox="0 0 167.359 192.6">
  <defs>
    <linearGradient id="linear-gradient" x1="0.671" y1="0.281" x2="0.01" y2="1.035" gradientUnits="objectBoundingBox">
      <stop offset="0" stop-color="#cc7a5e" stop-opacity="0"/>
      <stop offset="1" stop-color="#aa5f4b"/>
    </linearGradient>
    <linearGradient id="linear-gradient-2" x1="0.638" y1="0.308" x2="-0.268" y2="0.754" gradientUnits="objectBoundingBox">
      <stop offset="0" stop-color="#00394a" stop-opacity="0"/>
      <stop offset="0.998" stop-color="#00394a"/>
    </linearGradient>
    <linearGradient id="linear-gradient-3" x1="0.796" y1="0.532" x2="-0.453" y2="0.447" gradientUnits="objectBoundingBox">
      <stop offset="0" stop-color="#0a5f66"/>
      <stop offset="0.998" stop-color="#00394a"/>
    </linearGradient>
    <linearGradient id="linear-gradient-4" x1="0.718" y1="0.516" x2="0.164" y2="0.482" xlink:href="#linear-gradient-2"/>
    <linearGradient id="linear-gradient-5" x1="0.544" y1="0.813" x2="0.442" y2="-0.207" gradientUnits="objectBoundingBox">
      <stop offset="0.005" stop-color="#cc7a5e" stop-opacity="0"/>
      <stop offset="0.924" stop-color="#aa5f4b"/>
    </linearGradient>
  </defs>
  <g id="_14" data-name="14" transform="translate(-173.5 -82.064)">
    <path id="Path_12386" data-name="Path 12386" d="M321.9,117.5l2.7-2.2,5.3-4.6c1.3-1.2,9.5-16.3,9.5-16.3l-8.2-2.8-9.4,7-3.7,8,3.8,10.9Z" fill="#cc7a5e"/>
    <path id="Path_12387" data-name="Path 12387" d="M335.9,82.1l3.8.6a1.324,1.324,0,0,1,.9,2.1l-14,19.7a1.436,1.436,0,0,1-1.5.5l-6.6-1.7,15.9-20.8a1.748,1.748,0,0,1,1.5-.4Z" fill="#1f2b36"/>
    <path id="Path_12388" data-name="Path 12388" d="M297.9,127.4s14.8-16.2,16-18.7a64.217,64.217,0,0,0,2.5-8.6c.4-2.4,2.4-4.3,3.9-5.7s7.7-3.7,7.7-3.7a3.459,3.459,0,0,1-.1,2.9,11.474,11.474,0,0,1-5,4.2s-1.6,4.2-2.5,5.9l-.9,1.7s1.1-.3,3.6,2.5c2.4,2.8,1.1,7.3,1.1,7.3l-15.3,22.5-11-10.3Z" fill="#e89976"/>
    <path id="Path_12389" data-name="Path 12389" d="M332.6,90.7c.7-1.3,2.9-.6,3.7,0,.8.5,3.6,1.7,2.8,3.1s-2,1.6-3.9.7c-1.8-.8-3.1-2.7-2.6-3.8Z" fill="#ea9d7d"/>
    <path id="Path_12390" data-name="Path 12390" d="M337.2,95.6a4.688,4.688,0,0,1-2.1-.6c-2-.9-3.6-3-2.9-4.5h0a1.785,1.785,0,0,1,1.2-.9,4.78,4.78,0,0,1,3.2.7c1.28.73,2.9,1.5,3.2,2.6a1.672,1.672,0,0,1-.1,1.2,3.124,3.124,0,0,1-2.5,1.5ZM333,90.9c-.3.8.7,2.3,2.4,3.2,1.9.9,2.7.4,3.2-.5a.756.756,0,0,0,.1-.4c-.42-1.1-2.6-2-2.7-2.1a3.353,3.353,0,0,0-2.4-.6A1.275,1.275,0,0,0,333,90.9Z" fill="#cc7a5e"/>
    <path id="Path_12391" data-name="Path 12391" d="M327.9,99c.2-1.5,2.5-1.6,3.4-1.3.9.2,4.5.4,4.2,2.1s-1.8,2-3.9,2c-1.9-.3-3.8-1.6-3.7-2.8Z" fill="#ea9d7d"/>
    <path id="Path_12392" data-name="Path 12392" d="M332.2,102.3h-.5c-2.2-.3-4.4-1.7-4.3-3.3h0a2.223,2.223,0,0,1,.8-1.3,4.177,4.177,0,0,1,3.2-.4c.2,0,.4.1.7.1,1.2.2,3,.5,3.6,1.4a2.016,2.016,0,0,1,.3,1.1c-.3,2-1.9,2.4-3.8,2.4Zm-3.8-3.2c-.1.8,1.5,2,3.4,2.2,2.2.1,3.1-.3,3.3-1.5,0-.2,0-.3-.1-.4-.4-.6-2.1-.9-3-1a5.241,5.241,0,0,0-3.2-.04.923.923,0,0,0-.4.74Z" fill="#cc7a5e"/>
    <path id="Path_12393" data-name="Path 12393" d="M326.4,102.8c.1-1.3,2.2-1.3,3-1.2s3.5.2,3.3,1.6c-.2,1.5-1.2,2-3,1.8-1.7-.1-3.4-1.2-3.3-2.2Z" fill="#ea9d7d"/>
    <path id="Path_12394" data-name="Path 12394" d="M330.5,105.6h-.8a4.9,4.9,0,0,1-3.4-1.5,1.678,1.678,0,0,1-.4-1.3,1.524,1.524,0,0,1,.6-1.1,4.331,4.331,0,0,1,3-.5,1.087,1.087,0,0,1,.5.1c.9.1,2.4.3,3,1a1.93,1.93,0,0,1,.3,1,2.512,2.512,0,0,1-2.8,2.3Zm-1.8-3.5a2.235,2.235,0,0,0-1.5.4c-.2.1-.2.3-.3.4h0a.764.764,0,0,0,.2.5,4.009,4.009,0,0,0,2.7,1.1c1.9.2,2.3-.4,2.5-1.4,0-.2,0-.2-.1-.3-.3-.4-1.6-.6-2.3-.7h-1.2Zm-2.3.7Z" fill="#cc7a5e"/>
    <path id="Path_12395" data-name="Path 12395" d="M311.5,116.4c7.9,5.3,5.9,8.8,5.9,8.8l-8,11.6-10.3-10.7,9-10c.7-.5,2.4-.3,3.4.3Z" fill="url(#linear-gradient)"/>
    <path id="Path_12396" data-name="Path 12396" d="M329.4,94.8c.5-1.4,3.1-1.2,4.2-.9s4.8,1.2,4.1,2.8-2.2,1.6-4.4,1.2c-2.4-.3-4.4-1.8-3.9-3.1Z" fill="#ea9d7d"/>
    <path id="Path_12397" data-name="Path 12397" d="M335.3,98.7a8.918,8.918,0,0,1-2.2-.3,5.9,5.9,0,0,1-4-2.3,1.6,1.6,0,0,1-.1-1.5c.7-1.9,3.7-1.5,4.8-1.2a4.331,4.331,0,0,0,.5.1c1.6.5,3.4,1.1,3.9,2.2a1.275,1.275,0,0,1,0,1.2,2.732,2.732,0,0,1-2.9,1.8Zm-3.5-4.5c-.9,0-1.7.2-1.9.8h0a.981.981,0,0,0,.1.7,4.724,4.724,0,0,0,3.3,1.8c2.5.5,3.4.3,3.9-.9a.3.3,0,0,0,0-.4c-.4-.8-2.4-1.4-3.3-1.6A8.683,8.683,0,0,0,331.8,94.2Zm-2.4.6Z" fill="#cc7a5e"/>
    <g id="Group_855" data-name="Group 855">
      <path id="Path_12398" data-name="Path 12398" d="M308.8,133l.1.8-1-.3Zm3.8-1.9h.6l-.2.5Zm-4.8-7.1.5.4-.7.3Zm-3.8,6,.4-.2.2.6Zm6.4,1-.1-.6.6.1Zm2.3-2,.7-.2-.2.8Zm4.4-3.8-.7.9-.7-1Zm-3.1,4.9-.7.9-.5-1Zm1.8-2.7-.7.8-.6-1Zm-4.4,1.5v.9l-.9-.4Zm-1-3.8,1,.2-.6.8Zm2.2,5.6-1.1-.2.6-1Zm-1.1-3.4-.5.8-.5-.9Zm-7.9.4.7.5-.8.4Zm12.7-1.5-.5.9-.6-.9Zm-7.8,5.6.9.3-.6.8Z" fill="#ad5c44"/>
      <path id="Path_12399" data-name="Path 12399" d="M308.9,132.5l.9.1-.5.9Zm6.1-4.6-.1.9-1-.6Zm-8.2,3.5.9.4-.8.6Zm7.9-2.4-.6.9-.7-1.1Zm-6.1-3.3.8.5-.9.5Zm1.3,7.6.8.5-.9.6Zm-2.1,1.2,1.7-.6-.1,2.1Zm-2.1-4.8-.9,1.6-1.4-1.4Z" fill="#ad5c44"/>
      <path id="Path_12400" data-name="Path 12400" d="M304.5,128.5l-.1,1.2-1.2-.3Zm2,1.9-.1,1.3-1.2-.5Zm3.2,4.2h.6l-.2.6Zm-4.9-7.8.6.3-.7.4Zm-1.2.4.4-.3.2.7Zm-.1-1.7.4-.3.2.7Zm3.8,8.4-1.3-1.4,2.2-.5Zm2.3-2,.7-.1-.2.7Z" fill="#ad5c44"/>
      <path id="Path_12401" data-name="Path 12401" d="M301,126.3l.6-.2v.7Zm6.4,4-.2-.6.7.2Zm.4-.7h-.6l.3-.6Zm7.2-2.9-1,.6-.1-1.2Zm-2.4-2.6v.7l-.7-.4Zm-5.1,2.7,1,.2-.7.8Zm-1.4,4.8,1,.2-.6.9Zm-.8-2,.9.3-.6.8Zm6.8,2.5-1.1-.2.5-1Zm2-7.2v.9l-1-.7Zm-8.5,2.3.7.6-.9.5Zm-4.5-.6.7.4-.8.6Z" fill="#ad5c44"/>
      <path id="Path_12402" data-name="Path 12402" d="M312.2,126.1l.9.2-.6.9Zm-.7,7-.8,1.1-.7-1.4Zm.2-1.2-.3.8-.7-.6Zm-10.4-4.1,2.2-.7-.4,2.4Zm-1.6-1.7,1-.4-.2,1.1Zm13.2,5.7-.8.7-.5-1.2Zm-7.1-3.7.9.4-.9.6Zm1.8,3.2,1.4-1.4,1,2.2Z" fill="#ad5c44"/>
    </g>
    <path id="Path_12403" data-name="Path 12403" d="M250.3,107.9s12.5,16.2,19.1,21.7c6.5,5.5,12.5,6,16.6,3.7,4.3-2.4,11.6-8.3,14.2-10.5a1.4,1.4,0,0,1,1.9.1l12.2,12.5a1.239,1.239,0,0,1,.2,1.6c-2.4,3.6-11.98,18.2-23.88,27.4-13.3,10.2-16.72,6.9-27.82-.1-14.9-8.7-12.5-56.4-12.5-56.4Z" fill="#0a545a"/>
    <path id="Path_12404" data-name="Path 12404" d="M291.9,129.7l15.5,16.8s-9.6,13.7-19,19.5c-6.5,4-12.8,8.6-21.7.3-15.9-14.7-6.9-46.8-6.9-46.8s5.4,7.6,12.1,12.1a18.573,18.573,0,0,0,9.4,3.2C285.3,134.8,291.9,129.7,291.9,129.7Z" fill="url(#linear-gradient-2)"/>
    <g id="Group_856" data-name="Group 856">
      <path id="Path_12405" data-name="Path 12405" d="M270.9,137.7l.3-1.7-1.5.3Zm-5.7-6.9-.1-1.9-1.5.8Zm3.6,4.7,1.8-1.1-1.5-1.2Zm-5.2-8.2.8-.4-1-.5Z" fill="#0a4049"/>
      <path id="Path_12406" data-name="Path 12406" d="M261.4,122.9l.8-.1-1.3-1.5Zm2.7,8.6,1.2-.4-1.2-1.5Zm1.4-.3,2.2-.6-1.2-1.4Zm-1.1-2.1,1.8-1-1.5-1.2Zm4.1,10,1.7-1.1-1.6-1.1Z" fill="#0a4049"/>
      <path id="Path_12407" data-name="Path 12407" d="M267.6,139.7l1.9-.8-1.4-1.3Zm6.9,10.7-.2-1.9-1.4,1Zm-3.7-10.9.7-1.7h-1.6Zm2.9,9.4v-1.2l-1.1.4Zm1.1,5.6-1.1-.2.2.9Zm5.4-6.5-.5,1h.9Zm6,6.1,1.3.3-.2-1Zm-5.7-.3.5-.9h-.9Zm5.2,6.8-.8-.7-.3.9Zm-23.1-36-.3-1.8-1.4.8Zm2,9.5.9-2.6-1.6-.1Z" fill="#0a4049"/>
      <path id="Path_12408" data-name="Path 12408" d="M265.3,136.4l1.5-2.2-2.3-.5Zm16.9,16,1.2-.1-.6-.9Zm-8.1-16.2.1,1,.8-.5Zm11,14.6.2-1-.9.3ZM269,132.4l.3-1-.9.1Zm-5-7-2.3-1.2,1.1,3.4Z" fill="#0a4049"/>
      <path id="Path_12409" data-name="Path 12409" d="M266.7,128.2l-3.9-.7.9,3.5Zm2.4,8.3-4-.5,1,3.4Z" fill="#0a4049"/>
      <path id="Path_12410" data-name="Path 12410" d="M269.8,139.9l-3.7-.6.8,3.5Z" fill="#0a4049"/>
      <path id="Path_12411" data-name="Path 12411" d="M270.8,143.3l-3.9-.6.8,3.6Zm-5.6-11.8,1.1,1.5.8-1.4Zm5.8,6.9,1.9-.9-1.3-1.2Zm-.5.3.2,2.1,1.6-1Z" fill="#0a4049"/>
      <path id="Path_12412" data-name="Path 12412" d="M267.7,146.1l.5,2,1.6-1.2Zm1.7-1.7.7,2,1.4-1.3Zm-.9-3.1.3,2.1,1.6-1Zm5.3.6-.9-.9-.4,1Zm4.9,3.1-1,.5.8.5Zm-1-8.5.3,1.1.7-.6Zm7.9,10.3,1-.7-1-.5Zm-3.9,4.3-.3-.9-.7.5Zm8.4.5-1,.1.5.8Zm-16.8-6.4-.4-2.1-1.6,1.1Zm1.9-5.1-1-.2.3.9Zm7.7,6.4.4,1.1.8-.7Zm-2.8-5,1-.1-.4-.8Zm-3,7.8.1-1-.8.3Zm-9.3-8.1,2.6-.9-1.8-1.8Zm-1.4-1.6,1.7-1-1.5-1Z" fill="#0a4049"/>
      <path id="Path_12413" data-name="Path 12413" d="M270.1,142.7l1.7.5-.2-1.5Zm-3.8-8.4.9.5.1-.9Zm7.9,25h2.2l-.8-1.7Zm10.3-16.9,1.2.5v-1.1Zm-5.6-.9.6-.8-.9-.2Zm4.3,7.2-.7-.7-.4.8Zm-4.3-4.1,1.1.6v-1.1Zm-2.4,2.7-.4,1,.9-.1Zm5.8-2.3.6-.8-.9-.3Zm-6-4.5.1,1.8,1.4-.8ZM274.7,154l2.1.2-.6-1.9Zm-1.8-8.4H275l-.7-1.7Zm6.2,7.2.3-1.2-1.1.1Zm-1,5.6-.9-.6-.2.9Zm7.3-4.2-.8.7.8.3Zm2.2-12.4,1.2-.1-.5-.9Zm-5.6,1.4.3-1-1,.3Zm6.9,4.9-.9-.3.1.8Zm-3.5.2-.8-.8-.3.9Zm-8.4-.5.3,1.2.9-.6Zm-2.2-5.2h1.1l-.4-.8Zm-3.9,7.5.3-1h-.9Zm8.9-2.6.4.9.6-.7Zm5.3,4.4.8,1.1.7-1Z" fill="#0a4049"/>
      <path id="Path_12414" data-name="Path 12414" d="M280.7,147.3l1-.3-.7-.8Zm-1.1,9.5v-1.2l-.9.5Zm-8.2-10.3-1.5-.9-.2,1.7Zm-.2,4.1.1-1.8-1.5.7Z" fill="#0a4049"/>
      <path id="Path_12415" data-name="Path 12415" d="M272.2,149.1l-1.6-.9-.2,1.6Z" fill="#0a4049"/>
      <path id="Path_12416" data-name="Path 12416" d="M269.9,149.5l1.2,2.5,1.7-1.8Z" fill="#0a4049"/>
      <path id="Path_12417" data-name="Path 12417" d="M268.2,148.2l.6,2.5,2.5-2Zm3.9,2.3,2-1-1.4-1.2Zm.2,3.1,2.1-.6-1.3-1.4Zm2.7-1.5.2-1.8-1.5.5Zm-3.2.7v-1.7l-1.3.6Zm1.8-7.3.9.4-.1-.9Z" fill="#0a4049"/>
      <path id="Path_12418" data-name="Path 12418" d="M272.7,150.9l-3.8-.3.5,3.5Zm1.3,2.6-.3,2,1.6-.5Zm4.2-.7.5.9.6-.7Zm-2.9-4.3.8-.2-.4-.7Zm-2.5,6.7.6-1.7-2,.7Zm11.3-.3.3,1.1.7-.7Zm-2.5-4.5.9-.1-.4-.7Zm-2.9,7,.2-.9-.8.2Zm-7.2.2.4-1.6-1.4.2Zm.4-1.8.9.4v-.9Z" fill="#0a4049"/>
      <path id="Path_12419" data-name="Path 12419" d="M276,170.9l-.9-2.7-1.3,2.4Zm-2.6-15.5-3.9-1,.6,3.5Zm-3.2,2.8.5,2,1.4-1Zm1.9-1.4.4,2.1,1.5-1.1Zm7-.4-.8-1-.5,1Zm4.2,3.8-.9.4.6.7Zm.4-8.4.2,1,.7-.4Zm-6.2,7.8-.5-2.3-1.5,1.2Zm-2-2-.8-2.1-1.3,1.5Zm-2.2-10.1-1.3-1.9-1.1,1.7Zm7.3,12.4-.5-2.1-1.5,1.2Zm7.6,3.2.1,1.4,1-.7Zm-1.8-5.3h1.1l-.4-.8Zm-4.5,7.2.4-1h-.9Zm-6.3-4.1-1.5-.9-.2,1.7Zm-2,2.5-.1-1.8-1.4.8Z" fill="#0a4049"/>
      <path id="Path_12420" data-name="Path 12420" d="M276.2,163.8l-1.7-.6.1,1.6Zm-.3,2.3,2.7.6-.4-2.4Zm-5.2-6.3.6,3.1,2.2-1.5Zm5.6,5.3,1.8-1.2-1.6-.9Zm-1-2.2,1.6-1.4-1.7-.8Zm4.8,4.6,1.2-1.6-1.9-.4Zm6.8-3.7-.5-2.1-1.6,1.1Zm-5.8-.1-1.3-1.2-.6,1.4Z" fill="#0a4049"/>
      <path id="Path_12421" data-name="Path 12421" d="M279.2,167.2l-1-1.4-.7,1.3Zm-1.7-6.9.9.5-.1-.9Zm-2.2,4-3.9-.8.6,3.6Zm5.6,1.8,1.2,1.6.8-1.5Z" fill="#0a4049"/>
      <path id="Path_12422" data-name="Path 12422" d="M283,162.2l1,.3.1-.9Zm-5-1,.5-.7-.8-.3Zm3.7,6.6-.6-.6-.4.7Zm-2.3-7.3,1.1-.4-.7-.7Zm-4.4,2.7v-.8l-.9.3Zm7.2,2.5h-.9l.2.7Zm-.8,3.2.8-.5-.6-.5Zm-5.8-1.8h-3.5l.9,3.4Z" fill="#0a4049"/>
      <path id="Path_12423" data-name="Path 12423" d="M280.1,170.4l2.1-.9-2.3-2.3Zm3.1-3.8-1.1-1.7-1,1.5Zm-2.1-2.1-1.8.2.9,1.4Zm-3.7,3.1-1.8.2.9,1.3Z" fill="#0a4049"/>
      <path id="Path_12424" data-name="Path 12424" d="M282.7,167.3l-1.8.5,1,1.2Zm-2.7,0-1.7.5.9,1.2Zm-2.9,1.3-.6,2.4,3.2-.6Zm5.2-3.2,1.8-.6-1.1-1.3Zm-2.6-3.6.8-.8-1.1-.3Zm-2.6,4.6-.5-.9-.5.8Zm7.5-1.4-.8.4.6.6Zm-1.9-10.8,1.1-.5-.8-.6Z" fill="#0a4049"/>
      <path id="Path_12425" data-name="Path 12425" d="M278.6,157.2l-.2-1-.7.5Zm7.3,2.1-.9-.2.3.9Zm1.4,7-1.6.2.2,1.1Zm-2.1-.1-.1-1-.8.4Z" fill="#0a4049"/>
      <path id="Path_12426" data-name="Path 12426" d="M282.2,166l.7,3.3,2.9-1.7Zm3.3-2.6,1.1,3.8,2.6-1.9Z" fill="#0a4049"/>
      <path id="Path_12427" data-name="Path 12427" d="M289.2,165.3l1.7-1.3-1.5-.7Zm-2.1-1.7,1.9-.9-1.4-1.3Zm-1.8.4h-1.2l.4,1Zm5.6-1.2-.2,1,.8-.2Zm-6.6-5.3.9.5v-.9Zm.3,3.3-2,.7L284,163Zm8.1-3.6,1.1.6v-1.1Zm-5.5-1.6.7-.8-.9-.3Zm3.2,7.7-.6-.8-.5.7Z" fill="#0a4049"/>
      <path id="Path_12428" data-name="Path 12428" d="M288.5,161.5l-.4,1.8,1.6-.5Zm3.6-1.8-1.5,1,1.4.9Z" fill="#0a4049"/>
      <path id="Path_12429" data-name="Path 12429" d="M290.2,159.9l.2,1.7,1.4-.8Z" fill="#0a4049"/>
      <path id="Path_12430" data-name="Path 12430" d="M291.3,161.8l1.9-2.2-2.4-.8Z" fill="#0a4049"/>
      <path id="Path_12431" data-name="Path 12431" d="M290.5,164.3l2.5-2-2.5-1.3Zm.9-5.3-1.9-1.1-.2,1.9Zm2.7-1.1-1.4-1.6-.8,1.7Zm-2.4-1.9-1.7.6,1.1,1.1Zm1.9,2.5-1.6.8,1.2,1Zm-6.3.6.3-1-.9.1Z" fill="#0a4049"/>
      <path id="Path_12432" data-name="Path 12432" d="M291.5,158.6l1.5,3.7,2.5-2.3Zm1.5-1.9,1.7-.7-1.3-1.2Zm-3.5-2.8.5-1-1-.1Zm-1.5,5-.7-.6-.3.8Zm7-3.1-.8.6.7.4Zm-3.1-7.2.8-.7-.9-.4Zm-3.1,4.2-.4-.8-.5.7Zm7.6-.4-.9.2.5.7Z" fill="#0a4049"/>
      <path id="Path_12433" data-name="Path 12433" d="M297.4,156.1l-1.5.7,1,.9Zm-1.6.8-.3-1-.6.6Zm-1.5.6,1.4,2.4,1.7-1.8Zm4.5-4.3-1.4,1.1,1.5.7Z" fill="#0a4049"/>
      <path id="Path_12434" data-name="Path 12434" d="M297,153.4l.3,1.7,1.4-.9Zm9.9-5.8,1.2-1.6-1.7-.4Z" fill="#0a4049"/>
      <path id="Path_12435" data-name="Path 12435" d="M297.5,158l2.3-2.3-2.6-.9Zm7.2-7.7-2.1-.2.6,1.7Zm-3.8.9-1.5-1.4-.7,1.6Zm-.5.8-1.6.8,1.3,1Z" fill="#0a4049"/>
      <path id="Path_12436" data-name="Path 12436" d="M298.2,152.1l1.7,3.6,2.3-2.4Zm5.9-2.2,1.7-.9-1.4-1Zm-9.2-.5.5-1h-1Zm-1.1,5.1-.7-.6-.3.9Zm6.8-3.4-.8.5.8.5Zm-1.4-7.3.1-1.1-1,.3Zm.2,5.1-.7-.3v.9Zm5.7-5.2-.6.7.8.3Z" fill="#0a4049"/>
      <path id="Path_12437" data-name="Path 12437" d="M304.6,149.1l-1.5.8,1.2.9Zm-2.1,1-.3-.8-.6.5Zm-1.6.6,1.3,2.4,1.8-1.9Z" fill="#0a4049"/>
    </g>
    <path id="Path_12438" data-name="Path 12438" d="M264.7,139.6a69.126,69.126,0,0,0-4.2-12.9c-7.4-17.7-18.1-28.3-33-27.7-3.6.1-15.2,1.3-21.6,27.7C205,130,190.4,208,190.4,208h79.3Z" fill="#fffdf3"/>
    <path id="Path_12439" data-name="Path 12439" d="M258.9,125.7c6.3,23.2,5.6,62.4,6.5,82.7a5.854,5.854,0,0,0,5.9,5.6h4.9s-5.7-58.6-13-87.5A34.98,34.98,0,0,0,241.1,102c9.5,6.6,14.8,12.5,17.8,23.7Z" fill="#0a545a"/>
    <path id="Path_12440" data-name="Path 12440" d="M251.2,151.9c1-27.1-2-53.3-25.7-53.3-3.6,0-16.6,3.7-23,29.5-.7,3-11.3,69.4-13.6,83.3a2.27,2.27,0,0,0,2.2,2.6h40c5.5,0,12.8-3.6,14.1-8.9,3.8-14.1,5.4-37.1,6-53.2Z" fill="url(#linear-gradient-3)"/>
    <path id="Path_12441" data-name="Path 12441" d="M232.5,168.8s-1.4,15-2.9,22.8c-1.1,5.6-7.6,8.3-16.2,7.8s-12.5-4.1-12.2-10.5,2.7-20.8,2.7-20.8l28.6.7Z" fill="#106268"/>
    <path id="Path_12442" data-name="Path 12442" d="M215.4,199.9a14.083,14.083,0,0,1-2-.1c-8.7-.5-13-4.2-12.7-11,.3-6.4,2.7-20.7,2.7-20.9l.1-.4,29.6.7v.5c0,.2-1.4,15.1-2.9,22.8-1.1,5.4-6.7,8.4-14.8,8.4Zm-11.1-31.3c-.4,2.4-2.4,14.6-2.6,20.3-.3,6.2,3.5,9.5,11.7,10,8.7.5,14.7-2.3,15.7-7.4,1.3-6.9,2.6-19.5,2.8-22.2l-27.6-.7Z" fill="#0e4f59"/>
    <path id="Path_12443" data-name="Path 12443" d="M242,156.9c.1,5.2,6.7,42.6-2.6,53.5-4,4.8-21.6,3.6-37.7,3.3-6.5-2.7,6.2-51.5,7.5-62.5,2.4-19.7,27.3-31.9,27.3-31.9S241.7,144.7,242,156.9Z" fill="url(#linear-gradient-4)"/>
    <g id="Group_857" data-name="Group 857">
      <path id="Path_12444" data-name="Path 12444" d="M222.2,165.1l1.5-.8-1.3-.9Zm-1.4-4.6,1.2-1.1-1.3-.5Zm4.3,2.4,2,.4-.5-1.8Zm-1.4-1.7-1.3,1.3,1.7.6Zm-.2-2,1.8.2-.3-1.6Zm-6,12.7,1.9-.6-1.1-1.3Zm3.4-14.8,1.8.8v-1.7Zm3.7-4.4,1.5,1.3.5-1.6Z" fill="#0a4049"/>
      <path id="Path_12445" data-name="Path 12445" d="M219.2,159.7l1.6,1,.3-1.6Zm1.5,1.5,1.5,1.1.5-1.7Zm.9-2.1,1.8.7v-1.7Zm-1.7,5.1,1.9.5-.3-1.7Z" fill="#0a4049"/>
      <path id="Path_12446" data-name="Path 12446" d="M219.2,164l1.7.8V163Zm7.1-4.8,1.3-1.1-1.4-.6Zm2.5-7.9,1.3-1-1.4-.5Zm-.6,4.8,1.2-1.2-1.5-.4Zm2.6-11,.8-.9-.5-.5Zm-2.1,1.3,1.7.7-.4-2.4Zm1.7,5.9.7-1.5-1.5.2Zm-2.7-1.3.7-1.5-1.4-.1Zm-6.3,15,1.5-.6-1-1Zm4.9-9,.8-.8-.9-.4Zm-2.7,4.6-.6-.9-.5.7Zm7.7-1.1-1,.2.7.7Zm-1.3,5.8,1.1.1-.3-.8Zm-5.2.9.3-.9-.8.2Zm5.9,5.1-.9-.4v.8ZM228.5,160l-.4,1h1Zm1.2-5.1.7.5.1-.8Zm-6.9,3.4.8-.5-.8-.4Zm.4-3.2,1-1.2-.7-1Zm1.5,1L227,155l-1.8-1.5Z" fill="#0a4049"/>
      <path id="Path_12447" data-name="Path 12447" d="M222.8,157.9l2.3,1.1v-2.3Zm5-3.8,1.4-.7-1.1-1Zm-1-2.1,1.6-.6-1-1Zm1.9,11,1,.6.1-1Zm-3.6,2.8-.7.8.9.1Zm5.3-3.4.8-.6-.8-.3Zm-3,25.4.6-.9h-.8Zm-17,13.5.8-.3-.6-.6Z" fill="#0a4049"/>
      <path id="Path_12448" data-name="Path 12448" d="M226.2,158.3l.8-.5-.7-.5Zm-1.3-1.8-2.2-2.8-1.9,2.8Zm-2.5,3.3-1.8-3.2-2,2.7Zm6.8-10.3,1.8.4-.4-1.7Zm-.4-1-.6-1.5-1.3,1.9Zm2.8-.8-.8-.9-.3.9Zm-12.2,33.2,1.1-1-1.2-.6Zm7.6-29-1.1-1.9-1.5,1.9Z" fill="#0a4049"/>
      <path id="Path_12449" data-name="Path 12449" d="M220.3,162l-1.7-2.8-1.7,2.6Zm-1.5,3.1-1.9-3.2-1.9,2.7Z" fill="#0a4049"/>
      <path id="Path_12450" data-name="Path 12450" d="M217.3,167.5l-2.2-2.9-1.6,2.5Zm9.4-8.2-.1,1.6,1.4-.3Zm-4.6,6.1,2,.8-.2-1.8Zm-7.5,14h1.9l-.7-1.7Z" fill="#0a4049"/>
      <path id="Path_12451" data-name="Path 12451" d="M218.1,177.5l1.8-.1-.7-1.4Zm3.5-12.1-1.1,1.4,1.6.5Zm-8.2,2-.5,1.9,2.8-.6Zm3.9-.2-.7,1.8,1.8-.2Z" fill="#0a4049"/>
      <path id="Path_12452" data-name="Path 12452" d="M218.7,165.7l-1.2,1.5,1.6.4Zm2.8,1.8-.1-1.1-.9.6Zm2.2,4.7h-1l.3.8Zm3.5-6.9-.4.9.9-.1Zm-10.7,2.8-.2-1.1-.9.6Zm2.1,4.9-1-.1.4.8Zm3.5-7.1-.3,1,.8-.1Zm7.2,9.6,1-.3-.7-.7Z" fill="#0a4049"/>
      <path id="Path_12453" data-name="Path 12453" d="M224.8,178.4v-1l-.9.5Zm7.4,2.4-.9-.1.2.7Zm-12.7-11,.8-2-2,.3Zm2.5,1.5.7-1.8-1.6.2Zm-7-.3.7-1.9-1.8.2Zm7.7-2.3,1.3-1.5-1.8-.5Zm-4.3,14.6.7-1.8-1.7.1Zm-.1-20.6-.7-.6-.2.8Zm5.9,4.2-.2,1,1-.2Zm0-5.4.9.5v-.9Zm-6,4.8.6-.7-.8-.3Zm17-17.6.8.8.4-1Zm-4.4-2.8.8-.6-.7-.4Zm.9,7.8-.3-1-.6.6Zm3.4-.9.8.8.4-1Zm-4.4-2.9.8-.5-.6-.5Zm1,7.8-.3-.9-.7.6Zm-.1-14.4,1.5,1.3.5-1.6Zm4.1-1.2,1.1-1.2-1.4-.4Zm-.2,4.9,1-1.3-1.4-.3Zm1.2-11.4.8-1-.7-.4Zm-1.3,2.8,1.2-1.2-.8-1Zm1.9,4.6.8-1.6-1.5.1Zm-2.8-1.1.5-1.6-1.4.1Zm-2.6,10.8.6-.9-1-.2Zm-2.1,4.9-.6-.7-.4.7Zm7.5-2.3-.9.4.7.5Zm-1.8-5.4-.4,1.1,1-.1Zm.7-5.1.8.4.1-.8Zm-6.6,4,.7-.6-.8-.3Zm2.1-2.1,2.3-1.1-1.8-1.5Zm1.3,3.2.2-2.6-2.2.7Z" fill="#0a4049"/>
      <path id="Path_12454" data-name="Path 12454" d="M234.8,144.7l1.5-.8-1.1-.9Zm-1-2.1,1.6-.6-1-.9Zm1.9-2.4,1.9.2-.5-1.8Zm-.3-.8-.8-1.3-.9,2Z" fill="#0a4049"/>
      <path id="Path_12455" data-name="Path 12455" d="M237.9,138l-.8-.8-.3,1Zm-3.7,4.6-1-1.9-1.6,2Zm7.5-3.2.9.6.3-.9Zm-4.8-2.1.7-.8-.7-.3Zm2.1,7.4-.5-.8-.5.7Zm.6-.8.3-1.1-1,.1Zm-.3,5.2-.8-.4-.1.7Zm3.4-3.2-.7.7.9.3Zm-3-8.3-.6.7.9.2Zm-.1-2.6-1.3.4.8.9Zm-.2-1.9-1.3.3.8.8Zm-1.7,20.3.8.8.4-1Zm-4.5-2.9.9-.5-.6-.4Zm1,7.8-.3-.9-.6.6Zm-7.6,17.1-.2,1.2.9-.2Zm.4-5.2.8.4v-.8Zm-6.3,4.7.6-.8-.9-.2Zm1.3-8.7-.3,1.2.9-.2Zm.4-5.2.7.4.1-.8Zm-6.4,4.7.7-.8-.9-.2Zm2.2-.5,2.4,1,.1-2.2Zm-.5-2.4,1.8.5-.2-1.7Z" fill="#0a4049"/>
      <path id="Path_12456" data-name="Path 12456" d="M218.4,165.9l1.3,1.2.4-1.4Zm11.5-.6.4.8.5-.7Zm.6-1.8.9.8.4-1.1Zm-5.2-3.1,1-.5-.7-.6Zm1.3,8.7-.3-1-.7.7Zm-3.5,11.7,1.3.3-.1-1.1Zm-6-.4.6-.8-.9-.1Zm5.3,7.1-.8-.8-.4,1Zm-4.7-17.6-.9-1.5-.8,1.1Zm-2.2,3,.8-1.4-1.4-.3Z" fill="#0a4049"/>
      <path id="Path_12457" data-name="Path 12457" d="M216.9,172.2l-.7-1.5-.9,1.1Z" fill="#0a4049"/>
      <path id="Path_12458" data-name="Path 12458" d="M215,171.3l-.3,2.5,2.2-.6Zm-2-2-.4,2.2,2.7-.3Z" fill="#0a4049"/>
      <path id="Path_12459" data-name="Path 12459" d="M216.3,173.2l2,.3-.5-1.7Zm-1.3,2.6,1.9.3-.4-1.7Zm2.8-.2,1-1.2-1.4-.4Zm-2.8-.7.8-1.4-1.5-.3Z" fill="#0a4049"/>
      <path id="Path_12460" data-name="Path 12460" d="M219.5,170.1l.5.8.5-.8Zm-4,3.5-3-2-.6,3ZM213,184.9l.5-.9-.9-.3Zm-.8-1.5,1.5.4-.2-1.4Z" fill="#0a4049"/>
      <path id="Path_12461" data-name="Path 12461" d="M212.3,181l1.6.3-.4-1.4Zm1,3.1,1.3.2-.2-1.1Zm3.5-4.5-1,1.4,1.5.3Zm-5.1,11.9-1.4-1L210,192Z" fill="#0a4049"/>
      <path id="Path_12462" data-name="Path 12462" d="M215.4,181.6l-1,1.6,1.6.1Zm1.1-5.7-.9,1.5,1.6.1Zm3.9.6.1,1.1.8-.4Zm-1.2-4.6.9.3-.1-.8Zm-4.1,5.7.4-.8h-.9Zm7.5,5.6v1l.8-.5Zm-1.4-4.6.8.1-.2-.7Zm-3.9,5.8.4-.7h-.8Zm5.2-3.7.1,1.1.8-.4Zm-.9-4.7.8.3v-.8Zm-4.5,5.6.4-.7-.7-.1Zm-3.4.9,1-.9-1.2-.5Z" fill="#0a4049"/>
      <path id="Path_12463" data-name="Path 12463" d="M214,181.5l1.9-.9-1.3-1.2Z" fill="#0a4049"/>
      <path id="Path_12464" data-name="Path 12464" d="M215.1,180.5l.9-1-1.2-.2Zm-1.8-1.9,1-1.2-1.4-.4Z" fill="#0a4049"/>
      <path id="Path_12465" data-name="Path 12465" d="M214,177.2l.7.6.2-.8Zm.9-.9-2.8-1.7-.7,3.1Z" fill="#0a4049"/>
      <path id="Path_12466" data-name="Path 12466" d="M213.7,179.4l-2.3-1.7-.4,2.7Zm-.1,2.6-2.4-1.5-.5,2.3Zm-.7,2.2-2.1-1.2-.4,2Zm3.6,1.5,1-1.3-1.3-.3Zm-3.1.8.9-1.4-1.6-.2Z" fill="#0a4049"/>
      <path id="Path_12467" data-name="Path 12467" d="M214,185.7l1.1-1.3-1.6-.3Zm.7,1.9,2,.4-.4-1.6Zm-1.4,2.1,1.6.8v-1.8Zm2.6.7,1.1-1.2-1.3-.5Zm-2.9-2.1.9-1.4-1.4-.2Zm5.7.6-.4.7.8.1Z" fill="#0a4049"/>
      <path id="Path_12468" data-name="Path 12468" d="M213.8,187.1l-3.3-2-.4,2.7Zm.6,3.5-1.7.6,1.2,1.1Zm2.4,2.8-.4,1,.8.1Zm1.4-4.5.7.6.2-.7Zm-6.5,2.8.7-.5-.6-.5Zm3.7,8.7-.6.9.9.2Zm2.1-4.3.5.7.4-.7Zm-6.9,1.8.8-.4-.6-.5Zm6.6-1-.5.9.9.2Zm2.1-4.3.6.6.3-.6Zm-6.8,1.7.8-.3-.5-.5ZM231.6,168h1.2l-.5-.8Zm-5,1.4.2-.7-.9.1Zm6.3,4.5-.8-.4v1Zm-3.3,16.8.5-.8h-.9Zm3.3-9.9,1.2-.4-.7-.7Z" fill="#0a4049"/>
      <path id="Path_12469" data-name="Path 12469" d="M228.4,183.4v-.9l-.6.4Zm7.4,2.7-1-.1.2.7Zm-13.9,2.1.8-1.9-1.7.1Zm-8.5,7.7,1.7-1-1.5-.9Zm-2.2,4.4,1.7-1.1-1.5-1Zm1.1-4.4-.1,2,1.7-.6Zm2-5,.3,2,1.4-1.2Zm5.6-2.4,1-1.9-1.9.1Zm-11,11.6,1.8-.4-1.5-1.7Zm.7,4,.4-1.2h-1.3Zm.5-5.2.6-1.2h-1.4Zm.7-2.6.5-1.2-1.4.1Zm18.3-18.2-.2,1.2,1-.2ZM229,173l.8.3.1-.8Zm-6,5,.6-.8-.8-.2Zm3.6,7.8,1.3.4-.1-1.2Zm-5.8-.6.6-.9-1-.1Zm4.9,7.4-.7-.9-.4.9Zm.3-4.5.1,1,.9-.4Zm-1.1-4.6.8.2-.2-.8Z" fill="#0a4049"/>
      <path id="Path_12470" data-name="Path 12470" d="M220.7,189.2l.5-.7h-.8Zm4.5-5.7.2,1,.7-.6Zm-1.3-4.7.7.2-.1-.8Zm-4,5.9.3-.8-.7.1Zm-3.6,8.7,1.6,1.1.3-1.7Zm.1,3,1.5-.7-1.1-1Zm-7.5,6,1.5-.5-.9-1.1Zm1.6-3.4,1.7-.4-.9-1.2Zm9.1-3-.8.5.8.3Zm-2,3-.6.8,1,.1Zm1.6-4.5.6.5.3-.7Zm-6.7,2.4.8-.5-.6-.4Zm4.9,8.2-.5.9.9.1Zm1.6-4.5.6.6.3-.8Zm-6.6,2.4.7-.4-.5-.5Zm2.1,4.8-.2,1,.9-.3Zm0-4.8.7.3v-.8Zm-5.5,4.5.5-.7-.6-.2Zm3.1-10.8.5-1.2h-1.1Zm-1.5-2.7.8-1.2-1.3-.3Z" fill="#0a4049"/>
      <path id="Path_12471" data-name="Path 12471" d="M211.1,190.2l-.1.9.8-.3Zm2.4-.8-3.4-1.3-.3,2.3Zm-1.2,5-2.5-1.3-.3,2.6Z" fill="#0a4049"/>
    </g>
    <path id="Path_12472" data-name="Path 12472" d="M185.7,216.1a236.824,236.824,0,0,0,13.5,33.4,56.553,56.553,0,0,0,7,19.7c.4.7,1,1.9,2,1.9a1.007,1.007,0,0,0,1-.9s1.4,2.8,2.1,3.2c1.6.9,1.6-.8,1.6-.8s1.5,1.7,2.8,1.3c1.2-.4.7-1.9.7-1.9s1.1.9,1.9.2c.6-.6-.2-3-1.3-5.4-.9-1.9-1.9-7.2-2.2-8.2-.4-.9,1.27,1.33,2.47,2.43,1.4,1.1,3.83.97,2.13-1.73s-2.7-5.1-3.2-5.8c-.5-.6-2.1-3.4-4-4.8-1.2-.9-3-1.6-4.1-4.9-1.5-5.5-3.3-25.5-4.3-35.3-.5-4.9-1.8-17.5-1.3-21.5-.5-12.2-28-.7-16.8,29.1Z" fill="#ea9d7d"/>
    <g id="Group_858" data-name="Group 858">
      <path id="Path_12473" data-name="Path 12473" d="M212.96,272.34c-.1-.2-.06-.34.14-.54a.64.64,0,0,1,.72.07c.3.6.76,1.9,1.58,1.53.85-.4.46-1.53.46-1.53,0-.2-.06-.27.14-.27.2-.1.57-.3.67-.1.1.1.48.8,1.13.4.4-.3.1-1.3-.8-3.8a95.645,95.645,0,0,1-2.9-9.9.864.864,0,0,1,.3-.6c.2-.1.35.14.55.34,1.47,1.83,3.28,3.38,4.18,3.48.1,0,.57-.2.47-.5a5.436,5.436,0,0,0-.4-.8c-.3-.5-4.4-9-7.1-10.8a10.06,10.06,0,0,1-4.2-4.4c-.7-1.4-1.6-9-2.8-19.5l-.2-2.1c-2.6-22.4-3.1-36.2-3.1-36.3a.5.5,0,0,1,1,0c0,.1.6,13.8,3.1,36.2l.2,2.1c.9,7.5,2,17.9,2.7,19.2a8.778,8.778,0,0,0,3.8,4c2.9,2,7.2,10.7,7.4,11.2.3.5.95,2,.2,2.5a1.459,1.459,0,0,1-1.2.3,10.7,10.7,0,0,1-3.6-2.6,60.759,60.759,0,0,0,2.4,8c1.1,2.9,1.5,4.22.6,5.02-.5.5-1.56.14-1.66.14a2.076,2.076,0,0,1-1.02,1.54c-1.7.4-2.65-2.07-2.75-2.27Z" fill="#cc7a5e"/>
      <path id="Path_12474" data-name="Path 12474" d="M216.5,272.5a.55.55,0,0,1-.5-.3l-3.9-9.7c-.1-.3,0-.5.3-.7.3-.1.5,0,.7.3l3.9,9.7c.1.3,0,.5-.3.7Zm-3,.2a.55.55,0,0,1-.5-.3l-4.3-9.3a.515.515,0,1,1,.9-.5l4.3,9.3a.618.618,0,0,1-.2.7.31.31,0,0,1-.2.1Z" fill="#cc7a5e"/>
    </g>
    <path id="Path_12475" data-name="Path 12475" d="M185.7,215.7l1.7,5.6,2.2,6.4,16.1-.9-1.2-13.2-18.8,2.1Z" fill="url(#linear-gradient-5)"/>
    <path id="Path_12476" data-name="Path 12476" d="M235.9,103.2c7.3,6.6,7.1,24.7-5.1,40.2-5.2,6.7-16.1,19.9-17.3,23-2.1,4.9-5.8,44.8-6.4,46.4-.2.5-.7.5-1.2.6L183.5,217a2.09,2.09,0,0,1-2.1-1s-11-40.9-7-58.2c4.8-21.2,21.9-46.2,32.2-53.8C214.8,98.3,229,96.8,235.9,103.2Z" fill="#0a5f66"/>
    <g id="Group_859" data-name="Group 859">
      <path id="Path_12477" data-name="Path 12477" d="M187.4,132.7l.9.5.1-1.2Zm1.8-2.7.3-.7h-.7Zm-4.1,2.2,1.3.1-.7-1.4Zm3.8.9,1.2-.6-1.3-.9Zm-1.5,2,1.1-.8-1.2-.7Zm1.8-3.4,1-.8-1.1-.7Zm7.9,3.7.7.2-.1-.8Zm-9.9-6.8-1.2,2.1,2.7.4Zm9-8,.9.6.2-1Zm-2.1-.7.9.8.3-1.1Zm1.2-1.9.8.7.3-1.2Zm-.1,1.2.9.7.3-1.2Zm.6,3.8,1.1-.6-1-.9Zm-3.1-.5,1.1-.6-1.1-.8Zm-2,2.2,1.2-.6-1.1-.8Zm3.9-7.6-1,1.3,1.9.5Zm2.3,2.2,1.2-.4-1.1-1Zm-2.7,2.6,1.2-.6-1.1-1Zm3.4-4.4,1.2-.6-1-.9Zm-6.3,13.3,1.1-.8-1.2-.6Zm1.9-3.7-1-1-.4,1.5Zm-.9,1.3-1-.8-.3,1.5Zm.5-4.2.8.6.3-1.3Zm5-6.2.8.7.3-1.2Z" fill="#147a7c"/>
      <path id="Path_12478" data-name="Path 12478" d="M196.3,116.6l.7.9.6-1.2ZM191,128.8l.6.5.3-.6Zm2.6-4.1-.3.5.7.1Zm2.7,5.6-.7-.2.1.7Zm-4.8.5,1.3.6-.1-1.5Zm5.4-1.9-.1.7.6-.2Zm.5-3.7.2.8.7-.4Zm4.1-6-.2.7h.9Zm4.9.3h-.6l.3.6Zm-5.6,4.9h-.7l.2.7Zm2.4,0-.2-.6-.5.5Zm.8-1.6-.6.1.5.6Zm1.3,2.7-.6.2.6.5Zm-14.1-1.9.9.7.3-1.2Z" fill="#147a7c"/>
      <path id="Path_12479" data-name="Path 12479" d="M191.4,125.1l1.6.3-.5-2Zm2.5-1.2,1.5-.8-1.6-1.2Zm-6.3,8.9,1.3-1-1.6-1Zm2.9-6.5.8.7.4-1.2Zm-1.4-.1,1,.6.1-1.2Zm10.5-5.6-.3-.7-.4.6Z" fill="#147a7c"/>
      <path id="Path_12480" data-name="Path 12480" d="M189.9,127.3l.4-.6h-.7Zm4.7-4.2.6.2-.2-.7Zm-5.9,6.9,1.1-.7-1.2-.8Z" fill="#147a7c"/>
      <path id="Path_12481" data-name="Path 12481" d="M188.7,126.3l-1.3,2.1,2.8.3Zm1.6-2.6-1.3,2,2.7.4Zm1.7-2.6-1.3,2.1,2.6.3Zm1.6-2.6-1.5,2.1,2.7.5Zm2.5-3.1-1.4,1.8,2.6.8Zm-.2,13-.2-.6-.6.4Zm-1.8-1.5-.1-1.1-.9.9Zm2.3-2.7-.1-.7-.7.5Zm-1,6-.1-.6-.5.5Zm6.5-14.3.3.8.6-.7Zm3.1-7-.1.6.8-.1Zm3.1-.8-.6.1.4.7Zm1.7-2.5h-.7l.2.6Zm2-2.4-.7-.1.3.8Zm-6.7,10.6-.3-.6-.4.6Zm-1.8-1.8-.4-.5-.3.5Z" fill="#147a7c"/>
      <path id="Path_12482" data-name="Path 12482" d="M203.5,109.8l.2,1.4,1.2-1Zm4.2,1.5-.3.5.5.2Zm3.1-6.6-.7.2.6.5Zm1.6-2.2-.5.3.4.6Zm-6.4,8.7.2-.5-.7-.1Zm-.5-1.2.4-.5-.7-.2Zm-3,8.3.2-.5h-.6Zm-6.9,10-.3-.4-.4.4Zm7.4-20,.3.4.4-.7Zm-1.2,3,.9-.3-.6-.9Zm-1.8,1,.9-.3-.9-.9Zm3.4-4.8.8.4.1-.9Zm-1.3,6.7-.8-.7-.4,1.2Zm-2.2,2.1-.7-.8-.6,1.2Zm1.4,2.9-.1-.7-.6.4Zm-4,1.7.5-.3-.5-.4Z" fill="#147a7c"/>
      <path id="Path_12483" data-name="Path 12483" d="M198.3,115.3l.4.4.3-.4Zm2.3-3.4.6.5.3-.9Z" fill="#147a7c"/>
      <path id="Path_12484" data-name="Path 12484" d="M199.8,113.2l1.5.1-.5-1.4Zm-.1.5.8.5.3-.9Zm-1.7.1.8.5.2-1Zm1.2,1.3.2-.6-.6-.1Z" fill="#147a7c"/>
      <path id="Path_12485" data-name="Path 12485" d="M197.6,113.7l-1.5,1.6,2.3,1Zm1.8-2.2-1.2,1.7,2.1.5Zm1.6-1.6-1.3,1.2,1.9.8Zm4.6-4-1.3.8,1.4,1.1Zm-3.1,2.4-1.2,1.2,1.6.7Zm5.8-3.5-.2.7.6-.1Zm-1.3,1.9.2,1,1-.6Zm3.3-3.1-.1,1.1,1-.6Zm-4.2,3.5.8-.1-.4-.9Zm1.2-2.2-1,.7,1.1.9Zm2.4-1.2-.9.6.9.5Zm-32.6,51.7,1,.3-.1-1.1Zm1.2-3.2.1-.7-.7.1Zm-3.1,3.4,1.2-.2-.8-1.2Zm3.5,0,.9-1-1.4-.4Zm1.9-.3.8-.9-1.4-.6Zm-1.7-1.2.9-.9-1.4-.5Zm8.7,2.1.8.1-.3-.8Zm-11.1-4.9-.7,2.4,2.7-.3Zm7.7-9.4.9.7.2-1.3Zm-2.1-.7.8.8.3-1.3Zm.7-2.2.9.6.1-1.2Zm.2,1.4.9.5.2-1.2Zm1,3.9,1-.7-1.1-.8Zm-3.1-.3,1.1-.7-1.3-.8Zm-1.8,2.9,1.1-.7-1.2-.8Zm2.8-8.6-.9,1.5,1.9.3Zm2.7,1.9,1.1-.4-1.1-1Zm-2.2,3.1,1.1-.7-1.1-.8Zm2.6-5.2,1.1-.7-1.3-.8Zm-4.2,14.7,1-.9-1.5-.5Zm.7-3.7-1.1-.6v1.4Zm-.7,1.2-1.2-.6.1,1.6Zm.3-4.6,1,.6V145Zm4.2-6.8,1,.7.1-1.3Zm-1.7-1.4.8.6.3-1.2Zm-3.1,13.6.7.3.2-.8Zm1.6-4.7-.2.6.7-.1Zm3.9,4.9-.7-.1.3.7Zm-4.8,1.6,1.4.3-.4-1.6Z" fill="#147a7c"/>
      <path id="Path_12486" data-name="Path 12486" d="M185.6,150.7l.1.6.5-.4Zm-.1-4.3.1.8.7-.5Zm4-6.2-.2.8.8-.2Zm4.9,0h-.6l.3.7Zm-5.3,5h-.6l.2.7Zm2-.2-.3-.5-.4.4Zm.9-1.8-.6.3.6.4Zm1.4,2.7-.6.3.5.4Zm-.1-9.1.5.2-.1-.7Zm-2.1-.5.1.7.6-.4Zm-1.2-2.1.1.6.6-.3Zm-.2,4,.7-.2-.5-.6ZM188,137l1.2-.2-.8-1.1Zm-1.9,7.6,1.2-.3-.9-1.1Zm3.1-9.6.6-.2-.3-.5Zm-9.9,10.2.9.6.3-1.1Zm.7,2.1,1.7.1-.8-1.7Zm2.2-1.9,1.4-1-1.6-1Zm-5.5,10.3.9-1.3-1.4-.4Zm2.6-6.9.9.4.1-1.2Zm-1.1-.5.9.6.1-1.2Zm9.4-6.7-.4-.5-.3.6Z" fill="#147a7c"/>
      <path id="Path_12487" data-name="Path 12487" d="M179.1,149.4l.2-.5h-.7Zm3.8-4.9h.6l-.3-.6Zm-5.1,7.8.9-.9-1.4-.4Z" fill="#147a7c"/>
      <path id="Path_12488" data-name="Path 12488" d="M177.3,148.8l-.7,2.3,2.8-.3Zm1.2-2.9-.9,2.1,2.6.1Zm1.1-3.3-1.1,2.1,2.7.2Zm1.5-2.8-1.3,2.3,2.6.2Zm1.7-3.5-1,1.9,2.5.4Zm1.1,13.6-.2-.5-.5.5Zm-.9-1.1-.4-1-.8.9Zm1.6-3.4-.2-.7-.6.5Z" fill="#147a7c"/>
      <path id="Path_12489" data-name="Path 12489" d="M184.7,151.5l-.2-.6-.4.5Zm-1-1.4-.4-.6-.4.6Zm3.5-13.6-1.1-.6-.2,1.3Zm1.8,2.8-.2-.7-.7.4Zm-4,2.2.6-.3-.5-.4Zm.4-5.5.3.3.2-.6Zm.6-1.4.6.5.2-.9Zm-1.8.3.9.5.1-1.1Z" fill="#147a7c"/>
      <path id="Path_12490" data-name="Path 12490" d="M185.6,135.7l.2-.5h-.7Zm-1.5-1.7-1.2,2,2.4.5Z" fill="#147a7c"/>
      <path id="Path_12491" data-name="Path 12491" d="M185.1,132.4l-1,1.6,2.1.2ZM176.8,181h1l-.5-1.1Zm-.5-3.7-.2-.6-.6.4Zm-1.6,4.4,1.1-.8-1.4-.7Zm3.6-1.2.5-1.1-1.5-.1Zm.7-2.3.6-1.2-1.4.1Zm-1.9.5.5-1.1-1.5-.1Zm6.3,2.2h.7l-.4-.8Z" fill="#147a7c"/>
      <path id="Path_12492" data-name="Path 12492" d="M174.2,177.4l.2,2.3,2.3-1.1Zm3-11.7,1,.2-.3-1.2Zm-2,.4,1.1.2-.4-1.2Zm0-2.2.9.1-.3-1.1Zm.4.9,1.1.1-.4-1.1Zm2.7,3.1.6-1-1.5-.3Zm-2.9,1.5.5-1.2-1.4-.1Zm-.6,2.7.8-1.2-1.6-.1Zm-1-8.4v1.6l1.7-.8Zm3.4.4.7-1-1.4-.3Zm-.9,3.8.7-1.1-1.4-.1Zm.5-5.9.5-1.1h-1.4Zm1.8,14.8.4-1.1-1.4.1Zm-.2-4.2-1.4-.1.5,1.3Zm-.4,1.9-1.3-.2.4,1.4Zm-1.5-4h1l-.6-1.1Z" fill="#147a7c"/>
      <path id="Path_12493" data-name="Path 12493" d="M177.3,162.4l1.1.1-.5-1.2Zm-2.1-.1,1.1.2-.3-1.2Zm2.7,13,.7.1-.1-.9Zm0-5v.6l.7-.2Zm5.2,3.4-.7.2.6.5Zm-4.4-2.7,1.4-.4-1-1.2Zm3.2,1.5.3.6.5-.6Zm-1.2-3.4.4.6.4-.7Zm.5-7.7.2.6.7-.5Zm4.2-.1-.5.2.5.5Zm-2.2,5.3-.5.3.5.4Zm.9-4.2-.5-.3-.1.7Zm.5,7-.3.5.7.2Zm2.8-3.6-.3.5.7.2Zm-3-8h.6l-.3-.7Zm-1.9.3.1.6.5-.5ZM180,156l.4.5.3-.5Zm1.2,3.7.5-.3-.6-.4Zm-1.6.1,1.1-.6-1.2-.7Zm-1.2-1.6.5-1.2h-1.4Zm1.2,8.2.9-.8-1.2-.4Zm-.1-9.1.5-.3-.7-.5ZM174.4,171l1.1.2-.4-1.3Zm1.4,1,1.5-.7-1.4-1.2Zm1.3-2.3.8-1.4-1.9-.1Zm0,8.4.7-1.6h-1.9Zm-1.3-4.4,1.1-.1-.5-1.1Zm-1.3.5,1.1.1-.5-1.1Z" fill="#147a7c"/>
      <path id="Path_12494" data-name="Path 12494" d="M180.1,164l-.6-.5.1.8Zm-4.3,10.8-.1-.7-.5.4Zm1.4-6.2.6-.1-.5-.6Zm-1.3,9.1.4-1.2-1.4.1Zm-2-3.1.2,2.4,2.4-1.4Zm-.2-3.2.1,2.5,2.5-1.2Zm-.2-2.9.1,2.3,2.4-1.1Zm.1-2.9.3,2.6,2.2-1.4Zm.5-4.2-.1,2.3,2.6-.9Zm6.8,11-.5-.3-.2.7Zm-1.8-.4-.7-.7-.4,1Zm.2-3.3-.5-.6-.3.8Z" fill="#147a7c"/>
      <path id="Path_12495" data-name="Path 12495" d="M181.6,176.8l-.5-.4-.2.6Zm-.9-4.1-.5-.4-.2.6Zm4.3,15.5.7-.1-.5-.8Zm-4.2-2,.7.2-.1-.8Zm0-5,.1.7.7-.4Zm5.3,3.7-.7.1.4.5Zm-1.3-1.2.3.6.5-.5Zm3.2-2.8-.5.6.7.1Zm-4.1,2.7-.5-.4-.3.6Z" fill="#147a7c"/>
      <path id="Path_12496" data-name="Path 12496" d="M183.6,183.8l-.5-.3-.2.5Zm-5.4-24.3-1.2-.2.3,1.3Zm2.6,1.9-.5-.6-.3.8Zm-2.5,3.6.4-.3-.6-.1Zm-2.3-5,.6.2-.2-.7Zm.4-2.3.9.2-.2-.9Zm-1.6.8,1,.2-.3-1.1Zm1.8.8.1-.7-.7.3Z" fill="#147a7c"/>
      <path id="Path_12497" data-name="Path 12497" d="M174.4,158.7l-.4,2.2,2.5-.5Zm.7-2.7-.5,1.9,2.1-.4Zm-.2,27.9,1.2-.8-1.3-.6Zm5.5,8.7h1.2l-.6-1.2Zm-1.9.6h1.1l-.5-1.1Zm-.8-2.3,1.2-.1-.7-1Z" fill="#147a7c"/>
      <path id="Path_12498" data-name="Path 12498" d="M178.6,191.7l1.1-.2-.7-1Zm3.1,2.8.6-1.1h-1.5Zm-2.5,1.6.7-.9-1.8-.1Zm-2.8-4.8.4,1.7,1.6-1.3Zm3.5-.7.4-1.2h-1.4Zm-.1,4.3.5-1.3-1.5.2Zm-1-6.1.4-1.3-1.3.2Zm.6.2,1.1-.1-.6-1Z" fill="#147a7c"/>
      <path id="Path_12499" data-name="Path 12499" d="M177.3,189.3l1.2-.1-.6-1Zm5.6,3.7.8-1-1.3-.3Zm.3,2.8.7-1.6-2,.2Zm-.6-6.3-.6-.1.1.7Zm-1.6,6.1.4-.4-.5-.5Zm-4.3-2.4.7,2.5,2-1.8Zm1.9-12.3,1-.1-.7-.9Zm-1.8,1,1.1-.1-.6-1Zm3.4,1,.4-1.2-1.4.2Zm-1.8.5.3-1.3-1.4.3Zm2.8,1,.7-1-1.3-.2Zm-1.7,1.3.3-1.6-1.8.4Z" fill="#147a7c"/>
      <path id="Path_12500" data-name="Path 12500" d="M179.5,183.8l.5-.2-.6-.4Zm-4.4-2,1,2.4,1.8-1.8Zm.7,7,.5,2.3,2.3-1.6Zm3.7-2.6-1.2.2.6,1Zm3,.8-.6-.4-.1.8Zm-1.4,4.3.2-.5-.6-.1Zm-3.4-4.4h.6l-.3-.6Zm4.5,12.7h1.1l-.5-1.2Zm-1.9.6,1,.1-.4-1.2Zm-.8-2.3,1.1-.1-.6-1Zm.8.8,1.2-.2-.7-1Zm3.2,2.8.6-1.1h-1.6Zm-3.4,1.3,1.1-.3-1.3-1.2ZM178,198l.4,1.7,1.6-1.2Zm3.6,3.9.5-1.2-1.5.1Zm-.2-4.4.8-.9-1.3-.4Zm-1.2,2.6-1.7-.2.5,1.8Zm2.3,2.1.4-.4-.5-.4Zm-5.1-6.5.5,2.3,2.3-1.5Zm6.9-1.7-.6-.3-.1.7Zm-1.4,4.3.2-.5-.6-.1Zm-3.4-4.4.5.1-.2-.7Zm-2.4-8.7,1-.2-.4-.8Zm-1.1,1.3,1.1-.2-.6-.9Zm1.7,0V186l-.6.4Zm-2.2,0,.3,2.2,2.1-1.2ZM175,184l.3,2,1.8-1.3Z" fill="#147a7c"/>
    </g>
    <g id="Group_860" data-name="Group 860">
      <path id="Path_12501" data-name="Path 12501" d="M216.1,161.4l-.9-.9-.5,1.4Zm1.5-.9-1.2-.7-.3,1.4Z" fill="#084c4f"/>
      <path id="Path_12502" data-name="Path 12502" d="M219.6,157.6l-1.3-.3.4,1.5Zm-1.3,2-1.3-.3.4,1.4Zm5.6-7.4-1.4-.2.5,1.4ZM215.1,164l1.2-1.8-2.4-.4Zm-1.3-2.3-1.2.8,1.4,1.1Zm-3.6-3,.4.7.5-.7Zm3.1,1.8.4.7.4-.8Zm5.8-4.8.5.6.3-.7Zm-2.5-.1.5.6.3-.9Zm6.1-6.6.5.6.4-.9Zm-5.8,9.4.4.5.4-.8Zm-5.3,15.4-1-.1.3.8Zm-.1-2.1-.8,1,1.4.3Zm0-2.7-.9.8,1.4.6Z" fill="#084c4f"/>
      <path id="Path_12503" data-name="Path 12503" d="M210.6,172.3l-.4.9,1.1.3Zm-3-4.2,1.5.3-.3-1.6Zm.8,2.8,1.4.4-.3-1.6Zm2-7.3,1,1,.5-1.6Zm-2.3-2.7.1.8.8-.5Zm4.9-2.6-.6.4.6.5Zm-.7,6.9-.6-.5-.2.8Zm-10.9-1.1.1.8.8-.7Zm4.7-2.9-.7.4.7.5Zm-.4,7-.4-.6-.3.8ZM203,183.3l.4.8.6-.8Zm4.5-3.3-.6.4.7.4Zm.4,6.9-.6-.4-.1.8ZM204,160l.3.9.7-.6Zm5-2.5-.6.3.5.6Zm-.7,6.9-.5-.5-.3.7ZM218.7,148l.6.7.3-.8Zm-1.8,2.4.2.8.7-.6Zm4.5-3-.6.4.7.5Zm.1,7-.4-.6-.3.8Zm-.8-9.2-.2.7.9.2Zm5.5,1.1-.8-.1.3.7Zm-4.8,5-.1-.6-.6.2Zm-10.7,4.1.2.8.8-.8Zm4.1-3.5-.4.4.6.4Zm.9,6.8-.6-.3-.1.7Zm-2.9-8.1.2.7.7-.6Zm4.5-3.1-.6.4.7.4Zm.1,6.9-.4-.4-.3.7Zm-6.1,15.5h-1.1l.4,1.1Z" fill="#084c4f"/>
      <path id="Path_12504" data-name="Path 12504" d="M210.7,168l-1.6.6,1.3,1.4Z" fill="#084c4f"/>
      <path id="Path_12505" data-name="Path 12505" d="M211,167.6l-.9-.4v1.1Zm2.5-.8-1.3-.4.3,1.4Zm-1.5-2-.3.6.8.1Zm1.3,1.7,1.7-2.3-3-.8Z" fill="#084c4f"/>
      <path id="Path_12506" data-name="Path 12506" d="M212.7,169.8l.6-2.3-2.6.4Zm-.5,3,.4-2.4-2.6.8Zm-.3,2.3.3-2-2.1.5Zm-3.6-2.6-1.2-.3.3,1.5Z" fill="#084c4f"/>
      <path id="Path_12507" data-name="Path 12507" d="M211.1,174.9l-1.3-.4.3,1.5Zm-.7-1.5-1.2-.4.2,1.5Zm-1.7.8-1,1.2,1.7.5Zm.3,2.7-1.1,1.4,1.8.3Zm-.6-.5L207,176l.4,1.6Zm2.3.4-1.2-.3.2,1.4Z" fill="#084c4f"/>
      <path id="Path_12508" data-name="Path 12508" d="M205,174.6l.5.5.2-.9Zm6.4,3.7.4-3-3.2.9Zm-1.8,10.9-1-.1.3,1Zm-.4-1.9-.7,1,1.3.2Z" fill="#084c4f"/>
      <path id="Path_12509" data-name="Path 12509" d="M210.1,184.1l-.9.8,1.4.5Zm-1.7,3.8-.5.9,1.1.2Zm-2-4.8,1.4.4-.1-1.5Zm.8-3.7,1.4.4-.2-1.7Zm-3.5-1,.5.5.4-.8Zm2.9-4.7-.4.6.9.1Zm2.9,6.2-.7-.1.2.8Zm.3,5.4h-1.1l.6,1.2Z" fill="#084c4f"/>
      <path id="Path_12510" data-name="Path 12510" d="M209.5,183.2l-1.5.6,1.1,1.4Zm-.1-.7-.9-.2.1,1.2Zm1.7-1.6-1.1-.4.3,1.4Zm-1.8-1v.7l.7-.2Z" fill="#084c4f"/>
      <path id="Path_12511" data-name="Path 12511" d="M211.1,180.9l.3-2.9-3,.7Zm-.4,3,.4-2.4-2.7.7Zm-.5,4.4.3-2.4-2.5.7Zm-.3,2.3.2-2.1-2,.7Zm-8.4-.9.1.8.8-.5Zm4.8-2.4-.6.2.6.5Zm-.7,6.8-.3-.6-.4.8Zm-4.3,5.1.2.7.7-.6Zm4.7-3-.6.4.7.5Zm-.3,7.1-.4-.5-.2.7Zm-4.2,4.8.5.6.6-.7Zm3.8-4.1-.4.5.8.3Zm1.6,6.7-.5-.3v.8Zm1.4-13.8-.9-.2.3,1Zm-.2-1.9-.6,1.1,1.4.2Zm-.6,3.2-.5,1.1h1.5Z" fill="#084c4f"/>
      <path id="Path_12512" data-name="Path 12512" d="M208.8,191.9l-.9,1,1.4.6Zm-1.6,3.7-.7.9,1.3.1Zm1.3,6.3-.9.4.7.8Zm-.4,4.2-1,.5.9.7Z" fill="#084c4f"/>
      <path id="Path_12513" data-name="Path 12513" d="M208,207.6l-1.1.6.9.6Zm-2.8-16.8,1.2.5v-1.7Zm3.2,2.3h-1l.3,1.1Zm-.2-2-1.6.4,1.1,1.5Z" fill="#084c4f"/>
      <path id="Path_12514" data-name="Path 12514" d="M208.1,190.4l-1-.3.1,1.1Zm1.5,2.7.3-2.4-2.5.7Zm-.3,2.8.3-2.3-2.5.6Zm-.3,2.7.2-2-2.2.8Zm-.8,7.1.2-2-2.1.7Zm.4-4,.2-2-2.1.6Z" fill="#084c4f"/>
    </g>
    <g id="Group_861" data-name="Group 861">
      <path id="Path_12515" data-name="Path 12515" d="M201.1,215.1l-.5-.6-.7.6Zm-3.9,1.2-.6-.9-.6.9Zm2.2.1,1.1.1-.3-1.1Zm1.4-.1,1.5.2L202,215Zm-10.9.8,1.2.2-.4-1.2Zm9.6-2.6-1.7.3,1,1.1Zm-6.2,1.1-1.5.2.9,1Zm10.4,1.3-.1-2-1.3,1.2Z" fill="#ad5c44"/>
      <path id="Path_12516" data-name="Path 12516" d="M203.6,214.1l-1.9.3,1.1,1.2Zm-7.7,1-2,.3,1.2,1.1Zm5.8-.1-.6-.4-.1.7Zm-5.4,3h.5l-.3-.6Zm1.7-1.8-.2.6.6-.1Zm-3.6.3-.2.5.5.1Zm8.3.3v-.6l-.5.3Zm-4.6,1.7-.5-.1.1.5Zm4.8-.2,1-.5-1-.7Zm.3,3.1.8-.5-.8-.7Zm.7,4.5.9-.5-.9-.6Zm-2.9-5.7,1,.5.2-1.1Zm3.6,3.2-.4-1.4-.8,1Zm-.3-2.9-.2-2-1.3,1.2Zm-2.1-1.6v-.3l-.4-.1Zm-2.4-.6.2.1v-.3Z" fill="#ad5c44"/>
      <path id="Path_12517" data-name="Path 12517" d="M202,216.3l.2.2.2-.2Zm0,2.1-.4-.4-.2.7Zm1.3,3.8-.4-.3-.2.7Zm-2.8-.4.2-.5-.5.1Zm0-4.8-.6-.2.1.6Zm-1.5.4-.6-.1.3.5Zm1,2.6v-.5l-.4.2Zm-1.2.6-.1-.5-.3.2Zm1.1,2.7h.4l-.3-.5Zm3.7.9.5-.1-.3-.5Zm-8.3-5.6-.5-.3v.6Zm-2.5.8.2-.5-.5.1Zm-.6-1.8-.1-.4-.4.3Zm.1,3.4.5-.1-.5-.5Z" fill="#ad5c44"/>
    </g>
  </g>
</svg>
