<svg xmlns="http://www.w3.org/2000/svg" width="228.302" height="134.332" viewBox="0 0 228.302 134.332">
  <g id="_150" data-name="150" transform="translate(-131.62 -98.74)">
    <g id="Group_1171" data-name="Group 1171">
      <path id="Path_15143" data-name="Path 15143" d="M214.3,113.58s-16.8,3.1-32.4,7.5c-15.8,4.5-22.1,9-26.9,13.4-5.5,5.2-8,14.3-11.5,28.1-3.4,13.9-8.7,42.9-8.7,42.9a28.244,28.244,0,0,0-2.6,13.4c.4,7.7,1.2,8.5,1.4,9.6s1.7.2,1.7.2.24,3.13,1.54,3.63c1.3.4,1.73-1.5,1.73-1.5s.72,1.18,1.62,1.18,2.03-3.05,2.92-5.45c1.07-2.5,1.98-7.15,2.38-8.15.3-1,1,3.1,1.3,4.9.2,1.7,1.4,2.1,1.7-1s.9-5.7.9-6.5a29.19,29.19,0,0,0-.5-4.5l-.2-1.5s-.3-1.2,1-4.1c1.4-2.9,16.3-31.9,18.8-36.1,3.2-5.4,13.1-11.2,18.2-12.7,8.9-2.6,27.9-7.5,27.9-7.5l-.3-35.8Zm22.6,46.2s9.3,15.1,21.6,25.9,15.4,11,22.2,11c7.9,0,15.7-4.5,27.5-12.6s34.6-25.1,34.6-25.1a39.516,39.516,0,0,0,11.3-9.5c4.8-6,4.7-6.32,5.3-7.32a1.4,1.4,0,0,0-1.1-2.08s1.6-1.8.9-3-2.24-.24-2.24-.24a2.075,2.075,0,0,0-.1-1.88c-.85-.4-2.33.44-5.05,2.02-1.7,1.3-6.9,3.6-7.8,4.1s1.2-2.1,2.2-3.5.4-3.5-1.9-1.4-4.8,3.4-5.3,4.1a26.231,26.231,0,0,0-2.6,3.6c-.8,1.3-.6,1.6-.6,1.6s-.6,1-3.5,2.3c-4.9,2.3-28.5,11.6-38.1,14.5-4.7,1.4-11.7,0-15.4-3.7s-21.3-26.7-21.3-26.7l-20.6,27.9Z" fill="#fff"/>
      <path id="Path_15144" data-name="Path 15144" d="M327,148.78l4.5-2.4a1.683,1.683,0,0,1,2.1.6l8.5,13a1.634,1.634,0,0,1-.5,2.3l-3.9,2.4a1.634,1.634,0,0,1-2.3-.5l-9.1-13.4c-.6-.9-.3-1.6.7-2Z" fill="#fff"/>
    </g>
    <path id="Path_15145" data-name="Path 15145" d="M359.64,140.5a1.607,1.607,0,0,0-.45-.46,1.069,1.069,0,0,0-.28-.12c-.04,0-.02-.02.01-.05l.06-.07.1-.13a4.106,4.106,0,0,0,.5-.82,2.785,2.785,0,0,0,.28-1.26,1.793,1.793,0,0,0-.7-1.35,1.694,1.694,0,0,0-.8-.32,1.811,1.811,0,0,0-.4-.01.661.661,0,0,0-.26.06c-.01,0-.02.02-.02.01a.834.834,0,0,0,.05-.2v-.06l-.01-.1c-.01-.05-.01-.1-.02-.15a2.1,2.1,0,0,0-.3-.74c-.1-.1-.12-.27-.27-.3a1.845,1.845,0,0,0-.4-.12,2.225,2.225,0,0,0-.77-.01,7.251,7.251,0,0,0-2,.77l-1.74.97-.43.25a5,5,0,0,0-.47.3,6.115,6.115,0,0,1-.78.5c-1.1.66-2.27,1.25-3.45,1.84l-1.8.9a1.807,1.807,0,0,1,.3-.54l.8-1.1a4.6,4.6,0,0,0,.57-.96,2.536,2.536,0,0,0,.18-1.22,1.294,1.294,0,0,0-.87-1.17,1.79,1.79,0,0,0-1.34.24,10.655,10.655,0,0,0-1.6,1.28l-1.5,1.18-1.57,1.1a9.76,9.76,0,0,0-1.6,1.27l-.02.02a21.7,21.7,0,0,0-1.9,2.5l-.83,1.28a4.063,4.063,0,0,0-.64,1.53c0,.03.02.06-.01.08a3.81,3.81,0,0,1-.54.48,7.656,7.656,0,0,1-.76.5l-.16.1a2.277,2.277,0,0,0-2.53-.47l-4.48,2.4a1.914,1.914,0,0,0-1.23,1.17,1.673,1.673,0,0,0-.05.53l-1.73.76-1.44.5-15.1,5.9c-3.34,1.14-8.1,2.92-13,4.47a15.554,15.554,0,0,1-7.26.32,16.491,16.491,0,0,1-5.97-2.23,12.726,12.726,0,0,1-2.97-2.64c-.92-1.04-1.82-2.13-2.72-3.24-1.8-2.22-3.6-4.53-5.37-6.85l-1.05-1.36c.28-.2.53-.4.7-.54l.12.05,2.4-1.78-1.07.75c.03-.12.13-.22.36-.4.28-.2.65-.44,1.12-.74.12-.08.24-.15.36-.23.05-.04.16-.08.15-.13l-.12-.18-.52-.8c-.1-.14-.2-.28-.3-.43-.1-.12-.18-.25-.27-.38-.14-.2-.3-.38-.45-.56-1.03-1.52-2.67-2.65-3.66-4.28-.65-.65.66.5-.23-.52.1-.13.45.46.35.1-.84-1.03-1.15-1.87-2.2-3.13l.06-.13c-1.44-1.6-2.25-3.36-3.28-4.38-1.4-1.7-.58-1.4-2.16-3.1l-.4-.82c-.57-.8-.6-.44-1.18-1.36.12-.01-.77-1.15-.3-.7-1.38-2.06-3.23-3.85-5.1-6.55a6.863,6.863,0,0,1-.94-.9c-.48-.67-.98-1.32-1.5-1.96l.06.02a10.687,10.687,0,0,0-1.33-1.54,35.823,35.823,0,0,0-9.83-8.05l-.54-.36-1.56-1.55a29.77,29.77,0,0,0-6.87-2.02c-.2-.08-.38-.14-.58-.2a6.536,6.536,0,0,0-2.03-.1,9.69,9.69,0,0,1-2.2.04l-1.53.15c-.43-.02-1.35-.01-.58-.1a14.22,14.22,0,0,0-2.5.3c-.52.02-1.04.06-1.57.1a16.307,16.307,0,0,0-6.24,2.4l-.07.04v.01l-.03.02-.1.07-.14.1-.25.18-.47.36-.93.7-.45.35a3.5,3.5,0,0,0-.3.23l-.25.23q-.459.458-.87.96l-.18.24a8.367,8.367,0,0,1-1.98.3c-3.05.75-5.15,1.53-7.64,2.27-.3-.01.26-.26.98-.48l-1.77.53c-.02-.13,1-.38,1.54-.54a20.343,20.343,0,0,0-3.3.95c-1.1.43-2.27.85-3.5,1.2l-.47.28-.15.04a3.05,3.05,0,0,1-.84.47c-.38.02-.08-.27-1.26.2a30.406,30.406,0,0,0-3.85,1.66c.67-.25.48-.1.2.05-.6.25-.97.28-1.4.5l-.12-.12c.3.04-1.47.8-1.66.96-.38.04.87-.48.98-.63-2.34,1.03-1.18.5-3.5,1.55-1.2.66.3.04-.25.43-1.1.5-2.1,1.1-3.4,1.6l.46-.06a38.992,38.992,0,0,1-4.65,2.16l-3.08,1.83-3.64,1.87c-.08-.05-.13-.04-.13.07l-.22.12.26.46c-.5.45-.32.52.17.36.01,0,.02-.01.03-.01l.03.06c.18.5.45,1.16.83,2.03-1.24.54-2.4,1.08-3.54,1.65a45.076,45.076,0,0,0-5.22,3.1c-.92.63-1.87,1.35-2.87,2.18a29.393,29.393,0,0,0-3.13,2.93,26.634,26.634,0,0,0-2.68,3.7,38.075,38.075,0,0,0-2.03,4.1,73.47,73.47,0,0,0-2.9,8.4c-.66,2.63-2,7.2-2.66,10.33l-.37,1.18q-.346,1.72-.78,3.42v-.07l-.9,4.22-.01-.07-.4,1.95.04-.34-1.68,8.25.13-.2c-1.2,5.43-1.4,7.46-2.47,12.37l-.01-.07c-.5,3.14-1,5.6-1.5,8.07l-.76,3.83-.2,1.03-.03.16-.1.2c-.08.17-.15.34-.23.52a23.58,23.58,0,0,0-.8,2.25c.24-.8-.16.32-.15.26a19.548,19.548,0,0,0-1.07,6.3c-.17,2.22-.14,1.8-.23,2.1a7.765,7.765,0,0,1,.08,1.18c.03.7.1,1.6.15,2.47l-.08-.8c.1,1.64.24,3.28.5,4.92l.01-.98a10.957,10.957,0,0,1,.13,1.63,4.927,4.927,0,0,0,.27,1.54l.1-.06q.15.555.3,1.05c.04.16.1.32.13.47a2.667,2.667,0,0,0,.17.6,1.022,1.022,0,0,0,1.12.48,4.131,4.131,0,0,0,.44-.1,9.072,9.072,0,0,0,.44,2.05,2.847,2.847,0,0,0,.92,1.34,1.713,1.713,0,0,0,1.05.28,1.509,1.509,0,0,0,1-.5,2.651,2.651,0,0,0,.26-.31c.02-.02.03-.05.05-.07a.442.442,0,0,0,.06-.16c.04.02.1.12.16.17l.02.02h0l.06.05c.08.06.17.12.26.18a2.15,2.15,0,0,0,.68.25,1.368,1.368,0,0,0,1.14-.37,1.558,1.558,0,0,0,.22-.23,4.674,4.674,0,0,0,.6-.92,29.425,29.425,0,0,0,1.56-3.7,31.914,31.914,0,0,0,1.26-3.8l.5-1.93.24-1c.05-.14.06-.38.17-.46a1.248,1.248,0,0,1,.16.47l.13.62.27,1.47.06.37c.02.1.06.37.1.54a2.832,2.832,0,0,0,.4,1,1.046,1.046,0,0,0,.77.46,1,1,0,0,0,.77-.43,2.518,2.518,0,0,0,.45-.96,2.238,2.238,0,0,0,.12-.5,4.23,4.23,0,0,0,.07-.43l.16-1.48q.172-1.45.42-2.89a16.314,16.314,0,0,0,.36-2.98c-.04-1-.14-1.95-.27-2.9-.06-.47-.15-.97-.22-1.4l-.17-1.4-.02-.08a4.4,4.4,0,0,1,.13-1.23,10.378,10.378,0,0,1,.4-1.31c.1-.17.2-.34.28-.5.12-.16,1.44-3.37,1.77-3.78l.66-1.42c.22-.38.66-1.2.34-.5.66-1.3.66-1.33,1.1-2.28l.78-1.35,7.57-14.77,6.67-12.4a21.279,21.279,0,0,1,5.08-5.56,44.617,44.617,0,0,1,5.5-3.82c.82-.5,1.67-.96,2.54-1.4l-.27-.86-.68.35a1.513,1.513,0,0,1-.25.1c-1,.6-2.47,1.42-3.84,2.32a37.65,37.65,0,0,0-3.38,2.42l-.14.02a28.14,28.14,0,0,0-3.4,3.15q.585-.645,1.23-1.23c-.16.27-.8.85-1.65,1.76a15.523,15.523,0,0,0-2.47,3.75c-1.5,2.72-2.64,5.74-4.22,8.56-.64,1.4.5-1.27-.5.8-.12.02.44-.98.1-.5-1,2.02-1.8,3.24-3.03,5.74l-.12.07c-1.55,3.3-3.24,6.05-4.23,8.26-1.66,3.36-1.35,2.13-3,5.68l-.78,1.3c-.77,1.48-.43,1.12-1.3,2.75-.01-.14-1.1,2.1-.67,1.08a12.377,12.377,0,0,0-.96,2.27,7.351,7.351,0,0,0-.3,1.25,4.353,4.353,0,0,0-.05,1.47v.02c.1.67.2,1.4.34,2.1q.186,1.075.3,2.16a8.576,8.576,0,0,1,.04,2.2c-.12.77-.28,1.6-.44,2.44-.03.6-.17,1.6-.27,2.56l-.13,1.33q-.031.2-.05.4a.861.861,0,0,0-.01.16c-.02,0-.04.13-.17.24a.143.143,0,0,1-.22-.06.63.63,0,0,1-.09-.25c-.01-.1-.03-.2-.04-.28-.02-.16-.04-.28-.04-.32s.02.01.05.15q.03.105.06.27a.688.688,0,0,0,.04.1.451.451,0,0,1,.05.17.155.155,0,0,0,.08-.08.411.411,0,0,1-.05-.16v-.06l-.08-.48-.18-1-.26-1.27a15.248,15.248,0,0,0-.43-1.66,1.66,1.66,0,0,0-.54-.84.866.866,0,0,1-.1-.07.37.37,0,0,0-.19-.18,7.116,7.116,0,0,1-2.8-2.9c-.8-1.8.2-4.8.2-4.8a.381.381,0,0,0-.7-.3c0,.1-1.1,3.3-.1,5.5a7.3,7.3,0,0,0,2.7,3.05.179.179,0,0,0-.05.07l-.14.3c-.13.35-.23.8-.35,1.2.12-.4.23-.86.36-1.2a1.735,1.735,0,0,1,.22-.38.219.219,0,0,1,.05.03l-.15.05-.15.32c-.18.55-.35,1.2-.5,1.83l-.33,1.3.1-.6c-.36,1.38-.73,2.77-1.2,4.1l.25-.53c-.32,1-.65,1.58-.93,2.3-.3.7-.55,1.4-.97,2.5-.37,1,.87-1.75.02.25a9.83,9.83,0,0,1-.48.9,2.7,2.7,0,0,1-.57.75c-.1.07-.18.07-.47-.12l-.1-.07-.2-.2a4.2,4.2,0,0,1-.3-.38c.1-1.6,1.16-7.12,1.32-7.96a7.217,7.217,0,0,0,1.42-.52c.2,0,.3-.3.2-.5,0-.2-.3-.3-.5-.2a7.462,7.462,0,0,1-7.4-1.1.43.43,0,1,0-.5.7q.344.259.7.5a9.041,9.041,0,0,0,1.5.75l-.56,5.7-.34.2a2.31,2.31,0,0,1-.56.24c-.03-.02-.03-.04-.05-.07a.127.127,0,0,1-.18-.1q-.054-.178-.09-.36a1.5,1.5,0,0,0-.1-.3,4.9,4.9,0,0,1-.15-.68c-.03-.34-.12-.63-.43-2.46l.1.32-.3-.95a14.4,14.4,0,0,1-.26-2.64c0-.5-.04-1.07-.2-2.93.06,1.47-.17.7-.14-1.12.02.15.04.3.07.46a17.109,17.109,0,0,1,.04-2c0,.6.06.32.2-1.15q-.015.495,0,.99c.02-.93.1-1.85.2-2.78.23-1.06.53-2.4.9-3.6a13.969,13.969,0,0,1,1-2.55c.01-.02.1-.22.33-.7a.742.742,0,0,0,.08-.3c.01-.06.02-.12.04-.2.02-.13.05-.27.08-.42l.17-.93c.24-1.3.5-2.73.54-3.27-.1.95.4-1.6.34-.87.15-1.22.76-4.78,1.12-6.2l-.04.27,2.68-13.7c-.13.2.42-2.28.2-1.7.88-4.9,2.1-8.82,2.14-10.64.48-2.2.67-2.6.96-3.72l-.1.53c.95-4.12,1.3-5.3,2.1-8.34.38-1.52.28-1.8,1.1-4.5-.2.9.1-.22.42-1.22-.2.64-.23.85.22-.46.04-.2.12-.48.2-.75.01-.01.03-.06.03-.03.52-1.67.4-1.4.15-.62,0-.04-.03.02-.12.25a48.358,48.358,0,0,1,1.88-4.93c1.95-4.85,4-8.07,7.4-10.85.4-.27-.35.4-1.27,1.28.75-.7,1.54-1.37,2.34-2.02.03.07-1.35,1.15-2.04,1.8a44.108,44.108,0,0,1,9.8-6.68c.25-.16.5-.3.77-.46l.24-.1a4.8,4.8,0,0,1,.48-.3q.457-.25.93-.47a1.742,1.742,0,0,1,.42-.08c.45,1.02,1,2.23,1.7,3.7l-.1-.1a56.09,56.09,0,0,0,3.9,6.66c-.07.46,1.33,2.4,1.63,3.1l-.06-.05c1.2,1.65,1.9,3.73,3.05,5.33-.06-.05-.15-.05-.37-.44a16.239,16.239,0,0,1,1.67,3.06c1.72,2.94,4,7.1,5.32,8.87l-.1-.1c.77,1,.82,1.4,1.6,2.55.02.08.06.17.04.16.83,1.1,1.98,3.42,2.6,4.34l-.06.12,1.53,2.63-.65-1.18c.12.06.2.13.36.43s.37.7.6,1.2c.06.12.13.25.2.4.02.1.1.03.16.01l.2-.1.85-.43a11.58,11.58,0,0,0,1.43-.84l-.48,4.06a7.788,7.788,0,0,0-.12,1.26l-1.4,9.9-2.5,19.48c-.53,4.92-.7,7.88.2,4.14l-.22,1.64a4.253,4.253,0,0,1-.2,1.1v.1a2.034,2.034,0,0,1-.1.5v.1h5.42l-5.42.35-.3.03-.03-.37-.01-.08a.41.41,0,0,1,.02-.18,1.267,1.267,0,0,1,.04-.15.662.662,0,0,0,0-.2c.01-.07-.01-.14.02-.2a3.859,3.859,0,0,0,.06-.84.675.675,0,0,0-.02-.14H189l-.06-.38c-.06-.28-.1-.37-.17-.3a1.515,1.515,0,0,0-.14.57l-.01.06v.11c-.02.07-.04.15-.06.23s-.05.17-.07.26c-.04.1-.03.1-.1.33-.03.08-.04.17-.07.27v.07c-.03,0-.02-.01-.1.18-.01.05-.03.12-.04.2l-.01.14v.08l-.06,1,1.14.07c2.38.14,5.6.2,5.6.2,10.87.3,16.5-.1,29.43-.2,11.38.07,14.4.34,26.2.23l17.13-.07c.33-.03.68-.05,1.07-.06l2.22-.03h.3c.1-.01.24.04.18-.1-.02-.2-.03-.4-.05-.6l-.1-1.22-.13-1.72c-.14-1.86-.28-3.78-.5-5.3l.02-1.2a25.417,25.417,0,0,1-.3-3.37l.04.06a.075.075,0,0,0-.01-.05q.592.31,1.2.59a16.554,16.554,0,0,0,5.9,1.42c1.1.08,2.25.08,3.5.07a22.341,22.341,0,0,0,4.2-.46c5.8-1.16,11.18-4.33,15.88-7.28,2.18-1.5,6.12-4,8.63-5.87l1.04-.63c.86-.65,1.88-1.4,2.8-1.98l-.04.06c1.28-.98,2.77-2,3.4-2.5l-.04.06,1.58-1.14-.25.22,6.65-4.85-.22.05c4.45-3.12,5.95-4.45,9.97-7.26l-.04.06,1.14-.9a2.105,2.105,0,0,0,1.2.4,2.171,2.171,0,0,0,1.18-.34l3.9-2.4a2.124,2.124,0,0,0,.75-2.8c.17-.13.35-.25.52-.38l.83-.47a29.681,29.681,0,0,0,3.62-2.53c-.63.5.3-.17.26-.1,2.38-1.8,4.6-4.13,4.5-4.28,1.48-1.6,1.22-1.28,1.46-1.45a5.531,5.531,0,0,1,.67-.94l1.47-1.9-.46.62c.98-1.27,1.97-2.53,2.9-3.85l-.67.7a13.592,13.592,0,0,1,1-1.25,4.545,4.545,0,0,0,.83-1.3l-.12-.03.17-.3a.962.962,0,0,0,.16-.4,2.15,2.15,0,0,0,.1-.76,2.234,2.234,0,0,0-.28-.8ZM136.1,229.38l.68-6.85a7.318,7.318,0,0,0,2.7.25l-1.05,6.76a.653.653,0,0,1-.1-.15l-.44,1.52a1.849,1.849,0,0,1-.28.55,1.173,1.173,0,0,1-.15.16.363.363,0,0,1-.5-.02,2.4,2.4,0,0,1-.54-.95,7.473,7.473,0,0,1-.3-1.24v-.03Zm190.4-79.6a1.039,1.039,0,0,1,.67-.54l4.5-2.4a1.675,1.675,0,0,1,.55-.1,1.077,1.077,0,0,1,.96.5l1.53,2.34c-1.07.55-2.6,1.48-3.9,2.26l-1.65,1a5.849,5.849,0,0,0-.6.37l-1.84-2.7a.9.9,0,0,1-.2-.72Zm-3.97,23.42c-3.87,2.94-7.32,5-8.55,6.3-1.8,1.3-2.2,1.45-3.13,2.1l.42-.32-6.92,4.78c-1.26.87-1.37,1.15-3.7,2.6.72-.53-.22.1-1.1.63.55-.35.72-.47-.46.2-.15.12-.4.28-.63.43-.01,0-.06.03-.04.01-1.46.9-1.2.75-.5.36-.03.03.04.01.25-.1a48.485,48.485,0,0,1-4.56,2.4c-4.56,2.3-8.08,3.58-12.32,3.8-.48-.06.5-.07,1.73-.25a23.01,23.01,0,0,1-3,.16c.03-.08,1.73-.04,2.64-.17-3.5.05-7.54.48-11.26-1.5l-.8-.32-.2-.13a3.047,3.047,0,0,1-.5-.22,7.028,7.028,0,0,1-.9-.48c-.46-.4.1-.1-1.63-1.25-1.33-.97-3.8-2.76-5.5-4.15.9.76.58.55.17.24-.8-.67-1.23-1.1-1.86-1.62l-.01-.1c-.15-.03-2.17-1.78-2.44-2-.4-.46,1.24,1.06,1.48,1.18-3.13-2.82-1.6-1.37-4.62-4.3-1.62-1.55.22.36-.6-.35-1.4-1.4-2.78-2.78-4.24-4.53l.4.6a73.654,73.654,0,0,1-5.4-6.55l-.5-.62-.1.1c-1.14-1.47-2.17-2.86-3.07-4.1a41.1,41.1,0,0,0,3.5-2.75c.46.02,2.23-1.58,2.92-1.96l-.05.06c1.52-1.37,3.5-2.3,4.97-3.6a1.116,1.116,0,0,1-.4.42,17.9,17.9,0,0,1,2.86-2c2.73-2.03,6.63-4.75,8.24-6.25l-.1.13c.9-.87,1.3-.96,2.36-1.85.07-.03.16-.08.15-.06a25.227,25.227,0,0,1,2.37-1.82c2.82,3.57,5.78,7.26,7.52,9.16l-.18-.17c.7.76,1.13,1.27,1.6,1.8a23.319,23.319,0,0,0,1.78,1.92,2.1,2.1,0,0,1,.18.2,16.947,16.947,0,0,0,3.8,2.37,16.444,16.444,0,0,0,3.92,1.23l.1.1a18.384,18.384,0,0,0,4.57.3,16.447,16.447,0,0,1-1.72,0c.3-.08,1.16,0,2.37-.1a11.733,11.733,0,0,0,2.03-.3c.74-.17,1.46-.44,2.24-.7,2.9-.92,5.72-2.35,8.7-3.35,1.38-.6-1.2.6.9-.25.1.06-.97.42-.4.3,2.06-.8,3.44-1.16,5.96-2.2l.13.03c3.28-1.4,6.3-2.3,8.46-3.3,3.4-1.4,2.37-.7,5.86-2.26l.1-.04c0,.01,0,.01.01.02l1.94,2.85a3.351,3.351,0,0,0-.42,1.62v.01c-.13,2.02,4.47,7.8,4.52,7.85a2.8,2.8,0,0,0,2.17,1.14l-10.3,7.57c.26-.01-1.78,1.4-1.22,1.13Zm18.8-11.35-3.9,2.4a1.26,1.26,0,0,1-.9.17,1.134,1.134,0,0,1-.57-.36,9.474,9.474,0,0,0,1.52-.88c.78-.56,1.56-1.06,2.24-1.5a23.19,23.19,0,0,0,1.97-1.36,1.144,1.144,0,0,1-.37,1.54Zm17.54-20.27a.723.723,0,0,1-.1.27c-.03.06,0-.02-.08.1-.24.3-.35.58-1.32,2.04l.14-.3-.43.87c-1.88,2.74-1.2,1.34-3.33,4.38.9-1.17.56-.42-.6.94l.23-.4a11.805,11.805,0,0,1-1.27,1.5c.35-.47.15-.28-.85.76.2-.26.42-.5.6-.76-.6.7-1.2,1.37-1.84,2.03-.8.7-1.84,1.6-2.8,2.32a19.411,19.411,0,0,1-2.23,1.54s-.92.6-2,1.23c.07-1.5-1.02-3.12-2.27-4.95l-.25-.36c-1.42-2.1-3.1-4.13-4.88-3.62l-1.18-1.8a5.834,5.834,0,0,0,.53-.33c.2-.15.42-.3.63-.48.1-.1.2-.18.3-.28a4.021,4.021,0,0,0,.39-.46c.01-.15,0-.24,0-.38a10.812,10.812,0,0,1,1.28-2.32,19.485,19.485,0,0,1,1.83-2.4c.02-.02.08-.1.08-.1a7.671,7.671,0,0,1,1.18-.88,40.746,40.746,0,0,0,3.77-3.02c.04-.02.3-.26.64-.5a2.229,2.229,0,0,1,.54-.3c.17-.06.24-.07.32-.04a.25.25,0,0,1,.13.28c-.02.04,0-.15-.17-.2a.335.335,0,0,0-.1,0c-.05.01-.12.03-.1.02-.04.03-.13.12-.2.17l.2-.08.12-.03a.142.142,0,0,1,.06.02c.03.05.04-.01.03.23a2.888,2.888,0,0,1-.73,1.48l-.8,1.13a11.222,11.222,0,0,0-.98,1.5,1.5,1.5,0,0,0-.18.92.767.767,0,0,0,.05.17.189.189,0,0,0,.08.1.133.133,0,0,0,.07.03l.27.07a3.174,3.174,0,0,1-.33-.1.456.456,0,0,1-.1-.4c.02-.23.06-.3.05-.05a.594.594,0,0,0,.01.23.46.46,0,0,0,.04.13c.04.07.1.07.1.08.1.01.22.03.38.04l.3-.02a4.977,4.977,0,0,0,.48-.18,9.167,9.167,0,0,0,1.07-.5l-.96.53,2.76-1.3,1.9-.94-.56.2c.94-.46,1.58-.75,2.24-1.1a8.811,8.811,0,0,0,1.05-.66l1.2-.74c.88-.57-1.74.87.13-.22a22.23,22.23,0,0,1,2.07-1,1.868,1.868,0,0,1,.85-.17.12.12,0,0,1,.1.13c0,.01.02.08.03.18a1.827,1.827,0,0,1-.08.6c.02.02.03.04.05.06l-6.66,4.8c-.2.2-.32.5-.12.7s.5.32.7.12l6.8-4.92c.07.05.16.1.26.18.75-.3.8-.18.92-.15a.54.54,0,0,1,.27.3,1.535,1.535,0,0,1-.2,1.17c.07-.08.07-.03.03.1a2.635,2.635,0,0,1-.12.24,1.841,1.841,0,0,1-.1.16.417.417,0,0,0-.2.1l-6.25,4.9a.437.437,0,0,0-.13.7,1,1,0,0,0,.4.22c.1,0,.2.01.4-.28l5.68-4.46.01.1.2.37c.43.16.4.2.46.26a.475.475,0,0,1,.08.18.427.427,0,0,1,.01.3Z"/>
    <g id="Group_1172" data-name="Group 1172">
      <path id="Path_15146" data-name="Path 15146" d="M200.65,208.25c0-.02-.06-.03-.2-.03Zm8.05,1.15h0c-.03,0-.05.01-.07.01h.07Z" fill="#fff"/>
      <path id="Path_15147" data-name="Path 15147" d="M226.8,207.9h0l.08-.06Zm41.2.3.06-.03a15.368,15.368,0,0,0-3.18.06c-.15-.17-1.12-.02-1.45-.07l.03-.01c-.83.13-1.72-.1-2.53.01a.329.329,0,0,1,.23-.06,4.608,4.608,0,0,1-1.43-.04,40.781,40.781,0,0,0-4.25.14l.06-.03a9.381,9.381,0,0,1-1.23.07c-.03-.01-.07-.02-.06-.03-.56.1-1.63.02-2.08.06l-.03-.07-1.1.02.4.01c-.14.18-.84-.12-1.64,0-.75-.02-1.53.38-2.3.3-.37.1.33-.14-.23-.07-.02-.1.26-.06.12-.14-.55.05-.9-.1-1.57-.03l-.03-.07c-.88.14-1.66-.1-2.25.03-.9.06-.6-.22-1.56-.08l-.37-.1c-.4-.02-.3.12-.74.07.03-.06-.57-.05-.3-.1-1.02-.1-2.06.14-3.4-.03-.3.12-.96.05-1.18.14-.04-.05-1.35-.01-.6-.13.06-.01.18-.01.17.01l.1-.07a13.85,13.85,0,0,0-2.14.05c.22.02.52.02.32.07l-.7-.01.15-.06-1.04-.04.14.08a3.543,3.543,0,0,0-1.27-.06c-.26.06.48.1-.06.13l-2.58-.15c.08.1-.15.08-.4.1l-.03-.07c-.93.1-.34-.16-1.26-.08l-.16.1c-.83.15-.45-.15-1.37.05.36-.01.17.16-.28.13l.1-.07a2.35,2.35,0,0,1-.5.03c.15-.04.08-.1-.3-.1l.24-.1-.7.13c-.53-.08-1.38.02-1.6-.08a6.5,6.5,0,0,0-1.4.06c.23-.07-.4-.1-.22-.18a4.794,4.794,0,0,1-1.52.06l.07-.01c-1.3-.1-2.22.12-3.38.01.05.1-.56.04-.4.15-1.2.1-2.2-.23-2.63.12a4.072,4.072,0,0,1-.93-.1l.13-.02-2.1.02a3.468,3.468,0,0,1-1.12.15c.22-.06-.06-.05-.3-.05.16-.01.2-.03-.12-.08a.877.877,0,0,1-.2.04c0-.01-.02-.01-.01-.02-.43.02-.35.04-.15.05-.01.01.01.02.07.04-.44-.08-1.23.01-1.3-.1l-3.26.18c-.12-.06.13-.1.44-.13l-.76.02c.01-.08.43-.05.67-.06-.9-.13-1.86.13-2.9.01l-.22.06-.06-.01a1.027,1.027,0,0,1-.4.1c-.15-.07.01-.16-.5-.16a9.49,9.49,0,0,0-1.72.07c.3.01.2.05.07.08a4.621,4.621,0,0,0-.6-.04l-.03-.1c.1.1-.68.1-.78.13-.15-.07.4-.06.47-.1h-1.57c-.56.07.1.1-.17.17a11.117,11.117,0,0,1-1.54.03l.18.08a8.866,8.866,0,0,1-2.1-.03c-6.9.68-1.46.93-1.46.93a71.662,71.662,0,0,0,7.36-.12l6.55.14,4.28-.04c.65-.13,1.8,0,2.58-.1l.3.07a3.028,3.028,0,0,1,.85-.02l-.02.02c.4-.05.85-.02,1.04-.05v.02h.48l-.08.03a17.614,17.614,0,0,1,2.04-.04l-.05-.1c1.35.1,1.84-.08,3.05.03l-.02.02c1.54-.23,2.43.16,4-.06-.2.03.08.04.07.07.73-.02,1.5-.04,1.52-.2.53,0,.43.05.5.12,0-.08.46-.1.87-.1l-.2.03,1.2-.03-.23-.14c.63.04.16.17.76.14v-.12a20.607,20.607,0,0,1,2.23.3c3.5.05,7.28-.25,10.54-.04l.14.1c.06.13.9-.2,1.02-.07l.38-.06c.1.02.33.05.14.08a2.433,2.433,0,0,0,.6-.05l.38.08c1.4.06,2.56-.1,4.02-.06a67.547,67.547,0,0,0,6.95-.07c2.67-.2,5.77.32,8.5.1a.644.644,0,0,0,.32-.04l2.5.02c.05.03,12.18.08,2.97-1Zm-35.13-37.13c.01.01.05,0,.15-.05Zm-3.92-.1.04.04Zm-7.6-11.08h0l-.08-.03Z" fill="#fff"/>
      <path id="Path_15148" data-name="Path 15148" d="M210.16,131.54a7.593,7.593,0,0,0,.7,2.24c-.13.15.22.8.23,1.05l-.02-.02c.3.55.26,1.25.56,1.78-.02-.02-.07-.02-.1-.15.15.4.37.96.28,1.02a18.335,18.335,0,0,0,1.13,2.95l-.04-.03c.23.32.17.46.36.84,0,.03,0,.06-.01.05a14.335,14.335,0,0,1,.58,1.43l-.06.04.3.76-.1-.3c.2.04.1.62.44,1.14.17.53.77.9.9,1.48.18.22-.22-.17,0,.18-.08.05-.13-.16-.16-.03.2.36.15.66.4,1.1l-.06.05c.38.55.4,1.17.7,1.52.34.6-.01.5.4,1.08v.3c.1.28.2.14.3.47-.07.01.14.4,0,.25.24.72.78,1.32,1.07,2.28.2.14.36.62.5.72-.04.05.43.9.08.45-.03-.04-.07-.12-.04-.12l-.1-.03c.12.57.53.88.76,1.4-.05-.16-.16-.35-.05-.24l.22.47-.1-.07.3.7.02-.13c.14.36.08.53.37.86.14.14-.07-.37.13-.02l.73,1.77c.05-.1.13.06.22.2l-.06.05c.4.56-.03.3.35.86l.15.06c.4.48.01.36.5.87-.14-.23.1-.2.2.12l-.1-.04c.1.16.15.2.2.3-.08-.08-.12,0,.02.23l-.16-.12.35.4c.1.4.5.9.48,1.08a3.757,3.757,0,0,0,.54.9c-.14-.12.05.3-.08.23a2.7,2.7,0,0,1,.58.97l-.03-.04c.38.9.88,1.4,1.2,2.2.06-.08.23.35.28.2.52.73.57,1.53,1.03,1.65a2.692,2.692,0,0,1,.24.65l-.06-.08.76,1.34c.16.23.33.2.53.65-.13-.1-.02.06.07.23-.07-.1-.1-.12-.02.12a.47.47,0,0,1,.1.1c.16.27.15.22.1.08.01,0,.02-.01.01-.06a3.393,3.393,0,0,0,.27.58,1.331,1.331,0,0,1,.23.54l.27.45c.03.12.12.02.2-.02l.2-.15.75-.54.9-.7c.1,0-.02.14-.2.28l.46-.32c.04.07-.25.2-.38.32.63-.25,1.08-.85,1.8-1.17l.1-.14.04-.02c-.02-.03.1-.16.2-.23.13,0,.08.14.4-.07a5.57,5.57,0,0,0,1.03-.74c-.2.1-.15.04-.1-.03.16-.1.3-.1.4-.2l.07.07c-.1-.03.37-.35.4-.42.13,0-.22.2-.23.28l.97-.64c.3-.28-.1-.03.01-.2a7,7,0,0,1,.94-.64h-.16a4.807,4.807,0,0,1,1.33-.8c3.93-3.32.4-1.36.4-1.36a39.96,39.96,0,0,0-4.5,3.03l-4.54,2.74h-.01c-.01,0-.02.03-.03.02l-.02-.01h-.01l-.1-.16-.4-.67c-.34-.36-.64-1.16-1-1.6l-.04-.23a1.644,1.644,0,0,1-.32-.54h.02a4.816,4.816,0,0,1-.4-.65h.02l-.18-.3.06.04a9.641,9.641,0,0,1-.75-1.3l-.06.08c-.38-.92-.72-1.15-1.04-2h.02c-.74-.9-.7-1.65-1.44-2.58.1.12.01-.08.03-.08-.27-.46-.55-.97-.7-.9-.18-.35-.1-.3-.07-.38-.07.04-.25-.25-.4-.52l.1.1-.43-.77-.05.22c-.18-.43.1-.18-.14-.56l-.1.06a12.882,12.882,0,0,1-.5-1.6l-3.5-6.93.03-.13c.1-.1-.46-.52-.4-.65l-.17-.23c-.01-.08-.06-.24.03-.13a1.037,1.037,0,0,0-.24-.38l-.04-.28c-.37-.94-.84-1.68-1.22-2.68a50.654,50.654,0,0,0-1.88-4.74c-.84-1.8-1.07-4.12-1.86-5.97a.393.393,0,0,0-.1-.2l-.5-1.77c-.05.02-2.26-8.63-1.56-1.8l.03-.04ZM193.4,156.17c-.02,0-.04.03-.07.14Zm2.43-5.4h0v0Z" fill="#fff"/>
      <path id="Path_15149" data-name="Path 15149" d="M192.9,163.56a40.142,40.142,0,0,0,1.07-5.2l1.2-4.57.65-3.02c-.02-.5.3-1.27.3-1.83l.12-.2a1.531,1.531,0,0,1,.12-.6l.02.02c.01-.3.12-.6.12-.74l.02.02.07-.34.02.07a8.941,8.941,0,0,1,.3-1.44l-.1.02c.3-.92.22-1.3.53-2.14l.02.02c.02-1.13.55-1.67.6-2.83-.01.14.06-.05.08-.03.1-.52.2-1.07.04-1.1.1-.37.12-.3.2-.32-.07-.02-.03-.35.03-.64v.14l.17-.84-.18.13c.14-.43.2-.07.26-.5l-.12-.02a14.076,14.076,0,0,1,.64-1.5,67.728,67.728,0,0,1,1.78-7.36l.1-.08c.14-.01-.02-.67.12-.73l.01-.28c.04-.07.1-.22.1-.08a1.081,1.081,0,0,0,.07-.44l.15-.24c.34-.94.4-1.8.76-2.78a45.73,45.73,0,0,0,1.48-4.76c.44-1.88,1.7-3.78,2.24-5.67.04-.05.07-.22.05-.22l.7-1.64L208,108.6c.24-.63.38-1.08.2-1.05s-.7.55-1.64,1.95v-.05a6.99,6.99,0,0,0-.88,2.12c-.2.03-.34.74-.48.93v-.03c-.1.6-.58,1.1-.68,1.7a.242.242,0,0,1,0-.18c-.13.4-.3.96-.4.95a17.625,17.625,0,0,0-.94,2.93v-.05a4.156,4.156,0,0,1-.23.87l-.04.04c-.03.42-.38,1.1-.43,1.44h-.07l-.24.77.1-.28c.14.16-.3.54-.37,1.13-.2.5.03,1.17-.22,1.68,0,.28-.06-.27-.12.14-.1-.02,0-.2-.1-.12-.07.4-.3.6-.37,1.07h-.08c-.05.65-.43,1.12-.42,1.57-.12.65-.34.36-.4,1.06l-.17.23c-.1.28.06.24-.07.54-.06-.04-.16.38-.16.18-.3.68-.26,1.47-.66,2.37.07.23-.12.7-.07.86-.06.01-.24.94-.23.4,0-.05.02-.13.04-.12l-.06-.08a6.64,6.64,0,0,0-.32,1.52c.06-.15.1-.36.12-.2l-.13.5-.04-.12-.2.73.1-.08c-.12.35-.28.45-.26.88.02.2.18-.32.1.07l-.57,1.78c.1-.04.06.13.03.3h-.08c-.05.67-.2.2-.28.86l-.04-.07.1.2c.01.62-.22.28-.18.97.05-.26.2-.08.08.22l-.05-.1a2.392,2.392,0,0,1-.05.36c-.01-.1-.1-.08-.14.18l-.05-.2.02.5c-.16.36-.2.97-.34,1.1a3.648,3.648,0,0,0-.17,1c-.03-.18-.16.26-.2.12a2.282,2.282,0,0,1-.2,1.08v-.05c-.3.9-.25,1.58-.54,2.38.1-.02-.05.4.08.32-.1.87-.58,1.5-.3,1.87a1.9,1.9,0,0,1-.25.63v-.1l-.3,1.47c-.03.27.12.35-.03.82-.03-.17-.06.03-.1.2.02-.12,0-.16-.1.07a.661.661,0,0,1,.01.14c-.01,0-.01.01-.02,0-.05.3-.02.26.02.12.01.01.02,0,.05-.04-.15.3-.2.87-.3.88l-.35,2.33c-.07.07-.08-.1-.05-.34l-.1.54c-.08-.02.02-.32.05-.48-.27.6-.17,1.33-.46,2.05l.03.17v.04c.03.01.04.18.02.3-.1.1-.16-.04-.24.32a4.783,4.783,0,0,0-.2,1.22c.06-.2.08-.13.1-.03-.04.18-.13.27-.14.42h-.1c.1-.05-.02.5.01.58-.1.1.01-.3-.03-.36l-.24,1.1c-.02.4.1-.05.14.15a6.112,6.112,0,0,1-.22,1.1l.1-.1a5.893,5.893,0,0,1-.37,1.47c-.43,4.97.7,1.2.7,1.2Z" fill="#fff"/>
    </g>
  </g>
</svg>
