<svg xmlns="http://www.w3.org/2000/svg" width="232.862" height="137.977" viewBox="0 0 232.862 137.977">
  <g id="_151" data-name="151" transform="translate(-113.222 -98.932)">
    <g id="Group_1173" data-name="Group 1173">
      <path id="Path_15151" data-name="Path 15151" d="M333.92,111.06l-4.26,2.73c1.84-2.94.66-3.73.66-3.73s-6.8,2-8.5,3.4c-1.7,1.3-4.8,3.2-5,5.3a15.565,15.565,0,0,1-1.9,6.6c-1.4,2.6-14.1,14.1-14.1,14.1l8.7,17.1,14.27-19.5,1.33-.9,6.1-4.6c1.6-1.2,10.68-17.3,10.68-17.3l-7.98-3.2Z" fill="#fff"/>
      <path id="Path_15152" data-name="Path 15152" d="M339.72,109.76c-.9-.7-3.4-1.9-4.3-.3-.68,1.1.3,2.92,1.9,4.18l-1-.38c-1.2-.5-4.3-1-5,.7-.6,1.2.93,2.9,3.14,3.82l-1.44-.32c-1.1-.3-3.9-.5-4.2,1.3-.2,1.5,1.9,3.1,4.4,3.6,2.5.3,4.4,0,4.8-2,.2-.97-.64-1.6-1.68-2.02,2.2.52,3.78.44,4.68-1.28.36-.8-.14-1.5-.93-2.06a2.494,2.494,0,0,0,2.73-1.34c1.1-1.7-2.1-3.2-3.1-3.9Z" fill="#fff"/>
      <path id="Path_15153" data-name="Path 15153" d="M330.62,121.76c-1-.3-3.4-.4-3.7,1.2-.2,1.4,1.8,2.9,3.9,3.2,2.2.3,3.3-.2,3.7-2,.3-1.8-2.9-2.1-3.9-2.4Zm-187.1,26.6c-6.1,4.7-6,5.2-11,18.8s-13.4,42.3-13.4,42.3a28.5,28.5,0,0,0-4,13.2c-.4,7.8-.04,8.54.1,9.65s1.95.55,1.95.55-.3,2.92.9,3.52c1.42.5,2.13-1.28,2.13-1.28a1.322,1.322,0,0,0,1.3,1.35c1.36-.13,2.06-2.37,3.07-4.4,1.2-2.43,3.43-7.5,3.83-8.4.4-1,.2,2.4.2,4.1,0,1.8,1.8,3.1,2.4,0s1.5-5.6,1.6-6.5a34.844,34.844,0,0,0,0-4.6l.1-1.3s-.2-1.2,1.5-4,19.9-30.4,22.8-34.3c3.8-5.2-8.2-32.7-13.5-28.7Z" fill="#fff"/>
    </g>
    <path id="Path_15154" data-name="Path 15154" d="M262.88,206.7l.02.04C262.9,206.72,262.9,206.71,262.88,206.7Zm4.24,1.75-.03-.35-.07-.68-.13-1.33-.25-2.8-.4-4.6c-.26-2.94-.56-5.92-1.18-10.66l-1.78-13.74c-.47-2.07-.77-5.8-1.3-8.25l-.02-.98a20.488,20.488,0,0,1-.42-2.7l.04.05c-.26-1.26-.43-2.7-.57-3.33l.04.05-.25-1.54.1.26c-.42-2.2-.8-4.5-1.08-6.5l-.12.2c-.56-4.33-1.14-5.85-1.7-9.76l.04.05c-1.36-4.8-1.33-7.77-2.93-12.68.2.6,0-.28.05-.24-.62-2.3-1.37-4.72-1.66-4.67-.5-1.66-.33-1.37-.3-1.62a12.954,12.954,0,0,1-1.1-2.64l.26.57c-.45-1.2-.93-2.42-1.48-3.6l.1.8c-.78-1.9.08-.6-.84-2.37l-.16.1-1.6-3.32a24.458,24.458,0,0,0-1.85-3.2,22.7,22.7,0,0,0-6.9-5.68,29.908,29.908,0,0,0-8.43-3,38.21,38.21,0,0,0-8.14-.72l-.1,1.6.05.25h.03l.78.04a27.3,27.3,0,0,1,3.72-.02c.1.04,4.2.66,1.82.46a2.059,2.059,0,0,1-.53-.1l-.3.08c2.3.57,4.28.68,6.5,1.53-.65-.26-1.53-.56-.9-.43l1.03.36,1,.42-.46-.08a25.236,25.236,0,0,1,2.9,1.44l-.33-.33a14.8,14.8,0,0,1,1.55,1.08c.45.33.93.65,1.68,1.13.7.4-1.1-1.04.27-.06.42.33.83.76,1.3,1.2.42.47.92.93,1.34,1.5a26.008,26.008,0,0,1,2.37,3.48c-.02-.3.38.33.78.98l-.06.14c1.53,2.48.3,1.04,1.65,3.58l-.18-.2.55.6c1.22,2.34.32,1.4,1.6,4.03-.4-1.1.1-.6.5.77l-.23-.3a12.213,12.213,0,0,1,.53,1.5c-.2-.43-.24-.2.12.92l-.37-.7q.443,1.013.83,2.05c.35,1.67,1.16,4.26,1.16,5l.43,1.9a16.448,16.448,0,0,0,.7,2.5c-.27-.7.12,1.3-.14.76a26.338,26.338,0,0,1,1.1,4.78l-.06-.2c.68,4.12,1.52,6.98,1.96,10.7.12-.2.35,1.78.46,1.27.8,3.8.7,7.06,1.48,8.37a27.24,27.24,0,0,1,.26,3l-.1-.4.96,6.67a22.386,22.386,0,0,1,.73,3.56c-.2-.7-.06.2.04,1-.08-.52-.14-.68-.07.4.05.15.1.38.15.6-.01.01-.01.05-.02.03.2,1.36.22,1.12.15.48.02.03.03-.03.04-.23.05,1.43.5,3.95.35,4.14.55,4.1,1.1,7,1.56,10.43-.05.4-.22-.4-.38-1.38l.32,2.42a10.006,10.006,0,0,1-.35-2.13c.12,2.9.9,5.93,1.1,9.34l.18.7.01.2a6.7,6.7,0,0,1,.3,1.24c-.06.5-.27,0-.08,1.67.02.67.13,1.6.27,2.6l.03.2.02.08.03.17.07.36.02.1c-.01.02-.05.01-.07.01l-.16.02-.33.03c.5.02.4.08.17.13-.14,0-.23-.01-.37-.02l-.5-.03a5.627,5.627,0,0,0-.92-.01l-.06-.12c-.12.12-2.25.13-2.54.2-.48-.12,1.3-.1,1.52-.2l-5.08.02c-1.8.12.33.15-.54.3-1.6.03-3.15.14-4.98.05l.58.14a59.217,59.217,0,0,1-6.8-.05l-2.9.16.26,1.46c7.5.18,12.1-.17,21.72-.27l2.75.01h.18c.02-.01.08.01.07-.01l-.03-.1Z"/>
    <path id="Path_15155" data-name="Path 15155" d="M242.16,207.34l2.9-.16a59.283,59.283,0,0,0,6.8.05l-.58-.14c1.83.1,3.4-.02,4.98-.05.86-.14-1.27-.17.54-.3l5.08-.02c-.2.1-2,.07-1.52.2.3-.06,2.42-.07,2.54-.2l.06.12a5.642,5.642,0,0,1,.92.01l.5.03h.37c.24-.04.32-.1-.17-.13l.33-.03.16-.02c.02-.01.06,0,.07-.01l-.02-.1-.07-.36-.03-.17V206l-.03-.2-.27-2.6c-.2-1.68.02-1.18.08-1.67a4.168,4.168,0,0,0-.3-1.24l-.01-.2-.18-.7c-.18-3.4-.96-6.43-1.08-9.34a9.879,9.879,0,0,0,.35,2.13l-.32-2.42c.15,1,.33,1.78.38,1.38l-1.56-10.43c.16-.2-.3-2.7-.35-4.14,0,.2-.02.26-.04.23.07.64.07.88-.15-.48.01.02.01-.02.02-.03a4.758,4.758,0,0,0-.15-.6c-.07-1.08-.01-.93.07-.4-.1-.82-.24-1.7-.04-1a20.3,20.3,0,0,0-.73-3.56l-.96-6.67.1.4a27.05,27.05,0,0,0-.26-3c-.78-1.3-.67-4.56-1.48-8.37-.1.5-.34-1.46-.46-1.27-.44-3.73-1.28-6.6-1.96-10.7l.06.2a27,27,0,0,0-1.1-4.78c.25.54-.13-1.46.14-.76a20.986,20.986,0,0,1-.7-2.5l-.43-1.9c0-.72-.8-3.32-1.16-5l-.83-2.05.37.7c-.36-1.1-.32-1.35-.12-.92a14.259,14.259,0,0,0-.53-1.5l.23.3c-.4-1.38-.88-1.86-.5-.77-1.3-2.64-.4-1.7-1.6-4.03l-.55-.6.18.2c-1.35-2.54-.12-1.1-1.65-3.58l.06-.14c-.4-.65-.8-1.27-.78-.98a25.67,25.67,0,0,0-2.37-3.48c-.4-.55-.9-1-1.34-1.5-.47-.43-.88-.86-1.3-1.2-1.36-.97.44.47-.27.06-.75-.47-1.23-.8-1.68-1.13a17.923,17.923,0,0,0-1.55-1.08l.33.33a22.355,22.355,0,0,0-2.9-1.44l.46.08-1-.42-1.03-.36c-.6-.12.27.17.9.43-2.2-.85-4.18-.96-6.5-1.53l.3-.08c-.03.03.32.1.53.1,2.38.2-1.7-.43-1.82-.46a29.019,29.019,0,0,0-3.72.02l-.78-.04H223l-.05-.25.05-.8h-.5c-10.8.4,11.8,107.1,11.8,107.1h7.85l.01-.12Z" fill="#fff"/>
    <path id="Path_15156" data-name="Path 15156" d="M246.83,173.9l-.1-1.5c.04-.42.08-1.32.13-.57l-.1-2.44.13-1.5c.06-5.5-.27-10.2-.4-15.98.04-3.48-.18-8.5-.48-13.57q-.443-7-1.12-13.98c-.3-2.65-.5-5.38-.94-8.24a21.945,21.945,0,0,0-3.17-8.26,19.156,19.156,0,0,0-6.52-6.2,18.885,18.885,0,0,0-4.2-1.57,28.455,28.455,0,0,0-4.17-.77,4.834,4.834,0,0,0-1.3-.1,36.31,36.31,0,0,0-7-.2,39.15,39.15,0,0,0-6.7.3,88.58,88.58,0,0,0-10.82,2.33l-.65.03c-.32-.12-3.66,1.44-4.23,1.45l-1.53.62c-.45.1-1.4.4-.63.08a19.031,19.031,0,0,0-2.48,1l-1.6.45a125.576,125.576,0,0,0-15.88,7.37,98.173,98.173,0,0,0-12.7,7.76l-3.35,2.5-3.15,2.56c-1.97,1.75-3.83,3.35-5.27,4.84a149.187,149.187,0,0,0-12.34,13.68,89.761,89.761,0,0,0-10,15.7,7.329,7.329,0,0,0-.38.75,2.038,2.038,0,0,0-.2.5c-1.66,3.23-3.23,6.5-4.64,9.85l-.85,2.02-1.96,5.06c-1.52,4.04-3.13,9.13-4.24,13.06l-.4,1.4a12.314,12.314,0,0,0-.33,1.36,3.27,3.27,0,0,0,.58,2.44,2.2,2.2,0,0,0,1.17.86c.26.08.3.03.18-.1a3.738,3.738,0,0,1-.87-.96,2.051,2.051,0,0,1-.23-.52,2.383,2.383,0,0,0,1.2,1.24l6.13,2.62c-.01.02-.01.04-.02.06-13.78-5.1-3.9-.48-.35,1.15q-.308,1.035-.58,2.08l-.3.74c-.17.68-.38,1.48-.62,2.14l-.01-.05c-.25,1.02-.6,2.14-.73,2.65l-.01-.05-.33,1.17a.692.692,0,0,1,.02-.16l-.04.14a.037.037,0,0,1-.01.03l-.17.3-.34.63q-.327.624-.63,1.26c-.4.84-.74,1.68-1.06,2.46l.13-.1a21.621,21.621,0,0,0-1.21,4.05c-.25,1.17-.42,2.3-.62,3.92l-.02-.05q-.054,2.637-.21,5.27a18.946,18.946,0,0,0,.3,5.43c-.1-.55-.02.22,0,.28a1.288,1.288,0,0,0,.6.74,2.136,2.136,0,0,0,.82.23,1.107,1.107,0,0,0,.27,0h.07a.573.573,0,0,0,.14-.04c.03.14.02.12.08.62.05.35.12.57.18.57a4.937,4.937,0,0,0,.3,1.2c.04.14.02.15.05.27.06-.05.18.36.85.62a1.8,1.8,0,0,0,.98.02,2.131,2.131,0,0,0,.84-.47,2.04,2.04,0,0,1-.44.34,2.422,2.422,0,0,0,.39-.27.861.861,0,0,0,.14-.14.934.934,0,0,0,.12-.18l.05-.1c.02-.03.03-.1.03-.03a.654.654,0,0,0,.13.35,1.67,1.67,0,0,0,.52.37,1.112,1.112,0,0,1-.44-.5l-.01-.02a.035.035,0,0,0,.01.02,1.536,1.536,0,0,0,.37.33,1.875,1.875,0,0,0,.32.16c.12.04.2.08.28.1s.4.22,1.2-.35l-.1-.08a4.5,4.5,0,0,0,1.08-1.3c.26-.42.48-.83.7-1.23l1.25-2.3,2.18-4.8.28-.63.07-.15c.01-.02.02-.05.04-.05.03.03.02.07.03.1a4.1,4.1,0,0,1,.02.5v.9a3.22,3.22,0,0,0,.53,2,1.555,1.555,0,0,0,1.1.68,1.359,1.359,0,0,0,1.15-.63,4.67,4.67,0,0,0,.66-1.84c.22-1.13.5-2.24.8-3.34l.46-1.64.22-.84a5.784,5.784,0,0,0,.14-.9c.08-1.15.08-2.24.07-3.34l.07-.4a.658.658,0,0,0,.02-.24c0-.12-.03-.32-.03-.38v-1.33l-.01-.01a1.76,1.76,0,0,1,0-.33.766.766,0,0,1,.07-.25c.05-.3.12-.6.2-.9.1-.24.36-.74.2-.3l.64-1.4c.18-.26.37-.53.57-.8.86-1.3,1.63-2.53,2.4-3.76l5.64,2.3a3.923,3.923,0,0,0,1.4.38,3.02,3.02,0,0,0,1.66-.39,3.066,3.066,0,0,0,1.2-1.27,9.527,9.527,0,0,0,.42-1.26c.42-1.43.94-2.97,1.53-4.6a91.942,91.942,0,0,1,5.9-12.5,95.883,95.883,0,0,1,7.8-11.75,58.511,58.511,0,0,1,13.16-12.35,22.439,22.439,0,0,1,2.02-1.3c.78-.45,1.58-.97,2.5-1.4q2.581-1.269,5.11-2.64l1.2-.45q.378-.217.77-.41c-1.63,6.12-2.7,9.84-4.8,18.5l-4.1,16.5c-.43,2.56-1.77,6.94-2.37,9.95l-.42,1.12a26.651,26.651,0,0,1-.82,3.25l-.02-.07c-.16.77-.38,1.57-.57,2.28s-.36,1.4-.43,1.8l-.02-.08c-.1.68-.26,1.33-.3,2.05l-.02-.37a8.556,8.556,0,0,0,.1,2.4,4.268,4.268,0,0,0,1.24,2.4,5.29,5.29,0,0,0,2.22,1.2,13.173,13.173,0,0,0,2.09.37l-.2-.16a29.947,29.947,0,0,0,3.56.18q1.405-.005,2.81-.06c1.77-.07,3.46-.15,5.88-.13l-.06.04c6.08-.6,9.65-.1,15.92-.77-.78.1.34.06.28.1,2.9-.2,5.98-.4,6-.68,2.1-.13,1.72-.02,2,.07a18.339,18.339,0,0,1,3.45-.42l-.75.1,4.7-.4-.95-.15c2.5-.15.66.24,3.05-.05l-.05-.2,4.5-.34a16.958,16.958,0,0,0,4.5-.93,14.429,14.429,0,0,0,4.64-3.14,18.965,18.965,0,0,0,3.28-4.54,34.624,34.624,0,0,0,3.16-10.48c.56-3.57.75-7.1.98-10.55l.52-10.06.15-.57c.33-.26-.16-3.6.05-4.1ZM135.18,209.07a14.052,14.052,0,0,1-1.15,1.66,7.055,7.055,0,0,0-1.05,1.86c-.17.3-.34.6-.5.9a3.794,3.794,0,0,0-.23.93l-.03.35c0,.14-.03.26-.02.53-.01.07-.02.15-.03.25-.06-.08-.17,1.5-.17.8a2.84,2.84,0,0,0-.02.58l.02.5.03,1q.033,1.045.02,2.09a4.521,4.521,0,0,1-.1,1q-.117.556-.28,1.1l-.72,2.42c-.04.4-.18,1.02-.3,1.62-.12.62-.23,1.2-.25,1.43-.02.02-.1.22-.2.45a.836.836,0,0,1-.34.45c-.1.04-.18,0-.18-.02s.05.02.15-.06c.03-.02.07-.07.1-.08l.02-.16c-.05.04-.1.13-.12.13a.06.06,0,0,1-.04.01.084.084,0,0,1-.06-.02.985.985,0,0,1-.18-.23,1.931,1.931,0,0,1-.18-.44,5.108,5.108,0,0,1-.1-1.26l.01-2.5c-.01,1.02-.05,2.4-.08,1.52a7,7,0,0,0-.17-2.53,1,1,0,0,1,.16.18,1.216,1.216,0,0,0-.47-.75c-.13-.04-.15-.05-.2.03l-.17.33-.34.65.18-.28c-.64,1.24-.9,1.58-1.65,3.16-.32.7.64-1.13-.04.25l-1.6,3.02-.92,1.72c-.3.56-.55,1.1-.8,1.62.17-.16-.1.4-.35.96l-.1.03c-.5,1.04-.7,1.06-.83,1.16-.07.03-.14.07-.26.12a.587.587,0,0,1-.2.06c.04.02-.16,0-.25-.03h.1a.785.785,0,0,1-.14.02h-.07c-.01-.01-.02.01-.04-.01l-.08-.1a.56.56,0,0,1-.09-.22c-.08-.02-.14-.03-.2-.05l2.78-8.54a.51.51,0,0,0-.32-.63.493.493,0,0,0-.63.32l-2.8,8.6v.04a1.917,1.917,0,0,1-.22-.03,2.262,2.262,0,0,1-.54.67.723.723,0,0,1-.56.18c.27.05.33.03.25.1a.391.391,0,0,1-.27.03c-.08-.02-.12-.01-.16-.05-.06-.02-.12-.1-.18-.17a.849.849,0,0,0,.17.08,1.5,1.5,0,0,1-.44-.84c.14.3.1.17-.02-.68a3.952,3.952,0,0,0,.17.55,5.841,5.841,0,0,1-.2-1.93c0-.01.01-.01.01-.02l1.56-7.25a.5.5,0,1,0-.98-.22l-1.48,6.88c-.01,0-.02.01-.04.01a2.844,2.844,0,0,1-.5.06,1.413,1.413,0,0,1-.22-.01.444.444,0,0,1-.22-.06.222.222,0,0,1-.08-.13,6.651,6.651,0,0,1-.15-1.5s-.05-.72-.06-1.55-.02-1.75-.06-2.1c.06.6.12-1.05.2-.58a28.674,28.674,0,0,1,.1-4v.17a27.669,27.669,0,0,1,1.78-8.48c-.14.1.5-1.36.25-1.04a16.4,16.4,0,0,1,.92-2.02c.17-.3.33-.6.5-.87.08-.13.17-.26.25-.4a.932.932,0,0,0,.17-.33l.07-.23a10.657,10.657,0,0,0,.63-2.64c.4-1.4.56-1.62.8-2.33l-.08.33,1.08-3.7.04.02c5.35,2.46,9.45,4.2,13.84,5.98l.35.14a22.74,22.74,0,0,0-1.28,2Z"/>
    <path id="Path_15157" data-name="Path 15157" d="M345.92,102.53a2.116,2.116,0,0,0-1.58-1.34l-4.8-1a2.28,2.28,0,0,0-.5-.06,1.984,1.984,0,0,0-1.6.8l-7.34,8.4-.74.24-.6.2-1.26.46-2.94,1.14a16.459,16.459,0,0,0-2.78,1.3l-1.94,1.34-1.9,1.5a7.631,7.631,0,0,0-1.02,1.13,4.426,4.426,0,0,0-.82,1.8,4.255,4.255,0,0,0-.07.48l-.05.42-.1.84c-.08.55-.2,1.1-.33,1.64a14.42,14.42,0,0,1-1.19,3.05c-.27.85-1.7,2.17-2.45,3.13l-.38.3a8.786,8.786,0,0,1-.94,1v-.03c-.4.5-.95.98-1.16,1.22v-.03l-.55.55.08-.1c-.76.83-1.6,1.63-2.35,2.3h.12l-3.62,3.36v-.03a1.209,1.209,0,0,1-.16.16l-.05-.05a9.569,9.569,0,0,0-1.16-1.06,2.79,2.79,0,0,0-1.69-.44,3.17,3.17,0,0,0-.93.2,3.372,3.372,0,0,0-.83.5,17.145,17.145,0,0,1-2.33,2.17c.42-.47-.18.03-.75.48.35-.3.44-.42-.35.1a4.221,4.221,0,0,1-.37.38c-.01,0-.04.02-.04,0-.92.77-.74.67-.3.33-.01.03.04.02.2-.07-1.06.66-2.73,2.15-2.96,2.1l-7.14,5.77c-.33.12.2-.35.87-.9l-1.7,1.27c-.06-.12.94-.77,1.46-1.17-2.17,1.25-4.04,3.44-6.84,3.65a4.974,4.974,0,0,1-.55.16l-.16-.01a2.316,2.316,0,0,1-1.02.12c-.2-.1-.17-.15-.28-.22a5.567,5.567,0,0,0-.98-.3l-1.96-.8a14.943,14.943,0,0,1-2.13-1.2c.63.5.4.4.08.22-.58-.43-.84-.76-1.3-1.1l.05-.17c.1.32-1.52-1.12-1.75-1.27-.22-.36.9.7,1.08.75l-1.56-1.5-.24-.24-1.1-1.34a35.776,35.776,0,0,1-5.4-7.1l-.55-2.2-.28-.6-.04-.2a4.619,4.619,0,0,1-.47-1.08c-.01-.46.27-.04-.18-1.55a38.192,38.192,0,0,0-1.65-4.9c.25.85.1.6-.05.25a12.959,12.959,0,0,0-.55-1.77l.1-.1a22.87,22.87,0,0,1-1.04-2.15c-.06-.46.54,1.1.7,1.26l-1.9-4.37c-.83-1.48,0,.34-.47-.33l-2.36-4.02.17.53-1.08-1.57-2.68-3.54a25.844,25.844,0,0,0-3.33-2.74,17.127,17.127,0,0,0-4.37-2.57c-.17-.36-.28-.43-.3-.1l-.24-.07.14.56a2.776,2.776,0,0,0-.73-.03l.12.26a1.332,1.332,0,0,0,.24.1l.53.28.14,1.1.82.53c.7.4-1.1-1.04.27-.06.42.33.83.76,1.3,1.2l1.34,1.5a26.008,26.008,0,0,1,2.37,3.48c-.02-.3.38.33.78.98l-.06.14c1.53,2.48.3,1.04,1.65,3.58l-.18-.2.55.6c1.22,2.34.32,1.4,1.6,4.03-.4-1.1.1-.6.5.77l-.23-.3.53,1.5c-.2-.43-.24-.2.12.92l-.37-.7.83,2.05,1.16,5,.43,1.9.7,2.5c-.27-.7.12,1.3-.14.76a26.338,26.338,0,0,1,1.1,4.78l-.06-.2c.68,4.12,1.52,6.98,1.96,10.7.12-.2.35,1.78.46,1.27.8,3.8.7,7.06,1.48,8.37a27.24,27.24,0,0,1,.26,3l-.1-.4.96,6.67a22.386,22.386,0,0,1,.73,3.56c-.2-.7-.06.2.04,1-.08-.52-.14-.68-.07.4.05.15.1.38.15.6-.01.01-.01.05-.02.03.2,1.36.2,1.12.15.48.02.03.03-.03.04-.23.05,1.43.5,3.95.35,4.14.55,4.1,1.1,7,1.56,10.43-.05.4-.22-.4-.38-1.38l.32,2.42a10.006,10.006,0,0,1-.35-2.13c.12,2.9.9,5.93,1.08,9.34l.18.7.01.2a6.7,6.7,0,0,1,.3,1.24q-.012.076-.03.15l.28,1.45.6,3.2.13,1.45-.67.33.23,1.05c.17.72.26,1.14-.14.03-.06-.2-.14-.54-.1-.52l-.18-.24a13.567,13.567,0,0,0,2.47,5.97c-.35-.55-.63-1.08-.3-.64a11.331,11.331,0,0,0,1.38,1.84,3.79,3.79,0,0,1-.4-.3,12.054,12.054,0,0,0,2.57,2.28l-.3-.37c.66.5,1.1.82,1.6,1.14a6.3,6.3,0,0,0,2,.82c.44.08.05-.08-.2-.2-.24-.15-.4-.2.45.05a5.071,5.071,0,0,0,.88.26,4.557,4.557,0,0,0,1.03.15,4.046,4.046,0,0,0,2.47-.57,3.485,3.485,0,0,0,1.5-2.43,5.384,5.384,0,0,0-.23-2.5c-.02.16-.1.04-.2-.22a8.217,8.217,0,0,1-.28-.84l.1-.1c-.83-2.58.01-1.02-.75-3.64l.14.22-.42-.65c-.8-2.36-.05-1.36-1-3.97.26,1.06-.15.56-.4-.76l.2.3a12.7,12.7,0,0,1-.38-1.44c.16.42.22.2-.04-.87l.3.68-.67-1.97c-.22-1.6-.94-4.02-.9-4.7,0,0-.13-.66-.3-1.46a6.62,6.62,0,0,1,1.18-.38c-.05.12,1.6-.38.9-.07,2.9-.76,5.47-2.43,8.9-4.1.6-.6,2.32-1.5,2.74-1.97.13.02,3.22-2.08,1.53-.74-.15.1-.42.3-.42.25l-.15.24a14.7,14.7,0,0,0,1.36-.79c.42-.3.8-.6,1.2-.9.8-.6,1.52-1.28,2.38-1.94-.53.36-1.2.9-.8.48l1.6-1.22-.26.34c.8-.6,1.55-1.25,2.33-1.87l-.4.17a14.988,14.988,0,0,0,2.76-2.33c.48-.57-1.14.8-.03-.26,1.47-1.27,3.65-3.2,5.38-5-.26.07.2-.4.65-.93l.15.03c1.66-2.04.86-.53,2.5-2.54l.18-.46c1.36-1.94,1.05-.77,2.48-3-.65.8-.52.2.34-.74l-.12.32c.44-.55.55-.76.86-1.1-.22.36-.01.28.64-.53l-.33.63,1.07-1.65c1.05-1.1,2.4-3.07,2.9-3.46a28.267,28.267,0,0,0,2.32-3.25c-.3.6.8-.82.6-.33.03-.07.14-.24.25-.47a4.69,4.69,0,0,0,.27-.75,3.558,3.558,0,0,0-.1-1.82,3.43,3.43,0,0,0-.42-.86c-.1-.13-.2-.26-.3-.37-.08-.08-.15-.16-.22-.24a6.6,6.6,0,0,1-.63-.74l.14.12c-1.1-1.2-2.1-2.2-3.08-3.14l1.26-1.64.2-.14c.16-.01.7-1.3.92-1.38l.32-.53c.12-.13.36-.4.2-.14a6.584,6.584,0,0,0,.54-.83l.43-.45c1.38-1.78,2.38-3.4,3.8-5.3l.5-.62c.15-.2.32-.4.5-.63l.88-.58c.34-.22.66-.47,1-.72l2.02-1.57,1.95-1.54.9-.7a8.493,8.493,0,0,0,.82-.7c.77-.94,1.33-1.86,2-2.83l1.94-2.93a67.023,67.023,0,0,0,3.58-5.95,2.348,2.348,0,0,0,.23-.46l.5-.85a2.814,2.814,0,0,0,1.2-1.4,1.183,1.183,0,0,0,.2-1l.14-.24.43-.75.13-.23a3.3,3.3,0,0,0,1-.96,1.592,1.592,0,0,0,.3-1.3,5.089,5.089,0,0,0-2.34-2.5l4.55-5.6a2.436,2.436,0,0,0,.24-2.13ZM336.2,122.9c-1.13,1.96-2.83,4.63-3.5,5.92l.03-.1a13.509,13.509,0,0,1-1.06,1.66c-.04.03-.08.08-.08.07a3.29,3.29,0,0,1-1.11,1.18c-.5.38-1,.74-1.3.98l-.08-.03-1.43,1.1.54-.4c-.08.3-1.15.73-2.12,1.6a8.882,8.882,0,0,0-1.17,1.05,14.481,14.481,0,0,1-1.24,1.04,5,5,0,0,1-.36.48c-.3.54.2-.5-.28.26-.1-.03.2-.38,0-.23-.5.74-.94,1.12-1.53,2.04l-.1-.01c-.73,1.23-1.67,2.12-2.13,2.96-.82,1.22-.76.67-1.55,2l-.43.42c-.4.52-.18.45-.65,1-.03-.07-.58.7-.38.33-.54.66-1.03,1.38-1.56,2.15-.94-.9-1.86-1.82-2.8-2.88,0,.2-1.15-1.1-1-.65-2.5-2.3-4.06-4.7-5.32-5.17a19.913,19.913,0,0,1-1.72-2l.28.24-.3-.3c1.42-1.26,2.35-2.36,3.7-3.5-.12,0,.63-.66.38-.57,1.34-1.43,2.72-2.33,2.98-3.07a10.315,10.315,0,0,1,1.14-1l-.14.16,2.3-2.52c.37-.53.35-.64,1-1.63-.13.35.1-.06.28-.44-.12.24-.13.33.16-.15a2.625,2.625,0,0,1,.1-.3c.01,0,.02-.02.02-.01.27-.66.2-.55.06-.25,0-.02-.02,0-.08.1.4-.63.73-1.9.85-1.97a13.742,13.742,0,0,0,.47-2.8c.03-.42.04-.87.1-1.2a3.471,3.471,0,0,1,.47-1.05c.16-.1-.05.22-.22.63a4.145,4.145,0,0,1,.6-.94c.05.06-.37.54-.5.85a11.388,11.388,0,0,1,3.2-3.13l.25-.26.1-.05a2.09,2.09,0,0,1,.46-.45c.23-.08.1.1.75-.36.52-.3,1.57-.9,2.37-1.26-.43.17-.3.08-.13-.02.4-.16.64-.18.93-.33l.07.07c-.2-.03,1-.47,1.13-.56.25-.01-.6.28-.67.36,1.58-.58.8-.3,2.4-.84.84-.35-.18-.03.2-.25l1.23-.44.12.14-.01.02c-.01.03-.02.05-.03.08a.58.58,0,0,0-.01.1,6.538,6.538,0,0,1-.17,1.57c-.36.66-.6.78-1,1.44-.23.3-.46.62-.7.9-.03.22-.35.34-.43.57h-.1a.249.249,0,0,1-.16.17l-.01-.02a1.114,1.114,0,0,1-.2.22l-.01-.02-.1.1v-.04a1.153,1.153,0,0,1-.43.37l.06.06c-.36.14-.37.37-.72.46h-.01c-.24.43-.66.23-.93.64.03-.05-.04-.03-.05-.05-.17.12-.35.23-.28.4-.13.07-.13.01-.18-.04.04.07-.07.15-.17.2l.04-.05-.3.17.12.1c-.18.04-.1-.14-.25-.03l.05.1a1.631,1.631,0,0,1-.45.08c-.1.08-.27.24-.4.37a20.458,20.458,0,0,1-1.32,2.74h-.1c-.12-.04.05.32-.07.3v.13c-.03.02-.08.06-.1,0-.05.1-.03.1-.03.18l-.12.06c-.23.33-.25.7-.47,1.07a4.06,4.06,0,0,0-.5.78l-.55,1.17a1.037,1.037,0,0,0,.04.1.96.96,0,0,1,.08.26.5.5,0,0,0,.03.13.69.69,0,0,1,.1.04,1.861,1.861,0,0,1,.42.47,5.818,5.818,0,0,1,.58.46,2.449,2.449,0,0,0,.5.34c.01.03.08.04.1.03.17.15.32.32.5.5a12.256,12.256,0,0,0,1,.97c.42.34.8.37.32-1.03h.03a1.238,1.238,0,0,0-.7-.66c.1-.15-.23-.25-.26-.36h.02c-.28-.07-.32-.44-.6-.5.02,0,.05-.04.1,0-.15-.1-.4-.2-.34-.3l-.3-.18a1.19,1.19,0,0,0-.2-.1.5.5,0,0,0-.27.01H321l.05-.02c-.24.07-.04-.03-.1-.06.02-.01.03-.01.04-.02-.04-.01-.03-.05-.01-.1.04-.06.1-.12.1-.16l.07.02.03-.07.05-.1,5.24,1.62.05.02.05.01a2.573,2.573,0,0,0,.55.06,2.18,2.18,0,0,0,1.31-.42,6.16,6.16,0,0,0,2.44.88,4.868,4.868,0,0,0,1.2.1,2.643,2.643,0,0,0,2.9-2.5,1.487,1.487,0,0,0-.46-1.5c.12.01.24.01.36.01a5.075,5.075,0,0,0,1.7-.27c-.2.24-.3.4-.36.4Zm-5.58-.74a6.373,6.373,0,0,0,.7.2c1.5.4,3.1.8,2.9,1.8-.3,1.4-.9,2.1-3.2,1.7a5.314,5.314,0,0,1-3.3-1.8,1.209,1.209,0,0,1-.3-1c0-.3.2-.5.4-.8a4.5,4.5,0,0,1,2.8-.1Zm-9.44,2.33-.04.05c-.03-.03-.03-.05-.02-.07Zm12.14-2.63a5.537,5.537,0,0,1-3.7-1.9,1.431,1.431,0,0,1-.3-1.1.891.891,0,0,1,.5-.8,3.064,3.064,0,0,1,1.7-.4,7.719,7.719,0,0,1,1.5.2,6.373,6.373,0,0,0,.7.2l.5.13a7.108,7.108,0,0,0,1.1.37c.3.1.63.17.94.25a2.77,2.77,0,0,1,1.26.85,1.268,1.268,0,0,1,.1.6c-.2,1-.9,2.1-4.3,1.6Zm5.02-2.24a2.26,2.26,0,0,0-.17-.56h.06c.17,0,.34-.01.5-.02-.13.2-.26.4-.4.58Zm2.18-2.66c-.53,1.15-1.42,1.53-3.1,1.3a11,11,0,0,0-3.6-1.2.681.681,0,0,1-.15-.02,4.724,4.724,0,0,1-1.95-1.88,1.211,1.211,0,0,1-.1-1c.7-1.4,3.5-.8,4.4-.4.2.1.3.1.5.2l1.24.47q.177.12.36.23a5.745,5.745,0,0,0,1.26.57,2.571,2.571,0,0,1,1.14,1.13.637.637,0,0,1,0,.6Zm2-4.4a.821.821,0,0,1-.1.7,2.075,2.075,0,0,1-2.9,1,12.572,12.572,0,0,0-1.43-.7,5.612,5.612,0,0,1-2.47-2.9,1.417,1.417,0,0,1,.1-1.1,1.374,1.374,0,0,1,.8-.5h.4a4.673,4.673,0,0,1,2.5.9,5.736,5.736,0,0,1,.7.4C340.92,110.86,342.32,111.76,342.52,112.56Z"/>
    <g id="Group_1174" data-name="Group 1174">
      <path id="Path_15158" data-name="Path 15158" d="M203.26,220.25c0-.02-.04-.03-.14-.03Zm5.28.87h0c-.02,0-.03.01-.04.01Zm11.6-2.37h0l.04-.06Z" fill="#fff"/>
      <path id="Path_15159" data-name="Path 15159" d="M243.67,206.2a11.327,11.327,0,0,0-1.3,1.88l-.01-.05a10.893,10.893,0,0,0-.86,1.8c-.2,0-.38.6-.55.73v-.02c-.17.52-.7.82-.94,1.28a.165.165,0,0,1,.04-.16c-.2.3-.5.7-.6.66-.56.68-1.5,1.46-1.84,1.93v-.04c-.2.28-.33.26-.58.52-.02,0-.05.01-.05,0-.2.32-.84.6-1.06.77l-.05-.05-.6.37.23-.12c.01.2-.5.18-.92.5-.44.17-.72.78-1.23.87-.2.16.15-.2-.17-.02-.04-.1.14-.1.02-.15-.32.16-.57.1-.96.3l-.04-.07c-.48.33-1.03.2-1.36.42-.55.2-.43-.13-.98.15l-.25-.05c-.25.04-.16.16-.45.16.01-.07-.37.01-.2-.08a19.946,19.946,0,0,1-2.17.32c-.17.15-.6.13-.74.25-.03-.05-.86.1-.4-.07.04-.02.1-.02.1,0l.05-.08c-.5-.07-.87.2-1.36.24.15.01.34-.02.22.04l-.45.04.1-.07-.67.04.1.07c-.33,0-.46-.12-.82.03-.16.08.32.07-.02.13l-1.68.03c.06.08-.1.1-.24.13l-.03-.07c-.6.16-.24-.14-.82,0l-.1.1c-.52.2-.3-.12-.88.13.23-.03.13.15-.17.15l.07-.08a1.585,1.585,0,0,1-.32.06c.1-.05.04-.1-.2-.08l.15-.1-.43.17c-.35-.05-.9.1-1.04.01a2.9,2.9,0,0,0-.9.14c.14-.08-.27-.08-.16-.17a1.921,1.921,0,0,1-.98.13l.04-.01c-.84-.02-1.42.23-2.18.18.04.08-.36.06-.25.17-.77.16-1.43-.13-1.7.23a1.722,1.722,0,0,1-.6-.06l.08-.02-1.35.1c-.24.05-.27.2-.72.2.14-.07-.04-.05-.2-.04.1-.02.14-.04-.08-.07a.433.433,0,0,1-.12.05.035.035,0,0,1-.01-.02c-.27.04-.23.05-.1.06-.01.01.01.02.05.04-.3-.07-.8.05-.84-.06-.83.07-1.4.22-2.1.3-.08-.05.08-.1.28-.14l-.5.04c0-.08.28-.06.43-.08-.6-.1-1.2.2-1.9.1l-.14.07-.04-.01c0,.03-.15.1-.25.1-.1-.07,0-.16-.34-.14a4.018,4.018,0,0,0-1.1.12c.2,0,.13.05.05.07-.17.01-.27-.06-.4-.02l-.02-.1c.07.1-.44.1-.5.16-.1-.07.26-.07.3-.12l-1.02.05c-.36.1.07.1-.1.18a5.294,5.294,0,0,1-1,.07l.12.08a3.526,3.526,0,0,1-1.37.02c-4.46.82-.92.96-.92.96a29.507,29.507,0,0,0,4.78-.3c1.85-.04,2.35.1,4.26-.06l2.78-.2c.42-.15,1.17-.07,1.67-.2l.2.06a1.457,1.457,0,0,1,.55-.06v.02c.25-.07.55-.06.67-.1l-.01.02.3-.03-.05.03a6.82,6.82,0,0,1,1.32-.12l-.04-.08c.88.04,1.2-.17,1.98-.1v.02c.98-.3,1.6.04,2.6-.27-.13.04.06.04.05.06.47-.07.97-.12.97-.3.34-.03.3.03.34.1-.01-.08.3-.13.56-.16l-.12.04.77-.1-.16-.13c.4,0,.12.16.5.1v-.12a10.168,10.168,0,0,1,1.47.14l6.8-.96.1.07c.06.12.55-.28.65-.18.08-.03.16-.07.23-.1.07.01.22,0,.1.05a1.239,1.239,0,0,0,.4-.15l.26.02a8.26,8.26,0,0,0,1.28-.32l1.28-.48a7.607,7.607,0,0,0,2.12-.85,14.417,14.417,0,0,0,1.96-1.32c1.35-1.12,3.2-2.24,4.14-3.88.05-.03.1-.2.1-.2l.92-1.4a8.15,8.15,0,0,0,.55-1.04,10.944,10.944,0,0,0,.73-2c.15-.58.15-1.05-.02-.98Zm-48.52-49.77.14-.02C195.28,156.39,195.24,156.39,195.15,156.43Zm5.25-.8h-.01l-.03.02Z" fill="#fff"/>
      <path id="Path_15160" data-name="Path 15160" d="M200.38,155.62c.33-.27,1.05-.42,1.46-.7h.2a.857.857,0,0,1,.48-.2v.02c.2-.14.48-.2.6-.3v.02l.28-.12-.04.05a7.758,7.758,0,0,1,1.17-.5l-.06-.07c.82-.22,1.04-.5,1.8-.67v.02c.8-.57,1.47-.4,2.3-.98-.1.07.07.02.06.05.4-.2.86-.38.8-.54.3-.12.27-.05.34,0-.03-.07.23-.2.47-.3l-.1.07.68-.3-.2-.08c.38-.1.16.12.5-.05l-.05-.1a9.762,9.762,0,0,1,1.4-.24l6.1-2.5.12.05c.1.1.45-.4.57-.3l.2-.15c.07-.01.2-.04.1.03a1.357,1.357,0,0,0,.33-.2l.25-.02c.82-.3,1.44-.74,2.27-1.1a19.389,19.389,0,0,0,3.86-2.04c1.38-.97,3.33-1.5,4.68-2.6a.293.293,0,0,0,.15-.14l1.33-.84a24.508,24.508,0,0,0,2.48-1.86c.88-.84,1.08-1.25-1.55-.01v-.04a6.687,6.687,0,0,0-1.6,1.15c-.17-.1-.6.37-.8.43l.01-.02c-.37.4-.96.48-1.33.84.01-.02-.01-.07.1-.13-.3.2-.7.5-.78.43a19.606,19.606,0,0,0-2.22,1.44v-.04c-.23.25-.35.2-.64.44h-.05a9.122,9.122,0,0,1-1.1.66l-.05-.05-.6.33.24-.1c.01.2-.52.13-.9.47-.43.2-.68.78-1.16.9-.17.18.12-.2-.16,0-.05-.08.12-.12.01-.15-.3.2-.55.15-.9.4l-.05-.06c-.44.36-.98.34-1.26.6-.5.3-.44-.05-.9.32H219c-.24.1-.12.18-.4.25-.01-.07-.34.1-.22-.03a18.153,18.153,0,0,1-1.96.78c-.12.18-.54.27-.63.4-.04-.04-.8.3-.4.02.03-.02.1-.05.1-.03l.03-.1c-.5.05-.78.4-1.22.54.14-.03.3-.1.2-.01l-.4.15.06-.1-.62.2.1.04c-.3.08-.46,0-.76.23-.13.12.32-.02.01.13l-1.56.45c.08.06-.06.1-.2.18l-.04-.06c-.5.3-.26-.07-.76.2l.03-.07-.08.2c-.43.33-.32-.04-.78.36.2-.1.16.1-.1.2l.04-.1a1.2,1.2,0,0,1-.28.14c.07-.07.01-.12-.2-.02l.1-.14-.35.28c-.34.05-.8.33-.96.3a2.765,2.765,0,0,0-.8.38c.1-.12-.27,0-.2-.1a1.849,1.849,0,0,1-.86.4h.04c-.8.22-1.25.62-1.96.8.06.07-.3.17-.18.23-.66.38-1.36.3-1.5.7a1.79,1.79,0,0,1-.58.12l.07-.05-1.2.5c-.2.12-.2.28-.6.4.1-.1-.05-.03-.2.02.1-.05.1-.08-.1-.04a.272.272,0,0,1-.1.08c-.25.1-.2.1-.08.07,0,.01.01.02.05.02-.3.03-.7.3-.8.2-.74.32-1.23.63-1.83.92-.1-.02.04-.13.2-.22l-.43.2c-.03-.08.24-.14.37-.2-.57.1-1.03.55-1.7.68l-.1.1h-.04c.01.03-.1.13-.2.17-.1-.03-.05-.15-.36-.03a3.833,3.833,0,0,0-.97.46c.17-.06.13,0,.07.05-.15.06-.26.03-.37.1l-.05-.08c.1.06-.36.25-.4.3-.1-.03.2-.15.23-.2l-.9.37c-.3.2.1.06-.03.2a4.129,4.129,0,0,1-.9.38l.13.04a3.746,3.746,0,0,1-1.24.46c-3.77,2.22-.5,1.2-.5,1.2a29.416,29.416,0,0,0,4.24-1.8c1.67-.6,2.17-.64,3.86-1.38.8-.28,1.66-.66,2.45-1Zm72.8,30.7v-.14C273.17,186.19,273.16,186.22,273.18,186.32Zm-.16-5.46c.01.02.01.03.02.04Z" fill="#fff"/>
      <path id="Path_15161" data-name="Path 15161" d="M275.92,192.27a30.377,30.377,0,0,0-1.28-4.58c-.4-1.8-.37-2.3-.9-4.14l-.72-2.67c-.23-.38-.3-1.13-.5-1.6l.02-.2a1.241,1.241,0,0,1-.15-.52v.01a4.731,4.731,0,0,1-.2-.64v.01l-.1-.3.04.04a6.363,6.363,0,0,1-.35-1.27l-.08.05c-.12-.87-.37-1.13-.45-1.92l.02.01c-.46-.9-.23-1.56-.7-2.5.06.12.03-.06.05-.06-.14-.45-.27-.94-.44-.9-.08-.33-.02-.28.04-.34-.07.02-.18-.26-.25-.52l.06.1-.2-.74-.1.18c-.06-.4.14-.14.01-.5l-.1.03a10.342,10.342,0,0,1-.07-1.47l-1.7-6.6.06-.1c.1-.07-.33-.52-.23-.62l-.12-.22c.01-.07-.01-.22.05-.1a.982.982,0,0,0-.15-.37l.02-.26c-.16-.88-.5-1.58-.7-2.5a26.562,26.562,0,0,0-1.17-4.33c-.6-1.62-.6-3.7-1.24-5.35,0-.06-.07-.2-.1-.2l-.38-1.57s-1.86-7.6-1.44-1.58l-.04-.03a6.274,6.274,0,0,0,.56,1.97c-.14.14.16.7.16.92l-.02-.02c.26.5.16,1.1.4,1.58a.178.178,0,0,1-.1-.13c.1.36.28.86.2.9a17.068,17.068,0,0,0,.8,2.63l-.04-.03c.2.3.12.4.26.76a.134.134,0,0,0-.01.05,10.111,10.111,0,0,1,.4,1.3l-.06.03.2.7-.05-.26c.2.05.02.55.26,1.03.1.48.6.86.65,1.38.14.2-.2-.17-.04.16-.1.03-.1-.15-.15-.04.13.33.05.6.22,1l-.07.04c.27.52.17,1.06.4,1.4.2.55-.12.44.17,1l-.04.25c.05.26.17.15.2.44-.07,0,.04.37-.06.22.06.66.46,1.26.5,2.14.17.15.2.6.32.7-.05.04.2.85-.03.4-.02-.04-.04-.1-.01-.1l-.1-.04c-.01.5.3.85.4,1.33-.01-.15-.06-.33.02-.22l.1.44-.08-.08.13.66.05-.1c.04.33-.06.47.14.8.1.15.02-.33.13,0l.26,1.65c.07-.07.1.08.16.22l-.07.04c.25.55-.1.25.12.8l-.06-.04.2.1c.27.48-.08.32.26.85-.07-.23.13-.15.17.14l-.1-.05c.05.15.1.2.1.3-.06-.08-.1-.02-.04.2l-.13-.13.24.4c.01.35.24.86.17,1.02a2.747,2.747,0,0,0,.28.87c-.1-.13-.03.27-.14.18a2.127,2.127,0,0,1,.3.94l-.02-.04c.12.83.46,1.36.55,2.12.08-.05.13.34.2.22.3.73.13,1.43.53,1.62a2.079,2.079,0,0,1,.05.6l-.04-.08.35,1.3c.1.23.26.23.33.67-.1-.12-.04.05,0,.2-.04-.1-.07-.13-.05.1a.36.36,0,0,1,.07.1c.08.27.1.22.06.1.01,0,.02-.01.03-.05-.01.3.2.77.1.83.23.8.48,1.34.7,2-.04.1-.12-.06-.2-.24l.14.47c-.08.02-.1-.26-.17-.4.02.6.42,1.13.47,1.82l.1.12v.04c.03-.01.1.13.15.22-.04.1-.16.03-.07.36a4.178,4.178,0,0,0,.34,1.06c-.03-.2.02-.14.06-.06.04.16,0,.27.06.4l-.1.04c.07-.1.2.4.25.46-.04.1-.12-.24-.18-.27l.26.98c.16.33.07-.1.2.06a3.976,3.976,0,0,1,.27.96l.05-.13a3.765,3.765,0,0,1,.3,1.33c1.75,4.15,1.13.68,1.13.68Zm-10.96,18.9h0l-.01-.01Z" fill="#fff"/>
      <path id="Path_15162" data-name="Path 15162" d="M270.1,216.67c-.1-.13-.16-.2-.33-.13.08-.15-.1-.1-.1-.16v-.01c-.16.05-.1-.2-.23-.18.01-.01.04-.04.06-.03-.07-.03-.16-.06-.1-.14-.14-.1-.27-.28-.46-.25l.03-.01c-.12.03-.07-.05-.15-.06a.031.031,0,0,0,.01-.02c-.12.02-.14-.14-.2-.15l.05-.05-.1-.1.02.05c-.15.1.02-.15-.13-.16-.04-.1-.42.1-.4-.05-.1.01.14-.05.04-.07.07-.06.07-.01.12-.07-.08-.03.01-.15-.1-.18l.06-.05c-.17-.01-.04-.22-.2-.2-.1-.06.14-.2-.05-.2l.06-.1c-.01-.05-.12.04-.1-.03.05-.03,0-.1.07-.1.01-.16-.26-.14-.2-.37-.12.03-.1-.07-.2-.05.04-.03-.08-.15.07-.13.01,0,.02.01,0,.02l.07-.03c.07-.15-.15-.1-.18-.2-.01.04.02.07-.04.07l-.03-.08.06-.01-.03-.13-.06.05c0-.07.1-.16-.02-.17-.07,0-.06.1-.1.05a1.373,1.373,0,0,0-.02-.35c-.07.05-.08.02-.1,0l.06-.04c-.14-.05.13-.1,0-.18l.05-.01-.15.04c-.18-.03.1-.12-.12-.13.03.03-.14.1-.13.03l.07-.02c-.03-.02-.06-.02-.05-.04.04,0,.1-.04.07-.07l.1-.01-.16-.02c.04-.1-.1-.15-.01-.2,0,0-.02-.15-.13-.13.07,0,.07-.1.15-.1-.1,0-.2-.08-.13-.15h.01c.01-.18-.22-.2-.18-.38-.08.04-.06-.05-.16.01-.16-.1.1-.34-.23-.26-.04-.06.04-.1.05-.15h.02a.543.543,0,0,1-.12-.24c-.05-.03-.2.02-.2-.08.07,0,.05-.02.03-.05.02.02.04.01.07-.04a.09.09,0,0,1-.05-.01c-.03-.05-.04-.04-.04-.01-.01,0-.02.01-.03.02.06-.08-.06-.14.04-.2-.08-.14-.22-.2-.3-.33a.12.12,0,0,1,.14.01l-.05-.08c.08-.03.06.04.1.06.1-.15-.2-.18-.13-.34l-.07-.01h.01a.116.116,0,0,1-.1-.02c.06-.04.15-.05.13-.1.05-.07-.08-.13-.13-.18,0,.04-.04.04-.07.03-.01-.03.05-.07.01-.1l.1-.03c-.08.04-.12-.05-.16-.06.06-.04.07.03.13.02l-.07-.2c-.1-.05-.08.04-.17.03-.04-.05-.12-.1-.08-.18l-.07.04a.186.186,0,0,1-.04-.27c-.44-.34-.68-.35-.8-.25a.449.449,0,0,0-.14.3c-.1.4.2.52.4.9.07.37-.05.52.14.87a3.038,3.038,0,0,0,.23.52c.15.04.1.22.22.28l-.05.06c.05.02.08.05.06.1v.01c.07.03.06.1.1.1h-.02l.03.06h-.03a.261.261,0,0,1,.13.24l.08-.04c-.02.2.17.2.13.38v.01c.3.1-.01.36.28.46-.04-.01-.04.03-.06.04.06.08.12.16.27.1.03.06-.02.07-.08.1a.12.12,0,0,1,.15.05h-.04l.1.13.1-.1c0,.1-.14.1-.08.15l.1-.05c.03.1-.1.25-.12.4.18.44.7.72.75,1.2l-.06.06c-.1.08.23,0,.14.07l.08.01c-.01.02-.02.06-.05.06.02.04.04.03.1.04l-.04.1c.05.2.28.23.36.4.01.3.4.55.65.68.38.13.32.8.78.9,0,.02.05.01.06,0l.28.23a1.332,1.332,0,0,0,.72.25c.16,0,.33-.07.3-.23a6.829,6.829,0,0,0-.2-.7v.01Z" fill="#fff"/>
    </g>
  </g>
</svg>
