<svg xmlns="http://www.w3.org/2000/svg" xmlns:xlink="http://www.w3.org/1999/xlink" width="223.789" height="148.115" viewBox="0 0 223.789 148.115">
  <defs>
    <linearGradient id="linear-gradient" x1="0.275" y1="0.544" x2="0.727" y2="0.407" gradientUnits="objectBoundingBox">
      <stop offset="0" stop-color="#cc7a5e" stop-opacity="0"/>
      <stop offset="0.92" stop-color="#aa5f4b"/>
    </linearGradient>
    <linearGradient id="linear-gradient-2" x1="0.27" y1="0.472" x2="1.123" y2="0.543" xlink:href="#linear-gradient"/>
    <linearGradient id="linear-gradient-3" x1="0.774" y1="0.501" x2="1.215" y2="0.506" xlink:href="#linear-gradient"/>
    <linearGradient id="linear-gradient-4" x1="0.322" y1="0.623" x2="1.024" y2="-0.042" xlink:href="#linear-gradient"/>
    <linearGradient id="linear-gradient-5" x1="0.286" y1="-0.12" x2="0.8" y2="0.867" gradientUnits="objectBoundingBox">
      <stop offset="0" stop-color="#997ebd"/>
      <stop offset="0.57" stop-color="#7c59aa"/>
      <stop offset="1" stop-color="#6a4bb4"/>
    </linearGradient>
    <linearGradient id="linear-gradient-6" x1="-0.03" y1="1.303" x2="-0.359" y2="1.817" gradientUnits="objectBoundingBox">
      <stop offset="0" stop-color="#6a4bb4" stop-opacity="0"/>
      <stop offset="1" stop-color="#4f3282"/>
    </linearGradient>
    <linearGradient id="linear-gradient-7" x1="0.246" y1="0.267" x2="0.44" y2="0.432" xlink:href="#linear-gradient-6"/>
    <linearGradient id="linear-gradient-8" y1="0.5" x2="1" y2="0.5" gradientUnits="objectBoundingBox">
      <stop offset="0" stop-color="#997ebd"/>
      <stop offset="0.41" stop-color="#7c59aa"/>
      <stop offset="1" stop-color="#6629c8"/>
    </linearGradient>
    <linearGradient id="linear-gradient-9" x1="0.173" y1="0.66" x2="0.622" y2="0.44" xlink:href="#linear-gradient-6"/>
    <linearGradient id="linear-gradient-10" x1="0.521" y1="0.482" x2="0.582" y2="0.832" xlink:href="#linear-gradient"/>
    <linearGradient id="linear-gradient-11" x1="0.698" y1="0.609" x2="0.372" y2="0.311" xlink:href="#linear-gradient"/>
    <linearGradient id="linear-gradient-12" x1="-0.064" y1="0.653" x2="0.643" y2="0.437" xlink:href="#linear-gradient"/>
    <linearGradient id="linear-gradient-13" x1="0.81" y1="0.283" x2="0.324" y2="0.55" xlink:href="#linear-gradient"/>
    <linearGradient id="linear-gradient-14" x1="0.475" y1="0.525" x2="0.312" y2="0.743" xlink:href="#linear-gradient"/>
    <linearGradient id="linear-gradient-15" x1="0.618" y1="0.31" x2="-0.174" y2="0.841" xlink:href="#linear-gradient-5"/>
    <linearGradient id="linear-gradient-16" x1="0.436" y1="0.43" x2="0.061" y2="0.641" xlink:href="#linear-gradient-6"/>
    <linearGradient id="linear-gradient-17" x1="0.066" y1="0.025" x2="0.61" y2="0.783" gradientUnits="objectBoundingBox">
      <stop offset="0" stop-color="#744795"/>
      <stop offset="1" stop-color="#51347a"/>
    </linearGradient>
    <linearGradient id="linear-gradient-18" x1="0.345" y1="0.24" x2="0.562" y2="0.669" gradientUnits="objectBoundingBox">
      <stop offset="0" stop-color="#151e28" stop-opacity="0"/>
      <stop offset="1" stop-color="#151e28"/>
    </linearGradient>
    <linearGradient id="linear-gradient-19" x1="0.598" y1="0.698" x2="0.46" y2="0.389" xlink:href="#linear-gradient-18"/>
  </defs>
  <g id="_169" data-name="169" transform="translate(-137.294 -99.984)">
    <path id="Path_16219" data-name="Path 16219" d="M186.8,123.6s-17.1,4.7-30.9,13.5-16,11.9-17.7,18.2c-1.9,7.4.7,16.3,5.2,29.9s15.4,41,15.4,41a28.419,28.419,0,0,0,4.9,12.7c4.4,6.3,5.5,6.6,6.3,7.4s1.6-.7,1.6-.7,1.8,2.1,3.1,1.8.4-1.9.4-1.9a5.485,5.485,0,0,0,2.6,0c.7-.5,0-3.6-.9-5.5-1-1.9-1.8-7.4-2-8.4s1.6,1.7,2.7,3.1c1.1,1.3,3.3,1.3,1.9-1.4-1.4-2.8-2.2-5.3-2.7-6q-1.347-1.841-2.8-3.6l-1-1.1s-.9-.8-1.3-4-3.1-35.7-3.2-40.6a15.06,15.06,0,0,1,7.9-13.7c4.6-2.5,30.4-13.7,30.4-13.7l-19.9-27Z" fill="#ea9d7d"/>
    <path id="Path_16220" data-name="Path 16220" d="M158.6,225.5c-.2,0-.3-.1-.4-.3-.1-.4-14.5-38.3-18.6-50.9-6.1-18.7,1.8-26.1,2.1-26.4.2-.2.4-.1.6,0,.2.2.1.4,0,.6a13.3,13.3,0,0,0-3.2,5.8c-2,6.7-.4,14.4,1.3,19.6,4.1,12.6,18.5,50.5,18.6,50.9.1.2,0,.5-.2.5-.1.2-.1.2-.2.2Z" fill="#cc7a5e"/>
    <path id="Path_16221" data-name="Path 16221" d="M169.2,171.9a86.075,86.075,0,0,0-3.3-21.7c-3.2-10.3-7.9-14.1-7.9-14.1l9.1-5c2.4-1.2,10-4.4,10-4.4l17,29.2s-7.2,2.9-13.1,5.6C175.5,164.2,171.3,166.6,169.2,171.9Z" fill="url(#linear-gradient)"/>
    <path id="Path_16222" data-name="Path 16222" d="M176.3,164.2c2.6-1.8,17.8-8.2,17.8-8.2l-4.8-17.8a101.608,101.608,0,0,0-15.6,9.5c-8.8,6.4-12.6,13.2-11.6,18.8-1.8-2.1-3.4-2.7-4.1.9-.8,4.5-1.3,34.9.4,45.9,1.5,9.8,4.5,7,9.6,7.6a28.634,28.634,0,0,1,4.8,1.3l-1.3-4.5-3-39.9c.1-1.9-.4-4,1.4-7.4,1.7-3.3,3.8-4.4,6.4-6.2Z" fill="url(#linear-gradient-2)"/>
    <path id="Path_16223" data-name="Path 16223" d="M169.8,170.5c-.8,1.4-1.6,6.2-1.2,11l3.1,36.2.9,5.4s.3-.7,2,1.2c1.8,1.9,4.6,8.1,5.2,9.5.7,1.4.3,1.5-.1,1.8-.3.3-1,0-1.5-.5s-3.8-4.3-3.8-4.3a5.03,5.03,0,0,1-4.7-1.4,13.64,13.64,0,0,1-2.3-5.2s-17.5-37.1-13-52.5c4.4-14.5,16.2-2.6,15.4-1.2Z" fill="url(#linear-gradient-3)"/>
    <path id="Path_16224" data-name="Path 16224" d="M167.8,225.2s-3.6-.9-4.9,2.1c-1.2,2.8.4,5.4,1.4,6.6,1.7,1.9,5.9,1.7,7.7.3a6.048,6.048,0,0,0,2.3-3.2s-3.2,0-4.7-1.7a10.989,10.989,0,0,1-1.8-4.1Z" fill="url(#linear-gradient-4)"/>
    <path id="Path_16225" data-name="Path 16225" d="M170.7,122.2S190.3,111.7,204,108c13.6-3.7,27.8-7.6,36.1,8.4s-8.5,28.1-18.8,34.5c-10.2,6.4-25.7,15-25.7,15l-24.9-43.7Z" fill="url(#linear-gradient-5)"/>
    <path id="Path_16226" data-name="Path 16226" d="M221.3,150.9c10.2-6.4,27.1-18.5,18.8-34.5-7-13.5-18.2-12.8-29.7-10.1l-.4,1.2s-6.2,15.3-15,21.9a51.248,51.248,0,0,1-15.6,7.9l16.3,28.5c-.1.1,15.4-8.5,25.6-14.9Z" fill="url(#linear-gradient-6)"/>
    <path id="Path_16227" data-name="Path 16227" d="M221.3,150.9c10.2-6.4,27.1-18.5,18.8-34.5-7-13.5-18.2-12.8-29.7-10.1l-3.7,4-14.8,14.8c-5.3,5.4-8.4,9.5-11.8,13.1l15.6,27.6c-.1.1,15.4-8.5,25.6-14.9Z" fill="url(#linear-gradient-7)"/>
    <path id="Path_16228" data-name="Path 16228" d="M196.3,167a.55.55,0,0,1-.5-.3l-25.2-43.8a.583.583,0,0,1,1-.6l25.2,43.8a.54.54,0,0,1-.2.8C196.5,166.9,196.4,167,196.3,167Z" fill="#603e87"/>
    <g id="Group_1256" data-name="Group 1256">
      <path id="Path_16229" data-name="Path 16229" d="M145.1,148.8l-.8-.1.3.9.5-.8Zm-2.8,4.8.8-.1-.5-.5Zm6.6-1.3.1-.8-.7.4.6.4Zm-7.3,4.2-.1.9.8-.5Zm-1.3,1.3-.1.9.8-.5Zm-.3,3.3-.8.8,1.3.4Zm0,4.2-1.2.4.8.8Zm.2-2.3,1.1,1.1.5-1.7-1.6.6Z" fill="#ffc1a6"/>
      <path id="Path_16230" data-name="Path 16230" d="M139.4,170.3l1.4-1-1.6-.5.2,1.5Zm4.3-20.5.3.1-.2-.7-.3.2-.5-1.5-1.5,1.4,2.2.8Zm2.8-5.2,3,1-1-2.9Zm-7,14.3-.3-.7-.5.5Zm4.9,2.8.4-.7-.8.1.4.6Zm-4.8-5.4.3.6.4-.7-.7.1Zm6.9-3.4.2-.8-.9.3Zm-4.6-3.1v.8l.6-.5Zm1.3,6.2-.4.5.8.2-.4-.7Zm1.8-11-1.8,1.8,2.4.3L145,145Zm5.3-4-1.4.9,1.6.6-.2-1.5Zm3.5-2.3-1.4.9,1.6.5-.2-1.4Zm-12.7,15.2.2-.8-.9.3Zm.5-2.7-.9.3.8.5.1-.8Zm4.7-6.4-.9.2.8.5.1-.7Zm-1.6,7.5-.3-.7-.4.5Z" fill="#ffc1a6"/>
      <path id="Path_16231" data-name="Path 16231" d="M148.6,147.4l.8.2-.3-.7Zm1.9-3.2-.3.9.8-.1-.5-.8Zm4.7-3.7.1-.7-.7.2.6.5Zm-11.9,7.1,1.3.8.2-1.4-1.5.6Zm4.5-2.4-.4,1.2,1.1-.1-.7-1.1Zm-2,5.3-.2.7.7-.1-.5-.6Zm3.5-7,.6-.5-.6-.3Zm-1.6,13.2.1-.5-.6.2Zm-2.9-2v.5l.4-.3Zm1,4.4-.2-.5-.3.3Zm-4,5.2.3-.5-.6.1Zm2.7-1.1.4-.2-.4-.3Zm-3.1-2.2-.1-.4-.4.3.5.1Zm3.5,10.6.5.2-.1-.6-.4.4Zm2.2-2.2.3-.4-.5-.1Zm-4-.6-.2.5.5-.1Zm8.6-9v-.5l-.4.2Zm1-11.1.7-.4-.8-.6Zm-.4-4.9-.1-.7-.6.5.7.2Zm-4.1,4.3h-.7l.3.7Zm-3.9,5.7v.9l.7-.4Zm-4.9,0-.3,1.8,1.5-.8Zm-.7,3-.3,1.7,1.5-.8Zm-.3,3v2.3l1.8-1.4-1.8-.9Zm4.3-9-.3,1.7,1.5-.8Zm-.7,5.5-.2-1.7-1.3.8Zm3.1-7.1,1.5.9-.2-1.7Zm9.1-6.2.8.1-.4-.9-.4.8Zm2.4-1.5.3.6.3-.6Zm-5.8,5v.1l.6-.5-.3-.2-.3-.1v.1h-.3l.3.6Zm1.5-4.4-1.3-.9.1,1.5Zm1.3,2.7.6-.3-.6-.5Z" fill="#ffc1a6"/>
      <path id="Path_16232" data-name="Path 16232" d="M146.7,150.4l.6-.3-.6-.4Zm5.3,1.1.6-.3-.6-.4Zm5.7-9-.5.4.6.1Zm-6.1,2.9.3.6.3-.6Zm-11.8,18.7-.4-.8-.5.6Zm2.4,4,.3-.7-.8.2Zm1.5-6.9v.8l.6-.3Zm-1,2.1-.5.7.9.2Zm2.4,4.3.4.5.3-.7ZM147,162l.6-.3-.6-.5Zm-.9,1.4.7.6.2-.8Zm-3.8-1.9.6-.5-.6-.3Zm.7,6,.8.2-.3-.7Zm-1.6,6.4.9.2-.4-.8Zm3.7,3.4-.7.2.4.5Zm1.1-5.4.6-.3-.6-.5Z" fill="#ffc1a6"/>
      <path id="Path_16233" data-name="Path 16233" d="M142.9,178l.9.2-.4-.8Zm3.3,4.1.3-.7-.7.2Zm1.5-6.1.6-.3-.6-.5Zm-5.9-10.2-.4.7.9.1Zm-.7-6.3-.4.7.9.1Zm.8,12.3.9.1-.5-.8Zm2.6,8.4.7-.6-.9-.2Zm-4.2-28.7-.5,1.4,1.7-.2Zm4.6,18.9.3-.7-.7.2Zm1.8-6.5-.6-.5v.8Zm-.5-10.3-.7.3.7.6v-.9Zm2.9-4.7.1-.9-.8.3.7.6Zm-5.5,9.4-.7.3.7.6v-.9Zm-3.4,8.7.9-.1-.6-.6-.3.7Zm12.6-25.4.9-.1-.6-.6-.1.3-.3-.7-.5.8.7.1-.1.2Zm-6.7,17.5.6-.4-.7-.2.1.6Zm4.5-4.4.7.1-.3-.7-.4.6Z" fill="#ffc1a6"/>
    </g>
    <g id="Group_1257" data-name="Group 1257">
      <path id="Path_16234" data-name="Path 16234" d="M178.4,150.4l.8-.1-.3-.6-.5.7Zm-3.6,1.1.1-.7-.6.1.5.6Zm4.7,3.1-.6-.3v.6Zm-6.8,0-.3.4.5-.1-.2-.3Zm-2.4.7-.4.1.3.3.1-.4Zm2.8,2.3-.4-.2v.4Zm7.9-13.4.8-.1-.4-.6-.4.7Zm2.2,1.1-.8-1.5-.8,1.5Zm-14.1,24.6H169l.3.4v-.1l.4.7.8-1.5-1.7.1.3.4Zm-3.2,7.5.7-1.3h-1.4Zm2.4,2.8-1.1.8,1.3.6-.2-1.4Zm.1-1.5-.2-1.4-1.1.9Zm0,15.4,1,.4-.1-1Zm-4.1-18.2-.7.6.9.3-.2-.9Zm.2,3.5-.2-1-.8.6Zm.2,5.1.5-.8-1-.1.5.9Z" fill="#a84d3b"/>
      <path id="Path_16235" data-name="Path 16235" d="M166.5,182.8l-.3-.9-.7.7Zm1.2,7.4.2,1,.7-.7Zm0-4,.5-.8-1-.1.5.9Zm-1.6,1.7.5-.7-.9-.1Zm-2.5-5.7-.9-.1.4.8Zm-.1-7.9.4.9.5-.8-.9-.1Zm0-4.7-1-.1.4.9.6-.8Zm3,5.5.4.9.5-.8-.9-.1Zm2-3.7,1,.3-.2-.9-.8.6Zm-2.5.1-.8.6,1,.3-.2-.9Zm3.8-4.3-.9.8,1.1.4-.2-1.2Zm-1-1.8.1,1.2,1-.7Zm-2.8.3-.9-.4.1.9.8-.5Zm1.5-.9.8-.5-.9-.4.1.9Zm-1,5.3v.9l.8-.5Zm4.5-3.2,1.1.4-.3-1.2Zm-3,1.7-.2-1.2-.9.8,1.1.4Zm19.4-16.3-.8-1.5-.8,1.4Zm1.6,2.8-.8-1.5-.9,1.4Zm-7.8,6.4,1.4-1-1.5-.7Zm-6,3.3,1.2-.8-1.3-.6.1,1.4Zm6.4-7.8-.1-.2-.1.1-.6-.3.1,1.5,1.2-.9-.5-.2Zm2.4-1.7-1.1-.6v-.4l-.3.2.2.2.1,1.5.5-.4,1.3,1,.2-1.7-1.4.6.5-.4Zm1.5,4.4,1.3-.6-1.1-.9Zm3.8-3.1.1,1.6,1.4-.4-1.5-1.2Zm-1.5,1.6.2-1.4-1.3.6,1.1.8Zm-8.5-20.1-.9,1.4,1.6.1-.7-1.5Zm-2.2-3.6-.8-1.5-.9,1.4Zm-.2,3.2,1.2-1.2-1.6-.5.4,1.7Zm-3.5,3.6.9-.9L173,140l.4,1.3Zm1-11.7-1.3-.4.4,1.3.9-.9Zm-2.3,7.9.8-.7-1.1-.3Zm2.1-4.4-1.1-.3.3,1.1Zm.4,5.7.8-.8-1.1-.3Zm.4,6.7.3,1.1.8-.8Zm3.7,2.9-.8.7-.4-.5-.5,1.1,1.2-.1-.3-.4.9.3-.1-1.1Zm-2,3.1-.9.7,1.1.4-.2-1.1Zm3.2,5.6-.2-1.1-.8.5-.1-.6.1-.2h-.1l-.1-.6-1.1.9,1.3.5-.3.2.7.2h-.2l.3.8.4-.6h.1Zm-1.4,2.2-1.1.7,1.3.4-.2-1.1Zm-3.1-4.1-1.1.7,1.3.4-.2-1.1Zm-3.8-10.6-.9.6,1.1.3-.2-.9Zm-3,1.4-.9.6,1.1.3-.2-.9Zm4.9,11.7,1.1.3-.2-.9-.9.6Zm2.1,5.1,1.1.3-.2-.9-.9.6Zm-3.4,2.8,1.1.3-.2-.9-.9.6Zm.9-2.7,1.1.3-.2-.9-.9.6Zm.3.6-.1,1.1.2-.1v.1l.5-.1-.1-.1.4-.3-.9-.6Zm4.7-.7.9-.6-.8-.5-.1,1.1Zm-6.2-.9.3-1.1-.9.2.6.9Zm.5-4.1-.9.2.6.9.3-1.1Zm-3.9.2-.7.1.5.7Zm.7,3-.2.7.8-.1-.6-.6Zm3.4-5.5-.2.7h.8Zm7.3-2.4-.2.7.8-.1-.6-.6Zm-2.2-8.8,1.1-1.1-1.6-.5Zm1.9-3.2.8-.8-1.2-.3Zm1.3,2.1.8-.8-1.2-.3ZM183,147l.9-.8-1.2-.3Zm-7.1-14.7-.6-1-.6,1.1,1.2-.1Zm-1.2,3h1.2l-.6-1.1-.6,1.1Zm1.4,8.8.4,1.1.8-.9-1.2-.2Zm5.2,6.3.8-.9-1.2-.2.4,1.1Zm3.7-.5.4,1.1.2.4.4-.5-.4-.1.6-.7Zm-.1,2.3-.5,1.1,1.2-.1Z" fill="#a84d3b"/>
      <path id="Path_16236" data-name="Path 16236" d="M187,156.3l1.2-.1-.7-1Zm-5.8-3.7-.5,1.1,1.2-.1Zm.7-1.4-.5,1.1.7-.1-.2.1.4.4v-.5h.2l-.6-1Zm-.9-4.9-.4.4-.6-1.1-.6,1.1h1.2l-.4.4,1.2.3-.4-1.1Zm1.9,2.1.3,1.1.8-.7-.1.2,1.6.1-.8-1.5-.7,1.2-1.1-.4Zm-2.7-5.6-.6.2.5.5Zm4.3,6.3v.6l.6-.3Zm-16.6-17-.1.8.7-.4-.6-.4Zm-3.1,2.7-.5.4.6.3Zm5.3,2.1.4-.6h-.7Zm-7.5.2-.5.7.8-.1-.3-.6Zm-4,1.1-.6.2.5.5Zm4,4.1.6-.3-.6-.3Zm8.1-1.2.4-.5-.8-.2.4.7Zm-2.6-3.7.7-.1-.4-.5Zm-1.3,5.4v-.7l-.6.2Zm11.3-1.9.5-.6-.8-.2Zm-2.7-3.7.7-.1-.3-.5Zm-1.2,4.7-.5.2.5.5Zm-1.3-7.1-.6.6.7.3-.1-.9Zm1.5-3.2.4-.5-.8-.1.4.6Zm-4.6-.1-.3.6.6-.2-.3-.4Zm-2.2,7.9-.5-.1.2.5Zm-1.8-2.4-.2.4.4-.1-.2-.3Zm-1,3.4-.4.1.3.3.1-.4Zm-5.5,2.5.1.4.4-.3-.5-.1Zm3,.3-.2.4h.4Zm-2.1-2.9.3.3.1-.4-.4.1Zm-3.6,8.1-.5-.1.1.4.4-.3Zm2.2.6.4.1-.2-.4-.2.3Zm-1.5-3,.1-.4-.4.1.3.3Zm4.2-7.3.4-.3-.5-.1.1.4Z" fill="#a84d3b"/>
      <path id="Path_16237" data-name="Path 16237" d="M164.3,138.6l-.2.4h.4Zm-1.6-3h-.4l.3.3.1-.3Zm9.6,13.2.1.4.4-.3-.5-.1Zm2.9.3-.2.4h.4Zm-1.6-3-.5.1.3.3.2-.4Zm-11.2,14.5-.4-.1.1.4.3-.3Zm3.7-1.5-.2.3h.3Zm-2.8-2.3.3.2.1-.3-.4.1Zm2.2-4,.2-.6-.6.2.4.4Zm3.1-5,.4-.3-.5-.3Zm-4.9-.6-.2-.4-.4.4h.6ZM170,154l-.4.2.3.3.1-.5Zm2.1-3.7.1.4.3-.2-.4-.2Zm-3.7-.3-.3.3h.4l-.1-.3Zm3.7,9.8-.4-.2.1.4.3-.2Zm-4.8-.3h.4l-.1-.4-.3.4Zm-7.5,8.7.3-.2-.4-.2.1.4Zm5.3-4.7.4.2.1-.4Zm-2.9,3.3.3-.3-.4-.1.1.4Zm-.6,2.9.3.1-.1-.3Zm-1.2,3.2.2-.3h-.3Zm15.8-23-.5.2.3.3Zm2.3-4.1.1.4.3-.2-.4-.2Zm-4,0-.1-.4-.3.3.4.1Zm-16.3,21.4.1-.5-.5.2Zm2.5-4.3.3-.2-.4-.2.1.4Zm-4.5-.4.4.1-.1-.4-.3.3Zm19.6-15,.4-.2-.4-.3Zm-2.3-4.2-.1-.4-.4.3.5.1Zm-2.5,3.4.2.4.2-.4Zm-.5,2.5v.6l.5-.2-.5-.4Zm-3.3-4.6.5.1-.1-.5Z" fill="#a84d3b"/>
      <path id="Path_16238" data-name="Path 16238" d="M164.9,149.4l.3-.5h-.5Zm6.1,1.9-.1-.5-.4.3Zm-5.1,1,.2.4.2-.4Zm3.2,3-.1.3h.4l-.3-.3Zm.8-17.7h.7l-.4-.7Zm1.9-4.5-.7.1.5.4Zm-5.6,1.8v.7l.5-.4Zm7.3-1.1.6.4.1-.8-.7.4Zm-1.7-4.3-.4.6h.7Zm11.6,18.8.5-.1-.3-.4Zm-3.9.7.5.2v-.7Zm2.5-2.5.3-.4-.6-.1Zm-4.8-.1.5-.2-.3-.4-.2.6Zm5.2,2-.3-.6-.3.6Zm-3.7-1.6.4-.3-.4-.2Zm3.4,7.1-.5.4.5.3Zm2.3-1.7.3-.4-.5-.2.2.6Zm-4.2-.9-.3-.4-.3.5Zm6.5,5.3-.5.4.5.3Zm-.2-4.2.2.5.2.7.9-.8-.7-.2-.6-.2Zm-7.4-7.6h.6l-.3-.6Zm1.5-3.3.1-.5-.6.1Zm-4.6,1.6.4-.3-.4-.2Zm.8-4.3h.6l-.3-.6Zm-.2-3.9-.6.1.4.4.2-.5Zm-2.9,2.3.5-.3-.4-.2Zm3.5,4.5-.3-.6-.3.6Zm.8-3.3.1-.5-.5.1Zm-4,1.3-.4-.3v.6Zm11.9,14.2.3.8.4-.7Zm-1.7,4.4.7-.1-.5-.5Zm4.5-1.8.5.4.1-.7Z" fill="#a84d3b"/>
      <path id="Path_16239" data-name="Path 16239" d="M182.9,150.7l.7-.1-.5-.5Zm-11.1-11.5.4-.7-.7-.1Zm-1.8,3.1-.2.5.7-.1Zm5.7-1.4-.6.3.5.4Zm8.3,13.8.4-.7h.4l-.3-.4-.2.4-.5-.1.2.8Zm-8.2,4.9-.7-.1.3.8Zm-5.7,4.8-.5.5.8.3Zm12.9-7.5-.5.5.8.3Zm-5.4,3.9-.2.6.7-.1Zm5.6-.7.1-.7-.6.3Zm-7.7-20.2-.7-.1.3.8Zm-2.2,3.7-.2.5.7-.1Zm5.6-.6.1-.7-.6.3Zm-4.4,10.2-.5.5.8.2Zm1.7,4,.3.5.3-.6Zm2.3-5.4-.1.7.6-.2Zm-2.2,3.5-.2.7.8-.1-.6-.6Zm3.8,3.1v-.7l-.6.4Zm-.1-5.9-.6-.2.2.6.4-.4Zm-13,19.4-.4-.2.1.5.3-.3Zm-1.6,2.4-.5-.1.1.5Zm2.4-1.7-.4.2.4.3Zm-.7,3.8-.2.4.4-.1-.2-.3Zm4.2-14.6.1.5.4-.4Zm2.6-1.3.4.3v-.5Zm6.6-4.4.4-.3-.5-.1.1.4Zm1.6,1.9.4-.1-.2-.3-.2.4Zm-5.4,4.4h.5l-.2-.5Zm-.5-2.8.4-.3-.4-.1v.4Zm3.7,1.7v-.5l-.4.2ZM165,172.9l-.3-.1.2.3Zm-1.8-.4v-.3l-.2.2Z" fill="#a84d3b"/>
      <path id="Path_16240" data-name="Path 16240" d="M165,171.1l.3-.1-.3-.2Zm5.4-1.9.2-.3-.3-.1.1.4Zm-1.8-1-.2.2.3.1Zm1.9-1.1.3-.1-.3-.2Zm-3.1,20.6.2.3.2-.3Zm-2.5-2.1.3.1v-.3Zm2.9-.9.3-.1-.2-.1-.1.2Zm-1.6-1.1.4-.1-.3-.4-.1.5Zm-.5-4.5.2.3.2-.3Zm-3.6,5.2.4-.1-.3-.4-.1.5Zm-.5-4.2.2-.3h-.4Zm3.4,1.1.3.1-.1-.4-.2.3Zm-1.4,13.9.5-.1-.4-.4Zm-.5-5,.2-.4h-.4Zm3.9,1.4.4.2-.1-.4-.3.2Zm-8.1-12.6.3-.1-.2-.3-.1.4Z" fill="#a84d3b"/>
      <path id="Path_16241" data-name="Path 16241" d="M158.6,175.5l.2-.2h-.3Zm2.8.8-.2.2.3.1ZM179,159.4l.3-.1-.2-.3-.1.4Zm-19.1,17.7.2-.3-.4.1Zm2.9-2.1-.1.2.3.1Zm.1,3.3.2-.2-.3-.1Zm1.7-8.2.4.2v-.5Zm.8-2.8-.3-.3-.1.4.4-.1Zm1.7,2.4.2.4.2-.4Zm2.7-6.4-.5-.2v.6l.5-.4Zm-6.8,9.9-.4.2.4.2Zm6.4-8.8-.4.4.6.1-.2-.5Zm2,.6.2-.6-.5.1Zm-4.7,1.7.3-.2-.4-.2.1.4Zm.4-3.9.2-.5-.5.2Z" fill="#a84d3b"/>
    </g>
    <path id="Path_16242" data-name="Path 16242" d="M190.2,206.2a4.253,4.253,0,0,1-.2,1.1v.1a2.034,2.034,0,0,1-.1.5v.1h80.8l-6.1-65.8c-2-11.8-13.3-43-37.9-42.2-4.1.1-8.1.3-12.1,2.8-.1,0-2.2,1.6-2.5,1.8-1.7,1.4-7.6,8.2-12.4,34.5-2,11.7-9.5,67.1-9.5,67.1Z" fill="url(#linear-gradient-8)"/>
    <path id="Path_16243" data-name="Path 16243" d="M211,124l7.3,52.9s10.7,0,14.2,10a171.721,171.721,0,0,1,5.4,20.9l33,.1-2.4-28.5Z" fill="url(#linear-gradient-9)"/>
    <path id="Path_16244" data-name="Path 16244" d="M236.8,160.4s8.3,15.6,19.9,27.2,14.6,12,21.5,12.5c7.9.5,16-3.5,28.3-10.8s36.1-22.8,36.1-22.8a40.656,40.656,0,0,0,11.9-8.7c5.2-5.7,5.3-6.8,5.9-7.7s-1.1-1.4-1.1-1.4,1.7-1.7,1.1-2.9-2-.5-2-.5.2-1.6-.4-2.2-2.9.6-5.1,2c-1.8,1.2-7.1,3.1-8,3.6s1.4-2,2.4-3.3c1.1-1.4.6-3.5-1.8-1.5s-4.7,3.3-5.3,3.9a44.87,44.87,0,0,0-2.9,3.5l-.9,1.2s-.6.9-3.6,2.1c-5,2-29.2,9.8-38.9,12-4.8,1.1-11.7-.8-15.2-4.7s-19.5-28.1-19.5-28.1l-22.4,26.6Z" fill="#ea9d7d"/>
    <path id="Path_16245" data-name="Path 16245" d="M256,186.9s11.1,12.1,18.4,13c6.1.7,11.3.1,18.6-3.2,5.5-2.5,12.2-6.6,21.7-12.4,7.4-4.5,12.9-8.2,17-10.8l10.9-7,6.2-3.6c2.7-1.6,8.8-8.2,10.2-10.4,1.3-2.2-6.6,2.3-12.1,5.1s-34.8,13.5-52,20.4c-13.9,5.6-24.5,14.1-38.9,8.9Z" fill="url(#linear-gradient-10)"/>
    <path id="Path_16246" data-name="Path 16246" d="M256,186.9s.6-10.5,7.9-18.4,12.8-8.9,12.8-8.9l-12.1-17.4-27,20.1c0-.1,10.5,17.6,18.4,24.6Z" fill="url(#linear-gradient-11)"/>
    <path id="Path_16247" data-name="Path 16247" d="M327.5,156.4s1.8,4.7,1.4,4.9c-1.2.8-3.1,5-.8,8.1a5.63,5.63,0,0,0,6.4,1.9l2.7-1.6-8.1-14.3-1.6,1Z" fill="url(#linear-gradient-12)"/>
    <path id="Path_16248" data-name="Path 16248" d="M333,154.3s1.8,3.2,2.2,3.1c1.4-.5,5.6.4,7,3.9,1.6,3.9-.7,5.9-.7,5.9l-2.7,1.5-8-13.4Z" fill="url(#linear-gradient-13)"/>
    <g id="Group_1258" data-name="Group 1258">
      <path id="Path_16249" data-name="Path 16249" d="M353.6,153.5c-.1,0-.2-.1-.3-.2a.471.471,0,0,1,.1-.6l5.7-4.4c.8-.6,1.4-1.6,1-2.4a.664.664,0,0,0-.5-.4c-.3-.1-.8.2-1,.3a.481.481,0,0,1-.6-.2.365.365,0,0,1,.2-.5,1.631,1.631,0,0,1,1.6-.4,1.347,1.347,0,0,1,1.1.9c.7,1.5-.8,2.9-1.3,3.5h0l-5.7,4.4h-.3Z" fill="#cc7a5e"/>
      <path id="Path_16250" data-name="Path 16250" d="M332,155.3a.758.758,0,0,1-.4-.2.481.481,0,0,1,.2-.6l4.3-2.3a9.378,9.378,0,0,1,3.2-4.2l6.7-5c1.2-.7,1.8-.5,2.1-.2a.85.85,0,0,1,.3.5c.1.9-1,2.6-2.8,4.8a63.6,63.6,0,0,0,7.5-3.4l.6-.3c2.5-1.5,3-1.7,4-1.5a1.61,1.61,0,0,1,1.1.8,2.866,2.866,0,0,1,0,1.9c0,.1-.1.1-.2.2l-7.3,4.8c-.2.1-.5.1-.6-.1s-.1-.5.1-.6l7.2-4.7a1.4,1.4,0,0,0,0-1.1.55.55,0,0,0-.5-.3c-.7-.1-.9,0-3.5,1.4l-.6.3a78.9,78.9,0,0,1-9.3,4.1.365.365,0,0,1-.5-.2.446.446,0,0,1,0-.5c3-3.2,3.8-5,3.8-5.4-.1-.1-.4-.2-1.1.3q-3.415,2.344-6.6,5a8.029,8.029,0,0,0-2.9,4c0,.1-.1.2-.2.3l-4.4,2.4c-.1-.2-.2-.2-.2-.2Z" fill="#cc7a5e"/>
      <path id="Path_16251" data-name="Path 16251" d="M292.2,167.8c-.2,0-.3-.1-.4-.3a.382.382,0,0,1,.3-.5c.3-.1,24.9-7.3,29.4-8.9,4.4-1.5,10.7-3.9,10.8-3.9.2-.1.5,0,.5.2.1.2,0,.5-.2.5-.1,0-6.4,2.4-10.9,4-4.5,1.5-29.2,8.8-29.5,8.9h0Z" fill="#cc7a5e"/>
    </g>
    <path id="Path_16252" data-name="Path 16252" d="M240.2,166.7s9.9,14.6,15.8,20.2c5.6,5.6,9.6,9.6,14.4,11.7a20.4,20.4,0,0,0,9.8,1.5,29.121,29.121,0,0,0,11.7-3.1c4.6-2.4,5.3-2.5,5.3-2.5s-23.7-6.5-34.6-17.8c-10.9-11.4-13.2-18.6-13.2-18.6s-13.7,2.6-9.2,8.6Z" fill="url(#linear-gradient-14)"/>
    <path id="Path_16253" data-name="Path 16253" d="M230.4,172.2S219,153,214.8,139.6c-4.3-13.5-8.7-27.5,6.9-36.4,15.6-9,28.4,7.3,35.3,17.3s16.1,25.1,16.1,25.1l-42.7,26.6Z" fill="url(#linear-gradient-15)"/>
    <path id="Path_16254" data-name="Path 16254" d="M216.9,106.8s2.3,13.4,14.5,28.3A58.684,58.684,0,0,0,259.2,154l-28.8,18.2s-10.2-18.2-13.9-27.9-5.9-19-4.8-26.8c1.2-7.8,5.2-10.7,5.2-10.7Z" fill="url(#linear-gradient-16)"/>
    <path id="Path_16255" data-name="Path 16255" d="M230.4,172.8a.55.55,0,0,1-.5-.3.54.54,0,0,1,.2-.8l42.1-26.4a.583.583,0,1,1,.6,1l-42.1,26.4a.367.367,0,0,1-.3.1Z" fill="#51347a"/>
    <path id="Path_16256" data-name="Path 16256" d="M230,172.6c-.1-.2-13-23.4-17.6-39.5-4.3-15.1,1.2-22.9,1.4-23.3l.8-.9c.3-.1-.1.4-.2.7h0c-.1.1-5.5,8.6-1.3,23.3,4.6,16,17.3,38.7,17.5,38.9l-.6.8Z" fill="url(#linear-gradient-17)"/>
    <g id="Group_1259" data-name="Group 1259">
      <path id="Path_16257" data-name="Path 16257" d="M307.6,164.6l.3-.4-.4-.1Zm-21.3,2.5-.6-.1.2.5Zm1.4.3h-.6l.2.5Zm-9.5-4.7.4-.4-.6-.1Zm3.2,2.6.4-.4-.6-.1Zm6.8,3.7-.1.4.4-.2Zm2.6,1.6.4-.2-.4-.4v.6Zm-1.8-2.2.2-.4-.5.1.3.3Zm3.9.3.4.1-.2-.4-.2.3Zm-15.5-1.9.4-.2-.4-.4v.6Zm-1.8-2.2.2-.4-.5.1.3.3Zm3.6-.5.5.1-.2-.4-.3.3Zm-2.8-2.9.5.2-.1-.5Zm-2.5,1.4.4-.2-.4-.3Zm1.1-3.8.2-.4-.5.1.3.3Zm15.7,8.8v.4l.3-.1-.3-.3Zm-1.2,3.4.3-.2-.3-.1Zm0,1.9v-.3l-.3.1Zm-2-1.8h.3l-.2-.3-.1.3Zm30.1-10.4v-.3l-.3.1Zm-33.1,5.7.3-.2-.3-.1Zm-.2,1.7.2.2.1-.3-.3.1Zm19.3-3v.3l.3-.2Zm-1.6,2.5v-.3l-.3.1Zm-1.1-1.2-.1-.3-.1.1.1-.9-1.3.5,1.1,1.2.1-.5.2-.1Zm-1.7,1.1-.2.3h.4l-.2-.3Zm-3.3,1.4.2-.2-.3-.1.1.3Zm4.9,1.2h.4l-.2-.3-.2.3Zm-3.7,2,.2-.2-.3-.1.1.3Zm.6-2.9v-.3l-.3.2Zm10.5-2.7h.4l-.1-.3Zm-3,.6.2-.2-.3-.1.1.3Zm.5-2.4v-.3l-.3.1Zm8.1,1.6h.4l-.2-.3-.2.3Zm-2.6,1.4.2-.2-.3-.1.1.3Zm.6-3v-.3l-.3.1Zm1.2-1.3h-.4l.3.3Zm0,4.9.2-.2-.4-.1.2.3Zm-2.1-2.7v-.3l-.2.2Zm2.9-.9-.1.2h.3l-.2-.2Zm-14.5,6.1h.4l-.2-.3-.2.3Zm-5.6,3.2.2-.2-.3-.1.1.3Zm0-3.2-.3.2.2.1.1-.3Zm-20.5-11.1h.4l-.2-.3-.2.3Zm.5-2.7.1.3.2-.2-.3-.1Zm-.7-1.6.1.3.2-.2-.3-.1Zm22.7,18.3.2-.3-.4-.1.2.4Zm-3.4-1.1v-.3l-.2.2Zm2.7-.9.3-.1-.2-.2-.1.3Zm1.8-1.3.2-.2-.4-.1.2.3Zm-1.8-2.2v-.3l-.2.2Zm2.3-1.4v.3l.3-.1Zm2-.9-.3.3.3.1v-.4Zm3.1-.2.1.3.1-.3h-.1l.2-.8-.9.1.6.7Zm-15.5,6,.1-.4-.5.1.4.3Zm-3.2,0h.4l-.2-.3-.2.3Zm2.3-2.4.4-.2-.5-.1Zm-6.9-.8.5-.2-.5-.3Zm11.4,4.6.2-.5-.4.1.2.4Zm34-14.2-.3-.5-.2.4.3-.8-1.3.4.9.7.1-.3.5.1Zm1.8.3.3-.4-.4-.1Zm-2.8,2.4v-.4l-.4.2Zm-9.3.4.5-.2-.5-.3Zm-2.5.6-.1.5.5-.2Z" fill="#ffb7a4"/>
      <path id="Path_16258" data-name="Path 16258" d="M308.8,163l1.1,1.2.2-1.6-1.3.4Zm5.7-1.8,1.2.7.6-1.2-1.8.5Zm5.9-1.9,1.2.7.6-1.2-1.8.5Zm-13.8,5.8.2-1.6-1.3.5,1.1,1.1Zm-12.3,3.7.4-1.6-1.4.3Zm-4.8-1.9.6,1.5.8-1.4Zm-6.2-1.6.1,1.6,1.2-1.1-1.3-.5Zm-3.1-1.9-.3,1.6,1.5-.7-1.2-.9Zm11,4.7.3,1,.7-.9Zm-2.1,1-.7.8h1.2Zm-2.9-.2h1.1l-.4-.9Zm-2.2,0h1.1l-.4-.9Zm18.3-2,1-.2-.8-.7Zm-1.3,1.7.7-.2-.6-.5Zm4.1-.3.1-.7-.7.4Zm9-4.4-.7.4.6.4.1-.8Zm-3.3-.8-.7.5.7.4v-.9l.1.1.1-.8-.7.4Zm9.2-3.7-.7.4.6.4.1-.8Zm-11.5,3.8-.7.4.6.4.1-.8Zm-1.8,3,.1-.7-.7.4Zm-2.1-1.9-.2.9,1-.2Zm3.4,1.3,1-.2-.8-.7ZM296.1,168l.4-1-1,.4Zm-7.2-1-1,.3.7.6.3-.9Zm-4,.8.3-1-1,.4Zm-2.3-1.2h.2l-.2-.3v.3l-.3-.3-.1,1.1.9-.3Zm14.9,1.9.8-.1-.5-.7Zm18-4.6.1-.9-.7.5Zm-3.5.5.7-.3-.7-.6v.9Zm.3-2.5v.9l.7-.4Zm-7.5,3.7-.9.1.6.6.3-.7Zm-4.6,1.9.2-.8-.9.1.7.7Zm13.5-5.9-.7.5.7.4Zm6.3-1.3-1,.7.9.5Zm6.2-2,.4-1.1-1.4.4,1,.7Zm-9,2-.7.5.7.4ZM298,167l.8-.1-.5-.7Zm18.2-4.3.2-.4-.4.1.2.3Zm-1.1,2.4h.5l-.2-.4Zm12.2-7.8.1.5.3-.4Zm-2.7,2.9v-.4l-.4.2Zm-3.8.5.3-.4-.4-.1Zm-3.3,1.6v-.4l-.4.2Zm1.1-2,.3.4.2-.5Zm-.9,3.5h.5l-.2-.4Zm-36.9,4.7v-.6l-.4.3Zm-.9-2.6.2.5.4-.4Zm2.7,4.5.5-.1-.3-.3-.2.4Zm-3.6.6.2-.4-.5-.1Zm42.9-11.2.3.5.2-.5Zm.4,2.7.5.1-.1-.4-.4.3Zm-2.5-.5.4-.2-.4-.3Z" fill="#ffb7a4"/>
    </g>
    <path id="Path_16259" data-name="Path 16259" d="M327.7,156.6l8.7,15a1.081,1.081,0,0,0,1.6.4l2.4-1.4a1.081,1.081,0,0,0,.4-1.6l-8.5-14.7a1.24,1.24,0,0,0-1.5-.5l-2.6,1.1A1.282,1.282,0,0,0,327.7,156.6Z" fill="#283749"/>
    <path id="Path_16260" data-name="Path 16260" d="M330.7,161.7l-2.2-3.8,4.5-2.7,2.6,4.4Z" fill="url(#linear-gradient-18)"/>
    <path id="Path_16261" data-name="Path 16261" d="M339.8,167l1.2,2-4.5,2.7-1.2-2.2Z" fill="url(#linear-gradient-19)"/>
    <path id="Path_16262" data-name="Path 16262" d="M335.1,170a6,6,0,1,0-6-6A6,6,0,0,0,335.1,170Z" fill="#283749"/>
    <g id="Group_1260" data-name="Group 1260">
      <path id="Path_16263" data-name="Path 16263" d="M335.1,165.3a1.2,1.2,0,1,0-1.2-1.2A1.153,1.153,0,0,0,335.1,165.3Z" fill="#445a6b"/>
      <path id="Path_16264" data-name="Path 16264" d="M337.4,165.4h-.1l-2.9-1.3,3.7-2.5c.2-.1.4-.1.5.1s.1.4-.1.5l-2.6,1.7,1.7.7a.365.365,0,0,1,.2.5c-.1.2-.2.3-.4.3Z" fill="#445a6b"/>
    </g>
    <g id="Group_1261" data-name="Group 1261">
      <path id="Path_16265" data-name="Path 16265" d="M205.8,144.3l.9-.7-1.2-.3Zm-7.6,28.8,1,.3-.2-1.2Zm8.9-4.7-.9.8,1,.4ZM205,130.2l-.6.1.4.6.2-.7Zm-3.2,22.9-1.2-.3.2,1Zm9.4-8.2-.5.3.5.4Zm-.3,6.2h.5l-.2-.5Zm-.2-2.7-.4-.1.1.4.3-.3Zm2.7,1.3.3.2v-.4Zm-6.8-15.4h-.7l.3.6-.2.4.9-.1-.4-.7.1-.2Zm-1.7-6.6v-.8l-.7.5Zm4.5-.7h-.6l.3.6Zm-5.2,41.9-.6.1.3.6.3-.7Zm-6.2-.1-.3.8h.7Zm8.2-7.2-.7-.2.1.6.6-.4Zm-5.2,13-.5-1.3.3-.4-.9-.3.4,1-.2.3-.1-.2-.4.7h.3l-.1.1,1.2.1Zm2.2-2.5-.7-.2.1.6.6-.4Zm.1-8.6.4.4.2-.4h-.6Zm-.2-2.5.4-.2-.4-.1Zm-.2-5.5V155l-.4.2Zm3.2-5.5.1-.5-.4.2.3.3Zm1.6,1.6-.2.4.5-.1-.3-.3Zm-5.8-1.6.4-.1-.2-.3-.2.4Zm9.5,5.9.4-.4-.4-.2v.6Zm-4.8.6.9.1-.3-.9-.4.5-.1-.1-.1.4Zm3.3,10.7-.3-.3-.1.4.4-.1Zm-1.6-4.2-.5.1.2.3.3-.4Zm-6.5,7.2H203l-.5-.9Zm-.6,2.6-.3.6h.4l.1.4.5-.5-.5-.2Zm-1,6,.1-.1.2.5.6-.7-.5-.1.4-.5-1.3-.4.3-.1-.6-.4-.1.8.4-.2.5,1.2Zm1.5-1.7-.5.3.4.2Zm-.9-10.4-.7.4.6.3.1-.7Z" fill="#be95f9"/>
      <path id="Path_16266" data-name="Path 16266" d="M203.5,149.2l-.3-.6-.4.5Zm1,5.4.5-.4-.5-.2v.6Zm-3.8-3.8-.4.5.7.2Zm2.8-10.8-.4.6.8.2-.4-.8Zm1.5,7.4.6-.5-.6-.3Zm-.9-6.7h.7l-.3-.7Zm1.3,2.3-.2-.1.1-.1-.9-.3.4.9.6-.4Zm-6.3,18.5.4-.7-.8.2.4.5Zm11.1-52h.6l-.9-1.7-.9,1.4,1.2.3Zm-2.9,6.2.6.8-.3.1.6.4.2-.8-.4.2.4-.8h-.2l.1-1.1.8.4-.3.2,1.3.8.3-1.7-1.4.8.1-1.2-.3.2-1.4-1.9-.9,1.9h1l-.1.4-.7.4.1.1-.4.3.9.5Zm.1-.1v-.3l.5.3Zm.8-1.2V114h.5Zm-.5-.3h.5l-.3.2Zm4.7-7.3-.3.6.7-.1Zm-3.8,14.4h.5l-.2-.3Zm-1.8,2.2-.8-.6.1,2.1,1.6-.9-.7-.6.1-.1-.3.1Zm1.2-.8-.4.4.6.2-.2-.6Zm-1.7,5.9-.5-.3v.7ZM198,190.2l-.2-1.2-.8.8Zm-.3-5.9,1,.3-.2-1.2Zm-.7,2.6.7-.2-.6-.4-.1.6Zm7.5,1.4-.8.1.6.6.2-.7Zm-4.4.1-.2-.6-.4.6h.6Zm5.1-5.9h-.8l.6.6Zm-4.3.2-.2-.6-.4.6h.6Zm4.4,15.2.3-.7-.8.1.5.6Zm-.9-5.1.1.6.6-.3-.7-.3Zm-.7,13.8.2-.7-.8.1.6.6Zm-.2-4.9-.7-.2.1.6.6-.4Zm-1.5,2.7.3-.7h-.8Zm-4.7-.6.6.1-.2-.6-.4.5Zm3.9-4.6.1.6.6-.4-.7-.2Zm-3.2-2.9-.1-.2-.4.7h.2l-.1.1,1.3.2-.5-1.4-.4.6Zm3-1.8-.7-.2.1.6.6-.4Zm-4.5-2.8.2.8.7-.6Z" fill="#be95f9"/>
      <path id="Path_16267" data-name="Path 16267" d="M199.5,191.1l-.4-.6-.4.7.8-.1Zm-7.3,14.4-.1-.6.6-.4-.7-.2v-.1l-.1.1-1.3-.4.3,1.8.5-.3.8.1Zm5.8-5.6-.1.1-.3-.1.3-.1-.6-.4-.1.5-.4.7.9-.1-.1.2h.3l.3.7.8-.9-.8-.2-.2-.4Zm-.4.2-.1-.2Zm.6-5.9.7-.1-.1-.1h.4l-.3-.5-.2.3-.1-.1-.4.5Zm1.3,5.3-.5.3.4.2Zm3.2-7.8-.5.7h1Zm-3.4,4.4.5-.5-.5-.2-.1-.2-.1.1-.3.4h.4l.1.4Zm-.6-7-.7.4.6.4.1-.8Zm2-35.4-.2-1.2.2.2.4-.7-.6.1V152l-.1.2h-.1l-1.1,1.1,1.5.4Zm4.7-.1,1.2-1.4-.3-.1.5-.1-.7-1.1-.5,1-1-.3.8,2ZM202.3,168l-2-.6.8,2Zm-1-2.3h.6l-.2.3.6.1-.2-.6-.1.2-.1-.1.5-.5-.9-.3.2.5-.4.4-1.6-.7v.1l-.1-.1-.1.6.2-.1v1.1l-.7.7,1,.3V167l1.4-1.2-.1-.1Zm3.1-8.7-.4.4-.5-.9-.2.5-.2-.1v.7l.1-.1h.7l-.8.8.3.1-.3.1.5.4v-.5l.9.3-.2-1.2.3-.1-.2-.4-.1.3.1-.3Zm1.2-6.8-.2-1.7-1.2,1.3ZM203,160.8l-.1-1.2-.9.8Zm-.2-6.5,1-.3-.9-.6-.1.9Z" fill="#be95f9"/>
      <path id="Path_16268" data-name="Path 16268" d="M209.1,159.8l-.2.1.4.2.3-1-.9.1.4.6Zm4.4-2.5.4-1-1.2.1Zm-1.3-7.5.1.9.8-.5-.9-.4Zm3.2,20.3.4-1-1.2.1Zm-6.3-1.7-.6.8.9.1-.3-.9Zm5.1-5.9.1.8.8-.5-.9-.3ZM213,183l.3-1-1.2.1Zm-.3-7.3-1-.3.1.9.9-.6Zm-1.7,3h-1.2l.4.5h-.7l.8.9.2-.5.1.1Zm-6.5-.2.3-.2-.4-.1-.1-.1v.1h-.1v.2l-.1.1-.6.8.9.1-.1-.4h.4l-.2-.5Zm4.9-6.4v.5l-.2-.1.1.9.9-.5-.5-.2.5-.3-.8-.3Zm-6.1,12.5.9-.5-.9-.8Zm4.3-6.4-.5.7,1,.2Zm-2.3-11.4-.7,1.1-.2-.3-.6,1h.5l-.1.1,1.9.3-.8-2.2Zm3.8-1.7-1-.3.1.9.9-.6Zm-10.3.4v-1l-.1.1.1-.3-.8.1.1.1-.5.1.5.4-.1.1.8.4Z" fill="#be95f9"/>
      <path id="Path_16269" data-name="Path 16269" d="M205.7,169.4l-.7.2-.2-.3-.3.4v-.2l-.3.3h-.1l-.9.9,1.5.4-.1-1,.8.7.3-1.4Zm-2-8.1-1.4-.3.1.4-.9.8,1,.4-.1-1.1.2.8,1.1-1Zm2.2-1.7-.7,1,1.2-.2Zm-5.6-2.1.1-1-.9.6.8.4Zm1.7,3.4-.9-1.4.7.3-.1-1.2-.8.7-.4-.6-.9,2.6,2.4-.4Zm-3.6,14.8,1-1.2h.3l-.1-.2.4-.5-2.6-.7,1,2.6Zm3.6-.6-1.7.3,1.1,1.7.6-2Zm-1.5-2.6.3-.7h.2l-.1-.2h.4l-.3-.4.2-.6-1.8.3,1.1,1.6Z" fill="#be95f9"/>
      <path id="Path_16270" data-name="Path 16270" d="M199,163.5l1.5.4-.1-.6.1.5.1-.1h.3l-.1-.2.5-.5v1.5l1.7-1.3-1.7-.7v.6l-1.1-.2v-.2h.6l-.4-.7-.3.6v-.2l-1.1,1.1Zm-1.6-.2h0l-.3.4,1.5.4-.2-1.4,1.4-.4-.6-.4v-.5l-.3.2-.8-.6,1-1.2-1.6-.5.7-.2-.1-.1.5-.1-.5.5,1.5.4-.1-1.1,1-.2-1.5-1.2.3-.3.1.3.9-.7-.5-.1.2-.3-.8-.2.3-.6,1.1-.3.3.7.6-.7.6.2-.2-.7.2-.2-1.9-.6.2.5h-.2l-1.1-.7v-.8l.1.1,1.2-1.3-1.6-.5.3-.1.2.2.2-.4,2.4-.7-.5-.3,1.2-1.4-.3-.1,1-1.3-.5-.1.5-.5-1.9-.6.3.8-.6-.2.1-.1-1.6-.5,1.7-.4-.5.3.6.4.1-.7,1.2-.3-1.7-1.4h.1l.6.2.1.1.3.1-.1-1.2-.1.1-.3.2.1-.4-1,.2.5.4-.1.1-.5-.4v.2l-.9-.7-.6,3.4.4-.1.4,1,.1.5.1.4.4-.5.3.2.1-.7.1-.1.6,1.4-.7-.2v-.2l-.4.2.4.4.6,1.7-1.5-1.1.2-.1-.5-.3v-1l-.8.6-.1-.1v.2l-.3,3.2.3-.1.6,1.5-.5.4-.7-.5-.4,3.5.8-.3.2.5-.3-.1.2.5-.8-.7-.6,3.4.4-.1v.1h.1l.6,1.4-1.2-.9-.5,3.4,1.8-.5-1.1.4Zm1.4-7.8.3.4-.8-.2Zm-.4,1.1.2.5-.4-.3Zm10.8-4.1-1.2.1.9.8.3-.9Zm-2.3-2-.2,1,.9-.4Z" fill="#be95f9"/>
      <path id="Path_16271" data-name="Path 16271" d="M211.3,153.4l-.5.8.9.1-.4-.9Zm-14.5,15-.1.5.2-.1.2.5.9-1,.8,1.9-.6.5.3.2H198l.5.5.2-.5.3.2v-.6l.4-.5.2.1v-.4l.8-1-.5-.2-.7-.5-.1.3-1-.3.1-.1-1-.3.4-.4,1.6-.4-1-.8.4-.1-.7-.5-.1.3-1.8-1.4-.5,3.4.8-.2.5.9Zm-1.2,4.9-.3.3,1,.3-.1-.8.3-.1.4.5.3-.7,1.1-.3-2-1.5h.8l-.6-1.2-.1.2v-.3l-.3.3v-1.1l-1,.8.4.2-.4.3v.1l-.3.2.2.1-.5,3,1.1-.3Zm.6-2.5-.2-.1Zm-.1-.7-.1.1V170l.1.1Zm9.8-6.6-.3.5-.1-.2-.5.8,1-.1-.2-.2h.6Zm2.2-2.6-1,1.4,1.7-.1-.7-1.3Zm-3.4,12.4-.1-.2-.1.1-.4-.1.4-.2-.9-.6-.1.6-.3-.4-.7,1.3h.2l-.6,1,1.5-.2-.6-.8,1-.1-.2-.3.3-.1.2.5-.3.5.5-.1.4.9,1.2-1.3-1.4-.5Zm2.2-.8-.7.5.7.4Zm4.7-11.5-.8,1.1,1.4-.1-.6-1Zm-5,6.5.7-.7-.7-.3-.1-.1.2-.5h-.8l.4.5-.4.6.6-.1Zm-1-10.4-1,.6.8.5Zm2.8-26.2v-1.8l-1.4,1.1Zm.2-.3.5,2.1,1.4-1.2-1.9-.9Zm-5.8.4,1.4-1.2-1.1-.5,1.7-.3.5,1.9,1.4-1.2L205,129l.6-.1-1.9-1.7-.1-.9-.5.4-.4-.3,3.3-.6.3,1.1-.9-.4.2-.3-.8.1.1.2.4,1.9,1.4-1.2-.3-.2,1.3-1.2-1.8-.8.1.2-1.9-1.7,1.1.3v-.3l.6-.1-.5-.4-.1.5-.2-1,2.5-.3-2.1-2.1.3-.2v.3l1.5-1-.2-.1.2-.5h.1v.2h-.1l.2.2.2,1-.7-.4.4,2.1,1.4-1.1-.3-.2,1.2-1.1-.4-.2.5-.4-.2-.1,1.3-.6-1.4-1.1-.4,1.4-.8-.4v.1h-.1l-1.9-2.5-1.4,3.2h.7l.1,1.3-.7-.2-.3-.3-.1.2-.9,3.1.5-.1-.4.4.3.1-.2.2-.2-.2-.7,3.4-.1-.1-.8,3.4.6-.1.2,1.2Zm5.2-12.6Zm-1.8,0ZM205,146.2l-2-.6.8,2Zm-1-3.4,1.7-1.3-1.7-.7Zm-1.5,2.6.6-.5h.8l-.2-.5.4-.3-1.7-.7.1,2Z" fill="#be95f9"/>
      <path id="Path_16272" data-name="Path 16272" d="M205.7,136.6l1.5.5-.2-1.7Zm4.1-7.3v-1.7l-1.4,1Zm-3.9,8.2-.9.8.4.1.5.5.1-.4h.1l-.2-1Zm-.2-5.3-.5-.4-.1.6.6-.2,1-.2-.9-.6-.1.8Zm6.5,5.9.3-1-.9.1.6.9Zm-1.3,5.9.8-.5-1-.4Zm-3.9,1.9-.6,1h.4l-.1.2h.3l-.2.4h.7l-.2-.4,1.3.2-.7-2.1-.6,1-.3-.3Zm-4.1,6,.3-.4.7.2.1.3.2-.2.2.1-.2-1.7-.9,1-.8-.3.1.2-1.9-.6.5,1.4-.1.1h.2l.1.4.3-.3h.1l.9-1,.2.8Z" fill="#be95f9"/>
      <path id="Path_16273" data-name="Path 16273" d="M206.6,148.1l1.2,1.1.4-1.4-1.6.3Zm-1.3-7.6,1-.9-1.4-.3Zm-4.6,16.8.5,1.2.1-.1.1.3,1.5-1.8-.6-.2.2-.2-.5-.3v.3l-1.6-.5.6,1.3Zm-2.6,29.5,1.6-1.4-1.7-.7.1,2.1Zm-1.7.8v2.1l1.7-1.3Zm3.5-6.8,1.5.5-.2-1.6.2-.2-.6-.2v.5l-.1.1-.4-.9-.4.9h.8Zm-1.1,2.1,1,.4v-1.2Zm.9-6,1-.3-.6-.4-.2-1.2-.8.9.7.2-.1.8Zm6.7,5.2.6.1-.3-1-.5.7-.7.1.5.8.4-.7Zm5.5,10.9.4-1-1.2.1Zm-6.3-1.9-.6.8.9.1-.3-.9Zm5.3-5.7.1.8.8-.5-.9-.3Zm-1.7,20.4.4-1-1.2.1Zm-6.3-1.9-.6.8.9.1-.3-.9Zm5.2-5.7.1.9.9-.5Zm-1.2,4.2.4-1h-1.2Zm-6.9-1,.9.1-.3-.9-.6.8Zm5.8-6.6.1.9.9-.5Zm-6.3,11.1-.1-.5-.4.6.5.1-.1,1,1-.4-.9-.8Zm-4.3-4.2-.8-.3.4,1.2.6-.6.2.3.4-.9-.8.3Zm8.1-.2,1,.2-.4-.9Zm-.8-10-.6-2.1-.6.9H201l-.1-.2-.6,1h.4l-.1.1,1.9.3Zm3.3-3.7-1-.4.1.9Zm-9.1,8.3.6-.7-.9-.3.3,1Zm5.5-4-1.1.2V192l-.3.3h-.1l-.4-.7-.7.9h.8l-.7.7,1.5.5-.1-1,.8.7.3-1.3Zm-2.8-7.4,1.1-.9-1.4-.3.3,1.2Zm3.1-2.8-.6,1,1.2-.1-.6-.9Zm-4.4,5.2.3.9.6-.7-.9-.2Zm-4.4,8.4,1,2.6.9-1,.1.2.8-.9-.2-.1Zm2.9,2.3,1,1.7.5-1.4.3.3.2-.9-.9.2v-.1l-.2.2h-.9Zm-.6-4.5.4.8-.4-.1.2.6.3-.3.5.8.7-2Zm-2.3-1.6.7-.8.2.1v-.3l.8,1.9-.7.4.8.4v-.6l1.4-1.7.2.1V191l.3-.1.3.9,1.2-1.4-2-.6.2.5H197v.1l-.6.5-1.7-.5.1-.1-.4-.1v-.4l-.3.3-.9-.3,3-.7-3.1-2.5-.6,3.4.4-.1.8,1.8Z" fill="#be95f9"/>
      <path id="Path_16274" data-name="Path 16274" d="M193.7,182.2l-.5,3.4,1.3-.3-.7.8v0l-.1.6.6-.3-.3-.2,1.1.3.2.5-.2.1.1-.4-1,.2.5.4-.1.1.8.4v-.6l.2.5.8-.9-1.2-.4-.2-1.3,1.5-.4.1.1-1,1,1.5.4-.2-1.2.1.1.1-1.6,1.4-.2-1.2-1.9.5.3.1.2.1-.1.5.3.1-.9.2-.2h-.1l.1-.8.4-.5.3.3.4-.9-.5.1.1-.1-.6-.3v.2l-1.7-.5-1-.7v-.2l.4-.5v.1l.3-.4.1.3.1-.1v.7l-.4.1.4.5.1.1.1-.3,2-1.5-1.7-.8.4-.5-.4-.1v-.5l-.6.3.1.1-1.1-.3-.1-1-.2.2-.5-.3-.1.7.5-.2-1.2,1.1.6.2.5.5.1-.3.2.1.2.4-1-.3.7,1.7-.8-.6h.4l-.2-.6-.3.5-.2-.2-.2,1.8-.2-.2-.6,3.4h.1l.4.9-.4-.4Zm1.5.6.8-.6.2.1v-.1l.1.2.6-.7-.7,2.1h.2l-.4.2-1.1-.8.3-.4Zm-.5-1.4.2.1v-.1l.5-.1-.3.3Zm2.5-.3-.2.1.1.1-.1.2-.9-.3v-.1l1.1-.3-1.4-1.1.4-.1.3.1v.4l.3-.3h.1v-.1l.2-.2-.2-.1v-.1l.3-.1.2.5h-.1l.3.9-.2-.1.1.3-.3.3Zm-2.8.4.1.3-.7-.2.6-.1Zm-2,22.2-.1-.7.7-.8-.5-.2,1.9-.6-1.6-1.2v-.4l.9-1-.2-.1.3-.4-.2,2.3,1.5-.9.1.4.4-.5-.3-.1.6-.4-1.6-.9v-.5l.1-.1-1.4-.4.3-.3.2.1v-.2l.4-.5-.4-.1-.1-.6,2.1-.5-1.2-1V194H194l-.7-.5h.5l-.5-1.1V192h.1l-.1-.1v-.6l-.2.2-.1-.1-.1.2-.6.5.8.4-.3.5-.5-.4-.6,3.4.6-.1-.6.5,1.1.4.2.5-.3-.1V197l-.1.1-.8-.2.3.6.3.7-.1.2h.1v.1l-.7-.2.6,1.6h-.1l-1.1-.8-.4,3.4.7-.2-.8.7,1.8.7Zm2.8-1-1.8,1,.4.3-.3-.1.3.8.4-.4.6.4.2-1,.1.3.4-.4-.5-.1.2-.8Zm-1.9,4.9.3-1.9-1.8,1Zm3.1-6.9.3,1,.6-.6-.9-.4Zm6.2-14.5-.3.5-.1-.2-.5.8,1-.1-.1-.2h.5l-.5-.8Zm2.2-2.6-1,1.4,1.7-.1-.7-1.3Zm-2.4,12.7-1.3-.4-.1-.2-.1.1-.4-.1.4-.2-.9-.7-.1.6-.7,1.1,1.3-.2-.2.3.5-.1.1.2-.3.5.5.1.1.2,1.2-1.2Zm-2.1-.6.2-.1.2.5Zm2.4-.1.6.4.1-.9-.7.5Zm5.6-11.9-.8,1.1h1.4l-.6-1.1Zm-5.2,5.4-.2-.3-.1.2-.4.6h.6l.2.5.7-.7Zm-.6-9.4-1,.6.8.6.2-1.2Zm5.7-41.3h0l-.1.1h.1l.4.3v-.4l.7-.1-.6-.9-.5,1Zm-5-3v-1l-.8.6Zm.1,1.6-.9,2.6,1.5-.3v.1l.8-.2-.1-.1h.2L204,138h.2l-.2-.3-.1.2-.6-.9Zm2.5-2.3-2.6-.7,1.1,2.6,1.5-1.9Z" fill="#be95f9"/>
      <path id="Path_16275" data-name="Path 16275" d="M211.6,130.4l-.7-.6-.3,1Zm-12.3,11.4.3-.1-.1.9,1.1-.4h-.1l.6.2-.2-1.1,1.3-.3-.7.7,1,.3v.2l.4-.1h.4l-.3-.3-.2-1.3-.2.2-.6-.7.5-.4-.7-.2.1.5-.4-.3-.1-.3-.1.1-.3-.2.1-.1-.2-.1.8-1,.4.1L202,137l1.2-.3.3.1-.1-.1.3-.1-.3-.3.2-.2-.7-.2-.6-.5v-.2l-.2.1-.3-.3,1.1-1.3-1.4-.4,1.8-.3.2.4.4-.5.5-.1-.2-.2.5-.6-.2-.1.3-.6-.7.1v-1.3l-1.4,1.1,1,.4-.7-.2-1.5-1.3.7-.2-.6-.5-.1.6-.8,3.4h.2l.2.7-.3.2-.3-.3-.5,3.3-.3-.1.5,1.2-.4-.3-.5,3.7Zm.7,0-.2-.1.4-.1-.2.2Zm4.4-9.9.1.2h-.1Zm-3.2,1.7Zm.3,1,.1-.1.3.7-.4-.3v-.3Zm-.4,2.9-.3.3-.4-.1Zm9.5,1.8-1,1.4,1.7-.1-.7-1.3Zm-1.3,6-.5-.7-.5.8Zm-.8-2.4-.2-.2h.6l-.4-.7v-.1l-.6.3.1.1-.5.7,1-.1Zm0-17.5,1.6-.9-1.7-1.2.1,2.1Zm-.4-14.4h0l.2,1.7,1.3-.9h.2l.3.2.2-1.7-1.5.9h-.1v-.4l-.4.2-.4-.2.2.2Zm4.4-3.1,1.4.1-.5-1.6Z" fill="#be95f9"/>
      <path id="Path_16276" data-name="Path 16276" d="M211.5,109.5l-1,1.4,1.5.2Zm-.2,3.7-.5-1.6-1,1.4Zm2.7-9.1,1-.2-.6-.8-.5.8-.4-.4-.2.9h-.8l-1.2,1.3.9.2-.1.2.6-.1h.1l-.3-1.6.6.7-.1.4,1.7-.5.3.3.8-1.5-1.7.3H214Zm3.2-1.6,1.3-.3-.7-.9-.6,1.2Zm1.7-1.4.8.8.5-1.2-1.3.4Zm-2.6,2.3.3-1.5-1.4.7,1.1.8Zm-5.1,4.9.1-.2.1.3h-.7l.7.8.2-.5.1.2.5-.7-1-.2.4-1.2.1.1.4-1-1.2.1.6.6-1.4.5,1.1,1.2Zm-38.3,15.2.7,1.4,1.1-1.3Zm.1-2.3-1,1.8,1.8.1Zm1.4,4.1h1.8l-.8-1.9Zm5.3,8.9.5-.9-1,.1.5.8Zm13.5-17.5.4,1.5,1.3-1.1Zm.3-2.6.4,1.5,1.3-1.1Zm-2.6,5.2,1.8.3-.6-2Zm-10.8,3.2-1,1.9h1.8Zm4-2.4-1.6,1.3,2.1.4-.5-1.7Zm-2.6.5-1.6,1.3,2.1.4-.5-1.7Zm5.5-.9,1.2-1.3-1.8-.2Zm10.9-3.5,1.3-1.2-1.8-.3Zm-16.7,7.5,1-.6-1.2-.4Zm6.1-2.6.1-1.1-.8.4Zm-2.5,7.8,1-.2-.6-.7Zm-4.4-2.3,1.2-1.9-2.2.2,1,1.7Zm6,.9.9.3-.4-1Z" fill="#be95f9"/>
      <path id="Path_16277" data-name="Path 16277" d="M179.2,123.3l-.2-.4h.7l-.8-1.9-.4.7-.2-.6h.1l-.4-1,1.9,1.4-.1-4-3,1.7.6.4-.8,1.4h.6v.4l.6-.3h.1l-.7,1.3-.3-.8-.5,1-.1-3.2-3,1.7,2.8,2-.2.3h1.8l-.1-.3,1.6.2Zm18.1-4,.1-.9-.9.4.8.5Zm-7.3-.2h0l.2-.1-.1-.3.2-.6-.4.1-.6-1.8-1.6,2.3,2,.2.3.2Zm-6.3.7.2-2.5,1.4.2.1.2-1.4.5,1.8,1.6.8-2.6-.8.3.7-.6,1.1,1,.1-1.8,1.7.2-.6-2-1,1.5.2-2-3.2,1.4,1.3,1.2-1-.2-.3-.9-.8,1.2.1-.9L181,117l.6.6-1-.1.5,1.3-.5-.4v1l.8-.4-.2-.2.8-.9,1.1,1-1.1-.1.6,1.4.9-.9.2.5Zm2.2,4.5.1-.2-.9.1.7.7.1-.3.4.4.3-.8-.7.1Zm.5-3.2-1.7.1,1.2,1.3Zm4.2,0,.4-.9-1.2.1Zm-6.2,6,.3-.8-1,.1.7.7Zm24.1-18.8h0v-.4l.2.7.9-.8-1.1-.2.1-.7-1.6.6.1-.3-2.7.7.1.2-1.1,1.3,1.2.3.1.3-1.7.6.5-2.3-2.6.8.4.5-1.1-.2v-.1l-2.8,1.1v-.1l-3,1.1v-.1l-2,.8-3.5,1.6,2.1,1.7-.9,1.2,1.8.2-.3-.9.2.2.1-.7.1.4,1.3-1.1-1.3-.3.3-1.9,1.8,1.7.2-2.6,1.3,1.4-1.1-.2.4,1.5,1.1-.9.7.7-1.2,1.6,1.8.3-.4-1.7.1.2.1-1,1.3-1.1-1.1-.2.1-1.3,1.4,1.7-1,1.4,1.8.2-.1-.3,1.6.5-.3-1.6-1.4,1-.2-.6.2.3.7-3.6.4,1.2,1-.9,1.1,1.3-.4-.1.3,1.2,1.1-.8-.8-.2.1-.6,1.3,1.2.6-1.5.1.2.9-.8.5.6.4-1.4,1.2.1-.2.2h.5l.1.1v-.1l.6.1-.4-1.4Zm-3.7,1.3-.2-1.3,1.1,1.4-.9-.1Zm1.9-.7.2-.7.2.2Zm-4.1,4.4,1.8.6-.3-1.6Zm-1.6,5.3.4-.9h-1.1l.7.9Zm-6.3-.9.8.1-.2-.9Z" fill="#be95f9"/>
      <path id="Path_16278" data-name="Path 16278" d="M200.3,110.9v.9l-.3-.1.1.8.8-.5-.4-.2.6-.3-.8-.6Zm37.5-1.5.4.6.2-.7-.6.1Zm-20.3-3.2-.1,1.1,1.2-.4-1.1-.7Zm-.4,3.2-.1.8.9-.3-.8-.5Z" fill="#be95f9"/>
      <path id="Path_16279" data-name="Path 16279" d="M215,110l.4-.1.2.7.2-.2v.5l.7-.3-.5-.3,1-.9.1.1.4-1.1-.5.2-.3.1-.5-1.1-1,1.1,1.1.3.1.2h-.2L215,109l.2.5-.1-.1-.1.6Zm1.8-1Zm-.3,0Zm15.8-4.3-.1.7.7-.2-.6-.5ZM219,110l.7-.2-.6-.5-.1.7Zm-2.5.7-.1.7.7-.2-.6-.5Zm-.7.5-.1.7.7-.2-.6-.5Zm4.1.7h.5l-.2-.5Zm.6-3.4.1.4.4-.3Zm6,2.1v-.5l-.4.2Zm-2.9-1.2.2.5.4-.4-.6-.1Zm6.6,1.4v-.4l-.1.1-.8-.4.1.9.6-.3.2.1Zm2.9,1.7-.1.5.5-.2Zm-1.1,6.8.5-.2-.3-.3Zm-18.1-6.9.2-.6-.6.1.4.5Zm.9-1.8-.4.5.6.1-.2-.6Zm4.1-3-.6.5.6.3Zm-2.2-.3-.1.5.6-.2Z" fill="#be95f9"/>
      <path id="Path_16280" data-name="Path 16280" d="M222.8,106.7l-.6.1.3.5Zm-4.1,2.7-.1-.7-.5.6Zm-3.4,4.4.6-.3-.6-.3v.6Zm2.2-1.6-.5.6.6.2-.1-.8Zm2.3,1.7.6-.3-.6-.3v.6Zm-6.6-.3.6-.3-.6-.3v.6Zm4.7,1.5.2-.6-.6.1.4.5Zm-3.3-2.5.1.6.4-.3-.5-.3Zm-1.8,3.4-.5-.2.1.6Zm0-2.2.1.6.4-.3-.5-.3Zm.2,3.3-.6.2.4.4.2-.6Zm-.1,3,.2-.6-.6.2.4.4Zm.3-4.2.6-.3-.6-.5Zm2.5-1.7.4.4.2-.6-.6.2Zm-.7,2.6.6.1-.3-.6Zm-.2,2.1.6.1-.3-.5Zm-1.9,3.7.2-.6-.6.2.4.4Zm3.3-2,.6.1-.3-.6Z" fill="#be95f9"/>
      <path id="Path_16281" data-name="Path 16281" d="M216.2,124.1l.6.1-.3-.6Zm17.9-15.3.5.5.3-.7Zm-.5,6.4.2-.7-.7.1Zm-3,1.4.8.1-.3-.6Zm-2.3,1.6.5-.2-.3-.3Zm1.9-4.4-.7.2.5.5Zm-3.3,3.2.3-.7-.7.2Zm-2.3,3.6.3-.7-.7.2Zm-5.6-3,.3-.7-.7.2Zm12.7-16.5-.3.5h.3l-.6.4,1.5,1,.1-.5.2-.2-.2-.1.1-.8.2,1.3-.1.1h.2l.1.7-.1.1-.8.5,1.5,1V105l.4.5.2-.5.6.7.1,1.1-1.4.5,1.3,1.2.5-1.6.2-.1.1.3.5-.5.8,1.1.1-.2.8,1.7,1.1-1.4-1.8-.4.6-1.2h-1.5l.5-.2-.7-.4v.3h-.1v.3l-.8-.3.4-.9.4.3.1-.3.3.2v.2l.1-.1.9.7.2-.6.3-.1.8.1-.2-.3.4.1-.2-1,.3-.6h-.5l1-.9L238,102l-.4-.1-1.2-.4-.1-.2-.1.1h-.1l-2.9-.7v-.1h-.9l.3.6-.5.3-.4-.4Zm6.9,3-.4.4-.1-.1-.3.5-.1-.1.2-.9.3-.3.4.5Zm-2.5-2.5-.2.3h.3l.1.9v.5l-.8.3-.1-.2v.1l-.1-.7-.6.7.7.2-.1.1-.4.2.4.3-1,.2.3.4-.5.1.1-.7.3-.5h-.3v-.2l1.9-2Zm3.9,5.1-.1.7.7-.2-.6-.5Zm-11.5.4.2-.2-1-.2.2.9.2-.1.2.2.2-.6Zm-2.7-.8-.6-.1.2.5.4-.4Zm2,1.8-.3.7.8-.1Zm4-2.6-.4.9h.8l-.4-.9Zm-8.9,5.2-.4-.8-.4.8h.8Z" fill="#be95f9"/>
      <path id="Path_16282" data-name="Path 16282" d="M222.8,117.4l.5.1-.3-.5Zm3.4-1.9-.2.4h.5Zm-1.6-3.8-.8.1.4.6.4-.7Zm5,.8-.1-.8-.5.6.6.2Zm-6.9,1.4.6.2-.1-.8-.5.6Zm3.5-.6.9.1-.3-.8-.6.5.1-.2-.6.1.4.5.1-.2Zm-4.5,1.9.5-.4-.6-.1Zm3.3-7.8v.2l-.1-.1-.5.7,1,.2-.2-.5.3-.4-.5-.1Zm8.7-.3.2.3.2-.4,1-.3-1.5-1-.1,1.1h-.1l.1.1v.3l.2-.1Zm-1.1-3.9-1.2-.8v0l-.2-.2-.2.8v.1l-.1.6Zm1.1,4.1-1.8,1.1,1.6.9Zm-7.3-.7-.2,1.5,1.7-.5Zm-1.9.2-.3-.4-.3.7.6-.1v.1l-2,.5,1.2,1.3.8-1.7,1.2-.2-1-.8Zm6.2-.9.5.9.4-1ZM229.6,117l1,.2-.3-1.2Zm7.1-1.6.1-.6.2.2.2-.4h.1l.5.8.2-.5,1.1-.3-1.1-1.3-.2,1.2-.4.1-.1-.1.1-.3h-1l.2.3-.5.2.6.7Zm-9.3-6,.7,1,.5-.9Zm-5.4-1.3-.7.8.6.1-.1.6.7-.2-.5-.4h.1Zm13.2,1.2h-1l.6.8Zm-3,5.3.9-.5-.9-.4Zm-12.9-7.8-.3.5h.4l-.4.3.6.3v-.6h.6l.1.1-.1.2h.3l.4.3v-.3h.1l-.1-.2-.1-2,.4-.1-.2-.3.7-.5.8.9-.3-.1-.2.1-.4-.1.1.4-.1.1h.1l.2,1,1.1-.8-.1.5.4-.1.1.1v-.1l.9-.2-.3-.2.5-.5,1.2-1.1.7.4.1-.7.6.6-.8.5-.4-.1.1.6.4-.4.1.1-.3.5.8-.1-.2-.2,1.6.9.2-2,.6.1-.4-.5-.2.4.1-.6-.9.6h-.5l.1.2-.2.1.2-1.3.5.4v-.3l.4-.2.4.3.1-.4.5-.1-.5-.4.1-.7.2.3-.2.2h.4l.5.8.1.3-.7.4.7.4h-.2l.2.6.2-.4.5.3.1-.6.2.2.3-.7-.4.1.1-1-.2.1,1-2.6-2,.3.2-.3-1.8.3.6.8-.6.2.1.1-.6.4.3-1.6-1.6.6v-.1l-1.5.5.1.1-.3.1.3.3-.4-.3v.2l-.1-.5-.5.6V102l-2.1,1,.2.2-.2.1v-.1l-.3.2-.6.2.2.2-.1.1h-.2l-.4-.1.1.3-1.1.7-.4.3-1.1.7,1.4,1Zm4.8-3.2h-.2v-.1Zm-.3.5.1-.3.2.4Zm-1.7,1.4Zm.3.1.1-.1.1.1h-.2Zm5.3-2.5-.3.2.1-.3.2.1Zm-2.5.1h0l.4-.1.2.2-.3.6.4-.1-.6.4.3.2-1.5-.2.2-.5.4.1-.1-.3.6-.3Zm5.8,5.3h0l.4-.4-.5-.2v.1l-1.4-.3.8,1.5Zm13.4,7.8L246,115l-.9-.2v-1.1l-1.4.7.1.1.6,1.8Zm1.1-4.4v1.8l1.9-.9Zm-2.3-.7,1.6-1.7-2.8-.2.6,1.5-.4.6v.1l-.1.1v-.2l-.4.3.3.2-.1.2h.1l-.1.3h1l-.1-.1.8.1-.4-1.2Zm-3.1-3.2-.8.6,1,.6ZM237,120.1l.6-1-1.2.2.6.8Zm3.3-5.4,1,.3-.4-1Zm2.3,8.3.8-.6-.8-.4Zm-13.5-3,.2-1.2-1.1.5.9.7Zm1.4-6.2,1-.1-.7-.7-.3.8Zm4.8,7.1.6-.8-.8-.1Z" fill="#be95f9"/>
      <path id="Path_16283" data-name="Path 16283" d="M236.1,111.5l-.1-.1-.2-.6-.2.2-.4-.2.3-.2-1-.7v.4l-.2-.1-.2,1.2-.6.1-.2-.7-.7,1,.6.1.3.5.6-.9-.1.6,2.1-.6Zm-5.9-4.5.2-.6.2-.1h-.1v-.2l-.2.1-.4-.2v.3l-.3.1.6.6Zm-9.6,5.7v1.2l.9-.5Zm23-3.9.9.5-.1-1-.8.5Z" fill="#be95f9"/>
      <path id="Path_16284" data-name="Path 16284" d="M239,105h.3l-.1.6h-.1v.5l-.3-.5-.8,1.3h.3l-.1.1.6.3V107l.8.1-.4-.7,1.6-1,.1.2-.5.3.7.4V106l.4.6.5-.8.3.1-.1.2-.5.7.5.1-.2.9-1.6-1.1v.5l-.1.7h.1l-.1,1.3.5-.2.5.5.3-.8.4-.1-.1.2,1.6-.7.1.5.5-.4-.4-.1.3-.1.7,1.6.7-.8-.6,1.4h-.2l.1.2-.2.6.4-.1.4,1,.5-.5.4.4V111l.5-.5h-.3l.5-.1.1,1.3,1.3-.7-1.3,2.6,4-.8-2.2-2.6-.2.5-.9-.4.7-.2-2.5-2.4-.2.6-1.5-.1.7-.3.1.1.1-.2.5-.2-.3-.3-2.4-1.8-.1.5v-.1l-.1.1-.1-.5.1-.2-1.2.1.8-.5-3-1.7-.2,1.3-.1.5Zm3.8,13.4.5-1.1-1.2.3.7.8Zm3.7-1.3-.2-.2v-1.5l-1.4.7.8.6-.1.7.9-.3Zm-6.6,2.3,1,.2-.4-.9-.6.7Zm-1.1-7.5.2-.1-.8-.5.1,1-.3.7,1.1-.1-.2-.4.3-.2-.4-.4Zm-2.9.1.1,1,.7-.4Zm1,6.4,1.2-.4-.9-1Zm6.1-6.3-.8.7,1.1.4Zm4.8,9.1,1.8-1-2-.8Zm3-.4h.1l-.1-1.8-1.3.8,1.1.8-1.1.6,1.4,1-.1-1.4Zm-5.9-7.3v-.8l.5-.2-.7-.6-.1.4-.6.3.9.9Zm3.5,4.4,1-.3-.6-.7Zm-7.8.8.5-.7-1-.2.5.9Zm-1.5,5.1.8-.9h-1.2Zm5.1-5.3-.7.5.9.5Zm-.2,9.2,1-.5-.7-.5Zm1.1-4.5.7-.9h-1.2Zm3.1-1.4-.3,1,.3-.1.4.7.4-1h-.3l-.5-.6Zm11.3,13.6,1.4,1.1v-1.8ZM258,133l.1,1.8,1.8-.9L258,133Zm2.2-1.7v1.8l.9-.4-.1.2h.7l-.4.2,1.3,1.2.1-1.3H265l-2-3.3-1.4,2.3Zm2.1,8.4,1.5.9-.2-1.8-1.3.9ZM253.1,125l.3-1.2-.9.3-.4-1.9-1.5,1.2,2,.9v-.1l.5.8Zm-5.2,4.3.6-.7-.9-.3.3,1Z" fill="#be95f9"/>
      <path id="Path_16285" data-name="Path 16285" d="M250.2,129.3l-.2,1,.9-.5Zm-2.8-2.5-.8.9,1,.2Zm-1.1-6.1.1.9.9-.5Zm7.4,5.4.2-1-.8.3Zm-11.4-3.4-.9.8.3.1-.4.3.9.4-.1-.5.2.1v-1.2Zm.9-5.5-.8-.6-.1.9.9-.3ZM258.1,132l-.1.2h.1v.2l.3-.2.6.1-.2-.3,1.6-1-2.1-.8-.1-1.7-1.4.8,1.4.9-.5-.2.4,2Z" fill="#be95f9"/>
      <path id="Path_16286" data-name="Path 16286" d="M257.1,123.4l.3-.5-1,.1.5.7.1-.2.9.7-.8,1.1v-.9l-1.1.6-.1-.1v.2l-.2,1.9,1.7-.7-.1-.1h.5l-1.2,1.8,2.6.5-.4-.7.6.6-.8,1.2,1.8-.1v1.7l1.9-.9-1.7-.8,2-.1-1.8-2.9-.2.2-.8-.5h.7l-1.7-3-.4.5v-.9l-1.3.6Zm2.7,4.5v-.5l.5-.2Zm-.7-1.7v.9l-.5.2-.6-1.1Zm.3,14,.9-.2-.7-.8-.2,1ZM255,123l-.1,1.4,1.7-.7-.8-.8,2.4-.2-1.9-2.9-.3.5-.1-.1.5-.9-1,.1.5.7-1.5-.6.7-.4-1.7-.8,2.2-.3-2-2.8-.6.8-1.2-.5,1.6-.3-2.1-2.7-1.6,2.8-1.2-.5,1.3-.8-1.9-.8.2,1.8.3-.2.2,1.7,1.6-.9.5-.1-.8.5,1.4,1-.1-1.5.5-.1.1,1.8.4-.3-.3.5-.9-.4.1,1.8.6-.3,1.1-.1.1,1.7.3-.2.2,1.6.4-.2.1.7.9-.5-.5.8-1.9-.8.2,1.8,1.7-.9-.3.6h1Zm.1-2.1.7-.4-.3.5Zm1.4,7.8-.3-1.7-1.2,1.3Zm.2,3.1-.8.9,1,.3Zm-5.7-5.3-.6.8.9.2-.3-1Zm2.2,1.1-.6.8h.3l-.4.4.8.2-.1-.6h.2l-.2-.8ZM266.1,144l1.6-.5-1.3-1.4-.3,1.9Zm-10.2-14.1.8-.1-.4-.8-.5.7-1-.6.2,1.9,1.4-.9-.5-.2Zm4.9,13.5,1,.1-.3-1Zm.2-6-.9-.4.1.8.8-.4Zm5.5,3.5.6.6.1-.5.4.5.4-.8-.8.2v-.3Zm-15.6-2.7,1,.1-.3-1Zm-.8-6.3.1.8.8-.5-.9-.3Zm7.1,4.5.1-.9-.8.3.7.6Zm.9,7.8.9.3-.1-1.1Zm1.3-5.8-.8-.5-.1.8Zm5.2,5.3.3-.9-.8.2Zm3.7-.8.2-1.4-1.2.4Zm4.4,2.7-1.1-2.2h.1l-.2-.1v-.1l-.3-.2h.3l-1.6-2.2-.4.7-.1-1.3h.1l-1.7-2.4h.1l-1.7-2.7h.1l-1.3-2-1.4,2.3v-.8l-1.4.7,1.4,1.1v-1l1.5-.2-1.3.7,1.2.9-.5.8-1.8-.9v1.8l1.8-.8-.3.5,1.4-.1,1,.8V138l1.2-.1-1.2,1.7-1.7-.6.3,1.8.3-.2v1.7l1.5-.7-1.3-1.1.5-.3-.2.3,3.7-.2-1.1.7,1.2.8-.3.5-1.1,1.5,2,.5-.4.3.7.4-.6.7-.8-.9-.3,1.9,1.6-.5-.4-.4,2.5-.2ZM265,135.1l1-.1-1,1.4v-1.3Zm4.6,8.1.6-.1-.1.7h.1l-.2.2-.4-.8Zm.9.5.6-.2-.6.7Z" fill="#be95f9"/>
    </g>
    <g id="Group_1262" data-name="Group 1262">
      <path id="Path_16287" data-name="Path 16287" d="M225.4,136.5v.8l.6-.3Zm-1.7-2.7-1.2.2.7.8ZM212,122.6l-.5,1.1,1-.1Zm6.5,24.6.8-.9.2.1v-.3l.7-.8h-.3l.1-.7.5.2v-.7l-.5.5.1-.7-.8.2h-.6l.1-.1-.8.1h-1.3l1.2,2.6.2-.2.4.7Zm.6-1.9.2-.2.2.3Zm-3.7-7.3.5-1-.6.1.8-.9-1.3-.1,1.3-1.5H216l.3-.3-.8-.2.1.4-2-.1.7,1.6h-.2l.6,1.9.4-.4Zm6.4,7.8.1.1v-.2l.5-.2-.4-.4v-.5l.2.1.1-.8-.5.4-.5.1-.5-.5-.1.6h-.1l.1.1-.2,1.5,1.3-.3Zm3.7,2.2-.3,2.3,1.2-.4,1,1,.5-1.4-.9.1-1.5-1.6Zm-8.9-8.3,1.9-.7-1.6-1.6-.3,2.3Zm-2.8-13-.2,2,1.6-.6-1.4-1.4Zm4.5,9.3.7-1.6h-1.9Zm4.4,1.7h-2l1.2,1.6Zm9.9,18.7h-2l1.2,1.6Zm3.1,3.9.7-1.6h-2l.8,1-1.7.3.9,1.3.8-1.6ZM214.5,133l.5-1-1.1.2-.5-.9-.5,1.1.9-.1.7.7Zm13.8,0-.4.5.7.1Zm-7.4,6-1,.1.7.7Zm-1.5-5.4.1.7.7-.4Zm11.4,4.7v.5l.4-.2Zm-1.5-1.8-.4.1.2.3.2-.4Zm3.3-.4-.2.3.4.1-.2-.4ZM215.9,130l-.6-.5v.8Zm-3.7-3.4.4.5.3-.6Zm6-.6-.3.5.7.1Zm12.2,31.7V157l-.5.3ZM224,151l-.6-.5v.8Zm3.6-2.1-.3-.6-.3.5Zm2.8,1.5.3.5.4-.6Zm1.5,4-.4.1.7.5H232l.3.6.3-.6h-.1l.1-.6.7.3-.1-.7-.6.3v-.1l-.7.2v-1.5l-1.7,1Zm9.4,3v1.9l1.6-1.2Zm7.9,1.3.9.4v-.8l-.9.4Zm7.4-4.8.9.4v-.8l-.9.4Zm-19.1,10.8.6-.2-.5-.5Zm1.5-5.8.3.5.3-.6Zm1,2.6-.7.1.3.5ZM229.8,153l-.4.3.5.2Zm-2.8,1-.1.4.4-.1-.3-.3Zm1.3-3.3-.4.1.2.3.2-.4Zm-2.8-4.5-.2-.5-.3.3Zm2.1.8v.4l.4-.3-.4-.1Zm-1.8-7.6-.3.3.5.2Zm2.2,1.7.4-.3-.3-.2-.1.5Zm-3,1.6.1-.4-.4.1.3.3Zm-5.1-2.7-.3.3.5.2Zm2.3,1.3v.4l.4-.3-.4-.1Zm-3,2,.1-.4-.4.1.3.3Zm-2.8-14.9-.3.3.5.2Zm2.2,1.7.4-.2-.3-.2-.1.4Zm-3,1.6.1-.4-.4.1.3.3Zm33,17.5h-.5l.3.5Zm-.6,5.6-.3.3.5.1-.2-.4Zm-4-2.4-.4-.2.1.5.3-.3Zm-4.3-3.2.3.4.2-.3-.5-.1Zm-.5-4.4-.3.3.4.1-.1-.4Zm2.1,2h-.5l.3.5Zm-.4,4.9-.3.3h.4l-.1-.3Zm-3.5-2-.4-.2.1.4.3-.2Zm-4-7.3h-.5l.3.5Zm-.6,5.2h.5l-.2-.4Zm-3.6-2.1.3-.2-.4-.2.1.4Zm13.6,9.5-.4.5h.6l-.2-.5Zm-6.4-1.4.1.4.3-.3-.4-.1Zm-2.9-2.5v-.4l-.4.3.4.1Zm-.2,9.4-.1.8.7-.4-.6-.4Zm-4,.2-.2-.6-.4.6h.6Z" fill="#50297a"/>
      <path id="Path_16288" data-name="Path 16288" d="M252.6,155.6l.7.3v-.7Zm-1,1.9.5-.2-.4-.5Zm3-1.6.5-.2-.4-.5Zm-1.1-3.3.4-.5h-.7Zm-5,4.7.5-.6-.7-.2Zm-.1,2.3.5-.6-.6-.2Zm-.5-.5-.6.2.6.3Zm-3.6-1.2.6-.1-.4-.5-.2.6Zm9.9-7.9.2.7.4-.6-.6-.1Zm.6,4.2.6.2-.1-.5Zm-4.4-2.2.5-.2-.5-.4v.6Zm-2.5,5.5-.5.6h.8Zm-2.9,3.3h0l.7-.3-.5-.4-.1.4-.4-.2.2.6Zm-.3-5.7-.6.3.4.3.2-.6Zm15.4-4.6.2.7.4-.6-.6-.1Zm-1.9,2.3.6.2-.1-.6-.5.4Zm-1.9-1v.6l.5-.2-.5-.4Zm-15.2,7.9-.3.5.5.1Zm2.1.6-.2-.6-.4.5.6.1Zm-7.7,1.3.6-.3-.5-.3ZM233,158l-.1.7.6-.3Zm5.9-.9-.5-.3-.1.7Zm-1.1,3.2h-.6l.4.4.2-.4Zm-2.8-3.9-.3.5h.5Zm-8.2-12.2h-.6l.3.6Zm-4.9-.8-.5-.5-.1.6Zm3.3,4.5.3-.6h-.6Zm-.4-1.4-.4-.6-.4.7.8-.1Zm-6.1-9.5-.6.4-.4-.7-.5,1.1,1-.1.4.2Zm.5-4.9-.2.7.8-.2Zm4.6,5.9.4-.8h-.7Zm-6.4-5.7.5.5.3-.7Z" fill="#50297a"/>
      <path id="Path_16289" data-name="Path 16289" d="M224.5,131.5l-.4.6.8.2-.4-.8Zm-4.4.1v.8l.7-.3Zm-2.3-3-.7.2.4.5Zm5.3-.5-.3.5.7.1Zm-7.3,4.2v.8l.7-.3Zm-2.4-3-.7.1.4.5Zm5.6.2-.3-.6-.3.5Zm-2.8,5.6-.8.6.8.4Zm.5-4.9-.2.7.8-.2Zm4.2,5.2.1.3v1l.8-.4-.4-.4.3-.6-.8.1Zm-3.8,6.3-.1,1.9,1.7-1.2-1-.6v-.7l-.5.4,1-1.2-2.5-.1,1-1.7-1.8-.2.3.8-.1.2h.2l.4.9.9,2.1.5-.6Zm2.8-.1-.2.6.7-.1Zm6.4,8.7-.7.5.6.3.1-.8Zm-2.1-7,.2.7.6-.5Zm4.3,8,.7-.1-.5-.4Zm.1,3.2-1.4.7,1.4,1.1Zm-.5-3.3.1,2.1,1.5-1.4-1.6-.7Zm-5.8.1-.7-.3v-.1l.4-.8v.1l.4-.5v.6l-.2.1.2.3-.1.6,2.1-1.8-2.1-1v.6l-.3.1.1-.2-.7.1.2.2-1.4.3-.9.1,1.1,2,.3-.4.1,1.4,1.5-1.4Zm0-1.5-.2-.1.2-.4Zm-1.2.8.2.2-.3-.1.1-.1Zm4-2.2-.5-1.7-.7.6-.3-.9v.1l.3-.6h-.6l.2.4-.8.6,1.1.5-.4.4,1.7.6Zm.8,4.8.4-.6.9,1.2.7-1.6h-2l.1.1h-.6v.1l-1.1.2.6.7-.3,1.7.2.6.5-.4-.7-.1,1.5-.8-.1.5.7-.4-.4-.3h.1l-1.3-1,.3-.7.5.8Zm4.5-7.6-.6-.8-.2,1Zm4.1-.4-.7-.7-.4,1.1,1.1-.4Zm-5.7,3.5-.1-1-.8.5.9.5Zm7,3.2.7-.7-1-.1Zm-9.3-6.1.6-.9-1.2-.2.6,1.1Zm-3.5-5.5h.2l-.5-.5v.1l-.2-.3-.4.9Zm-2.9,8.9.3-.8.5.3v-1l.8,1.1.5-1.9.3.4.5-1.1-.7.2v-.1l-2.1.4-.5-.6-.4,1-.2-.3-.4,1.1h.3l-.1.2,1.4-.4h-.1l.5.3-.7.3.2.1-.4.1-.2-.6-1.2,1,1.7.6v-.3Zm11.2.7-.5,1.1.7-.2.4.6.4-1.1h-.6l-.4-.4Zm-.1,5.5.6-.7-1-.3Zm2.2-6.4-.1-1-.8.5.9.5Zm-8.3.5.1-1-.5.2v-.1l-.4.1.8.8Zm4.6,15.3.5-.6.6.7.7-1.6h-.9l-1.7-.5.8,2Z" fill="#50297a"/>
      <path id="Path_16290" data-name="Path 16290" d="M231.9,159.5v.2l-.1-.1-.5,1.1,1-.1-.1-.2.6-.1-.9-.8Zm4.7-3.8.6-.6-1-.3.4.9Zm-.6-13.3-1-.4.2,1.2Zm-4.3,4.6-.5.7,1,.1Zm8.6-.1-.9.3.6.6.3-.9ZM232,161.4l-.3.3.3-.3-.9-.3.2.5-.6,1.1,2.1.7Zm4.6-8.5.6-.9-1,.1.4.8Zm-9.3-1.4-.8-.4.1,1.1.7-.7Zm-7.5-18.1,1.2.1-.4-1Zm-5.6.9.3-1-.9.1.6.9Zm5.4,5-.1.9,1-.4Zm16,17.6-.9.8,1.2.2Zm-4.9,4.3-.5-1.4-.5.5-.2.1-.6.6,1.8.2Zm3.5-8.4-.1-.9-.9.5Zm4.9-3.1-1,1.1,1.3.1-.3-1.2Zm-1.5,7.5-.1,1,1.1-.4Zm-3.9,6.1,1.4.1-1.2-1.7-.9,1.6h.7l-.8.5.6.2-.1.3.7-.1.1.4.5-.6-.7-.2v.1l-.3-.2v-.4Zm11.7-1.8h-.6l.4.5.2-.5.2.4.6-1-1.2.2.4.4Zm-1.7.4h0l-.5-.7.9.1-.7-1.1-.7,1h.3l-.7,1.1,1.1.1h.3l.1.7.5-.6-.5-.1-.1-.5Zm-8.3-7,.6-.9-.9-.2.3,1.1Zm-3.2,4.6h.9l-.6-.7-.3.7Zm8-.9.2-.9-.8.3.6.6Z" fill="#50297a"/>
      <path id="Path_16291" data-name="Path 16291" d="M238.2,163.1l.2-.6-1.6.2,1.5-.4-1-1.3-.7,1.7h-.2l.7.7-.1.1-.9-1-.7,1.8,1.8-.5-.1-.2.3.2.4.5v-.1l.1.2.6-1.3h-.3Zm3.2-.8h-1l.2.5-1.9-.6.1,1.8-.5-.2.3,1.9-1,.2-.8-.5v-.2l-.2.1-.3-.2h-.1l-.5.2-1-1.3-.7,1.3h-.5v.1l-1.5.3.5-.2-.3-.3.1-.2H232l-.6-.7-.5,1.4-.1-.1-.2.5h-.1l-.9-.5.5-.1-.4-.5-.1.6-.5-.3v.3l-1.7-.5.4-.6,1.1-.1-.5-.9.5-.7.1.3.5-.5-.3-.1.3-.5-1.4.1,1.1-1.1-1.5-.5h.5l-.2-.5h.3l.3.1-.1-.2,1.6-.6-.5-.5.9-.9-1.3-.4.3-.6h-.3l.1-.2,1.3-1.1-1.6-.8v1.5l-1.1.2h-.1l.2-.4h-1.3l-.3-.1v.1H226l.5.6v.4l-.5-.3v.6l-.4-.8-.3.8-.4-.2.6-.9-2.5.2.7-.8.8-.4-.3-.2.4-.4h-.4l-.4-1.3.7.3-.1-.7-.7.4-1.1.9.5-.8v.1l1.2-1.1v.3l.7-.3-.6-.5v.2l-1.4-.6.1.8-.1-.1-.4.5.5.1v.2l-1,.1.3-.7-1.2.3.4.5-.7.1,1.1,2.1.1-.2.5,1.1v.2h.1l.1.3h-.1l1.2,2.2.3-.5.1.3.4-.3.1,1.1.3-.3.2.2.2-.5.6-.6v.9l.7-.5-.1.9h-.2l-.1-.3-.1.3-1.4.1-.2-.2v.2h-.1l.1.2v.5l.2-.1,1,2,.1.1h-.2l1.6,3.1.1-.1.7,1.7.1-.1v.1h.1l2.1,4.6.8-.9v.2l.7-.5.2.2.1-.2v-.2l.3-.2-.2-.1.2-.6.4,1.7,2.5-1.9.1.3,2.6-1.8-.3-.1.1-.2.5-.3-.3-.1.3-.6.2,1.1,2.3-1.5-2.3-1.2.8-.5-.1.6.6-.3-.5-.3.9-.6.1.3-.1-.1-.6,1.3,1.7-.1-.8-1,.5-.7.1.2-.2.1.2.1v.1l-.5.1.3.5.2-.4.3,1.4,2.2-1.6-2.9-1.3.5-.5Zm-19-7.9.1-.2.3.1v.1h-.4Zm4.8,7.6h-.3l.7-.8.3.7Zm1-2.8-.3.4-.1-.2.8-.5-.2.7Zm-.2-2.5.6.7.3.8-.1-.1-.1.5-1-.6.3-.3-.2-.1-.3-.2.1-.2.4-.5Zm-3.6,1,.2-.3v.3Zm1.5-.2h.1v.1Zm1.5,2.1.1-.1-.3.6h-.1v.2h.1l.2.4h-.7l.7-1.1Zm8.1,6.3.2-.4.4.4.1-.3.2.1.1.6-1-.4Zm.8-.5-.1.1.1-.3Zm-2.1,1.1-.2,1-.3.1v-.1h-.1l-.5-.2.5-.4-.5-.1.7-1.3.4,1Zm-1.3.7h0v0Zm-2.2-.6-.2.6-.5-.1.8-.9Zm-1.5-.7H229l.2-.2Zm.7,2.7v.4l-.3-.1.3-.3Zm1.7.4-.5-.3v.6L230,169l1.4-.6-.8-.4h.1l1.6-.2-1.2-1.2h.5l-.3-.6.9-.3.9,1.3-.2-.1.1.2h-.5l-.3-.1.4,1.3-.2.1.3.1.1.3Zm2.8-1.1.2-.4v0l.6-.2.3,1.2Zm12.5-7.4h-.1l.1.1.1.7,1.4-1-1.7-.5Zm-6-.7-1.7.3.9,1.3Zm.9,22.8-.7-.4.1.8.6-.4Zm-.8-3.1-.2-.7.8-.4-.3-.2h.3l-.2-.3.8-.1-.5-.7-.4.6-.1-.1-.3.4-.2-.1v.6l-.8.8,1.1.2Zm17,14.6h-.2l.5.5.2-.5h-.1l.4-.5-1.2-.2.4.7Zm-5.3,7.8.6-.8-1.2-.2.6,1Z" fill="#50297a"/>
      <path id="Path_16292" data-name="Path 16292" d="M262.8,200.5l-.5-1-.7-.3v.7l.6-.3-.7,1.1-.2-.8-.2.2h-.7l.3.4.2.2.1-.1.5.2,1.2.2.2.4.3-.3.3-.4-.7-.2Zm-32.9-26.2.6-.8h-.3l.4-.1-1.7-1.2-.2,1.8.8-.3Zm-2.1-3.9-1.1.4,1.3,1.6.2-1.1.4-.1-.3-.4.1-.6-.4.1-.1-.1-.1.2Zm3,6.1-1.2-.2.5,1.1.7-.9Zm-2.4.9-.1.2,1,.2-.3-.5h.1l-.4-.4Zm-1.4-1.3-.6.3.6.4Zm-1.5-9.7v-.2h.1l-.1-.2v-.3l-.1.1-.2-.4-.5.7.6.1.2.2Zm2.2,7.6v.3l.7-.7-.8-.3-.5.2Zm-1-6.8-.6.3.6.4Zm10.5,15.5h-.6l.3.6Zm2.4,5,.1.5.4-.2Zm-.3-2.2-.1-.4-.2.2v-.6l-.8.6.3.2-.2-.1.1.7.4-.4.1.1v-.2Zm-6.5-6.3.5-.5-.8-.3Zm-3.9.5-.6.2.4.5.2-.7ZM256,197.4l-.5.3.6.4Zm-4.2,1.5.2-.8-.7.4.5.4Zm3.3-2.5.5-.3-.6-.3Zm-5.6-1.8h.7l-.2-.6Zm17.1,3.2-.7.4.6.4.1-.8Zm-6.4,3.9.3,1.4.4-.3.6-.4h-.1l.2-.1-1.4-.6Zm-2.4-.2-.4.5h.7l-.3-.5Zm-4.9-6.8-.5.2.4.3Zm-1.3-2.5-.3.3h.4l-.1-.3Zm-3-2,.4-.2-.4-.2Zm2.9-1.9.4.1-.1-.4-.3.3Zm-7.9-3.8.1-.5-.4.1.3.4Zm-.5,2.6.4-.2-.4-.2Zm3.3-1.8-.1-.4-.3.3.4.1Zm-4.8,6.8.5.1-.2-.5Zm4.6,2.4-.4.1.2.3.2-.4Zm0-4,.3-.1-.3-.3v.4Zm2.9,10.7.4-.1-.3-.3-.1.4Zm16.3,1.6-.4.6,1.7.2-.9-1.5-.4.7Zm-6.1-2.5-.6-.3v.6Zm-2.7-1v1l1-.5Zm4,.3-.6-.3v.5Zm-1-1.9v.6l.6-.3Zm4.3,4.6.5-.1-.6-.6-.2.7h.3l-.9,1.1,1.2.3Zm-1.9,4.6,1.1-.6-1.2-.8.1,1.4Zm5.8-1.9h.4l-.3-.5.1-.5-.4.1-.3-.6-.5.8-.8.2,1.6,1.2.2-.7Zm-22.9-15.8-1.2.3.9.7Zm2.8,2.8-.2.6-.8.5.6.2v.1l.2-.1.2.1v-.1l1-.4-1-.9Zm14.9,11.1H262l.3.4.3-.4Zm-8.1-1.8.8-.4-.8-.4v.8Zm4.6,1.1.7.2-.2-.8Zm-1.6-6.2h-.8l.5.6Zm-10.8-8.6.7.1-.3-.6Zm4,.7-.4-.6-.3.5Z" fill="#50297a"/>
      <path id="Path_16293" data-name="Path 16293" d="M242.9,179.1l.4-.3.1.4,1.6-1.3-2.1-.5.2.9-.4-.2.2,1Zm16.2,15.5-.5-.5-.3.8Zm-.6,3.6.6,1,.6-.9Zm-4.2,8.9.6-.9-1.2-.1.6,1Zm-.9-9.4.6,1,.6-.9-1.2-.1Zm3.3,5,.6.4-.1-.7Zm-3.5,1.5.1-.8-.7.4.6.4Zm3-2.8.5-.4-.7-.2.2.6Zm-5.3-1.9-.4.6h.7Zm8.1,7.4h.7l-.3-.5-.4.5Zm-5-7-.5.3.4.3Zm1.7-1.6.1.4.3-.2-.4-.2Zm-3.1-.5-.2-.3-.3.4.5-.1Zm-10.2.4.5.1-.3-.5Zm4.7,2.4.2-.4-.4.1.2.3Zm-.2-4.8v.4l.3-.1-.3-.3Z" fill="#50297a"/>
      <path id="Path_16294" data-name="Path 16294" d="M250.6,206.7l.4-.1-.3-.3-.1.4Zm-.7-4.2v-.4l-.4.2Zm7.1-4.1-.7-.3v.7Zm3.7.5-.4.5.6.1Zm-13.6-3.2.7-.4-.8-.3Zm4.6.8-.2-.7-.4.6.6.1Zm-2.4-5.5h-.7l.4.5Zm10.8,13.8v.6l.6-.4-.6-.2Zm-2.2-.6.1,1,1-.6Zm3.5-.3.1.6.6-.4-.7-.2Zm-5.3,2.5.8-.5-.8-.3Zm4.6.7.7.1-.3-.7-.4.6Zm-2.1-6.1-.8.1.5.6.3-.7ZM252,189.3v-.7l-.7.3Zm-9.1-8.6.8-.3-.5-.5Zm16.4,18.9.7-.3-.5-.5Zm-11.6-11.5.4-.5-.6-.2.2.7Zm1.9,4.4-.3.5h.7Zm-14.8-6.3-.7-.4.1.8.6-.4Zm-1.1-4.2-.9.8,1.2.2Zm-3.5,4.2h-.6l.3.5v0l.3-.1-.2-.1.2-.3Zm9.2-2.6-.2-1-.6.8Zm-6.7,8.1.4-.2-.4-.3Zm-.4-2.6-.1-.4-.1.1-.3-.7-.7.7h.8l-.1.1.5.2Zm-2.3,2.8.2-.4h-.4Zm-7.1-25.2h-.6l.4.6.2-.6Zm2.5,5.5.4-.2-.4-.3Zm-.4-2.6-.1-.4-.3.3.4.1Zm-2.2,2.8.2-.4h-.4Zm13.8,15.7.1-.5-.4.1.3.4Zm-.1,2.4-.4-.2v.4Zm2.8-2.1-.3.3.4.1-.1-.4Z" fill="#50297a"/>
      <path id="Path_16295" data-name="Path 16295" d="M234.8,197.8l.4-.2-.4-.3Zm-.7-2.7.4.1-.1-.4-.3.3Zm-2.1,2.5.2.4.1-.4Zm6.8-3.5.1-.5-.5.1Zm-.6,2.6.4-.2-.4-.2Zm3-1.9.3.1v-.4l-.3.3Zm-16.9-13,.4-.2-.4-.3Zm-.5-3-.3.3.4.1-.1-.4Zm-2.4,2.8.2.4.1-.4Zm6.9-3.5.1-.5-.5.1Zm-.6,2.2v.4l.4-.2Zm3.3-1.4-.1-.5-.3.3.4.2Zm-4.5,9,.4-.2-.5-.3Zm-.8-2.8.4.1-.1-.4-.3.3Zm-1.9,3,.2-.4h-.4Zm6.8-4.4-.5.1.3.4Zm2.2,1.2.4.1-.1-.5-.3.4Zm7.4,19.9.4-.2-.4-.3Zm-.8-2.8.4.1-.1-.4-.3.3Zm-1.9,2.9.1-.4h-.4l.3.4Zm6.6-3.8.1-.5-.5.1Zm-.6,2.6.4-.2-.4-.2Zm3.1-2,.3.1v-.4l-.3.3Zm-4.5-7.5,1.2.9.3-1.2Zm.6-7.3-.8.3.7.4Zm-2.7,3.8-.4.5.7.1Zm-3.4,11.7.1-.7-.8.3Zm-4.2-1.6.5-.5-.6-.2Zm1.3,5.1.7.1-.3-.6Zm5.3-25,.1-.8-.9.4.8.4Zm-5.1-1.9.6-.6-.7-.3.1.9Zm1.5,6.2.8.1-.4-.7-.4.6Zm.5-2.6.7-.5-.8-.5Zm-1.5-5.3.8.1-.1-.3,1.8-.8-1-.5.1-.3h-.5l-.5-.2v1.6l-.1-.2-.5.6Zm-3.3,5h-.7l.4.7Zm-4.9,16.9h-.6l.3.6v-.1l.3-.1-.2-.1.2-.3Zm2.5,5.5.4-.2-.4-.3Zm-.8-2.8.4.1-.1-.4-.3.3Zm-1.8,3,.1-.4h-.4l.3.4Zm-3.6-4.1.4-.2-.4-.3Z" fill="#50297a"/>
      <path id="Path_16296" data-name="Path 16296" d="M221.7,198.1h.4l-.1-.3-.3.3Zm-1.8,2.9.2-.4h-.4Zm6.5-3.8.1-.5-.4.1.3.4Zm2.5.6.4.1-.1-.5-.3.4Zm2.9-3.2.1,1,.7-.4Zm-1.4-4.3.8.1-.2-.7-.6.6Zm-3.6,5.6.3-.7h-.7Zm7.3-14.8-.4.6.8.1-.4-.7ZM245,192.9v-.7l-.8.3Zm3.6,3.6-.7.4.7.3V197l.2.1v-.4l-.2.1v-.3Zm-6.6-8.1-.7.4.7.3Zm-5.8-5-.2.8.8-.3Zm16.3,19-.2.8.8-.3Zm-11.9-10.8.4-.5-.6-.2.2.7Zm1.7,5h.7l-.4-.6Zm-2.2-17.2v1.8l1.9-.8Zm-9.8-3.5,1.7-.8.1.5.6-.6-.7-.3v.2l-1.8-.9.1,1.9Zm3,2.1.6-.7-1-.3Zm-1.7,3.9.4,1,.8-.8Zm5.7-3.9-.7.5.8.5v-.2l.4.7.3-.8h-.7Zm-.5,8.2-.3,1,1-.4Zm.1-9.3-.4.2.3.2v.1h.2l.4.2v-.2h.4l-.6-1.1-.3.6Zm.9,5.5-.3.5,1.1.1-.4-.5.4-.5.1.2.4-.6h-.8l.3.4h-1.1l.3.4Zm4,1.9.9-.3-.7-.7Z" fill="#50297a"/>
      <path id="Path_16297" data-name="Path 16297" d="M235.7,182.4l-.7.5.9.5Zm3.6-7.4-.6.6.9.3-.3-.9Zm.7,3.7-.6-1.6-.9,1.5Zm6.9,5-1.3-1.3.4-.4-.6-.2v.3l-.2-.5.9-.4.1.4.3-.2.3,1.6,1.9-1.2.5.4.1-.6,1.5-.2-.2.4-.3.1.2.1-.6,1.3-.6-.6.1-.1-.5-.2-.2-.2-.2,2.1,1-.4.1.1-.4.7h.1l-.2.1-.7.3.3-.9-1.6.6,1.1,1,.2-.6.7.3V185l1,.1-.2-.6,3-.6v.1l-.5.2.4.3-.2,1.4,1.3-.6-.1.7-.1-.4-.5.5.6.1-.2,1.5-.3-.1v1.7l.7-.5v.2l.3-.2-.3,1-1.6-.4.1.4-.8-.2.5,1,.3-.4.2.9,1.2-.9.4-.1v.3l.2-.1-.1.2.3-.1-.6.6,1.2.2-.2-.8.5-.1.9.5-.1-.7,1.1-.3.5-.1-.6,1.1-.2.1.1.1-.4.7-2.1-.3.6,1.7.2-.2.1.5-.4-.2V193l-.6.3-.1-.1v.1l.1.3.2-.2.2.1v.2l.6-.3.2,1,.4-.3-.3,1.1,1.3-.5-.8-.8.7-.5-1.5-.8,1.1-1-.4.8h.2l-.1.2.6-.2-.1-.1,1.4-.3.4.3-.2.2,1.1.4-.6,1.3-.1-.1v.2l-.7.7.6.2-.1.7.6-.2v.1l.1-.1,1.2-.3-.3.5h.3l.5.4V196l.6.1-.1.2-.2.1,1.4,1h.1l.6,1,.8-1.1H264l.4-.6.2.4v.1l-.3.4h.2v.2l-.1-.1-.8,1.3,1.7.2-.1-.2,1.2.2-.8-1.6-.6.9-.4-.7.3-.2.6.1-.2-.3,1.5-.9-4.1-3-.1.5-.5-.1.1.2-1.2-.2,1.7-.5-2.2-2-2.3-2.2-1.1-1.1-.7-.8v.1l-.3-.3-2-1.9-1.4-1.5-2.1-2.4-.7-.9v-.1l-1.3-1.6-2-2.6-.1.1-1.2-.2,1.1-.2-2.1-2.8-.1.2-.2.1-.3-.2.7-.1-2.2-3.1-.1.1v-.1l-1.4.6.8.8-.9,1.7-.4.1-1.7-.9V174l-1.2.5,1.3,1.1.1-1.7.6-.3.5.4v1.2h-.1l.1.8.4-.3V177l1.4-.6.4-.2v.4l.4-.2,1-.2.3.3.3.5.1-.1.5.5V177l.2.8.6-.4.3.2.1-.4.3-.2-.7,1.2H245l.2.3-.7,1.2,1.2-.2-.5.6.3.1.1.4-.9-.6-.1,1.6-.6.9-1.3-.6h.2l-.3-.4,1.4.7-.4-1.7-1.1.9-.1-.1-.4.6.5.1.1,1.8,1.5-.8.8.2-.2,1.6,2.2-1.1Zm12.4,8.2.3-.1-.3.3Zm.6,2.7-.1-.3.7-.2.1.7.3-.2.3.7.1-.1-.1.3Zm3,1.6.9-.4.1.2Zm.7,1.3.1-.4.2.3-.3.1Zm1.1-1.1.1-.1Zm.1-.2-.9.1.1-.3h-.1l.2-.3.8-.4Zm-2.3-1.5-.3,1.5-.7-1.1.8-.8.2.4Zm-1.8-.5-.1-.1h.1Zm-.3-2.2-.3.3-.2-.5.6-.1Zm-6.2-4.1-.1.1H254l.2-.1Zm1.3.8-.4-.5v-.3l-.2.1-.1-.2v-.1l1.4-.4-.7,1.4Zm-7.3-9-.5.8-.8-.3Zm-.7,1.3h0l-.1.1-.3-.1.6-.4Zm.9-1.5-.8-.5,1.2-.2Zm-2.9-3.5.1.1-.3-.1Zm-4.6-2.6,1-.1-.4.4-.6-.3Zm-.8,1.8.7-.3.1.5-.5-.2v.3Zm.8.2.5-.5-.3-.1,1.2-.6-.6-.3.5.1-.2-.6.5-.1v.9l.5-.2.3.2v-.4l.4-.2.4.2-.1.2-.1-.1-.3.8-.3.6-.9-.5v1l-.2-.2-.1.3-1.2-.5Zm5.7.9.1-.1Zm-.3,2.9.5-.1v1l-.3-.1h.1l-.3-.8Zm3.9,7.8,1.2-.4v1l.7-.6-.2.2,1.2.1-.3-1-.1.1-1.4-.6-.2-.2h.4l-.3-1-.5.5-.3-.3-.2,1.4-.7-.1.2.7.4-.4.1.6Zm-4.2-.7.3,1.1.7-1-.4-.1.3-1.2-1.5.3,1.1.8-.5.1Zm-6,2-.1,1.1.8-.4-.7-.7ZM228.8,182l-.1,1.1,1.1-.4-1-.7Z" fill="#50297a"/>
      <path id="Path_16298" data-name="Path 16298" d="M235.6,180.9l-.9.1.6.8.3-.9Zm12.2,6.2,1.6,1.5.1-1h.1l-.1-.1.1-1.1-1.8.7Zm-10.7.9h-.3l.2.4.1-.4,1-.2-.6-.7Zm4.5-4.1-.8.9,1,.2-.2-1.1Zm5.7-1.2.6.7.2-1Zm-27.6-15.9.5-1.1-1.2.3Zm2.8-5.8,1,.2-.5-.9Zm3,7.2.1,1,.8-.7-.9-.3Zm-3.6,3.7.5-1.1-1.2.3Zm2.9,10.7.7.8.5-1.1Zm6.5,2.2.1,1,.8-.7-.9-.3Zm14.8,12.6-.2,1.2,1-.3Zm-3-4.7-1,.1.5.7Zm7.8,0-.6.7.9.3-.3-1Zm-15.8-3.1.4-1.2-1.4.4Zm7.5,1.2-1-.3.2,1.1Zm11.9,2.4-.5-1.7-1.1,1.1-.4-.1.5,1,.5-.7Zm-4.9-4.3-.8.5.8.5Zm8.7,8.7,1.2-1.1-1.7-.8.4,1.5-.4-.4-.2.7.6-.2Zm3.3.1.5.9.7-.8-1-.2.2-.2-1.7-.7.6,1.8.7-.8Zm-8.9-2.3-.5,1,1-.1Zm-2.2-4.2.6-.6-.7-.1.1-.2h-.6l.4.6.1-.2.1.5Zm7.5,1.3-.7.4.7.5v-.5l.5.4.3-.9-.8.3Zm-1.9,12.2.9-.2-.6-.9-.3,1.1Zm-2.4-5,.6-.7-.9-.1.3.8Zm-2.8,1.3,1-.1-.5-1Zm-1.6-5.3.7-.6-1-.1.3.7Zm7.5,2.3-.1-.9-.7.4Zm9.3,2.3-2.1.1.9,1.6.8-1,.5.1-.1-.6v-.2Zm.1,7.2,1.7.2-.9-1.5-.8,1.3Zm-15.5-19.2-.8,1.3,1.7.2Zm13.7,16.2h-.1l-.2-.1v.1l-.7-.2.3.9.4-.4.1,1,1.1-.6-.9-.7Zm-27.7-23.8.1-1-1,.3Zm-6-.2-.3.9.8-.1-.5-.8Zm3.5-5.5.6-.7h-.5l.5-.4-.8-.4.2.8h-.3l.3.7Zm3.5-2.1.4.4.1-.9.1-.1h-.1v-.2l-.5.2h-.2l.1-.5-.6.1.2.3h-.5l.4,1-1.3.3-.8-.5v1.8l1.5-.7.6.4.3-1.4.3-.2Zm-4.8.5.7.3-.1-1.2.3.4.6-1,1.5,1-.1-1.7.4.3.2-.8,1.3.9v-1l.5.2-.2-.7,1.3-.1-1.2,1.3.5.2h.1l.3.1v.3l.2-.2,1.3.5-.6-1.6.8-.7,1.3-.1-2.1-3-.1.2-.2-.3-.4.6h.4l-.8,1.2-.2-.7-1.1,1,.8.4-.4.6-.3-.4v.1l-.1-.4-.1.1v-.8l-4.4,2.7.8.5-.9.1.3.4-.5.3v-1.1l-2.2,1.4,2.3,1.8.1-1.1Zm5.3-3.6-.1.2v-.1l.1-.1Zm32.5,37.9-.2-3.2-.1.1-.1-2.9-.1.1-.2-3.1-1.4.9.6-.8.4-.3-2.9-1.7-.5,3.9.5-.4h.1l.5.9.6-.7h.2l.8.6v.2l.2-.1.8.6-1.7,1.1-.2-.1.9-1.6-2.1.3.5.6-.3.5.8.1.1.1h-.1l.2.3h-.1l.1.1.2.4-.2.2.3.1.2.5.3-.4.3.1V204l1,.7-1.6,1-.1-.4-.9,1.1,1.2.3-.1-.3,2.1,1.3Zm-2-8.2-.6.3-.2-.3.6-.4Z" fill="#50297a"/>
    </g>
    <g id="Group_1263" data-name="Group 1263">
      <path id="Path_16299" data-name="Path 16299" d="M270.1,185.2l-.5.5.8.3Zm1.6,4.6.4-.5h-.7l.3.5Zm2.5-5.7-.1.7.6-.1-.5-.6Zm-8.4,6.5.4-.7-.7-.1.3.8Zm-1.8,3.7.7-.1-.5-.5Zm5.7-1.5.1-.7-.6.3Zm6.7-10.3-.3.3.5.2Zm1.3,2.5h-.4l.2.3.2-.3Zm1.3-3.2-.1.4.4-.1-.3-.3Zm-5,5.2-.5.5.8.3Zm1.7,4.7.4-.6h-.7l.3.6Zm2.5-5.7-.1.7.6-.1-.5-.6Zm-28.8-10.3-.3.7.8-.1-.5-.6Zm3.4,3.5.2-.7-.6.3.4.4Zm-.1-6.2.2.7.5-.4Zm2.9,7.1-.5.5.8.3Zm.8,1.4-.5.5.8.3Zm.8,3.3.4-.6h-.7l.3.6Zm-.6-1.9h-.7l.3.5Zm3-3.2.6-.1-.4-.5Zm-5,1.8-.1.7.6-.1-.5-.6Zm2.1-9.2.6-.5-.6-.3Zm-2.7,2.2-.4.4.7.2-.3-.6Zm5.5,1.4.3-.6-.7.1.4.5Zm-7.4,4.1v.8l.6-.5Zm-.9-.5-.6-.3v.7l-.6.1,1.4,1.7.5-2.1-1,.2.3-.3Zm-6.8-8.6v.8l.6-.5Zm2,2.7v.8l.7-.5Zm12.3-18v.8l.6-.5Zm6.5-4.1v.8l.6-.5Zm-15.4,12.4-.3-.6-.4.4.7.2Zm5.6.1-.7.1.3.5Zm-2.7-.7.4-.6-.7.1Zm-1.2-2.7.3.5.2-.3.3.1v.2l.2-.1.3.1v-.3l.2-.2-.2-.1-.1-1.3-1.9,1.2.7.2Zm-2.7,6-.8.2.7.5Zm-4.3-1.2.5-.4,1,.4-.1-1.9-1.9,1.2.5.2Zm3.7,10.4-.6-.3v.7Zm-.1-3.8-.6.2.5.4.1-.6Zm3.7,3.3-.7.2.6.4.1-.6Zm-6-5.2-.4.5.7.1Zm10.6,5.6.4-.3-.4-.2Zm-1.8,1.4-.2.3.4.1-.2-.4Zm3.8.5-.4.1.2.3.2-.4Zm3,4.5v.5l.4-.2Zm.1-2.7-.4.2.4.1Zm-2.6,2.5-.4-.1.1.4.3-.3Zm8.5,2.2v.5l.4-.1Zm.1-2.6-.4.2.4.2Zm-3,2.4.1.4.2-.4h-.3Zm-.1,5.9.4-.2-.4-.4v.6Zm.2-2.8v-.4l-.4.3.4.1Zm-2.6,2.1-.4-.1.2.4.2-.3Zm11.8,8-.1.5.4-.2Zm0-2.6-.4.2.4.1Zm-2.9,2.4.2.4.2-.3-.4-.1Zm8.9,2.3.4-.2-.4-.4v.6Zm.1-3.2-.4.2.4.1Zm-2.8,2.8.2-.4-.4-.1.2.5Zm10.3-3.1.4-.2-.4-.4v.6Zm.1-2.8v-.4l-.4.2Zm-2.8,2.4.2-.4h-.4l.2.4Zm-19-34.4.2-.4h-.5Zm-4.4-2.1-.3-.3-.1.4.4-.1Zm.5,4.5-.1-.4-.3.2ZM283.7,185h-.4l.2.4.2-.4Zm3.3,2.3-.1.4.4-.1-.3-.3Zm-.6-2.4h-.5l.3.4Zm-4.9-1.9-.1.4.4-.2Zm.6,4.3-.3.2.4.2Zm-14.1-11h-.5l.3.4Zm-5-1.5.4-.2-.3-.3Zm.8,3.9-.3.2.4.2ZM258.7,163l.5-.1-.3-.4Zm.2,6.1v-.4l-.4.1.4.3Zm1.2,3.6v.4l.4-.2Zm-9.6-3.7.8.2-.1-.7Zm-6,3.8,1.4,1.7.5-2.1-1.9.4Zm9.8,12.3.5-2.1-1.9.4,1.4,1.7Zm3.5,1.1-1.8.5,1.5,1.6.1-.3.6.9.6-1.2h-1.1l.1-1.5Zm2.4,4.5.3-1.6-1.4.4,1.1,1.2Z" fill="#a84d3b"/>
      <path id="Path_16300" data-name="Path 16300" d="M247.6,173.3l-.8,1.2,1.7.1Zm0-2.1L247,170l-.8,1.2h1.4Zm.9-1.8h1.3l-.5-1.2Zm2.2,9.3H252l-.6-1.2Zm.6-5.3-.8,1.2h1.3Zm-.8-9.9h1.3l-.6-1.2Zm.6-2.4-1.1-.6.1,1.4,1-.8Zm2.7,1,1.1-.8-1.2-.7.1,1.5Zm2.8-4.2-1.1-.7.1,1.4Zm1.7,1-1.1-.7.1,1.4Zm3.2-3.4.9-.7v.1l.5-.4-.5-.3v.4l-1-.6Zm.8,1.1-1.3.4,1.2.9.1-1.3Zm6.1-7-1.2.4,1.2.9v-1.3ZM256.8,163l.1-1.2-1.1.4Zm.1,15.3-.6-1.2-.7,1.2Zm3.1,5.3h-1.3l.8,1.2Zm1.2,8.2.6-1.2h-1.3l.7,1.2Zm3-1.8h-1.3l.8,1.2Zm3.7-.2-.9-1-.5,1.2Zm8.6,5.1-1.3-.2.4,1.3Zm3.4-.4.9-1.1-1.3-.1.4,1.2Zm-.2,1-1-1-.3,1.3ZM278,200l1.3-.2-1-1Zm.1-1.9.3-1.3-1.3.5Zm2.3.6,1.6,1.2.5-1.9h-1.3l-.8.7Zm2.5.2-.2,1,1.7-.4-.7-.9-.8.3Zm-11.7-.3,1.3.6-.2-1.3-1.1.7Zm.2-10.5-.9-.9-.5,1.2Zm.7,7,1.4-.3-.9-1Zm13.6.2.7-1.3-1.3.1.6,1.2Zm5.7,0-.6-1.2-.9,1Zm-7.7.7-.9,1,1.4.2Zm6.4,1.6,1.4-.4-1-.9-.4,1.3Zm-21.4-5.4h-1.3l.8,1.2Zm-5.1-7.3-.8,1,1.4.1Zm0,8v-1l-1.7.8,1.7,1.4v-1l1.3.1-.6-1.2-.7.9Zm-7-11.6.8,1.2.6-1.2Zm-4.9-4.7.8,1.2.6-1.2h-1.4Zm4.5,8.4-.8,1.2h1.3Zm-2.1-5.4-.8,1.2h1.3Zm-4.2-4.2-.6-1.2-.8,1.2h1.4Zm1.4-11.4-.8,1.2h1.3Zm3.1,3.3-.4-.9-.5.9Zm-7.2.2-1.2-.6.2,1.4,1-.8Zm-2.7,2.9,1-.8-1.2-.6.2,1.4Zm4.8,1.2h1.3l-.5-1.2Zm-6.3-4.2-.8,1.2h1.3Zm1-2.5-1.5,1.1,1.6.6-.1-1.7Z" fill="#a84d3b"/>
      <path id="Path_16301" data-name="Path 16301" d="M248.9,165.8l-.1-1.7-1.5,1.1,1.6.6Zm-5,5.7.5-2.1-1.9.4,1.4,1.7Zm5,7.1.5-2.1-1.9.4,1.4,1.7ZM269.5,197l-.8-.9-.5,1.2,1.2-.2-.8.6,2,.9-.5-2.1-.6.5Zm5.5,1.9-.6-.7-.5,1.2.9-.2-.4.6,2.2.2-1.1-1.8Zm11.7.1,2.1-.8-1.6-1Zm7.9-3.5,1.9-.7-1.5-.9-.4,1.6Zm.6-2.4,1.2-.4-1-.6Zm10.4-4.4,1.2-.4-1-.7-.2,1.1Zm4.4-2.8v-1.2l-1,.4Zm4.3-1.6v-1.2l-1,.4Zm4.4-2.8v-1.2l-1,.4Zm1.3-2.6-.1,1.2-.6-.2v1.3l1.4-.9-.8-.3.9-.6Zm-4.1,2.4.8-.5-.7-.5-.1,1Zm-4.1,1.9-.1,1,.8-.6-.7-.4Zm-8,4-.1,1,.8-.5-.7-.5Zm-2,3.3-.1,1,.8-.5-.7-.5Zm-3,.3-.1,1,.8-.5-.7-.5Zm-1.1,3.3.8-.5-.7-.5-.1,1Zm-3.5-2.7-.1,1,.8-.5-.7-.5Zm7-4.4-.1,1,.8-.5-.7-.5Zm11.2-6-.8.7.9.2Zm-4.7,2.9-.8.7.9.2Zm11.3-7-.8.7,1,.2Zm3,1.8.9.2-.2-.9-.7.7Zm5.4-3.2.9.2-.1-.9Zm1.4-3.3-.8.7.9.2Zm1.8-2.3-.8-.3.1,1,.7-.7Zm2.8,2.2.6-.7-.8-.3.2,1Zm-1.3-2.8-.6.7,1,.2ZM310,186l1,.2-.4-.9Zm6.5-3.9,1,.2-.4-.8Zm18-10.7.7-.7-.8-.3.1,1Zm8.6-5.9.6-.7-.8-.3.2,1Zm3-2.5.8.5-.1-.9-.7.4Zm2.2-1.2.9-.2-.5-.7Zm2-.3.8-.5-.7-.5-.1,1Zm-3.4.9.9-.2-.4-.7Zm-2.2-.6-.3.6.7-.1-.4-.5Zm-1,1.8.1-.6-.7.2.6.4Zm-1.2-1.8-.7.2.6.4.1-.6Zm7.1-2.2-.7.2.6.4.1-.6Zm2.6-.3.1-.6-.7.2.6.4Zm-.5-1.2.7-.2-.4-.5-.3.7Zm2.3-.5.7-.2-.4-.5-.3.7Zm4.5-5.6.6-.2-.4-.5Zm-3.1,4.6.5-.5-.6-.2Zm2.9-3.5.5-.5-.6-.2Zm-4.9,5.7.5-.5-.5-.3Zm-12.1,4.5.8.5-.1-.9-.7.4Zm-.1,2-.3.7,1-.1-.7-.6Zm-11.5,6.9,1,.3-.4-.9-.6.6Zm-38.9,20.1,1.2-.1-.7-1.2Zm8.9.2,1.3-.1-.7-1.2-.6,1.3Zm8.1-4.2,1.4-.9-1.4-.5Zm6.8-4.1,1.4-.9-1.4-.4v1.3Z" fill="#a84d3b"/>
      <path id="Path_16302" data-name="Path 16302" d="M326.3,177l1.4-1-1.4-.5Zm-2.6,1.6,1.4-1-1.4-.5Zm8.3-5.8-.3-.6h.2l-.2-.2-.1.1V172l-.6.7,1,.1v.6l1.4-1-1.4-.5Zm9.7-5.8,1.5-.9-1.4-.6Zm2.9-1.6,1.5-.9-1.4-.6Zm3.3-2.1,1.2-.8L348,162Zm-44,27.4,1.4-.9-1.4-.5ZM260.6,155l.4.1-.2-.5-.2.4-.1-.8-1.7,1.1,1.8.7v-1Zm4.4-3.7-1.7,1,1.8.7-.1-1.7Zm-18.5,16.9.3.6.3-.6Zm3.1,4.7-.2.6.7-.1Zm4.7,4.9-.1-.7-.7.5Z" fill="#a84d3b"/>
      <path id="Path_16303" data-name="Path 16303" d="M249.4,176.8l.3.6.3-.6Zm3.2,4.6-.2.6.7-.1Zm-5.7-14.9.3-.7-.8.1.5.6Zm-2,1.2.2-.6.2.2.1-.8-.7.4.2.2h-.6l.6.6Zm-2.3-.9-.5-.4v.1l-1.8.4,1.4,1.7.3-1.5Zm.4,2.2.6.3-.2-.6-.4.3Zm20.2-16.2-.3.4.5.2-.2-.6Zm2.4,2.5-.5.1.3.4Zm-5.5,2.6.1-.6-.6.2.5.4Zm-1.7-1.4-.7.2.6.4.1-.6Zm-4.5,2.2-.6.2.5.4.1-.6Zm3.6-1.6v.6l.4-.4-.4-.2Zm-1.2-.1v.6l.4-.4-.4-.2Zm1.5,3.2-.3.4.6.1-.3-.5Zm9.6-4.4.2-.6-.7.1Zm-2.6-2.4-.4-.3v.6Z" fill="#a84d3b"/>
      <path id="Path_16304" data-name="Path 16304" d="M264.4,158l.5.2-.2-.5Zm-5.6-.6-.3.6.7-.2-.4-.4Zm-3.1,1.9V159l.3.1-.1-.6-.5.4-.2.1Zm3.7,2.4.5-.4-.5-.1Zm10.1-11.3-.7.1.5.5Zm-2.7.6v.6l.5-.3Zm-.2,1.9-.3.3.5.2ZM253.9,160l.3-.5h-.5Zm1.1-1.7h-.5l.2.5Zm-.3,3.7-.1.5.5-.1Zm-8.3,1.5-.2.5.6-.1-.4-.4Zm2.1,6.4-.1.5.6-.1Zm7.1-9-.4-.4-.2.5.6-.1Zm-5.2,1.2.6.2-.1-.6-.5.4Zm-1-.4-.5.4.6.1Zm2.4,4.6-.5.4.7.2-.2-.6Zm1.1,4,.7.2-.1-.6-.6.4Zm-5.6-7,.2.5.2-.4.8.3-.1-1.9-1.9,1.2,1.1.4Zm2.2,2.4.6-.1-.4-.4-.2.5Zm6.6.1.6.2-.1-.6-.5.4Zm-3.1-.1.3-.5h-.5Zm2.2,3.7.5-.1-.4-.4Zm6.3,16.2.1.7.7-.4-.8-.3Zm4.7,1.5-.2-.7-.4.5Zm-2.7-4.9.3-.6-.7.1.4.5Zm-4.7,3.7-.8-.3.1.7.7-.4Zm3.9,1.2-.2-.7-.4.6.6.1Zm-2.3-5.5h-.7l.4.5.3-.5Zm-3.5,2.4-.6.2.5.5Zm3.8,3.5v.6l.6-.3Zm6.3,4.7-.8-.3.1.7.7-.4Zm3.7.6-.4.6.6.1-.2-.7Zm-2.4-4.3.2-.5h-.7Zm5.2,3.7.1.7.7-.5-.8-.2Zm4.7,1.5-.2-.7-.4.6.6.1Zm-2.3-5.5h-.7l.4.5.3-.5Zm-5.8,6.5.4-.6h-.7l.3.6Zm2.5-5.7-.1.7.6-.1-.5-.6Zm.1,3.7-.2-.8-.5.5Zm1.4,3.9.4-.6h-.7l.3.6Zm3-5.2-.4-.5-.1.7Zm-5.1,6.4.7-.4-.7-.3Zm4.1.7.6.1-.2-.7-.4.6Zm-1.8-5.4h-.7l.5.5Zm-7.5,1.5-.7.3.5-1.1h-1.3l.7,1.2-.9.4,1.7,1.4v-1.5l.7-.4-.7-.3Zm4.1,1.2.6.1-.2-.6Zm-1.8-5.3h-.5l-.1-.5-.5.5.8.3.2.2Zm-10.3-3,.1.7.7-.4-.8-.3Zm-4-4,.1.7.7-.4Zm8.1,7.7-.8-.3.1.7.7-.4Zm5.8,4-.7.4.6.4.1-.8ZM250.5,178l-.7.4.6.4.1-.8Zm12.4,10.9.6.1-.2-.7-.4.6Zm-2.1-4.8.2-.5h.1l-.4-.6-.4.6v.1h.1l.4.4Zm-7-8.2.1.7.7-.4Zm-4-3.9.1.7.7-.4Zm7.4,8.1.7-.4-.7-.3Zm6.4,4.3.1-.8-.7.4.6.4Zm-5.7-7.1.6.1-.2-.7-.4.6Zm-2-4.8.2-.6h-.7l.5.6Zm22.1,23-.8-.3.1.7.7-.4Zm3.8.5-.4.6.6.1-.2-.7Zm-2.2-4.8h-.7l.5.5Zm2.7.8-.7.5.6.4Zm3.3-2.4-.7-.2.2.7Zm-5.8-1.4-.4.6.7-.1-.3-.5Zm5.4,9.7.7.1-.3-.8-.4.7Zm2.3-4.3-.7.1.5.5Zm-5.3,1.6-.5-.3-.1.7Zm24.6-9,.5-.2-.5-.2Zm2.8.6.4.1-.1-.4-.3.3Zm-1-2.8.2-.3h-.5Zm.5-.9v.5l.5-.2Zm3.2,1.4-.1-.5-.3.4Zm-1.2-4h-.5l.3.4Zm.5,5.2.1-.4-.3.2.2.2Zm1.7-1.5.3-.2-.3-.2Zm-2.3-.9h.3l-.1-.3-.2.3Zm-17,9.9.2.5.4-.4Zm3,.1.4-.1-.3-.4Zm-2.3-2.7.1-.4-.5.2Zm4.5,2.2.5-.2-.5-.3Zm5.9-4.7-.3.4.4.1Zm-4.1,2,.2-.4h-.5Zm-5.2-2.1.1-.6-.5.2.4.4Zm-.2,2.8.4-.2-.4-.2Zm3.2-2.9-.3.4.4.1Zm-10.7-3.7-.5.2.4.4.1-.6Zm-.2,3.4.4-.2-.4-.2Zm3.1-2.9-.3.4.4.1Zm-1.9,4.5-.3.5.6-.1-.3-.4Zm-2.7,1.6v-.5l-.4.1Zm3.1,2,.4-.3-.5-.1.1.4Zm7.9-3.4-.3.1.3.3v-.4Zm-.1,2.2.3-.2-.3-.1Zm2-1.9-.2.3h.3l-.1-.3Zm3.9.9.1-.3h-.4Zm-1.3-1.5-.2-.1-.1.3.3-.2Zm-.1,2.7-.1-.3-.2.1.3.2Zm5.4-3.2.1-.3h-.4Zm-1.6-1.6-.1.3.3-.1-.2-.2Zm-.2,2.6.3.1-.1-.3-.2.2Zm-10.9-1.5h-.4l.2.3.2-.3Zm-1.6-1.3-.1.3.3-.1-.2-.2Zm-.1,2.5-.2.2.3.1-.1-.3Zm40-18.7v-.3l-.3.2Zm-1.7-.9-.2-.1v.3Zm-7.9,8,.1-.3h-.4Zm-1.6-1.2.3-.1-.2-.2-.1.3Zm-.2,2.3.3.1-.1-.3-.2.2ZM294,195.1l.1-.3h-.4Zm-1.6-1.2.3-.1-.2-.2-.1.3Zm-.2,2.3.3.1-.1-.3-.2.2Zm16.4-13.8h-.4l.2.3.2-.3Zm-3.6-.9-.1.3.3-.1-.2-.2Zm.8,2.9-.2.2.3.1-.1-.3Zm-2.6-.5.4.1-.1-.3Zm-2.7,1.3h-.3l.1.3.2-.3Zm2.1,2,.3-.1-.2-.2-.1.3Zm-.4-6.6-.3.3h.3Zm-3.1,1.5h-.3l.1.3.2-.3Zm2.2,1.7-.1.3.3-.1-.2-.2Zm9.7-5.6-.3.3h.4Zm-3,1.6h-.3l.2.3.1-.3Zm2.2,1.7v.3l.3-.1Zm5.2-7.5-.3.2.4.1Zm-3,1.5h-.3l.1.3.2-.3Zm2.2,1.7-.1.3.3-.1-.2-.2Zm1.5,0v.4l.3-.2Zm-.9,3.3-.2.2.3.1-.1-.3Zm3.1-.6-.3.1.2.2.1-.3Zm-5.3-6,.1.3.2-.3H313Zm.6,3.5-.2-.2-.1.3.3-.1Zm2.4-1.5v-.3l-.3.2ZM296.2,180l-.3.2.4.1Zm-3.2,1.8.1-.3h-.3l.2.3Zm2.4,1.4-.1.3.3-.1-.2-.2Zm21.2-3.7-.1-.3-.3.3Zm-3.1,1.2h-.3l.1.3.2-.3Zm2.1,2,.3-.1-.2-.2-.1.3Zm-20.3-.9-.3-.1.1.4.2-.3Zm-.3,3.6h.3l-.2-.2-.1.2Zm2.9-1.7-.3.1.2.2.1-.3Zm2.3-.1-.3-.1.1.4.2-.3Zm-.3,3.6h.3l-.2-.2-.1.2Zm2.9-1.6-.3.1.2.2.1-.3Zm1.7-.8-.1.3h.4Zm3.4,1-.3.1.2.2.1-.3Zm-.6-2.9-.3-.1.1.3.2-.2Zm-16.1,6v.6l.5-.3Zm-2,2-.3.3.4.2Zm3.7,1.3.3-.4h-.5Zm-4.1,5.3.1-.6-.5.2.4.4Zm4.7-11.5.1.5.3-.3Zm10.5,2.9-.3.4h.5Zm23.7-14.8-.1-.6-.4.4.5.2Zm1.7-2.8h-.5l.3.4Zm-4.2.1-.2.4.4-.1-.2-.3Zm-8.1,5.9-.5.2.4.3Zm2.1-1.6.1.4.3-.2Z" fill="#a84d3b"/>
      <path id="Path_16305" data-name="Path 16305" d="M315.9,174.9l-.2-.4-.3.4Zm13.1-.7.5.2-.1-.6-.4.4Zm1.7-2.7.3.4.2-.4Zm-3.7.2-.2.4.4-.1-.2-.3Zm-4.3,5.4-.4.4.5.1Zm-3.9,2,.5.1-.1-.6Zm6.7-2.8.5.2-.1-.6-.4.4Zm4.5-2.6.4-.3-.5-.3ZM314.1,181l.4-.3-.5-.3Zm10.2-5.7.2-.3H324Zm-3.9-.3-.1.5.4-.2Zm0,1.9-.5.2.4.3Zm2.5-1.4-.4-.2.1.4Zm-3.8-1.4-.3.4h.5Zm-29.5,22.2-.5-1.1-.9,1,1.4.1v.2l.5-.1-.4-.4Zm.4-2.7v-.4l-.4.2Zm-3.4,1.8.1.5.3-.4ZM325,173.9l.1.6.4-.3Zm-.9-2.7-.3.4h.5Zm-1.8,3.5-.4.1.3.4Zm24.8-13.9v.4l.4-.2Zm2.4.9.3.1-.1-.3-.2.2Zm-.9-2.4.2-.3h-.4l.2.3Zm.5-.8v.4l.4-.2Zm2.3,1.1.3.1-.1-.4-.2.3Zm-.7-3.2h-.4l.2.3.2-.3Zm.5,4.3.1-.4-.3.2.2.2Zm1.4-1.2.2-.2-.2-.1Zm-1.7-.8v-.3l-.2.2Zm-9.6,7.6v.4l.4-.2Zm4.3-3.5-.3.3.3.1v-.4Zm-3.3,1.4h-.4l.2.3.2-.3Zm1.8.7.1-.2h-.3l.2.2Zm-1.3-1.4v.3l.2-.1Zm0,2.4-.1-.3-.2.1.3.2Zm4.6-2.7.1-.3h-.3l.2.3Zm-1.3-1.3-.1.2.2-.1-.1-.1Zm-.2,2.2.2.1-.1-.3Zm2.7-6.1h-.3l.2.2.1-.2Zm-3-.8-.1.3.2-.1Zm.7,2.4-.2.1.2.1v-.2Zm-2-.6-.2.2h.3l-.1-.2Zm-2.6,1.3h-.2l.1.2Zm1.9,1.8.2-.1-.2-.2Zm-.5-5.7-.2.2.3.1-.1-.3Zm-2.7,1.5.1-.2h-.2Zm2,1.3v.2l.3-.1-.3-.1Zm8.3-4.8-.2.2h.3l-.1-.2Zm-2.6,1.3h-.2l.1.2Zm1.8,1.7.3-.1-.2-.1-.1.2Zm4.5-6.6-.2.2h.3l-.1-.2Zm-2.6,1.3h-.2l.1.2Zm1.8,1.7.3-.1-.2-.2-.1.3Zm1.4-.3v.3l.2-.2Zm-.7,2.8-.2.2h.3l-.1-.2Zm1.9-1,.1-.2H356l.2.2Zm-3.5-4.1.1.3.2-.2-.3-.1Zm.4,2.7-.1.2h.3l-.2-.2Zm2.8-1.3-.3.1.2.1.1-.2Zm-16.3,3.2h.3l-.1-.3-.2.3Zm-2.4,1.3.1-.2H337l.2.2Zm1.9,1.4.2-.1-.2-.2Zm16.2-3.3-.2.2h.3l-.1-.2Zm-2.6,1.3h-.2l.1.2Zm.5,1.1v.2l.3-.1-.3-.1ZM341.4,159l-.3-.1.1.3.2-.2Zm-.1,2.8-.1.2h.3l-.2-.2Zm2.4-1.2-.2.1.2.1v-.2Zm1.4-.7-.1.3h.3l-.2-.3Zm2.9.9-.2.1.2.2Zm-.5-2.4-.2-.1.1.2.1-.1Zm-2.8,5.1-.3.3h.4Zm11.2-9.9-.4.2.3.3Zm1.8-1,.3-.2-.4-.2Zm-3.3-1.1h.4l-.1-.3Zm2.9,2.5.1-.5-.4.2Zm1.9-3.7.1.4.3-.2Zm-1.7.6-.3.3h.4Z" fill="#a84d3b"/>
    </g>
    <g id="Group_1264" data-name="Group 1264">
      <path id="Path_16306" data-name="Path 16306" d="M194.5,124.1l-.6.6.7.3-.1-.9Zm2.7-2.5-1.2-.2.6,1,.6-.8Zm-11.5,23.7h1l-.5-1.1Zm9.1-8.1-.5,1.1h1Zm12.1-27-.5,1.1h1Zm-2.2,2-.5,1.1h1.1Zm-2.9-1.1-.7.2.5.4Zm2,.7-.7.2.6.4.1-.6Zm-1.1-2.1v.7l.6-.4-.6-.3Zm2.6-1.1v.7l.6-.4-.6-.3Zm-2.6,13.6.1-.5.1-.1h-.1l-1.6-.7v2l-.2-.4-.4.8-.8.1-.2-.7-.8.8v-.4l-.7.7.3.1-.1.1,1.8.8-.3-1.1,1.4,1.4v.1h.1l.7.8-1.7.2.8.8-1.5.3h-.4v.1l-.8.1,1.2,1.1.1.3.1-.1,1.6,1.4.2-.7.2-.1-.1-.1.6-2.4.3-.9.9-2.9h-.1l.2-.9h-.9Zm-.1.1-.6.1.4-.3.2.2Zm-1.4.7.4-.3.5.4-.8.1-.1-.2Zm3.5-8,.5.9h-.3v-.1l-.1.1-1.5.1,1.6,1.7.6-1.9.5-.7Zm-13.4,5.9-.3.7.7-.2Zm8.8,5.5h-1l.3.8Zm.4-1.4-.2.8.7-.1-.5-.7Zm-.2-4.1-.8.3.7.4.1-.7Zm-11.1,5.4-.4.4.4.2Zm1.7-1.8-.4-.1.2.4Zm-3.6-.2-.2.4.4-.1Zm19.4-11.4.3-.5h-.7Zm-5.7.4-.1.7.6-.3-.5-.4Zm-6,33.4-.3.7h.7Zm-3.7-1.5-.6-.3v.7Zm6-7.2-.6.6.7.2-.1-.8Zm-8.9,4.4-.7-.3v.7Zm3.6,1-.4.5.6.2-.2-.7Zm-2.4-5.1.4.6.3-.5Zm1.1,14.4-.3-1.5-.1-.4-1.3,1.4.5.1,1.2.4Z" fill="#50297a"/>
      <path id="Path_16307" data-name="Path 16307" d="M188.4,149.2l.4.6.3-.5Zm4.3-10.3.1-.2.7.3-.5-2-1.4,1.2.9.4Zm3.2-2.7.1.4.3-.3-.4-.1Zm-1.8-8.6.5-.2-.3-.3Zm-2,1.3-.1-.4-.3.2.4.2Zm3,1,.1.4.3-.3-.4-.1Z" fill="#50297a"/>
      <path id="Path_16308" data-name="Path 16308" d="M201,130.2l.1.3H201l-1-1.4-.4.7H199l-.1-.4-.5.5h-.9l.8,1.6-.2-.1.1.8.3-.2.1.3.6-1.3.7.5v.8l-2.1.5.4-.5-1.2-.2.4.7-.8.7-.1-.2-.5.7h.1l-.2.2,2.4,1.1-.2-.8.4-.6.8.6-.1.1-.5-.1.1.5-.4.3,1.1.5-1.3.4.3.2-.5.1v-.1l.2-.3-.3-.1-.1-.4-.4.4-.4-.1.1.3-.7.7.4.2.8.6v1.7l.2-.2v.1l-.3.4h.2l-.2.5-1.2.3.1-.1-1.2-.2.5.9-1.1.9-.7.1v-.2l-.2.2h-.2l-.5-1.5-1.3,1.3,1.6.6.1.2-.3.1.5.5-.9.7-.2-.4-.5.7.9.2-.1-.2,1.3.7.1-1.9.1-.2.2.1-.1-.4.2-.4.9.5-.3.3.3.1-1,1.3.8.2v.1h-.1v.3l-.2.3h.1v.4l.7-.4h.3l-.1-.3.5.4-.6.4-.8.2.3.2-.5.4,1.6.8-.1.1.2.1-1.6.4.7.6-1.7,1.2.7.4-.4.8-.9-1.2-.2.4h-.1v.3l-.5,1.1-1.2-.2.3,1.4.9-1-.1.2,2.1-.5-.2-.3h.4v.4l-2.5.7.4.3h-.1v-.1l-.3.2-1.3.5.4.5-.4.6-.3-.4-.1.5.4-.1-.3.4H192v.1h-.9l.5,1.1.6-.7.3.6-.5.2.5.4h-.2l.2.3-.4.4,1.9.6-.6.1,1.1.9v.4h-.7l.5,1-.3.1-.6-1.2-1,1.5,1.5.3,2.4,2.1.4-2.7h.2l-.2-.3v-.1l.2-1.1h.1V158l.2-1.1h-.1l.2-1.4v-.1l.1-.9.1.1.1-.6.1-1.1.1.1.1-.7h-.1v-.1h.1l-.1-.1v-.2h-.1l-.1-.1v-.6l.3.2.1-1.4.1-.8h.2l-.2-.3.3-2h-.1l.2-1.1.1-.2h-.1l.4-2.1.1-.3-.6.3-.2-1,.8.6.3-1.6.1-.4.2-1.1.1-.3h-.2l-.6-1.1.9.7.7-3.4h-.1l.1-.4-.2.1-.1-.5.4.3.6-3.4h-.1v-.1l.3-.2-.2-.1.3-1.2-.2.1.3-.3H201Zm-3,9.5.8.2-.5.1Zm-2.2,9-.3-.1v-.1l.3.2Zm-3.4,4.4h.5l-.4.9-.2.1.1-1Zm.7-.3-.1-.3.2.1-.1.2Zm-.5-.5-.1.2Zm-.5,1.9Zm2.5,1.1-.1.1v-.1Zm.9,0-.1-.2.5-.1Zm-1.8,1.8.3.2.1.1h-.2l-.2-.3Zm1.2,2.5-.5.1.6-.7.5.4Zm-.6-.1v.2H194Zm.3-2.2v-.1h-.3l.1-1.2.8.1.3.2-.2.5h1l.4.2Zm2.3-2.9-.9.6-.4-.5.9.1-.2-.5.3.2v.1h.3Zm-1.7-1.1.4.2-.4.4-.4-.5-.6,1.4-1.9.6.5-1h.1l1.1.3-.2-.5.6-.1-.7-.9.8.6.3-2,1.4.1v.1l.3-.1-.1.2h.5l-1.7,1.2Zm1.6-1.6-.3-.4-.1.4-.3-.6.7.4v.2Zm-.8-.9-.1-.3-1,1.1v-.2l.3-.3-.7-.3h.6l-.3-.7.6.3.1-1.4.5-.3,1.2.9-1.3.5.6.3-.5.4Zm1.9-3.8.1-.3-.6.2.2.3-.9.2v-.5l-.4.4.1-1.9,1.9,1.6h-.4Zm0-3.3-1.3.3-.3-.7.8.3-.3-.9.5.3v.1l.1-.1.9.5-.4.2Zm-1.2-1.3-.3-.8-.3.4-.2-1,.2-.3,1.2,1h-.1l.2.1-.7.6Zm2.7-11.7.7.1-.8.2Zm-1.4,3-.1-.5.7.6-.6-.1Zm4.8-17.7.5-.2-.3-.3Zm-2,1.4-.1-.4-.3.2.4.2Zm-13.5,13.2h-.5l.2.5Z" fill="#50297a"/>
      <path id="Path_16309" data-name="Path 16309" d="M191.2,133l-.4.2.3.2.1-.4Zm-6.8,9.3.1-.4-.4.2.3.2Zm2.8-3.1.3-.2-.4-.2.1.4ZM195,153l.5-.1-.3-.4Zm-4.8-6.2-.8.6,1.1.5Zm-2,0-.2-.9-.6.5Zm1.7,3.9h-.8l.3.6Zm2.6-4.9.7-.1-.5-.6-.2.7Zm4.8-18,.4,1.1-.1.1.1.1.2.4,1-1.5-1.4-.1-.2-.5-.5.5.5-.1Zm-3.4,4.7.3-.6h-.6Zm1.1,2.4.4.6.2-.6H195Zm4.9-14.9.3.6.3-.6h.1v-.1l.1-.2h-.2l-.1-.4-.3.4h-.2l.1.2-.1.1Zm-3.4,4.8h-.7l.4.7Zm-1.5-5.7-.3.8.8-.2-.5-.6Zm4.4-.2-.6.6.7.3-.1-.9Zm-3.2-3.3-.3.7.7-.2Z" fill="#50297a"/>
      <path id="Path_16310" data-name="Path 16310" d="M204,117.3l-.5.7.7.1-.2-.8Zm1.9-2.9.3-.5h-.7Zm-5.6.3-.2.7.6-.3-.4-.4Zm1.7,1.2-.5-.1.2.4-.3.3.8.1-.2-.5.1-.2H202Zm-3.8,5.5h-.7l.4.7Zm-4.4,20.5,1.1-1.4-1.3-.2-.4-.8-.5,1.1h.8l.3,1.3Zm2.4-2.4-.4.4.7.3-.1-.6.8.2-1-1.9-1,1.5Zm-1.4-7.9v1.7l1.4-1Zm1.5-1.4-.1,1.2,1-.7Zm-.9,7.3.2-.9-1,.2Zm-5.5-7.5-.5.9h.9Zm-4.5,2.2-.5.9h1.2Zm5.9,1.5.2,1,.7-.7Zm-5.6,5.3-.9.4.9.5Zm7.6-6.6-1.2.4.8.7.4-1.1Zm2.9-4.8-.5-.8-.4.8Zm-5,13.3-.8.5.8.4v-.5l.4-.2Zm-3.5-5.2h0l-.2-.3-.1.2-.5-.1.2,1,.6-.8Zm7.6-2.3-.1-.1v.1H195l.1.3v.1h.1l.2.6v-.1l.1.2.3-.6h-.2l.2-.4-.5-.1Zm8.7-14.7.2-.3-.4-.1.2.4-2.7.3.4.4-.3-.1.4.7.2-.3,1.2,1.3-.3-.2.1,1,.6-.4.1-.1h-.1l.4-1.3.3-.5h-.2l.3-.9Zm-10.8,17.6-.2.4.7-.2-.3-.3.7-1.3-1.2.2v-.4l-.3.2.3.2-.5.1ZM191,146.9l1.2-.1-.6-.9-.6,1Zm-3.5,5,.6-.7-1-.3Zm-1.4-8.1.1-1-.9.6.8.4Zm-3.5-13,1.1.6-.2-1.2-.9.6Zm5.6,3.2-.2,1,.9-.4Zm-7.7,3.3.4-.8h-1Zm11.7,12.4-.4.2.6.3-.1-.3,1.6-1.2-.6-.3v-.2l-.1.1-1-.5Zm-6.8-9.5-1,.2.8.6Zm4.4,1.9.7-.9h-1.2Zm3.9-5.1.9.4-.3-1-.6.6Zm0-17.6-.3,1,1.2-.2Z" fill="#50297a"/>
      <path id="Path_16311" data-name="Path 16311" d="M194.5,126.6l1,.3-.2-.9Zm-7.1,18,.1,1.1,1.1-.6-1.2-.5Zm5.9,2.7,1.6-.6-1.5-.8-.1,1.4Zm-5-7.6-1-.2.2.9Zm-6.4.2,1.2-.5-1.2-.7Zm6.7-2.6.7.9.1-.7h.7l-.8-1-.3.6Zm-3.8,9.1H186l-.4-.9Zm6.3,3.7v.4l-.4.7,1-.1-.2-.3.5-.4-.9-.3Zm.7-.1-.2-1.9-1.4,1.4,1.6.5Zm-3.1-1.4.6.8.5-.9-1.1.1Zm-1-.1.5-1-1.1.2Zm2.7-5.1.9.2-.4-.9Zm4.7,21.1,1-1.3-1.4-.3Zm-1.7-1.8.9-.3-.8-.5-.1.8Z" fill="#50297a"/>
    </g>
    <path id="Path_16312" data-name="Path 16312" d="M180.1,233.8c-.4-1.3-2.3-5-3.6-7.6a9.7,9.7,0,0,0-3.5-3.9l-1.4-4.6a.412.412,0,1,0-.8.2l1.5,4.8c0,.1.1.1.2.2a9.976,9.976,0,0,1,3.3,3.7l3.6,7.5c.3.8.1,1.1,0,1.2-.4,0-2.02-1.06-4.43-4.46a.57.57,0,0,0-.17-.24h0l-.02-.02a.413.413,0,0,0-.48-.08h-.01a6.681,6.681,0,0,1-3.7-1c-1.7-1.1-2.4-4.2-2.4-4.2a.412.412,0,1,0-.8.2c.1.1.8,3.4,2.8,4.7a7.5,7.5,0,0,0,3.84,1.1,75.152,75.152,0,0,0,2.16,9.6l.2.6c.9,2.8,1,3.1.7,3.7a.781.781,0,0,1-.4.4,1.978,1.978,0,0,1-1.1-.2l-3.1-7.68a6.592,6.592,0,0,0,1.1-1.32c.1-.2.1-.5-.1-.6s-.5-.1-.6.1a7.492,7.492,0,0,1-6.9,3,.453.453,0,1,0-.1.9c.1.1.4.1.9.1a9.4,9.4,0,0,0,1.63-.14l3.17,6.34c.1.1,1,2,2.5,2a1.6,1.6,0,0,0,1.6-.9,1.565,1.565,0,0,0,.22-.8,2,2,0,0,0,.58.1,1.268,1.268,0,0,0,.6-.1,2.637,2.637,0,0,0,.9-1.1c.4-1,.2-1.5-.7-4.3l-.2-.6a71.594,71.594,0,0,1-1.9-8c1.7,2.2,3.3,3.6,4.1,3.7a.845.845,0,0,0,.6-.2c.3-.3.7-.8.2-2.1Zm-5.5,13.3c-1,.4-1.9-.9-2.2-1.4l-3.08-6.16a7.5,7.5,0,0,0,2.56-1.3l3.12,7.65a.333.333,0,0,1,.06.1.9.9,0,0,1-.46,1.12Z" fill="#cc7a5e"/>
  </g>
</svg>
