<svg xmlns="http://www.w3.org/2000/svg" xmlns:xlink="http://www.w3.org/1999/xlink" width="203.896" height="153.869" viewBox="0 0 203.896 153.869">
  <defs>
    <linearGradient id="linear-gradient" x1="0.802" y1="0.502" x2="0.203" y2="0.498" gradientUnits="objectBoundingBox">
      <stop offset="0" stop-color="#da7f57" stop-opacity="0"/>
      <stop offset="0.92" stop-color="#aa5f4b"/>
    </linearGradient>
    <linearGradient id="linear-gradient-2" x1="0.301" y1="0.549" x2="0.735" y2="0.445" gradientUnits="objectBoundingBox">
      <stop offset="0" stop-color="#cc7a5e" stop-opacity="0"/>
      <stop offset="0.92" stop-color="#aa5f4b"/>
    </linearGradient>
    <linearGradient id="linear-gradient-3" x1="0.306" y1="0.422" x2="0.682" y2="0.545" xlink:href="#linear-gradient-2"/>
    <linearGradient id="linear-gradient-4" x1="0.558" y1="0.501" x2="-0.178" y2="0.508" gradientUnits="objectBoundingBox">
      <stop offset="0" stop-color="#ffbd00"/>
      <stop offset="0.98" stop-color="#ffa000"/>
    </linearGradient>
    <linearGradient id="linear-gradient-5" x1="0.574" y1="0.566" x2="0.282" y2="0.314" gradientUnits="objectBoundingBox">
      <stop offset="0" stop-color="#ef8200" stop-opacity="0"/>
      <stop offset="1" stop-color="#ff5e00"/>
    </linearGradient>
    <linearGradient id="linear-gradient-6" x1="0.443" y1="0.12" x2="0.672" y2="0.745" gradientUnits="objectBoundingBox">
      <stop offset="0" stop-color="#ffd112"/>
      <stop offset="0.98" stop-color="#ffa000"/>
    </linearGradient>
  </defs>
  <g id="_176" data-name="176" transform="translate(-133.463 -78.775)">
    <path id="Path_16824" data-name="Path 16824" d="M319.8,116.1l2.6-2.4,5.2-5.1c1.3-1.3,8.6-17.4,8.6-17.4l-8.6-2.3-9.2,7.8-3.3,8.4,4.7,11Z" fill="#da7f57"/>
    <path id="Path_16825" data-name="Path 16825" d="M331.5,78.8l5,.4a.964.964,0,0,1,.7,1.5l-13.5,22.1a.951.951,0,0,1-1,.4l-5.8-1a.947.947,0,0,1-.6-1.5l14.2-21.4c.4-.4.7-.6,1-.5Z" fill="#1f2b36"/>
    <path id="Path_16826" data-name="Path 16826" d="M273.8,136.7s4.3,1.4,7-.7a217.839,217.839,0,0,0,24.6-22.6,41.749,41.749,0,0,0,6.2-8.6,14.368,14.368,0,0,0,1-6.5c-.1-2,2.6-4.2,4-5.7s7.6-4.3,7.6-4.3,1.2.7-.2,3.7-5,5-5,5-1,3.4-1.8,5.2l-.8,1.8s1.1-.3,3.8,2.3,1.6,7.4,1.6,7.4l-11.5,21.9c-4.9,8.9-8.7,15.1-11.2,19.2-3,4.9-7.8,11.7-12.8,14.1a18.8,18.8,0,0,1-12.6,1l.1-33.2Z" fill="#e89976"/>
    <path id="Path_16827" data-name="Path 16827" d="M290.7,127.7a74.659,74.659,0,0,1,3.9,17.4c1,10.7,2.5,13,2.5,13s-6.8,11.6-17.7,12.3c-2.7.2-7.2-1.4-7.2-1.4l1.4-33s3.4,1.6,4.4,1.4c2.7-.4,6.2-3.3,12.7-9.7Z" opacity="0.74" fill="url(#linear-gradient)"/>
    <path id="Path_16828" data-name="Path 16828" d="M329,87.1c.7-1.6,3.2-.8,4.2-.3s4.2,1.6,3.4,3.3c-.8,1.8-2.1,2-4.3,1.1-2.2-.7-3.9-2.7-3.3-4.1Z" fill="#ea9d7d"/>
    <path id="Path_16829" data-name="Path 16829" d="M334.3,92.2a5.666,5.666,0,0,1-2.2-.5,6.013,6.013,0,0,1-3.4-3,2.047,2.047,0,0,1-.1-1.7,1.887,1.887,0,0,1,1.2-1.1,4.824,4.824,0,0,1,3.6.6l.6.3c1,.5,2.6,1.2,3,2.3a1.851,1.851,0,0,1,0,1.46,2.469,2.469,0,0,1-2.7,1.64Zm-3.6-5.6a1.7,1.7,0,0,0-.7.1,1.345,1.345,0,0,0-.7.6,1.1,1.1,0,0,0,.1,1,5.623,5.623,0,0,0,3,2.6c2,.8,3,.6,3.8-.9a.637.637,0,0,0,0-.6c-.3-.8-1.7-1.4-2.6-1.8a12.088,12.088,0,0,0-2.9-1Z" fill="#cc7a5e"/>
    <path id="Path_16830" data-name="Path 16830" d="M323.9,96.9c.1-1.7,2.7-1.9,3.8-1.8s5.2.1,5,2-1.9,2.5-4.2,2.4c-2.4.1-4.7-1.2-4.6-2.6Z" fill="#ea9d7d"/>
    <path id="Path_16831" data-name="Path 16831" d="M328.7,100h-.3a6.432,6.432,0,0,1-4.3-1.6,2.084,2.084,0,0,1-.7-1.5,1.91,1.91,0,0,1,.7-1.4,5.054,5.054,0,0,1,3.5-.8,1.268,1.268,0,0,1,.6.1c1.3.1,3.5.3,4.3,1.3a1.594,1.594,0,0,1,.4,1.2c0,2.5-2.9,2.7-4.2,2.7ZM327,95.5a4.142,4.142,0,0,0-2.3.6.91.91,0,0,0-.4.8,1.268,1.268,0,0,0,.4.9,5.177,5.177,0,0,0,3.7,1.3c3.2,0,3.7-1.1,3.8-2.1a.735.735,0,0,0-.2-.6c-.6-.7-2.7-.9-3.8-1-.3,0-1,.1-1.2.1Z" fill="#cc7a5e"/>
    <path id="Path_16832" data-name="Path 16832" d="M322.7,101.1c0-1.6,2.4-1.7,3.4-1.6s4,0,3.9,1.8-1.1,2.4-3.2,2.3c-2.1,0-4.2-1.2-4.1-2.5Z" fill="#ea9d7d"/>
    <path id="Path_16833" data-name="Path 16833" d="M327,104.1h-.3a5.7,5.7,0,0,1-3.9-1.5,2.2,2.2,0,0,1-.6-1.5,1.613,1.613,0,0,1,.6-1.3,4.4,4.4,0,0,1,3.2-.7,1.268,1.268,0,0,1,.6.1c1.3.1,3.8.3,3.7,2.2-.1,2.3-1.7,2.7-3.3,2.7Zm-1.6-4.2a3.323,3.323,0,0,0-2,.5.908.908,0,0,0-.3.7,1.489,1.489,0,0,0,.4.9,4.9,4.9,0,0,0,3.3,1.2c2.2.1,2.7-.7,2.8-1.9.1-1-1.5-1.2-2.9-1.3-.3,0-1.1-.1-1.3-.1Z" fill="#cc7a5e"/>
    <path id="Path_16834" data-name="Path 16834" d="M325.6,92.1c.5-1.7,3.4-1.6,4.6-1.3s5.5,1,4.9,3c-.6,1.9-2.4,2.1-4.9,1.7-2.6-.3-5.1-2-4.6-3.4Z" fill="#ea9d7d"/>
    <path id="Path_16835" data-name="Path 16835" d="M331.9,96.1a12.252,12.252,0,0,1-1.9-.2,7,7,0,0,1-4.5-2.4,2.318,2.318,0,0,1-.3-1.6c.6-2,3.7-1.9,5.1-1.5a4.331,4.331,0,0,0,.5.1c1.4.3,3.9.9,4.6,2.1a1.468,1.468,0,0,1,.1,1.3c-.6,1.7-2,2.2-3.6,2.2ZM326,92.2a1.02,1.02,0,0,0,.2.9,6.1,6.1,0,0,0,4,2c2.8.4,4,0,4.5-1.4a.637.637,0,0,0,0-.6c-.5-.9-3-1.5-4-1.7a4.331,4.331,0,0,1-.5-.1c-1.1-.3-3.8-.6-4.2.9Z" fill="#cc7a5e"/>
    <path id="Path_16836" data-name="Path 16836" d="M247.5,115.8l29.2,21.6-1.3,43.2-22.9-7.3-5-57.5Z" fill="#ffa700"/>
    <path id="Path_16837" data-name="Path 16837" d="M215.3,113.6s-16.8,3.1-32.3,7.5c-15.7,4.5-22.1,9-26.8,13.4-5.5,5.2-8,14.2-11.4,28.1-3.4,13.8-8.7,42.8-8.7,42.8a28.244,28.244,0,0,0-2.6,13.4c.4,7.7,1.2,8.5,1.4,9.6s1.7.2,1.7.2.3,2.76,1.6,3.26c1.73.47,1.57-1.43,1.57-1.43s1.23,1.27,2.13,1.27,1.9-3,2.1-5.1,2.4-7.2,2.7-8.2.4,2.3.7,4c.2,1.7,2,2.8,2.3-.2.3-3.1.9-5.6.9-6.5a29.2,29.2,0,0,0-.5-4.5l-.2-1.5s-.3-1.2,1-4.1c1.4-2.9,16.3-31.8,18.8-36,3.2-5.4,13.1-11.2,18.1-12.7,8.8-2.6,27.9-7.5,27.9-7.5l-.4-35.8Z" fill="#ea9d7d"/>
    <path id="Path_16838" data-name="Path 16838" d="M136.4,204.7a.758.758,0,0,1-.2-.4c.1-.4,8-40.1,11.2-52.9,2.8-11.3,7.7-16.6,11.2-19.2a31.1,31.1,0,0,1,4.1-2.6c.2-.1.4.1.5.3s-.1.4-.3.5a27,27,0,0,0-5.4,3.8c-5.2,4.6-8,12-9.3,17.3C145,164.3,137.1,204,137,204.4a.382.382,0,0,1-.5.3Z" fill="#cc7a5e"/>
    <path id="Path_16839" data-name="Path 16839" d="M166.7,175.4l-6.1-20.9c-3-10.3-9.5-12.5-9.5-12.5a30.282,30.282,0,0,1,14.1-13.4,10.4,10.4,0,0,0,3-1.8L183.5,159l-4.5,2.3c-5,2.8-8.5,5.8-12.3,14.1Z" fill="url(#linear-gradient-2)"/>
    <path id="Path_16840" data-name="Path 16840" d="M185.3,157.9c3.7-1.3,19.4-5.4,19.4-5.4l3.9-17.9a101.557,101.557,0,0,1-17,2.4c-10.8.7-17.2,1.8-19.3,7.1-3.5,2.7-6.1,8.2-8.5,10.9-3.1,3.3-12.4,21-16.8,31.2-3.3,7.7-5.1,19.9-1,26.4.8,1.2.7,11.8,3.3,11.6.1,1.3,1.4-5.3,1.4-8.6a26.079,26.079,0,0,0-.7-6.2l1.3-4.5,18.5-35.3c1.1-1.5,1.8-3.6,5.1-5.5,3.9-2.8,7.4-5.2,10.4-6.2Z" fill="url(#linear-gradient-3)"/>
    <g id="Group_1312" data-name="Group 1312">
      <path id="Path_16841" data-name="Path 16841" d="M137.5,232.36c-1.37-.63-1.17-3.03-1.17-3.13h0l.86-7.33a.453.453,0,1,1,.9.1l-.7,7.1c0,.6-.22,2.13,1.1,2.3.77.03,1-1.27,1.14-1.44.1-.2.26.24.46.34a.382.382,0,0,1,.3.5,2.606,2.606,0,0,1-.93,1.46,1.61,1.61,0,0,1-1.96.1Z" fill="#cc7a5e"/>
      <path id="Path_16842" data-name="Path 16842" d="M139.43,230.43,141,221.8a.382.382,0,0,1,.5-.3c.2,0,.48.18.4.7l-1.5,8.24a.822.822,0,0,0,.68.76,1.268,1.268,0,0,0,.6-.1c.4-.33.53-.74,1.3-3.5.72-2.57,3.4-9.9,3.5-10.1a.55.55,0,0,1,.5-.3c.2,0,.3.2.4.4.3,4.3.78,6.22,1.4,6.4.36-.02.4-.2.6-1,.3-1.4.8-6.5.9-8.2a10.055,10.055,0,0,0-.8-4.8c0-.1-.1-.2,0-.3l1.3-4.8c.1-.2.3-.4.5-.3s.4.3.3.5l-1.3,4.6a9.034,9.034,0,0,1,.9,5.1l-.9,8.3c-.3,1.3-.8,1.6-1.3,1.7a.894.894,0,0,1-.87-.2c-.93-.62-1.2-2.47-1.23-5.3-.8,2-2.28,6.27-2.9,8.4-.8,2.77-1,3.72-1.64,4.22a1.682,1.682,0,0,1-1.5.37c-.56-.15-1.3-.42-1.42-1.86Z" fill="#cc7a5e"/>
    </g>
    <path id="Path_16843" data-name="Path 16843" d="M187.8,205.7a4.253,4.253,0,0,1-.2,1.1v.1a2.034,2.034,0,0,1-.1.5v.1h85.8l-10.2-66c-2.2-11.7-10.5-42.4-36.6-41.7-4.4.1-8.7.3-12.8,2.8-.1,0-2.3,1.6-2.7,1.8-1.8,1.4-8.1,8.2-13.2,34.4-2.1,11.7-10,66.9-10,66.9Z" fill="url(#linear-gradient-4)"/>
    <path id="Path_16844" data-name="Path 16844" d="M245.5,125.3s2.6,11.3-6.4,29.8c-4.9,10.1-7.5,14.9-20.6,24.4-12.7,9.3-14.6,11.4-19.3,15a120.55,120.55,0,0,0-11.1,10.4l6.5-45.1,50.9-34.5Z" fill="url(#linear-gradient-5)"/>
    <path id="Path_16845" data-name="Path 16845" d="M160.5,123.9l25.4,46.8s37.2-19.3,47.5-26.9,17.3-21.3,10.3-34.2c-7.3-13.4-27.5-9.2-36.2-5.4-4,1.8-47,19.7-47,19.7Z" fill="url(#linear-gradient-6)"/>
    <path id="Path_16846" data-name="Path 16846" d="M272.4,200.6l.9,6.9H187.4l1-7ZM160.5,123.9l25.4,46.8,5.95-3.1L166.6,121.3l-6.1,2.6Zm116.3,13.5-1.3,43.2-6.1-1.9,1.5-45.6Z" fill="#ffedaf"/>
    <path id="Path_16847" data-name="Path 16847" d="M161,123.7l-.9.5L185.5,171l.9-.5ZM273.3,207H187.4v1h85.9Zm2.9-69.7-1.3,43.2h1l1.3-43.2Z" fill="#c96818"/>
    <g id="Group_1313" data-name="Group 1313">
      <path id="Path_16848" data-name="Path 16848" d="M308.4,129.1l-1.2-.6.3,1.3.9-.7Zm6.8-5.2-.1-1.1-1.2.6,1.3.5Zm1.2-7.3-1.2.7,1.3.4-.1-1.1Zm-2.9,4.5.3,1.1-.3-.5-.6,1.2h1.3l-.3-.5.8-.7-1.2-.6Zm6.2-5.3.5-.5.4.6,1-1.7-1.9.3.4.6-.6-.3Zm-12.9,18.6-.2-1.3-.9.9,1.1.4Zm-3.2,4.1-.9.9,1.1.4-.2-1.3Zm-1.2,8.6-.8.8.9.3V148l.3.4-1.9.3,1,1.5,1-1.6.8-1.4-1.3.2Zm-1.7-4.2-.7.8.9.3-.2-1.1Zm2.6,2.9-.7.8.9.3-.2-1.1Zm14.3-27.4-.2-1.1-.7.8.9.3Zm-3.4,1.1-1.3-.5.4,1.3Zm1.4,1.1-.9-.3.1.8Zm.8-1.2-.4.6.7.1-.3-.7Zm.3-3.9-.8.1.5.5ZM308.5,129l.2-.9-.8.3.6.6Z" fill="#da7f57"/>
      <path id="Path_16849" data-name="Path 16849" d="M306.6,137.1l.2-.9-.8.4.6.5Zm3.4-10-.8.4.6.5.2-.9Zm3.1-1,.5-.4-.5-.2v-.8l.9-.7-1.2-.6.3,1.2-1.2.7,1.1.4.1.4Zm-5.1-4-.4.6h.8Zm1.9,7.3-.5,1,1.2-.1-.5-.9h.3l-.3-.6-.5.6Zm-.5,2.8-.7-.6-.3.8Zm-.9,1.6-.2.7.9-.1-.7-.6Zm2.7,0,.7-1.2-1.4.1.7,1.1Zm-1.1,2.1.7-1.2-1.4.1.7,1.1Zm-2.2-3.9-.6,1.3,1.3-.1-.7-1.2Zm10.2-14.8-.7-1.2-.6,1.3,1.3-.1Zm-13.5,20.9.8-.1-.6-.5-.2.6Zm-.1,7-.5.2.4.4-1.1.1.5.8.6-.9.1-.6.1.2.4-.7-.8.1Zm6.3-25.2-.3.5.6-.1-.3-.4Zm-2.8.8-.4.1.3.4Zm3.1,2.8.4-.2-.5-.2.1.4Zm7.2-7.8-.3-.4-.3.5.6-.1Zm-3.1.4-.4.1.4.3Zm3,2.4-.7.1.1.2-.3.3-.6-.6-.1.9.6-.2-.2.2.9.3-.1-.4.5.7,1-1.8-1.1.3Zm-11.9,12.2-.7.2.7.7Zm-.2,4.8.1.7.7-.4-.8-.3Zm-6.5,10.9-.6-.2.2.7Zm1.4,1.7-.7-.2.2.8Zm7.1-18-1,.4,1,.9v-1.3Zm-6.9,7.3-.6.2.6.5Zm.9-.7.6.5v-.7h-.1v-.4l-.6.2.3.3-.2.1Zm-3.6,8.9,1.1-.7.2.4.4-.7h-.7l.1.3-1.2-.4.1,1.1Zm1.1,2.9-1.2-.4.1,1.1,1.1-.7Zm-.2,2,1.1-.7-1.2-.4.1,1.1Zm3.6-5.1-1.2-.4.1,1.1,1.1-.7Zm12.4-26.8.7.3v-.6l-.7.3Zm-4.5,3.9.4-.6-.6-.2.2.8Z" fill="#da7f57"/>
      <path id="Path_16850" data-name="Path 16850" d="M312.9,121.4l-.3-.9-.6.5Zm1.2,3.8.3.6.4-.6h-.7Zm2.9-4.8.7-.1-.5-.6Zm.1-6.3-.7.4.7.3v-.7Zm-4.6,4-.7-.1.2.8.5-.7Zm-13.9,37.4.3-.5h-.6l.3.5Zm13.1-29-1.6,1.1,1.5.9Zm7-12.4-1,.7,1,.5Zm-.1-1.8-1,.7,1,.5Zm.4,4.5-1-.1.6.8h-.4l.7.9.5-.8H319l.2-.4.4.7,1-1.7-1.9.3.3.3Zm-2.3,4.2-.6-.3.1.3-.7.8,1.1.4-.1-.5.4-.3.4.6,1-1.7-1.9.2.3.5Zm-1.3,1.6.3.4-.1.6.4-.1.3.5-1.9.2.1.2-.3-.2.2.7.3-.3.6,1,1-1.7,1.1-1.7Zm-1.6,4.5-1-.1.8,1,.4-.7.2.4,1-1.7-1.9.2.5.9Zm-1.1,0-1,1.6,1.1.2.4.9-1.2-.1v.1h-1l.7,1.3.4-1,.6.7.5-.9v.1l.6-1.3h-.6l-.5-1.6Z" fill="#da7f57"/>
      <path id="Path_16851" data-name="Path 16851" d="M310,132.4l-1.1,1.6,1.7.2Zm1-.9-.4.6.7.1-.3-.7.8,1.1,1-1.7-1.9.3.1.3Zm-13.2,25.4h-1.2v-.3l-.3.3-.5.4.9.4v-.2l.3.6,1.6-2.4-1.5.2Zm-.3-2.7-1.2.9,1.2.7v-1.6Zm11.5-18h0l.4-.4-.7-.4v-.2l-.1.1-.4-.2.1.6-.2.3-.1-.3-.4.7h-.1v.1l-.6.9,1,.1.3.7h-.5V138l-.2.2H307l.2.3h-.8l.5,1-.6.1.1-1.8-1.6,1.1,1.3.7h-.2l.9,1.3-.8.1v-.2l-.3.3h-.1l.1.1-.1.1v-.1l-.3.5-.1.1-.7,1.1,1,.2-.9.1.2.3-.2.6-1.4-.8L303,145l1.7-.7.4.2-.3-1,.4.7.7-1.1h.1V143l.3-.6h-.4l-.1-.3.5.2.1.1,1.6-2.9-.7.1.2-.4.5.2-.1-.3.4-.7.1.3.8-1.4h-.7l-.1-.3h.4l.1.1.1-.1.4.1-.1-.5.3-.5-.6.1Zm-4.7,4.2-.3.8.9-.1Zm-1,.3-.6,1.3h.5l-.1.1.4.1-.2.7.9-.1-.6-.5-.1-.2h.4l-.6-1.4Zm-2.1-1.5-.7.3.7.6v-.9Zm-.1,5.4.7-.4-.7-.3Zm4.8-4.8-.4.6.7.1-.3-.7Zm-5.5,10.6-.2-.3-.3.5h.4l.6.9-1,.1.6,1-1.3.1v.1l-1.6,1.1,1.5.9.1-2,.6.9,1.4-2.2.7-1.2-1.5.1Zm4.8-19.6-.8-.1.2.6.6-.5Zm-10.7,17.9-.5.3.5.4Zm.8,3.5-.5-.1.1.4.4-.3Zm2.3-3.1h.5l-.2-.5Zm-3.2,9.2.5-.5-.6-.2Zm-2-.9v1.1l1.2-.5Zm.7,2.6,1.2-.5-1.2-.6Zm-1.4,4.9.4-.5-.6-.1Zm-1.7,1.5,1.1-1-1.5-.3Z" fill="#da7f57"/>
      <path id="Path_16852" data-name="Path 16852" d="M290.8,163.4l-1.3.7,1.1.8.2-1.5Zm4.8-3.5,1.3-1.6h-2Zm-1.5.1-.2-.4-.3.5h.4l.4.9h-1l.5,1h-1.3l-1.7.9,1.4,1.1.4-1.9.4,1,1.6-2,.9-1.1h-1.5Zm-5.6-2.4-.5.2.5.4v-.6Zm-.1,3.8.5-.3-.5-.2Zm3.4-3.4-.3.4.5.1Zm5.4-17.5-.5.3.5.4Zm.7,3.4-.5-.1.1.5Zm2.6-3.4-.2.5h.5Z" fill="#da7f57"/>
    </g>
    <g id="Group_1314" data-name="Group 1314">
      <path id="Path_16853" data-name="Path 16853" d="M156.5,169.3l1,.1-.4-1.1Zm-1.1-5.9.3,1.4,1.3-.9Zm-5.1-7.3,1.3-.7.2.8,2.2-2-2.9-.5.5,1.5-1.3-.6Zm3.6-.3.2,1.4,1.4-.9-1.6-.5Zm-5.5,27.8.4,1.6,1.6-1.2-2-.4Zm-1.2-10.5.3,1.6-1.1,1.1,1.8.8-.7-1.9,1.6-1-1.9-.6Zm.5-.7-.7-1.9-1.1,1.2Zm1-1,1.7-1.1-2-.6.3,1.7Z" fill="#ffbca4"/>
      <path id="Path_16854" data-name="Path 16854" d="M147.4,169.2v-1.7l.4-.2-1.6-.5.2,1.2-.6.4,1.6.8ZM145.6,191l1.7.6-.1-1.9-1.6,1.3Zm-10.3,26.6v-1.3l-1.1.8Zm17.1-34.1v-1.9l-1.6,1.2Zm-.8-6.3-1.7,1.2,1.6.7.1-1.9Zm-13.1,31.6.2-1.6-1.4.9,1.2.7Zm.6-3.5-1.4,1,1.3.6.1-1.6Zm6.9-41.4,1.3.6.1.2-.8.1.6.8.3-.6.8-1.1-1,.1v-.5l.7-.2-.7-.8-1.2-1.4-.6,2.9.7-.2-.2.1Zm3.5-.5v-1.6l-1.3,1Zm.8,4.4.3,1.7,1.6-1.1-1.9-.6Zm11.9-1.3.7.6.1-1Zm-13.7-.3.2-1.1-1,.6Zm2.9-5.9-.3.9,1.1-.1-.8-.8Zm-2.3,21.9-.7,1.2h1.2ZM144.8,194l-.6-1.2-.7,1.1,1.3.1Zm4.1-13.2-.5-1.2-.7,1.2Zm-3.5-4.4,1-.6-1.1-.3v.3l-1.8-2-.6,2.9,2.4-.7.1.4Zm9.7,1.4.1-1.1-1,.4.9.7Zm-9.7,8.1-1.4.1.9,1Zm-4.8,1.6-.3,2,1.8-.6Zm6.1-5.3-.2.1v-.8l-.9.4.6.5-1.4.5,1.4,1.3.5-2Zm-.7,5.1-1.9.7,1.4,1.3Zm3.9-16.4-1.9.7,1.4,1.3Zm.2-8.7.5-2-1.9.7Zm-13.7,47.3,1.1-.4-1.1-.6Zm-2,5.1-.5,1,1.1-.2Zm10.3-17.5.5-.9-1.2-.1Zm-6.4,2.8-.4,1.1,1.2-.4-.8-.7Zm.3,2.5-.7-.9-.5,2,.9-.2-.4.6-.3,1.7,1.4-.4-1-1.3h.8l-.3-.7.7-.2.3-.1-.8-1-.1.5ZM156,175.7l.8-.1-.4-.5-.4.6Zm-5.3-.7-.7-.2.2.7Zm0-16.1-.7.2.6.6.1-.8Z" fill="#ffbca4"/>
      <path id="Path_16855" data-name="Path 16855" d="M153.1,162.5l-.4.6h.7Zm-3.7,26,1.4-.1-.6-1-.8,1.1Zm-4.4,5.2.8-.7-1.1-.4.3,1.1Zm-1-8.9.1-1.1-1,.6Zm-8.2,28.1,1.1-.3-.7-.7-.4,1Zm2.6-1.5,1.1-.3-.7-.7-.4,1Zm3.56-9.35-.8.4.3.2-1.2-.28.56-2.8-1.1.72-.01-.9h.1l-.1-.2v-.5l-.3.2-.82-.9,2.1-.63-.1-.1,1,.3-1.8.53,1.22,1.38.67-1.9,1.2.28-.54-2.9-1.87,2.13-.7-.9.8-.3.3.1v-.2l.7-.3-.5-.5.4-.1-.6-.5-.01-.4-.2.2-.7-.6-.28,1.4-.3.3.5.2-.1.5-.82-1.1-.66,3,.3-.1-.47,2,.2-.1,1.3.58-1.1.72,1.62,1.18-1.2-.38,1.24,2.78,1.47-1.82.6.2.5-1-.7.4-.1-.3ZM137.7,213.5l1.1.1-.4-.8-.7.7Zm8.7-27.2,2,.1-.8-1.5Zm-10.6,29.5H137l-.5-.8Zm7-16.7,1.2.1-.4-.9-.8.8Zm-8.7,15,1.5-.8-1.5-1.2Zm6.2-7.1,1.3-1.1-1.7-.8.4,1.9Zm5.2-36.4.4-.5,1-.3-1.9-2.2-.6,3,.9-.3.2.3Zm5.3-5.4-.4-1.1-.7.7,1.1.4Zm1,8.9,1-.6-.9-.5Zm.1-3.9-1.2.7,1.3.4-.1-1.1Zm-7.3,3.9,1-.4-.5-.5.5-.1.1.6,1-.6-.7-.1h.2l-1.9-2.2-.6,3,.9-.3Zm7.8-15.8-.7.8,1,.3Zm1.4,9.1-.1,1.1,1-.6Zm-2.3-8.7-.4-1.8-1.2,1.5,1.6.3Zm-6,5.4-.6,2.9,2.5-.7Zm-2.6,24.3h0l.9.9.5-1.1-1.3.1.4-2.8-.7.4-1.3-1.5-.5,2,1.5-.3-1.6.9,2.1,1.4Zm.1-5.7,2-.8-1.1-.9h.1l-1.6-1.2,1.2-.6,1.6,1,.1-.5,2.2.4-.7-2.8-1.5,1.9.2-1.9-.4.3-1.4-1-.3,1.6,1.1-.2-1.1.6-.9-.6-.4,2.1.2-.1-.3,1.6,1.3-.3-.3,1.4-1.1-1.3-.6,2.9,2.5-.7Z" fill="#ffbca4"/>
      <path id="Path_16856" data-name="Path 16856" d="M148.7,155.5l2.2-1.9-.9-.2h.2l-1.7-2.4-.8,2.9.5-.1Zm6,15.9-1.1-.5.2.7-.5.1.6.6.1-.3Zm-6.1-3.3.2.8.9-.8-.4-.2.1-.4-.5.2-.4-.2.1.4h-.1l.1.2Zm7.6-2.3h1l-.7-.8ZM142,200.9l.5-1.1h-1.4Zm.5,1.2.5-1.1h-1.3Zm.1-8.1.2-1.5.3-.1-.3-.2.2-1.1-.8.4v-.2l.1-.7.8-.5-.7-.2v-.2l-.3.2-1.1-.3.2.8h-.1l-.5-.4-.2.8-.7.4.5.3v.1h.2l.7.4-.5.3-1-1-.5,2.4,1.7-.9,1.8,1.2Zm-7.5,14.5-.7,3,2.5-.7Zm1.4-2.5,1,.5.1-1.6-1.2.9-.1-.2-.9,2.3,2.1-.2-1-1.7Zm20.9-38.9-1.1-.5.3,1.2Zm-5.6-3.7-.5-1.5-1.2,1.2,1.3.5-.2.1.7.5.1-.5v-.1l.1-.5-.3.3Zm7.1-1.8h1l-.6-.8Zm1-9.9-1.6-.7.1,1.5Zm-5.5-9.4.1,1.4,1.4-.8-1.5-.6Zm1.2-3.3-1.5-.7.1,1.4Zm-4.98,8.46-.37-.43-.5,1.37,1.6-.08-.37-.43,1.5-.1-1.03-.98.8-.14-1.62-2.53-1,2.83,1.22-.2-.25.7Z" fill="#ffbca4"/>
      <path id="Path_16857" data-name="Path 16857" d="M154.4,150.9l-.3.1.6.6.1-.4v-.1l.1-.5-.2.1-.4-1.6-1.3,1.1,1.4.7Zm-2.58-5.62,1.47-.66-.95-.5.92-.1-1.46-2.46-1.1,2.8,1.1-.1v1ZM149,150.8l1.2.7.1.1-.8.1.6.8.4-.6.8-1.1h-1v-.5l.7-.1-1.7-2.3-.8,2.9.7-.1-.2.1Zm3.5-.2.2-1.6-1.4.9,1.2.7Zm2.9-2-.7-.9-.4.9h1.1Zm-2.1.9.7-1.9-2,.5Zm.1-3.1.5.7.2-.8Zm2.3,4.1h.7l-.3-.6Z" fill="#ffbca4"/>
      <path id="Path_16858" data-name="Path 16858" d="M148.48,157.57l.2-.3.1.6,1.4-.9-1-.3.1-.2h-.4l.7-.1-1.7-2.4-.8,2.9.8-.2.6.9Zm5.22-5.07-.3-1.1-.7.6Zm.4,7.9-.2,1.1,1-.5Zm.3-2.8-1.2.6,1.3.6-.1-1.2Zm-7.7,3.3h.1l-.1.7,1.6-.4-.4-.3,1.5-.3-1.2-.9.8-.2-1.9-2.2-.6,2.9.5-.1-.3.8Zm.8-.5-.4-.4.6-.2-.2.6Zm8.3-14.7-.7.7,1,.4-.3-1.1Zm.4,10.4,1-.5-.8-.6ZM156,136l-1.3,1.4,1.6.5Zm-1.8,4.7-1.8-.3.5,1.5Zm5,14.9.8-.6-1-.6.2,1.2Zm3.2-6.8-.4.8,1,.1-.6-.9Zm-8.8,19-1.4-.2.4,1.1,1-.9Zm5.1-4.5-.8.6.9.6-.1-1.2Zm-.9,10.3,1.1-.4-.8-.7-.3,1.1Zm3.4-4.7.8-.2-.6-.8Zm134-44-1.1,1.1,1.5.7v.5L297,126l-.8,2.3,2.6-.9-1.4-1.7.4-.3-1.5-.8-.1-1.4,1.7.8v-.1l1.2.4-.3-2.1,1.2.2-.6-2.5-2.1,2,1.5.3-1,1.2-.4-1.3-1.1,1.1V123l-1.5,1.4.9.4V126l-.5-1.1Zm-12.9,10.5,1.7.9-.5-2Zm10.3-3.9-1.5-1.2-.3,1.3.1-2-1.3.5h-.2l-.2-.9-2.2,1.9,2.7.6-.2-1,.1-.3,1.2,1.2-.1.3,1.9-.4Zm1.8-1.3-1.4.6,1.4,1.4v-2l1.9-.3-1.5-1.2Zm-2.2,2.7-1.5.6,1.4,1.4Zm-4.2-1.4-.3,2,1.6-1-1.3-1Zm18.7-9.3,1.5-1.1-1.4-1Zm-8.2,8.1-.2,2,1.5-1Zm15.2-23.9,1.2-1-1.2-.6Zm0-8.4-.8-.4v1.1Zm-.2-1.9-.5,1,1-.2Zm-.9,9,1-.2-.5-.7-.5.9Zm1.9-10.2-.5,1,1-.2Zm-1.4,8.6.6-.1-.5-.8-.4.7-.6-.6-.4,1.7,1.5-.6-.2-.3Zm-29,32,1.3-.8-1.1-.8-.2,1.6Zm2.9-1.9.2-1.6-1.3.5,1.1,1.1Zm2.4,1.5.3-1.2-1.2.3.9.9Z" fill="#ffbca4"/>
      <path id="Path_16859" data-name="Path 16859" d="M286.5,135.6l.8-.7-.8-.4v1.1Zm14.7-8,1.2-.1-.6-1Zm6.1-9.5,1.2-.3-.7-1Zm-7.4,10.1-.6-1-.6,1.2Zm-7.2,1.9V129l-.8.3Zm1.2-2.3.8.8.1-1.2-.4.2-.6-2.4-2.1,2,2.5.5Zm5.7,7.8.8-.6-1-.4Zm2.3-14.3.6,1.2.7-.9-1.3-.3Zm11.3-11.2-.4-.2.2.9.3-.3.1.8.5-1-.7-.6v.4Zm-10.3,6.2-1.5,1.3,1.8.5Zm-2.9,9.3,1.3-1.5-1.7-.5.3,1.5-.7-.3.1,1,.6-.4.1.2Zm3.8-3.3,1.3-1.5-1.7-.5.4,2Zm6.6-5.6.4-.9h-1.1Zm-.5-8.6-.6.9.9.2Zm-15,29.4.6-.6-.8-.2.2.8Zm4,.1h.6l-.3-.7-.3.7Zm-2.8-4.9.1-.6-.7.2.6.4Zm9.9-6.8h1.1l-.6-1.3Zm2.3-6.7.2-1-1,.3Zm-8.3,2.2v1.2l.8-.7Zm4.3,7.9h.8l-.5-.9Zm2-5.9-.8.2.6.5.2-.7Zm-6.5,3.4.6-.5-.6-.4Zm12.3-20.4-.2.7-.4-.9-1.2,1.6,1,.1-.2.3,1.2.1-.1-.3-.2-.7.7-.2-.6-.7,1.6.1-.5-1.3-.5.6-.8-1.2-.8,1.6,1.5-.2ZM302.7,125l1.5-.1-1-1.7-.5,1.8Zm8.4-10.8.9-.2-.7-.9-.2,1.1ZM312.6,99v1.2l1-.7Zm-26.1,38.6,1-.1-.8-.8-.2.9Zm8.8-3.5-.9.6.8.6.1-1.2Zm-3.2,1.9,1-.4-1-1Zm-6.5-.9.6-.9-.9-.2.3,1.1Zm6.1-6.6.6.2-.1-1-.6.4-.2-.9-2.2,1.9,2.7.6-.2-1.2Z" fill="#ffbca4"/>
      <path id="Path_16860" data-name="Path 16860" d="M301.1,121l2-1.7.6,1.1.6-1-1.2-.2L301,118v1.9l-.5-1.4-1.3,1.5,1.8.3v.7h.1ZM313,100.9l.7-.2-.5-.8-.4.8-.2-.2-.1,1.9,1.6-.7-1.1-.8Zm-1.4,11.5.5-1h-1.3Zm1.1-.3.5-1.1h-1.3Zm-6.6,5.2.3.1-.1-.3,1-1.1-2.3-.8v.5l-.3-.2-.1-.2-.1.1-.5-.3v.7l-.6.6.6.2v.1l-.7.2.7.8v.3l.2-.1.4.5.1-1,.5-.4.1,1,.8-.7Zm-.1-2.8.5.1v.3l.3-.2.7.2-.2-.3.7.1-.2-.7.2-.1-.2-.2-.2-.9h1.1l-.5,2.8,2.4-1.3-.9-.8,1-1.7-1.8-.1.6,1.7-.8-.7h.1l-.8-2,1.2.1v.4l.4-.3h.2v-.1l.6-.5.1,1.3,1.8-2.2-2-.6.1,1.3-1.2-.7-.1-.2-1.2,1.6-.1-.3-1.9,2.3h1.3l-.3.4-.5-.3v.4l-.4.7v-.8l-1.8,1.7,1.8.5v-.9Z" fill="#ffbca4"/>
    </g>
    <g id="Group_1315" data-name="Group 1315">
      <path id="Path_16861" data-name="Path 16861" d="M227.7,153.5l-1.9.8,1.4,1.2Zm2.5-2.1-2,.5,1.6,1.2Zm-14.4,10.5.2-1.8-2,.7Zm16.5-14.6-1,1.4,2.7-.2-1-1.9.2-.3,1.5.6-.6,1.1,1.7-.3-.8-1.1-.2-.7.6-.1-.5-.8.9-1.2-1.5-.3.3,1.1-.1-.1-.1.2-.3-1-2.6,1.9.7.3-1.1-.1,1.2,1.5Zm-6.5,6.7,1.1-1.4-2.1-.4,1,1.8Zm6.3-1.6,1.5-.8-1.3-.9Zm4.1-8.4-.3,1.7,1.5-.8Zm-1.4,6.4,1.5-.8-1.3-.9Zm8.9-13,1.4-.5-1-.9Zm-1.2-1.4-.3-.5-1.3,1.7-2.3,2.5,1.7.4-1.8.4,1.6,1.2.4-1.6.5.1-.1.1,2,.6-.7-1.8-.4.3-.2-.5.2-.2-.4-.3-.5-1,2.5.4-.9-1.5,1-.4-1-.9Zm-5.2,11.1,1-1.4-1.5-.3Zm-4,2-.1,1.2,1-.7Zm3.5,6.7.6-.9-1,.1.4.8Zm-9,11.5.5-.9h-1.2Zm-5-4.4.9-.4-.7-.6Zm-.7,7.4h0l-.9-.4.3.9.4-.3.9.5-.2-1Z" fill="#d86d03"/>
      <path id="Path_16862" data-name="Path 16862" d="M232.9,154.2l1,.3-.2-1.2Zm4.6-5.6-1-.1.6.8Zm-5.2,9.4.5-.9-1.2-.1Zm-6.6.8.2-.9-.9.4Zm8.3-2.1.9-.4-.7-.6Zm-22.8,17.9.9-.4-.7-.6Zm-17.4,4.6.9-.4-.7-.5Zm37.8-27.5-.5.8,1-.1Zm10.9-10.9-2,.5,1.6,1.2Zm1.7-9.2-.8,1.6,2.1-.1Zm.8-1.6-.6,1.1,1.5-.1Zm0,1.5.6,1.3.7-1.2Zm-.9,3.2.7-1.2-1.3-.1Zm1.5.3-1,1.1,1.4.1-.4-1.2Zm.9-6.2-1.3-.1.6,1.3Zm-10.9,13.5,1,.4-1.6.3,1.6,1.2.4-1.5,2.4.8-1.2-3.6-2.6,2.4Zm7.8-8.6-1,1.4,2,.2-1-1.6Zm-23,20.9h-.3l1.6,2.1.8-1.4.2.3.4-.7.4.4-1.1,1,1.7.3-.1.2h1.7l-.6-1.4-.9,1.1-.4-1.3.5-1.5-1.5.3.3-1,1.5.9-.3-2.7.5.8.5-.6-.2.4,1.6-.5.8.5.3.3.7-1.6-1,.1-.1-1.2,1.2.9.1-.5.5-.2-.3-.4V149l1.6.8-1.8.4,2.1,1.6.6-2.3-.6.1-.4-2.1,1.1-.6-1.2-.9-.1.5v-.3l-2.9,1.8,1,.5-.9.2-.1-.7-3,1.6,1,.6-1.2-.2v-.2l-.2.1h-.2l.1.1-2.6,1.5.1.1-2.9,1.6,2,1.4Zm1.3,0v-.4l.3.4Zm.5-.7h-.5l-.1-.8.8.7Zm.4-1.3-1.1.2-.1-.9,1.2.7Z" fill="#d86d03"/>
      <path id="Path_16863" data-name="Path 16863" d="M218.7,156.3l1,.9.3-1.3.8-.4-.7-.6-.1.2-1.4.7-.2-2.5-3.1,1.6,3.3,2.2.1-.8Zm12.4-2.6-.9,1.4,1.5.2-.6-1.6Zm-7.8,3.2,1.2,1.6.9-1.5-2.1-.1Zm-12.1,9.5.7-1.5-2,.1Zm5.7-7.7.5-2-1.9.9.5.4-1.1.1.9,1.5.5-1.3.6.4Zm3.5,1.8.7-.9-1-.3Zm-3.5,4.9H218l-.7-.8-.4.8Zm8.8-1,.2-1-.9.4Zm-5.3,8v-1.1l-1.1.5Zm-6.4-1.9.7-.7-.8-.3Zm2.7,6.5-.4.7h1Zm1-18.6-.6,2.1,2-.8Zm.5,3.1-.6,2,1.9-.7-1.3-1.3Zm4.7-4,.3-1.1-1.9.9,1.3,1.1-.3.9,1.9-.8-1.4-1.2.1.2Zm-17.3,11.6,1.9-.7-1.3-1.2-.6,1.9Zm26-6.2,1,.3-.4-.9-.6.6Zm-6.1-4-.7,1,1,.2Zm2.9-4.2.4-.7.5.2-.4-1-.6.6.3.1h-.8l.6.8Zm17.4-11.5.4.9.6-.7Zm-3.1-3.8.9-.2-.5-.6Zm-1.5,7v-.9l-.7.3.7.6Zm1,1.8.4-.8h-1.1l.7.8Zm-4.5-3.8.8-.4-.6-.5Zm-.7,6.7.8.4-.1-.8-.7.4Zm-19.7,19.3-1.1.5.8.7Zm4.5-3.3.2.9.7-.5Zm-8-1.9,1,.1-.3-.8Zm5.6-8.1-.1,1.7,1.4-.6-1.3-1.1Zm11.6,2.6v1l.8-.3Zm-1.5,5.8,1.1-.4-1.1-.9v1.3Zm.1-7.1h0l.5-1.8-2.1.4.9.8-.4.3Zm-7.2,6.5-.4-.3-.1,1,.8-.5-.3-.2.6-.9-1-.1Zm-11.1,6.8h-.5l.6.7.2-.4.7-.8-1.4-.3Zm-3.8-6.6-.5,1,1.1-.2Zm-2.4,8.8-.9.4.9.7v-1.1Zm5.1-10.7,1.1-1.4-2.1-.4.7,1.3-1.6.3.9,1.3.8-1.5.2.4Zm2-1-1,1.4,1.8-.1-.8-1.3Zm4.6-1.5-.3.9.9-.2-.6-.7Zm-16.4,4.8.8-.1h.2l.6,1,.7-1-.8-.1.9-1.1-1.6-.3-.1-1-2,1.1,1.7,1-.4.5Zm1.4-.2h-.3l-.3-.4-.1-.9.7,1.3Zm1.9,1.7.9-1.7-1.8.3.9,1.4Zm7.8,0,.9.4-.1-1.1-.8.7Zm3.7-4.8.4.8.5-.6Zm-6.5.3-.5-.6-.1.3-.6-.5-.1.9.6-.2-.2.4.9-.3Zm0,9.6-.7.8.9.3Zm2.6-4.3.5.7.5-.7Zm-1.6,3.4.9.4-.1-1.1-.8.7Zm3.8-4.8.4.8.5-.6Zm-6.6.2-.4-.5.7-1.1-1.8.2.8,1.4-.1.3.8-.3Z" fill="#d86d03"/>
      <path id="Path_16864" data-name="Path 16864" d="M202.6,164.4l.9.1.2.1v-.1h.4l-.2-.5,1.8.8v-.7l.7-.1.8.8.8-1.6-1.8.1-.1-.2-.1-1.5,1.2-.1-.5-.9,2.6,1.4-.5-3.1,1.5,1-.4.8,1.3-.2.7.4-.1-.5.5.3h-.2l1.1,1.7,1-1.5-1.7-.2v-1.3h.2l.7,1.1.6-1.6h-.7l.5-2.7,1.1,1,.5-2-1.9.8.1.1-2.3,1.3v-.2l-2.9,1.7-2.6,1.4.5.3-.5.7-.1-.9-2.4,1.3,2.4,1.5-1.9.9-.1-.3.1.1.7-1.2-1.1-.1-.1-.8-2.4,1.4,2,1.1-.3.1Zm10.4-5.5Zm-.9-.7-.7.5-.2-1.2Zm-6.3,4.9-.1.2V163Zm-2.4.2.1.1Zm.6,5.6.8-.3-.5-.6-.3.9-.7-1.3-1,1.4,1.7-.1Zm-3.1-2.4-.7-.9-.8,1.5,1.2-.2-.2.2,1.7-.2-.8-1.3Zm1,1.6h-2.1l1.2,1.6.9-1.6Zm-3.1,2.9,1.7-.1-.8-1.3-.9,1.4Zm3.1,1.6.3-.9-.9.3.6.6Zm-2.8,1.3-.8.7.9.4-.1-1.1Zm4.1-3.6-.9-.2.4.8Zm-6.6,8.9.9.4-.1-1.1-.8.7Zm4.2-4.7.7-1.6-2.1.1,1.4,1.5-.5-.1.4.8.5-.6-.4-.1Zm-7.5-.5-.4.8.9-.2Zm10.3-.9-.9-.2.1.2h-.4l.5.7.1-.2.1.1.5-.6Zm23.7-3.6.4-.9-1.2.1.8.8Zm-5.6,3.7,1,.4-.3-.9Zm-10.3,5.2.9-.5-.7-.5Zm7.9-3.5,1.1.4-.1-1Zm-5.5-.9.6-.8-.9-.2.3,1Zm3,7,1-.1-.6-.7Zm-11.5-7.5,1.8-.9-1.5-1.1Zm-8.6,1.5,1.9-.9L197,173l-.3,2Zm.3,1.4-1.5-1.4-.1,1-.7-.9-.7,1.6.9-.2-.2,1.5,1.8-1-.4-.2.9-.4Zm-6.1,12.4,1.1-.5-1.1-.9Zm.2-2.2,1.8-1-1.5-1Zm12.4-14.4,1.9-.9-1.5-1.1Zm-11,4.2-.3,2,1.8-1Zm-1,7.2,1.8-1-1.5-1Zm1.3-1.6.6-1.2-1.5.1.9,1.1Zm1.3-6.6-1.5.1.9,1.1.6-1.2Zm.1-1.4.6-1.2h-.5l1.3-.6-.4.8.9-.2-.4-.6h.1l-1.6-.9.7-1-1.4-.2.3,1-.7-.4-.2,2.7.7-.3.6.9Zm22.9-.4-1,.6.9.6.1-1.2Zm-4-4.7h1l-.4-.8Zm-1.6,6.9.7-1-1.4-.1Z" fill="#d86d03"/>
      <path id="Path_16865" data-name="Path 16865" d="M206.3,170.4l1.1-.3-.7-.7-.4,1Zm-1.9,8.4,1,.6-.1-1.1Zm3.7-1.8.9.2-.3-1-.6.8Zm-4.2-4.4-.2.9.8-.4Zm5.7,2.5.9.3-.2-1.1Zm3.3-5,.5.7.5-.7Zm-7,.3-.3.9.9-.3-.6-.6Zm-7.2,5.6,1.7-.3-.9-1.2Zm-5.8,2.7-.8,1.6,1.7-.4-.9-1.2Zm9-1.4.2-1-.9.4Zm-2.3.3-.1-.9-.8.7.7.4-.3.3.9.3-.2-1.1-.2.3Zm-1.8,6.8.9.3-.2-1.1Zm3.7-4.4.4-.7H201Zm-7.8.5.8-.3-.5-.6-.3.9Zm1.2-7.3.3.6-.2.5.4-.1.2.3.2-.4.1-.1-.1-.1.3-.7Zm-.5-3.3.6-.2-.2.4.9-.2-.4-.7-.1.3-.4-.4.5-.1-1.5-1.1-.3,1.6,1.1-.3-.2.7Zm2.36-1.26.62,1.15-1.72.17.9,1.37.47-.87-.33,1.68,1.74-.47-1.3-1.4.23-.38.18.3,1.2-1.3-1.78-.33-.5-2.84,1.52,1.12-.68,1.05,1.72-.17-.08-.2.38.33-.24-3.84-2.9,1.4.1.1-2.6,1.4,3.1,1.73Z" fill="#d86d03"/>
    </g>
    <g id="Group_1316" data-name="Group 1316">
      <path id="Path_16866" data-name="Path 16866" d="M163.8,143.7v-.2l1.1.6-.6,1.4,1.8-.2-1-1.7-.2-1.1-1.1.9-.1-1.5-1.3.8,1.4,1Zm-5.6-2.7,2-.1-1.4-1.6-.6,1.7Zm3-.4,1.8-.2-1.1-1.7Zm-.8-3.3,2-.1-1.4-1.6-.6,1.7Zm10,14.8-1.2-1.8-.9,1.6,2.1.2Zm-7.3-13.7.1,1.8,1.8-.9-1.9-.9Zm-.9-6.7h-1.6l.8,1.5ZM155,148.6l-.1,1,1.1-.3Zm6-.4.5.8.4-.9-.9.1Zm-3.5,6.7-.7.7,1,.2Zm6.1-24.3-1.5.1.8,1.5Zm-7.2,7.5-.1,1,1.1-.3Zm5.5,6.3-.5-.9-.4.9Zm-5.8-8.3-.9.1.5.8.4-.9Zm8.9,27.8-.9.1.5.8.4-.9ZM159.7,135l-.8.3.8.7Zm-.7,2-1.4,1,1.3.6.1-1.6Zm3.2,7.9,1.9-.6-1.8-1.2-.1,1.8Zm7.2,13.4,1.8-.4-1.5-1.2-.3,1.6Zm-4.5-10.9v1.2l1-.8Zm0,6.2-1,.3.9.6.1-.9Zm-6.3-6-.4,1,.9-.1Zm-.2,10.1,1.2.2-.6-1-.6.8Zm6.4,2.2.7-.7-.9-.3Zm-6.2,4.5.1-.8-.9.3.8.5Zm8.9-14,.7-2-1.9.2Zm-3.3.5,1.1,1.8.7-1.9-1.8.1Zm-1.8-5.9,1.1,1.7.7-1.9Zm9.9,18.8.7-2-1.8.2Zm-18.5-20.3-.8.5,1,.3Zm7,2.1v-1.2l-1,.8Zm-.1-7.2-.1.9.9-.3-.8-.6Zm.9,20.6,1.1-.1-.6-1.1-.5,1.2Zm-2.1-6.6.3.8.7-.7Zm8.5,3.4-.1-1-.7.5Zm-1.3-8.1.9-1.4-1.7.1.8,1.3Zm-11-4.8.5-.8-1,.1Zm-.9,3.7-1.4.1.7,1Zm4-5.4-.7.7,1.1.4-.4-1.1Zm2.2,9.6-.8-.5-.1,1.1.3-.2.3.6.5-.9h-.3l.1-.1Z" fill="#b7654f"/>
      <path id="Path_16867" data-name="Path 16867" d="M171.3,149.3l-1.2-1v.1l-.7-1.2-.8,1.9,1.3-.1-.2,1,1.6-.7Zm-.2,6.7v-1.8l-1.4.7Zm-3.5-5.2-.9.3.6.7.3-1Zm5.8,10-.7.2.6.7.1-.3,1.5-.6-1.4-1.3-.1,1.3Zm1.7,2.3,1.5-.5-1.3-1.3Zm-7.2-4.7.9.2-.2-1Zm0-5.5.8-.4-.8-.4v.8Zm5.9,3.7.6.7.1-.5.4.5.5-.7-.8.1.1-.3-.9.2Z" fill="#b7654f"/>
      <path id="Path_16868" data-name="Path 16868" d="M167.3,165.1l.9.3-.1-1.1-.8.8Zm.4-5.4.8-.3-.8-.5Zm6.1,4.9.3-.9-.8.1.5.8Zm-6.2-2.7-.7.8.9.2Zm-.9-5.4.1.8.8-.4-.9-.4Zm10.46,4.4,2.6.1-1.2-2.4-.6.7-1.1-.7-.1,1.4h.1l-.2.2-1-1.9,2.8.2-1.2-2.5-.6.7v-.8l.5.1-1.4-2.8-.2.2-1.4-2.8-1.2-2.3h.1l-1.2-1.8-1.4-2.7-.1.1-1.4-3-1.7,1.9-.4-.3.8-.2-1.3-1-.9-1h1.4l-.2.7,2-.2-.5-.5h.4l-1.6-3-.2.3-1.2-.5h1.2l-1.6-3-.5.6-.6-.7,1.1.1-1.4-3.1-2.4,2.5-.4-.5-.7,2.2,2.6-.2-1.3-1.3,1.8.2-.4,1.2,1.4-.1-.8.9-.8-.6-.3,1.8.4-.1h1l1.1,1.3.1-.4v.8l1.3-.7-1.9,2.3h.6l-.5,1.5,1.2-.1-.1,1.1.3-.1-.2,1.6.6-.2.4.7.3-.9.4-.1,2.7.2-1.4,1.7-1-1.7-.8,1.9,1.6-.1-.8.9,3.7.2-.6,1.6,1.5-.2-1,2.2-.3-.3-.4,1.7.9-.4.2.1-.6.9-1.3-.8-.1,1.8,1.7-.6h.3l-.4.5h1.4l.7.7.1-.7,1.6.1-1.5,1.4-1.9-.9.1,1.8.3-.1-.2,1.7,1.5-.5-1.2-1.2,1.3-.6-.6.6,3,.4-.9.4.9.8-1,1.2-.2.1-1.4-1.2-.4,1.8,1.1-.2.6.5-.4.6,2,.4-.4.3,1.2.8.1-.7Zm-4.4-10.2h1.1l-.8.9Zm2.6,7.6h.1l-.1.2Zm1.6,1.6.5-.2-.4.5ZM154,151.7l1.2-.2-.9-.8Zm1.3,6.1,1,.3-.2-.9-.8.6Zm4.5,3.9h1.1l-.5-1.1Zm-.5-6.5-1-.3.2.8Zm7.2,3.9v-1l-.8.4Zm-1.8,6.8.9.3-.1-1.1-.8.8Zm.4-5.4.8-.3-.8-.5Zm5.7,4.4H169l1,1.9.8-1.9.3.5.3-.9-.8.1.2.3Zm110.9-18.7,1.7-.6-1.5-1.5Zm-.4-5.2-.6,2,1.9-.8Zm-.7,16.9-.2,2.1,1.7-1.1Zm-1.3-11.8h2l-.7-1.6Zm.5-8.7-1.4.7,1.3,1.1ZM292,151l1.2-.2-.6-.8Zm-5,2.2.1-1-.8.3.7.7Zm6.2,4.3.9-.6-.9-.3v.9Zm-15-20.4-1.4.6,1.4,1.1v-1.7Zm6.4,11.2-.1,1,.8-.3-.7-.7Zm5.8,15.4.1-1-.8.3.7.7Zm-7.3-23.8-.9.1.5.9Zm1.4,10-.9-1.5-1.1,1.8ZM283,163.7l-.8,1.8.5-.1.2.5.3-.7.8-.2Zm-1.8-11.8,1.7-.7-1.1-1,.7-1,.1.2.8-1.5-1.5-.1.6,1.3-1.4-.3.3,1.1Zm-2.2,3.3v1.3l-.6,1.4,1.8-.1-.7-.7,1.2-.5-1.7-1.4Zm4.1-2-.7.8,1.2.3Zm3.4,6.4.5-.9-1,.2Z" fill="#b7654f"/>
      <path id="Path_16869" data-name="Path 16869" d="M288.8,150.6l-.1,1,.8-.3-.7-.7Zm-.7,7.2v.9l-.5.5,1,.2-.2-.6.7-.5-1-.5Zm-4.5,4.8-.3-.7-.5.8.8-.1-.2.2.9.3-.3-.9Zm8.3,1.7.5-.9-.9.2Zm-9.7-7.1.2-2.2-1.8.7,1.6,1.5Zm3.2-1.1-1.7.7,1.5,1.4.2-2.1Zm-1-6.1-1.7.7,1.5,1.4.2-2.1Zm2.3-1-1.2-.2.5,1Zm-4.3-4.7.9-.2-.5-.8Zm7.9,18.3,1-.4-.9-.8Zm.1-6.4-.1-.9-.8.6.9.3Zm-5.7,5.1-.9-.1.4.9.5-.8Zm-3-6.9.1-1.5-1.6.7Zm-.2,9.4.7-1.6h-1.5Zm.7-6.2.7.7.2-.9-.9.2Zm-1.9,12.1,1.6-.1-1-1.7Zm4.1-5.7.3,1,.7-.6Zm-1.7-5.2-.6.8h.9Zm2.5,9.4.7-.6-1-.4Zm-4.9,1-.5-.3.1-.3h-.1l.2-.5,1.1-.3-1.1-1.4-.7,1.7H279l-1.4-.6.5-1.1h-1l2.5-1.7-.8-.3h1.5l-.5,1.6,1.6-.2-1-1.4h.3l-.7-1.6-1.2,1.7-2-.6,1.4-.8.4.6.3-.9,1.2-.7-.6-.2.3-.2,1.8-.2-.9-1.6-.8,1.3-.9-.5.1-.2,1-.1-1.1-1.3-.2.4L277,158l1.4-.5-1.2-1.2,3.2-1.8L279,154l1.5-.6L279,152l-.1,1.9-2-.9,2.3-1.4.4-.1.7.6.1-.8.6-.1-.9-1.4.3-.1-.6-.9,1.1-.5-1.1-1.1.5-.3-2.7-1.2h1.5l-.3-.7.3.3.4-1.6.9-.5.4-.1-1.1-1.4-.4.9-1.1-.5,1.3-.6-.9-.8,1.5-1-.5,1.8,2.4-1-1.7-1.6-.2.6-3.3-1.2.2,3.4.9-.6-.2.9-.7-.3-.1,3.4,1-.6-.9,1.1-.3-.1-.1,3.4.3-.2-.2.7,1.8-.8-.5-.5,1.2-.7-.4,1.2-.7,1.5.8-.2-.3.5-2.3-.9.1,3.3h-.1v3.1l-.2,2h.1v2.6h-.1l.1,3.1-.2-.1.1,3.2.4-.3.4.7-.9-.4v2.7l1.8-1-.8,1.5,1.5-.2v.6l1.8-1.1Zm-2.6-8.9.1.9-1.1-.4Zm1,8,.1-.1.1.2-.2-.1Zm-.6.4.6-.4v1.3l-.6-.9Zm.7-2,.1-.7.3.4.2-.9-.8.2.2.2-.8.3.8.5Zm14.9-14.1,1.1-.3-.7-.8Zm-4.8,1.7-.8.4.8.6Zm6.6,3.8.2.9.8-.7Zm-6.4,7.6.9-.5-1-.7Z" fill="#b7654f"/>
    </g>
    <g id="Group_1317" data-name="Group 1317">
      <path id="Path_16870" data-name="Path 16870" d="M220.5,107v-1.6l-1.6.8,1.6.8Zm-.3,2.1,1.7-.7-1.7-1.3Zm7.8-3.3-1.3,1.2,1.7.3Zm1.8-.7-.9.9,1,.1-.3.8.9-.3-.5-.6Zm-6.1.6-.9.1.6.9.3-1Zm4.6,7,1-.3-.8-.6Zm-3,4.2,1-.3-.9-.9-.1,1.2Zm.4-7.3-.8.5.9.3-.1-.8Z" fill="#ffe888"/>
      <path id="Path_16871" data-name="Path 16871" d="M219.1,116l.6-.8-.9-.2.3,1Zm7.8-6.6.6-1.1-1.2.2.6.9Zm5.7-2.1.8-.3-.8-.7Zm5.8-.9.4-.7-1-.1.6.8-.2.1,1.7,1.2.3-1.8Zm-17.7,5.3-.1-.1-.1-1.2-.3.3v-.1l-.5.5.2.1-.7-.1.5,1,.4-.5h.6v.1Zm-2.3-2.5.3.9.7-.7-1-.2Zm2.4,5.3.2-.9-1,.3Zm5.9-7.5.1-.9-.9.4.8.5Zm7-5.6v.4l-1,.4.6-.9-3.4-.6.1.4-.5-.5v.5l-.1-.2-.4.4.3-.4-3.4-.7.5,1.6-1.1-.5.3-.7h-3.4l.5,1-.8-.6.1-.4-3.4.4,1.7,2.4V105l1.6-.8-.8-.6.6-2.2V103l1.3-.6.1.1-1.3.7,1.6.7v-.4l.4,1.4,1.4-1.1-.8-.3.8-1.8.4,1.5.7-.6.3.1v-.3l.1-.1.5,1.7-1.6-.7.6,2.6,1.9-1.4-.9-.4,1.2-1.8,1,.1v.3l1.1-.4.2.5-2.2.7,2.2,1.5.3-1.3.3.8.1-.1,1.4.8.1-1.5-1.5.6,1.2-1.8,1.3.7.2,2v.2h.1v.1l.2-.1,1.6-.3-.5-.6,1.6-1.5-3.4-1.6Zm-10.4,1.7v-.2l.1.2Zm.2,4.9,1,1.1.6-1.6ZM207,112.2l-.9-1.3-.5.9-.8-.2.8,1.9,1.2-1.3Zm4.9-7.1,1.1-.9,1.1,1.3-.6.6,1.7.3-.4-1.5-.5.4.2-.9.2.1v-1.1l.3-1.3-3.4.7.7.8-1.1-.5Zm-6.3,5.6.9-1.6-2.1-.1,1.2,1.7Zm-1.9-1.4-2.1-.1,1.1,1.7Zm15-2.8.2-.9-1.1.3-1.3-.1-.4-.5-.2.4h-.1v.1l-.2.4.3-.1.4,1.3,1-1,.4.5.1-.3.3.3.3,1.3,1.5-1.1-1.2-.6Zm-4.3,2.3,1.4-1.6-2.1-.1.7,1.7Z" fill="#ffe888"/>
      <path id="Path_16872" data-name="Path 16872" d="M209.3,110l-.1.1.9.3v-.3h.1l-.2-.6v-.1l-.2-.7,1.1-1.2-1-.2-.4-.3-.1.3-1.3-.3,1,2.1-.7.7Zm-5.7,3.3-.3.1.6.7.3-.7,1-.2-.9-1.3-.7,1.4ZM213,107l-.6,1.1,1.2-.3-.6-.8Zm.9,7.7.9-.6-1-.3v.4l-.3-.1.1-1.2-1.4.9.9.6v.5l.3-.3h.1v-.1l.4-.3Zm-1.5,4.9.9-.6-1.1-.6.2,1.2Zm-2.5-6.3h1l-.3-.8Zm-3.4,6.4-.9.1.6.9.3-1Zm16.7.5.9-.5-1-.7Zm-1.6-6.5,1,.2-.2-.9-.8.7Zm-4.7,6.7.4-.9h-.8l.4.9Zm2.3-8.3-.1-1.9-1.9,1.1Zm4.7-6.2.5.9.6-.7-1.1-.2Zm10.2,5.4,1,.3-.2-1.2-.8.9Zm-19.4-.1-.7,1,.9.2.6.6.4-.9-.8.2-.4-1.1Zm1.8-5.7,1-.6.1.1v-.2l.4-.2v.1l.4-.2.4,1.1,1.4-1.2-1-.4.4-.3-1.5-.8.4-1.6-3.5.7,1.2,1.5.3,2Zm1.4-1.6h0v0Zm-8.3,13.2-.7.8,1,.1Zm6-13.6-.3,1,.9-.1-.6-.9Zm15.6,3.8,1-1.5-2.1-.2Zm-18,4.7.2-.5.1.1.4-.9-.9.3.2.3-.5.2Zm1.4,5.2,1.1.5-.1-1.4Zm-4.6-5.4,1.1-.3-.6-.8-.5,1.1Zm-11.2,2.6.9,1.9,1.2-1.4-2.1-.5Zm-.6.9-.6-1.1h1.3l-.6-1.4-1.1,1.4h.1l-.9,1.2Zm9.8-4.9-.6-.6v-.4l-.8.3.5.4-.2.7Zm-6.6,3.1.9.6-.1-1-.8.4Zm8,3.6.7-.7-1-.1.3.8Zm-.1,5.3.7-.8-1.2-.3.5,1.1Zm-3.1-6.3.8-.4-.9-.8v.9l-.5.9,1-.2-.4-.4Zm-2.8,8.6.1-1-.8.3Zm-4.7-7,.3-1-.9.3.6.7Zm5.2,4.2h1l-.4-.8Zm-2.4-14.6,2.7,2.2v-2.9l.8,1.2.5-.9.4.3-.3-.1.3.6-.2.8.5-.2.3.6.7-.9.1.1v-.3l.3-.4-.3-.1-.1-1.9.7,1.4,1.1-1.3,1.5,1.3v-.2l1.6,1.1.5-2.3-2.1.6.1-1,.7.1-.4-1.5-.3.3.1-.9-3.2,1.2,1.3,1.2-1.7-.4v-.7l-3,1.5v-.2l-3.2,1.3.2.2-3.1,1,1.2,1.1-1.3-.3v-.7l-3.2,1.2,1.7,1.5-1.9-.3.4.7-1.6-.3.8-.3-.8-.7-.1,1h-.1v-.6l-3.2,1.3,2.3,1.9-1.2.2,1,1.5.7-1.3.3.2v-1.7l.5.9.4-.5.2.4,1.1-1.2.2.3,1.1-1.3.8.7.3.6,1.1-1.4-1-.2v-.5l.2.5,1.1-1.4.3.3-.9,1.2h1.7l-.4-.8.4.4.8,1.6,1.2-1.4-1.3-.3.7-3.1Zm3.1-1.1h-.3V106Zm-11.2,5.6v-.6l.3.7Zm-12.8,10.1,1.7-.1-.8-1.3Zm-.1-2.8,1.7-.2-.8-1.2.9.6.7,1.2,1-1.5-1.3-.2.2-3.1-3.5,1.6,1.9,1.3-.8,1.5Zm3.4,3,1.1-1.4-2.1-.4Zm1.2-5.9-2.1-.3,1,1.8Zm-8.9,5.2-1.7-.4-.1-2.1.9.8-.5.8,1.3-.1,1.1.9v-.6l1,1.7,1-1.5-2-.3v-1l1.5-.1-.7-1.3,1.2,1-.5.8,1.7-.1-.7-1.3-.4.6.1-2.7-2.2.9-2.9,1.3.1.1-2.8,1,.1.1-.8,1,.1-.8-2.6.9.2.2h-.7l.8,1-.8,1.1h1.4l-.2-.5,1.9.7-.1-1.9v-.5h1.4l-.5-1.2,2.9,2.2v-.4l.2.6-1.7.2.8,1.4.9-1.4.1.3,1.2-1.4Zm1.7-3.3-.7,1.1v-1.7Zm-9.1,4.5-.1-.3.1.1.3-.7.5.4Zm25.5-6.9,1.1-1.4-2.1-.4Zm-6.2,2.4-.7-1.4-1,1.4-2.2-.6.8,1.7-.3.1.5.3.1.3.1-.1h.1v-.2l1.4-1.5-.5-.1h1.7v.1Zm-12.2,5.2h1.7L177,122l-1.1,1.3Zm17.6-6.5,1.1-.3,1.6.2-.6-1.9-1.3,1.3-.4-.5-.4,1.2Zm-4.9,1.6-.8.4.6.5h-.6l.6,1.5,1.2-1.5h-1.1Zm6.8,4.8.8-.7-1-.2.2.9Zm-2.6-.5.4-.9h-.9Zm3.1-.9,1,.4-.1-1.2-.9.8Zm5.2-5.1-1-.2.5.9.5-.7Zm-8.8-.7-.4.9,1-.2-.6-.7Zm13.8,5.6,1.1-.1-.6-1.1Z" fill="#ffe888"/>
      <path id="Path_16873" data-name="Path 16873" d="M208.2,115.5l.1-.9-.9.3.8.6Zm-7.1,3-.8-.4v1l.4-.3.1.8.9-.5-.7-.5Zm-9.9-3.2.1-.2h-.1l-.6-1.2-.3.5v-1.1h.6v.1l.2-.1h.2v-.1l.5-.2-.8-.7v.3l-.4-.7-.3.5v-.7l-3.1,1.5.5.4-1-.1v-.3l-3.2,1.4,3.2,2.4v-1.5l.9-.1-.7.4,2.4,1.1v-2.1l.5.4-.2.3h.2l-.4.1,1,1.5.8-1.8Zm-4.6-1.1.3.4-.3.5Zm1.3,1.1-.3-.5.5-.8.9.7-1.1.6Zm-8.2,10.5.4-.9-1,.2.6.7Zm11.8-5.7-.1-.6.2.1-.1-1-.7.6.2.1-.4.4.9.4Zm-2.9-2.2,1.4.5-.2-1.7Zm-2.7,3.3.9.3-.1-1.2-.8.9Zm7.5-1.5.8.3-.1-1Zm-21.3,5.1.8-1.8-1.8.5Zm-3.3.7.8-1.7-1.8.4,1,1.3Zm7.1,1.3.8.4v-1.1Zm4.1-4.5.4.8.6-.6-1-.2Zm-6.6-.3-.4-.7-.2.3-.6-.6-.1.9.6-.2-.2.4.9-.1Zm13.6,6.5.9.4v-1.1Zm4.5-3.7.5-.6-.9-.2.4.8Zm-7.8-1,.9-.1-.4-.7-.5.8Z" fill="#ffe888"/>
      <path id="Path_16874" data-name="Path 16874" d="M177.7,129.3l.9.2-.3-1.1-.6.9Zm3.5-4.6.4-.7h-.9Zm-7.8.7.8-.3-.6-.6Zm-2.6-2.8,1.3-.3-.7-1Z" fill="#ffe888"/>
    </g>
    <g id="Group_1318" data-name="Group 1318">
      <path id="Path_16875" data-name="Path 16875" d="M160.3,177.2l-1.2-.6.3,1.3Zm6.9-5.2-.1-1.1-1.2.7,1.3.4Zm1.7-7.3-1.3.6,1.2.5Zm-3.4,4.6.3,1.2-.3-.6-.6,1.2h1.3l-.3-.5.9-.7-1.3-.6Zm7-4.5.6-.3.2.6,1.4-1.4-2-.2.2.6-.5-.4v1.1h.1Zm-13.8,18-.3-1.3-.8.9,1.1.4Zm-2.9,4.1-.8.9,1.1.4-.3-1.3Zm-1.26,8.63-.2.3-.4.5.9.3v-.2l.3.4-1.8.4,1,1.4.9-1.7.8-1.4-1.2.3Z" fill="#da7f57"/>
      <path id="Path_16876" data-name="Path 16876" d="M153.1,191.5l-.7.8.9.2Zm2.7,2.8-.7.8.9.3Zm14.1-27.7-.1-1.1-.8.7.9.4Zm-3.8,1.1-1.3-.6.4,1.3.9-.7Zm.8.6v.8l.8-.4-.8-.4Zm1.6-.8-.5.6.6.2Zm.9-3.8h-.8l.5.6Zm-9,13.5.2-.9-.8.4Z" fill="#da7f57"/>
      <path id="Path_16877" data-name="Path 16877" d="M158.7,185.4l.1-.9-.8.4Zm3.2-10.2-.8.4.6.5Zm3.1-.9.5-.4-.5-.2v-.8l.9-.7-1.3-.6.4,1.2-1.2.6,1.1.4Zm-5.1-4-.4.6h.8l-.4-.6Zm1.9,7.2-.5,1,1.3-.1-.6-.9h.3l-.3-.6-.5.6Zm-1.3,2.3-.2.8.9-.2Zm-.1,2.2-.2.7.9-.1-.7-.6Zm2.7-.1.6-1.2-1.4.1.8,1.1Zm-1.22,2.17.7-1.2-1.4.1.7,1.1Zm-2.68-2.47,1.3-.2-.8-1.1Zm11.3-16.1-.6-1.3-.7,1.2Zm-13.7,21,.8-.1-.6-.5Zm.2,7-.5.2.4.4-1.1.1.5.8.6-1,.1-.5.1.2.4-.7-.9.1Zm5.7-25.5-.3.5.6-.1Zm-2.7.9-.4.1.3.4.1-.5Zm3,2.8.4-.3-.5-.2Zm7.6-8.1-.3.5h.6Zm-2.8.6-.4.1.3.4.1-.5Zm2.7,2.7h-.7l.1.2-.3.3-.5-.6-.2.9.6-.1-.2.2.9.4-.1-.4.4.8,1.2-1.6-1.2-.1ZM158,179.1l-.7.3.7.6v-.9Zm.1,4.7.1.7.6-.4-.7-.3Zm-6.6,11,.2.8.4-.6-.6-.2Zm1.4,1.8.2.7.4-.6-.6-.1Zm6.9-18.3-1,.5,1.1.8Zm-6.5,7.7-.6.2.6.5Zm.9-.8.6.5V185l-.1.1v-.4l-.6.2.3.3h-.2Zm-3.2,9.1,1.1-.7.2.4.3-.7h-.7l.1.3-1.2-.4.2,1.1Zm.1,3.6,1.1-.8-1.2-.4.1,1.2Zm2.1.5L152,198l.1,1.1,1.1-.7Zm1.3-3.8,1.1-.7-1.2-.4.1,1.1Zm13.1-28,.7.4v-.6l-.7.2Zm-4.8,3.5.5-.5-.6-.2Zm1.9-1.8-.6.4.8.5Zm4.4.3h.7l-.4-.7Zm.8-6.3-.7.3.7.4Zm-5.1,3.5-.6-.2.2.8.4-.6Zm-13.2,38.4.2-.6h-.6l.4.6Zm12.1-29.6-1.6,1.2,1.5.8Zm7.7-12.1-1.1.6.9.6.2-1.2Zm1-1.4-1.2.4.8.8Zm-1.04,4.33-.9-.3.3.7h-.2l.6,1,.5-.7.2.6,1.4-1.4-1.9-.2v.3Zm.1.5Zm-2.76,3.27-.5-.3v.3l-.8.8,1.1.5V170l.5-.3.3.6,1.2-1.6h-2Zm-1.47,1.6.1.2-.17.7.6-.13.43.58-1.9.3.1.2-.3-.2.23.7-.6-.07.23.7.67-.73.65.97,2.04-3.5-2.1.3Zm-1.58,4.48-1-.1.8,1.1.4-.7.2.4,1.1-1.7-2,.2Zm-1.05-.08-1.1,1.7,1.1.1.5.9-1.2-.1H163l.6,1.2-1,.2.2.3-.4.6.7.1-.3-.7.8,1.1.9-1.8-.8.2.4-.9.5.7.5-.9.1.1.6-1.3h-.6l-.6-1.5Zm-2.8,5.4-1,1.7,1.7.2ZM150.5,206l.2-1.5-1.3.8Zm-.1-1.5V203l-1.2.9Zm10.25-20.35h0l.4-.4-.7-.3-.1-.2-.1.1-.4-.2.2.6-.2.4-.1-.3-.4.7h-.1v.1l-.5,1,1,.1.3.7h-.5l-.1-.2-.2.2h-.5l.2.3-.7.1.6,1-.6.1v-1.8l-1.5,1.2,1.3.7h-.2l.9,1.3-.7.1-.1-.2-.2.3h-.1v.1l-.1.1v-.1l-.3.5-.1.1-.7,1.1,1,.1-.9.1.2.3-.1.6-1.5-.7v1.7l1.7-.8.4.2-.3-.9.4.7.6-1.1h.1v-.1l.3-.6h-.4l-.1-.3.5.2.1.1,1.6-2.9-.7.2.2-.4.5.2-.1-.3.4-.7.1.3.8-1.5-.7.1-.1-.3h.4l.1.1v-.1h.4l-.2-.4.2-.5h-.6v-.5Zm-3.45,5.25-.7-.6-.2.7.9-.1Z" fill="#da7f57"/>
      <path id="Path_16878" data-name="Path 16878" d="M155.5,189.2l-.6,1.3h.5v.1l.4.1-.2.7.9-.2-.6-.5-.1-.2h.4l-.7-1.3Zm-2.1-1.5-.7.3.7.6v-.9Zm.8,5-.8-.2.1.6.7-.4Zm3.9-4.6-.4.6.6.1-.2-.7Zm-5.22,10.97-.3-.3-.2.5h.4l.6.8-1,.2.6.9-1.2.2-1.5,1.2,1.6.8v-2l.6.9.6-1.1.6-1.2.7-1.3-1.5.4ZM157,179.2l-.8-.1.2.6Zm-10.3,18.7.6.3-.1-.6Zm1,3.5.4-.4-.5-.1Zm3-3.6-.3-.5-.2.5Zm-2.1,9.3,1,.1-.4-1Zm.4,1.5.3-.7h-.7Zm.4-19.4-.5.3.5.3Zm.9,3.5-.5-.1.1.5Zm2.4-3.6-.2.5h.5Z" fill="#da7f57"/>
    </g>
  </g>
</svg>
