<svg xmlns="http://www.w3.org/2000/svg" xmlns:xlink="http://www.w3.org/1999/xlink" width="200.7" height="151.29" viewBox="0 0 200.7 151.29">
  <defs>
    <linearGradient id="linear-gradient" x1="0.817" y1="0.556" x2="-0.418" y2="0.412" gradientUnits="objectBoundingBox">
      <stop offset="0.005" stop-color="#cc7a5e" stop-opacity="0"/>
      <stop offset="0.924" stop-color="#aa5f4b"/>
    </linearGradient>
    <linearGradient id="linear-gradient-2" x1="-0.049" y1="0.461" x2="0.949" y2="0.545" gradientUnits="objectBoundingBox">
      <stop offset="0.298" stop-color="#f5b02a"/>
      <stop offset="1" stop-color="#e46c26"/>
    </linearGradient>
    <linearGradient id="linear-gradient-3" x1="0.127" y1="0.23" x2="0.727" y2="0.702" gradientUnits="objectBoundingBox">
      <stop offset="0.298" stop-color="#f5c52a"/>
      <stop offset="1" stop-color="#e46c26"/>
    </linearGradient>
    <linearGradient id="linear-gradient-4" x1="-0.24" y1="0.5" x2="0.973" y2="0.5" xlink:href="#linear-gradient-3"/>
    <linearGradient id="linear-gradient-5" x1="0.613" y1="0.314" x2="0.334" y2="0.883" xlink:href="#linear-gradient"/>
    <linearGradient id="linear-gradient-6" x1="0.72" y1="0.271" x2="0.17" y2="1.077" xlink:href="#linear-gradient-2"/>
    <linearGradient id="linear-gradient-7" x1="0.623" y1="0.374" x2="0.092" y2="0.821" xlink:href="#linear-gradient-3"/>
  </defs>
  <g id="_18" data-name="18" transform="translate(-137 -97.61)">
    <path id="Path_12934" data-name="Path 12934" d="M153.8,191.4a389.749,389.749,0,0,0-5.5,38.8,23.1,23.1,0,0,0-1.8,13.9c0,.6.9,1.2,1.7,1.9.5.4,1.3-.4,1.8-.1.4.1.2,1.2.6,1.4.6.3,1.7,1.1,2.1.6,1.7-1.9,2,.6,2.8.7a2.1,2.1,0,0,0,1.9-.9c.6-2.1,1.4-4.2,1.5-5.2.2-1,.94,2.33,1.34,3.83.6,1.7,2.46,2.17,2.26-.93s.2-5.7,0-6.5c-.1-.8-.2-4.1-1.2-6.1-.6-1.3-1.9-2.9-1.2-6.3,1.3-5.5,9.4-24,13.4-33,1.9-4.5-16.9-16.2-19.7-2.1Z" fill="#ea9d7d"/>
    <path id="Path_12935" data-name="Path 12935" d="M150.9,208.5c-1.7,12.3-2.6,21.7-2.6,21.7a27.927,27.927,0,0,0-1.8,13.9c.3,2.7,6.5-3.5,7.8-7.8,8.8-29.2-2.7-33.1-3.4-27.8Z" fill="url(#linear-gradient)"/>
    <g id="Group_885" data-name="Group 885">
      <path id="Path_12936" data-name="Path 12936" d="M151.3,224.8l.5-.5.5.6Zm3.4,1.1.5-.8.7.8Zm-1.9.2h-1l.2-.9Zm-1.4-.2h-1.3l.5-1.2Zm1.4-1.4,1.4.2-.9.9Zm-4.1,1.7.2-1.8,1.2,1.1Z" fill="#ad5c44"/>
      <path id="Path_12937" data-name="Path 12937" d="M149.1,223.8l1.7.3-1.1,1.1Zm1.8.8.4-.2.1.6Zm4.7,2.7h-.4l.2-.4Zm-1.5-1.6.2.5h-.5Zm-4.4.6.1-.6.4.3Zm4.3,1.6.5-.2-.2.5Zm-4.5-.5-.9-.5.9-.6Zm-2.2,8.2.3-.7.7.5Zm2.1-5.4-.9-.4.8-.6Zm1.5-.8-.8.4-.1-1Zm-1.4,2.9.1.9-.9-.2Zm-1.1-.2.3-1.3.8.9Zm0-2.7.2-1.8,1.2,1Zm-.7,4.8.2-1,.6.7Zm2.4-6-.1-.3.4-.1Zm2.2-.4H152v-.3Z" fill="#ad5c44"/>
      <path id="Path_12938" data-name="Path 12938" d="M150.3,225.8v.2l-.3-.1Zm-.5,8.2.5-.4v.6Zm-2.1,2.8h-.4l.1-.4Zm2.5-9.2.4-.2.1.6Zm-1.1,3.3.5-.2.1.5Zm-.1,4.8.1-.6.4.3Zm2.3-4.9-.2-.3h.5Zm.4-4.2.5-.2-.1.5Zm.2,2.7v-.5l.4.2Zm-5.2,9.4.1-.5.5.2Zm5.1-6.4-.4-.2.3-.3Zm-2.8,4.1-.1.3-.4-.4Z" fill="#ad5c44"/>
    </g>
    <path id="Path_12939" data-name="Path 12939" d="M160.74,247.86c-1.1-.9-1.84-4.36-2.14-5.56a7.047,7.047,0,0,1-3.8-4.7c-.7-3.5.8-5.1.8-5.2a.495.495,0,1,1,.7.7,5.823,5.823,0,0,0-.6,4.3c.5,2.8,3.4,4.1,3.4,4.1.1.1.3.2.3.4.4,1.9,1.3,4.8,1.9,5.3.9.12.4-4.4.4-4.9.1-2.9.1-6.8-1.2-9.3a9.308,9.308,0,0,1-1.5-5.8.536.536,0,0,1,.5-.5.47.47,0,0,1,.5.5,8.3,8.3,0,0,0,1.4,5.3c1.4,2.7,1.4,6.8,1.3,9.8V247c-.1.7-.96,1.82-1.96.86Z" fill="#cc7a5e"/>
    <path id="Path_12940" data-name="Path 12940" d="M156.5,241.2c-1.2-.2-1.9,1.4-2.2,3.3-.4,2-.3,3.7,1.1,3.9,1.7.3,1.9-1.4,2.2-3.3S158.2,241.4,156.5,241.2Z" fill="#ea9d7d"/>
    <path id="Path_12941" data-name="Path 12941" d="M155.8,248.9h-.4a1.855,1.855,0,0,1-1.2-.7c-.5-.7-.6-1.9-.3-3.7.2-1.2.5-2.8,1.5-3.4a1.517,1.517,0,0,1,1.3-.3c2,.4,1.8,2.3,1.5,4.2v.2c-.2,1.6-.4,2.8-1.3,3.4A2.016,2.016,0,0,1,155.8,248.9Zm.5-7.3a.6.6,0,0,0-.4.1,7.423,7.423,0,0,0-1,5.8.6.6,0,0,0,.6.3.989.989,0,0,0,.8-.1c.6-.4.7-1.8.9-2.8v-.2c.3-2.1.3-2.9-.7-3.1h-.2Z" fill="#cc7a5e"/>
    <path id="Path_12942" data-name="Path 12942" d="M153,240.7c-1.2-.2-1.9,1.4-2.2,3.3-.4,2-.3,3.7,1.1,3.9,1.7.3,1.9-1.4,2.2-3.3C154.5,242.5,154.7,241,153,240.7Z" fill="#ea9d7d"/>
    <path id="Path_12943" data-name="Path 12943" d="M152.3,248.4h-.4a1.855,1.855,0,0,1-1.2-.7c-.5-.7-.6-1.9-.3-3.7.2-1.2.5-2.7,1.5-3.4a1.517,1.517,0,0,1,1.3-.3c2.2.4,1.8,2.6,1.5,4.5-.2,1.6-.4,2.8-1.3,3.4A3.6,3.6,0,0,1,152.3,248.4Zm.5-7.2a.6.6,0,0,0-.4.1,7.423,7.423,0,0,0-1,5.8.6.6,0,0,0,.6.3.989.989,0,0,0,.8-.1c.6-.4.7-1.8.9-2.8.4-2.4.3-3.1-.7-3.3h-.2Z" fill="#cc7a5e"/>
    <path id="Path_12944" data-name="Path 12944" d="M149.8,239.9c-1-.2-1.7,1.1-1.8,2.9-.3,1.7-.3,3.1.9,3.3,1.3.2,1.7-1.1,1.8-2.9C151,241.6,151.1,240.1,149.8,239.9Z" fill="#ea9d7d"/>
    <path id="Path_12945" data-name="Path 12945" d="M149.2,246.6h-.4c-2-.4-1.5-2.8-1.3-3.9a4.416,4.416,0,0,1,1.2-3,1.383,1.383,0,0,1,1.2-.3h0a1.855,1.855,0,0,1,1.2.7,4.84,4.84,0,0,1,.2,3.2c-.1,1.4-.4,2.5-1.1,3a1.93,1.93,0,0,1-1,.3Zm.4-6.2a.367.367,0,0,0-.3.1,3.582,3.582,0,0,0-.8,2.3c-.4,2.3,0,2.7.5,2.8a.56.56,0,0,0,.6-.1,8.33,8.33,0,0,0,.7-4.8,1.541,1.541,0,0,0-.7-.3Z" fill="#cc7a5e"/>
    <path id="Path_12946" data-name="Path 12946" d="M159.9,226.2l-10.8-1.5a2.008,2.008,0,0,1-1.8-2.5l1.5-10.5,16,3.9-2.5,9A2.051,2.051,0,0,1,159.9,226.2Z" fill="url(#linear-gradient-2)"/>
    <path id="Path_12947" data-name="Path 12947" d="M240.6,113.9c6.9,6.4,8.5,23.2-16.4,40.7s-35,26.2-38.5,39.6c-3.9,14.7-5.4,20.9-12.9,24.3s-20.4,0-25.8-1.7-13.8-12.2-8-33.3c5.7-21.1,22.3-37.8,35.4-49s30.9-25.8,42.2-30.5c13.2-5.6,16,2.4,24,9.9Z" fill="url(#linear-gradient-3)"/>
    <path id="Path_12948" data-name="Path 12948" d="M269.8,192.4l-.8-12.9-.9-13.2-1-12.9c-.4-4.9-.8-8.9-1.1-11.2a23.812,23.812,0,0,0-.5-2.6,60.6,60.6,0,0,0-4.2-12.9c-6.4-14.2-18.3-27.3-33.2-26.6-3.6.1-15,.3-21.4,26.6-.8,3.4-1.6,7.2-2.2,11.5q-.179.744-.3,1.5c-.5,3.1-1.5,8-2.5,13.8l-2.4,12.9-2.5,13.2L191.3,208h79.3q-.36-7.8-.8-15.6Z" fill="url(#linear-gradient-4)"/>
    <g id="Group_886" data-name="Group 886">
      <path id="Path_12949" data-name="Path 12949" d="M207.4,150.9l1.3.4-.2-1.6Zm-3.5,1.7,1.4.4-.3-1.6Zm1.1-5.5.2-.8-.9.2Zm4.6,5.8,1.1-1.3-1.8-.5Zm-6.3,3.4,1.3-1.4-2-.7Zm-1.1,3.8,1.3-1.4-2.1-.6Zm1.5-7.9,1.1-1.2-1.8-.6Zm2.2-.3,1.1-1.3-1.8-.6Z" fill="#fcd842"/>
      <path id="Path_12950" data-name="Path 12950" d="M205.4,154.5l1.3-1.4-2-.7Zm.9-7.1,1.1-1.3-1.8-.5Zm-.6,1.9,1.1-1.3-1.8-.5Zm-.6,19.4,1.3-1.3-2-.8Zm2.4-6.5-1.7-.8-.1,2.2Zm-1.9,2.8-1.7-.8-.1,2.2Zm2.1-7.8,1.6.6-.2-1.8Zm.7-7.8,1.4.4-.3-1.6Zm-1.2,20.9,1.5.5-.1-1.8Zm-.7-10.8,1,.4v-1.3Zm1.2-7.2-.1.9,1-.2Zm6.8,6.2-.9.1.5.9Zm2.5-2.3.3-.9-1,.1Zm-6.3-.7.8.1-.3-.9Zm5.1-6.2.1.8.8-.5Zm4.1,21,.5-1h-1.3Zm-7.1-1.3.9.2-.3-1Zm6.2-6.7.1.9.9-.4Zm-2.3,21.3.4-1h-1.2Zm-7.2-1.3.9.2-.2-1Zm6.3-6.7.1.9.9-.5Zm-1.4,4.4.4-1h-1.2Zm-7.2-1.2,1,.1-.4-1Zm6.3-6.8v1l.9-.6Zm-7.1,12.7,1.1-.4-.9-.9Zm-4.3-5.8.6.7.5-.9Zm9.2-.6-.6.7,1,.3Zm-3.1-10.2,2,.4-.7-2.2Z" fill="#fcd842"/>
      <path id="Path_12951" data-name="Path 12951" d="M212.7,164.3l.1,1,.9-.6Zm-4.4,8.3-.9-.7-.2,1.2Zm.8-4.6-.6-1-.7,1Zm-5.1,5.1.6-.7-1-.3Zm-2-8.9.8.4.1-1Zm7.4,6.3.4-1.4-1.7.2Zm-9.7-.3h1.2l-.5-1.3Zm7.1-10.1.3,1.2,1.1-.9Z" fill="#fcd842"/>
      <path id="Path_12952" data-name="Path 12952" d="M207.8,173.2,207,172l-.8,1.4Zm-6.2,6.6.8-.9-1.2-.4Zm-2.7-11.1,1,.5.1-1.2Zm12.2-8.9-.5-1-.8,1.1Zm-5.2,5.1.7-.7-1-.3Zm-1.8-9,.8.4.1-1Zm-1.6,2.4,1.6.5-.2-1.8Zm1.5,2,2.5-.3-1.4-2.4Zm1.9-2.7,1.6-1.9-2.6-.8Zm-3.2,12.2,1.7-1.9-2.7-.8Zm-.8,5.4,1.6-1.9-2.6-.8Zm.7.9-2.1-1.2-.3,2.8Z" fill="#fcd842"/>
      <path id="Path_12953" data-name="Path 12953" d="M205.7,174.7l-1.9.2,1.1,1.8Zm-.6-4.7-1.8.2,1,1.8Zm-5.3,6.5,1.6-1.8-2.6-.9Zm3.4-14,1.6.5-.2-1.8Zm-2,.2,1.5.5-.2-1.8ZM214,152.6l.4-1-1.3.1Zm-2.4-2.1-.7-.5-.1.9Zm4.3,3,.9.1-.3-1Zm-13.4,10.9.2-.9-1,.2Zm5.3-8h.9l-.5-.9Zm-6.9,12.1,1.3-1.4-2-.7Z" fill="#fcd842"/>
      <path id="Path_12954" data-name="Path 12954" d="M200,163.7l-.7,3.5,3.9-.8Zm-1.1,5.4-.7,3.6,3.9-.8Zm2-10.3-.7,3.5,3.9-.8Zm-3,17.2-.7,3.6,3.9-.9Z" fill="#fcd842"/>
      <path id="Path_12955" data-name="Path 12955" d="M201.8,154.7l-.7,3.5,3.9-.8Zm.5-3.6-.5,3.5,3.8-1Zm.8-3.6-.3,3.2,3.4-1.1Zm-4,29.7,1.3-1.4-2-.7Zm-1.3-2.7,1.8.6-.2-2.1Zm-.5,5.6,1.7.7-.1-2.1Zm.1.8.3,1.9,1.7-1.2Zm2.8-.1,1.5,1,.3-2Zm-1.7,3.1,1.5,1,.3-2ZM209,173.8l-.6-1-.7,1.1Zm-5.1,5.1.6-.6-1-.4Zm-2-8.9.8.4.1-1Zm9-6.3-.5-.8-.6.8Zm2.6-2-.7-1.4-1.1,1.4Z" fill="#fcd842"/>
      <path id="Path_12956" data-name="Path 12956" d="M211.1,166.5l-.4-.8-.6.9Zm-.7-2.5-.4-.8-.6.8Zm-1.9,10.8,1.4-1.3-2-.7Zm1.7-2,.6.4.1-.9Z" fill="#fcd842"/>
      <path id="Path_12957" data-name="Path 12957" d="M217,161.7l-.6-1.1-.9,1.1Zm-6.1,5.4.7-.7-1.1-.5Zm-1.5-10.3.8.6.2-1.2Zm-2.2-24.1,1.3.5-.1-1.6Zm-1,3.5,1.1-1.3-1.8-.5Zm-1.1,3.8,1.1-1.3-1.8-.5Zm1.9-7.8,1.3-1.1-1.7-.8Zm2.3,0,1.3-1.1-1.8-.8Z" fill="#fcd842"/>
      <path id="Path_12958" data-name="Path 12958" d="M207.9,134.6l1-1.3-1.7-.5Zm.8-4.6,1-1.1-1.5-.6Zm-.6,17.4,1.1-1.3-1.8-.5Zm1.6-5.7-1.5-.6V143Zm-1.4,2.5-1.5-.7v1.9Zm1.4-6.9,1.4.4-.3-1.5Zm.9,9.5,1.8.2-.6-1.9Z" fill="#fcd842"/>
      <path id="Path_12959" data-name="Path 12959" d="M211.5,146.6l-.5-.8-.6.9Zm-4.2,4.7.5-.6-.8-.3Zm-2.1-7.7.7.3V143Zm6.6,5.2.3-1.3-1.4.3Zm-8.5.1h1.1l-.5-1.1Zm5.8-9.1.3,1,.9-.8Zm1.9,11.7-.7-1-.7,1.2Zm-5.3,5.9.7-.8-1.1-.3Z" fill="#fcd842"/>
      <path id="Path_12960" data-name="Path 12960" d="M203.1,147.7l.9.5v-1.1Zm-4.3,31.6,1.3-1.4-2-.7Zm-1.4,3.9,1.3-1.4-2-.7Zm2.8,8.8,1.4-1.4-2-.7Zm2.5-6.6-1.7-.9-.1,2.2Zm-1.9,2.9-1.7-.9-.1,2.2Zm2.4-7.8,1.5.7-.1-1.8Zm-.9,13.1,1.5.6-.1-1.9Zm-.4-10.8,1,.4V182Zm1.5-7.2-.2.9,1-.2Zm6.5,6.5-.9.1.5.9Zm4.2-1.6.4-1h-1.2Zm-7.2-1.4.9.1-.2-1Zm6.4-6.6.1,1,1-.5Zm1.7,21.4.5-1h-1.3Zm-7.1-1.4.9.1-.3-1Zm6.4-6.6v.9l1-.4Zm-2.9,21.2.5-1h-1.3Zm-7.1-1.4.9.1-.2-1Zm6.4-6.6.1,1,.9-.5Zm-1.5,4.4.5-1h-1.3Zm-7.1-1.4.9.1-.3-1Zm6.4-6.6.1.9.9-.5ZM201.1,208l1.1-.4-.9-.9Zm-4.1-6,.5.8.5-.9Zm9.2-.3-.6.7,1,.3Zm-2.9-10.3,2,.5-.6-2.3Zm4.6-3.6.1.9.9-.5Z" fill="#fcd842"/>
      <path id="Path_12961" data-name="Path 12961" d="M203.4,195.9l-.9-.7-.3,1.2Zm.8-4.6-.5-1-.8,1Zm-5.2,5,.6-.6-.9-.4Zm-1.7-9,.7.5.2-1Z" fill="#fcd842"/>
      <path id="Path_12962" data-name="Path 12962" d="M204.5,193.9l.4-1.4-1.6.1Zm-9.7-.6H196l-.5-1.3Zm7.3-9.9.3,1.2,1.1-.8Zm1,13.4-.7-1.2-.8,1.3Z" fill="#fcd842"/>
      <path id="Path_12963" data-name="Path 12963" d="M196.6,203.1l.9-.8-1.2-.5Zm-2.1-11.2,1,.6.1-1.3Zm11.9-9-.6-1-.7,1.1Zm-5.2,5.1.7-.7-1-.3Zm-1.8-9,.8.4.1-1Zm-1.6,2.4,1.5.5-.1-1.8Zm1.5,2,2.4-.3-1.4-2.4Zm1.9-2.7,1.6-1.8-2.6-.9ZM197.8,193l1.7-1.8-2.6-1Zm-1,5.3,1.7-1.8-2.6-.9Zm1.1,1.2-2.2-1.3-.4,2.8Zm2.7-1.5-1.8.1,1,1.9Z" fill="#fcd842"/>
      <path id="Path_12964" data-name="Path 12964" d="M200.2,193.2l-1.9.1,1,1.9Zm-5.5,6.4,1.7-1.8-2.6-.9Zm3.8-14,1.5.5-.2-1.8Zm-2.1.2,1.5.5-.2-1.8Zm1.3,1.7.2-.9-1,.2Zm5.5-7.7h1l-.5-1ZM196,191.6l1.4-1.4-2-.7Z" fill="#fcd842"/>
      <path id="Path_12965" data-name="Path 12965" d="M195.8,186.2l-.8,3.5,3.9-.7Zm-1.3,6.2-.8,3.5,3.9-.7Zm2.1-10.7-.7,3.6,3.9-.9ZM193,199.2l-.6,3.5,3.8-.9Z" fill="#fcd842"/>
      <path id="Path_12966" data-name="Path 12966" d="M197.3,177.7l-.8,3.5,4-.8Zm-3,22.7,1.3-1.3-2-.8Zm-.6-4.1,1.8.8-.1-2.1Zm-1.4,6.9,1.7.8v-2.2Zm0,.8.2,1.9,1.9-1.1Zm2.8,0,1.5,1.1.4-2Zm-1.8,3.1,1.5,1,.4-2Zm10.7-10-.6-1-.7,1.1Zm-5.3,5,.7-.6-1-.4Zm-1.7-9,.8.5.1-1.1Zm9.1-6-.4-.8-.7.8Zm2.7-1.9-.7-1.4-1.1,1.3Z" fill="#fcd842"/>
      <path id="Path_12967" data-name="Path 12967" d="M206.3,189.9l-.4-.8-.7.8Zm-.7-2.5-.4-.8-.6.8Zm-2.1,10.7,1.4-1.3-2-.7Zm1.7-2,.7.5.1-.9Z" fill="#fcd842"/>
      <path id="Path_12968" data-name="Path 12968" d="M212.3,185.3l-.5-1.2-1,1.1Zm-6.3,5.2.8-.7-1.1-.5Zm-1.2-10.3.9.6.2-1.2Zm2.5-6-.7-1.2-.8,1.3Zm-6.4,6.3.8-.7-1.2-.5Zm-2.3-11.1,1,.6.1-1.3Zm14.5-30.5-.5-.8-.6.9Zm-4.3,4.8.6-.6-.9-.3Zm-2.1-7.8.8.3v-.9Zm-1.5,2.6,1.3.4-.2-1.6Zm1.6,1.6,2.1-.4-1.3-2.1Zm1.6-2.8,1.4-1.7-2.4-.7Zm-2.3,11.2,1.3-1.7-2.3-.7Zm0-6.5,1.4.4-.2-1.6Zm-1.8.3,1.4.4-.2-1.6Zm1.3,1.4.1-.8-.9.2Z" fill="#fcd842"/>
      <path id="Path_12969" data-name="Path 12969" d="M210,136.2l.8-.1-.5-.8Zm-5.6,11.2,1.1-1.3-1.8-.5Z" fill="#fcd842"/>
      <path id="Path_12970" data-name="Path 12970" d="M203.8,142.7l-.5,3.1,3.4-.9Zm.6-3.7-.5,3.1,3.4-.9Zm.7-3.8-.5,3.2,3.4-.9Zm.9-3.6-.7,3.1,3.4-.7Zm.3-3.1-.5,2.7,3.1-.7Zm6.4,14.4-.4-.7-.5.7Z" fill="#fcd842"/>
      <path id="Path_12971" data-name="Path 12971" d="M213.1,145.3l-.4-.7-.5.8Zm-.7-2.2-.5-.6-.4.7Zm-3.3-24.6,1.1.5-.1-1.4Zm2.1-4.1.3-.7h-.8Zm-.6,5.5,1.1-.4-1-.9Zm.4,4.5,1-.5-.9-.8Zm-1.9,3.2.9-.4-.9-.7Zm2.7,1.9-.2-.9-.8.6Zm-.5-2.6-.2-.9-.9.6Zm.8-8.4-.2-.9-.8.6Zm.3-4.9-.1-.6-.6.4Zm1-2.1-.5.2.5.5Zm.6-.9-.6.2.5.4Zm-2.9,11,1.1-.8-1.4-.8Zm-.9,4.2-.1-1.4-1.4.7Zm.2-3.3-.1-1.4-1.4.7Z" fill="#fcd842"/>
      <path id="Path_12972" data-name="Path 12972" d="M209,118.3l-.8,2.7,3.1-.4Zm-.7,2.8-.8,2.7,3.1-.3Z" fill="#fcd842"/>
      <path id="Path_12973" data-name="Path 12973" d="M207.6,123.7l-.8,2.8,3.1-.5Z" fill="#fcd842"/>
      <path id="Path_12974" data-name="Path 12974" d="M207,126l-.7,2.8,3-.5Zm3.2-10.1-.7,1.7,2-.1Zm0-.3,1.5.3-.4-1.6Z" fill="#fcd842"/>
    </g>
    <g id="Group_887" data-name="Group 887">
      <path id="Path_12975" data-name="Path 12975" d="M229,186.1l-1.2.6,1.2.9Zm1.4-3.8-1.3.3,1,1.2Zm-4.6,2.6-.3,1.5,1.8-.5Zm-3.8-4-.1,1.5,1.6-.5Zm-3.5-2.9-1.6.3,1,1.4Zm6.9.6-.2,1.5,1.6-.4Zm1.2,2.8-.2,1.5,1.7-.5Zm2.1-2.2-.2,1.7,1.7-.5Z" fill="#e06c1e"/>
      <path id="Path_12976" data-name="Path 12976" d="M226.6,176.1l.3,1.5,1.4-.9Zm3.5,6.4.1,1.7,1.6-.9Zm-1.6,1.2v1.5l1.6-.9Zm-.3-2.4-.3,1.5,1.7-.4Zm1.6,4.6-.3,1.5,1.7-.4Z" fill="#e06c1e"/>
      <path id="Path_12977" data-name="Path 12977" d="M230.6,186l-.1,1.6,1.6-.6Zm-5.2-5.9-1.3.3,1,1.1Zm4.2,7-.9,1,1.4.5Zm-4.4-8.6-.9.2.6.8Zm2.5,5.4-.4-.7-.5.7Zm-7.4-1.1.6-.5-.9-.4Zm-2,3.1.2.8.8-.6Zm5.4-2.6-.8.4.7.5Zm-1,7.5-.6-.6-.3.7Zm-2.6-3.7.9.2-.3-1.1Zm-.7-5.8.1.7.7-.5Zm6.7,3.2-.7.3.6.6Zm2.6-7.3-1.2.3.9,1.2Zm-1.8-.5-1.6,1.2,2,1.1Zm-.4,2.8-.3,2,2.2-.7Zm-1.2-3.5-1.2.6,1.4.9Z" fill="#e06c1e"/>
      <path id="Path_12978" data-name="Path 12978" d="M224.1,175.1l-1.2.7,1.2.9Zm-.7,11.5.1.8.9-.6Zm3.1,2.7.8-.2-.5-.7Zm-4.8-2.4-.7.3.6.5Zm4-5.8-.6.5.8.3Zm3-3.9-1.2-2.6-2.3,2.3Zm1.5,2.9-1.3-2.6-2.2,2.5Zm1.4,2.7-1.4-2.5-2,2.6Zm1.6,2.8-1.5-2.5-2,2.6Z" fill="#e06c1e"/>
      <path id="Path_12979" data-name="Path 12979" d="M234.5,188.2l-1.3-2.7-2,2.6Z" fill="#e06c1e"/>
      <path id="Path_12980" data-name="Path 12980" d="M236,190.4l-1.5-2.5-1.9,2.7ZM224.5,184l1.3.3-.3-1.4Zm-3.9.1,1.3.3-.3-1.4Zm7.2,3.1-.2,1.5,1.8-.6Z" fill="#e06c1e"/>
      <path id="Path_12981" data-name="Path 12981" d="M229.4,189.8l1.5-.4-1.1-1.4Zm5.9,2.3,1.6-.2-1-1.5Zm-2.1.6,1.6-.4-1-1.4Zm-1.2-2.5,1.6-.4-1.1-1.5Zm-1.4,1.5-.8-.2.1.9Zm-.3,5.9v-.7l-.8.3Zm-6-4.4.7-.2-.5-.7Zm-8.4-7.7-.2.9,1.1-.2Zm5.9,0h-.7l.4.8Zm-4,6.3-.1-.6-.7.4Zm15,.2-1.7.4,1.2,1.4Zm-9.8-.3-.4-.7-.5.7Zm2.6-2.1.9.3v-1Zm.8-5.8-.1.7.9-.3Zm5.7,4.7-.8.1.5.8Zm-19.9-2.8.5.8.5-.9Z" fill="#e06c1e"/>
      <path id="Path_12982" data-name="Path 12982" d="M216.7,181.3l-.5.5.7.3Zm1.7,7.3-.7-.4-.1.8Zm9.3,13.3.9-.1-.6-.8Zm.1-7.4.9-.2-.6-.9Zm-2.1,1.8.3.8.5-.7Zm7.3,1.2-.6.5.8.4Zm-2.3-10.7v2l2.2-.8Zm.7-1.7-.3,1.4,1.7-.3Zm-.6,5.3.8,1,.7-1.2Zm-7.3-.9.5.5.2-.8Zm-4,2.5.7.8.5-1Zm4.2-5.2-.5.7,1,.2Zm2.7,8-.8-.4v1Zm9-2.4-1-.6-.3,1.5Zm1.5,1.3-1.1.5,1.2,1Z" fill="#e06c1e"/>
      <path id="Path_12983" data-name="Path 12983" d="M236.8,194.2l-1.1-.6-.2,1.4Z" fill="#e06c1e"/>
      <path id="Path_12984" data-name="Path 12984" d="M235.9,196l2-.1-1.1-2.2Z" fill="#e06c1e"/>
      <path id="Path_12985" data-name="Path 12985" d="M235.8,194l2.3-.2-1.5-2.2Zm-1.1,1,.1,1.5,1.6-.8Zm2,1.8.2,1.6,1.5-1Zm-.9.1-1.1.7,1.3.8Zm2.2-1.7-1.1.6,1.2,1Zm-6.3-.8.5.6.3-.9Z" fill="#e06c1e"/>
      <path id="Path_12986" data-name="Path 12986" d="M239.5,196.1l-1.5-2.4-1.8,2.8Zm5.5,8.2-.8.6,1,.4Zm-1.3-.8.3,1.2,1-.9Zm-2.7-3.6.3,1.2,1.1-.8Zm2.8,4.9.1,1,1-.6Zm-5.2-2.2,1.2-.8-1.4-.8Zm2,1.1,1.1-.8-1.5-.8Zm-3.4-4,1.2-.6-1.3-1.1Zm-3.6,1.1h.8l-.2-.8Zm-.8-5.3.1.6.7-.4Zm6.2,2.7-.7.3.6.5Zm-2.8,9.2,1.3.3-.5-1Zm-.6-4.4.1.7.7-.4Zm6.1,3.1-.8.3.6.5Zm-3.3,1,.1.7.7-.4Zm-5.3-3.2.8.2v-.9Zm-1.9-4.7.1.6.6-.4Zm5.8,2.9-.7.3.6.5Zm-1.6,3.2-.4.8h1Zm5.7,1.5-.7-.3.1.8Zm-15.7-.3-.4.7.8.2Zm5.5.1-.6.7.8.2ZM217,193.9l.9-.2-.6-.8Zm7.3,6.6h.9l-.4-.8Zm-1.1-5.3.2.7.6-.5Zm2.7,4.1.2.6.6-.5Zm-4.9-2.7.8.1-.4-.9Zm2,1.1-.2.9.9-.1Zm3.4,4.1v-.7l-.8.4Zm2.8,1.7-.8.1.6.8Zm-12.9-6.1-.5.6.9.3Zm5.1,2-.8-.3.1.8Z" fill="#e06c1e"/>
      <path id="Path_12987" data-name="Path 12987" d="M218.3,206.3v-.6l-.6.2Zm.5-6.3-.4.7.9.1Zm7.5-.6-.6-.3-.1.7Zm-6.1,3.1.3-.7-.8.2Zm21.3-1.6-.6.8,1,.3Z" fill="#e06c1e"/>
      <path id="Path_12988" data-name="Path 12988" d="M239.9,200l-.5,1.5,1.8-.2Z" fill="#e06c1e"/>
      <path id="Path_12989" data-name="Path 12989" d="M240.1,200l-1,.6,1.1.6Zm.7-2.3-1.1.7,1.2.7Z" fill="#e06c1e"/>
      <path id="Path_12990" data-name="Path 12990" d="M238.9,198.5l.4.5.4-.7Zm2.1-.5-1.5-2.1-1.8,2.3Zm1.5,2-1.4-2-1.2,2.2Z" fill="#e06c1e"/>
      <path id="Path_12991" data-name="Path 12991" d="M243.7,201.5l-1.4-1.9-1.3,2.1Z" fill="#e06c1e"/>
      <path id="Path_12992" data-name="Path 12992" d="M245.1,203.2l-1.4-1.8-1,2.1Zm1.4,1.5-1.4-1.4-.8,2.1Zm-3.9,1.2-1.5,1,1.8,1.1ZM232.3,197l.1,1.8,1.7-1Zm-8.1-10.3v1.8l1.8-1Zm21.5,19.1-1.1.7,1.3.9Z" fill="#e06c1e"/>
      <path id="Path_12993" data-name="Path 12993" d="M244.8,205.5l-1.1.8,1.4.7Zm-11.4-11.7-.8,1,1.5.4Zm-4.4,1.3-.8,1.1,1.4.4Zm9.1,9-1.5,1.2,1.9.9Zm10.4,3.3-1.7-2-1.5,2.8Zm-25.7-21.9.2-.7h-.9Zm-5.4-.2h.7l-.3-.7Zm4-5.6.1.7.5-.5Zm2.6-1.3.3,1,1-.7Zm2.7,12.9.6,1.5,1.2-1.2Zm1.7-.2,1.4.6-.1-1.7Zm1.8,4.9,1.4.7-.1-1.8Zm-9.5-26.4-1.2.6,1.1,1Zm1.7-3.5-1.2.2.8,1.2Zm-4.8,2.1-.4,1.5,1.8-.3Zm-3.4-4.2-.3,1.5,1.6-.4Z" fill="#e06c1e"/>
      <path id="Path_12994" data-name="Path 12994" d="M215.6,160.8l-.1-1.6-1.6.9Zm.4-15.9-.5-1.8-.9.9Zm1.7,17.1-.3,1.4,1.7-.3Zm1,2.8-.3,1.6,1.7-.4Zm2.2-1.9-.3,1.5,1.7-.3Zm-1.8-3.3.2,1.5,1.5-.9Zm3,6.7.1,1.5,1.6-.7Zm-1.8.9.1,1.6,1.6-.7Z" fill="#e06c1e"/>
      <path id="Path_12995" data-name="Path 12995" d="M220.3,164.9l-.3,1.5,1.7-.3Zm1.3,4.6-.5,1.5,1.8-.2Z" fill="#e06c1e"/>
      <path id="Path_12996" data-name="Path 12996" d="M222.3,169.7l-.2,1.5,1.6-.5Zm-4.7-6.3-1.2.2.8,1.2Zm1.4-8-1.3.2.8,1.3Zm-3.4-1.5v1.3l1.3-.8Zm1.2-6.1-.9,1,1.4.4Zm4.5,23-1,.8,1.3.6Zm-3.8-9-.9.1.5.9Zm2.1,5.6-.3-.7-.7.6Zm-7.3-1.6.6-.6-.7-.3Zm1.8-8.3.7-.5-.8-.3Zm1.7-10.3.6-.6-.8-.3Zm-5.7,21.5.2.8.8-.5Zm5.5-2.2-.7.3.6.7Zm-1.6,7.3-.4-.6-.5.7Zm-2.2-3.8.9.2-.2-1Zm1.6-15.8.1.7.7-.4Zm1.9-1.1v.7l.8-.4Zm-1-1.3-.1.7.8-.3Zm3.6,16.1-.7.2.7.6Zm3.3-7.1-1.2.2.8,1.3Zm-1.8-.7-1.7,1.1,1.9,1.2Zm-.9-2-.6.5.8.6Zm-1-2.4-.8.5.9.5Zm-1.9.2v1l1-.5Zm3.1,7-.4,2,2.2-.5Zm-.9-3.7-1.2.6,1.2,1Z" fill="#e06c1e"/>
      <path id="Path_12997" data-name="Path 12997" d="M216.6,158.5l-1.1.4,1.1,1Zm.9-6.1-1.2.6,1.1,1ZM215,169.7l.2.9.8-.6Zm3,2.9.8-.1-.5-.7Zm-4.6-2.8-.7.3.5.6Zm4.5-5.4-.7.4.7.5Zm3.4-3.6-1-2.6-2.4,2Zm1.2,3.1-1.2-2.7-2.2,2.4Z" fill="#e06c1e"/>
      <path id="Path_12998" data-name="Path 12998" d="M223.6,166.7l-1.2-2.7-2.2,2.3Zm-5.4-14.6-.7-2.2-2.1,1.7Zm1,3.2-.8-2.4-2,1.9Zm1,2.8-.9-2.4-2,1.9Zm4.8,11.4-1.3-2.6-2.1,2.4Z" fill="#e06c1e"/>
      <path id="Path_12999" data-name="Path 12999" d="M226.1,172.1l-1.2-2.7-2.2,2.5Z" fill="#e06c1e"/>
      <path id="Path_13000" data-name="Path 13000" d="M227.4,174.5l-1.3-2.5-2.1,2.5Zm-11-7.2,1.3.4-.2-1.5Zm-3.9-.2,1.2.4-.1-1.4Zm7,3.5-.3,1.5,1.7-.4Z" fill="#e06c1e"/>
      <path id="Path_13001" data-name="Path 13001" d="M220.8,173.3l1.5-.2-.9-1.4Zm4,2.8,1.7-.2-1-1.5Zm-1.4-2.1,1.6-.3-.9-1.4Zm-1.5,1.4-.8-.3.1,1Zm-6.4,1,.8-.1-.5-.8Zm-2.7-26.1-.3.8,1-.1Zm.8,18.2h-.7l.4.8Zm-4.4,6-.1-.7-.8.5Zm14.9,1.4-1.7.3,1.1,1.5Zm-9.8-1.1-.4-.7-.5.7Zm2.8-1.9.9.4v-1Zm1.2-5.8-.2.8.9-.2Zm5.3,5.3h-.7l.4.8Zm-13.3,8,.4.7.6-.8ZM213,159l-.6.5.8.4Zm-.9,13.9-.6-.4-.2.9Z" fill="#e06c1e"/>
      <path id="Path_13002" data-name="Path 13002" d="M218.9,178l.9-.2-.5-.8Zm3.5-7.5-.1,2.1,2.1-.7Zm.9-1.7-.5,1.5,1.8-.2Zm-1.1,5.3.7,1.1.8-1.2Zm-7.3-1.4.6.5.3-.8Zm-1.3,6.8.5.8.7-.9Zm1.7-9.5-.5.6.9.3Zm7.5,8.2.5.6.2-.9Zm1,1.2.1.6.6-.3Zm-8-9.4v1.8l1.9-.9Zm5.5,6.7-.9.8,1.4.6Zm-1.2,2-.9,1,1.3.5Zm-5.6-10.1.4-.7h-1Zm-5.3-.7.7.2-.2-.7Zm4.4-5.1.1.7.6-.4Zm1.9-12.7.1.7.7-.4Zm-.8-1.6.1.7.7-.5Zm1.7,13.1.2,1,.9-.6Zm1.6,13.2.5,1.4,1.3-1.1Zm1.8-.2,1.3.7.1-1.7Zm1.4,5.1,1.3.7.1-1.8ZM241,204.3l1.2.8.3-1.7Zm-6.2-4.2.5,1.4,1.3-1.1Zm-2.7,1.5-1.2,1,1.7.7Zm.7,4-.3,1.5,1.8-.5Z" fill="#e06c1e"/>
    </g>
    <g id="Group_888" data-name="Group 888">
      <path id="Path_13003" data-name="Path 13003" d="M198.8,147.3l-1.2-.2.3,1.4Zm3.6-1.9-1.2-.5v1.4Zm-5.5-1.2-1.1,1,1.6.8ZM203,142l-1.1,1,1.5.7Z" fill="#dd6d22"/>
      <path id="Path_13004" data-name="Path 13004" d="M203,137.9l-.7,1.3,1.7.2Zm-1,7.5-.9,1.2,1.6.3Zm-1.9-.2-.9,1.2,1.6.3Zm1.2-2-1.1,1,1.5.7Zm-1.7,4.5-1.1.9,1.4.8Z" fill="#dd6d22"/>
      <path id="Path_13005" data-name="Path 13005" d="M200.1,148.2l-1,1.2,1.6.5Zm-.1-7.6-1.1-.6v1.4Zm-1.3,7.9-1.3.1.7,1.3Zm1.9-9.3-.7-.4-.1,1Zm-1.3,5.6.2-.7-.8.1Zm-5.1-5.4h.8l-.4-.8Zm-3.5.9-.4.8h1Zm5.6,1.5-.7-.2.1.8Zm-5.5,4.9.1-.8-.8.4Zm5.6-5.7.7.6.3-.9Zm2.9-5-.3.6.8.1Zm3.5,6.5-.7-.2.1.8Zm1.3-2.4-1.2-.5V141Zm-1.3-1.6h-1.9l.9,2Zm2.1-7-1.4-.5.1,1.7Zm-3.7,9.2-1.5,1.4,2.1.9Zm.8-3.7-1.2-.2.4,1.4Zm1.6-.6-1.3-.1.5,1.3ZM194,144l-.3.8h1Zm.7,4,.7.3v-.8Z" fill="#dd6d22"/>
      <path id="Path_13006" data-name="Path 13006" d="M192.6,143.1l-.7-.1.2.8Zm7-1.6h-.7l.3.8Zm4.6-2.8.6-2.8-3.1.6Zm-.7,4.4.6-2.8-3.1.7Zm-.6,3.3.6-2.8-3.1.7Zm-.5-13.1-1,1.1,1.6.6Zm2.4,2.1.7-2.8-3.2.6Zm.8-4,.6-2.3-2.7.4Zm.6-3.2.3-1.6-1.7.3Zm-3.9,21.5.6-2.8-3.2.7Zm-.5,3,.5-2.8-3.1.7Z" fill="#dd6d22"/>
      <path id="Path_13007" data-name="Path 13007" d="M201.3,155.5l.4-2.9-3.1.8ZM196.9,143l.7,1,.7-1.3Zm.3,4.2-1.1,1.1,1.6.6Zm-.3,3.1,1.3.7.1-1.7Z" fill="#dd6d22"/>
      <path id="Path_13008" data-name="Path 13008" d="M199.3,155.8l1.3.8.1-1.8Zm-1.4-.9,1.3.7.1-1.7Zm.7-2.6,1.3.7.2-1.8Zm-2.3.1-.5-.7-.6.8Zm-4,4.3.5-.6-.8-.3Zm-1.8-7.1.7.3v-.8Zm5.4,19.5-.6.6.9.4Zm-2.3-26.8-.6-.5-.2.8Zm-2.5,15.3.3-.7h-.8Zm6.7-3.6-1.4-.7v1.8Zm-8,8.1.1-.7-.8.2Zm4.2-14.2.4.8.6-.8Zm4.5-4-.6.6.8.3Zm1.2,7.2-.7-.4-.1.8Zm-2.6-20.8-.2.8,1-.2Zm5.8-.2h-.7l.4.7Zm-3.9,5.8-.1-.7-.7.5Zm6.6-10.2-1-.6-.1,1.4Zm.6-1.3-1-.1.4,1.1Z" fill="#dd6d22"/>
      <path id="Path_13009" data-name="Path 13009" d="M206.7,126.2l.5-2.3-1.5.3Zm-1.9,1.1-.9.7,1.2.6Zm2.4-3.9.5-1.6-1.2.5Zm-4.5-1.2-.2.6h.8Zm2.8,0-.6-.1.3.7Zm1.9-1.2h-.6l.3.6Zm.2-2.1h-.5l.2.6Zm-4.4,8.5-.1-.5-.5.3Zm-10.8,23.4.1.9.9-.5Zm5.7-1.8-.7.2.6.6Zm-2.1,7.1-.4-.6-.4.6Zm3.7-7.1-1.2,1.5,2.1.7Zm1.7-.9-1.2.9,1.5.8Zm-3.8,3.6-.1,1.3,1.3-.6Zm-5.3-5.4v.7l.8-.5Zm-.4,17.6v1l1-.4Zm2.2-19.5-.7.2.5.7Zm-3,7.7-.4-.8-.6.8Zm.1,12.8-.2-.7-.6.4Zm-3.2-6.8-.7-.2.1.8Zm3.3,9.7.6.2v-.8Zm-.6-4-.5-.5-.2.8Zm2.6,4.9.2.9.8-.6Zm-5.7-7.5.2.7.6-.5Zm4.5-1.2.2.9.9-.7Zm0,10.2-.4-.7-.5.8Zm7.7-13.5-.5-1.2-1,1.1Zm-.6,3.4-.4-1.2-1,1.1Z" fill="#dd6d22"/>
      <path id="Path_13010" data-name="Path 13010" d="M199.8,158.8l-.4-1.2-1,1.1Zm-1.4,1,1.7,1.1.2-2.3Z" fill="#dd6d22"/>
      <path id="Path_13011" data-name="Path 13011" d="M198.9,157.8l1.6,1.1.4-2.3Zm-3.1,6-1.1,1.1,1.7.5Zm1.1-1.6-.8,1.3,1.6.3Zm-1.8-2.3-.6-1.1-.9,1.2Zm2.2,2.1-.6-1.1-.8,1.1Zm1.8.1-1.3-.4.2,1.5Z" fill="#dd6d22"/>
      <path id="Path_13012" data-name="Path 13012" d="M195.3,155.1l.1.8.7-.5Zm4.3,8.5.6-2.7-3.2.6Zm-2.4-5.9-.7.9,1.3.4Zm-3.6-.8,1.3.3-.2-1.5Zm1-2.2,1.3.4-.2-1.6Zm-1.3-.8.5.6.5-.8Zm3.2-4.2-.4.6.7.1Zm2.3,6.3-.7-.3.1.8Zm-6.8-2.8.5.6.4-.8Zm3.2-4.2-.4.6.7.1Zm2.2,6.3-.6-.3v.8Zm-1.7,6.4h-1.1l.5,1.1Zm-3.1,13.6-1,.1.5,1Zm3.9-18.5-1.5.6,1.3,1.3Zm-2.9,1.3-1-.2.3,1.1Zm1.6,14.8.4-.6-.8-.2Z" fill="#dd6d22"/>
      <path id="Path_13013" data-name="Path 13013" d="M194.4,171l.3-.6-.8.1Zm-2.2-5.8,1.3.5-.2-1.6Zm4.8,6.1-1-.2.4,1.2Zm2.3-5.6.3-1.9-2.2.3Zm-1.1-7.5.3-2.3-2.4.7Zm-.3,3.1.3-2.3-2.4.8Zm-14.2,22.4h-.9l.5.9Zm4.8-13,.7-.4-.7-.5Zm-3.4,3.1.5-.5-.8-.2Zm.9,2.7-.5.8,1,.3Zm8.2.5.2-1.2-1.3.3Zm1.2-.8.2-1.2-1.4.4Z" fill="#dd6d22"/>
      <path id="Path_13014" data-name="Path 13014" d="M194,176.1l.7,1.9,1.6-1.7Z" fill="#dd6d22"/>
      <path id="Path_13015" data-name="Path 13015" d="M195.4,174.8l.7,1.8,1.6-1.6Zm-6.1,3.5-1.4.4,1.2,1.4Zm1.9-.7-1.5.7,1.3,1.1Zm-.4-2.9v-1.2l-1.3.5Zm2.2,4-.8-1-.6,1.3Z" fill="#dd6d22"/>
      <path id="Path_13016" data-name="Path 13016" d="M192.9,180.2l1.8-2.1-3.1-.9Zm2.8-7-1.1.4.9,1Zm-3.6,0,1,1,.6-1.4Zm-1.8,3.4-.9-.6-.1,1.1Zm3.9-14.4-1.5-.5.2,1.8Zm.7,6.7-1.1,1.1,1.7.5Zm1.1-1.6-.8,1.3,1.6.3Zm.4-.2-.6-1.1-.8,1.1Zm1.8.1-1.3-.4.2,1.5Z" fill="#dd6d22"/>
      <path id="Path_13017" data-name="Path 13017" d="M198.7,168.7l.6-2.7-3.2.6Zm-3.9-1.9h-1.1l.5,1.1Zm3.6,4,.3-1.9-2.2.3Zm-.8,4.1.3-1.9-2.2.3Z" fill="#dd6d22"/>
      <path id="Path_13018" data-name="Path 13018" d="M197.9,173l.4-1.9-2.2.3Zm-.9-6.6.3-2.3-2.4.8Zm-3.7.9-1.5-.5.2,1.8Zm-2.8,5.1-.8-.7-.4,1.1Zm.3,9.8-.9-.7-.3,1.1Zm-.7-2.1-.5.6.8.1Zm1.3,1.7,1.2-1.5-2-.7Zm-6.4,4.1-1,.4.9.8Zm1.7-3.1.2-.7-.8.1Zm1.2-2.2-1,.3.7.9Zm-4.7,13.6-.7.3.7.8Zm-1.1-1.1.3-.8h-.8Zm.4,4.1-.2.9,1.1-.1Zm4.6-10.2-.2-1.3-1.3.8Zm.9-1.1-.3-1.3-1.2.8Z" fill="#dd6d22"/>
      <path id="Path_13019" data-name="Path 13019" d="M186.6,186.1l1.3,1.6,1-2.1Zm1.6-2.6,1.1,1.6,1.2-2Zm-3,12-1.5.3,1,1.4Zm-.9-6.9-1.1,1,1.5.6Zm-1,12.5-.3-1.2-1.1,1Zm3.2-12.2-1.1-.7-.2,1.6Z" fill="#dd6d22"/>
      <path id="Path_13020" data-name="Path 13020" d="M186.7,190.4l1-2.5-2-.2Zm.5-7.5-.9.8,1.2.6Zm-2.5-1.6,1.3.6v-1.5Zm-1.5,6.5-.9-.3.1,1.2Zm-.9,15.5-1-.3.1,1.1Zm3.2-10.4-1.1-.4.1,1.3Zm-1.5-1.7-.1.7.7-.1Zm2.2,1.6.5-1.9-2.2.1Z" fill="#dd6d22"/>
    </g>
    <g id="Group_889" data-name="Group 889">
      <path id="Path_13021" data-name="Path 13021" d="M177,134.6l.7.9.5-1.2Zm2.5-2.1.4-.4-.6-.4Zm-4.1,1.3,1.2.5-.1-1.5Zm3,1.8,1.2-.4-.9-1.1Zm-2.1,1.3,1.3-.3-.9-1.1Zm2.7-2.7,1.3-.4-1-1.1Zm6.1,6.2.7.5.1-.9Zm-6.6-9.6-1.9,1.7,2.5,1.1Zm10.8-4.7.5.8.7-1Zm-1.5-1.3.5.9.7-1Zm1.6-1.6.5.9.7-1.1Zm-.4,1,.5,1,.7-1Zm-.7,4,1.2-.1-.8-1.3Zm-2.9-1.4,1.3-.3-.8-1.2Zm-2.4,1.4,1.1-.1-.7-1.2Zm5.9-6-1.3,1,1.7.9Zm1.6,2.6h1.3l-.8-1.3Zm-3.3,1.9,1.2-.3-.8-1.1Zm4.5-3.4,1.3-.3-.8-1.2ZM181.3,134l1.2-.4-.9-1.1Zm3.2-2.8-.7-1.1-.7,1.2Zm-1.7.9-.6-1.1-.9,1.2Zm2.2-3.7.7.9.6-1.2Zm6.7-4.5.6.9.7-1.1Zm-1.2-1.8.7.9.6-1Zm-8.2,10.5.3.6.5-.7Zm3.7-3.2-.4.4.6.3Zm.7,6.2-.5-.4-.1.7Zm-5.1-1.3,1.1.9.4-1.4Zm5.4-.2-.2.6h.7Zm1.7-3.4-.2.7.9-.2Zm6.1-4.3-.3.5.7.3Zm4.6,1.7-.6-.2v.8Zm-6.9,2.9-.5-.2v.7Zm1.9.8v-.6l-.7.2Zm1.7-1.3-.7-.1.3.7Zm0,3-.7.1.4.5Zm-12.4-6.1.6,1,.7-1.1Z" fill="#fcd842"/>
      <path id="Path_13022" data-name="Path 13022" d="M183.3,128.9l1.6.7.1-1.9Zm2.8-.4,1.7-.3-1.1-1.6Zm-8.9,6.3,1.5-.5-1.2-1.4Zm5-5,.7.9.5-1.1Z" fill="#fcd842"/>
      <path id="Path_13023" data-name="Path 13023" d="M180.9,129.2l.7.8.5-1.1Zm11.7-2.2-.1-.7-.6.5Zm-11.3,3.6.5-.5-.7-.3Zm5.8-2.6.5.3.1-.7Zm-8.1,4.4,1.2-.4-.8-1.1Z" fill="#fcd842"/>
      <path id="Path_13024" data-name="Path 13024" d="M180.5,129.2l-1.8,1.6,2.3,1.1Zm2.3-2.1-1.8,1.7,2.4,1.1Zm2.4-1.9-1.9,1.6,2.4,1.2Zm2.4-2-2,1.8,2.4,1Zm3.1-2.3-1.9,1.3,2.4,1.4Zm-4.5,12.3v-.7l-.5.2Zm-.7-1.8.1-1-1.1.4Zm3-1.9v-.7l-.8.2Zm-3.1,5.3v-.6l-.6.3Zm10.9-12.1v.8l.7-.5Zm3.9-6.7-.2.7.8-.1Zm3.2-.2h-.6l.2.7Zm2-3.3-.6-.1.2.7Zm1.9-2.5-.6-.1.3.7ZM199,122.4v-.6l-.6.4Zm-.9-2.7-.1-.6-.5.4Z" fill="#fcd842"/>
      <path id="Path_13025" data-name="Path 13025" d="M198.5,116.8l.1,1.4,1.4-.7Zm4.1,3.6-.6.3.5.6Zm3.8-8.9-.6.3.5.4Zm1.6-2.1-.5.1.4.6Zm-7.1,10.5.5-.5-.8-.2Zm-.3-1.9.4-.5-.6-.2Zm-4.5,7.4.5-.3-.7-.4Zm-10.2,7.7-.1-.6-.5.3Zm12.3-17.9.4.6.5-.6Zm-1.5,2.9,1-.1-.6-1.1Zm-2.2.7,1.1-.1-.6-1Zm4.5-4.3.8.4.1-1Zm-2.7,7-.6-1.1-.8,1.1Zm-2.1,1.1-.5-1-.8,1.1Zm.7,3.2.1-.7-.7.3Zm-4.4.7.6-.2-.4-.5Z" fill="#fcd842"/>
      <path id="Path_13026" data-name="Path 13026" d="M192.9,121.3l.2.6.5-.6Zm2.4-2.7.5.6.5-.9Z" fill="#fcd842"/>
      <path id="Path_13027" data-name="Path 13027" d="M194.6,119.7l1.1.5v-1.5Zm-.4.4.5.8.5-.8Zm-1.7-.4.7.9.4-1.1Zm.7,1.6.4-.4-.5-.3Z" fill="#fcd842"/>
      <path id="Path_13028" data-name="Path 13028" d="M192.5,119.4l-1.7,1.4,2,1.4Zm1.8-1.4-1.5,1.2,1.8,1.1Zm1.9-1.5-1.5,1.1,1.7,1Zm5.1-3.6-1.2.9,1.4.9Zm-3.5,2.4-1.3,1,1.6.9Zm6.1-3.6-.2.6h.7Zm-1.2,2.3.1,1.1,1.1-.7Zm3.1-3.5v1.1l1.1-.7Z" fill="#fcd842"/>
      <path id="Path_13029" data-name="Path 13029" d="M201.9,114h.8l-.4-.9Zm1.1-2.2-1.1.8,1.2.8Zm2.2-1.3-.8.5.9.6Zm-46.1,41.4.8.8.4-1.2Zm2.3-2.3.4-.6-.7-.2Zm-4.1,1.6,1.1.4-.1-1.5Zm3.2,1.5,1.3-.5-1.1-1Zm1.6.4,1.2-.4-1-1Zm-1.1-1.9,1.3-.4-1.1-1Zm6.7,5.7.7.4.1-.9Z" fill="#fcd842"/>
      <path id="Path_13030" data-name="Path 13030" d="M160.2,148l-1.7,1.8,2.6.9Zm10.5-5.7.6.9.5-1.1Zm-1.7-1.1.6.9.6-1.1Zm1.4-1.8.6.9.7-1.1Zm-.3,1.2.7.8.6-1.1Zm-.4,4,1.3-.3-.8-1.2Zm-2.8-1.3,1.1-.2-.8-1.2Zm-2.6,1.7,1.3-.4-.8-1.1Zm5.6-6.5-1.2,1.2,1.8.6Zm1.8,2.6,1.3-.3-.9-1.2Zm-3.2,2,1.3-.3-.8-1.2Zm4.3-3.8,1.3-.3-1-1.1Zm-9.5,11.6,1.3-.4-1.1-1.1Zm3-3.1-.7-1-.7,1.3Zm-1.6,1-.8-1-.6,1.2Zm1.9-3.8.7.8.4-1.1Zm6.3-5.1.7.9.5-1.1Zm-1.3-1.6.6.9.6-1.1Zm-7.5,11,.5.7.4-.7Zm3.6-3.4-.4.5.6.2Zm1.2,6.1-.6-.3-.1.7Zm-5.3-.8,1.1.8.4-1.5Zm5.5-.7-.2.6.7-.1Zm1.4-3.5-.1.8.7-.3Zm5.7-4.8-.3.7.8.1Zm4.7,1.3-.6-.1.1.7Zm-6.6,3.5-.6-.1.1.7Zm1.9.6V147l-.7.2Zm1.5-1.4h-.6l.4.6Zm.3,2.9-.6.1.4.7Zm3-8.6.5.2.2-.7Zm-1.7-1-.2.6.7-.2Z" fill="#fcd842"/>
      <path id="Path_13031" data-name="Path 13031" d="M179,136.8l-.1.6.7-.1Zm-1.5,3.8.6.1-.3-.7Zm-1.5-1.4,1.2.1-.4-1.2Zm-4.3,6.3,1.1.1-.5-1.3Zm6.1-7.9h.6l-.3-.7Zm-12.7,6.3.6,1,.6-1.1Zm-.2,1.7,1.6.6v-1.9Zm2.8-.6,1.6-.4-1.2-1.5Zm-9.2,7,1.5-.8-1-.9Zm5.4-5.4.7.8.4-1Zm-1.4-.4.8.8.5-1.2Zm11.5-3.3-.2-.6-.5.5Z" fill="#fcd842"/>
      <path id="Path_13032" data-name="Path 13032" d="M163.1,147.4l.4-.4-.7-.2Zm5.5-3,.6.3v-.8Zm-7.7,5,1.1-.4-.9-1Z" fill="#fcd842"/>
      <path id="Path_13033" data-name="Path 13033" d="M162,146.1l-1.6,1.8,2.5.8Zm2.2-2.3-1.7,1.7,2.5,1Zm2.1-2.1-1.6,1.7,2.5,1Zm2.3-2.2-1.9,1.9,2.5.8Zm2.9-2.6-1.7,1.6,2.4,1.1Zm-3.3,12.7-.1-.6-.6.3Zm-.8-1.6-.1-1.1-1.1.5Zm2.6-2.2v-.7l-.7.3Z" fill="#fcd842"/>
      <path id="Path_13034" data-name="Path 13034" d="M167.5,151.3v-.6l-.6.4Zm.4-1.7-.1-.6-.6.3Zm7.4-11.1-.7-1-.7,1.2Zm.9,3.1v-.7l-.6.3Zm-4.3,1,.6-.2-.5-.5Zm1.8-5.3.3.5.4-.5ZM175,136l.6.7.5-.8Zm-1.7-.3.6.8.5-1Z" fill="#fcd842"/>
      <path id="Path_13035" data-name="Path 13035" d="M174.1,137.2l.4-.4-.5-.2Zm-.9-1.9-1.6,1.6,2.1,1.1Zm1.8-1.4-1.4,1.3,1.9.9Zm-30,38.8,1,.4.1-1.2Zm1.8-2.9.2-.6h-.7Zm-3.5,2.6h1.3l-.6-1.3Zm3.3.7,1.1-.7-1.3-.8Zm2.2-.9,1-.8-1.2-.7Zm-2-.7,1-.6-1.2-.9Zm3.5,4,.8.3-.1-.9Zm-5.1-6.9-1.1,2.1,2.6.3Zm9.1-8,.8.8.3-1.2Zm-1.9-.8.8.7.3-1.1Zm1-2,.8.8.5-1.2Zm.1,1.2.8.8.3-1.3Zm.3,4,1.1-.5-1-1Zm-3.2-.4,1.1-.7-1.1-.8Zm-2,2,1.2-.6-1.3-.9Zm4-7.6-.9,1.3,1.8.4Zm2.5,2.2,1.1-.5-1-1Zm-2.9,2.8,1.2-.7-1.2-.9Zm3.6-4.7,1.2-.6-1.1-1Zm-6.9,13.3,1.1-.6-1.2-.9Zm2.3-3.6-1-.7-.4,1.3Zm-1.4,1.3-1-.8-.3,1.4Zm.9-4.1,1,.6.1-1.2Zm5.2-6.3.9.7.3-1.1Zm-1.5-1.4.7.7.5-1.1Zm-5,12.5.5.5.4-.7Zm2.6-4.1-.3.6.7.1Zm2.6,5.6-.6-.2.1.7Zm-2.2-4.6,1.2.4v-1.5Z" fill="#fcd842"/>
      <path id="Path_13036" data-name="Path 13036" d="M154.1,169v.6l.7-.2Zm.8-3.8v.8l.7-.4Zm4.8-5.7-.2.7.8-.1Zm3.3,2.6-.6-.2.3.8Zm-4.4,2.6-.6-.2.2.7Zm2.6-2.5v-.6l-.7.4Zm-3.2,5.5-.6.2.5.6Zm4.7-1.7-.5.2.4.6Zm1.4-9.1.6.2-.1-.7Zm-1.9-.7v.7l.6-.3Zm-.8-2.5v.6l.7-.2Zm-.8,4,.6-.1-.3-.6Zm-1.7-1,1.2-.2-.7-1.1Zm.1-1.8.9-.8-1.2-.5Zm-3.3,7.7,1.2-.1-.7-1.2Zm4.7-8h.7l-.4-.6Zm-11.3,9,.8.7.3-1.3Zm.2,1.6,1.7.1-.6-1.7Zm2.5-1.3,1.5-.8-1.5-1.1Zm-4.6,7.1,1.4-.9-1.6-1Zm1.3-4.5.9.6.2-1.3Zm-1.5-.2,1,.5.2-1.2Z" fill="#fcd842"/>
      <path id="Path_13037" data-name="Path 13037" d="M157.6,160.7l-.3-.6-.4.5Zm-9.7,6.7.3-.6h-.7Zm4.7-4.4.6.2-.1-.7Zm-6.4,6.9,1.1-.8-1.2-.7Zm.2-3.8-1.1,2.2,2.6.2Zm1.6-2.6-1.3,2.1,2.7.3Zm1.8-2.5-1.3,2,2.6.4Zm1.7-2.6-1.4,2.3,2.6.2Zm2.6-3.2-1.5,1.9,2.7.6Zm-.7,13.2-.2-.6-.6.4Zm-1.2-1.5-.3-1-1,.8Zm2-2.7-.1-.7-.6.4Z" fill="#fcd842"/>
      <path id="Path_13038" data-name="Path 13038" d="M151.7,172.3l-.2-.6-.6.5Zm1.4-3.9-.3-.6-.5.5Zm-4.8,14.5.7.3-.1-.9Zm-9.9,10.9.7.3-.1-.9Zm3.4-1.7.8.3-.2-.9Zm3.9-13.1.5.6.3-.8Zm2.7-4-.4.5.7.1Zm2.5,5.6-.6-.2.1.6Zm-11.8,12.2.4.4.3-.7Zm2.6-4.2-.4.6.7.1Zm3.2.2-.3.6.7.1Zm-4.6,6.7-.3.5.7.1Zm.1,2.7-.4.5.8.1Zm-1.5-.8-.4.5.7.1Zm-.9,1.8-.3.5.7.1Zm6.2-5-.6-.1.2.7Zm-5.2,1-.6-.1.1.7ZM150.5,179l-.1.6.7-.2Zm3.9-1.3-.7.3.6.5Zm-4.8.7-.1-.6-.5.4Z" fill="#fcd842"/>
      <path id="Path_13039" data-name="Path 13039" d="M149.3,178.5l-.2-.6-.5.5Zm8.8-22.6-.9-.7-.4,1.2Zm1.5,3-.2-.7-.6.4Zm-4.1,1.7.6-.3-.6-.3Zm.9-5.4.3.3.4-.5Zm1-1.6.7.6.3-.9Zm-1.7,0,.8.6.2-1Zm1.1,1.3.2-.4-.6-.1Z" fill="#fcd842"/>
      <path id="Path_13040" data-name="Path 13040" d="M155.5,153.3l-1.3,1.7,2.3.9Zm1.4-1.7-1.1,1.4,2,.7Zm-14.7,22.5h1.3l-.7-1.4Zm.1,9.9.9.5.1-1.2Zm-2.1-.1,1,.3V183Zm.5-2.3.9.5.1-1.3Zm.3,1.1,1,.4v-1.2Zm1.6,3.7,1-.8-1.4-.7Zm-2.9.7.8-1-1.3-.4Zm-1.2,2.6.9-.9-1.4-.5Zm1.2-8.6-.5,1.7,1.9-.3Zm3,1.2,1-.8-1.4-.6Zm-1.9,3.5.9-.9-1.4-.4Zm1.9-5.5,1-.9-1.4-.5Zm.4.6,1,.4V180Zm-1.9-.9.9.5.1-1.2Z" fill="#fcd842"/>
      <path id="Path_13041" data-name="Path 13041" d="M144.3,185.5l1.1-.6-1-.9Zm-4.5,5.4,1.1-.6-1-.8Zm-2.7,3.9,1-.6-1-.9Zm-.1,2.4.8-.4-.7-.6Zm4.1-9.3,1.1-1.2-1.8-.6Zm4.4-4.9-.5-.5-.1.7Z" fill="#fcd842"/>
      <path id="Path_13042" data-name="Path 13042" d="M141.4,186.8h.7l-.4-.6Zm-3-.9-.5,2.4,2.6-.5Zm.7-3-.6,2.6,2.7-.6Zm-1.5,7.4-.3,1.6,1.7-.5Zm9-16.7.9.5.1-1.3Zm-2.1-.2,1,.5v-1.2Zm2.4,2.6.9-.9-1.3-.6Zm-1.8-.5.9-.9-1.4-.6Z" fill="#fcd842"/>
      <path id="Path_13043" data-name="Path 13043" d="M147,177.8l1.1-.5-1.1-.9Zm-2.2.2,1.2-1.1-1.8-.7Zm.9-1.6h.6l-.3-.6Zm-2.4-4.1-.7,2.7,2.7-.7Zm-2.9,6.6-.7,2.1,2.7-.1Zm4.1-.5-1-.5-.1,1.3Zm2.3,2.3-.3-.6-.5.6Zm-3.4,3,.5-.5-.6-.2Zm-.8-5.6.5.3.1-.7Zm.5-1.7.9.3-.1-1Z" fill="#fcd842"/>
      <path id="Path_13044" data-name="Path 13044" d="M141.5,177l.9.3v-1.2Zm1.4.9.1-.6-.6.1Z" fill="#fcd842"/>
      <path id="Path_13045" data-name="Path 13045" d="M141.2,176.7l-.7,2.1h2.4Zm.9-2.1-.7,1.8,2.2-.2Z" fill="#fcd842"/>
    </g>
    <path id="Path_13046" data-name="Path 13046" d="M281.3,214.3a370.8,370.8,0,0,0,35.1,17.5,22.308,22.308,0,0,0,12.5,6.1c.6.2,1.4-.5,2.3-1,.5-.3,1.2-.4,1.6-.8.3-.3,0-.6.4-1,.5-.6,1.4-1.1,1.6-1.8.4-2.1.9-1.7,1.2-2.4a2.526,2.526,0,0,0-.2-2.1l-4.4-3.1c-.9-.4,1.8-.6,3.4-.4,1.8,0,3.5-1.2.5-2.1s-5.4-1.9-6.2-2.1a22.152,22.152,0,0,0-6.2-.8c-1.5.1-3.4.9-6.4-.8-4.8-3-19.8-16.5-27.1-23.1-3.6-3.4-20.5,10.8-8.1,17.9Z" fill="#ea9d7d"/>
    <path id="Path_13047" data-name="Path 13047" d="M296.6,222.4c11.2,5.6,19.8,9.3,19.8,9.3a28.433,28.433,0,0,0,12.5,6.1c2.7.5-1.2-7.3-4.9-9.9-24.8-17.6-32.2-7.9-27.4-5.5Z" fill="url(#linear-gradient-5)"/>
    <path id="Path_13048" data-name="Path 13048" d="M329.4,238.3a31,31,0,0,1-6-1.5c-2.4-.9-7-4.6-7.2-4.7a.5.5,0,1,1,.6-.8s4.7,3.7,7,4.6c2.9,1.1,5.3,1.6,6.2,1.4.7-.2.8-.5.8-.5,0-.2,0-.3.1-.4a.6.6,0,0,1,.4-.1s.9.1,1.2-.4c.4-.6,0-1-.1-1a.616.616,0,0,1-.1-.7.483.483,0,0,1,.7-.1c.2.1.8.4,1.3-.5a1.6,1.6,0,0,0,.3-.8,1.839,1.839,0,0,0-.6-.9.467.467,0,0,1-.1-.7.481.481,0,0,1,.6-.2,1.108,1.108,0,0,0,1.2-.5c.4-.7.3-.9-1.1-2l-.4-.3a31.635,31.635,0,0,0-3.7-2.7.481.481,0,0,1-.2-.6.55.55,0,0,1,.5-.3c1.8.2,4.9.3,5.7-.1a.31.31,0,0,0,.1-.2h0s0-.1-.3-.3c-.1-.1-2-.6-3-1l-.5-.2c-2.7-1-6.9-2.6-9.9-2a10.881,10.881,0,0,1-6.1-.4.539.539,0,0,1,.4-1c1.6.7,2.9.8,5.5.4,3.3-.6,7.6,1,10.4,2.1l.6.2c.9.4,3.8,1.1,4,2.1a1.356,1.356,0,0,1-.6,1.1c-.9.5-2.9.5-4.5.4.7.5,1.6,1.1,2.3,1.7l.4.3c1.3,1,2.2,1.8,1.3,3.3a1.876,1.876,0,0,1-1.2,1,1.421,1.421,0,0,1,.2.6,2.4,2.4,0,0,1-.4,1.6,2.429,2.429,0,0,1-1.5,1.1,1.668,1.668,0,0,1-.3,1.3,1.964,1.964,0,0,1-1.7.9,2.33,2.33,0,0,1-2.3.8Z" fill="#cc7a5e"/>
    <g id="Group_890" data-name="Group 890">
      <path id="Path_13049" data-name="Path 13049" d="M312.3,227.2l-.4-.7.8-.3Zm2-3-.5-.7.9-.3Zm-.4,2-.2.9-.9-.5Zm-.6,1.2-.3,1.2-1.1-.8Zm-.9-1.7.8-1.3.5,1.1Zm.3,4.3-1.5-.7,1.2-.8Z" fill="#ad5c44"/>
      <path id="Path_13050" data-name="Path 13050" d="M310.7,229l.8-1.6.6,1.3Zm1.3-1.5-.1-.5.5.2Zm3.9-3.7v.4l-.4-.3Zm-1.9,1,.5-.1-.2.6Zm-.9,4.4-.4-.3.4-.3Zm2.9-3.7.1-.4.3.3Zm-1.9,4.2-.6.7-.4-1Zm7.1,4.7-.5-.6.6-.5Zm-4.4-3.6-.7.6-.3-1Zm-.3-1.8.1.8-1-.2Zm2.3,2.1.9.2-.5.9Zm-.5,1.1-1.2-.7,1.1-.5Zm-2.6-.9-1.7-.7,1.3-.8Zm4.4,2.3-1-.7,1-.3Zm-5-4.3-.4.1.2-.4Zm.3-2.1-.1.2-.3-.1Zm-2.5,1.2.3.1-.3.2Zm7.5,3.1-.1-.6.6.1Zm2,2.9v.4l-.4-.4Zm-7.8-5.3-.1-.5.6.1Zm2.8,2.1-.1-.6.6.1Zm4.4,1.6-.5-.3.5-.3Zm-3.8-3.7h-.4l.2-.4Zm-4-1.8v-.5l.6.3Zm2.7.7-.5-.2.3-.3Zm7.3,7.9-.5-.2.5-.5Zm-4.5-6.9-.2.4-.3-.4Zm3,3.9.2.3-.3.2Z" fill="#ad5c44"/>
    </g>
    <path id="Path_13051" data-name="Path 13051" d="M316,218.8l-5.4,9.5a2.168,2.168,0,0,1-3,.8l-9.2-5.2,9.6-13.4,7.5,5.6a2.111,2.111,0,0,1,.5,2.7Z" fill="url(#linear-gradient-6)"/>
    <path id="Path_13052" data-name="Path 13052" d="M229.2,98.8c9.6-3.6,24.3-.5,33.9,30.1s19.1,43.8,32.4,54.9c13.4,11.1,18.3,11.8,19.1,20.2s-8.6,20-12.5,24.3-11.3,12.3-32.1-1.9c-20.8-14.3-36.1-37.9-43.5-54.7-7.4-16.9-12.4-33.2-13.2-45.6-.8-14.8,4.7-23,15.9-27.3Z" fill="url(#linear-gradient-7)"/>
    <g id="Group_891" data-name="Group 891">
      <path id="Path_13053" data-name="Path 13053" d="M228.7,99.2l1,.8.4-1.4Zm17.6,11.4-.7-.1.3.8Zm8.4-.2-.7-.2.2,1ZM243,112.1l-.1-.8-.7.5Zm-8.4-13.3-.3.8,1,.1Zm12.3,6.5-.4.8,1,.1Zm2.9-.5-.5.8,1.1.1Zm-22.3-5.1-1.7.5,1.3,1.4Z" fill="#fcd842"/>
      <path id="Path_13054" data-name="Path 13054" d="M223.8,101.7l-1.5.8,1.6,1.1Zm1.4-.9-.5,1.1,1.4-.1Zm-1.5,3.3-.3.8h.9Zm-2-1-.4.8h1ZM241.5,99l-.7-.1.2.8Zm-5.1,1-.2-1.4-1.3.8Zm2.8.5-.2-.8-.7.5Zm3.3,2.5.6.6.3-1Zm1.5-2.8v1l1-.4Zm-2.6,3.4-.4.6.9.1Zm-12.6.9-.3.7.9.1Zm-2.9.2-.3.6.8.1Zm-3.5-.1-.3.6.8.1Zm-.8.5-.3.7h.9Zm27.9,3.9-.4.8.9-.1Zm2.4-.4-.4.6.9.1Zm-4.8-.6.5.6.3-.8Zm-1.9-3.6.5.6.4-.8Zm3.7.2-.8-.2.2.8ZM225.6,107l.5.2v-.6Zm1.8-3.4-.1.5.5-.1Zm5.9,3.8h-.4l.3.5Zm-2.9-1.8.1.6.6-.3Zm6.7,3.2-.5.2.4.3Zm12.6,5.3-.6.1.4.4Zm-9.9-1.5-.3-.4-.3.4Zm3.4,3.3-.1-.4-.4.4Zm-6.6,3.1-.3-.4-.3.5Zm5.2-12.8.3.9.7-.9Zm-3.9-8.4.6,1.7,1.4-1.3Zm-10.2,3.9.5.8.6-.8Zm19-.2-.6.5.7.3Z" fill="#fcd842"/>
      <path id="Path_13055" data-name="Path 13055" d="M246.8,109.2l-.6-.4-.2.8Zm-4.1-7.2,1.1.7.2-1.5Zm1.4,1.2.8.5.1-1Zm.6-1.6.8.4.1-1Zm-6.3,2.5-.3.8.9-.2Zm10.4-.9-1-.7-.2,1.3Zm-26.6.7-.4.7h1Zm6-3.5h-.6l.1.7Zm-8.5,4.7-.7-.1.3.7Zm1-.4v-.6l-.6.3Zm4.8-1.7.6.5.1-.8Zm-2.3-.1.5,1,.9-1Zm3.1-.1.6.6.3-.9Zm3.1-1.6.6.5.3-.9Zm-.7-1.6-.8,1.3,1.7.2Zm-4.6,2.1-.3.5h.7Zm6.4.8-.6-.1.1.6Zm-5.7,1.6.6.4.2-.7Zm-4.2,2.9-.4.6h.8Zm2.7-3.7h-.6l.2.6Zm-1.1,3.6.6.3.2-.7Zm2.9,1.6-.2.6.7-.1Zm-6.3-2.2-.2.7.6-.1Zm4,2.9-.6-.1.2.6Zm-2.9-2.4.5-.2-.5-.5Zm-3.6,2.5.6-.2-.5-.4Zm1.5-1.6.6-.2-.5-.4Zm-1.8,2.7.2.6.4-.6Zm-.6,2.5.2.6.4-.5Zm2-3.7.7-.2-.5-.7Zm3.2-1,.2.6.5-.6Zm-1.2,2.1-.5.5.7.3Zm-.8,2.2-.6.4.7.2Zm-4.2,3.1.3.6.3-.5Zm4.7-1-.4.4.6.3Zm-1.1,3.7-.6.4.6.3Zm12.4-19.9,1.3,1.7,1.1-2.2Zm2.9.1-.5.4.8.3Zm-2.4,1.2-.5.5.6.2Zm3.9,2.4-.5-.2-.2.6Zm10.8,4.5-.5-.4-.2.7Zm-12.4-5.5-.5-.4-.2.7Zm3.4-3,.4.7.5-.7Zm-.8,4.8.3.7.5-.6Zm-1.5-5.1.7,1.3,1.1-1.3Zm5.2,4.7.4.6.4-.7Zm2.3,6.1.3.7.6-.7Zm-2.2,5.9-.7-.1.2.8Zm-3.3,1.6-.1-.8-.7.4Zm-3.2.5-.3-.5-.4.4Zm2-4,.3.6.5-.6Zm-4.1,1.6.4.6.6-.6Zm-3.7,3,.3.7.6-.7Zm-5-5.1.4.7.5-.7ZM242,99.6l-.6.5.8.3Zm-1.3,0-.5-.4v.8Zm2.1,1.7-.5-.3v.7Zm7.1,6.4.7.7.3-1Zm-1,.7-.5.7.8.1Zm3.7.8.6.6.4-.9Zm-3.3,1.8.3.8.7-.8Zm1.4-4.5.8.5.1-1Zm.9,1.5.7.5.2-1.1Zm1.5,3.3-.5-.4-.2.7Z" fill="#fcd842"/>
      <path id="Path_13056" data-name="Path 13056" d="M248.9,107.3l-.5-.4-.1.7Zm-13.2-2.5.3.6.6-.7Zm2.1-3.2-.4.5.6.2Zm1.5,5.4-.5-.3-.2.7Zm4.2-7.5-1.1-.5.3,1.6Zm-6.4.8-.8.1.5.7Zm1.4-1.1h-.8l.5.8Zm-6.1,4.2-.3-.7-.6.7Zm-1.1-2.2-.6,1.2h1.6Zm-1.1-.4v.5l.5-.1Zm3.1,2v.6l.6-.3Zm0-3.1-.6-.2.1.7Zm1.9.9-.3-.7-.6.6Zm.1,2.3-.3-.7-.6.6Z" fill="#fcd842"/>
      <path id="Path_13057" data-name="Path 13057" d="M235.7,106.4l-.3-.7-.7.6Zm-1.6-5.7.9,1.1.6-1.4Zm6.4.8.9.2-.2-1Zm-.7,3.6,1,.2-.2-1Zm-12.4-2.5.8.3-.1-1Zm.9,4,.9.2-.1-1Zm3.9-5.3.5.4.4-.7Zm6-1.1-.3.6.7.1Zm-1.6,1.5-.5-.2.1.7Zm2.4,1.1-.5-.3v.8Zm-4.7,1.6-.4.5.8.2Zm-7.1,9.2-.4.3.4.2Zm3.9-.6-.3.3.5.2Zm-1.2-4.7.2.7.6-.5Zm5.2,2.3.6.4.2-.9Zm-7.2-.4.6.4.2-.8Zm4.2.1h-.6l.2.6Zm-5.6.2v.6l.7-.3Zm13-9.1-.6-.2.1.8Zm5.9,4.5-.3.7h.9Zm-2.6-1.2.4.6.5-.7Zm3.7-.4.4.7.6-.6Zm-1.5-.9-.5.5.6.3Zm-1.2,0-.6-.2v.6Zm2.3,1.2-.5-.2v.8Zm.6-1.3-.6-.2v.7Zm-13.6,1-.5-.3-.2.7Zm8.7,0-.6,1.5,1.7-.1Z" fill="#fcd842"/>
      <path id="Path_13058" data-name="Path 13058" d="M240.5,100.3l-.7,1.4h1.8Zm5.3,2.8.8.4.1-1Zm-6.5,3.4,1.3,1.4.7-1.9Zm-2.9-6.9,1.2,1.4.9-1.9Zm-4.2-.7,1.6.9.2-2.1Zm8.4,1.3,1.1,1.3.9-1.8Zm.4,2.5,1.2,1.3.9-1.9Zm-3.2-1.1,1.3,1.4.8-1.9Zm4.7,1.9.8,1.7,1.3-1.5Z" fill="#fcd842"/>
      <path id="Path_13059" data-name="Path 13059" d="M243.4,103.2l.9,1.5,1.1-1.7Zm-8.7,0-.7,1.4h1.7Zm8.5,1.7-.2,1.6,1.6-.5ZM233,102.2l-.5,1h1.2Zm6.8,1.7-.9-.1.2,1Zm-6.6,6v-.8l-.9.4Zm1.3,4.2,1.1.4-.1-1.1Zm1.8-6.8-.3.9,1.1-.2Zm6,6.5h-.9l.5.9Zm-7.1-6.5.8-.8-1.3-.4Zm-6.1-3.5.7.5.1-1.1Zm7.9-4-.2.8.9-.1Zm-2.9-1.7-.7,1.3,1.8.1Zm-2,1.4V102l2.5-1.2ZM222,102.8l.5.9,1-.6Zm12.8-1.1,1.7,1.8,1.1-2.4Zm-4.6-1.2-.1,1.5,1.6-.5Zm-.7-1.8-.1,1.5,1.6-.6ZM239,110l.9.4v-1.2Zm2.7-1,.6-.6-1-.2Z" fill="#fcd842"/>
      <path id="Path_13060" data-name="Path 13060" d="M238,111.7l-.2.9.9-.2Zm-2.2-8.1v1l.9-.5Zm-2.2-5h-3.5l1.6,3.6Zm4-.8-3.6.1,1.7,3.5Zm4.5,1.1-1.9-.6-.7,2.8Zm-14.8,2.7,1.7.7v-2Z" fill="#fcd842"/>
      <path id="Path_13061" data-name="Path 13061" d="M229.3,98.8l-2.5,1,2.1,3Zm16.4,2-2-1.2-.3,2.6Zm-8.1,6.2,1.2-1-1.5-.8Zm12.8,8.9-1.5.2,1.1,1.6Zm2.7-3.4-1.6.3,1.1,1.4Zm.4,2-.1,1.9,1.9-.8Zm-2-4.7.1,1.8,1.8-1Zm-2.5-3.9.5,1.8,1.6-1.4Z" fill="#fcd842"/>
      <path id="Path_13062" data-name="Path 13062" d="M255.8,113.3l-.4,1.8,2-.4Zm-4.4.9-.5,1.8,2.1-.3Zm.1-1.9.1,1.8,1.8-1Zm3.9,4.9L255,119l2-.4Zm-13.9-11,.8,1.6,1.3-1.7Zm3.7,3.1,1.5-1.1-1.8-1.1Z" fill="#fcd842"/>
      <path id="Path_13063" data-name="Path 13063" d="M244.7,107.6l1.3-1.3-2-.7Zm4.6,4.5-1.3,1,1.7.8Zm3.6,5.8-1.5.4,1,1.4Zm-5.6-9.3-.9.3.8,1Zm3.8,6.2-.5-.7-.6.8Zm-8.9-.3.6-.8-.9-.3Zm.3,4.6.4,1,.8-.8Zm3.9-4.6-.9.6.9.5Zm1.9,10-.7-.7-.3,1Zm-8.1-7.1.7.9.5-1.1Zm-3.3-6.8-.5.6.9.3Zm4.8,9.1-.7-.3v1Zm-.5-10.7-1,1.8h2.3Zm2.3,5.2-.9-.1.2.9Zm3.8-2.4,1-.3-.7-1Zm-9.6-7.9.5.8.6-.9Z" fill="#fcd842"/>
      <path id="Path_13064" data-name="Path 13064" d="M246.6,104.6l-.7.6,1,.3Zm-19.8,3.8,1.2-.1-.8-1Zm-2.6-6.4.2.7.8-.7Zm8.8,1.5-.8.6.9.5Zm11,9.3,1,.1-.2-1.1Zm-.4-7,.1.8.9-.5Zm7.7,4.6-.9.2.7.8Zm-.4-3.2-1.2,1.1,1.6.7Zm-2.5.3-.9,2.2h2.7Zm.5,3.1.3,2.4,2.4-1.3Zm-4.8-6.8,1.4,2,1.3-2.3Zm2.9,2-1.2,1,1.6.8Zm1.2-1.6-1,1.2,1.8.4Zm.3,15.3.4.9.9-.9Zm1.3.1,1-.1-.6-.8Zm-3.2.4-.8.5.9.5Z" fill="#fcd842"/>
      <path id="Path_13065" data-name="Path 13065" d="M246.3,104.9l.7.5.2-1.1Zm2.3,7.8-.7.7,1.1.2Zm-18.1-9.9.7,1.7,1.4-1.5Zm17.5-.3-1.8-1.4-.6,2.9Zm3.5,3.4-2-2.1-1.1,2.6Zm2.7,3.6-2.1-2.7-1.1,2.8Zm2,3.1-1.6-2.7-1.2,2.8Zm2.3,4.4-1.2-2.5-1.8,2Zm-14-4.4.9-.1-.6-.8Zm-1.8,2,1.6.1-.7-1.6Z" fill="#fcd842"/>
      <path id="Path_13066" data-name="Path 13066" d="M241.9,112.2l.8-.2-.6-.8Zm2.5,0,.8-.3-.6-.7Zm11.9,10.2-1.6.5,1.1,1.3Zm1.6-2.3-1.5.5,1.1,1.3Zm2.9,5.5.3.9.8-.7Zm-8.2-6-.4,1.9,2.1-.5Zm1.5-6.8-.2,1.3,1.4-.3Zm3.5,4.1-1.2.4,1,1.1Zm-3.5-.8-1.2.4,1,1.1Zm4.2,4.4-.4,1.8,2.1-.5Zm-.9,1.6-.4,1.8,2.1-.4Zm-2-3.3-.3,1.8,1.9-.4Zm3.7,7.1-.4,1.9,2-.4Zm-.3-2.1-.5,1.9,2.1-.5Zm-3,1.1-1.4.3,1,1.4Zm-5.1-10.5-1,.2.6,1Z" fill="#fcd842"/>
      <path id="Path_13067" data-name="Path 13067" d="M255.5,121.6l-.4-.8-.7.8Zm-8.8-1.6.7-.6-.9-.4Zm-3.1,3.2.2,1,1-.6Zm6.6-2.3-.8.4.7.7Zm-1.9,8.7-.5-.7-.5.8Zm2.1-3.2.2,1,.9-.8Zm2.2-.3.9.2-.4-.9Zm-5.9-1.1-.8.3.7.7Zm13.3-4.6-1.3-2.9-1.7,2Zm1.6,4.1-1.2-3.1-1.6,2.2Zm1.4,18.7-1.4.4,1.1,1.4Zm2.3-1.8-1.5.3,1,1.4Zm1.8,3.1-1.5.3,1.1,1.4Zm-1.5-1-1.5.4,1.1,1.3Zm-5-2.7-.4,1.8,2.1-.5Zm3.2-3.4-.4,1.7,2.1-.4Z" fill="#fcd842"/>
      <path id="Path_13068" data-name="Path 13068" d="M263.3,133.6l-.4,1.8,2-.4Zm5.3,11.2-1-2.3-1.9,2Zm-4.5.5-.4,1.9,2.1-.5Zm-1-5.6-.4,1.7,2-.3Zm2.5,8.4-.1,1.9,1.9-.7Zm-9.1-23.3.6,1.8,1.5-1.5Zm3.1,9.2,1.8-.3-1.2-1.8Zm-.5-3.8,1.8-.2-1-1.8Zm2.7,5.8-1.5.4,1.2,1.4Zm2.7,11.9-1.4.5,1.3,1.2Zm3.3-1.2-1.5.4,1.1,1.3Zm-10.3-17.6h-1.1l.5,1.1Zm2.6,8-.4-.9-.7.7Zm-9.5-4.6.8-.5-.8-.6Zm6-5.6-1.9.6,1.7,1.5Zm-3.4,7-.5-.7-.5.9Z" fill="#fcd842"/>
      <path id="Path_13069" data-name="Path 13069" d="M249.8,130.5l1,.5.1-1.2Zm1.8-6.8-.2.9.9-.1Zm6.4,8.1-.8.1.4.8Zm-11.3-9.9.9.8.3-1.2Zm.2-4.1-.3.8h1Zm6.8,8.3-.9-.1.2.9Zm10.2,8.5-1.7.4,1.1,1.5Z" fill="#fcd842"/>
      <path id="Path_13070" data-name="Path 13070" d="M262,133.5l-1.7,1.7,2.5,1Zm-.9,4.4-.2,2.4,2.5-.9Zm-2.3-13.1-.4,2.4,2.7-.6Zm1.7,5.7-1.5.5,1.1,1.4Zm2.4-.9-1.5.3,1.1,1.4Zm-2.7,18.7h.9l-.5-.8Z" fill="#fcd842"/>
      <path id="Path_13071" data-name="Path 13071" d="M260.9,129.2l.4,1,.7-.7Zm.5,10.2-.6.6.9.4Zm1.7-10-.9-3.2-2.2,2.2Zm1.6,4.9-1.1-3.3-2.8,2.5Zm1.4,3.6-1.2-3.2-2.8,2.6Zm1.5,4.6-1.3-3.8-2.7,2.8Zm2.2,5.4-1.3-3.1-2.7,2.8Zm-14.6-14.2.8.5.1-1Zm3.6,1.5,1.2.7.2-1.8Zm-.1,4.4.8.5.1-1.1Zm-5.2-8.3.6.5.2-1.1Zm1.8-.6.8.3v-.9Zm16.3,22.6-.5,1.4,1.7-.2Zm-5,.4,1.6-.2-1-1.7Zm2.1,3.1,1.7-.3-1.1-1.6ZM258.1,138l1.6-.7-1.4-1.3Z" fill="#fcd842"/>
      <path id="Path_13072" data-name="Path 13072" d="M265.4,151.5l1.6-.4-1-1.5Zm-4.5.2.9.3-.1-1.1Zm.6-6.4-.1.9.9-.4Zm6.4,5.1-.8.1.5.7Zm-14.4-10.7.8.3v-1Zm-1.7-4-.1.8.9-.2Zm7.6,7.5-.8.1.5.7Zm-4.5,2.3.8.5.2-1.1Zm4.9.3-.1.8.9-.1Zm5.3,6.3h-.8l.3.8Zm6.4,2.5-1.1.4,1,1Zm-1.3-2.1-1.4,1.3,1.9.8Zm-.8-.9-1.2.2.7,1.2Zm1.3-1-1.3.6,1.2,1Z" fill="#fcd842"/>
      <path id="Path_13073" data-name="Path 13073" d="M268.1,150.9l.4.6.6-.7Zm3.1.1-1.3-2.9-2.6,2.3Zm1.4,3-1.3-2.4-1.9,2.3Zm1.6,3.2-1.4-2.4-1.9,2.4Zm1.9,12.5-1.4.6,1.4,1.2Zm1.9-2.2-1.5.5,1.3,1.2Zm2.5,2.6-1.5.8,1.5,1Zm-1.8-.7-1.4.7,1.4,1.2Z" fill="#fcd842"/>
      <path id="Path_13074" data-name="Path 13074" d="M267.8,157.9v1.8l1.9-1Zm7.8,5.9.1,1.8,1.8-.8Zm-1.2-3.6-.1,1.9,2-.8Zm7.5,9.7-1.4-1.9-1.3,2.5Zm-4,1.9.1,1.8,1.9-1.1Zm-2.4-5.6-.1,1.9,1.9-.9Zm4.6,7.8.4,1.8,1.6-1.1Zm-8.4-14.4-1.4.8,1.5.9Z" fill="#fcd842"/>
      <path id="Path_13075" data-name="Path 13075" d="M279,174l-1.2,1,1.5.8Zm2.7-2-1.3.8,1.4,1Zm-6.6-10.8-1.4.6,1.3,1.1Z" fill="#fcd842"/>
      <path id="Path_13076" data-name="Path 13076" d="M273.1,160.4l-1.3,2,2.7.5Zm-1.4-2.5.2,1.1,1-.6Zm2.6,17.4.9-.2-.6-.8Zm-.6-9.1-.5.8,1.1.1Z" fill="#fcd842"/>
      <path id="Path_13077" data-name="Path 13077" d="M275.9,160.6l-1.7-3.1-2.4,3.1Zm2.1,3.3-1.8-3-2.2,3.2Zm2.3,4.1-1.9-3.4-2.1,3.3Zm3.8,4.6-2.2-2.7-1.8,3.5Zm3.2,4.7.1,1.5,1.5-.8Zm1.8,3.1,1.6-.7-1.4-1.2Zm5.1,4.5,1.4-.8-1.4-1.1Zm-13.4-7.5,1.5-.9-1.5-1.1Z" fill="#fcd842"/>
      <path id="Path_13078" data-name="Path 13078" d="M291.1,184.7l1,.1-.3-1Zm-20-18.2v.8l.8-.4Zm11.8,9.1-.7.4.6.5Zm-13.7-12.7-.8.2.7.7Zm2.8,6.6-.1.8.9-.2Zm16.4,12.2-.8.1.5.7Zm-.7-3.1-.9.7,1.2.7Zm-2-1.5-.8,1.6,2.1.2Zm-1.9,0-1.2.6,1.1.9Zm1.9-2.1-1.2.9,1.5.7Z" fill="#fcd842"/>
      <path id="Path_13079" data-name="Path 13079" d="M283.1,176l.7.5.3-.8Zm3.1-.8-2.1-2.4-1.8,3Zm2.4,2.5-2-2-1.1,2.9ZM293,182l-1.9-2-1,3Z" fill="#fcd842"/>
    </g>
    <g id="Group_892" data-name="Group 892">
      <path id="Path_13080" data-name="Path 13080" d="M278.2,229.4l.5-1h-1.3Zm-3-2.1-.5-.3-.1.7Zm3.1,3.8-.3-1.3-1.2.8Zm.2-3.4-.9-1L277,228Zm2.2,1.1-.8-1-.6,1.3Zm-3.6-1.5-.8-1-.7,1.2Zm3.7-7.9.2-.8-.9.2Zm-6.6,9.4,2,1.4.4-2.7Zm-7.7-9.3.8-.8-1.1-.4Zm-.7,1.8.7-.8-1.1-.4Zm-2.1-1.2.8-.8-1.2-.4Zm1.2.1.7-.8-1.1-.4Zm4-.2-.4-1.2-1,1Zm-.6,3.1-.6-1.2-.9,1.2Zm1.9,2.1-.5-1.2-1,1.1Zm-7.3-4.4,1.4,1,.3-1.9Zm2.2-2.2-.5-1.3-1,1.1Zm2.7,2.9-.6-1.3-1,1.1Zm-4.6-3.8-.5-1.2-1,1ZM276,225l-.7-1-.8,1.3Zm-3.7-2.2-.8,1,1.4.4Zm1.3,1.4-.8,1,1.5.4Zm-3.8-1.1.7-.8-1.3-.3Zm-6-5.5.7-.8-1.2-.3Z" fill="#e06c1e"/>
      <path id="Path_13081" data-name="Path 13081" d="M262.4,219.1l.7-.7L262,218Zm11.9,5.6.5-.6-.7-.3Zm-4.2-2.5.5.3.1-.7Zm5.5-2.8-.1.6.6-.1Zm.6,5.3.5-1.3-1.6.1Zm-2.1-5.2h.7l-.2-.6ZM271,219h.8l-.4-.8Zm-5.5-5.1.6.3v-.8Zm.5-4.9-.1.8.7-.3Zm4.4,6.2-.1.6.7-.2Zm.4-2.1-.5.1.3.6Zm-1.7-1.2.2.6.5-.5Zm2.7-.8.2.6.6-.5Zm-2.7,13.6.8-.8-1.2-.4Z" fill="#e06c1e"/>
      <path id="Path_13082" data-name="Path 13082" d="M270.6,224.6l.4-1.6-1.9.4Zm-1-2.6-.7-1.5-1.3,1.5Zm8.7,7.2-1.1-1.3-.8,1.7Zm-6.5-3.6.5-1-1.2-.2Zm-.2,1.3.5-.9-1.2-.2Zm-5-10.9-.6.2.6.4Z" fill="#e06c1e"/>
      <path id="Path_13083" data-name="Path 13083" d="M272.7,226.1l-.6-.3v.7Zm-3.7-4.9.1-.6-.6.1Zm6.3,6.5-.7-.9-.8,1.2Z" fill="#e06c1e"/>
      <path id="Path_13084" data-name="Path 13084" d="M271.8,227.4l2.1,1.3.4-2.7Zm-2.7-1.7,2,1.2.4-2.6Zm-2.5-1.9,2,1.4.6-2.6Zm-2.3-1.9,2,1.7.7-2.6Zm-3.2-2.6,1.8,1.5.8-2.6Zm12.5,1.3-.6.2.4.5Zm-1.4,1.2-1,.3.7.9Zm-2.3-2.2-.7.1.5.7Zm5.5,1.2-.6.2.5.5Zm-13.8-7.4.9-.3-.7-.6Zm-6.9-2.9h.7l-.2-.8Zm-1-3.1.1.6.7-.3Zm-3.3-1.3.1.6.5-.4Zm-3-1.4.2.6.6-.3Zm13.5,6-.6.2.5.5Zm-2.1,1.3-.6.2.5.5Z" fill="#e06c1e"/>
      <path id="Path_13085" data-name="Path 13085" d="M255.8,212l1.4-.2-1-1.2Zm3-4.6.3.6.4-.5Zm-9.6-2.1.4.6.3-.6Zm-2.5-1.1.3.5.4-.6Zm11.7,5-.4-.3-.2.6Zm-2,.5-.5-.4v.7Zm8.1,3.2-.6-.3-.1.7Zm9.2,8.1-.6.2.4.5Zm-19.4-8.4.5-.5-.8-.4Zm3.1,1.1-.3-1-.9.7Zm.9,2.1-.3-.9-.9.7Zm-4.9-3.8.3-.9-1,.1Zm7.1,1.6-.9.8,1.2.5Zm1.5,1.7-.8.8,1.2.5Zm2.8-1.3-.7.1.4.7Zm1.8,4.1-.3-.5-.4.5Zm-5.6-.9.4-.4-.5-.3Zm-2.9-2.3.6-.6-.9-.2Z" fill="#e06c1e"/>
      <path id="Path_13086" data-name="Path 13086" d="M259.2,215.7l.2-1.4-1.5.3Zm.4.2.7-.7-.9-.3Zm0,1.7.7-.8-1.1-.2Zm1.4-1-.6-.4-.1.7Z" fill="#e06c1e"/>
      <path id="Path_13087" data-name="Path 13087" d="M259.3,217.7l1.8,1.4.8-2.2Zm-1.8-1.5,1.5,1.2.7-2Zm-1.4-1.8,1.2,1.3.7-1.9Zm-4.4-4.4,1.1,1.1.5-1.6Zm2.7,3,1.2,1.2.7-1.7Zm-4.5-5.3.6.1-.2-.7Zm2.5.7,1.1-.3-.9-1Zm-4.2-2.2,1.2-.3-.9-.9Zm4.4,3-.3-.8-.7.6Zm-2.3-.7.8,1,.6-1.4Zm-1.8-1.8.7.6.4-1Zm37.1,23.9.3-1-1.2.1Zm-.1,2.1.4-1.1-1.2.2Zm-2.3-.2.4-1h-1.2Zm1.2-.5.3-1-1.2.1Zm3.4-2.2-1-.7-.4,1.4Zm1,3.2-1-.9-.3,1.5Zm2.9.4-1-.7-.3,1.4Zm-8.6-.2,1.6.6-.1-1.9Zm.7-2.8-.8-.9-.6,1.4Zm3.7,1.3-1-.7-.3,1.4Zm-5.8-1.3-1-.9-.4,1.3Zm11.9-.8.1,1.2,1.3-.5Zm-3.3,2.2.1-1.2-1.1.5Zm-8-1.8.3-1-1.2.1Zm-.9,2,.5-1-1.2.1Zm11-6,.6-.2-.5-.5Zm-3.1,1.8.6-.4-.7-.5Zm-6.8-1.7.7-.1-.4-.8Zm-1.3-4.8.2.5.5-.4Zm5.6,3.5.3.6.5-.4Zm.1-1.8-.6.4.6.4Z" fill="#e06c1e"/>
      <path id="Path_13088" data-name="Path 13088" d="M284.8,222.6l.5.5.3-.7Zm2.4-1.9.4.5.3-.7Zm-5.4,2.5v-.6l-.7.2Zm0,1.8.7-.1-.5-.6Zm-2.4,1.6.6-.2-.5-.6Zm1.3-.7-.2-.6-.5.5ZM283,228l-.5-1.1-.8,1Zm4.4-.2-.8-1L286,228Zm-6.8-.5-.3-.5-.4.5Zm10,6.2.2-1.1-1.2.4Z" fill="#e06c1e"/>
      <path id="Path_13089" data-name="Path 13089" d="M291.9,232.5l-.8-1.6-1.2,1.4Zm-2.3-1.6-1.5-.8-.2,1.8Zm4.1,1.1-.2-1.1-1,.6Zm1.4,1.3-.1-1.1-1,.6Z" fill="#e06c1e"/>
      <path id="Path_13090" data-name="Path 13090" d="M284.2,227.5l-.3.5.6.2Zm10.5,4.3-.6.2.5.6Zm-6.2-.9-.2-.6-.6.4Zm3.4,3.4,2.4-.4-1.4-2.2Zm-3.7,0,2.4.1-1.2-2.5Zm-3.3-.5,2.6.5-.8-2.6Zm-4.1-1.5,2.3,1-.1-2.8Zm11.6-4.9-.3.4.6.2Z" fill="#e06c1e"/>
      <path id="Path_13091" data-name="Path 13091" d="M291.9,229.1l-.8.7,1.2.5Zm-3.3-.3-.5.5.7.3Zm4.1-1.2-.4.5.7.1Zm-13,1.2-.4,1h1.3Z" fill="#e06c1e"/>
      <path id="Path_13092" data-name="Path 13092" d="M281.8,226.4l-.5.4.6.4Zm3.3,3.1-.4-.4-.2.6Zm-5.5,1.2.3-.4-.6-.1Zm.9-.3.4-.9H280Zm.5,1.6.3-.9h-1Zm.9-1.4-.5-.1.1.6Z" fill="#e06c1e"/>
      <path id="Path_13093" data-name="Path 13093" d="M278.6,231.3l1.8.7v-2.1Zm18.7-10.5-.5-.6-.3.8Zm12.8-6.5-.5-.6-.3.8Zm-3.6,0-.6-.5-.2.9Zm-8.2,10.9-.3-.6-.6.6Zm-4,2.9.5-.4-.6-.3Zm-.3-6.2.5.5.1-.7Zm15.3-7.1-.3-.7-.6.6Zm-3.9,2.9.4-.4-.6-.4Zm-3.1-1.3.6-.4-.7-.4Zm6.8-4.5.5-.5-.6-.3Zm1-2.6.5-.4-.7-.4Zm.9,1.4.6-.4-.7-.3Zm1.6-1.3.4-.4-.6-.4Zm-7.6,2.1.5.4.2-.7Zm5.2,1.2.5.4.1-.7Zm-16.4,10.9.3-.6-.7-.1Zm.6.9-.1.6.6-.3Z" fill="#e06c1e"/>
      <path id="Path_13094" data-name="Path 13094" d="M294.7,224.5l-.1.6.7-.2Zm3.5,7.4-1.2-.7.1,1.3Zm4.9-10.2-.8-.7-.4,1.1Zm1.7,1-.6-.8-.5,1.2Zm-1.2,1.9-.7-.7-.4,1.1Zm.2-1.2-.8-.8-.5,1.2Zm-.1-4-1.2.5.9,1Zm2.9.4-1.1.6,1,.9Zm2.1-2-1.1.6,1,.9Zm-4.2,7.8,1.1-1.4-1.8-.4Zm-2.4-2.4-1.2.4.9,1Zm3.1-2.6-1.2.6,1,.9Zm-3.7,4.6-1.2.5,1.1.9Zm-.1-.6-.8-.8-.4,1.1Z" fill="#e06c1e"/>
      <path id="Path_13095" data-name="Path 13095" d="M302.6,225.9l-.7-.9-.5,1.2Zm-.9-6.3-1.2.2.6,1.1Zm6.2-3.4-1.3.1.7,1.2Zm4.1-1.9-1.1.3.4,1.1Zm1-2.2-.7.3.3.8Zm-7.3,6.5-1.6.7,1.4,1.2Z" fill="#e06c1e"/>
      <path id="Path_13096" data-name="Path 13096" d="M299.9,221.7l.2.6.5-.5Zm4.9-2.3-.6-.1.2.6Zm2.8,2.3,1.3-2-2.6-.5Zm-1.9,2.6,1.6-2.3-2.7-.3Zm4.1-6.1,1-1.7-1.7-.1Zm-13.7,9.5-1.3.5,1.1,1Zm.4,1.6-1.3.3.8,1.1Zm.2-3.3-1.2.1.5,1.2Z" fill="#e06c1e"/>
      <path id="Path_13097" data-name="Path 13097" d="M298.8,226.6l-1.6.6,1.4,1.3Zm-1.5,1.1-.6-.2.1.7Zm-1.9,5.8,2.7-1.5-2.2-1.4Zm7.5-6.1,1.6-1.7-2.7-.8Zm-3.7-1.1.8.8.5-1.2Zm-1.5-3.1v.6l.7-.3Z" fill="#e06c1e"/>
      <path id="Path_13098" data-name="Path 13098" d="M301.8,221.6l-.6.3.5.4Zm-1.3,5.5-.3-.4-.3.5Zm-.8,1.6-.6-.6-.3.9Zm1.8.1-.8-.7-.3,1.1Z" fill="#e06c1e"/>
      <path id="Path_13099" data-name="Path 13099" d="M301.3,229.3l-1.2-.5v1.6Zm-.9-1.9-.3.5.6.1Z" fill="#e06c1e"/>
      <path id="Path_13100" data-name="Path 13100" d="M301.4,229.2l1.5-1.7-2.3-.9Zm-2.8,2.4,1.5-1.2-1.9-1Z" fill="#e06c1e"/>
    </g>
  </g>
</svg>
