<svg xmlns="http://www.w3.org/2000/svg" xmlns:xlink="http://www.w3.org/1999/xlink" width="237.391" height="143.525" viewBox="0 0 237.391 143.525">
  <defs>
    <linearGradient id="linear-gradient" x1="0.762" y1="0.578" x2="-0.128" y2="0.383" gradientUnits="objectBoundingBox">
      <stop offset="0.005" stop-color="#cc7a5e" stop-opacity="0"/>
      <stop offset="0.924" stop-color="#aa5f4b"/>
    </linearGradient>
    <linearGradient id="linear-gradient-2" x1="-0.015" y1="0.399" x2="0.926" y2="0.616" gradientUnits="objectBoundingBox">
      <stop offset="0.298" stop-color="#f5b02a"/>
      <stop offset="1" stop-color="#e46c26"/>
    </linearGradient>
    <linearGradient id="linear-gradient-3" x1="0.186" y1="0.151" x2="0.691" y2="0.75" gradientUnits="objectBoundingBox">
      <stop offset="0.298" stop-color="#f5c52a"/>
      <stop offset="1" stop-color="#e46c26"/>
    </linearGradient>
    <linearGradient id="linear-gradient-4" x1="-0.239" y1="0.5" x2="0.974" y2="0.5" xlink:href="#linear-gradient-3"/>
    <linearGradient id="linear-gradient-5" x1="0.556" y1="0.174" x2="0.414" y2="1.424" xlink:href="#linear-gradient"/>
    <linearGradient id="linear-gradient-6" x1="0.629" y1="0.217" x2="0.338" y2="1.202" xlink:href="#linear-gradient-2"/>
    <linearGradient id="linear-gradient-7" x1="0.558" y1="0.323" x2="0.313" y2="0.982" xlink:href="#linear-gradient-3"/>
  </defs>
  <g id="_27" data-name="27" transform="translate(-128.292 -96.379)">
    <path id="Path_15376" data-name="Path 15376" d="M146.1,182.6a370.921,370.921,0,0,0-10.4,37.8,22.939,22.939,0,0,0-3.6,13.5c-.1.6.7,1.3,1.4,2.1.4.5,1.3-.2,1.8.1.4.2,0,1.2.4,1.5.6.4,1.5,1.3,2,.9,1.9-1.7,1.9.9,2.7,1.1a1.909,1.909,0,0,0,1.8-.6c.9-2,2.1-4,2.4-5s.9,1.7,1.1,3.3c.4,1.8,1.9,3.2,2.1.1s.9-5.6.8-6.5c0-.8.3-4.1-.4-6.2-.4-1.4-1.5-3.1-.4-6.4,2-5.3,12.4-22.6,17.5-31,2.5-4.3-14.6-18.3-19.2-4.7Z" fill="#ea9d7d"/>
    <path id="Path_15377" data-name="Path 15377" d="M140.9,199.2c-3.3,12-5.4,21.2-5.4,21.2a27.6,27.6,0,0,0-3.6,13.5c0,2.7,6.9-2.6,8.7-6.7C153.3,199.4,142.4,194,140.9,199.2Z" fill="url(#linear-gradient)"/>
    <g id="Group_1037" data-name="Group 1037">
      <path id="Path_15378" data-name="Path 15378" d="M139.2,215.4l.6-.4.5.6Zm3.4,1.5.6-.7.4.9Zm-2.1,0-.9-.1.4-.9Zm-1.2-.4-1.3-.1.6-1.2Zm1.4-1.2,1.5.4-1.1.8Zm-4.1,1.2.4-1.8,1,1.2Z" fill="#ad5c44"/>
      <path id="Path_15379" data-name="Path 15379" d="M137.2,214.1l1.7.6-1.2.9Zm1.6,1.1.5-.2v.6Zm4.4,3.2h-.4l.3-.4Zm-1.3-1.7.2.5-.6-.1Zm-4.4,0,.1-.6.5.4Zm4.1,2.1.4-.1-.1.5Zm-4.5-1-.7-.6.8-.5Zm-3.2,7.8.5-.6.6.5Zm2.7-5.1-.7-.5.9-.5Zm1.7-.6-.9.3.1-1Zm-1.7,2.7v.9l-.9-.3Zm-1.1-.3.4-1.3.7,1Zm.3-2.7.5-1.8,1,1.2Zm-1.4,4.7.5-1,.5.8Zm3.3-5.7-.2-.3h.4Zm2.1-.1h-.2l.1-.3Z" fill="#ad5c44"/>
      <path id="Path_15380" data-name="Path 15380" d="M138.2,216.3l-.1.2-.2-.2Zm-1.6,8,.5-.3v.6Zm-2.5,2.5h-.4l.2-.4Zm3.7-8.7.5-.2v.6Zm-1.5,3.1.5-.2v.6Zm-.7,4.7.1-.6.5.4Zm2.8-4.5V221l.4.1Zm1-4.2.6-.1-.3.5Zm-.1,2.7.1-.4.4.2Zm-6.3,8.7v-.5l.5.3Zm5.8-5.7-.4-.2.4-.3Zm-3.2,3.7-.3.3-.2-.4Z" fill="#ad5c44"/>
    </g>
    <path id="Path_15381" data-name="Path 15381" d="M146.9,239.9a1.536,1.536,0,0,1-1-.4c-.9-1-1.4-4.6-1.5-5.9a7.141,7.141,0,0,1-3.2-5.2c-.2-3.4,1.4-5,1.5-5a.495.495,0,0,1,.7.7c-.1,0-1.3,1.3-1.1,4.2a6.28,6.28,0,0,0,2.9,4.5.52.52,0,0,1,.2.4c.2,1.8.6,4.9,1.2,5.5.1.1.3,0,.4-.2.32-1.44.46-3.07.6-4.1.4-3,1.1-7,.1-9.7s-1.1-4.1-.7-6a.51.51,0,1,1,1,.2,8.415,8.415,0,0,0,.7,5.4c1.1,3,.47,7.2,0,10.2-.17,1.08-.53,3.74-.7,4.3-.2.7-.53,1.04-1.1,1.1Z" fill="#cc7a5e"/>
    <path id="Path_15382" data-name="Path 15382" d="M142.3,232.3c-1.2-.4-2.1,1.1-2.6,3-.6,1.9-.8,3.6.6,4,1.6.5,2.1-1.1,2.6-3S143.9,232.8,142.3,232.3Z" fill="#ea9d7d"/>
    <path id="Path_15383" data-name="Path 15383" d="M140.8,239.9a1.952,1.952,0,0,1-.7-.1c-2.1-.6-1.4-3.1-1-4.6.5-1.7,1.1-2.8,1.9-3.3a1.5,1.5,0,0,1,1.3-.1h0c2.1.7,1.7,2.9,1.2,4.7-.5,1.6-.8,2.8-1.8,3.3a2.219,2.219,0,0,1-.9.1Zm1.2-7.1a.367.367,0,0,0-.3.1c-.3.2-.9.7-1.5,2.7-.6,2.3-.6,3.1.3,3.4a2.078,2.078,0,0,0,.8,0c.7-.4,1-1.6,1.3-2.7.6-2.2.7-3.1-.3-3.4A.774.774,0,0,0,142,232.8Z" fill="#cc7a5e"/>
    <path id="Path_15384" data-name="Path 15384" d="M139,231.4c-1.2-.4-2.1,1.1-2.6,3-.6,1.9-.8,3.6.6,4,1.6.5,2.1-1.1,2.6-3C140.1,233.4,140.5,231.9,139,231.4Z" fill="#ea9d7d"/>
    <path id="Path_15385" data-name="Path 15385" d="M137.5,239a1.952,1.952,0,0,1-.7-.1c-2.1-.6-1.4-3.1-1-4.6.5-1.7,1.1-2.8,1.9-3.3a1.5,1.5,0,0,1,1.3-.1h0c2.1.7,1.5,2.8,1,4.6-.5,1.6-.9,2.8-1.7,3.3a1.884,1.884,0,0,1-.8.2Zm1.1-7.2a.367.367,0,0,0-.3.1c-.3.2-.9.7-1.5,2.7-.6,2.3-.6,3.1.3,3.4a2.078,2.078,0,0,0,.8,0c.6-.3,1-1.6,1.3-2.7.6-2.2.7-3.1-.3-3.4h0C138.7,231.8,138.7,231.8,138.6,231.8Z" fill="#cc7a5e"/>
    <path id="Path_15386" data-name="Path 15386" d="M135.8,230.2c-1-.3-1.8.9-2.2,2.6-.5,1.6-.7,3,.5,3.4,1.3.4,1.8-.9,2.2-2.6C136.8,232,137.2,230.6,135.8,230.2Z" fill="#ea9d7d"/>
    <path id="Path_15387" data-name="Path 15387" d="M134.6,236.8a1.268,1.268,0,0,1-.6-.1c-1.9-.5-1.2-2.7-.9-4a4.349,4.349,0,0,1,1.7-2.8,1.672,1.672,0,0,1,1.2-.1h0c1.8.6,1.3,2.5.9,4-.4,1.4-.7,2.4-1.5,2.8a3.091,3.091,0,0,1-.8.2Zm.9-6.1c-.1,0-.2,0-.2.1a3.586,3.586,0,0,0-1.2,2.2c-.6,2.1-.4,2.6.2,2.8a1.146,1.146,0,0,0,.6,0c.5-.3.8-1.3,1-2.2.6-2,.5-2.5-.2-2.8-.1-.1-.1-.1-.2-.1Z" fill="#cc7a5e"/>
    <path id="Path_15388" data-name="Path 15388" d="M147.6,217.9,137.1,215a2.076,2.076,0,0,1-1.5-2.7l2.8-10.2,15.4,5.9-3.6,8.6a2.093,2.093,0,0,1-2.6,1.3Z" fill="url(#linear-gradient-2)"/>
    <path id="Path_15389" data-name="Path 15389" d="M242,116.9c6,7.2,5.5,24.1-21.5,38.3s-38.1,21.5-43.3,34.3c-5.8,14.1-8,20-15.9,22.4s-20.2-2.6-25.4-5c-5.1-2.4-12.1-13.9-3.7-34.1s27-34.6,41.4-44.1,33.9-21.6,45.8-24.8c13.9-3.8,15.7,4.5,22.6,13Z" fill="url(#linear-gradient-3)"/>
    <path id="Path_15390" data-name="Path 15390" d="M269.8,192.5l-.8-12.9-.9-13.2-1-12.9c-.4-4.9-.8-8.9-1.1-11.2a23.812,23.812,0,0,0-.5-2.6,60.6,60.6,0,0,0-4.2-12.9c-6.4-14.2-18.3-27.3-33.2-26.6-3.6.1-15,.3-21.4,26.6-.8,3.4-1.6,7.2-2.2,11.5q-.179.744-.3,1.5c-.5,3.1-1.5,8-2.5,13.8l-2.4,12.9-2.5,13.2-5.5,28.4h79.3c.1-.1-.2-6.6-.8-15.6Z" fill="url(#linear-gradient-4)"/>
    <path id="Path_15391" data-name="Path 15391" d="M308,192.9a372.02,372.02,0,0,0,38.9,5.2,22.429,22.429,0,0,0,13.8,1.7c.6,0,1.2-.9,1.9-1.7.4-.5,1-.8,1.3-1.3.2-.4-.2-.6,0-1.1.3-.7,1-1.5.9-2.2-.3-2.1.3-1.9.4-2.7a2.1,2.1,0,0,0-.9-1.9c-2.2-.6-4.2-1.3-5.2-1.5s1.5-1.1,3.1-1.5c1.7-.6,2.9-2.3-.2-2.1s-5.7-.1-6.5,0a22.792,22.792,0,0,0-6.1,1.2c-1.4.6-2.9,1.9-6.3,1.3-5.5-1.3-24.1-9.2-33.1-13.1-4.5-1.9-16,17-2,19.7Z" fill="#ea9d7d"/>
    <path id="Path_15392" data-name="Path 15392" d="M325.2,195.7c12.4,1.7,21.7,2.4,21.7,2.4a27.316,27.316,0,0,0,13.8,1.7c2.7-.4-3.5-6.5-7.8-7.8-29.2-8.6-33.1,3-27.7,3.7Z" fill="url(#linear-gradient-5)"/>
    <path id="Path_15393" data-name="Path 15393" d="M356.7,200.7H355c-2.5-.1-8.1-2.1-8.3-2.1a.474.474,0,0,1,.3-.9c.1,0,5.7,2,8,2.1,3,.1,5.5-.1,6.3-.7.6-.4.7-.7.6-.8s0-.3,0-.4c.1-.1.2-.2.3-.2,0,0,.9-.2,1-.8a.687.687,0,0,0-.4-.9c-.2-.1-.4-.4-.3-.6a.486.486,0,0,1,.6-.3c.1,0,.9.1,1.2-1a1.057,1.057,0,0,0-.8-1.4.486.486,0,0,1-.3-.6.51.51,0,0,1,.5-.4,1,1,0,0,0,1-.9c.2-.7,0-.9-1.6-1.5l-.5-.2a34.289,34.289,0,0,0-4.3-1.3.513.513,0,0,1,0-1c1.7-.4,4.7-1.3,5.3-2a.367.367,0,0,0,.1-.3,1.094,1.094,0,0,0-.4-.2h-.8a17.351,17.351,0,0,1-2.3,0h-1c-3-.1-7.1-.2-9.7,1.2a9.6,9.6,0,0,1-5.8,1.5.47.47,0,0,1-.5-.5.536.536,0,0,1,.5-.5c1.7.1,2.9-.1,5.3-1.4,2.8-1.5,7.1-1.4,10.2-1.4h4.3a1.253,1.253,0,0,1,1.1.8,1.054,1.054,0,0,1-.3,1.2c-.6.7-2.5,1.4-4,1.8a13.383,13.383,0,0,1,2.6.9l.5.2c1.5.6,2.6,1,2.2,2.7a2.09,2.09,0,0,1-.8,1.3,2.24,2.24,0,0,1,.5,2.1,2.287,2.287,0,0,1-1.1,1.5,1.434,1.434,0,0,1,.1,1.3,1.962,1.962,0,0,1-1.4,1.4,2.3,2.3,0,0,1-1,1.4c-1,.8-3.4.9-5.2.9Z" fill="#cc7a5e"/>
    <g id="Group_1038" data-name="Group 1038">
      <path id="Path_15394" data-name="Path 15394" d="M341.5,195.2l-.5-.6.6-.5Zm1-3.5-.8-.5.8-.6Zm.3,2v.9l-.9-.2Zm-.2,1.3.1,1.3-1.3-.4Zm-1.4-1.3.2-1.5.9.9Zm1.7,4-1.8-.2,1-1.1Z" fill="#ad5c44"/>
      <path id="Path_15395" data-name="Path 15395" d="M340.5,197.4l.3-1.8,1.1,1.1Zm.8-1.8-.2-.5h.5Zm2.6-4.8v.4l-.4-.2Zm-1.5,1.6.4-.3.1.6Zm.6,4.4-.6-.1.4-.5Zm1.5-4.4-.1-.4.5.1Zm-.4,4.6-.5.8-.6-.8Zm8.2,2.1-.7-.4.4-.7Zm-5.4-2-.4.8-.6-.8Zm-.9-1.6.5.8-1.1.1Zm3,1.3.9-.1-.2,1Zm-.2,1.2-1.3-.3.9-.8Zm-2.7,0-1.8-.2,1-1.1Zm4.9.7-1.1-.3.7-.6Zm-6.1-2.4-.3.2v-.4Zm-.5-2.1.1.2h-.3Zm-1.9,1.9h.2l-.1.3Zm8.1.5-.3-.5.6-.1Zm2.9,2.1v.4l-.4-.2Zm-9.2-2.5-.2-.4.5-.1Zm3.3,1.1-.2-.5.5-.1Zm4.7.1-.5-.1.3-.5Zm-4.7-2.3-.4.2v-.5Zm-4.4-.4-.1-.5.5.2Zm2.7-.2h-.4l.2-.4Zm9.5,5.1h-.5l.2-.6Zm-6.4-5-.2.4-.3-.3Zm4,2.7.4.2-.4.3Z" fill="#ad5c44"/>
    </g>
    <path id="Path_15396" data-name="Path 15396" d="M342.5,186.9l-2.1,10.7a2.122,2.122,0,0,1-2.6,1.7l-10.4-2,4.8-15.8,8.9,2.9a2.172,2.172,0,0,1,1.4,2.5Z" fill="url(#linear-gradient-6)"/>
    <path id="Path_15397" data-name="Path 15397" d="M217.8,100.5c7.9-6.5,22.8-8.3,41.7,17.6s32.1,35.3,48.3,41.5,23.9,6.5,27.4,14.2-1.2,20.4-3.5,25.7-10,15.3-34.2,8.6c-24.2-6.8-46.3-24.2-58.7-37.8s-22.4-27.4-27.1-38.9c-5.7-13.8-3.1-23.3,6.1-30.9Z" fill="url(#linear-gradient-7)"/>
    <g id="Group_1039" data-name="Group 1039">
      <path id="Path_15398" data-name="Path 15398" d="M207.4,151l1.4.4-.2-1.6Zm-3.5,1.7,1.4.4-.2-1.6Zm1.2-5.5.1-.8-.9.2Zm4.6,5.8,1-1.3-1.8-.5Zm-6.4,3.4,1.3-1.4-2-.7Zm-1.1,3.8,1.3-1.4-2-.6Zm1.6-7.9,1.1-1.2-1.8-.6Zm2.2-.3,1.1-1.3-1.8-.6Z" fill="#fcd842"/>
      <path id="Path_15399" data-name="Path 15399" d="M205.5,154.6l1.3-1.4-2-.7Zm.9-7.1,1.1-1.3-1.8-.5Zm-.6,1.9,1-1.3-1.7-.5Zm-.6,19.4,1.3-1.3-2.1-.8Zm2.4-6.5-1.7-.8-.1,2.2Zm-2,2.8-1.7-.8-.1,2.2Zm2.2-7.8,1.5.6-.2-1.8Zm.7-7.8,1.3.4-.2-1.6Zm-1.3,20.9,1.5.5-.1-1.8Zm-.6-10.8,1,.4v-1.3Zm1.2-7.2-.2.9,1.1-.2Zm6.8,6.2-1,.1.5.9Zm2.5-2.3.3-.9-1.1.1Zm-6.4-.7.8.1-.2-.9Zm5.1-6.2.2.8.8-.5Zm4.1,21,.5-1h-1.2Zm-7.1-1.3.9.2-.3-1Zm6.3-6.7v.9l.9-.4Zm-2.4,21.3.5-1h-1.3Zm-7.1-1.3.9.2-.3-1Zm6.2-6.7.1.9.9-.5Zm-1.4,4.4.5-1h-1.3Zm-7.1-1.2.9.1-.3-1Zm6.2-6.8.1,1,.9-.6Zm-7,12.7,1-.4-.9-.9Zm-4.3-5.8.5.7.5-.9Zm9.2-.6-.6.7,1,.3Zm-3.2-10.2,2,.4-.6-2.2Z" fill="#fcd842"/>
      <path id="Path_15400" data-name="Path 15400" d="M212.7,164.4l.1,1,.9-.6Zm-4.3,8.3-.9-.7-.3,1.2Zm.7-4.6-.6-1-.7,1Zm-5.1,5.1.7-.7-1-.3Zm-1.9-8.9.8.4.1-1Zm7.3,6.3.5-1.4-1.7.2Zm-9.7-.3H201l-.5-1.3Zm7.1-10.1.3,1.2,1.2-.9Z" fill="#fcd842"/>
      <path id="Path_15401" data-name="Path 15401" d="M207.8,173.3l-.7-1.2-.8,1.4Zm-6.1,6.6.8-.9-1.3-.4Zm-2.8-11.1,1.1.5v-1.2Zm12.3-8.9-.6-1-.7,1.1ZM206,165l.7-.7-1-.3Zm-1.8-9,.8.4.1-1Zm-1.6,2.4,1.5.5-.1-1.8Zm1.5,2,2.4-.3-1.4-2.4Z" fill="#fcd842"/>
      <path id="Path_15402" data-name="Path 15402" d="M205.9,157.7l1.7-1.9-2.7-.8Zm-3.1,12.2,1.6-1.9-2.6-.8Zm-.9,5.4,1.7-1.9-2.7-.8Zm.8.9-2.2-1.2-.3,2.8Z" fill="#fcd842"/>
      <path id="Path_15403" data-name="Path 15403" d="M205.7,174.8l-1.8.2,1,1.8Zm-.5-4.7-1.9.2,1,1.8Zm-5.4,6.5,1.7-1.8-2.7-.9Zm3.5-14,1.5.5-.1-1.8Zm-2.1.2,1.6.5-.2-1.8Zm12.9-10.1.3-1-1.2.1Zm-2.4-2.1-.7-.5-.1.9Zm4.2,3,.9.1-.3-1Zm-13.3,10.9.2-.9-1.1.2Zm5.2-8h.9l-.4-.9Zm-6.9,12.1,1.3-1.4-1.9-.7Z" fill="#fcd842"/>
      <path id="Path_15404" data-name="Path 15404" d="M200.1,163.8l-.8,3.5,3.9-.8Zm-1.1,5.4-.8,3.6,3.9-.8Zm1.9-10.3-.7,3.5,3.9-.8Zm-3,17.2-.6,3.6,3.9-.9Z" fill="#fcd842"/>
      <path id="Path_15405" data-name="Path 15405" d="M201.9,154.8l-.8,3.5,3.9-.8Zm.5-3.6-.6,3.5,3.9-1Zm.8-3.6-.3,3.2,3.3-1.1Zm-4.1,29.7,1.3-1.4-2-.7Zm-1.3-2.7,1.8.6-.1-2.1Zm-.5,5.6,1.8.7-.2-2.1Zm.1.8.3,1.9,1.8-1.2Zm2.8-.1,1.5,1,.3-2Zm-1.7,3.1,1.6,1,.3-2ZM209,173.9l-.5-1-.8,1.1Zm-5.1,5.1.7-.6-1-.4Zm-1.9-8.9.8.4.1-1Zm8.9-6.3-.4-.8-.6.8Zm2.6-2-.7-1.4-1.1,1.4Z" fill="#fcd842"/>
      <path id="Path_15406" data-name="Path 15406" d="M211.1,166.6l-.4-.8-.6.9Zm-.6-2.5-.5-.8-.5.8Zm-1.9,10.8,1.3-1.3-2-.7Zm1.6-2,.7.4.1-.9Z" fill="#fcd842"/>
      <path id="Path_15407" data-name="Path 15407" d="M217.1,161.8l-.6-1.1-.9,1.1Zm-6.2,5.4.8-.7-1.1-.5Zm-1.5-10.3.9.6.2-1.2Zm-2.2-24.1,1.3.5v-1.6Zm-.9,3.5,1.1-1.3-1.8-.5Zm-1.1,3.8,1.1-1.3-1.9-.5Zm1.9-7.8,1.3-1.1-1.8-.8Zm2.2,0,1.3-1.1-1.7-.8Z" fill="#fcd842"/>
      <path id="Path_15408" data-name="Path 15408" d="M207.9,134.7l1.1-1.3-1.8-.5Zm.8-4.6,1.1-1.1-1.5-.6Zm-.5,17.4,1-1.3-1.8-.5Zm1.6-5.7-1.6-.6.1,1.9Zm-1.4,2.5-1.5-.7v1.9Zm1.4-6.9,1.3.4-.2-1.5Zm.9,9.5,1.8.2-.7-1.9Z" fill="#fcd842"/>
      <path id="Path_15409" data-name="Path 15409" d="M211.6,146.7l-.6-.8-.5.9Zm-4.3,4.7.6-.6-.9-.3Zm-2.1-7.7.8.3v-.9Zm6.7,5.2.3-1.3-1.5.3Zm-8.6.1h1.1l-.5-1.1Zm5.8-9.1.3,1,1-.8Zm1.9,11.7-.7-1-.7,1.2Zm-5.3,5.9.7-.8-1.1-.3Z" fill="#fcd842"/>
      <path id="Path_15410" data-name="Path 15410" d="M203.1,147.8l.9.5.1-1.1Zm-4.3,31.6,1.3-1.4-2-.7Zm-1.3,3.9,1.3-1.4-2.1-.7Zm2.8,8.8,1.3-1.4-2-.7Zm2.5-6.6-1.7-.9-.1,2.2Zm-1.9,2.9-1.7-.9-.2,2.2Zm2.3-7.8,1.5.7-.1-1.8Zm-.9,13.1,1.5.6v-1.9Zm-.4-10.8,1,.4.1-1.2Zm1.5-7.2-.2.9,1.1-.2Zm6.5,6.5-.9.1.5.9Zm4.2-1.6.5-1h-1.3Zm-7.1-1.4.9.1-.2-1Zm6.4-6.6.1,1,.9-.5ZM215,194l.5-1h-1.2Zm-7.1-1.4,1,.1-.3-1Zm6.5-6.6v.9l.9-.4Zm-2.9,21.2.4-1h-1.2Zm-7.2-1.4,1,.1-.3-1Zm6.5-6.6.1,1,.9-.5Zm-1.6,4.4.5-1h-1.2Zm-7.1-1.4,1,.1-.3-1Zm6.5-6.6v.9l.9-.5Zm-7.4,12.5,1-.4-.8-.9Zm-4.2-6,.6.8.5-.9Zm9.2-.3-.6.7,1,.3Zm-2.8-10.3,1.9.5-.5-2.3Zm4.5-3.6.1.9.9-.5Z" fill="#fcd842"/>
      <path id="Path_15411" data-name="Path 15411" d="M203.4,196l-.9-.7-.3,1.2Zm.9-4.6-.6-1-.7,1Zm-5.3,5,.7-.6-1-.4Zm-1.7-9,.8.5.1-1Z" fill="#fcd842"/>
      <path id="Path_15412" data-name="Path 15412" d="M204.5,194l.5-1.4-1.7.1Zm-9.7-.6h1.3l-.5-1.3Zm7.4-9.9.3,1.2,1.1-.8Zm1,13.4-.7-1.2-.9,1.3Z" fill="#fcd842"/>
      <path id="Path_15413" data-name="Path 15413" d="M196.7,203.2l.8-.8-1.2-.5ZM194.6,192l1,.6.1-1.3Zm11.8-9-.5-1-.8,1.1Zm-5.1,5.1.6-.7-.9-.3Zm-1.9-9,.8.4.1-1Zm-1.6,2.4,1.6.5-.1-1.8Zm1.5,2,2.5-.3-1.4-2.4Zm1.9-2.7,1.7-1.8-2.7-.9Zm-3.3,12.3,1.7-1.8-2.6-1Zm-1,5.3,1.7-1.8-2.7-.9Zm1,1.2-2.1-1.3-.4,2.8Zm2.8-1.5-1.9.1,1,1.9Z" fill="#fcd842"/>
      <path id="Path_15414" data-name="Path 15414" d="M200.2,193.3l-1.8.1,1,1.9Zm-5.4,6.4,1.7-1.8-2.7-.9Zm3.7-14,1.5.5-.1-1.8Zm-2.1.2,1.6.5-.2-1.8Zm1.4,1.7.2-.9-1.1.2Zm5.5-7.7h.9l-.4-1Zm-7.2,11.8,1.3-1.4-2-.7Z" fill="#fcd842"/>
      <path id="Path_15415" data-name="Path 15415" d="M195.9,186.3l-.9,3.5,4-.7Zm-1.3,6.2-.9,3.5,4-.7Zm2.1-10.7-.8,3.6,3.9-.9Zm-3.6,17.5-.7,3.5,3.9-.9Z" fill="#fcd842"/>
      <path id="Path_15416" data-name="Path 15416" d="M197.4,177.8l-.8,3.5,3.9-.8Zm-3.1,22.7,1.4-1.3-2-.8Zm-.6-4.1,1.8.8-.1-2.1Zm-1.4,6.9,1.8.8-.1-2.2Zm.1.8.2,1.9,1.8-1.1Zm2.8,0,1.5,1.1.4-2Zm-1.9,3.1,1.5,1,.4-2Zm10.7-10-.5-1-.8,1.1Zm-5.2,5,.6-.6-.9-.4Zm-1.7-9,.8.5.1-1.1Zm9-6-.4-.8-.6.8Zm2.7-1.9-.6-1.4-1.2,1.3Z" fill="#fcd842"/>
      <path id="Path_15417" data-name="Path 15417" d="M206.3,190l-.4-.8-.6.8Zm-.6-2.5-.5-.8-.5.8Zm-2.2,10.7,1.4-1.3-2-.7Zm1.8-2,.6.5.1-.9Z" fill="#fcd842"/>
      <path id="Path_15418" data-name="Path 15418" d="M212.4,185.4l-.6-1.2-.9,1.1Zm-6.3,5.2.8-.7-1.1-.5Zm-1.2-10.3.8.6.3-1.2Zm2.5-6-.8-1.2-.8,1.3Zm-6.4,6.3.8-.7-1.2-.5Zm-2.3-11.1,1,.6.1-1.3ZM213.2,139l-.6-.8-.6.9Zm-4.3,4.8.5-.6-.8-.3Zm-2.1-7.8.7.3.1-.9Zm-1.6,2.6,1.4.4-.2-1.6Zm1.6,1.6,2.2-.4-1.4-2.1Zm1.7-2.8,1.3-1.7-2.3-.7Zm-2.4,11.2,1.4-1.7-2.4-.7Zm.1-6.5,1.4.4-.2-1.6Zm-1.8.3,1.4.4-.3-1.6Zm1.2,1.4.2-.8-.9.2Z" fill="#fcd842"/>
      <path id="Path_15419" data-name="Path 15419" d="M210,136.3l.9-.1-.5-.8Zm-5.6,11.2,1.1-1.3-1.8-.5Z" fill="#fcd842"/>
      <path id="Path_15420" data-name="Path 15420" d="M203.9,142.8l-.5,3.1,3.4-.9Zm.6-3.7-.5,3.1,3.4-.9Zm.7-3.8-.5,3.2,3.4-.9Zm.8-3.6-.7,3.1,3.5-.7Zm.4-3.1-.5,2.7,3-.7Zm6.4,14.4-.4-.7-.5.7Z" fill="#fcd842"/>
      <path id="Path_15421" data-name="Path 15421" d="M213.2,145.4l-.4-.7-.5.8Zm-.8-2.2-.4-.6-.5.7Zm-5.3-17.1,1.2.3L208,125Zm1.4-4.4.3-.7-.9.1Zm.3,5.6,1-.6-1.1-.7Zm.7,1.6,1-1-1.5-.6Z" fill="#fcd842"/>
      <path id="Path_15422" data-name="Path 15422" d="M207,125.9l-.5,2.8,3-.8Zm.7-2.5-.3,1.7,1.8-.3Zm.1-.3,1.4.1-.5-1.6Z" fill="#fcd842"/>
    </g>
    <g id="Group_1040" data-name="Group 1040">
      <path id="Path_15423" data-name="Path 15423" d="M244.8,181.6l-.9,1,1.5.4Zm.3-4-1.1.7,1.2.8Zm-3.7,3.9.3,1.5,1.4-1Zm-4.7-2.7.2,1.5,1.5-1Zm-4.4-1.7-1.3.8,1.4,1Zm6.9-1.5.2,1.5,1.5-.9Zm2,2.3.2,1.5,1.5-1Zm1.3-2.7.2,1.6,1.5-1Z" fill="#e06c1e"/>
      <path id="Path_15424" data-name="Path 15424" d="M239.6,172.8l.7,1.4,1.1-1.3Zm5.3,5.1.5,1.5,1.3-1.3Zm-1.3,1.6.6,1.4,1.2-1.3Zm-1-2.2.3,1.5,1.4-.9Zm3,3.9.2,1.5,1.5-.9Z" fill="#e06c1e"/>
      <path id="Path_15425" data-name="Path 15425" d="M246.3,181.1l.5,1.5,1.3-1.1Zm-6.7-4.1-1.1.7,1.2.7Zm6.2,5.4-.6,1.2,1.5.1Zm-6.9-6.9-.8.5.8.6Zm4,4.4-.5-.5-.4.8Zm-7.4,1.3.4-.7-.8-.1Zm-.9,3.5.5.7.5-.8Zm4.3-4.1-.5.6.8.3Zm1.3,7.4-.6-.4-.1.8Zm-3.5-2.7.9-.1-.6-.9Zm-2.5-5.3.3.6.6-.6Zm7.4,1-.5.5.7.4Zm.3-7.8-1,.7,1.2.9Zm-2,.1-1.1,1.7,2.3.4Zm.5,2.8.4,2,1.9-1.3Zm-2.2-3-.8,1,1.4.4Z" fill="#e06c1e"/>
      <path id="Path_15426" data-name="Path 15426" d="M236.9,172.7l-1,1,1.4.5Zm2.7,11.1.5.7.5-.8Zm3.9,1.6.6-.4-.7-.5Zm-5.4-.8-.5.5.8.3Zm2.1-6.7-.4.6.8.1Zm1.6-4.7-1.9-2.1-1.4,2.9Zm2.4,2.4-2.1-2.1-1.2,3Zm2.2,2.1-2.1-2-1.2,3.1Zm2.3,2.2-2.1-2-1.1,3.1Z" fill="#e06c1e"/>
      <path id="Path_15427" data-name="Path 15427" d="M250.8,181.9l-2.2-2.1-1.1,3.1Z" fill="#e06c1e"/>
      <path id="Path_15428" data-name="Path 15428" d="M252.9,183.6l-2.2-1.9-1,3.1ZM240,181l1.2-.1-.6-1.2Zm-3.7,1.3,1.2-.1-.6-1.2Zm7.8.7.3,1.5,1.4-1.1Z" fill="#e06c1e"/>
      <path id="Path_15429" data-name="Path 15429" d="M246.3,185l1.4-.8-1.4-1Zm6.5.4,1.3-.7-1.4-1.1Zm-1.9,1.2,1.3-.8-1.4-1.1Zm-1.9-2,1.3-.8-1.4-1.1Zm-.8,1.9h-.9l.4.9Zm1.4,5.7-.2-.7-.7.5Zm-7.1-2.4.7-.4-.7-.5Zm-10.2-4.7.1.9.8-.5Zm5.6-1.8-.7.2.6.6Zm-1.9,7.2-.4-.6-.5.6Zm14.3-4.4-1.4.9,1.5,1Zm-9.4,2.7-.6-.5-.3.8Zm1.8-2.8h1l-.4-.9Zm-1-5.8.1.7.7-.5Zm6.9,2.8-.7.3.6.6Zm-19.8,3.4.7.6.2-1Z" fill="#e06c1e"/>
      <path id="Path_15430" data-name="Path 15430" d="M231.7,180.8l-.4.7h.9Zm3.8,6.4-.7-.1.2.8Zm12.9,9.9.8-.4-.8-.6Zm-2.1-7.1.8-.5-.8-.6Zm-1.5,2.4.5.6.3-.8Zm7.4-1.1-.4.6.8.1Zm-5.4-9.5.6,1.9,1.7-1.5Zm.1-1.9.2,1.5,1.4-.8Zm1.1,5.3,1,.7.2-1.4Zm-7.4,1.4.7.3-.1-.9Zm-2.9,3.5.8.6.2-1.1Zm2.3-6.2-.3.8,1-.1Zm5,6.8-.8-.1.3.9Zm8-5-1.3-.3.3,1.5Zm1.7.7-.9.9,1.4.5Z" fill="#e06c1e"/>
      <path id="Path_15431" data-name="Path 15431" d="M254.8,187l-1.3-.3.3,1.4Z" fill="#e06c1e"/>
      <path id="Path_15432" data-name="Path 15432" d="M254.4,188.9l2-.7-1.7-1.7Z" fill="#e06c1e"/>
      <path id="Path_15433" data-name="Path 15433" d="M253.8,187.1l2-.9-2-1.7Zm-.7,1.2.5,1.5,1.2-1.3Zm2.3,1.2.8,1.4,1-1.4Zm-.7.3-.8,1,1.4.4Zm1.6-2.3-.9,1,1.4.5Zm-6.3,1.2.7.4-.1-.9Z" fill="#e06c1e"/>
      <path id="Path_15434" data-name="Path 15434" d="M257.9,187.9l-2.2-1.8-.8,3.2Zm7.7,6.2-.4.8,1,.1Zm-1.5-.4.7,1,.7-1.1Zm-3.6-2.6.6,1.1.9-1.1Z" fill="#e06c1e"/>
      <path id="Path_15435" data-name="Path 15435" d="M264.6,194.9l.5.9.7-.9Zm-5.6-.5.9-1.1-1.5-.4Zm2.2.4.8-1.1-1.5-.3Zm-4.4-2.7,1-1-1.5-.6Zm-3.1,2.1.8-.2-.5-.7Zm-2.4-4.8.4.6.4-.6Zm6.8.7-.5.5.7.3Zm.3,10.5.8-.1-.4-.8Zm-2.1-4.9.3.6.5-.6Zm6.7,1.1-.5.5.7.3Zm1,7.8,1.1-.2-.6-1Zm-4.1-5.4.2.6.6-.6Zm6.6,1.1-.5.5.7.3Zm-12.2-3h.8l-.4-.9Zm-3.4-3.9.3.6.5-.6Zm6.4,1-.5.5.7.3Zm-.5,3.5-.2.9,1-.3Zm5.9-.3H262l.4.7Zm-3.7,6.5-.2-.8-.6.6Zm-.1,2-.7.5.9.5Zm-10.8-3.2-.3.8.9-.1Zm5.3.3h-.7l.3.7Zm-5.7,3.3-.1-.7-.6.5Zm5.2-5.9-.3.8h.9Zm5.3,1.1-.7-.1.1.7Zm-4.8,4.8v-.6l-.7.3Zm-17.6-13.8.8-.4-.8-.6Zm9.1,4.1.7-.3-.6-.6Zm-2.8-4.7.4.6.4-.7Zm3.9,3,.4.6.4-.7Zm-5.6-1,.8-.2-.5-.7Zm2.3.4v.9l1-.4Z" fill="#e06c1e"/>
      <path id="Path_15436" data-name="Path 15436" d="M247.2,197.4l-.2-.7-.6.6Zm3.2.7-.8.4.9.6Zm-14.2-1.8-.2.7h.9Zm5.4.3h-.7l.3.7Zm-1.1,8.9-.2-.6-.6.4Zm-1-7.5-.2.8.9-.2Zm6.9-2.9-.7-.1.1.7Zm-4.8,4.8-.1-.7-.6.4Zm19.7-8-.4.9h1.2Z" fill="#e06c1e"/>
      <path id="Path_15437" data-name="Path 15437" d="M259.5,191.5v1.6l1.7-.7Z" fill="#e06c1e"/>
      <path id="Path_15438" data-name="Path 15438" d="M259.6,191.5l-.6.8,1.1.3Zm0-2.4-.7,1,1.3.3Z" fill="#e06c1e"/>
      <path id="Path_15439" data-name="Path 15439" d="M258,190.4l.6.4.1-.8Zm2-1.1-2.1-1.6-1,2.8Zm2,1.4-1.9-1.4-.5,2.4Z" fill="#e06c1e"/>
      <path id="Path_15440" data-name="Path 15440" d="M263.5,191.8l-1.9-1.4-.5,2.4Zm2,1.2-1.9-1.3-.4,2.3Zm1.7,1-1.7-.9-.2,2.2Zm-3.3,2.3-1.1,1.4,2,.5Zm1.9,5.9-1,1.4,1.9.5ZM251.3,191l.7,1.7,1.4-1.5Zm-10.9-7.3.7,1.7,1.4-1.5Zm26.4,11.6-.8,1,1.4.4Z" fill="#e06c1e"/>
      <path id="Path_15441" data-name="Path 15441" d="M265.8,195.3l-.7,1.1,1.4.2Zm-.5,2.1.7,1.4,1.1-1.4Zm2,1.7.9,1.3.9-1.5Zm-.5-.2-.7,1,1.5.3Zm.8,3.5-.8,1.1,1.5.2Zm-16.1-14.8-.5,1.2,1.5-.1Zm-3.8,2.6-.5,1.3,1.4-.1ZM259,196l-1.1,1.6,2.1.3Z" fill="#e06c1e"/>
      <path id="Path_15442" data-name="Path 15442" d="M263.2,198.4l-.7,1.1,1.4.2Zm4.8,1.7-.7,1.1,1.4.3Zm.5-3.8-.9,1,1.5.4Zm-3.7,5,.6-.5-.8-.3Z" fill="#e06c1e"/>
      <path id="Path_15443" data-name="Path 15443" d="M270,195.9l-2.2-1.4-.6,3.2Zm-1.4,5.8.9-1-1.5-.5ZM238.7,183v-.8l-.8.3Zm-5.1,1.4.6-.2-.4-.6Zm2-6.5.4.6.4-.6Zm2.2-2.1.5.9.7-1Zm32.4,26-2,1.2,2.1,1.5Zm-.2-5-2.1,1.2,2.1,1.5Z" fill="#e06c1e"/>
      <path id="Path_15444" data-name="Path 15444" d="M270.1,199.4l-2,1.1,2,1.6Zm-4.3,5.8.6,1.4,1.2-1.4Zm-21.5-17.9.9,1.2.9-1.5Zm1.5-.7,1.6.1-.6-1.6Zm3.2,4.1,1.6.2-.6-1.7Zm-17.1-22.2-.9.9,1.4.6Zm.6-3.9-1.2.6,1.2.9Zm-4,3.5.2,1.5,1.5-.8Z" fill="#e06c1e"/>
      <path id="Path_15445" data-name="Path 15445" d="M224,165.1l.1,1.5,1.6-.8Zm.3-3.5-.6-1.4-1.2,1.3Zm-4.4-15.2-1-1.6-.6,1.2Zm6.9,15.7.1,1.5,1.5-.8Zm1.8,2.4.1,1.6,1.5-.9Zm1.5-2.5.1,1.5,1.6-.8Zm-2.7-2.6.5,1.4,1.3-1.3Zm4.9,5.5.4,1.4,1.3-1.2Z" fill="#e06c1e"/>
      <path id="Path_15446" data-name="Path 15446" d="M230.9,166.3l.4,1.5,1.4-1.2Zm-.8-2.2.1,1.5,1.5-.8Zm2.6,4,.1,1.6,1.5-.8Z" fill="#e06c1e"/>
      <path id="Path_15447" data-name="Path 15447" d="M233.5,168.1l.3,1.5,1.4-1Zm-6.4-4.6-1.2.6,1.2.9Zm-1.2-8-1.1.6,1.1.9Zm-3.7-.4.5,1.2,1-1.1Zm-.6-6.2-.6,1.2h1.5Zm11.2,20.5-.7,1.1,1.5.2Zm-6.3-7.4-.8.4.7.7Zm3.7,4.7-.5-.6-.4.8Zm-7.5.7.4-.7-.8-.1ZM222,159l.4-.7-.8-.1Zm-1.7-10.4.5-.7-.9-.1Zm1.2,22.2.4.8.7-.8Zm4.6-3.7-.5.5.7.4Zm.8,7.4-.7-.4-.1.8Zm-3.3-2.9.9-.1-.6-.9ZM220.3,156l.2.7.6-.6Z" fill="#e06c1e"/>
      <path id="Path_15448" data-name="Path 15448" d="M221.7,154.4l.3.7.6-.6Zm-1.4-.9.3.7.6-.6Zm8.5,14.2-.6.4.7.4Zm.8-7.8-1,.6,1.1,1Zm-1.9-.1-1.2,1.6,2.2.6Zm-1.3-1.6-.6.7,1,.3Zm-1.8-2-.5.7,1,.2Zm-1.7.8.3.9.7-.7Zm5.1,5.7.2,2,2-1.1Zm-2-3.2-.9.9,1.4.6Zm-1.3-.4-1,.8,1.3.6Zm-1.1-6-1,.9,1.4.6Zm3,17.2.4.8.6-.8Zm3.7,1.8.7-.3-.7-.5Zm-5.3-1.2-.6.5.8.4Zm2.6-6.5-.5.6.9.2Z" fill="#e06c1e"/>
      <path id="Path_15449" data-name="Path 15449" d="M229.7,159.9l-1.7-2.2-1.6,2.7Zm2.2,2.6-1.9-2.2-1.5,2.9Zm1.9,2.3-2-2.2-1.3,2.9Zm-9.6-12.2-1.4-1.9-1.5,2.2Zm1.9,2.7-1.4-2-1.4,2.4Zm1.8,2.4-1.5-2-1.3,2.4Zm8,9.4L234,165l-1.4,2.9Z" fill="#e06c1e"/>
      <path id="Path_15450" data-name="Path 15450" d="M237.8,169.2l-1.9-2.2-1.4,3Z" fill="#e06c1e"/>
      <path id="Path_15451" data-name="Path 15451" d="M239.8,171.1l-2.1-2-1.2,3Zm-12.6-3.5h1.2l-.6-1.4Zm-3.8,1h1.2l-.6-1.3Zm7.7,1.2.2,1.5,1.5-.9Z" fill="#e06c1e"/>
      <path id="Path_15452" data-name="Path 15452" d="M233.2,172l1.4-.7-1.4-1.1Zm4.7,1.4,1.4-.7-1.3-1.1Zm-2.1-1.6,1.4-.7-1.3-1.1Zm-.9,1.8H234l.3.9Zm-5.9,2.9.7-.3-.6-.6Zm-10.5-24-.1.9,1-.4Zm6.4,17.1-.8.2.6.7Zm-2.5,7.1-.3-.7-.5.7Zm14.6-3.3-1.5.8,1.5,1.1Zm-9.6,2-.5-.6-.3.8Zm2.1-2.7.9.1-.2-.9Zm-.6-5.9.1.8.7-.4Zm6.7,3.4-.7.3.6.6Zm-10.3,11.7.7.6.3-1Zm-3.9-21.2-.4.7.8.1Zm3.4,13.5-.7-.2.1.9Zm8,2.8.8-.4-.8-.7Zm1.1-8.2.4,2,1.9-1.3Zm.2-1.9.1,1.6,1.5-.7Zm.7,5.4,1,.8.3-1.4Zm-7.4.9.6.3v-.9Zm.7,6.9.9.6.2-1.1Zm-1.1-9.6-.4.7h1Zm9.5,5.5.7.4v-.9Zm1.3.8.3.6.5-.5Zm-10.4-6.5.5,1.7,1.5-1.4Zm7.3,4.7-.6,1.1,1.4.1Zm-.6,2.3-.6,1.2,1.5.1Zm-8.3-7.9v-.8l-.8.3Zm-5.3,1,.7-.1-.5-.6Zm2.5-6.2.3.6.5-.6Zm-2-12.7.3.6.5-.6Z" fill="#e06c1e"/>
      <path id="Path_15453" data-name="Path 15453" d="M219.7,150.2l.3.6.5-.6Zm5.6,12,.5.9.8-.9Zm5.7,12,.8,1.2.9-1.4Zm1.5-.7,1.6.3-.5-1.7Zm2.9,4.4,1.5.3-.4-1.7Zm26.4,17.4,1.5.4-.2-1.7Zm1.9,6.9,1.5.4-.2-1.7Zm-9.1-9,1,1.2.8-1.5Zm-2,2.2-.8,1.3,1.7.2Zm10.1,5.8-1.1,1.2,1.7.5Zm-7.7-1,.2,1.5,1.5-1Zm12.9,4.4.9,1.2.9-1.4Z" fill="#e06c1e"/>
      <path id="Path_15454" data-name="Path 15454" d="M267.3,206.7l-.7,1.1,1.4.2Zm1.3,1.4.9-1.1-1.5-.4Zm1.8-3.5-2,1.2,2.1,1.5Z" fill="#e06c1e"/>
    </g>
    <g id="Group_1041" data-name="Group 1041">
      <path id="Path_15455" data-name="Path 15455" d="M217.5,101l1.1.4-.1-1.4Zm20.3,5.1-.8.1.5.7Zm7.8-2.9-.7.1.5.8Zm-10.5,5.4-.3-.7-.6.7Zm-12.2-9.9-.1.9,1-.3Zm13.7,2.2-.2.9,1-.3Zm2.5-1.4-.1.9,1-.3Zm-22.7,2.4-1.3,1,1.6.9Z" fill="#fcd842"/>
      <path id="Path_15456" data-name="Path 15456" d="M213.5,104.9l-1,1.3,1.8.5Zm1.2-1.3-.1,1.2,1.3-.5Zm-.4,3.6-.1.9,1-.3Zm-2.3-.3-.1.9,1-.3Zm17.5-10.2-.8.1.5.7ZM225,99.3l-.6-1.3-1.1,1.2Zm2.7-.5-.3-.7-.6.7Zm3.9,1.3.9.4v-1Zm.7-3.1.2.9.8-.7Zm-1.5,4.1-.1.7.8-.2ZM219.3,106l-.1.7.8-.2Zm-2.8,1.1-.1.7.8-.2Zm-3.3,1-.1.7.8-.2Zm-.5.7-.1.8.8-.3Zm27.6-5.2-.2.8.9-.3Zm2-1.2-.1.7.8-.2Zm-4.7,1,.7.4.1-.9Zm-2.9-2.8.7.4v-.9Zm3.5-1h-.7l.4.8ZM217,109.4h.6l-.2-.6Zm.6-3.8.1.5.5-.3Zm6.9,1.6-.5.2.5.4Zm-3.4-.7.3.5.4-.4Zm7.4.9-.4.3.5.2Zm13.5.9-.4.3.5.2Zm-9.8,1.8-.4-.3-.1.5Zm4.4,2-.4-.3-.1.5Zm-5.3,5.1-.4-.3-.2.6Zm.7-13.8.6.7.4-1Zm-6.4-6.7,1.1,1.4.9-1.7Zm-8.2,7,.6.6.4-1Zm17.8-6.3-.4.6.8.1Z" fill="#fcd842"/>
      <path id="Path_15457" data-name="Path 15457" d="M237.7,104.6l-.7-.2.1.8Zm-6.2-5.5,1.3.3-.3-1.5Zm1.8.7.9.2-.2-1Zm.1-1.7.9.1-.3-1Zm-5.3,4.4.1.8.7-.4Zm9.7-4.2-1.2-.4.2,1.4Zm-25,9.2-.1.8.8-.3Zm4.5-5.2-.6.2.4.6Zm-6.5,7.2-.6.1.4.6Zm.8-.7-.2-.6-.5.5Zm4-3.2.7.3v-.8Zm-2.1.6.8.8.5-1.2Zm2.9-1,.7.3-.1-.9Zm2.4-2.6.6.3V102Zm-1.2-1.2-.4,1.4,1.6-.3Zm-3.7,3.4-.2.6.7-.2Zm6.3-1.3-.7.1.4.6Zm-4.9,3.4.8.2-.2-.8Zm-3.1,4.1v.7l.7-.3Zm1.4-4.4-.6.2.4.5Zm.1,3.8.8.1-.2-.8Zm3.3.5v.7l.7-.3Zm-6.6,0v.7l.6-.3Zm4.6,1.5-.6.1.5.5Zm-3.5-1.4.5-.3-.6-.3Zm-2.5,3.6.4-.4-.6-.3Zm.9-2.1.4-.3-.6-.3Zm-.9,3.2.5.5.2-.7Zm.2,2.6.4.5.3-.7Zm.7-4.2.7-.4-.7-.5Zm2.8-2,.4.5.2-.7Zm-.5,2.4-.3.6.7.1Zm-.1,2.3-.3.6h.7Zm-2.9,4.3.5.5.2-.6Zm4.1-2.5-.3.6h.7Zm.1,3.9-.3.6.7.1Zm5.4-22.8,1.7,1.2.4-2.5Zm2.8-.9-.3.6h.7Zm-1.9,2-.4.6h.8Zm4.5,1-.6-.1.1.7Zm11.6.7-.6-.2v.7Zm-13.6-1.2-.6-.2.1.7Zm2.4-3.9.5.5.3-.8Zm.7,4.8.6.6.2-.8Zm-3-4.3,1.1,1,.5-1.6Zm6.4,2.7.5.5.3-.8Zm4.1,5.1.6.5.3-.8Zm-.1,6.3-.8.1.5.7Zm-2.7,2.5-.3-.7-.6.6Zm-2.9,1.5-.4-.3-.1.5Zm.7-4.4.5.5.3-.8Zm-3.3,2.8.5.5.3-.8Zm-2.6,4.1.6.5.3-.8Zm-6.3-3.2.5.5.3-.8Zm14.5-18.2-.3.6.7.1Zm-1.1.4-.6-.2.1.7Zm2.5.9-.6-.1.1.7Zm8.7,3.8.9.4v-1Zm-.8,1-.1.8.8-.2Zm3.9-.5.7.4v-.9Zm-2.7,2.8.6.7.4-1Zm-.1-4.7.9.2-.2-1Zm1.4,1.1.8.3-.1-1.1Zm2.5,2.7-.7-.2.1.7Z" fill="#fcd842"/>
      <path id="Path_15458" data-name="Path 15458" d="M239.1,102.1l-.6-.2.1.7ZM225.8,104l.6.5.3-.8Zm1-3.7-.3.6h.8Zm3.1,4.6-.6-.1.1.7Zm1.7-8.4-1.2-.1.7,1.4Zm-5.8,2.8-.7.4.6.5Zm.8-1.5-.6.3.6.6Zm-4.3,6-.5-.6-.4.8Zm-1.8-1.8-.2,1.4,1.5-.5Zm-1.1,0,.1.5.5-.3Zm3.5.9.2.6.5-.5Zm-1-2.9h-.6l.4.6Zm2.1.2-.4-.6-.4.8Zm.8,2.2-.5-.6-.3.8Z" fill="#fcd842"/>
      <path id="Path_15459" data-name="Path 15459" d="M226.3,105.6l-.4-.6-.4.8Zm-3.3-4.9,1.2.7.1-1.5Zm6.3-1.3.9-.1-.4-.9Zm.6,3.6.9-.1-.5-.9Zm-12.6,1.6h.9l-.5-.9Zm2.2,3.5.9-.1-.5-.9Zm1.9-6.3.7.3.1-.8Zm5.4-2.9-.2.6.7-.1Zm-1.1,1.9h-.6l.3.6Zm2.7.3-.6-.1.3.7Zm-4,3-.2.6.7-.1Zm-3.8,11-.3.4.6.1Zm3.6-1.8-.2.4h.6Zm-2.7-4.1.4.6.5-.7Zm5.7.5.7.2-.2-.9Zm-7,1.9.7.2-.1-.8Zm4-1.2-.6.2.5.5Zm-5.2,2,.1.6.6-.5Zm9.4-12.8h-.6l.3.7Zm6.9,2.4.1.7.7-.3Zm-2.7-.4.5.5.3-.8Zm3.4-1.5.5.5.3-.8Zm-1.8-.4-.4.6.8.1Zm-1.1.4h-.6l.2.6Zm2.6.4h-.6l.2.7Zm.1-1.4h-.7l.3.6Zm-12.5,5.3-.7-.1.2.7Zm8.2-2.8-.2,1.6,1.7-.6Z" fill="#fcd842"/>
      <path id="Path_15460" data-name="Path 15460" d="M228.9,98.2l-.1,1.6,1.6-.6Zm6,1,.9.1-.3-1Zm-5.1,5.3,1.6.9.2-2.1Zm-5-5.6,1.6.9.2-2.1Zm-4.1.7,1.8.3-.5-2Zm8.2-1.5,1.6.9.2-2Zm1.3,2.2,1.5.9.3-2.1Zm-3.4,0,1.7.9.2-2Zm5.1.3,1.2,1.4.8-1.9Z" fill="#fcd842"/>
      <path id="Path_15461" data-name="Path 15461" d="M232.5,100l1.5,1.2.5-2Zm-8.2,2.8-.2,1.6,1.7-.6Zm8.7-1.1.2,1.6,1.5-1Zm-10.5.7-.2,1.1,1.2-.3Zm7-.5-.9.1.5.9Zm-4.3,7.8-.3-.8-.8.7Zm2.6,3.5,1,.1-.3-1.1Zm-.6-7,.1.9.9-.5Zm7.8,4.2-.9.3.7.7Zm-8.9-3.8.5-1h-1.2Zm-6.8-1.4.8.2-.2-1Zm6.1-6.3.1.8.9-.4Zm-3.3-.7-.1,1.5,1.6-.5Zm-1.4,2,.9,2.3,1.9-1.9Zm-8.5,6.4.8.6.7-.8Zm11.9-5.2,2.1,1.1.2-2.6Zm-4.8.3.4,1.5,1.4-1Zm-1.3-1.5.4,1.5,1.4-1.1Zm12.6,7.7,1.1.1-.4-1.2Zm2.2-1.8.4-.8-1,.1Z" fill="#fcd842"/>
      <path id="Path_15462" data-name="Path 15462" d="M230.2,109.8l.1.9.9-.5Zm-4.6-6.9.2.9.8-.7Zm-3.7-4.1-3.3,1.2,2.6,2.8Zm3.5-2L222.1,98l2.7,2.8Zm4.6-.4h-2.1l.4,2.9Zm-13.1,7.3,1.8.1-.7-1.9Z" fill="#fcd842"/>
      <path id="Path_15463" data-name="Path 15463" d="M217.9,100.4l-2,1.8,2.9,2.1ZM234.1,97l-2.3-.5.5,2.6Zm-5.8,8.5.9-1.3-1.7-.3Zm15.1,4.3-1.4.7,1.4,1.1Zm1.3-4.1-1.3.8,1.4,1Zm1,1.8.6,1.8,1.5-1.4Zm-3.4-3.8.8,1.6,1.4-1.5Zm-3.6-2.9,1.1,1.5,1.1-1.8Z" fill="#fcd842"/>
      <path id="Path_15464" data-name="Path 15464" d="M247.6,105.6l.1,1.8,1.9-1Zm-3.8,2.3.1,1.8,1.8-.9Zm-.7-1.9.8,1.7,1.3-1.5Zm5.3,3.4.2,1.8,1.8-1Zm-16.7-5.9,1.4,1.2.6-2Zm4.5,1.7,1.1-1.5-2-.4Z" fill="#fcd842"/>
      <path id="Path_15465" data-name="Path 15465" d="M235.3,103.8l.7-1.7h-2.1Zm5.7,2.8-.8,1.3,1.7.2Zm5.4,4.3-1.4.8,1.4,1Zm-8.3-7-.8.6,1,.6Zm5.5,4.6-.7-.5-.2,1Zm-8.5,2.6.4-.9h-1.1Zm1.7,4.3.7.8.5-1Zm2.2-5.6-.5.8.9.2Z" fill="#fcd842"/>
      <path id="Path_15466" data-name="Path 15466" d="M244.1,118.6l-.8-.4v1Zm-9.9-4.1.8.6.2-1.2Zm-5.3-5.4-.3.8,1-.1Zm7.5,7.1-.9-.1.3,1Zm-4.1-10-.2,2,2.1-.7Zm3.9,4.2-.9.2.6.8Zm2.8-3.5.9-.6-.9-.7Zm-11.6-4.4.7.6.3-1Zm8.6-2.2-.4.8h1Zm-17.3,10,.9-.5-1-.7Zm-4.7-5.2.6.6.4-.9Zm8.8-1.4-.5.8,1,.2Zm13.4,5.2,1.1-.2-.7-1Zm-2.6-6.5.3.8.7-.8Zm8.8,1.9-.7.5.9.5Zm-1.5-2.9-.7,1.4,1.7.2Zm-2.2,1.1-.1,2.4,2.5-.9Zm1.5,2.8,1,2.1,1.8-2Zm-6.7-4.9,1.9,1.4.6-2.6Zm3.3.9-.8,1.4,1.8.2Zm.6-1.9-.4,1.5,1.7-.2Zm5.2,14.4.7.7.5-1.1Zm1.4-.3.8-.4-.8-.6Zm-3,1.4-.5.7.9.2Z" fill="#fcd842"/>
      <path id="Path_15467" data-name="Path 15467" d="M235.9,100.7l.9.2-.3-1Zm4.6,6.7-.3.8,1-.1Zm-20.2-3.6,1.3,1.4.8-1.9Zm16.4-5.9-2.2-.7.4,2.9Zm4.5,2.1-2.7-1.4-.1,2.9Zm3.6,2.5-2.9-1.9-.1,3Zm3,2.3-2.5-2-.1,3Zm3.6,3.4-2-1.9-1.1,2.4Zm-14.7.4.7-.4-.8-.6Zm-1,2.4,1.4-.4-1.1-1.3Z" fill="#fcd842"/>
      <path id="Path_15468" data-name="Path 15468" d="M234,109l.8-.4-.9-.6Zm2.4-.8.7-.5-.8-.5Zm14.5,5.9-1.3.9,1.5.9Zm.9-2.7-1.4.9,1.5.9Zm4.5,4.2.5.8.5-.9Zm-9.7-3,.2,1.9,1.8-1.1Zm-.7-6.9.2,1.3,1.2-.8Zm4.5,2.7-.9.8,1.2.7Zm-3.5.4-1,.8,1.3.7Zm5.3,2.8.2,1.8,1.8-1.1Zm-.3,1.8.2,1.8,1.8-1Zm-2.9-2.5.2,1.8,1.7-1Zm5.8,5.6.2,1.9,1.7-1Zm-1-1.9.2,1.9,1.7-1.1Zm-2.4,2-1.3.7,1.4,1Zm-8.3-8.3-.9.5.9.7Z" fill="#fcd842"/>
      <path id="Path_15469" data-name="Path 15469" d="M250,113.6l-.6-.7-.5,1Zm-8.8,1.3.5-.8-1-.1Zm-1.9,4,.5.9.7-.9Zm5.5-4.3-.7.6.9.5Zm1,8.8-.8-.5-.2,1Zm.8-3.7.5.9.8-1Zm2.1-.9.9-.2-.7-.7Zm-5.9.8-.7.6.9.4Zm11.1-8.6-2.3-2.4-.8,2.5Zm2.8,3.3-2.2-2.5-.8,2.6Zm7.3,17.3-1.3.8,1.5,1Zm1.6-2.5-1.4.8,1.5,1Zm2.6,2.4-1.3.8,1.5.9Zm-1.6-.5-1.3.9,1.5.9Zm-5.7-.9.3,1.8,1.7-1.1Zm2-4.3.2,1.8,1.8-1.1Z" fill="#fcd842"/>
      <path id="Path_15470" data-name="Path 15470" d="M261.2,122.4l.1,1.8,1.9-1Zm8.5,8.9-1.6-1.9-1.1,2.5Zm-3.9,1.9.2,1.9,1.8-1.1Zm-2.9-5,.3,1.8,1.7-1Zm5.2,7.2.5,1.8,1.6-1.3Zm-16.2-19.1,1.2,1.5.9-1.9Zm5.9,7.7,1.6-.9-1.6-1.3Zm-1.7-3.5,1.7-.7-1.5-1.4Zm4.5,4.6-1.3.9,1.5.9Zm6.4,10.4-1.2,1,1.6.7Zm2.6-2.2-1.3.9,1.5.9ZM254.3,120l-1,.3.8.9Zm4.9,6.7-.5-.7-.5.9Zm-10.4-1.3.6-.7-.9-.3Zm3.9-7.2-1.5,1.2,2,.9Zm-.9,7.7-.8-.5-.2,1Z" fill="#fcd842"/>
      <path id="Path_15471" data-name="Path 15471" d="M247.5,123.8l1,.2-.2-1.2Zm-.6-7,.1.9.9-.4Zm8.7,5.6-.8.4.8.6Zm-13.8-5.7,1,.4-.1-1.2Zm-1.1-4-.1.9.9-.3Zm9,5.7-.8.2.5.8Zm12.3,4.8-1.3.9,1.4,1Z" fill="#fcd842"/>
      <path id="Path_15472" data-name="Path 15472" d="M260,122.7l-1.1,2.2,2.7.1Zm.4,4.5.6,2.3,2.1-1.7Zm-6.2-11.7.3,2.4,2.3-1.4Zm3.4,4.9-1.3.9,1.5,1Zm1.9-1.7-1.3.8,1.4,1Zm3.4,18.6.9-.3-.7-.6Z" fill="#fcd842"/>
      <path id="Path_15473" data-name="Path 15473" d="M257.6,119l.5.8.5-.9Zm3.7,9.5-.5.8h1.1Zm-1.6-10-1.9-2.7-1.4,2.7Zm3,4.1-2.1-2.8-1.9,3.3Zm2.5,3-2.1-2.7-1.8,3.4Zm2.9,3.8-2.4-3.1-1.6,3.5Zm3.8,4.4-2.2-2.5-1.7,3.5Zm-18.3-8.7.8.2-.2-1Zm3.8.3,1.5.2-.5-1.7Zm1.4,4.2,1,.2-.4-1.1Zm-7.7-6.2.9.2-.3-1Zm1.6-1.2.8.1-.2-.9Zm22.6,16.2.1,1.5,1.5-.8Zm-4.6,2,1.5-.8-1.5-1.2Zm3,2.2,1.5-.8-1.4-1.2Zm-16.1-14.4,1.3-1.1-1.7-.8Z" fill="#fcd842"/>
      <path id="Path_15474" data-name="Path 15474" d="M269,138.7l1.4-.9-1.6-1.1Zm-4.3,1.6h1l-.4-1Zm-1.4-6.2.2.8.7-.6Zm7.7,2.7-.7.4.7.5Zm-17.2-5.5,1,.1-.4-1Zm-2.8-3.2.2.8.7-.5Zm9.6,4.6-.7.4.7.5Zm-3.5,3.7.9.2-.2-1.1Zm4.8-1.3v.8l.8-.4Zm7,4.2-.8.3.6.6Zm6.8.3-.9.8,1.2.6Zm-2-1.5-.9,1.7,2.2.1Zm-1-.6-1,.6,1.1.8Zm1-1.4-1.1,1,1.5.6Z" fill="#fcd842"/>
      <path id="Path_15475" data-name="Path 15475" d="M271.2,137.2l.7.5.2-.9Zm3-.9L272,134l-1.6,3Zm2.4,2.4-2-1.9-1.1,2.9Zm2.4,2.5-2-1.8-1,2.9Zm5.9,11.2-1.1,1.1,1.6.6Zm1-2.7-1.2,1,1.6.7Zm3.2,1.7-1,1.2,1.7.5Zm-1.8-.1-1.1,1.1,1.6.7Z" fill="#fcd842"/>
      <path id="Path_15476" data-name="Path 15476" d="M273.2,143.9l.7,1.7,1.5-1.5Zm9.4,3.1.6,1.7,1.5-1.4Zm-2.4-3,.6,1.8,1.5-1.4Zm10.3,6.8-2-1.4-.5,2.8Zm-3.3,3,.7,1.7,1.5-1.6Zm-4.1-4.5.6,1.8,1.5-1.4Zm7,5.9.9,1.6,1.2-1.6Zm-12.6-10.9-1.1,1.2,1.7.4Z" fill="#fcd842"/>
      <path id="Path_15477" data-name="Path 15477" d="M289,155.6l-.9,1.3,1.8.3Zm2-2.8-1.1,1.2,1.7.5Zm-9.8-8.1-1.1,1,1.6.7Z" fill="#fcd842"/>
      <path id="Path_15478" data-name="Path 15478" d="M279.1,144.6l-.6,2.3,2.7-.4Zm-2.2-1.9.5,1,.8-.9Zm8.1,15.6.8-.5-.9-.5Zm-3.5-8.4-.2.9,1-.2Z" fill="#fcd842"/>
      <path id="Path_15479" data-name="Path 15479" d="M281.8,143.9l-2.6-2.4-1.3,3.7Zm3.1,2.4-2.7-2.2-1.1,3.7Zm3.5,3.2-3-2.6-.9,3.8Zm4.9,3.1-2.8-1.8-.7,3.9Zm4.6,3.4.6,1.4,1.2-1.2Zm2.8,2.4,1.2-1.2-1.7-.7Zm6.1,2.6,1.2-1.2-1.8-.6Zm-15-2.8,1.1-1.3-1.8-.6Z" fill="#fcd842"/>
      <path id="Path_15480" data-name="Path 15480" d="M303.9,161.8l.9-.2-.6-.9ZM279.1,151l.4.8.6-.7Zm14.1,4.8-.6.6.9.3Zm-17.1-7.6-.6.5.8.4Zm4.9,5.4.2.8.7-.5Zm19.3,6.2-.7.4.8.5Zm-1.6-2.7-.6,1,1.4.2Zm-2.4-.8-.2,1.8,2-.5Zm-1.7.7-.9.9,1.3.5Zm1-2.6-.7,1.2,1.6.2Z" fill="#fcd842"/>
      <path id="Path_15481" data-name="Path 15481" d="M293.6,156.1l.7.3v-.9Zm2.6-1.7-2.7-1.6-.8,3.4Zm3,1.6-2.5-1.3-.1,3.1Zm5.7,2.6-2.6-1.2v3.1Z" fill="#fcd842"/>
    </g>
    <g id="Group_1042" data-name="Group 1042">
      <path id="Path_15482" data-name="Path 15482" d="M199.1,146.8l-1.3-.2.4,1.4Zm3.4-1.9-1.2-.5.1,1.4Zm-5.4-1.2-1.2,1,1.6.8Zm6-2.2-1.1,1,1.6.7Z" fill="#dd6d22"/>
      <path id="Path_15483" data-name="Path 15483" d="M203.1,137.4l-.7,1.3,1.7.2Zm-1,7.5-.8,1.2,1.7.3Zm-1.9-.2-.9,1.2,1.7.3Zm1.3-2-1.1,1,1.5.7Zm-1.6,4.5-1.2.9,1.5.8Z" fill="#dd6d22"/>
      <path id="Path_15484" data-name="Path 15484" d="M200.3,147.7l-1,1.2,1.6.5Zm-.1-7.6-1.2-.6v1.4Zm-1.3,7.9-1.3.1.8,1.3Zm1.9-9.3-.8-.4-.1,1Zm-1.3,5.6.2-.7-.9.1Zm-5.1-5.4h.7l-.3-.8Zm-3.5.9-.4.8h.9Zm5.6,1.5-.8-.2.2.8Zm-5.4,4.9v-.8l-.8.4Zm5.5-5.7.6.6.4-.9Zm2.9-5-.4.6.8.1ZM203,142l-.7-.2.1.8Zm1.2-2.4-1.2-.5v1.4ZM203,138h-2l.9,2Zm2.1-7-1.5-.5.2,1.7Zm-3.8,9.2-1.4,1.4,2,.9Zm.9-3.7-1.3-.2.5,1.4Zm1.5-.6-1.2-.1.5,1.3Zm-9.5,7.6-.4.8h1Zm.7,4,.7.3V147Z" fill="#dd6d22"/>
      <path id="Path_15485" data-name="Path 15485" d="M192.8,142.6l-.7-.1.1.8Zm7-1.6H199l.3.8Zm4.5-2.8.7-2.8-3.1.6Zm-.6,4.4.5-2.8-3.1.7Zm-.6,3.3.5-2.8-3.1.7Zm-.6-13.1-1,1.1,1.6.6Zm2.5,2.1.6-2.8-3.1.6Zm.8-4,.5-2.3-2.6.4Zm.5-3.2.4-1.6-1.8.3Zm-3.7,21.5.5-2.8-3.1.7Zm-.6,3,.6-2.8-3.1.7Z" fill="#dd6d22"/>
      <path id="Path_15486" data-name="Path 15486" d="M201.5,155l.5-2.9-3.1.8ZM197,142.5l.8,1,.7-1.3Zm.4,4.2-1.1,1.1,1.6.6Zm-.3,3.1,1.3.7.2-1.7Z" fill="#dd6d22"/>
      <path id="Path_15487" data-name="Path 15487" d="M199.5,155.3l1.3.8.2-1.8Zm-1.4-.9,1.4.7.1-1.7Zm.7-2.6,1.4.7.1-1.8Zm-2.3.1-.5-.7-.5.8Zm-4,4.3.5-.6-.8-.3Zm-1.7-7.1.6.3.1-.8Zm-.1,16.8-.7.5.9.5Zm3-24.1-.6-.5-.1.8Zm-2.3,15.3.3-.7h-.8Zm6.7-3.6-1.5-.7v1.8Zm-8.1,8.1.2-.7-.8.2Zm4.2-14.2.5.8.5-.8Zm4.4-4-.5.6.7.3Zm1.3,7.2-.6-.4-.1.8Zm-2.6-20.8-.2.8,1-.2Zm5.8-.2h-.8l.4.7Zm-3.9,5.8-.2-.7-.6.5Zm6.6-10.2-1.1-.6-.1,1.4Zm.5-1.3-1-.1.4,1.1Z" fill="#dd6d22"/>
      <path id="Path_15488" data-name="Path 15488" d="M206.8,125.7l.5-2.3-1.4.3Zm-1.8,1.1-1,.7,1.2.6Zm2.4-3.9.4-1.6-1.2.5Zm-4.5-1.2-.3.6h.8Zm2.8,0-.6-.1.2.7Zm1.9-1.2H207l.2.6Zm.2-2.1h-.6l.3.6Zm-4.4,8.5-.1-.5-.6.3Zm-10.7,23.4v.9l.9-.5Zm5.7-1.8-.7.2.5.6Zm-2.1,7.1-.4-.6-.5.6Zm3.7-7.1-1.3,1.5,2.2.7Zm1.6-.9-1.2.9,1.5.8Zm-3.8,3.6v1.3l1.3-.6Zm-5.4-5.4.2.7.6-.5Zm-.2,17.6v1l1-.4Zm2.1-19.5-.8.2.6.7Zm-2.9,7.7-.4-.8-.6.8Zm-4.9,9.5v-.7l-.8.3Zm1.7-3.5-.7-.2.2.8Zm-2,6.4.7.3v-.8Zm4.8-.7-.6-.5-.2.8Zm-2.9,1.9.1.9.9-.5Zm-.2-4.5.1.7.7-.5Zm4.5-1.2.2.9.9-.7Zm2.4,9.2.2,1,.9-.7Zm2.7-1.8.1,1,1-.6Zm-10.7-.4-.4-.7-.6.7ZM200,156.2l-.5-1.2-.9,1.1Zm-.5,3.4-.5-1.2-1,1.1Z" fill="#dd6d22"/>
      <path id="Path_15489" data-name="Path 15489" d="M200.1,158.3l-.5-1.2-1,1.1Zm-1.5,1,1.7,1.1.3-2.3Z" fill="#dd6d22"/>
      <path id="Path_15490" data-name="Path 15490" d="M199.1,157.3l1.7,1.1.4-2.3Zm-3.1,6-1,1.1,1.6.5Zm-.3,4.3.2,1.5,1.5-1Zm1.5-5.9-.9,1.3,1.6.3Zm-1.8-2.3-.6-1.1-.9,1.2Zm2.2,2.1-.6-1.1-.9,1.1Zm1.7.1-1.2-.4.2,1.5Zm-3.7-7,.1.8.7-.5Z" fill="#dd6d22"/>
      <path id="Path_15491" data-name="Path 15491" d="M199.8,163.1l.6-2.7-3.2.6Zm-2.3-5.9-.8.9,1.3.4Zm-3.7-.8,1.4.3-.3-1.5Zm1-2.2,1.3.4L196,153Zm-1.2-.8.5.6.4-.8Zm3.2-4.2-.4.6.7.1Zm2.2,6.3-.6-.3v.8Zm-6.8-2.8.5.6.5-.8Zm3.2-4.2-.4.6.7.1Zm2.2,6.3-.6-.3.1.8Zm-1.7,6.4h-1l.5,1.1Zm-9.4,10.4h-1l.5,1Zm10.3-15.3-1.5.6,1.2,1.3Zm-2.9,1.3-1-.2.2,1.1Zm-4.4,12,.5-.6-.8-.3Zm-.5-2,.3-.6h-.9Z" fill="#dd6d22"/>
      <path id="Path_15492" data-name="Path 15492" d="M193.9,166.1l-.4-.6-.5.7Zm2.3,1.1-.9-1.3-.9,1.5ZM193,170l-.7-1.1-.8,1.2Zm-1.6-3,1.4.3-.3-1.5Zm1-2.3,1.3.5-.1-1.6Zm2,2.2-1.5.6,1.2,1.3Zm-2.9,1.3-1-.3.2,1.2Zm7.8-2.4-1.2-.2.3,1.3Zm-1.8-1.4v.7l.7-.3Zm2,.8.3-1.9-2.1.3Zm-1-7.5.3-2.3-2.5.7Zm-.3,3.1.2-2.3-2.4.8Zm-21.5,18-.9-.1.4.9Zm6.5-12.3.6-.3-.6-.6Zm-3.9,2.7.6-.5-.8-.3Zm.6,2.8-.7.7,1.1.4Zm8.1,1.5.3-1.2-1.4.2Zm1.2-.6.4-1.2-1.4.2Z" fill="#dd6d22"/>
      <path id="Path_15493" data-name="Path 15493" d="M187.9,172.6l.5,1.9,1.8-1.4ZM190,171l.4,1.9,1.8-1.4Zm-7,3.2-1.5.2.9,1.5Zm1.8-.5-1.4.5,1.1,1.3Zm.1-2.9.2-1.2-1.4.3Zm1.7,4.2-.7-1.1-.8,1.3Z" fill="#dd6d22"/>
      <path id="Path_15494" data-name="Path 15494" d="M186.1,176.4l2.1-1.7-2.8-1.5Zm3.8-6.5-1.2.3.8,1.1Zm-3.5-.4.8,1.1.8-1.3Zm-2.2,3.1-.8-.7-.3,1.1Zm10.3-10.9-1.5-.5.1,1.8Zm-9.7,6.8-.6-.8-.5,1Zm-.9,9.7-.7-.8-.6,1.1Zm-.5-2.1-.4.5.7.2Zm1.1,1.8,1.5-1.3-1.9-1Zm-6.9,3.2-.9.3.7.9Zm2.2-2.8.3-.7h-.9Zm1.4-2-1,.1.6,1Zm-6.3,12.9-.9.2.7.8Zm-1-1.3.4-.7-.9-.1Zm-.1,4.1-.4.9h1.1Zm5.8-9.5-.1-1.3-1.2.6Zm1-1-.1-1.3-1.2.7Z" fill="#dd6d22"/>
      <path id="Path_15495" data-name="Path 15495" d="M179.3,181.6l1,1.7,1.3-1.9Zm1.9-2.4.9,1.7,1.4-1.8Zm-4.5,11.5-1.5.1.8,1.5Zm0-7-1.2.9,1.4.8ZM174,196l-.2-1.2-1.2.8Zm4.7-11.7-1-.8-.3,1.5Z" fill="#dd6d22"/>
      <path id="Path_15496" data-name="Path 15496" d="M178.7,185.8l1.5-2.3-2-.5Zm1.6-7.3-1,.6,1.1.8Zm-2.3-2,1.1.8.3-1.5Zm-2.3,6.3-1-.4.1,1.2Zm-3,15.3-.8-.5-.2,1.1Zm4.6-9.9-1-.6-.2,1.3Zm-1.2-1.9-.3.7h.8Zm1.8,1.8.8-1.8-2.1-.2Zm15-17.1,1.9-1.3-2.2-1.3Zm3.6-3.1,1.6-1.6-2.3-1Z" fill="#dd6d22"/>
    </g>
    <g id="Group_1043" data-name="Group 1043">
      <path id="Path_15497" data-name="Path 15497" d="M176.3,129.3l.6.9.7-1.1Zm2.8-1.8.5-.4-.7-.4Zm-4.3.8,1.2.6v-1.5Zm2.8,2.1,1.2-.2L178,129Zm-2.2,1,1.2-.1-.7-1.2Zm3-2.3,1.2-.2-.7-1.2Zm5.3,6.9.5.6.3-.9Zm-5.5-10.3-2,1.4,2.3,1.4Zm11.4-3.3.5.9.8-.9Zm-1.4-1.5.5,1,.8-.9Zm1.8-1.4.5,1,.8-1Zm-.5,1,.5,1,.8-.9Zm-1.2,3.9h1.3L189,123Zm-2.6-1.8,1.3-.1-.7-1.3Zm-2.7,1.1h1.3l-.6-1.3Zm6.7-5.2-1.4.8,1.6,1.1Zm1.3,2.8,1.3.1-.6-1.4Zm-3.6,1.4,1.3-.1-.6-1.2Zm5-2.8,1.3-.1-.7-1.3Zm-11.7,9.3,1.3-.2-.8-1.2Zm3.5-2.4-.5-1.1-.9,1.1Zm-1.7.7-.6-1.2-.9,1.1Zm2.6-3.4.5,1,.7-1.1Zm7.2-3.6.5,1,.7-1Zm-.9-1.9.4,1,.8-.9Zm-9.6,9.3.3.7.6-.6Zm4.2-2.6-.6.3.6.4Zm-.1,6.2-.5-.5-.2.7Zm-4.9-2,.9,1.1.6-1.4Zm5.4.5-.3.6.7.1Zm2-3.1-.2.7.8-.1Zm6.7-3.5-.5.5.8.3Z" fill="#fcd842"/>
      <path id="Path_15498" data-name="Path 15498" d="M199.4,125.7l-.6-.3v.8Zm-7.2,2-.6-.3-.1.7Zm1.8,1,.1-.6-.7.1Zm1.7-1.1-.6-.1.3.7Zm-.3,3h-.6l.2.6ZM183.9,123l.5,1,.8-1Z" fill="#fcd842"/>
      <path id="Path_15499" data-name="Path 15499" d="M183.4,124.4l1.4.9.3-1.9Zm2.8,0,1.6-.1-.8-1.7Zm-9.8,5.1,1.7-.3-1.1-1.6Zm5.6-4.3.6.9.7-1Z" fill="#fcd842"/>
      <path id="Path_15500" data-name="Path 15500" d="M180.9,124.4l.6.9.6-1Zm11.9-.7-.1-.7-.6.4Zm-11.6,2.1.4-.4-.6-.4Zm6-1.8.5.4.1-.7Zm-8.6,3.3,1.3-.2-.8-1.2Z" fill="#fcd842"/>
      <path id="Path_15501" data-name="Path 15501" d="M180.4,124.3l-2,1.4,2.3,1.4Zm2.7-1.7L181,124l2.3,1.4Zm2.5-1.6-2,1.3,2.2,1.5Zm2.7-1.7-2.3,1.5,2.4,1.3Zm3.4-1.9-2,1.1,2.1,1.7Zm-6,11.6.1-.6-.7.1Zm-.5-1.8.2-1-1.2.2Zm3.1-1.5.2-.7-.8.1Zm-3.6,4.8.1-.6-.7.2Zm12.2-10.6v.8l.8-.4Zm4.8-6.1-.3.7h.9Zm3.2.2-.6-.1.2.7Zm2.5-3-.7-.2.2.7Zm2.2-2.3-.6-.1.1.7ZM199.8,120l-.1-.6-.6.3Zm-.6-2.8-.1-.6-.6.3Z" fill="#fcd842"/>
      <path id="Path_15502" data-name="Path 15502" d="M200,114.4l-.1,1.4,1.4-.6Zm3.5,4.1-.6.2.4.6Zm4.9-8.4-.6.2.4.5Zm1.9-1.9-.6.1.4.6Zm-8.4,9.5.5-.4-.6-.3Zm0-1.9.5-.4-.6-.3Zm-5.4,6.8.5-.3-.7-.4Zm-11.2,6.3.1-.6-.6.2Zm14.6-16.2.2.7.6-.6Zm-1.9,2.7h1l-.4-1.1Zm-2.2.4,1,.1-.4-1.1Zm5-3.7.6.5.3-.9Zm-3.7,6.6-.4-1.1-.9,1Zm-2.1.9-.5-1.1-.9,1Zm.2,3.2.2-.7-.8.2Zm-4.4.1.6-.1-.3-.5Z" fill="#fcd842"/>
      <path id="Path_15503" data-name="Path 15503" d="M193.8,118.1l.1.6.5-.5Zm2.7-2.4.5.7.5-.8Z" fill="#fcd842"/>
      <path id="Path_15504" data-name="Path 15504" d="M195.6,116.7l1.2.7.2-1.5Zm-.4.4.4.8.7-.7Zm-1.6-.6.5.9.7-1Zm.5,1.6.5-.3-.6-.4Z" fill="#fcd842"/>
      <path id="Path_15505" data-name="Path 15505" d="M193.7,116.2l-2,1.1,1.9,1.7Zm2-1.2-1.7,1,1.7,1.3Zm1.9-1.2-1.5.9,1.6,1.2Zm5.6-2.9-1.4.7,1.3,1.1Zm-3.7,1.9-1.5.8,1.5,1.1Zm6.4-2.8-.2.6h.7Zm-1.4,2.1-.1,1.1,1.2-.5Zm3.4-3.1v1.1l1.1-.5Z" fill="#fcd842"/>
      <path id="Path_15506" data-name="Path 15506" d="M203.6,112l.9.1-.4-.9Zm1.5-2-1.2.6,1.1,1Zm2.3-1-.9.4.8.7Zm-51.1,35.1.7.9.6-1.1Zm2.6-2,.5-.5-.7-.3Zm-4.3,1.1,1.2.5-.1-1.5Zm3.1,1.9,1.2-.3-.9-1.2Zm1.5.6,1.2-.2-.8-1.2Zm-.8-2,1.2-.3-.8-1.1Zm5.8,6.5.6.5.2-.9Zm-6.2-9.8-1.9,1.6,2.4,1.2Zm11-4.3.6.9.7-1Zm-1.5-1.3.5.9.8-1Zm1.7-1.6.5.9.7-1Zm-.4,1.1.5.9.7-1Zm-.9,3.9,1.3-.1-.7-1.3Zm-2.8-1.6,1.3-.1-.7-1.3Zm-2.6,1.3,1.3-.2-.8-1.2Zm6.3-5.7-1.4,1,1.7.9Zm1.5,2.8,1.3-.1-.7-1.3Zm-3.5,1.6,1.3-.1-.7-1.3Zm4.8-3.2,1.2-.2-.7-1.2Zm-10.9,10.3,1.2-.3-.8-1.2ZM164,141l-.6-1.1-.8,1.2Zm-1.7.8-.6-1.1-.9,1.1Zm2.3-3.6.7.9.6-1Zm6.9-4.2.6,1,.7-1.1Zm-1-1.8.5,1,.7-1Zm-8.8,10,.3.7.6-.6Zm3.9-2.9-.5.4.7.3Zm.4,6.2-.5-.4-.1.7Zm-5-1.5,1,.9.5-1.4Z" fill="#fcd842"/>
      <path id="Path_15507" data-name="Path 15507" d="M166.5,144l-.3.6h.7Zm1.7-3.3-.2.8.9-.2Zm6.4-4-.5.6.8.2Zm4.4,1.9-.5-.2v.7Zm-7,2.6-.5-.2-.1.7Zm1.9.8v-.6l-.6.2Zm1.7-1.2h-.7l.3.6Zm-.1,3h-.6l.3.7Zm4.1-8.2.5.3.1-.7Zm-1.7-1.2-.2.6.7-.1Zm.2-2.7-.3.6h.7Zm-2.1,3.6.6.1-.1-.7Zm-1.3-1.6,1.2.2-.3-1.2Zm-5.1,5.7,1.2.2-.3-1.3Zm7.1-7.1.6.1-.1-.7ZM163.3,137l.6,1,.7-1Z" fill="#fcd842"/>
      <path id="Path_15508" data-name="Path 15508" d="M163,138.6l1.5.8.1-1.9Zm2.7-.2,1.7-.2-1-1.7Zm-9.9,5.7,1.5-.6-.8-1Zm5.9-4.6.7.9.6-1Zm-1.2-.6.6.9.6-1.1Zm11.8-1.8-.1-.6-.6.4Z" fill="#fcd842"/>
      <path id="Path_15509" data-name="Path 15509" d="M160.9,140.2l.4-.4-.6-.3Zm5.8-2.3.6.4v-.8Zm-8.3,4,1.3-.3-.9-1.1Z" fill="#fcd842"/>
      <path id="Path_15510" data-name="Path 15510" d="M159.9,138.7l-1.8,1.6,2.5,1.1Zm2.6-2-2,1.5,2.4,1.3Zm2.4-1.8-2,1.5,2.4,1.3Zm2.5-1.9-2.2,1.7,2.5,1.1Zm3.1-2.2-1.9,1.4,2.3,1.4ZM165.6,143l.1-.6-.6.2Zm-.6-1.7.1-1.1-1.1.4Zm3-1.8.1-.7-.8.2Z" fill="#fcd842"/>
      <path id="Path_15511" data-name="Path 15511" d="M164.8,144.6V144l-.6.3Zm.5-1.6v-.6l-.6.2Zm8.8-10.1-.5-1.1-.8,1.1Zm.6,3.2v-.7l-.7.2Zm-4.5.4.6-.1-.3-.5Zm2.6-5,.2.5.4-.4Zm1.4-1.1.4.8.6-.8Zm-1.7-.5.6.8.6-.9Z" fill="#fcd842"/>
      <path id="Path_15512" data-name="Path 15512" d="M173.2,131.5l.4-.4-.6-.3Zm-.7-2-1.8,1.3,1.9,1.4Zm1.9-1.2-1.6,1.1,1.8,1.1Zm-34.7,34.6.9.6.3-1.2Zm2.1-2.6.4-.6-.7-.1Zm-3.7,2.1,1.2.2-.4-1.4Zm3.2,1.1,1.1-.5-1.1-1Zm2.2-.6,1.2-.6-1.1-.9Zm-1.9-.9,1.2-.5-1.1-1Zm3,4.4.7.4v-.9Zm-4.1-7.5-1.5,1.9,2.6.7Zm9.9-6.8.7.9.5-1.1Zm-1.7-1,.7.8.5-1.1Zm1.3-1.9.7.9.5-1.1Zm-.2,1.2.7.9.5-1.2Zm-.1,4,1.2-.3L150,153Zm-3.1-.8,1.2-.5-1-1Zm-2.3,1.8,1.2-.5-1-1Zm5-7.1-1.2,1.2,1.9.6Zm2.1,2.5,1.3-.3-.9-1.1Zm-3.1,2.4,1.2-.5-1-1Zm4.1-4.2,1.2-.4-.9-1.1Zm-8.5,12.4,1.1-.5-1.1-1Zm2.6-3.3-.8-.9-.6,1.3Zm-1.4,1.1-.9-.9-.6,1.3Zm1.4-4,.8.8.3-1.2Zm6-5.5.7.8.5-1.1Zm-1.4-1.6.7.8.5-1.1Zm-6.6,11.7.5.6.4-.7Zm3.2-3.7-.4.5.7.2Zm1.8,5.9-.6-.3v.7Zm-1.6-4.9,1.2.6.1-1.5Z" fill="#fcd842"/>
      <path id="Path_15513" data-name="Path 15513" d="M149.3,160.4l-.2.6.7-.1Zm1.1-3.6v.8l.8-.3Zm5.5-5.1-.3.7h.8Zm3.1,3-.6-.2.1.8Zm-4.7,2-.6-.2.1.7Zm2.9-2.1-.1-.6-.6.3Zm-3.9,5-.7.2.5.6Zm4.8-1-.6.1.4.6Zm2.5-8.9.6.3.1-.7Zm-1.8-.9-.1.7.7-.2Zm-.3-2.6-.1.6.7-.1Zm-1.4,3.9.6-.1-.3-.6Zm-1.5-1.3h1.2l-.5-1.2Zm.3-1.7,1-.7-1.2-.7Zm-4.3,7.2h1.2l-.5-1.2Zm5.7-7.3h.6l-.3-.6Zm-12.4,7.4.8.8.4-1.2Zm.1,1.6,1.6.4-.3-1.8Zm2.6-.9,1.6-.6-1.4-1.3Zm-5.5,6.4,1.5-.7-1.4-1.2Zm1.8-4.3.9.7.3-1.2Zm-1.3-.4.8.7.3-1.2Z" fill="#fcd842"/>
      <path id="Path_15514" data-name="Path 15514" d="M153.8,152.6l-.2-.6-.5.5ZM143.3,158l.3-.5-.7-.1Zm5.2-3.7.5.3v-.7Zm-7.2,6,1.1-.6-1-.9Zm.6-3.7-1.4,2,2.7.5Zm1.9-2.4-1.5,1.9,2.6.7Zm2.1-2.3-1.5,1.9,2.6.7Zm2.1-2.3-1.7,2.1,2.6.5Zm2.9-2.9-1.6,1.7,2.5,1Zm-2.4,13v-.6l-.6.3Zm-1-1.6-.1-1-1,.6Zm2.5-2.4V155l-.8.3Z" fill="#fcd842"/>
      <path id="Path_15515" data-name="Path 15515" d="M146.3,163.4v-.6l-.6.4Zm1.9-3.7-.1-.6-.5.4Zm-6.6,13.8.7.4.1-.9ZM130.5,183l.7.4v-.9Zm3.5-1.2.7.4v-.9Zm5.6-12.5.4.6.5-.7Zm3.1-3.7-.4.5.7.2Zm1.9,5.9-.6-.3v.7Zm-13.4,10.6.5.5.4-.7Zm3.2-3.8-.4.5.7.2Zm3.2.6-.4.5.7.2Zm-5.5,6-.4.5.7.2Zm-.3,2.7-.4.5.7.2Zm-1.3-1-.4.5.7.2Zm-1.2,1.7-.4.5.7.2Zm6.9-4.1-.6-.2v.7Zm-5.4.3-.6-.2v.7Zm13.5-14.6-.1.6.7-.1Zm4-.8-.6.2.4.6Zm-4.7.1-.1-.6-.6.3Z" fill="#fcd842"/>
      <path id="Path_15516" data-name="Path 15516" d="M143.3,169.2l-.2-.6-.5.4ZM154.8,148l-.7-.9-.6,1.2Zm1.1,3.1v-.7l-.7.3Zm-4.2,1.2.5-.2-.4-.4Zm1.6-5.3.3.4.3-.5Zm1.1-1.4.6.7.4-.9Zm-1.7-.2.7.7.4-1Zm.9,1.4.4-.4-.7-.2Z" fill="#fcd842"/>
      <path id="Path_15517" data-name="Path 15517" d="M152.6,145l-1.6,1.6,2.2,1.1Zm1.7-1.5-1.4,1.3,2,.9ZM136.8,164l1.3.1-.6-1.4Zm-1.2,9.8.9.6.1-1.2Zm-2-.4.9.5.2-1.2Zm.7-2.2.9.6.2-1.3Zm.2,1.1.9.6.1-1.2Zm1,3.9,1.1-.7-1.2-.8Zm-2.9.3,1-.8-1.3-.6Zm-1.5,2.5,1-.8-1.3-.7Zm2.2-8.4-.6,1.6,1.9-.1Zm2.8,1.6,1.1-.7-1.2-.8Zm-2.3,3.2,1-.8-1.2-.6Zm2.7-5.2,1-.8-1.2-.7Zm.3.6.9.6.1-1.3Zm-1.8-1.1.9.6.1-1.2Z" fill="#fcd842"/>
      <path id="Path_15518" data-name="Path 15518" d="M137.4,175.5l1.1-.4-.9-1Zm-5.2,4.8,1.2-.4-.9-1Zm-3.2,3.5,1.2-.4-.9-1Zm-.4,2.4.8-.3-.6-.7Zm5.2-8.7,1.3-1-1.7-.9Zm5.1-4.3-.4-.5-.3.6Z" fill="#fcd842"/>
      <path id="Path_15519" data-name="Path 15519" d="M134.4,176.5h.6l-.2-.6Zm-3-1.3-.8,2.3,2.7-.2Zm1.1-2.9-.9,2.5,2.7-.3Zm-2.4,7.1-.4,1.6,1.7-.3Zm11-15.4,1,.6.1-1.2Zm-1.9-.4.9.6.1-1.2Zm1.9,2.8,1.1-.7-1.2-.8Zm-1.7-.7,1-.8-1.2-.7Z" fill="#fcd842"/>
      <path id="Path_15520" data-name="Path 15520" d="M141,168.3l1.1-.4-.8-1Zm-2.2-.1,1.3-1-1.6-.9Zm1.2-1.5.6.1-.3-.7Zm-2-4.4-1,2.6,2.7-.3Zm-3.6,6.2-1.1,2,2.7.2Zm4.1,0-1-.6-.2,1.3Zm2,2.6-.3-.6-.5.5Zm-3.7,2.5.5-.4-.6-.3Zm-.1-5.6.4.3.2-.6Zm.7-1.6.7.4.2-1Zm-1.7.3.9.5V166Zm1.3,1.1.2-.6-.7.1Z" fill="#fcd842"/>
      <path id="Path_15521" data-name="Path 15521" d="M135.5,166.4l-1.1,2,2.5.3Zm1.1-2-.9,1.7,2.1.1Z" fill="#fcd842"/>
    </g>
    <g id="Group_1044" data-name="Group 1044">
      <path id="Path_15522" data-name="Path 15522" d="M306.1,208.1l.1-1.1-1.1.4Zm-3.4-1-.7-.1.3.7Zm4,2.6-.5-1.1-1,1.1Zm-.8-3.3-1.1-.6-.2,1.4Zm2.4.3-1.1-.6-.1,1.4Zm-3.9-.2-1-.7-.3,1.4Zm.9-8.7V197l-.8.5Zm-3.1,11.1,2.4.6-.5-2.7ZM292,202.5l.5-1h-1.3Zm-.2,2,.5-1h-1.2Zm-2.3-.5.4-1h-1.2Zm1.1-.3.5-1h-1.3Zm3.8-1.5-.9-1-.6,1.3Zm.4,3.2-.9-1-.6,1.4Zm2.4,1.3-.8-.9-.6,1.3Zm-8.3-1.8,1.6.5-.2-1.9Zm1.4-2.8-.8-1-.7,1.3Zm3.4,1.9-.9-1-.5,1.3Zm-5.5-2.1-.8-1-.6,1.3Zm14.5,2.8-1-.7-.3,1.4Zm-4.3-.9L298,205l1.5-.1Zm1.8.9-.4,1.2,1.4-.1Zm-4,.2.3-1-1.2.1Zm-7.4-3.3.4-1-1.2.1Z" fill="#e06c1e"/>
      <path id="Path_15523" data-name="Path 15523" d="M287.9,203.5l.5-.9h-1.2Zm13.1,1.4.3-.7h-.9Zm-4.8-1,.6.1-.2-.7Zm4.3-4.4v.6l.7-.3Zm2.2,4.8.1-1.4-1.4.6Zm-3.5-4.2.6-.2-.4-.5Zm-3.1.5.7-.3-.6-.6Zm-7-3h.8l-.4-.7Zm-1-4.8.1.7.6-.5Zm6.1,4.4.2.6.6-.4Zm-.2-2.1-.6.3.6.4Zm-2.1-.6.4.5.4-.6Zm2.4-1.6.4.5.3-.7Zm1.8,13.7.4-1h-1.2Z" fill="#e06c1e"/>
      <path id="Path_15524" data-name="Path 15524" d="M297.5,206l-.3-1.6-1.6,1Zm-1.9-2.1-1.1-1.2-.8,1.8Zm10.6,4-1.5-.9-.2,1.9Zm-7.4-1.3.3-1.1-1.2.2Zm.3,1.3.3-1-1.2.2Zm-8.2-8.7-.5.4.7.2Z" fill="#e06c1e"/>
      <path id="Path_15525" data-name="Path 15525" d="M299.9,206.8l-.6-.1.2.7Zm-5.1-3.5v-.6l-.6.3Zm8.1,4.2-1.1-.7-.2,1.4Z" fill="#e06c1e"/>
      <path id="Path_15526" data-name="Path 15526" d="M299.5,208.3l2.4.6-.5-2.7Zm-3.2-.7,2.4.5-.6-2.6Zm-2.9-1,2.4.6-.4-2.6Zm-2.8-1.1,2.5,1-.3-2.7Zm-3.8-1.4,2.2.8-.2-2.7Zm12.1-2.8-.5.4.6.3Zm-.9,1.6-.9.6,1.1.6Zm-2.8-1.4-.6.3.6.5Zm5.6-.6-.5.4.6.3Zm-15.4-2.6.6-.5-.8-.4Zm-7.6-.5.8-.2-.5-.7Zm-1.8-2.6.3.5.4-.5Zm-3.7-.2.3.6.5-.6Zm-3.1-.3.3.5.4-.5Zm14.5,1.3-.4.4.6.3Zm-1.5,1.9-.5.4.7.3Z" fill="#e06c1e"/>
      <path id="Path_15527" data-name="Path 15527" d="M279.5,198.9l1.1-.7-1.3-.8Zm1.2-5.3.5.4.2-.6Zm-9.7,1.1.5.4.2-.7Zm-2.7-.3.5.4.2-.7Zm12.7,1-.6-.2.1.7Zm-1.7,1.1-.6-.2.1.7Zm8.5.4-.6-.1.1.7Zm11.3,4.7-.4.4.5.3Zm-21-1.7.4-.6-.8-.1Zm3.3.1-.5-.9-.6,1Zm1.5,1.7-.6-.8-.6,1Zm-5.8-2.1v-.9l-.9.4Zm7.2-.7-.5,1,1.3.1Zm2.1,1.1-.6,1,1.3.1Zm2.2-2.1-.6.3.6.5Zm2.9,3.3-.4-.4-.2.6Zm-5.5.9.3-.5-.6-.1Zm-3.4-1.2.3-.8-1,.1Z" fill="#e06c1e"/>
      <path id="Path_15528" data-name="Path 15528" d="M283.7,201.3l-.1-1.4-1.3.8Zm.6,0,.4-.8h-1Zm.5,1.7.4-1-1.2.1Zm.9-1.4-.5-.2.1.7Z" fill="#e06c1e"/>
      <path id="Path_15529" data-name="Path 15529" d="M284.5,203.1l2.1.8.2-2.4Zm-2.1-.8,1.8.7-.1-2.1Zm-2-1.2,1.6.8.1-2Zm-5.6-2.8,1.4.7.1-1.7Zm3.7,2,1.5.7v-1.8Zm-6-3.6.6-.1-.4-.6Zm2.5-.1.9-.7-1.1-.6Zm-4.6-.8.9-.6-1.1-.6Z" fill="#e06c1e"/>
      <path id="Path_15530" data-name="Path 15530" d="M275.5,197.3l-.5-.7-.5.8Zm-2.5.1,1.2.6.1-1.5Zm-2.2-1.2.9.4v-1.1Zm45.4,10.2.1-1-1.1.4Zm.6,2,.1-1.1-1.1.5Zm-2.2.5v-1.1l-1.1.4Zm.9-.8.1-1.1-1.2.5Zm2.7-3.1-1.2-.4.1,1.4Zm1.8,2.7-1.2-.5.1,1.5Zm3-.5-1.3-.3.3,1.4Zm-8.6,2.7,1.7-.2-1-1.6Zm.2-3.2-1.1-.6-.1,1.5Zm3.8.2-1.2-.4.1,1.4Zm-5.9.5-1.1-.6-.1,1.4Zm11.2-4.4.4,1.2,1-.9Zm-2.6,3.1-.3-1.1-.9.8Zm-8.2.7.1-1-1.1.4Zm-.1,2.2.1-1.1-1.2.4Zm8.7-9,.4-.4-.6-.3Zm-2.5,2.6.5-.6-.9-.2Zm-7.1.4.7-.3-.5-.6Zm-2.6-4.2.4.5.4-.6Zm6.5,1.7.4.5.3-.6Zm-.5-1.7-.4.5.7.2Zm-2.1.2.5.3.1-.7Zm1.6-2.5.6.3.1-.7Zm-7.3,4.6-.1-.6-.6.5Zm.7,1.7.5-.3-.6-.4Zm-1.9,2.3.5-.4-.5-.4Zm3.9-1.7-.4-.5-.3.6Zm.1,1.9-.8-.9-.6,1.2Zm6.9-2.1-1-.7-.3,1.3Z" fill="#e06c1e"/>
      <path id="Path_15531" data-name="Path 15531" d="M307.7,205.4l-.4-.4-.3.6Zm14.2,2.3-.1-1.1-1.1.7Zm.9-1.4-1.1-1.3-.8,1.7Zm-2.7-.8-1.6-.3.3,1.8Zm4.3-.2-.4-1-.9.9Zm1.8.8-.5-1-.8.9Z" fill="#e06c1e"/>
      <path id="Path_15532" data-name="Path 15532" d="M314.1,203.8l-.3.6h.7Zm11.3,1-.6.4.6.4Zm-6.3,1-.3-.5-.4.6Zm4,2.1,2.2-1.1-2.1-1.7Zm-3.4,1.2,2.3-.7-1.7-2Zm-3.3.8,2.7-.5-1.7-2.1Zm-4.2.2,2.3-.1-1.2-2.5Zm9.7-8.8-.3.5h.7Z" fill="#e06c1e"/>
      <path id="Path_15533" data-name="Path 15533" d="M321.8,203.1l-.4.9,1.2.1Zm-3.2.7-.3.6.8.1Zm3.6-2.4-.2.6.6-.1Zm-12.1,5-.1,1.1,1.3-.4Zm1.4-2.9-.5.5.7.2Zm3.9,2-.5-.3v.7Zm-4.8,2.8.1-.5-.6.1Zm-2,0,.2-.9-1,.3Zm1,1.4.1-1-1.1.4Zm.5-1.6h-.6l.3.6Z" fill="#e06c1e"/>
      <path id="Path_15534" data-name="Path 15534" d="M309.6,210h2.2l-.8-2.3Zm-2.5-.2,2,.1-.7-2Zm17.4-16.3-.7-.4v.9Zm10.6-9.9-.7-.4v.9Zm-3.4,1.1-.8-.3.1.9Zm-4.9,12.8-.5-.5-.4.7Zm-2.9,3.9.3-.5-.7-.1Zm-2.2-5.8.6.3v-.7Zm12.8-11.3-.5-.5-.4.7Zm-3,4,.4-.5-.7-.2Zm-3.2-.4.3-.5-.7-.2Zm5.1-6.3.3-.6-.7-.1Zm.1-2.8.4-.5-.7-.2Zm1.4,1.1.3-.5-.7-.1Zm1-1.7.4-.5-.7-.2Zm-6.5,4.3.6.2-.1-.7Zm5.2-.4.6.2v-.7ZM322,197.2l.2-.6-.7.1Zm.8.7.1.6.6-.4Z" fill="#e06c1e"/>
      <path id="Path_15535" data-name="Path 15535" d="M323.1,197.8l.2.6.5-.4Zm5.5,6.1-1.2-.3.4,1.2Zm2-11.1-1-.5-.1,1.2Zm2,.4-1-.6-.1,1.3Zm-.6,2.2-1-.5v1.2Zm-.3-1.2-.9-.5-.1,1.2Zm-1.3-3.8-1,.8,1.3.7Zm3-.5-1,.9,1.4.6Zm1.4-2.5-1,.9,1.4.5Zm-1.7,8.6.5-1.6-1.9.1Zm-3-1.5-1.1.7,1.3.7Zm2.1-3.4-1,.9,1.3.6Zm-2.3,5.4-1,.8,1.2.6Zm-.4-.6-.9-.5-.1,1.2Zm1.9,1-1-.6v1.3Zm-2.7-5.7-1.2.5,1,.9Z" fill="#e06c1e"/>
      <path id="Path_15536" data-name="Path 15536" d="M333.5,186.1l-1.1.5.9.9Zm3-3.4-1.2.4,1,1Zm.2-2.4-.8.3.7.7Zm-4.6,8.7-1.2,1.2,1.7.7Z" fill="#e06c1e"/>
      <path id="Path_15537" data-name="Path 15537" d="M327.3,193.6l.4.5.2-.6Zm4.3-3.5H331l.3.6Zm3,1.1.7-2.3-2.7.3Zm-.8,3.1.7-2.6-2.6.5Zm1.8-7.1.4-1.7-1.7.4Zm-10.2,13.3-1,.8,1.3.7Zm.8,1.4-1.1.7,1.2.8Zm-.8-3.2-1.1.4,1,1Z" fill="#e06c1e"/>
      <path id="Path_15538" data-name="Path 15538" d="M327.6,198.6l-1.2,1.1,1.7.8Zm-1,1.5h-.7l.3.7Zm.3,5.5,1.6-2.6-2.7-.1Zm5.2-7.4.9-2.1h-2.7Zm-4.2,0,1,.6.2-1.3Zm-2.1-2.4.3.6.5-.5Zm3.5-2.7-.4.4.6.3Zm.5,5.6-.5-.3-.1.6Zm-.6,1.7-.8-.4-.1.9Zm1.6-.5-.9-.4.1,1.1Z" fill="#e06c1e"/>
      <path id="Path_15539" data-name="Path 15539" d="M331.1,200.6l-1.4-.2.5,1.5Zm-1.6-1.7-.2.6.7-.1Zm1.5,1.5.9-2-2.4-.2Zm-2.1,3.1,1.1-1.6-2.1-.4Z" fill="#e06c1e"/>
    </g>
  </g>
</svg>
