<svg xmlns="http://www.w3.org/2000/svg" xmlns:xlink="http://www.w3.org/1999/xlink" width="215.748" height="141.713" viewBox="0 0 215.748 141.713">
  <defs>
    <linearGradient id="linear-gradient" x1="0.336" y1="0.525" x2="1.018" y2="0.347" gradientUnits="objectBoundingBox">
      <stop offset="0" stop-color="#cc7a5e" stop-opacity="0"/>
      <stop offset="0.924" stop-color="#aa5f4b"/>
    </linearGradient>
    <linearGradient id="linear-gradient-2" x1="0.745" y1="0.733" x2="0.391" y2="0.098" gradientUnits="objectBoundingBox">
      <stop offset="0" stop-color="#ed89ae"/>
      <stop offset="1" stop-color="#f4c0ca"/>
    </linearGradient>
    <linearGradient id="linear-gradient-3" x1="0.465" y1="0.989" x2="0.534" y2="0.009" gradientUnits="objectBoundingBox">
      <stop offset="0.007" stop-color="#ff9f00"/>
      <stop offset="0.983" stop-color="#ffd86b"/>
    </linearGradient>
    <linearGradient id="linear-gradient-4" x1="0.674" y1="0.51" x2="-0.078" y2="0.493" xlink:href="#linear-gradient-2"/>
    <linearGradient id="linear-gradient-5" x1="0.273" y1="0.575" x2="1.235" y2="0.268" gradientUnits="objectBoundingBox">
      <stop offset="0.01" stop-color="#bc547a" stop-opacity="0"/>
      <stop offset="0.985" stop-color="#bc547a"/>
    </linearGradient>
    <linearGradient id="linear-gradient-6" x1="0.516" y1="0.514" x2="0.576" y2="1.048" gradientUnits="objectBoundingBox">
      <stop offset="0.005" stop-color="#cc7a5e" stop-opacity="0"/>
      <stop offset="0.924" stop-color="#aa5f4b"/>
    </linearGradient>
    <linearGradient id="linear-gradient-7" x1="0.668" y1="0.642" x2="0.294" y2="0.149" xlink:href="#linear-gradient"/>
    <linearGradient id="linear-gradient-8" x1="0.599" y1="0.781" x2="0.355" y2="0.028" xlink:href="#linear-gradient-2"/>
    <linearGradient id="linear-gradient-9" x1="0.441" y1="0.564" x2="0.283" y2="0.784" xlink:href="#linear-gradient"/>
    <linearGradient id="linear-gradient-10" x1="0" y1="0.5" x2="1" y2="0.5" xlink:href="#linear-gradient-3"/>
    <linearGradient id="linear-gradient-11" x1="0.802" y1="0.515" x2="1.249" y2="0.538" xlink:href="#linear-gradient"/>
    <linearGradient id="linear-gradient-12" x1="0.249" y1="0.473" x2="1.135" y2="0.547" xlink:href="#linear-gradient"/>
    <linearGradient id="linear-gradient-13" x1="0.325" y1="0.639" x2="0.991" y2="0.048" xlink:href="#linear-gradient"/>
    <linearGradient id="linear-gradient-14" x1="0.971" y1="0.493" x2="-0.029" y2="0.512" xlink:href="#linear-gradient-3"/>
  </defs>
  <g id="_28" data-name="28" transform="translate(-148.341 -97.8)">
    <path id="Path_15540" data-name="Path 15540" d="M210.2,109.7s-34.3,15.6-49.2,24.1c-4.8,2.8-10.1,7-11.6,11.4-1.8,5.3-1.2,13.7,1,27.8a398.874,398.874,0,0,0,9.7,42.8,22.492,22.492,0,0,0,2.8,13.6c3.9,6.7,4.2,8,5,8.7,1.4,1.1,2-.6,2-.6s1.1,1.9,2.5,1.7c1.2-.2,1.1-1.7,1.1-1.7s.9,1.1,1.9.4c.7-.5.3-2.9-.4-5.5-.6-2.1-.6-7.5-.8-8.5s1.5,1.1,2.5,2.4c1.2,1.4,3.1,2,1.9-.9s-1.8-5.4-2.1-6.2c-.4-.8-1.6-3.8-3.1-5.4-1-1.1-3.3-2.4-3.8-5.8-1-5.8-.3-21.9.1-31.8.3-7.1.5-18.6,2.8-19.8,7.9-4.1,47.5-20.7,47.5-20.7l-9.8-26Z" fill="#ea9d7d"/>
    <path id="Path_15541" data-name="Path 15541" d="M165,131.7s3.6,5.7,5.6,9.9c4.9,10.2,3.4,14.1,3.4,14.1l19.3-8.1-12.5-23.3c-3.3.3-11.4,5.2-15.8,7.4Z" fill="url(#linear-gradient)"/>
    <path id="Path_15542" data-name="Path 15542" d="M174.5,119.8s18-9.8,30.4-13.3c12.5-3.5,26.9-7.9,34.3,5.5,7.9,14.1-5.3,27.9-16.6,35.1-9.4,6-24.5,14.4-24.5,14.4l-23.6-41.7Z" fill="url(#linear-gradient-2)"/>
    <path id="Path_15543" data-name="Path 15543" d="M203.5,158.4l-23.8-41.5-5.3,3.1,23.2,41.8Z" fill="url(#linear-gradient-3)"/>
    <path id="Path_15544" data-name="Path 15544" d="M192,208h79.3s-2.8-54-4.6-65.8c-2.7-18.1-17.5-43.1-37.9-42.2-4.1.1-18.1.3-23.6,38.1C203.2,149.8,192,208,192,208Z" fill="url(#linear-gradient-4)"/>
    <path id="Path_15545" data-name="Path 15545" d="M212.1,115.3s-5.1,17,6.5,61.3c5.3,20.4,17.8,31.4,17.8,31.4h34.9l-1.4-23.4-22.3-27.2-35.5-42.1Z" fill="url(#linear-gradient-5)"/>
    <path id="Path_15546" data-name="Path 15546" d="M231,136.7s21.1,36.2,32.6,47.9c3.9,3.9,6.5,6.4,13.4,6.9,7.9.5,20.2-3.9,33.1-10a368.9,368.9,0,0,0,34.5-18.7,22.527,22.527,0,0,0,12.2-6.7c5.2-5.7,6.4-6.3,6.8-7.3.7-1.7-1.2-1.7-1.2-1.7s1.5-1.7.9-2.9c-.6-1.1-2-.5-2-.5s.7-1.2-.1-1.9c-.7-.5-2.9.6-5.1,2-1.8,1.2-6.9,2.8-7.8,3.3s.6-1.8,1.6-3.1c1-1.5,1-3.6-1.4-1.6s-4.7,3.3-5.3,3.9-3.1,2.6-4.2,4.6c-.7,1.3-1.2,3.2-4.3,4.7-5.2,2.2-24.9,6.7-34.5,8.9-4.8,1.1-15.1,3.5-16.8,1.6-5.6-6.2-30.2-44.3-30.2-44.3Z" fill="#ea9d7d"/>
    <path id="Path_15547" data-name="Path 15547" d="M277.1,191.6c7.9.5,20.3-3.7,33.1-10l15.5-7.9c11-5.9,19-10.8,19-10.8a22.527,22.527,0,0,0,12.2-6.7c5.2-5.7,6.4-6.3,6.8-7.3.2-.6.2-.9,0-1.2-4.2,1-13.6,4.8-17.7,6.9-5.5,2.8-32.1,8.7-49.4,15.7-8.9,3.6-26.3,12.8-37.5,9.4a62.221,62.221,0,0,0,4.5,5.1C267.6,188.7,270.2,191.1,277.1,191.6Z" fill="url(#linear-gradient-6)"/>
    <path id="Path_15548" data-name="Path 15548" d="M262.5,183.3s-.6-7.5,3.4-12.7c6.8-9,13.6-9.6,13.6-9.6l-12.8-18.1-22.2,15.4a150.051,150.051,0,0,0,18,25Z" fill="url(#linear-gradient-7)"/>
    <path id="Path_15549" data-name="Path 15549" d="M232.6,170.7s-11.6-19.1-16-32.4c-4.5-13.4-9.8-28.9,4.7-37.4,15.3-9.1,30.2,3.7,39.7,16.5,7,9.9,16.4,24.9,16.4,24.9l-44.8,28.4Z" fill="url(#linear-gradient-8)"/>
    <path id="Path_15550" data-name="Path 15550" d="M284.6,167.4a.5.5,0,0,1,0-1c.1,0,8.1-.2,29.8-5.7,1.4-.4,2.9-.7,4.4-1.1,6.8-1.7,15.2-3.8,16.4-4.6a8.823,8.823,0,0,0,3.5-4.3c1.4-2.9,4.9-5.3,7.4-7.1l.8-.6c.8-.5,1.4-1,1.8-1.3a6.783,6.783,0,0,1,.9-.6,1.349,1.349,0,0,1,1.4,0,1.392,1.392,0,0,1,.5,1.1c0,1-1.2,2.6-2.1,3.8a63.34,63.34,0,0,0,7.6-3.4c2.6-1.4,3.8-2,4.7-1.3a1.41,1.41,0,0,1,.7,1.2v.5a1.659,1.659,0,0,1,1.5.8c.7,1.3-.72,2.7-1.43,3.26-.22.17-.47-.06-.67-.26s-.16-.27.04-.47c1-.73,1.46-1.63,1.16-2.03-.2-.4-.68-.48-1.4-.05-.2.1-.4-.15-.5-.35a.47.47,0,0,1,.1-.6,1.143,1.143,0,0,0,.3-.7c0-.2-.1-.3-.3-.5-.4-.3-1.3.1-3.7,1.4a100.422,100.422,0,0,1-9.5,4.1.481.481,0,0,1-.6-.2.637.637,0,0,1,0-.6c1.2-1.3,3.1-3.8,3.1-4.7a.367.367,0,0,0-.1-.3,1.577,1.577,0,0,0-.4.1c-.1,0-.4.3-.7.5-.4.3-1,.8-1.8,1.4l-.8.6c-2.5,1.7-5.8,4-7.1,6.7a10.426,10.426,0,0,1-3.8,4.7c-1.2.8-7.4,2.4-16.7,4.7-1.5.4-3,.8-4.4,1.1-22,5.6-29.8,5.8-30.1,5.8h0Z" fill="#cc7a5e"/>
    <g id="Group_1045" data-name="Group 1045">
      <path id="Path_15551" data-name="Path 15551" d="M190.4,115.6l.4,1.1.9-.9Zm-1.2-1.6.3,1.1.9-.9Zm1.9-1.2.4,1,.9-.8Zm-.6,1,.4,1,.9-.8Zm-1.6,3.7,1.3.1-.5-1.4Zm-2.4-2.1,1.3.1-.5-1.4Zm-2.8.9,1.3.1-.5-1.4Zm7.2-4.5-1.5.7,1.5,1.2Zm1,3,1.2.1-.4-1.4Zm-3.7.9,1.3.1-.5-1.3Zm5.2-2.3,1.3.1-.5-1.3Zm-8.8,6.1-.4-1.2-1.1.9Zm-2.8-1.9-.4-1.3-1.1,1Zm3.9-.7.4,1,.8-1Zm7.6-2.8.4,1,.8-.9Zm-.7-2,.3,1,.9-.8Z" fill="#ffcce1"/>
      <path id="Path_15552" data-name="Path 15552" d="M182.5,119.8l.2.7.6-.5Zm4.4-2.1-.5.3.5.5Zm-.8,6.1-.4-.4-.3.6Zm.2-.9-.3.5.6.1Zm2.4-2.9-.3.7h.8Zm6.6-2.6-.6.5.8.3Zm3.9,3-.5-.4-.2.7Zm-6.8.8-.6-.3-.1.7Zm.9,1.2.2-.6-.7.1Zm2-.8-.7-.1.2.7Zm-.8,2.9-.7-.1.2.7Zm-9.9-8.9.4,1,.9-.8Z" fill="#ffcce1"/>
      <path id="Path_15553" data-name="Path 15553" d="M184,116.9l1.3,1.1.5-1.8Zm2.8.3,1.6.1-.6-1.7Zm-4.2.4.4,1,.8-1Zm-1.1-.9.5,1,.8-1Z" fill="#ffcce1"/>
      <path id="Path_15554" data-name="Path 15554" d="M193.4,117.3v-.7l-.6.3Zm-11.8.8.5-.4-.6-.4Zm6.2-1.2.5.5.2-.7Zm-3.9-1.7-2.2,1.1,2.1,1.7Zm2.7-1.4-2.2,1.1,2.1,1.7Zm2.8-1.4-2.4,1.2,2.2,1.6Zm3.6-1.5-2.1.9,1.9,1.9Zm-7.3,10.8.2-.6-.7.1Zm-.2-1.8.3-1-1.2.2Zm3.2-1.2.3-.6-.8.1Zm-4.1,4.5.1-.6-.7.1Zm13.1-9-.2.8.9-.2Zm5.7-5.2-.4.6.8.2Zm3.1.7-.5-.2v.7Zm2.9-2.6-.6-.2.1.7Zm2.6-1.8-.6-.3v.8Z" fill="#ffcce1"/>
      <path id="Path_15555" data-name="Path 15555" d="M200.5,114.8v-.6l-.6.2Zm-.2-2.8.1-.7-.7.2Zm1.3-2.7-.3,1.3,1.5-.3Zm2.8,4.7h-.6l.3.6Zm6.2-7.6-.6.1.3.6Zm2.2-1.6-.6.1.3.6Zm-9.8,8.1.5-.3-.6-.4Zm.2-2,.6-.2-.6-.5Zm-6.4,5.9.5-.2-.5-.5Zm-11.4,4.8.2-.5-.7.1Zm16.3-14,.2.7.7-.5Zm-2.3,2.3,1,.2-.2-1.1Zm-2.2.1,1,.2-.2-1.1Zm5.5-2.8.6.6.4-.9Zm-4.6,5.9-.3-1.2-1,.8Zm-2.3.5-.3-1.1-1,.8Z" fill="#ffcce1"/>
      <path id="Path_15556" data-name="Path 15556" d="M195.9,116.7l.3-.7-.8.1Zm-4.4-.4h.6l-.2-.6Zm3.5-4.4.1.5.5-.3Zm3-1.9.3.8.7-.7Z" fill="#ffcce1"/>
      <path id="Path_15557" data-name="Path 15557" d="M196.9,110.9l1,.9.5-1.5Zm-.4.3.2.9.7-.6Zm-1.5-.9.3,1,.8-.8Zm.2,1.7.5-.3-.5-.4Z" fill="#ffcce1"/>
      <path id="Path_15558" data-name="Path 15558" d="M195,110.3l-2,.8,1.6,1.9Zm2.2-1.1-1.8.7,1.5,1.6Zm2.2-.8-1.7.6,1.3,1.4Zm6-2-1.5.4,1.1,1.3Zm-4.1,1.2-1.5.6,1.2,1.3Zm6.9-1.6-.4.5.7.1Zm-1.8,1.7-.3,1.1,1.3-.3Zm3.9-2.5-.2,1.1,1.2-.3Z" fill="#ffcce1"/>
      <path id="Path_15559" data-name="Path 15559" d="M205.6,107.5l.8.2-.2-.9Zm1.7-1.7-1.2.4.9,1.1Zm2.5-.6-1,.3.7.8Z" fill="#ffcce1"/>
    </g>
    <path id="Path_15560" data-name="Path 15560" d="M352.4,149.5a.52.52,0,0,1-.4-.2.527.527,0,0,1,.2-.7l9-5.3a.515.515,0,1,1,.5.9l-9,5.3h-.3Zm2.5,2.2a.52.52,0,0,1-.4-.2.527.527,0,0,1,.2-.7l7.1-4.5a.515.515,0,1,1,.5.9l-7.1,4.5c-.1-.1-.2,0-.3,0ZM164.98,228.58a.561.561,0,0,1,.42-.68c.3-.1.6-.1.8-.2a23.728,23.728,0,0,0,3.1-.8l3.3-1.3a.513.513,0,0,1,.7.2.6.6,0,0,1-.2.7l-3.4,1.4a18.447,18.447,0,0,1-3.3.9c-.3.1-.5.1-.8.2a.66.66,0,0,1-.62-.42Z" fill="#cc7a5e"/>
    <path id="Path_15561" data-name="Path 15561" d="M246.9,162.4s9.2,14.3,13.5,18.7c5.2,5.8,8.7,8.9,12.3,9.8a18.427,18.427,0,0,0,7.2.6,94.4,94.4,0,0,0,10-1.7c4.2-1.1,4.8-1.6,4.8-1.6s-19.8-6-28.6-15.2-10.6-15-10.6-15-12.2-.5-8.6,4.4Z" fill="url(#linear-gradient-9)"/>
    <path id="Path_15562" data-name="Path 15562" d="M232.8,170.7l44.6-28.4-3.3-5.1L229.2,165Z" fill="url(#linear-gradient-10)"/>
    <path id="Path_15563" data-name="Path 15563" d="M329.7,157.1l5.6,11.1a1.15,1.15,0,0,0,1.4.5l4.7-2.5a1.15,1.15,0,0,0,.5-1.4L336.5,154a1.15,1.15,0,0,0-1.4-.5l-4.9,2.2a1.111,1.111,0,0,0-.5,1.4Z" fill="#ffcce1"/>
    <g id="Group_1046" data-name="Group 1046">
      <path id="Path_15564" data-name="Path 15564" d="M229.6,153.1v-1.9l-1.6.7Zm-4.9-1.6-.5-1.8-1.3,1.1Zm4.4-1.5,1.7-1.5-1.8-.9Zm-8.1-.9,1.7-1.5-1.8-.9Z" fill="#d87390"/>
      <path id="Path_15565" data-name="Path 15565" d="M219,143.8l2.2-.6-1.2-1.5Zm3.9,9.1,2.1-1-1.6-1.3Zm2.4-1,2-1-1.5-1.3Zm-1.7-1.9,1.6-1.5-1.8-.9Zm3.8,5,1.6-1.5-1.9-.8Z" fill="#d87390"/>
      <path id="Path_15566" data-name="Path 15566" d="M226.7,155.9l1.8-1.2-1.7-1.1Zm-.8-11.4-.5-1.9-1.3,1.2Z" fill="#d87390"/>
      <path id="Path_15567" data-name="Path 15567" d="M229.9,154.9l.5-1.8-1.7.3Zm-5.3-11.5-.4-1.3-.9.7Zm2.8,5.4-1.2.1.4.9Zm3.6-8.2-.3,1,1-.1Zm4,1,1.3-.5-.8-.8Zm-5.1,3.2-.2-1.1-.8.5Zm8.5,2.9-1.1-.2.3,1Zm-11.7-7.3.7,1.2.7-1Zm-4-4.6,1-.3-.6-.7Zm-1.4,9v-1.1l-.9.4Z" fill="#d87390"/>
      <path id="Path_15568" data-name="Path 15568" d="M220.9,145.3l-.5-1.8-1.3,1.1Zm1.3-.5.7-2.9-2.6.5Zm-6.4-9.3,1.2-2-2-.2Zm7,12,2.2-1.9-2.3-1.2Zm-.5-5.9.3-1.9-1.6.5Zm-2.2-.3.3-1.9-1.6.4Zm12.7,6,1.2-.4-.7-.9Zm0,3.8.3,1,.7-.7Z" fill="#d87390"/>
      <path id="Path_15569" data-name="Path 15569" d="M235.7,145l-.1-1.1-.8.5Zm-9.9.6.1-1.1-.9.3Zm-5.3-6H217l1.3,2.9Zm1.8,5.9-2.9.2,1.2,2.3Zm1.7,3.8-2.9.2,1.2,2.3Zm-7-10.2,1.8-1.3-1.7-1Zm-.4-8.2-2.4-.3.6,2.1Zm9.5,22.1-3,.2,1.2,2.4Zm2.3,3.4-3.6.3,1.5,2.9Z" fill="#d87390"/>
      <path id="Path_15570" data-name="Path 15570" d="M230.5,159.2l-4.2.3,1.8,3.4Zm-3.4-13.3,1.3,1.3.6-1.5Zm3.3,7.6,1.8-1.3-1.8-1Zm-.5.5.8,2.1,1.4-1.4Z" fill="#d87390"/>
      <path id="Path_15571" data-name="Path 15571" d="M228.2,162.7l.9,2.1,1.3-1.5Zm2.1-2.5.8,2.1,1.4-1.4Zm-2.4-2.8.8,2.1,1.5-1.4Zm9.8-18.7,1-.9-1.2-.4Zm-3.4,5.2-.5-1-.6.8Zm9-1-1,.3.6.7ZM234.6,161l-.7-2.3-1.5,1.4Zm5.1-12.6-1.1.1.5.9Zm-6.8,2.9,1,.7.3-1.1Zm-5.5-2.7.8-.7-.9-.4Zm2.1,8.8-.5-1-.6.7Zm-9.3-29.5,1.4.1-.4-1.1Zm-6,.9.3-1.1-1,.1Zm6.7,6.1-1-.6-.1,1Zm15.7,19.7,1.3.3-.2-1.2Zm-3.6.1,1.3.3-.2-1.2Zm13.1-8.4.9.2-.2-.8Zm-8.3,11.8,1.5.3-.3-1.3Zm-3.5-2.9,1.5.3-.3-1.3Zm10.9-14,1,.2-.2-.8Zm-14.7,13.4.5-1h-1Zm-3.3,2.9,2.5-1.6-2.2-1.5Zm-1.8-1.3,1.6-1.6-1.9-.7Zm5,2,1.9.2-.6-1.6Zm5.1-9.3,1,.4-.1-1Zm5.3-1.9,1.5.2-.4-1.3Zm-6.9.7.5-1.2-1.1.1Zm7.3,7.2-1.1-.7-.2,1.1Zm-9,8.3-1.6-.6-.2,1.7Zm2.4-2.5,1,.4-.1-1Zm3.1-9.1.7-.9-1-.3Zm-2.5,5-.6-.8-.4.8Zm8-1.8-.9.4.6.6Zm-5.7,2-1.9.3,1,1.4Zm11.7-12.4.7-1-1.1-.2Zm-2.6,4.9-.6-.8-.4.8Zm8-1.8-.9.4.6.6Zm-10.2,1.1.2-1.2-1,.3Zm.2,5.5-.9-.4v1Zm6.1-5.4-.6.8.9.2ZM236.9,160l-1.3-1.8-1,1.7Z" fill="#d87390"/>
    </g>
    <g id="Group_1047" data-name="Group 1047">
      <path id="Path_15572" data-name="Path 15572" d="M249.6,154.5l-1-.8-.4,1.1Zm-9.1,6.1-1,.7.9.5Zm7.3-1.3-.1,1.8,1.3-.8Zm1.9-4.2.9.2-.1-.8Zm6-3.1.9.2-.2-.8Zm-10.5,4.2,1.4.3-.3-1.3Zm6.4-2.2,1.5.3-.3-1.3Zm-15.2,8.6-.8-.7-.3.9Zm-1.5,4.3-1.9.6,1.2,1.2Zm-1.5-.2-1.6-1-.2,1.7Z" fill="#ffa124"/>
      <path id="Path_15573" data-name="Path 15573" d="M231,167.8l1.6,2.7,1.5-2.2Z" fill="#ffa124"/>
      <path id="Path_15574" data-name="Path 15574" d="M229.4,165.2l1.7,2.9,1.2-2.4Z" fill="#ffa124"/>
      <path id="Path_15575" data-name="Path 15575" d="M234.4,166l-1.6-1.7-.7,1.9Zm4.1-2.5-1.3-1.7-1,1.7Zm-.4,1.8-1.6-1.1-.3,1.6Z" fill="#ffa124"/>
      <path id="Path_15576" data-name="Path 15576" d="M236.9,165.4l-1.8.6,1.1,1.3Z" fill="#ffa124"/>
      <path id="Path_15577" data-name="Path 15577" d="M234.1,165.1l.9,4,3-1.9Zm15.7-6.5-1.3.1.6,1Zm-2.4,1.6-1-1.5-.8,1.4Zm-2.6,2.1-1.2-1.3-.7,1.4Z" fill="#ffa124"/>
      <path id="Path_15578" data-name="Path 15578" d="M247.5,159l-.8-1.3-.7,1.1Zm-8.4,1.4,2-.5-1.2-1.5Zm-1.3,1.6,2-.5-1.2-1.4Zm-5.4,1.1,1.4.9.4-2.1Zm12.4-3h-1.6l.6,1.3Z" fill="#ffa124"/>
      <path id="Path_15579" data-name="Path 15579" d="M243.6,160.7l-2.2-.8.1,2.1Zm-2.3.1-1.4.3.8,1.1Zm.1,2.9-1.8.3,1,1.3Zm-1.9.4-.1-1-.8.5Z" fill="#ffa124"/>
      <path id="Path_15580" data-name="Path 15580" d="M237.1,163.4l1,3.7,3-1.8Zm3.9-1.5.6,3.3,2.5-1.7Zm3.2-2,.8,3.1,2.4-1.6Zm8.1-1.5-1.8-.6.1,1.6Zm-8.4-1-1.9.3,1,1.4Zm17.3-6-1.2.1.6,1Zm-2.3,1.6-1-1.5-.9,1.3Zm-2.7,2.1-1.2-1.4-.7,1.5Z" fill="#ffa124"/>
      <path id="Path_15581" data-name="Path 15581" d="M259,151.7l-.8-1.2-.8,1.1Zm-2.8,1.2h-1.5l.5,1.2Zm-10,4.2-1.2-.4v1.2Zm6.1-.6-1.7-.6.1,1.6Zm0-1.7.5,3.1,2.6-1.5Zm4-1.6.5,2.3,2-1.3Zm7.4-2-1.9-.7.2,1.7Zm-15.3,4.3-1.2.1.6.9Zm1.8,1.1-1.9.3.9,1.4Zm-14.1,6.6-1.9.3,1,1.4Z" fill="#ffa124"/>
    </g>
    <g id="Group_1048" data-name="Group 1048">
      <path id="Path_15582" data-name="Path 15582" d="M220.2,101.9l1.2.4-.1-1.4Zm20.3,5.5-.7.1.5.7Zm7.9-2.9-.7.1.4.7Zm-10.5,5.4-.3-.7-.6.7ZM225.7,100l-.1.9,1-.3Zm13.6,2.2-.1.9,1-.3Zm2.6-1.4-.1.9,1-.3Zm-23.2,1.9-1.3,1,1.7.9Z" fill="#ffcce1"/>
      <path id="Path_15583" data-name="Path 15583" d="M215.8,105.7l-1.1,1.3,1.9.4Zm1.2-1.4-.1,1.3,1.3-.5Zm-.4,3.7-.1.9,1-.3Zm-2.3-.3v.9l.9-.3ZM232.2,98l-.7.1.5.7Zm-4.5,2.6-.6-1.3-1,1.2Zm2.8-.5-.3-.7-.6.7Zm3.9,1.3.8.4v-1Zm.7-3.1.2.8.8-.6Zm-1.5,4.1-.2.7.9-.2Zm-11.5,4.9-.1.7.8-.2Zm-3.3.6-.1.7.9-.2Zm-2.8,1.5-.1.7.8-.2Zm-.8.6-.1.7.8-.2Zm27.8-5.1-.1.8.8-.3Zm2.1-1.2-.1.7.8-.2Zm-4.7,1,.7.4v-.9Zm-2.9-2.8.7.4v-.9Zm3.5-1h-.8l.4.8Zm-21.2,9.8h.5l-.2-.6Zm.6-3.8.1.5.4-.4Zm6.8,1.6-.4.2.4.4Zm-3.3-.7.2.5.5-.4Zm7.3.9-.4.3.5.2Zm13.6.9-.4.3.5.2Zm-9.8,1.8-.4-.3-.2.5Zm4.3,1.9-.3-.2-.2.5Zm-5.3,5.2-.4-.3-.1.6Zm.8-13.8.6.7.4-1Zm-6.2-6.5,1.1,1.4,1-1.8Zm-8.9,6.2.6.7.4-1Zm18.2-5.7-.4.6.8.1Z" fill="#ffcce1"/>
      <path id="Path_15584" data-name="Path 15584" d="M240.5,105.9l-.7-.2.1.8Zm-6.2-5.5,1.3.3-.3-1.5Zm1.7.7.9.2-.2-1Zm.1-1.7.9.1-.3-1Zm-5.2,4.4v.8l.8-.4Zm9.7-4.2-1.2-.4.1,1.4Zm-25.3,9.1-.1.8.8-.4Zm4.4-5.6-.6.2.4.6Zm-6.4,7.6-.6.1.4.6Zm1-.8-.2-.6-.5.6Zm3.7-3.5.6.3v-.8Zm-2.2.6.8.8.5-1.2Zm2.9-1,.7.2v-.8Zm2.8-2.1.7.3v-.9Zm-1.6-1.7-.3,1.4,1.5-.3Zm-3.7,3.4-.1.6.6-.2Zm6.7-.8-.6.1.3.6Zm-5.2,2.9.7.2-.2-.8Zm-3,4.5v.6l.6-.3Zm1.2-4.8-.6.1.5.6Zm.6,4.2.7.2-.1-.8Zm3.3.6v.7l.6-.3Zm-7.4-.2v.6l.6-.3Zm5.4,1.6-.6.2.4.5Zm-3.8-1.4.5-.4-.6-.3Zm-2.5,3.6.4-.4-.6-.3Zm.6-2.3.4-.4-.6-.2Zm-.6,3.4.5.4.2-.6Zm.2,2.6.4.5.3-.7Zm.7-4.3.7-.4-.7-.5Zm2.8-1.9.4.5.2-.7Zm-.5,2.4-.3.5.7.2Zm-.1,2.3-.3.5.7.1Zm-2.9,4.3.5.5.2-.7Zm4.4-2.4-.3.6h.7Zm.1,3.9-.4.6.7.1Zm5.3-22.9,1.8,1.3.5-2.5Zm2.9-.8-.3.6h.7Zm-2,2-.3.5.7.1Zm4.6,1-.7-.1.1.7Zm11.5.7-.5-.2v.7ZM225,102.6l-.6-.2.1.7Zm2.3-3.9.6.5.3-.8Zm.8,4.8.5.6.3-.8ZM225,99.2l1.1,1,.6-1.6Zm6.4,2.7.6.5.3-.8Zm4.2,5.1.5.5.3-.8Zm-.2,6.3-.7.1.5.7Zm-2.6,2.5-.3-.7-.6.6Zm-2.9,1.5-.4-.4-.1.6Zm.6-4.4.6.5.2-.8Zm-3.2,2.8.5.5.3-.8Zm-2.6,4.1.5.5.3-.8Zm-6.4-3.2.6.5.3-.8Zm14.6-18.2-.3.6.7.1Zm-1.1.4-.6-.2.1.7Zm2.5.9-.6-.2.1.8Zm8.7,3.8.8.4v-1Zm-.8,1-.2.8.9-.2Zm3.8-.5.7.4.1-.9Zm-2.6,2.8.6.7.4-1Zm-.1-4.7.9.2-.2-1Zm1.3,1.1.9.3-.2-1.1Zm2.5,2.7-.6-.2.1.7Z" fill="#ffcce1"/>
      <path id="Path_15585" data-name="Path 15585" d="M241.9,103.4l-.6-.2.1.7Zm-13.3,1.9.5.5.3-.8Zm1-3.7-.3.6h.7Zm3.1,4.6-.6-.2.1.8Zm1.8-8.2-1.1-.1.5,1.2Zm-6,2.6-.6.3.6.6Zm.9-1.5-.7.3.7.6Zm-4.4,6-.5-.6-.3.8Zm-1.7-1.8-.2,1.4,1.5-.5Zm-1.2,0,.2.5.4-.3Zm3.6.9.2.6.5-.5Zm-1-2.9h-.6l.3.6Zm2.1.2-.5-.6-.3.8Zm.8,2.2-.5-.6-.4.7Z" fill="#ffcce1"/>
      <path id="Path_15586" data-name="Path 15586" d="M229.1,106.9l-.5-.6-.3.8Zm-3.3-4.9,1.2.6.1-1.5Zm6.3-1.3.9-.1-.5-.9Zm.5,3.6,1-.1-.5-.9ZM220,105.9l.9-.1-.4-.8Zm2.2,3.4h.9l-.4-.9Zm2-6.2.7.3v-.8Zm5.3-2.9-.1.6.7-.1Zm-1,1.9h-.6l.3.6Zm2.6.3-.6-.1.3.7Zm-4,3-.1.6.7-.1Zm-3.7,11-.3.4.5.1Zm3.5-1.8-.1.4h.5Zm-2.6-4.1.4.6.4-.7Zm5.6.5.7.2-.1-.9Zm-6.9,1.9.7.2-.1-.9Zm4-1.2-.6.2.4.5Zm-5.3,2,.2.6.6-.5Zm9.5-12.8h-.7l.3.7Zm6.9,2.4v.7l.8-.3Zm-2.8-.4.5.5.3-.8Zm3.4-1.5.5.5.4-.8Zm-1.8-.4-.3.6.7.1Zm-1.1.4h-.6l.3.6Zm2.7.4h-.7l.3.7Zm0-1.4h-.6l.2.6ZM226,105.7l-.6-.1.1.7Zm8.2-2.8-.1,1.6,1.7-.6Z" fill="#ffcce1"/>
      <path id="Path_15587" data-name="Path 15587" d="M231.7,99.5l-.1,1.6,1.6-.6Zm5.9,1,.9.1-.3-1Zm-5,5.3,1.6.9.2-2.1Zm-5-5.6,1.6.9.2-2.1Zm-4.2.7,1.8.3-.5-2Zm8.3-1.5,1.5.9.3-2Zm1.2,2.2,1.6.9.2-2.1Zm-3.3,0,1.6.9.2-2.1Zm5,.3,1.3,1.4.8-1.9Z" fill="#ffcce1"/>
      <path id="Path_15588" data-name="Path 15588" d="M235.3,101.3l1.4,1.2.5-2Zm-8.2,2.8-.2,1.6,1.6-.6Zm8.6-1.1.3,1.6,1.4-1Zm-10.5.7-.1,1.1,1.1-.3Zm7-.5-.9.1.5.9Zm-4.3,7.8-.3-.8-.7.7Zm2.6,3.5,1.1.1-.4-1.2Zm-.5-7.1.1.9.8-.4Zm7.7,4.3-.8.3.7.7Zm-8.8-3.8.5-1h-1.3Zm-6.9-1.4.9.2-.2-1Zm6.2-6.4.1.9.9-.4Zm-3.3-.6-.2,1.5,1.7-.5Zm-1.4,2,.8,2.3,2-1.9Zm-7.9,5.1.7,1.7,1.5-1.4Zm11.2-3.9,2.2,1.1.2-2.6Zm-4.7.3.3,1.5,1.4-1Zm-1.3-1.5.4,1.5,1.4-1.1Zm12.6,7.7,1,.1-.3-1.2Zm2.2-1.8.4-.8-1,.1Z" fill="#ffcce1"/>
      <path id="Path_15589" data-name="Path 15589" d="M233,111.1l.1.9.8-.5Zm-4.6-6.9.2.9.8-.7Zm-3.8-4.1-3.3,1.2,2.7,2.8Zm3.7-1.9L225,99.4l2.7,2.8Zm4.1-.4-2.7.1,1.3,2.7ZM219.6,105l1.9.1-.7-1.9Z" fill="#ffcce1"/>
      <path id="Path_15590" data-name="Path 15590" d="M221.2,101.5l-2.9,2,3.2,2.1Zm15.6-3.1-2.3-.5.4,2.6Zm-5.7,8.4.8-1.3-1.6-.3Zm14.9,4-1.3.8,1.4,1Z" fill="#ffcce1"/>
      <path id="Path_15591" data-name="Path 15591" d="M247.4,106.8l-1.3.8,1.4,1Zm-2.6,4.9.6,1.7,1.5-1.4Zm.2-7,.8,1.7,1.4-1.5Zm-3.5-2.6,1.1,1.5,1-1.8Z" fill="#ffcce1"/>
      <path id="Path_15592" data-name="Path 15592" d="M250.3,106.7l.1,1.8,1.8-1.1Zm-3.9,2.3.1,1.8,1.9-1Zm-.6-1.9.7,1.7,1.4-1.5Zm5.3,3.3.2,1.9,1.8-1.1Zm-16.6-5.7,1.4,1.3.6-2Zm4.5,1.8,1.1-1.5-2.1-.4Z" fill="#ffcce1"/>
      <path id="Path_15593" data-name="Path 15593" d="M238.1,105.1l.7-1.7h-2.1Zm5.6,2.5-.8,1.4,1.7.1Zm3.5,4.8-1.4.8,1.5,1Zm-6.4-7.2-.8.6,1.1.6Zm5.5,4.4-.7-.6-.3,1Zm-8.4,2.8.3-.9h-1Zm1.7,4.3.7.8.5-1Zm2.2-5.6-.6.7,1,.3Z" fill="#ffcce1"/>
      <path id="Path_15594" data-name="Path 15594" d="M246.8,119.6l-.9-.3v1ZM231.4,117l.9.6.2-1.2Zm.2-6.6-.3.8,1-.1Zm7.5,7.1-.8-.1.3,1Zm-4-10-.3,2,2.1-.7Zm3.9,4.2-.9.1.5.9Z" fill="#ffcce1"/>
      <path id="Path_15595" data-name="Path 15595" d="M235.3,108.5l1-.6-1-.6Zm-5.1-4.7.7.6.3-1Zm8.6-2.2-.4.8h1Zm-17.4,10,1-.5-1-.7Zm-4.6-5.3.5.7.5-.9Zm8.8-1.3-.5.8,1,.1Zm13.4,5.2,1.1-.2-.7-1Zm-2.6-6.6.3.9.7-.8Zm8.7,1.8-.7.5.8.5Zm-1.5-2.9-.8,1.3,1.8.2Zm-2.1,1.3-.2,2.4,2.6-.9Zm1.4,2.5,1,2.2,1.8-2Zm-6.7-4.6,2,1.4.6-2.7Zm3.4.9-.8,1.4,1.7.2Zm.6-1.9-.5,1.5,1.8-.3Zm5.1,14.1.7.8.5-1.1Z" fill="#ffcce1"/>
      <path id="Path_15596" data-name="Path 15596" d="M246.6,114.6l.9-.4-.8-.6Zm-2.9,1.4-.6.7,1,.2Zm-5.1-14,.9.2-.2-1Zm4.6,6.4-.3.8h1Zm-20.1-3.3,1.2,1.4.8-1.9ZM240,99.3l-2.6-.7.4,3Zm3.9,2-2.6-1.4-.2,2.9Zm3.6,2.3-2.9-2-.1,3.1Zm3,2.3-2.5-2-.2,2.9Zm3.6,3.4-2.1-2-1,2.4Zm-14.7.6.8-.4-.8-.6Zm-.9,2.4,1.4-.4-1.1-1.3Z" fill="#ffcce1"/>
      <path id="Path_15597" data-name="Path 15597" d="M236.8,110.3l.7-.4-.8-.6Zm2.4-.8.7-.5-.8-.5Zm14.9,6.6-1.3.8,1.5,1Zm.4-3.7-1.3.8,1.5,1Zm4.3,4,.5.8.5-.9Zm-8,.1.3,1.8,1.8-1.1Zm4.2-4,.2,1.9,1.8-1.1Zm-.6,1.7.2,1.8,1.8-1Z" fill="#ffcce1"/>
      <path id="Path_15598" data-name="Path 15598" d="M251.6,112l.3,1.8,1.7-1.1Zm5.7,5.3.2,1.9,1.7-1Zm-1-1.9.2,1.8,1.7-1Zm-2.1,2.1-1.4.8,1.5,1Zm-8.4-8.2-.9.5.9.8Zm6.9,5.4-.7-.7-.4.9Zm-8.8,1.3.5-.8-1-.1Zm-1.9,4.2.5.9.8-.9Zm5.4-4.5-.6.6.8.4Zm1.1,8.8-.8-.5-.2,1Zm-.5-5,.5.9.7-1Zm3.3.4.9-.2-.6-.8Zm-5.9.8-.7.6,1,.4Zm11.2-8.7-2.2-2.4-.9,2.5Zm2.6,3.1-2.2-2.5-.8,2.6Zm5.7,16.4-1.4.7,1.5,1.1Zm1.8-2.3-1.5.6,1.4,1.2Zm2.4,2.5-1.4.8,1.4,1Zm-1.6-.5-1.4.7,1.4,1.1Zm-5.6-1.4.1,1.8,1.9-1Z" fill="#ffcce1"/>
      <path id="Path_15599" data-name="Path 15599" d="M264.3,126.1l.1,1.8,1.8-.9Zm-1.4-3.5v1.8l1.9-.8Zm7.5,9-1.4-1.9-1.3,2.4Zm-3.9,1.7.1,1.8,1.8-.9Zm-2.4-5.3.1,1.9,1.8-.9Zm4.4,7.6.3,1.8,1.7-1.1Zm-12.6-16.9.2,1.9,1.8-1.1Zm3.5,5.2,1.7-.8-1.5-1.4Zm-.8-2.6,1.7-.7-1.5-1.4Zm3.5,3.9-1.4.8,1.5,1Zm5.4,10.4-1.3.9,1.5.9Zm2.7-1.9-1.4.7,1.4,1.1Zm-13.4-13-1,.4.8.9Zm3.8,6-.5-.7-.6.8Z" fill="#ffcce1"/>
      <path id="Path_15600" data-name="Path 15600" d="M251.5,126.4l.6-.6-1-.4Zm3.9-7.3-1.5,1.3,2,.9Zm-.9,7.8-.7-.5-.2,1Zm-4.3-2,1,.2-.3-1.2Zm-.6-7,.1.9.9-.5Zm7.8,4.2-.8.3.7.7Zm-12.6-1.2,1,.3-.1-1.2Zm-1.5-7.1-.1.9,1-.3Zm9.1,5.7-.9.1.6.9Zm11.3,4-1.4.7,1.3,1.1Z" fill="#ffcce1"/>
      <path id="Path_15601" data-name="Path 15601" d="M261.7,122.8l-1.3,2.1,2.7.3Zm0,4,.4,2.4,2.2-1.5Zm-5-10.5.3,2.4,2.3-1.4Zm4.2,4.8-1.4.8,1.4,1.1Zm1.1-1.6-1.3.8,1.4,1Zm1.3,17.7.9-.3-.7-.7Z" fill="#ffcce1"/>
      <path id="Path_15602" data-name="Path 15602" d="M260.1,119.8l.5.7.5-.9Zm2.3,8.4-.5.7,1,.1Zm-.2-8.9-1.9-2.8-1.4,2.8Zm2.2,3.6-1.8-3-2.2,3.2Zm2.3,3.2-1.9-2.9-2.1,3.2Zm2.4,3.6-2.1-3.3-1.9,3.4Zm3.2,4.7-1.9-2.8-2.2,3.2Zm-16.2-8.5.8.2-.2-1Z" fill="#ffcce1"/>
      <path id="Path_15603" data-name="Path 15603" d="M258.9,125.2l1.5.4-.4-1.7Zm1,4.4,1,.2-.2-1.1Zm-6-5.2.8.2-.2-1Zm2.3,1,.8.1-.2-.9Zm2.7,2.7,1.3-1-1.6-1ZM269.1,139l1.5-.8-1.5-1.2Zm-4.2,1.2.9.1-.3-1Zm-1-6.3.2.9.7-.5Zm7.3,3.4-.7.3.7.6Zm-16.5-2,1,.1-.3-1Zm-.9-6.3.1.9.8-.5Zm7.6,3.3-.8.3.7.6Z" fill="#ffcce1"/>
      <path id="Path_15604" data-name="Path 15604" d="M262.1,141.2l.9.3-.1-1.1Zm.4-6.4-.1.8.9-.3Zm6.4,4.8-.8.2.6.7Zm2.2-2,.5.6.4-.8Zm2.8-.6-1.9-2.6-2.1,2.8ZM208,151l1.4.4-.2-1.6Zm-3.4,1.7,1.3.4-.2-1.6Zm1.1-5.5.1-.8-.9.2Z" fill="#ffcce1"/>
      <path id="Path_15605" data-name="Path 15605" d="M210.3,153l1.1-1.3-1.9-.5Zm-6.3,3.4,1.3-1.4-2.1-.7Zm-1.2,3.8,1.3-1.4-2-.6Zm1.6-7.9,1.1-1.2-1.8-.6Zm2.2-.3,1.1-1.3-1.8-.6Zm-.5,2.6,1.3-1.4-2-.7Zm.9-7.1,1.1-1.3-1.8-.5Zm-.6,1.9,1.1-1.3-1.8-.5Zm-.6,19.4,1.3-1.3-2-.8Zm2.4-6.5-1.7-.8-.1,2.2Zm-2,2.8-1.7-.8v2.2Zm2.2-7.8,1.5.6-.1-1.8Zm.7-7.8,1.3.4-.2-1.6Zm-1.3,20.9,1.6.5-.1-1.8Zm-.6-10.8,1,.4v-1.3Zm1.2-7.2-.1.9,1-.2Zm6.8,6.2-1,.1.6.9Zm2.5-2.3.3-.9-1.1.1Zm-6.4-.7.9.1-.3-.9Zm5.2-6.2.1.8.8-.5Zm4.1,21,.4-1h-1.2Zm-7.2-1.3,1,.2-.3-1Zm6.3-6.7v.9l1-.4Zm-2.3,21.3.4-1h-1.3Zm-7.2-1.3.9.2-.2-1Zm6.2-6.7.2.9.9-.5Zm-1.4,4.4.5-1h-1.2Zm-7.1-1.2.9.1-.3-1Zm6.3-6.8v1l.9-.6Zm-7.1,12.7,1-.4-.9-.9Zm-4.3-5.8.6.7.4-.9Zm9.2-.6-.6.7,1,.3Zm-3.2-10.2,2,.4-.6-2.2Zm4.5-3.8.1,1,.9-.6Z" fill="#ffcce1"/>
      <path id="Path_15606" data-name="Path 15606" d="M209,172.7l-.9-.7-.3,1.2Zm.8-4.6-.6-1-.7,1Zm-5.2,5.1.7-.7-1-.3Zm-1.9-8.9.8.4.1-1Z" fill="#ffcce1"/>
      <path id="Path_15607" data-name="Path 15607" d="M210.1,170.6l.4-1.4-1.7.2Zm-9.7-.3h1.2l-.5-1.3Zm7-10.1.4,1.2,1.1-.9Zm1,13.1-.7-1.2-.8,1.4Zm-6.1,6.6.8-.9-1.3-.4Zm-2.7-11.1,1,.5.1-1.2Zm12.2-8.9-.6-1-.7,1.1Zm-5.2,5.1.7-.7-1-.3Zm-1.8-9,.8.4.1-1Zm-1.6,2.4,1.5.5-.1-1.8Zm1.5,2,2.5-.3-1.5-2.4Zm1.9-2.7,1.6-1.9-2.6-.8Zm-3.2,12.2,1.7-1.9-2.7-.8Zm-.9,5.4,1.7-1.9-2.7-.8Zm.8.9-2.2-1.2-.2,2.8Zm3-1.4-1.8.2,1,1.8Z" fill="#ffcce1"/>
      <path id="Path_15608" data-name="Path 15608" d="M205.8,170.1l-1.9.2,1.1,1.8Zm-5.4,6.5,1.7-1.8-2.7-.9Zm3.5-14,1.5.5-.1-1.8Zm-2.1.2,1.6.5-.2-1.8Zm12.9-10.1.3-1-1.2.1Zm-2.4-2.1-.7-.5-.1.9Zm4.2,3,1,.1-.4-1Zm-13.3,10.9.2-.9-1.1.2Zm5.2-8h1l-.5-.9Zm-6.8,12.1,1.3-1.4-2-.7Z" fill="#ffcce1"/>
      <path id="Path_15609" data-name="Path 15609" d="M200.7,163.8l-.7,3.5,3.9-.8Zm-1.1,5.4-.8,3.6,4-.8Zm1.9-10.3-.7,3.5,3.9-.8Zm-2.9,17.2-.7,3.6,3.9-.9Z" fill="#ffcce1"/>
      <path id="Path_15610" data-name="Path 15610" d="M202.5,154.8l-.8,3.5,4-.8Zm.5-3.6-.6,3.5,3.9-1Zm.8-3.6-.3,3.2,3.3-1.1Zm-4,29.7,1.2-1.4-2-.7Zm-1.4-2.7,1.8.6-.1-2.1Zm-.5,5.6,1.8.7-.1-2.1Zm.1.8.3,1.9,1.8-1.2Zm2.8-.1,1.6,1,.3-2Zm-1.7,3.1,1.6,1,.3-2Zm10.6-10.1-.6-1-.7,1.1Zm-5.2,5.1.7-.6-1-.4Zm-1.9-8.9.8.4.1-1Zm8.9-6.3-.4-.8-.6.8Zm2.7-2-.7-1.4-1.1,1.4Z" fill="#ffcce1"/>
      <path id="Path_15611" data-name="Path 15611" d="M211.8,166.6l-.5-.8-.6.9Zm-.7-2.5-.5-.8-.5.8Zm-1.9,10.8,1.4-1.3-2.1-.7Zm1.7-2,.6.4.1-.9Z" fill="#ffcce1"/>
      <path id="Path_15612" data-name="Path 15612" d="M217.7,161.8l-.6-1.1-.9,1.1Zm-6.2,5.4.8-.7-1.1-.5Zm-1.4-10.3.8.6.2-1.2Zm-2.3-24.1,1.3.5v-1.6Zm-.9,3.5L208,135l-1.8-.5Zm-1.1,3.8,1.1-1.3-1.8-.5Zm1.9-7.8,1.3-1.1-1.7-.8Zm2.3,0,1.2-1.1-1.7-.8Z" fill="#ffcce1"/>
      <path id="Path_15613" data-name="Path 15613" d="M208.5,134.7l1.1-1.3-1.8-.5Zm.9-4.6,1-1.1-1.5-.6Zm-.6,17.4,1.1-1.3-1.9-.5Zm1.6-5.7-1.5-.6v1.9Zm-1.4,2.5-1.5-.7v1.9Zm1.4-6.9,1.3.4-.2-1.5Zm.9,9.5,1.8.2-.7-1.9Z" fill="#ffcce1"/>
      <path id="Path_15614" data-name="Path 15614" d="M212.2,146.7l-.5-.8-.6.9Zm-4.2,4.7.5-.6-.9-.3Zm-2.2-7.7.8.3v-.9Zm6.7,5.2.3-1.3-1.4.3Zm-8.5.1h1.1l-.5-1.1Zm5.7-9.1.4,1,.9-.8Zm1.9,11.7-.7-1-.6,1.2Zm-5.2,5.9.6-.8-1-.3Z" fill="#ffcce1"/>
      <path id="Path_15615" data-name="Path 15615" d="M203.8,147.8l.9.5v-1.1Zm-4.3,31.6,1.3-1.4-2.1-.7Zm-1.4,3.9,1.3-1.4-2-.7Zm2.8,8.8,1.4-1.4-2.1-.7Zm2.5-6.6-1.7-.9-.1,2.2Zm-1.9,2.9-1.7-.9-.1,2.2Zm2.4-7.8,1.5.7-.1-1.8Zm-1,13.1,1.5.6v-1.9Zm-.4-10.8,1,.4.1-1.2Zm1.5-7.2-.1.9,1-.2Zm6.6,6.5-1,.1.5.9Zm4.1-1.6.5-1h-1.3Zm-7.1-1.4.9.1-.2-1Zm6.4-6.6.1,1,.9-.5Zm1.6,21.4.5-1h-1.2Zm-7-1.4.9.1-.3-1ZM215,186v.9l.9-.4Zm-11,5.5,2,.5-.6-2.3Zm4.6-3.6.1.9.9-.5ZM204,196l-.8-.7-.3,1.2Z" fill="#ffcce1"/>
      <path id="Path_15616" data-name="Path 15616" d="M204.9,191.4l-.6-1-.7,1Zm-5.3,5,.7-.6-.9-.4Zm-1.7-9,.8.5.1-1Zm7.2,6.6.5-1.4-1.7.1Z" fill="#ffcce1"/>
      <path id="Path_15617" data-name="Path 15617" d="M195.5,193.4h1.2l-.5-1.3Zm7.3-9.9.3,1.2,1.1-.8Zm3,11.6-.7-1.1-.9,1.2Zm-6.5,6.3.8-.8-1.2-.5Zm-2.2-11.2,1,.6.2-1.3Zm10-7.2-.6-1-.7,1.1Zm-5.2,5.1.6-.7-.9-.3Zm-1.9-9,.8.4.1-1Z" fill="#ffcce1"/>
      <path id="Path_15618" data-name="Path 15618" d="M198.5,181.5l1.5.5-.1-1.8Zm1.4,2,2.5-.3-1.4-2.4Zm1.9-2.7,1.7-1.8-2.6-.9Zm-3.3,12.3,1.7-1.8-2.6-1Zm-1,5.3,1.7-1.8-2.6-.9Zm1,1.2-2.1-1.3-.4,2.8Zm2.8-1.5-1.8.1.9,1.9Zm-.4-4.8-1.9.1,1,1.9Z" fill="#ffcce1"/>
      <path id="Path_15619" data-name="Path 15619" d="M195.4,199.7l1.7-1.8-2.7-.9Zm3.7-14,1.6.5-.2-1.8Zm-2,.2,1.5.5-.2-1.8Zm1.3,1.7.2-.9-1.1.2Zm5.5-7.7h.9l-.4-1Zm-7.2,11.8,1.3-1.4-1.9-.7Z" fill="#ffcce1"/>
      <path id="Path_15620" data-name="Path 15620" d="M196.5,186.3l-.9,3.5,4-.7Zm-1.3,6.2-.8,3.5,3.9-.7Zm2.1-10.7-.8,3.6,3.9-.9ZM194,197.9l-.7,3.5,3.9-.9Z" fill="#ffcce1"/>
      <path id="Path_15621" data-name="Path 15621" d="M198,177.8l-.8,3.5,3.9-.8Zm-3.1,22.7,1.4-1.3-2-.8Zm-.5-4.1,1.7.8v-2.1Zm12.4-9.2-.4-.8-.7.8Z" fill="#ffcce1"/>
      <path id="Path_15622" data-name="Path 15622" d="M209.4,185.3l-.6-1.4-1.2,1.3ZM207,190l-.5-.8-.6.8Zm-.7-2.5-.4-.8-.6.8Zm-2.1,10.7,1.4-1.3-2-.7Z" fill="#ffcce1"/>
      <path id="Path_15623" data-name="Path 15623" d="M205.9,196.2l.6.5.1-.9Zm7.1-10.8-.6-1.2-.9,1.1Zm-6.3,5.2.8-.7-1.1-.5Zm-1.2-10.3.8.6.3-1.2Zm2.5-6-.7-1.2-.9,1.3Zm-6.4,6.3.8-.7-1.2-.5Zm-2.3-11.1,1,.6.1-1.3ZM213.8,139l-.6-.8-.5.9Zm-4.3,4.8.6-.6-.9-.3Zm-2.1-7.8.7.3.1-.9Zm-1.6,2.6,1.4.4-.2-1.6Zm1.6,1.6,2.2-.4-1.4-2.1Zm1.7-2.8,1.4-1.7-2.4-.7Zm-2.4,11.2,1.4-1.7-2.4-.7Zm.1-6.5,1.4.4-.2-1.6Zm-1.8.3,1.4.4-.3-1.6Z" fill="#ffcce1"/>
      <path id="Path_15624" data-name="Path 15624" d="M206.3,143.8l.1-.8-.9.2Zm4.4-7.5.8-.1-.5-.8Zm-5.6,11.2,1-1.3-1.7-.5Z" fill="#ffcce1"/>
      <path id="Path_15625" data-name="Path 15625" d="M204.5,142.8l-.5,3.1,3.4-.9Zm.6-3.7-.5,3.1,3.4-.9Zm.7-3.8-.5,3.2,3.4-.9Zm.8-3.6-.7,3.1,3.5-.7Zm.4-3.1-.5,2.7,3-.7Zm6.4,14.4-.4-.7-.5.7Z" fill="#ffcce1"/>
      <path id="Path_15626" data-name="Path 15626" d="M213.8,145.4l-.4-.7-.5.8Zm-.7-2.2-.5-.6-.5.7Zm-5.4-17.1,1.2.3-.3-1.4Zm2.4-3.5.2-.7-.8.1Zm-.3,4.8,1.3-.8-1.5-.9Z" fill="#ffcce1"/>
      <path id="Path_15627" data-name="Path 15627" d="M210.1,128.9l1-1-1.5-.6Z" fill="#ffcce1"/>
      <path id="Path_15628" data-name="Path 15628" d="M207.6,125.9l-.5,2.8,3.1-.8Zm.8-2.5-.4,1.7,1.8-.3Zm.8,0,1.2-.9-1.5-.8Z" fill="#ffcce1"/>
    </g>
    <g id="Group_1049" data-name="Group 1049">
      <path id="Path_15629" data-name="Path 15629" d="M249.6,173.5l-1,.7,1.3.8Zm1.1-3.9-1.2.5,1,1Zm-4.5,2.8-.1,1.5,1.7-.6Zm-4.1-3.6-.1,1.5,1.7-.6Zm-3.2,1-1.5.5,1.2,1.3Zm-6.6,1.4,1.3.8.3-1.7Zm12.9-5-.1,1.5,1.7-.6Zm1.5,2.6-.1,1.5,1.7-.6Z" fill="#c65d80"/>
      <path id="Path_15630" data-name="Path 15630" d="M242.2,166.7l-.1,1.6,1.7-.7Zm-4,.7-.1,1.6,1.6-.7Zm10.5-.7-.1,1.6,1.6-.7Zm-2.6-3.2.4,1.5,1.4-1.1Zm4.3,6.4.3,1.5,1.4-1Zm-1.5,1.2.3,1.5,1.4-1Zm-.5-2.3-.1,1.5,1.6-.6Zm2.1,4.4-.2,1.5,1.7-.5Z" fill="#c65d80"/>
      <path id="Path_15631" data-name="Path 15631" d="M251.2,173.2l.1,1.6,1.5-.8Zm-5.8-5.6-1.3.4,1.1,1.1Zm5,6.9-.8,1,1.4.3ZM245,166l-.9.3.7.8Zm3.1,5.4-.4-.6-.5.7Zm-7.6-.5.5-.6-.8-.3Zm-1.5,3.5.3.8.7-.7Zm5-3.4-.7.4.7.5Zm-.2,7.7-.5-.5-.3.8Zm-2.9-3.3,1,.1-.5-1Zm-1.4-6,.1.8.7-.6Zm7,2.6-.7.3.7.5Zm1.9-7.4-1,.5,1,1.1Zm-2-.6-1.4,1.5,2.1.8Zm-15.3,4.3-1.5.5,1.1,1.3Zm15.2-1.4v2l2.1-.9Zm-1.5-3.4-1,.8,1.3.7Zm1.1-.9-1.1.7,1.2.8Zm-1.8,11.9.3.8.7-.7Zm3.4,2.3.8-.2-.6-.6Z" fill="#c65d80"/>
      <path id="Path_15632" data-name="Path 15632" d="M242.5,175l-.7.4.7.4Zm3.3-6.4-.6.5.8.3Zm2.5-4.3-1.5-2.3-1.9,2.4Zm1.8,2.9-1.6-2.5-1.8,2.7ZM252,170l-1.7-2.4-1.7,2.7Zm-20.6,0-.1,1.5,1.6-.5Zm22.4,2.6-1.7-2.4-1.7,2.7Z" fill="#c65d80"/>
      <path id="Path_15633" data-name="Path 15633" d="M255.4,174.9l-1.7-2.4-1.7,2.7Z" fill="#c65d80"/>
      <path id="Path_15634" data-name="Path 15634" d="M257.1,177.1l-1.8-2.4-1.6,2.9Zm-12.2-5.5,1.2.2-.4-1.4Zm-3.9.6,1.3.1-.5-1.4Zm-11.4-4.3,1.3-.1-.7-1.2Z" fill="#c65d80"/>
      <path id="Path_15635" data-name="Path 15635" d="M248.6,174.6v1.6l1.6-.8Zm1.8,2.5,1.5-.5-1.2-1.3Zm6.3,1.7,1.4-.4L257,177Zm-2.2.7,1.5-.4-1.1-1.4Zm-1.4-2.3,1.5-.5-1.2-1.3Zm-1.2,1.7-.9-.2.3,1Zm.3,5.9-.1-.8-.8.4Zm-6.5-3.8.7-.2-.5-.7Zm-9-6.7-.2.9,1-.3Zm5.8-.6h-.7l.4.8Zm-3.3,6.6-.3-.6-.6.5Zm14.9-1.3-1.6.5,1.3,1.3Zm-9.8.7-.5-.6-.4.7Zm2.4-2.4.9.2-.1-1Zm0-6.2v.8l.8-.3Zm6.3,4.5-.7.2.5.6Z" fill="#c65d80"/>
      <path id="Path_15636" data-name="Path 15636" d="M223.2,165l.6.7.4-.9Zm3.4-4.8-.4.6.8.1Zm2.8,6.9-.7-.2.1.8Zm-4.4,2.3.6.7.4-1Zm3.4-4.9-.4.6.8.2Zm2.7,6.7-.7-.2v.8Zm2.2,3.5.6.7.4-1Zm3.5-5-.5.6.9.2Zm2.6,7.4-.7-.3v.8Zm11,12,.9-.2-.7-.8Zm-1-7.2.8-.2-.6-.8Zm-2,2.1.4.7.5-.7Zm7.5.4-.5.5.7.3ZM251.5,174l.2,2,2-1.1Zm.5-1.8-.1,1.5,1.6-.5Zm0,5.4.8.9.6-1.4Zm-7.5-.1.6.4.1-.9Zm-3.6,2.9.7.7.5-1.1Zm3.6-5.7-.5.8,1,.1Zm3.5,7.7-.8-.3.1,1Zm8.8-3.2-1.2-.6V180Zm1.6.9-1.1.8,1.3.7Z" fill="#c65d80"/>
      <path id="Path_15637" data-name="Path 15637" d="M258.3,180.8l-1.2-.6v1.5Z" fill="#c65d80"/>
      <path id="Path_15638" data-name="Path 15638" d="M257.6,182.5l2-.3-1.3-1.9Z" fill="#c65d80"/>
      <path id="Path_15639" data-name="Path 15639" d="M257.3,180.6l2.2-.4-1.7-2.1Zm-1,1.1.3,1.5,1.4-.9Zm2.1,1.7.5,1.5,1.3-1.2Zm-.8.1-1,.8,1.4.6Zm2.1-1.9-1.1.7,1.3.8Zm-6.5-.1.7.4.1-.8Z" fill="#c65d80"/>
      <path id="Path_15640" data-name="Path 15640" d="M261.2,182.2l-1.8-2.1-1.5,2.9Zm5.4,6.4-.5.7.9.2Zm-1.5-.6.6,1.1.8-1.1Zm-2-2.1.4,1.2,1-.9Z" fill="#c65d80"/>
      <path id="Path_15641" data-name="Path 15641" d="M264.9,189l.5.9.7-.8Zm-4-.1,1.1-.9-1.4-.8Zm2.1.8,1-.9-1.4-.7Zm-3.8-3.6,1.2-.8-1.3-.8Zm-3.4,1.5h.8l-.3-.9Zm-1.4-5.2.2.7.6-.5Zm6.5,2.1-.6.3.6.5Zm-2.1,10.2.8-.1-.5-.8Zm-2.1-4.9.3.6.5-.5Zm6.6,1.2-.5.4.7.4Zm1,7.8,1.1-.2-.6-1.1Zm-4.1-5.5.3.6.5-.5Zm6.7,1.2-.6.4.7.4Zm-12.3-3.1h.8l-.4-.8Zm-1.4-5.2.2.7.6-.5Zm6.4,2.1-.5.4.6.4Zm-2.5,3.7-.1.9,1-.2Zm5.9-.3h-.7l.4.8Zm-3.6,6.5-.3-.7-.6.5Zm-.1,2-.8.5.9.5ZM248.4,197l-.3.8.9-.1Zm5.3.4-.7-.1.3.7Zm-.5-2.6-.3.7h.9Zm5.3,1.1-.7-.2.2.8Zm-4.8,4.8V200l-.7.4Zm-15.1-18.2.9-.2-.7-.8Zm8.4,5.6.8-.1-.5-.8Zm-2.1-4.9.3.6.5-.6Zm3.5,3.5.3.6.5-.6Zm-5.6-1.9h.8l-.4-.9Zm2.5.6-.1.9,1-.2Zm2.2,6.2-.2-.7-.6.5Zm3.2.6-.8.5.9.5Zm-14.1-1.8-.3.8.9-.1Zm5.3.3h-.7l.3.7Zm-1.1,9-.1-.7-.7.4Zm.6-11.6-.3.8h.9Zm5.3,1.1-.7-.1.2.8Zm-4.8,4.9v-.7l-.7.3Zm21.8-7.3-.6.9,1.2.2Z" fill="#c65d80"/>
      <path id="Path_15642" data-name="Path 15642" d="M262,186.1l-.3,1.6,1.7-.4Z" fill="#c65d80"/>
      <path id="Path_15643" data-name="Path 15643" d="M262.1,186.1l-.8.7,1.1.5Zm.5-2.3-.9.8,1.2.6Z" fill="#c65d80"/>
      <path id="Path_15644" data-name="Path 15644" d="M260.8,184.8l.5.4.3-.7Zm2.1-.7-1.7-2.1-1.6,2.6Zm1.7,1.7-1.5-1.8-1.1,2.3Zm1.9,1.6-1.8-1.5-.5,2.3Zm1.6,1.2-1.6-1.1-.4,2.2Zm-3.9,1.8-1.1,1.5,2,.4Zm2,5.9-1.1,1.5,1.9.4ZM254.1,184l.3,1.7,1.7-1.1Zm-9.2-9.4.3,1.8,1.7-1.2Zm22.2,14.8-.8,1,1.5.4Z" fill="#c65d80"/>
      <path id="Path_15645" data-name="Path 15645" d="M266.1,189.4l-.7,1.1,1.5.2Zm-.5,2.1.7,1.4,1.1-1.4Zm2,1.7.9,1.3.9-1.5Zm-.4-.2-.8,1.1,1.5.2Zm.7,3.5-.7,1.1,1.4.2ZM255,180.7l-.8,1,1.5.3Zm-4.3,1.8-.8,1.1,1.5.2Zm8.6,7.7-1,1.5,2.1.4Zm4.3,2.3-.8,1.1,1.5.2Zm4.7,1.8-.7,1,1.5.3Zm.5-3.9-.8,1,1.4.4Zm-3.6,5,.6-.5-.8-.3Z" fill="#c65d80"/>
      <path id="Path_15646" data-name="Path 15646" d="M270.3,190.1l-2.2-1.5-.6,3.2Zm-1.3,5.8.9-1.1-1.6-.5Zm-25.7-22.6.1-.8-.9.2Zm-5.2.6.7-.1-.4-.6Zm3.1-6.2.3.7.5-.5Zm2.6-1.6.4,1,.8-.8Z" fill="#c65d80"/>
      <path id="Path_15647" data-name="Path 15647" d="M240.6,165.9l.7,1,.7-1.1Zm.9,2,.6-.4-.7-.4Z" fill="#c65d80"/>
      <path id="Path_15648" data-name="Path 15648" d="M240.7,165.9l-1.9,1.1,1.8,1.6Zm2.3-1.4-2,1.2,2.1,1.5Zm-7.4,4.7-1.9,1.1,1.8,1.6Zm2.2-1.5-2,1.2,2.1,1.5Z" fill="#c65d80"/>
      <path id="Path_15649" data-name="Path 15649" d="M244.8,163.3l-2,1.2,2.1,1.5ZM270.5,196l-2,1.1,2.1,1.6Zm-.2-5.1-2,1.2,2,1.6Z" fill="#c65d80"/>
      <path id="Path_15650" data-name="Path 15650" d="M270.4,193.5l-2,1.2,2.1,1.5Zm-4.3,5.8.7,1.4,1.1-1.3ZM248,178.9l.6,1.4,1.2-1.4Zm1.6-.4,1.5.5-.2-1.8Zm2.3,4.7,1.5.5-.3-1.7Zm9.1,7.2,1.5.5-.2-1.8Zm3.1,5.9,1.4.5-.2-1.8Zm-7.2-9.5.7,1.4,1.1-1.4Zm-2.1,1.4-1.1,1.2,1.7.5Zm8.2,7.2-1.1,1.1,1.7.6Zm-7.7-1.1.2,1.5,1.5-1Zm13,4.4.9,1.3.8-1.5Z" fill="#c65d80"/>
      <path id="Path_15651" data-name="Path 15651" d="M270.7,198.8l-2,1.1,2.1,1.6Z" fill="#c65d80"/>
    </g>
    <g id="Group_1050" data-name="Group 1050">
      <path id="Path_15652" data-name="Path 15652" d="M200.8,139.7l-1.3-.2.4,1.4Zm3.4-1.9-1.1-.5v1.4Zm-5.2-1.2-1.2,1,1.6.8Zm5.8-2.2-1.1,1,1.6.7Z" fill="#d87390"/>
      <path id="Path_15653" data-name="Path 15653" d="M205,130.3l-.7,1.3,1.7.2Zm-1.1,7.5L203,139l1.7.3Zm-2-.2-.8,1.2,1.7.3Zm1.3-2-1.1,1,1.5.7Zm-1.6,4.5-1.2.9,1.5.8Z" fill="#d87390"/>
      <path id="Path_15654" data-name="Path 15654" d="M202,140.6l-1,1.2,1.6.5Zm-.1-7.6-1.2-.6v1.4Zm-1.3,7.9-1.2.1.7,1.3Zm2.1-9.3-.8-.4-.1,1Zm-1.5,5.6.2-.7-.9.1Zm-4.9-5.4h.7l-.3-.8Zm-3.5.9-.4.8h.9Zm5.6,1.5-.8-.2.2.8Zm.1-.8.6.6.4-.9Zm2.9-5-.4.6.8.1Zm3.3,6.5-.7-.2.1.8Zm1.4-2.4-1.2-.5v1.4Zm-1.2-1.6h-2l.9,2Zm2.4-6.9-1.4-.6v1.7Zm-4.3,9.1-1.4,1.4,2,.9Zm1.1-3.7-1.3-.2.5,1.4Zm1.5-.6-1.2-.1.5,1.3Zm-9.5,7.6-.4.8h1Zm.7,4,.7.3v-.8Zm-2.1-4.9-.7-.1.1.8Z" fill="#d87390"/>
      <path id="Path_15655" data-name="Path 15655" d="M201.5,133.9h-.7l.3.8Zm4.7-2.8.7-2.8-3.1.6Zm-.8,4.4.5-2.8-3.1.7Zm-.6,3.3.6-2.8-3.1.7Zm-.2-13.3-1.1,1.1,1.5.6Z" fill="#d87390"/>
      <path id="Path_15656" data-name="Path 15656" d="M206.9,127.8l.8-2.7-3.2.3Zm1.1-3.9.7-2.3-2.7.3Zm.8-3.2.5-1.5-1.8.1Zm-4.5,21.4.5-2.8-3.1.7Zm-.5,3,.5-2.8-3.1.7Z" fill="#d87390"/>
      <path id="Path_15657" data-name="Path 15657" d="M203.3,147.9l.4-2.9-3.1.8Zm-4.5-12.5.7,1,.7-1.3Zm.3,4.2-1,1.1,1.6.6Zm-.3,3.1,1.4.7.1-1.7Z" fill="#d87390"/>
      <path id="Path_15658" data-name="Path 15658" d="M201.4,148.2l1.3.7.2-1.7Zm-1.6-.9,1.4.7.1-1.7Zm.8-2.6,1.3.7.1-1.8Zm-2.2.1-.5-.7-.5.8Zm-7.2-13.7-.7.5.8.4Zm4.4,3.6-.5-.5-.2.8Zm4.2,11.7-1.4-.7-.1,1.8Zm-3.7-6.1.5.8.6-.8Zm4.2-4-.5.6.8.3Zm1.3,7.2-.6-.4-.1.8Zm-2-21.4-.3.8,1-.1Zm5.8.3-.7-.1.3.8Zm-4.3,5.9-.2-.7-.6.5Zm7.3-10.1-1-.6-.2,1.3Zm.8-1.2-1-.2.2,1.1Z" fill="#d87390"/>
      <path id="Path_15659" data-name="Path 15659" d="M209.3,118.8l.9-2.1-1.5.1Zm-1.8.9-1,.7,1.1.7Zm2.9-3.5.7-1.5-1.3.3Zm1.1-2.7.8-1.7-1.4.7Zm1-2.3.5-1.2-.9.6Zm-6.7,3.3-.2.6h.7Zm3.1.2-.6-.1.2.6Zm2-.8-.5-.1.1.6Zm.6-2.1-.6-.1.2.6Zm-5.6,8v-.6l-.6.3Zm-5.8,21.6-.7.2.5.6Zm1.6,0-1.3,1.5,2.2.7Zm1.6-.9-1.2.9,1.5.8Zm-3.8,3.6v1.3l1.3-.6Zm-5.2-5.4.2.7.6-.5Zm1.9-1.9-.8.2.6.7Zm5.7,12.3-.5-1.2-.9,1.1Zm-.5,3.4-.5-1.2-1,1.1Z" fill="#d87390"/>
      <path id="Path_15660" data-name="Path 15660" d="M202,151.2l-.5-1.2-1,1.1Zm-1.5,1,1.7,1.1.3-2.3Z" fill="#d87390"/>
      <path id="Path_15661" data-name="Path 15661" d="M201,150.2l1.7,1.1.4-2.3Zm-3.5-3.2.1.7.7-.5Zm4.4,8.5.4-2.2-1.7-.3Zm-5-9.1,1.4.4-.3-1.6Zm1.8-4.3-.4.6.7.1Zm2.2,6.3-.6-.3v.8Zm-3.6-7-.4.6.7.1Zm2.3,6.3-.7-.3.1.8Z" fill="#d87390"/>
      <path id="Path_15662" data-name="Path 15662" d="M200.4,150.6l.3-2.3-2.5.7Z" fill="#d87390"/>
    </g>
    <g id="Group_1051" data-name="Group 1051">
      <path id="Path_15663" data-name="Path 15663" d="M194.4,149.1l.5-.6-.8-.3Zm-1.2,3,.5-.5-.8-.3Zm3.4-3.7-.4-.6-.5.7Zm1.3,7.8-1,1.1,1.6.5Zm1.2-1.6-.9,1.3,1.6.3Zm-1.8-2.3-.6-1.1-.9,1.2Zm-3.3,3,1.1-1.5-2-.4Zm1.7,2.9,1.1-1.5-2.1-.4Z" fill="#ffa124"/>
      <path id="Path_15664" data-name="Path 15664" d="M201.1,154.8l-1.2-.4.2,1.4Zm-2.1-3-.7.9,1.3.4Zm-3.3-2.5,1.4.3-.3-1.5Zm-1.6-2.6.2.8.7-.6Zm-1.6,2.7.2.8.7-.6Zm0-4.2.5.7.4-.8Zm5.3,8.9h-1l.5,1.1Zm.2-4-1.5.6,1.3,1.2Zm-2.3.1-1-.2.3,1.2Zm5.5,8.5-1.2-.2.3,1.3Zm-1.8-1.4v.7l.7-.3Zm2,.8.3-1.9-2.1.3Zm-3.5,3.5,2.1-1-2-1.6Z" fill="#ffa124"/>
    </g>
    <g id="Group_1052" data-name="Group 1052">
      <path id="Path_15665" data-name="Path 15665" d="M267.2,179.9l.7.1-.4.7Zm-1.9,4.5.3-.6.4.6Zm6.1-1.1-.5-.4.6-.3Zm4.3-5.2.6-.5.2.9Zm1.9,4.5-.2-.6h.7Zm3.5-5.2-.7.1.2-.7Zm-25.3-5,.3-.7.6.6Zm3.8,3-.5-.4.7-.3Zm.6-6.2-.5.4-.2-.7Zm1.7,7.6.6-.5.2.8Zm.8,1.4.6-.5.2.8Zm1.2,3-.3-.5.7-.1Zm-.8-1.4-.3-.5.7-.1Zm4.1-4.1-.6.2.2-.7Zm-5.3,2.6-.6.2.1-.7Zm-2.8-22.6.6.3-.6.5Zm-.2,20.5.6.3-.6.5Zm-1.6-.9.6.4-.6.5Zm-6.5-8.5.7.3-.7.5Zm2.1,2.7.7.3-.7.6Zm12.8-18.6.6.3-.6.5Zm-9.9,8.4.4-.5.3.7Zm6.1.9-.3-.5.7-.1Zm-2.4-1.4-.3-.5.7-.1Zm-.9-2.3-.4-.5.7-.1Zm-3.2,5.8-.1.7-.7-.5Zm-4.5-2,.6.3-.6.4Zm3.3,11.2.6.3-.6.4Zm.5-3.6-.1.6-.6-.4Zm3.8,3.4-.1.6-.6-.3Zm-6.6-4.9.4-.5.3.6Zm11.4,4.8.4.2-.4.4Z" fill="#af6b56"/>
      <path id="Path_15666" data-name="Path 15666" d="M261.2,173.5l.2-.3.2.4Zm3.9.7-.2-.4.4-.1Zm3.8,4.5-.4.2v-.6Zm-.3-3.1v.4l-.4-.2Zm-3.1,2.5h.4l-.2.4Zm9.6,2.7-.4.2v-.5Zm-.3-3.1v.4l-.4-.2Zm-3.1,2.5h.4l-.3.4Zm.4,6-.5.1.1-.5Zm-.3-3.2v.4l-.4-.1Zm-3.1,2.5.4.1-.2.3Zm6.9,2.9-.4.2.1-.6Zm-.1-3.1v.4l-.4-.2Zm-3.2,2.3.4.1-.3.3Zm9.5,2.9-.4.1v-.5Zm-.1-3.1v.4l-.4-.2Zm-3.2,2.2.3.1-.2.4Zm11.4-2.2-.4.2.1-.6Zm-.1-3.1v.4l-.4-.2Zm-3.2,2.3h.4l-.3.4Zm-13.4-30.7-.2.4-.4-.4Zm-5-1.9.2.2-.4.2Zm.3,4.7.3-.3.1.5ZM286,176.2h.5l-.2.4Zm3.6,3.1.1-.4.3.3ZM266,158l.2.4-.5.1Zm-.4,6.6.4-.1-.1.4Zm-7.7-.4.1.8-.8-.2Zm-7,4.5,2-.4-.5,2.2Zm5.7,7.5,2-.4-.5,2.2Zm2.7,3.6,2-.4-.5,2.2Zm2.9,3.4,1.9-.5-.4,2.2Zm2.9,2.8,1.4-.5-.1,1.7Zm-11.7-15.5.8-1.2,1,1.4Zm-.6-3.4.8-1.3.6,1.3Zm2.3-1.9.8-1.3.5,1.3Zm2.3,9.6.8-1.3.6,1.3Zm-.2-4.2.8-1.2.6,1.2Zm0-11.6.8-1.3.6,1.3Zm-.5-1.6-.1-1.5,1.2.7Zm3.9.2-.1-1.5,1.2.7Zm1.8-3.5v-1.5l1.1.7Zm1.7,1v-1.5l1.1.7Zm4.5-4.4-.1-1.5,1.2.7Zm-4.9,7.8-1.1-.8,1.2-.4Zm-1.2,16,.8-1.3.6,1.2Zm3.9,6.7-.8-1.3H267Zm-1.6,4.4-.8-1.3h1.4Zm3,2.8-1.2-1,1.3-.4Zm2.8-2-.8-1.3,1.4.1Zm4.6-.1-1.4.3.5-1.3Zm-6.9.1-1.5.2.6-1.1Zm8.4,3.9-1.5.2.6-1.3Zm1.5-4.3-1.1,1.1-.3-1.4Zm4.7-1.3-1.1,1.1-.2-1.3Zm-2.3,1,1,1.1-1.4.2Z" fill="#af6b56"/>
      <path id="Path_15667" data-name="Path 15667" d="M279.3,190.1l.8,1.3h-1.4Zm-.7-1.6,1.4-.4-.4,1.3Zm3.1,2.7.1-1.1,1-.9.9,1.9Zm2.5-.4.3-1,.9-.3.6,1Zm-10.4-.6-1.3-.8,1.2-.6Zm-.3-11.7-1.5.2.6-1.2Zm1.7,7.2-1.5.2.6-1.3Zm13.3.1-.8,1.3-.5-1.3Zm3.3,2.7-1.5-.3,1-1Zm1.8-1-1.5-.4,1-.9Zm-7.5,1.4-1.4-.3.9-.9Zm7.2-.2-1.5.3.5-1.3Zm-23.5-4.9-.8-1.4,1.4.2Zm1.6-1.4-1.5-.1.9-1.1Zm.9,8.4-1.4-.6,1.1-.8Zm-8-12-.8-1.3h1.4Zm-5-4.9-.8-1.2h1.4Zm2.7,8.9.8-1.3.6,1.2Zm-1.9-5.8.8-1.2.5,1.2Zm-4.9-5.6.8-1.2.5,1.2Zm2-10.6.8-1.2.6,1.2Zm3.1,2.2.6-.9.4.9Zm-7.5,1.1-.2-1.5,1.2.6Zm-1.8,2.1-.2-1.5,1.3.6Zm4.9,1.2.8-1.2.6,1.2Zm-7.2-3,.8-1.3.5,1.3Zm.2-2.7,1.6-1.2.1,1.8Zm5-.9,1.6-1.1.1,1.8Zm-5,4.8,1.9-.4-.5,2.2Zm5.2,7.4,2-.4-.5,2.1Zm14.2,15.8,1.6-1.2.4,2.3Zm4.9,2.4,1.1-1.6,1.1,1.9Z" fill="#af6b56"/>
      <path id="Path_15668" data-name="Path 15668" d="M269.8,188.3l1.7-1.2.4,2.2Zm6.1,3.1,1-1.8,1.3,1.8Zm12.1-1.2.6-1.8,1.6,1.1Zm8.5-2.9.6-1.6,1.4,1.1Zm1.2-1.8.3-1.1,1,.8Zm11.1-3.8.3-1.1,1,.8Zm3.8-3.4,1-.4v1.3Zm4.4-1.6,1.1-.3-.1,1.2Zm4.9-2.4,1-.3v1.2Zm2.6-1.7.8.7-1,.6Zm-4.3,1.1.7.6-.9.5Zm-4.5,2.8.7.6-.9.5Zm-8.6,3.5.7.6-.8.5Zm-2.4,3,.7.6-.9.5Zm-3.1.4.7.5-.9.5Zm-1.4,1.7.7.6-.8.4Z" fill="#af6b56"/>
      <path id="Path_15669" data-name="Path 15669" d="M296.8,183.6l.7.6-.9.5Zm7.6-4,.7.6-.9.4Zm12-5.3.1.9-1-.3Zm-5.1,2.6.1.9-1-.3Zm12.2-6.4.2.9-1-.3Zm3.9,1.4.1.9-.9-.2Zm5.8-2.9-.1.7-.8-.1Zm-3.3,1.4.1.9-1-.3Zm-1.8-.8.8.4-.7.7Zm14.92-6.8.74.57-1.04.43Zm1.68-.6.7-.7.4,1Zm-13.4,6.7.6-.6.4.9Zm-17.7,10.3.6-.7.4,1Zm7-3.5.7-.6.4.9Zm23.5-13.5.7.5-.8.5Zm5.3-2.6.8.3-.7.7Zm3.3-1.6.7-.4.1,1Zm2.7-2.1.5.8-1,.1Zm.92-.44.7.4-.7.6ZM354,156.6l.4.7-.9.2Zm-2.7.2.3.5-.7.1Zm-1,1.1-.1.7-.6-.5Zm-1.3-1.2-.1.7-.6-.4Zm7.4-2-.1.6-.6-.4Zm1.6-.4-.1.6-.6-.4ZM347.6,158l.8-.3v.9Zm-1.3,4.3.3-.8.7.6Zm-20.8,10.5.7-.6.3,1Zm-30.9,11.5h-1.3l.6-1.3Zm9.2.2-1.2.5.2-1.5Zm8.6-4.1-1.5.8.2-1.4Zm7.4-3.7-1.5.8.1-1.4Zm4.9-2.7-1.5.8.2-1.3Zm7.5-3.9-1.5.9.1-1.5Zm-2.6,1.5-1.6.9.2-1.5Zm5.3-3.1-1.5.9.1-1.5Zm14.7-7.3-1.45.57.05-1.17Zm3-1.6-1.5.9.1-1.5Zm2.95-2.36-1.16,1.15.2-1.4ZM307.9,182.5l-1.5.9.2-1.5Zm-61.3-19.9,1.9-.4-.4,2.2Zm8.4-5.3.2,2-2.2-.8Zm4.4-2.8.2,2-2.1-.8Zm8.2-5.2.2,1.8-1.9-.7ZM252.4,159l.1,2-2.1-.8Zm.6,5h.6l-.3.6Zm3.1,5.4.2-.6.5.4Zm4.9,3.8.1.7-.8-.2Z" fill="#af6b56"/>
      <path id="Path_15670" data-name="Path 15670" d="M256.1,172.9h.6l-.3.7Zm3.1,5.4.2-.6.5.5Zm-5.5-16.8-.3.7-.5-.7Zm-2,1.2-.3.7-.5-.6Zm-3.2-.6.5.4-.6.3Zm1,2.7.4-.4.2.6Zm20.1-15.4.5.3-.5.4Zm-2.2,2.4.4-.4.2.5Zm-.1.9-.1.6-.6-.4Zm-2-.9-.1.6-.6-.4Zm-4.5,2.3-.2.6-.5-.4Zm3.6-1.7.5.2-.5.4Zm-1.2,0,.5.2-.5.3Zm1.2,3.6.3-.3.3.5Zm1.4-3.3.4.5-.7.2Zm-3.6,1.7.4-.2v.6Z" fill="#af6b56"/>
      <path id="Path_15671" data-name="Path 15671" d="M266.4,157.2v-.6l.5.2Zm-3.5-3.3.1.5-.7-.1Zm-2.4,1,.5.1-.3.5Zm.9-1.2h.5l-.3.5Zm0,4.3.2-.5.4.4Zm-8.6,1.6.1-.5.4.4Zm2.2,6.6.1-.5.5.4Zm6.9-9.7.2-.5.4.4Zm-4.2.7.1.6-.7-.2Zm-1.6,0,.1.6-.7-.1Zm2.4,4.8.1.6-.7-.2Zm1.7,3.7.2.6-.7-.2Zm-6.3-6.8h.5l-.3.6Zm2.3,2.5.2-.5.4.4Zm7.4-.4.1.6-.7-.2Zm-4-.2h.5l-.3.5Zm2.5,4.4.1-.5.5.4Zm6.5,17.5V182l.8.3Zm4.8.9-.5-.2.3-.5Zm-2.4-5.7-.3.6-.4-.6Zm-6.2,5-.1-.8.8.3Zm4.8.8-.6-.1.4-.6Zm-2.5-5.7-.2.6-.5-.6Zm.5,1.4.4.6-.9.1Z" fill="#af6b56"/>
      <path id="Path_15672" data-name="Path 15672" d="M262.9,180.6l.6-.1-.1.7Zm4.6,4.1v-.6l.6.3Zm.3-1.8v-.8l.8.4Zm4.8,1.1-.6-.1.4-.6Zm-2.1-5.8-.3.5-.4-.5Zm4.9,5.5v-.8l.8.3Zm4.7,1.1-.6-.1.5-.6Zm-2-5.8-.3.5-.4-.5Zm-8.4,1.8.6-.4.2.8Zm2,4.5-.3-.5h.7Zm3.4-5.1-.6.1.2-.7Zm-1.4,2.8.6-.4.2.8Zm2,4.5-.3-.5h.7Zm3.4-5.1-.6.1.2-.7Zm-5.7,6.2v-.7l.8.3Zm4.8,1.2-.6-.2.4-.5Z" fill="#af6b56"/>
      <path id="Path_15673" data-name="Path 15673" d="M276.1,183.9l-.3.6-.4-.6Zm-7.8,1.6-.1-.7.8.3Zm4.7,1.2-.6-.2.4-.5Zm-2-5.8-.3.5-.5-.5Zm-10.9-3v-.8l.8.4Zm-3.8-4.4v-.8l.8.4Zm7.1,8.1v-.7l.8.3Zm6.2,5.1-.5-.5.7-.4Zm-17.5-19.2-.6-.5.8-.3ZM264.9,179l-.6-.2.4-.5Zm-2.1-5.8-.3.5-.4-.5Zm-2.1-.5-.1-.7.8.2Zm-4.1-4.1-.1-.7.8.2Zm7.6,7.6-.1-.7.8.3Zm6.6,4.6-.6-.5.7-.4ZM251.9,163l-.6-.5.7-.4Zm13.6,10.5-.6-.1.4-.6Zm-2.5-5.7-.2.6-.5-.5Zm16,19.3v-.8l.8.4Zm4.8,1.1-.7-.1.5-.6Zm-2.1-5.8-.3.5-.4-.5Zm2.6,1.9-.6-.4.8-.5Zm3.8-3.2-.5.5-.2-.8Zm-5.9-1.8.2.6h-.7Zm5.5,10.6-.7-.2.5-.7Zm2-4.5-.2.6-.5-.5Zm-6.1,1,.5.3-.6.3Zm26.4-7.7v-.4l.5.2Zm3.2,1-.4-.1.3-.3Zm-1-3.4-.3.3-.2-.3Zm.4-.1v-.5l.5.3Zm3.2,1.2-.5-.1.4-.4Zm-1-4.2-.2.4-.3-.5Zm.2,5.4-.2-.3.4-.2Zm2.1-1.6-.3.2v-.4Zm-2.3-1.2.1.3-.3-.1Zm-18.4,9.8-.2-.5.6.1Zm3.4-.3-.5.1.2-.5Zm-2.6-3.4-.1.5-.4-.3Zm4.4,3.1.1-.5.5.3Zm6.5-3.9-.4-.1.4-.4Zm-4.2.9-.3.3-.3-.4Zm-5.9-2.7.6-.1-.1.6Zm0,3.4.1-.4.4.2Zm3.7-2.3-.4-.1.3-.4Zm-11.5-4.9.6-.2-.1.6Zm0,3.3.1-.4.4.2Zm3.7-2.3-.5-.1.3-.4Zm-2.5,4.1.3.4-.6.1Zm-3.2,1,.4-.1-.1.5Zm3.4,2.7-.1-.4.5.2Zm8.1-2.8.3-.1v.4Zm0,2.2v-.3l.3.1Zm2.3-1.5-.2-.1.1-.3Zm4.1.5-.2.3-.2-.3Zm-1.6-1.4.2.1-.3.2Zm-.4,2.7.2-.1v.2Zm6.2-3.1-.2.3-.2-.3Zm-1.6-1.4.2.2-.3.1Zm-.4,2.7.2-.1v.2Zm-11.2-2.4-.2.3-.2-.3Zm-1.6-1.5.2.2-.3.2Zm-.4,2.8.2-.2v.3Zm51.8-21.7-.1.3-.3-.2Zm-2.1-.8.3.1-.2.2Zm.6,2.7.2-.2.2.2Zm-17.8,9.6-.1.3-.2-.3Zm-1.6-1.4.2.2-.2.1Zm-.4,2.7.2-.2.1.4Zm-29.4,14.6-.2.3-.2-.3Zm-1.7-1.5.2.2-.2.1Zm-.4,2.7.2-.1.1.3Zm18-13-.2.3-.2-.3Zm-3.6-1.3.2.2-.3.1Zm.3,3.3.3-.2v.3Zm-2.1-1.1.1.4-.4-.1Zm-3.5,1.4h.3l-.2.2Zm2.4,2.2.1-.3.2.3Zm0-6.9v.3l-.3-.1Zm-3.6,1.3h.3l-.2.3Zm2.4,2.3.1-.3.2.2Zm10.5-5.4.1.3h-.4Zm-3.5,1.4h.2l-.1.2Zm2.3,2.2.1-.3.3.2Zm6.1-7.6v.3l-.3-.1Zm-3.6,1.3h.3l-.1.3Zm2.4,2.2.1-.2.2.2Zm1.6-.2.3.2-.3.2Zm-1.3,3.6.2-.2.1.3Zm3.3-.3-.2-.2.3-.1Zm-4.9-7,.3.1-.2.3Zm0,3.8.1-.3.2.3Zm2.9-1.4-.2-.2.3-.1Zm-20.8,2.7.1.3-.4-.1Zm-3.5,1.3.3.1-.2.3Zm2.4,2.3.1-.3.2.2Zm22.2-2.9.1.3-.4-.1Zm-3.5,1.3.2.1-.1.2Zm2.3,2.3.1-.3.2.2ZM298,173.2l.3.1-.2.3Zm-.2,3.8.1-.2.2.2Zm3-1.2-.2-.2.3-.1Zm2.1-.3.4.1-.3.3Zm-.2,3.8.1-.2.2.2Zm3-1.2-.2-.2.3-.1Zm1.8-.7.1-.3.3.3Zm3.6,1.3-.2-.2.2-.1Zm-.4-3.3-.2.2v-.3Zm-17.1,5,.5.3-.5.3Zm-2.6,2.2.3-.3.2.5Zm4.1,1.3-.2-.4h.5Zm-4.6,5.2-.4-.3.6-.2Zm6.1-11.3-.3.3-.1-.5Zm10.2,3.5.1.4h-.4Zm25.6-13.5-.5-.2.5-.4Zm11-7.2-.3.4-.3-.4Zm-13.3,4.2.3.3-.5.2Zm-9,6.1-.4-.4.6-.2ZM324,169l-.4.3-.1-.5Zm-3.9-1.7.1.4-.5-.1Zm22.8-4.7-.5-.2.4-.4Zm1.6-2.2-.2.3-.2-.4Zm-.6.8.3.3-.5.1Zm-16.7,10-.5-.2.4-.4Zm-3.8,1.3-.5-.2.4-.4Zm7.1-2.4-.5-.2.4-.4Zm3.9-2.3-.5.2v-.6Zm-16,5.9-.5.2v-.6Zm10.8-5.3-.3.3-.2-.4Zm-4.4-.2.3.3-.4.2Zm-.2,2.5-.4-.3.5-.3Zm2.8-1.8-.3.2-.1-.5Zm-3.9-1.8.2.4h-.5Zm-31.6,21-.6.1.2-.6Zm.2-3.4v.4l-.5-.2Zm-3.8,2.1.5.1-.4.4Zm41.9-19.1-.4.3-.1-.6Zm-1.3-3.2.2.5-.5-.1Zm-2.4,3.5h.4l-.2.4Z" fill="#af6b56"/>
    </g>
    <g id="Group_1053" data-name="Group 1053">
      <path id="Path_15674" data-name="Path 15674" d="M304.5,165l-.4-.1v.5ZM288,168.2l-.2.3.4.2Zm27.5-6.2v-.3l-.3.1Zm-15.4,3.7-.3-.1-.1.3Zm-2.3,2.4v-.3l-.3.1Zm-1.4-1.3.3-.1-.1-.3Zm-1.5,1.3-.2-.3-.2.3Zm-3.9,1,.2-.2-.3-.2Zm5.6,1.7-.1-.3-.3.3Zm-4.6,1.9.2-.2-.3-.1Zm.7-3.4.2.2.1-.3Zm12.3-1.7-.1-.3-.3.2Zm-3.6.3.2-.2-.3-.2Zm.4-2.7.3.2v-.3Zm9.4,2.6-.1-.3-.3.3Zm-3.4,1.3.3-.2-.3-.1Zm.7-3.4.3.2v-.3Zm1.6-.8.1-.3h-.4Zm-.4,5,.3-.2-.4-.2Zm-2.2-3.3.2.2.1-.3Zm3.4-.5-.1.3h.3ZM295,171.5l-.2-.3-.2.3Zm-6.8,2.9.2-.2-.3-.1Zm0-3.3.2.2.1-.3Zm2.1,3.1.2-.3-.3-.1Zm-.5-2.4-.1.3.4-.1Zm2-1.1.3-.2-.4-.2Zm-2-2.7.2.2.1-.3Zm2.9-1.2-.1.3h.3Zm1.9-.4.3.1.1-.4Zm4-.3h-.2l.1.3Zm23.8-6-.3.5h.6Z" fill="#ffb7a4"/>
      <path id="Path_15675" data-name="Path 15675" d="M325.1,160.7l-.4-.1v.5Zm-3.6,2.8v-.4l-.5.1Zm-9.8-.9-.1.6.6-.2Zm-2.9,1-.1.6.6-.2Zm-1.63-.14-1.57.34,1.1,1.3Zm6.93-1.66-2.1.5,1.3.8Zm6.3-1.5-2.1.4,1.3.9Zm-16.73,3.9-1.67.4,1.2,1.4Zm-6.87,1.64-1.56.18,1.16,1.28Zm-6.92,1.06-1.58.2.9,1.5Zm8.62-.4-.3,1,1.1-.2Zm-1.7,2-.2.7.8-.1Zm3.7.3.6.4.2-.8Zm10.1-3.2.6.5.2-.9Zm-3.2-1.8.5.4.2-.8Zm9.7-2.6.5.4.2-.8Z" fill="#ffb7a4"/>
      <path id="Path_15676" data-name="Path 15676" d="M304.5,164.3l.6.5.2-.8Zm-2.1,2.4.6.4.2-.8Zm-1.5-1.9-.3,1,1.1-.1Zm3.9.8-.3.9,1.2-.1Zm-14.2,1.7.7.8.5-1.1Zm2.1,1.5.9-.1-.4-.8Zm14.3-4.2.7.5.1-1Zm5.2.3.7.5.1-.9Zm-3.3.7.8-.4-.7-.6Zm.5-1.7.8-.4-.7-.6Zm-8.7,3.2.3-.8h-1Zm-2.2-1,.3-.8-1.06.22Zm-2.7,1.8.3-.8h-1Zm14.4-4.8.7.5.2-1Zm6.4-.7,1,.6.1-1.3Zm4.4-2.3,1,.8.5-1.2Zm2.7-.7,1,.7.5-1.1Zm-9.5,2.7.8.5.1-1Zm-20.7,5h.8l-.4-.9Zm20.5-3.5h-.5l.2.5Zm-1.2,3.1-.2-.4-.3.3Zm13.6-7.4-.4-.2.1.5Zm-3.6,2.8v-.5l-.4.2Zm-3.8-.2-.4-.2v.5Zm-3.8,1.9.1-.4-.5.1Zm1.5-2.2h-.5l.3.5Zm-.9,4-.1-.5-.4.4Zm4.7-4.2h-.6l.3.5Zm.2,3.1-.2-.5-.4.3Zm-3.4-.9.5-.3-.5-.3Z" fill="#ffb7a4"/>
    </g>
    <g id="Group_1054" data-name="Group 1054">
      <path id="Path_15677" data-name="Path 15677" d="M154.5,141.3l.7.2-.5.7Zm-2.3,4.6.3-.5.5.5Zm6.5-.8-.5-.4.7-.3Zm-7.4,4.3.7.4-.8.5Zm-1.2,1.3.7.4-.8.5Zm-1.2,4,.8-.8.5,1.2Zm.5,4.5-.8-.8,1.2-.4Zm1.6-2.4-1.1-1.1,1.6-.5Zm-1.8,6-.2-1.5,1.6.5Zm2.3-21.2,1.6-1.3.5,2.2Zm4.9-4.4,2.1-1.6.7,2.9Zm-7.8,14.3.5-.4.2.7Zm5.4,2.9-.3-.5.7-.1Zm-4.3-4.5-.3-.6.8-.1Zm6.8-5.1-.2.8-.6-.6Zm-4.4-2.5.5.3-.6.4Zm.3,6.4.5-.4.3.7Zm3-10.9.5,2.1-2.3-.5Zm5.4-3.6v1.5l-1.4-.7Zm3.6-2v1.5l-1.5-.7Zm-13.4,14-.2.8-.7-.6Zm.3-1.9-.1.8-.7-.5Zm5.5-6.6-.2.8-.7-.6Zm4.1,1.3.6.4-.6.4Zm-7,5.6.4-.4.3.7Zm4.9-4.2.5-.4.2.7Zm2.5-2.1h-.8l.3-.8Zm4.5-4.9-.2.7-.6-.5Zm-10.7,6.4-.3,1.3-1.2-.9Zm3.6-.4h-1.1l.5-1.1Zm-2.6,4.5h-.6l.3-.7Zm3.6-8.1.6.3-.6.4Z" fill="#ffc1a6"/>
      <path id="Path_15678" data-name="Path 15678" d="M157.4,149.1l-.1.5-.5-.3Zm-3-1.4.4.2-.4.3Zm.5,4.1.3-.3.2.4Zm-3.4,5.2-.3-.4.6-.1Zm3-1.2-.3.1v-.5Zm-3.4-2.4.1.4-.5-.1Zm3.9,10.8-.5-.1.4-.4Zm1.9-2.6-.2.3-.3-.4Zm-4.1-.3.2.4-.4.1Zm7.9-8.9.4-.2v.5Zm2.6-10.7-.8.3.1-.9Zm-.8-5.1v.7l-.7-.2Zm-4.9,4.4.7.1-.4.6Zm-2.8,5.9-.7.3v-.9Zm-.8-5.1.1.6-.7-.2Zm-5.1,5,1.2.9-1.5.8Zm-.2,3,1.2.8-1.4.9Zm-.3,2.8,1.7,1-1.7,1.3Zm4.4-9.3,1.1,1-1.5.6Zm-2.6,5.1,1.3-.8.2,1.7Zm5-6.5,1.3-.7.1,1.7Zm10-5.3-.8-.2.5-.7Zm-1.7-1.8-.8-.1.5-.8Zm3.4.6h.5l-.3.6Zm-6.3,3.7.6.1-.3.5Zm2.1-3.7-1.2.5v-1.5Zm1.7,2.7-.6.2v-.7Zm-7.1,4.9-.6.2v-.7Zm5,1.4-.6.3V144Zm5.6-8v.5l-.5-.2Zm-6.2,2.3.6.1-.3.5Zm-13,17.9.5-.6.4.8Z" fill="#ffc1a6"/>
      <path id="Path_15679" data-name="Path 15679" d="M151.9,160.7l-.4-.6.7-.1Zm2.1-6.2-.6.3V154Zm-2.1,2.1.5-.6.4.8Zm3.2,4.1-.4-.6.7-.2Zm2.1-6.2-.7.2.1-.7Zm-.6,1.4-.2.7-.7-.5Zm-4.6-2.3.6.3-.6.4Zm.7,6.4.4-.4.3.6Zm-1.6,6.2.5-.6.4.8Zm3.2,4-.3-.5.7-.1Zm2.1-6.1-.6.2v-.7Zm-3.8,6.1.4-.6.4.8Zm3.2,4-.4-.5.7-.2Zm2-6.1-.6.2v-.7Zm-6.7-9,.4-.7.5.8Zm-.7-6.1.4-.6.5.7Zm1.3,11.3.4-.7.4.8Zm2.4,8-.2-.7.9.2ZM149.6,146l.5-1.4,1.2,1.2Zm4.9,16.9-.4-.5.7-.2Zm1.7-6.3-.6.3v-.7Zm-1-10.4.8-.2-.1.9Zm3.3-5.1.7-.2-.1.8Zm-6.2,9.5.8-.2-.1.9Zm-3.2,7.8.4-.7.5.6ZM163.2,135l.4-.7.6.7Zm-7.7,16.3-.1-.6.7.3Zm5.2-3.7-.6-.2.4-.6Z" fill="#ffc1a6"/>
    </g>
    <g id="Group_1055" data-name="Group 1055">
      <path id="Path_15680" data-name="Path 15680" d="M180.2,141.6l.2.6h-.7Zm-4.1,1.1.6-.1-.2.6Zm3.9,3.5v-.5l.6.2Zm-5.3-.4.2.3h-.5Zm-2.5.6.3-.1-.1.4Zm2.4,2.2v-.3l.3.1Zm7.9-12.4.3.6h-.7Zm.9.2.7,1.4-1.4-.1Zm-13,21.3-.5,1.5-1-1.1Zm-2.2,6-.8,1-.4-1.2Zm1,5-1.1-.7,1.1-.6Zm.2-2.6-1.1-.7,1.1-.6Zm-1,13.9-.8-.5.8-.4Zm-2.9-16.4.8.4-.1-.9Zm-.4,2.2.8.4v-.9Zm.1,4,.3.9.5-.7Zm1.3-.7.8.3-.1-.8Zm.9,7,.1.9.7-.5Zm.2-4.4.3.8.6-.7Zm-1.5,1.4.2.7.5-.5Zm-2.1-4.7.3.7.5-.5Zm.9-7,.3.8.5-.6Zm-.3-4.3.3.9.5-.7Zm3.6,5.6.3.8.6-.6Zm.8-2.6.8.4-.1-.8Zm-2.3-.4.8.4-.1-.8Zm4.6-3.7v1.1l-.9-.5Zm.2-1.1-1,.4.1-1Zm-3.3-.7-.8.4.1-.8Zm2.1-1-.8.4.1-.8Zm-1.6,5.3-.8.4.1-.8Zm4.2-3.4.1,1.1-1-.4Zm-3.4.8V157l-.9-.5Zm17.4-13.2.7,1.4-1.5-.1Zm1.4,2.6.7,1.3-1.5-.1Zm-3,1.2-.2,1.5-1.2-.9Z" fill="#af6b56"/>
      <path id="Path_15681" data-name="Path 15681" d="M182,152l-.1-1.5,1.3.7Zm-5.7,2.6.1-1.3,1,.7Zm5.5-5.5v-1.3l1.1.6Zm1.7-1.7-.1-1.3,1.1.6Zm2.3,3.2.2-1.3,1,.8Zm3.4-1.3v-1.4l1.2,1.1ZM188,148l-.2,1.3-.9-.8Zm-7.2-16.6.6,1.4-1.4-.1Zm-2.6-4.6.7,1.4-1.5-.1Zm.1,2.8,1.5.4-1.1,1Zm-3.1,3.4,1.1.3-.8.8Zm-1-3.2,1,.3-.7.6Zm1.1-2.2.9.3-.7.6Zm1,3.4,1,.2-.7.7Zm.5,6.9.9.3-.7.6Zm2.5,3.2.7-.6.2.9Zm-1.9,2.7.8-.6.1.9Zm1.5,3.4,1-.7.1,1.2Z" fill="#af6b56"/>
      <path id="Path_15682" data-name="Path 15682" d="M179.8,147.8l.9-.6.2,1Zm-1.1,2.9,1-.6.1,1ZM176,147l.9-.6.2.9Zm-3-9.6.9-.4.1.8Zm-2.7,1.3.8-.6.2.8Zm5,9.9.8-.5.1.8Zm1.7,4.5.8-.5.1.8Zm-3.4,1.9.9-.4v.8Zm1.2-1.9.8-.5.1.8Zm-.2,1,.2-.9.7.5Zm4.6-.9.1-1,.7.5Zm-5.4-.9-.6-.8.8-.2Zm.2-2.7-.5-.8.8-.2Zm-3.4-.1-.4-.7.6-.1Zm1.3,2.4h-.7l.2-.6Zm3.2-4.7h-.8l.2-.6Zm6.4-2h-.7l.2-.6Zm-2.6-9.7,1.3.4-1,1Zm1.8-2.5,1.1.4-.8.7Zm1.1,1.9,1,.3-.7.7Zm1.8,3.4,1.1.3-.8.7Zm-2.4-.3.5,1h-1.1Zm-3.8-12.7.5.9h-1.1Zm-.1,2.6.5,1-1-.1Zm.5,8.7,1.1.2-.7.8Zm4.1,4.7,1.1.2-.7.8Zm3.6.6,1.1.2-.7.8Zm-.1,2.1.6.9-1,.1Zm2.2,2.6.6.9-1,.1Zm-5.5-2.4.6.9-1,.1Zm-3.1-3.7.6.9-1.1.1Zm3.8,2.5.6.9-1,.1Z" fill="#af6b56"/>
      <path id="Path_15683" data-name="Path 15683" d="M181.3,139.4l.8-.8.2,1Zm2.4,1.2,1,.3-.7.7Zm3.2,3.6,1,.3-.7.7Zm-1.6-4.3.7,1.3h-1.4Z" fill="#af6b56"/>
      <path id="Path_15684" data-name="Path 15684" d="M180.9,135.6l.5-.1-.1.6Zm4.2,6.2v-.6l.6.3Zm-11.5-8.4-.4.4-.3-.6Zm-2.4-3.5.3.5-.6.1Zm-2,4.9.5-.2v.6Zm10.9-1.4-.5.5-.2-.7Zm-2.4-3.4.3.4-.6.1Zm-2,4.8.5-.1-.1.6Zm-1.3,6.3v-.4l.4.1Zm2.7.3-.4-.1.2-.3Zm-1.5-3-.1.3-.3-.3Zm-10.5,12.7-.1-.4.4.1Zm3.7-1.1h-.3l.2-.3Zm-2.2-2.5-.1.2-.2-.2Zm1.7-3.4-.3-.4.5-.1Zm3.1-4.6-.3.2-.1-.5Zm-4.7-.8.1.4h-.4Zm5.4,7-.2-.3.3-.1Zm2.4-3.5-.3.2V142Zm-3.6-.5.1.3-.4-.1Zm3.1,8.7-.3.2-.1-.4Zm-4-.6.1.3h-.4Zm-7.3,5.6-.3.2v-.4Zm5.4-3.3-.1.3-.3-.2Zm-3.4,2.2.3.2-.3.2ZM164,157l.1.3-.3-.1Zm-1.8,2.5h.3l-.2.3Zm15.4-17.3-.3-.3.5-.1Zm2.6-3.8-.2.2-.1-.4Zm-3.9-.6.1.3-.4-.1Zm-15.2,16.7-.2-.4.4-.1Zm3.1-3.5-.4.1v-.3Z" fill="#af6b56"/>
      <path id="Path_15685" data-name="Path 15685" d="M160.3,149.9l.1.4-.4-.2Zm17.6-10.4-.4.1v-.5Zm-2.4-4v.3l-.4-.1Zm-2.2,3.3.3.1-.2.3Zm-.1,2.6-.4.2V141Zm-2.9-4.8.1.4-.5-.1Zm-2.6,4h.4l-.3.5Zm5.4,1.8.1.4-.5-.1Zm-4.4,1.2.3.1-.2.3Zm2.6,3.1.1-.3.3.2Zm15.1-3.9-.3.4-.3-.5Zm-1.9-2.8.2.4-.5.1Zm-1.7,4,.4-.2v.5Zm-1.6-2.8-.5-.2.5-.4Zm2.1-2.7-.3.4-.2-.5Zm-4.4-.3.3.3-.4.2Zm4.4,2.4-.5-.1.2-.5Zm-3.2-2.1.4.2-.4.3Zm2.7,7.6-.4-.3.5-.4Zm2.5-2.4-.3.3-.2-.5Zm-4.2-1,.2.4h-.5Zm5.8,5.8-.5-.3.5-.3Zm.4-4.1-.3.3-.2-.5Zm-2.2.7.2.4h-.5Zm-4.1-7.8h-.5l.2-.6Zm.9-3.3-.1.4-.4-.3Zm-4.1,1.3.4.2-.4.3Zm1.3-3.4h-.5l.2-.5Zm-.7-3.4-.1.5-.3-.4Zm-2.5,1.4.4.3-.5.2Zm2.9,4.6h-.5l.3-.5Zm1-3.3-.2.5-.3-.4Zm-4.2,1.3.4.2-.4.3Zm10.6,13,.6.1-.3.6Zm-1.5,3.8.1-.5.5.4Zm4.4-1.2-.4-.3.5-.3Zm-5.4-5.5.2-.5.4.5Zm-9.8-11.1.6.1-.4.6Zm-1.6,3.9.2-.5.4.4Zm5.2-1-.5-.3.6-.3Zm3.2,13.8.6.2-.5.6Zm4.5-2.1.6.2-.5.6Zm-8.4,3.9.7.2-.5.5Zm-5.5,4,.5-.4.2.7Zm12.2-5,.6-.4.1.7Zm-4.9,2.9.3-.5.4.5Zm5.3-.4-.4-.4.6-.2Zm-7.1-18.7.6.1-.4.6Z" fill="#af6b56"/>
      <path id="Path_15686" data-name="Path 15686" d="M175.2,136.6l.2-.5.4.5Zm5.2-.9-.5-.4.6-.3Zm-4.7,9.4.5-.5.2.7Zm2.2,3.5-.3-.4.6-.1Zm2.3-4.7-.5.2.1-.6Zm-2.6,3.2.2-.6.5.5Zm3.5,2.3-.5-.4.5-.3Zm0-5.3-.4.3-.2-.5Zm-10.9,13.3h-.5l.2.4Zm-2.8,1.7.4-.2-.4-.2Zm-.5,2.6.1.4.4-.2Zm2.7-1-.3.1.3.3Zm-.8,3.6-.2-.3-.2.3Zm4.5-12.8v.4l.4-.2Zm2.7-1-.3.1.2.3Zm-.8,3.5-.2-.3-.3.4Zm6.1-7.1.1.4.4-.3Zm2.3-1.1-.3.1.2.3Zm-.4,3.1-.2-.2-.1.3Zm-5.2,3.9h.4l-.1-.4Zm-.5-2.9.1.4.3-.2Zm3.4,1.5-.3.2.2.3Zm-14.7,9.2.2-.2-.3-.1Zm-1.6-.9.2.1v-.3Zm2-1.2v.3l.2-.1Zm5-2,.2-.2-.3-.1Zm-1.6-.8.2.1v-.3Zm2-1.2v.3l.2-.1Zm-4.4,19.6.2-.2h-.3Zm-2.1-2.5.3.2v-.3Zm2.7-.6v.2h.2Zm-1.2-.9h.3l-.2-.4Zm0-4,.1.3.2-.3Zm-3.8,4.1.4-.1-.3-.3Zm0-4,.2.2.2-.2Zm3.2,1.5-.3.2.3.1Z" fill="#af6b56"/>
      <path id="Path_15687" data-name="Path 15687" d="M163.2,179.9l.5-.1-.3-.4Zm.1-4.8.1.3.3-.3Zm3.6,1.8-.2.2.3.2Zm-5.8-11.8h.3l-.2-.3Zm0-3.2.1.2.2-.2Zm2.5,1.2-.2.2.3.1Zm16.5-12.9.3-.1-.2-.2Zm-.3-3.2.1.2.1-.2Zm2.6.9-.2.2.3.1Zm-20.3,15.6.1.2.2-.3Zm2.9-1.3-.1.1.2.1Zm-.1,2.7-.2-.1v.3Zm1.4-7.1.3.3.1-.5Zm.9-2.6-.1.4.3-.1Zm1.7,2.6h-.3l.1.4Zm2.9-5.2-.4-.2-.1.5Zm-7.3,8.1.1-.3-.4.1Zm6.8-6.7-.1-.5-.4.3Zm1.9-.2h-.5l.3.5Zm-4.5,1.3.3-.1-.3-.3Zm.6-3.6.2.3.2-.4Z" fill="#af6b56"/>
    </g>
    <path id="Path_15688" data-name="Path 15688" d="M169,206.9l1.2,4a19.39,19.39,0,0,1,3.5,3.4c1.9,2.3,4.6,9.7,5.3,11.3s.2,1.8-.3,2.1c-.4.3-1.2-.1-1.7-.7s-2.9-3.8-2.9-3.8a7.909,7.909,0,0,1-5.3-3c-1.8-2.6-.9-6.2-.9-6.2l1.1-7.1Z" fill="url(#linear-gradient-11)"/>
    <path id="Path_15689" data-name="Path 15689" d="M178.6,153.5l11.7-4.6-9.4-17s-.3-1.6-9.3,4.9c-8.8,6.4-15,16.1-15.7,19.7-.8,4.5,2.8,33.4,4.5,44.3,1.5,9.8.4,8.5,5.5,9.1a28.634,28.634,0,0,1,4.8,1.3l-1.3-4.5.4-40.8c.1-1.9-.2-4.6,1.6-8C172.3,156,175.7,154.7,178.6,153.5Z" fill="url(#linear-gradient-12)"/>
    <path id="Path_15690" data-name="Path 15690" d="M167.37,217.25s-3.5-.8-4.7,2c-1.1,2.5.3,4.9,1.3,6,1.6,1.8,5.4,1.6,7,.3,1.8-1.3,1.5-2.3,1.5-2.3a8.156,8.156,0,0,1-3.6-2.1A5,5,0,0,1,167.37,217.25Z" fill="url(#linear-gradient-13)"/>
    <g id="Group_1056" data-name="Group 1056">
      <path id="Path_15691" data-name="Path 15691" d="M172.2,239.5c-1.8.2-2.26-2.02-2.36-2.32s.16-.48.46-.58.27-.44.37-.14c.42,1.28.78,2.17,1.63,2.04.65-.26.48-1.15.48-1.35s.22-.25.42-.35.3-.37.4-.17a1.406,1.406,0,0,0,.64.83.848.848,0,0,0,.67-.16c.4-.3.3-1.3-.2-3.9a90.968,90.968,0,0,1-1-10.3.51.51,0,0,1,.4-.5.538.538,0,0,1,.68.2c.9,1.5,2.45,3.9,3.25,4.2.36,0,.67-.1.58-.6-.2-.7-1.02-2.62-1.33-3.5-1.02-2.86-2.18-6.78-4.28-8.78s-3.3-3.2-3.9-5c-.5-1.7-.5-2.5-.2-23.5v-2.3c.3-22.6,1.2-25.2,1.3-25.3a.517.517,0,0,1,.7-.3.446.446,0,0,1,.3.6c0,.1-.9,3.1-1.2,24.9v2.3c-.3,20.4-.3,21.6.2,23.2s1.5,2.6,3.6,4.5c2.3,2.2,3.6,6.2,4.5,9.2,0,0,1.3,3.8,1.3,4a1.315,1.315,0,0,1-1.8,1.56,6.217,6.217,0,0,1-2.78-3c.2,2.2.47,5.53.87,7.93.5,2.9.8,4.55-.2,5.25a1.854,1.854,0,0,1-1.44.3,1.481,1.481,0,0,1-.6-.36c-.2.5-.37,1.28-1.45,1.4Z" fill="#cc7a5e"/>
      <path id="Path_15692" data-name="Path 15692" d="M173.3,237.8a.664.664,0,0,1-.5-.4L170.4,227c-.1-.3.1-.5.4-.6s.5.1.6.4l2.4,10.4c.1.3-.1.5-.4.6Zm-2.9-.3a.51.51,0,0,1-.5-.4l-2.4-8.9a.474.474,0,0,1,.9-.3l2.4,8.9a.486.486,0,0,1-.3.6.1.1,0,0,1-.1.1Zm3.7-13.9a7.665,7.665,0,0,1-4.9-2.1,6.307,6.307,0,0,1-1.9-5.2.51.51,0,1,1,1,.2,5.465,5.465,0,0,0,1.5,4.3,6.525,6.525,0,0,0,4.3,1.8.47.47,0,0,1,.5.5c.1.3-.2.5-.5.5h0Z" fill="#cc7a5e"/>
    </g>
    <path id="Path_15693" data-name="Path 15693" d="M169.3,202.8l-12.2,2.7a1.065,1.065,0,0,0-.8,1.3l1.2,5.2a1.065,1.065,0,0,0,1.3.8l11.8-2.5a1.012,1.012,0,0,0,.8-1.2l-.9-5.3a.919.919,0,0,0-1.2-1Z" fill="#ffcce1"/>
    <path id="Path_15694" data-name="Path 15694" d="M271.4,208.2,192,208l1.2-6.6h77.7Z" fill="url(#linear-gradient-14)"/>
  </g>
</svg>
