<svg xmlns="http://www.w3.org/2000/svg" xmlns:xlink="http://www.w3.org/1999/xlink" width="212.235" height="124.226" viewBox="0 0 212.235 124.226">
  <defs>
    <linearGradient id="linear-gradient" x1="0.144" y1="0.496" x2="0.669" y2="0.505" gradientUnits="objectBoundingBox">
      <stop offset="0.298" stop-color="#f5c52a"/>
      <stop offset="1" stop-color="#e46c26"/>
    </linearGradient>
    <linearGradient id="linear-gradient-2" x1="0.935" y1="0.567" x2="0.146" y2="0.498" gradientUnits="objectBoundingBox">
      <stop offset="0" stop-color="#dd6d22"/>
      <stop offset="1" stop-color="#dd6d22" stop-opacity="0"/>
    </linearGradient>
    <linearGradient id="linear-gradient-3" x1="0.382" y1="0.511" x2="-0.182" y2="0.391" gradientUnits="objectBoundingBox">
      <stop offset="0" stop-color="#cc7a5e" stop-opacity="0"/>
      <stop offset="0.924" stop-color="#aa5f4b"/>
    </linearGradient>
    <linearGradient id="linear-gradient-4" x1="0.661" y1="0.11" x2="0.324" y2="0.942" gradientUnits="objectBoundingBox">
      <stop offset="0.298" stop-color="#f5b02a"/>
      <stop offset="1" stop-color="#e46c26"/>
    </linearGradient>
    <linearGradient id="linear-gradient-5" x1="0.23" y1="0.205" x2="0.943" y2="1.204" xlink:href="#linear-gradient"/>
    <linearGradient id="linear-gradient-6" x1="0.433" y1="1.395" x2="0.485" y2="0.583" xlink:href="#linear-gradient-2"/>
  </defs>
  <g id="_3" data-name="3" transform="translate(-152.253 -99.415)">
    <path id="Path_14125" data-name="Path 14125" d="M153.94,208.5l78.2-.3s7.05-22.07,16.2-59.48c.93-19.08-1.07-48.2-23.14-49.08-11.8-.7-25.3,7.3-40.46,36.77-8.9,17.3-28.32,59.1-32.32,69.52a1.77,1.77,0,0,0,1.5,2.57Z" fill="url(#linear-gradient)"/>
    <g id="Group_957" data-name="Group 957">
      <path id="Path_14126" data-name="Path 14126" d="M208.22,165.35l-1.52-.85,1.28-.92Zm1.1-5.15-1.12-1.38,1.5-.4Zm-4.7,3.38-1.94.35.4-1.78Zm1.97-2.9,1.16,1.64-1.67.34Z" fill="#dd6d22"/>
      <path id="Path_14127" data-name="Path 14127" d="M206.8,158.7l-2.05.2.56-1.77Zm9.76,20.1-1.93.3.4-1.66Zm-7.43-22.06-1.95.1.56-1.67Zm2.05,2.76-1.67.98-.2-1.77Zm-1.86,1.28-1.67.98-.2-1.77Zm-.56-2.36-1.86.6.2-1.87Zm2.2,5.48-1.94.45.4-1.78Z" fill="#dd6d22"/>
      <path id="Path_14128" data-name="Path 14128" d="M211.54,164.37l-1.75.64.04-1.78Zm-8.27-7.43-.83-1.57h1.5Zm-1.2-3.04-.83-1.57,1.5-.1Zm1.38-7.45-1.13-1.07,1.25-.5Zm1.6-.28-1.13-1.07,1.25-.5Zm4.58,19.63-1.5-.75,1.08-1Zm-6.17-11.12-.47-1.08,1.03-.1Zm1.2,5.32.74-.6.28.9Zm-7.07-3.75.74.6-.65.5Zm4.1,14.47-.97.5-.02-1Zm5.22-1.16-.65-.82.82-.18Zm-3.32,7.4.47-.85.45.75Zm-2.3-20.5.1,1.2-.9-.37Zm.6-5.48-.87.33.07-.9Zm5.54,5.83-.6-.83.85-.14Zm-.26-2.6-.74-1.58,1.5-.1Z" fill="#dd6d22"/>
      <path id="Path_14129" data-name="Path 14129" d="M207.3,153.63l-2-1.82,2.03-1.03Zm-1.8-3.58-.9-1.55,1.6-.17Zm1.6,6.8-2.6.3.75-2.26Zm-5.78,4.33-1.02.5V160.6Zm4.58,4.23.58.77-.83.12Zm-6.35-5.8-.56-.9.84-.1Zm6.7,29.8-.56-.78.83-.2Zm26.2,6.77-.52-.8.8-.16Z" fill="#dd6d22"/>
      <path id="Path_14130" data-name="Path 14130" d="M204.1,157.63l-.84-.7.84-.4Zm1.3-2.16,2.65-2.8,1.4,3.15Z" fill="#dd6d22"/>
      <path id="Path_14131" data-name="Path 14131" d="M207.1,158.8l2.38-3.13,1.47,3.26Zm-2.45-7.23-1.9.45.32-1.76Zm1.95.03-1.8.46.22-1.76Z" fill="#dd6d22"/>
      <path id="Path_14132" data-name="Path 14132" d="M203.46,150l2.8-2.56,1.26,3.35Z" fill="#dd6d22"/>
      <path id="Path_14133" data-name="Path 14133" d="M202.6,150.13l1.32-1.38.62,1.62Zm.03-7.8,1.57-1.06.6,1.8Zm.17-2.16.9-.98.54,1.83Zm-.24,1.86-.27-1.4,1.2.3Zm1.04,2.16-.37-1.3,1.2.2Zm-.82,1.1-1.3-.2.64-1.14Zm.08-6.1-.36-1.4.87.4Zm.54,7.83,2.2-1.85.75,2.42Zm0-2.46,1.4-1.28.54,1.52Zm5.67,17.9,2.28-3.06,1.67,3.1Z" fill="#dd6d22"/>
      <path id="Path_14134" data-name="Path 14134" d="M210.55,165.48l2.4-3.08,1.67,3.1Z" fill="#dd6d22"/>
      <path id="Path_14135" data-name="Path 14135" d="M212.35,168.78l2.07-3.33,1.95,2.9Zm-8.9-10.18v1.77l-1.3-.68Zm5.14,7.33-1.84.74.04-1.78Zm14.78,15.74-1.64.95-.3-1.84Z" fill="#dd6d22"/>
      <path id="Path_14136" data-name="Path 14136" d="M217.56,182.12l-1.64.95-.18-1.76Zm-8.6-16.6,1.16,1.64-1.67.34Zm7.17,2.75,1.2,1.75-1.8.5Zm-2.38.56,1.3,1.64-1.72.48Zm-1.86-2.48,1.27,1.45-1.63.47Zm-1.97,5.62-.28-1.15,1.06.13Zm.2,5.55.88-.44.04.9Zm-6.26-5.1.67.7-.8.33Z" fill="#dd6d22"/>
      <path id="Path_14137" data-name="Path 14137" d="M209.6,185.35l-1.12.08.32-.95Zm5.38.75-.34-.94.86.06Zm-5.63,5.46.87-.43.12.77Zm3.12-19.13-1.5-1.62,1.8-.6Zm1.1,3.55-1.54-1.45,1.68-.67Zm-5.22-7.06-1.3-1.55,1.62-.57ZM220,185.9l-1.62-1.34,1.66-.76Zm-22.17-19.37.73-.52.2.78Zm8-.03.03,1.18-.94-.37Zm.5-5.43-.92.32.06-.98Zm5.57,5.83-.58-.77.84-.12Zm-1.4,13.54.9.96-1,.25Zm-2.8-4.74-.52.88-.4-.83Zm7.83,1.36-.9-.35.57-.6Zm-3.13-11.44-2.4.86.03-2.27Zm-.05-2.16-1.85.44.33-1.78Zm-.52,4.78-.67,1.56-.87-1.1Zm-11-3.77-.44.9-.5-.77Zm-.8,5.63-.52,1.24-.75-.9Zm3.5-4.92-1.05-.18.47-.85Zm2.35,8.94-.12-1.17.88.4Zm8.04-1.95.1-1.7,1.3.75Zm3.7,2.67-1.4-1.08,1.3-.7Z" fill="#dd6d22"/>
      <path id="Path_14138" data-name="Path 14138" d="M215.66,174.85l.2-1.72,1.28.9Z" fill="#dd6d22"/>
      <path id="Path_14139" data-name="Path 14139" d="M217.45,173.07l1.25,2.6-2.35-.02Zm-.08-3.25,1.6,2.7-2.6.28Z" fill="#dd6d22"/>
      <path id="Path_14140" data-name="Path 14140" d="M216.73,175.68l-1.73.97-.1-1.78Zm4.25,3.88-1.5,1.33-.57-1.8Zm-3.18,1.72-1.53-.75,1.07-.97Zm.8-4.5-1.3-1.08,1.3-.7Z" fill="#dd6d22"/>
      <path id="Path_14141" data-name="Path 14141" d="M214.22,177.67l-.14.92-.72-.4Zm3.12-1.64,1.83-3.27,1.95,2.77Zm8.64,5.44,1.48,1.57-2.16.52Zm-2.5,2.23,1.7.7-1.06,1.17Zm-4.85-2.28,1.57.95-1.26,1Zm-2.75,2.23.43.93-.94.05Zm-1.52-4.85-.66.6-.32-.85Zm6.6,2.95-.74-.48.67-.5Z" fill="#dd6d22"/>
      <path id="Path_14142" data-name="Path 14142" d="M217.76,193.76l-.18,1.1-.8-.5Zm1.27-4.86-.86.22.2-.86Zm4.07,5.96-.34-.74.8-.04Zm-5.17-8.36.45,1.03-.94.05Zm-1.6-4.8-.66.6-.2-.76Zm6.68,2.82-.74-.48.7-.4Zm3.08-1.62-.36,1.3-.86-.8Zm.3-1-2.05.1.56-1.84Z" fill="#dd6d22"/>
      <path id="Path_14143" data-name="Path 14143" d="M224.78,181.58l-1.27-.5.74-.9Zm-2.92-1.76-1.4-.58.9-.93Zm-3.52-2.32-.25.84-.66-.6Zm1,.77,1.84-2.68,1.9,2.48Z" fill="#dd6d22"/>
      <path id="Path_14144" data-name="Path 14144" d="M221.66,180.72l1.36-2.7,1.68,2.23ZM219,188.16l-1.42-.74,1.18-.92Zm2.84,1.3-1.4-.8,1.2-.9Zm4.06-2.16-1.5-.56,1.06-1.06Zm2.3,9.3.3.96-.86.04Zm-.9-4.87-.66.47-.22-.84Zm6.25,3.54-.64-.6.62-.3Zm-8.43-1.87.28,1.06-.93-.08Zm-.9-4.97-.65.48-.23-.84Zm6.24,3.65-.64-.62.62-.3Zm-7.55-.3.3,1.04-.93-.04Zm-1.02-4.94-.65.5-.24-.83Zm6.33,3.47-.66-.6.6-.3Zm-25.2-11.36-1.04.56.02-1.1Zm5.2-1.02-.6-.8.8-.23Zm-3.5,7.12.54-.78.5.82Z" fill="#dd6d22"/>
      <path id="Path_14145" data-name="Path 14145" d="M207.24,187.83l-.47-.9.84-.1Zm18.52-1.18-.86-1.15,1.16-.33Zm2.54,7.03-.67-1.27,1.2-.14Zm1.82,4.3-.67-1.26,1.2-.15Zm-2.3,9.33-.67-1.26,1.2-.15Zm-18.2-19.3-1-.54.8-.57Zm4.07,3.6.23-.96.6.52Zm-7.72,1.6h.9l-.35.72Zm15.6-7.15-1.25-1.58,1.65-.42Zm10.65,8.68-1-1.68,1.82-.17Z" fill="#dd6d22"/>
      <path id="Path_14146" data-name="Path 14146" d="M232.96,191.77l-.8,1.85-1.18-1.32Zm-1.64,7.4-.5,1.2-.77-.94Zm3.18.78-1-1.8,1.74-.18Zm-6.3-14.17-1.6-1.44,1.65-.7Zm-1.93,2.52-1.55,1.1-.44-1.8Zm1.18,5.53-1.72-1.2,1.6-.9Zm.45-6.4-1.37,1.45-.7-1.75Zm5.16,1.5,1.6,1.44-2.1.7Z" fill="#dd6d22"/>
      <path id="Path_14147" data-name="Path 14147" d="M230.74,191.38l1.75.56-.95,1.25Zm-5-1.88,1.63.82-1.17,1.1Zm-2.57,2.44.5.9-.93.12Zm-1.9-4.7-.6.65-.4-.8Zm6.8,2.4-.77-.42.63-.56Zm-2.6,5,.52,1-.92.12Zm-2-4.67-.6.65-.28-.74Zm6.87,2.27-.77-.42.65-.46Zm2.95-1.86-.25,1.32-.93-.73Zm.2-1.03-2.03.28.4-1.88Z" fill="#dd6d22"/>
      <path id="Path_14148" data-name="Path 14148" d="M231.86,189.14l-1.3-.4.67-.95Zm-3.04-1.5-1.46-.46.8-1Zm-2.64-1.33,1.62-2.82,2.1,2.32Z" fill="#dd6d22"/>
      <path id="Path_14149" data-name="Path 14149" d="M228.7,188.54l1.13-2.8,1.85,2.08Zm6.3,4.34-1.7-1.3,1.58-.84Zm.53,3.96-1.1-1.7,1.73-.2Zm-1.9,6.16-1.95-2.76,2.73.1Zm-1.14-3.52-.02-1.4,1.28.73Zm2.75-4.68-.05-1.3,1.2.62Zm-24.9-7.06.8.97-1,.25Zm-2.67-4.96-.53.8-.4-.74Zm7.8,1.66-.8-.37.56-.6Zm-13.03-38.46-.93.03.33-.77Zm-2.83.48-.14-.7.65.05Zm2.26,3.42.7-.44.03.8Zm1.42-12.8-1.1-.18.54-.95Zm-.8-1.74-.02-1,.72.35Zm1,12.9.36-1.06.8.65Zm-2.08.33.22.9-.83-.16Zm-6.27,2.9-1.05.32.16-.97Zm5.43-.28-.5-.83.84-.04Zm-4.68,6.55.7-.64.22.8Zm4.04-19.42.76-.14-.24.77Zm1.36,1.97-.8.53-.02-.9Zm0,4.73-.88.52-.1-1Zm.7-1.72-1.07.6-.1-1.2Zm.87-2.98-.77-.85.95-.32Zm-1.67,7.46.72-.93.4,1Zm-1.62-4.56-.84.04.23-.58Zm3.5.65-.15-.5.55.04Zm-4,3.65.58-.35.04.7Zm-3.35,6.17v1.18l-.9-.46Zm.87-5.57-.87.33.07-.88Zm5.14,6.3-.5-.73.85-.14Zm20.04,50.38.28,1.26-1.14-.28Zm.02-6.05-1.1.46-.02-.95Zm7.12,5.73-.83-.86,1-.18Zm-15.98-11.66-.5.97-.53-.8Zm3.23-3.72-.8-.25.5-.67Z" fill="#dd6d22"/>
      <path id="Path_14150" data-name="Path 14150" d="M217.2,196.32l.1-.9.68.32Zm-2.14-2.12-.15,1-.76-.36Zm1.27-4.88-.8.04.13-.68Zm4.02,6.06-.3-.83.8-.04Zm13.43,2.74-1.32-1.05,1.37-.74Zm-21.62-10.4.3.98-.84-.18Zm14.34.73.1,1.02-.8-.25Zm.02,8.53.28,1.05-.92-.16Zm-.12-5.02-.75.46-.02-.9Zm5.6,4.54-.53-.7.7-.27Zm-9.55,6.14.4.97-.93-.07Zm-.85-5.06-.68.57-.13-.82Zm6.22,3.64-.66-.52.64-.38Zm1.94,3.36-.6,1.2-.68-.93Zm3.16.78-1.08-1.8,1.82-.16Zm-.82,2.94-2.06-2.68,2.83.02Z" fill="#dd6d22"/>
      <path id="Path_14151" data-name="Path 14151" d="M230.93,204.9l-.04-1.3,1.2.62Zm1.27-1.27-1.3-1.14,1.26-.67Zm-7.24-1.23.18,1.03-.9-.17Zm-.1-5.12-.75.46-.13-.82Zm5.58,4.62-.55-.6.7-.27Zm2.74-10.8.16-1.37,1.02.58Zm-13.1-.95-.6.64-.32-.82Zm-6.97,7.27.58.87-.93.12Zm-1.86-4.68-.54.7-.3-.78Zm6.84,2.3-.75-.47.64-.5ZM218,193l.15,1.08-.92-.2Zm.04-5.04-.8.37-.03-.84Zm5.43,4.7-.56-.7.77-.27Zm-11.8,1.33.27,1-.95-.1Zm-.25-5.04-.7.4-.03-.83Zm5.73,4.4-.56-.7.68-.3Z" fill="#dd6d22"/>
      <path id="Path_14152" data-name="Path 14152" d="M217.4,190.62l-.47.9-.54-.8Zm3.25-3.82-.8-.25.47-.58Zm1.03,7.3.08-.9.7.32Zm-2.68-.82-.4.9-.65-.72Z" fill="#dd6d22"/>
      <path id="Path_14153" data-name="Path 14153" d="M221.92,189.26l-.8-.25.48-.58Zm1.62,7.22v-.93l.7.22Zm-3.06-10.05.1,1.05-.87-.35Zm-8.84,11.6.4,1.08-.94-.08Zm-1.14-4.8-.74.5-.2-.8Zm6.4,3.3-.76-.57.74-.4Zm-3.08,4.7.4.97-.94-.07Zm-.8-4.95-.74.46-.15-.72Zm6.15,3.63-.66-.52.73-.37Zm-8.05,3.83.4.97-.93.03Zm-1.14-5-.64.6-.2-.88Zm6.42,3.4-.67-.57.64-.4Zm.62,3-.37.88-.47-.7Zm12.65-13.5-.08-2.1,1.57.7Zm5.73,1.84-.1-2.12,1.4.74Z" fill="#dd6d22"/>
    </g>
    <path id="Path_14154" data-name="Path 14154" d="M207.9,107.3s-16.37,12.4-15.54,44.36c.28,11.4,0,16.82,1.02,31.47,1.2,15.93,1.02,25.28,1.02,25.28l37.7-.1,14.2-49.35L207.9,107.3Z" fill="url(#linear-gradient-2)"/>
    <path id="Path_14155" data-name="Path 14155" d="M361.83,208.05c-1.9-1.1-4.07-4-7.42-4.3-9.2-.88-16.5-1.65-21.8-4.15-3-1.5-46.97-24.56-51.27-28.3-5.6-4.1-25.07-36.33-25.07-36.33l-26.4,12.72s25.5,37.47,34.5,42.7c7.45,4.85,17.2,8.2,31.4,12.3s26.5,6.7,37.5,9.5a47.1,47.1,0,0,0,5.56,1.56,11.594,11.594,0,0,1,21.94,5.24c0,.08-.01.17-.01.25s.01.17.01.25a12.574,12.574,0,0,1-.5,3.3,1,1,0,0,0,.4.5c1.8.85,2.5-2.54,2.97-6.13s.7-7.35-1.8-9.1Z" fill="#ea9d7d"/>
    <path id="Path_14156" data-name="Path 14156" d="M351.5,203.73l-10,5.78-2.8,4.38-5.47-1.56c.94-2.35,3.56-10.66,3.56-10.66-.42.05,9.1,1.6,14.73,2.06Z" fill="url(#linear-gradient-3)"/>
    <path id="Path_14157" data-name="Path 14157" d="M360.76,223.64a2.263,2.263,0,0,1-.83-.16l.35-.94a1.141,1.141,0,0,0,.96-.03c.65-.34,1.23-1.42,1.64-3.04a35.975,35.975,0,0,0,.6-7.67c-.03-1.66-.65-2.16-1.88-3.17l-1.1-.92c-2.66-2.14-4.3-3.37-7.22-3.58a139.678,139.678,0,0,1-17.9-2.67l-.1-.03c-.14-.07-14.45-6.58-20.6-10.12l-11.2-6.32-17.83-10.2a41.2,41.2,0,0,1-9.47-8.36c-3.58-4.08-11.63-17.3-11.97-17.87l.86-.52c.08.14,8.35,13.7,11.88,17.73a39.748,39.748,0,0,0,9.27,8.18c2,1.32,10.38,6.02,17.77,10.17l11.2,6.33c5.93,3.42,19.55,9.64,20.47,10.05a143.41,143.41,0,0,0,17.7,2.64c3.36.25,5.32,1.82,7.8,3.82.4.36.75.65,1.07.9,1.3,1.05,2.22,1.8,2.25,3.93a33.688,33.688,0,0,1-.62,7.94c-.5,1.94-1.2,3.18-2.14,3.67a2.07,2.07,0,0,1-.96.24Z" fill="#cc7a5e"/>
    <path id="Path_14158" data-name="Path 14158" d="M327.4,195.25l-4.45,14.13a1.251,1.251,0,0,0,.67,1.4l8.14,2.42a1.251,1.251,0,0,0,1.4-.67l4.5-13.77a1.251,1.251,0,0,0-.67-1.4l-8.07-2.83a1.385,1.385,0,0,0-1.54.72Z" fill="url(#linear-gradient-4)"/>
    <path id="Path_14159" data-name="Path 14159" d="M285.9,164.34c-8.25-4.2-13.05-10.13-17.9-18.46-5.45-9.35-12.12-22.77-17.35-29.84-8.75-11.84-20.77-22.67-36.95-12.72s-11.06,35.02-6.08,47.08c5.18,12.54,13.08,27.85,30.54,43.03,17.38,15.1,44.23,22.62,64.93,25.38,10.38,1.38,19.6-1.73,22.3-9l2.85-9.94a17.65,17.65,0,0,0-9.26-22.18s-25.12-9.28-33.06-13.34Z" fill="url(#linear-gradient-5)"/>
    <path id="Path_14160" data-name="Path 14160" d="M227.18,182.92c5.2,5.8,9.92,11.38,24.95,20.06,10.45,6.03,20.5,9.1,28.18,11.24,13.03,3.62,22.44,5.33,29.04,4.84,13.66-1.02,15.66-8.68,15.66-8.68l3.92-12.9-30.67-13.82c-12.8-6.4-55.14-4.54-68.07-17.2-15.18-14.83-8.74,10.06-3,16.46Z" fill="url(#linear-gradient-6)"/>
    <g id="Group_958" data-name="Group 958">
      <path id="Path_14161" data-name="Path 14161" d="M215,103.12l-.2,1.1-1.04-.8Zm-4.73,19.7.48-.6.38.7Zm-5.87,5.33.38-.6.37.7Zm9.18-6.45-.47-.6.76-.2Zm-2.45-15.27.75.4-.75.7Zm-4.55,12.77.86.3-.76.8Zm-2.28,1.6.85.3-.75.7ZM216.42,102l1.42-.6-.1,1.8Z" fill="#ffe05f"/>
      <path id="Path_14162" data-name="Path 14162" d="M220.2,100.5l1.6-.3-.48,1.8Zm-1.6.6,1.04.5-1.04.9Zm3.12,1.4.76.4-.76.6Zm.76-2,.76.3-.76.7ZM206.5,111.16l.47-.5.3.7Zm4.15-2.6-.75-1.1,1.4-.4Zm-1.6,2.1-.47-.6.76-.2Zm-.74,3.92-.1.9-.85-.5Zm-2.85-.8.57.6-.86.3Zm3.97.7.66.1-.56.6Zm9.18-7.64.66.3-.57.6Zm2-2.52.66.3-.57.6Zm2.45-1.6.66.2-.57.5Zm.85-.42.66.3-.57.5Zm-16.75,21.42.66.3-.56.6Zm-2,1.2.76.2-.57.7Zm3.04-3.63v.8l-.75-.4Zm-.95-3.8v.8l-.76-.4Zm-2.45,2.5.37-.6.48.7Zm17.58-13.46-.28.4-.38-.5Zm-3.3-1.3.38.3-.47.2Zm-1.8,6.63.38-.3.1.6Zm.95-3.2.28.5-.56.2Zm-2.65,6.73.47-.2-.1.5Zm-5.5,11.96.48-.2v.6Zm5.96-7.44-.1-.5.57.1Zm-.37,4.73-.1-.5.47.1Zm6.63-2.2-.1-.4.48.1Zm-11.55-5.92.28.9-.95-.1Zm-2.45-8.36.66,1.7-1.9-.1Zm9.16-4.72.2.9-.94-.2ZM204.4,116.3h.75l-.28.8Zm4.74,5.7.1-.7.67.5Zm-1.7-7.93-.3,1.2-1.04-.8Zm-.2,1.8-.2.9-.76-.7Zm-1.42-.7-.3.8-.66-.8Zm5.97-2.4.66.4-.76.5Zm-7.87,6.33.3-1.3,1.04.9Zm18.93-17.4.66.3-.66.6Zm-6.53,1.22.38-.5.38.6Z" fill="#ffe05f"/>
      <path id="Path_14163" data-name="Path 14163" d="M225.32,101l.38-.5.28.6Zm-1.04.5-.38-.5.66-.1Zm-4.45,1.52-.1.6-.66-.4Zm1.42-1.62.28,1.1-1.23-.2Zm-2.18,1.92-.1.7-.66-.4Zm-2.93,1.4-.1.7-.66-.4Zm-.57-2,1.14.3-.85,1.1Zm4.35-1.62.57.1-.47.5Zm-3.7,5.33.38-.5.3.6Zm4.73-3.2-.18.7-.57-.5Zm5.02-.3.47.3-.57.3Zm-4.45-1.22.38-.5.28.7Zm3.12,2.42-.18.7-.57-.5Zm-.95,3.12.47.3-.57.4Zm3.13-6.44.57.3-.57.4Zm-1.13,5.43.47-.5.2.6Zm.56-3.93-.47.2v-.6Zm4.07-.4-.57.1.1-.6Zm-2.18-.6-.47.2.1-.6Zm3.03,1.1.2.6-.66-.1Zm2.08,1.32.1.6-.66-.1Zm-3.78-1.32-.66.4-.1-.9Zm-2.84,1.32.2.6-.66-.1Zm2.18.8h.56l-.28.6Zm1.88,1h.57l-.3.6Zm4.74-.4.2.6-.57-.2Zm-3.88,2.6h.57l-.3.6Zm3.12,1.9h.57l-.28.6Zm-21.1-6.23.3,2.2-2.27-.8Zm-1.78,2h.56l-.28.6Zm2.45-.8h.66l-.28.7Zm-1.23,4.42.2-.6.47.4Zm-4.72,10.25.1-.6.57.4Zm5.2-12.16.2-.6.47.4Zm-4.27.1.2.7-.75-.1Zm3.6,3,.2.7-.76-.1Zm-2.08-4.72.38,1.4-1.6-.2Zm-.75,6.84.2.7-.76-.1Zm2.26,5.93.1.7-.75-.1Zm5.1,2.9.38-.6.38.7Zm3.23-1.1-.38-.6.75-.2Zm2.54-1.8-.1-.5.47.1Zm-3.88-1.6.2.8-.76-.2Zm3.8-1.42.2.7-.76-.1Zm4.45-.3.2.7-.75-.1Zm.28-6.94.2.7-.76-.1Zm-21.2,3.92h.57l-.28.6Zm.76-.8.1-.6.56.4Zm-.38,2.6.1-.6.56.4Zm-.94,9.25v.9l-.86-.4Zm1.23-.2.66.2-.57.6Zm-2.18,3.1v.6l-.76-.3Zm3.4-1,.28.9-.95-.1Zm-3.68-2.3-.3.9-.66-.7Zm.27,1.7-.2.9-.76-.7Zm1.03,3.3.1-.6.56.4Zm.4-5.64.1-.6.48.4Zm7.56-10.44.1.7-.75-.2Zm-3.4-.9h.57l-.28.6Zm2.27,4.72.2-.6.47.5Zm-7.57-2.2.48-1,.66,1Zm4.92-3.92.57-.4.2.8Zm-1.6,0,.56-.4.2.8Zm6.8-.9-.3-.7.85.1Z" fill="#ffe05f"/>
      <path id="Path_14164" data-name="Path 14164" d="M214.8,106.03l1.23.4-1.04,1.1Zm.58-1,.38.3-.47.2Zm-.85,3.52.28.4-.56.2Zm-2-2.32.38-.5.3.6Zm-.74,1.9-.3-.7.85.1Zm1.4,1.8-.3-.8.76.1Z" fill="#ffe05f"/>
      <path id="Path_14165" data-name="Path 14165" d="M215.1,112.77l-.2-.7h.76Zm-2.46-5.23v1.3l-1.23-.6Zm-3.88,4.83-.47.7-.57-.8Zm2.64,2.2-.47.7-.57-.8Zm7-10.16-.47.8-.48-.9Zm1.8,3.52-.48.8-.47-.8Zm-5.95-1.3v.8l-.76-.4Zm-4.73,3.3.56.1-.47.6Zm1.98,0,.3-.5.38.5Zm-1.04,2.42.3-.6.47.6Zm4.34-2.02.57.1-.47.5Zm10.6,2.02.38-.1-.1.5Zm-3.1,2.2h.47l-.28.4Zm-2.1-4.33.38.7h-.86Zm-2.17,5.03-.2.7-.66-.5Zm4.73-4.93-.2.7-.66-.5Z" fill="#ffe05f"/>
      <path id="Path_14166" data-name="Path 14166" d="M219.92,113.27l.48-.5.2.7Zm4.08-3.62.38.4-.66.3Zm-14.67,2,.28-.6.38.6Zm-1.23,7.04.57.4-.57.5Zm.94-2.62.2.7-.75-.1Zm-2.84,2.22.28.7-.85-.1Zm.57-1.7h.57l-.2.7Zm.85-.72.2-.6.48.5Zm-.85,2.42.3-.5.38.5Zm-1.23-.6.3-.6.38.6Zm10.03-8.15.1-.6.56.4Zm-5.97,6.53,1.42.7-1.32,1.3Zm-1.8-4.12,1.42.7-1.32,1.3Zm-2.66,6.14-.28.9-.76-.8Zm7.88-2.12v2l-2-.9Zm-2.65-7.64.1,2-1.98-.9Z" fill="#ffe05f"/>
      <path id="Path_14167" data-name="Path 14167" d="M213.2,104.73l-.67,1.9-1.6-1.6Zm-5.58,7.13.1,2-2-.8Zm1.42,2.4v1.9l-1.98-.9Zm1.6-3.2v2l-1.9-.9Zm-2.17,4.92.56,1.9-2.08-.2Z" fill="#ffe05f"/>
      <path id="Path_14168" data-name="Path 14168" d="M207.62,116.3l.3,2-2-.6Zm6.63-6.45,1.5.7-1.42,1.3Zm-5.8,7.75,1.23,1-1.6.9Zm6.35-9.76,1.05.4-.86,1Zm-3.96,6.54.57-.8.57,1Zm9.18-.1-.66-.7,1.04-.3Zm1.38,5.4-.45,1.08-.8-.96Zm-5.8-4.4.73.45-.9.55Zm-.6,9.53.7-.56.2,1.02Zm1.7-11.2h-1.14l.66-1.2Zm2.18-7.34-.28.9-.76-.7Zm-8.8,2.72.76.5-.85.6Zm1.05-3.62,1.5.7-1.33,1.3Zm2.55-.3,1.6,2-2.65.9Zm8.42-4.83,1.32,1.5-2.08.7Zm-9,8.75-.1,2.6-2.56-1.2Zm2.66-4.53,1.14,1.2-1.6.8Zm-.86-1.92,1.23,1.1-1.7.7Zm.27,16.1-.48,1-.85-1Zm-2.65,1.2-.95-.1.48-.9Z" fill="#ffe05f"/>
      <path id="Path_14169" data-name="Path 14169" d="M217.06,119.2l.76.5-.85.6Zm-3.38-8.04.66.7-1.04.4Zm-1.8-5.73,2.65-2.4,1.23,3.82Zm-3.58,2.5,2.74-2.5,1.14,4.02Zm-2.2,3.62,2.18-3,1.9,3.7Zm12.6-8.34-.75,1.7-1.42-1.6Z" fill="#ffe05f"/>
      <path id="Path_14170" data-name="Path 14170" d="M214.8,103.02l3.22-1.8.3,4.12ZM204.6,116.3l.94-3.62,3.13,2.5Zm10.03-1.22-1.52.2.57-1.7Zm-5.43,18.94,1.44-.73.07,1.9Z" fill="#ffe05f"/>
      <path id="Path_14171" data-name="Path 14171" d="M204.9,132.72l1.44-.74.06,1.9Zm5.72.68,1.17,1.63-2.1.56Zm-6.17-5.3,1,1.7-2.12.44Zm.15-5.32.64,1.86-2.08-.04Z" fill="#ffe05f"/>
      <path id="Path_14172" data-name="Path 14172" d="M204.36,133.15l1.4,1.27-1.95.97Zm3,.05,1.5,1.18-1.96,1.07Zm-1.25-1.74,1.05,1.72-2.15.25Zm1.1,5,1.5,1.36-2.03.88Zm3.43-19.17.38,2-2.1-.5Zm-.83,5.63-1.9.17.7-2.17Zm-.7-2.03-1.9-.2,1.04-2Zm-1.37,7.76,1.6.02-.9,1.65Zm2.32,7.5,1.43-.75.1,1.9Zm-2.52-10.25,1.1-.27-.15,1.28Zm.47,7.56-.08-1,1.02.42Zm7.44-5.74-.84-.2.6-.94Zm4.16,2.26.28,1.03-1.25-.13Zm-7.4.5h.97l-.4.95Zm5.56,7.7.2-.97.8.58Zm6.16-17.32.1,1.1-1.2-.5Zm-7-1.68.94.17-.64.86Zm3.07,9.03.34-.78.7.76Zm-7.16-8.33,1.84.93-1.8,1.6Zm1.4,6.04.7-.76.4,1.03Z" fill="#ffe05f"/>
      <path id="Path_14173" data-name="Path 14173" d="M213.56,120.1l-.95.6-.1-1.3Zm-1.7-7.33.2.9-.95-.2Zm-6.26,7.03h.95l-.47,1Zm18.2-11.46-.94.6-.2-1.3Zm-2.46-7.14.38.9-1.04-.1Zm-5.58,7.75.95-.1-.38,1Zm-3.16,16.97-.73.85-.57-1.26Zm-4.15-6.28.5.75-.97.22Zm-3.47,8.9.9-.34-.1,1.1Zm-1.58-3.06,1.6.1-.77,1.66Zm2.2-1.03,2.18,1.2-2.23,1.73Zm1.5,2.65,1.25,2.22-2.8.48Zm-.16-9.7.38,2.6-2.75-.8Zm-.92,3.87h1.6l-.78,1.76Zm-1.96-.54,1.6.4-1.24,1.53Zm10.3,13.1.16,1.12-1.23-.24Z" fill="#ffe05f"/>
      <path id="Path_14174" data-name="Path 14174" d="M212.18,137l-.83.5-.08-1Zm4.1-3.95.97.01-.5.94ZM206.1,119.9l-.3.9-.76-.7Zm2.58,8.73.84.17-.65.96Zm8.5-22.1.57,1.9-2.08-.2Zm-13.93,13.36.85-3.72,3.22,2.52ZM203,124l.25-3.8,3.57,1.94Zm-.06,5.18-.08-3.74,3.68,1.4Zm.6,5.28-.54-3.67,3.94,1.06Zm.82,4.4-.77-3.68,3.98.72Zm8.15-13.54-.8.45-.03-1Zm2.23,1.28-1.22,1.02-.43-1.75Z" fill="#ffe05f"/>
      <path id="Path_14175" data-name="Path 14175" d="M214.24,123.12l-.8.45-.02-1.1Zm-2,1.78-.78.35-.03-1Zm5.7,3.06-1.02.83-.37-1.24Zm-3.47-7.64.4,1.04h-1.23Zm-5.5,9.34,1.06-.2-.3,1.18Zm1.12,13.74,1.52-.64-.01,1.9Zm-3.37-1.87,1.52-.64-.1,1.9Zm.94,6.13.36.9-1.06-.03Z" fill="#ffe05f"/>
      <path id="Path_14176" data-name="Path 14176" d="M212.4,140.84l1.42,1.25-2.03.88ZM206.6,142l1.4,1.35-1.94,1Zm1.77.5,1.4,1.35-1.93.9Zm-.27-3.73,1.4,1.35-1.92.8Zm.85,8.8,1.5,1.23-1.85,1.05Zm-.65-2.68,1.4,1.34-1.94,1Zm3.07-.58,1.43-.74v1.9Zm-3.25-10.34.94-.6.15,1.3Zm1.64,7.27-.2-.92,1.14.22Zm6.44-7h-.96l.5-1.05Zm4.75.9.47,1.05-1.27.06Zm-7.1,2.15.9-.3-.2,1.07Zm6.88,6.13.01-1,1,.5Zm-4-3.33.46,1.05-1.26.06Zm-1.7,3.12-.75.72L214,142.9Zm4.4-5.64.9-.2-.22,1.08Z" fill="#ffe05f"/>
      <path id="Path_14177" data-name="Path 14177" d="M205.38,143.38l-1.07-3.6,4,.53Zm1.16,3.62-1.07-3.6,4.03.33Zm11.06,15.3,1.22-.75.15,1.6Zm-2.5.4,1.14-.83.3,1.6Zm1.67,3.88,1.1-.9.34,1.58Zm-.57-2.43,1.23-.66.15,1.5Zm2.12-5.9,1.62,1.1-1.84,1.27Zm-4.62.36,1.62,1-1.83,1.38Zm-2.48-3.1,1.63.9-1.74,1.38Zm4.96,11.96-1.1-1.87,2.43-.23Zm2.77-2.46,1.44.76-1.4,1.18Zm-3.6-4.9,1.37.93-1.47,1.08Zm5.5,8.1,1.05.72-1.1.8Zm-9.96-21.07,1.5,1.14-1.86,1.14Zm3.34,5.7-1.54,1.18-.56-2.1Zm-2.2-2L210.46,152l-.52-2.2Z" fill="#ffe05f"/>
      <path id="Path_14178" data-name="Path 14178" d="M214.1,156.02l1.36-.88.17,2Zm6.2,10.93,1.17-.75.18,1.6Zm-2.16,2.48.87-.7.3,1.22Zm-5.62-20.48.78-.8.47,1.2Zm3.7,6.5-.47-.9,1.06-.1Zm4.2-8.62-.96.3.2-1.1Zm-8.52-.34,2-.6-.44,2.36Zm7.07,3.66-.07-1,1.05.43Zm.53-5.16-.42,1.08-.84-.9Zm-6.04-4.24.75.62-.88.47Zm-.36,9.54.8-.68.26,1.1Zm6.77-12.25-.32,1.17-.97-.9Zm-6.47-3.6.82.5-.84.6Zm.7,9.48.65-.63.38.94Zm-2.4,12.78,1.35-1,.27,1.9Z" fill="#ffe05f"/>
      <path id="Path_14179" data-name="Path 14179" d="M212.1,154.4l2.5-.18L213.52,157Zm3.63,2.13,1.9,1.6-2.5,1.38Zm-7.43-10.06,1.98,1.64-2.44,1.43Zm2.66,6.33,1.35-.78.27,1.8Zm-2.26.02,1.46-.76.14,1.8Zm13.86,10.88-.58.6-.32-.84Z" fill="#ffe05f"/>
      <path id="Path_14180" data-name="Path 14180" d="M209.9,151.38l.36.9-1.15-.03Zm6.7,6.55.96-.1-.5,1.1Zm-7.98-5.43-1.02-2.88,3.36.25Zm2.2,4.4-1.8-3.3,4.04-.46Zm1.7,3.78-1.7-3.3,4.03-.37Zm1.9,3.96-1.6-3.04,3.4-.06Zm3.76,6.04-1.28-1.96,2.6-.6Zm-.96-19.6-.22.9-.75-.7Z" fill="#ffe05f"/>
      <path id="Path_14181" data-name="Path 14181" d="M215.66,153.05l-.4,1.6-1.43-1.2Zm3.44,3.2-.2,1-.96-.8Zm-2-8.06-.3.88-.75-.7Zm-.27,2.77-.4.8-.65-.7Zm4.65,23.83,1,.23-.68.92Zm-1.1-4.1-.66,1-.6-1.23Zm5.62.92-.67.92-.66-1.16Zm-.9,2.48-.67.92-.66-1.15Zm-6.85-19.64-1.55.78-.08-1.98Zm2.9,7.58-.82.82-.48-1.25Zm4.64,6.44-.14.7-.6-.5Zm-3.9-2.05.5.3-.5.43Zm.55,5.7.38-.4.23.56Zm4.38-17.6-.4,1-.76-.9Zm-5.25-4.13.67.6-.78.5Zm-.65,8.65.68-.5.2.9Zm11.12,18.2-.34.87-.67-.8Zm-4.6-3.6.58.53-.67.43Zm-.57,7.58.6-.43.16.8ZM225,165.96l-.04.67-.62-.32Zm-4.14-1.33.54.2-.46.46Zm1.42,5.52.32-.5.32.55Zm1.5,6.12.68-.52.24.96Zm-2.2-2.42,1.23-.35-.14,1.43Zm-.27-.48.6-.7.42.93Zm-1.07.2.73-.6.27,1.15Z" fill="#ffe05f"/>
      <path id="Path_14182" data-name="Path 14182" d="M227.06,179.05l.3.55-.64.05Zm-6.86-5.35-1.24-1.92,2.33-.68Zm4.84,6.17-1.3-1.5,2-.68Zm-54.57,13.78,1-.7-.9-.6Zm-1.9,3.93-.5-1.67-1.1,1.08Zm-8.9,4.22-.6-1.57-1.1,1.08Zm2.9,1.2-.5-1.47-1.2.88Zm5.8-27.94-1.4-1.57-.7,1.67Zm-.9,3.04-1.3-1.58-.8,1.58Zm-6.9,17.42-1.4-1.67-.8,1.67Z" fill="#ffe05f"/>
      <path id="Path_14183" data-name="Path 14183" d="M160.07,194.24l-1.1-1.28-.6,1.38Zm13.5-27.54-.6-1.97-1.4,1.18Zm1.3,9.15-.7-1.97-1.3,1.18Zm-6.6,8.15-.8-1.97-1.3,1.28Zm-2.3,0-2-.4.3,1.77Zm-1.2,10.34-2-.6.2,1.77Zm4.2-13.97-2-.4.3,1.77Zm-1.8,7.67-.7-1.96-1.3,1.27Zm-8.7,10.72-.5-1.67-1.1,1.08Zm4-10.23,1.2-1.77-1.8-.3Zm14-18.98,1.3-1.47-1.8-.5Zm-2.7-7.38,1.3-1.57-1.8-.5Zm6.9-3.24,1.2-1.57-1.8-.4Zm-6.4,20.17,1.1-1.67-1.8-.4Zm-1.6,3.53,1.1-1.67-1.8-.4Zm4.1-24.68.9-1.68-1.8-.1Z" fill="#ffe05f"/>
      <path id="Path_14184" data-name="Path 14184" d="M182.07,146.24l1-1.38-1.4-.2Zm-3.2,2.26,1.8-.3-.8-1.77Zm6.2,4.04,1.1-1.28-1.4-.5Zm-4.3-4.44,1.1-1.28-1.4-.5Zm-20.4,44.07,1-1.37-1.5-.2Zm1.2,2.36,1-1.47-1.5-.2Zm1.6-5.5-.6-1.68-1.1,1.1Zm4.4,1.77-.7-1.87-1.3,1.18Zm7.3,7.27-1,.1.4.8Zm-11-8.85,1.4.3-.2-1.18Zm-1,1.88.6-.98h-1.1Zm.4,5.6-.8-.8-.4,1.08Zm9.3-20.07,1.2-.7-1.1-.78Zm3.3-11.7,1.2-.7-1.1-.8Zm-5.3,13.57,1.2-.7-1-.78Zm-4.9,4.13-.5-1.08-.7.8Zm1.2-2.65-.5-1-.7.6Zm8.3,4.02-1.2.1.5.88Zm-4.3-9.24-1.2.1.5.9Zm.5-4.03,1.1.9.3-1.18Zm.6-2.85,1.1.8.3-1.18Zm6-17.5.5,1.67.4-1.27Zm-9.8,20.56,2.2-.4-1.2-1.57Zm1.5-3.25,2.1-.3-1.2-1.58Z" fill="#ffe05f"/>
      <path id="Path_14185" data-name="Path 14185" d="M171.37,175.65l.8-2.07-2,.4Zm2.3-4.92.8-2.06-2,.3Zm-6.2,16.43.7-2.17-1.9.4Zm-6,9.44.8-2.07-1.9.2Zm23.1-35.02-.7-.98-.5.9Zm1.8-13.58-.3,1.18,1-.2Zm-8.7,13.78,1,.8.2-1.08Zm-.7-9.24-.5,1.08h1Zm-3,11-.3,1.08h1Zm4-13.28,1.3-.2-.6-1Zm-6.3,38.07-.9.2.5.6Zm3.8-1.67v.78l.6-.3Zm-5.7-2.87.8.2-.1-.7Zm-8.7,13.2-.9.1.5.7Zm3.9-1.58-.1.7.6-.2Zm-5.6-3.05.7.3-.1-.68Z" fill="#ffe05f"/>
      <path id="Path_14186" data-name="Path 14186" d="M189.87,177.8l.7-.1-.4-.6Zm-7.7.9v-.8l-.6.2Zm-4.6-6.9v1.38l1.2-.5Zm-1.6-6.38,1.2.3-.3-1.1Zm-5.8,7.48.5-1.1-1-.1Zm16.5-28.33-.6,1.08,1.1.1Zm-2.3-2.17-.6.98,1,.1Zm-.4-2.95.7.8.3-.88Zm-5.3,9.95.9-.4-.6-.6Zm2.2,5.4.5-.8-.8-.1Zm1.1,8.56.1,1.08.9-.4Zm-8.5,8.44.2,1.97,1.6-.8Z" fill="#ffe05f"/>
      <path id="Path_14187" data-name="Path 14187" d="M184.57,158.93v1.18l.9-.4Zm-2.9,3.64.1,1.18.9-.5Zm5.1-13.97,2,.4-.4-1.78Zm-3.3-9.44,1.9-.5-.8-1.77Zm2.4,3.34,1.9.4-.3-1.77Zm-4.7,6.3,1.9.6-.2-1.77Zm-17.9,36.78v-1.47l-1.1.5Zm1.3,6.4-1.2-.3.2.98Zm6.2-7.08-.6,1,1,.1Zm-2.7,2.16.6,1.28.8-.9Zm-3.8-5.5,1.1-.1-.6-.98Zm-2.5,9.15.1-1-1,.3Z" fill="#ffe05f"/>
      <path id="Path_14188" data-name="Path 14188" d="M161.77,191.98l.1-1.38-1.1.4Zm.9,6.6-1.1-.4.1,1.08Zm6.5-7.27-.6.98,1,.1Zm-1.2-11.72,2.3-1.96-2.5-1.1Zm-8.3,20.17,1.5-1.28-1.5-.8Zm-3.5-2.75,3-.7-1.6-2.36Zm3.2-7,3-.7-1.5-2.56Zm-1.5,3.35,3-.7-1.7-2.26Z" fill="#ffe05f"/>
      <path id="Path_14189" data-name="Path 14189" d="M160.97,186.57l3-.8-1.7-2.07Zm1.4-2.95,3-.8-1.7-2.16Zm1.4-3.15,3-.8-1.7-2.06Zm3.8-2.27,1.4-2.76-2.7-.1Zm3.2-7.57,1.4-2.65-2.7.2Zm1.7-3.23,1.4-3.44-2.7,2.16Zm-5.5,6.28,3-.78-1.7-2.17Zm-12.3,26.75,3-.78-1.7-2.17Z" fill="#ffe05f"/>
      <path id="Path_14190" data-name="Path 14190" d="M156.87,204.86l-.4-3.05-2.3,1.48Zm3.9-.8-.4-2.95-2.3,1.48Zm17.5-53.3,2.8,1.47.1-2.85Zm-2.5,11.5,2.3-2.06-2.5-1.08Zm-5.5,27.35,1.2.2-.2-1.08Zm-5.7.18.5-.98h-.9Zm5.4,6.3-.8-.6-.2.88Zm-3.8-20.94-1,2.26,2-.1Zm2.4-1.96-.7,2.16,2-.2Zm6.2-11.42-1.3-1.47-.7,1.67Zm-2,3.84-1.3-1.58-.8,1.77Zm5.7-9.84,1.1.9.3-1.18Zm1-2.65,1,.98.4-1.28Zm-4,2.75,2.1-.1-.9-1.87Zm1.3-2.95,2-.5-1-1.67Zm4.4,3.15.9-1.97-2,.2Z" fill="#ffe05f"/>
      <path id="Path_14191" data-name="Path 14191" d="M183.07,157.06l-.1,1.28,1.2-.4Zm-1.1-6.5,1.2.3-.2-.98Zm-2.4,9.53.6-.98-1-.1Zm-6.1,5.7,1.4-2.85h-2.7Zm4.5-9.92,1.7-2.75-2.4-.2Zm-4.6,4.22,3-1.18-1.6-1.87Zm8-16.7,3.1-.8-1.6-2.26Zm-1.4,2.84,2.4-.7-1.1-1.96Z" fill="#ffe05f"/>
      <path id="Path_14192" data-name="Path 14192" d="M172.67,161.5l-1.1,2.46,2-.3Zm1.7-2.28-.7,2.17,1.9-.2Zm-4.2,35.4,1.2.2-.2-1.08Zm-5.7.2.5-.98h-.9Zm5.4,6.4-.8-.7-.2,1Zm-1.5-9.15-.2-1.37-1.1.7Zm2.2,6.2-1.2-.1.3,1Zm4.9-8.47-.4,1.08,1-.1Zm-1.6-8.45.3-.98-.9.2Zm-.1,4.73-.7-.4v.8Zm5.3-4.33-.5.6.7.2Zm2.6-14.65-.4.8h.8Zm1.2-4.14.5.5.2-.6Zm-5.8,2.84.6-.5-.6-.3Zm11.2-20.25.5-.7-.7-.1Zm-.6,7.58-.5-.5-.3.6Z" fill="#ffe05f"/>
      <path id="Path_14193" data-name="Path 14193" d="M181.27,168.76l1-.68-1-.6Zm-3.5,4.54-.5-.9-.5.7Zm8.3-.3-1,.3.5.7Zm-4.1-1.2-1.2-.68-.1,1.27Zm6.1,2.18-.8.78.9.4Zm-3.2-9.15.6,1.08.6-.88Zm1.6-3.63-.5-.8-.5.8Zm3.2,3.24-.8.3.5.6Zm.8-6.8v.9l.7-.4Zm-1-22.52-.3-2.07-1.5.9Zm2.3,3.34,1.5-1.38-1.7-.68Zm-1.3-7.77,1.5-1.28-1.7-.78Zm7.6-1.77,1.5-1.38-1.7-.78Zm-5.3-2.36,1.2-1.57-1.8-.4Zm7.2-11.1,1.1-1.38-1.5-.4Zm-3.7,1.96,1.7-.1-.7-1.37Zm5.1,4.92,1.2-1.28-1.4-.5Zm-2.9-5.1,1.2-1.28-1.4-.5Zm-6.5,16.52,1.3-.4-.9-1Zm-5.5,4.92,1,1.08.5-1.08Zm1.2-2.77.9,1.1.5-1.18Zm7.9-16.6.4,1.67.5-1.18Zm-10.3,16.22,2.3-.1-1.1-2.16Zm3.6,3.64,1.1-1.97h-2Z" fill="#ffe05f"/>
      <path id="Path_14194" data-name="Path 14194" d="M198.07,131.78l-.4-1.18-.8.7Zm-3.7-.68.9.9.3-.98Zm.1-9.64-.6,1.08,1.1.1Zm-4,10.62-.6,1.08,1.1.1Zm5.1-12.78,1.4-.2-.6-1Zm-3.2,21.53-.2,1.48,1.2-.3Zm-.3-6.5,1.1.5-.1-1.08Zm-7.1,6.3.7-1-1-.3Z" fill="#ffe05f"/>
      <path id="Path_14195" data-name="Path 14195" d="M200.37,121.26l-.7,1.08,1,.1Zm2.3-8.66-.6.9,1,.2Zm-.6,2.07.7.8.3-.9Zm-5.7,3.73.9-.4-.6-.6Zm1.9,5.6.6-.78-.9-.2Zm.4,9.46-.1,1.18.9-.3Zm3.2-3.94-.1,1.18,1-.3Zm-5.5,4.53-.1,1.18,1-.3Zm7-24.7,1.6.8-.2-2.17Zm-3,7.18,2,.4-.3-1.77Zm-1.5,1.46,1.9.7-.1-1.87Zm-12.9,20.57,1.9-2.56-2.8-.2Zm2.4-3.54,1.9-2.56-2.7-.6Zm7.5-15.25,2.7,1.58.3-2.76Zm-3.5,11.42,2.7-1.67-2.3-1.47Zm-1.4-1.38-1.1-1.68-1,1.48Z" fill="#ffe05f"/>
      <path id="Path_14196" data-name="Path 14196" d="M188.57,133.46l-1.2-1.97-.9,1.67Zm7.3-8.76.9,1,.5-1.2Zm1.1-2.46.9,1,.5-1.18Zm-5.3,1.86h2.2l-.9-2.06Zm1.7-2.64,2.2-.1-.9-1.77Zm5.1,3.74,1-1.87-2,.1Zm1.8,1.08-.1,1.37,1.2-.4Zm-.7-6.5,1.1.4V119.1Z" fill="#ffe05f"/>
      <path id="Path_14197" data-name="Path 14197" d="M191.57,125.88l.7-.98-1-.1Zm-2.1,8.36,1.9-2.56-2.6-.5Zm5.9-9.54,1.8-2.46-2.4-.4Zm-6.2,3.54,3.2-.6-1.5-2.26Z" fill="#ffe05f"/>
      <path id="Path_14198" data-name="Path 14198" d="M199.37,113.5l2.4.1-.3-2.36Zm-1.8,2.15,2.1-.1-.6-1.77Zm-8.7,13.08-1.4,2.46,2.1.1Zm2.7-.78-1.1,1.96,2,.1Zm5.7,8.95-.5.7.8.1Zm1.9-3.74.5.6.3-.6Zm-6.2,1.67.7-.3-.5-.4Zm11.5-23.2.3-.7-.7-.1Z" fill="#ffe05f"/>
      <path id="Path_14199" data-name="Path 14199" d="M207.97,105.42l1.1.3-.1-.98Zm-3,2.36,1.5.3.1-1.57Zm-3.5,3.35,2.4,1.18-.6-2.95Zm-1.4,12.97-.2,1.28,1.2-.3Zm6.8-17.8,1.1.5-.1-1.08Zm-7,8.37.7-.98-1-.2Zm4.3-1.27-.5-.5-.3.6Zm-1,11.8-.5-.78-.5.68Zm-1.5-7.2v.8l.7-.3Zm-37.9,85.98-.4.88.8-.1Zm1.2-3.94.5.5.3-.7Zm-5.8,2.66.6-.4-.6-.3Zm9.8-21.05.3-.7h-.7Zm-.1,6.98-.6-.5-.2.7Zm15.3-15.23.9-.8-.9-.5Zm-3.4,4.7-.5-1-.5.8Zm8.3-.48-1,.3.5.7Zm-4.1-1.1-1.3-.68-.1,1.27Zm6.1,1.97-.8.8,1,.3Zm-3.4-9.15.6,1.1.6-1Zm-18.9,27.45-.6-.7-.4.78Zm3.6,2.85-.8.4.6.4Zm-.1-6.9.1.8.6-.4Zm8.6-10.42.3-.9-.8.1Zm-.6,4.13-.7-.4-.1.68Zm5.4-3.54-.6.6.6.2Zm-7.6,9.83-.3.7.8-.1Zm-6.1,5.22.7.3.1-.6Zm11.1-16.13-.8.98,1,.3Zm2.6-5.02.6.88.5-.88Zm-8.2,1.87,1-.5-.7-.6Zm4.3.4,1.3.5-.1-1.27Z" fill="#ffe05f"/>
      <path id="Path_14200" data-name="Path 14200" d="M175.37,178.1l.7-.9-1-.2Zm4.9,8.27-.8-.9-.5,1.1Zm-3.4,3.83.7.5.3-.7Zm-3.9-2.35.7-.5-.7-.4Zm1,6.68-.3-.78-.5.5Zm10.9-46.63-.2-1.37-1,.68Zm2.3,6.2-1.2-.1.3.98Zm4.9-8.45-.4,1.08,1-.1Zm2.6,2.95-.3.7.7-.1Zm-1.2-2.56.7.5.3-.7Zm-3.9-2.36.6-.4-.6-.4Zm.9,6.7-.2-.78-.5.5Zm-8.6,10.93-.2-1.48-1.1.8Zm2.2,6.2-1.2-.1.3.98Zm4.9-8.57-.4,1.18,1-.1Zm2.6,3.05-.2.7.7-.1Zm-1.2-2.76.7.7.3-.88Zm-3.9-2.16.7-.5-.6-.4Zm1,6.7-.3-.8-.5.5Zm-13.7,32.95,1-.3-.6-.7Z" fill="#ffe05f"/>
    </g>
    <g id="Group_959" data-name="Group 959">
      <path id="Path_14201" data-name="Path 14201" d="M342.36,209.54l1.1-.7-1-.67Zm-6.7,1.72.7-1-1.38-.3Zm-2.27.74,1.72-.98-.9-1.58Z" fill="#da7f57"/>
      <path id="Path_14202" data-name="Path 14202" d="M334.2,209.52l1.27-.6-.6-1.28Zm1.76,2.54.9.01-.4-.9Zm3.06.58-.7.5.66.4Zm.3-.94-.6.6.76.45Zm-1.06-2.22-.6.6.88.4Zm2.07.62-.7.4.6.6Zm.15,1.3-.9-.1.2.9Zm1.57-1.6-1.04-.37-.25,1.46Zm-3.65,3.8-.47-1.93-2.08,1.24Zm-3.04-.84-.01-1.48-1.8.98Z" fill="#da7f57"/>
    </g>
    <g id="Group_960" data-name="Group 960">
      <path id="Path_14203" data-name="Path 14203" d="M312.9,212.57l1.25-1.26.56,1.44Zm3.8,2.36,1.2-1.32.62,1.42Zm-4.22,3.24-.68-.8.83-.25Zm1.4-6.87-.7-2.02,1.82.1Zm6.52,3.56-.62-1.73,1.55.13Zm4.7-4.5-1.46-1.14,1.37-.82Zm-7.6,6.74-.7-2,1.8.1Zm-2-1.3-.8-2h1.73Z" fill="#dd6d22"/>
      <path id="Path_14204" data-name="Path 14204" d="M318.34,214.08l-.8-1.9h1.82Zm-5.24,1.25-.06-2.1,1.7.65Z" fill="#dd6d22"/>
      <path id="Path_14205" data-name="Path 14205" d="M313.04,216.37l-.43-2,1.8.37Zm5.7-6.6,1.06-1.18.5,1.3Zm-7.2,4.37.9-1.56.84,1.27Zm9.27-4.87.8-.7.27.9Zm-4.25,2.47.76.5-.65.47Zm1.32-7.2-.28.9-.52-.6Zm.65,3.22-.87.67-.1-.97Zm4.44-1.87-.6-.58.68-.32Zm-2.16,7,.4-.77.45.6Zm1.32-2.22.8-1.3.76,1.18Zm.52-1.36.32-2.36,1.76,1.08Zm4.16-9.3.24-1.86,1.34.9Zm-7.03,13.1-.85-2.2,2.03-.02Zm2.27-9,.38-1.47,1.1.8Zm3.1,3.18.3-1.53,1.02.88Zm-12.45,1.12-.86-.9.94-.43Z" fill="#dd6d22"/>
      <path id="Path_14206" data-name="Path 14206" d="M312.4,210.2l-.84.43-.04-.95Zm-1.07-4.96.6-.83.4.78Zm6.97,4.3.37-1.04.63.66Zm4.75-2.48,3.13-.12-.9,2.8ZM321.1,211l3.2.64-1.7,2.55Zm-2.83,2.33,2.82,1.7-2.42,1.8Zm7.35-7.93-1.43-.97,1.2-.88Z" fill="#dd6d22"/>
      <path id="Path_14207" data-name="Path 14207" d="M324.15,203.02l3.2-.33-.93,2.97Zm-8.53,11.16,2.23,3.12-3.28.94Zm1.5-5-1.55.56.2-1.5Zm-10.5,9.68.1-2.08,1.64.7Zm5.6-5.53-.33-2.1,1.8.46Zm-1.95.24-2,.62.27-1.9Zm2,.44-1.88.95-.07-1.9Zm-3.1-4.76,1.55-1.74.73,1.87Z" fill="#dd6d22"/>
      <path id="Path_14208" data-name="Path 14208" d="M311.85,210.33l-1.18-.1.56-.94Zm5.35,1.4-.17-.94.82.2Zm-6.7,5.02.9-.48v.95Zm10.95-15.96-1.03.02.33-.9Z" fill="#dd6d22"/>
      <path id="Path_14209" data-name="Path 14209" d="M326.03,201.7l-.23-.87.75.2Zm-5.37,4.77.7-.46.06.8Zm-9.06,11.18-.57-2.77,2.34.5Zm-3.33-2.45,1.64-.7-.1,1.6Z" fill="#dd6d22"/>
      <path id="Path_14210" data-name="Path 14210" d="M308.45,217.67l1.46-1.18.27,1.6Zm2.35-.53-.6-.78.83-.25Zm10.95-9.24-.33-1.76,1.52.33Zm-9.55,7.03,2.08,3.32-3.4.7Z" fill="#dd6d22"/>
      <path id="Path_14211" data-name="Path 14211" d="M309.1,215.3l1.55,3.64-3.46.1Zm.5-3.9-.9-.07.45-.77Zm-.86-3.84-1-.07.45-.77Zm-1.3,3.04-.9-.07.36-.77Zm-22.83,4.88-.16-1.04.94.24Zm-1.52-1.45.8-1.97,1.4,1.34Zm3.2-14.4,1.06-.28-.14.9Zm-18.14,5.75,1.6-.12-.53,1.33Zm.1,2.46,1.63.04-.63,1.27Zm-4-1,1.6.07-.7,1.22Zm2.32.22,1.52-.1-.45,1.32Zm4.22-1.25.95-2.03,1.36,1.42Zm.43,4.6,1.05-2.04,1.27,1.43Zm3.67,2.12,1.07-1.95,1.17,1.45Zm-8.66-5.35.18,2.43-2.03-.76Zm-1.82-1.2.93-1.57,1,1.28Zm5.38,2.88.82-1.63,1.15,1.2Zm-8.4-4.16.6-1.23.9.92Zm21.9,7.33.9-1.98,1.3,1.36Zm-2.8-1.48-2.16-.2.9-1.72Zm2.5,2.1-2.25-.24.95-1.7Zm-8.22-4.7,2-.16-.64,1.48Zm-11.64-4.45,1.6-.1-.54,1.3Zm-1.72,2.7,1.26.07-.55.98Zm21.55,2.6,1.24.32-.68.87Zm-5.43-2.38.04,1.06-.95-.36Zm8-3.87-1.06.33.17-1ZM284.1,209l2.28-.74-.34,2.06Zm-2.1-6.27.55.98-1,.06Zm30.2.5-.72-.7.83-.4Zm2.68,4.16.42-.78.34.64Zm-8.28-.44.92.22-.5.7Zm-9.48,4.02,1.9-.05-.64,1.48Zm1.58,4.42,1.9-.05-.65,1.48Z" fill="#dd6d22"/>
      <path id="Path_14212" data-name="Path 14212" d="M296.8,212l.42-2.12,1.7,1.06Zm4.77,6.43.52-2.1,1.47,1.07Zm-4.22-.58.85-2,1.35,1.32Zm-.25-3.08.95-2.02,1.26,1.43Zm2.14,1.98.1-2.17,1.8.95Zm-5.38-1.55.76-2.08,1.45,1.4Zm7.92-1.88,1.53-.82-.07,1.6Zm-6.85-3.1,1.9-.03-.65,1.47Zm9.92,3.2,1.16-.1-.3,1.08Zm-5.35-.7.32,1.03-.9-.12Zm6.03-5.97-.88.55-.13-.86Zm-4.6-3.75-.2-1.23,1.05.2Zm-.2,5.87.93-.45.06.97Zm-6.7-5.57.63.77-.96.26Zm13.04-4.36-.34-.88.9.1Zm.7,4.1.73-.44.1.68Z" fill="#dd6d22"/>
      <path id="Path_14213" data-name="Path 14213" d="M301.53,200.05l.58.53-.65.24Zm4.37,6.55.9.44-.73.68Zm-4.25,5.58-1.1-.62.8-.7Zm4.03.58.26-.95.65.54Zm-7.98,1.84,1-.04-.35.86Zm6.6,3.05,1.54-.7v1.6Zm-.03-1.32,1.7-2.15.01,2.1Zm-2.17-.1.6-2.76,1.93,1.33Z" fill="#dd6d22"/>
      <path id="Path_14214" data-name="Path 14214" d="M297.46,208.36l-.32-1.2,1.12.1Zm-1.68,2.12-1-.03.46-.85Zm2.16-5.62.9-.56.07.96Zm4.38,8.06.9-.6.1.85Zm2.48,2.44,1.05,3.74-3.37-.24Zm-4.1-.63,1.3,3.86-3.7-.3Zm-4.1-.6.97,3.93-3.72-.54Zm9.5-5.26-1.56-.5,1-1.17Zm-1.3-2.7-1.1-.38.8-.87Zm-19.15.27.08-1.1.9.38Zm15.93,5.66,1.1-.2-.26.94Zm-13.85-1.8,1.9-.12-.54,1.55Zm2.1,3.36,1.87-.22-.54,1.55Zm-.42-3.63.75-2.08,1.34,1.33Zm-1.02,5.83.86-2,1.44,1.3Zm-.5-1.76.77-1.98,1.44,1.3Z" fill="#dd6d22"/>
      <path id="Path_14215" data-name="Path 14215" d="M291.7,214.12l.67-1.97,1.44,1.32Zm-6.3.2.87-2,1.43,1.3Zm1.44-5.12,1.9-.13-.65,1.48Zm10.86,3.22,1.33.07-.55.97Zm-5.93-1.12.3,1.12-.93-.13Zm7.03-5.5-1,.56-.06-.96Zm-2.6-3.6v-1.27l1.08.4Zm-1.45,5.7,1.07-.28-.25.92Z" fill="#dd6d22"/>
      <path id="Path_14216" data-name="Path 14216" d="M289.45,201l.57.97-1,.07Zm1.45,4.78v-1.27l1.08.4Zm-1.58,2.02-1.04-.2.67-.8Zm2.96,5.54.78,3.96-3.67-.83Zm-3.48-.96.58,4-3.67-.84Zm6-13.32-.83-.65.9-.4Zm3.12,3.9.37-.75.57.6Zm-7.74-.2.97.16-.54.7Z" fill="#dd6d22"/>
      <path id="Path_14217" data-name="Path 14217" d="M293.54,203.3l-.97-.9,1.15-.4Zm3.06,5.02.56-.87.53.78Zm-8.77-1.22.96.32-.6.7Zm-13.13,3.24,1.9-.05-.74,1.5Z" fill="#dd6d22"/>
      <path id="Path_14218" data-name="Path 14218" d="M275.25,210.05l2.55-1.54.25,2.5Zm-2.85-1.5.93-2.7,1.9,1.6Zm11.12,6.18,1.1-2.6.52.98Zm-4.97-4.3,1.8-.03-.54,1.46Zm.35,2.25,1.8-.16-.5,1.57Zm-11.47-9.88-.88-.18.48-.66Z" fill="#dd6d22"/>
      <path id="Path_14219" data-name="Path 14219" d="M280.68,213.6l-.23-1.13.96.2Zm-8.02-7.04,1-.67.07.97Zm10.14,5.14.66,3.3-3-.65Zm-3.65-1.87.23,4.06-3.56-1.2Zm-4.25-1.43.32,4.05-3.54-1.13Zm-4.68-.58.52,3.37-3.27-1.06Zm-7.04-2.12-.15,2.68-2.15-.93Zm17.28.68-.84-.62.84-.36Z" fill="#dd6d22"/>
      <path id="Path_14220" data-name="Path 14220" d="M278.72,209.13l-1.43-1.2,1.5-.66Zm-3.77-3.86-.95-.8.94-.37Zm8.72,1.2-.8-.66.84-.42Zm-2.92.34-.82-.52.7-.53Zm-25.67-2.04.8-.82.4.95Zm5.85,1.74-1.3-.4.86-.82Zm-1.83-5.33-1.25-.45.8-.83Zm-2.3,1.3-1.25-.45.8-.82Zm21.62,3.9-1.97.26.5-1.66Zm-8.87-2.07-1.32-.26.66-.95Zm-7.85-3.93-.6-.5.66-.25Zm2.02,2.87.33-.57.4.44Zm-5.26-.28.6.13-.33.44Zm17.1-5.24-1.02-.6.9-.56Zm3.78,3.6.35-.84.7.56Zm-7.9,1.03.92.03-.37.75Zm-19.28-6.4-.9-.52.8-.5Zm3.3,3.18.3-.74.62.5Zm-6.92.9.8.03-.32.66Zm15.6.63-.42-.56.65-.15Zm1.58,3.17.37-.53.3.5Zm-5.18-1.1.6.23-.44.4Zm-6.7-.65,1,.07-.4.76Zm2.1,1.7,1.38-.38-.14,1.27Zm1.38.13.98.26-.6.7Zm-.34,1.14,1.2.07-.47.82Z" fill="#dd6d22"/>
      <path id="Path_14221" data-name="Path 14221" d="M250.6,200.56l-.06-.64.6.2Zm9.34,3.9-.27,2.42-2.1-.9Zm-7.24-3.3-.34,2.1-1.7-1.02Z" fill="#dd6d22"/>
    </g>
    <g id="Group_961" data-name="Group 961">
      <path id="Path_14222" data-name="Path 14222" d="M242.38,114.6l-.8-.05.42,1Zm4.46,8.14-1.5.4,1.3,1.48Zm2.36-3.94-1.5.4,1.1,1.3Zm.57,2.04-.01,1.83,1.97-.83Zm-2.3-4.64.2,1.84,1.8-1.15Zm-2.3-3.82.6,1.82,1.52-1.4Zm6.53,7-.08,1.84,1.95-.64Zm-3.98,1.22-.37,1.86,2.08-.42Z" fill="#ea8f2d"/>
      <path id="Path_14223" data-name="Path 14223" d="M247.64,118.7l.13,1.8,1.8-1.15Zm4.23,4.6-.1,1.84,1.86-.68Zm-8.57-13.02,1.75-.84-1.5-1.25Zm2.1,8.3-1.1,1.1,1.58.67Zm4.2,5.78-1.46.53,1.16,1.3Zm-6.05-9.34-.94.34.87,1.05Zm3.9,6.23-.55-.66-.58.82Zm-9.14-11.47.74-.68-.86-.38Zm-2.12-5.48.2,1,.87-.7Zm3.03,2.5-.87.42.72.66Zm6.27,25-.7-.63-.12,1.04Zm-7.77-26.78.45.96.82-1.02Zm.17,2.73-.53-.35-.28.96Zm3.9.88-.8-.2.06.86Zm1.6,9.84,1.06-.43-.76-.9Zm-.6-7.4-.6.56.86.33Z" fill="#ea8f2d"/>
      <path id="Path_14224" data-name="Path 14224" d="M239.9,114.2l1.03.07-.15-1.05Zm7.44,2.6-.8.22.72.76Zm-.24-3.16-1.2,1.12,1.58.68Zm-2.4.36-1.07,2.17,2.83.06Zm.25,3.17.5,2.36,2.23-1.5Zm-1.6-4.92-1.38,1,1.6.82Zm1.04-1.6-.9,1.2,1.8.35Zm1,15.92.6.83.7-1Z" fill="#ea8f2d"/>
      <path id="Path_14225" data-name="Path 14225" d="M246.76,126.45l.9-.25-.65-.74Zm-3.16.85-.7.56.9.42Zm-1.1-15.96.75.5.13-1.1Zm2.3,7.93-.62.68,1.02.23Zm2.98-6.87-2.04-2.17-1.12,2.6Zm2.68,3.57-2.2-2.65-1,2.8Zm1.97,2.83-1.82-2.66-.97,2.9Zm2.6,3.9-1.6-2.28-1.46,2.2ZM241.1,110.84l.86-.02-.38-.77Zm-.67-3.74,1.33-.53-1.04-1.1Zm-1.83,6.7.83-.17-.68-.8Zm3.14-5.64.8-.2-.4-.76Zm11.28,20.18-1.4.72,1.24,1.17Zm1.74-2.47-1.42.67,1.24,1.13Zm3.24,4.8.5.86.58-.84Zm-8.52-4.6-.12,1.93,2-.72Zm.82-7-.16,1.3,1.37-.37Zm3.83,3.65-1.15.56,1.1.96Zm-3.73-.37-1.2.47,1.1,1.1Zm4.77,3.83v1.88l1.9-.77Zm-.57,1.72-.1,1.84,1.86-.68Zm-2.5-2.94-.04,1.75,1.95-.64Z" fill="#ea8f2d"/>
      <path id="Path_14226" data-name="Path 14226" d="M256.34,131.26l-.05,1.93,1.93-.7Zm-.57-1.98-.15,1.9,1.97-.8Zm-2.72,1.57-1.44.58,1.24,1.18Zm-6.05-10-.96.27.7.97Zm5.57,6.86-.38-.84-.65.92Zm-9.84-3.04.66-.68-.95-.34Zm.27-4.48.13,1,1.07-.66Zm4.3,7.5-.8.5.82.6Zm-.77,9.08-.62-.58-.4.92Zm1.34-3.45.38.92.83-.95Zm2.15-.73.95.07-.5-.86Zm-5.92-.1-.86.5.84.57Zm12.85-6.6-1.73-2.68-1.33,2.14Zm1.65,3.6-1.62-2.85-1.24,2.4Zm5.04,18.16-1.44.58,1.33,1.22Zm1.88-2.14-1.4.5,1.2,1.27Zm2.32,2.72-1.44.58,1.24,1.18Zm-1.62-.8-1.48.68,1.38,1.12Zm-5.44-1.74-.15,1.9,2-.9Zm2.42-4.04-.1,1.8,2.06-.76Z" fill="#ea8f2d"/>
      <path id="Path_14227" data-name="Path 14227" d="M262.1,138.06l-.1,1.8,1.93-.7Zm7.27,10.17-1.3-2.07-1.64,2.35Zm-4.37,1.3-.05,1.93,1.97-.8Zm-1.95-5.38.03,1.74,1.88-.6ZM267,152l.3,1.86,1.73-1Zm-13.34-21.33.83,1.65,1.36-1.7Zm4.68,8.48,1.75-.56-1.5-1.6Zm-1.1-3.6,1.63-.5-1.28-1.62Zm3.65,5.23-1.58.64,1.56,1.2ZM265.93,152l-1.43.8,1.45.94Zm3.02-1.77-1.48.67,1.37,1.12Zm-13.64-15.5-.94.15.65,1.04Zm4.02,7.45-.5-.86-.66.8Zm-10.04-2.93.68-.58-.98-.52Zm4.8-6.55-1.7.9,1.87,1.22Zm-2.06,7.5-.62-.6-.4.92Z" fill="#ea8f2d"/>
      <path id="Path_14228" data-name="Path 14228" d="M248.1,137.44l.96.3-.04-1.2Zm.57-7.04-.07.95.88-.28Zm7.75,6.86-.88.28.68.72Zm-12.92-7.72,1.06.56-.03-1.2Zm-1.93-11.08-.36.84,1.08-.08Zm9.6,14-.9.06.32.78Zm11.66,6.45-1.48.68,1.3,1.3Z" fill="#ea8f2d"/>
      <path id="Path_14229" data-name="Path 14229" d="M260.86,138.18l-1.48,1.98,2.6.55Zm-.46,4.56.3,2.4,2.38-1.28Zm-4.4-12.5-.06,2.47,2.52-1.1Zm2.55,5.3-1.43.8,1.38,1.12Zm2.3-1.3-1.53.55,1.33,1.2Zm.82,18.88,1.03-.1-.8-.67Z" fill="#ea8f2d"/>
      <path id="Path_14230" data-name="Path 14230" d="M258.78,134.24l.5.86.67-.8Zm2.22,9.94-.5.66.96.3Zm.23-9.92-1.45-3-1.72,2.53Zm2.43,4.24-1.63-3.07-2.45,2.98Zm2,3.22-1.84-2.83-2.36,3.02Zm2.28,4.48-1.98-3.54-2,3.17Zm3.18,4.83-1.88-2.75-2.13,3.23ZM253.9,139.67l.83.35-.02-1Zm3.76.83,1.42.5-.1-1.8Zm.68,4.3,1.02.43-.07-1.12Zm-6.5-7.2.73.3-.1-1.02Zm1.67-.9.82.12-.2-.84Zm20.57,19.36-.1,1.43,1.65-.67Zm-4.67,1.78,1.56-.7-1.4-1.34Zm2.94,2.4,1.5-.82-1.42-1.24Zm-14.8-16.88,1.38-.94-1.6-1.1Z" fill="#ea8f2d"/>
      <path id="Path_14231" data-name="Path 14231" d="M267.6,156.07l1.5-.82-1.44-1.14Zm-4.7.28,1,.2-.3-1.1Zm-.46-6.37.15.93.68-.58Zm7.26,3.92-.75.22.62.6Zm-16.44-8.1.86.26-.1-1.02Zm-2.3-3.57.01.76.78-.32ZM260,148.3l-.74.22.62.6Zm-4.1,3.04,1.05.34-.07-1.12Zm5.03-.6-.04.85.88-.28Zm6.7,5.95-.9.26.63.7Zm6.7.6-.92.67,1.26.67Zm-1.8-1.68-1,1.7,2.13.2Zm-1.07-.62-1.1.52,1.18.96Zm1-1.28-.97.87,1.35.7Z" fill="#ea8f2d"/>
      <path id="Path_14232" data-name="Path 14232" d="M269.94,154.33l.44.5.44-.8Zm3.1-.43-1.83-2.6-2.24,2.74Zm2.27,2.52-1.92-2-1.24,2.87Zm2.73,2.7-2.13-1.77-1.02,2.83Zm6.8,10.66-1.08,1.15,1.85.48Zm.7-3.28-1,1.14,1.68.4Zm3.44,1.14-.9,1.34,1.8.23Zm-1.93.16-.9,1.34,1.78.32Z" fill="#ea8f2d"/>
      <path id="Path_14233" data-name="Path 14233" d="M271.9,161.47l.54,1.72,1.46-1.46ZM282,164.6l.76,1.63,1.44-1.5Zm-2.5-2.82.65,1.72,1.44-1.5Zm10.98,4.84-2.15-.95.01,2.8Zm-2.98,3.73,1.1,1.47,1.03-1.83Zm-4.63-3.5.75,1.73,1.36-1.62Zm9.26,2.43,1.3,1.4.72-1.65Zm-15.68-7.06-1.02,1.2,1.77.34Z" fill="#ea8f2d"/>
      <path id="Path_14234" data-name="Path 14234" d="M289.62,171.7l-.6,1.47,1.7.01Zm1.42-3.12-.8,1.45,1.8.13Zm-10.52-6.24-1.1,1.25,1.65.46Z" fill="#ea8f2d"/>
      <path id="Path_14235" data-name="Path 14235" d="M278.27,162.5l-.36,2.37,2.62-.6Zm-2.35-1.85.48.94.85-.92Zm10.14,14.5.65-.66-.88-.36Zm-4.8-7.66-.15,1,1.07-.34Z" fill="#ea8f2d"/>
      <path id="Path_14236" data-name="Path 14236" d="M280.93,161.6l-2.8-2.15-.86,3.72Zm3.34,2.02-2.96-1.86-.57,3.75Zm3.65,2.14-3.38-2.03-.17,3.9Zm5.48,1.97-2.53-.96.04,2.8Zm-.84,6.07.7-1.13-1.5-.26Zm-13.54-4.9.4.67.5-.63Zm14.86,2.3-.56.76.9.06Zm-19.3-5.32-.75.4.9.47Zm6.4,5.42.4.67.7-.5Zm14.87-.2.05,1.22,1.33-.6Zm-.53,1-.67,1.05,1.4.3Zm.58-2.68-.5,1.27,1.52-.1Zm-1.64,1.98.7.15-.05-.8Zm2.28-2.5-2.08-.7-.02,2.33Z" fill="#ea8f2d"/>
    </g>
  </g>
</svg>
