<svg xmlns="http://www.w3.org/2000/svg" width="212.864" height="126.597" viewBox="0 0 212.864 126.597">
  <g id="_43" data-name="43" transform="translate(-151.837 -97.27)">
    <g id="Group_1107" data-name="Group 1107">
      <path id="Path_16338" data-name="Path 16338" d="M362.06,207.9c-1.9-1.1-4.07-4-7.42-4.3-9.2-.88-16.5-1.65-21.8-4.15-3-1.5-10.35,9.8.65,12.6a47.1,47.1,0,0,0,5.56,1.56,11.594,11.594,0,0,1,21.94,5.24h0c0,.08-.01.17-.01.25s.01.17.01.25a12.574,12.574,0,0,1-.5,3.3,1,1,0,0,0,.4.5c1.8.85,2.5-2.54,2.97-6.13s.7-7.35-1.8-9.1Z" fill="#fff"/>
      <path id="Path_16339" data-name="Path 16339" d="M327.63,195.1l-4.45,14.13a1.251,1.251,0,0,0,.67,1.4l8.14,2.42a1.251,1.251,0,0,0,1.4-.67l4.5-13.77a1.251,1.251,0,0,0-.67-1.4l-8.07-2.83a1.385,1.385,0,0,0-1.54.72h.02Z" fill="#fff"/>
    </g>
    <path id="Path_16340" data-name="Path 16340" d="M326.05,202.57l-.1.1C325.98,202.68,326.01,202.65,326.05,202.57ZM226.03,98.08h.05l.27-.01Z"/>
    <path id="Path_16341" data-name="Path 16341" d="M364.7,213.28a8.174,8.174,0,0,0-1-4.22,3.992,3.992,0,0,0-1.1-1.16c-.3-.2-.48-.24-.44-.12.03.14.32.4.7,1a6.227,6.227,0,0,1,.78,3.03l-.04-.07c.12,1.7-.03,2.8,0,4.03-.2.17-.2,1.44-.3,1.85v-.04a23.432,23.432,0,0,1-.6,3.17.543.543,0,0,1,.01-.3c-.14.73-.48,1.64-.6,1.6-.17.35-.44.62-.6.63-.2.02-.34-.08-.3-.23l.13-.62a6.211,6.211,0,0,0,.1-.7,5.942,5.942,0,0,0,.04-1.16l.02.1-.04-.8a5.368,5.368,0,0,0-.03-.85c.01-.04.01-.1.02-.1a17.672,17.672,0,0,0-.5-2.76l.05-.06a12.984,12.984,0,0,0-.52-1.4c.08.17.13.35.2.53-.23-.1-.3-1.12-.98-2-.5-.9-1.5-1.45-2.15-2.22-.42-.27.42.2-.17-.26.05-.1.3.2.2,0a9.729,9.729,0,0,0-1.64-1.33v-.08a12.25,12.25,0,0,0-2.75-1.28,4.439,4.439,0,0,1-.98-.34,1.962,1.962,0,0,0-1.06-.2l-.48-.17c-.55-.05-.4.1-1,.02.04-.08-.78-.05-.42-.12a13.5,13.5,0,0,0-4.56.93,14.6,14.6,0,0,0-1.38.86c-.1-.05-1.54,1-.75.33.07-.06.2-.15.2-.12l.06-.13a8.424,8.424,0,0,0-2.24,1.92c.23-.2.5-.5.36-.27l-.67.7.08-.2a13.864,13.864,0,0,0-.93,1.1l.18-.1-.54.65c-.14.16-.36.54-.3.55-.01.14.17-.1.07.13l-.03.04-.05-.03-.12-.04-.77-.2-1.63-.56c.07.1-.2.02-.52-.07v-.08a2.052,2.052,0,0,1-.96-.4,25.619,25.619,0,0,1,1.6-5.04l.17-.04c.22.03-.12-.65.1-.66l-.02-.26c.06-.05.14-.18.15-.05a.636.636,0,0,0,.04-.4l.2-.2c.38-.8.37-1.6.7-2.5a4.274,4.274,0,0,0,.36-.77c.5.1.42.07.17-.01.02-.01,0-.02-.08-.06.55.22,1.58.37,1.63.48,1.66.33,2.86.4,4.25.57.15.08-.18.08-.6.04l.98.12c-.02.08-.57-.03-.88-.06,1.15.3,2.43.22,3.8.5l.3-.03h.08a1.563,1.563,0,0,1,.52-.03c.2.1-.03.16.65.23a14.9,14.9,0,0,0,2.24.16c-.38-.05-.25-.08-.1-.08.34.03.53.12.8.12v.1c-.12-.1.9-.01,1.03-.03.2.1-.53.01-.62.05l2.05.2c.73,0-.12-.1.23-.15a5.31,5.31,0,0,1,1.9.4l-.2-.15a6,6,0,0,1,2.36,1.32c3.7,2.62,4.3,2.45,3.8,2.02l-1.73-1.57a11.09,11.09,0,0,0-4.02-2.6,8.418,8.418,0,0,0-1.2-.3l-1.25-.1-2.78-.2-8.43-1.2-4.6-.9a.928.928,0,0,1,.04-.13l.28-1.18a2.226,2.226,0,0,0,.1-.8,2.124,2.124,0,0,0-.16-.75,2.223,2.223,0,0,0-1.08-1.14l-.06-.02c-1.38-.5-2.7-1.52-4.16-1.7a.2.2,0,0,0-.2-.01l-1.5-.56-1.07-.36c-.01,0-.02,0-.02-.01a18.821,18.821,0,0,0-.42-4.5,17.746,17.746,0,0,0-5.15-9.03,6.727,6.727,0,0,0-1.17-.98,17.325,17.325,0,0,0-5.17-3.03l-5.34-2.02-20.9-8.1c-3.98-1.58-6.66-2.8-6.14-2.25a11.1,11.1,0,0,0,1.63,1.08c-.64-.3-1.23-.58-1.74-.85a37.027,37.027,0,0,1-7-4.6q1.028.78,2.1,1.5a27.4,27.4,0,0,0,4.4,2.35c1.93.8,1.9.57.92-.05-.93-.63-2.7-1.7-4.13-2.77s-2.55-2.06-2.55-2.06a44.518,44.518,0,0,1-5.5-5.98,70.1,70.1,0,0,1-4.17-6.06c-2.6-4.2-5.23-8.82-8.84-15.28-3.1-5.72-5.1-9.34-7.34-12.93-1.12-1.8-2.38-3.56-3.87-5.5a61.227,61.227,0,0,0-5.85-6.46,32.968,32.968,0,0,0-8.26-5.96,21.27,21.27,0,0,0-9.96-2.3,20.484,20.484,0,0,0-2.74.32,11.185,11.185,0,0,0-2.07.42,27.022,27.022,0,0,0-5.86,1.35l-.62.1a5.435,5.435,0,0,0-1.87.9,10.079,10.079,0,0,1-1.97,1.1l-1.3.94c-.4.2-1.2.7-.57.22a8.761,8.761,0,0,0-1.17.84l-.85.74-1.33.86c-4.47,3.7-7.47,7.62-11.03,12.44a95.164,95.164,0,0,0-7.58,11.84c-2.5,4.63-4.82,9.42-6.46,12.94-4.54,9.93-10.74,21.03-15.1,31.32a5.065,5.065,0,0,0-.32.72,4.24,4.24,0,0,0-.17.48l-4.3,9.28s-5.18,11.26-7.94,18.46l-.7,1.9-.1.3a2.3,2.3,0,0,0-.1.35,2.375,2.375,0,0,0,.72,2.42,1.829,1.829,0,0,0,1.4.46c.27-.04.28-.1.13-.16a2.38,2.38,0,0,1-1.1-.6,1.315,1.315,0,0,1-.3-.45,1.66,1.66,0,0,0,1.4.8l7.4-.03c-18.43,1,.2,1.28.2,1.28,11.1.27,16.85-.16,30.07-.32,11.63.03,14.7.3,26.76.13l8.8-.05,5.84-.06c.12-.08.12-.3.2-.45l.15-.48.45-1.48.6-2.05c.58-2.62,2.1-7.08,2.8-10.17l.3-.78,1.78,1.46a104.435,104.435,0,0,0,20.38,12.34l.54.4c.18.32,3.95,1.3,4.4,1.72l1.67.53c.44.2,1.4.6.57.35a22.611,22.611,0,0,0,2.67.9l1.6.68a148.609,148.609,0,0,0,17.83,4.82,113.008,113.008,0,0,0,15.5,2.72c5.97.58,12.28-.67,16.1-3.27a14.551,14.551,0,0,0,4.4-4.5,3.715,3.715,0,0,1,1.2.37l-.02.03c1.06-.1,1.42.7,2.5.64-.13.01.03.1.01.12.46.1.95.22,1.04-.05.33.1.24.16.25.28.03-.12.33-.1.6-.02l-.13.01.74.18-.08-.27c.38.18-.01.3.43.37l.04-.2a5.89,5.89,0,0,0,1,.2,1.626,1.626,0,0,0,1.2-.4,1.959,1.959,0,0,0,.36-.54l.02-.04.01-.03c.03.01.04.01.08.02l.03-.1c1.06.37,1.63.8,2.7,1.18a15.236,15.236,0,0,0,2.14.44c.07.04.1-.02.13-.08l.1-.17.18-.33.27-.5.45-.7a11.483,11.483,0,0,1,2.27-2.45,9.753,9.753,0,0,1,5.96-2.2l.18.08c.04.06.3,0,.6-.05.3-.03.6-.07.66-.01.16-.01.32-.03.48-.03.13.04.4.1.17.1a3.748,3.748,0,0,0,.76.06,3.383,3.383,0,0,1,.44.18,11.694,11.694,0,0,1,4.46,2.13,14.65,14.65,0,0,1,2.65,3.28,11.484,11.484,0,0,1,1.4,4.13,11.862,11.862,0,0,1,.04,2.6,10.756,10.756,0,0,1-.26,1.33l-.22.78c-.04.18-.1.37.04.53a2.088,2.088,0,0,0,.3.47,1.3,1.3,0,0,0,.5.28,1.342,1.342,0,0,0,.56.12,1.414,1.414,0,0,0,.56-.1,2.284,2.284,0,0,0,.46-.26,3.392,3.392,0,0,0,.96-1.4,10.29,10.29,0,0,0,.68-2.8,1.43,1.43,0,0,0,.04-.42c.18-1.1.34-2.17.45-3.27a15.166,15.166,0,0,0,.13-2.32v-.04Zm-31.62-3.03-.07-.12-.27.62.15-.05c-.16.3-.4.33-.35.74.04.2.26-.24.2.1l-.3.54.04-.1c-.04.04-.1-.01-.07.01-.03-.04-.03-.07-.07-.06.05.14.01.14-.05.18l-.02-.12c-.1.1-.1.02-.08-.06,0-.04.02-.07.01-.1a.5.5,0,0,0-.28-.07l-.15.14c-.58.08-.2-.33-.87-.18.23.05.03.3-.23.16l.1-.1c-.16-.02-.23.01-.32-.04.1-.04.1-.15-.13-.2l.2-.1-.5.1c-.3-.22-.86-.22-.94-.42,0,0-.68-.3-.9-.16.17-.07-.2-.23-.05-.32a1.2,1.2,0,0,1-.97-.2h.05a3.664,3.664,0,0,0-1.04-.3,10.108,10.108,0,0,0,.35-1.06l2.76-9.08a20.682,20.682,0,0,0,1.07-4.25,2.283,2.283,0,0,0,.82.1c0,.3.67.27.84.42l-.03.02c.58-.03.98.54,1.54.52-.03.01-.06.1-.18.05.37.1.88.2.85.37a9.462,9.462,0,0,0,2.66.68l-.05.03a1.481,1.481,0,0,1,.2-.01c.04.02.06.06.14.08a.138.138,0,0,1-.03.04c.1,0,.17.13.17.3a2.159,2.159,0,0,1-.06.4l-.1-.02-.2.7.1-.25c.26.18-.35.45-.32,1-.2.45.3,1.13,0,1.56.06.27-.16-.27-.16.1-.16-.04-.04-.2-.2-.14-.04.36-.33.5-.37.94l-.12-.02c.04.6-.5.96-.4,1.4-.08.6-.47.26-.43.9l-.23.17c-.1.24.14.24-.03.5-.1-.05-.2.32-.24.13-.36.57-.2,1.33-.72,2.06.14.24-.1.6-.01.8-.1-.01-.28.82-.32.3,0-.04.02-.1.06-.1l-.1-.1c-.37.4-.16.9-.34,1.34.08-.12.13-.3.17-.16l-.17.4-.01-.02Z"/>
    <g id="Group_1108" data-name="Group 1108">
      <path id="Path_16342" data-name="Path 16342" d="M208.66,149.14l.03.15C208.7,149.29,208.7,149.25,208.66,149.14Zm19.7,33.2c.01.01.02.01.03.02C228.37,182.34,228.36,182.34,228.36,182.34Zm-18.34-27.27H210v-.04Z" fill="#fff"/>
      <path id="Path_16343" data-name="Path 16343" d="M206.93,147.84c.76,1.92.83,2.5,1.76,4.42l1.32,2.8c.32.38.56,1.2.9,1.65l.03.23a1.851,1.851,0,0,1,.28.54h-.02a6.533,6.533,0,0,1,.37.66h-.02l.16.3-.05-.04a9.749,9.749,0,0,1,.68,1.32l.06-.07c.35.92.67,1.16.96,2h-.02c.7.9.67,1.64,1.4,2.56-.1-.1-.01.08-.04.07.26.46.55.95.7.88.18.34.1.3.07.38.07-.04.25.24.4.5l-.1-.1.43.75.04-.22c.18.42-.1.18.14.55l.1-.06a14.209,14.209,0,0,1,.54,1.55c1.17,2.27,2.96,4.42,4.2,6.44v.14c-.08.1.55.4.5.55l.2.2c.03.08.1.22,0,.13a1.582,1.582,0,0,0,.3.32l.1.27c.56.84,1.22,1.4,1.84,2.27a29.714,29.714,0,0,0,3.26,3.85c1.4,1.35,2.48,3.4,3.96,4.73a.376.376,0,0,0,.18.15l1.2,1.36,2.48,2.56c1.02.9,1.55,1.13-.3-1.68h.05a8.506,8.506,0,0,0-1.58-1.66c.06-.2-.53-.62-.64-.83l.03.01c-.5-.36-.74-1-1.22-1.36a.216.216,0,0,1,.16.08c-.3-.3-.7-.7-.65-.8L229,183l.05.02c-.32-.2-.32-.35-.63-.63,0-.03-.02-.05-.01-.05a13.492,13.492,0,0,1-1-1.1l.04-.06-.52-.6.18.24c-.2.04-.3-.54-.76-.9-.32-.44-1-.62-1.28-1.1-.24-.16.26.1-.05-.17.07-.07.17.1.16-.02-.3-.28-.33-.57-.68-.9l.05-.06c-.5-.42-.66-1-1.02-1.26-.44-.5-.1-.48-.6-.94l-.08-.27c-.16-.24-.22-.1-.38-.38.06-.02-.2-.36-.04-.24-.35-.65-.98-1.12-1.4-2-.22-.1-.42-.55-.6-.62.03-.05-.53-.8-.13-.42.03.03.08.1.06.1l.1.01c-.2-.53-.62-.78-.87-1.25.06.15.18.33.06.23l-.25-.43.1.06-.36-.65v.13c-.16-.33-.1-.5-.4-.8-.14-.13.08.36-.13.03l-.78-1.7c-.05.1-.13-.06-.23-.2l.06-.05c-.42-.53.02-.3-.36-.83l.07.03-.22-.08c-.4-.46-.02-.36-.5-.85.14.23-.1.2-.2-.1l.1.04a3.06,3.06,0,0,1-.2-.3c.08.08.12,0-.02-.23l.16.1-.35-.38c-.12-.37-.48-.87-.46-1.06a3.444,3.444,0,0,0-.52-.87c.14.12-.05-.3.08-.22a2.248,2.248,0,0,1-.55-.95l.03.04c-.34-.88-.82-1.38-1.1-2.18-.06.07-.2-.35-.27-.2-.48-.74-.5-1.53-.93-1.66a1.924,1.924,0,0,1-.2-.65l.06.08-.66-1.35c-.15-.23-.3-.2-.48-.67.12.12.03-.06-.05-.23.06.1.1.13.03-.1-.03-.02-.06-.07-.1-.1-.14-.28-.13-.22-.08-.1-.01,0-.02.01-.02.06-.06-.32-.37-.8-.3-.9l-1.13-2.08c.02-.1.13.04.24.24l-.24-.5c.08-.03.17.27.25.42-.14-.65-.66-1.17-.85-1.92l-.12-.12v-.05c-.03.02-.14-.12-.2-.22.02-.13.15-.06,0-.4a4.908,4.908,0,0,0-.55-1.1c.07.2.01.15-.05.08-.08-.17-.05-.3-.14-.42l.08-.05c-.05.1-.28-.42-.34-.47.02-.13.17.25.24.27l-.45-1.04c-.22-.35-.05.1-.2-.05a5.317,5.317,0,0,1-.45-1.02l-.05.1a5.272,5.272,0,0,1-.54-1.43c-1.23-2.2-1.52-2.38-1.54-2a6.2,6.2,0,0,0,.3,1.34,30.662,30.662,0,0,0,2.12,4.92l-.06-.04Zm-41.6,61.58.2.03C165.53,209.44,165.48,209.43,165.33,209.42Zm51.47-.02a.09.09,0,0,0,.05-.01A.134.134,0,0,1,216.8,209.4Zm-43.56,1.2h0a.354.354,0,0,0-.06.01h.06Z" fill="#fff"/>
      <path id="Path_16344" data-name="Path 16344" d="M162.86,210.5l6.27.14,4.1-.04c.62-.13,1.73,0,2.47-.1l.3.07a2.685,2.685,0,0,1,.8-.02l-.02.02c.38-.05.8-.02,1-.05l-.02.02.46-.01-.08.03a16.107,16.107,0,0,1,1.95-.04l-.05-.1c1.3.1,1.76-.08,2.92.03l-.02.02c1.47-.23,2.32.16,3.84-.06-.2.03.08.04.07.07.7-.02,1.44-.04,1.45-.2.5,0,.4.05.48.12,0-.08.44-.1.84-.1l-.18.03,1.14-.03-.22-.14c.6.04.15.17.73.14l-.01-.12a18.822,18.822,0,0,1,2.13.3c3.36.05,6.96-.25,10.08-.04l.14.1c.06.13.86-.2.98-.07l.36-.06c.1.02.32.05.14.08a3.284,3.284,0,0,0,.6-.05l.36.08c1.33.06,2.45-.1,3.85-.06a61.652,61.652,0,0,0,6.64-.07c2.55-.2,5.52.32,8.14.1a.557.557,0,0,0,.3-.04l2.4.02s11.6.05,2.8-1.02l.06-.03a14.072,14.072,0,0,0-3.04.06c-.14-.17-1.08-.02-1.38-.07h.03c-.8.13-1.65-.1-2.42.01a.315.315,0,0,1,.22-.06,4.294,4.294,0,0,1-1.37-.04,37.592,37.592,0,0,0-4.07.14l.06-.03a8.811,8.811,0,0,1-1.18.07c-.03-.01-.07-.02-.06-.03-.53.1-1.56.02-2,.06l-.03-.07-1.06.02.4.01c-.14.18-.8-.12-1.57,0-.72-.02-1.46.38-2.2.3-.36.1.3-.14-.22-.07-.02-.1.25-.06.1-.14-.52.05-.86-.1-1.5-.03l-.03-.07c-.84.14-1.6-.1-2.15.03-.87.06-.58-.22-1.5-.08l-.35-.1c-.4-.02-.28.12-.7.07.03-.06-.54-.05-.3-.1-.97-.1-1.97.14-3.25-.03-.28.12-.92.05-1.13.14-.03-.05-1.3-.01-.57-.13.06-.01.17-.01.16.01l.1-.07a12.739,12.739,0,0,0-2.05.05c.2.02.5.02.3.07l-.67-.01.14-.06-1-.04.14.08a3.2,3.2,0,0,0-1.2-.06c-.25.06.46.1-.05.13-.65-.05-1.63-.13-2.47-.15.08.1-.15.08-.38.1l-.03-.07c-.9.1-.32-.16-1.2-.08l.08-.05-.23.16c-.8.15-.43-.15-1.3.05.35-.01.16.16-.26.13l.1-.07a2.122,2.122,0,0,1-.47.03c.14-.04.07-.1-.27-.1l.23-.1-.66.13c-.5-.08-1.32.02-1.53-.08a6.058,6.058,0,0,0-1.35.06c.22-.07-.38-.1-.2-.18a4.412,4.412,0,0,1-1.46.06h.06c-1.24-.1-2.12.12-3.24.01.05.1-.54.04-.4.15-1.15.1-2.1-.23-2.52.12a3.983,3.983,0,0,1-.9-.1l.12-.02c-.98.03-1.27.03-2,.02a3.161,3.161,0,0,1-1.07.15c.2-.06-.06-.05-.3-.05.16-.01.2-.03-.12-.08a.691.691,0,0,1-.18.04c0-.01-.02-.01-.01-.02-.4.02-.34.04-.15.05-.01.01.01.02.06.04-.42-.08-1.18.01-1.23-.1-1.23.03-2.1.14-3.12.18-.1-.06.12-.1.42-.13l-.72.02c.01-.08.42-.05.64-.06-.86-.13-1.78.13-2.8.01l-.2.06-.06-.01c0,.03-.22.08-.37.1-.14-.07.01-.16-.5-.16a8.562,8.562,0,0,0-1.64.07c.28.01.2.05.07.08a4.514,4.514,0,0,0-.6-.04v-.1c.1.1-.65.1-.75.13-.14-.07.4-.06.45-.1l-1.5.01c-.53.07.1.1-.16.17a10.091,10.091,0,0,1-1.47.03l.17.08a8.2,8.2,0,0,1-2.02-.03c-6.6.68-1.4.93-1.4.93a62.7,62.7,0,0,0,7.04-.1ZM212.3,100.6l.1-.02C212.39,100.57,212.36,100.57,212.3,100.6Zm25.5.5Zm-21.37-1h-.01l-.02.02Z" fill="#fff"/>
      <path id="Path_16345" data-name="Path 16345" d="M211.76,102.16c1.2-.64,1.57-.67,2.8-1.3l1.86-.77c.25-.24.8-.26,1.13-.46l.16.03a.722.722,0,0,1,.38-.13v.02a2.8,2.8,0,0,1,.47-.17h0l.22-.05-.03.04a3.586,3.586,0,0,1,.94-.23l-.04-.08a9.6,9.6,0,0,1,1.44-.18l-.01.02c.7-.33,1.15.02,1.9-.22-.1.03.04.04.04.06.34-.04.7-.07.7-.25.25-.01.2.04.24.1,0-.08.22-.1.42-.1l-.1.03.57-.01-.1-.14c.3.05.07.17.36.15V98.4a4.892,4.892,0,0,1,1.05.32c1.64.2,3.5.14,4.94.77l.04.1c0,.13.46-.08.5.05l.2-.01c.04.03.14.1.04.1a.556.556,0,0,0,.3.04l.15.13c.6.27,1.2.27,1.83.57a31.768,31.768,0,0,0,3.05,1.3c1.24.4,2.22,1.64,3.4,2.2a.2.2,0,0,0,.14.06l.94.73,1.83,1.45c.37.27.63.42.7.27s-.1-.64-.8-1.6h.04a3.5,3.5,0,0,0-1.24-.96c.05-.18-.42-.36-.52-.5h.02c-.4-.13-.62-.6-1.02-.72a.119.119,0,0,1,.13.01c-.25-.14-.6-.33-.57-.43a6.852,6.852,0,0,0-1.87-.97l.04-.01c-.28-.02-.3-.14-.57-.22-.01-.02-.02-.03-.02-.04-.3-.03-.7-.37-.94-.42l.02-.07-.5-.22.18.1c-.14.14-.33-.28-.74-.34-.33-.2-.84.06-1.16-.16-.2.01.2-.07-.08-.1.03-.1.14-.01.1-.1-.27-.06-.38-.25-.7-.32l.01-.08c-.45-.02-.75-.35-1.06-.32-.44-.08-.22-.3-.7-.3l-.15-.15c-.2-.07-.17.08-.37-.02.03-.06-.26-.12-.12-.14-.47-.2-1.02-.13-1.64-.42-.17.1-.48-.04-.6.04-.01-.06-.66-.13-.27-.18.03,0,.1.01.08.03l.06-.06c-.35-.2-.7-.05-1.06-.13.1.03.25.06.15.1-.1-.03-.23-.03-.34-.05l.08-.05-.5-.1.06.08c-.25-.07-.32-.2-.62-.13-.13.05.23.13-.04.12a7.02,7.02,0,0,0-1.26-.25c.04.1-.08.08-.2.1l-.01-.08c-.46.1-.16-.17-.62-.1l.04-.05-.12.15c-.4.14-.22-.16-.68.03.18-.01.1.17-.14.13l.06-.07c-.12.01-.16.05-.24.03.07-.04.04-.1-.14-.1l.12-.1-.34.15c-.27-.06-.68.05-.8-.04,0,0-.57-.02-.7.1.1-.08-.2-.08-.13-.17a1.288,1.288,0,0,1-.75.15l.03-.01c-.65.01-1.08.23-1.67.26.04.08-.27.1-.17.2-.56.23-1.12-.01-1.25.38-.26.1-.33.01-.47.03l.06-.03-1,.3c-.17.08-.15.25-.48.32.08-.1-.04-.04-.16,0,.07-.04.1-.07-.08-.05a.462.462,0,0,1-.07.07h-.01c-.2.1-.15.1-.06.07,0,.01.01.02.04.03-.23,0-.57.2-.63.1-.58.25-.95.55-1.42.8-.08-.03.01-.12.15-.2l-.33.17c-.03-.08.18-.13.28-.2-.47.05-.77.52-1.3.64l-.07.1h-.03c.02.03-.07.12-.13.17-.1-.02-.07-.14-.3-.01a2.436,2.436,0,0,0-.7.48c.13-.06.1-.01.07.05-.1.07-.2.05-.28.13l-.06-.07c.1.05-.23.26-.25.32-.1-.02.14-.16.13-.22l-.65.43c-.18.22.1.04.03.2a2.514,2.514,0,0,1-.6.46l.12.02a2.256,2.256,0,0,1-.83.6c-1.07,1.36-.92,1.67-.67,1.6a3.16,3.16,0,0,0,.75-.43,33.733,33.733,0,0,0,2.7-2.08Z" fill="#fff"/>
    </g>
  </g>
</svg>
