<svg xmlns="http://www.w3.org/2000/svg" xmlns:xlink="http://www.w3.org/1999/xlink" width="215.462" height="156.059" viewBox="0 0 215.462 156.059">
  <defs>
    <linearGradient id="linear-gradient" x1="0.666" y1="0.496" x2="0.039" y2="0.388" gradientUnits="objectBoundingBox">
      <stop offset="0" stop-color="#cc7a5e" stop-opacity="0"/>
      <stop offset="0.924" stop-color="#aa5f4b"/>
    </linearGradient>
    <linearGradient id="linear-gradient-2" x1="0.47" y1="0.64" x2="0.423" y2="0.856" xlink:href="#linear-gradient"/>
    <linearGradient id="linear-gradient-3" y1="0.5" x2="1" y2="0.5" gradientUnits="objectBoundingBox">
      <stop offset="0.394" stop-color="#331012"/>
      <stop offset="0.71" stop-color="#441b18"/>
    </linearGradient>
    <linearGradient id="linear-gradient-4" x1="0.808" y1="0.454" x2="0.09" y2="0.706" gradientUnits="objectBoundingBox">
      <stop offset="0" stop-color="#331012"/>
      <stop offset="1" stop-color="#441b18"/>
    </linearGradient>
    <linearGradient id="linear-gradient-5" x1="0.482" y1="1.017" x2="0.516" y2="0.156" gradientUnits="objectBoundingBox">
      <stop offset="0" stop-color="#441b18"/>
      <stop offset="1" stop-color="#59221f"/>
    </linearGradient>
    <linearGradient id="linear-gradient-6" x1="0.492" y1="0.427" x2="0.562" y2="0.695" gradientUnits="objectBoundingBox">
      <stop offset="0.005" stop-color="#cc7a5e" stop-opacity="0"/>
      <stop offset="0.924" stop-color="#aa5f4b"/>
    </linearGradient>
    <linearGradient id="linear-gradient-7" x1="0.581" y1="0.387" x2="0.227" y2="0.591" xlink:href="#linear-gradient"/>
    <linearGradient id="linear-gradient-8" x1="0.541" y1="1.033" x2="0.464" y2="0.279" xlink:href="#linear-gradient-5"/>
  </defs>
  <g id="_5" data-name="5" transform="translate(-148.555 -96.17)">
    <path id="Path_14379" data-name="Path 14379" d="M361.35,208.05c-1.9-1.1-4.07-4-7.42-4.3-9.2-.88-16.5-1.65-21.8-4.15-3-1.5-46.97-24.56-51.27-28.3-5.6-4.1-25.07-36.33-25.07-36.33l-26.4,12.72s25.5,37.47,34.5,42.7c7.45,4.85,17.2,8.2,31.4,12.3s26.5,6.7,37.5,9.5a47.1,47.1,0,0,0,5.56,1.56,11.594,11.594,0,0,1,21.94,5.24c0,.08-.01.17-.01.25s.01.17.01.25a12.574,12.574,0,0,1-.5,3.3,1,1,0,0,0,.4.5c1.8.85,2.5-2.54,2.97-6.13s.7-7.35-1.8-9.1Z" fill="#ea9d7d"/>
    <path id="Path_14380" data-name="Path 14380" d="M323.5,195.44l1.58,15-33.9-8.85c.94-2.35,9.75-18.98,9.75-18.98-.42.05,17.5,9.5,22.57,12.82Z" fill="url(#linear-gradient)"/>
    <path id="Path_14381" data-name="Path 14381" d="M360.3,223.74a2.525,2.525,0,0,1-.78-.14l.34-.94a1.076,1.076,0,0,0,.9-.04c.46-.24,1.1-.98,1.65-3.14a34.635,34.635,0,0,0,.58-7.67c-.03-1.66-.65-2.16-1.88-3.17l-1.1-.92c-2.66-2.14-4.3-3.37-7.22-3.58a139.678,139.678,0,0,1-17.9-2.67l-.1-.03c-.14-.07-14.45-6.58-20.6-10.12l-11.2-6.33-17.8-10.2a41.2,41.2,0,0,1-9.47-8.36c-3.58-4.08-11.63-17.3-11.97-17.87l.85-.52c.08.14,8.35,13.7,11.88,17.73a39.747,39.747,0,0,0,9.27,8.18c2,1.32,10.37,6,17.75,10.16l11.22,6.34c5.93,3.42,19.56,9.64,20.47,10.05a143.052,143.052,0,0,0,17.7,2.64c3.36.25,5.32,1.82,7.8,3.82.4.36.75.64,1.07.9,1.3,1.05,2.22,1.8,2.25,3.93a33.768,33.768,0,0,1-.62,7.94c-.5,2.04-1.2,3.27-2.15,3.77a1.96,1.96,0,0,1-.92.23Z" fill="#cc7a5e"/>
    <g id="Group_969" data-name="Group 969">
      <path id="Path_14382" data-name="Path 14382" d="M313.63,204.42l1.3-.13-.72-1.27Zm-14.2-.8,1.38.37-.34-1.78Zm-2.75-1.52,1.46.36-.33-1.77Zm11.62,3,1.47-.34-.94-1.52Zm-5.04-6.86,1.47-.35-1.03-1.5Zm6.44,2.86.6-1.4h-1.64Zm3.6,5.7.6-1.5h-1.72Zm2.6-.5.7-1.5-1.73-.1Z" fill="#da7f57"/>
      <path id="Path_14383" data-name="Path 14383" d="M318.35,207.45l.7-1.5-1.64-.1Zm-15.25-9.2v-1.06l-1.12.43Zm9.2,4.84.1-1.15-1.13.52Zm-11.63-4.23.1-1.16-1.12.53Zm-4.72,3.6.86-.17-.5-.8Zm2.15-4.82.34.9.6-.8Zm3.16,2.26.34.8.6-.7Zm4.9,1.55-.94-.45-.01,1.33Z" fill="#da7f57"/>
      <path id="Path_14384" data-name="Path 14384" d="M308.15,202.7l-.95-.54v1.33Zm-2.95,2.64-.25-1.77-1.47,1.14Zm2.93.73-.42-1.7-1.4,1.32Zm-5.67-4.57,1.22-1.23-1.8-.45Zm4.48.84,1.22-1.15-1.72-.63Zm3.96,1.08-.6.7.94.27Zm-3.4-7.1-.96.52.95.8Zm4.45,5.52-.6-.72-.35.98Zm-8.55,1.26.52-.7-.94-.18Zm2.36-4.67-1.4.6,1.2,1.16Zm-6.23,2.7.53-2.2-2.6.52Z" fill="#da7f57"/>
      <path id="Path_14385" data-name="Path 14385" d="M298.66,202.9l1.4-1.94-2.67-.55Zm7.14,2.53,1.3-1.94-2.6-.46Zm3.88.82,1.4-1.94-2.58-.46Zm-6.2-1.45-.6-2.3-2.08,1.67Zm22.7,2.48,1.46-.22-.9-1.57Zm-2.1.25,1.06,1.04.74-1.6Zm-1.78,1.1.65-1.43-1.72-.05Z" fill="#da7f57"/>
      <path id="Path_14386" data-name="Path 14386" d="M320.5,208.12l1.3-.16-.76-1.34Zm2-2.37-.7-.9-.53,1.14Zm-2.94.95.6-.8-1.03-.2Zm6.7,2.3.86-.2-.54-.8Z" fill="#da7f57"/>
      <path id="Path_14387" data-name="Path 14387" d="M321.05,209.12l-.5-2.22-2.08,1.66Zm3.18.88-.66-2.3-2.03,1.65Zm2.24.48-.2-2.1-1.94,1.73Zm-9.35-5.08.98-.2-.7-.8Zm-2.68-5.56.34.73.52-.7Zm5.1,1.63-.6.48.72.34Zm4.77,2.68-.73-.24.12.78Zm-25.55-2.2-1.04,1.4,1.8.45Zm2.6-.6-1.13,1.32,1.8.54Zm10.5,4.85,1.46.36-.33-1.77Zm-3.2-.73,1.46.45-.24-1.86Zm2.33.37,1.3-1.86-2.58-.54Z" fill="#da7f57"/>
      <path id="Path_14388" data-name="Path 14388" d="M314.93,207.8l-.42-1.86-1.82,1.3Zm2.93.75-.42-1.86-1.82,1.3Zm-6.7-3.35-1.3,1.23,2.15.54Zm-11.43-7.7,1.04-.35-.86-.9Zm4.68,2.83-.6.7.95.36Z" fill="#da7f57"/>
    </g>
    <path id="Path_14389" data-name="Path 14389" d="M280.16,173.24c-4.7-4.5-24.2-18.7-24.2-18.7l-16.1,8.7,18.7,22.6c6.6,8.1,21.55,12.08,25.75,13.28,5.7,2,21.1,6.54,34.6,9.74,6.14,1.27,13.8,3.38,19.6,4.98a11.282,11.282,0,0,1,5.43-5.33c3.1-1.3,3.8-5.07,1-5.47-22.3-3.3-45.5-15.8-45.5-15.8-6.7-2.7-16.9-11.7-19.3-14Z" fill="url(#linear-gradient-2)"/>
    <g id="Group_970" data-name="Group 970">
      <path id="Path_14390" data-name="Path 14390" d="M308.05,190.43l1.37-.36-.7-.92Zm-2,1.75,1,.9.37-1.15Zm5.26-1.42,1,.78.37-1.15Zm.4,4.28,1,.9.36-1.25Zm2.42-2.7,1,.9.35-1.25Zm6.34,3.5.9.7.3-.94Zm-1.36-2.16.23,1.18.74-.6Zm-2.83,4.16.9.7.3-.94Z" fill="#ffbca4"/>
      <path id="Path_14391" data-name="Path 14391" d="M319.15,194.87l.88.7.3-.95Zm-9.93-3.07.4.76.53-.67Zm-6.44-2.55.1-.82-.67.28Zm2.12.05-.6.78.83.2Zm2.34.22-.6.78.72.1Zm10.6,3.58-1.07.33.83.2Zm-12.63-6.36.26,1.38,1.02-.73Zm2.14,1.06.17,1.4,1.12-.74Zm-2.44,3.1,1.27.56-.16-1.4Zm13.87,7.64-.63-.23-.02.7Zm-7.6-5.44-.52.66.62.13Zm5.16-.72-.74-.3.08.7Zm-6.14-1.7-.74-.3-.02.7Zm7.73,2.42.1.9.64-.48Zm-13.35-.55-1,.02.3.77Zm4.22-.9-.22.73.7-.08Z" fill="#ffbca4"/>
      <path id="Path_14392" data-name="Path 14392" d="M304.1,187.67l.65.43.12-.72Zm16.45,11.47-.65-.43-.12.72Zm1.75-1.5-.66-.43-.02.7Zm1.97-.23-.55.46.53.24Zm-5.77-3.86.26.57.36-.44Zm-3.56,1.52.54.34.03-.6Zm-5.1,1.2-.7.08.27.58Zm-5.67-5.46-1.3.05.5.94Z" fill="#ffbca4"/>
      <path id="Path_14393" data-name="Path 14393" d="M311.32,197.7l-.7-.02.17.6Zm-1.1-1.58-.8.1.27.57Zm8.17,2.68-.35,1.25,1.2-.14Zm7.9-1.34.16,1.3,1.02-.72Zm-1.18-.56.15,1.3,1.02-.72Zm-2.92,1.64-.34,1.35,1.18-.23Zm1.3-.94-.46,1.26,1.2-.14Zm-4.82-2.37-.35,1.25,1.2-.14Zm10.82,3.87-.63-.23.07.6Zm-24.37-10.44,1.73,1,.2-1.74Zm2.97,1.26,1.82,1,.1-1.73Zm-4.7-4.08.43,1.97,1.4-1.07Zm14.16,7.5-.9,1.8,1.8-.01Zm-6.4-1.37,1.3,1.56.8-1.6Zm15.38,6.76,1.3,1.56.82-1.6Zm3.28,1.33.75,1.22.76-1.2Z" fill="#ffbca4"/>
      <path id="Path_14394" data-name="Path 14394" d="M328.23,200.25l.95,1.2.65-1.28Zm-16.75-8.9,1.13-.74-1.08-.57Zm-2.4-.84,1-.92-.96-.5Zm5.2,3.03-.63.68.83.2Zm1.78.6-.62.78.83.2Zm-1.84-2.8.26,1.38,1.12-.73Zm2.13.96.16,1.4,1.02-.72Zm-2.27,3,1.37.54-.15-1.3Z" fill="#ffbca4"/>
      <path id="Path_14395" data-name="Path 14395" d="M313.5,197.45h-.9l.3.77Zm4.23-.9-.2.83.68-.18Zm-4.8-3.97.64.33.03-.6Zm-4.24-1.92,1.8.9.1-1.73Zm5.77,2.14,1.83,1,.12-1.53Zm-1.97-2.28.44,1.96,1.48-1.08Zm9.3,4.65.44,2.06,1.48-1.08Z" fill="#ffbca4"/>
      <path id="Path_14396" data-name="Path 14396" d="M320.4,194.42l.4,1.67,1.1-.83Zm3.34,1.83.38,1.57,1.1-.84Zm-12-6.15-1.5-.83.17,1.4Zm1.26,1.26-1.38-.54.06,1.3Zm-9.3,2.4-.12.72.7-.18Zm19.7,9.88-.7.08.35.46Zm2.8-.94-.04.5.5-.16Zm-3.8-2.27.53.24-.05-.5Zm9.2,1.04.97.6.08-1Zm2.53.1-.75-.32.1.7Zm-19.43-.04-.7.08.35.36Zm2.9-.94-.14.52.5-.06Zm-3.8-2.38.53.24-.06-.5Z" fill="#ffbca4"/>
    </g>
    <path id="Path_14397" data-name="Path 14397" d="M265.8,146.86c-5.45-9.35-10.6-20.56-16-29.26-7.78-12.5-20.4-24.23-36.6-14.28s-8.8,34-3.8,46.06c5.18,12.54,13.98,29.08,33.24,39.28A239.872,239.872,0,0,0,293,208.8l11.8-27.82c-13.8-9.96-34.13-25.8-39-34.12Z" fill="url(#linear-gradient-3)"/>
    <g id="Group_971" data-name="Group 971">
      <path id="Path_14398" data-name="Path 14398" d="M255.36,130.2l.48.88.6-.83Zm5.18,17.14-1.46.55,1.3,1.25Zm1.93-2.1-1.4.46,1.17,1.3Zm2.63,3.25-1.38.7,1.34,1.06Zm-1.97-1.3-1.5.64,1.34,1.15Zm-2.88-5.86-.15,1.8,2.08-.7Zm-1-3.64-.15,1.8,1.94-.66Zm7,10.36-1.25-2.1-1.7,2.3Zm-3.85,2,.13,1.92,1.88-.97Zm-2.36-6.24-.02,1.74,1.9-.56Zm4.58,8.5.47,1.83,1.63-1.17Zm-10.78-23.17,1.77-.52-1.46-1.64Z" fill="#753837"/>
      <path id="Path_14399" data-name="Path 14399" d="M259.38,141.1l-1.58.6,1.52,1.24Zm3.34,10.63-1.45.78,1.43.97Zm3.68-1.35-1.4.82,1.47,1Zm-10-8.63-.5-.87-.68.78Zm3.57-3.18-1.5.64,1.26,1.34Zm-1.37-1.23-.85,1.07,1.42.34Zm-.5-3.48-1.55.5,1.3,1.25Zm.32,18.9,1.02-.08-.78-.7Z" fill="#753837"/>
      <path id="Path_14400" data-name="Path 14400" d="M256.03,133.8l.5.88.68-.8Zm1.97,10-.52.64.96.32Zm2.4-6.48-1.06-2.14-1.74,2Zm2.37,3.98-1.14-1.86-1.57,1.9Zm2.1,4.7-1.88-3.6-2.07,3.12Zm3.75,4.98-2.13-2.56-1.8,3.4Zm-10.25-4.78,1,.45-.04-1.12Zm13.88,9.63-.13,1.43,1.67-.64Zm-4.72,2.1,1.48-.83-1.5-1.2Zm2.9,2.06,1.5-.8-1.4-1.27Zm-4.84-3.65,1.4-.95-1.54-1Zm-6.03-.3,1,.23-.27-1.1Zm-.3-6.4.13.93.7-.56Zm8.18,4.34-.72.3.67.53Zm-9.72-3.6-.05.85.88-.26Zm7.94,6.6-.88.34.7.64Zm7.02.1-.93.65,1.24.7Zm-2.25-1.64-.85,1.78h2.14Zm-1.12-.52-1.04.6,1.27.85Zm.87-1.36-.9.95,1.42.58Zm-2.45.84.5.47.36-.83Z" fill="#753837"/>
      <path id="Path_14401" data-name="Path 14401" d="M271.28,153.63l-2.23-2.3-1.77,3.07Zm2.22,2.6-1.87-2.05-1.3,2.84Zm3.2,2.68-2.1-1.82-1.08,2.82Zm5.86,11.73-1.25.97,1.75.76Zm1.2-3.13-1.14.98,1.6.66Zm2.88,1.83-1.23,1.05,1.67.7Z" fill="#753837"/>
      <path id="Path_14402" data-name="Path 14402" d="M285.05,169.03l-1.1,1.2,1.72.6Zm-15.1-7.83.5,1.73,1.48-1.42Zm10.57,3.87.5,1.73,1.65-1.26Zm-2.63-3.57.56,1.75,1.5-1.43Zm10.43,7.24-1.8-1.5-.75,2.7Zm-3.86,2.8.66,1.72,1.5-1.5Zm-3.43-4.1.48,1.83,1.6-1.4Zm8.16,4.32.9,1.7,1.13-1.4Z" fill="#753837"/>
      <path id="Path_14403" data-name="Path 14403" d="M274.84,161.78l-1.07,1.14,1.75.42Zm11.3,11.62-.98,1.25,1.64.47Zm2.2-2.6-1.16,1.18,1.7.6Zm-9.45-8.7-1.16,1.2,1.63.53Z" fill="#753837"/>
      <path id="Path_14404" data-name="Path 14404" d="M276.64,162.15l-.47,2.36,2.65-.5Zm-2.44-1.7.46.95.87-.9Zm8.73,15.68.74-.55-.8-.5Zm-3.6-8.3-.3.95,1.1-.18Z" fill="#753837"/>
      <path id="Path_14405" data-name="Path 14405" d="M279.43,161.3l-2.7-2.28-1.04,3.67Zm3.5,3.16-2.64-2.3-1.13,3.62Zm3.28,2.67-3.03-2.52-.76,3.82Zm4.66,3.47-2.18-1.6-.7,2.7Zm-2.46,5.62,1-.9-1.36-.65Zm-11.3-7.65.37.7.53-.6Zm13.28,5.48-.74.6.86.3Zm-17.64-8.4-.75.4.9.5Zm5.76,5.9.3.72.75-.4Zm13.8,2.94-.27,1.2,1.44-.2Zm-.76.8-.94.84,1.26.65Zm1.26-2.4-.8,1.1,1.5.3Zm-2.1,1.48.62.32.18-.78Zm2.86-1.8-1.82-1.22-.64,2.23Z" fill="#753837"/>
    </g>
    <path id="Path_14406" data-name="Path 14406" d="M361.4,203.82c.37,1.05-1.1,2.97-5.43,3.36-4.33.3-6.44-.3-9.57.48a24.719,24.719,0,0,0-6.35,2.88s-1.1,1.25-3.6-.38c-2.48-1.63-.9-6.66,1.76-7.14,5.76-.46,8.4-1.5,11.06-.92,5.62.95,11.3-.48,12.12,1.72Z" fill="#ea9d7d"/>
    <path id="Path_14407" data-name="Path 14407" d="M340.34,210.75a.52.52,0,0,1-.42-.22.5.5,0,0,1,.14-.69c.01-.01,1-.67,2.17-1.6a12.31,12.31,0,0,1,7.7-2.03,43.269,43.269,0,0,0,7.82,0,3.669,3.669,0,0,0,2.56-1.47,1.14,1.14,0,0,0,.25-.87c-.01,0-.44-.8-2.85-.88l-4-.22-5.64-.23-.75.05a34.865,34.865,0,0,1-6.97-.16.5.5,0,0,1-.44-.55.5.5,0,0,1,.55-.44,32.453,32.453,0,0,0,6.8.16l.77-.05c1.32-.06,3.58.1,5.76.23l3.97.22c3.2.1,3.72,1.44,3.77,1.6a2.046,2.046,0,0,1-.37,1.7,4.585,4.585,0,0,1-3.26,1.9,44.365,44.365,0,0,1-8,0,11.356,11.356,0,0,0-7.02,1.8l-2.25,1.66a.637.637,0,0,1-.27.07Z" fill="#cc7a5e"/>
    <g id="Group_972" data-name="Group 972">
      <path id="Path_14408" data-name="Path 14408" d="M253.14,178.72l-.24,1.18,1.06-.48Zm-4.04.94.46-.45-.67-.28-.05.4-.55-.47-.08.7.63-.23.04.5.24-.28-.07.6.73-.22Zm-3.23,4.08-.7.37.6.42Zm4.93,3.06.44.56.37-.57Zm3.9-13.64.46.35.18-.68Zm-2.75,11.46-.1-.1-.01.1-.4-.05.6,1.68.98-1.5Zm-5.83-2.7h0l-.1-.01-.4-.05.6,1.8,1-1.6Zm.3-1.68-.1.1.1.01-.25.38,1.92-.08-1.25-1.35Zm3.68.43h0v.1l-.13.3,1.6-.02-1.07-1.23Zm-1.9,4.96-.7.15.4.5Zm8.23-6.64.25-.48-.7-.08Zm-.63,1.84.36-.46-.5-.16Zm-7.2,1.86.44.05-.07-.2.26.12-.03-.63-.7.37.26.12Zm4.4.7-.5-.46.12-.26-.5.1.2.24-.23.52Zm5.5,10.22-1.12.6.92.66Zm2.17.96-.85.95,1.06.34Zm-12.74-11.62.27-1.28-1.05.6Zm5.07,8.74,1.2-.2-.94-.76Zm-9.6-4.04.27,1.3.78-1.05Zm4.44-11.86h-.1l.13.62.57-.54-.3-.04.4-.86-.5-.05-.02-.7-1.17.57.93.7Z" fill="#260807"/>
      <path id="Path_14409" data-name="Path 14409" d="M251.94,191.44l-1.32.87.1-1.16.9-.46-1.32-.68.02.83-.96.67-.3-1.47,1.6-1.37-2.26-.32.3,1.06-1.82,1.32-.22-1.6-1.13.82.16-2.12-2.53,1,1.84,1.05.46.2,1.32.68-.1.02,2.1.9.68.23.54.53.9.22,1,.68Zm1.66,2.58,1.8.92-.57-2.13Zm8.03-14.72-.7-.18.33.64Zm-1.93-1.74-.68-.17.23.63Zm-5.97,8.88.3,1.06.64-.56Zm1.47-2.37.42-.58-.7.15Zm-.7,7.37.73.2-.14-.9Zm-12.4-4.36-.55-.33-.3-1.06.3-.33-.32.01-.2-.78-.67.47-1.28-.47-.38,1,1.35-.2-1.54.96,3.1,1.8.04-.78Zm5-3.48.46.37.2-.6Zm11.36-3.87.68.18-.33-.64Zm-10.63,5.72-.88-.2.3.74Zm1.07-1.4-.8-.2.32.74Z" fill="#260807"/>
      <path id="Path_14410" data-name="Path 14410" d="M247.75,184.43l.03-.3-.1-.01-.12-.72-1.1.78.38.14.82.8.06-.6ZM250.4,178l-.03-.6-.64.33Zm-2.2,1.75-.44-.55-.18.68Zm9.57-1.9-.26-.33-.05.4Zm-3.07,9-.4-.04.25.43Zm.97,8.2,1.2.62-.02-2.17Zm-7.6-6.08-1.2-.2.28,1.06Zm2.3.84,1.2.3.45.5.4-1.25-.84.33-.2-1.08Zm.04-15.13.15-.48-.5.04Zm-1.78,12.1.37.72.48-.72Zm4.7-1.13-.26.74.7-.15Zm-2.27-2.35-.6-.42-.13.8Zm-3.93,2.34-.5.4.73.25Zm5.43,2.22.5-.62-.72.06Zm-2.28-.9-.67-.28v.8Zm-.8-2.74-.46.5.6.2Zm5.66-9.68-.36.56.8-.01Zm6.5-1.26-.27-.24-.16.5Zm-8.6,2.12.46-.45-.68-.28Zm.85,2.22.8-.7-1.16-.44Zm-1.84-3.24-.67-.28.22.73Zm-1.65,1.22-.3-.04.33,1.55,1.03-1.1-.5-.15.02-.1-.7-.18Zm7.1,10.3-.57-.64-.25.74Zm2.22-5.6-.75.42.84.6Z" fill="#260807"/>
      <path id="Path_14411" data-name="Path 14411" d="M256.97,185.6l-.85.4.94.6Zm-1.85-2.57.73-.6-.83-.22Zm-7.36,2.03,1.12-.43-1.1-.65Zm8.3,1.34-.5.62.7.16Zm-3.62,5.58.26-.85-1.17.3.63.7.2,1.28,1.45-1.05Zm2.65-1.9.73.01-.4-.72Zm.07,3.08,1.1.53-.13-1.4Zm.47-7.32-.72.37.65.3Z" fill="#260807"/>
      <path id="Path_14412" data-name="Path 14412" d="M257.17,187.06l.07-.66-.65.24Zm1.83-.8-.76-.04.53.55Zm.8,6.13-.63-.1.3.56Zm-17.02-5.92,1.78-.6-1.5-.98Z" fill="#260807"/>
      <path id="Path_14413" data-name="Path 14413" d="M246.7,185.35l.3-1.18-.53.3-.08-.5-.27.42.26.12-.28.1Zm-2.94-.37.38-.66-.72.12-.1-.1-.17-2.03.63-.23-.64-.58,1.17-.57-.03,1.1,1.3-.76-1.16-.44.2-.08-.18-.22.48-.65-1.08-.23.14.52-.64-.58.75-.42-1.2-.84,1.54-1.13,1.02-.08-.5.95.6-.03-.7.73,1.26.45-.37-1.15.5.06.1.1.28-.67-.73.22-.34-.54.82-.1-1.35-1.36-.56,1.34-1.95-.53,2.15-1.16-1.3-.96.7.08.15.42,1.03-1.1-1-.1.84-.3-1.32-.76-.14,1.2-.37.56-.84-.6.57.27.1.1v-.1l.3.13-.05-.4.3-.97-1.23.16.25.43-.33.26-.34.53-.66,2.75.95-.27.2,1.64-1.4-.83-1.02,3.17-.42,1.43.32,1.38.32-.16-1.12.88,2.64.8-.35-.44h.8l-.32-.74.94.6-.6.74-.08-.2-.4.76-.58.64,3.03.75-.96-2.12.43-.05Zm-.5-5.2-.35,1.27-.63-.68.98-.6Zm-1.5,4.35-.9-1,1.68-.6-1.07.58.66.38-.38.66Z" fill="#260807"/>
      <path id="Path_14414" data-name="Path 14414" d="M246.1,176.9l.62-1.04-1.22.16Zm.2,10.2-.18-.47.52-.62-.87-.32-.1.04-.1.03.04.1-.66,1.1-.6-2.13-.64.56-.15-.7-.8.73-.43-1.44-1.04.93,1.5.6-.04-.1.65.3-.25.2-.5-.46-.1.9.34-.23-.55.53,1.64.66-.12.26.47-.18.64.3.02.32.62-.34-.6-.42-.1-.28Zm-4.52.53,1.1.65.12-1.1Zm3.5-7.9.72-1.02-1.32.14Z" fill="#260807"/>
      <path id="Path_14415" data-name="Path 14415" d="M241.13,185.08l.6.97.63-1.13Zm4.54,1.62-.1-.82-.46.55Zm-1.94-3.23,1.46,1.27.12-1.9Zm4.8-6.7-1.6-1-.2,1.7Zm-.63,5.37-.08.7.63-.22.8.9.14-1.2-.83.2Zm2.1,1.16-.46.55.68.18Zm0,2.6v-.2l1.07-.48-.83-.7-.18.7-.53.24Zm.96-8.34-.42.15.35.44Z" fill="#260807"/>
      <path id="Path_14416" data-name="Path 14416" d="M253.6,178.27l.4.14-.14-.52ZM248.05,187l-.1.1,1.45.56-.44-1.45-.55.43-.4-.14Zm1.6-1.64-1.32-.76-.05.4-.47-.26-.08.7.64-.33-.1.8Zm1.9,1.26-1.52-.07.46,1.22Zm-4.2-.35-.94.9,1.38.55Zm-.82-1.87-1.87.48.28.24-.47-.26-.17.6.73-.22,1.25,1.35Zm10.62-25.13,1.07-.58-.82-.7Zm-1.78,4.93.57.27-.01-.8Zm.22-2,.67.28-.12-.72Zm4.87-11.32-.6.3.5.4Zm-4.33,8.47-.96.5-.1-.01-.33.26,1.5.98Zm2.26,6.6.2-.8-.64.33Zm2.02-6.2-.38-.15.04.5Zm-1.75,2.1-.25.38.5.05Zm3.75-.26-.42.15.37.35Zm-12.3,3.7-.23,1.08,1.14-.27Zm3.05.56,1.28.25-.58-1.08Zm-2.1,4.66,1.28.25-.58-1.07Zm2.7-9.72.33.64-.27.58.6-.04-.1-.1.5-.94Zm2.72,6.04.62-1.03-1.1-.13Zm-1.78,2.3.54-1.14h-1Zm-2.43-13.77.64-1.13-1.1-.03Zm5.1,15.37.38-.66-.72.12Zm-12.68,1.75,1.45,1.37.03-.3.73.7.05-1.3-.74.32.08-1.6-1.68.62-.08-.2-1.16,1.37,1.7.1Zm8.36-6.56v.9l.44-.35.05.4.34-.27-.4-.14.22-.18Zm-.96,2.2.67-.53-.66-.38Zm-1.65,1.6-.35.46.7.08Zm.33-1.45.68.18-.33-.64Zm1.8-6.04-.63.23.35.45Zm-.9,4.34.28-.67-.73.2Zm.72-3.65-.84.3.75.5Zm-.74-1.4.76.4.1-.8Z" fill="#260807"/>
      <path id="Path_14417" data-name="Path 14417" d="M254.73,156.77l-.74.32.67.28Zm-2.9,2.5.63-.23-.45-.46Zm10.32-2.13-.28-.23-.14.38Zm-3.34,2.83-.33.27.38.14Zm-13.87,12.27-.36-.34,1.5.07-.43.25.3.13-.3.87,2.92-.87-.16.5.72-.12-.55-.47-.01.1-1.52-1.7.62-.13-.35-.44-.27.57-.18-.22-.01.1-.7-.8-.3.87-.4-.95.74-.32-.03.3,1.47-.53-1.22-.75,1.57-.52.16.32.48-.65-.3-.03-1.8-1.92-.27.57-.08-.2-.62,1.04.3.03-.01.1-.3-.03.15.42-.28.67-.3.06.08.2-.9-.8.3.03-.47-1.16-.13,1.1-.7,2.64-.1-.1-.25,1.28-.12.2-.23,1.08,2.36-.42Zm1.7-1.62-.44,1.16-.3-.94.73-.22Zm-.83-2.4.32-.16-.1,1-.45-.45.24-.38Zm-2.46,2.13,1.06-.48-.8.8-.26-.33Zm10.2-6.76-.32.17.27.23-.02.2,1.46-.44-1.2-.84Zm.76-10.08.34.55.17-.6Zm-2.27,18.24-.33-.64-.27.67Zm-.75,1.33-.9-.1.42.75Zm-5.08,2.13.65.47-.02-.7Zm5.26-7.63-.14-.52.2.02-.54-.56-.08.7-.32.17Zm7.94-13.67-.26.48.7-.02Zm-1.67.4-.67-.28.23.64Zm.04,1.42.27,1.14.87-.6Zm-1.47-2-.68-.28.23.64Zm-.98,1.4-.67-.28-.01.1-.2-.12.22,1.54,1.04-1.1-.5-.16Z" fill="#260807"/>
      <path id="Path_14418" data-name="Path 14418" d="M250.02,164.38l-.72.12.34.55Zm-.56,3.97-.67.62,1.08.23Zm-1.26-2.97.48-.65-.8.01Zm2.16-9.1.62-1.04-1.22.06Zm-.83,2.83.72-1.02-1.22.06Zm-3.08,6.58-2.06.42.72,1Z" fill="#260807"/>
      <path id="Path_14419" data-name="Path 14419" d="M250.9,164.7l-.08.7.62-.13Zm-5,.42-.35-.44.8.1-.32-.74,1.02.72-.06-2.12.63-.23-.63-.68,1.26-.46-.03,1.1,1.4-.74-1.15-.54.2-.08-.18-.22.58-.64-1.07-.33.14.52-.64-.58.75-.42-1.1-.83,1.63-1.02,1.12-.07-.5.85.6.07-.78.6,1.16.44-.27-1.14.5.06.1.1.38-.66-.72.12-.34-.54.8-.01-1.25-1.35-.56,1.34-1.94-.63,1.9-.9-2.3-1.88.64-.33-.23.28,1.16.44-.28-1.04,1.6-.82L247.72,151l.5.16.1.1v-.1l.3.03-.25-.43.2-.98-1.25.36.36.34-.23.28-.36-.34-.62,3.65-.01-.1-.68,3.24,1.4-.56.2,1.64-1.62-1.12-.62,3.65-.18.24-.5,1.75.06.56-.6,2.45,1.98-.74Zm-.7-1.7.56.37-.38.66-.78-1.1,1.67-.5-1.07.58Zm1.9-3.3-.35,1.27-.63-.68.98-.6Zm.77,3.7,2,.13-1.12-1.64Zm4.93-7.68-1.6-1-.2,1.7Zm-1.97,4.7.37-.56,1.18.24-.58-1.07-.6.73-.72.12Zm1.2,1.95-.24-.53.1.01-.2-.12-.18-.22-.55-.47-.35,1.27.42-.15-.1.1Zm.54-3.86.53-.24.06.4.22-.18-.07.6.73-.22-.66-.38.44-.35-.66-.38-.06.5-.53-.57Zm.3.94-.1.8.63-.23Zm2.4-2.44-.04-.5-.42.15Zm3,.26-.16-.42-.24.37Zm-1.72,6.13-.26.47.4.05Zm-7.45,9.07-1.17.57,1.08,1.03Zm1.72-43.23-.94-.54.1,1.3Zm-1.98-3.9-1.13,1.08,1.74.58Zm6.15,16-1.1-.6-.1,1.1Zm-3.8,9.7-.6-.6.9-.6-1.4-.5.1,1.2-.2.6Z" fill="#260807"/>
      <path id="Path_14420" data-name="Path 14420" d="M248.97,149.78l-.7-1.1,1.5-.5-.4-.3h1.5l-.4.2.3.1-.3.8h.1l-.4.2-.1-1.1-1.7.8,1.8,1.4v-.6l.7.4-.2-1.2,2.6-1.1-.1.5.7-.2-.5-.4v.1l-1.7-1.6.6-.2-.4-.4-.2.6-.2-.2v.1l-.8-.7-.3.9-.5-.9.7-.4v.3l1.4-.7-1.3-.6,1.5-.6.2.3.4-.7-.3.1-1.8-1.7-.2.6-.1-.1-.5,1.1h.3v.1h-.3l.2.4-.2.7-.3.1.1.2-.9-.7h.3l-.6-1.1-.5,1.1h.5l-.5,2.7-.1-.1-.1,1.3-.1.2h.1l-.1,1.1.5-.1-.7,1.2,1.5-.3Zm2.3-3.3-.3,1.2-.4-.9Zm-.9-2.3.3-.1-.1,1-.5-.4Zm-2.4,2.3,1-.6-.7.9-.3-.3Zm6.6-.8h.7l-.4-.6Zm.5-1.7h.7l-.5-.5Zm.6-5.5.1-.7-.6.3Z" fill="#260807"/>
      <path id="Path_14421" data-name="Path 14421" d="M255.77,141.48l-.7.3.5.4Zm-.1-2.3v-.7l-.7.5Zm-.3-2.5-.7.5.8.3Zm-6.03-6.2-1.24-.62.1,1.6Zm5.73,4.1-.6-.4v.7Zm1.8,12.3-.5-.6-.2.7Zm-.6,1.4h-.9l.6.7Zm-4.8-24.68-.32-.18-.06.5Zm-.02,4.2h-1.2l.77.95Zm-2.34-2.04.26-.52-.7.05.38-.33-1.83-.48.2,1.7,1.24-.88Zm-.22,5.74h1.3l-.76-.95Zm3.57,3.87,1.32.2-.56-.96.4-.13.1.1.25-.72-.7.24-.53-.46-.33,1.12.6-.14Zm1.2,4.9-.8.2.5.5Zm0,4-.5.8,1.1.1Zm-1.7-2.7.3-.7-.7.2Zm.23-8.9.2-1.2-1.07.47Z" fill="#260807"/>
      <path id="Path_14422" data-name="Path 14422" d="M252.17,135.18l.5-1.2-1.2.4Zm-1.9,7-1.2.4.7.8Zm4.2-1.8v.8l.7-.3Zm.4,1.8v.7l-.2.2.9.1-.2-.5h.2Zm-5.1-.7h.7l-.4-.7,1.1.5-.5-2.2-1.6,1.2.7.3-.3.7-1-.9-.6,2,2.3-.5Zm1.7-1.4,1.9-.2-1.4-1.3Zm-1.77-11.65-1.83-.38.4,1.57Zm-1.26-5.23.12.2.26-.52-.6-.06-1.33-.3.2,1.6Zm-2.17-4.06.2,1.5,1.43-1Zm1.86,12.7.17,2.6,2-1.74Z" fill="#260807"/>
      <path id="Path_14423" data-name="Path 14423" d="M248.17,140.28l2.9-2-.4-.2.8-.5.1,1.1,1.2-.9-1.2-.3.2-.1-.2-.1.4-.8-1.1-.1.2.5-.9-.6-.2,1.3-1.4-.9,2-1.5-2.1-1.1-.1,2.8Zm5.6-3.6.3-.7-.7.2Zm1.6,1.7-.4-.4-.1-.2-.2-.1h-.1l-.5-.4-.2,1.3.3-.2v.1Zm-4.2-6.23.7-1.45-1.37.4Zm-3.66-11.1-.5.23.53.37Zm1,2.84-.4.02.13.4Zm1.12-2.58-.18.3.4-.03Zm4.55,27.26-1.1.7,1.3.8Zm1.3,2.3,1.3-.1-.9-.9Zm-1.1-.1h.7l-.4-.6Zm-1.5,6.48-.7.02.24.53Zm3.3-5.28.6-.2-.6-.5Zm-.9-3.7-.7.6.9.2Zm-2.27,5.27-.07.6.62-.13Zm1.07-3.27-.7-.8-.5.9Zm-1.47,2.32.46-.45-.7-.18.14.52-1.1-.93.04-.3-.22.18-.1-.1-.01.1-.22.18.08.1-.26,1.38-.33.26.3.14-.2.78-1.2-.14.26,1.24,1.12-.98-.08-.1,2.56-1.3Zm11.52,26.88-.67-.27.22.73Zm-9.26,3.46-.68-.18.23.63Z" fill="#260807"/>
    </g>
    <path id="Path_14424" data-name="Path 14424" d="M153.46,208.5l78.2-.3s13.98-41.23,16.33-65.94c.58-6.1.74-41.3-23.26-42.62-11.8-.7-25.3,7.3-40.46,36.77-8.9,17.3-27.64,59.66-31.64,70.1-.55,1.3-.4,2,.82,2Z" fill="#fffdf3"/>
    <path id="Path_14425" data-name="Path 14425" d="M150.52,216.53l43.4-.22a20.091,20.091,0,0,0,19.07-14.05c5.2-16.46,13.15-43.62,14.7-60,.58-6.1,16.98-40.72-7.02-42.05-11.8-.7-21.2,6.73-36.4,36.2-8.9,17.3-31.57,66.76-35.57,77.2a2.215,2.215,0,0,0,1.8,2.93Z" fill="url(#linear-gradient-4)"/>
    <path id="Path_14426" data-name="Path 14426" d="M247.98,133.58c-.34,24.04-12.84,56.42-17.56,76.18-.76,3,.88,5.9,4.06,6.2,3.33.33,5.66-3.12,5.66-3.12s9.2-49.1,10.16-78.9c.62-18.86-12.02-28.53-14.08-29.33,5.2,5.14,11.87,17.34,11.76,28.96Z" fill="#441b18"/>
    <path id="Path_14427" data-name="Path 14427" d="M241.44,102.37l-1.2,4.3,9.1,7.8.4-7.4Z" fill="#fff"/>
    <path id="Path_14428" data-name="Path 14428" d="M249.74,115.47l-10.1-8.7,1.5-5.2,9.1,5.2Zm-9-9,8.1,6.9.3-6.1-7.5-4.2-.9,3.4Z" fill="#ddd"/>
    <path id="Path_14429" data-name="Path 14429" d="M217.64,101.07l1.6-3.8a1.04,1.04,0,0,1,1.3-.6l20.5,7,6.5,11.4-17.7-3.1-12.2-10.9Z" fill="#fff"/>
    <g id="Group_973" data-name="Group 973">
      <path id="Path_14430" data-name="Path 14430" d="M248.44,115.77l-18.9-3.3-12.6-11.2,1.7-4.1a1.481,1.481,0,0,1,1.9-.9l20.7,7.1,7.2,12.4Zm-18.4-4.3,16.5,2.9-5.9-10.3-20.3-6.9a.61.61,0,0,0-.7.3l-1.5,3.5Z" fill="#ddd"/>
      <path id="Path_14431" data-name="Path 14431" d="M226.8,208.27l-1.1-.01,15.73-60.1c5.34-22.17.9-33.52.83-33.64h.8c.07.12,4.76,11.43-.65,33.88-5.45,22.24-15.5,59.47-15.6,59.86Z" fill="#ddd"/>
      <circle id="Ellipse_365" data-name="Ellipse 365" cx="1.5" cy="1.5" r="1.5" transform="translate(223.025 198.303) rotate(-75.954)" fill="#ddd"/>
      <circle id="Ellipse_366" data-name="Ellipse 366" cx="1.5" cy="1.5" r="1.5" transform="translate(229.089 175.283) rotate(-75.954)" fill="#ddd"/>
      <circle id="Ellipse_367" data-name="Ellipse 367" cx="1.5" cy="1.5" r="1.5" transform="translate(234.936 153.56) rotate(-75.954)" fill="#ddd"/>
    </g>
    <g id="Group_974" data-name="Group 974">
      <path id="Path_14432" data-name="Path 14432" d="M210.75,176.83l1.63-.24-.78-1.28Zm.5-3.97,1.4-.86-1.12-.92Zm3.7,3.28,1.74.78.07-1.7Zm-.78-2.18-1.7,1.03,1.4,1.05Zm0-2,1.73.77.06-1.6Zm-12.3,10.52,1.6,1.07.37-1.68Zm10.66-13,1.83.78-.02-1.8Zm-.1-12.27.94,1.7,1.02-1.2Z" fill="#260807"/>
      <path id="Path_14433" data-name="Path 14433" d="M209.77,171.5l1.06,1.5.95-1.5Zm1.45,1.56,1.15,1.62.85-1.52Zm1.18-1.6,1.5,1.15.36-1.57Zm-3.5,3.87,1.5,1.05.37-1.67Z" fill="#260807"/>
      <path id="Path_14434" data-name="Path 14434" d="M207.94,174.74l1.26,1.43.76-1.53Zm10.06-3.2,1.12-1.1-1.36-.53Zm-1.1-13.88,1.47-.66-1.2-1.02Zm-2.16,4.4,1.48-.76-1.42-.85Zm4.84-10.16,2.44.64-1.08-2.2Zm-2.56,1.44,2.7.17-.63-1.77Zm1.03,5.73,1.14-1.3-1.48-.35Zm-2.2-2.23,1.13-1.2-1.36-.44Zm-6.56,20.46,1.58.26-.56-1.37ZM224.54,151l.98-.7-.96-.5Zm-2.33,3.56-.33-.73-.55.54Zm2.8-.2h-1l.53.75Zm-9.12,32.33.7.98.5-.86Zm-3.88-3.5.84-.42-.44-.55Zm-.37,7.7-.1-.9-.75.42Zm1.18-29.84-1.6,1.85,2.06.5Zm3.1-1.9.42.85.5-.86Zm-2.5,2.06.4.84.5-.85Zm-.46,3.58.42.75.48-.76Zm.9-6.05.42.85.48-.76Zm-2.8,4.95.4.84.5-.85Zm-.4-4.06,1.37-.67-.27-1.33Zm.54.66,2.6-.04-1.1-2.12Zm3.22,9.96,2.3,1.14.03-2.3Z" fill="#260807"/>
      <path id="Path_14435" data-name="Path 14435" d="M214.9,159.56l1.72-.13-.68-1.28Zm-.22-1.93,1.8-.02-.76-1.4Zm2.94,19.92.82.8.27-.68Zm-4.24,2.05-.75.52.76.38Zm5.77-3.34.85-.42-.65-.57ZM196.3,195.58l1.03-.2-.53-.76Zm-33.6-9.8.95-.13-.48-.7Zm54.27-13.84.83-.32-.53-.76Zm-5.57-11.53-.77-2.4-2.7,1.94,3.95,1.7-.47-1.26m1.8,11.97-1.06-3.42-2.42,2.07Zm4.47-16.43,1.72.87.17-1.7Zm-.12-.82-.53-1.76-1.4,1.06Z" fill="#260807"/>
      <path id="Path_14436" data-name="Path 14436" d="M220.58,154.9l-.4-1.04-.66.63Zm-25.6,33.82,1.45.55-.16-1.33ZM215,157.46l-.68-2.28-1.64,1.34Zm-4.48,16.64-.47-3.36-2.6,1.85Z" fill="#260807"/>
      <path id="Path_14437" data-name="Path 14437" d="M207.9,176.24l-.44-3.66-2.78,1.73Z" fill="#260807"/>
      <path id="Path_14438" data-name="Path 14438" d="M206.03,177.76l-1.16-3.43-2.4,1.77Zm11.42-4.68-.55,1.55,1.32-.17Zm-7.35,4.2,1.48,1.25.56-1.55Zm-16.16,6.83.82,1.8,1.04-1.3Z" fill="#260807"/>
      <path id="Path_14439" data-name="Path 14439" d="M197.55,186.16l1.04,1.6.85-1.42Zm12.2-9.33-1.7,1.03,1.2.93Zm-7.14-.93-1.62,1.05,1.5,1.05Zm1.5,1.17-1.72,1.13,1.52.86Zm2.7-1.04-1.6.95,1.3,1.03Zm1.58,6.4.5-.95-1-.1Zm-1.33,5.2-.72-.78-.2.9Zm7.17-3.32-.86.52.76.48Zm-7.64,9,.96.5.1-1Zm-4.98-1.5.66-.63-.87-.3Zm2.9,7.12-.53-.76-.46.66Zm.92-17.1,1.82-1.12-1.5-.96Zm.9,4,1.7-1.03-1.5-.96Zm-1.83-5.7,1.7-1.03-1.5-.96Zm-13.62,8.38,2,.2-.63-1.67Zm25.75-6.64-.5-.85-.48.75Z" fill="#260807"/>
      <path id="Path_14440" data-name="Path 14440" d="M212.78,179.55l-.6.94h1Zm1.52-5.08.64.57.27-.68Zm-7.13,2.9.66-.54-.56-.46Zm15.5-19.35.2,1.12.76-.53Zm-2.12-4.93h1.1l-.33-.74Zm-3.6,6.97.3-.88h-.8Zm4.75,1.58.6,1.06.6-.84Zm-4.78,3.75-.01-.9-.74.33Zm-12.12,22.5-1.15.5.73.68Zm4.24-3.1.2.93.65-.44Zm-7.54-1.96.9.1-.22-.83Zm5.17-7.42,1.63,1.77,1.1-1.9Zm.98-1.82,1.38,1.24.48-1.76Zm-.68,5.77.24,1.63,1.2-.8Zm11.45,1.13.1,1.02.65-.54Zm-.7-13.22-.01-.9-.73.33Z" fill="#260807"/>
      <path id="Path_14441" data-name="Path 14441" d="M161.28,189.6l.01,1.03.68-.38Zm3.15-3.2.01,1.03.68-.4Zm-4.6,6.6.01,1.03.68-.38Zm59.8-23.62-.01-.9-.63.34Zm-3.8,14.8-.04,1.4,1.15-.5Zm-1.44-5.68,1.08.2-.2-1.02Zm-5.23,7.02.5-1.06h-1Zm-13.25,6.9.18,1.12.97-.6Zm-2.04-5.73,1,.1-.22-.83Zm-4.48,7.6.3-1.08-.92.1Zm-.5,4.22.2,1.12.96-.6Zm-2.03-5.72,1,.1-.22-.83Zm-4.47,7.58.3-1.07-.92.1Zm21.32-18.63.17-1.7-1.34.37Zm-3.9-1.3,1.64-.34-.97-1.3Z" fill="#260807"/>
      <path id="Path_14442" data-name="Path 14442" d="M201.38,181.02l.46-1.56-1.53.24Z" fill="#260807"/>
      <path id="Path_14443" data-name="Path 14443" d="M200.86,179.16l-2.07,1.6,2,1.1Z" fill="#260807"/>
      <path id="Path_14444" data-name="Path 14444" d="M201.08,176.97l-1.83,1.22,2.15,1.62Zm-1.03,5.33.93,1.7,1.05-1.4Zm-2.65.33.63,1.77,1.3-1.07Zm1.56,2.47,1.6.16-.56-1.37Zm-.74-3.6,1.64-.33-.9-1.1Zm6.95,1.8-.1.9.74-.33Z" fill="#260807"/>
      <path id="Path_14445" data-name="Path 14445" d="M200,181.68l-.65-3.58-2.58,1.65Zm-13.43,6.7.87-1.62.3,1.94Zm1.4-2.88-.25,1.48,1.23-.27Zm4.56-3.36-1.82,1.02,1.56.56Zm-3.08,1.6-.4,1.07.96-.5Zm4.65,1.86-1.65-.66.04,1.6Zm21.02-18.28.95,1.5.84-1.32Zm-23.46,17.45-1.67-.37.25,1.53Zm6.3-.67-1.8-.08.54,1.56Zm3.56,4.57-.7.84.9.08Z" fill="#260807"/>
      <path id="Path_14446" data-name="Path 14446" d="M203.56,184.35l.44.65.47-.66Zm-6.9,1.72.84-.32-.55-.55Zm-3.08,6.73-.96.5.76.48Zm3.63-3.16.22.83.55-.45Zm-6.9-1.2.8-.12-.24-.63Zm8,3.1-.87.72.86.4Zm2.9-3.63.43.75.47-.66Zm-7.05.1.82-.22-.45-.55Zm-4.7-4.4,1.63.77-.17-1.32Zm2.02-.1,1.35,1.55.77-1.64Z" fill="#260807"/>
      <path id="Path_14447" data-name="Path 14447" d="M192.7,184.27l1.27.43-.08-1.22Zm1.55-2.27,1.46.45-.27-1.33Z" fill="#260807"/>
      <path id="Path_14448" data-name="Path 14448" d="M195.68,182.76l-.28.77.72-.13Zm2.12.01-.7-3.1-2.54,1.36Z" fill="#260807"/>
      <path id="Path_14449" data-name="Path 14449" d="M194.97,183.8l-.22-2.83-2.33,1.27Zm-16.22,1.98,1.08,1.1.4-1.3Z" fill="#260807"/>
      <path id="Path_14450" data-name="Path 14450" d="M181.52,188.12l.84-3.05-2.88-.01Z" fill="#260807"/>
      <path id="Path_14451" data-name="Path 14451" d="M178.55,187.7l1.15-2.6h-2.66Zm8.25-.7.88-2.72-2.58.64Zm26.47-21.27-1.6,1.95,2.05.6Zm-25.17,21.4,1.54.66-.04-1.6Z" fill="#260807"/>
      <path id="Path_14452" data-name="Path 14452" d="M215.24,165.12l-1.45-.65.05,1.52Zm-27.8,19.63,1.55.55-.15-1.52Zm28.16-20.4-.1-2.02-1.5.86Zm-.32,4.3-.1-2.02-1.5.86Zm3.06-3.4.08-1.8-1.56.55Zm-33.6,21.37,1.18,1.32-.05-1.5Zm32.66-21.06-1.43-.75.06,1.4Zm-30.42,23.78-.98-.2.3.84Zm36.2-38.28.68-2.74-2.7,1.84Zm-7.52,10.8,1.9.2-.54-1.57Zm3.7-1.85h1l-.4-.95Zm-4.65,1.25.08-.8-.63.24Zm5.92,4.1-.86-.5.01.9Zm-57.57,26.52-.97.16.3.8Zm4.58-1.28-.1.8.76-.12Zm-5.75-4.02.72.4.01-.83Zm52.68,3.12.6.97.6-.85Zm-3.54-3.78.84-.32-.54-.66Zm-1.07,7.63-.01-.9-.74.43Zm-14.32,5.6.92-.2-.54-.66Zm10.75-2.94,1.07.4v-1Zm-5.13-1.02.58-.75-.9-.2Zm3.73,6.8-.64-.66-.48.75Zm-16.2-9.76h2l-.84-1.6Zm-20.67-8.07,2.12-1.08-2.82-1.4Zm-4.25.82,1.94-.56-1.17-1.35Zm2.26-3.87-.67,1.92,1.77-.18Zm-8.2,11.55-.44,1.25,1.24-.07Zm.35-.75,1.92-.46-1.17-1.35Zm29.6-1.58,1.9-.01-.75-1.58Zm-26.4-5.6,1.94-.56-1.08-1.33Zm-2.1,4.52,1.94-.56-1.07-1.32Z" fill="#260807"/>
      <path id="Path_14453" data-name="Path 14453" d="M161.15,188.13l.9-.95-1.36-.36Zm2.03-4.83.9-.96-1.36-.36Zm-.28-1.7,2.4.25-1.32-2.7Zm41.5,13.3-.96.6.84.58Zm4.08-3.52.2.92.66-.53Zm-7.72-1.18h.9l-.33-.73Zm-7.26,5.4.08,1.22,1.06-.6Zm-2.16-5.64,1.2.12-.3-.84Zm-4.28,7.6.3-.97-.92.1Zm4.08-1.6-.86.52.65.57Zm3.62-3.05.23.72.55-.44Zm-7-1.22h.9l-.33-.73Zm10.2,3.65-.68.73.87.3Zm2.6-3.95.33.73.57-.64Zm-7,.8.72-.23-.44-.55Zm-9.46-2.87.5,1.86,1.32-1.07Zm-22.17.17,1.6.6-.2-1.58Zm-.93-3.14h1.63l-.46-1.3Zm2.57-2.8,1.7.12-.55-1.44Zm21.33,9.76-.9.01.32.74Zm-11.42-4.1,1.62,1.17.3-1.76Zm4.92-.34,1.62,1.17.3-1.77Zm-2.54,6.26-.4,1.07,1.14-.04Zm1.12-5.98.8.6.22-.83Zm-7.7,4.32.8-.77-.85-.37Zm.54-6.54,1.56-.97-.7,1.84Zm2.64-1.78-.96,1.15,1.2.38Zm5.9-.2-2.07-.18.96,1.34Zm-3.73-.58-.9.7,1.08.05Zm1.4,2-1.26-1.16-.55,1.45Zm-2.4,7.9-1.08-.04.4.8Zm4.74-.9-.23.82.7-.1Z" fill="#260807"/>
      <path id="Path_14454" data-name="Path 14454" d="M172.96,188.9l.77.3.1-.67Zm1.7-4.58,1.02,1.48.52-1.23Zm1.53,1.35.4,2,1.48-1.02Zm-5.5.23,2.13-1.92-2.55-.74Z" fill="#260807"/>
      <path id="Path_14455" data-name="Path 14455" d="M171.75,186.65l1,1.34.77-1.4Zm.62-2.4,1.06,1.26.63-1.4Zm-3.27.24.35,1.74.72-1.34Zm.57,3.48-.75-.67-.15.9Zm.1,3.42,1.74,1,.07-1.8Zm31.54-12.1,1.74,1,.07-1.8Zm-31.37,10,1.66.95.15-1.74Zm2.18,7.38-.54,1.1,1.22.02Zm.97-5.95.98.7.14-.88Zm-7.5,4.42.74-.7-.84-.37Zm4.32.67-1,.02.27.8Zm4.66-.82-.16.74.7-.1Zm-5.45-4.57.8.45.08-.8Zm-2-3.9-.5,1.87,1.68-.27Zm-1.4,4.68-.8-.4-.03.8Zm-.63-4.2-.9-.45-.07,1.02Z" fill="#260807"/>
      <path id="Path_14456" data-name="Path 14456" d="M169.83,187.83l-.6.68.84.32Zm-3.33-6.2.45.64.38-.63Zm-1.67,6.76-.83.4.57.57Zm3.95-2.8.08.86.64-.46Zm-6.86-1.83.92.04-.3-.8Zm3.78-1.94.8-1.08-1.06-.3Zm56.72-16.2-1.28.77,1.13.72Zm-1.84,3.33.4-.86-.8.02ZM210,164.1l1.6-1.95-3.38-1.34Zm3.1.3-2.85.32,1.27,2.34Z" fill="#260807"/>
    </g>
    <path id="Path_14457" data-name="Path 14457" d="M215.5,232.73l-1.98-.3c.17-.7,14.12-70.6,18.26-95.5,4.96-29.74-1.58-33.45-9.86-35.03-12.8-2.46-15.6,3.07-19.42,12.42-3.4,8.5-3.33,8.7-26.24,105.32l-1.87-.4,26.26-105.52c4.08-10.03,7.67-16.38,21.66-13.7,10.73,2.14,16.16,8.85,11.43,37.3-4.02,24.82-17.96,94.74-18.24,95.4Z" fill="#e57d00"/>
    <path id="Path_14458" data-name="Path 14458" d="M207.96,251.84l-35.66-8a4.742,4.742,0,0,1-3.6-5.8l4.22-18.96a4.742,4.742,0,0,1,5.8-3.6l35.66,8a5.285,5.285,0,0,1,4.05,6.36l-4,17.88a5.444,5.444,0,0,1-6.46,4.14Z" fill="#ffb600"/>
    <g id="Group_975" data-name="Group 975">
      <path id="Path_14459" data-name="Path 14459" d="M209.13,252.17l-.2-.02c-2.26-.54-3.47-3.28-2.86-6.24l4-17.88c.6-2.95,2.92-4.82,5.08-4.3l.2.12c2.26.54,3.48,3.18,2.87,6.14l-4,17.88c-.5,2.76-2.8,4.73-5.08,4.3Z" fill="#e57d00"/>
      <path id="Path_14460" data-name="Path 14460" d="M208.3,236.4l.93-4.02c-1.94,5.93-6,7.3-8.93,6.5-.5-.05-1.87-.4-3.84-.8-6.5-1.3-21.76-4.42-23.88-6.15-1.85-1.5-1.46-5.18-1.08-6.85L170.48,230a4.2,4.2,0,0,0,1.62,2.8c2.04,1.62,12.94,4.1,24.26,6.4a31.358,31.358,0,0,1,3.74.8,6.066,6.066,0,0,0,1.9.2,9.2,9.2,0,0,0,6.31-3.76Z" fill="#e57d00"/>
    </g>
    <g id="Group_976" data-name="Group 976">
      <path id="Path_14461" data-name="Path 14461" d="M209.2,223.92l-.7-.17.47-.66Zm-.1,1.08-1.35.46.15-1.5Zm1.6-.02-1.26.57.05-1.5Zm-.73,2.14-.02,1.2-1.13-.72Zm.3-4.6,2.55.58-1.75,2.32Zm-14.94.53-.14,1.3-1.14-.62Zm2.23-2.07-.1,1.1-1.04-.6Zm-1.37,4.38-1.26.57.07-1.6Zm4.3-3.46-1.24.37.15-1.5Zm3.2.13-1.26.47.17-1.6Zm-6.48-1.4-1.17.58.07-1.6Zm-.8,1.62-1.37.56.07-1.6Zm2.38.44-1.26.47.17-1.6Zm-4.3-1.24-1.34.36.16-1.5Zm-2.6-1-.13,1.3-1.44-.66Zm-1.5.05-.37-1.25,1.38.25Zm18.2,5.84-1.26.47.17-1.6Zm-4.8-.3-.05-1.42,1.45.56Zm2.35-.46-.16-1.32,1.46.46Zm-5.63-.8-.13,1.2-1.04-.62Zm-6.7-1.3-.02,1.1-1.15-.53Zm-1.17-1.24-.13,1.2-1.04-.6Zm9.28,2.5-.1.8-.86-.4Zm-5.2-1.15.7.17-.46.56Zm2.26,6.17.37-.56.44.54Zm-18.05-.4-.6.03.27-.67Zm.92-3.93-.15.5-.46-.35Zm-4.8,1.7.47.25-.44.36Zm13.97,2.8-.7-.07.4-.86Zm1.26-5.2-.18.68-.55-.46Zm-6.2,2.36.58.26-.55.44Zm1.6,5.7-.6.03.27-.57Z" fill="#ffdb43"/>
      <path id="Path_14462" data-name="Path 14462" d="M188.57,228.87l-.15.5-.37-.34Zm-4.8,1.7.57.36-.53.24Zm23.7-2.42-.36,1.47-1.28-1.14Zm-3.72,1.92.57.26-.56.54Zm4.87-.38-1-.1.52-1.05Zm2.4-6.6-.3.88-.73-.68Zm-8.56,2,.76.5-.96.5Zm-1.7,2.75-.55-.56.93-.2Zm4.72-1.9-.62.23.07-.7Zm-5.43-3.8.14.62-.7-.17Zm2.46-.54v1.2l-1.25-.54Zm.84,1.7-.86,1.52-1.25-1.54Z" fill="#ffdb43"/>
      <path id="Path_14463" data-name="Path 14463" d="M200.77,223.83l-1.78.62.23-2.1ZM210,225l-1.68.63.1-2Zm-4.96-1.62-.13,1.2-1.14-.62Zm.66-1.34-.13,1.2-1.03-.7Zm-10.48,5.73-.8.01.38-.76Zm-3.78-1.3-.8-.08.4-.77Zm2.33-.16-.24-.63.8.18Zm-4.35-1.66-.22-.73.78.2Z" fill="#ffdb43"/>
      <path id="Path_14464" data-name="Path 14464" d="M195.26,229.28l-.17.7-.55-.46Zm11.18-5.85-.68-.18.47-.65Zm-6.97,1.27-.26.57-.56-.46Zm10.1-1.25-1.26.47.06-1.5Z" fill="#ffdb43"/>
      <path id="Path_14465" data-name="Path 14465" d="M206.13,221.68l2.55.58-1.66,2.33Zm-3.17-.53,2.48.36-1.47,2.46Zm-2.93-.82,2.47.47-1.47,2.45Zm-8.33-1.9,2.46.47-2,1.7Z" fill="#ffdb43"/>
      <path id="Path_14466" data-name="Path 14466" d="M188.84,217.74l2.66.58L189.3,220Zm8.36,1.9,2.55.67L198,222.54Zm-3.15-.73,2.55.67-1.75,2.23Zm9.83,9.78-.46-.45.73-.22Z" fill="#ffdb43"/>
      <path id="Path_14467" data-name="Path 14467" d="M201.74,229.87l-.72-.78,1.25-.47Zm3.84-.2-.44-.55.72-.22Zm-1.48-1.17-.35-.54.63-.24Zm-20.12,1-.44-.55.72-.22Zm4.02-2-.53.24.07-.6Zm-4.9-3.03.14.62-.6-.16Zm.48-3.57-.2,1.1-1.14-.63Zm2.16-2.28-.03,1.2-1.14-.62Zm-4.46-.68-.6-.06.38-.66Zm3.16,5.26-1.35.46.07-1.6Zm1.1-4.7-1.25.37.06-1.5Zm-.97,1.5-1.25.47.15-1.5Zm3,.32-1.36.46.06-1.5Zm1.33-1.17-1.26.47.06-1.5Zm-7.83-.12-1.26.47.16-1.5Zm1.6.07-1.16.48.06-1.5Z" fill="#ffdb43"/>
      <path id="Path_14468" data-name="Path 14468" d="M182.04,221.24l-.02,1.1-1.25-.54Zm8.32,1.2.01.8-.76-.38Zm-5-1.23.6.17-.36.56Zm2.14,6.25.37-.56.44.55Zm2.24-6.8.02.8-.78-.3Zm-5-1.13.7.17-.46.55Zm2.17,6.16.36-.57.44.55Zm-1.73,3.94-.7.03.38-.77Zm1.25-5.1-.08.7-.65-.47Zm-6.17,2.16.67.38-.75.42Zm3.15-1.18h-.8l.38-.76Zm-1.46-1.45-.12-.72.68.17Zm1.82,2.8-.18.7-.44-.55Zm1.72-9.67,2.58.38L186.4,220Zm-2.93-.8,2.46.56-2,1.8Zm-1.93,4.03-1.27.57.17-1.6Zm-5.28-.47.15-1.4,1.33.74Zm-2.58-.37.44-1.27.86,1.4Zm.7-1.74.83-1.22.34,1.54Zm4.2,2.15-.05-1.4,1.35.54Zm1.05.43-.36,1.47-1.2-1.03Zm-5,3.58.67.37-.65.44Zm5.83.02-.43-.65.83-.2Zm4.83-1.9-.73.23.08-.7Z" fill="#ffdb43"/>
      <path id="Path_14469" data-name="Path 14469" d="M179.04,218.2l.03.7-.68-.28Zm-4.2,3.6-.53-.66.9-.1Zm-.94.4-.64.33-.01-.8Zm.78-3.65.14.62-.8-.18Zm5.42,4-.5-.85,1.1-.1Zm8.23-.94-.63.33v-.9Zm-6.05-4.56.1.92-.98-.3Zm-5.02,3.7-.83,1.22-.88-1.2Zm-.76-4.3-.73,1.23-.97-1.3Zm.84.8-.03,1.2-1.15-.53Zm.72-1.12-.12,1.1-1.13-.72Z" fill="#ffdb43"/>
      <path id="Path_14470" data-name="Path 14470" d="M178.42,217.44l-.6-.16.37-.67Zm3.2.14-1.24.37.05-1.5Z" fill="#ffdb43"/>
      <path id="Path_14471" data-name="Path 14471" d="M178.7,215.66l2.46.46-1.55,2.35Zm-2.4-.06,1.93-.2-1.3,1.87Zm.53,7.3-.33-.64.72-.12Zm-.3,3.8-.7-.88,1.25-.37Zm-.9-2.92-.35-.44.72-.12Z" fill="#ffdb43"/>
    </g>
    <g id="Group_977" data-name="Group 977">
      <path id="Path_14472" data-name="Path 14472" d="M202.87,241.95l-.6-.06.36-.57Zm-.12,1.2-1.25.37.15-1.4Zm1.6-.03-1.36.46.16-1.5Zm-.7,1.93-.02,1.1-1.15-.53Zm-1.47-5.08,2.36-.46-.68,2.65Zm-12.42,1.4-.02,1.1-1.14-.62Zm2.04-2.2.1,1.12-1.15-.53Zm-.5,2.86-1.25.37.16-1.5Zm3.32-1.96-1.15.48.05-1.4Zm3,.23-1.16.48.16-1.5Zm-6-1.25-1.16.48.06-1.5Zm-.87,1.52-1.16.48.06-1.5Zm2.28.33-1.15.38.05-1.4Zm-4-1.22-1.15.48.06-1.5Zm-2.53-.88-.04,1.3-1.34-.65Zm-1.5.05-.18-1.12,1.4.14Z" fill="#ed8e11"/>
      <path id="Path_14473" data-name="Path 14473" d="M202.22,244.3l-1.17.58.16-1.5Zm-4.5-.28.03-1.3,1.24.63Zm2.15-.37-.08-1.22,1.45.56Zm-5.25-.75-.12,1.1-1.05-.5Zm-6.2-1.17-.12,1.1-1.14-.62Zm-1-2.03-.01,1.1-1.16-.53Zm8.52,3.13-.08.8-.77-.38Zm-4.8-1.13.6.17-.37.66Z" fill="#ed8e11"/>
      <path id="Path_14474" data-name="Path 14474" d="M193.23,247.57l.25-.48.44.55Zm-16.6-3.77-.6.03.28-.67Zm.8-3.74-.05.5-.47-.35Zm-4.5,1.64.48.25-.44.35Zm12.42,3.32-.7.03.38-.66Zm1.2-4.7-.16.6-.55-.46Zm-5.85,2.1.56.36-.55.45Zm2.82,2.8-.6.04.27-.68Zm.9-3.73-.26.47-.36-.34Zm-4.6,1.63.4.14-.35.47Zm25.98-4.18-.04,1.3-1.33-.75Zm-6.77,7.93.57.36-.54.34Zm6.37-2.15-1-.1.5-.95Zm.78-3.63-.28.77-.75-.58Zm-8.66.1.65.57-.75.42Zm-2.6,4.64-.55-.56.94-.3Zm4.43-1.94-.54.35.07-.7Zm-4.97-3.45-.06.6-.7-.18Zm2.18-.57-.02,1.1-1.05-.5Zm.84,1.6-.86,1.52-1.14-1.63Z" fill="#ed8e11"/>
      <path id="Path_14475" data-name="Path 14475" d="M194.92,242.02l-1.56.53.1-1.9Zm8.73,1.12-1.57.64v-1.9Zm-4.75-1.6-.1,1.1-1.04-.62Zm.63-1.23-.02,1.1-1.15-.53Zm-9.83,5.5-.8-.1.38-.76Zm-3.58-1.4-.7-.07.38-.67Zm2.22-.06-.23-.63.78.18Zm-4.04-1.64-.24-.63.8.18Z" fill="#ed8e11"/>
      <path id="Path_14476" data-name="Path 14476" d="M190.33,246.46l-.16.58-.56-.46Zm9.97-4.88-.7-.07.47-.66Zm-6.58,1.32-.26.58-.54-.56Zm9.48-1.3-1.17.58.06-1.5Zm-3.42-1.78,2.37.45-1.54,2.15Zm-2.86-.52,2.37.35-1.44,2.26Zm-2.75-.68,2.37.45-1.45,2.26Zm-7.87-1.74,2.38.35-2,1.7Zm-2.54-.58,2.37.45-1.97,1.5Zm7.86,1.75,2.16.53-1.55,2.25Zm-2.94-.72,2.35.55-1.73,2.13Zm9.18,9.22-.46-.45.72-.13Z" fill="#ed8e11"/>
      <path id="Path_14477" data-name="Path 14477" d="M195.83,247.64l-.7-.88,1.23-.17Zm5.55-1.12-.25-.43.7-.12Zm-3.3-.15-.35-.54.62-.13Zm-19.16-1.42-.33-.64.62-.14Zm3.93-1.9-.53.24-.04-.6Zm-4.73-2.82.14.52-.6-.06Zm-.2-1.93-.12,1.1-1.14-.63Zm2.84-1.2-.12,1.1-.94-.6Zm-4.26-.66-.6-.16.36-.56Zm4.08.44-1.25.47.14-1.4Zm-.86,1.52-1.26.47.15-1.4Zm2.68.28-1.14.38.04-1.4Zm1.42-1.06-1.35.46.16-1.6Zm-7.42-.08-1.25.37.25-1.38Zm1.6.06-1.34.36.24-1.38Zm-.8,1.83v1.1l-1.05-.52Z" fill="#ed8e11"/>
      <path id="Path_14478" data-name="Path 14478" d="M185.1,240.67l.02.7-.77-.28Zm-4.7-1.2.58.16-.47.66Zm2,5.85.35-.47.45.55Zm2.08-6.32.02.8-.77-.38Zm-4.7-1.2.6.16-.47.65Zm2.1,5.95.26-.58.44.55Zm-2.62-3.8-.7-.07.38-.76Zm-2.05,2.2-.24-.63.7.18Zm3.26-1.25-.16.58-.56-.46Zm.06-5.34,2.46.56-1.86,1.42Zm-2.82-.8,2.43.76-1.98,1.6Zm-1.75,4.04-1.25.47.16-1.5Zm-5.07-.54.14-1.3,1.23.73Zm-.04-2.42.33-1.27.88,1.2Z" fill="#ed8e11"/>
      <path id="Path_14479" data-name="Path 14479" d="M169.98,234.45l.9-1,.35,1.44Zm3.1,3.95-.06-1.3,1.36.45Zm-2.78,2.52.47.35-.55.44Zm1.67-1.54-.43-.65.7-.12Zm-2.24.27-.64.33.08-.7Zm.57-2.65.15.52-.7-.17Zm5.15,3.76-.53-.76,1.03-.2Zm7.83-.88-.73.22.1-.8Zm-5.78-4.24.02.7-.77-.28Zm-5.52-3-1.33.26.14-1.4Zm.88,3.1-.12,1.1-1.15-.52Zm.62-1.14-.02,1.1-1.04-.6Z" fill="#ed8e11"/>
      <path id="Path_14480" data-name="Path 14480" d="M173.94,235.97l-.58-.16.37-.67Zm3,.13-1.26.47.15-1.4Z" fill="#ed8e11"/>
      <path id="Path_14481" data-name="Path 14481" d="M174.27,233.8l2.45.67-1.87,1.5Zm-2.3-1.15,1.43.75-1.4.86Zm1.15,7.15-.34-.54.63-.24Zm-1.83,2.13-.47-.35.73-.23Z" fill="#ed8e11"/>
    </g>
    <path id="Path_14482" data-name="Path 14482" d="M223.9,101.5c-13.56-5.86-24.94,4.8-37.26,19.48-8.74,10.34-20.72,26.66-23.54,34.2-2.53,6.77-4.05,14.45,2.13,20.74,6,6.07,12.38-7.74,22.13-12.44,7.2-3.46,19.78.3,30.1-12.7,11.34-13.98,16.08-20.82,16.18-28.35.66-9.08-1.97-17.5-9.75-20.94Z" fill="url(#linear-gradient-5)"/>
    <path id="Path_14483" data-name="Path 14483" d="M233.28,123.9c1.07.3.65,2.38-.78,3.54l-2.76,2.32c4.22-1.87,8.2-5.36,9.5-2.3.67,1.28-1.12,2-.38,1.67s1.54-.34,1.9,1.1c.3,1.94-.77,2.53-.77,2.53a1.437,1.437,0,0,1,.58,2.07l-.86,1.52s1.04.6-.7,2.74c-1.83,2.12-4.96,3.2-6.84,3.8l-2.72,1.02L203.2,162.95c-9.6,7.03-20.88,11.97-24.4,14.8-3.5,2.75-12.46-20.02-12.46-20.02l41.73-16.1c9.52-4.42,12.35-6.43,13.28-7.64,1.16-1.5,1.7-2.64,3.42-4.77,1.04-1.3,3.35-2.16,4.84-3l3.67-2.33Z" fill="#ea9d7d"/>
    <path id="Path_14484" data-name="Path 14484" d="M160.82,169.02s3.43,6.5,10.65,6.76a33.3,33.3,0,0,0,18.67-4.46c5.56-3.13,10.77-6.7,20.15-13.65,7.16-4.97,14.72-10.8,18.64-13.6,1.1-.9,3.6-.73,6.8-2.6.75-.42,3.36-2.26,3.93-3.9.3-.97-.3-1.04-.15-1.42a3.846,3.846,0,0,0,.93-2.1c.1-.9-.58-1.17-.56-1.37.06-2.5-3.07-3.34-8.43-.2s-24.3,12.1-41.06,20.2c-13.24,6.43-15.7,9.6-29.58,16.37Z" fill="url(#linear-gradient-6)"/>
    <path id="Path_14485" data-name="Path 14485" d="M208.4,141.47c1.82,5.62,8.54,11.46,8.54,11.46l-9.9,7.2-7.56-14.98c1.27-.67,6.82-2.8,8.93-3.68Z" fill="url(#linear-gradient-7)"/>
    <path id="Path_14486" data-name="Path 14486" d="M211.57,167.45l-14-28.13a1.449,1.449,0,0,0-1.94-.7,139.972,139.972,0,0,0-20.5,10.3c-17.47,9.2-15.77,18.84-11.94,27.3,2.88,6.04,13.97,12.44,27.6,6.34,8.7-4.2,17.45-10.92,20.3-13.13a1.577,1.577,0,0,0,.5-1.96Z" fill="url(#linear-gradient-8)"/>
    <g id="Group_978" data-name="Group 978">
      <path id="Path_14487" data-name="Path 14487" d="M214.17,154.26l.8.08-.32-.74Zm-9.73-7.76-.55-.46.04.6.5-.15Zm-1.7.9h0l-.2-.12-.1-.1.24-.38.2.02-.08-.2.14-.4-.3-.03-.08-.2-.12.2-1.3-.04,1,1.92.38-.76.2.12.1-.1-.1.1Zm10.43,5.04-.6-.16.13.72.46-.56Zm-1.9,1.8-.63.24.18.22-.3-.03.36.44.13-.3.1.1.17-.7Zm-9.06-9.4-.27-.33-.15.5.42-.16Zm4.75,2.62-.42.16.38.24.04-.4Zm4.55.68-.4-.04.06.4.34-.37Zm.7,7.62-.38-.24-.18-.22-.46.55.4.04-.05.5.75-.42.07.3,1.85-1.3-2.06-.52.06,1.3Zm-.28-3.06-1.36.46,1.1.92.25-1.38Zm-1.72-1.78h0l.16-.6-.1.1.02-.2-1.25.37,1.1.92.07-.6Zm-5.92-1.94-.33-.64.47.35.05-1.4-1.36.46.3.13-.05,1.4.93-.3Zm2.05-1.38-1.36.46,1.1.92.25-1.38Zm4.27,8.1-.68-1.18-.7,1.03,1.4.15Zm-6.04-4.68-.02.2.1.01.76,1.4.77-1.53-1.3-.14-.3-.13.28-.77-.6.04.12-.2-.3.07.24-.38-.5.05.26.43-.3.07-.7.03,1.07,2.23.45-1.38Zm5.3,6.9,1.85-1.3-2.06-.52.2,1.83ZM208,155.5l-.18.8.74-.32-.03.3-1.04.3,1.1.92.07-.7.22-.18.08.2.46-.55-.3.07-.66-.37.33-.27-.94-.6.15.4-.25-.53.22-.18-.48-.25.22-.18-.77-.28.25.53-.2.08.28.23.01-.1.22-.18-.04.4-1.5-.16.55.46-.03.3-.97-.3.9,1.8,1.3-1.77.3.12Zm8.34-2.72-1.04-.6-.1,1,.42-.16.1.92,1.32-1.07-.8-.18.1.1Zm-2.27-.35-.75-.48-.01,1Zm-2.52.04-.75-.48v1l.76-.52Z" fill="#ad5c44"/>
      <path id="Path_14488" data-name="Path 14488" d="M215.3,153.07h.9l-.3-.84-.6.84Zm5.2-3.57.7-.03-.1-.82-.6.85Zm1.17-3.3-.77.62.9.1-.13-.7Zm1.55-2.35-.77-.28.3,1.04.48-.76Zm3,1.93.47-.65-.77-.28Zm-1.5-2.78-.47.65,1,.1-.52-.76Zm-2.14,3.1.98.2-.5-.86-.47.66Zm-3.25,5.08,1.4-.96-1.36-.45-.05,1.4Zm-2.3,1.77,1.3-.97-1.46-.46.15,1.43Zm7.67-6.83-.08-.2-.13.3.2-.08.04.6-.42-.75-.47.65,1,.1.05.5,1.53-1.15-1.57-.37-.15.4Zm-18.9,8.36.5.05-.35-.54.5-1.05-.1-.1.2-.08-.66-.37.05.5h-.9l.01-.1-.3.07-.2-.02-.1.1.08.2.27.33.65,1.48.35-.47Zm3-1.6-.16.6.52-.15-.36-.44Zm-5.46-7.4-.27-.33.4.14-.25-.53-.13.3-.27-.33-.7.93-1.76-.5.6,1.07,1.07-.6,1.33-.16Zm4.03,5.65h0l.07.3.06.4.56-.54-.3-.03-.4-.15Zm1.4.95.36-.57-.5.05.15.52Zm-5.02-6.67h0l.44-.36-.3-.03.14-.4-.6.04.33.74Z" fill="#ad5c44"/>
      <path id="Path_14489" data-name="Path 14489" d="M203.55,144.48l.5.15-.04-.6-.45.46Zm1.85,7.24-.44.36.5.15-.05-.5Zm5.33-.04.5.15.05-.5-.54.35Zm-8.6-3.23.84.6-.26.58-.58-1.17Zm5.72.1.37-.66-.6.04.24.62Zm-.94,4.12.38-.76-.8.02.43.74Zm-4-4.04.38-.76-.8.02.43.74Zm9.66,5.66.38-.76-.8.02.43.74Zm5.34-2.97.38-.76-.8.02.43.74Zm3.96-2.2.38-.76-.8.02.43.74Zm-17.1,3.82.38-.76-.8.02.43.74Zm2.18,1.24.38-.76-.8.02.43.74Zm-.26-4.16-.05-.5-.44.36.5.15Zm1.95-.4-.6.04.33.64.28-.68Zm-1.7-3-.57-.36-.04.4.6-.04Zm1.66-.43-.43.26.5.15-.06-.4Zm-3.16.28-.43.26.5.15-.06-.4Zm10.8,3.55-.03.3.53-.25Zm-6.53,7.55-.5-.15-.03.3-.45-.55-.02.2-.1-.1-.03.3-1.96-.5.83,1.7.77-.62-.42,1.16,1.74-1.22-.04-.6.2.1Zm5.1-4.58-.06-.4-.24.38.3.03Zm-7.4.72,1.5.06-.43-.65-.36-.44-.7,1.03Zm-.25,3.2.22-.18-.4-.14.17.32Zm2-1.9-.16-.42-.14.4.3.03Zm7.3-2.33.28.23.14-.4-.42.16Z" fill="#ad5c44"/>
      <path id="Path_14490" data-name="Path 14490" d="M215.18,151.45l-.14.4.22-.18-.08-.2Zm10.47-7.75-.33.27.4.14-.06-.4Zm-1.88-.3h-.2l.07.3.13-.3Zm-7.2,8.3-.3-.03.28.23Zm-1.6-1.08-.3-.13-.03.3.32-.17Zm-.04,2.3-.22.18.4.14-.17-.32Zm-.6-6.8-.3-.13-.14.4.43-.26Zm.5,2.87.4.14-.16-.42-.23.28Zm-2.37-.36.3.03-.16-.42-.14.4Zm-2.98,1.5.18.22.14-.4-.32.17Zm2.66,1.5-.14.4.42-.16-.28-.23Zm-1.54-4.5-.23.28.3.03-.07-.3Zm-2.5.03-.3.07.18.22.13-.3Zm2.7,1.8-.3-.13-.02.2.3-.07Zm-5.74-3.62-.33.27.3.03Zm-.58,3.55.42-.16-.3-.13-.13.3Zm-.26-1.33.14-.4-.4-.14.25.53Zm2.88,1.3-.22.18.3.13-.07-.3Zm2,.02.13-.3-.4-.14.26.43Zm.4,3.05-.14.4.3-.07-.17-.32Zm2.68-1.63-.22.18.3.13-.07-.3Zm1.57-.62.3.03-.27-.33Zm-.45,4.16.5-.05-.16-.42-.35.47Zm7.33-6.46-.36.57.6.16-.23-.73Zm1.55-2.25-.5.05.36.44.15-.5Zm-3.78.6-.27-.33-.04.4.3-.07Zm3.57,2.3.6.16-.04-.6-.55.45Zm1.5-2.84.26.43.24-.38-.5-.05Zm-3.28.64-.27-.33-.24.38.5-.05Zm-4.56,5.96.4.04-.04-.6-.36.57Zm3.08-1.5.6.16-.04-.6-.55.45Zm4.22-2.86.43-.26-.48-.25.05.5Z" fill="#ad5c44"/>
      <path id="Path_14491" data-name="Path 14491" d="M217.64,149.1l-.5.05.27.33.24-.38Zm-3.78.5-.28-.23-.16.6.44-.36Zm-.18,1.7-.43.26.38.24.05-.5Zm2.27-1.48-.5-.15.06.4.43-.26Zm2.5-1.65-.5-.15.04.6.45-.46Zm-1.34-2.45-.27-.33-.24.38.5-.05Zm-1.66,3.24-.4.06.36.44.05-.5Zm14.16-5.54.58-.74-.77-.28.2,1.02Zm4.48-2.44-.75.42.86.4-.1-.8Zm.3,1.14.85-.4-.53-.66-.32,1.07Zm1.7-.92.86-.5-.66-.37-.2.88Zm-4.12,1.87.84-.3-.53-.66-.3.97Zm-.53-.67.63-.24-.47-.35-.16.6Zm-2.52.04-.64.33.66.37Zm-1.66-.48-.63.24.66.37-.03-.6Zm9.26-1.93.76.38-.13-.72-.63.34Z" fill="#ad5c44"/>
      <path id="Path_14492" data-name="Path 14492" d="M235.1,141.7l.64-.33-.28-.23Zm3.2-3.5.02.8.46-.55-.48-.26Zm-12.53,5.32.86.4-.1-.82-.75.43Zm2.1.02-.47-.35-.28.77.8-.02.05.5-.2-.02-.1-.1-.38-.24.3,1.04.45-.46-.14.4,1.4-.96-1.34-.64-.1.1Zm2.42-.04,1.65-.43-1.2-1.03-.45,1.46Zm2.6-.84,1.27-.57-.93-.7-.34,1.27Zm2.56-2.34-.5-.15-.03.3.52-.15Zm.24-.38.3.03-.16-.42-.14.4Zm-1.4.06-.4.06.28.23.13-.3Zm3.46-.54.08.2.24-.38-.32.17Zm.24-1.18-.2-.12.07.3.12-.2Zm-.5-.96-.13.3.2.02-.07-.3Zm-5.86,3-.23.28.4.14-.16-.42Zm-3.2,1.68-.3-.03.27.33Zm1.75.48.02-.2-.3.07.3.13ZM229,141.35l-.3-.13.07.3.22-.18Zm-.22,2.1.4.14-.08-.2-.3.07Zm4.75-3.12-.3.07.3.13.02-.2Zm-1.42-.85-.2-.12-.02.2.2-.08Zm0,1.9-.12.2.3.13-.17-.32Zm-3.65-.68-.18-.22-.14.4.32-.17Zm4.65-1.13-.2.08.2.12.02-.2Zm2.44-1.25-.2-.02.08.2.12-.2Zm-4.9,2.6-.23.28.3.03-.07-.3Z" fill="#ad5c44"/>
    </g>
    <g id="Group_979" data-name="Group 979">
      <path id="Path_14493" data-name="Path 14493" d="M180.22,150.16l.84.6.23-1.18-1.07.6Zm-1.96-.5.84.6.23-1.18-1.07.6Zm13.94-.65.1-.1-.42.16-.04-.6-.73.22.66.37-.42.16.54.56.3-.77.54.56.08-.8-.62.24Zm4.8.42-.36.57.72-.13Zm-1,.8-.37.66.63-.24-.26-.42Zm-8.26,6.78.54-.35-.48-.25Zm3.42-8.6-1.4-1.15-.37,1.57,1.76-.42Zm7.7,3.23-.07.7.64-.33-.57-.37Zm-5.55,3.94-.6-.16.33.64.26-.48Zm1.78-.62-.5.05.27.33.24-.38Zm1.53-2.15h0l-.24.38.1.1-.14.4.6-.04-.27-.33-.05-.5Zm.83,3.6-.3-.13-.03.3.32-.17.54.56-.02-.8-.52.25Zm9.12,4.1-.4,1.06,1.14-.28-.73-.78Zm-13.94-14.66.44-.36-.66-.37.03.7-.58.74,1.05.5-.28-1.23Zm3.42,5.7-.5,1.05,1.15-.38-.64-.67Zm7.5,6.13-1.02.1.7,1.08.33-1.17Zm-8.26-8.42.2.02-.15-.52-.45.46-.6-.16.3,1.04Zm5.4-.74.8-.82-1.2-.13.4.95Zm5.55,8.44-.85,1.42,1.97.4-1.12-1.83Zm-.83-1.7-.74-1.6-.67-1.28-.6-.97-.3-.84-.42-.75-.66-1.38-1.5,1.85,2.12-.08-.8,1.02,1.47.36-1.38,1.66-.77-.28.28,2.14,1.45-1.35,1.37.35-.6,1.04-.8-.08.57,1.27.5-.85,1.1-.08-.83,1.22,2.2.23-.95-1.6Z" fill="#753837"/>
      <path id="Path_14494" data-name="Path 14494" d="M203.53,156.04l-.5,1.05.73-.22.15,1.42,1.34-1.27-1.27-.34-.44-.64Zm-8.5,4.33.25-.48-.6.04.36.44Zm-2.26-1.44.25-.48-.6.04.36.44Zm8.37-1.13-.98-.2.5.86.47-.66Zm-3.26,1.36.45-.46-.58-.26Zm4.5.28.8.18-.13-.72-.66.54Zm-5.22-7.7-.47-.35-.37.66.84-.3Zm-2.94,6.02.6.16-.33-.64-.26.48Zm1.67-11.1-.54-.56-.18.8.72-.23Zm-1.52.15-.1.9.73-.22-.64-.67Zm.6-.13.13-1.2-.53.25-.3-.84-.47.65.7.17-.44.36.93.6Zm-10.3,3.22.74-1.33-1.52.14.78,1.2Zm6.56.7-.46-.45-.17.7.63-.24Zm-.2-3.74.66.37-.04-.6-.62.24Zm-7.52.72.66.37-.04-.6-.62.24Zm8.77,9.36.38.24.04-.4-.42.16Zm2.33-3.06.5-.05-.27-.33-.24.38Zm12.56,4.84-1.13,1.2,1.7-.02-.58-1.17Zm-4.78-7.04-1.07-.3.08,1.1,1-.8Zm.06,3.22-1.2.88,1.07.3-.28.77,1.14-.28-.54-.56-.2-1.12Zm-5.94-5.75.16-1.5-.2.08-.38-.24-.03.3-.52.15.98,1.2Zm-8.77.27-.58-.26.05.5.53-.25Zm-3.63-2.6-.58-.26.05.5.53-.25Zm-2.77.42-.58-.26.05.5.53-.25Zm18.75,6.2.66-.53-.66-.37Zm-.78,3.63.57.36.05-.5-.62.14Zm-1.52-1.87.28-.77-.73.22Zm2.95,1.62.56-.54-.58-.26.02.8Zm-4.33-7.5-.66-.37.03.7.63-.34Zm1.3,3.65-.46.55.7.07-.24-.62Zm-9.02,2.68.58.26-.24-.63-.34.37Zm.28,5.96.38.24.04-.4-.42.16Zm-.06-8.14-.6.04.54.56.07-.6Zm-7.1-5.1.7.88.5-.85Zm6.33,2.1-.6.04.46.45.15-.5Zm1.33-3.1-.6.04.46.45.15-.5Zm9,12.83.66.37-.02-.8-.64.44Zm-5.86-8.36-.28.77.93-.2Zm4.7,6.83-.7.03.42.75.3-.78Zm.84-6.85-1.02.1.7,1.08.33-1.17Zm2.66,8.03-.15-.52-.56.54.7-.02Zm-2.68-15.48.05-.5-.86.5.74.58-.37.66.8.18-.14.4.33-.27.98.2.35.54.24-.38.8.08-1.25-2.45-1.66.46Zm3.7,15.3.57.36.05-.5-.62.14Zm2.83-.12,1.42-.15-.7-.88-.7,1.03Zm-4.84-.8-.17.7.6-.04-.44-.65Zm-.18,1.7.6-.04-.33-.64-.28.68Zm-.08,1.7.44-.36-.57-.36Zm-1.36-19.36-1.57-.37.22,1.73Z" fill="#753837"/>
      <path id="Path_14495" data-name="Path 14495" d="M200.4,149.58l.26-.58-.2-.02-.33-.64.14-.4-.3.07-.74-1.6-.36.57.14-.4-.82.1.35.54-.13.3-.33-.64.1.1-.74-1.6-.92,1.1,1.37.35-.58.74.7.17-.46.55,2.06.52-.88.7-.1-.1v.1l.3.84.56-.54.5.15-.28-1.14.4.14.33.56Zm-2.8.62-.14.4-.18-.22-.33.27.4.04-.15.5,1.04-.3-.64-.68Zm-1.44-7.2.46-.55-.6-.16.13.7Zm1.34-2.28-.9.8.4.04-.48.75,2.95.6-1.43-2.67-.37.66-.18-.2Zm-2.4.05-.35-.54-.7,1.84,2.22-.07-.8-.9.77.28-.1-.82.35.54.18-.8,1.02-.1-.6-.87-.37.66.16-1.5-1.95.4,1.06,1.42-.86.42Zm4.75,6.33,1.02-.1-.8-1-.22,1.08Zm-9.55-1.8,1-.8-.97-.3v1.1Zm6.97-.48-.64.33.66.37Z" fill="#753837"/>
      <path id="Path_14496" data-name="Path 14496" d="M193.95,142.96l1.7,1-.3-1.94-1.4.95Zm-2.2-.03.94.6-.6.04.5.96.56-.54.3.13.02-.2.6.97.45-1.36-1.04.3.35-1.37.38.24.8-3.74-1.8.72-.75.42-2.74,1.22,2.3,2.15-.25-.53Zm1.6-.84-1.6.84.7-1.84.9,1Zm-.26,6.2.66.37-.04-.6-.62.24Zm-2.22,2.98.52-.15-.48-.25-.04.4Zm2.87-.5.14-.4-.42.16.28.23Zm-1.83,3.12.4.04-.27-.33-.13.3Zm4.07-6.3-.7-.17.44-.36-.58-.26.04.6-.4-.14.25,1.43.93-1.1Zm3.8,7.84,1.12-1.1-1.17-.33.05,1.42Zm-.45-4.27-.36-.44-.36.57.6.16,1.47.36-.66-1.38-.68.73Zm-3.22-6.77.46-.55-.6-.16.13.7-.27-.33-1.26,1.48,2.06.52-.53-1.67ZM169,158.32l.86.4-.07-1.2-.8.82Zm4.78.4.12-.2-.4.06.07-.7-.82.1.55.46-.4.06.43.65.47-.45.43.65.17-.7-.6.04Zm-.44,3.18.72-.13-.35-.54Zm-2.66-8.13-.46.55.72-.13Zm1.92,12.17.45-.46-.58-.26Zm-1.8-11.44-.47,1.56,1.73-.22Z" fill="#753837"/>
      <path id="Path_14497" data-name="Path 14497" d="M171.38,151.93l-.47,1.56,1.73-.22Zm7.96,5.57-.07.7.64-.33-.57-.37Zm1.12,5.55.16-.6-.52.15.36.44Zm-3.52-1.88.38.24-.06-.4-.32.17Zm5.96,2.43.24-.38-.4-.14.15.52Zm-3.27-11.7-.87.6,1.04.6-.17-1.22Zm-4.8,4.62.54-.35-.58-.26.04.6-.6.84,1.18.23-.6-1.07Zm3.54-1.12-.6.84,1.2.13-.6-.97Zm-10.78-1.76-.9.8,1.94.7-1.05-1.52Zm2.1-.78-.58.74,1.18.23-.6-.97Zm15.33-6.02-.6.84,1.18.23-.6-1.07Zm-2.07-.42-.83,1.22,1.67.38Zm3.45-2.25-1.05.4,1.1.92.1-.9.4.95.72-1.13.3.13-.2-.02.28,1.14.7-.93-.5-.15.6-1.75,1,1.92-1.28.67.1.1-.85.4,1.38,1.25.12-1.1.66.37-.03-.7.58.26.04.6.65-.43-.1-.1-.16-.42,1.1.12-.7-1.08-.48.75-.15-.52-.77.62-.1-1.02.9-1.82-1.82.1.14-1.3-3.06,1.38,1.02.8-.64.44Zm1.2.03-.3-.03-.25-.53Zm-11.78,8.6.3.94.77-.62.2.02-.15-.52-.54.35-.58-.17Zm12.7-2.97.8-.92-1.3-.04.5.96Zm-4.78,3.3.8-.82-1.3-.14Zm-4.72-1.9.8-.82-1.3-.14Zm-4.04.17.8-.82-1.2-.13.4.95Zm-2.84,6.85-1.2.07.5.96.7-1.03Zm12.78-.15.54-.35-.58-.26.04.6Zm1.2-14.16.4.04-.2-.12.1-.1-.63-.77-.24.38-.5-.15.28,1.14.76-.43ZM179.3,155l.28-.77-.82.1.54.66Zm2.67-1.44-.8.02.43.65.38-.67Zm1.2-3.7-.35.47.6.16-.24-.63ZM181.65,151l-.35.47.6.16-.24-.63Zm-5.1,4.4.65-.43-.48-.25Z" fill="#753837"/>
      <path id="Path_14498" data-name="Path 14498" d="M179.72,153.92l.56-.54-.58-.26.02.8Zm-2.54,1.14.52-.15-.54-.56.02.7Zm-1.08,1.7-.24.38-.33.27.2.02-.1.1.3-.07.52-.15-.35-.54Zm-3.6-3-.24.38-.33.27.2.02-.1.1.3.03.52-.15-.34-.64Zm1.14.64h0l.46.45.28.23.45-1.36-1.37.56.18.12Zm1.58,4.98-.57-.36.02.8.55-.45Zm-1.5-2.08-.63.24.55.46.08-.7Zm4.54,8.44.38.24-.06-.4-.32.17Zm1.37-4.48-.03.3.33-.27Zm4.1-14.86,1.47-.55-.08.8,1.15-.38-.84-.6.3-.07-1.7-1,1,.1-.06-1.3-1.43,1.16.2.02v1.8Zm-14.53,6.3-1.1.9,1,1Zm1.52-1.14-1.4.96,1.95.6-.54-1.57Zm.88,9.64.24-.38-.6-.16.35.54Zm13.48-10.43-.54.35.7.17-.15-.52Zm1.77-.62-.77-.28.42.75Zm-4.5-3.9-.76-.38.32.74.44-.36Z" fill="#753837"/>
      <path id="Path_14499" data-name="Path 14499" d="M187.1,145.96l.63-.24-.55-.46-.08.7Zm-13.18,19,.7.07-.33-.64-.37.57Zm-.27-2.14-.72.13.54.56.18-.7Zm12-10.8,1.04.6.1-1-1.15.38Zm-13.1,9.66-.72.13.46.45Zm1.36-5.27-.7-1.08-.4.86-.04-.6-.68.73.66.37.04.6.65-.43-.1-.1-.06-.4.6.07Zm4.38-4.37-.6-.16.13.72.46-.56Zm3.22-3.78-.48.75.88.2-.4-.94Zm-1.55-.56-.48.75.88.2-.4-.94Zm-2.37,3.46.46-.55-.6-.16.13.7Zm-1-1.1.46-.55-.6-.16.13.7Zm-5.9,6.33-1.07-.3.28,1.14.8-.83Zm2.47-3.27.28,1.14.8-.92Zm.06-1.6.28,1.14.8-.92Zm5.83-3.7-.4-.14-.22-.73-.8.82.6.16.02.8.8-.92Zm-.16,5.2-.64.33.66.37Zm1.66-.43-.64.33.76.38-.12-.7Zm-4.96-.72,1.84.7-.62-1.77Zm6.15-6.68,1.67,1.28-.08-2.12-1.6.84Zm-5.77,3.2,1.67,1.28-.08-2.12-1.6.84Zm3.74-2.12,1.6,1.17-.08-2.12-1.5.95Z" fill="#753837"/>
      <path id="Path_14500" data-name="Path 14500" d="M178.24,147.03l1.6,1.17-.08-2.12-1.5.95Zm-3.66,2.23,1.6,1.17-.1-2.02Zm-1.72,1.02,1.7,1.08-.1-2.02-1.6.94Zm-1.6.94,1.6,1.17-.28-2.14-1.3.97Zm3.77,2.3.4.14.2.12.1-.1.5.15-.4-.95.03-.3-1.07.6.26.34Zm.52,4.57-.63.24.55.46.08-.7Zm-6.62-1.1.73-1.23-1.2-.13.46,1.36Zm-2.03-.7.7-1.03-1.2-.13.48,1.16Zm2.05,8.15.44-.36-.5-.15.05.5Zm3.2-.87-.33.27.28.23Zm-1.64,3.15.4-.06-.28-.23-.13.3Zm4.18-11.83.52-.15-.38-.24-.14.4Zm2.8-.8.27.33.14-.4-.4.06Zm9.38-7.97-.24,1.28.52-.15.15.52.58-.74.18.22.37-.66-.6.04-.01.1-.2-.02-.74-.6Zm-.98,2.62,1.46-.45-1.22-.83Zm-24.05,15.35-.86.5,1.04.6-.18-1.12Zm5.4-7.47-.36.57-1.04.3,1.2,1.03.1-1,.9.1-.8-1Zm-2.14-.63-.85,1.42,1.4.15-.54-1.57Z" fill="#753837"/>
      <path id="Path_14501" data-name="Path 14501" d="M166.98,156.5l-.63-.67-.15.5-.5-.15.28,1.14.66-.53.5.05-.17-.33Zm-2.38,7.2.7.07-.43-.65-.27.58Zm-1.02,1.08.7.07-.43-.65-.27.58Zm-2.48,1.75.03.7.54-.35-.57-.36Zm1.14-.48.56-.54-.6-.16.03.7Zm-.84,2.32.52-.15-.54-.56.02.7Zm3.3-10.3-1.5.85,1.65.58-.15-1.43Zm1.06,3.24.73-.22-.66-.37-.07.6Zm5-.68-.6.04.43.65.18-.7Zm-3.5,4.55.7.07-.26-.43-.44.36Zm.2-2.7.42.75.37-.66-.8-.1Zm1.13-4-.55-.46.04.6.5-.15Zm-5.78,8.13.36-.57-.6-.16.23.73Zm-.53-3.66-.6.04.22.73.4-.77Zm8.53-3.64-.6-.16.24.63.35-.47Zm-7.04,2.9-.28.77.9.1-.62-.86Z" fill="#753837"/>
      <path id="Path_14502" data-name="Path 14502" d="M161.23,165.14l-.65.43.77.28-.12-.7Zm1.8.2-.03-.7-.65.43.68.28Zm5.3-4.47-1.14-.62.22-.18-.02.2.88.2-.5-.96-.15.5-.38-.24.43-.26-2-.92.01,1.8,1.04-.3-.16.6.42-.16-.01,1,1.37-.65Zm-3.82,1-.07-1.2-1.1.08-.56-1.37-.62,1.14.8.18-1.22,1.08,1.1.92-.05-1.4,1.3.04-.23.28.03-.3-.54.35.6.16.58.06-.1.1,1.16.42-.14-1.52-.9,1Zm4.5.28,1.17.33-.5-.96Zm.3-1.07-.25-.53-.25.48Zm2.8-2.52.46-.55-.7-.07.24.62Zm-1.4,3.67.7.07-.15-.52Zm.7.98.63-.24-.54-.56-.1.8Zm-2.48-4.2.35-.47-.8-.08Zm5.94.94.77.28-.24-.63Zm20.84,2.62.25-.48-.6.04.36.44Zm9.83-53.86-1-.2.5-.76Zm-2.1,7.5-.14-.52.48.15Zm2.76-6.03-1.28.67-.07-1.22Zm.95-1.4-.9-.1.48-.66Z" fill="#753837"/>
      <path id="Path_14503" data-name="Path 14503" d="M203.7,109.7l-.48.75-.54-.66Zm3.45.77-.05.5-.47-.35Zm2.8-3.62-.42,1.06-.83-.7Zm-3.85,4.92.37.24-.23.28Zm-.42-2.67.44-.36.05.5Zm-1.98,2.62-.34.36-.17-.32Zm1.3,3.85-.6-.16.34-.37Zm-1.33-1.65.6-.13-.14.4Zm.03-1.3.5-.05-.13.3Zm.4-2.67.5-.05-.04.4Zm-2.5-2.28-.92.2.18-.8Zm4.6.5-1.02.1.4-.86Zm-3.3.64-.3-.83.9-.01Zm1.8-.8-.2-1.03.8.2Zm1.9-1.9-.4.96-.53-.66Zm-2.38,1.65-1.17-1.33,1.46-.45Z" fill="#753837"/>
      <path id="Path_14504" data-name="Path 14504" d="M206.64,104.8l.12,1.72-1.44-.66Zm-2.34,4.97-1.13-.72,1-.9Zm-1.62-4.6-.2,2.8-2.2-1.14Zm2.4-1.67-.3,2.8-2.2-1.24Z" fill="#753837"/>
      <path id="Path_14505" data-name="Path 14505" d="M207.34,102.04l-.4,2.78-2.07-1.33Zm-2.14,7.02.05-.5.4.04Zm1.4-.96-.04-.6.5.16Zm.82-1.12-.82-.8.94-.4Zm-1.16,3.3.53-.25.05.5ZM204.7,109l-1.25-.53.8-.92Zm-2.42-.05-.6-.97.93-.2Zm4.74,8.45.05-.5.48.25Z" fill="#753837"/>
      <path id="Path_14506" data-name="Path 14506" d="M202.47,119.53l.06-.6.46.45Zm-7.77.17-.9-.1.57-.65Zm-.95-.5-1.25.47.02-1.2Zm4.42-3.75-.87-.3.66-.53Zm-1.65,4.25h-1l.27-.68Zm3.73-2h-1l.48-.75Zm1.55-3.17-1-.01.37-.66Zm.67-6.36h-.9l.28-.77Zm6.63,2-.58.75-.52-.76Zm-7.34,6.57-.58.74-.45-.55Zm-2.46-3.48-.4.86-.62-.77Zm-6.4,8.17-.6.85-.33-.64Zm9.57-3.8-.25-.53.4-.06Zm-2.45-10.12.7,1.08-1.03.3Zm1.5-.04-.7.84-.5-.96Zm-1.97,9.14-.17.68-.47-.35Z" fill="#753837"/>
      <path id="Path_14507" data-name="Path 14507" d="M199.98,115.44l-.07.7-.46-.35Zm.9-1.7-.5.05.17-.6Zm-.83,1.22-.6.03.15-.48Zm-3.12,2.88-.06-.4.4-.06Zm1.48-1.65-.15-.52.5.06Zm-1.07.6.48.25-.45.46Zm-.33,2.18.37.34-.44.36Zm-.42-2.65.2.93-.98-.2Zm-1.63,3.94.44-.35.16.4Zm2.78-11.07,1.45-1.35.62,1.77Zm3.7.1-1.3.87-.35-1.44Z" fill="#753837"/>
      <path id="Path_14508" data-name="Path 14508" d="M202.1,109.64l-.86.5-.1-.82Zm-.24-.54-.94-.6.78-.72Zm-1.06,1.6-.64.34-.03-.7Zm3-.8-.48-.25.53-.24Zm-2.04,4.02.34-.36.24.53Zm.66-1.54.6-.03-.07.6Zm-2.96-.5.25.43-.6-.06Zm3.44-2.97-.34.37-.05-.5Z" fill="#753837"/>
      <path id="Path_14509" data-name="Path 14509" d="M198.7,108.47l1.57,2.28-2.46.44Zm-7.9,11.13-1.03.2.3-.87Zm4.67-.4-.93.2.08-.8Zm1.3-3.7-.34-.54.6-.04Zm1.14-1.28-.44-.55.7-.03Zm-.27-2.14-.15-.52.4.04Z" fill="#753837"/>
      <path id="Path_14510" data-name="Path 14510" d="M200.1,113.45l-.8.01.08-.8Zm-2.82.9-.33-.63.6-.04Zm-5,6.5-.3-1.03.8.08Zm4.03-7.72.4-.86.53.66Z" fill="#753837"/>
      <path id="Path_14511" data-name="Path 14511" d="M198.65,112.9l-.95-.6.8-.73Zm-2.97.48.6-.84.62.77Zm.87-1.62.6-.84.43.65Zm-2.43,5.88-.3-.94h.9Z" fill="#753837"/>
      <path id="Path_14512" data-name="Path 14512" d="M197.3,112.34l-.4-.94.8.08Zm-2.27,3.38-.3.98-.73-.68Zm2.17.34.46-.46.14.52Zm1.3-.76.44-.36.14.62Zm-2.18,8.2-.16-.42.5.16Zm2.68-4.34.57.26-.53.25Zm-1,3.62-.6.03.25-.37Zm-1.44-1.56.62-.14-.05.4Zm4.04,1.73.16-.6.48.26Zm-5.25,3.97.17-.7.47.36Zm-2.2-1.94-1-.01.38-.76Zm-5.6,6.44h-1l.28-.78Zm-10,5.28h-.9l.27-.67Zm1.84-2.22-1-.01.48-.75Zm15.3-12.56-.9.01.38-.77Zm.9,1-.5.85-.52-.76Zm-11.13,8.28-.6.85-.43-.75Zm1.44-1.26-.57.64-.45-.55Zm9.38-5.04-.14-.52.4.04Zm-4.4-3.08-.07.7-.57-.37Zm2.1,1.03-.17.58-.46-.35Zm-.14-.62-.5.05.25-.48Zm-1.43,1.25-.15-.5.4.04Zm2.28-5.48-.54.35-.03-.6Zm3-.8-.48-.26.52-.14Zm-2.03,4,.45-.45.23.63Zm-3.25,1.38.44-.36.13.62Zm1.3-4.78-1.3-1.04,1.38-.66Zm4.53-4.86-1.77-.4.94-1.2Zm-.2.9-1.7.72.07-1.6Z" fill="#753837"/>
      <path id="Path_14513" data-name="Path 14513" d="M197.07,115.44l-1.38-.25.72-1.13Zm-2.2-1.14.22,1.73-1.47-.35Zm-1.48,4.57-1.23-.74,1-.8Zm-1.88-3.22.32,2.65-2.26-.54Z" fill="#753837"/>
      <path id="Path_14514" data-name="Path 14514" d="M193.25,113.52l.5,2.77-2.33-.75Z" fill="#753837"/>
      <path id="Path_14515" data-name="Path 14515" d="M195.16,111.62l.5,2.76-2.44-.66Zm-.6,8.58-.14-.52.5.05Zm1.2-.98-.13-.62.5.06Zm1.3-1.87-.7-.18.26-.57Zm-1.23-.75-.93-.7.96-.5Zm-2.66,4.26.54-.35.04.5Zm-3.48,13.8.25.53-.5.04Zm-3.76.4.44.55-.6.04Zm5.1-8.3-.2-.93.8.08Zm-3.82,1,.56.36-.53.24Zm1.48,5.08-.42.16-.05-.5Zm-1.97-3.32.34-.37.06.4Zm2.1.12-.35.46-.27-.33Zm-4,1.7.34.54-.52.14Zm.57-6.48.45.55-.5.05Zm2.96-.3.68-.73.32.74Z" fill="#753837"/>
      <path id="Path_14516" data-name="Path 14516" d="M190.5,124.3l.57-.64.42.75Zm-2.27,3.37-.2-.82.8.08Zm-1.25-1.44.47.26-.23.27Zm3.15-.37-.45-.45.72-.22Zm.47.36.24-.38.25.43Zm2.47,1.36.27-.67.55.46Zm-1.4,2.67.6-.03-.26.47Zm-1.58-4.1.05.5-.5-.15Zm1.3,1.14-.18.7-.37-.24Zm-.6-5.9-1.38-.35.82-1.02Zm.77-.6-.52-.76.94-.3Zm3.55-3.06-.33.27-.05-.5Zm1.78-.8-.18-.22.2-.08Zm-.8,2.93.05-.5.37.34Zm7.4-10.08-1.07.6-.1-.9Zm-.43,1.26-.96.5-.2-1.03Zm-3.67-.4.28,1.14-1.18-.23Zm-1.82.92.55,2.37-2.05-.52Z" fill="#753837"/>
      <path id="Path_14517" data-name="Path 14517" d="M200.87,109.9l.46,2.36-2.06-.52ZM211,105.35l-.75-.48.55-.45Zm2.25-4.1-1.34.36.33-1.27Zm-.62,4.97-.86-.5.66-.53Zm-3.3-.25-.67.63-.2-.83Zm6.8-4.4-.38.66-.24-.53Zm-.34-1.55-.5.96-.6-.87Zm-4.53,8.58.35.44-.4.15Z" fill="#753837"/>
      <path id="Path_14518" data-name="Path 14518" d="M211.55,105.9l.5-.05-.14.4Zm-2.65,2.14-.4.16.03-.3Zm-.27.78.6.06-.25.48Zm1.17-2.4.5.05-.14.4Zm2.14-1.28-1.1-.22.57-.64Zm-2.9-.1-.2-.93.78.2Zm1.57-.54v-.9l.77.38Zm2.33-1.16-.78.72-.2-.92Z" fill="#753837"/>
      <path id="Path_14519" data-name="Path 14519" d="M209.94,104.03l-.62-1.68,1.5.06Zm3.42-1.85-.58,1.65-1.1-1.12Z" fill="#753837"/>
      <path id="Path_14520" data-name="Path 14520" d="M210.12,106.16l-1.2-1.03,1.26-.47Zm-.37-5.06-.75,2.34-1.46-1.36Zm2.4-.76-.9,2.02-1.26-1.44Zm2.34-.24-.96,1.5-.97-1.3Zm-3.4,5.66.05-.5.48.25Zm1.23-.36.08-.7.36.34Zm1-.9-.6-.97,1.13-.18Zm.9-2.73.4-.16-.05.5Z" fill="#753837"/>
      <path id="Path_14521" data-name="Path 14521" d="M210.68,105.62l-1.23-.74,1.1-.8Zm-2.44-.66-.4-1.05h1Z" fill="#753837"/>
      <path id="Path_14522" data-name="Path 14522" d="M208.52,104.18l-.8-.08.47-.66Zm-.72,1.22-.95.4.2-.88Z" fill="#753837"/>
      <path id="Path_14523" data-name="Path 14523" d="M207.94,104.92l-.82-.8.83-.3Zm-1.64,1.14-.63.23.06-.6Zm3,.22-.24-.53.5.05Zm-2.87,3.42.34-.36.15.4Zm1.15-1.4.6.17-.46.45Zm-2.78-1.4-.17.68-.28-.23Zm4-1.68-.5-.06.15-.38Zm.34.74-1.16.48.2-1.1Z" fill="#753837"/>
      <path id="Path_14524" data-name="Path 14524" d="M208.42,107l-1.13.28.1-1Zm-1.85-1.52-.25,2.4-1.7-1Zm-8.94,3.68.26,2.34-1.95-.6Zm-8.58,11.76h-1l.4-.87Z" fill="#753837"/>
      <path id="Path_14525" data-name="Path 14525" d="M189.5,117.65l.5,2.77-2.35-.55ZM184.58,128l-.86-.5.66-.53Zm5.1-6.4-.87-.3.47-.65Zm-2.28-1.35.26,1.33-1.18-.22Zm1.48.35-.78.73-.3-.94Zm-1.74,5.95-.6-.06.24-.38Zm-.9,1-.6-.06.26-.48Zm-2.53,2.04.05-.5.5.15Zm1-.9-.14-.52.5.05Zm.3-5.6,1.18-1.6.72,1.7Zm3.94-.18-1.6.84-.05-1.4Z" fill="#753837"/>
      <path id="Path_14526" data-name="Path 14526" d="M188.97,123.53l-.74.32v-.9Zm.03-1.2-.82-.8.85-.4Zm1.25.53.7.07-.46.46Zm-2.92-.9.15.52-.5-.06Zm3.77-2.42-.5.15-.05-.5Zm-5.3,3.47.86,1.4-1.54.24Zm-.75,6.25-.24-.63.6.06Zm-.63-2.58-.16-.42.6-.04Z" fill="#753837"/>
      <path id="Path_14527" data-name="Path 14527" d="M191.44,123l-.14-.52.5-.05Zm-4.96,3.18-.9.01.3-.78Zm-1.25-.53-.75-.58.76-.53Zm-1.9,2.6.63-.23-.05.5Zm1.46-.36.53-.24.04.5Zm4.7-3.7-1.05.4v-1Zm-2.9-.12.17,1.23-.97-.3ZM175.58,136l.18,1.22-1.07-.4Zm14.62-11.84-.4-.04.24-.38Zm-.65-.36-.8-.18.36-.57Zm2.28-6.4.06,2.32-1.83-.8Zm-14.5,18.37-.77-.38.66-.54Zm2.03-2.1-.9.01.38-.67Zm9.15-8.57-.48.75-.44-.55Zm1.5.05-.6.03.15-.48Zm-9.25,7.65-1.05-.5.77-.62Z" fill="#753837"/>
      <path id="Path_14528" data-name="Path 14528" d="M186.03,127.54l-.24-.53.6-.03Zm1.07-1.4-.25-.53.5-.05Zm2.1-1.1-.73.23.1-.8Zm-2.73,1.22-.25-.53.5-.04Zm-1.7-1.98.4-.86.53.66Zm2.87.4-.96-.4.78-.72Zm-13.67,14.23.4-.86.62.77Zm9.8-9.1-.4-.85.8-.02Z" fill="#753837"/>
      <path id="Path_14529" data-name="Path 14529" d="M184.58,128l-.4.96-.54-.56Zm-1.94,2.1-1.4-1.05,1.27-.67Zm-5.74,5.93-1.77-.4.83-1.22Zm9.64-8.53-1.48-.26.7-1.03Zm2.9,5.73.18-.68.45.45Zm-4.63,5.75.16-.6.38.24Zm-.6-5.7-.92.1.28-.78Zm-.98-1.2h-1l.4-.77Zm-4.62,7.56-1-.01.28-.67Zm7.72-6.43-.14-.62.5.15Zm-5.56,9.77.24.53-.5.05Zm1.34-7.9-.3-.94.8.2Zm-3.82,1,.46.45-.42.16Zm1.35,5.18-.42.15.07-.6Zm-1.95-3.43.54-.34-.04.4Zm2.1.12-.25.48-.27-.33Z" fill="#753837"/>
      <path id="Path_14530" data-name="Path 14530" d="M179.2,135.97l-.22-.83.8.1Zm1.42.85-.2-.92.8.08Zm.48-2.66-.36-.44.62-.14Zm.47.34.35-.46.25.52Zm-.44-1.54.46-.46.24.53Zm3.1,2.94.18-.7.45.45Zm-1.5,2.66.5-.05-.15.5Zm-1.57-4.1.04.5-.48-.16Zm1.28,1.13-.17.7-.37-.34Zm-5.16.27-.6-.06.25-.48Z" fill="#753837"/>
      <path id="Path_14531" data-name="Path 14531" d="M177.1,135.85l-.25-.53.5-.05Z" fill="#753837"/>
      <path id="Path_14532" data-name="Path 14532" d="M177.52,135.8l-1.5-.26.72-1.03Zm6.78-9.04.32,1.64-1.47-.36Zm-1.37,4.48-1.23-.74,1.1-.8Zm-1.77-3.3.53,2.67-2.46-.56Z" fill="#753837"/>
      <path id="Path_14533" data-name="Path 14533" d="M182.9,125.8l.5,2.77-2.35-.65Z" fill="#753837"/>
      <path id="Path_14534" data-name="Path 14534" d="M184.3,123.94l.63,2.58-2.38-.25Zm1,4.83-.73-.68.75-.42Zm-7.82,3.6.56,2.27-2-.2Zm1.86-2.42.7,2.8-2.46-.46Zm2.26-.35.04,2.5-1.92-.9Zm-12.54,21.48-.9.01.3-.78Zm1.52-3.96-1,.1.27-.68Zm1.66-2.34-.9.01.28-.68Zm4.7-3.62-.5.85-.53-.66Zm1.45-1.46-.6.84-.44-.65Zm3.4.17.35.54-.5.04Zm-2.93,5,.35.44-.42.16Zm.78-7.36.46.36-.43.25Zm1.78,5.02-.52.15.05-.5Zm-2.37-3.27.54-.34.05.4Zm2.22-.07-.26.57-.28-.23Zm-3.85,2.1.35.54-.42.16Zm1.8-5.43.46.35-.23.28Z" fill="#753837"/>
      <path id="Path_14535" data-name="Path 14535" d="M176.88,138.04l-.87-.4.67-.63Zm2.58-1.64-.6-.06.24-.38Zm-1,1-.5-.05.25-.38Zm-2.15,2.28-.15-.5.5.05Zm.8-1.02-.04-.6.4.14Zm.37.44-.15-.5.5-.05Zm-.77-2.4-.23-.63.6.07Zm2-.68h-.9l.28-.67Z" fill="#753837"/>
      <path id="Path_14536" data-name="Path 14536" d="M175.84,138.33l.54-.35.05.5Zm1.36-.46.42-.26.16.42Zm-8.56,8.63.16,1.33-1.06-.42Zm1.73-.2-.96-.4.56-.54Zm1.85-2.32-.9.1.18-.78Zm1.2-.98-1.06-.4.77-.63Zm4.93-5.7-.25-.43.5-.05Zm1.04-1.3-.35-.54.5-.05Z" fill="#753837"/>
      <path id="Path_14537" data-name="Path 14537" d="M178.7,136.12l-.25-.53.5-.05Zm-11.5,13.46.3-.87.52.76Zm9.08-9.7-.4-.85.8-.1Zm.6-1.84-.3.87-.65-.47Zm-1.74,2.12-1.52-.86,1.3-.87Zm-5.2,6.3-1.9-.2.75-1.33Zm8.92-9.2-1.6.03.63-1.24Zm3.33,5.48.06-.6.47.35Zm-5.67,4.23.07-.6.45.45Zm.5-3.77-1.02.2.28-.77Zm-1.08-1.12-1.02.1.37-.66Zm-4.15,7.9-1.03.2.3-.78Zm7.26-6.87-.25-.53.5-.04Zm-4.14,1.97-.2-.83.7.08Zm-3.67,1.43.48.25-.33.27Zm-3.85,7.02-.52.15.05-.4Z" fill="#753837"/>
      <path id="Path_14538" data-name="Path 14538" d="M170.77,148.25l.44-.36.15.42Zm2.13-.08-.26.48-.28-.13Zm-.72-1.87-.2-.83.7.07Zm1.52.75-.3-.94.8.1Zm.3-2.68-.45-.45.63-.24Zm.36.33.35-.47.27.33Zm-.44-1.55.25-.47.37.34Zm1.53,2.68.08-.8.56.46Zm-1.3,2.67.5-.05-.16.5Zm-1.9-4,.15.5-.6-.06Zm3.1,1.22-.08.7-.46-.35Zm-5.2.55-.5.05.15-.48Z" fill="#753837"/>
      <path id="Path_14539" data-name="Path 14539" d="M170.07,146.26l-.26-.42.5-.05Z" fill="#753837"/>
      <path id="Path_14540" data-name="Path 14540" d="M170.48,146.2l-1.5-.16.62-1.14Zm6.15-9.6.32,1.64-1.4-.14Zm-1.1,4.7-1.23-.73,1-.8Zm-2.08-3.13.73,2.6-2.37-.36Z" fill="#753837"/>
      <path id="Path_14541" data-name="Path 14541" d="M175.1,135.84l.72,2.7-2.47-.47Zm2.62,2.8-.76-.48.66-.54Zm-7.58,4.12.76,2.3-1.98-.22Zm1.76-2.43.82,2.7-2.38-.36Zm2.08-.58.34,2.45-1.94-.6Z" fill="#753837"/>
    </g>
    <g id="Group_980" data-name="Group 980">
      <path id="Path_14542" data-name="Path 14542" d="M341.88,209.54l1.1-.7-1-.67Zm-11.28.01-1.07-.58-.15,1.4Zm1.1,2.25-.3-1.82-2.47,1.22Z" fill="#da7f57"/>
      <path id="Path_14543" data-name="Path 14543" d="M329.03,211.2,328,209.48l-.92,1.26Zm6.45.86.9.01-.4-.9Zm-3.92-2.26h.9l-.4-.9Zm-3.93-1h.9l-.4-.9Zm10.9,3.84-.7.5.66.4Zm.3-.94-.6.6.76.45Zm-1.06-2.22-.6.6.9.4Zm-2.76-.08-.6.6.88.4Zm-2.18,1.17-.6.6.88.4Zm-2.54-2.4-.6.6.9.4Zm9.55,1.93-.7.4.6.6Zm.15,1.3-.9-.1.2.9Zm1.57-1.6-1.04-.37-.25,1.46Zm-3.64,3.8-.47-1.93-2.08,1.24Zm-3.05-.84-.01-1.48-2.5.75Z" fill="#da7f57"/>
    </g>
  </g>
</svg>
