<svg xmlns="http://www.w3.org/2000/svg" width="189.541" height="168.517" viewBox="0 0 189.541 168.517">
  <g id="_55" data-name="55" transform="translate(-155.904 -97.127)">
    <g id="Group_1129" data-name="Group 1129">
      <path id="Path_16481" data-name="Path 16481" d="M246.13,207.56H262.9c-1.27-27.62-3.1-65.73-7.64-82.4-3.1-11.2-10.9-19-17.4-22.4a3.393,3.393,0,0,1,.43.07,26.877,26.877,0,0,0-9.95-3.12c14.4,4.73,19.2,25,18.43,50.55-.5,14.58-.07,37.9-.64,57.3h0Zm40.63-1.3a385.343,385.343,0,0,0,37.7,11.1,23.125,23.125,0,0,0,13.4,3.9c.6.1,1.3-.7,2.1-1.4.5-.4-.2-1.3.1-1.9.2-.4.75-.32,1.6-.4a1.454,1.454,0,0,0,.9-2c-1.6-1.9.92-1.55,1.12-2.45.2-1.1.13-1.98-.62-2.25a38.021,38.021,0,0,0-5-2.3c-1-.2,3.3-.32,4.9-.62,1.8-.3,3.23-2,.13-2.3s-7.14-1.38-8.04-1.38-4.1-.3-6.2.3c-1.5.4-3.1,1.5-6.4.3-5.2-2.1-22.4-12.8-30.7-18.1-4.2-2.2-18.4,14.7-5,19.5h.01Z" fill="#fff"/>
      <path id="Path_16482" data-name="Path 16482" d="M163.86,208.66a381.738,381.738,0,0,0,1.1,39.3,22.06,22.06,0,0,0,.6,14c.1.6,1,1,2,1.6a5.273,5.273,0,0,0,1.5,1.1c.4.1.6-.3,1.1-.1a4.558,4.558,0,0,0,2.3.5c2-.6,1.8,0,2.8-.1,1.1-.1,1.7-1,1.6-1.2a37.475,37.475,0,0,0,.6-5.4c-.1-1,1.3,1.3,2,2.9.9,1.7,2.8,2.6,2.1-.5-.7-3-.9-5.6-1.1-6.4a21.679,21.679,0,0,0-2.2-5.8c-.8-1.2-2.4-2.5-2.2-6,.5-5.7,5.2-25.2,7.6-34.8,1.2-5.1-19.3-13.5-19.8.9h0Zm166.86,5.54a5.826,5.826,0,0,0,4.4-1.85,12.259,12.259,0,0,0,2.55-4.02" fill="#fff"/>
    </g>
    <path id="Path_16483" data-name="Path 16483" d="M245.7,208.6l5.35-.03,11.38-.18.06-1.5h-.78c-1.18-.01-2.26-.01-2.97.02l-.12-.1-4.38.03,1.64.02c-.57.3-3.3-.2-6.5.01-1.22-.02-2.45.1-3.7.2v1.54h.02Z"/>
    <g id="Group_1130" data-name="Group 1130">
      <path id="Path_16484" data-name="Path 16484" d="M336.46,210.86c-.4,1.2,1,2.1,3,2.6,1.9.6,3.5.9,4-.5.5-1.5-1-2.1-3-2.6C338.46,209.76,337.06,209.36,336.46,210.86Z" fill="#fff"/>
      <path id="Path_16485" data-name="Path 16485" d="M335.46,214.16c-.4,1.2,1,2.1,3,2.6,1.9.6,3.5.9,4-.5.5-1.5-1-2.1-3-2.6C337.56,213.06,335.96,212.66,335.46,214.16Z" fill="#fff"/>
      <path id="Path_16486" data-name="Path 16486" d="M334.26,217.36c-.3,1,.9,1.7,2.5,2.3,1.6.5,3,.7,3.4-.5.4-1.3-.9-1.7-2.5-2.3C336.06,216.36,334.76,216.06,334.26,217.36Z" fill="#fff"/>
    </g>
    <path id="Path_16487" data-name="Path 16487" d="M345.3,206.1a1.613,1.613,0,0,0-.25-.35l-.38-.28a3.964,3.964,0,0,0-.74-.3,11.217,11.217,0,0,0-1.4-.2l-1.3-.2-2.66-.48-2.7-.5a5.223,5.223,0,0,0-.76-.08h-.67l-1.37-.03a21.474,21.474,0,0,0-2.77.12,10.888,10.888,0,0,0-2.7.66,6.173,6.173,0,0,1-2.4.44,6.885,6.885,0,0,1-2.3-.47l-.23-.17c-.06-.15-1.7-.54-1.86-.78l-.7-.3c-.18-.12-.57-.35-.22-.2l-1.12-.53-.63-.43c-8.14-5.1-7.03-2.8-5.82-2.17l.01.1c1.6.78,2.88,1.77,3.98,2.25,1.65.83.97.8,2.75,1.58l.62.44c.74.38.6.15,1.4.6-.08.04,1.07.53.54.36a7.489,7.489,0,0,0,3.3.83,7.776,7.776,0,0,0,1.9-.2l1.9-.54a9.367,9.367,0,0,1,2.2-.53c.07.01,2.67-.05,1.17.08-.13.01-.35.02-.34-.01l-.18.08c.75.05,1.43.04,2.13.03h1.54c.16.01.34.05.52.08l-.6-.1c-.1-.02-.15-.03,0-.04.42.05.9.15,1.35.24h-.3l2.07.46-.27-.13a12.776,12.776,0,0,0,2.53.55c.54.03-.96-.27.13-.1l2.46.43a2.718,2.718,0,0,1,.9.25c.08.06.05.15-.03.2.05.01.05.04.01.1a2.136,2.136,0,0,1-.4.28l-.07-.05a1.78,1.78,0,0,1-1.06.25,4.068,4.068,0,0,0-1.23.1l.16-.07a3.571,3.571,0,0,1-.52.2l-2.3.2a2.622,2.622,0,0,0-.73.1.333.333,0,0,0-.06.03c-.01,0-.02-.01-.03-.02a.51.51,0,0,0-.63.32,11.373,11.373,0,0,1-2.44,3.83,5.479,5.479,0,0,1-4,1.7.511.511,0,0,0-.54.46.531.531,0,0,0,.46.54c.02,0,.1.01.22.01a6.389,6.389,0,0,0,4.58-2l.58-.67c.01.02.02.05.03.07a2.739,2.739,0,0,0,.46.57,1.864,1.864,0,0,0-1.6,1.35h0a1.667,1.667,0,0,0,.12,1.38,1.86,1.86,0,0,0,.46.56,1.8,1.8,0,0,0-1.77,1.24v.04c-.5,1.67,1.8,2.54,2.83,2.92a8.028,8.028,0,0,0,1.7.38c-.02.03-.02.05.03.04a.87.87,0,0,1-.38.2h-.11c-2.03.1-3.6-.4-4.4-.22a9.108,9.108,0,0,1-1.8-.5l.26.04a20.147,20.147,0,0,1-3.92-1.34,8.936,8.936,0,0,1-2.06-.87c.4.16-.08-.1-.5-.36.28.16.38.2-.16-.2a1.484,1.484,0,0,1-.33-.17c0-.01-.02-.02-.01-.02l-.27-.18-.4-.08h-.08a2.81,2.81,0,0,0,.35.1c-.02,0-.01.01.1.05a.269.269,0,0,0,.08.07c-.03-.02-.05-.04-.08-.06l-.8-.22-.78-.2a2.9,2.9,0,0,1-.93-.3l-6.45-1.47c-.22-.12.28-.04.9.1l-1.5-.37a6.363,6.363,0,0,1,1.32.3c-1.73-.6-3.67-.85-5.7-1.54l-.44-.06-.12-.04a2.964,2.964,0,0,1-.8-.13c-.27-.15.06-.15-.96-.44-.8-.3-2.3-.62-3.36-.9.56.18.37.16.12.1l-1.18-.4,2.74-7.97c-.23.25.04-.58.28-1.44l.15-.06c.86-3.32.64-1.12,1.53-4.4v-.62c.7-3,.75-1.5,1.45-4.85-.2.65-.3.78-.3.55a3.191,3.191,0,0,1,.1-.6,4.508,4.508,0,0,0,.1-1.34,3.044,3.044,0,0,1,.13.54,3.483,3.483,0,0,0-.22-1.33,4.1,4.1,0,0,0-.5-.94c.24.28.3.36.23.14a2.252,2.252,0,0,0-.33-.5l-.36-.36-.24-.18-.2-.14.2.1.28.16a2.989,2.989,0,0,1,.52.42,3.43,3.43,0,0,0-.72-.6l-.57-.33-1.12-.63c-1.57-1.22-4.27-2.8-4.85-3.38l-4.4-2.78c.77.37-1.14-.95-.52-.7a34.171,34.171,0,0,1-4.7-3.06l.2.13-5.26-3.66a40.727,40.727,0,0,1-4.73-3.65c.03.12-.38-.2-.73-.48-.34-.3-.65-.55-.52-.3l-.6-.52-.47-.54a9.853,9.853,0,0,1-.83-1.2l-.74-1.2-.6-1.14a16.387,16.387,0,0,0-1.96-3.2,30.757,30.757,0,0,1-1.3-3.17l.23.42-2.95-7.08a27.452,27.452,0,0,1-1.72-3.78c.4.72,0-.23-.33-1.1.23.56.33.72-.04-.46a3.319,3.319,0,0,1-.3-.63c0-.01-.01-.06.01-.04-.6-1.46-.53-1.2-.28-.5-.03-.03-.02.04.03.26l-1.56-4.5c-1.8-4.4-3.28-7.46-5.04-11-.1-.44.36.36.88,1.38l-1.22-2.53a13.3,13.3,0,0,1,1.15,2.2c-1.2-3.14-3.2-6.12-4.95-9.63-.16-.22-.32-.44-.5-.65l-.1-.2a.4.4,0,0,1-.04-.03,12.056,12.056,0,0,0-.5-1.25,35.654,35.654,0,0,0-1.96-3.78,28.826,28.826,0,0,0-12.1-11.42,5.483,5.483,0,0,0-1.15-.5c-.72-.36-1.48-.66-2.24-.95a12.781,12.781,0,0,0-2.48-.66l-3.85-.5a19.33,19.33,0,0,0-4.6-2.54,21.66,21.66,0,0,0-6.78-1.42l-.97-.04c-.33-.01-.73.02-1.1.04a12.675,12.675,0,0,0-2.24.5,14.573,14.573,0,0,0-1.42.58,24.189,24.189,0,0,0-4.9,1.15l-1.47.54c-.47.2-.92.4-1.37.62-.9.4-1.75.9-2.6,1.38a9.2,9.2,0,0,0-2.5,1.2c-1.1.62-2.2,1.44-2.8,1.76l.1-.1c-2.78,2.14-5.87,4.26-8.1,6.8a2.408,2.408,0,0,1,.62-.76c-.88.87-1.85,1.95-2.65,2.8a9.393,9.393,0,0,1-1.5,1.54,96.218,96.218,0,0,0-5.84,7.7q-1.262,1.894-2.46,3.83c-.6,1-1.17,2.04-1.72,3.08l.1-.24c-.9,1.93-1.37,2.4-2.45,4.5-.08.1-.17.25-.17.22-.97,2.1-3.15,5.97-3.9,7.7l-.15.06-1.98,4.16.76-1.54c.01.67-1.67,3.06-2.84,6.2-1.3,2.85-1.9,6.08-3.13,9.07-.38,1.5.23-1.36-.43.85-.18.02.26-1.05-.05-.53-.68,2.17-1.38,3.47-2.08,6.2l-.15.07c-.82,3.57-2,6.62-2.3,9.05-.73,3.7-.9,2.4-1.45,6.3l-.45,1.47c-.34,1.65-.02,1.22-.4,3.04-.1-.13-.48,2.3-.4,1.22-.84,4.13-1.1,8.5-1.78,14.04.1,1.22-.17,4-.04,4.92-.12.14-.18,5.6-.3,2.46-.01-.27,0-.75.04-.7l-.1-.38a77.71,77.71,0,0,0,.01,8.9c.03-.93.01-2.17.1-1.34l.03,2.92-.12-.6.08,4.35.1-.6a30.008,30.008,0,0,0,.2,5.28c.2,1.08.01-2.03.23.2l.15,2.38c.03.43.08.88.13,1.34q.035.352.1.7a5.027,5.027,0,0,0,.16.82,3.266,3.266,0,0,0,1.2,1.7,3.921,3.921,0,0,0,.96.48,1.911,1.911,0,0,0,.53.1,3.715,3.715,0,0,0,.47.03l2.8.03c-.14-.06-.05-.1.17-.1.06,1.72.14,3.44.26,5.15l.27,4.1.33,3.93c-.01.05-.03.1-.04.14a25.508,25.508,0,0,0-.7,5.2l-.08.6c.02.54.08,1.17.05,1.72l-.02-.03c.1.8.18,1.7.28,2.1l-.03-.03c.05.32.1.65.18.97l-.06-.16a34.662,34.662,0,0,0,1.15,3.8l-.04-.14a.964.964,0,0,0,.1.3,1.488,1.488,0,0,1,.02-.21,1.855,1.855,0,0,0,.8,1.03,8.08,8.08,0,0,0,.73.46c.22.12.42.24.62.35a2.18,2.18,0,0,1,.43.34c.17.14.34.3.55.45a2.245,2.245,0,0,0,.85.4c.37.1.92-.2.9-.14.03,0,0-.01.1.04l.4.16-.04.01a4.735,4.735,0,0,0,2.14.33c.37-.1.56-.15.82-.2a2.1,2.1,0,0,1,.66-.05c.18.01.35.1.74.18a2.752,2.752,0,0,0,1.07-.05,2.69,2.69,0,0,0,1-.5,1.964,1.964,0,0,0,.42-.44,2.164,2.164,0,0,0,.18-.3.9.9,0,0,0,.08-.23.785.785,0,0,0,.01-.28l.07-.85c-.03.4.07-.16.08-.12l.24-2.02.02-.33a.414.414,0,0,0-.02-.14.524.524,0,0,0-.08-.2c.05-.5.07-.3.13-.23a1.477,1.477,0,0,1-.07-.42c.12-.08.23.15.34.3l-.1-.08a3.956,3.956,0,0,1,.28.43l.16.28.26.5-.08-.47c.26.56.25.65.25.72a.454.454,0,0,0,.03.17,2.431,2.431,0,0,0,.3.55l.1-.08a4.061,4.061,0,0,0,.84,1,1.4,1.4,0,0,0,1.32.4,1.274,1.274,0,0,0,.67-1.25,5.512,5.512,0,0,0-.08-1.3c-.38-1.67-.65-3.38-.9-5.14a12.057,12.057,0,0,0-.25-1.37c-.1-.44-.24-.87-.37-1.3a23.517,23.517,0,0,0-.92-2.55,10.542,10.542,0,0,0-1.35-2.4,8.94,8.94,0,0,1-1.33-2.07,7.921,7.921,0,0,1-.2-4.65l.13-.27c.14-.1.1-1.77.26-2l.07-.74c.06-.2.17-.63.13-.26a8.959,8.959,0,0,0,.17-1.2l.22-.7.3-1.5c.4-.02.7-.03,1.1-.02-.6.07-.32.18,1.2.15l-1,.15,2.85-.23a3.285,3.285,0,0,0,.46.01,3.578,3.578,0,0,0,.64-.07,2.888,2.888,0,0,0,.97-.43l-.62,10.75a5.532,5.532,0,0,0,.6,3.32,3.471,3.471,0,0,0,1.3,1.34,2.841,2.841,0,0,0,.95.34c.16.02.35.03.48.04l.36.01,5.65.2.65.16c.28.22,4.1-.23,4.65-.02l1.72-.06c.48.05,1.5.1.65.14,1.6.04,1.63.01,2.78-.03l1.7.17c3.14.12,6.05.14,9,.16l4.5.03a38.733,38.733,0,0,0,4.85-.2,33.175,33.175,0,0,0,7.12-1.36,25.821,25.821,0,0,0,7.84-3.88,15.652,15.652,0,0,0,5.4-7.2,4.38,4.38,0,0,0,.3-1.02l.24-1c.15-.66.33-1.3.43-1.93l.54-3.5c.68-6.07,1.17-12.6,1.55-19.2s.6-13.22.47-19.42a8.34,8.34,0,0,0,0-.87,3.374,3.374,0,0,0-.05-.57l.08-11.35-.04-22.27c-.03-4.26-.08-7.22-.35-6.5a10.125,10.125,0,0,0-.3,1.92l.06-1.92q.137-4.079.05-8.16l.42,7.37c.15,2.1.3,1.95.46.82s.3-3.26.35-5.1l.05-3.4a83.219,83.219,0,0,0-1.37-15.94,66.86,66.86,0,0,0-1.95-7.8,41.734,41.734,0,0,0-4-9.08,25.469,25.469,0,0,0-5.03-6.28l1.7.9a28.973,28.973,0,0,1,3.95,2.56l.4.3c.26.2.62.48,1.06.87a36.4,36.4,0,0,1,3.34,3.23,40.21,40.21,0,0,1,6.54,9.78c1.5,3.18,2.2,5.56,2.3,4.9a5.57,5.57,0,0,0-.12-1.07c-.02-.14-.05-.3-.08-.47.16.5.32.97.45,1.47.58,2.13,1.1,4.6,1.6,7.38l-.62-2.62c-.56-1.88-.97-3.16-1.27-4-.6-1.65-.76-1.48-.62-.53.1.95.4,2.68.7,4.17.16.74.23,1.45.32,1.95l.13.83.55,3.6.44,3.3.45,3.1.4,3.08.84,6.58.85,8.1,1.44,24.96.9,16.34c.33,2.48.32,6.9.64,9.83l-.07,1.15c.1,1,.2,2.2.2,3.23l-.04-.06c.16,1.5.2,3.23.27,3.98l-.04-.06.1,1.84-.07-.3c.22,2.64.4,5.37.48,7.78l.13-.2q.047,1.677.18,3.35l.1,1.4.2,1.34a21.5,21.5,0,0,0,1.65,5.7l-.06-.04a14.87,14.87,0,0,0,5.64,5.8,10.17,10.17,0,0,0,3.74,1.28,7.826,7.826,0,0,0,1.1.07l1-.02,2.16-.1c-.75.04.28.08.38.1a2.568,2.568,0,0,0,1.57-.86,2.514,2.514,0,0,0,.57-1.63,5.671,5.671,0,0,0-.08-.63c-.03-.16-.06-.32-.08-.47-.06-.3-.1-.6-.16-.87-.2-1.08-.4-1.8-.54-1.8-.3-2-.16-1.65-.1-1.93a16.468,16.468,0,0,1-.7-3.27l.16.7-.73-4.48-.1.92c-.3-2.4.2-.65-.22-2.92l-.2.06c-.47-3.3-.48-5.28-.83-8.5l-2.26-13.9c2.18.7,4.52,1.46,7.12,2.53,1.08.16,3.4,1.08,4.2,1.2.1.13,4.73,1.6,2,.9a2.228,2.228,0,0,1-.6-.22h-.36c2.6,1.12,4.9,1.5,7.57,2.38-.78-.3-1.83-.6-1.1-.47l2.48.8-.55-.06,3.68,1.18-.47-.27.68.23a2.31,2.31,0,0,0,.94.1,2.57,2.57,0,0,0,1.59-.7,2.62,2.62,0,0,0,.52-.67,4.186,4.186,0,0,0,.2-.42l.1-.3c.1-.37.23-.8.34-1.32.2-.95-.7,1.66-.14-.26.01-.03.03-.07.04-.1l.76.22c5.54,1.66,6.98,2.23,12.8,3.7l3.56.9,3.42.8.5.33.6.36a27.781,27.781,0,0,0,4.96,2.07l.58.25c.54.13,1.18.25,1.72.4h-.04c.42.05.85.13,1.23.2.4.05.72.1.93.1h-.04c.33.05.67.06,1,.08h-.18c.82.04,1.65.02,2.45.01l-.13-.01a1.783,1.783,0,0,0,1.3-.4,6.693,6.693,0,0,0,.73-.6l-.14.01.7-.6a1.238,1.238,0,0,0,.4-1.15,2.753,2.753,0,0,1-.06-.93c.02-.01.03-.04.06-.04a3.4,3.4,0,0,1,.44-.04,3.112,3.112,0,0,0,.78-.1,2.137,2.137,0,0,0,1.3-1.45v.05a2.155,2.155,0,0,0,.04-.72,1.376,1.376,0,0,0-.3-.74c-.02-.03-.03-.04-.05-.07a1.724,1.724,0,0,0-.1-.24,1.656,1.656,0,0,0-.22-.3.689.689,0,0,1,.04-.1c.06-.06.1-.07.34-.18a4.109,4.109,0,0,0,.77-.38,1.375,1.375,0,0,0,.4-.46,1.5,1.5,0,0,0,.15-.52,5.311,5.311,0,0,0,.08-.83,2.324,2.324,0,0,0-.2-1,1.555,1.555,0,0,0-.94-.85l.07.03c-.33-.14-.67-.3-1.06-.47.37.16-.13-.12-.1-.12l-1-.48a2.392,2.392,0,0,0-.37-.15,2.758,2.758,0,0,0-.66-.13c-.5-.2-.22-.12-.03-.12-.08-.01-.15-.03-.23-.04-.14-.02-.1-.07-.05-.07a2.463,2.463,0,0,1,.46-.08l-.1.04,1.25-.13c-.18-.03-.32-.07-.44-.1,1.2-.07.3.16,1.53-.02l-.03-.1a4.209,4.209,0,0,0,2.37-.82,1.447,1.447,0,0,0,.4-1.54l-.04.2ZM176.4,237.3l-.24.7c-.15.8.02.6-.18,1.46-.06-.07-.23,1.1-.2.58a14.41,14.41,0,0,0-.34,3.2,8.859,8.859,0,0,0,.92,3.76c.4.5,1.22,1.6,1.5,1.86.05.03,1.15,2.25.43,1.02-.06-.1-.16-.3-.13-.3l-.15-.1a32.324,32.324,0,0,1,1.5,3.78c-.1-.42-.28-.97-.1-.62q.2.651.36,1.31l-.13-.26a10.692,10.692,0,0,1,.36,1.94l.04-.3a12.133,12.133,0,0,0,.3,2.5c.14.5-.05-.97.14.1q.15,1.2.36,2.4a11.591,11.591,0,0,1,.2,1.26c.02.26.01.22,0,.27-.01.03-.03.07-.06.08.1.08-.02.15-.14.1l.01-.08a1.445,1.445,0,0,1-.4-.36.794.794,0,0,1-.13-.26c-.02-.07-.05-.14-.1-.27-.02-.03-.04-.07-.06-.1s-.02-.03-.01-.02a1.037,1.037,0,0,1-.04-.1c-.06-.14-.15-.3-.26-.5l-.24-.25c-.2-.3-.5-.84-.64-1.08l-.37-.64a1.241,1.241,0,0,0-1.2-.8c.33,0,.36.13.3.13-.04.01-.1-.01-.25-.01-.2.06-.13.18-.2.3l.02-.2a3.706,3.706,0,0,0-.28.9c-.01-.3.01-.32-.05-.26a11.648,11.648,0,0,0-.08,1.2l-.04-1.02a12.163,12.163,0,0,1-.02,1.35l-.04.84c-.2.92-.34,2.37-.48,2.95l.54.12a.823.823,0,0,1-.48-.06.2.2,0,0,0-.06-.02.308.308,0,0,1-.1.1,1.524,1.524,0,0,1-.44.34,1.737,1.737,0,0,1-.63.17,2.363,2.363,0,0,1-.47-.01c.2.02.07-.04-.2-.13s-.58-.12-.33-.14a6.122,6.122,0,0,0-1.68.33,1.277,1.277,0,0,1-.28.07c-.08,0-.18-.01-.28-.02a1.9,1.9,0,0,1-.54-.18l.1.03-.83-.32-.23-.08a1.183,1.183,0,0,0-.4-.08,1.8,1.8,0,0,0-.72.14c-.02.01-.03.02-.05.01s-.01.01-.12-.05a2.37,2.37,0,0,1-.53-.4l-.3-.26-.17-.14a1.38,1.38,0,0,0-.25-.17l-.7-.4a6.034,6.034,0,0,1-.62-.4.665.665,0,0,1-.26-.3.06.06,0,0,1-.04.01l-.04-.14c-.1-.2-.34-.88-.35-.63-.9-2.16-.8-4.13-1.2-4.92a10.315,10.315,0,0,1,0-1.8l.03.25a19.075,19.075,0,0,1,.25-4.02,7.914,7.914,0,0,1,.3-2.15c-.02.18-.01.2.02.1l.17-.55c-.01-.1-.02-.2-.02-.3.02.13.03.22.04.3-.02.08-.01.1.02,0v-.54a2.727,2.727,0,0,1-.07-.37c0-.01.01-.03.01-.02-.1-.84-.1-.7-.07-.3-.01-.02-.02.01-.03.14a23.72,23.72,0,0,1-.08-2.54l-.57-6.4c.04-.24.12.25.17.86l-.1-1.5a5.727,5.727,0,0,1,.13,1.3c.02-1.28-.14-2.6-.22-4.03a1.928,1.928,0,0,0,.24-.01l.12.12c3.83-.2,1.4.27,5.2.1l.67-.18c3.43-.26,1.85.25,5.66-.1-1.34.02-.85-.2.58-.23a25.918,25.918,0,0,0-.65,2.92h-.02Zm166.58-25.2a.826.826,0,0,1,.02.72,1.139,1.139,0,0,1-.1.19c-.1.02-.2.2-.1.13a.9.9,0,0,1-.3.2c-.1.05-.36.01-.52.13a7.758,7.758,0,0,1-2.38-.48,4.228,4.228,0,0,1-2.6-1.38.667.667,0,0,1-.05-.57c.4-1,1.2-.85,3.4-.2,1.12.3,2.3.66,2.63,1.24v.02Zm-5.1-2.93a1.285,1.285,0,0,0,.26.1c.1.04.2.07.3.1a3.618,3.618,0,0,0-.65-.03c.04-.07.06-.13.1-.2l-.01.03Zm-1.95,5.17c.3-.88,1.05-.9,3.4-.17,3.34.7,2.66,1.92,2.65,1.95-.3.83-1.18.88-3.4.18a4.228,4.228,0,0,1-2.6-1.38.771.771,0,0,1-.05-.58h0Zm-1.2,3.2c.3-.73.9-.77,2.75-.2l.26.1a11.043,11.043,0,0,1,1.6.7c.75,1.45-.83,1.55-2.4,1.06-1.62-.6-2.34-1.16-2.2-1.68l-.01.02Z"/>
    <path id="Path_16488" data-name="Path 16488" d="M179.83,260.3h0l.1.12Zm-9.7-25.43h0l-.33.1Z"/>
    <g id="Group_1131" data-name="Group 1131">
      <path id="Path_16489" data-name="Path 16489" d="M219.7,153.74l-.18.2C219.54,153.95,219.59,153.9,219.7,153.74Zm-28.33,61.1-.01.06A.214.214,0,0,0,191.37,214.84Zm21.55-53.06h0a.572.572,0,0,0,.04-.07Z" fill="#fff"/>
      <path id="Path_16490" data-name="Path 16490" d="M220.67,150.45l-4.8,6.75-2.94,4.55c-.35.76-1.24,1.92-1.66,2.8l-.26.28a5.737,5.737,0,0,1-.55.92l-.01-.03c-.22.45-.55.92-.66,1.15l-.01-.03-.3.53.03-.1-1.3,2.23h.1c-.97,1.4-1.1,2.05-1.98,3.32l-.01-.03c-.78,1.8-1.62,2.62-2.4,4.48.1-.23-.1.07-.1.05-.4.84-.83,1.73-.68,1.82-.3.6-.3.47-.4.5.07.03-.17.57-.4,1.04l.08-.23c-.23.45-.42.9-.62,1.38l.25-.2c-.37.7-.24.1-.53.82l.1.04c-.47,1-.93,1.5-1.4,2.47-1.77,4.08-3.14,8.66-4.68,12.5l-.14.14c-.15.03-.18,1.14-.34,1.25l-.1.47c-.06.12-.18.38-.13.15a5.044,5.044,0,0,0-.2.75l-.22.43c-.62,1.64-.9,3.12-1.47,4.87a77.535,77.535,0,0,0-2.33,8.47c-.68,3.3-2.13,7-2.68,10.42a1.33,1.33,0,0,0-.05.4l-.7,3.1-.43,2.13-.36,1.97c-.1.63-.25,1.5-.24,1.62-.12.03-.15.05-.36.1s-.4.1-.56.13a1.774,1.774,0,0,0-.6.22c-.06.06.04.1.35.14a4.994,4.994,0,0,0,.62.03c.37.01.74,0,1.1-.02l.72-2.5.01.08a27.405,27.405,0,0,0,.75-3.93c.2-.15.32-1.38.46-1.76v.04c.1-1.06.58-2.1.7-3.1a.479.479,0,0,1,0,.3,7.558,7.558,0,0,1,.45-1.75c.4-1.72,1.02-4.1,1.16-5.23l.01.08c.06-.65.2-.8.32-1.52.02-.03.04-.08.05-.07.08-.7.52-1.98.63-2.54h.07l.35-1.35-.15.5c-.13-.23.4-1,.56-2,.3-.9.17-1.96.53-2.88.05-.47.01.44.15-.26.1.01-.04.33.1.18.16-.67.43-1.05.62-1.9h.08c.2-1.1.7-1.97.8-2.7.3-1.1.45-.66.68-1.84l.24-.4c.17-.48,0-.4.22-.9.05.05.27-.66.23-.33.5-1.18.73-2.5,1.44-4.03,0-.4.36-1.16.37-1.45.07-.02.6-1.6.38-.65-.02.08-.07.2-.1.2l.03.13a19.681,19.681,0,0,0,.9-2.54c-.12.25-.25.6-.2.36l.32-.82-.01.2q.24-.611.51-1.21l-.14.14a5.214,5.214,0,0,0,.66-1.45c.07-.33-.33.53-.1-.1l1.4-2.94c-.12.06,0-.2.1-.5h.08c.38-1.1.33-.32.73-1.4l.01.1-.02-.34c.3-1,.37-.44.7-1.57-.2.4-.25.12.04-.37v.16a5.1,5.1,0,0,1,.25-.57c-.05.18.05.13.24-.28l-.06.3.27-.83a17.154,17.154,0,0,1,1-1.74,11.26,11.26,0,0,0,.8-1.58c-.08.3.32-.4.3-.16a6.413,6.413,0,0,1,.88-1.7l-.03.08c.9-1.37,1.28-2.48,2.13-3.68-.1.01.33-.63.14-.52.7-1.35,1.62-2.25,1.62-2.9a6.744,6.744,0,0,1,.7-.94l-.07.15,1.38-2.24a5.655,5.655,0,0,1,.64-1.27c-.1.27.08-.03.26-.3-.1.18-.12.24.15-.1a1.949,1.949,0,0,1,.1-.22c.01,0,.02-.01.02,0,.27-.46.2-.4.06-.2,0-.02-.02,0-.08.05.37-.42.84-1.3.97-1.3.87-1.36,1.42-2.38,2.13-3.52.13-.1,0,.2-.2.53l.5-.8c.06.05-.27.48-.42.73.74-.87,1.2-2,2.06-3.04l.1-.26.05-.06a1.241,1.241,0,0,1,.2-.46c.17-.1.13.1.5-.44a16.473,16.473,0,0,0,1.18-1.82c-.22.3-.18.18-.1.03.2-.27.35-.4.47-.6l.1.03c-.15.05.42-.76.46-.88.17-.1-.25.45-.25.55l1.14-1.62c.35-.62-.15.05-.02-.27a17.055,17.055,0,0,1,1.1-1.6l-.2.13a14.321,14.321,0,0,1,1.58-2.14c2.3-3.72,2.42-4.2,1.92-3.8a19.288,19.288,0,0,0-1.58,1.77,90.038,90.038,0,0,0-5.32,7.6l.05-.03ZM205.2,249.73l.22.04C205.42,249.75,205.37,249.73,205.2,249.73Zm40.03-23.53v0ZM213.73,251h0c-.03,0-.05.01-.07.01h.07Z" fill="#fff"/>
      <path id="Path_16491" data-name="Path 16491" d="M202.53,250.78l6.77.22h4.43c.68-.12,1.87.02,2.66-.08l.3.08a3.623,3.623,0,0,1,.87-.01h-.02c.4-.05.87-.01,1.08-.04l-.02.02h.5l-.1.03a18.455,18.455,0,0,1,2.1-.01l-.05-.1c1.4.1,1.9-.03,3.17.03l-.02.02c1.6-.27,2.57.02,4.2-.44-.2.07.1.03.08.05.75-.17,1.56-.33,1.53-.5.54-.15.45-.07.54-.03-.02-.07.44-.23.86-.35l-.2.08,1.2-.4-.28-.05c.63-.2.2.1.8-.15l-.05-.1,2.26-.7a16.362,16.362,0,0,0,4.56-3.4,22.888,22.888,0,0,0,1.83-2.13l1.5-2.23.15-.1c.15,0,.28-.93.44-1a2.339,2.339,0,0,0,.1-.4c.06-.1.18-.3.13-.1a2.716,2.716,0,0,0,.2-.62l.22-.34a11.093,11.093,0,0,0,.65-2c.2-.66.3-1.35.46-2.1a18.425,18.425,0,0,0,.57-3.55l.15-3.64c.02-2.76.77-5.92.77-8.75a1.052,1.052,0,0,0-.01-.33l.2-2.57s1-12.5-.8-3.07l-.02-.07a16.641,16.641,0,0,0-.2,3.27c-.18.14-.1,1.16-.2,1.48l-.01-.03c.07.87-.25,1.76-.2,2.6-.01-.03-.06-.05-.05-.25a4.951,4.951,0,0,1-.15,1.47l-.2,4.4-.02-.07a9.358,9.358,0,0,1-.03,1.28.26.26,0,0,0-.03.07c.06.58-.1,1.68-.1,2.14l-.07.02-.07,1.14.05-.43c.17.16-.17.86-.14,1.7-.13.75.2,1.6-.02,2.38.01.4-.07-.35-.12.22-.1,0-.01-.27-.1-.14-.07.56-.28.88-.36,1.56h-.08c-.08.9-.57,1.6-.6,2.2-.27.88-.43.5-.65,1.43l-.23.3c-.16.37-.01.32-.26.7-.04-.05-.3.48-.24.22a13.415,13.415,0,0,1-1.84,2.84c-.1.3-.58.77-.65,1-.03.02-.95.96-.5.35.04-.05.12-.13.13-.1v-.1c-.65.4-.9,1.03-1.52,1.5.2-.1.4-.32.3-.15l-.56.42.08-.14-.84.6.16-.03c-.42.3-.66.25-1.08.65-.2.2.47-.17.02.14-.6.35-1.55.73-2.34,1.08.1.04-.1.16-.32.25l-.06-.06c-.83.42-.38-.03-1.2.37l.06-.08-.18.23c-.74.4-.47-.02-1.3.44.35-.1.2.1-.24.2l.1-.1a2.969,2.969,0,0,1-.48.16c.13-.08.05-.12-.3-.02.07-.04.15-.1.22-.15-.2.1-.43.18-.65.27a10.378,10.378,0,0,1-1.6.2,7.019,7.019,0,0,0-1.4.2c.22-.1-.4-.05-.24-.15a4.076,4.076,0,0,1-1.53.14h.07c-1.3-.02-2.27.13-3.47.02.05.1-.58.03-.42.15-1.24.1-2.27-.25-2.72.1a7.61,7.61,0,0,1-.96-.1l.13-.02h-2.16a3.534,3.534,0,0,1-1.16.14c.23-.06-.06-.05-.32-.06.17-.01.22-.03-.12-.08a.877.877,0,0,1-.2.04c0-.01-.02-.01-.01-.02-.44.02-.36.04-.16.05-.01.01.01.02.07.04-.46-.1-1.27-.01-1.33-.12l-3.37.14c-.12-.06.13-.1.45-.12l-.78.01c.01-.08.45-.04.7-.05-.93-.14-1.92.1-3-.02l-.23.06-.06-.01a1.089,1.089,0,0,1-.4.1c-.15-.07.01-.16-.53-.16a10.864,10.864,0,0,0-1.77.05c.3.02.2.05.07.08a5.057,5.057,0,0,0-.63-.04l-.02-.1c.1.1-.7.1-.8.13-.15-.07.42-.06.5-.1-1.08,0-.54,0-1.62-.01-.58.06.1.1-.17.17a12.069,12.069,0,0,1-1.6.01l.18.1a10.56,10.56,0,0,1-2.17-.05c-7.15.6-1.52.92-1.52.92,2.82.22,4.27-.01,7.62-.03l.04-.01ZM262.63,215l-.03.12C262.62,215.12,262.63,215.09,262.63,215Zm5.87,29.23c.01,0,.02.01.03.01A.077.077,0,0,0,268.5,244.23Zm-6.74-24.43h0c0-.02-.01-.03-.01-.04Z" fill="#fff"/>
      <path id="Path_16492" data-name="Path 16492" d="M261.46,213.6c.06,1.63-.07,2.07.1,3.76l.2,2.45c.15.37.07,1.03.2,1.47l-.06.18a.991.991,0,0,1,.05.48l-.02-.01c.07.23.05.48.1.6l-.02-.01.03.28-.03-.05a5.844,5.844,0,0,1,.1,1.17l.1-.03c-.05.78.15,1.05.08,1.75l-.02-.01c.3.87-.07,1.4.2,2.3-.03-.1-.04.05-.06.04.05.42.1.86.26.86.02.3-.04.25-.1.3.07,0,.12.26.14.5l-.04-.1.07.68.13-.14c-.02.36-.17.1-.1.44h.12a9.731,9.731,0,0,1-.2,1.3c.04,1,.17,2.04.28,3.08a23.266,23.266,0,0,0,.5,3.06l-.06.1c-.12.08.33.46.25.56l.13.2c0,.07.02.2-.04.1a1.149,1.149,0,0,0,.17.32v.24a12,12,0,0,0,1.12,2.12,9.126,9.126,0,0,0,2.62,3.18l2.03,1.55a7.2,7.2,0,0,0,2.36,1,.442.442,0,0,0,.2.02l1.42.4,1.02.2a9.1,9.1,0,0,0,1.87.13c.57-.03.96-.15.86-.3a7.9,7.9,0,0,0-1.9-.73l.04-.02a6.293,6.293,0,0,0-1.76-.28c-.04-.18-.6-.17-.77-.28v-.01c-.5,0-.9-.4-1.35-.43a.144.144,0,0,1,.15-.02c-.32-.08-.75-.22-.73-.32-.72-.25-1.58-.82-2.05-1.02h.04c-.3-.08-.3-.2-.57-.37,0-.02-.02-.04-.01-.04-.3-.1-.66-.6-.87-.75l.04-.06-.42-.45.14.18c-.2.05-.23-.42-.58-.7-.24-.34-.8-.48-.98-.9-.2-.13.22.08-.01-.15.08-.06.13.1.15-.02-.2-.24-.17-.5-.42-.78l.06-.05c-.34-.38-.34-.87-.58-1.12-.25-.45.06-.4-.26-.83l.03-.23c-.06-.22-.17-.1-.2-.36.06,0-.04-.32.06-.2-.06-.56-.45-1.06-.4-1.8-.14-.14-.13-.5-.23-.62.05-.03-.04-.73.1-.33.01.03.01.1-.01.1l.08.04c.1-.4-.13-.75-.13-1.2-.02.13,0,.3-.06.2l-.02-.4.07.08v-.6l-.07.08c.02-.3.14-.4.01-.73-.07-.15-.1.28-.13-.03l.06-1.5c-.08.05-.1-.1-.1-.22l.07-.02c-.14-.53.15-.2.04-.73l.06.04-.17-.13c-.18-.47.14-.26-.1-.78.03.2-.16.1-.14-.15l.08.06a1.383,1.383,0,0,1-.05-.28c.04.08.1.04.08-.17l.1.14-.16-.4c.06-.3-.07-.8.02-.92a2.331,2.331,0,0,0-.1-.8c.08.13.08-.23.17-.13a1.3,1.3,0,0,1-.1-.87l.01.04c.04-.75-.2-1.27-.14-1.94-.08.03-.06-.32-.17-.23-.15-.7.14-1.27-.2-1.5-.04-.3.06-.38.06-.54l.02.07-.1-1.2c-.05-.22-.2-.24-.2-.64.07.12.05-.04.04-.18.02.1.04.12.07-.07a.37.37,0,0,1-.05-.11.035.035,0,0,1,.02-.01c-.04-.24-.06-.2-.06-.1-.01-.01-.02.01-.04.04.07-.26-.05-.7.06-.74-.07-.73-.22-1.25-.3-1.86.05-.07.1.07.14.24l-.05-.43c.08,0,.06.25.1.38.1-.52-.2-1.06-.12-1.67l-.07-.12.01-.04c-.03,0-.1-.13-.1-.22.06-.1.16,0,.14-.3a3.625,3.625,0,0,0-.13-.98c0,.17-.04.12-.07.05-.01-.15.05-.24.02-.35l.1-.02c-.08.06-.12-.4-.16-.44.06-.1.08.23.13.26l-.07-.9c-.1-.32-.1.06-.18-.08a3.1,3.1,0,0,1-.08-.88l-.08.1a3.358,3.358,0,0,1-.05-1.2c-.94-3.9-.98-.77-.98-.77a21.864,21.864,0,0,0,.4,4.2l-.1-.02Zm11.6-18.53.01-.2C273.05,194.88,273.04,194.93,273.06,195.07Zm-8.53-48.5c-.01-.02-.01-.03-.02-.04A.11.11,0,0,0,264.53,146.57Zm8.62,40.82h0a.421.421,0,0,0,.02.06Z" fill="#fff"/>
      <path id="Path_16493" data-name="Path 16493" d="M274.43,197.27l-.68-5.97-.6-3.88c-.22-.57-.24-1.64-.46-2.32l.03-.28a2.76,2.76,0,0,1-.14-.76l.02.01c-.1-.35-.14-.76-.2-.94v.01l-.08-.44.04.07a14.291,14.291,0,0,1-.33-1.84l-.08.06c-.1-1.23-.36-1.65-.42-2.77l.02.01c-.46-1.35-.2-2.22-.67-3.62.06.17.03-.08.05-.07-.14-.65-.28-1.35-.45-1.34-.08-.48-.02-.4.04-.47-.07.02-.18-.4-.25-.77l.06.17-.2-1.07-.1.24c-.06-.58.14-.17.02-.7l-.1.03a20.46,20.46,0,0,1-.07-2.06l-1.82-9.5.06-.15c.12-.08-.34-.77-.25-.9l-.12-.33c0-.1-.01-.3.05-.14a2.2,2.2,0,0,0-.16-.54l.01-.35c-.18-1.26-.54-2.3-.78-3.6a50.718,50.718,0,0,0-1.35-6.22c-.7-2.35-.8-5.24-1.53-7.64a1.061,1.061,0,0,0-.1-.28l-.48-2.24s-2.38-10.85-1.57-2.38l-.04-.05a11.8,11.8,0,0,0,.7,2.82c-.14.17.2,1,.22,1.3l-.02-.02c.3.72.24,1.56.5,2.26-.02-.02-.07-.03-.1-.2a3.918,3.918,0,0,1,.23,1.3l.95,3.78-.04-.05a7.966,7.966,0,0,1,.3,1.1.28.28,0,0,0-.01.06c.2.48.33,1.45.45,1.85l-.06.04.22,1-.06-.37c.2.1.04.78.3,1.47.1.68.65,1.3.7,2,.15.32-.2-.27-.03.22-.1.04-.1-.22-.16-.08.14.48.07.82.25,1.42l-.07.04c.3.76.2,1.5.43,2,.22.8-.1.6.2,1.4l-.03.35c.05.37.17.24.2.65-.07-.01.05.52-.06.3.08.93.5,1.83.57,3.06.17.24.2.86.34,1.04-.05.04.22,1.22-.02.56-.02-.06-.04-.16-.02-.16l-.1-.07a11.7,11.7,0,0,0,.4,1.92c-.01-.2-.07-.47.01-.3l.1.63-.08-.12.14.95.05-.14a3.119,3.119,0,0,0,.15,1.15c.1.22.02-.45.13.03l.27,2.35c.07-.1.1.12.16.34l-.07.04c.25.82-.1.33.12,1.15l-.06-.06.2.2c.28.72-.08.43.26,1.23-.07-.33.14-.18.17.23l-.1-.1a2.146,2.146,0,0,1,.1.44c-.06-.13-.12-.05-.05.27l-.13-.2.24.6c.01.5.24,1.24.17,1.45a5.41,5.41,0,0,0,.27,1.26c-.1-.2-.03.38-.14.23a4.227,4.227,0,0,1,.3,1.37v-.06c.1,1.18.45,1.98.52,3.05.08-.06.12.5.2.35.28,1.07.1,2.02.5,2.36a4.027,4.027,0,0,1,.04.86l-.04-.12.3,1.88c.08.34.25.37.3,1-.1-.2-.04.06-.01.3-.03-.15-.06-.2-.06.12a.593.593,0,0,1,.07.16s-.01.02-.01.01c.08.38.1.3.07.13.01.01.02-.01.03-.07-.02.4.17,1.1.07,1.18l.6,2.93c-.04.12-.12-.1-.18-.38l.12.68c-.08.01-.1-.4-.15-.6-.01.83.37,1.66.38,2.64l.1.2v.06c.03-.01.1.2.14.34-.05.14-.16.01-.1.5a8.38,8.38,0,0,0,.28,1.55c-.02-.27.03-.2.07-.08a3.06,3.06,0,0,0,.04.56l-.1.03c.08-.1.17.6.22.7-.05.14-.1-.36-.17-.4l.2,1.42c.13.5.08-.1.2.13a8.273,8.273,0,0,1,.2,1.4l.06-.17a9.314,9.314,0,0,1,.2,1.92c.7,3.1.94,3.42,1.04,2.95a10.43,10.43,0,0,0,.03-1.73,49.622,49.622,0,0,0-.92-6.7v-.07Zm-86.26-81.84.13-.1C188.28,115.33,188.24,115.35,188.17,115.43Zm34-18.23a.076.076,0,0,0,.04-.01A.058.058,0,0,0,222.17,97.2Zm-29,14.67h0l-.02.04Z" fill="#fff"/>
      <path id="Path_16494" data-name="Path 16494" d="M187.78,117.57l3.23-3.47,2.15-2.23c.26-.4.96-.88,1.3-1.34l.2-.1a1.635,1.635,0,0,1,.44-.43v.02a5.5,5.5,0,0,1,.53-.54h0l.26-.23-.03.06a8.167,8.167,0,0,1,1.12-.96l-.08-.04a21.093,21.093,0,0,1,1.76-1.34v.02c.77-.83,1.5-.9,2.32-1.74-.1.1.08,0,.08.03.43-.3.9-.6.82-.76.33-.2.3-.12.37-.1-.04-.06.23-.27.48-.43l-.1.1.72-.48-.22-.03c.4-.2.2.1.54-.17l-.06-.1a9.409,9.409,0,0,1,1.56-.5l1.7-.9c.56-.32,1.17-.55,1.76-.83l1.76-.77a12.312,12.312,0,0,1,1.76-.5l.13.05c.08.1.56-.37.68-.28l.25-.14c.08,0,.24-.02.12.04a1.515,1.515,0,0,0,.4-.18h.28l2.82-.66,4.94-.6c1.94-.2,4.08.63,5.98.96a.411.411,0,0,0,.23.03,16.787,16.787,0,0,1,1.68.6l1.15.48,2.03.96c.6.3,1,.5,1,.32s-.43-.8-1.85-1.82h.05a6.047,6.047,0,0,0-2.2-.9c-.04-.2-.8-.3-1-.43l.03-.01c-.64-.05-1.2-.5-1.82-.5.03-.01.05-.05.2-.02-.43-.08-1.03-.18-1.04-.28a12.048,12.048,0,0,0-3.17-.26l.05-.03a4.659,4.659,0,0,1-.92.04c-.02-.01-.05-.02-.05-.03-.42.07-1.2.03-1.54.08l-.02-.07-.82.06c.1,0,.2-.02.3-.01-.1.18-.63-.05-1.22.12-.57.01-1.06.54-1.64.56-.25.14.2-.18-.18-.04-.03-.1.18-.1.06-.15-.4.12-.67.03-1.15.2l-.03-.07c-.6.26-1.23.14-1.63.35-.63.24-.5-.1-1.12.25l-.3-.02c-.3.07-.17.18-.5.23,0-.07-.42.07-.25-.04-.75.15-1.44.53-2.4.77-.16.2-.64.32-.76.47-.04-.04-.93.37-.45.05.04-.03.12-.06.12-.04l.03-.1a7.593,7.593,0,0,0-1.45.66c.16-.04.36-.13.25-.03l-.48.2.07-.1a4.193,4.193,0,0,0-.72.3l.13.02c-.35.14-.53.08-.86.38-.14.14.36-.07.02.13l-1.77.75c.1.05-.06.12-.2.22l-.05-.06c-.56.4-.3-.02-.85.4l.02-.08-.07.23c-.45.45-.36.04-.84.58.22-.15.2.07-.1.22l.03-.1c-.15.1-.18.17-.3.22.07-.1-.01-.12-.23.03l.1-.17-.36.38c-.37.15-.86.54-1.04.57,0,0-.72.46-.8.66.1-.16-.3.1-.24-.05a2.443,2.443,0,0,1-.88.7l.03-.04c-.84.48-1.24,1.08-1.97,1.55.08.04-.3.3-.14.3-.6.65-1.4.85-1.42,1.33-.3.3-.4.26-.57.4l.06-.08-1.12,1.06c-.18.2-.1.36-.5.67.08-.15-.07-.01-.2.12.08-.1.1-.14-.12.01a.329.329,0,0,1-.07.13.031.031,0,0,1-.02-.01c-.2.24-.15.2-.04.12,0,.01.02.01.06-.01-.3.17-.63.65-.74.6-.64.7-1.05,1.23-1.54,1.85-.1.03-.01-.14.12-.33l-.36.43c-.06-.06.18-.27.28-.4-.54.4-.82,1.1-1.43,1.6l-.06.16-.04.03c.03.02-.05.18-.12.28-.12.04-.12-.1-.36.2a5.941,5.941,0,0,0-.76,1c.15-.16.13-.08.1.01-.12.15-.25.2-.32.32l-.1-.05c.1-.01-.24.45-.25.53-.12.04.14-.27.13-.34l-.7.92c-.2.37.12,0,.06.2a5.819,5.819,0,0,1-.67.9l.14-.06a5.092,5.092,0,0,1-.94,1.23c-1.17,2.28-1.04,2.64-.74,2.4a7.645,7.645,0,0,0,.9-1c1.3-1.46,1.72-2.4,3.14-4.28Z" fill="#fff"/>
    </g>
  </g>
</svg>
