<svg xmlns="http://www.w3.org/2000/svg" width="201.151" height="169.305" viewBox="0 0 201.151 169.305">
  <g id="_56" data-name="56" transform="translate(-153.48 -97.067)">
    <path id="Path_16495" data-name="Path 16495" d="M318.84,220.38l.38.2A1.832,1.832,0,0,0,318.84,220.38Zm14.53,7.56-.02-.02-.1-.07.12.1Z"/>
    <path id="Path_16496" data-name="Path 16496" d="M351.5,219.18c1.8-.1,4.02-2.03,1.02-2.73l-7.46-1.24c-.8-.1-4-.9-6.2-.5-1.4.2-3.3,1.1-6.4-.5l-.17-.1a2.47,2.47,0,0,0-.93-2.7l-8-4.8-.45.8c-6.37-4.9-14.02-11.17-18.65-15-3.8-3-20,11.9-7.2,18.4,6.6,3.36,13.27,6.4,19.03,8.88l-.73,1.32,9.7,4.3a2.076,2.076,0,0,0,2.75-.78l5.16,1.98a19.042,19.042,0,0,0,12.13,5.7c1.03.12,2.17-.7,3.07-1.3a1.423,1.423,0,0,0,.3-1.18.887.887,0,0,0-.06-.4,1.7,1.7,0,0,0-.27-.7c.3.4,1.35.28,1.82.16a.967.967,0,0,0,.43-.27,1.427,1.427,0,0,0,.67-.68,1.8,1.8,0,0,0,.15-.75.845.845,0,0,0-.07-.64c-.36-.6.12-.9.62-1.23a1.74,1.74,0,0,0,.3-.2l.12-.1a1.069,1.069,0,0,0,.37-.4c.53-1.25-.13-1.7-.38-2.2a15.513,15.513,0,0,0-4.62-2.7c-.88-.5,2.08-.07,3.95-.43h0Z" fill="#fff"/>
    <path id="Path_16497" data-name="Path 16497" d="M329.9,221.56l-.1.1C329.83,221.66,329.86,221.64,329.9,221.56Zm-3.74,2.74Zm-103-124.44c.02-.01.03-.01.04-.02l.2-.1-.25.13.01-.01Zm-49.5,133.8.02.42A1.625,1.625,0,0,0,173.66,233.66Zm15.57-19.76.01-.1Zm-14.52,35.73v-.02C174.7,249.62,174.71,249.58,174.71,249.63Z"/>
    <path id="Path_16498" data-name="Path 16498" d="M193.07,260.8l-1.6-6.3a21.073,21.073,0,0,0-2.7-5.6c-.9-1.2-2.6-2.4-2.8-5.8l.01-1h.2a2.077,2.077,0,0,0,2.1-1.9l.6-9.3-1.72-.08c1.05-7.86,2.57-17.24,3.52-23.02.8-5-20.3-11.5-19.5,2.8.35,6.83.96,13.6,1.63,19.52h-.43l.6,10.5a2.125,2.125,0,0,0,1.42,1.97l1.08,7.03a22.2,22.2,0,0,0,1.7,13.8c.2.6,1.2.9,2.1,1.4a5.969,5.969,0,0,0,1.5.9c.4.1.5-.3,1.1-.2.8.1,1.7.6,2.4.4,2-.8,1.9-.2,2.7-.3a2.733,2.733,0,0,0,1.7-1.3l.2-5.4c-.2-1,1.5,1.2,2.2,2.6,1,1.5,2.9,2.3,2-.7h-.01Z" fill="#fff"/>
    <path id="Path_16499" data-name="Path 16499" d="M178.54,243.26l-.14-.05C178.41,243.24,178.44,243.26,178.54,243.26Zm11-11.1c0,.02.01.03.01.05C189.55,232.17,189.54,232.16,189.54,232.16Zm-15.16,8.95Zm19.67-17.55.08-.01C194.07,223.55,194.05,223.55,194.05,223.56Z"/>
    <path id="Path_16500" data-name="Path 16500" d="M353.63,216.2a5.645,5.645,0,0,0-1.43-.44l-1.32-.26-2.68-.47-2.74-.37c-.8-.03-1.75-.28-2.65-.38a19.493,19.493,0,0,0-2.76-.2,14.146,14.146,0,0,0-2.7.4,6.528,6.528,0,0,1-4.6-.78,1.3,1.3,0,0,1-.15-.17,2.421,2.421,0,0,0,0-1.9l.07.02a2.682,2.682,0,0,0-1.02-1.13,2.958,2.958,0,0,0-.9-.33c.06-.3-.6-.4-.74-.6l.03-.01c-.58-.1-.87-.73-1.42-.83a.178.178,0,0,1,.2-.01l-.45-.22c.01-.03.01-.05.02-.08l-.03.08a1.4,1.4,0,0,1-.18-.12l.3-1.2v.5l.42-2.13c-.07.65.14.38.35-1.22a10.1,10.1,0,0,1-.02,1.1,11.169,11.169,0,0,0,.1-1.54l-.01-1.54.05-.95a9.41,9.41,0,0,0-.07-1.05,13.949,13.949,0,0,0-.34-2.1l-.5-1.8-.38-1.15-.37-.75a10.707,10.707,0,0,0-1-1.66,12.155,12.155,0,0,0-2.46-2.63c.83.6-1.2-1.32-.53-.88l-2.65-1.9-2.76-1.94.25.14c-2.3-1.58-4.37-2.73-6.36-3.86l-5.87-3.6c.1.25-1.93-1.3-1.53-.78-4.15-2.88-6.54-6.37-8.2-7.32a32.478,32.478,0,0,1-2.43-3.08l.38.4c-2.75-3.32-3.5-4.34-5.37-6.96a31.037,31.037,0,0,1-2.92-3.75c.6.7-.07-.25-.67-1.14.4.56.55.72-.18-.5-.14-.15-.32-.4-.5-.63,0-.01-.03-.07,0-.05-1.02-1.5-.88-1.2-.43-.5-.04-.03-.01.04.1.28-.92-1.63-2.85-4.37-2.8-4.66l-7.53-11.6c-.18-.48.43.38,1.14,1.48l-1.7-2.72a17.062,17.062,0,0,1,1.55,2.37c-1.8-3.36-4.2-6.66-6.56-10.5l-.6-.7-.14-.23a11.008,11.008,0,0,1-1.08-1.28c-.28-.58.26-.13-1.06-1.93a55.922,55.922,0,0,0-4.62-5.68c.78.97.47.7.1.32-.72-.85-1.06-1.4-1.66-2.02l.04-.14a6.3,6.3,0,0,1-.9-.85c-.1-.14-.18-.26-.27-.4.12.12.23.2.27.24l-.38-.4a52.781,52.781,0,0,0-6.54-7.98,25.367,25.367,0,0,0-2.08-1.9,29.147,29.147,0,0,0-2.4-1.9l-1.38-.96-1.58-.92-.84-.48-.92-.43c-.64-.27-1.27-.62-2-.87a25.972,25.972,0,0,0-8.7-1.8,31.962,31.962,0,0,0-3.8.12,18.341,18.341,0,0,0-2.05-.23l.28-.04a22.818,22.818,0,0,0-7.8,1.06,26.775,26.775,0,0,0-5.76,2.7,10.2,10.2,0,0,0-2.58,1.37l-2.86,2,.1-.1c-2.8,2.4-5.97,4.7-8.36,7.33a3.386,3.386,0,0,1,.66-.8c-1.84,1.82-4.2,4.43-4.44,4.46a125.831,125.831,0,0,0-11.65,14.54l.12-.24c-1.2,1.9-1.7,2.35-3.07,4.44-.1.1-.2.24-.2.2-1.25,2.1-4.02,5.86-5,7.6l-.16.05c-.88,1.36-1.68,2.77-2.5,4.16l.95-1.55c-.07.7-2.06,3.06-3.54,6.27a35.563,35.563,0,0,0-2.03,4.58c-.63,1.57-1.22,3.16-2,4.7-.55,1.54.38-1.4-.53.86-.18.01.38-1.08,0-.56l-1.32,2.95a31.256,31.256,0,0,0-1.4,3.37l-.16.07c-.6,1.84-1.3,3.52-1.86,5.08l-.83,2.2c-.22.66-.4,1.32-.56,2-1.1,3.82-1.14,2.45-2.03,6.5-.2.5-.38,1-.56,1.52-.44,1.72-.1,1.3-.63,3.18-.1-.15-.58,2.42-.46,1.27-.26,1.1-.5,2.2-.7,3.32s-.33,2.3-.5,3.52l-.25,1.85-.2,1.94c-.13,1.32-.35,2.7-.47,4.17a22.645,22.645,0,0,1-.01,2.73,14.8,14.8,0,0,0,.07,2.48c-.04.08-.05,1.57-.07,2.62.04,1.05.05,1.67-.14,0a2.918,2.918,0,0,1,.02-.76l-.12-.4c-.03.42-.05.84-.06,1.24l.06,1.2c.05.8.12,1.56.2,2.32.06.76.25,1.52.36,2.3.12.63.2,1.3.33,1.95-.15-.88-.2-1.73-.05-1,.1,1.04.4,2.05.6,3.08l-.24-.62a17.118,17.118,0,0,0,.56,2.3,22.819,22.819,0,0,0,.75,2.25c-.04-.22-.1-.43-.13-.65l1,2.6c.2.37.4.75.66,1.17a7.379,7.379,0,0,0,1.02,1.4c.82.9-1.24-1.88.33.07a13.744,13.744,0,0,0,4.15,3.83,17.627,17.627,0,0,0,5.88,2.17c-.33-.2.7,0,1.76.12l.1.14.8.1a2.18,2.18,0,0,1-.02.51c.14-.04.1.36.27.26.23.77-.3,1.44.3,1.7.05.35-.1.43-.13.6l-.04-.08.08.74a3.666,3.666,0,0,0,.12.83c.17.32.4.27.66.76-.2-.1-.05.1.1.26-.1-.1-.17-.1-.02.16a1.024,1.024,0,0,1,.17.07c0,.01,0,.02-.01.02.3.2.28.14.16.02.02-.01.02-.03,0-.1a.947.947,0,0,0,.38.36l.4,2.68.66,3.92a24.584,24.584,0,0,0-.28,5.22c-.02.2-.02.4-.04.6.06.54.16,1.16.2,1.7l-.02-.03c.17.8.3,1.7.43,2.07l-.03-.03c.08.32.15.64.25.95l-.08-.15a34.392,34.392,0,0,0,1.44,3.75,1.037,1.037,0,0,0,.04.1v-.2l.06.14a.541.541,0,0,0,.07.13,1.034,1.034,0,0,0,.16.23,1.494,1.494,0,0,0,.33.3,5.486,5.486,0,0,0,.6.37l.96.47a5.294,5.294,0,0,1,.74.47,3.276,3.276,0,0,0,1.1.55,1.048,1.048,0,0,0,.63-.04,2.8,2.8,0,0,1,.34-.14,1.715,1.715,0,0,1,.6.13l-.03.01a6.1,6.1,0,0,0,2.02.27.988.988,0,0,0,.32-.1l.2-.07c.12-.05.24-.08.36-.12a3.028,3.028,0,0,1,.67-.13,1.486,1.486,0,0,1,.6.1,2.031,2.031,0,0,0,1.12-.04,2.926,2.926,0,0,0,1.63-1.34l.1-.24c.04-.07.06-.16.1-.24v-.5c0-.13-.01-.27-.01-.4.01.4.05-.17.07-.13a10.7,10.7,0,0,0-.1-3c.01-.32.03-.52.04-.65a13.952,13.952,0,0,1,1.13,1.6l-.1-.45c.3.53.3.62.3.7a.322.322,0,0,0,.04.16,1.188,1.188,0,0,0,.13.23,1.842,1.842,0,0,0,.24.3l.08-.1a3.875,3.875,0,0,0,1,.92,1.1,1.1,0,0,0,1.32.05,1.729,1.729,0,0,0,.38-1.38,9.409,9.409,0,0,0-.2-1.22c-.47-1.64-.85-3.32-1.26-5.05l-.18-.67c-.04-.12-.07-.24-.12-.36l-.1-.3-.48-1.25a23.644,23.644,0,0,0-1.13-2.46,11.657,11.657,0,0,0-1.56-2.24A9.152,9.152,0,0,1,187.3,246a6.361,6.361,0,0,1-.7-2.24,7.376,7.376,0,0,1-.03-1.76,1.764,1.764,0,0,0,.27.07,2.124,2.124,0,0,0,1.87-.78l.01.07a2.754,2.754,0,0,0,.38-.77,2.573,2.573,0,0,0,.08-.38,1.371,1.371,0,0,0,.02-.27,2.7,2.7,0,0,0-.12-.94c.3-.08.08-.73.18-.93l.02.02a2.473,2.473,0,0,1,.12-1.2,21.793,21.793,0,0,0,4-.83c.66-.2,1.27-.46,1.8-.63.5-.2.9-.4,1.15-.47a8.554,8.554,0,0,0,.77-.4,18.288,18.288,0,0,0,1.64-1.15,11.444,11.444,0,0,0,2.44-2.62c-.1.22.18-.08.46-.42.3-.4.63-.86.46-.45a15.2,15.2,0,0,0,1.23-3.33c.33-1.36.52-2.74.68-3.5l-.02.3c.4-2.88.46-5.3.6-7.63.12-2.33.28-4.6.64-7.08-.03.04-.05-.03-.04-.17a21.21,21.21,0,0,1,3.28-.16l1.5-.1c.42.04,1.3.08.56.13a19.627,19.627,0,0,0,2.4-.1l1.48.13c5.46.1,10.1-.15,15.84-.1,6.9.27,19.88.02,27.36-.12,2.63-.08,5.36-.1,8.16-.06l3.95.06c.68,1.03.97,1.5,1.25,1.97a14.97,14.97,0,0,0,2.05,2.7l.9,1.3a9.038,9.038,0,0,0,1.05,1.1c.25.23.5.47,1.18,1.18-.16-.01,1.68,1.8.8,1.06,3.03,3.2,6.97,5.7,11.98,8.48a22.758,22.758,0,0,1,2.47,1.02,16.288,16.288,0,0,0,2.3.82c.07.25,5.55,1.82,2.36,1.05a2.732,2.732,0,0,1-.7-.24h-.42a30.871,30.871,0,0,0,9.16,1.87c-.98-.1-2.26-.3-1.4-.26a25.939,25.939,0,0,0,3.06.24l-.64.07,1.15.06,1.16-.03,1.16-.04,1.15-.14-.65-.04,1.47-.13a11.5,11.5,0,0,0,1.22-.2,10.368,10.368,0,0,0,2.82-.9c1.05-.52-2.1.6.15-.3a14.246,14.246,0,0,0,4.72-2.88,8.64,8.64,0,0,0,1.08-1.23c.07-.1.12-.18.2-.28a2.868,2.868,0,0,1,.85.4c.03-.15.36.1.35-.12.8.15,1.15.92,1.65.52.34.12.33.3.5.4l-.1-.01.7.26a3.925,3.925,0,0,0,.75.27c.36.01.43-.22,1-.2-.18.12.06.1.28.04-.13.05-.18.1.14.1a1.74,1.74,0,0,1,.14-.12c.01.01.02.01.02.02.35-.17.26-.18.1-.12,0-.02-.02-.03-.08-.04.43.02.9-.54,1.04-.45a.55.55,0,0,0,.07-.09l1.15.45,3.3,1.23.35.34c.16.14.3.3.46.43a21.481,21.481,0,0,0,4.5,2.9l.53.33,1.65.64-.04.01c.8.24,1.7.5,2.1.57h-.04c.33.08.66.13,1,.2h-.18c.72.13,1.44.17,2.15.25a4.1,4.1,0,0,0,2.28-.6l-.14-.02a6.784,6.784,0,0,0,.83-.48c.12-.08.24-.15.35-.23a1.573,1.573,0,0,0,.45-.42,1.941,1.941,0,0,0,.28-.98c.01-.13,0-.3,0-.37a.548.548,0,0,0-.02-.12.881.881,0,0,0-.05-.15.25.25,0,0,0-.04-.07h0a.487.487,0,0,0,.25.06h.08c.08-.01.17-.01.26-.02.18-.02.34-.04.55-.08a1.391,1.391,0,0,0,.47-.2c-.01.02-.02.03-.03.05a2.612,2.612,0,0,0,.52-.53,1.783,1.783,0,0,0,.46-.64,2,2,0,0,0,.2-.76c.01-.07.03-.13.04-.2a1.385,1.385,0,0,0-.17-.94c-.02-.03-.01-.05-.02-.06a2.067,2.067,0,0,1,.3-.22l.55-.33a1.717,1.717,0,0,0,.66-.66,2.989,2.989,0,0,0,.27-.83,2.037,2.037,0,0,0-.07-.98,2.623,2.623,0,0,0-.45-.8l-.1-.14a.553.553,0,0,0-.22-.26c-.12-.1-.25-.18-.38-.27.34.23-.1-.14-.07-.14q-.449-.347-.93-.65l-.45-.28a1.414,1.414,0,0,0-.33-.18,1.045,1.045,0,0,0-.54-.12c-.47-.23-.24-.16-.1-.17a3.893,3.893,0,0,1-.53-.14h0c-.04-.02-.1-.04-.1-.08.02-.03.06-.03.1-.04a1.943,1.943,0,0,1,.24-.02l-.1.03c.32-.02.67-.01,1.05-.04-.1-.04-.2-.08-.35-.13a1.35,1.35,0,0,1,.4.03.487.487,0,0,1,.16.04c.07.02.15.06.78-.05l-.03-.1a5.1,5.1,0,0,0,2.32-.7,3.512,3.512,0,0,0,.48-.4,1.541,1.541,0,0,0,.37-.72,1.4,1.4,0,0,0-.84-1.5l-.13.17Zm-179.9,21.03.1.03-.1.03Zm15.54,22.34h0l.06.06Zm-1.88-20.45-.06,1.08a1.472,1.472,0,0,1-.58,1.02c-.3.26-.67.38-.6.63a.457.457,0,0,0,.27.23,2.647,2.647,0,0,1-.27.02l-.84.05a10.988,10.988,0,0,0,.08,1.62,9.192,9.192,0,0,0,1.3,3.62c.44.47,1.3,1.5,1.6,1.75,0,.05.4.54.6.92.22.4.34.62-.07.05a1.125,1.125,0,0,1-.16-.27l-.15-.1a25.284,25.284,0,0,1,1.83,3.6c-.13-.4-.35-.94-.16-.6.17.42.32.84.47,1.27l-.15-.25.34,1a5.587,5.587,0,0,1,.23.9v-.28a14.411,14.411,0,0,0,.5,2.43c.18.5-.12-.96.15.08.15.8.32,1.58.5,2.37l.3,1.27.04.27c.02.1,0,.06,0,.1a.169.169,0,0,1-.03.1c.1.05.03.18-.1.13l-.01-.1a.237.237,0,0,1-.12-.05,2,2,0,0,1-.2-.18.776.776,0,0,1-.16-.24,1.384,1.384,0,0,0-.14-.25l-.1-.17c-.1-.17-.2-.34-.3-.5l-.27-.24a6.822,6.822,0,0,1-.75-1.1,2.21,2.21,0,0,0-.28-.4,4.233,4.233,0,0,0-.3-.3,2.813,2.813,0,0,0-.24-.2.988.988,0,0,0-.2-.13.671.671,0,0,0-.17-.08.686.686,0,0,0-.17-.05H189c.06.01.1.02.14.03a1.431,1.431,0,0,1,.16.07c.08.04.1.08.15.1a1.25,1.25,0,0,1,.12.12c.04.06.02.06-.05.03a1.3,1.3,0,0,1-.15-.1c-.04-.02-.07-.04-.14-.08a.584.584,0,0,0-.78.18.537.537,0,0,0-.08.26.674.674,0,0,0,.01.2,1.349,1.349,0,0,1-.01.27l-.06-.22c0,.47.02.64-.01.96-.03-.3-.1-.15-.1.56l-.07-.48.08,1.35c-.05.43-.07.97-.1,1.48l-.03.73c-.01.1-.01.22-.02.32,0,.05-.01.1-.01.14l-.01.04c-.01.02,0,.03-.02.03s-.03.02-.04.02h0a2.641,2.641,0,0,1-.63.65,1.571,1.571,0,0,1-.55.22,2.413,2.413,0,0,1-.5-.03c.26.03.08-.06-.23-.12s-.6-.04-.36-.1a7.932,7.932,0,0,0-1.6.5c-.2.14-.76-.02-1.07-.15l.12.03a6.157,6.157,0,0,0-1.3-.33,1.52,1.52,0,0,0-.96.17c-.1.05-.06.03-.1.04a1.269,1.269,0,0,1-.24-.1,4.389,4.389,0,0,1-.4-.26l-.47-.3a3.954,3.954,0,0,0-.53-.28c-.33-.16-.65-.3-.93-.46-.28-.14-.5-.37-.46-.38h-.01l-.04-.1c-.07.01-.46-.94-.44-.65-1.05-2.08-1.08-4.04-1.55-4.8a9.112,9.112,0,0,1-.13-1.8l.04.25a18.771,18.771,0,0,1-.06-4,7.691,7.691,0,0,1,.13-2.16c-.01.17,0,.2.02.12l.1-.47c-.02-.13-.04-.26-.07-.4.03.13.07.3.07.28,0-.05-.01-.22-.04-.53-.03-.1-.07-.23-.1-.36,0-.01,0-.03.01-.02-.16-.82-.15-.67-.1-.3-.01-.02-.02.02-.02.14-.06-.87-.38-2.4-.3-2.5l-.43-2.5a2.282,2.282,0,0,0,.62-.1c.33-.08.65-.16,1-.22.08.1-.07.18-.27.23l.5-.06c0,.13-.28.1-.43.13.6.18,1.2-.28,1.9-.12l.14-.1.04.02c-.01-.06.14-.14.24-.16.1.1.01.27.35.24.28.1.76-.1,1.1-.18-.2-.01-.13-.08-.05-.12.17-.01.27.1.4.04l.03.16c-.08-.14.43-.18.5-.25.1.1-.26.1-.3.2l1.02-.08c.36-.14-.07-.15.1-.3a2.51,2.51,0,0,1,1-.1l-.12-.13a2.468,2.468,0,0,1,1.37-.03c4.42-1.38.86-1.6.86-1.6-1.8-.2-2.68.25-4.78.47a35.948,35.948,0,0,0-4.28,0l-.67.03a1.222,1.222,0,0,1-.27-.01.823.823,0,0,1-.5-.3.308.308,0,0,1-.25-.27c-.02-.07-.02-.12-.04-.2a1.342,1.342,0,0,0-.1-.38l.1-.2a.874.874,0,0,1-.07-.55h.04a5.834,5.834,0,0,1-.12-.68l.04.01-.03-.3.05.05a4.787,4.787,0,0,1-.13-1.3,11.314,11.314,0,0,0,2.48.28l.74-.12c3.67-.04,1.96.43,6.05.1-1.6.03-.76-.25,1.22-.25l-.5.14c1.1-.08,1.46-.13,2.2-.16-.65.1-.34.2,1.28.04l-1.08.25,1.2-.2a.278.278,0,0,0,.05.13l-.1,1.6.01.04Zm158.82-17.4h0a.77.77,0,0,1,.8-.52,8.271,8.271,0,0,1,2.33.65l.5.2c1.47.65,2.14,1.04,2.27,1.54a.946.946,0,0,1-.03.33c-.03.11-.06.22-.1.33a.355.355,0,0,1-.1.13c-.15.14-.36.28-.46.38.18-.15,0-.08-.22.04a.924.924,0,0,0-.1.05,5.685,5.685,0,0,1-2.53-.8,4.492,4.492,0,0,1-2.36-1.8.7.7,0,0,1,.02-.53h-.02Zm1.44-1.57c-.2-.1-.3-.14-.25-.07a.745.745,0,0,0,.2.18c.01.01.03.01.05.02-.1-.02-.2-.03-.3-.04a.035.035,0,0,1-.02-.01c.01,0,.01.01.02.01-.07-.01-.14-.01-.2-.02a3.193,3.193,0,0,0,.2-.32,3.313,3.313,0,0,0,.3.25h0Zm.6,5.12.18.08a7.882,7.882,0,0,1,1.96,1.07,1.155,1.155,0,0,0,.15.32c.02.04.04.02.03.13a.893.893,0,0,1-.1.36,1.911,1.911,0,0,1-.4.6l.05-.1a1.1,1.1,0,0,1-.37.33,3.578,3.578,0,0,1-.37.06h0a6.945,6.945,0,0,1-2.24-.77,4.492,4.492,0,0,1-2.36-1.8.653.653,0,0,1,.01-.53c.46-.93,1.2-.77,3.46.25h0Zm-2.36,2.9a5.74,5.74,0,0,1,1.8.93.175.175,0,0,1-.05.04,2.45,2.45,0,0,1,.16.66,1.307,1.307,0,0,1,0,.28.443.443,0,0,1-.02.1c-.3.33-.92.32-2.66-.45a3.53,3.53,0,0,1-2.05-1.4.458.458,0,0,1,.02-.38v-.02a.764.764,0,0,1,.48-.44,1.032,1.032,0,0,1,.3-.04,4.735,4.735,0,0,1,2,.74Zm7.36-10.55a1.788,1.788,0,0,1-.28.27c.15-.02-.12.22-.5.4l-.07-.05a2.069,2.069,0,0,1-.7.24c-.14,0-.25,0-.37-.01a1.437,1.437,0,0,0-.32-.01l-1.1.1.3-.06-.86.18-1.47.07-.37.05a.45.45,0,0,0-.14-.1.511.511,0,0,0-.66.25,9.59,9.59,0,0,1-2.82,3.17,7.284,7.284,0,0,1-4.92,1.13.5.5,0,1,0-.15.99,7.98,7.98,0,0,0,1.09.07,7.448,7.448,0,0,0,4.58-1.4c.25-.2.48-.4.7-.58a1.971,1.971,0,0,0,.07.26,2.963,2.963,0,0,0,.5.8,1.812,1.812,0,0,0-1.87,1.2h0a1.7,1.7,0,0,0-.04,1.31,3.044,3.044,0,0,0,.34.6,2.327,2.327,0,0,0-.92.04,1.752,1.752,0,0,0-1.08.94,1.407,1.407,0,0,0-.08,1.2,4.17,4.17,0,0,0,2.62,1.98,12.556,12.556,0,0,0,1.62.6l-.17.1c-.2.1-.38.17-.24.2a1.694,1.694,0,0,1-.7.15c-.2-.01-.53-.06-.78-.1a11.43,11.43,0,0,1-1.44-.27,8.527,8.527,0,0,0-2-.35,9.25,9.25,0,0,1-1.7-.73l.24.08a16.433,16.433,0,0,1-3.6-1.92,7.51,7.51,0,0,1-1.84-1.23c.37.24-.06-.1-.42-.45.24.2.32.26-.12-.22a1.039,1.039,0,0,1-.3-.26c0-.01-.03-.04-.01-.03l-.1-.1-.5-.17a.389.389,0,0,0-.12-.03.953.953,0,0,0,.3.13c-.03,0,.01.03.16.1-.9-.42-2.35-.9-2.44-1.03l-2.02-.74c.01-.03.02-.07.03-.1.08-.33.15-.65.25-1,.12-.04.13.14.08.34l.16-.46c.12.05-.04.3-.08.44.43-.46.28-1.2.73-1.75l-.04-.17.03-.03c-.05-.02-.06-.2-.04-.3.15-.05.25.1.37-.2a2.646,2.646,0,0,0,.33-1.07c-.1.17-.13.1-.13,0,.06-.16.2-.2.22-.34l.15.05c-.16,0,.03-.47-.01-.55.15-.04-.01.28.05.35l.38-.95c.03-.38-.16,0-.22-.2a2.772,2.772,0,0,1,.35-.94l-.18.05a2.406,2.406,0,0,1,.6-1.24c.73-4.58-1.06-1.48-1.06-1.48-1,1.5-.98,2.52-1.7,4.5a31.306,31.306,0,0,0-1.9,3.85l-.26.6a.682.682,0,0,1-.13.24.764.764,0,0,1-.44.3c-.07.12-.22.12-.36.08-.07-.02-.14-.05-.23-.08a1.562,1.562,0,0,0-.4-.1l-.13-.2a.8.8,0,0,1-.52-.2l.02-.03c-.28-.02-.52-.2-.66-.2l.02-.03-.3-.1.07-.02a4.28,4.28,0,0,1-1.24-.49l-.03.15a3.836,3.836,0,0,0-.54-.3c.35-.53.68-1.07,1-1.62-.3.23.22-.64.7-1.56l.17-.05c1.7-3.6.98-1.14,2.56-4.8l.13-.7a20.413,20.413,0,0,1,1.05-2.6c.1-.24.24-.5.4-.95a5.023,5.023,0,0,0,.58.27c.03.06.2.07.2.05l1.38.86.84.5a2.465,2.465,0,0,1,.78,1.14c.13.38.1.72.37.75a.472.472,0,0,0,.3-.14,2.333,2.333,0,0,1-.07.25l-.22.5a8.476,8.476,0,0,0,2.45.88,10.34,10.34,0,0,0,3.9-.14,8.29,8.29,0,0,1,2.2-.35c.06.01,2.62.26,1.14.2-.13-.01-.35-.03-.33-.05l-.18.06c.73.13,1.4.2,2.08.3l1.03.13.56.08a1.49,1.49,0,0,0,.21.02h.1l.26.02c-.1-.01-.22-.03-.3-.04l-.07-.01a.573.573,0,0,1-.14-.01c-.06-.01-.1-.02-.16-.03-.16-.04-.2-.06,0-.04.33.06.5.03.74.07l.68.1h-.3c.68.1,1.36.23,2.05.35l-.27-.12a16.484,16.484,0,0,0,2.5.5c.53.04-.94-.28.13-.1.65.16,1.56.33,2.32.57a3.324,3.324,0,0,1,.48.2c.13.1.15.1.15.16.1.07.08.1.05.14l.01.02ZM326.3,214.8h0l-.07.35Z"/>
    <path id="Path_16501" data-name="Path 16501" d="M191.4,260.6h0l.13.1Zm-2.4-2.53Zm-12.63-20.5h0l-.36.06Z"/>
    <g id="Group_1132" data-name="Group 1132">
      <path id="Path_16502" data-name="Path 16502" d="M205.54,195.1l.08-.18C205.6,194.92,205.57,194.96,205.54,195.1Zm24.16-42.6c.01-.01.01-.03.02-.04C229.7,152.49,229.7,152.5,229.7,152.5Zm-21.08,35.6h0a.149.149,0,0,0-.01.06Z" fill="#fff"/>
      <path id="Path_16503" data-name="Path 16503" d="M206.12,197.65l1.46-5.78,1.05-3.75c.07-.6.52-1.56.65-2.26l.15-.23a2.34,2.34,0,0,1,.25-.73l.01.02c.08-.36.26-.73.3-.9v.02l.15-.4v.08a9.55,9.55,0,0,1,.65-1.73h-.1c.58-1.08.6-1.57,1.15-2.53l.01.02c.4-1.36,1.13-1.9,1.58-3.3-.06.17.07-.05.1-.02.3-.58.66-1.2.5-1.3.25-.42.24-.3.33-.34-.07-.04.12-.4.3-.74l-.06.17.52-.95-.23.1c.34-.47.22-.03.5-.5l-.1-.06c.46-.65.87-.93,1.36-1.52l.68-.98.75-.97,1.5-1.97,2.98-3.7.15-.05c.14.03.36-.77.52-.8l.17-.3c.08-.06.23-.2.14-.06a1.67,1.67,0,0,0,.3-.48l.28-.22c.83-.96,1.37-1.92,2.22-2.96a51.114,51.114,0,0,0,3.8-5.12c1.3-2.08,3.43-4.07,4.7-6.26a.745.745,0,0,0,.14-.26l1.33-1.88,2.4-3.85c.8-1.57.94-2.2-1.75,1.06l.01-.06a14.739,14.739,0,0,0-1.57,2.44c-.22.01-.6.84-.8,1.05v-.03c-.33.7-1,1.22-1.33,1.9a.3.3,0,0,1,.07-.2c-.3.45-.7,1.07-.8,1.04l-2.2,3.22.01-.06a8.073,8.073,0,0,1-.62.95c-.03.02-.06.04-.06.03a17.551,17.551,0,0,1-1.1,1.56l-.07-.02-.6.82.24-.3c.07.22-.55.55-.9,1.2-.44.53-.55,1.34-1.06,1.86-.14.32.07-.32-.2.12-.1-.05.1-.23-.04-.17-.27.43-.58.6-.9,1.12l-.07-.03c-.4.72-1,1.15-1.24,1.65-.46.7-.52.3-.94,1.08l-.3.2c-.24.28-.07.3-.36.58-.03-.06-.36.38-.26.15-.66.67-1.06,1.57-1.95,2.43-.07.3-.5.72-.56.94-.06-.01-.78.96-.44.35a.48.48,0,0,1,.1-.12l-.01-.1a11.3,11.3,0,0,0-1.18,1.57c.15-.15.3-.36.24-.2l-.4.5.04-.14-.63.73.14-.06c-.32.34-.53.4-.78.87-.1.23.36-.28.07.12-.45.48-1,1.24-1.5,1.9.1-.01-.01.17-.12.36l-.08-.02c-.4.77-.3.17-.72.93v.17c-.26.74-.34.28-.6,1.12.16-.3.22-.05-.02.3l-.01-.13c-.1.2-.1.3-.2.4.04-.14-.05-.12-.2.18l.04-.24-.2.62c-.32.4-.62,1.12-.8,1.25a5.641,5.641,0,0,0-.53,1.2c.03-.22-.25.3-.25.1a3.9,3.9,0,0,1-.6,1.3l.02-.06c-.58,1.06-.73,1.93-1.26,2.87.1-.01-.17.5-.01.4-.3,1.08-.94,1.82-.77,2.3a4.2,4.2,0,0,1-.4.77l.03-.12-.6,1.83a3.324,3.324,0,0,1-.18,1.03c0-.2-.07.04-.14.26.04-.15.03-.2-.1.08a.546.546,0,0,1-.01.18c-.01,0-.01.01-.02,0-.1.38-.05.32.01.15.01.01.02,0,.06-.05-.2.37-.3,1.1-.43,1.1-.32,1.14-.43,1.98-.62,2.95-.08.1-.07-.14-.02-.42l-.15.68c-.08-.03.05-.4.1-.6-.33.78-.3,1.7-.62,2.6l.02.2-.02.05c.03,0,.03.23.01.37-.1.12-.16-.04-.26.43a6.023,6.023,0,0,0-.24,1.57c.06-.26.08-.17.1-.05a4.044,4.044,0,0,0-.14.55l-.1.01c.1-.08-.02.64,0,.73-.1.12.01-.38-.03-.45l-.23,1.43c-.01.52.1-.08.15.18a9.249,9.249,0,0,1-.2,1.4l.1-.15a9.5,9.5,0,0,1-.28,1.92c-.02,3.2.3,3.52.44,3.08a11.456,11.456,0,0,0,.34-1.66c.44-2.4.38-3.68.85-6.6v.04Zm58.98-66.6.04.23C265.15,131.27,265.15,131.21,265.1,131.05Zm7.18,56.73c0,.02.01.03.01.05A.175.175,0,0,1,272.28,187.78Zm-5.86-47.97h0c-.01-.03-.01-.05-.02-.06Z" fill="#fff"/>
      <path id="Path_16504" data-name="Path 16504" d="M263.13,128.85l2.1,6.58,1.2,4.36c.3.64.44,1.86.7,2.63l-.01.32a2.743,2.743,0,0,1,.2.87h-.02c.14.4.2.87.27,1.07l-.02-.01.1.5-.04-.08c.18.7.3,1.46.4,2.12l.08-.07c.15,1.42.42,1.9.47,3.2l-.02-.01c.43,1.58.23,2.56.6,4.2-.05-.2-.04.1-.06.08.1.77.2,1.6.37,1.58.05.56-.01.46-.07.54.07-.01.15.47.2.9l-.05-.2.15,1.25.12-.26c.02.67-.16.18-.07.82l.12-.02c.05.93-.08,1.48-.1,2.38.25,3.72.82,7.7.82,11.17l-.08.16c-.12.07.25.94.13,1.08l.08.4c-.02.1-.03.35-.07.16a2.614,2.614,0,0,0,.1.65l-.06.4c.02,1.47.24,2.7.28,4.26-.07,1.87.23,5.36.38,7.37.3,2.83-.13,6.14.15,9.04a.99.99,0,0,0,.04.34l.02,2.66s.02,3.22.13,5.22.37,2.78.9-2.12l.03.07a17.122,17.122,0,0,0-.08-3.38c.17-.16,0-1.2.05-1.54l.01.03c-.15-.9.08-1.83-.06-2.7a.394.394,0,0,1,.07.25,4.714,4.714,0,0,1,.01-1.53,41.734,41.734,0,0,0-.27-4.52l.03.06a10.27,10.27,0,0,1-.12-1.3c.01-.03.02-.08.02-.07-.13-.6-.08-1.73-.14-2.2l.07-.03-.06-1.18v.44c-.2-.15.08-.9-.08-1.75-.01-.8-.45-1.6-.4-2.44-.1-.4.16.34.06-.25.1-.02.07.27.14.12-.07-.58.05-.96-.05-1.67l.07-.03c-.18-.93.01-1.77-.16-2.4-.12-.96.2-.66-.02-1.66l.08-.4c-.01-.43-.14-.3-.12-.78.07.03.02-.6.1-.33.03-1.1-.28-2.18-.2-3.62-.14-.3-.1-1.02-.22-1.25.05-.04-.1-1.43.08-.64.01.07.02.2,0,.18l.08.1a14.308,14.308,0,0,0-.22-2.27c-.01.24.02.56-.04.35l-.04-.75.07.15-.04-1.1-.07.16a3.864,3.864,0,0,0-.04-1.35c-.08-.27-.06.52-.13-.05-.01-.73-.01-1.82-.07-2.75-.08.1-.1-.16-.13-.4l.07-.04c-.18-.97.13-.37-.03-1.34l.06.08-.18-.24c-.24-.87.1-.5-.2-1.45.05.4-.15.2-.16-.28l.08.1a3.507,3.507,0,0,1-.08-.52c.05.15.1.07.06-.3l.12.25-.2-.72c.02-.57-.17-1.46-.1-1.7a6.417,6.417,0,0,0-.06-.64,2.569,2.569,0,0,0-.2-.84c.1.24.04-.44.14-.26a5.823,5.823,0,0,1-.28-1.6l.02.07c-.1-1.4-.44-2.33-.56-3.57-.08.07-.14-.6-.22-.4-.33-1.25-.17-2.36-.62-2.74a4.449,4.449,0,0,1-.1-1l.05.13-.48-2.18c-.1-.4-.3-.4-.43-1.13.12.2.04-.07-.03-.34.05.17.1.2.04-.14a1.832,1.832,0,0,1-.1-.2s0-.02.01-.01c-.13-.44-.13-.35-.1-.15-.01-.01-.02.01-.02.08-.03-.48-.32-1.28-.23-1.36-.37-1.32-.77-2.22-1.12-3.3.02-.14.14.1.25.4l-.24-.77c.08-.02.17.43.26.67-.13-.97-.73-1.85-.96-2.96l-.13-.2v-.07c-.03.01-.15-.2-.22-.36.01-.17.16-.04-.04-.57a13.087,13.087,0,0,0-.7-1.7c.1.3.03.22-.04.1-.1-.26-.1-.43-.2-.62l.08-.06c-.04.13-.37-.64-.45-.72,0-.17.22.38.3.42l-.67-1.55c-.32-.5-.04.14-.23-.1a13.65,13.65,0,0,1-.72-1.48l.01.2a14.355,14.355,0,0,1-1-2,12.54,12.54,0,0,0-2.12-2.6c-.38-.3-.45-.2-.33.04.2.45.88,1.7.88,1.7l1.7,3.2.84,1.62c.3.6.6,1.26.93,2.04h0ZM215.6,208.1l.16.03C215.76,208.12,215.72,208.1,215.6,208.1Zm41.03,0a.06.06,0,0,0,.04-.01C256.64,208.09,256.63,208.09,256.63,208.1Zm-34.73,1.18a.434.434,0,0,0-.05.01Z" fill="#fff"/>
      <path id="Path_16505" data-name="Path 16505" d="M213.64,209.2l5,.14,3.27-.04c.5-.13,1.38,0,1.97-.1l.23.07a1.771,1.771,0,0,1,.65-.02l-.01.02c.3-.05.65-.02.8-.05l-.01.02.37-.01-.06.03a10.193,10.193,0,0,1,1.55-.04l-.04-.1c1.03.1,1.4-.08,2.33.03l-.01.02c1.17-.23,1.85.16,3.06-.06-.15.03.06.04.05.07.56-.02,1.15-.04,1.16-.2.4,0,.33.05.38.12,0-.07.35-.1.67-.1l-.15.03.9-.03-.18-.14c.48.04.12.17.58.14l-.01-.12a12.351,12.351,0,0,1,1.7.3l8.04-.04.1.1c.05.13.7-.2.78-.07l.3-.06c.08.02.25.05.1.08a1.571,1.571,0,0,0,.47-.05l.3.08c1.06.06,1.95-.1,3.06-.06a39.315,39.315,0,0,0,5.3-.07c2.03-.2,4.4.32,6.48.1a.383.383,0,0,0,.24-.04l1.9.02s9.24.05,2.22-1.02l.05-.03a8.922,8.922,0,0,0-2.42.06c-.1-.17-.86-.02-1.1-.07h.02c-.64.13-1.3-.1-1.92.01a.217.217,0,0,1,.18-.06c-.45.02-1.06.06-1.1-.04a23.733,23.733,0,0,0-3.24.14l.05-.03a5.611,5.611,0,0,1-.94.07c-.02-.01-.05-.02-.05-.03a14.625,14.625,0,0,1-1.58.06l-.02-.07-.85.02.32.01c-.1.18-.64-.12-1.25,0-.57-.02-1.16.38-1.76.3-.28.1.25-.14-.17-.07-.01-.1.2-.06.1-.14-.42.05-.68-.1-1.2-.03l-.02-.07c-.67.14-1.27-.1-1.7.03-.7.06-.46-.22-1.2-.08l-.28-.1c-.3-.02-.22.12-.56.07.02-.06-.43-.05-.23-.1-.77-.1-1.57.14-2.6-.03-.22.12-.73.05-.9.14-.03-.05-1.03-.01-.45-.13.05-.01.14-.01.13.01l.07-.07a8.061,8.061,0,0,0-1.63.05c.17.02.4.02.25.07l-.53-.01.1-.06-.8-.04.1.08c-.4-.04-.53-.17-.97-.06-.2.06.37.1-.04.13l-1.97-.15c.06.1-.12.08-.3.1l-.02-.07c-.7.1-.26-.16-.96-.08l.06-.05-.2.16c-.63.15-.34-.15-1.04.05.28-.01.13.16-.2.13l.1-.07a1.387,1.387,0,0,1-.38.03c.1-.04.06-.1-.22-.1l.2-.1-.53.13c-.4-.08-1.05.02-1.22-.08a3.82,3.82,0,0,0-1.07.06c.18-.07-.3-.1-.17-.18a2.817,2.817,0,0,1-1.16.06h.05c-1-.1-1.7.12-2.58.01.04.1-.43.04-.3.15-.92.1-1.67-.23-2,.12a2.252,2.252,0,0,1-.7-.1l.1-.02-1.6.02c-.3.03-.34.2-.86.15.17-.06-.04-.05-.24-.05.12-.01.16-.03-.1-.08a.736.736,0,0,1-.14.04.035.035,0,0,1-.01-.02c-.32.02-.27.04-.12.05-.01.01.01.02.05.04-.34-.08-.94.01-.98-.1l-2.5.18c-.1-.06.1-.1.33-.13l-.58.02c.01-.08.33-.05.5-.06-.7-.13-1.42.13-2.22.01l-.17.06h-.05c0,.03-.18.08-.3.1-.1-.07.01-.16-.4-.16a5.359,5.359,0,0,0-1.3.07c.22.01.15.05.05.08-.2,0-.3-.07-.47-.04l-.02-.1c.08.1-.52.1-.6.13-.1-.07.3-.06.36-.1h-1.2c-.43.07.08.1-.13.17a6.5,6.5,0,0,1-1.18.03l.14.08a5.169,5.169,0,0,1-1.6-.03c-5.27.68-1.1.93-1.1.93a41.354,41.354,0,0,0,5.6-.1v-.06Zm92.1-23.9a13.782,13.782,0,0,0-1.54,2.87l.25-.18a14.61,14.61,0,0,0-1.06,2.14c-.07.43.43-.46.14.36l-1.1,2.17c-.03-.13.38-.88.17-.73-.01.16-.56,1.25-.35,1.17l-.16-.04a5.07,5.07,0,0,1-.5.8c-.05.2-.06.35.16-.04a14.677,14.677,0,0,1-1.1,2.4c-.37.72-.4.43-.6.58-.1.22-.2.58-.14.6l-.06.08-.06.35c-.93,1.36-1.22,2.87-2.06,4,.14-.33.5-.9.38-.97l-.5,1.06c.2-.44.3-.82.12-.7l-2.06,4.62c-.2-.01-.63,1.14-1.07,1.7.07-.07.1-.08.1-.06.15-.27.24-.35-.03.25-.01-.01-.02,0-.03,0a1.088,1.088,0,0,0-.07.3c-.3.43-.3.34-.2.1-.18.35-.36.74-.3.4a5.2,5.2,0,0,0-.57,1.66l-1.45,2.9.07-.2a6.023,6.023,0,0,0-.8,1.2c.2.86-1,1.97-1.7,3.7.27-.12-.24.7-.07.68a15.216,15.216,0,0,0-1.17,2.26l-.54,1.17-.3.6-.08.14-.04.04v-.01a.165.165,0,0,0-.1.08c-.01.02-.03.04-.03.06.02.01.05.02.07.03a.419.419,0,0,0,.16.01.67.67,0,0,0,.2,0c-.3,0,.52.47.17.42a9.59,9.59,0,0,1,1.98.88,24.215,24.215,0,0,0,2.15,1.18l1.05.23h-.4c.52.2.57.35.34.32a3.663,3.663,0,0,0,.7.25l-.2.04c.6.32.97.13.47-.04,1.36.17.67.43,1.93.58l.28-.1c1.37.24.4.44,1.8.62v.13c.36.06.7.15.62-.02l3.8,1c.38.02-.12-.13.1-.2.1-.08.1-.06.16-.02.04.01.12.01.2-.1a.444.444,0,0,1-.13-.02l.03-.04.1-.16.6-1.05V227l.5-.96c.06-.3-.13.1-.32.4a19.482,19.482,0,0,1,1.4-3l.05.18c-.03-.03-.1.13-.14.23-.35,1.13.5-.7.6-.72.01-.37.6-1.24.6-1.74,1.18-1.72,1.55-3.34,2.4-4.67-.1.4.3-.42.38-.34.38-.58.1-.53.4-1.08l.4-.43c.44-1.4.65-.8,1.2-2.1.2-.9,1.1-1.8,1.5-3.14l.13.02c.36-1,.8-1.37,1.12-2.16.2-.14-.03.22.12.26.28-.82.14.32.27-.26.67-1.02.58-2.4,1.13-3.43.37-1.2,1.3-1.95,1.1-2.3l-.3.57.73-1.55.12.01c.24-.66,1.1-2.08,1.32-2.93,0,.01.04-.04.08-.07a13.3,13.3,0,0,0,.73-1.77v.1a20.38,20.38,0,0,1,1.14-2.8l.8-1.66.4-.8.1-.23.04-.1c.07,0,.26-.12.1-.2a1.433,1.433,0,0,0-.2-.14l-.56-.4a.5.5,0,0,0,.35.13c-1.08-.58-1.96-1.68-3.15-2.2h.05c-.36-.35-1.76-.94-1.8-1.3l-1-.46-.15-.08-.16-.1-.22-.14-.46-.3-2.2-1.5.1.01-3.65-2.97-.57-.3-1.3,2.5c-.27.58-.54,1.3-.87,2.15l-.03.07Zm-104.3,20.12-2.43.2a14.626,14.626,0,0,0-3.4-.15l.3.15a16.189,16.189,0,0,0-2.5-.03c-.44.12.63.2-.28.28l-2.54-.06c.1-.08,1-.04.77-.17-.16.06-1.43.03-1.26.2l-.04-.16a6.735,6.735,0,0,1-1-.1c-.2.03-.36.1.1.13a14.38,14.38,0,0,1-2.77.03c-.84-.02-.58-.16-.82-.3-.25.01-.64.07-.63.13l-.1-.02-.36.1c-1.7-.25-3.25.14-4.7-.13.38-.02,1.07.06,1.08-.07h-1.22c.5-.02.9-.1.7-.2l-5.27.14c-.08-.18-1.36-.08-2.07-.23.1.03.12.05.1.07.32.02.44.06-.25.08.01-.01-.01-.02-.01-.03a1.224,1.224,0,0,0-.3.06c-.54-.1-.46-.12-.2-.13-.4-.01-.86-.01-.5-.1a5.662,5.662,0,0,0-1.82.2l-3.37-.06.2-.02a7.47,7.47,0,0,0-1.5-.2c-.72.55-2.3-.06-4.25.07.24.2-.75.08-.67.23a19.9,19.9,0,0,0-2.65-.08l-1.34.01h-.2l-.1-.03c-.01-.01,0-.01,0-.02-.1-.06-.1.08-.08.17v.6a2.611,2.611,0,0,0,.06.5c-.12-.3-.22.7-.32.33a11.049,11.049,0,0,1,0,2.25,20.8,20.8,0,0,0-.16,2.52l.26,1.07-.17-.37c.05.56-.05.68-.13.45a4.627,4.627,0,0,0,.1.77l-.14-.17c.01.7.34,1,.26.4.48,1.44-.08.88.3,2.17l.3.35-.1-.12c.33,1.43-.24.57.14,2l-.12.06c.1.38.14.75.26.6l.22,1.87.05.47.03.35v.28a1.393,1.393,0,0,0,.13.06c.3-.01-.05-.12.12-.2a.572.572,0,0,1,.07-.04c.01,0,.01-.01.03-.01.05,0,.1.01.13.01a3.027,3.027,0,0,1,.45.07l.95.23-.22-.15,1.66.2-.24.08,1.12.1c.33-.06-.15-.08-.5-.15a23.348,23.348,0,0,1,3.44.14l-.15.1c.01-.03-.17-.05-.27-.04-1.23.12.9.18.94.27.36-.13,1.43.05,1.9-.13,2.14.4,3.84.07,5.47.3-.43.08.53.1.48.2.72.1.54-.13,1.2-.08l.6.2c1.53-.18,1.03.26,2.5.2.95-.2,2.2.23,3.63.04l.04.13c1.1-.08,1.65.17,2.54.12.23.13-.22.06-.2.22.9-.1-.24.26.37.13,1.26.18,2.53-.46,3.74-.4,1.3-.17,2.4.36,2.65.06l-.67-.04,1.8.02.04.1c.73-.06,2.45.14,3.35-.02-.01.01.05.02.1.05a13,13,0,0,0,2-.07l-.1.04a21.525,21.525,0,0,1,3.13-.12l2.47.04h.17v-.06c.07.07.12-.03.14-.18l.06-.6.05-.73c-.02.3.05.33.07.38-.06-1.28.43-2.66.25-4l.02.05a2.755,2.755,0,0,0,.03-.54v-.8c.03-.5.08-.94.23-1.04a23.874,23.874,0,0,1,.37-5.1l.04.1,1.2-4.8.05-.65-2.9-.1.04.07Zm.18-96.87.16-.1C201.77,108.44,201.73,108.46,201.62,108.55Zm42.18-7.25c.01,0,.03.01.04.01A.158.158,0,0,0,243.8,101.3Zm-35.93,4.07-.04.04Z" fill="#fff"/>
      <path id="Path_16506" data-name="Path 16506" d="M200.67,110.77l4.32-3.3,2.87-2.08c.4-.4,1.27-.8,1.76-1.22l.25-.07a2.327,2.327,0,0,1,.6-.4v.02c.26-.2.6-.35.73-.46v.02l.35-.2-.05.06a12.96,12.96,0,0,1,1.46-.84l-.08-.06c1.04-.4,1.34-.72,2.3-1.04v.03a4.631,4.631,0,0,1,.76-.43l.74-.23a6.268,6.268,0,0,0,1.56-.6c-.14.08.08.02.07.04.55-.25,1.17-.4,1.13-.58.43-.1.36-.04.43.01-.02-.07.34-.2.67-.3l-.15.07.94-.27-.22-.1c.52-.1.17.13.64-.03l-.03-.1a12.838,12.838,0,0,1,1.86-.01,36.951,36.951,0,0,1,4.38-.37c.74-.01,1.47.07,2.2.12a11.342,11.342,0,0,1,2.07.3l.1.1c.03.14.76-.07.85.07l.32-.01c.08.04.26.1.1.1a1.868,1.868,0,0,0,.5.03l.3.13c1.1.32,2.08.4,3.24.74.66.32,1.66.6,2.65.96l2.72,1.04c2.1.76,4,2.58,5.9,3.77a.551.551,0,0,0,.23.13c.55.4,1.04.9,1.57,1.34,0,0,.12.1.3.28l.75.7,1.82,1.86c.54.56.9.94.95.76s-.23-1-1.37-2.6l.06.02a8.658,8.658,0,0,0-1.97-1.85c.02-.2-.7-.64-.88-.86l.03.01c-.63-.35-1.1-1-1.7-1.32a.3.3,0,0,1,.2.07c-.4-.28-1-.62-.98-.73a15.752,15.752,0,0,0-3.17-1.76h.06a8.331,8.331,0,0,1-.97-.4c-.02-.02-.05-.05-.04-.05-.47-.12-1.24-.6-1.62-.7v-.07l-.88-.35.32.15c-.18.12-.62-.38-1.3-.53-.6-.23-1.35-.04-1.95-.34-.32-.02.3-.05-.16-.13.01-.1.23.01.13-.1a7.952,7.952,0,0,0-1.27-.4v-.08c-.76-.05-1.35-.43-1.86-.42-.76-.13-.46-.33-1.28-.32l-.3-.15c-.34-.07-.26.08-.63-.03.03-.06-.47-.13-.24-.15a7.876,7.876,0,0,0-1.33-.2,7.317,7.317,0,0,1-1.54-.17c-.26.1-.82-.02-1,.06-.03-.06-1.14-.1-.5-.17.06,0,.15,0,.15.03l.08-.07c-.64-.2-1.2.08-1.84.05.2.02.45.01.28.06h-.6l.12-.06h-.9l.13.07c-.44-.02-.6-.18-1.1-.01-.22.1.42.04-.03.13l-2.2.17c.08.07-.12.1-.32.15l-.04-.07c-.77.22-.32-.12-1.07.15l.06-.07-.17.2c-.65.32-.4-.05-1.12.34.3-.1.18.12-.2.2l.07-.1a2.155,2.155,0,0,1-.4.14c.1-.07.04-.12-.26-.03l.18-.14-.53.28c-.46.06-1.1.4-1.3.38a5.03,5.03,0,0,0-1.1.47c.16-.13-.36.03-.24-.1a3.018,3.018,0,0,1-.56.3,2.751,2.751,0,0,1-.62.25l.05-.03c-1.04.4-1.68.88-2.6,1.23.08.06-.4.26-.24.3-.84.58-1.75.7-1.9,1.17a4.136,4.136,0,0,1-.73.3l.08-.07-1.5.95c-.26.2-.2.36-.72.63.12-.15-.07-.02-.25.1.1-.1.13-.13-.13,0-.02.04-.07.08-.1.13,0,0-.02,0-.02-.01-.28.22-.22.2-.08.12,0,.01.02.02.07,0-.35.15-.85.6-.95.54a26.038,26.038,0,0,0-2.12,1.77c-.1.02.02-.15.22-.33l-.5.4c-.04-.07.26-.26.4-.4-.68.37-1.18,1.04-1.93,1.52l-.1.17-.05.03c.02.02-.1.2-.2.28-.14.03-.1-.13-.43.15a5.7,5.7,0,0,0-1.06,1c.2-.15.16-.07.1.02-.16.15-.3.18-.4.3l-.08-.06c.12.01-.37.45-.4.54-.14.03.22-.27.22-.35l-.98.9c-.3.37.12.01.01.22a7.262,7.262,0,0,1-.93.9l.17-.04a6.84,6.84,0,0,1-1.3,1.2c-1.8,2.3-1.76,2.72-1.4,2.5a9.723,9.723,0,0,0,1.2-.98c1.75-1.44,2.4-2.44,4.4-4.26Z" fill="#fff"/>
    </g>
  </g>
</svg>
