<svg xmlns="http://www.w3.org/2000/svg" width="188.602" height="147.757" viewBox="0 0 188.602 147.757">
  <g id="_60" data-name="60" transform="translate(-151.762 -95.545)">
    <path id="Path_16547" data-name="Path 16547" d="M339.88,235.8c.2-.8-1.7-2.4-3.9-3.9a30.515,30.515,0,0,1-6.2-5.8c-.8-.6,1.9-.2,3.5.2,1.8.3,3.7-.5.9-1.9s-4.9-3-5.7-3.3-3.6-1.8-5.9-2c-1.5-.1-3.4.2-6-2.1-4.1-3.9-16.1-20.1-22-28-2.9-4-10.6-14.1-12.2-17.8-3.52-5.23-9.63-15.22-14.72-23.65L245.34,161.7l16.44,21.9c1.9,2.6,10.4,11.9,21.2,21.3a368.15,368.15,0,0,0,31,24.1,22.526,22.526,0,0,0,11,8.5c7.3,2.5,8.3,3.3,9.4,3.3,1.8,0,1.1-1.8,1.1-1.8s2.2.7,3-.3-.3-2-.3-2S339.58,236.9,339.88,235.8ZM178.18,135.2a41.722,41.722,0,0,0-12.2,11c-3.3,4.5-5.4,12.7-7.6,26.8a404.562,404.562,0,0,0-4,43.7,22.357,22.357,0,0,0-1.5,13.8c1.6,7.6,1.5,8.9,2.1,9.8,1,1.5,2.1,0,2.1,0s.5,2.1,1.9,2.4c1.2.2,1.6-1.3,1.6-1.3s.5,1.3,1.7,1c.8-.3,1.2-2.7,1.3-5.4.1-2.2,1.7-7.3,1.9-8.3.1-1,1.1,1.5,1.6,3.1.7,1.7,2.3,2.9,2.1-.3-.2-3.1,0-5.7-.1-6.5a23.026,23.026,0,0,0-1.3-6.1c-.6-1.4-2.4-3.3-1.8-6.7.8-5.8,6.5-20.9,9.9-30.2,2.5-6.7,5.4-16.1,7.8-18.9,10-8.8,15.62-12.16,15.62-12.16S194.68,123.3,178.18,135.2Z" fill="#fff"/>
    <path id="Path_16548" data-name="Path 16548" d="M163,153.45l-.25.66A5.8,5.8,0,0,0,163,153.45Zm15.18,20.8c.02-.05.03-.1.05-.16Zm-21.62,6.23c0-.02,0-.03.01-.04.01-.06.01-.13.02-.2l-.03.24Zm38.7-29.45.05.05A.173.173,0,0,0,195.26,151.03Zm-.93-12.77h0l.07.06Zm77.1,70.58h-.08l-.4.01.48-.01Zm-7.78-23.63.5.64A4.175,4.175,0,0,0,263.65,185.21Zm22,22.98-.03-.03c-.06-.04-.12-.1-.17-.13Zm24.2,9.9-.1.05C309.77,218.15,309.8,218.14,309.85,218.09Zm8.27-.37h-.01c0,.02.01.02.01.02Zm-12.42,2.34h0a.06.06,0,0,0,.01-.04v.04ZM161,207.88l-.1-.06C160.91,207.85,160.94,207.87,161,207.88Zm5.4,6.26Zm-9.5-8.32h0c.02-.01.02-.01.03-.01Zm182.2,29.83c-.02,0-.04-.01-.07-.06A.269.269,0,0,0,339.1,235.65Z"/>
    <path id="Path_16549" data-name="Path 16549" d="M340.26,235.33a1.239,1.239,0,0,1-.42,1.14,1.306,1.306,0,0,0,.35-.87,1.246,1.246,0,0,0-.15-.54l-.17-.37c-.07-.13-.1-.33-1-1.13l-.06.1c-1.26-1.15-2.43-1.9-3.4-2.7-1-.84-1.93-1.73-3.05-2.87l-1.52-1.62.3.03,1.23.2.6.13a2.322,2.322,0,0,0,.38.07c.12.02.24.03.36.04a4.573,4.573,0,0,0,.74-.01,3.075,3.075,0,0,0,.95-.23,1.247,1.247,0,0,0,.7-.65,1,1,0,0,0-.1-.93,2.571,2.571,0,0,0-.7-.73,4.714,4.714,0,0,0-.65-.4l-1.15-.6-2.22-1.28-2.25-1.36-.35-.16-.28-.1-.58-.26-1.2-.52a18.848,18.848,0,0,0-2.5-.85,10.1,10.1,0,0,0-2.64-.3,6.274,6.274,0,0,1-1.94-.34,2.874,2.874,0,0,0,.2-1,2.117,2.117,0,0,0-.68-1.5,4.868,4.868,0,0,0-1.57-1.5c-.01-.05-.15-.08-.16-.06l-.92-.87-.67-.58-.3-.25-.16-.13a1.9,1.9,0,0,0-1.59-.33,1.433,1.433,0,0,0-.58.3l-2.2-2.75-.27-.5c-.05-.26-2.3-2.6-2.5-3.05l-.94-1.12c-.23-.34-.74-1.04-.27-.48l-1.48-1.84-.8-1.2-9.33-12.33c-1.92-2.77-4.84-6.65-7.7-10.65-1.42-2-2.84-4.03-4-6l-.4-.73-.18-.36a4.581,4.581,0,0,0-.24-.44l-.9-1.35-1.64-2.47c-3.85-5.8-7.7-12.47-11.54-18.95.1-.06.2-.1.33-.17v.04c1.65-1.5,3.07-1.65,4.8-3.17-.2.2.14,0,.14.04.86-.6,1.8-1.2,1.65-1.46l.44-.26a1.246,1.246,0,0,1,.27-.12c.12-.04.15.01.26,0-.07-.06.3-.34.75-.67.02-.01.04-.03.06-.04a1.332,1.332,0,0,0,.2-.14l-.14-.23c-.01-.01-.01-.02-.02-.03l.13.16-1.35-2v.02a2.925,2.925,0,0,0-.18-.26,1.254,1.254,0,0,0-.23-.4l-.04.03c-.15-.2-.3-.38-.46-.56-.13-.26-.25-.53-.36-.8l-.14-.35a3.364,3.364,0,0,0-.2-.44c-.2-.4-.4-.8-.68-1.3l-.33-.53-.62.4c-.64-.72.63.56-.22-.56.1-.12.44.5.35.12-.8-1.12-1.08-2-2.1-3.35l.07-.13c-1.4-1.74-2.15-3.6-3.14-4.7-1.35-1.85-.54-1.48-2.06-3.33l-.38-.86c-.54-.86-.58-.5-1.14-1.47.13,0-.73-1.23-.28-.74-1.32-2.2-3.08-4.2-5-7.02-.62-.45-1.63-1.84-2.1-2.15.02-.14-2.28-2.56-.84-1.27.12.1.3.33.27.34l.24.1a32.235,32.235,0,0,0-3.85-3.9c.38.43.93.96.5.66-.42-.43-.85-.84-1.28-1.25l.34.18c-.63-.63-1.3-1.23-1.95-1.83l.2.34a11.107,11.107,0,0,0-2.47-2.13c-.6-.32.88.9-.24.08a33.477,33.477,0,0,0-5.5-3.76c.12.23-.4-.07-1-.3v-.14a5,5,0,0,1-1.5-.7,3.314,3.314,0,0,0-1.52-.64l-.46.03c-2.15-.34-1.06-.62-3.52-.74.95.13.4.32-.75.12l.3-.08c-.65-.07-.87-.03-1.3-.08.4-.04.22-.16-.74-.2l.65-.1c-.6.02-1.22.1-1.83.18a26.813,26.813,0,0,0-4.2.4,11.736,11.736,0,0,0-1.55.4,8.1,8.1,0,0,0-1.95.83c.5-.35-1.03.28-.65-.03-.68.42-2.65,1.6-3.46,2.04l.14-.1a23.161,23.161,0,0,0-2,1.34l-1.46,1.36c-.16.03-.48.13-.78.22.36-.12.46-.2-.3-.03a2.126,2.126,0,0,1-.4.2c-.01-.01-.04,0-.03-.02-.93.36-.75.33-.3.2-.02.02.03.03.17.01-1.03.2-2.7.98-2.87.86-2.76,1.12-4.62,2.14-6.84,3.2-.3.03.2-.28.84-.6l-1.58.73c-.04-.13.9-.47,1.37-.7-2,.6-3.85,1.96-6.1,2.9l-.4.33-.14.05c.03.05-.4.37-.72.56-.36.06-.1-.25-1.17.34a23.94,23.94,0,0,0-3.38,2.1c.6-.33.44-.16.2.02-.52.3-.88.4-1.25.67l-.13-.1c.28,0-1.26.96-1.42,1.13-.35.08.74-.58.83-.73-2.05,1.3-1.03.63-3.07,1.94-1.03.8.28,0-.17.45-.95.63-1.8,1.34-2.96,1.97l.42-.1a34.136,34.136,0,0,1-4.06,2.66l-2.63,2.16-3.14,2.24c-.07-.03-.1-.01-.1.08l-.2.15.32.42c-.4.5-.22.54.23.32h.02c.53,1.03,1.66,2.92,3.62,5.98l-.12-.08c.17.25.34.48.5.7l-2.14,1.56-1.12.7c-.38.26-.78.5-1.16.8a42.6,42.6,0,0,0-9.5,9.18,22.213,22.213,0,0,0-3.1,5.42,46.68,46.68,0,0,0-1.63,4.6,93.085,93.085,0,0,0-2.48,10.94c-.85,4.67-1.6,9.68-2.16,14.3-.16,2.2-.73,6.04-.9,8.65l-.17,1c-.05.9-.14,1.95-.25,2.84l-.02-.06c-.06,1.34-.24,2.84-.26,3.5l-.02-.06-.12,1.62-.01-.28-.47,6.85.1-.17-.13,1.6a1.037,1.037,0,0,0-.12.03V206a1.7,1.7,0,0,0-.4.13l.05-.07a3.29,3.29,0,0,0-1.27,1.24l.15.03a1.345,1.345,0,0,0-.26.7,2.012,2.012,0,0,0,.03.54,1.472,1.472,0,0,1-.04.74h-.04c.38.77-.26,1.22.1,2.02-.05-.1-.07.04-.1.03.04.37.06.76.35.77,0,.27-.1.22-.2.25.12,0,.18.23.18.44l-.05-.1.04.7c.08-.07.16-.13.23-.2-.05.44-.3.15-.18.6l.2-.07a2.162,2.162,0,0,0,.72,1.55c.03.02.07.02.1.04v1.34c-.1.2-.17.4-.25.6l-.26.68c-.17.44-.32.88-.46,1.33q-.41,1.3-.7,2.63a18.949,18.949,0,0,0-.27,6.04c-.07-.68-.03.3-.04.24a27.536,27.536,0,0,0,.64,3.47,5.374,5.374,0,0,0,.48,1.58c.34,1.75.22,1.44.2,1.68a17.775,17.775,0,0,1,.63,2.87l-.14-.63.38,1.98a3.428,3.428,0,0,0,.98,2.02,2.458,2.458,0,0,1-.45-.82,2.166,2.166,0,0,0,.7.87,1.914,1.914,0,0,0,.38.23.788.788,0,0,0,.3.08,1.108,1.108,0,0,0,.34-.03.95.95,0,0,0,.33-.13,1.31,1.31,0,0,0,.16-.13l.02-.15.06-.06a.278.278,0,0,0,.12.12c.02.06.04.13.06.18a4.764,4.764,0,0,0,.46.9,2.776,2.776,0,0,0,.85.82,1.636,1.636,0,0,0,1.26.2,1.363,1.363,0,0,0,.6-.3,1.583,1.583,0,0,0,.22-.2l.07-.07a.96.96,0,0,0,.13-.2,1.165,1.165,0,0,0,.13.25.99.99,0,0,0,.32.24,1.964,1.964,0,0,0,.7.2,1.573,1.573,0,0,0,.87-.18,1.725,1.725,0,0,0,.6-.63,4.891,4.891,0,0,0,.45-1.2,13.233,13.233,0,0,0,.36-2.3c.08-.74.08-1.58.15-2.23.1-.73.23-1.45.4-2.16.32-1.46.72-2.9,1.1-4.37.01-.06.03-.1.04-.17.23.52.44,1.06.63,1.6l.18.53a4.835,4.835,0,0,0,.28.6,3.6,3.6,0,0,0,.9,1.12,1.543,1.543,0,0,0,.74.35.9.9,0,0,0,.72-.25,1.707,1.707,0,0,0,.37-.72l.08-.43.02-.32c.01-.84-.07-1.52-.08-2.26s-.03-1.45-.02-2.18l.03-2.18a18.92,18.92,0,0,0-.2-2.2,21.375,21.375,0,0,0-.9-4.2c-.03-.17-.07-.34-.1-.5a5.341,5.341,0,0,0-.83-1.5,5.065,5.065,0,0,1-.76-1.52c-.01-.02-.01-.05-.02-.07a2.268,2.268,0,0,0,1.02-.58,2.47,2.47,0,0,0,.48-.68,3.172,3.172,0,0,0,.14-.4c.04-.13.06-.3.08-.37a5.1,5.1,0,0,0,.23-2.14c.03-.04-.03-.16-.05-.16l.12-1.25s.06-.7.06-1.46l-.01.08a1.6,1.6,0,0,0-.2-1.02,1.7,1.7,0,0,0-.59-.63c-.07-.04-.13-.06-.2-.1.8-2.86,1.67-5.63,2.77-8.78l7.86-22c.7-2.13,1.48-4.33,2.38-6.53.44-1.1.93-2.2,1.45-3.27q.4-.8.85-1.57l.47-.74.26-.33.13-.17a.464.464,0,0,1,.1-.1c3.7-3.15,7.53-6.2,11.15-9a4.808,4.808,0,0,0,.52-.4c.02-.02.04-.03.06-.05.4.5.8.92,1.1,1.24l-.12-.08c.86.83.95,1.2,1.82,2.18a.676.676,0,0,1,.06.15,10.721,10.721,0,0,1,.77.88c-.97,4.62-1.9,9.22-2.57,13.6a6.052,6.052,0,0,0-.17,1.24l-1.86,9.68s-6.18,32.4-3.4,23.1l-.32,1.65h7.15c-17.8.93.2,1.28.2,1.28,10.72.3,16.26-.1,29.02-.2,11.22.07,14.2.34,25.82.23h8.5l9.5-.06c.13-.02.34.03.4-.06-.01-.16-.03-.33-.04-.5l-.08-1.03-.12-1.72-.15-2.66c-.1-1.84-.2-3.73-.37-5.25l.05-1.2c-.06-.55-.1-1.14-.16-1.73l2.44,2.4c3.88,3.8,8.23,7.64,12.28,11.07,2,1.54,5.34,4.47,7.74,6.24l.86.78c.83.6,1.8,1.34,2.58,2l-.06-.02c1.24.9,2.6,1.98,3.22,2.42l-.06-.02,1.5,1.12-.27-.17,2.84,2.1a3.232,3.232,0,0,0,.16,1.73l.1-.1a1.265,1.265,0,0,0,.4.62,2.274,2.274,0,0,0,.44.3,1.354,1.354,0,0,1,.56.5l-.03.02c.85.18.8.96,1.66,1.17-.1-.03-.01.1-.04.1.32.2.64.42.82.2.2.17.12.2.08.3.08-.1.3,0,.46.13l-.1-.02.5.34a2,2,0,0,1,.05-.26c.25.26-.12.3.3.47l.08-.18c.27.15.48.28.75.4a1.434,1.434,0,0,0,1,.07,2.278,2.278,0,0,0,.5-.33l1.94,1.33.2.3c.1.12.18.25.27.38l.6.77c.43.52.9,1.07,1.44,1.65l-.06-.03a28.23,28.23,0,0,0,6.34,4.58,25.385,25.385,0,0,0,3.43,1.4l3.9,1.35c-.72-.24.3.16.22.15,1.33.47,2.58,1.06,3.8,1.35a2.322,2.322,0,0,0,1.7-.23c.44-.3.5-.66.47-.67a1.9,1.9,0,0,0,.11-.39,1.061,1.061,0,0,0,.01-.15,1.678,1.678,0,0,0-.04-.3c.22.04.27.1.3.14h.03c-.01-.02.02-.03.1-.03a7.118,7.118,0,0,0,.82,0,2.462,2.462,0,0,0,1.25-.4,1.723,1.723,0,0,0,.66-.97,1.588,1.588,0,0,1-.2.54,1.888,1.888,0,0,0,.3-.86,1.727,1.727,0,0,0-.05-.45.73.73,0,0,0-.07-.2,1.1,1.1,0,0,0-.2-.28,1.322,1.322,0,0,0,.34-.02,1.69,1.69,0,0,0,.76-.5,1.564,1.564,0,0,0,.28-1.3l-.03-.1ZM166.98,207.3a1.864,1.864,0,0,1,.22.07h0C167.12,207.35,167.05,207.31,166.98,207.3Zm-.34-.01-.6-.01a4.37,4.37,0,0,0,.69-.33l-.1.34h.01Zm-6.58,34.02-.2.03a1.222,1.222,0,0,1-.14.28c-.04.08-.1.2-.15.22a.53.53,0,0,1-.12.1.4.4,0,0,1-.22.08c.06.04.01.07-.1.08a1.1,1.1,0,0,1-.6-.3v-.1a3.047,3.047,0,0,1-.45-.58.54.54,0,0,0-.07-.13,1.09,1.09,0,0,1-.1-.25,3.168,3.168,0,0,1-.13-.36l-.12-9.33a11.607,11.607,0,0,0,1.44.09c.23,0,.47-.01.7-.02.15-.01.27-.01.4-.02-.08.62-.13,1.96-.18,5-.05,3.47-.02,4.73.04,5.22l.01-.01Zm6.7-22.98a14.861,14.861,0,0,1,1.46,4.83l.2,1.4a9.494,9.494,0,0,1,.1,1.42l-.08,3.22c.07.5.1,1.3.16,2.1a9.451,9.451,0,0,1,.03,1.02v.23c0,.05-.01.1-.01.14-.02-.01-.06.13-.2.1a.44.44,0,0,1-.18-.12l-.07-.08a1.736,1.736,0,0,0-.15-.2,2.1,2.1,0,0,1-.3-.6c-.01-.06.06.12.38.56a1.062,1.062,0,0,0,.17.2c.02.02.03.04.02.05a.239.239,0,0,0,.07-.03.612.612,0,0,1-.04-.06l-.17-.26a4.76,4.76,0,0,1-.35-.67c-.18-.56-.38-1.1-.6-1.64-.12-.28-.24-.55-.38-.83a4.1,4.1,0,0,0-.54-.9l-.17-.17a.492.492,0,0,0-.35-.47,7.344,7.344,0,0,1-3.6-3.07,5.463,5.463,0,0,1-.1-4.63.5.5,0,0,0-.9-.45,6.367,6.367,0,0,0,.12,5.6,8.446,8.446,0,0,0,3.67,3.3c-.02.05-.03.1-.04.12a.4.4,0,0,0-.03.18,1.952,1.952,0,0,1-.1.4l-.24.9c.24-.74.44-1.63.34-1.02l-.62,2.26.07-.5-.92,3.42.2-.46-.52,2.03a10.356,10.356,0,0,0-.2,2.28c.01.86.2-1.6.1.2a17.4,17.4,0,0,1-.44,2.65,5.5,5.5,0,0,1-.22.65,1.272,1.272,0,0,1-.24.4c-.04.04-.1.03-.26.01a1.334,1.334,0,0,1-.18-.07,1.2,1.2,0,0,1-.37-.43c-.1,0-.15-.01-.22-.01a.037.037,0,0,0-.01-.03c-.13-.84-.01-9.14.15-10.17a.037.037,0,0,1,.01-.03c1.7-.08,2.13-.15,2.15-.15a.492.492,0,1,0-.17-.97h0c-.03,0-.65.1-3.45.2a13.454,13.454,0,0,1-2.8-.16l-1.25-.14a.5.5,0,0,0-.54.46.531.531,0,0,0,.46.54c.34.03.67.07,1,.12l.12,9.04-.35-.07a1.079,1.079,0,0,1-.2.16c-.08.06-.15.12-.15.1-.07.03-.1.03-.1.04-.03,0-.04.02-.2-.1a.266.266,0,0,0,.12.03c-.1.02-.27-.1-.42-.24a3.433,3.433,0,0,1-.42-1.16,5.618,5.618,0,0,1-.1-.7,15.769,15.769,0,0,0-.47-2.37c.23,1.2-.05.6-.3-.9l.14.36c-.17-.82-.25-1.1-.34-1.64.13.48.16.24-.1-.97l.25.8-.6-2.26c-.14-.9-.38-1.98-.48-2.98a11.01,11.01,0,0,1-.06-2.22s0-.23.01-.6l.1-1.38c.1-1.04.3-2.17.34-2.6-.1.75.38-1.26.34-.67a14.861,14.861,0,0,1,.4-1.64q.152-.522.35-1.03c.07-.17.14-.33.2-.5.08-.18.1-.24.27-.58l.04-.78c.02-.2.03-.36.04-.52v.22c.01-.12.01-.24.02-.36h.34l1.36-.05a9.24,9.24,0,0,1,2.6.17l.07.15c.02.22.47-.3.52-.1l.2-.1c.05.04.16.1.07.13.18.02.18-.02.3-.08l.18.14c.7.13,1.3-.1,2.03-.02a4.96,4.96,0,0,0,1.72.17c.32-.01.65-.03.95-.06a.757.757,0,0,1,.15-.01c.05.14.1.25.15.36l.58,1.24c-.07-.02.92,1.7.44.97l.03-.06Zm24.33-62.1a4.193,4.193,0,0,1,.58-.54c-1.55,1.23-3.62,2.98-3.8,3l-2.9,2.47-1.5,1.32a7.7,7.7,0,0,0-1.28,1.75,36.159,36.159,0,0,0-2.58,6.07l.05-.2c-.52,1.65-.78,2.1-1.38,3.93a1.512,1.512,0,0,1-.1.2c-.53,1.8-1.8,5.16-2.3,6.6l-.1.07-1.27,3.5.5-1.3c.01.52-1.08,2.6-1.9,5.2-.9,2.37-1.4,4.96-2.36,7.4-.34,1.2.24-1.1-.33.7-.1.03.23-.85,0-.42-.57,1.75-1.1,2.82-1.75,5l-.1.06c-.55,1.96-1.18,3.7-1.65,5.26a2.411,2.411,0,0,0-.86-.32c-1.36-.34-2.08.05-3.7.12a17.845,17.845,0,0,0-3.3-.3c-.7-.04-1.47.01-2.16.02-.33.2-.9-.02-1.3.15v-.01l.12-1.53c-.1.17.1-1.9-.06-1.38.18-4.05.8-7.34.6-8.82.14-1.84.28-2.17.4-3.1l-.03.44.72-6.98c.12-1.27-.01-1.5.3-3.76-.03.74.07-.2.2-1.04-.06.54-.06.72.13-.4,0-.16.02-.4.04-.63.01-.01.02-.05.02-.03.17-1.42.12-1.18.02-.52-.01-.03-.02.02-.07.22.26-1.46.6-4.1.72-4.26l1.68-10.83c.13-.38.01.45-.15,1.47l.47-2.5a18.472,18.472,0,0,1-.38,2.2c.7-2.93,1.1-6.14,2.2-9.5l.15-.72.07-.2a8.372,8.372,0,0,1,.32-1.27c.24-.44.12.08.74-1.54a27.644,27.644,0,0,1,2.6-5c-.57.77-.4.5-.2.15.52-.7.9-1.05,1.3-1.6h.13a17.745,17.745,0,0,1,1.6-2.04c.4-.32-.87,1.04-.96,1.24,1.15-1.32,1.47-1.62,1.77-1.93s.6-.64,1.9-1.8c1.36-1.28-.32.15.3-.5a30.013,30.013,0,0,1,4.08-3.16l-.54.27,4.66-3.2a40.35,40.35,0,0,0,3.46,4.26c-.02.45,1.55,2.07,1.93,2.72l-.06-.04c1.35,1.4,2.26,3.26,3.55,4.6-.06-.04-.15-.03-.4-.36a14.7,14.7,0,0,1,1.95,2.66l4.36,5.58a43.7,43.7,0,0,0-4.1,3.06l-.05.04Zm32.1-55.9a13.918,13.918,0,0,0-1.84.75,15.146,15.146,0,0,1,1.94-.95Zm89.45,113.2.23-.28-.38.46.08-.26a.27.27,0,0,0,.07.08h0Zm-8.68,9.1Zm.6-1.07-.02-.03c0,.01-.01.02-.02.04a62.485,62.485,0,0,0-5.97-4.4c-1.68-1.27-1.92-1.6-2.76-2.3l.4.3-6.26-5.02a41.7,41.7,0,0,1-3.4-2.65c.7.5-.14-.18-.88-.82.48.4.64.5-.3-.36-.15-.1-.37-.28-.57-.44-.01-.01-.04-.05-.02-.04-1.25-1.06-1.05-.85-.48-.35-.04-.02.01.03.17.2-1.24-1.17-3.57-3.12-3.64-3.34-3.67-3.28-6.3-5.62-9.22-8.5-.28-.37.42.28,1.3,1.1l-2.07-2.04c.08-.04,1.2,1.15,1.86,1.77-2.36-2.52-5.12-4.97-7.74-8.06l-.6-.6-.15-.2a9.756,9.756,0,0,1-1.04-1.07c-.3-.5.12-.05-1.1-1.63-.9-1.3-2.74-3.6-4.02-5.24.66.9.42.64.1.27-.6-.8-.9-1.3-1.4-1.9l.01-.1c-.14-.07-1.67-2.1-1.9-2.35-.3-.5.98,1.2,1.18,1.38l-3.64-4.83c-1.35-1.68.16.37-.52-.4-1.15-1.5-2.32-2.95-3.58-4.73l.35.6-2.44-3.18c1.78-1.02,3.04-1.68,5.55-3.37,1.7-1.06,3.5-2.27,5.13-3.35.67-.68,2.18-1.4,3.02-2.13l.43-.13a3.932,3.932,0,0,1,1-.68v.04c.43-.38,1-.68,1.22-.87v.04l.57-.38-.07.1a19.738,19.738,0,0,1,2.43-1.62l-.14-.08a19.227,19.227,0,0,0,2.35-1.5l8.22,13.18-.15-.2c1.14,1.6,1.36,2.16,2.58,4,.05.1.13.24.1.23q1.176,1.714,2.29,3.47l1.2,1.8.13.2c.01.02.04.08.08.17l.2.4a6.5,6.5,0,0,0,.37.67v.13c.72,1.26,1.5,2.45,2.3,3.64l-.87-1.35c.45.37,1.7,2.78,3.6,5.23,1.67,2.38,3.77,4.53,5.48,7,.92,1.1-.86-.93.46.75-.04.1-.64-.77-.38-.28,1.28,1.67,1.98,2.84,3.58,4.88v.13c2.14,2.63,3.75,5.18,5.22,6.9,2.16,2.75,1.24,2,3.57,4.8l.8,1.18c.94,1.24.78.8,1.8,2.2-.12-.04,1.3,1.75.64,1,.93,1.24,1.94,2.48,3,3.74a4.771,4.771,0,0,0-.38.3c-1.1.86-1.25,1.67-2.2,3a20.765,20.765,0,0,0-2.28,2.4c-.47.53-.9,1.16-1.32,1.72-.05.4-.58.7-.7,1.12l-.2.04c-.1.15-.16.3-.3.36l.04.04Zm33.9,14.54a4.389,4.389,0,0,1-.28.4l-7.64-5.2a.5.5,0,1,0-.57.83l7.93,5.4a.293.293,0,0,0,.1.03c.02.02.03.05.05.07a.46.46,0,0,1,.06.2.607.607,0,0,1-.18.52,1.035,1.035,0,0,1-.6.28c.52-.1.56-.15.47-.04a1.012,1.012,0,0,1-.43.17,2.584,2.584,0,0,1-.42.03c-.15-.01-.24-.01-.46-.04a.035.035,0,0,0-.01-.02h.13l.2-.02a2.071,2.071,0,0,1-.35-.03.5.5,0,0,0-.19-.24l-7.35-4.5a.518.518,0,0,0-.7.17.5.5,0,0,0,.17.7l6.92,4.23a1.067,1.067,0,0,1-.17.34,1.159,1.159,0,0,0,.12-.3c-.02.01-.04.06-.27.35.1.6,0,.58-.1.7a.21.21,0,0,0,.05-.13.328.328,0,0,0,0-.1.513.513,0,0,0-.01-.1l-.03-.23c.01.1.03.25.03.3a.34.34,0,0,1-.01.1.439.439,0,0,0-.02.1.245.245,0,0,1-.18.13,1.784,1.784,0,0,1-1-.01c-.88-.32-2.14-.86-3.24-1.27s-2.07-.77-2.45-.96l-2.2-.8c-1.18-.4-2.36-.87-2.83-1.05.4.15.07-.03-.27-.22s-.7-.44-.38-.3a15.067,15.067,0,0,1-2.4-1.38,14.657,14.657,0,0,1-2.24-1.87l.2.16c-.68-.65-1.3-1.28-1.85-1.92l-.8-.96-.36-.48-.17-.24-.24-.36-2.07-1.42a14.885,14.885,0,0,1,2.47-2.97l.16.04c.18.1.05-.55.24-.47l.05-.2c.06-.02.17-.08.14.03.12-.13.1-.16.13-.3l.22-.06c.53-.47.72-1.1,1.24-1.6a8.691,8.691,0,0,0,1.92-2.34,7.526,7.526,0,0,0,1.24.32,12.808,12.808,0,0,0,2.22.1,12.007,12.007,0,0,1,2.1.5c.84.3,1.32.5-.03.08a3.157,3.157,0,0,1-.6-.2c-.1-.01-.22-.01-.34-.01,1.32.4,2.52.9,3.73,1.4.3.12.63.27.95.38a5.231,5.231,0,0,1,.8.42l1.8,1.1c-.73-.48-1.7-1.1-1.02-.72.76.48,1.53.97,2.32,1.42l-.52-.23q.868.538,1.78,1c.32.16.6.32.86.46l.3.2.06.06a.139.139,0,0,0-.03-.13c.1.1.16.2.1.25a.442.442,0,0,1-.22.05,4.749,4.749,0,0,1-.92-.02l-.12-.01-.1-.02c-.1-.02-.22-.05-.34-.07a7.055,7.055,0,0,0-.78-.13c-1.02-.14,1.86.47-.24.1-.33-.06-.68-.13-1.06-.18q-.3-.045-.6-.06c-.1-.01-.22-.01-.34-.01a1.064,1.064,0,0,0-.56.14,1.176,1.176,0,0,0-.17.14.593.593,0,0,0-.14.3.67.67,0,0,0,.1.48.72.72,0,0,0,.18.21c.02.02,0,.01.03.05l.1.14c.13.18.26.35.4.52q.419.509.87.99a36.23,36.23,0,0,0,3.93,3.6c-.2-.27.54.33,1.32.82l.04.12a7.827,7.827,0,0,1,1.86,1.46c.14.16.28.3.43.46.14.14.27.3.4.44.07.1.17.2.24.3s.15.26.15.24c0,0,.01,0,.03.02s.06.04.04.1c-.14.17-.07.3-.76.35l-.03-.08ZM197.78,110.26l.46-.18C198.22,110.06,198.1,110.1,197.78,110.26Z"/>
    <g id="Group_1139" data-name="Group 1139">
      <path id="Path_16550" data-name="Path 16550" d="M235.83,167.52a11.683,11.683,0,0,0,2.57-1.58l-.3.02a13.984,13.984,0,0,0,1.84-1.22c.25-.32-.57.16.05-.37l1.9-1.23c-.03.12-.7.54-.47.52.08-.13,1.02-.74.82-.8l.1.1c.22-.2.46-.2.77-.42.13-.13.2-.26-.15-.05a12.263,12.263,0,0,1,2-1.42c.63-.4.52-.16.76-.17.18-.14.42-.38.4-.43l.1-.03.2-.26c1.38-.64,2.3-1.74,3.5-2.25-.27.2-.8.48-.75.6l.9-.6c-.35.27-.6.53-.42.52l3.78-2.76c.16.1,1.04-.62,1.64-.84-.1.02-.12.02-.12,0-.25.14-.35.17.14-.2,0,.01.02.01.03.01l.2-.2c.44-.2.4-.13.2.01.3-.2.63-.43.42-.17.86-.47.8-.74,1.22-1.08l2.5-1.64-.14.13a5.31,5.31,0,0,0,1.2-.58c.22-.82,1.72-1.1,3.07-2.2-.28-.04.5-.45.36-.53,1.5-.75,2.43-1.74,4.07-2.62l-.07.06a6.158,6.158,0,0,0,1.8-1.25c-.14.25.64-.2.43.08a8.046,8.046,0,0,1,1.64-1.17c.35-.03,1.3-.8,2-1.1l.7-.72-.2.3c.47-.33.43-.17.43-.1.1-.03.1-.1.18-.17l.06.1c.32-.14-.01-.28-.1-.2a.621.621,0,0,0-.03-.1c-.25-.15.25-.03-.22-.37l-.27-.1-.14-.05.14.05c-.83-1.03,0-.57-.86-1.6l.08-.1c-.2-.27-.4-.56-.45-.38l-.24-.4-.06-.12-.01-.05-.08-.24-.2.04a.8.8,0,0,0-.16.05l-.36.18c-.64.44.3-.06.04.22-.6.6-.94.54-1.6.87h.24l-1.3.74.12-.2-.86.5c-.2.22.16-.01.45-.15a17.235,17.235,0,0,1-2.56,1.7l.05-.17c.01.04.15-.05.22-.1.82-.74-.74.32-.83.27-.18.3-1.07.7-1.3,1.1-1.78.77-2.84,1.9-4.16,2.52.27-.28-.45.18-.47.07-.6.27-.33.38-.83.66l-.54.13c-1.02.92-.9.3-1.96,1.06-.6.63-1.76.88-2.7,1.74l-.1-.08c-.76.6-1.32.66-1.94,1.14-.24,0,.13-.16.02-.28-.62.5.04-.33-.34.07-1.03.46-1.62,1.62-2.55,2.15-.87.77-1.98.88-2,1.24l.52-.3-1.34.86-.1-.07a28.678,28.678,0,0,0-2.47,1.65c0-.01-.05.01-.1.01a11.827,11.827,0,0,0-1.44,1.03l.05-.1a50.74,50.74,0,0,1-5.05,3.4c-.14-.1-1.08.55-1.78,1.02.22-.14.2-.22.23-.27-.88.78-2.17,1.1-3.06,1.9v-.04c-.44.16-1.5,1.12-1.82.98l-1,.8a1.651,1.651,0,0,1-.4.27,1.706,1.706,0,0,1,.14.27l.08.18.26.46-.1-.05,1.67,4.05.32.5,2.2-1.4,1.66-1.33.03.07ZM202.67,141.5l.06-.1C202.71,141.4,202.69,141.42,202.67,141.5Zm7.03-26.7v0Zm-4.87,22.87h0v0Z" fill="#fff"/>
      <path id="Path_16551" data-name="Path 16551" d="M203.4,143.04a31.7,31.7,0,0,0,.94-3.22l.5-2.14c-.04-.36.22-.9.2-1.3l.1-.13a.916.916,0,0,1,.08-.43l.02.01c0-.2.08-.43.08-.53h.02l.05-.24v.05a3.782,3.782,0,0,1,.22-1.02h-.1c.26-.65.15-.93.4-1.5h.02c-.03-.82.45-1.17.44-2,0,.1.05-.03.07-.02.07-.37.15-.76-.01-.8.07-.26.1-.2.18-.22-.07-.02-.05-.25,0-.46v.1l.12-.6-.17.08c.12-.3.2-.04.23-.35l-.1-.02a7.935,7.935,0,0,1,.55-1.04,46.261,46.261,0,0,1,1.33-5.22l.1-.05c.13,0-.06-.5.07-.52v-.2c.04-.05.1-.15.1-.05a.737.737,0,0,0,.03-.32l.13-.16c.25-.66.27-1.28.5-2a18.637,18.637,0,0,0,.97-3.42c.23-1.36,1.2-2.7,1.46-4.1a.271.271,0,0,0,.02-.17l.45-1.2.82-2.34a2.04,2.04,0,0,0,.13-.5c0-.05,0,.01-.05-.06-.1-.16-.13-.13-.13-.18v-.02l-.1.18h.01l.02-.02a.075.075,0,0,0,.01-.05l.06-.1v.04c0,.02.05.04.03.02a.459.459,0,0,0-.1.01,1.387,1.387,0,0,0-.3.2,6.935,6.935,0,0,0-.85,1.06l-.01-.04a3.754,3.754,0,0,0-.53,1.55c-.2.01-.2.54-.32.68l-.01-.02c-.02.45-.4.8-.42,1.23a.112.112,0,0,1-.02-.13c-.08.3-.17.7-.28.7a10.569,10.569,0,0,0-.55,2.12v-.04c.02.28-.1.33-.13.63-.02.01-.03.03-.03.02a7.182,7.182,0,0,1-.26,1.04l-.07-.01-.15.55.08-.2c.15.12-.24.38-.24.8-.13.36.14.86-.06,1.22.03.2-.1-.2-.1.1-.1-.02-.02-.15-.1-.1-.04.28-.23.4-.26.76l-.08-.01c0,.47-.33.8-.3,1.12-.07.47-.3.24-.3.75l-.15.15c-.07.2.08.18-.03.4-.06-.03-.13.27-.15.12-.24.48-.15,1.06-.5,1.68.08.18-.08.5-.02.62-.06,0-.2.67-.2.26,0-.03.02-.1.04-.08l-.06-.06c-.24.34-.1.7-.23,1.08.05-.1.1-.25.1-.14l-.1.35-.04-.1-.17.5.1-.05c-.1.24-.25.3-.22.62.03.14.16-.22.12.06l-.47,1.25c.1-.02.06.1.05.22h-.08c-.01.5-.2.13-.23.6l-.04-.05.12.16c.04.45-.2.18-.12.7.03-.18.18-.05.1.17l-.06-.07a1.2,1.2,0,0,1-.03.25c-.02-.08-.1-.06-.13.12l-.06-.14.04.38c-.14.25-.15.7-.28.77,0,0-.2.56-.1.72-.04-.13-.14.18-.2.07a1.292,1.292,0,0,1-.13.77v-.04c-.24.62-.16,1.13-.4,1.7.1-.01-.03.3.1.24-.04.63-.5,1.04-.2,1.34-.05.28-.16.3-.2.44v-.07l-.24,1.04c-.01.2.13.27.01.6-.03-.12-.06.02-.1.14.01-.08-.01-.1-.1.04a.356.356,0,0,1,.02.1c-.01,0-.01.01-.02,0-.03.22,0,.2.03.1.01.01.02,0,.05-.02-.13.2-.15.6-.26.6-.13.64-.14,1.13-.23,1.67-.07.05-.1-.1-.07-.25l-.07.38c-.08-.02.01-.23.02-.35-.24.42-.1.95-.35,1.45l.03.12v.03c.03.01.05.14.04.22-.1.06-.16-.04-.22.22a2.883,2.883,0,0,0-.14.87c.05-.14.07-.1.08-.02-.03.13-.12.2-.1.3h-.1c.1-.03.01.36.03.42-.1.06-.01-.22-.05-.26l-.18.78c0,.3.1-.03.15.12a2.787,2.787,0,0,1-.16.77l.1-.07a2.332,2.332,0,0,1-.3,1.04c-.2,3.6.73.95.73.95a20.045,20.045,0,0,0,.8-3.7h.04Zm10.53-5.37.01.1C213.96,137.76,213.96,137.73,213.93,137.67Zm11.25,20.25c.01,0,.01.01.02.02C225.19,157.92,225.18,157.92,225.18,157.92Zm-10.55-16.57-.02-.02Z" fill="#fff"/>
      <path id="Path_16552" data-name="Path 16552" d="M212.44,137.22a22.816,22.816,0,0,0,1.25,2.53l.93,1.6c.25.18.38.68.63.92v.15a.637.637,0,0,1,.2.3h-.02a2.351,2.351,0,0,1,.26.37h-.02l.1.18-.04-.02a2.974,2.974,0,0,1,.46.75l.07-.06c.2.55.46.65.6,1.17h-.02c.52.47.37,1,.9,1.48-.07-.06-.02.05-.04.06.17.26.35.55.5.47.1.2.04.2,0,.25.06-.04.2.12.28.27l-.07-.06.27.44.07-.16c.1.26-.12.14.04.35l.1-.06a5.321,5.321,0,0,1,.2.98,40.68,40.68,0,0,1,2.24,3.95l-.05.1c-.1.1.35.25.28.35l.13.1c0,.05.03.15-.04.1a.511.511,0,0,0,.18.2l.01.18c.24.55.62.92.9,1.48a11.788,11.788,0,0,0,1.52,2.58c.73.9.93,2.33,1.7,3.25,0,.04.1.1.1.1l.5.95s2.5,4.6,1.5.6l.04.01a3.2,3.2,0,0,0-.7-1.17c.12-.14-.22-.43-.24-.58h.02c-.3-.25-.26-.7-.53-.95.02.01.06-.01.1.06-.14-.2-.34-.5-.26-.56a8.448,8.448,0,0,0-1-1.53l.04.01c-.2-.14-.15-.24-.32-.43.01-.02,0-.04.01-.04-.2-.16-.35-.6-.5-.75l.05-.04-.25-.4.07.16c-.2.04-.07-.37-.35-.62-.14-.3-.65-.4-.74-.73-.15-.1.2.06.02-.12.08-.05.1.07.14-.02-.15-.18-.1-.4-.3-.6l.06-.05c-.3-.27-.26-.67-.5-.83-.24-.3.07-.34-.26-.62l.01-.2c-.07-.16-.17-.05-.22-.24.06-.02-.07-.24.03-.17-.13-.43-.55-.7-.7-1.3-.17-.05-.25-.34-.37-.38.04-.04-.27-.5-.01-.28.02.02.04.06.02.07h.08c-.04-.35-.36-.48-.5-.78.03.1.1.2.01.15l-.14-.27.08.02-.2-.4-.04.1c-.07-.2,0-.34-.2-.5-.1-.07.01.23-.12.04l-.4-1.05c-.06.07-.1-.02-.17-.1l.06-.05c-.28-.3.07-.2-.2-.5h.06l-.2-.02c-.3-.24.04-.24-.33-.5.1.13-.1.14-.17-.04l.1.01c-.07-.1-.1-.1-.13-.17.06.04.1-.02.02-.15l.13.05-.26-.2c-.04-.24-.3-.5-.26-.64,0,0-.2-.46-.35-.5.1.05,0-.2.1-.17a.9.9,0,0,1-.37-.55l.02.02c-.2-.53-.57-.78-.72-1.27-.06.06-.15-.2-.22-.08-.35-.4-.26-.94-.65-.93-.13-.2-.07-.28-.1-.4l.04.04-.46-.77c-.1-.13-.26-.07-.37-.35.1.05.03-.05-.02-.14.04.06.07.06.04-.08a.351.351,0,0,1-.08-.05c-.1-.16-.1-.12-.07-.04-.01,0-.02.01-.02.04-.02-.2-.26-.46-.18-.53-.3-.47-.58-.76-.84-1.14.02-.07.12,0,.2.1l-.18-.27c.07-.04.13.14.2.22-.07-.4-.5-.64-.62-1.1l-.1-.05v-.03c-.03.02-.12-.05-.16-.1.03-.1.14-.07.03-.27-.03-.2-.27-.43-.42-.6.05.12,0,.1-.05.06-.06-.1-.03-.2-.1-.25l.08-.06c-.06.08-.23-.2-.28-.23.03-.1.14.12.2.12l-.34-.6c-.18-.18-.06.08-.2.02a2.028,2.028,0,0,1-.35-.57l-.04.1a1.622,1.622,0,0,1-.4-.8c-2.04-2.27-1.12-.1-1.12-.1a14.518,14.518,0,0,0,1.7,2.76h0Zm-11,13.08c-.13-.1-.26-.16-.04.15a9.994,9.994,0,0,1-1.47-1.7c-.43-.54-.18-.47-.2-.7-.14-.15-.4-.35-.43-.3l-.04-.08-.26-.16c-.7-1.22-1.8-1.94-2.35-3,.2.22.5.7.62.63l-.63-.76c.28.3.54.5.52.32l-2.86-3.2c.1-.17-.65-.9-.9-1.44.03.08.02.1,0,.1.15.2.18.3-.2-.1.01,0,.01-.02.01-.03a1.154,1.154,0,0,0-.2-.15c-.2-.4-.14-.36,0-.2-.2-.26-.44-.54-.18-.38-.5-.75-.76-.65-1.1-1l-1.7-2.14.13.12a4.911,4.911,0,0,0-.62-1.07c-.8-.1-1.16-1.47-2.27-2.6-.02.27-.46-.4-.53-.27-.8-1.3-1.8-2.06-2.74-3.5l.07.06a4.834,4.834,0,0,0-1.3-1.52c.25.1-.22-.58.05-.4a6.591,6.591,0,0,1-1.2-1.4c-.04-.33-.85-1.1-1.17-1.74l-.18-.14a.22.22,0,0,0-.08-.01.192.192,0,0,0-.12.03.287.287,0,0,1,.13-.08c-.08-.07-.06-.23.01-.24-.04-.1-.1-.07-.16-.12h0v-.01l.06-.1a.209.209,0,0,0-.04-.06c-.18.15-.17.45-.1.36-.1.3-.1.24-.16.22-.04,0-.02-.06-.13.02a2.434,2.434,0,0,0-.4.4l-.06.27-.03.13.03-.13c-.86.86-.53.03-1.38.92l-.1-.07c-.23.22-.48.4-.3.45l-.3.22-.08.03-.2.1a1.152,1.152,0,0,0,.05.2l.04.12.2.32c.46.54-.07-.28.2-.07.6.5.57.8.92,1.4l-.01-.23.77,1.13-.2-.1.54.75c.22.16-.02-.15-.16-.4.57.8,1.34,1.25,1.76,2.2l-.17-.02c.03-.01-.05-.13-.12-.2-.75-.68.34.66.3.75.3.13.73.9,1.12,1.1.83,1.57,1.97,2.43,2.64,3.6-.3-.22.2.4.1.43.3.52.38.26.68.7l.16.5c.94.85.33.82,1.12,1.7.64.48.94,1.54,1.8,2.33l-.08.1c.62.64.7,1.15,1.2,1.68.01.23-.16-.1-.27.01.53.52-.33.01.08.3.5.9,1.65,1.32,2.2,2.13.8.72.94,1.75,1.3,1.72l-.3-.45.9,1.15-.07.1a23.436,23.436,0,0,0,1.72,2.1c-.01,0,.01.05.02.1.52.54.52.8,1.07,1.22l-.1-.04a41.629,41.629,0,0,1,3.54,4.32c-.04.05.05.2.17.4l1.58-6.54c0-.06-.04-.1-.08-.17Zm68.72,57.5a.313.313,0,0,1-.05-.1c-.03-.07-.06-.2-.1-.3-.64.12-1.66.25-3.18.4h3.33Zm.3-.5a2.038,2.038,0,0,1-.13.5h.25l-.04-.53a.235.235,0,0,1-.08.02Zm-1.06-4.08-.1-.96-.05-.38-.42.02-3.08.03h-1.94l-5.15-.03a2.317,2.317,0,0,1-.65.06c-5.63.37-12.03-.5-17.53-.17-3.9.15-10.7.4-14.3.12-3-.05-5.43.2-8.3.1l-.78-.13a6.962,6.962,0,0,1-1.26.1c.4-.05-.07-.1-.3-.13l-.78.1c-.26-.2-1.98.33-2.1.12l-.3-.15c-3.1-.16-6.4-.14-9.8-.08l-5.1.1-4.24.06-.17.88c-.23.84-.46,1.5-.68,2.2l-.32,1.04a4.759,4.759,0,0,0-.2.74l.23-.15c-.01.07-.01.13-.02.17.3.01-.2.18.47.24a.545.545,0,0,1-.15-.24l1.96-.04-.4.05c.85-.01,1.8-.05,1.8-.18.14.1-.06.2,1.03.2.02-.3,1.63-.3,3.13-.34-.03.04.55.07.14.1,3.26-.36,5.1.3,8.27-.08l-.03.04c2.5.2,3.52-.1,6.3.07l-.1-.15c1.4.05,2.8.04,4.2-.05l-.17.05,1-.01-.03.04c.4-.04,1.33.01,2.15-.08l-.03.03a7.78,7.78,0,0,0,1.74-.03l.62.12c1.6-.17,3.97.04,5.3-.17l8.83-.05c6.08-.1,7.63.18,13.5.27,6.67-.1,9.57-.5,15.17-.17,0,0,1.9.08,3.14.24-.08-.43-.16-.96-.24-1.56-.1-.6-.18-1.26-.26-1.95v-.01ZM220.92,98.24l.14-.03C221.05,98.2,221.01,98.2,220.92,98.24Zm32.46,7.84c.01.01.02.01.03.02C253.39,106.08,253.38,106.08,253.38,106.08Zm-27.04-8.53h0c-.02.01-.03.01-.04.02Z" fill="#fff"/>
      <path id="Path_16553" data-name="Path 16553" d="M219.95,99.98a40.629,40.629,0,0,1,3.8-1.64l1.3-.42a8.989,8.989,0,0,1,1.29-.38,13.836,13.836,0,0,1,1.58-.42l.2.05a1.368,1.368,0,0,1,.53-.08h-.01c.24-.08.53-.08.65-.12h-.01l.3-.04-.05.04a4.018,4.018,0,0,1,1.28-.07l-.03-.1c.85.1,1.17-.13,1.93.1v.02a3.586,3.586,0,0,1,1.26.1l.6.1a2.759,2.759,0,0,0,.68.08c-.13,0,.04.06.03.07.46.08.94.17,1,.01.33.08.26.1.28.2.02-.07.3-.04.57.02H237c.25.05.5.14.73.2l-.1-.18c.37.17.05.2.42.3l.03-.1a9.781,9.781,0,0,1,1.25.74l3.2,1.32a16.431,16.431,0,0,1,2.9,1.63l.03.12c-.03.13.6.14.6.28l.24.08c.05.06.16.15.04.1a1.252,1.252,0,0,0,.37.16l.16.2c.7.55,1.4.85,2.17,1.4a15.606,15.606,0,0,0,1.7,1.38l1.8,1.38c1.4,1.03,2.44,2.8,3.73,4a.294.294,0,0,0,.16.13l1,1.27,1.87,2.53c.37.48.63.8.7.65s-.02-.82-.65-2.23l.05.02a5.8,5.8,0,0,0-1.27-1.67c.08-.2-.44-.6-.53-.8l.02.01c-.44-.35-.63-.95-1.08-1.27a.175.175,0,0,1,.15.07c-.27-.28-.65-.65-.6-.74a12.782,12.782,0,0,0-2.07-1.9l.05.01c-.32-.15-.33-.3-.64-.5-.01-.02-.02-.05-.01-.05-.33-.18-.8-.7-1.07-.86l.03-.06-.57-.46.2.2c-.2.1-.34-.46-.83-.7-.38-.32-1.03-.3-1.38-.7-.24-.08.25.02-.07-.15.05-.08.17.06.14-.06-.3-.2-.4-.44-.82-.63l.03-.07c-.56-.22-.85-.7-1.24-.8-.53-.3-.2-.4-.82-.6l-.15-.2c-.22-.15-.23.01-.46-.2.05-.05-.3-.24-.1-.2-.52-.44-1.23-.58-1.94-1.13-.23.02-.6-.25-.76-.24,0-.06-.78-.42-.3-.3a.214.214,0,0,1,.1.06l.1-.04c-.38-.37-.85-.35-1.3-.57.12.08.3.16.17.15l-.42-.2.08-.02-.6-.32.06.1c-.3-.17-.35-.34-.74-.4-.18-.02.25.23-.08.1a8.97,8.97,0,0,0-1.55-.75c.02.1-.12.04-.28.01v-.08c-.62-.1-.16-.23-.77-.36l.07-.03-.2.1c-.57-.03-.23-.28-.9-.22.24.04.07.18-.2.1l.1-.05a1.278,1.278,0,0,1-.33-.04c.1-.02.08-.1-.16-.13l.18-.05-.48.03c-.33-.15-.9-.18-1.02-.3a3.256,3.256,0,0,0-.4-.1,1.614,1.614,0,0,0-.55.01c.16-.05-.25-.12-.12-.2a2.136,2.136,0,0,1-1.03-.05h.05a17.694,17.694,0,0,0-2.27-.07c.04.1-.38.04-.27.15-.8.08-1.48-.13-1.74.23a1.887,1.887,0,0,1-.63-.03l.08-.03-1.37.24c-.24.1-.25.25-.7.3.13-.1-.05-.04-.22-.01.1-.03.13-.06-.1-.06a.607.607,0,0,1-.1.07c-.28.07-.23.08-.1.06,0,.01.01.02.05.03-.3-.03-.78.24-.85.13a15.764,15.764,0,0,0-2,.87c-.1-.02.04-.13.22-.23l-.46.2c-.03-.08.25-.15.4-.22-.6.12-1.1.55-1.77.77l-.1.12-.04.01c.02.03-.1.14-.2.2-.12-.02-.07-.15-.37.01a3.374,3.374,0,0,0-.96.6c.17-.1.14-.02.08.04-.15.1-.27.08-.37.17l-.06-.07c.1.04-.34.3-.38.37-.12-.01.2-.2.2-.25l-.87.57c-.27.26.1.04,0,.2a9.705,9.705,0,0,1-.82.6h.14a4.738,4.738,0,0,1-1.12.8c-1.54,1.7-1.4,2.1-1.1,1.95a5.964,5.964,0,0,0,1-.63c1.4-1,1.97-1.7,3.7-2.82Z" fill="#fff"/>
    </g>
  </g>
</svg>
