<svg xmlns="http://www.w3.org/2000/svg" width="188.608" height="146.862" viewBox="0 0 188.608 146.862">
  <g id="_68" data-name="68" transform="translate(-151.762 -96.38)">
    <path id="Path_16626" data-name="Path 16626" d="M339.85,235.8c.2-.8-1.7-2.4-3.9-3.9a30.515,30.515,0,0,1-6.2-5.8c-.8-.6,1.9-.2,3.5.2,1.8.3,3.7-.5.9-1.9s-4.9-3-5.7-3.3-3.6-1.8-5.9-2a8.924,8.924,0,0,1-4.02-.74l.22-.26a1.2,1.2,0,0,0-.1-1.5l-4-3.6a1.348,1.348,0,0,0-1.6,0l-.04.05c-5.37-6.45-13.8-17.83-18.46-24.05-2.9-4-10.6-14.1-12.2-17.8-3.52-5.22-9.63-15.2-14.7-23.63l8.9-5.67-3.3-5.1s-21.5-40.06-41.75-39.17c-1.72.04-8.1.9-12.55,4.9-5.14,1.13-10.42,3.5-15.4,5.66-7.76,3.42-17.54,9.86-23.34,13.88l-.06-.08-1.23.97-3.67,2.63.13.17-.03.03,5.56,7.4-2.76,2a41.722,41.722,0,0,0-12.2,11c-3.3,4.5-5.4,12.7-7.6,26.8-1.95,12.38-3,25.43-3.52,34h-.28a1.175,1.175,0,0,0-1.1,1v5.3a1.175,1.175,0,0,0,1,1.1l-.1,2.3a22.357,22.357,0,0,0-1.5,13.8c1.6,7.6,1.5,8.9,2.1,9.8,1,1.5,2.1,0,2.1,0s.5,2.1,1.9,2.4c1.2.2,1.6-1.3,1.6-1.3s.5,1.3,1.7,1c.8-.3,1.2-2.7,1.3-5.4.1-2.2,1.7-7.3,1.9-8.3.1-1,1.1,1.5,1.6,3.1.7,1.7,2.3,2.9,2.1-.3-.2-3.1,0-5.7-.1-6.5a23.026,23.026,0,0,0-1.3-6.1,16.538,16.538,0,0,1-1.77-4.02l.47.02a1.175,1.175,0,0,0,1.1-1l.4-5.4a1.08,1.08,0,0,0-.88-1.16c2.02-7.14,6.1-18.03,8.78-25.34,2.5-6.7,5.4-16.1,7.8-18.9,5.48-4.82,9.64-8,12.28-9.9l4.46,5.94L192.4,201h-.07l-1.2,6.6,79.4.2-.32-4.4c-.01-.13-.02-.28-.02-.4l-.04-.68c0-.07-.01-.14-.01-.2l-.12-2.22c-.01-.1-.01-.22-.02-.33l-.07-1.4-.14-2.56c0-.05-.01-.1-.01-.15l-.18-3.12q6.421,6.554,13.34,12.59c7.92,6.96,16.17,13.33,22.17,17.77a1.181,1.181,0,0,0,.13,1.43l4.2,3.3a1.2,1.2,0,0,0,1.5-.1l.2-.25,2.8,1.95a22.526,22.526,0,0,0,11,8.5c7.3,2.5,8.3,3.3,9.4,3.3,1.8,0,1.1-1.8,1.1-1.8s2.2.7,3-.3-.3-2-.3-2,1.4.2,1.7-.9Z" fill="#fff"/>
    <path id="Path_16627" data-name="Path 16627" d="M179.18,124.36h0l-.03.14Zm11.9,84.5h-.02l-.36.1Zm83.48-67.75h0l-.13-.05Z"/>
    <path id="Path_16628" data-name="Path 16628" d="M340.24,235.33a1.239,1.239,0,0,1-.42,1.14,1.306,1.306,0,0,0,.35-.87,1.418,1.418,0,0,0-.15-.54l-.17-.37c-.07-.13-.1-.33-1-1.13l-.06.1c-1.26-1.15-2.43-1.9-3.4-2.7-1-.84-1.93-1.73-3.05-2.87l-1.52-1.62.3.03,1.23.2.6.13a2.9,2.9,0,0,0,.38.07c.12.02.24.03.36.04a4.573,4.573,0,0,0,.74-.01,3.328,3.328,0,0,0,.95-.23,1.247,1.247,0,0,0,.7-.65,1,1,0,0,0-.1-.93,2.571,2.571,0,0,0-.7-.73,5.309,5.309,0,0,0-.65-.39l-1.15-.6-2.22-1.28-2.25-1.36-.35-.16-.28-.1-.58-.26-1.2-.52a18.848,18.848,0,0,0-2.5-.85,10.1,10.1,0,0,0-2.64-.3,6.274,6.274,0,0,1-1.94-.34,2.82,2.82,0,0,0,.19-1,2.117,2.117,0,0,0-.68-1.5,4.868,4.868,0,0,0-1.57-1.5c-.01-.05-.15-.08-.16-.06l-.92-.87-.67-.58-.3-.25-.16-.13a1.9,1.9,0,0,0-1.59-.33,1.433,1.433,0,0,0-.58.3l-2.2-2.75-.27-.5c-.05-.26-2.3-2.6-2.5-3.05l-.94-1.12c-.23-.34-.74-1.04-.27-.48l-1.48-1.84-.8-1.2-9.33-12.33c-1.92-2.77-4.84-6.65-7.7-10.65-1.42-2-2.84-4.03-4-6l-.4-.73-.18-.36a4.581,4.581,0,0,0-.24-.44l-.9-1.35-1.64-2.47c-3.85-5.8-7.7-12.47-11.54-18.95.1-.06.2-.1.33-.17v.04c1.65-1.5,3.07-1.65,4.8-3.17-.2.2.14,0,.14.04.86-.6,1.8-1.2,1.65-1.46l.44-.26a1.319,1.319,0,0,1,.27-.12c.12-.04.15.01.26,0-.07-.06.3-.34.75-.67.02-.01.04-.03.06-.04a1.332,1.332,0,0,0,.2-.14l-.14-.23c-.01-.01-.01-.02-.02-.03l.13.16-1.35-2v.02a2.925,2.925,0,0,0-.18-.26,1.254,1.254,0,0,0-.23-.4l-.04.03c-.15-.2-.3-.38-.46-.56q-.2-.4-.36-.81l-.14-.35a3.364,3.364,0,0,0-.2-.44c-.2-.4-.4-.8-.68-1.3q-.168-.263-.33-.53l-.62.4c-.64-.72.63.56-.22-.56.1-.12.44.5.35.12-.8-1.12-1.08-2-2.1-3.35l.07-.13c-1.4-1.74-2.15-3.6-3.14-4.7-1.35-1.85-.54-1.48-2.06-3.33l-.38-.86c-.54-.86-.58-.5-1.14-1.47.13,0-.73-1.23-.28-.74-1.32-2.2-3.08-4.2-5-7.02-.62-.45-1.63-1.84-2.1-2.15.02-.14-2.28-2.56-.84-1.27.12.1.3.33.27.34l.24.1a32.235,32.235,0,0,0-3.85-3.9c.38.43.93.96.5.66-.42-.43-.85-.84-1.28-1.25l.34.18c-.63-.63-1.3-1.23-1.95-1.83l.2.34a11.107,11.107,0,0,0-2.47-2.13c-.6-.32.88.9-.24.08a33.477,33.477,0,0,0-5.5-3.76c.12.23-.4-.07-1-.3l-.01-.14a5,5,0,0,1-1.5-.7,3.314,3.314,0,0,0-1.52-.64l-.46.03c-2.15-.34-1.06-.62-3.52-.74.95.13.4.32-.75.12l.3-.08c-.65-.07-.87-.03-1.3-.08.4-.04.22-.16-.74-.2l.65-.1c-.6.02-1.22.1-1.83.18a26.813,26.813,0,0,0-4.2.4,11.736,11.736,0,0,0-1.55.4,8.1,8.1,0,0,0-1.95.83c.5-.35-1.03.28-.65-.03-.68.42-2.65,1.6-3.46,2.04l.14-.1a23.161,23.161,0,0,0-2,1.34l-1.46,1.36c-.16.03-.48.13-.78.22.36-.12.46-.2-.3-.03a2.126,2.126,0,0,1-.4.2c-.01-.01-.04,0-.03-.02-.93.36-.75.33-.3.2-.02.02.03.03.17.01-1.03.2-2.7.98-2.87.86-2.76,1.12-4.62,2.14-6.84,3.2-.3.03.2-.28.84-.6l-1.58.73c-.04-.13.9-.47,1.37-.7-2,.6-3.85,1.96-6.1,2.9l-.4.33-.14.05c.03.05-.4.37-.72.56-.36.06-.1-.25-1.17.34a23.94,23.94,0,0,0-3.38,2.1c.6-.33.44-.16.2.02-.52.3-.88.4-1.25.67l-.13-.1c.28,0-1.26.96-1.42,1.13-.35.08.74-.58.83-.73-2.05,1.3-1.03.63-3.07,1.94-1.03.8.28,0-.17.45-.95.63-1.8,1.34-2.96,1.97l.42-.1a34.136,34.136,0,0,1-4.06,2.66l-.66.53a.91.91,0,0,1-.17-.5c-.01.06-.1.01-.23-.1a12.1,12.1,0,0,1-1.14,1l.3-.3-1.5,1.24.4-.01c-.7.46-.34-.1-.93.44l.13.15c-1,.74-1.35.64-3.2,1.92-.12.1-.24.2-.37.3l1.6,2.15,1.06,1.36,2.17,2.7a62.182,62.182,0,0,1,3.95,5.36v.24c-.12.2.96.75.9,1l.38.34c.05.13.2.4.01.23a2.751,2.751,0,0,0,.56.6l.2.48c1,1.5,2.14,2.6,3.25,4.15a66.282,66.282,0,0,0,5.57,7.2,22.173,22.173,0,0,1,1.44,1.82,46.3,46.3,0,0,0-3.97,3,4.193,4.193,0,0,1,.58-.54c-1.55,1.23-3.62,2.98-3.8,3l-2.9,2.47-1.5,1.32a7.7,7.7,0,0,0-1.28,1.75,36.159,36.159,0,0,0-2.58,6.07l.05-.2c-.52,1.65-.78,2.1-1.38,3.93a1.512,1.512,0,0,1-.1.2c-.53,1.8-1.8,5.16-2.3,6.6l-.1.07-1.27,3.5.5-1.3c.01.52-1.08,2.6-1.9,5.2-.9,2.37-1.4,4.96-2.36,7.4-.34,1.2.24-1.1-.33.7-.1.03.23-.85,0-.42-.57,1.75-1.1,2.82-1.75,5l-.1.06c-.55,1.96-1.18,3.7-1.65,5.26a2.411,2.411,0,0,0-.86-.32c-1.36-.34-2.08.05-3.7.12a17.845,17.845,0,0,0-3.3-.3c-.7-.04-1.47.01-2.16.02-.33.2-.9-.02-1.3.15V206l.12-1.53c-.1.17.1-1.9-.06-1.38.18-4.05.8-7.34.6-8.82.14-1.84.28-2.17.4-3.1l-.03.44.72-6.98c.12-1.27-.01-1.5.3-3.76-.03.74.07-.2.2-1.04-.06.54-.06.72.13-.4,0-.16.02-.4.04-.63.01-.01.02-.05.02-.03.17-1.42.12-1.18.02-.52-.01-.03-.02.02-.07.22.26-1.46.6-4.1.72-4.26l1.68-10.83c.13-.38.01.45-.15,1.47l.47-2.5a18.472,18.472,0,0,1-.38,2.2c.7-2.93,1.1-6.14,2.2-9.5l.15-.72.07-.2a8.372,8.372,0,0,1,.32-1.27c.24-.44.12.08.74-1.54a27.644,27.644,0,0,1,2.6-5c-.57.77-.4.5-.2.15.52-.7.9-1.05,1.3-1.6h.13a17.745,17.745,0,0,1,1.6-2.04c.4-.32-.87,1.04-.96,1.24,1.15-1.32,1.47-1.62,1.77-1.93s.6-.64,1.9-1.8c1.36-1.28-.32.15.3-.5a30.013,30.013,0,0,1,4.08-3.16l-.54.27c1.55-1.06,2.2-2.3-1.47.26a46.866,46.866,0,0,0-8.35,8,22.213,22.213,0,0,0-3.1,5.42,46.68,46.68,0,0,0-1.63,4.6,93.085,93.085,0,0,0-2.48,10.94c-.85,4.67-1.6,9.68-2.16,14.3-.16,2.2-.73,6.04-.9,8.65l-.17,1c-.05.9-.14,1.95-.25,2.84l-.02-.06c-.06,1.34-.24,2.84-.26,3.5l-.02-.06-.12,1.62-.01-.28-.47,6.85.1-.17-.13,1.6a1.037,1.037,0,0,0-.12.03v-.04a1.7,1.7,0,0,0-.4.13l.05-.07a3.228,3.228,0,0,0-1.27,1.24l.15.03a1.345,1.345,0,0,0-.26.7,2.012,2.012,0,0,0,.03.54,1.472,1.472,0,0,1-.04.74l-.04-.01c.38.77-.26,1.22.1,2.02-.05-.1-.07.04-.1.03.04.37.06.76.35.77,0,.27-.1.22-.2.25.12,0,.18.23.18.44l-.05-.1.04.7c.08-.07.16-.13.23-.2-.05.44-.3.15-.18.6l.2-.07a2.162,2.162,0,0,0,.72,1.55c.03.02.07.02.1.04l-.01,1.34c-.1.2-.17.4-.25.6l-.26.68q-.248.659-.46,1.33c-.28.87-.5,1.74-.7,2.63a18.949,18.949,0,0,0-.27,6.04c-.07-.68-.03.3-.04.24a27.536,27.536,0,0,0,.64,3.47,5.374,5.374,0,0,0,.48,1.58c.34,1.75.22,1.44.2,1.68a17.775,17.775,0,0,1,.63,2.87l-.14-.63.38,1.98a3.428,3.428,0,0,0,.98,2.02,2.458,2.458,0,0,1-.45-.82,2.166,2.166,0,0,0,.7.87,1.914,1.914,0,0,0,.38.23.788.788,0,0,0,.3.08,1.108,1.108,0,0,0,.34-.03.91.91,0,0,0,.33-.13,1.309,1.309,0,0,0,.16-.13l.02-.15.06-.06a.278.278,0,0,0,.12.12c.02.06.04.13.06.18a4.764,4.764,0,0,0,.46.9,2.776,2.776,0,0,0,.85.82,1.636,1.636,0,0,0,1.26.2,1.362,1.362,0,0,0,.6-.3,1.583,1.583,0,0,0,.22-.2l.07-.07a.96.96,0,0,0,.13-.2,1.165,1.165,0,0,0,.13.25.99.99,0,0,0,.32.24,1.964,1.964,0,0,0,.7.2,1.573,1.573,0,0,0,.87-.18,1.77,1.77,0,0,0,.6-.63,4.891,4.891,0,0,0,.45-1.2,13.233,13.233,0,0,0,.36-2.3c.08-.74.08-1.58.15-2.23q.145-1.088.39-2.16c.32-1.46.72-2.9,1.1-4.37.01-.06.03-.1.04-.17.23.52.44,1.06.63,1.6l.18.53a4.835,4.835,0,0,0,.28.6,3.6,3.6,0,0,0,.9,1.12,1.49,1.49,0,0,0,.74.35.9.9,0,0,0,.72-.25,1.65,1.65,0,0,0,.37-.72l.08-.43.02-.32c.01-.84-.07-1.52-.08-2.26s-.028-1.453-.02-2.18l.03-2.18a18.92,18.92,0,0,0-.2-2.2,21.375,21.375,0,0,0-.9-4.2c-.03-.17-.07-.34-.1-.5a5.341,5.341,0,0,0-.83-1.5,5.065,5.065,0,0,1-.76-1.52c-.01-.02-.01-.05-.02-.07a2.3,2.3,0,0,0,1.5-1.26,3.175,3.175,0,0,0,.14-.4c.04-.13.06-.3.08-.37a5.1,5.1,0,0,0,.23-2.14c.03-.04-.03-.16-.05-.16l.12-1.25s.06-.7.06-1.46l-.01.08a1.69,1.69,0,0,0-.19-1.02,1.72,1.72,0,0,0-.59-.63c-.07-.04-.13-.06-.2-.1.8-2.86,1.67-5.63,2.77-8.78l7.86-22c.7-2.13,1.48-4.33,2.38-6.53q.666-1.66,1.45-3.27.392-.8.85-1.57l.47-.74.26-.33.13-.17a.464.464,0,0,1,.1-.1c3.7-3.15,7.53-6.2,11.15-9a4.569,4.569,0,0,0,.4-.3c1.2,1.74,2.3,3.63,3.6,5.25-.9,4.27-1.73,8.5-2.35,12.57a6.052,6.052,0,0,0-.17,1.24l-1.86,9.68-3.1,17.17c-.08,0-.15-.01-.23-.01l-1.03,4.7c.17-.14.08.34.02.83l-.13.03-.03.3q-.027.2-.06.4c-.04.24-.08.44-.1.6a5.132,5.132,0,0,1-.18.68,6.586,6.586,0,0,0-.38,1.3c.32.01.78,0,1.4-.02.25-.06.5-.1.73-.17.22-.01.4-.03.6-.04,2.38.17,6.14.24,6.14.24,10.72.3,16.26-.1,29.02-.2,11.22.07,14.2.34,25.82.23l8.5-.02,9.5-.06c.13-.02.34.03.4-.06-.01-.16-.03-.33-.04-.5l-.08-1.03-.12-1.72-.15-2.66c-.1-1.84-.2-3.73-.37-5.25l.05-1.2c-.06-.55-.1-1.14-.15-1.73l2.44,2.4c3.88,3.8,8.23,7.64,12.28,11.07,2,1.54,5.34,4.47,7.74,6.24l.86.78c.83.6,1.8,1.34,2.58,2l-.06-.02c1.24.9,2.6,1.98,3.22,2.42l-.06-.02,1.5,1.12-.27-.17,2.84,2.1a3.232,3.232,0,0,0,.16,1.73l.1-.1a1.265,1.265,0,0,0,.4.62,2.274,2.274,0,0,0,.44.3,1.354,1.354,0,0,1,.56.5l-.03.02c.85.18.8.96,1.66,1.17-.1-.03-.01.1-.04.1.32.2.64.42.82.2.2.17.12.2.08.3.08-.1.3,0,.46.13l-.1-.02.5.34a2,2,0,0,1,.05-.26c.25.26-.12.3.3.47l.08-.18c.27.15.48.28.75.4a1.434,1.434,0,0,0,1,.07,2.278,2.278,0,0,0,.5-.33l1.94,1.33.2.3c.1.12.18.25.27.38l.6.77c.43.52.9,1.07,1.44,1.65l-.06-.03a28.23,28.23,0,0,0,6.34,4.58,25.385,25.385,0,0,0,3.43,1.4l3.9,1.35c-.72-.24.3.16.22.15,1.33.47,2.58,1.06,3.8,1.35a2.322,2.322,0,0,0,1.7-.23c.44-.3.5-.66.47-.67a1.971,1.971,0,0,0,.11-.39,1.061,1.061,0,0,0,.01-.15,1.678,1.678,0,0,0-.04-.3c.22.04.27.1.3.14l.03.02c-.01-.02.02-.03.1-.03a7.087,7.087,0,0,0,.82,0,2.462,2.462,0,0,0,1.25-.4,1.723,1.723,0,0,0,.66-.97,1.588,1.588,0,0,1-.2.54,1.7,1.7,0,0,0,.29-.86,1.679,1.679,0,0,0-.05-.45.73.73,0,0,0-.07-.2,1.1,1.1,0,0,0-.2-.28,1.322,1.322,0,0,0,.34-.02,1.454,1.454,0,0,0,1.02-1.8Zm-180.53,6.3c-.04.08-.1.2-.15.22a.53.53,0,0,1-.12.1.4.4,0,0,1-.22.08c.06.04.01.07-.1.08a1.1,1.1,0,0,1-.6-.3v-.1a3.047,3.047,0,0,1-.45-.58A.762.762,0,0,0,158,241a2.72,2.72,0,0,1-.11-.25,3.166,3.166,0,0,1-.13-.36l-.12-9.33a12.621,12.621,0,0,0,1.44.09q.35,0,.7-.02c.15-.01.27-.01.4-.02-.08.62-.13,1.96-.18,5-.05,3.5-.02,4.74.04,5.23l-.2.03a2.226,2.226,0,0,1-.14.27Zm7.04-23.3a14.861,14.861,0,0,1,1.46,4.83l.2,1.4a9.494,9.494,0,0,1,.1,1.42l-.08,3.22c.07.5.1,1.3.16,2.1a9.451,9.451,0,0,1,.03,1.02v.23c0,.05-.01.1-.01.14-.02-.01-.06.13-.2.1a.44.44,0,0,1-.18-.12l-.07-.08a1.736,1.736,0,0,0-.15-.2,2.1,2.1,0,0,1-.3-.6c-.01-.06.06.12.38.56a1.062,1.062,0,0,0,.17.2c.02.02.03.04.02.05a.239.239,0,0,0,.07-.03.612.612,0,0,1-.04-.06l-.17-.26a4.76,4.76,0,0,1-.35-.67q-.268-.833-.61-1.64c-.12-.28-.24-.55-.38-.83a4.1,4.1,0,0,0-.54-.9l-.17-.17a.49.49,0,0,0-.35-.47,7.344,7.344,0,0,1-3.6-3.07,5.463,5.463,0,0,1-.1-4.63.5.5,0,0,0-.9-.45,6.367,6.367,0,0,0,.12,5.6,8.446,8.446,0,0,0,3.67,3.3c-.02.05-.03.1-.04.12a.4.4,0,0,0-.03.18q-.037.2-.09.4l-.24.9c.24-.74.44-1.63.34-1.02l-.62,2.26.07-.5-.92,3.42.2-.46-.52,2.03a10.356,10.356,0,0,0-.2,2.28c.01.86.2-1.6.1.2a17.4,17.4,0,0,1-.44,2.65,5.5,5.5,0,0,1-.22.65,1.272,1.272,0,0,1-.24.4c-.04.04-.1.03-.26.01a1.334,1.334,0,0,1-.18-.07,1.2,1.2,0,0,1-.37-.43c-.1,0-.15-.01-.22-.01a.037.037,0,0,0-.01-.03c-.13-.84-.01-9.14.15-10.17a.037.037,0,0,1,.01-.03c1.7-.08,2.13-.15,2.15-.15a.492.492,0,1,0-.17-.97c-.03,0-.65.1-3.45.2a13.454,13.454,0,0,1-2.8-.16c-.4-.05-.82-.1-1.25-.14a.5.5,0,0,0-.54.46.511.511,0,0,0,.46.54q.507.043,1.01.12l.12,9.04-.35-.07a1.079,1.079,0,0,1-.2.16c-.08.06-.15.12-.15.1-.07.03-.1.03-.1.04-.03,0-.04.02-.2-.1a.21.21,0,0,0,.12.03c-.1.02-.27-.1-.42-.24a3.433,3.433,0,0,1-.42-1.16,6.474,6.474,0,0,1-.1-.7,15.769,15.769,0,0,0-.47-2.37c.23,1.2-.05.6-.3-.9l.14.36c-.17-.82-.25-1.1-.34-1.64.13.48.16.24-.1-.97l.25.8-.6-2.26c-.14-.9-.38-1.98-.48-2.98a11.008,11.008,0,0,1-.06-2.22s0-.23.01-.6l.1-1.38c.1-1.04.3-2.17.34-2.6-.1.75.38-1.26.34-.67a14.861,14.861,0,0,1,.4-1.64q.155-.522.35-1.03c.07-.17.14-.33.2-.5.08-.18.1-.24.27-.58l.04-.78c.02-.2.03-.36.04-.52v.22c.01-.12.01-.24.02-.36h.34l1.36-.05a9.24,9.24,0,0,1,2.6.17l.07.15c.02.22.47-.3.52-.1l.2-.1c.05.04.16.1.07.13.18.02.18-.02.3-.08l.18.14c.7.13,1.3-.1,2.03-.02a4.96,4.96,0,0,0,1.72.17c.32-.01.65-.03.95-.06a.757.757,0,0,1,.15-.01c.05.14.1.25.15.36l.58,1.24c-.07-.02.92,1.7.44.97Zm.46-9.95-.05-.01h-.01l-.01.07a2.374,2.374,0,0,0-.01,1.56c-.3.05-.07.56-.18.72l-.02-.02c.2.44-.25.85-.08,1.27-.02-.02-.1-.03-.1-.13.01.3.05.7-.12.7-.01.18-.02.37-.02.57-.01.17-.03.48-.02.47.01.1,0,.23.01.4l-.02-.05c.03.22-.1.1-.18.22-.01-.02-.03-.03-.03-.04a.133.133,0,0,1-.1.08.75.75,0,0,1-.22,0,2.153,2.153,0,0,0-.5-.01l-.01-.1h-.56l.2.03c-.1.3-.4-.2-.83-.03-.38-.05-.8.6-1.18.44-.2.14.17-.23-.1-.13,0-.16.14-.1.07-.22-.28.06-.44-.18-.8-.1l-.01-.12c-.45.2-.83-.2-1.13.01-.46.08-.3-.38-.78-.16l-.18-.18c-.2-.04-.15.2-.38.1.02-.1-.28-.1-.15-.2-.5-.2-1.05.2-1.7-.12-.15.2-.5.06-.6.2-.01-.1-.68-.04-.3-.22.03-.01.1-.01.1.03l.05-.12c-.37-.25-.7.1-1.08.05.1.05.26.04.16.12l-.35-.03.08-.1-.52-.08.07.13c-.25-.08-.34-.3-.63-.13-.14.1.24.18-.04.2-.04-.01-.1-.03-.14-.04l-.04-.04a.144.144,0,0,1-.06-.1.373.373,0,0,1-.04-.16c-.1.1-.12.08-.17.07l.1-.07c-.2-.01.25-.14.1-.13l.1-.01a1.154,1.154,0,0,1-.26.01c-.25-.3.26-.2-.08-.63.02.18-.27.1-.22-.14l.12.06c-.03-.12-.08-.17-.05-.25.06.07.17.04.15-.14l.15.12-.22-.35c.13-.27-.03-.7.14-.8,0,0,.08-.58-.1-.7.12.12.16-.2.3-.1-.13-.15-.24-.6-.1-.77l.02.03a2.341,2.341,0,0,0-.02-.88c-.02-.18-.04-.14-.05-.18s.02-.05.07-.05c-.14-.07-.03-.1-.2-.2-.02-.15.16-.15.23-.1.1.03.1.03.15-.25.22-.03.3.14.44.17l-.07.03a6.213,6.213,0,0,1,1.05-.01c.2-.05.23-.32.57-.24-.1.1.03.1.16.1-.08.01-.1.05.06.13a.255.255,0,0,1,.1-.07c0,.01.01.01,0,.03.22-.03.18-.07.08-.08.01-.02,0-.04-.03-.07.22.14.62.01.64.2.65-.03,1.1-.2,1.65-.26.06.1-.07.17-.23.2h.38c-.01.13-.22.07-.34.1.45.23.94-.2,1.47.02l.1-.1.03.02c0-.06.12-.13.2-.15.07.12-.01.27.25.27.2.12.6-.04.87-.1-.15-.02-.1-.1-.03-.13.13,0,.2.12.3.07v.16c-.05-.15.35-.15.4-.22.07.12-.2.1-.24.18h.8c.28-.1-.05-.15.1-.3a1.7,1.7,0,0,1,.78-.03l-.1-.14a1.537,1.537,0,0,1,1.06.07,5.834,5.834,0,0,0,1.45-.58c-.03.1-.07.23-.1.34l.33.01a1.864,1.864,0,0,1,.22.07,1.518,1.518,0,0,1,.23.53.444.444,0,0,1-.2.5Zm26.28-93.62c2.8-1.64,4.66-2.55,6.53-3.45s3.75-1.74,6.86-3.13l6.28-2.57-.46.7c.2-.04-.73,1.32-.35,1.06a30.473,30.473,0,0,0-1.57,3.93,2.708,2.708,0,0,0-.13.44c-.1.22-.23.44-.33.67a59.107,59.107,0,0,0-4.58,12.85l-.8,3.73-.38,1.83-.28,1.8-1,6.4c-.45,2.85-1,5.83-1.63,8.85a64.151,64.151,0,0,0-3.85-5.23c-1.1-1.47-2.37-3-3.5-4.4-.7-.55-1.45-1.87-2.2-2.56l-.15-.38a3.147,3.147,0,0,1-.7-.85h.04c-.4-.36-.7-.85-.9-1.03h.04l-.4-.5.1.06a18.449,18.449,0,0,1-1.68-2.08l-.07.14c-.95-1.5-1.6-1.82-2.4-3.2h.04c-1.54-1.36-1.74-2.68-3.3-4.1.2.18-.01-.13.03-.14-.3-.36-.6-.72-.87-1,3.78-2.53,6.35-4.58,11.6-7.88Zm6.38,41.72c-3.7-4.55-7.16-10.25-11-14.7a2.257,2.257,0,0,0-.5-.54l-3.48-4.6-2.67-3.46c-.05-.1-.1-.17-.16-.27a.359.359,0,0,1-.1-.07l-1.54-1.95a1.043,1.043,0,0,1,.22.17c.06.06.15.18.12.2l.17.02c-.42-.94-1.2-1.38-1.76-2.2.14.26.4.56.16.4l-.54-.75.2.1-.77-1.13.01.23c-.35-.58-.32-.9-.92-1.4-.3-.2.24.6-.2.07-.06-.1-.12-.2-.2-.32l-.04-.12c-.02-.08-.04-.14-.05-.2l.2-.1.08-.03q.154-.105.3-.22c-.1-.03-.04-.12.08-.24.1-.06.2-.12.28-.17l.05.03c.07-.07.12-.12.18-.17l.47-.3c.15-.02.26.02.73-.45v-.02l.3-.2.73-.46.2.14c.33.63,1.13,1.4,1.17,1.74a6.9,6.9,0,0,0,1.2,1.4c-.28-.17.2.5-.05.4a4.948,4.948,0,0,1,1.3,1.52l-.07-.06c.93,1.43,1.94,2.18,2.74,3.5.07-.14.5.54.53.27,1.1,1.14,1.47,2.5,2.27,2.6a4.688,4.688,0,0,1,.62,1.07l-.13-.12c.86,1.04,1.1,1.34,1.7,2.14.35.36.6.26,1.1,1-.26-.16-.02.1.18.38-.14-.16-.22-.2,0,.2a1.19,1.19,0,0,1,.21.15c0,.01,0,.03-.01.03.37.42.34.32.2.1.02,0,.02-.03,0-.1.25.54,1,1.27.9,1.44,1.06,1.3,1.95,2.14,2.86,3.2.02.18-.24-.03-.52-.32l.63.76c-.1.08-.4-.4-.62-.63.55,1.07,1.66,1.8,2.35,3l.26.16.04.08c.04-.04.3.16.43.3.03.23-.22.15.2.7a7.976,7.976,0,0,0,1.27,1.5l-1.3,6.23Zm17.2,45.42.78.13c2.85.1,5.28-.15,8.3-.1,3.6.27,10.4.02,14.3-.12,5.5-.32,11.9.53,17.53.17a2.031,2.031,0,0,0,.65-.06l5.15.03h1.94l3.08-.03c.14-.01.28-.01.42-.02l.05.38c.02.15.03.3.05.44s.02.3.02.47a11.41,11.41,0,0,0,.16,1.15c.03.3.07.58.1.86l.17,1.17c0,.04.01.07.01.1,0,.08.01.18.01.27-1.25-.16-3.1-.23-3.1-.23-5.6-.32-8.5.08-15.17.17-5.86-.1-7.42-.36-13.5-.27-2.9-.03-6,.03-8.83.05-1.35.2-3.72-.01-5.3.17l-.62-.12a7.8,7.8,0,0,1-1.74.03l.03-.03c-.82.1-1.74.03-2.15.08l.03-.04-1,.01.17-.05q-2.1.129-4.2.05l.1.15c-2.77-.17-3.8.13-6.3-.07l.03-.04c-3.17.37-5-.27-8.27.08.4-.04-.17-.08-.14-.1-1.5.04-3.1.06-3.13.34-1.1-.01-.9-.1-1.03-.2.01.13-.95.17-1.8.18l.4-.05-1.96.04a.53.53,0,0,0,.15.24c-.68-.06-.17-.23-.47-.24a.793.793,0,0,0,.02-.17l-.23.15a5.129,5.129,0,0,1,.21-.74q.151-.523.32-1.04c.22-.68.45-1.34.68-2.2l.17-.88,4.24-.06,5.1-.1c3.38-.06,6.7-.08,9.8.08l.3.15c.13.2,1.86-.32,2.1-.12l.78-.1c.22.04.68.08.3.13a7.289,7.289,0,0,0,1.3-.1Zm86.86,20.7Zm1.04-1.45-.2.04c-.04.14-.1.3-.24.35l-.02-.03c0,.01-.01.02-.02.04a62.485,62.485,0,0,0-5.97-4.4c-1.68-1.27-1.92-1.6-2.76-2.3l.4.3-6.26-5.02a41.7,41.7,0,0,1-3.4-2.65c.7.5-.14-.18-.88-.82.48.4.64.5-.3-.36-.15-.1-.37-.28-.57-.44-.01-.01-.04-.05-.02-.04-1.25-1.06-1.05-.85-.48-.35-.04-.02.01.03.17.2-1.24-1.17-3.57-3.12-3.64-3.34-3.67-3.28-6.3-5.62-9.22-8.5-.28-.37.42.28,1.3,1.1l-2.07-2.04c.08-.04,1.2,1.15,1.86,1.77-2.36-2.52-5.12-4.97-7.74-8.06l-.6-.6-.15-.2a9.756,9.756,0,0,1-1.04-1.07c-.3-.5.12-.05-1.1-1.63-.9-1.3-2.74-3.6-4.02-5.24.66.9.42.64.1.27-.6-.8-.9-1.3-1.4-1.9l.01-.1c-.14-.07-1.67-2.1-1.9-2.35-.3-.5.98,1.2,1.18,1.38l-3.64-4.83c-1.35-1.68.16.37-.52-.4-1.15-1.5-2.32-2.95-3.58-4.73l.35.6c-1.3-1.67-1.5.7,8.15,12.16,1.76,2.1,2.96,4,4.14,5.6,1.18,1.64,2.36,2.97,3.52,4.3q2.206,2.485,4.53,4.86c.06,1.35-.03,1.8-.01,2.72l-.06-.5.33,5.2-1.2-.03-1.66-.02a25.367,25.367,0,0,0-2.94.18c-.3-.3-2.32-.03-2.98-.12l.06-.02c-1.72.22-3.54-.18-5.2.01a.758.758,0,0,1,.48-.1,11.367,11.367,0,0,1-2.95-.07c-2.9.04-6.92-.03-8.77.23l.13-.05a22.431,22.431,0,0,1-2.54.12c-.06-.02-.15-.03-.13-.04-1.15.18-3.35.03-4.28.1l-.06-.1-2.3.03.85.02c-.3.3-1.73-.2-3.4.01-1.55-.04-3.15.64-4.76.5-.77.14.68-.23-.47-.12-.04-.16.54-.1.24-.23-1.13.08-1.85-.16-3.24-.06l-.06-.12c-1.8.23-3.42-.16-4.63.05-1.87.1-1.26-.37-3.2-.13l-.76-.17c-.83-.03-.6.2-1.52.12.06-.1-1.17-.08-.63-.2-2.1-.17-4.25.24-7-.04-.6.2-2,.08-2.43.24-.07-.1-2.78-.01-1.22-.2.13-.02.37-.01.35.02l.2-.12a32.219,32.219,0,0,0-4.4.1c.46.04,1.07.03.66.1H198l.3-.1-2.15-.06.3.13a8.893,8.893,0,0,0-2.6-.1c-.54.1,1,.17-.1.2-.2-.01-.44-.02-.66-.02l1.38-5.63v.25c1.1-5.28,1.77-8.62,2.23-12.32.4-.53.85-4.35,1.18-5.58v.12c.4-3.27,1.44-6.63,1.83-9.8a2.575,2.575,0,0,1-.07.92,48.669,48.669,0,0,1,1.1-5.54c.98-5.44,2.5-13,2.88-16.52v.25c.2-2,.46-2.57.8-4.8a1.365,1.365,0,0,1,.1-.25c.26-2.2,1.1-6.3,1.32-8.06l.13-.1c.12-.7.22-1.44.37-2.15l.46-2.12-.38,1.58a6.435,6.435,0,0,1,.45-2.2c.33-1.1.65-2.53,1.02-4.06.44-1.4.64-2.9,1-4.38a25.152,25.152,0,0,1,1.4-4.36l.1-.32c-.02.14-.03.27-.05.38l.05-.1c-.01.15.05.1.38-.73.18,0-.33.97.02.5l.43-1,.13-.88c1.38-2.9,3.9-7.8,5.68-9a.476.476,0,0,1,.14-.05,14.133,14.133,0,0,1,2.45-1.87v.05a12.953,12.953,0,0,1,4.13-2.4c1.4-.5,2.8-.9,4.64-1.37-.46.1.2.04.18.08,1.7-.3,3.58-.26,3.62-.52,1.3.1,1.04.17,1.2.3a5.029,5.029,0,0,1,2.1.17l-.46-.04q.711.12,1.41.3a12.256,12.256,0,0,1,1.4.4l-.47-.4c1.45.56.3.36,1.7.84l.05-.2a23.133,23.133,0,0,1,4.66,2.87,59.13,59.13,0,0,1,18.07,18.54l.08.38c-.1.25,1.53,1.7,1.54,2.06l.6.74c.12.24.4.74.1.37a9.678,9.678,0,0,0,.93,1.23l.4.86c1.83,2.95,3.66,5.3,5.6,8.4.25.45.55.96.87,1.5-.25.16-.5.3-.76.47l-1.58,1.02-3.14,2.07c-2.1,1.37-4.16,2.7-6.18,3.75l-.25-.02c-.2-.14-.93.95-1.18.87l-.4.37c-.15.05-.45.18-.24,0a3.41,3.41,0,0,0-.7.54l-.53.17c-1.74.96-3.04,2.06-4.84,3.12a82.836,82.836,0,0,0-8.4,5.34c-3.08,2.28-7.3,3.9-10.44,6.27-.12.04-.37.27-.35.3l-3.06,1.86-.72.45c-.97-1.82-1.87-3.4-2.8-5.05-1.36-2.38-2.8-4.9-4.6-8.52-1.5-3.22-2.3-5.32-3.1-7.44l-.75-2.06c-1.34-3.22-2.97-6.84-3.45-6.7-.8.23,2.3,8.98,2.77,10.33l.02.03.05.15a3.389,3.389,0,0,1,.53.85c.04.4-.26.08.27,1.3a32.767,32.767,0,0,0,1.9,3.9c-.3-.67-.14-.5.04-.22.3.6.35,1,.6,1.42l-.1.13c.02-.3.9,1.48,1.07,1.67.06.4-.54-.87-.7-.98,1.2,2.36.58,1.2,1.8,3.53.75,1.2.02-.3.45.24.6,1.1,1.26,2.1,1.84,3.42l-.1-.46a41.974,41.974,0,0,1,2.5,4.68l.43.66c-.22.14-.46.28-.7.44l1.44,2.2,1,1.47a18.785,18.785,0,0,0,1.7,2.2c.84.87.86.14-1.24-4.45l.1.05-.26-.46a1.417,1.417,0,0,1-.08-.18c-.05-.1-.1-.2-.14-.27a2.421,2.421,0,0,0,.39-.27,11.672,11.672,0,0,0,1-.8c.33.13,1.38-.82,1.82-.98l-.02.04c.9-.82,2.2-1.14,3.07-1.9a.483.483,0,0,1-.23.27c.7-.47,1.64-1.13,1.78-1.02a50.744,50.744,0,0,0,5.05-3.4l-.05.1a11.826,11.826,0,0,1,1.44-1.03c.05,0,.1-.03.1-.01a28.675,28.675,0,0,1,2.47-1.65l.1.07,1.34-.86-.52.3c.01-.37,1.12-.47,2-1.24.94-.53,1.52-1.7,2.55-2.15.38-.4-.28.45.34-.07.1.12-.26.28-.02.28.63-.48,1.18-.54,1.94-1.14l.1.08c.95-.86,2.1-1.1,2.7-1.74,1.05-.77.94-.14,1.96-1.06l.54-.13c.5-.28.24-.4.83-.66.02.1.73-.36.47-.07,1.32-.62,2.4-1.75,4.16-2.52.24-.4,1.13-.8,1.3-1.1.1.05,1.65-1,.83-.27-.07.06-.2.15-.22.1l-.05.17a15.586,15.586,0,0,0,2.56-1.7c-.3.13-.65.37-.45.15l.86-.5-.12.2,1.3-.74h-.24c.66-.33,1-.28,1.6-.87.26-.28-.68.22-.04-.22q.177-.1.36-.18a.54.54,0,0,1,.16-.05c.08-.02.15-.03.2-.04l.08.24.01.05v.02l.05.1c.08.14.16.27.24.4.06-.18.24.1.45.38l-.08.1c.87,1.02.03.56.86,1.6l.27.1c.47.34-.02.22.22.37a.3.3,0,0,1,.03.1c.1-.08.43.05.1.2a.333.333,0,0,0-.06-.1c-.08.08-.1.14-.18.17,0-.08.05-.24-.43.1l.2-.3-.7.72c-.7.3-1.64,1.1-2,1.1a7.427,7.427,0,0,0-1.64,1.17c.22-.27-.57.17-.43-.08a5.974,5.974,0,0,1-1.8,1.25l.07-.06c-1.64.88-2.57,1.87-4.07,2.62.14.08-.64.5-.36.53-1.36,1.08-2.85,1.37-3.07,2.2a5.223,5.223,0,0,1-1.2.58l.14-.13q-1.227.855-2.5,1.64c-.43.34-.36.6-1.22,1.08.2-.26-.12-.03-.42.17.2-.14.23-.2-.2-.01a.943.943,0,0,1-.2.2c-.01,0-.03,0-.03-.01-.5.36-.4.33-.14.2,0,.02.03.03.12,0-.6.22-1.48.96-1.64.84-1.52,1.02-2.53,1.88-3.78,2.76-.2.01.06-.25.42-.52l-.9.6c-.06-.12.48-.4.75-.6-1.2.5-2.12,1.6-3.5,2.25l-.2.26-.1.03c.03.04-.2.3-.4.43-.24.02-.13-.24-.76.17a11.1,11.1,0,0,0-2,1.42c.36-.2.28-.08.15.05-.3.2-.56.22-.77.42l-.12-.1c.2.05-.74.66-.82.8-.24.02.44-.4.47-.52l-1.9,1.23c-.6.53.2.05-.05.37a12.5,12.5,0,0,1-1.84,1.22l.3-.02a11.841,11.841,0,0,1-2.57,1.58c-.66.53-1.2,1-1.67,1.4l-.87.55c.16-.07.32-.15.5-.24-4.3,3.77,1.1.73,1.1.73,3.45-1.83,4.93-3.25,8.78-5.83,3.47-2.13,4.53-2.48,8.03-4.84,1.7-1.06,3.5-2.27,5.13-3.35.67-.68,2.18-1.4,3.02-2.13l.43-.13a3.932,3.932,0,0,1,1-.68v.04c.43-.38,1-.68,1.22-.87v.04l.57-.38-.07.1a21.373,21.373,0,0,1,2.43-1.62l-.14-.08a19.227,19.227,0,0,0,2.35-1.5l8.22,13.18-.15-.2c1.14,1.6,1.36,2.16,2.58,4,.05.1.13.24.1.23q1.173,1.716,2.29,3.47l1.2,1.8.13.2c.01.02.04.08.08.17l.2.4a6.5,6.5,0,0,0,.37.67v.13c.72,1.26,1.5,2.45,2.3,3.64l-.87-1.35c.45.37,1.7,2.78,3.6,5.23,1.67,2.38,3.77,4.53,5.48,7,.92,1.1-.86-.93.46.75-.04.1-.64-.77-.38-.28,1.28,1.67,1.98,2.84,3.58,4.88v.13c2.14,2.63,3.75,5.18,5.22,6.9,2.16,2.75,1.24,2,3.57,4.8l.8,1.18c.94,1.24.78.8,1.8,2.2-.12-.04,1.3,1.75.64,1,.93,1.24,1.94,2.48,3,3.74a4.771,4.771,0,0,0-.38.3c-1.1.86-1.25,1.67-2.2,3a20.765,20.765,0,0,0-2.28,2.4c-.47.53-.9,1.16-1.32,1.72-.1.37-.63.68-.74,1.1Zm5.55,5.25a3.862,3.862,0,0,1-.34.24l.06-.06a.138.138,0,0,1-.04-.03c-.01-.04-.02-.12-.02-.1,0,.14-.01.14-.05.16l.02-.12c-.15.13.07-.26-.02-.16l.05-.07c-.04.08-.14.1-.23.15-.48-.06-.02-.34-.6-.37.16.1-.1.27-.25.1l.12-.06c-.1-.06-.18-.04-.23-.1.1,0,.14-.1-.02-.2l.2-.04-.4-.04c-.13-.27-.57-.4-.55-.6,0,0-.4-.42-.62-.36.16-.02-.06-.25.1-.3a.818.818,0,0,1-.67-.4h.04a2.032,2.032,0,0,0-.7-.53c-.16-.1-.14-.05-.18-.08-.03-.01-.03-.04,0-.08-.14.07-.1-.03-.27.04-.13-.1-.01-.22.06-.26s.08-.07-.1-.28c.13-.2.3-.16.4-.25l-.02.07a6.953,6.953,0,0,1,.64-.84c.08-.18-.1-.38.16-.6.01.15.08.03.17-.07-.04.07-.03.12.14.03a.246.246,0,0,1,.01-.12c.01,0,.02,0,.02.01.1-.2.06-.18-.02-.1a.1.1,0,0,0-.07-.02c.25-.1.4-.5.55-.4.38-.53.53-1,.82-1.46.1.01.1.16.02.3l.22-.32c.1.1-.08.22-.13.33.46-.2.43-.86.92-1.15l-.01-.15.03-.01c-.04-.03-.03-.18.01-.25.14.02.2.18.37-.03.22-.1.33-.5.46-.74-.1.1-.13.02-.12-.05.08-.1.22-.1.25-.2l.13.1c-.15-.05.1-.37.08-.45.14.02-.05.22-.01.3l.5-.63c.1-.3-.15-.06-.17-.25.13-.2.2-.47.46-.63l-.17-.02a1.523,1.523,0,0,1,.7-.8,8.615,8.615,0,0,0,.34-1.02c.02.03.05.05.07.08l.44-.53a1.866,1.866,0,0,1,.2-.1c.08.02.16.03.25.06.27.07.67.3.66.62-.02,0-.04.01-.04.02a2.494,2.494,0,0,0,1.24,1c-.13.27.4.4.46.58l-.03.01c.46.1.52.72.95.84-.03.01-.1.06-.16,0,.24.17.58.4.5.53l1.06.9h-.05c.18.12.01.14.04.3a.075.075,0,0,1-.05-.01c.14.12-.4.53-.48.73l-.1-.06-.34.44.15-.14c.2.25-.42.2-.53.64-.28.27-.01,1-.38,1.2-.01.24-.07-.28-.17.01-.13-.1.01-.16-.14-.2-.12.26-.42.24-.56.57l-.1-.07c-.1.5-.67.53-.7.9-.22.42-.48,0-.6.52l-.25.03c-.15.14.06.24-.15.37-.07-.08-.25.16-.24,0-.46.28-.5.95-1.14,1.28.06.25-.25.43-.2.6-.08-.04-.45.5-.35.1.01-.04.05-.08.07-.05l-.06-.1c-.43.14-.36.62-.63.88.1-.06.2-.18.2-.05l-.24.26-.03-.12-.4.36.14.03c-.22.15-.44.08-.5.42,0,.2.3-.04.15.2Zm27.9,9.68a4.389,4.389,0,0,1-.28.4l-7.64-5.2a.5.5,0,1,0-.57.83l7.93,5.4a.293.293,0,0,0,.1.03c.02.02.03.05.05.07a.46.46,0,0,1,.06.2.607.607,0,0,1-.18.52,1.035,1.035,0,0,1-.6.28c.52-.1.56-.15.47-.04a1.012,1.012,0,0,1-.43.17,2.584,2.584,0,0,1-.42.03c-.15-.01-.24-.01-.46-.04a.035.035,0,0,0-.01-.02h.13l.2-.02a3.048,3.048,0,0,1-.35-.03.5.5,0,0,0-.19-.24l-7.35-4.5a.518.518,0,0,0-.7.17.5.5,0,0,0,.17.7l6.92,4.23a1.067,1.067,0,0,1-.17.34,1.159,1.159,0,0,0,.12-.3c-.02.01-.04.06-.27.35.1.6,0,.58-.1.7a.21.21,0,0,0,.05-.13.328.328,0,0,0,0-.1.513.513,0,0,0-.01-.1l-.03-.23c.01.1.03.25.03.3a.34.34,0,0,1-.01.1.439.439,0,0,0-.02.1.245.245,0,0,1-.18.13,1.784,1.784,0,0,1-1-.01c-.88-.32-2.14-.86-3.24-1.27s-2.07-.77-2.45-.96l-2.2-.8c-1.18-.4-2.36-.87-2.83-1.05.4.15.07-.03-.27-.22s-.7-.44-.38-.3a14.841,14.841,0,0,1-2.39-1.38,14.657,14.657,0,0,1-2.24-1.87l.2.16c-.68-.65-1.3-1.28-1.85-1.92-.28-.32-.54-.64-.8-.96l-.36-.48-.17-.24-.24-.36-2.07-1.42a14.885,14.885,0,0,1,2.47-2.97l.16.04c.18.1.05-.55.24-.47l.05-.2c.06-.02.17-.08.14.03.12-.13.1-.16.13-.3l.22-.06c.53-.47.72-1.1,1.24-1.6a8.691,8.691,0,0,0,1.92-2.34,8.038,8.038,0,0,0,1.24.32,12.809,12.809,0,0,0,2.22.1,12.007,12.007,0,0,1,2.1.5c.84.3,1.32.5-.03.08a3.157,3.157,0,0,1-.6-.2c-.1-.01-.22-.01-.34-.01,1.32.4,2.52.9,3.73,1.4.3.12.63.27.95.38a5.231,5.231,0,0,1,.8.42l1.8,1.1c-.73-.48-1.7-1.1-1.02-.72.76.48,1.53.97,2.32,1.42l-.52-.23c.58.35,1.17.7,1.78,1,.32.16.6.32.86.46l.3.2.06.06a.139.139,0,0,0-.03-.13c.1.1.16.2.1.25a.442.442,0,0,1-.22.05,4.809,4.809,0,0,1-.92-.02l-.12-.01c.01,0-.06-.01-.1-.02-.1-.02-.22-.05-.34-.07-.24-.05-.5-.1-.78-.13-1.02-.14,1.86.47-.24.1-.33-.06-.68-.13-1.06-.18a5.535,5.535,0,0,0-.6-.06c-.1-.01-.22-.01-.34-.01a1.064,1.064,0,0,0-.56.14,1.176,1.176,0,0,0-.17.14.56.56,0,0,0-.14.3.679.679,0,0,0,.1.48.67.67,0,0,0,.18.21c.02.02,0,.01.03.05l.1.14c.13.18.26.35.4.52q.419.509.87.99a36.829,36.829,0,0,0,3.93,3.6c-.2-.27.54.33,1.32.82l.04.12a7.827,7.827,0,0,1,1.86,1.46q.2.24.43.46c.1.1.24.25.4.44.07.1.17.2.24.3s.15.26.15.24c0,0,.01,0,.03.02s.06.04.04.1c-.14.17-.06.3-.76.35Z"/>
  </g>
</svg>
