<svg xmlns="http://www.w3.org/2000/svg" xmlns:xlink="http://www.w3.org/1999/xlink" width="221.568" height="147.226" viewBox="0 0 221.568 147.226">
  <defs>
    <linearGradient id="linear-gradient" x1="0.672" y1="0.281" x2="0.01" y2="1.035" gradientUnits="objectBoundingBox">
      <stop offset="0" stop-color="#cc7a5e" stop-opacity="0"/>
      <stop offset="1" stop-color="#aa5f4b"/>
    </linearGradient>
    <linearGradient id="linear-gradient-2" x1="0.288" y1="0.477" x2="1.084" y2="-0.132" gradientUnits="objectBoundingBox">
      <stop offset="0.394" stop-color="#7b1f48"/>
      <stop offset="0.71" stop-color="#a02d5a"/>
    </linearGradient>
    <linearGradient id="linear-gradient-3" x1="0.639" y1="0.308" x2="-0.267" y2="0.753" gradientUnits="objectBoundingBox">
      <stop offset="0" stop-color="#660036" stop-opacity="0"/>
      <stop offset="0.998" stop-color="#660036"/>
    </linearGradient>
    <linearGradient id="linear-gradient-4" y1="0.5" x2="1" y2="0.5" gradientUnits="objectBoundingBox">
      <stop offset="0" stop-color="#7e2548"/>
      <stop offset="0.861" stop-color="#a02d5a"/>
    </linearGradient>
    <linearGradient id="linear-gradient-5" x1="0.819" y1="0.728" x2="0.392" y2="0.443" xlink:href="#linear-gradient-4"/>
    <linearGradient id="linear-gradient-6" x1="0.47" y1="0.64" x2="0.423" y2="0.856" gradientUnits="objectBoundingBox">
      <stop offset="0" stop-color="#cc7a5e" stop-opacity="0"/>
      <stop offset="0.924" stop-color="#aa5f4b"/>
    </linearGradient>
    <linearGradient id="linear-gradient-7" x1="0.756" y1="1.074" x2="0.245" y2="0.006" xlink:href="#linear-gradient-4"/>
  </defs>
  <g id="_7" data-name="7" transform="translate(-142.539 -91.014)">
    <path id="Path_14690" data-name="Path 14690" d="M310,126.45l2.7-2.2,5.3-4.6c1.3-1.2,9.5-16.3,9.5-16.3l-8.2-2.8-9.4,7-3.7,8,3.8,10.9Z" fill="#cc7a5e"/>
    <path id="Path_14691" data-name="Path 14691" d="M324.1,91.05l3.8.6a1.324,1.324,0,0,1,.9,2.1l-14,19.7a1.436,1.436,0,0,1-1.5.5l-6.6-1.7,15.9-20.8a1.748,1.748,0,0,1,1.5-.4Z" fill="#1f2b36"/>
    <path id="Path_14692" data-name="Path 14692" d="M286,136.35s14.8-16.2,16-18.7a64.217,64.217,0,0,0,2.5-8.6c.4-2.4,2.4-4.3,3.9-5.7s7.7-3.7,7.7-3.7a3.459,3.459,0,0,1-.1,2.9,11.474,11.474,0,0,1-5,4.2s-1.6,4.2-2.5,5.9l-.9,1.7s1.1-.3,3.6,2.5c2.4,2.8,1.1,7.3,1.1,7.3l-15.4,22.6L286,136.35Z" fill="#e89976"/>
    <path id="Path_14693" data-name="Path 14693" d="M320.7,99.65c.7-1.3,2.9-.6,3.7,0,.8.5,3.6,1.7,2.8,3.1-.8,1.5-2,1.6-3.9.7-1.8-.8-3.1-2.7-2.6-3.8Z" fill="#ea9d7d"/>
    <path id="Path_14694" data-name="Path 14694" d="M325.33,104.52a5.309,5.309,0,0,1-2.23-.62,5.422,5.422,0,0,1-2.8-2.8,2.174,2.174,0,0,1-.03-1.66c0-.01.01-.02.01-.03a1.842,1.842,0,0,1,1.28-.94,4.443,4.443,0,0,1,3.16.77c.08.05.25.14.43.24.94.5,2.35,1.3,2.65,2.35a1.518,1.518,0,0,1-.15,1.16,2.484,2.484,0,0,1-2.3,1.53Zm-4.18-4.64a1.173,1.173,0,0,0,.06.87,4.4,4.4,0,0,0,2.3,2.25c2,.95,2.72.52,3.26-.48a.491.491,0,0,0,.06-.4c-.18-.65-1.48-1.36-2.17-1.74l-.52-.3a3.4,3.4,0,0,0-2.38-.62.893.893,0,0,0-.6.4Z" fill="#cc7a5e"/>
    <path id="Path_14695" data-name="Path 14695" d="M316,107.95c.2-1.5,2.5-1.6,3.4-1.3.9.2,4.5.4,4.2,2.1s-1.8,2-3.9,2c-1.9-.3-3.8-1.6-3.7-2.8Z" fill="#ea9d7d"/>
    <path id="Path_14696" data-name="Path 14696" d="M319.7,111.25c-2.13-.33-4.33-1.78-4.2-3.34a1.88,1.88,0,0,1,.92-1.4,4.275,4.275,0,0,1,3.13-.33c.1.02.3.05.54.08,1.2.18,3.04.45,3.74,1.43a1.508,1.508,0,0,1,.26,1.15c-.38,2.12-2.34,2.4-4.4,2.4Zm-3.2-3.24c-.05.78,1.45,1.96,3.28,2.25,2.23-.01,3.12-.42,3.33-1.6a.517.517,0,0,0-.08-.4c-.45-.63-2.22-.9-3.07-1.02l-.66-.1a3.213,3.213,0,0,0-2.34.2.887.887,0,0,0-.46.65Z" fill="#cc7a5e"/>
    <path id="Path_14697" data-name="Path 14697" d="M314.6,111.75c.1-1.3,2.2-1.3,3-1.2s3.5.2,3.3,1.6c-.2,1.5-1.2,2-3,1.8-1.8-.1-3.5-1.2-3.3-2.2Z" fill="#ea9d7d"/>
    <path id="Path_14698" data-name="Path 14698" d="M318.57,114.5a6.011,6.011,0,0,1-.72-.04,4.864,4.864,0,0,1-3.38-1.53,1.615,1.615,0,0,1-.36-1.24,1.536,1.536,0,0,1,.58-1.07,4.392,4.392,0,0,1,2.98-.56l.3.03c1.2.12,2.55.3,3.16,1.08a1.365,1.365,0,0,1,.28,1.05c-.2,1.52-1.16,2.28-2.84,2.28Zm-1.64-3.48a2.844,2.844,0,0,0-1.62.38.479.479,0,0,0-.2.4.127.127,0,0,1-.01.06.649.649,0,0,0,.16.46,3.877,3.877,0,0,0,2.67,1.14c1.9.2,2.35-.4,2.48-1.37a.352.352,0,0,0-.07-.3c-.4-.5-1.84-.64-2.47-.7l-.33-.04-.6-.03Zm-2.33.74Z" fill="#cc7a5e"/>
    <path id="Path_14699" data-name="Path 14699" d="M299.6,125.35c7.9,5.3,5.9,8.8,5.9,8.8l-8,11.6-10.3-10.7,9-10a3.771,3.771,0,0,1,3.4.3Z" fill="url(#linear-gradient)"/>
    <path id="Path_14700" data-name="Path 14700" d="M317.6,103.75c.5-1.4,3.1-1.2,4.2-.9s4.8,1.2,4.1,2.8-2.2,1.6-4.4,1.2c-2.4-.3-4.4-1.8-3.9-3.1Z" fill="#ea9d7d"/>
    <path id="Path_14701" data-name="Path 14701" d="M323.45,107.58a11.284,11.284,0,0,1-2.04-.23,5.726,5.726,0,0,1-4.1-2.18,1.8,1.8,0,0,1-.2-1.58c.68-1.87,3.77-1.5,4.8-1.2l.18.05c1.8.48,3.7,1.12,4.24,2.23a1.3,1.3,0,0,1,.01,1.2,2.82,2.82,0,0,1-2.9,1.7Zm-3.37-4.44c-.9,0-1.8.2-2,.78a.827.827,0,0,0,.1.72,4.728,4.728,0,0,0,3.4,1.7c2.45.44,3.4.22,3.88-.9a.423.423,0,0,0,0-.38c-.4-.84-2.8-1.48-3.6-1.7l-.18-.05a7.04,7.04,0,0,0-1.61-.19Zm-2.48.6Z" fill="#cc7a5e"/>
    <g id="Group_989" data-name="Group 989">
      <path id="Path_14702" data-name="Path 14702" d="M297,141.95v.8l-1-.3Zm3.8-1.9h.6l-.3.5Zm-4.9-7.1.5.4-.7.3Zm-3.7,6,.4-.2.1.6Zm6.3,1-.1-.6.6.1Zm2.3-2,.7-.2-.1.8Zm4.4-3.8-.7.9-.6-1Zm-3.1,4.9-.6.9-.6-1Zm1.8-2.7-.6.8-.7-1Zm-4.4,1.5.1.9-1-.4Zm-.9-3.8.9.2-.6.8Zm2.1,5.6-1.1-.2.7-1Zm-1.1-3.4-.4.8-.6-.9Zm-7.9.4.8.5-.9.4Zm12.8-1.5-.6.9-.6-.9Zm-7.9,5.6.9.3-.5.8Z" fill="#ad5c44"/>
      <path id="Path_14703" data-name="Path 14703" d="M297,141.45l.9.1-.5.9Zm6.2-4.6-.2.9-.9-.6Zm-8.2,3.5.8.4-.8.6Zm7.8-2.4-.6.9-.7-1.1Zm-6.1-3.3.8.5-.8.5Zm1.3,7.6.8.5-.8.6Zm-2,1.2,1.6-.6v2.1Zm-2.1-4.8-1,1.6-1.3-1.4Z" fill="#ad5c44"/>
      <path id="Path_14704" data-name="Path 14704" d="M292.7,137.45l-.2,1.2-1.2-.3Zm1.9,1.9v1.3l-1.3-.5Zm3.3,4.2h.6l-.3.6Zm-4.9-7.8.5.3-.7.4Zm-1.3.4.5-.3.1.7Zm-.1-1.7.5-.3.1.7Zm3.8,8.4-1.3-1.4,2.2-.5Zm2.3-2,.7-.1-.2.7Z" fill="#ad5c44"/>
      <path id="Path_14705" data-name="Path 14705" d="M289.1,135.25l.6-.2.1.7Zm6.4,4-.1-.6.7.2Zm.4-.7h-.6l.3-.6Zm7.2-2.9-1,.6-.1-1.2Zm-2.4-2.6v.7l-.7-.4Zm-5,2.7.9.2-.7.8Zm-1.4,4.8.9.2-.6.9Zm-.9-2,1,.3-.7.8Zm6.8,2.5-1.1-.2.5-1Zm2.1-7.2-.1.9-.9-.7Zm-8.6,2.3.7.6-.8.5Zm-4.5-.6.8.4-.9.6Z" fill="#ad5c44"/>
      <path id="Path_14706" data-name="Path 14706" d="M300.3,135.05l1,.2-.7.9Zm-.7,7-.8,1.1-.6-1.4Zm.2-1.2-.2.8-.8-.6Zm-10.4-4.1,2.2-.7-.4,2.4Zm-1.6-1.7,1-.4-.1,1.1Zm13.2,5.7-.8.7-.4-1.2Zm-7.1-3.7.9.4-.9.6Zm1.9,3.2,1.4-1.4.9,2.2Z" fill="#ad5c44"/>
    </g>
    <path id="Path_14707" data-name="Path 14707" d="M238.4,116.85s12.5,16.2,19.1,21.7c6.5,5.5,12.5,6,16.6,3.7,4.3-2.4,11.6-8.3,14.2-10.5a1.4,1.4,0,0,1,1.9.1l12.2,12.5a1.239,1.239,0,0,1,.2,1.6c-2.4,3.6-12.13,18.92-24.03,28.12-13.3,10.2-34.5,22.45-45.6,15.45-14.9-8.7,5.42-72.67,5.42-72.67Z" fill="url(#linear-gradient-2)"/>
    <path id="Path_14708" data-name="Path 14708" d="M280,138.65l15.5,16.8s-9.6,13.7-19,19.5c-6.5,4-12.8,8.6-21.7.3-15.9-14.7-6.9-46.8-6.9-46.8s5.4,7.6,12.1,12.1a18.573,18.573,0,0,0,9.4,3.2C273.5,143.75,280,138.65,280,138.65Z" fill="url(#linear-gradient-3)"/>
    <g id="Group_990" data-name="Group 990">
      <path id="Path_14709" data-name="Path 14709" d="M266.06,144.83l-.44-1.67-1.23.9Z" fill="#68133a"/>
      <path id="Path_14710" data-name="Path 14710" d="M265.4,146.37l.85-1.93-1.9-.13Zm3.14.17,1.18-1.75-1.92-.34Z" fill="#68133a"/>
      <path id="Path_14711" data-name="Path 14711" d="M267.97,147.46l1.5-1.56-1.82-.6Zm10.15,4.52-1.4-1.32-.42,1.6Zm-7.32-6.04v-1.88l-1.54.7Zm5.7,5.4-.73-.95-.55.93Zm4.28,3.76-1,.5.7.6Zm.32-8.44.2,1.1.7-.55Zm4.26,2.26.9-.8-1.03-.34Zm-14.5-5.24.67.77.36-.78Z" fill="#68133a"/>
      <path id="Path_14712" data-name="Path 14712" d="M270.05,146.72l-3.6,1,2.28,2.8Z" fill="#68133a"/>
      <path id="Path_14713" data-name="Path 14713" d="M272.2,148.9l-3.6,1.36,2.4,2.78Zm-5.35-3.38,1.2-1.72-1.8-.35Z" fill="#68133a"/>
      <path id="Path_14714" data-name="Path 14714" d="M269.67,145.05l1.3,1.68.9-1.66Zm1.23,7.82,1.43,1.5.88-1.9Zm.72-2.37,1.6,1.4.5-1.77Zm-2.4-2.2,1.4,1.63.8-1.6Zm6.94-.3-1.15-.38.07,1.1Zm5.8.26-.62.93.94.04Zm-5.08-6.9.8.8.3-.87Zm-2.23,7.4-1.57-1.5-.74,1.8Z" fill="#68133a"/>
      <path id="Path_14715" data-name="Path 14715" d="M273.36,143.53l-.94.37.74.6Zm-4.5,5.17,1.9-1.86-2.3-.93Zm-2.03-.83,1.13-1.62-1.78-.28Zm4.46.86,1.73-.4-.92-1.2Zm12.02,10.47,1.66-1.28-1.6-.92Zm-5.34-14.44,1.24-.2-.6-.94Zm-.25,3.6.37.97.58-.57Zm-3.23-5.1,1.07,1.46.74-1.44Zm5.9,11.5,1.86-1.18-1.7-1.08Zm-5.97-5.37,1.76-1.14-1.43-1.1Zm4.64-.4.9.84.5-1.05Zm-4.67-3.16.92-.6-.77-.45Zm.8,8.4-.3-1-.76.5Zm5.27-7.75.86.47.05-.92Z" fill="#68133a"/>
      <path id="Path_14716" data-name="Path 14716" d="M274.4,151.33l-1.83.02.75,1.52Zm1.34,3.17-.9-1.56-.88,1.4Z" fill="#68133a"/>
      <path id="Path_14717" data-name="Path 14717" d="M275.76,152.7l-1.84.1.8,1.4Z" fill="#68133a"/>
      <path id="Path_14718" data-name="Path 14718" d="M274.05,154.3l2.45,1.38.36-2.38Z" fill="#68133a"/>
      <path id="Path_14719" data-name="Path 14719" d="M271.9,154.13l1.87,1.77,1-3.04Zm4.38-.6.97-2.02-1.92-.03Zm2.05,2.33,1.22-1.7-1.9-.3Zm1.14-2.78-.94-1.54-.88,1.3Zm-2.02,2.45-1.04-1.35-.75,1.33Zm-3.12-6.83.96-.23-.63-.65Z" fill="#68133a"/>
      <path id="Path_14720" data-name="Path 14720" d="M276.92,153.54l-3.2,2.08,2.53,2.47Zm2.62,1.26.98,1.77.96-1.37Zm2.9-3.12.95.4.05-.92Zm-4.93-1.63.6-.7-.82-.25Zm2.12,6.83-.56-1.7-1.16,1.78Zm.44,2.7-.58-1.58-1,1.02Zm-.7-1.73.95-.24-.63-.65Z" fill="#68133a"/>
      <path id="Path_14721" data-name="Path 14721" d="M280.3,156.6l-3.7,1.6,2.53,2.47Zm-1.03,4.32,1.54,1.34.57-1.7Zm.78-2.34,1.6,1.42.6-1.85Zm6.05-1.14-1.8-1.52-.53,1.93Zm-2.8-.37-1.92-1.17-.1,1.98Zm-7.5-6.3-2.05-.94.01,2.02Zm12.87,5.07-1.6-1.42-.53,1.93Zm-3.27,3.8-1.82.26.96,1.4Z" fill="#68133a"/>
      <path id="Path_14722" data-name="Path 14722" d="M285.26,162.9l-1.17-1.37-.55,1.43Zm-4.63-.8,2.37,2.08.82-2.53Zm5.75-.7.34-2.02-1.84.4Zm5.02-2.85-1.77-.16.38,1.47Zm-4.94-.5,1.02-.15-.63-.65Zm-.83,6.1-1.5.7,1.1.9Zm-.97.2-.2-1-.7.6Zm2.34-2.22-1.5,1.1,1.5.7Z" fill="#68133a"/>
      <path id="Path_14723" data-name="Path 14723" d="M285.1,162.35l.4,1.7,1.3-.9Zm9.9-5.8,1.2-1.6-1.6-.4Z" fill="#68133a"/>
      <path id="Path_14724" data-name="Path 14724" d="M285.6,166.95l2.3-2.3-2.6-.9Zm7.2-7.7-2.1-.2.7,1.7Zm-3.8.9-1.5-1.4-.6,1.6Zm-.5.8-1.6.8,1.3,1Z" fill="#68133a"/>
      <path id="Path_14725" data-name="Path 14725" d="M286.4,161.05l1.6,3.6,2.4-2.4Zm5.8-2.2,1.7-.9-1.4-1Zm-4.8-6.1v-1.1l-1,.3Zm.2,5.1-.8-.3v.9Z" fill="#68133a"/>
      <path id="Path_14726" data-name="Path 14726" d="M293.2,152.65l-.6.7.8.3Zm-.5,5.4-1.5.8,1.2.9Zm-2.1,1-.3-.8-.6.5Zm-1.6.6,1.4,2.4,1.7-1.9Z" fill="#68133a"/>
    </g>
    <path id="Path_14727" data-name="Path 14727" d="M153.54,208.5l78.2-.3s7.05-22.07,16.2-59.48c.93-19.08-1.07-48.2-23.14-49.08-11.8-.7-25.3,7.3-40.46,36.77-8.9,17.3-28.32,59.1-32.32,69.52a1.766,1.766,0,0,0,1.5,2.57Z" fill="#ced3f8"/>
    <path id="Path_14728" data-name="Path 14728" d="M231.37,208.25c3,4.58,13.6,8.18,14.38,7.4.73-.73-.4-2.54-.62-4.63-1-10.1-7.13-23.28,2.03-60.7.93-19.08,6.8-33.38-3.14-1.75-6.7,21.3-12.9,59.28-12.65,59.68Z" fill="url(#linear-gradient-4)"/>
    <path id="Path_14729" data-name="Path 14729" d="M147.26,238.24l41.63-.2a26.234,26.234,0,0,0,24.94-18.47c4.35-14.2,15.24-51.6,20.36-72.5.93-19.08,12.7-46.58-9.36-47.44-11.8-.7-25.3,7.3-40.46,36.77-8.9,17.3-39.12,79.98-41.68,94.05-.77,4.35,1.5,7.78,4.57,7.78Z" fill="url(#linear-gradient-5)"/>
    <path id="Path_14730" data-name="Path 14730" d="M361.43,208.05c-1.9-1.1-4.07-4-7.42-4.3-9.2-.88-16.5-1.65-21.8-4.15-3-1.5-46.97-24.56-51.27-28.3-5.6-4.1-25.07-36.33-25.07-36.33l-26.4,12.72s25.5,37.47,34.5,42.7c7.45,4.85,17.2,8.2,31.4,12.3s26.5,6.7,37.5,9.5a47.1,47.1,0,0,0,5.56,1.56,11.594,11.594,0,0,1,21.94,5.24c0,.08-.01.17-.01.25s.01.17.01.25a12.574,12.574,0,0,1-.5,3.3,1,1,0,0,0,.4.5c1.8.85,2.5-2.54,2.97-6.13s.7-7.35-1.8-9.1Z" fill="#ea9d7d"/>
    <path id="Path_14731" data-name="Path 14731" d="M360.36,223.74a2.525,2.525,0,0,1-.78-.14l.34-.94a1.076,1.076,0,0,0,.9-.04c.46-.24,1.1-.98,1.65-3.14a35.975,35.975,0,0,0,.6-7.67c-.03-1.66-.65-2.16-1.88-3.17l-1.1-.92c-2.66-2.14-4.3-3.37-7.22-3.58a139.678,139.678,0,0,1-17.9-2.67l-.1-.03c-.14-.07-14.45-6.58-20.6-10.12l-11.2-6.34-17.8-10.2a41.2,41.2,0,0,1-9.47-8.36c-3.58-4.08-11.63-17.3-11.97-17.87l.86-.52c.08.14,8.35,13.7,11.88,17.73a39.748,39.748,0,0,0,9.27,8.18c2,1.32,10.37,6,17.75,10.16l11.22,6.34c5.93,3.42,19.55,9.64,20.47,10.05a143.41,143.41,0,0,0,17.7,2.64c3.36.25,5.32,1.82,7.8,3.82.4.36.75.65,1.07.9,1.3,1.05,2.22,1.8,2.25,3.93a33.688,33.688,0,0,1-.62,7.94c-.5,2.04-1.2,3.27-2.15,3.77a1.96,1.96,0,0,1-.94.24Z" fill="#cc7a5e"/>
    <g id="Group_991" data-name="Group 991">
      <path id="Path_14732" data-name="Path 14732" d="M214.6,103.12l-.2,1.1-1.04-.8Zm-4.73,19.7.47-.6.38.7ZM204,128.15l.38-.6.38.7Zm9.18-6.45-.47-.6.75-.2Zm-2.46-15.27.76.4-.76.7Zm-4.54,12.77.85.3-.76.8Zm-2.28,1.6.85.3-.76.7ZM216.02,102l1.42-.6-.1,1.8Z" fill="#147a7c"/>
      <path id="Path_14733" data-name="Path 14733" d="M219.8,100.5l1.6-.3-.47,1.8Zm-1.6.6,1.04.5-1.04.9Zm3.12,1.4.75.4-.75.6Zm.75-2,.76.3-.76.7Zm-16,10.66.48-.5.28.7Zm4.17-2.6-.76-1.1,1.42-.4Zm-1.6,2.1-.47-.6.75-.2Zm-.76,3.92-.1.9-.85-.5Zm-2.84-.8.57.6-.85.3Zm3.98.7.66.1-.57.6Zm9.18-7.64.67.3-.57.6Zm1.98-2.52.66.3-.56.6Zm2.46-1.6.66.2-.56.5Zm.86-.42.66.3-.56.5Zm-16.75,21.42.66.3-.57.6Zm-2,1.2.76.2-.57.7Zm3.04-3.63v.8l-.76-.4Zm-.96-3.8v.8l-.76-.4Zm-2.46,2.5.38-.6.47.7Zm17.6-13.46-.3.4-.37-.5Zm-3.3-1.3.38.3-.48.2Zm-1.8,6.63.38-.3.1.6Zm.95-3.2.28.5-.57.2Zm-2.65,6.73.47-.2-.1.5Zm-5.5,11.96.47-.2v.6Zm5.96-7.44-.1-.5.57.1Zm-.38,4.73-.1-.5.47.1Zm6.62-2.2-.1-.4.47.1Zm-11.54-5.92.28.9-.94-.1Zm-2.46-8.36.66,1.7-1.9-.1Zm9.18-4.72.2.9-.95-.2ZM204,116.3h.76l-.28.8Zm4.73,5.7.1-.7.66.5Zm-1.7-7.93-.28,1.2-1.04-.8Zm-.2,1.8-.2.9-.76-.7Zm-1.42-.7-.28.8-.66-.8Zm5.96-2.4.66.4-.75.5Zm-7.85,6.33.28-1.3,1.04.9Zm18.92-17.4.66.3-.66.6Zm-6.53,1.22.38-.5.38.6Z" fill="#147a7c"/>
      <path id="Path_14734" data-name="Path 14734" d="M224.9,101l.38-.5.28.6Zm-1.03.5-.38-.5.66-.1Zm-4.45,1.52-.1.6-.66-.4Zm1.42-1.62.3,1.1-1.23-.2Zm-2.17,1.92-.1.7-.66-.4Zm-2.94,1.4-.1.7-.66-.4Zm-.56-2,1.13.3-.85,1.1Zm4.35-1.62.57.1-.48.5Zm-3.7,5.33.38-.5.28.6Zm4.73-3.2-.2.7-.57-.5Zm5-.3.48.3-.57.3Zm-4.44-1.22.38-.5.28.7Zm3.12,2.42-.2.7-.57-.5Zm-.95,3.12.48.3-.57.4Zm3.13-6.44.56.3-.56.4Zm-1.13,5.43.47-.5.2.6Zm.56-3.93-.48.2v-.6Zm4.07-.4-.57.1.1-.6Zm-2.18-.6-.47.2.1-.6Zm3.03,1.1.2.6-.67-.1Zm2.08,1.32.1.6-.66-.1Zm-3.8-1.32-.66.4-.1-.9Zm-2.83,1.32.2.6-.67-.1Zm2.16.8h.57l-.28.6Zm1.9,1h.57l-.28.6Zm4.73-.4.2.6-.56-.2Zm-3.87,2.6h.56l-.28.6Zm3.12,1.9h.57l-.3.6Zm-21.1-6.23.28,2.2-2.27-.8Zm-1.8,2h.57l-.28.6Zm2.46-.8h.66l-.28.7Zm-1.24,4.42.2-.6.47.4Zm-4.72,10.25.1-.6.56.4Zm5.2-12.16.2-.6.48.4Zm-4.25.1.2.7-.76-.1Zm3.6,3,.2.7-.76-.1Zm-2.08-4.72.38,1.4-1.6-.2Zm-.76,6.84.2.7-.75-.1Zm2.27,5.93.1.7-.76-.1Zm5.1,2.9.38-.6.38.7Zm3.22-1.1-.38-.6.76-.2Zm2.56-1.8-.1-.5.47.1Zm-3.88-1.6.2.8-.76-.2Zm3.78-1.42.2.7-.76-.1Zm4.46-.3.2.7-.76-.1Zm.27-6.94.2.7-.76-.1Zm-21.2,3.92h.57l-.3.6Zm.76-.8.1-.6.57.4Zm-.38,2.6.1-.6.57.4Zm-.96,9.25v.9l-.85-.4Zm1.24-.2.66.2-.56.6Zm-2.18,3.1v.6l-.75-.3Zm3.4-1,.28.9-.94-.1Zm-3.7-2.3-.28.9-.67-.7Zm.28,1.7-.18.9-.76-.7Zm1.04,3.3.1-.6.57.4Zm.38-5.64.1-.6.47.4Zm7.57-10.44.1.7-.76-.2Zm-3.4-.9h.56l-.28.6Zm2.27,4.72.2-.6.47.5Zm-7.57-2.2.47-1,.66,1Zm4.92-3.92.57-.4.18.8Zm-1.6,0,.57-.4.2.8Zm6.8-.9-.28-.7.85.1Z" fill="#147a7c"/>
      <path id="Path_14735" data-name="Path 14735" d="M214.4,106.03l1.23.4-1.04,1.1Zm.58-1,.38.3-.48.2Zm-.85,3.52.28.4-.57.2Zm-2-2.32.38-.5.28.6Zm-.76,1.9-.28-.7.85.1Zm1.42,1.8-.28-.8.75.1Z" fill="#147a7c"/>
      <path id="Path_14736" data-name="Path 14736" d="M214.7,112.77l-.2-.7h.76Zm-2.47-5.23v1.3l-1.23-.6Zm-3.88,4.83-.47.7-.57-.8Zm2.65,2.2-.47.7-.57-.8Zm7-10.16-.47.8-.47-.9Zm1.8,3.52-.47.8-.47-.8Zm-5.96-1.3v.8l-.76-.4Zm-4.74,3.3.57.1-.47.6Zm2,0,.28-.5.38.5Zm-1.04,2.42.28-.6.47.6Zm4.34-2.02.57.1-.48.5Zm10.6,2.02.37-.1-.1.5Zm-3.12,2.2h.48l-.3.4Zm-2.08-4.33.38.7h-.85Zm-2.17,5.03-.2.7-.67-.5Zm4.73-4.93-.2.7-.66-.5Zm-2.84,2.92.47-.5.2.7Zm4.08-3.62.38.4-.67.3Zm-14.68,2,.3-.6.37.6Zm-1.22,7.04.57.4-.57.5Zm.94-2.62.2.7-.76-.1Zm-2.84,2.22.28.7-.85-.1Zm.57-1.7h.57l-.2.7Zm.85-.72.2-.6.47.5Zm-.85,2.42.28-.5.38.5Zm-1.23-.6.28-.6.38.6Zm10.03-8.15.1-.6.57.4Z" fill="#147a7c"/>
    </g>
    <g id="Group_992" data-name="Group 992">
      <path id="Path_14737" data-name="Path 14737" d="M170.06,193.65l1-.7-.9-.6Zm-1.9,3.93-.5-1.67-1.1,1.08Zm-8.9,4.22-.6-1.57-1.1,1.08Zm2.9,1.2-.5-1.47-1.2.88Zm5.8-27.94-1.4-1.57-.7,1.67Zm-.9,3.04-1.3-1.58-.8,1.58Zm-6.9,17.42-1.4-1.67-.8,1.67Z" fill="#c6467a"/>
      <path id="Path_14738" data-name="Path 14738" d="M159.66,194.24l-1.1-1.28-.6,1.38Zm13.5-27.54-.6-1.97-1.4,1.18Zm1.3,9.15-.7-1.97-1.3,1.18Zm-6.6,8.15-.8-1.97-1.3,1.28Zm-2.3,0-2-.4.3,1.77Zm-1.2,10.34-2-.6.2,1.77Zm4.2-13.97-2-.4.3,1.77Zm-1.8,7.67-.7-1.96-1.3,1.27Zm-8.7,10.72-.5-1.67-1.1,1.08Zm4-10.23,1.2-1.77-1.8-.3Zm14-18.98,1.3-1.47-1.8-.5Zm-2.7-7.38,1.3-1.57-1.8-.5Zm6.9-3.24,1.2-1.57-1.8-.4Zm-6.4,20.17,1.1-1.67-1.8-.4Zm-1.6,3.53,1.1-1.67-1.8-.4Zm4.1-24.68.9-1.68-1.8-.1Z" fill="#c6467a"/>
      <path id="Path_14739" data-name="Path 14739" d="M181.66,146.24l1-1.38-1.4-.2Zm-3.2,2.26,1.8-.3-.8-1.77Zm6.2,4.04,1.1-1.28-1.4-.5Zm-4.3-4.44,1.1-1.28-1.4-.5Zm-20.4,44.07,1-1.37-1.5-.2Zm1.2,2.36,1-1.47-1.5-.2Zm1.6-5.5-.6-1.68-1.1,1.1Zm4.4,1.77-.7-1.87-1.3,1.18Zm7.3,7.27-1,.1.4.8Zm-11-8.85,1.4.3-.2-1.18Zm-1,1.88.6-.98h-1.1Zm.4,5.6-.8-.8-.4,1.08Zm9.3-20.07,1.2-.7-1.1-.78Zm3.3-11.7,1.2-.7-1.1-.8Zm-5.3,13.57,1.2-.7-1-.78Zm-4.9,4.13-.5-1.08-.7.8Zm1.2-2.65-.5-1-.7.6Zm8.3,4.02-1.2.1.5.88Zm-4.3-9.24-1.2.1.5.9Zm.5-4.03,1.1.9.3-1.18Zm.6-2.85,1.1.8.3-1.18Zm6-17.5.5,1.67.4-1.27Zm-9.8,20.56,2.2-.4-1.2-1.57Zm1.5-3.25,2.1-.3-1.2-1.58Z" fill="#c6467a"/>
      <path id="Path_14740" data-name="Path 14740" d="M170.96,175.65l.8-2.07-2,.4Zm2.3-4.92.8-2.06-2,.3Zm-6.2,16.43.7-2.17-1.9.4Zm-6,9.44.8-2.07-1.9.2Zm23.1-35.02-.7-.98-.5.9Zm1.8-13.58-.3,1.18,1-.2Zm-8.7,13.78,1,.8.2-1.08Zm-.7-9.24-.5,1.08h1Zm-3,11-.3,1.08h1Zm4-13.28,1.3-.2-.6-1Zm-6.3,38.07-.9.2.5.6Zm3.8-1.67v.78l.6-.3Zm-5.7-2.87.8.2-.1-.7Zm-8.7,13.2-.9.1.5.7Zm3.9-1.58-.1.7.6-.2Zm-5.6-3.05.7.3-.1-.68Z" fill="#c6467a"/>
      <path id="Path_14741" data-name="Path 14741" d="M189.46,177.8l.7-.1-.4-.6Zm-7.7.9v-.8l-.6.2Zm-4.6-6.9v1.38l1.2-.5Zm-1.6-6.38,1.2.3-.3-1.1Zm-5.8,7.48.5-1.1-1-.1Zm16.5-28.33-.6,1.08,1.1.1Zm-2.3-2.17-.6.98,1,.1Zm-.4-2.95.7.8.3-.88Zm-5.3,9.95.9-.4-.6-.6Zm2.2,5.4.5-.8-.8-.1Zm1.1,8.56.1,1.08.9-.4Zm-8.5,8.44.2,1.97,1.6-.8Z" fill="#c6467a"/>
      <path id="Path_14742" data-name="Path 14742" d="M184.16,158.93v1.18l.9-.4Zm-2.9,3.64.1,1.18.9-.5Zm5.1-13.97,2,.4-.4-1.78Zm-3.3-9.44,1.9-.5-.8-1.77Zm2.4,3.34,1.9.4-.3-1.77Zm-4.7,6.3,1.9.6-.2-1.77Zm-17.9,36.78v-1.47l-1.1.5Zm1.3,6.4-1.2-.3.2.98Zm6.2-7.08-.6,1,1,.1Zm-2.7,2.16.6,1.28.8-.9Zm-3.8-5.5,1.1-.1-.6-.98Zm-2.5,9.15.1-1-1,.3Z" fill="#c6467a"/>
      <path id="Path_14743" data-name="Path 14743" d="M161.36,191.98l.1-1.38-1.1.4Zm.9,6.6-1.1-.4.1,1.08Zm6.5-7.27-.6.98,1,.1Zm-1.2-11.72,2.3-1.96-2.5-1.1Zm-8.3,20.17,1.5-1.28-1.5-.8Zm-3.5-2.75,3-.7-1.6-2.36Zm3.2-7,3-.7-1.5-2.56Zm-1.5,3.35,3-.7-1.7-2.26Z" fill="#c6467a"/>
      <path id="Path_14744" data-name="Path 14744" d="M160.56,186.57l3-.8-1.7-2.07Zm1.4-2.95,3-.8-1.7-2.16Zm1.4-3.15,3-.8-1.7-2.06Zm3.8-2.27,1.4-2.76-2.7-.1Zm3.2-7.57,1.4-2.65-2.7.2Zm1.7-3.23,1.4-3.44-2.7,2.16Zm-5.5,6.28,3-.78-1.7-2.17Zm-12.3,26.75,3-.78-1.7-2.17Z" fill="#c6467a"/>
      <path id="Path_14745" data-name="Path 14745" d="M156.46,204.86l-.4-3.05-2.3,1.48Zm3.9-.8-.4-2.95-2.3,1.48Zm17.5-53.3,2.8,1.47.1-2.85Zm-2.5,11.5,2.3-2.06-2.5-1.08Zm-5.5,27.35,1.2.2-.2-1.08Zm-5.7.18.5-.98h-.9Zm5.4,6.3-.8-.6-.2.88Zm-3.8-20.94-1,2.26,2-.1Zm2.4-1.96-.7,2.16,2-.2Zm6.2-11.42-1.3-1.47-.7,1.67Zm-2,3.84-1.3-1.58-.8,1.77Zm5.7-9.84,1.1.9.3-1.18Zm1-2.65,1,.98.4-1.28Zm-4,2.75,2.1-.1-.9-1.87Zm1.3-2.95,2-.5-1-1.67Zm4.4,3.15.9-1.97-2,.2Z" fill="#c6467a"/>
      <path id="Path_14746" data-name="Path 14746" d="M182.66,157.06l-.1,1.28,1.2-.4Zm-1.1-6.5,1.2.3-.2-.98Zm-2.4,9.53.6-.98-1-.1Zm-6.1,5.7,1.4-2.85h-2.7Zm4.5-9.92,1.7-2.75-2.4-.2Zm-4.6,4.22,3-1.18-1.6-1.87Zm8-16.7,3.1-.8-1.6-2.26Zm-1.4,2.84,2.4-.7-1.1-1.96Z" fill="#c6467a"/>
      <path id="Path_14747" data-name="Path 14747" d="M172.26,161.5l-1.1,2.46,2-.3Zm1.7-2.28-.7,2.17,1.9-.2Zm-4.2,35.4,1.2.2-.2-1.08Zm-5.7.2.5-.98h-.9Zm5.4,6.4-.8-.7-.2,1Zm-1.5-9.15-.2-1.37-1.1.7Zm2.2,6.2-1.2-.1.3,1Zm4.9-8.47-.4,1.08,1-.1Zm-1.6-8.45.3-.98-.9.2Zm-.1,4.73-.7-.4v.8Zm5.3-4.33-.5.6.7.2Zm2.6-14.65-.4.8h.8Zm1.2-4.14.5.5.2-.6Zm-5.8,2.84.6-.5-.6-.3Zm11.2-20.25.5-.7-.7-.1Zm-.6,7.58-.5-.5-.3.6Z" fill="#c6467a"/>
      <path id="Path_14748" data-name="Path 14748" d="M180.86,168.76l1-.68-1-.6Zm-3.5,4.54-.5-.9-.5.7Zm8.3-.3-1,.3.5.7Zm-4.1-1.2-1.2-.68-.1,1.27Zm6.1,2.18-.8.78.9.4Zm-3.2-9.15.6,1.08.6-.88Zm1.6-3.63-.5-.8-.5.8Zm3.2,3.24-.8.3.5.6Zm.8-6.8v.9l.7-.4Zm-1-22.52-.3-2.07-1.5.9Zm2.3,3.34,1.5-1.38-1.7-.68Zm-1.3-7.77,1.5-1.28-1.7-.78Zm7.6-1.77,1.5-1.38-1.7-.78Zm-5.3-2.36,1.2-1.57-1.8-.4Zm7.2-11.1,1.1-1.38-1.5-.4Zm-3.7,1.96,1.7-.1-.7-1.37Zm5.1,4.92,1.2-1.28-1.4-.5Zm-2.9-5.1,1.2-1.28-1.4-.5Zm-6.5,16.52,1.3-.4-.9-1Zm-5.5,4.92,1,1.08.5-1.08Zm1.2-2.77.9,1.1.5-1.18Zm7.9-16.6.4,1.67.5-1.18Zm-10.3,16.22,2.3-.1-1.1-2.16Zm3.6,3.64,1.1-1.97h-2Z" fill="#c6467a"/>
      <path id="Path_14749" data-name="Path 14749" d="M197.66,131.78l-.4-1.18-.8.7Zm-3.7-.68.9.9.3-.98Zm.1-9.64-.6,1.08,1.1.1Zm-4,10.62-.6,1.08,1.1.1Zm5.1-12.78,1.4-.2-.6-1Zm-3.2,21.53-.2,1.48,1.2-.3Zm-.3-6.5,1.1.5-.1-1.08Zm-7.1,6.3.7-1-1-.3Z" fill="#c6467a"/>
      <path id="Path_14750" data-name="Path 14750" d="M199.96,121.26l-.7,1.08,1,.1Zm2.3-8.66-.6.9,1,.2Zm-.6,2.07.7.8.3-.9Zm-5.7,3.73.9-.4-.6-.6Zm1.9,5.6.6-.78-.9-.2Zm.4,9.46-.1,1.18.9-.3Zm3.2-3.94-.1,1.18,1-.3Zm-5.5,4.53-.1,1.18,1-.3Zm7-24.7,1.6.8-.2-2.17Zm-3,7.18,2,.4-.3-1.77Zm-1.5,1.46,1.9.7-.1-1.87Zm-12.9,20.57,1.9-2.56-2.8-.2Zm2.4-3.54,1.9-2.56-2.7-.6Zm7.5-15.25,2.7,1.58.3-2.76Zm-3.5,11.42,2.7-1.67-2.3-1.47Zm-1.4-1.38-1.1-1.68-1,1.48Z" fill="#c6467a"/>
      <path id="Path_14751" data-name="Path 14751" d="M188.16,133.46l-1.2-1.97-.9,1.67Zm7.3-8.76.9,1,.5-1.2Zm1.1-2.46.9,1,.5-1.18Zm-5.3,1.86h2.2l-.9-2.06Zm1.7-2.64,2.2-.1-.9-1.77Zm5.1,3.74,1-1.87-2,.1Zm1.8,1.08-.1,1.37,1.2-.4Zm-.7-6.5,1.1.4V119.1Z" fill="#c6467a"/>
      <path id="Path_14752" data-name="Path 14752" d="M191.16,125.88l.7-.98-1-.1Zm-2.1,8.36,1.9-2.56-2.6-.5Zm5.9-9.54,1.8-2.46-2.4-.4Zm-6.2,3.54,3.2-.6-1.5-2.26Z" fill="#c6467a"/>
      <path id="Path_14753" data-name="Path 14753" d="M198.96,113.5l2.4.1-.3-2.36Zm-1.8,2.15,2.1-.1-.6-1.77Zm-8.7,13.08-1.4,2.46,2.1.1Zm2.7-.78-1.1,1.96,2,.1Zm5.7,8.95-.5.7.8.1Zm1.9-3.74.5.6.3-.6Zm-6.2,1.67.7-.3-.5-.4Zm11.5-23.2.3-.7-.7-.1Z" fill="#c6467a"/>
      <path id="Path_14754" data-name="Path 14754" d="M207.56,105.42l1.1.3-.1-.98Zm-3,2.36,1.5.3.1-1.57Zm-3.5,3.35,2.4,1.18-.6-2.95Zm-1.4,12.97-.2,1.28,1.2-.3Zm6.8-17.8,1.1.5-.1-1.08Zm-7,8.37.7-.98-1-.2Zm4.3-1.27-.5-.5-.3.6Zm-1,11.8-.5-.78-.5.68Zm-1.5-7.2v.8l.7-.3Zm-37.9,85.98-.4.88.8-.1Zm1.2-3.94.5.5.3-.7Zm-5.8,2.66.6-.4-.6-.3Zm9.8-21.05.3-.7h-.7Zm-.1,6.98-.6-.5-.2.7Zm15.3-15.23.9-.8-.9-.5Zm-3.4,4.7-.5-1-.5.8Zm8.3-.48-1,.3.5.7Zm-4.1-1.1-1.3-.68-.1,1.27Zm6.1,1.97-.8.8,1,.3Zm-3.4-9.15.6,1.1.6-1Zm-19.9,25.35-.6-.7-.4.78Zm3.6,2.86-.8.4.6.4Zm-.1-6.9.1.8.6-.4Zm9.6-8.33.3-.9-.8.1Zm-.6,4.13-.7-.4-.1.68Zm5.4-3.54-.6.6.6.2Zm-7.6,9.83-.3.7.8-.1Zm-6.1,5.22.7.3.1-.6Zm11.1-16.13-.8.98,1,.3Zm2.6-5.02.6.88.5-.88Zm-8.2,1.87,1-.5-.7-.6Zm4.3.4,1.3.5-.1-1.27Z" fill="#c6467a"/>
      <path id="Path_14755" data-name="Path 14755" d="M174.96,178.1l.7-.9-1-.2Zm4.9,8.27-.8-.9-.5,1.1Zm-3.4,3.83.7.5.3-.7Zm-3.9-2.35.7-.5-.7-.4Zm1,6.68-.3-.78-.5.5Zm10.9-46.63-.2-1.37-1,.68Zm2.3,6.2-1.2-.1.3.98Zm4.9-8.45-.4,1.08,1-.1Zm2.6,2.95-.3.7.7-.1Zm-1.2-2.56.7.5.3-.7Zm-3.9-2.36.6-.4-.6-.4Zm.9,6.7-.2-.78-.5.5Zm-8.6,10.93-.2-1.48-1.1.8Zm2.2,6.2-1.2-.1.3.98Zm4.9-8.57-.4,1.18,1-.1Zm2.6,3.05-.2.7.7-.1Zm-1.2-2.76.7.7.3-.88Zm-3.9-2.16.7-.5-.6-.4Zm1,6.7-.3-.8-.5.5Zm-13.7,32.95,1-.3-.6-.7Zm-14.78,23.5.97-.74-.92-.54Zm-3.78,3.8-.57-1.65-1.06,1.13Zm-6.64,4.84-.67-1.55-1.05,1.13Zm2.94,1.06-.56-1.45-1.16.93Zm-2.32-7.4-1.48-1.6-.72,1.7Z" fill="#c6467a"/>
      <path id="Path_14756" data-name="Path 14756" d="M148.22,221.25l-1.16-1.22-.53,1.4Zm7.73-10.58-.9-1.93-1.24,1.33Zm-2.3.1-2-.3.38,1.75Zm-.73,10.37-2.02-.5.27,1.76ZM156.5,207l-2.02-.3.38,1.75Zm-1.47,7.75-.78-1.94-1.24,1.34Zm-8.2,11.1-.58-1.65-1.05,1.13Zm3.53-10.4,1.12-1.82-1.8-.22Z" fill="#c6467a"/>
      <path id="Path_14757" data-name="Path 14757" d="M160.3,209.1l1.02-1.72-1.82-.3Zm-11.87,10.08.93-1.42-1.5-.13Zm1.3,2.3.93-1.52-1.5-.13Zm1.35-5.58-.67-1.65-1.05,1.13Zm4.48,1.58-.8-1.84-1.24,1.24Zm7.62,6.94-1,.14.44.77Zm-11.38-8.35,1.4.23-.25-1.17Zm-.92,1.9.55-1-1.1.05Zm.65,5.6-.84-.75-.35,1.1Zm1.77-14.17-.55-1.06-.66.82Zm1.07-2.7-.54-.96-.67.62Zm8.47,3.66-1.2.15.54.86Zm-7.54,3.5.6-2.2-1.88.48Zm-5.57,9.7.7-2.1-1.9.28Zm9.8-8.7-.9.23.53.57Zm3.72-1.84.04.78.6-.32Zm-5.82-2.6.8.16-.13-.68Zm-8.1,13.56-.9.14.53.66Zm3.83-1.76-.07.7.6-.23Zm-5.73-2.78.7.26-.13-.68Zm3.6-6.96-.07-1.47-1.08.54Zm1.57,6.34-1.2-.24.25.98Zm5.9-7.36-.56,1,1,.05Zm-2.6,2.28.66,1.25.76-.92Zm-4.05-5.32,1.1-.15-.64-.95Zm-2.1,9.24.05-1-.98.34Z" fill="#c6467a"/>
      <path id="Path_14758" data-name="Path 14758" d="M149.82,218.92l.03-1.38-1.08.44Zm1.18,6.54-1.1-.34.14,1.07Zm6.18-7.56-.56,1,1,.05Zm-1.73-11.64,2.2-2.07-2.54-.97Zm-7.38,20.5,1.44-1.34-1.53-.72Zm-3.62-2.6,2.96-.82-1.7-2.3Zm2.88-7.12,2.97-.82-1.62-2.5Zm-1.35,3.4,2.97-.82-1.8-2.2Z" fill="#c6467a"/>
      <path id="Path_14759" data-name="Path 14759" d="M148.77,213.55l2.97-.92-1.8-2Zm1.27-3,2.96-.92-1.8-2.1Zm1.26-3.2,2.96-.92-1.8-2Zm1.52-3.23,2.96-.93-1.8-1.98Zm-9.34,23.97,2.97-.92-1.8-2.1Zm2.02,3.93-.54-3.03-2.23,1.58Zm3.86-.95-.53-2.93-2.23,1.58Zm-5.56,4.8.88-2.07-1.88-.17Zm14.4-19.67,1.2.14-.25-1.07Zm-5.68.45.45-1-.9.04Zm5.68,6.05-.82-.56-.16.9Zm.13-1.48,1.2.15-.25-1.08Zm-5.7.45.46-1-.9.04Zm5.68,6.15-.83-.65-.15,1Zm1.03-14.65-.26-1.36-1.07.73Zm2.48,6.1-1.2-.04.35.97Z" fill="#c6467a"/>
      <path id="Path_14760" data-name="Path 14760" d="M166.34,210.57l-.35,1.1,1-.14Zm.02-8.12.26-1-.9.24Zm.12,4.72-.72-.36.03.78Zm5.1-4.57-.47.6.7.16Zm-19.22,28.22-.35.9.8-.14Zm1.03-4,.52.47.27-.7Zm-5.68,2.92.58-.42-.6-.27Zm1.87,5.4-.36.9.8-.14Z" fill="#c6467a"/>
      <path id="Path_14761" data-name="Path 14761" d="M150.6,231.16l.52.47.27-.7Zm-5.68,2.9.58-.42-.6-.26Zm11.62-25.8.27-.7-.7.03Zm.22,6.98-.62-.47-.17.7Zm-1.36,12.98-.63-.67-.36.8Zm3.73,2.68-.78.43.62.37Zm-.4-6.87.14.78.58-.42Zm12.7-19.97.26-.9-.8.13Zm-.42,4.16-.72-.36-.07.7Zm5.24-3.78-.57.6.6.17Zm-10.1,14.5-.27.7.8-.13Zm-5.86,5.48.7.27.07-.6Zm8.18-23.22,1.32.43-.16-1.27Zm-6.44-.7.66-.92-1-.15Zm5.28,8.03-.84-.85-.45,1.1Zm-.6,7.33.72.46.27-.7Zm-4-2.18.67-.52-.7-.37Zm1.3,6.63-.34-.77-.48.52Zm-1.98,2.75.98-.34-.63-.66Z" fill="#c6467a"/>
    </g>
    <g id="Group_993" data-name="Group 993">
      <path id="Path_14762" data-name="Path 14762" d="M313.7,204.42l1.3-.13-.72-1.27Zm-14.2-.8,1.37.37-.33-1.78Zm-2.75-1.52,1.47.36-.34-1.77Zm11.63,3,1.47-.34-.94-1.52Zm-5.05-6.86,1.47-.35-1.03-1.5Zm6.45,2.86.62-1.4h-1.64Zm3.6,5.7.62-1.5h-1.73Zm2.6-.5.7-1.5-1.72-.1Z" fill="#da7f57"/>
      <path id="Path_14763" data-name="Path 14763" d="M318.43,207.45l.7-1.5-1.63-.1Zm-15.27-9.2.01-1.06-1.13.43Zm9.2,4.84.1-1.15-1.12.52Zm-11.62-4.23.1-1.16-1.12.53Zm-4.72,3.6.87-.17-.52-.8Zm2.18-4.82.34.9.6-.8Zm3.14,2.26.34.8.6-.7Zm4.9,1.55-.95-.45v1.33Z" fill="#da7f57"/>
      <path id="Path_14764" data-name="Path 14764" d="M308.22,202.7l-.94-.54-.01,1.33Zm-2.95,2.64-.24-1.77-1.48,1.14Zm2.93.73-.42-1.7-1.4,1.32Zm-5.66-4.57,1.2-1.23-1.8-.45Zm4.48.84,1.2-1.15-1.72-.63Zm3.96,1.08-.6.7.95.27Zm-3.4-7.1-.95.52.94.8Zm4.45,5.52-.6-.72-.35.98Zm-8.54,1.26.52-.7-.95-.18Zm2.35-4.67-1.38.6,1.2,1.16Zm-6.23,2.7.53-2.2-2.6.52Z" fill="#da7f57"/>
      <path id="Path_14765" data-name="Path 14765" d="M298.73,202.9l1.4-1.94-2.68-.55Zm7.15,2.53,1.3-1.94-2.58-.46Zm3.87.82,1.4-1.94-2.6-.46Zm-6.2-1.45-.6-2.3-2.08,1.67Zm22.7,2.48,1.46-.22-.9-1.57Zm-2.08.25,1.06,1.04.73-1.6Zm-1.8,1.1.66-1.43-1.73-.05Z" fill="#da7f57"/>
      <path id="Path_14766" data-name="Path 14766" d="M320.57,208.12l1.3-.16-.77-1.34Zm2-2.37-.68-.9-.53,1.14Zm-2.94.95.6-.8-1.03-.2Zm6.7,2.3.86-.2-.54-.8Z" fill="#da7f57"/>
      <path id="Path_14767" data-name="Path 14767" d="M321.12,209.12l-.5-2.22-2.1,1.66Zm3.18.88-.66-2.3-2.03,1.65Zm2.25.48-.22-2.1-1.94,1.73Zm-9.35-5.08.98-.2-.7-.8Zm-2.7-5.56.34.73.53-.7Zm5.1,1.63-.62.48.72.34Zm4.8,2.68-.74-.24.13.78Zm-25.57-2.2-1.05,1.4,1.8.45Zm2.6-.6-1.13,1.32,1.8.54Zm10.48,4.85,1.46.36-.33-1.77Zm-3.18-.73,1.47.45-.25-1.86Zm2.33.37,1.3-1.86-2.6-.54Z" fill="#da7f57"/>
      <path id="Path_14768" data-name="Path 14768" d="M315,207.8l-.42-1.86-1.82,1.3Zm2.94.75-.43-1.86-1.8,1.3Zm-6.7-3.35-1.3,1.23,2.15.54Zm-11.43-7.7,1.04-.35-.86-.9Zm4.7,2.83-.6.7.94.36Z" fill="#da7f57"/>
    </g>
    <path id="Path_14769" data-name="Path 14769" d="M280.24,173.24c-4.7-4.5-24.2-18.7-24.2-18.7l-16.1,8.7,18.7,22.6c6.6,8.1,21.55,12.08,25.75,13.28,5.7,2,21.1,6.54,34.6,9.74,6.14,1.27,13.8,3.38,19.6,4.98a11.282,11.282,0,0,1,5.43-5.33c3.1-1.3,3.8-5.07,1-5.47-22.3-3.3-45.5-15.8-45.5-15.8-6.7-2.7-16.9-11.7-19.3-14Z" fill="url(#linear-gradient-6)"/>
    <g id="Group_994" data-name="Group 994">
      <path id="Path_14770" data-name="Path 14770" d="M308.13,190.43l1.37-.36-.72-.92Zm-2,1.75,1,.9.37-1.15Zm5.28-1.42,1,.78.37-1.15Zm.4,4.28,1,.9.36-1.25Zm2.4-2.7,1,.9.36-1.25Zm6.34,3.5.9.7.3-.94Zm-1.36-2.16.24,1.18.73-.6Zm-2.84,4.16.9.7.3-.94Z" fill="#ffbca4"/>
      <path id="Path_14771" data-name="Path 14771" d="M319.22,194.87l.9.7.3-.95Zm-9.92-3.07.4.76.52-.67Zm-6.44-2.55.1-.82-.67.28Zm2.1.05-.6.78.83.2Zm2.35.22-.62.78.72.1Zm10.58,3.58-1.07.33.83.2Zm-12.62-6.36.26,1.38,1.02-.73Zm2.14,1.06.16,1.4,1.12-.74Zm-2.46,3.1,1.27.56-.16-1.4Zm13.88,7.64-.63-.23v.7Zm-7.58-5.44-.53.66.62.13Zm5.14-.72-.74-.3.08.7Zm-6.13-1.7-.74-.3-.02.7Zm7.73,2.42.1.9.65-.48Zm-13.35-.55-1,.02.3.77Zm4.23-.9-.22.73.7-.08Z" fill="#ffbca4"/>
      <path id="Path_14772" data-name="Path 14772" d="M304.18,187.67l.66.43.1-.72Zm16.44,11.47-.65-.43-.12.72Zm1.74-1.5-.65-.43v.7Zm2-.23-.55.46.53.24Zm-5.8-3.86.27.57.35-.44ZM315,195.07l.55.34.03-.6Zm-5.08,1.2-.7.08.27.58Zm-5.68-5.46-1.3.05.5.94Z" fill="#ffbca4"/>
      <path id="Path_14773" data-name="Path 14773" d="M311.4,197.7l-.7-.02.17.6Zm-1.1-1.58-.8.1.27.57Zm8.17,2.68-.36,1.25,1.2-.14Zm7.9-1.34.15,1.3,1.02-.72Z" fill="#ffbca4"/>
      <path id="Path_14774" data-name="Path 14774" d="M325.2,196.9l.16,1.3,1.02-.72Zm-2.93,1.64-.35,1.35,1.18-.23Zm1.3-.94-.45,1.26,1.2-.14Zm-4.8-2.37-.36,1.25,1.2-.14Zm10.82,3.87-.63-.23.07.6Zm-24.38-10.44,1.73,1,.2-1.74Zm2.97,1.26,1.83,1,.1-1.73Zm-4.7-4.08.43,1.97,1.4-1.07Z" fill="#ffbca4"/>
      <path id="Path_14775" data-name="Path 14775" d="M317.63,193.35l-.9,1.8,1.8-.01Zm-6.4-1.37,1.3,1.56.82-1.6Zm15.4,6.76,1.3,1.56.82-1.6Zm3.28,1.33.74,1.22.77-1.2Zm-1.6.18.94,1.2.66-1.28Zm-16.74-8.9,1.12-.74-1.08-.57Zm-2.42-.84,1-.92-.96-.5Zm5.2,3.03-.62.68.82.2Z" fill="#ffbca4"/>
      <path id="Path_14776" data-name="Path 14776" d="M316.1,194.13l-.6.78.83.2Zm-1.83-2.8.27,1.38,1.12-.73Zm2.13.96.16,1.4,1.03-.72Zm-2.27,3,1.37.54-.15-1.3Zm-.55,2.18h-.9l.3.77Zm4.22-.9-.2.83.68-.18ZM313,192.6l.64.33.03-.6Zm-4.24-1.92,1.82.9.1-1.73Z" fill="#ffbca4"/>
      <path id="Path_14777" data-name="Path 14777" d="M314.55,192.8l1.83,1,.12-1.53Zm-1.98-2.28.43,1.96,1.48-1.08Zm9.3,4.65.44,2.06,1.5-1.08Z" fill="#ffbca4"/>
      <path id="Path_14778" data-name="Path 14778" d="M320.48,194.42l.4,1.67,1.1-.83Zm3.32,1.83.38,1.57,1.12-.84Zm-11.98-6.15-1.5-.83.16,1.4Zm1.25,1.26-1.37-.54.05,1.3Zm-9.27,2.4-.12.72.68-.18Zm19.67,9.88-.7.08.36.46Zm2.8-.94-.04.5.48-.16Zm-3.78-2.27.53.24-.06-.5Zm9.17,1.04.98.6.08-1Zm2.53.1-.74-.32.08.7Zm-19.44-.04-.7.08.34.36Zm2.9-.94-.14.52.5-.06Zm-3.8-2.38.53.24-.05-.5Z" fill="#ffbca4"/>
    </g>
    <g id="Group_995" data-name="Group 995">
      <path id="Path_14779" data-name="Path 14779" d="M209.24,162.1l-1.5-.84,1.27-.92Zm1.1-5.17-1.1-1.37,1.48-.4Zm-4.7,3.4-1.94.35.4-1.78Zm1.97-2.92,1.16,1.64-1.67.35Z" fill="#68133a"/>
      <path id="Path_14780" data-name="Path 14780" d="M207.83,155.46l-2.05.2.56-1.77Zm9.75,20.08-1.93.3.4-1.66Zm-7.42-22.04-1.96.1.56-1.67Zm2.04,2.74-1.67,1-.2-1.77Zm-1.86,1.28-1.67,1-.2-1.77Zm-.56-2.36-1.86.6.2-1.87Zm2.22,5.48-1.94.44.4-1.78Z" fill="#68133a"/>
      <path id="Path_14781" data-name="Path 14781" d="M212.56,161.1l-1.75.64.04-1.77Zm-8.26-7.4-.83-1.58h1.5Zm-1.2-3.06-.84-1.58,1.5-.1Zm1.37-7.44-1.14-1.07,1.25-.5Zm1.6-.28-1.13-1.07,1.25-.5Zm4.58,19.62-1.5-.74,1.1-1.02Zm-6.17-11.12-.46-1.08,1.02-.1Zm1.22,5.32.74-.6.28.88ZM198.62,153l.74.6-.65.5Zm4.1,14.47-.97.5-.02-1Zm5.2-1.17-.65-.82.82-.2Zm-3.32,7.4.47-.84.46.74Zm-2.3-20.5.1,1.2-.9-.36Zm.6-5.5-.87.33.07-.88Zm5.54,5.85-.6-.84.84-.13Zm-.26-2.62-.74-1.57,1.5-.1Z" fill="#68133a"/>
      <path id="Path_14782" data-name="Path 14782" d="M208.32,150.38l-2-1.83,2.03-1.03Zm-1.8-3.58-.9-1.55,1.6-.18Zm1.57,6.8-2.6.3.75-2.26Zm-5.76,4.32-1.02.5v-1.08Zm4.56,4.24.58.77-.83.12Zm-6.33-5.82-.55-.88.83-.1Zm6.7,29.8-.56-.8.84-.2Zm-2.14-31.76-.84-.7.84-.4Z" fill="#68133a"/>
      <path id="Path_14783" data-name="Path 14783" d="M206.43,152.2l2.65-2.8,1.4,3.15Z" fill="#68133a"/>
      <path id="Path_14784" data-name="Path 14784" d="M208.1,155.56l2.38-3.13,1.47,3.25Zm-2.43-7.26-1.9.45.32-1.75Zm1.96.06-1.8.45.23-1.75Zm-3.15-1.62,2.8-2.55,1.27,3.34Z" fill="#68133a"/>
      <path id="Path_14785" data-name="Path 14785" d="M203.63,146.88l1.32-1.38.62,1.62Zm.02-7.78,1.57-1.07.6,1.8Zm.15-2.17.9-.98.54,1.83Zm-.22,1.87-.27-1.4,1.2.28Zm1.05,2.14-.37-1.3,1.2.18Zm-.83,1.12-1.3-.2.65-1.13Zm.08-6.1-.36-1.4.87.4Zm.54,7.83,2.2-1.86.75,2.43Zm0-2.48,1.4-1.27.54,1.52Zm5.68,17.9,2.28-3.06,1.67,3.1Z" fill="#68133a"/>
      <path id="Path_14786" data-name="Path 14786" d="M211.57,162.22l2.4-3.07,1.67,3.1Z" fill="#68133a"/>
      <path id="Path_14787" data-name="Path 14787" d="M213.38,165.52l2.07-3.33,1.94,2.9Zm-8.9-10.16v1.77l-1.3-.7Zm5.15,7.3-1.84.74.04-1.77Zm14.77,15.73-1.64.96-.3-1.85Z" fill="#68133a"/>
      <path id="Path_14788" data-name="Path 14788" d="M218.58,178.86l-1.64.96-.18-1.76ZM210,162.26l1.16,1.64-1.66.34Zm7.16,2.75,1.22,1.75-1.82.5Zm-2.38.55,1.3,1.64-1.72.48Zm-1.85-2.47,1.28,1.44-1.64.48Zm-1.98,5.62-.28-1.15,1.06.13Zm.22,5.54.87-.44.04.9Zm-6.27-5.08.67.7-.8.32Z" fill="#68133a"/>
      <path id="Path_14789" data-name="Path 14789" d="M210.6,182.1l-1.12.07.32-.94Zm5.4.74-.34-.95.86.07Zm-5.63,5.46.87-.44.12.78Zm3.13-19.13-1.5-1.62,1.8-.6Zm1.1,3.55-1.54-1.45,1.68-.66Zm-5.23-7.06-1.3-1.54,1.62-.57Zm11.65,16.97-1.62-1.33,1.67-.77Zm-22.17-19.36.73-.5.2.78Zm8-.03.03,1.18-.94-.37Zm.5-5.42-.92.32.06-1Zm5.55,5.84-.58-.77.84-.12Zm-1.37,13.54.9.95-1,.26Zm-2.83-4.74-.52.88-.4-.83Zm7.86,1.34-.9-.36.57-.6Zm-3.13-11.43-2.4.85.03-2.26Zm-.06-2.17-1.85.45.33-1.78Zm-.52,4.8-.67,1.55-.87-1.1Zm-11-3.78-.44.9-.5-.78Zm-.78,5.63-.53,1.25-.75-.9Zm3.5-4.92-1.05-.2.47-.84Zm2.37,8.94-.13-1.17.88.4Zm8.02-1.97.1-1.7,1.3.75Zm3.7,2.68-1.4-1.07,1.3-.7Z" fill="#68133a"/>
      <path id="Path_14790" data-name="Path 14790" d="M216.68,171.6l.2-1.73,1.27.9Z" fill="#68133a"/>
      <path id="Path_14791" data-name="Path 14791" d="M218.47,169.82l1.26,2.6-2.36-.03Zm-.07-3.25,1.6,2.7-2.6.28Z" fill="#68133a"/>
      <path id="Path_14792" data-name="Path 14792" d="M217.75,172.42l-1.73.97-.1-1.78ZM222,176.3l-1.5,1.33-.57-1.8Zm-3.17,1.73-1.54-.76,1.07-.96Zm.8-4.5-1.3-1.1,1.3-.7Z" fill="#68133a"/>
      <path id="Path_14793" data-name="Path 14793" d="M215.24,174.4l-.14.92-.72-.38Zm3.12-1.62,1.83-3.28,1.95,2.78Zm1.3,5.4,1.57.95-1.26,1Zm-2.75,2.23.43.92-.94.05Zm-1.52-4.84-.66.6-.32-.84Zm6.6,2.94-.74-.48.68-.5Zm-3.02,4.76.45,1.02-.94.05Zm-1.6-4.83-.66.6-.2-.77Zm6.66,2.83-.74-.48.7-.4Zm1.8-2.94-1.27-.5.74-.9Zm-2.9-1.76-1.4-.57.88-.94Zm-3.54-2.3-.25.83-.65-.6Zm1.28.74,1.83-2.68,1.9,2.5Z" fill="#68133a"/>
      <path id="Path_14794" data-name="Path 14794" d="M223.13,177.37l1.2-2.8,1.8,2.1Zm-3.1,7.53-1.42-.75,1.18-.92Zm2.83,1.3-1.4-.8,1.2-.88Zm-18.82-10.5-1.04.56.02-1.1Zm5.2-1.04-.6-.8.8-.23Zm-3.5,7.14.54-.78.5.8Zm2.5,2.77-.47-.88.84-.1Zm2.4.18-1-.55.8-.56Zm4.08,3.58.23-.96.6.52Zm-7.73,1.62.9-.01-.35.7Zm15.6-7.15-1.25-1.58,1.65-.43Zm-11.23,1.68.8.97-1,.26Zm-2.67-4.95-.53.78-.4-.73Zm7.8,1.65-.8-.37.56-.58Zm-13.03-38.46-.93.03.34-.76Zm-2.83.48-.13-.7.64.05Zm2.26,3.43.68-.45.04.8Zm1.42-12.83-1.1-.18.54-.95Zm-.8-1.72-.02-1,.72.35Zm1,12.9.36-1.06.8.65Zm-2.08.33.22.9-.83-.16Zm-6.27,2.9-1.05.32.16-.98Zm5.43-.3-.5-.83.84-.03Zm-4.7,6.57.7-.64.22.8Zm4.06-19.43.76-.14-.24.77Zm1.34,1.98-.78.53-.03-.9Zm.03,4.73-.87.53-.12-1Zm.7-1.72-1.07.6-.1-1.2Zm.88-3-.78-.84.96-.33Zm-1.68,7.47.73-.93.4,1.02Zm-1.62-4.55-.84.03.23-.57Zm3.5.65-.15-.5.56.04Z" fill="#68133a"/>
      <path id="Path_14795" data-name="Path 14795" d="M200.1,144.25l.58-.35.04.7Zm-3.35,6.15v1.2l-.9-.47Zm.88-5.55-.87.34.07-.9Zm5.13,6.3-.5-.73.85-.13Zm10.42,33.3.3.98-.84-.18Zm7.92,2.44-.6.64-.32-.83Zm-6.97,7.26.58.88-.92.1Zm-1.87-4.68-.54.7-.3-.78Zm6.84,2.32-.76-.48.64-.5Zm-6.4-1.06.26,1-.95-.1Zm-.25-5.04-.7.4-.03-.83Zm5.73,4.4-.56-.7.68-.3Zm3.32-6.92.1,1.04-.87-.35Zm-8.84,11.62.4,1.07-.94-.08Zm-1.13-4.8-.74.5-.2-.78Zm6.4,3.3-.76-.57.74-.4Zm-5.8,7.2.4.97-.93.02Zm-1.14-5-.64.6-.2-.88Zm6.4,3.4-.67-.58.64-.4Zm.64,3-.37.9-.46-.7Z" fill="#68133a"/>
    </g>
    <path id="Path_14796" data-name="Path 14796" d="M265.87,146.86c-5.45-9.35-10.6-20.56-16-29.26-7.78-12.5-20.4-24.23-36.6-14.28s-8.8,34-3.8,46.06c5.18,12.54,13.98,29.08,33.24,39.28a239.872,239.872,0,0,0,50.36,20.14l11.8-27.82c-13.8-9.96-34.13-25.8-39-34.12Z" fill="url(#linear-gradient-7)"/>
    <g id="Group_996" data-name="Group 996">
      <path id="Path_14797" data-name="Path 14797" d="M209.5,115.73l1.42.7-1.33,1.3Zm-2.1-3.77,1.42.7-1.33,1.3Zm-1.85,5.78-.28.9-.76-.8Zm7.35-2.1v2l-1.98-.9Zm-2.94-7.3.1,2-2-.9Zm2.84-3.6-.66,1.9-1.6-1.6Zm-5.58,7.13.1,2-1.98-.8Zm1.7,2.06v1.9l-2-.9Zm1.33-2.86v2l-1.9-.9Zm-1.9,4.57.57,1.9-2.08-.2Z" fill="#c6467a"/>
      <path id="Path_14798" data-name="Path 14798" d="M207.5,115.93l.28,2-1.98-.6Zm6.34-6.08,1.52.7-1.42,1.3Zm-4.98,7.38,1.23,1-1.6.9Zm5.54-9.4,1.04.4-.85,1Zm-3.96,6.54.56-.8.57,1Zm9.16-.1-.66-.7,1.04-.3Zm2.32,4.23-.42,1.1-.82-.93Zm-5.9-4.26.74.43-.87.57Zm-.37,9.54.7-.58.24,1.02Zm.65-10.2h-1.13l.66-1.2Zm2.18-7.34-.3.9-.75-.7Zm-8.8,2.72.76.5-.86.6Zm1.04-3.62,1.5.7-1.32,1.3Zm2.55-.3,1.6,2-2.65.9Zm8.43-4.83,1.33,1.5-2.08.7Zm-9,8.75-.1,2.6-2.55-1.2Zm2.66-4.53,1.13,1.2-1.6.8Zm-.86-1.92,1.23,1.1-1.7.7Zm1.08,15.74-.47,1-.85-1Zm-2.65,1.2-.94-.1.47-.9Z" fill="#c6467a"/>
      <path id="Path_14799" data-name="Path 14799" d="M217.47,118.84l.76.5-.85.6Zm-4.2-7.68.67.7-1.04.4Zm-1.8-5.73,2.65-2.4,1.23,3.82Zm-3.6,2.5,2.74-2.5,1.14,4.02Zm-2.18,3.62,2.17-3,1.9,3.7Zm12.6-8.34-.76,1.7-1.42-1.6Z" fill="#c6467a"/>
      <path id="Path_14800" data-name="Path 14800" d="M214.4,103.02l3.22-1.8.28,4.12Zm-9.93,12.9.95-3.62,3.12,2.5Zm10.03-1.2-1.5.2.57-1.7Zm-4.2,18.46,1.42-.77.12,1.9Z" fill="#c6467a"/>
      <path id="Path_14801" data-name="Path 14801" d="M205.96,132l1.42-.77.12,1.9Zm5.74.5,1.2,1.6-2.08.6Zm-6.5-5.12,1.05,1.66-2.1.5Zm-.2-4.95.63,1.85-2.08-.04Z" fill="#c6467a"/>
      <path id="Path_14802" data-name="Path 14802" d="M205.44,132.44l1.43,1.23-1.92,1.02Zm3-.04,1.54,1.14-1.93,1.12Zm-1.3-1.7,1.1,1.7-2.15.3Zm1.46,5.42,1.54,1.3-2,.95Zm2.44-19.2.38,2-2.08-.5Zm-.84,5.64-1.9.17.7-2.16Zm-.67-2.02-1.9-.2,1.04-2Zm-1.03,7.3,1.6-.01-.84,1.66Zm2.9,7.88,1.4-.8.16,1.9Zm-3-10.6,1.1-.3-.12,1.3Zm.68,7.55-.1-1,1.03.4Zm7.3-5.94-.85-.17.56-.95Zm4.37,2.5.3,1.02-1.24-.1Zm-7.38.78.97-.03-.36.97Zm5.82,7.48.17-.98.83.55Zm5.3-17.84.13,1.1-1.2-.46Zm-7.02-1.48.94.15-.62.87Zm3.3,8.94.33-.8.72.75Zm-7.5-7.55,1.84.92-1.8,1.6Zm1.7,5.4.7-.78.43,1.03Z" fill="#c6467a"/>
      <path id="Path_14803" data-name="Path 14803" d="M213.97,119.75l-.94.6-.1-1.3Zm-1.7-7.35.2.9-.95-.2Zm-6.25,7.04h.95l-.47,1Zm17.38-11.1-.95.6-.2-1.3Zm-2.46-7.14.38.9-1.04-.1Zm-5.58,7.75.94-.1-.38,1ZM213.3,125l-.7.87-.6-1.24Zm-4.32-6.18.53.73-.96.25Zm-3.22,8.98.87-.36-.06,1.1Zm-1.66-3,1.6.06-.73,1.68Zm2.16-1.1,2.2,1.12-2.18,1.8Zm1.57,2.6,1.3,2.18-2.77.56Zm-.48-9.27.38,2.62-2.75-.8Zm-.92,3.87h1.6l-.78,1.77Zm-1.95-.52,1.58.4-1.24,1.53Zm10.96,12.46.2,1.1-1.24-.2Z" fill="#c6467a"/>
      <path id="Path_14804" data-name="Path 14804" d="M213.57,136.48l-.8.54-.12-1Zm3.77-4.48h.97l-.47.95ZM206.5,119.54l-.3.9-.75-.7Zm2.95,8.26.85.15-.62.97Zm7.32-21.26.57,1.9-2.08-.2Zm-13.1,13,.85-3.7,3.22,2.5Zm-.26,4.1.25-3.8,3.57,1.95Zm.33,4.87-.18-3.74,3.72,1.3Zm.9,5.27-.64-3.65,3.97.95Zm1.16,4.83-.9-3.65,4,.6Zm7.37-14.2-.78.47-.05-1Zm2.27,1.2-1.2,1.05-.48-1.74Z" fill="#c6467a"/>
      <path id="Path_14805" data-name="Path 14805" d="M214.65,122.76l-.78.45-.03-1.1Zm-1.75,1.22-.77.37-.06-1Zm5.8,2.9-1,.86-.4-1.23Zm-3.68-7.54.42,1.03-1.24.03Zm-5.24,9.5,1.05-.25-.25,1.2Zm2.3,14.1,1.5-.7.05,1.9Zm-3.44-1.74,1.5-.7-.04,1.9Zm1.16,6.43.4.86h-1.06Z" fill="#c6467a"/>
      <path id="Path_14806" data-name="Path 14806" d="M214.3,140.3l1.45,1.2-2,.95Zm-5.8,1.38,1.45,1.3-1.9,1.06Zm1.8.42,1.45,1.3-1.9.96Zm-.4-3.7,1.45,1.3-1.9.86Zm1.17,9.1,1.54,1.15-1.82,1.07Zm-.74-2.58,1.45,1.26-1.9,1.03Zm3.04-1.1,1.4-.8.06,1.9Zm-3.6-10.23.9-.63.2,1.3Zm1.9,7.2-.23-.9,1.15.18Zm6.2-7.2-.96.03.46-1.07Zm4.77.73.5,1.03-1.26.1Zm-7.03,2.37.9-.33-.17,1.08Zm7.1,5.9-.03-1,1.03.47Zm-4.1-3.18.5,1.03-1.26.1Zm-1.58,3.18-.73.75-.3-1.02Zm3.85-5.8.88-.23-.17,1.08Z" fill="#c6467a"/>
      <path id="Path_14807" data-name="Path 14807" d="M207.35,143.1l-1.2-3.58,4.02.4Zm1.3,3.92-1.2-3.47,4.03.2Zm11.42,14.84,1.2-.77.2,1.55Zm-2.5.47,1.1-.84.37,1.54Zm1.82,3.7,1.05-.92.4,1.52Zm-.64-2.33,1.2-.7.2,1.47Zm1.9-5.82,1.66,1.02-1.8,1.3Zm-4.6.52,1.66.92-1.8,1.4Zm-2.58-2.93,1.66.82-1.7,1.4Zm5.36,11.43-1.15-1.77,2.42-.3Zm2.7-2.47,1.45.7-1.35,1.2Zm-3.78-4.63,1.4.86-1.43,1.1Zm5.78,7.65,1.08.67-1.1.82ZM212.98,147l1.55,1.05-1.82,1.17Zm3.54,5.42-1.5,1.2-.63-2Zm-2.26-1.86-1.53,1.17-.6-2.12Z" fill="#c6467a"/>
      <path id="Path_14808" data-name="Path 14808" d="M216.33,155.87l1.33-.9.24,1.92Zm6.57,10.4,1.14-.77.24,1.54Zm-2.06,2.47.85-.7.32,1.17Zm-6.34-19.67.75-.8.5,1.15Zm3.93,6.17-.5-.86,1.05-.12Zm3.9-8.5-.95.32.16-1.07Zm-8.33-.4,1.97-.63-.36,2.3Zm7.17,3.3-.1-.96,1.06.38Zm.35-5.02-.38,1.07-.87-.87Zm-6.18-3.92.77.57-.86.5Zm-.04,9.28.77-.7.3,1.06Zm6.35-12.73-.28,1.17-1-.87Zm-6.6-3.37.83.46-.82.64Zm1.05,9.45.63-.66.4.93Zm-2.15,13.27,1.32-1,.34,1.83Z" fill="#c6467a"/>
      <path id="Path_14809" data-name="Path 14809" d="M214.27,154.38l2.5-.26-.98,2.73Zm3.7,1.92,1.97,1.5-2.46,1.42Zm-7.6-9.86,2.03,1.53-2.4,1.47Zm2.88,6.06,1.32-.8.34,1.73Zm-2.26.1,1.43-.78.2,1.73Zm14.05,10.43-.55.6-.35-.8Z" fill="#c6467a"/>
      <path id="Path_14810" data-name="Path 14810" d="M212.15,151.16l.4.86-1.15.01Zm6.73,6.48.96-.12-.45,1.07Zm-7.98-5.34-1.12-2.76,3.37.12Zm2.2,4.53-1.9-3.14,4.02-.6Zm1.82,3.62-1.8-3.14,4.02-.5Zm2.03,3.78-1.7-2.9,3.42-.17Zm3.97,5.73-1.35-1.86,2.6-.67Zm-1.47-19.34-.18.87-.78-.67Z" fill="#c6467a"/>
      <path id="Path_14811" data-name="Path 14811" d="M217.97,152.58l-.34,1.55-1.47-1.12Zm3.37,3.35-.17.97-.98-.74Zm-2.1-8.1-.28.87-.78-.67Zm-.17,2.7-.38.77-.68-.67Zm5.3,23.32,1.02.18-.65.92Zm-1.23-3.93-.64.98-.64-1.18Zm5.64.68-.64.92-.7-1.1Zm-.8,2.45-.64.9-.7-1.1Zm-7.55-18.83-1.5.8-.15-1.93Zm3.16,7.26-.8.82-.52-1.2Zm4.86,6.1-.12.67-.62-.46Zm-3.98-1.87.5.3-.5.43Zm.74,5.54.37-.4.24.54Zm3.77-17.24-.35.98-.8-.85Zm-5.4-3.82.7.56-.76.5Zm-.34,8.42.66-.5.2.86Zm11.92,16.73-.3.86-.7-.75Zm-4.72-3.33.6.5-.66.44Zm-.3,7.36.57-.44.2.76Zm-2.56-14.22-.02.65-.63-.28ZM223.4,164l.54.17-.43.46Zm1.6,5.3.3-.5.34.52Zm1.7,5.9.67-.53.26.93Zm-2.28-2.28,1.22-.38-.1,1.4Zm-.3-.46.57-.7.45.9Zm-1.05.22.7-.6.3,1.1Z" fill="#c6467a"/>
      <path id="Path_14812" data-name="Path 14812" d="M230.26,177.25l.3.52-.63.07Zm-7.23-4.43-1.3-1.82,2.3-.74Zm5.25,5.28-1.35-1.42,1.98-.73Z" fill="#c6467a"/>
    </g>
    <g id="Group_997" data-name="Group 997">
      <path id="Path_14813" data-name="Path 14813" d="M240.24,113.75l-.8-.07.4,1Zm4.24,8.25-1.52.36,1.25,1.52Zm2.47-3.9-1.5.37,1.06,1.35Zm.5,2.06-.06,1.84,2-.78Zm-2.18-4.7.16,1.85,1.84-1.1Zm-2.2-3.88.55,1.85,1.55-1.36Zm6.36,7.18-.13,1.84,1.96-.6Zm-4.02,1.1-.42,1.85,2.1-.36Z" fill="#771b40"/>
      <path id="Path_14814" data-name="Path 14814" d="M245.4,117.98l.08,1.8,1.84-1.1Zm4.1,4.72-.13,1.83,1.87-.63Zm-8.23-13.26,1.77-.8-1.48-1.3Zm1.9,8.36-1.12,1.07,1.56.7Zm4.04,5.88-1.48.5,1.12,1.34Zm-5.8-9.48-.94.3.83,1.07Zm3.74,6.3-.53-.67-.6.8Zm-8.84-11.7.76-.65-.85-.4Zm-1.96-5.52.16,1,.9-.67Zm2.96,2.58-.9.4.7.68Zm5.6,25.14-.7-.65-.14,1.04Zm-7.06-26.96.43.97.84-1Zm.1,2.73-.52-.37-.3.96Zm3.87.98-.8-.2.03.86Zm1.35,9.88,1.07-.4-.73-.9Zm-.4-7.43-.62.54.85.35Z" fill="#771b40"/>
      <path id="Path_14815" data-name="Path 14815" d="M237.78,113.26l1.02.1-.12-1.06Zm7.36,2.8-.82.2.7.77Zm-.17-3.17-1.24,1.08,1.57.73Zm-2.4.28-1.12,2.15,2.82.13Zm.16,3.2.43,2.37,2.27-1.43Zm-1.5-4.97-1.4.97,1.6.87Zm1.1-1.55-.94,1.18,1.8.4Zm.58,15.95.58.85.7-1Z" fill="#771b40"/>
      <path id="Path_14816" data-name="Path 14816" d="M244.3,125.7l.9-.23-.63-.75Zm-3.17.76-.72.54.9.45Zm-.7-15.98.74.5.16-1.1Zm2.08,7.98-.63.67,1,.26Zm3.18-6.76-2-2.23-1.18,2.6Zm2.58,3.62-2.14-2.7-1.08,2.8Zm1.9,2.86-1.75-2.7-1.04,2.87Zm2.5,3.98-1.52-2.33-1.52,2.15Zm-13.6-12.22h.87l-.37-.77Zm-.57-3.76,1.35-.5-1-1.13Zm-2,6.66.84-.15-.65-.8Zm3.28-5.56.8-.2-.36-.77Zm10.74,20.47-1.4.68,1.2,1.2Zm1.8-2.42-1.43.63,1.2,1.16Zm3.13,4.87.48.88.6-.83Zm-8.4-4.82-.18,1.93,2.02-.68Zm1.02-6.96-.2,1.28,1.38-.34Zm3.72,3.74-1.16.54,1.07.98Zm-3.72-.46-1.2.44,1.07,1.12Zm4.65,3.95-.04,1.87,1.92-.7Zm-.6,1.7-.14,1.83,1.88-.63Zm-2.43-3-.1,1.75,1.97-.6Z" fill="#771b40"/>
      <path id="Path_14817" data-name="Path 14817" d="M253.75,130.76l-.1,1.93,1.94-.66Zm-.52-2-.2,1.9,2-.75Zm-2.76,1.5-1.46.55,1.2,1.2Zm-5.8-10.14-.96.23.68,1Zm5.4,7-.35-.84-.67.9Zm-9.75-3.3.67-.68-.94-.35Zm.38-4.48.1,1,1.08-.63Zm4.1,7.6-.8.5.8.63Zm-1,9.07-.6-.6-.4.9Zm1.43-3.42.35.92.86-.92Zm2.17-.66.94.1-.48-.88Zm-5.92-.26-.87.48.82.6Zm13.02-6.26-1.66-2.73-1.38,2.1Zm1.56,3.64-1.54-2.9-1.3,2.38Zm4.54,18.28-1.45.55,1.3,1.25Zm1.95-2.1-1.42.46,1.17,1.3Zm2.62,3.25-1.38.7,1.35,1.06Zm-1.97-1.3-1.5.64,1.35,1.15Zm-5.4-1.9-.2,1.9,2.02-.84Zm2.53-3.96-.16,1.8,2.08-.7Zm-1-3.64-.16,1.8,1.95-.66Zm7.33,10.36-1.24-2.1-1.7,2.3Zm-4.2,2,.12,1.92,1.9-.97Zm-2.36-6.24-.02,1.74,1.9-.56Z" fill="#771b40"/>
      <path id="Path_14818" data-name="Path 14818" d="M264.7,152.34l.47,1.83,1.62-1.17ZM251.1,130.1l.78,1.67,1.4-1.66Zm4.44,8.6,1.77-.5-1.45-1.65Zm-1-3.63,1.63-.47-1.22-1.65Zm3.5,5.33-1.6.6,1.53,1.24Zm4.74,11.33-1.44.78,1.42.97Zm3.67-1.35-1.4.82,1.47,1ZM252.61,134.2l-.93.13.62,1.05Zm3.83,7.55-.48-.87-.7.78Zm-9.96-3.2.7-.57-.97-.54Zm4.98-6.42-1.7.88,1.84,1.27Zm-2.28,7.43-.6-.6-.4.9Zm-3.85-2.85.95.32v-1.2Zm.75-7.02-.1.94.88-.25Zm7.57,7.06-.88.26.65.73Zm-12.7-8.06,1.06.6v-1.2Zm-1.64-11.12-.38.82,1.08-.05Zm9.24,14.22-.9.03.3.8Zm11.48,6.77-1.5.64,1.26,1.34Z" fill="#771b40"/>
      <path id="Path_14819" data-name="Path 14819" d="M258.1,137.8l-1.54,1.94,2.58.6Zm-.6,4.54.23,2.4,2.4-1.2Zm-4.05-12.6-.13,2.47,2.55-1.04Zm2.4,5.36-1.45.77,1.34,1.16Zm2.32-1.24-1.55.5,1.3,1.25Zm.33,18.9,1.03-.08-.8-.7Z" fill="#771b40"/>
      <path id="Path_14820" data-name="Path 14820" d="M256.1,133.8l.48.88.7-.8Zm1.96,10-.5.64.95.32Zm.5-9.9-1.37-3.03-1.78,2.48Zm2.32,4.28-1.55-3.12-2.53,2.92Zm1.92,3.28-1.76-2.88-2.44,2.96Zm2.36,4.48-1.9-3.6-2.07,3.12Zm3.88,5.04-2.13-2.56-1.8,3.4ZM251.08,139.1l.82.37v-1Zm3.75.93,1.4.52-.06-1.78Zm.57,4.32,1,.45-.05-1.12Zm-6.33-7.37.73.33-.08-1.03Zm1.7-.88.8.15-.16-.85Zm21.55,19.73-.13,1.43,1.66-.64Zm-4.73,2.1,1.48-.83-1.5-1.2Zm2.9,2.06,1.5-.8-1.38-1.27Zm-15.88-17.08,1.4-.9-1.56-1.14Zm11.05,13.43,1.4-.95-1.54-1Zm-6.02-.3,1,.23-.27-1.1Zm-.3-6.4.12.93.7-.56Zm8.18,4.34-.73.3.68.53Zm-17.26-8.77.86.28-.08-1.02Zm-2.2-3.62-.01.76.8-.3Zm8.88,6.32-.75.2.6.6Zm-4.18,2.92,1.04.36-.04-1.1Zm5.04-.46-.06.85.9-.26Zm7.93,6.6-.88.34.7.64Zm7,.1-.93.65,1.25.7Zm-2.24-1.64-.84,1.78h2.14Zm-1.12-.52-1.03.6,1.26.85Zm.87-1.36-.9.95,1.42.58Zm-2.44.84.48.47.37-.83Z" fill="#771b40"/>
      <path id="Path_14821" data-name="Path 14821" d="M271.35,153.63l-2.22-2.3-1.78,3.07Zm2.5,2.45-1.88-2.05-1.3,2.84Zm3.07,2.6-2.1-1.82-1.08,2.82Zm5.7,11.95-1.25.97,1.76.76Zm1.2-3.13-1.14.98,1.6.66Zm2.88,1.83-1.22,1.05,1.67.7Z" fill="#771b40"/>
      <path id="Path_14822" data-name="Path 14822" d="M285.13,169.03l-1.1,1.2,1.72.6Zm-15.1-7.83.5,1.73,1.5-1.42Zm10.57,3.87.5,1.73,1.65-1.26Zm-2.63-3.57.57,1.75,1.5-1.43Zm10.43,7.24-1.8-1.5-.74,2.7Zm-3.86,2.8.67,1.72,1.48-1.5Zm-3.42-4.1.47,1.83,1.6-1.4Zm8.16,4.32.9,1.7,1.13-1.4Z" fill="#771b40"/>
      <path id="Path_14823" data-name="Path 14823" d="M274.92,161.78l-1.08,1.14,1.75.42Zm11.3,11.62-.97,1.25,1.64.47Zm2.2-2.6-1.16,1.18,1.7.6Zm-9.45-8.7-1.16,1.2,1.63.53Z" fill="#771b40"/>
      <path id="Path_14824" data-name="Path 14824" d="M276.7,162.15l-.47,2.36,2.65-.5Zm-2.43-1.7.47.95.87-.9ZM283,176.13l.74-.55-.82-.5Zm-3.58-8.3-.3.95,1.1-.18Z" fill="#771b40"/>
      <path id="Path_14825" data-name="Path 14825" d="M279.8,161.08l-2.7-2.28-1.04,3.67Zm3.33,3.32-2.63-2.3-1.14,3.62Zm3.14,2.73-3.03-2.52-.76,3.82Zm4.66,3.47-2.18-1.6-.7,2.7Zm-2.45,5.62,1-.9-1.36-.65Zm-11.32-7.65.37.7.53-.6Zm13.3,5.48-.74.6.85.3Zm-17.66-8.4-.75.4.9.5Zm5.77,5.9.3.72.75-.4Zm13.8,2.94-.28,1.2,1.44-.2Zm-.78.8-.93.84,1.25.65Zm1.3-2.4-.8,1.1,1.48.3Zm-2.13,1.48.63.32.17-.78Zm2.86-1.8-1.8-1.22-.65,2.23Z" fill="#771b40"/>
    </g>
    <g id="Group_998" data-name="Group 998">
      <path id="Path_14826" data-name="Path 14826" d="M341.8,209.54l1.1-.7-1-.67Zm-11.3.01-1.07-.58-.15,1.4Zm1.12,2.25-.3-1.82-2.47,1.22Z" fill="#da7f57"/>
      <path id="Path_14827" data-name="Path 14827" d="M328.94,211.2l-1.03-1.72-.92,1.26Zm6.46.86.9.01-.38-.9Zm-3.93-2.26h.9l-.4-.9Zm-3.93-1h.9l-.38-.9Zm10.9,3.84-.7.5.66.4Zm.3-.94-.6.6.77.45Zm-1.06-2.22-.6.6.9.4Zm-2.77-.08-.6.6.9.4Zm-2.18,1.17-.6.6.9.4Zm-2.55-2.4-.6.6.88.4Zm9.56,1.93-.7.4.6.6Zm.14,1.3-.9-.1.2.9Zm1.58-1.6-1.04-.37-.25,1.46Zm-3.64,3.8-.47-1.93-2.08,1.24Zm-3.04-.84v-1.48l-2.5.75Z" fill="#da7f57"/>
    </g>
  </g>
</svg>
