<svg xmlns="http://www.w3.org/2000/svg" width="200.06" height="179.23" viewBox="0 0 200.06 179.23">
  <g id="_71" data-name="71" transform="translate(-149.61 -97.31)">
    <path id="Path_16644" data-name="Path 16644" d="M239.4,200.57h0l-.08-.3Zm17.67.75h0l-.12-.28Zm-33.5,74.52c0,.06-.01.13-.01.18Zm30.53.52c.01.06.01.13.02.18Zm30.08-2.82.06.17Z"/>
    <path id="Path_16645" data-name="Path 16645" d="M346.87,206.1l-6.73-1.1c-.9,0-4.1-.3-6.2.3-1.5.4-3.1,1.5-6.4.3-2.68-1.08-8.57-4.46-14.77-8.2l2.07-6.5c-.2-.8-26.6-16.7-30.1-21.7-7.87-11.13-11.25-29.98-22.27-48.45a31.462,31.462,0,0,0-10.8-13.24,19.914,19.914,0,0,0-9.28-4.64c-5.84-4.25-10.4-4.25-15.45-4.07a9.048,9.048,0,0,0-2.27.4,45.228,45.228,0,0,0-9.03,2.5c-11.4,4.4-23.4,14.6-38,35.3-8.1,11.5-14.4,22-21.7,44.6-5,15.6-5.5,26-5.4,30a2.148,2.148,0,0,0,1.8,2.1l3.74.6c-1.07,8.4-1.54,14.2-1.54,14.2a22.27,22.27,0,0,0-1.8,13.9c0,.6.8,1.2,1.7,1.9a4.036,4.036,0,0,0,1.3,1.3c.4.2.6-.2,1.1.1.6.3,1.5,1,2.2.9,2.1-.3,1.8.3,2.8.4a1.769,1.769,0,0,0,1.8-.9,38.742,38.742,0,0,0,1.5-5.2c.1-1,1.1,1.5,1.5,3.2.6,1.8,2.3,3,2.1-.1s.1-5.7,0-6.5a22.792,22.792,0,0,0-1.2-6.1c-.6-1.3-1.9-2.9-1.2-6.3a90.467,90.467,0,0,1,3.05-8.6l4.95.8a2.057,2.057,0,0,0,2.4-1.4,167.287,167.287,0,0,1,9.5-22.7c.72-1.4,1.44-2.73,2.16-4.03l-9.46,58.53a1.693,1.693,0,0,0,1.6,2l36.5.7c5.5,0,19.5-1.3,22.2-9.2,2.27-6.55,3.87-18.93,5.1-32.9h26l1.92,25.7c.9,10.7,8.1,13.2,11.2,13.2h4.9l-7.27-39.38c9.2,3.25,16.74,5.92,25.67,8.48l1.28-4c12.1,3.63,21.52,5.8,21.52,5.8a23.125,23.125,0,0,0,13.4,3.9c.6.1,1.3-.7,2.1-1.4a.717.717,0,0,0,.16-.7,1.036,1.036,0,0,0,.04-.1,1.126,1.126,0,0,0-.12-1.03c.01-.02.01-.05.02-.07.2-.4,1.2.1,1.6-.4.5-.6,1.3-1.5.9-2-.02-.02-.03-.04-.04-.05a1.233,1.233,0,0,0-.45-.76.739.739,0,0,1,.27-.83,1.288,1.288,0,0,0,.9-.57.8.8,0,0,0,.4-.48,2.118,2.118,0,0,0-.6-2,38.021,38.021,0,0,0-5-2.3c-1-.2,2.85-.6,4.45-.9,1.9-.57,2.7-1.7-.72-2.32ZM329.8,219.18l.13.07-.02-.02Zm-66.57-98.56.36.7C263.61,121.29,263.53,121.12,263.23,120.62ZM153.75,228.42a.035.035,0,0,1,.01-.02l.04-.1-.05.12ZM186.4,124.3l.12-.16Z" fill="#fff"/>
    <path id="Path_16646" data-name="Path 16646" d="M313.76,198.4h0l-.01.3Zm-47.2-39.13-.03.03C266.54,159.31,266.55,159.31,266.56,159.27Zm18.06,74.53h0l-.14-.3ZM157.16,245.06c.01.01.02.01.04.02Zm10-1.92h0l.1.14ZM156,218.8c.05-.4.1-.78.04-.8l-.04.36a3.23,3.23,0,0,1,0,.44Z"/>
    <path id="Path_16647" data-name="Path 16647" d="M156,218.8l-.05.5a2.67,2.67,0,0,0,.05-.51Zm32.37-21.73h0l.03.4Zm-27.03,19.37h0l-.33.03Z"/>
    <path id="Path_16648" data-name="Path 16648" d="M348.75,211.33a1.559,1.559,0,0,0-.56-.37l-.44-.2c.37.15-.13-.12-.1-.12l-1.85-.86a.983.983,0,0,0-.35-.1.879.879,0,0,0-.23,0c-.48-.2-.26-.16-.15-.2a2.067,2.067,0,0,1-.44-.08c-.04-.01-.13-.01-.12-.06a.313.313,0,0,1,.1-.05l.26-.06-.1.05.5-.1.64-.1-.23-.04c-.05-.02-.1-.03-.16-.05l.5-.03a.767.767,0,0,1,.2.03c.08.02.15.04.75-.07l-.03-.1.63-.1.6-.17a3.246,3.246,0,0,0,.56-.22,2.16,2.16,0,0,0,.62-.43,1.088,1.088,0,0,0,.32-.65,1.075,1.075,0,0,0-.27-.7,1.969,1.969,0,0,0-.68-.5,5.287,5.287,0,0,0-.66-.3c-.93-.27-1.8-.38-2.67-.56l-2.66-.46a18.939,18.939,0,0,0-2.77-.3l-2.7-.04a17.25,17.25,0,0,0-2.75.25,25.329,25.329,0,0,0-2.56.77,6.417,6.417,0,0,1-4.6-.52l-.22-.2c-.05-.14-1.68-.6-1.85-.8l-.7-.3c-.18-.12-.56-.35-.22-.2l-1.1-.53-1.85-1.24c-7.93-4.36-5.73-1.98-4.52-1.35v.1c1.6.78,2.84,1.76,3.93,2.23a29.034,29.034,0,0,0,2.7,1.58l.6.44c.72.4.57.17,1.37.6-.08.03,1,.56.5.37l1.47.66a9.171,9.171,0,0,0,1.7.4,8.732,8.732,0,0,0,3.9-.4,8.315,8.315,0,0,1,2.14-.7c.06,0,2.6-.16,1.15.03a1.266,1.266,0,0,1-.33.01l-.17.1,4.23-.04c-.5-.03-1.06-.06-.67-.1l.72.03a4.921,4.921,0,0,1,.64.06l-.28.03,2.02.33-.27-.12a16.711,16.711,0,0,0,2.48.5c.53.04-.94-.28.13-.1l2.36.54.6.18.28.1.13.07c.08.04.1.14.04.18.05.01.07.03.05.06s-.02.03-.06.05l-.05.04-.14.07-.07-.05a4.975,4.975,0,0,1-.46.2.556.556,0,0,1-.25.06,1.24,1.24,0,0,1-.34,0,3.588,3.588,0,0,0-1.24.14l.16-.07-.24.1-.13.06-.2.07-2.18.4-.2.06a.525.525,0,0,0-.53.2,12.4,12.4,0,0,1-2.93,3.18,17.6,17.6,0,0,1-4.22,1.37.5.5,0,0,0,.09,1,.375.375,0,0,0,.1-.01,17.834,17.834,0,0,0,4.53-1.5,5.427,5.427,0,0,0,1-.78,1.806,1.806,0,0,0,.2.78,2.265,2.265,0,0,0,.44.55,1.666,1.666,0,0,0-.56.17,1.958,1.958,0,0,0-1,1.2,1.667,1.667,0,0,0,.12,1.38,2.669,2.669,0,0,0,.36.47,1.789,1.789,0,0,0-1.67,1.23l-.01.04c-.5,1.67,1.8,2.54,2.8,2.9a6.473,6.473,0,0,0,1.7.44.748.748,0,0,1-.18.13c-.14.08-.15.07-.12.13a.076.076,0,0,1-.04.01l-.1-.01c-2.28.16-4.08-.47-4.94-.3a10.266,10.266,0,0,1-1.76-.53l.25.06a20.917,20.917,0,0,1-3.84-1.4,8.828,8.828,0,0,1-2.02-.9c.4.17-.08-.1-.5-.37.27.16.36.2-.15-.2a1.5,1.5,0,0,1-.23-.13l-.28-.05c0-.01-.03-.02-.01-.02-.83-.18-.7-.12-.3-.02-.02,0,.01.02.12.07l-2.48-.7-6.37-1.46c-.22-.12.28-.04.88.1l-1.47-.37a7.116,7.116,0,0,1,1.3.28c-1.7-.6-3.63-.84-5.63-1.52l-.44-.06-.12-.04a3.294,3.294,0,0,1-.78-.13c-.27-.15.06-.15-.94-.43-.78-.3-2.27-.62-3.32-.9.56.18.37.16.12.1l-.98-.33,2.74-7.9c-.23.24.04-.58.3-1.45l.15-.06c.88-3.33.64-1.12,1.55-4.4l.02-.62c.7-3,.75-1.5,1.47-4.86-.2.65-.3.78-.3.55a2.964,2.964,0,0,1,.1-.6l.13-.46.2-.63a3.876,3.876,0,0,0-.04.52l.22-.76a2.58,2.58,0,0,0,.1-.66c.07-.2-.1-.34-.2-.5a1.925,1.925,0,0,0-.42-.46c.4.24.42.35.32.12-.1-.1-.27-.26-.53-.48l-.36-.27-.38-.27.42.2.2.1a2.764,2.764,0,0,1,.34.22,6.469,6.469,0,0,0-.7-.45l-.57-.33-1.13-.63-4.88-3.37-4.42-2.78c.77.37-1.15-.95-.52-.7a34.5,34.5,0,0,1-4.74-3.06l.2.13c-3.86-2.83-6.9-4.5-10.05-7.32.04.24-1.56-1.28-1.28-.78a12.8,12.8,0,0,1-1.12-1.07,5.35,5.35,0,0,1-.43-.54q-.205-.312-.4-.63c-.5-.83-1-1.6-1.37-2.34a16.443,16.443,0,0,0-1.98-3.2,21.336,21.336,0,0,1-1.3-3.17l.23.42c-1.57-3.43-1.95-4.47-2.98-7.1a26.6,26.6,0,0,1-1.73-3.8c.4.73,0-.23-.33-1.12.23.56.33.72-.04-.47a6.207,6.207,0,0,1-.31-.63c0-.01-.01-.06.01-.04-.6-1.46-.53-1.2-.28-.5-.03-.03-.03.04.03.26-.46-1.58-1.65-4.27-1.57-4.52-9.1-17.8-5.82-8.47-5.28-7.23,2.08,4.74,4.12,9.9,5.96,14.66,1.06,2.2,2.4,6.27,3.7,8.87l.32,1.08c.45.9.98,1.94,1.34,2.88l-.06-.04c.74,1.3,1.43,2.85,1.85,3.48l-.06-.04.92,1.6-.2-.25c.33.57.7,1.1,1.1,1.66l.56.82c.18.27.36.54.6.84a23.525,23.525,0,0,0,2.8,2.72l-.06-.24a45.251,45.251,0,0,0,4.68,3.62c1.36.95,2.67,1.84,4.48,3.2l-.07-.01c4.93,2.9,7.36,5.24,12.48,8.15-.64-.36.22.23.15.23,2.3,1.44,4.68,3.02,4.86,2.82l.35.26a1.22,1.22,0,0,1,.16.14c.1.1-.03.17-.03.2-.06.08-.1.07-.18.1.03,0,.05.04.05.1q-.069.364-.17.72c-.16.6-.4,1.38-.62,2.1l.17-.7-1.3,4.22.5-.75c-.78,2.2-.45.48-1.08,2.63l.2.03c-1.02,3.07-1.88,4.8-2.97,7.73l-1.36,4.22-.67,2.14-.38,1.23-.94-.26-1.85-.53-3.7-1.1-7.3-2.33c-3.57-1.2-7.05-2.42-10.4-3.66l-4.57-24.03.04-.57c.16-.28-.97-3.34-.87-3.84l-.37-1.4c-.04-.4-.17-1.27.02-.56-.25-1.32-.3-1.35-.54-2.3l-.15-1.45c-.92-5.24-2.07-9.63-3.12-15.13-1.08-6.65-3.9-19-5.73-26.08-.7-2.48-1.24-5.07-2.07-7.74a15.969,15.969,0,0,0-.68-1.98l-.75-1.98a39.96,39.96,0,0,0-1.94-3.8,28.829,28.829,0,0,0-12.08-11.56,4.416,4.416,0,0,0-1.15-.5q-1.132-.547-2.31-.99c-.48-.16-.92-.3-1.4-.45l-.38-.32c-.53-.4-1.03-.8-1.55-1.15a21.179,21.179,0,0,0-6.26-3.08,23.547,23.547,0,0,0-7-.85l-1.94.04a9.306,9.306,0,0,0-2.34.36,13.7,13.7,0,0,0-2.66,1.07c-.73.2-1.45.4-2.16.67-.67-.13-4.3,1.3-5.5,1.76l.1-.07c-3,1.46-6.3,2.83-8.9,4.8a2.248,2.248,0,0,1,.72-.6c-1.96,1.3-4.47,3.3-4.7,3.28a90.252,90.252,0,0,0-6.9,6.12,65.766,65.766,0,0,0-5.15,5.72l.13-.2c-1.2,1.65-1.74,1.97-3.1,3.78-.1.08-.2.2-.2.17-.64.9-1.66,2.15-2.6,3.37-.98,1.2-1.9,2.4-2.4,3.13l-.16.03q-1.321,1.747-2.58,3.54l.98-1.32c-.07.65-2.12,2.56-3.76,5.3-1.73,2.43-2.86,5.35-4.6,7.9-.64,1.33.48-1.23-.58.7-.17-.02.45-.93.05-.5-1.06,1.9-1.97,2.97-3.16,5.36l-.16.04c-1.46,3.17-3.15,5.8-3.92,8-1.36,3.33-1.35,2.05-2.55,5.6-.23.43-.48.85-.7,1.3-.6,1.48-.23,1.14-.95,2.77-.07-.14-.86,2.07-.6,1.06-1.57,3.72-2.54,7.75-4.4,12.72-.15,1.16-1,3.7-1.06,4.57-.15.1-1.32,5.2-.8,2.23.04-.26.16-.7.2-.66l-.03-.38a62.341,62.341,0,0,0-1.75,8.33c.2-.87.43-2.03.35-1.24-.2.9-.34,1.83-.52,2.74v-.6c-.26,1.36-.48,2.73-.68,4.1l.2-.55a22.674,22.674,0,0,0-.62,5.02c.02,1.05.3-1.92.2.24l-.18,2.27-.06,1.28c0,.22-.01.44-.01.66v.34a4.117,4.117,0,0,0,.03.48,3.2,3.2,0,0,0,.92,1.78,3.439,3.439,0,0,0,1.74.9l2.62.47c-.3-.2.62-.04,1.57.1l.1.14c3.63.42,1.27.5,4.87.94l.66-.07c3.27.28,1.7.54,5.34.8-1.42-.2-.62-.38,1.1-.04l-.46.05c.26.04.47.06.66.08a23.955,23.955,0,0,0-1.13,2.76l-.35.65c-.28.75-.08.58-.42,1.4-.05-.08-.4,1.05-.3.54a10.269,10.269,0,0,0-.5,6.96c.3.56.92,1.8,1.15,2.1-.01.04.23.6.33,1.05s.16.7-.08.02a1.074,1.074,0,0,1-.08-.3l-.12-.13a32.97,32.97,0,0,1,.83,3.98c-.02-.43-.1-1-.01-.63l.14,1.36-.1-.28.08,1c.01.3-.01.63-.03.97l.1-.28a13.22,13.22,0,0,0-.14,2.5c.05.52.12-.96.13.1-.04.68-.07,1.53-.05,2.44.01.45.03.94,0,1.25-.02.22-.02.16-.04.22a.086.086,0,0,1-.07.06c.07.1-.05.14-.15.05l.03-.08c-.04-.02-.08-.06-.17-.2-.07-.1-.1-.18-.15-.25a.634.634,0,0,1-.08-.28,1.382,1.382,0,0,0-.05-.28,7.432,7.432,0,0,0-.23-.8l-.2-.3-.72-1.87a1.883,1.883,0,0,0-.33-.58,1.089,1.089,0,0,0-.29-.23.639.639,0,0,0-.48-.08c.4-.01.37.16.3.13-.05.01-.1-.05-.28-.01-.13.08-.1.17-.22.3l.06-.23a2.253,2.253,0,0,0-.44.97c.04-.28.03-.4-.01-.27s-.12.54-.3,1.14c.05-.3.1-.6.14-.96-.07.48-.16.9-.25,1.28l-.15.73c-.15.4-.32.9-.47,1.36l-.44,1.33c-.02.05-.04.07-.07.07a1.453,1.453,0,0,1-.64.37,1.64,1.64,0,0,1-.62.03c-.16-.02-.32-.1-.5-.14.23.08.1-.03-.18-.17s-.57-.2-.32-.2a6.045,6.045,0,0,0-1.7.1c-.3.1-.76-.16-1.03-.35l.1.05c-.3-.17-.57-.36-.93-.55a1.334,1.334,0,0,0-.68-.2,1.579,1.579,0,0,0-.48.06c-.01,0-.03.01-.04,0h-.02l-.1-.06a3.76,3.76,0,0,1-.8-.83,1.34,1.34,0,0,0-.36-.35l-.27-.2c-.17-.13-.35-.27-.5-.4-.3-.24-.6-.65-.53-.67h-.03l-.01-.14c-.07-.17-.2-.97-.24-.7-.5-2.28-.06-4.2-.33-5.05a10.79,10.79,0,0,1,.3-1.78l-.02.25a19.3,19.3,0,0,1,.93-3.9,7.824,7.824,0,0,1,.66-2.07c-.05.17-.04.2,0,.1l.25-.5.03-.3c-.01.14-.01.24-.01.3-.02.04-.01.05.02,0,.01-.03.02-.1.04-.22.01-.08.03-.2.05-.33-.01-.1-.01-.24-.01-.37.01-.01.01-.03.02-.02.05-.84.02-.7-.02-.3-.01-.02-.02.01-.05.13.16-.86.22-2.42.34-2.5l.52-6.4c.08-.23.07.27.03.87l.12-1.12c-.06-1.58-.74-3.2-1.42,1.9-.18,1.34-.3,2.72-.43,4.1l-.34,3.93a.926.926,0,0,0-.05.1,25.02,25.02,0,0,0-1.56,5l-.2.58c-.08.54-.12,1.17-.24,1.7l-.02-.04c-.03.8-.12,1.72-.1,2.12l-.02-.03q-.017.49.01.98l-.04-.17a32.116,32.116,0,0,0,.47,3.95.757.757,0,0,0,.01.15,1.168,1.168,0,0,1,.06-.2,1.837,1.837,0,0,0,.52,1.13,5.308,5.308,0,0,0,.6.58c.18.16.38.3.55.43l.13.1a.275.275,0,0,1,.05.04l.16.2a4.5,4.5,0,0,0,1,1,1.3,1.3,0,0,0,1,.27l.26-.05.12.06.34.2h-.04a4.972,4.972,0,0,0,2.1.72c.4-.04.58-.07.86-.08a1.855,1.855,0,0,1,.66.07c.16.04.32.18.7.33a2.462,2.462,0,0,0,1.1.14,2.34,2.34,0,0,0,1.1-.4,2.219,2.219,0,0,0,.48-.4,1.24,1.24,0,0,0,.34-.76,4.79,4.79,0,0,0,.2-.63c-.1.38.1-.14.1-.1.2-.7.43-1.4.57-1.96a1.945,1.945,0,0,0,.1-.53.587.587,0,0,0-.05-.2c.13-.5.13-.3.17-.22a1.284,1.284,0,0,1,0-.4c.03-.14.13-.01.16.04a.92.92,0,0,1,.13.24.875.875,0,0,0-.08-.1,3.19,3.19,0,0,1,.2.46l.1.28.17.54v-.47c.16.6.13.68.12.75a.452.452,0,0,0,0,.17l.04.2a2.754,2.754,0,0,0,.14.4l.1-.06a4.369,4.369,0,0,0,.63,1.14,1.491,1.491,0,0,0,1.2.7,1.169,1.169,0,0,0,.9-1.04,4.8,4.8,0,0,0,.14-1.36c-.1-1.7-.06-3.43-.01-5.2a8.362,8.362,0,0,0-.04-1.4l-.15-1.32a22.244,22.244,0,0,0-.46-2.67,9.863,9.863,0,0,0-.93-2.6,9.2,9.2,0,0,1-.96-2.27,7.723,7.723,0,0,1,.5-4.62l.17-.24c.15-.08.38-1.73.58-1.92l.2-.72c.1-.2.27-.6.17-.24a8.626,8.626,0,0,0,.37-1.15l.34-.66.56-1.42a6,6,0,0,0,1.35.28l-.98-.01,2.72.22.82.17a9.174,9.174,0,0,0,1,.16,2.995,2.995,0,0,0,3.07-2.1l.25-.7a8.559,8.559,0,0,1,.4-.96l.8-2.23c.42-1.18.9-2.47,1-2.98-.22.88.72-1.4.6-.7a36.16,36.16,0,0,1,2.18-5.55l-.1.25,3.95-8.66-.33,2.16.4-1.03c-.53,2.88-.4.7-.8,3.46h.2c-.68,4-1.34,6.3-2.1,10.13l-3.72,24.6-1.98,12.1-.3,1.47a2.562,2.562,0,0,0,.55,2.08,2.51,2.51,0,0,0,.87.67,2.45,2.45,0,0,0,1.05.22l1.47.04,5.78.2.67.16c.3.22,4.18-.24,4.76-.03l1.76-.06c.5.05,1.54.1.66.14a27.49,27.49,0,0,0,2.84-.04l1.75.17c3.2.1,6.18.13,9.2.14l4.6.03c1.56.01,3.17.08,4.9,0a41.084,41.084,0,0,0,7.33-.76,27.456,27.456,0,0,0,8.42-2.95,14.264,14.264,0,0,0,3.7-3.03c.25-.32.46-.67.7-1,.1-.17.23-.33.33-.5l.25-.55c.15-.37.34-.74.45-1.1l.3-1.04.56-2.03c.17-.66.28-1.32.42-1.95.25-1.27.52-2.45.67-3.55q1.523-9.728,2.67-19.51l.44-4c3.15.06,7,.06,10.93.02l13.1-.2q.119,1.558.31,3.11l-.03,1.16a26.537,26.537,0,0,1,.28,3.24l-.04-.06c.2,1.52.28,3.24.38,4l-.04-.06.15,1.85-.07-.3q.42,3.891.63,7.8l.13-.2a51.943,51.943,0,0,0,.53,6.1,22.187,22.187,0,0,0,1.77,5.7l-.06-.04a15.8,15.8,0,0,0,2.68,3.4,12.713,12.713,0,0,0,3.14,2.28,10.5,10.5,0,0,0,3.8,1.16c.78.05,1.35.02,2.06.01l2.4-.1c-1.3.05.57.07.5.1.6-.02,1.28.02,1.8-.05l-.34-1.8-.27-1.38-.2-.87c-.24-1.08-.45-1.8-.6-1.8-.36-2-.2-1.65-.15-1.93a15.317,15.317,0,0,1-.78-3.27l.18.7-.86-4.48-.07.92c-.37-2.4.17-.66-.3-2.93l-.2.06c-.57-3.3-.63-5.3-1.08-8.5l-2.6-13.6c1.78.6,3.66,1.24,5.7,2.1,1.1.16,3.4,1.1,4.23,1.2.1.13,4.75,1.6,2.02.9a2.228,2.228,0,0,1-.6-.22l-.36.01c2.62,1.12,4.94,1.5,7.6,2.37-.78-.28-1.84-.6-1.1-.46l2.5.8-.55-.06,1.85.6,2.12.66c-.3-.14-.64-.28-.74-.35l2.48.82c.28-.74.57-1.56.82-2.33.16-.47.3-1,.47-1.7.2-.95-.7,1.66-.14-.26.02-.06.05-.13.07-.2q.282.073.56.16c5.48,1.64,6.9,2.2,12.64,3.67,1.22.33,2.48.65,3.74.95l3.6.85c.1.07.2.13.3.2.13.08.27.16.4.25a25.824,25.824,0,0,0,4.86,2.15c.2.1.37.18.56.26.54.13,1.16.28,1.7.44l-.04.01c.8.14,1.72.34,2.13.35l-.04.02,1,.12-.17.01,1.55.07a6.775,6.775,0,0,0,2.76-.55c.54-.4.83-.7,1.22-1.03a2.708,2.708,0,0,0,.3-1.23,1.853,1.853,0,0,0,.05-.73.487.487,0,0,1,.12-.01,9.25,9.25,0,0,0,1.86-1.1v.04a4.431,4.431,0,0,0,.47-.9,1.207,1.207,0,0,0-.16-1.22,2.877,2.877,0,0,0-.13-.31,2.617,2.617,0,0,0-.24-.34.26.26,0,0,1,.04-.15.487.487,0,0,1,.1-.08,1.7,1.7,0,0,0,.6-.34,3.424,3.424,0,0,0,.43-.28,1.31,1.31,0,0,0,.4-.53.85.85,0,0,0,.1-.33,2.6,2.6,0,0,0,.03-.26,2.93,2.93,0,0,0-.11-1.01c-.24-.27-.36-.57-.67-.92Zm-179.06,6.1c.01-.02.01-.03.02-.05.07.01.14.03.22.04a1.358,1.358,0,0,0-.24.01ZM284,228.9l-.1.13c.8,3.47-.03,1.33.74,4.78l.28.58c.82,3.1.06,1.74,1.02,5.16-.27-1.37.15-.7.4,1l-.2-.4c.2.93.3,1.24.4,1.87-.17-.55-.23-.26.05,1.1l-.32-.9.7,2.57.16,1.2.04.25c-.08.01-.17,0-.25.01-.4,0-.75-.01-1.05-.01a7.422,7.422,0,0,1-1.02-.07s-.28,0-.7-.01c-.2,0-.46-.01-.74-.01a6.684,6.684,0,0,1-.74-.06,14.349,14.349,0,0,1-2.55-.64c.36.07-1.25-.8-.67-.64a7.881,7.881,0,0,1-2.13-1.4,10.575,10.575,0,0,1-1.04-1.1,10.322,10.322,0,0,1-.64-1.02l.15.18a17.225,17.225,0,0,1-2.17-5.76,49.759,49.759,0,0,1-.56-6.17c-.13.2-.22-2.15-.37-1.55-.52-4.6-.24-8.44-.94-10.07a33.867,33.867,0,0,1-.1-3.6l.07.5-.65-8a32.824,32.824,0,0,1-.6-4.28c.17.84.07-.23-.01-1.2.07.62.12.8.1-.48a5.241,5.241,0,0,1-.13-.72c.01-.01.01-.06.02-.04-.17-1.63-.18-1.34-.13-.58-.02-.04-.03.03-.05.27,0-1.7-.4-4.72-.23-4.94-.45-4.9-.94-8.4-1.38-12.46.05-.47.22.48.36,1.66l-.3-2.9a14.47,14.47,0,0,1,.33,2.54c-.08-3.47-.88-7.08-1.07-11.14l-.2-.83-.01-.24a7.375,7.375,0,0,1-.3-1.48c.06-.58.27.01.06-2-.04-1.6-.53-4.48-.83-6.54.1,1.12,0,.76-.1.3-.12-1-.07-1.6-.2-2.35l.1-.1c-.13-.12-.43-2.65-.54-2.98.05-.58.3,1.54.4,1.77l-.76-6c-.4-2.12-.1.4-.36-.6-.25-1.88-.64-3.7-.85-5.87l-.04.7c-.6-3.52-.94-5.62-1.18-8-.32-1.63-.67-3.06-1-4.33l-.84-3.32-1.3-4c-.6-1.66-.76-1.5-.62-.53.1.96.43,2.7.73,4.2.16.74.25,1.45.35,1.96l.75,4.45.5,3.3,1,6.2,1.03,6.6,1.1,8.1,2.26,25.03,1.44,16.38c.23,1.36.37,3.3.5,5.27h-.5c-.6,0-1.23,0-1.82-.01-1.18-.01-2.26-.01-2.97.02l-.12-.1-4.38.03h1.64c-.57.3-3.3-.2-6.5.01-2.97-.04-6.03.64-9.12.5h-.03c0-.04.01-.07.01-.1.5-4.93.9-9.82,1.1-14.48a7.286,7.286,0,0,0,.05-.89c0-.32,0-.58-.01-.58l.76-11.6.46-8.1.68-14.65c.17-4.36.23-7.38-.07-6.67s-.94,5.18-1.98,15.83l-.03-.3c-.47,6.33-.72,10.32-.75,14.7-.33.67-.34,5.2-.54,6.68v-.14c-.02,3.88-.7,7.94-.78,11.68a3.88,3.88,0,0,1-.03-1.1,55.98,55.98,0,0,1-.58,6.6c-.47,6.48-1.5,15.46-1.8,19.6v-.3c-.17,2.36-.37,3.04-.72,5.66-.05.14-.1.32-.1.3a41.8,41.8,0,0,1-.83,4.9l-.57,2.52-.54,1.92-.14.1-.35,1.2-.47,1.07a6.143,6.143,0,0,1-.62,1,4.627,4.627,0,0,1-.3.4q.343-.425.66-.87a2.317,2.317,0,0,1-.42.78,11.909,11.909,0,0,1-1.13,1.14,23.988,23.988,0,0,1-4.02,2.48c-1.56.65-3.16,1.32-4.85,1.88a22.761,22.761,0,0,1-5.26,1.08c-1.7.3,1.48-.38-1.06-.02-.1-.15,1.18-.22.5-.28a55.583,55.583,0,0,1-7.23.14l-.13-.13c-4.1.15-7.7-.3-10.43-.15-4.2.02-2.82-.42-7.2-.26l-1.7-.2c-1.88-.06-1.35.18-3.43.06.13-.1-2.63-.14-1.4-.2-2.36-.13-4.75-.12-7.32-.12-.65,0-1.3-.01-1.97-.01-.2-.01-.26,0-.3-.01a.363.363,0,0,1-.17-.07.8.8,0,0,1-.3-.33.62.62,0,0,1-.05-.42l.23-1.08.5-2.23c.04-1.37.68-4.44.68-5.45.12-.15,1-6.18.65-2.7a2.862,2.862,0,0,1-.15.78l.05.43c.8-3.46.9-6.38,1.47-9.83-.2,1.02-.4,2.4-.34,1.46l.52-3.2v.7l.8-4.78-.23.64a45.288,45.288,0,0,0,1-5.8c.1-1.2-.52,2.2-.17-.3l2.1-11.78c-.2.35-.03-.72.12-1.83l.14-.1c.5-4.27.52-1.5,1.06-5.74l-.05-.77c.37-3.84.58-2,.95-6.28-.18,1.22-.3,1.05-.22.08.1-.22.14-.35.03-.26a.06.06,0,0,1,.01-.04c2.1-4.2,4.7-7.07,5.25-8.74a27.427,27.427,0,0,1,2.33-2.8l-.3.42c1.24-1.56,2.06-2.56,2.85-3.4.77-.87,1.48-1.63,2.54-2.67a25.592,25.592,0,0,1,2.97-3.24c-.55.67.22-.1.97-.76-.46.44-.6.6.44-.22a5.69,5.69,0,0,1,.5-.54c.01,0,.06-.03.04,0,1.22-1.14.98-.97.4-.47.02-.04-.04-.01-.24.13,1.38-1.05,3.67-3.15,3.94-3.15l9.92-8.12c.43-.2-.3.45-1.25,1.2l2.35-1.83a13.817,13.817,0,0,1-2.03,1.68,44.928,44.928,0,0,0,4.07-3.14,57.578,57.578,0,0,0,4.66-5.22c0-.34-9.05,6.1-11.72,8l-.03.03c-4.44,3.36-9.05,7.14-13.06,10.87-1.77,1.9-5.18,5-7.05,7.5l-.87.84c-.66.84-1.37,1.87-2.1,2.67v-.07c-.88,1.33-1.97,2.76-2.35,3.45l.01-.07c-.35.54-.72,1.07-1.05,1.62l.13-.3c-1.4,2.4-2.8,4.87-4.02,7.05l.22-.1c-1.33,2.32-2.1,3.97-2.84,5.57l-2.48,5.3-.01-.07c-1.05,2.86-2.02,5.06-2.96,7.3-.47,1.12-.93,2.25-1.38,3.48l-.66,1.93-.55,1.85c.02-.1-.18.23-.2.17a1.029,1.029,0,0,1-.95.4l-1.83-.24c-1.12-.14-1.9-.2-1.95-.05-2.07-.34-1.67-.36-1.92-.52a16.984,16.984,0,0,1-3.43-.37l.75.07-4.63-.7.87.38c-2.44-.47-.57-.38-2.93-.7v.2q-2.178-.39-4.33-.91l-2-.48a4.51,4.51,0,0,1-.9-.25,1.369,1.369,0,0,1-.52-.43,1.026,1.026,0,0,1-.24-.6q-.021-.615-.01-1.23.01-1.286.08-2.57c.1-1.72.25-3.46.45-5.2q.634-5.221,1.78-10.36a131.029,131.029,0,0,1,6.03-19.37l.33-.48c.28-.16.93-3.42,1.3-3.8l.45-1.42c.2-.38.57-1.17.33-.47.53-1.27.5-1.3.83-2.25l.7-1.3a134.119,134.119,0,0,1,6.98-14.07q3.573-5.658,7.37-11.17c2.85-4.13,5.85-8.25,8.14-11.2a87.673,87.673,0,0,1,24.64-21.86,5.3,5.3,0,0,0,.65-.37,2.848,2.848,0,0,0,.4-.26,48.146,48.146,0,0,1,9.04-3.37l1.88-.45a22.8,22.8,0,0,1,12.4-.37c.2.08.4.15.6.24.06.02.12.04.2.06l.86.2.18.06.17.08c0-.01.03-.01.06,0,.15.05.3.1.44.16l-.1-.06a9.569,9.569,0,0,1,1.25.5c.43.34.1.25.95.82l-1.9-.25,4.48,2.4c.5.27,1,.58,1.5.88a11.821,11.821,0,0,1,2.1,2.86,5.25,5.25,0,0,1-.34-.8c.04-.01.17.2.3.44a12.133,12.133,0,0,1,.58,1.35,9.523,9.523,0,0,0,.42,1.2l-.08.1a19.531,19.531,0,0,1,1,3.42c0,.34-.1-.1-.23-.68a7.339,7.339,0,0,0-.4-1.37,19.132,19.132,0,0,1,.5,2.4,8.705,8.705,0,0,1,.18,1.1l.14,1.1q.164,1.225.23,2.46c.3,2.55.12-.48.34.74.1,1.13.14,2.26.2,3.43.02,1.17.04,2.38-.02,3.7l.15-.83a78.315,78.315,0,0,1-.36,9.76l-.2,14.6c.05,2.15.22,2,.42.85.42-2.3.94-8.6.94-8.6.56-6.3.78-11.1.76-16.23-.05-2.57-.1-5.2-.4-8.18-.05-.74-.17-1.5-.27-2.3-.1-.78-.23-1.6-.4-2.42a26.475,26.475,0,0,0-1.53-5.15,39.548,39.548,0,0,1,3.12,3.02,40.307,40.307,0,0,1,6.58,9.82c1.5,3.2,2.2,5.6,2.3,4.94a5.716,5.716,0,0,0-.12-1.08,19.657,19.657,0,0,0-.57-2.38,34.7,34.7,0,0,0-4.1-8.88l.18.17a32.75,32.75,0,0,0-5.5-6.35l2.36,1.58a2.67,2.67,0,0,1-.77-.42c.22.16.46.32.7.48l.7.55c.45.38.93.72,1.3,1.1a8.192,8.192,0,0,1,1.3,1.4,32.374,32.374,0,0,1,5.02,6.97l.97,1.88.76,1.8c.53,1.12.8,2.18,1.14,2.97l-.1-.2a34.529,34.529,0,0,1,1.3,4.52,1.961,1.961,0,0,1,.02.25c.7,2.03,1.43,6.07,1.9,7.74l-.08.13.94,4.15-.3-1.56c.4.47.5,3.2,1.33,6.17.57,2.83,1.82,5.6,2.28,8.58.43,1.37-.48-1.2.06.9-.14.1-.3-.96-.3-.4.5,2.04.53,3.4,1.15,5.93l-.1.13c.9,3.27,1.1,6.3,1.74,8.45.78,3.4.1,2.37,1.03,5.88l.1,1.42c.27,1.53.4,1.05.66,2.76-.12-.08.33,2.15.04,1.18.58,3.86,1.74,7.73,2.42,12.83.4,1.06.78,3.62,1.08,4.4-.06.15.95,5.1.22,2.28a2.25,2.25,0,0,1-.1-.65l-.18-.32c.32,2.92,1.1,5.2,1.62,8.06-.12-.85-.34-1.97-.12-1.24l.48,2.65-.2-.53.68,3.95.02-.57a30.016,30.016,0,0,0,.8,4.8c.28.97-.17-1.86.25.17l1.55,9.8c.1-.35.25.54.44,1.45Zm58-17.13c.4-1.04,1.15-.97,3.4-.18,1.12.28,2.3.65,2.63,1.23a.826.826,0,0,1,.02.72c-.3.83-1.18.88-3.4.18a4.228,4.228,0,0,1-2.6-1.38.746.746,0,0,1-.05-.57Zm1.06-1.92a.606.606,0,0,0,.24.15,3.3,3.3,0,0,0-.55.01q.118-.158.23-.32a.423.423,0,0,0,.07.05c.08.05.17.1.27.16-.23-.1-.33-.12-.26-.05Zm-2.05,5.2a.992.992,0,0,1,.5-.62,1.428,1.428,0,0,1,.6-.12,7.615,7.615,0,0,1,2.3.56c1.12.28,2.3.65,2.63,1.23a.826.826,0,0,1,.02.72c-.3.84-1.18.88-3.4.18a4.228,4.228,0,0,1-2.6-1.38.7.7,0,0,1-.04-.57Zm-1.2,3.1c.3-.73.92-.76,2.75-.2l.26.1c1.7.64,2.15.9,1.94,1.58a.7.7,0,0,1-.4.48c-.32.15-.98.22-2.35-.3-1.62-.6-2.34-1.16-2.2-1.68Z"/>
  </g>
</svg>
