<svg xmlns="http://www.w3.org/2000/svg" width="201.641" height="151.56" viewBox="0 0 201.641 151.56">
  <g id="_72" data-name="72" transform="translate(-135.68 -97.68)">
    <path id="Path_16649" data-name="Path 16649" d="M271.66,240.3l-.3-1.12A5.872,5.872,0,0,0,271.66,240.3ZM218.6,208.42l-.3.01Zm28.6,7.4-.1.08Zm15.23,29.08c.02-.01.03-.12.02-.45ZM146.9,231.23a.035.035,0,0,1,.01-.02l.03-.1-.04.13ZM181.54,127.3l.15-.14Zm153.1,97.97c1.8,0,3.5-1.2.5-2.1-3-.8-5.4-1.9-6.2-2.1a22.152,22.152,0,0,0-6.2-.8c-1.5.1-3.4.9-6.4-.8l-.68-.45.08-.15a1.9,1.9,0,0,0-.5-2.7l-3.2-2.4c1.6-3.32,2.6-6.7,2.3-9.7-.67-7.07-4.25-8.7-13.35-15.63l-3.27-2.55-2.5-2.02c-13.3-11.1-22.8-24.3-32.4-54.9s-24.3-33.7-33.9-30.1a34,34,0,0,0-3.22,1.44,14.311,14.311,0,0,0-6.87,2.82q-1.276.413-2.51.94c-11.3,4.7-29.1,19.2-42.2,30.5-13.1,11.2-29.6,27.9-35.4,49-.03.1-.05.22-.08.32l-.12-.02-.7,3.37q-.4,1.923-.67,3.87c-.1.7-.2,1.37-.24,1.96-.02.27-.03.54-.04.8-1.04,14.26,5.4,21.6,9.84,23l1.12.34-.72,5.06a2,2,0,0,0,1.54,2.45l-.54,5.55a23.1,23.1,0,0,0-1.8,13.9c0,.6.9,1.2,1.7,1.9a.664.664,0,0,0,.55.1c.02,0,.03.01.05.01a1.148,1.148,0,0,0,1-.26.663.663,0,0,1,.2.06c.4.1.2,1.2.6,1.4.6.3,1.7,1.1,2.1.6a.5.5,0,0,0,.07-.08,1.362,1.362,0,0,0,.6-.5.751.751,0,0,1,.92.03,1.411,1.411,0,0,0,.67.8.979.979,0,0,0,.55.44,2.1,2.1,0,0,0,1.9-.9c.6-2.1,1.6-5.3,1.7-6.3.2-1,.65,3.05,1.05,4.55.6,1.7,2.54,3.33,2.34.23s.55-6.32.35-7.12a23.194,23.194,0,0,0-1.55-6.26c-.6-1.3-1.9-2.9-1.2-6.3.02-.1.05-.18.07-.28a2.182,2.182,0,0,0,2.13-1.62l1.3-4.67a20.848,20.848,0,0,0,9.1-1.43c6.05-2.74,8.2-7.3,10.84-16.68,1-2.68,2.26-8.22,2.26-8.22l-.03-.01c1.87-6.7,5.43-12.24,11.76-18.38l-.83,4.4-5.5,28.4h58.43a110.4,110.4,0,0,0,20.27,18.4l.94.63a39.767,39.767,0,0,0,4.26,2.67l1,.5a46.011,46.011,0,0,0,5.88,2.7l1.23.52s.02-.02.06-.07c10.95,3.46,15.82-1.8,18.74-5.03l1.36-1.54,4.14,2.34a2.17,2.17,0,0,0,2.53-.23l6.37,2.83a20.605,20.605,0,0,0,12.3,5.47,5.27,5.27,0,0,0,3-.16c.5-.3.9-.47,1.1-1,.14-.4.08-1.04.48-1.44a3.353,3.353,0,0,0,1.75-.87c.63-.7-.15-2.04-.12-2.07.14-.12,1.1-.26,1.3-.7a2.327,2.327,0,0,0-.86-2.54l-3.95-2.77c-.88-.43,1.82-.63,3.42-.43Zm-18.74,7.2.08.08ZM263.68,129.2l.23.9A3.6,3.6,0,0,0,263.68,129.2Z" fill="#fff"/>
    <path id="Path_16650" data-name="Path 16650" d="M150.33,219.2h0Zm183.3,5.25h.01l.16-.05Z"/>
    <path id="Path_16651" data-name="Path 16651" d="M337.18,223.96a1.613,1.613,0,0,0-.44-.62,4.464,4.464,0,0,0-1.26-.7l-4.96-1.65-1.3-.45-1.34-.3-2.68-.42a11.945,11.945,0,0,0-2.74-.03,14.379,14.379,0,0,1-2.52.26,6.936,6.936,0,0,1-4-1.5,2.689,2.689,0,0,0,.2-.18,2.024,2.024,0,0,0,.33-2.02l.07.03a2.247,2.247,0,0,0-.55-.75c-.1-.1-.26-.2-.24-.2l-.2-.15a2.365,2.365,0,0,0-.85-.4c.1-.3-.57-.46-.68-.66l.03-.01c-.4-.1-.62-.44-.9-.7l.05-.14a21.255,21.255,0,0,0,1.48-3.86l.43-1.85.23-1.22s.06-.33.1-.86a18.564,18.564,0,0,0-.08-2,11.283,11.283,0,0,0-.87-3.47c.12.2.03-.2-.1-.6-.18-.48-.38-1-.13-.63a15.809,15.809,0,0,0-2.1-2.86c-.96-1.03-2-1.94-2.57-2.5l.24.18c-2.2-1.92-4.2-3.27-6.1-4.65l-5.63-4.35c.1.26-1.93-1.48-1.54-.93-4.18-3.16-6.8-6.6-8.48-7.57-.82-.86-1.27-1.4-1.62-1.83-.33-.45-.56-.8-.95-1.27l.4.4a67.971,67.971,0,0,1-5.5-7.1,28.369,28.369,0,0,1-2.8-3.96c.57.77-.05-.26-.6-1.2.37.6.52.77-.16-.52a8.174,8.174,0,0,1-.47-.67c0-.01-.02-.07,0-.05-.9-1.6-.78-1.3-.4-.55-.03-.03-.02.04.08.3-.4-.88-1.02-2.05-1.55-3.04a8.971,8.971,0,0,1-.86-1.98c-2.46-4.97-4.15-8.58-5.85-12.9-.1-.52.36.46.87,1.7l-1.2-3.06a17.945,17.945,0,0,1,1.12,2.67c-.58-1.87-1.38-3.72-2.1-5.7l-1.13-3.02q-.547-1.59-1-3.21l-.4-.87-.07-.27a9.085,9.085,0,0,1-.67-1.57c-.1-.65.27-.04-.48-2.2-.25-.87-.66-2.1-1.16-3.36l-1.62-3.64c.47,1.2.25.84,0,.34a17.128,17.128,0,0,0-1.05-2.48l.07-.13c-.17-.1-1.44-2.7-1.7-3-.2-.64.9,1.54,1.1,1.77a33.293,33.293,0,0,0-1.63-3.06l-.55-.94a22.989,22.989,0,0,0-1.26-2.03c-1.5-1.96.13.45-.66-.44a49.591,49.591,0,0,0-4.3-5.23l.47.65-2.03-1.9c-.64-.54-1.28-1-1.84-1.45a15.585,15.585,0,0,0-1.73-1.18,13.442,13.442,0,0,0-1.75-1.04,17.285,17.285,0,0,0-8.76-1.36l-1.52.23-1.24.34a10.231,10.231,0,0,0-1.78.65c-1.8.8-1.6.96-.55.68.52-.1,1.23-.3,2.03-.45a20.805,20.805,0,0,1,2.5-.3c.4-.02.8-.06,1.16-.06l.96.06.9.04a18.1,18.1,0,0,1,6.98,2.43c.5.3,1,.57,1.46.9l1.34,1.03.67.5.6.58,1.24,1.16a46.068,46.068,0,0,1,9,13.7l1.56,3.9c.5,1.2.8,2.34,1.16,3.4.7,2.1,1.28,4,1.86,5.92,1.17,3.82,2.46,7.68,4.9,13.68a118.467,118.467,0,0,0,8.3,16.92c1.62,2.38,4.26,6.76,6.6,9.28.24.37.48.75.74,1.1.82.85,1.7,1.9,2.48,2.8l-.08-.03c.63.6,1.27,1.3,1.84,1.9l1.42,1.37-.08-.03c.5.5,1.02,1,1.55,1.47l-.3-.2c1.12,1,2.28,2,3.42,2.96-.65.7-1.37,1.67-1.37,1.67-2.75,3.44-3.7,5.54-6.58,9.9-2.67,3.74-3.58,4.6-6.2,8.57-1.3,1.86-2.63,3.9-3.87,5.73-.42,1-1.65,2.4-2.2,3.53l-.37.33a4.954,4.954,0,0,1-.75,1.15l-.01-.04c-.3.58-.75,1.15-.9,1.43l-.01-.04-.43.65.04-.14a25.053,25.053,0,0,1-1.82,2.74l.17.01a18.768,18.768,0,0,0-1.46,2.1l-.6.92q-.2.278-.4.55c-.07.1-.15.2-.22.3a88.641,88.641,0,0,1-8.56-7.5l-.35-.54a7.78,7.78,0,0,0-1.56-1.43,9.912,9.912,0,0,1-1.65-1.62l-1.2-1.12c-.3-.36-.93-1.1-.33-.53-1.02-1.13-1.06-1.14-1.84-1.9l-.98-1.3a153.622,153.622,0,0,1-10.64-13.76c-2-3.22-4.93-7.84-7.6-12.7-2.7-4.84-5.07-9.93-6.7-13.73-.94-2.1-1.83-4.3-2.68-6.56v.08l-.65-1.86c0-.01-.01-.03-.01-.04-1.02-2.85-2.9-7.88-3.46-7.65s1.3,6.02,2.3,9.05c.08.18.16.37.24.53l-.14-.24c.96,2.03,1.05,2.7,2.07,5,.03.13.08.3.07.28,1.1,2.2,2.74,6.56,3.68,8.3l-.05.16c.67,1.48,1.42,2.9,2.14,4.37l-.78-1.64c.54.43,1.45,3.4,3.35,6.38a38.408,38.408,0,0,0,2.76,4.2c.98,1.38,2,2.74,2.86,4.2,1,1.3-.97-1.08.44.9-.1.15-.7-.9-.47-.3.67,1,1.2,1.82,1.76,2.7a28.781,28.781,0,0,0,2.08,3l-.03.17c1.22,1.5,2.26,3,3.26,4.3l1.4,1.9c.47.57.93,1.1,1.38,1.56.55.63.92,1.1,1.2,1.45-1.07-.02-2.12-.03-3.14.04a2.613,2.613,0,0,1,.92-.1,41.318,41.318,0,0,1-5.64-.07c-5.52.04-13.22-.03-16.76.23l.24-.05c-2,.18-2.6.03-4.86.12a1.706,1.706,0,0,1-.26-.04c-2.2.18-6.4.03-8.18.1l-.1-.1-4.37.03,1.63.02c-.57.3-3.3-.2-6.48.01a42.793,42.793,0,0,0-4.5.28l-2.3.18c-.38.02-.77.03-1.15.04s-.68,0-1-.02c-.7.07-.35.01-.1-.05.12-.03.2-.06.17-.08a.628.628,0,0,0-.18-.01c-.07-.03-.37.1-.26-.16.05-.05.07-.03.08.01.01.01,0,.06.02.06.04-.01.08-.01.12-.02.15-.02.24-.04.14-.1h-.12c-.01-.02.01-.07.01-.1l.04-.22.1-.43.3-1.22q.391-1.6.64-3.22l.14-.08c.44-3.45,1.4-6.4,1.63-8.7.58-3.53.82-2.3,1.3-6l.44-1.4c.33-1.56.02-1.16.43-2.88.08.13.5-2.18.4-1.14.93-3.9,1.3-8.03,2.55-13.16.01-1.16.62-3.75.62-4.62.1-.12,1-5.23.63-2.26a2.157,2.157,0,0,1-.15.66l.06.37c.78-2.92.87-5.4,1.45-8.3-.2.86-.4,2.02-.34,1.23l.52-2.72v.58l.8-4.04-.23.54a35.265,35.265,0,0,0,1-4.9c.08-1.03-.5,1.85-.17-.25l1-4.7.28-1.27.14-.62a2.557,2.557,0,0,0,.05-.27l.03-.17.05-.33.45-2.6c-.2.3-.04-.6.1-1.55l.14-.08c.52-3.58.5-1.25,1.12-4.8l.02.33-.05-.98c.52-3.2.68-1.62,1.27-5.17-.34,1.38-.46.56.1-1.1l-.03.45c.28-.92.34-1.24.56-1.85-.12.57.07.34.5-1l-.16.95c.23-.86.4-1.75.67-2.6.46-.93.92-2.18,1.4-3.25a19.614,19.614,0,0,1,1.23-2.3,3.205,3.205,0,0,1,.35-.6l.84-1.38.47-.8.5-.72a11.074,11.074,0,0,0,.66-1.07c-.2.4.04.1.3-.2.3-.28.6-.56.44-.27a13.014,13.014,0,0,1,1.8-2.1,7.524,7.524,0,0,1,.92-.8q-.43.395-.83.82c.35-.36.7-.68,1.05-.98a10.527,10.527,0,0,1,1.17-.76c-.07.04-.13.1-.2.15.52-.33,1.04-.6,1.55-.86.54-.4,1.1-.8,1.7-1.16a9.423,9.423,0,0,1,2.62-.7c.7-.4,1.33-.74,1.84-.98,1-.5,1.46-.8,1.1-.8a7.336,7.336,0,0,0-1.2.28c-.12.03-.25.07-.4.12.25-.1.5-.23.76-.33q-1.022.009-2.04.11a17.435,17.435,0,0,0-5.92,1.77l.04-.07a27.605,27.605,0,0,0-2.37,1.7.612.612,0,0,1-.12.05,8.715,8.715,0,0,0-2.62.9c-1.16.52-2.34,1.18-2.95,1.45l.1-.08c-2.97,1.8-6.3,3.42-8.95,5.44a2.063,2.063,0,0,1,.5-.46c-1.97,1.36-4.44,3.17-4.67,3.15a173.217,173.217,0,0,0-13.76,10.88l.17-.2c-1.52,1.47-2.1,1.75-3.85,3.32-.1.06-.25.16-.23.14-1.65,1.6-5.1,4.33-6.46,5.6l-.16-.01-3.44,3,1.3-1.1c-.25.62-2.75,2.12-5.05,4.53-2.33,2.07-4.1,4.82-6.45,7.02-.95,1.2.76-1.15-.73.6-.17-.05.66-.86.16-.5-1.48,1.7-2.65,2.6-4.4,4.8h-.17c-1.1,1.45-2.2,2.77-3.22,3.96a29,29,0,0,0-2.5,3.37c-2.07,3.14-1.8,1.83-3.7,5.28-.32.4-.65.8-.95,1.2-.87,1.44-.42,1.15-1.43,2.72-.07-.17-1.17,2.05-.76,1.03-.52.92-1,1.87-1.5,2.85l-1.32,3.1c-.85,2.16-1.73,4.48-2.64,7.13-.05.25-.12.57-.2.92h-.02c-.02,0-.06-.02-.07,0l-.02.08-.03.16-.07.3-.28,1.2-.14.54-.1.35a12.574,12.574,0,0,0-.55,3.1c.01-.3-.1.12-.13.1l-.14,1.1c.01-.15.03-.34.06-.6a2.867,2.867,0,0,1,.14-.7l-.06-.4a20.551,20.551,0,0,0-.68,4.46c-.03.73-.1,1.45-.1,2.2s0,1.5-.03,2.3c.06-.94.08-2.2.15-1.36a26.392,26.392,0,0,0,0,2.95l-.14-.6.1,2.2c.05.74.17,1.47.25,2.2l.04-.63.13,1.4.2,1.17c.07.38.14.77.25,1.2.13.44.32.92.55,1.5.44,1.03-.47-2.02.27.16a22.677,22.677,0,0,0,2.1,4.78,15.126,15.126,0,0,0,3.95,4.48c-.1-.17.05-.1.35.1s.78.44,1.26.7l.06.17,1.24.46c.06.02.1.03.15.05a2.654,2.654,0,0,1-.15.87c.15-.01.01.37.2.3.07.8-.57,1.36-.05,1.73-.02.36-.2.4-.25.58l-.02-.1-.07.8.01-.07a3.85,3.85,0,0,0-.08.76c.08.35.32.36.45.92-.16-.14-.08.1.04.28-.08-.12-.14-.15-.06.16a.48.48,0,0,1,.15.11c-.01.01,0,.02-.02.02.26.3.25.2.15.06.02,0,.02-.03.02-.1.1.43.77.72.72.88a.669.669,0,0,0,.17.07l-.14,1.3-.3,3.5-.23.52c-.1.2-.17.42-.25.63a28.236,28.236,0,0,0-1.3,5.2l-.16.6c-.05.55-.06,1.2-.15,1.75l-.02-.04c.01.83-.02,1.76.03,2.17l-.02-.03a8.256,8.256,0,0,0,.07,1l-.05-.17c.1.87.24,1.75.4,2.6l-.01-.12a1.839,1.839,0,0,0,.5,1.14,5.722,5.722,0,0,0,.62.6l-.03-.14.67.6a1.891,1.891,0,0,0,.5.35,1.166,1.166,0,0,0,.64.06c.13-.03.23-.06.32-.08a1.858,1.858,0,0,0,.58-.1c.05.03.06.1.08.15l.07.35a1.309,1.309,0,0,0,.26.56,1.578,1.578,0,0,0,.48.34,2.912,2.912,0,0,0,.35.2,6.79,6.79,0,0,0,.94.47h-.06a1.26,1.26,0,0,0,1.4-.36.943.943,0,0,1,.1-.1c.02-.01.04-.01.05-.03a1.071,1.071,0,0,0,.3-.3.923.923,0,0,1,.08-.05.215.215,0,0,1,.25.05c.04.07.06.16.1.22a1.709,1.709,0,0,0,.35.36c.1.12.16.24.3.4a1.382,1.382,0,0,0,.6.37,1.955,1.955,0,0,0,.36.05,2.44,2.44,0,0,0,.28-.01,2.678,2.678,0,0,0,.55-.11,2.623,2.623,0,0,0,1-.56,2.081,2.081,0,0,0,.21-.21,1.381,1.381,0,0,0,.23-.33,3.817,3.817,0,0,0,.17-.57l.24-1c-.1.4.1-.15.1-.1.4-1.42.82-2.95.65-3.02.02-.08.04-.14.06-.2l.17.93.06-.5c.18,1.27-.12.35.13,1.55l.1-.04a7.98,7.98,0,0,0,.27,1.25,5.971,5.971,0,0,0,.5,1.05,2.7,2.7,0,0,0,1,1,1.086,1.086,0,0,0,.83.1,1.144,1.144,0,0,0,.66-.62,2.483,2.483,0,0,0,.18-.78,3.511,3.511,0,0,0,.02-.63l-.03-1.04c-.01-.67.01-1.36.06-2.05s.1-1.38.18-2.08l.1-1.07a4.807,4.807,0,0,0-.03-1.24l.01.06a23.065,23.065,0,0,0-1.7-6.52,9.737,9.737,0,0,1-1.16-2.83,7.24,7.24,0,0,1,.1-2.86q.064-.128.14-.25c.02-.01.03-.05.04-.1a2.28,2.28,0,0,0,1.66-.55v.07a2.43,2.43,0,0,0,.5-.68,2.574,2.574,0,0,0,.23-.62,3,3,0,0,0,.08-.94c.3-.02.22-.7.37-.87l.02.03c-.07-.58.48-1.03.43-1.6.02.03.1.06.06.18.03-.17.06-.37.1-.53.07,0,.13.01.2.01.67-.01,1.36-.02,2-.06l1.76-.16a9.929,9.929,0,0,1,1.15-.12s.08-.01.2-.03c.14-.02.33-.05.57-.1.47-.14,1.12-.24,1.8-.5a12.348,12.348,0,0,0,1.9-.84,5.886,5.886,0,0,0,1.22-.78c-.8.64,1.58-.8,1-.27.25-.23.62-.55,1.06-.92.4-.42.9-.85,1.32-1.37l.65-.75.56-.76c.38-.47.64-.92.87-1.23l-.14.26a27.173,27.173,0,0,0,2.96-6.8l1.93-6.54c-.16.14.32-1.52.3-1.75q.24-1.05.42-1.98.179-.7.38-1.39c.3-1.06.64-2,.92-2.86.34-.84.64-1.6.86-2.25a6.744,6.744,0,0,0,.5-1.65,11.384,11.384,0,0,1,1.12-1.98c.3-.43.5-.76.84-1.2l-.26.46,1.42-2.2,1.2-1.58c.7-.97,1.46-1.75,2.47-2.9.33-.37.55-.66.77-.95l-.46,2.2-.25.53c-.26.2-.36,3.54-.65,3.98l-.2,1.5c-.12.4-.33,1.27-.23.53a23.229,23.229,0,0,0-.37,2.4l-.4,1.43c-1.14,5.34-1.77,9.94-2.9,15.57l-.43,2-.13.6-.07.3-.03.16c-.01.05-.04.12.04.1l1.3.02,3.92.04,7.33-.02,13.9-.22c10.3-.3,22.23.5,32.83.18.36.43.87,1,1.8,1.92.3.45.65.87.98,1.3,1.2,1.3,1.03.78,2.34,2.25-.18.01,1.72,1.8.82,1.07.78.8,1.58,1.6,2.42,2.38s1.76,1.53,2.7,2.33l1.42,1.2,1.52,1.22c1.04.83,2.08,1.76,3.25,2.66a21.191,21.191,0,0,1,2.06,1.33,12.075,12.075,0,0,0,2.66,1.8c-.3-.14.07.14.03.15.34.22.7.43,1.03.62l-.3-.1c.34.25.68.5,1,.72.35.2.7.4,1.04.6.7.4,1.37.74,2.06,1.1s1.42.62,2.13.94c.6.24,1.2.53,1.82.78-.82-.35-1.57-.77-.86-.5.53.27,1.08.48,1.64.7a.71.71,0,0,1,.14.1l.7.3-.23-.05c.4.16.8.3,1.2.45l.8.33a.435.435,0,0,0,.06-.07,1.21,1.21,0,0,0,.18.05c.77.2,1.5.47,2.3.6a5.356,5.356,0,0,1-.62-.25l2.73.58c.42.04.85.07,1.34.08l.8.01a8.8,8.8,0,0,0,.93-.12c1.2-.2-2.25.02.24-.23a13.864,13.864,0,0,0,5.47-1.4,17.62,17.62,0,0,0,5-3.76c-.35.16.38-.6,1.06-1.4l.17-.01q.214-.27.44-.53a2.669,2.669,0,0,1,.48.32c.04-.14.35.12.36-.1.77.23,1.05,1.03,1.6.67.33.15.3.32.45.44l-.1-.02.67.33a3.725,3.725,0,0,0,.76.33c.36.03.44-.2,1-.14-.18.1.05.1.27.06-.13.03-.18.08.12.1a.559.559,0,0,1,.15-.1c0,.01.02.01.01.02.35-.14.27-.15.1-.12,0-.02-.02-.03-.07-.05a1.3,1.3,0,0,0,.67-.2l2.36,1.07,3.6,1.54c.06.06.1.1.17.16a21.629,21.629,0,0,0,4.38,2.9l.5.34c.5.2,1.1.46,1.6.68l-.04.01c.77.26,1.63.55,2.02.65h-.04l.96.24-.17-.01c.7.16,1.4.25,2.1.36l1.97.23-.1-.1a5.063,5.063,0,0,0,1.9.01,2.939,2.939,0,0,0,.83-.33,5.814,5.814,0,0,0,.62-.4,2.086,2.086,0,0,0,.6-.73,3.091,3.091,0,0,0,.2-.8,1.277,1.277,0,0,1,.13-.44c.02-.03.05-.07.1-.06a.513.513,0,0,0,.1-.01l.24-.06-.03.03a3.256,3.256,0,0,0,1.45-.95,1.6,1.6,0,0,0,.38-.92,2.556,2.556,0,0,0-.06-.8l-.08-.3a.235.235,0,0,1-.02-.08.3.3,0,0,1,.1-.02l.1-.02.04-.01.17-.07a1.391,1.391,0,0,0,.74-.7,2.691,2.691,0,0,0-1-3.14c.36.3-.1-.16-.12-.18a11.092,11.092,0,0,0-2.58-1.56c-.82-.58-.7-.54-.74-.65a11.713,11.713,0,0,1,1.45-.05l-.45-.15c1.24.07.25.16,1.5.2l-.02-.12a4.6,4.6,0,0,0,1.27-.16,1.854,1.854,0,0,0,1.17-.77.832.832,0,0,0,.04-.63ZM144.84,186.1c1.86.2,3.26,1.06,4.03.64a6.62,6.62,0,0,1,1.38.45l-.2-.01c1.57.28,2.02.37,3.18.62a5.737,5.737,0,0,1,1.76.1c-.36.03.07.1.46.18-.25-.04-.34-.01.16.16a1.454,1.454,0,0,1,.3-.01c0,.01.02.02.01.03.65.1.55.04.25-.03.02-.01,0-.04-.1-.1.64.27,1.87.38,1.92.57,1.95.36,3.38.47,5,.74.16.13-.23.13-.7.07l1.15.2c-.04.13-.67-.06-1.03-.1,1.32.5,2.86.37,4.42.9l.35-.03.1.04c.01-.06.38-.06.62-.02.2.16-.07.26.72.42a13.535,13.535,0,0,0,2.63.42c-.44-.1-.28-.15-.08-.15a6.476,6.476,0,0,0,.92.25v.16c-.13-.18,1.07.06,1.23.03.2.16-.64-.03-.75.04l2.4.47c.87.06-.12-.18.3-.23a15.744,15.744,0,0,1,2.35.44l-.24-.2a15.826,15.826,0,0,1,3.2.7c1.9.2,3.2.28,4.06.3l-1.73,6.43.2-.17-1.82,6.17c-.32,1-.64,2-1.1,3.07a.707.707,0,0,1,.05-.16c-.04.12-.1.25-.13.37l-.28.62a.166.166,0,0,1-.14-.1h-.1l-.22-.04-.9-.16-1.8-.32a19.6,19.6,0,0,0-3-.35l.1-.03a13.984,13.984,0,0,1-1.9-.23c-.04-.03-.1-.05-.1-.06a29.532,29.532,0,0,1-3.18-.5l-.02-.12-1.7-.3.63.14c-.28.26-1.24-.43-2.5-.46-1.14-.25-2.44.2-3.6-.18-.6.04.54-.14-.33-.2,0-.16.4-.02.22-.2-.85-.08-1.34-.4-2.4-.5v-.13c-1.38-.02-2.5-.64-3.43-.6-1.4-.17-.86-.54-2.34-.6l-.53-.27c-.6-.15-.48.12-1.14-.1.06-.1-.84-.25-.43-.27-1.5-.46-3.18-.38-5.15-1.05-.48.12-1.48-.2-1.84-.12-.04-.1-2.04-.42-.86-.38.1,0,.28.04.26.07l.16-.1a18.017,18.017,0,0,0-3.27-.55c.33.1.78.18.46.2l-1.06-.22.24-.06-1.43-.34c.01.05-.02.08.05.14-.34-.14-.05-.23-.25-.32-.12-.12-.14.28-.2-.01-.04-1.04-.03-2.6-.05-3.93-.14.13-.15-.23-.2-.6l.12-.05c-.2-1.4.26-.52.13-1.9l.08.12-.25-.37c-.2-1.26.25-.66.05-2.03-.01.2-.05.26-.1.27q.04-.6.11-1.19c.05.08.14-.05.18-.5l.1.4-.06-1.07a22.149,22.149,0,0,1,.56-2.4,9.558,9.558,0,0,0,.3-2.15c.04.37.28-.57.36-.27,0-.18-.03-.17-.05-.2a.334.334,0,0,1-.03-.15v-.08c.02-.01.04.01.06.01.04.02.1.05.1.1l-.01.01.05.03c.03.01-.02.01.14.04l.67.14,1.27.2a17.145,17.145,0,0,1,2.5.52c-.06-.13.86.14.67-.1Zm11.3,55.55a.41.41,0,0,1,.11.01c.94.18.95,1,.73,2.98l-.07.56c-.18,1.14-.35,2.22-.84,2.57a.938.938,0,0,1-.77.1.892.892,0,0,1-.6-.34c-.24-.34-.46-1.14-.1-3a4.526,4.526,0,0,1,1.12-2.76.636.636,0,0,1,.4-.13Zm-2.7,2.94-.03.2c-.18,1.14-.35,2.22-.84,2.57a.978.978,0,0,1-.77.1.892.892,0,0,1-.6-.34c-.24-.34-.46-1.14-.1-3a4.526,4.526,0,0,1,1.12-2.76.567.567,0,0,1,.38-.13.41.41,0,0,1,.11.01c1,.2,1.06.88.7,3.33Zm-3.5-1.35c-.07,1.25-.28,2.03-.64,2.3a.677.677,0,0,1-.58.12.6.6,0,0,1-.44-.25c-.4-.55-.14-2-.05-2.53a3.376,3.376,0,0,1,.8-2.33.48.48,0,0,1,.3-.12.34.34,0,0,1,.1.01h.03a.721.721,0,0,1,.55.3C150.27,241.14,150.25,241.94,149.94,243.24Zm8.4-1.4a9.4,9.4,0,0,1-.2.95c.02-.17-.01-.18-.06-.04a2.428,2.428,0,0,0-.43-1.34c.34.1.6.18.8.23a3.109,3.109,0,0,1-.08.43l-.03-.23Zm1-.96-.06-.03a.581.581,0,0,0-.21-.06c-.01,0-.02.01-.03,0a.178.178,0,0,0-.1-.04.6.6,0,0,1,.34.06c.07.04.1.06.12.1.05.05.06.07.05.07l-.1-.1Zm2.14-17.4-.28,1.04a1.814,1.814,0,0,1-.78.97c-.33.2-.67.27-.65.53a.431.431,0,0,0,.2.26,2.091,2.091,0,0,1-.25-.01l-.37-.05a8.312,8.312,0,0,0-.22,2.8,10.552,10.552,0,0,0,1.2,3.7,9.74,9.74,0,0,1,.98,2.05c0,.07.6,2.6.17,1.16-.04-.12-.1-.34-.07-.33l-.12-.15c.2,1.34.56,2.44.74,3.74l.01.08a.932.932,0,0,1,.01.26,2.136,2.136,0,0,0,0-.26l-.01-.07c-.03-.3-.05-.5.02-.23l.03.22v.07a5.256,5.256,0,0,1-.04,1l-.04-.3c-.06.67-.17,1.37-.25,2.08l.1-.28a11.625,11.625,0,0,0-.26,2.6c.04.54.14-1,.12.12l-.05,1.18c0,.43.02.93-.01,1.2-.02.17-.03.2-.06.23s-.07.07-.1.05c-.1-.05-.07-.02-.37-.4.02.16-.24-.15-.44-.53l.05-.08a1.5,1.5,0,0,1-.18-.4,1.79,1.79,0,0,1-.07-.33,1.51,1.51,0,0,1-.02-.34,4.266,4.266,0,0,0-.17-1.24l.08.15-.24-.46a7.191,7.191,0,0,1-.23-1.28,2.322,2.322,0,0,0-.06-.45,3.689,3.689,0,0,0-.1-.38,2.935,2.935,0,0,0-.12-.32l-.05-.1a1.021,1.021,0,0,0-.1-.14,1.06,1.06,0,0,0-.12-.1.28.28,0,0,0-.1-.05.71.71,0,0,0-.22-.06.8.8,0,0,0-.27.03A17.934,17.934,0,0,1,154.6,239a7.656,7.656,0,0,1-2.7-3.7.5.5,0,0,0-.95.31,8.606,8.606,0,0,0,3.14,4.24,14.918,14.918,0,0,0,1.6.8,1.53,1.53,0,0,0-.56.27,2.56,2.56,0,0,0-.65.73,1.831,1.831,0,0,0-1.6-1.42h-.01a1.6,1.6,0,0,0-1.25.3,1.947,1.947,0,0,0-.5.53,2.1,2.1,0,0,0-.31-.9,1.707,1.707,0,0,0-1.23-.73,1.45,1.45,0,0,0-1.2.3,4.1,4.1,0,0,0-1.17,3,9,9,0,0,0-.17,1.62c-.05-.04-.07-.04-.06.02a.67.67,0,0,1-.16-.26l-.01-.1c-.44-2.05-.18-3.75-.46-4.53a8.635,8.635,0,0,1,.22-1.83v.26a20.079,20.079,0,0,1,.74-4.05,8.9,8.9,0,0,1,.55-2.16c-.1.43.08-.1.28-.56-.1.3-.13.4.16-.2.02-.1.07-.23.1-.35.01,0,.02-.02.02-.01.04-.1.1-.18.12-.25l.02-.43v-.1a2.13,2.13,0,0,0-.05.33c-.01-.03-.02.01-.05.17l-.02.02.01-.02.06-.43c.02-.13.03-.26.05-.4l.08-.8a3.392,3.392,0,0,1,.16-.98l.18-2.3h.03c.34-.01.67-.03,1.02-.02.07.1-.1.16-.3.17l.5.03c-.02.13-.3.04-.44.04.56.3,1.22-.05,1.88.24l.15-.1.04.02c0-.06.17-.1.27-.1.08.13-.04.27.3.3.25.15.76.05,1.12.04-.2-.05-.12-.1-.03-.13.17.02.25.15.4.12v.16c-.05-.16.46-.1.53-.15.08.13-.27.06-.33.14l1.02.12c.38-.07-.05-.16.14-.27a2.492,2.492,0,0,1,1,.1l-.1-.15a2.482,2.482,0,0,1,1.35.24c4.62-.5,1.15-1.4,1.15-1.4-1.72-.55-2.7-.27-4.8-.46a33.5,33.5,0,0,0-4.22-.82l-.66-.1a.84.84,0,0,1-.28-.06.82.82,0,0,1-.39-.32c-.2-.06-.17-.33-.15-.56l.02-.1a1.4,1.4,0,0,0-.02-.36l.15-.18a.793.793,0,0,1,.04-.55l.03.02c-.05-.27.04-.55.01-.7l.03.02.03-.3.04.06a4.358,4.358,0,0,1,.13-1.32l-.15.01a1.979,1.979,0,0,0,.09-.37c.35.1.86.25,1.68.44h.7c3.42.55,1.75.73,5.6,1.1-1.5-.26-.66-.37,1.18-.04l-.5.05c1.03.13,1.38.14,2.06.23-.62-.01-.35.14,1.18.3l-1.04.03c.86.05,1.72.04,2.57.03a4.473,4.473,0,0,0-.14.8.278.278,0,0,0,0,.22l-.4,1.56Zm12.53-6.83a17.627,17.627,0,0,1-3.3,1.48,27.232,27.232,0,0,1-4.1.86c.77-.12-.34-.04-.28-.1-2.88.26-6.02-.1-6.1.18-2.14-.24-1.73-.32-2-.45a14.306,14.306,0,0,1-3.52-.43l.77.1c-1.58-.3-3.16-.64-4.73-1.03l.87.46c-2.48-.7-.56-.43-2.95-1.03l-.02.2a16.045,16.045,0,0,1-2.25-.8c-.16-.08-.3-.14-.46-.22l-.42-.28a5.962,5.962,0,0,1-.8-.6,15.019,15.019,0,0,1-2.78-3.22,21.179,21.179,0,0,1-2.43-4.56c-.27-.84-.58-1.66-.8-2.52-.08-.38-.17-.75-.26-1.12l3.58.6c2.74.46,5.42.95,7.88,1.6l.2.2c.05.23,1.43-.04,1.58.2h.6c.16.07.5.18.2.17a4.571,4.571,0,0,0,.95.1l.55.24c2.1.52,3.93.6,6.14,1.07a95.062,95.062,0,0,0,10.6,1.85,49.38,49.38,0,0,1,6.42,1.3l1.64.4c.02.01.05.01.07.02a11.664,11.664,0,0,1-4.84,5.3Zm19.6-39.13-1.9,2.22c-.58.76-1.1,1.5-1.57,2.18-.28.3-.54.65-.8.98l-.92,1.53c-.3.54-.6,1.07-.9,1.55v-.08c-.4.74-.74,1.58-1.08,2.3a9.658,9.658,0,0,0-.7,1.76v-.08c-.23.64-.5,1.28-.7,1.93l.05-.35-.24.9c-.82-.28-1.76-.52-1.76-.52-4.06-1.16-6.28-1.2-11.2-2.12-4.3-.97-5.4-1.47-9.9-2.3-2.13-.47-4.42-.88-6.5-1.28-1.03,0-2.74-.57-3.95-.64l-.43-.2a4.443,4.443,0,0,1-1.3-.23l.03-.03c-.62-.04-1.3-.23-1.6-.25l.03-.03-.74-.14h.14a21.85,21.85,0,0,1-3.1-.59l.05.16a14.753,14.753,0,0,0-2.4-.5,8.113,8.113,0,0,1-1.03-.2c-.18-.04-.36-.1-.57-.13l-.7-.2.05-.03-.2-.03a57.533,57.533,0,0,1,4.7-11.66l.4-.45a6.942,6.942,0,0,0,.86-1.8,9.426,9.426,0,0,1,1.03-1.92l.7-1.4c.24-.36.8-1.1.4-.43a23.162,23.162,0,0,0,1.27-2.15c.32-.4.6-.82.95-1.2a117.2,117.2,0,0,1,10.12-12.87c2.5-2.56,6.12-6.22,9.98-9.76s7.88-7.06,10.8-9.63c4.1-3.64,8.77-7.3,13.58-10.8s9.72-6.9,14.38-9.94a6.763,6.763,0,0,0,.66-.42,3.045,3.045,0,0,0,.4-.3c1.52-.9,3.07-1.74,4.65-2.5l-.5.56a26.59,26.59,0,0,0-2.22,3.14c-.33.58-.72,1.16-1.03,1.82s-.6,1.34-.92,2.08c.3-.73-.22.27-.22.2-.6,1.34-1.1,2.76-1.52,3.84a4.707,4.707,0,0,0-.4,1.94c-.67,2-.63,1.6-.82,1.84a22.4,22.4,0,0,1-.77,3.4l.15-.74c-.4,1.52-.8,3.05-1.12,4.58l.43-.85c-.6,2.42-.43.55-.87,2.9l.2.01-2,8.56-6.33,35.15-3.1,3.24Zm77.87,48.83a10.148,10.148,0,0,0-1.9-1.22c.36.12-.42-.5-.1-.45a3.841,3.841,0,0,1-.46-.23,2.279,2.279,0,0,1-.3-.17c-.1-.06-.23-.15-.2-.13-.08-.04-.2-.1-.1-.16.01,0,0,.01.02.01a.874.874,0,0,1,.1-.08l.03-.03.1-.14c.24-.4.48-.76.72-1.13a18.441,18.441,0,0,1,1.5-2.18c-.17-.01.46-.78.17-.7.95-1.7,2.32-2.7,2.25-3.6a5.878,5.878,0,0,1,1-1.15l-.1.2c.9-1.4,1.17-1.8,1.88-2.8a5.655,5.655,0,0,1,.82-1.64c-.12.35.12-.03.36-.37-.14.23-.15.32.22-.1a1.63,1.63,0,0,1,.12-.29c.01,0,.03-.01.03,0,.36-.6.26-.5.07-.25,0-.02-.04-.01-.12.05.52-.5,1.12-1.64,1.32-1.6,1.14-1.73,1.82-3.05,2.74-4.5.2-.1.03.27-.23.7l.66-1.02c.1.08-.33.62-.53.95,1-1.07,1.52-2.6,2.65-3.88l.1-.35.07-.07c-.05-.03.1-.4.23-.6.23-.13.2.17.7-.53a16.193,16.193,0,0,0,1.47-2.35c-.28.38-.25.2-.17.02.24-.35.47-.48.6-.78l.15.06c-.22.05.5-1,.53-1.16.23-.13-.3.6-.28.73l1.42-2.1c.4-.8-.22.05-.08-.38a16.607,16.607,0,0,1,1.38-2.08l-.28.16a14.6,14.6,0,0,1,1.97-2.77c1.04-1.9,1.68-3.16,2.03-3.97l2.8,2.35-.1-.26c2.57,2.17,4.33,3.42,6.1,4.7.14.13.33.28.53.43l.38.27c.1.06.2.13.3.2l.1.06c.1.08.22.16.33.25a.035.035,0,0,0,.02.01l-.05-.01c.08.04.15.1.22.14q1.337,1.005,2.62,2.08l-.08-.02q.633.442,1.24.92c.04.05.04.1-.02.1.08.05-.04.12-.06.2l-.33.5-1.06,1.6a20.819,20.819,0,0,0-1.6,2.7l.02-.1a11.942,11.942,0,0,1-1.02,1.7c-.05.03-.1.08-.1.06-.36.84-1.45,2.18-1.8,2.83l-.12-.02-1,1.5.4-.54c.12.36-.92,1-1.5,2.2-.72.98-.86,2.4-1.7,3.36-.22.58.1-.57-.3.24-.15-.07.15-.4-.08-.3-.44.77-.95,1.1-1.47,2.07l-.13-.03c-.6,1.3-1.64,2.12-2,3.03-.75,1.27-.84.6-1.53,2l-.48.4c-.4.52-.1.5-.58,1.04-.06-.1-.6.7-.44.3-1.08,1.24-1.74,2.85-3.23,4.43-.1.5-.84,1.3-.93,1.68-.1,0-1.3,1.74-.73.65.05-.1.16-.24.18-.2l-.01-.2a23.038,23.038,0,0,0-1.98,2.82c.25-.26.53-.65.4-.35l-.7.9.06-.25-1.06,1.3.24-.1c-.28.3-.5.48-.7.68a3.486,3.486,0,0,0-.31.34c-.02.03-.05.07-.07.1v.1c-.02.2.25-.03.1.2-.02.01-.03.02-.05.03-.08-.03-.16-.05-.24-.08-.02-.01-.04-.03-.06-.04a1.59,1.59,0,0,0-.3-.16l-.42-.2-1.7-.84c.06.18-.28.03-.64-.1l.01-.13c-1.42-.46-.38-.47-1.77-.97l.15-.02-.46.07c-1.3-.36-.53-.54-2-.9.2.1.26.16.24.2l-1.08-.62a1.34,1.34,0,0,0-.43-.3l.4.06c-.34-.1-.7-.24-1.04-.37-.6-.56-1.8-1.18-2-1.52Zm1.4,3.4a6.928,6.928,0,0,1-.59-.38,4.667,4.667,0,0,0,.88.4c.76.45,1.1.67-.3-.01Zm27.55-.93a19.169,19.169,0,0,1-3.67,2.74,13.192,13.192,0,0,1-5,1.82l-1.36.12a12.522,12.522,0,0,1-1.37-.01,18.759,18.759,0,0,1-2.77-.3q-.74-.138-1.47-.32l.2-.28,1.15-1.57,2.23-3.16c1.47-2.1,2.92-4.13,4.4-5.95l.25-.1c.23.04.58-1.37.86-1.42l.27-.56c.13-.12.37-.4.24-.1a5.254,5.254,0,0,0,.5-.86l.45-.43c1.34-1.8,2.2-3.5,3.57-5.43a99.534,99.534,0,0,0,6.2-9.34,55.6,55.6,0,0,1,3.93-5.6l.53-.7.45-.6a9.949,9.949,0,0,1,2.48,3.74,16.528,16.528,0,0,1,.74,3.74,17.811,17.811,0,0,1-.33,4.34c.13-.8-.14.32-.17.25-.76,2.93-2.35,5.9-2.12,6.06-1.08,2-1,1.57-1.22,1.78a14.123,14.123,0,0,1-1.86,3.26l.42-.7c-.93,1.43-1.93,2.82-2.96,4.2l.8-.66c-1.72,2.12-.64.38-2.22,2.45l.17.1a39.81,39.81,0,0,1-3.35,3.5Zm35.37-4.36-.06-.06a1.843,1.843,0,0,1-.36.13,1.173,1.173,0,0,1-.3.05.64.64,0,0,1-.3-.03l-.1-.03c-.06-.01.02-.01-.1-.03a5.267,5.267,0,0,0-.95-.05l-.34.1a8.506,8.506,0,0,1-1.35.06,2.574,2.574,0,0,0-.5.04,2.1,2.1,0,0,0-.52.16.9.9,0,0,0-.32.24.946.946,0,0,0-.14.24.693.693,0,0,0-.02.38.68.68,0,0,0,.12.26c.04.06.07.08.1.12.32.23.24.12.38.22a.864.864,0,0,1-.1-.07c-.04-.02.01,0-.06-.04-.04-.03-.1-.07-.14-.1a.871.871,0,0,1-.13-.15.783.783,0,0,1-.1-.23.813.813,0,0,0,.17.24.68.68,0,0,0,.26.16.287.287,0,0,1,.14.07q.236.146.46.31l-.22-.07c.4.27.56.34.8.53-.26-.13-.18,0,.4.4l-.44-.2,1.18.67c.4.33.96.72,1.45,1.06a1.677,1.677,0,0,1,.62.8,1.782,1.782,0,0,1,.12.35,1.238,1.238,0,0,1-.02.64c-.03.06-.01.06-.18.15-.02.01-.1.04-.17.08s-.14.06-.2.08l-.2.08c.1-.08-.2,0-.4.15a.509.509,0,0,0-.15.14l-.03.04-.01.01.1.05-.01.02-.02.05c-.02.06-.04.07-.04-.04-.01.1-.03.22-.04.35a1.224,1.224,0,0,0,.18.6l.08.23a.835.835,0,0,1,.04.15.926.926,0,0,1,.03.27c-.01.07-.01.14-.04.17,0,.02-.03.03-.03.05l-.1.1a1.309,1.309,0,0,1-.42.24l.08-.05a3.816,3.816,0,0,1-.7.24,1.333,1.333,0,0,0-1.08,1.04,6.4,6.4,0,0,0-.17.88.518.518,0,0,1-.16.32,2.828,2.828,0,0,1-.55.37,1.42,1.42,0,0,1-.53.2,3.732,3.732,0,0,1-1.44-.04c.1.1-1.13-.08-.83.06-2.34-.1-4.07-1.02-4.96-.97a8.151,8.151,0,0,1-1.62-.78l.24.1a17.169,17.169,0,0,1-3.5-1.96,7.891,7.891,0,0,1-1.8-1.22c.16.1.17.1.1.02-.1-.1-.27-.26-.45-.43l-.18-.08q.093.039.19.07c.15.14.2.17.02-.03-.1-.05-.22-.1-.4-.2-.1-.02-.23-.06-.36-.1,0-.01-.03-.02-.01-.02-.78-.3-.65-.24-.3-.07-.02,0,0,.03.1.1-.77-.42-2.23-.97-2.28-1.12l-2.4-1.02a2.46,2.46,0,0,0,.19-.45,8.406,8.406,0,0,1,.36-.95c.12-.02.1.16.04.35l.2-.44c.1.07-.07.28-.12.43.48-.4.4-1.15.92-1.65l-.02-.18.04-.03c-.05-.03-.04-.2-.01-.3.15-.03.23.14.4-.16.23-.18.33-.7.45-1.03-.1.16-.14.07-.13-.02.08-.15.23-.18.25-.32l.15.06c-.16-.01.08-.46.05-.55.15-.03-.04.28.01.36l.5-.9c.08-.37-.16-.02-.2-.23a2.749,2.749,0,0,1,.46-.9l-.18.03a2.5,2.5,0,0,1,.72-1.17c1.23-4.47-.9-1.6-.9-1.6-1.14,1.4-1.24,2.38-2.2,4.27a30.642,30.642,0,0,0-2.3,3.6l-.34.6a1.034,1.034,0,0,1-.16.23.865.865,0,0,1-.5.26.372.372,0,0,1-.38.06,1.668,1.668,0,0,1-.2-.08,2.012,2.012,0,0,0-.37-.12l-.1-.2a.843.843,0,0,1-.5-.24l.03-.02a5.9,5.9,0,0,1-.63-.26l.03-.03-.28-.14.07-.02a4.431,4.431,0,0,1-1.19-.6l-.04.14a.333.333,0,0,0-.1-.06,9.261,9.261,0,0,0,1.78-2.1l.3-.7c1.96-3.1,1.43-1.42,3.4-5.02-.85,1.37-.62.5.45-1.16l-.15.5c.53-.97.68-1.3,1.06-1.93-.25.6-.01.4.7-1.02l-.35,1,.42-.97a.282.282,0,0,0,.08.01l1.3,1s.1.07.26.2a3.1,3.1,0,0,0,.3.2c.06.04.1.08.18.13a2.024,2.024,0,0,0,.25.17,1.045,1.045,0,0,1,.5.9c.04.4-.05.8.2.85a.6.6,0,0,0,.34-.1c-.04.08-.07.16-.12.24l-.4.7a9.162,9.162,0,0,0,5.46,1.6c.63-.17,1.9-.33,2.28-.4.06-.01,2.55.12,1.1.14-.12,0-.34-.01-.32-.03l-.17.07a40.686,40.686,0,0,1,4.05.5c-.42-.12-1-.22-.6-.2q.668.141,1.33.31l-.3-.01.5.13a3.731,3.731,0,0,1,.44.14l.94.37-.24-.17a11.649,11.649,0,0,0,2.34.93c.5.1-.88-.42.15-.08.63.25,1.44.54,2.3.8a6.467,6.467,0,0,1,1.14.44c.1.06.14.12.1.2.1-.01.08.1-.06.16Z"/>
    <path id="Path_16652" data-name="Path 16652" d="M216.5,107.22l.12-.26-.87,1.32Zm90.14,117.34-.01.01-.14.32Z"/>
  </g>
</svg>
