<svg xmlns="http://www.w3.org/2000/svg" width="174.471" height="158.989" viewBox="0 0 174.471 158.989">
  <g id="_73" data-name="73" transform="translate(-172.869 -97.374)">
    <path id="Path_16653" data-name="Path 16653" d="M346.75,218.12c0-.9-2.2-2-4.7-2.9-2.1-.8-6.4-3.9-7.3-4.4-.9-.4,1.8-.6,3.4-.6,1.8-.1,3.5-1.3.4-2.1l-6.2-1.9a23.454,23.454,0,0,0-6.2-.7c-1.5.1-3.9,1.3-6.9-.4-5.3-2.6-17.8-12.7-25.6-18.8-5.6-4.5-13.6-10.2-15.5-13.3-1.45-3.4-3.4-8.8-5.43-14.77l4.23-1.93a1.667,1.667,0,0,0,.9-2.1c-1.2-3.6-4.4-12.9-7.7-21.1-3.84-9.5-13.85-25.07-25.2-29.42a25.805,25.805,0,0,0-9.3-3.35c-12.5-6.05-26.86,2.85-37.1,12.46-8.6,8.5-20.5,21.6-20.5,21.6l9.77,9-3.27,3.8a42.2,42.2,0,0,0-9.1,13.7c-2.1,5.2-2.1,13.6-.7,27.8,1.14,12.07,3.3,24.5,4.94,32.93a1.248,1.248,0,0,0-.94,1.17l.8,5.3a1.268,1.268,0,0,0,1.2,1l.45-.05.65,2.95a22.429,22.429,0,0,0,2,13.7c3.4,7,3.7,8.2,4.5,9,1.3,1.2,2-.5,2-.5s1,1.9,2.4,1.8c1.2-.1,1.2-1.7,1.2-1.7a1.515,1.515,0,0,0,1.9.5c.7-.5.57-3.26.35-6.24l-.65-7.86c-.2-1,1.4,1.2,2.3,2.6,1.1,1.5,3,2.2,2-.8s-1.4-5.5-1.7-6.3a22.047,22.047,0,0,0-2.8-5.6,23.148,23.148,0,0,1-2.45-2.97,1.226,1.226,0,0,0,.85-1.13l-.4-5.4a1.364,1.364,0,0,0-1.3-1.1l-.25.03c.13-7.4,1.43-19.28,2.15-27.13.7-7.1,1.2-16.9,2.8-20.3,1.4-2,3.3-4.8,5.6-7.8l.48-.6-8.38,43.9h79.3l-.93-11.4q3.03,1.65,6.63,3.5a384.858,384.858,0,0,0,40.3,17.4,22.276,22.276,0,0,0,12.6,5.7c7.7.8,8.9,1.3,10,1.1,1.7-.5.7-2,.7-2s2.2.2,2.9-1.1c.6-1.1-.7-1.9-.7-1.9s1.4-.08,1.5-1.28Z" fill="#fff"/>
    <path id="Path_16654" data-name="Path 16654" d="M277.26,157h-.02Zm-.02.02h0a.035.035,0,0,0-.02.01ZM248.86,104.2h.01l.22.02Z"/>
    <path id="Path_16655" data-name="Path 16655" d="M347.3,217.83a1.8,1.8,0,0,0-.42-.75,6.684,6.684,0,0,0-1.5-1.1,14.987,14.987,0,0,0-1.57-.74l-1.6-.62a13.525,13.525,0,0,1-1.44-.7l-2.86-1.74-1.33-.87-.28-.18-.22-.14a.051.051,0,0,1-.01-.1.928.928,0,0,1,.13-.04c.1-.02.2-.03.3-.04l.16-.01.44-.03.92-.03a4.578,4.578,0,0,0,1.05-.14,4.163,4.163,0,0,0,.5-.16,4.049,4.049,0,0,0,.64-.35,1.091,1.091,0,0,0,.52-1.2,1.823,1.823,0,0,0-1.02-.96,13.782,13.782,0,0,0-1.87-.57l-1.77-.53-3.6-1.12c-.03-.01-.01,0-.02,0l-3.72-.64a11.291,11.291,0,0,0-3.8.12,8.7,8.7,0,0,1-3.38.2,6.769,6.769,0,0,1-1.54-.5l-1.5-.82-.45-.37c-.16-.2-3.17-1.78-3.52-2.18l-1.3-.84c-.34-.26-1.07-.82-.43-.4l-2.05-1.42-1.2-.98-13-10-4.95-4-6-4.66-5.77-4.98a10.993,10.993,0,0,1-1.1-1.32l-.12-.16a.44.44,0,0,1-.06-.12l-.17-.4-.33-.78-1.17-2.9c-1.3-3.33-2.72-7.73-3.15-6.88a42.555,42.555,0,0,0,1.5,5.04l.07.26,1.62,4.1.44,1.1.2.53a2.811,2.811,0,0,0,.25.55,9.43,9.43,0,0,0,1.16,1.44l.03.13a39.411,39.411,0,0,0,3.37,3.1l-1.28-1.13c.56.26,2.53,2.35,5.2,4.28l7.6,5.58c1.25.87-1.14-.72.7.63,0,.12-.87-.6-.46-.2l5.03,4,.04.13,7.28,5.6c3,2.2,1.84,1.7,5.06,3.86l1.17.96c1.35.97,1.04.58,2.54,1.66-.13-.01,1.94,1.3,1,.77a22.188,22.188,0,0,0,2.77,1.6,7.092,7.092,0,0,0,3.44.88,23.09,23.09,0,0,0,3.57-.5,13.64,13.64,0,0,1,3.7.27,17.635,17.635,0,0,1,2.44.4.218.218,0,0,1,.06.01c.8.16,1.7.5,2.1.58.06.05,1.37.5,2.3.8s1.5.47-.03.08a3.5,3.5,0,0,1-.67-.22l-.38-.04,2.16.7,1,.27.4.14c.02.01.04.01.06.02.05.02.08.1.04.13s-.03.06-.4.18a3.142,3.142,0,0,1-.9.15l-1.16.04h1.32c.26-.02.34-.01.01.04q-.72,0-1.44.04a8.2,8.2,0,0,0-2.15.32,2.958,2.958,0,0,1,.78-.26,2.407,2.407,0,0,0-1.1.35,1.1,1.1,0,0,0-.26.27.435.435,0,0,0-.07.2v.03a6.857,6.857,0,0,1-3.98,2.47,5.393,5.393,0,0,1-4.4-1.3c-.2-.3-.5-.2-.7,0-.3.2-.2.5,0,.7a6.759,6.759,0,0,0,5.4,1.6,7.828,7.828,0,0,0,4.38-2.56l.03.03.5.32,1.4.93-.45-.4a27.8,27.8,0,0,0,4.42,2.8c1,.47-1.73-1.06.27,0a13.91,13.91,0,0,0,1.7.77q.919.373,1.81.81a6.578,6.578,0,0,1,1.63,1.07c.2.25.17.2.14.34a.61.61,0,0,1-.13.22.532.532,0,0,1-.13.1l-.2.1-.28.08-.12.32L336,215.63l.4-1.54c.01-.3-.08-.6-.38-.6a.534.534,0,0,0-.6.38,30.119,30.119,0,0,1-1.02,3.37,12.732,12.732,0,0,1-1.2,2.66c-.1.3-.32.6-.43,1a.468.468,0,1,0,.88.32c.2-.4.44-.53.56-.93l.3-.64,8.04,2.86-.2.3a1.528,1.528,0,0,1,.12.44.141.141,0,0,1-.03.1.508.508,0,0,1-.13.12.733.733,0,0,1-.2.1c-.06.02-.03.02-.07.02a.816.816,0,0,1-.18.02c.01,0,.02-.01.03-.01a3.256,3.256,0,0,1-.6.1c-3.3-.27-1.77-.42-5.52-.68,1.48.17.68.24-1.14,0l.47-.02-2.02-.2c.6.02.32-.06-1.15-.22l1,.02-2.74-.26a20.635,20.635,0,0,1-5.9-2.27l-1.76-1.1-1.4-1-.6-.48-.26-.2-.3-.28-.4-.13c.6.15-1.56-.67-.88-.5-1.16-.34-4.53-1.55-5.83-2.15l.26.1c-4.9-2-8.45-3.23-12.78-5.18.16.17-2.12-.87-1.6-.52-4.56-1.85-8.1-3.83-9.84-4.28-2.03-.93-2.36-1.2-3.4-1.72l.5.22c-3.78-1.8-4.85-2.36-7.62-3.78a42.728,42.728,0,0,1-4.12-2c.6.27.23.06-.36-.26a27.038,27.038,0,0,1-.28-3.1l.04.06c-.22-1.55-.3-3.32-.42-4.1l.04.06-.18-1.9.08.32q-.466-3.986-.74-7.99l-.13.22c-.3-5.3-.77-7.2-1-11.98l.04.06c-.5-3.3-.64-5.87-.82-8.55.55-.27,1-.42,1.84-.88.08-.01.17-.04.16-.03,1.14-.72,3.55-1.65,4.5-2.17l.1.07a2.428,2.428,0,0,0,1.26-3.15,2.747,2.747,0,0,1,.15.64,2.324,2.324,0,0,1-.03.7,3.57,3.57,0,0,1-.08-.68,3.763,3.763,0,0,0-.1-.53c-.03-.14-.07-.3-.1-.47a11.925,11.925,0,0,0-.8-2.45c-.55-1.73-1.8-3.27-2.3-5.1-.44-.8.48.67-.07-.56.14-.1.3.56.3.2-.52-1.22-.58-2.1-1.24-3.58l.1-.1c-.94-1.9-1.24-3.8-1.95-5.05-.9-2-.18-1.5-1.25-3.54l-.18-.9c-.36-.93-.46-.58-.83-1.6.13.01-.5-1.3-.14-.75-.92-2.32-2.44-4.4-3.9-7.32-.54-.5-1.33-1.94-1.75-2.3.04-.13-1.85-2.7-.64-1.3.1.12.26.36.22.36l.23.1a27.354,27.354,0,0,0-3.17-4.16c.3.45.77,1.02.4.7l-1.05-1.35.3.2c-.52-.67-1.05-1.34-1.6-2l.14.35a10.408,10.408,0,0,0-2.02-2.36c-.5-.4.7.98-.25.05a35.9,35.9,0,0,0-4.56-4.43c.07.24-.37-.13-.88-.45V106c-2-1.17-.53-.73-2.56-1.83l-.44-.05a6.2,6.2,0,0,1-1.45-.74,3.961,3.961,0,0,0-1.7-.65c.64.23.5.34-.05.2-.14-.08-.28-.17-.42-.25h.05c-.04-.01-.07-.02-.1-.03a1.18,1.18,0,0,0-.19-.11q-.482-.27-.98-.51h.05a.127.127,0,0,1-.06-.01,30.655,30.655,0,0,0-3.24-1.39c-1.68-1.02-5.3-1.8-7.2-2.53.1.15-1.46-.32-1.1-.04-3.08-.6-5.74-1-6.83-.36-1.4.13-1.68.07-2.42.13.1-.03.22-.05.33-.08a36.179,36.179,0,0,0-5.22,1.38,26.58,26.58,0,0,1-2.58,1.3c.47-.32-.17-.02-.77.25.38-.18.47-.28-.33.02a3.927,3.927,0,0,1-.4.27c-.01,0-.04,0-.03-.01-.96.5-.78.46-.32.25-.02.03.03.03.18-.02-1.08.36-2.77,1.48-2.97,1.4a53.651,53.651,0,0,0-6.68,4.9c-.3.1.15-.34.76-.84q-.763.583-1.5,1.2c-.07-.12.8-.75,1.27-1.12-1.96,1.22-3.56,3.1-5.66,4.75l-.34.46-.13.1a4.371,4.371,0,0,1-.6.8c-.35.18-.17-.2-1.1.73a34.555,34.555,0,0,0-2.95,3.16c.53-.5.4-.3.22-.04-.46.47-.8.66-1.12,1.06l-.16-.06c.3-.08-1.08,1.35-1.2,1.57-.34.2.64-.8.7-.98l-2.72,2.87c-.88,1.1.28-.08-.08.5-.83.92-1.58,1.88-2.63,2.85l.4-.23a37.94,37.94,0,0,1-3.65,3.83c-2.7,3.32-4.13,5.24-4.78,6.24-.53-.34-.66-.28-.22.35-.4.7-.2.7.24.35.76.96,2.34,2.77,5.14,5.77l-.15-.07a59.381,59.381,0,0,0,5.93,5.33c.08.47,2.06,1.94,2.6,2.55l-.07-.03c1.7,1.26,3.05,3.06,4.68,4.3a1.14,1.14,0,0,1-.5-.32,17.563,17.563,0,0,1,2.6,2.5l6.07,5.48q-1,1.276-1.94,2.59l.13-.22c-1.22,1.7-1.63,2.16-2.95,4.1a1.517,1.517,0,0,1-.18.2c-.62.96-1.6,2.3-2.53,3.6l-.7.96c-.1.16-.22.3-.33.46a.911.911,0,0,0-.18.3l-.1.27a9.4,9.4,0,0,0-.54,1.75l-.1.1a44.131,44.131,0,0,0-.78,4.5l.25-1.68c.08.6-.6,3.4-.78,6.7-.3,3.06-.15,6.24-.55,9.4-.06,1.52-.01-1.35-.16.92-.1.07.04-1.06-.1-.5-.16,2.23-.45,3.64-.65,6.38l-.1.1c-.2,3.6-.73,6.74-.8,9.14-.22,3.7-.43,2.46-.52,6.33l-.17,1.5c-.07,1.3.02,1.32.01,2.16l-1.54.2a3.089,3.089,0,0,0-1.87-.5l-4.6.5a3.135,3.135,0,0,0-2.05,1.1l-.93.12c-.68-3.42-1.3-6.36-1.82-9.86-.05.23-.4-2.25-.42-1.62-.9-4.83-1.14-8.87-1.7-10.6-.3-2.2-.27-2.63-.38-3.78l.08.53c-.53-4.15-.63-5.36-.93-8.45-.18-1.54-.36-1.77-.55-4.54.13.9.03-.24-.05-1.28.06.66.1.86.04-.5-.03-.2-.06-.5-.1-.76,0-.01,0-.07.01-.04-.13-1.73-.13-1.43-.1-.62-.01-.04-.02.03-.02.28-.04-1.8-.24-5-.12-5.23-.06-2.6-.04-4.83.12-6.93a23.491,23.491,0,0,1,1.15-6.1c.22-.43-.1.5-.4,1.7a18.526,18.526,0,0,1,.97-2.86c.05.06-.64,1.6-.84,2.52a37.119,37.119,0,0,1,2.16-5.16,31.724,31.724,0,0,1,3.2-5.2l.47-.75.16-.2a9.112,9.112,0,0,1,.9-1.3,6.778,6.778,0,0,0,1.48-1.46,13.26,13.26,0,0,0,1.03-1.06c2.65-3.36-.2-1.56-.55-1.13l-1.1,1.16a45.016,45.016,0,0,0-3.76,4.56,39.571,39.571,0,0,0-3.12,5.13c-.5,1-1,2.03-1.48,3.24a20.161,20.161,0,0,0-1.1,4.14,48.007,48.007,0,0,0-.55,8.9c.05,2.98.23,5.92.45,8.72.32,2.66.65,7.36,1.1,10.5l.07,1.22q.265,1.709.44,3.43l-.03-.07c.27,1.6.47,3.43.62,4.22l-.03-.06.3,1.95-.08-.33,1.34,8.22.05-.23c.7,4.52,1.2,6.63,1.82,10a1.67,1.67,0,0,0-.81,1.5l.82,5.38a1.767,1.767,0,0,0,1.67,1.33l.5,2.42a3.105,3.105,0,0,0-.06.32l-.07.45c-.05.3-.08.6-.1.9-.06.6-.1,1.23-.1,1.87a20.016,20.016,0,0,0,.4,4.14c-.16-.8.01.36-.01.3a19.639,19.639,0,0,0,1.22,4.13,6.323,6.323,0,0,0,.98,1.8c.94,1.94.7,1.6.78,1.9a29.1,29.1,0,0,1,1.62,3.17l-.35-.7,1.03,2.2a13.269,13.269,0,0,0,1.2,2.2,5,5,0,0,1-.4-.94,4.051,4.051,0,0,0,1,1.44,1.347,1.347,0,0,0,.37.25,1.324,1.324,0,0,0,.6.12,1.23,1.23,0,0,0,.47-.11.843.843,0,0,0,.35-.24l-.07-.1.04-.04a1.148,1.148,0,0,0,.22-.3c.06.02.14.22.2.3a3.931,3.931,0,0,0,.67.73,2.637,2.637,0,0,0,1.06.56,1.646,1.646,0,0,0,1.27-.18,1.919,1.919,0,0,0,.48-.46,2.006,2.006,0,0,0,.14-.23l.05-.1c.04-.08.06-.2.08-.24a1.039,1.039,0,0,0,.21.21.437.437,0,0,0,.1.06,2.167,2.167,0,0,0,.33.1,1.68,1.68,0,0,0,.74-.02,1.456,1.456,0,0,0,.75-.4,1.934,1.934,0,0,0,.37-.73,11.337,11.337,0,0,0,.2-2.86q-.037-1.372-.15-2.74c-.13-1.82-.3-3.64-.5-5.46l-.13-1.37.6.8c.28.37.46.72.82,1.16a5.617,5.617,0,0,0,.54.55c.1.1.2.16.3.25a2.348,2.348,0,0,0,.46.26,1.38,1.38,0,0,0,1,.13,1.009,1.009,0,0,0,.66-.7,2.659,2.659,0,0,0,.02-1.05,5.053,5.053,0,0,0-.18-.72,51.232,51.232,0,0,1-1.45-5.22,12.165,12.165,0,0,0-.37-1.36l-.5-1.26c-.34-.84-.7-1.67-1.12-2.47a12.274,12.274,0,0,0-1.5-2.3c-.62-.7-1.22-1.26-1.7-1.92-.07-.1-.12-.2-.18-.28a1.63,1.63,0,0,0,.64-1.32l-.4-5.4-.02-.1a1.86,1.86,0,0,0-1.47-1.4,3.588,3.588,0,0,1,.04-.7V217.3c.04-.43.1-1.34.1-.57.1-1.42.06-1.46.1-2.5l.18-1.52,1.4-16.33c.44-3.54.86-8.7,1.33-13.87a66.325,66.325,0,0,1,1.06-7.55,15.582,15.582,0,0,1,.48-1.67l.15-.38a.235.235,0,0,1,.05-.1l.12-.18,2.3-3.27q.691-1.043,1.42-2.06l-.9,5.2a6.052,6.052,0,0,0-.17,1.24l-1.86,9.66s-8.93,46.86-.46,11.57v.25c1.1-5.27,1.77-8.6,2.22-12.3.4-.53.85-4.34,1.18-5.57v.12c.4-3.27,1.44-6.62,1.83-9.77a2.306,2.306,0,0,1-.07.92l.9-4.9,2.03-2.56q.572.488,1.18.93l-.15-.07c1.07.74,1.24,1.1,2.36,2a.606.606,0,0,0,.1.14c1.15.82,3.02,2.75,3.9,3.46l-.02.13,2.07,1.87-.75-.72c.24.01.58.4,1.1.95.38.4.84.86,1.36,1.35l.1.1c.03.04.07.07.1.02l.18-.2.36-.42c.24-.3.5-.6.72-.9,1.33-1.5,2.03-3.36,3.4-4.8.5-.8-.35.78.46-.37.15.07-.34.57-.01.37.8-1.12,1.56-1.64,2.54-3.04l.14.02c1.2-1.87,2.72-3.18,3.45-4.5,1.3-1.88,1.23-1,2.46-3.06l.7-.65c.62-.8.26-.72,1-1.6.05.12.9-1.1.6-.52,1.6-2.02,2.8-4.4,4.78-7.17.22-.73,1.16-2.17,1.3-2.72.13-.04,1.64-2.97.9-1.2,0,0,.8-1.48,1.74-3.4a.923.923,0,0,1,.03-.1l.32-.6a62.217,62.217,0,0,0,2.86-6.46c1-3.1-3.6,5.4-6.08,8.6a73.3,73.3,0,0,1-6.8,10.97l-.32.2c-.25.01-1.04,2.02-1.4,2.15l-.47.83c-.2.2-.56.62-.3.2a10.859,10.859,0,0,0-.84,1.28l-.67.68c-2.17,2.7-3.8,5.18-6.13,7.98-.74.8-1.62,1.82-2.57,2.93l-2.23,2.64-.2.27c-.02.01-.03.06-.05.05l-.24-.2-.14-.12-.45-.4-1.76-1.54-3.1-2.7c-5.15-4.3-10.3-10.22-15.6-14.6a3.051,3.051,0,0,0-.63-.5l-4.6-4.28s-8.34-7.7-11.22-9.85c1.14-.98,2.96-2.84,2.96-2.84,4.87-4.8,6.96-7.66,12.52-13.57,2.52-2.52,4.14-4.1,5.84-5.55,1.73-1.46,3.47-2.94,6.37-5.13a53.08,53.08,0,0,1,9-5.37,30.768,30.768,0,0,1,5.86-2.18l.73-.03a7.926,7.926,0,0,1,2-.36l-.04.04q.705-.125,1.42-.18c.44-.01.83-.02,1.07-.05l-.04.04c.38-.02.77.01,1.15.02l-.2.04a14.086,14.086,0,0,1,4.75.77l-.08-.18c1.1.4,2.65.45,3.4.8l1.98.7c.2.13.4.25.6.4a2.863,2.863,0,0,1,.28.07,20.072,20.072,0,0,1,6.22,2.9,31.255,31.255,0,0,1,3.8,2.44c.04.06,1,.92,1.68,1.55.65.65,1,1.04-.1.1-.2-.15-.52-.45-.48-.46l-.34-.14a74.041,74.041,0,0,1,5.67,5.94c-.5-.7-1.23-1.6-.7-1.05.56.7,1.12,1.4,1.64,2.15l-.42-.4c.8,1.1,1.54,2.2,2.25,3.34l-.2-.54c1,1.7,1.2,2.4,2.43,4.26.58.84-.75-1.73.3.1a70.978,70.978,0,0,1,3.78,9.23c.03-.34.33.5.63,1.4l-.1.14a6.43,6.43,0,0,1,.6,2.35,10.583,10.583,0,0,0,.45,2.35l-.14-.3.42.86c.73,3.1-.01,1.73.77,5.26-.2-1.42.2-.7.34,1.06l-.17-.43c.13.97.2,1.28.26,1.93-.13-.57-.2-.3-.03,1.14l-.25-.94.5,2.67c.1,2.1.57,5.38.48,6.25,0,0,.35,4.5.62,5.5-.2-.9-.01,1.6-.2.9a42.179,42.179,0,0,1,.64,5.96l-.04-.26c.32,5.1.97,8.68,1.2,13.26.13-.22.25,2.2.4,1.6.6,4.7.36,8.64,1.07,10.3.2,2.15.08,2.56.14,3.67l-.07-.5.7,8.18c.1.74.2,1.17.32,1.74.06.3.1.6.16,1.03.01.12.03.26.05.42.01.07.01.15.02.24l.01.13c0,.04.02.1-.05.08.07.01.01-.1.01-.1a.1.1,0,0,0-.03-.06c-.02-.01-.01.03-.02.1-.15-.01-.4,0-.66,0,.16-.01.25-.02.23-.04a.68.68,0,0,0-.13-.04,2.978,2.978,0,0,0-.5-.05c-.2.03-.47.05-.74.07-.01-.01-.06-.01-.04-.03-1.68.04-1.38.07-.6.08-.04.02.03.04.27.07-1.74-.14-4.85.01-5.06-.17l-14.1.12a15.009,15.009,0,0,1,2.63-.1c-3.54-.22-7.3.22-11.46.02l-.86.1-.25-.02a7.173,7.173,0,0,1-1.53.15c-.6-.12.04-.27-2.02-.26-1.63-.1-4.62.06-6.75.12,1.15.02.78.08.28.13-1.03,0-1.62-.1-2.4-.06l-.08-.12c-.14.12-2.74.13-3.1.2-.6-.12,1.6-.1,1.85-.2l-6.18.02c-2.2.12.4.15-.65.3-1.94.03-3.84.14-6.07.05l.7.14c-3.65.1-5.83.1-8.3-.05-27.2,1.14-5.73,1.56-5.73,1.56,10.7.3,16.23-.1,28.97-.2,11.2.07,14.17.34,25.78.23l8.47-.02,9.38-.06c.15-.01.3-.01.45-.02.07-.01.16,0,.23-.01L275,209l-.1-1.03-.18-1.87-.22-2.65c-.15-1.83-.3-3.72-.5-5.23v-.1c2.45,1.2,6.28,3.3,9,4.54l1.07.6q1.582.7,3.13,1.48l-.07-.01c1.5.64,3.14,1.45,3.9,1.75l-.07-.01,1.8.8-.32-.1,7.65,3.3-.16-.16c5.03,2.23,6.97,2.82,11.55,4.75l-.07-.01,4.32,1.58,3.7,1.43a2.982,2.982,0,0,0,.24.23l.34.3c.23.2.47.4.7.58.48.38,1,.74,1.53,1.1a19.8,19.8,0,0,0,3.74,1.9c-.77-.3.3.18.24.17a19.7,19.7,0,0,0,4.15,1.18,6.417,6.417,0,0,0,2.05.14c2.15.23,1.74.25,2.02.34a23.968,23.968,0,0,1,3.54.33l-.77-.07,2.4.32a13.142,13.142,0,0,0,2.5.22,5.286,5.286,0,0,1-1.02-.18,5.2,5.2,0,0,0,1.33.04c.27-.08.35-.08.44-.12a1.256,1.256,0,0,0,.4-.2,1.541,1.541,0,0,0,.38-.47,1.19,1.19,0,0,0,.12-.45,2.081,2.081,0,0,0,0-.25.327.327,0,0,0-.02-.12h-.1v-.01a1.593,1.593,0,0,0-.13-.35c.05-.04.25,0,.36-.02a4.421,4.421,0,0,0,1-.16,2.674,2.674,0,0,0,1.06-.57,1.769,1.769,0,0,0,.6-1.1,1.551,1.551,0,0,0-.06-.68,2.082,2.082,0,0,0-.12-.3.929.929,0,0,0-.05-.1.71.71,0,0,0-.18-.2,1.33,1.33,0,0,0,.3-.06,1.2,1.2,0,0,0,.35-.25,1.7,1.7,0,0,0,.42-.62,1.13,1.13,0,0,0,.12-.82Zm-163.9,3,4.58-.5c.05,0,.1-.01.14-.01a2.1,2.1,0,0,1,1.34.5,1.94,1.94,0,0,1,.69,1.35l.5,4.67a1.14,1.14,0,0,1-.09.72,1.985,1.985,0,0,1-1.68,1.26l-4.63.5a2.9,2.9,0,0,1-1.56-.44,1.97,1.97,0,0,1-.66-1.33l-.5-4.55a1.615,1.615,0,0,1,.12-.82l.06-.12a2,2,0,0,1,1.68-1.24Zm-3.36,7.22-.8-5.23c0-.12,0-.5.56-.7l.85-.1a3.779,3.779,0,0,0-.1,1.07l.5,4.62a3.827,3.827,0,0,0,.24.87l-.54.06c-.13,0-.5,0-.7-.58ZM194.9,231a13.034,13.034,0,0,1,1.78,3.27,15.917,15.917,0,0,1,.98,2.26c.25.83.44,1.76.6,2.17a24.353,24.353,0,0,0,.58,2.38c.28.95.42,1.5-.08.02a4.983,4.983,0,0,1-.18-.7l-.17-.34a20.175,20.175,0,0,0,.6,2.2l.3.98.08.35a.2.2,0,0,1,.01.07.077.077,0,0,1-.1.08.185.185,0,0,1-.1-.04,2.214,2.214,0,0,1-.3-.24,2.92,2.92,0,0,1-.6-.7l-.65-.95c.26.38.56.85.72,1.1.15.2.2.3-.03.03a26.111,26.111,0,0,0-1.7-2.38l.44.45a8.272,8.272,0,0,0-.76-.9c-.04-.04-.1-.08-.15-.13-.04-.03-.06-.04-.12-.08l-.08-.04a.6.6,0,0,0-.16-.05.726.726,0,0,0-.67.18.651.651,0,0,0-.2.44.942.942,0,0,0,.01.32l.01.48c.04.73.1,1.44.16,2.15l.02-.6c.15,2.1.1,2.82.4,5.15.14,1.05-.05-1.97.14.2.06,1.1.14,2.4.13,3.8a9.871,9.871,0,0,1-.17,2c-.1.34-.1.32-.2.35a.6.6,0,0,1-.26.02.5.5,0,0,1-.13-.03,1.469,1.469,0,0,1-.4-.28c-.12.03-.22.05-.3.07l-2.22-9.35a.5.5,0,0,0-.97.23l2.24,9.44a1.037,1.037,0,0,1-.1.04,1.3,1.3,0,0,1-.1.42c-.01.04-.06.17-.06.17l-.03.05c-.04.06-.08.1-.12.15.16-.06-.06.4-.8.08l-.04-.1a3.009,3.009,0,0,1-1.1-1.1l-2.25-8.8a.5.5,0,0,0-.97.25l2.16,8.46c-.1,0-.2.01-.34.01-.08.13-.26.36-.3.35a.119.119,0,0,1-.1.03c.02.01-.24-.01-.6-.44.07.05.13.1.2.15a2.124,2.124,0,0,1-.58-.58c-1.6-2.9-.63-1.7-2.42-4.98.64,1.34.15.7-.6-.97l.27.4-.9-1.82c.3.53.22.23-.42-1.1l.5.85a25.754,25.754,0,0,1-1.24-2.46,20.722,20.722,0,0,1-1.24-6.2s-.05-.92-.03-2.02c.01-.55.04-1.15.1-1.7l.08-.77c.01-.12.03-.23.04-.34.02-.15.05-.3.07-.42-.1-.38-.12-.43-.16-.56.27.9-.26-1.6-.02-.92-.07-.22-.15-.55-.24-.92a.862.862,0,0,0,.18.14,4.32,4.32,0,0,0,1.87.57c.1,0,.2-.01.3-.02l4.6-.5a3.072,3.072,0,0,0,2.28-1.42l1.26-.15c.01.01.01.02.02.03a29.888,29.888,0,0,0,2.33,2.72Zm-2.05-9.8.4,5.3c0,.12,0,.5-.6.7l-.96.1a1.734,1.734,0,0,0-.03-.68l-.5-4.58a2.93,2.93,0,0,0-.48-1.38l1.4-.18a.849.849,0,0,1,.78.7ZM269,146.66c-.22-2.08-.1-1.7-.01-2a18.378,18.378,0,0,1-.58-3.4l.14.74c-.2-1.54-.37-3.12-.7-4.68l-.06.96c-.4-2.48.18-.7-.4-3.03l-.18.08a71.98,71.98,0,0,0-2.4-8.56,58.364,58.364,0,0,0-5.58-10.25,57.655,57.655,0,0,1,8.48,13.4v.37c-.12.22,1.2,1.8,1.12,2.15l.44.8c.06.24.22.77.01.36a7.284,7.284,0,0,0,.63,1.33l.2.9c1.1,3.13,2.34,5.7,3.48,9,.44,1.52,1.12,3.52,1.87,5.65l1.16,3.25.3.83a.648.648,0,0,1,.05.36.689.689,0,0,1-.35.56l-.06.02-3.5,1.73c-.82.43-1.68.83-2.56,1.24-.13-1.7-.3-3.5-.64-5.6.12.77.04-.34.08-.28-.33-2.86-.66-5.9-.96-5.92Zm76,74.8-.1-.02a2.761,2.761,0,0,1-1.53.33L335,218.8l.38-.95c.14-.4.28-.78.4-1.17l9.17,3.33a.037.037,0,0,1,.03.01c0,.03-.01.04-.01.07a2.826,2.826,0,0,1,.3.3.814.814,0,0,1,.1.16.471.471,0,0,1,.04.16c.03-.07.08-.02.07.13a.943.943,0,0,1-.47.62Z"/>
    <path id="Path_16656" data-name="Path 16656" d="M239.87,140.97v.26l.45-.7-.22.06c-.07.16-.2.4-.23.37Z"/>
  </g>
</svg>
