<svg xmlns="http://www.w3.org/2000/svg" xmlns:xlink="http://www.w3.org/1999/xlink" width="212.229" height="124.366" viewBox="0 0 212.229 124.366">
  <defs>
    <linearGradient id="linear-gradient" x1="0.144" y1="0.496" x2="0.669" y2="0.505" gradientUnits="objectBoundingBox">
      <stop offset="0" stop-color="#b9e4ff"/>
      <stop offset="1" stop-color="#84b4d7"/>
    </linearGradient>
    <linearGradient id="linear-gradient-2" x1="0.935" y1="0.567" x2="0.147" y2="0.498" gradientUnits="objectBoundingBox">
      <stop offset="0" stop-color="#4479b2"/>
      <stop offset="1" stop-color="#4479b2" stop-opacity="0"/>
    </linearGradient>
    <linearGradient id="linear-gradient-3" x1="0.381" y1="0.511" x2="-0.183" y2="0.391" gradientUnits="objectBoundingBox">
      <stop offset="0" stop-color="#cc7a5e" stop-opacity="0"/>
      <stop offset="0.924" stop-color="#aa5f4b"/>
    </linearGradient>
    <linearGradient id="linear-gradient-4" x1="0.661" y1="0.11" x2="0.324" y2="0.942" gradientUnits="objectBoundingBox">
      <stop offset="0" stop-color="#ebffff"/>
      <stop offset="1" stop-color="#c2e4f9"/>
    </linearGradient>
    <linearGradient id="linear-gradient-5" x1="0.23" y1="0.205" x2="0.943" y2="1.204" xlink:href="#linear-gradient"/>
    <linearGradient id="linear-gradient-6" x1="0.433" y1="1.395" x2="0.485" y2="0.583" xlink:href="#linear-gradient-2"/>
    <linearGradient id="linear-gradient-7" x1="0.643" y1="0.128" x2="0.37" y2="0.914" xlink:href="#linear-gradient-4"/>
  </defs>
  <g id="_8" data-name="8" transform="translate(-152.589 -99.415)">
    <path id="Path_14828" data-name="Path 14828" d="M154.28,208.5l78.2-.3s7.05-22.07,16.2-59.48c.93-19.08-1.07-48.2-23.14-49.08-11.8-.7-25.3,7.3-40.46,36.77-8.9,17.3-28.32,59.1-32.32,69.52a1.766,1.766,0,0,0,1.5,2.57Z" fill="url(#linear-gradient)"/>
    <g id="Group_999" data-name="Group 999">
      <path id="Path_14829" data-name="Path 14829" d="M207.76,164.05l-1.5-.88,1.3-.9Zm1.58-4.82-1.12-1.37,1.5-.4Zm-5.12,2.95-1.95.3.46-1.77Zm2.05-2.85,1.12,1.67-1.68.3Z" fill="#4780b5"/>
      <path id="Path_14830" data-name="Path 14830" d="M206.83,157.76l-2.05.2.56-1.78Zm8.95,19.54-1.93.26.43-1.64Zm-6.63-21.5-1.95.1.56-1.67Zm2.05,2.75-1.67.98-.2-1.77Zm-1.86,1.27-1.68,1-.18-1.77Zm-.56-2.36-1.86.6.2-1.87Zm1.77,5.22-1.96.4.47-1.77Z" fill="#4780b5"/>
      <path id="Path_14831" data-name="Path 14831" d="M211.1,163.17l-1.77.6.1-1.77ZM203.3,156l-.83-1.58h1.48Zm-1.08-2.9-.73-1.63h1.5Zm1.3-7.1-1.14-1.06,1.24-.5Zm1.65-.18-1.08-1.12,1.27-.44Zm3.97,18.72-1.5-.78,1.12-1Zm-5.67-10.8-.47-1.1,1.03-.1Zm1.22,5.3.74-.6.28.88Zm-7.08-3.74.74.6-.65.5Zm3.58,13.48-1,.45.05-1Zm5.27-.84-.6-.85.83-.14Zm-3.77,7.16.52-.8.4.77ZM201.45,156l.1,1.2-.9-.36Zm.54-5.48-.86.34.06-.88Zm5.6,5.8-.6-.83.85-.14Zm-.3-2.6-.64-1.62h1.5Z" fill="#4780b5"/>
      <path id="Path_14832" data-name="Path 14832" d="M207.43,153.15l-2.02-1.8,2.03-1.05Zm-1.8-3.57-.92-1.54,1.6-.2Zm1.48,6.32-2.6.3.75-2.26Zm-5.76,4.32-1.02.5v-1.08Zm4.1,3.83.56.8-.84.1Zm-5.86-5.4-.56-.88.84-.1Zm12.7,26.74-.65-.7.8-.3Zm20.5,10.8-.5-.8.78-.16Z" fill="#4780b5"/>
      <path id="Path_14833" data-name="Path 14833" d="M204.13,156.68l-.84-.7.84-.4Zm1.4-2.32,2.67-2.77,1.36,3.16Z" fill="#4780b5"/>
      <path id="Path_14834" data-name="Path 14834" d="M207.1,157.86l2.38-3.13,1.47,3.25Zm-2.33-6.76-1.9.47.3-1.76Zm1.96.03-1.8.47.2-1.76Z" fill="#4780b5"/>
      <path id="Path_14835" data-name="Path 14835" d="M203.57,149.54l2.78-2.57,1.3,3.33Z" fill="#4780b5"/>
      <path id="Path_14836" data-name="Path 14836" d="M202.72,149.68l1.3-1.4.64,1.62Zm.22-7.8,1.62-1,.5,1.83Zm.26-2.15.95-.93.45,1.85Zm-.32,1.85-.2-1.42,1.18.35Zm.96,2.2-.3-1.32,1.2.24Zm-.9,1.08-1.28-.25.7-1.1Zm.37-6.1-.3-1.43.85.45Zm.18,7.82,2.17-1.87.77,2.4Zm.1-2.44,1.46-1.2.47,1.54Zm5.1,17.06,2.36-3,1.6,3.14Z" fill="#4780b5"/>
      <path id="Path_14837" data-name="Path 14837" d="M210.08,164.25l2.5-3,1.58,3.14Zm2.1,3.55,2.27-3.2,1.77,3Zm-8.7-10.14v1.77l-1.3-.7Zm4.65,6.98-1.86.7.1-1.77Z" fill="#4780b5"/>
      <path id="Path_14838" data-name="Path 14838" d="M222.8,180.1l-1.64.95-.28-1.85Zm-6.1.54-1.66.92-.14-1.77Zm-8.2-16.4,1.12,1.67-1.68.3Zm7.65,3.12,1.1,1.82-1.85.38Zm-2.73.7,1.34,1.6-1.7.53Zm-1.94-3.14,1.12,1.57-1.68.3Zm-2.43,4.56-.15-1.17,1.04.25Zm-.4,5.53.92-.34-.05.9Z" fill="#4780b5"/>
      <path id="Path_14839" data-name="Path 14839" d="M203,169.3l.6.76-.83.24Zm5.66,14.4-1.12.05.34-.94Zm5.37.85-.32-.95.86.1Zm-5.76,5.35.88-.4.1.78Zm3.95-18.18-1.53-1.58,1.8-.64Zm.64,2.68-1.5-1.48,1.7-.63Zm-4.93-7.02-1.2-1.62,1.66-.47ZM219.4,184.3l-1.6-1.35,1.67-.75Zm-22.06-19.36.74-.5.2.78Zm8,.2v1.18l-.93-.4Zm.66-5.4-.93.3.1-.98Zm5.4,6-.56-.8.83-.1Zm-1.7,13.07.88.98-1,.23ZM207,174l-.54.86-.4-.84Zm7.8,1.54-.9-.38.58-.57Zm-2.86-11.1-2.4.78.1-2.26Zm0-2.17-1.86.4.38-1.77Zm-.5,4.64-.77,1.5-.8-1.14Zm-11.05-3.95-.47.9-.46-.8Zm-1.1,4.43-.65,1.18-.65-1Zm4-4.53-1.02-.3.56-.8Zm1.4,9.15v-1.18l.84.5Zm8.98-.6.06-1.7,1.3.7Zm3.27,1.94-1.37-1.1,1.32-.67Z" fill="#4780b5"/>
      <path id="Path_14840" data-name="Path 14840" d="M214.97,173.33l.24-1.72,1.25.93Z" fill="#4780b5"/>
      <path id="Path_14841" data-name="Path 14841" d="M216.8,171.6l1.2,2.62-2.36-.08Z" fill="#4780b5"/>
      <path id="Path_14842" data-name="Path 14842" d="M217.05,168.98l1.67,2.66-2.58.34Zm-1.03,5.2-1.75.93-.05-1.78Zm4.38,3.8-1.5,1.32-.56-1.8Zm-3.43,1.83-1.52-.8,1.1-.94Zm.9-4.47-1.28-1.12,1.32-.68Zm-4.4.77-.16.92-.7-.4Z" fill="#4780b5"/>
      <path id="Path_14843" data-name="Path 14843" d="M216.87,174.63l1.9-3.23,1.88,2.83Zm8.35,5.37,1.34,1.7-2.2.33Zm-2.7,2.02,1.63.85L223,183.94Zm-4.47-2.2,1.55.96-1.26.98Zm-2.76,2.2.42.93-.93.04Zm-1.5-4.85-.66.6-.32-.85Zm6.57,2.98-.74-.48.68-.5Zm4.56,7.88-.01,1.1-.88-.36Zm.53-5-.82.35.06-.88Zm4.9,5.3-.44-.68.78-.16Zm-13.04-3.43.44,1.03-.93.04Zm-1.58-4.83-.66.6-.2-.77Z" fill="#4780b5"/>
      <path id="Path_14844" data-name="Path 14844" d="M222.4,182.94l-.73-.48.7-.4Zm2.8-1.5-.46,1.27-.8-.88Zm.37-.97-2.05-.07.72-1.78Z" fill="#4780b5"/>
      <path id="Path_14845" data-name="Path 14845" d="M224,180l-1.22-.6.82-.82Zm-2.7-1.77-1.4-.58.9-.93Zm-3.7-2.17-.26.83-.65-.6Zm1.2.6,1.86-2.67,1.88,2.5Z" fill="#4780b5"/>
      <path id="Path_14846" data-name="Path 14846" d="M221.1,179.13l1.38-2.7,1.66,2.24Zm-3.2,8.04-1.4-.8,1.2-.9Zm3.96,1.33-1.4-.78,1.2-.9Zm1.2-2.27-1.4-.8,1.2-.88Zm5.48,10.37.3.96-.86.04Zm-.9-4.87-.65.47-.23-.84Zm6.27,3.54-.65-.6.62-.3Zm-4.3-2.03.1,1.08-.9-.22Zm.17-4.94-.8.34v-.84Zm5.27,4.9-.54-.7.78-.25Zm-13.34-2.32.28,1.05-.94-.07Zm-.88-4.96-.65.48-.23-.84Zm6.24,3.65-.65-.62.62-.3Zm-25.63-13.9-1.1.44.14-1.1Zm5.3-.45-.5-.86.83-.14Zm-4.25,6.7.62-.72.4.87Zm5.1,5.9-.46-.9.84-.1Zm17.3-2-.66-1.27,1.2-.14Zm3.4,7.53-.67-1.27,1.2-.14Zm2.2,4.6-.67-1.26,1.2-.15Zm-2.3,9.33-.67-1.26,1.2-.15Zm-18.52-20.25-1-.55.78-.56Zm4.1,3.58.23-.96.6.52Zm-7.73,1.62.88-.01-.34.7Zm15.3-7.1-1.36-1.48,1.6-.55Zm11.27,9.57-1.02-1.68,1.83-.17Z" fill="#4780b5"/>
      <path id="Path_14847" data-name="Path 14847" d="M233.3,191.77l-.8,1.85-1.18-1.32Zm-1.64,7.4-.5,1.2-.77-.94Zm3.16.78-1-1.8,1.73-.18Zm-7.77-15.45-1.46-1.57,1.7-.56Zm8.82,12.34-1.1-1.7,1.74-.2Zm-1.9,6.16-1.95-2.76,2.72.1Zm-1.15-3.52-.03-1.4,1.3.73Zm2.75-4.68-.04-1.3,1.2.62Zm-.98-3.13.3-1.36,1.06.9Zm-25.24-5.57.8,1-1,.23Zm-2.56-5.02-.55.77-.38-.75Zm7.77,1.82-.8-.4.58-.57Zm-12.04-37.37-.93.04.33-.77Zm-2.83.5-.14-.7.65.05Zm2.3,3.4.7-.45.04.8Zm1.86-12.8-1.1-.23.58-.92Zm-.72-1.77.02-1,.7.38Zm.46,12.9.35-1.06.8.64Zm-2.08.35.22.9-.83-.16Zm-6.25,2.94-1.05.33.16-.98Zm5.43-.33-.5-.82.84-.04Zm-4.64,6.6.7-.64.22.8Zm4.4-19.62.76-.1-.28.76Zm1.25,2.05-.8.5v-.9Zm-.2,4.73-.9.48-.07-1Zm.77-1.68-1.1.56-.04-1.2Zm1-2.96-.73-.88.97-.28Zm-1.98,7.48.7-.94.4,1.02Zm-1.44-4.72H199l.26-.56Zm3.46.8-.13-.5.56.07Zm-4.17,3.47.6-.32.01.7Zm-3.28,6.4.01,1.18-.9-.45Zm.83-5.57-.86.33.06-.88Zm5.18,6.26-.5-.72.85-.14Zm20.24,50.82.28,1.26-1.15-.28Zm.01-6.05-1.1.46-.02-.95Zm7.13,5.73-.83-.86,1-.18Zm-9.24-16.64-.35,1.04-.64-.7Zm2.64-4.17-.83-.13.4-.73Zm2.1,7-.05-.9.72.22Z" fill="#4780b5"/>
      <path id="Path_14848" data-name="Path 14848" d="M222.32,188.87l.01,1-.8-.24Zm.53-5-.8.16.04-.7Zm4.9,5.38-.43-.77.78-.16Zm.76-2.55-1.53,1.12-.48-1.8Zm2.4-.33,1.5,1.53-2.15.57Zm-2.45,2.3,1.72.67-1.03,1.2Zm2.8,5.57.1,1.1-.9-.26Zm-.02-5.03-.77.44-.04-.9Z" fill="#4780b5"/>
      <path id="Path_14849" data-name="Path 14849" d="M236.7,193.92l-.5-.62.76-.25Zm-13.1-1.82.55.98-.93.14Zm-2.1-4.64-.6.67-.3-.74Zm6.9,2.14-.78-.4.64-.48Zm2.64-1.8-.33,1.3-.88-.78Zm.26-1.02-2.04.16.52-1.85Z" fill="#4780b5"/>
      <path id="Path_14850" data-name="Path 14850" d="M229.7,186.5l-1.28-.47.72-.9Z" fill="#4780b5"/>
      <path id="Path_14851" data-name="Path 14851" d="M226.7,185.94l1.07-2.83,1.9,2.05Zm.43,5.3-1.47-.63,1.1-1.02Zm-1.93-3.65-1.5-1.33,1.54-.7Zm8.02,3.02-1.63-1.4,1.63-.74Zm-6.62,4.08-.23,1.07-.72-.63Zm2.16-4.43-.84-.04.32-.77Zm2.84,6.73-.15-.9.74.13Zm-2.6-1.5.12,1-.83-.16Z" fill="#4780b5"/>
      <path id="Path_14852" data-name="Path 14852" d="M228.97,190.46l-.76.24-.05-.7Zm5.43,4.82-.5-.72.76-.25Zm-.28,2.84-1.32-1.05,1.36-.74Zm-21.94-11.35.3.97-.84-.17Zm19.68,1.53.1,1.02-.78-.35Zm-5,8.68.28,1.05-.92-.16Zm-.12-5.02-.75.46-.02-.9Zm5.6,4.54-.54-.7.72-.27Zm-9.54,6.14.4.97-.93-.07Zm-.88-5.06-.67.57-.13-.82Zm6.24,3.64-.66-.52.63-.38Zm1.94,3.36-.6,1.2-.68-.93Zm3.16.78-1.1-1.8,1.83-.16Zm-.82,2.94-2.07-2.68,2.84.02Z" fill="#4780b5"/>
      <path id="Path_14853" data-name="Path 14853" d="M231.27,204.9l-.05-1.3,1.2.62Zm1.27-1.27-1.3-1.14,1.25-.67Zm-7.24-1.23.2,1.03-.9-.17Zm-.1-5.12-.74.46-.14-.82Zm5.58,4.62-.56-.6.72-.27Zm2.52-10.8.37-1.33.92.75Zm-12.9-.95-.6.64-.33-.82Zm-6.95,7.27.58.87-.93.12Zm-1.87-4.68-.55.7-.3-.78Zm6.84,2.3-.75-.47.64-.5Zm-.08-2.04.14,1.08-.9-.2Zm.03-5.04-.8.37-.02-.84Zm5.43,4.7-.56-.7.77-.27Zm-5.53-3.47.4.97-.95.03Zm-.92-4.95-.65.5-.14-.82Zm6.25,3.6-.64-.6.63-.4Z" fill="#4780b5"/>
      <path id="Path_14854" data-name="Path 14854" d="M216.23,189.58l-.5.87-.5-.8Zm3.34-3.74-.8-.27.5-.56Zm.83,7.36.1-.9.67.34Zm-1.07.08-.4.9-.65-.72Zm2.93-4.02-.8-.25.47-.58Zm1.6,7.22.01-.93.7.22Zm-4.13-10.05.05,1.05-.85-.37Zm-7.76,11.6.4,1.08-.93-.08Zm-1.14-4.8-.73.5-.2-.8Zm6.4,3.3-.76-.57.73-.4Zm-3.1,4.7.4.97-.93-.07Zm-.8-4.95-.75.46-.15-.72Zm6.14,3.63-.66-.52.73-.37Zm-8.04,3.83.4.97-.93.03Zm-1.14-5-.64.6-.2-.88Zm6.4,3.4-.66-.57.64-.4Zm.64,3-.37.88-.47-.7Zm13.04-12.96-.08-2.1,1.58.7Zm5.04,1.24.26-2.1,1.27.95Z" fill="#4780b5"/>
    </g>
    <path id="Path_14855" data-name="Path 14855" d="M208.23,107.3s-16.37,12.4-15.54,44.36c.28,11.4,0,16.82,1.02,31.47,1.2,15.93,1.02,25.28,1.02,25.28l37.7-.1,14.2-49.35-38.4-51.66Z" fill="url(#linear-gradient-2)"/>
    <path id="Path_14856" data-name="Path 14856" d="M362.17,208.05c-1.9-1.1-4.07-4-7.42-4.3-9.2-.88-16.5-1.65-21.8-4.15-3-1.5-46.97-24.56-51.27-28.3-5.6-4.1-25.07-36.33-25.07-36.33L230.2,147.7s25.5,37.47,34.5,42.7c7.45,4.85,17.2,8.2,31.4,12.3s26.5,6.7,37.5,9.5a47.1,47.1,0,0,0,5.56,1.56A11.594,11.594,0,0,1,361.1,219c0,.08-.01.17-.01.25s.01.17.01.25a12.662,12.662,0,0,1-.55,3.3,1.094,1.094,0,0,0,.45.5c1.8.85,2.5-2.54,2.97-6.13s.7-7.36-1.8-9.12Z" fill="#ea9d7d"/>
    <path id="Path_14857" data-name="Path 14857" d="M351.85,203.73l-10,5.78-2.8,4.38-5.47-1.56c.94-2.35,3.56-10.66,3.56-10.66-.42.05,9.1,1.6,14.73,2.06Z" fill="url(#linear-gradient-3)"/>
    <path id="Path_14858" data-name="Path 14858" d="M361.18,223.77a2.4,2.4,0,0,1-1-.24l.42-.9a1.067,1.067,0,0,0,.96.06c.44-.2,1.1-.94,1.65-3.2a34.594,34.594,0,0,0,.58-7.67c-.03-1.66-.65-2.16-1.88-3.17l-1.1-.92c-2.66-2.14-4.3-3.37-7.22-3.58a139.678,139.678,0,0,1-17.9-2.67l-.1-.03c-.14-.07-14.45-6.58-20.6-10.12l-11.2-6.34-17.8-10.2a41.2,41.2,0,0,1-9.47-8.36c-3.58-4.08-11.63-17.3-11.97-17.87l.86-.52c.08.14,8.35,13.7,11.88,17.73a39.941,39.941,0,0,0,9.26,8.18c2,1.32,10.37,6,17.75,10.16l11.22,6.34c5.93,3.42,19.56,9.64,20.47,10.05a143.052,143.052,0,0,0,17.7,2.64c3.36.25,5.32,1.82,7.8,3.82.4.36.75.64,1.07.9,1.3,1.05,2.22,1.8,2.25,3.93a33.688,33.688,0,0,1-.62,7.94c-.54,2.17-1.24,3.4-2.2,3.85a1.61,1.61,0,0,1-.8.2Z" fill="#cc7a5e"/>
    <path id="Path_14859" data-name="Path 14859" d="M327.74,195.25l-4.45,14.13a1.251,1.251,0,0,0,.67,1.4l8.14,2.42a1.251,1.251,0,0,0,1.4-.67l4.5-13.77a1.251,1.251,0,0,0-.67-1.4l-8.07-2.83a1.372,1.372,0,0,0-1.54.72Z" fill="url(#linear-gradient-4)"/>
    <path id="Path_14860" data-name="Path 14860" d="M286.23,164.34c-8.25-4.2-13.05-10.13-17.9-18.46-5.45-9.35-12.12-22.77-17.35-29.84-8.75-11.84-20.77-22.67-36.95-12.72s-11.06,35.02-6.08,47.08c5.18,12.54,13.08,27.85,30.54,43.03,17.38,15.1,44.23,22.62,64.93,25.38,10.38,1.38,19.6-1.73,22.3-9l2.85-9.94a17.65,17.65,0,0,0-9.26-22.18c-.01,0-25.12-9.28-33.06-13.34Z" fill="url(#linear-gradient-5)"/>
    <path id="Path_14861" data-name="Path 14861" d="M227.52,182.92c5.2,5.8,9.92,11.38,24.95,20.06,10.45,6.03,20.5,9.1,28.18,11.24,13.03,3.62,22.44,5.33,29.04,4.84,13.66-1.02,15.66-8.68,15.66-8.68l3.92-12.9L298.6,183.66c-12.8-6.4-55.14-4.54-68.07-17.2-15.18-14.83-8.74,10.06-3,16.46Z" fill="url(#linear-gradient-6)"/>
    <g id="Group_1000" data-name="Group 1000">
      <path id="Path_14862" data-name="Path 14862" d="M215.34,103.12l-.2,1.1-1.04-.8Zm-4.74,19.7.47-.6.38.7Zm-5.86,5.33.38-.6.38.7Zm9.18-6.45-.47-.6.76-.2Zm-2.46-15.27.76.4-.76.7Zm-4.54,12.77.85.3-.75.8Zm-2.27,1.6.85.3-.76.7Zm12.1-18.8,1.42-.6-.1,1.8Z" fill="#e6f7ff"/>
      <path id="Path_14863" data-name="Path 14863" d="M220.54,100.5l1.6-.3-.47,1.8Zm-1.6.6,1.04.5-1.04.9Zm3.12,1.4.76.4-.76.6Zm.76-2,.75.3-.75.7Zm-16,10.66.47-.5.28.7Zm4.17-2.6-.76-1.1,1.42-.4Zm-1.62,2.1-.47-.6.75-.2Zm-.76,3.92-.1.9-.85-.5Zm-2.82-.8.56.6-.85.3Zm3.96.7.66.1-.57.6Zm9.18-7.64.66.3-.57.6Zm1.98-2.52.67.3-.57.6Zm2.46-1.6.66.2-.56.5Zm.85-.42.67.3-.57.5Zm-16.73,21.42.66.3-.57.6Zm-2,1.2.76.2-.57.7Zm3.03-3.63v.8l-.76-.4Zm-.95-3.8v.8l-.75-.4Zm-2.46,2.5.38-.6.47.7Zm17.6-13.46-.28.4-.38-.5Zm-3.32-1.3.38.3-.48.2Zm-1.8,6.63.38-.3.1.6Zm.96-3.2.28.5-.57.2Zm-2.66,6.73.47-.2-.1.5Zm-5.48,11.96.47-.2v.6Zm5.96-7.44-.1-.5.56.1Zm-.38,4.73-.1-.5.47.1Zm6.63-2.2-.1-.4.47.1Zm-11.55-5.92.3.9-.95-.1Zm-2.46-8.36.67,1.7-1.9-.1Zm9.18-4.72.2.9-.95-.2Zm-13.06,12.88h.76l-.28.8Zm4.73,5.7.1-.7.66.5Zm-1.7-7.93-.28,1.2-1.04-.8Zm-.2,1.8-.2.9-.75-.7Zm-1.42-.7-.28.8-.66-.8Zm5.96-2.4.67.4-.76.5Zm-7.85,6.33.3-1.3,1.04.9Zm18.93-17.4.67.3-.67.6Zm-6.53,1.22.37-.5.38.6Z" fill="#e6f7ff"/>
      <path id="Path_14864" data-name="Path 14864" d="M225.65,101l.38-.5.3.6Zm-1.05.5-.38-.5.67-.1Zm-4.43,1.52-.1.6-.66-.4Zm1.43-1.62.28,1.1-1.23-.2Zm-2.2,1.92-.1.7-.66-.4Zm-2.92,1.4-.1.7-.66-.4Zm-.58-2,1.13.3-.85,1.1Zm4.36-1.62.57.1-.47.5Zm-3.7,5.33.38-.5.28.6Zm4.73-3.2-.2.7-.57-.5Zm5.02-.3.47.3-.57.3Zm-4.45-1.22.38-.5.28.7Zm3.13,2.42-.2.7-.57-.5Zm-.96,3.12.48.3-.57.4Zm3.13-6.44.56.3-.56.4Zm-1.14,5.43.47-.5.2.6Zm.57-3.93-.47.2v-.6Zm4.07-.4-.57.1.1-.6Zm-2.17-.6-.47.2.1-.6Zm3.02,1.1.2.6-.66-.1Zm2.08,1.32.1.6-.67-.1Zm-3.78-1.32-.67.4-.1-.9Zm-2.84,1.32.2.6-.67-.1Zm2.17.8h.57l-.28.6Zm1.9,1h.56l-.28.6Zm4.73-.4.2.6-.57-.2Zm-3.88,2.6h.57l-.3.6Zm3.12,1.9h.57l-.3.6Zm-21.1-6.23.3,2.2-2.28-.8Zm-1.8,2h.57l-.28.6Zm2.46-.8h.67l-.3.7Zm-1.23,4.42.2-.6.48.4Zm-4.73,10.25.1-.6.57.4Zm5.2-12.16.2-.6.47.4Zm-4.26.1.2.7-.76-.1Zm3.6,3,.2.7-.75-.1Zm-2.08-4.72.38,1.4-1.6-.2Zm-.75,6.84.2.7-.76-.1Zm2.27,5.93.1.7-.76-.1Zm5.1,2.9.37-.6.38.7Zm3.22-1.1-.38-.6.76-.2Zm2.56-1.8-.1-.5.48.1Zm-3.88-1.6.2.8-.76-.2Zm3.78-1.42.2.7-.75-.1Zm4.45-.3.2.7-.76-.1Zm.27-6.94.2.7-.75-.1Zm-21.18,3.92h.57l-.3.6Zm.76-.8.1-.6.57.4Zm-.38,2.6.1-.6.57.4Zm-.95,9.25v.9l-.85-.4Zm1.23-.2.66.2-.56.6Zm-2.18,3.1v.6l-.76-.3Zm3.4-1,.3.9-.95-.1Zm-3.68-2.3-.28.9-.66-.7Zm.28,1.7-.2.9-.76-.7Zm1.05,3.3.1-.6.57.4Zm.38-5.64.1-.6.47.4Zm7.57-10.44.1.7-.76-.2Zm-3.4-.9h.57l-.3.6Zm2.26,4.72.2-.6.47.5Zm-7.56-2.2.47-1,.67,1Zm4.9-3.92.57-.4.2.8Zm-1.6,0,.57-.4.2.8Zm6.8-.9-.28-.7.85.1Z" fill="#e6f7ff"/>
      <path id="Path_14865" data-name="Path 14865" d="M215.15,106.03l1.23.4-1.04,1.1Zm.57-1,.38.3-.48.2Zm-.85,3.52.28.4-.57.2Zm-2-2.32.38-.5.28.6Zm-.76,1.9-.28-.7.85.1Zm1.42,1.8-.28-.8.76.1Z" fill="#e6f7ff"/>
      <path id="Path_14866" data-name="Path 14866" d="M215.44,112.77l-.2-.7h.75Zm-2.46-5.23v1.3l-1.23-.6Zm-3.88,4.83-.48.7-.56-.8Zm2.65,2.2-.48.7-.57-.8Zm7-10.16-.48.8-.47-.9Zm1.8,3.52-.47.8-.47-.8Zm-5.96-1.3v.8l-.75-.4Zm-4.73,3.3.57.1-.47.6Zm2,0,.28-.5.38.5Zm-1.04,2.42.28-.6.48.6Zm4.35-2.02.57.1-.47.5Zm10.6,2.02.38-.1-.1.5Zm-3.12,2.2h.47l-.28.4Zm-2.1-4.33.38.7h-.85Zm-2.17,5.03-.2.7-.66-.5Zm4.73-4.93-.2.7-.66-.5Z" fill="#e6f7ff"/>
      <path id="Path_14867" data-name="Path 14867" d="M220.26,113.27l.47-.5.2.7Zm4.07-3.62.38.4-.67.3Zm-14.67,2,.3-.6.38.6Zm-1.23,7.04.57.4-.57.5Zm.95-2.62.2.7-.76-.1Zm-2.84,2.22.3.7-.86-.1Zm.56-1.7h.57l-.2.7Zm.86-.72.2-.6.47.5Zm-.86,2.42.28-.5.38.5Zm-1.22-.6.28-.6.38.6Zm10.02-8.15.1-.6.57.4Zm-5.95,6.53,1.42.7-1.33,1.3Zm-1.8-4.12,1.42.7-1.33,1.3Zm-2.67,6.14-.3.9-.75-.8Zm7.87-2.12v2l-1.98-.9Zm-2.65-7.64.1,2-2-.9Z" fill="#e6f7ff"/>
      <path id="Path_14868" data-name="Path 14868" d="M213.54,104.73l-.66,1.9-1.6-1.6Zm-5.58,7.13.1,2-2-.8Zm1.42,2.4v1.9l-2-.9Zm1.62-3.2v2l-1.9-.9Zm-2.2,4.92.57,1.9-2.08-.2Z" fill="#e6f7ff"/>
      <path id="Path_14869" data-name="Path 14869" d="M207.96,116.3l.28,2-1.98-.6Zm6.62-6.45,1.52.7-1.42,1.3Zm-5.78,7.75,1.23,1-1.6.9Zm6.35-9.76,1.04.4-.85,1Zm-3.97,6.54.57-.8.56,1Zm9.18-.1-.67-.7,1.04-.3Zm1.37,5.4-.45,1.08-.8-.96Zm-5.78-4.4.73.45-.9.55Zm-.63,9.53.7-.56.22,1.02Zm1.72-11.2h-1.13l.66-1.2Zm2.18-7.34-.28.9-.76-.7Zm-8.8,2.72.76.5-.85.6Zm1.04-3.62,1.52.7-1.33,1.3Zm2.56-.3,1.6,2-2.64.9Zm8.42-4.83,1.32,1.5-2.08.7Zm-9,8.75-.1,2.6-2.55-1.2Zm2.65-4.53,1.13,1.2-1.6.8Zm-.85-1.92,1.23,1.1-1.7.7Zm.25,16.1-.47,1-.85-1Zm-2.64,1.2-.95-.1.47-.9Z" fill="#e6f7ff"/>
      <path id="Path_14870" data-name="Path 14870" d="M217.4,119.2l.75.5-.85.6Zm-3.38-8.04.66.7-1.04.4Zm-1.8-5.73,2.65-2.4,1.23,3.82Zm-3.6,2.5,2.75-2.5,1.13,4.02Zm-2.17,3.62,2.17-3,1.9,3.7Zm12.58-8.34-.76,1.7-1.42-1.6Z" fill="#e6f7ff"/>
      <path id="Path_14871" data-name="Path 14871" d="M215.15,103.02l3.22-1.8.28,4.12ZM204.93,116.3l.95-3.62,3.12,2.5Zm10.03-1.22-1.5.2.57-1.7Zm-5.43,18.94,1.44-.73.07,1.9Z" fill="#e6f7ff"/>
      <path id="Path_14872" data-name="Path 14872" d="M205.23,132.72l1.44-.74.07,1.9Zm5.73.68,1.16,1.63-2.1.56Zm-6.16-5.3,1,1.7-2.12.44Zm.13-5.32.64,1.86-2.1-.04Z" fill="#e6f7ff"/>
      <path id="Path_14873" data-name="Path 14873" d="M204.7,133.15l1.4,1.27-1.95.97Zm3,.05,1.5,1.18-1.97,1.07Zm-1.26-1.74,1.06,1.72-2.16.25Zm1.1,5,1.5,1.36-2.03.88Zm3.4-19.17.38,2-2.08-.5Zm-.82,5.63-1.9.17.7-2.17Zm-.7-2.03-1.9-.2,1.04-2Zm-1.4,7.76,1.62.02-.9,1.65Zm2.32,7.5,1.44-.75.08,1.9Zm-2.52-10.25,1.1-.27-.15,1.28Zm.48,7.56-.08-1,1.02.42Zm7.44-5.74-.85-.2.6-.94Zm4.16,2.26.27,1.03-1.24-.13Zm-7.4.5h.96l-.4.95Zm5.56,7.7.2-.97.8.58Zm6.15-17.32.1,1.1-1.2-.5Zm-6.98-1.68.93.17-.64.86Zm3.07,9.03.35-.78.7.76Zm-7.16-8.33,1.83.93-1.8,1.6Zm1.4,6.04.72-.76.4,1.03Z" fill="#e6f7ff"/>
      <path id="Path_14874" data-name="Path 14874" d="M213.9,120.1l-.95.6-.1-1.3Zm-1.7-7.33.2.9-.94-.2Zm-6.25,7.03h.95l-.48,1Zm18.2-11.46-.95.6-.2-1.3Zm-2.46-7.14.38.9-1.04-.1Zm-5.58,7.75.94-.1-.37,1Zm-3.17,16.97-.73.85-.56-1.26Zm-4.13-6.28.5.75-.97.22Zm-3.48,8.9.88-.34-.1,1.1Zm-1.6-3.06,1.6.1-.77,1.66Zm2.2-1.03,2.2,1.2-2.23,1.73Zm1.5,2.65,1.25,2.22-2.8.48Zm-.16-9.7.38,2.6-2.74-.8Zm-.9,3.87h1.6l-.78,1.76Zm-1.96-.54,1.6.4-1.24,1.53Zm10.28,13.1.16,1.12-1.23-.24Z" fill="#e6f7ff"/>
      <path id="Path_14875" data-name="Path 14875" d="M212.52,137l-.83.5-.1-1Zm4.08-3.95.97.01-.5.94ZM206.42,119.9l-.28.9-.76-.7Zm2.6,8.73.84.17-.65.96Zm8.5-22.1.56,1.9-2.08-.2Zm-13.94,13.36.86-3.72,3.2,2.52Zm-.25,4.1.25-3.8,3.57,1.94Zm-.05,5.18-.08-3.74,3.68,1.4Zm.6,5.28-.54-3.67,3.94,1.06Zm.8,4.4-.76-3.68,3.98.72Zm8.14-13.54-.8.45-.02-1Zm2.24,1.28-1.22,1.02-.43-1.75Z" fill="#e6f7ff"/>
      <path id="Path_14876" data-name="Path 14876" d="M214.58,123.12l-.8.45-.02-1.1Zm-2,1.78-.8.35-.02-1Zm5.7,3.06-1.02.83-.37-1.24Zm-3.48-7.64.4,1.04h-1.24Zm-5.5,9.34,1.06-.2-.28,1.18Zm1.15,13.74,1.52-.64-.01,1.9Zm-3.38-1.87,1.52-.64-.1,1.9Zm.93,6.13.36.9-1.05-.03Z" fill="#e6f7ff"/>
      <path id="Path_14877" data-name="Path 14877" d="M212.75,140.84l1.4,1.25-2.02.88ZM206.92,142l1.4,1.35-1.95,1Zm1.78.5,1.4,1.35-1.93.9Zm-.27-3.73,1.4,1.35-1.92.8Zm.85,8.8,1.5,1.23-1.86,1.05Zm-.64-2.68,1.4,1.34-1.95,1Zm3.06-.58,1.43-.74v1.9Zm-3.24-10.34.93-.6.15,1.3Zm1.64,7.27-.2-.92,1.13.22Zm6.45-7h-.97l.5-1.05Zm4.75.9.46,1.05-1.26.06Zm-7.1,2.15.9-.3-.22,1.07Zm6.88,6.13.01-1,1,.5Zm-4-3.33.47,1.05-1.26.06Zm-1.68,3.12-.76.72-.27-1.03Zm4.4-5.64.9-.2-.2,1.08Z" fill="#e6f7ff"/>
      <path id="Path_14878" data-name="Path 14878" d="M205.7,143.38l-1.06-3.6,4,.53Zm1.17,3.62-1.06-3.6,4.02.33Zm11.08,15.3,1.22-.75.15,1.6Zm-2.53.4,1.15-.83.3,1.6Zm1.68,3.88,1.08-.9.35,1.58Zm-.55-2.43,1.22-.66.15,1.5Zm2.1-5.9,1.63,1.1-1.84,1.27Zm-4.6.36,1.62,1-1.84,1.38Zm-2.48-3.1,1.63.9-1.74,1.38Zm4.94,11.96-1.1-1.87,2.43-.23Zm2.8-2.46,1.43.76-1.4,1.18Zm-3.6-4.9,1.37.93-1.47,1.08Zm5.47,8.1,1.06.72-1.12.8Zm-9.95-21.07,1.5,1.14-1.86,1.14Zm3.34,5.7-1.55,1.18-.56-2.1Zm-2.2-2L210.8,152l-.52-2.2Z" fill="#e6f7ff"/>
      <path id="Path_14879" data-name="Path 14879" d="M214.44,156.02l1.35-.88.18,2Zm6.2,10.93,1.18-.75.18,1.6Zm-2.15,2.48.87-.7.3,1.22Zm-5.62-20.48.78-.8.47,1.2Zm3.7,6.5-.47-.9,1.05-.1Zm4.2-8.62-.96.3.2-1.1Zm-8.52-.34,2-.6-.44,2.36Zm7.06,3.66-.07-1,1.05.43Zm.53-5.16-.4,1.08-.84-.9Zm-6.03-4.24.75.62-.88.47Zm-.36,9.54.8-.68.26,1.1Zm6.76-12.25-.3,1.17-.97-.9Zm-6.47-3.6.8.5-.84.6Zm.72,9.48.65-.63.38.94Zm-2.42,12.78,1.36-1,.27,1.9Z" fill="#e6f7ff"/>
      <path id="Path_14880" data-name="Path 14880" d="M212.43,154.4l2.5-.18L213.86,157Zm3.64,2.13,1.9,1.6-2.5,1.38Zm-7.43-10.06,1.98,1.64-2.45,1.43Zm2.66,6.33,1.36-.78.27,1.8Zm-2.27.02,1.47-.76.14,1.8ZM222.9,163.7l-.57.6-.32-.84Z" fill="#e6f7ff"/>
      <path id="Path_14881" data-name="Path 14881" d="M210.24,151.38l.36.9-1.15-.03Zm6.68,6.55.97-.1-.5,1.1Zm-7.97-5.43-1.02-2.88,3.37.25Zm2.22,4.4-1.8-3.3,4.04-.46Zm1.7,3.78-1.7-3.3,4.04-.37Zm1.9,3.96-1.6-3.04,3.42-.06Zm3.74,6.04-1.27-1.96,2.6-.6Zm-.95-19.6-.2.9-.75-.7Z" fill="#e6f7ff"/>
      <path id="Path_14882" data-name="Path 14882" d="M216,153.05l-.4,1.6-1.43-1.2Zm3.44,3.2-.2,1-.96-.8Zm-2-8.06-.3.88-.75-.7Zm-.27,2.77-.4.8-.66-.7Zm4.65,23.83,1,.23-.67.92Zm-1.1-4.1-.66,1-.6-1.23Zm5.62.92-.68.92-.65-1.16Zm-.9,2.48-.68.92-.65-1.15Zm-6.85-19.64-1.55.78-.08-1.98Zm2.88,7.58-.83.82-.48-1.25Zm4.62,6.44-.13.7-.6-.5Zm-3.9-2.05.5.3-.5.43Zm.56,5.7.38-.4.23.56Zm4.38-17.6-.4,1-.77-.9Zm-5.26-4.13.67.6-.77.5Zm-.64,8.65.68-.5.18.9Zm11.12,18.2-.34.87-.67-.8Zm-4.6-3.6.58.53-.68.43Zm-.56,7.58.6-.43.17.8Zm-1.86-15.26-.04.67-.62-.32Zm-4.14-1.33.54.2-.46.46Zm1.4,5.52.32-.5.33.55Zm1.5,6.12.68-.52.23.96Zm-2.2-2.42,1.23-.35-.14,1.43Zm-.27-.48.58-.7.43.93Zm-1.07.2.74-.6.27,1.15Z" fill="#e6f7ff"/>
      <path id="Path_14883" data-name="Path 14883" d="M227.4,179.05l.3.55-.63.05Zm-6.88-5.35-1.24-1.92,2.34-.68Zm4.86,6.17-1.3-1.5,2-.68ZM170.8,193.65l1-.7-.9-.6Zm-1.9,3.93-.5-1.67-1.1,1.08ZM160,201.8l-.6-1.57-1.1,1.08Zm2.9,1.2-.5-1.47-1.2.88Zm5.8-27.94-1.4-1.57-.7,1.67Zm-.9,3.04-1.3-1.58-.8,1.58Zm-6.9,17.42-1.4-1.67-.8,1.67Z" fill="#e6f7ff"/>
      <path id="Path_14884" data-name="Path 14884" d="M160.4,194.24l-1.1-1.28-.6,1.38Zm13.5-27.54-.6-1.97-1.4,1.18Zm1.3,9.15-.7-1.97-1.3,1.18ZM168.6,184l-.8-1.97-1.3,1.28Zm-2.3,0-2-.4.3,1.77Zm-1.2,10.34-2-.6.2,1.77Zm4.2-13.97-2-.4.3,1.77Zm-1.8,7.67-.7-1.96-1.3,1.27Zm-8.7,10.72-.5-1.67-1.1,1.08Zm4-10.23,1.2-1.77-1.8-.3Zm14-18.98,1.3-1.47-1.8-.5Zm-2.7-7.38,1.3-1.57-1.8-.5Zm6.9-3.24,1.2-1.57-1.8-.4Zm-6.4,20.17,1.1-1.67-1.8-.4Zm-1.6,3.53,1.1-1.67-1.8-.4Zm4.1-24.68.9-1.68-1.8-.1Z" fill="#e6f7ff"/>
      <path id="Path_14885" data-name="Path 14885" d="M182.4,146.24l1-1.38-1.4-.2Zm-3.2,2.26,1.8-.3-.8-1.77Zm6.2,4.04,1.1-1.28-1.4-.5Zm-4.3-4.44,1.1-1.28-1.4-.5Zm-20.4,44.07,1-1.37-1.5-.2Zm1.2,2.36,1-1.47-1.5-.2Zm1.6-5.5-.6-1.68-1.1,1.1Zm4.4,1.77-.7-1.87-1.3,1.18Zm7.3,7.27-1,.1.4.8Zm-11-8.85,1.4.3-.2-1.18Zm-1,1.88.6-.98h-1.1Zm.4,5.6-.8-.8-.4,1.08Zm9.3-20.07,1.2-.7-1.1-.78Zm3.3-11.7,1.2-.7-1.1-.8Zm-5.3,13.57,1.2-.7-1-.78Zm-4.9,4.13-.5-1.08-.7.8Zm1.2-2.65-.5-1-.7.6Zm8.3,4.02-1.2.1.5.88Zm-4.3-9.24-1.2.1.5.9Zm.5-4.03,1.1.9.3-1.18Zm.6-2.85,1.1.8.3-1.18Zm6-17.5.5,1.67.4-1.27Zm-9.8,20.56,2.2-.4-1.2-1.57Zm1.5-3.25,2.1-.3-1.2-1.58Z" fill="#e6f7ff"/>
      <path id="Path_14886" data-name="Path 14886" d="M171.7,175.65l.8-2.07-2,.4Zm2.3-4.92.8-2.06-2,.3Zm-6.2,16.43.7-2.17-1.9.4Zm-6,9.44.8-2.07-1.9.2Zm23.1-35.02-.7-.98-.5.9ZM186.7,148l-.3,1.18,1-.2ZM178,161.78l1,.8.2-1.08Zm-.7-9.24-.5,1.08h1Zm-3,11-.3,1.08h1Zm4-13.28,1.3-.2-.6-1ZM172,188.33l-.9.2.5.6Zm3.8-1.67v.78l.6-.3Zm-5.7-2.87.8.2-.1-.7Zm-8.7,13.2-.9.1.5.7Zm3.9-1.58-.1.7.6-.2Zm-5.6-3.05.7.3-.1-.68Z" fill="#e6f7ff"/>
      <path id="Path_14887" data-name="Path 14887" d="M190.2,177.8l.7-.1-.4-.6Zm-7.7.9v-.8l-.6.2Zm-4.6-6.9v1.38l1.2-.5Zm-1.6-6.38,1.2.3-.3-1.1Zm-5.8,7.48.5-1.1-1-.1ZM187,144.57l-.6,1.08,1.1.1Zm-2.3-2.17-.6.98,1,.1Zm-.4-2.95.7.8.3-.88ZM179,149.4l.9-.4-.6-.6Zm2.2,5.4.5-.8-.8-.1Zm1.1,8.56.1,1.08.9-.4Zm-8.5,8.44.2,1.97,1.6-.8Z" fill="#e6f7ff"/>
      <path id="Path_14888" data-name="Path 14888" d="M184.9,158.93v1.18l.9-.4Zm-2.9,3.64.1,1.18.9-.5Zm5.1-13.97,2,.4-.4-1.78Zm-3.3-9.44,1.9-.5-.8-1.77Zm2.4,3.34,1.9.4-.3-1.77Zm-4.7,6.3,1.9.6-.2-1.77Zm-17.9,36.78v-1.47l-1.1.5Zm1.3,6.4-1.2-.3.2.98Zm6.2-7.08-.6,1,1,.1Zm-2.7,2.16.6,1.28.8-.9Zm-3.8-5.5,1.1-.1-.6-.98Zm-2.5,9.15.1-1-1,.3Z" fill="#e6f7ff"/>
      <path id="Path_14889" data-name="Path 14889" d="M162.1,191.98l.1-1.38-1.1.4Zm.9,6.6-1.1-.4.1,1.08Zm6.5-7.27-.6.98,1,.1Zm-1.2-11.72,2.3-1.96-2.5-1.1ZM160,199.76l1.5-1.28-1.5-.8Zm-3.5-2.75,3-.7-1.6-2.36Zm3.2-7,3-.7-1.5-2.56Zm-1.5,3.35,3-.7-1.7-2.26Z" fill="#e6f7ff"/>
      <path id="Path_14890" data-name="Path 14890" d="M161.3,186.57l3-.8-1.7-2.07Zm1.4-2.95,3-.8-1.7-2.16Zm1.4-3.15,3-.8-1.7-2.06Zm3.8-2.27,1.4-2.76-2.7-.1Zm3.2-7.57,1.4-2.65-2.7.2Zm1.7-3.23,1.4-3.44-2.7,2.16Zm-5.5,6.28,3-.78-1.7-2.17ZM155,200.43l3-.78-1.7-2.17Z" fill="#e6f7ff"/>
      <path id="Path_14891" data-name="Path 14891" d="M157.2,204.86l-.4-3.05-2.3,1.48Zm3.9-.8-.4-2.95-2.3,1.48Zm17.5-53.3,2.8,1.47.1-2.85Zm-2.5,11.5,2.3-2.06-2.5-1.08Zm-5.5,27.35,1.2.2-.2-1.08Zm-5.7.18.5-.98h-.9Zm5.4,6.3-.8-.6-.2.88Zm-3.8-20.94-1,2.26,2-.1Zm2.4-1.96-.7,2.16,2-.2Zm6.2-11.42-1.3-1.47-.7,1.67Zm-2,3.84-1.3-1.58-.8,1.77Zm5.7-9.84,1.1.9.3-1.18Zm1-2.65,1,.98.4-1.28Zm-4,2.75,2.1-.1-.9-1.87Zm1.3-2.95,2-.5-1-1.67Zm4.4,3.15.9-1.97-2,.2Z" fill="#e6f7ff"/>
      <path id="Path_14892" data-name="Path 14892" d="M183.4,157.06l-.1,1.28,1.2-.4Zm-1.1-6.5,1.2.3-.2-.98Zm-2.4,9.53.6-.98-1-.1Zm-6.1,5.7,1.4-2.85h-2.7Zm4.5-9.92,1.7-2.75-2.4-.2Zm-4.6,4.22,3-1.18-1.6-1.87Zm8-16.7,3.1-.8-1.6-2.26Zm-1.4,2.84,2.4-.7-1.1-1.96Z" fill="#e6f7ff"/>
      <path id="Path_14893" data-name="Path 14893" d="M173,161.5l-1.1,2.46,2-.3Zm1.7-2.28-.7,2.17,1.9-.2Zm-4.2,35.4,1.2.2-.2-1.08Zm-5.7.2.5-.98h-.9Zm5.4,6.4-.8-.7-.2,1Zm-1.5-9.15-.2-1.37-1.1.7Zm2.2,6.2-1.2-.1.3,1Zm4.9-8.47-.4,1.08,1-.1Zm-1.6-8.45.3-.98-.9.2Zm-.1,4.73-.7-.4v.8Zm5.3-4.33-.5.6.7.2ZM182,167.1l-.4.8h.8Zm1.2-4.14.5.5.2-.6Zm-5.8,2.84.6-.5-.6-.3Zm11.2-20.25.5-.7-.7-.1Zm-.6,7.58-.5-.5-.3.6Z" fill="#e6f7ff"/>
      <path id="Path_14894" data-name="Path 14894" d="M181.6,168.76l1-.68-1-.6Zm-3.5,4.54-.5-.9-.5.7Zm8.3-.3-1,.3.5.7Zm-4.1-1.2-1.2-.68-.1,1.27Zm6.1,2.18-.8.78.9.4Zm-3.2-9.15.6,1.08.6-.88Zm1.6-3.63-.5-.8-.5.8Zm3.2,3.24-.8.3.5.6Zm.8-6.8v.9l.7-.4Zm-1-22.52-.3-2.07-1.5.9Zm2.3,3.34,1.5-1.38-1.7-.68Zm-1.3-7.77,1.5-1.28-1.7-.78Zm7.6-1.77,1.5-1.38-1.7-.78Zm-5.3-2.36,1.2-1.57-1.8-.4Zm7.2-11.1,1.1-1.38-1.5-.4Zm-3.7,1.96,1.7-.1-.7-1.37Zm5.1,4.92,1.2-1.28-1.4-.5Zm-2.9-5.1,1.2-1.28-1.4-.5Zm-6.5,16.52,1.3-.4-.9-1Zm-5.5,4.92,1,1.08.5-1.08Zm1.2-2.77.9,1.1.5-1.18Zm7.9-16.6.4,1.67.5-1.18Zm-10.3,16.22,2.3-.1-1.1-2.16Zm3.6,3.64,1.1-1.97h-2Z" fill="#e6f7ff"/>
      <path id="Path_14895" data-name="Path 14895" d="M198.4,131.78l-.4-1.18-.8.7Zm-3.7-.68.9.9.3-.98Zm.1-9.64-.6,1.08,1.1.1Zm-4,10.62-.6,1.08,1.1.1Zm5.1-12.78,1.4-.2-.6-1Zm-3.2,21.53-.2,1.48,1.2-.3Zm-.3-6.5,1.1.5-.1-1.08Zm-7.1,6.3.7-1-1-.3Z" fill="#e6f7ff"/>
      <path id="Path_14896" data-name="Path 14896" d="M200.7,121.26l-.7,1.08,1,.1Zm2.3-8.66-.6.9,1,.2Zm-.6,2.07.7.8.3-.9Zm-5.7,3.73.9-.4-.6-.6Zm1.9,5.6.6-.78-.9-.2Zm.4,9.46-.1,1.18.9-.3Zm3.2-3.94-.1,1.18,1-.3Zm-5.5,4.53-.1,1.18,1-.3Zm7-24.7,1.6.8-.2-2.17Zm-3,7.18,2,.4-.3-1.77Zm-1.5,1.46,1.9.7-.1-1.87Zm-12.9,20.57,1.9-2.56-2.8-.2Zm2.4-3.54,1.9-2.56-2.7-.6Zm7.5-15.25,2.7,1.58.3-2.76Zm-3.5,11.42,2.7-1.67-2.3-1.47Zm-1.4-1.38-1.1-1.68-1,1.48Z" fill="#e6f7ff"/>
      <path id="Path_14897" data-name="Path 14897" d="M188.9,133.46l-1.2-1.97-.9,1.67Zm7.3-8.76.9,1,.5-1.2Zm1.1-2.46.9,1,.5-1.18ZM192,124.1h2.2l-.9-2.06Zm1.7-2.64,2.2-.1-.9-1.77Zm5.1,3.74,1-1.87-2,.1Zm1.8,1.08-.1,1.37,1.2-.4Zm-.7-6.5,1.1.4V119.1Z" fill="#e6f7ff"/>
      <path id="Path_14898" data-name="Path 14898" d="M191.9,125.88l.7-.98-1-.1Zm-2.1,8.36,1.9-2.56-2.6-.5Zm5.9-9.54,1.8-2.46-2.4-.4Zm-6.2,3.54,3.2-.6-1.5-2.26Z" fill="#e6f7ff"/>
      <path id="Path_14899" data-name="Path 14899" d="M199.7,113.5l2.4.1-.3-2.36Zm-1.8,2.15,2.1-.1-.6-1.77Zm-8.7,13.08-1.4,2.46,2.1.1Zm2.7-.78-1.1,1.96,2,.1Zm5.7,8.95-.5.7.8.1Zm1.9-3.74.5.6.3-.6Zm-6.2,1.67.7-.3-.5-.4Zm11.5-23.2.3-.7-.7-.1Z" fill="#e6f7ff"/>
      <path id="Path_14900" data-name="Path 14900" d="M208.3,105.42l1.1.3-.1-.98Zm-3,2.36,1.5.3.1-1.57Zm-3.5,3.35,2.4,1.18-.6-2.95Zm-1.4,12.97-.2,1.28,1.2-.3Zm6.8-17.8,1.1.5-.1-1.08Zm-7,8.37.7-.98-1-.2Zm4.3-1.27-.5-.5-.3.6Zm-1,11.8-.5-.78-.5.68ZM202,118v.8l.7-.3Zm-37.9,85.98-.4.88.8-.1Zm1.2-3.94.5.5.3-.7Zm-5.8,2.66.6-.4-.6-.3Zm9.8-21.05.3-.7h-.7Zm-.1,6.98-.6-.5-.2.7Zm15.3-15.23.9-.8-.9-.5Zm-3.4,4.7-.5-1-.5.8Zm8.3-.48-1,.3.5.7Zm-4.1-1.1-1.3-.68-.1,1.27Zm6.1,1.97-.8.8,1,.3Zm-3.4-9.15.6,1.1.6-1Zm-18.9,27.45-.6-.7-.4.78Zm3.6,2.85-.8.4.6.4Zm-.1-6.9.1.8.6-.4Zm8.6-10.42.3-.9-.8.1Zm-.6,4.13-.7-.4-.1.68Zm5.4-3.54-.6.6.6.2Zm-7.6,9.83-.3.7.8-.1Zm-6.1,5.22.7.3.1-.6Zm11.1-16.13-.8.98,1,.3Zm2.6-5.02.6.88.5-.88Zm-8.2,1.87,1-.5-.7-.6Zm4.3.4,1.3.5-.1-1.27Z" fill="#e6f7ff"/>
      <path id="Path_14901" data-name="Path 14901" d="M175.7,178.1l.7-.9-1-.2Zm4.9,8.27-.8-.9-.5,1.1Zm-3.4,3.83.7.5.3-.7Zm-3.9-2.35.7-.5-.7-.4Zm1,6.68-.3-.78-.5.5Zm10.9-46.63-.2-1.37-1,.68Zm2.3,6.2-1.2-.1.3.98Zm4.9-8.45-.4,1.08,1-.1Zm2.6,2.95-.3.7.7-.1Zm-1.2-2.56.7.5.3-.7Zm-3.9-2.36.6-.4-.6-.4Zm.9,6.7-.2-.78-.5.5Zm-8.6,10.93-.2-1.48-1.1.8Zm2.2,6.2-1.2-.1.3.98Zm4.9-8.57-.4,1.18,1-.1Zm2.6,3.05-.2.7.7-.1Zm-1.2-2.76.7.7.3-.88Zm-3.9-2.16.7-.5-.6-.4Zm1,6.7-.3-.8-.5.5Zm-13.7,32.95,1-.3-.6-.7Z" fill="#e6f7ff"/>
    </g>
    <g id="Group_1001" data-name="Group 1001">
      <path id="Path_14902" data-name="Path 14902" d="M342.7,209.54l1.1-.7-1-.67Zm-6.7,1.72.7-1-1.38-.3Zm-2.27.74,1.7-.98-.9-1.58Z" fill="#da7f57"/>
      <path id="Path_14903" data-name="Path 14903" d="M334.55,209.52l1.27-.6-.6-1.28Zm1.75,2.54.9.01-.4-.9Zm3.05.58-.7.5.65.4Zm.3-.94-.6.6.77.45Zm-1.06-2.22-.6.6.88.4Zm2.06.62-.7.4.6.6Zm.16,1.3-.9-.1.2.9Zm1.58-1.6-1.04-.37-.26,1.46Zm-3.65,3.8-.47-1.93-2.1,1.24Zm-3.05-.84v-1.48l-1.8.98Z" fill="#da7f57"/>
    </g>
    <path id="Path_14904" data-name="Path 14904" d="M298.46,218.2l7.15.74,7.85-25.55c4.28-14.6,4.4-16.36,4.4-16.36s-5.6-2.12-9.63-3.9a94.644,94.644,0,0,0-9.37-3.38l-13.8,45.56c-.01,0,10.44,2.32,13.4,2.9Z" fill="url(#linear-gradient-7)"/>
    <g id="Group_1002" data-name="Group 1002">
      <path id="Path_14905" data-name="Path 14905" d="M313.23,212.57l1.26-1.26.55,1.44Zm3.8,2.36,1.2-1.32.62,1.42Zm-4.23,3.24-.68-.8.84-.25Zm1.42-6.87-.7-2.02,1.8.1Zm6.5,3.56-.63-1.73,1.56.13Zm4.72-4.5-1.46-1.14,1.36-.82Zm-7.63,6.74-.7-2,1.82.1Zm-1.98-1.3-.8-2h1.72Z" fill="#4479b2"/>
      <path id="Path_14906" data-name="Path 14906" d="M318.68,214.08l-.8-1.9h1.82Zm-5.25,1.25-.05-2.1,1.7.65Z" fill="#4479b2"/>
      <path id="Path_14907" data-name="Path 14907" d="M313.37,216.37l-.42-2,1.8.37Zm5.7-6.6,1.07-1.18.5,1.3Zm-7.2,4.37.9-1.56.83,1.27Zm9.25-4.87.8-.7.28.9Zm-4.24,2.47.76.5-.64.47Zm1.32-7.2-.27.9-.52-.6Zm.66,3.22-.88.67-.1-.97Zm4.44-1.87-.6-.58.67-.32Zm-2.15,7,.4-.77.45.6Zm1.3-2.22.8-1.3.75,1.18Zm.52-1.36.3-2.36,1.77,1.08Zm4.15-9.3.24-1.86,1.34.9Zm-7.03,13.1-.84-2.2,2.03-.02Zm2.27-9,.4-1.47,1.08.8Zm3.1,3.18.3-1.53,1.02.88ZM313,208.41l-.85-.9.93-.43Z" fill="#4479b2"/>
      <path id="Path_14908" data-name="Path 14908" d="M312.74,210.2l-.85.43-.03-.95Zm-1.07-4.96.6-.83.4.78Zm6.97,4.3.38-1.04.63.66Zm4.74-2.48,3.14-.12-.92,2.8ZM321.44,211l3.2.64-1.7,2.55Zm-2.84,2.33,2.82,1.7-2.42,1.8Zm7.36-7.93-1.43-.97,1.2-.88Z" fill="#4479b2"/>
      <path id="Path_14909" data-name="Path 14909" d="M324.5,203.02l3.2-.33-.93,2.97Zm-8.55,11.16,2.23,3.12-3.28.94Zm1.52-5-1.55.56.2-1.5Zm-10.5,9.68.1-2.08,1.64.7Zm5.58-5.53-.33-2.1,1.8.46Zm-1.95.24-2,.62.28-1.9Zm2,.44-1.87.95-.07-1.9Zm-3.1-4.76,1.55-1.74.72,1.87Z" fill="#4479b2"/>
      <path id="Path_14910" data-name="Path 14910" d="M312.2,210.33l-1.18-.1.55-.94Zm5.33,1.4-.17-.94.8.2Zm-6.7,5.02.92-.48-.01.95Zm10.95-15.96-1.02.02.32-.9Z" fill="#4479b2"/>
      <path id="Path_14911" data-name="Path 14911" d="M326.36,201.7l-.22-.87.74.2ZM321,206.47l.7-.46.06.8Zm-9.07,11.18-.56-2.77,2.34.5Zm-3.33-2.45,1.63-.7-.1,1.6Z" fill="#4479b2"/>
      <path id="Path_14912" data-name="Path 14912" d="M308.8,217.67l1.45-1.18.28,1.6Zm2.34-.53-.6-.78.84-.25Zm10.94-9.24-.32-1.76,1.52.33Zm-9.53,7.03,2.08,3.32-3.4.7Z" fill="#4479b2"/>
      <path id="Path_14913" data-name="Path 14913" d="M309.42,215.3l1.55,3.64-3.45.1Zm.5-3.9-.9-.07.46-.77Z" fill="#4479b2"/>
    </g>
    <path id="Path_14914" data-name="Path 14914" d="M309.08,207.56l-1-.07.45-.77Zm-1.3,3.04-.9-.07.37-.77Z" fill="#7db7ea"/>
    <path id="Path_14915" data-name="Path 14915" d="M284.95,215.48l-.15-1.04.94.24Zm-1.5-1.45.8-1.97,1.42,1.34Zm3.2-14.4,1.06-.28-.15.9Zm-18.15,5.75,1.6-.12-.52,1.33Zm.1,2.46,1.63.04-.62,1.27Zm-4-1,1.6.07-.7,1.22Zm2.32.22,1.52-.1-.45,1.32Zm4.22-1.25.95-2.03,1.37,1.42Zm.43,4.6,1.04-2.04,1.27,1.43Zm3.66,2.12,1.06-1.95,1.17,1.45Zm-8.65-5.35.18,2.43-2.03-.76Zm-1.82-1.2.93-1.57.98,1.28Zm5.4,2.88.8-1.63,1.16,1.2Zm-8.42-4.16.6-1.23.9.92Zm21.92,7.33.9-1.98,1.3,1.36Zm-2.82-1.48-2.15-.2.9-1.72Zm2.5,2.1-2.24-.24.94-1.7Zm-8.22-4.7,2-.16-.65,1.48Zm-11.64-4.45,1.6-.1-.53,1.3Zm-1.72,2.7,1.25.07-.55.98Zm21.54,2.6,1.25.32-.7.87Zm-5.42-2.38.04,1.06-.95-.36Zm8.02-3.87-1.06.33.17-1Zm-1.45,6.42,2.28-.74-.34,2.06Zm-2.12-6.27.55.98-1,.06Zm30.22.5-.73-.7.83-.4Zm2.65,4.16.43-.78.33.64Z" fill="#4479b2"/>
    <g id="Group_1003" data-name="Group 1003">
      <path id="Path_14916" data-name="Path 14916" d="M306.95,206.94l.92.22-.52.7Zm-9.5,4.02,1.9-.05-.64,1.48Z" fill="#7db7ea"/>
      <path id="Path_14917" data-name="Path 14917" d="M299.02,215.38l1.9-.05-.64,1.48ZM297.14,212l.42-2.12,1.7,1.06Zm4.76,6.43.52-2.1,1.47,1.07Zm-4.2-.58.85-2,1.35,1.32Z" fill="#7db7ea"/>
      <path id="Path_14918" data-name="Path 14918" d="M297.44,214.77l.94-2.02,1.27,1.43Zm2.13,1.98.12-2.17,1.78.95Zm-5.37-1.55.75-2.08,1.45,1.4Zm7.9-1.88,1.54-.82-.07,1.6Zm-6.83-3.1,1.9-.03-.66,1.47Zm9.9,3.2,1.17-.1-.3,1.08Zm-5.35-.7.32,1.03-.9-.12Zm6.03-5.97-.87.55-.13-.86Zm-4.6-3.75-.2-1.23,1.04.2Zm-.2,5.87.93-.45.07.97Zm-6.7-5.57.64.77-.97.26Zm13.05-4.36-.33-.88.9.1Zm.7,4.1.73-.44.08.68Zm-6.23-3,.57.53-.64.24Zm4.36,6.55.9.44-.72.68ZM302,212.17l-1.1-.62.8-.7Z" fill="#7db7ea"/>
      <path id="Path_14919" data-name="Path 14919" d="M306.02,212.76l.26-.95.64.54Zm-7.98,1.84,1-.04-.35.86Zm6.6,3.05,1.55-.7v1.6Zm-.04-1.32,1.7-2.15v2.1Zm-2.17-.1.6-2.76,1.92,1.33Zm-4.63-7.87-.32-1.2,1.13.1Zm-1.68,2.12-1-.03.45-.85Zm2.15-5.62.9-.56.08.96Z" fill="#7db7ea"/>
      <path id="Path_14920" data-name="Path 14920" d="M302.65,212.92l.9-.6.1.85Zm2.5,2.44,1.05,3.74-3.37-.24Zm-4.1-.63,1.3,3.86-3.7-.3Zm-4.1-.6.98,3.93-3.73-.54Zm9.48-5.26-1.55-.5.98-1.17Zm-1.3-2.7-1.1-.38.8-.87Z" fill="#7db7ea"/>
    </g>
    <path id="Path_14921" data-name="Path 14921" d="M286,206.44l.08-1.1.9.38Z" fill="#4479b2"/>
    <g id="Group_1004" data-name="Group 1004">
      <path id="Path_14922" data-name="Path 14922" d="M301.92,212.1l1.1-.2-.27.94Zm-13.85-1.8,1.9-.12-.54,1.55Zm2.08,3.36,1.88-.22-.54,1.55Zm-.4-3.63.75-2.08,1.34,1.33Zm-1.04,5.83.87-2,1.44,1.3Zm-.5-1.76.77-1.98,1.43,1.3Zm3.85.02.67-1.97,1.43,1.32Zm-6.32.2.87-2,1.43,1.3Z" fill="#7db7ea"/>
      <path id="Path_14923" data-name="Path 14923" d="M287.17,209.2l1.9-.13-.66,1.48Zm10.88,3.22,1.32.07-.54.97Zm-5.95-1.12.3,1.12-.93-.13Zm7.04-5.5-1,.56-.07-.96Zm-2.6-3.6-.01-1.27,1.07.4Zm-1.44,5.7,1.06-.28-.24.92Zm-5.32-6.9.57.97-1,.07Zm1.45,4.78-.01-1.27,1.07.4Zm-1.57,2.02-1.05-.2.67-.8Zm2.96,5.54.77,3.96-3.67-.83Zm-3.5-.96.58,4-3.68-.84Zm6-13.32-.84-.65.92-.4Zm3.13,3.9.36-.75.58.6Zm-7.74-.2.97.16-.55.7Zm3.35.53-.96-.9,1.14-.4Zm3.08,5.02.55-.87.54.78Z" fill="#7db7ea"/>
      <path id="Path_14924" data-name="Path 14924" d="M288.17,207.1l.96.32-.6.7Z" fill="#7db7ea"/>
    </g>
    <g id="Group_1005" data-name="Group 1005">
      <path id="Path_14925" data-name="Path 14925" d="M275.03,210.34l1.9-.05-.74,1.5Z" fill="#4479b2"/>
      <path id="Path_14926" data-name="Path 14926" d="M275.6,210.05l2.55-1.54.25,2.5Zm-2.85-1.5.92-2.7,1.9,1.6Zm11.1,6.18,1.1-2.6.52.98Zm-4.96-4.3,1.8-.03-.54,1.46Zm.34,2.25,1.8-.16-.5,1.57Zm-11.47-9.88-.88-.18.47-.66Z" fill="#4479b2"/>
      <path id="Path_14927" data-name="Path 14927" d="M281.02,213.6l-.23-1.13.95.2ZM273,206.56l1-.67.07.97Zm10.14,5.14.66,3.3-3-.65Zm-3.64-1.87.22,4.06-3.55-1.2Zm-4.26-1.43.33,4.05-3.54-1.13Zm-4.7-.58.53,3.37-3.27-1.06Zm-7.05-2.12-.15,2.68-2.14-.93Zm17.3.68-.83-.62.84-.36Z" fill="#4479b2"/>
      <path id="Path_14928" data-name="Path 14928" d="M279.06,209.13l-1.43-1.2,1.5-.66Zm-3.76-3.86-.96-.8.95-.37Zm8.7,1.2-.8-.66.84-.42Zm-2.92.34-.8-.52.7-.53Zm-25.68-2.04.8-.82.4.95Zm5.87,1.74-1.32-.4.86-.82Zm-1.84-5.33-1.25-.45.8-.83Zm-2.3,1.3-1.25-.45.8-.82Zm21.63,3.9-1.97.26.5-1.66Zm-8.88-2.07-1.3-.26.66-.95Zm-7.85-3.93-.6-.5.66-.25Zm2.03,2.87.33-.57.4.44Zm-5.26-.28.6.13-.33.44Zm17.1-5.24-1-.6.9-.56Zm3.77,3.6.36-.84.7.56Zm-7.9,1.03.9.03-.37.75Zm-19.28-6.4-.9-.52.8-.5Zm3.3,3.18.3-.74.62.5Zm-6.9.9.8.03-.33.66Zm15.6.63-.42-.56.65-.15Zm1.57,3.17.37-.53.28.5Zm-5.17-1.1.6.23-.44.4Zm-6.72-.65,1,.07-.4.76Zm2.1,1.7,1.4-.38-.14,1.27Zm1.38.13,1,.26-.6.7Zm-.33,1.14,1.18.07-.46.82Z" fill="#4479b2"/>
      <path id="Path_14929" data-name="Path 14929" d="M250.94,200.56l-.07-.64.6.2Zm9.34,3.9-.27,2.42-2.1-.9Zm-7.24-3.3-.34,2.1-1.7-1.02Z" fill="#4479b2"/>
    </g>
    <g id="Group_1006" data-name="Group 1006">
      <path id="Path_14930" data-name="Path 14930" d="M242.72,114.6l-.8-.05.42,1Zm4.46,8.14-1.5.4,1.3,1.48Zm2.36-3.94-1.5.4,1.1,1.3Zm.56,2.04v1.83l1.98-.83Zm-2.3-4.64.22,1.84,1.8-1.15Zm-2.3-3.82.6,1.82,1.52-1.4Zm6.55,7-.08,1.84,1.95-.64Zm-4,1.22-.37,1.86,2.08-.42Z" fill="#76b9e2"/>
      <path id="Path_14931" data-name="Path 14931" d="M247.98,118.7l.13,1.8,1.8-1.15Zm4.22,4.6-.08,1.84,1.86-.68Zm-8.56-13.02,1.74-.84-1.5-1.25Zm2.1,8.3-1.1,1.1,1.57.67Zm4.2,5.78-1.46.53,1.15,1.3Zm-6.05-9.34-.94.34.86,1.05Zm3.9,6.23-.55-.66-.58.82Zm-9.14-11.47.74-.68-.86-.38Zm-2.1-5.48.18,1,.88-.7Zm3.02,2.5-.87.42.72.66Zm6.26,25-.72-.63-.1,1.04Zm-7.76-26.78.45.96.8-1.02Zm.15,2.73-.52-.35-.28.96Zm3.92.88-.8-.2.05.86Zm1.6,9.84,1.05-.43-.76-.9Zm-.6-7.4-.6.56.86.33Z" fill="#76b9e2"/>
      <path id="Path_14932" data-name="Path 14932" d="M240.25,114.2l1.03.07-.15-1.05Zm7.43,2.6-.82.22.72.76Zm-.25-3.16-1.2,1.12,1.58.68Zm-2.38.36-1.07,2.17,2.83.06Zm.25,3.17.5,2.36,2.23-1.5Zm-1.63-4.92-1.38,1,1.62.82Zm1.05-1.6-.9,1.2,1.8.35Zm1,15.92.6.83.7-1Z" fill="#76b9e2"/>
      <path id="Path_14933" data-name="Path 14933" d="M247.1,126.45l.9-.25-.65-.74Zm-3.15.85-.7.56.9.42Zm-1.1-15.96.75.5.13-1.1Zm2.3,7.93-.62.68,1.02.23Zm2.97-6.87-2.04-2.17-1.12,2.6Zm2.7,3.57-2.2-2.65-1,2.8Zm1.97,2.83-1.83-2.66-.96,2.9Zm2.6,3.9-1.58-2.28-1.46,2.2Zm-13.92-11.86.86-.02-.4-.77Zm-.68-3.74,1.34-.53-1.05-1.1Zm-1.82,6.7.83-.17-.67-.8Zm3.14-5.64.8-.2-.4-.76Zm11.27,20.18-1.38.72,1.24,1.17Zm1.75-2.47-1.4.67,1.24,1.13Zm3.25,4.8.5.86.57-.84Zm-8.53-4.6-.13,1.93,2-.72Zm.83-7-.16,1.3,1.36-.37Zm3.82,3.65-1.15.56,1.1.96Zm-3.73-.37-1.2.47,1.1,1.1Zm4.76,3.83v1.88l1.9-.77Zm-.58,1.72-.08,1.84,1.86-.68Zm-2.5-2.94-.04,1.75,1.95-.64Z" fill="#76b9e2"/>
      <path id="Path_14934" data-name="Path 14934" d="M256.68,131.26l-.05,1.93,1.92-.7Zm-.58-1.98-.14,1.9,1.96-.8Zm-2.72,1.57-1.44.58,1.24,1.18Zm-6.05-10-.96.27.7.97Zm5.57,6.86-.38-.84-.65.92Zm-9.83-3.04.65-.68-.95-.34Zm.26-4.48.13,1,1.06-.66Zm4.3,7.5-.8.5.82.6Zm-.76,9.08-.62-.58-.4.92Zm1.33-3.45.37.92.84-.95Zm2.16-.73.95.07-.5-.86Zm-5.92-.1-.87.5.85.57Zm12.86-6.6-1.73-2.68-1.33,2.14Zm1.64,3.6-1.62-2.85-1.23,2.4Zm5.03,18.16-1.44.58,1.34,1.22Zm1.88-2.14-1.4.5,1.2,1.27Zm2.33,2.72-1.44.58,1.24,1.18Zm-1.62-.8-1.48.68,1.37,1.12Zm-5.46-1.74-.14,1.9,2-.9Zm2.43-4.04-.1,1.8,2.05-.76Z" fill="#76b9e2"/>
      <path id="Path_14935" data-name="Path 14935" d="M262.45,138.06l-.1,1.8,1.93-.7Zm7.25,10.17-1.3-2.07-1.64,2.35Zm-4.35,1.3-.05,1.93,1.96-.8Zm-1.95-5.38v1.74l1.9-.6Zm3.95,7.84.3,1.86,1.73-1ZM254,130.67l.82,1.65,1.37-1.7Zm4.67,8.48,1.76-.56-1.5-1.6Zm-1.07-3.6,1.62-.5-1.27-1.62Zm3.64,5.23-1.57.64,1.56,1.2ZM266.27,152l-1.42.8,1.45.94Zm3.03-1.77-1.47.67,1.37,1.12Zm-13.65-15.5-.93.15.65,1.04Zm4.03,7.45-.5-.86-.66.8Zm-10.05-2.93.68-.58-.98-.52Zm4.8-6.55-1.68.9,1.87,1.22Zm-2.06,7.5-.62-.6-.4.92Z" fill="#76b9e2"/>
      <path id="Path_14936" data-name="Path 14936" d="M248.43,137.44l.96.3-.03-1.2Zm.57-7.04-.08.95.88-.28Zm7.76,6.86-.88.28.67.72Zm-12.92-7.72,1.07.56-.03-1.2Zm-1.94-11.08-.36.84,1.08-.08Zm9.6,14-.9.06.32.78Zm11.67,6.45-1.48.68,1.3,1.3Z" fill="#76b9e2"/>
      <path id="Path_14937" data-name="Path 14937" d="M261.2,138.18l-1.48,1.98,2.6.55Zm-.46,4.56.3,2.4,2.4-1.28Zm-4.4-12.5-.07,2.47,2.53-1.1Zm2.55,5.3-1.43.8,1.37,1.12Zm2.28-1.3-1.54.55,1.34,1.2Zm.82,18.88,1.02-.1-.8-.67Z" fill="#76b9e2"/>
      <path id="Path_14938" data-name="Path 14938" d="M259.12,134.24l.5.86.66-.8Zm2.2,9.94-.5.66.96.3Zm.24-9.92-1.45-3-1.72,2.53Zm2.43,4.24-1.64-3.07-2.45,2.98Zm2,3.22-1.84-2.83-2.36,3.02Zm2.27,4.48-1.98-3.54-2,3.17Zm3.18,4.83-1.88-2.75-2.12,3.23Zm-17.23-11.36.83.35-.02-1Zm3.78.83,1.42.5-.12-1.8Zm.68,4.3,1,.43-.07-1.12Zm-6.52-7.2.74.3-.1-1.02Zm1.7-.9.82.12-.2-.84Zm20.55,19.36-.1,1.43,1.65-.67Zm-4.67,1.78,1.55-.7-1.38-1.34Zm2.95,2.4,1.48-.82-1.4-1.24Zm-14.8-16.88,1.37-.94-1.6-1.1Z" fill="#76b9e2"/>
      <path id="Path_14939" data-name="Path 14939" d="M267.95,156.07l1.48-.82-1.44-1.14Zm-4.7.28,1,.2-.3-1.1Zm-.46-6.37.15.93.68-.58Zm7.25,3.92-.75.22.62.6Zm-16.43-8.1.87.26-.1-1.02Zm-2.3-3.57v.76l.8-.32Zm9.04,6.07-.75.22.62.6Zm-4.1,3.04,1.05.34-.07-1.12Zm5.02-.6-.03.85.88-.28Zm6.7,5.95-.9.26.63.7Zm6.7.6-.93.67,1.27.67Zm-1.8-1.68-1,1.7,2.13.2Zm-1.07-.62-1.1.52,1.18.96Zm1-1.28-.98.87,1.36.7Z" fill="#76b9e2"/>
      <path id="Path_14940" data-name="Path 14940" d="M270.28,154.33l.43.5.45-.8Zm3.12-.43-1.83-2.6-2.24,2.74Zm2.25,2.52-1.9-2-1.25,2.87Zm2.75,2.7-2.14-1.77-1,2.83Zm6.8,10.66-1.08,1.15,1.84.48Zm.7-3.28-.98,1.14,1.68.4Zm3.43,1.14-.9,1.34,1.8.23Zm-1.93.16-.9,1.34,1.8.32Z" fill="#76b9e2"/>
      <path id="Path_14941" data-name="Path 14941" d="M272.22,161.47l.55,1.72,1.46-1.46Zm10.1,3.13.77,1.63,1.44-1.5Zm-2.5-2.82.65,1.72,1.44-1.5Zm10.97,4.84-2.14-.95.01,2.8Zm-2.96,3.73,1.1,1.47,1.03-1.83Zm-4.64-3.5.74,1.73,1.36-1.62Zm9.26,2.43,1.3,1.4.72-1.65Zm-15.66-7.06-1.02,1.2,1.77.34Z" fill="#76b9e2"/>
      <path id="Path_14942" data-name="Path 14942" d="M289.96,171.7l-.6,1.47,1.7.01Zm1.42-3.12-.8,1.45,1.8.13Zm-10.53-6.24-1.1,1.25,1.65.46Z" fill="#76b9e2"/>
      <path id="Path_14943" data-name="Path 14943" d="M278.6,162.5l-.36,2.37,2.63-.6Zm-2.35-1.85.5.94.85-.92Zm10.15,14.5.65-.66-.88-.36Zm-4.8-7.66-.15,1,1.06-.34Z" fill="#76b9e2"/>
      <path id="Path_14944" data-name="Path 14944" d="M281.27,161.6l-2.8-2.15-.87,3.72Zm3.33,2.02-2.95-1.86-.57,3.75Zm3.66,2.14-3.38-2.03-.17,3.9Zm5.5,1.97-2.53-.96.04,2.8Zm-.85,6.07.7-1.13-1.48-.26Zm-13.54-4.9.4.67.5-.63Zm14.86,2.3-.56.76.9.06Zm-19.32-5.32-.74.4.9.47Zm6.42,5.42.4.67.68-.5Zm14.86-.2.06,1.22,1.33-.6Zm-.52,1-.67,1.05,1.38.3Zm.6-2.68-.5,1.27,1.5-.1Zm-1.65,1.98.7.15-.05-.8Zm2.28-2.5-2.08-.7-.02,2.33Z" fill="#76b9e2"/>
    </g>
  </g>
</svg>
