<svg xmlns="http://www.w3.org/2000/svg" width="211.899" height="155.283" viewBox="0 0 211.899 155.283">
  <g id="_87" data-name="87" transform="translate(-131.884 -95.754)">
    <g id="Group_1151" data-name="Group 1151">
      <path id="Path_16702" data-name="Path 16702" d="M342.88,158.17a1.318,1.318,0,0,0-.05-.26,1.143,1.143,0,0,0-.9-.8c-.1-.4,1-.7,1-1.3v-1.02c-.03-.54-.13-1.02-.5-1.08a1.43,1.43,0,0,0-.93-.35.67.67,0,0,1-.3-.7,1.445,1.445,0,0,0,.42-1.14.834.834,0,0,0,.02-.6,2.187,2.187,0,0,0-1.7-1.2l-5.3,1.3c-.9.4.8-1.7,1.9-2.9,1.2-1.4,1.4-3.5-1.2-1.8s-5,2.7-5.7,3.3a21.725,21.725,0,0,0-4.7,4.1c-.9,1.2-1.5,3.1-4.8,4.2-1.05.3-2.65.65-4.63,1l-.97-3.2a2.09,2.09,0,0,0-2.4-1.5c-6,1.1-25.4,4.5-34.6,5-7.6.5-5.7-16.02-20.4-39.07a31.627,31.627,0,0,0-10.55-12.72,19.914,19.914,0,0,0-9.28-4.64,20.524,20.524,0,0,0-7.2-3.52c-4.52-3.02-11-3.6-20.65-1.05-11.8,3.3-24.8,12.2-41.4,31.3-9.2,10.6-16.6,20.5-26.1,42.2-6.5,15-8.1,25.3-8.4,29.3a2.179,2.179,0,0,0,1.6,2.3l3.55.96c-1.9,8.25-2.95,13.94-2.95,13.94a22.3,22.3,0,0,0-3.2,13.6c-.1.6.7,1.3,1.5,2.1.4.5.6,1.1,1.2,1.4.4.2.6-.1,1.1.2.6.4,1.4,1.1,2.1,1.1,2.1-.1,1.8.5,2.7.7a1.784,1.784,0,0,0,1.9-.7,38.817,38.817,0,0,0,2-5c.2-1,.9,1.6,1.2,3.3.4,1.8,2,3.2,2.1.1s.7-5.7.7-6.5a22.134,22.134,0,0,0-.6-6.2c-.5-1.4-1.6-3.1-.6-6.4a80.16,80.16,0,0,1,3.84-8.14l4.96,1.34a2.06,2.06,0,0,0,2.5-1.2,156.49,156.49,0,0,1,11.7-21.6c4.07-6.2,7.72-11.17,13.24-16.32-7.77,31.35-15.74,68.7-17.64,77.62a1.693,1.693,0,0,0,1.6,2l43.9.7c5.5,0,19.5-1.3,22.2-9.2,2.27-6.55,3.9-18.93,5.12-32.9h25.96l1.92,25.7c.9,10.7,8.1,13.2,11.2,13.2h4.9l-9.57-51.55c29.04-6,42.58-13.26,46.57-15.75a2.091,2.091,0,0,0,.9-2.4l-1.98-6.52c6.2-2.68,10.18-4.58,10.18-4.58a23.308,23.308,0,0,0,12.9-5.3c.5-.3.6-1.4.8-2.4a.487.487,0,0,0-.15-.45Zm-19.38-3.65-.06.1.01-.02Zm-65.2-33.86.37.7A2.775,2.775,0,0,0,258.3,120.66Zm-123.35,97.4.02-.02.05-.1Z" fill="#fff"/>
      <path id="Path_16703" data-name="Path 16703" d="M320.55,170.9l-.17-.27ZM178,117.8l.13-.15C178.03,117.75,178,117.79,178,117.8Z" fill="#fff"/>
    </g>
    <path id="Path_16704" data-name="Path 16704" d="M343.7,154.28a2.15,2.15,0,0,0-.21-.7,1.124,1.124,0,0,0-.35-.42,1,1,0,0,0-.28-.17l-.02-.01a1.867,1.867,0,0,0-.4-.24l-.15-.06-.07-.02.06-.12.08-.2a2.426,2.426,0,0,0,.1-.45,1.768,1.768,0,0,0,.01-.23v-.03l-.01.03.02-.07a1.377,1.377,0,0,0,.04-.26,1.49,1.49,0,0,0-.04-.52,1.786,1.786,0,0,0-.22-.46l-.2-.3a3.013,3.013,0,0,0-1.91-1.09,1.034,1.034,0,0,0-.5.05l-.26.07-1.1.27-1.16.3-.8.2-.08.03-.26.1c-.07.05-.1-.02-.05-.06l.07-.13.72-.82.6-.7a4.71,4.71,0,0,0,.48-.8,3.128,3.128,0,0,0,.3-1.12,1.361,1.361,0,0,0-.4-1.08,1.506,1.506,0,0,0-1.1-.28c-.2.04-.4.1-.6.16a3.005,3.005,0,0,0-.4.17,6.107,6.107,0,0,0-.67.37l-.58.36-1.26.73-3.26,1.8a6.542,6.542,0,0,0-.66.45l.05-.04a29.93,29.93,0,0,0-3.18,2.47,13.877,13.877,0,0,0-1.44,1.52c-.45.56-.78,1.17-1.1,1.65a4.77,4.77,0,0,1-1.48,1.64,9.645,9.645,0,0,1-2.17,1.1l-.57.07a11.339,11.339,0,0,1-1.6.4l.03-.03-1.38.3-.32-1.05-.44-1.48a3.631,3.631,0,0,0-.26-.74,5.615,5.615,0,0,0-.3-.54,2.8,2.8,0,0,0-.76-.7,3.14,3.14,0,0,0-2.29-.44l-2.9.65c.82-.26-1.5.1-.86-.15a37.958,37.958,0,0,1-5.57,1.06l.24-.06c-4.8.65-8.12,1.52-12.43,1.97.22.12-2.06.35-1.47.46-4.42.8-8.13.62-9.68,1.3-2.06.17-2.33.05-3.1-.23a2.093,2.093,0,0,0,.36.08,3.062,3.062,0,0,1-1.63-.94,7.388,7.388,0,0,1-.98-1.3,19.743,19.743,0,0,1-1.42-3.06,20.832,20.832,0,0,1-1.63-3.83c.36.74.01-.23-.3-1.13.2.57.3.74-.02-.47a4.878,4.878,0,0,1-.3-.64c0-.01-.01-.06.01-.04-.54-1.5-.5-1.22-.26-.52-.03-.03-.03.04.02.26-.4-1.6-1.5-4.36-1.4-4.6a105.968,105.968,0,0,0-4.97-11.17c-.1-.45.37.36.9,1.4l-1.26-2.54a12.017,12.017,0,0,1,1.18,2.2c-1.24-3.16-3.28-6.15-5.14-9.65l-.52-.65-.1-.2c-.02.02-.17-.15-.35-.4l-.36-.93a36.8,36.8,0,0,0-1.95-3.8,28.737,28.737,0,0,0-12.1-11.55,4.416,4.416,0,0,0-1.15-.5q-1.131-.55-2.31-.99c-.48-.16-.94-.32-1.43-.45-1-.82-2-1.5-2.95-2.14a20.6,20.6,0,0,0-6.6-2.74c-.3-.07-.63-.1-.95-.16a14.79,14.79,0,0,0-2.27-1l.26.02a21.089,21.089,0,0,0-7.06-.96,27.489,27.489,0,0,0-5.7.8c-.65-.2-4.4.85-5.65,1.2l.1-.06c-3.14,1.17-6.55,2.2-9.3,3.9a2.624,2.624,0,0,1,.77-.54c-2.08,1.1-4.77,2.83-5,2.8a88.838,88.838,0,0,0-7.48,5.4,59.964,59.964,0,0,0-5.7,5.16l.15-.2c-1.35,1.52-1.93,1.78-3.47,3.44-.1.07-.23.17-.2.15-.73.83-1.87,1.97-2.94,3.1-1.1,1.1-2.13,2.2-2.7,2.87l-.16.01-2.93,3.26,1.1-1.2c-.14.64-2.37,2.33-4.28,4.88-1.96,2.24-3.38,5.03-5.37,7.38-.78,1.26.6-1.17-.64.65-.17-.04.54-.88.1-.5-1.25,1.77-2.26,2.75-3.68,5l-.16.02c-1.77,3-3.72,5.44-4.7,7.56-1.7,3.17-1.55,1.9-3.1,5.3l-.83,1.2c-.75,1.4-.34,1.12-1.22,2.66-.06-.15-1.06,1.98-.7,1-1.94,3.54-3.3,7.45-5.64,12.2-.26,1.14-1.36,3.57-1.5,4.44-.16.1-1.83,5.03-1,2.13a2.419,2.419,0,0,1,.25-.64l.01-.38a60.413,60.413,0,0,0-2.57,8.1c.27-.85.63-1.98.47-1.2-.28.88-.53,1.78-.8,2.67l.06-.6c-.4,1.33-.76,2.67-1.1,4.02l.26-.53a23.326,23.326,0,0,0-1.13,4.93c-.08,1.04.5-1.87.17.25l-.4,2.24-.2,1.27-.08.66-.04.34a3.721,3.721,0,0,0-.01.48,3.183,3.183,0,0,0,.7,1.85,3.38,3.38,0,0,0,1.65,1.1l2.55.73c-.13-.1.02-.1.3-.05-.33,1.35-.67,2.87-1.1,4.97l-.84,4.03-.73,3.87a.431.431,0,0,1-.07.1,24.02,24.02,0,0,0-2.05,4.82l-.24.56c-.13.53-.24,1.15-.4,1.67v-.04c-.1.8-.3,1.7-.3,2.1l-.02-.04q-.068.488-.09.98l-.02-.17a34.318,34.318,0,0,0,.06,3.95l.01-.18a1.47,1.47,0,0,0-.01.36.835.835,0,0,1,.08-.2,1.85,1.85,0,0,0,.3,1,3.431,3.431,0,0,0,.45.56c.3.32.55.56.8.8.34.27.55,1.08,1.46,1.58a2.154,2.154,0,0,0,.9.13.687.687,0,0,1,.13.06c.1.08.2.16.32.24h-.04a4.843,4.843,0,0,0,2,.9.964.964,0,0,0,.17,0h.3c.13.01.27,0,.4.02a1.956,1.956,0,0,1,.65.14,7.5,7.5,0,0,1,.66.42,2.26,2.26,0,0,0,1.12.25,2.65,2.65,0,0,0,1.12-.28,2.227,2.227,0,0,0,.54-.38,1.148,1.148,0,0,0,.37-.75,1.581,1.581,0,0,0,.25-.55c-.13.37.1-.13.1-.1.28-.66.57-1.35.76-1.9a1.7,1.7,0,0,0,.14-.5.423.423,0,0,0-.03-.2c.18-.48.15-.3.2-.2a1.31,1.31,0,0,1,.04-.4c.06-.1.12.03.15.08a1.447,1.447,0,0,1,.1.25l-.07-.1c.06.15.1.3.16.48l.08.3.13.56.04-.47c.1.6.08.7.06.77,0,.1-.07.1.13.77l.1-.05a3.868,3.868,0,0,0,.56,1.2,1.34,1.34,0,0,0,1.17.7c.48-.07.78-.5.95-1.04a5.889,5.889,0,0,0,.24-1.3c.07-1.7.3-3.4.54-5.16a8.7,8.7,0,0,0,.12-1.4v-1.34c-.03-.9-.08-1.8-.2-2.7a9.624,9.624,0,0,0-.68-2.67,8.6,8.6,0,0,1-.73-2.35,7.743,7.743,0,0,1,.94-4.55l.2-.22c.16-.06.55-1.68.77-1.85l.27-.7c.1-.18.33-.56.2-.22a10.29,10.29,0,0,0,.48-1.1l.4-.63q.349-.66.68-1.33a1.758,1.758,0,0,1,.3.1c-.58-.1-.34.1,1.05.44l-.97-.1,2.68.5.8.25a8.257,8.257,0,0,0,1,.27,3.026,3.026,0,0,0,3.27-1.79c.1-.25.22-.48.32-.7a6.681,6.681,0,0,1,.5-.92l1.02-2.14c.53-1.13,1.12-2.37,1.27-2.87-.3.85.85-1.33.65-.64a34.611,34.611,0,0,1,2.72-5.3l-.1.23c2.6-4.35,4.2-7.6,6.88-11.3-.24.1,1.2-1.84.7-1.46,2.52-4,5.43-6.6,6.14-8.22a17.54,17.54,0,0,1,2.23-2.2c-.7,2.55-1.38,5.18-2,8.5.17-.92-.17.37-.18.3-.77,3.38-1.6,6.98-1.33,7.1-.58,2.46-.55,1.98-.74,2.28a24.986,24.986,0,0,1-.76,4.08l.16-.9-1.23,5.5.48-1.03c-.73,2.9-.45.68-1.03,3.48l.2.01c-.96,4.03-1.8,6.33-2.8,10.2l-5.35,24.9-2.1,10.03a2.36,2.36,0,0,0,.01,1.12,2.55,2.55,0,0,0,1.39,1.7,2.457,2.457,0,0,0,1.08.22h.77l1.53.03,3.03.07,5.92.2.68.16c.3.22,4.28-.25,4.87-.04l1.8-.07c.5.05,1.57.1.68.14,1.67.03,1.7,0,2.9-.05l1.8.16c6.58.2,12.17.04,19.1.2a43.293,43.293,0,0,0,7.52-.37,34.49,34.49,0,0,0,8.78-2.3,17.159,17.159,0,0,0,4.13-2.46,12.635,12.635,0,0,0,1.73-1.7,10.345,10.345,0,0,0,1.24-2.06,10.666,10.666,0,0,0,.44-1.08l.3-1.03.55-1.98c.3-1.3.53-2.5.76-3.63,1.12-6.3,2.07-13.1,2.9-19.95l.62-5.46c3.14.06,6.98.06,10.88.02l13.1-.2c.1,1.1.2,2.2.3,3.1l-.03,1.16a26.537,26.537,0,0,1,.28,3.24l-.04-.06c.2,1.52.28,3.24.38,4l-.04-.06.15,1.85-.07-.3q.42,3.891.63,7.8l.13-.2a51.943,51.943,0,0,0,.53,6.1,22.187,22.187,0,0,0,1.77,5.7l-.06-.04a16.054,16.054,0,0,0,2.68,3.4,12.713,12.713,0,0,0,3.14,2.28,10.3,10.3,0,0,0,3.8,1.15c.78.05,1.35.02,2.06.01l2.4-.1c-1.3.05.57.07.5.1l.93-.01h.8c.04,0,.08.01.06-.05l-.34-1.8-.27-1.38-.2-.87c-.24-1.08-.45-1.8-.6-1.8-.36-2-.2-1.65-.15-1.93a15.317,15.317,0,0,1-.78-3.27l.18.7-.86-4.48-.07.92c-.37-2.4.17-.66-.3-2.93l-.2.06c-.57-3.3-.63-5.3-1.08-8.5-1.56-8.74-3.47-17.84-5.18-26.6.36-.1.8-.2,1.38-.37l1.38-.12c1.5-.3,1.02-.42,2.67-.72-.08.13,2.08-.4,1.15-.08,3.75-.7,7.44-2.06,12.33-3.17.98-.5,3.44-1.1,4.16-1.52.16.05,4.8-1.55,2.18-.48a1.935,1.935,0,0,1-.62.18l-.3.22c2.8-.66,4.9-1.8,7.56-2.74-.8.25-1.85.65-1.18.3q1.243-.438,2.47-.92l-.47.3,3.66-1.43-.55.1a22.486,22.486,0,0,0,4.4-1.86c.84-.5-1.72.63.1-.28,1.18-.5,2.64-1.2,4.16-2q.579-.3,1.14-.63l.6-.34a3.2,3.2,0,0,0,1.45-3.37c-.06-.23-.13-.46-.2-.68-.05.33-.3-.5-.6-1.36l.1-.14c-1.13-3.15-.17-1.42-1.14-4.26,2.83-1.14,5.68-2.32,8.24-3.65a3.99,3.99,0,0,0,.56-.3l.2-.1.5-.04.6-.07,1.17-.2c.78-.15,1.54-.33,2.3-.55a21.978,21.978,0,0,0,3.22-1.2,20.531,20.531,0,0,0,5.28-3.44l-.06.05a2.019,2.019,0,0,0,.7-1.27q.089-.472.14-.95c.01-.13.03-.25.04-.37.01-.06.01-.12.02-.17a1.693,1.693,0,0,0,.01-.22c.01,0,.02.02.03,0a1.439,1.439,0,0,0,.02-.54,1.514,1.514,0,0,0-.17-.55,1.922,1.922,0,0,0-.18-.28l-.03-.05c-.01-.02-.03-.03-.04-.04s.03-.05.05-.06l.07-.03.02-.01a2.19,2.19,0,0,0,.22-.22,1.412,1.412,0,0,0,.3-.6,1.021,1.021,0,0,0,.03-.3v-.16c0-.16.01-.26.01-.26a6.394,6.394,0,0,0-.03-.92Zm-1.47-1.62Zm-.02-.02Zm-.26,1.17c.2.1.3.2.5.6.3.9-.3,1.4-2.5,2.3-1.9.8-2.7.6-3,.5a.78.78,0,0,1-.4-.4c-.4-.9.3-1.4,2.5-2.4,1-.4,2.3-.9,2.9-.6Zm-1.6,6.1a3.635,3.635,0,0,1-2.5.4c-.2-.1-.2-.2-.3-.3-.2-.7.2-1,2.1-1.8a5.107,5.107,0,0,1,2-.6.756.756,0,0,1,.4.1c.1,0,.3.1.4.4.2.5-.1,1-2.1,1.8Zm-2.7-8.7c1-.4,2.3-.9,2.9-.6.2.1.3.2.5.6.3.9-.3,1.4-2.5,2.3-1.9.8-2.7.6-3,.5a.78.78,0,0,1-.4-.4c-.3-1,.4-1.4,2.5-2.4Zm-3.3.15a2.822,2.822,0,0,0,.9-.08c.06-.02.1-.03.15-.05a3.145,3.145,0,0,0-1.04.93,7.017,7.017,0,0,0,0-.8Zm-.01-.03v-.04a3.381,3.381,0,0,0,.8-.12c.08,0,.05.02-.04.05a1.507,1.507,0,0,1-.38.08c-.16.02-.28.02-.38.03ZM149.52,210.96l-.4.6c-.36.72-.13.57-.56,1.36-.04-.08-.5,1-.35.5a10.183,10.183,0,0,0-1.18,6.87c.25.6.74,1.88.94,2.2.04.03.5,2.47.14,1.1a1.08,1.08,0,0,1-.05-.32l-.1-.14a30.847,30.847,0,0,1,.46,4.03c.02-.43-.01-1,.05-.63l.01,1.36-.06-.28-.03,1c-.02.27-.08.62-.13.95l.12-.27a11.92,11.92,0,0,0-.4,2.47c0,.52.22-.95.1.13-.1.67-.23,1.52-.3,2.42-.04.46-.06.94-.12,1.27a.949.949,0,0,1-.04.2l-.02.05c-.02.03-.04.06-.07.06.07.1-.05.15-.16.05l.03-.08a1.216,1.216,0,0,1-.26-.42.582.582,0,0,1-.06-.28,1.908,1.908,0,0,0-.03-.28c-.03-.1-.06-.4-.18-.84l-.17-.3c-.1-.33-.27-.93-.34-1.2l-.2-.72c-.13-.37-.25-.96-.98-1.05.36.06.33.2.27.2s-.1-.05-.25-.07c-.18.04-.15.15-.27.26l.08-.2a2.913,2.913,0,0,0-.53.86c.06-.3.1-.32.02-.27-.06.12-.18.53-.4,1.12.07-.3.16-.58.23-.96-.12.5-.25.88-.38,1.27l-.24.75c-.2.37-.4.84-.6,1.3l-.58,1.3c-.03.05-.05.07-.08.07-.01,0,0,0-.13.1a1.782,1.782,0,0,1-.53.2,1.72,1.72,0,0,1-.61-.02,4.288,4.288,0,0,1-.46-.2c.22.1.1-.02-.16-.2-.25-.16-.55-.26-.3-.23a6.2,6.2,0,0,0-1.72-.08,1.529,1.529,0,0,1-1-.45l.1.06-.45-.33-.24-.17a2.065,2.065,0,0,0-.32-.2,1.652,1.652,0,0,0-.93-.18l-.12.01a.037.037,0,0,1-.03-.01,1.528,1.528,0,0,1-.5-.5l-.32-.47-.1-.13a.8.8,0,0,0-.15-.17l-.2-.2c-.26-.25-.52-.5-.73-.74a2.624,2.624,0,0,1-.35-.54h-.05l.04-.17c-.05-.24-.08-.92-.16-.68-.27-2.32.37-4.18.18-5.05a8.28,8.28,0,0,1,.5-1.73l-.04.25a21.868,21.868,0,0,1,1.3-3.8,8.63,8.63,0,0,1,.86-2c-.07.17-.06.18-.01.1.06-.1.18-.28.3-.48a2.5,2.5,0,0,0,.05-.29c-.02.13-.03.23-.04.3-.03.06-.03.07.02.01.02-.1.07-.25.14-.52a2.615,2.615,0,0,1,.03-.37c.01,0,.01-.03.02-.01.14-.83.1-.7.01-.3-.01-.02-.02.01-.06.12a24.476,24.476,0,0,1,.6-2.46l1.15-6.32c.1-.22.05.27-.06.87l.3-1.46a6.313,6.313,0,0,1-.22,1.3c.36-1.2.56-2.5.84-3.87.01,0,.03.01.04.01l.07.15c3.57.78,1.22.6,4.75,1.42h.66c3.22.6,1.63.7,5.23,1.33-1.4-.35-.58-.44,1.1.07h-.46c.22.05.4.1.57.13a21.463,21.463,0,0,0-1.32,2.5Zm125.35-3.9.48,2.65-.2-.53.68,3.96.02-.57a30.016,30.016,0,0,0,.8,4.8c.28.97-.17-1.86.25.17l1.56,9.8c.08-.33.24.55.44,1.46l-.1.13c.8,3.47-.03,1.33.74,4.78l.28.58c.82,3.1.06,1.74,1.02,5.16-.27-1.37.15-.7.4,1l-.2-.4c.2.93.3,1.24.4,1.87-.17-.55-.23-.26.05,1.1l-.32-.9.7,2.57.16,1.2.04.25c-.07.01-.16,0-.24.01-.4,0-.74-.01-1.04-.01a7.422,7.422,0,0,1-1.02-.07s-.28,0-.7-.01c-.2,0-.46-.01-.74-.01a6.684,6.684,0,0,1-.74-.06,14.349,14.349,0,0,1-2.55-.64c.36.07-1.25-.8-.67-.64a7.881,7.881,0,0,1-2.13-1.4,10.575,10.575,0,0,1-1.04-1.1,10.326,10.326,0,0,1-.64-1.02l.15.18a17.225,17.225,0,0,1-2.17-5.76,49.759,49.759,0,0,1-.56-6.17c-.13.2-.22-2.15-.37-1.55-.52-4.6-.24-8.44-.94-10.07a33.867,33.867,0,0,1-.1-3.6l.07.5-.65-8a32.824,32.824,0,0,1-.6-4.28c.17.84.07-.23-.01-1.2.07.62.12.8.1-.48a5.241,5.241,0,0,1-.13-.72c.01-.01.01-.06.02-.04-.17-1.63-.18-1.34-.13-.58-.02-.04-.03.03-.05.27,0-1.7-.4-4.72-.23-4.94-.45-4.9-.94-8.4-1.38-12.46.05-.47.22.48.36,1.66l-.3-2.9a14.47,14.47,0,0,1,.33,2.54c-.08-3.47-.88-7.08-1.07-11.14l-.2-.83v-.24a7.375,7.375,0,0,1-.3-1.48c.06-.58.27.01.06-2-.04-1.6-.53-4.48-.83-6.54.1,1.12,0,.76-.1.3-.12-1-.07-1.6-.2-2.35l.1-.1c-.13-.12-.43-2.65-.54-2.98.05-.58.3,1.54.4,1.78l-.76-6c-.4-2.12-.1.4-.36-.6-.25-1.88-.64-3.7-.85-5.87l-.04.7c-.6-3.52-.94-5.62-1.18-8-.32-1.63-.67-3.06-1-4.33l-.84-3.32-1.3-4c-.6-1.66-.76-1.5-.62-.53.1.96.43,2.7.73,4.2.16.74.25,1.45.35,1.96l.75,4.45.5,3.32,1,6.2,1.03,6.6,1.1,8.1,2.26,25.03,1.44,16.38c.23,1.36.37,3.3.5,5.26h-.5c-.6,0-1.23,0-1.82-.01-1.18-.01-2.27-.01-2.97.02l-.12-.1-4.38.03h1.64c-.57.3-3.3-.2-6.5.01-2.97-.04-6.02.63-9.1.5.47-4.62.85-9.2,1.02-13.6a7.635,7.635,0,0,0,.05-.91,3.918,3.918,0,0,0-.01-.6l.78-11.86.47-8.3.68-15c.16-4.46.2-7.56-.08-6.82-.3.73-.93,5.3-1.97,16.2l-.03-.3c-.48,6.48-.73,10.56-.77,15.05-.33.7-.35,5.33-.55,6.84l-.01-.15c-.03,3.97-.73,8.13-.82,11.95a3.757,3.757,0,0,1-.02-1.1,61.923,61.923,0,0,1-.6,6.76c-.5,6.63-1.58,15.82-1.96,20.05v-.3a56.119,56.119,0,0,1-.8,5.78c-.05.14-.1.33-.1.3a42.378,42.378,0,0,1-.94,5c-.18.9-.5,1.75-.7,2.53a13.683,13.683,0,0,1-.62,1.9l-.15.07a8.616,8.616,0,0,1-2.13,2.9,5.482,5.482,0,0,0,.44-.4,4.848,4.848,0,0,1-1.98,1.63,32.651,32.651,0,0,1-4.46,2.02c-3.3,1.06-6.83,2.3-10.55,2.38-1.75.23,1.54-.3-1.1-.07-.1-.16,1.22-.15.54-.25a25.037,25.037,0,0,1-3.47-.01c-1.14-.05-2.36-.1-3.96-.08l-.13-.13c-4.18.16-7.9-.3-10.67-.12-4.3.03-2.9-.42-7.38-.24l-1.74-.2c-1.92-.06-1.38.18-3.5.07.13-.1-2.7-.13-1.44-.2-2.4-.12-4.86-.1-7.5-.1-1.32,0-2.7,0-4.12-.03l-1.1-.03-.83-.03c-.06-.01-.08,0-.1-.02a.645.645,0,0,1-.45-.66l-.03-.1a1.675,1.675,0,0,1,.03-.28c.03-.22.07-.46.1-.7l.3-1.6c.2-1.08.43-2.1.46-2.63.12-.15,1.36-6.26.8-2.7a3.276,3.276,0,0,1-.2.8l.03.45c1-3.5,1.26-6.46,2.06-9.95-.27,1.03-.56,2.4-.44,1.47l.73-3.25-.05.7,1.12-4.83-.27.64a50.846,50.846,0,0,0,1.4-5.85c.17-1.23-.66,2.2-.15-.3l2.93-11.9c-.22.35.02-.74.25-1.86l.15-.1c.8-4.32.63-1.5,1.46-5.8v-.8c.64-3.9.73-2,1.4-6.34-.37,1.7-.45.73.08-1.33v.55c.24-1.15.28-1.55.5-2.3-.1.7.1.4.46-1.3l-.12,1.16.53-3.24c.7-2.43,1.48-6.36,1.9-7.33,0,0,1.37-5.26,1.48-6.5-.15,1.1.6-1.8.54-.95q.136-.833.31-1.66l.3-.28c.86-.78,1.63-1.47,2.8-2.4a23.9,23.9,0,0,1,3.28-2.93c-.62.62.22-.08,1.04-.66-.5.4-.64.54.46-.18.13-.14.35-.32.55-.5.01,0,.06-.03.04,0,1.33-1,1.07-.87.44-.42.02-.04-.04-.01-.25.1,1.48-.9,3.96-2.77,4.24-2.74l10.68-7.08c.45-.16-.34.4-1.37,1.08l2.52-1.58a13.046,13.046,0,0,1-2.2,1.46,47.963,47.963,0,0,0,4.7-2.93c1.62-1.03,3.17-2.3,4.93-3.44,0,0,9.63-9.34,8.98-9.6-.25-.1-1.48.8-2.88,1.93l-1,.93L221.29,142c-.4.36-.8.67-1.2,1a54.668,54.668,0,0,1-4.4,3.35l-2.2,1.55c-.75.54-1.6,1-2.46,1.57l-2.8,1.78-3.4,2.1c-4.75,2.9-9.7,6.2-14.07,9.5-1.95,1.72-5.65,4.46-7.76,6.74l-.94.75c-.74.77-1.55,1.72-2.34,2.44l.02-.07c-1,1.23-2.23,2.55-2.7,3.2l.02-.07c-.4.5-.82,1-1.2,1.5l.16-.3-4.7,6.6.24-.1c-1.55,2.17-2.5,3.73-3.4,5.25l-3,5.02v-.07c-1.33,2.74-2.52,4.83-3.67,6.97-.58,1.07-1.15,2.15-1.7,3.33-.28.6-.56,1.2-.84,1.86l-.72,1.77c.01-.08-.2.2-.22.16a1.032,1.032,0,0,1-.97.32l-1.8-.43c-1.1-.25-1.88-.38-1.94-.25-2.02-.55-1.62-.53-1.85-.7a17,17,0,0,1-3.37-.72l.74.15-4.53-1.18.82.47c-2.38-.7-.53-.44-2.84-1l-.02.2c-1.65-.47-2.94-.9-4.22-1.35l-2.45-.86a.876.876,0,0,1-.2-.08,1.093,1.093,0,0,1-.15-.08,1.32,1.32,0,0,1-.46-.48,1.125,1.125,0,0,1-.17-.66l.1-1.22c.1-.84.2-1.7.34-2.55.27-1.7.6-3.4,1-5.12.78-3.4,1.72-6.8,2.83-10.13a131.46,131.46,0,0,1,7.93-18.66l.38-.44c.3-.13,1.27-3.3,1.7-3.65l.6-1.37c.22-.35.68-1.1.37-.43a19.365,19.365,0,0,0,1.05-2.16l.83-1.23a138.832,138.832,0,0,1,8.36-13.3c2.1-2.7,5.2-6.54,8.46-10.36s6.65-7.6,9.22-10.3a88.54,88.54,0,0,1,26.7-19.27,5.743,5.743,0,0,0,.68-.3,2.594,2.594,0,0,0,.43-.22A45.9,45.9,0,0,1,214.9,98l1.92-.26a31.654,31.654,0,0,1,4.75-.18,17.7,17.7,0,0,1,5.84,1.2,12.385,12.385,0,0,1,2.17,1.13l1.78.27a2.2,2.2,0,0,0,.18.14,8.98,8.98,0,0,1,1.33.44c.3.2.25.24.4.38a16.5,16.5,0,0,0,1.56.93c.8.52,1.92,1.26,3.06,2.13l.86.66c.2.17.46.5.68.72a12.046,12.046,0,0,1,1.2,1.56c-.7-1.1-.42-.8-.07-.34a5.964,5.964,0,0,1,.67,1.34c.17.4.34.76.5,1.2l-.1.13a6.3,6.3,0,0,1,.58,1.36l.6,2.07c.05.7-.53-1.8-.7-2.07a36.148,36.148,0,0,1,.8,3.55c.12.6.2,1.2.45,3.65.3,2.6.1-.5.34.76a58.512,58.512,0,0,1,.25,7.28l.14-.85a78.457,78.457,0,0,1-.34,9.98l-.22,14.93c.04,2.2.2,2.05.42.87.42-2.35.96-8.8.96-8.8a165.5,165.5,0,0,0,.75-16.6c-.03-2.63-.14-5.34-.45-8.37a31.791,31.791,0,0,0-2.18-9.12,38.6,38.6,0,0,1,3.18,3.06,39.455,39.455,0,0,1,6.58,9.8c1.5,3.2,2.17,5.6,2.28,4.95a5.719,5.719,0,0,0-.12-1.08l-.2-1.02-.36-1.36a33.394,33.394,0,0,0-4.1-8.9l.18.17a32.42,32.42,0,0,0-5.42-6.26l2.25,1.5a2.67,2.67,0,0,1-.77-.42,12.882,12.882,0,0,1,1.39,1.04c.45.38.93.72,1.3,1.1a8.192,8.192,0,0,1,1.3,1.4,32.037,32.037,0,0,1,5.02,6.97l.97,1.88.76,1.8c.53,1.12.8,2.18,1.14,2.97l-.1-.2a34.529,34.529,0,0,1,1.3,4.52,1.961,1.961,0,0,1,.02.25c.7,2.03,1.44,6.07,1.9,7.74l-.08.13.94,4.15-.3-1.56c.4.47.5,3.2,1.33,6.17.57,2.83,1.82,5.6,2.28,8.58.43,1.37-.48-1.2.06.9-.14.1-.3-.96-.3-.4.5,2.04.53,3.4,1.15,5.93l-.1.13c.9,3.27,1.1,6.3,1.74,8.45.78,3.4.1,2.37,1.03,5.88l.1,1.42c.27,1.53.4,1.05.66,2.76-.12-.08.33,2.15.04,1.18.58,3.86,1.74,7.73,2.42,12.83.4,1.06.78,3.62,1.08,4.4-.06.15.95,5.1.22,2.28a2.25,2.25,0,0,1-.1-.65l-.18-.32c.32,2.92,1.1,5.2,1.62,8.06-.18-.9-.4-2.03-.18-1.3Zm45.4-28.58a1.407,1.407,0,0,1-.4.44,1.479,1.479,0,0,0-.13.08l-.24.13-.5.27a85.75,85.75,0,0,1-8.8,4.36c-3.05,1.32-6.15,2.55-9.28,3.65a145.61,145.61,0,0,1-18.49,5.24l-.55-.02c-.28-.16-3.18,1.08-3.68.98l-1.36.4c-.4.05-1.22.18-.54-.01a18.318,18.318,0,0,0-2,.5l-2.08-11.43.04-.57c.16-.28-.97-3.34-.87-3.84l-.37-1.4c-.04-.4-.17-1.27.02-.56-.25-1.32-.3-1.35-.54-2.3l-.15-1.45c-.92-5.24-2.07-9.63-3.12-15.13-1.08-6.65-3.9-19-5.73-26.08-.23-.82-.45-1.66-.66-2.5.8,1.54,1.64,3.3,2.6,5.4,2.1,4.74,3.96,9.95,5.6,14.82.5,1.12,1.02,2.73,1.67,4.4a13.593,13.593,0,0,0,2.65,4.63l.42.52.5.48c.26.17.58.3.88.46a5.14,5.14,0,0,0,1,.28,5.842,5.842,0,0,0,1,.1l.47.01.4-.01-.06.04c1.5-.18,3.18-.3,3.9-.4l-.06.04,1.8-.2-.3.08,7.56-1.04-.2-.12c5-.56,6.77-1.15,11.28-1.7l-.06.04c2.8-.66,5.04-.98,7.3-1.3l3.3-.5a1.119,1.119,0,0,1,.84.38,1.431,1.431,0,0,1,.14.2,2.669,2.669,0,0,1,.14.35l.37,1.02c-.26-.7.02.32-.03.28.83,2.6,1.7,5.37,1.98,5.33.57,1.9.38,1.57.35,1.85a15.261,15.261,0,0,1,1.13,3.06l-.25-.67,1.33,4.23-.03-.9c.62,2.27-.1.66.6,2.8l.18-.1q.58,2.018,1.03,4.07l.1.47a1.691,1.691,0,0,1,.03.3,1.13,1.13,0,0,1-.16.56Zm22.28-18.23c-.1.22-.23.5-.42.57l-.03.02a24.542,24.542,0,0,1-3.14,1.93l.1-.1a38.237,38.237,0,0,1-5.66,2.46c-.32-.07-2.13.5-2.77.5l.06-.02a5.1,5.1,0,0,1-.68.13l-.34.04-.44.03-.92.4-.83.36c-.55.24-1.1.48-1.6.76a.958.958,0,0,1,.4-.25,16.213,16.213,0,0,1-2.6,1.13c-1.12.52-2.44,1.1-3.7,1.65-1-2.6-.2-1.55-1.48-4.65.4,1.3-.08.7-.5-.92l.24.37c-.3-.88-.43-1.16-.6-1.75.22.5.25.23-.16-1.07l.4.83-.96-2.4c-.08-.33-.17-.7-.28-1.06a2.42,2.42,0,0,0,.53-.22c1.07-.23,1.3-.2,1.85-.3l-.25.07a14.931,14.931,0,0,0,2.25-.68,8.718,8.718,0,0,0,1.75-.97,11.529,11.529,0,0,0,1.52-1.8c-.2.4.12-.07.4-.5-.17.28-.2.38.2-.16a1.981,1.981,0,0,1,.16-.33c.01,0,.02-.02.02-.01.44-.67.36-.56.12-.27,0-.02-.03,0-.1.08a8.2,8.2,0,0,1,1.72-1.75c1.1-1,2.08-1.76,3.06-2.5l.02-.01.01-.01a14.535,14.535,0,0,1,2.04-1.26c.24-.06-.18.2-.7.52l1.32-.73a6.033,6.033,0,0,1-1.14.68,18.537,18.537,0,0,0,2.45-1.34l1.26-.8a5.964,5.964,0,0,1,1.27-.7.532.532,0,0,1,.2-.13h.06c-.02-.05.34-.12.4.1-.02.1-.07.13-.1.2a.478.478,0,0,0-.05.12q-.044.147-.1.29a5.75,5.75,0,0,1-.8,1.2l-.6.74c-.2.25-.52.67-.72.96.53-.67.4-.43.2-.16a6.994,6.994,0,0,0-.57.8c-.3-.07-.76.1-.97.74-.03.1.4,3.2-1.8,5.1-2.2,2-3.9,1.7-4,1.7a.51.51,0,0,0-.2,1h.4a6.352,6.352,0,0,0,4.4-2,6.949,6.949,0,0,0,2-3.37c.03.12.06.24.1.37a1.789,1.789,0,0,0,.9,1,2.286,2.286,0,0,0,.88.2,1.84,1.84,0,0,0-.38,2.1,1.789,1.789,0,0,0,.9,1,1.77,1.77,0,0,0,.47.14,1.622,1.622,0,0,0-.47,1.96,1.419,1.419,0,0,0,.8.9,2,2,0,0,0,.9.2,6.441,6.441,0,0,0,2.4-.6,7.35,7.35,0,0,0,2.13-1.17,4.432,4.432,0,0,1-.21.61Z"/>
    <path id="Path_16705" data-name="Path 16705" d="M279.53,233.7h0l-.15-.3ZM178.2,200.13h0v0Zm63.35-90.65.02-.04C241.56,109.43,241.55,109.44,241.55,109.48ZM146.83,234.05v.01l.1.14Z"/>
  </g>
</svg>
