<svg xmlns="http://www.w3.org/2000/svg" viewBox="0 0 480 480" xmlns:v="https://vecta.io/nano"><path d="M133.5 396.8l23.5-29.2 21.5 19.3-28.4 35.2-16.6-25.3z" fill="#ea9d7d"/><linearGradient id="A" gradientUnits="userSpaceOnUse" x1="151.12" y1="397.459" x2="162.081" y2="384.364"><stop offset="0" stop-color="#cc7a5e" stop-opacity="0"/><stop offset=".924" stop-color="#aa5f4b"/></linearGradient><path d="M149.8 396.1c7.3 7.9 14 9 14 9l14-17.2-22.1-18.7-14.7 18.6c-.1 0 2.7 1.8 8.8 8.3z" fill="url(#A)"/><path d="M140.2 389.4c-.2.1-.4.1-.5 0-.2-.1-.2-.4 0-.6l13.3-16.3c.1-.2.4-.2.6 0 .2.1.2.4 0 .6l-13.4 16.3c0-.1 0 0 0 0z" fill="#cc7a5e"/><linearGradient id="B" gradientUnits="userSpaceOnUse" x1="169.954" y1="397.635" x2="134.123" y2="429.671"><stop offset="0" stop-color="#af614e"/><stop offset=".235" stop-color="#ad5f4c"/><stop offset=".995" stop-color="#5a2a0e"/></linearGradient><path d="M141.5 382.1l25.1 22.5c.5.5.7 1.2.4 1.8l-.9 2 2.2 11.7s7.9 2.7 10.9 5.3c2.2 1.8 2.7 2.8 2.5 3.1-1.3 3.1-1.7 5-1.7 5l-30.4-1.8-27.1-30.2c-1.2-1.3-1.2-3.3-.2-4.7 1.9-2.4 5-6.1 8.1-8.6 3.2-2.5 6-4.8 7.7-6.2 1.2-.7 2.5-.7 3.4.1z" fill="url(#B)"/><path d="M122.7 401.5L151 433c.9 1 2.2 1.6 3.5 1.6l24.8.2c1.4 0 2.6-1.1 2.6-2.5v-3l-27.5-.8-29.9-34.2-2 2.6c-1.1 1.3-1 3.3.2 4.6z" fill="#351412"/><path d="M155.8 429c-1.2-.1-2.3-.6-3.1-1.5L124 394.6l1-.9 28.7 32.9c.6.7 1.4 1.1 2.3 1.1l25.8.6v1.3L156 429c0 .1-.1.1-.2 0z" fill="#d3a094"/><path d="M158.6 410.5c-.7 0-1.3.6-1.3 1.4 0 .7.6 1.3 1.4 1.3l8.2-.4h.1l-.5-2.6-7.9.3zm1.2 4.8c-.7.1-1.3.7-1.2 1.5.1.7.7 1.3 1.5 1.2l7.7-.9-.5-2.6-7.5.8zm1.6 4.9c-.7.3-1 1.1-.7 1.8s1.1 1 1.8.7l6.1-2.6-.6-2.4-6.6 2.5z" fill="#4c2215"/><g fill="#c67463"><path d="M158.6 415.6l-.8.2.7.7.1-.9zm1.7 5.6l-.7-1-.7 1.2 1.4-.2zm4.3-15.6l.5-1.3-1.7.1 1.2 1.2zm1.9 1.5l-.3-1.4-1.3 1 1.6.4zm13.3 18.6l-1.3-.9-.5 1.7 1.8-.8zm-11-4.1l-.4-1.3-1.1.8 1.5.5zm-11.7-23l-1.3-.5.1 1.7 1.2-1.2zm4.1 3.5l-.1-1.4-1.5.7 1.6.7zm3.5 6.9l-.8-1.2-.9 1.4 1.7-.2z"/><path d="M165.7 409.7l-.8-1.2-.9 1.5 1.7-.3zm4.3 11l-1.2-.2.3 1.3.9-1.1zm-3.1-7.8l-1.5.1.6 1.4.9-1.5zm-13.6-11.3l-1.2.9 1.3.8-.1-1.7zm3.2-6.2l-1.3.8 1.3.9v-1.7zm-6.8.4l-1.3.8 1.3.9v-1.7zm1.3-2.9h-1.5l.6 1.5.9-1.5zm7.3 8.2h-1.5l.6 1.4.9-1.4z"/><path d="M160.7 405.9h-1.4l.6 1.5.8-1.5zm-8.9-13.6l-1.2.8 1.3.9-.1-1.7zm-6.9-5.5l-1 .7 1.2.7-.2-1.4zm-.1 4.7l-1 .6 1.2.7-.2-1.3zm-1.6-8l-1 .7 1.2.7-.2-1.4zm18.4 35.1h-1.2l.5 1.3.7-1.3zm-2.1.1l-1.2.1.6 1.2.6-1.3zm21 7.9l-.9.9 1.3.5-.4-1.4zm-3.3-2.6l-.1 1.2 1.3-.4-1.2-.8zm-.6.1l-.9.9 1.3.5-.4-1.4zm-3 .4l-.6-.4-.1.8.7-.4zm3 2.1l-.6-.4-.1.8.7-.4zm1 .1l.2-.7-.8.1.6.6zm1.7.6l.2-.7-.8.1.6.6zm-12.1-5.1l-.7-1-.7 1.2 1.4-.2zm-3.6-7.5l-.8-1.2-.9 1.4 1.7-.2zm11.9 8.7l-1.2-.2.4 1.3.8-1.1zm-20.8-3.2l.5-.5-.8-.2.3.7zm9.7-6.8l-.4.9h1.1l-.7-.9zm2.5 4.1l-.8-.2.2 1 .6-.8zm-3 5.7l-.1-.8-.8.4.9.4zm9.1-1.3l-.7.6.9.4-.2-1zm3.5 1.8l-.6-.4-.2.8.8-.4zm-5.6 2.7l.3-.7-.9.1.6.6zM150 401.6l-.9.5.9.7v-1.2zm4.4 4.6l-.6-.6-.4.9 1-.3zm-8.1 1.9l.4-.7-.9-.1.5.8zm14.9-5.8l-1-.2.3 1.1.7-.9zm-9.8-2.1l-.6.8 1.1.2-.5-1zm10.2 3.4l-1.1-.2.3 1.1.8-.9zm4.5 4.9l-.5-.7-.5.8 1-.1zm-.8-2l-.5-.7-.5.8 1-.1zm-7.7 2.4l.6-.6-.9-.3.3.9zm4.7-4.9l.8-.2-.6-.7-.2.9zm-12.6 10l.5.8.7-1-1.2.2zm4.7-4.8l-.6.6.9.3-.3-.9zm1.4 8.1l-.7-.4-.1.9.8-.5zm-.5-12.2l.5.8.6-1-1.1.2zm-1.1-3.3l.5.8.6-1-1.1.2zm-5-11.3l.5.8.7-1-1.2.2z"/><path d="M156.2 401l-.4 1.5 1.7-.4-1.3-1.1zm-3.8-6.2l-1.4 1.3 1.9.7-.5-2zm-5.6 6.9l-.6-.4-.2 1 .8-.6zm-3.9-10.6l.9-.2-.6-.7-.3.9zm8.2 6.5l.4.8.6-.8h-1zm-.2-5.2l.8-.2-.6-.7-.2.9zm1.8 8.3l.8-.3-.6-.7-.2 1zm-8.2-11.7l-.5.5.8.3-.3-.8zm9.5 10.4v.6l.7-.3-.7-.3zm4.2-1l-.5.1.4.5.1-.6zm3.6 9.3l-.2-.5-.4.5h.6zm-3.3 6.5l.5-.4-.7-.3.2.7zm-3.5-2.3l.5.3.1-.6-.6.3zm5-2.2l-.2.5.6-.1-.4-.4zm-3.2 12.2l.5-.5-.6-.3.1.8zm-3.5-2.3l.5.3.1-.6-.6.3z"/><path d="M158.4 417.5l-.2.5.6-.1-.4-.4zm-3.5-6.1l.5-.4-.7-.3.2.7zm-3.5-2.2l.4.3.1-.6-.5.3zm5.1-2.2l-.2.5.6-.1-.4-.4zm-9.8-15.2l-.4.3.6.2-.2-.5zm2.4 11.8l-.4-.3-.1.6.5-.3zm-4.7-7l1 .1-.3-1.1-.7 1zm-.7-6.6l.1.9.8-.5-.9-.4zm7.4 3.4l-.8.3.7.6.1-.9zm.5 15.1l1 .1-.3-1.1-.7 1zm-.9-6.6l.1.9.8-.6-.9-.3zm7.5 3.2l-.8.3.7.6.1-.9zm-21-14.2l.7-.4-.7-.6v1zm5.1-3.2l.7-.4-.7-.6v1zm-1-3.5l.5.5.3-.7-.8.2zm3.1.7l-.4.6.8.2-.4-.8zm4.3 8.1l-.7.3.6.5.1-.8zm-.4 7.6l.8.2-.2-.9-.6.7zm5.1-2.4l1.4.2-.4-1.5-1 1.3zm-7.2 1.2l.8.1-.3-.9-.5.8z"/><path d="M148.4 400.1l.8.1-.2-.9-.6.8zm-5-11.5l.2 1.5 1.4-.9-1.6-.6zm-3.3-6.7l.3 1.4 1.4-.9-1.7-.5zm-2.4 2.5l.2 1.4 1.3-.9-1.5-.5zm.6-1.6l.3 1.4 1.3-.9-1.6-.5zm8 4.5l.2 1.5 1.3-.9-1.5-.6zm-4.3 4.8l-.5.2.4.4.1-.6zm-1.5 1.9l1.1.1-.3-1.2-.8 1.1zm-.3-7.5v1l.9-.6-.9-.4zm8 4.4l-.9.3.7.8.2-1.1zm13.2 14l-.8-.5-.2 1 1-.5zm-2 5.4l.2-.7-.9.1.7.6zm-4.6-5.6l.8.1-.3-.8-.5.7zm5.8-4.8l-.8-.5-.2 1.1 1-.6zm-2.3 6.2l.3-.8-1 .1.7.7zm-5.1-6.3l.9.1-.3-.9-.6.8zm8.6 6.5l.5.8.7-1-1.2.2zm3.7-.1l-.6.6.9.3-.3-.9zm-5.8 16.2l-.7-.4-.1.9.8-.5zm6.2-4.4l-.8-.6-.2 1.1 1-.5zm-.9 4.8l.3-.8-.9.1.6.7zm-8.1-8.1l.8.1-.3-.9-.5.8zm3.7-1.3l-1 .4.8.8.2-1.2zm3.6 5.5l-.5-.7-.5.8 1-.1zm-8.3.1l.6-.6-.9-.3.3.9zm11.3 3.4l-.4.7h1l-.6-.7zm5.4.8l-.7-.1.2.8.5-.7zm-3.1.8l-.1-.7-.7.4.8.3zm-.1-2.8l-.5.7 1 .2-.5-.9zm5.1 1.9l-.7-.2v.8l.7-.6zm-5.5 4.1v-.7l-.8.2.8.5zm-8-4.8l-1 .2.7.9.3-1.1zm1.7 2.2l-.4-.8-.6.7 1 .1zm-6 1.7l.7-.6-.9-.4.2 1zm-15.5-42.4l-1 .7 1.2.7-.2-1.4zm29.1 37l.3 2.2 2.1-1.3-2.4-.9zm-6.2-18.6l-1.8-1.3-.5 2.4 2.3-1.1zm-16.3-14.1l-.3 2.2 2.4-.7-2.1-1.5zm5.4 4.4l-.6 2.1 2.5-.4-1.9-1.7z"/></g><path d="M147.3 379.4l25.6 21.1c1.5 1.2 3.6 1 4.7-.5l48.2-60.5c15.6-16.3 20.7-26.8 25.1-45.9s14.6-70.1 14.6-70.1l2.8-17.4-67.2 1s-5.1 55.1-9.7 73.4c-3.4 13.6-6.2 30.7-10.5 38.3-5.4 9.6-28.1 46.1-34.3 56.1-.9 1.5-.6 3.4.7 4.5z" fill="#341311"/><linearGradient id="C" gradientUnits="userSpaceOnUse" x1="188" y1="290.1" x2="245.876" y2="290.1"><stop offset="0" stop-color="#341413" stop-opacity="0"/><stop offset="1" stop-color="#240f0e"/></linearGradient><path d="M245.8 311.4l-47.3-77.3c-2.2 17.3-6 42.3-8.8 54.4-.6 2.3-1.1 7-1.7 8.7 1.1.6 5.3-.2 14.1 14.9 9.5 16.5 18 34 18 34 11-13.1 18.2-18.2 25.7-34.7z" fill="url(#C)"/><g fill="#68322e"><path d="M162.4 373.1l1-.6-.8-.7-.2 1.3zm-3.6 1.5l-1.2.9 1.6.7-.4-1.6zm-7.8 5.5l1.6.7-.4-1.6-1.2.9zm17.2-25.6l-1.5.9 1.8 1.1-.3-2zm-8 8.9l-.5-1.9 1.8-1-1.9-.8v1.6l-1.3 1 1.9 1.1zm-3.9.9l1.9-1-1.9-.7v1.7zm1.9.5l-1.4 1 1.9 1-.5-2zm13.6-16.2l-1.7-.7.3 2.1 1.4-1.4zm3.3-6.4l1.4-1.4-1.7-.7.3 2.1zm-6.8 17.4l1.3-1.4-1.7-.6.4 2zm-4.2.7l.4 2.1 1.3-1.5-1.7-.6zm13-31.3l.5-.6h.2l-.1-.1.5-.7-1.3-.3-.4-.6-1.1 2.2 1.7-.4v.5zm2.8 6.5l1.2-1.2-1.4-.6.2 1.8zm-4.1-4.8l1.2-1.2-1.4-.6.2 1.8zm-23.7 40.1l.3 1.7 1.1-1.2-1.4-.5zm6.2-3.2l-1.4 1 1.9 1-.5-2z"/><path d="M165.3 378.9l.7-.8h-1l.3.8zm-9.5-11.7h-.2v.1l-.3.2.4.2.2.5.2-.3.5.2-.1-1.2-.7.3zm-1.7 2.1l.7-1-1-.2.3 1.2zm-1.4 5.6l1.2-.1-.8-.9-.4 1zm13.8-19.4l-.3 1.4 1.2-.5-.9-.9zm3.5-10l1.3-.5-1-.9-.3 1.4zm-5.6 11.6l-.3 1.3 1.3-.5-1-.8zm2.5 8.2l.7-.9-1.1-.1.4 1zm-1.5-14.8l1 1.1.4-1.1h-1.4zm-.3-5l-1.2 1.7h2.1l-.9-1.7zm-.5 9.8l1-1.9h-1.9l.7 1.4-.8-.1.4 1 .6-.6v.2zm3.1-4.4l1-1.9h-1.9l.9 1.9zm-8.9 15.1l1-1.9h-2l1 1.9zm-6.6 8.4l1-1.9h-2l1 1.9zm27.6-28l1.2.4-.4-1.1-.8.7zm-6.6-2.8l.3-.9-1.2.1.9.8zm.7-11.8l.8-.3-.6-.6 1.7-.1-.7-1.3-1 1.4-.2.8-.1-.1-.8 1.1 1.3-.1-.4-.8zm-12 36l.2.4-.6.4 1.1.4-.1-1 .2-.3-.8.1zm4.7-.4l.6-.1-.5-.6-.1.7zm-5-4.3l.7.3v-.7l-.7.4zm-10.7 11.7l.4.7.5-.8-.9.1zm4.7-.4l.6-.2-.5-.6-.1.8zm-4.4-4h0l1-.1-.4-.7.4-.4.7.8.2-1.3.2-.7-1 .1.5.7h-.2l-1.4-.4v.3l-.4-.7-1.7 2.6 2.1-.2zm33-9.6h.8l-.3-.6-.5.6zm-5.9 3.5l.1-.7-.7.1.6.6zm-7.2-10.5l1.2-.3-1.1-1.1-.1 1.4zm.4-8.4l-1 .6 1.1.5-.1-1.1zm-7.7 6.9l.7-.9-1-.2.3 1.1zm19.1-22.8l-.4-1.2-.6 1 1 .2zm-2.3-2.3l-.4-1.1-.6 1 1 .1zm0-3.2l.3-.8-.5.1-.9-1.2 1.8-.4-1-1.3 1.8-.4-.1-.1 2.4-1.9-2.4-1.2v3l-.9-1.2-1.6 3.4-.1-.1-1.1 2.2 2-.5.3.4zm-4.6 12.6l-.7-.2.4-1.1-1.4.2.9.9.1.3h-.6l.9 1.8 1-1.9h-.6z"/><path d="M177.8 345.5l-.5-.4.3-.1-.9-.9-.1 1.1.2-.1v.6l1-.2zm-10.5 6.4v2l1.6-.6-1.6-1.4zm11.9-9.3l-.1 1.1 1-.2-.9-.9zm4.2-12l-1.6 1.2-.3-.6-.4 1.1 1.1-.1-.2-.4 1.9.5-.5-1.7zm-.1-5.5l-1.7 1.2 1.9.5-.2-1.7zm2.2-14.2l-1.6.9 1.7.8-.1-1.7zm1.4-3.8l-1.5-.3.9 1.4.6-1.1zm-4.1 13.8l-1.7.1 1 1.8.7-1.9zm1.9-11.5l1.9-.1-1.3-1.5-.6 1.6zm-3 13.8l-1.7 1.2 2 .5-.3-1.7zm-3.7 7.2l-1.8 1 1.8.7v-1.7zm-22.2 40.4l-1.1-.5v1l1.1-.5zm7.1-6l-.7.9 1 .3-.3-1.2zm-3.1 1.6l.4 1.3.9-.7-1.3-.6zm-2.4-6.8l-.7.9 1.2.1-.5-1zm-5.3 17.5l1-.6-1-.5v1.1z"/><path d="M160.3 370.2l-.7.9 1 .2-.3-1.1zm22.3-54.7l-.4.9h.9l-.5-.9zm-32.5 61.8l1.6-1.1-1.5-.9-.1 2zm3.6-10.5l.9.5-.1-.5 1.1-1.3-1.7-.6.1.8-.7.5-.6-.9-1.7 2.6 3-.3-.3-.8zm2.2-2.2l-.4-.7.1-1-.6.2-.5-.8 3-.3-.2-.3.6.3-.3-1.1-.5.4-.9-1.5-3.4 5.2 3.1-.4zm6.2-8.8l-1.7-.3-.6-1.4 1.9.2-.1-.1 1.5.1-.9-1.9 1.4-.1-1.2-2.1h1.8l-.9-1.7-1.2 1.7h.1l-1.5 2.4 1.4-.1-.7 1.3-.8-1.1-.8 1.3-.1-.2-1 1.9h.9l.5 1.8-1.1-1.5-.9 1.4-.3-.5-1.7 2.6 2.4-.2 1.1.6-.3-1.2-.3.2-.8-1.4 1.9.2.2.6 1.1-1.6-.2 2.5 2.6-1.6-2-1.3.3-.5zm4.1-7.7l.9.9.4-1.1-1.1.1.1-.1-2.6-.5.9 3 1.4-2.3zm-17.4 28.2l-.1-.2.3.1-.4-1.6-.3.3-.3-.9 2.2-.2-.4-.7 1.5.2-.9-1.3h.6l-.9-1.5-.8 1.3h.6l-.4.7-.6-1.1-1.7 2.6h.2l-1.3 2 2.7.3zm.7 2.7l-.3-1.4-.6.4v-1.3l-2.3.4 2.1 2.4-.6.3 2.5 1.9v-3l-.8.3zm-.9-.3l.7.3-.7.3v-.6zm35.7-66.2l-1 2.1 2.3-.4-1.3-1.7zm.2 5l1.8-1.5-1.8-.9v2.4zM160.6 375l-.7-.7-.3.8 1-.1zm13.4-35.9l.4-1.1H173l1 1.1zm4.8.7l-.1 1.4 1.2-.3-1.1-1.1zm.5-6l-.1-1-1 .6 1.1.4zm-7.9 6.1l.7-.9-1-.2.3 1.1zm6.8-15.8l-1.7 2.7 3.1-.4-1.4-2.3zM167.8 342l.7.1v.3l.3-.2.8.1-.3-.5h1.2l-.8-1.6 1-.1-.2 2.8 2.6-1.7-2-1.2h.2l-1.2-2.1h1.1l.1.4.4-.4h.2v-.1l.1-.1v.2l.6-.7.1-.1 1.1-1.6-1.5-.3h1.3l-.3-.5.3-.9 2.2 1.3.3-2.7-2.7 1-.6-.3.4 1.5-.6-1.1-1.1 1.6h-.1v.1l-.4.9.6.1.1.5-.7-.3-.1-.2-1.1 1.7-1.7 2.7 1.1-.1-.3.6-.7-.3v.4l-.6 1-.1-.5-1.4 2.2h1l.1.4-.6-.1-.1-.2-.1.1-.6-.1.2.7-.4.7.7.1v.1l-.7.4 1 .6.1.3.1-.2.6.3-.2-.9.3-.6.2.6.7-.9h.3l-.1-.3.9-1.3-1.6-.2-.1-1.4zm-6.9 31.6l1.1.4-.1-1.1-1 .7zm-5.3-.9h0l.2-.4-.9-.1.1.3-1.3-.5v1.7l1.5-.8.1.3.3-.5zm3.4 7.4l1-.1-.7-.7-.3.8zm.4-9.2l-.1-1.4-1.1.6 1.2.8zm.6 7.1l.9-.8-1.1-.3.2 1.1zm6.2-7.4h1l-.6-1.1-.4 1.1zm5.1-2.2l.3-.9-.8.1.5.8zm-1.3 4.7l.8-.2-.7-.4-.1.6zm5.8-3.2l.7.3v-.8l-.7.5zm-10.4 6.5l1-.1-.4-.7-.6.8z"/></g><path d="M268.4 206.1l-2.9 33.8-28.4-33.7 31.3-.1z" fill="#260807"/><path d="M323.1 421.2l-18.7-31.4 24-13.3 23.4 37.5-28.7 7.2z" fill="#ea9d7d"/><path d="M318.3 413.5c-.2 0-.3 0-.4-.2l-8.6-14.3c-.1-.2 0-.5.2-.6s.5 0 .6.2l8.6 14.3c.1.2 0 .5-.2.6-.2-.1-.2 0-.2 0z" fill="#cc7a5e"/><linearGradient id="D" gradientUnits="userSpaceOnUse" x1="328.309" y1="403.885" x2="323.541" y2="394.459"><stop offset="0" stop-color="#cc7a5e" stop-opacity="0"/><stop offset=".924" stop-color="#aa5f4b"/></linearGradient><path d="M326.9 404.7c10-4.7 13.7-8.5 13.7-8.5l-10-17-24.6 12.6 9 16.2s4.7.1 11.9-3.3z" fill="url(#D)"/><linearGradient id="E" gradientUnits="userSpaceOnUse" x1="341.15" y1="388.306" x2="359.64" y2="431.793"><stop offset="0" stop-color="#af614e"/><stop offset=".235" stop-color="#ad5f4c"/><stop offset=".995" stop-color="#5a2a0e"/></linearGradient><path d="M315.5 410.7l28.1-15.8c.9-.6 2.2-.4 3 .4l1.1 1s21 3.1 29.9 3.5c3 .1 6.9.2 7.9 2 .6 1.1 1 2.4 1.5 3.4.7 1.5.1 3.1-1.4 3.8l-58.8 25.8c-1.6.7-3.5.2-4.5-1.3-1.7-2.6-3.7-6.8-4.9-10.5-1.2-3.6-2.4-6.8-3.2-8.9-.4-1.3.1-2.8 1.3-3.4z" fill="url(#E)"/><path d="M326.9 434.7l58.9-25.9c1.5-.6 2.1-2.3 1.4-3.8l-1.5-2.9-64.8 28.6 1.5 2.7c1 1.5 2.9 2.1 4.5 1.3z" fill="#351412"/><path d="M321.1 431.2l-.5-1.2 65-28.4.5 1.2-65 28.4z" fill="#d3a094"/><path d="M347.2 404c-.2.7.2 1.4.9 1.6s1.4-.2 1.6-.9l2.2-7.8v-.1l-2.7-.4-2 7.6zm7 .5c-.1.7.3 1.4 1 1.6.7.1 1.4-.3 1.6-1l1.6-7.5-2.6-.3-1.6 7.2zm7.3 0c-.1.7.4 1.4 1.1 1.5s1.4-.4 1.5-1.1l1-6.4-2.6-.4-1 6.4z" fill="#4c2215"/><g fill="#c67463"><path d="M351.9 406v.8l.9-.4-.9-.4zm5.7.2l-1.2.3.9 1.1.3-1.4zm-13.2-9.1l-1-.9-.5 1.6 1.5-.7zm2-1.2l-1.4-.1.6 1.6.8-1.5zm16 2.7l-1.6-.1.5 1.7 1.1-1.6z"/><path d="M361.6 398.1h-1.3l.4 1.3.9-1.3zm-21.7 1.1l-1.3-.3.2 1.6 1.1-1.3zm7.7-1.1l-1.3.4 1 1.3.3-1.7z"/><path d="M348.8 397.7l-1.4.4 1 1.3.4-1.7zm17.9 1.2l-1.2.4.9 1 .3-1.4zm-14.5-2.1l-.4 1.4 1.6-.1-1.2-1.3zm-15.2 9.6l.4 1.4 1.3-1-1.7-.4zm1.1-4.8l-.4 1.5 1.5-.2-1.1-1.3zm5.3-.8l-.4 1.4 1.6-.1-1.2-1.3zm10.9-3.5l-.4 1.1 1.4-.1-1-1zm-.6 3l-.4 1.1 1.4-.1-1-1z"/><path d="M379.2 401.4l-.4 1.1 1.4-.1-1-1zm-1.4-.8l.4 1.1.9-1-1.3-.1zm-4.9-.7l-.4 1.1 1.4-.1-1-1zm.9 4.6l-.7-.1.2.8.5-.7zm.1-2.4l-.7-.1.2.7.5-.6zm1.7 2l-.1-.7-.7.4.8.3zm2.4-2.4l-.1-.7-.6.4.7.3zm-24.9-4.2l-1.1.3.9 1.1.2-1.4zm-.5 3.5l-1.3.4 1 1.3.3-1.7zm19-1.2l-1.2.3.9 1.1.3-1.4zM355 411.1l-.3-.6-.4.6h.7zm-3.4-11.3l.7.7.3-1-1 .3z"/><path d="M353.8 398.8l-.4.7.9.1-.5-.8zm6.8 4.7l-.8-.2.2 1 .6-.8zm9.7-4.1l-.3.8h1l-.7-.8zm5.8 1l-.8-.1.2.9.6-.8zm-5.2 5.6l-.1-.8-.7.4.8.4zm-29.2.9l-.7.3.7.6v-.9zm-.8 8.2l-.5-.6-.4.8.9-.2zm-.8-15.8l-.5.9 1.1.1-.6-1zm1.5 0l-.5.9 1.1.1-.6-1zm6-2.7l-.8.3.6.7.2-1zm-2.2.1l-.8.2.6.8.2-1zm-.2 8l-.5-.7-.5.8 1-.1zm-3.1-5.9v-.8l-.8.4.8.4zm5.3 15l1-.2-.7-.9-.3 1.1zm-3-6l.4.7.5-.7h-.9zm8.2 1.3l-.6.5.8.4-.2-.9zm-11.7-3.5l1-.2-.8-.9-.2 1.1zm-3.5.1l.9-.3-.8-.9-.1 1.2zm-.1-2.2l1.3.9.2-1.7-1.5.8zm-7 1.6l.8 1.7 1.3-1.5-2.1-.2zm4.7 7.5l-.6.4.8.4-.2-.8zm-11.2.2l.1-.9-.9.3.8.6zm21.7-12.4l-.5.1.3.5.2-.6zm4.9 5.2l-.2-.6-.5.6h.7zm-3.2 2.6l.4-.3-.6-.3.2.6zm-.4-5.5l.4.4.1-.6-.5.2zm10.6 6.1l-.2-.6-.5.5.7.1zm-3.3 2.5l.4-.3-.5-.3.1.6zm-.4-5.4l.4.3.2-.6-.6.3zm-7 2.2l-.2-.6-.5.5.7.1zm-3.2 2.6l.4-.4-.5-.3.1.7zm-.4-5.5l.4.4.1-.6-.5.2zm26.5-3.8l-.2-.5-.4.4.6.1zm-2.8 2.1l.3-.3-.4-.3.1.6zm-.3-4.4l.3.3.2-.5-.5.2zm-29 11.9l-.4.3.5.3-.1-.6zm-8.1 2.2l.4-.9-1.1-.1.7 1zm13.5-2.9l.4-.9h-1.1l.7.9zm-1.1-7.3l.1.9.8-.5-.9-.4zm-20 15.1l-.2-.9-.8.5 1 .4zm-6-2.7l1.4.3-.4-1.5-1 1.2zm-1.2-1l1.4.2-.4-1.5-1 1.3zm9.9-.4v.6l.6-.3-.6-.3zm1.2 2l.5-1-1.2-.2.7 1.2zm-7.1-2.2l.9.3-.2-1.1-.7.8zm24.1-13.9l-.7.6.9.5-.2-1.1zm4.5 3.6l-.6-.4-.2.8.8-.4zm-6.8 2.5l.3-.7h-.8l.5.7z"/><path d="M337.8 399.1l-.8.6 1 .5-.2-1.1zm5 4.1l-.6-.5-.2 1 .8-.5zm1.4-3.2l1-.2-.7-.9-.3 1.1zm1-3.6l.4.8.6-.7-1-.1zm8.3 1.6l-.6.6.8.4-.2-1zm1.4.5l-.8.6 1 .5-.2-1.1zm5.1 4.1l-.6-.5-.2.9.8-.4zm-7.8 2.7l.3-.8h-1l.7.8zm1-2.5v1l1-.5-1-.5zm6.3-1.7l-.8.3.6.7.2-1zm-2.5 7.8l-.4-.7-.6.8 1-.1zm7.8-5.2v.9l.9-.4-.9-.5zm5.2-1.3l-.7.1.5.6.2-.7zm-2.1 6.5l-.3-.6-.5.6h.8zm-2.7-8.6l-.2.7.9-.3-.7-.4zm5.4-.4l-.7.1.4.7.3-.8zm-3.3 5.9l-.3-.7-.5.6.8.1zm-6.3-7l-.8.6 1 .5-.2-1.1zm5.1 4.1l-.7-.5-.2.9.9-.4zm-7.8 2.6l.3-.7h-1l.7.7zm-41.8 6.6l.3 1.2 1.1-.9-1.4-.3zm49.8-12.5l-.2 2.2 2.3-.8-2.1-1.4zm-25.1-3l-1.8 1.3 2.1 1.2-.3-2.5zm-12.7 7.1l1.8 1.2.5-2.4-2.3 1.2z"/></g><path d="M339.6 385.6c-5.4-11.8-28.3-62.5-34.5-79.6-7.9-22-25.6-58.8-31.7-73.3-4.1-9.7-8.2-20.4-10.5-26.5h-67.7c-.8 4.6-1.8 15.2 2.7 26.7 5.1 13 18.3 32.8 30.9 52.1l43.3 65.1 33 52.5c.9 1.4 2.6 1.9 4 1.1l29.1-14.4c1.4-.7 2-2.3 1.4-3.7z" fill="#441b18"/><path d="M311.5 400.8l.5.7.4-.6-.9-.1z" fill="#ad5c49"/><path d="M311.3 400.2c-.3-.6-30.3-54.2-41.4-74.3-9-16.3-21-33.5-39.3-59.3-7.3-10.4-17.2-26.4-22.6-43.8-3.3-10.5-3.4-16.4-3.4-16.6h1.4c0 .2.7 24 25.8 59.7 18.3 25.9 30.3 43.1 39.4 59.5l41.4 74.3-1.3.5z" fill="#772e1f"/><linearGradient id="F" gradientUnits="userSpaceOnUse" x1="280.83" y1="336.9" x2="339.711" y2="336.9"><stop offset="0" stop-color="#341413" stop-opacity="0"/><stop offset="1" stop-color="#240f0e"/></linearGradient><path d="M338.1 389.3c1.3-.7 1.9-2.2 1.3-3.6l-22-50.1c-2.9-6.2-8.3-17.8-11.1-26.2-5.1-15.5-16.4-39.5-16.4-39.5s-10.5 21.4-9 35.7 27.2 98.3 27.2 98.3l30-14.6z" fill="url(#F)"/><g fill="#260807"><path d="M245.6 311.7c-.2-.2-16-23.1-28.1-41.9-12.8-19.9-19.2-32.6-19.3-32.8l.9-.4c.1.1 6.5 12.8 19.3 32.7 12.1 18.8 27.9 41.6 28.1 41.9l-.9.5zm-52.8 49.1l-1.1.4.7.8.4-1.2zm3.6-2.7l.2 1.7 1.3-.8-1.5-.9zm-4.6 23l1.1-1.3-2-.5.3.7-1.6-.3.6 2h-1.5l1 2.3-1.8-.2.7 1.8 1.4-1.6h-.1l1.8-2.2h-1.4l.9-1.4.6.7zm-6 7l-.9-.7-.1-.3-.1.2-.6-.4.1 1-.4.5-.1-.6-2.1 2.3 1.6.4.3 1.4-.8-.2v-.5l-.6.4-.3-.1.1.1-1.2-.2.2-.9-2.7 1.4 1.8 1.5h-.2l1 2.2-1.2-.1v-.5l-.4.3h-.2v.1l-.4.3v-.6l-2.1 2.3 2.2.7v-.3l.1.4.7-1-.8-.2-.1-.6.9.5.1.2 1.2-1.6 2-2.5h-1.6l.4-.7 1 .6v-.1l.1.1 2.4-3-1-.1-.1-.5.6.2.1.2.1-.1.6.2-.1-.8.5-.7-.7-.1v-.1h.7zm-5.7 5.2l.3-1.6.5 1.6h-.8zm4.4-16.4l.1 2 1.6-.8-1.7-1.2zm13.1-6.9l-2 .8 1.8.9.2-1.7zm3.6-8.9l-1.6.6-.1-.3-.3.4h-.1l-.3.4.9.2-.1-.3 1.3.7.3-1.7zm-7.4 11.4l1.5-.8-1.8-1.2.3 1.9-2 .8 1.8.9.2-1.6zm16.7-22.9l-1.4.5h-.5l.1.1-.2.1.3.2-1.1.4 1 .7.1-1 .2.1.2.3v-.1l1 .5.3-1.8zm-14.8 19.8l1.5-.9-1.8-1.2.3 2.1zM182 383.2l-1.6 1.2 1.6.9v-2.1zm-5.5 9.9l-.1-2.1-1.6 1.2 1.7.9zm8.6-19.9l-1.5 1.2 1.7.8-.2-2zm4.2-.2l-.2-2.1-1.5 1.3 1.7.8zm13-10.5l-1.3 1.1 1.4.6-.1-1.7zm6.6-14.7l.5.9.6-.7-1.1-.2zm-13.2 16.7l.2 2 1.6-.8-1.8-1.2zm2.8 2.2l-.1-.5-.3.3-.4-.2-.1 1.2.8-.4.2.1v-.1l.3-.1-.4-.3zm1.8-1.4l-.8.9 1 .3-.2-1.2zm2-5.3l-1.2-.1.7.9.5-.8zm-15.4 16.8l-1.3.3.8 1 .5-1.3zm-5.5 12.8l.4-1.3-1.3.3.9 1zm7.9-14.1l-1.3.4.8 1 .5-1.4zm5.4-.7l-1-.7.2 1.2.1-.1.6 1.3-1.7-.4-1.3 1.4.5-2.4-2.7 1.3 1.9 1.5-.3.4 1.8.6.4 1.2 1.2-1.8-1.1-.2-.3-1.9.9 1.7.9-1.1.3.7 2-2.4-2.7-.1.3-.2zm-7.3-6.8l-.8.8 1.1.2-.3-1zm1.6 10.2l-.6.5-.1-.2-1.2 1.8 1.9.2-.6-1.5.8.2-.2-1zm-2.9 3.8l-.6 1.1 1.5.1-.9-1.2zm-1.8 3.8h1.4l-.9-1.1-.5 1.1zm2.4 2.4l1.4-1.6-2.1-.2.7 1.8zm-2-5.7l-1.2 1.8 1.9.2-.7-2zm10.5-14.4l-1.2 1.7 1.9.2-.7-1.9z"/><path d="M202.8 360.5l-1.2 1.8 2 .2-.8-2zm5.2-8.3l-1.2 1.7.1 1 .7-.4-.8-.5 1.9.2-.7-2zm-36.5 33.3l.3 1.1.8-.6-1.1-.5zm7 4.3l-.4.9h1.2l-.8-.9zm13.7-24.4l.7-.3-1.1-.5v1l-.2.3h.9l-.3-.5zm-4.6.3l-.6.1.4.6.2-.7zm3.9 5.1l.7-.3-.7-.4v.7zm12.7-10.5l-.3-.8-.6.7.9.1zm-4.9.5l.2-.7-.7.1.5.6zm4 3.8h0-1.1l.3.7-.4.3-.6-.8-.4 1.3-.2.7h1l-.4-.7h.2l1.3.6v-.3l.3.7 2-2.4-2-.1zm5.6-10.2l-.5.6h.7l-.2-.6zm-3.7.6l-.6.1.4.5.2-.6zm-23.5 24.2l-1.2.2.9 1.2.3-1.4zm-1.4 7.3v1l1.1-.4-1.1-.6zm8.5-4.9l-.8.9 1 .3-.2-1.2zm-14.1 14.7l.7.2-.5 1h1.4l-.8-1-.1-.4.6.1-.7-1.9-1.2 1.8h.7l-.1.2zm10.5-14.7l.3-1.9-1.7.4 1.4 1.5zm37.8-60.2l.2-.2h.4l-.1-.2.9-1-1.6-.7.1.8-.8 1.2.9-.1v.2zm.7-12.5l.2 2.1.3-.3 1 .1-.5-.7.5-.6-1.5-.6zm-51 81l.2-1.1-1 .1.8 1zm1.8-2.1l.8.9.2-1.1h-.2l.1-.6-1 .2.4.5-.3.1zm25.4-24.5l-1.1.4 1 .7.1-1.1zm-8 4.7l-1-.4.2 1.2.8-.8zm1.2-1.3l1.2.8-.2-1.4-1 .6zm3.5 7.1l-1.1-.2.3 1 .8-.8zm6.3-15.7v-.1l-.1.1-.6.2.3.2-.3.4 1 .2-.1-.3.1-.9-.3.2zm-8.7 5.6l.8-.9-1-.3.2 1.2zm17.4-15l-1.3.5.9.9.4-1.4zm-1.1-17.2l.8.8.3-1-1.1.2zm-8.6 26.5l.3-1.1-1.1.4.8.7zm6 .5l-.6-.9.3-.2-1.3-.8-.1 1.7.7-.4-.3.8 1.3-.2zm-7.3-3l-1-.4.1 1.2.9-.8zm28-19l1.5-1.9-2.7-.6 1.2 2.5zm-2.4 2.1l-2.5-.2.8 2-2.6-.2.4 1.3-2 1 1.7 1.4.4-2 .3.9 1.9-2 1.7-1.9 1.6-1.8-2.7-.7 1 2.2zm-6.2 5.1l-.2-1.9-1.7 1 1.2.7-.2-.1 1 2.1-2.2-.6.4.9-1-.6.1 1.1.9-.5.6 1.3-3.1.3.9 1.4-2.1-.1 1.5 2.3 1.2-1.4v.1l2.1-2.6 1.3-1.5h-.1l1.3-1.6-1.9-.3zm-5.6 7.7l.9-.5-1.5-.9.1 1.5h-.4l-.6-1.8-1.3 1.2-.7-.4-.1 1.6h-.8l1.2 1.4h-.4l.1-.3-1.9.4 1.3 1.6-.7.7 2.3.3-.6-1.9.9 1.4 1.7-2.1h-.2l1.9-2.3-1.2.1zm-3.8 3.6l.3-1.3.4.7-.7.6zm1.3-1.4l.7-1.5-1.5.1 1-.7.7.1h-.4l1.1 2.1-1.6-.1zm23.6-43.2l1 1-1.1 1.7 2-.2-.7-1.3.7.6 1-2.9-2.9 1.1zm-30 47.8l-1.8.9 1.4 1.1.4-2zm.4-1.9l.8.2-.4-1.2-.3.5.1-.2-1.8.9 1.3 1.1.3-1.3zm-.9 5.8l-1.5-.3.7 1.4-.6-.1.8 1.5.9-1.2-.6-.1.4-.6.5 1.2 2-2.4-3-.1.4.7zm-4.6 5.8l-.8-.5v.4l-1.3 1.1 1.7.8v-.8l.8-.4.5 1.1 2-2.4-3-.1.1.8zm-2.5 1.9l.3.7-.2.9.6-.1.4.9-3-.1.2.3-.5-.3.2 1.1.6-.3.7 1.6 4-4.8-3.3.1zm-12.2 15.9l2.6.8-.5-3.1-2.1 2.3zm9.9-26.8h-1l.6.8.4-.8zm28.9-33.3l-.7-1.6-.8 1.5 1.5.1zm-15.3 21.2l-.6.7h.9l-.3-.7zm-5.1.6l.4.6.2-.7-.6.1zm10.1-5.8l-.4.6h.7l-.3-.6z"/><path d="M210.5 342.2l-.6.1.4.6.2-.7zm5.5-15l-1.1.9 1.1.6v-1.5zm4.6-3.9l.7-.8-1.1-.3.4 1.1zm-9.5-2.2l-.6 1.1 1.2-.2-.6-.9zm-2.1 11.6l-1.1-.3.2 1 .9-.7zm5 1.2h.8l-.4-.9-.1.2-.3-1.2-1.1 1.1 1.4.2-.3.6zm-3.3-7.4l-1 .1.7.7.3-.8zm.8 9.1v-1.4l-1.1.9 1.1.5zm1.4 2.2v-1.4l-1.1.8 1.1.6zm5.3-6.1l-1.1-.3.4 1.1.7-.8zm-10.2-1.4l-.6 1.1 1.2-.2-.6-.9zm-8.4 21.1l.7.1-.1-.4.5-.3-1.1-.5v.8l-.2.2.2.1zm3.4-5.9l.4-.8h-1l.6.8zm37.4-34.5l.1-2-2.1 1.5 1.5.9-1 1.2.6-1.2-1.8.4 1 1.3.2-.3 2.2.1-.7-1.9zm.1 7.6l.6-1.1-1.8.4.7.9.5 1.8-2-.5 1.4-.9-1.6-.9 1.4-.9-1.8-1 .1.8-1.8.4.9 1.3.8-1.7.1 1-.1-.1.2 1.9-.6-.1.1.3-.5.4.7.3v-.6l1.1 2.3 1.7-2-.2-.1 1.2-1.8-1.1-.1zm-38.4-71.9l1.5-.9-1.6-.6.1 1.5zm6.1 13.1v-1.7l-1.4 1 1.4.7zm.9 2.3v-1.7l-1.3 1 1.3.7zm-4.5-13.2l-.8-2.6-1.5 2.2 2.3.4zm-4.1 15.3l-.9.3.6.6.3-.9zm4-1.3l.7-.3-.7-.5v.8zm-5.6-3.8l-.6.5.8.2-.2-.7zm4.3 14.6l.3-1-.9.3.6.7zm4.4-2.3l.6-.3-.7-.5.1.8zm-6.3-3.3l.8.2-.1-.7-.7.5zm2.8 2.4l.4-.9-1 .3.6.6zm4.4-3.1v.8l.6-.3-.6-.5zm-6.3-2.5l.8.2-.2-.7-.6.5zm2.3-4l1.4-.7-1.5-1.1.1 1.8zm5.6 2.4l1.4-.7-1.5-1.1.1 1.8zm-9.1-4.4l.8.2-.2-.7-.6.5zm6.8 4.7l-.5-.8-.5.7 1 .1z"/><path d="M205.7 253.1l-1.2.9 1.6.9v-1.8l1.1.1-1-2.3-1.1 2.2h.6zm-3.2-9.3l-1.3-.6.3 1.4 1-.8zm3.6 7.1l-.8-1.3-.7 1.2 1.5.1zm-2.6-.2v-.8l-.7.4.7.4zm-1.3 3.3l.2-.8-.8.3.6.5zm7.9 3.5l-1.2-1.7-1.1 2.1 2.3-.4zm3.4 6.1l-1.2 1.9 1.4.1-1 .1 1.2 1.9 1.3-2.3-.4.1-1.3-1.8zm-1.2-2.5l-.5 2.1 1.9-.4-1.4-1.7zm-3-1l.8-.2.3.6.4-.6-.3-.1.7-.1-1.3-1.7-.6 2.1zm6.8 8l-.4.6-2.5.3 1.2 1.9.3-.5 2.1.2-1.3.1v-.2l-1.8 1.3 1.7 1 .1-1.9.9 1 .5-1.2h.3l.3 1.8.7-.5.4 2 1.6-1.1-1.8-.9.8-.6-1.3-.7-1.8-2.6.3-.1-1.3-1.6-.4 2 1.4-.3zm-9.5-3.6l1-.3-.8-.6-.2.9zm-3.7-7l.8-.2-.7-.4-.1.6zm-2.3-2l-.2 1.2 1.3-.4-1.1-.8zm2.7 4.1l.8-.2-.6-.5-.2.7zm1.8 5l.4-.4-.7-.2.3.6zm23.3 32.9l1.3.7v-1.7l-1.3 1zm-1.7-3.9l1.3.7v-1.7l-1.3 1zm-3 7.1l.7-.3-.7-.4v.7zm-6.4-3.1l.8.1-.2-.7-.6.6zm12.8 11.8l-.7-.5v.8l.7-.3zm-7-2.8l.8.1-.2-.7-.6.6zm2.8 2.3l.3-.9-.9.3.6.6zm-2-5.5l.8.1-.2-.7-.6.6zm2.2-4.1l1.4-.8-1.5-1 .1 1.8zm-3.5-1.8l.8.1-.2-.7-.6.6zm6.3 3.6l-.5.8h.4l-.3.2-.1-.1-.1.3-.8.6 1.3.7v-.9l.3-.1-.2-.2 1-.3-.8-.6-.2-.4zm0 .8v.2-.2zm-1.3-2.5l-.2-.1v.2l-1 .2.7.9.4-.9.3 1 1-.8-1.2-.5zm-1.4-7.2l-.9.7 1.1.3-.2-1zm9 13.3v-.8l1.6.9.1-2.6-2.1 1.5.2.1-.7.5.9.4zM222.9 292l-.2.8.9-.2-.7-.6zm4.9 2.5l-.6.5.6.3-.3.1 1.1 1.4.8-1.9-1.6.4v-.8zm-.7-7.7l-1 1 1.2.4-.2-1.4z"/><path d="M227.2 290.2l.2-.8-.7.3.5.5zm9.6 13.8l.5 1.6 1.1-1-1-.4 2.7-.6-1.5-2.1-1.3 2.6-.5-.1zm-4.1 1l.7.4v-.9l-.7.5zm-.3-6.8l-.8-.2.3.8.5-.6zm-7.6-2.4v.2l.8-.2-.7-.5v.2l-.4-.2-.1.7.4-.2zm-2.7-.7l.1.2.4-.4.6-.2-1.2-.7-.1.6v.1l-.1.6.3-.2zm2.8 2.6l-.5.4.8.3v-.5l.5-.1-.7-.5-.1.4zm1.6 4.6l.3.6.4-.4-.7-.2zm-7.2-6.2l1-.4-.9-.6-.1 1zm8.9 19.5l.1.8.7-.3-.8-.5zm-5.7-2.9l-.7.6.8.1-.1-.7zm9.5 1.5l-1.5-1 .1 1.8 1.4-.8zm1.5-3.4l-.2 1 .9-.2-.4.3 1.3.7v-.9l.7-.4-.7-.4-.1-.1v.2l-.6.5-.9-.7zm5.9 2.9l-.8.6.8.4v-1zm-1.1-7.5l-1-.2.4.9.6-.7zm-6.6 10.1l.4-.9.3.9 1-.8-1.1-.4-.3-.1v.1l-1 .2.7 1zm6.1-3.6v1.1l.9-.4-.9-.7zm-7-4.8l-.9.6 1 .3-.1-.9zm3.3 5.6l.8 1-1.6-.1.9 1.9-1.1.2.3.4-.4.6 1 .1-.2-.3.6-1.1.9-1.7h-.1l.7-1.4-1.8.4zm.6 3l.9 1.3.8-1.7-1.7.4zm2.9 2.4l-1.8.4 1 1.4.8-1.8zm.5-4.5l-1.8.4 1 1.3.8-1.7zm1.9-.6v1.1l.9-.3-.9-.8zm-1.9 1.2v1.1l.9-.3-.9-.8zm-5.2-6l-.9.7 1 .3-.1-1zm4.1 4.9l-.8-.2.4.7.4-.5zm-7.6-.1l.8-.2-.6-.4-.2.6zm-15.9-39l1.6-1.1-1.9-1 .3 2.1zm-1.9-7.9v-.7l-.6.5.6.3.3 1.9 1.6-1.1-1.9-.9zm1.4 11.3l.4 2.1 1.6-1.1-2-1zm4.3 3.9l1.6-1.1-1.9-1 .3 2.1zm7.5 7.7l1.6-1.1v.1l.4-.6-.8-.2.3.7-2-1 .5 2.1z"/><path d="M231 295.9l.4 2.1 1.6-1.1-2-1zm-14.7-20.4l1.6-1.1-1.9-1 .3 2.1zm1.9-2.1l-.6 2.7.8-.2-.6.4-.8-.3.4.9.2-.2 1.5.8.1-1.9.9-.2-1.9-2zm7.3 8.2l-1.4-2.4-1 2.5 2.4-.1zm1.3 2.6l-1.4-2.4-.2.5-.3-.3-.2 1.2h.2l-.4 1.2 1.9-.1-1.9 1.3 1.5.9-.1.2h.3l.1.1v-.1h.7l.3 1.9 1.2-.9-1.1 2.1 2.5-.4-1.2-1.8.1-.1-1.6-.8.9-.1-1.3-2.4-.4 1 .1-1h.3zm-19.8-9.1l-.2-1.1-1 .8 1.2.3zm7.3 7l1.5.3-.7-1.3-.8 1zm6.2-8.1l-.5 2.6.7-.2.5.8.6-1 .6-.1-1.8-2 .4.1-.6-1.1-.7.9h.8z"/><path d="M223.1 278.5l-.8-.7-.8-1.3-1 2.5 2-.1-1.1.8 2 1.1.1-2.6-.6.4-.1-.1h.3zm-5.4 6.9l-.4-1.4-1 .9 1.4.5zm2.7-.9l1.4.6-.4-1.4-1 .8zm-10.9-9.5l-.3 1 1.2-.2-.9-.8z"/><path d="M219.5 285.8l.1-2.6-2.1 1.5 2 1.1zm4.4 1.3l.2-2.6-2.1 1.5 1.9 1.1zm-.8-5l-1.2 2.3 2.5-.4-1.3-1.9zm-3.6-2.2l.1-2.6-2.1 1.5 2 1.1zm19.1 43.1l-1.4-2.3-1.7 2.7h.1l1.4 2.7 1.7-2.1-2.9-.6 2.8-.4zm-3.7 1.2l-1.2 2-.3-1.3-1.7 1.5 1.7.3-.1.1h-.3l1.6 2.6 1.5-2.2-2.6-.3 2.8-.4-1.4-2.3zm-13.4 11.5l-1.1 2.9 2.9-.9-1.8-2zm-15.6-80l1.4-.2-1.6 1.2 1.6.9v-2.1l1-.2-1.3-1.9-1.1 2.3zm4 15.2l.1-2.2-1.8 1.2 1.7 1zm.4-5.4l.1-2.2-1.8 1.2 1.7 1zm1.9.1l.1-2.2-1.8 1.2 1.7 1zm28.5 41.1l.1-2.6-2.1 1.5 2 1.1zm-29.1-23l.6-.7-1-.3.4 1zm20.1 23.7l1.7-.4-1.4-1-.3 1.4zm-22.3-29.5v-1.5l-1.1.9 1.1.6zm-2.3-11.4l.8-1-1.4-.3.6 1.3zm6.7 41.5l-.9.3.6.7.3-1zm-2.2-4.7l.8.2-.1-.7-.7.5zM219 318l.4-.9-.6.2.1-.9-.9.6.6.4-.2.1.6.5zm5-2.6l-.7-.5v.8l.7-.3zm-6.1-2.8l-.2-.7-.6.6.8.1zm2.3 1.3l-.9.3.6.7.3-1zm2.3-5.9l-.2.8.9-.2-.7-.6zm7.3-4.2l-1.3 1 1.3.7v-1.7zm-16.2-2l1.1-.4-.9-.6-.2 1zm4-4.8l.5-.6-.9-.2.4.8zm2.7-6.2l.5-1.2-1.2.3.7.9zm1.6-.7v1l.4-.2 1 1 .5-1.2h-.3l.2-.2-.9-.1.2.4h-.3l.1-.1-.9-.6zm-3.7-2.3l1 .3-.1-.9-.9.6zm-1.5 1l.6-1.4-1.5.4.9 1zm4.4 11.1l.6-1.4-1.5.4.9 1zm7 6.4l.8 1 .6-1.4-1.4.4zm3.7 1.7l.9 1 .6-1.4-1.5.4zm-6.1-12.6l.6-1.4-1.4.4.8 1zm-22.6-23.6l1.2.3-.2-1.1-1 .8zm16.9 10.4l.5-1.2-1.5.1 1 1.1zm-7.3-10.6l.5-1.2-1.5.2 1 1zm3.6 1.1l1 1.1.5-1.2-1.5.1zm-6.2-11.4h1.5l-.6-1.2-.9 1.2zm3.2 15.5l-1-.7v1.2l1-.5v.2l1.1-.6-.9-.7-.2 1.1zm3.5.2l-.2 1.3 1.1-.6-.9-.7zm-4.7-4.5l-.2 1.3 1.1-.6-.9-.7zm-2.3-5.3l1.1-.6-.9-.7-.2 1.3zm3.1 19.5l1.2.5-.3-1.2-.9.7zm22.1 32.8l.2 1.8 1.3-.8-1.5-1zm-10.7 6.5l-.7.7 1 .2-.3-.9zm1-.3l.6.9.6-1.1-1.2.2zm6.5-2.2l-.1 1 .9-.3-.8-.7zm-3.7-.4h0l-.3-.1v.2l-1 .2.7.9.4-.9.3.9.9-.8-1-.4zm-1.6-.1l1.3-.8-.8-.6.6-.5-.9-.4.2.9-.6-.4.2 1.8zm-.8-6.4l1 .3-.1-1-.9.7zm3 2.4l-.8-.3.2.8.6-.5zm-16.3 27.2l-.9.8 1 .4-.1-1.2zm3.7-3.8l.6-.7-1-.1.4.8zm-8.4-1.1l-.4.9 1-.2-.6-.7zm-.1-33.1l.5-.9-1 .1.5.8zm-.3-5.7v-.7l-.7.4.7.3zm25.1 9l-.8-.8h.7l-.7-1-.3.6-.3-.2.1-.3-1.1.4.8.8-.1 1.1 1.7-.6zm-2.5 10.7l.6 2.1 1.5-1.2-2.1-.9zm1.9 7.6l-.4-.3.1.7v.3l.4-.2h1.7l-.8-1.8-1 1.3zm-2.6 4.4l1.9-1.2-1.7-1.1-.2 2.3zm2.2-5.2l-1.9.2.9 1.3-.3-.1 1.2 2.8 1.8-2-2.2-.6.5-1.6zm-3.8 3.7l.9 1.4.7-2.1-1.4.2v-.1l-1.9.2.2.3-.7.3.8.8.2-.7.8 1.1.4-1.4zm3.5-7.5l-1.3-.1.5-1-1.3.3.3.4-.1.2-.2.3h.4l.8 1.6.9-1.7z"/><path d="M227.4 327.8l1.3 1.8.7-2.1-2 .3zm-1.6.1l-1.7 1.4 2.1.5-.4-1.9zm-6.2 1.7l-1.6.9 1.6.7v-1.6zm2.4 4.8l1.3 1.9.7-2.1-2 .2zm1.8-1.9l-.2-.3-.2.3-.6 1.2 1.3-.2.5.8v.8l.8-.4-.7-.5.6-1.9-1.5.2zm1.9 3.2l1.1.3-.4-2.2-1.4 1.5-1.1-.3.3 2.2 1.5-1.5zm-4.6 3.8l-1.7 1 1.9 1.1-.2-2.1zm-11.9 16l-1.5.3 1.1 1.3.4-1.6zm.7-3.6l-.9.2-.4-.2v.3h-.2l.1.1v.1h.1l.9 1.1.4-1.6zm4-3.9l1.5-.3-.9-1.2-.7 1.3-1.8.4 1.5 1.7.4-1.9zm13.2-23.6l.2 1.7h-.1l-.2-.4-.8.8 1.2.3-.1-.2 1.5-1.4-1.7-.8zM209.8 357l-1.6.3 1.3 1.6h-.7l-.5-.3v.3l-1.6-.1.5 1.1-.8-.5.2 1.7.9-.5.3.8 2-2.4h-.1l.3-1.3.2.7 1.2-1.8-1.9-.3.3.7zm-32.1 38l-.9-1.1-.6 1.1h1.5zm-.9 3.7l-.4.8-2-1.6-.6 2.6 2.7-.7.6.4-.2-1.2.4 1 1.4-1.6-2.1-.2.2.5zm39.9-56.8l-.4 2.1-1.7-.2.9 1.5h-.1l-1-.6-.1 1.4-.5-.3-.1.6.6-.2v.3l.9-.6 1.1 1.3.4-2.1-1.2.2.8-1.2.7-.3.8.3v-.7l.5-.2-1.6-1.3zm1.6-3l-1.7 1.5 2.2.3-.5-1.8z"/><path d="M229.8 319.4l-1.6 1.6 2.1.3-.5-1.9zm-7.7 10l-.8 1.1-.4-.4-.9 2.4-.1.1h-.1v.1l-1.5 1.5v-.8l-1.6.8 1.6.7v-.9l2.1.3-.4-1.5.3.5.5-.8 1.8-.6-1.3-1.4h1.3l-.5-1.1zm-6 .6l.1.2.3.5.7-1.1h-.4l.1-.1-1.2-.3.1.3h-.1l.4.5zm2.4-.3l.5-.8-.6-.1-.5-1.9-1.7 1.5 2.1.4h-.4l.6.9zm14.7-12l-2.5-.2.2-.1-.9-.6.1.6h-.3l.7 1 1.2 1.7 1.2-2-.1.3.3-.1 1.1 1.7-1.5.3 1 1.4.1-.2.7-.3-.4-.3.4-.8 1.5-2.4h-2.8zm-17.8 16.4l-1.1-.1.6.9.5-.8zm18.3-9.3l.7-1.2v.2l1.3-.8-1.5-.9.1.8-1.5-.1.9 2zm-3.2-24.8l.1-.2.1.4-.2-.2-.6 1.7 1.5-.2.4 1.6 2-1.6-2.7-1.2.2-.2-.8-.3.7-1.7-1.9.5 1.2 1.4zm.7.7l-.3-.3.2-.1.1.4zm-9.1-11.9l.8-1.9-1.9.5 1.1 1.4zm-.5-5.6l.6-1.3 1.2-.8-2-1 .3 1.5-1.2.3 1.1 1.3zm12.8 24.5l.8-1.9-1.9.5 1.1 1.4zm-4.3-3.2l2-.3-1.5-1.3-.5 1.6zm11.1 3.5l-.6 1.7 1.3-.2-.2.5 2.8-.6-1.5-2.1-.8 1.7-1-1z"/><path d="M238.8 306.4l.5 1.9-1.3-1-.3 1.5 1.7-.4.2.9 2-1.6-.2-.1 1.5-.5-1.5-2.2-.5 2.5-2.1-1zm5 8.6l1.3-2.2-2.6-.2.7-1.1 1.5.9.2-2.6-1.1.8-2.9-.2 1.6 2.2h-.2l.3.4-2.1-.2 1.2 1.9-.6.1 1.5 2-.8-.1-.9-1.5-1.2 1.8 1.1-.1 1 1.6 1-1.7h-.2l1.1-2 .1.2zm-2.2-.3l.9-1.6.9 1.2-1.8.4zm-14.1-25l.6 1.9 1.4-.8-.5.9.4-.1.6 2.1-.8-.3.8 2.8 1.9-1.5.1.6.8-.5-1.2 1 1.9.9-.4-.1.3.6-.1 1 .6-.2-.2.4-1.8 1.3 1.9 1.1.1-2.2.8-.2.3 1.1-.9-.3.5 1.6.6-.5.1.2 1.7-1.3-1.3 2.6h.2l-.6.5v-.6l-2.1 1.5 1.9 1.1.1-1.8 1.2.6v-1.4l2.1-.4-1.5-2 .2-.2-1.7-.8.8-.2-1.5-2.1-.9 1.7-.4-.4.5-.5-.4-.1-.1-2.7-.1.1-1.8-.9.5-.4-1.7-.8.7-.6.4-.1-1.3-1.9-.5.9-2.2-.6zm4.3 4.8l-1.1-.5.2-.4.6-.5.3 1.4zm-1.5-2.7l-.7-.3.6-.1.1.4zm-9.6 33.4l-.5-1.1-.7.8.4.1-.8.3.8.8.3-1 .5.1zm-4.9-5.7l-.2-.3-.6.9 1.2.1h.3l-.2-.7h.5l-.7-.7-.3.7zm.2.2l-.1-.2h.3l-.2.2zm1 5.4l.2.8.6-.5-.8-.3zm-4-11.1l1.2-.2-.9-.8-.3 1zm4.5-5.3l.3.9.3-.3.6.1-.2-.7-.3.3-.7-.3zM207 319.6l.5-.9-1 .1.5.8zm5.6-1.9l-.6-.6v.2l-.1-.4-.7.7.8.1v.2l.6-.2zm7 19.1l-1.1.3.7.8.4-1.1zm-1.7-5.6l-.1-.6.3-1-1.1.4.5.4-.5.4.9.4zm4-6.4l-.4 1 1.2-.1-.8-.9zm-10 5.1l.7-2-1.9.6 1.2 1.4zm2.6-7.5h.2l-.1-.2.9-1.5-1.2-.2-.4-.1.1.3-1.4 1.2 1.9.5zm1.4 2.4l-.5 1.6 1.5-.2-1-1.4zm-5.9 6.6l-.9 1.1 1.2.3-.3-1.4zm4.2-5.7l-1.2-.1.7 1 .5-.9zm4.3-9.3l.6-.5-.8-.3.2.8zm-6.3-2.4l-.5.7h.8l-.3-.7zm-2.2 5l-.8.5.7.5.1-1zm3.6-2.2l.6-.4-.8-.3.2.7zm-6-1.9l-.3-.7-.6.7h.9zm16 12.2l-.9-.5.1 1 .8-.5zm-8-3.7l-.7.7 1 .1-.3-.8zm7.9-.8l.1 1 .8-.5-.9-.5zm-4.1-.5l-1.7-.7.5 1.7 1.2-1zm.6 4.6l-.1-.2.1-.1h-.1l-.5-.7-.5.8h-.3l.2-.8-1.1.4.5.4h-.2l.9 1.6.9-1.5h.2v.1zm-5.7 1.9l-.9 1.3 1.5-.1-.6-1.2zm-2-3l-.5.9 1.2.1-.7-1zm-2.1 1.8l-.8-.1.4.7.4-.6zm-.5 16.4l-1.1.4.8.8.3-1.2z"/><path d="M215.4 341.5l-.9-.6.1 1 .8-.4zm-7.9-4l-.8.7 1 .2-.2-.9zM214 327l1.2-.4-1-.7-.2 1.1zm7.2-7.6l-1.9.6 1.2 1.4.7-2zm3.3-3.2l-.5 1.6 1.5-.2-1-1.4zm-6.7 6.2l-.3-1.4-.9 1.1 1.2.3zm2.7-7.1l.7.9.6-.9h-1.3zm-9.3 1.9l1.1-.5-.8-.7-.3 1.2zm12.4-7.1l-.9.5.7.4.2-.9zm4.1-2.7l-.8-.3.2.8.6-.5zm-6.9-1.9l-.5.7h.8l-.3-.7zm-2.3 5.9l.1-1-.8.5.7.5zm4.3-3.6l-.8-.3.2.8.6-.5zm-6.5-1.5l-.3-.7-.5.7h.8zm6.5 7.3l-.7.7 1 .1-.3-.8zm4.6 3.5l-1.1.4.8.8.3-1.2zm5.6-2.6l-.9-.6.1 1 .8-.4zm-8.1-3.7l-.7.7.4.1.5.5.3-.9-.4.1-.1-.5zm1.8 2.2l-.2-.3-.1.2-.7 1.1h.5l.2 1.7 1.4-.8-.7-.4 1-.9-1.4-.6zm-.4 1h.4l.1.3-.5-.3zm1.7 3.1l-.6.9 1.3.1-.7-1zm-1.4 1.3l-1.1 1-.1-.5-.8.6.6.2-.3.2.4.1-1.1.4.8.7.3-1.2 1.7.3-.4-1.8zm-5.6-1.3l-.5.9 1.2.1-.7-1zm-5.3-3.5l1-.3-.8-.6-.2.9zm10.2 8.8l-.8-.6.1 1 .7-.4zm-7.7-3.4l.2.4.4-.6-.8-.1-.1-.3-.8.7 1 .1.1-.2zm6.5-6.7l.2-.1-.1-.1v-.1h-.1l-.5-.3v.5l-.2.1.1-.2-1.7-.3.7 2 .3-.6.7.8.6-1.7zm2.6-7.5v-.1l-.1.1-.9-.2.3-.3-.8-.2.3.7.2.7v.4h.1l.1.6.2-.1v.2l.2-.3.3-.2-.2-.1v-.1h.7l-.3-.7.2-.3-.3-.1zm.8 4.1l-.5 1.6 1.5-.2-1-1.4zm-7 4.8l-.9 1.1 1.2.3-.3-1.4zm3.7-4.8l.5-.9-1.2-.1.7 1zm-9.9.4l-.3-.1.2.7v.2l.2-.2.8-.3-.8-.7-.1.4zm12.2-5.5l.1-1-.8.5.7.5zm-3.2-4.9h.8l-.3-.7-.5.7zm1.9 2l.6-.4-.8-.3.2.7zm-6.1-1.9l.5.1-.3-.9-.3.3-.1-.2-.5.7h.7zm10.6 14.8l-1.1.4.8.8.3-1.2zm-2.5-6.2l-.7.7 1 .1-.3-.8zm8-.9l.1.6-.7.4.7.4-1.4.3.8 1 .6-1.4 1.2.7.2-2.6-1 .7-.5-.1zm-8-2.4l1 .1-.2-.9-.8.8zm2.7 3l1.2-1-1.3-.5-.1-.1-.3-.1.5 1.7zm-.3 3.8l-1.7 1.5 2.1.4-.4-1.9zm-10.9-4.8l1-.3-.8-.6-.2.9zm3.2 5.3l-.8-.1-.1-.3-.7.7 1 .2-.1-.3.2.4.5-.6zm1 7.1l.1-.2.3.3.3-.9-.5.2.1-.5-.6.2-.5-.3-.2 1 .5-.1.5.3zm5.3-3.1l.8-.4-.9-.6.1 1zm-1.4-4.8v-.2l-.1.1-.9-.6-.2 1.1.8-.2-.3.2.7.3v-.7zM204 350.3l-1.2 1.6 1.8.5-.6-2.1zm-.7-21.8l.6-1 .8-.3-.8-.7-.1.3-1.2-.2.7 1.9zm3.5 5.6l-1-1.4-.5 1.6 1.5-.2zm-4.9 19.6l-.1 1.4 1.1-.4-1-1zm.2-7l-1 .6 1.1.4-.1-1zm-7.6 7.5l.6-1-1-.1.4 1.1zm8.5-28.9l.7.4.1-1-.8.6zm-1.7-4.6l-.3-.7-.5.7h.8zm-2.5 4.4l-.9.5.7.5.2-1zm3.7-2.2l.6-.4-.8-.3.2.7z"/><path d="M196.2 320.3l-.5.7h.8l-.3-.7zm13.7 29.5l-.4-1.2-.7 1 1.1.2zm2.7-6.5l-1 .1.7.7.3-.8zm-8.9 2.6l.9-.4-.7-.6-.2 1zm5.1-12.4l-1.1.5.8.8.3-1.3zm5.6-2.5l-.9-.6.1 1 .8-.4zm-8.1-3.8l-.7.7 1 .1-.3-.8zm.8 2.1l1.2-1-.7-.3.3-1-1.1.4.4.4-.6-.3.2.5-.6 1.1.8-.1.1.3zm2.9 5.3l-.7-1-.6.9 1.3.1zm-2.1.2l-1.7 1.5 2.1.4-.4-1.9zm9.1 1.1l-1.7 1.5 2.1.4-.4-1.9zm-1 5.2l.4-2.1-1.9.4 1.5 1.7zm-7.1-.7l.9 1 .3-1.3-1.2.3zm4.7-.1l-1.7.4 1.3 1.6.4-2zm6.8-5.4l-1.7.4 1.3 1.6.4-2zm-8.7 9.2l-1.7 1.5 2.1.4-.4-1.9z"/><path d="M206.4 350.2l.2-.7-.8.4-.9.4.9.8v.3l.2-.2.2.2.1-.4.7-.6-.6-.2zm-4.1-16.7l-.5.9 1.2.1-.7-1zm-6.4-5.3l1-.3-.8-.6-.2.9zm3.5 7l.4.7.4-.6-.8-.1zm1.2 17.2l.9-.4-.7-.6-.2 1zm3.5-18.5l-.2 1 1.2-.3-1-.7zm2.9-11.8l1.2 1.4.7-2-.9.3-.7-.5-.1.4v.3l-.2.1zm3.8-6.1l1-1.7-1.7-.3.7 2zm1.3 2.4l-.5 1.6 1.5-.2-1-1.4zm-6.6 6.1l-.3-1.4-.9 1.1 1.2.3zm3.9-7.1h-1.2l.7.9.5-.9zm-9.5 1.4l-.8-.7-.3 1.2 1.1-.5zm11.2-5.5l.1-1-.8.5.7.5zm-2.3-5.1l-.3-.7-.5.7h.8zm-2.7 5.3l.8.3v-.7l-.8.4.2-1-.9.5.7.5zm3.8-3.1l.6-.4-.8-.3.2.7zm-6.3-2.6l-.5.7h.8l-.3-.7zm10.7 15.4l-1.1.4.8.7.3-1.1zm4.7-3l.1 1 .7-.4-.8-.6zm-4.2.2l.3-1.2-.2.1.1-.6-.8.5.3.2-.5.2.8.8zm5-4.3l.1 1 .8-.5-.9-.5zm-7.9-2.5l1 .1-.2-.9-.8.8zm2.1 1.4l.5 1.7 1.2-1-1.7-.7zm-3.4 7.1l-.9 1.3 1.5-.1-.6-1.2zm-2-2.9l-.6.9 1.2.1-.6-1zm-5.2-3.5l1-.3-.8-.6-.2.9zm3.1 5.3l-.8-.1-.1-.3-.8.7 1 .2-.1-.3.2.4.6-.6zm6.3 4l.8-.4-.9-.6.1 1zm-19.9 35.8l1.1-.6-1.1-.5v1.1zm2.9-6.8l.6.8.4-.8h-1zm4.2-22.1l1-1.7-1.7-.3.7 2zm-4.7 31.2l-.1 1.4 1.1-.4-1-1z"/><path d="M194.5 356.7l1.1.4-.1-1-1 .6zm-6.6 6.9l.6-1-1-.1.4 1.1zm18-10.6l.5.1-.2-1-.5.6-.7.1.7.7.2-.5zm-8.7 1.2l-.2 1 .9-.4-.7-.6zm4 0l-.7 1 1.1.2-.4-1.2zm3.1-5.3h-1l.7.8.3-.8zm-8.9 2.6l.9-.4-.7-.6-.2 1zm-5-6.3l-1 .1.7.7.3-.8zm10.2 3.4l-.9 1.1 1.2.3-.3-1.4zm3-5.7l.7.9.5-.9h-1.2zm-9.1.7l-.3 1.2.7-.3.5.3.1-1-.5.3-.5-.5zm4.6-2.1l.6-.5-.8-.3.2.8zm-6-1.7l-.3-.7-.2.3-.6-.4-.3 1.1.9-.3h.5zm-2.6 4.3l-.8.5.7.5.1-1zm4.2-2.6l-.8-.3.2.8.6-.5zm-6.8-2.1l-.5.7h.8l-.3-.7zm-.2 7.9l1-.3-.8-.6-.2.9zM198 344l-.9 1.1 1.2.3-.3-1.4zm3.7-4.8l.5-.9-1.2-.1.7 1zm-3.4-6.6l-1.1.4.8.8.3-1.2zm5.7-2.3l-.8-.5.1 1 .7-.5zm-8-4l-.8.7 1 .2-.2-.9zm14.2-5.7l1.2-.4-1-.7-.2 1.1zm5.3-11.8l.7-2-1.9.6 1.2 1.4zm2.6-7.5l1-1.7-1.7-.3.7 2zm1.3 2.6v-.5l-.7.7.6.3-.3 1 1.5-.2-1-1.4-.1.1zm-7.8 5.6l1.2.3-.3-1.4-.9 1.1zm4.6-5.9l.5-.9-1.2-.1.7 1zm-10.1 1l1.1-.4-.8-.7-.3 1.1zm12.4-6l.1-1-.8.5.7.5zm-3.2-5h.9l-.3-.7-.6.7zm-1.7 4.3l-.9.5.7.5.2-1zm3.7-2.2l.6-.4-.8-.3.2.7zm-6.9-1.9h.8l-.3-.7-.5.7zm11.3 14.8l-.8.3.3-.4-.7-.2.3.6-.3.1.8.8.4-1.2zm-2.5-6.3l-.1.1-.3.1.1.1-.4.4.8.1h.1l-.1-.2.3-.8-.4.2zm3.2 2.2l-1.1.4.8.8.3-1.2zm4.8-3l.1 1 .8-.5-.9-.5zm-5.5.1l-.4-.2.2 2.1-.2.1.7.5.1-1-.6.4 1.3-1.5-.7-.3.9-.8-1.7-.7.4 1.4zm.7 3.9l1.2.1-.7-1-.5.9zm-.8.3l-1.7 1.5 2.1.4-.4-1.9zm-3.1 2.9l-.6-1.2-.9 1.3 1.5-.1zm-1.8-3.2l-.7-1-.5.9 1.2.1zm-6-4.5l.9-.3-.8-.6-.1.9zm4.2 12.5l.4-1.2-1.1.4.7.8zm5.2-4.1l.1 1 .8-.4-.9-.6zm-6.8-2.6l-.1-.3.2.4.4-.6-.8-.1-.1-.3-.1.1-.4-.4v.9l-.1.1 1 .2zm4.5-1.9l-.2 1.1.2-.1v.8l.7-.3-.6-.4.9-.3-1-.8zm3.7 22.7l-.2 1 1.2-.3-1-.7zm2.5 2.8l1.2-.3-1-.7-.2 1zm7.2-10l-.6 1.2 1.6-.1-1-1.1zm-3.1 10.6v-1h.3l-.9-1.8-1.3 1.8 1.8-.1-.8.6.9.5zm59.5-35.6l-.2 1.1 1-.3-.8-.8zm.9-5.3l-1.6.9 1.6.7v-1.6zm10.8 19.3l-2 .8 1.9.9.1-1.7zm-1-13.7l-.3 2.1 1.7-1.1-1.4-1zm-6.1-7.5l-.2 1.6-.2-.1.2.5v.1l.2.4.6-.7-.3-.1 1.2-.8-1.5-.9zm6 14l1.7-1.1-1.3-.9v-1.7l-1.9 1 1.8.7-.3 2zm-12.4-26.7l.6-.1-.1-.1 1.1-.7-1.4-1-.2 1.4-.3.6h.2v.1l.1-.2zm11 19.7l-1.9.9 1.9.8v-1.7zm-7.4-25.2l-1.5.8 1.5.7-.6 1.6h.3l-.7 1.3-.1-1.2.9-1.2-2-.4.4 1.7-.7.4 1.4.9-.3.4 1.8-.3-.2.4-.2-.2-.6 1.9 2-.4.3 1 1.4-1.8-1.9-.4 1.7-.1-.9-2.1h.1l-1.4-3-.6 1.6V270h-.1zm1.2 6.1l-1-.9.8-.1.2 1zm.2-3.2l-.8 1.4-.9-1.2 1.7-.2zm10.8 42.6l.2 1.9 1.6-.9-1.8-1zm-6.3-5.5l1.5-1-1.9-.9.4 1.9zm-21.2-48.9v-.2l-.1.1h-.1v.1l-.7.5.8.4.1.9 1.6-.9-1.6-.9zm20.8 42.3l.4 1.9 1.5-1-1.9-.9zm-.9-15.6l.3 1.7 1.2-.9-1.5-.8zm-9.5-13.8l-.3-.8-.6.7v-.3l-.2.1.1-.1-.8-.1.2.3-1 .3 1.6 1.6.2-1.7h.8zm10 19.6l-1.9 1 1.9.8v-1.8zm-13.6 1.2l.6-.8-.8-.2.2 1zm15.3-.4v-.9l.1-.1h-.1v-.4l-.4.3-.5-.1.2.4-.4.3 1.1.5zm-.7-3.4l.4 1.1.8-.8-1.2-.3zm-3.6-4.4l-.7 1 1.2-.1-.5-.9zm7.4 22.6l-.9-1.1-.3 1.3 1.2-.2zm5.9 10.3l1.3-.3-.9-1-.4 1.3zm-6.7-14.1l-.3 1.3 1.2-.2-.9-1.1zm1.5-4.4l1.1.4v-.3l1.6.1-1.3 1.4-.6-.2.6 1.9-1.9-1.6-.2 3 2.2-.9.2.5 1.2-1.1 1.5.3-1.3 1.4h.1l-.9 1.1 2 .4-.7 1.2 2.5.3-1.1 1.5 1.9.3-.7-2v.1l-1.1-2.7-.7 1.2-.7-1.3 1.4.1-.6-1.5h.2l-1-2-.6.7-1.8-.6h1.9l-.6-1.5h.6l-1.1-2.9-1.2 2-.9.7zm-8.8 2.6l.3 1.1.8-.9-1.1-.2zm12.1 8.8l.8-1.2-1.5.2.7 1zm2.4 1.2l-1.4.2.7 1 .7-1.2zm-4.5-5.8l.6-.6-1-.3.1.8h-.2l.9 1.9 1.2-1.6-1.6-.2zm3.2 5.4l-2.1-.3.9 1.9 1.2-1.6zm-6.9-16.1l-2.1-.3.9 1.9 1.2-1.6zm-4-8.8l1.1-1.6-2.1-.3 1 1.9zm-5.4-8.9l1.1-1.6-2.1-.3 1 1.9zm17.7 43.2l.6-1-1.2.2.6.8zm-16.2-20.4l-.3.6h.8l-.5-.6zm6.5-1.6l-.7.4.6.3.1-.7zm-3.6-14.8l.4-.7-.8-.1.4.8zm-2.2 4l.8-.1-.6-.5-.2.6zm6.1-1.8l-.6.9.8.1.1.6-1 .1 1 1 .4.6.5-.9h-.8l.1-.2 1.1-.8-.3-.1.8.1-1.1-2.9-1 1.5zm-6.6-9.5l.4-.7-.7-.1.3.8zm-1.6 2.8l-.2.5.7-.1-.5-.4zm4.7-1l.4.3.1-.6-.5.3zm-9.3 40l.7.1-.2-.7-.5.6zm2.2-6.3l.2-.6-.8.1.6.5zm12.2-.2l-.4 1.1 1.5-.2-1.1-.9z"/><path d="M304.5 319.1l.2-1.2-1 .6.8.6zm-1-10.3l.3 1.1.4-.3.5 1 1-1.3-1.2.1h.1l-1.1-.6zm-3.3 1.9l-.5 1.6 2-.4-1.5-1.2zm-6.7-20.4l-.2 1.1 1-.6-.8-.5zm-.6 10l1.1.4-.3-1.1-.8.7zm.3-2.3l1.3-.7-1.3-.4v1.1zm7.1 1.2l1.1.2-.3-1.1-.8.9zm-9-13.8l-.8-.7-.1.6-.4-.1.3.6v.1h.1l.2.4.7-.8v-.1zM290 295l1.1.4-.3-1.1-.8.7zm-4.4-22.9l-.2 1.4 1.2-.3-1-1.1zm-7.4-.1l.7-.9-1-.2.2.9-.8.2.6.8.3-.9v.1zm10.5 13.2l-.2 1.1 1-.3-.8-.8zm.6-5.9l-.9.5.5.2h-.1l.6 1.1.7-.8-.7-.1-.1-.9zm-7 4.9V283l-.9.8.9.5.2.8.6-.8-.8-.1zm10.5-3.7l-1.3.2v-.3l-1.3.7 1.5.9-.1-1.3.9.9.3-1.1zm-6.8-4.4l-.1 1.2 1-.6-.9-.6zm1.2 10.6l-.4-1.1-.3.3.7-.8-1.2-.2.6 1.1-.4.4 1 .3zm-2.92-22.9h1.6l-1.2 1.1 1 .1-.9.4 1 .5v-.9l1.5.2-1.3 2.9 1.8-.1-1.1 1.8 2.7-.2-1-2.6v.1l-.9-2.3-.1.3-.4-1.5h.1l-.2-.4-.1-.4-.7-1.5-1.8 2.5zm-.88 6.6l.4-1.1-1.4.1.1.2h-.2l-.8-.7-.2-.2v.1h-.1v.2l-.3.7.3-.1-.1 2.2 2.5-1-.2-.4zm-.6-.6l.4.5-.4-.5zm2.2 8.3l-.2-.9-.5.3-.6-.5v1.9l1.1-.5.3.1-.1-.2.2-.1-.2-.1zm6.4 6.8l1.6-.6-1.5-1.3-.1 1.9zm-2.3-4l-.1 1.9 1.6-.6-1.5-1.3zm5.9 4.4l-1.1 1.1 1.6.1-.3.4 1.7.1-.6-1.4-.4.5-.3-.7 1.3.1-1.42-2.63-1.28 2.33.8.1zm2.6 7l-.7.3.4.2.3 1.7 1.5-1.1-.7-.3v-.7l1.3.1-1.1-2.9-1.6 2.6.6.1zm.7 2.9l.8.1.7.7.2-.6.9.1-1.5 2.6h.3l-.5.3 1.1.4v-.7l1.7.2-2.2-5.8-1.5 2.7zm-4.7-13.3l-1 .6 1.5.7v-1.1l1.2.1-1.1-2.9-1.6 2.6h1zm15.5 40.7l-.1.2h.1l-.6.2 2 2.4.5-2.4.8.1-1.2-3-.6 1-.3-.6.7-.4-.4-.2v-.1l.2.1-.4-1.1.2.1-.9-2.4-.6.8-.4-.2.4-.4h.2l-.1-.1.4-.4-.7-.3-.3-.8-.4.5-.1-.1v-.8l-.7.3-.5-.3v.4h-.1l.1.2-.7.3.6.3-.1.6.4 1.1-.1.1h.1l.6 1.6 1.1-1.1.5.2-.7.8.6.2-.5.6h.6v.1l-1.4.4-.2-.1v.2h-.1l.1.1-.2 2.8 2.2-.9zm-2.6-6.2l.1.3-.4-.1.3-.2zm2.3 4.9l.9.2-.5.8-.6-.5.2-.5zm-18.1-23.2l.8.5.1.3.5-.8h-.5v-.7l-.9.7zm-3.1-6.2l-.5.9 1-.2-.5-.7zm-19-65.4l-1.6.6 1.5.9.1-1.5zm10.9 43.4l-.2.5h.7l-.5-.5zm-8.8-33.7l.6-1.1h-1.4l.8 1.1z"/><path d="M265.4 229.6l-.3 1.1 1.1-.4-.8-.7zm-.9 9.6l-.9.6 1.1.6-.2-1.2zm10.3-1.7l-.9.4.7.4-.3 1.1 1.9-.4-1.4-1.2v-.3zm-7.5 4.9l.7-.7-.8-.3.1 1zm19.6 36.5l-1-.2.4.9.6-.7zm-9.3-.2l1-.2-.5-.7-.5.9zm0-19.6l-2.2 1.5 2.8 1.5-.6-3zm-.2-9.6l-.8.6 1 .3-.2-.9zm-4.7.9l-.8 1.2 1.5-.2-.7-1zm-1.5 1l-1.3 1.3 1.8.2-.5-1.5zm4.4 0l-.1-1-.7.7.8.3zm-3.9-4.9l-.3.8.8-.2-.5-.6zm13.3 24.2l-1.1-.5.3 1.2.8-.7zm-3.7-5.6h.4l-.1 1.1.9-.6-.8-.4h.6l-.4-.8-.6.7zm-8.2 6.3l-.9-.4.2 1 .7-.6zm-.3-23.8l-1.2 1.9 2.2-.2-1-1.7zm3.1.8l.8-2-2 .1 1.2 1.9zm2.1-.1l1.1 1.9.8-2-1.9.1zm2 4.4l2 1-.4-2.1-1.6 1.1z"/><path d="M277.68 250.12l-.4 1.9 1.3-.3 3 .1-1-2.6-1.5 1.9-1.4-1zm2.1 4.78l1.6-.4-1.7-1.3-.3 1.4-.1-.1-.4 1.9.8-.2 1.2 1.6-.5.9-.8-.3v1.9l.3-.1v1h.1l1.5 1.5-.8.1.9 1.5.6-1.6h-.7l.2-2.1-1.4.4.5-.3-.7-.4 1.6-.8-1.1-.5h2.1l-1.3-1.7.6-1h-1.9l1.1-.3-.1-.1 1.9.2-.8 1.3 1.5.1-.6-1.5h.6l-1-2.3-1.8 1.9-1.1-.7zm-5.08-6.1l-.3 1.2-.9-.7v1.3l.5-.2.5.5.1-.4 1.7-.4-1.6-1.3zm.8 4.3l2.2-.6-1.7-1.3-.5 1.9zm-.5 4.3l.8-2h-1.9l1.1 2zm2.1-16.1l-.9-1.8-1.1 1.3 2 .5zm-1.9-4.6l-.8-1.8-1.2 1.4 2 .4zm-2.6-3.6l-1.4-1.3-.5 1.6 1.8-.3.4 1.1.7-.8-1-.3z"/><path d="M267.3 220.7l-.5 1.6 1.9-.3-1.4-1.3zm17.7 47.8l.8 1.2-.5 1.7 2.2-.4-1.5-1.3.4-1.4-1.4.2zm-6.9-11.9v.9l-.3-.8.8-.3-1-.8v1.2l.1-.1-.7.7 1 .1v.5l-.2.1.2.2v.2l.2-.1 1 .7v-1.2l.9-.4-2-.9zm4.2 2.3v2l2-1-.2 1.7-.6-.2v1.9l2-1-1.2-.6 1.9-.6-1.8-1.8-.1.7-1.5-.7h2.5l-1-2.2-1.6 2.1-.4-.3zm2.6 7l-.4 1.2-.6-1.3-1.1 1.4h1.7v.1l-1 .6 1.2.8-.5.3.4.3.1-.6.2.1-.1-1.1 1.7-.3-1.6-1.5zm5.7 12.2l-.4 1.4 1.7-.3-1.3-1.1zm-1.8-1.8l-1.2-1.1-.3.9-.4.3.3.2.2.1v-.2l1.4-.2zm-13.9-23.6h0l-.5.2.6.9.6-1.1-.2.1-1.1-1.8-1.1 1.7h1.7z"/><path d="M292.3 278l-.6 1.8 2.2-.4-1.6-1.4 1.5.3-.9-2-1.2 1.5.6.2zM282 263.9l1.6 1.6.1-.8.7-.5-.6-.3.1-.6-1.9.6zm-9.3-26.8l.3-1.5-1.3.3 1 1.2zm8.6 31.2l.1-1.5-.2.1.2-.4-.7-.1.2.6-.8.3 1.2 1zm-4.1-4.8l-.1 1.5h.1l-.1.8 1-.6-.6-.4.8-.6-1.1-.7zm0-1.3l-.8-.5v1.1l.8-.6zm-1.3-9.1l1.2 1.9.6-1.7.3.9.7-.6-.9-.3.1-.3-2 .1zm-2.8-8.3l-.5 1.9 2.2-.6-1.7-1.3zm-11.9-.5l.8-.5-.9-.5.1 1zm-.8-6.1l-.6.6.8.1-.2-.7zm-4.4 6.4l.3-.8h-.7l.4.8zm23.3 19.4l.9-.6-1.1-.6.2 1.2zm-7.1-5l1 .4-.1-1.2-.9.8zm6 10.5l-2-.5.8 1.8 1.2-1.3zm-1.12-24.03l-.3 1.7 1.6-.6-.3.6-.8 1.3 3-.2-1.2-2.7-.4.7-1.6-.8zM273.8 264l-.8.6.3-.8h-.3l.5-.2-.5-.5-.3.7h-.3l.5.8-.5.4 1.6.4-.2-1.4zm-1.7-22l1.1.9.3-1.2-1.4.3zm-5-3.8h.6l-.4-.8-.4.7-.4-.2-.1 1.2.9-.7-.2-.2zm.7 9.1l-.7.8 1.2.3-.5-1.1zm-5.3-6.3l-1-.2.5.9.5-.7zm-3.8-3.7l.8-.2-.4-.6-.4.8zm-1.3 5.8l-.7.3.6.6.1-.9zm12.1-14.8l1-.1-.4-.8-.6.9zm-2.5 6.8l-.9.2.7.8.2-1z"/><path d="M269.6 232.6l-1.2-.4.4 1.1.8-.7zm-3.5-6.1l-.6.9 1-.1-.4-.8zm-3.9 8v-.5l-.8.7.8.3-.3.2.9.6.1-1.2v-.3l-.7.2zm0 .2l.2.2-.2.1v-.3zm3.8-2l-1-1.2-.7 1.7 1.7-.5zm7-.8l-.9-2-1.3 1.4 2.2.6zm-3-6.7l-1.3 1.5 2.2.6-.9-2.1zm6.6 42.1l1.3.7-.2-1.5-1.1.8zm-1.8 1.4l-.9.8 1 .4-.1-1.2zm-10.2-24.9l-.3-1-.6.8.9.2zm11.3 27.6v.8l-.3.1.8.7.1-1-.3.1.4-.3-.7-.4zm2.8-7.4l-.4.9 1-.2-.6-.7zm-3.6 3.7l-.4-1.2-.6 1 1 .2zm-13.6-34.9l.8-.4-.6-.4-.2.8zm6.4-3.3l.1.8-1.1.4.8.7.3-1.2.1.4.9-.6-1.1-.5zm-1.1-6l-.7.7 1 .1-.3-.8zm-4.7 6.8h-.9l.6.9.3-.9zm21.4 49.7l.8 1.8 1.3-1.3-2.1-.5zm-7.8-.5l1.9-.9-1.8-.8-.1 1.7zm5.4-4.1l-1.3 1.1 1.7.3-.4-1.4zm6.1 8.2l-1.4.4 1.2.8.2-1.2zm-7.4-2l.9-.7-.9-.4v1.1zm2.3 8.1l-.6.8 1.2.2-.6-1zm-11.2-34.9l.5.8-.6-.1.4.9.5-.8h-.3l.4-.7-.9-.1zm-2.8-4.2l-.3.8.8-.2-.5-.6zm-1.9 7l.7.5v-.8l-.7.3zm9.6 25.9h-1l.6.8.4-.8zm-4.4-3l.8-.3-.5-.5-.3.8zm-.9 6.3l.7.4-.1-.8-.6.4zm14-12.9l.6 1.1.7-.9-1.3-.2zm-5.2 2.7l-.8.3.8.7v-1zm-6-33.2l-.3 1 1-.2-.7-.9.2-.2-1.2-.4.4 1.1.6-.4zm-3.2-6.4l-.6.9 1-.1-.4-.8zm6.7 36.3l-.5 1.7.4-.2 1.1.4-.2-.8.3-.1-1.1-1zm4.5.2l-.1-1.2-.9.8 1 .4zm.9 7.4v-1.2l-.9.8.9.4zm-4.9 5h.9l-.4-.9-.5.9zm4.4-8.5l-.3.7-.3-.3-.2.6.4-.1-.1.2 1.1.1-.6-1.2zm-11.5-33.1l.5 1.9 1.5-1.1-2-.8zm3.7-1l2-.6-1.7-1.1-.3 1.7zm-1.3-4.1l-.1-1.5-1.5 1 1.6.5zm-5.9 7.4l.3-1.2h-.1l.1-.7-.9.2.4.5-.9.2 1.1 1zm-6.8-5.1v1.2l.9-.7-.9-.5zm.8 10.3l1.2.3-.5-1.1-.7.8zm10.5 8l-1.2-.3.5 1.1.7-.8zm-4.4-4.8l1-.2-.5-.7-.5.9zm-2.2 7.9l.1-1-.8.3.7.7zm7.1 10.6l.6 1.1.7-.8-1.3-.3zm-3.6-4.4l1-.2-.5-.7-.5.9zm-1.7 8.1v-1l-.8.3.8.7zm12.2-32.3l-.9-1.8-1.3 1.8h2.2zm-12.7-5.2l-1.2.6 1.3.9-.1-1.5zm-3.3 3.1l.1-1.2-1 .7.9.5zm-5.3 4.6l.9.1-.3-1-.6.9zm12.1-4.3l.4 1.2.8-.8-1.2-.4zm-5.9 1.9l.5-.2-.6-.5-.1.8-.3.1.7.8.2-1h-.4zm24.5 50.2l.1-1.2-1 .7.9.5zm-4.6-5.8l1-.1-.5-.8-.5.9zm-.1-6l.4.3.7.5.2-1.2-.9.3v-.4l.1-.1-.6-.4v.5l-.3.1.4.4zM272 240.9l2-.6-1.6-1.1-.4 1.7zm20.3 54.2l.2-1.2-1.3.4 1.1.8zm-7.3-4.4l.1 1.2.9-.8-1-.4zm1.8 10.1l1.2.2-.6-1-.6.8zm-6.9-11.9l-1-.1.3.4-.4.6 1.2.2-.4-.7.3-.4zm-4.4-3.1l.8-.3-.6-.5-.2.8z"/><path d="M274.5 292l.7.4-.1-.8-.6.4zm12.2 14.2l.4-.7-1-.1.6.8zm-3.9-3.9l.8-.3-.5-.5-.3.8zm-1.2 6.3l.7.4-.1-.8-.6.4zm5.3-28.7l-.4.9 1-.2-.6-.7zm-2.1 9v-1l-.8.3.8.7zm-2.4-8.5l1-.2-.6-.7-.4.9zm-2.5 7.5l.8.7v-1l-.8.3zm2.7 7.5l-.5.9h.9l-.4-.9zm-4.3-7l.2-1.2-1.3.4 1.1.8zm-7.1-3.3l.9-.7-.9-.4v1.1zm1.5 9l1.2.2-.6-1-.6.8zm25.4 31.6l.6-.8-.8-.2.2 1zm2.6 25.5l.7.1-.2-.7-.5.6zm2.5-7l-.8.1.6.5.2-.6zm6.3-19.5l-1.3.4 1.1.8.2-1.2zm-7.4-3.2l.1 1.2.9-.8-1-.4zm1.8 10.1l1.2.2-.6-1-.6.8zm-7.3-11.2l.4-.8h-1l.6.8zm-4-3.8l.8-.3-.6-.5-.2.8zm-1 6.3l.7.4-.1-.8-.6.4zm12.2 14.2l.4-.8h-1l.6.8zm-3.9-4l.8-.3-.5-.5-.3.8zm-1.2 6.3l.7.4-.1-.8-.6.4zm1.4-12.2l-.4-.9-.5.9h.9zm-4.7-7.9l.2-1.2-1.3.4 1.1.8zm-7.1-3.3l.9-.8-.9-.4v1.2zm1.5 8.9l1.2.2-.6-1-.6.8zm-7.8-40.1l-1.2-.2.5 1.1.7-.9zm-4.2-5.7l-.4.7-.3-.1.1 1.2.9-.8-.4-.2.6-.1-.5-.7zm-2.5 8.9l.1-1-.8.3.7.7zm-10.9-63.9l-.7 1 1.1.2-.4-1.2zM271 240l-.9.8 1 .5-.1-1.3zm4.1 17.3l1 .4-.1-1.2-.9.8zm-3.9-8.7l.2-1.6-1.3.8 1.1.8zm51.5 131.1l.9.7-.1-1.2-.8.5zm3.7 4.2l1.7-.5-1.1-1-.6 1.5zm9.6 2.6l-.5 1.4-.7-.4-.4 3 2.7-1.6-1.4-.9 1.4-.4-1.1-1.1zm-3.7 2.8l1.7-.6-1.1-1-.6 1.6zm3.6-8.5h.6l-.6-1.4-1.1 1.3h.6l-1 1.2h1.5l-.5.7 3 .7-1.3-2.8-.8 1-.4-.7zm-15.8-19.6l-.6 2 2-.9-1.4-1.1zm10.8 9.5l-2 .5 1.8 1.2.2-1.7zm-5-2.6l1.7 1.2-.7 1.8 2-.7-1.2-1.2.2-1.6-2 .5zm2.9 4.5l-.7 1.9 2-.7-1.3-1.2zm8.1 11l-.6 1.6 1.1-.3-.6.8 3 .7-1.3-2.8-.7 1-.9-1zM319 354.4l-1.8.5 1.2 1.5.6-2zm-3.4-8.4l-1.8.5 1.2 1.5.6-2zm4.4 18.3l-1.8.4 1.2 1.6.6-2z"/><path d="M323.4 367.5l-1.8.4 1.1 1.6.7-2zM318 337l-.9-1.5-.8 1.2 1.7.3zm-7.5 3.7l.4-1.7-1.5.4 1.1 1.3zm4.6-5.3l1.1 1.2.3-1.7-1.4.5zm20.1 41.6l-1.4.3-.2-.1.6-.6-1-.2.1.7.1 1.4.8-.7.3.4-.6.8 3 .7-1.3-2.8-.4.1zm-1.2 2.3l-1.5.2 1 1.4.5-1.6zm-1.2-5.3l.2-.8-1.8.4 1 1.4-.1.4.9-.3-.6.8 3 .7-1.3-2.8-.6.8-.7-.6zm-4.5 1.4l-.7 1.9 2-.7-1.3-1.2zm-8.3 10.4l.4-.8-1-.1.6.9zm12.2-8.2l.5-1.1h-1l.5 1.1zm.4 4.8l-.9.8 1.2.2-.3-1zm-11-20l-1 .8 1.2.7-.2-1.5zm-2.1-11.9l-1.1.7 1.2.7-.1-1.4zm3 14.4l1.2.7-.2-1.4-1 .7zm-2.4 7.2l.6-.9h-1.2l.6.9zm4.2-9.4l.5-.9h-.8l.9-1.3-1.9-.3.7 2 .1-.2.5.7zm-.9-5.1l-1.4-.2.3 1.2 1.1-1zm-2.1-3.1l.3 1.2 1.1-.9-1.4-.3zm-3.8-14l.6-1.6-.6.3-2.5-1.3v2.7l2.3-1 .2.9zm9.1 16.9l-1.6 1.9 1.4.3-1.1 1.7 1.4.1-.1.1h1.9l-.8 1.3-1.7.1.2.4-2.2 1 2.3 2 .1-2.5.9 1.8.3-.6 1.9.1-1 1.3-.2-.2-.4 1.1 1.1-.4 2.3.5-1.3-2.8-.3.4-.7-1.5-1.3 1.4.8-1.7.9.1-.7-2-.1.1-.6-1.5-.9 1-.5-1.5 1.4.4-1.2-2.7h.1l-.9-1.9-1.2 1.6 1.8.6zm-1-3l-.9-1.9-1.2 1.6 2.1.3zm-5.4 1.3l.8 2 1.2-1.7-2-.3zm7.8 18.1l1.2-1.7-2-.2.8 1.9zm6.7 7.4l-1.9-.2.8 2 1.1-1.8zm-26.4-29.1l1.2-.3-.7-.8-.5 1.1zm.4-14.9l1.1.2-.3-1.1-.5.6-1.5-1.4-.5 1.7 1.9-.3-.2.3zm8.1 12.5l.9-.7-1.1-.3.2 1zm.6-11.9l-.1-.8-.7.6.8.4-.5.7 1.3.2-.6-1.2-.2.1zm2.6 35.7l-.6.5.6.2v-.7zm5-3.3l-.1.7.7-.2-.6-.5zm8.9 13.1l.4.8.5-.6-.9-.2zm-4.4-1l.6.2v-.7l-.6.5z"/><path d="M302.7 365.5l.8.1-.3-.7-.5.6zm6.1 4.2l.6-.5-.6-.2v.7zm8.7-9.9l.1-1.4-1.2.9 1.1.5zm.8-8.4l-.2 1 1.2-.3-1-.7zm7.2 6.9l-1 .1.5 1 .5-1.1zm-16-23.7l-.5-1-.5 1.1 1-.1zm2.7-2.9l-.5 1.1h1l-.5-1.1zm-.3-3l.2.9.8-.7-1-.2zm9.3 30l-1.7 1.2 1.6.8.1-2zm-10.6-10.6l-.9.8.9.3v-1.1zm2.2 2.7l-.6.4.9.4.1-.6.2.1V350l-1 .7.4.1zm-1.5-25.2l1.8.4-1.1 1.1 1.9.6-.7-1.9-.1.1-.7-1.8-1.1 1.5zm-2.7 4.6l-.5 1.7 2-.3-1.5-1.4zm1-4.1l.4 2 1.3-1.6-1.7-.4zm-3-14.7l-2-.7.9 2.9 1.1-1 .3.1-.8 1 1.9.3-.7-2-.1.2v-.1l.2-.2-.3-.1-.2-.7-.3.3zm4.4 17.3l-.5 1.7 2-.3-1.5-1.4zm2.4 7.3l-.3 1.8 1.9-.5-1.6-1.3zm18.1 42.5l-1.1.3 1 .7.1-1zm-7.4-6.4l-.4 1.1 1-.1-.6-1zm1.5 2.4l.8.8.6-1.3-1.4.5zm4.5-6.9l-.6.9 1.2.1-.6-1zm3.3 18l.1-1-1.1.3 1 .7zm-7.5-7.8l-.4 1.1 1-.1-.6-1zm9.5 6.2l-1.6.8 1.5 1.2.1-2z"/><path d="M331.3 367.8l-1.1 1.4-.4-.4-.4 1.1.6-.2-.2.3 3 .6-.6.8-.6-.2v1l-.5.6 3 .7-1.3-2.8-1.5-2.9zm-6.9-10.5l1.3-2.8-2.7.1 1.4 2.7zm12.8 31.5l2.2-1.6-1.8-1.4-.4 3zm-12.3-12.7l-.6-.5.3-.4-.9-.2.2.3-.2 1 1.2-.2zm5.7.2l.2-.4.4-.1-.3-.2.1-.1h-.2l-.7-.6-.3 1.2.5-.1.3.3zm-4.5 6.5l-.2-.9-.8.6 1 .3zM316 343.9l.3 1.2 1.1-.9-1.4-.3zm-.9-2.7l.2 1.1-.7.1.1.1-.7-.1.8 2 1.2-1.7-.6-.1.1-.3 1-.8-1.4-.3zm2.6-.9l1.4.2h-1.6l1.4 2.8.1-.2.1.2-.1.1h.2l.3.4.1-.3 1.1.2-1.6 1.9.2.1-2.1.9 2.3 2 .2-2.8.9.3-1 1.5.4.1.6.7-.4.4h.8l.2.3.1-.3h.9l-.5 1h-1.6l.8 1.4-.2.3h.4l.4.9-.3 1 1.1-.5.3.5.3-.8.3-.1-.2-.1.2-.3h.7l-.4-.8.3-.7h-.6l-.1-.1-.1.2h-.6l.2-.4 1 .1-1.1-2.3-.3.7-.6-1.3.1-.4-.4.1-.3-.9 1.1.3-1.3-2.9-.8-1.8v.1l-.8.2.2-.5.6.1-.3-1 .1-.1h-.1l-.8-1.8-1.2 1.4zm-6 5.5l.1-1.4-1.2.9 1.1.5z"/><path d="M312.3 338.5l1.2-.3-.9-.7-.3 1zm6.3 6.2l.5 1 .5-1h-1zm-4-14.7l-1.7 1.9 2.9.9-.4.4-1.3.3.5.7-.1.1h.2l.4.6.1-.4 1.7.5-1-2.3-1.1-2.7h.1l-1-2.3-1.3 1.6 2 .7zm9.4 50.2l-.2 1 1.2-.2-1-.8zm6.7.8l1.3.9.2-1.7-1.4.3.1-.3h-.9l.2.4h-.1l.1.1.2.4.3-.1zm-5.6 6.5l1 .2-.2-.9-.8.7zm2-10.3l-.2 1.4 1.2-.7-1-.7zm-1.5 7.3l-1.1.1.8.9.3-1zm-5.8-8.2l-.7 1 1 .1-.3-1.1zm-4.7-2.6l.2 1 .7-.8-.9-.2zm.2 5.5l.8.3v-.7l-.8.4zm-5.4-3.4l.7-.2-.6-.6-.1.8zm9.9 6.6l-.6.7 1 .2-.4-.9z"/></g><linearGradient id="G" gradientUnits="userSpaceOnUse" x1="235.258" y1="251.174" x2="236.405" y2="193.329"><stop offset="0" stop-color="#341413" stop-opacity="0"/><stop offset="1" stop-color="#240f0e"/></linearGradient><path d="M195 206.3s-1.9 12.7 1.3 22.1c1.9 5.6 3.2 9.6 5.7 13.4s4.7 9 4.7 9 16.3-7.5 35.2-9.4c15.6-1.6 35.1 0 35.1 0l-7.1-17.4c-1.5-3.5-4.5-11.2-7.1-17.9h-66.5l-1.3.2z" fill="url(#G)"/><g fill="#68322e"><path d="M309.2 383.8l-1 .4 1 .8v-1.2zm-.2 6.6l1.4-1-1.6-.4.2 1.4zm.9 7.9l1.4-1-1.6-.4.2 1.4zm-18.2-21.1l.7-1.2-2.2-.1 1 1.4-1.4.1.9 1.5 1.1-1.7h-.1zm1.4 3.8l.6-.9.9.2-.4-.8.1-.1h-.2l-.5-.8 2.1 1.3-.3-3-2.1 1.2-.2-.4-1.2 1.6h-1.3l1.2 1.8.5-.9.8.8zm1.9-7.7l1.8-1.2-2-.6.2 1.8zm4.3 8.7l-2-.4.3 1.7 1.7-1.3zm-1.3 4l-.1-2.1-1.5 1.4 1.6.7zm7.5 6.7V391h.3l-.3-.4v-.1l-.2-.4-.5.7h.3l-1.1.9 1.5 1zm-8.4-11.1l-.1-2.1-1.5 1.4 1.6.7zm2.7 3l.2 1.7 1.8-1.2-2-.5zm4.2 14.5l1.4-1-1.6-.5.2 1.5zm-12.7-33.5l-1.4 1.2 2 .7-.6-1.9zm-6-9.5l-1.4 1.2 2 .6-.6-1.8zm13.4 16l-1.3 1.2 2 .6-.7-1.8zm2 5.6l-.7-1.8-1.4 1.2 2.1.6z"/><path d="M281.7 361.4h.1l-.6-1v.1l-.4-.8-1.1 1.5 2 .2zm-6.9-10.8l-.8-1.5-1 1.1h.2l-.9.2 1.6 1.9.3-1.9.6.2zm6.9.2l-.6-1.6-1.1 1 1.7.6zm-6.5.3l-1.1 1 1.7.5-.6-1.5zm28.6 42.2l-.6-1.6-1.1 1 1.7.6zm-1.2-5.7l1.8-1.2-2-.6.2 1.8zm12.7-3.9l-.4.9.9.1-.5-1zm-14.5 3.3v.9l-.1.1h.1v.4l.3-.3.6.1-.2-.3.4-.3-1.1-.6zm-.1 3.1l1.2.2-.6-1-.6.8zm5.4 4.1l.5-1.1-1.1.3.6.8zM295 373.5l1.1.9.1-1.3-1.2.4zm-7.2-9.5l-1.2.4 1.1.9.1-1.3zm8.8 11.6l-1.2.4 1.1.9.1-1.3zm-1 5.3l-1.2-.2.1.4-2.3.2 1.6 2.6.8-2.2 1-.8zm8.4-5l-.6 1 1.1.1-.5-1.1zm-10-.1l-.3-.9-.1-.1v-.1l-1.1-1.5-.9 1.7h1.8l-.5.8 1.1.1zm-3.7-4.8l-.6 1.3 1.4-.4-.8-.9zm-5-1l1 1.9.9-1.9h-1.9zm4.6-1.4l-.9 1.8h2.1l-1.2-1.8zm9.3 15.8h2.1l-1.2-1.8-.9 1.8zm5 8.3l-.9 1.7 2.1.1-1.2-1.8zm-13.9-36.5l-1.2.1.4.9.8-1zm-4 5.9l1.1-.4-.7-.7-.4 1.1zm-7.8-3.3l.5-.9 2.1.6-1.5-2.5 1.1-.4-.9-.9-.4 1.2-1.3 1.8.6.2h-1l.7-1.6h-.6l-.7-.7 2.1-1.5-2.3-1.4-.2 2.8-.6.4 1.5.2-1.2.1 1.1 1.8.1-.2.9 1z"/><path d="M275.9 354.8v-.8l-.8.3.6-1.6-1.5.1.9 1.5.6.6h-.2l.7 1.1.4-1.2h-.7zm28.4 27.7h.5l.1 1 .9-.8-.7-.3-.4-.7-.4.8zm2.1-5l-.8.2.6.4.2-.6zm-6.4 2.4v.7l.6-.4-.6-.3zm5.5 15.2l-.4.8h.8l-.4-.8zm1.6-3.6l.1-.7-.7.2.6.5zm1.7-32.6h-.7l.3.7.4-.7zm-.6 7l-.1.7.8-.2-.7-.5zm-12.5 1.5l-1.5.4 1.2.7.3-1.1zm-6.7-2.6l-1-.4v1.2l1-.8zm1.7 9.6l-.5-1-.7.8 1.2.2zm-13.1-28.5l-1.2-.1.6 1 .6-.9zm-3.6 2l.6-.9-1.2-.1.6 1zm-2.4-2.1l-.2-.2 1.6-.8-2.7-1.3v.7l-1.4.3 1.3 1.6.1-.3v.4l.5-.2-.1.2.9-.4zm22 26.3l.2-1.7-1.9.8 1.7.9zm-4.3-17.7l-1.1.4 1 .6.1-1zm1.3 4.3l-1.1.4 1 .6.1-.2.7.4.1-1-.8.3v-.5zm-11.7-13l.7-.7-1-.1.3.8-.2-.1.4 2-.7.1.8.8.4-1-.4.1 1.2-1.5-1.5-.4zm-5.3-2l.4 2 1.3-1.6-1.7-.4zm4.4 7.5l-1.6-.7.2 2 1.4-1.3zm25.6 38.3l-.9.7.9.4v-1.1zm-1.1-8.8l-1.1-.2.4 1 .7-.8zm.5 3.4l-.2-1.1-1.2.9 1.4.2zm4.7 10.6l-.9.7.9.5v-1.2zm-1.6-8.3l.7-.8-1.2-.3.5 1.1zm.6 9.4l-1.5.8 1.7 1.1-.2-1.9zm-3.6.1l.9-1.2-1.6.1.3-.4-1.5.1.8-1.8h-.8l-.3-.8 1-.2-1.1-.9v.1l-.8-.7-.3 1 1.1-.2-.1.3-1.1 1 1 .3h-1.3l1.5 2.7.3-.8.6 1.1.3-.5.4.7h-1l1.5 2.7 1.2-2.8-1 .2zm-3.8-6.3l.9-.7-1-.3-.5-1.3-1.3 1.3 1.2.3.1.7h-1.6l1.5 2.7 1.2-2.8h-.5v.1zm-2.2-3.1l-.7-.4-.1.5h-.9l1.6 2.7 1.1-2.8h-1zm-1.6 0l1.1-2.8h-.4l.4-.4-1.1-.2.1.6h-.7l.6-.9h-1.1l.4 1-1 .1 1.7 2.6zm-7.5-16.4l1.1-.3-.8-.9-.5 1.3h.1l-1.6 2 3 .6-1.3-2.7zm-3.2-1.4l.4.7.4-.6h.2v.4l.5-.3.7.1-.2-.4.9-.5-1.3-.4-.1-.1.6.1-.6-1.1.4-.6h-.7l-.5-1-1 1.3-1-.2.4-.7.3.1-.1-.4.4-.7-.6.1v-.1l.5-1-2-.1.4-1.3-2.7.4 1.8 2.7.4-1.5.5.7-.6.5.4.1.7 1.2-.8-.1 1.3 2.2.4-.9.5.1-.3.5h-.2l.1.1-.4.5.9.2zm5.8 5.8l-2.5.1.8-1.6h-2l1 1.9v-.1l1.5 2.5 1.2-2.8zm14.4 27.8l1.1-2.8-2.7.2 1.6 2.6zm1.6 1l2.9-.5-2.7-1.4-.2 1.9zm1.8-4.5l-1.4-.3.3 1.5 1.1-.9v1.6l2.8-1.3-2.7-1.3-.1.7zM285.5 364l-.3-3-2.4 1.4 2.7 1.6zm24.1 24.4l.4-1-1 .3.6.7zm-27-30.9l-.9-.9-.5 1.3 1.4-.4zm-4.4 1.6l1.1 2 1-1.9-2.1-.1zm3.3-5l-.2.7-.1-.1-.6.7.4.1-.2.6 2.1-.1-1.4-1.9zm4.5 0l-1.3.5 1.2.7.1-1.2zm-7.5-1.5l.8-.8-1-.3.2 1.1zm-5-5.4l-2.7.5 1.9 2.6.8-3.1zm35.4 39.2l.9-.8-1-.4.1 1.2zm-4.3-.5v1.2l1.3-.6-1.3-.6zm6.7 3.1l1 .3-.2-1.2-.8.9zm-2.5-8.6l.5-.9h-1.2l.7.9zm-.6-5.9l1-.1-.7-.7-.3.8zm4.6 3.4l.1-.8-.7.4.6.4zm.4-7.2l-.8-.3.2.8.6-.5zm.7 12.3h-.9l.5.9.4-.9zm-40.8-44.3l.2 1.5 1.4-1-1.6-.5zm-18.7-19.2l.7-1.2-2.3-.1 1 1.4-1.4.2.9 1.5 1.1-1.7v-.1zm1.6 3.8l.6-.9.9.1-.4-.8.1-.1h-.2l-.4-.8 2.1 1.3-.3-3-2 1.2-.2-.4-1.2 1.6h-1.3l1.3 1.8.5-.9.5.9zm1.5-9.5l.2 1.7 1.8-1.2-2-.5zm2.9 10l.3 1.7 1.7-1.3-2-.4zm.9 4.3l-.1-2.1-1.5 1.5 1.6.6zm-1.3-4.3l-.1-2.1-1.5 1.4 1.6.7zm3.3 4.7l1.7-1.2-2-.5.3 1.7zm4.2 12.7l1.4-1-1.6-.4.2 1.4zm-13.1-31.5l-.6-1.9-1.4 1.2 2 .7zm-6.7-11.2l-1.3 1.3 2 .6-.7-1.9zm13.9 15.7l-1.3 1.3 2 .6-.7-1.9z"/><path d="M263.1 318l-1.3 1.2 2 .6-.7-1.8zM244 304.2h.1l-.6-1v.1l-.4-.7-1.1 1.5 2 .1zm-7.1-10.7l-.8-1.5-.9 1.1.2.1-.9.2 1.7 1.9.3-1.9.4.1zm6.9.1l-.6-1.6-1 1.1 1.6.5zm-6.5.3l-1 1.1 1.7.5-.7-1.6zm29.3 39.9l-1 1.1 1.6.5-.6-1.6zm-.7-4.1l1.7-1.2-2-.5.3 1.7zm12.5-4.1l-.4.9h.8l-.4-.9zm-14.3 3.5l.1.9-.1.1h.1v.4l.3-.3.5.1-.2-.3.3-.3-1-.6zm.5 2.3l-.6.8 1.2.2-.6-1zm5.4 3.7l-1.1.3.6.8.5-1.1zm-11.1-19.8l-1.2.4 1.1.9.1-1.3zm-8.7-7.6l.1-1.3-1.2.5 1.1.8zm9.1 10.2l-1.2.4 1.1.9.1-1.3zm-.9 5.2l-1.2-.2.1.3-2.3.2 1.7 2.6.8-2.2.9-.7zm8.6-5.1l-.6 1h1l-.4-1zm-10.2.1l-.3-.8h.1l-.1-.1v-.1l-1.1-1.5-.8 1.8h1.8l-.5.8.9-.1zm-3.9-4.8l-.6 1.3 1.4-.4-.8-.9zm-5-.9l1 1.9.9-1.9h-1.9zm4.6-1.5l-.8 1.8h2.1l-1.3-1.8zm9.9 15.6h2.1l-1.2-1.7-.9 1.7zm5.2 8.3l-.9 1.7h2.1l-1.2-1.7zM252 299.5l.7-1-1.2.1.5.9zm-10.7-8.2l.3-1-.4.1 1.2-1.5-1.7-.4.4 2-.7.1.9.7zm7.9 12.1l-.4 1.1 1.1-.4-.7-.7zm-8.4-1.8l.5-.9 2.2.5-1.5-2.5 1.1-.4-.9-.8-.4 1.2-1.2 1.9.6.1h-1l.7-1.7-.6.1-.7-.7 2.1-1.5-2.4-1.3-.1 2.8-.6.4 1.5.2-1.2.1 1.1 1.8.1-.2.7.9zm-2.7-3.9v-.8l-.8.3.6-1.6-1.5.1.9 1.5.6.5h-.2l.7 1.1.4-1.3-.7.2zm31.3 21.8l-.8.2.6.4.2-.6zm-5.7 2.8l-.6-.3v.8l.6-.5zm5.2 14.8l-.3.8h.8l-.5-.8zm1.5-3.6l.1-.6-.7.2.6.4zm1.2-32.7l-.7.1.4.6.3-.7zm-6 8.7l.8-.2-.6-.4-.2.6zm-8.8.6l.9.6.1.4.8-.7-.6-.1.1-.7-1.3.5zm-5.2-3v-.7l-.6.3.2.1-.6-.2v1.2l1-.7v.1-.1zm1.9 9.6l-.6-1-.6.8 1.2.2zm-15.1-28l.7 1 .6-.9-1.3-.1zm-1.8 1.3l-1.2-.1.7.9.5-.8zm-3.2-1.5l.7.1-.5-1-.5.6-.1-.1-.3.9.9-.3-.2-.2zm23 24.1l-1.9.8 1.7.9.2-1.7zm-4.8-15.6h0l.6-.8-1 .1.3.5-1 .4 1 .6.1-.8zm1.4 4l-1.1.4 1 .6v-.2l.8.4.1-1-.9.3.1-.5zm-20.8-11.9l.4-1.9-1.7.4 1.3 1.5zm5.2-2l-1.7-.4.4 2 1.3-1.6zm2.7 6.9l-1.6-.6.2 2 1.4-1.4zm26.7 38.7v-1.2l-.9.8.9.4zm-1.1-9.9l-1.1-.2.5 1 .6-.8zm.2 2.3l-1.1.9 1.4.2-.3-1.1zm5.2 11.6l-.9.7.9.5v-1.2zm-1.7-8.3l.7-.8-1.2-.3.5 1.1zm.7 9.4l-1.5.8 1.7 1.1-.2-1.9zm-3.6.2l.9-1.2-1.6.2.3-.5-1.5.1.7-1.8h-.8l-.3-.8 1-.3-1.1-.8v.1l-.8-.6-.3 1 1.1-.2-.1.3-1 1 1 .3h-1.3l1.6 2.7.3-.8.7 1.1.3-.5.4.6-1 .1 1.6 2.7 1.1-2.8-1.2.1zm-3.9-6.3l.9-.7-1-.3-.6-1.3-1.3 1.3 1.2.3.1.7h-1.6l1.5 2.7 1.2-2.8-.4.1z"/><path d="M260.4 328.7l-.7-.4-.1.5-.9.1 1.6 2.6 1.1-2.8h-1zm-1.6 0l1-2.9h-.4l.5-.4-1.2-.2.1.6h-.7l.5-.9h-1.1l.4 1-1 .1 1.9 2.7zm-8.2-16.3l1.1-.4-.8-.9-.5 1.3h.2l-1.6 2.1 3 .5-1.4-2.6zm2.8 4.4l-2.5.2.8-1.6-2 .1 1 1.8v-.1l1.5 2.5 1.2-2.9zm13.5 24.9l1.6 2.6 1-2.8-2.6.2zm7.7-.5l-2.7-1.3v.8l-1.5-.3.3 1.5 1.1-.9v1.6l2.8-1.4zM248 306.4l-.4-3-2.3 1.4 2.7 1.6zm21 18.3l-.8-.3-.4-.7-.3.8h.5l.1 1 .9-.8z"/><path d="M272.9 330.3l.4-1-1 .3.6.7zm-24.6-19.1h.2l.1.4.5-.3.7.1-.2-.4.8-.6-1.3-.4v-.1l.6.1-.6-1.1.3-.6h-.7l-.6-1-.9 1.3-1.1-.2.5-.7.2.1-.1-.3.4-.7-.6.1v-.1l.5-1h-2l.4-1.4-2.7.4 1.9 2.6.4-1.5.5.7-.6.6.4.1.7 1.2-.7-.1 1.3 2.2.5-.9.5.1-.4.5h-.2l.1.1-.4.5.8.1.4.7.4-.5zm-3.4-10.9l-.9-.9-.4 1.3 1.3-.4zm-4.5 1.6l1.1 2 .9-1.9-2-.1zm3.3-5l-.2.7-.1-.1-.5.7h.3l-.2.6 2.1-.1-1.4-1.8zm4.5-.1l-1.3.6 1.2.6.1-1.2zm-7.5-1.3l.8-.9-1-.3.2 1.2zm-5.2-5.4l-2.7.5 2 2.6.7-3.1zm36.7 38.3l.9-.8-1-.4.1 1.2zm-3.4 4.3h0l-.3-.4-.5.8h.3l-1.1.9 1.6.8v-1.7h.3l-.3-.4zm8.2.5l.4-1-1 .3.6.7zm-9.2-4l1.3-.6-1.3-.6v1.2zm7.6.9l-.8.9 1 .3-.2-1.2zm-3.5-7.7l.5-.9h-1.2l.7.9zm-8.7-4.7l1-.1-.7-.7-.3.8zm4.6 3.3l.1-.8-.7.4.6.4zm.3-7.2l-.8-.3.2.8.6-.5zm-12.1-9.3l.9.5-.1-1.2-.7.4-.8-.1.4.8.3-.4zm-2.7-3.7l-.4-.5-.3.7.7-.2zM239.5 287l-.4.6.8.1-.4-.7zm6 4.6l-.7.2.4.5.3-.7zm17.5 11.7l-.3.9h.9l-.6-.9zm-3.2 2.8l-1.2.6 1 .8.2-1.4zm6.2-3.4l-1.1-.6.2 1.1.9-.5zm-9.7-3.6l-.8.9h1.2l-.4-.9zm.2-4.4l-.1.8.7-.2-.6-.6zm-4.9-4l-.7.4.8.3-.1-.7zm-17-10.8l-1.4 1.2 2 .7-.6-1.9zm-5.9-9.6l-1.3 1.2 2 .6-.7-1.8zm-3.8 5.6h.1l-.6-1v.1l-.4-.8-1.1 1.5 2 .2zm-6.8-10.9l-.8-1.5-.3.5-.1-.2-.7.8h.2v.1h.2l-.9.2 1.6 1.9.4-1.9.4.1zm6.9.3l-.6-1.6-1.1 1 1.7.6zm-6.5.2l-1.1 1.1 1.7.5-.6-1.6zm12.5 14.1l.2-1.3-1.2.5 1 .8zm3.4 6.5l-.8-.9-.6 1.3 1.4-.4zm-5.8-1.8l1 1.9 1-1.9h-2zm4.6-1.4l-.9 1.8h2.1l-1.2-1.8zm-1.3-9.5l-1.2-.1.3 1 .9-.9zm-10.2-11.3l.8.9.4-1h-.4l1.2-1.5-1.7-.5.4 2-.7.1zm8.4 13.2l-.4 1.1 1.1-.4-.7-.7zm-8.3-2l.5-.9 2.1.6-1.5-2.6 1.1-.4-.9-.9-.4 1.2-1.3 1.8.6.2h-1l.7-1.7h-.6l-.7-.7 2.1-1.4-2.3-1.4-.2 2.8-.6.4 1.5.3-1.2.1 1.1 1.8.1-.2.9 1z"/><path d="M219.2 269.3l.1-.8-.8.3.6-1.6-1.5.1.9 1.5.6.6h-.2l.7 1.1.5-1.2h-.9zm19.8 12.4l-1.4.4 1.1.8.3-1.2zm-7.5-1.9l.9-.7h.1v-.7l-.6.3.2.2-.6-.2v1.1zm-10.6-19.4l-1.2-.1.6 1 .6-.9zm-3.6 2l.6-.9-1.2-.1.6 1zm17.3 11.7l.1-.9-1.1.4 1 .5zm-1.9-5.4l-1.1.4 1 .6.1-1zm1.7 6.7l-1.1.4.9.6.2-1zm-15.7-16.8l-1.7-.4.4 2 1.3-1.6zm1.2 8.4l1.4-1.4-1.6-.7.2 2.1zm11.4 17.3l1.1-.3-.8-.9-.6 1.3.3-.1-1.7 2 3 .6-1.3-2.6zm-3.1-1.4l.4.7.3-.6.3.1v.4l.5-.3.7.1-.2-.4.8-.5-1.3-.4v-.1l.6.1-.6-1.1.4-.6h-.7l-.5-1-1 1.3-1-.2.5-.7.2.1-.1-.4.4-.7-.6.1v-.1l.5-1-2-.1.4-1.3-2.7.3 1.8 2.7.4-1.5.5.7-.6.5.4.1.7 1.2-.8-.1 1.3 2.2.5-.9.5.1-.3.5h-.2l.1.1-.4.4.8.3z"/><path d="M228.9 278.2l-.3-3-2.4 1.4 2.7 1.6zm-3-6.2l-.9-.9-.5 1.3 1.4-.4zm-4.5 1.5l1.1 2 1-1.9-2.1-.1zm3.4-4.9l-.3.7-.1-.1-.5.7.3.1-.2.5 2-.1-1.2-1.8zm4.3 1.2l.2-1.2-1.4.5 1.2.7zm-7.3-2.7l.8-.8-1-.3.2 1.1zm-5-5.4l-2.7.5 1.9 2.6.8-3.1zm20.3 14.6l-.9-.1.4.8.5-.7zm-3.2-4.1l-.3.7.7-.2-.4-.5zm-13-13.5l-.4.6.8.1-.4-.7zm-9.9-5.1l-.7-1.6-1 1.1.2.1-.9.1 1.5 2 .4-1.9.5.2zm.4.4l-1.1 1 1.6.6-.5-1.6zm2.7-3l-1.2.1.8.9.4-1zm-1.3 6.8h-.9l.1-.8-.8.2.7-1.5h-1.5l.8 1.6.6.6h-.2l.6 1.2 1.2 1.5.4-1.9-1.6.3.6-1.2zM211 248l-1.2-.2.6 1 .6-.8zm-.6 2.9l.6-.9-1.2-.1.6 1zm-2.9-3l-.4.9 1-.2-.6-.7zm-.7-3.9l-1.7-.6.3 2 1.4-1.4zm-1.4 3.1l1.2 1.6.6-1.9-1.8.3zm-2.2-3.9l1.4-1.5-1.7-.6.3 2.1zm11 11.1l-1.6-.7.1 2 1.5-1.3zm.1 7.5l2.6-1.6-2.2-1.5-.1 1.2-.3-.3-.3.9.6-.2-.3 1.5zm7.7-4.1l-1.4.4 1.2.7.2-1.1zm-6.5-2.7l-1-.4.1 1.2.9-.8zm-5.6-4.9l-2.7.3 1.7 2.7 1-3zm4.2-2.8l-.4.6.8.2-.4-.8zm12.7 16l-.7.2.4.5.3-.7zm.9 3.7l.6-.8-1 .1.4.7zm4.9-2.1l-.1.8.7-.2-.6-.6zm-4.8-4.1l-.8.4.8.3v-.7zm48.8 78.7l.3-.4.9.6-.1-1.2-.7.4-.8-.1.4.7zm-2.3-4.1l-.4-.5-.3.7.7-.2zm-13.8-13.8l-.4.6.8.1-.4-.7zm5.7 5.3l.3-.8-.7.3.4.5zm17.8 11l-.4.9h.9l-.5-.9zm-3.3 2.8l-1.2.7 1 .7.2-1.4zm6.2-3.4l-1.1-.6.2 1.1.9-.5zm-9.2-2.6l-.4-1-.8.9 1.2.1zm-4.5-4l-1 .1h-.1l.2 1.5 1.4-1.1-.8-.2.3-.3zm4.3-1.4l-.1.8.7-.2-.6-.6zm-5.3-3.4l-.7.3 1 .8v-1l.2.1v-.7l-.7.4.2.1zm18 21.5l-.7.3.5.4.2-.7zm.6-6l-.7-.3.1.8.6-.5zm4.4 11h-.8l.4.6.4-.6zm.5 7l-.1.8.6-.3-.5-.5zm-9.4-14.5l.8-.1-.6-.7-.2.4-.9-.4.3 1.2.6-.4zm-3.1-6.4l-.6.9 1-.1-.4-.8zm-.9 3.8v1.4l1.1-.8-1.1-.6zm-5.5 5.9l1.1.3-.4-1.1-.7.8zm10.1 1.8l.6-1-1.1.2.5.8zm5 1.2l-.4.9.9-.3-.5-.6zm-4.4 3.1v-.8l-.7.3.7.5zm6.2 2.5l-.8-.2.2.7.6-.5zm-16.6-31.9l-.9.1.5.9.4-1z"/></g><g fill="#260807"><path d="M243.3 218.4l-1.7.9 1.4.9.3-1.8zm13.4-.4l.5-1.6-1.5.6 1 1zm1.5-5.5l1.4-.1-.8-1.4-.6 1.5zm4.9-4.7l-.3 1.6 1.4.1-1.1-1.7zm-5.2 7.2l.6-1.3-1.6.1 1 1.2zm-18.7 5.1l1.4 1.6.7-1.7-2.1.1zm-17.8 4.8l.7-1.7-2.1.1 1.4 1.6zm32.6-11.1v-.4l-.7.4.1-.9.1.6.7-.7-.8-.3.1-1-.4.1-.3-.3-.1.4-.6.2.4-1.3-1.5.6.9.8-1.3.4 2.7 1.9v-.4l.2.1.9 1 .6-1.3-1 .1zm-3.4.9l-1.6.1 1.1 1.2.5-1.3zm-7.9 17.7l1 .2-.2-1.1-.8.9zm-.1-6.4v.8l.8-.4-.8-.4zm6.7 5.2l.2-.9-.8.2.6.7zm-18.6.8l1 .2-.2-1.1-.8.9zm.6-6.1l-.9-.4v.8l.9-.4zm5.9 4.8l.2-.9-.8.2.6.7zm-3.9-1.4l1 .2-.2-1.1-.8.9z"/><path d="M233.1 222.9v.8l.8-.4-.8-.4zm6.8 5.2l.2-.9-.8.2.6.7zm2.7-4.5l1.8-.9-1-.5.2-.2-1-.4.1.3-.2-.1.1 1.8zm3.8 2.4l.2-.9-.8.2.6.7zm-7.2-4.1h-1.1l.7.9.4-.9zm-1.6-2.8l.7.4.1-.9-.8.5zm3.2 4.3l1.3.1-.5-1.4-.8 1.3zm10-.2l.7-.7-1-.4.3 1.1zm-4.5-4.1l-.8.5.7.4.1-.9zm6.6-2.7l-.3.8.9-.1-.6-.7zm-.8.8l.4-1.6-1.5.6 1.1 1zm2.3-3.8l1.5-.5-1.3-.9-.2 1.4zm.4 2.1l.4 1 .7-.7-1.1-.3zm-.8 3.9l.1-.9-.8.5.7.4zm-8.6-3.9l-.2.5-.1-.1-.3.8.9-.1-.2-.3h.3l-.4-.8zm4.5 2.3l-.1-.9-.7.7.8.2zm-7.3-1.2l.2-1.6.2.1.3-1.9-1.7.9 1 .7-1.5.8 1.5 1zm2.5-5l-2.2 1.3 1.9 1.2.3-2.5zm-15.2 8.6l-.4 1.9 2.1-.5-1.7-1.4zm8 3.4l.7-.7-1-.4.3 1.1zm-4.5-4l-.8.4.7.4.1-.8zm6.4-2l.9-.1-.7-.7-.2.8zm-23.9-4.9l.9-.1-.7-.7-.2.8zm30.9 10.7l.6-.5-.8-.4.2.9zm2.2 1.9l1.1-.9-1.4-.7.3 1.6zm-4.5-1.2l.6-.5-.8-.4.2.9zm-5.6.3l-.2.7.8-.1-.6-.6zm-35.6 8.6l.9.2-.2-1.1-.7.9zm-.1-5.7l.8-.4-.9-.4.1.8zm6.7 4.4l.2-.9-.8.2.6.7zm-6.8-9.3l.1 1.8 1.8-.9-1.9-.9zm3.9 4.2l.2-.9-.8.2.6.7zm-7.2-4.1h-1.1l.7.9.4-.9zm1.9.7l.3 1.1.7-.7-1-.4zm-4.3-2l.1-.9-.8.5.7.4zm4.1.4l-.8 1.3 1.3.1-.5-1.4zm5.7 1.4l.2.9.6-.5-.8-.4zm3.5 2l-1.4-.7.3 1.6 1.1-.9zm-5.6-.3l.6-.6-.8-.3.2.9zm-5.8.9l.7-.1-.5-.6-.2.7zm21.6 6.5l.9.2-.2-1.1-.7.9zm-.2-6.5v.8l.8-.4-.8-.4zm6.9 4.3l-.8.2.6.7.2-.9zm-16.1-.9l.9.2-.2-1.1-.7.9zm6.7-2.2l-.8.2.6.7.2-.9zm4.4-4.4l-1.9-.9.1 1.8 1.8-.9zm-15-.1l1.8-.9-1.9-.9.1 1.8zm17.2 2.4l-.8.3.6.7.2-1zm-7.9-2.3l.4-.9h-1.1l.7.9zm3.9 14.7l.7-.7-1-.4.3 1.1zm-4.6-3.1l.1-.9-.8.4.7.5zm6.5-2.9l.9-.1-.7-.7-.2.8zm2.2-8.1l.6-.5-.8-.4.2.9zm1.9.4l.3 1.6 1.1-.9-1.4-.7zm-4.4-.6l.2.9.6-.6-.8-.3zm-5.6 1.9l.8-.1-.5-.6-.3.7zm-10.4-3l.5-1.6-1.6.6 1.1 1zm2.9.6l1.6 1.5.4-1.2v.8l.8-.4-.8-.4.4-1-2.4.7zm26.3-1.6l1.5.2-.6-1.6-.9 1.4zm-7.4 9.3l.2-1.4-1.2.4 1 1zm-12.9-7.5h-1.7l1.1 1.3.6-1.3zm15.2-5.5l1.4 1.9.8-1.9h-2.2zm-7.6 11.8l1.2-.7-1.3-.6.1 1.3zm-14.8 2.4l1.1-.9-1.4-.3.3 1.2z"/><path d="M221.2 220.5l-.8-.7.4-.1-2.1-1.4-.2 2.2.5-.2-.2.6 2.4-.4zm3.8 6.8l.9-.9-1.3-.5.4 1.4zm-9-2.2l-1.8 1.1 1.6.9.2-2zm9.6-5.5l-.1 2.1 1.7-.8-1.6-1.3zm-1.5 1.1l-1.9.8 1.8 1.1.1-1.9zm7.6-2l-1.9.8 1.9 1v-1.8zm-33.3 2.2l1.8-1.2-1.6-.9-.2 2.1zm-2-1.7l1.8-1.2-1.6-.9-.2 2.1zm37.2-1.3l-.5-.2v.8l.4-.2-.1.7 1.8-1.2-1.6-.9v1zm12.7-2.2l-.2 2.1.6-.4.1.8.6-.5-.7-.4 1.1-.8-1.5-.8zm-2.4 3.8l-.1 1.3 1.1-.8-1-.5zm7.8-6v.5l-.1-.1.1.4v.6l.1-.1.1.7 1.1-.9-.6-.3.3-.2-1-.6zm-34.3 10.3l1.1-.8-1-.6-.1 1.4zm-16.1-5h.2l.3.2v-.1h.1v.2l-1.2.7 1.6.9.2-1.8v-.2l.1-.1-.3-.1.7-.4v1.1l1.1-.6h.3l-.9.6.9.5-1.6.7 1.8 1.1.1-1.6 1.1.6.3-2.9-.9.6-.3-.9-.4.7h-.1l-.3-.3-.1.2-.3-.2.3-.2-2.4-.8.1.6-1.5.9 1.1.7v-.1zm-2.1-.6v-.2l.1.2.2-.5.4.8 1.7-2.4-2.4.1v-.1l-.1.1h-.5l.1.2-1.3.8 1.8 1zm.1-1l.1.1h-.1v-.1zm-4-1.7l1.6.9.1-.7.1.1-.1.5 2.9-.4-.7-.7.4-.3v.4l1-.7-.4-.1-1.6-.9-.1 1-.4-.4-.7-.8.9-.6-1.6-.9-.1.6-1.6-1.5.1 3.7 2.4-.3-.3 1-.3.2.1-1-1.7.9zm20.1 3.3l-.8 1.9 1.8-.2-1-1.7zm-2.5-.9l1 .6.1.2.1-.1 1 .6.3-2.9-2.5 1.6zm46.8-8.6l-2.1.7 1.9 1.4.1-1.1 1 .9.4-1.6-1.5.6.2-.9zm2.6 1.1l.2-2.1-2.2.7 2 1.4zm-27.2 7.2l1.9 1.1.3-2.5-2.2 1.4zm-18.9 11.5l1.1-.2-.8-.8-.3 1zm14.7.1l1-.9-1.4-.6.4 1.5zm-6.4-5.9l-1.2.7 1 .7.2-1.4zm9.1-2.6l1.3-.1-.9-1-.4 1.1zm24.8-14.5h-1.9l1 2.3.9-2.3zm-1.3 5.2l-.3-.2v.3l-.3.1.1-1.3-1 .3-.9-.2.2.4-.5.1 1.2.9h-.1l1 .9v.2l1.5-.7-1-.9v-.1l.1.2zm1.5-4.1l1 .9.5-1.6-.7.3-.7-.7-.5 1.1h.4zm-.2 1.2l-1.6.1.1.1-.8.5.7.4.1-.9 1 1.1.5-1.3zm-18.9 6.4h0-.3l.4.4.1.6.3-.2.6.7.7-1.7-1.8.2zm15.6-6.3l-1.6.1 1.1 1.2.5-1.3zm-21.8 15.6l1 .2-.2-1.1-.8.9zm6.6-1.3l.2-.9-.8.2.6.7zm3.6-5.8l.2-.2-1-.4.1.3-.2-.1v.6l-1.5-.8-.2 2.1 1.7-1.1v1.1l1.8-.9-.9-.6zm-5.4-.4l.7.9.4-.9h-1.1zm.2-2.3l.1-.9-.8.5.7.4zm12.5 3.6l.7-.7-1-.4.3 1.1zm-4.5-4l-.8.5.7.5.1-1zm-.9-3.6l-.2.5-.1-.1-.3.8.9-.1-.2-.3h.3l-.4-.8zm3.7 1.9l.8.3-.1-.9-.7.6zm-8-1.8l1.4.9.1-.4.8.9.7-1.7-1.3.1.1-.7-1.8.9zm-.9 1.3l-2.2 1.3 1.8 1.2.4-2.5zm-3.9-1.2l-.4 2.4 2.7-.7-2.3-1.7zm.3 3.6l.7-.2-1.5-1-1.6-1.1-.1 1.2-1.5.9 1.3.8v.3l.4-.1.2.1v-.2l1.4-.4-.3 1.8 2.8-.7-1.8-1.4zm12.3 5.4l-.6.2.9.8.1-.8.8-.6-1.4-.7.2 1.1zm-4.4-.7l.6-.5-.8-.4.2.9zm-39.7-5.8l-.7-.7-.3.8 1-.1zm3.9 3.1l-2.5 1.6 1.1.7v.3l.2-.2.8.5.4-2.9z"/><path d="M212.2 222.9l-.7.9.3.1-.7.1 1.3 1.1.3-1.5-.4.1-.1-.8zm5.2-1.1l.6.7.1-.3 1.2.7.1-1.8-1.8.8-.2-.1zm-.1-5.4h-1.1l.7.9.4-.9zm7.5.6l.2.9.6-.5-.8-.4zm2.8 1.6v-.3l-.3.2-.6-.3.1.6-1.1.7 1.6.9.1-.9.7-.6-.5-.3zm-5 0l.6-.6-.8-.3.2.9zm-5.6.3l-.2.6.8-.1-.6-.5zm-10.1-3.9l-1.6.6 1 1 .6-1.6zm-5.2-3.6l.1.6-1.5.9 1.5-2h-.1l.6-.4.5-.1-.2-.1.4-.2.2 1 1-.7-1.2-.4-1.6-.9v.2l-.8-.7.4-.3-1.6-.9-.2 2-.5.4-1-.9-.7 2.5 2.5-.4.1.1-.1.1h-.2v-.1l-.1.1h-.5l.1.2-1.3.8 1.6.9.1-1.1.8 1.3.2-.3 1.6.9.1-.6v.3l.1-.1v.1l.1-.1 1.8-1.2-2.2-.9zm-.5-.7h.1v.2h-.3l.4-.3-.2.1zm-1.5.1h0zm.1 0h0l.1-1.8.5-.3-.6 2.1zm9.5 6.3l1.6 1.6.4-1.2v.8l.8-.4-.8-.4.4-1.1-2.4.7zm19.4-2.4l-1.6 2.5 2.5.3-.9-2.8zm-15.9 3.8l-1.6.3.7.6-1 .3.1-.4-1.6.3.1-.9-1 .4.9.9v-.3l1.3 1 .2-1 1.5 1.5.8-2.4-.4.1v-.4zm-10.2-5l-1.8 1.1 1.6.9.2-2zm24.9 1.7l.2-2.1-1.8 1.1 1.6 1zm-8.1.7l-1.9.8 1.8 1 .1-1.8zm-14.6.3l.1-1.6 1.1.6.2-2.5 1.5-.8-1.9-.9.1 1.4-2.2 1.4.9.5-1.6.7 1.8 1.2z"/><path d="M232.5 216.9l1.8-1.2-1.6-.9-.2 2.1zm20.2-8l-1-.6-.1 1.3 1.1-.7zm-35.2 8.4l-.1 1.3 1.1-.8-1-.5zm-22.2-6.9l1.6.9.2-1.6h.3l-.3-.3v-.1h-.1l-1.9-2.9-.4 4 1.5-.5-.9.5zm67.9-4.2h-3l1.1 2.2 1.9-2.2zm-36.3 11.5l-1.4-.6.4 1.6 1-1zm-.4-10l1.4.4-.3-1.6-1.1 1.2zm22.3-1.5h-3.6l2 1.8 1.6-1.8zm-7.5 2.7l-.8.5.7.4.1-.9zm13.2-1v.3l1.5-.5-.7-.4.4-.3-.2.4.9-.1-.5-.6.6-.5h-2.7l.2 2 .5-.3zm-36.6-.4l-.6 1.3h1.6l-1-1.3zm22.9.9l1.9 1.2.3-1.8.6-.1-.5-.5v-.1l.7-.9-3.1.1 1.4 1.6-1.3.5zm-.4 4.3l.3 1.1.7-.7h-.1l.2-.2v.1l.1-.1 1-.7-1.6-.9v.7h-.1l.1.1v.7l-.6-.1zm-4.2-2.9l-.8.4.7.4.1-.8zm14.1 3.3l-.8-.4.2.9.6-.5zm-21.9-.4l-.8-.4.2.9.6-.5zm-22.9-3.8l-1.8 1.1 1.6.9.2-2zm16.7 2.4l-1.9.8 1.9 1v-1.8zm23.3-3.8l-1.6-.9-.1 2.1.9-.6.8-.6z"/><path d="M245.4 208.9l.1.1-1.1.6 1.4.9.2-1.2.7.6-.1.9-.4-.2-.1 1.6-.7-.3.1.3-.2-.1.1 1.8 1.6-.8-.2 2.2 3.2-1-2.9-1.9-.1.5-.8-.4 1.2-.8.9.9.6-1.3h-1.1l-.9-.5.7-.4 1.1.8.1-1.1.2.1.1-.5 1 1.1.6-1.3-1.5.1v-.3l-.2.2.1-1.2 2.1 1.6.2-2.2 1.9 1.4.3-2.8-2.6.7.5-.8h-2.7l.8 1.4-.4.1v-.1l-3.5 1 .1-.1-1-.6-.1 1.3.7-.3zm-45-1.4l1.6.9v-.1l1 1 .4-.8 1.2.8.1-.7.1.4 1.5-.9.7 1-.4.3.9.5-1.6.7 1.8 1 .1-1.6 1.1.6.3-2.9-.4.3 1.6-1.8-5.2.1.6.9-1.1-.4.1.6-.9.6.8-1.7H200l1 1-.6.2zm17.8 1.5l-.8 1.9 1.8-.2-1-1.7z"/><path d="M209.2 208.1l.8 2.9-.6.4.3-1-1.6.6.8.8-1.4.9 1 .6-2.1-.4 1 3.6 1.3-1.1.6.4.6.5.1-.9.4.4v.5l1.1-.6.7.7.2-.7.2.2v-.1l1.7 1 .2-1.9.2.2-.2.6 1.8-.2-.8-1.3v-.1h-.1l-.1-.2-.1.3-.6.1v-.2l1.3-.5-1.7-1.1.2-.6-.8.2-.7-.4-.1.7-1 .3.8.8-.1.7-1.9.7-.1-.1.1-.3-.4.1h-.1l-1 .2.8-.7v.3l.6-.5-.8-.4v.2h-.2l.2-2.2.1.5 1.9-1.6 1.3 1 .2-1 1.5 1.5.2-.7 1.9 1.1.3-2.9-1.2.8 1.7-3.4 1.5 1.9.7-.9-.6 1.5h-1.1l1.2 2.6h-.7l.7.9.4-.9h.3l1.8-2.2.4.1-.4 1.6.8-.1-.2.2 1.2.3v.3h-.1l.1 1.8.4-.2.1.2-.9.1-.2-.2v.2h-.2l.1.2v.8l-1.7-1.1.1-.1-1-.6-.1 1.3.7-.5-.2 1.4-1.3-1.3.1-.9-.7.4.1-1-2.5 1.6 2.2 1.3.1-1.3.4.3-.4 1.6 1.9-.3v.6h.1v.4h-.1l.1 1.5h-.7l1.3 1.5.2 1.9 1.9-1.1 1.3-.6-1.6-1.3-.1 1.8-1.5-.6.7-1.6h-.9l1.3-.6-.7-.3.7-.4 1.5.9.1-1.8-1.7.7-1.2-.5h.1v.1l1.6-.5v.2l1.1-.5.2.2.1-.3.2-.1-.1-.1.1-.2.5 1 .6-1-.1 2 1.7-.8-1.5-1.3.8-1.2-2 .1.9-.4-.7-.3.7-.4 1.5.9.1-1.8-1.7.7-1.2-.5 1.7-.6v.2l1.7-.8-1.6-1.3v1.2l-1.9-1.2.9-1.2-1.6.1.4-.8-2.2-.1 1.3 2 .5-1 .6 1-.2 1.8-.1-.1-.1-.3-.1.1-.8-.8-.2-1.3-1 1.1h-.1l-.8-1.8 1-1.2h-7.8l-3.3.1 1.6 2.4-2.9-1.5zm3.6 6.5l.1-.2 1.6-.5-.6.3-1.2.8.1-.4zm-3.3.3l.2.1-.2.1v-.2zm-.7.2l.4-.4.1.1-.5.3zm6.8-5l.1.2-.2.2.1-.4zm-3.3-1.3l1-2.1 1.9 2.8-1.6.6.1-.4-1.5.3 1.2-1-1.1-.2zm17.4-.4l.3.4-.8.5-.2-.2-.2.4-.2.1.1.1-.1.3-.3-.2-.1 2.1 1.7-.8-1.1-1h.6l.8.5.1-1.3.9 1.1-1.4 2.1 2 .2h-1.2l.7.9-.9.4h-.1l.2-.1-2.1-1.4-.2 2.2 1.5-.5v.1l.1.7-.1-.1-.4 1.9 2.1-.5-1.6-1.2.5-.4 1.1.6.1-1.5.5.7.8-1.8h-.6l-.2-.5 2.1-.5-1.7-1.4-.4 1.9-.4-1.1.7-1.4 1.8 1 .1-1.5.5.7.8-1.8h-1.2l1-1.7 1.2 2.4-.2 1.7 2.1-.7-.3 1.8 2.8-.7-1.3-1 .1-.5.2-.1-.1-.1.3-2.9-1.1.3.2-.4h-3.7v-.1l-3.8.7.3-.7h-4.1l1.8 2.1v.2zm4.6.5l.1.1-.2.1.1-.2zm-1.2 0l.4.5-.8.3.4-.8zm-1.3-1.7l.5.6-.8.2.3-.8z"/><path d="M226.8 208.4l1.1 2.2 1.5-2.4-2.6.2zm-27.3-2l-4.5-.1 2.8 2.5 1.7-2.4zm28.1-.2h-3.7l1.8 2.3 1.9-2.3zm-24.7 29l1.2.2-.3-1.4-.9 1.2zm-.6-8.1l.1 1 1-.6-1.1-.4zm8.9 6.2l.2-1.2-1 .3.8.9zm6.1 5.5l1.2.2-.4-1.4-.8 1.2zm-.6-8.1l.1 1 1-.6-1.1-.4zm8.9 6.1l.2-1.2-1 .3.8.9zm.8-2.3l1.5.2-.4-1.6-1.1 1.4zm-.7-8.5l1.2-.7-1.3-.6.1 1.3zm10.6 6.2l.2-1.4-1.2.4 1 1z"/></g><g fill="#a05a3c"><path d="M165.5 396.7l1.2-.1-.8-1.2-.4 1.3zm-8.3-6.4l.9.9.4-1.3-1.3.4z"/><path d="M166.8 395.7l-.5 2.1 2.5-.4-2-1.7zm-7.1-5.9l-.1 3 3-.7-2.9-2.3zm2.2 4.6l1.7-.5-.9-1.6-.8 2.1zm6 3.2l.2.8.6-.6-.8-.2zm-11.7-5.2l.7.6.2-1-.9.4zm-4.8-8.1l.8.6.2-1-1 .4zm5.1 6.2l-.3.7h.8l-.5-.7zm9.7 4.6l-2.2-1.8-.5 3.2 2.7-1.4zm-1.9 3l.1.9.9-.4-1-.5zm-9.9-11.4l-.6 1.9 2.3-.2-1.7-1.7zm8.9 8.7l-2.1-.2.9 2.2 1.2-2zm-2.5.9l-.1-.8-.7.5.8.3zm4.3 4.9l-.4-1.4-1.2 1.1 1.6.3zm-7.9-7.4l.9.8.4-1.2-1.3.4z"/><path d="M167 400.6l1-1.4-2-.3 1 1.7zm-2.1.2l1-.6-1.2-.8.2 1.4zm-8.1-13.5l-.5 2.5 2.6-.7-2.1-1.8zm-2.9-2.3l-.3 1.5 1.6-.4-1.3-1.1z"/><path d="M164.9 401.3l1.2-.6-1.3-1 .1 1.6zm-6.5-8l1.6 1.7.9-2.3-2.5.6zm5.6 3.9l-.6 1 1.3.3-.7-1.3z"/></g><g fill="#c67463"><path d="M335.4 401.9l-.9 1.1 1.6.5-.7-1.6zm-3.1-.4l.3 1.4 1.3-1-1.6-.4zm-1.9 6.5l.4 1.4 1.2-1-1.6-.4zm-2.3-2.2l-.5 1.4h1.6l-1.1-1.4z"/><path d="M327.8 404.9l.4 1.4 1.2-1-1.6-.4zm-7.4 4.6l.3 1.2 1-.9-1.3-.3zm4.4 1.6l.2 1.2 1.1-.9-1.3-.3zm-8-1l.3 1.1 1.1-.9-1.4-.2zm19.1-.6l.3 1 .9-.7-1.2-.3zm-.8-1.7l.6.8.5-.9-1.1.1zm-9.9-1l1-.2-.7-.9-.3 1.1zm7.4.4l.8-.1-.6-.8-.2.9z"/><path d="M327.6 405.7v-.8l-.9.3.9.5zm8.3 1v-.9l-.9.4.9.5zm-13.5 3.9l.3.6.5-.6h-.8zm12.8-5.5l.5.2-.1-.7-.4.5zm.3-4.3v.5l.6-.2-.6-.3zm-9.8 8.7l.2.5.4-.5h-.6zm-2.6 2.2l.8.2-.3-1-.5.8zm5.5-5.8l.1.8.8-.4-.9-.4zm7.9 3l.8.2-.3-1-.5.8zm-16 3.4l-.2-.8-.8.5 1 .3zm-3.7-.2l.6-.3-.6-.5v.8zm1.7-2.6l.4.6.3-.7-.7.1zm8.9-1.5l.1.7.7-.4-.8-.3zm7 2.8l.4-.7-1-.1.6.8zm-.5-5.5l.6-1.2-1.6-.1 1 1.3zm-1.3 7l.3-.7-.9-.1.6.8z"/><path d="M334 410.6l.3-.7h-.9l.6.7zm-12.3.9l1.4.3-.4-1.6-1 1.3zm-7.4.9l1.4.2-.4-1.5-1 1.3zm7.1-4l1.4.3-.4-1.6-1 1.3zm3.9-.6v.9l1-.4-1-.5zm10-1.9l.3-.8h-.9l.6.8zm-12.6 1.4l2 .9.1-2.4-2.1 1.5z"/></g><g fill="#ad5c49"><path d="M314.9 405.8l.5.7.4-.7h-.9zm11.6-1.7l.8-.4-.8-.6v1zm-9.6-1.2l.4.8.4-.7-.8-.1zm15.2.1l.7-.3-.7-.5v.8zm-3.8-6.8l-.1-.6-.6.4.7.2zm-4.1 6.5l.4-.6h-.6l.2.6zm-5.2 1.4l-1.1.9 1.1.4v-1.3zm-2 .6l-.8 1.2 1.7.1-.9-1.3zm4.6.7l-1.4.1.5 1 .9-1.1zm2.3-7.5l-1.1-.7.1 1.3 1-.6zm10.3-6.5l1.1.7.1-1.2-1.2.5zm-19.1 10.8l.9-.9-1.1-.4.2 1.3zm1.1 6.5l.8.8.5-1.3-1.3.5zm3.9-9l-1.2-.7.1 1.3 1.1-.6zm-3.6 8.4l.9-.8.6.5.3-.8-.8.2.2-.2-1.7-.2.5 1.3zm6.9-3.4l1-.7-1.2-.6.2 1.3zm-.8-4.2l-.4-2.8.3.1-.1-.7-.7.5.2.1-1.5 1.6 2.2 1.2zm-1.7 1.9l-1.3 1.3 1.6.8-.3-2.1zm3-3.2l.8-.4-.8-.6v1zm7.8-5.4v-1l-.9.5.9.5zm-6.8 3.8l-.1-.7-.7.5.8.2zm2.2.9l-.1-.8-.7.6.8.2zm-12.5 3.8l.7.6.2-.5 2.8.2-.7-2.1.5-.5-1.4-.2.3.7-1.7 1.7-.7.1zm12.8-7.4l-.9.6.9.3v-.9z"/><path d="M319 401.2l.5-.7-.8-.1.3.8zm.7-.6l-.3.7.9-.1-.6-.6zm2.4 2.8l.8-.9-1.4-.2.6 1.1zm-6.4 1.6l-.9-1.3-.3.5.1-.5.2-.5-1.3.5.2.2-.6.2 1 .9.1-.2 1.5.2zm6.6-5.8l.1 1.3 1-.6-1.1-.7zm11.1-6.1v-1.3l-1.1.9 1.1.4zm-19.8 8.6l-1 .9 1.1.4-.1-1.3zm12.6-6.2l-3.1 1.5 2.9 1.6.2-3.1zm3.3-.4l.1-1.5-1.5.7 1.4.8zm1.1-1.4l-.9.4.8.5.1-.9zm-9.5 5.5l.2 1.3 1-.7-1.2-.6z"/></g><path d="M313.7 391.3l.4-1-1 .3.6.7z" fill="#68322e"/></svg>