<svg xmlns="http://www.w3.org/2000/svg" viewBox="0 0 480 480" xmlns:v="https://vecta.io/nano"><path d="M117.5 382.3l26.1-28.5 20.9 21.3-31.5 34.3-15.5-27.1z" fill="#ea9d7d"/><linearGradient id="A" gradientUnits="userSpaceOnUse" x1="135.582" y1="384.149" x2="147.711" y2="371.407"><stop offset="0" stop-color="#cc7a5e" stop-opacity="0"/><stop offset=".924" stop-color="#aa5f4b"/></linearGradient><path d="M134.3 382.7c7 8.6 13.8 10.1 13.8 10.1l15.5-16.7-21.5-20.6-16.4 18.1c.1 0 2.8 2 8.6 9.1z" fill="url(#A)"/><path d="M124.1 375.2s.5 7 6.5 12.9 13.7 8.9 13.7 8.9l-6.5 7.6s-5 .6-14.1-9.2-4.2-15.3-4.2-15.3l4.6-4.9z" fill="#fff"/><linearGradient id="B" gradientUnits="userSpaceOnUse" x1="119.246" y1="411.769" x2="140.015" y2="402.543"><stop offset="0" stop-color="#8b4433"/><stop offset=".98" stop-color="#af614e"/></linearGradient><path d="M101.6 385.9l12 34.2 11 13.3 25.7.8c1.4 0 2.4-1.2 3.4-1.6 2.3-1 1.7-3.9 0-7.6-1.7-3.8-14.1-8.5-14.1-8.5l-.1-13.1c0-1.1-.8-2.1-1.8-2.4-3.1-.9-9.6-3.6-13.3-10.9-3-6-3.2-10-2.9-12 .1-.8-.6-1.5-1.4-1.4-2.8.2-9.1 1.4-17.6 6.6-1 .4-1.4 1.5-.9 2.6z" fill="url(#B)"/><path d="M101.6 385.9l12 35.2c.2.7.6 1.3 1 1.8l9.3 10.3c.7.7 1.6 1.2 2.5 1.2 6.1.1 27.6.6 28.5.2.5-.2.6-3.3.3-5.1l-26.2-.9c-1.4 0-2.7-.7-3.6-1.7l-6.6-7.7c-.5-.5-.8-1.2-1-1.8l-12.3-35.9c-1 .5-2 1.1-3.1 1.8-.9.4-1.3 1.5-.8 2.6z" fill="#ffd570"/><path d="M112 395.3c-.2.1-.6.5-.7.5l-.3-1.5s3.1-1.6 4.9-7c1.6-4.8 0-9.8 0-9.8s0 .1 0-.1l1.3-.3c.1.2 1.8 5.3.1 10.7-1.8 4.8-4.4 6.9-5.3 7.5zm27.4 10.3l-10.7-2.2c-.6-.1-1.1.2-1.2.8s.2 1.1.8 1.2l10.7 2.2h.4v-2zm-10.5 5.2c-.6-.1-1.1.2-1.2.8s.2 1.1.8 1.2l10.7 2.2h.2v-2.1l-10.5-2.1z" fill="#fff"/><g fill="#c67463"><path d="M127 415l.4.9.5-.9h-.9zm9.3 9.6l.8-1.3-1.3-.1.5 1.4zm2.4-22.8l-1.7.6 1.6.8.1-1.4zm1.6 15.9v1.4l1.3-1.1.6.6.2-1.2-1 .3.1.1-.8-.4.4-.3-1.2-.5v1.4l.4-.3zm-10-19.2l-.5 1.7 1.7-.7-1.2-1zm2.4 1.8l-1.3 1.2 1.8.2-.5-1.4zm2.7 10.3h0l-.5-1.3-1.4 1.1 1.6.3-1.1.9 1.8.3-.4-1.3zm7.5 7.9l.5 1.3.8-1.3h-1.3zm-6.7-2l.4-.3h.2v-.2l.7-.6-1-.3-.5-.1.1.5-.7.5.7.2.1.3zm-11-15l1.1 1.3.4-1.7-1.5.4zm3.6-4.5l-1.5.5 1.1 1.3.4-1.8zm-7.4 0l.4-1.7-1.5.5 1.1 1.2zm3.2-2.8l.4-1.7-1 .3-1.4-.5.1 1.7.4-.4.4.7.4-.9.7.8zm-1.2-.7l.3-.3.2.2-.5.1zm7 9.5v.5l1.3-1.2-1.5-.5v.7l-.6-1-.9 1.4 1.7.1zm.6 4.9l1.3-1.2-1.4-.5.1 1.7zm-10.5-22l.3-1.4-1.2.3.9 1.1zm-2.2 3.7l-1.2.3.9 1.1.3-1.4zm.8-8.4l.8 1 .3-1.4-.9.2.2-.2-.8-.1.3.7.1-.2zm18.7 37.4l1.4.4-.6-1.4-.8 1zm15.9 7l-.8 1 1.4.3-.6-1.3zm-1.3-1.3v1.3l1.2-.3-1.2-1zm-1.4-2.1l-.8 1 1.4.3-.6-1.3zm-4.6 5.2l.7-.5-.7-.3v.8zm1-2.4l.7-.5-.7-.3v.8z"/><path d="M149.1 427.1l.2-.7-.8.2.6.5zm3.2-1.6l.1-.8-.8.2.7.6zm-19.6-11.3l-1.4 1.1 1.8.3-.4-1.4zm2.1 1.5l-.4-1.1-.7.7 1.1.4zm4.4 5.7l.9-.5-.7-.5-.2 1zm9.5-.6l-.6.7.6.2.5 1.2.8-1.3h-.9l-.4-.8zm1.4 3.3l.8-.5-.7-.4-.1.9zm-.6-.2l.2-.8-.9.1.7.7zM123.4 400l-1.1.2.7.9.4-1.1zm1.7 6h1l-.4-.8-.6.8zm-7.6-.8l.7-.6-.9-.4.2 1zm15.3-2.3l.5-1.1-1.1.1.6 1zm-7.6-3.8l-.9.7 1 .6-.1-1.3zm7.9 4.1l.6 1 .5-1.1-1.1.1zm3.8 7.6l-.3-.8-.8.6 1.1.2zm-8.6-2.5l.8-.5-.8-.5v1zm-9.4 3.4l1-.7-1.2-.2.2.9zm6.1-4.2l-.8.5.8.6v-1.1zm-2.2 8.8l1-.2-.6-.7-.4.9zm5.7-10.6l-1.2-.2.2 1 1-.8zm-.8-3.2l.9-.8-1.2-.2.3 1zm-4.5-11.7l.9-.8-1.2-.2.3 1zm-4.4 5.1v-.9l-1.7.9 1.6 1.3.1-1.1.3.3.1-.6-.4.1zm-2.4 4.8l.9-.2-.5-.6-.4.8zm2-14.6l-.5.8.9.1-.4-.9zm4.5 12.4l.8-.6-1-.2.2.8zm1.8-7.1l-.5.9h.9l-.4-.9zm1.7 8.6h.9l-.3-.9-.6.9zm-4.3-14.3l-.7.3.6.5.1-.8zm5.8 14.1l.8-.1-.6-.6-.2.7zm4.7-.3h-.6l.2.6.4-.6zm.2 8.5l-.6.3.6.2v-.5zm-5.3 5.8l.6-.2-.6-.5v.7zm-2.4-3l.3-.6-.7.1.4.5zm5-.4l.6.1-.3-.6-.3.5zm7.9-5.5l-.1-.7-.6.3.7.4zm-3.7 13.9l-.3-.3-.1.7.3-.1.6.2-.2-.7-.3.2zm-6.7-1.5l.6.1-.3-.6-.3.5zm13.8 3.3v-.6l-.7.3.7.3zm-4 1.5l.5-.2-.4-.5-.1.7zm2-5.6l-.6.1.3.5.3-.6zm7.3 5.8l.6.3v-.6l-.6.3zm-2.9 1.4l.4-.1-.3-.4-.1.5zm1.7-4.5h-.6l.3.4.3-.4zm-24.4-17.5l.7-.1-.3-.5-.4.6zm-3.8-7.9l-1 .8 1 .3v-1.1zm.3-6l-.2.9 1-.3-.8-.6zm6 18.7l-.9.8.9.4v-1.2zm.4-5.9l-.2.9 1-.3-.8-.6zm6.3 5.6l-.9.1.5.8.4-.9zM115.1 385l-.5-.8-.3 1 .8-.2zm3.6-1.4l-.3 1 .9-.1-.6-.9zm2.2-1.1l-.6.5.8.4-.2-.9zm.5 10.5l.3-.8-.7.1.4.7zm-1.8 6.4l-.5.3.7.4v-.6h.2v-1l-.8.7.4.2zm-.1 2.4l-1.4 1 1.3.6.1-1.6zm-2.1-3.9l.8.3v-.9l-.8.6zm.7-6.1l-1.6-.5.2 1.5 1.4-1zm1.3-14.7l-.2 1.5 1.6-.5-1.4-1zm-5.4 4.2l.5-.2-.4-.3.1-.7-.8.2-.3-.2-.1.3.1.1-.2 1.1.9-.3.2.2v-.2zm.6-1.5l1.6-.5-1.4-1-.2 1.5zm6.7 8.1l-1.4-1-.2 1.5 1.4-.4v2.1l2.3-1.1-2.1-1.1zm-5.9 5.5l.2-.6h-.6l.4.6zm-2.5-2.2l.1-1.3-1.1.8 1 .5z"/><path d="M113.9 386.8l1.1-.3-.9-.7-.2 1zm6 5.9l.5 1 .6-1.1-1.1.1zm18 31.4l1-.1-.5-.7-.5.8zm-10.6-10.8l-.8.6.8.3v-.9zm10.9-2.4l-.6 1 1.2-.2-.6-.8zm-5.1 4.9l-.6 1 .5-.1.3.5.5-.7h-.2l-.5-.7zm-2.7-6.5l.8.3v-1l-.8.7zm4.2-1.9l-1.2-.3.2 1 1-.7z"/><path d="M137.3 409l.4.2.6.4v-.1l.6.3.1-1.5-.7.3v-.1l-.3.2-.2-.8-.8.7.9.1-.6.3zm-1.1 7.6l-.6-.6-.4.8-.6-.3-.1 1 .8-.6-.1-.1 1-.2zm2.5.3l-.6-1.4-.7.9-.5.2.8.9.1-.8.9.2zm1.9 5.3l1-.1-.5-.7-.5.8zm-11.4-6.6l.8.3v-1l-.8.7zm6.8 4.2l-.3 1 1.2-.1-.9-.9zm6.4 1.4l.5-.9h-.8l.3.9zm-9.5-11.2l-.8.6 1 .3-.2-.9zm7.4 13.4l1-.1-.7-.7-.3.8zm5.3-1l-.5.8h.5l.2.4.4-.7h-.2l-.4-.5zm-7.1-2.9l-.7.5.8.2-.1-.7zm3.6.4l1 .1-.6-.8-.4.7zm6 .7l-.7-.2.1.8.6-.6zm-6.1 4.5l.8.4v-.7l-.8.3zm-4.9-2.9l.3.9.6-.6-.9-.3zm6.6-.4l2.6-.1-1.7-2.1-.9 2.2zm-8.8-19.5l.1.9.8-.5-.9-.4 1.4-1.3-2.2-.8.2 2.5.6-.4zm-7.9-4.5l.1-2.6-2.1 1 2 1.6z"/></g><g fill="#ad5c49"><path d="M149.7 385.6l-.6 1.3 1.1.1-.5 1.2h2.6l-1.8-2.1-.3.7-.5-1.2zm-3.3 7.8l.8-.5-.9-.3.1.8zm-10.8-7.7l.4-1-1.1.3.7.7zm9.2 3.4l.6-.6-.8-.3.2.9zm-2.5 3.8l1-.3-.9-.6-.1.9zm.7-4.1l-.6 1.3h1.2l-.6-1.3zm1.9 2.9l-.3-1.5-1.4.9 1.7.6zm-4-12.4l.8 1 .6-1.3-1.4.3zm1.7 15.5l1.1-.4-1.1-1v1.4zm3.3-12.3l-1.4.2.8 1 .6-1.2zm-1 12.3l1-1.1-1.7-.5.7 1.6zm-7.2-8.3l.7 1.1.7-1.2-1.4.1zm6.3-7.1l-.1.2h.1l-.4 2.4 3.1-.2-2.1-2.2-.3-.6-.1.1-.1-.1-.1.4zm3 4.6l-.7-1.8-1.2 2 1.9-.2zm3.9 5.1l.7-.5-.9-.3.2.8zm-10.3-8.1l-1 .3.7.7.3-1z"/><path d="M137.1 371.3l-1 .2.7.7.3-.9zm2.8 8.7l.9.2-.5-.8-.4.6zm9.9 5l-2-2.1-1 3.1 3-1zm-1.8 3.9l-.8-.5-.4-1-.8.9 1 .3-.1.6 1.1-.3zm-9.3-14.5l-.9 1.8 2.4.1-1.5-1.9zm5.5 10.5l.6 2.4 1.5-1.9-2.1-.5zm-1.3.6l.8.4v-.8l-.8.4zm-3.1.2l.3 1.2 1-.9-1.3-.3zm2-3l-1.4.2.8 1 .6-1.2zm7.2 8.8l2.1-2-2.4-.1.3 2.1zm-1.7-1.8v.4l-.1.8-.1-.7-1.4.9 1.4.6v.2l1.4-.5-.5-.5.3-.1-1-1.1zm-4.4-12.1l-1.9-2.2-.9 2.5 2.8-.3z"/><path d="M139.6 373.9l-1.1-1.3-.5 1.5 1.6-.2zm2.1 8.7l1.4 2 1.3-2.2-2.7.2z"/></g><path d="M155.4 430l-24.6-.8c-2.6-.1-5.1-1.3-6.8-3.3l-6-7.1a7.68 7.68 0 0 1-1.4-2.5l-11.9-34.7 1.6-.8 12 34.9c.2.7.6 1.4 1.1 2l6 7.1c1.4 1.6 3.4 2.6 5.5 2.7l24.1.7.4 1.8z" fill="#fff"/><path d="M125 374.3c-.2.1-.4.1-.5 0-.2-.2-.2-.5 0-.6l14.8-15.8c.2-.2.4-.2.6 0s.2.5 0 .6L125 374.3z" fill="#cc7a5e"/><path d="M288.3 421l-9.8-36.1 27.3-6.5 12.7 43.4-30.2-.8z" fill="#ea9d7d"/><path d="M285.7 412.1c-.2 0-.3-.1-.4-.3l-4.6-16.5c-.1-.2.1-.5.3-.5.2-.1.5.1.5.3l4.6 16.5c.1.2-.1.5-.3.5h-.1z" fill="#cc7a5e"/><path d="M285.7 412.1s6.1 3.1 14 1.1c7.9-2.1 14.2-6.9 14.2-6.9l3.1 9.2s-2.1 4.4-14.7 7.1c-12.7 2.7-14.8-4.2-14.8-4.2l-1.8-6.3z" fill="#fff"/><linearGradient id="C" gradientUnits="userSpaceOnUse" x1="317.837" y1="428.45" x2="316.842" y2="410.148"><stop offset="0" stop-color="#8b4433"/><stop offset=".98" stop-color="#af614e"/></linearGradient><path d="M287.6 435.9l61.7-2.2c1.1-.1 1.9-.9 1.9-2-.1-2.4-.6-6.4-2.1-9.2-1.9-3.5-25.8-12.4-32.7-14.9-1-.4-2.1 0-2.8.8-1.9 2.6-6.6 7.5-14.4 8.2-6.5.7-10.2-.6-11.9-1.5a1.26 1.26 0 0 0-1.8.7c-.7 2.6-1.8 8.7-.1 18.2.2 1.2 1.2 2 2.2 1.9z" fill="url(#C)"/><path d="M287.6 435.9l61.7-2.2c1.1-.1 1.9-.9 1.9-2-.1-.7-.1-1.7-.2-2.6l-66 1.7c.1 1.1.3 2.2.5 3.4.1 1 1.1 1.8 2.1 1.7z" fill="#ffd570"/><g fill="#c67463"><path d="M324.9 421.3l-.7-.7-.2.8.9-.1zm3.6.6l.7-1.3H328l.5 1.3zm-12.1-14.1v1.7l1.2-1.1-1.2-.6zm17.1 7.6l.6.5.1-1.1-1 .4h.1l-.7-.3.4-.3-1.1-.5v1.4l.4-.3v1.4l1.2-1.2zm-22.6-2.6l-1.2.8 1.4.9-.2-1.7zm2.6-1.1l-1.4.1.7 1.5.7-1.6zm9.4 2.3l.8-1.6h-1.4v.1H321l.6 1.6.7-1.5.6 1.4zm11.8 1.8l.5 1.2.7-1.2h-1.2z"/><path d="M326.9 413.2l.3.7.3-.6.4.1-.2-.5.1-.2h-.2l-.4-.8-.5.8-.2.4.4.1zm-15.9 6l1.5-.6-1.5-.9v1.5zm-3.1-4.7v1.6l1.5-.6-1.5-1zm-3.6 5.9v1.5l1.5-.6-1.5-.9zm-2.5-1.5l1.6.3-.2-.5.7-.2-.7-.6.9-.4-1.5-.9v1.1l-.8 1.2zm1.2-.5l-.2-.3.2-.1v.4zm9.8-3.8l1.6.3-.7-1.6-.9 1.3zm5.7.8l-.7-1.6-.8 1.2 1.5.4zm-24.5 4l1.3-.5-1.2-.7-.1 1.2zm5.2 3.3l-1.2-.7-.1 1.2 1.3-.5zm-8.9-3.8l1.3-.5-1.2-.7-.1 1.2zm39.5-2.8l1.4.3-.6-1.3-.8 1zm18.7 6.5l-.8 1 1.4.3-.6-1.3zm-1.2-1.3l.1 1.2 1.3-.6-1.4-.6zm-5.3-1.2l1.4.3-.6-1.3-.8 1zm-.4 4.4l.7-.5-.6-.3-.1.8zm.8-2.3l.6-.5-.6-.3v.8z"/><path d="M344.2 424.1l.1-.7-.8.2.7.5zm3-1.6l.1-.7-.8.2.7.5zm-20.9-6.5l-1.4-.1.6 1.6.8-1.5zm-.8 9.9l-.4.3-.3-.2-.1.6.3-.1.6.1-.1-.7zm1.4-11.4l-1.1.1.5.8.6-.9zm4.4 4.2l.8-.5-.7-.4-.1.9zm9.1-.8l-.6.7.6.2.5 1.1.7-1.3-.9-.1-.3-.6zm4.6 3.3l.8-.5-.7-.3-.1.8zm-6 3.4l.2-.8-.9.2.7.6zm-29.9-4.2l-.1 1 1.1-.4-1-.6zm5.6-.7l.5.8.3-.9-.8.1zm-3.5 7.6l.9.1-.3-.8-.6.7zm2.2-14.5l1.1-.3-.8-.8-.3 1.1zm-3.5 5.8l-1.1-.2.3 1 .8-.8zm5-6.2l1.1-.3-.9-.7-.2 1zm8.1-1.4h-.8l.4.9.4-.9zm-3-.5l.4.9.4-.7v.5l.2-.2.6-.5h-.1l.5-.4-1.4-.5v1h-.6v-.1zm-2 6.9l-.7.6.9.2-.2-.8zm-2.7-7.5l-.7.6.9.2-.2-.8zm2.3 17.9l1 .1-.4-1.1-.6 1zm-1-5.9l.8-.5-.9-.3.1.8zm7.4 3.9l.1-1-.8.3.7.7zm-8.9-7.7l1 .1-.5-1.1-.5 1zm-3.4-1l1 .1-.5-1.1-.5 1zm-12.2.8h1l-.4-1.1-.6 1.1zm13.6-1.2l.7-1.6-1.7.4 1 1.2zm-9 6.8l.4-.2-.6-.2.1.4-.8-.3.3 1.9 1.7-1.1-1.1-.5zm3.5 3.6v-.9l-.7.3.7.6zm-11.7-4.4l.6.7.3-.8-.9.1zm11.3-3.2l-.5.8.8.1-.3-.9zm-4.7-2.9l-.9.1.7.7.2-.8zm7.4 1.1l.3-.8h-.9l.6.8zm-14.4-.3l.1.7.6-.4-.7-.3zm14.2-1.6l.5.4.1-.7-.6.3zm1.6-4l-.2.5h.6l-.4-.5zm8.1 2.8l.3-.5-.5-.1.2.6zm3.5 5.4l-.6.4.7.3-.1-.7zm-3.8 2.2l.4-.2-.4-.5v.7zm1.6-5l.3-.5-.6.1.3.4zm7.3 7.5l.7.3v-.7l-.7.4zm-1.7-3.2l.3-.5-.6.1.3.4zm7-4.2l-.6.4.7.3-.1-.7zm-3.8 2.2l.5-.2-.4-.4-.1.6zm1.8-5.6l-.6.1.3.5.3-.6zm7.7 5.2l-.5.3.5.2v-.5zm-3.3 1.7l.4-.1-.3-.4-.1.5zm1.6-4.4h-.5l.3.4.2-.4zm-27.2 6.6l.1-.6-.5.2.4.4zm-8.1 2.4l.6-.8-1.1-.3.5 1.1zm-5.1-3.9l-.8.6.8.4v-1zm18.8 1.7l.6-.7-1-.3.4 1zm-5.1-2.8v-1l-.8.5.8.5zm6-3.8l.9-.2-.7-.7-.2.9zm-23.9 7.9l.1-.8-.9.2.8.6zm.5-3.5l.1-.9-.9.3.8.6zm-3.7-1.7l.7-.1-.4-.6-.3.7zm3.5-1.6l-.8-.1.3.7.5-.6zm8.4 1.9l-.1.7.7-.2-.6-.5zm8.7 6.5l.9-1-1.5-.6.6 1.6zm-4.7-.8l.5-.6-.9-.3.4.9zm2.4-2l-.9-.2.4.9.2-.2.2.5.6-.6-.5-.2v-.2zm-9.6 1.6v-1.7l-1.4 1 1.4.7zM288 416l-1.4 1 1.3.6.1-1.6zm-.5 6.7v-1.6l-1.4 1 1.4.6zm8.5-2.9l1.3.6V419l2 .6-.3-2.5-1.6 1.7-1.4 1zm2.9 5.4l-.1.5.6-.1-.5-.4zm.9 3.6l.7-.8-1.1-.5.4 1.3zm-5.6-3.5v-1.1l-.9.6.9.5zm7.3-4.7l-.2.9 1-.2-.8-.7zm28.6.8l.9-.2-.5-.7-.4.9zm-7.6-.7l.3.9.5-.6-.8-.3zm1.7-10l-.9.3.8.8.1-1.1zm3.7 5.5l-.4-.6-.1-.1-.1.1-.8.3.8.8.1-.5h.5zm-8.2.4l.6-.6-.9-.3.3.9zm-.5-4.4l-.6 1 1 .1-.4-1.1zm8.3 1.6l.6.6-.4.4.9.3-.3-.9-.1.1.1-.9-.8.4zm2.2 1.2l.1-.8.9.2-.6-1.3-.7.9-.5.2.8.8zm3.9 4.4l-.5-.7-.4.8.9-.1zm-8.4.2l.6-.6-.9-.3.3.9zm2.9-2.3l-.3 1 1.1-.1-.8-.9zm6.7.3h-.8l.4.9.4-.9zm-5.9 6.6l.9.2-.1-.8-.8.6zm3.7-4.4l-.2.8 1-.1-.8-.7zm.6 5.8l.8.2-.2-.7-.6.5zm.8-8.4h1l-.6-.8-.4.8zm5.2.3l.1.8.5-.6-.6-.2zm-5.2 4.7l.8.4-.1-.7-.7.3zm3.5-2.6l-.5.8.5-.1.2.4.4-.7h-.3l-.3-.4zm-7.4.3l-.9-.3.4.9.5-.6zm-41.1 3.7v-.5l-.4.3-.6-.4v.8l-.3.2.3.1v.1h.1l.9.5v-.9l.2-.1-.2-.1zm46.6-4.6l2.5-.1-1.7-2-.8 2.1zm-23.4-8.5l2.4.6-1.1-2.4-1.3 1.8zm-6.6 5.1l.4 2.2 2.1-1.4-2.5-.8z"/></g><g fill="#fff"><path d="M298.5 430.3s-.4-3.3-4.7-6.9c-3.9-3.2-8.9-3.2-9.1-3.3l.2-1.4c.2 0 5.4.2 9.7 3.6 4.8 3.9 5.2 7.6 5.2 7.8l-1.3.2z"/><path d="M285 431.5l-.2-1.4 66.1-1.7.2 1.3-66.1 1.8zm33.5-23l-5.7 9c-.3.5-.2 1.1.3 1.4.1.1.3.1.4.1.4 0 .8-.1 1-.5l5.7-9c.1-.1.1-.3.1-.4l-1.8-.6zm1.1 11.3c-.3.5-.2 1.1.3 1.4.1.1.3.1.4.1.4 0 .8-.1 1-.5l5.7-9c0-.1.1-.1.1-.2l-1.9-.7-5.6 8.9z"/></g><linearGradient id="D" gradientUnits="userSpaceOnUse" x1="298.968" y1="407.826" x2="296.866" y2="397.234"><stop offset="0" stop-color="#cc7a5e" stop-opacity="0"/><stop offset=".924" stop-color="#aa5f4b"/></linearGradient><path d="M297.4 408.2c11.1-1.9 15.8-4.6 15.8-4.6l-5.2-19.5-27.7 5.6 4.5 18.5s4.6 1.4 12.6 0z" fill="url(#D)"/><g fill="#ad5c49"><path d="M298.6 409.9l.9-.2-.7-.8-.2 1zm-9.2-2.3l.6-.7-.8-.2.2.9zm1.4 3.7l1.7-.2-1.1-1.1-.6 1.3zm2.4-3.4l1-.8-1.3-.5.3 1.3zm-5.8-1.2l.3.3.1-.2.7.2-.5-1.2.7.2 1 .7.1-.4.9.3-.1-.8.1.4.6-.5.7.6v-.8l.8.1-.4-.7-.4.5v-.5l.2-.1-.1-.1v-.5l-.5.4h-.1v.1l-.9.6h-.1l-.2-1.3-.5.3.7-2.3-2.5.6v.1l-1.3.8.2-.6-2 .4-.7.2-.1.1.6 1.7.2.2 1 .7.1-.6.6.1-.6-1.5-.4.4.3-.6.5.4.2-.7 1.6 1.1.2-1.7 1 1.4-1.6 1.1h-.8l.4.5-.1.1-1.4-.5.1.7-.4-.1.3.8.1-.2v.1l.8-.5-.1.1.7.1zm10.1-5.1l-.2 1.4 1.2-.4-1-1zm12.4-4.1l.6.7.3-.9-.9.2zm-9.7 4.6l1.1-.8-1.1-.7v1.5zm-5.9 4.9l1.2-.5-1.1-.9-.1 1.4zm1.6-6.3l-2.6.6 1.3 2.4 1.3-3zm-3.6 2.7l.1-1.8-1.1.3-.5.3 1.5 1.2zm5.3 1.8l1-.2-.7-.8-.3 1zm8.1-5.9l-.1.5 1-.2-.3-.4-.6.1zm-6.7 4.5v-.8l-.9.4.9.4zm2.1 1.4v-.8l-.9.4.9.4zm.5-4.6l.2-.9-1.1.4.9.5z"/><path d="M287.1 409.9l1.7-.2-1.1-1.1-.6 1.3zm6.5.4l.2-1.1-1 .5.8.6zm-4 .7l.7-1.2-1.4.2.7 1zm6.1-4.7l1.2-.4-1-.9-.2 1.3zm10.7-7.8l1 .7.2-1.2-.5.1-.7.4zm-16.1 9.1l.3 1.3 1-.8-1.3-.5zm9.4-7.8l-2.6.6 2 1.7.6-2.3zm3.9.8l.2-.9-1 .2.8.7zm1.9 1.3l.2-.9-1 .2.8.7zm-9.7 3.6l-1.1-.9v.8l-1.3-.4.4 1.3.8-.7v.4l1.2-.5z"/></g><path d="M277 393.5l1.9 7.4c.6 1.8 2.4 2.9 4.3 2.4l27.1-6c1.7-.4 2.8-2.1 2.4-3.8l-2.3-9.8-33.4 9.8z" fill="#79858e"/><linearGradient id="E" gradientUnits="userSpaceOnUse" x1="248.56" y1="294.95" x2="315.5" y2="313.357"><stop offset="0" stop-color="#99a4ad"/><stop offset=".985" stop-color="#b7bdc8"/></linearGradient><path d="M310.7 318.5c-4.2-15.4-16.4-47.8-24.8-65.6-5.6-11.8-13.9-33.3-18.8-46.4h-63.3l18.4 75 28.6 44.5c2.3 4.7 3.7 9.8 4.2 22s-1.1 28.6 4.5 37 11.8 11.7 22.1 10.1c11.1-1.7 24.9-5.9 29.5-7.3 4.7-1.4 9.4-6.6 9.8-16.9.6-10.2-6-36.9-10.2-52.4z" fill="url(#E)"/><g fill="#666a75"><path d="M260.7 281.6l-.1-1.8-1.4 1.2 1.5.6zm4.3-1.8l.5 1.7-.3.5h1.5l-.3-.8.6-.7-2-.7zm-8.8 13l-2.1-.7.8 2.1 1.3-1.4zm2.8-12.2l1.4-1.3-1.1-.5 1.7-.4.6 2 1.1-1 .2.7.6-.6 1.4.6-.1-1.8-1.3 1.1-.5-.2.1-.1-1.7-.7.4-.1-1.7-1.4-.2-.6.1-.6-.3.1v-.1l-.2.3-.3.1-.6-.5-.7 3.6.9-.2.2 1.6zm1.6 3.1l1.4-1.3-2-.8.3 1.2-2.9-2.8-.9 3.5 3.8-.6.3.8zm-1.5 12.1h0l-.6-.3v1l-.1.1h.1v1.1l.7-.6.8-.6.2-.2-1.1-.5zm-3.3 4.8l1.9-1.1-1.6-1-.3 2.1zm7.8-14.1l-.5.3-.3-.9-.6.9.9.1-1 .7 1.5.8v-1.9zm2.1-9.8l-1.4 1.3 1.5.6-.1-1.9zm-5.5 27.8l.7.8.6-1.4h-1.2v-.2l-.4.2h-.1v.1l-1.1.8 1.4.7.1-1zm1.5-15.6l-1.1.7 1 .5.1-1.2zm1-6.3l-.3.9 1.1-.1-.8-.8zm5 7.1l.4.9.5-.9h-.9zm5.2-1.3l.5-.9-1.3-.1.8 1zm-7-2l.9.2-.1-1-.8.8zm7-5l.9-.4-.9-.5v.9zm-8.1 23l.6-.9-1.3-.1.7 1zm-6-1.9l-.2-1-.3.3-1.9-.9.5 2.2 1.5-1.2-.4.4.8.2zm6.1-6.1v.9l.9-.3-.9-.6zm-8.1 32.9l.9-.6-1-.7.1 1.3zm-4-5.5l-1 .3.6.7.4-1zm8.6-.5l-.6-.9-.5.8 1.1.1zm-4.4 1.8l1-.5-1-.8v1.3zm-3.9-5.6l-1 .3.7.7.3-1zm8-1.4l-.5.8 1 .1-.5-.9zm-10.1 2.7l-.2-1.2-.9.9 1.1.3zm6.6-2.5l-.9.2.7.8.2-1zm3.6-23.7v.9l.9-.4-.9-.5zm-4.4 15.7l-.8-.8-.4 1.2.7-.2.4 2.1 1.5-1.2-1.9-1 .5-.1zm2.7-15.6l.2 1.3 1.2-.7-1.4-.6zm-5.8 13.9l.3-2.3-2.4 1.1 2.1 1.2h-.6l.3.8-.5.2-.7-.4.1.7-.8.3-.6-.3.6-.8-1 .1.5.8-1.5-.7.7 2.8 1.2-1 1.8 1h-1l.8 2 1-1.9h-.1l.3-3-.1.1.4-.5-.8-.2zm9.5-15.8l-.7 1 1.3-.1-.6-.9z"/><path d="M259.3 298.3l-1-.3.3 1 .7-.7zm-1.7-7.9l.1-1-.9.6.8.4zm-.8-2.5l1.4.7.1-1.5.8-.1-1.1-1.2 1.4-1.2-1.9-.9.4 2-1.6-1.8-1.2 3.4 2.6-.2-.9.8zm-8.2 32.8l1.8-1.1-1.3-.7h.3v-.1l1 .2-1-2-.6.8-.1-.1-.1.5-.1.1-2.3-.3.1.2h-.2l1.5 2.5 1.3-1.7-.3 1.7zm5.2-24l1.5.5-.1-1 1-.1-.4.3 1.2.4-.8.8 2 .6-.3-2.3-.5.5-.1-1.4-.9.8-2.8-3-1.1 3.5 1.7-.2-.4.6zm15.5-14.6l.4-1h-1.3l.9 1zm-1.1-2.7l-.7-.6-.2 1 .9-.4zm2.9 3.6l.9.2-.3-1-.6.8zm-15.7 14.5l-1 .2.8.7.2-.9zm-3.6 3.6l-.3.1.3.2.2.9 1.5-1.2-1.4-.7 2.9-.2-2.8-3.1-1.2 3.4.6-.1.2.7z"/><path d="M247.8 317.4l-.1.6.9-.2-.5-.5-.5-1.6 2.4 1.5 1.3 2.1v.1h.1l.4.6.9-1.2h.1l2 1.1.1-1.1 1.6.8.2-2.1-1.7.8.1-.9-1.8.9-.2-.1.7-1-.8-.1 1.2-1.3.6.3V315l-.8.4-3.2-.6 1 2.3-1.3-.1-.2-2.7.7-.4-.4-.2.5-.2-1.8-1.4.5-.5-2.5-1.2.4 1.7-.7-.3.2.9-.5-.7-.8 2.2 1.1-.3-2.3 2.3 3.1 1.2zm-.5-3.5l.4-.3h.1l1-.8-.2-.1.4-.3-.5 2.1-.9.6-.3-1.2zm7.8-25.7l-1.2 3.4 4-.3-2.8-3.1zm-6.3 22.5l.1-2h3l-2.6-3.3-1.4 3.3h.7l-1.5 1 1.7 1zm1.4 14.4l1.2-1.6.3.5 1.5-2.1.9 1.6 1.4-1.9-2-.1.1-.1-3.8-.3 1.4 2.2-2.3-.2 1.3 2z"/><path d="M255.1 313.6l-.2 3.8 1-.7 1.3.8.1-1.4-1.3.5 1.8-1.2-2.7-1.8zm-2.4-7.6l2.7-2.3-.6-.3 1.4-1.3-2.5-1.2.5 2.1-1.8-.9.1 1.7h-.1l-.3-1.2-.3.5-1.1-1.3-1.2 3.4 3.1-.2.1 1zm2.3 24.2l1.6-1.4-2.1-.8.9-1.3-2.5-.2.8-1.9-3.6.4 2 3.5.7-1.8 1.2 2 .3-.5.1 1.8-2.1-.8.7 3 2.4-1.7-.4-.3zm-1.6 3.4l.5 2.3 1.8-1.3-2.3-1zm1.7-.2l.6-2-2.3.6 1.7 1.4zm1.2 2.7l-2.3.5 1.6 1.4.7-1.9zm.3-31.8h-1.8l.8 1.9 1-1.9.9.5-.8.9 1.3.1-.5-1 .5.3.2-2.3-2.4 1.2.8.3zm7.5-10.8l-.7.7 1 .1-.3-.8zm1.6-1.3l-.3-.8-1 1 1.5.2 1.4.1-.6-1.5-1 1zm-6.7 0l-.5.7-.7-1.3-1 2.7 2.4-.3-.6-1h.9l-.5-.8zm.4 18.1l-.8.4.6.5.2-.9zm.2-22.8v.2l.4-.3.1.4 1.8-1.6-2.5-1.2.3 1.5-.3.1-.2-.1v.2l-.6.2 1 .6zm.4-1v.1-.1zm9.4-29.4l-.2-1.8-1.3 1.3 1.5.5zm-4 1.8l-.2-1.8-1.3 1.3 1.5.5zm6.2-1.3l-2.1-.7.8 2.1 1.3-1.4zm-8.9 3l.8 2.1 1.3-1.4-2.1-.7z"/><path d="M263.6 257.9l1.4-1.3-1.2-.4 1.7-.5.7 2 1.3-1.4-1.8-.7.7-.2-3.3-2.5-.5 3.6.5-.2.5 1.6zm1.8 3.1l1.3-1.4-2-.7.1.3-2.5-1.9-.5 3.6 3.3-.9.3 1zm.1 13.4l-2-.8.7 2.1 1.3-1.3zm-.6-5.8l-.1 2.1 1.8-1.3-1.7-.8zm-1.9 4.7l1.8-1.3-1.7-.9-.1 2.2zm7.6-17.9l-.2-1.8-1.4 1.3 1.6.5zm-4.1 10.5l1 .4V265l-1 .9zm1.2-7.2l-.1.9 1-.3-.9-.6zm6.4 7.2l.4-1-.9.1.5.9zm4.9-3.8h-1.3l.8 1 .5-1zm-6.9-1l-.7.8.9.1-.2-.9zm5.4-5.9l.1.9.9-.5-1-.4zm1.2 22.6l.5-1h-1.3l.8 1zm-6.1-1.3l-.3-1-.6.8.9.2zm5.5-5.8l.9-.5-1-.4.1.9zm-9.5 2.8l-.8.9-.2-.3-.7 1h.4l-.1.2 2 .4-.6-2.2zm3.1-1.9l.1.9.9-.5-1-.4zm-9.7-.1l.1-1-.3.2.1-.4-1 .2.5.5-.1.1.7.4zm6.8 4.8l-1.7.2 1.2 1.2.5-1.4zm-2.4-7.9l1.2-.8-1.4-.4.2 1.2zm3-1.8l1.3-.1-.5-1-.8 1.1zm-3.3 4.3l-.9-.4.3 1 .6-.6zm-1.4-8.9l-.9.6.8.5.1-1.1zm-1.3 5.3l2.4-.2-1.3-2.5-1.1 2.7z"/><path d="M264.9 261.3l1 2.7 1.6-1.8-2.6-.9zm-4.5 8.2l1.5.6-.1-1.5 1.9-.3-1.3 1.1 1.5.6-.1-1.8-.1.1-1.8-1.7.9-.9-1.9-.7 1.9-.4-.7.7 1.5.5-.1-1.4 1.2-.3-3.2-2.7-.7 3.5v.1l.3.9-.4-.4-.9 3.5 1.4-.2-.8.7zm13.9-11.6l-1.3.1.9.9.4-1zm-2.4-2.2l-.2 1 .9-.5-.7-.5zm3.9 4.1l.9.1-.3-1-.6.9zm-7.6 2.1l-.5.9h.9l-.4-.9zm-8.2 13.4l.5-.5.3.2.2-.7.1-.1.5 1.5-.8-.3.6 2.1 1.4-1.4-.3-.1 1.2-1.3-.5-.2.5-.5-2-.8.2.8-.6-.2.1-.1-1.6-.7 3.2-.5-3.1-2.9-.9 3.5.5-.1.5 2.3zm9.5-5.1l-.3.5-.1-.2-.6.8h1l-.2-.2h.6l-.4-.9zm2.4-2.5l-1.1 1.4h1.8l-.7-1.4zm-2.2 5.3l-.1.2-.5.6h.6l.1.5.8-.7-.8-.3-.1-.3zm4.9-4l1.5.1-.6-1.1-.9 1zm-4.9-5.5l-.9.5-.1-1.1-1.4 1.3 1.5.6v-.5l.6.5.3-1.3zm1.8-15.2l-.3-1.8-1.3 1.4 1.6.4zm-4.3 2.4l-.2-1.8-1.3 1.3 1.5.5zm0-3.4l.8 2.1 1.3-1.4-2.1-.7zm-.3 5.8l-1.5-.5.7 2.1 1.3-1.4-.3-.1 1.2-1.4-1.5-.5-2.8-2.3-.7 3.5 3.2-.7.4 1.3z"/><path d="M272.7 246.5l-.3-1.8-1.3 1.4 1.6.4zm-2.1-20.5l-2.3 1.3 2.1 1.3.3-1.7.8.2-.3-1.8-.6.7zm-1.5 31.3l-1 .9 1 .4v-1.3zm.1-6.3l-.1.9 1-.3-.9-.6zm6.5 7l.4-1-.9.1.5.9zm3.5-3.8l.9.9.4-1-1.3.1zm-5.6-.9l-.6.9.9.1-.3-1zm6.3-5.7l-1-.3.1.9.9-.6zm-5 2.1l.9.9.3-1-1.2.1zm-.9-3l-.1 1 .9-.5-.8-.5zm3.9 4.4l-.6.8.9.1-.3-.9zm-13.2-3.4l.7 2 1.3-1.4-1.9-.7 3-.7-2.4-1.9v-.7l-.5.3-.5-.3-.1.8-.5 2.8.9-.2zm7.3-5.3l-2.1-.6.8 2.1 1.3-1.5zm-.6-3.9v.1l.3-.4.6-.5-1.7-.7v2.1l.8-.6zm-2 3l1.7-1.4-1.8-.7.1 2.1zm5.5-.3l-1.3 1.9 2 .2-.7-2.1zm.3-6.2l-1-.3.2.9.8-.6zm.5-2.8l-.7 1 1.3-.1-.6-.9zm-5.8-2.1v-1l-.9.6.9.4zm3.4 19.5l-.1-.1.2-.2-.4-.1-.5-.7-.3.5-.9-.3.5 1.2.3.9.9-1.1.3-.1zm-6.1 6.5l.8-.8-1.3-.5.5 1.3zm-19.3 64.8l.9 1.3.9-1.5-1.8.2zm10.8 31.7l1.1-.1-.6-1.1-.5 1.2zm-1.8-6.1l.8-.7-1-.2.2.9zm7.7 2.2l.9.6-.1-1.1-.8.5zm-7.3-6.4l.4-1.2-1.2.5.8.7zm2.1-6.3h1l-.6-.8-.4.8zm4.3 7.9l.7-.8-.9-.2.2 1zm-.1-2.9l.8 1.3.7-1.1-1.5-.2zm1.1-7.5l1.2-.5-1.2-.7v1.2zm-4 1.3v-1.5l-1.3.9 1.3.6zm.6-8.3l1.3-.2-1-.9-.3 1.1zm7.5 8.5l.6-1.2h-1.2l.6 1.2zm-13.9-9.1l2.1-1.8-2.2-.8.1 2.6zm1.3 13.7l.8.2-.1-1.3-.6.6V338l-1.7.9 1.7 1.3v-.6h-.1zm-1.4 3l1.6-.9-1.8-.7.2 1.6zm18-105.4l-.9 2.8 2.4-.4-1.5-2.4zm-4.6-13.5l-.6 2.9 2.4-.7-1.8-2.2zm.7-4.4l-.6 2.9 2.4-.7-1.8-2.2zm1.4 4l.4.8 1-1.4-1.3-.3.1-.5-.6.3h-.1v.1l-1.9 1 2.1 1.3.3-1.3zm-.2 9.3h0l.3-.1-.2-.2.3-1.6-1.4.8-2-1.5-.6 3.6 3.6-1zm1.6-3.1l1-1.4-1.9-.5.9 1.9z"/><path d="M268.5 235.6l2.4-.4-1.5-2.4-.9 2.8zm4.8-10.7l-1.5-2.4-.9 2.8 2.4-.4zm-5.3 2l-.9 2.8 2.4-.4-1.5-2.4zm-1.7 11.4l1.4.4-.7.2.9.7.2-.9-.2.1-.2-1.4 1.8-.5-1.2 1.2 1.6.5-.2-1.8-.1.1-2-1.5.8-1-2.1-.6.4 1-.5-.3-.5 3.6 1.4-.3-.8.5z"/><path d="M266.6 243.8l.4-.5.3.2.1-.7.1-.1.6 1.5-.8-.2.8 2.1 1.2-1.5-.3-.1 1.1-1.3-.5-.1.5-.6-2-.6.3.8-.6-.1.1-.1-.9-.3 2-.5-3.3-2.6-.5 3.6 1-.3.4 1.4zm8.7-4.5l-.6.8 1-.1-.4-.7zm-2.7-4.1l-.8-1.3-1 1.5 1.8-.2zm3.4 5.4l-.6.9 1-.1-.4-.8z"/></g><g fill="#85878e"><path d="M295.9 315.9l-.3 1.2 1-.2-.7-1zm.9-3.7l.1-1.5-1.6.7 1.5.8zm9.4 19l-2.1.6 1.7 1.1.4-1.7zm.8-9.3l-.6 2 1.7-.8.7.3.1-1-.9.3-.9-.8.2-1.7-2 .7 1.7 1zm.4-4.5l-.6 2.1 1.9-.9-1.3-1.2zm-5.5-8.3l-.5 1.9-.8-.3.3 1 .6-.5 1.7-.9-1.3-1.2zm-5.2-15.1l-.5 2.1.2-.1-.1.1 1-.1-.2-.3.9-.5-1.3-1.2zm9.3 22.7l-2 .7 1.8 1.1.2-1.8zm-4.5-19.6l-1.3-1.3-.7 1.8 2.1-.3.2 1 1.5-1.8-2-.6.2 1.2zm6.2 39.7l.4-.5-1.2-.3.5 1.2.3-.4v2l1.7-.7-1.7-1.3zm2.6 11.2l1.7-.8-1.7-1.2v2zm-25.5-64.7l1.6-.9-1.6-.9v-.3l-.2.1h-.1v.1l-.7.5.8.5.2.9zm27.9 70.4l-1.3-1.2v.8l-.9-.3.4 1.1.5-.4v.5l1.3-.5zm4.8-.1l-.1 1.7 1.3-.5-1.1 1.2-.3-.2v.6l-.1 1.1 1.4-.5-.2-.2.9.3-.3-2.5-.2.2-1.3-1.2zm-13.8-44.7l.1 1.7 1.3-.8-1.4-.9zm-8.4-14.5l-.3-.8-.7.8h1z"/><path d="M302.8 316.6l.2-1.7-2 .8 1.8.9zm-13.5-2.4l.1 1 .7-.7-.8-.3zm15.8 1.7l.1-.5.6-.5-.4-.2v-.2l-.2.1-.3-.1.1.3-.8.3.9.8zm.1-2.4l.9-.6-1.1-.6.2 1.2zm-5.3-5.2h1.2l-.4-.9-.8.9zm5.6 21.5l-.5 1.2 1.3-.1-.8-1.1zm5.3 11.5l1.3-.1-.8-1.1-.5 1.2zm-4.2-13l-.8-1.2-.5 1.3 1.3-.1zm-7.8-2.6l.9-.8-1-.3.1 1.1zm10 3.6l-1-.3.1 1.2.3-.3.6 1.7 1.3-1.5-1.6-.5.3-.3zm1.1 5.3l.9-1.1h-1.5l.6 1.1zm1.4 2.6l.8-1.2-1.4.1.6 1.1zm3.9-.5l-.5-2.1-1.4 1.6 1.9.5zm-5.6.2l1.3-1.5-2.1-.5.8 2zm-4.5-16.8l1.4-1.4-2-.6.6 2zm-2.3-10.8l1.3-1.5-2.1-.5.8 2z"/><path d="M298.7 300l-.3.1.8.5.1-.8-.4.1 1.1-1.2-2.1-.6.8 1.9zm5.3 46.1l-1.1.6 1.1.5v-1.1zm6.5-2.5l.5.9.7-.9h-1.2zm7 3.9l-.8.7 1.1.4-1.4 1.5.3.1-1.6.2.3-.5-1.3.1-.3-.1.4-.5-2-.6.7 2.1.5-.5v.1l.6-.4.5 1 .3-.4 1.4 2 1.3-2.4.5.1-.9.9.9.3-.2.4.8.1-1.2 1.2 1.4.6-.1-1.8-.4-.9v.1l-.1-.8h.1l-.5-2-.3-1zm-20.6-23.9h.8l-.5-.6-.3.6zm6.8-.8l.2-.7-.7.3.5.4zm-1.2-16l.6-.7-.8-.2.2.9zm-2.7 3.7h.8l-.5-.6-.3.6zm6.2-1.1h0l-.6.9.4.1.1.7h-1.3l.9 1.1.5-.9v.4l1.3-.8-.5-.3 1.3.3-.8-3-1.3 1.5zm-5.5-10l.5-.6-.7-.1.2.7zm-2.1 3.2h.7l-.4-.5-.3.5zm5-1l.4.3.1-.6-.5.3zm-13.3 39.5l.7.1-.2-.7-.5.6zm14.6-6.7l-.6 1.1h1.5l-.9-1.1zm6.2 5.1l-1.1.5.8.7.3-1.2zm2.6 18.3l-.9.4 1 .7-.1-1.1zm3.2 1.8v-1.2l-.9.5.9.7zm1.9 2.2l-1-.2.2.9.8-.7zM307 332.6l-.7 1.6 2.1-.2-1.4-1.4zm-.6 14.9l-.5.9h1.2l-.7-.9zm.8-1.9l.9.8.3-1.2-.9.2-.6-.6-.1.2-.5-.5-.4.9.7-.1-.1.3h.7zM312 356l.7.3-.2-1.2-.9.7.4.2-1.9.6 1.2 1.3.7-1.9zm8.7 10.7l-.1-2.1-1.5 1.3h.1l-1.1 2.8 2.7-.1-1.6-2.7 1.5.8zm-6.4-6.1l-.1-.1-.1.2-.7.2.3.3v.1h.1l.9.9.7-2-1.1.4zm3.4.3l-1.9.7 1.2 1.3.7-2zm-2.9-6.9l1.2 1.3.7-2-1.9.7zm-11.7-41.5l1.1-.4-.8-.7-.3 1.1zm-.7 9.3l-.1-1.1-.9.6 1 .5zm-.4-2.8l1.4-.6-1.3-.6-.1 1.2zm7.9 1.4l-.9.8 1 .3-.1-1.1zm-2.4-8.5l-1.2-.1.6 1 .6-.9zm-9.2 3.9l1.1.6-.2-1.2-.9.6z"/><path d="M296.2 293.9l1.3-.2-.9-1.1-.4 1.3zm0-7.8l1 .6.1-1-1.1.4zm1.5 20.6l1-.2-.7-.9-.3 1.1zm3.9-5.3l.9 1.1.6-1.2-1.5.1zm-6 5.1l1.1.5-.3-1.2-.8.7zm25.2 63.6l-.1-1-.8.5.9.5zm-25.2-90.2l-.1.6-1.9-1-.1 2 2-.9-.2 1.7-.6-.3-.1 2 2.1-1-1.2-.6 1.9-.6-1.8-1.9zm1.5-.1l-1-2.2-1.8 2.2h2.8zm-1 4.3h1.6l-1.2 1.1 2.7.5-.4-1.6h.1l-.2-.4-.1-.4v.1l-.7-1.5-1.8 2.2zm1.7 4.8l1.8-.1-1.1 1.8 2.7-.1-1-2.6-.9-2.3-1.5 3.3zm2.34 3.56l.1-1.4-1.6.7 1.5.7-.7 1.5h2.3l-1.1 1.5-.9-1.5-.8 1.3v-1.3l1-1.2-2-.6.3 1.8-.7.3 1.3 1-.4.6 2-.2-.2.3h2.8l-.8-2.6-1-2.8-1.1 1.9zm6.46 35.14l2.6-.7-2.1-2.3-.5 3zm-10.8-29l-.1-.9-.5.3-.5-.6-.1.9-.1 1 1.2-.4.3.2v-.2l.2-.1-.4-.2zm5.3 7.1l1.7-.5-1.4-1.5-.3 2zm-2.1-2l1.7-.5-1.4-1.5-.3 2zm5.8 2.6l-1.3 1.1 1.6.2-.4.4 1.7.3-.4-1.5-.5.4-.3-.9 1.6.3-.8-3-1.8 2.5.6.2zm2.6 7.4l-1.2.4.4.2.1 1.7 1.6-.8-.7-.4.1-1 1.4.3-.8-3-1.8 2.5.9.1zm.9 3.5l.6.8.3-.5.9.2-.7-3-1.9 2.4.8.1zm.2 2.9l-.5.2 1 .6.1-.6 1.9.5-.7-3-1.9 2.4.1-.1zm2 3.3l-1.2 1-.5-.2.6 3 1.5-1.1 1.9.6-.8-2.1-.8.8-1.8-.9 1.9.3-.3-1.2.9.2-.7-3-1.9 2.4 1.2.2zm.9 9.6l.7 3 2.2-1.6-2.9-1.4zm3.2 5l-.2-.8-.5.5h-.1l.2-.8-1.1.3-.3-.1v.2l-.7.2.8.6.1.6-.5-.2.3 1.2-.1.1h.1l.3 1.7 1.4-1.1 1 .5-.7.6-.2-.2v.4l-.6.6.6.1v.1l-.8.8 1.7.6-.2.2-.3-.2v.6l-.1.2-1.9-2.1-.6 3 2.3-.6-.1.2 2.4.5-.8.9-.3-.2v.6l-.1.1.1.1v.7l-.7-.4.6 3 1.9-1.4-1.5-1 1.3-.5h.2l-.5-1.9-.8-3.1-.7.9-.2-.6.8-.3-.3-.2-.4-1.4.9.4-.6-2.5-.8.9-.7-.4.5-.3h.2v-.1l.5-.4-.8-.6zm-3.1-7.5l-.7-.3.2 1.1.7-.5 2.1.5-1.3 1.5 1.9.5-.5-2.1-.8-2.9-1.6 2.2zm-7.6-27.2l-1 .5 1.5.8.1-1.2 1.3.3-.8-3-1.8 2.5.7.1zm16.9 67l-1.8 1.5 2 .8-.2-2.3z"/><path d="M318.3 369.3l-.9 2.2 2.1-.1-1.2-2.1zm1.8 5.4l.6-2-1.9.7 1.3 1.3zm-1.3 4.3l.2-.8-.8.2.6.6zm-1.1-2.2l2.3.7-.5-2.8-1.8 2.1zm.7 4.7l.6-2.1-2 .8 1.4 1.3zm-2 2.7l1.3-1.7h-2.1l.8 1.7zM296.6 313h1l-.4-.8-.6.8zm-15.9-66.7l-1.6.6 1.4.9.2-1.5zm16.8 50.5l-.8-.7-.3 1.2 1.1-.5.5.4-.1.1 1.7-.2-1.2-1.2-.5 1.3.2-.7-.6.3zm-7.5-6.4h.7l-.4-.5-.3.5zm-6.7-35.4l-1.4-.1.8 1.2.6-1.1zm-5.1-4.9l-.7-.8-.3 1.2 1-.4zm8.6 7.3l-.9.3.7.4-.3 1.1 1.9-.3-1.4-1.2v-.3zm-7.7 3.9l.1 1 .7-.7-.8-.3zm9.1 33.8l-.2-1.2-.1.1-.9-1-.7 1.7 1-.3-.2.1 1.1.6zm3.4 8.9l.2.1.1.8.4-.4.1.1v-.3l.1-.1h-.1l.1-.9-.9.7zm6-4.4l-1-.3.3 1 .7-.7zm-8.7-2l-.6.9 1-.1-.4-.8zm2.4-21.3l.9 1.3-.7 1.3h2.3l-1-1.3.7-1.3h-2.2zm-4.8 4.7l2.7 1.6-.4-3-2.3 1.4zm2.5-5v1.2l-.7.7 1 .1-.3-.8.9-.4-.9-.8zm-.8-5.6l.9.3-.1-.9-.8.6zm-4.8 1.5l1.5-.1-.6-1.1-.9 1.2zm-.3 1.3l-.5-1.5-1.3 1.3 1.8.2zm.3-6l.8-.2-.5-.6-.3.8zm3.5 5.8l-1.1-1.8-1.1 1.6 1.7.2v.1l-.5.1.6.9.6-1.1h-.2zm8.3 18.7l.9-.6-1.1-.6.2 1.2zm-6.4.8l.4-.9h-.5l.6-.6-1-.3.1 1h-.2l.6.8zm-6.6-2.2l.1 1 .8-.5-.9-.5zm3.1-20.7l-.9-1.7-1.3 1.9 2.2-.2zm2.2-.9l.9-2h-2l1.1 2zm2.5-.2l1.1 2 .9-2h-2z"/><path d="M291.9 272.9l2 1-.4-2.2-1.6 1.2zm-2-3l-.5 1.9 1.3-.3 3 .2-1-2.7-1.6 1.9-1.2-1zm2 5l1.6-.4-1.7-1.4-.4 1.4-.1-.1-.5 1.9 2.2-.5-.1-.1 1.9.2-.8 1.3 1.5.2-.5-1.4.5.1-.9-2.4-1.8 2-.9-.8zm-5.6-5.8l-.3 1.3-.9-.7v1.3l.5-.2.5.5.1-.4 1-.2-.6.5.8.3-.1-.9.6-.1-1.6-1.4zm.7 4.3l2.2-.5-1.7-1.4-.5 1.9zm-.7 4.3l.9-2h-2l1.1 2zm2.9-16.3l-.9-1.8-1.2 1.4 2.1.4zm-2-4.8l-.8-1.8-1.2 1.3 2 .5zm-2.6-3.6l-1.4-1.3-.5 1.6 1.8-.3.4 1.1.8-.7-1.1-.4zm-8.9-11.8l-.5 1.6 1.9-.4-1.4-1.2zm21.1 49.3l.7-1.6H296l.8 1.6zm-7.4-12.1l-.7.3 1.4 1v-1l1.5-.6-2-1-.2 1.3zm11.9 20.8l-.6 1.4 1.7-.1-1.1-1.3zm.4 2.3l-1.4.6 1.4 1v-1.6zm-4.6-11.4l-.8 1.8 2.3-.2-1.5-1.6zm5.8 9.4l-.6 1.5 2.3-.2-1-1.1.7.2-.7-2.1-1.4 1.4.7.3zm9.1 30.2l-.6-1.6 1.4.2-.5-1.7-1.6 1.4h.1l-1 1 2.2.7zm1.1 17.7l.4.8.4 1.2 1-.2-1.1-.8.8-1h-1.5zm-3.8 1.2l-.8-1.1-.1.2-.2-.3-.6.8h.5l-.2.3 1.4.1zm4.7 4.5l-1.1.4.7.7.4-1.1zm6 7l-.5-3.2-2.2 2.4 2.7.8zm.3 2.5L319 364l1.7.6-.4-2 .1.1-.3-2.5-1.7 1.8 1.9.6zm-27.2-78.1l.2.2-.5.5 1 .1.8.8-1.1 1.3 1.7.1-.1.3-.6.3 1.1.9-.6.3.4.3.1-.6.2.2v-1.1l1.4-.2-1.5-1.6-.5 1.2-.5-1.3.1-.7.7-.5-.6-.4.1-.6-1.8.5zm-.1-3.8l-1.5.4.5-.3-.8-.5 1.4-.7-2-1-.1 2 .6-.3-.1.9v.1l1.5 1.5h-.8l.9 1.6.7-1.6h-.7l.4-2.1zm-8.3-23.7l.3-1.5-1.3.3 1 1.2zm7.2 31.4l.2-1.3.4-.6-.7-.1.1.5-1.2.3 1.2 1.2zm-3.7-4.4l-.1 1.5h.1l1.1-.5-.2-.2.3-.2-1.2-.6zm-.7-1.8l-.1 1.1.9-.6-.8-.5zm5.3 3.6l-.1 1.1.9-.6-.8-.5zm-5-12.5l1.2 1.9.7-1.7.2.9.7-.6-.9-.4.1-.3-2 .2zm-3.1-8.3l-.5 1.9 2.2-.5-1.7-1.4zm-5.1-14.9l-1.2.5.8.7.4-1.2zm-6.7 14.2l.8-.5-.9-.6.1 1.1zm-1-6.1l-.6.6.8.1-.2-.7zm-4.3 6.5l.3-.8h-.7l.4.8zm16.3 13.8l-.9.8 1 .4-.1-1.2zm2.7 10.2l.6 1.9 1.4-1.2-2-.7zm2.5-23.6l-.3 1.7 1.6-.5-.3.6-.8 1.3 3-.1-1.2-2.8-.5.7-1.5-.9zm-4.6 19.3l-.3.2.1-.4h-.7l.5-.2-.5-.6-.3.8h.1l.4.6-.8.6 1.6.5-.1-1.5zm-5.5-26.1l-.4-.2h.7l-.5-.8-.5.7-.3-.1v1.1l1-.7zm.4 9l-.7.8 1.2.3-.5-1.1zm-5.2-6.3l-1-.2.5.9.5-.7zm-4-3.7l.8-.2-.4-.6-.4.8zm-1.2 5.8l-.7.3.7.5v-.8zm12.6-15l1-.1-.4-.8-.6.9zm-2.8 7.8l.1-1-.9.2.8.8zm2.9-3.5l-1.2-.4.4 1.2.8-.8zm-3.6-6.1l-.6.9 1-.1-.4-.8zm-3.3 8.7l.2-1-.9.2.3.3-.5.3-.1-1-.8.7.8.3-.3.2.9.6.1-1 .3.4zm1-2l1.7-.5-1-1.2-.7 1.7zm9.2-1.2l-.8-2-1.3 1.4 2.1.6zm-2.9-6.8l-1.4 1.4 2.2.6-.8-2zm6.5 42.8l-.1-1.5-1.2.7 1.3.8zm-3.7 1.7v-1.2l-1 .7 1 .5zm-9.5-25.9l.9.2-.3-1-.6.8zm10.4 27.5l-.1.9.7-.4-.6-.5z"/><path d="M289.5 284.7l1-.1-.1-.1.9-.6-1.1-.6.1 1.1-.3-.6-.5.9zm-2.5 6.9l-.9.2.7.7.2-.9zm-2-5.5l-.7 1 1.1.2-.4-1.2zm-11.8-34.2l-.2.8.8-.4-.6-.4zm6.8-2.6l.1 1.2.9-.6-1-.6zm-1.1-6.1l-.7.7 1 .1-.3-.8zm-4.8 6.9h-.9l.5.9.4-.9zm19.6 50.3l.6 1.9 1.4-1.2-2-.7zm-8.2-2.9l-.2 1.7 2-.7-1.8-1zm6.1-.1l-.2-1.5-1.4 1.1 1.6.4zm4.8 7.8l.3-1.2-1.4.3 1.1.9zm-6.8-5.2v1.2l.9-.7-.9-.5zm1.4 9.6l-.7.8 1.2.3-.5-1.1zm-8.7-34.6l.5.8h-.5l.3.9.5-.8h-.3l.5-.7-1-.2zm-3-3.4l.8-.2-.5-.6-.3.8zm-1.8 6.1l.7.5v-.8l-.7.3zm7 26.3l.5-.7-1-.1.5.8zm-3.7-4.2l.8-.2-.5-.6-.3.8zm-1.5 6.2l.7.5v-.8l-.7.3zm16-11.7l.5 1.1.7-.8-1.2-.3zm-2.8-5.3l-.2-.3-.5 3 2.6-.8-.2-.3.6-1.1h-1.4l.1.2-.2-.1-.2-.3h.2l-.5-.8-.3.5zm1.1 1l.4.6-.4-.6zm-3.9 7.6l.1-1-.8.3.7.7zm-7.2-39.9l-.5-.8-.6.9 1.1-.1zm9 34.6l-1 .7.9.6.1-1.3zm2.5 1.9l.4-.5-.8-.1.1.5-1.6.4 1.5 1.7.4-2zm-2 5.7l-1 .7.9.5.1-1.2zm-5.2 5.1l-.6.8.9.1-.3-.9zm13.1-3l.8-.8-1.2-.3.4 1.1zm-7.7-3.2l-.2-.7-.1-.4-.1.1-.2-.2-.3.6h.3l-.3.6h.9zm-9.7-32.6l1.4-1.2-2-.7.6 1.9zm3.1-3.2l-.7-.2.3-.9-1.4.3.7.6.4 1.1.5-.5-.3 1 1-.1-.7-.9.2-.4v.1l2-.6-1.7-1-.3 1.5zm-1-3.9l-.1-1.5-1.5 1 1.6.5z"/><path d="M278.6 265.5l.1.1.2-1-.9.2.6.7-1.4.2 1.1.9.3-1.1zm-7-4.1l-.1 1.2.9-.7-.8-.5zm.5 10.3l1.2.3-.5-1.1-.7.8zm9.5 9.1l.8-.8-1.2-.4.4 1.2zm-2.4-6.1l-.5-.8-.6.9 1.1-.1zm-3.5 7l-.9.3.7.7.2-1zm6.9 11.4l-1.2-.3.5 1.2.7-.9zm-4.3-5l1-.2-.5-.7-.5.9zm-2.4 7.9l.1-1-.8.3.7.7zm14.8-31.5l-.9-1.7-1.4 1.8 2.3-.1zm-13.1-3.3l-.1-1.5-.9.5-.2-1.2-.9.6 1 .6-.2.1 1.3.9zm-3.4 1.5l.1-1.2-1 .7.9.5zm-5.4 4.6l.9.1-.3-1-.6.9zm12.7-3.1l.8-.7-1.2-.4.4 1.1zm-5.9.8l-.3.1.5-.2-.6-.5-.1.8-.3.1.7.8.1-1.1zm17.4 43.7l-.6.8h1l-.4-.8zm-.2-4.9l1.1.9.3-1.2-.2.1v-.4l-.2.1-.6-.4-.1.8.2-.1.1.1-.6.1zm-4 6h0l.5-.7-1-.1.1.1-.6.7 1.2.3-.2-.3zm-4.8-49l2.1-.5-1.6-1.1-.5 1.6zm16.6 55.3l.3-1.2-1.4.3 1.1.9zm-6.8-4l.9-.7-.9-.5v1.2zm1.4 8.4l-.7.8 1.1.3-.4-1.1zm-9.2-15.1l-.5-.6-.3.8.8-.2zm-1.7 6.9v-.8l-.7.3.7.5zm9.5 14.4l.5-.7-1-.2.5.9zm-3.1-5.1l-.3.8.8-.2-.5-.6zm-1.5 6.6l-.7.3.6.5.1-.8zm11.3-22.1l-.6-.6-.1.3-.5-.1.3.7v.2l.1-.1.1.2.5-.5.2-.1zm-3.2-5.2l-.5-.8-.6.9 1.1-.1zm-3.4 7.1l-.9.3.7.7.2-1zm1.9-1.9l.8-.8-1.2-.3.4 1.1zm-3-6.8l-.6.9 1-.1-.4-.8zm-3 7.9l-.9.2.7.7.2-.9zm1.6 8.8l-.6.8.9.1-.3-.9zm-3.7-8.6l-1.4.3 1.1.9.3-1.2zm-7.1-4l-.1 1.2 1-.7-.9-.5zm1.8 10.7l-.5-1.1-.7.8 1.2.3zm9-9l-1.2-.4.4 1.2.8-.8zm-3.6-6.1l-.5.7-.2-.2-.1 1.2 1-.7-.4-.2h.6l-.4-.8zm-3.2 7.7l-.9.2.7.8.2-1zm17.9 17.1l-.7.8 1 .1-.3-.9zm-4.9 21l-.8-.3.2 1 .6-.7zm8-8.9l-.3 1.1 1-.2-.7-.9zm1.3-5.8l-.9.4.8.5.1-.9zm-7.4 5.1l.4-.5.2.1v-.3l.1-.1h-.1l.1-.9-1 .7.2.1.1.9zm6.1-7.7l.2-.7-.7.3.5.4zm-3.9-6.5l.6-1.1h-1.4l.8 1.1zm-5.6-5.4l.2.2v-.3l.5-.2-.4-.3.1-.4-.3.2-.1-.1-.1.2-.6.3.4.3-.1.3.4-.2zm-.3 9.8l-.2-1.2-.1.1-.9-1-.7 1.7 1-.3-.2.1 1.1.6zm8.7 5.1l.6-.6-1-.3.4.9zm-8.1-2.6l-.6.9 1-.1-.4-.8zm6.3 3.3l1.1-.6-1.8-1.1.1 1.5-.9-.3.6 1.9 1.4-1.2-.5-.2zm-9.7-3.4l-.2 1.7 2-.8-1.8-.9zm6.1-.1l-.2-1.5-1.4 1.1 1.6.4zm4.9 7.8l.3-1.2-1.4.3 1.1.9zm-6.8-5.2l-.1 1.2 1-.7-.9-.5z"/><path d="M298.6 339.9l-.7.8 1.2.3-.5-1.1zm-6.8-6.1h0l.1.2.2.3v-.1l.1.2.3-.6h-.1l.1-.2-1-.1.3.3zm-2.6-3.9l-.5-.6-.3.8.8-.2zm-2.4 6.4l.7.5v-.8l-.7.3zm16.3-11.1l-.6-.4.2 2 1.5-.8-.2.5 1-.1-.5-.8-.2.3-.7-.4.5-.5-1.2-.3.2.5zm-2.7-6l.2-1.1-1.1.6.5.5-.7-.1.2.9.3-.5-.3.5 1-.2-.1-.6zm-3.1 8.6l.1-1-.9.3.8.7zm4.3-3.4l.3-.5-.8-.2.1.5-1.6.4 1.5 1.7.5-1.9zm-2 5.8l-1 .7.9.5.1-1.2zm-5.2 5l-.6.8.9.1-.3-.9zm12.6-4.1l.5 1.1.8-.8-1.3-.3zm-7.5-2.7h0l-.1-.5-.1.1-.2-.3-.3.6h.3l-.3.6 1.1.2-.4-.7zm9.7 12.9l-1-.4.3 1 .7-.6zm-8.7-2.4l-.6.9 1-.1-.4-.8zm-.2-4.9l1.1.9.3-1.2h-.2l.1-.4-.2.1-.6-.4-.2.9.2-.1.2.2h-.7zm-5.2-3.9l.7-.1-.5-.8-.4.7-.3-.1v1.2l.9-.7-.4-.2z"/><path d="M301.4 341.2l-.1 1.2.9-.7-.8-.5zm1.4 9.5l-.7.8 1.2.3-.5-1.1zm-6-11.3l-1-.1.1.1-.6.7 1.2.3-.1-.3.4-.7zm-3.7-4.3l-.3.8.8-.2-.5-.6zm-1.3 6.6l-.7.3.7.5v-.8zm10.1 14.6l-1-.1.5.8.5-.7zm-4-3.7l.8-.2-.5-.6-.3.8zm-1.1 6.7v-.8l-.7.3.7.5zm7.1-28l1-.1-.5-.8-.5.9zm-2.5 6.9l-.9.3.7.7.2-1zm2.7-2.6l-1.2-.3.5 1.2.7-.9zm-3.8-6l-.5.9 1-.1-.5-.8zm-2.9 7.8l-.8.3.7.7.1-1zm1.5 8.9l-.6.8.9.1-.3-.9zm-3.7-8.7l-1.4.3 1.1.9.3-1.2zm-7.1-3.9v1.2l.9-.7-.9-.5zm.7 10.3l1.2.3-.5-1.1-.7.8zm10.1-8.7l-1.2-.4.4 1.2.8-.8zm-6.7 1.6l-.9.2.7.8.2-1zm-8.3-9l.7.1-.2-.7-.5.6zm4.3-15l-1-.2.5.9.5-.7zm-3.6-4.4l-.3.8.8-.2-.5-.6zm-1.5 6.5l-.7.3.7.5v-.8zm2.3 5.3l.2.4h-.1l.2.2.2.3.1.1.3-.6h-.1l.2-.2-1-.2zm-2.9-4.1l-.3.8.8-.2-.5-.6zm-1.8 6.9l.7.5v-.8l-.7.3zm10 3.1l-1-.1.5.9.5-.8zm-3.8-4.3l-.3.8.8-.2-.5-.6zm-1.9 7l.7.5v-.9l-.7.4zm4.1-4.4l-1.4.3 1.1.9.3-1.2zm-7.1-4l-.1 1.2 1-.7-.9-.5zm.7 10.3l1.2.3-.5-1.1-.7.8zm10.1-8.6l-1.2-.4.4 1.2.8-.8zm-3.6-6.1l-.6.8 1-.1-.4-.7zm-3.3 8.7l.2-1-.9.2.7.8zm27.4 32.5l-1-.2.5.9.5-.7zm-3.6-4.4l-.3.8.8-.2-.5-.6zm-1.5 6.5l-.7.3.7.5v-.8zm2.8 6.1l.5-.7-1-.1.5.8zm-2.9-4.4l-.5-.6-.3.8.8-.2zm-1.6 6.9v-.8l-.7.3.7.5zm8.3 2.5l.5.9.5-.7-1-.2zm-3.1-3.4l.8-.2-.5-.6-.3.8zm-1.6 6.2l.7.5v-.9l-.7.4zm3.8-3.2l.3-1.2-1.4.3 1.1.9zm-6.2 5.1l1.2.3-.5-1.1-.7.8zm10.1-8.6l-1.2-.4.4 1.2.8-.8zm-6.9 2.6l.2-1-.9.2.7.8z"/><path d="M303.4 358.6l-.5.6.7.1-.2-.7zm.9-7.1l.3.6.2.3.1.1.3-.6h-.1l.2-.2-1-.2zm-2.8-4.1l-.3.8.8-.2-.5-.6zm-1.2 7.5v-.8l-.6.3.6.5zm8.4 2.5l.5.8.5-.7-1-.1zm-2.8-4.2l-.3.8.8-.2-.5-.6zm-2 7l.7.5v-.8l-.7.3zm4.1-4.5l-1.4.3 1.1.9.3-1.2zm-7.1-2.7l1-.7-.9-.6-.1 1.3zm1.5 8.5h0v-.7l-.7.5.5.1-.6.7 1.2.3-.4-.9zm1.7-6.2l.7.8.2-1-.9.2zm2.4 8.1l-.9.5 1.1.6-.2-1.1zm1.8 2.5l-.1-1.4-1 .5-.1-.1-.1 1.2.8-.6.5.4zm1.3 6.2l-.1-.4-.2.3-.5-.1.2 1 .6-.5h.1l.3-.2-.4-.1zm6.6-6.5l-.5-1-.5 1h1zm-29.2 14l.2-.7-.7.2.5.5zm4.8-5.1l.6-.3-.7-.4.1.7zm17.7-12l-1.4-.5.5 1.3.9-.8zm-4-7.1l-.7 1 1.2-.1-.5-.9zm-3.8 8.9l-1 .3.8.9.2-1.2zm-4.5 4.5l.8-.3-.8-.7v1zm0-5.9l-.7.5.8.2-.1-.7zm-5.1 5.5l.5-.7-.7-.1.2.8zm14.3 7.3l.8-.3-.7-.7-.1 1zm0-6l-.7.5.8.2-.1-.7zm-5.1 5.5l.4-.7-.7-.1.3.8zm.4 5.6l-.8-.6v1l.8-.4zm-1-5.6l-.7.5.8.2-.1-.7zm-5 5.7l.4-.7-.7-.1.3.8zm5.3 5.7l.9-.9-1.3-.5.4 1.4zm-3.8-7l1.1-.1-.5-.9-.6 1zm-3.3 9l.2-1.2-1 .3.8.9zm4-16.6l.2-.6.3.1-.2-.7-.5.6h.2l-.5.1.5.5zm4.7-6.2v1h.1v.2l.6-.3-.1-.1.3-.1-.9-.7zm-4.7 0l-.7-.1.3.8.4-.7zm5.3 8.2l.8-.3-.8-.6v.9zm0-5.3l-.2-.7-.7.5.9.2zm-5.2 5l.4-.7-.7-.1.3.8zm4.2-2.9l.5 1.3.9-.9-1.4-.4zm-2.4-6.2l.3-.6h-.8l.2.2-.6.9 1.2-.1-.3-.4zm-4.1 8.4l-1 .3.8.9.2-1.2zm17.1 8.7l1.1-.2-.8-1-.3 1.2zm1.2-6.4v-.9l-.9.5.9.4zm-7.4 4.8l.7-.8-.9-.3.2 1.1zM304 345v-.2l-1 .6.8.6v.1l1.1-.2-.9-.9zm1-6.2l-.9.4.9.5v-.9zm-7.6 4.7l.2 1 .7-.8-.9-.2zm-21.5-99.6l-.7 1 1 .2-.3-1.2zm5.9 16.8l1 .5-.1-1.3-.9.8zm4.7 16.9l1 .5-.1-1.3-.9.8zm-3.8-8.8l.2-1.6-1.3.8 1.1.8z"/></g><linearGradient id="F" gradientUnits="userSpaceOnUse" x1="278.938" y1="281.7" x2="227.163" y2="246.562"><stop offset="0" stop-color="#41415a" stop-opacity="0"/><stop offset=".998" stop-color="#41415a"/></linearGradient><path d="M264.9 206.5l-38 81.8 22.5 34.9 3.3 7.4c.9 2.6 20.1 1.9 24.6-27.7s11.1-43.3 11.1-43.3l-21.7-53.1h-1.8z" fill="url(#F)"/><path d="M133 362.4l7.1-6.4 24.4 23.7-9.4 8.1c-.9.8-2.4.7-3.2-.2l-19.1-21.7c-.8-1-.7-2.5.2-3.5z" fill="#79858e"/><linearGradient id="G" gradientUnits="userSpaceOnUse" x1="248.972" y1="339.533" x2="189.308" y2="263.25"><stop offset="0" stop-color="#b1bbc3"/><stop offset=".572" stop-color="#bbc3c9"/><stop offset=".975" stop-color="#c5cbd0"/></linearGradient><path d="M194.6 206.5l-5.8 41.2c-2.5 16.8-3.8 27.4-6.9 37.4-2.3 7.3-10 19.3-23 29.9-11.9 9.6-19.9 15-23.6 27.4-2.2 7.3 0 11.8 2.5 15.6 5.1 7.7 16.3 17.8 20 22.8 2.6 3.6 9.1 9 21.7 6.6 15.3-3 37.3-33.3 52.4-51.8 13.7-16.8 18.5-32.5 24.1-50.7 5.1-16.5 13.1-68.1 14.7-78.4h-76.1z" fill="url(#G)"/><g fill="#9b9ea3"><path d="M204.3 366l.2 1.5-1.7-.6-1.8-1.4-.3 2h.2l-.1.5-.1.1h.1l-.1.8 2.1-.6-1.2-1v-.1l1-.2 1 2.5 1.7-1.8-.4-.2 1.1-1.1-1.7-.4zM178 384.8l.9 1.5.8-1.3-1.7-.2zm8.7-4.7l-1.4.3 1.1.8h-.1l1 .9.5-1.4-1.3.5.2-1.1zm-7.9.6l-.5 1.1 1-.1-.5-1zm4.9-6.9l.9-.8-1.2-.2.3 1zm1.2.5l.9.1-.3-.9-.6.8zm11.6-.2l.1.7-1.3-1.2-.4 1.7 1.7-.2.1.8 2.2-2-2.6-1.4.2 1.6zm3.1-10.2l-.2.6-.2-1.1-.8.8.9.3-.2.4 1.2-.3-.7-.7zm-2.6 6l-1-.2.6.9.4-.7zm-3.4-8.2l-.8.7.9.3-.1-.8.7 1 .2-.7.6.3.1-2.1-1.6 1.3.4.2-.4.1v-.3zm-.8 6.6l1-.7-1.3-.7.3 1.4zm-1.1-1.6l1-1.2-1.7-.5.7 1.7zm-1.2 5.1l.6-.3-.6-.5v.8zm1.2-.9l1.6-1.2-2-1 .4 2.2zm3.2.5l-1.8 1.4 1.8.8v-2.2zm3.8-.5l-1.8 1.4 1.8.8v-2.2z"/><path d="M201.5 370.8l1.3-1.8-2.3.1 1 1.7zm-1.9-1l-1.9-.7-.3 1.9 1.5-.8.8 3.1 2-2-2.8-1.1.7-.4zm-4-.3l.4-.8h-.9l.3.7-.8-.6.1-.4-.4.1-.3.1-.3-.4-.6 1.2 1.1-.2-.2 1.3 2.2-.6-.6-.4zm-2.5 4.1l.7-.1-1.7-1.5-.5 1.9 1.2-.2-.3 1.7 2.2-.6-1.6-1.2zm-.9 6.5l1.6-1.2-2-.6.4 1.8zm-4.1 3.2l1.6-1.2-2-.6.4 1.8zm2.1-3.8l-.2 1.1h-.8l.6.8.1-.2 1.8-.4-1.5-1.3zm-18.4 7.7h1.9l-1.3-1.5-.6 1.5zm28.4-29.1l-.8.2.5.7-.2.6 2.2-.1-1.2-1.4-.3-.3-.2.3zm.9 4.7l.2.1v-2.1l-1.6 1.1 1 .6-.2.6-.2-.3-.5.9h.4l-.1.5 2.2-.1-1.2-1.3zm1.5.6l.1 1.5-1.4.8 2.1.9-.1-1.5 1.4-.7-2.1-1zm-8.7 2.7l.3 2 1.7-1.2.1.1v-1.3l-.9.6.4.3v.1l-1.6-.6zM181 381.5l-1.1.1.6 1.1.5-1.2zm-2.6-5.5l.7-.7.2.6h-.4l.5.8.5-.9h-.4l.6-.8-1.1-.1.1.4-.8-.3.1 1zm19.1-20.9l-.1.9.7-.3-.6-.6zm-17.2 14.4h1l-.5-.8-.5.8zm-.7 1.2l.1.9.6-.4-.7-.5zm-3.1-4.9l-.7.4.6.4.1-.8zm19.7-6.3h-1.1l.5 1.1.6-1.1zm2.6-4.4l.6 1.1-.1-.1-.1 1 1.1-.4-.8-.6.7-.9-1.3-.3.5-.8-1.7-.2.8 1.5.3-.3zm-15.9 20.7l-.5 1.1h.3l.1.8.8-.5-.6-.3h.5l-.6-1.1zm6.2-7.4l-1.2-.3.2 1 1-.7zm-11.3 2.8l-.2.8.7-.2-.5-.6zm3.2-5.9h-.9l.3.7.6-.7z"/><path d="M187.1 383l-1 .6-1.2-1.4-.6 1.6 1.9-.1 1.1.4-.2-1.1zm-5.7 3.2l-.7-.7-.1.4-.7-.3-.5 1.4 2.5-.5-.5-.3zm1.7-7.7l.5-.9-1 .1.5.8zm-.8 3.2l1.2.5-.1-1.1-1.1.6zm-5.4 3l.9-.3-.8-.7-.1 1zm2.5-6.7l-.5 1.7 1.6-.3-1.1-1.4zm4.4 7.9l2-1-2.1-.9.1 1.9zm-.9-14.4l.7-.7-.5-.2v-.6l-.9.3.5.3.2.9zm-5.9 5l-.4.8h.7l-.3-.8zm4.1 6.2l-.9.8 1.3.2-.4-1zm-5.5 4.9l.8-.5-.9-.5.1 1zm.6-8.4l.3-1-1 .4.7.6zm17.5-15.4l-.1-.8-.8.6.9.2zm-5.1 1.5v.9l.7-.3-.7-.6zm1.4-5.7l.4-.7-.8.2.4.5zm-3.8 19.5l-.9-.6.1 1 .8-.4z"/><path d="M185.7 370.6l.6.6.3-.9-.2.1.3-1.2-1.4.3 1 .9-.6.2zm5.2 2.8l-.7-1.7-1.4 1.4 2.1.3zm2.1 4l-1.5-1.6v.1l-.1-.3 1-.5-.8-.6-.2 1-.2-.6-.9.8-.8.2 1 .9.2-1 .7.1-.5 1.5h2.1zm-4.4 1.5l-1.6-.3.8 1.6.8-1.3zm-9.7-9.4l-.5 1.1h1l-.5-1.1zm6.2-7.5l-1.2-.2.2 1 1-.8zm9.5-4l-.8.8.2-.7.1.2.3-1.1h-.2l.1-.6-1 .2.5.5h-.3l.5.7-2.2.7.1-.4-.5.1-.8-.5v1.2l.6-.3.4.6.2-.7 1.6 1.7.1-.2.2.4.4-1.1.3-.2-.5-.2 1.1.1-.4-1.2zm-4.8 4.5l-.8-.5.1 1 .7-.5zm-.2-7.9l.3-1-.9.4.6.6zm5 23.5l1.5-1.3-2-1 .5 2.3zm-11.8-3.1l.8-1.3-1.5.2.7 1.1zm-1.4-4.3h-1.1l.6 1.1.5-1.1zm-1.7-6.3l-.8-.3.1 1 .7-.7zm4 5.2l-.3-.5.2.2.3-1-1 .3.2.2-.2.7.8.1zm4.8 3.4l-.9.8 1.2.2-.3-1zm2 5.6l-1.5-1.5-.4 1.7 1.9-.2zm54.4-107.3l-.7.2.6.6.1-.8zm-71.2 113.8l1-.7-1-.5v1.2zm14.4-8.9l-1.1-.1.4 1.1.7-1zm2.5-6.9l-1.3.2.9 1.3.4-1.5zm9-1.6l-.4-.8-.6.7.1-1.8-.7.4v-2.1l-1.6 1.2.4.2-.5.3 1.1.7-.4.3h-.2v.1l-.1.1.1.1.3.9.4-.5.9.5-.5.8 1.4.1-.8-1.2-.1.2v-.2h1.2zm-1.6-1.6l.1.1-.1.1v-.2zm17.2-30.4l.4-1.2-1.1.3.7.9zm-7.5 25.6l-.1-.3-.1.2-.6-.5v1l-.4.5-.1-.6-.9.9h-.1v.1l-1.2 1.3 2 .6.3 1.8 1.7-2-1.4-.2-.1-.5.6.2.1.2.1-.1.6.2-.1-.8.6-.7-.7-.2v-.1l.8-.3-1-.7zm10.4-14.9l-1.7-1.4.1 2-2.1.6 1.6 1v.8l.9-.5-.7-.6.2-1.3 1.7-.6zm2.4-1.4l-2.1.6 1.7 1.2.4-1.8zm-.1-1.6l-1.6-1.3v2.1l1.6-.8zm-16.4 14v-.7l-.5.3-.6-.5v.9l-.6.4.6.3v.5l.4-.2.6.3v-.6l.6-.3-.5-.4zm3.5-8v-.5l1 .2-.2-1-.7.6-.1-1.4-1.5 1.3 1.5.8zm23.2-27.1l-1 .1.7.7.3-.8zm-16.7 6.8l-.2-.8-.8.7 1 .1zm9.3 10.8l-.8.9 1 .3-.2-1.2zm-14.2 10.4l-1.3.3.8 1 .5-1.3zm-6.9 11.5l.8 1 .3-.8.5-.1-.6-.9-.2.5-.8.3zm7.9-12.4l.8.9-1.5-.5.9 1.9 1.2-1.3-.4-.1.5-1.3-1.5.4zm-.2-6.6l-.3-1-.8.8 1.1.2zm-1.7 12.8l-.6 1.1 1.4.1-.8-1.2zm-1.4 2.6l-.6 1.1 1.4.1-.8-1.2zm2.5 4.6l1.6-1.7-2.3-.1.7 1.8zm1.7-10.1l.4.1-.2-1-.9.7.4.1-1 1.4 2 .3-.7-1.6zm-3.5 5.3l-.5-1.4 1-1-2.1-.3.5 1.3-.8 1.1 1.9.3z"/><path d="M218.4 342.8l-1.4 1.6 2 .4-.6-2zm7.4-7.7l-1.2 1.8.6.1-1.2 1 1.4.6-.1-1.6 1.3.1-.8-2zm-15.6 4.9l.2-.7h-.6l.4.7zm3.9 4.1l-.1.7.7-.2-.6-.5zm12.8-10l-.6.7h.9l-.3-.7zm-35.1 10l-.8-.1.3.7.5-.6zm6.2-2.8l-.2.7.6-.1-.4-.6zm6 12.9l.3-1.4-1.3.2 1 1.2zm-1.3 7l1.1-.4-1-.6-.1 1zm8.8-5.6l-.8.8 1 .3-.2-1.1zm-4.2-.5l.3-2-1.7.3 1.4 1.7zm15.6-17.2l-1.1.4 1 .6.1-1zm1.1 3.5h1l-.6-1.1-.4 1.1zm.5-10.7l-1.1.5.8.7.3-1.2zm6.6 1.6l-.9-1.1-.3 1.4 1.2-.3zm6.3-6.5l.9-.5-1.5-.9.2 1.5-.5.1-.6-1.9-1.3 1.3-.7-.4-.1 1.6h-.8l1.2 1.4h-.5l.1-.3-1.8.4-.1-.7.5.6.3-1.6-.9.2-.1-.1-.1-.4-.2.2-.8-.5-.1-.5 1 .3-.2-1.7-.4.2v-.1l-.1.1-.2-.1-.5-.8-.2.5-.1-.1v.3l-.2.5h.2v.1l-.5.1.4.3-.3.2.3.1-.3.4 1.1.3.1.9.6-.3-1.1 1.2-.2-.2v1l.8-.3-.3-.2 1.5.4.2.3-.5.5.7.1-.1-.5.8.9-.7.7 2.3.3-.5-1.7 1 1.6 1.7-2.2h-.1l1.7-2.4-1-.2zm-3.7 3.1l.2-.8.2.4-.4.4zm.3-2.3l1-.7 1.1.1-.9.1.2.4-1.4.1zm.8 1.4l.7-1.4 1 1.5-1.7-.1zm-20.5 20.7l-2.8 1.3 2.1 1.7.7-3zm17-28.7l.1-.2.6.3v-.4l1.2-.4-1-1v.2l-.1-.2v-.3l.1.1.2-.9-.3.1v-.4l-.6.5-.5-.5-.3.9.4-.1-1.4 1.1 1.2.6.4.6zm.7-1.2h0v.7-.7zm-3.7 13.6l-1.7.9 1.4 1.1.3-2zm-2.2-.9l1.2-.7.7.5.3-2-1.7.9-.7-.5.2 1.8zm2.1 5.4l-1.5-.3.7 1.4-.6-.1.7 1.3h-2.3l.1.4-.3.4-.8-1.1-.4 1.4 1-.2-.3.3 1.4.6v-.6l.6 1.2 2-2.4h-.6l.8-1-.6-.1.5-.6.5 1.2 2-2.4H228l.2.6zm-4.4 6l-.8-.5v.5l-1.3 1.1 1.7.8-.1-.8.8-.5.4 1 2-2.4-3.1-.1.4.9zm-2.5 2.6l-.3.9h.6l.3.9 2.1-2.3-3.1-.2.4.7zm-2.1 2.3l-.5-.3.1 1.2-.6-.1.3 1 .9-.8-.6-.1.5-.3.6 1.7 2.1-2.3-3.1-.2.3.2zm-1.9 3.6l-1.4-.4-.1-.6-2.1 2.3 1.6.5.5 1.5-1.9-.5v.1l-1.4-.3.6 2h-1.5l1 2.3-1.8-.2.7 1.8 1.4-1.6h-.1l1.8-2.3h-1.4l.9-1.2.6 1.3 1-1.3.1.2 1.2-1.8-.9-.2-.3-1.8.9 1.7.7-.9.3.6 2.1-2.3-3.1-.2.6 1.3zm-7.4 5.9l-2.1 2.3 2.6.8-.5-3.1zm5-17.5h.3v-.1l.5-.2v.2l1.6-.8-1.7-1.3.1 1.3-.6-.3-.1.6-.1-.2-.6.7.6.1zm6.7 1.7l-.1-.6-.3.3-.4-.2-.2 1.2.8-.3.2.1v-.1l.3-.1-.3-.3zm-3.9-8h-.1l.6.8.4-.8h-.2l.2-.7.1 1 1.3-.8-1.5-.9.1.6-1.3.5.4.3zm27.6-44.8l1.1-1.1-1.7-.5.6 1.6zm-20.8 34.7l.5-.3.4.3v-.7l.1-.1-1.2-.3.2 1.1zm5.2-6.4l.1-.6-.5.2.4.4zm20.1-26.6v1.4l1.1-.5-1.1-.9zm-7 1.3l.6-1h-.1l.5-.3-.2.4 1.1.1-.5-1.2-.4.7-1.2-.3.1.6h-.3l.4 1zm5.2 8.6v-.9l1.5.8-.4-2-.9.6-.1-.2.8-.6-1.3-.7v.2l-.2-.9-1.3 1.7 1.3.3-.2.6.5-.1h.1l-.7.5.9.7zm3.4-5.4l.3.8-1.4.7 1.6 1.1-.1-1.9.5-.5-.9-.2zM228.8 326l-.6.9.9.1-.3-1zm-3.7-6.3l.4-.8-1.1.1.7.7zm16.3-16.1l.4-1.2-1.4.2 1 1zm-2-.7l.1.3 1.5-1.2-.7-.2.3-.7-1 .3.3.3-.7-.2.1.3-1.1-.1 1 1.5.2-.3zm-6.6 17.1l-.7 1 1 .1-.3-1.1zm-5.6-3.6l-.1-.1-.2 1 .9-.4-.4-.3h.9l-.5-.9-.6.7zm-3.2-4.3l-.3-1-.6.8.9.2zm20-11.5l-2.3.3 1.6 1.5.7-1.8z"/><path d="M246.1 306.7l2-.3-1.1-1.6-.9 1.8-.1-1-.3.2.2-.3h-.3l-.3-.6-.3.6h-.1l.1.1-.5 1h-.1l-.1.1h.3l.9.6 1.8 2.1-1.8.6.2 2.2-1.7-.3-.2-.7.7.7.2-2.2-1.2.4-.2.1v-.2l-.4.1-.6-.2.2-.2-.5-.2.2-.9-1.6.3-.2-.3-.1.3-.6 1.2.6-.1.1.7-1.4.2.4.6-.9.1v.1h-.1l-.7 1.2-1.3-.8v.3l-.8.1.6.6.2-.5-.1.9-.5.5.8.1.6.4v-.3h.3l-.1-.2.5.1-.1-.7 1.6-.1-.8-1.3.5.4.3-.9.9 1.2.2-.7.4-.2.4 1.8 1.4-1.6.2.2v-.1l.9 1.7-1.6.1.2.4-.9.2-.3-.9-1.4 1.4 2.1.7-1 .8-.1-.4-1.4 1.4 1.2.4.7.9-1.6-.2 1.2 2.1-2.9.5 1.5 1.9-2.2.1.6-.2-1.3-.8-.2 1.3.5-.2 1.9 2.1 1.2-2.3.3-.2 1.2-2.3-.3.1.7-1v.1l.2-.4.2-.3h-.1l.7-1.4h-.7v-2.2l-.5.4-.4-1.1 2.1 1.6.4-1.9.5.6 1.2-2.4-.3-.1 1.6-2.7.1.1 1.2-2.5-2.4.2.4-1zm-8.3 6.3l-.2.4h-.1v-.3h-.1v-.1h.4zm3.7-1.6h0zm.7.2l-.4-.1v-.2l.3-.2.3.3-.2.2zm-.6 5.7l-.1-.2.5.2h-.4zm2.7-14.5l-1.1.6-.1-1.1-.9.9.5.2v.7l.3-.2 1.5 1-.2-2.1zm-.8 1.9l.2-.2-1-.1.1.3-.6.2.3-1.1-2 .3.7.9-.1.2-.6-.4-.2 1.1.3-.1-.2.3h.5v.2l.6-.2-.6 1.4 1.8-.4-.6.7.9.2-.2-1 .3-.1-.7-.9h.2l-.1-.2.8.8.2-1.9zm7.4-4.7l.7-1.9-1.8.1 1.1 1.8zm1.8-5l.5-2-1.8.3 1.3 1.7zm0-3.5l1-.2-.6-.9-.4-1.9-1.4 1 1.7.8-.3 1.2zm-3.4-7.9l-1.4 1 1.8.9-.4-1.9zm-10.2 24.7l-.5-2.7-2 1.4 2.5 1.3z"/><path d="M245.3 295.7l-.6-2.7-2 1.4 2.6 1.3zm-13.7 33.7l-1.4.4 1.2 1.3.2-1.7zm-3 .9l-.5 1.1h.6v1l1.3-1-1.3-.7-.1-.4zm7.2-8.7l-1.8.8 1.8 1.4v-2.2zm-2.7 1.4l-.2 2 2.1-.8-1.9-1.2zm1.8-6l-.2 1.3 1.5-.5-1.3-.8zm5.6 2.7l-1.3-.8-.2 1.3 1.5-.5zm-7.4 11.7l-1.5.4 1.4 1.6h-.9l.2-.1-.6-.3v.4h-1.5l.5.9-.9-.5.2 1.7.9-.6.4 1 2-2.5h-.2l.3-1.4.2.7 1.2-1.8-2-.3.3.8zm19-38.8l-1.2-.6.1 1.6 1.1-1zM233.6 308h0l.7 1 .1-.2.2.2.1-.3.7.1-.3-1-.1.1v-.1l-1.4.2zm.3-2.3l-.5.5-.8-.5.1 1.7 1.4-.7-.3-.2h.5l-.3-.7.3.5.3-.7h-.8l.1.1zm14.9-3.7l-.9.5v-.9l-.8.7-1-1-.7 2.2.8-.3 1.7.8-1.4.3 2.1 2.1 1.2-2.8-.8.2-.2-1.8zm-.6 1.9h-.2v-.7l.9.5-.7.2zm-2-12.8l.5.4.1-.9-.8.2-.1-.3-.8.9 1.2.1-.1-.4zm-9.7 19l-.7.4.7.3v-.7zm-4.2 3.4l.1.8.6-.6-.7-.2zm13.8-23.9l.8.5.1-.7v.2l.7-.7-.8-.3.1.7-.9.3zm4.3-2.4l-.3 1.2 1.1-.1-.8-1.1zm-6-1.1l-1 .3.9.6.1-.9zM230 313.7l1-1.2-1.3-.3.3 1.5zm-4.1 1.2l-.1-.7-.7.5.8.2zm8.9-4.7l.7-.6-.9-.4.2 1zm-9.4 5.8l.8-.6-.8-.4v1zm2.6-4.9l.6-1.1-1.2.2.6.9zm5.6 1.5l-.6.6.8.1-.2-.7zm.6-1.5l-.1 1 .9-.5-.8-.5zm-7.2 13.8l-.8-.5-1.2 1.6 1.8.4-.2-.6.1-.7.3-.2zm-3.6-8.8l-1.5.9 1.8 1.1-.2-.9.9.5h-.2l.4 1.2.6-1h-.1l.1-1.3-1.7.8-.1-1.3zm6.7 5.8l-.5-.7-.2.5-1.4-.8v1.3l-1.2-1.6-.2.7h-.3l.2-.2-1.7-.2.1.1-.8-.4v1l.8-.6.8 1.3.5-.7.3.5-.2.7 1.8-.2v.7l1.6-1.1.4-.3zm-6 7.1l1-.4-1.1-.9v1.4l.1-.1.1 1.1.9-.6-1-.5zm-1.2-7.8l1.1.3-.1-1-1 .7zm-6.3 7.3l.6-1-1-.1.4 1.1zm22.4-28.7l-.8.3.7.5.1-.8z"/><path d="M227.2 307.7l.2-.8-.7.2.5.6zm-9.1 10.7l-.3.9h.9l-.6-.9zm1.5-4.8l-.8.2.7.5.1-.7zm-6 3.1l-.7-.3v.9l.7-.6zm35.7-24.6l-1 .3.9.6.1-.9zm-7.3 4.2l-.8-.4.1 1 .7-.6zm-14 21.8l.6.8-.7-.1.3 1 .9-.9-.5-.1.5-.7H228zm1.5 6.2l-.6-.2.1-.8-.8.5-.9.5.8.6-.1.1-.3-.1.2.3-.1.1h.2l.5.8.7-1-.3-.1v-.2l.6-.5zm-11.7-1.8l.6-.8-1 .1.4.7zm6.2 3l.4.6.2-.6h-.6v-.1l-.8.4.8.3v-.6zm-1.7 2.8l.8-.6-.8-.4v1zm22.9-29l-.9-1.9-.8 1.5-.5-1.7-1.1 1.4 1.5.4-.1.2h.5l-.5.2.7.4.2.6.6-.6-.7-.1.1-.4h1zm5.3-5.2l-.4-.6-.2.5-.9-.1.9 1.4.6-1h.1l.1-.2h-.2zm-9.1 3.2l-1.3-.6.3 1.4 1-.8zm-7.4 18.2l-.4.4 1 .2-.1-.5h.1l-.4-1-.8.9h.6zm.6-18.2l-1 .1.6 1 .4-1.1zm2.5 4.1l-.2.7-.5.5 1 .4v-.6l.7-.1-1-.9zm-12.4 2l-.9-.2.2 1 .7-.8zm-3.3 8.9l-.4 1.2 1-.1-.6-1.1zm2-5.8l-1 .3.8.6.2-.9zm9.1 8.4l.2-.4-1 .1.5.8h-.4l.4 1 .8-.9.2-.2-.7-.4zm-.3.5l.2-.3v.3h-.2zm18.2-12.6l.7-1.8-2.3.3 1.6 1.5zm-13.9 12.9v-1.5l-1.6.9 1 .4v.2h-.3l.3 1 .9-.9h-.1.1l-.3-.1zm-5.3-.8l.6-.9-1 .1.4.8zm13.8-18.4l-.4 1.2 1.1-.1-.7-1.1zm-28.9 37.2l-.1 1.1.7-.3.7.5.1-1-.6.2-.8-.5zm6.8-6.6l1.1-.5-1.1-.9v1.4zm.1-7.5l-.1-.5.5.5.3-.8-.8.1v-.3l-1 .7 1.1.3zm-7.6 6.6l.1.3.1-.3h.2l-.1-.3.1-.1h.6l-.5-.9-.2.5h-.1v-.2l-.2.1h-.4l.1.3-.4.4.7.2zm34.2-30.9l-1.5.9 1.8 1.1-.3-2zM217.5 331l-.1-1-1 .7 1.1.3zm-6.9 6l.7-1-1-.2.3 1.2zm.3-14.1v.9l.7-.6-.7-.3zm-5.4 15.2l-.4.9h.9l-.5-.9zm2.6-5l-.8.1.6.6.2-.7zm-7.5 2.6l-.1.8.7-.5-.6-.3zm26.9-6l.2-.6-.4.1.3-2.1.2.2.3-.8h-.4l.1-.3-2.7 1.4 2.1 1.6.3.5zm-8.3-.3l.9-.5-.7-.5-.2 1zm3.4 1.1l.8-.9-.2-.1.9.1-.5-1.2-.6 1-.3-.1.1-.9-1.2.5.8.5.2 1.1zm3.6-6.7l.3-.9-1 .1.7.8zm-8.6 2.2l.9-.5-.7-.5-.2 1zm-1.8-3.4v1.4l1.1-.5-1.1-.9zm-.1-7.2l-1 .7 1.1.3-.1-1zm-7.3 8l.6-1-1-.1.4 1.1zm12.6 2l-.4-1.2-.7 1 1.1.2zm-6.1-4.9l-.2 1 .9-.5-.7-.5zm29.6-37.3l-1.2.3.7.8.5-1.1zm3 12.9l.7-1-1.2.1.5.9zm-34.7 36l.4-1.1-.5.1.4-.5h-1l.2.6-.3.1.8.8zm3.2-1.6l1.3-.8-1.5-.9.2 1.7zm-2.8 18l1.1-1.4-2-.5.9 1.9zm-9.4-.1v.3l1.6-.8-1.7-1.3.1 1.2-.5.2.5.4zm9.7-5.6l.5-.2v.3l.9-.7.2-.1-1.7-1.3.1 2zm-12.5 10l-1.6 1.1 1.6 1v-2.1zm-10.8-7.4l-1.5 1.3 1.6.9-.1-2.2zm14.3-1.9l-1.5 1.2 1.6.9-.1-2.1zm2.6-1l1.6.9-.1-2.1-1.5 1.2zm16.9-7l-1.4.6-.1-.7-.5.4-.1-.5-.2.2-.5-.7-.1.5v-.1l-.6 2.1 1-.1-.4-.7h.2l1.3.6v-.6l1.3.6.1-1.6zm-1.9-.2l.2-.7-.2.1-.1-1.6-1.3 1.2 1.2.5h-.2l.4.5zm15.3-17.4l-.7-.2.1.4-.3-.1.2 1.4-.6-.2v.5l.1-.1.5.7.2-.3-.3 1.4 1.6-.7-1-.9.1-.1h-.3l.6-.7 1.2.9v-2.2l-1.1.5.2-.5.4-.1-.2-.3.2-.4.6-.5.9.1-.2-.7.5-.3-.8-.4-.1-.9-.6.6-.2-.1v.3l-.7.1.3.3-.1.1.2.1.2.2v1.1l-1.7.1.8.9zm-.7 1.6l.1-.1v.1h-.1zm-4.3 4.6l.1-1.4h-.1l-.1-1.4-1.3 1.1 1.1.5-.8.5 1.1.7zm-1.1-4l-1-.1.6.9.4-.8zM219.7 338v.4l-.6.4-.7-.5.1 1-.2.1.2.1v.8l.7-.3.7.4v-.7l.2-.1-.1-.1 1-.5-1.3-1zm-3.6-1l1.6-.8-1.7-1.3.1 2.1z"/><path d="M218.8 337.7l.2-.1-.7-.4-.3-.3-1-.4.1 1.2.6-.5-.1.9.2-.1v.2l1.2-.4-.2-.1zm-.8-.7h0v-.1.1zm1.9-1l-.8.9 1 .2-.2-1.1zm1.9-5.4h-1.2l.7.9.5-.9zm-13.4-11.2l-.8.2.5.6.3-.8zm1.8-.5l-.6-.4.1.8.5-.4zm-5.9-2.8l-.5.5.7.1-.2-.6zm20.5 4.5l1-.3-.7-.7-.3 1zm-26.6 35.6l-1 .9 1.2.6-.2-1.5zm4.5-3.9l.6-.8-1.2-.3.6 1.1zm-9.6-2.4l-.5 1.1 1.2-.2-.7-.9zm13-3.4l-1.3.3.8 1 .5-1.3zm1.9.1l.5-1.3-1.3.3.8 1zm7.4-3.9l.1 1.2.9-.5-1-.7zm-2.1 2.9l.9-.5-1-.7.1 1.2zm-6-6.3l-.3-1-.9.8 1.2.2zm-13.4 3.8l-.5 1.1 1.4.1-.9-1.2zm5.8 6.7l.1-.6.7 1 .4-1.4-1 .1.1-.3-1.1.5.8.7zm1-10.2l-1.1-.6.2 1.2.9-.6zm4.5 12.2l-.6 1 1.5.1-.9-1.1zm-2 3.7l1.4.1-.8-1.2-.6 1.1zm-11.8-.1l-1.1-.6.2 1.2.9-.6zm10.7 4.3l.7-.9-1-.2.3 1.1zm-1.9-15.5l-.3.7h.9l-.6-.7zm3.8-2l.5-.3-.7-.4.2.7zm7.6-6.3l.9.1-.3-.8-.6.7zm-3.8-.4h-.6l.4.7.2-.7zm3.6 4.8l-.1.7.7-.2-.6-.5zm2.9-14.1l-.3-.7-.5.7h.8zm-3.8-.9l.4.7.2-.5.6.1-.2-.8-.6.5h-.4zm4.2 4.7l-.1.7.7-.2-.6-.5zm8.6.1l-.6.7h.9l-.3-.7zm-4.4.7l-.7.1.5.6.2-.7zm4.1 4.4v.7l.7-.3-.7-.4zm4.9-6.2l-.1.5.6-.2-.5-.3zm-26.4-5.2l-.1.9.7-.5-.6-.4zm-2.6 7.9l-.5.5.7.3-.2-.8zm7.6-.3h-.7l.3.6.4-.6zm-17 7.8l-.7-.1.2.6.5-.5zm5.9-1.6l-.2.7.6-.1-.4-.6zm11.3 12.8l.1 2.1.4-.2.9.4-.1-.7.5-.2-1.8-1.4zm-12.2 13l.3.6-.2.2.5.2.2.3.1-.2h.1v-.2l.3-.9h-1.3zm.2-10.8l-1.7.3 1.4 1.6.3-1.9zm-2.9-3.2l-1.3.3 1 1.3.3-1.6zm8.1 2.4l-.8 1 1.1.4-.3-1.4zm19-15.8l-.8-1.3-.4 1.3h1.2zm-1-7.8l.1.1-.2.1.7.4.2.2v-.1l.2.1v-.6l.1-.3h-.1v-.2l-.6.2h-.4v.1zm-7 4.7l.9-.7-.9-.5v1.2zm6.9 9.2l1.2-.1-.8-1.3-.4 1.4zm1.6-8.1l-1.1.4 1 .7.1-1.1zm-8.4 4.9l.9-.8-.9-.5v1.3zm2.2-2l1.2.9-.2-1.5-1 .6zm2.2 8.1l.9-.8-1.2-.3.3 1.1zm0-11.8l-.9-.5v1.2l.9-.7zm5.1-5.4l.8.7.3-1.2-1.1.5zm-1-5.6l-.3-.8-.7.7 1 .1zm6 7.6l-.9.7.8.6.1-1.3zm-3.9-4.7l-.3.3.8.1v.5l1.1-.7-.9-.3-.3-.6-.6.8h.2v-.1zm3.4 8.8l-.6-.1.6-.8v.1l.6-.1h.2v-.1l.5-.1-.6-.8v-.3l-.2.1-.1-.2v.1l-.1.1-.6.2.3.2-.1.2-1.7-.3.8 1.4-.6-.1.8 1.5.8-1zm-7.1-3l.8-.9-1-.3.2 1.2zm-.7 9.6l-1 .5-.3-.7-.5 1.3h1.2l-.3-.5 1 .8-.1-1.4zm-8.4 6.3l-.5 1.3h1.2l-.7-1.3zm0-10v1.2l.9-.7-.9-.5zm38.9-42.3l.7-.1-.5-.7-.2.8zm.3-2.3l1.2-1.3-1.7-.1.5 1.4zM211.5 345l-.1.1v-.1l-2.8 1.3 2.1 1.8.3-1.3.7.3-.2-2.1zm-14.9 15.8h-.3l.5.6.2.3v-.1l.9.8h-.4l.5 1.1.4-.7.4.3.7-3-2.3 1.1.1-.6h-.2l.1-.5h1l-.8-.9-.4.8-.8.1.4.7zm20.4-41.3l-.9 1 1.2.3.1.1.2-.7-.4.1-.2-.8zm3.1-5.7l.7.9.1-.2.7.1-.2-.6-.4.3.3-.5h-1.2zm-9.4 1.8l1.1-.4-.8-.7-.3 1.1zm35.5-21.3l.9.1-.4-1-.5.9zm-17.9 17.3l-1.3-1.3v.2l-1.3-.2.3 1.4.2.7.6-.6v.3l1.5-.5zm-2-.2l.6-.6-.1.6h-.5zm-10.8-.9l.3.8.8-1h-.9l.1-.1-.8-.4v1l.5-.3zm6.8-1.1l-.3 1 .9-.1-.6-.9zm-5.4-5.9l-1 .4.8.5.2-.9zm8.5 6.2l2-.3-1.3-1.8-.7 2.1zm5.9 2.4h1.3l.7.3v-.7l-.5.2-.3-.7h.1l.5.3.1-2.3-1.8 1.3.7.5-.1.2-.7.9zm-6.5-3.8l.1-.5h.6l-.6-.8-.2.3-.7.3.8.7zm-.2 6l.6-.3-.7-.5.1.8zm-5.7-11.3h1.4l-.8-1.1-.6 1.1zm17.3-7.4h1l-.5-1.1-.5 1.1zm-25 11.6l-1.2-.1.4 1 .8-.9zm5.3.2l.9-.1-.6-.9-.3 1zm-4.8-7l-1 .3.9.6.1-.9zm7.3-2.4l-.6.9 1.3.1-.7-1zm4.5 5.2l-1 .3.6.7.4-1zm6 14.6l-.2-1-.7.6.9.4zm.8-22.6h-1.4l.5 1.1.9-1.1zm1.7 4.9l-1-.1.6.9.4-.8zm-9 .2l-.3 1 1-.3-.7-.7zm18.1 1.8l.6-.8-.9-.2.3 1zm-.6 2.3l-1 .3.8.6.2-.9zm-12.4 7.9l-.2.8-.8.6.5.2-.2.5-.3-.5-.6.9 1.3.1-.1-.2 1.5.1-.8-1.5.7-.3-1-.7zm4.1-4.6v1l.4-.3.3.8.8-1h-.9l.1-.1-.7-.4zm1.7-5.4l.1-.9-1 .4.9.5zm3.5-1.4l-.8-1 .5-.4-1.3-.6.4 1.3.2-.2-.4.8 1.4.1zm-9.1 4.2l-1.2-.1.4 1 .8-.9zm6.2.1l-.6-.9-.3 1 .9-.1zm-6.1-6.2v.1l.1-.1.2.1v-.2l.5-.2-.6-.6-.1.3-.7.2.6.4zm7-2.2l1.3.1-.7-1-.6.9zm4.6 1.4l-.3 1 1-.3-.7-.7zm-13.2-4.9l-1.2-.1.3 1 .9-.9zm5.7-.5l-.4.9.9-.1-.5-.8zm5-4.3l-.9-.2.2 1 .7-.8zm-5.7-.4h1.4l-.8-1.1-.6 1.1z"/><path d="M249.6 279.7l-.6 1 1 .1-.4-1.1zm-17.8 3.5l-.6.9 1.3.1-.7-1zm4.6 5.2l-1 .3.6.7.4-1zm5.1-5.1l-.3 1 .9-.3-.6-.7zm1.7-3h-1.4l.5 1.1.9-1.1zm-7.3 5.2l-.3 1 1-.3-.7-.7zm3.8-7.1l-1.2-.1.3 1 .9-.9zm5.7-.5l-.4.9.9-.1-.5-.8zM235 319.4l-.3-.9-.2.2-.2-.6v.1l-.1-.3-.6.9h.3v.1h.5l-.3.5h.9zm.9.7l-.6.8.9.1-.3-.9z"/></g><path d="M211.3 206.5l-4.6 24.8s14.6-.3 21.7-10.6c4.7-6.8 6.8-11.7 7.7-14.3h-24.8v.1z" fill="#79858e"/><linearGradient id="H" gradientUnits="userSpaceOnUse" x1="230.934" y1="224.135" x2="229.724" y2="195.446"><stop offset=".011" stop-color="#41415a" stop-opacity="0"/><stop offset=".998" stop-color="#41415a"/></linearGradient><path d="M190.7 235.4s12.4-10.2 40.2-11.9c27.8-1.6 36.3 6.3 36.3 6.3l3.7-23.3h-76.4l-3.8 28.9z" fill="url(#H)"/><path d="M143.6 365.4c0-.2-3.7-17.4 7.5-28.8 3.2-3.2 7.7-7 12.9-11.4 6.9-5.8 14.6-12.3 21.4-19.3 11.9-12.3 15.9-39.1 17.6-50.5l7.9-49.3 1.4.2c-.1.3-5.9 36.3-7.9 49.3-1.7 11.5-5.7 38.6-18 51.3-6.8 7-14.6 13.6-21.5 19.4-5.2 4.4-9.7 8.2-12.8 11.3-10.6 10.8-6.9 29.4-6.8 29.5l-1.7-1.7z" fill="#fff"/><g fill="#666a75"><path d="M220.5 220.1l.1-1-1.2.4 1.1.6zm25-12.3v1.2l-.2.2h.2v.7l.7-.7h.6l-.3.5h1.3l.1.1.1-.1 1.7.1-.8-1.9 1.2-1.4h-2.6l.8 1.2-.3.4-.2-.6.1-.2h-.1l-.2-.6-.5.6h-.9l.3.6-.1.1-.9-.2zm-18.5 2.1v2.2l1.5-1.3 1.7 1.2-.2-1.9.6-.6-.9-.4v.9l-1.1.6-1.6-.7zm-1.1-1.7l-1.5.8 1.8 1.2-.3-2zm-2.6 4.1l1.6-1.4-1.6-.7v2.1zm22.6 2.2l-.1-.7.3-.3-.4-.2-.1-.7-.5.4-.6-.3v.8l-.6.5.6.1v.8l.7-.6.7.2zm9.7-2.4l-.5.5v-.1l-1.6 1.4 2 .5-.1-.5.6.1-.4-1.9zm-19.5 4l-.4.3-.4-.9-.6.8.9.2-1 1 1.9.3-.4-1.7zm27.2-1.9l-.2-1.2-1.4 1.1.8.2.2 1.3 1.5-1-.9-.4zm-46.8-5.4l-1.3 1.1 1.6.3-.3-1.4zm-17.3 5.1l-.9.1.6.9.3-1zM216 225l1 .1-.5-.8-.5.7zm3.7-16.1l-.8.9 1.2.1-.4-1zm17.5 5l-1.4.5 1.1.8.3-1.3zm12-3.1l-1.3.5 1.1.8.2-1.3zm-14.7 3.3l.2-1.2.7 1.5.9-1.9h-1.7l.2.4-1.3.5 1 .7zm-4.9 4.5l-.6.9 1.1.2-.5-1.1zm10.8-7l1.2-.2-.8-1.2-.4 1.4zm3.2-2.1l-.3 1.4 1.2-.3-.9-1.1zm1.8-2.9h-2.1l1.2 1.8.9-1.8zm-8.1 3.2l-.8 1.5-.2-.4-.6.9 1.2.2-.2-.4 1.7-.1-1.1-1.7zm5.1 2.5l1.4-.1-1.1-1.6-.7 1.2-1.5-.1 1.2 1.8.7-1.2zm-18.3-.2h2.2l-.9-1.7-1.3 1.7zm-10.8-1.4l2.2-.1-1-1.7-1.2 1.8zm38.8 9.2l.3 1.2.7-.9-1-.3zm12.8-6.4h.1-.6l.5.9.2-.4.3 1.9 1.5-1-1.8-.9.3-.5 1 .3-.3-1.5-1.2 1.2zm-12.7-.8l-.8-1-.2 1.2 1-.2zm9.5-5.8l.7.5.2-.8 1 1.4.7-1.3-1.7-.1-.8.2.1-.1h-1.4l.8 1.1.4-.9zm-34.6 14l.2-.7-.7.3.5.4zm.7-7.2l.1.8.6-.4-.7-.4zm-15.5-3.9l-.4.7h.9l-.5-.7zm4.1-1.6l.6.9.2-.3.7.1-.4 1.3 1.3-.5-.7-.7.4.1-.3-1.5-.4.3.7-1.2-3.1-.1 1 1.6z"/><path d="M242.7 232.1l.3-.6h-.8l.5.6zm13.9-10.5l.3-.6h-.8l.5.6zm-20.5 7l.7-.3-.5-.5-.2.8zm5.7-11.4l.3-1.5-1.2.7.9.8zm5.5-5.6l.2 1.2.8-.7-1-.5zm-8.3-3.2l-.8.9 1.1.1-.3-1zm28.5 5.5l.9-.9-1.2-.1.3 1zm-26.9-1.3l-1.7 1 1.4 1.1.3-2.1zm14.4 4.7l-.7.3-.1-.7-1.6 1.3 2 .5-.1-.5.3.2.2-1.1zm8.6-6.3l1.5-1-1.8-.9.3 1.9zm-45.3-.2l-.9.5 1 .7-.1-1.2zm.7-3.2l-.5 1.2 1.1-.3-.6-.9zm-24 3l-1-.2.3 1.2.7-1zm14.6 5.3l.2-1-1.2.3 1 .7zm-2-6.5l1.3-.5-.9-.9-.4 1.4zm-12.8-.44l1.1-1 .3.3-1.2 1.5.3.1-.6.5 1.6.4-.7-.8 1.3.2.1.8 1.4-.9.3.4-1.5 1 1.7 1 .1-1.3.5.4v.1l-.3.3h.2v.5l-.9.7 1.6.4-.2-1.1.9.4v-.6h.3l-.1.1h.1v.1l.1-.1.2.1-.1.1.1.1v.2l-.4.9.5-.1v.2l.2-.2.5-.1-.1-.2.1-.1.4.3v-.5l.3.1-.1-.3.5.1-.2-.6.2-.1-.2-.1v-.1l1.3.2v.3l.8-.5-.7-.5v.4l-.5-1.5.1-.3.7.2-.3-.7-.3.4.3-1.2.9.2-1.1-2.1-1.1 1.4.7-1.7-2.8-.1v.1h-3.4v.1h-3l.9.9-.9-.4.1 1.7zm5.3 1.64l.2-.1-.3.3.1-.5v.3zm.7-1.2l.1-.4.5.7-.6-.3zm-.8-.8h0l-.1.1-.1-.2.2.1zm-1.1-.5l-.3.1.2-.2.1.1zm-.1 2.5v-.7l-.1.1.1-.4 1 .2.2.2v.2l-1.2.4zm.9 1.4l-.3-.1.4.1h-.1zm2.7-.2h0l.1.2-.1-.2zm.4.1h-.1.1zm.1-3.5l.6.1-.7.3.1-.4zm-.3.5l-.3.1 1.3 1.2-.5.5.2-.7-1.5.7.7.6v.1l-.1.2-.2-.5-.7.6-.4-.3v.4l-.5-1.5v-.1l.3-.2.5.1-.1-.3.3-.2.5.6.5-1.8v.5zm-.5-.8l-.6.1-.5-1 .2-.5.9 1.4zm-4.1-1.4l.1.2-.1-.1.1 1.4-.7.1.6-1.6zm-.9 2.2l.2-.4.9 1.1-1.2-.4-.5-1 .6.7z"/><path d="M231.2 211.4l2.8 1.3V210l-2.8 1.4zM194 216l-.2.6 1-.1-.3-.3 1.6.7v-1.3l.1-.3.1.5 1.2-1-.6-.1.1-.2-.9-.1.1.1h-.1v-.3l-.3.2-.2-.2h.1l-.6-.7.8-.4h.1v-.1l.3-.2-.4-.2v-.1l.5-.1-.2.6h1.1l-.6-1.1-.1.2-.8-1.3-.7 1.4-.4-.5-.3.6h.5v.2l-.1.2h.1v.5l-.4-.6-1 2.1 1.2-.3-.1.6.2-.1-.1.2-.3.2v-.2l-.8.2.2.2-.3.2.5.3zm1-1.1h0l.6-.3-.6.3zm16.6-5.4l-1.8.8 1.7.9.1-1.7zm1.7-1.2l.6 1.4.7-1.4.2.5.8-1.5h-1.5l.3.6h-.8l.6-1.1-3.1-.1 1.8 2.5.4-.9zm7.6-.1v1l.3-.3 1.7.4-.3-1.8-.6.5-.8-.4.6-.9-3.1-.2 1.7 2.5.5-.8zm3.4.2l.9-.3-.4-.5.5-.8-3.1-.2 1.7 2.5.4-.7zm3 .3v.6l.8-.8.2.5.6-.9-1.2-.2.2.6-.5-.3.9-1.5-3.1-.2 1.7 2.5.4-.3zm3.8-1l.7 1.4-.4.5 3.1.1-.6-1.5.8-1.3.9 1.8.1-.1.7 1.3 1.1-1.8.9 1.1 1.1-2.2 1 1.5.9-1.7h-2.1v.1h-2.9l.9 1.1-1.5.1.6-1.3h-1.6l.1-.2-2.2.2.5.8-1.2 1.4.7-1.8h-1.2l.3-.6-3.1-.1 1.8 2.5.6-1.3zm12.5 1.9l-1-2.5-2.1 2.4 3.1.1zm-19.2 7.6l-.3-.5-.1-.2-.1.1-.5-.2.2-.2-1.6-.7.1 2.1.9-.9.1.6.4-.3-.1.2h1zm-3.3-6.3l.1.5 1-.7-.8-.5-.1-.2-.1.1-.2-.1.1.5-.3.4h.3zm-6 7.4l.4-.4 1.1.8.1-.6.1.1.3-1-.9.1.1.2-.7.2.7-.7-1.4-.6.2 1.9zm-12.8.4l-.5-.2.1-.5-.6.3h-.1l.2 1.2.9-.8zm-8.2-1.4l-.6.2.4.4.2-.6zm10.1-4.1l1-.1-.4-.8-.6.9zm-5.5 6.9l-.9.1.6.9.3-1zm-1.6-6.7h1.2l-.5-1-.7 1zm-2.4 6.6l1-.3-.8-.6-.1.5-.5-.7-.6.9 1 .1v.1zm12.2-11.7l-1.5.7 1.1.9.4-1.6zm.9 1.1l.2 1.4-.2.4 1.2-.2-.4-.5.8-.6-1.6-.5zm-1.4-1.7l1.2 1 .5-2.1.6.8-.2-.1.1.6.3-.2.9 1.3.5-.9.1 1 1.2-1.2-1-.4.5-.9-3.1-.1.1.1-1.3.6.5-.6-2.2.1.9 1.8.4-.8zm49.4 3.3l1.2-.2-.9-1.1-.3 1.3zm7.3 1.6l.5-.4.8.3v-.8l-.5.2-1-.6.2 1.3zm-8.3-3.2l-.4-1-.8.9 1.2.1z"/><path d="M250.6 209.2l.4-.9h.2l.6 1 .9-1.5.6.7-2.5 1.4 2.8 1.3v-2.3l.1.2 1.1-2.2.7 1-.3.2.6.1.1.2.1-.1h.2l-.2.1.9.1h.2l2 .1-.6-1.4.8 1.1.1-.2.8-.2.1 2.6 2.4-1.2-2.3-1.7v-.7l-.9 1 .7-1.2-2-.1v-.1l-.1.1-1 .1.3.6-.4.3-.1-.8.1-.2h-5.2l.7.9-.6.1-.1-.8-.7.6h-1.3l.8 1.8zm-55.3 14.3l.8.3-.2-.8-.6.5z"/><path d="M194.4 221.2v.9l.9-.5-.9-.4zm3.9-5.3l-1.3.1.8.9.5-1zm5.4-.7l-.4.5-.7.3-.2-.1v.9l1.9.2-.6-1.8zm-3.8 4.5v.8l.9-.5-.9-.3.8-1.4-.9-.1.3-.5.7-.2-1.1-1.4.7-.3-1.8-.8-.4-.5-.3.7h.5v1.6l1.1-.6-.8 1.8.7-.2.2.3h-.3l.7 1.6h-.1zm7.5-3.3l.9-.7-.9-.5v1.2l-.9-.7-.2 1.4 1.3-.6-.2-.1zm-6.5 3.7l-.8.6 1.1.5-.3-1.1zm8.9 4l.7-.9h-1.2l.5.9zm-8.3 1.8l-.5.9 1-.1-.5-.8zm-1.3.5l-.7.2.6.6.1-.8zm1.6 5.9l.7-.5-.8-.3.1.8zm-5.9-14l.5-.9.2.7.8-.8-1.2-.4.1.4h-.8l.4 1zm4.8-3l.9.5.1-1h.2l.1.3.2-.3h.2l-.1-.2.5-.8-1.2-.1.1.3-.2.1-.9-.3.1.6-.7.3.7.6zm3.1 9.6l.5.9.5-.8-1-.1zm1.2-6.2l-.1-.8-.5.3.3-.6-.6.2.3.4-.1.1.7.4zm1.7-.8v.9l.9-.5-.9-.4zm-9.2 7.7l1.2-.2-.6-.9-.6 1.1zm22-6.5l-1.2-.5.3 1.2.9-.7zm-14.2-1.6l-.3 1.5 1.3-.7-1-.8zm-5.4 5.6l-.2-1.1-.4.3.2-.6-.9.1.5.7-.2.2 1 .4zm12.6-.9l-.2-1.1-.8.6 1 .5zm11.5.6l.7-1-1.2.1.5.9zm-15.6 7.3v.8l.8-.5-.8-.3zm20.4-5.2l1-.2-.5-.7-.5.9zm-4.8 1.8v-.8l-.7.3.7.5zm6.2 3.6l.7-.5-.8-.2.1.7zm-24.6-14.1l.4-2.6.2-.5-.6.1.2.3-2 .7.1-.2-.9.1.2.3-.3.1 2.7 1.7zm3.5 4.6l1-.4-.9-.5-.1.9zm-.6-3.1l.9-.8-1.2-.2.1.2-.3-.8-.8 1h1.2l.1.3-.8.4.9.7v-.8h-.1zm-6.7-.6l-.9.1.6.9.3-1zm5.2 5.9l-.1.9.9-.4-.8-.5zm-1.2 3.7l1.3-.6-1-.8-.3 1.4zm-6.2 3.6l1.1.5-.2-1.2-.9.7zm9.8 3.4l.8-.9H209l.4.9zm3.4-7.5l.8-.9h-1.2l.4.9zm-2.9-12.7l.8-.9h-1.2l.4.9zm-2 .7l.8-.9h-1.2l.4.9zm-13 12.7l.8-.9h-1.2l.4.9zm10.8-6.1l-.8.9 1.2.1-.4-1zm-1.2 6.8l-.1.9 1-.3-.9-.6zm14.3-3.7h-.6l.6.8.3-.6.3.2.2-1-1.2.4.4.2zm-7.5-.2l1.4-1-1.3-.7-.1 1.7zm-8.6-1.8l1.4-1-1.3-.7-.1 1.7zm-6 1.4l1.4-1-1.3-.7-.1 1.7zm35.1-10.9H230l.9 1.9.9-1.9zm4.6 8.4l.9-.8.4.2v-.6l.2-.2-1.6-.7.1 2.1zm-10.5-5.6l-.2-.1.1 2.1 1.5-1.4-.5-.2.2-.2-1.1-.2zm18.7 2.3l-1.6 1.3 1.9.5-.3-1.8zm5.9-5.4l-1.6 1.4 1.9.5-.3-1.9zm-15.3 8.7l-1.5 1.5 1.9.3-.4-1.8zm-6-.3l2 .3-.4-1.8-1.6 1.5zm31.7-1.7l1.7.4-.3-1.5-1.4 1.1zm-43.2-5.2l.7-.2-.6-.8-.3.8-.1-.1-.3-1.4-.4.3-.2-1.4-1.5.9 1.3.8-.5.4.6.1-.3.3h.2l-.3.8.5-.2v.1l1.2-.4zm-3.8 1.4l-.7.2.2.2-1.4.9 1.6.6-.2-1.3.1.2.4-.8zm8.3-1.5l-.7-.3-.1-.7-.5.5-.2-.1v.1l-1-.5.1 1.7.3-.3.7.1.1.9.7-.7.2.1v-.2l.4-.6zm-2.6 5.5l1.5-1.4-1.6-.7.1 2.1zm.4-4.2v.3l-.2-.1.1.7v.4l.3 1 .9-.9-.8-.1.8-.5-.2-.1.2-.1-1.1-.6zm-.1 1.4h0zm-1.5-2.2l-.8.9 1.2.1-.4-1zm-7.5 3.6h-1l.6 1 .4-1zm-1.4 19l.2-.8-.9.2.7.6zm-4.1-3.2l-.1.8.6-.5-.5-.3zm.3 6.6l.7.2-.2-.7-.5.5zm-6.9-20.9l-.3.9 1.1-.2-.8-.7zm48.6-.3l1.4.2-.3-1.3-1.1 1.1zm-5.9-.9h-1l.5 1.1.5-1.1z"/><path d="M245.9 226.8l1.2-.3-.9-.8-.3 1.1zm-11.1-7.8l1.2.8.2-1.2-1.4.4zm13.6-3.7l-1.3.5 1.1.8.2-1.3zm-14.7 2.2l-1.3.5 1.1.8.2-1.3zm-7.7-3l.9-.8-.9-.4v1.2zm3.5-.4l-.9-.4.1 1.2.8-.8zm-.8 8.7l-.6.9 1.2.1-.6-1zm11.5 7.7l1.2-.3-.9-1.1-.3 1.4zm1.1-9.6l-1.3.6.7.7-.3.2 1 .5v-1.1l-.6.3.5-1.2zm-8 7.9l.7-.9-1-.3.3 1.2zm6.6-13.9l-.3 1.4 1.2-.2-.9-1.2zm2.9-.6l-.3 1.4 1.2-.2-.9-1.2zm8.6 11.4l.7-.9-1-.2.3 1.1zm4.4-13.7l.5.9.7-1-1.2.1zm-8.9 2.6l.7-1-1.2.1.5.9zm-10 10.5l.7-.2-.6-.7-.1.9zm-4.4-1.1l.4-.6-.6-.2.2.8zm-9.8-3.1l-.4.7.9.1-.5-.8zm3.2 4.5l.2-.8-.7.3.5.5zm1.4-6.7l-.7-.4.1.8.6-.4zm-17.6 7.6l-.5.7.9.1-.4-.8zm5.7 2.1l-.5.7.7.1.3.3.2-.8-.5.2-.2-.5zm1.3-5.3l.6-.3-.6-.4v.7zm-7.2-6.5l-.4-.8-.5.7.9.1zm2.3 3.9l.3-.7-.7.2.4.5zm3.3-8.5v.8l.6-.4-.6-.4zm-7.9-.3l.1.6.5-.2-.6-.4zm13.3 25.5l.7-.6-.8-.2.1.8zM208.4 223l.7-.6-.8-.2.1.8zm1.5-8l.7-.6-.8-.2.1.8zm18.4 19.1l.7.1-.3-.8-.4.7zM208.7 219l.7.1-.3-.8-.4.7zm14.8 10.1l.2-.6-.7.1.5.5zm16.9 7.9l.3-.6h-.7l.4.6zm2.6-12.6l.3-.6h-.7l.4.6zm14.6 3.8l.3-.6h-.7l.4.6zm2.2-4.4l.3-.6h-.7l.4.6zm-24.8 9.1l.7-.3-.5-.5-.2.8zm27.3-16.6l-1-.5.1 1.1.9-.6zm-10.1-2.9h1.2l-.3-1-.9 1zm-5.7 3.5l.1 1h-1.2l.6 1.3.5-1.3v.1l.8-.6-.8-.5zm-8.2-3.3l-.5.6-.4-.2.1 2.2 1.5-1.4-.4-.2-.3-1zm28.3 5.1l.9-.8-1.1-.1.2.9zm1.2-3.1l.9-.8-1.2-.2.3 1zm-.4-4l.8.6.2-.8-1 .2zm-.2-1.7l.2-.9-1 .3.8.6zm-9.4 5.6l-.2.1v-.1l-.2.2-.9.5.9.8.1-.6h.2l-.1-.5.2-.4zm-9.6 9.4l.4-2.1-1.7 1 1.3 1.1zm11.4-10.9l.4-2.1-1.7 1 1.3 1.1zm-8.3 3l.4-2.1-1.7 1 1.3 1.1zm2.8 4.9l-1 .5.3.3.2.9.9-.8-.6-.3.2-.6zm-2.5-1.3l-1 .5.2.2-.5.3.8.6.1-.7.2.2.2-1.1zm13.2-2.4l-1.2.1.5.9.3-.3.3 2 1.5-1-1.8-1 .4-.7zm-1.3 3.4l.8.1-.3-.7-.5.6zm-16.1 7.3l.3-1.6-1.4.8 1.1.8zm-4.4-8.5h1.3l-.5-1.2-.8 1.2zm-24.4-4.4l-.5 1.4 1.3-.5-.8-.9zm-8.9 6.2v-.1l.2.1v-.7l.1-.3v-.2l-.5.2h-.3l.1.1-.2.1.5.4.1.4zm10.8 2.8l.9-.8-1.1-.2.2 1zm2.1-11.5l1.3-.5-.8-.9-.5 1.4zm-5.5 2.3l-.9.6 1 .7-.1-1.3zm7.7 4.3l.2 1 .9-.9-1.1-.1zm-1.9-1.8l-1 1 1.1.5-.1-1.5zm4.2-4.5l.6-.9-1.2-.2.6 1.1zm-8.1 7.8l.9-.8-1.1-.2.2 1zm-10.7-2.6l-1.2.3.9.8.3-1.1zm-4.3 5.6l-.3-.9-.6.7.9.2zm1.3-4l-.1-.2.4.1-.3-.7.3-.2-1.1-.6.1.9-.4.6 1.1.1zm5.6 0l.2 1 1-.7-1.2-.3zm13.4-6.4l-.2.5-.1-1.3-1 1 1 .4-.3.7 1.3-.4-.7-.9zm9.1 2.6l1.3-.5-.8-.9-.5 1.4zm-15.3 2v-1.3l-.9.5.9.8zm7.6 4.5l.9-.8-1.1-.2.2 1zm38.9 2.9l.6-.7-.8-.2.2.9zm-31.5-8.9v-2.8l-1.3.6-.2-.8-1.5 1.5h.1l2.9 1.5zm37.5-10.8h-3.1l.1.1h-3l1.6 2h-.6l.1.2h-.5l-.2-.9-.7.9.9.2.3.7.4-.5.1.3.5-.6.2-.3h-.1l1-2 1.5 1.9h-.6l.1.2h-.5l-.2-1-.7 1 .9.2.3.7.4-.6.1.3.5-.6v-.1l.2-.3h-.1l1.1-1.8zm-67.1 19.8v-.2l-.7.2.3.3-.7.6 1.4.3-.3-1.2zm-4.6-1.3l.6 1 .5-1h-1.1zm2.1 9.9l1.2-.3-.9-.7-.3 1zm-3.8-15.9l.3-.1-1.2-1-.5 1.8.2-.1.5 1.3 1.5-1.5-.8-.4zm-.9.4l.6-.2.2.5-.8-.3z"/></g><g fill="#eaeaea"><path d="M150.2 341.7l1.1-.5-.8-.7-.3 1.2zm-9.4 5.3l1.7.5-.6-1.6-1.1 1.1zm16.8-19.3l.2-2.1-1.7.5 1.5 1.6zM144 332l2.1-.6-1.7-1.1-.4 1.7zm4.2-3.3l-.4 1.6-1.6.6 1.6 1.5v-2l2.1-.5-1.7-1.2zm-2.4 4.1l-1.6.8 1.7 1.3-.1-2.1zm-4.1-.5l.2 2.1 1.5-1.3-1.7-.8zm19.6-10.1l1.7-1-1.5-1.1-.2 2.1zm7.6-7.9l-.2 2.1 1.7-1-1.5-1.1zm-12.2 14.3l-.2 2.1 1.7-1-1.5-1.1zm-4.4 1.7l-.1 2.2 1.6-1.1-1.5-1.1zm21.1-28.4l-.5-.8-1.4 2.1h.1l-.1 1.6 1.4-1-1.1-.6 1.7-.1v.2l.2-.2h.2l-.1-.2.9-.8-1.4-.5.1.3zm2.2 8.6l1.4-.9-1.3-.8-.1 1.7zm-34.7 29.1l.4-.5 1-.3-.5-.3.2-.2-1.5-.3.4 1.6zm5-4.2l-1.5.8 1.8 1.2-.3-2zm6.6 12.4l.7-.7-1-.1.3.8zm-8.3-13.4l-1.3.6 1.3.6v-1.2zm-3.7 1.5l.2 1.2.8-.9-1-.3zm.9 6.1l1.2-.1-.8-.8-.4.9zm14.6-15.8l-.7 1.3 1.4-.1-.7-1.2zm7-9.5l-.6 1.2h-.2l1 .8.1-.9.4-.1-.7-1zm-8.9 11.6l-.7-1.1-.7 1.3 1.4-.2zm-8.2 1.9V329l-.6.2-.2-.7.4.1-.3-1-.3.3-.3-.8-2.2 2.3 2.8.2.7.6z"/><path d="M147.1 327.7l.9.8v-1.2l-.4.2-.5-1.6 1.9.8v.6l1.6-1.3-.9 2.4 2.9-.9-1.6-1.8.4-.3-2-.9-.2-1.2 1.4.6.4.2 1.4.5-.3-2.1 1.4.2-.7-2.6-2.3 2.1 1.4.2-1.1 1.2-.5-1.5-1.2 1.1v-.2l-1.5 1.6 1.3.5v1.6l-.7-1.8-1.3 1.2-.2-.7-2.3 2.1 2.6.4.1-.2zm6.6 8.2l.9-.7-1.1-.4.2 1.1zm2.5-14.8l.7 1.3.7-1-1.4-.3zm-1.5-2.6l-1.6 1.4 2.1.6-.5-2zm2.7-2.3l-1.6 1.4 2.1.5-.5-1.9zm-1.8 7.7l-1.9-.5.3 1.6-.8-.3.1 1 .7-.4v.2l1.6-1.6zm2.8-1.8l1.4-1.6-1.9-.5.5 2.1zm-10.9 10.4l-1.9-.4.6 2.1 1.3-1.7zm26-11.2l1.1.6-.2-1.2-.9.6zm3.6-14.4h1.1l-.5-1.1-.6 1.1zm-11.8 9.3l.7 1 .5-.8-1.2-.2zm4.2-10.6l.8-.2-.5-.7 1.7.2-.5-1.4-1.2 1.3-.3.8-.1-.2-.9 1 1.3.1-.3-.9zM148.3 337l.1.4-.1.1.2.1.1.3.2-.1.7.3V337l-.5.2-.7-.2zm5 .2l-.3.7h.6l-.3-.7zm-3.4-5l-.7.2.6.5.1-.7zm-10.1 9.5l.5.6.3-.8-.8.2zm5.2-1.4l-.6-.5v.7l.6-.2zm28.1-3.8l.7.2-.2-.7-.5.5zm-6.7 1.6l.2-.7h-.6l.4.7zm-5.6-12.3h1.2l-.7-1.3-.5 1.3zm-6.7-4.6v1.2l.9-.7-.9-.5zm24.3-17.1l1 .3-.3-1.2-.7.9zm-2.1-2.6l1 .2-.3-1.2-.7 1zm1.3-3l.4-.8h-.5l-.8-1.3 1.6-.1.4.7.7-1.9-1.5.1-.3-.5-1 1.6-.2-.3-1.4 2.1 2.1-.3.5.7zm-6.2 12.2l-.7-.3.6-1h-1.4l.7 1 .1.4-.6-.1.7 2 1.3-1.7-.7-.1v-.2zm-14.3 14.1l1.7-.1-1.2-1.8-.5 1.9zm16.2-6.3l1-.1-.7-1-.3 1.1zm-2.8 1.1l-.7-1-.3 1.1h.2l-.2.6 1-.1-.4-.6h.4zm12.6-21.4l.6-1-1-.2.4 1.2zm-2-.6l.7-1.2-1.2-.2.5 1.4zm-.9-5.3l-1.1-.2.4 1.4.7-1.2zm5.1 3.1l.2-1.2-1 .6.8.6z"/><path d="M183.8 293.9l.2-1.2-1 .6.8.6zm-2.7-.6l-.5.3.8.6.1-.7.3.2.2-1.2-1 .6.1.2zm-3 13.4l1.8.8v-1.8l-1.8 1zm.2-13.9l-.9 1.8 2-.4-1.1-1.4zm.2 8.2l1.9.7-.1-1.8-1.8 1.1zm6.9-22.4l-1.4-.6.6 1.5.8-.9zm-1.6 1.6l-.9 1.4 1.8.2-.9-1.6zm-4.9 17.7l-1.8 1 1.9.7-.1-1.7zm-5.3 8.7l.2-1.8-1.9.8 1.7 1zm-30.8 25.7l.1-.3h.7l-.5-1v-.1h-.1l-.6-1.4-2 2.5h2.1l.3.3zm7.3 1.5l-.8.8 1 .4-.2-1.2zm-2 2.5l-.3-.8-.1-.3-.1.2-1-.6.2 1.4.5-.3-.2.3 1 .1zm33.3-48.5l-.6.8.9.1-.3-.9zm-42 56.5l1.1-1v.1l1-.7-1.1-.3.1.4-1.2-.5.1 2zm-1.2-4.1l1.7-.1.9 1.5.9-2-1.9.1-.8-.7.6-.1-1.2-1.3-.6 1.4h.6l-.4.9-1.3-1.5-1.2 2.9 3-.8-.3-.3zm-3.5 5.8v3.1l2.4-1.9-2.4-1.2z"/><path d="M139.3 336.5h.1l.2-.4.2-.2.4.3v-1.3h1l.2.2v-.2h.2l-.2-.5-.1-1.1-.3.2-.5-1.1-2 2.5h1.5l-.9.4-.6-.1v.2l-.2-.3-1.5 2.7 3-.5-.5-.8zm18.3-17.5l.6 1.1.7-1-1.2-.2.1-.1-2.5-1.1.2 3.1 2.1-1.8zm-20.4 24l1 .3-.6-1.6-.8.8-.9-1-1.2 2.9 3-.8-.5-.6zm.4 4l-.5-3-2.3 1.5 2.8 1.5zm2.4-1.6l-.7.5-.6-1.4-1.1 1.1 1.5.4-1.4.9.1.1-1.3 2.1 3.1.3-1.3-2.1 2.2 1.2-.5-3.1zm40-53.3l2.7-1.5-2.2-1.6-.5 3.1zm2.8-7l-1.4 1.9h2.3l-.3-.6 1.3-.3-1-1 .2-1.2-1.8.6 1.1.8-.2.5-.2-.7zm.2 4.6h-.6l.4.8.5-.6 1.7-.9-1.7-1.3-.3 2zm-40.3 46.5l.6-.8-.9-.2.3 1zm3.7 7.5l-.6-.8-.3.6v-.1l-1.3.7 1.5.9-.1-1.4.8.1zm23.3-31.9l-1.5-.1.8 1.2.7-1.1zm2.8 2.8l-.4 1.4 1.2-.1-.8-1.3zm1.6-5.9l.1-1-1.1.4 1 .6zm-9 4.6l.9-.8-1-.4.1 1.2zm-4 3.8l.3.1-.1-.3 1.2-1-1.5-.6v-1.1l.7.2-.1.6.7-.4.3.1-.1-.2 1.1.3-.3-1.5.9.1-.8 2.5 2.9-1-1.8-1.9-.7-2.2 1.4.3v.4l.5-.3h.2v-.1l.6-.4v.7l2.3-2.2-1.4-.6v-.2l1.5.2-.2-.6.5-.8 2 1.6.7-2.6-2.8.6-.5-.5.2 1.5-.4-1.2-1.4 1.5h-.1v1.8l-1-.8-.1-.2-1.6 1.6-2.3 2.2h.3l-.8.8v-.4l-2 1.6 1 .3v.5l-.6-.2-.1-.2-.1.1-.6-.2v.8l-.6.6.7.2v.1l-.8.3.9.8v.3l.2-.1.5.5.1-1 .5-.4v.6l.6-.6zm6.2-8.7h0-.4.4zm-4.6 5l-.5-.3.7.1-.2.2zm12.4-15.1l-2.1 2.5h3.2l-1.1-2.5zm-24.6 41.2l-1 .8 1.2.3-.2-1.1zm-6.4.1h0l.2-.5h-.9l.1.3-1.4-.4.1 1.7 1.4-.9.1.2.4-.4zm3.8 7.2l1-.2-.8-.7-.2.9zm-1.2-8.4l-1.2.4 1 1 .2-1.4zm-.4 8.5l1-.6-1.1-.4.1 1zm7.1-6.5l1 .2-.4-1.2-.6 1zm4.8 0l.5-.8-.8-.1.3.9zm-2.6 4.2h.8l-.5-.6-.3.6zm7.1-1.2l.2-.8-.7.4.5.4zm-9.8 1.9h1l-.4-.8-.6.8zm37.7-88.2l-.2-1.8-1.3 1.3 1.5.5zm5.9-1.5l.6-.1-.7-1.2-.6 1-1-.3.8 2.1 1.3-1.4-.4-.1zm-5.1.2l1.3-1.3.3.8.3-.4 1.3.4-.2-1.8-1 1-.8-.2.1.2-2-.7.7 2zm-.6 17.6l1.3-1.4-2.1-.6.8 2zm.4-7.3v2.2l1.7-1.4-1.7-.8zm-1.8 5l1.7-1.4-1.7-.8v2.2zm5.2-8.7l-.2-1.8-.4.4-.5-.9-.4 1h.8l-.8.8 1.5.5zm1.2-8.9l-.2-1.8-1.3 1.3 1.5.5zm-1.4 20.8l.8.7.4-1.5-1.2.2v-.2l-.3.3h-.1l-1 .9 1.5.5-.1-.9zm-1.5-9.8v-1.3l-1 .9 1 .4zm0-7.6l-.1.9 1-.3-.9-.6zm6.9 6l-.9.1.5.9.4-1zm4-1.8l.4-1-1.2.1.8.9zm-6.5-1.9l-.6.9.9.1-.3-1zm5.5-5.1l.9-.6-1-.4.1 1zm2.8 20.3l.4-1-1.3.1.9.9zm-6.6-1.9l-.6.8.9.1-.3-.9zm5.4-6l.1.9.9-.5-1-.4zm-1.5 21.2l.4-1-1.2.1.8.9zm-7.2-1l.9.1-.3-1-.6.9zm6-6.9l.1.9.9-.6-1-.3zm-1.3 4.5l.5-1h-1.3l.8 1zm-7.1-1l.9.1-.3-1-.6.9zm6-7l.1.9.9-.6-1-.3zm-3.5-3.4l-.7-2.2-.8 1.1-.2-.3-.7 1h.5l-.1.1 2 .3zm2.4-4.2l.1.9.9-.6-1-.3zm-8.4 9.1l.6-.7-.9-.2.5-.3.1.1.1-.2.3-.2-.2-.1.6-1.6-1.8.3.7 1.2-.3-.1.1.9h-.1l.3.9zm-1.4-8.5l.1-1-.3.2v-.4l-1 .3.5.4-.1.1.8.4zm-2.9 5.7l1.2-.1-.6-1.2-.6 1.3zm6.7-10.3l.3 1.2 1.1-.9-1.4-.3zm3.7-1.4l-.7 1.1 1.3-.1-.6-1zm-4.4 6.2l.6-.7-1-.3.4 1zm-1.4-8.5l.1-1-.9.6.8.4zm-.7 4l2.4-.4-1.5-2.4-.9 2.8zm.7 7.6l-2.3-.7.1-.1-1.7-.5 3.1-.8-3.3-2.6-.6 3.6.5-.1.7 1.9.9-1.1.8 2-.7.5.8.4v-.7l1.7-1.8zm.7 8.8l.8-2-1.8.2 1 1.8zm8.7-25.4l-1.3.1.9.9.4-1zm-1.6-1.6l-.8-.6-.2 1 1-.4z"/><path d="M201.6 257l-.6.9.9.1-.3-1zm-16.8 17.3l-1.1 3.4 4-.4-2.9-3zm1.9-10.9l-.6 3.6 1.4-.3-.8.8 1.5.5-.2-1.4 1.9-.5-1.2 1.2 1.5.5-.2-1.8-.1.1-2-1.6.9-1-2-.6 1.6-.3-.6.6 1.5.5-.1-1.3 1.2-.3-1.5-1.3 1.1-1.2-1.7-.5 2-.6.3.8 1.3-1.4-2-.7.1.3-2.4-1.7-.4 3.6.8-.2.5 1.4-1.3-1.1-.7 3.6h.2l.3.9-.3-.6zm1.5-9.1l.6 1.8 1.3-1.4-1.6-.6 3.2-.9-.5-.3 1.2-1.4-.3-.1 1.1-1.3-.5-.1.5-.5-2-.7.3.8-.6-.2.1-.1-1.7-.6 3.1-.7-3.2-2.7-.6 3.6.5-.1.7 1.9.4-.5.3.2.1-.7.1-.1.6 1.5-.8-.3.7 2.1-1.7-1.2-.2-.5v-.9l-.9.6-.1-.1v.2l-.4 3.3h.3zm-.4 24.4l-1.6 1.5 1.8.6-.2-2.1zm8.1-11.3l-.3.5-.1-.2-.5.8 1-.1-.1-.2h.6l-.6-.8zm2.2-2.7l-1 1.4 1.8-.1-.8-1.3zm-1.9 5.5l-.1.2-.5.7.7-.1.2.5.7-.7-.8-.3-.2-.3zm-1.8 7.3l-.1-.2-.1.1-.5-.1.5-.2-.9-.7-.2 1.2.7-.3.2.5-.3.6.5-.1.3 1 1.3-1.4-1.4-.4zm2.3.1l.1-.9-.7.5.6.4zm-11.1 18.5l1.1-.2-.7-1-.4 1.2zm5.2-4.8l1 .4-.2-1-.8.6zm-4.3-5.3v-1.2l-1.2.5.7.4-1.2 1.7 1.9.3-.6-2 .4.3zm4.5-3.2h-.8l-.7-.2.3 1 .3-.3.4.5.5-1zm-6.6.1l-.3-1-.6.9.9.1zm.8-.3l2.1-.6-1.3-1.3-.8 1.9zm2.3 5.8l.8-.5-.8-.3v.8zm14.3-23.6l-.8 1.1h1.5l-.7-1.1zm-6.1-4.1l-1 .6.9.6.1-1.2zm-1.7-26.5l-.2-1.8-1.3 1.3 1.5.5z"/><path d="M192.2 238l1.3-1.4-2-.7 2.3-.7.3 1 1.3-1.4-2-.7.1.2-2.4-1.8-.4 3.6.9-.2.6 2.1zm0-4.8l1.3-1.4-2.1-.7.8 2.1zm3.9-1.7l-2.1-.7.7 2.1 1.4-1.4zm-4.6-2.9l-.2 2.2 1.7-.8-1.5-1.4zm3.7 20.8l-2.1-.7.8 2.1 1.3-1.4zm-.9-5.8v2.1l1.7-1.4-1.7-.7zm-1.7 4.9l1.7-1.4-1.7-.8v2.2zm5-8.6l-.2-1.8-1.3 1.3 1.5.5zm-2.3 1.3l1 .4v-1.2l-1 .8zm1-7.2l-.1.9 1-.3-.9-.6zm6.5 7l.4-1-.9.1.5.9zm3.6-3.8l.8.9.4-1-1.2.1zm-5.7-.9l-.6.9.9.1-.3-1zm5.4-6l.1.9.9-.5-1-.4zm1.7 20.7l.8.9.4-1-1.2.1zm-5.7-.9l-.6.9.9.1-.3-1zm5.4-6.1l.1.9.9-.5-1-.4zm-5.3 2.6l-1-.3.1.9.9-.6zm-4.9 2.4l-.7 1h.4l-.1.2 2 .3-.7-2.2-.7 1-.2-.3zm-5.7-2.2l.1-1-.3.2.1-.4-1 .2.5.4-.1.1.7.5zm7.1 4.3l-1.6.3 1.3 1.2.3-1.5zm-2.9-7.7l1.1-.9-1.4-.3.3 1.2zm-4.9 18.7l.1-.1.1.3 1.6-1.9-2.7-.8.6 1.4-.1-.1.4 1.2zm9-20.8l-.6-.9-.7 1.1 1.3-.2zm-4.4 4.6l-1-.3.3 1 .7-.7zm-1.9-7.8l.1-1-.9.6.8.4z"/><path d="M192.7 242.4l2.4-.3-1.4-2.4-1 2.7zm3.5-5l-2.7-.8 1.1 2.7 1.6-1.9zm6.7-4.3l-1.3.1.9.9.4-1zm-2.4-2.2l-.2 1 .9-.4-.7-.6zm4.5 3.2l-.6.8.9.1-.3-.9zm-8.6 4h.9l-.5-.9-.4.9zm-7.1 6.3l1.4-.3-.8.8 1.6.5-.2-1.4 1.9-.5-1.2 1.2 1.5.5-.2-1.8-.1.1-2-1.6.8-.9.4.1-.1-1.4 1.4-.3-3.2-2.6-.7 3.5 1.8-.4-.8.7-.9-.3.4 1-.4-.3-.6 3.4zm9.6.6l-.3.5-.1-.2-.5.8 1-.1-.2-.2h.6l-.5-.8zm2.3-2.7l-1 1.4 1.8-.1-.8-1.3zm3.6.1l-.8 1.1h1.5l-.7-1.1zm-5.3 5.7l-.2-.3-.1.2-.5.6h.7l.2.5.7-.7-.8-.3zm-.8-9.8l-1 .6.9.6.1-1.2z"/></g></svg>