<svg xmlns="http://www.w3.org/2000/svg" viewBox="0 0 480 480" xmlns:v="https://vecta.io/nano"><path d="M141.1 386.8l24.9-49.4c6.9-14 11.9-23.1 16.6-30.6s8.6-14.8 8.6-14.8l37.6 4.4 1.5 6.4-69.6 103.3-19.6-19.3z" fill="#eb9c79"/><linearGradient id="A" gradientUnits="userSpaceOnUse" x1="186.526" y1="343.87" x2="233.106" y2="319.193"><stop offset="0" stop-color="#bc5a32" stop-opacity="0"/><stop offset=".99" stop-color="#bc5a32"/></linearGradient><path d="M230.3 302.7l-61.5 91.1s-5.5-59.9 13.8-87.1c7.3-10.2 43.9-11 47.7-4z" fill="url(#A)"/><path d="M135.7 395.4l7.2-12.8 22.3 18-4.1 6.5c-.8 1.6-4.5 6.5-4.5 6.5s-9.9-.2-14.7-5.3c-4.7-5.1-7.9-9.9-6.2-12.9z" fill="#fff"/><g fill="#ffbca4"><path d="M170.4 356.9l1-.6-.9-.6-.1 1.2zm-3.5 1.8l-1.1 1 1.6.6-.5-1.6zm-8.8 10.6l-1.1 1 1.6.6-.5-1.6zm16.5-31.3l-1.4 1.1 1.9.9-.5-2zm-10.9 10.7l1.8-1.1-2-.6.2 1.7zm3.1-3.1l-1.3 1.1 2 .8-.6-1.8 1.7-1.1-2-.5.2 1.5zm-1.2 3.4l-1.3 1.2 2 .8-.7-2zm-4.2.5l.2.7-1 .9 1.6.6-.1-.4 1-1.3-1.7-.5zm14.7-16.2l1.3-1.4-1.7-.5.4 1.9zm-1 9.9l1.2-1.5-1.8-.5.6 2zm-3.5 3l1.2-1.5-1.7-.5.5 2zm8.9-32.3l.2-.4.2-.1-.1-.1.5-.9-1.3-.1-.3-.5-1.1 2.3 1.8-.4.1.2zm4.8 4.8l-1.4-.3.4 1.6 1-1.3zm-5.8-3l1-1.3-1.4-.3.4 1.6zm-19.8 39.9l.4 1.6 1-1.3-1.4-.3zm6.2-3.8l-1.3 1.1 2 .8-.7-1.9z"/><path d="M173.7 362.3l.6-.8-1 .1.4.7zm-11.6-9.3l-1-.1.4 1.1.6-1zm-1.4 6.6l1.2-.2-.9-.8-.3 1zm12.4-20.4l-.2 1.4 1.2-.6-1-.8zm2.6-10.2l1.2-.6-1-.8-.2 1.4zm-4.9 11.8l-.2 1.4 1.2-.6-1-.8zm-5.3 2.7l1.1.5-.4-1.1-.3.3-1.5-2.1-1.4 2.7 2.7-.5-.2.2zm8.2 4.5l.5.9.7-.9h-1.2zm-1-13.9l-1.4.2 1.1 1 .3-1.2zm-2.2-5l-1.1 1.8 2.1-.2-1-1.6zm.4 9.9l.8-1.9-2 .2.9 1.3h-.8l.5.9.5-.7.1.2zm3.5-6.4l-2 .2 1.1 1.8.9-2zm-7.3 15.6l-1.9.2 1.1 1.8.8-2zm-9 14.6l-1.9.2 1.1 1.8.8-2zm1.7-2.8l-1.9.2 1.1 1.7.8-1.9zm25.7-31.4l1.2.2-.6-1-.6.8zm-.3-13l-.3 1.1 1.1-.2-.8-.9zm-6.4 10.3l-1.1.3 1 .7.1-1zm-2.9-7.5l-.4 1.1 1.1-.1-.7-1zm1.2-.3l1.3-.3-.6-.9.7-.4-.7-.5 1.6-.3-.9-1.2-.8 1.5-.1.7-.6-.8-1 1.9 1.1-.2v.5zm-2.4 32.7l-.5-.5v.7l.5-.2zm-5.9-3.7l.7.3-.1-.7-.6.4zM156 365.2l.4.7.4-.8-.8.1zm4.7-1.5l-.1.7.6-.2-.5-.5zm30.5-21.3l-.3.7.8-.1-.5-.6zm-5.8 4.5v-.7l-.6.2.6.5zm-8.3-11.1v1.4l1.2-.4-1.2-1zm0-6l-.2-1-1 .7 1.2.3zm-7.7 5.3l.4 1.1.6-1-1-.1zm16.4-23l-.3 1.1 1-.1-.7-1zm-3.2-.6l1-.1-.7-1-.1.3-1.4-1.9-1.4 2.8 2.7-.7-.1.6zm.8 16.5l-.5-.4.3-.1-1-.7.1 1.1.2-.1.1.6.8-.4z"/><path d="M173.4 337.5l1.5-.7-1.6-1.3.1 2zm12-11.7l-.5-.4.2-.1-1.2-.9.1 1.3.4-.2v.7l1-.4zm.6-10.2h2l-.7-1.6-1.3 1.6zm-5.9.8l1.9.4-.3-1.7-1.6 1.3zm-17.7 39.5l1-.6-1.1-.4.1 1zm7.4-7.1l-.6.9 1 .2-.4-1.1zm-1.5 2.4l-1.4-.5.5 1.3.9-.8zm-7.8 2.6l.2-1.1-1 .2.8.9zm3.8 7.1l1 .1-.4-1.1-.6 1zm-8.9 4.8v2l1.5-1.2-1.5-.8zm-1.7-3.6l-1.4 2.7 3-.5-1.6-2.2zm6.1-12.1l-1.4 2.7 3-.5-1.6-2.2zm-.4 4.5l.7-.9-1.4-.3.1.3-.4-.7-1.4 2.7 2.9-.5-.5-.6zm3.1-6.3v-.7l-.4.1-.5-.8-1.4 2.7 2.9-.5-.6-.8zm2-2.2l.6.2-.4-1.1-.5.4-.3-.5h.8l-.5-.9-.4.6-.6-.8-1.4 2.7 3-.5-.3-.1zm2-4.8l-.8-.9-.8 1.5 1.8.1.2.5 1-1.7v2.5l2.4-1.8-2.1-1.1.2-.4-1.9-.2-.6-1.3 2 .1-.1-.1h1.4l-1.1-1.9 1.3-.2-1.5-2.2-1.4 2.7 1.6-.3-.7 1.5-.9-1.1-.8 1.5-.1-.2-1 1.9 1.1.1.8 1zm3.8-6.9l1.5-2.5 1 .9.3-1.1-1.3.2v-.1l-2.6-.3.7 1.8-1-1.2-.9 1.9 2-.4.3.8zm-17 32.2l.3.3v-.3l.7.2-.5-1.6-.3.3-.7.2-.5-.7-1.4 2.7 3-.5-.6-.6zm1.6 2.9l-.4-1.4-1.1 1 1.4.5-1.4.8 2.6 1.7-.3-3-.8.4zm15.5-16.5l-.2-.9.1-.3-.9.1.3.4-.5.4 1.2.3zm-6.8-.3l.2-.4.4.1-.2-1.2-.7.5h-.2v.1l-.1.3.4.1.2.5zm4.4 5.7l-.2.9 1-.2-.8-.7zm3.9-29.3h0l-.7.6 1.1.5.1.3.1-.2.6.3-.2-.9.4-.8.3.8.5-1h.4l-.2-.3.8-1.3-2.1-.2-.7-1.8-1.2 2.2 1.4-.1.2.5-.8-.1-.1-.2-.1.1-.6-.1.3.7-.4.8.9.2zm6.9-6.7l.3-1.2-1.4.3 1.1.9zm1.2-.7l.2-1.2-1.4.3 1.2.9zm1.3 0l-1.9.3 1 1.4-.7-.2.6 2 1.2-1.5-.9-.2.7-1.8z"/><path d="M183.5 318.4l-.2-1-.9.7 1.1.3zm-9.3 5.9l-.6-.2.1.4-.7 1.3h1v.3l.3-.3h.8l-.3-.3h.8l-.4-.7.2-.2-.3-.1-.4-.8 1.2-.3.2 3 2.3-2-2.3-1h.1l-1.3-1.8 1.3-.2.1.4.3-.4h.2l-.1-.1.5-.7.4 1.3 1.3-2.7 1.2.5-.4-.1.4.9.2-.4.3.8.2-1.2-.6-.2-.1-2.4-2.7 1.5 1.2.5-2.1-.1.4 1.2-1.4-.4-.1-.2-.8 1.9-.2-.2-1.4 2.8 1.4-.3-.2.5zm-5.6 33.4l1.2.3-.2-1.1-1 .8zm-5.9-1l.1.3-1.4-.4.2 1.7 1.4-.9.1.2.2-.4h.1l.2-.4h-.9v-.1zm4.5 7.5l1-.2-.8-.7-.2.9zm-9.1 12.3l-1.1 1 1.6.6-.5-1.6zm-8.9 4.5l-1.1 1 1.6.6-.5-1.6zm1.7 1.6l1.6.6-.5-1.6-1.1 1zm-3.6 1l1.6.6-.5-1.6-1.1 1zm7.2-8.7l.2-.4h-.9l.1.3-1.4-.4.2 1.7 1.4-.9.1.2.3-.5zm-3.6-1.6l.4 1.6 1-1.3-1.4-.3zm.9 4.1l1.2-.2-.8-.8-.4 1zm-.6-.4l.9-2-2 .2 1.1 1.8zm-.8 1.1l.4-.8-.9.1.5.7zm4.2-1.4l.6-.2-.5-.5-.1.7zm-4.7-3.6l1.1-.2-.4-.6.3-.4.8.7.1-1.4.1-.7-1 .2.5.6-.2.1-1.4-.3.1.3-.4-.6-1.4 2.7 1.8-.4zm3.5-.4l.1 1 1-.6-1.1-.4zm7-5.2l1 .2-.4-1.1-.6.9zm-2.2-9.4h.9l-1-1.2h.5l-1.1-1.3-.5 1-.2-.3-1.4 2.7 3-.5-.2-.4zm-.5-1.1l-.1.2-.1-.2h.2zm-1.1 3.7l.3.3v-.2l.7.2-.3-1 .4.4.1-1.4-1.2.4.2.2-.1.1-.7.2-.5-.8-1.4 2.7 2.9-.5-.4-.6zm.9 6.5l.8-.5-1.1-.4v.8l-.7-.3.1 1 1-.6h-.1zm6.1-5.5l1 .2-.4-1.1-.6.9zm-5 8.1l.8-.8-1.3-.5.5 1.3zm-3.4-7.9l-.7 1h1.2l-.5-1zm-4 16.6l.1 1 1-.6-1.1-.4zm7.7-6.4l-.7 1 1 .1-.3-1.1zm-9.5 7.8l1.5-1.2-1.5-.8v2zm-.6-4l1.5.1-.9-1.2h.5l-1.1-1.3-.7 1.3h.6l-.3.7-.7-1-1.4 2.7 3-.5-.5-.8zm3.6-6.1l.8.5-.2-3-1.6.9-.3-.5-1.4 2.7 2.9-.5-.2-.1zm-5.2 8.8l1 .4-.5-1.6-.8.8-.7-1-1.4 2.7 2.9-.5-.5-.8zm-2.6 2.3l2.6 1.7-.3-3-2.3 1.3z"/><path d="M145.3 382.2l-.4-1.4-1.1 1 1.4.5-1.4.8 2.6 1.7-.2-3-.9.4zm14.5-6.8l1.2.3-.2-1-1 .7zm-1.4 6.6l1-.2-.8-.7-.2.9zm-8.7 4.1l1-.2-.8-.7-.2.9zm17.4-32.5l-1 .7 1.2.7-.2-1.4zm1.4 8.3l.9-.8-1.1-.2.2 1zm5.4-7.8l1-.1-.6-1-.4 1.1zm5-2.6l.2-1-.8.2.6.8zm-1 4.8l.8-.3-.7-.4-.1.7zm5.5-3.7l.7.2-.1-.8-.6.6zm-9.8 7.3l1-.2-.5-.7-.5.9z"/></g><g fill="#a05a3c"><path d="M182.2 307.6l.7 2.1 1.3-1.3-2-.8zm12.8 7.2l1.8-1.1-2.1-.7.3 1.8zm15.7 9.6l1.7.2-.4-1.5-1.3 1.3zm-24.4-15.1l-.4 1.4-1-1.1-.6 1.4 1.8-.1-.2-.2 1.3-.2.4 1.5 1.4-1.2-1.8-.8-.9-.7zm24 16.7l1.2.2-.3-1-.9.8zm-4.9 3.7l.8-.4-.8-.6v1zm7.8-6.6l.2-.8 1-1.8-.5.1-.5-1 2.4-1.8-3.1-1.4-.2 3.7-.3.5 1.3.2-1.2.2 1 1.3-.7.2.6.6zm-3.9 7.7h1l-.4-.8-.6.8zm3.6-4.9l1.8-.3-1-1.2-.8 1.5zm-27.8-13.2l-1-.4.3 1 .7-.6zm13.9 14.7l1 .3-.3-1-.7.7zm-14.4-16l1 1.5 1.2-1.7-2.2.2zm16.4 6.5l-2-.1.8 1.5 1.2-1.4zm-7.5-5.5l1-.9.4.9.9-1.5-1.6-.1-1.3-.5.6 2.1zm-3.5 1.8l.3-1.2-1 .3.7.9zm3.1 4.2l-.7.8h1.1l-.4-.8z"/><path d="M184.6 318.3l.7-.6-1-.4.3 1zm5.8 7.4l1.1-.6-1.1-.5v1.1zm5.9-2.9l.7.7.2-1-.9.3zm-2.6 8.3l1-.1-.4-.8-.6.9zm-2.4-17.7l2.1.8-.7-2.1-1.4 1.3zm1.6 3.9l-.6-2-1.4 1.3 2 .7zm-7.1-4.4l2 .7-.7-2-1.3 1.3zm19.1 7.1l-1.4 1.3 2 .8-.6-2.1zm-10.3 4.1l-1.1-.5.3 1.2.8-.7zm-5.7-3.8l-.9.4.7.5.2-.9zm7.5-2.8l-.3.8 1-.1-.7-.7zm-6.8-5.6l1.4.5-.1-1.7-1.3 1.2zm8.4 4.6h1.8l-1.1-1.4-.7 1.4zm-4-1.2l-.3-1-.6.8.9.2zm14.7 1.5l1 1.1.7-1.5v.9l-.1-.1-.5.8-1.3.2.8 1 .6-1 1.1.1-.3-.5 2-1.4-2.1-1v1.1l-1.9.3zm-3 1.2l-1.9-.2.7 1.1-.4.6.9.2-.1-.3.8-1.4zm2.6.4l-1.9-.3 1 1.7.9-1.4zm-7.1-3.1l.7-1.3-.1.9 2.7-1.6-.4.9h1.2l-.1 1.6-.1.2H203l.8 1.6.8-.9h.8v.8l1.8-.9-.2.5 1.4-.2-.2-.3 2.2-1.5-2.5-1.2v1l-1.3.1.8 1.2.1-.1-.1.3-2-.9 2.4-1.6-2.5-1.2-.1 1-.5-.7.4-.3-2.9-1.4v.2l-2.9-1.4v.1l-2.5-1.1.1-.1-2-.7-2.9-1.3v.1l-3-1.5-.2 2.6h-.5l.5-.7h-1.7l-1.3-.2 1.2-.9.2.7 1.5-1.4-.7-.1.3-.2-3.3-1.4v1.7l-1.8.4 1.2 1.4.7-1.4v1.6l.5-.3.5 1.5.9-.9.6 1 .2-.3.9 1.4 1.1-1.5 2.3-1.5-.1 2.3-1.8-.8.6 2.1 1.2-1.1v1.2l3.1-2.2.6 1.7 1.1-1.1.6 2.4h-.4l.7 1.6.5-.9h.2l.1 1.1-1.6.2 1 1.5 1-1.6.3-.2v.7l1.2-.8 1 .1-.3-.6 1.3-1-.3 2.1-2.1.4 1.2 1.4.1-.3.9 1.5.9-1.4-1.9-.1zm6.7.3v.7l-.3-.3.3-.4zm-2.5.4l-.1-.2.1-.1v.3zm-7-4.8l.9-.7-.1 1.2-.8-.5zm.3 8l-.1 1.1.9-.4-.8-.7zm-3.5-3.2l.4-.8-1 .1.6.7zm7 10.3l1-.3-.8-.8-.2 1.1zm-2.5-5.5l-1 .1.5.7.5-.8zm.8 2.7l-.1 1.1.9-.4-.8-.7zm-3.5-3.3l.4-.8-1 .2.6.6z"/><path d="M203.6 314.4l-.7.6-.1-.3-.5.6.9.2-.2-.4.7.2-.1-.9zm5.4 7.5l-1.1-1.5-.7 1.3-.3-.8.2-.5-1 .3.5.5-.2.3.8.2 1.8.2zm1.3-2.6l-.5-.9-.8 1.3 1.8.2-.2-.2 1.2.2-.9-1.6-.6 1zm2.1 3.1l-1-1.4.1-.2-2.2.1.9 1.6.9-1.2-.5 1 1.8.1zm-3.7.6l.3.9.7-.7-1-.2zm-24.4-1.8l.8-.9-1.2-.1.4 1zm5.4-5.1l-.7.5.9.5-.2-1zm-.5 9.2l1-.4-.8-.5-.2.9zm16.3.7l-.4-2 .5.2-.3-.9-.5.6.3.1-1.4 1.1 1.8.9zm1.8-3l-1.5 1.2.7.3v.6l.6-.3.6.3-.4-2.1zm9.1.2l1.2-1.8-1.9-.2.7 2zm-22.4 4.9l.9-.6-1.1-.6.2 1.2zm-4.5-5l-1 .4.7.6.3-1zm8.4-1.2l-.7-.8-.4.8h1.1zm2.7 6.7l1-.3-.8-.8-.2 1.1zm-3-4.7l.5-.8-1 .1.5.7zm18-6.3l-.8 3.4 4.3-1.8-3.5-1.6z"/></g><linearGradient id="B" gradientUnits="userSpaceOnUse" x1="152.03" y1="422.405" x2="164.172" y2="408.043"><stop offset="0" stop-color="#911319"/><stop offset=".98" stop-color="#ba3024"/></linearGradient><path d="M124.6 406.6l29 26.4s33.9-.2 34.6-1c1.6-1.9.6-5-.8-6.5-5.2-6-16.3-8.3-16.3-8.3l-5.6-11.4c-.5-1-1.5-1.5-2.7-1.4-3.1.6-10 .9-16.4-3.9-5.3-4-7.1-7.5-7.7-9.4-.2-.8-1.1-1.1-1.8-.7-2.4 1.4-7.4 5.1-12.7 13.3-.5 1-.4 2.2.4 2.9z" fill="url(#B)"/><path d="M138 410.6c-.1.2-.3.5-.3.5l-1.3-1.1s2-2.8 1.3-8.3c-.7-5-4.3-8.8-4.2-8.7l1.3-1.1c.1.2 4 4 4.7 9.6.6 5.1-.8 8.1-1.5 9.1zm32.6 5.6l-.9-1.9-10.2 2.6c-.6.1-.9.7-.7 1.2.1.6.7.9 1.2.7l10.4-2.6c.1.1.1 0 .2 0zm-3.2-6.5l-.9-1.8-10.4 2.6c-.6.1-.9.7-.7 1.2.1.6.7.9 1.2.7l10.4-2.6c.2 0 .3 0 .4-.1z" fill="#fff"/><path d="M124.6 406.6l27.1 25.8c1.5 1.4 3.5 2.2 5.5 2.2l29.4.2c1.4 0 2.3-2.6 2.4-5.1-.9-.1-21.8-.5-29.6-.6-1.9 0-3.7-.8-5-2L126.3 401c-.6.9-1.3 1.9-2 2.9-.6.8-.5 2 .3 2.7z" fill="#ffd570"/><g fill="#c4412c"><path d="M166.1 417.5l-1.3.3 1 1.2.3-1.5zm4.9 8.9l.8-1.2-1.3-.1.5 1.3zm-5.4-19.8l-.6-1.3-1.2 1.3h1.8zm.8 1.3l-.6-1.3-1.2 1.3h1.8zm9 12.9l1.3-1.1.6.6.2-1.2-1 .3.1.1-.8-.3.4-.3-1.1-.5v1.4l.4-.3-.1 1.3zM158 405.9l-1.4-.3.3 1.7 1.1-1.4zm1.5-.8l-.5 1.6 1.6-.7-1.1-.9zm8.3 9.4l-1.1-1-1-1-.6 1.6 1.6-.5-.6 1.4 1.7-.5zm10.4 6.5l1.1-1-1.2-.4.1 1.4zm-9.3-1.2l.7-.9.4.1-.7-1.6-.9 1.2 1.1.3h-1.1l.5.9zm-14.2-10.2l-1.1 1.1 1.5.6-.4-1.7zm0-4.6l-1.1 1.1 1.5.6-.4-1.7zm-6.8 1.8l-1.1 1.1 1.5.6-.4-1.7zm-.8-2.9l.9 1.4.2-.5.7.4-.1-1 1 .4-.5-1.7-.8.8-1.4.2zm1.3.5l.1-.4.3.1-.4.3zm14.2.3l-1.5.3.9 1.4.6-1.7zm-1.9 7l.9 1.4.6-1.6-1.5.2zm-18.3-12.4l-.4-1.4-.9.9 1.3.5zm-1.2 5l1.3.5-.4-1.4-.9.9zm-1.5-9.4l-.9.9 1.3.5-.4-1.4zm32.8 25.7l1.4.3-.6-1.3-.8 1zm15.3 6l-.7 1.1 1.4.2-.7-1.3zm-1-1l.2 1.3.9-.7-1.1-.6zm-1.5-1.9l-.2 1.3 1.4-.4-1.2-.9zm-1.1 5.1l.7-.5-.7-.3v.8z"/><path d="M185.8 426l-.7-.3v.8l.7-.5.6.5.1-.8-.7.3zm-2.3 2.5l.1-.8-.8.3.7.5zm-12.8-11.6l-1.2-.1.5 1.3.7-1.2zm-3 1.8l.4-1.7-1.4.3 1 1.4zm6.2 4.6l.9-.5-.7-.5-.2 1zm9.6-.4l-.2-.8-.6.7.6.2.5 1.2.7-1.3h-1zm.6 1.5v.9l.7-.6-.7-.3zm-2.5 4.5l.2-.8-.9.2.7.6zm-31-18.1l1 .5-.2-1.2-.8.7zm5.3 2.8l-.2 1 .9-.5-.7-.5zm-7.2 3.8l.3-.8-.9.1.6.7zm10.5-10.2l-.9.6 1 .6-.1-1.2zm-7.1 2.3h1.1l-.7-1-.4 1zm10.2-1l-.1-1.2-.9.6 1 .6zm3.6 3l1-.3-.6-.6-.4.9zm-6.4 3.5l.5-.7-1-.1.5.8zm4.5-10.3h-1l.5.8.5-.8zm-3.2 15.2l.5-1.1-1.1.3.6.8zm-5-3.3l1 .1-.4-.9-.6.8zm6.6 2.9l.1-1-.8.3.7.7zm-4.3-6l.4-1.1-1.2.4.8.7zm-3.2-.5l.4-1.1-1.1.4.7.7zm-7.9-10.7l.4-1.1-1.1.4.7.7zm9.5 5.5l-.2 1.6 1.6-.7-1.4-.9zm-11 1.1l.4.1-.3-.5-.2.3-.4-.8-1.1 1.6 2.1.4-.5-1.1zm.1 5.1l.7-.7-.8-.3.1 1zm-4.6-10.9l-.8-.6-.1 1 .9-.4zm9.7 5l-1 .2.5.7.5-.9zm-2.2-6l-.1 1 .8-.4-.7-.6zm5.4 6.6l.8-.4-.7-.6-.1 1zm-10.3-10.4l-.4.6.8.1-.4-.7zm9.8 8.3l.1.6.6-.4-.7-.2z"/><path d="M157.5 404.8l-.5.2.4.4.1-.6zm-1.4 5l-.3.5.6-.1-.3-.4zm10.1 11.1l-.6.4.7.3-.1-.7zm-8.5-2.4v-.6l-.5.4.5.2zm8.4 5.5l.7.3-.1-.7-.6.4zm-2-1.9l-.2-.2-.1.6.3-.1.6.2-.2-.7-.4.2zm4.7 3.9l.4-.5-.6.1.2.4zm7.3-3.4v-.7l-.6.3.6.4zm-3.5 1.2l-.4-.4-.1.6.5-.2zm1.5-5.3l-.6.1.3.5.3-.6zm7.1 5.1l.6.3v-.6l-.6.3zm-2.8 2l.4-.1-.3-.4-.1.5zm-28.2-12.9l.5-.4-.5-.2v.6zm-7.5-4l1-.1-.6-1-.4 1.1zm-2-6.5l.3.9.7-.7-1-.2zm13.5 14.6l1-.1-.6-1-.4 1.1zm-1.8-5.6l.7-.7-1-.1.3.8zm7.9 2.1l-.1-1-.8.5.9.5zm-23.7-11.8l.6-.6-.8-.4.2 1zm2.9-2.2l.6-.6-.8-.4.2 1zm-.6-4.7l-.7.3.6.4.1-.7zm2.2 1.5l-.3.7h.8l-.5-.7zm4.7 8.5l.7.4-.1-.8-.6.4zm2.5 7.3l-.2-.5h.2l-.4-.9-.4.9h.3l-.2.5h.7zm-.2 3.1h1.4l-.7-1.5-.7 1.5zm-2.5-4.8l-.4.9.9-.1-.5-.8zm-5.5-9.7l.5 1.4 1.2-1.2-1.7-.2zm-3.2-8.6l.5 1.4 1.2-1.1-1.7-.3zm-2.5 5.9l-.2-.7-.6.6-.4-.1.1.3h-.1.1l.3 1 .6-.7.2.1-.1-.3.3-.3-.2.1zm.4-2.3l-1.7-.2.5 1.4 1.2-1.2zm11.5 5.1l-2.4.1-1.7-.2.5 1.4 1-1 1 1.8 1.6-2.1zm-5.8 5.1l.5.4-.1-.7-.4.3zm-1.3 4h1.1l-.5-1.2-.6 1.2zm-2.8-6.5l.8-.8-1.1-.2.3 1zm9.4 1.7l-.9.5.9.6v-1.1zm24.1 16.4l.2-1.2-1 .4.8.8zm2.7 4.7l1-.1-.4-.7-.6.8zm-8.5-5.7l.6-.7-.9-.3.3 1zm4.3-6.9v1.2l.9-.8-.9-.4zm2.3 8l1-.1-.5-.7-.5.8zm-8.9-5.6l.6-.2-.5-.3-.1.5z"/><path d="M162.4 415.7l-.2.4.9-.1-.5-.8-.2.5zm2.5-1.1l-1.2.3.7.8.5-1.1zm2.5-1.9l-.3.8 1-.3-.5-.5.2.1-.4-.9-.5.8h.5zm3.6 6h0l-.7.5.9.4-.2-.9z"/><path d="M171.8 418.9l.7.7.1-.8.9.2-.6-1.3-.7.9-.4.1v-.3l-.8.3.7.7.1-.5zm3.5 5.3l1-.1-.5-.7-.5.8zm-8.7-4.8l.3 1 .6-.6-.9-.4zm4.2 2.4l-.3 1 1.2-.1-.9-.9zm6.2 1.4l.5-.9-.9-.1.4 1zm-9.9-2.3l1 .3-.1-.9-.9.6zm7.8 4.4l1-.1-.7-.7-.3.8zm5.3-1.6l-.5.8h.5l.1.4.4-.7h-.3l-.2-.5zm-3 .2l-.7.4.8.2-.1-.6zm-.4-2l1 .1-.6-.8-.4.7zm5.1-.2l.1.8.5-.6-.6-.2zm-5.3 5.2l.8.4v-.8l-.8.4zm-4.8-2.8l.3 1 .6-.7-.9-.3zm8-1.5l2.1-1.2-2.5-1.2.4 2.4zm-14.6-11.9l-2.1.9 1.9 1.7.2-2.6zm-13-6.5l-1.3 1.9 2.5.5-1.2-2.4z"/></g><path d="M189.1 429.9c-.2 0-22-.2-25-.2h-1.3c-2.9.1-6.2.2-8.9-2.1-2.9-2.4-27.1-25.2-28.2-26.2l1-1c.2.2 25.3 23.7 28.1 26.1 2.3 1.9 5.3 1.9 8 1.8h1.3l25 .2v1.4z" fill="#fff"/><path d="M213.5 206.2l-12.3 1.9-25 87.4c-.6 2.2.4 4.5 2.5 5.5l42.9 19.4c1.9.9 4.2.2 5.3-1.6l22.7-37.6 17.6-54.8 1.3-20h-55v-.2z" fill="#911229"/><path d="M205.8 237.6l-17.6 55.5 1.3.4 17.6-55.5-1.3-.4z" fill="#750e29"/><linearGradient id="C" gradientUnits="userSpaceOnUse" x1="200.164" y1="275.072" x2="236.641" y2="240.742"><stop offset=".01" stop-color="#913b24" stop-opacity="0"/><stop offset=".985" stop-color="#510c10"/></linearGradient><path d="M230.9 311.4l7.9-12.3-38.3-89.6-2.9 11.2-15.9 56 49.2 34.7z" fill="url(#C)"/><linearGradient id="D" gradientUnits="userSpaceOnUse" x1="192.858" y1="310.522" x2="222.508" y2="290.605"><stop offset="0" stop-color="#f25779"/><stop offset=".975" stop-color="#cb1e3a"/></linearGradient><path d="M178.8 300.9l42.9 19.4c2 .9 4.2.1 5.3-1.7l3.9-6.6-52.9-23-1.7 6.5c-.7 2.2.4 4.5 2.5 5.4z" fill="url(#D)"/><path d="M230.3 312.8l-52.5-23.4.5-1.3 52.7 23.4-.7 1.3z" fill="#750e29"/><g fill="#bd2641"><path d="M189.2 273.3l-1.1.9-.7-.4v.2l-1.9-1 .5 2.1 1.4-1.2.2.8.4-.3 1.2.6v-1.7zm-4.2 3v-1.8l-1.5 1.1 1.5.7zm-.5 8.8l-.3 2.1 1.8-1.1-1.5-1zm1.1 5.2l1.9-1.1-1.6-1-.3 2.1zm2.6-8.4v-1.8l-.5.3-.3-1-.5.9.9.1-.9.7 1.3.8zm2.4-10.2l-1.4 1.1 1.4.7v-1.8zm-4.1 10.9l-1.1.7.9.5.2-1.2zm.8-6.2l-.2.9 1.1-.1-.9-.8zm5.5 7.7l.5-1h-.9l.4 1zm5.2-3.2l-1.2-.1.7 1 .5-.9zm-6.5-.7l-.2-1-.7.8.9.2zm5.8-5.2l.9-.4-1-.5.1.9zm.2 20.1l.5-.9-1.2-.1.7 1zm-6.9-1.9l.9.2-.2-1-.7.8zm6.7-5.1l.9-.3-.9-.5v.8zm-6.3 1.4l.9-.4-1-.5.1.9zm-2.4-5.5h1.3l-.5-1-.8 1zm-4.2 4.5l.7-.6-.9-.4.2 1zm-.3-8.4l.2-1-.9.4.7.6zm.1 1.2l-1.3 2.6 2.5-.1-1.2-2.5zm.1-2.7l.4 1.4-.1-.1.3 1.3.1-.1.1.3 1.8-1.6-2.6-1.2zm9.1-1.3l.4-1h-1.2l.8 1zm-1.9-2.3l1-.3-.7-.7-.3 1zm3.6 3.4l.9.2-.2-1-.7.8z"/><path d="M181 287.7l.3-.9-1.1.1.8.8zm.5-4.6l1-.9-1.8-.8 1.6-.2-.7.5 1.4.7v-1.2l1.2-.1-1.3-1.4 1.2-1.1-1.6-.8 2.1-.3.2.8 1.4-1.2-1.9-.9.1.3-2.1-2-.9 3.4.9-.1.3 1.4-1.2-1.2-1.1 3.4h.1l.2.9-.4-.4-1 3.4 1.4-.1-.9.7 1.4.7v-1.4l1.9-.2-1.3 1 1.4.7v-1.8l-.1.1-1.5-1.9zm1.6-9.8l.4 1.9 1.5-1.2-1.5-.8 3.3-.5-.4-.4 1.4-1.2-.3-.1 1.2-1.2-.4-.2.5-.5-1.9-.9.2.8-.6-.2.1-.1-1.6-.8 3.2-.3-2.8-3-1.1 3.4h.5l.4 2 .5-.4.3.3.2-.7.1-.1.4 1.5-.8-.4.4 2.1-1.5-1.4-.1-.5.2-.8-1 .5-.1-.1-.1.2-.8 3.2.2-.1zm5.8 13.7l-.4.4-.1-.2-.6.7h1l-.1-.2.6.1-.4-.8zm1.3-1.1l1.7.2-.5-1.4-1.2 1.2zm5.2-34.5l-1.5 1.1 1.4.7.1-1.8zm-4.1 1.3l-1.4 1.1 1.4.7v-1.8zm-2.3 5.2l1.4-1.2-1.9-.9.5 2.1z"/><path d="M189.5 253.2l1.1-.9-1.5-.7.4 1.6zm3 2l-1.8-.9.4 2.1 1.4-1.2zm-3-6.5l-.4 2.1 1.8-.5-1.4-1.6zm1 20.7l-1.9-.9.5 2.1 1.4-1.2zm-.2-5.8l-.3 2.1 1.9-1.1-1.6-1zm-2.2 4.6l1.8-1.1-1.6-1-.2 2.1zm6-9.5l-1.4 1.1 1.4.7v-1.8zm9.2 14.9l.5-1-1.2-.1.7 1.1zm-6.2-2.7l-.7.8.9.2-.2-1zm6.1-5.1v.9l.9-.4-.9-.5zm-10.4 3.8l-.1-.3-.8.9h.4l-.1.1 1.9.5-.4-2.2-.9 1zm4.9-2l-1-.5v.9l1-.4zm-10.4-1.2l.2-1-.3.2.1-.4-1 .1.5.5-.2.1.7.5zm6.4 5.1l-1.6.1 1.1 1.3.5-1.4zm-2.1-9.1l.2 1.2 1.2-.7-1.4-.5zm-.6 12l-.7.9-1-.4.5 2.1 1.4-1.2-.2-.1h.5l-.5-1.3z"/><path d="M196.1 262.1l-.4-1-.8 1h1.2zm-4.8 3.9l-.9-.4.2 1 .7-.6zm-.7-8.8l-1 .4.8.5.2-.9zm-1.7 5.1h2.4l-1.1-2.5-1.3 2.5zm5.2-3.7l-.4-1-.5.9.9.1zm-8.7 5.1l1.4-.1-.9.7 1.4.7v-1.4l1.9-.2-1.3 1 1.4.7.1-1.8-.1.1-1.7-1.8.9-.8.4.2v-1.4l1.5-.1-2.8-3-1.1 3.4 1.8-.2-.8.6-.9-.4.2 1-.4-.4-1 3.2zm3.2-10.7l-.6 2.4 2.7-.4-2.1-2zm6.1 12.6l-.4.4-.1-.2-.6.8h1l-.1-.2h.5l-.3-.8zm2.5-2.4l-1.2 1.3 1.7.2-.5-1.5zm2.6 1.6l1.5.2-.5-1.2-1 1zm-4.2 4.2l-.7-.4-.1-.3-.7.7h.6l.1.5.8-.5zm-.2-10l-1.1.4.8.7.3-1.1zm-3.6-14l-1.4 1.1 1.4.7V245zm.3-1.3l-1 .1.8.8.2-.9zm1.5 6.8l-1.2-.5.3 1.3.9-.8zm-2.1-2.3l-1.4-.7.4 1.6 1-.9zm2.1-.4l-1.1-.5.3 1.2.8-.7z"/></g><path d="M247 306.3s-.9 22.8 6.7 42.3l16.5 43.7 7.9 23.2 15 5.7 16-10.8s-5.3-4.9-6.4-10.1l-16.1-84.8-1.9-19.3-37.7 10.1z" fill="#eb9c79"/><linearGradient id="E" gradientUnits="userSpaceOnUse" x1="277.782" y1="361.416" x2="315.472" y2="353.974"><stop offset="0" stop-color="#bc5a32" stop-opacity="0"/><stop offset=".99" stop-color="#bc5a32"/></linearGradient><path d="M263.3 305.7l10.5 47.1c3.8 18.9 17.1 64.6 17.1 64.6l15.6-9.5s-3.7-2.8-5.8-16.6-12-62.2-13.1-69.5-2.4-18.6-2.4-18.6l-21.9 2.5z" fill="url(#E)"/><linearGradient id="F" gradientUnits="userSpaceOnUse" x1="268.469" y1="322.551" x2="265.974" y2="308.867"><stop offset="0" stop-color="#bc5a32" stop-opacity="0"/><stop offset=".99" stop-color="#bc5a32"/></linearGradient><path d="M262.7 323.7c11.4-2.3 24.9-1.9 24.9-1.9s-1.1-6.2-1.5-10.1l-1.4-15.4-38.2 12.5.7 7.5 1.5 13.1s5.9-4 14-5.7z" fill="url(#F)"/><path d="M277.2 412.9l-1.9-5.8 27.5-6.2 1.1 2.3c.8 1.6 2.7 3.6 2.7 3.6s-6.4 8.4-13.4 9.1c-6.9.8-14.7 2.9-16-3z" fill="#fff"/><linearGradient id="G" gradientUnits="userSpaceOnUse" x1="309.022" y1="426.194" x2="307.367" y2="407.684"><stop offset="0" stop-color="#911319"/><stop offset=".98" stop-color="#ba3024"/></linearGradient><path d="M278.7 434.8l62.4-4.4c1.1-.1 1.9-1 1.8-2.1-.2-2.4-.8-6.5-2.4-9.2-2.1-3.5-26.6-11.6-33.6-13.9-1-.3-2.2 0-2.8 1-1.8 2.6-6.4 7.8-14.3 8.9-6.5.9-10.3-.2-12.1-1.1-.7-.3-1.6 0-1.8.8-.7 2.7-1.5 8.9.5 18.4.3.9 1.3 1.7 2.3 1.6z" fill="url(#G)"/><path d="M278.7 434.8l62.4-4.4c1.1-.1 1.9-1 1.8-2.1l-.3-2.6-66.8 4 .7 3.4c.2 1 1.2 1.8 2.2 1.7z" fill="#ffd570"/><g fill="#c4412c"><path d="M315 418.8l.9-.2-.7-.7-.2.9zm5.4-1h-1.3l.6 1.3.7-1.3zm-12.7-12.1l-1.3-.5.1 1.7 1.2-1.2zm16.8 6.6l.6.5.1-1.2-1 .4.1.1-.8-.3.4-.4-1.2-.4.1 1.4.3-.3.1 1.3 1.3-1.1zm-23-1.8l-1.2.9 1.5.9-.3-1.8zm2.6-1.1l-1.5.2.8 1.5.7-1.7zm9.7 1.9l.8-1.6-1.5.1v.1h-1.4l.7 1.6.7-1.4.7 1.2zm11.9 1.4l.6 1.3.7-1.3h-1.3zm-7.9-2.4l.3.8.3-.7.4.1-.2-.5.1-.2h-.2l-.4-.9-.5.9-.2.4.4.1zm-15.9 6.7l1.5-.7-1.5-.8v1.5zm-1.8-3.8l-1.5-.9v1.5l1.5-.6zm-3.5 6.1l-1.5-.9v1.5l1.5-.6zm-4.1-2.3l1.6.3-.2-.5.8-.2-.8-.6.9-.4-1.5-.9v1.1l-.8 1.2zm1.2-.5l-.2-.4.3-.1-.1.5zm10.5-5.5l-.8 1.3.7.1-1.2.3 1.1 1.2.5-1.4.5.1-.8-1.6zm4.9 1.9l-.8-1.6-.8 1.3 1.6.3zm-24.5 4.9l1.3-.6-1.3-.7v1.3zm4.1 3.8l1.3-.6-1.3-.7v1.3zm-7.9-4.2l1.3-.6-1.3-.7v1.3zm40.7-5.2l-.7 1 1.4.2-.7-1.2zm18.5 6.9l-.8 1 1.4.3-.6-1.3zm-1.3-1.2l.1 1.2 1.2-.7-1.3-.5zm-5.4-1l1.4.2-.7-1.3-.7 1.1zm-.3 4.3l.7-.5-.7-.3v.8zm.8-2.3l.7-.5-.7-.3v.8zm1.8 1.9l.1-.7-.8.2.7.5zm3-1.8l.1-.7-.8.2.7.5zm-21.3-5.8h-1.4l.7 1.6.7-1.6zm-.6 10.1l-.4.3-.3-.3-.1.7.3-.1.6.1-.1-.7zm1.1-11.6l-1.2.1.5.9.7-1zm4.6 4.1l.8-.5-.8-.4v.9zm9.2-1.2l-.6.8.6.1.5 1.1.7-1.3h-.9l-.3-.7zm4.8 3.2l.8-.5-.7-.3-.1.8z"/><path d="M330.4 421.5l.1-.8-.9.2.8.6zm-30.5-3.2v1.1l1.1-.4-1.1-.7zm5.7-.9l.5.8.2-1-.7.2zm-3.2 7.8h1l-.4-.8-.6.8zm1.7-14.8l1.1-.3-.9-.8-.2 1.1zm-3.4 6.1l-1.2-.2.4 1 .8-.8zm5-7.6l-.2 1.1 1.1-.3-.9-.8zm8-.6h-.8l.4.9.4-.9zm-3.1-.5l.4.9.4-.8v.5l.3-.3.5-.4h-.1l.5-.5-1.3-.5v.8l.1.3h-.8zm-1.7 7.1l-.7.6.9.2-.2-.8zm-.1 10.6l1 .1-.5-1.1-.5 1zm-1.2-5.9l.8-.6-1-.3.2.9zm7.6 3.6v-1l-.8.4.8.6zm-9.2-7.5h1l-.5-1.1-.5 1.1zm-3.5-.9h1l-.5-1.1-.5 1.1zm-11.8.2l-.5 1.1h1l-.5-1.1zm4.3 6.6l.4-.3-.6-.2v.4l-.9-.3.4 1.9 1.7-1.2-1-.3zm3.7 3.5v-1l-.7.3.7.7zm-11.3-3.3l.3-.9-.9.1.6.8zm10.6-4.4l-.5.9.9.1-.4-1zm-4.9-2.7l-.9.1.7.8.2-.9zm7.6.8l.3-.8-1 .1.7.7zm-14.7.2l.1.7.7-.5-.8-.2zm14.4-2l.5.4.1-.8-.6.4zm1.5-4.3l-.2.5.6-.1-.4-.4zm8.6 2.1h-.5l.2.6.3-.6zm3.5 5.9l-.6.4.7.2-.1-.6zm-3.8 2.4l.5-.2-.4-.4-.1.6zm1.3-5.1l.3-.5-.6.1.3.4zm7.8 7.3l.7.3-.1-.7-.6.4zm-1.9-3.2l.3-.6-.6.1.3.5zm7-4.6l-.7.4.7.2v-.6z"/><path d="M320.6 416.6l.5-.2-.4-.4-.1.6zm1.4-5.1l.3-.5-.6.1.3.4zm8.2 4.4l-.5.3.6.2-.1-.5zm-3.3 1.9l.4-.2-.4-.4v.6zm1.5-4.6h-.5l.3.4.2-.4zm-27.3 7l-.5.2.4.5.1-.7zm-8.2 3.3l.6-.8-1.1-.3.5 1.1zm-6-3l.8.4v-1l-.8.6zm19.8.4l.6-.8-1.1-.3.5 1.1zm-5.3-2.7v-1l-.8.6.8.4zm6.1-4l1-.2-.8-.7-.2.9zm-24 8.8l.1-.9-.9.3.8.6zm.4-3.6l.1-.9-.9.3.8.6zm-3.8-1.9l.7-.1-.4-.7-.3.8zm3.4-1.4l-.8-.1.3.7.5-.6zm8.6 1.7l-.1.7.8-.2-.7-.5zm9.1 6.2l.9-1.1-1.5-.5.6 1.6zm-4.8-.6l.5-.7-.9-.2.4.9zm2.3-2.1l-.9-.3.4.9.2-.2.2.5.5-.6-.5-.2.1-.1zm-19.9-7l-1.3 1.1 1.3.6v-1.7zm-2.3 6.1l1.3.6v-1.6l-1.3 1zm14.3 6.7l.8-.9-1.2-.4.4 1.3zm-5.8-3.3v-1.1l-.9.6.9.5zm7.3-5.1l-.2 1 1.1-.2-.9-.8zm29-.1l1-.2-.5-.7-.5.9zm-7.3.5l.5-.7-.9-.2.4.9zm.9-11.2l-.9.4.8.8.1-1.2zm3.4 4.8l-.1.1-.8.4.8.8.1-.5.5-.1-.5-.7zm-7.8 1.4l.5-.7-.9-.2.4.9zm-.6-4.5l-.6 1.1h1l-.4-1.1zm8.4 1.3l.7.6-.4.4.9.3-.3-.9-.1.1v-.9l-.8.4zm2.3 1.2l.1-.8.9.2-.7-1.3-.7 1-.5.2.9.7zm3.6 3.6l-.5.9 1-.2-.5-.7zm-7.5.6l-.9-.3.4.9.5-.6zm2.4-1.9l-.2 1 1.1-.2-.9-.8zm6.8.1h-.9l.4.9.5-.9zm-5.7 6.9l1 .2-.2-.8-.8.6zm3.3-3.7l1-.2-.8-.7-.2.9zm1.1 5l.8.2-.2-.7-.6.5zm.5-8.6h1l-.6-.8-.4.8zm5.9.3l-.7-.1.2.8.5-.7zm-5.7 4.8l.8.3-.1-.7-.7.4zm3.4-2.8l-.5.9.5-.1.2.4.4-.7h-.3l-.3-.5zm-8 1.3l.5-.7-.9-.3.4 1zm-41 4.5v-.5l-.4.3-.6-.3v.9l-.3.2.3.1v.1h.1l1 .4v-.9l.3-.1-.4-.2zm47.9-8.4l-.8 2.1 2.5-.2-1.7-1.9zm-22.4-5.8l.9.2-.2-.9-.7.7-.9-1.7-1.3 1.9 2.5.4-.3-.6zm-15.2 9.9l-.4-2.5-1.6 1.8-1.3 1 1.3.6v-1.4l2 .5zm8.8-3.6l-2.5-.8.4 2.2 2.1-1.4z"/></g><g fill="#fff"><path d="M289.5 428.7s-.5-3.4-5-6.8c-4.1-3.1-8.6-2.9-9.3-3l.1-1.5c.2 0 5.5 0 10 3.4 5 3.8 5.5 7.5 5.5 7.7l-1.3.2zm15-12c-.2 0-.3 0-.5-.1-.5-.3-.7-.9-.4-1.4l5.4-9.3c.7.2 1.4.3 2 .7l-5.7 9.7c-.1.2-.4.4-.8.4z"/><path d="M311.5 418.8c-.2 0-.3 0-.5-.1-.5-.3-.7-.9-.4-1.4l5.3-9.1 2 .7-5.6 9.5c-.2.3-.5.4-.8.4zm31.1 6.1l-66.8 4 .1 1.4 66.8-4-.1-1.4z"/></g><g fill="#a05a3c"><path d="M255.1 323.6l.8-1 1.3.9.3-1.9-1.9.5-1.2-.1.6 1.4-1.4-.3.4 1.5 1.3-1.2-.2.2zm-5.3 3.8l1.5 1 .4-2.1-1.9 1.1zm1.9-2.1l.2-1.8-2 .7 1.8 1.1zm11.5-5.3l1.3 1.2.7-2-2 .8zm-13.3 2.9l1.8.3-.5-2.1-1.3 1.8zm8.1 10.6l1 .4v-1.2l-1 .8zm1.3-7l-.2.9 1-.3-.8-.6zm6.1 7l.4-1-.9.1.5.9zm-15.6-5.4l-.9.9 1 .3-.1-1.2zm5.8-2.5l-1 .3.8.6.2-.9zm-5.8 5.4l1-.3-.8-.6-.2.9zm25.7-2.5l1-.3-.8-.6-.2.9zm-27.1-.9l.1.9.9-.6-1-.3zm.8.1l1-1.2-1.7-.4.7 1.6zm6.8-4.3l-1.6 1.5 1.7.6-.1-2.1zm15.1-3.5l-1.6 1.2 1.5.7.1-1.9zm-9.2.3l.2-1.3.9.5-.3-1.8-1.3 1-1.3.4 1.8 1.2zm-2.7 3.2l1.2.3-.5-1.2-.7.9zm6.3 2.6l.9-.7-.9-.3v1zm-6.6 3.4l-1 .3.9.6.1-.9zm8.9 3.1l.5-1.1-1.2.3.7.8zm3.3-6.6l-.5.8 1 .1-.5-.9zm2.6 8.8l.8-.7-.8-.3v1zm-13-12.3l2.1-.7-1.8-1.3-.3 2zm1.8 2.7l2-.7-1.8-1.2-.2 1.9zm-6.2.2l2-.7-1.7-1.2-.3 1.9zm21-5.1l-1.7-1.2-.3 1.8 2-.6zm-24.4 14.2l.6-.9-.9-.1.3 1zm3.6-7.4l-1.2-.3.5 1.1.7-.8zm-6.4-1.4v-1l-.8.7.8.3zm19.8 4.1l.2-1.1-1.2.3 1 .8zm-7.1.5l.9-.1-.4-.9-.5 1zm4.7-6.9l.8-.7-1.1-.1.3.8zm-8.9-1.2l1.4-.4-1.1-1.3-.3 1.7zm-6.9 9.5l.9-.3-.7-.7-.2 1zm3.9 3l1.2-.4-.9-1-.3 1.4zm-2.9-6.9l-1.2.2.5.8.7-1zm14.8-8.6l.3 1.5 1.4-1.1-1.7-.4zm-4.3 2.6v1l.8-.4-.8-.6zm13.3-7.4l1.5.2-.4-1.5.5.7h-.1l.1.9-.9.9 1.2.3-.2-1.2.9-.5-.5-.2.7-2.3-2.3.5.6.8-1.1 1.4zm.7 1.3l-1.6 1 1.8.7-.2-1.7zm-5.9 6.8l-1.1-.1.6.9.5-.8zm-6.1-1.3l-.7.7.8.1-.1-.8zm12.1 4.5l.5-.8-1.1-.2.6 1zm-5.2-1.8l-.1-.9-.7.7.8.2zm2.8 1.6l.4-.9h-1.1l.7.9zm-5.6-2.1l-.7.7.8.1-.1-.8zm5.3-4.1l.8-.4-.3-.1-.2-1.6-1.6 1.1 1.3.4v.6z"/><path d="M273.9 316.6l.5.5.9-1.8.2.5 1-1h-.3l.8-2.5-2.7.6.6.8-1 .9 1.4.5v-.1l.1.3-2.1.5.9-2.7-2.7.6.5.8-.8-.2.2-.5-3.2.7.1.2-3.2.7v.1l-2.6.6v-.1l-1.6.5v-.2l-3.5.8.1.1-3.4.7 1.5 2.1-.4.4v-.8l-1.3 1.1-1.2.7.4-1.4.7.4.3-2-.7.3.1-.4-2 .5v-.1l-.1.1-.6.2v-.1l-3.4.9 1.5 2-.8.6.4.2-.9.5 1 .7-.9.5 1.5 1 .4-2.1-.3.2.1-.4.5.2v-.5l.3-1 1.4-.7 1 1.3.2-.6 1.3.8.2-1.2 1.1.4v-.7l1.6.6v-.6l.8-.2-.8-.5v-.4l.9-2.6 1.3 1.8-1.9.5 1.7 1.3.3-1.7.7 1 1-3.4 1.5 1 .2-1.5 1.9 1.5-.3.3 1.5.8-.2-1 .2-.1.8.8-1.1 1.1 1.7.5-.2-1.8.1-.3.4.6.4-1.4.9-.5-.7-.2.4-1.6 1.1 1.9-1.4 1.6 1.8.3-.1-.3 1.6.7-.1-1.7-1.5.9-.3-1.5.4.8 1.1-2.9.2 1 1-.8.9 1.3.1.3-1.5 1.1 1.7.8v-1.2l.4-.7zm1.2-2.5l.4.6h-.4v-.6zm-24.4 5.4l-.1.2.1-.3v.1zm.5.8h0zm13.7-3.8l.2-1.1.7 1-.9.1zm8.4-.5l-.2-.1v-.1l.2.2z"/><path d="M270.9 315.5l-.1.8-.3-.1v.8l.9-.4-.4-.2.6-.2-.7-.7zm8.9 2.5l-1.7-.5.3 1.5-.8-.4v.8l.8-.3 1.4-1.1zm-.7-4l.1 1.1-1-.3.2 1.5 1.5-1-.3-.1 1.1-.6-1.6-.6zm2 1.5l-1.6 1.4 1.7.7-.1-2.1zm4.2-1.9l-1.4 1.6 1.8.4-.4-2zm-3 3.1l1.4-1-1.7-.5.3 1.5zm.8-2.5l-1.2-.5.7-2.9 1.5 3.2 1.5-3.9-3 .8v-.1l-3.3.8 2.2 2.9v.6l1.6-.9zm-1.9 5.3l.1-.9-.9.4.8.5zm-20.4 16l.1-1.2-1 .7.9.5zm.9-7.3h0l-.1-.1-.7.7.6.2v.1h.2l.3.1v-.2l.5-.1-.8-.7zm5.4 7.5l.5-.9h-.9l.4.9zm12.6-12.3l-1.6-1.3-.4 1.8 2-.5zm-.8-1.7l2.1-.5-1.6-1.4-.5 1.9zm-6.8 10.5l.3-1-1.2.2.9.8zm-7.1-.2h.9l-.4-.9-.5.9zm5.2-7.3l.2.9.8-.6-1-.3zm14.7.7l.7.9.4-.9h-1.1zm-5.6-.1l.8.1-.2-.9-.6.8zm5.4-6.1l.1.8.8-.5-.9-.3z"/></g><g fill="#ffbca4"><path d="M278.4 376.5l-1 .2.8.9.2-1.1zm.6 5.6l-1.5-.7-.1 1.5 1.6-.8zm-2.1 8.8l1.6-.8-1.5-.8-.1 1.6zm-9.7-29.3l-.2 1.7 2-.7-1.8-1zm.4 15.2l.4-2.1-1.8 1 1.4 1.1zm.5-6.4l-1.8 1 1.2 1-.1 1.7 2-.9-1.7-.8.4-2zm1 5.2l-.1 1.7 1.9-.9-1.8-.8zm-4.6-20.3l-1.6.9 1.8 1.1-.2-2zm-8.6-2.7l.7.4.4 1.2.5-.6h.1v-.1l.8-.8h-.7l.5-.5-.7-.2v-.2l-.3.1-.9-.2.2-.4.5.2-.2-.8v-.1l2.2 1.9.2-3-2.3.9.1-.1-2.7-.3 1.1 3 .7-1.2.2.5-.4.3zm15.1 10.3l-1.6.9 1.8 1-.2-1.9zm-1.5 5.4l1.8 1-.3-1.9-1.5.9zm-14-19.5l-.1-.5.1-.2h-.1l-.1-.9 1.2.7-.9-2.9.5-.1-1.8-2-.5 1.5h-.2l.2-.8-.9.1.4.6-1-.2.7 2 .3-.4.5-.2 1.7-.5-1.7 1.5 1.2.6-1.3.7h-.2l.8 2.1.9-1.2.3.1zm-2.7-8.7l-.1-.4.2-.2h-.2l-.2-1-1.1.7-.6-.1.6 2.4 1.1-1.5.3.1zm-1 1.8l.3 1.7 1.1-1.3-1.4-.4zm7.7-1.2l-1.3.7 1.4 1-.1-1.7zm-6.3 1.4l-.1-1.6-1.3.7 1.4.9zm18.4 41.5l-1.2.8 1.5.9-.3-1.7zm-2.4-3.7l-.9-.5-.2-1.4-1.6 1 1.2.6-.1 1.1 1.6-.8zm2-.9l2-.9-1.8-.9-.2 1.8zm12.4-.2l.8.2-.2-1-.6.8zm-13.6-.2v-.1l-.6.6.5.2v.2l.3-.2.2.1-.1-.1.8-.5-1-.7-.1.5zm.1 2.2l-.8.7 1.1.4-.3-1.1zm3.8 5.8l.8-1-1.2.1.4.9zm-5.6-23.2l-1.3.1.9 1.2.4-1.3zm-7.1-8.9l.4-1.3-1.3.2.9 1.1zm6.9 11.5l-1.2.2.9 1.1.3-1.3zm-3 5.8l1.1-.4-1.1-.5v.4l-2.5-.4 1 2.9 1.5-2.3v.3zm9.7-3.6l-.8.9 1 .3-.2-1.2zm-11.7-7.9l-.9 1.1 1.4-.1-.5-1zm-3.4 3.1l1.1-1.7.8.3-.8-2.8 1-.1-.6-1-.8 1.1h.2l-1.9 1.6 1.8.8-1.6-.1.8 1.9zm-2-5.1l.5 2 1.3-1.6-1.8-.4zm6.9 4.7l-1.2 1.5 1.5.3-.6.5 1 .3-.1-.8h.2l-.8-1.8z"/><path d="M263.7 359.9l-.8-2-1.2 1.5 2 .5zm4.8 15.5l2 .4-.8-2-1.2 1.6zm3.9 9.4l-1.2 1.5 2 .5-.8-2zm-4.2-38.3l-1.1-.3.1 1 1-.7zm-9.6-7.9l-1.2-.2.5 1.1.7-.9zm-4.4-.6l-1.2-.2.5 1.1.7-.9zm.8-7.4l-1.2-.2.5 1.1.7-.9zm-1.7 2.8l-1.2-.2.5 1.1.7-.9zm7 17.7l1.2-.2-.5-.8-.7 1zm-6-4.3l-1.2-.3.5 1 .7-.7zm22.5 23.5h-.8l.5.5.3-.5zm-6.7 1l-.1.7.7-.3-.6-.4zm3.3 16.8l-.3-.9-.5.7.8.2zm2-3.9l.3-.6h-.8l.5.6zm-5.9.8h0l.6-.9-.8-.1-.1-.6h.4l-.9-1-.4-.6-.5.9h.8l-.3.8-.3.2.3.1-.8-.1.9 2.9 1.1-1.6zm12.5-32.2l-.7-.1.2.7.5-.6zm-1.4 6.8l-.3.6.8-.1-.5-.5zm-12.1-1.5l-1.5.1 1 1 .5-1.1zm-6.6-4.6l-.2 1.1 1.1-.5-.9-.6zm.4 10.3l-.3-1.1-.8.6 1.1.5zm-5.4-28.2l-1.2-.3.4 1.1.8-.8zm-6-6.3l-1.2-.3.4 1.1.8-.8zm6.5 15.8l-.1-.4.8.3-.6-1-.9.3.3.1-.3.3.8.4zm9.2 15.4l-2.1.3 1.5 1.3.6-1.6zm-1.6-15.3l-1.2.1.8.8.4-.9zm-.6 3.5l.5.4.3-.9-.7.1.1-.3-1.2.2.8.8.2-.3zm-4.8-12.1l-1.5-.8v2.1l1.5-1.3zm-9.6-3.2v2l1.5-1.3-1.5-.7zm4.4 6.9l-.4 2 1.8-.9-1.4-1.1zm17.7 41.3l-1.1.5.8.6.3-1.1zm.9-8.7l-1.1-.5.2 1.1.9-.6zm-.4 2.3l-1.3.6 1.3.5v-1.1z"/><path d="M274.5 388.4l.3-1.1-1.1.5.8.6zm.3-9.5l.8-.7-1.1-.5.3 1.2zm-.6 9.3l-1.6.5 1.4 1.4.2-1.9zm-3.5-.5l1.1-1-1.1-.1.1-.1-.4-.1.3-.3-1.7-.2.4 1.4.4-.4.1.2v.3l.1.3-1.3-.2.9 2.9 1.7-2.5-.6-.2zm-4.4-7.3l1 2.9 1.7-2.5-2.7-.4zm.2-3.2l-.4-.4-.2.3-1-.1 1 2.9 1.7-2.5-1.1-.2zm-.3-2.9l.6-.3-1.1-.5v.7l-.5-.1.5-.5-1-.3.2.8-1-.2 1 2.9 1.7-2.5h-.4zm-2-4.8l-1.2-.1.5 1.6 1.3-1.2.5.2-.5-1.9 1.7 1.7.3-3-2.2.7-.1-.5-1.4 1.2-1.3-.5 1.4-1.4h-.1l1-1-2.2-.6.7 1.5-1.4-.1.5 1.6-.2-.1.7 2.1.8-.8 1.2.6zm-6.4-12.6l.3.8.5-.5h.1l-.1.8 1.1-.4.3.1v-.2l.7-.2-.9-.5-.2-.7-.1-.2.8.3-.3-1.1.3-.3-.3-.1-.4-1.5-1.5 1.4-1.8-.8.8 2.4.9-1.1.5.2-.7.5h-.2v.1l-.4.4.6.6zm1.9 6.5l1 2.9 1.7-2.5-2.7-.4zm12 27.3h.4l-.2-.2.6-.3-1.5-.8v.4l-.3.6-.9-.1.9 2.9 1.7-2.5h-.7zm5.7 2.1l-2.3-2-.2.8-1.3-.7-.1 1.5 1.3-.6-.4 1.5 3-.5zm-3.1-17.3l1-.6-.8-.5-.1-.3-.5.7.5.1-.1.6zm4.2 4.7l-1 .1.4.8.6-.9zm-20.6-32.9l-.6-1.1-.8 1.2 1.4-.1zm-.3-2.4l-.7 1.2 1.4-.2-.7-1zm1.7.1l-1.1 1.6 1.7.3-.6.3 1.8 1-.2-2-.8.4-.8-1.6zm4.1 1H262l.9 1 .5-1zm-5.5-4.3l-.8-.6-.3 1.1 1.1-.5zm-5.3-5.2l.2.4.7-.8-1.2-.3.2.3-2.3-.5.7 3.1 1.7-2.2zm-3.5-5.6l.3 2.3 1.6-1.7-1.9-.6zm28.4 48.5l1-.7-.9-.6-.1 1.3zm-4.1 3.9l-1.1.6 1.3 1.1.5-2.1-.5.3-.3-.8-.6.6.7.3zm7.8 1.7l.6-.9-1 .1.4.8zm.8 10.9l1.5-.7-1.5-.8v1.5zm-.7 7.9l1.6-.8-1.5-.8-.1 1.6zm-2.9-7.5l.2.1-.2-.4v-.1h-.1l-.1-.4-.6.6.3.1-1.3.7 1.3 1.1.5-1.7zm-2.4.2l-1.2.8 1.5.9-.3-1.7zm1.9 2.1l.4.9.8-1-1.2.1zm-1.1-.9l-1.2 1.5 2 .5-.8-2zm.2 3.2l.8.1-.2-.9-.6.8zm3.1-4.4h-.8l.5.5.3-.5z"/><path d="M273.9 397.9h0l.6-.9-.8-.1-.1-.5h1l-.9-1.1-.4-.5-.6.8.8.1-.1.2-1.2.8.3.1-.8-.1.9 2.9 1.3-1.7zm2.2-2.8l.8.7.3-1.1-1.1.4zm2.1-9.2l-1.1-.5.2 1.1.9-.6zm-.5 3.5v-1.2l-1.3.6 1.3.6zm2 10.9l-1 .5.8.7.2-1.2zm-.1-9.5l.3 1.2.8-.6-1.1-.6zm-1 10.4l-1.6.5 1.4 1.4.2-1.9zm-3.5-.6l1.1-1-1.5-.2.4-.4-1.7-.2.4 1.4.4-.4.2.7-1.3-.2.9 2.9 1.7-2.5-.6-.1zm-1.7-6.8l.9-.2-2.3-2-.5 1.8-.5-.1.9 2.9 1.7-2.5-.2.1zm2.5 9.8l1-.5-1.5-.8v1.1l-1.2-.2.9 2.9 1.7-2.5h-.9zm-.3 3.5l3-.6-2.3-2-.7 2.6zm3.7-2.5l-1.3-.7-.1 1.5 1.3-.6-.4 1.5 3-.6-2.3-2-.2.9zm3.3-12.1l1-.6-.9-.6-.1 1.2zm3.2 4.9l.4.8.6-.9-1 .1zm-12.3-19.7l-.2 1.2 1.3-.3-1.1-.9zm6.9 3.6l-.9.7.9.5v-1.2zm-1.1-8.9l-1.2-.3.5 1.1.7-.8zm.1-5.3l-.5.7 1 .1-.5-.8zm3.6 4.1l-.8.2.5.5.3-.7zm.8-5.7l.7-.3-.7-.5v.8zm-1.2 11.9l.5-.9-.9-.1.4 1z"/></g><path d="M296.3 303.7c-2.9-10-11.6-39.6-18.2-58.1-5.8-16.3-8.1-32-9-39.4h-75.3c.4 8.5 2.7 20.5 9.8 34.3 12.3 24 32.7 65.8 38 76.9a3.83 3.83 0 0 0 4.3 2l47.8-11.5c2-.4 3.2-2.4 2.6-4.2z" fill="#bd2641"/><linearGradient id="H" gradientUnits="userSpaceOnUse" x1="249.396" y1="311.65" x2="303.46" y2="300.79"><stop offset="0" stop-color="#f25779"/><stop offset=".975" stop-color="#cb1e3a"/></linearGradient><path d="M246 319.4l47.7-11.4c2-.5 3.1-2.5 2.5-4.4l-2.6-7.9-55.8 13.5 3.9 8.2a3.83 3.83 0 0 0 4.3 2z" fill="url(#H)"/><path d="M293.4 295l-55.8 13.5.3 1.3 55.8-13.5-.3-1.3z" fill="#890320"/><linearGradient id="I" gradientUnits="userSpaceOnUse" x1="259.316" y1="259.115" x2="303.252" y2="250.213"><stop offset=".01" stop-color="#9a0c10" stop-opacity="0"/><stop offset=".985" stop-color="#9a0c10"/></linearGradient><path d="M296.3 303.6l-10.4-34.3c-4-13.5-9-28.5-11.7-36.7-2-5.9-3.9-19.4-4.9-26.4h-28.4l27.6 107.7 25.2-5.9c2-.5 3.1-2.5 2.6-4.4z" fill="url(#I)"/><g fill="#890320"><path d="M217.3 232.5c-5.4-13.3-6.1-22.1-5.9-26.3H210c-.2 4.5.5 13.3 6 26.9 8.1 19.9 33.1 72.7 33.4 73.2l1.2-.6c-.3-.6-25.3-53.4-33.3-73.2z"/><path d="M210.6 206.2c0 6.7 1.1 17.2 6.1 26.6 0 0 10.1-1.7 15.7-12 3.6-6.5 4.6-11.6 4.9-14.6h-26.7z"/></g><linearGradient id="J" gradientUnits="userSpaceOnUse" x1="234.581" y1="229.682" x2="230.871" y2="189.886"><stop offset=".01" stop-color="#9a0c10" stop-opacity="0"/><stop offset=".975" stop-color="#730c2d"/></linearGradient><path d="M196.1 219.9c3.8 12.6 8.1 20.5 8.1 20.5s4.6-7.6 23.1-12.2c20.9-5.1 45.3-2.6 45.3-2.6l-3.7-19.5h-74.7a51.53 51.53 0 0 0 1.9 13.8z" fill="url(#J)"/><g fill="#750e29"><path d="M262.6 240.1l-.2 1.1 1-.2-.8-.9zm1.2-5.2l-1.5.7 1.5.8v-1.5zm9.7 21.9l.2-1.7-2 .7 1.8 1zm.2-11.3l-.5 2 1.6-.9.7.3.1-1-.9.3-.9-.8.2-1.7-2 .8 1.7 1zm.3-4.4l-.5 2.1 1.8-1-1.3-1.1zm-5.4-7.9l-.4 1.8-.8-.3.3 1 .5-.5 1.6-.9-1.2-1.1zm-4.3-15.2l-.6 2.1.2-.1-.1.1 1-.1-.2-.4 1-.4-1.3-1.2zm8.2 22.5l-2 .8 1.8 1 .2-1.8z"/><path d="M275.5 261.4l.1 1.9 1.6-.8-1.7-1.1zm5.2 10l-1.7-1.1.2 2 1.5-.9zm-11.2-17.8l.3 1.9 1.6-.9-1.9-1zm.5-2.7l1.5-.9-1.8-1 .3 1.9zm11.3 28.8l1.3-.7-1.4-.9.1 1.6zm5.8-1.7l.2 1.7 1.2-.7-.9 1.4-.3-.2.1.6.1 1 1.3-.7-.3-.2.7.1-1.5 2.5 2.7.4-.9-2.8-.8-2.4-.1.2-1.5-.9zm-16.7-45.1l.2 1.6 1.2-.8-1.4-.8zm-8.5-13.7l-.3-.8-.7.8h1z"/><path d="M269.4 240.6l.1-1.7-2 .9 1.9.8zm-12.8-.9l.6-.7-.8-.2.2.9zm15.4 0l.2-.9.1-.1h-.1v-.4l-.4.2-.5-.2.1.4-.4.2 1 .8zm0-2.3l.8-.7-1.1-.5.3 1.2zm-4.3-5.7l-.7 1 1.1-.1-.4-.9zm5.2 22.1l-.4 1.3 1.2-.1-.8-1.2zm6.6 10.5l-.4 1.3 1.3-.2-.9-1.1zm-6.4-13.1l-.4 1.3 1.2-.2-.8-1.1zm-7.2-1.6l.8-.8-1-.3.2 1.1zm10.3 3.6l-1-.3.1 1.1.3-.3.7 1.6 1.2-1.5-1.6-.4.3-.2zm1.2 5.1l.9-1.1-1.4.1.5 1zm1.1 1.6l.6 1 .8-1.2-1.4.2z"/><path d="M282.7 260.2l-.6-2-1.3 1.6 1.9.4zm-5.4.5l1.2-1.5-2.1-.4.9 1.9zm-5.5-16.9l1.3-1.4-2-.5.7 1.9zm-2-10.4l1.2-1.5-2-.4.8 1.9zm-3.9-9.4l-.3.1.8.5.1-.8-.4.1 1.2-1.2-2-.7.6 2zm6.5 46.7l-1.1.6 1.1.4v-1zm7.2-1.9l.7-1-1.2.1.5.9zm8 7.1l-.3.8.8-.1-1 1.4 1.4.3-.5-1.7-.4-.7h.2l-.4-1.3-.8 1.1 1 .2zm-23.2-28.7l.2-.5-1.2.1.6.7v.1h.2l.1.1v-.1h.5l-.4-.4zm6.2-.6l.1-.7-.7.3.6.4zm-1-16.4l-.8-.1.3.9.5-.8zm-2.7 3.8l-.3.6h.8l-.5-.6zm5.8-.8h0l-.6.9.4.1.1.7-1.3.1.9 1 .4-.9.1.4 1.2-.8-.5-.3 1.3.2-.9-2.9-1.1 1.5zm-5-9.7l.5-.6-.7-.2.2.8zm-1.6 3l-.4-.5-.3.4.7.1zm-7.9 39l.7.1-.2-.7-.5.6zm2.2-7.3l-.8.1.5.5.3-.6zm17.6 6.2l.9.6.2-1.2-1.1.6zm1.5-9.2l-1.1-.4.3 1.1.8-.7zm4.5 27.7l-.8.6 1.1.5-.3-1.1zm3.1 0l-.8.6 1.1.5-.3-1.1zm-12.6-26.4l-.6 1.6 2.1-.3-1.5-1.3zm0 16.3l1.2-.1-.8-.8-.4.9zm.9-3.7l-.1.2-.4-.4-.4.9.7-.1-.1.3 1.2-.1-.9-.8zm16.3 18.9l-.7-1.9-.7-2.1-1.1 1.8h-.7l.3.8.4-.4 1.5.2-.9 1.3 1.9.3-1.2 1.6 1.8.3-.6-1.9zm-5.8-1.1l.3-2-1.7 1 1.4 1zm1-.8l1.4 1 .3-2-1.7 1zm-.9-6.2l.3-2-1.7 1 1.4 1zm-16.2-44.5l-.3 1.1 1.1-.5-.8-.6zm-.7 9.2l-.9.5 1.1.5-.2-1zm-.3-2.9v1.2l1.3-.6-1.3-.6zm7.7 2.3l-.8.8 1 .3-.2-1.1z"/><path d="M273.9 235.7l-1.2-.1.7.9.5-.8zm-7.3-4.9h0l.2-.1.5-.2-.1-.1.2-.2-.9-.3-.2-.1.1.5-.2.8.4-.3zm-.4 8.5l1.1.8.3-1.2-1.4.4-.8.6 1.1.5-.3-1.1zm-1.6-8.8l1-.1-.7-1-.3 1.1zm-5.6-2.1l.4-.4.1.1v-.3l.1-.1.1-.9-1.1.6.2.1.2.9zm9.7-2.9l.8 1.1.6-1.1h-1.4zm24.3 66.6l-.6.7.9.2-.3-.9zm-23.3-77l-.9 1 .2-1-1.9.4 1.4.9-.3.3-2-.9v1.9l-.5.2.2-.3-1.2.1.5.9.2-.3.3 1.5-.5.8-.1-.3-.4.4-.7-.6-.3 1.1.8-.3h.5l.2.2.1-.2 1.6.1-.9-1.1.6-.4 1.5.1-.1.4v-.1l-1.1 1.6 2.4.1.1 1 2.1-1.4-2.2-.9.1 1-1.1-1.3 2.8.5-.4-2.7h-.1l-.9-2.7zm-3 3.7v-.8l1-.7v.1l-.3.4.4.1v.1l-1 .9-.1-.1zm1.3-1.6h0l.1-.1-.1.1zm.1.7l2 .3-1.3 1.1-.7-1.4zm5.9 33.7l2.5-.8-2.2-2.2-.3 3zm-11.5-28.3l-.1-.9-.5.3-.5-.5-.1.9-.1 1 1.1-.4.3.2v-.2l.2-.1-.3-.3zm5.5 6.7l1.6-.5-1.4-1.4-.2 1.9zm-1.6-4.2l-.4 1.8 1.6-.3-1.2-1.5zm5.1 4.7l-1.1 1 1.5.2-.4.4 1.7.2-.5-1.4-.4.4-.2-.7 1.2.2-.9-2.9-1.7 2.5.8.1zm2.4 7.1l-.9.4.4.2.1 1.7 1.6-.9-.7-.4.1-.9 1 .2-.8-2.9-1.8 2.4 1 .2zm.1 3.1l.8.2.6.7.3-.5.9.2-1.8 2.4.4.1-.5.2 1 .5.1-.7 1.7.4-1.6-6-1.9 2.5zm3 6.4l-1 .9 2.1.2-.3-1 .6.1-.8-2.9-1.8 2.4 1.2.3z"/><path d="M275.9 248.2l.8 2.9 1.3-1.1 1.4.4-1.4 1.3h.2l-1 1.1 2 .5-.8 1.2 2.4.4-1.1 1.4 1.9.3-.6-2-.1.1-.9-2.7-.8 1.2-.7-1.4 1.4.1-.5-1.5h.2l-.8-2-.6.7-2.3-.9zm3.9 11.6l2.1-1.7-2.8-1.2.7 2.9zm2.8 2.3l-.3-.8-.5.5h-.1l.1-.9-1.1.4-.3-.1v.2l-.7.2.9.4.2.6-.5-.2.3 1.2-.1.1h.1l.4 1.6 1.2-1.1 1.1.4-.5.5-.2-.1v.4l-.5.5.6.1v.1l-.7.8 1.7.4-.5.8-2.1-2-.3 3 2.2-.8-.1.2 2.4.3-.7.9-.3-.2v.5l-.1.2h.1v.2l-.2-.1.2.9v.2l.5 1.9 1.2-1-.8 1.1.5.1.5.8-2.4.9 1.9 1.9.9-2.7.7-.2-1.3-.2 1.2.2-.5-1.9.1-.1-.1-.1-.4-.9-.4.4-.4-.2.7-.4.2.1-.7-1.8-1-3-.6 1-.2-.5.7-.4-.3-.2-.4-1.2.4.2-.8-2.4-.7.8-.4-.2.5-.4h.2l-.1-.1.5-.4-.9-.4zm-15.5-18.8l.2-1.2-1 .6.5.4-.7-.1.3.9.5-.7.2.1zm-3.3-7l-.6.9h1l-.4-.9zm-2.3-18.1l.5-.7-.8-.2.3.9zm-2.5 2.9l-.3.5h.8l-.5-.5zm5.2 3l.7-.6-1-.4.3 1zm4.3-.8l-.7 1.3h1.7l-1-1.3zm.2 2.4l-1.4.5 1.2 1.1.2-1.6zm2.1-3.5l-1.5 1.3.8.3-.7 1.4 2.2-.1-.6.8.1-.3-.6.2.3.3-1 1.2 1 .2-1 .5 1.5.7v-1.1l1.1.3-.6-3-.1.1-.9-1.1.7.3-.7-2zm11.6 50.3l.8-1.2-1.4.1.6 1.1z"/><path d="M283.6 275.1l.8-1.2-1.2.1-.3-.1.3-.4-2-.4.8 2 .4-.6v.1l.5-.4.7.9zm-6.3-1.3l-.5 1.1 1.4-.1-.9-1zm6.4 4.4l-1.1.6.9.6.2-1.2zm-.9-9.3l.3 1.1.8-.7-1.1-.4zm-20.3-43.2l-2-.6.6 1.7-.9.2.7.8.2-1 .1.2 1.3-1.3zm-8.4-2.2l-1.7-.9-.1 1.3h-.1l.2 1.2.8-1-.2-.1 1.1-.5zm3.9-2.7l-.9.7v-2l-.2.1.1-.4-1.3.6.3.3-1.2.6 1.3.6-.4.6h.9l1.6.3-.2-1.4zm-1.4.7l.3.2-.2.1-.1-.3zm6.7 6.9l-1.4.3 1.1.8.3-1.1zm-7.1-3.6v1.2l.9-.7-.9-.5zm1.7 9.3l-.7.8 1.2.3-.5-1.1zm-6.2-5.1l.4-.7-1-.1.6.8zm-3.5-4.8l-.3.8.8-.2-.5-.6zm-1 6.6l-.2.1-.2-1.3-1.6 1.4 1.9.3.2.2-.1-.7zm6-11l.2.8.7-.9-.2-.1.9-.3-1.1-1.1-.4 1.3h-.2l.1.3zm4.9-2.5l-.9.8.9.5v-1.3zm2.6 1.4l-1.9.5 1.6 1.6.3-2.1zm-1.8 6l-1 .7.9.5.1-1.2zm-4.9 5.1l-.5.8.9.1-.4-.9zm6.7-2l-.6-.4-.1.9.7-.5zm6.3-1.8l.8-.8-1.2-.4.4 1.2zm-9-2.5l1 .1-.4-1.1-.6 1zm5.3 16.4l.1-1.2-1 .7.9.5zm-3.5-6.8l-.6.9 1-.1-.4-.8zm1.3-5l-1.4.3 1.1.9.3-1.2zm-.7 7.2v1.2l.9-.7-.9-.5zm1.7 9.3l-.7.8 1.2.3-.5-1.1zm-5.9-10.9l-1-.1.3.4-.5.5 1.2.3-.3-.7.3-.4zm-4.1-3.3l.8-.3-.5-.5-.3.8zm-1.4 6.1l.7.5-.1-.8-.6.3zm10.2 13.9l.5.8.5-.7-1-.1zm-2.8-4.1l-.3.8.8-.2-.5-.6zm-1.8 6.9l.7.5v-.8l-.7.3zm8.2-28.4l-.4-.8-.6.8h1zm-3.8 6.7l-.9.2.7.8.2-1zm2.7-1.7v-.3l-.3.2-.8-.2.3.6.2.5.2-.2.6.3-.1-.8.1-.1h-.2zm-3.8-5.8l-.5.9 1-.2-.5-.7zm-2.6 7.9l-.8.3.7.7.1-1zm1.2 8.5l-.5.8.9.1-.4-.9zm-3.9-7.2l.2-1.2-1.3.3 1.1.9zm-6.9-3.6l.9-.7-.9-.5v1.2zm1.1 8.9l1.2.3-.5-1.1-.7.8zm9.2-7.9l.8-.8-1.2-.3.4 1.1zm-2.6-5.9l-.5-.8-.4.7-.2-.1v1.2l.9-.7-.4-.2.6-.1zm-3.4 7.9l.1-1-.9.3.8.7zm19 42.1l-.8-.2.2 1 .6-.8zm5.8-9.4l.2-1.2-1.3.3 1.1.9zm-6.9-4.8v1.2l.9-.7-.9-.5zm1.8 9.3l-.7.8 1.2.3-.5-1.1zm-6.3-5.1l.4-.7-1-.1.6.8zm-3.4-4.8l-.3.8.8-.2-.5-.6zm-1.6 7l.7.5v-.8l-.7.3zm12.2-6.5l-.9.7.9.5v-1.2zm-4.9 5.2l-.5.8.9.1-.4-.9zm7.2-1.8l-1.3.3 1.1.9.2-1.2zm-4.9 5.6l-.9-.1.1-.1-.8-.2.3.8.4-.4.3.4-.4.5 1.2.3-.3-.7.1-.5zm-4.2-3.3l.8-.3-.5-.5-.3.8zm-.7 5.8l-.6.3.7.5-.1-.8zm10.1 15.1l.5-.7-1-.1.5.8zm-3.6-4.2l.8-.2-.4-.5-.4.7zm-1.5 6.1l.7.5v-.8l-.7.3zm7.2-23.3l-1.2-.3.5 1.1.7-.8zm-3.4-5.1l-.1-.2h.2l-1-1-.5 1.1.5-.1-.2.3 1.1-.1zm-3.1 7.1l-.9.3.8.7.1-1zm1.5 9.4l-.3-.9-.5.8.8.1zm-4.2-8.1l.3-1.2-1.4.3 1.1.9zm-6.9-3.6l.9-.7-.9-.5v1.2zm1.1 8.9l1.2.3-.5-1.1-.7.8zm9.1-7.9l.8-.8-1.2-.3.4 1.1zm-2.9-6.7l-.4.7-.3-.1v1.2l.9-.7-.4-.2.7-.1-.5-.8zm-3 8.7l.1-1-.9.3.8.7zm7.5 13.9l-.3.9h.9l-.6-.9zm.8 11.7l1.2-.8-1.3-.4.1 1.2zm6.9 1l1 .2-.4-1.1-.6.9zm-3.6-8.1l.4-1-1.2.1.8.9zm12.4 6.2v-.8l-.7.5.7.3zm-11.1 2.8l.7-1-1.1-.2.4 1.2zm3.8-6.3l.2-1-.9.2.7.8zm-6.2 4l1.2-.8-1.3-.4.1 1.2zm7.5 0l-.7 1 .4.1-.6.3.7.5.2-.8.3.1-.3-1.2zm-3.9-8.1l-1.2.1.5.5-.1.5 1-.2-.4-.3.2-.6z"/><path d="M283.5 289.2v-.9l-.7.5.7.4zm-.6-7.1l-.7-.2.1-.5.7.2-.4-1.1-.7.8.4.1-1.7.9 1.4 1.1.2-1.2.2.5.5-.6zm-8.3-1.5l1-.2-.8-.6-.2.8zm4.9 2.6v-.9l-.7.5.7.4zm-.6-7l-.8-.2.3.8.5-.6zm-14.6-2.7l1-.2-.7-.7-.3.9zm4.9 2.8l.1-.8-.7.4.6.4zm4.1 15.3l-.4 1 1.2-.1-.8-.9zm5.1 5.2l.2-1-.9.5.7.5zm-.2-8.8l-.8-.2.1 1.2.8-.5v.1l.7-.5-.9-.4.1.3zm-7.2-6l.2-1-.9.2.7.8zm14.1 7l-.5.8-.2-.2-.2.8 1-.2-.2-.1.5.1-.4-1.2zm-3.8-8.1l-1.2.1.8.9.4-1zm-3.6 10.1l1.2-.1-.8-.9-.4 1zm5.6-3.9l.8-.5-.9-.4.1.9zM258.6 255l1.2-.8-1.3-.4.1 1.2zm6.9 1.1l1 .2-.4-1.1-.6.9zm-4.3-9l.8.9.4-1-1.2.1zm2.4 8.9l.3 1.2.7-1-1-.2zm-1.7-2l-1.3-.5.1 1.2 1.2-.7zm6.4.8l-.7.9.4.1-.6.3.7.5.2-.8h.3l-.3-1zm-9.9-2l-.5 1 1.3-.1-.8-.9zm5.1 5.3l.2-1-.9.5.7.5zm-.2-9.3l.2 1 .7-.5-.9-.5zm0 2.5l-.5 1h1.2l-.7-1zm5-3.8l.2 1 .8-.5-1-.5zm-47.5-27.8l.2-1-1.2.4 1 .6zm25.5-12.2v1.2l-.2.2h.2v.7l.7-.7h.7l-.4.4 1.3.1v.1l.1-.1 1.7.1-.8-1.8 1.2-1.4h-2.6l.8 1.2-.3.4-.2-.5.1-.2h-.1l-.2-.5-.5.6h-.9l.3.6-.1.1-.8-.5zm-18.9 2.1v2.1l1.5-1.3 1.8 1.2-.2-1.8.5-.5-.9-.4v.9l-1.1.6-1.6-.8zm-1.1-1.7l-1.6.8 1.8 1.2-.2-2zm-2.6 4l1.6-1.4-1.6-.7v2.1zm22.9 2.2l-.1-.7.3-.3-.4-.2-.1-.6-.5.4-.6-.3v.8l-.6.5.6.1v.8l.7-.6.7.1zm9.5-2v-.1l-1.6 1.3 2 .4-.1-.4.6.2-.3-1.8-.6.4zm-19.4 3.6l-.4.3-.4-.9-.7.8 1 .2-1.1 1 2 .3-.4-1.7zm27-1.8l.2 1.3 1.5-1-1-.5-.2-1.1-1.4 1.1.9.2zm-47-5.3l-1.3 1.1 1.7.3-.4-1.4zm-17.7 4.9l-.9.1.6.9.3-1zm17.2 11l1 .1-.5-.8-.5.7zm3.7-15.9l-.9.9 1.2.1-.3-1zm17.9 4.9l-1.4.4 1.1.8.3-1.2zm12.3-3.1l-1.3.5 1.1.8.2-1.3zm-15.1 3.3l.2-1.2.7 1.4.9-1.9H235l.2.4-1.3.4 1.1.9zm-5 4.4l-.6.9 1.2.1-.6-1zm11.1-6.9l1.2-.2-.9-1.2-.3 1.4zm3.3-2.1l-.3 1.4 1.2-.3-.9-1.1zm1.8-2.8H244l1.3 1.7.9-1.7zm-8.3 3.2l-.9 1.4-.2-.4-.7.9 1.2.2-.2-.3 1.8-.2-1-1.6zm5.3 2.4l1.4-.1-1.1-1.6-.7 1.2-1.5-.1 1.2 1.8.7-1.2zm-18.7-.2h2.2l-1-1.7-1.2 1.7zm-11.1-1.3l2.2-.1-1-1.7-1.2 1.8zm52.7 2.6h.1-.6l.5.9.2-.4.4 1.9 1.5-1-1.9-.9.3-.4 1.1.3-.3-1.4-1.3 1zm-13-.7l-.8-1-.2 1.2 1-.2zm9.8-5.8l.7.5.2-.8 1 1.4.8-1.3-1.8-.1-.8.2.1-.2h-1.4l.8 1.1.4-.8zm-35.4 13.8l.3-.7-.7.3.4.4zm.7-6.9l.1.8.5-.4-.6-.4zm-15.8-3.9l-.4.7h.9l-.5-.7zm4.1-1.8l.7.9.2-.3.7.1-.4 1.2 1.3-.5-.8-.7.4.1-.3-1.4-.4.3.8-1.2h-3.3l1.1 1.5zm27 23.7l.3-.6h-.8l.5.6zm-6.8-3.4l.7-.3-.5-.4-.2.7zm5.8-11.3l.3-1.4-1.2.6.9.8zm5.6-5.5l.2 1.2.9-.6-1.1-.6zm-8.5-3.1l-.8.9 1.2.1-.4-1zm30.1 4.5l-1.2-.1.3 1 .9-.9zm-28.4-.4l-1.7 1 1.4 1.1.3-2.1z"/><path d="M255.5 217.8l.3.2.3-1.2-.7.3-.1-.4.6-.7-1-.3.1.9-1.5 1.2 2 .4v-.4zm9.3-7.2l1.5-1-1.9-.9.4 1.9zm-46.2 1l-.1-1.2-.9.5 1 .7zm.7-4.3l-.5 1.1 1.1-.3-.6-.8zm-25.1 2.9l.3 1.1.7-.9-1-.2zm15.4 5.3l.2-1-1.2.3 1 .7zm-2-6.4l1.3-.5-1-.8-.3 1.3zm-13.3-.7l1.1-1 .3.3-1.2 1.5.4.1-.6.4 1.6.4-.7-.8 1 .2.1.8 1.4-.9.4.5-1.4.9 1.7 1 .1-1.1.3.3v.1l-.3.3h.2v.6l-.7.5 1.7.4-.2-1.1.9.4v-.5h.1v.3l.2-.1.3.1-.1.1.1.1v.2l-.4.9.5-.1v.2l.3-.2.5-.1-.1-.2.1-.1.4.3v-.5l.3.1-.1-.3.5.1-.2-.6.2-.1-.2-.1v-.1l1.3.2v.3l.8-.5-.7-.4v.4l-.5-1.4.1-.3.7.2-.3-.7-.3.4.3-1.2 1 .2-1.1-2-1.1 1.4.7-1.7H201l-.2.1-2.9-.2h-.5v.1h-3l.9.9-1-.4v1.4zm6.2.7l.1-.5.7.8-.8-.3zm-.6-.7h-.1v-.1l.1.1zm-1.4-.5h-.2.2zm.1 2.4v-.7l-.3.2.1-.6.9.1.5.4v.4l-.3.3.2-.7-1.1.6zm.8 1.4l-.3-.1.5.1h-.2zm2.9-.2h0l.1.2-.1-.2zm.3 0h-.1.1zm.2-3.3l.6.1-.8.3.2-.4zm-.3.5l-.3.1 1.4 1.2-.5.5.2-.7-1.6.7.7.6v.1l-.2.2-.2-.5-.8.7-.5-.3v.4l-.5-1.4v-.1l.4-.2.4.1-.1-.2.4-.3.5.6.4-1.7.3.2zm-1.5-2.2l.9 1.3-.8.1-.4-.8.3-.6zm-3.5.1l.2.2.1 1.2-.9.2.6-1.6zm-.8 2.1l.2-.4.9 1.1-1.2-.4-.5-1 .6.7zm35 2.3l2.8 1.2v-2.7l-2.8 1.5zm-20.1-1.8l-1.8.8 1.8.9v-1.7zm1.8-1.2l.6 1.4.7-1.4.2.5.8-1.5h-1.5l.3.5h-.8l.8-1.3h-3.4l1.8 2.4.5-.6zm7.7-.1v1l.3-.3 1.7.4-.3-1.8-.6.5-.8-.3.6-1.2h-3.2l1.7 2.5.6-.8zm3.6.3l.9-.3-.4-.4.5-1.1h-3.2l1.7 2.6.5-.8zm3 .2v.6l.9-.8.2.5.7-.9-1.2-.2.2.5-.5-.3 1-1.7h-3.2l1.7 2.5.2-.2zm3.9-1l.7 1.3-.4.4 3.1.1-.7-1.5.8-1.3.9 1.7.1-.1.7 1.2 1.1-1.7.9 1.1 1.1-2.2 1.1 1.5 1-1.7h-2.2l.1.1h-3l.9 1.1-1.5.2.5-1.3h-1.6l.1-.1H233l.6 1-1.2 1.4.8-1.7H232l.3-.6-3.2-.1 1.9 2.4.6-1.2zm12.7 1.8l-1-2.5-2.1 2.3 3.1.2zm-19.6 7.5l-.3-.5-.1-.2v.1l-.5-.2.2-.2-1.6-.7.1 2.1 1-.9.1.7.5-.3-.1.2.7-.1zm-3.3-6.2l.1.5 1.1-.7-.8-.4-.1-.2-.1.1-.3-.2.1.4-.4.4h.4v.1zm-6.1 7.4l.4-.4 1.1.7.1-.5.1.1.3-1-.9.1.1.2-.8.3.8-.7-1.4-.6.2 1.8zm-13.1.4l-.5-.2.1-.5-.6.3-.1-.1.2 1.2.9-.7zm1.9-5.4h1.1l-.4-.8-.7.8zm3.7-3.8l.1 1.4-.2.4 1.2-.2-.4-.5.8-.5-1.5-.6zm-1.5-1.5l.5.5-1.5.7 1.2 1 .3-1.6.7.5.5-2.1.6.8-.2-.2.1.6.3-.2.9 1.2.5-.9.1 1 1.3-1.1-1.1-.4.5-1h-3.2l.1.1-1.3.6.6-.8h-2.7l1.2 2 .6-.7zm50.5 3l1.2-.2-.9-1.1-.3 1.3zm7.5 1.5l.5-.4.8.3v-.8l-.5.2-1-.5.2 1.2zm-8.5-3.1l-.4-1-.8.9 1.2.1z"/><path d="M251.5 209.37l.4-.9h.2l.6 1 1-1.5.6.7-2.6 1.4 2.8 1.2v-2.3l.1.2 1.1-2.2.7.9-.3.2.5.1.1.2.1-.1h.2l-.1.1h.9l.2.1 2 .1-.6-1.4.8 1.1.1-.2.9-.2.1 2.5 2.5-1.2-2.4-1.7v-.7l-.9.9.7-1.2h-2v-.1l-.1.1-1 .1.3.5-.4.3-.1-.8.1-.2h-5.4l.8.9-.6.1-.2-.8-.8.6h-1.3l1 2.2zM196 215.5l1.2-1-.6-.1.1-.2h-.9l.1.1h-.2l.3 1.2zm2.1 0l-1.3.1.8.9.5-1zm5.5-.6l-.4.4-.7.3-.3-.2v1l2 .2-.6-1.7zm-5.2 8.8l.1-2.1-.8.6v-1l.1.2.8-.9h-.3l.3-.8-.9.1.5.7h-.7v.1l-1.2.6 1.5 1-.8.6 1.4.9zm2.3-4.1l-.9-.3.8-1.3-.9-.1.3-.5.8-.2-1.1-1.4.7-.3-1.8-.8-.4-.5-.3.7h.5v1.6l1.2-.6-.9 1.8.7-.2.2.3h-.3l.7 1.6.1-.1.1.8.5-.5z"/><path d="M207.4 216l.9-.7-.9-.4v1.1l-.9-.7-.3 1.4 1.2-.7zm-6.7 3.6l-.9.6 1.1.5-.2-1.1zm9.2 4l.8-.9h-1.2l.4.9zm-8.5 1.8l-.5.9 1-.2-.5-.7zm-1.3.4l-.7.2.6.5.1-.7zm1.6 5.8l.8-.4-.8-.3v.7zm-1.1-16.7l.9.5.1-1h.2l.1.3.2-.3h.2l-.1-.2.5-.8-1.2-.1.1.3-.2.1-.9-.3.1.6-.7.3.7.6zm3.1 9.5l.5.8.5-.8h-1zm1.2-6.2l-.1-.8-.5.3.3-.6-.7.1.3.4-.1.1.8.5zm1.8-.7v.9l.9-.5-.9-.4zm-9.2 7.4l1.2-.2-.6-.9-.6 1.1zm22.3-6.3l-1.2-.5.2 1.2 1-.7zm-14.6-1.4l-.3 1.4 1.3-.7-1-.7zm-5.4 5.4l-.2-1.1-.4.3.2-.6-.9.1.4.7-.2.2 1.1.4zm9 2.5l.6.2-.3-.6.2-.3h-.3l-.1-.2-.2.2h-.1l-.3-.4-.5.8.5-.1.1.1-.1.1h.2l.2.4.1-.2zm3.8-3.4l-.2-1.1-.9.6 1.1.5zm11.8.6l.7-1-1.2.1.5.9zm-15.9 7.2v.7l.8-.4-.8-.3zm20.8-5.1l1-.2-.5-.7-.5.9zm-5 1.7v-.8l-.7.3.7.5zm6.4 3.5l.7-.5-.8-.2.1.7zm-25.1-13.7l.4-2.6.2-.5-.6.1.3.3-2 .7.1-.2-.9.1.2.3-.3.1 2.6 1.7zm3.5 4.4l1-.4-.9-.5-.1.9zm-.6-3l.9-.8-1.2-.2.1.2-.3-.8-.8 1h1.2l.1.3-.9.4 1 .8v-.9h-.1zm-6.8-.6l-.9.2.6.8.3-1zm5.3 5.8l-.1.9 1-.4-.9-.5zm-1.3 3.7l1.3-.7-1-.7-.3 1.4zm-6.3 3.5l1.1.5-.2-1.1-.9.6zm10 3.3l.8-.9H209l.4.9zm-3.8-12.7l-.8 1 1.2.1-.4-1.1zm-1.2 6.8l-.1.9 1-.4-.9-.5zm14.7-3.8h-.6l.6.8.3-.6.3.2.2-1-1.2.4.4.2zm-7.7-.1l1.4-1-1.3-.7-.1 1.7zm20.9-11.2h-1.8l.9 1.8.9-1.8zm4.8 8.2l.9-.8.4.2v-.6l.2-.2-1.6-.7.1 2.1zm-10.8-5.4l-.2-.1.1 2.1 1.5-1.4-.5-.2.2-.2-1.1-.2zm19.1 2.2l-1.7 1.3 2 .5-.3-1.8zm6-5.4l-1.6 1.3 2 .5-.4-1.8zm-15.7 8.7l-1.5 1.4 2 .3-.5-1.7zm-6-.3l2 .3-.4-1.8-1.6 1.5zm33.1-1.5v.2l.4-.1.5.1v-.2l.3-.1-.5-.6-.1-.5-.2.1-.1-.1v.2l-1 .8.7.2zm-47-5.9l.6.1-.3.4h.3l-.3.8.5-.1 1.4-.4h-.1l.7-.2-.7-.8-.3.7-.2-.1-.3-1.4-.4.3-.2-1.4-1.5.9 1.3.8-.5.4zm-1.8 2l-.8.2.2.2-1.4.9 1.6.5-.1-1.3.1.2.4-.7zm8.5-1.4l-.8-.3-.1-.8-.5.4-.2-.1v.1l-1.1-.4.1 1.7.3-.3.7.1.1.9.8-.7h.2v-.2l.5-.4zm-2.6 5.4l1.6-1.4-1.6-.7v2.1zm.3-4.2v.3l-.2-.1.1.7v.4l.3 1 .9-.9-.8-.1.8-.5-.2-.1.2-.1-1.1-.6zm-.1 1.3h0zm-1.5-2.1l-.8.9 1.2.1-.4-1zm-7.7 3.6h-1.1l.6 1 .5-1zm-1.3 18.6l.2-.8-.9.2.7.6zm-4.3-3.1v.8l.6-.5-.6-.3zm.4 6.5l.7.2-.2-.7-.5.5zm-7.4-19.6l1.1-.2-.8-.8-.3 1zm51-2.3l-1.1 1 1.4.2-.3-1.2zm-7 .1h-1l.5 1.1.5-1.1zm4.7 7.7l-.3 1 1.2-.3-.9-.7zm-11.6-6.6l1.1.8.2-1.2-1.3.4zm13.6-2.4l.2-1.3-1.4.4 1.2.9zm-14.7.9l-1.4.5 1.1.8.3-1.3zm-8-2.9l.9-.8-1-.4.1 1.2zm3.7-.4l-1-.4.1 1.2.9-.8zm-.9 8.6l-.6.9 1.2.2-.6-1.1zm11.8 7.5l1.2-.3-.9-1.1-.3 1.4zm1.1-9.5l-1.3.6.8.7-.3.2 1.1.5v-1l-.5.3.2-1.3zm-8.2 7.9l.8-.9-1-.3.2 1.2z"/><path d="M240.6 214.5l-.4 1.4 1.2-.2-.8-1.2zm2.9-.7l-.4 1.4 1.2-.2-.8-1.2zm13.3-2.2l.5.9.7-1-1.2.1zm-9.1 2.5l.7-1-1.2.1.5.9zm-10.1 10.4l.8-.2-.6-.7-.2.9zm-4.6-1.1l.5-.6-.7-.1.2.7zm-10-3l-.4.7h.9l-.5-.7zm3.3 4.4l.3-.8-.7.3.4.5zm1.4-6.6l-.7-.4.1.7.6-.3zm-17.9 7.5l-.5.7.9.1-.4-.8zm5.7 2l-.5.7.8.1.3.3.2-.8-.4.2-.4-.5zm1.4-5.1l.6-.4-.6-.4v.8zm-7.3-6.4l-.4-.8-.5.7.9.1zm2.3 3.9l.3-.7-.7.2.4.5zm3.3-8.4l.1.8.6-.3-.7-.5zm-8-.3l.1.6.5-.2-.6-.4zm13.6 25l.8-.6-.9-.2.1.8zm8-3h.7l-.3-.7-.4.7zm-4.9-5l.2-.6-.8.1.6.5zm17.3 7.8l.3-.6h-.8l.5.6zm-5.5-4l.7-.3-.5-.4-.2.7zm26.7-17l.2 1.1.9-.6-1.1-.5zm-9.2-2.3h1.2l-.3-1-.9 1zm-5.7 4.5v.1l.9-.6-1-.6.1 1-1.2.1.7 1.2.5-1.2zm-8.6-4.2l-.5.5-.4-.2.1 2.1 1.5-1.4-.4-.2-.3-.8zm30.1 1.9l.9-.8-1.2-.2.3 1zm.5-3.4l.2-.8-1 .2.8.6zm-1.1-2.2l.2-.9-1 .3.8.6zm-9.9 6.9l.1-.7h.3l-.2-.5.1-.3-.1.1v-.1l-.2.2-.9.4.9.9zm-9 5.8l-1.7 1 1.4 1.1.3-2.1zm5.1.8l.9-.8-.6-.3.2-.7-1.1.5.3.3.3 1zm-2.1-3l-1.1.5.2.2-.6.3.8.6.1-.7.2.2.4-1.1zm-3.9 6.6l-1.4.8 1.1.9.3-1.7zm-4.9-6.8h1.3l-.5-1.1-.8 1.1zm-24.9-4.2l-.4 1.4 1.3-.5-.9-.9zm-9 6.1l.1-.1.2.1v-.7l.1-.3h-.2v-.2l-.5.2h-.3l.1.1-.2.1.5.4.2.4zm11 2.7l.9-.8-1.1-.2.2 1zm2.1-11.2l1.3-.5-.9-.9-.4 1.4zm-5.7 2.2l-.9.5 1 .7-.1-1.2zm7.9 4.2l.2 1 .9-.9-1.1-.1zm-1.9-1.7l-1 1 1.1.4-.1-1.4zm4.3-4.5l.7-.8-1.2-.2.5 1zm-8.3 7.7l.9-.8-1.2-.2.3 1zm-10.9-2.5l-1.2.3 1 .8.2-1.1zm-4.4 5.5l-.4-.9-.6.7 1 .2zm1.3-4l-.1-.2.4.1-.3-.8.4-.2-1.1-.6.2 1-.4.6.9.1zm6-7.3l.2.6-1-.1h.1l-.2-.2v-.2l-.1.1v-.1l-.1-.2-.2-.3.5-.5-1.3-.5v-.8l-1.8.8 1.8.9v.9l.5-.5-.3.5-.3.1.2.2-.1.2.2-.1-.1.1h.2l.5.4v-.3l.3.1.5 1.4.8-1.3.2.5.9-1.4-1.4-.3zm-.3 7.3l.2 1 1-.7-1.2-.3z"/><path d="M224.7 213.8l-.2.5-.1-1.3-1 1 1 .4-.3.7 1.3-.4-.7-.9zm9.2 2.5l1.3-.4-.8-.9-.5 1.3zm-15.6 2v-1.2l-.9.5.9.7zm7.8 4.4l.9-.8-1.1-.2.2 1zm40.4 2l-.9-.2.2.9.7-.7zm-32.9-7.9v-2.7l-1.2.6-.2-.8-1.5 1.5h.1l2.8 1.4zm26.1-7.6l-.2 1.2-.4-.5-1.1 1.8 1.6-.1-.3 1.2 1-.2.1 2.5 2.5-1.2-2.6-1.8v.1l-.5-.7h.4l-.7-.9 1.1-.2-.9-1.2zm-7.3 6.9l.2.1-.2-.1.1.2-.3.2-.6-.8-.2 1.2.9-.2.2.2v.2l.1-.1.3.2.1-.4.2-.1.1.1.1-.7.1-.4h-.1v-2.2l-2.8 1.4 2.4 1.1-.6.1zm14.3-7.8l.1.2h-.5l-.2-1-.8 1 .9.2.3.7.4-.5.1.3.5-.6.2-.3h-.1l1-2h-3.2l1.6 2h-.3zm-63.2 17.4v-.2l-.7.2.3.3-.7.6 1.4.3-.3-1.2zm-4.8-1.2l.6 1 .5-1h-1.1zm2.2 8.2l1.2-.2-.9-.8-.3 1zm-3.3-13.4l.4-.5-.8-.2.3-.1-1-.8.7-.6-1.2-.3.2.4-.9-.1.4.9.5-.9.2.4-.4 1.7.2-.1.5 1.2.9-1zm-.7-.6l.2.5-.8-.2.6-.3zm-1-6.3l.5-.1-.2.6h.8l-.1.2h1.2l-.5-1-.5.6-.5-.9-.1.2-.8-1.2-1 1.8h.2l1 .3v-.5zm8.1 57.4l-.9-.8-.1 1.2 1-.4zm-.5-6.2l-1.4 1 1.6.5-.2-1.5zm10.8 19.5l1.9.7v-1.7l-1.9 1zm.1-14.9l-.2 2.1 1.6-1.2-1.4-.9zm-5-6.2l-1.5-.9-.1 1.9-.9-.2.5.9.4-.6 1.6-1.1zm5.3 12.6l1.5-1.1.7.2-.1-1-.8.4-1.1-.7-.1-1.7-1.8 1.1 1.8.6-.1 2.2zm-1.7-5.1l-.1-1.7-1.8 1 1.9.7zm7.8 19.3l-1.9-.8.4 1.9 1.5-1.1zm4.8 8.3l-1.9-.8.5 1.9 1.4-1.1zM213.7 282l-2-.7.5 1.8 1.5-1.1zm-.2-4.7l-2-.7.6 1.8 1.4-1.1zm20.7 25.5l-.7-1.6-.5-.6h.2l-.6-1.2-.6 1.2h.9l-.1.8.8-.2-.8 1.5 1.4.1zm-7.2.9l.4 1.6 1.1-.9.7.3v-1.2l-.9.7-1.3-.5zm5.7-.9l.4 1.6 1.2-.9-1.6-.7zm-23.1-42.2l.5 1.6 1.1-1-1.6-.6zm.1 6l-1.8 1.1 2 .6-.2-1.7zm-12.7 2.9l.5-.8-.9-.1.4.9zm15.3-2.4v-.9l.1-.1h-.1v-.4l-.4.3-.5-.1.2.4-.4.3 1.1.5zm-.4-2.3l.7-.8-1.2-.3.5 1.1zm-5.1-5l-.5 1.1 1.1-.2-.6-.9zm9.3 22.1l-1-1-.2 1.3 1.2-.3zm7 9.8l1.2-.4-1-.9-.2 1.3zm-7.9-13.5l-.2 1.3 1.2-.3-1-1zm-6.8-1.3l-1-.1.4 1.1.6-1zm8.9 2.8l.3 1.1.2-.3.9 1.5 1-1.7-1.6-.1.2-.3-1-.2zm3.7 3.8l-1.4.3.7 1 .7-1.3zm.6 2.6l.8.9.6-1.3-1.4.4zm4.2-.4l-.9-1.9-1.1 1.8 2 .1zm-4.3-.3l-2.1-.1 1.1 1.8 1-1.7zm-7.8-15.8l-2.1-.2 1 1.8 1.1-1.6zm-4.6-8.4l1-1.6-2.1-.1 1.1 1.7zm8.2 36.5l-1 .8 1.2.2-.2-1zm11.2 8.3l-.6.9h.4l-1.5 1.2 1.5.8v-2l.7.1-.5-1zm-3.9-12.4l-1.2.3.7.8.5-1.1z"/><path d="M211.9 274.1v-.7l-.6.4.6.3zm-3.9-15.2l.4-.8h-.8l.4.8zm-1.7 3.4l-.2.6.8-.1-.6-.5zm5.6-1.7l-.5 1h.4l.2.6-1.3.2 1.1.9.3-1 .1.4 1.1-1-.5-.2h1.3l-1.4-2.7-.8 1.8zm-6.4-8.8l.4-.6-.7-.1.3.7zm-1.5 2.8l-.2.5.7-.1-.5-.4zm4.6-1l.4.3.1-.6-.5.3zm-6.1 41.2h.7l-.3-.7-.4.7zm.8-6.9l.2-.6-.8.2.6.4zm12.5-1.4l-.3 1.2.5-.1-.1.3 1-.3-.2-.2h.2l-1.1-.9zm7 4.6v-1.2l-1 .8 1 .4zm-2.1-10.1l.4 1 .7-.8-1.1-.2zm-3.9 4.1l2-.6-1.7-1.1-.3 1.7zm2.9 14.3l1.2-.3-.9-.7-.3 1zm.2-3.4l-.5-.3-.2.9.6-.2-.1.3 1.1-.3-.9-.6v.2zm10.4 8.1l1.6.8v-2l-1.6 1.2zm-21-39.8l1-.6-.9-.5-.1 1.1zm.8 8l-.8.7 1.1.3-.3-1zm-.5-1.6l1.2-.8-1.4-.4.2 1.2zm7.8-.1l-.7.9 1.1.1-.4-1zm-3.9-7.7l-1.2.1.8.8.4-.9zm-8.3-3.6l1-.7-.9-.5-.1 1.2zm1.6-1.2l1.5-.8-1.6-1.2.1 2zm-2.4-2l1.6-.6-1.4-1.3-.2 1.9z"/><path d="M213.8 264.7l-.9.5.4.1.4 1.6 1.4-1.1-.7-.3-.1-.9h1.1l-1.3-2.8-1.4 2.7 1.1.2zm.6 3.1h.8l.7.7.2-.6.9.1-1.4 2.6h.4l-.5.3 1.1.4v-.7l1.7.1-2.6-5.6-1.3 2.7zm3.9 5.8l-.9 1.1 2.1-.1-.5-1h.9l-1.3-2.8-1.4 2.7 1.1.1zm-1 1.4l1 2.3-2.3-1.7.1 3 2.3-1.2.2.3 1.1-1.2 1.5.2-1.2 1.5h.2l-.8 1.3 2 .2-.6 1.3h2.5l-.9 1.6h1.9l-.9-1.9v.1l-1.3-2.5-.6 1.3-.9-1.3 1.4-.1-.7-1.4h.2l-1.1-1.8-.5.8-2.6-.8zm5.6 10.8l1.7-2-3-.8 1.3 2.8zm3.1 1.9l-.4-.8-.4.5h-.1v-.8l-1 .6-.3-.1.1.2-.6.3.9.3.3.6-.5-.1.5 1.1-.1.1h.1l.7 1.5 1-1.2 1.1.3-.4.6-.3-.1.1.4-.4.7h.6v.1l-.6 1 1.7.2-.4.9-2.3-1.6.1 3 2.1-1.1-.1.2h2.4l-.5 1-.3-.1.1.5-.1.2h.1v.2l-.2-.1.4.8v.2l.8 1.8 1-1.2-.6 1.2h1.9l-.8-1.7.1-.1h-.2l-.5-.8-.4.5-.5-.2.7-.5h.2l-.9-1.7-1.5-2.8-.4 1.1-.3-.5.7-.5-.4-.2-.6-1.1.5.1-1.2-2.2-.5.9-.5-.1.4-.4h.2l-.1-.1.4-.4-.8-.6z"/><path d="M231.4 302.5l.4-2.8.6-.3-1.6-.4.7.8-2.2 1.2 2.1 1.5zm-23.4-31v-1.2l-1 .7.6.3h-.7l.4.8.4-.8.3.2zm-4.3-6.4l-.5 1 1-.2-.5-.8zm4.2-13.6l-.3-.8-.7 1 .9.1-.4 1.3 2.2-.4-1.6-1.4-.1.2zm-1.6 0l-.4 1.4 1.6-.3-1.2-1.1zm-.7 2.9l1.4.9-.1-1.6-1.3.7zm21.9 43.6l.6-1.3-1.4.3.8 1zm.3 1.8l.1.1.3-.3.7.8.5-1.3-1 .3.1-.1-.3-.1.3-.5-2.1-.1 1.1 1.8.3-.6zm-5.7 1.5l1.4-.4-1.1-.8-.3 1.2zm4.9-6.8l.4 1.1.7-.8-1.1-.3zm-24.2-26.3l1 .4-.1-1.2-.9.8zm-3.6-5.8l-.4 1 1-.2-.6-.8zm8.5 4.6l-1.2.5-.7.8 1.1.3-.4-1.1 1.2.7V267zm-6.6-2.1l-1-.3.1.6-.6-.9-.5.9 1.2.1.1.5.7-.9zm2.1 8.6l-.5.9 1.2.1-.7-1zm-4-27.1l-.1-1.5-1.4 1 1.5.5zm5.6 1.9l-.2 2.1 1.6-1.2-1.4-.9zm-6.6-7l-.1 2.1 1.6-1.3-1.5-.8zm5.1 8.4l-.1-1.7-1.8 1 1.9.7zm-4.8-13.7l1.6.5-.2-1.5-1.4 1zm1.4 4.8l.5 1.6 1.1-1-1.6-.6zm.1 6l-1.8 1.1 2 .6-.2-1.7zm2.6.4v-.9l.1-.1h-.1v-.4l-.4.3-.5-.1.2.4-.4.3 1.1.5zm-.4-2.3l.7-.8-1.2-.3.5 1.1zm-5.1-4.9l-.5 1.1 1.1-.2-.6-.9zm2.3 1.4l1-1.7-2.1-.1 1.1 1.8zm-1.1-2.4l.4-.8h-.8l.4.8zm-1.1 3.9l-.6-.5-.2.7.8-.2zm5.1-2.2h0l-.4 1h.4v.1l-.5-.1.4.7-1 .2 1.1.9.3-1 .1.4 1.1-1-.5-.2h1.3l-1.4-2.7-.9 1.7zm-6.1-9.4l-.7-.1.3.7.4-.6zm-2.2 3.9l.7-.1-.4-.4-.3.5zm4.9-1.5l.4.3.1-.6-.5.3z"/><path d="M199.8 243.3l-.1 1.2 1-.6-.9-.6zm.6 9.2l-.8.7 1.1.4-.3-1.1zm-.6-2.8l.1 1.1 1.2-.8-1.3-.3zm4-6.7l-1.2.1.8.8.4-.9zm-8.2-4.7l-.1 1.2 1-.7-.9-.5zm1.1 9.4l-.7.8 1.1.3-.4-1.1zm.4-9.5l1.5-.8-1.6-1.2.1 2zm-2.2-3.9l-.1 1.9 1.6-.6-1.5-1.3zm5.8 3.9l-1 1.2 1.5-.1-.3.4 1.7-.1-.7-1.3-.3.5-.3-.7h1.3l-1.4-2.8-1.3 2.7h.8v.2zm3.4 6.6l-.9.5.4.2.4 1.6 1.4-1.1-.7-.3-.1-.9 1.1.1-1.3-2.8-1.4 2.7h1.1zm.6 3.1h.8l.8.7.2-.6h.9l-1.4 2.6 2.7.1-2.6-5.6-1.4 2.8zm4.2 7.5l-.7.5 1.6.5-.1-1h1.2l-1.2 2.6h.8l-1 1.2 1.5-.1-.3.4 1.7-.1-.7-1.3-.3.5-.3-.7h1.3l-1.3-2.6h.1l-1.3-2.8-1.4 2.7h.4v.2zm-11.5-4.3l1 .5v-1.2l-1 .7zm-3.9-5l1-.2-.5-.7-.5.9zm4.2-12.8l2.2-.4-1.6-1.4-.6 1.8zm.1-.6l-1.2-1.1-.4 1.4 1.6-.3zm.6-4.2l-1.3.7 1.4.9-.1-1.6zm.1 17.7l-.9.8 1 .4-.1-1.2zm-4.9-4l1-.2-.5-.7-.5.9zm10.4 15.5l-1.3.6 1.2.7.1-1.3zm-7.6-2.4l.2 1.2.8-.8-1-.4zm7.6 24.1h-1l.7.7.3-.7zm-4.6-2.8l.7-.3-.5-.5-.2.8zm-.5 6.3l.7.4-.1-.8-.6.4zm-.2-13l-.4.9h.9l-.5-.9zm17 32.8l.5-.8-.9-.1.4.9zm3.6-11.6l1.2.7.1-1.2-1.3.5zm-5.4-2.7l-1-.3.2 1.2.8-.9zm2.2 8.6l-.5.9 1.2.1-.7-1zm-6.6-4.9l-1 .1.7.7.3-.8zm-4.5-3.3l-.1.8.7-.4-.6-.4zm-.5 7.1l.8.3-.2-.8-.6.5zm10.3-7.5l1 .3-.2-1.2-.8.9zm-3.2 5l-.4.9h.9l-.5-.9zm6.7-1.6l.1-1.2-1.3.6 1.2.6zm-7-3.5l.6-.2-.6-.7-.3.8-.3-.1.2 1.2.8-.8-.4-.2zm2.1 9.6l1.2.1-.4-.6.2-.5-.9.1.1-.1-.8-.1.4.7.3-.4.3.3-.4.5zm-3.4-4.4l-.2.9.7-.4-.5-.5z"/><path d="M210 300.1l-.6.4.8.4-.2-.8zm11-8.2l-1.2-.1.7 1 .5-.9zm-6 4.1l-.1-1-.8.4.9.6zm2 8.1h.9l-.5-.9-.4.9zm-4.6-7.4l.1-1.2-1.3.5 1.2.7zm-7.3-2.5l.8-.8-1-.4.2 1.2zm10.9-1.5l-1.2-.2.6 1 .6-.8zm-6.2 2.8l-.8.4.9.6-.1-1zm11.2 11.7l.9-.4-.9-.5v.9zm4.6 1.6l.7.2-.1-.9-.6.7zm-1.5-6.1l.4-.6-.9-.1.5.7zm-14.4-1l1-.3-.8-.5-.2.8zm4.6 1.8l.7.3-.1-.8-.6.5zm-13.2-20.3l.3 1.2 1.1-1-1.4-.2zm7.3 1.2h1l-.5-1.1-.5 1.1zm-4.5-8.6l-1.2.3.9.7.3-1zm2.8 9.7l-.8.6.8.4v-1l.1.2.5-1.1h-1.1l.5.9zm-3.5-3l.3 1.2 1-.9-1.3-.3zm1.7-7.1l.7.5v.2h.2l.1.1v-.2l.5-.1-.4-.3.1-.5-1.2.3zm-4 6.7l-.3 1.1 1.2-.3-.9-.8zm4.6-3.7l.6-.6-1-.3.4.9zm0 1.5l-.3 1 1.2-.2-.9-.8zm5.7 3.8h.3l-.5-1.1-.5 1h.4l-.5.3.8.4v-.6zm-1-7.4l.7-.6-1-.3.3.9z"/></g></svg>