<svg xmlns="http://www.w3.org/2000/svg" viewBox="0 0 480 480" xmlns:v="https://vecta.io/nano"><path d="M285.43 397.53l-.01-.23c-.01 0-.01.06.01.23zm64.67 27.5c-.3-2.4-1-6.4-2.7-9.1-2.2-3.4-26.9-10.6-33.9-12.7-1-.2-2.2.1-2.8 1a28.06 28.06 0 0 1-.6.9c.5-1.28.7-2.18.7-2.2l-2.3-11.2.47-.1c1.1-.2 1.8-1.3 1.6-2.4l-1.17-5.47c5.75-2.12 7.46-11.3 6.87-17.63-1.3-15.2-4.4-46.6-8-59.9-6.4-23.7-30.5-75.8-40.2-98.3h-3.23c.01-.03.02-.07.03-.1h-70.6c-5.6 29.9-8 55.8-12.7 67.6-9.3 13.7-45.8 12.2-60.7 23-6.25 4.52-8.14 9.42-6.95 18.32l-4.65 1.38c-1.2.2-1.8 1.3-1.5 2.4l.1.38-18.14 5.95c1.47-1.2 3.12-1.22 3.94-2.05.5-.6.7-1.6 0-2.1-1-.62-3-1.55-5.68-2.5-.06-.75-.3-.86-.45-.82-.16.02-.3.24-.3.24-.08.1-.13.17-.17.26-3.67-1.24-8.42-2.47-13.6-3.07-1.1-.1-2 .7-2.3 1.6l-14.8 56.9c-.3 1.1.3 2.1 1.4 2.3 2.4.6 6.3 1.3 9.5.7 4-.9 19.4-21.4 23.8-27.2.17-.26.3-.54.38-.83l22.6-6.65.1.4c.3 1.1 1.4 1.7 2.5 1.4l5.78-1.6c5.12 6.07 15.27 6.26 21.82 6 16.5-.8 40.7-14.5 56.1-19.8 19.37-6.6 33.05-19.56 38.77-35.82 8.82 15.57 16.36 29.42 18.13 34.22 2.9 7.4 2 40.1 8.9 51.9 3.6 6.1 7.5 8.8 10.3 8.9 1.5.1 3.2.05 5-.07l1.4 5.97c.2 1 1.2 1.7 2.3 1.5l.54-.1 2.36 13.5c-.06-.03-.12-.07-.18-.1-.7-.3-1.8-.1-2 .8-.6 2.8-.8 11.6 1.6 21 .5 1 1.5 1.6 2.5 1.6l58.4-6.2c1.1-.1 1.9-1.1 1.7-2.1zm-61.13-14.22c1.74 1.28 3.36 2.23 4.86 2.87-2.78-.24-3.88-1.8-4.86-2.87zm40.8 19.55l.13-.03-.13.03zm-7.46.3l.1-.02h-.02zM100.9 322.74l.3-.06c-.01-.01-.1 0-.3.06zm-40.96 33.9l-.02.13c0-.01 0-.02.01-.02l.01-.1zm2.34-7.03l-.02.1v-.02zM262.03 206.7h-.01zm-139.3 139.2l.05.05-.3-.3.26.24z" fill="#fff"/><path d="M351 424.86v.07c-.37-2.2-.27-4-1.42-6.5.18.38.01-.2.05-.17-.53-1.44-1.42-2.9-1.7-2.76-.22-.3-.38-.46-.5-.56-.1-.1-.17-.18-.2-.24-.07-.1-.02-.12-.05-.22-.07.1-.92-.46-1.67-.84l.37.15c-.72-.4-1.45-.74-2.2-1.07l.33.4c-1.12-.6-.17-.4-1.3-.85l-.06.2c-1.6-.74-2.44-1.38-3.97-2.13-6.57-2.56-13.9-4.3-20.04-6.53l-.23-.22c-.06-.24-1.8-.2-2-.47l-.75-.12c-.2-.1-.6-.27-.24-.2-.67-.2-.7-.18-1.2-.26l-.34-.17a1.57 1.57 0 0 0-.27-.1l-.25-.07c-.76-.1-1.53.01-2.22.36-.01-.01-.01-.03-.02-.05-.26-.96.08-.7-.27-1.68l.02-.4c-.07-.44-.18-.3-.23-.78.07.02-.07-.62.04-.35-.12-1.1-.6-2.18-.72-3.65-.18-.3-.26-1.02-.4-1.24.04-.05-.3-1.45-.01-.66.02.07.05.2.02.2l.1.08c-.02-.5-.15-.92-.28-1.35.32-.1.7-.23.96-.42l-.14-.08c.82-.47 1.1-1.12 1.24-1.68.07-.3.1-.58.1-.9a4.95 4.95 0 0 0-.04-.51c-.02-.12-.03-.25-.03-.4l.04.01c-.67-1.3-.22-2.25-.88-3.6.08.17.06-.1.1-.08-.07-.26-.15-.53-.23-.76.43-.22.87-.46 1.25-.75.44-.35.9-.7 1.25-1.1.4-.4.72-.84 1.05-1.28 1.28-1.8 2.02-3.84 2.55-5.9a28.17 28.17 0 0 0 .81-6.24 29.19 29.19 0 0 0-.12-3.11l-.27-2.97-.62-5.82c-.01-.25-.06-.7-.1-1.08l-.08-.5c-.02-.13-.04-.2-.04-.2l-1.43-13.98s-1.83-16.95-4.02-27.34c-1.05-5.2-2.22-8.72-2.2-7.8-.03.94 1.15 6.26 2.5 19.1l-.1-.34 2.32 17.65c-.2.86.65 6.27.74 8.07l-.04-.17c.7 4.64.76 9.62 1.35 14.1-.04-.17-.13-.26-.22-1.3.15 1.65.4 3.58.4 5.07.01 1.52-.14 2.66-.23 2.77-.16 1.9-.54 3.96-1.27 5.92-.34 1-.83 1.92-1.37 2.8-.57.84-1.23 1.6-2 2.17-.18.16-.4.25-.6.38-.2.12-.4.25-.6.32l-.63.25c-.22.08-.5.14-.73.22l-2.82.8-4.56 1.26.32-.12c-2.75.82-3.6.84-6.72 1.55-.18.01-.4.04-.37.03-1.5.4-3.75.78-5.92 1.1s-4.28.5-5.52.65l-.17-.1c-2.03.16-4.13.25-6.08.12.68.06 1.5.08 2.24.1-.2.1-.6.1-1.13.08-.27-.01-.6-.02-.9-.05-.3-.03-.64-.1-1-.2-1.42-.44-3.06-1.6-4.66-3.1-2.8-2.93-5.68-6.38-6.73-10.68-.7-1.97.7 1.7-.22-1.27.13-.14.48 1.37.4.56a56.11 56.11 0 0 1-.57-2.04c-.16-.65-.26-1.3-.4-1.95l-.85-4.57.1-.17c-1-4.82-1.04-9.23-1.58-12.47-.56-5.06.06-3.43-.64-8.7l-.01-2.07c-.18-2.27-.35-1.6-.5-4.13.12.14-.27-3.2-.01-1.73-.1-1.43-.3-2.88-.56-4.36-.17-.75-.27-1.5-.5-2.27l-.37-1.17c-.12-.4-.3-.73-.47-1.1l-1-2.23-1.1-2.25-2.35-4.84c-.93-1.36-2.6-4.76-3.33-5.75-.02-.22-3.6-6.67-1.4-3.03.2.3.5.88.44.86l.35.4c-1.06-2.25-2.2-4.16-3.35-6.1-.63-.6-1.3-1.1-1.63-.95-.37.16.1 1.8.68 3.44l.55.97 7.07 13.05 1.6 3.24.78 1.6.68 1.6.66 1.6c.15.53.3 1.05.44 1.6.2 1.12.4 2.22.53 3.35l-.03.8c-.14.36.87 4.95.73 5.67l.3 2.1c.01.6.08 1.86-.06.8.16 1.96.2 2 .38 3.42l.05 2.12c.3 3.88.66 7.47 1.16 11.1.52 3.63 1.05 7.32 1.97 11.36.2 1.23.62 2.57.98 4.02.5 1.42.93 2.98 1.76 4.5l.58 1.17.68 1.1c.48.74.98 1.48 1.54 2.2 1.12 1.43 2.38 2.84 3.93 4 .77.58 1.6 1.1 2.54 1.48.47.2.95.35 1.47.45.5.12 1.07.12 1.5.13 1.28.05 2.55 0 3.8-.08.03.1.1.2.12.2l.5 2.25.38 1.57.18.7c.07.24.1.45.25.84.28.7.85 1.2 1.4 1.43.56.23 1.08.2 1.38.1.3-.1.4-.23.3-.34s-.42-.18-.84-.44c-.4-.27-.9-.8-.8-1.6l.06.05c-.18-1.26-.33-2.04-.76-2.84.25-.2-.2-1.02-.18-1.33l.03.02c-.13-.23-.2-.48-.23-.74 3.32-.3 6.37-.8 8.94-1.28a310.57 310.57 0 0 0 11.42-2.43l5.78-1.43c.07.44.24.92.14 1.1 0 0 .14 1.05.37 1.25-.16-.18-.08.4-.25.26.2.24.46 1 .4 1.35l-.03-.06a2.97 2.97 0 0 0 .06.43l.06.3c.02.1.04.22.03.33-.01.23-.13.5-.37.54.1.1-.17.17-.04.3a.51.51 0 0 1-.21.1c-.13.03-.26.05-.38.07-.25.03-.48.05-.7.07-.42.04-.74.1-.88.43-.5.13-.6-.01-.87.02l.1-.05a21.96 21.96 0 0 1-1.88.43c-.33.13-.34.4-.97.47.18-.15-.07-.07-.3-.02.14-.05.18-.1-.13-.1-.04.04-.1.07-.16.1 0-.01-.02-.01-.01-.02-.38.12-.3.14-.12.1-.01.02.01.03.07.05-.43-.05-1.1.24-1.2.08-1.15.28-1.94.64-2.9.9-.13-.07.08-.2.35-.3l-.68.18c-.02-.13.38-.16.58-.23-.86-.04-1.64.56-2.63.57l-.18.15h-.06c.01.05-.18.17-.32.22-.16-.1-.04-.27-.52-.16-.4-.03-1.05.28-1.53.44.27-.04.2.05.1.1-.24.05-.4-.03-.57.06l-.05-.15c.12.13-.58.3-.66.37-.16-.1.35-.18.4-.27l-1.42.32c-.48.22.12.13-.1.3-.44.12-.85.32-1.38.34l.2.1c-.82.28-1.32.37-1.9.35-6 2.43-1 1.8-1 1.8 2.52-.2 3.7-.88 6.6-1.6 2.58-.47 3.32-.35 5.96-1.02 1.27-.25 2.62-.6 3.85-.88.55-.33 1.63-.35 2.3-.67l.3.06c.23-.1.5-.2.76-.2l-.01.04c.34-.16.76-.2.93-.28l-.01.04.4-.1-.05.06c.02-.01.04-.01.05-.02.47 2.07.93 4.12 1.2 6.04l-.05.17c-.1.1.38.93.3 1.08l.14.4c0 .12.03.36-.04.17.07.38.1.38.2.65v.42c.03.2.07.37.1.55a6.21 6.21 0 0 0 .1.46c.01.02 0 .04 0 .06l-.1.44c-.1.12-.18.24-.25.35-.16.27-.32.54-.5.8-.67 1.03-1.45 2.03-2.48 2.97-1.3 1.06-3.2 2.5-5.4 3.54-2.17 1.03-4.65 1.7-6.4 1.85a6.27 6.27 0 0 1-1.62-.03c-.26-.12-.55-.25-.87-.43-.66-.34-1.4-.78-2.1-1.2-.12-.13-.23-.24-.35-.38-.4-.44-.77-1-1.47-1.5-.04-.62-.13-1.33-.13-1.33-.27-2.4-.66-3.85-1.15-6.18-.18-.55-.4-1.02-.62-1-.52.07-.07 2.3-.07 2.3l-.03-.02c.1.44.22.88.26 1.4l.05-.2c.24 1 .33 1.6.37 2.28l.7 2.4c-.44-.15-.86-.18-1.37-.1-.6.12-1.16.47-1.48 1-.16.25-.25.6-.3.84-.04.2-.1.4-.1.58-.06.38-.12.75-.15 1.12-.15 1.48-.16 2.92-.05 4.3-.03.18.05.65.07.64.03 1.7.14 3.37.3 5.05 0 0 .13 1.53.47 3.5a43.22 43.22 0 0 0 .63 3.17c.13.54.25 1.08.4 1.6l.2.75c.04.14.08.27.1.4.03.2.17.34.25.5.67 1 1.66 1.4 2.28 1.44.2.02.36.01.5-.01-.02.05.1.08.27.1-1.58.7 3.8.33 3.8.33 5.42-.26 8.16-.97 14.57-1.75 5.65-.53 7.17-.42 13-1.15 2.8-.27 5.76-.65 8.48-.97 1.27-.35 3.58-.38 5.1-.72l.6.06c.52-.12 1.14-.22 1.67-.2l-.03.04c.78-.17 1.67-.2 2.06-.3l-.03.04.96-.12-.16.07a40.51 40.51 0 0 1 4.03-.49l-.12-.13c1.34-.06 2.25-.2 3.13-.32l1.34-.17c.62-.05 1.45-.32 2.07-1l-.01.06c.54-.67.72-1.53.55-2.27zm-61 8.73c-.01-.01-.02-.01-.03-.02.07-.03.1-.06.03-.1-.13-.08-.64-.14-1.35-.64-.34-.25-.75-.66-.85-1.23l-.24-2.38.04.1-.06-.4-.02-.15c.01-.08-.07-.22.07-.18.1 0 .17-.01.25-.01l.63-.06a27.11 27.11 0 0 0 2.3-.32c.26.15 1.82-.15 2.34-.14l-.05.02c1.34-.25 2.8-.14 4.08-.38-.05.02-.07.07-.37.1.94-.1 2.24-.26 2.32-.17 2.26-.23 5.42-.47 6.85-.76l-.1.04c.82-.18 1.07-.1 2-.25.05.01.12.01.1.02.9-.2 2.62-.25 3.35-.37l.05.06 1.8-.18-.67.05c.22-.2 1.37-.01 2.65-.24 1.22-.1 2.43-.6 3.7-.63.6-.14-.52.2.38.04.04.1-.4.1-.18.15.88-.13 1.46-.03 2.54-.2l.05.07c1.4-.26 2.7-.15 3.63-.36 1.46-.2 1 .13 2.52-.15l.6.05c.65-.04.46-.17 1.2-.18-.04.07.92-.03.5.07 1.65-.05 3.32-.44 5.5-.47.46-.17 1.55-.2 1.9-.32.06.05 2.18-.2.97.04-.1.02-.3.03-.28.01l-.14.1c1.24.03 2.23-.28 3.45-.37-.36.01-.84.06-.53-.02l1.13-.1-.23.08 1.7-.12-.24-.06c.83-.04 1.13.07 2.05-.13.42-.1-.8-.03.08-.13l3.7-.18c.02-.1.13-.13.14.01l-.07.05c.01.02.02.04.02.06l.03.17c.02.12.03.2.04.28.01.14 0 .22-.01.3-.02.14-.05.28.1 1 .05.08.1.15.13.2.1.4-.07.54-.14.62-.1.08-.14.22-.55.55.18-.1.24-.1.2-.03-.03.07-.2.2-.47.26l.1-.1c-.26.08-.42.1-.7.13.23-.06.12-.12-.47-.04l.4-.13-1.1.25c-.87.01-2.22.26-2.58.2 0 0-1.85.15-2.26.3.36-.1-.66-.03-.37-.14-.47.13-1.88.34-2.45.32l.1-.02c-2.1.14-3.57.5-5.45.6.1.08-.9.14-.65.22-1.93.32-3.56.15-4.23.57-.88.1-1.06.03-1.5.06l.2-.04-3.36.38c-.6.1-.7.27-1.8.35.35-.1-.1-.04-.5 0 .26-.04.34-.07-.2-.05-.07.03-.2.05-.3.07-.01 0-.03-.01-.02-.01-.68.1-.56.1-.24.08-.02.01.01.02.1.03-.72-.01-2 .22-2.08.12-2.06.24-3.53.5-5.24.74-.2-.04.2-.13.7-.2l-1.22.15c0-.08.7-.12 1.07-.18-1.46.02-2.98.45-4.7.5l-.35.1h-.1c.01.03-.37.12-.62.16-.25-.04 0-.16-.84-.07-.67 0-1.9.23-2.76.36.47-.04.32.02.12.06-.42.05-.67 0-1 .07l-.05-.1c.18.07-1.1.2-1.24.27-.25-.04.65-.13.75-.2l-2.53.28c-.9.17.17.07-.25.2-.8.1-1.56.25-2.48.3l.3.05c-1.5.22-2.38.3-3.4.33-3.2.54-4.73.86-5.3 1.05-.01-.03-.01-.06-.04-.08zm.68-14.4h-.01l.1.02-.02.02c.14-.01.27.03.37.1l.02-.08c.2.2.35.05.52.25l-.01.02c.36-.08.34.34.7.28-.04.01-.01.05-.02.06.13.05.26.1.35-.04.1.05.04.1.02.15.04-.06.13-.05.2-.01l-.05.01c.07.03.14.06.2.1l.04-.14c.08.1-.07.16.05.2l.06-.1c.13.1.1.32.18.47.5.4 1.23.66 1.5 1.27l-.05.08c-.1.1.25 0 .18.1l.1.01c0 .03.01.08-.04.07.04.05.06.04.12.05l-.02.1c.1.24.38.3.5.56.06.36.5.8.75 1.07.42.36.2 1.1.58 1.5-.01.02.04.05.06.04.05.15.1.3.14.45a5.84 5.84 0 0 0 .27.7c-.86.08-1.7.16-2.53.28-.15-.01-.5.07-.5.08l-4.04.35-2.93.28c-.34-2.35-.52-3.93-.9-5.63.25-.32-.16-2.2-.1-2.85l.03.06a4.07 4.07 0 0 1-.08-.61.78.78 0 0 0 .09.03c.5.2.76-.03 1.38-.03.53.1.64.3 1.2.34.25.07.53.1.8.15.15-.1.32.1.5.03l.03.1c.06-.02.12-.02.16.03v.02c.06.01.13.07.18.05zm-3.94-7.3c.02-.16.03-.34.06-.5l.06-.34c.02-.1.1-.18.2-.2.06-.04.3-.03.42.02.14.07.37.23.6.47.47.5 1 1.12 1.6 1.6.57.48 1.2.8 1.68.95l-.15-.01c.3.08.52.15.72.22.2.05.4.1.57.16.37.1.77.2 1.4.2.07.03.15.04.14.05.3-.02.67-.04 1.06-.08.4-.02.8-.07 1.2-.12.82-.1 1.57-.27 2.02-.38l.08.1c.74-.2 1.47-.4 2.2-.7l-.82.26c.17-.4 1.73-.34 3.14-1.3 1.43-.68 2.37-2.1 3.66-3 .48-.6-.36.6.43-.2.13.1-.34.42-.03.33.8-.8 1.5-1.1 2.32-2.23l.13.04c.5-.76 1.05-1.42 1.52-2.04.1-.16.23-.3.33-.46.1-.13.14-.18.23-.26a5.21 5.21 0 0 1 .52-.41c.64-.28.94-.1 1.14-.02.1.07.46.26 1.38.4l.65.37c.76.26.6-.03 1.45.3-.01.01 0 .02.02.04-.01.07-.02.15-.04.23-.18.26-.37.26-.46.6-.08.13-.13.3-.18.44.08.12-.1.18-.04.3h-.08c.02.04.02.1-.02.1h-.02c.03.06-.02.1-.01.13l-.02-.01-.02.05-.02-.02a.23.23 0 0 1-.07.22l.08.04c-.16.1-.02.22-.2.3l-.02-.01c.12.26-.26.17-.15.43-.01-.03-.04-.01-.06-.02-.02.08-.04.17.1.25-.03.05-.07.02-.13-.01.07.03.07.1.05.14l-.02-.03-.04.13.14.04c-.07.04-.16-.06-.16.01l.1.05c-.07.08-.25.04-.37.1-.23.32-.15.84-.5 1.06l-.1-.03c-.12-.05.12.18.01.13l.03.06c-.03 0-.06.01-.08-.02-.02.03 0 .04.02.1h-.1c-.13.1-.05.3-.15.43-.24.1-.27.5-.3.72.03.35-.58.42-.53.8-.02 0 0 .04.02.05l-.15.24s-.67 1.18.75.76l.02.02c.13-.1.2-.18.1-.34.16.07.07-.1.14-.1l.01.01c-.07-.14.2-.12.12-.25.01.01.05.03.04.05.01-.07.02-.17.1-.12.05-.15.2-.32.1-.5v.02c-.07-.1.02-.07 0-.16.01 0 .02 0 .03.01-.07-.1.07-.17.05-.23l.06.03.04-.12-.03.03c-.16-.1.15-.03.08-.16.06-.06-.26-.33-.14-.36-.06-.08.1.1.08.01.1.04.04.05.12.07-.01-.08.13-.04.1-.14l.07.03c-.08-.15.17-.12.1-.24-.01-.12.23.04.15-.12h.1c.04-.03-.1-.1-.03-.1.05.03.07-.03.1.02.14-.05-.02-.27.2-.32-.1-.1.01-.12-.07-.18.05.02.08-.13.14 0 .01.01 0 .02-.02.01l.06.04c.16-.01 0-.17.06-.24-.03.01-.04.04-.08 0l.04-.06.05.04.1-.1h-.08c.06-.03.2.01.12-.1-.04-.05-.12 0-.1-.06.08-.04.2-.1.27-.18-.08-.03-.07-.05-.07-.1l.07.03c-.04-.14.16.04.14-.1l.04.03-.13-.1c-.1-.15.16.03.03-.16-.01.04-.15-.06-.1-.1l.06.04c0-.03-.02-.05 0-.06.03.03.1.06.1.01l.07.07-.08-.13c.1-.02.05-.15.16-.12 0 0 .1-.1.02-.17.05.05.1 0 .17.06-.05-.07-.07-.18.03-.18h0c.14-.1.01-.27.16-.34-.08-.03-.01-.07-.1-.1-.04-.17.3-.1.03-.32.01-.06.1-.03.13-.05h.01c.03-.1.04-.15.1-.22-.01-.05-.15-.13-.08-.18.04.05.05.02.06-.01 0 .02.02.04.07.02-.01-.01-.02-.03-.03-.04.01-.04-.01-.04-.03-.03-.01-.01-.02-.01-.04-.01.1-.01.06-.12.16-.08.04-.14-.01-.28.01-.4.06.01.1.06.1.1l.02-.08c.07.04.02.06.02.1.16-.03-.02-.24.14-.3l-.05-.05h.01c-.03-.02-.06-.06-.06-.08.07.02.14.08.17.02.08-.01.03-.13.03-.2-.03.02-.06 0-.07-.03.01-.03.08-.01.06-.04l.1.04c-.08-.03-.05-.1-.08-.14.07.02.03.07.08.1.05-.1.02-.05.07-.16 1.64.56 3.44.84 5.5 1.66-.01.04-.01.07-.02.1-.18.26-.36.26-.45.6-.08.13-.12.3-.18.44.08.12-.1.18-.03.3h-.08c.02.04.03.08-.02.1l-.02-.01c.03.06-.02.1-.01.13l-.02-.01-.02.05-.02-.02a.24.24 0 0 1-.07.22l.08.03c-.15.1-.02.22-.18.3h-.02c.13.26-.26.17-.15.43-.01-.03-.04-.01-.06-.02-.01.08-.04.17.1.25-.03.05-.07.02-.13 0 .07.03.07.1.05.14l-.02-.03-.04.13.14.04c-.07.04-.16-.06-.16.01l.1.05c-.06.08-.25.05-.37.1-.22.33-.14.83-.5 1.06l-.1-.03c-.12-.05.12.18.01.13l.03.06c-.03 0-.06.01-.08-.02-.02.03 0 .04.02.1h-.1c-.13.1-.05.3-.15.43-.23.1-.27.5-.28.72.04.35-.58.43-.52.8-.02 0 0 .04.02.05l-.14.24s-.65 1.18.76.75l.02.02c.13-.1.2-.18.1-.34.16.06.07-.1.14-.1l.01.01c-.08-.14.18-.12.12-.25.01.01.05.03.05.05.01-.07.02-.16.1-.12.05-.15.2-.32.1-.5v.02c-.07-.1.02-.07 0-.15.01 0 .02 0 .03.01-.07-.1.07-.17.05-.23l.06.03.04-.12-.03.03c-.16-.1.14-.03.08-.16.06-.06-.26-.32-.14-.36-.06-.08.1.1.08.01.1.04.04.05.12.07-.01-.07.13-.04.1-.14l.07.03c-.08-.15.17-.12.08-.24-.01-.12.23.04.15-.12l.1.01c.03-.03-.1-.08-.03-.1.06.03.07-.03.1.02.14-.06-.02-.27.2-.32-.1-.08 0-.12-.07-.18.05.02.08-.13.14 0 .01.01 0 .02-.02.01l.06.04c.16-.01 0-.17.06-.24-.03.01-.04.04-.08 0l.04-.07.05.04.08-.1-.08-.02c.06-.03.2.01.12-.1-.04-.05-.12 0-.1-.06a.95.95 0 0 0 .27-.19c-.08-.03-.07-.05-.07-.08l.07.03c-.05-.14.16.04.14-.1l-.08-.06c-.1-.15.16.03.03-.16-.01.04-.16-.06-.1-.1l.06.04c0-.03-.02-.05 0-.06.03.03.1.06.1.01l.07.07-.08-.13c.1-.02.05-.15.15-.12 0 0 .1-.1.02-.17.05.05.1 0 .17.06-.05-.06-.07-.18.02-.18l.01.01c.14-.1.01-.27.16-.34-.08-.03-.01-.07-.1-.1-.04-.17.3-.12.03-.3.01-.06.1-.03.13-.05l.01.02c.03-.1.04-.15.08-.22-.01-.05-.15-.13-.08-.18.05.05.05.02.06-.01 0 .02.02.04.07.02-.02-.01-.02-.03-.03-.04.01-.04-.01-.04-.03-.03-.01-.01-.02-.01-.04-.01.1-.01.06-.12.16-.08.04-.14-.01-.28 0-.4.06.01.1.06.1.1l.02-.08c.07.04.02.06.02.1.16-.03-.02-.24.14-.3l-.05-.05h.01c-.03-.01-.06-.06-.06-.08.07.02.14.07.17.02.08-.01.03-.13.02-.2-.03.02-.06 0-.07-.03.01-.03.08-.01.06-.04l.1.04c-.08-.03-.05-.1-.08-.14.07.02.03.07.08.1.04-.1.02-.05.07-.16-.04-.1-.08-.03-.15-.1v-.04c.65.12 1.5.45 1.87.43.04.1 2.55.83 1.06.56-.13-.02-.34-.1-.32-.13l-.2.06c1.37.68 2.66.73 4.07 1.23-.4-.18-.97-.35-.57-.3l1.32.46-.3.01 1.94.72-.23-.2c.94.4 1.2.7 2.34.93.52.08-.85-.5.17-.16l4.68 2.04c-.1-.2.33-.01.78.14v.14c1.74.55.5.5 2.2 1.1l-.18.01.53-.03c1.54.5.68.58 2.32 1.16-.6-.33-.1-.42.53.1l-.23-.02c.38.23.5.3.67.48-.1-.05-.16-.04-.13.03.02.04.04.08.06.13.03.06.07.07.17.24-.12-.13-.22-.13-.3-.15.05.03.1.04.15.1l.2.23c.14.15.26.33.4.5.35.92 1 2.4.95 2.84l.28 1.12c.06.26.13.52.2.76l-.83.01c-5.67.46-11.73 1.3-17 1.6l-.24-.07c-.1-.12-1.44.32-1.65.22l-.6.1c-.17-.01-.54 0-.24-.06-.57.05-.58.07-.98.14l-.62-.02c-2.24.14-4.13.47-6.48.65-2.84.1-8.15.73-11.2 1.1-3.26.44-6.96.52-10.47.8a3.3 3.3 0 0 0 .13-.38l.03.01c-.01-.3-.05-.47-.24-.6.15-.08-.05-.23-.03-.3h.02c-.2-.1-.02-.37-.2-.48.02 0 .06-.01.08.02-.07-.1-.17-.24-.08-.3-.13-.26-.27-.64-.5-.74h.03c-.15-.04-.08-.1-.18-.2.01-.01.01-.02.02-.02-.15-.05-.17-.3-.26-.34l.05-.04-.13-.2.03.08c-.17.07.01-.2-.18-.3-.06-.15-.5-.05-.5-.23-.1-.01.15-.02.03-.08.08-.06.08.01.13-.06-.1-.07-.02-.2-.15-.28l.06-.05c-.22-.06-.13-.33-.3-.34-.16-.1.1-.24-.14-.3l.03-.12c-.04-.07-.13.04-.16-.06.05-.04-.04-.12.04-.12-.07-.22-.38-.23-.47-.53-.13.05-.18-.1-.28-.07.03-.04-.2-.2 0-.18.02 0 .03.02.02.03l.06-.04c-.02-.22-.26-.15-.37-.26.02.05.07.08.01.1l-.1-.1.06-.03-.15-.17-.02.08c-.06-.1-.01-.22-.17-.22-.08.01.02.15-.1.1a1.99 1.99 0 0 0-.35-.44c-.03.08-.07.05-.12.04l.04-.07c-.22-.02.03-.18-.17-.22l-.08.07c-.22.03 0-.18-.27-.1.07.03-.05.16-.12.08l.06-.05c-.05-.01-.08 0-.1-.03.05-.02.07-.08 0-.1l.1-.05-.2.04c-.06-.12-.26-.13-.25-.24 0 0-.2-.15-.3-.08.07-.04-.03-.12.04-.18-.1.04-.28.02-.3-.1h.02c-.2-.2-.47-.08-.65-.27-.02.08-.12-.01-.13.1-.27.01-.35-.37-.55-.08-.1-.02-.1-.12-.15-.16l.03-.01c-.2-.05-.27-.05-.42-.1-.08.01-.14.16-.26.08.06-.05 0-.05-.05-.07.03 0 .05-.02 0-.08-.01.02-.03.02-.05.03-.1-.02-.08 0-.04.02v.04c-.07-.1-.24-.05-.23-.16-.26-.04-.47.03-.68.03-.01-.06.05-.1.1-.1l-.15-.01c.02-.08.1-.03.15-.03-.16-.16-.4.05-.58-.1l-.05.06-.01-.01c0 .03-.06.07-.1.08-.02-.07.03-.16-.08-.17-.07-.08-.24 0-.36.02.06.02.03.06.01.08-.05 0-.07-.08-.12-.05l.01-.1c.01.1-.15.08-.17.1-.02-.07.1-.05.1-.1-.2-.01-.1-.01-.32-.02-.12.06.01.1-.05.17-.1.01-.2.07-.3 0l.03.1c-.2.06-.3.04-.42-.05a3.01 3.01 0 0 0-.43.24c-.03-1.25.16-2.52.06-3.7.02.06.1.1.1.46-.02-1.13.07-2.7.26-2.73z"/><path d="M349.33 425.05c-.02-.04-.05-.08-.07-.12l.07.12zm-55.67-5.95h0l.04-.03zm29.3-8.22h0l.04.03zM96.93 347.24c.05-.62-.25-.87-.47-1.55-.1-.62.03-.82-.17-1.44-.05-.3-.16-.62-.24-.9-.15-.1-.1-.4-.23-.53l.06-.08c-.05-.05-.1-.1-.06-.18h.02c-.07-.07-.06-.18-.1-.2h.02l-.03-.1.03.01a.74.74 0 0 1-.13-.43l-.08.03c.03-.3-.17-.38-.1-.66h.02c-.3-.28.04-.55-.25-.85.04.04.04-.03.06-.03-.06-.15-.1-.32-.28-.28-.02-.1.03-.1.1-.13-.07.02-.13-.08-.15-.16l.04.03-.08-.25-.13.08c.01-.14.16-.07.1-.2l-.1.03c-.02-.2.13-.34.18-.54-.12-.76-.58-1.5-.54-2.25l.08-.05c.12-.04-.23-.15-.12-.2l-.08-.07c.02-.03.03-.08.07-.05-.01-.08-.03-.07-.08-.12l.06-.1c0-.3-.2-.53-.25-.85.08-.4-.22-1.1-.4-1.48-.3-.53.04-1.3-.3-1.85.01-.02-.04-.06-.05-.06l-.1-.54s-.52-2.6-1.13-.4l-.03-.01c0 .3.02.5.2.67-.16.07.04.25 0 .33h-.02c.17.15-.03.4.13.54-.01 0-.06 0-.07-.04.05.12.12.3.03.32.1.3.14.72.34.88l-.03-.01c.13.1.05.14.13.25l-.02.02c.13.1.1.35.16.43l-.06.02.07.23-.01-.1c.2-.01-.07.2.08.35.01.17.44.25.4.43.1.06-.15-.04-.06.06-.1.02-.07-.04-.14 0 .07.1-.05.2.04.34h-.07c.17.16-.02.38.14.48.1.18-.2.18 0 .35l-.08.1c0 .1.13.04.1.14-.06.01-.02.13-.1.1-.05.24.23.4.13.74.13.04.1.2.2.22-.05.02.05.3-.1.15-.01-.01-.02-.04 0-.04h-.08c-.1.2.14.28.15.45.01-.05-.01-.12.05-.08l.02.15-.07-.02.01.23.07-.05c-.01.12-.13.18 0 .3.07.04.08-.13.13-.02-.02.16-.05.4-.03.6.08-.04.1.02.12.06l-.07.02c.14.18-.14.1-.02.3l-.05-.01.16.02c.18.15-.13.13.1.28-.03-.08.15-.07.14.03h-.08c.03.05.06.06.05.1-.04-.02-.1.01-.08.08l-.1-.03.16.12c-.05.13.08.3-.01.36 0 0 .01.26.13.3-.08-.03-.07.1-.16.1.1.05.2.22.13.3l-.01-.01c-.02.3.22.45.17.72.08-.03.06.1.17.06.16.24-.12.52.24.54.04.1-.05.16-.05.22h-.02a1.46 1.46 0 0 1 .12.44c.05.07.2.05.2.2-.07-.03-.05.02-.04.08-.02-.03-.04-.04-.07.04.02.01.04.02.05.03.03.1.05.08.05.03.01 0 .02-.01.04-.02-.06.1.06.26-.04.3.08.27.24.44.33.66-.05.04-.1-.01-.14-.07l.06.16c-.08.02-.07-.08-.1-.13-.08.22.2.37.15.62l.07.03-.01.02c.03-.01.1.03.1.06-.06.05-.16.03-.13.14-.05.1.1.24.15.35 0-.07.04-.05.07-.03.01.06-.05.1-.01.14l-.12.05c.08-.04.13.13.17.14-.06.05-.08-.07-.13-.08l.1.33c.1.1.08-.04.18 0 .04.1.13.2.1.33l.07-.06c.1.2.12.3.07.46.98 1.35.97.12.97.12zm194.6 58.16c-1.44 1.02-.13 1-.13 1 .67.04.94-.27 1.67-.5.66-.1.87.02 1.54-.2.33-.06.66-.17.98-.26.12-.16.42-.1.57-.24l.08.05c.05-.05.12-.1.2-.07v.02c.08-.07.2-.06.23-.1h0l.1-.03-.01.03a1.02 1.02 0 0 1 .46-.14l-.03-.08c.33.03.4-.18.7-.13v.02c.3-.3.6.03.9-.27-.04.04.03.04.03.06.16-.06.34-.1.3-.28.12-.03.1.03.14.1-.02-.07.08-.13.18-.15l-.04.04.27-.1-.08-.13c.15.01.07.16.2.1l-.03-.1c.2-.02.36.12.58.17.82-.13 1.62-.62 2.42-.58l.05.08c.04.12.17-.23.22-.12l.07-.08c.03.02.1.03.05.07.08-.01.08-.03.13-.1l.1.06c.33-.01.57-.22.9-.27.44.07 1.16-.25 1.58-.43.57-.32 1.4.02 1.98-.34.02.01.07-.04.06-.05l.58-.1s2.8-.58.45-1.14l.01-.03c-.33 0-.53.03-.72.22-.07-.16-.26.04-.35 0v-.02c-.16.17-.42-.02-.58.14 0-.02 0-.06.04-.07-.13.05-.3.13-.34.03-.32.1-.78.15-.95.36l.01-.03c-.1.13-.15.05-.27.13v-.02c-.1.13-.37.1-.46.17v-.06l-.25.07h.1c.01.2-.22-.07-.38.1-.18.02-.27.45-.47.4-.07.1.05-.15-.07-.06-.03-.1.05-.07 0-.14-.12.07-.23-.05-.37.05l-.02-.07c-.17.18-.4-.01-.5.15-.2.1-.2-.18-.37.01l-.1-.08c-.1 0-.04.14-.15.1-.01-.06-.14-.02-.1-.1-.26-.04-.44.24-.8.15-.04.14-.2.1-.24.2-.02-.05-.3.06-.16-.1.01-.01.04-.02.04 0v-.08c-.2-.1-.3.15-.48.16.06.01.12-.01.1.05l-.16.03.02-.07-.25.02.05.07c-.13-.01-.2-.13-.3.01-.05.07.13.08.01.13-.17-.02-.42-.04-.63-.02.04.08-.02.1-.07.12l-.02-.07c-.2.15-.1-.14-.3-.02l.01-.05-.02.16c-.16.2-.14-.13-.3.12.08-.03.08.15-.03.14l.01-.08c-.05.03-.07.06-.1.06.03-.05 0-.1-.1-.08l.04-.1-.13.16c-.14-.05-.3.1-.4 0 0 0-.27.01-.3.13.04-.08-.1-.07-.1-.16-.05.1-.24.2-.34.14l.01-.01c-.32-.02-.5.23-.78.2.03.08-.12.07-.06.17-.25.17-.55-.1-.58.25-.12.05-.17-.04-.24-.05l.03-.02c-.23.08-.3.1-.48.13-.08.05-.06.2-.22.2.04-.07-.02-.05-.08-.03.04-.02.04-.04-.04-.07-.01.02-.02.04-.03.05-.1.03-.08.05-.03.05 0 .01.01.02.02.04-.12-.06-.28.07-.32-.03-.3.1-.48.25-.7.34-.04-.05.01-.1.07-.15l-.17.06c-.02-.08.1-.07.14-.1-.24-.08-.4.22-.67.16l-.04.07-.02-.01a.11.11 0 0 1-.07.1c-.05-.06-.03-.16-.15-.13-.1-.04-.26.1-.38.16.07 0 .06.04.03.07-.06.02-.1-.04-.15-.01l-.03-.1c.04.08-.14.13-.15.17-.05-.06.08-.08.08-.13l-.36.1c-.1.1.04.08 0 .18-.1.04-.2.13-.35.1l.06.07c-.18.1-.3.1-.47.06zm-1.45-145.24l.02-.04c-.01-.02-.02-.02-.02.04zm-155.92 33.2l-.04-.03c-.02.02-.02.03.04.03z"/><path d="M309.16 306l-1.57-6.14-1.24-4.02c-2.38-7.3-4.53-12.7-6.87-18.4l-23.1-53.83-7.4-16.73c-.05-.1-.07-.26-.22-.2h-.72l-6.32.03c-.98.06-2.16.08-3.45.1-.73 0-1.47-.01-2.22-.01l-4.68.02h-.77l-4.3.02-17.88.2c-5.35.1-11 .08-16.75.01l-18.26-.24-.9 4.7-.7 3.84-1.2 7.53c-.06.25-.12.7-.17 1.1a10.64 10.64 0 0 1-.06.51c-.01.13-.02.2-.01.2l-2.3 14.4-1.58 10.08c-.9 5.7-2.1 12.75-3.27 18.07-.67 3.06-1.4 5.5-1.78 6.9-.12.08-.35.34-.67.74a34.65 34.65 0 0 0-.81.91c-.3.35-.7.68-1.08 1.06-.4.37-.86.7-1.3 1.07l-1.4.97-1.37.8-1.18.6c-.33.18-.6.3-.8.4l-.3.14c-3.5 1.58-6.8 2.54-9.92 3.43-3.13.87-6.13 1.6-9.23 2.32l-9.9 2.3c-3.58.88-7.55 1.83-12.1 3.33-7.97 2.6-12.96 5.5-16.4 10.18-1.66 2.38-2.6 5.33-2.74 8.6-.07 1.62.01 3.33.22 5.16l-.96.27-1.55.48-1.48.5c-.7.3-1.2.9-1.38 1.5-.2.6-.1 1.1.02 1.4.13.3.27.37.36.27.1-.1.14-.43.36-.88.23-.44.7-.94 1.53-.85-.01.02-.07.05-.07.06.28-.05.34-.07.5-.1l.4-.1c.26-.06.5-.13.72-.2.44-.14.83-.3 1.2-.55.1.1.32.06.56-.02a60.55 60.55 0 0 0 .82 4.2 139.42 139.42 0 0 0 3.29 12.23c.65 2.03 1.33 4.04 2.16 6.02.2.5.4.98.7 1.5.28.48.5 1 .82 1.43-.3.1-.58.17-.7.1 0 0-1.04.2-1.23.45.17-.17-.4-.05-.28-.23-.23.2-.98.52-1.33.47l.06-.03c-.15.02-.3.05-.43.08-.12.03-.22.06-.33.1s-.22.06-.33.07c-.22.02-.46-.07-.54-.3-.1.1-.18-.16-.3-.02a.72.72 0 0 1-.12-.21 2.49 2.49 0 0 1-.09-.37c-.05-.24-.08-.48-.1-.7-.07-.42-.16-.73-.48-.85-.16-.48-.03-.6-.07-.88l.06.1c-.3-.9-.37-1.17-.55-1.85-.15-.33-.42-.3-.52-.93.16.17.07-.07.01-.3.06.14.1.18.1-.14a.45.45 0 0 1-.11-.15c.01 0 .01-.02.02-.02-.14-.37-.15-.3-.12-.12-.02 0-.03.02-.05.08.02-.43-.3-1.1-.15-1.2-.35-1.13-.75-1.9-1.08-2.83.06-.13.2.07.3.34l-.22-.67c.13-.03.18.37.26.57-.01-.86-.66-1.6-.72-2.6l-.16-.17v-.06c-.05.02-.18-.17-.24-.3.08-.16.26-.06.13-.53.01-.4-.34-1.03-.53-1.5.05.27-.03.2-.1.1-.07-.23.01-.4-.1-.56l.15-.06c-.12.13-.32-.57-.4-.64.08-.16.2.34.3.37l-.4-1.4c-.25-.47-.12.13-.32-.07-.15-.43-.37-.83-.42-1.36l-.1.2c-.33-.8-.45-1.3-.46-1.9-2.78-5.87-1.86-.9-1.86-.9.36 2.5 1.1 3.66 2 6.52.62 2.56.55 3.3 1.37 5.9.32 1.26.75 2.6 1.1 3.8.36.53.44 1.6.8 2.25l-.04.3c.12.22.24.5.24.75l-.04-.01c.18.33.24.75.33.9l-.04-.01.13.43-.07-.06c.02.04.03.08.04.1-2.74.86-5.45 1.7-7.98 2.33l-.22-.03c-.12-.1-1.17.54-1.37.48l-.5.2c-.15.02-.46.1-.22-.02-.48.14-.48.16-.82.3l-.53.07c-1.9.5-3.46 1.1-5.45 1.67-.86.2-1.96.5-3.15.85-.01-.1-.01-.23-.03-.34-.08-.46-.27-.92-.54-1.3l-.58-.78c-.72-1-1.4-2.08-1.93-3.36-.55-1.58-1.26-3.86-1.5-6.28-.24-2.4-.05-4.94.37-6.65.25-1.1.77-2.2 1.6-2.95 2.48-.8 4.34-1.57 7.8-2.75l2.76-.84c.77-.3 1.98-.84 1.87-1.17-.06-.17-.58-.2-1.25-.16-.1.06-.3.15-.44.2-.22 0-.04-.16-.74.08-.58.12-1.57.55-2.3.83.4-.12.28-.04.12.04-.35.12-.58.12-.84.24l-.06-.08c.17.04-.9.4-1 .47-.22 0 .53-.24.6-.32l-1.7.56a3.2 3.2 0 0 0 .19-.48c.17-.6.13-1.24-.18-1.77-.28-.55-.98-.87-1.22-1.02-.33-.2-.66-.37-1-.53-1.33-.66-2.67-1.17-4-1.56-.16-.1-.62-.18-.62-.16-1.6-.57-3.2-1.06-4.82-1.5 0 0-1.47-.42-3.44-.8-.98-.2-2.1-.4-3.18-.54-.55-.07-1.1-.15-1.63-.2l-.78-.07-.37-.03a4.6 4.6 0 0 0-.43-.02c-.65.02-1.2.27-1.6.58a2.6 2.6 0 0 0-.76.94c-.08.2-.13.33-.15.46-.04-.02-.1.07-.17.22-.1-1.72-1.65 3.44-1.65 3.44-1.66 5.16-1.97 7.97-3.5 14.24-1.5 5.47-2.14 6.85-3.5 12.56-.73 2.7-1.42 5.6-2.08 8.27-.12 1.3-.9 3.48-1.12 5l-.27.55c-.07.53-.2 1.14-.4 1.64l-.03-.04c-.1.8-.4 1.64-.44 2.03l-.03-.04-.23.93-.01-.17c-.25 1.36-.6 2.74-.96 3.94l.17-.06c-.42 1.28-.6 2.17-.8 3.03l-.3 1.3c-.15.46-.33 1.38.07 2.24l-.06-.03a2.89 2.89 0 0 0 1.25 1.16 2.72 2.72 0 0 0 .7.23c.17.04.33.08.5.1l1.86.46c1.22.28 2.5.54 4.15.4-.4.03.17.08.14.12 1.52.02 3.2-.26 3.17-.56.28-.04.57-.16.72-.2a1.41 1.41 0 0 1 .29-.1c.12-.02.13.03.23.04-.04-.1.77-.7 1.4-1.25-.1.1-.18.2-.28.3.63-.53 1.23-1.08 1.8-1.66l-.5.16c.96-.84.44-.01 1.26-.92l-.15-.13c1.25-1.22 2.16-1.78 3.4-2.95 4.72-5.23 8.94-11.47 13.17-16.43l.3-.14c.25.03.84-1.62 1.14-1.7l.38-.66c.16-.15.46-.48.27-.15.43-.55.4-.6.66-1.03.2-.2.37-.33.6-.57.26-.4.45-.8.55-1.25.8-.33 1.6-.8 2.47-1 .48-.23-.4.27.33-.02.05.08-.34.16-.12.18.73-.26 1.25-.27 2.15-.6l.16.03c1.16-.48 2.3-.57 3.05-.93 1.22-.42.9-.03 2.14-.55l.53-.05c.55-.15.36-.23.98-.37-.02.07.8-.18.45-.02 1.4-.3 2.76-.96 4.63-1.33.36-.23 1.3-.43 1.56-.6.06.04 1.84-.53.84-.12-.1.04-.24.08-.24.06l-.1.1c.74-.12 1.34-.37 1.98-.6.1.3.27.63.46.88l.07-.15a2.45 2.45 0 0 0 1.8 1.12c.3.04.6.03.9 0 .15-.01.33-.05.48-.08l.4-.06-.01.04c1.27-.75 2.23-.35 3.55-1.1-.16.1.1.05.1.1.3-.1.64-.2.88-.33l.88.9 1.35 1.02c.5.34 1.05.65 1.62 1 .6.3 1.2.6 1.84.88.65.23 1.3.54 2 .72 2.72.86 5.6 1.24 7.9 1.3.6.1 1.18.14 1.78.2l5.02-.07-.1.04 3.57-.4 2.62-.47-.1.05c.95-.14 1.87-.4 2.8-.62l-.47.16c4-1 8-2.3 11.48-3.54l-.34-.03c3.75-1.26 6.22-2.32 8.6-3.33l7.96-3.35-.07.07c8.08-3.9 13-5.58 21.5-9-1.08.44.5-.1.42-.04 2.03-.72 4.06-1.64 5.6-2.34 1.5-.78 2.52-1.36 2.5-1.5 2.78-1.43 2.3-1.13 2.7-1.2-.04-.05.54-.4 1.38-.92.82-.55 1.9-1.24 2.94-1.9l-.93.64a61.61 61.61 0 0 0 5.68-4.11l-1.23.66c2.94-2.25.96-.3 3.6-2.7l-.16-.12c1-.82 1.8-1.62 2.6-2.36.8-.72 1.52-1.45 2.23-2.17l1.07-1.08 1.03-1.17 1.1-1.25c.36-.45.7-.93 1.1-1.43 3.02-4.24 5.47-9.03 7.08-14.1l4.62-15.04 8.73-28.92.38-.76c.3-.3 1.18-5.13 1.57-5.77l.53-2.15c.2-.6.62-1.83.36-.76.58-1.96.56-2.02.9-3.45l.74-2.07c2-6.52 3.48-12.3 5.33-18.82.44-1.75.8-3.38.54-3.4-.52-.07-2.56 4.84-2.56 4.84l-.16.12c-1.2 5-2.84 9.26-3.6 12.6-1.38 5.1-1.34 3.3-2.65 8.67l-.76 2c-.7 2.26-.28 1.68-1.1 4.17-.06-.18-1 3.15-.68 1.65-1.83 5.63-3.17 11.6-5.68 18.98-.3 1.68-1.54 5.4-1.76 6.66-.14.18-2.3 7.52-1.2 3.25.1-.37.3-1 .3-.95l.04-.54c-1.5 4.2-2.24 7.76-3.6 11.95.43-1.23.93-2.9.67-1.76l-1.24 3.9.16-.84-1.9 5.76.38-.75-.66 1.8-.64 1.44-1.44 3.46c-.53 1.4 1.3-2.45.06.38-.4.9-1 1.82-1.57 2.86-.58 1.02-1.3 2.05-2 3.14-1.5 2.1-3.14 4.25-4.85 6.07.4-.26-.47.76-1.4 1.78l-.2.03c-1.82 1.93-2.23 2.2-2.64 2.46-.2.13-.4.26-.8.58-.4.3-.95.85-1.98 1.67l.3-.35-.93 1.06c-.9.8-1.5 1.24-1.96 1.54-.45.3-.75.48-1.05.66-.6.38-1.27.75-3.43 2.3.88-.56 1.13-.63.88-.4-.26.23-1 .8-2.15 1.38l.5-.42c-1.24.7-1.63 1-2.48 1.42.7-.48.33-.33-1.55.6l1.2-.75c-1.16.63-2.3 1.3-3.48 1.9-2.84 1.17-7.37 2.88-8.66 3.2l-1.02.36-2.3.9c-1.74.7-3.62 1.53-4.3 1.9 1.2-.64-2.22.78-1.3.24-1.55.8-6.2 2.95-8.1 3.65l.35-.17c-6.98 2.9-11.77 5.33-18.17 7.48.34.04-3.04 1.15-2.15 1.03-1.64.57-3.22 1.13-4.72 1.5l-2.17.58-2 .43c-1.27.3-2.4.46-3.38.66-.5.1-.93.2-1.32.3-.4.08-.75.16-1.05.26l-1.92.17c-.52.01-.95 0-1.32 0l-2.12-.08.75-.03c-2.95.04-4.85-.1-6.53-.3-1.68-.24-3.18-.46-5.2-1.14-1-.35-1.63-.46-2.4-.8-.38-.16-.83-.3-1.34-.64l-.87-.53-1-.8c1.04.67-.25-.2-1.17-1.28.32.32.53.52.5.47-.01-.02-.08-.1-.22-.28s-.37-.4-.6-.8a13.64 13.64 0 0 1-.66-.79c0-.02-.04-.08-.01-.05-1.15-2.03-.98-1.67-.48-.7-.04-.04-.02.05.12.36-1.12-2.15-2.62-6.56-2.55-6.9a187.58 187.58 0 0 1-2.86-9.51c-.78-2.93-1.5-5.72-1.95-8.76.01-.7.24.72.6 2.46a47.89 47.89 0 0 1-.63-4.3c.12.02.32 2.47.6 3.78-.3-2.56-.7-5.2-.57-7.92.07-1.35.26-2.73.7-4.05s1.15-2.58 2.1-3.7c.2-.35.47-.67.7-1l.25-.25c-.05-.02.83-1.04 1.52-1.6.36-.23.4-.17.62-.28.24-.1.64-.44 1.87-1.24a51.83 51.83 0 0 1 4.03-2.21c1.6-.78 3.32-1.5 4.8-2.03-1.6.54-1.1.3-.43.02 1.42-.5 2.3-.65 3.4-1.03l.14.08c.15-.17 3.85-1.23 4.34-1.4.86-.1-2.25.7-2.6.88 2.93-.8 3.68-.96 4.4-1.15l4.45-1.04c3.15-.82-.6-.02.88-.5 2.8-.65 5.52-1.34 8.77-1.97l-1.05.1 11.94-2.96c4.8-1.6 8.36-3.3 10.8-5 2.47-1.67 3.8-3.25 4.53-4.32a10.66 10.66 0 0 0 .72-1.2c-.15.6-.17.8.02.57.25-.4 1.02-1.85 2.07-4.9 1-3.05 2.28-7.7 3.65-14.28l-.02.36c1.5-7.86 2.25-12.83 2.88-18.3.42-.82 1.04-6.47 1.43-8.3v.18c.55-4.84 1.77-9.86 2.4-14.5-.01.18.05.3-.13 1.36l.9-5.28c.3-1.56.56-2.94.6-2.63l.03-.2 12.3-.03 10.9-.2-.36.05c2.98-.18 3.86-.03 7.2-.12.18.02.42.03.38.04 3.25-.18 9.48-.03 12.1-.1l.17.1 6.47-.03-2.42-.02c.84-.3 4.9.2 9.58-.01 2.2.02 4.4-.14 6.65-.28l3.38-.18 1.68-.04 1.44.02 2.6-.03.44.6.1.27.4.9c.58 1.34 1.04 2.43 1.02 2.6l7.67 16.64c.2.65-.45-.6-1.2-2.17l1.75 3.87c-.14.02-1.06-2.2-1.6-3.38 1.85 4.7 4.4 9.44 6.6 14.95l.6 1.08.12.33c.04-.04.64 1.15 1 1.95.23.8-.27.05.9 2.74.83 2.17 2.66 6.03 3.92 8.8-.63-1.5-.36-1.05-.04-.42.58 1.35.8 2.17 1.3 3.2l-.07.15c.2.14 1.65 3.55 1.9 3.98.22.8-.98-2.06-1.2-2.36l3.42 8.13c1.3 2.85-.08-.58.62.75 1.07 2.55 2.2 5 3.3 8l-.24-1c2.02 4.8 3.13 7.7 4.22 11.04 3.66 8.98 5.4 14.06 6.32 16.5.88 2.42.95 2.2.7.8zM61 373.82l-1.12 3.5c.04.03.05.06.05.1-.02.01-.07 0-.12 0l-.02-.08c.02.02-.2-.01-.3-.03-.12-.02-.2-.03-.28-.05-.14-.03-.2-.07-.26-.1-.12-.07-.26-.12-.92-.24l.12-.02-.17.03-.07-.02-.16.05c-.46-.08-.5-.25-.56-.35-.04-.13-.14-.2-.3-.68.02.2 0 .25-.05.2-.05-.06-.12-.25-.05-.54a.88.88 0 0 0 .05.15 3.19 3.19 0 0 1 .13-.71c-.02.24.07.15.2-.43l-.01.4.15-1.12c.3-.82.54-2.17.73-2.48 0 0 .52-1.78.52-2.23-.03.38.26-.6.26-.3.05-.5.34-1.88.57-2.4l-.02.1c.6-2 .8-3.5 1.37-5.3-.1.06.2-.9.02-.68.4-1.92 1.1-3.4.96-4.16.2-.86.34-1 .48-1.44l-.04.2.83-3.28c.12-.6-.01-.74.3-1.8-.03.36.07-.08.18-.48-.06.26-.06.34.12-.17 0-.08.02-.2.04-.3.01 0 .02-.02.02-.01.15-.67.1-.56.01-.25-.01-.02-.02 0-.07.1.26-.67.5-1.94.62-2 .5-2.02.76-3.48 1.16-5.17.1-.17.05.23-.06.72l.3-1.2c.08.03-.13.7-.2 1.06.5-1.38.63-2.95 1.18-4.57l.03-.36.04-.1c-.03 0 .02-.4.07-.64.13-.22.15.06.36-.76.23-.63.45-1.85.63-2.7-.13.45-.13.3-.1.1.1-.4.23-.63.3-.95l.1-.02c-.13.14.2-1.1.2-1.26.13-.22-.1.65-.08.77l.63-2.47c.16-.9-.13.14-.1-.3.18-.78.32-1.55.6-2.43l-.15.26c.32-1.47.55-2.34.9-3.3.62-3.16.86-4.7.88-5.32.02 0 .04.01.07-.01.01 0 .02-.02.02-.02 0 .07.03.1.07.05.2-.04 1.05-2.5 4.84-.8l-.1.01c.12.03.25.05.36.08l.14.04.13.03c.06 0-.01.08-.01.1a2.76 2.76 0 0 0-.08.27l-.17.6c-.2.8-.37 1.5-.5 2.26-.23.2-.5 1.75-.7 2.24v-.05c-.23 1.34-.85 2.66-1.08 3.95 0-.05-.04-.1.04-.38-.23.92-.54 2.2-.65 2.23-.58 2.2-1.46 5.24-1.7 6.7v-.1c-.12.83-.27 1.04-.46 1.95-.03.05-.05.1-.05.1-.14.9-.68 2.55-.83 3.26l-.08.03-.46 1.74.2-.64c.12.27-.47 1.28-.7 2.57-.35 1.17-.3 2.5-.7 3.7-.08.6.01-.55-.17.34-.1 0 .05-.42-.08-.22-.2.87-.48 1.38-.7 2.45l-.08.02c-.25 1.4-.8 2.57-.93 3.52-.33 1.44-.48.9-.74 2.4l-.26.55c-.2.63-.01.5-.25 1.17-.05-.06-.3.87-.24.45-.53 1.56-.75 3.26-1.5 5.3-.01.5-.37 1.52-.37 1.88-.07.04-.6 2.1-.38.9.02-.1.07-.28.1-.27l-.03-.16c-.46 1.16-.52 2.2-.87 3.36.12-.34.24-.8.2-.5l-.3 1.1v-.24l-.48 1.62.14-.2c-.26.8-.46 1.04-.6 1.97-.05.4.3-.74.1.1zm29.43-23.2c-.22.18-.46.4-.93 1.22l-.57.47c-.07-.16-.1-.3-.28-.44-.1-.13-.24-.23-.35-.33-.14.03-.14-.15-.27-.14l.03-.07c-.05 0-.1-.01-.08-.06l.02-.01c-.07 0-.08-.06-.1-.05l.02-.01-.04-.03.03-.01c-.1-.02-.15-.08-.18-.15l-.06.06c-.03-.18-.2-.1-.2-.28h.02c-.3.03-.07-.3-.35-.3.04 0 .03-.04.04-.05-.07-.04-.14-.1-.27.01-.04-.05.01-.07.05-.12-.06.05-.1.03-.15 0h.04l-.1-.08-.1.1c-.02-.08.12-.13.05-.16l-.1.08c-.05-.1.05-.25.05-.38-.23-.32-.73-.44-.82-.85l.05-.07c.1-.1-.2.05-.13-.04l-.07.01c.01-.02.01-.06.05-.06-.02-.03-.04-.02-.1-.01l.03-.08c-.06-.16-.26-.15-.35-.3-.01-.25-.37-.43-.57-.53-.34-.1-.2-.7-.56-.77.01-.02-.04-.01-.05 0l-.17-.22s-.87-1.04-.97.44l-.03.01c.05.16.1.24.28.22-.12.13.07.1.05.17l-.01.01c.16-.02.05.22.2.2-.01.01-.05.04-.07.02.06.03.15.07.08.15.12.1.24.3.42.26l-.03.01c.12-.03.06.04.15.05-.01.01-.01.02-.01.02.12-.03.13.12.2.13l-.05.05.1.08-.02-.04c.15-.1-.02.15.13.13.04.08.4-.13.4 0 .1-.03-.13.07-.04.07-.07.07-.06.02-.1.08.07.02-.01.14.1.15l-.05.05c.17-.02.05.2.2.17.1.03-.12.2.06.18l-.05.1c.02.04.1-.06.1.01-.05.04 0 .08-.06.1 0 .15.26.08.23.3.1-.06.1.05.2 0-.04.04.1.12-.05.13-.01 0-.02-.01 0-.02l-.06.04c-.05.16.16.06.2.14 0-.03-.03-.06.03-.07l.05.06-.06.03.05.1.05-.06c.01.07-.07.17.05.15.06-.02.04-.1.1-.08.01.1.03.23.08.32.06-.06.07-.04.1-.03l-.05.05c.15.01-.1.14.03.16l.1-.06c.17-.03-.08.14.14.08-.04-.02.1-.12.12-.07l-.06.04c.03.01.06 0 .06.02-.04.01-.08.06-.05.1l-.1.04.15-.03c-.02.1.12.1.06.2 0 0 .05.13.15.08-.07.03-.04.1-.1.14.08-.03.2 0 .16.1h-.01c.03.16.25.1.26.27.06-.06.07.02.14-.07.17.03 0 .33.28.14.05.03-.01.1 0 .14h-.02a.53.53 0 0 1 .17.16c.05.01.18-.1.2-.01-.06.02-.03.04-.01.06-.02-.01-.04 0-.05.06.02-.01.03-.01.05-.01.04.03.05.01.04-.01.01-.01.02-.02.02-.03-.03.1.1.1.02.18.1.1.27.1.38.15-.03.05-.1.06-.13.05l.07.05c-.06.05-.07-.01-.1-.01-.03.16.24.07.23.23h.06 0c.02-.02.08-.03.1-.03-.04.06-.12.1-.08.15-.02.08.1.07.18.1-.01-.03.02-.05.05-.06.02.02-.02.08.02.08l-.07.07c.05-.06.1-.02.14-.03-.04.03-.07.01-.1.04.03.03.04.04.05.04-.05.07-.12.14-.2.24-.05-.1-.75.85-.5.37-1 1.1-1.78 2.43-2.86 3.82-.08-.18-.1-.3-.3-.47-.1-.12-.24-.22-.35-.32-.14.03-.14-.15-.27-.14l.03-.07c-.05 0-.1-.01-.08-.05l.02-.01c-.07 0-.08-.05-.1-.05l.02-.01-.04-.03.03-.01c-.1-.02-.15-.07-.18-.14l-.06.06c-.03-.18-.2-.1-.2-.27l.02-.01c-.28.03-.07-.3-.35-.3.03 0 .03-.04.04-.05-.07-.04-.14-.1-.27.02-.04-.05.01-.07.05-.12-.05.05-.1.03-.15 0h.04l-.1-.08-.1.1c-.02-.08.1-.13.04-.16l-.1.08c-.05-.1.04-.25.04-.38-.23-.32-.73-.43-.82-.83l.05-.07c.1-.1-.2.06-.13-.04l-.07.01c.01-.02.01-.06.05-.06-.02-.03-.04-.02-.1-.01l.03-.08c-.06-.16-.26-.15-.35-.3-.01-.25-.37-.42-.58-.52-.34-.1-.2-.7-.57-.76.01-.02-.04-.01-.05 0l-.17-.22s-.88-1.02-.97.45l-.03.01c.05.16.1.24.28.22-.12.13.07.1.05.17l-.01.01c.16-.02.05.22.2.2-.01.01-.05.04-.06.02.06.03.15.07.08.14.12.1.24.3.42.25h-.03c.12-.03.06.04.15.05-.01.01-.01.02-.01.02.12-.03.13.12.2.13l-.05.05.1.08-.02-.04c.15-.1-.02.15.13.13.04.08.4-.13.4-.01.1-.03-.13.07-.04.07-.07.07-.06.02-.1.08.07.01 0 .14.1.15l-.05.05c.17-.02.05.2.2.16.1.03-.12.2.06.18l-.05.1c.02.04.1-.06.1.01-.05.04.01.08-.06.1 0 .15.26.07.24.3.1-.06.1.04.2 0-.04.04.1.12-.05.13-.01 0-.02-.01 0-.02l-.07.02c-.04.16.16.06.2.14 0-.03-.03-.05.03-.07l.05.06-.06.03.05.1.05-.06c.01.07-.07.17.05.14.06-.02.04-.1.1-.08.01.1.03.23.08.3.06-.07.07-.04.1-.04l-.05.05c.15.01-.1.14.03.16l-.04.03.13-.1c.17-.03-.08.14.14.08-.04-.02.1-.13.12-.07l-.06.04c.03.01.06 0 .06.02-.04.01-.08.06-.05.1l-.08.04.15-.03c-.02.1.12.1.06.2 0 0 .05.13.15.07-.07.03-.04.1-.1.14.08-.03.2 0 .16.08h-.01c.04.16.25.1.26.27.06-.06.07.02.14-.07.17.02 0 .33.28.14.05.03-.01.1 0 .14h-.02c.1.06.12.1.17.15.05.01.17-.1.2-.01-.06.02-.03.04-.01.06-.02-.01-.04.01-.05.06.02-.01.03-.01.04-.01.04.03.05.01.04-.01.01-.01.02-.02.02-.03-.03.1.1.1.02.17.1.1.27.1.38.15-.03.05-.1.06-.13.05l.07.05c-.06.05-.07 0-.1-.01-.03.16.24.06.23.23l.06-.03v.01c.02-.02.08-.03.1-.03-.04.06-.12.1-.08.15-.02.08.1.07.17.1a17.92 17.92 0 0 1-.6.66c-.2.58-1.12 1.56-1.26 2-.1 0-1.68 2.1-.9.8.07-.1.2-.3.23-.25l.02-.22c-1.12 1.04-1.62 2.23-2.6 3.37.3-.32.67-.8.5-.42l-.9 1.07.1-.3-1.36 1.56.28-.14c-.7.74-1.1.87-1.7 1.86-.26.46.75-.62.1.22l-3.56 3.65c.2-.02-.1.32-.4.68l-.13-.05c-1.13 1.43-.65.3-1.82 1.65l.05-.17-.16.5c-1 1.25-.8.43-1.9 1.72.52-.43.42.06-.3.46l.1-.2c-.18.14-.28.2-.38.27-.1.08-.18.1-.27.12.07-.06.07-.1.02-.12-.06-.02-.12.01-.48.07.1-.08.32-.14.34-.22-.26.15-.74.28-1.14.4-1-.03-2.6.07-3-.15l-1.15-.14c-.2-.03-.4-.05-.6-.07l.27-.75c1.55-5.47 2.9-11.45 4.5-16.5l.15-.2c.15-.06.2-1.46.37-1.62l.1-.6c.07-.16.2-.5.14-.2.16-.55.14-.57.2-.97l.24-.57c.65-2.15 1-4.03 1.67-6.3.9-2.7 2.18-7.9 2.9-10.88.96-4.22 2.8-8.94 3.75-13.27.06-.13.12-.5.1-.5l1.1-3.9.73-2.68c2.4.54 3.95.93 5.7 1.18.2.35 2.12.64 2.7.93h-.06c1.64.3 3.13 1.26 4.65 1.7-.07 0-.13.06-.46-.08 1.08.4 2.5 1 2.48 1.2a6.09 6.09 0 0 1 .44.23c.15.08.12.06.18.1.08.07.1.18.08.3 0 .05-.13.37-.2.38-.13.13-.42.27-.74.4-.66.26-1.45.55-2.1.95-.64.4-1.16.87-1.44 1.3l.06-.13c-.64.98-.95 1.2-1.38 2.36-.05.05-.1.13-.1.1-.15.6-.38 1.4-.55 2.2-.15.8-.3 1.56-.3 2.03l-.12.05-.08 1.14-.01 1.14.04-.85c.3.3-.27 1.74.16 3.38.16 1.57 1.2 2.94 1.58 4.44.4.66-.45-.54.04.48-.14.1-.28-.46-.3-.14.48 1 .54 1.77 1.3 2.94l-.08.1c.53.74.96 1.47 1.37 2.14.24.38.35.54.42.76.08.2.12.42.17.64.03.67-.27.9-.4 1z"/></svg>