<svg xmlns="http://www.w3.org/2000/svg" viewBox="0 0 480 480" xmlns:v="https://vecta.io/nano"><g fill="#fff"><path d="M143.07 302.1l.96-.46c-.02-.01-.26.1-.96.46zM116.95 339c-.08.03-.16.07-.23.1l.23-.1zm163.02 18.6l-.43-1.1c-.01.03.1.3.43 1.1zm6.33 15.04v-.04c-.01-.01-.02 0-.01.04zm-27.83-75.1l.28-.07c-.02 0-.03.01-.05.01l-.23.06zm-181.7 49.32l-.01.1.01-.02z"/><path d="M354.43 428.88c.01-.1.1-1.3-.56-3 .02 0 .06.01.06.01s-.5-2.5-3.1-4.4l-.67-.48c-2.46-2.04-8.45-6.26-14.2-10.23l-3.32-2.38-.03.1-9.87-6.7s-.77-.36-1.7.4c-1.1-1.03-1.92-1.88-2.3-2.4-2.9-3.9-7.9-26.9-14.1-52.7-5-21.2-8.8-45.3-12.4-57.5-.4-1.32-1-3.02-1.7-4.95a75.41 75.41 0 0 0 3.71-2.15c1-.7 1.5-1.9 1.1-3.1-1.7-5.4-6.9-21.3-15.4-41.4-5.5-13-15.6-31-15.6-31l-67.7 1s.7 19.8-6.2 48.4c-2.6 11-8.4 21.2-10.6 24.9-.6.9-.4 2.2.4 2.9.2.2.43.4.68.6-7.02 3.37-16.2 7.54-25.08 11.5-14.9 6.6-28.5 16.2-53 24.5-.68.26-1.65.25-2.77.13.33-.5.14-1.24-.43-1.53-1.1-.4-2.9-1-4.6-1.2-2.78-.46-5.56-.07-5.95-.01l-2.95-.5c-1.4-.3-2.8.7-3 2.1l-10.4 55.3c-.3 1.4.7 2.8 2.1 3l2.8.48s1.2.16 2.9-.46c0 .02-.01.06-.01.06s2.5-.5 4.5-3l2-2.67c1.47-1.9 3.4-4.52 5.44-7.35l5.95-8.08s-.05-.02-.14-.05l6.84-9.75s.68-1.17-1.13-2.35c8.1-6.63 54.97-21.4 106.33-37.25 3.17-.93 13.88-4.3 18.16-8.95l1.34.05c10.63.3 20.28-.77 28.7-2.54 2.77 4.68 4.8 8.4 5.1 9.64 1.9 8.7 4.9 24.1 13.2 43.3l20.1 48.4c1.03 3-.23 6.4-.92 9.5-.42-.04-.87.17-1.08.6-.4 1.2-.9 2.9-1.2 4.6-.4 3 .1 6 .1 6l.1.02-.5 2.88c-.2 1.4.7 2.8 2.1 3l55.5 9.7c1.4.2 2.8-.7 3-2.1l.5-2.9-.1-.03zm-31.7 1.34h.1z"/></g><path d="M83.53 367.75h0l.03.08zm259.94 55.33h0l.08-.03z"/><path d="M355.1 428l-.03-.33c-.03.12-.07.2-.1.3-.03-.01-.06-.01-.1-.02-.02-.56-.01-.67.04-.76a.45.45 0 0 0 .02-.26c-.03-.17-.07-.35-.17-.65l-.18.07-.1-.3-.13-.63.05-.16c.07-.02-.1-.37-.3-.67l-.26-.4c-.06-.1-.1-.14-.08-.2-.02-.02-.03-.04-.05-.06a9.3 9.3 0 0 0-1.06-1.88c-1.23-1.45-2.73-2.5-4.16-3.56l-4.4-3.06c-2.93-2-5.8-3.95-8.38-5.93l-.15-.28c.02-.25-1.65-.75-1.74-1.05l-.68-.34c-.15-.15-.5-.44-.16-.26-.57-.4-.6-.38-1.05-.6l-.54-.53c-2.2-1.63-4.28-2.72-6.65-4.38a37.28 37.28 0 0 0-1.14-.86c-.1-.07-.32-.22-.48-.32-.2-.1-.44-.16-.68-.18-.48-.06-1 .06-1.4.24-.17.08-.32.18-.47.28l-.42-.4c-.35-.36-.72-.73-1.04-1.13-.18-.2-.27-.43-.4-.64a4.37 4.37 0 0 1-.36-.68c-.9-1.9-1.47-3.93-1.88-5.08l.02-.17c-.6-1.93-1.15-3.88-1.7-5.84l.6 2.2c-.4-.7-1.1-4.46-2.3-8.72-1-4-2.37-8.05-3.28-12.25-.56-1.97.55 1.72-.22-1.24.07-.12.4 1.38.28.6-.74-2.9-1.04-4.82-1.96-8.4l.04-.16c-1.24-4.68-2-8.9-2.9-12-1.18-4.84-.55-3.3-1.8-8.34l-.32-2c-.45-2.17-.46-1.53-.9-3.95.1.13-.58-3.06-.23-1.66-1.03-5.48-2.37-11.07-3.64-18.3-.43-1.54-1.1-5.18-1.42-6.33.02-.2-1.52-7.26-.54-3.22.1.35.2.97.18.93l.17.47c-.73-4.13-1.66-7.44-2.65-11.48.3 1.2.66 2.8.36 1.74l-.95-3.75.27.76-.76-2.8-.9-2.75.2.77-.7-2.12 1.7-1 1.54-.95c.1-.06.27-.2.38-.3.24-.2.46-.44.66-.7.4-.54.67-1.23.7-2a3.52 3.52 0 0 0-.14-1.16l-.25-.9.05.06c-2.36-6.06-2.98-9.84-5.6-16.02.33.77-.05-.36 0-.3-1.1-2.88-2.28-5.96-2.56-5.9-.8-2.1-.57-1.74-.57-2.05-.12.06-.85-1.75-1.5-3.37l.34.73-1.9-4.66.15 1c-.93-2.5.02-.74-1-3.08l-.17.1c-1.36-3.43-1.9-5.53-3.2-8.88-2.96-6.83-6.54-13.65-10.13-20.3l-2.7-4.95-2.14-3.87-.26-.46c-.02-.04-.04-.1-.07-.1h-.4l-1 .01-10.68.04-.6-.14c-.27-.2-3.8.37-4.32.18l-1.6.12c-.45-.03-1.4-.06-.6-.12-1.48.01-1.52.05-2.58.13l-1.6-.1c-5.85-.02-10.8.3-16.96.35-3.48-.08-8.4-.02-13.48.1l-15.15.43.07 2.32c.16 5.6-.4 11.66-1.2 17.7-.8 6.05-1.84 12.1-2.75 17.76-.05.18-.1.5-.14.8s-.07.52-.05.52l-1.1 5.14-1.2 5.12-.53 2.02c-.36 1.25-.87 3-1.57 4.95-1.37 3.9-3.45 8.62-5.2 12.14-1.74 3.53-3.06 5.94-2.5 5.5.27-.23 1-1.17 2.28-3.12 1.26-1.96 3.07-4.92 5.2-9.34l-.06.26c2.37-5.32 3.48-8.88 4.2-12.84.4-.55 1.12-4.63 1.46-5.94v.13c.5-3.5 1.63-7.1 1.98-10.5 0 .13.07.22-.06 1l.6-3.85c.17-1.17.32-2.05.42-2.13.43-2.94.84-6.47 1.16-9.75.3-3.28.47-6.3.43-8.2l.03.26c-.06-2.17.12-2.8.1-5.23.03-.13.04-.3.05-.28-.06-.9-.06-2.55-.08-2.96l2.23-.03c.9-.01 1.7-.02 2.27-.06l.12.1 4.68-.1h-1.75c.6-.32 3.54.14 6.94-.1 3.18-.01 6.43-.73 9.74-.63 1.57-.17-1.38.25.97.1.08.16-1.1.12-.5.23 2.3-.1 3.8.1 6.64-.04l.12.12c3.7-.28 7 .06 9.48-.2 3.83-.16 2.58.33 6.56.03l1.55.15c1.7 0 1.22-.22 3.1-.17-.1.1 2.4.05 1.3.17 2.14.05 4.32-.04 6.66-.12l3.66-.1h1.96l.5.01.12.02c.1-.03.1.13.14.23.02-.02.16.2.26.34l.34.54.72 1.24c.48.85.94 1.67 1.22 2.04 0 .17 2.67 5.02 1 2.3-.14-.23-.37-.66-.32-.65l-.3-.28c1.3 2.94 2.85 5.1 4.27 7.94-.4-.86-.98-1.97-.52-1.26l1.33 2.64-.37-.5 1.92 3.95-.15-.6c.9 1.96 1.03 2.73 2.25 4.84.56.95-.73-1.9.3.12 1.17 2.64 2.8 6.6 4.16 10 0-.37.38.54.8 1.47l-.07.16c1.63 3.55.3 1.42 1.87 4.96l-.2-.28.2.28.4.57c1.52 3.16.46 1.84 2.18 5.34-.57-1.42 0-.77.62 1l-.28-.4c.4.97.57 1.27.8 1.93-.28-.56-.28-.25.28 1.18l-.5-.9 1.23 2.64c.66 2.15 2.03 5.43 2.18 6.36 0 0 1.54 4.57 2.06 5.56-.42-.88.4 1.65.02.98.53 1.14 1.8 4.6 2.1 6.05l-.1-.26.57 1.9c.1.36.15.47.16.65.01.16 0 .33-.04.48-.08.3-.3.62-.56.84-.03.02-.04.04-.1.07l-.18.1-1.05.66c-1.9 1.16-3.8 2.24-6.03 3.24.27.05-2.1 1.08-1.43.97-4.5 2.32-8.58 3.28-10.1 4.4-2.16.8-2.6.8-3.75 1.12l.5-.2c-4.08 1.37-5.3 1.65-8.4 2.48-1.54.4-1.73.73-4.53 1.3.88-.3-.25-.01-1.3.17.67-.14.87-.22-.53-.03-.2.07-.48.14-.76.2-.01-.01-.07 0-.04-.02-1.75.36-1.44.34-.62.2-.04.02.03.03.3.01-1.84.26-5.1.84-5.35.7-5.3.8-9.14 1.2-13.6 1.44-.5-.07.54-.2 1.83-.3-1.06.04-2.1.16-3.17.14.03-.1 1.82-.1 2.8-.2l-5.86.08c-2.03.1-4.14.03-6.35-.2l-.92.06-.26-.03c.01.06-1 .1-1.65.03-.62-.17.06-.26-2.12-.45-1.72-.22-4.9-.48-7.16-.7 1.2.17.8.2.28.16-1.1-.15-1.7-.4-2.53-.48l-.06-.14c-.17.08-2.9-.34-3.27-.4-.6-.23 1.68.25 1.98.18-2.17-.36-2.7-.54-3.23-.63-.53-.14-1.1-.17-3.2-.73-2.3-.48.38.25-.74.1-2.02-.47-4-.97-6.2-1.82l.66.4c-3.72-1.18-5.86-2.16-8.16-3.42-3.3-1.5-5.73-3-7.5-4.25l-.44-.32c.05-.02-.95-.8-1.02-.78-.27-.2-.53-.4-.74-.7a2.79 2.79 0 0 1-.51-2.05 2.55 2.55 0 0 1 .22-.75l.2-.44c.1-.23.14-.36.12-.4-.02-.1-.25.1-.6.5-.5.6-.84 1.77-.44 2.93a3.4 3.4 0 0 0 .43.85c.12.17.25.3.37.43-.1.04.04.05.04.05l.9.85c.1.08.17.16.26.24a29.27 29.27 0 0 0 2.55 2.03c2.4 1.72 4.68 3 6.9 4 2.2 1.05 4.36 1.84 6.6 2.58 4.48 1.43 9.33 2.57 16.15 3.6 3 .43 5.44.8 7.64 1l3.12.33c.93.1 1.83.13 2.73.2-1.55 1.2-3.3 2.2-5.1 3.1-4 1.97-8.27 3.4-12.56 4.7l-24.82 7.67-.72.13c-.34-.03-4.25 1.54-4.88 1.6l-1.8.63c-.52.14-1.6.45-.7.14-1.68.52-1.72.56-2.9.98l-1.83.5c-6.64 2.05-12.22 4-19.18 6.25-8.4 2.58-24.03 8-32.87 11.63-1.56.62-3.14 1.27-4.73 1.97-1.6.66-3.22 1.4-4.84 2.15-.82.35-1.6.8-2.4 1.22l-1.2.64c-.4.23-.77.5-1.16.77-.03.02-.06.04-.08.06-.06-.04-.12-.08-.17-.12-.56-.38-1.26-.74-2.05-.9-.8-.18-1.72-.1-2.47.27-.38.17-.7.4-1 .65l-2 1.77-.55.5-.2.2c-.2.22-.44.45-.7.67l-.37.3-.18.14c-.06-.02-.1-.12-.15-.18-.18-.28-.18-.7.04-.97.23-.27.48-.47.68-.66l.3-.26.75-.82c.24-.3.5-.57.72-.9.12-.18.23-.3.36-.57a2.57 2.57 0 0 0 .28-.89c-.02-.73-.13-.96-.2-1.33l-.22-1.02-.43-1.97c0-.17-.12-.6-.15-.6a30.84 30.84 0 0 1-.26-4.79s0-.36.05-.94c.07-.57.16-1.4.38-2.3.4-1.83 1.25-4 2.1-5.6.44-.84.85-1.52 1.08-1.97.73.08 1.47.1 2.26.01.23-.03.46-.1.7-.17l.54-.18 1.05-.36 2.04-.7a179.53 179.53 0 0 0 7.72-2.99c5.1-2.13 10.4-4.55 17.65-8.27l14.45-7.4 6.5-3.18 8.52-3.86 11.32-5.17c1.28-.64 2.4-1.3 2.27-1.53-.24-.4-3.63.9-5.28 1.56l-12.93 6.02c-.57.2.55-.36 1.96-1l-3.45 1.57c0-.1 1.97-.93 3.03-1.42-4.2 1.7-8.45 3.97-13.2 6.33l-.95.56-.28.14c.02.01-.24.16-.58.36l-1.12.63c-.7.3-.03-.17-2.35 1.06-1.86.9-5.2 2.77-7.6 4.04 1.3-.65.9-.4.36-.1-1.17.6-1.87.87-2.76 1.35l-.12-.02c-.1.14-3.1 1.6-3.48 1.83-.7.26 1.8-.95 2.07-1.14l-3.54 1.72c-.6.27-1.17.6-3.57 1.66-2.52 1.2.5-.13-.7.5l-3.4 1.53c-1.16.52-2.37 1.02-3.7 1.52l.87-.26-2.93 1.22-2.5.95c-1.56.6-2.96 1.06-4.46 1.54l-1.48.55a4 4 0 0 1-1.41.32c-.17.01-.33.01-.5.01.04-.1.08-.2.1-.3.15-.77-.23-1.77-1.1-2.25l-.12-.05c-.88-.4-1.75-.7-1.75-.7-1.3-.5-2.65-.74-3.77-.88-1.2-.14-2.33-.14-3.48-.05-.3.02-.57.05-.86.1l-.6.08-.8.13c-.25.06-.55.07-.77.17l-.03.15a12.28 12.28 0 0 0-.71-.05c-.54-.02-.92 0-1.05.07-.13.08-.02.2.43.43.25.13.7.3 1.16.47l-.18 1.12-.66 4.17c-1.1 5.52-1.66 6.94-2.63 12.7-.54 2.73-1.03 5.66-1.5 8.34-.03 1.3-.66 3.5-.77 5.05l-.23.56c-.04.53-.1 1.14-.27 1.65l-.03-.04c-.06.8-.27 1.65-.3 2.05l-.03-.04-.16.94-.02-.17c-.16 1.37-.42 2.76-.7 3.97l.16-.07c-.56 2.2-.56 3.27-.94 4.98-.06.2-.1.4-.15.6-.03.12-.05.23-.1.35l-.03-.04a14.71 14.71 0 0 1-.1 1l-.03.23c-.28 1.98-.85 3.42-1.13 5.47l-.02-.04c-.32.82-.33 1.6-.4 2.4l-.1.8-.03.17c.01-.02.01-.04.02-.06a4.06 4.06 0 0 0-.03.66v.01l-.06-.25-.42 1.64.17-.2c-.1.4-.23.65-.32.93-.05.04-.06.04 0 .2.06.22.2-.07.17.23-.01.02-.02.03-.03.05a4.68 4.68 0 0 0-.3-.12l-.14-.06-.5-.12-1-.24c-.25-.06-.37-.12-.53-.22-.01.16-.2.06-.4-.1l.07-.1c-.35-.27-.3-.42-.26-.5.05-.1.07-.17-.01-.5.03.02.05.04.1.06-.1-.06-.17-.12-.25-.2-.02-.08-.01-.23 0-.34s.03-.2.04-.28a1.51 1.51 0 0 1 .13-.33c.1-.18.17-.4.14-1.14-.1.57-.32.22-.13-.48l.08.2c.05-.4.02-.53.1-.8.02.24.15.16.24-.42l.08.4-.01-1.12c.28-.8.37-2.16.6-2.47 0 0 .42-1.78.3-2.23.05.38.27-.6.35-.3-.04-.5.1-1.88.35-2.4v.1c.52-2 .46-3.5.98-5.3-.16.06.1-.9-.13-.7.18-1.92 1.02-3.37.58-4.16.13-.86.32-1 .44-1.43l-.01.2c.26-1.62.34-2.1.58-3.28.06-.6-.2-.75.08-1.8.04.36.1-.08.18-.48-.03.26-.01.34.16-.17-.02-.08-.02-.2-.01-.3.01 0 .02-.02.03-.01.1-.67.03-.56-.04-.26-.01-.02-.04 0-.08.1.26-.67.35-1.93.55-1.98.34-2 .42-3.48.67-5.16.13-.17.14.23.08.72l.2-1.2c.13.03-.05.7-.1 1.06.48-1.37.33-2.95.84-4.56l-.04-.36.04-.1c-.06 0-.06-.4-.03-.64.16-.2.26.06.4-.76.23-.63.3-1.85.4-2.7-.1.45-.14.3-.15.1.07-.4.23-.63.24-.95h.16c-.18.14.04-1.1.01-1.26.16-.2-.02.65.05.77l.44-2.47c.05-.9-.18.13-.23-.3.1-.78.15-1.55.4-2.42l-.2.26c.17-1.47.35-2.34.67-3.3.08-.7.05-1.3.2-1.8.15-.5.45-.9.76-1.2a3.22 3.22 0 0 1 1.76-.79c.87-.06.77-.2.43-.42-.5-.26-1.66-.32-2.5.13-.86.4-1.34 1.1-1.34 1.1-.24.33-.44.68-.56 1.06-.07.18-.1.38-.13.52-.03.12-.06.24-.08.36l-.3 1.37a49.37 49.37 0 0 0-.42 2.58l-.88 6.1c-.9 4.44-1.4 5.58-2.16 10.2-.44 2.2-.82 4.56-1.2 6.7.02 1.06-.53 2.83-.58 4.07l-.2.45c-.02.43-.07.92-.2 1.33l-.03-.03c-.03.64-.2 1.33-.23 1.65l-.03-.03-.13.76-.02-.14c-.1 1.1-.3 2.22-.54 3.2l.16-.05c-.56 2.08-.4 2.9-.95 4.77l-.03-.03c-.08 2.48-.97 3.75-1.08 6.3.01-.32-.1.12-.13.1-.17 1.15-.38 2.37-.1 2.45-.16.83-.2.66-.34.75.12.02.04.75-.08 1.4l.01-.3-.15.93-.08.47c-.03.2-.06.4-.05.6.08-.16.17-.3.28-.44-.1.6-.13.68-.2.76-.04.07-.12.17.1.75l.18-.08c.26.8.68 1.36 1.2 1.82.27.23.6.4.96.54.37.12.6.2.94.3l3.1.54a6.57 6.57 0 0 0 .08-.47c.1-.01.23-.01.34-.03-.12-.02-.2-.07-.32-.1.01-.03.01-.06.02-.1.56-.01.68-.01.77.04.1.04.3.05.88-.15l-.07-.18.03-.01c.25-.05.48-.1.74-.15l.16.05c.02.07.37-.1.68-.3l.42-.26c.1-.06.14-.08.2-.07.03-.02.05-.04.08-.06.66-.28 1.3-.6 2.02-1.13 1.45-1.24 2.5-2.73 3.57-4.14l3.1-4.35c2.04-2.9 4.03-5.76 6.05-8.3l.28-.15c.25.02.77-1.64 1.08-1.72l.35-.67c.15-.15.44-.5.27-.16.4-.56.4-.6.63-1.04l.54-.53c1.67-2.18 2.8-4.24 4.5-6.58.28-.34.57-.72.88-1.13.57-.58.65-1.84.17-2.62-.17-.3-.38-.55-.6-.77.7-.53 1.47-.93 2.18-1.33 1.4-.83 2.74-1.42 3.73-1.94l-.27.16c2.26-1.2 3.03-1.33 5.63-2.52.15-.05.34-.12.3-.1 1.28-.56 3.17-1.3 5-2.02l4.7-1.75.16.01 5.23-1.9-1.96.68c.62-.4 4-1.32 7.77-2.73 3.57-1.22 7.13-2.82 10.88-3.98 1.75-.67-1.52.65 1.1-.3.12.06-1.22.46-.5.3 2.6-.9 4.3-1.3 7.5-2.43l.15.03c4.16-1.5 7.96-2.47 10.72-3.48 4.32-1.44 2.98-.72 7.46-2.3l1.8-.46c1.94-.6 1.35-.55 3.5-1.18-.1.1 2.73-.8 1.5-.35 4.9-1.43 9.83-3.22 16.3-5.05 1.36-.55 4.6-1.48 5.6-1.9.2 0 6.47-2 2.88-.76-.3.1-.86.27-.83.24l-.4.2c1.85-.5 3.5-1.03 5.15-1.57 1.66-.53 3.3-1.1 5.1-1.76-1.07.36-2.5.85-1.56.48a77.75 77.75 0 0 0 3.33-1.21l-.67.33a63.04 63.04 0 0 0 4.88-2.06c-.23.1-.46.16-.7.24 1.18-.54 1.98-.9 2.8-1.33.4-.2.83-.44 1.28-.74.47-.28.97-.64 1.56-1.1 1.06-.82-2.1 1.35.16-.27l1.1-.87c.03-.02.05-.05.08-.08l1.44.1c1 .05 2.07.04 3.2.06l3.65.01 4.3-.22c6-.33 12.35-1.2 18.08-2.44l1.15-.32c1.17-.3 2.57-.63 4-.97 1.9-.54 3.9-1.02 5.45-1.6l1.25-.27c1.06-.4 2.32-.82 3.4-1.16l-.06.06c1.57-.65 3.38-1.24 4.14-1.6l-.05.06 1.9-.77-.3.18c1.36-.58 2.7-1.23 4.06-1.8l3.84-1.8-.26-.03c1.2-.55 2.2-1.06 3.1-1.54l.4 1.1c.84 2.3 1.5 4.65 2.1 7.04a225.84 225.84 0 0 1 1.7 7.17c2.1 9.58 3.9 19.07 5.6 27.87l.07.8c-.06.36 1.2 4.8 1.2 5.5l.5 2.03c.1.58.33 1.8.1.78.4 1.9.44 1.93.77 3.28l.37 2.04 5.14 21.48c1.04 4.7 2.6 11.44 4.38 18.26.88 3.4 1.8 6.83 2.82 10 .5 1.6 1.03 3.1 1.6 4.54.32.7.6 1.4 1.05 2.04.4.65.94 1.13 1.4 1.6l.4.36c-.22.25-.4.5-.58.76-.37.6-.7 1.27-.86 2.07-.17.78-.1 1.7.26 2.45.33.77.95 1.33 1.28 1.73l1.13 1.27.82.9a8.64 8.64 0 0 1 .66.68l.3.37.14.18c.04.06-.1.1-.14.16-.26.2-.67.22-.95 0-.27-.22-.47-.47-.66-.66l-.13-.14c-.04-.04-.05-.06-.23-.22l-.83-.73a16.47 16.47 0 0 0-.9-.7c-.16-.12-.33-.23-.53-.34-.3-.17-.57-.27-.9-.3-.15-.02-.3 0-.46.01l-.38.07-.53.1-1.02.23-1.96.46c-.17 0-.6.13-.6.16-1.6.23-3.2.34-4.78.3l-.95-.04c-.6-.05-1.4-.1-2.32-.3-1.84-.33-4.02-1.15-5.6-2-1.18-.6-2.05-1.17-2.4-1.26.01-.04.02-.08.03-.13.01 0 .02.01.02.01.32.13.42.1.36-.06-.04-.08-.05-.15-.2-.3-.02-.02-.06-.04-.08-.06.67-2.68 1.5-5.27 1.03-8-.06-.42-.2-.86-.33-1.24-.14-.36-.27-.73-.4-1.1l-.82-2.1-1.68-4.16-8.27-19.62-6.85-16.4c-1.93-4.64-4.04-9.24-6.77-16.83-2.6-7.25-4.88-15.14-6.58-22.48-.47-1.73-1-4.14-1.54-6.64l-.4-1.9c-.04-.3-.2-.66-.32-.98-.12-.34-.24-.66-.4-.93a40.5 40.5 0 0 0-1.36-2.58c-.27-.4-1.23-1.84-1.56-1.74-.32.1.5 2.06.74 2.66a36.37 36.37 0 0 1 .63 1.2c.36.72.7 1.4.94 2.12.25.74.38 1.65.62 2.66.48 2.04.7 2.33 1.5 6-.34-1.17.02.32.34 1.7-.2-.87-.3-1.13.08.67.08.25.2.63.3 1 0 .02.01.1 0 .05.6 2.27.52 1.87.25.8.02.05.01-.04-.05-.37.5 2.38 1.73 6.55 1.72 6.86 1.96 6.77 3.72 11.5 5.84 16.97.18.64-.35-.63-.97-2.2l1.5 3.88c-.1 0-.92-2.2-1.38-3.4 1.6 4.7 3.94 9.43 6.12 14.8l.53 1.08.13.32c.01-.01.16.27.34.66l.58 1.27c.26.78-.17.01.96 2.65.83 2.1 2.55 5.92 3.74 8.64-.6-1.48-.37-1.02-.08-.4.56 1.32.8 2.1 1.27 3.12l-.03.13c.14.15 1.55 3.5 1.77 3.93.25.78-.9-2.03-1.1-2.34l3.32 7.96c1.24 2.8-.13-.55.5.78 1.05 2.5 2.1 4.92 3.22 7.83l-.3-.94 2.4 5.94c.3.85.66 1.66.85 2.47.18.8.2 1.64.14 2.48-.1 2-.58 3.77-.94 5.38-.02 0-.04-.02-.06-.02-.77-.15-1.77.23-2.25 1.1l-.06.15c-.38.9-.65 1.75-.65 1.75-.44 1.33-.78 2.48-.9 3.78-.1 1.2-.08 2.32.02 3.46l.1.86c.04.28.12.9.2 1.42.06.25.06.56.18.76.08.02.17.03.25.05-.03.32-.05.57-.05.7-.02.52-.01.9.07 1.02s.2.02.42-.4c.13-.25.3-.7.48-1.16l1.04.16 4.18.6c5.54 1.04 6.96 1.56 12.73 2.46l8.36 1.4c1.3.01 3.52.6 5.06.7l.56.22c.53.03 1.15.1 1.66.25l-.04.03c.8.05 1.66.25 2.05.27l-.04.03.94.15-.17.02c1.37.14 2.76.38 3.98.64l-.08-.16c1.47.35 2.44.46 3.42.6l.03.02c.16.04.27.04.36.04.4.06.83.14 1.3.24.1.03.1.06-.04.07.68.2 1.38.28 2.13.37 2.17.45 4.4 1 6.58 1.54l.85.2.55.14c.12.03.23.05.34.07l.17.03.08.02c.02-.02.03-.05.05-.07.1-.13.17-.25.24-.36.02 0 .04.01.05.01-.02 0-.03-.01-.05-.01l.06-.1.6.1-.25.06 1.63.35-.2-.17c.38.1.7.23.9.3.04.05.04.06.2-.01.22-.06-.07-.2.23-.17.01.01.03.01.04.02a4.68 4.68 0 0 0-.12.3l-.06.14-.12.5-.24 1.02c-.05.24-.12.36-.22.5.16.01.06.2-.1.38l-.1-.07c-.28.34-.44.3-.52.25-.1-.05-.18-.07-.57.02l.07-.1c-.06.08-.14.18-.22.25-.07.03-.26.01-.36.01-.1-.01-.2-.02-.28-.04-.15-.03-.24-.08-.33-.12-.2-.1-.4-.16-1.14-.12.57.08.23.32-.47.14l.2-.1c-.4-.04-.53-.02-.8-.1.24-.02.15-.15-.43-.23l.4-.08-1.12.03c-.82-.27-2.17-.35-2.48-.57 0 0-1.78-.4-2.22-.28.38-.05-.6-.27-.3-.35-.5.05-1.88-.1-2.4-.32h.1c-2-.5-3.5-.42-5.3-.9.06.16-.9-.1-.68.14-1.92-.15-3.4-.97-4.16-.53-.86-.12-1-.3-1.44-.42h.2l-3.28-.53c-.6-.05-.74.2-1.8-.05.36-.04-.08-.1-.48-.17.26.03.34 0-.17-.16-.08.02-.2.02-.3.02 0-.01-.02-.02-.01-.03-.67-.08-.56-.03-.26.04-.02.01 0 .04.1.08-.67-.26-1.94-.33-2-.52-2.02-.3-3.48-.38-5.17-.6-.17-.12.23-.14.72-.1l-1.2-.17c.03-.13.7.04 1.06.08-1.38-.46-2.95-.3-4.57-.78l-.36.04-.1-.03c0 .06-.4.07-.64.04-.22-.16.06-.26-.76-.4-.63-.22-1.85-.27-2.7-.35.45.1.3.14.1.14-.4-.07-.63-.22-.95-.23l-.01-.16c.14.17-1.1-.03-1.26.01-.22-.16.65.01.77-.06l-2.47-.4c-.9-.04.14.17-.3.24-.78-.1-1.55-.13-2.43-.38l.26.2c-1.47-.15-2.34-.32-3.3-.63-.7-.07-1.3-.04-1.8-.17-.5-.14-.9-.45-1.2-.77-.57-.66-.73-1.32-.8-1.74-.12-.85-.26-.75-.45-.4-.22.5-.25 1.6.18 2.43a3.61 3.61 0 0 0 1.1 1.35 3.62 3.62 0 0 0 1.08.57c.17.06.4.1.52.13s.24.05.36.08l1.37.27a49.22 49.22 0 0 0 2.59.39c1.73.22 3.57.42 6.12.8 4.45.85 5.6 1.32 10.24 2.02 2.2.4 4.57.76 6.73 1.1 1.06-.03 2.83.5 4.07.53l.45.2c.43.01.92.06 1.33.2l-.03.03c.64.02 1.33.2 1.65.2l-.03.03.76.12-.14.03c1.1.1 2.23.28 3.2.5l-.06-.16c2.1.53 2.9.37 4.78.9l-.03.03c2.47.04 3.77.92 6.3 1-.32-.01.12.1.1.13 1.15.16 2.38.35 2.44.07.83.15.66.2.76.33.01-.12.75-.05 1.4.06h-.3l1.4.2c.17.02.4.04.6.03-.16-.07-.3-.17-.44-.26.6.1.68.1.75.17.07.04.16.1.73-.08l-.07-.18c.8-.24 1.37-.62 1.85-1.15a3.15 3.15 0 0 0 .56-.96c.13-.4.2-.6.3-.95l.55-3.15c-.2-.05-.4-.08-.6-.1zM98.2 357.4c-.35.27-.96.84-1.93 1.84l.01-.06c-.76.92-1.22 1.5-1.6 2.26-.22 0-.6.78-.8.97v-.03c-.33.66-.98 1.14-1.3 1.77.01-.03-.02-.07.07-.2-.3.42-.67 1-.77.98-.7 1-1.75 2.33-2.1 3.06v-.06c-.18.42-.33.47-.58.9-.03.01-.05.04-.05.03-.2.46-.83 1.15-1.03 1.5l-.07-.02-.56.8.23-.28c.07.2-.53.52-.85 1.15-.4.5-.5 1.3-.97 1.8-.13.3.06-.32-.18.1-.08-.05.1-.22-.05-.17-.25.4-.54.57-.84 1.08l-.07-.03c-.35.68-.98.97-1.26 1.38-.55.52-.52.15-1.08.7l-.3.07c-.15.07-.2.13-.23.18s-.12.12-.18.12c-.02-.06-.16.01-.1-.08-.05-.01-.08 0-.13.02-.04.01-.15.1-.13.03-.01-.04 0-.1.02-.18.01-.04.02-.07.04-.1h.01l.03-.1c.02-.06.05-.13.07-.2-.07-.27.13-.83.08-1.04.06-.02.25-1.15.23-.48 0 .06-.03.15-.04.14l.06.1c.27-.62.18-1.2.34-1.84-.06.2-.1.44-.13.26l.14-.6.03.14.23-.88-.1.1c.13-.43.3-.55.3-1.07-.01-.23-.2.4-.1-.07.18-.57.44-1.43.62-2.17-.1.05-.05-.15-.03-.36h.08c.07-.8.22-.26.3-1.05l-.07-.16c.01-.74.23-.35.2-1.18-.05.3-.2.1-.08-.26l.05.1c.03-.2.02-.3.06-.43.01.13.1.1.14-.22l.04.23v-.6c.17-.44.23-1.18.37-1.34 0 0 .26-.97.2-1.2.03.2.17-.32.2-.15-.02-.27.07-1.03.22-1.3v.06c.32-1.1.28-1.9.6-2.88-.1.03.07-.48-.07-.38.12-1.05.64-1.8.4-2.25.1-.47.2-.53.3-.76v.1a22.55 22.55 0 0 1 .43-1.75c.06-.32-.1-.42.12-.97.01.2.06-.03.13-.25-.03.14-.02.2.1-.08-.01-.04 0-.1.01-.17.1-.36.07-.3.01-.14-.01-.01-.02 0-.06.04.2-.34.32-1 .44-1.02l.23-.7c.06-.18.16-.33.28-.46a1.2 1.2 0 0 1 .96-.4c.08.07-.1.08-.3.13.16-.02.33-.03.5.01-.02.07-.28-.02-.43.02.28.05.56.07.83.24.14.07.26.2.37.33a4.63 4.63 0 0 1 .39.56l.17.12.03.05c.03-.02.2.12.28.22.02.15-.14.1.15.45.17.33.66.8.97 1.16-.15-.2-.07-.17.02-.1.14.18.17.33.3.45l-.06.08c.02-.13.43.42.53.45.03.15-.28-.23-.35-.25.6.7.3.37.97 1.03.4.3 0-.13.23-.02.33.3.7.52 1.05.87l-.07-.16c.68.46 1.07.73 1.5 1.1.67.32 1.2.52 1.64.65-.01.02-.03.04-.04.05a13.59 13.59 0 0 0 1.06.46s-.1.1-.25.27zm6.54-9.92c-.3.7.18-.67-.36.3-.15-.06.2-.48-.05-.32-.56.93-1.15 1.36-1.83 2.52l-.13-.03c-.8 1.56-2.02 2.6-2.5 3.67-.95 1.53-1 .77-1.88 2.44l-.07.06c-.03-.02-.05-.03-.08-.05l-.53-.32c-.95-.6-1.66-1.08-2.4-1.6-.37-.26-.74-.55-1.13-.9-.2-.17-.4-.36-.6-.56-.2-.22-.4-.48-.62-.74-.72-.98-1.15-1.62-1.6-2.26l-.36-.5c-.16-.23-.37-.46-.65-.66-.55-.37-1.4-.6-2.3-.23a2.36 2.36 0 0 0-1.06.84c-.13.2-.23.4-.3.6l-.17.46a30.75 30.75 0 0 0-.55 1.82c-.04.6-.43 1.54-.5 2.22l-.13.24c-.02.24-.06.5-.16.73l-.02-.02c-.03.35-.15.73-.16.9l-.02-.02-.1.4v-.08c-.08.6-.2 1.2-.36 1.75l.1-.03c-.35 1.13-.26 1.6-.6 2.6l-.02-.02c-.05 1.36-.6 2.04-.67 3.43.01-.17-.06.06-.08.04-.1.63-.24 1.3-.07 1.34-.1.45-.13.36-.2.4.07.01.02.4-.05.77l.01-.17-.2 1.02.18-.17c-.15.53-.2.1-.27.62l.12.02c-.18.74-.45 1.14-.7 1.84-.34 1.5-.6 3.05-.9 4.58-.14.77-.28 1.5-.45 2.28l-.1.4c-.2.06-.3.05-.38.04-.08-.01-.16-.03-.3 0-.06 0-.2.03-.26.05-.02.01-.02.01-.05.04.01-.03.02-.06.02-.1a.57.57 0 0 1-.12.28c-.1.06-.2.1-.24.1l.03-.14c.05-.07.07-.1.03-.17.01-.08.03-.15.04-.23l.24-1.44.04.35.02-.7c0-.02.01-.03.01-.05l.32-2c.14-.75.25-1.47.4-1.7 0 0 .5-2.2.42-2.76.03.47.3-.75.37-.38-.02-.6.2-2.33.46-2.98v.13c.1-.44.2-.86.27-1.27.03-.05.05-.15.05-.27.23-1.26.35-2.4.57-3.56l.04-.1c.1-.4.17-.8.24-1.2.02-.07.03-.13.05-.2.27-1.6.42-3.15.8-4.92.78-2.7 1.5-7.9 1.93-10.9.47-4.24 2.23-8.94 2.68-13.3.06-.13.06-.5.03-.5l.77-3.9.44-2.37.4-2.26.36-2.26c.16-.02.36-.05.6-.06.26-.02.52-.02.8-.01l-.36-.12c1.8-.2 2.92-.08 4.1.25 2.1.12 3.62.53 4.64.72l.02.01c.56.22.84.73.9 1.15a1.33 1.33 0 0 1-.02.53l-.52-.03c-.03.05-.03.1-.06.14-.16.2-.33.42-.5.66a8.78 8.78 0 0 0-.7.69c-.74.82-1.78 2.14-2.8 4.28v-.14c-.54 1.3-.85 2.42-1.03 3.45a9.87 9.87 0 0 0-.1 2.96c-.3.3.01 2.3-.01 2.93l-.03-.06c.36 1.66.25 3.5.77 5.03-.03-.06-.12-.07-.2-.44.07.28.14.6.2.9.03.15.07.3.1.44l.06.32c.02.1-.02.18-.06.22s-.14.15-.18.13c-.3.5-.78 1.08-1.26 1.65-.62.77-1.95 2.07-2.27 2.84-.17.4-.26.66-.3 1-.04.33.02.72.16 1.06a2.8 2.8 0 0 0 .58.89 2.51 2.51 0 0 0 .35.31l.18.12c.05-.02.1-.05.14-.07l-.12.08c.43-.22.68-.35.93-.45l.4-.16c.16-.07.3-.1.68-.48.06-.02.15-.08.14-.06.35-.35.74-.7 1.16-1.07l1.2-1c.6-.5 1.2-.96 1.52-1.28l.12.05c.6-.5 1-.92 1.52-1.08-.2.05-.4.15-.58.25.01-.18.34-.35.8-.38s.98.08 1.64.28l.92.43c.33.16.66.28.93.47.28.18.52.44.6.74.13.4.06.74-.22 1zm227.4 61.9l.04.04c.01.01.01.01.02.01.28-.62.4-1.02.4-1.02s.1.08.3.2c.28.35.85.95 1.86 1.9h-.06c.92.75 1.52 1.2 2.27 1.56 0 .22.78.58.97.8h-.03c.67.32 1.15.96 1.78 1.27-.03 0-.07.02-.2-.07.43.28 1 .65.98.76 1 .7 2.35 1.72 3.08 2.04l-.06-.01c.42.17.48.32.9.57.01.03.04.05.03.05.46.2 1.15.8 1.5 1l-.02.07.8.55-.28-.22c.2-.08.52.52 1.16.83.52.4 1.3.47 1.8.93.3.12-.3-.05.12.18-.04.1-.22-.08-.16.05.4.24.57.53 1.1.82l-.02.07c.7.33 1 .94 1.42 1.2.54.53.16.5.72 1.05l.07.3c.08.14.13.18.18.22s.12.1.12.18c-.06.02.02.15-.08.1-.01.05 0 .08.03.13.01.04.1.15.03.13-.04.01-.1.01-.18-.01-.04-.01-.07-.02-.1-.04 0 0-.05-.02-.13-.04-.06-.02-.13-.04-.2-.07-.27.07-.83-.1-1.03-.06-.02-.06-1.15-.23-.48-.22.06 0 .15.02.14.04l.1-.06c-.62-.26-1.2-.16-1.83-.3.2.06.44.1.26.12l-.6-.13.14-.04-.88-.2.1.1c-.43-.12-.56-.28-1.07-.27-.23.02.4.18-.07.12-.57-.17-1.43-.4-2.17-.58.05.1-.15.06-.36.03l-.01-.08c-.8-.05-.26-.22-1.05-.3l-.16.08c-.73.01-.35-.23-1.17-.18.3.05.1.2-.26.08l.1-.05c-.2-.03-.3-.01-.43-.05.13-.01.1-.1-.23-.14l.23-.05-.6.01c-.44-.16-1.18-.2-1.34-.35 0 0-.96-.24-1.2-.18.2-.03-.32-.16-.15-.2-.27.03-1.03-.06-1.3-.2h.06c-1.08-.3-1.9-.28-2.87-.6.03.1-.48-.06-.38.07-1.04-.1-1.8-.62-2.25-.37-.47-.1-.53-.2-.76-.28l.1.01c-.87-.17-1.12-.23-1.75-.4-.32-.05-.42.1-.97-.1.2-.01-.03-.06-.25-.12.14.03.18.02-.08-.1-.04.01-.1 0-.17-.01-.36-.1-.3-.07-.14-.01-.01.01 0 .02.04.05-.34-.18-1-.3-1-.43l-.7-.23c-.18-.06-.33-.15-.46-.27-.26-.23-.43-.57-.44-.95.06-.08.1.1.15.3-.04-.16-.05-.33-.01-.5.07.02 0 .28.04.43.04-.3.04-.57.2-.84.06-.14.18-.26.3-.37.17-.12.37-.24.58-.34l.12-.16.05-.02c-.02-.03.12-.18.23-.27.15-.02.1.14.46-.14.34-.16.8-.65 1.15-1-.2.15-.17.07-.1-.02.18-.15.32-.18.44-.32l.08.06c-.12-.01.4-.47.42-.56.14-.04-.22.3-.23.36.67-.63.35-.3 1-.98.3-.4-.13 0-.02-.23.3-.33.5-.7.86-1.05l-.16.07c.45-.68.72-1.07 1.08-1.5a12.67 12.67 0 0 0 .59-1.65zm21 18.23c-.13-.08-.1-.1-.3.02l-1.18-.18c-.1-.04-.27-.1-.56-.13l.5-.06-1.35-.02c-.02 0-.05-.01-.07-.01-1.02-.3-2.65-.43-3.05-.67 0 0-2.22-.47-2.76-.38.47-.04-.75-.3-.38-.37-.6.03-2.33-.17-3-.42l.13.01c-2.5-.58-4.36-.57-6.6-1.13.03.07-.15.06-.36.04l-3.57-.52c-.37-.08-.7-.15-1-.2-2.75-.73-7.8-1.37-10.73-1.74-.65-.06-1.32-.17-2-.28-.03-.02-.06-.03-.07-.05l-1.15-.17c-3.33-.67-6.82-1.7-10.1-2a1.36 1.36 0 0 0-.51-.03l-3.92-.72-2.42-.4-2.3-.36-2.36-.34c-.06-.34-.12-.94-.1-1.47l-.12.36c-.2-1.8-.13-2.93.16-4.1.2-2.1.54-3.62.72-4.64l.01-.03c.22-.56.73-.84 1.15-.9.06-.01.1-.01.17-.01-.02.07-.04.15-.05.23l-.03.2c.2.01.4.06.55.2.06.05.14.1.2.16.01-.06.03-.1.04-.17.15.25.48.66 1.1 1.22.82.74 2.15 1.78 4.32 2.76h-.14c2.64 1 4.52 1.18 6.43.96.3.3 2.3-.02 2.94-.02l-.06.03c1.66-.37 3.5-.3 5.03-.84-.06.04-.07.12-.43.2l.9-.23c.15-.04.3-.07.44-.1l.28-.06c.1-.02.18.04.2.07.07.05.17.16.16.2.5.3 1.1.78 1.7 1.25l1.35 1.13.77.65c.23.14.5.35.7.42.43.2.7.27 1.04.3.34.03.73-.03 1.08-.2s.64-.4.87-.63c.2-.23.5-.52.3-.7l.08.12c-.23-.44-.36-.7-.46-.95-.05-.13-.1-.26-.17-.42l-.05-.12-.03-.07-.1-.1c-.13-.14-.26-.3-.42-.47-.03-.07-.1-.16-.06-.14-.34-.34-.7-.73-1.06-1.15l-.9-1.08c-.5-.6-.96-1.2-1.28-1.52l.05-.12c-.5-.6-.9-.97-1.07-1.52.06.2.14.4.25.58-.2-.01-.34-.35-.37-.8-.02-.46.1-1 .27-1.67.28-.58.5-1.27.9-1.8.2-.26.47-.5.78-.57.16-.04.33-.04.5 0 .16.05.27.17.44.3.7.3-.67-.17.3.35-.06.15-.48-.2-.32.06.94.54 1.38 1.13 2.55 1.78l-.02.13c1.57.8 2.63 1.98 3.7 2.45 1.54.92.8.98 2.47 1.84l.01.01c-.03.05-.06.1-.08.15l-.3.53c-.6.95-1.05 1.66-1.56 2.4a12.72 12.72 0 0 1-2.14 2.39 18.99 18.99 0 0 1-2.25 1.55c-.17.1-.3.17-.55.34-.26.2-.46.42-.65.7-.34.58-.5 1.42-.1 2.28a2.44 2.44 0 0 0 .85 1.03c.18.13.4.23.58.3l.46.16c.62.2 1.23.38 1.82.53.6.04 1.54.4 2.22.46l.24.13c.23.02.5.06.72.15l-.02.02c.35.02.72.14.9.15l-.02.02.4.08-.08.01c.6.07 1.2.2 1.74.34l-.03-.1c1.12.34 1.58.25 2.6.58l-.02.02c1.35.03 2.04.56 3.43.6-.17-.01.06.06.05.08.63.1 1.3.22 1.34.05.45.1.36.12.4.2.01-.07.4-.03.77.04h-.17l1.02.17-.17-.18c.53.15.1.2.62.26l.02-.12c.74.17 1.14.43 1.84.65 1.5.32 3.05.56 4.58.82l2.28.4c.14.03.27.05.4.08.13.3.1.43.1.53-.01.08-.02.16 0 .3a1.1 1.1 0 0 0 .04.21c0 .01.01.02.04.04-.03-.01-.06-.02-.1-.02a.67.67 0 0 1 .29.13c.1.3.03.37-.1.24z"/></svg>