<svg xmlns="http://www.w3.org/2000/svg" viewBox="0 0 480 480" xmlns:v="https://vecta.io/nano"><path d="M182.7 437.9c-5.3-.8-4.8-9.3-2.2-14.9l3.8-21.8 24-.4s-4.9 17.5-3.6 18.5c2.4 2.1 8.7 5.5 23.1 10 6.7 1.9 10.8 2.6 10.5 5.5s-1.4 2.8-1.4 2.8l-54.2.3z" fill="#fff"/><path d="M219.56 438.13l-.1.01.1-.01zm-23.24 9.73l.34.06c-.01-.03-.1-.05-.34-.06zm7.1-3.96h-.08c.06 0 .08 0 .08-.01zm6.05 5.92h-.02l-.1.01z"/><path d="M238 437.6h-56.3c-1.4 0-2.6 1.2-2.6 2.6v2.9l61.6-.1v-2.9c-.2-1.4-1.4-2.6-2.7-2.5z" fill="#fff"/><path d="M219.2 438.3l-.34-.06c.01.03.1.05.34.06zm1.1 3.97l.08-.01c-.06 0-.07 0-.08.01zm-14.25-5.92h.02l.1-.01zm6.65-13.27c-.08-.02-.1-.02-.06.01.02 0 .04 0 .06-.01zm9.05 10.16l-.2-.07c0 .03.06.06.2.07zm1.95 3.4c.02 0 .03-.01.05-.01-.04 0-.05 0-.05.01zm-6.5-8.74h0l.03.03z"/><path d="M222.6 432.4c2.5-.2 4.5-1.9 5.2-4.1l-11.8-4.4c-.3.9-.4 1.8-.3 2.8.3 3.6 3.4 6.1 6.9 5.7z" fill="#fff"/><path d="M209.92 431.27h0l.04.1zm16.16-1.4l.1-.02c-.02-.02-.05-.02-.1.02zm-8.68-.56c.01 0 .01 0 .02.01-.01-.01-.02-.01-.02-.01zm10.6-2.28h0c.03 0 .04 0 .06.01l-.06-.01z"/><path d="M248.6 437.9c-5.8 0-1.7-10.3-1.5-14.9-.8-5.5-1.6-21-1.6-21l23.9-1.9s.7 18.2 1.9 19.2c2.4 2.1 8.7 5.5 23.1 10 6.7 1.9 10.8 2.6 10.5 5.5s-1.4 2.8-1.4 2.8l-54.9.3z" fill="#fff"/><path d="M250.67 402.32h-.02c-.04.01-.08.01-.12.02l.14-.02zM181.5 414.8l.1-.44c-.02.01-.05.12-.1.44zm6.66-12.94h-.02c-.04 0-.08.01-.12.01l.14-.01zm17.14 16.9c-.02.01-.03.01-.05.01.02.01.04 0 .05-.01zm71.82-8.65c.04-.06.08-.14.1-.2l-.1.2zm-22.56-26.3l.01.06c-.01-.04-.01-.06-.01-.06zm-56.82 29.14h-.42.42zm88.43 25.2l-.1.01.1-.01zm-23.23 9.73l.34.06c-.01-.03-.1-.05-.34-.06zm7.1-3.96h-.08c.06 0 .08 0 .08-.01zm6.06 5.92h-.02l-.1.01z"/><path d="M304.62 437.6h-56.3c-1.4 0-2.6 1.2-2.6 2.6v2.9l61.6-.1v-2.9c-.2-1.4-1.4-2.6-2.7-2.5z" fill="#fff"/><path d="M285.83 438.3l-.34-.06c0 .03.1.05.34.06zm1.07 3.97l.08-.01c-.06 0-.08 0-.08.01zm-14.23-5.92h.02l.1-.01zm6.65-13.27c-.08-.02-.1-.02-.06.01.02 0 .04 0 .06-.01zm9.05 10.16l-.2-.07c0 .03.06.06.2.07zm1.93 3.4c.02 0 .03-.01.05-.01-.04 0-.05 0-.05.01zm-6.48-8.74h0l.03.03z"/><path d="M289.22 432.4c2.5-.2 4.5-1.9 5.2-4.1l-11.8-4.4c-.3.9-.4 1.8-.3 2.8.3 3.6 3.4 6.1 6.9 5.7z" fill="#fff"/><path d="M276.54 431.27h0l.04.1zm16.16-1.4l.1-.02c-.02-.02-.05-.02-.1.02zm-8.7-.56c.01 0 .01 0 .02.01-.01-.01-.02-.01-.02-.01zm10.6-2.28h0c.03 0 .04 0 .06.01l-.06-.01zm-114.25 13.54h0l.1.13zm66.62 0h0l.08.13z"/><path d="M308.2 441.1l-.03-.98c.01-.12-.03-.26-.05-.37-.02-.1-.05-.2-.08-.3-.06-.2-.13-.36-.2-.53-.65-1.38-2.04-1.98-2.75-1.9-.36.02-.54.13-.5.2 0 .1.22.14.57.3.65.3 2.16 1.4 1.44 3.95l-.05-.1-.01.2-.01.08v.15l-.03.26-.35-.02-.6.02-1.66.17c-.24-.3-1.8-.03-2.3-.12l.05-.02c-1.33.22-2.74-.18-4.02.02.05-.02.08-.1.37-.1-.93.04-2.2.1-2.28-.06-2.23.05-5.34-.02-6.77.24l.1-.05c-.8.18-1.05.03-1.96.12-.05-.02-.1-.03-.1-.04-.9.18-2.6.03-3.3.1l-.05-.1-1.77.03.66.02c-.23.3-1.34-.2-2.62.01-1.2-.04-2.43.64-3.68.5-.6.14.52-.23-.36-.12-.03-.16.4-.1.2-.23-.87.08-1.43-.16-2.5-.05l-.04-.12c-1.4.23-2.65-.16-3.58.06-1.45.1-.97-.37-2.48-.12l-.6-.17c-.64-.03-.46.2-1.18.13.04-.1-.9-.08-.48-.18-1.62-.16-3.28.24-5.4-.04-.46.2-1.53.1-1.88.24-.06-.1-2.15-.01-.94-.2.1-.02.3-.01.27.02l.14-.12c-1.2-.23-2.2.13-3.4.1.36.04.83.03.5.1l-1.12-.01.23-.1-1.66-.06.23.13c-.8-.06-1.1-.28-2.02-.1-.42.1.77.17-.1.2l-1.94-.14-1-.06c-.06-.01-.1-.03-.16-.04-.06.08-.1.1-.16.13-.02-.02-.02-.05-.03-.1l.12-.1c-.1-.13-.02-.12.05-.3.07-.13.15-.27.08-1l-.17-.26c-.12-.5.01-.53.1-.64.1-.1.13-.17.32-.62-.22.3-.37-.07.1-.36l-.03.17c.2-.18.26-.26.43-.3-.12.13 0 .17.32.06-.06.07-.12.13-.17.2.08-.07.17-.13.27-.18s.18-.1.4-.13c.85.13 2.2-.03 2.54.14 0 0 1.82.08 2.24-.1-.37.12.64.16.35.3.47-.13 1.87-.24 2.43-.1l-.1.02c2.07.14 3.53-.2 5.4-.02-.08-.14.9-.07.65-.25 1.92-.18 3.5.38 4.2-.2.87-.03 1.03.13 1.48.16l-.2.03 3.32-.04c.6-.06.7-.32 1.8-.26-.35.1.1.1.5.1-.26.02-.34.06.2.13.08-.03.2-.05.3-.07 0 .01.03.01.01.03.68-.04.56-.07.25-.08.02-.02-.01-.04-.1-.07.7.14 1.96-.01 2.05.17l5.2-.3c.2.1-.2.18-.7.2l1.2-.03c-.01.13-.7.08-1.06.1 1.43.22 2.95-.22 4.63-.02l.35-.1.1.02c-.01-.06.37-.13.62-.15.24.12-.02.27.82.26.66.1 1.87-.06 2.73-.12-.46-.02-.3-.08-.1-.13.42 0 .66.1.98.06l.04.16c-.16-.15 1.1-.16 1.24-.22.24.12-.65.1-.75.2l2.5-.02c.9-.12-.16-.15.26-.3.8-.03 1.55-.14 2.45-.05l-.3-.14c1.48-.1 2.36-.1 3.35.05 4.7-.5 5.8-.84 5.53-1.1h.02c.1-.26.17-.52.24-.77.1-.47.2-.88.23-1.33.1-.95-.4-1.86-.97-2.25-.42-.35-.7-.53-.93-.67l-.5-.34c-.3-.2-.62-.38-1.62-.66l-.73-.35c-.84-.28-.64-.07-1.56-.4.04-.03-.37-.16-.6-.24-.01-.02-.02-.04-.03-.05h.03c-.01 0-.02-.01-.03-.01l-.1-.14c-.16-.2-.32-.34-.46-.42-.3-.17-.47-.14-.47.01 0 .07.04.16.08.3l-.2-.06c-.01 0-.01-.01-.02-.01l-1.57-.58.57.07c.47.05.8.05 1.02.03.45-.04.46-.2.3-.4-.18-.2-.54-.42-.87-.6l-.42-.22-.27-.12-2.28-.95-.07.18c-.25-.1-.47-.18-.58-.13l-.07-.15c-.12.02-.25.02-.32-.08l.02-.03c-.18.03-.32-.08-.4-.07l.02-.03-.18-.05.05-.04c-.3 0-.55-.1-.77-.22l-.03.14c-.44-.34-.72-.12-1.1-.47l.02-.03c-.7.15-.8-.58-1.5-.45.1-.02 0-.08.01-.1-.28-.06-.58-.15-.68.12-.2-.08-.13-.14-.1-.26-.04.12-.23.1-.4.05l.1-.02-.45-.12v.25c-.2-.15.04-.3-.2-.32l-.07.18c-.3-.16-.4-.5-.65-.75-.3-.14-.65-.25-1-.34l-.5-.14-.6-.16-.2-.07c0-.01.01-.03.02-.05-.06-.03-.1-.05-.16-.06l.07-.01-.77-.27h.17l-.86-.26-.72-.24c-.3-.1-.58-.22-.85-.34l-.01.15-.4-.2c-.08-.04-.36-.16-.54-.16-.4-.05-.72-.01-1.08.1-.23.08-.5.23-.7.44l-3.06-1.64c.1.16-.32-.1-.77-.32l-.01-.1c-.86-.46-.98-.6-1.1-.73s-.25-.25-1-.8l.16.06-.48-.18c-.05-.03-.1-.06-.13-.1-.07.01-.17-.3-.2-.42l-.06-.4c-.02-.25-.07-.52-.3-1.43.13.75-.12.4-.2-.56l.1.23-.16-1.04c.08.3.12.15.02-.62l.15.5-.3-1.44-.04-.74.84-.01 1.94-.02h.93l.46-.01.55-.05c1.2-.2 2.26-.93 2.92-1.95.33-.5.54-1.1.6-1.7l.08-1.56.2-6.16.22-12.63c.12-8.5.16-17.02-.1-25 .01-.26 0-.73-.02-1.13l-.03-.52c-.01-.13-.02-.2-.03-.2l-.15-14.62-.6-28.7c-.18-5.5-.36-9.3-.6-8.37-.08.3-.15 1.08-.23 2.44l-.02-2.44c-.02-2.3-.12-5.97-.3-10.57l.72 9.54c.24 2.7.38 2.5.5 1.03.24-2.95.05-10.92.05-10.92-.32-15.9-1.13-24.1-2.25-42.98-.87-16.62-.83-21.04-2.15-38.25l-.5-6.24-.3-3.16-.14-1.53-.07-.77c.04-.18-.14-.13-.26-.13h-.4-2.46l-12.45.06-1.15.05-1.58.03-.52.28c-11.34-.2-30 .04-41.07.17l-6.46.07c-2.42 0-4.88-.01-7.36-.01l-.43 5.68-.4 5.03-.87 10.1-1.5 19.77c-.04.28-.07.77-.08 1.2l-.02.55c0 .14 0 .23.01.23L195 265.1l-2.36 30.6c-.38 5.87-.5 9.95-.2 8.98.1-.3.24-1.12.44-2.53l-.2 2.55-1.57 11.24c1.3-12.75 1.26-13.9.65-11.38-.72 3.07-1.96 11.5-1.96 11.5-2.57 16.8-3.28 25.57-5.85 45.64l-2.9 20-3 20.47-.54 3.27-.14.82c-.04.3-.1.62-.1.93-.05.62-.08 1.28.05 2.02.12.72.5 1.68 1.32 2.26.4.3.8.46 1.2.56a5.6 5.6 0 0 0 .59.12c.22.03.37.04.5.04l3.4.15 13.33.6c1.86-.01 4.36.1 7 .24-.06.45-.08.75-.01.77-.22 1.13-.22.9-.32 1.05.07.01-.07 1-.18 1.9l.02-.42c-.05.43-.1.86-.12 1.3 0 .46-.07.85.13 1.46-.06-.27-.01-.45.02-.64.01.35.08.65.16.78.08.14.1.2.14.25.07.1.1.16.63.56l.06-.1c1.52 1.14 2.42 1.82 4 2.74.56.3 1.13.55 1.7.8-.02.04-.04.07-.07.1l-.03-.03c-.22 1.43-1.15 1.92-1.4 3.4.03-.18-.1.04-.13.01-.24.62-.5 1.28-.25 1.4-.2.44-.24.33-.37.34.12.05-.01.45-.16.8l.03-.18-.4 1 .3-.1c-.3.5-.32.02-.5.55l.18.07c-.36.7-.82 1.02-1.27 1.67-.33.7-.64 1.42-.94 2.15l-.67 1.62c-1.02.04-2.3-.04-3.24.1l-.48-.12c-.42.06-.92.1-1.35.04l.03-.03c-.63.1-1.35.04-1.66.08l.03-.04-.77.02.13-.05c-1.1.1-2.24.1-3.24.06l.08.15c-2.14-.16-2.93.14-4.86-.05l.03-.04c-2.44.38-3.87-.26-6.4.1.3-.05-.13-.07-.1-.1l-1.64.08c-.14.01-.26.03-.38.05-.14-.1-.25-.22-.37-.32-.07-.06-.13-.12-.2-.17-.05-.07-.1-.14-.15-.2l-.26-.34c-.13-.2-.2-.36-.2-.36-.56-1.13-.7-2.34-.77-3.46-.06-1.13.04-2.23.2-3.34.15-1.12.42-2.26.82-3.5.1-.3.2-.63.34-.95.06-.16.13-.32.2-.5l.13-.33c.03-.06.04-.2.05-.24v-.14l.4-2.4c.78-4.3.27-7.65.05-6.68l-.02.47-.03.13c.03 0-.01.5-.05.84-.12.3-.16-.05-.34 1.06-.22.86-.4 2.5-.56 3.64.12-.62.12-.4.1-.14-.1.55-.22.86-.26 1.3l-.1.04c.13-.2-.16 1.46-.15 1.67-.12.3.1-.87.06-1l-.2 1.1c-.01.04-.01.03-.03.08s-.04.1-.05.13c-.03.08-.06.14-.1.2-.1.27-.24.52-.6 1.6-.3 1.2.14-.2.05.4-.3 1.03-.5 2.05-.74 3.26l.15-.37c-.26 2-.28 3.18-.23 4.54.3 1.86 1 3.22 1.82 3.93l.47.34c0 .02-.02.03-.02.05-.5.16-.7.28-.8.3s-.12-.02-.2-.03c.07.1-.7.68-1.04 1.46.04-.12.1-.24.15-.36-.22.34-.37.72-.45 1.13-.04.2-.06.4-.06.6l.01.5.24-.37c-.07 1-.3.25-.23 1.22h.2l-.05.95c-.15 0-.3.01-.45.01.17 2.6.32 3.3.52 3.6.1.1.2-.03.32-.48.02-.06.03-.14.05-.2l.02.68c0 1 .62 1.9 1.48 2.32-.3-.1-.57-.26-.8-.42-.7-.53-.96-1.16-1.1-1.57-.24-.83-.37-.7-.5-.33-.15.54.03 1.66.6 2.4.55.76 1.3 1.1 1.3 1.1.36.2.74.32 1.13.38.18.03.42.05.55.05.12.01.25.01.37.02l1.4.03a56.606 56.606 0 0 0 2.62-.06c1.74-.08 3.6-.2 6.17-.26 4.53.07 5.73.34 10.42.23 2.24.02 4.63-.04 6.82-.07 1.04-.2 2.87 0 4.1-.18l.48.12c.42-.06.92-.1 1.35-.04l-.03.03c.63-.1 1.35-.04 1.66-.08l-.03.04.77-.02-.13.05c1.1-.1 2.24-.1 3.24-.06l-.08-.15c2.14.16 2.93-.14 4.86.05l-.03.04c2.44-.38 3.86.26 6.38-.1-.3.05.13.07.1.1 1.16-.04 2.4-.06 2.42-.35.85 0 .7.1.8.2 0-.12.73-.18 1.4-.18l-.3.05.95-.02.47-.01c.16-.01.4-.01.6-.05-.17-.05-.33-.12-.48-.2.6 0 .7.01.78.05.08.03.18.1.72-.2l-.1-.17c.74-.38 1.23-.86 1.62-1.45.18-.3.33-.63.42-1l.1-.52.06-.48v-1.38h.1l-.04-2.8-.03-.98c.01-.12-.03-.26-.05-.37-.02-.1-.05-.2-.08-.3-.06-.2-.13-.36-.2-.53-.65-1.38-2.04-1.98-2.75-1.9-.36.02-.54.13-.5.2 0 .1.22.14.57.3.65.3 2.16 1.4 1.44 3.95l-.05-.1-.01.2-.01.08-.02.15-.03.26c-.13-.01-.24-.02-.35-.02l-.6.02c-.57.03-1.1.08-1.66.17-.24-.3-1.8-.03-2.3-.12l.05-.02c-1.33.22-2.74-.18-4.02.02.05-.02.08-.1.37-.1-.93.04-2.2.1-2.28-.06-2.23.05-5.34-.02-6.77.24l.1-.05c-.8.18-1.05.03-1.96.12-.05-.02-.1-.03-.1-.04-.9.18-2.6.03-3.3.1l-.05-.1-1.77.03.66.02c-.23.3-1.34-.2-2.62.01-1.2-.04-2.43.64-3.68.5-.6.14.52-.23-.36-.12-.03-.16.4-.1.2-.23-.87.08-1.43-.16-2.5-.05l-.04-.12c-1.4.23-2.65-.16-3.58.06-1.45.1-.97-.37-2.48-.12l-.6-.17c-.64-.03-.46.2-1.18.13.04-.1-.9-.08-.48-.18-1.62-.16-3.28.24-5.4-.04-.46.2-1.53.1-1.88.24-.06-.1-2.15-.01-.94-.2.1-.02.3-.01.27.02l.14-.12c-1.2-.23-2.2.13-3.4.1.36.04.83.03.5.1l-1.12-.01.23-.1-1.66-.06.23.13c-.8-.06-1.1-.28-2.02-.1-.42.1.77.17-.1.2l-1.94-.14-1-.06c-.06-.01-.1-.03-.16-.04-.06.08-.1.1-.16.13-.02-.02-.02-.05-.03-.1l.12-.1c-.1-.13-.02-.12.05-.3.07-.13.15-.27.08-1l-.17-.26c-.12-.5.01-.53.1-.64.1-.1.13-.17.32-.62-.22.3-.37-.07.1-.36l-.03.17c.2-.18.26-.26.43-.3-.12.13 0 .17.32.06-.06.07-.12.13-.17.2.08-.07.17-.13.27-.18s.18-.1.4-.13c.85.13 2.2-.03 2.54.14 0 0 1.82.08 2.24-.1-.37.12.64.16.35.3.47-.13 1.87-.24 2.43-.1l-.1.02c2.07.14 3.53-.2 5.4-.02-.08-.14.9-.07.65-.25 1.92-.18 3.5.38 4.2-.2.87-.03 1.03.13 1.48.16l-.2.03c1.63-.05 2.1-.05 3.32-.04.6-.06.7-.32 1.8-.26-.35.1.1.1.5.1-.26.02-.34.06.2.13.07-.03.2-.05.3-.07 0 .01.03.01.01.03.68-.04.56-.07.25-.08.02-.02-.01-.04-.1-.07.7.14 1.96-.01 2.05.17 2.04-.04 3.5-.23 5.2-.3.2.1-.2.18-.7.2l1.2-.03c-.01.13-.7.08-1.06.1 1.43.22 2.95-.22 4.64-.02l.35-.1h.1c-.01-.06.37-.13.62-.15.24.12-.02.27.82.26.66.1 1.87-.06 2.73-.12-.46-.02-.3-.08-.1-.13.42 0 .66.1.98.06l.04.16c-.16-.15 1.1-.16 1.24-.22.24.12-.65.1-.75.2l2.5-.02c.9-.12-.16-.15.26-.3.8-.03 1.55-.14 2.45-.05l-.3-.14c1.48-.1 2.36-.1 3.35.05 4.7-.5 5.8-.84 5.53-1.1h.02c.1-.26.17-.52.24-.77.1-.47.2-.88.23-1.33.1-.95-.4-1.86-.97-2.25-.42-.35-.7-.53-.93-.67s-.36-.25-.5-.34c-.3-.2-.62-.38-1.62-.66a24.229 24.229 0 0 0-.73-.35c-.84-.28-.64-.07-1.56-.4.04-.03-.37-.16-.6-.24-.01-.02-.02-.04-.03-.05h.03c-.01 0-.02-.01-.03-.01-.03-.05-.06-.1-.1-.14-.16-.2-.32-.34-.46-.42-.3-.17-.47-.14-.47.01 0 .07.04.16.08.3l-.2-.06c-.01 0-.01-.01-.02-.02l-1.57-.58c.2.03.4.06.57.07.47.05.8.05 1.02.03.45-.04.46-.2.3-.4-.17-.2-.54-.42-.87-.6l-.42-.22c-.08-.04-.3-.13-.27-.12-.8-.35-1.57-.67-2.28-.95-.02.06-.04.12-.07.18-.25-.1-.47-.18-.58-.13l-.07-.15c-.12.02-.25.02-.32-.08l.02-.03c-.18.03-.32-.08-.4-.07l.02-.03-.18-.05.05-.04c-.3 0-.55-.1-.77-.22l-.03.14c-.44-.34-.72-.12-1.1-.47l.02-.03c-.7.15-.8-.58-1.5-.45.1-.02 0-.08.01-.1-.28-.06-.58-.15-.68.12-.2-.08-.13-.14-.1-.26-.04.12-.23.1-.4.05l.1-.02-.45-.12v.25c-.2-.15.04-.3-.2-.32l-.07.18c-.3-.16-.4-.5-.65-.75-.3-.14-.65-.25-1-.34-.17-.04-.34-.1-.5-.14-.2-.05-.27-.06-.6-.16-.07-.02-.14-.04-.2-.07 0-.01.01-.03.02-.05-.06-.03-.1-.05-.16-.06l.07-.01-.77-.27.17.01-.86-.26-.72-.24c-.3-.1-.58-.22-.85-.34l-.01.15-.4-.2c-.08-.04-.36-.16-.54-.16-.4-.05-.72-.01-1.08.1-.24.08-.5.24-.72.46-1.18-.6-2.57-1.35-3.76-2.07.1.16-.32-.1-.76-.34v-.1c-.78-.45-.93-.6-1.04-.73-.1-.12-.2-.25-.68-.62-.01 0-.02-.01-.03-.02-.04 0-.08-.03-.12-.14-.1-.74 0-1.03.04-1.26.06-.25.1-.52.16-1.5-.1.76-.23.33-.03-.6l.03.25c.07-.52.08-.7.16-1.04-.02.32.07.18.2-.58l-.01.53.13-1.18 4.04.17c.82-.03 1.62-.14 2.42-.46.8-.3 1.48-.86 1.94-1.46.54-.58.9-1.24 1.2-1.9.5-1.7.98-3.54 1.53-5.14v.1c.62-2.4 1.46-5.1 1.76-6.3v.1l.83-2.9-.1.5c1.1-4.2 2.34-8.5 3.46-12.26l-.23.27c2.47-8.05 3.02-11.1 5.3-18.34l.01.1c2.27-9.33 4.42-14.52 6.83-24.12-.3 1.2.22-.5.23-.38l.38-1.36.4 3.9c-.16 1.82.05 7.47 1.15 21.08l-.07.85c-.18.4.82 5.2.7 5.95l.3 2.2c.02.62.1 1.94-.05.84.2 2.04.23 2.1.43 3.55l.08 2.2 2.24 23.38.3 5.44v-.1c-.08.93.26 1.93.92 2.64.64.72 1.66 1.17 2.6 1.17l4.48.02 9.38-.02 9.15-.06 2.15-.02c.12 1.1.26 2.04.4 2.04.13 1.14.06.93.01 1.1.08-.02.22.97.4 1.86l-.1-.4c.06.33.13.66.22 1 .04.17.1.34.16.52l.14.3c.07.1.15.2.24.3l.47.38-.3-.44c1.06.9.16.37 1.26 1.12l.05-.1c1.57 1.06 2.47 1.73 4.07 2.62l.94.44c-.02.04-.04.07-.06.1l-.03-.03c-.22 1.43-1.15 1.92-1.4 3.4.03-.18-.1.04-.13.01-.24.62-.5 1.28-.25 1.4-.2.44-.24.33-.37.34.12.05-.01.45-.16.8l.03-.18-.4 1 .3-.1c-.3.5-.32.02-.5.55l.18.07c-.36.7-.82 1.02-1.27 1.67-.33.7-.64 1.42-.94 2.15l-.67 1.62c-1.02.04-2.3-.04-3.24.1l-.48-.12c-.42.06-.92.1-1.35.04l.03-.03c-.63.1-1.35.04-1.66.08l.03-.04-.77.02.13-.05c-1.1.1-2.24.1-3.24.06l.08.15c-2.14-.16-2.93.14-4.86-.05l.03-.04c-2.44.38-3.86-.26-6.4.1.3-.05-.13-.07-.1-.1l-1.64.08c-.52.03-.9.2-.95.35-.2-.1-.37-.23-.5-.4-.2-.23-.32-.5-.4-.74-.08-.22-.1-.37-.1-.37-.24-1.22-.1-2.48.02-3.63.15-1.16.34-2.27.54-3.42s.43-2.34.6-3.7c.05-.34.1-.7.12-1.07.02-.2.02-.35.03-.6.01-.07-.02-.2-.02-.24l-.02-.14-.04-.27c-.1-.74-.22-1.53-.3-2.4-.7-7.55-1.56-5.05-1.46-3.94 0 .9.24 2.5.4 3.66-.05-.62.01-.43.06-.16.06.56.01.9.1 1.32l-.1.06c.06-.23.26 1.45.33 1.65-.03.33-.18-.86-.24-1l.15 1.16c.04.3.04.26.02.44-.02.27-.03.54-.2 1.63-.13 1.18.13-.2.1.38-.16 1.04-.3 2.06-.6 3.24l.16-.36-.73 4.47c-.08 1.85.2 3.38.88 4.22.17.2.35.36.54.48-.1.04-.16.07-.2.07-.1.02-.12-.02-.2-.03.07.1-.7.68-1.04 1.46.04-.12.1-.24.15-.36-.22.34-.37.72-.45 1.13-.04.2-.06.4-.06.6v.5l.24-.37c-.07 1-.3.25-.23 1.22l.2-.01c-.01.22-.02.6-.05.95-.15 0-.3.01-.45.01.17 2.6.32 3.3.52 3.6.1.1.2-.03.32-.48.02-.06.03-.14.05-.2l.02.68c0 1 .62 1.9 1.48 2.32-.3-.1-.57-.26-.8-.42-.7-.53-.96-1.16-1.1-1.57-.24-.83-.37-.7-.5-.33-.15.54.03 1.66.6 2.4.55.76 1.3 1.1 1.3 1.1.36.2.74.32 1.13.38.18.03.42.05.55.05.12.01.25.01.37.02l1.4.03a56.606 56.606 0 0 0 2.62-.06c1.74-.08 3.6-.2 6.17-.26 4.53.07 5.73.34 10.42.23 2.24.02 4.63-.04 6.82-.07 1.04-.2 2.87 0 4.1-.18l.48.12c.42-.06.92-.1 1.35-.04l-.03.03c.63-.1 1.35-.04 1.66-.08l-.03.04.77-.02-.13.05c1.1-.1 2.24-.1 3.24-.06l-.08-.15c2.14.16 2.93-.14 4.86.05l-.03.04c2.44-.38 3.86.26 6.38-.1-.3.05.13.07.1.1 1.16-.04 2.4-.06 2.42-.35.85 0 .7.1.8.2 0-.12.73-.18 1.4-.18l-.3.05.95-.02h.47c.16-.01.4-.01.6-.05-.17-.05-.33-.12-.48-.2.6 0 .7.01.78.05.08.03.18.1.72-.2l-.1-.17c.74-.38 1.23-.86 1.62-1.45.18-.3.33-.63.42-1l.1-.52.06-.48V444h.1c-.17-.98-.2-1.92-.2-2.88zm-8.66-9.8l.8.18c.2.1.65.27.26.16.7.25.72.23 1.22.38.24.12.45.25.67.38 1.1.54 1.87 1.2 1.83 2.1 0 .47-.1 1.1-.24 1.6-.04.14-.1.27-.15.4-.96-.14-2.27-.2-2.27-.2-1.07-.08-2.02-.1-2.9-.1l.01-1.2s.02-2.2-.12-3.9c.42.1.8.18.9.26zm-16.82-4.15c.16-.03.1.08.23 0-.1-.2.12-.34-.02-.57l.12-.02c-.26-.3.13-.6-.08-.8-.1-.28.37-.06.15-.28.06 0 .1.01.17.03.03-.02-.2-.16-.1-.17.1.08.1 0 .18.1.08.03.04-.05.02-.17-.03-.13.07-.07.17.1-.04-.24.06-.07.08-.23.01.1.16.08.06.24-.01.01-.02.01-.01-.03l-.01.12c.01.13.01.1.05.05.13-.01.3-.04.43.03-.07-.07-.18-.1-.08-.15l.25.1-.1.08.36.2v-.14c.16.13.16.36.43.27.13-.06-.12-.23.1-.2.22.17.55.44.86.6.02-.15.1-.1.2-.1l-.03.12c.4-.04.03.3.4.3l.12-.14c.4-.12.07.3.53.1-.14-.03.03-.28.18-.17l-.08.1c.1.01.15-.03.2.02-.08.04-.1.15.05.18l-.14.1.33-.1c.15.2.52.16.54.35 0 0 .4.23.55.1-.12.08.1.2-.02.3.15-.08.5-.06.6.12l-.03.01c.43.3.88.12 1.25.44.03-.14.23.02.24-.18.5-.01.68.65 1.03.18.2.05.2.2.3.28l-.06.01c.2.05.32.08.43.12l.16.06c.02.01.05.02.08.03.07-.03.25-.25.35-.14-.12.07-.06.07-.01.1-.05 0-.08.03-.1.1.04-.02.07-.03.1-.04l-.02.02c.1 0 .13-.03.1-.05.02-.01.04-.03.05-.05-.06.12.25.08.03.2.08.12.2.3.14.54-.1 0-.16-.07-.18-.13l-.04.14c-.13-.04-.04-.1-.05-.13-.15.05-.12.1-.12.2.01.1-.1.32-.27.38l.03.12-.03.01c.04.04.05.15.02.2-.12-.04-.2-.18-.3-.05-.18.02-.24.32-.35.5.1-.05.1.02.1.08-.07.07-.18.01-.2.1l-.1-.12c.12.1-.1.27-.08.34-.1-.06.06-.17.02-.25-.28.23-.14.1-.44.32-.1.2.1.1.1.28-.14.1-.25.3-.48.3l.12.1c-.27.25-.5.3-.76.24l-.47.4c-.24.05-.47.1-.72.1-.06.01-.1.01-.17.01-.2-.2-.58-.4-1.1-.75l.03-.04c-.46-.17-.7-.26-1.1-.1.04-.3-.35-.16-.43-.28l.02-.02c-.35.08-.45-.4-.77-.37.02-.01.07-.08.12-.05-.2-.06-.45-.16-.36-.3-.42-.22-.8-.74-1.2-.8l.05-.01c-.25-.03-.15-.17-.35-.27.01-.02.01-.04.02-.04-.25-.06-.32-.46-.45-.57l.1-.06-.2-.34.04.14c-.3.08.06-.34-.2-.53-.06-.24-.76-.37-.68-.7-.15-.13.26.07.12-.12zm-49.8 4.15l.8.18c.2.1.65.27.26.16.7.25.72.23 1.22.38.24.12.45.25.67.38 1.1.54 1.87 1.2 1.83 2.1 0 .47-.1 1.1-.24 1.6-.04.14-.1.27-.15.4-.96-.14-2.27-.2-2.27-.2-1.07-.08-2.02-.1-2.9-.1l.01-1.2s.02-2.2-.12-3.9c.42.1.8.18.9.26zm-16.82-4.15c.16-.03.1.08.23 0-.1-.2.12-.34-.02-.57l.12-.02c-.26-.3.13-.6-.08-.8-.1-.28.37-.06.15-.28.06 0 .1.01.17.03.03-.02-.2-.16-.1-.17.1.08.1 0 .18.1.08.03.04-.05.02-.17-.03-.13.07-.07.17.1-.04-.24.06-.07.08-.23.01.1.16.08.06.24-.01.01-.02.01-.01-.03l-.01.12c.01.13.01.1.05.05.13-.01.3-.04.43.03-.07-.07-.18-.1-.08-.15l.25.1-.1.08.36.2-.01-.14c.17.13.16.36.43.27.13-.06-.12-.23.1-.2.22.17.55.44.86.6.02-.15.1-.1.2-.1l-.03.12c.4-.04.03.3.4.3l.12-.14c.4-.12.07.3.53.1-.14-.03.03-.28.18-.17l-.08.1c.1.01.15-.03.2.02-.08.04-.1.15.05.18l-.14.1.33-.1c.15.2.52.16.54.35 0 0 .4.23.55.1-.12.08.1.2-.02.3.15-.08.5-.06.6.12l-.03.01c.43.3.88.12 1.25.44.03-.14.23.02.24-.18.5-.01.68.65 1.03.18.2.05.2.2.3.28l-.06.01c.2.05.32.08.43.12l.16.06c.02.01.05.02.08.03.07-.03.25-.25.35-.14-.12.07-.06.07-.01.1-.05 0-.08.03-.1.1.04-.02.07-.03.1-.04v.02c.1 0 .13-.03.1-.05.02-.01.04-.03.05-.05-.06.12.25.08.03.2.08.12.2.3.14.54-.1 0-.16-.07-.18-.13l-.04.14c-.13-.04-.04-.1-.05-.13-.15.05-.12.1-.12.2.01.1-.1.32-.27.38l.03.12-.03.01c.04.04.05.15.02.2-.12-.04-.2-.18-.3-.05-.18.02-.24.32-.35.5.1-.05.1.02.1.08-.07.07-.18.01-.2.1l-.1-.12c.12.1-.1.27-.1.34-.1-.06.06-.17.02-.25-.28.23-.14.1-.44.32-.1.2.1.1.1.28-.14.1-.25.3-.48.3l.12.1c-.27.25-.5.3-.76.24-.18.15-.33.28-.48.4-.24.05-.47.1-.72.1-.06.01-.1.01-.17.01-.2-.2-.58-.4-1.1-.75l.03-.04c-.46-.17-.7-.26-1.1-.1.04-.3-.35-.16-.43-.28l.02-.02c-.35.08-.45-.4-.77-.37.02-.01.07-.08.12-.05-.2-.06-.45-.16-.36-.3-.42-.22-.8-.74-1.2-.8l.05-.01c-.25-.03-.15-.17-.35-.27.01-.02.01-.04.02-.04-.25-.06-.32-.46-.45-.57l.1-.06-.2-.34.04.14c-.3.08.06-.34-.2-.53-.06-.24-.76-.37-.68-.7-.12-.13.28.07.14-.12z"/><path d="M251.6 314.98v.27c.02 0 .03-.07.01-.27zm-.23 10.62h0c-.01-.02-.01-.05-.02-.07l.02.08z"/><path d="M250.22 311.78l.62 8.36.54 5.45c.2.82.2 2.3.4 3.28l-.04.4c.07.34.13.73.12 1.08l-.02-.02c.1.5.12 1.08.17 1.33l-.02-.02.07.6-.04-.1c.15.88.2 1.8.2 2.58l.08-.07.1 3.9v-.02c.3 1.96-.06 3.1.2 5.13-.03-.25-.04.1-.06.1.05.93.1 1.93.26 1.94.02.68-.04.55-.1.65.07-.01.12.58.14 1.1l-.04-.24.06 1.52.13-.3c-.02.8-.17.2-.1.98h.12c.01 1.12-.16 1.77-.2 2.86.06 4.5.47 9.3.37 13.48l-.08.2c-.13.08.22 1.15.1 1.3l.07.48c-.02.14-.04.43-.07.18.01.45.03.46.07.78l-.07.48c-.02 1.77.17 3.28.18 5.14-.1 2.24.13 6.46.27 8.88.27 3.4-.16 7.4.14 10.9-.02.1.03.4.05.4l.05 3.2s.28 15.52 1.1 3.7l.03.08c.03-1.75.02-2.86-.14-4.06.17-.2-.01-1.44.03-1.85v.04c-.16-1.07.06-2.2-.08-3.23.01.04.06.06.07.3-.04-.75-.1-1.78 0-1.83-.06-1.8-.07-4.3-.26-5.44l.03.08c-.12-.65-.03-.85-.1-1.58.01-.04.02-.1.02-.08-.12-.7-.06-2.08-.12-2.66l.07-.04-.05-1.42v.53c-.2-.18.1-1.08-.05-2.1 0-.96-.43-1.95-.36-2.95-.1-.48.15.42.07-.3.1-.03.07.33.14.15-.06-.7.07-1.15-.01-2l.07-.04c-.16-1.12.05-2.13-.1-2.88-.1-1.16.2-.78.03-2l.1-.47c0-.52-.13-.37-.1-.94.06.03.03-.73.1-.4.07-1.3-.2-2.63-.07-4.35-.13-.37-.08-1.23-.18-1.5.05-.05-.03-1.73.1-.76.01.08.01.23-.01.22l.08.1c.12-.98-.12-1.77-.12-2.74-.02.3 0 .67-.06.4v-.9l.07.2v-1.34l-.07.2c.02-.66.15-.9.02-1.62-.07-.33-.1.62-.13-.07.03-.88.08-2.2.07-3.3-.08.1-.1-.2-.1-.5l.07-.04c-.13-1.18.15-.44.04-1.6l.05.1-.16-.3c-.18-1.06.14-.58-.1-1.75.03.47-.16.22-.14-.35l.08.14c-.02-.32-.06-.42-.05-.63.04.2.1.1.08-.37l.1.3-.16-.88c.06-.68-.07-1.76.03-2.04 0 0 .01-1.47-.1-1.8.08.3.08-.52.17-.3-.1-.38-.2-1.5-.12-1.95l.01.08c.03-1.67-.2-2.84-.16-4.34-.08.07-.07-.72-.18-.52-.17-1.55-.01-2.82-.38-3.36-.08-.7.01-.83-.01-1.2l.03.17c-.15-1.3-.18-1.7-.26-2.66-.08-.48-.24-.55-.28-1.42.1.28.04-.08.02-.4.03.2.06.27.06-.16-.03-.06-.05-.15-.06-.24 0 0 .01-.02.01-.01-.07-.54-.08-.45-.07-.2-.01-.01-.02.01-.03.1.03-.57-.15-1.57-.05-1.65-.17-1.63-.4-2.8-.56-4.15.04-.16.12.16.18.55l-.1-.96c.08 0 .1.55.14.85.03-1.16-.34-2.36-.35-3.7l-.1-.27v-.08c-.03.01-.1-.3-.13-.5.05-.2.16 0 .1-.67.02-.53-.17-1.5-.27-2.18.02.37-.03.26-.07.1-.03-.33.02-.53-.03-.8l.1-.04c-.08.14-.17-.86-.22-.98.05-.2.1.5.17.6l-.2-2c-.14-.7-.08.14-.2-.2-.08-.63-.2-1.24-.2-1.96l-.06.24c-.17-1.18-.23-1.88-.2-2.7-1.48-8.74-1.1-1.77-1.1-1.77.1 3.45.5 5.2.95 9.33z" fill="#fff"/><path d="M198.96 365.67l-.01.1c0-.08.01-.1.01-.1z"/><g fill="#fff"><path d="M215.33 238.83c-.7 6.42-1.05 8.1-1.67 14.77l-.96 9.67c-.03 1.5-.42 4.08-.5 5.83l-.14.67c-.03.6-.08 1.3-.18 1.9l-.02-.04c-.04.9-.18 1.9-.2 2.36l-.02-.04-.1 1.1-.01-.2c-.1 1.57-.27 3.18-.45 4.6l.1-.1c-.42 3.03-.35 4.16-.76 6.9v-.04c-.14 3.5-.74 5.46-.9 9.05.02-.45-.07.2-.08.15-.15 1.65-.33 3.4-.17 3.45-.14 1.2-.16.97-.24 1.12.08 0-.01 1.05-.1 1.98l.02-.43-.28 2.68.2-.5c-.2 1.4-.2.34-.34 1.7h.12c-.13.98-.28 1.74-.45 2.5l-.6 2.44-4.07 23.56-.14.3c-.15.12-.16 2.04-.33 2.3l-.1.86c-.06.23-.18.73-.13.3-.14.78-.12.8-.18 1.38l-.23.83c-.6 3.1-.9 5.74-1.5 9-.84 3.9-1.98 11.28-2.64 15.53-.85 6-2.57 12.85-3.42 19-.05.2-.1.72-.1.72l-1 5.6s-4.78 27.1-.14 6.7v.14c.6-3.05.95-4.97 1.18-7.1.23-.3.46-2.5.64-3.22v.07c.2-1.9.78-3.83.98-5.65 0 .07.04.12-.03.53.2-1.3.48-3.1.6-3.2.52-3.14 1.33-7.5 1.52-9.53v.14c.1-1.16.24-1.48.4-2.77.03-.07.05-.16.05-.14.1-1.26.62-3.64.75-4.65l.08-.05.42-2.48-.18.92c-.13-.35.44-1.86.64-3.68.32-1.68.22-3.48.6-5.2.06-.85.01.76.16-.5.1-.03-.04.6.1.28.17-1.23.45-2 .65-3.5l.08-.05c.2-2 .75-3.7.85-5.03.3-2.04.46-1.33.68-3.46l.24-.8c.17-.9-.01-.67.2-1.66.05.07.27-1.26.23-.66.5-2.26.66-4.63 1.35-7.6-.01-.67.33-2.16.32-2.66.07-.07.54-3.02.36-1.3-.02.15-.06.4-.08.38l.04.2c.43-1.68.47-3.1.78-4.8-.1.5-.22 1.16-.2.7l.28-1.57v.34l.44-2.33-.13.3c.24-1.14.44-1.52.55-2.83.04-.6-.3 1.07-.1-.14l1.16-5.75c-.1.17-.02-.35.03-.9l.08-.05c.17-2.1.27-.75.43-2.84l.03.2-.1-.57c.07-1.9.27-1 .3-3.1-.08.82-.2.37-.06-.64l.04.26c.05-.56.04-.75.1-1.12 0 .34.08.2.16-.64l.03.56.04-1.57c.2-1.2.32-3.1.47-3.6 0 0 .33-2.58.28-3.18.01.53.2-.9.23-.48-.01-.68.14-2.66.3-3.44v.15c.4-2.92.42-5.02.8-7.64-.1.1.1-1.27-.05-.94.18-2.73.75-4.93.5-5.95.1-1.24.23-1.46.32-2.1l-.01.3.47-4.7c.06-.86-.1-1 .1-2.55.01.5.06-.13.13-.7-.03.37-.02.5.1-.27-.01-.1 0-.27 0-.43.01-.01.01-.04.02-.02.08-.96.04-.8-.01-.35-.01-.02-.02.01-.06.15.2-1 .28-2.78.4-2.9.28-2.9.38-4.97.6-7.38.08-.26.07.3.02 1l.16-1.7c.08.02-.06 1-.1 1.5.34-2.02.3-4.2.67-6.57l-.01-.5.03-.14c-.03 0-.02-.54 0-.9.1-.33.16.04.28-1.14.16-.93.24-2.65.33-3.88-.08.66-.1.44-.1.15.06-.6.16-.92.18-1.38l.1-.05c-.1.22.06-1.55.05-1.77.1-.33-.03.92 0 1.07l.35-3.55c.06-1.27-.1.22-.13-.4.1-1.12.14-2.2.33-3.48l-.13.4c.15-2.1.3-3.35.52-4.75.92-15.66-.6-3.38-.6-3.38-.8 6.13-.88 9.33-1.57 16.64zm24.9 80.1l.13-.3c-.02-.01-.06.07-.13.3zm21.56-80.08v-.08c-.01.05-.01.07-.01.08zM244.9 307v.1-.1z"/><path d="M240.16 323.05c1.28-4.2 1.76-5.27 2.96-9.66.62-2.08 1.2-4.32 1.78-6.36.15-1 .77-2.68 1-3.85l.2-.42c.08-.4.18-.88.33-1.26l.01.03c.1-.6.33-1.26.4-1.56l.01.03.2-.72v.13c.23-1.04.53-2.1.82-3.03l-.1.05c.66-1.97.68-2.75 1.3-4.53v.03c.4-2.34 1.15-3.57 1.6-5.98-.05.3.08-.1.1-.08.27-1.1.57-2.25.4-2.32.22-.8.23-.63.32-.72-.07-.02.08-.7.25-1.33l-.05.3.46-1.78-.23.3c.3-.93.23-.2.44-1.1l-.12-.02c.37-1.3.76-2 1.18-3.24 1.44-5.22 2.65-10.9 4.1-15.73l.14-.2c.15-.06.16-1.4.33-1.55l.1-.58c.06-.15.17-.48.13-.2.14-.52.12-.54.18-.93l.22-.54c.6-2.05.88-3.86 1.46-6.03.83-2.58 1.9-7.55 2.5-10.42.8-4.04 2.4-8.6 3.12-12.74.05-.13.1-.48.07-.5l.88-3.76s4.06-18.25-.03-4.6l-.01-.1c-.52 2.05-.82 3.34-1 4.8-.2.2-.4 1.7-.57 2.15V225c-.16 1.28-.7 2.56-.87 3.8 0-.05-.04-.1.02-.37-.18.9-.43 2.1-.54 2.14-.45 2.1-1.2 5.03-1.38 6.4v-.1c-.08.8-.22 1-.38 1.86-.02.04-.05.1-.05.1-.1.86-.57 2.44-.7 3.12l-.08.03-.4 1.67.16-.62c.12.26-.4 1.23-.6 2.46-.3 1.12-.2 2.37-.58 3.52-.06.58-.01-.52-.16.32-.1 0 .04-.4-.1-.2-.16.83-.43 1.32-.62 2.34l-.08.02c-.2 1.35-.72 2.46-.8 3.37-.28 1.37-.45.85-.67 2.3l-.24.52c-.17.6.01.46-.2 1.12-.05-.06-.27.83-.23.43-.5 1.5-.66 3.1-1.34 5.06.01.46-.32 1.45-.32 1.8-.07.04-.54 2-.36.85.02-.1.06-.27.08-.25l-.04-.15c-.44 1.1-.48 2.08-.8 3.2.1-.33.22-.77.2-.46l-.3 1.04v-.23l-.45 1.55.13-.2c-.24.75-.44 1-.56 1.87-.04.4.3-.7.1.12l-1.18 3.8c.12-.1.02.25-.06.6l-.08.02c-.27 1.4-.3.46-.6 1.85v-.13l.1.44c-.2 1.27-.33.62-.5 2.05.14-.54.23-.2.02.45v-.2c-.1.37-.1.5-.17.75.02-.23-.07-.14-.2.4l.01-.4-.15 1.06c-.3.77-.54 2.05-.73 2.35 0 0-.52 1.7-.52 2.1.03-.36-.26.57-.26.28-.05.46-.35 1.78-.57 2.28v-.1c-.62 1.9-.8 3.33-1.4 5.03.1-.06-.2.84-.03.65-.4 1.82-1.14 3.2-1 3.94-.2.82-.35.94-.48 1.36l.04-.2-.86 3.1c-.13.57 0 .7-.33 1.7.03-.34-.07.07-.18.45.06-.24.06-.33-.12.16 0 .08-.02.2-.04.3-.01 0-.02.02-.02.01-.16.64-.1.53-.02.24.01.02.02 0 .07-.1-.27.63-.52 1.83-.64 1.88-.52 1.9-.8 3.3-1.22 4.88-.1.16-.05-.22.07-.68l-.3 1.13c-.07-.03.14-.66.23-1-.5 1.3-.67 2.78-1.24 4.3l-.03.34-.04.1c.03 0-.02.37-.08.6-.13.2-.15-.06-.37.7-.24.6-.48 1.75-.68 2.56.14-.43.13-.28.1-.1-.1.4-.24.6-.3.9l-.1.01c.13-.13-.2 1.04-.2 1.2-.13.2.12-.62.1-.73l-.67 2.33c-.18.85.13-.12.1.3-.2.73-.35 1.47-.65 2.3l.16-.24c-.34 1.4-.6 2.2-.96 3.1-2.43 10.4.25 2.42.25 2.42 1.36-3.98 1.75-6.12 3.1-10.93z"/></g></svg>