<svg xmlns="http://www.w3.org/2000/svg" viewBox="0 0 480 480" xmlns:v="https://vecta.io/nano"><linearGradient id="A" gradientUnits="userSpaceOnUse" x1="196.737" y1="109.653" x2="196.737" y2="109.653"><stop offset="0" stop-color="#997ebd"/><stop offset=".406" stop-color="#7c59aa"/><stop offset="1" stop-color="#6629c8"/></linearGradient><path d="M196.74 109.65h0z" fill="url(#A)"/><linearGradient id="B" gradientUnits="userSpaceOnUse" x1="165.483" y1="149.254" x2="237.105" y2="162.951"><stop offset=".298" stop-color="#f5c52a"/><stop offset="1" stop-color="#e46c26"/></linearGradient><path d="M154.4 208.5l78.2-.3s7.05-22.07 16.2-59.48c.93-19.08-1.07-48.2-23.14-49.08-11.8-.7-25.3 7.3-40.46 36.77-8.9 17.3-28.32 59.1-32.32 69.52-.55 1.3.3 2.57 1.5 2.57z" fill="url(#B)"/><linearGradient id="C" gradientUnits="userSpaceOnUse" x1="198.173" y1="164.457" x2="232.829" y2="154.107"><stop offset=".01" stop-color="#f5b421" stop-opacity="0"/><stop offset=".985" stop-color="#dd6002"/></linearGradient><path d="M208.37 107.3s-16.37 12.4-15.54 44.36c.28 11.4 0 16.82 1.02 31.47 1.2 15.93 1.02 25.28 1.02 25.28l37.7-.1 14.2-49.35-38.4-51.66z" fill="url(#C)"/><path d="M362.3 208.05c-1.9-1.1-4.07-4-7.42-4.3-9.2-.88-16.5-1.65-21.8-4.15-3-1.5-46.97-24.56-51.27-28.3-5.6-4.1-25.07-36.33-25.07-36.33l-26.4 12.72s25.5 37.47 34.5 42.7c7.45 4.85 17.2 8.2 31.4 12.3s26.5 6.7 37.5 9.5c1.64.4 3.3 1.23 5.56 1.56 1.9-3.77 5.82-6.36 10.34-6.36a11.6 11.6 0 0 1 11.6 11.6c0 .08-.01.17-.01.25s.01.17.01.25c0 1.1-.2 2.2-.5 3.3.1.2.2.4.4.5 1.8.85 2.5-2.54 2.97-6.13s.7-7.35-1.8-9.1z" fill="#ea9d7d"/><linearGradient id="D" gradientUnits="userSpaceOnUse" x1="264.406" y1="170.951" x2="255.797" y2="156.33"><stop offset="0" stop-color="#cc7a5e" stop-opacity="0"/><stop offset=".924" stop-color="#aa5f4b"/></linearGradient><path d="M284 172.9s-8.26.73-12.48 2.4c-10.3 4.03-14 8.64-14 8.64s-6.04-7.25-14.84-18.55c1-.9 24.26-13.95 24.26-13.95-.3-.3 3.17 5.76 6.97 10.46 3.6 4.6 5.4 8.3 10.1 11z" fill="url(#D)"/><path d="M361.35 223.7c-.28 0-.57-.06-.87-.17l.37-.93c.36.14.65.14.92 0 .6-.32 1.14-1.37 1.58-3.12.6-2.22.6-6.1.58-7.67-.03-1.66-.65-2.16-1.88-3.17l-1.1-.92c-2.66-2.14-4.3-3.37-7.22-3.58-8.9-.65-17.82-2.65-17.9-2.67l-.1-.03c-.14-.07-14.45-6.58-20.6-10.12l-11.2-6.34-17.8-10.2c-2.56-1.73-5.73-3.9-9.47-8.36-3.58-4.08-11.63-17.3-11.97-17.87l.86-.52c.08.14 8.35 13.7 11.88 17.73 3.66 4.37 6.64 6.4 9.26 8.18 2 1.32 10.37 6 17.75 10.16l11.22 6.34c5.93 3.42 19.56 9.64 20.47 10.05.73.16 9.22 2 17.7 2.64 3.36.25 5.32 1.82 7.8 3.82.4.36.75.64 1.07.9 1.3 1.05 2.22 1.8 2.25 3.93.03 2 0 5.7-.62 7.94-.52 2.1-1.2 3.3-2.1 3.76-.27.15-.57.22-.87.22z" fill="#cc7a5e"/><linearGradient id="E" gradientUnits="userSpaceOnUse" x1="217.621" y1="141.56" x2="277.654" y2="116.98"><stop offset="0" stop-color="#f5c12e"/><stop offset="1" stop-color="#e46c26"/></linearGradient><path d="M272.83 152.17s-12.7-24.02-22.54-35.48c-9.84-11.36-19.96-23.32-36.14-13.37s-8.33 30.96-3.12 42.92c5.3 11.96 15.54 31.76 15.54 31.76l46.26-25.83z" fill="url(#E)"/><g fill="#ea7d24"><path d="M259.25 141.28l-1.53-1 1.32-.82zm1.07-4.84l-1.25-1.4 1.5-.62zm-3.37 2.96l-2.07.73.17-1.9zm3.12-7.48l-1.98.73.16-2z"/><path d="M256.8 127.64l-1.6 1.53-.6-1.8zm5.5 7.86l-1.78 1.33-.3-2zm-1.97 1.64l-1.78 1.23-.3-2zm-.7-2.5l-2.07.73.26-2zm2.27 5.7l-1.98.63.26-1.92z"/><path d="M262.93 140.12l-1.88 1.03-.03-1.9zm-8.9-6.32l-1.25-1.4 1.5-.52z"/><path d="M260.6 142.57l-1.7-.58 1.02-1.32zm-6.87-10.37l-.86-1 1.03-.4zm3.1 5.1l.65-.9.48.8zm-8.43-.9l1.04.3-.65.8zm-1.1 3.84l-.93.9-.3-1.1zm5.1-2.7l-.77-.7.75-.5zm-1.78 8.77l.45-1 .58.7zm-.3-13.76l.6 1.2-1.04.12zm-1.78-5.7l-.75.7-.3-.9zm7.9 3.1l-.86-.5.75-.62zm1.03-.32l-1.25-1.4 1.5-.52zm-1.4 1.13l-2.66-.77 1.58-1.93zm-4.4-10.4l-2.18.03.73-1.82zm6.32 12.28l-2.64 1.04.15-2.6zm-4.6-3.25l-1.62-.78 1.12-1.13zm.83-2.02l-1.7-.68 1.12-1.23z"/><path d="M253.47 140.65l-.93.92-.3-1.1zm3.06 1.97l.67.8-.85.2zm-6.26-.52l-.86-.6.85-.5zm4.73-7.7l-.95-.5.75-.6zm-2.3-7.7l1.66-3.04 1.74 2.5zm3.86 4.56l1.57-2.43 1.26 2.2zm2.32 3.4l1.48-2.43 1.35 2.2zm-4.98-11.2l-1.88 1.03-.03-2zm-6.22-4.64l.82-2.12 1.44 1.4zm13.14 19.52l1.67-2.53 1.35 2.3zm1.56 3.7l1.86-2.94 1.64 2.7zm1.47 3.2l2.22-3.55 1.94 3.2z"/><path d="M254.63 135.6l.4 1.8-1.5-.18zm5 6.38l-1.98.83.07-2zm.66-.2l1.35 1.8-1.8.53zm7.42 3l1.35 1.7-1.9.63zm-2.64.44l1.35 1.8-1.8.53zm-1.56-3.2l1.35 1.8-1.8.52zm-2.86 5.58l-.2-1.3 1.13.18zm-.1 6.03l.94-.42v.9zm-6.42-5.75l.67.9-.94.2zm-9.94-7.2l-1.23.32.18-1.1zm5.76-.38l-.57-.8.94-.1zm-5.1 7.3l.84-.72.2.9zm18.84 1.56l-1.54-1.8 1.98-.63zm-12.6-1.84l.56-.9.58.8zm5.15-4.1l.1 1.3-1.04-.3zm.4-6.03l-.94.42.08-1z"/><path d="M262.78 143.34l-.58-.9.85-.2zm-19.52-22.64l-.55 1.2-.68-.9zm3.64-4.78l-1.05-.2.56-.8zm1.7 8.82v-1.1l.86.4zm8.94 23.2l-.36 1.3-.86-.8zm2.86-5.37l-.94-.1.46-.8zm3.05 8.4l-.2-.9.86.2zm.53-9.57l-2.53 1.35-.13-2.62zm-.2-2.1l-1.98.53.25-1.92zm-.3 5.04l-.74 1.72-1.05-1.2zm-9.96-.47l-.17 1-.76-.5zm-4.1 3.68l-.55 1.4-.86-1zm3.9-5.7l-1.23-.18.64-.9zm2.4 9.82l-.1-1.1.96.4zm11.22-3.08l.07-1.9 1.43.7zm1.38 3.3l1.4-1.23.5 1.5zm.54-1.3l-.03-1.9 1.53.68z"/><path d="M270.33 148.77l1.64 2.3-2.45.53z"/><path d="M268.8 146.58l1.73 2.38-2.45.54z"/><path d="M267.8 151l-.6-2.1 1.9.28zm-3.94 2.38l-.78-2 1.9-.03zm1.7.48l-.2-1.9 1.52.58z"/><path d="M266.13 152.95l1.4-1.33.5 1.7zm-2.23-3.5l-.18 1.1-.76-.6z"/><path d="M267.04 150.42l2.88 2.88-3.2 1.45zm-12.64 10.33l.74-1.02.5 1zm2.55-1.25l-.78-1.6 1.5-.12zm2.9-1.24l-.5-1.7 1.5.08z"/><path d="M255.8 158.92l-.58-1.3 1.23-.12zm5.2-6.62l-1.4 1.43-.6-1.7zm2-.32l-1.4 1.53-.6-1.8zm3.83-3.18l-1.4 1.43-.5-1.8zm-3.63-1.64l-1.04.1.27-1zm5.3.32l-.4-.9.85-.01zm-5.3 5.92l.75-.62.2.9zm-8.6-6.23l-1.04.12.27-1zm5.3.23l-.4-.9h.85zm-5.3 6l.75-.62.2.9zm3.45 3.78l.74-1.42.77 1.2z"/><path d="M259.08 156.36l.44-2.32 1.63 1.2zm1.2-1.93l1.03-1.12.5 1.3zm2.4 1.47l1.02-1.32.6 1.5zm1.2-1.42l-.77-.6.76-.4z"/><path d="M264.6 152.16l2.5 2.68-2.9 1.55zm-3.46 2.46l2.4 2.18-2.53 1.34zm-3.3 1.76l2.3 2.28-2.63 1.24zm1.15-6.75l1.1-1.53.78 1.5zm-6.27 12.85l.45-1.72 1.24 1zm3.6-7.38l1.1-1.52.7 1.5zm6.1-3.8l-.98-2 1.9-.03zm2.28-.14l1.2-1.43.68 1.5zm-20.77-22.94l-.65.4-.1-.8zm-1.48-4.5l.4 1.1-1.23-.1zm17.25 8.5l.4 1.1-1.23-.1zm6.28 9.77l.4 1.1-1.23-.08zm-7.76-6.54l.4 1.1-1.23-.08zm-1.22-7.12l.4 1.1-1.23-.08zm-3.1 1.26l.4 1.1-1.23-.08zm2.8-2.26l-.55 1-.68-1.1z"/><path d="M262.24 138.83l-.55.8-.68-1zm1.46 3.3l-.55 1.02-.68-1.1zm-1.82 4.25l-.65 1-.6-1.2zm5.45-2.1l-1.1 1.73-1.07-2zm.27 4.52l-.56.92-.68-1.1zm-4.74.67l-.64 1.02-.6-1.1zm8.07 2l-1.6.83-.12-1.9zm-21.73-31l-.7.9-.63-1.12z"/><path d="M246.7 113.4l-.58.9-.64-1.12zm-6.87-6.38l-.6 1-.64-1.22zm12.4 13.12l1.38 2.04-2.66.55zm-3.97-5l1.3 1.94-2.66.55zm6.7 9.72l1.44 2.1-2.64.54zm6.08 9.07l1.45 2-2.64.64zm3.96 6.58l1.35 2-2.64.64zm3.2 5.58l1.35 2.1-2.64.54zm-18.18-28.4l.36 1.12-1.23-.13zm3.98 6.78l.4 1.1-1.14-.08zm3.58 5.18l.7 2.1-2.37-.17zm-3.14-1.26l-1.6 1.33-.7-2.3zm1.22 6.62l-1.6 1.42-.6-2.4zm-4.38-14.17l-1.73 1.37-.52-2.43zm-8.24-9.03l-1.44 1.2-.43-2.12zm4 8.54l-1.8-.24.98-1.8z"/><path d="M247.4 125.96l-1.8-.07 1.02-2.03zm10.4 12.84l-1.7-.08.92-1.92zm1.4 6.7l-1.8-.17 1.02-1.93zm.08 4.93l-1.8-.18 1.02-1.92zm6.32 4.63l-2.25 1.24-.04-2.9zm.46-6.84l-1.8-.17 1.02-1.93zm-4.83-7.47l-1.8-.18 1.02-1.82zm.05 3.62l-.3-1.9 2 .58zm-15.16-30.3l.36 1.12-1.23-.13zm-7.57 14.62l.66-.1-.28.7zm10.47-4l-.84-.12.58-.9zm2.68-5.57l-.3.7-.56-.7zm-7.4.95l.56.5-.76.4zm-1.8 14.1l-.37.3-.1-.6zm-1.08-3l.2.3-.47.01zm-2.22 3.35l.38-.1-.18.5zm4.45-20.18l-.67.38-.07-.9zm-1.6-4.96l.18.7-.76-.1zm-3.9 5.25l.66.01-.2.7zm25.72 25.97l-.47.7-.48-.8zm-3.55-3.56l.48.5-.66.3zm-1.23 6.46l.56-.4.1.8zm-.88-8.14l-.65.5-.1-1zm6.58 4.24l-.56.3-.2-.8zm-7.26-5.84l-.56.4-.2-.8zm-1.1-3.3l.2.7-.66-.1zm.97 1.5l.2.6-.67.01zm-4.58 3.88l.56-.01-.18.7zm5.56-2.1l.66-.1-.27.7zm-2.98 11.4l-.57-.5.66-.5zm3.65-3.57l-.47.5-.2-.7zm-5.9-1.73l.3.6-.76.1zm5.64 18.32l-.76-.5.84-.5zm2.35-21.84l-.57-.5.65-.4zm-5.3 7.5l-1.43-1.1 1.78-1.03zm-2.2 12.2l.16-1.9 1.72 1.08zm5.32-20.08l-.67-.5.75-.5zm3.7 1.45l-.67-.5.75-.4zm5.34 9.7l-.58-.5.75-.4zm-1.66-3.1l-.66-.5.75-.4z"/><path d="M250.94 163.4l-.76-.5.85-.52zm-8.07 4.64l-.76-.5.84-.6zm19.5-13.64l-.46.4-.2-.7zm-5.98-1.72l.3.6-.66.01zm2.2 1.78l.3.6h-.66zm.7 2.5l.3.6-.76.1zm3.8-5.78l.18-.6.67.5zm5.04 1.84l-1.24-.8 1.4-1.02zm-2.82-11.32l-.57-.4.66-.4zm-.88 3.83l.08-.7.58.5zm-3.46-4.07l.18-.7.57.5zm6.04 5.84l-.37.5-.3-.7zm-10.78-6.28l-.38-.3.47-.3zm2.34-2.14l-.28.3-.1-.5zm-3.8-1.06l.2.3-.47.1zm-3.3-5.28l.47-.1-.1.6zm-.05 3.32l.1-.4.38.2zm3.38-2.26l-.38-.1.28-.4zm-9.24-4l.47-.1-.1.6zm-.06 3.32l.1-.4.38.2zm3.4-2.25l-.38-.1.27-.4zm.28-6.24l.47-.2-.1.6zm-.05 3.32l-.01-.4.4.2zm3.37-2.25l-.38-.2.28-.3zm-11.12-11.2l.48-.1-.2.6zm-.16 3.2l.01-.4.38.2zm3.36-2.04l-.38-.1.3-.4zm-1.86 41.34l.37-.5.3.6zm5.62 2.72l-.3-.3.47-.2zm.01-5.62l-.47.2.1-.6zm-.92-5.12l-.38-.1.2-.4zm-3.36-3.48l-.1.4-.38-.3zm.23 3.22l.27-.5.3.6zm4.87 2.55l-.3-.3.47-.1zm.13-4.93l-.38.2.1-.5zm-4.94-7.47l.28-.5.3.5zm4.77 2.55l-.2-.4.47-.1zm.2-4.92l-.38.1v-.4zm1.86 18.46l-.3-.5.57-.1zm2-6.96l-.38.1.1-.5zm-1.02-4.92l-.1.4-.38-.2zm8.6 6.12l-.01-.8.76.3zm4.82.84l-.66-.2.46-.6zm-2.44-6.1l-.27.6-.4-.5zm-4.5-4.87l-.1-.8.86.3zm4.85.73l-.67-.1.47-.6zm-2.46-6l-.28.6-.48-.6zm2.73 19.48l1-2.23 1.63 2.2zm3-1.85l.37-.6.48.6zm3.13.97l-.48-.5.66-.3zm-.6-2.92l-.57.4-.1-.7zm-22.97 15.6l-.57-.4.65-.5zm2.35-.84l-.46.4-.2-.6zm-3 2.06l-.37.5-.2-.7zm-2.68-3.4l.38.5-.75.1zm6.2-1.48l.27-.8.58.6zm2.2 1.18l.18-.7.58.5zm5.36-2.4l.18-.7.67.5zm-4.32 1.68l-.48-.3.56-.4zm1.42.18l-.48-.3.47-.4zm-1-4.6l-.47.5-.2-.7zm-12.5 5.9l.28-.6.48.6zm3.64 2.97l-.48-.4.66-.4zm.4-6.14l-.47.4-.1-.7zm6.53 1.22l-.38-.6.75-.1zm4.25-1.77l-.47.3.08-.7zm-4.6-3.66l.1.6-.67-.2zm-12.88 13.35l.28-.7.57.6z"/><path d="M240.9 168.57l-.48-.3.66-.4zm.8-2.72l-.38.4-.2-.7zm12.7-5.8l-.1-.7.75.2zm2.82-1.04l-.66-.1.37-.6zm-1.22 1.42l-.57-.1.37-.6zm.6-5.32l-.18.5-.4-.5zm8.8-.74l-.18.5-.4-.5zm-1.25-7.62l-.45 1.3-1.06-1.3zm-8.47 10.16l-.18.6-.48-.5zm4.54-.46l-.01-.7.66.3zm1.6.08l-.01-.7.66.3zm-1.87-5.3l-.01-.6.57.3zm-1.3-4l-.1-.7.66.3zm5.5 7.76l-.47-.1.37-.5zm-2.47-.58l-1.8-.37 1.2-1.93zm.45-2.2l-.2.4-.38-.4zm-7.3-.5l-.1-.6.66.2zm3.9.64l-.47.01.27-.6zm-1.96-4.8l-.27.5-.3-.5zm-4.52-19.15l-.08.7-.77-.4zm-4.76-1.43l.67.2-.47.6zm1.8 6.2l.37-.6.4.6zm6.47-4.5l-.1.8-.76-.4zm-4.75-1.24l.66.2-.46.5zm1.88 6.2l.28-.6.38.6zm-.4-1.1l-.3-.7.85-.02zm4.82-.77l-.66.1.27-.8zM253.2 127v.6l-.67-.4zm-4.57-6.13l-.12 1-.84-.52zm-5.63-1.82l.75.2-.58.7zm1.92 7.58l.4-.7.45.8zm1.2-3.3l-.77.5-.17-1z"/><path d="M244.16 117.46l.27.7-.85-.12zm-4.58 6.24l.76.02-.3.8zm3.3-3.65l-.67.5-.07-.9zm-1.6-4.75l.18.6-.76-.12zm-3.8 5.14l.57-.1-.2.7zm8.4-4.04l-.67.4-.08-.8zm-1.6-4.87l.18.6-.67-.01zm-3.8 5.15l.67.02-.3.6zm7.84.77l-.1.9-.84-.52zm-5.64-1.83l.75.32-.58.7zm1.92 7.58l.48-.7.46.7zm11.1 3.45l-.1.7-.75-.32zm3.4 4.8v.8l-.75-.42zm-6.43-9.08l-.02.8-.75-.42zm-5.75-5.64l.46.5-.76.28zm16.02 21.34l.47.5-.77.38zM251 125.14l.57.12-.5.6zm1.58 6.16l.4-.6.37.6zm6.36 8.37l.02.8-.77-.4zm3.66 4.88v.7l-.77-.4zm-6.64-8.85l-.1.8-.76-.5zm-6.04-5.55l.48.5-.75.42zm16.75 20.78l.48.5-.75.42zm-12.37-12.5l.57.2-.46.5zm1.78 6.2l.37-.6.4.6z"/></g><linearGradient id="F" gradientUnits="userSpaceOnUse" x1="239.416" y1="132.283" x2="271.019" y2="122.428"><stop offset=".01" stop-color="#f5b421" stop-opacity="0"/><stop offset=".985" stop-color="#dd6002"/></linearGradient><path d="M219.82 100.9s10.8 9.55 17.7 29.25 3.63 39.12 3.63 39.12l31.4-17.4s-12.05-21.93-18.76-30.68c-6.72-8.64-12.77-16.08-20.15-19.5-7.67-3.62-13.82-.8-13.82-.8z" fill="url(#F)"/><linearGradient id="G" gradientUnits="userSpaceOnUse" x1="226.561" y1="165.084" x2="273.026" y2="165.084"><stop offset="0" stop-color="#f5c12e"/><stop offset="1" stop-color="#e46c26"/></linearGradient><path d="M272.96 152.67a.7.7 0 0 0 0-.6c-.2-.3-.47-.4-.85-.3L226.9 177.2a.83.83 0 0 0-.28.9c.1.3.47.4.85.3l45.22-25.43c.18-.1.28-.2.28-.3z" fill="url(#G)"/><g fill="#fcd842"><path d="M215.47 103.12l-.2 1.1-1.04-.8zm-4.73 19.7l.47-.6.38.7zm-5.86 5.33l.37-.6.38.7zm9.17-6.45l-.47-.6.76-.2zm-2.45-15.27l.76.4-.76.7zm-4.55 12.77l.85.3-.75.8zm-2.27 1.6l.85.3-.75.7zM216.9 102l1.42-.6-.1 1.8z"/><path d="M220.68 100.5l1.6-.3-.47 1.8zm-1.6.6l1.04.5-1.04.9zm3.13 1.4l.76.4-.76.6zm.75-2l.75.3-.75.7zm-16 10.66l.47-.5.28.7zm4.16-2.6l-.76-1.1 1.42-.4zm-1.62 2.1l-.47-.6.76-.2zm-.75 3.92l-.1.9-.85-.5zm-2.83-.8l.56.6-.85.3zm3.98.7l.66.1-.57.6zm9.17-7.64l.66.3-.57.6zm1.98-2.52l.67.3-.57.6zm2.45-1.6l.67.2-.57.5zm.87-.42l.66.3-.57.5zm-16.75 21.42l.66.3-.57.6zm-2 1.2l.76.2-.57.7zm3.03-3.63v.8l-.76-.4zm-.96-3.8v.8l-.75-.4zm-2.45 2.5l.38-.6.48.7zm17.6-13.46l-.28.4-.38-.5zm-3.3-1.3l.38.3-.47.2zm-1.8 6.63l.38-.3.1.6zm.96-3.2l.28.5-.56.2zm-2.66 6.73l.47-.2-.1.5zm-5.5 11.96l.48-.2v.6zm5.95-7.44l-.1-.5.57.1zm-.37 4.73l-.1-.5.47.1zm6.63-2.2l-.1-.4.48.1zm-11.56-5.92l.3.9-.95-.1zm-2.45-8.36l.67 1.7-1.9-.1zm9.18-4.72l.2.9-.94-.2zm-13.05 12.88h.75l-.28.8zm4.72 5.7l.1-.7.66.5zm-1.7-7.93l-.28 1.2-1.04-.8zm-.2 1.8l-.2.9-.75-.7zm-1.4-.7l-.3.8-.66-.8zm5.96-2.4l.66.4-.76.5zm-7.86 6.33l.3-1.3 1.04.9zm18.92-17.4l.67.3-.67.6zm-6.52 1.22l.38-.5.37.6z"/><path d="M225.78 101l.38-.5.3.6zm-1.04.5l-.37-.5.66-.1zm-4.44 1.52l-.1.6-.66-.4zm1.42-1.62l.28 1.1-1.23-.2zm-2.18 1.92l-.1.7-.67-.4zm-2.94 1.4l-.1.7-.66-.4zm-.56-2l1.14.3-.86 1.1zm4.36-1.62l.57.1-.47.5zm-3.7 5.33l.38-.5.28.6zm4.73-3.2l-.2.7-.56-.5zm5.02-.3l.47.3-.57.3zM222 101.7l.38-.5.28.7zm3.12 2.42l-.2.7-.56-.5zm-.94 3.12l.47.3-.57.4zm3.12-6.44l.57.3-.57.4zm-1.14 5.43l.48-.5.2.6zm.57-3.93l-.47.2v-.6zm4.07-.4l-.57.1.1-.6zm-2.18-.6l-.47.2.1-.6zm3.03 1.1l.2.6-.66-.1zm2.08 1.32l.1.6-.67-.1zm-3.78-1.32l-.66.4-.1-.9zm-2.85 1.32l.2.6-.66-.1zm2.2.8h.56l-.28.6zm1.88 1h.57l-.3.6zm4.72-.4l.2.6-.57-.2zm-3.87 2.6h.57l-.3.6zm3.12 1.9h.57l-.28.6zm-21.1-6.23l.3 2.2-2.27-.8zm-1.8 2h.56l-.28.6zm2.46-.8h.66l-.3.7zm-1.22 4.42l.18-.6.48.4zm-4.75 10.25l.1-.6.57.4zm5.2-12.16l.2-.6.47.4zm-4.26.1l.2.7-.76-.1zm3.6 3l.2.7-.76-.1zm-2.1-4.72l.38 1.4-1.6-.2zm-.74 6.84l.2.7-.76-.1zm2.27 5.93l.1.7-.75-.1zm5.1 2.9l.38-.6.37.7zm3.2-1.1l-.37-.6.75-.2zm2.55-1.8l-.1-.5.48.1zm-3.87-1.6l.2.8-.76-.2zm3.77-1.42l.2.7-.75-.1zm4.46-.3l.2.7-.76-.1zm.28-6.94l.2.7-.75-.1zm-21.2 3.92h.57l-.28.6zm.75-.8l.1-.6.57.4zm-.37 2.6l.1-.6.57.4zm-.95 9.25v.9l-.85-.4zm1.22-.2l.67.2-.57.6zm-2.16 3.1v.6l-.76-.3zm3.4-1l.3.9-.95-.1zm-3.7-2.3l-.28.9-.66-.7zm.3 1.7l-.2.9-.76-.7zm1.04 3.3l.1-.6.57.4zm.38-5.64l.1-.6.47.4zm7.57-10.44l.1.7-.76-.2zm-3.4-.9h.57l-.3.6zm2.28 4.72l.2-.6.47.5zm-7.58-2.2l.48-1 .66 1zm4.92-3.92l.57-.4.2.8zm-1.6 0l.57-.4.2.8zm6.82-.9l-.3-.7.85.1z"/><path d="M215.28 106.03l1.23.4-1.04 1.1zm.57-1l.38.3-.47.2zm-.85 3.52l.28.4-.56.2zm-2-2.32l.38-.5.28.6zm-.74 1.9l-.3-.7.85.1zm1.4 1.8l-.28-.8.76.1z"/><path d="M215.57 112.77l-.2-.7h.75zm-2.47-5.23v1.3l-1.23-.6zm-3.87 4.83l-.48.7-.56-.8zm2.65 2.2l-.48.7-.56-.8zm7-10.16l-.47.8-.48-.9zm1.8 3.52l-.48.8-.47-.8zm-5.96-1.3v.8l-.76-.4zm-4.74 3.3l.57.1-.47.6zm2 0l.3-.5.37.5zm-1.04 2.42l.28-.6.48.6zm4.35-2.02l.57.1-.47.5zm10.6 2.02l.38-.1-.1.5zm-3.12 2.2h.47l-.28.4zm-2.08-4.33l.37.7h-.85zm-2.18 5.03l-.2.7-.66-.5zm4.73-4.93l-.2.7-.66-.5z"/><path d="M220.4 113.27l.48-.5.18.7zm4.06-3.62l.38.4-.66.3zm-14.66 2l.28-.6.38.6zm-1.23 7.04l.56.4-.56.5zm.93-2.62l.2.7-.76-.1zm-2.83 2.22l.3.7-.85-.1zm.57-1.7h.57l-.2.7zm.86-.72l.2-.6.47.5zm-.86 2.42l.28-.5.38.5zm-1.24-.6l.3-.6.37.6zm10.04-8.15l.1-.6.57.4zm-5.96 6.53l1.42.7-1.33 1.3zm-1.8-4.12l1.42.7-1.32 1.3zm-2.18 6.14l-.3.9-.75-.8zm7.4-2.12v2l-2-.9zm-2.66-7.64l.1 2-2-.9z"/><path d="M213.67 104.73l-.66 1.9-1.6-1.6zm-5.57 7.13l.1 2-2-.8zm1.4 2.4v1.9l-2-.9zm1.62-3.2v2l-1.9-.9zm-2.18 4.92l.57 1.9-2.08-.2z"/><path d="M208.1 116.3l.3 2-2-.6zm6.62-6.45l1.5.7-1.42 1.3zm-5.3 7.75l1.23 1-1.6.9zm5.86-9.76l1.04.4-.85 1zm-3.98 6.54l.57-.8.56 1zm9.2-.1l-.67-.7 1.05-.3zm1.78 4.23l-.37 1.1-.86-.9zm-6.05-4.02l.76.4-.86.6zm0 9.54l.66-.6.3 1zm.95-10.45h-1.14l.66-1.2zm2.17-7.34l-.28.9-.76-.7zm-8.8 2.72l.76.5-.85.6zm1.05-3.62l1.52.7-1.33 1.3zm2.55-.3l1.6 2-2.65.9zm8.42-4.83l1.32 1.5-2.08.7zm-9 8.75l-.1 2.6-2.56-1.2zm2.65-4.53l1.13 1.2-1.6.8zm-.85-1.92l1.23 1.1-1.7.7zm.75 16.1l-.47 1-.85-1zm-2.63 1.2l-.95-.1.47-.9z"/><path d="M218.03 119.2l.75.5-.85.6zm-3.88-8.04l.66.7-1.04.4zm-1.8-5.73l2.65-2.4 1.23 3.82zm-3.6 2.5l2.75-2.5 1.13 4.02zm-2.17 3.62l2.17-3 1.9 3.7zm12.58-8.34l-.75 1.7-1.42-1.6z"/><path d="M215.28 103.02l3.22-1.8.28 4.12zm-10.2 13.28l.94-3.62 3.12 2.5zm10.03-1.22l-1.5.2.57-1.7zm-3.8 16.48l1.32-.9.3 1.9z"/><path d="M206.96 130.76l1.32-.9.3 1.9zm5.67 0l1.33 1.5-2 .8zm-6.33-3.42l1.13 1.6-2.08.6zm-.57-4.62l.75 1.8-2.08.1z"/><path d="M206.48 131.26l1.52 1.1-1.8 1.2zm2.94-.3l1.6 1-1.8 1.3zm-1.42-1.6l1.23 1.6-2.08.5zm1.42 4.73l1.6 1.2-1.9 1.1zm2.18-16.78l.38 2-2.08-.5zm-.67 5.22l-1.9.3.57-2.2z"/><path d="M210.08 120.9l-1.9-.2 1.04-2zm-.48 6.74l1.6-.1-.75 1.7zm2.56 5.83l1.33-.9.28 1.9zm-3.4-9.85l1.05-.4v1.3zm1.33 7.54l-.2-1 1.04.3zm6.62-6.63l-.85-.1.47-1zm4.17 1.7l.37 1H220zm-7.2 1.3l.95-.1-.28 1z"/><path d="M219.92 134.68l.1-1 .86.5zm5.2-16.08l.2 1.1-1.23-.4zm-7.1-1.1l.94.1-.56.9zm3.77 8.74l.3-.8.75.7zm-8.03-6.94l1.9.8-1.7 1.7zm1.8 5.93l.66-.8.47 1z"/><path d="M214.53 120.1l-.95.6-.1-1.3zm-1.7-7.33l.2.9-.94-.2zm-6.24 7.03h.94l-.47 1zm17.7-11.46l-.95.6-.18-1.3zm-2.47-7.14l.38.9-1.04-.1zm-5.57 7.75l.95-.1-.38 1zm-2 15.58l-.66.9-.66-1.2zm-4.64-5.93l.56.7-.94.3zm-2.74 9.14l.85-.4v1.1zm-1.9-2.8h1.6l-.66 1.7zm2.18-1.3l2.27 1-2.08 1.9zm1.7 2.52l1.42 2.1-2.75.7zm-.95-8.74l.38 2.6-2.74-.8zm-.85 3.7l1.6-.1-.66 1.8zm-1.98-.4l1.6.3-1.13 1.6zm11.25 10.06l.3 1.1-1.23-.1z"/><path d="M214.34 134.08l-.76.6-.2-1zm3.78-4.33l.95-.1-.38 1zm-11.07-9.85l-.28.9-.76-.7zm3.5 7.64l.85.1-.56 1zm7.1-21l.57 1.9-2.1-.2zM204.2 119.9l.86-3.72 3.2 2.52zm0 4.12v-3.8l3.7 1.7zm.68 4.53l-.38-3.72 3.78 1.1zm.94 4.12l-.94-3.62 3.97.6zm1.04 4.13l-1.13-3.62 3.97.3zm6.9-12.07l-.76.5-.1-1zm2.65.3l-1.14 1.1-.56-1.7z"/><path d="M215.38 122.42l-.76.5-.1-1.1zm-1.88 1.9l-.76.4-.1-1zm6.23 1.8l-.95.9-.47-1.2zm-4.07-7.34l.47 1-1.23.1zm-4.73 9.75l1.04-.3-.2 1.2zM213 139.8l1.42-.8.2 1.9zm-3.5-1.5l1.42-.8.1 1.9zm1.7 6.03l.38.9h-1.04z"/><path d="M215 137l1.5 1.1-1.9 1.1zm-5.58 1.8l1.5 1.2-1.8 1.2zm1.78.3l1.52 1.2-1.8 1.1zm-.65-3.72l1.52 1.2-1.8 1zm2.08 8.14l1.52 1.2-1.8 1.1zm-1.23-2.02l1.52 1.2-1.8 1.2zm2.94-.9l1.32-.9.2 1.9zm-4.26-10.04l.85-.7.28 1.3zm2.36 7.14l-.28-.9 1.14.1zm5.6-7.75l-.95.1.38-1.1zm4.73.4l.56 1-1.22.2zm-6.72 2.9l.85-.4-.1 1.1zm7.38 5.43l-.1-1 1.05.4zm-4.26-2.92l.57 1-1.23.2zm-1.32 3.32l-.66.8-.38-1zm3.7-5.23l.85-.3-.1 1.1z"/><path d="M208.38 140.3l-1.42-3.52 3.97.1zm1.52 3.53l-1.42-3.52 3.97-.1zM221.72 158l1.42-.9.18 1.9zm-2.94.5l1.33-1 .38 1.9zm1.14 3.62l1.32-1 .3 1.9zm.18-1.92l1.42-.8.2 1.8zm1.62-6.02l1.6 1.1-1.8 1.3zm-4.54.4l1.6 1-1.8 1.4zm-2.46-3.12l1.6.9-1.7 1.4zm4.44 11.66l-1.13-2.3 2.84-.1zm3.4-2.72l1.6 1-1.7 1.3zm-3.5-5.02l1.6 1.1-1.7 1.3zm4.43 8.35l1.42 1.3-1.8 1zm-8.97-20.7l1.5 1.1-1.8 1.2zm3.12 5.73l-1.52 1.2-.56-2.1zm-1.9-2l-1.52 1.2-.57-2.2zm1.8 5.23l1.33-.9.2 2zm6.45 10.85l1.42-.8.1 1.9zm-3.13 1.5l1.4-.9.2 1.9zm-4.92-19.5l.75-.8.48 1.2z"/><path d="M219.64 151.36l-.48-.9 1.04-.1zm4.06-8.74l-.94.3.2-1.1zm-8.6.1l1.9-.8-.2 2.4zm7.47 3.12l-.1-1 1.04.4zm.38-5.24l-.38 1.1-.85-.9zm-6.05-4.1l.76.6-.85.5zm-.1 9.64l.75-.7.3 1.1zm5.2-12.77l-.2 1.2-1.04-.8zm-6.72-2.9l.85.4-.75.7zm1.72 9.44l.56-.7.48.9zm-1.8 12.77l1.32-1 .3 1.9z"/><path d="M215.57 150.36l2.46-.2-1.04 2.8zm3.6 2.1l1.9 1.6-2.46 1.4zm-7.2-10.05l2 1.6-2.37 1.5zm2.46 6.33l1.33-.8.28 1.8zm-2.08.2l1.42-.8.2 1.8zm15.15 10.65l-.66.7-.38-1z"/><path d="M213.67 147.34l.38.9h-1.13zm6.33 6.54l.95-.1-.47 1.1zm-7.46-5.13l-1.6-3.32 3.97-.2zm1.8 4.12l-1.8-3.32 3.97-.5zm1.7 3.83l-1.7-3.32 3.97-.4zm2 4.1l-1.9-3.62 3.98-.1zm2.65 5.44l-1.52-3.22 3.98-.4zm.2-19.4l-.2.9-.76-.7z"/><path d="M219.07 148.95l-.38 1.6-1.42-1.2zm3.4 3.22l-.2 1-.94-.8zm-1.8-8.24l-.3.9-.75-.7zm-.18 2.8l-.38.8-.66-.7zm3.1 24.42l1.42.6-1.23 1.2zm3.6-3.2l-1.23 1.3-.56-2zm1.04 3.52l-1.23 1.2-.66-1.9zm-6.62-21.1l-1.5.8-.1-2zm4.64 15.68l-1.42 1-.38-2zm3.2-3.42l-.37 1-.76-.9zm-5.2-4.12l.66.6-.85.5zm-.67 8.74l.66-.5.2.9zm6.44-16.88l-.38 1-.75-.9zm-5.2-4.12l.66.6-.76.5zm-.57 8.74l.66-.5.2.9zm7.38 5.42l-.2 1-.85-.6z"/><path d="M225.78 157.6l.76.4-.76.6zm1.05 8.64l.56-.7.38.9zm-2.18 5.73l1.13-.6.1 1.5z"/><path d="M224 169.76l1.9-.2-.57 2.1zm-.3-.8l1.04-.9.38 1.5zm-1.6 0l1.22-.7.1 1.8zm1.9-1.7l.28.9-.95-.1z"/><path d="M222 169.15l-1.32-3.2 3.6-.4zm1.5 3.42l-1.13-2.7 3.12-.1zm1.72 2.63l-1.52-2.62 3.13-.5zm-54.28 18.45l1-.7-.9-.6zm-1.9 3.93l-.5-1.67-1.1 1.08zm-8.9 4.22l-.6-1.57-1.1 1.08zm2.9 1.2l-.5-1.47-1.2.88zm5.8-27.94l-1.4-1.57-.7 1.67zm-.9 3.04l-1.3-1.58-.8 1.58zm-6.9 17.42l-1.4-1.67-.8 1.67z"/><path d="M160.54 194.24l-1.1-1.28-.6 1.38zm13.5-27.54l-.6-1.97-1.4 1.18zm1.3 9.15l-.7-1.97-1.3 1.18zm-6.6 8.15l-.8-1.97-1.3 1.28zm-2.3 0l-2-.4.3 1.77zm-1.2 10.34l-2-.6.2 1.77zm4.2-13.97l-2-.4.3 1.77zm-1.8 7.67l-.7-1.96-1.3 1.27zm-8.7 10.72l-.5-1.67-1.1 1.08zm4-10.23l1.2-1.77-1.8-.3zm14-18.98l1.3-1.47-1.8-.5zm-2.7-7.38l1.3-1.57-1.8-.5zm6.9-3.24l1.2-1.57-1.8-.4zm-6.4 20.17l1.1-1.67-1.8-.4zm-1.6 3.53l1.1-1.67-1.8-.4zm4.1-24.68l.9-1.68-1.8-.1z"/><path d="M182.54 146.24l1-1.38-1.4-.2zm-3.2 2.26l1.8-.3-.8-1.77zm6.2 4.04l1.1-1.28-1.4-.5zm-4.3-4.44l1.1-1.28-1.4-.5zm-20.4 44.07l1-1.37-1.5-.2zm1.2 2.36l1-1.47-1.5-.2zm1.6-5.5l-.6-1.68-1.1 1.1zm4.4 1.77l-.7-1.87-1.3 1.18zm7.3 7.27l-1 .1.4.8zm-11-8.85l1.4.3-.2-1.18zm-1 1.88l.6-.98h-1.1zm.4 5.6l-.8-.8-.4 1.08zm9.3-20.07l1.2-.7-1.1-.78zm3.3-11.7l1.2-.7-1.1-.8zm-5.3 13.57l1.2-.7-1-.78zm-4.9 4.13l-.5-1.08-.7.8zm1.2-2.65l-.5-1-.7.6zm8.3 4.02l-1.2.1.5.88zm-4.3-9.24l-1.2.1.5.9zm.5-4.03l1.1.9.3-1.18zm.6-2.85l1.1.8.3-1.18zm6-17.5l.5 1.67.4-1.27zm-9.8 20.56l2.2-.4-1.2-1.57zm1.5-3.25l2.1-.3-1.2-1.58z"/><path d="M171.84 175.65l.8-2.07-2 .4zm2.3-4.92l.8-2.06-2 .3zm-6.2 16.43l.7-2.17-1.9.4zm-6 9.44l.8-2.07-1.9.2zm23.1-35.02l-.7-.98-.5.9zm1.8-13.58l-.3 1.18 1-.2zm-8.7 13.78l1 .8.2-1.08zm-.7-9.24l-.5 1.08h1zm-3 11l-.3 1.08h1zm4-13.28l1.3-.2-.6-1zm-6.3 38.07l-.9.2.5.6zm3.8-1.67v.78l.6-.3zm-5.7-2.87l.8.2-.1-.7zm-8.7 13.2l-.9.1.5.7zm3.9-1.58l-.1.7.6-.2zm-5.6-3.05l.7.3-.1-.68z"/><path d="M190.34 177.8l.7-.1-.4-.6zm-7.7.9v-.8l-.6.2zm-4.6-6.9v1.38l1.2-.5zm-1.6-6.38l1.2.3-.3-1.1zm-5.8 7.48l.5-1.1-1-.1zm16.5-28.33l-.6 1.08 1.1.1zm-2.3-2.17l-.6.98 1 .1zm-.4-2.95l.7.8.3-.88zm-5.3 9.95l.9-.4-.6-.6zm2.2 5.4l.5-.8-.8-.1zm1.1 8.56l.1 1.08.9-.4zm-8.5 8.44l.2 1.97 1.6-.8z"/><path d="M185.04 158.93v1.18l.9-.4zm-2.9 3.64l.1 1.18.9-.5zm5.1-13.97l2 .4-.4-1.78zm-3.3-9.44l1.9-.5-.8-1.77zm2.4 3.34l1.9.4-.3-1.77zm-4.7 6.3l1.9.6-.2-1.77zm-17.9 36.78v-1.47l-1.1.5zm1.3 6.4l-1.2-.3.2.98zm6.2-7.08l-.6 1 1 .1zm-2.7 2.16l.6 1.28.8-.9zm-3.8-5.5l1.1-.1-.6-.98zm-2.5 9.15l.1-1-1 .3z"/><path d="M162.24 191.98l.1-1.38-1.1.4zm.9 6.6l-1.1-.4.1 1.08zm6.5-7.27l-.6.98 1 .1zm-1.2-11.72l2.3-1.96-2.5-1.1zm-8.3 20.17l1.5-1.28-1.5-.8zm-3.5-2.75l3-.7-1.6-2.36zm3.2-7l3-.7-1.5-2.56zm-1.5 3.35l3-.7-1.7-2.26z"/><path d="M161.44 186.57l3-.8-1.7-2.07zm1.4-2.95l3-.8-1.7-2.16zm1.4-3.15l3-.8-1.7-2.06zm3.8-2.27l1.4-2.76-2.7-.1zm3.2-7.57l1.4-2.65-2.7.2zm1.7-3.23l1.4-3.44-2.7 2.16zm-5.5 6.28l3-.78-1.7-2.17zm-12.3 26.75l3-.78-1.7-2.17z"/><path d="M157.34 204.86l-.4-3.05-2.3 1.48zm3.9-.8l-.4-2.95-2.3 1.48zm17.5-53.3l2.8 1.47.1-2.85zm-2.5 11.5l2.3-2.06-2.5-1.08zm-5.5 27.35l1.2.2-.2-1.08zm-5.7.18l.5-.98h-.9zm5.4 6.3l-.8-.6-.2.88zm-3.8-20.94l-1 2.26 2-.1zm2.4-1.96l-.7 2.16 2-.2zm6.2-11.42l-1.3-1.47-.7 1.67zm-2 3.84l-1.3-1.58-.8 1.77zm5.7-9.84l1.1.9.3-1.18zm1-2.65l1 .98.4-1.28zm-4 2.75l2.1-.1-.9-1.87zm1.3-2.95l2-.5-1-1.67zm4.4 3.15l.9-1.97-2 .2z"/><path d="M183.54 157.06l-.1 1.28 1.2-.4zm-1.1-6.5l1.2.3-.2-.98zm-2.4 9.53l.6-.98-1-.1zm-6.1 5.7l1.4-2.85h-2.7zm4.5-9.92l1.7-2.75-2.4-.2zm-4.6 4.22l3-1.18-1.6-1.87zm8-16.7l3.1-.8-1.6-2.26zm-1.4 2.84l2.4-.7-1.1-1.96z"/><path d="M173.14 161.5l-1.1 2.46 2-.3zm1.7-2.28l-.7 2.17 1.9-.2zm-4.2 35.4l1.2.2-.2-1.08zm-5.7.2l.5-.98h-.9zm5.4 6.4l-.8-.7-.2 1zm-1.5-9.15l-.2-1.37-1.1.7zm2.2 6.2l-1.2-.1.3 1zm4.9-8.47l-.4 1.08 1-.1zm-1.6-8.45l.3-.98-.9.2zm-.1 4.73l-.7-.4v.8zm5.3-4.33l-.5.6.7.2zm2.6-14.65l-.4.8h.8zm1.2-4.14l.5.5.2-.6zm-5.8 2.84l.6-.5-.6-.3zm11.2-20.25l.5-.7-.7-.1zm-.6 7.58l-.5-.5-.3.6z"/><path d="M181.74 168.76l1-.68-1-.6zm-3.5 4.54l-.5-.9-.5.7zm8.3-.3l-1 .3.5.7zm-4.1-1.2l-1.2-.68-.1 1.27zm6.1 2.18l-.8.78.9.4zm-3.2-9.15l.6 1.08.6-.88zm1.6-3.63l-.5-.8-.5.8zm3.2 3.24l-.8.3.5.6zm.8-6.8v.9l.7-.4zm-1-22.52l-.3-2.07-1.5.9zm2.3 3.34l1.5-1.38-1.7-.68zm-1.3-7.77l1.5-1.28-1.7-.78zm7.6-1.77l1.5-1.38-1.7-.78zm-5.3-2.36l1.2-1.57-1.8-.4zm7.2-11.1l1.1-1.38-1.5-.4zm-3.7 1.96l1.7-.1-.7-1.37zm5.1 4.92l1.2-1.28-1.4-.5zm-2.9-5.1l1.2-1.28-1.4-.5zm-6.5 16.52l1.3-.4-.9-1zm-5.5 4.92l1 1.08.5-1.08zm1.2-2.77l.9 1.1.5-1.18zm7.9-16.6l.4 1.67.5-1.18zm-10.3 16.22l2.3-.1-1.1-2.16zm3.6 3.64l1.1-1.97h-2z"/><path d="M198.54 131.78l-.4-1.18-.8.7zm-3.7-.68l.9.9.3-.98zm.1-9.64l-.6 1.08 1.1.1zm-4 10.62l-.6 1.08 1.1.1zm5.1-12.78l1.4-.2-.6-1zm-3.2 21.53l-.2 1.48 1.2-.3zm-.3-6.5l1.1.5-.1-1.08zm-7.1 6.3l.7-1-1-.3z"/><path d="M200.84 121.26l-.7 1.08 1 .1zm2.3-8.66l-.6.9 1 .2zm-.6 2.07l.7.8.3-.9zm-5.7 3.73l.9-.4-.6-.6zm1.9 5.6l.6-.78-.9-.2zm.4 9.46l-.1 1.18.9-.3zm3.2-3.94l-.1 1.18 1-.3zm-5.5 4.53l-.1 1.18 1-.3zm7-24.7l1.6.8-.2-2.17zm-3 7.18l2 .4-.3-1.77zm-1.5 1.46l1.9.7-.1-1.87zm-12.9 20.57l1.9-2.56-2.8-.2zm2.4-3.54l1.9-2.56-2.7-.6zm7.5-15.25l2.7 1.58.3-2.76zm-3.5 11.42l2.7-1.67-2.3-1.47zm-1.4-1.38l-1.1-1.68-1 1.48z"/><path d="M189.04 133.46l-1.2-1.97-.9 1.67zm7.3-8.76l.9 1 .5-1.2zm1.1-2.46l.9 1 .5-1.18zm-5.3 1.86h2.2l-.9-2.06zm1.7-2.64l2.2-.1-.9-1.77zm5.1 3.74l1-1.87-2 .1zm1.8 1.08l-.1 1.37 1.2-.4zm-.7-6.5l1.1.4v-1.08z"/><path d="M192.04 125.88l.7-.98-1-.1zm-2.1 8.36l1.9-2.56-2.6-.5zm5.9-9.54l1.8-2.46-2.4-.4zm-6.2 3.54l3.2-.6-1.5-2.26z"/><path d="M199.84 113.5l2.4.1-.3-2.36zm-1.8 2.15l2.1-.1-.6-1.77zm-8.7 13.08l-1.4 2.46 2.1.1zm2.7-.78l-1.1 1.96 2 .1zm5.7 8.95l-.5.7.8.1zm1.9-3.74l.5.6.3-.6zm-6.2 1.67l.7-.3-.5-.4zm11.5-23.2l.3-.7-.7-.1z"/><path d="M208.44 105.42l1.1.3-.1-.98zm-3 2.36l1.5.3.1-1.57zm-3.5 3.35l2.4 1.18-.6-2.95zm-1.4 12.97l-.2 1.28 1.2-.3zm6.8-17.8l1.1.5-.1-1.08zm-7 8.37l.7-.98-1-.2zm4.3-1.27l-.5-.5-.3.6zm-1 11.8l-.5-.78-.5.68zm-1.5-7.2v.8l.7-.3zm-37.9 85.98l-.4.88.8-.1zm1.2-3.94l.5.5.3-.7zm-5.8 2.66l.6-.4-.6-.3zm9.8-21.05l.3-.7h-.7zm-.1 6.98l-.6-.5-.2.7zm15.3-15.23l.9-.8-.9-.5zm-3.4 4.7l-.5-1-.5.8zm8.3-.48l-1 .3.5.7zm-4.1-1.1l-1.3-.68-.1 1.27zm6.1 1.97l-.8.8 1 .3zm-3.4-9.15l.6 1.1.6-1zm-18.9 27.45l-.6-.7-.4.78zm3.6 2.85l-.8.4.6.4zm-.1-6.9l.1.8.6-.4zm8.6-10.42l.3-.9-.8.1zm-.6 4.13l-.7-.4-.1.68zm5.4-3.54l-.6.6.6.2zm-7.6 9.83l-.3.7.8-.1zm-6.1 5.22l.7.3.1-.6zm11.1-16.13l-.8.98 1 .3zm2.6-5.02l.6.88.5-.88zm-8.2 1.87l1-.5-.7-.6zm4.3.4l1.3.5-.1-1.27z"/><path d="M175.84 178.1l.7-.9-1-.2zm4.9 8.27l-.8-.9-.5 1.1zm-3.4 3.83l.7.5.3-.7zm-3.9-2.35l.7-.5-.7-.4zm1 6.68l-.3-.78-.5.5zm10.9-46.63l-.2-1.37-1 .68zm2.3 6.2l-1.2-.1.3.98zm4.9-8.45l-.4 1.08 1-.1zm2.6 2.95l-.3.7.7-.1zm-1.2-2.56l.7.5.3-.7zm-3.9-2.36l.6-.4-.6-.4zm.9 6.7l-.2-.78-.5.5zm-8.6 10.93l-.2-1.48-1.1.8zm2.2 6.2l-1.2-.1.3.98zm4.9-8.57l-.4 1.18 1-.1zm2.6 3.05l-.2.7.7-.1zm-1.2-2.76l.7.7.3-.88zm-3.9-2.16l.7-.5-.6-.4zm1 6.7l-.3-.8-.5.5zm-13.7 32.95l1-.3-.6-.7z"/></g><g fill="#e06c1e"><path d="M211.25 160.2l-1.5-.9 1.3-.9zm1.58-4.82L211.7 154l1.5-.4zm-5.13 2.95l-1.95.3.46-1.77zm2.06-2.86l1.1 1.68-1.67.3z"/><path d="M210.32 153.9l-2.05.2.56-1.77zm7.34 19.28h-1.95l.65-1.58zm-5.02-21.25l-1.95.1.56-1.67zm2.06 2.77l-1.68.98-.18-1.77zm-1.87 1.27l-1.68.98-.18-1.77zm-.56-2.37l-1.86.6.18-1.87zm1.77 5.22l-1.96.4.47-1.77z"/><path d="M214.6 159.3l-1.76.6.1-1.77zm-7.82-7.17l-.84-1.57h1.5zm-1.2-3.05l-.84-1.57 1.5-.1zm.83-7.18l-1.2-.98 1.2-.6zm1.6-.4l-1.2-1 1.2-.6zm4.64 19.2l-1.5-.8 1.12-.98zm-5.67-10.83l-.47-1.08 1.03-.1zm1.2 5.3l.74-.6.28.88zm-7.08-3.74l.74.6-.65.5zm3.26 12.9l-1.02.4.1-.98zm5.3-.6l-.55-.9.83-.1zm-4.1 6.98l.56-.8.37.8zm-.57-18.7l.2 1.18-.93-.3zm.2-5.5l-.84.4v-.9zm5.95 5.4l-.65-.78.84-.2zm-.45-2.55l-.75-1.58 1.5-.1z"/><path d="M210.78 148.8l-2.14-1.68 1.95-1.18zm-2.05-3.46l-1.02-1.47 1.58-.3zm1.87 6.7l-2.6.3.74-2.27zm-5.77 4.33l-1.03.5v-1.08zm4.1 3.84l.56.78-.84.1zm-5.86-5.4l-.56-.9.84-.1zm6.7 29.78l-.56-.8.84-.2zm23.15 11.6l-.52-.8.8-.16z"/><path d="M207.62 152.82l-.84-.7.84-.4zm1.3-2.17l2.65-2.8 1.4 3.14z"/><path d="M210.6 154l2.4-3.13 1.47 3.25zm-2.6-7.08l-1.86.6.2-1.77zm1.94-.1l-1.76.6.1-1.77zm-3.24-1.38l2.6-2.75 1.5 3.24z"/><path d="M205.85 145.64l1.2-1.48.74 1.58zm-.55-7.77l1.5-1.18.72 1.76zm0-2.17l.83-1.04.67 1.78zm-.1 1.87l-.37-1.37 1.2.2zm1.2 2.07l-.47-1.28 1.2.1zm-.74 1.18l-1.3-.1.56-1.18zm-.36-6.1l-.46-1.38.9.34zm1.1 7.78l2.04-2 .93 2.36zm-.18-2.47l1.3-1.37.65 1.47zm5.96 17.3l2.36-3 1.58 3.15z"/><path d="M213.57 160.4l2.5-3 1.58 3.14z"/><path d="M215.15 163.54l2.42-3.1 1.62 3.08zm-8.18-9.74v1.77l-1.3-.7zm4.65 7l-1.86.68.1-1.77zm12.08 16.12l-1.77.68v-1.86z"/><path d="M218.13 176.62l-1.77.7.1-1.77zM212 160.4l1.12 1.67-1.68.3zm6.97 3.04l1.02 1.87-1.86.3zm-2.42.3l1.1 1.77-1.76.3zm-1.58-2.66l1.1 1.57-1.67.3zm-2.8 4.32l-.1-1.18 1.03.3zm-.65 5.52l.93-.3-.1.9zm-5.4-6l.56.78-.84.2zm3.62 13.65l-1.12-.1.47-.88zm5.2 1.57l-.2-.98.84.2zm-6.42 4.53l.93-.3v.8zm6.33-17.5l-1.3-1.77 1.86-.4zm.28 2.75l-1.3-1.67 1.77-.4zm-4-6.7l-1.1-1.67 1.67-.4zm8.55 17.3l-1.4-1.57 1.76-.5zm-18.87-19.47l.74-.5.2.8z"/><path d="M208.83 161.28v1.18l-.93-.4zm.65-5.4l-.93.3.1-.98zm5.4 6l-.55-.8.83-.1zm-3.44 12l.75 1.08-1.03.1zm-2.03-5.12l-.66.8-.27-.9zm7.52 2.55l-.84-.5.65-.5zm-1.5-10.7l-2.42.8.1-2.27zm0-2.18l-1.86.4.37-1.77zm-.73 4.53l-.84 1.47-.74-1.18zm-10.8-3.85l-.47.9-.46-.8zm-1.12 4.44l-.65 1.18-.65-.98zm4-4.52l-1.02-.3.56-.8zm1.4 9.14v-1.18l.83.5zm8.18-1.08l.28-1.67 1.2.88zm2.98 2.36l-1.2-1.28 1.4-.5z"/><path d="M217.4 169.15l.46-1.68 1.12 1.1z"/><path d="M219.43 167.67l.84 2.75-2.33-.4z"/><path d="M220.03 165.1l1.3 2.86h-2.6zm-1.7 5.03l-1.86.7.18-1.77zm3.34 4.33l-1.67 1.08-.28-1.87zm-3.16 1.37l-1.4-.98 1.2-.8zm1.5-4.33l-1.12-1.28 1.4-.5zm-4.47.2l-.28.9-.66-.5z"/><path d="M218.86 170.58l2.33-2.95 1.5 3.04zm12.7 7.7l-.8.9-.3-.98zm-1.68-.35l.78 1.46-1.4.13zm-3.75-.73l1.07 1.88h-2.23z"/><path d="M230.82 178.9l.5 1.27-1.12.02zm-7.67-.12l1.5 1.1-1.3.88zm5.78 2.92l1.27-1.4.6 1.56zm-9.87-5.77l1.4 1.18-1.4.8zM216 177.7l.28 1-.93-.1zm-.75-5l-.75.5-.18-.9zm6.05 3.92l-.65-.6.75-.4zm-.03 12.33l-.18 1.1-.82-.5zm1.27-4.85l-.87.22.2-.87zm4.06 5.95l-.33-.74.8-.04zm-9.03-9.2l.28 1.08-.93-.1zm-.84-5.02l-.74.5-.1-.8zm6.14 3.84l-.65-.6.75-.3zm3-1.07l-.65 1.18-.65-1zm.53-.9l-2-.37.97-1.66z"/><path d="M224.92 177l-1.12-.78.93-.7zm-2.42-2.15l-1.3-.8 1.02-.78zm-2.88-2.65l-.37.8-.56-.7zm.64.73l2.23-2.36 1.5 2.75z"/><path d="M222.16 175.7l1.77-2.46 1.3 2.46zm7.04 4.92l-2.34-2 2.3-1.24zm1.85-1.74l-1.8-1.63 1.9-1.12zm-9.65 4.42l-1.4-.8 1.2-.88zm3.95 1.34l-1.4-.78 1.2-.9zm1.2-2.27l-1.4-.78 1.2-.9zm7.42-.01l-1.42-1.15 1.3-.72zm2.15-3.6l-1.4-.95L236 177zm-3.62 3.93l-1.75.92-.13-1.86zm6.9-11.38l-.4 3.05-2.36-1.42zm-2.66 1.83l-.4 2.96-2.36-1.42zm1.9 1.82l-1.57.33.24-1.48zm-3.48 2.43l-1.33-1.15 1.3-.7zm3.46.62l2.14-.14-.8 1.8z"/><path d="M233.98 178.72l-2.94-2.7 3.03-1.44zm5.44-6.22l1.77-.14-.53 1.48zm-10.75 24.1l.3.96-.85.04zm-.9-4.87l-.65.47-.22-.84zm6.26 3.54l-.65-.6.62-.3zm-3.7-1.47l.28 1.06-.94-.08zm-.62-4.92l-.75.46-.13-.82zm6 4l-.65-.62.73-.36zm-7.07-4.3l.28 1.06-.94-.08zm-.9-4.96l-.65.48-.23-.84zm6.24 3.65l-.65-.62.62-.3zm-8.78-.25l.28 1.06-.94-.08zm-.9-4.96l-.65.48-.23-.84zm6.25 3.64l-.65-.62.62-.3zm-26.28-14.5l-1.12.4.2-1.08zm5.3-.2l-.46-.88.83-.1zm-4.57 6.5l.65-.7.38.88zm2.7 10.33l-.47-.9.84-.1zm15.52-1.45l-.66-1.27 1.2-.14zm5.55 7.3l-.67-1.27 1.2-.14zm1.83 4.3l-.67-1.26 1.2-.15zm-2.3 9.33l-.67-1.26 1.2-.15zm.12-21.1l-.66-1.27 1.2-.14zm-15.3-3l-1-.54.78-.57zm4.1 3.57l.23-.96.6.52zm-7.74 1.63h.9l-.34.72zm13.4-6.17l-1.1-1.68 1.67-.3zm9.83 12.5l-1.02-1.68 1.83-.17z"/><path d="M233.43 191.77l-.8 1.85-1.18-1.32zm6.57-18.6l.88 1.95-1.86-.06zm-8.2 26l-.5 1.2-.77-.94zm3.15.78l-1-1.8 1.73-.18zm-7.7-18.05l-1.2-1.77 1.77-.3zm8.75 14.94l-1.1-1.7 1.74-.2zm-1.9 6.16l-1.95-2.76 2.72.1zm-1.14-3.52l-.03-1.4 1.3.73zm2.74-4.68l-.04-1.3 1.2.62zm-.7-3.34l.07-1.4 1.2.72zm-24.87-10.4l.65 1.08-1.02.1zm-1.86-5.3l-.65.68-.28-.78zm7.43 2.86l-.74-.5.65-.5zm-10.3-37.1l-.93.1.27-.8zm-2.8.7l-.18-.7h.65zm2.5 3.24l.65-.5.1.8zm.47-12.88l-1.1-.1.46-.98zm-.93-1.66l-.1-1 .74.3zm1.96 12.77l.28-1.08.84.6zm-2.05.5l.28.9-.84-.1zm-6.05 3.34l-1.02.4.1-.98zm5.4-.68l-.56-.8.84-.1zm-4.2 6.88l.65-.68.28.78zm2.62-19.67l.74-.2-.2.78zm1.48 1.87l-.74.6-.1-.88zm.38 4.72l-.84.6-.2-.98zm.55-1.77l-1.02.7-.2-1.18zm.67-3.05l-.84-.78.93-.4zm-1.13 7.58l.65-1 .47 1zm-1.95-4.43l-.84.1.18-.6zm3.53.4l-.2-.5h.56zm-3.72 3.94l.56-.4.1.7zm-2.88 6.4l.1 1.18-.93-.4zm.45-5.6l-.84.4v-.9zm5.6 5.9l-.56-.7.84-.2zm16.95 54.8l.28 1.26-1.15-.28zm.01-6.05l-1.1.46-.02-.95zm7.14 5.73l-.83-.86 1-.18zM216.45 188l-.5.97-.53-.8zm3.23-3.73l-.8-.25.5-.67z"/><path d="M220.7 191.5l.1-.9.68.32zm8.72-4.67l-.38 1.03-.62-.7zm2.4-4.36l-.84-.05.32-.74zm2.5 6.96l-.2-.93.8.24zm-15.77-.05l-.14 1-.76-.36zm1.28-4.88l-.8.04.13-.68zm4.02 6.07l-.3-.83.8-.04zm15.8-15.82l-.8 1.9-1.15-1.35z"/><path d="M239.5 180.46l-1.5-.85 1.2-.9zm-5.25 17.66l-1.32-1.05 1.37-.74zm-18.58-15.22l.3.98-.84-.18zm15.9 1.52l.1 1.02-.8-.34zm.43 3.88l.1 1.02-.78-.35zm-2-4.66l.1 1.02-.8-.25zm-1.16 3.28l.28 1.05-.92-.16zm-.14-4.92l-.7.27-.06-.7zm5.7 4.45l-.64-.62.7-.27zm-7.4 10.53l.28 1.05-.92-.16zm-.13-5.02l-.75.46-.02-.9zm5.6 4.54l-.53-.7.7-.27zm-9.55 6.14l.4.97-.93-.07zm-.87-5.06l-.67.57-.13-.82zm6.25 3.64l-.66-.52.64-.38zm1.93 3.36l-.6 1.2-.68-.93zm3.17.78l-1.1-1.8 1.83-.16zm-.83 2.94l-2.06-2.68 2.83.02z"/><path d="M231.4 204.9l-.05-1.3 1.2.62zm1.27-1.27l-1.3-1.14 1.25-.67zm-7.25-1.23l.2 1.03-.9-.17zm-.1-5.12l-.75.46-.13-.82zm5.57 4.62l-.55-.6.7-.27zm2.75-10.8l.16-1.37 1.02.58zm6.82-12.94l.1-1.48 1 .2zm1.27-4.9l.4.77-.84-.08z"/><path d="M230.85 180.17l2.08-2.7 1.64 2.7zm10.8-3.8l-1.94.54.33-1.88zm-4.52 8.67l-.06-1.22.97.38zm-4.2 2.3l-1.58-.06.62-1.3z"/><path d="M239.5 181.88l-1.4-.65.95-1.03zm-2.3 2.18l-1.24-.43.82-.85zm-.63-3.22l.12 1.93-1.48-.68zm-1.17-3.06l-.44 1-.58-.78z"/><path d="M238.1 173.6l-.84-.18.45-.7zm1.94 7.23l-.1-.9.75.28zm-2.36 1.72l-.4-1.38 1.2.12zm-17.14 7.6l-.6.64-.32-.82zm-6.96 7.27l.58.87-.93.12zm-1.88-4.68l-.55.7-.3-.78zm6.85 2.3l-.75-.47.64-.5zm-.08-2.04l.14 1.08-.9-.2zm.03-5.04l-.8.37-.03-.84zm5.44 4.7l-.56-.7.77-.27zm-8.74-3.5l.27 1-.95-.1zm-.27-5.04l-.7.4-.03-.84zm5.73 4.4l-.56-.7.68-.3zm-.94-2.82l-.5.87-.5-.8zm3.34-3.74l-.8-.27.5-.56zm.84 7.35l.1-.9.67.34z"/><path d="M219.46 193.28l-.4.9-.65-.72zm2.94-4.02l-.8-.25.48-.58zm1.6 7.22v-.93l.7.22zm-4.13-10.05l.06 1.05-.86-.37zm6.9-1.65l.37 1-.93-.2zm-14.68 13.26l.4 1.08-.93-.08zm-1.13-4.8l-.73.5-.2-.8zm6.4 3.3l-.76-.57.73-.4zm-3.08 4.7l.38.97-.93-.07zm-.8-4.95l-.74.46-.15-.72zm6.14 3.63l-.67-.52.73-.37zm-8.04 3.83l.4.97-.93.03zm-1.15-5l-.64.6-.2-.88zm6.4 3.4l-.66-.57.64-.4zm.65 3l-.37.88-.47-.7zm20.16-23.52l2.66-.42-.86 2.65zm-.3 2.66l2.17-.4-.68 2.18zm-3.82-.3l-.27-1.65 1.45.36zm2.4 2.33l-.04-1.8 1.3.64z"/><path d="M235.76 185.3l-.14-1.82 1.32.54zm-.73.86l-1.74-.82 1.27-1.27zm.32 2.36l-.06-1.7 1.32.54zm1.07-8.87l.2-3.94 2.83 1.5zm.5 7.05l2.05-.5-1.06 3.2zm-2.24-6.13l1.64-1.3.32 1.86zm-2.73 7.93l1.8-.98.03 1.9zm-1.8 3.16l-.08-2.1 1.57.7z"/><path d="M236.13 193.06l-.1-2.1 1.4.73zm7.6-23.86l-1.04 3.73-3.28-1.52zm-8.42 20.6l2.98-1.2-.77 2.65z"/></g><g fill="#da7f57"><path d="M288.54 194.2l.17-.9-1.03.26zm25.88 10.22l1.3-.13-.73-1.27zm-36.56-10.32l1.3-.04-.55-1.35zm1.44-3.32l1.3-.04-.72-1.27zm20.92 12.84l1.38.37-.34-1.78zm-2.75-1.52l1.46.36-.33-1.77zm-15.67-4.97l1.45.5-.27-1.88z"/><path d="M282.47 197.87l1.28.4-.2-1.52zm26.63 7.23l1.47-.34-.94-1.52zm-5.06-6.86l1.47-.35-1.02-1.5zm-9.5.66l1.47-.16-.85-1.6z"/><path d="M292.14 198.97l1.03 1.07.78-1.6zm-7.7-4.83l.9 1.1.84-1.56zm11.5 4.5l1.03 1.07.8-1.6zm-4.4-.92l1.55-.16-.94-1.6zm-12.4-1.1l1.3-.12-.64-1.27zm11.18 3.4l.7-1.4-1.73-.1zm20.18 1.08l.6-1.4h-1.64zm3.6 5.7l.6-1.5h-1.73z"/><path d="M342.75 209.6l1.1-.7-1-.67zm-26.05-3.3l.7-1.5-1.72-.1zm2.44 1.15l.7-1.5-1.64-.1zm16.84 3.85l.7-1-1.4-.32zm-1.9.8l.5-1.1-1.3-.1zm-48.37-12.95l.74-1.2-1.46-.14zM285 197l.65-1.13-1.46-.15zm3.54 2.45l1.3-.13-.73-1.36zm1.46-3.6l1.47-.25-.86-1.5zm-3.2-7.6l.24.7.62-.6zm3.82 8.9l-.66-.9-.56 1.12zm-2.97.86l.63-.77-1.03-.22zm-4.6-4.1l.77.3.04-.97zm20.8 4.34l.01-1.06-1.13.43zm9.2 4.84l.1-1.15-1.13.52zm-11.62-4.23l.1-1.16-1.13.53zm-7.17 1.65l.87-.18-.5-.8zm2.32.27l.87-.18-.52-.8zm1.73-3.84l.34.9.6-.8zm3.72 2.97l.34.8.6-.7zm4.9 1.55L306 201v1.33zm1.97 1.25l-.94-.54-.01 1.33zm-2.93 2.64l-.25-1.77-1.48 1.14zm2.9.73l-.42-1.7-1.38 1.32z"/><path d="M303.25 201.5l1.2-1.23-1.8-.45zm4.48.84l1.2-1.15-1.72-.63zm-14.47-4.24l1.22-1.15-1.72-.63zm-9.86-1.8l1.25-1.1-1.7-.7zm52.87 15.8h.9l-.4-.9zm3.1.6l-.7.5.67.4zm-27.66-9.28l-.6.7.95.27zm-18.32-10.82l.17.62.6-.44zm3.82-2.28l-.43.26.5.36zm-.4 6.02l-.43-.54-.26.7zm-15.13-2.04l.14.72.63-.5zm3.97-2.06l-.45.24.42.46zm-.77 6l-.32-.45-.3.6zm23.4-1.9l-.95.52.94.8zm4.45 5.52l-.6-.72-.35.98zm-8.53 1.26l.52-.7-.95-.18zm35.48 8.64l-.6.6.78.45zm-1.08-2.2l-.6.6.9.4zm2.1.62l-.7.4.6.6zm-34.16-11.72l-1.38.6 1.2 1.16zm34.3 13.04l-.9-.12.2.9zm1.58-1.6l-1.05-.36-.26 1.45zm-51.08-8.96l.95-.6-.94-.63zm-4.63-5.33l.6.7.35-.97zm8.48-1.72l-.53.8.95.1zm-2 .52l-1.04.17.6 1.07zm2.2 6.93l-.25-.9-.7.8zm-8.27-2.1l.7-.52-.86-.63zm-1.23-.92l.97-.5-1-.75zm-4.52-5.5l.58.73.38-.95zm8.77-1.15l-.55.78 1.03.22zm10.17 9.52l.53-2.2-2.6.52z"/><path d="M281.2 195.07l.4-1.5-1.65.3zm1.17 3.23l-.42-2.4-2.14 1.6zm6.47 2.05l-.42-2.24-2.14 1.6zm-2.98-.92l-.42-2.4-2.14 1.6zm6.34 2.02l-.6-2.3-2.08 1.58zm2.68.72l-.6-2.3-2 1.67zm2.75.83l-.6-2.4-2.08 1.67zm1.82-.1l1.4-1.94-2.67-.55zm7.15 2.53l1.3-1.94-2.58-.46zm3.87.82l1.4-1.94-2.6-.46zm-6.2-1.45l-.6-2.3-2.08 1.67zm-24.7-7.54l-.26-2.14-2.3 1.4zm-3.32-1.3l2.36-.52-1.56-2.1zm.9-2.8l2.26-.44-1.55-2.2zm16.77-.4l-.6-.8-.44.97zm-3.9 4.76l.52-.62-.86-.18zm-2.3-7.54l.7.36v-.8zm39.25 17.28l1.47-.22-.9-1.57zm-2.08.25l1.06 1.04.74-1.6zm-1.8 1.1l.66-1.43-1.73-.05z"/><path d="M321.28 208.12l1.3-.16-.76-1.34zm2.02-2.37l-.68-.9-.53 1.14zm-2.95.95l.6-.8-1.03-.2zm6.7 2.3l.86-.2-.54-.8z"/><path d="M321.83 209.12l-.5-2.22-2.1 1.66zm3.17.88l-.66-2.3-2.03 1.65zm2.26.48l-.22-2.1-1.94 1.73zm-9.36-5.08l.98-.2-.7-.8zm-2.68-5.56l.34.73.53-.7zm5.1 1.63l-.62.48.72.34zm4.78 2.68l-.74-.24.13.78zm-25.56-2.2l-1.05 1.4 1.8.45zm2.6-.6l-1.13 1.32 1.8.54zm10.5 4.85l1.47.36-.34-1.77zm-3.18-.73l1.46.45-.25-1.86zm2.32.37l1.3-1.86-2.6-.54zm27 7.84l-.47-1.93-2.1 1.24zm-23.03-5.86l-.42-1.86-1.82 1.3zm2.93.75l-.42-1.86-1.82 1.3zm17.02 4.25l-.1-1.7-1.8.98z"/><path d="M311.94 205.2l-1.3 1.23 2.15.54zm-21.72-15.35l-.57-.73-.56.86zm-4.15 4.53l.54-.5-.86-.3zm-1.94-7.53l.67.4.13-.88zm-23.8-.5l1.3-.03-.55-1.36zm6.82 2.54l1.3-.06-.58-1.25zm-3.63-.08l1.3.03-.58-1.26zm7.07 3.64l1.36.6-.01-1.86z"/><path d="M271.25 193.3l1.2.5-.1-1.5zm2.22-3.65l.8 1.28 1-1.56zm-5.07 1.57l1.3.03-.58-1.34zm5.98 3.6l.74-1.12-1.46-.33zm-.6-2.23l.74-1.03-1.37-.32zm-1.68-3.27l.76.47.13-.97zm.07 2.5l1.43-1-1.7-.87zm-1.47-2.2l.06.7.7-.4zm4.13-1.6l-.53.25.42.46zm-1.27 5.8l-.33-.45-.28.52zm5.76 2.95l.97-.4-.83-.92zm-3.9-5.93l.5.73.56-.95zm8.58-.62l-.54.7.93.3zm-2 .28l-1.04-.04.47 1.17zm1.25 7.23l-.13-.9-.8.68zm-7.9-3.33l.7-.42-.75-.65z"/><path d="M274.6 193.95l.97-.4-.83-.83zm-4.1-5.75l.57.73.47-.86zm8.83-.44l-.54.7.93.3zm-16.56.5l.55-1.4-1.65.14zm8.37 5.53l-.24-2.4-2.3 1.4zm5.86 2.56l-.25-2.4-2.22 1.42zm-2.72-1.18l-.25-2.3-2.2 1.33zm-5.38-2.88l-.3-2.4-2.27 1.46zm-3.6-1.76l1.4-.33-1-1.35zm14.28-4.54l-.5-.82-.64.86zm-4.58 4.16l.63-.6-.85-.3zm-1.23-7.76l.67.47.12-.88zm26.73 15.1l1.04-.35-.86-.9zm-6.23-3.96l.43.8.6-.88zm10.93 6.8l-.6.7.95.36zm-17.8-7.7l-.17-.7-.7.53z"/></g><linearGradient id="H" gradientUnits="userSpaceOnUse" x1="290.886" y1="192.477" x2="285.858" y2="205.283"><stop offset="0" stop-color="#cc7a5e" stop-opacity="0"/><stop offset=".924" stop-color="#aa5f4b"/></linearGradient><path d="M280.95 173.24c-4.7-4.5-24.2-18.7-24.2-18.7l-16.1 8.7 18.7 22.6c6.6 8.1 21.55 12.08 25.75 13.28 5.7 2 21.1 6.54 34.6 9.74 6.14 1.27 13.8 3.38 19.6 4.98-.06-.02 1.53-3.5 5.43-5.33 3.1-1.3 3.8-5.07 1-5.47-22.3-3.3-45.5-15.8-45.5-15.8-6.7-2.7-16.9-11.7-19.3-14z" fill="url(#H)"/><radialGradient id="I" cx="1078.501" cy="66.77" r="7.277" gradientTransform="matrix(1.2119 0.0794 0.0801 0.9623 -979.6473 51.7729)" gradientUnits="userSpaceOnUse"><stop offset=".288" stop-color="#aa5f4b"/><stop offset=".967" stop-color="#cc7a5e" stop-opacity="0"/></radialGradient><path d="M333.34 199.75c2.5 1.6 4.1 1.7 5.9 3 .6.5.8 1.1.6 1.7-.7 2.2-4.5 2.9-8.5 1.7-4.1-1.2-6.8-4-6.2-6 .7-2.3 1.3-5 8.2-.4z" fill="url(#I)"/><g fill="#b7654f"><path d="M256 167.46l.82 1.35 1.04-1.5zm-3.62-1.5l.44 1.56 1.34-1.22zm2.72 6.16l1.14.36-.1-1.32zm1.23-1.95l-.34-1.86-1.64 1.23z"/><path d="M251.23 170.52l1.7.64-.16-2.16zm14.7-8.77l1.7.84.14-1.97zm-16.72 6.27l1.8.64-.26-2.15zm3.5-1.67l1.86-.15-1.03-1.84zm1.32 1.93l1.77-.15-.94-1.84zm-2.84.38l1.88.24-.55-1.95zm4.74-2.7l1.78.53-.25-1.95z"/><path d="M256.88 165.25l1.87.14-.64-1.94zm-9.7 4.1l.05 1.67 1.55-.93zm10.93-2.96l1.02 1.24.74-1.6zm6.05 6.53l.64.04-.25-.7zm-.9-6.75l.12.88.77-.52zm6.3 1.27l-.88.42.72.68zm-23.5.65l.14 1.57 1.55-.83zm2.82 2.6l2.28.72-.17-2.65z"/><path d="M252.7 173.56l1.08.07-.43-1.17zm7.57-3.3l-.13-.88-.87.52zm-8.4 5.16l.12.98.77-.62zm17.1-13.5l.13.88.76-.6zm-18.3 9.97l.32.68.67-.7zm-1.18-5.78l-3.03 1.7 2.93 2.45zm3.28-1.76l-3.1 1.76 3.02 2.27zm3.28-1.74l-3.1 1.75 3.1 2.27zm3.67-2.02l-3.05 1.56 3 2.38z"/><path d="M262.66 158.97l-2.97 1.7 2.96 2.22zM250.3 174.1l.5-1.05-1.26.03zm8.56-5.07l1.87.04-.75-1.94zm-5.78 8.02l1.25.25-.33-1.3z"/><path d="M261.16 167l-.25-1.86-1.74 1.13zm3.24-7.17l-.25-1.86-1.73 1.23zm.36 2.54l-.15-1.76-1.84.94zm-2.8 1.46l-.24-1.76-1.84 1.03zm.9-1l-.46 1 1.27-.04zm6.9.98l-.88-.08.22.98zm-7.78 7.52l-.13-.88-.87.52zm2.04-8.52l.35 1.95 1.83-1.23zm1.15 2.1l.17 1.28 1.2-.84zm-3.75 1.96l.22 1.22 1.15-.8zm-4.58 12.47l-.88.12.62.87zm1.74-8.2l.46-1-1.18.04zm-6.9-.8l.88.07-.32-.87zm5.7-6.84l.12.88.87-.62zm-1.46 12.04l-.03-1.08-1.06.62zm-7.2-3.12l.87-.3-.7-.67z"/><path d="M253.77 170.93l.5.67.47-.8zm4.1-5.9l2.36.13-.76-2.54zm-2.46-.98l1.8.54-.26-2.05zm6.7 1.15l1.25-.82-1.4-.85zm-4.02 10.92l.77-.5-.9-.47zm2.78-1.5l.73-.55-.83-.57zm-3.96-2.1l.8.67.26-1.2zm7.4-4.24l-.46.9 1.08.07zm.58-8.56l-.95 1.1 1.68.45zm1.52-1.62l.63 1.46 1.14-1.4z"/><path d="M267.1 158.38l-.95 1.2 1.68.35z"/><path d="M268.8 159.6l.22-2.46-2.62 1.06z"/><path d="M266.84 159.37l-.18-2.75-2.7 1.55zm.92 1.35l1.77.04-.74-1.84zm1.64-1.16l1.86-.16-.93-1.84zm.5.2l.73 1.36 1.14-1.3zm-1.56-2.8l.53 1.46 1.24-1.3zm-1.56 7.32l.67-.6-1-.36z"/><path d="M269.4 155.12l-2.95 1.65 3 2.38zm-3.1 19.68l.68.1-.14-.73zm-1.03-8.04l-.07.88.97-.42zm2.93-.5l-.88.22.6.77z"/></g><g fill="#ffbca4"><path d="M292.82 180.2l1.15-.8-1.05-.62zm-2.68-1l1.14-.9-1.04-.52zm8.28 5l1.4-.3-.67-.96zm-7.06.8l1.4-.2-.67-1.05zm-5.02-5.74l1.28-.3-.67-.96zm.1-1.4l.5-1.24h-1.2z"/><path d="M288.2 180.23l.5-1.34-1.2-.02zm-7.78-6.66l.5-1.24-1.1-.02zm-2.4-4.04l.5-1.34-1.2-.01zm5.94 8.7l1.38-.3-.77-.95zm-.1-2.9l.87.94.53-1.04zm12.5 10.53l.97.93.42-1.13zm5.33-1.18l.96.83.42-1.13zm.2 4.3l.97.93.42-1.23zm2.53-2.6l.96.94.42-1.24zm6.18 3.77l.86.74.33-.92zm-1.26-2.2l.18 1.2.77-.56zm-3.02 4.02l.86.74.33-.92z"/><path d="M309.3 189.14l.85.74.34-.93zm-27.6-15.66l.77.84.43-.93zm1.96 1.96l1.1-.08-.46-.77zm-1.96 3.36l1.4-.3-.77-.95zm1.7-2.84l-.44.84.8.04zm-1.07-.92l.53.46.26-.62zm8.73 8.5l.35.78.66-.65zm8.47 2.1l.36.78.55-.64zm-9.48-3.53l.36.78.55-.64zm-2.72-4.42l.8-.15-.44-.57zm1.1 1.42l.7-.25-.34-.48zm-3.03 5.44l.05-.8-.58.35zm7-2l.14-.8-.68.25zm2.92.4l-.64.74.82.25zm2.33.33l-.64.75.7.15zm10.42 4.06l-1.08.28.82.24z"/><path d="M295.74 180.4l.2 1.4 1.06-.68zm2.1 1.14l.1 1.4 1.16-.7zm-5.57.6l1.25.6v-1.3zm2.98 2.4l1.25.6-.1-1.4zm-10.68-6.26l1.26.72.01-1.3zm24.2 14.52l-.62-.26-.05.7zm-7.34-5.8l-.55.64.6.16zm5.17-.47l-.73-.35.05.7zm-6.05-1.98l-.72-.34-.05.7zm7.62 2.77l.07.9.67-.45zm-25.1-5.92l-.04-.6-.48.23zm.8 2.65l-.5-.07.13.4zm2.35-3.58l-.28.42.5-.03zm8.63 5.7l-1-.03.26.78zm4.26-.7l-.25.72.7-.05zm-4.52-4.2l.64.46.15-.7z"/><path d="M310.52 193.46l-.64-.45-.15.7zm1.8-1.43l-.63-.45-.05.7zm2-.13l-.57.44.52.26zm-5.62-4.12l.24.58.37-.42zm-3.6 1.36l.53.36.06-.6zm-5.15.96l-.7.05.25.6zm-5.42-5.7h-1.3l.47.97zm6.83 7.2l-.7-.04.14.6z"/><path d="M300.34 189.98l-.8.06.25.6zm8.04 3.04l-.4 1.23 1.2-.1zm7.95-.98l.1 1.3 1.06-.68z"/><path d="M315.18 191.42l.1 1.3 1.05-.68zm-2.98 1.52l-.4 1.34 1.2-.2zm1.32-.9l-.5 1.24 1.2-.08zm-4.7-2.57l-.4 1.24 1.2-.1zm-23.2-13.27l.92.24-.06-.8zm-4.32-.3l.45-.63-.7-.05zm3.46 5.18l-.54-.57-.25.72zm-.86-2.15l-1 .17.45.67zm4.2-1.6l-.14.8.7-.25zm-5.43-3.03l.72.25-.05-.7zm-5.02 3.98l.04-.8-.68.35zm-2.33-3.04l-.04-.6-.48.33zm.78 2.56l-.5-.07.13.4zm2.26-3.48l-.16.5.4-.13zm-.5-4.28l.92.24-.16-.8zm-4.34-.3l.36-.62-.6-.06z"/><path d="M276.9 174.92l-.53-.46-.26.62zm-.85-2.14l-.9.16.45.67zm4.2-1.6l-.14.8.7-.25zm-5.44-3.12l.72.25.05-.6zm44.67 25.76l-.62-.25.04.6zm-29.95-13.6l1.12 1.73.9-1.57zm-5.92-7.2l-.07 1.9 1.66-.62zm-2.14-1.74l-.06 2 1.65-.72zm-1.52-1.6l-.3 1.53 1.37-.4zm5.56 4.7l.14 1.9 1.53-.9zm1.67 1.1l.24 2 1.54-.9zm2.08 1.04l.15 2.1 1.64-.92zm.9 2.76l1.7 1.18.27-1.83zm5.43 3l1.68 1.08.28-1.73zm2.92 1.4l1.78 1.08.18-1.72zm-4.53-4.3l.34 1.98 1.43-1z"/><path d="M307.8 187.54l-.98 1.78 1.8.07zm-6.35-1.64l1.22 1.62.9-1.57zm15.07 7.43l1.22 1.62.9-1.57zm3.22 1.47l.7 1.25.82-1.16zm-1.6.12l.9 1.24.72-1.25zm-25.02-16.15l-1.35-.6v1.3zm1.12 1.63l-1.35-.6v1.3zm7.56 4.87l1.15-.7-1.04-.62zm-2.36-.94l1.04-.87-.94-.54zm5.04 3.25l-.65.65.82.24zm1.75.68l-.64.75.82.24zm-1.7-2.9l.2 1.4 1.16-.68zm2.08 1.06l.1 1.4 1.06-.67zm-2.4 2.87l1.35.6-.1-1.3zm-.64 2.16l-.9-.04.26.8zm4.26-.7l-.24.82.7-.15z"/><path d="M303.2 186.57l.62.36.06-.6zm-4.16-2.1l1.78.98.18-1.72zm5.7 2.4l1.78 1.08.2-1.52zm-1.87-2.36l.34 1.98 1.53-1zm9.08 5.05l.35 2.08 1.53-1z"/><path d="M310.58 188.75l.32 1.68 1.15-.8zm3.25 1.97l.3 1.58 1.15-.78zm-11.7-6.68l-1.47-.9.1 1.4zm1.2 1.32l-1.35-.6v1.3zm-9.38 1.98l-.15.7.7-.15zm19.22 10.76l-.7.05.33.47zm2.84-.82l-.07.5.5-.14zm-3.68-2.44l.52.26-.03-.5zm9.13 1.46l.95.63.12-1zm2.52.2l-.73-.35.05.7zm-19.4-.9l-.7.05.33.37zm2.94-.82l-.17.52.5-.04zm-3.7-2.54l.52.26-.03-.5z"/></g><path d="M330.77 197.87l-4.34 11.62c-.1.62.06 1.16.6 1.45l5.06 1.77c.62.1 1.16-.06 1.45-.6l4.38-11.26c.1-.62-.06-1.16-.6-1.45l-4.96-2.17c-.72-.16-1.3.1-1.6.63z" fill="#283749"/><linearGradient id="J" gradientUnits="userSpaceOnUse" x1="331.654" y1="206.8" x2="332.783" y2="204.369"><stop offset="0" stop-color="#151e28" stop-opacity="0"/><stop offset=".998" stop-color="#151e28"/></linearGradient><path d="M336.57 204.9l-1.23 3.07-7.24-2.3 1.27-2.9z" fill="url(#J)"/><path d="M336.5 204.36a5.1 5.1 0 0 1-.38-.02h-.03c-.4 0-.78-.1-1.15-.2l-4.38-1.52c-.5-.2-1.4-.58-1.76-1.13-.2-.38-.57-1.1-.2-1.65l1.12-2.17c.3-.57 1.05-.92 1.96-.92a5.1 5.1 0 0 1 .38.02c.23 0 .7.07 1.12.26l4.32 1.5c1 .32 1.78.93 2.08 1.6.17.37.18.74.03 1.07l-1.16 2.24c-.3.56-1.04.92-1.95.92z" fill="#283749"/><path d="M331.7 197.24a3.65 3.65 0 0 1 .33.02c.2 0 .6.06.98.22l4.35 1.5c1.33.43 2.1 1.37 1.82 2l-1.15 2.2c-.2.38-.77.65-1.5.65a3.65 3.65 0 0 1-.33-.02h-.08c-.3 0-.65-.1-1-.2l-4.35-1.5c-.66-.24-1.3-.6-1.5-.92-.2-.4-.4-.83-.2-1.1l1.15-2.2c.2-.38.76-.65 1.5-.65m0-1c-1.1 0-2 .44-2.4 1.2l-1.13 2.18c-.47.8-.01 1.68.2 2.06.01.03.03.05.05.08.4.63 1.3 1.07 2 1.32l4.37 1.52c.02.01.04.01.06.02.4.12.84.24 1.28.24h.05l.36.02c1.1 0 2-.44 2.4-1.2l1.15-2.22c.01-.02.02-.03.03-.05.2-.45.2-.98-.03-1.48-.36-.8-1.26-1.52-2.4-1.9l-4.3-1.5c-.46-.2-.95-.28-1.27-.3-.16-.02-.3-.02-.4-.02h0z" fill="#d3d3d3"/></svg>