<svg xmlns="http://www.w3.org/2000/svg" viewBox="0 0 480 480" xmlns:v="https://vecta.io/nano"><path d="M309.83 126.45l2.7-2.2 5.3-4.6c1.3-1.2 9.5-16.3 9.5-16.3l-8.2-2.8-9.4 7-3.7 8 3.8 10.9z" fill="#cc7a5e"/><path d="M323.93 91.05l3.8.6c1 .1 1.5 1.3.9 2.1l-14 19.7c-.4.4-.9.7-1.5.5l-6.6-1.7 15.9-20.8c.5-.4 1-.5 1.5-.4z" fill="#1f2b36"/><path d="M285.83 136.35s14.8-16.2 16-18.7c.6-1.2 2.1-6.6 2.5-8.6.4-2.4 2.4-4.3 3.9-5.7s7.7-3.7 7.7-3.7.7 1.6-.1 2.9c-1.6 2.8-5 4.2-5 4.2s-1.6 4.2-2.5 5.9l-.9 1.7s1.1-.3 3.6 2.5c2.4 2.8 1.1 7.3 1.1 7.3l-15.4 22.6-10.9-10.4z" fill="#e89976"/><path d="M320.53 99.65c.7-1.3 2.9-.6 3.7 0 .8.5 3.6 1.7 2.8 3.1-.8 1.5-2 1.6-3.9.7-1.8-.8-3.1-2.7-2.6-3.8z" fill="#ea9d7d"/><path d="M325.15 104.52c-.78 0-1.57-.3-2.24-.62-1.27-.57-2.38-1.67-2.8-2.8-.23-.6-.24-1.2-.03-1.66 0-.01.01-.02.01-.03.26-.5.7-.8 1.28-.94 1.12-.25 2.53.3 3.16.77.08.05.25.14.43.24.94.5 2.35 1.3 2.65 2.35.1.4.06.8-.15 1.16-.6 1.16-1.44 1.53-2.3 1.53zm-4.17-4.64c-.1.22-.07.53.06.87.34.9 1.26 1.8 2.3 2.25 2 .95 2.73.52 3.26-.48.08-.15.1-.27.06-.4-.18-.65-1.48-1.36-2.17-1.74l-.52-.3c-.5-.38-1.6-.8-2.38-.62-.28.05-.48.2-.6.4z" fill="#cc7a5e"/><path d="M315.83 107.95c.2-1.5 2.5-1.6 3.4-1.3.9.2 4.5.4 4.2 2.1s-1.8 2-3.9 2c-1.9-.3-3.8-1.6-3.7-2.8z" fill="#ea9d7d"/><path d="M319.53 111.25c-2.13-.33-4.33-1.78-4.2-3.34a1.88 1.88 0 0 1 .92-1.4c.98-.6 2.45-.56 3.14-.33.1.02.3.05.54.08 1.2.18 3.04.45 3.74 1.43.24.34.33.73.26 1.15-.38 2.12-2.34 2.4-4.4 2.4zm-3.2-3.24c-.05.78 1.45 1.96 3.28 2.25 2.23-.01 3.12-.42 3.33-1.6.03-.15 0-.27-.08-.4-.45-.63-2.22-.9-3.07-1.02l-.66-.1c-.57-.2-1.7-.2-2.34.2-.27.16-.42.38-.46.65z" fill="#cc7a5e"/><path d="M314.43 111.75c.1-1.3 2.2-1.3 3-1.2s3.5.2 3.3 1.6c-.2 1.5-1.2 2-3 1.8-1.8-.1-3.5-1.2-3.3-2.2z" fill="#ea9d7d"/><path d="M318.4 114.5a6.01 6.01 0 0 1-.72-.04c-1.36-.08-2.73-.7-3.38-1.52-.3-.4-.43-.83-.36-1.24.04-.42.24-.8.58-1.07.96-.8 2.78-.6 2.98-.56l.3.03c1.2.12 2.55.3 3.16 1.08.24.3.33.67.28 1.05-.22 1.5-1.17 2.27-2.84 2.27zm-1.64-3.48c-.6 0-1.27.1-1.62.38-.13.1-.2.23-.2.4 0 .02 0 .04-.01.06-.03.16.07.34.17.46.4.52 1.45 1.07 2.67 1.14 1.9.2 2.35-.4 2.48-1.37.02-.12 0-.2-.07-.3-.4-.5-1.84-.64-2.47-.7l-.33-.04-.6-.03zm-2.33.74h0z" fill="#cc7a5e"/><linearGradient id="A" gradientUnits="userSpaceOnUse" x1="299.468" y1="130.662" x2="287.211" y2="146.479"><stop offset="0" stop-color="#cc7a5e" stop-opacity="0"/><stop offset="1" stop-color="#aa5f4b"/></linearGradient><path d="M299.43 125.35c7.9 5.3 5.9 8.8 5.9 8.8l-8 11.6-10.3-10.7 9-10c.8-.5 2.5-.3 3.4.3z" fill="url(#A)"/><path d="M317.43 103.75c.5-1.4 3.1-1.2 4.2-.9s4.8 1.2 4.1 2.8-2.2 1.6-4.4 1.2c-2.4-.3-4.4-1.8-3.9-3.1z" fill="#ea9d7d"/><path d="M323.28 107.58c-.65 0-1.35-.1-2.04-.23-1.8-.22-3.45-1.1-4.1-2.18-.32-.53-.38-1.07-.2-1.58.68-1.87 3.77-1.5 4.8-1.2l.18.05c1.8.48 3.7 1.12 4.24 2.23.2.4.2.8.01 1.2-.6 1.33-1.67 1.7-2.9 1.7zm-3.38-4.44c-.9 0-1.8.2-2 .78-.08.23-.05.46.1.72.4.7 1.7 1.5 3.4 1.7 2.45.44 3.4.22 3.88-.9.06-.14.06-.25 0-.38-.4-.84-2.8-1.48-3.6-1.7l-.18-.05c-.44-.1-1.03-.2-1.6-.2zm-2.47.6h0z" fill="#cc7a5e"/><g fill="#ad5c44"><path d="M296.83 141.95v.8l-1-.3zm3.8-1.9h.6l-.3.5zm-4.9-7.1l.5.4-.7.3zm-3.7 6l.4-.2.1.6zm6.3 1l-.1-.6.6.1zm2.3-2l.7-.2-.1.8zm4.4-3.8l-.7.9-.6-1zm-3.1 4.9l-.6.9-.6-1zm1.8-2.7l-.6.8-.7-1zm-4.4 1.5l.1.9-1-.4zm-.9-3.8l.9.2-.6.8zm2.1 5.6l-1.1-.2.7-1zm-1.1-3.4l-.4.8-.6-.9zm-7.9.4l.8.5-.9.4zm12.8-1.5l-.6.9-.6-.9zm-7.9 5.6l.9.3-.5.8z"/><path d="M296.83 141.45l.9.1-.5.9zm6.2-4.6l-.2.9-.9-.6zm-8.2 3.5l.8.4-.8.6zm7.8-2.4l-.6.9-.7-1.1zm-6.1-3.3l.8.5-.8.5zm1.3 7.6l.8.5-.8.6zm-2 1.2l1.6-.6v2.1zm-2.1-4.8l-1 1.6-1.3-1.4z"/><path d="M292.53 137.45l-.2 1.2-1.2-.3zm1.9 1.9v1.3l-1.3-.5zm3.3 4.2h.6l-.3.6zm-4.9-7.8l.5.3-.7.4zm-1.3.4l.5-.3.1.7zm-.1-1.7l.5-.3.1.7zm3.8 8.4l-1.3-1.4 2.2-.5zm2.3-2l.7-.1-.2.7z"/><path d="M288.93 135.25l.6-.2.1.7zm6.4 4l-.1-.6.7.2zm.4-.7h-.6l.3-.6zm7.2-2.9l-1 .6-.1-1.2zm-2.4-2.6v.7l-.7-.4zm-5 2.7l.9.2-.7.8zm-1.4 4.8l.9.2-.6.9zm-.9-2l1 .3-.7.8zm6.8 2.5l-1.1-.2.5-1zm2.1-7.2l-.1.9-.9-.7zm-8.6 2.3l.7.6-.8.5zm-4.5-.6l.8.4-.9.6z"/><path d="M300.13 135.05l1 .2-.7.9zm-.7 7l-.8 1.1-.6-1.4zm.2-1.2l-.2.8-.8-.6zm-10.4-4.1l2.2-.7-.4 2.4zm-1.6-1.7l1-.4-.1 1.1zm13.2 5.7l-.8.7-.4-1.2zm-7.1-3.7l.9.4-.9.6zm1.9 3.2l1.4-1.4.9 2.2z"/></g><path d="M238.23 116.85s12.5 16.2 19.1 21.7c6.5 5.5 12.5 6 16.6 3.7 4.3-2.4 11.6-8.3 14.2-10.5.5-.5 1.4-.4 1.9.1l12.2 12.5c.5.4.5 1.2.2 1.6-2.4 3.6-12.13 18.92-24.03 28.12-13.3 10.2-34.5 22.45-45.6 15.45-14.9-8.7 5.42-72.67 5.42-72.67z" fill="#074849"/><linearGradient id="B" gradientUnits="userSpaceOnUse" x1="277.217" y1="144.295" x2="231.775" y2="167.204"><stop offset="0" stop-color="#00394a" stop-opacity="0"/><stop offset=".998" stop-color="#00394a"/></linearGradient><path d="M279.83 138.65l15.5 16.8s-9.6 13.7-19 19.5c-6.5 4-12.8 8.6-21.7.3-15.9-14.7-6.9-46.8-6.9-46.8s5.4 7.6 12.1 12.1c3 2 6.4 3.1 9.4 3.2 4.1 0 10.6-5.1 10.6-5.1z" fill="url(#B)"/><g fill="#0a4049"><path d="M258.83 146.65l.3-1.7-1.5.3zm-5.7-6.9l-.1-1.9-1.5.8zm3.6 4.7l1.8-1.1-1.5-1.2zm-5.2-8.2l.8-.4-1-.5z"/><path d="M249.33 131.85l.8-.1-1.3-1.5zm2.8 8.6l1.2-.4-1.2-1.5zm1.4-.3l2.1-.6-1.2-1.4zm-1.1-2.1l1.8-1-1.5-1.2zm4 10l1.8-1.1-1.6-1.1z"/><path d="M255.53 148.65l2-.8-1.4-1.3zm7 10.7l-.3-1.9-1.3 1zm-3.8-10.9l.8-1.7h-1.7zm2.9 9.4v-1.2l-1 .4zm1.1 5.6l-1.1-.2.2.9zm5.4-6.5l-.5 1h.9zm6.1 6.1l1.2.3-.2-1zm-5.7-.3l.5-.9h-.9zm5.1 6.8l-.8-.7-.3.9zm-23.1-36l-.3-1.8-1.4.8zm2.1 9.5l.8-2.6-1.5-.1z"/><path d="M253.33 145.35l1.5-2.2-2.4-.5zm16.8 16l1.2-.1-.6-.9zm-8.1-16.2l.2 1 .7-.5zm11.1 14.6l.1-1-.8.3zm-16.2-18.4l.3-1-.9.1zm-5-7l-2.3-1.2 1.1 3.4z"/><path d="M254.63 137.15l-3.9-.7.9 3.5zm2.4 8.3l-4-.5 1 3.4z"/><path d="M257.73 148.85l-3.7-.6.9 3.5z"/><path d="M258.73 152.25l-3.8-.6.7 3.6zm-5.5-11.8l1 1.5.8-1.4zm5.8 6.9l1.9-.9-1.4-1.2zm-.6.3l.3 2.1 1.6-1z"/><path d="M255.63 155.05l.5 2 1.7-1.2zm1.8-1.7l.7 2 1.3-1.3zm-1-3.1l.4 2.1 1.5-1zm5.3.6l-.8-.9-.5 1zm4.9 3.1l-1 .5.8.5zm-1-8.5l.3 1.1.7-.6zm7.9 10.3l1-.7-1-.5zm-3.9 4.3l-.3-.9-.7.5zm8.4.5l-.9.1.5.8zm-16.7-6.4l-.5-2.1-1.6 1.1zm1.8-5.1l-1-.2.3.9zm7.7 6.4l.4 1.1.9-.7zm-2.8-5l1-.1-.4-.8zm-3 7.8l.2-1-.9.3zm-9.2-8.1l2.5-.9-1.7-1.8zm-1.5-1.6l1.7-1-1.5-1z"/><path d="M258.03 151.65l1.7.5-.2-1.5zm-3.8-8.4l.9.5.1-.9zm8 25h2.1l-.7-1.7zm10.2-16.9l1.3.5-.1-1.1zm-5.6-.9l.6-.8-.9-.2zm4.3 7.2l-.7-.7-.4.8zm-4.3-4.1l1.1.6.1-1.1zm-2.4 2.7l-.3 1 .8-.1zm5.8-2.3l.6-.8-.9-.3zm-6-4.5l.1 1.8 1.4-.8zm-1.6 13.5l2.2.2-.7-1.9zm-1.8-8.4h2.1l-.6-1.7zm6.2 7.2l.3-1.2-1 .1zm-1 5.6l-.9-.6-.1.9zm7.3-4.2l-.7.7.8.3zm2.3-12.4l1.2-.1-.5-.9zm-5.6 1.4l.2-1-.9.3zm6.8 4.9l-.9-.3.1.8zm-3.4.2l-.9-.8-.2.9zm-8.5-.5l.3 1.2 1-.6zm-2.2-5.2h1.1l-.4-.8zm-3.9 7.5l.3-1h-.9zm8.9-2.6l.4.9.6-.7zm5.3 4.4l.9 1.1.7-1z"/><path d="M268.63 156.25l1.1-.3-.7-.8zm-1 9.5l-.1-1.2-.9.5zm-8.2-10.3l-1.6-.9-.1 1.7zm-.3 4.1l.1-1.8-1.5.7z"/><path d="M260.13 158.05l-1.6-.9-.1 1.6z"/><path d="M257.83 158.45l1.3 2.5 1.6-1.8z"/><path d="M256.13 157.15l.6 2.5 2.5-2zm4 2.3l2-1-1.5-1.2zm.2 3.1l2-.6-1.3-1.4zm2.6-1.5l.2-1.8-1.5.5zm-3.1.7v-1.7l-1.4.6zm1.7-7.3l.9.4-.1-.9z"/><path d="M260.63 159.85l-3.8-.3.5 3.5zm1.3 2.6l-.3 2 1.6-.5zm4.2-.7l.5.9.6-.7zm-2.9-4.3l.9-.2-.5-.7zm-2.5 6.7l.6-1.7-2 .7zm11.3-.3l.3 1.1.7-.7zm-2.4-4.5l.8-.1-.3-.7zm-3 7l.2-.9-.8.2zm-7.2.2l.5-1.6-1.4.2zm.5-1.8l.9.4-.1-.9z"/><path d="M263.93 179.85l-.8-2.7-1.4 2.4zm-2.5-15.5l-3.9-1 .5 3.5zm-3.2 2.8l.4 2 1.5-1zm1.8-1.4l.4 2.1 1.6-1.1zm7-.4l-.7-1-.6 1zm4.3 3.8l-1 .4.6.7zm.3-8.4l.2 1 .7-.4zm-6.1 7.8l-.5-2.3-1.6 1.2zm-2-2l-.8-2.1-1.3 1.5zm-2.3-10.1l-1.2-1.9-1.1 1.7zm7.3 12.4l-.4-2.1-1.6 1.2zm7.7 3.2v1.4l1-.7zm-1.9-5.3h1.1l-.4-.8zm-4.5 7.2l.4-1h-.9zm-6.2-4.1l-1.6-.9-.1 1.7zm-2.1 2.5l-.1-1.8-1.3.8z"/><path d="M264.13 172.75l-1.7-.6.1 1.6zm-.3 2.3l2.8.6-.5-2.4zm-5.2-6.3l.6 3.1 2.2-1.5zm5.7 5.3l1.8-1.2-1.6-.9zm-1-2.2l1.5-1.4-1.7-.8zm4.7 4.6l1.2-1.6-1.8-.4zm6.8-3.7l-.5-2.1-1.5 1.1zm-5.8-.1l-1.3-1.2-.6 1.4z"/><path d="M267.13 176.15l-.9-1.4-.8 1.3zm-1.7-6.9l.9.5-.1-.9zm-2.2 4l-3.8-.8.5 3.6zm5.6 1.8l1.2 1.6.8-1.5z"/><path d="M271.03 171.15l1 .3v-.9zm-5.1-1l.5-.7-.8-.3zm3.7 6.6l-.6-.6-.4.7zm-2.2-7.3l1-.4-.7-.7zm-4.4 2.7l-.1-.8-.9.3zm7.1 2.5h-.9l.2.7zm-.8 3.2l.9-.5-.7-.5zm-5.8-1.8h-3.5l.9 3.4z"/><path d="M268.03 179.35l2.1-.9-2.3-2.3zm3.1-3.8l-1.1-1.7-.9 1.5zm-2.1-2.1l-1.8.2 1 1.4zm-3.7 3.1l-1.7.2.8 1.3z"/><path d="M270.63 176.25l-1.8.5 1.1 1.2zm-2.7 0l-1.7.5.9 1.2zm-2.9 1.3l-.6 2.4 3.3-.6zm5.2-3.2l1.8-.6-1.1-1.3zm-2.5-3.6l.7-.8-1-.3zm-2.7 4.6l-.5-.9-.5.8zm7.6-1.4l-.9.4.6.6zm-1.9-10.8l1-.5-.8-.6z"/><path d="M266.53 166.15l-.2-1-.7.5zm7.3 2.1l-.8-.2.2.9zm1.5 7l-1.7.2.2 1.1zm-2.2-.1l-.1-1-.7.4z"/><path d="M270.13 174.95l.8 3.3 2.8-1.7zm3.4-2.6l1.1 3.8 2.6-1.9z"/><path d="M277.23 174.25l1.6-1.3-1.4-.7zm-2.2-1.7l1.9-.9-1.4-1.3zm-1.7.4h-1.2l.4 1zm5.6-1.2l-.3 1 .9-.2zm-6.7-5.3l.9.5.1-.9zm.3 3.3l-2 .7 1.4 1.5zm8.1-3.6l1.1.6.1-1.1zm-5.5-1.6l.7-.8-.8-.3zm3.3 7.7l-.6-.8-.5.7z"/><path d="M276.43 170.45l-.3 1.8 1.6-.5zm3.6-1.8l-1.5 1 1.4.9z"/><path d="M278.13 168.85l.3 1.7 1.3-.8z"/><path d="M279.23 170.75l2-2.2-2.5-.8z"/><path d="M278.43 173.25l2.5-2-2.5-1.3zm.9-5.3l-1.8-1.1-.2 1.9zm2.7-1.1l-1.4-1.6-.7 1.7zm-2.4-1.9l-1.7.6 1.1 1.1zm1.9 2.5l-1.5.8 1.1 1zm-6.3.6l.3-1-.9.1z"/><path d="M279.53 167.55l1.4 3.7 2.5-2.3zm1.4-1.9l1.7-.7-1.3-1.2zm-3.5-2.8l.5-1-1-.1zm-1.5 5l-.7-.6-.3.8zm7-3.1l-.7.6.7.4zm-3.1-7.2l.8-.7-.8-.4zm-3.1 4.2l-.4-.8-.5.7zm7.6-.4l-.8.2.4.7z"/><path d="M285.33 165.05l-1.5.7 1.1.9zm-1.6.8l-.2-1-.7.6zm-1.5.6l1.4 2.4 1.7-1.8zm4.6-4.3l-1.5 1.1 1.5.7z"/><path d="M284.93 162.35l.4 1.7 1.3-.9zm9.9-5.8l1.2-1.6-1.6-.4z"/><path d="M285.43 166.95l2.3-2.3-2.6-.9zm7.2-7.7l-2.1-.2.7 1.7zm-3.8.9l-1.5-1.4-.6 1.6zm-.5.8l-1.6.8 1.3 1z"/><path d="M286.23 161.05l1.6 3.6 2.4-2.4zm5.8-2.2l1.7-.9-1.4-1zm-9.2-.5l.5-1h-1zm-1.1 5.1l-.7-.6-.2.9zm6.8-3.4l-.7.5.8.5zm-1.3-7.3v-1.1l-1 .3zm.2 5.1l-.8-.3v.9zm5.6-5.2l-.6.7.8.3z"/><path d="M292.53 158.05l-1.5.8 1.2.9zm-2.1 1l-.3-.8-.6.5zm-1.6.6l1.4 2.4 1.7-1.9z"/></g><path d="M153.36 208.5l78.2-.3s7.05-22.07 16.2-59.48c.93-19.08-1.07-48.2-23.14-49.08-11.8-.7-25.3 7.3-40.46 36.77-8.9 17.3-28.32 59.1-32.32 69.52-.55 1.3.3 2.57 1.5 2.57z" fill="#fffdf3"/><path d="M227.1 208.25c3 4.58 9.17 3.2 9.95 2.42.73-.73-.4-2.54-.62-4.63-1-10.1 1.4-18.3 10.56-55.72.93-19.08 6.8-33.38-3.14-1.75-6.7 21.3-17 59.28-16.75 59.68z" fill="#0a545a"/><linearGradient id="C" gradientUnits="userSpaceOnUse" x1="184.232" y1="160.532" x2="232.135" y2="161.479"><stop offset="0" stop-color="#0a5f66"/><stop offset=".998" stop-color="#00394a"/></linearGradient><path d="M147.6 221.5l45.95-.2c11.43-.06 21.6-7.54 24.94-18.47 4.35-14.2 10.4-34.86 15.53-55.76.93-19.08 12.7-46.58-9.36-47.44-11.8-.7-25.3 7.3-40.46 36.77-8.9 17.3-34.08 72.1-38.08 82.53-.57 1.3.27 2.57 1.48 2.57z" fill="url(#C)"/><path d="M361.25 208.05c-1.9-1.1-4.07-4-7.42-4.3-9.2-.88-16.5-1.65-21.8-4.15-3-1.5-46.97-24.56-51.27-28.3-5.6-4.1-25.07-36.33-25.07-36.33l-26.4 12.72s25.5 37.47 34.5 42.7c7.45 4.85 17.2 8.2 31.4 12.3s26.5 6.7 37.5 9.5c1.64.4 3.3 1.23 5.56 1.56 1.9-3.77 5.82-6.36 10.34-6.36a11.6 11.6 0 0 1 11.6 11.6c0 .08-.01.17-.01.25s.01.17.01.25c0 1.1-.2 2.2-.5 3.3.1.2.2.4.4.5 1.8.85 2.5-2.54 2.97-6.13s.7-7.35-1.8-9.1z" fill="#ea9d7d"/><linearGradient id="D" gradientUnits="userSpaceOnUse" x1="313.639" y1="196.421" x2="292.398" y2="193.421"><stop offset="0" stop-color="#cc7a5e" stop-opacity="0"/><stop offset=".924" stop-color="#aa5f4b"/></linearGradient><path d="M323.4 195.44l1.58 15-33.9-8.85c.94-2.35 9.75-18.98 9.75-18.98-.42.05 17.5 9.5 22.57 12.82z" fill="url(#D)"/><path d="M360.2 223.74c-.25 0-.5-.05-.78-.14l.34-.94c.34.12.63.1.9-.04.46-.24 1.1-.98 1.65-3.14.6-2.22.6-6.1.6-7.67-.03-1.66-.65-2.16-1.88-3.17l-1.1-.92c-2.66-2.14-4.3-3.37-7.22-3.58-8.9-.65-17.82-2.65-17.9-2.67l-.1-.03c-.14-.07-14.45-6.58-20.6-10.12l-11.2-6.34-17.8-10.2c-2.56-1.73-5.73-3.9-9.47-8.36-3.58-4.08-11.63-17.3-11.97-17.87l.86-.52c.08.14 8.35 13.7 11.88 17.73 3.66 4.37 6.64 6.4 9.26 8.18 2 1.32 10.37 6 17.75 10.16l11.22 6.34c5.93 3.42 19.56 9.64 20.47 10.05.73.16 9.22 2 17.7 2.64 3.36.25 5.32 1.82 7.8 3.82.4.36.75.64 1.07.9 1.3 1.05 2.22 1.8 2.25 3.93.03 2 0 5.7-.62 7.94-.5 2.04-1.2 3.27-2.15 3.77-.3.17-.6.25-.93.25z" fill="#cc7a5e"/><g fill="#147a7c"><path d="M214.42 103.12l-.2 1.1-1.04-.8zm-4.72 19.7l.47-.6.38.7zm-5.87 5.33l.37-.6.38.7zm9.17-6.45l-.47-.6.76-.2zm-2.46-15.27l.76.4-.76.7zM206 119.2l.85.3-.75.8zm-2.27 1.6l.85.3-.75.7zm12.1-18.8l1.42-.6-.1 1.8z"/><path d="M219.63 100.5l1.6-.3-.47 1.8zm-1.6.6l1.04.5-1.04.9zm3.12 1.4l.76.4-.76.6zm.76-2l.75.3-.75.7zm-16 10.66l.47-.5.28.7zm4.17-2.6l-.76-1.1 1.42-.4zm-1.6 2.1l-.47-.6.76-.2zm-.76 3.92l-.1.9-.85-.5zm-2.83-.8l.56.6-.85.3zm3.97.7l.66.1-.57.6zm9.18-7.64l.66.3-.57.6zm1.98-2.52l.67.3-.57.6zm2.46-1.6l.67.2-.57.5zm.86-.42l.66.3-.57.5zm-16.75 21.42l.66.3-.57.6zm-2 1.2l.76.2-.57.7zm3.02-3.63v.8l-.76-.4zm-.94-3.8v.8l-.75-.4zm-2.46 2.5l.38-.6.48.7zm17.6-13.46l-.28.4-.38-.5zm-3.3-1.3l.38.3-.47.2zm-1.8 6.63l.38-.3.1.6zm.94-3.2l.28.5-.57.2zm-2.64 6.73l.47-.2-.1.5zm-5.5 11.96l.48-.2v.6zm5.96-7.44l-.1-.5.57.1zm-.38 4.73l-.1-.5.47.1zm6.62-2.2l-.1-.4.48.1zm-11.54-5.92l.3.9-.95-.1zm-2.46-8.36l.67 1.7-1.9-.1zm9.18-4.72l.2.9-.95-.2zm-13.05 12.88h.75l-.28.8zm4.73 5.7l.1-.7.66.5zm-1.7-7.93l-.28 1.2-1.04-.8zm-.2 1.8l-.2.9-.75-.7zm-1.42-.7l-.28.8-.66-.8zm5.96-2.4l.67.4-.76.5zm-7.85 6.33l.3-1.3 1.04.9zm18.92-17.4l.67.3-.67.6zm-6.52 1.22l.37-.5.38.6z"/><path d="M224.73 101l.38-.5.3.6zm-1.03.5l-.37-.5.66-.1zm-4.45 1.52l-.1.6-.66-.4zm1.42-1.62l.28 1.1-1.23-.2zm-2.17 1.92l-.1.7-.67-.4zm-2.94 1.4l-.1.7-.66-.4zm-.56-2l1.13.3-.85 1.1zm4.34-1.62l.57.1-.47.5zm-3.7 5.33l.38-.5.28.6zm4.73-3.2l-.2.7-.56-.5zm5.02-.3l.47.3-.57.3zm-4.45-1.22l.38-.5.28.7zm3.12 2.42l-.2.7-.56-.5zm-.94 3.12l.47.3-.57.4zm3.12-6.44l.57.3-.57.4zm-1.15 5.43l.48-.5.2.6zm.58-3.93l-.47.2v-.6zm4.07-.4l-.57.1.1-.6zm-2.18-.6l-.47.2.1-.6zm3.03 1.1l.2.6-.66-.1zm2.08 1.32l.1.6-.67-.1zm-3.78-1.32l-.67.4-.1-.9zm-2.84 1.32l.2.6-.66-.1zm2.17.8h.57l-.28.6zm1.9 1h.56l-.28.6zm4.73-.4l.2.6-.57-.2zm-3.88 2.6h.57l-.3.6zm3.12 1.9h.57l-.3.6zm-21.1-6.23l.3 2.2-2.27-.8zm-1.8 2h.57l-.28.6zm2.46-.8h.67l-.3.7zm-1.23 4.42l.2-.6.48.4zm-4.73 10.25l.1-.6.57.4zm5.2-12.16l.2-.6.47.4zm-4.25.1l.2.7-.76-.1zm3.6 3l.18.7-.75-.1zm-2.1-4.72l.38 1.4-1.6-.2zm-.76 6.84l.2.7-.76-.1zm2.28 5.93l.1.7-.75-.1zm5.12 2.9l.38-.6.37.7zm3.2-1.1l-.37-.6.75-.2zm2.56-1.8l-.1-.5.48.1zm-3.88-1.6l.2.8-.76-.2zm3.78-1.42l.2.7-.75-.1zm4.44-.3l.2.7-.76-.1zm.3-6.94l.2.7-.75-.1zm-21.2 3.92h.57l-.28.6zm.76-.8l.1-.6.57.4zm-.38 2.6l.1-.6.57.4zm-.95 9.25v.9l-.85-.4zm1.23-.2l.67.2-.57.6zm-2.16 3.1v.6l-.76-.3zm3.4-1l.3.9-.95-.1zm-3.7-2.3l-.28.9-.66-.7zm.3 1.7l-.2.9-.76-.7zm1.03 3.3l.1-.6.57.4zm.37-5.64l.1-.6.47.4zm7.58-10.44l.1.7-.76-.2zm-3.4-.9h.57l-.3.6zm2.27 4.72l.2-.6.47.5zm-7.57-2.2l.47-1 .67 1zm4.93-3.92l.57-.4.2.8zm-1.62 0l.57-.4.2.8zm6.82-.9l-.28-.7.85.1z"/><path d="M214.23 106.03l1.23.4-1.04 1.1zm.57-1l.38.3-.47.2zm-.85 3.52l.28.4-.57.2zm-2-2.32l.38-.5.28.6zm-.76 1.9l-.28-.7.85.1zm1.42 1.8l-.28-.8.76.1z"/><path d="M214.52 112.77l-.2-.7h.75zm-2.46-5.23v1.3l-1.23-.6zm-3.88 4.83l-.48.7-.56-.8zm2.65 2.2l-.48.7-.56-.8zm7-10.16l-.48.8-.47-.9zm1.8 3.52l-.48.8-.47-.8zm-5.97-1.3v.8l-.75-.4zm-4.73 3.3l.57.1-.47.6zm2 0l.28-.5.38.5zm-1.04 2.42l.28-.6.48.6zm4.35-2.02l.57.1-.47.5zm10.6 2.02l.38-.1-.1.5zm-3.13 2.2h.47l-.28.4zm-2.07-4.33l.37.7h-.85zm-2.18 5.03l-.2.7-.66-.5zm4.73-4.93l-.2.7-.66-.5zm-2.84 2.92l.47-.5.2.7zm4.06-3.62l.38.4-.66.3zm-14.65 2l.28-.6.38.6zm-1.23 7.04l.56.4-.56.5zm.94-2.62l.2.7-.76-.1zm-2.84 2.22l.3.7-.85-.1zm.58-1.7h.57l-.2.7zm.84-.72l.2-.6.47.5zm-.84 2.42l.28-.5.38.5zm-1.24-.6l.28-.6.38.6zm10.04-8.15l.1-.6.57.4zm-45.1 84.1l1-.7-.9-.6zm-1.9 3.93l-.5-1.67-1.1 1.08zm-8.9 4.22l-.6-1.57-1.1 1.08zm2.9 1.2l-.5-1.47-1.2.88zm5.8-27.94l-1.4-1.57-.7 1.67zm-.9 3.04l-1.3-1.58-.8 1.58zm-6.9 17.42l-1.4-1.67-.8 1.67z"/><path d="M159.5 194.24l-1.1-1.28-.6 1.38zM173 166.7l-.6-1.97-1.4 1.18zm1.3 9.15l-.7-1.97-1.3 1.18zm-6.6 8.15l-.8-1.97-1.3 1.28zm-2.3 0l-2-.4.3 1.77zm-1.2 10.34l-2-.6.2 1.77zm4.2-13.97l-2-.4.3 1.77zm-1.8 7.67l-.7-1.96-1.3 1.27zm-8.7 10.72l-.5-1.67-1.1 1.08zm4-10.23l1.2-1.77-1.8-.3zm14-18.98l1.3-1.47-1.8-.5zm-2.7-7.38l1.3-1.57-1.8-.5zm6.9-3.24l1.2-1.57-1.8-.4zm-6.4 20.17l1.1-1.67-1.8-.4zm-1.6 3.53l1.1-1.67-1.8-.4zm4.1-24.68l.9-1.68-1.8-.1z"/><path d="M181.5 146.24l1-1.38-1.4-.2zm-3.2 2.26l1.8-.3-.8-1.77zm6.2 4.04l1.1-1.28-1.4-.5zm-4.3-4.44l1.1-1.28-1.4-.5zm-20.4 44.07l1-1.37-1.5-.2zm1.2 2.36l1-1.47-1.5-.2zm1.6-5.5l-.6-1.68-1.1 1.1zm4.4 1.77l-.7-1.87-1.3 1.18zm7.3 7.27l-1 .1.4.8zm-11-8.85l1.4.3-.2-1.18zm-1 1.88l.6-.98h-1.1zm.4 5.6l-.8-.8-.4 1.08zm9.3-20.07l1.2-.7-1.1-.78zm3.3-11.7l1.2-.7-1.1-.8zM170 178.5l1.2-.7-1-.78zm-4.9 4.13l-.5-1.08-.7.8zm1.2-2.65l-.5-1-.7.6zm8.3 4.02l-1.2.1.5.88zm-4.3-9.24l-1.2.1.5.9zm.5-4.03l1.1.9.3-1.18zm.6-2.85l1.1.8.3-1.18zm6-17.5l.5 1.67.4-1.27zm-9.8 20.56l2.2-.4-1.2-1.57zm1.5-3.25l2.1-.3-1.2-1.58z"/><path d="M170.8 175.65l.8-2.07-2 .4zm2.3-4.92l.8-2.06-2 .3zm-6.2 16.43l.7-2.17-1.9.4zm-6 9.44l.8-2.07-1.9.2zm23.1-35.02l-.7-.98-.5.9zm1.8-13.58l-.3 1.18 1-.2zm-8.7 13.78l1 .8.2-1.08zm-.7-9.24l-.5 1.08h1zm-3 11l-.3 1.08h1zm4-13.28l1.3-.2-.6-1zm-6.3 38.07l-.9.2.5.6zm3.8-1.67v.78l.6-.3zm-5.7-2.87l.8.2-.1-.7zm-8.7 13.2l-.9.1.5.7zm3.9-1.58l-.1.7.6-.2zm-5.6-3.05l.7.3-.1-.68z"/><path d="M189.3 177.8l.7-.1-.4-.6zm-7.7.9v-.8l-.6.2zm-4.6-6.9v1.38l1.2-.5zm-1.6-6.38l1.2.3-.3-1.1zm-5.8 7.48l.5-1.1-1-.1zm16.5-28.33l-.6 1.08 1.1.1zm-2.3-2.17l-.6.98 1 .1zm-.4-2.95l.7.8.3-.88zm-5.3 9.95l.9-.4-.6-.6zm2.2 5.4l.5-.8-.8-.1zm1.1 8.56l.1 1.08.9-.4zm-8.5 8.44l.2 1.97 1.6-.8z"/><path d="M184 158.93v1.18l.9-.4zm-2.9 3.64l.1 1.18.9-.5zm5.1-13.97l2 .4-.4-1.78zm-3.3-9.44l1.9-.5-.8-1.77zm2.4 3.34l1.9.4-.3-1.77zm-4.7 6.3l1.9.6-.2-1.77zm-17.9 36.78v-1.47l-1.1.5zm1.3 6.4l-1.2-.3.2.98zm6.2-7.08l-.6 1 1 .1zm-2.7 2.16l.6 1.28.8-.9zm-3.8-5.5l1.1-.1-.6-.98zm-2.5 9.15l.1-1-1 .3z"/><path d="M161.2 191.98l.1-1.38-1.1.4zm.9 6.6l-1.1-.4.1 1.08zm6.5-7.27l-.6.98 1 .1zm-1.2-11.72l2.3-1.96-2.5-1.1zm-8.3 20.17l1.5-1.28-1.5-.8zm-3.5-2.75l3-.7-1.6-2.36zm3.2-7l3-.7-1.5-2.56zm-1.5 3.35l3-.7-1.7-2.26z"/><path d="M160.4 186.57l3-.8-1.7-2.07zm1.4-2.95l3-.8-1.7-2.16zm1.4-3.15l3-.8-1.7-2.06zm3.8-2.27l1.4-2.76-2.7-.1zm3.2-7.57l1.4-2.65-2.7.2zm1.7-3.23l1.4-3.44-2.7 2.16zm-5.5 6.28l3-.78-1.7-2.17zm-12.3 26.75l3-.78-1.7-2.17z"/><path d="M156.3 204.86l-.4-3.05-2.3 1.48zm3.9-.8l-.4-2.95-2.3 1.48zm17.5-53.3l2.8 1.47.1-2.85zm-2.5 11.5l2.3-2.06-2.5-1.08zm-5.5 27.35l1.2.2-.2-1.08zm-5.7.18l.5-.98h-.9zm5.4 6.3l-.8-.6-.2.88zm-3.8-20.94l-1 2.26 2-.1zm2.4-1.96l-.7 2.16 2-.2zm6.2-11.42l-1.3-1.47-.7 1.67zm-2 3.84l-1.3-1.58-.8 1.77zm5.7-9.84l1.1.9.3-1.18zm1-2.65l1 .98.4-1.28zm-4 2.75l2.1-.1-.9-1.87zm1.3-2.95l2-.5-1-1.67zm4.4 3.15l.9-1.97-2 .2z"/><path d="M182.5 157.06l-.1 1.28 1.2-.4zm-1.1-6.5l1.2.3-.2-.98zm-2.4 9.53l.6-.98-1-.1zm-6.1 5.7l1.4-2.85h-2.7zm4.5-9.92l1.7-2.75-2.4-.2zm-4.6 4.22l3-1.18-1.6-1.87zm8-16.7l3.1-.8-1.6-2.26zm-1.4 2.84l2.4-.7-1.1-1.96z"/><path d="M172.1 161.5l-1.1 2.46 2-.3zm1.7-2.28l-.7 2.17 1.9-.2zm-4.2 35.4l1.2.2-.2-1.08zm-5.7.2l.5-.98h-.9zm5.4 6.4l-.8-.7-.2 1zm-1.5-9.15l-.2-1.37-1.1.7zm2.2 6.2l-1.2-.1.3 1zm4.9-8.47l-.4 1.08 1-.1zm-1.6-8.45l.3-.98-.9.2zm-.1 4.73l-.7-.4v.8zm5.3-4.33l-.5.6.7.2zm2.6-14.65l-.4.8h.8zm1.2-4.14l.5.5.2-.6zm-5.8 2.84l.6-.5-.6-.3zm11.2-20.25l.5-.7-.7-.1zm-.6 7.58l-.5-.5-.3.6z"/><path d="M180.7 168.76l1-.68-1-.6zm-3.5 4.54l-.5-.9-.5.7zm8.3-.3l-1 .3.5.7zm-4.1-1.2l-1.2-.68-.1 1.27zm6.1 2.18l-.8.78.9.4zm-3.2-9.15l.6 1.08.6-.88zm1.6-3.63l-.5-.8-.5.8zm3.2 3.24l-.8.3.5.6zm.8-6.8v.9l.7-.4zm-1-22.52l-.3-2.07-1.5.9zm2.3 3.34l1.5-1.38-1.7-.68zm-1.3-7.77l1.5-1.28-1.7-.78zm7.6-1.77l1.5-1.38-1.7-.78zm-5.3-2.36l1.2-1.57-1.8-.4zm7.2-11.1l1.1-1.38-1.5-.4zm-3.7 1.96l1.7-.1-.7-1.37zm5.1 4.92l1.2-1.28-1.4-.5zm-2.9-5.1l1.2-1.28-1.4-.5zm-6.5 16.52l1.3-.4-.9-1zm-5.5 4.92l1 1.08.5-1.08zm1.2-2.77l.9 1.1.5-1.18zm7.9-16.6l.4 1.67.5-1.18zm-10.3 16.22l2.3-.1-1.1-2.16zm3.6 3.64l1.1-1.97h-2z"/><path d="M197.5 131.78l-.4-1.18-.8.7zm-3.7-.68l.9.9.3-.98zm.1-9.64l-.6 1.08 1.1.1zm-4 10.62l-.6 1.08 1.1.1zm5.1-12.78l1.4-.2-.6-1zm-3.2 21.53l-.2 1.48 1.2-.3zm-.3-6.5l1.1.5-.1-1.08zm-7.1 6.3l.7-1-1-.3z"/><path d="M199.8 121.26l-.7 1.08 1 .1zm2.3-8.66l-.6.9 1 .2zm-.6 2.07l.7.8.3-.9zm-5.7 3.73l.9-.4-.6-.6zm1.9 5.6l.6-.78-.9-.2zm.4 9.46l-.1 1.18.9-.3zm3.2-3.94l-.1 1.18 1-.3zm-5.5 4.53l-.1 1.18 1-.3zm7-24.7l1.6.8-.2-2.17zm-3 7.18l2 .4-.3-1.77zm-1.5 1.46l1.9.7-.1-1.87zm-12.9 20.57l1.9-2.56-2.8-.2zm2.4-3.54l1.9-2.56-2.7-.6zm7.5-15.25l2.7 1.58.3-2.76zm-3.5 11.42l2.7-1.67-2.3-1.47zm-1.4-1.38l-1.1-1.68-1 1.48z"/><path d="M188 133.46l-1.2-1.97-.9 1.67zm7.3-8.76l.9 1 .5-1.2zm1.1-2.46l.9 1 .5-1.18zm-5.3 1.86h2.2l-.9-2.06zm1.7-2.64l2.2-.1-.9-1.77zm5.1 3.74l1-1.87-2 .1zm1.8 1.08l-.1 1.37 1.2-.4zm-.7-6.5l1.1.4v-1.08z"/><path d="M191 125.88l.7-.98-1-.1zm-2.1 8.36l1.9-2.56-2.6-.5zm5.9-9.54l1.8-2.46-2.4-.4zm-6.2 3.54l3.2-.6-1.5-2.26z"/><path d="M198.8 113.5l2.4.1-.3-2.36zm-1.8 2.15l2.1-.1-.6-1.77zm-8.7 13.08l-1.4 2.46 2.1.1zm2.7-.78l-1.1 1.96 2 .1zm5.7 8.95l-.5.7.8.1zm1.9-3.74l.5.6.3-.6zm-6.2 1.67l.7-.3-.5-.4zm11.5-23.2l.3-.7-.7-.1z"/><path d="M207.4 105.42l1.1.3-.1-.98zm-3 2.36l1.5.3.1-1.57zm-3.5 3.35l2.4 1.18-.6-2.95zm-1.4 12.97l-.2 1.28 1.2-.3zm6.8-17.8l1.1.5-.1-1.08zm-7 8.37l.7-.98-1-.2zm4.3-1.27l-.5-.5-.3.6zm-1 11.8l-.5-.78-.5.68zm-1.5-7.2v.8l.7-.3zm-37.9 85.98l-.4.88.8-.1zm1.2-3.94l.5.5.3-.7zm-5.8 2.66l.6-.4-.6-.3zm9.8-21.05l.3-.7h-.7zm-.1 6.98l-.6-.5-.2.7zm15.3-15.23l.9-.8-.9-.5zm-3.4 4.7l-.5-1-.5.8zm8.3-.48l-1 .3.5.7zm-4.1-1.1l-1.3-.68-.1 1.27zm6.1 1.97l-.8.8 1 .3zm-3.4-9.15l.6 1.1.6-1zm-18.9 27.45l-.6-.7-.4.78zm3.6 2.85l-.8.4.6.4zm-.1-6.9l.1.8.6-.4zm8.6-10.42l.3-.9-.8.1zm-.6 4.13l-.7-.4-.1.68zm5.4-3.54l-.6.6.6.2zm-7.6 9.83l-.3.7.8-.1zm-6.1 5.22l.7.3.1-.6zm11.1-16.13l-.8.98 1 .3zm2.6-5.02l.6.88.5-.88zm-8.2 1.87l1-.5-.7-.6zm4.3.4l1.3.5-.1-1.27z"/><path d="M174.8 178.1l.7-.9-1-.2zm4.9 8.27l-.8-.9-.5 1.1zm-3.4 3.83l.7.5.3-.7zm-3.9-2.35l.7-.5-.7-.4zm1 6.68l-.3-.78-.5.5zm10.9-46.63l-.2-1.37-1 .68zm2.3 6.2l-1.2-.1.3.98zm4.9-8.45l-.4 1.08 1-.1zm2.6 2.95l-.3.7.7-.1zm-1.2-2.56l.7.5.3-.7zm-3.9-2.36l.6-.4-.6-.4zm.9 6.7l-.2-.78-.5.5zm-8.6 10.93l-.2-1.48-1.1.8zm2.2 6.2l-1.2-.1.3.98zm4.9-8.57l-.4 1.18 1-.1zm2.6 3.05l-.2.7.7-.1zm-1.2-2.76l.7.7.3-.88zm-3.9-2.16l.7-.5-.6-.4zm1 6.7l-.3-.8-.5.5zm-13.7 32.95l1-.3-.6-.7z"/></g><g fill="#da7f57"><path d="M341.78 209.54l1.1-.7-1-.67zm-11.3.01l-1.06-.58-.16 1.4zm1.12 2.25l-.3-1.82-2.46 1.22z"/><path d="M328.92 211.2l-1.02-1.72-.92 1.26zm6.46.86l.9.01-.4-.9zm-3.93-2.26h.9l-.38-.9zm-3.92-1h.9l-.4-.9zm10.9 3.84l-.7.5.66.4zm.3-.94l-.6.6.77.45zm-1.06-2.22l-.6.6.88.4zm-2.78-.08l-.6.6.88.4zm-2.17 1.17l-.6.6.88.4zm-2.53-2.4l-.6.6.9.4zm9.55 1.93l-.7.4.6.6zm.15 1.3l-.9-.1.2.9zm1.57-1.6l-1.04-.37-.26 1.46zm-3.64 3.8l-.47-1.93-2.1 1.24zm-3.05-.84l-.01-1.48-2.5.75zm-21.25-8.34l1.3-.13-.73-1.27zm-14.2-.8l1.38.37-.34-1.78zm-2.75-1.52l1.46.36-.33-1.77zm11.62 3l1.47-.34-.94-1.52zm-5.04-6.86l1.46-.35-1.02-1.5zm6.44 2.86l.6-1.4h-1.64zm3.6 5.7l.6-1.5h-1.73zm2.6-.5l.7-1.5-1.73-.1zm2.45 1.15l.7-1.5-1.64-.1z"/><path d="M302.98 198.24l.01-1.06-1.12.43zm9.2 4.84l.1-1.15-1.13.52zm-11.62-4.23l.1-1.16-1.13.53zm-4.7 3.6l.86-.17-.5-.8zm2.15-4.82l.34.9.6-.8zm3.16 2.26l.34.8.6-.7zm4.9 1.55l-.95-.45v1.33zm1.98 1.25l-.95-.54v1.33z"/><path d="M305.1 205.34l-.25-1.77-1.47 1.14zm2.93.73l-.43-1.7-1.38 1.32zm-5.67-4.57l1.2-1.23-1.8-.45zm4.48.84l1.2-1.15-1.72-.63zm3.96 1.08l-.6.7.95.27zm-3.4-7.1l-.95.52.95.8zm4.45 5.52l-.6-.72-.35.98zm-8.55 1.26l.52-.7-.95-.18zm2.36-4.67l-1.4.6 1.2 1.16zm-6.23 2.7l.53-2.2-2.6.52z"/><path d="M298.56 202.9l1.4-1.94-2.67-.55zm7.14 2.53l1.3-1.94-2.6-.46zm3.88.82l1.4-1.94-2.6-.46zm-6.2-1.45l-.6-2.3-2.08 1.67zm22.7 2.48l1.46-.22-.9-1.57zm-2.1.25l1.06 1.04.74-1.6zm-1.78 1.1l.66-1.43-1.73-.05z"/><path d="M320.4 208.12l1.3-.16-.76-1.34zm2-2.37l-.68-.9-.53 1.14zm-2.94.95l.6-.8-1.03-.2zm6.7 2.3l.86-.2-.54-.8z"/><path d="M320.95 209.12l-.5-2.22-2.1 1.66zm3.18.88l-.66-2.3-2.04 1.65zm2.24.48l-.2-2.1-1.95 1.73zm-9.35-5.08l.97-.2-.7-.8zm-2.7-5.56l.34.73.53-.7zm5.1 1.63l-.62.48.73.34zm4.77 2.68l-.74-.24.13.78zm-25.55-2.2l-1.04 1.4 1.8.45zm2.6-.6l-1.13 1.32 1.8.54zm10.5 4.85l1.47.36-.34-1.77zm-3.18-.73l1.46.45-.25-1.86zm2.32.37l1.3-1.86-2.6-.54z"/><path d="M314.83 207.8l-.42-1.86-1.82 1.3zm2.93.75l-.42-1.86-1.82 1.3zm-6.7-3.35l-1.3 1.23 2.15.54zm-11.43-7.7l1.03-.35-.85-.9zm4.68 2.83l-.6.7.95.36z"/></g><linearGradient id="E" gradientUnits="userSpaceOnUse" x1="289.997" y1="192.477" x2="284.97" y2="205.284"><stop offset="0" stop-color="#cc7a5e" stop-opacity="0"/><stop offset=".924" stop-color="#aa5f4b"/></linearGradient><path d="M280.06 173.24c-4.7-4.5-24.2-18.7-24.2-18.7l-16.1 8.7 18.7 22.6c6.6 8.1 21.55 12.08 25.75 13.28 5.7 2 21.1 6.54 34.6 9.74 6.14 1.27 13.8 3.38 19.6 4.98-.06-.02 1.53-3.5 5.43-5.33 3.1-1.3 3.8-5.07 1-5.47-22.3-3.3-45.5-15.8-45.5-15.8-6.7-2.7-16.9-11.7-19.3-14z" fill="url(#E)"/><g fill="#ffbca4"><path d="M307.95 190.43l1.37-.36-.7-.92zm-2 1.75l1 .9.37-1.15zm5.26-1.42l1 .78.37-1.15zm.4 4.28l1 .9.36-1.25zm2.4-2.7l1 .9.36-1.25zm6.36 3.5l.9.7.3-.94zm-1.36-2.16l.24 1.18.74-.6zm-2.83 4.16l.88.7.3-.94z"/><path d="M319.04 194.87l.9.7.3-.95zm-9.92-3.07l.4.76.53-.67zm-6.44-2.55l.1-.82-.67.28zm2.12.05l-.62.78.83.2zm2.34.22l-.6.78.7.1zm10.6 3.58l-1.07.33.83.2zm-12.63-6.36l.27 1.38 1.02-.73zm2.14 1.06l.16 1.4 1.13-.74zm-2.46 3.1l1.28.56-.16-1.4zm13.9 7.64l-.63-.23-.02.7zm-7.6-5.44l-.53.66.62.13zm5.15-.72l-.74-.3.08.7zm-6.13-1.7l-.75-.3-.01.7zm7.73 2.42l.1.9.65-.48zm-13.36-.55l-1 .02.3.77zm4.23-.9l-.22.73.7-.08z"/><path d="M304 187.67l.66.43.12-.72zm16.45 11.47l-.66-.43-.1.72zm1.73-1.5l-.65-.43-.02.7zm2-.23l-.55.46.53.24zm-5.8-3.86l.27.57.35-.44zm-3.54 1.52l.54.34.03-.6zm-5.1 1.2l-.7.08.26.58zm-5.67-5.46l-1.3.05.52.94z"/><path d="M311.22 197.7l-.7-.02.17.6zm-1.1-1.58l-.8.1.27.57zm8.17 2.68l-.36 1.25 1.2-.14zm7.9-1.34l.15 1.3 1.03-.72zm-1.18-.56l.15 1.3 1.02-.72zm-2.92 1.64l-.35 1.35 1.18-.23zm1.3-.94l-.46 1.26 1.2-.14zm-4.82-2.37l-.36 1.25 1.2-.14zm10.82 3.87l-.63-.23.07.6zm-24.37-10.44l1.72 1 .2-1.74zm2.97 1.26l1.83 1 .1-1.73zm-4.7-4.08l.43 1.97 1.38-1.07zm14.15 7.5l-.9 1.8 1.8-.01zm-6.4-1.37l1.3 1.56.82-1.6zm15.4 6.76l1.3 1.56.82-1.6zm3.28 1.33l.75 1.22.76-1.2z"/><path d="M328.13 200.25l.94 1.2.66-1.28zm-16.75-8.9l1.12-.74-1.07-.57zm-2.4-.84l1-.92-.97-.5zm5.18 3.03l-.62.68.83.2zm1.8.6l-.62.78.83.2zm-1.84-2.8l.26 1.38 1.12-.73zm2.12.96l.17 1.4 1.02-.72zm-2.27 3l1.38.54-.15-1.3z"/><path d="M313.4 197.45h-.9l.3.77zm4.23-.9l-.2.83.7-.18zm-4.8-3.97l.65.33.03-.6zm-4.25-1.92l1.82.9.1-1.73zm5.8 2.14l1.83 1 .12-1.53zm-1.97-2.28l.43 1.96 1.5-1.08zm9.3 4.65l.45 2.06 1.48-1.08z"/><path d="M320.3 194.42l.4 1.67 1.1-.83zm3.33 1.83l.4 1.57 1.1-.84zm-12-6.15l-1.5-.83.16 1.4zm1.26 1.26l-1.37-.54.05 1.3zm-9.3 2.4l-.12.72.68-.18zm19.7 9.88l-.7.08.36.46zm2.8-.94l-.04.5.48-.16zm-3.8-2.27l.53.24-.06-.5zm9.2 1.04l.98.6.08-1zm2.52.1l-.74-.32.08.7zm-19.42-.04l-.7.08.35.36zm2.9-.94l-.14.52.5-.06zm-3.8-2.38l.54.24-.06-.5z"/></g><g fill="#0a4049"><path d="M209.06 162.1l-1.5-.84 1.28-.92zm1.1-5.17l-1.1-1.37 1.5-.4zm-4.68 3.4l-1.95.35.42-1.78zm1.96-2.92l1.16 1.64-1.66.35z"/><path d="M207.65 155.46l-2.04.2.55-1.77zm9.75 20.08l-1.93.3.4-1.66zm-7.42-22.04l-1.95.1.55-1.67zm2.05 2.74l-1.68 1-.2-1.77zm-1.87 1.28l-1.67 1-.2-1.77zm-.56-2.36l-1.86.6.18-1.87zm2.2 5.48l-1.94.44.42-1.78z"/><path d="M212.38 161.1l-1.75.64.05-1.77zm-8.26-7.4l-.84-1.58h1.5zm-1.22-3.06l-.84-1.58 1.5-.1zm1.4-7.44l-1.13-1.07 1.24-.5zm1.6-.28l-1.13-1.07 1.25-.5zm4.57 19.62l-1.5-.74 1.1-1.02zm-6.17-11.12l-.46-1.08 1.02-.1zm1.2 5.32l.75-.6.28.88zm-7.06-3.74l.75.6-.65.5zm4.1 14.47l-.97.5-.01-1zm5.2-1.17l-.65-.82.83-.2zm-3.32 7.4l.47-.84.46.74zm-2.3-20.5l.1 1.2-.9-.36zm.6-5.5l-.86.33.06-.88zm5.54 5.85l-.6-.84.85-.13zm-.25-2.62l-.75-1.57 1.5-.1z"/><path d="M208.14 150.38l-2-1.83 2.04-1.03zm-1.8-3.58l-.9-1.55 1.6-.18zm1.58 6.8l-2.6.3.74-2.26zm-5.77 4.32l-1.02.5v-1.08zm4.58 4.24l.58.77-.84.12zm-6.34-5.82l-.56-.88.84-.1zm6.7 29.8l-.56-.8.84-.2zm-2.14-31.76l-.84-.7.84-.4z"/><path d="M206.26 152.2l2.64-2.8 1.4 3.15z"/><path d="M207.93 155.56l2.4-3.13 1.47 3.25zm-2.43-7.26l-1.9.45.3-1.75zm1.95.06l-1.8.45.23-1.75zm-3.15-1.62l2.8-2.55 1.26 3.34z"/><path d="M203.46 146.88l1.3-1.38.63 1.62zm.01-7.78l1.57-1.07.6 1.8zm.16-2.17l.9-.98.53 1.83zm-.23 1.87l-.27-1.4 1.2.28zm1.06 2.14l-.37-1.3 1.2.18zm-.83 1.12l-1.3-.2.65-1.13zm.07-6.1l-.37-1.4.87.4zm.55 7.83l2.18-1.86.75 2.43zm-.01-2.48l1.4-1.27.54 1.52zm5.66 17.9l2.28-3.06 1.67 3.1z"/><path d="M211.4 162.22l2.42-3.07 1.67 3.1z"/><path d="M213.2 165.52l2.07-3.33 1.95 2.9zm-8.9-10.16v1.77l-1.3-.7zm5.15 7.3l-1.84.74.04-1.77zm14.78 15.73l-1.64.96-.3-1.85z"/><path d="M218.4 178.86l-1.63.96-.2-1.76zm-8.6-16.6l1.16 1.64-1.66.34zm7.18 2.75l1.22 1.75-1.82.5zm-2.38.55l1.3 1.64-1.73.48zm-1.85-2.47l1.28 1.44-1.63.48zm-1.98 5.62l-.28-1.15 1.06.13zm.23 5.54l.87-.44.05.9zm-6.28-5.08l.68.7-.8.32z"/><path d="M210.43 182.1l-1.12.07.32-.94zm5.4.74l-.34-.95.86.07zm-5.62 5.46l.87-.44.13.78zm3.1-19.13l-1.48-1.62 1.8-.6zm1.12 3.55l-1.55-1.45 1.68-.66zm-5.22-7.06l-1.3-1.54 1.62-.57zm11.64 16.97l-1.62-1.33 1.67-.77zm-22.17-19.36l.73-.5.2.78zm8-.03l.04 1.18-.94-.37zm.5-5.42l-.92.32.07-1zm5.57 5.84l-.58-.77.83-.12zm-1.38 13.54l.9.95-1 .26zm-2.82-4.74l-.52.88-.42-.83zm7.84 1.34l-.9-.36.56-.6zm-3.12-11.43l-2.4.85.03-2.26zm-.06-2.17l-1.85.45.32-1.78zm-.53 4.8l-.67 1.55-.87-1.1zm-11-3.78l-.44.9-.48-.78zm-.78 5.63l-.52 1.25-.76-.9zm3.5-4.92l-1.05-.2.47-.84zm2.36 8.94l-.13-1.17.9.4zm8.02-1.97l.1-1.7 1.3.75zm3.7 2.68l-1.4-1.07 1.3-.7z"/><path d="M216.5 171.6l.2-1.73 1.27.9z"/><path d="M218.3 169.82l1.26 2.6-2.36-.03zm-.1-3.25l1.6 2.7-2.58.28z"/><path d="M217.57 172.42l-1.73.97-.1-1.78zm4.25 3.88l-1.48 1.33-.57-1.8zm-3.17 1.73l-1.53-.76 1.07-.96zm.8-4.5l-1.3-1.1 1.3-.7z"/><path d="M215.06 174.4l-.13.92-.73-.38zm3.12-1.62l1.84-3.28 1.94 2.78zm1.3 5.4l1.56.95-1.25 1zm-2.76 2.23l.43.92-.93.05zm-1.52-4.84l-.65.6-.33-.84zm6.6 2.94l-.73-.48.67-.5zm-3.02 4.76l.44 1.02-.93.05zm-1.6-4.83l-.66.6-.22-.77zm6.66 2.83l-.74-.48.7-.4zm1.8-2.94l-1.27-.5.74-.9zm-2.92-1.76l-1.4-.57.9-.94zm-3.52-2.3l-.24.83-.66-.6zm1.28.74l1.84-2.68 1.9 2.5z"/><path d="M222.96 177.37l1.18-2.8 1.8 2.1zm-3.1 7.53l-1.42-.75 1.2-.92zm2.85 1.3l-1.4-.8 1.2-.88zm-18.83-10.5l-1.04.56.01-1.1zm5.2-1.04l-.6-.8.8-.23zm-3.47 7.14l.53-.78.5.8zm2.48 2.77l-.46-.88.83-.1zm2.4.18l-1-.55.78-.56zm4.08 3.58l.23-.96.6.52zm-7.73 1.62l.9-.01-.34.7zm15.6-7.15l-1.24-1.58 1.64-.43zm-11.22 1.68l.82.97-1 .26zm-2.67-4.95l-.54.78-.4-.73zm7.8 1.65l-.8-.37.57-.58zm-13.02-38.46l-.94.03.34-.76zm-2.84.48l-.13-.7.65.05zm2.27 3.43l.68-.45.04.8zm1.4-12.83l-1.1-.18.53-.95zm-.8-1.72l-.02-1 .72.35zm1 12.9l.36-1.06.8.65zm-2.07.33l.2.9-.83-.16zm-6.27 2.9l-1.05.32.17-.98zm5.42-.3l-.5-.83.84-.03zm-4.68 6.57l.7-.64.22.8zm4.06-19.43l.75-.14-.24.77zm1.33 1.98l-.78.53-.03-.9zm.03 4.73l-.88.53-.1-1zm.68-1.72l-1.07.6-.1-1.2zm.88-3l-.78-.84.96-.33zm-1.67 7.47l.72-.93.4 1.02zm-1.63-4.55l-.84.03.23-.57zm3.5.65l-.15-.5.56.04z"/><path d="M199.92 144.25l.6-.35.04.7zm-3.35 6.15l.01 1.2-.9-.47zm.88-5.55l-.86.34.06-.9zm5.13 6.3l-.5-.73.85-.13zm10.42 33.3l.3.98-.84-.18zm7.92 2.44l-.6.64-.33-.83zm-6.96 7.26l.58.88-.93.1zm-1.88-4.68l-.54.7-.3-.78zm6.85 2.32l-.76-.48.64-.5zm-6.4-1.06l.26 1-.94-.1zm-.26-5.04l-.7.4-.03-.83zm5.73 4.4l-.56-.7.68-.3zm3.32-6.92l.1 1.04-.87-.35zm-8.84 11.62l.4 1.07-.93-.08zm-1.13-4.8l-.73.5-.2-.78zm6.4 3.3l-.75-.57.73-.4zm-5.8 7.2l.4.97-.93.02zm-1.13-5l-.64.6-.2-.88zm6.4 3.4l-.66-.58.64-.4zm.64 3l-.38.9-.46-.7z"/></g><path d="M213.7 182.6l-7.75 21.9c-2.2 5.6-9.1 8.27-17.36 7.8s-10.97-4-9.86-10.04c1.17-6.4 7.5-20.33 7.5-20.33l27.48.67z" fill="#106268"/><path d="M190.52 212.86c-.64 0-1.3-.02-1.96-.06-4.5-.26-7.48-1.4-9.12-3.5-1.37-1.74-1.76-4.08-1.2-7.14 1.17-6.4 7.26-19.88 7.52-20.45l.14-.3 28.5.7-7.98 22.56c-2.05 5.2-7.92 8.18-15.9 8.18zm-3.98-30.43c-.92 2.06-6.26 14.16-7.3 19.92-.5 2.77-.18 4.84 1 6.35 1.45 1.85 4.2 2.86 8.4 3.1 8.4.48 14.86-2.38 16.86-7.48l7.52-21.25-26.46-.65z" fill="#0e4f59"/><linearGradient id="F" gradientUnits="userSpaceOnUse" x1="252.884" y1="157.741" x2="331.08" y2="222.414"><stop offset="0" stop-color="#0a5f66"/><stop offset=".998" stop-color="#00394a"/></linearGradient><path d="M265.7 146.86c-5.45-9.35-10.6-20.56-16-29.26-7.78-12.5-20.4-24.23-36.6-14.28s-8.8 34-3.8 46.06c5.18 12.54 13.98 29.08 33.24 39.28 17.12 9.06 33.43 15.57 50.36 20.14l11.8-27.82c-13.8-9.96-34.13-25.8-39-34.12z" fill="url(#F)"/><g fill="#147a7c"><path d="M209.3 115.73l1.42.7-1.32 1.3zm-2.07-3.77l1.42.7-1.32 1.3zm-1.86 5.78l-.28.9-.76-.8zm7.35-2.1v2l-2-.9zm-2.92-7.3l.1 2-2-.9zm2.82-3.6l-.66 1.9-1.6-1.6zm-5.58 7.13l.1 2-2-.8zm1.7 2.06v1.9l-1.98-.9zm1.33-2.86v2l-1.9-.9zm-1.9 4.57l.56 1.9-2.08-.2z"/><path d="M207.32 115.93l.3 2-2-.6zm6.34-6.08l1.52.7-1.42 1.3zm-4.96 7.38l1.23 1-1.6.9zm5.53-9.4l1.04.4-.85 1zm-3.97 6.54l.57-.8.56 1zm9.18-.1l-.67-.7 1.04-.3zm2.3 4.23l-.42 1.1-.82-.93zm-5.9-4.26l.74.43-.88.57zm-.37 9.54l.68-.58.25 1.02zm.64-10.2H215l.66-1.2zm2.18-7.34l-.28.9-.76-.7zm-8.8 2.72l.76.5-.85.6zm1.04-3.62l1.52.7-1.33 1.3zm2.56-.3l1.6 2-2.65.9zm8.42-4.83l1.32 1.5-2.08.7zm-9 8.75l-.1 2.6-2.55-1.2zm2.65-4.53l1.13 1.2-1.6.8zm-.85-1.92l1.23 1.1-1.7.7zm1.07 15.74l-.47 1-.85-1zm-2.65 1.2l-.94-.1.47-.9z"/><path d="M217.3 118.84l.75.5-.85.6zm-4.2-7.68l.66.7-1.04.4zm-1.8-5.73l2.65-2.4 1.23 3.82zm-3.6 2.5l2.75-2.5 1.13 4.02zm-2.17 3.62l2.17-3 1.9 3.7zm12.57-8.34l-.76 1.7-1.4-1.6z"/><path d="M214.23 103.02l3.22-1.8.28 4.12zm-9.93 12.9l.94-3.62 3.12 2.5zm10.03-1.2l-1.52.2.57-1.7zm-4.2 18.46l1.42-.77.1 1.9z"/><path d="M205.78 132l1.42-.77.12 1.9zm5.75.5l1.2 1.6-2.08.6zm-6.5-5.12l1.04 1.66-2.1.5zm-.2-4.95l.63 1.85-2.08-.04z"/><path d="M205.26 132.44l1.43 1.23-1.92 1.02zm3-.04l1.54 1.14-1.93 1.12zm-1.3-1.7l1.1 1.7-2.15.3zm1.44 5.42l1.54 1.3-2 .95zm2.46-19.2l.38 2-2.08-.5zm-.83 5.64l-1.9.17.7-2.16zm-.68-2.02l-1.9-.2 1.04-2zm-1.02 7.3l1.6-.01-.85 1.66zm2.9 7.88l1.4-.8.15 1.9zm-3-10.6l1.1-.3-.12 1.3zm.67 7.55l-.1-1 1.03.4zm7.3-5.94l-.85-.17.57-.95zm4.36 2.5l.3 1.02-1.24-.1zm-7.38.78l.97-.03-.36.97zm5.82 7.48l.16-.98.83.55zm5.3-17.84l.13 1.1-1.2-.46zm-7.03-1.48l.94.15-.62.87zm3.33 8.94l.32-.8.72.75zm-7.52-7.55l1.83.92-1.8 1.6zm1.7 5.4l.7-.78.43 1.03z"/><path d="M213.8 119.75l-.95.6-.1-1.3zm-1.7-7.35l.2.9-.94-.2zm-6.25 7.04h.94l-.47 1zm17.37-11.1l-.95.6-.18-1.3zm-2.46-7.14l.38.9-1.04-.1zm-5.58 7.75l.94-.1-.37 1zM213.12 125l-.7.87-.6-1.24zm-4.32-6.18l.53.73-.96.25zm-3.22 8.98l.87-.36-.06 1.1zm-1.68-3l1.6.06-.73 1.68zm2.18-1.1l2.22 1.12-2.18 1.8zm1.57 2.6l1.3 2.18-2.78.56zm-.48-9.27l.38 2.62-2.74-.8zm-.9 3.87h1.6l-.78 1.77zm-1.96-.52l1.6.4-1.24 1.53zm10.96 12.46l.2 1.1-1.24-.2z"/><path d="M213.4 136.48l-.8.54-.12-1zm3.77-4.48h.96l-.47.95zm-10.85-12.46l-.28.9-.76-.7zm2.96 8.26l.84.15-.62.97zm7.32-21.26l.57 1.9-2.1-.2zm-13.12 13l.85-3.7 3.22 2.5zm-.25 4.1l.25-3.8 3.57 1.95zm.32 4.87l-.18-3.74 3.72 1.3zm.92 5.27l-.64-3.65 3.96.95zm1.16 4.83l-.9-3.65 4 .6zm7.37-14.2l-.77.47-.06-1zm2.27 1.2l-1.2 1.05-.47-1.74z"/><path d="M214.48 122.76l-.8.45-.02-1.1zm-1.76 1.22l-.77.37-.05-1zm5.78 2.9l-1 .86-.4-1.23zm-3.66-7.54l.42 1.03-1.24.03zm-5.24 9.5l1.06-.25-.26 1.2zm2.3 14.1l1.5-.7.06 1.9zm-3.43-1.74l1.5-.7-.04 1.9zm1.13 6.43l.4.86h-1.05z"/><path d="M214.12 140.3l1.45 1.2-2 .95zm-5.8 1.38l1.45 1.3-1.9 1.06zm1.8.42l1.45 1.3-1.9.96zm-.4-3.7l1.45 1.3-1.9.86zm1.17 9.1l1.55 1.15-1.82 1.07zm-.74-2.58l1.44 1.26-1.9 1.03zm3.04-1.1l1.4-.8.05 1.9zm-3.6-10.23l.9-.63.2 1.3zm1.88 7.2l-.22-.9 1.14.18zm6.2-7.2l-.96.03.46-1.07zm4.77.73l.5 1.03-1.26.1zm-7 2.37l.9-.33-.18 1.08zm7.1 5.9l-.03-1 1.03.47zm-4.1-3.18l.5 1.03-1.26.1zm-1.58 3.18l-.72.75-.32-1.02zm3.86-5.8l.9-.23-.18 1.08z"/><path d="M207.17 143.1l-1.2-3.58 4.02.4zm1.3 3.92l-1.2-3.47 4.03.2zm11.42 14.84l1.2-.77.2 1.55zm-2.5.47l1.12-.84.37 1.54zm1.83 3.7l1.05-.92.4 1.52zm-.65-2.33l1.2-.7.2 1.47zm1.9-5.82l1.67 1.02-1.8 1.3zm-4.6.52l1.66.92-1.78 1.4zm-2.58-2.93l1.66.82-1.7 1.4zm5.37 11.43l-1.16-1.77 2.42-.3zm2.7-2.47l1.46.7-1.35 1.2zm-3.77-4.63l1.4.86-1.43 1.1zm5.75 7.65l1.08.67-1.08.82zM212.8 147l1.54 1.05-1.8 1.17zm3.55 5.42l-1.5 1.2-.63-2zm-2.27-1.86l-1.52 1.17-.6-2.12z"/><path d="M216.16 155.87l1.32-.9.24 1.92zm6.57 10.4l1.15-.77.23 1.54zm-2.07 2.47l.85-.7.33 1.17zm-6.33-19.67l.75-.8.5 1.15zm3.93 6.17l-.5-.86 1.05-.12zm3.9-8.5l-.95.32.16-1.07zm-8.35-.4l1.97-.63-.36 2.3zm7.2 3.3l-.1-.96 1.06.38zm.34-5.02l-.37 1.07-.88-.87zm-6.18-3.92l.77.57-.86.5zm-.02 9.28l.76-.7.3 1.06zm6.33-12.73l-.28 1.17-1-.87zm-6.6-3.37l.83.46-.8.64zm1.06 9.45l.62-.66.42.93zm-2.15 13.27l1.3-1 .34 1.83z"/><path d="M214.1 154.38l2.5-.26-.98 2.73zm3.7 1.92l1.97 1.5-2.46 1.42zm-7.6-9.86l2.03 1.53-2.4 1.47zm2.88 6.06l1.32-.8.34 1.73zm-2.26.1l1.44-.78.2 1.73zm14.05 10.43l-.55.6-.35-.8z"/><path d="M211.97 151.16l.4.86-1.16.01zm6.73 6.48l.96-.12-.46 1.07zm-7.97-5.34l-1.12-2.76 3.37.12zm2.2 4.53L211 153.7l4.02-.6zm1.83 3.62l-1.82-3.14 4.02-.5zm2.03 3.78l-1.7-2.9 3.4-.17zm3.96 5.73l-1.34-1.86 2.6-.67zm-1.47-19.34l-.18.87-.77-.67z"/><path d="M217.8 152.58l-.34 1.55L216 153zm3.36 3.35l-.17.97-.98-.74zm-2.1-8.1l-.28.87-.78-.67zm-.16 2.7l-.38.77-.68-.67zm5.3 23.32l1 .18-.64.92zm-1.25-3.93l-.63.98-.65-1.18zm5.65.68l-.64.92-.7-1.1zm-.8 2.45l-.64.9-.7-1.1zm-7.55-18.83l-1.52.8-.15-1.93zm3.15 7.26l-.8.82-.53-1.2zm4.86 6.1l-.1.67-.62-.46zm-3.98-1.87l.52.3-.5.43zm.75 5.54l.37-.4.25.54zM228.8 154l-.36.98-.8-.85zm-5.4-3.82l.7.56-.75.5zm-.34 8.42l.66-.5.22.86zM235 175.33l-.32.86-.7-.75zm-4.74-3.33l.6.5-.66.44zm-.3 7.36l.58-.44.2.76zm-2.56-14.22l-.02.65-.63-.28zm-4.2-1.14l.55.17-.44.46zm1.62 5.3l.3-.5.35.52zm1.7 5.9l.67-.53.27.93zm-2.28-2.28l1.22-.38-.1 1.4zm-.3-.46l.56-.7.45.9zm-1.05.22l.7-.6.3 1.1z"/><path d="M230.1 177.25l.3.52-.63.07zm-7.24-4.43l-1.3-1.82 2.3-.74zm5.24 5.28l-1.35-1.42 2-.73z"/></g><g fill="#0e4d54"><path d="M240.06 113.75l-.8-.07.4 1zm4.24 8.25l-1.52.36 1.26 1.52zm2.47-3.9l-1.5.37 1.06 1.35zm.5 2.06l-.06 1.84 2-.78zm-2.18-4.7l.17 1.85 1.84-1.1zm-2.2-3.88l.55 1.85 1.55-1.36zm6.36 7.18l-.13 1.84 1.97-.6zm-4.02 1.1l-.42 1.85 2.1-.36z"/><path d="M245.2 117.98l.08 1.8 1.84-1.1zm4.1 4.72l-.13 1.83 1.88-.63zm-8.2-13.26l1.77-.8-1.48-1.3zm1.88 8.36l-1.12 1.07 1.56.7zm4.05 5.88l-1.47.5 1.12 1.34zm-5.8-9.48l-.95.3.84 1.07zm3.74 6.3l-.53-.67-.6.8zm-8.83-11.7l.76-.65-.85-.4zm-1.96-5.52l.15 1 .9-.67zm2.95 2.58l-.88.4.7.68zM242.7 131l-.7-.65-.14 1.04zm-7.04-26.96l.43.97.84-1zm.1 2.73l-.52-.37-.3.96zm3.88.98l-.8-.2.03.86zm1.35 9.88l1.06-.4-.73-.9zm-.4-7.43l-.62.54.86.35z"/><path d="M237.6 113.26l1.03.1-.12-1.06zm7.36 2.8l-.82.2.7.77zm-.16-3.17l-1.24 1.08 1.57.73zm-2.4.28l-1.12 2.15 2.83.13zm.16 3.2l.44 2.37 2.27-1.43zm-1.48-4.97l-1.4.97 1.6.87zm1.08-1.55l-.94 1.18 1.8.4zm.58 15.95l.58.85.72-1z"/><path d="M244.13 125.7l.9-.23-.63-.75zm-3.18.76l-.7.54.9.45zm-.7-15.98l.74.5.16-1.1zm2.1 7.98l-.64.67 1 .26zm3.15-6.76l-1.98-2.23-1.2 2.6zm2.6 3.62l-2.14-2.7-1.08 2.8zm1.9 2.86l-1.76-2.7-1.04 2.87zm2.5 3.98l-1.53-2.33-1.5 2.15zm-13.62-12.22h.86l-.36-.77zm-.58-3.76l1.36-.5-1.02-1.13zm-2 6.66l.83-.15-.65-.8zm3.3-5.56l.8-.2-.37-.77zm10.73 20.47l-1.4.68 1.2 1.2zm1.8-2.42l-1.43.63 1.2 1.16zm3.13 4.87l.48.88.6-.83zm-8.4-4.82l-.17 1.93 2-.68zm1.02-6.96l-.2 1.28 1.37-.34zm3.73 3.74l-1.16.54 1.07.98zm-3.73-.46l-1.2.44 1.08 1.12zm4.66 3.95l-.04 1.87 1.92-.7zm-.63 1.7l-.13 1.83 1.88-.63zm-2.4-3l-.1 1.75 1.97-.6z"/><path d="M253.58 130.76l-.1 1.93 1.95-.66zm-.53-2l-.2 1.9 1.98-.75zm-2.75 1.5l-1.45.55 1.2 1.2zm-5.8-10.14l-.96.23.68 1zm5.4 7l-.36-.84-.67.9zm-9.76-3.3l.67-.68-.93-.35zm.4-4.48l.1 1 1.1-.63zm4.1 7.6l-.8.5.8.63zm-1 9.07l-.6-.6-.42.9zm1.44-3.42l.34.92.86-.92zm2.16-.66l.95.1-.48-.88zm-5.92-.26l-.88.48.83.6zm13.02-6.26l-1.65-2.73-1.4 2.1zm1.56 3.64l-1.54-2.9-1.3 2.38zm4.55 18.28l-1.45.55 1.3 1.25zm1.94-2.1l-1.42.46 1.17 1.3zm2.63 3.25l-1.38.7 1.34 1.06zm-1.97-1.3l-1.5.64 1.34 1.15zm-5.4-1.9l-.2 1.9 2.03-.84zm2.52-3.96l-.15 1.8 2.07-.7zm-1-3.64l-.15 1.8 1.94-.66zm7 10.36l-1.25-2.1-1.7 2.3zm-3.85 2l.13 1.92 1.88-.97zm-2.36-6.24l-.02 1.74 1.9-.56z"/><path d="M264.52 152.34l.47 1.83 1.63-1.17zM250.9 130.1l.78 1.67 1.4-1.66zm4.46 8.6l1.77-.5-1.45-1.65zm-1-3.63l1.64-.47-1.23-1.65zm3.53 5.33l-1.6.6 1.52 1.24zm4.72 11.33l-1.45.78 1.43.97zm3.68-1.35l-1.4.82 1.47 1zm-13.84-16.18l-.94.13.62 1.05zm3.82 7.55l-.48-.87-.68.78zm-9.98-3.2l.7-.57-.96-.54zm5-6.42l-1.7.88 1.84 1.27zm-2.26 7.43l-.6-.6-.4.9zm-3.87-2.85l.95.32v-1.2zm.76-7.02l-.1.94.9-.25zm7.57 7.06l-.88.26.65.73zm-12.7-8.06l1.05.6v-1.2zm-1.66-11.12l-.38.82 1.08-.05zm9.24 14.22l-.9.03.3.8zm11.5 6.77l-1.5.64 1.26 1.34z"/><path d="M257.9 137.8l-1.53 1.94 2.57.6zm-.57 4.54l.23 2.4 2.42-1.2zm-4.06-12.6l-.13 2.47 2.56-1.04zm2.4 5.36l-1.45.77 1.34 1.16zm2.33-1.24l-1.54.5 1.3 1.25zm.32 18.9l1.02-.08-.8-.7z"/><path d="M255.93 133.8l.48.88.7-.8zm1.95 10l-.5.64.95.32zm.5-9.9l-1.37-3.03-1.78 2.48zm2.32 4.28l-1.55-3.12-2.53 2.92zm1.92 3.28l-1.77-2.88-2.44 2.96zm2.15 4.54l-1.88-3.6-2.08 3.12zm3.73 4.98l-2.12-2.56-1.82 3.4zm-17.6-11.88l.82.37.01-1zm3.75.93l1.4.52-.07-1.78zm.57 4.32l1 .45-.04-1.12zm-6.32-7.37l.73.33-.08-1.03zm1.7-.88l.8.15-.17-.85zm21.55 19.73l-.13 1.43 1.66-.64zm-4.72 2.1l1.48-.83-1.5-1.2zm2.9 2.06l1.5-.8-1.4-1.27zm-15.9-17.08l1.4-.9-1.56-1.14zm11.05 13.43l1.4-.95-1.54-1zm-6.03-.3l1 .23-.26-1.1zm-.3-6.4l.13.93.7-.56zm8.18 4.34l-.72.3.67.53zm-17.26-8.77l.86.28-.1-1.02zm-2.2-3.62v.76l.8-.3zm8.9 6.32l-.76.2.6.6zm-4.2 2.92l1.05.36-.05-1.1zm5.04-.46l-.05.85.88-.26zm7.94 6.6l-.88.34.7.64zm7.02.1l-.94.65 1.25.7zm-2.25-1.64l-.85 1.78h2.14zm-1.13-.52l-1.03.6 1.26.85zm.88-1.36l-.9.95 1.42.58zm-2.45.84l.48.47.37-.83z"/><path d="M271.17 153.63l-2.22-2.3-1.77 3.07zm2.23 2.6l-1.87-2.05-1.3 2.84zm3.2 2.68l-2.1-1.82-1.08 2.82zm5.85 11.73l-1.24.97 1.75.76zm1.2-3.13l-1.15.98 1.6.66zm2.88 1.83l-1.23 1.05 1.67.7z"/><path d="M284.95 169.03l-1.1 1.2 1.7.6zm-15.1-7.83l.5 1.73 1.5-1.42zm10.57 3.87l.5 1.73 1.65-1.26zm-2.62-3.57l.57 1.75 1.5-1.43zm10.43 7.24l-1.82-1.5-.74 2.7zm-3.87 2.8l.67 1.72 1.5-1.5zm-3.42-4.1l.48 1.83 1.58-1.4zm8.16 4.32l.9 1.7 1.14-1.4z"/><path d="M274.74 161.78l-1.08 1.14 1.76.42zm11.3 11.62l-.97 1.25 1.64.47zm2.2-2.6l-1.16 1.18 1.7.6zm-9.44-8.7l-1.16 1.2 1.63.53z"/><path d="M276.54 162.15l-.48 2.36 2.65-.5zm-2.44-1.7l.47.95.87-.9zm8.73 15.68l.74-.55-.8-.5zm-3.6-8.3l-.3.95 1.1-.18z"/><path d="M279.33 161.3l-2.7-2.28-1.05 3.67zm3.47 3.16l-2.63-2.3-1.14 3.62zm3.3 2.67l-3.03-2.52-.76 3.82zm4.66 3.47l-2.18-1.6-.7 2.7zm-2.46 5.62l1-.9-1.36-.65zm-11.32-7.65l.37.7.54-.6zm13.3 5.48l-.74.6.85.3zm-17.65-8.4l-.75.4.9.5zm5.77 5.9l.3.72.75-.4zm13.8 2.94l-.28 1.2 1.45-.2zm-.77.8l-.93.84 1.26.65zm1.27-2.4l-.8 1.1 1.48.3zm-2.1 1.48l.63.32.17-.78zm2.86-1.8l-1.82-1.22-.65 2.23z"/></g></svg>