<svg xmlns="http://www.w3.org/2000/svg" viewBox="0 0 480 480" xmlns:v="https://vecta.io/nano"><linearGradient id="A" gradientUnits="userSpaceOnUse" x1="166.427" y1="153.6" x2="217.002" y2="154.599"><stop offset="0" stop-color="#b9e4ff"/><stop offset="1" stop-color="#84b4d7"/></linearGradient><path d="M154.28 208.5l78.2-.3s7.05-22.07 16.2-59.48c.93-19.08-1.07-48.2-23.14-49.08-11.8-.7-25.3 7.3-40.46 36.77-8.9 17.3-28.32 59.1-32.32 69.52-.55 1.3.3 2.57 1.5 2.57z" fill="url(#A)"/><g fill="#4780b5"><path d="M207.76 164.05l-1.5-.88 1.3-.9zm1.58-4.82l-1.12-1.37 1.5-.4zm-5.12 2.95l-1.95.3.46-1.77zm2.05-2.85l1.12 1.67-1.68.3z"/><path d="M206.83 157.76l-2.05.2.56-1.78zm8.95 19.54l-1.93.26.43-1.64zm-6.63-21.5l-1.95.1.56-1.67zm2.05 2.75l-1.67.98-.2-1.77zm-1.86 1.27l-1.68 1-.18-1.77zm-.56-2.36l-1.86.6.2-1.87zm1.77 5.22l-1.96.4.47-1.77z"/><path d="M211.1 163.17l-1.77.6.1-1.77zm-7.8-7.17l-.83-1.58h1.48zm-1.08-2.9l-.73-1.63h1.5zm1.3-7.1l-1.14-1.06 1.24-.5zm1.65-.18l-1.08-1.12 1.27-.44zm3.97 18.72l-1.5-.78 1.12-1zm-5.67-10.8l-.47-1.1 1.03-.1zm1.22 5.3l.74-.6.28.88zm-7.08-3.74l.74.6-.65.5zm3.58 13.48l-1 .45.05-1zm5.27-.84l-.6-.85.83-.14zm-3.77 7.16l.52-.8.4.77zm-1.24-19.1l.1 1.2-.9-.36zm.54-5.48l-.86.34.06-.88zm5.6 5.8l-.6-.83.85-.14zm-.3-2.6l-.64-1.62h1.5z"/><path d="M207.43 153.15l-2.02-1.8 2.03-1.05zm-1.8-3.57l-.92-1.54 1.6-.2zm1.48 6.32l-2.6.3.75-2.26zm-5.76 4.32l-1.02.5v-1.08zm4.1 3.83l.56.8-.84.1zm-5.86-5.4l-.56-.88.84-.1zm12.7 26.74l-.65-.7.8-.3zm20.5 10.8l-.5-.8.78-.16z"/><path d="M204.13 156.68l-.84-.7.84-.4zm1.4-2.32l2.67-2.77 1.36 3.16z"/><path d="M207.1 157.86l2.38-3.13 1.47 3.25zm-2.33-6.76l-1.9.47.3-1.76zm1.96.03l-1.8.47.2-1.76z"/><path d="M203.57 149.54l2.78-2.57 1.3 3.33z"/><path d="M202.72 149.68l1.3-1.4.64 1.62zm.22-7.8l1.62-1 .5 1.83zm.26-2.15l.95-.93.45 1.85zm-.32 1.85l-.2-1.42 1.18.35zm.96 2.2l-.3-1.32 1.2.24zm-.9 1.08l-1.28-.25.7-1.1zm.37-6.1l-.3-1.43.85.45zm.18 7.82l2.17-1.87.77 2.4zm.1-2.44l1.46-1.2.47 1.54zm5.1 17.06l2.36-3 1.6 3.14z"/><path d="M210.08 164.25l2.5-3 1.58 3.14zm2.1 3.55l2.27-3.2 1.77 3zm-8.7-10.14v1.77l-1.3-.7zm4.65 6.98l-1.86.7.1-1.77z"/><path d="M222.8 180.1l-1.64.95-.28-1.85zm-6.1.54l-1.66.92-.14-1.77zm-8.2-16.4l1.12 1.67-1.68.3zm7.65 3.12l1.1 1.82-1.85.38zm-2.73.7l1.34 1.6-1.7.53zm-1.94-3.14l1.12 1.57-1.68.3zm-2.43 4.56l-.15-1.17 1.04.25zm-.4 5.53l.92-.34-.05.9z"/><path d="M203 169.3l.6.76-.83.24zm5.66 14.4l-1.12.05.34-.94zm5.37.85l-.32-.95.86.1zm-5.76 5.35l.88-.4.1.78zm3.95-18.18l-1.53-1.58 1.8-.64zm.64 2.68l-1.5-1.48 1.7-.63zm-4.93-7.02l-1.2-1.62 1.66-.47zm11.47 16.92l-1.6-1.35 1.67-.75zm-22.06-19.36l.74-.5.2.78zm8 .2v1.18l-.93-.4zm.66-5.4l-.93.3.1-.98zm5.4 6l-.56-.8.83-.1zm-1.7 13.07l.88.98-1 .23zM207 174l-.54.86-.4-.84zm7.8 1.54l-.9-.38.58-.57zm-2.86-11.1l-2.4.78.1-2.26zm0-2.17l-1.86.4.38-1.77zm-.5 4.64l-.77 1.5-.8-1.14zm-11.05-3.95l-.47.9-.46-.8zm-1.1 4.43l-.65 1.18-.65-1zm4-4.53l-1.02-.3.56-.8zm1.4 9.15v-1.18l.84.5zm8.98-.6l.06-1.7 1.3.7zm3.27 1.94l-1.37-1.1 1.32-.67z"/><path d="M214.97 173.33l.24-1.72 1.25.93z"/><path d="M216.8 171.6l1.2 2.62-2.36-.08z"/><path d="M217.05 168.98l1.67 2.66-2.58.34zm-1.03 5.2l-1.75.93-.05-1.78zm4.38 3.8l-1.5 1.32-.56-1.8zm-3.43 1.83l-1.52-.8 1.1-.94zm.9-4.47l-1.28-1.12 1.32-.68zm-4.4.77l-.16.92-.7-.4z"/><path d="M216.87 174.63l1.9-3.23 1.88 2.83zm8.35 5.37l1.34 1.7-2.2.33zm-2.7 2.02l1.63.85-1.15 1.07zm-4.47-2.2l1.55.96-1.26.98zm-2.76 2.2l.42.93-.93.04zm-1.5-4.85l-.66.6-.32-.85zm6.57 2.98l-.74-.48.68-.5zm4.56 7.88l-.01 1.1-.88-.36zm.53-5l-.82.35.06-.88zm4.9 5.3l-.44-.68.78-.16zm-13.04-3.43l.44 1.03-.93.04zm-1.58-4.83l-.66.6-.2-.77z"/><path d="M222.4 182.94l-.73-.48.7-.4zm2.8-1.5l-.46 1.27-.8-.88zm.37-.97l-2.05-.07.72-1.78z"/><path d="M224 180l-1.22-.6.82-.82zm-2.7-1.77l-1.4-.58.9-.93zm-3.7-2.17l-.26.83-.65-.6zm1.2.6l1.86-2.67 1.88 2.5z"/><path d="M221.1 179.13l1.38-2.7 1.66 2.24zm-3.2 8.04l-1.4-.8 1.2-.9zm3.96 1.33l-1.4-.78 1.2-.9zm1.2-2.27l-1.4-.8 1.2-.88zm5.48 10.37l.3.96-.86.04zm-.9-4.87l-.65.47-.23-.84zm6.27 3.54l-.65-.6.62-.3zm-4.3-2.03l.1 1.08-.9-.22zm.17-4.94l-.8.34v-.84zm5.27 4.9l-.54-.7.78-.25zm-13.34-2.32l.28 1.05-.94-.07zm-.88-4.96l-.65.48-.23-.84zm6.24 3.65l-.65-.62.62-.3zm-25.63-13.9l-1.1.44.14-1.1zm5.3-.45l-.5-.86.83-.14zm-4.25 6.7l.62-.72.4.87zm5.1 5.9l-.46-.9.84-.1zm17.3-2l-.66-1.27 1.2-.14zm3.4 7.53l-.67-1.27 1.2-.14zm2.2 4.6l-.67-1.26 1.2-.15zm-2.3 9.33l-.67-1.26 1.2-.15zm-18.52-20.25l-1-.55.78-.56zm4.1 3.58l.23-.96.6.52zm-7.73 1.62l.88-.01-.34.7zm15.3-7.1l-1.36-1.48 1.6-.55zm11.27 9.57l-1.02-1.68 1.83-.17z"/><path d="M233.3 191.77l-.8 1.85-1.18-1.32zm-1.64 7.4l-.5 1.2-.77-.94zm3.16.78l-1-1.8 1.73-.18zm-7.77-15.45l-1.46-1.57 1.7-.56zm8.82 12.34l-1.1-1.7 1.74-.2zm-1.9 6.16l-1.95-2.76 2.72.1zm-1.15-3.52l-.03-1.4 1.3.73zm2.75-4.68l-.04-1.3 1.2.62zm-.98-3.13l.3-1.36 1.06.9zm-25.24-5.57l.8 1-1 .23zm-2.56-5.02l-.55.77-.38-.75zm7.77 1.82l-.8-.4.58-.57zm-12.04-37.37l-.93.04.33-.77zm-2.83.5l-.14-.7.65.05zm2.3 3.4l.7-.45.04.8zm1.86-12.8l-1.1-.23.58-.92zm-.72-1.77l.02-1 .7.38zm.46 12.9l.35-1.06.8.64zm-2.08.35l.22.9-.83-.16zm-6.25 2.94l-1.05.33.16-.98zm5.43-.33l-.5-.82.84-.04zm-4.64 6.6l.7-.64.22.8zm4.4-19.62l.76-.1-.28.76zm1.25 2.05l-.8.5v-.9zm-.2 4.73l-.9.48-.07-1zm.77-1.68l-1.1.56-.04-1.2zm1-2.96l-.73-.88.97-.28zm-1.98 7.48l.7-.94.4 1.02zm-1.44-4.72H199l.26-.56zm3.46.8l-.13-.5.56.07zm-4.17 3.47l.6-.32.01.7zm-3.28 6.4l.01 1.18-.9-.45zm.83-5.57l-.86.33.06-.88zm5.18 6.26l-.5-.72.85-.14zm20.24 50.82l.28 1.26-1.15-.28zm.01-6.05l-1.1.46-.02-.95zm7.13 5.73l-.83-.86 1-.18zm-9.24-16.64l-.35 1.04-.64-.7zm2.64-4.17l-.83-.13.4-.73zm2.1 7l-.05-.9.72.22z"/><path d="M222.32 188.87l.01 1-.8-.24zm.53-5l-.8.16.04-.7zm4.9 5.38l-.43-.77.78-.16zm.76-2.55l-1.53 1.12-.48-1.8zm2.4-.33l1.5 1.53-2.15.57zm-2.45 2.3l1.72.67-1.03 1.2zm2.8 5.57l.1 1.1-.9-.26zm-.02-5.03l-.77.44-.04-.9z"/><path d="M236.7 193.92l-.5-.62.76-.25zm-13.1-1.82l.55.98-.93.14zm-2.1-4.64l-.6.67-.3-.74zm6.9 2.14l-.78-.4.64-.48zm2.64-1.8l-.33 1.3-.88-.78zm.26-1.02l-2.04.16.52-1.85z"/><path d="M229.7 186.5l-1.28-.47.72-.9z"/><path d="M226.7 185.94l1.07-2.83 1.9 2.05zm.43 5.3l-1.47-.63 1.1-1.02zm-1.93-3.65l-1.5-1.33 1.54-.7zm8.02 3.02l-1.63-1.4 1.63-.74zm-6.62 4.08l-.23 1.07-.72-.63zm2.16-4.43l-.84-.04.32-.77zm2.84 6.73l-.15-.9.74.13zm-2.6-1.5l.12 1-.83-.16z"/><path d="M228.97 190.46l-.76.24-.05-.7zm5.43 4.82l-.5-.72.76-.25zm-.28 2.84l-1.32-1.05 1.36-.74zm-21.94-11.35l.3.97-.84-.17zm19.68 1.53l.1 1.02-.78-.35zm-5 8.68l.28 1.05-.92-.16zm-.12-5.02l-.75.46-.02-.9zm5.6 4.54l-.54-.7.72-.27zm-9.54 6.14l.4.97-.93-.07zm-.88-5.06l-.67.57-.13-.82zm6.24 3.64l-.66-.52.63-.38zm1.94 3.36l-.6 1.2-.68-.93zm3.16.78l-1.1-1.8 1.83-.16zm-.82 2.94l-2.07-2.68 2.84.02z"/><path d="M231.27 204.9l-.05-1.3 1.2.62zm1.27-1.27l-1.3-1.14 1.25-.67zm-7.24-1.23l.2 1.03-.9-.17zm-.1-5.12l-.74.46-.14-.82zm5.58 4.62l-.56-.6.72-.27zm2.52-10.8l.37-1.33.92.75zm-12.9-.95l-.6.64-.33-.82zm-6.95 7.27l.58.87-.93.12zm-1.87-4.68l-.55.7-.3-.78zm6.84 2.3l-.75-.47.64-.5zm-.08-2.04l.14 1.08-.9-.2zm.03-5.04l-.8.37-.02-.84zm5.43 4.7l-.56-.7.77-.27zm-5.53-3.47l.4.97-.95.03zm-.92-4.95l-.65.5-.14-.82zm6.25 3.6l-.64-.6.63-.4z"/><path d="M216.23 189.58l-.5.87-.5-.8zm3.34-3.74l-.8-.27.5-.56zm.83 7.36l.1-.9.67.34zm-1.07.08l-.4.9-.65-.72zm2.93-4.02l-.8-.25.47-.58zm1.6 7.22l.01-.93.7.22zm-4.13-10.05l.05 1.05-.85-.37zm-7.76 11.6l.4 1.08-.93-.08zm-1.14-4.8l-.73.5-.2-.8zm6.4 3.3l-.76-.57.73-.4zm-3.1 4.7l.4.97-.93-.07zm-.8-4.95l-.75.46-.15-.72zm6.14 3.63l-.66-.52.73-.37zm-8.04 3.83l.4.97-.93.03zm-1.14-5l-.64.6-.2-.88zm6.4 3.4l-.66-.57.64-.4zm.64 3l-.37.88-.47-.7zm13.04-12.96l-.08-2.1 1.58.7zm5.04 1.24l.26-2.1 1.27.95z"/></g><linearGradient id="B" gradientUnits="userSpaceOnUse" x1="243.104" y1="164.669" x2="200.572" y2="157.697"><stop offset="0" stop-color="#4479b2"/><stop offset="1" stop-color="#4479b2" stop-opacity="0"/></linearGradient><path d="M208.23 107.3s-16.37 12.4-15.54 44.36c.28 11.4 0 16.82 1.02 31.47 1.2 15.93 1.02 25.28 1.02 25.28l37.7-.1 14.2-49.35-38.4-51.66z" fill="url(#B)"/><path d="M362.17 208.05c-1.9-1.1-4.07-4-7.42-4.3-9.2-.88-16.5-1.65-21.8-4.15-3-1.5-46.97-24.56-51.27-28.3-5.6-4.1-25.07-36.33-25.07-36.33L230.2 147.7s25.5 37.47 34.5 42.7c7.45 4.85 17.2 8.2 31.4 12.3s26.5 6.7 37.5 9.5c1.64.4 3.3 1.23 5.56 1.56 1.9-3.77 5.82-6.36 10.34-6.36a11.6 11.6 0 0 1 11.6 11.6c0 .08-.01.17-.01.25s.01.17.01.25c0 1.1-.25 2.2-.55 3.3.1.2.25.4.45.5 1.8.85 2.5-2.54 2.97-6.13s.7-7.36-1.8-9.12z" fill="#ea9d7d"/><linearGradient id="C" gradientUnits="userSpaceOnUse" x1="340.556" y1="207.911" x2="330.235" y2="206.453"><stop offset="0" stop-color="#cc7a5e" stop-opacity="0"/><stop offset=".924" stop-color="#aa5f4b"/></linearGradient><path d="M351.85 203.73l-10 5.78-2.8 4.38-5.47-1.56c.94-2.35 3.56-10.66 3.56-10.66-.42.05 9.1 1.6 14.73 2.06z" fill="url(#C)"/><path d="M361.18 223.77c-.32 0-.65-.08-1-.24l.42-.9c.37.17.7.2.96.06.44-.2 1.1-.94 1.65-3.2.6-2.22.6-6.1.58-7.67-.03-1.66-.65-2.16-1.88-3.17l-1.1-.92c-2.66-2.14-4.3-3.37-7.22-3.58-8.9-.65-17.82-2.65-17.9-2.67l-.1-.03c-.14-.07-14.45-6.58-20.6-10.12l-11.2-6.34-17.8-10.2c-2.56-1.73-5.73-3.9-9.47-8.36-3.58-4.08-11.63-17.3-11.97-17.87l.86-.52c.08.14 8.35 13.7 11.88 17.73 3.66 4.37 6.64 6.4 9.26 8.18 2 1.32 10.37 6 17.75 10.16l11.22 6.34c5.93 3.42 19.56 9.64 20.47 10.05.73.16 9.22 2 17.7 2.64 3.36.25 5.32 1.82 7.8 3.82.4.36.75.64 1.07.9 1.3 1.05 2.22 1.8 2.25 3.93.03 2 0 5.7-.62 7.94-.54 2.17-1.24 3.4-2.2 3.85a1.61 1.61 0 0 1-.8.2z" fill="#cc7a5e"/><linearGradient id="D" gradientUnits="userSpaceOnUse" x1="333.021" y1="196.574" x2="328.05" y2="212.136"><stop offset="0" stop-color="#ebffff"/><stop offset="1" stop-color="#c2e4f9"/></linearGradient><path d="M327.74 195.25l-4.45 14.13c-.07.63.13 1.16.67 1.4l8.14 2.42c.63.07 1.16-.13 1.4-.67l4.5-13.77c.07-.63-.13-1.16-.67-1.4l-8.07-2.83c-.72-.1-1.3.18-1.54.72z" fill="url(#D)"/><linearGradient id="E" gradientUnits="userSpaceOnUse" x1="232.153" y1="123.932" x2="322.43" y2="243.575"><stop offset="0" stop-color="#b9e4ff"/><stop offset="1" stop-color="#84b4d7"/></linearGradient><path d="M286.23 164.34c-8.25-4.2-13.05-10.13-17.9-18.46-5.45-9.35-12.12-22.77-17.35-29.84-8.75-11.84-20.77-22.67-36.95-12.72s-11.06 35.02-6.08 47.08c5.18 12.54 13.08 27.85 30.54 43.03 17.38 15.1 44.23 22.62 64.93 25.38 10.38 1.38 19.6-1.73 22.3-9l2.85-9.94c3.2-8.68-.84-18.36-9.26-22.18-.01 0-25.12-9.28-33.06-13.34z" fill="url(#E)"/><linearGradient id="F" gradientUnits="userSpaceOnUse" x1="267.997" y1="241.763" x2="273.602" y2="195.253"><stop offset="0" stop-color="#4479b2"/><stop offset="1" stop-color="#4479b2" stop-opacity="0"/></linearGradient><path d="M227.52 182.92c5.2 5.8 9.92 11.38 24.95 20.06 10.45 6.03 20.5 9.1 28.18 11.24 13.03 3.62 22.44 5.33 29.04 4.84 13.66-1.02 15.66-8.68 15.66-8.68l3.92-12.9-30.67-13.82c-12.8-6.4-55.14-4.54-68.07-17.2-15.18-14.83-8.74 10.06-3 16.46z" fill="url(#F)"/><g fill="#e6f7ff"><path d="M215.34 103.12l-.2 1.1-1.04-.8zm-4.74 19.7l.47-.6.38.7zm-5.86 5.33l.38-.6.38.7zm9.18-6.45l-.47-.6.76-.2zm-2.46-15.27l.76.4-.76.7zm-4.54 12.77l.85.3-.75.8zm-2.27 1.6l.85.3-.76.7zm12.1-18.8l1.42-.6-.1 1.8z"/><path d="M220.54 100.5l1.6-.3-.47 1.8zm-1.6.6l1.04.5-1.04.9zm3.12 1.4l.76.4-.76.6zm.76-2l.75.3-.75.7zm-16 10.66l.47-.5.28.7zm4.17-2.6l-.76-1.1 1.42-.4zm-1.62 2.1l-.47-.6.75-.2zm-.76 3.92l-.1.9-.85-.5zm-2.82-.8l.56.6-.85.3zm3.96.7l.66.1-.57.6zm9.18-7.64l.66.3-.57.6zm1.98-2.52l.67.3-.57.6zm2.46-1.6l.66.2-.56.5zm.85-.42l.67.3-.57.5zm-16.73 21.42l.66.3-.57.6zm-2 1.2l.76.2-.57.7zm3.03-3.63v.8l-.76-.4zm-.95-3.8v.8l-.75-.4zm-2.46 2.5l.38-.6.47.7zm17.6-13.46l-.28.4-.38-.5zm-3.32-1.3l.38.3-.48.2zm-1.8 6.63l.38-.3.1.6zm.96-3.2l.28.5-.57.2zm-2.66 6.73l.47-.2-.1.5zm-5.48 11.96l.47-.2v.6zm5.96-7.44l-.1-.5.56.1zm-.38 4.73l-.1-.5.47.1zm6.63-2.2l-.1-.4.47.1zm-11.55-5.92l.3.9-.95-.1zm-2.46-8.36l.67 1.7-1.9-.1zm9.18-4.72l.2.9-.95-.2zm-13.06 12.88h.76l-.28.8zm4.73 5.7l.1-.7.66.5zm-1.7-7.93l-.28 1.2-1.04-.8zm-.2 1.8l-.2.9-.75-.7zm-1.42-.7l-.28.8-.66-.8zm5.96-2.4l.67.4-.76.5zm-7.85 6.33l.3-1.3 1.04.9zm18.93-17.4l.67.3-.67.6zm-6.53 1.22l.37-.5.38.6z"/><path d="M225.65 101l.38-.5.3.6zm-1.05.5l-.38-.5.67-.1zm-4.43 1.52l-.1.6-.66-.4zm1.43-1.62l.28 1.1-1.23-.2zm-2.2 1.92l-.1.7-.66-.4zm-2.92 1.4l-.1.7-.66-.4zm-.58-2l1.13.3-.85 1.1zm4.36-1.62l.57.1-.47.5zm-3.7 5.33l.38-.5.28.6zm4.73-3.2l-.2.7-.57-.5zm5.02-.3l.47.3-.57.3zm-4.45-1.22l.38-.5.28.7zm3.13 2.42l-.2.7-.57-.5zm-.96 3.12l.48.3-.57.4zm3.13-6.44l.56.3-.56.4zm-1.14 5.43l.47-.5.2.6zm.57-3.93l-.47.2v-.6zm4.07-.4l-.57.1.1-.6zm-2.17-.6l-.47.2.1-.6zm3.02 1.1l.2.6-.66-.1zm2.08 1.32l.1.6-.67-.1zm-3.78-1.32l-.67.4-.1-.9zm-2.84 1.32l.2.6-.67-.1zm2.17.8h.57l-.28.6zm1.9 1h.56l-.28.6zm4.73-.4l.2.6-.57-.2zm-3.88 2.6h.57l-.3.6zm3.12 1.9h.57l-.3.6zm-21.1-6.23l.3 2.2-2.28-.8zm-1.8 2h.57l-.28.6zm2.46-.8h.67l-.3.7zm-1.23 4.42l.2-.6.48.4zm-4.73 10.25l.1-.6.57.4zm5.2-12.16l.2-.6.47.4zm-4.26.1l.2.7-.76-.1zm3.6 3l.2.7-.75-.1zm-2.08-4.72l.38 1.4-1.6-.2zm-.75 6.84l.2.7-.76-.1zm2.27 5.93l.1.7-.76-.1zm5.1 2.9l.37-.6.38.7zm3.22-1.1l-.38-.6.76-.2zm2.56-1.8l-.1-.5.48.1zm-3.88-1.6l.2.8-.76-.2zm3.78-1.42l.2.7-.75-.1zm4.45-.3l.2.7-.76-.1zm.27-6.94l.2.7-.75-.1zm-21.18 3.92h.57l-.3.6zm.76-.8l.1-.6.57.4zm-.38 2.6l.1-.6.57.4zm-.95 9.25v.9l-.85-.4zm1.23-.2l.66.2-.56.6zm-2.18 3.1v.6l-.76-.3zm3.4-1l.3.9-.95-.1zm-3.68-2.3l-.28.9-.66-.7zm.28 1.7l-.2.9-.76-.7zm1.05 3.3l.1-.6.57.4zm.38-5.64l.1-.6.47.4zm7.57-10.44l.1.7-.76-.2zm-3.4-.9h.57l-.3.6zm2.26 4.72l.2-.6.47.5zm-7.56-2.2l.47-1 .67 1zm4.9-3.92l.57-.4.2.8zm-1.6 0l.57-.4.2.8zm6.8-.9l-.28-.7.85.1z"/><path d="M215.15 106.03l1.23.4-1.04 1.1zm.57-1l.38.3-.48.2zm-.85 3.52l.28.4-.57.2zm-2-2.32l.38-.5.28.6zm-.76 1.9l-.28-.7.85.1zm1.42 1.8l-.28-.8.76.1z"/><path d="M215.44 112.77l-.2-.7h.75zm-2.46-5.23v1.3l-1.23-.6zm-3.88 4.83l-.48.7-.56-.8zm2.65 2.2l-.48.7-.57-.8zm7-10.16l-.48.8-.47-.9zm1.8 3.52l-.47.8-.47-.8zm-5.96-1.3v.8l-.75-.4zm-4.73 3.3l.57.1-.47.6zm2 0l.28-.5.38.5zm-1.04 2.42l.28-.6.48.6zm4.35-2.02l.57.1-.47.5zm10.6 2.02l.38-.1-.1.5zm-3.12 2.2h.47l-.28.4zm-2.1-4.33l.38.7h-.85zm-2.17 5.03l-.2.7-.66-.5zm4.73-4.93l-.2.7-.66-.5z"/><path d="M220.26 113.27l.47-.5.2.7zm4.07-3.62l.38.4-.67.3zm-14.67 2l.3-.6.38.6zm-1.23 7.04l.57.4-.57.5zm.95-2.62l.2.7-.76-.1zm-2.84 2.22l.3.7-.86-.1zm.56-1.7h.57l-.2.7zm.86-.72l.2-.6.47.5zm-.86 2.42l.28-.5.38.5zm-1.22-.6l.28-.6.38.6zm10.02-8.15l.1-.6.57.4zm-5.95 6.53l1.42.7-1.33 1.3zm-1.8-4.12l1.42.7-1.33 1.3zm-2.67 6.14l-.3.9-.75-.8zm7.87-2.12v2l-1.98-.9zm-2.65-7.64l.1 2-2-.9z"/><path d="M213.54 104.73l-.66 1.9-1.6-1.6zm-5.58 7.13l.1 2-2-.8zm1.42 2.4v1.9l-2-.9zm1.62-3.2v2l-1.9-.9zm-2.2 4.92l.57 1.9-2.08-.2z"/><path d="M207.96 116.3l.28 2-1.98-.6zm6.62-6.45l1.52.7-1.42 1.3zm-5.78 7.75l1.23 1-1.6.9zm6.35-9.76l1.04.4-.85 1zm-3.97 6.54l.57-.8.56 1zm9.18-.1l-.67-.7 1.04-.3zm1.37 5.4l-.45 1.08-.8-.96zm-5.78-4.4l.73.45-.9.55zm-.63 9.53l.7-.56.22 1.02zm1.72-11.2h-1.13l.66-1.2zm2.18-7.34l-.28.9-.76-.7zm-8.8 2.72l.76.5-.85.6zm1.04-3.62l1.52.7-1.33 1.3zm2.56-.3l1.6 2-2.64.9zm8.42-4.83l1.32 1.5-2.08.7zm-9 8.75l-.1 2.6-2.55-1.2zm2.65-4.53l1.13 1.2-1.6.8zm-.85-1.92l1.23 1.1-1.7.7zm.25 16.1l-.47 1-.85-1zm-2.64 1.2l-.95-.1.47-.9z"/><path d="M217.4 119.2l.75.5-.85.6zm-3.38-8.04l.66.7-1.04.4zm-1.8-5.73l2.65-2.4 1.23 3.82zm-3.6 2.5l2.75-2.5 1.13 4.02zm-2.17 3.62l2.17-3 1.9 3.7zm12.58-8.34l-.76 1.7-1.42-1.6z"/><path d="M215.15 103.02l3.22-1.8.28 4.12zm-10.22 13.28l.95-3.62 3.12 2.5zm10.03-1.22l-1.5.2.57-1.7zm-5.43 18.94l1.44-.73.07 1.9z"/><path d="M205.23 132.72l1.44-.74.07 1.9zm5.73.68l1.16 1.63-2.1.56zm-6.16-5.3l1 1.7-2.12.44zm.13-5.32l.64 1.86-2.1-.04z"/><path d="M204.7 133.15l1.4 1.27-1.95.97zm3 .05l1.5 1.18-1.97 1.07zm-1.26-1.74l1.06 1.72-2.16.25zm1.1 5l1.5 1.36-2.03.88zm3.4-19.17l.38 2-2.08-.5zm-.82 5.63l-1.9.17.7-2.17zm-.7-2.03l-1.9-.2 1.04-2zm-1.4 7.76l1.62.02-.9 1.65zm2.32 7.5l1.44-.75.08 1.9zm-2.52-10.25l1.1-.27-.15 1.28zm.48 7.56l-.08-1 1.02.42zm7.44-5.74l-.85-.2.6-.94zm4.16 2.26l.27 1.03-1.24-.13zm-7.4.5h.96l-.4.95zm5.56 7.7l.2-.97.8.58zm6.15-17.32l.1 1.1-1.2-.5zm-6.98-1.68l.93.17-.64.86zm3.07 9.03l.35-.78.7.76zm-7.16-8.33l1.83.93-1.8 1.6zm1.4 6.04l.72-.76.4 1.03z"/><path d="M213.9 120.1l-.95.6-.1-1.3zm-1.7-7.33l.2.9-.94-.2zm-6.25 7.03h.95l-.48 1zm18.2-11.46l-.95.6-.2-1.3zm-2.46-7.14l.38.9-1.04-.1zm-5.58 7.75l.94-.1-.37 1zm-3.17 16.97l-.73.85-.56-1.26zm-4.13-6.28l.5.75-.97.22zm-3.48 8.9l.88-.34-.1 1.1zm-1.6-3.06l1.6.1-.77 1.66zm2.2-1.03l2.2 1.2-2.23 1.73zm1.5 2.65l1.25 2.22-2.8.48zm-.16-9.7l.38 2.6-2.74-.8zm-.9 3.87h1.6l-.78 1.76zm-1.96-.54l1.6.4-1.24 1.53zm10.28 13.1l.16 1.12-1.23-.24z"/><path d="M212.52 137l-.83.5-.1-1zm4.08-3.95l.97.01-.5.94zm-10.18-13.15l-.28.9-.76-.7zm2.6 8.73l.84.17-.65.96zm8.5-22.1l.56 1.9-2.08-.2zm-13.94 13.36l.86-3.72 3.2 2.52zm-.25 4.1l.25-3.8 3.57 1.94zm-.05 5.18l-.08-3.74 3.68 1.4zm.6 5.28l-.54-3.67 3.94 1.06zm.8 4.4l-.76-3.68 3.98.72zm8.14-13.54l-.8.45-.02-1zm2.24 1.28l-1.22 1.02-.43-1.75z"/><path d="M214.58 123.12l-.8.45-.02-1.1zm-2 1.78l-.8.35-.02-1zm5.7 3.06l-1.02.83-.37-1.24zm-3.48-7.64l.4 1.04h-1.24zm-5.5 9.34l1.06-.2-.28 1.18zm1.15 13.74l1.52-.64-.01 1.9zm-3.38-1.87l1.52-.64-.1 1.9zm.93 6.13l.36.9-1.05-.03z"/><path d="M212.75 140.84l1.4 1.25-2.02.88zm-5.83 1.16l1.4 1.35-1.95 1zm1.78.5l1.4 1.35-1.93.9zm-.27-3.73l1.4 1.35-1.92.8zm.85 8.8l1.5 1.23-1.86 1.05zm-.64-2.68l1.4 1.34-1.95 1zm3.06-.58l1.43-.74v1.9zm-3.24-10.34l.93-.6.15 1.3zm1.64 7.27l-.2-.92 1.13.22zm6.45-7h-.97l.5-1.05zm4.75.9l.46 1.05-1.26.06zm-7.1 2.15l.9-.3-.22 1.07zm6.88 6.13l.01-1 1 .5zm-4-3.33l.47 1.05-1.26.06zm-1.68 3.12l-.76.72-.27-1.03zm4.4-5.64l.9-.2-.2 1.08z"/><path d="M205.7 143.38l-1.06-3.6 4 .53zm1.17 3.62l-1.06-3.6 4.02.33zm11.08 15.3l1.22-.75.15 1.6zm-2.53.4l1.15-.83.3 1.6zm1.68 3.88l1.08-.9.35 1.58zm-.55-2.43l1.22-.66.15 1.5zm2.1-5.9l1.63 1.1-1.84 1.27zm-4.6.36l1.62 1-1.84 1.38zm-2.48-3.1l1.63.9-1.74 1.38zm4.94 11.96l-1.1-1.87 2.43-.23zm2.8-2.46l1.43.76-1.4 1.18zm-3.6-4.9l1.37.93-1.47 1.08zm5.47 8.1l1.06.72-1.12.8zm-9.95-21.07l1.5 1.14-1.86 1.14zm3.34 5.7l-1.55 1.18-.56-2.1zm-2.2-2L210.8 152l-.52-2.2z"/><path d="M214.44 156.02l1.35-.88.18 2zm6.2 10.93l1.18-.75.18 1.6zm-2.15 2.48l.87-.7.3 1.22zm-5.62-20.48l.78-.8.47 1.2zm3.7 6.5l-.47-.9 1.05-.1zm4.2-8.62l-.96.3.2-1.1zm-8.52-.34l2-.6-.44 2.36zm7.06 3.66l-.07-1 1.05.43zm.53-5.16l-.4 1.08-.84-.9zm-6.03-4.24l.75.62-.88.47zm-.36 9.54l.8-.68.26 1.1zm6.76-12.25l-.3 1.17-.97-.9zm-6.47-3.6l.8.5-.84.6zm.72 9.48l.65-.63.38.94zm-2.42 12.78l1.36-1 .27 1.9z"/><path d="M212.43 154.4l2.5-.18-1.07 2.78zm3.64 2.13l1.9 1.6-2.5 1.38zm-7.43-10.06l1.98 1.64-2.45 1.43zm2.66 6.33l1.36-.78.27 1.8zm-2.27.02l1.47-.76.14 1.8zm13.87 10.88l-.57.6-.32-.84z"/><path d="M210.24 151.38l.36.9-1.15-.03zm6.68 6.55l.97-.1-.5 1.1zm-7.97-5.43l-1.02-2.88 3.37.25zm2.22 4.4l-1.8-3.3 4.04-.46zm1.7 3.78l-1.7-3.3 4.04-.37zm1.9 3.96l-1.6-3.04 3.42-.06zm3.74 6.04l-1.27-1.96 2.6-.6zm-.95-19.6l-.2.9-.75-.7z"/><path d="M216 153.05l-.4 1.6-1.43-1.2zm3.44 3.2l-.2 1-.96-.8zm-2-8.06l-.3.88-.75-.7zm-.27 2.77l-.4.8-.66-.7zm4.65 23.83l1 .23-.67.92zm-1.1-4.1l-.66 1-.6-1.23zm5.62.92l-.68.92-.65-1.16zm-.9 2.48l-.68.92-.65-1.15zm-6.85-19.64l-1.55.78-.08-1.98zm2.88 7.58l-.83.82-.48-1.25zm4.62 6.44l-.13.7-.6-.5zm-3.9-2.05l.5.3-.5.43zm.56 5.7l.38-.4.23.56zm4.38-17.6l-.4 1-.77-.9zm-5.26-4.13l.67.6-.77.5zm-.64 8.65l.68-.5.18.9zm11.12 18.2l-.34.87-.67-.8zm-4.6-3.6l.58.53-.68.43zm-.56 7.58l.6-.43.17.8zm-1.86-15.26l-.04.67-.62-.32zm-4.14-1.33l.54.2-.46.46zm1.4 5.52l.32-.5.33.55zm1.5 6.12l.68-.52.23.96zm-2.2-2.42l1.23-.35-.14 1.43zm-.27-.48l.58-.7.43.93zm-1.07.2l.74-.6.27 1.15z"/><path d="M227.4 179.05l.3.55-.63.05zm-6.88-5.35l-1.24-1.92 2.34-.68zm4.86 6.17l-1.3-1.5 2-.68zm-54.58 13.78l1-.7-.9-.6zm-1.9 3.93l-.5-1.67-1.1 1.08zm-8.9 4.22l-.6-1.57-1.1 1.08zm2.9 1.2l-.5-1.47-1.2.88zm5.8-27.94l-1.4-1.57-.7 1.67zm-.9 3.04l-1.3-1.58-.8 1.58zm-6.9 17.42l-1.4-1.67-.8 1.67z"/><path d="M160.4 194.24l-1.1-1.28-.6 1.38zm13.5-27.54l-.6-1.97-1.4 1.18zm1.3 9.15l-.7-1.97-1.3 1.18zm-6.6 8.15l-.8-1.97-1.3 1.28zm-2.3 0l-2-.4.3 1.77zm-1.2 10.34l-2-.6.2 1.77zm4.2-13.97l-2-.4.3 1.77zm-1.8 7.67l-.7-1.96-1.3 1.27zm-8.7 10.72l-.5-1.67-1.1 1.08zm4-10.23l1.2-1.77-1.8-.3zm14-18.98l1.3-1.47-1.8-.5zm-2.7-7.38l1.3-1.57-1.8-.5zm6.9-3.24l1.2-1.57-1.8-.4zm-6.4 20.17l1.1-1.67-1.8-.4zm-1.6 3.53l1.1-1.67-1.8-.4zm4.1-24.68l.9-1.68-1.8-.1z"/><path d="M182.4 146.24l1-1.38-1.4-.2zm-3.2 2.26l1.8-.3-.8-1.77zm6.2 4.04l1.1-1.28-1.4-.5zm-4.3-4.44l1.1-1.28-1.4-.5zm-20.4 44.07l1-1.37-1.5-.2zm1.2 2.36l1-1.47-1.5-.2zm1.6-5.5l-.6-1.68-1.1 1.1zm4.4 1.77l-.7-1.87-1.3 1.18zm7.3 7.27l-1 .1.4.8zm-11-8.85l1.4.3-.2-1.18zm-1 1.88l.6-.98h-1.1zm.4 5.6l-.8-.8-.4 1.08zm9.3-20.07l1.2-.7-1.1-.78zm3.3-11.7l1.2-.7-1.1-.8zm-5.3 13.57l1.2-.7-1-.78zm-4.9 4.13l-.5-1.08-.7.8zm1.2-2.65l-.5-1-.7.6zm8.3 4.02l-1.2.1.5.88zm-4.3-9.24l-1.2.1.5.9zm.5-4.03l1.1.9.3-1.18zm.6-2.85l1.1.8.3-1.18zm6-17.5l.5 1.67.4-1.27zm-9.8 20.56l2.2-.4-1.2-1.57zm1.5-3.25l2.1-.3-1.2-1.58z"/><path d="M171.7 175.65l.8-2.07-2 .4zm2.3-4.92l.8-2.06-2 .3zm-6.2 16.43l.7-2.17-1.9.4zm-6 9.44l.8-2.07-1.9.2zm23.1-35.02l-.7-.98-.5.9zm1.8-13.58l-.3 1.18 1-.2zm-8.7 13.78l1 .8.2-1.08zm-.7-9.24l-.5 1.08h1zm-3 11l-.3 1.08h1zm4-13.28l1.3-.2-.6-1zm-6.3 38.07l-.9.2.5.6zm3.8-1.67v.78l.6-.3zm-5.7-2.87l.8.2-.1-.7zm-8.7 13.2l-.9.1.5.7zm3.9-1.58l-.1.7.6-.2zm-5.6-3.05l.7.3-.1-.68z"/><path d="M190.2 177.8l.7-.1-.4-.6zm-7.7.9v-.8l-.6.2zm-4.6-6.9v1.38l1.2-.5zm-1.6-6.38l1.2.3-.3-1.1zm-5.8 7.48l.5-1.1-1-.1zm16.5-28.33l-.6 1.08 1.1.1zm-2.3-2.17l-.6.98 1 .1zm-.4-2.95l.7.8.3-.88zm-5.3 9.95l.9-.4-.6-.6zm2.2 5.4l.5-.8-.8-.1zm1.1 8.56l.1 1.08.9-.4zm-8.5 8.44l.2 1.97 1.6-.8z"/><path d="M184.9 158.93v1.18l.9-.4zm-2.9 3.64l.1 1.18.9-.5zm5.1-13.97l2 .4-.4-1.78zm-3.3-9.44l1.9-.5-.8-1.77zm2.4 3.34l1.9.4-.3-1.77zm-4.7 6.3l1.9.6-.2-1.77zm-17.9 36.78v-1.47l-1.1.5zm1.3 6.4l-1.2-.3.2.98zm6.2-7.08l-.6 1 1 .1zm-2.7 2.16l.6 1.28.8-.9zm-3.8-5.5l1.1-.1-.6-.98zm-2.5 9.15l.1-1-1 .3z"/><path d="M162.1 191.98l.1-1.38-1.1.4zm.9 6.6l-1.1-.4.1 1.08zm6.5-7.27l-.6.98 1 .1zm-1.2-11.72l2.3-1.96-2.5-1.1zm-8.3 20.17l1.5-1.28-1.5-.8zm-3.5-2.75l3-.7-1.6-2.36zm3.2-7l3-.7-1.5-2.56zm-1.5 3.35l3-.7-1.7-2.26z"/><path d="M161.3 186.57l3-.8-1.7-2.07zm1.4-2.95l3-.8-1.7-2.16zm1.4-3.15l3-.8-1.7-2.06zm3.8-2.27l1.4-2.76-2.7-.1zm3.2-7.57l1.4-2.65-2.7.2zm1.7-3.23l1.4-3.44-2.7 2.16zm-5.5 6.28l3-.78-1.7-2.17zM155 200.43l3-.78-1.7-2.17z"/><path d="M157.2 204.86l-.4-3.05-2.3 1.48zm3.9-.8l-.4-2.95-2.3 1.48zm17.5-53.3l2.8 1.47.1-2.85zm-2.5 11.5l2.3-2.06-2.5-1.08zm-5.5 27.35l1.2.2-.2-1.08zm-5.7.18l.5-.98h-.9zm5.4 6.3l-.8-.6-.2.88zm-3.8-20.94l-1 2.26 2-.1zm2.4-1.96l-.7 2.16 2-.2zm6.2-11.42l-1.3-1.47-.7 1.67zm-2 3.84l-1.3-1.58-.8 1.77zm5.7-9.84l1.1.9.3-1.18zm1-2.65l1 .98.4-1.28zm-4 2.75l2.1-.1-.9-1.87zm1.3-2.95l2-.5-1-1.67zm4.4 3.15l.9-1.97-2 .2z"/><path d="M183.4 157.06l-.1 1.28 1.2-.4zm-1.1-6.5l1.2.3-.2-.98zm-2.4 9.53l.6-.98-1-.1zm-6.1 5.7l1.4-2.85h-2.7zm4.5-9.92l1.7-2.75-2.4-.2zm-4.6 4.22l3-1.18-1.6-1.87zm8-16.7l3.1-.8-1.6-2.26zm-1.4 2.84l2.4-.7-1.1-1.96z"/><path d="M173 161.5l-1.1 2.46 2-.3zm1.7-2.28l-.7 2.17 1.9-.2zm-4.2 35.4l1.2.2-.2-1.08zm-5.7.2l.5-.98h-.9zm5.4 6.4l-.8-.7-.2 1zm-1.5-9.15l-.2-1.37-1.1.7zm2.2 6.2l-1.2-.1.3 1zm4.9-8.47l-.4 1.08 1-.1zm-1.6-8.45l.3-.98-.9.2zm-.1 4.73l-.7-.4v.8zm5.3-4.33l-.5.6.7.2zm2.6-14.65l-.4.8h.8zm1.2-4.14l.5.5.2-.6zm-5.8 2.84l.6-.5-.6-.3zm11.2-20.25l.5-.7-.7-.1zm-.6 7.58l-.5-.5-.3.6z"/><path d="M181.6 168.76l1-.68-1-.6zm-3.5 4.54l-.5-.9-.5.7zm8.3-.3l-1 .3.5.7zm-4.1-1.2l-1.2-.68-.1 1.27zm6.1 2.18l-.8.78.9.4zm-3.2-9.15l.6 1.08.6-.88zm1.6-3.63l-.5-.8-.5.8zm3.2 3.24l-.8.3.5.6zm.8-6.8v.9l.7-.4zm-1-22.52l-.3-2.07-1.5.9zm2.3 3.34l1.5-1.38-1.7-.68zm-1.3-7.77l1.5-1.28-1.7-.78zm7.6-1.77l1.5-1.38-1.7-.78zm-5.3-2.36l1.2-1.57-1.8-.4zm7.2-11.1l1.1-1.38-1.5-.4zm-3.7 1.96l1.7-.1-.7-1.37zm5.1 4.92l1.2-1.28-1.4-.5zm-2.9-5.1l1.2-1.28-1.4-.5zm-6.5 16.52l1.3-.4-.9-1zm-5.5 4.92l1 1.08.5-1.08zm1.2-2.77l.9 1.1.5-1.18zm7.9-16.6l.4 1.67.5-1.18zm-10.3 16.22l2.3-.1-1.1-2.16zm3.6 3.64l1.1-1.97h-2z"/><path d="M198.4 131.78l-.4-1.18-.8.7zm-3.7-.68l.9.9.3-.98zm.1-9.64l-.6 1.08 1.1.1zm-4 10.62l-.6 1.08 1.1.1zm5.1-12.78l1.4-.2-.6-1zm-3.2 21.53l-.2 1.48 1.2-.3zm-.3-6.5l1.1.5-.1-1.08zm-7.1 6.3l.7-1-1-.3z"/><path d="M200.7 121.26l-.7 1.08 1 .1zm2.3-8.66l-.6.9 1 .2zm-.6 2.07l.7.8.3-.9zm-5.7 3.73l.9-.4-.6-.6zm1.9 5.6l.6-.78-.9-.2zm.4 9.46l-.1 1.18.9-.3zm3.2-3.94l-.1 1.18 1-.3zm-5.5 4.53l-.1 1.18 1-.3zm7-24.7l1.6.8-.2-2.17zm-3 7.18l2 .4-.3-1.77zm-1.5 1.46l1.9.7-.1-1.87zm-12.9 20.57l1.9-2.56-2.8-.2zm2.4-3.54l1.9-2.56-2.7-.6zm7.5-15.25l2.7 1.58.3-2.76zm-3.5 11.42l2.7-1.67-2.3-1.47zm-1.4-1.38l-1.1-1.68-1 1.48z"/><path d="M188.9 133.46l-1.2-1.97-.9 1.67zm7.3-8.76l.9 1 .5-1.2zm1.1-2.46l.9 1 .5-1.18zm-5.3 1.86h2.2l-.9-2.06zm1.7-2.64l2.2-.1-.9-1.77zm5.1 3.74l1-1.87-2 .1zm1.8 1.08l-.1 1.37 1.2-.4zm-.7-6.5l1.1.4v-1.08z"/><path d="M191.9 125.88l.7-.98-1-.1zm-2.1 8.36l1.9-2.56-2.6-.5zm5.9-9.54l1.8-2.46-2.4-.4zm-6.2 3.54l3.2-.6-1.5-2.26z"/><path d="M199.7 113.5l2.4.1-.3-2.36zm-1.8 2.15l2.1-.1-.6-1.77zm-8.7 13.08l-1.4 2.46 2.1.1zm2.7-.78l-1.1 1.96 2 .1zm5.7 8.95l-.5.7.8.1zm1.9-3.74l.5.6.3-.6zm-6.2 1.67l.7-.3-.5-.4zm11.5-23.2l.3-.7-.7-.1z"/><path d="M208.3 105.42l1.1.3-.1-.98zm-3 2.36l1.5.3.1-1.57zm-3.5 3.35l2.4 1.18-.6-2.95zm-1.4 12.97l-.2 1.28 1.2-.3zm6.8-17.8l1.1.5-.1-1.08zm-7 8.37l.7-.98-1-.2zm4.3-1.27l-.5-.5-.3.6zm-1 11.8l-.5-.78-.5.68zM202 118v.8l.7-.3zm-37.9 85.98l-.4.88.8-.1zm1.2-3.94l.5.5.3-.7zm-5.8 2.66l.6-.4-.6-.3zm9.8-21.05l.3-.7h-.7zm-.1 6.98l-.6-.5-.2.7zm15.3-15.23l.9-.8-.9-.5zm-3.4 4.7l-.5-1-.5.8zm8.3-.48l-1 .3.5.7zm-4.1-1.1l-1.3-.68-.1 1.27zm6.1 1.97l-.8.8 1 .3zm-3.4-9.15l.6 1.1.6-1zm-18.9 27.45l-.6-.7-.4.78zm3.6 2.85l-.8.4.6.4zm-.1-6.9l.1.8.6-.4zm8.6-10.42l.3-.9-.8.1zm-.6 4.13l-.7-.4-.1.68zm5.4-3.54l-.6.6.6.2zm-7.6 9.83l-.3.7.8-.1zm-6.1 5.22l.7.3.1-.6zm11.1-16.13l-.8.98 1 .3zm2.6-5.02l.6.88.5-.88zm-8.2 1.87l1-.5-.7-.6zm4.3.4l1.3.5-.1-1.27z"/><path d="M175.7 178.1l.7-.9-1-.2zm4.9 8.27l-.8-.9-.5 1.1zm-3.4 3.83l.7.5.3-.7zm-3.9-2.35l.7-.5-.7-.4zm1 6.68l-.3-.78-.5.5zm10.9-46.63l-.2-1.37-1 .68zm2.3 6.2l-1.2-.1.3.98zm4.9-8.45l-.4 1.08 1-.1zm2.6 2.95l-.3.7.7-.1zm-1.2-2.56l.7.5.3-.7zm-3.9-2.36l.6-.4-.6-.4zm.9 6.7l-.2-.78-.5.5zm-8.6 10.93l-.2-1.48-1.1.8zm2.2 6.2l-1.2-.1.3.98zm4.9-8.57l-.4 1.18 1-.1zm2.6 3.05l-.2.7.7-.1zm-1.2-2.76l.7.7.3-.88zm-3.9-2.16l.7-.5-.6-.4zm1 6.7l-.3-.8-.5.5zm-13.7 32.95l1-.3-.6-.7z"/></g><g fill="#da7f57"><path d="M342.7 209.54l1.1-.7-1-.67zm-6.7 1.72l.7-1-1.38-.3zm-2.27.74l1.7-.98-.9-1.58z"/><path d="M334.55 209.52l1.27-.6-.6-1.28zm1.75 2.54l.9.01-.4-.9zm3.05.58l-.7.5.65.4zm.3-.94l-.6.6.77.45zm-1.06-2.22l-.6.6.88.4zm2.06.62l-.7.4.6.6zm.16 1.3l-.9-.1.2.9zm1.58-1.6l-1.04-.37-.26 1.46zm-3.65 3.8l-.47-1.93-2.1 1.24zm-3.05-.84v-1.48l-1.8.98z"/></g><linearGradient id="G" gradientUnits="userSpaceOnUse" x1="306.135" y1="176.054" x2="297.19" y2="214.7"><stop offset="0" stop-color="#ebffff"/><stop offset="1" stop-color="#c2e4f9"/></linearGradient><path d="M298.46 218.2l7.15.74 7.85-25.55c4.28-14.6 4.4-16.36 4.4-16.36s-5.6-2.12-9.63-3.9c-3.2-1.5-9.37-3.38-9.37-3.38l-13.8 45.56c-.01 0 10.44 2.32 13.4 2.9z" fill="url(#G)"/><g fill="#4479b2"><path d="M313.23 212.57l1.26-1.26.55 1.44zm3.8 2.36l1.2-1.32.62 1.42zm-4.23 3.24l-.68-.8.84-.25zm1.42-6.87l-.7-2.02 1.8.1zm6.5 3.56l-.63-1.73 1.56.13zm4.72-4.5l-1.46-1.14 1.36-.82zm-7.63 6.74l-.7-2 1.82.1zm-1.98-1.3l-.8-2h1.72z"/><path d="M318.68 214.08l-.8-1.9h1.82zm-5.25 1.25l-.05-2.1 1.7.65z"/><path d="M313.37 216.37l-.42-2 1.8.37zm5.7-6.6l1.07-1.18.5 1.3zm-7.2 4.37l.9-1.56.83 1.27zm9.25-4.87l.8-.7.28.9zm-4.24 2.47l.76.5-.64.47zm1.32-7.2l-.27.9-.52-.6zm.66 3.22l-.88.67-.1-.97zm4.44-1.87l-.6-.58.67-.32zm-2.15 7l.4-.77.45.6zm1.3-2.22l.8-1.3.75 1.18zm.52-1.36l.3-2.36 1.77 1.08zm4.15-9.3l.24-1.86 1.34.9zm-7.03 13.1l-.84-2.2 2.03-.02zm2.27-9l.4-1.47 1.08.8zm3.1 3.18l.3-1.53 1.02.88zm-12.46 1.12l-.85-.9.93-.43z"/><path d="M312.74 210.2l-.85.43-.03-.95zm-1.07-4.96l.6-.83.4.78zm6.97 4.3l.38-1.04.63.66zm4.74-2.48l3.14-.12-.92 2.8zm-1.94 3.94l3.2.64-1.7 2.55zm-2.84 2.33l2.82 1.7-2.42 1.8zm7.36-7.93l-1.43-.97 1.2-.88z"/><path d="M324.5 203.02l3.2-.33-.93 2.97zm-8.55 11.16l2.23 3.12-3.28.94zm1.52-5l-1.55.56.2-1.5zm-10.5 9.68l.1-2.08 1.64.7zm5.58-5.53l-.33-2.1 1.8.46zm-1.95.24l-2 .62.28-1.9zm2 .44l-1.87.95-.07-1.9zm-3.1-4.76l1.55-1.74.72 1.87z"/><path d="M312.2 210.33l-1.18-.1.55-.94zm5.33 1.4l-.17-.94.8.2zm-6.7 5.02l.92-.48-.01.95zm10.95-15.96l-1.02.02.32-.9z"/><path d="M326.36 201.7l-.22-.87.74.2zm-5.36 4.77l.7-.46.06.8zm-9.07 11.18l-.56-2.77 2.34.5zm-3.33-2.45l1.63-.7-.1 1.6z"/><path d="M308.8 217.67l1.45-1.18.28 1.6zm2.34-.53l-.6-.78.84-.25zm10.94-9.24l-.32-1.76 1.52.33zm-9.53 7.03l2.08 3.32-3.4.7z"/><path d="M309.42 215.3l1.55 3.64-3.45.1zm.5-3.9l-.9-.07.46-.77z"/></g><path d="M309.08 207.56l-1-.07.45-.77zm-1.3 3.04l-.9-.07.37-.77z" fill="#7db7ea"/><path d="M284.95 215.48l-.15-1.04.94.24zm-1.5-1.45l.8-1.97 1.42 1.34zm3.2-14.4l1.06-.28-.15.9zm-18.15 5.75l1.6-.12-.52 1.33zm.1 2.46l1.63.04-.62 1.27zm-4-1l1.6.07-.7 1.22zm2.32.22l1.52-.1-.45 1.32zm4.22-1.25l.95-2.03 1.37 1.42zm.43 4.6l1.04-2.04 1.27 1.43zm3.66 2.12l1.06-1.95 1.17 1.45zm-8.65-5.35l.18 2.43-2.03-.76zm-1.82-1.2l.93-1.57.98 1.28zm5.4 2.88l.8-1.63 1.16 1.2zm-8.42-4.16l.6-1.23.9.92zm21.92 7.33l.9-1.98 1.3 1.36zm-2.82-1.48l-2.15-.2.9-1.72zm2.5 2.1l-2.24-.24.94-1.7zm-8.22-4.7l2-.16-.65 1.48zm-11.64-4.45l1.6-.1-.53 1.3zm-1.72 2.7l1.25.07-.55.98zm21.54 2.6l1.25.32-.7.87zm-5.42-2.38l.04 1.06-.95-.36zm8.02-3.87l-1.06.33.17-1zm-1.45 6.42l2.28-.74-.34 2.06zm-2.12-6.27l.55.98-1 .06zm30.22.5l-.73-.7.83-.4zm2.65 4.16l.43-.78.33.64z" fill="#4479b2"/><g fill="#7db7ea"><path d="M306.95 206.94l.92.22-.52.7zm-9.5 4.02l1.9-.05-.64 1.48z"/><path d="M299.02 215.38l1.9-.05-.64 1.48zm-1.88-3.38l.42-2.12 1.7 1.06zm4.76 6.43l.52-2.1 1.47 1.07zm-4.2-.58l.85-2 1.35 1.32z"/><path d="M297.44 214.77l.94-2.02 1.27 1.43zm2.13 1.98l.12-2.17 1.78.95zm-5.37-1.55l.75-2.08 1.45 1.4zm7.9-1.88l1.54-.82-.07 1.6zm-6.83-3.1l1.9-.03-.66 1.47zm9.9 3.2l1.17-.1-.3 1.08zm-5.35-.7l.32 1.03-.9-.12zm6.03-5.97l-.87.55-.13-.86zm-4.6-3.75l-.2-1.23 1.04.2zm-.2 5.87l.93-.45.07.97zm-6.7-5.57l.64.77-.97.26zm13.05-4.36l-.33-.88.9.1zm.7 4.1l.73-.44.08.68zm-6.23-3l.57.53-.64.24zm4.36 6.55l.9.44-.72.68zm-4.23 5.58l-1.1-.62.8-.7z"/><path d="M306.02 212.76l.26-.95.64.54zm-7.98 1.84l1-.04-.35.86zm6.6 3.05l1.55-.7v1.6zm-.04-1.32l1.7-2.15v2.1zm-2.17-.1l.6-2.76 1.92 1.33zm-4.63-7.87l-.32-1.2 1.13.1zm-1.68 2.12l-1-.03.45-.85zm2.15-5.62l.9-.56.08.96z"/><path d="M302.65 212.92l.9-.6.1.85zm2.5 2.44l1.05 3.74-3.37-.24zm-4.1-.63l1.3 3.86-3.7-.3zm-4.1-.6l.98 3.93-3.73-.54zm9.48-5.26l-1.55-.5.98-1.17zm-1.3-2.7l-1.1-.38.8-.87z"/></g><path d="M286 206.44l.08-1.1.9.38z" fill="#4479b2"/><g fill="#7db7ea"><path d="M301.92 212.1l1.1-.2-.27.94zm-13.85-1.8l1.9-.12-.54 1.55zm2.08 3.36l1.88-.22-.54 1.55zm-.4-3.63l.75-2.08 1.34 1.33zm-1.04 5.83l.87-2 1.44 1.3zm-.5-1.76l.77-1.98 1.43 1.3zm3.85.02l.67-1.97 1.43 1.32zm-6.32.2l.87-2 1.43 1.3z"/><path d="M287.17 209.2l1.9-.13-.66 1.48zm10.88 3.22l1.32.07-.54.97zm-5.95-1.12l.3 1.12-.93-.13zm7.04-5.5l-1 .56-.07-.96zm-2.6-3.6l-.01-1.27 1.07.4zm-1.44 5.7l1.06-.28-.24.92zm-5.32-6.9l.57.97-1 .07zm1.45 4.78l-.01-1.27 1.07.4zm-1.57 2.02l-1.05-.2.67-.8zm2.96 5.54l.77 3.96-3.67-.83zm-3.5-.96l.58 4-3.68-.84zm6-13.32l-.84-.65.92-.4zm3.13 3.9l.36-.75.58.6zm-7.74-.2l.97.16-.55.7zm3.35.53l-.96-.9 1.14-.4zm3.08 5.02l.55-.87.54.78z"/><path d="M288.17 207.1l.96.32-.6.7z"/></g><g fill="#4479b2"><path d="M275.03 210.34l1.9-.05-.74 1.5z"/><path d="M275.6 210.05l2.55-1.54.25 2.5zm-2.85-1.5l.92-2.7 1.9 1.6zm11.1 6.18l1.1-2.6.52.98zm-4.96-4.3l1.8-.03-.54 1.46zm.34 2.25l1.8-.16-.5 1.57zm-11.47-9.88l-.88-.18.47-.66z"/><path d="M281.02 213.6l-.23-1.13.95.2zm-8.02-7.04l1-.67.07.97zm10.14 5.14l.66 3.3-3-.65zm-3.64-1.87l.22 4.06-3.55-1.2zm-4.26-1.43l.33 4.05-3.54-1.13zm-4.7-.58l.53 3.37-3.27-1.06zm-7.05-2.12l-.15 2.68-2.14-.93zm17.3.68l-.83-.62.84-.36z"/><path d="M279.06 209.13l-1.43-1.2 1.5-.66zm-3.76-3.86l-.96-.8.95-.37zm8.7 1.2l-.8-.66.84-.42zm-2.92.34l-.8-.52.7-.53zm-25.68-2.04l.8-.82.4.95zm5.87 1.74l-1.32-.4.86-.82zm-1.84-5.33l-1.25-.45.8-.83zm-2.3 1.3l-1.25-.45.8-.82zm21.63 3.9l-1.97.26.5-1.66zm-8.88-2.07l-1.3-.26.66-.95zm-7.85-3.93l-.6-.5.66-.25zm2.03 2.87l.33-.57.4.44zm-5.26-.28l.6.13-.33.44zm17.1-5.24l-1-.6.9-.56zm3.77 3.6l.36-.84.7.56zm-7.9 1.03l.9.03-.37.75zm-19.28-6.4l-.9-.52.8-.5zm3.3 3.18l.3-.74.62.5zm-6.9.9l.8.03-.33.66zm15.6.63l-.42-.56.65-.15zm1.57 3.17l.37-.53.28.5zm-5.17-1.1l.6.23-.44.4zm-6.72-.65l1 .07-.4.76zm2.1 1.7l1.4-.38-.14 1.27zm1.38.13l1 .26-.6.7zm-.33 1.14l1.18.07-.46.82z"/><path d="M250.94 200.56l-.07-.64.6.2zm9.34 3.9l-.27 2.42-2.1-.9zm-7.24-3.3l-.34 2.1-1.7-1.02z"/></g><g fill="#76b9e2"><path d="M242.72 114.6l-.8-.05.42 1zm4.46 8.14l-1.5.4 1.3 1.48zm2.36-3.94l-1.5.4 1.1 1.3zm.56 2.04v1.83l1.98-.83zm-2.3-4.64l.22 1.84 1.8-1.15zm-2.3-3.82l.6 1.82 1.52-1.4zm6.55 7l-.08 1.84 1.95-.64zm-4 1.22l-.37 1.86 2.08-.42z"/><path d="M247.98 118.7l.13 1.8 1.8-1.15zm4.22 4.6l-.08 1.84 1.86-.68zm-8.56-13.02l1.74-.84-1.5-1.25zm2.1 8.3l-1.1 1.1 1.57.67zm4.2 5.78l-1.46.53 1.15 1.3zm-6.05-9.34l-.94.34.86 1.05zm3.9 6.23l-.55-.66-.58.82zm-9.14-11.47l.74-.68-.86-.38zm-2.1-5.48l.18 1 .88-.7zm3.02 2.5l-.87.42.72.66zm6.26 25l-.72-.63-.1 1.04zm-7.76-26.78l.45.96.8-1.02zm.15 2.73l-.52-.35-.28.96zm3.92.88l-.8-.2.05.86zm1.6 9.84l1.05-.43-.76-.9zm-.6-7.4l-.6.56.86.33z"/><path d="M240.25 114.2l1.03.07-.15-1.05zm7.43 2.6l-.82.22.72.76zm-.25-3.16l-1.2 1.12 1.58.68zm-2.38.36l-1.07 2.17 2.83.06zm.25 3.17l.5 2.36 2.23-1.5zm-1.63-4.92l-1.38 1 1.62.82zm1.05-1.6l-.9 1.2 1.8.35zm1 15.92l.6.83.7-1z"/><path d="M247.1 126.45l.9-.25-.65-.74zm-3.15.85l-.7.56.9.42zm-1.1-15.96l.75.5.13-1.1zm2.3 7.93l-.62.68 1.02.23zm2.97-6.87l-2.04-2.17-1.12 2.6zm2.7 3.57l-2.2-2.65-1 2.8zm1.97 2.83l-1.83-2.66-.96 2.9zm2.6 3.9l-1.58-2.28-1.46 2.2zm-13.92-11.86l.86-.02-.4-.77zm-.68-3.74l1.34-.53-1.05-1.1zm-1.82 6.7l.83-.17-.67-.8zm3.14-5.64l.8-.2-.4-.76zm11.27 20.18l-1.38.72 1.24 1.17zm1.75-2.47l-1.4.67 1.24 1.13zm3.25 4.8l.5.86.57-.84zm-8.53-4.6l-.13 1.93 2-.72zm.83-7l-.16 1.3 1.36-.37zm3.82 3.65l-1.15.56 1.1.96zm-3.73-.37l-1.2.47 1.1 1.1zm4.76 3.83v1.88l1.9-.77zm-.58 1.72l-.08 1.84 1.86-.68zm-2.5-2.94l-.04 1.75 1.95-.64z"/><path d="M256.68 131.26l-.05 1.93 1.92-.7zm-.58-1.98l-.14 1.9 1.96-.8zm-2.72 1.57l-1.44.58 1.24 1.18zm-6.05-10l-.96.27.7.97zm5.57 6.86l-.38-.84-.65.92zm-9.83-3.04l.65-.68-.95-.34zm.26-4.48l.13 1 1.06-.66zm4.3 7.5l-.8.5.82.6zm-.76 9.08l-.62-.58-.4.92zm1.33-3.45l.37.92.84-.95zm2.16-.73l.95.07-.5-.86zm-5.92-.1l-.87.5.85.57zm12.86-6.6l-1.73-2.68-1.33 2.14zm1.64 3.6l-1.62-2.85-1.23 2.4zm5.03 18.16l-1.44.58 1.34 1.22zm1.88-2.14l-1.4.5 1.2 1.27zm2.33 2.72l-1.44.58 1.24 1.18zm-1.62-.8l-1.48.68 1.37 1.12zm-5.46-1.74l-.14 1.9 2-.9zm2.43-4.04l-.1 1.8 2.05-.76z"/><path d="M262.45 138.06l-.1 1.8 1.93-.7zm7.25 10.17l-1.3-2.07-1.64 2.35zm-4.35 1.3l-.05 1.93 1.96-.8zm-1.95-5.38v1.74l1.9-.6zm3.95 7.84l.3 1.86 1.73-1zM254 130.67l.82 1.65 1.37-1.7zm4.67 8.48l1.76-.56-1.5-1.6zm-1.07-3.6l1.62-.5-1.27-1.62zm3.64 5.23l-1.57.64 1.56 1.2zm5.03 11.22l-1.42.8 1.45.94zm3.03-1.77l-1.47.67 1.37 1.12zm-13.65-15.5l-.93.15.65 1.04zm4.03 7.45l-.5-.86-.66.8zm-10.05-2.93l.68-.58-.98-.52zm4.8-6.55l-1.68.9 1.87 1.22zm-2.06 7.5l-.62-.6-.4.92z"/><path d="M248.43 137.44l.96.3-.03-1.2zm.57-7.04l-.08.95.88-.28zm7.76 6.86l-.88.28.67.72zm-12.92-7.72l1.07.56-.03-1.2zm-1.94-11.08l-.36.84 1.08-.08zm9.6 14l-.9.06.32.78zm11.67 6.45l-1.48.68 1.3 1.3z"/><path d="M261.2 138.18l-1.48 1.98 2.6.55zm-.46 4.56l.3 2.4 2.4-1.28zm-4.4-12.5l-.07 2.47 2.53-1.1zm2.55 5.3l-1.43.8 1.37 1.12zm2.28-1.3l-1.54.55 1.34 1.2zm.82 18.88l1.02-.1-.8-.67z"/><path d="M259.12 134.24l.5.86.66-.8zm2.2 9.94l-.5.66.96.3zm.24-9.92l-1.45-3-1.72 2.53zm2.43 4.24l-1.64-3.07-2.45 2.98zm2 3.22l-1.84-2.83-2.36 3.02zm2.27 4.48l-1.98-3.54-2 3.17zm3.18 4.83l-1.88-2.75-2.12 3.23zm-17.23-11.36l.83.35-.02-1zm3.78.83l1.42.5-.12-1.8zm.68 4.3l1 .43-.07-1.12zm-6.52-7.2l.74.3-.1-1.02zm1.7-.9l.82.12-.2-.84zm20.55 19.36l-.1 1.43 1.65-.67zm-4.67 1.78l1.55-.7-1.38-1.34zm2.95 2.4l1.48-.82-1.4-1.24zm-14.8-16.88l1.37-.94-1.6-1.1z"/><path d="M267.95 156.07l1.48-.82-1.44-1.14zm-4.7.28l1 .2-.3-1.1zm-.46-6.37l.15.93.68-.58zm7.25 3.92l-.75.22.62.6zm-16.43-8.1l.87.26-.1-1.02zm-2.3-3.57v.76l.8-.32zm9.04 6.07l-.75.22.62.6zm-4.1 3.04l1.05.34-.07-1.12zm5.02-.6l-.03.85.88-.28zm6.7 5.95l-.9.26.63.7zm6.7.6l-.93.67 1.27.67zm-1.8-1.68l-1 1.7 2.13.2zm-1.07-.62l-1.1.52 1.18.96zm1-1.28l-.98.87 1.36.7z"/><path d="M270.28 154.33l.43.5.45-.8zm3.12-.43l-1.83-2.6-2.24 2.74zm2.25 2.52l-1.9-2-1.25 2.87zm2.75 2.7l-2.14-1.77-1 2.83zm6.8 10.66l-1.08 1.15 1.84.48zm.7-3.28l-.98 1.14 1.68.4zm3.43 1.14l-.9 1.34 1.8.23zm-1.93.16l-.9 1.34 1.8.32z"/><path d="M272.22 161.47l.55 1.72 1.46-1.46zm10.1 3.13l.77 1.63 1.44-1.5zm-2.5-2.82l.65 1.72 1.44-1.5zm10.97 4.84l-2.14-.95.01 2.8zm-2.96 3.73l1.1 1.47 1.03-1.83zm-4.64-3.5l.74 1.73 1.36-1.62zm9.26 2.43l1.3 1.4.72-1.65zm-15.66-7.06l-1.02 1.2 1.77.34z"/><path d="M289.96 171.7l-.6 1.47 1.7.01zm1.42-3.12l-.8 1.45 1.8.13zm-10.53-6.24l-1.1 1.25 1.65.46z"/><path d="M278.6 162.5l-.36 2.37 2.63-.6zm-2.35-1.85l.5.94.85-.92zm10.15 14.5l.65-.66-.88-.36zm-4.8-7.66l-.15 1 1.06-.34z"/><path d="M281.27 161.6l-2.8-2.15-.87 3.72zm3.33 2.02l-2.95-1.86-.57 3.75zm3.66 2.14l-3.38-2.03-.17 3.9zm5.5 1.97l-2.53-.96.04 2.8zm-.85 6.07l.7-1.13-1.48-.26zm-13.54-4.9l.4.67.5-.63zm14.86 2.3l-.56.76.9.06zm-19.32-5.32l-.74.4.9.47zm6.42 5.42l.4.67.68-.5zm14.86-.2l.06 1.22 1.33-.6zm-.52 1l-.67 1.05 1.38.3zm.6-2.68l-.5 1.27 1.5-.1zm-1.65 1.98l.7.15-.05-.8zm2.28-2.5l-2.08-.7-.02 2.33z"/></g></svg>