<svg xmlns="http://www.w3.org/2000/svg" viewBox="0 0 480 480" xmlns:v="https://vecta.io/nano"><path d="M2711.8 107l.5-.12c-.02-.02-.15 0-.5.12zm19.8-3.25h-.03c-.04.01-.1.02-.13.04l.16-.04z"/><path d="M333 238.3c-1.7-1.3-5.3-5.8-6-6.5s2.3.6 3.9 1.2 3.5-.6.8-2.2-4.7-3.4-5.5-3.7c-.8-.4-2.8-1.1-4.3-1.6l-1.4-.5s-1.1-.3-3.2-2.7a38.22 38.22 0 0 1-.98-1.22l.38-.38c.4-.4.5-1.1.1-1.6l-1.8-2.3c-.4-.5-1.2-.5-1.7 0l-.2.2-28.8-37.4c-7.1-10.1-11.9-21.1-14.5-25.6-.42-.73-1.1-2.05-1.9-3.75l6.2-3.45s-8.4-15.6-14.8-26c-5.38-8.8-14.9-22.45-27.6-21.23-1.23-.14-2.5-.2-3.8-.17-2 .1-8.3.2-14.26 5.87-6.03 1.03-12.14 4.3-18.14 7.53-12.5 6.8-29.3 21.5-29.3 21.5l2.73 2.96c-5.96 4.43-9.06 8.18-11.43 11.74-4.2 6.4-4.6 15.7-4.8 30.1s1.2 43.9 1.2 43.9-1.6 6.3.5 13.7c2.1 7.5 2.55 8.17 3.22 9.03s2.08-.13 2.08-.13.67 3.06 2.5 2.8c1.57-.23 1.52-1.42 1.52-1.42s.53.93 1.35.86c1.14-.1 1.26-3.82 1.34-5.94.1-2.3.7-7.6.8-8.6s1 2.2 1.6 3.8 2.7 2.3 2.3-.7c-.4-3.1-.4-5.8-.6-6.6s-.9-2.9-1.5-4.3l-.5-1.4s-.6-1.1.1-4.2 8.7-34.9 10.2-39.6c1.87-5.9 10.05-13.67 14.7-16.47l3.15 3.4L191.3 206c0 .2-.1.9-.2 1.1v.1c0 .3-.1.4-.1.5v.1h81.1l-.16-2.13c9.4 8.23 21.13 17.46 28.88 23.45a1.13 1.13 0 0 0 .08 1.59l2 2c.5.5 1.2.5 1.7 0l.4-.4 4.2 3.2s5 5.4 12.2 8.4c7.1 3.1 8.2 2.7 9.3 3 1 .3.9-1.5.9-1.5s2.2 1 3.1.1c.9-1-.2-2-.2-2s1.6-.3 2-1.1c.4-.7-1.5-2.6-3.5-4.1z" fill="#fff"/><path d="M310.6 228.6c.1.2.4.1.5 0 .2-.1.1-.4 0-.5l-2.07-1.83c.1-.25.15-.52.07-.77-.2-.7-.9-1.1-1.5-.9-.7.2-1.1.9-.9 1.5.1.4.4.68.7.83l-.2 1.37v.1c0 .2.1.3.3.3s.4-.1.4-.3l.22-1.4c.03-.01.05 0 .08-.01.14-.04.25-.1.36-.18l2.04 1.78zm26.32 13.18c-.1-.28-.2-.42-.3-.6-.22-.33-.46-.6-.7-.84a14.58 14.58 0 0 0-1.3-1.19c-.78-.63-1.34-1-1.5-1.06-.18-.07.03.15.7.76l1.3 1.3a9.61 9.61 0 0 1 .81.98c.24.37.63.84.4 1.25-.1.17-.3.32-.53.45l-.37.17-.17.06-8.56-5.53a.5.5 0 0 0-.69.15.5.5 0 0 0 .15.69l8.4 5.43c.02.08.04.16.04.27.07.1.1.2.15.3a.76.76 0 0 1 .03.21c0 .14-.01.27-.08.4a.82.82 0 0 1-.65.5c-.54.1-1.24-.06-1.9-.32l-7.16-4.3c-.24-.14-.54-.07-.7.17-.14.24-.07.54.17.7l6.72 4.04c0 .05-.01.1-.02.15-.01.08-.03.16-.05.23a.59.59 0 0 1-.05.13c.01-.04.01-.08.01-.12-.03.2-.2.33-.38.25-2.5-.33-4.4-1.1-6.22-1.78l-5.1-2.12c-.24-.2-1.28-.76-2.36-1.42-1.08-.65-2.22-1.4-2.74-1.84l.1.06c-1.45-.98-2.83-2.16-4.1-3.4l-.47-.47-.24-.26-.3-.25-1.06-.82-2.1-1.55c.1.07.2.08.83.55l-1.14-.85.18-.18a6.23 6.23 0 0 0 1.82.28 6.39 6.39 0 0 0 1.73-.24c3.43-.86 5.52-4.45 4.66-8-.01-.05-.03-.1-.04-.14l2.18-2.16c1.05 1.32 1.58 1.78 1.98 2.18l.7.6.52.38c.23.14.42.3.86.45a2.2 2.2 0 0 0 .21.07l.93.33c2.27.7-.38-.22.72.07l3.87 1.4h.02c.63.3 1.27.82 1.93 1.32l-.56-.52 4.1 2.77c.58.35 1.18.8 1.3 1.34.08.63-.7.85-1.27.8-.43 0-.83-.17-1.24-.32l-1.25-.46c-.87-.3-1.53-.55-2.2-.64-.04 0-.1 0-.1.05 0 .04.03.08.06.1l.18.2.35.4.68.76 1.17 1.28 3.3 3.25c1.53 1.13 1.54.94.73.24-.72-.64-2.02-2.13-3.1-3.43l-.9-1.1h-.01l-.02-.03c-.01-.03-.02-.04-.02-.04 0-.01 0-.02.01-.02.03.01.05.03.07.04.01.01.02.02.03.02.01.01-.02 0 .02.01l.46.2.5.2.26.1.34.1c.46.1.93.14 1.42.03.44-.07 1.2-.47 1.42-1.12.1-.32.1-.67-.01-1-.05-.17-.12-.32-.2-.42s-.15-.25-.23-.33c-.6-.67-1.3-1-1.8-1.33l-1.6-1.06-1.6-1.13-.83-.6c-.3-.2-.55-.38-1-.58-1.86-.82-3.73-1.32-5.77-2.06l-.08-.03a2.29 2.29 0 0 1-.23-.11l-.35-.22c-.24-.16-.47-.35-.7-.55-.47-.4-.93-.86-1.4-1.37l-.88-1.06c.56-.6.6-1.56.1-2.2l-1.8-2.3a1.47 1.47 0 0 0-1.1-.56c-.34-.01-.68.08-.98.25l-26.15-33.97-3.13-4.2-3.1-4.7-.6-1.12-1.8-3.08.05.05-2.16-3.84.05.05-.96-1.8.2.3-3.98-7.67.03.24-1.74-3.3-1.32-2.57 2.65-1.5.12.06 2.64-1.5-1.18.63c.06-.12.14-.2.42-.35.3-.17.7-.36 1.2-.6l.5-.25c.02-.02-.02-.06-.03-.1l-.1-.2-.42-.85-.24-.46-.2-.38-.38-.6c-.85-1.63-2.35-2.96-3.14-4.7-.57-.73.6.6-.16-.55.12-.12.4.5.34.14-.7-1.13-.92-2-1.82-3.38l.08-.12c-1.25-1.76-1.85-3.6-2.75-4.75-1.2-1.87-.4-1.48-1.8-3.35l-.3-.86c-.47-.87-.54-.5-1.02-1.5.13 0-.63-1.24-.22-.74-1.13-2.22-2.77-4.2-4.3-7.13-.55-.5-1.38-1.94-1.8-2.3.04-.13-1.92-2.72-.67-1.32.1.12.27.36.23.36l.23.1c-.9-1.68-2.12-2.7-3.28-4.17.33.45.78 1.03.42.7l-1.1-1.35.3.2-1.67-2 .15.35c-.8-.98-.97-1.46-2.14-2.33-.54-.38.76.96-.25.06-1.17-1.24-3.06-3-4.93-4.2.1.23-.4-.08-.95-.37v-.14c-2.17-.95-.62-.7-2.84-1.53h-.46c-1.03-.27-1.3-.36-1.6-.52-.3-.15-.62-.28-1.82-.36.92.2.38.3-.74.12l.3-.08-1.27-.1c.38-.04.22-.16-.73-.2l.64-.12-1.8.18c-.7-.07-1.57.05-2.35.16l-1.73.3-.06.02c-.16 0-.28-.02-.35-.05-.53.01-1.03.1-1.55.15-.44-.01-1.38.05-.6-.08-1.46.14-1.5.2-2.5.46l-1.56.25c-2.82.74-5.23 2.08-7.35 3.77-.33.26-.63.55-.95.83l-4.6 1.14c-.87.38-.94.64-2.53 1.18.47-.3-.16-.03-.75.2.37-.17.47-.25-.33 0-.1.07-.25.16-.4.24-.01-.01-.04 0-.03-.02-.96.44-.77.4-.32.22-.02.02.03.03.18 0-1.05.3-2.75 1.26-2.95 1.16l-6.95 3.95c-.3.06.2-.3.84-.7l-1.6.93c-.05-.12.9-.6 1.38-.9-1.02.4-2 1.06-3 1.7l-3.15 1.98-.4.38-.14.07c.04.04-.4.42-.72.65-.37.1-.14-.25-1.2.48-.9.48-2.34 1.67-3.38 2.5.6-.4.44-.2.22 0-.52.37-.9.5-1.26.82l-.14-.1c.3-.03-1.25 1.12-1.4 1.3-.36.12.74-.67.8-.83l-3.07 2.32c-1.02.92.3-.03-.15.47l-2.95 2.34.43-.16-4.05 3.17-5.35 5.4c-.5-.4-.67-.36-.26.33-.47.63-.28.67.2.4.01-.01.02-.01.03-.02l1.36 1.93a70.14 70.14 0 0 0-3.05 2.38c-1.46 1.23-2.9 2.54-4.4 4.2-1.5 1.68-3.08 3.6-4.68 6.34-1.46 2.65-2.34 5.66-2.86 8.65-.54 3-.77 6-.93 8.84-.04 2.7-.28 7.48-.22 10.68l-.1 1.24c.03 1.1.04 2.4.01 3.5l-.02-.07.08 4.32-.02-.07.04 2-.04-.34.22 8.42.08-.22c.06 5.56.3 7.6.38 12.6v-.07c.23 3.17.3 5.67.36 8.2l.13 3.9.05 1.04.03.48v.03l-.03.13-.05.28a19.23 19.23 0 0 0-.28 2.37c.06-.83-.08.35-.1.28-.3 3.07.12 6.35.3 6.37.3 2.2.23 1.8.2 2.1.04-.01.15.46.32 1.13l.67 2.38-.24-.75 1.42 4.72-.15-.97c.76 2.5 0 .7.88 3.06l.1-.07c.3.8.62 1.52 1.22 2.16.4.34.93.34 1.3.25l.37-.1c.08-.03.15-.06.2-.1.03.06.04.18.06.26.02.1.02.13.12.37a5.32 5.32 0 0 0 .59 1.13c.26.36.64.75 1.2.94a2.05 2.05 0 0 0 .89.07c.26-.04.53-.1.8-.22a2.68 2.68 0 0 0 .45-.27 1.71 1.71 0 0 0 .2-.18c.07-.07.05-.05.07-.08a.36.36 0 0 0 .07-.18c.02 0 .08.1.13.13.04.03-.01 0 .12.07.1.06.25.12.4.16.34.1.68.04 1-.1a1.66 1.66 0 0 0 .64-.69c.13-.23.2-.44.27-.66.25-.85.33-1.66.4-2.47s.1-1.62.13-2.4l.15-1.8.4-4.53c.02-.15.01-.35.05-.37.06.03.07.1.1.15a8.52 8.52 0 0 1 .28.76l.32.9c.15.4.4.86.75 1.2.17.17.38.32.6.44.26.1.6.22.9.15.67-.07 1-.84 1.06-1.27.1-.48.03-.9-.01-1.33l-.14-1.16a60.48 60.48 0 0 1-.2-2.32l-.16-2.33c-.02-.2-.04-.4-.07-.6a4.7 4.7 0 0 0-.15-.62l-.35-1.1c-.46-1.48-1.08-2.87-1.54-4.27l-.04-.1c-.12-.35-.17-.96-.15-1.47a9.72 9.72 0 0 1 .2-1.6l.2-.54c.16-.2.68-3.64.92-4.1l.32-1.54c.13-.42.38-1.32.22-.55.35-1.4.34-1.44.56-2.47l.46-1.5 4.04-16.1 3.72-13.57c.8-2.38 2.3-4.6 3.82-6.5a48.63 48.63 0 0 1 3.36-3.8l-.14-1.1c-1.5 1.47-3.07 3.13-3.8 4.12l-.13.05a32.7 32.7 0 0 0-1.72 2.34c-.08.3-.62 1-1.24 2.07-.63 1.05-1.28 2.56-1.64 4.2-.86 3-1.28 6.2-2.18 9.3-.3 1.5.2-1.35-.3.9-.1.05.2-1.06-.01-.5-.52 2.2-1.02 3.57-1.65 6.28l-.1.1c-.77 3.56-1.8 6.63-2.26 9-.86 3.65-.83 2.4-1.64 6.2l-.46 1.45c-.42 1.62-.17 1.2-.66 2.98-.04-.13-.6 2.27-.4 1.2-.22.83-.45 1.7-.56 2.63-.05.46-.1.94-.07 1.43.03.5.04.96.3 1.6 0 .01.01.02 0 .01v.01c.23.6.44 1.26.72 1.88.25.62.5 1.26.73 1.93.2.65.48 1.4.6 2 .08.68.1 1.5.13 2.3.1.6.18 1.6.3 2.56a33.61 33.61 0 0 0 .17 1.36l.1.87c0 .01-.05.4-.14.56a.24.24 0 0 1-.22.12.37.37 0 0 1-.14-.04c-.07-.05-.15-.08-.22-.14-.28-.22-.43-.52-.44-.57-.01-.08.06.16.5.5.07.05.2.1.22.13.04.02.06.02.06.03.03-.02.05-.05.06-.08-.03.01-.05 0-.08-.02-.02-.01-.15-.1-.23-.17-.18-.16-.34-.4-.44-.63-.05-.1-.12-.3-.18-.46l-.85-2.42c-.22-.6-.46-1.1-.67-1.3-.04-.03-.07-.05-.1-.08a.48.48 0 0 0-.43-.27c-.07 0-1.8-.05-3.38-2.23-1.38-1.9-.6-5.3-.58-5.32.06-.27-.1-.54-.37-.6a.49.49 0 0 0-.6.37c-.04.16-.9 3.86.74 6.14 1.47 2.03 3.12 2.5 3.83 2.6l-.17 1.2.18-1.2h.02l-.4 2.94.06-.7-.7 4.66.15-.62-.24 1.47c-.08.44-.15.84-.17 1.2l-.15 2.66c-.05 1.05.3-1.92.1.23-.08.52-.2 1.1-.4 1.62-.05.12-.1.24-.17.3-.01.02-.06.07-.1.07a.23.23 0 0 1-.14-.02c-.04-.02-.08-.03-.13-.07a2.04 2.04 0 0 1-.33-.33c-.07.01-.12.02-.17.02l-.97-8.84c-.01-.07-.03-.13-.06-.18.84-.32 1.3-.62 1.34-.64a.502.502 0 1 0-.55-.84c-.01.01-1.2.76-3.3 1.13s-3.6-.1-3.62-.1a.5.5 0 0 0-.63.33c-.08.26.06.54.33.63.04.01.72.22 1.8.27l.62 6.6c-.01.01-.02.01-.03.02-.1.05-.18.1-.26.13-.1.04-.17.07-.2.07-.08.03-.17.05-.24.05-.02-.02-.05-.04-.06-.07-.22-.01-.17 0-.42-.3a3.74 3.74 0 0 1-.33-.54c-.14-.3-.2-.46-.23-.62-.08-.33-.18-.62-.8-2.4l.15.3-.45-.9c-1.1-3.22-.4-1.82-1.58-5.4.4 1.42-.02.73-.37-1.07l.16.44c-.22-.98-.3-1.3-.4-1.97.15.58.12.3-.05-1.16.07.32.12.65.2.97-.17-.9-.3-1.84-.38-2.77-.02-1.08 0-2.47.1-3.7s.28-2.3.42-2.7c0 0 .01-.07.04-.2.02-.08.04-.18.07-.3.02-.08 0-.18 0-.26 0-.05 0-.1-.01-.16l-.07-1.74c-.06-1.32-.14-2.77-.22-3.3.1.95.03-1.66.14-.92-.13-1.22-.34-4.83-.3-6.28v.27c-.12-5.36-.45-9.15-.48-13.96-.08.22-.1-2.32-.2-1.7-.24-4.97.05-9.07-.3-10.86-.03-2.26.07-2.68.1-3.85l.01.54.13-8.6c.02-1.57-.15-1.82.03-4.63.02.9.05-.24.13-1.28-.04.67-.03.88.1-.5a10.74 10.74 0 0 1 .01-.78c.01-.01.01-.07.02-.04.13-1.74.1-1.44 0-.63-.01-.04-.02.03-.06.27.2-1.8.57-5.03.72-5.23.82-5.17 2.14-8.74 4.78-12.24.34-.36-.24.48-.93 1.54a44.31 44.31 0 0 1 1.81-2.51c.04.07-1.05 1.43-1.57 2.23 2.18-2.95 4.62-6.04 8.04-8.72.2-.2.43-.42.65-.62l.2-.15c-.02-.01.16-.17.4-.4.24-.2.55-.48.8-.67.2-.12.27-.13.36-.16a163.6 163.6 0 0 0 2.45 3.16l-.14-.08c2.18 2.53 3.6 4.1 5.32 5.62.04.46 1.84 2.03 2.3 2.67l-.07-.04c1.54 1.34 2.7 3.2 4.2 4.5-.07-.04-.16-.02-.46-.35 1 1.03 2.37 2.42 2.32 2.6 2.35 2.48 5.53 6.03 7.2 7.46l-.14-.08a9.49 9.49 0 0 1 .68.6l.66.7c.2.23.45.5.8.8.04.07.1.15.08.15.46.38 1.02.97 1.6 1.58l-.32 2.63c-.08.35-.14 1.26-.1 1.26l-1.4 9.85-2.5 19.38c-.8 7.44-.8 10.36 2.58-7.67l.01.25c.86-5.38 1.35-8.77 1.64-12.52.37-.55.65-4.43.92-5.67v.12c.14-1.93.5-3.9.83-5.84l.07.07.3-1.92-.08-.08a34.86 34.86 0 0 0 .26-2.18c.01.13.07.2-.03.93.3-2.3.68-5.48.87-5.63l2.26-16.75v.25c.14-2.04.4-2.6.7-4.84.04-.12.08-.27.1-.25.2-2.2 1.2-6.33 1.55-8.08l.13-.1a120.14 120.14 0 0 1 1.03-4.26l-.44 1.58c-.16-.63 1-3.17 1.78-6.24.95-2.8 1.4-5.92 2.97-8.63.55-1.37-.4 1.25.54-.74.17.01-.4.94-.03.5.5-.95.95-1.7 1.5-2.46.26-.4.56-.77.88-1.18l.5-.67c.2-.22.38-.46.6-.7h.16c1.06-1.32 2.3-2.4 3.53-3.2 1.22-.8 2.38-1.4 3.37-1.97 1.6-.74 2.2-.8 2.8-.9a2.74 2.74 0 0 0 .28-.05l4.92-.82 6.33-.42c1.24.07 1 .2 1.14.3 0-.06.27-.07.66-.05.4.04.9.14 1.36.24l-.45-.05c.9.2 1.8.47 2.66.8l-.43-.4c1.38.6.25.4 1.58.9l.07-.18c1.85.95 2.72 1.88 4.22 3.18 3.26 2.56 6.23 5.78 8.85 9.2s4.85 7.07 6.75 10.56l.05.38c-.1.24 1.38 1.73 1.37 2.1l.55.75c.1.24.34.74.06.36.42.74.46.74.83 1.24l.34.86c1.6 2.97 3.22 5.34 4.9 8.47.46.96 1.06 2.12 1.73 3.37l2.15 3.88.17.27c-.04.07-.15.1-.23.18l-5.24 3.12c-5.53 3.44-12.56 6.37-18.2 9.93-.2.08-.66.4-.65.43l-5.34 2.93s-9.53 5.26-12.44 7.3c-.5-1.37-1.52-3.6-1.52-3.6-2.6-6.07-4.43-8.97-7.52-16.2-1.26-3.2-1.9-5.3-2.56-7.4l-.98-3.33-1.18-4.35c-.42-1.7-1.2-3.48-1.95-5.4 0 0-.16-1.32-.8-2.14-.7-.88-.72.18-.72.18-.3.48.24 2.12.1 2.27.7 3.07 1.46 5.18 2.17 7.68-.01.3-.26-.26-.47-1l.5 1.78c-.13.02-.37-1-.52-1.56.16 1.1.54 2.2.9 3.32.42 1.1.82 2.3 1.16 3.54l.28.47.03.15c.05-.03.3.5.46.85.02.38-.28.07.18 1.27.25 1 1.06 2.68 1.62 3.88-.25-.67-.1-.48.05-.2.24.6.27.98.5 1.42l-.12.12c.04-.3.8 1.48.94 1.67.03.38-.47-.88-.62-1l1.52 3.53c.65 1.2.04-.3.42.26.5 1.1 1.1 2.12 1.57 3.42l-.05-.46c1.04 2 1.6 3.24 2.12 4.68 2.04 3.58 3.28 5.53 3.98 6.46-.5.4-.5.56.26.33.5.6.6.42.42-.1 0-.01-.01-.02-.01-.03 1.14-.4 3.3-1.3 6.87-2.94l-.1.1c.08-.04.15-.08.23-.12l.98-.5c2.3-1.2 3.88-2.1 5.5-3.22.46.08 2.4-1.3 3.14-1.6l-.05.06c1.67-1.18 3.75-1.88 5.37-3-.06.06-.05.15-.45.37 1.23-.73 2.9-1.73 3.08-1.64 2.96-1.7 7.17-3.94 8.95-5.24l-.1.1c1-.76 1.4-.8 2.57-1.56.08-.02.17-.06.16-.04.18-.13.4-.27.63-.42a96.43 96.43 0 0 0 1.38 2.65c.56 1.02 1.1 2 1.65 3.13-.02-.24 1.12 2.1.93 1.48 2.4 4.5 4.08 8.4 5.28 9.85 1.15 2.03 1.3 2.45 1.88 3.5l-.3-.47c2.24 3.76 2.94 4.8 4.75 7.52.94 1.32 1.23 1.44 2.93 3.78-.6-.7.1.23.76 1.1-.42-.55-.57-.7.25.46.14.15.33.4.52.6 0 .01.03.06.01.04 1.1 1.43.94 1.16.44.5.03.03 0-.04-.14-.25 1.07 1.55 3.18 4.15 3.23 4.4l8.6 10.85c.27.44-.42-.37-1.24-1.4l1.98 2.52c-.08.03-1.17-1.43-1.78-2.2 2.24 3.1 4.93 6.15 7.6 9.75l.62.7.16.22c.02-.03.67.73 1.1 1.25.33.54-.15.06 1.2 1.8.72 1 1.94 2.5 3.1 3.92l-2.66 2.62c-1.13-.35-2.38-.42-3.63-.12-3.45.86-5.54 4.4-4.66 7.9l.1.28-.77.76-12.97-10.04.22.14c-1.76-1.27-2.2-1.75-4.1-3.23-.1-.1-.22-.2-.2-.2-1.9-1.4-5.33-4.37-6.8-5.58l-.05-.13-3.58-3.05 1.32 1.16c-.58-.26-2.63-2.4-5.24-4.6-1.18-1.07-2.42-2.1-3.68-3.15-1.23-1.07-2.47-2.16-3.6-3.37-1.17-1.07 1.08.9-.63-.74.01-.12.82.74.45.26-1.66-1.62-2.63-2.76-4.64-4.78l-.03-.14c-2.65-2.62-4.62-5.3-6.32-7.1-2.52-2.9-1.5-2.12-4.15-5.12l-.9-1.27c-1.05-1.35-.85-.88-1.98-2.4.06.04-.36-.55-.63-.95l.4 2.38c.2.25.37.47.42.57l1.05 1.23c.27.37.85 1.12.32.52.94 1.16.98 1.17 1.7 1.98l.96 1.3a159.64 159.64 0 0 0 11.46 12.7c1.28 1.35 2.84 2.98 4.64 4.72a142.6 142.6 0 0 0 5.83 5.35l1.03.9c0 .05.01.1.01.15-.05 1.16 1.23 1.44-1.46 1.34.88-.1-.23-.1-1.25-.1.65-.02.85-.06-.5-.13-.2.03-.48.05-.75.07-.01-.01-.06-.01-.04-.03-1.7.04-1.4.07-.62.08-.04.02.03.04.27.07-1.77-.14-4.93.01-5.14-.17l-13.04.3c-.48-.1.52-.18 1.75-.2l-3.02.03c.03-.13 1.74-.08 2.67-.1-3.6-.22-7.42.22-11.64.02l-.88.1h-.25c.01.06-.93.13-1.56.15-.6-.12.04-.27-2.05-.26-1.65-.1-4.7.06-6.86.12 1.17.02.8.08.3.13-1.04 0-1.65-.1-2.45-.06l-.08-.12c-.14.12-2.78.13-3.14.2-.6-.12 1.62-.1 1.88-.2l-6.28.02c-2.24.12.4.15-.66.3-1.97.03-3.9.14-6.16.05l.72.14c-3.7.1-5.93.1-8.42-.05l-11.43.62-.3.03-.03-.37-.01-.08a.41.41 0 0 1 .02-.18 1.27 1.27 0 0 1 .04-.15.66.66 0 0 0 0-.2c.01-.07-.01-.14.02-.2.07-.37.06-.6.06-.84 0-.04-.01-.1-.02-.14h-.18.18l-.06-.38c-.06-.28-.1-.37-.17-.3-.05.06-.1.26-.14.57l-.01.06v.1c-.02.07-.04.15-.06.23s-.05.17-.07.26c-.04.1-.03.1-.1.33-.03.08-.04.17-.07.27v.07c-.03 0-.02-.01-.1.18-.01.05-.03.12-.04.2l-.01.14v.08l-.06 1 1.14.07c2.38.14 5.6.2 5.6.2 10.87.3 16.48-.1 29.43-.2 11.38.07 14.4.34 26.2.23l17.12-.07c.33-.03.68-.05 1.07-.06l2.04-.03h.58c.1-.01.2.01.28-.01l-.02-.3-.1-1.08c3.04 2.6 6 5 8.34 6.88l13.98 11.27 4.58 3.64c-.2.58-.06 1.23.43 1.72l2 2c.35.35.78.52 1.2.52s.84-.17 1.2-.5l1.42 1.1 1.8 1.33c.3.23.63.42.8.62.27.27.54.52.8.77.14.14.4.37.6.56l.42.34c2.7 2.36 5.66 4.43 8.9 6 0 0 1.24.58 3.17 1.38a51.83 51.83 0 0 0 3.41 1.29c.65.2 1.33.42 2.05.6.72.2 1.5.26 2.2.4.3.06.58.08.84-.05s.45-.36.56-.64a2.1 2.1 0 0 0 .16-.59c.62.2 1.25.32 2 .2a1.83 1.83 0 0 0 .76-.31c.26-.2.4-.4.54-.65a1.66 1.66 0 0 0 .17-.82c-.01-.14-.03-.27-.07-.4a.6.6 0 0 0-.07-.17.64.64 0 0 0-.1-.13c.04-.03.08-.06.1-.1.01-.02.01-.03.02-.05.01 0 .02 0 .03-.01l.2-.08a3.61 3.61 0 0 0 .44-.22c.28-.17.57-.4.8-.78.07-.3.08-.6-.02-.87zm-176.1-3.33c.52-.1.98-.2 1.4-.33l1 8.97c-.06.02-.12.05-.2.07l-.13.25-.07.06c-.05.04-.1.07-.17.1-.12.06-.27.1-.44.14a.87.87 0 0 1-.74-.16c-.23-.17-.45-.47-.62-.8-.08-.17-.16-.34-.23-.52a8.71 8.71 0 0 1-.33-1.13c.04.36-.04.08-.18-.43l-.58-6.1c.4-.01.83-.04 1.3-.12zm48.34-128.63c-1 1.5-2.07 3.4-3 5.6-.93 2.18-1.77 4.6-2.5 7.08-1.45 4.94-2.43 10.05-3.08 13.8l-2.77 16.63-1.93 12.32c-4.6-4.55-9.07-10.6-13.8-15.2-.12-.18-.56-.55-.57-.53l-4.12-4.5s-7.36-8-10.04-10.36c1.22-.8 3.14-2.32 3.14-2.32 5.3-3.95 7.68-6.42 13.96-11.14 2.82-2 4.7-3.1 6.57-4.26 1.9-1.13 3.77-2.25 6.92-3.96 3.03-1.58 6.22-3.3 9.25-4.52.67-.42 1.7-.73 2.74-1.1l1.35-.38c-.75.88-1.45 1.82-2.1 2.85zM317.6 223.08c.2.26-.12-.05-.5-.45-.28-.3-.58-.67-.76-.87l.04-.04c.5.6 1.05 1.25 1.22 1.36zm-3.94-5.93h0c.15-.15.34-.23.54-.23h.04c.1.01.26.04.38.18l1.8 2.3c.24.3.15.72-.06.93l-2.58 2.56c-.62-1.3-1.67-2.33-2.94-2.97l2.82-2.77zm-9.4 15.2c-.3.3-.7.3-1 0l-2-2c-.3-.3-.3-.7 0-1l.75-.73c.6 1.2 1.5 2.2 2.66 2.86.1.06.2.1.3.15l-.73.7zm-1.76-5.27c-.74-2.96 1.02-5.97 3.93-6.7a5.99 5.99 0 0 1 1.38-.17c2.52 0 4.8 1.64 5.42 4.1.73 3.02-1.03 6.07-3.93 6.8h-.01c-1.4.4-2.86.2-4.1-.5-1.33-.75-2.28-2-2.68-3.54z"/></svg>