<svg xmlns="http://www.w3.org/2000/svg" viewBox="0 0 480 480" xmlns:v="https://vecta.io/nano"><path d="M2711.8 107l.5-.12c-.02-.02-.15 0-.5.12zm19.8-3.25h-.03c-.04.01-.1.02-.13.04l.16-.04z"/><path d="M340.86 98.32l-4.7-1c-.4-.1-.9 0-1.2.4l-7.48 8.57c-.1-.2-.22-.27-.22-.27s-6.6 2-8.3 3.4c-1.7 1.3-4.7 3.2-4.9 5.2s-.5 3.9-1.9 6.4c-1.08 1.93-10.32 10.53-14.48 14.36l-1.72-1.76c-.7-.7-.8-.5-1.9.4-3.7 3-11 8.5-14.2 10.4-3.9 2.3-7.9 2.3-13.8-3.4-2.92-2.74-6.38-6.8-9.25-10.4-4.8-12.48-12.68-26-25.9-28.86-10.24-3.14-24.96.6-40.74 15.65-25.2 23.8-31.8 41.6-34.1 59.3s-.8 34.7-.8 34.7l6.92.15 1.68 20.75s-1.3 6.2 1.1 13.5 3.3 7.8 3.9 8.8c.5 1 1.7-.3 1.7-.3s.6 2.3 2 2.3c1.3 0 1.4-1.5 1.4-1.5s.87 1.6 1.95.62c1.04-.95.66-2.9.85-5.68.17-2.68.8-7.14.9-8.14s1.1 2.1 1.7 3.7c.7 1.6 2.7 2.2 2.2-.8-.6-3-.6-5.7-.8-6.5s-1-2.8-1.7-4.2l-.6-1.4s-.6-1-.1-4.2c.22-1.44 1.7-8.63 3.38-16.52l5.72.12s1.65-16.7 6.04-29.54l-3.34 24.84c0 .2-.1.9-.2 1.1v.1c0 .3-.1.4-.1.5v.1h83.5l-3.78-20.96c5.54-.32 11.14-2.88 18.88-8.04 11.8-7.9 21.3-21.5 24.9-26.4.9-1.1 1.1-1.3.4-2l-3.97-4.06 11.45-15.66.82-.57 5.9-4.5c1.02-.82 5.75-8.22 8.67-12.86.47-.24.85-.64 1.13-1.24a1.16 1.16 0 0 0 .1-.72l.97-1.56c.03-.05-.03-.1-.08-.07l-1.28.9c-.16-.18-.35-.35-.58-.5 1.1.2 1.93-.2 2.67-1.34 1-1.53-1.5-2.9-2.66-3.66l4.66-5.74c.48-.7.18-1.7-.72-1.9zm-10 15.1c-.01 0-.02 0-.03-.01h.01c0 .01.01.02.02.02zm-3.3-5.85c.14-.63.04-1.03-.08-1.27.04.06.28.43.08 1.27zm-.07.25c.02-.08.05-.16.07-.24a2.17 2.17 0 0 1-.07.24zm-1.8 3c-.16.2-.34.4-.53.62-1.1 1.26-4.32 2.75-4.34 2.75.02-.05.04-.08.04-.08s2.83-1.12 4.83-3.3zm-7.33 8.4c.85-1.44 2.05-4.1 2.4-4.88-.28.65-1.5 3.42-2.4 4.88l.06.02-.13.1c.03-.05.05-.08.07-.13zm5.54 1.7c.03 0 .06.01.1.01l-.02.01-.07-.02zm4.66-3.2l-.9-.2c-.04-.01-.1-.02-.14-.02l.27-.33a6.72 6.72 0 0 0 .98.42l-.2.14zm5.7-8.1c-.1-.04-.17-.07-.26-.1l.06-.08c.07.06.13.12.2.18zm-119.6 110.7c24.7 0 46.78-11.06 46.78-11.06h-67.76c.01 0-.86 11.06 20.98 11.06z" fill="#fff"/><path d="M342.05 98.76c-.4-.5-.02.13-.24-.07-.3-.44-.86-.54-1.28-.66l.13.1c-.78-.1-1.24-.2-1.73-.4-5.85-.54-1.4.66-1.4.66 1.1.33 1.96.5 2.87.64l.3.05c.05.01.1.01.13.03.08.03.15.1.2.18s.08.22.04.36c0 .04-.02.07-.03.1-.02.03-.01.03-.07.1l-.3.4-3.6 4.2-.54.67c-.86-.47-2.23-1-3.3-.82-.6.1-1 .4-1.3.9s-.4 1-.2 1.7c.18.58.52 1.17.96 1.73-1.54-.43-4.07-.7-4.86 1.07-.2.5-.2 1 .1 1.6.22.5.62.97 1.12 1.4-.9-.1-2.02-.02-2.82.5-.5.3-.8.7-.9 1.3s.1 1.2.5 1.7a4.04 4.04 0 0 0 .8.8c-.77-.1-1.66-.05-2.3.4-.4.2-.7.7-.8 1.2s0 1.1.4 1.6l.12.14h-.03l-.1-.01c-.42-.17-1.18-.4-1.97-.6l-.63-.18-2.27-.64 1.15-2.1.13-.07c.08 0 .1-.22.16-.44l.88-1.53.03-.08c.01-.01 0-.01.02-.02l.3-.15.6-.32 1.22-.75.75-.54c.2-.12.4-.27.63-.44.2-.16.43-.35.64-.58l.3-.38.2-.2c.9-.96 1.47-1.9 1.9-2.83.2-.5.35-.94.35-1.56 0-.26-.06-.5-.14-.73l1.47-1.5c.55-.58 1.08-1.17 1.52-1.8.06-.04.16-.22.15-.23l1.4-1.58 2.56-3.1.02-.03c.2-.37.7-.38.78-.45.05-.04.02-.13-.17-.22-.18-.07-.64-.2-1.15.27l.01-.01-1.2 1 .01-.06c-.8.83-1.3 1.36-1.72 2.06-.2-.02-.64.7-.86.87v-.03c-.36.62-1.04 1.02-1.4 1.6.01-.03-.02-.07.08-.2-.3.4-.72.92-.82.88l-.85 1-.5.6-.17-.12-1.9.57-1.47.48-3.64 1.46c-.63.3-1.28.6-1.93 1.1l-1.64 1.24c-1.1.88-2.25 1.78-3.03 3.12-.14.35-.33.76-.4 1.3l-.15 1.27c-.12.86-.32 1.7-.5 2.38l-.25.5c-.13.46-.34 1-.6 1.42v-.04c-.28.73-.7 1.24-.96 1.56v-.04l-.58.68.08-.13c-.83 1-1.78 1.98-2.65 2.8l.13-.01-4.2 4.03v-.04c-1.97 2.18-3.48 3.06-5.55 5.27.26-.28-.15.08-.14.04l-.2.18-.9-.9c-.3-.28-.45-.56-1.07-.93-.26-.15-.6-.2-.93-.1s-.64.3-.96.56c-.3.26-.4.38-.52.52l-.37.43c-.27.3-.63.65-1.37 1.2.4-.45-.17.03-.72.45.34-.28.42-.4-.33.1a3.04 3.04 0 0 1-.36.36c-.01 0-.04.01-.04-.01-.88.73-.7.63-.28.32-.01.03.04.02.18-.06-1.02.62-2.63 2-2.85 1.95l-6.95 5.3c-.32.1.2-.33.86-.82l-1.66 1.1c-.05-.12.93-.66 1.43-1.03-1.07.57-2.03 1.3-3.13 1.77-1.1.5-2.34.8-3.6.5l-.55.02-.08-.03c0 .05-.6.01-.98-.13-.3-.25.1-.2-1.1-.74l-2.8-1.73-3.07-.28.65.6c1.47 1.33 2.8 2.32 4.14 3.05 1.33.72 2.66 1.2 4.1 1.33s2.92-.1 4.4-.72c1.5-.64 2.88-1.6 4.5-2.75 3.16-2.17 6.36-4.66 9.27-6.97a22.38 22.38 0 0 1 1.15-1.03l1.24-1c.04-.03.1-.08.14-.06.03.01.05.03.07.04l.2.2c.42.42.83.8 1.22 1.14l.48.67c.52.45 1.13 1 1.58 1.56h-.05c.8.68 1.58 1.57 1.98 1.9h-.05l.9.9-.2-.12c1.34 1.23 2.67 2.58 3.8 3.8l.01-.2c2.37 2.65 3.5 3.4 5.6 5.8l-.06-.01c.8.67 1.45 1.3 2.05 1.92l.2.2c.02.03.05.05.06.08.04.05.06.13.03.2a.61.61 0 0 1-.12.16l-.08.08-.2.24c-1.1 1.35-2.08 2.62-3.22 4.43.28-.45-.2.14-.2.08-1.13 1.6-2.4 3.24-2.2 3.44-.88 1.12-.8.85-1 .93.1.07-.63 1.07-1.34 1.92l.3-.42-2.03 2.45.6-.32c-1.17 1.22-.5.13-1.52 1.38l.16.1c-1.6 1.7-2.75 2.5-4.43 4-3.35 3.26-6.93 6.5-10.9 9.1-3.95 2.66-8.06 5.05-12.18 6.15l-.4-.04c-.1-.1-.64.17-1.2.4-.57.2-1.16.4-1.34.34-.3.1-.64.15-.96.23h-.38c0-.03-.01-.05-.01-.08l-.24-1.38-.1.23c-.82-5.33-1.47-7.2-2.16-12.03l.05.06c-1.5-5.97-1.5-9.6-3-15.77.2.77.01-.35.06-.3-.57-2.86-1.15-5.92-1.44-5.9-.38-2.1-.23-1.72-.17-2.02-.12.04-.5-1.77-.8-3.4l.2.74c-.12-.78-.36-1.56-.57-2.33l-.65-2.3.03.96c-.62-2.45.1-.7-.62-3l-.18.08c-.54-1.9-.9-3.4-1.28-4.92l-.7-3.1c-.08-.1-.16-.2-.24-.28l-.1-.37c-2.38-6.65-5.58-13.4-10.03-19.18-2.23-2.88-4.77-5.52-7.67-7.6-1.32-.98-2.72-1.8-4.16-2.5a25.07 25.07 0 0 0-1.71-.99c-2.1-1.07-4.23-1.7-6.45-2.07-4.44-.67-9.3-.34-15.42 1.7-2.7.9-4.84 1.78-6.67 2.7-1.85.9-3.42 1.78-4.97 2.72-3.07 1.9-6.12 4-10.4 7.95-2.08 1.85-4.05 3.88-6.08 5.86l-2.9 3.06c-.97 1-1.9 2.03-2.78 3.05-1.57 2.02-4.66 5.34-6.36 7.86l-.8.86c-.58.88-1.3 1.85-1.95 2.7v-.07c-.8 1.34-1.88 2.75-2.26 3.43l.01-.07-1 1.62.13-.3c-.68 1.18-1.42 2.36-2.05 3.56-.65 1.2-1.34 2.32-1.9 3.44l.22-.12c-.62 1.17-1.15 2.16-1.56 3.07l-1.07 2.55c-.35.8-.6 1.62-.95 2.5-.33.88-.72 1.82-1.1 2.95l-.01-.07-1.07 4-.5 1.8-.44 1.76c-.3 1.17-.57 2.35-.8 3.63-.26 1.28-.4 2.66-.54 4.2.07-.77-.12.32-.15.25-.33 2.84-.58 5.88-.3 5.95-.2 2.07-.22 1.68-.36 1.94.13 0 .02 1.8-.04 3.42l-.01-.75-.17 4.64.27-.9c-.15 2.45-.33.6-.32 2.97l.2-.03c-.1 3.4-.4 5.4-.48 8.7.02 1.7.08 3.44.18 5.18l.16 2.62.18 2.17c.63.13 1.5.07 2.17.1l4.95.06.52 6.28c.26 1.66.37 4.63.64 6.6l-.01.77a26.12 26.12 0 0 1 .21 2.17l-.02-.04c.14 1 .2 2.17.28 2.67v-.04l.12 1.24-.05-.2.04.33c.01.08.02-.02-.01.15l-.1.7c-.05.46-.1.92-.12 1.37a39.73 39.73 0 0 0-.09 2.61l.1-.14c-.03 1.77.13 2.97.3 4.1.18 1.15.42 2.24.78 3.8l-.03-.04 1.7 4.88c.55 1.48 1.05 3.07 2.38 4.77-.32-.4.1.2.05.18.07.1.15.22.24.36h0c.17.27.42.5.72.57s.6.03.9-.1c.14-.07.26-.13.36-.2.2.37.38.6.44.57.4.64.74.84.86.95.14.1.1.1.2.2 0-.04.35.12.85.07.24-.01.54-.1.8-.27a1.38 1.38 0 0 0 .36-.32c.1-.13.12-.16.15-.22.02-.04.03-.07.05-.1-.01.04-.02.08-.04.12-.01.03-.03.07-.06.12.03-.05.05-.08.07-.1a1.29 1.29 0 0 0 .1-.35 1.05 1.05 0 0 0 .22.26.68.68 0 0 0 .14.09c.1.07.24.12.4.16.3.08.63.03.9-.1-.27.08-.6.08-.84-.04.55.12.84-.1 1-.16.14-.1.2-.1.26-.14.06-.07.3-.08.65-.94l-.12-.02c.38-1.2.32-2.1.42-2.97.08-.9.12-1.72.32-2.8l.34-2.96.2-2 .04-.4c-.01-.12.1-.04.1.01l.08.17.15.37.34.92c.13.4.4.97.77 1.35.2.2.4.38.68.53.28.16.7.25 1.03.15.34-.1.63-.35.77-.68.08-.16.1-.3.15-.47.03-.14.03-.27.04-.4.01-.5-.06-1.02-.15-1.44-.34-1.72-.48-3.44-.6-5.17l-.07-.66c-.02-.22-.1-.5-.15-.7-.13-.43-.28-.83-.42-1.24-.3-.8-.62-1.58-.96-2.34l-.08-.37c.02-.1-.37-.83-.7-1.45l-.04-.07c-.03-.03-.13-.28-.15-.4a1.11 1.11 0 0 1-.03-.33 6.51 6.51 0 0 1-.11-.9c.02-.26.08-.8.08-.35l.1-1.5c.07-.3.15-.6.23-.92l2-10.12c.34-1.36.73-3.12 1.13-5.03h.1l5.5.2.6.1.1-.38c.06-.06.12-.52.17-1.16l.04-.5c.01-.1.01-.22.02-.34.01-.2.01-.43.02-.66.03-.9.07-1.84.2-2.06l.1-1.47c.1-.4.27-1.26.2-.53.2-1.34.18-1.38.27-2.36l.37-1.42.6-3.27-.3 2.64c-.8 7.48-.76 10.42 2.56-7.72v.25c.6-3.75 1-6.54 1.3-9.16l-.5.7c.43-1.3.92-2.76 1.5-4.3.38-1.06.86-2.1 1.3-3.22l.77-1.6.4-.8.46-.77c2.4-4.18 5.86-7.85 8.5-10.36 3.7-3.58 8.22-6.9 12.9-10l3.03-2s10.76-8.06 9.44-8.52c-.37-.13-7.88 5.08-7.92 5.08-4.5 3.05-10.8 7.44-13.35 9.9l.16-.2c-1.45 1.4-2 1.65-3.64 3.18-.1.06-.23.16-.22.14-1.57 1.52-4.63 4.4-5.76 5.78l-.16.01c-.92 1.13-1.9 2.22-2.72 3.44.33-.43.65-.9 1-1.3-.08.63-2.23 2.5-3.55 5.47-1.43 2.65-1.8 5.76-2.9 8.6-.3 1.43.16-1.3-.38.82-.17.02.2-1-.08-.5-.57 2.07-1.16 3.33-1.7 5.92l-.15.07c-.6 3.4-1.57 6.3-1.78 8.6-.52 3.5-.8 2.28-1.12 5.97l-.37 1.4c-.24 1.56.04 1.15-.26 2.88-.1-.12-.35 2.2-.33 1.16-.05.33-.05.3-.07.36l-.03.15-.33-.01c-.44 0-.9-.01-1.35-.01h-2.8c-1.93-.01-4-.05-6.26-.22-1.13.18-3.75 0-4.6.14-.14-.1-5.25-.13-2.3-.26.25-.01.7 0 .67.04l.35-.1c-2.96-.3-5.4.01-8.33-.1.87.06 2.03.07 1.25.14l-2.73-.08.57-.1-4.06-.15.56.14a19.65 19.65 0 0 1-.64-.04c-.05-.01-.1-.03-.12-.04s-.06-.03-.08-.04c0-.04.02-.08.02-.1.05.16-.01-.86-.16-1.92-.16-1-.07 1.88-.22-.2-.06-2.65-.05-6.6-.01-9.98-.15.32-.13-.6-.16-1.53l.13-.1c-.12-3.58.28-1.3.24-4.86l.08.32-.23-.95c-.1-3.22.32-1.7.2-5.3-.08 1.4-.32.64-.14-1.08l.1.45c.05-.96.01-1.28.1-1.92.01.57.15.3.26-1.1l.06.95.03-2.67c.18-1.02.33-2.34.46-3.5.17-1.16.32-2.18.46-2.58l.1-.7.3-1.6c.2-1.2.46-2.54.5-3.05-.08.9.5-1.47.47-.76.05-.57.26-1.68.55-2.8.14-.56.3-1.12.43-1.62.16-.5.33-.93.46-1.24l-.06.25c1.64-4.68 2.68-8.1 4.88-12-.1.06.12-.43.32-.88.22-.44.42-.84.2-.63a67.82 67.82 0 0 1 1.59-2.9c.55-.88 1.1-1.67 1.58-2.4.94-1.47 1.75-2.58 2-3.43 1.17-1.76 1.53-2 2.23-2.83l-.28.42 2.65-3.53 2.33-2.8c.9-1.18.86-1.5 2.67-3.44-.5.7.2-.1.87-.85-.4.48-.5.65.4-.27.1-.16.27-.38.43-.6.01 0 .05-.04.04-.01 1.12-1.2.9-1.03.35-.5.01-.04-.04-.01-.23.14 1.3-1.14 3.3-3.45 3.58-3.47 3.5-3.5 5.88-6.17 9-8.86.4-.23-.27.46-1.15 1.26.74-.63 1.45-1.3 2.2-1.9.05.1-1.25 1.12-1.9 1.73 2.76-2.1 5.42-4.7 8.98-6.68l.66-.53.22-.1c-.04-.05.7-.58 1.23-.88.56-.17.1.23 1.86-.7 1.45-.65 4.04-1.98 5.98-2.72-1.06.36-.74.2-.3-.03.95-.3 1.53-.4 2.26-.66l.1.1c.1-.15 2.54-.8 2.87-.9.58.01-1.5.4-1.7.58 1.94-.47 2.44-.55 2.93-.62.5-.06.98-.2 2.97-.35 2.12-.2-.4-.15.62-.32 1.88-.13 3.76-.1 5.88.38l-.65-.26c3.54.5 5.57 1.46 7.55 2.8.74.4 1.42.83 2.03 1.28l.8.5a19.66 19.66 0 0 1 2.63 2c1.03.5 2.83 2.44 3.5 2.96.03.07.9 1.06 1.48 1.8.57.74.88 1.18-.1.1-.18-.18-.47-.52-.42-.52l-.32-.2c1.75 2.4 3.43 4.18 4.94 6.74-.4-.78-1.06-1.75-.56-1.14.47.8.96 1.57 1.4 2.38l-.37-.45a83.97 83.97 0 0 1 1.89 3.65l-.15-.56c.85 1.83.95 2.56 2.04 4.57.5.9-.6-1.83.28.12 1 2.52 2.32 6.36 3.34 9.67.03-.35.33.53.64 1.44l-.1.14c1.23 3.47.15 1.36 1.3 4.83l-.17-.3.5.86c.56 1.56.6 2 .68 2.48.1.46.13 1 .63 2.78-.28-1.43.14-.74.4 1.04l-.2-.42c.2.97.3 1.28.4 1.94-.17-.57-.23-.27.06 1.16l-.32-.93.7 2.66c.26 2.12 1.03 5.4 1.02 6.3 0 0 .75 4.52 1.12 5.5-.28-.88.13 1.6-.13.93.34 1.14 1.08 4.56 1.2 5.97l-.06-.26c.8 5.13 1.8 8.68 2.47 13.3.1-.24.47 2.2.54 1.56 1.05 4.7 1.22 8.7 2.1 10.3.43 2.15.34 2.58.5 3.7l-.12-.5.87 4.5.32 1.73c.02.12.04.25.07.38l.03.2c0 .02.03.08 0 .08h-.1c-.32.06-1.03.32-3.67.26.88-.1-.23-.1-1.25-.1.65-.02.85-.06-.5-.13-.2.03-.48.05-.75.07-.01-.01-.06-.01-.04-.03-1.7.04-1.4.07-.62.08-.04.02.03.04.27.07-1.77-.14-4.93.01-5.14-.17l-13.05.3c-.48-.1.52-.18 1.76-.2l-3.02.03c.03-.13 1.74-.08 2.67-.1-3.6-.22-7.42.22-11.65.02l-.88.1-.25-.02c.01.06-.93.13-1.56.15-.6-.12.04-.27-2.05-.26-1.65-.1-4.7.06-6.86.12 1.17.02.8.08.3.13-1.05 0-1.65-.1-2.45-.06l-.08-.12c-.14.12-2.8.13-3.14.2-.6-.12 1.62-.1 1.88-.2l-6.3.02c-2.24.12.4.15-.66.3-1.97.03-3.9.14-6.17.05l.72.14c-3.7.1-5.93.1-8.43-.05l-11.44.62-.3.03-.03-.37v-.08a.41.41 0 0 1 .02-.18c.02-.1.03-.12.04-.15.01-.07.01-.1 0-.2.01-.07-.01-.14.02-.2.07-.37.06-.6.06-.84-.01-.16-.06-.4-.08-.52-.06-.28-.1-.37-.17-.3-.05.06-.1.26-.14.57l-.01.06v.06c-.1 0-.08 0 0 0v.01l-.01.04c-.02.07-.04.15-.06.23s-.05.17-.07.26c-.04.1-.03.1-.1.33-.03.08-.04.17-.07.27v.07c-.03 0-.02-.01-.1.18-.01.05-.03.12-.04.2v.14.08l-.06 1 1.14.07c1.15.07 2.5.12 3.58.15l-.77.01c.02.34.06.7.12 1.02.15.8.43 1.4.43 1.4.2.65.57 1.17.86 1.7.36.47.68.96 1.07 1.34.4.37.77.76 1.18 1.08l1.28.88c1.8 1 3.8 1.77 6.6 2.43l3.14.7 2.5.37c.8.14 1.6.17 2.54.2.93.02 2 .12 3.28.03a120.89 120.89 0 0 0 3.76-.12l3.7-.34c1.1-.28 3.12-.37 4.43-.7l.53.05c.45-.12.98-.26 1.45-.27l-.02.04c.67-.2 1.44-.28 1.77-.38l-.02.04.82-.15-.13.07c1.17-.3 2.38-.58 3.46-.75l-.12-.12c2.33-.3 3.07-.86 5.17-1.14l-.02.04c2.47-1.06 4.13-.85 6.65-2.02-.3.14.16.03.15.07 1.2-.42 2.46-.88 2.4-1.16.87-.3.74-.15.9-.1-.04-.1.7-.43 1.36-.68l-.3.16 1.92-.74-.46-.08c1.04-.32.36.17 1.3-.25l-.08-.18c1.42-.5 2.35-.56 3.76-1 1.04-.43 2.07-.9 3.12-1.4l7.13-.05a36.12 36.12 0 0 1 2.28-.09l3.95-.01h.16c.02 0 .07.01.07-.01l-.01-.08-.06-.3-.12-.63-.23-1.26-.3-1.65c-.17-.9-.35-1.74-.53-2.5l-.1-1.2c-.25-1.04-.52-2.26-.65-3.32l.05.06c-.38-1.55-.65-3.32-.84-4.1l.05.06-.37-1.9.1.32c-.35-1.58-.67-3.2-.96-4.75h.4c1.14-.1.77-.32 2.02-.48-.03.06.37 0 .68-.05.3-.07.53-.1.2.04 2.82-.57 5.35-2.07 8.68-3.58.3-.28.86-.62 1.4-.95.53-.34 1.05-.66 1.26-.88.15.05 3.1-1.94 1.48-.67-.14.1-.4.28-.4.23l-.15.23c1.88-.9 3.1-2.15 4.8-3.33-.53.32-1.2.8-.8.42a24.54 24.54 0 0 0 1.55-1.13l-.25.33c.76-.58 1.54-1.12 2.28-1.73l-.38.16c1.1-.86 1.65-1 2.7-2.2.46-.55-1.1.76-.03-.26 1.46-1.17 3.52-3.04 5.2-4.73-.26.06.18-.4.6-.9l.14.03c1.57-1.97.83-.5 2.4-2.46l.16-.44c1.26-1.88 1-.75 2.32-2.9-.6.78-.5.2.3-.72l-.1.3c.4-.54.5-.74.8-1.08-.2.35.01.28.6-.5l-.3.6.98-1.6c1-1.06 2.23-3 2.7-3.36 0 0 1.9-2.45 2.14-3.1-.13.28.05.08.25-.1.06-.05.1-.1.16-.15l.2-.2c.1-.1.16-.12.05.08.2-.32.5-.8.53-1.4.01-.3-.08-.62-.24-.9s-.46-.6-.56-.68c-.6-.57-1.18-1.18-1.46-1.56l.14.12c-.83-.92-1.62-1.7-2.38-2.45l2.87-3.8.23-.17c.17-.02.86-1.5 1.1-1.62l.38-.62c.14-.15.4-.48.22-.17.4-.54.4-.56.65-.98l.5-.53c1.6-2.1 2.82-4 4.48-6.23l.4-.48.06-.03.14-.1.3-.2a10.73 10.73 0 0 0 .59-.42l1.24-.93 2.67-2.06 1.67-1.32.35-.36c.2-.24.36-.45.53-.68a63.21 63.21 0 0 0 1.65-2.44c1.36-2.17 2.92-4.44 4.47-6.74l2.3-3.46c.01-.01.02-.03.03-.04.15-.2.3-.4.43-.63.08-.1.14-.22.17-.34l.45-.72.5-.86.13-.2.02-.03a.73.73 0 0 0 .1-.32c0-.08-.01-.16-.03-.23a4.38 4.38 0 0 0 .55-.69c.3-.4.4-.9.3-1.3-.3-1.06-1.7-2.03-2.7-2.64l.87-1.25c.1-.04.01.15-.13.36l.4-.5c.06.05-.2.3-.3.47.58-.5.9-1.3 1.54-1.9l.07-.18.04-.03c-.03-.02.06-.2.14-.3.14-.06.12.1.4-.24.27-.23.6-.8.86-1.17-.16.18-.15.1-.1 0 .14-.17.27-.23.36-.38l.1.04c-.06 0 .01-.1.1-.27.12-.2.18-.42.18-.47.13-.13-.1.43-.13.52.32-.52.27-.7.3-.83-.17-.3-.1-.46-.33-1zM167 212.54l10.3.16 4 .1c-.13 1.06-.26 2.13-.53 3.18-.1.96.04-.86-.2.56-.1.03.08-.67-.07-.32-.24 1.4-.57 2.24-.86 3.95l-.1.05c-.33 2.24-.96 4.17-1.13 5.67-.2 1.16-.33 1.52-.44 1.92s-.25.8-.28 2.06c-.06.32-.1.65-.14.98 0 .55.06.75.1.96l.1.38c.05.18.05.33.24.76l-.03-.06c0 .01.01.01.01.02-.1-.04.53 1.38.2.77.23.63.53 1.22.8 1.8l.8 1.87a12.78 12.78 0 0 1 .35.98c.08.26.1.65.15 1.02l.16 2.46c.2.74.38 2.5.6 3.02-.01.03.01.23.04.5.01.25 0 .6-.05.75-.04.15-.1.16-.12.17-.02-.02.02-.02.03-.2.01-.04.03-.3.05-.28-.01-.06-.04-.12-.07-.2-.01.2-.05.4-.08.45-.03.07-.03.05-.05.07-.02.01-.04.01-.06.01-.05-.02-.2-.1-.3-.2a1.64 1.64 0 0 1-.32-.37c-.1-.14-.16-.26-.25-.48-.2-.46-.27-.68-.62-1.65l.38 1.12c.06.2.07.25-.04.02l-.43-1.2c-.18-.47-.36-.96-.55-1.35.1.12.17.27.26.43-.14-.36-.3-.68-.44-.9s-.28-.32-.4-.4c-.14-.07-.2-.15-.45-.1-.1.04-.18.17-.28.24.06-.01.12-.03.17-.05a2.27 2.27 0 0 1-.26.27c-.1.16-.2.25-.25.57-.07.5-.15 1-.2 1.6l-.1.93-.03.62c-.01.67.24-1.23.1.15l-.44 3.12c-.07.58-.17 1.16-.22 1.76s-.06 1.2-.08 1.76c.1-.2.08.4.08 1l-.08.07c.01 1.14-.12 1.28-.2 1.44l-.16.28a1.18 1.18 0 0 1-.4.46l.03-.08c-.04.08-.05.14-.1.2-.04 0-.08.01-.16-.03-.01.01-.12-.1-.2-.15-.08-.06-.14-.16-.2-.24-.07.01-.1.01-.17.01l-1.32-10.08c-.04-.27-.3-.47-.56-.43s-.47.3-.43.56l1.33 10.1c-.06.02-.13.04-.2.07-.05.3-.22.57-.25.6-.06.07-.13.14-.27.2.23-.07.28-.1.24-.02-.03.04-.08.1-.2.13-.12.04-.3.06-.47-.01a.58.58 0 0 0 .19-.03c-.36-.04-.5-.18-.73-.42.24.18.15.1-.26-.57.1.15.23.28.35.4-.3-.33-.58-.83-.76-1.3l-.1-.3-1.56-8.25c-.05-.27-.32-.45-.58-.4a.5.5 0 0 0-.4.58L170 254c-.16.13-.36.26-.42.28-.1.05-.2.01-.25-.1h0c-.5-.73-.94-1.37-1.02-1.68 0 0-.33-.62-.65-1.35-.33-.73-.66-1.56-.84-1.85.27.52-.27-1-.03-.6-.34-.67-1.14-2.78-1.3-3.65l.06.16c-.46-1.56-.77-2.92-1-4.25s-.37-2.64-.33-4.1c-.1.13-.03-1.4-.14-1.03a16.45 16.45 0 0 1 .12-2.16 12.13 12.13 0 0 1 .15-.96l.04-.22c.01-.07.06-.24.03-.36l-.03-.47c-.07-1.16-.16-2.07-.37-2.62-.14-1.4-.06-1.67-.1-2.4l.05.33-.47-5.35c-.1-.97-.28-1.1-.38-2.86.1.56.04-.15-.01-.8.04.42.08.54.05-.32-.03-.12-.06-.3-.08-.48 0-.01.01-.04.01-.03-.1-1.1-.1-.9-.08-.4-.01-.02-.02.02-.03.18-.01-1.14-.25-3.16-.15-3.3l-.1-1.2c1.43.1 2.87.1 4.3.12zm22.56-5.12h-.08.08zm65.35 3.6l-.1-.1c-1.4.73-.64-.05-2.05.65l.1-.13-.3.4c-1.24.7-.8.02-2.17.87.58-.23.37.16-.37.37l.14-.18c-.4.16-.5.25-.8.32.22-.14.07-.2-.5.01l.35-.27-1.04.58c-.9.18-2.23.75-2.63.7 0 0-1.9.5-2.27.8.35-.2-.7.03-.44-.18-.45.26-1.86.76-2.48.78l.1-.05c-1.08.22-2 .47-2.87.73-.88.27-1.74.5-2.73.6.12.12-.92.26-.63.4-1.98.62-3.74.32-4.38 1-.92.18-1.1.05-1.6.1l.22-.07c-1.72.3-2.23.34-3.52.5-.64.12-.7.44-1.88.46.37-.13-.1-.08-.54-.04.28-.04.36-.08-.22-.1-.08.04-.2.07-.3.1-.01-.01-.03-.01-.02-.02-.72.1-.6.12-.26.1-.02.02.01.04.12.06-.76-.08-2.1.17-2.2 0-2.17.13-3.73.38-5.55.44-.2-.1.22-.16.75-.2-.43.02-.86 0-1.28 0 .01-.13.74-.05 1.13-.07-.76-.13-1.55-.1-2.37-.07-.82.04-1.68.07-2.56-.15l-.38.07-.1-.03c0 .06-.4.1-.67.08-.24-.14.05-.27-.83-.35-.67-.2-1.94-.3-2.86-.4.48.1.3.14.1.14-.44-.07-.64-.3-.98-.32v-.16c.13.2-1.14-.16-1.32-.15-.2-.18.7.1.8.04-1.7-.47-.85-.22-2.47-.85-.9-.24.1.2-.37.16-.4-.12-.76-.3-1.15-.5-.37-.2-.8-.37-1.14-.7l.17.3c-1.35-.8-2.07-1.46-2.63-2.35-1.06-1-1.64-2.03-2.02-2.84-.18-.37-.3-.7-.4-1l1.97.05c10.88.3 16.5-.1 29.45-.2 11.38.07 14.4.34 26.2.23h4.6l-.26.1c.17.1-.2.24-.57.4zm69.55-92.2c0-.3.1-.5.4-.8.7-.4 2-.3 2.7-.1.2.1.4.1.7.2 1.4.3 3 .7 2.8 1.7-.2 1.3-.8 2-3.1 1.6-1.3-.2-2.6-.9-3.2-1.7-.2-.2-.4-.5-.3-.9zm7.43 1.9l.04-.1c-.44.88-.68 1.06-1.24 2-.04.04-.1.1-.1.1-.5.94-1.73 2.57-2.2 3.26h-.1l-.32.4-.3.33-.84.65.64-.47c-.1.3-1.34.88-2.5 1.9-1.16.84-2.08 2.08-3.34 2.9-.53.48.43-.47-.4.2-.08-.06.37-.33.1-.24-.13.1-.24.18-.35.26-.56.77-.98 1.17-1.6 2.13h-.1c-.88 1.44-1.95 2.5-2.5 3.48-.97 1.44-.87.8-1.8 2.35l-.5.5c-.47.6-.23.52-.77 1.18-.02-.08-.68.84-.43.4-1.06 1.3-1.95 2.8-3.23 4.45-1.13-1.1-2.23-2.14-3.34-3.4 0 .2-1.12-1.06-.96-.63-2.42-2.2-3.97-4.6-5.15-5-1.06-1.04-1.16-1.37-1.68-1.95l.27.23-.44-.43c.47-.43.9-.82 1.1-.94 0 0 1.64-1.45 1.93-1.88-.27.35.63-.45.43-.16.36-.45 1.54-1.64 2.08-2.04l-.1.1c1.86-1.65 3-3.02 4.64-4.52-.13.01.73-.8.45-.66 1.53-1.72 3.1-2.9 3.3-3.94.5-.95.65-1.1.9-1.6l-.08.25c.74-1.9.8-2.5 1.07-3.98.03-.37.01-.6 0-.88 0-.3-.03-.58.25-1.1-.1.37.06-.07.32-.44-.14.25-.2.32.2-.13a1.21 1.21 0 0 1 .18-.29c.01 0 .03-.02.02 0 .5-.58.4-.5.14-.24 0-.02-.02-.01-.1.07.58-.55 1.7-1.54 1.84-1.5l1.35-1.05.63-.5c.18-.15.37-.3.57-.4.8-.5 1.67-.9 2.6-1.3.23-.03-.2.2-.72.43l1.32-.55c.02.08-.75.34-1.15.52.8-.27 1.62-.6 2.47-.94l1.32-.5c.23-.07.46-.15.7-.23.1-.03.23-.07.35-.1l.16-.03.1-.06c.04-.02.1-.07.12-.04l.03.06c.03-.05.2.14.2.34-.03.1-.07.08-.1.15s-.04.2-.16.63c-.15.4-.44 1.04-.8 1.64l-.02-.01c-.17.25-.33.5-.52.74.07-.1.15-.17.22-.26.01.01 0 .03 0 .04-.07.1-.13.2-.2.3-.18.18-.44.4-.64.73-.04.04-.06.1-.1.13-.04.04-.08.07-.1.1l-.1-.04c.22-.05-.9.9-1.03 1.02-.26.1.57-.5.62-.63-.74.62-.96.74-1.16.88-.2.13-.4.28-1.25.76l-.26.17c-.32.14-.63.25-.86.45-.13.07-.25.13-.35.17-.3.62-.38.35-.56 1.05l-.22.24c-.16.3.01.27-.2.6-.05-.05-.25.4-.2.18-.23.36-.38.77-.56 1.2a7.59 7.59 0 0 1-.31.65c-.07.12-.14.25-.23.4a13.22 13.22 0 0 1-.41.63c-.03.18-.17.44-.32.7.35.1.7.2.9.22 0 .03.45.17.76.28.2.07.3.12-.03.08-.1-.02-.26-.07-.24-.1h-.17c.16.07.3.12.4.16.07.03.14.06.2.08a3.34 3.34 0 0 0 .43.1c.3.06.58.1.88.2-.17-.08-.4-.15-.24-.15l.56.2h-.14l.83.3-.1-.1c.4.17.5.34 1 .38.23.01-.36-.22.08-.1.13.06.3.12.44.18.08.03.16.07.25.1.1.04.13.07.33.12.45.1 1.02.1 1.5-.22a6.04 6.04 0 0 0 2.58 1c.4.1.8.1 1.2.1 1.3 0 2.5-.5 2.9-2.4.1-.65-.13-1.14-.53-1.5.1.01.22.01.33.01.64 0 1.34-.1 1.96-.38-.76 1.15-1.44 2.12-1.7 2.64zm-1.73-3.1c-1.5-.2-2.9-1-3.6-1.9-.2-.2-.4-.6-.3-1 0-.4.2-.6.5-.8.4-.3 1.1-.4 1.7-.4.5 0 1 0 1.4.2.2.1.4.1.7.2.2.03.4.08.63.12.35.15.7.28 1.07.38.35.12.7.2 1.07.3.4.2.74.42.93.7.1.2.1.4.1.6-.2 1-.9 2.1-4.2 1.6zm5-1.6c.07-.37-.03-.74-.2-1.1.03-.01.07 0 .1 0a3.65 3.65 0 0 0 1.05-.15c-.28.4-.6.8-.94 1.26zm2.1-3.4c-.64 1.37-1.72 1.65-4.12 1.07-.54-.2-1.1-.35-1.63-.47-1.32-.52-2.45-1.4-2.86-2.3-.2-.3-.2-.6-.1-.9.6-1.4 3.4-.8 4.3-.5.2.1.3.1.5.2a15.23 15.23 0 0 1 .7.24c.26.2.52.4.8.56.63.34 1.15.54 1.62.66.37.27.67.55.78.84a.61.61 0 0 1 .01.6zm.72-1.1c-.05-.08-.1-.17-.15-.24.1-.02.2-.06.3-.1-.06.1-.1.22-.16.33zm1.28-2.9c.1.3 0 .5-.1.7-.65.97-1.3 1.35-2.22 1.2-.8-.54-1.78-.96-2.58-1.27-.93-.74-1.66-1.67-1.9-2.53-.1-.3-.1-.8.1-1.1s.5-.4.8-.5h.4c.9 0 2 .5 2.4.9.2.1.4.2.7.4.8.5 2.2 1.4 2.4 2.2z"/></svg>