<svg xmlns="http://www.w3.org/2000/svg" viewBox="0 0 480 480" xmlns:v="https://vecta.io/nano"><path d="M2711.8 107l.5-.12c-.02-.02-.15 0-.5.12zm19.8-3.25h-.03c-.04.01-.1.02-.13.04l.16-.04z"/><path d="M341.76 98.9l-4.7-1c-.4-.1-.9 0-1.2.4l-7.48 8.57c-.1-.2-.22-.27-.22-.27s-6.6 2-8.3 3.4c-1.7 1.3-4.7 3.2-4.9 5.2s-.5 3.9-1.9 6.4c-.9 1.6-7.47 7.85-12.04 12.1l-1.83-1.87c-.7-.7-.8-.5-1.9.4-3.7 2.9-13.8 10.9-17 12.8-3.9 2.4-8 2.3-13.9-3.4-2.3-2.16-4.93-5.12-7.35-8.03-5.27-15.7-12.33-27.7-23.93-32.33-10.27-4.96-26.45-2.2-44.23 14.06-25.9 23.6-32.8 41.5-35.4 59.4-2.7 17.8-.9 42.9-.9 42.9l7.15.5.85 12.9s-1.4 6.2.9 13.7c2.3 7.4 3.3 8 3.8 9s1.7-.2 1.7-.2.6 2.3 2 2.4c1.3.1 1.4-1.4 1.4-1.4s.85 1.05 1.7.7c.95-.4 1.2-3.05 1.37-5.16.32-3.7.83-7.84.93-8.84s1 2.1 1.7 3.8c.6 1.6 2.7 2.2 2.3-.8-.5-3.1-.5-5.7-.7-6.6-.2-.8-1-2.8-1.6-4.2l-.6-1.4s-.6-1.1 0-4.2c.17-.92.63-4.2 1.24-8.54l6.36.44s3.06-23.05 8.18-37.97l-4.48 26.97h83.6l-2.4-19.4c5.54-.37 11.2-2.95 18.9-8.1 12-7.9 24.3-24.1 27.9-29 .9-1.1 1.1-1.3.4-2l-4.5-4.6 9.47-12.94.82-.57 5.9-4.5c1.02-.82 5.75-8.22 8.67-12.86.47-.24.85-.64 1.14-1.24a1.16 1.16 0 0 0 .1-.72l.97-1.56c.03-.05-.03-.1-.08-.07l-1.28.9c-.16-.18-.35-.35-.58-.5 1.1.2 1.93-.2 2.67-1.34 1-1.53-1.5-2.9-2.66-3.66l4.66-5.74c.5-.7.2-1.7-.7-1.9zm-22.44 20.92l-.13.1c.03-.04.05-.08.07-.12.85-1.44 2.05-4.1 2.4-4.87-.3.66-1.52 3.42-2.4 4.87l.06.01zm5.56 1.7l-.07-.02c.03 0 .06.01.1.01l-.02.01zm1.18-9.5c-1.1 1.26-4.32 2.75-4.34 2.75.02-.05.04-.08.04-.08s2.83-1.12 4.83-3.3l-.53.62zm2.47-4.33c.02-.38-.05-.64-.14-.82.03.05.18.3.14.82zm.94 10.6c-.36-.08-.7-.15-.9-.2-.04-.01-.1-.02-.14-.02l.27-.33a6.72 6.72 0 0 0 .98.42l-.2.14zm2.27-4.32h0c.02 0 .02 0 .03.01-.01 0-.02-.01-.03-.01zm3.15-3.87l.06-.08c.07.06.13.12.2.17-.1-.03-.17-.06-.26-.1z" fill="#fff"/><path d="M176.98 232.3c0-.01-.01-.02-.01-.03s-.01-.01-.01-.02l.02.05zm130.85-66.9h0l-.08.23z"/><path d="M251.77 114.56h0l.26.23zm91.2-15.23c-.4-.5-.02.13-.24-.07-.3-.44-.86-.54-1.28-.66l.13.1c-.78-.1-1.24-.2-1.73-.4-5.85-.54-1.4.66-1.4.66 1.1.33 1.96.5 2.87.64l.3.05c.05.01.1.01.13.03.08.03.15.1.2.18a.47.47 0 0 1 .04.36c0 .04-.02.07-.03.1-.02.03-.01.03-.07.1l-.3.4-3.6 4.2-.54.67c-.86-.47-2.23-1-3.3-.82-.6.1-1 .4-1.3.9s-.4 1-.2 1.7c.18.58.52 1.17.96 1.73-1.54-.43-4.07-.7-4.86 1.07-.2.5-.2 1 .1 1.6.22.5.62.97 1.12 1.4-.9-.1-2.02-.02-2.82.5-.5.3-.8.7-.9 1.3s.1 1.2.5 1.7a4.04 4.04 0 0 0 .8.8c-.77-.1-1.66-.05-2.3.4-.4.2-.7.7-.8 1.2s0 1.1.4 1.6l.12.14h-.03-.12c-.05-.01 0 0-.1-.03l-.35-.1-.7-.22-1.43-.42-2.27-.64 1.15-2.1.13-.07c.14.01.15-.77.3-.82l.08-.32c.06-.07.16-.24.12-.08.13-.27.1-.28.16-.5l.2-.26c.05-.1.04-.07.06-.1.03-.01.04-.02.14-.06l.34-.18.65-.38 1.35-.82a6.88 6.88 0 0 0 1.17-.74c.2-.16.43-.35.64-.58l.35-.43c.05-.06.1-.1.16-.16a10.4 10.4 0 0 0 1.9-2.83c.2-.5.35-.94.35-1.56 0-.26-.06-.5-.14-.73l1.47-1.5c.55-.58 1.08-1.17 1.52-1.8.06-.04.16-.22.15-.23l1.4-1.58 2.58-3.13c.2-.37.7-.38.78-.45.05-.04.02-.13-.17-.22-.18-.07-.64-.2-1.15.27l.01-.01-1.2 1 .01-.06c-.8.83-1.3 1.36-1.72 2.06-.2-.02-.64.7-.86.87v-.03c-.36.62-1.04 1.02-1.4 1.6.01-.03-.02-.07.08-.2-.3.4-.72.92-.82.88l-.85 1-.5.6-.17-.12-1.9.57-1.47.48-3.64 1.46c-.63.3-1.28.6-1.93 1.1l-1.64 1.24c-1.1.88-2.25 1.78-3.03 3.12-.14.35-.33.76-.4 1.3l-.15 1.27c-.12.86-.32 1.7-.5 2.38l-.25.5c-.13.46-.34 1-.6 1.42v-.04c-.28.73-.7 1.24-.96 1.56v-.04l-.58.68.08-.13c-.83 1-1.78 1.98-2.65 2.8l.13-.01-4.2 4.03v-.04c-1.23 1.37-2.3 2.23-3.42 3.23l-1.47-1.46-.13-.13-.2-.17c-.3-.2-.58-.35-.9-.34s-.6.13-.87.3c-.27.18-.55.42-.72.56l-1.1.86c-.8.7-.77 1.02-2.32 2.15.42-.46-.18.03-.74.47.35-.3.44-.4-.35.1a4.22 4.22 0 0 1-.37.38c-.01 0-.04.02-.04 0-.92.76-.73.66-.3.33-.01.03.04.02.2-.06-1.06.65-2.72 2.12-2.95 2.07l-7.13 5.7c-.33.1.2-.34.87-.88l-1.7 1.23c-.06-.12.95-.74 1.46-1.14-1.08.63-2.1 1.43-3.2 2.1-1.08.65-2.35 1.13-3.7 1.04l-.56.1c-.05 0-.1-.02-.16-.03.01.04-.62.08-1.02-.03-.35-.23.08-.2-1.2-.65-.96-.46-2.77-1.4-3.95-2.3.6.52.37.4.07.22l-1.24-1.15.05-.16c.1.26-1.02-.74-1.5-1.16l-.53 1.8 1.66 1.47c1.57 1.35 3.03 2.33 4.48 3s2.93 1 4.43.92c1.5-.06 2.98-.52 4.4-1.32s2.78-1.8 4.45-3.05c3.2-2.34 6.5-4.98 9.52-7.38.66-.65 1.65-1.43 2.68-2.24l.78-.6.42-.35c.04-.04.1-.08.15-.05l.07.04.3.26.5.7c.54.47 1.17 1.05 1.65 1.63h-.05c.82.7 1.65 1.63 2.06 1.98h-.05l.94.94-.2-.12c1.4 1.3 2.78 2.7 3.96 3.96v-.2c2.48 2.76 3.65 3.53 5.85 6.05l-.06-.01a30.49 30.49 0 0 1 2.13 2l.46.48.35.38c.1.1.07.26-.04.34-.05.06-.05.04-.23.24a10.28 10.28 0 0 0-.44.53l-.83 1.08c-.55.74-1.13 1.53-1.73 2.46.3-.46-.2.14-.2.08-1.2 1.63-2.57 3.33-2.36 3.54-.95 1.14-.84.88-1.04.96.1.07-.67 1.1-1.42 2l.3-.44-2.13 2.55.6-.34c-1.2 1.28-.5.15-1.58 1.45l.16.1c-1.66 1.8-2.85 2.63-4.58 4.22-3.45 3.44-7.06 7-11.06 9.9s-8.22 5.52-12.4 7.07c-.14.01-.28.01-.42.01-.12-.07-.66.2-1.23.5-.56.3-1.18.53-1.36.5-.32.12-.64.26-.96.37-.3.02-.9.1-.4-.05-.93.17-.94.25-1.6.4h-.9c-.6-3.28-.67-6.25-1.2-8.44-.62-3.62.01-2.5-.78-6.24l-.06-1.5c-.22-1.62-.38-1.13-.58-2.93.12.1-.27-2.28-.01-1.25-.5-4.1-1.57-8.2-2.34-13.57-.4-1.12-.87-3.82-1.2-4.64.1-.17-1.25-5.35-.33-2.4.08.25.2.7.14.7l.2.33a31.65 31.65 0 0 0-1.02-4.26c-.43-1.34-.88-2.66-1.28-4.15.2.9.54 2.05.24 1.3-.24-.92-.5-1.83-.78-2.74l.27.54-1.24-3.87-.01-.01c-.02-.08-.05-.16-.07-.23l.02-.04c-.02-.02-.03-.04-.05-.06-.4-1.5-.53-2.32-1.35-4.2-.46-.96.52 1.9-.28-.14-.9-2.63-2.25-6.6-3.85-9.8.02.36-.4-.5-.86-1.38l.06-.16c-1-1.62-1.1-1.96-1.22-2.3-.05-.17-.1-.34-.27-.67-.16-.33-.43-.82-1-1.6l-.5-.47c-2.07-2.72-.82-1.7-3.4-4.52.47.6.53.77.33.62s-.63-.65-1.26-1.33l.4.26c-.72-.73-1-.95-1.44-1.46.46.4.35.1-.7-.97l.8.63c-.68-.68-1.5-1.22-2.25-1.8-.4-.38-.86-.83-1.37-1.23l-.87-.6.6 1.2c-1.95-2.23-4.12-3.8-6.33-4.87-2.24-1.07-4.5-1.7-6.85-2.02-4.7-.6-9.8-.1-16.2 2.2a51.74 51.74 0 0 0-6.97 3 42.35 42.35 0 0 0-2.71 1.47c-.87.47-1.67 1-2.48 1.5-3.2 2.06-6.4 4.33-10.87 8.5a172.14 172.14 0 0 0-12.44 12.63c-.8 1.1-2.02 2.52-3.28 4-1.2 1.52-2.46 3.07-3.34 4.4l-.82.94a43.71 43.71 0 0 1-2 2.89l.01-.08c-.82 1.44-1.9 2.97-2.28 3.7V143l-1 1.75.13-.32-1.04 1.9c-.34.64-.65 1.3-.98 1.93l-.97 1.88-.86 1.84.22-.14c-.62 1.26-1.1 2.33-1.48 3.32s-.74 1.86-1 2.74l-.87 2.68-1 3.18-.02-.08-1.7 8.08c-.47 2.5-.95 5.03-1.07 8.3.04-.82-.1.34-.14.27-.26 3-.4 6.23-.12 6.3-.12 2.2-.18 1.78-.3 2.06.12-.01.1 1.9.06 3.6l-.02-.8-.06 4.9.25-.96c-.1 2.6-.3.66-.25 3.14l.2-.03c-.04 3.6-.3 5.7-.35 9.18l.18 5.07.14 2.56.1 1.48.1 1.5v.07c.01.01.04.01.06.01l.55.04 6.83.4c.1 1.43.17 3 .32 4.2l-.02.77c.08.68.16 1.48.17 2.17l-.02-.04c.12 1.02.17 2.17.23 2.67l-.02-.04.1 1.24-.04-.2.12 1.23-.1.62-.1.68c-.1.9-.17 1.78-.2 2.6l.1-.13c-.1 1.76 0 2.97.12 4.12.13 1.15.3 2.25.6 3.82l-.03-.04 1.5 4.94c.5 1.5.97 3.05 2.06 4.87-.28-.45.07.22.03.2a14.15 14.15 0 0 0 .61.95 4.28 4.28 0 0 1 .29.48c.16.25.38.45.63.55.26.1.53.08.76.02.06-.02.12-.03.18-.05.05-.02.15-.06.13-.06l.05-.04c.07-.05.12-.12.18-.2.04-.02.06.02.1-.04.05.16.1.26.14.37l.15.33c.06.13.02.13.04.23.04-.03.2.25.6.6.36.36 1.13.7 1.83.5-.1.03-.2.05-.3.06.23-.02.45-.07.66-.2a1.65 1.65 0 0 0 .58-.6 1.09 1.09 0 0 0 .08-.31c.06.05.15.14.23.2l.05.03-.04-.06-.22-.32a2.16 2.16 0 0 0 .23.22c.2.16.35.25.4.3.05.03.1.06.24.1.14.02.38.07.75-.08.1-.05.18-.1.28-.17l-.1-.08c.57-.5.67-1.04.85-1.5.15-.47.25-.92.35-1.36s.17-.88.25-1.34l.2-1.4.53-5.2.13-1.32c.06-.07.1.1.13.14l.1.24.25.64.32.82a3.17 3.17 0 0 0 .5.88 2.26 2.26 0 0 0 .83.69c.34.18.88.26 1.28.03.4-.2.64-.7.7-1.02.07-.35.08-.67.07-1-.04-.65-.16-1.16-.23-1.72a46.19 46.19 0 0 1-.18-1.65l-.26-3.3c-.02-.27-.1-.62-.18-.88l-.26-.8-.54-1.5-.06-.38c.06-.2-1.08-2.07-1.1-2.4l-.13-.26-.02-.05a1.67 1.67 0 0 1-.16-.47c-.02-.24-.03-.77.03-.33-.05-.82-.05-.85-.05-1.47a9.68 9.68 0 0 1 .2-.9c.55-2.92.8-5.52 1.18-8.44l1.05.07 5.62.44.34-2.26.24-1.42.23-.56c.24-.22.26-3.7.54-4.16l.16-1.55c.1-.42.3-1.33.22-.55.25-1.42.22-1.46.35-2.5l.4-1.5c1.12-5.4 1.84-10.1 3.3-15.64-.3 1.85-.58 3.35-.94 4.94-.88 7.1-1.27 10.96-1.37 12.78-.8.1-.9.2-.02.35-.05 1.45.15 1.13.45.06 1.73.22 5.7.5 12.88.83l-.25.05c5.53.1 9 .14 12.82-.1.6.3 4.54.03 5.84.12l-.12.02c3.37-.22 6.95.18 10.2-.01-.13.02-.2.1-.94.1 2.37-.04 5.6-.1 5.8.07 5.66-.04 13.56.03 17.18-.23l-.25.05c2.07-.18 2.67-.03 4.98-.12.13.02.3.03.26.04 2.25-.18 6.57-.03 8.4-.1l.12.1 4.63-.03-1.83-.02c.15-.08.43-.1.83-.1l1.94.06c1.4.47.72-1.05.74-2.06l-.14-1.2a16.02 16.02 0 0 0-.18-1.18c-.32-3.03-1.37-6.05-1.62-9.2-.33-1.48.4 1.3.01-.93.15-.1.23 1.03.28.44-.3-1.85-.3-3.17-.6-5.18a5.01 5.01 0 0 0 .75-.02c.35-.02.8-.1 1.46-.3l1.1-.05c1.14-.3.76-.42 2.02-.7-.04.13 1.57-.48.9-.13 2.84-.86 5.34-2.57 8.73-4.3.6-.6 2.28-1.5 2.7-2 .14.05 3.18-2.14 1.52-.76-.14.12-.4.3-.4.26l-.15.24c.96-.5 1.76-1.12 2.54-1.73.75-.65 1.48-1.3 2.33-1.97-.52.37-1.2.9-.8.48.54-.4 1.04-.82 1.55-1.25l-.25.35c.76-.63 1.56-1.23 2.3-1.9l-.4.18c1.1-.93 1.67-1.1 2.7-2.36.46-.58-1.1.83-.03-.26 1.47-1.26 3.6-3.24 5.3-5.02-.26.07.2-.4.63-.93l.14.03c1.62-2.06.86-.5 2.47-2.56l.17-.46c1.35-1.93 1.02-.8 2.44-3-.64.8-.52.2.33-.74l-.1.32c.42-.56.53-.77.85-1.1-.22.36 0 .28.63-.53l-.32.63 1.05-1.65c1.04-1.1 2.37-3.07 2.87-3.46l1.04-1.35a37.71 37.71 0 0 0 .76-1.06l.3-.43c.1-.14.26-.4.3-.5-.28.47.07.13.36-.33.28-.44.3-1.02.34-.58.02-.37-.1-.93-.55-1.42-.13-.15-.2-.2-.26-.27l-.23-.2-.46-.44c-.62-.6-1.23-1.23-1.52-1.63l.15.13c-.77-.85-1.5-1.6-2.2-2.3l.85-1.12.23-.17c.17-.02.86-1.5 1.1-1.62l.38-.62c.14-.15.4-.48.22-.17.4-.54.4-.56.65-.98l.5-.53c1.6-2.1 2.82-4 4.48-6.23l.4-.48.06-.03.14-.1.3-.2a10.73 10.73 0 0 0 .59-.42l1.24-.93 2.67-2.06 1.67-1.32.35-.36c.2-.24.36-.45.53-.68a63.21 63.21 0 0 0 1.65-2.44c1.36-2.17 2.92-4.44 4.47-6.74l2.3-3.46c.01-.01.02-.03.03-.04.15-.2.3-.4.43-.63.08-.1.14-.22.17-.34l.45-.72.64-1.57c.24-.24.46-.5.63-.77.3-.4.4-.9.3-1.3-.3-1.06-1.7-2.03-2.7-2.64l.87-1.25c.1-.04.01.15-.13.36l.4-.5c.06.05-.2.3-.3.47.58-.5.9-1.3 1.54-1.9l.07-.18.04-.03c-.03-.02.06-.2.14-.3.14-.06.12.1.4-.24.27-.23.6-.8.86-1.17-.16.18-.15.1-.1 0 .14-.17.27-.23.36-.38l.1.04c-.06 0 .01-.1.1-.27.12-.2.18-.42.18-.47.13-.13-.1.43-.13.52.32-.52.27-.7.3-.83.02-.07.1-.24-.14-.8zm-41.75 33.35c-.04-.05-.08-.1-.13-.15l.15.13-.02.02zm-123.06 88.07l-.08.06c-.18 2.26-.7 4.2-.78 5.7-.14 1.14-.28 1.5-.4 1.92-.1.4-.24.82-.16 2.1-.02.34-.03.68.01 1.04.06.3.1.46.22.68.18.34.27.38.57 1.17-.08-.04.52 1.35.2.76l.7 1.83c.23.6.52 1.3.66 1.84.2 1.3.26 2.9.38 4.62.1.37.2 1 .3 1.58.1.57.1 1.05.1 1.27-.01.01-.06.22-.12.33-.05.1-.18.16-.28.13-.1-.02-.27-.14-.28-.17-.04-.04.13.07.3.08.04 0 .1-.01.1 0 .01-.03.01-.06 0-.1-.04.01-.07 0-.1-.01-.02 0-.16-.1-.26-.17-.23-.2-.38-.42-.55-.8l-.4-.9-.2-.54c-.24-.62-.48-1.32-.74-1.86.14.3.28.7.36.94.12.34.14.44-.02.07-.17-.47-.35-.96-.54-1.24-.18-.28-.34-.4-.5-.52l.2.05c-.12-.1-.22-.18-.35-.2-.04-.03-.22-.02-.24.02-.04.01-.04.2-.07.3l-.23 1.43.1-.32c-.2 1.36-.37 1.77-.55 3.44-.07.75.25-1.26.06.23-.3 1.8-.83 4.75-1.05 6.82.1-.2.04.4-.07.97l-.1.05c-.15.8-.32 1.02-.4 1.12-.1.08-.15.1-.18.07-.01-.01-.04.01-.1 0-.03 0-.06-.01-.12-.02-.04-.02-.03 0-.13-.06a1.52 1.52 0 0 1-.32-.23c.01.01.02.01.02.01-.05-.04-.1-.07-.15-.1-.02.01-.03.01-.05.02l-.4-9.2c-.01-.28-.2-.48-.52-.48a.5.5 0 0 0-.48.52l.4 9.55c-.08.04-.15.08-.24.12-.02.1-.05.18-.08.25s-.06.15-.08.15c-.03.04-.06.07-.1.08-.05.04-.1.05-.14.07-.06.01-.1.04-.26.04-.14 0-.3.01-.57-.17.25.2.3.2.2.22-.1-.01-.4-.12-.67-.56.07.06.14.1.2.15-.17-.2-.27-.36-.36-.5-.07-.12-.18-.3-.3-.65.2.4.2.38-.03-.37l-.03-.34a5.58 5.58 0 0 0 .14.37 7.46 7.46 0 0 1-.14-.44l-.68-7.32a.5.5 0 0 0-.54-.45c-.27.03-.48.27-.45.54l.68 7.33-.12.12a1.18 1.18 0 0 1-.22.17c-.04.03-.07.06-.1.08l-.06.03c0 .01-.05.03-.07.04-.05 0-.1-.02-.15-.07-.02-.02-.03-.05-.05-.07-.04-.07-.06-.13-.13-.24-.23-.38-.45-.7-.64-1.02-.37-.65-.65-1.25-.7-1.52 0 0-.3-.66-.58-1.4-.3-.75-.6-1.6-.77-1.9.26.53-.24-1-.02-.6-.33-.7-1.06-2.8-1.18-3.67l.05.16c-.67-3.17-1.1-5.48-.92-8.4-.1.13.03-1.4-.1-1.04a15.42 15.42 0 0 1 .23-2.14l.1-.53c.01-.32-.01-.4-.02-.58l-.04-.92c-.05-1.16-.12-2.07-.32-2.62-.1-1.4-.03-1.67-.06-2.4l.04.33-.37-5.34a5.51 5.51 0 0 0-.07-.52l2.86.17 10.13.62 2.95.2c.01.25-.02.47-.04.7zm93-13.92l.08.6.04.26c-.03.05-.15.02-.23.03l-.5.01-3.76.06-6.63.12c-10.78.32-23.32-.53-34.36-.17-.18-.02-.5-.01-.78.01s-.5.04-.5.05l-10.1-.03s-19.46-.03-24.53.4c.58-2.3 1.38-6.67 1.38-6.67 1.33-6.82 2.03-11.6 2.9-17.43l-.67.36c.77-2.4 1.67-4.97 2.76-7.5 2.07-4.67 5.45-8.73 8.2-11.45 3.8-3.88 8.56-7.4 13.5-10.68 4.93-3.3 10.1-6.3 14.63-9.77.32-.2 1.05-.8 1.03-.83 2.77-2.07 5.45-4.34 7.78-6.98 0 0 .13-.15.38-.42l.96-1.23a13.06 13.06 0 0 0 .54-.74l-2.72.68-.95 1.23c-.16.06-.4.3-.75.64-.35.32-.77.73-1.2 1.17-.88.84-1.83 1.75-2.37 2.12l.08-.1c-2.47 2.35-5.65 4.1-8.3 6.06.1-.1.1-.2.74-.62-1.98 1.36-4.7 3.22-4.95 3.18l-7.87 5.4c-2.6 1.88-4.9 3.73-6.26 5l.17-.2c-.77.73-1.3 1.17-1.83 1.64s-1.14.92-1.97 1.77c-.1.07-.24.18-.23.15-1.64 1.63-4.76 4.8-5.85 6.35l-.16.03-1.38 1.87-1.23 1.98.94-1.47c-.03.34-.55 1.05-1.23 2.07-.6 1.07-1.44 2.43-1.94 4.03-1.26 2.9-1.56 6.15-2.6 9.2-.27 1.52.13-1.37-.37.88-.17.03.2-1.06-.1-.53-.54 2.2-1.12 3.54-1.68 6.27l-.15.08c-.6 3.6-1.65 6.65-1.9 9.07-.6 3.7-.84 2.4-1.3 6.27l-.42 1.46c-.3 1.64.01 1.2-.37 3.02-.1-.13-.45 2.3-.38 1.2-.15.78-.3 1.56-.4 2.36l-.15 1.06-.04.4-.23.01h-.1l-.27-.01-.54-.03-2.2-.12c-1.5-.1-3.1-.23-4.8-.43-1.2.12-3.96-.2-4.86-.1-.14-.1-5.53-.4-2.42-.38.27 0 .74.04.7.07l.38-.1c-3.1-.45-5.7-.26-8.78-.5.9.1 2.14.18 1.3.2l-2.87-.2.6-.06-4.26-.35.56.17c-.13-.01-.26-.03-.38-.04l-.18-.02c-.03-.01-.03-.01-.05-.01-.05-.02-.1-.03-.13-.05-.1 0-.03-.13-.02-.2v-.05c0-.01.01-.01 0-.14l-.03-.6a21.63 21.63 0 0 0-.15-1.5c-.16-1.06-.07 2-.22-.22l-.08-10.57c-.14.34-.15-.63-.2-1.6l.12-.12c-.2-3.8.26-1.4.14-5.15l.1.33-.25-1c-.18-3.4.27-1.82.06-5.6-.03 1.5-.3.7-.18-1.14l.1.47c.01-1.02-.01-1.36.05-2.03.03.6.16.33.22-1.16l.1 1-.05-2.83c.26-2.16.45-5.6.73-6.47l.34-2.44c.16-1.3.4-2.7.38-3.25-.04.94.42-1.58.44-.84.05-.6.22-1.78.43-2.98a29.09 29.09 0 0 1 .77-3.08l-.05.27c1.43-5.05 2.4-8.68 4.5-12.9-.22.14.88-2.1.46-1.62.5-1.1 1.06-2.15 1.57-3.1.5-.97 1.1-1.8 1.56-2.6.93-1.6 1.76-2.78 2-3.68 1.17-1.9 1.58-2.13 2.27-3.05l-.3.45c2.37-3.45 3.2-4.36 5.12-6.8.97-1.22.92-1.57 2.8-3.65-.5.76.2-.14.92-.9-.44.5-.55.68.43-.28a7.88 7.88 0 0 1 .47-.61c.01 0 .06-.04.05-.01 1.16-1.3.93-1.1.37-.52.02-.04-.05 0-.24.16.67-.62 1.5-1.55 2.25-2.32.75-.75 1.37-1.36 1.5-1.37l2.56-2.65 2.36-2.34 2.24-2.23 2.34-2.16c.43-.25-.3.48-1.2 1.35.76-.7 1.52-1.38 2.32-2.03.06.12-1.32 1.18-2 1.85 2.9-2.25 5.68-5.02 9.4-7.18l.7-.57.22-.12c-.04-.04.75-.6 1.3-.94.6-.2.08.2 1.94-.8 1.5-.74 4.23-2.17 6.27-3-1.12.38-.78.2-.32-.02 1-.36 1.6-.48 2.37-.75l.1.1c.05-.07.6-.27 1.2-.48l1.8-.53c.6-.03-1.57.5-1.8.64 2.04-.54 2.57-.63 3.08-.72.52-.1 1.03-.23 3.13-.45 2.24-.27-.42-.12.65-.33 2-.16 3.97-.24 6.23.22-.23-.1-.47-.16-.7-.24 1.87.22 3.36.57 4.63 1.05 1.28.45 2.34 1.03 3.42 1.7a20.18 20.18 0 0 1 5.16 3.97l1.87 1.44.02.03c.14.1.27.2.38.28l1.08 1.23c-.1-.24-.24-.5-.36-.73 1.17 1.27.9 1.1 1 1.35.04-.04.4.25.85.72.43.5.97 1.18 1.48 1.83l-.5-.57c.48.63 1 1.2 1.44 1.87l1.32 1.97-.3-.9c.66 1.07.7 1.24.72 1.4.04.15.08.28.7 1.32l.15-.12a66.37 66.37 0 0 1 1.11 2.12c.33.66.56 1.3.83 1.95l.78 1.94.8 2.2c2.7 6.46 4.98 13.43 6.85 20.38 1.8 6.94 3.04 13.94 3.94 20.46l-.05.6c-.16.28.88 3.54.76 4.06l.33 1.5c.03.43.13 1.33-.04.6.2 1.4.24 1.43.45 2.43l.1 1.52c.7 5.54 1.6 10.22 2.3 16.06.3 3.5.94 8.55 1.6 13.68zm54.2-87.43c0-.3.1-.5.4-.8.7-.4 2-.3 2.7-.1.2.1.4.1.7.2 1.4.3 3 .7 2.8 1.7-.2 1.3-.8 2-3.1 1.6-1.3-.2-2.6-.9-3.2-1.7-.2-.2-.4-.5-.3-.9zm7.43 1.9l.04-.1c-.44.88-.68 1.06-1.24 2l-.1.1c-.5.94-1.73 2.57-2.2 3.26h-.1l-.32.4-.3.33-.84.65.64-.47c-.1.3-1.34.88-2.5 1.9-1.16.84-2.08 2.08-3.34 2.9-.53.48.43-.47-.4.2-.08-.06.37-.33.1-.24-.13.1-.24.18-.35.26-.56.77-.98 1.17-1.6 2.13h-.1c-.88 1.44-1.95 2.5-2.5 3.48-.97 1.44-.87.8-1.8 2.35l-.5.5c-.47.6-.23.52-.77 1.18-.02-.08-.68.84-.43.4a25.85 25.85 0 0 0-1.26 1.7c-1.27-1.23-2.5-2.38-3.74-3.8.01.2-1.17-1.1-1-.66-2.5-2.3-4.15-4.77-5.36-5.2a11.58 11.58 0 0 1-.84-.9c.3-.3.56-.56.66-.7-.27.35.63-.45.43-.16.36-.45 1.54-1.64 2.08-2.04l-.1.1c1.86-1.65 3-3.02 4.64-4.52-.13.01.73-.8.45-.66 1.53-1.72 3.1-2.9 3.3-3.94.5-.95.65-1.1.9-1.6l-.08.25c.74-1.9.8-2.5 1.07-3.98.03-.37.01-.6 0-.88 0-.3-.03-.58.25-1.1-.1.37.06-.07.32-.44-.14.25-.2.32.2-.13a1.21 1.21 0 0 1 .18-.29c.01 0 .03-.02.02 0 .5-.58.4-.5.14-.24 0-.02-.02-.01-.1.07.58-.55 1.7-1.54 1.84-1.5l1.35-1.05.63-.5c.18-.15.37-.3.57-.4.8-.5 1.67-.9 2.6-1.3.23-.03-.2.2-.72.43l1.32-.55c.02.08-.75.34-1.15.52.8-.27 1.62-.6 2.47-.94l1.32-.5c.23-.07.46-.15.7-.23.1-.03.23-.07.35-.1l.16-.03.1-.06c.04-.02.1-.07.12-.04l.03.06c0 .06-.06.13.02.18-.03.05.04.15.04.22l-.03-.04a.81.81 0 0 1 .03.2 6.13 6.13 0 0 1-.14.55c-.15.4-.44 1.04-.8 1.64h-.02c-.17.25-.33.5-.52.74.07-.1.15-.17.22-.26.01.01 0 .03 0 .04-.07.1-.13.2-.2.3-.18.18-.44.4-.64.73-.04.04-.06.1-.1.13-.04.04-.08.07-.1.1l-.1-.04c.22-.05-.9.9-1.03 1.02-.26.1.57-.5.62-.63-.74.62-.96.74-1.16.88-.2.13-.4.28-1.25.76l-.26.17c-.32.14-.63.25-.86.45-.13.07-.25.13-.35.17-.3.62-.38.35-.56 1.05l-.22.24c-.16.3.01.27-.2.6-.05-.05-.25.4-.2.18-.23.36-.38.77-.56 1.2a7.59 7.59 0 0 1-.31.65l-.23.4c-.12.2-.04 1.55.16 1.56 0 .03.45.17.76.28.2.07.46.33.6.36.3.06.47.05.64.06l.56.2.6.2c.4.17.64.16 1.08.27.13.06.3.12.44.18.08.03.16.07.25.1.1.04.13.07.33.12.45.1 1.02.1 1.5-.22a6.04 6.04 0 0 0 2.58 1c.4.1.8.1 1.2.1 1.3 0 2.5-.5 2.9-2.4.1-.65-.13-1.14-.53-1.5a3.53 3.53 0 0 0 .33.01c.6 0 1.27-.1 1.86-.34-.62 1.02-1.23 1.9-1.58 2.58zm-1.73-3.1c-1.5-.2-2.9-1-3.6-1.9-.2-.2-.4-.6-.3-1 0-.4.2-.6.5-.8.4-.3 1.1-.4 1.7-.4.5 0 1 0 1.4.2.2.1.4.1.7.2.2.03.4.08.63.12.35.15.7.28 1.07.38.35.12.7.2 1.07.3.4.2.74.42.93.7.1.2.1.4.1.6-.2 1-.9 2.1-4.2 1.6zm5.04-1.87c-.01-.28-.1-.56-.23-.84.03-.01.07 0 .1 0 .25 0 .5-.03.73-.07l-.6.9zm2.06-3.13c-.64 1.37-1.72 1.65-4.12 1.07-.54-.2-1.1-.35-1.63-.47-1.32-.52-2.45-1.4-2.86-2.3-.2-.3-.2-.6-.1-.9.6-1.4 3.4-.8 4.3-.5.2.1.3.1.5.2a15.23 15.23 0 0 1 .7.24c.26.2.52.4.8.56.63.34 1.15.54 1.62.66.37.27.67.55.78.84a.61.61 0 0 1 .01.6zm.62-1.25c-.02-.03-.03-.06-.05-.08.04-.01.06-.02.1-.03l-.05.1zm1.38-2.75c.1.3 0 .5-.1.7-.65.97-1.3 1.35-2.22 1.2-.8-.54-1.78-.96-2.58-1.27-.93-.74-1.66-1.67-1.9-2.53-.1-.3-.1-.8.1-1.1s.5-.4.8-.5h.4c.9 0 2 .5 2.4.9.2.1.4.2.7.4.8.5 2.2 1.4 2.4 2.2z"/><path d="M266.15 140.4l-.03.1.84.68-.8-.78z"/></svg>