<svg xmlns="http://www.w3.org/2000/svg" xmlns:xlink="http://www.w3.org/1999/xlink" viewBox="0 0 480 480" xmlns:v="https://vecta.io/nano"><path d="M2711.8 107l.5-.12c-.02-.02-.15 0-.5.12zm19.8-3.25h-.03c-.04.01-.1.02-.13.04l.16-.04z"/><path d="M360.25 351.6l-9.97-96.94 3.87-.56-1.8-13.4-3.22.4 4.12-20.6-9.3 1.06-1.8-21.66c1.74-.03 2.3-.43 2.3-1.5 0-.17-.1-.32-.22-.45-.04-.26-.14-.5-.2-.72 1.4-.17 1.92-.7 1.92-1.83 0-.25-.14-.47-.36-.65l.2-.68c1.06-.2 1.8-.66 1.75-1.87-.04-.87-.44-1.33-1-1.58l.1-.42s.08-.1.2-.28c.65-.3 1.06-.86 1-1.82 0-.02-.01-.03-.01-.04 1.13 2.77 2.25 7.2 4.7 6.34 2.6-.9 8.3-3.8 1.8-13.4-5.8-8.57-19.17-5.42-22.04 2.32-.3.1-.6.2-.86.28l-1.5.5s-1.2.5-4.4-.4c-1.1-.3-5.63-1.77-11.3-3.64l.7-4.26s-26.2-4.9-38.6-17.2c-5.84-5.9-10.4-17.08-13.5-26.75l-8-36.55-11.8-1.8-.03.14-.9 4.78-6.67-1.57a11.47 11.47 0 0 0 .62-1.42l2.38-1.23c1.2-.6 1.7-2.2 1.1-3.4l-11.2-21.4c-.6-1.3-2.2-1.7-3.4-1.1l-8.9 4.6c-1.3.6-1.7 2.2-1.1 3.4l3.77 7.2c-.8-.6-1.57-.2-1.57-.2.6 3.1 0 6.5-.2 8.6 0 .2.02.4.04.6l-5.54-1.3-2.77 10.3c-9.47 2.18-18.7 10.48-30.03 27.8-13.5 20.8-15.5 34.8-14.3 43.3.9 6.8 4.3 13.5 9.8 16.4 3.33 1.77 6.9 3.17 10.52 3.65-10.07 39.15-18.8 74.92-17.42 75.95 3.3 2.2 16.9 2.8 27.8 2.8s33.2-2.3 40.3-14.7c6.04-10.56 7.74-25.7 9.78-48.4h22.52l-.2-2.37c1.42 11.96 2.9 25.12 7.2 36.37 5.3 13.8 8.2 12.8 11.2 13.1 2.9.3 4.4.6 2.7-7-.67-2.73-5.12-22.83-10.57-47.6 16.58 3.85 32.17 4.4 32.17 4.4l1.08-6.6 16.42.5s1.84.53 4.85.8l2.16 22.7-12.22 1.4 9.54 19.18-4.24.52 2.9 13.8 3.08-.44 12.62 95.74c3.8 21.6 7.7 23.7 7.7 23.7l.6-.1 1.5 8.2s.2 1 2 .8c1.9-.2 1.9-1.6 1.9-1.6l-.56-8.14c.6-.33 2.77-2.88.77-24.08zm-13.22-164.85c-.65-.34-1.67-.58-2.76-.66 1-.16 2.06.04 2.76.66zM221.45 89.8c-.53-.76-.72-1.86-1.2-3.4l2.4 4.56c-.4-.06-.8-.6-1.18-1.16z" fill="#fff"/><path d="M204.03 207.07l-.42-.5-.37.53c-.1.15-10.56 14.95-21.5 20.13l-.38.18.12.4c.05.16 1.16 3.94 3.02 5.9l2.1 2.23.36-.27c.1-.07 9.5-7.3 15.27-13.56 1.86-2.05 3.3-3.44 4.36-4.46 2.28-2.2 3.05-2.94 1.9-4.85-1.52-2.3-4.34-5.6-4.46-5.75zm1.86 9.88c-1.07 1.03-2.53 2.43-4.4 4.5-5.07 5.5-13 11.8-14.78 13.17l-1.5-1.57c-1.36-1.44-2.33-4.1-2.66-5.1 9.98-4.92 19.15-17.03 21.12-19.75.85 1.02 2.82 3.42 3.94 5.15.73 1.18.58 1.37-1.72 3.6z"/><use xlink:href="#B"/><use xlink:href="#B" x="-4.3" y="36.4"/><use xlink:href="#B" x="-10.5" y="74.8"/><path d="M331.36 249.2c-.1.52.03 1.15.25 1.67l.7 1.5-.1.13c-.15.16.44.02.32.17l.15.02c0 .05.02.13-.06.12.08.08.1.06.2.07l.01.18c.3.38.78.36 1.2.58.2.22.66.36 1.06.34.4 0 .82-.1 1.1-.22.4-.2.84-.2 1.32-.33.47-.1.97-.34 1.14-.8.04 0 .04-.1.02-.12a3.75 3.75 0 0 0 .49-.64s.14-.2.24-.5.16-.7.1-1c-.07-.3-.2-.5-.45-.46-.25.02-.58.3-1.14.6l-.04-.03c-.2.22-.28.32-.16.6-.26-.12-.15.16-.26.16l-.02-.02c.07.27-.34.12-.3.36-.01-.02-.06-.08-.04-.1-.05.1-.13.24-.24.1-.18.2-.5.24-.58.54v-.05c-.05.2-.1.07-.2.17-.01-.02-.02-.03-.02-.04-.08.2-.3.07-.4.14l-.01-.1c-.07.01-.15.01-.23.01l.1.03c-.05.3-.16-.2-.35-.02-.13-.06-.45.57-.6.36-.13.1.14-.2-.01-.13.05-.15.1-.08.1-.2-.14.04-.1-.22-.28-.17l.05-.1c-.27.12-.2-.3-.4-.18-.22-.02.14-.36-.15-.3l.07-.17c-.03-.07-.18.1-.18-.01.08-.07-.01-.13.1-.16.03-.23-.42-.16-.27-.5-.2.04-.14-.12-.3-.1.08-.04-.06-.24.16-.17.02.01.02.02-.01.03l.12-.02c.2-.18-.2-.18-.17-.32-.03.04-.02.1-.1.08v-.13l.1.01c.01-.06.02-.12.04-.18l-.13.03c.06-.1.27-.12.1-.23-.1-.05-.18.1-.2-.01.1-.14.24-.33.3-.48-.14-.01-.13-.05-.15-.1h.12c-.13-.2.27 0 .18-.17l.08.04-.24-.1c-.2-.22.26.02.01-.25-.01.07-.27-.08-.18-.14l.1.07c-.01-.05-.04-.1-.01-.1.05.05.15.1.16.03l.1.1-.14-.2c.15-.02.1-.22.26-.16 0-.01.2-.1.08-.25.06.1.16.06.24.18-.06-.12-.02-.3.1-.23v.02c.23-.02.2-.37.46-.3-.07-.13.06-.1-.03-.26.16-.27.47.24.43-.33.1-.05.15.1.2.13l-.02.03c.2-.06.25-.08.4-.06.07-.06.1-.32.24-.24-.05.1 0 .1.05.1-.03.01-.05.05.01.13.01-.03.03-.05.05-.07v.03c.1-.02.08-.05.04-.08v-.07c.06.15.25.04.2.22.24.03.48-.08.72-.02-.03.1-.1.14-.18.14l.15.04c-.07.1-.1.02-.17.03.03.26.43.01.47.3l.1-.05v.02c.04-.04.13-.07.16-.05-.06.1-.2.2-.12.26-.03.13.2.13.3.18-.02-.06.04-.08.1-.08.04.04-.04.13.02.14l-.13.1c.1-.1.2.03.28.02-.1.08-.13-.02-.2.01l.17.26c.16.05.13-.08.28-.1.07.1.2.16.16.3l.12-.08c.16.18.18.33.06.5l.74.8c.2.15.35.15.48.1.13-.07.22-.22.3-.35.07-.14.08-.26.08-.26.24-1-.3-1.48-.96-2.3l-.6-.95c-.2-.26-.45-.5-.95-.7-.44-.25-1-.33-1.47-.35-.24.18-.62-.04-.87.17l-.1-.1c-.08.07-.18.12-.28.08v-.04c-.12.1-.27.1-.33.15v-.04l-.15.06.01-.06a1.5 1.5 0 0 1-.63.29l.08.12c-.47.05-.46.4-.88.47l-.02-.03c-.13.6-.8.36-.83 1.03 0-.08-.08-.02-.1-.04-.1.22-.2.47.05.6-.08.14-.14.08-.25.06.1.05.1.2.06.33v-.07c-.04.12-.05.24-.08.36h.25c-.12.16-.3-.04-.3.16l.2.05c-.1.26-.42.37-.6.6zM220.17 79.74c.83-.42 1.15-1.4.72-2.27-.2-.4-.56-.7-1-.84-.38-.12-.8-.08-1.18.08.8-.43 1.1-1.4.67-2.24-.2-.4-.56-.7-1-.84a1.64 1.64 0 0 0-1.28.12c-.4.22-.7.56-.84 1-.13.42-.08.87.12 1.28.2.4.56.7 1 .84.16.05.32.07.5.07.24 0 .48-.06.7-.16a1.65 1.65 0 0 0-.8.96c-.13.42-.08.87.12 1.28.2.4.56.7 1 .84.16.05.32.07.5.07.27.01.54-.06.8-.18zm-1.95-3.9c-.18.1-.37.1-.54.06a.65.65 0 0 1-.39-.33c-.1-.18-.1-.37-.06-.54a.65.65 0 0 1 .33-.39.72.72 0 0 1 .35-.08c.07 0 .13.01.2.03a.65.65 0 0 1 .39.33c.18.36.07.75-.28.92zm.58 2.73c-.1-.18-.1-.37-.06-.54a.65.65 0 0 1 .33-.39.72.72 0 0 1 .35-.08c.07 0 .13.01.2.03a.65.65 0 0 1 .39.33c.18.37.07.76-.28.93-.18.1-.37.1-.54.06-.13-.05-.3-.13-.4-.34zm-45.02 71.9l.03.02v-.05c-.02.02-.02.02-.02.03zm78.88-43l-.04.03c.01.02.02.02.04-.03zm-24 157.54h0l-.34.32zM214 75.8c-.02-.04-.05-.06-.07-.1l.07.1zm147.32 274.03h0l.12.33z"/><path d="M362.16 368.2c-.05-1.13-.26 2.08-.2-.24.17-2.93.14-7.3-.1-11-.12.36-.17-.64-.3-1.66l.1-.13c-.52-3.9.18-1.47-.35-5.33l-.24-.66c-.6-3.47.06-1.9-.67-5.75.18 1.53-.2.75-.34-1.14l.17.47c-.13-1.04-.22-1.4-.27-2.08.13.62.2.3.03-1.22l.26 1-.52-2.88c-.1-2.25-.63-5.8-.56-6.73 0 0-.4-4.83-.7-5.9.2.96-.02-1.7.2-.96-.26-1.24-.75-4.9-.76-6.4l.04.28c-.42-5.47-1.16-9.32-1.5-14.24-.12.24-.3-2.36-.43-1.7-.7-5.05-.58-9.28-1.34-11.05-.27-2.3-.15-2.75-.24-3.94l.1.55-.94-8.78c-.22-1.6-.5-1.82-.74-4.7.2.92.06-.25-.05-1.33.1.68.15.9.07-.52-.05-.2-.1-.5-.15-.8.01-.01.01-.07.02-.04-.22-1.8-.22-1.47-.15-.64-.02-.04-.03.03-.04.3-.06-1.87-.54-5.18-.4-5.43l-1.28-10.2.66-.12-.25-.2c.58-.02.2.26.73.13l-.04-.2c.2-.02.38-.02.55-.01.2.01.3.04.57.05.5.03 1.07.05 1.8.02l.34-.04-.28-2.06-.2-1.3-.43-2.4c-.28-1.6-.53-3.15-.56-4.63l.13-.15c.2-.1-.42-.78-.24-.92l-.14-.33c.02-.1.04-.3.1-.15-.03-.32-.07-.32-.17-.55l.1-.36-.01-.2c-.01-.12-.03-.23-.04-.34l-.1-.7-.2-1.3-1.8.3-.74.1a5.05 5.05 0 0 1-.56.06h-.1c-.02-.2.1-1.03.2-1.6.24-.6.26.1.68-2.07.45-1.7.92-4.88 1.3-7.14-.26 1.2-.25.8-.18.27.2-1.08.45-1.7.57-2.53l.14-.06c-.08-.17.45-2.92.47-3.3.24-.6-.24 1.7-.2 2l1.17-5.92-2.4.28c-.5.07-.64.1-.8.13-.15.03-.24.05-.28.07-.1.03.01.04.14.05.26.01.68 0 .13.14-2 .26-3.94.58-6.2.76-.27-1.43-.05-2.97-.35-4.34.03.05.1.08.14.42-.13-1.06-.3-2.5-.15-2.6-.26-2.54-.48-6.1-.88-7.7l.06.1c-.26-.9-.13-1.2-.3-2.23.02-.06.02-.13.03-.12-.26-1-.28-2.95-.42-3.76l.1-.06-.05-.5c1.13-.13 2.06-.5 2.06-2 0-.2-.1-.5-.4-.8-.01-.01-.03-.02-.04-.02 1.1-.2 1.94-.75 1.94-2.18 0-.18-.1-.5-.4-.8.55-.14 1.05-.36 1.4-.7.4-.3.5-.9.5-1.6-.05-1.06-.55-1.62-1.24-1.92a3.29 3.29 0 0 0 .69-.38c.17.45.36.9.58 1.4.46.96.85 2 1.75 3.25.32.17.75.6 1.42.78.3.12.65.1.93.1a1.94 1.94 0 0 0 .61-.18c.12.03.7-.18 1.15-.37.44-.18.7-.3.06.13-.1.07-.33.16-.33.12l-.12.18c1.43-.36 2.42-1.27 3.4-2.4-.28.3-.57.53-.36.24.2-.16.34-.36.5-.56s.32-.4.44-.6a3.88 3.88 0 0 1-.07.33c.2-.33.42-.65.58-1 .13-.36.32-.7.38-1.1-.07.1-.1.2-.2.27.3-1.04.57-1.47.3-2.67-.17-.52-.04 1-.23-.1-.01-.7-.18-1.54-.4-2.4-.27-.84-.58-1.72-.98-2.45-.06.2-.26-.2-.5-.6l.08-.1c-1.1-1.4-.08-.7-1.18-2.1l-.33-.16c-.57-.6-.7-.76-.82-1-.12-.22-.28-.45-1.07-.95.53.5.1.4-.56-.17l.25.04c-.4-.28-.55-.35-.8-.55.28.1.23-.06-.4-.44l.5.14c-.43-.2-.85-.38-1.3-.52-.87-.64-2.5-1.02-2.9-1.25l-.35-.1c-.2-.05-.5-.1-.82-.16-.62-.1-1.32-.13-1.58-.03.46-.1-.78-.18-.43-.3-.6.1-2.3.32-3 .35l.13-.04c-2.56.34-4.14 1.38-6.12 2.5.17.05-.86.7-.5.68-.87.8-1.66 1.52-2.24 2.22-.6.7-.93 1.35-.85 1.85a10.4 10.4 0 0 1-.37.78c-.26.08-.54.15-.8.24l-.54.1c-.06-.01-.28.06-.58.16l-.04.02c-.04.02-.37.1-.64.12a5.51 5.51 0 0 1-.91.02c-.6-.02-1.16-.12-1.32-.2a16.71 16.71 0 0 1-1.37-.29c-.37-.13-1.17-.4-.5-.23-1.26-.4-1.3-.4-2.22-.64l-1.33-.5-7.2-2.34c.13-1.5.2-2.54.2-3.22.46.02.66-.02.48-.15-.08-.06-.24-.14-.48-.24-.01-.97-.17-.82-.4-.15-1.36-.5-4.28-1.4-9.3-3.23l.2.01-9.38-3.15c-.34-.4-3.22-1.38-4.1-1.87l.1.02c-1.23-.44-2.4-1.1-3.57-1.7-1.13-.7-2.26-1.34-3.37-1.9.1.02.17.01.67.28-1.56-.9-3.7-2.2-3.66-2.46-1.74-1.25-3.78-2.84-5.33-4.6l-1.14-1.28c-.37-.42-.66-.88-.97-1.28-.6-.82-1.2-1.5-1.58-2.07l.14.14c-.94-1.28-1.1-1.73-2-3.25-.02-.1-.07-.2-.05-.2-.47-.73-1.07-1.85-1.6-2.95l-1.3-2.83.06-.13c-.47-1.05-.9-2.13-1.33-3.2l.46 1.2c-.46-.3-.8-2.5-1.84-4.8-.13-.4-.3-.78-.45-1.16l.01.22c-.95-4.7-1.93-9.34-3.04-13.7a8.03 8.03 0 0 0-.19-.8c-.08-.28-.15-.52-.17-.5L259.08 110l-1.63-7.32-1.85-8.1c-.45-.1-.94-.14-1.4-.2l-1.74-.24-3.2-.42c-4-.5-6.78-.77-6.15-.43.32.17 1.5.5 3.8 1.02l4.34.94 2.76.57.2.05c.06.02.16.01.15.1l.06.47.3 1.76-.1-.25c1.15 5.75 1.92 9.36 3.02 13.26-.14.7 1 4.7 1.2 6.07l-.05-.12c1 3.45 1.4 7.24 2.34 10.56-.05-.13-.14-.18-.32-.95.58 2.45 1.38 5.8 1.25 6 1.33 5.85 3.06 14.05 4.15 17.74l-.1-.25c.65 2.1.64 2.76 1.25 5.14.01.14.03.3.02.28.7 2.3 1.52 6.8 2 8.66l-.08.15 1.05 4.64-.36-1.74c.43.53.6 3.55 1.52 6.88.66 3.16 2.03 6.25 2.6 9.55.48 1.53-.53-1.32.1 1-.14.1-.34-1.07-.33-.44.58 2.27.67 3.8 1.4 6.6l-.1.14c1.03 3.63 1.37 7 2.12 9.4.94 3.78.2 2.63 1.3 6.53l.17 1.58c.35 1.7.47 1.17.8 3.06-.13-.1.44 2.4.1 1.32.77 4.3 2.13 8.57 3.1 14.23.47 1.17.97 4 1.32 4.9-.05.17 1.23 5.65.34 2.53-.08-.27-.18-.75-.14-.72l-.2-.35c.48 3.24 1.4 5.77 2.06 8.94-.17-.95-.45-2.2-.2-1.38l.63 2.94-.23-.6.9 4.4-.01-.63c.2 1.08.3 1.8.4 2.55.1.74.26 1.52.45 2.65.2 1.03-.02-1.95.23.2.01.33.01.7-.03 1.02-.03.34-.13.63-.2.73-.1.1-.13.13-.47.16-.32.01-.77-.04-1.23-.1-.45-.06-1.02-.12-1.48-.16-.47-.05-.9-.1-1.27-.2-.75-.2-1.4-.63-1.98-1.18.13.3-.52-.26-1.14-1l.03-.16-.7-.9-.37-.62c-.18-.32-.24-.48-.3-.65-.1-.36-.23-.65-1.12-2.35l.22.27-.67-.8c-1.64-3.1-.55-1.8-2.28-5.3.55 1.44-.01.78-.6-1.03l.28.4c-.38-.98-.55-1.3-.74-1.97.25.58.27.26-.22-1.2l.46.94c-.36-.9-.74-1.8-1.06-2.73-.53-2.2-1.46-5.65-1.5-6.6l-.5-2.52c-.28-1.33-.53-2.8-.73-3.34.27.95-.13-1.7.14-.98-.34-1.22-1-4.9-1.04-6.4l.05.28c-.3-2.7-.62-5-.93-7.23l-.43-5.7-.56-6.04-1.37-13.84c-.4-2.1-.57-5.84-1-8.3l.02-.98c-.15-.85-.3-1.86-.32-2.73l.04.05c-.22-1.28-.32-2.73-.43-3.36l.04.05-.18-1.56.08.26c-.34-2.23-.58-4.54-.77-6.57l-.13.18c-.32-4.36-.8-5.92-1.07-9.86l.04.05c-.97-4.9-.7-7.87-1.76-12.92.14.63.04-.28.08-.24-.4-2.34-.77-4.85-1.08-4.84-.3-1.7-.15-1.4-.08-1.65-.13.03-.42-1.45-.7-2.77.06.2.12.4.17.6l-.84-3.8-.07.8c-.36-2.02.18-.58-.34-2.48l-.18.07c-.32-1.4-.52-2.5-.75-3.6l-.34-1.68c-.14-.58-.3-1.18-.5-1.85-.85-2.5-1.85-5.03-3.17-7.44a34.75 34.75 0 0 0-.78-1.31h0c-.1-.2.07-3.83.04-4.32.16-.8-.02 2.23.05 2.6l.27-5.45c.04-.1-.1-.1-.17-.12l-.27-.06c-.2-.04-.4-.1-.63-.15l-3.1-.72c-3.02-.6.5.27-.95.07l-5.84-1.3c.8-6.3.52-6.23-.04-4.22-.3 1.04-.65 2.57-.96 3.97l-1.42-.36.93.36-4.6-1c.14-.34.32-.77.57-1.45.01-.01.02-.02.03-.02-.02.1 0 .06.04-.03 2.56-1.8 1.3-1.5.38-1.14.02-.06.03-.12.05-.2.02-.17.03-.37.05-.55.01-.01.02-.05.02-.02.1-1.24.05-1.03 0-.45-.01-.03-.02.02-.06.2.1-.5.14-1.2.05-1.87-.05-.34-.14-.67-.3-.96-.07-.15-.18-.28-.28-.4-.08-.08-.1-.1-.14-.1-.05-.01-.04-.04-.03-.07s.02-.04.03-.05v-.02l.01-.9c-.01-.35 0-.66-.08-1.07-.1-.37-.24-.7-.48-1a2 2 0 0 0-.43-.39c-.15-.1-.4-.2-.45-.2a.71.71 0 0 0-.29 0c.01-.07.04-.18.04-.27 0-.04 0-.3-.04-.5-.03-.2-.1-.38-.15-.56-.14-.36-.33-.68-.56-.97-.2-.27-.5-.6-.96-.74-.46-.12-.93.04-1.24.28-.17.1-.1 0 .12-.17.1-.08.3-.18.57-.22-.2.03-.42.08-.58.18a2.67 2.67 0 0 0-.6.49c0-.03.01-.06.01-.08a1.99 1.99 0 0 1 .21-.19c.32-.3.96-.58 1.46-.45-.47-.12-.95.04-1.27.26-.15.1-.27.2-.4.32.06-1.3.2-2.6.43-4.03v-.62l.03-.18c-.03.01-.01-.66.01-1.1.04-.18.08-.2.1-.28l.8 1.37c1.43 2.32 2.44 5.35 3.92 7.7a.87.87 0 0 0 .18.27l1.16 2.26.83 1.57.37.7c.1.18.16.4.18.62.06.44-.03.9-.2 1.27-.33.73-.9 1-.7 1.1.1.02.4.01.87-.37.42-.36 1.1-1.2.9-2.6l.05.07c-.04-.2-.1-.4-.2-.58l-.2-.42c-.13-.27-.26-.5-.37-.73-.24-.45-.48-.84-.77-1.24.08-.2-.5-1.02-.62-1.34l.03.02c-.5-.7-.7-1.6-1.2-2.27.03.02.08.02.17.18-.3-.52-.7-1.22-.64-1.3-.68-1.25-1.56-3.03-2.13-3.77l.05.04c-.34-.4-.33-.6-.65-1.08 0-.03-.02-.07-.01-.07-.36-.45-.78-1.46-1.04-1.84l.05-.06-.54-1 .18.38c-.2-.04-.28-.64-.63-1.24-.03-.06-.05-.13-.1-.2-.03-.04-.06-.07-.1-.1-.34-.66-1.04-1.18-1.32-1.9-.25-.3.28.23-.04-.24.08-.06.18.2.18.04-.3-.47-.34-.85-.7-1.43l.05-.06c-.55-.75-.68-1.5-1.1-2.04l-.56-.74c-.12-.14-.27-.34-.84-.48-.13-.1-.26-.15-.4-.22-.5-.1-.37.05-.9.02.03-.08-.7.06-.4-.06a2.57 2.57 0 0 0-.91.3l-.7.4c-.5.28-1.02.58-1.66.8-.2.25-.85.5-1 .68-.06-.03-1.22.62-.6.16.05-.04.16-.1.16-.07l.05-.1c-.75.23-1.22.7-1.9 1.05.2-.08.48-.23.32-.1l-.64.32.1-.12-.96.46h.16c-.48.2-.7.17-1.17.54-.2.18.48-.13.01.14-.34.15-.68.28-1.18.5-.52.25-1 .73-1.24 1.23.12-.06-.02.2-.1.5l-.08.01c-.1.58-.1.7-.16.8-.04.1-.12.22.01.8.05.06.1.13.15.2.22.48.3.62.3.74.03.13.07.26.38.63-.18-.32.07-.23.25.2l-.12-.07c.13.22.2.28.26.43-.1-.12-.13-.02.05.3l-.2-.18.44.56c.18.5.67 1.23.68 1.47 0 0 .5 1.05.72 1.24-.17-.18.1.4-.05.28.2.23.68 1 .77 1.35l-.04-.06c.1.2.18.37.27.55-.08 0-.15.01-.22.02s-.13.03-.18.05c-.08-.28-.15-.38-.17-.23-.01.06-.01.17-.01.32-.06.04-.1.08-.18.13-.13.1-.2.16-.2.2-.02.06.13.02.4-.08.01.43.04 1.08 0 2-.03.77-.1 1.72-.27 2.87l-.3 1.88-.17 1.07c-.05.33-.03.63-.01.94-2.24-.42-3.8-.68-4.78-.82.12-.77.04-.87-.3-.04-1.68-.22-1.37-.01-.16.4-.5 1.26-1.36 3.85-2.7 8.1-4.2.8-7.13 2.4-9.9 4.3-2.76 1.98-5.4 4.4-8.7 8-1.45 1.6-2.64 2.88-3.63 4.1a68.71 68.71 0 0 0-2.73 3.33c-.87 1.07-1.7 2.18-2.62 3.48-.95 1.28-1.93 2.8-3.15 4.65-2.32 3.55-4.62 7.44-6.5 11.14-.38.9-.96 2.15-1.6 3.4-.62 1.26-1.2 2.6-1.6 3.7l-.45.8c-.25.77-.56 1.66-.92 2.4l-.01-.06c-.32 1.17-.83 2.43-1 3l-.02-.06-.42 1.4.03-.26-.8 3.07c-.27 1-.5 2-.7 2.94l.17-.13a27.77 27.77 0 0 0-.76 4.74c-.07.67-.1 1.34-.13 2.06-.06.73-.08 1.52-.12 2.45l-.04-.05c.23 2.36.4 4.2.7 6.07.32 1.86.77 3.76 1.94 5.93-.3-.54.04.27-.01.24.48 1.03 1.1 2.04 1.6 2.78.53.73.96 1.18 1.08 1.1 1 1.3.77 1.1.83 1.34.1-.1 1.06.97 2.08 1.78l-.5-.35c.94.8 1.97 1.52 3.07 2.1l-.5-.57c1.65 1 .3.5 1.95 1.3l.06-.2 1.6.82.06.12.25.1.33.12c1.22.63 2.34 1.17 3.93 1.7.7.2 1.45.35 2.2.47l-1.48 5.88.6-2.2c.1.84-1.33 4.42-2.23 8.76-1.06 4-1.44 8.3-2.63 12.43-.36 2.02.2-1.8-.42 1.2-.18.06.25-1.4-.07-.68-.66 2.94-1.35 4.75-2.14 8.38l-.16.12c-.94 4.76-2.33 8.84-2.87 12.02-1.05 4.88-1.14 3.17-2.08 8.3l-.62 1.93c-.52 2.17-.15 1.6-.77 4-.07-.17-.75 3.03-.54 1.6-.67 2.72-1.2 5.5-1.7 8.56-.12.76-.23 1.54-.33 2.36-.04.4-.1.82-.1 1.27-.01.17-.03.58.02.9 0 .18.06.34.1.5.07.15.18.3.27.42.26.2.55.4.85.55l.22.12.16.06.33.13c.44.18.88.3 1.32.44.9.26 1.78.46 2.7.65 1.65.1 5.35.6 6.56.52.2.15 7.45.45 3.26.43-.36-.01-1-.05-.95-.08l-.5.1c4.2.5 7.66.23 11.83.3-1.23-.05-2.88-.07-1.78-.14l3.87.05-.8.1a93.61 93.61 0 0 0 5.8-.05l-.8-.1c2.84-.08 3.86.08 7.03-.45 1.43-.26-2.7.14.28-.25 3.78-.34 9.44-1.2 14.1-2.75-.48 0 .78-.4 2.03-.9l.2.06c2.4-1.04 2.83-1.25 3.3-1.37.45-.17.95-.24 3.16-1.66l.7-.64 1.17-.9.78-.63.98-.76a6.48 6.48 0 0 0 1-.9c.43-.44 1-1.1 1.74-2.22-.6.87-.87.97-.68.7l.5-.78a24.86 24.86 0 0 0 .9-1.36l-.25.62c.77-1.23.88-1.67 1.35-2.48-.34.76-.02.48.86-1.37-.13.45-.3.87-.48 1.3a20.02 20.02 0 0 0 .74-1.8l.68-1.82a85.97 85.97 0 0 0 .92-2.31c.3-.83.55-1.7.8-2.5.5-1.63.83-3.07 1.1-3.63l.24-1 .52-2.3c.33-1.74.7-3.66.7-4.4-.1 1.28.5-2.17.5-1.16.17-1.64.7-6.45 1.06-8.36l-.03.37c.92-6.55 1.08-11.4 1.7-17.1l11.25-.23 5.87.08 2.4.05 1.27.02c.22 1.63.43 3.3.64 5.53l-.04-.07c1.26 6.48 1.18 10.4 3.05 17-.25-.82.02.37-.04.3.74 3.07 1.8 6.28 2.1 6.24.68 2.2.5 1.8.5 2.12.12-.06.8 1.82 1.5 3.47l-.35-.75c.64 1.6 1.3 3.16 2.08 4.7l-.23-1c1.14 2.48 0 .77 1.3 3.07l.15-.12c.92 1.66 1.7 2.98 2.78 4.15a6.36 6.36 0 0 0 2.01 1.51c.82.4 1.8.56 2.7.65.46.03.88.08 1.4.13.5.04 1.02.1 1.7-.01a2.22 2.22 0 0 0 .54-.15c.2-.06.37-.17.53-.3.33-.23.6-.6.74-.94.3-.7.32-1.27.33-1.8 0-1.08-.16-2.06-.33-3.03s-.4-1.94-.6-2.87l-2.6-11.24-4.7-21.68.01-.64c.15-.3-1.14-3.7-1.06-4.26l-.44-1.57c-.06-.45-.23-1.4-.01-.62-.32-1.47-.36-1.5-.65-2.54l-.22-1.6-.28-1.34-.47-2.16-3.05-13.3c-1.35-7.38-4.63-21.1-6.52-29.03-1.05-4.2-2-8.68-2.9-13.26.73 1.6 1.46 3.08 2.15 4.3 2.06 3.7 4.23 7.8 7.56 11.2 3.3 3.34 7.27 5.95 11.2 7.8.24.15.93.4.93.4 1.2.6 2.37 1.2 3.6 1.7l1.82.8 1.84.73 1.5.58c.94.32 2.24.82 3.73 1.3 2.98 1 6.73 2 9.64 2.62 1.44.3 2.68.5 3.5.6-.5 1.77-1.14 5.2-1.14 5.2-.84 4.2-1.34 7.4-1.82 10.8l-.74 5.42-.9 6.32-.03.16c-.08-.01-.16-.01-.24-.02l-1.03-.08-2.58-.23-4.43-.5-10.25-1.35-6.55-1.13 1.07 2.3a62.81 62.81 0 0 0 3.2.45c1.63.22 3.18.4 4.85.58.36.15-.43.12-1.4.02l2.36.3c-.04.13-1.37-.12-2.1-.2 2.78.63 5.83.57 9.1 1.1l.7-.04.2.04c0-.06.75-.07 1.24-.04.46.16-.06.27 1.6.4.65.1 1.57.17 2.55.2l2.6.05a8.34 8.34 0 0 1 .5.01c.1.04.1-.08.1-.16l.03-.24c-.04.15-.03.33-.1.38a6.81 6.81 0 0 1-.29-.03c-.15-.02-.2-.03-.2-.04 0-.01.06-.02.15-.03.05 0 .1-.01.15-.01.04-.02.15.04.13-.07.1-.56.2-1 .28-1.4l.1-.5a3.06 3.06 0 0 0 .06-.45l.13-.04c-.1-.13.22-2.18.2-2.46.2-.44-.1 1.27-.05 1.5l.5-3.15c3.17.14 6 .35 10.02.32-.75.01.32.05.26.07l3.9.05c.54 0 1-.01 1.33-.03a.95.95 0 0 0 .2-.02c.02-.01.05-.01.07-.01.1.01.15 0 .16-.02 2 .45 1.62.38 1.87.5 0-.05.94.07 2.06.2.14 1.16.4 2.38.38 3.7l.14.4-.01.12c.06-.01.17.4.2.7-.1.28-.27.01-.18.95-.04.76.25 2.13.4 3.1-.03-.53.05-.37.1-.14.05.47-.04.76.04 1.12l-.15.06c.13-.2.28 1.22.36 1.4-.1.28-.17-.73-.27-.84l.3 2.85c.22 1 .13-.2.32.27.12.9.3 1.76.32 2.8l.1-.34c.28 1.67.36 2.68.34 3.82l.45 2.2c-6.16.96-9.66 1.57-11.4 1.96-.5-.8-.68-.87-.37.08-1.66.4-1.17.5.16.46.62 1.74 2.22 5.57 5.25 12.4l-.16-.2 1.7 3.55.88 1.8c-2.58.43-5.26 1.13.33 1.6l-.05.05c1.26-.04 2.05-.1 2.9-.45.17.27 1.03-.1 1.33-.04l-.02.03c.74-.3 1.6-.01 2.3-.3-.03.03-.03.1-.2.13.53-.1 1.26-.25 1.32-.1 1.27-.2 3.07-.34 3.85-.7l-.05.05c.45-.24.6-.1 1.1-.26.03.02.07.03.06.03.5-.24 1.48-.2 1.88-.33l.04.1 1-.15-.38.02c.1-.32.8.1 1.5-.2.7-.05 1.32-.8 2.05-.74.32-.18-.27.27.22.1.04.16-.23.13-.08.24.47-.13.9.06 1.4-.1l.02.12c.2-.15.44-.12.56-.1-.01.2-.03.32.08.4.04.1.04.17.02.22-.02.08-.04.18-.07.25-.05.15-.1.3.1.72l-.12.36c.02.37.24.24.2.66-.1-.01-.01.53-.15.3-.04.95.5 1.85.37 3.1.24.24.2.87.38 1.04-.08.04.15 1.23-.14.57-.02-.06-.03-.16 0-.16l-.13-.07c-.14.73.3 1.25.35 1.94.01-.2-.03-.48.07-.3l.07.64-.12-.12.07.96.1-.15c0 .24-.05.4-.07.57-.01.1-.01.17.01.27.01.08.06.25.1.23.05.02.1 0 .13-.03.03-.03.06-.06.1.03-.03.1-.08.2-.12.27l-.3-.06c.03.14.08.13-.2.2l-.04-.12c-.82.3-.35-.23-1.17.03l-.12.2c-.72.35-.44-.2-1.23.26.33-.07.2.25-.22.25l.1-.13c-.22.06-.3.12-.44.12.13-.08.05-.18-.28-.1l.2-.18-.6.3c-.5-.06-1.25.2-1.47.07 0 0-1.05.07-1.27.3.2-.14-.4-.1-.24-.26-.25.17-1.03.4-1.37.3h.06c-1.2.03-2 .48-3.08.47.07.14-.5.14-.34.3-1.07.34-2.05-.08-2.37.54-.5.1-.6-.05-.87-.04l.1-.05c-.93.18-1.2.23-1.9.3-.34.1-.36.38-1 .4.2-.13-.07-.08-.3-.04.15-.04.2-.08-.13-.1-.04.04-.1.07-.16.1 0-.01-.02-.01-.01-.02-.38.1-.3.12-.13.1-.01.02.01.04.07.06-.42-.08-1.12.17-1.2 0-.48.1-.95.2-1.3.3-.2.08-.44.17-.72.25-.03-.07-.06-.14-.1-.23.07-.14.16-.07.22.02l-.1-.3c.12-.08.1.13.15.2.05-.3 0-.3-.13-.6-.15-.42-.3-.86-.3-1.36l-.15-.18.01-.06c-.05.01-.17-.18-.22-.32.1-.16.27-.05.16-.5.03-.4-.28-1.05-.44-1.52.04.27-.05.2-.1.1-.05-.23.03-.4-.05-.57l.15-.06c-.13.12-.3-.58-.37-.66.1-.16.18.34.27.38l-.32-1.4c-.22-.48-.13.12-.3-.1-.12-.44-.32-.85-.34-1.38l-.1.2c-.28-.8-.37-1.32-.35-1.9-2.42-5.98-1.8-1-1.8-1 .2 2.5.88 3.7 1.6 6.58.22 1.22.3 2.02.42 2.82a36.78 36.78 0 0 0 .18 1.23l.23 1.13.34 1.58.8-.13 1.8-.26.87-.14c.3 2.56.46 5.17.9 7.57-.04-.13-.13-.2-.23-.97.34 2.46.82 5.82.68 6.02.77 5.87 1.72 14.1 2.46 17.82l-.08-.25c.45 2.12.38 2.77.77 5.16-.01.13.01.3-.01.28.47 2.32.9 6.82 1.2 8.7l-.1.14.62 4.65-.2-1.74c.38.56.26 3.55.9 6.9.37 3.16 1.46 6.32 1.75 9.62.35 1.54-.4-1.35.01.98-.15.1-.24-1.08-.3-.46.38 2.3.33 3.8.83 6.6l-.1.13c.72 3.66.8 7 1.35 9.42.64 3.8-.01 2.6.82 6.53l.06 1.57c.22 1.7.4 1.18.6 3.08-.12-.1.3 2.4.02 1.3.56 4.3 1.76 8.58 2.96 14.18.26.57.58 1.56.88 2.5.33.94.62 1.85.87 2.26-.01.1.47 1.46.88 2.4s.65 1.53-.13.06c-.13-.26-.32-.72-.27-.7l-.27-.32c.53 1.6 1.18 2.98 2.16 4.3.14.17.25.33.4.5a3.88 3.88 0 0 0 .73.68 2.5 2.5 0 0 0 .41.25h.06c.1.98-.08 1.36.22 2.43.08.56.25 1.14.38 1.67.25.22.13.7.36.98l-.1.14c.08.1.14.2.1.33h-.04c.12.14.1.33.16.4h-.04l.05.2-.05-.02c.15.27.2.5.2.83l.14-.07a1.25 1.25 0 0 0 .36.98c.2.22.43.38.75.66l-.03.03c.58.06.92.16 1.23.25.32.08.64.14 1-.1-.1.06.05.07.05.1.37-.1.78-.27.67-.54.26-.1.25-.02.33.07-.06-.1.14-.27.32-.42l-.06.1c.18-.14.34-.3.47-.5-.1-.01-.18-.03-.26-.06.26-.2.3.12.44-.2l-.17-.1c.24-.36.66-.6.76-1.2-.01-1.4-.6-2.88-.36-4.2l.14-.07c.2-.04-.34-.34-.15-.4l-.1-.14c.04-.05.07-.14.12-.07 0-.14-.04-.14-.1-.24l.12-.16c.07-.56-.22-1-.2-1.6.05-.15.06-.33.06-.52l.02-.02c.16-.16.34-.5.43-.64l.22-.5c.14-.33.2-.64.32-.96l.2-.93-.26.62a21.08 21.08 0 0 0 .33-1.46c.1-.43.17-.8.2-1.2.25-.74.3-1.57.26-2.8zM252.32 111.48c-.03.22-.05.13-.06-.12l.06.12zM217 79c.12.17 0-.1.03-.1-.37-.65-.75-1.34-.9-1.27-.25-.48-.16-.4-.13-.5-.07.04-.3-.37-.5-.74l.12.16c-.2-.38-.38-.66-.44-1-.03.07-.07.15-.1.23-.08-.56.12-.17.04-.68H215c.07-.8.48-1.17 1-1.5.24-.16.7-.37 1.1-.58l1.2-.64 2.4-1.32c1.58-.86 3.22-1.75 4.66-2.35.04.01.1.03.14.05.05.08.66-.32.78-.17.1-.01.2-.02.3-.01.08.04.24.12.1.1.26.1.27.08.46.14a2.11 2.11 0 0 1 .19.23c.2.18.33.36.45.6l.5.86c.33.57.67 1.15 1 1.82.2.47.47 1.04.8 1.65-.3.1-.56.3-.7.5-.47.64-.62 1.3-.8 1.82.28-.77.23-.5.14-.16-.23.68-.45 1.06-.62 1.6l-.1.03c.2-.24-.58 1.82-.65 2.08-.2.36.35-1.08.36-1.27l-1.57 4.1c-.5 1.48.2-.23-.01.5-.5 1.3-.92 2.57-1.57 4.02l.27-.43c-.46 1.22-.83 2.18-1.2 3.03-.2.42-.38.82-.7.98-.18.08-.37 0-.5-.1s-.25-.26-.38-.44c-.83-.87-1.08-1.94-1.4-2.84l-.06-.18 2.35 3.57.23-.38c-.2-.36-.38-.73-.58-1l-.08-.3c-.16-.22-.33-.5-.42-.75l.03.01c-.24-.33-.42-.75-.54-.92l.03.01-.24-.43.07.06a16.44 16.44 0 0 1-.99-1.82l-.05.1c-.55-1.26-.94-1.62-1.4-2.77h.03c-.97-1.3-1.04-2.28-1.98-3.6zm.5 12.7c.15-1.5.32-3.05.34-4.38.05-1.58-.13-2.84-.3-3.54.18-.01.44 0 .65.16.3.17.56.6.75 1.04.2.46.36.96.47 1.3l.17.57c.26.9.42 1.75.8 2.67a4.56 4.56 0 0 0 .36.69 10.71 10.71 0 0 0 .38.55c.14.18.26.36.57.63.3.26.67.42 1.04.42.38-.01.72-.2 1-.46.12-.14.26-.32.35-.44l.18-.32a18.69 18.69 0 0 0 .48-1.11l.84-2.13 3.8-10.2c.3-.78.5-1.5.8-1.88.03-.05.06-.07.1-.1.02-.01.03-.02.04-.03.03-.02.06-.02.1-.01.04.02.03.01.1.07a1.29 1.29 0 0 1 .2.21c.02.02.01.03.03.12.01.1.02.23.03.35.01.26 0 .52-.01.8-.03.53-.08 1.05-.14 1.56-.1 1.02-.26 2-.4 3.05a26.88 26.88 0 0 0-.18 1.65c-.03.28-.05.57-.08.87l-.03.48v.28c0 .06 0 .1.01.18.02.1 0 .13.1.38.05.07-.01.04.15.22a.95.95 0 0 0 .53.26.81.81 0 0 0 .4-.07 1.62 1.62 0 0 0 .18-.1c.07-.05.04-.03.07-.05a1.63 1.63 0 0 0 .22-.25l.14-.22a3.71 3.71 0 0 1 .23-.32c.16-.2.36-.38.52-.46.17-.06.15-.07.27 0 .1.04.36.37.5.63.1.17.17.35.22.53.02.1.04.18.05.26 0 .04.01.1.01.13.01.07-.01.24-.05.37l.44.58.46.56.2.03c.04.01.04.01.06.02.03.01.05.03.08.05.05.04.1.08.15.16a1.6 1.6 0 0 1 .23.55c.02.17.03.53.03.8v.46l-.03.7c.16.2.26.33.36.42l.17.2c.02.06.04.22.05.2.02.02.05.05.07.1.06.1.1.24.14.4.07.33.1.7.07 1.1-.02.8-.16 1.56-.37 2.3-.17.83-.66 1.93-1.36 2.98-.7 1.04-1.53 2.1-2.16 2.95l-.58.58-.2.24-.1.13-.2.22-.3.97c-.1.27-.18.54-.28.8l-.01-.05c-.3 1.08-.72 2.26-.86 2.8l-.01-.05-.4 1.3.04-.23c-.55 1.86-1.17 3.77-1.75 5.43l.13-.1c-1.27 3.55-1.53 4.92-2.7 8.12l-.01-.05c-1.12 4.16-2.27 6.4-3.44 10.7.15-.53-.12.2-.12.16l-.4 1.32c-4.3-2.6-7.45-4.04-13.34-7.3l-5.4-3.26 3.5-5.16 6.78-9.85a5.27 5.27 0 0 0 .31-.44c.1-.16.2-.3.18-.3l4.1-5.7s.3-.43.78-1.2c.23-.4.52-.86.74-1.5.25-.66.2-1.53-.02-2.22-.38-1.43-1.04-2.84-.94-4.2zm28.5 93c-.05 1.46-.15 3.18-.32 4.63l-.03-.1c-.1 2.18-.36 4.63-.4 5.7l-.03-.1-.22 2.65-.01-.46a297.08 297.08 0 0 1-.94 11.16l.17-.27c-.84 7.35-.77 10.07-1.7 16.67l-.03-.1a89.99 89.99 0 0 1-1.43 10.78c-.64 3.23-1.3 6.48-2.28 10.56.15-.63-.24.6-.26.5-.54 1.9-1.22 3.8-1.76 5.26-.6 1.43-.93 2.44-.84 2.52-1.34 2.53-1.16 2.03-1.44 2.28.05.02-.2.57-.7 1.3-.48.73-1.22 1.63-2 2.4l.67-.76c-1.4 1.55-3.08 2.87-4.87 4 .4-.16.8-.3 1.18-.5-1.44.9-1.67.94-1.87 1-.2.04-.36.14-1.8.9l.12.16c-2.12 1.04-3.9 1.63-5.7 2.13-1.8.5-3.6.9-5.83 1.32-4.64 1.02-9.48 1.64-14.35 1.9-2.44.15-4.88.15-7.35.14l-7.37-.13c-4.87-.2-9.78-.44-14.3-1.44-.54-.16-1.1-.3-1.6-.5l-.38-.14-.18-.1c-.06-.03-.13-.06-.17-.1-.03-.05-.04-.1-.04-.17v-.17c0-.1.01-.26.02-.4.02-.27.05-.55.1-.84.07-.56.16-1.13.26-1.7.4-2.26.87-4.5 1.37-6.67l.3-.74c.27-.3.74-4.9 1.1-5.52l.37-2.05c.17-.56.48-1.76.3-.73.44-1.88.42-1.93.67-3.3l.6-1.98 5.12-21.48c1.98-7.14 4.95-19.2 7.34-29 .3 0 .56.02.64.1l.96-.06c.26.05.83.1.35.14.88.04.9-.04 1.54-.1.32.03.64.07.96.07 1.76-.08 3.36-.5 4.9-1.08 1.54-.6 3.03-1.36 4.57-2.36 1.92-1.1 4.33-3.24 6.26-5.75 1.96-2.5 3.55-5.26 4.65-7.28 1.5-2.9 3.25-5.86 5.04-8.9 1.77-3.06 3.4-6.22 4.55-9.34.1-.2.28-.72.25-.73.8-1.86 1.57-3.73 2.3-5.6l.43-1.14a94.55 94.55 0 0 0 1.02-2.85c.78-2.28 1.66-5.13 2.2-7.34.55-2.2.77-3.8.44-3.48-.34.3-1.18 2.52-3.32 7.63v-.16c-1.14 3.08-1.9 5-2.47 7.2-.4.23-1 2.5-1.4 3.17l.01-.08c-.55 1.94-1.77 3.73-2.4 5.55.01-.08-.04-.15.14-.55-.55 1.3-1.32 3.06-1.52 3.07-.7 1.52-1.64 3.3-2.5 4.94-.9 1.64-1.67 3.18-2.08 4.2l.03-.15c-.44 1.16-.74 1.4-1.34 2.65-.06.05-.1.13-.1.1-.5 1.26-1.96 3.36-2.5 4.3h-.13c-.48.74-.97 1.47-1.48 2.18l.6-.8c.04.45-1.3 1.53-2.37 3.1-1.17 1.3-2 3.1-3.6 4.15-.62.65.48-.65-.5.23-.13-.1.44-.44.1-.34-1 .82-1.8 1.1-3.14 1.9l-.1-.08c-1.75 1.14-3.63 1.25-4.9 1.7-2.08.4-1.43-.13-3.6.2l-.85-.2c-.93-.06-.68.2-1.72-.01.07-.1-1.3-.24-.68-.26a20.26 20.26 0 0 0-1.76-.34l-1.85-.38c-.63-.16-1.28-.34-1.96-.55-.34-.1-.67-.25-1.02-.4-.17-.07-.34-.15-.52-.22l-.26-.12c-.1-.04-.18-.08-.18-.1-.01.05-.3-.1-.5-.2-.12-.07-.24-.15-.37-.22-.18-.16-.45-.36-1.5-.82l.25.03c-.26-.03-.47-.07-.7-.1-.53-.22-.83-.43-1.05-.6-.2-.16-.33-.27-.45-.4-.23-.27-.5-.5-1.54-1.28.77.67.12.57-.7-.43l.3.16c-.5-.5-.68-.65-.95-1.04.32.28.26.08-.37-.74.17.16.35.32.53.46-.45-.46-.9-.96-1.3-1.48-.72-1.33-1.83-3.5-1.87-4.15 0 0-.06-.2-.16-.5-.1-.3-.24-.7-.36-1.15-.27-.87-.52-1.85-.68-2.2.24.62-.07-1.16.16-.68-.3-.8-.7-3.32-.57-4.33l.03.2c0-1.87.02-3.47.13-5.03.06-.78.1-1.55.25-2.33.12-.78.25-1.57.48-2.4-.17.12.27-1.62 0-1.23.63-3.5 2.15-6.08 2.04-7.48.5-1.54.82-1.74 1.14-2.5l-.12.37c.53-1.42.9-2.32 1.28-3.12s.66-1.53 1.17-2.54c.45-1.03.28-1.32 1.26-3.1-.22.62.16-.1.52-.78-.22.43-.25.58.28-.26.04-.14.12-.34.2-.52.01 0 .04-.04.04-.01.57-1.13.43-.95.14-.44 0-.03-.04 0-.15.15.72-1.1 1.8-3.2 2.03-3.23 1.88-3.3 3.2-5.68 4.93-8.35.28-.24-.07.42-.55 1.2l1.22-1.9c.1.1-.66 1.12-1.02 1.7.83-1.05 1.56-2.22 2.35-3.42.78-1.2 1.6-2.45 2.64-3.63l.3-.58.13-.14c-.05-.02.3-.64.6-1 .37-.27.2.2 1.16-1 .84-.9 2.2-2.7 3.2-3.94-.6.63-.45.38-.23.08.5-.6.92-.8 1.3-1.28l.17.06c-.3.12 1.27-1.58 1.46-1.8.2-.1 0 .1-.26.4-.25.3-.55.63-.6.73 1.06-1.13 1.4-1.34 1.65-1.62.3-.25.53-.56 1.7-1.56 1.2-1.14-.33.08.2-.53 1.08-.98 2.17-1.9 3.6-2.78-.18.05-.35.1-.52.18 2.24-1.6 3.72-2.38 5.5-2.94 1.14-.6 2.22-.93 3.17-1.3.98-.25 1.82-.57 2.58-.7 1.5-.34 2.58-.45 3.27-.56 1.4-.22 1.28-.35.54-.5-.77-.1-2.23-.2-3.5-.06-.4.02-.76.06-1.1.1l.25-1c.74-2.98 1.32-5.42 1.56-6.75 1.26.4 3.2.92 5 1.4.35 1.57.97 2.77.83 3.7-.08.55-.4 1.12-.7 1.67-.3.54-.63 1.06-.97 1.6l.14-.28c-1.2-.01-1.84.15-1.54.3.14.08.52.16 1.13.3-.55.65-1.7 2.42-2.17 3l.04-.08c-1.25 1.98-2.9 3.84-4.1 5.77.04-.08.03-.15.32-.58-.92 1.37-2.15 3.25-2.3 3.3l-6.1 9.4c-.15-.1-.3-.2-.45-.28l-3-1.8-1.07-.62-1.36-.77c-.04-.02-.08-.05-.12-.06l-.27.3-1.35 1.54-.82 1c-2.23 2.6-4.44 5.5-6.4 8.2-.78 1.4-2.57 3.56-3.5 5.2l-.5.54c-.3.57-.7 1.23-1.1 1.73v-.05c-.45.86-1.07 1.76-1.3 2.2v-.05c-.2.33-.4.67-.6 1l.06-.2c-.8 1.5-1.67 3-2.44 4.33l.2-.04c-1.7 2.8-1.95 4.04-3.4 6.58 0 0-4.9 13.03-3.47 12.83.03 0 .06-.03.1-.04l.2-.98c.56-1.14 1.2-3.06 1.56-3.47 0 0 1.18-2.47 1.3-3.1-.13.55.55-.8.5-.36.18-.7 1-2.64 1.5-3.34l-.06.15c1.5-2.75 2.16-4.9 3.64-7.23-.2.04.6-1.2.26-.98 1.25-2.6 3-4.3 3.08-5.5.67-1.13.97-1.23 1.36-1.78l-.15.28c1.32-2.08 1.74-2.65 2.8-4.14.5-.77.35-1.05 1.38-2.33-.23.5.15-.06.52-.55-.22.32-.26.44.28-.16.04-.1.13-.26.22-.4.01 0 .04-.02.03 0 .58-.84.46-.7.15-.35 0-.03-.04-.01-.15.1.75-.76 1.8-2.35 2.02-2.34l3.6-4.76 1-1.28c.08-.02.06.07 0 .2-.06.13-.1.22-.38.56l.4-.5c.1-.1.18-.32.33-.16 0 .1-.12-.05-.2.13a8.15 8.15 0 0 1-.35.41c.12-.12.16-.15.2-.18l.12-.1.1-.1c.04-.03.1.04.14.05l1.12.57c1.04.53 2.12 1.08 3.18 1.8l.5.17.12.1c.02-.05.55.17.9.34.25.28-.16.22.94.84.8.6 2.48 1.36 3.65 1.95-.6-.37-.37-.3-.1-.2.55.3.8.6 1.25.8l-.03.17c-.14-.25 1.5.68 1.74.74.25.28-.9-.4-1.08-.4l3.3 1.87c1.23.57-.14-.25.5-.05 1.05.57 2.1 1.05 3.25 1.8l-.3-.34c2 1.02 3.15 1.7 4.38 2.57 15.02 7.3 3.82.4 3.82.4l-1.1-.7c.45-1.3.9-2.84 1.13-3.28 0 0 1.05-3.03 1.17-3.76-.14.63.44-1.04.36-.53a37.61 37.61 0 0 1 1.27-4.07l-.05.18c1.2-3.43 1.83-5.94 2.94-9-.13.1.45-1.5.22-1.14.95-3.24 2.13-5.77 2.2-7.04.45-1.44.66-1.75.9-2.4 0 .02-.06.2-.08.3a5.81 5.81 0 0 0 .1-.33l.52-.6c.18-.2.34-.4.5-.6l.8-1c.46-.6.9-1.16 1.42-1.98l4.52 1.02 10.63 2.34.33.07.15.03h.02l.1.02c.1 0 .03.1.05.18l-.06 1.4-.28 6.23-2.26 35.93-1.4 23.5c-.03 3.6-.68 9.9-.82 14.14l-.28 1.6zm20.44 22.95l-.1-.02c0 .01-.02.03-.06.04-.04.02-.1.03-.24.04a11.17 11.17 0 0 1-.83.06c-.48-.12.03-.27-1.66-.26-1.34-.1-3.8.06-5.57.12.95.02.64.08.23.13-.85 0-1.34-.1-2-.06l-.06-.12c-.12.12-2.26.13-2.55.2-.48-.12 1.32-.1 1.53-.2l-5.1.02c-1.8.12.33.15-.54.3l-3.23.08c0-.68.2-2.73 0-2.07.4-6.6 1.45-12 1.07-14.43.23-3 .42-3.55.57-5.1l-.03.72.8-11.45c.1-2.1-.15-2.44.17-6.18.02 1.22.1-.3.2-1.7-.04.9-.02 1.18.17-.66-.02-.26-.01-.66 0-1.04.01-.01.02-.1.03-.05.12-2.34.06-1.93-.03-.85-.01-.06-.04.03-.1.37.3-2.42.43-6.76.63-7.04l.8-17.92c.13-.65.13.72.07 2.42l.2-4.15c.13.04-.06 2.4-.1 3.67.5-4.93.38-10.2.9-15.98l-.04-1.2.04-.34c-.06.01-.06-1.3-.03-2.15.16-.8.27.07.42-2.8.2-2.02.28-5.56.36-8.4l.4.77c.43.72-.47-1.48.26.07.82 2.02 1.82 5.13 2.53 7.83.06-.3.27.43.52 1.17l-.1.12c.9 2.84.01 1.12.84 3.95l-.14-.23.4.7c.77 2.56.1 1.45.94 4.3-.22-1.15.17-.6.37.84l-.18-.34c.16.78.26 1.04.32 1.57-.15-.46-.22-.22.01.93l-.28-.75c.2.7.38 1.44.56 2.17.13 1.72.68 4.4.6 5.13 0 0 .42 3.68.7 4.5-.2-.73 0 1.3-.2.75.25.94.7 3.74.7 4.9l-.04-.2c.36 4.2 1.03 7.12 1.27 10.9.13-.2.26 1.8.4 1.3.6 3.87.38 7.12 1.1 8.47.2 1.77.08 2.1.15 3.03l-.07-.42.7 6.73c.18 1.22.46 1.4.6 3.6-.17-.7-.07.2.01 1.02-.07-.53-.12-.68-.1.4.05.15.1.38.13.6-.01.01-.01.05-.02.03.17 1.37.18 1.13.13.5.02.03.03-.03.05-.23 0 .73.1 1.75.18 2.6l.15 9.22.6 4.83.12-.24a160.07 160.07 0 0 0 .63 5.5c-.06 0-.13.03-.22.06zm65.26-8.37v-.04c.05.02.04.03 0 .04zm.14-.1c-.05-.15-.1-.4-.14-.7l.07.68c-.03 0-.05 0-.08-.01a6.3 6.3 0 0 0-.05-.51 4.34 4.34 0 0 0 0 .51l-.6-.04c.3.03.5.07.6.1v.06c-.23.01-.82-.03-1.63-.17h.43c-.92-.13-1.22-.16-1.82-.3.27.04.35.03.2-.03-.08-.03-.2-.07-.4-.1-.1-.03-.2-.05-.34-.1-.08-.02-.16-.04-.25-.07-.06-.03-.14-.01-.2-.02h-.13l.12-.01c.07 0 .14-.01.2 0 .16.04.2.04.28.05l.44.06-.65-.12c-.1-.03-.2-.02-.3-.02h-.16l-.33.01-1.3.03c-2-.13-5.2-.12-6.03-.25 0 0-4.33-.18-5.33-.1.87-.04-1.5-.15-.83-.2-.34.01-.9.02-1.53.01.02-.15.05-.3.08-.5.17-1.75-.2.3-.2-.56.22-1.53.35-3.05.73-4.8l-.23.53c.36-2.9.66-4.6 1.1-6.52l.58-5.67c1.6.55 3.05 1.07 4.3 1.4 3.3 1 2.12.93 5.58 1.88l1.32.5c.76.22 1.04.24 1.35.28l1.5.2c-.06.03.5.1.98.08s.85-.07.27.04c.25-.03.42-.03.78-.15l-.04.02.93-.3-.08.48c-.06.36-.07.68-.1.98-.05.6 0 1.06-.01 1.78.06.7.34.8.32 2.06-.12-.4-.08.1-.06.58-.03-.3-.07-.4-.12.23.04.1.06.22.1.34-.01.01-.01.03-.03.02.08.78.1.64.1.28.02.02.04-.01.06-.13-.1.8.14 2.25-.04 2.36.2 2.3.5 3.94.72 5.83a.31.31 0 0 0-.11-.02zm13.4 22a6.92 6.92 0 0 0-.48.07c-.01-.03-.01-.07-.02-.1l.5.03zm-3.27-21.58c-1.3 0-2.4-.3-2.8-.7-.2-.2-.2-.3-.2-.5 0-.5 1.1-.58 1.9-.58.32-.06.6-.02.8-.02.9-.1 1.9.2 2.3.5.1.1.1.2.1.2 0 .6-.1 1.1-2.1 1.1zm.9-2.8c-.13.01-.24 0-.37 0-.3-.02-.57-.02-.84 0-1.07-.07-1.85-.35-2.3-.8-.2-.2-.38-.4-.3-.7.42-1.52 4.74-.8 5.66-.62.27.1.5.2.64.32.2.2.2.3.2.3 0 .9-.2 1.5-2.7 1.5zm4.2-4.6c0 .4-.1.8-.3 1-.37.45-1.2.56-2.07.6-1.06.03-1.56-.03-2.57-.14-1.2-.2-2.35-.58-2.76-1.05-.2-.2-.2-.3-.2-.5.1-.9 1.6-1.4 4.5-1.4h.2c2.2 0 3.1.2 3.2 1.5zm0-3.1c-.6.6-1.8.7-2.7.7-1.5 0-3.5-.3-4.2-1.1-.2-.2-.2-.5-.2-.8.2-.9 1.4-1 2.7-1h.9c3.1-.1 3.8.6 3.8 1.2 0 .4-.1.8-.3 1zm-12.63 20.28c-.4-5.16-.26-6.56-.8-11.9l-.56-7.74c-.12-.58-.18-1.4-.17-2.23l-.02-1.24c.03-.36-.01-.7.02-1.02l.2-.45c.04-.42.13-.92.36-1.3l.02.04c.14-.63.56-1.23.7-1.52l.02.04c.13-.22.3-.43.44-.65l-.04.14c.6-.96 1.5-1.78 2.4-2.33l-.15-.07c.98-.57 1.66-.94 2.34-1.27.7-.3 1.37-.6 2.4-.72l-.02.04c1.24-.46 2.3-.46 3.34-.36 1.04.12 2.04.32 3.35.57-.33-.06.1.12.07.14 1.17.35 2.27 1.04 2.44.82.76.5.54.5.57.66.04-.05.22.03.46.2a8.3 8.3 0 0 1 .77.66c-.1-.07-.18-.13-.27-.2.5.46.94.97 1.35 1.5l-.05-.46c.6.93-.06.37.57 1.24l.16-.12c.4.67.67 1.23.84 1.82.1.3.2.58.3.88l.26.97c.52 1.38.83 2.85.57 4.17-.24 1.32-1.18 2.43-2.44 3.18a11.46 11.46 0 0 1-.99.5l-.52.2c-.12.01-.23.08-.33.06-.2.03-.38-.08-.6-.2-.2-.2-.43-.42-.6-.7-.76-1.17-1.22-2.66-1.67-4.08l.04-.3c.08-.1-.14-.46-.4-.84-.06-.1-.12-.2-.18-.28l-.22-.32c-.14-.2-.22-.37-.25-.45-.24-.22-.47-.45-.75-.58-.18-.2-.65-.48-.22-.3-.77-.4-.82-.32-1.4-.4-.27-.07-.56-.16-.84-.2-.8-.03-1.54.18-2.22.5a3.55 3.55 0 0 0-.77.51c-1.17.07-2.5.4-2.73 1.78-.1.6.1 1.1.5 1.5.3.35.7.6 1.2.82-1.2.24-2.34.76-2.5 1.88-.1.5 0 .9.3 1.2.26.28.63.52 1.06.7-.84.2-1.5.55-1.56 1.4-.1.5.2.9.5 1.3.2.2.46.37.74.5-.65.17-1.18.5-1.24 1.2-.1.5.1.9.4 1.2.65.65 1.77.84 2.65.88l.43 3.5c.73 4.8.35 10.53 1.13 15.45-.02.16.1.58.1.57l.12 1.6c-2.63.34-4.54.53-6.63.65a6.41 6.41 0 0 0-.43.07c-.25-4.64-.9-7.17-1.54-12.83zm13.64 30.8c-1.48.2-3.15.53-4.27.76-2.4.62-5.34.1-7.8.78-.08-.02-.3.07-.28.1l-2.3.25-.9.1-4.4-8.67-4.28-8.05c-.12-.2-.22-.4-.32-.56 2.53-.1 6.9-.52 6.9-.52a313.88 313.88 0 0 0 11.65-1.23l5.4-.7 2.85-.38c.25-.03.5-.07.74-.1l.38-.05c.08-.01.1-.01.1-.01l.02-.01.22-.05c-.01.08-.01.16-.02.25l-.34 1.87-.8 4.18-2.58 12.03zM359 383.6l-.03.13-.03.03c-.02.01-.04.03-.05.04.14.03.13.04.15.08l-.12-.04c.1.18-.26-.1-.18.05l-.07-.06c.07.06.13.12.18.18.07.27-.2-.16-.12.2.04-.06.2.22.05.22l-.03-.12c-.04.05-.03.1-.08.1.01-.07-.05-.17-.12-.12l-.01-.16c-.02.08-.04.18-.08.26-.16-.08-.38.1-.47-.05-.01 0-.34-.06-.4.12.06-.1-.1-.17-.03-.3-.03.06-.12.12-.17.13-.03.02-.06 0-.04-.06l.01-.01c0-.08-.03-.04-.1-.04-.06.01-.1-.04-.03-.1-.13.1-.1-.2-.27-.1-.27-.44.2-.93-.38-1-.07-.2.1-.28.1-.4l.04.05c-.12-.4-.15-.5-.2-.82-.08-.14-.35-.12-.33-.4.12.07.08-.04.06-.14.03.06.07.07.12-.07-.04-.01-.06-.04-.08-.06.01 0 .01-.01.02-.01-.07-.16-.1-.13-.1-.05-.02 0-.04.01-.06.04.1-.2-.1-.48.08-.54-.13-.5-.38-.82-.53-1.23.08-.06.18.02.24.13l-.1-.3c.13-.02.1.16.15.24.15-.4-.35-.7-.23-1.14l-.12-.07.01-.03c-.05.01-.15-.07-.18-.13.1-.08.27-.04.22-.25.06-.13-.04-.3-.14-.47l1.74-.28c-.94.1-2.2.3-1.37.1l2.94-.43-.6.2c.23-.04.44-.06.67-.1-.03.1-.06.2 0 .35l-.12.02c.25.34-.12.67.1.9.13.36-.35.27-.08.63l-.16.16c-.02.16.2.1.14.3-.1 0-.07.23-.18.13-.14.42.3.8.05 1.36.2.1.1.38.27.46-.1.02.02.54-.2.25-.02-.02-.02-.07.02-.07l-.12-.03c-.2.32.16.54.15.85.03-.1.02-.2.1-.14v.28l-.1-.05-.03.42.12-.07c-.05.2-.26.3-.07.5.1.1.16-.2.2.01.02.18-.02.36-.06.53zm1.02-14.66c-.03 1.22-.14 2.42-.3 3.6-.1.58-.22 1.14-.38 1.65-.08.2-.22.53-.22.5-.05.1-.14.13-.24.13l-3.76.6-.67.1c-.12.06-.2-.1-.26-.14-.28-.32-.66-.88-.94-1.4-1.2-2.1-2.02-4.5-2.77-6.84-1.44-4.73-2.42-9.5-3.1-14.07l.04-.62c.17-.3-.92-3.7-.8-4.24l-.34-1.57c-.03-.45-.13-1.4.04-.6-.2-1.47-.25-1.5-.47-2.54l-.1-1.6c-.72-5.8-1.66-10.7-2.42-16.82-.72-7.37-2.75-21.16-3.9-29.1-1.74-11.16-2.52-24.3-4.3-35.72-.01-.2-.06-.52-.1-.8s-.1-.52-.12-.52l-.1-.77.35-.06c.56-.3 1.64-.24 2.32-.52l.3.08c.23-.1.5-.18.76-.15v.04c.35-.14.76-.15.94-.22l-.01.04.44-.08-.07.06a8.39 8.39 0 0 1 1.85-.33l-.07-.14c1.25-.02 1.65-.38 2.8-.35l-.01.04c1.34-.58 2.25-.06 3.64-.63-.17.07.1.06.08.1.36-.08.74-.15 1-.25 0 .02 0 .04.01.07l1.93 18c.5 2.72.8 7.6 1.3 10.83l.01 1.27c.18 1.1.35 2.42.4 3.56l-.04-.07c.26 1.66.4 3.56.53 4.38l-.04-.07.22 2.03-.1-.34c.4 2.9.7 5.9.94 8.57l.12-.23c.42 5.68.94 7.72 1.27 12.85l-.04-.07c1.05 6.42.8 10.24 1.84 16.87-.13-.83-.04.36-.08.3.36 3.06.72 6.34 1 6.36.23 2.24.1 1.83.02 2.13.12-.02.37 1.9.56 3.66l-.13-.8.56 5 .13-1c.2 2.66-.2.7.1 3.23l.2-.05c.28 3.67.17 5.85.18 9.4.1 2.38.15 4.82.05 7.25z"/><defs ><path id="B" d="M239.55 154.9c-2.48 0-4.5 2.1-4.5 4.7s2.02 4.7 4.5 4.7 4.5-2.1 4.5-4.7-2.02-4.7-4.5-4.7zm0 8.4c-1.93 0-3.5-1.66-3.5-3.7s1.57-3.7 3.5-3.7 3.5 1.66 3.5 3.7-1.57 3.7-3.5 3.7z"/></defs></svg>