<svg xmlns="http://www.w3.org/2000/svg" viewBox="0 0 480 480" xmlns:v="https://vecta.io/nano"><path d="M2711.8 107l.5-.12c-.02-.02-.15 0-.5.12zm19.8-3.25h-.03c-.04.01-.1.02-.13.04l.16-.04z"/><path d="M352.68 174.4s2-1.3 1.6-2.6c-.3-1.3-1.8-.9-1.8-.9s1.06-.98.35-2c-.5-.7-2.47-.68-5.54.32-2.05.67-7.7 2-8.7 2.3s1.7-1.7 3-2.8 1.3-3.3-1.5-1.8l-6 2.8c-.7.5-2.4 1.8-3.5 2.9l-1.1 1s-.55.52-2.44 1l-.06-.2c-.3-.8-1.1-1.3-1.9-1.2l-4.9 1.2c-.97.18-1.47.66-1.3 1.4-9.75 1.18-26.32 2.85-33.9 3-4.9.1-11.3-3.1-13.9-7.6-1.07-1.82-3.4-7.1-5.85-12.8l-.52-2.87 4.08-1.52s-6-16.7-10.7-27.8c-1.37-3.25-3.15-7.13-5.4-10.87-2.66-4.67-6.02-8.75-10.33-11.44l-.58-.36-.85-.47c-.08-.04-.17-.08-.25-.13-3.2-1.64-6.9-2.56-11.2-2.43-4.1.1-7.92.7-11.82 3.2-.1 0-2.48 1.2-2.78 1.4-.38.3-.96.9-1.7 1.88-5.38 1.33-10.8 4.25-16.1 7.12-12.4 6.7-29.2 21.4-29.2 21.4l2.8 3.05c-5.9 4.42-8.97 8.2-11.4 11.75-4.2 6.4-4.6 15.7-4.8 30s1.2 43.8 1.2 43.8-1.6 6.2.5 13.7c2.1 7.4 2.45 8.65 3.63 9.36.86.6 1.57-.46 1.57-.46s.63 2.88 1.93 2.98 1.67-1.58 1.67-1.58.85 1.34 1.9.93c1.3-.5 1.17-2.77 1.22-5.54.04-2.12.63-7.6.73-8.7.1-1 1.37 1.85 1.97 3.45s2.67 2.2 2.17-.8l-.9-6.53c-.2-.8-.4-2.88-1-4.28-.5-1.4-1-1.42-1-1.42s-.6-1.1.1-4.2 8.7-34.8 10.2-39.4c1.9-6 10.3-13.9 14.8-16.5l3.02 3.27-5.3 38.4c0 .2-.1.9-.2 1.1v.1c0 .3-.1.4-.1.5v.1h70.72c7.5 1.9 16.13-.4 29.48-5 8.64-3 22.6-8.35 31.53-11.8.38.7 1.18 1.07 1.97.8l4.4-1.3c.9-.3 1.4-1.2 1.1-2.1l-.1-.27 1.1-.43s7.2-1.6 13.4-6.1 6.75-5.4 7.3-6.4c.68-1.24-.82-1.58-.82-1.58z" fill="#fff"/><path d="M354.63 171.2a1.51 1.51 0 0 0-.5-.6c-.1-.08-.24-.14-.34-.2l-.1-.04c-.07-.02-.14-.02-.2-.01l.03-.03c.04-.05.08-.1.1-.15l.03-.06.02-.1c.03-.15.05-.33.03-.5-.03-.35-.15-.68-.34-.96-.5-.63-1.1-.66-1.58-.73a6.47 6.47 0 0 0-1.4.05c-.9.1-1.76.33-2.6.57l-4.95 1.4-2.15.56-.22.06c-.12.04-.02-.1.01-.1.2-.2.42-.37.65-.56.3-.3 1.42-.97 1.72-2a1.86 1.86 0 0 0 .08-.93 1.13 1.13 0 0 0-.57-.8c-.3-.18-.67-.18-.95-.15-.28.04-.5.1-.73.2-.9.37-1.55.78-2.34 1.12l-2.3 1.02c-.77.36-1.54.6-2.34 1.15a38.54 38.54 0 0 0-3.83 3.19l-.45.4-.23.2c-.05.05-.1.07-.17.12-.28.17-.63.32-1 .44-.23.08-.46.13-.7.2-.45-.85-1.37-1.36-2.36-1.24l-4.9 1.2c-.98.18-1.4.62-1.57.96-.05.1-.1.24-.13.4l-1.77.26-1.52.1-16.13 1.7c-3.52.22-8.6.68-13.73.86-2.47.1-4.96-.6-7.1-1.6-2.14-1-3.96-2.33-5.2-3.7-.9-.94-1.6-2.06-2.2-3.3-.62-1.24-1.2-2.52-1.8-3.83-1.16-2.6-2.28-5.3-3.4-8l-.65-1.58a12.44 12.44 0 0 0 .85-.34l.1.08 2.83-1.1-1.27.45c.08-.1.16-.17.48-.3a22.87 22.87 0 0 1 1.28-.41c.13-.04.27-.1.4-.13.1-.01.08-.08.05-.15l-.06-.2-.3-.9-.32-.9c-.1-.22-.18-.44-.3-.66-.6-1.73-1.88-3.27-2.4-5.1-.45-.8.5.67-.08-.56.13-.1.3.56.3.2-.54-1.22-.6-2.1-1.3-3.6l.1-.1c-.97-1.92-1.28-3.84-2-5.1-.9-2.02-.2-1.52-1.26-3.57l-.17-.9c-.34-.93-.45-.58-.78-1.62.12.02-.44-1.3-.1-.76-.78-2.36-2.1-4.57-3.2-7.67-.48-.57-1.07-2.1-1.45-2.52.06-.12-1.5-2.96-.46-1.4.1.14.2.4.17.4l.2.14c-.64-1.8-1.7-2.98-2.62-4.6.26.5.62 1.13.3.74-.28-.5-.58-1-.88-1.5l.27.25a45.09 45.09 0 0 0-1.36-2.21l.1.37c-.66-1.08-.74-1.58-1.76-2.62-.48-.45.6 1.06-.25.02-.97-1.4-2.57-3.42-4.25-4.88.07.24-.4-.14-.88-.5l.02-.14c-2-1.26-.5-.78-2.58-1.93l-.45-.05c-.98-.42-1.24-.55-1.5-.74-.26-.2-.58-.36-1.75-.6.46.17.52.26.33.26l-.9-.37c-.55-.18-1.1-.34-1.65-.5l.5-.02-.78-.06c-1.02-.27-2.04-.5-3.07-.62l-.58-.2c-.25-.33-3.73.2-4.2.04l-1.52.17c-.43-.02-1.35.02-.6-.1-1.43.1-1.26.3-2.28.5-.52.04-1.1.26-1.63.34-1.95.4-3.6 1.27-5.18 2.3h0c-.13.06-.07.04-.1.06l-.1.07-.15.1-.27.2-.5.4-1 .77-.54.42c-.2.17-.7.6-.85.8-.2.2-.44.4-.66.58l-2.2.6c-.87.37-.94.65-2.53 1.18.46-.3-.16-.03-.74.2.36-.17.47-.25-.32 0-.1.07-.25.16-.4.24-.01-.01-.04 0-.03-.02-.96.44-.77.4-.32.22-.02.02.03.03.18 0-1.06.3-2.75 1.27-2.94 1.16-2.8 1.42-4.67 2.66-6.92 3.95-.3.06.2-.3.84-.7l-1.6.92c-.05-.13.9-.6 1.38-.88-1.02.4-1.98 1.05-3 1.68-.98.67-2 1.34-3.15 1.97l-.4.38-.14.07c.04.04-.4.42-.72.65-.37.1-.14-.25-1.2.48-.9.47-2.34 1.67-3.37 2.5.6-.4.44-.2.22 0-.52.37-.9.5-1.26.82l-.14-.1c.3-.03-1.25 1.12-1.4 1.3-.36.12.74-.67.8-.83l-3.06 2.3c-1.02.92.3-.03-.15.47-.94.75-1.8 1.56-2.94 2.33l.43-.16c-1.7 1.48-2.77 2.3-4.04 3.16-3 2.8-4.6 4.47-5.33 5.37-.5-.4-.67-.36-.26.33-.47.63-.27.67.2.4.01-.01.02-.01.03-.02.3.47.78 1.14 1.43 2.03a64.3 64.3 0 0 0-3.04 2.39c-1.46 1.24-2.87 2.55-4.37 4.2-.75.83-1.5 1.74-2.3 2.77-.77 1.04-1.6 2.14-2.4 3.55-1.46 2.65-2.34 5.65-2.86 8.64-.54 3-.77 5.98-.93 8.83-.04 2.7-.28 7.47-.22 10.66l-.1 1.24c.03 1.1.04 2.4.01 3.5l-.02-.07.08 4.3-.02-.07.04 2-.04-.34.23 8.4.08-.22c.06 5.56.3 7.58.38 12.6l-.02-.07c.24 3.16.3 5.67.36 8.2l.13 3.9.05 1.04c.01.17.03.4.02.4-.03.18-.07.35-.1.53a19.27 19.27 0 0 0-.27 2.37c.06-.83-.08.35-.1.28-.27 3.07.16 6.34.34 6.36.3 2.2.24 1.8.22 2.1.04-.01.14.46.33 1.13.18.68.43 1.56.67 2.37l-.24-.75 1.4 4.7-.14-.97c.73 2.5-.01.7.85 3.07l.1-.07c.26.66.5 1.3.98 1.8.25.26.46.44.82.6.18.08.4.1.6.1.22-.02.38-.1.4-.1.1-.05.18-.1.24-.18l.02-.03c0 .01.01.03.01.04l.06.27.05.2c.05.15.1.32.17.48a4.72 4.72 0 0 0 .52.99c.23.3.57.7 1.15.83.53.12 1.12-.04 1.55-.4.13-.12.25-.24.35-.38.05-.08.08-.1.1-.14.03-.05.05-.1.07-.17.03.05.07.1.12.14l.06.05c.1.06.2.13.3.18a1.89 1.89 0 0 0 .84.2 1.88 1.88 0 0 0 1.49-.81c.6-.92.6-1.8.66-2.6.07-1.66.01-3.2.15-4.8l.2-2.4.2-2.18.03-.4v-.2c0-.03 0-.08.03-.1.04 0 .06.03.08.05.08.1.14.22.2.35l.1.2.14.3.45 1.1c.12.35.36.86.7 1.2.18.18.35.34.6.47.23.14.6.22.9.2.32-.03.6-.23.78-.48.2-.27.26-.56.3-.8.08-.5.01-.9-.04-1.33l-.17-1.2-.33-2.35-.32-2.33c-.1-.8-.26-1.47-.37-2.26-.13-.76-.28-1.53-.52-2.3a14.96 14.96 0 0 0-.43-1.11c-.1-.2-.2-.38-.32-.57-.07-.1-.14-.2-.23-.28-.07-.08-.25-.22-.24-.2-.02-.01-.05-.01-.06-.05-.02-.06-.02-.06-.04-.18-.02-.1-.04-.23-.05-.35-.02-.24-.03-.48-.02-.72a9.18 9.18 0 0 1 .16-1.47c.06-.18.12-.37.2-.55.15-.2.67-3.63.9-4.1l.32-1.53c.13-.42.38-1.32.22-.55.36-1.4.34-1.44.56-2.46l.46-1.5 4.05-16.08 3.73-13.56c.8-2.4 2.28-4.6 3.8-6.5.64-.8 1.3-1.56 1.93-2.28l-.22-1.1c-.95 1-1.8 1.95-2.3 2.6l-.13.05c-.6.75-1.17 1.54-1.7 2.35-.1.3-.6 1-1.23 2.06-.63 1.05-1.26 2.57-1.62 4.18-.87 3-1.3 6.18-2.2 9.28-.3 1.5.2-1.35-.3.9-.1.05.2-1.05-.01-.5-.53 2.2-1.03 3.56-1.66 6.27l-.1.1c-.77 3.55-1.8 6.62-2.26 9-.86 3.65-.83 2.38-1.64 6.2l-.47 1.45c-.42 1.62-.17 1.2-.66 2.98-.04-.13-.6 2.27-.4 1.2-.2.8-.42 1.63-.52 2.5-.05.44-.07.9-.06 1.36a5.83 5.83 0 0 0 .06.71c.02.12.04.24.07.38.04.18.1.37.18.54a2.49 2.49 0 0 0 .3.19c.36.32.57.83.82 1.5.22.6.38 1.26.5 1.95l.38 2.23.27 2.34c.14.58.3 1.55.43 2.5.13.95.3 1.84.3 2.2-.02.01-.04.4-.13.52-.04.07-.14.12-.23.1-.07-.01-.2-.07-.34-.2-.27-.24-.4-.54-.4-.6 0-.07.05.16.47.52.08.05.17.12.22.14.04.02.05.03.05.04.03-.02.05-.05.06-.08-.03 0-.06-.01-.08-.03-.05-.03-.13-.1-.23-.18-.17-.17-.32-.4-.42-.64-.13-.34-.27-.7-.42-1.03l-.22-.5-.4-.88c-.3-.57-.6-1.14-.9-1.38-.15-.12-.28-.2-.4-.24-.03-.01-.07-.01-.1-.02-.01 0-.02-.01-.02-.01-.02-.01-1.87-.6-3.4-2.6-1.12-1.48-1-5-1-5.04.01-.28-.2-.5-.48-.52a.47.47 0 0 0-.52.48c-.01.16-.13 3.9 1.2 5.68 1.26 1.66 2.7 2.45 3.42 2.78-.01.04-.03.07-.04.12-.08.63-.14 1.33-.2 2l.14-1.25.06-.57c.01-.16.05-.22.08-.3.01.01.04.02.05.02-.1.22-.12.7-.17 1.07l-.12 1.17-.14 1.44v-.6l-.4 4.3.12-.6c-.22 2.1-.2 2.95-.26 5.2-.03 1.02.27-1.88.1.23-.07.5-.23 1.1-.52 1.37-.14.13-.34.2-.5.18a.73.73 0 0 1-.28-.1c-.05-.03-.1-.06-.2-.14-.12-.1-.24-.22-.36-.37-.2.01-.34 0-.45-.01l-.2-8.62c1.17-.25 1.84-.52 1.88-.53.25-.1.38-.4.27-.65-.1-.25-.4-.38-.65-.27-.01.01-1.36.55-3.6.78-2.44.25-4.2-.58-4.2-.58a.5.5 0 0 0-.44.9c.05.02.8.37 1.96.57l.7 7c-.04 0-.07 0-.12-.01-.37.34-.34.22-.4.25-.01-.03-.02-.06-.02-.08-.04.01-.18-.08-.32-.17-.1-.08-.2-.17-.28-.25-.15-.18-.25-.35-.32-.5-.15-.3-.18-.46-.23-.6-.08-.33-.17-.6-.77-2.4l.15.3-.44-.9c-1.08-3.23-.4-1.82-1.57-5.4.4 1.42-.02.72-.37-1.06l.16.44c-.22-.98-.3-1.3-.4-1.97.14.58.12.3-.06-1.16.07.32.12.65.2.97-.18-.9-.3-1.83-.4-2.76-.01-1.08-.01-2.47.1-3.7.1-1.23.27-2.3.4-2.7 0 0 .01-.07.04-.2.01-.06.03-.13.05-.22.02-.07.03-.15.05-.23 0-.08-.01-.16-.01-.25l-.07-1.74c-.06-1.3-.14-2.76-.22-3.3.1.95.03-1.66.14-.92-.13-1.22-.34-4.83-.3-6.28l.02.27c-.12-5.35-.45-9.14-.48-13.94-.08.22-.1-2.3-.2-1.7-.24-4.96.05-9.05-.3-10.84-.03-2.26.07-2.68.1-3.84l.01.54.12-8.6c.02-1.57-.15-1.82.03-4.62.02.9.05-.24.13-1.28-.04.67-.03.88.1-.5a10.42 10.42 0 0 1 .01-.77c.01-.01.01-.07.02-.04.13-1.74.1-1.44 0-.63-.01-.04-.02.03-.06.27.2-1.8.57-5.02.72-5.22.83-5.16 2.12-8.74 4.8-12.2.34-.36-.24.48-.95 1.53.58-.85 1.2-1.68 1.82-2.5.04.07-1.05 1.43-1.58 2.22 2.2-2.93 4.6-6.04 8.02-8.73.2-.2.43-.42.65-.62l.2-.15c-.02-.01.16-.17.4-.4.24-.2.54-.48.8-.67.2-.12.26-.13.35-.16l2.36 3.06-.14-.08c2.17 2.53 3.57 4.08 5.3 5.6.03.46 1.83 2.03 2.3 2.67l-.07-.04c1.54 1.34 2.7 3.2 4.17 4.5-.07-.04-.16-.02-.46-.35 1 1.02 2.36 2.42 2.3 2.6 2.34 2.48 5.5 6.02 7.18 7.45l-.14-.08c.33.27.57.5.77.7l1.35 1.42c.04.07.1.15.08.15.44.37 1 .95 1.54 1.54l-.3 2.4c-.08.34-.14 1.26-.1 1.26l-1.4 9.82-2.48 19.33c-.8 7.42-.78 10.33 2.57-7.65l.01.25c.85-5.36 1.34-8.75 1.63-12.5.37-.55.64-4.4.9-5.66l.01.12c.24-3.3 1.13-6.73 1.38-9.92.01.13.07.2-.02.93.3-2.3.68-5.47.87-5.6l2.24-16.7v.25c.13-2.03.38-2.6.67-4.83.04-.12.1-.27.1-.25.12-1.1.42-2.68.72-4.2l.82-3.86.13-.1c.3-1.43.67-2.84 1-4.26l-.4 1.58c-.17-.63.97-3.17 1.68-6.26.87-2.83 1.24-5.94 2.6-8.74.44-1.4-.3 1.28.47-.78.17 0-.32.98.02.5.83-1.98 1.6-3.14 2.93-5.38l.27.1c.56-.95 1.33-1.47 2-2l1.4-1 .6-.42.3-.2.13-.1.05-.03.01-.01c-.02-.03.06.08-.08-.14-.16-.13-.26-.32-.24-.52l.4.62 2.28-1.34c1.58-.7 1.86-.88 2.44-.96.6-.05 1.1-.2 2.82-.5h0l.1-.02a22.81 22.81 0 0 1 1.43.07c1.57-.04 1.14-.28 2.88-.2-.02.02.03.03.1.04l1.68-.26a22.15 22.15 0 0 1 1.52.29l4 1.05v.02c.14.04.27.08.4.12.1.01.2.03.34.06.38.1.86.27 1.3.43l-.43-.1c.87.3 1.7.72 2.5 1.17l-.37-.47c1.27.8.2.43 1.42 1.13l.1-.17c1.7 1.2 2.4 2.25 3.7 3.76 5.68 6.04 9.82 14.36 12.46 21.8v.38c-.14.22 1.1 1.9 1.04 2.26l.43.82c.06.25.22.78.01.37.3.8.34.8.63 1.35l.2.9c1.12 3.17 2.38 5.75 3.57 9.08.3 1.02.73 2.25 1.2 3.58l1.55 4.16.12.3c-.03.07-.16.1-.25.14l-1.92.78-3.7 1.5c-5.97 2.57-13.33 4.4-19.43 7.08-.2.05-.7.3-.7.33l-5.7 2.1s-10.17 3.77-13.35 5.35c-.3-1.43-.96-3.77-.96-3.77-1.66-6.37-3.05-9.5-5.04-17.08-.78-3.35-1.1-5.5-1.45-7.67l-.5-3.43-.54-4.46-.3-3.3-2.25-5.18c-.08 1.1.14 2.84-.03 2.97.26 3.13.7 5.33 1.03 7.9-.06.3-.2-.3-.32-1.04a38.26 38.26 0 0 0 .25 1.83c-.14 0-.22-1.05-.3-1.6 0 1.1.22 2.23.42 3.4.25 1.16.48 2.37.63 3.66l.2.5v.15c.05-.02.24.54.33.9-.04.38-.28.03 0 1.28.1 1 .66 2.8 1.04 4.06-.14-.7-.03-.5.08-.2.15.62.12 1 .28 1.47l-.14.1c.08-.28.56 1.58.68 1.8-.02.38-.34-.93-.46-1.07.64 2.47.3 1.24 1 3.7.47 1.3.08-.28.38.32.34 1.15.77 2.25 1.05 3.6l.01-.46c.73 2.14 1.1 3.43 1.4 4.93 1.48 3.83 2.42 5.94 2.97 6.96-.56.33-.58.48.2.37.4.67.52.5.43-.04 0-.01 0-.02-.01-.04 1.18-.22 3.45-.8 7.2-1.87l-.12.1 2.45-.84.73-.26c1.5-.55 2.74-1.06 4.02-1.7.44.14 2.57-.93 3.33-1.1l-.06.05c1.82-.92 3.98-1.3 5.74-2.16-.06.05-.07.14-.5.3 1.32-.53 3.13-1.28 3.28-1.16 3.17-1.23 7.65-2.82 9.6-3.84l-.12.1c1.1-.6 1.5-.6 2.77-1.16.08-.01.17-.03.16-.02.68-.36 1.76-.76 2.75-1.12 1.78 4.2 3.67 8.52 4.87 10.8l-.13-.2c.5.92.76 1.53 1.08 2.16.3.63.6 1.3 1.24 2.3.06.12.15.26.13.24.66.96 1.8 2.24 3.06 3.26 1.26 1.03 2.63 1.8 3.47 2.2l.08.1c1.38.66 2.83 1.18 4.33 1.5a19.39 19.39 0 0 1-1.66-.45c.3 0 1.12.3 2.3.53a6.89 6.89 0 0 0 .96.15c.34.05.7.07 1.08.08.76.02 1.53-.03 2.35-.08 3.05-.1 6.14-.75 9.3-.92 1.5-.2-1.3.25.93 0 .08.1-1.04.15-.46.17 2.2-.23 3.62-.2 6.33-.54l.12.06c3.53-.48 6.7-.57 9.03-.96 3.64-.47 2.47-.05 6.25-.64h.08l1.1 3.3c-.38.3-.6.74-.83 1.4h0c-.63 1.75 1.85 7.85 2.3 8.76.4.93 1.04 1.5 1.9 1.73l-12.1 4.66c.23.01-2.1.84-1.5.73-4.5 1.82-8.38 2.9-9.9 3.82-2.07.78-2.5.82-3.57 1.2l.5-.2-7.94 2.78c-1.45.5-1.62.75-4.26 1.52.83-.32-.24.02-1.22.3.63-.2.82-.27-.5.06-.18.07-.46.16-.72.25-.01 0-.06.01-.04 0-1.64.48-1.35.4-.58.22-.04.02.03.02.27-.04-1.73.4-4.8 1.2-5.04 1.12-5 1-8.74 1.33-12.9.4-.44-.2.5.07 1.73.22-1-.13-1.95-.38-2.93-.64.05-.07 1.68.42 2.6.54-3.4-.9-7.4-1.52-10.46-4.45l-.7-.53-.17-.18c-.01.02-.2-.13-.42-.34s-.52-.47-.73-.7c-.34-.5.12-.06-1.23-1.64-1.02-1.3-2.94-3.68-4.2-5.45.66.97.4.68.1.28-.6-.86-.9-1.4-1.37-2.06l.02-.1c-.14-.07-1.63-2.3-1.83-2.58-.26-.55.9 1.35 1.12 1.53-2.27-3.55-1.18-1.74-3.3-5.37-1.16-1.93.1.4-.48-.5-.98-1.73-1.94-3.42-2.9-5.5l.24.7c-1.66-3.24-2.54-5.3-3.42-7.56l-.53 1.28a122.47 122.47 0 0 0 2.98 6.42c2.02 3.96 4.34 8.1 8.12 13.48 1.62 2.38 3.03 4.28 4.36 5.93 1.33 1.64 2.6 3.04 4.07 4.26 1.2 1 2.58 1.84 4.18 2.5l-8.67.23c-.48-.1.5-.18 1.74-.2l-3 .03c.03-.13 1.72-.08 2.65-.1-3.57-.22-7.36.22-11.55.02l-.87.1-.25-.02c.01.06-.93.13-1.55.15-.6-.12.04-.27-2.03-.26-1.64-.1-4.66.06-6.8.12 1.16.02.78.08.3.13-1.04 0-1.63-.1-2.43-.06l-.08-.12c-.14.12-2.76.13-3.1.2-.6-.12 1.6-.1 1.87-.2l-6.23.02c-2.22.12.4.15-.66.3-1.96.03-3.87.14-6.12.05l.7.14c-3.68.1-5.88.1-8.36-.05l-11.33.62-.3.03-.03-.37-.01-.08a.41.41 0 0 1 .02-.18c.02-.1.03-.12.04-.15.01-.07.01-.1 0-.2.01-.07-.01-.14.02-.2.07-.37.06-.6.06-.84 0-.04-.01-.1-.02-.14h-.01l-.06-.38c-.06-.28-.1-.37-.17-.3s-.1.26-.14.57v.06.06h-.01v.01l-.01.04c-.02.07-.04.15-.06.23s-.05.17-.07.26c-.04.1-.03.1-.1.33-.03.08-.04.17-.07.27v.06c-.02 0-.01-.01-.08.18-.01.05-.03.12-.04.2l-.01.14v.08l-.06 1 1.14.07a168.14 168.14 0 0 0 5.55.2c10.8.3 16.36-.1 29.2-.2 11.3.07 14.28.34 25.98.23l12.6-.04c.37.04.73.1 1.12.13 2.1.14 4.2.02 6.27-.25l1-.01h.3c.1 0 .24.03.18-.1l-.02-.1c3.3-.55 6.53-1.46 9.52-2.36 2.5-.88 6.97-2.23 9.88-3.38l1.17-.34c1-.4 2.18-.85 3.2-1.18l-.06.04c1.5-.6 3.2-1.2 3.94-1.5l-.06.04 1.83-.7-.3.14 7.7-2.93-.23-.01c5.12-1.84 6.9-2.72 11.53-4.38l-.05.04 1.36-.57c.4.45.96.72 1.55.72.22 0 .45-.04.67-.1l4.42-1.3c1.07-.36 1.67-1.4 1.5-2.43l.63-.24c.3-.07.6-.15.9-.23 1.3-.36 2.68-.83 4.17-1.47-.74.32.34-.08.3-.04 2.78-1.1 5.54-2.73 5.5-2.9 1.85-1.13 1.53-.9 1.8-1-.03-.03.35-.32.9-.72l1.92-1.45-.6.48c1.28-.97 2.56-1.94 3.8-3l-.82.5c1-.8 1.14-.9 1.28-.97.13-.1.28-.1 1.12-1.08l-.1-.05a5.9 5.9 0 0 0 .8-1.21c.1-.23.2-.5.13-.8-.03-.14-.08-.28-.16-.4l-.1-.15-.06-.06a.79.79 0 0 0-.29-.17c-.05-.01-.03-.02.01-.04l.08-.05.16-.1c.08-.06.1-.07.22-.18.13-.12.25-.25.37-.4.23-.28.45-.6.56-1.04.17-.42.08-.9-.1-1.32zM161.9 239.64c.33 0 .68-.02 1.04-.05.36-.04.7-.08 1-.13l.2 8.7c0 .07.02.13.04.2-.12.27-.25.43-.3.47-.1.1-.2.15-.28.18-.08.04-.2.04-.3.03-.05-.01-.13-.04-.22-.12-.2-.15-.38-.45-.53-.77a4.4 4.4 0 0 1-.21-.5c-.02-.05-.1-.25-.15-.43-.05-.18-.1-.36-.15-.55a2.88 2.88 0 0 1-.21-.06l-.7-6.96.74.01zm48-128.96c-1.7 3.12-3.5 7.9-4.83 12.84-1.35 4.94-2.35 10.02-2.97 13.75l-2.75 16.58-1.95 12.5c-4.57-4.54-9-10.56-13.7-15.14-.12-.18-.55-.55-.57-.53l-4.1-4.5s-7.33-8-10-10.35c1.2-.8 3.13-2.3 3.13-2.3 5.28-3.94 7.66-6.4 13.93-11.1 2.8-2 4.68-3.1 6.55-4.24l3-1.76 3.92-2.2c3-1.6 6.2-3.3 9.22-4.53.56-.34 1.36-.62 2.2-.9a29.75 29.75 0 0 0-1.07 1.89zm109.53 65.2c-.1-.24-.12-.43-.05-.56.1-.2.43-.36.88-.44l4.87-1.2c.05-.01.1-.01.14-.01.53 0 1.02.35 1.22.87l.88 2.72c-1.24.26-3 .77-4.46 1.2l-1.56.45c-.32.08-.58.16-.82.24l-1.1-3.27zm11.1 14.93l-4.42 1.3c-.53.18-1.07-.07-1.35-.57.54-.1 1.13-.24 1.78-.5.93-.34 1.8-.6 2.57-.85.85-.27 1.6-.5 2.2-.75.14.58-.18 1.16-.78 1.36zm1.53-3c-.38.55-1.65.95-3.25 1.45-.8.25-1.67.52-2.62.87-2.93 1.1-3.77.2-4.17-.76-.82-1.64-2.67-6.9-2.28-8 .34-.93.4-1.12 1.86-1.5.4-.1.95-.27 1.6-.45 1.72-.5 4.33-1.26 5.35-1.33.9-.14 1.9 1.35 2.75 4.06l.26.8c.68 2.05 1.26 3.8.5 4.86zm21.07-14.7c.08-.05.08-.02.02.07-.02.02-.04.05-.06.07s-.05.06-.13.13c-.13.12-.3.27-.5.4.01.06 0 .1 0 .15l-8.33 3.25c-.26.1-.38.4-.28.65.08.2.27.32.47.32.06 0 .12-.01.18-.03l8.1-3.16c.01.05.03.1.04.14.1.05.2.1.28.14l.05.05c.01.02.02.03.02.05.01.03.01.06 0 .13-.02.1-.1.25-.2.4a2.18 2.18 0 0 1-.35.44c-.22.2-.4.44-1.7 1.62l.2-.25-.63.74c-2.5 2.17-1.48 1-4.34 3.36 1.17-.9.66-.25-.83.74l.33-.32c-.8.58-1.06.77-1.63 1.1.47-.36.22-.23-1.03.5.26-.2.54-.37.8-.57-.75.5-1.53 1-2.33 1.45-.96.44-2.2 1.03-3.33 1.48s-2.13.8-2.56.9c0 0-1.03.34-2.2.65.5-1.37-.07-3.1-.7-5.07l-.26-.8c-1.1-3.4-2.34-4.96-3.8-4.75-.02 0-.04.01-.06.01l-.66-2.03a8.93 8.93 0 0 0 1.16-.41c.27-.12.54-.25.83-.46l.12-.1.1-.1.15-.14.3-.3c.83-.77 1.6-1.56 2.57-2.3.47-.37.97-.75 1.47-1.1.4-.25 1.08-.5 1.68-.75 1.03-.55 3.58-1.63 4.3-2.14.04 0 .34-.16.72-.28.45-.12.62-.1.7.06.06.1-.05.37-.08.42-.01.02-.01-.01.01-.1.02-.1.03-.2-.01-.27-.03-.06-.13-.08-.1-.1l-.13.08c.18 0 .13.04.16.08 0 .03 0 .01-.01.1a1.33 1.33 0 0 1-.12.3c-.12.22-.27.4-.48.6l-.9.75-1.45 1.22a8.2 8.2 0 0 0-.59.57c-.14.17-.22.32-.27.44-.07.26-.15.38-.06.65.1.1.13.08.22.13.04.02.07.04.12.06l.2.05a1.24 1.24 0 0 1-.35-.14c-.04-.02-.08-.04-.1-.06-.02-.01-.05-.05-.06-.1-.01-.04-.01-.06-.01-.1.01-.18.05-.24.05-.03-.03.06.06.22.1.2l.15.05c.1.04.26.07.43.1l.4-.02.2-.01.3-.08 1.2-.3-1.06.34 5.05-1.25-.58.07 2.4-.56c.36-.1.73-.2 1.14-.33l1.38-.44c.98-.3-1.86.37.18-.17.53-.1 1.13-.22 1.74-.25.3-.02.62-.01.9.04.3.04.5.16.53.22a.65.65 0 0 1 .11.34c0 .06 0 .1-.02.2l-.01.05-.07.15c-.04.1-.1.2-.2.3a2.18 2.18 0 0 1 .07.18l-10 3.94c-.26.1-.38.4-.28.65.08.2.27.32.46.32.06 0 .12-.01.18-.03l10.06-3.97c.01 0 .02-.01.02-.02.04.05.08.1.12.18.34-.05.58.06.58.06.05.03.1.06.12.1.06.06.14.3.14.42.03.25-.2.66-.5 1z"/></svg>