<svg xmlns="http://www.w3.org/2000/svg" viewBox="0 0 480 480" xmlns:v="https://vecta.io/nano"><path d="M2711.8 107l.5-.12c-.02-.02-.15 0-.5.12zm19.8-3.25h-.03c-.04.01-.1.02-.13.04l.16-.04z"/><path d="M345.47 103.56l-4.7-1c-.4-.1-.9 0-1.2.4l-7.48 8.57c-.1-.2-.22-.27-.22-.27s-6.6 2-8.3 3.4c-1.7 1.3-4.7 3.2-4.9 5.2s-.5 3.9-1.9 6.4c-.9 1.63-7.64 8-12.22 12.26l-1.67-1.72c-.5-.5-1.3-.5-1.8-.1-3.3 2.7-14.1 11.2-17.4 13.2-3.9 2.4-8 2.3-13.9-3.4-2.26-2.14-4.5-5.3-6.43-8.4-.78-3-1.54-5.76-2.26-8.17-7.15-24.12-26.06-27.92-26.06-27.92s.01.04.03.1c-3.2-1.03-6.65-1.62-10.1-1.52-.28.01-.53.1-.77.25-2.6-.13-5.25-.01-7.63.55-.35.1-.7.2-1.04.3-4.12.74-8.42 2.64-12.76 6-13.5 10.5-31.3 28.6-40.5 52.9-9 23.8-8.2 46.8-5.1 68.9 0 .7.7 1.3 1.6 1.3l7.98-.16 1.32 10.06s-1 6.3 1.7 13.6c2.8 7.2 3.8 7.8 4.3 8.7.6 1 1.7-.3 1.7-.3s.8 2.2 2.1 2.3c1.3 0 1.3-1.5 1.3-1.5s.9 1 1.8.7 1.1-3.4 1-5.6c0-2.2.1-7.7.2-8.7 0-1 1.1 2.1 1.9 3.7.7 1.6 2.9 2.1 2.2-.9-.7-3.1-.55-5.17-.9-6.68-.2-.83-.93-3.4-1.57-4.17-.95-1.13-1.14-1.05-1.14-1.05s-.37-2.32-.3-4.2c.03-.76.23-3.1.54-6.28l6.16-.12c.9 0 1.6-.7 1.7-1.6.13-1.75.3-4.8.45-8.7 11.07-.32 36-1.4 42.25-2.8 4.73-1.07 8.38-4.06 10.8-9.6h23.1l-.47-5.24.27 1.14c1.3 7.3 1.9 11 7.1 13.9 5.3 2.8 7.6.2 6.3-3.2-.47-1.22-2.2-9.3-4.53-20.26 4.73-.9 9.75-3.4 16.23-7.74 12.2-8.2 24.9-25 28.1-29.4.5-.6.4-1.5-.1-2l-4.07-4.2 9.64-13.18.82-.57 5.9-4.5c1.02-.82 5.75-8.22 8.67-12.86.47-.24.85-.64 1.14-1.24a1.16 1.16 0 0 0 .1-.72l.97-1.56c.03-.05 0 .12.73-1 1-1.53-1.5-2.9-2.66-3.66l4.66-5.74c.5-.7.2-1.7-.7-1.9zm-22.44 20.92l-.13.1c.03-.04.05-.08.07-.12.85-1.44 2.05-4.1 2.4-4.87-.3.66-1.52 3.42-2.4 4.87l.06.01zm5.56 1.72l-.07-.02c.03 0 .06.01.1.01h-.02zm1.18-9.5c-1.1 1.26-4.32 2.75-4.34 2.75.02-.05.04-.08.04-.08s2.83-1.12 4.83-3.3c-.16.2-.34.4-.53.62zm2.47-4.32c.02-.38-.05-.64-.14-.82.03.04.18.3.14.82zm3.2 6.3h0c.02 0 .02 0 .03.01-.01-.01-.02-.01-.03-.01zm3.15-3.88l.06-.08c.07.06.13.12.2.17-.1-.03-.17-.05-.26-.1z" fill="#fff"/><path d="M258.52 140.86l.04.1-.05-.2a.45.45 0 0 0 .01.11zm51.88 30.22v.01l-.1.22z"/><path d="M346.67 104c-.4-.5-.02.13-.24-.07-.3-.44-.86-.54-1.28-.66l.13.1c-.78-.1-1.24-.2-1.73-.4-5.85-.54-1.4.66-1.4.66 1.1.33 1.96.5 2.87.64l.3.05c.05.01.1.01.13.03.08.03.15.1.2.18s.08.22.04.36c0 .04-.02.07-.03.1-.02.03-.01.03-.07.1l-.3.4-3.6 4.2-.54.67c-.86-.47-2.23-1-3.3-.82-.6.1-1 .4-1.3.9s-.4 1-.2 1.7c.18.58.52 1.17.96 1.73-1.54-.43-4.07-.7-4.86 1.07-.2.5-.2 1 .1 1.6.22.5.62.97 1.12 1.4-.9-.1-2.02-.02-2.82.5-.5.3-.8.7-.9 1.3s.1 1.2.5 1.7a4.04 4.04 0 0 0 .8.8c-.77-.1-1.66-.05-2.3.4-.4.2-.7.7-.8 1.2s0 1.1.4 1.6l.12.14h-.03l-.12-.02c-.05-.01 0 0-.1-.03l-.35-.1-.7-.22-1.43-.42-2.27-.64 1.15-2.1.13-.07c.14.01.15-.77.3-.82l.08-.32c.06-.07.16-.24.12-.08.13-.27.1-.28.16-.5l.2-.26c.05-.1.04-.07.06-.1.03-.01.04-.02.14-.06l.34-.18.65-.38 1.35-.82a6.88 6.88 0 0 0 1.17-.74c.2-.16.43-.35.64-.58l.53-.64c.7-.88 1.3-1.86 1.6-2.67.2-.6.45-1.2.34-2.04-.01-.04-.01-.1-.03-.13-.05-.04.05-.07.06-.1l1.6-1.6c.55-.58 1.08-1.17 1.52-1.8.06-.04.16-.22.15-.23l1.4-1.58 2.56-3.1v-.03c.2-.37.7-.38.78-.45.05-.04.02-.13-.17-.22-.18-.07-.64-.2-1.15.27l.01-.01-1.2 1 .01-.06c-.8.83-1.3 1.36-1.72 2.06-.2-.02-.64.7-.86.87l.01-.03c-.36.62-1.04 1.02-1.4 1.6.01-.03-.02-.07.08-.2-.3.4-.73.92-.82.88l-.85 1-.5.6-.17-.12-1.9.57-1.47.48-3.64 1.46c-.63.3-1.28.6-1.93 1.1l-1.64 1.24c-1.1.88-2.25 1.78-3.03 3.12-.14.35-.33.76-.4 1.3l-.15 1.27c-.12.86-.32 1.7-.5 2.38l-.25.5c-.13.46-.34 1-.6 1.42v-.04c-.28.73-.7 1.24-.96 1.56v-.04l-.58.68.08-.13c-.83 1-1.78 1.98-2.65 2.8l.13-.01-4.2 4.03.01-.04c-1.3 1.45-2.4 2.32-3.6 3.4l-1.33-1.33a2.2 2.2 0 0 0-1.85-.55c-.34.05-.68.18-.98.4l-.6.5c-.8.7-.75 1.02-2.28 2.15.42-.46-.18.03-.74.48.35-.3.43-.4-.34.1-.08.1-.23.25-.37.38-.01 0-.04.02-.04 0-.9.76-.73.66-.3.33-.01.03.04.02.2-.07-1.05.66-2.7 2.12-2.93 2.07l-7.08 5.7c-.32.12.2-.35.86-.9l-1.68 1.25c-.06-.12.94-.76 1.44-1.16-1.07.65-2.1 1.45-3.16 2.2-1.05.75-2.24 1.38-3.58 1.5-.17.08-.36.1-.54.16l-.16-.01c.01.07-.6.14-1 .13-.2-.1-.17-.15-.28-.22-.1-.07-.33-.1-.97-.3l-1.94-.78c-.73-.35-1.5-.77-2.1-1.18.62.48.38.38.08.22-.57-.42-.83-.76-1.28-1.08l.05-.16c.1.32-1.5-1.1-1.73-1.26-.22-.36.88.7 1.07.74l-1.18-1.1.3 2.74 1.24 1c1.64 1.28 3.18 2.16 4.72 2.67 1.54.5 3.08.6 4.53.3 1.46-.26 2.8-.93 4.12-1.76l4.3-3.1c3.18-2.35 6.45-4.97 9.45-7.4.65-.65 1.64-1.44 2.66-2.26l.38-.3c.1-.07.06-.05.1-.07s.12-.02.17-.01c-.04-.13.57.52.95.83l.5.68c.56.5 1.2 1.1 1.67 1.67l-.06-.01c.84.73 1.67 1.67 2.1 2.03h-.06l.95.96-.2-.13c1.42 1.32 2.8 2.75 4 4.04v-.2c2.5 2.8 3.68 3.6 5.9 6.15h-.06c.4.35.78.7 1.14 1.03.18.17.35.34.5.5l.25.25c.05.05.06.07.1.1a.58.58 0 0 1 .05.51c-.04.1-.04.07-.18.25l-.4.5c-1.08 1.35-2.16 2.66-3.38 4.5.3-.46-.2.14-.2.08-1.22 1.62-2.58 3.3-2.38 3.5-.94 1.14-.84.87-1.04.95.1.07-.68 1.1-1.43 1.97l.3-.43-2.14 2.52.6-.33c-1.22 1.26-.5.14-1.6 1.43l.16.12c-1.66 1.77-2.85 2.6-4.6 4.17-3.43 3.43-7.1 6.9-11.1 9.77-2 1.43-4.08 2.78-6.16 3.95-2.07 1.2-4.2 2.17-6.3 2.87h-.42c-.2-.1-2.2 1.03-2.6.92l-.02.01c-.22-1.08-.63-3-.88-3.55.26.68-.1-1.26.14-.74-.32-.88-1-3.54-1.1-4.64l.06.2c-.72-4-1.66-6.75-2.27-10.35-.1.2-.44-1.7-.52-1.2-1-3.64-1.12-6.8-1.98-8-.4-1.67-.32-2-.48-2.9l.12.4-1.5-6.37c-.32-1.15-.62-1.27-1.05-3.37.26.65.04-.2-.14-.97.14.5.2.64.03-.4a3.56 3.56 0 0 1-.2-.56c.01-.01 0-.05.02-.03-.35-1.3-.32-1.06-.2-.45-.02-.03-.03.03-.01.22-.2-1.38-.9-3.75-.77-3.96-1-3.9-1.88-6.63-2.82-9.84-.01-.4.27.35.55 1.28l-.64-2.28c.13-.02.42 1.3.63 2-.25-1.4-.67-2.8-1.15-4.23-.5-1.44-.9-2.95-1.4-4.56l-.33-.62-.05-.2c-.05.03-.36-.66-.54-1.12-.06-.48.3-.08-.33-1.6a26.15 26.15 0 0 0-2.46-4.86c.43.82.23.6 0 .26-.4-.72-.53-1.2-.9-1.73l.1-.15c.08.33-1.32-1.74-1.55-1.95-.17-.46.8 1 1 1.14l-1.4-2.07c-.22-.35-.48-.68-1.54-1.97-1.2-1.3.1.35-.55-.23-.48-.6-1.04-1.15-1.62-1.7-.58-.55-1.1-1.2-1.77-1.8l.33.48-1.1-.92c-.06-.07-.1-.14-.17-.22-3.6-3.85-10-6.64-15.77-7.96l-.22-.06c-1.38-.36-3.58-1.17-4.95-1.33-1.47-.1-7.04-.53-10 .08-3.87.77-7.5 2.3-10.77 4.2-.8.5-1.64.95-2.4 1.5l-2.26 1.62-4.22 3.32-.57.3c-.36 0-2.7 2.8-3.24 3l-1.13 1.2c-.36.3-1.1.92-.54.33-1.12 1.02-1.1 1.08-1.84 1.9l-1.25 1.04c-4.3 4.16-7.5 8.13-11.4 13.04-2.4 2.9-5.6 7.33-8.4 12.1-2.83 4.76-5.15 9.88-6.67 13.68-2.1 5.36-4.15 11.24-5.68 17.32-1.54 6.07-2.53 12.33-2.76 18.23-.03.2-.04.53-.04.83s.01.54.02.54c-.24 3.6-.3 7.18-.26 10.77l.08 2.97c.01.9.1 2 .16 3.18a101.48 101.48 0 0 0 .27 3.84c.43 5.4 1.3 11.6 1.92 14.85v-.1a1.7 1.7 0 0 0 .61 1.24c.3.26.6.38.86.43.5.1.82.01.84-.03.05-.07-.1-.1-.52-.23-.2-.08-.45-.2-.7-.4s-.47-.58-.44-1v-.01c-.1-2.23-.45-6.17-.72-12.38l.07.26-.8-13.5c.3-.64.02-4.8.2-6.15l.02.13c-.15-3.57.6-7.3.75-10.7.01.13.08.22.01 1 .24-2.48.65-5.87.87-6.02.47-2.93 1.15-6.43 1.97-9.62l1.18-4.48c.4-1.35.67-2.56.95-3.47l-.04.26c.57-2.1.87-2.68 1.68-4.97.07-.1.15-.27.14-.24.38-1.12.96-2.76 1.7-4.26l1.8-3.85.16-.06c.73-1.4 1.4-2.82 2.18-4.18-.3.5-.6 1.02-.86 1.54 0-.35.45-1.12 1.14-2.16s1.5-2.42 2.34-3.9c.87-1.34 1.58-2.82 2.4-4.24.8-1.44 1.64-2.9 2.7-4.18.83-1.37-.65 1.27.68-.7.17.03-.58.95-.1.54.66-.97 1.26-1.7 1.94-2.48.67-.77 1.35-1.63 2.24-2.76l.17-.01a40.4 40.4 0 0 1 3.42-3.99c1.1-1.18 2.12-2.2 2.92-3.18 1.3-1.44 1.82-1.83 2.36-2.24.53-.4 1.05-.87 2.42-2.34l1.26-.94c1.28-1.15.76-1 2.24-2.2-.02.16 1.86-1.53 1.1-.72 1.68-1.35 3.32-2.8 5.15-4.3.9-.77 1.9-1.43 2.9-2.2.53-.35 1.1-.66 1.66-1s1.16-.67 1.8-.93c.5-.34 1.35-.9 2.25-1.24a43.18 43.18 0 0 0 2.14-.96c.1.03 1.42-.4 2.38-.66.97-.2 1.54-.3.03.14-.26.06-.7.23-.7.17l-.32.23c2.62-.55 4.84-1.15 7.38-1.23l-.03-.06c-.32 0-.42-.02-.01-.07h.1c.8-.04 3.15.15 4.74.24l5.86 1.77.05.1c.85.25 1.73.55 2.4.88.9.46 1.58.94 1.6 1.05 2.22 1.4 4.67 3.55 6.15 6 .75 1.2 1.26 2.48 1.52 3.64.25 1.17.4 2.34.54 3.2l-.07-.24c.37 1.97.26 2.58.53 4.8-.01.12-.01.28-.02.26.34 2.17.47 6.37.64 8.13l-.1.12.27 4.35-.06-1.63c.34.55-.01 3.3.33 6.45.1 2.96.9 5.97.85 9.05.2 1.46-.27-1.28-.1.9-.16.08-.13-1.02-.24-.45.14 2.15-.04 3.53.12 6.18l-.12.1c.32 3.46-.04 6.53.2 8.83.14 3.57-.36 2.4-.1 6.1l-.17 1.44c-.04 1.6.2 1.14.1 2.9-.1-.1-.12 2.22-.2 1.2-.22 3.98.04 8.1-.54 13.3.12 1.15-.22 3.76-.14 4.62-.06.14-.66 5.2-.47 2.26.01-.25.07-.7.1-.66l-.08-.36c-.58 2.9-.62 5.32-1.47 8.1.27-.8.54-1.92.43-1.16-.22.87-.5 1.72-.8 2.56l.08-.56c-.2.63-.45 1.24-.7 1.85-.24.62-.55 1.2-.84 1.77l.35-.43c-.92 1.7-1.43 2.15-2.62 3.9-.55.8 1.3-1.24.03.3-.88.9-2.1 1.93-3.55 2.67-1.47.75-3.12 1.22-4.76 1.44.33.1-.54.25-1.47.4l-.12-.1c-3.55.6-1.33-.1-4.9.4l.3-.1-.92.34c-3.22.52-1.77-.1-5.34.5 1.43-.12.7.23-1.07.3l.44-.15c-.97.1-1.3.16-1.94.18.57-.1.3-.2-1.13-.08l.95-.2-2.7.38c-2.1 0-5.4.33-6.27.2 0 0-4.5.13-5.52.36.9-.15-1.58-.1-.88-.26-1.16.18-4.6.42-5.98.33l.26-.03-3.48.08.22-4.4c.1-2.2.22-4.1.42-6.02.4-3.83.86-7.73 2.32-13.75 1.53-5.7 3.84-11.62 7.04-16.38 1.28-2.38 4.6-6.04 6.6-8.7l.9-.9c.68-.9 1.52-1.95 2.32-2.76l-.02.08c1.03-1.35 2.35-2.73 2.88-3.4l-.02.08 1.37-1.54-.2.3c1.93-2.23 4-4.46 5.95-6.3l-.26.05c3.88-3.64 5.05-6.13 8.46-8.98l3.82-5.06c-1.84.67-2.5 2.26-3.28 2.82l.2-.2c-4.3 3.55-7 6.5-10.67 9.92.26-.06-1.66 1.76-1.06 1.43-3.5 3.83-6.72 6.66-7.53 8.44-1.52 1.8-1.93 2.02-2.74 2.92l.34-.45-5.7 6.92c-.5.64-.73 1.07-1.06 1.63-.3.57-.83 1.2-1.65 2.42.44-.86-.2.16-.82 1.1.38-.6.47-.8-.4.37-.08.2-.22.48-.35.75-.01.01-.05.05-.04.02-.9 1.62-.7 1.36-.26.62-.01.05.05-.01.2-.22-1.15 1.56-2.45 4.74-2.7 4.9-2.2 5.1-3.06 9.02-3.95 13.52-.2.5-.07-.58.2-1.9-.24 1.06-.43 2.14-.64 3.2-.14-.05.3-1.85.48-2.85-1.07 3.77-1.24 7.93-1.8 12.44l.04.95-.03.27c.06-.01.07 1 .06 1.7-.14.64-.27-.05-.34 2.2-.18 1.76-.15 5-.18 7.32.07-1.24.12-.84.14-.3-.04 1.12-.18 1.75-.17 2.6l-.13.07c.1.16.01 2.98.05 3.36-.14.62-.03-1.74-.1-2.02l-.12 3.35c-.01.33-.01.43-.16.72a.92.92 0 0 1-.38.38c-.2.12-.37.13-1 .14-2.4.17.44.14-.7.3-2.1.07-4.17.22-6.6.18l.77.12c-3.97.2-6.34.22-9.02.13-26.85 1.57-10.02 1.67-6.73 1.68a28.65 28.65 0 0 0 .2 1.27l.03.77c.12.67.25 1.47.3 2.16l-.03-.04c.2 1 .3 2.16.4 2.66l-.03-.04.17 1.23-.06-.2c.05.4.2.97.14 1.16-.05.47-.07.93-.1 1.38a46.61 46.61 0 0 0-.03 2.62l.08-.14a23.42 23.42 0 0 0 .4 4.11c.22 1.14.44 2.24.85 3.78l-.03-.04c.7 1.9 1.28 3.36 1.86 4.84.6 1.47 1.18 2.98 2.4 4.72-.3-.43.1.2.05.2l.53.74c.1.2.5.8.97.85.23.06.47.03.7-.04.1-.03.2-.08.32-.14l.04-.03c.06-.05.1-.1.15-.17.06.04.13.12.18.07.04.08.06.13.13.24.07.12.12.2.18.3l.2.32c.08.13.04.13.1.23.03-.03.25.23.72.5.24.13.55.25.95.23.33-.02.72-.16 1-.42-.15.17-.36.3-.58.37a1.58 1.58 0 0 0 .64-.4c.08-.1.16-.2.22-.3.05-.08.05-.1.07-.13.04-.1.06-.2.06-.32.06.04.15.13.24.18.06.04.15.1.42.18-.25-.13-.3-.22-.4-.33l-.02-.02.02.01c.16.13.5.27.65.3.12.03.2.06.3.08.06.02.12.03.32.01.18-.02.56-.17.83-.64l-.1-.04c.32-.58.4-1.1.52-1.57.1-.48.17-.93.23-1.38s.1-.9.13-1.37l.03-.73c0-.12 0-.24.01-.37.01-.1.02-.2.02-.3l.1-6.16c-.01-.1.07-.03.08.01l.08.15.16.33.2.4.26.56.3.58c.26.4.6.78 1.05 1.03.22.1.54.24.87.2.32-.02.64-.15.84-.4.44-.56.38-1.1.37-1.53-.03-.45-.15-.87-.22-1.24-.34-1.52-.47-3.05-.58-4.6-.05-.76-.15-1.6-.37-2.34-.2-.75-.4-1.47-.66-2.2l-.06-.4c0-.1-.2-.64-.72-1.25-.22-.22-.45-.45-.65-.63-.2-.18-.43-.37-.38-.36h0c-.05-.01-.07-.02-.08-.07-.01-.01-.06-.25-.1-.44-.01-.27-.04-.84.03-.37L183 238c.01-.32.03-.63.05-.94.07-1.7.25-3.38.36-5.03.01-.15.02-.3.04-.46l5.78-.22c1.16-.02 2.28-.9 2.6-2 .05-.14.08-.27.1-.4.03-.15.05-.32.04-.4v-.55l.03-1.12.14-4.88.06-1.23 2.35-.01-.06.04c6.03-.6 9.57-.1 15.78-.78-.77.1.34.06.28.1 2.87-.2 5.93-.4 5.96-.68 2.1-.13 1.7-.02 2 .07-.02-.13 1.8-.3 3.42-.42l-.75.1 4.67-.42-.94-.15c2.48-.16.65.25 3.02-.05l-.05-.2 4.46-.36c1.37-.12 2.8-.35 4.45-1a14.14 14.14 0 0 0 4.56-3.19c1.3-1.35 2.34-2.92 3.17-4.56.08-.16.15-.32.22-.47 3.4.08 6.2.06 9.15-.01l5.6-.14 3.2-.07 3.96-.05h.66c.08.4.2.92.32 1.36.2.75.3 1.2-.14.04-.07-.2-.17-.56-.13-.55l-.2-.25c.38 2.44 1.45 4.47 3.2 6.43-.5-.6-1.08-1.45-.62-.93a10.88 10.88 0 0 0 1.62 1.77c-.15-.08-.3-.16-.44-.26.86.84 1.83 1.52 2.85 2.12l-.35-.36c.35.25.67.42.96.6a8.59 8.59 0 0 0 .84.45c.3.13.57.27.95.36.36.1.8.18 1.33.2.95.04-1.7-.44.23-.2.62.06 1.38.08 2.2-.23.84-.3 1.64-1.13 1.9-2.07.3-.94.23-1.88.02-2.7l-.18-.6-.12-.47c-.08-.32-.16-.58-.23-.93-.08.28-.24-.43-.45-1.15l.1-.1c-.82-2.76.03-1.1-.73-3.85l.14.23-.42-.68c-.8-2.48-.05-1.42-1-4.17.26 1.1-.16.58-.4-.8l.2.32c-.2-.75-.3-1-.38-1.5.16.44.22.2-.04-.9l.3.72-.67-2.06c-.15-1.14-.53-2.7-.75-3.78.3-.12.45-.24 1.26-.42-.04.13 1.6-.4.9-.07 2.87-.76 5.4-2.42 8.8-4.1.6-.6 2.3-1.48 2.7-1.96.13.03 3.2-2.07 1.5-.74-.14.1-.42.3-.42.25l-.15.24c.97-.47 1.76-1.08 2.53-1.7.78-.6 1.5-1.28 2.35-1.93-.52.36-1.18.9-.8.48l1.57-1.22-.26.34c.78-.6 1.53-1.24 2.3-1.87l-.4.17c1.15-.88 1.64-1.1 2.73-2.32.47-.57-1.12.8-.03-.26l2.56-2.3c.9-.88 1.9-1.8 2.74-2.68-.26.07.2-.4.64-.93l.15.03c1.64-2.03.85-.52 2.48-2.53l.17-.46c1.34-1.92 1.03-.77 2.45-2.96-.64.8-.52.2.33-.74l-.1.32c.43-.55.54-.76.86-1.1-.2.36 0 .28.63-.52l-.32.63 1.06-1.64c1.04-1.08 2.38-3.04 2.9-3.42 0 0 2.03-2.5 2.3-3.2-.28.58.78-.8.6-.3.05-.1.08-.17.23-.4a2.89 2.89 0 0 0 .33-.84c.13-.64.04-1.37-.34-2a2.07 2.07 0 0 0-.34-.44l-.24-.25-.4-.43c-.26-.28-.48-.53-.63-.73l.14.12c-.95-1.05-1.84-1.94-2.7-2.78l1.04-1.36.23-.17c.17-.02.86-1.5 1.1-1.62l.38-.62c.14-.15.4-.48.22-.17.4-.54.4-.56.65-.98l.5-.53c1.6-2.1 2.82-4 4.48-6.23l.4-.48.06-.03.14-.1.3-.2a10.73 10.73 0 0 0 .59-.42l1.24-.93 2.67-2.06 1.67-1.32.35-.36c.2-.24.36-.45.53-.68a63.21 63.21 0 0 0 1.65-2.44c1.36-2.17 2.92-4.44 4.47-6.74l2.3-3.46c.01-.01.02-.03.03-.04.15-.2.3-.4.43-.63.08-.1.14-.22.17-.34l.45-.72.5-.86.13-.2.02-.03a.73.73 0 0 0 .1-.32c0-.08-.02-.15-.04-.22.2-.22.4-.46.56-.7.3-.4.4-.9.3-1.3-.3-1.06-1.7-2.03-2.7-2.64l.87-1.25c.1-.04.01.15-.13.36l.4-.5c.06.05-.2.3-.3.47.58-.5.9-1.3 1.54-1.9l.07-.18.04-.03c-.03-.02.06-.2.14-.3.14-.06.12.1.4-.24.27-.23.6-.8.86-1.17-.16.18-.15.1-.1 0 .14-.17.27-.23.36-.38l.1.04c-.06 0 .01-.1.1-.27.12-.2.18-.42.18-.47.13-.13-.1.43-.13.52.32-.52.27-.7.3-.83-.1-.15-.02-.33-.25-.88zM183.2 241.93c-.06-.01.2.3.3.45.1.2.2.4.02.14.5 1.04.93 2.35 1.28 3.65.28 1.27.3 2.87.47 4.6.1.37.23 1 .36 1.6.16.63.22 1.07.28 1.32-.02 0-.01.24-.06.4-.04.15-.12.22-.23.24a.32.32 0 0 1-.22-.08c-.03-.03.12.04.2 0 .04-.01.1-.05.1-.03 0-.03-.01-.06-.03-.1-.03.02-.07.02-.1.02-.01 0-.05-.02-.18-.1-.23-.15-.46-.37-.62-.67a14.24 14.24 0 0 1-.3-.56l-.15-.3-.23-.5c-.34-.72-.67-1.55-1-2.18.2.37.44.95.57 1.27.14.33.17.44-.02.07-.2-.47-.4-.96-.6-1.3s-.37-.45-.52-.58l.2.05c-.12-.1-.23-.2-.33-.23a.75.75 0 0 0-.16-.05c-.02 0-.1-.01-.14.01-.03.02-.04.03-.06.04h0l-.12 1.5.06-.33c-.1 1.38-.22 1.8-.28 3.5-.01.76.15-1.28.07.23l-.3 3.36c-.17 1.32-.06 2.46-.17 3.54.1-.2.07.4.01.98l-.08.06c-.1 1.12-.27 1.25-.36 1.38-.04.05-.13.15-.14.15-.05-.01.07.04-.28-.01.04-.01.08-.01.1-.02-.05.02-.1.03-.18.02-.02.01-.1-.02-.18-.05-.07-.02-.16-.07-.24-.12a1.01 1.01 0 0 1-.16-.13c-.05.01-.07.02-.1.03l-.9-10.83a.51.51 0 0 0-.54-.46c-.28.02-.48.26-.46.54l.93 11.1c0 .01.01.02.01.04-.06.03-.1.06-.17.1-.01.1-.05.17-.08.26-.02.05-.02.06-.06.14-.02.04-.02.03-.03.04-.03.04-.07.08-.1.1-.04.04-.1.07-.2.1-.13.03-.17.07-.4.01.26.1.26.1.2.14-.07.05-.37.01-.7-.36.08.04.15.08.22.1-.38-.32-.52-.5-.7-.82.1.14.15.16.12.06 0-.05-.23-.4-.55-1.24.16.32.34.7.53.97-.23-.35-.43-.85-.62-1.27l-1.53-9.02c-.05-.27-.3-.46-.58-.4a.5.5 0 0 0-.41.58l1.6 9.38c-.1.1-.2.2-.3.28-.2.1-.26.06-.35-.04-.02-.03-.17-.28-.3-.44s-.23-.33-.34-.5c-.43-.62-.74-1.2-.83-1.47l-.68-1.37c-.35-.73-.72-1.54-.9-1.83.3.5-.3-.98-.06-.6-.37-.67-1.27-2.72-1.44-3.58l.06.15c-.9-3.12-1.46-5.4-1.5-8.35-.1.14-.06-1.4-.17-1.03-.03-.76.01-1.5.07-2.16l.06-.5.04-.3c.01-.14-.03-.27-.03-.33-.03-.32-.07-.62-.1-.9-.13-1.16-.25-2.07-.5-2.6-.2-1.4-.14-1.67-.22-2.4l.06.33-.4-2.9c5.5.03 9.75-.08 14.25-.24l.68-.03c-.15 1.32-.3 2.5-.3 3.5-.06 1.17-.14 1.58-.18 2s-.08.85.1 2.08l.01.97c.01.1.03.2.04.3l.06.36c.25.2.32.2.47.28.02.04.1-.01.07.1-.02.04-.06.1-.06.12.01.01.03.01.03.02h.03c.04.02.08.05.14.1.12.05.26.2.45.42zm83.42-34.96c-.26 0-.47-.03-.65-.05a3.53 3.53 0 0 0-.39-.02c-.15 0-.3 0-.46.01l-.06-.12c-.12.12-2.24.13-2.52.2-.48-.12 1.3-.1 1.5-.2H259c-1.8.12.33.15-.53.3-1.58.03-3.13.14-4.95.05l.58.14c-2.98.1-4.76.1-6.77-.05l-1.97.1c1.1-2.73 1.74-5.6 2.17-8.43a40.05 40.05 0 0 0 .35-2.65c.1-.88.18-1.76.24-2.63l.36-5.18.5-9.98.16-.56c.22-.24-.27-3.56-.06-4.04l-.08-1.5c.04-.42.08-1.3.13-.56.01-1.38-.03-1.42-.1-2.4l.13-1.5c.08-5.46-.26-10.1-.38-15.84.1-6.9-.76-19.87-1.46-27.33l-.74-8.15c-.1-1.38-.34-2.93-.92-4.33-.55-1.4-1.33-2.72-2.25-3.9-.55-.7-1.15-1.34-1.77-1.96l.22.13a15.45 15.45 0 0 0 1.49.92c.43.23-.05-.17-.22-.34l.82.54c.76.62 1.63 1.37 2.45 2.25.95 1.02 1.8 2.1 2.5 3.28-.02-.3.4.32.8.95l-.06.14c1.6 2.43.32 1.03 1.76 3.52l-.2-.2c.2.18.37.38.56.57.67 1.13.75 1.48.85 1.86s.25.78.93 2.07c-.45-1.06.06-.6.52.74l-.24-.3c.3.73.43.96.6 1.46-.23-.42-.24-.18.16.9-.13-.23-.26-.46-.4-.68.32.66.6 1.33.92 2 .4 1.65 1.3 4.18 1.3 4.9l.47 1.87c.24 1 .54 2.07.7 2.46-.27-.7.12 1.28-.13.75.34.9 1.02 3.6 1.07 4.73l-.01.06c.6 3.94 1.3 6.78 1.65 10.4.12-.2.3 1.78.42 1.27.7 3.8.53 7.03 1.27 8.34.25 1.74.1 2.1.2 3l-.08-.4.8 6.65c.2 1.2.48 1.37.65 3.55-.18-.7-.07.2.02 1-.07-.52-.13-.68-.08.4.05.15.1.38.13.6-.01.01-.01.05-.02.03.18 1.36.2 1.12.14.48.02.03.03-.03.04-.22.02 1.42.43 3.93.26 4.12l1.35 10.4c-.06.4-.22-.4-.35-1.38l.27 2.4c-.14-.01-.2-1.38-.3-2.12.07 2.9.8 5.9.9 9.3l.17.7v.2c.04-.01.12.34.2.73l.04.66c-.08.23-.2.07-.07 1.5 0 .67.1 1.6.23 2.6l.1.75a3.29 3.29 0 0 0 .04.25l.03.18c.02.13.04.25.07.37 0 .03.02.07.01.1l-.08.01-.16.01c.12 0 .2.01.27.02.04-.01.03-.04.05-.02.01.01.04.06.03.1-.03 0-.07.01-.12.02zm11-2.33l-.17-.57.84 3.63.07-.77c.36 1.94-.17.55.3 2.4l.2-.07c.27 1.34.45 2.4.6 3.5.07.53.2 1.12.32 1.7.1.47.2.97.16 1.46-.03 1.04-.58 1.52-1.67 1.58-1.1 0-2.36-.43-3.5-1.03-1.15-.62-2.24-1.4-3.08-2.33-.85-.94-1.5-2.07-1.95-3.32-.7-1.87-1.07-3.88-1.45-5.9l-.16-2.2-.32-4.58a240.15 240.15 0 0 0-.98-10.6l-1.5-13.68c-.44-2.06-.64-5.77-1.1-8.2l.01-.97c-.16-.84-.32-1.84-.36-2.7l.04.05c-.24-1.26-.37-2.7-.5-3.32l.04.05-.2-1.54.08.26c-.37-2.2-.7-4.48-.92-6.5l-.12.2c-.45-4.3-.97-5.84-1.44-9.74l.04.05c-1.3-4.8-1.27-7.77-3.02-12.62.22.6 0-.28.04-.24-.7-2.26-1.55-4.65-1.83-4.6-.6-1.62-.4-1.35-.37-1.6-.1.05-.7-1.33-1.22-2.57l.3.55a79.26 79.26 0 0 0-1.62-3.51l.1.8c-.82-1.87.03-.6-.9-2.32l-.16.1-.5-1c1.38 1.58 2.78 3.45 4.2 5.87 2.1 3.8 2.9 6.48 3.73 9.14.8 2.7 1.5 5.5 2.73 9.94l3.27 12.98c.67 1.94 1.28 5.5 2 7.8l.1.94c.24.8.5 1.74.62 2.57l-.05-.04c.36 1.2.62 2.57.8 3.17l-.05-.04.34 1.47-.1-.24c.56 2.1 1.06 4.28 1.43 6.2l.1-.2c.74 4.15 1.36 5.6 1.98 9.35l-.05-.04c1.4 4.62 1.34 7.48 2.74 12.26-.17-.6-.02.27-.06.23.52 2.22 1.05 4.6 1.34 4.58.35 1.63.2 1.34.14 1.58.1-.05.44 1.36.73 2.62zm51.43-80.58c0-.3.1-.5.4-.8.7-.4 2-.3 2.7-.1.2.1.4.1.7.2 1.4.3 3 .7 2.8 1.7-.2 1.3-.8 2-3.1 1.6-1.3-.2-2.6-.9-3.2-1.7-.2-.2-.4-.5-.3-.9zm7.43 1.9l.04-.1c-.44.88-.68 1.06-1.24 2-.04.04-.1.1-.1.1-.5.94-1.73 2.57-2.2 3.26h-.1l-.32.4-.3.33-.84.65.64-.47c-.1.3-1.34.88-2.5 1.9-1.16.84-2.08 2.08-3.34 2.9-.53.48.43-.47-.4.2-.08-.06.37-.33.1-.24-.13.1-.24.18-.35.26-.56.77-.98 1.17-1.6 2.13h-.1c-.88 1.44-1.95 2.5-2.5 3.48-.97 1.44-.87.8-1.8 2.35l-.5.5c-.47.6-.23.52-.77 1.18-.02-.08-.68.84-.43.4-.5.6-.96 1.27-1.44 1.96-1.04-1-2.04-2-3.07-3.17 0 .2-1.14-1.08-.98-.65-2.47-2.28-4-4.66-5.26-5.13-.95-.94-1.13-1.3-1.52-1.77l.03-.03.07.06-.06-.06c.32-.3.6-.6.7-.75-.27.35.63-.45.43-.16.36-.45 1.54-1.64 2.08-2.04l-.1.1c1.86-1.65 3-3.02 4.64-4.52-.13.01.73-.8.45-.66 1.53-1.72 3.1-2.9 3.3-3.94.5-.95.65-1.1.9-1.6l-.08.25c.74-1.9.8-2.5 1.07-3.98.03-.37.01-.6 0-.88 0-.3-.03-.58.25-1.1-.1.37.06-.07.32-.44-.14.25-.2.32.2-.13a1.21 1.21 0 0 1 .18-.29c.01 0 .03-.02.02 0 .5-.58.4-.5.14-.24.01-.02-.02-.01-.1.07.58-.55 1.7-1.54 1.84-1.5l1.35-1.05.63-.5c.18-.15.37-.3.57-.4.8-.5 1.67-.9 2.6-1.3.23-.03-.2.2-.72.43l1.32-.55c.02.08-.75.34-1.15.52.8-.27 1.62-.6 2.47-.94l1.32-.5c.23-.07.46-.15.7-.23.1-.03.23-.07.35-.1l.16-.03.1-.06c.04-.02.1-.07.12-.04l.03.06c0 .06-.06.14.02.18-.03.05.04.15.04.22l-.03-.04c.1.34-.02.45-.1.87-.02.02-.04.05-.04.04-.03.45-.54 1.16-.7 1.5l-.07-.02c-.17.25-.33.5-.52.74.07-.1.15-.17.22-.26.07.2-.5.5-.84 1.06-.22.24-.32.52-.5.78-.18.27-.4.53-.7.68-.2.24.15-.27-.2.05-.07-.07.15-.17 0-.17-.35.3-.67.32-1.12.66l-.06-.05c-.58.5-1.23.56-1.66.9-.13.07-.25.13-.35.17-.3.62-.38.35-.56 1.05l-.22.24c-.16.3.01.27-.2.6-.05-.05-.25.4-.2.18-.23.36-.38.77-.56 1.2a7.59 7.59 0 0 1-.31.65c-.07.12-.14.25-.23.4a13.22 13.22 0 0 1-.41.63c-.03.18-.17.44-.32.7.35.1.7.2.9.22 0 .03.45.17.76.28.2.07.3.12-.03.08-.1-.02-.26-.07-.24-.1l-.17.02a6.6 6.6 0 0 0 .4.16c.07.03.14.06.2.08a3.34 3.34 0 0 0 .43.1c.3.06.58.1.88.2-.17-.08-.4-.15-.24-.15l.56.2-.14.02.83.3-.1-.1c.4.17.5.34 1 .38.23.01-.36-.22.08-.1.13.06.3.12.45.18.08.03.16.07.25.1.1.04.13.07.33.12.45.1 1.02.1 1.5-.22a6.04 6.04 0 0 0 2.58 1c.4.1.8.1 1.2.1 1.3 0 2.5-.5 2.9-2.4.1-.65-.13-1.14-.53-1.5.1.01.22.01.33.01.54 0 1.12-.06 1.65-.25-.53 1-1.04 1.84-1.4 2.5zm-1.73-3.1c-1.5-.2-2.9-1-3.6-1.9-.2-.2-.4-.6-.3-1 0-.4.2-.6.5-.8.4-.3 1.1-.4 1.7-.4.5 0 1 0 1.4.2.2.1.4.1.7.2.2.03.4.08.63.12.35.15.7.28 1.07.38.35.12.7.2 1.07.3.4.2.74.42.93.7.1.2.1.4.1.6-.2 1-.9 2.1-4.2 1.6zm4.97-2.27c-.04-.14-.1-.3-.17-.43.03-.01.07 0 .1 0a3.66 3.66 0 0 0 .34-.02l-.27.45zm2.13-2.73c-.64 1.37-1.72 1.65-4.12 1.07-.54-.2-1.1-.35-1.63-.47-1.32-.52-2.45-1.4-2.86-2.3-.2-.3-.2-.6-.1-.9.6-1.4 3.4-.8 4.3-.5.2.1.3.1.5.2a15.23 15.23 0 0 1 .7.24c.26.2.52.4.8.56.63.34 1.15.54 1.62.66.37.27.67.55.78.84a.61.61 0 0 1 .01.6zm.9-.8c-.08-.2-.2-.36-.34-.53.33-.05.6-.17.88-.32l-.54.85zm1.1-3.2c.1.3 0 .5-.1.7-.65.97-1.3 1.35-2.22 1.2-.8-.54-1.78-.96-2.58-1.27-.93-.74-1.66-1.67-1.9-2.53-.1-.3-.1-.8.1-1.1s.5-.4.8-.5h.4c.9 0 2 .5 2.4.9.2.1.4.2.7.4.8.5 2.2 1.4 2.4 2.2z"/></svg>