<svg xmlns="http://www.w3.org/2000/svg" viewBox="0 0 480 480" xmlns:v="https://vecta.io/nano"><path d="M2711.8 107l.5-.12c-.02-.02-.15 0-.5.12zm19.8-3.25h-.03c-.04.01-.1.02-.13.04l.16-.04z"/><path d="M345.17 87.25l-4.7-1c-.4-.1-.9 0-1.2.4l-7.48 8.57c-.1-.2-.22-.27-.22-.27s-6.6 2-8.3 3.4c-1.7 1.3-4.7 3.2-4.9 5.2s-.5 3.9-1.9 6.4c-.62 1.1-7.85 7.42-15.68 13.23-5.78 4.3-12.88 9.46-17.82 12.47-1.82 1.1-3.94 1.43-5.57 1.5l-21.45-20.97c-5.66-9.57-14.5-17.7-28.14-17.33-1.74.04-3.47.1-5.2.3-10.48-.92-21.83 7.28-26.9 12.6-3 3.2-36.1 36.7-36.1 36.7l6.08 4.9a11.48 11.48 0 0 0-2.58 2.5c-4.1 7.3-5.9 15.3-7.8 29.6s-3.8 44-3.8 44-2.3 6.1-1 13.7c1.3 7.7 2.1 8.4 2.5 9.5.3 1.1 1.8 0 1.8 0s.3 2.4 1.6 2.6c1.4.3 1.6-1.3 1.6-1.3s.78 1.4 1.58 1.3c.9-.1 1.95-3.1 2-5.42.05-2.2 1.9-7.7 2.1-8.7s.7 2.3 1.1 4 2.4 2.6 2.3-.5.3-5.8.2-6.7-.6-3-1-4.4l-.4-1.5s-.5-1.1.6-4.2c1-3 12.7-33.8 14.7-38.3 1.78-3.96 6.4-10.58 10.68-15.05l1.2.96-4.47 30.6c0 .2-.1.9-.2 1.1v.1c0 .3-.1.4-.1.5v.1h86.8l-4.54-30.34 1.77-10.47-.3 3.6s6.95 2.58 14.7-2.67c8.67-5.88 18.34-19.8 20.5-22.5 4.56-5.73 18.3-24.43 18.3-24.43l.82-.57 5.9-4.5c1.02-.82 5.75-8.22 8.67-12.86.47-.24.85-.64 1.14-1.24a1.16 1.16 0 0 0 .1-.72l.97-1.56c.03-.05-.03-.1-.08-.07l-1.28.9c-.16-.18-.35-.35-.58-.5 1.1.2 1.93-.2 2.67-1.34 1-1.53-1.5-2.9-2.66-3.66l4.66-5.74c.5-.7.2-1.7-.7-1.9zm-22.44 20.92l-.13.1c.03-.04.05-.08.07-.12.85-1.44 2.05-4.1 2.4-4.88-.28.65-1.52 3.42-2.4 4.88l.06.01zm5.55 1.72l-.07-.02c.03 0 .06.01.1.01l-.02.01zm1.2-9.5c-1.1 1.26-4.32 2.75-4.34 2.75.02-.05.04-.08.04-.08s2.83-1.12 4.83-3.3c-.17.2-.34.4-.53.62zm2.47-4.32c.02-.38-.05-.64-.14-.82.03.04.17.3.14.82zm.93 10.6c-.36-.08-.7-.15-.9-.2-.04-.01-.1-.02-.14-.02l.27-.33a6.72 6.72 0 0 0 .98.42l-.2.14zm2.27-4.3h0c.02 0 .02 0 .03.01 0-.01-.01-.01-.03-.01zm3.15-3.88l.06-.08c.07.06.13.12.2.17l-.26-.1z" fill="#fff"/><path d="M188.26 178.04l-1.64 2.1-.1.03-2.04 2.9.77-1.08c-.12.47-1.64 2.12-2.85 4.4-.62 1.03-1.12 2.17-1.53 3.33l-1.3 3.48c-.36 1.13.26-1.02-.34.65-.1.02.25-.8.01-.4l-1.86 4.64-.1.05-2.54 6.67c-.98 2.7-.9 1.73-1.84 4.58l-.5 1.05c-.47 1.2-.2.9-.76 2.22-.03-.1-.7 1.67-.45.86-1.24 2.98-2.2 6.17-3.83 10.1-.2.9-1.02 2.9-1.16 3.58-.04.04-.42 1.06-.62 1.83-.2.77-.3 1.22-.08-.02.04-.2.15-.58.17-.55l.02-.3c-.24.65-.42 1.3-.52 1.95-.05.33-.07.67-.07 1 0 .17.01.35.04.53s.04.3.13.54c.28.96.6 1.9.85 2.94-.15-.7-.4-1.58-.2-1 .2.7.36 1.42.52 2.14l-.16-.43a31.96 31.96 0 0 1 .32 1.59c.04.26.1.53.08.72 0 .23-.01.5-.03.77l.1-.44c-.1 1.57-.33 2.16-.27 4.02.04.84.15-1.55.12.18-.02.55-.05 1.17-.04 1.83-.01.32-.01.6-.06.9-.05.28-.15.53-.2.53-.08.05-.15.05-.24-.03a1.46 1.46 0 0 1-.43-.59c-.06-.12-.1-.25-.13-.38l-.1-.5-.25-1.28c.01.26-.06.04-.15-.37-.1-.4-.23-1.08-.4-1.57v-.25c-.2-.4-.34-.46-.45-.56-.12-.07-.18-.14-.34-.13-.1.05-.14.04-.2.04-.03 0-.06-.02-.1 0-.05.03-.1.07-.2.14-.04 0-.1.15-.15.27l-.2.46-.47 1.66-.05.26-.07.36-.02.22c-.58 2.65-.6 1.33-1.06 4.3.24-1.15.25-.52-.03.92l-.01-.38c-.12.8-.1 1.16-.13 1.62-.03-.44-.05-.24-.2.85a9.13 9.13 0 0 0 0-.74c-.01.68-.1 1.38-.23 2.06-.14.44-.32.95-.54 1.42a3.48 3.48 0 0 1-.37.64c-.16.2-.16.2-.25.23-.1-.01-.1 0-.26-.12l-.1-.08c-.06-.07-.12-.13-.18-.2-.1-.12-.18-.24-.25-.36l.5-10.9c.01-.28-.2-.5-.48-.52-.27-.03-.5.2-.52.48l-.5 10.95c-.1.04-.2.08-.4.13-.06.14-.1.3-.18.4-.07.1-.06.07-.1.1-.05.04-.1.07-.17.08-.1.03-.4-.01-.5-.06-.27-.1-.52-.53-.63-.7.17.26.06.02-.02-.26-.02-.1-.1-.4-.13-.58-.02-.2-.02-.24.06.02-.1-.36-.2-1-.3-1.62-.03.02-.06.04-.08.06l-.2-8.38c-.01-.27-.23-.5-.5-.5h-.01a.51.51 0 0 0-.49.51l.23 9.05c-.1.06-.17.1-.26.15l-.2.1-.05.02c-.06.03-.15 0-.17-.07h0c-.28-.67-.57-1.3-.67-1.7l.08.18c-.63-1.86-1-3.58-1.35-5.23-.34-1.67-.7-3.28-.77-5.07-.1.17-.13-1.74-.22-1.26-.24-3.78.77-6.78.77-8.15.1-.4.2-.74.3-1 .05-.13.1-.25.13-.36.03-.07.05-.14.08-.2.02-.07.02-.18.03-.23.05-.4.1-.7.14-1.16l-.01.4.43-6.6c.05-1.2-.1-1.4.1-3.56.01.7.06-.18.12-1-.03.52-.02.68.1-.38-.01-.15 0-.38 0-.6.01-.01.01-.05.02-.03.08-1.35.04-1.12-.01-.5-.01-.03-.02.02-.06.2.2-1.4.3-3.9.4-4.06l.67-10.33c.1-.37.07.42.01 1.4l.2-2.4c.08.03-.08 1.38-.12 2.1.38-2.83.4-5.88.85-9.2l.01-.7.03-.2c-.03.01 0-.75.04-1.24.12-.46.16.05.34-1.6.2-1.3.4-3.7.6-5.4-.14.9-.13.6-.1.22.1-.82.24-1.28.3-1.92l.08-.05c-.05-.12.24-2.2.24-2.48.14-.46-.13 1.28-.1 1.5l.75-4.92c.22-1.76-.14.3-.08-.55.25-1.54.46-3.06.88-4.8l-.2.54c.53-2.9 1-4.6 1.63-6.47 1.4-5.3 2.8-8.04 3.38-9.4.6-1.35.47-1.3.02-.64a28.66 28.66 0 0 0-1.77 3.14c-.58 1.17-1 2.2-1 2.2-1.68 4.06-2.44 7.3-3.13 10.74-.65 3.44-1.2 7.1-1.85 12.2l-1.3 10.2a282.77 282.77 0 0 0-.99 10.48l-1.02 13.57c-.03 2.08-.4 5.72-.47 8.17l-.14.94-.05 1.34c-.01.23-.03.46-.04.68-.01.06 0 .04-.01.06l-.01.01-.15.4v-.06c-.35 1.26-.67 2.68-.75 3.32l-.01-.06c-.1.5-.16 1.03-.23 1.55l.01-.27c-.24 2.24-.3 4.56-.15 6.6l.07-.18c.13 2.2.47 3.63.74 5 .3 1.4.56 2.72 1.07 4.63l-.04-.05c.33 1 .77 1.86 1.1 2.66h0c.1.28.3.53.55.66s.56.16.85.1c.34-.07.3-.08.37-.1.05-.02.1-.05.14-.07.02.03.02.12.03.17.02.08 0 .06.08.3.14.4.3.83.64 1.23.17.2.37.4.66.53.28.14.57.18.82.2a1.93 1.93 0 0 0 .92-.19 1.95 1.95 0 0 0 .4-.29l.08-.1.02-.03c.03-.05.05-.1.06-.17.02-.01.06.08.1.1.05.04.02.03.34.27.1.08.3.2.5.24.2.06.4.07.6.06l.1-.03c-.05.01-.1.03-.1.03-.43.02-.26.02 0 .03l.33-.1c.1-.04.14-.07.13-.06.48-.3.63-.6.8-.9a5.98 5.98 0 0 0 .41-.85c.22-.56.37-1.1.47-1.56.2-.93.22-1.6.14-1.62a13.9 13.9 0 0 0 .08-.96c.02-.2.04-.3.05-.38.04-.15.07-.12.1-.22-.1.01.1-1.4.44-2.67l-.12.6a59.98 59.98 0 0 1 .46-1.81l.44-1.6c-.04.04-.07.08-.12.14l-.17.32c.04-.1.07-.22.1-.3a2.77 2.77 0 0 1 .06-.16.81.81 0 0 1 .08-.18c.04-.08.06-.08.08-.1.04-.02.06-.01.18-.48l-.03-.3c.03-.1.05-.2.08-.28l.03-.13c0-.05.06-.08.08-.01.08.2.1.4.14.6.06.38.1.7.12.97.01.08 0 .1.02.23l.06.4.14.84c.08.33.2.67.38 1 .2.32.44.64.95.9.5.23 1.13.15 1.5-.28.4-.45.45-.87.53-1.23.06-.37.06-.73.05-1.08l-.02-.95c0-1.27.07-2.56.15-3.86.02-.66.1-1.3.01-2.08-.1-.7-.26-1.33-.4-1.97-.3-1.3-.7-2.56-1.03-3.8l-.01-.04-.02-.04a1.64 1.64 0 0 1-.06-.38 4.34 4.34 0 0 1 0-.51c.02-.35.07-.7.14-1.07.14-.72.36-1.42.6-2.14.5-1.43 1.02-2.85 1.54-4.25l3.14-8.12.24-.4c.2-.14.84-2.74 1.1-3.07l.37-1.15c.14-.3.42-.97.23-.4.4-1.04.4-1.07.64-1.83l.5-1.1 4.55-11.92 1.9-4.55c.68-1.7 1.6-3.42 2.66-5.15 1.42-2.32 3-4.57 4.47-6.5l-.12-1.18z"/><path d="M162.44 242.88h0l.1-.52-.1.52zm73.06-103l-.07.04-.26.5z"/><path d="M346.36 87.7c-.4-.5-.02.13-.24-.07-.3-.44-.86-.54-1.28-.66l.13.1c-.78-.1-1.24-.2-1.73-.4-5.85-.54-1.4.66-1.4.66 1.1.33 1.96.5 2.87.64l.3.05c.05.01.1.01.13.03.08.03.15.1.2.18a.47.47 0 0 1 .04.36c0 .04-.02.07-.03.1-.02.03-.01.03-.07.1l-.3.4-3.6 4.2-.54.67c-.86-.47-2.23-1-3.3-.82-.6.1-1 .4-1.3.9s-.4 1-.2 1.7c.18.58.52 1.17.96 1.73-1.54-.43-4.07-.7-4.86 1.07-.2.5-.2 1 .1 1.6.22.5.62.97 1.12 1.4-.9-.1-2.02-.02-2.82.5-.5.3-.8.7-.9 1.3s.1 1.2.5 1.7a4.04 4.04 0 0 0 .8.8c-.77-.1-1.66-.05-2.3.4-.4.2-.7.7-.8 1.2s0 1.1.4 1.6l.12.14h-.03l-.12-.02c-.05-.01 0 0-.1-.03l-.35-.1-.7-.22-1.43-.42-2.27-.64 1.15-2.1.13-.07c.14.01.15-.77.3-.82l.08-.32c.06-.07.16-.24.12-.08.13-.27.1-.28.16-.5l.2-.26c.05-.1.04-.07.06-.1.03-.01.04-.02.14-.06l.34-.18.65-.38 1.35-.82a6.88 6.88 0 0 0 1.17-.74c.2-.16.43-.35.64-.58l.53-.64c.7-.88 1.3-1.86 1.6-2.67.2-.6.45-1.2.34-2.04-.01-.04-.01-.1-.03-.13-.05-.04.05-.07.06-.1l1.6-1.6c.55-.58 1.08-1.17 1.52-1.8.06-.04.16-.22.15-.23l1.4-1.58 2.58-3.13c.2-.37.7-.38.78-.45.05-.04.02-.13-.17-.22-.18-.07-.64-.2-1.15.27h.01l-1.2 1 .01-.06c-.8.83-1.3 1.36-1.72 2.06-.2-.02-.64.7-.86.87v-.03c-.36.62-1.04 1.02-1.4 1.6.01-.03-.02-.07.08-.2-.3.4-.73.92-.82.88l-.85 1-.53.63c-.05-.03-.1-.08-.15-.1l-1 .32-.56.2-1.15.4-2.45.92-2.82 1.26c-.9.53-1.48 1.04-2.16 1.5-1.3.95-2.47 1.8-3.37 3.17-.22.34-.4.74-.5 1.2l-.06.34-.03.26-.07.52a18.07 18.07 0 0 1-.42 2.15 13.27 13.27 0 0 1-.87 2.31c-.2.4-.42.87-.64 1.1l-1.07 1.1c-3.1 2.9-6.66 5.83-9.94 8.44-1.48 1.34-4.37 3.35-6.22 4.83l-.78.5c-.63.5-1.4 1.1-2.08 1.55l.03-.05c-.95.76-2.08 1.54-2.56 1.9l.03-.05-1.2.87.2-.17a90.81 90.81 0 0 1-5.09 3.58l.18-.02-4.03 2.6c-.8.53-1.63.95-2.72 1.22l-.17 1.36c1.25-.28 2.4-.75 3.37-1.38l4.24-2.75c-.18.02 1.4-1 .96-.83 3-2.18 5.64-3.7 6.52-4.76 1.35-1 1.66-1.1 2.37-1.6l-.3.25 5.13-3.83c.9-.74.96-.97 2.64-2.22-.5.46.18-.07.8-.55-.4.32-.5.43.34-.17.1-.1.27-.25.43-.4.01 0 .04-.02.03-.01 1-.84.82-.7.34-.34.02-.03-.03 0-.2.1 1.1-.78 2.93-2.4 3.12-2.4 1.5-1.27 2.76-2.4 3.93-3.5.6-.55 1.15-1.1 1.7-1.66.28-.3.55-.57.82-.9.13-.14.28-.36.38-.54l.28-.55c.1-.15.1-.05-.01.2l-.22.47a5.52 5.52 0 0 1-.45.6c.13-.15.27-.3.4-.5s.2-.35.3-.53a13.26 13.26 0 0 0 .5-1.08c.03.03-.1.35-.28.73-.2.4-.4.83-.7 1.2.3-.33.45-.65.62-.96.17-.32.33-.65.47-1a11.71 11.71 0 0 0 .68-2.15c.17-.75.27-1.52.36-2.3l.06-.58c.03-.16.05-.32.12-.47.1-.32.3-.62.55-.9.1-.18.23-.35.35-.52.04-.04.1-.08.13-.13-.03-.02.42-.55.78-.86.4-.23.06.13 1.3-.84a15.5 15.5 0 0 0 .91-.65l.54-.4c.2-.14.33-.26.52-.38.75-.48 1.65-.9 2.4-1.23-.82.33-.57.18-.23.01.73-.3 1.2-.4 1.75-.64l.08.05c.07-.1 1.97-.78 2.22-.9.45-.08-1.15.45-1.32.57l1.73-.6a2.83 2.83 0 0 0 .27-.09l.47-.47c0 .04-.01.08 0 .1l.03.22c.04.07-.07.17.02.23-.03.05.04.15.04.22l-.03-.04c.1.34-.02.45-.1.87-.02.02-.04.05-.04.04-.03.45-.54 1.16-.7 1.5l-.07-.02c-.17.25-.33.5-.52.74.07-.1.15-.17.22-.26.07.2-.5.5-.84 1.06-.22.24-.32.52-.5.78-.18.27-.4.53-.7.68-.2.24.15-.27-.2.05-.07-.07.15-.17 0-.17-.35.3-.67.32-1.12.66l-.06-.05c-.58.5-1.23.56-1.66.9-.13.07-.25.13-.35.17-.3.62-.38.35-.56 1.05l-.22.24c-.16.3.01.27-.2.6-.05-.05-.25.4-.2.18-.23.36-.38.77-.56 1.2a7.59 7.59 0 0 1-.31.65l-.23.4a13.22 13.22 0 0 1-.41.63c-.03.18-.17.44-.32.7.35.1.7.2.9.22 0 .03.45.17.76.28.2.07.3.12-.03.08-.1-.02-.26-.07-.24-.1l-.17.02a6.6 6.6 0 0 0 .4.16c.07.03.14.06.2.08a3.34 3.34 0 0 0 .43.1c.3.06.58.1.88.2-.17-.08-.4-.15-.24-.15l.56.2-.14.02.83.3-.1-.1c.4.17.5.34 1 .38.23.01-.36-.22.08-.1.13.06.3.12.45.18.08.03.16.07.25.1.1.04.13.07.33.12.45.1 1.02.1 1.5-.22a6.04 6.04 0 0 0 2.58 1c.4.1.8.1 1.2.1 1.3 0 2.5-.5 2.9-2.4.1-.65-.13-1.14-.53-1.5.1.01.22.01.33.01.63 0 1.3-.1 1.92-.36-.88 1.3-1.8 2.5-2.64 3.92.04-.1.03-.16.34-.63-.96 1.5-2.33 3.54-2.5 3.58-.3.43-.64.88-.98 1.28l-.24.25-1.05.8-2.87 2.2c-.95.72-1.8 1.43-2.67 2.03a.58.58 0 0 0-.22.22l-.12.17-.2.3-.4.56-.66.97.1-.17c-.85 1.32-1.2 1.63-2.2 3.06-.07.07-.15.16-.14.14-.94 1.43-2.97 4-3.76 5.12l-.1.03-2.02 2.73.77-1c-.12.46-1.63 2-3 4.03-1.4 1.83-2.5 3.98-4 5.84-.62.97.5-.9-.48.52-.1-.01.43-.68.1-.37-.97 1.37-1.72 2.14-2.93 3.83l-.1.02c-1.5 2.24-3.14 4-4.14 5.5-1.68 2.2-1.32 1.32-3.05 3.64l-.8.8c-.8.93-.48.75-1.42 1.75.01-.1-1.2 1.25-.7.62-2.15 2.2-4.18 4.7-7.42 7.13-.6.66-2.3 1.77-2.8 2.16-.03 0-.25.14-.56.3l-1 .5c-.64.3-1.03.44-.04-.08.17-.1.47-.25.46-.22l.2-.2c-2.04.92-3.73 1.7-5.95 2.03.65-.1 1.52-.24.95-.1a17.84 17.84 0 0 1-2.06.26l.42-.1a15.75 15.75 0 0 1-3.07-.04l.42.1c-.75-.07-1.25-.2-1.76-.32l-.65-.16h-.03v-.6c.3-1 .42-2.68.66-3.08 0 0 .46-2.2.36-2.75.04.47.3-.75.36-.38-.03-.6.15-2.32.4-2.98l-.01.13c.57-2.5.54-4.34 1.1-6.58-.16.08.12-1.1-.1-.84.22-2.37 1.1-4.2.67-5.15.15-1.07.35-1.24.47-1.78v.26l.65-4.06c.07-.75-.17-.9.12-2.22.03.45.1-.1.2-.6-.04.32-.02.42.16-.22-.02-.1-.01-.24-.01-.38.01 0 .02-.03.03-.01.1-.83.05-.7-.03-.3-.01-.02-.04.01-.1.12.07-.2.12-.44.18-.7l.2-1.1-.76-.76c-.13-.14-.2-.25-.2-.3-1.83-1.73-3.26-2.86-4.8-4.28-.1-.23.3.05.77.45l-1.1-1.02c.1-.1.67.54 1 .84-1.12-1.4-2.77-2.4-4.12-4l-.38-.23-.08-.1c-.03.04-.42-.23-.65-.43-.13-.3.2-.18-.54-.9-.5-.65-1.7-1.58-2.5-2.28.4.42.22.33.01.2-.37-.36-.5-.65-.82-.9l.07-.15c.04.25-1.07-.83-1.26-.9-.13-.3.64.5.8.5l-2.23-2.15c-.87-.7.04.25-.43-.02-.72-.66-1.47-1.24-2.2-2.1l.16.35-.75-.66.05.17c-1.7-3.15-3.67-6.17-6-8.9-1.2-1.44-2.56-2.75-3.95-3.98-1.43-1.2-2.9-2.33-4.5-3.25-3.13-1.92-6.57-3.14-9.97-3.8l-.58-.25c-.24-.33-3.84-.06-4.35-.2-.53.03-1.08.05-1.6.1-.44-.03-1.38-.04-.6-.1l-4.38.2c-1.53-.1-3-.01-4.46.23-1.94.32-3.85.88-5.9 1.6-2.5.74-5.92 2.42-9.04 4.58-3.14 2.14-6 4.72-7.9 6.83-5.2 5.75-12.14 11.58-17.44 17.5a3.92 3.92 0 0 0-.6.7l-5.1 5.16s-14.03 14.2-12.42 13.6c-.1.3.54-.14 2.47-1.85l2.43-2.07c.04.03.08.07.12.1l.56.43a20.05 20.05 0 0 0 1.11.77c.06.27 1.27 1.04 1.6 1.37l-.04-.02c1.03.66 1.9 1.65 2.87 2.3-.04-.02-.1 0-.3-.16.68.52 1.62 1.22 1.6 1.34 1.6 1.26 3.8 3.07 4.92 3.77l-.1-.03c.65.38.76.6 1.45 1.07.03.04.07.08.06.08.7.42 1.86 1.47 2.4 1.84v.08l1.27 1-.46-.4c.28-.01.88.85 1.87 1.5.84.7 1.97 1.1 2.8 1.88.48.27-.46-.2.2.27-.04.1-.33-.2-.22 0 .65.46.96.9 1.77 1.46l-.02.08c1.1.7 1.83 1.6 2.57 2.02 1.07.78.55.73 1.72 1.48l.35.4c.45.38.4.17.9.6-.07.02.6.56.28.36 1.1 1 2.43 1.77 3.85 3.12.4.17 1.13.84 1.43.96.01.07 1.53 1.24.6.64-.08-.05-.2-.16-.2-.17l-.15-.03c.78.8 1.62 1.2 2.47 1.9-.24-.22-.58-.5-.32-.35l.8.65-.2-.08 1.16.98-.12-.2c.56.5.68.76 1.4 1.2.33.2-.5-.52.14-.05.34.3.3.3.4.4l-.13.12-.03.03-.1.12-.22.26-.84 1.02c.08-.02.05.05-.03.17-.07.05-.22.2-.48.47a4.35 4.35 0 0 1-.28.44c-.01.01-.02.02-.04.03-.01.01-.02.01-.02 0-.02.02-.03.04-.05.06-.14.1-.2.1-.66.73l.03-.13-.1.37c-.02.04-.04.06-.06.1l-.4.45c-.03.03-.06.08-.1.1l-.1-.08c-.06-.06-.12-.1-.17-.15-.1-.1-.14-.16-.13-.2l-2-1.54-1.9-1.4c-.18-.14-.36-.27-.54-.4-.08-.1-.38-.4-.2-.32-.4-.2-1.42-.96-1.76-1.35l.08.05c-.02-.02-.04-.04-.07-.06h-.01a30.64 30.64 0 0 0-1.67-1.34c.2.04 1.03.76 1.53 1.13-1.9-1.8-4.33-3.22-6.6-5.3l-.56-.32-.13-.13c-.03.05-.6-.3-.95-.58h0l.16.1c-.08-.06-.14-.1-.2-.16-.2-.3.17-.2-.97-1.1-.86-.84-2.7-2.1-3.95-3.04.65.55.4.43.08.23-.6-.47-.86-.84-1.35-1.17l.04-.17c.14.3-1.64-1.12-1.9-1.25-.26-.36.98.66 1.18.7l-3.57-2.85c-1.18-.82-.17.04-.4-.01-.5-.37-1.03-.76-1.53-1.24l-.3-.15-.06-.07c-.01.02-.13-.05-.26-.13-.1-.07-.18-.14-.26-.2-.06-.13.08-.1-.46-.54-.43-.43-1.35-1.05-2-1.5.32.28.2.22.03.12-.3-.24-.42-.43-.67-.6l.03-.1c.06.16-.83-.55-.97-.6-.12-.2.5.32.6.34l-1.8-1.43c-.65-.44-.01.1-.27-.01a1.26 1.26 0 0 1-.2-.2l-1.06-.76-.53-.45.1.14-.88-.62c-.56-.44-1-.82-1.44-1.25-4.04-2.83-4.66-3.03-4.24-2.5-2.23-1.13 3.78 4 3.78 4l1.3 1.12c-.35.33-.63.65-.84.92-.5.68-.7 1.04-.5.88.2-.1.64-.7 1.67-1.5 5 4.25 8.45 6.6 15.13 11.85l12.22 10.2-.57 3.8L188.5 200l-.44 4.27c-.1.45-.18.82-.24 1.37-.01-.03-.01-.07-.02-.1-.06-.3-.1-.38-.16-.32s-.1.27-.14.58c-.03.22-.12.52-.26 1-.03.08-.04.17-.07.27v.07c-.02 0-.02-.01-.08.18-.01.05-.03.12-.04.2l-.01.14v.08l-.06 1 1.13.07a183.64 183.64 0 0 0 5.83.2c11.2.3 16.96-.1 30.27-.2l26.94.23 17.62-.07a38.21 38.21 0 0 1 2.34-.09l3.23-.01H276c.1-.02.28.06.2-.1l-.1-.65-.35-2.36a66.42 66.42 0 0 0-.46-2.58l-.06-1.24c-.22-1.07-.45-2.34-.55-3.44l.04.06c-.33-1.6-.55-3.44-.7-4.23l.04.06-.3-1.96.1.33c-.52-2.8-.96-5.7-1.3-8.28l-.1.23c-.38-3.1-.73-5.1-1.07-7.1l.1-.03c.13-1.83.38-.6.55-2.42l-.12-.34c.03-1.65.4-.83.37-2.67-.1.7-.33.3-.13-.57l.08.24c.03-.24.04-.4.05-.54.05.01.1.03.15.04.7.17 1.4.27 2.1.35 2.84.26 5.73-.2 8.34-1.27 2.62-1.05 4.9-2.7 6.94-4.43 2.05-1.74 3.9-3.58 5.66-5.38l.36-.27c.24-.05 1.72-2.2 2.05-2.4l.72-.92c.23-.24.7-.75.34-.3.7-.82.7-.85 1.16-1.48l.8-.85c2.73-3.27 4.74-6.3 7.45-9.8 3.35-4.2 9.3-12.37 12.7-17.08a195.46 195.46 0 0 1 3.78-5.1l.5-.65.25-.33c.1-.15.07-.1.18-.18a32.8 32.8 0 0 0 1.35-.96l2.7-1.98 2.7-2 .36-.36.28-.34c.2-.22.36-.45.53-.67.34-.45.66-.9.98-1.35 1.27-1.8 2.44-3.63 3.53-5.43a5.76 5.76 0 0 0 .31-.5c.1-.18.2-.34.18-.34l2.77-4.38c.27-.25.52-.56.73-.95a1.15 1.15 0 0 0 .22-.54l.37-.58c.26-.22.42-.68.5-.78.05-.08.1-.17.16-.26.01-.03-.01.04.08-.16.04-.1.02-.22-.01-.33.23-.23.44-.48.6-.74.3-.4.4-.9.3-1.3-.3-1.06-1.7-2.03-2.7-2.64l.87-1.25c.1-.04.01.15-.13.36l.4-.5c.06.05-.2.3-.3.47.58-.5.9-1.3 1.54-1.9l.07-.18.04-.03c-.03-.02.06-.2.14-.3.14-.06.12.1.4-.24.27-.23.6-.8.86-1.17-.16.18-.15.1-.1 0 .14-.17.27-.23.36-.38l.1.04c-.06 0 .01-.1.1-.27.12-.2.18-.42.18-.47.13-.13-.1.43-.13.52.32-.52.27-.7.3-.83.17-.04.25-.22.01-.77zm-74.44 47.95l.3-1.72a3.32 3.32 0 0 1 .19.18l2.03 1.98 1.54 1.48.04.03v.05a15.92 15.92 0 0 0-.1.68l-.2 1.34c-.01 1.3-.6 3.5-.67 5.04l-.22.56c-.03.53-.1 1.14-.24 1.65l-.03-.04c-.04.8-.24 1.65-.26 2.04l-.03-.04-.14.94-.02-.17c-.13 1.36-.36 2.75-.6 3.97l.16-.08c-.6 2.6-.47 3.6-1.06 5.92l-.03-.04c-.13 3.05-1.06 4.67-1.22 7.8.02-.4-.1.15-.13.1-.2 1.33-.4 2.72-.2 2.96-.02.12-.04.25-.07.37l.06-.03c-.14.7-.2.55-.3.65.07.01.07.27.04.62-1.18-5.7-1.2-9.37-2.4-15.26.07-.5.15-1 .25-1.54.53-2.13 1.08-6.23 1.4-8.6.38-3.33 1.54-7.08 1.9-10.5a.9.9 0 0 0 .03-.38zm-8.57-10.73c3.58 3.6 4.65 4.95 7.95 8.12-.02.13-.04.27-.07.4-.05.38-.1.78-.16.97l-.01-.04c-.05 1.05-.47 2.1-.53 3.12-.01-.04-.05-.07-.01-.3-.1.73-.23 1.72-.34 1.76-.27 1.73-.73 4.14-.76 5.28l-.01-.08c0 .65-.12.82-.2 1.54-.02.04-.03.1-.04.08-.01.7-.33 2-.38 2.57l-.07.02-.22 1.37.1-.5c.15.2-.3 1.02-.34 2.03-.18.93.05 1.95-.2 2.9 0 .3-.02.07-.06.01-.4-2.35-.8-4.42-1.03-4.42-.34-2.16-.2-1.77-.13-2.07-.12.03-.48-1.83-.77-3.52l.18.77-.9-4.83-.05 1c-.43-2.57.17-.7-.4-3.14l-.18.07c-.75-3.52-1.04-5.64-1.98-9.03-.8-2.4-1.72-4.83-2.8-7.2l3.4 3.14zM209.2 201.5l.85.08c3.1.06 5.75-.1 9.02-.06 3.93.16 11.33.01 15.6-.07 6-.2 12.96.32 19.1.1.2.02.72-.02.7-.04h5.6s9.8.02 13.17-.2l.64 4.04.2 1.33.03.18c-.01.04.07.16-.03.13h-.4c-.05.01-.52.04-.77.07l-.5.06h-.33l-2.63.05c-.27-.01-.87-.01-1.46-.01.67-.02.88-.06-.5-.13-.2.03-.5.05-.77.07-.01-.01-.07-.01-.04-.03-1.75.04-1.45.07-.63.08-.04.02.03.03.24.06h-.03c-1.83-.13-5 .01-5.22-.17l-6.92.14-4.94-.04c.08 0 .16-.01.24-.01l-1.1.01-1.44.01h-.55c.1-.12 1.8-.07 2.73-.1-3.7-.22-7.63.22-11.97.02l-.9.1-.26-.02c.01.03-.25.06-.6.1h-1.23c-.26-.1-.1-.2-1.9-.2-1.7-.1-4.83.06-7.05.12.94.02.9.06.6.1h-.2l.2-.03-1.18.03c-.6-.03-1.06-.07-1.63-.04l-.08-.12c-.15.12-2.87.13-3.23.2-.6-.12 1.67-.1 1.94-.2l-6.46.02c-1.73.1-.62.13-.43.2-.08 0-.15 0-.23-.01h.04c-3.45.23-5.45-.16-9 .06.44-.03-.2-.04-.15-.07-1.64.02-3.38.04-3.4.2-1.2 0-.97-.05-1.13-.12.01.08-1.03.1-1.96.1l.43-.03-2.67.03.52.14c-1.4-.04-.36-.17-1.7-.14l.02.12c-1.96-.02-3.1-.2-5-.3-.42 0-.85 0-1.28-.01l.78-5.84 7-.07 7.13.07.32.1c.14.13 2.02-.2 2.3-.07l.85-.06c.24.02.74.05.32.08.76.03.78.01 1.35-.03zm-19.35-1.1h-.1c0-.01.01-.03.01-.05.36.01.5.02.1.05zm-1.76 6.05v-.28c.03-.14.05-.17 0 .28zm84.76-9c.33 2.02.28 2.57.37 3.5h-.03l-.05-.22.03.22c-1.16-.12-3.24-.26-6.57-.43l.14-.03c-3.07-.07-5-.08-7.13.06-.33-.17-2.52-.02-3.24-.07l.07-.01c-1.87.13-3.86-.1-5.67.01.07-.01.1-.06.52-.06-1.32.02-3.12.06-3.2-.04-3.14.03-7.53-.02-9.55.14l.14-.03c-1.15.1-1.5.02-2.77.07-.07-.01-.16-.02-.15-.03-1.25.1-3.65.02-4.66.06l-.07-.07h-2.5l.93.01c-.32.18-1.88-.12-3.7 0-1.7-.02-3.43.38-5.18.3-.84.1.74-.14-.5-.07-.04-.1.58-.06.26-.14-1.23.05-2-.1-3.53-.03l-.06-.07c-1.98.14-3.73-.1-5.05.03-2.04.06-1.37-.22-3.5-.08l-.83-.1c-.9-.02-.65.12-1.66.07.06-.06-1.27-.05-.68-.1-2.28-.1-4.63.14-7.63-.03-.65.12-2.16.05-2.65.14-.08-.05-3.03-.01-1.33-.13.15-.01.4-.01.4.01l.2-.07c-.83-.07-1.58-.05-2.33-.02l-1.13.05-.67.02h-.16l1.62-8.1.01.26c.93-5.55 1.46-9.06 1.8-12.93.15-.23.3-1 .43-1.95.27.22.55.43.84.66l4.88 3.92 2.08 1.66c.1.06.2.2.3.2l.72-.87.93-1.13 1.93-2.37c1.05-1.6 3.34-4.05 4.62-5.9l.64-.6c.44-.64 1-1.37 1.53-1.93v.06c.66-.95 1.52-1.93 1.85-2.4v.06l.87-1.1-.1.22c1.2-1.63 2.5-3.25 3.67-4.66l-.2.03c2.57-2.96 3.22-4.27 5.55-6.94v.06c2.45-3.75 4.53-5.43 7-9.35-.3.5.2-.16.2-.1 1.22-1.74 2.53-3.6 2.3-3.8.9-1.27.8-1 1-1.1-.1-.06.6-1.2 1.25-2.24 0 0 2.35-5.13-1.25-1.36-.24.27-.48.57-1.04 1.77.53-.9.52-.25-.27.78l.1-.34c-.4.6-.48.83-.77 1.2.2-.4-.02-.28-.6.6l.28-.67-.96 1.76c-1 1.17-2.3 3.24-2.84 3.64 0 0-2.05 2.6-2.37 3.32.3-.6-.83.83-.62.33-.42.76-1.88 2.84-2.62 3.56l.1-.16c-2.42 2.88-3.82 5.18-6.06 7.72.2-.03-.97 1.32-.55 1.1-2.04 2.84-4.3 4.73-4.64 6.07-.98 1.25-1.3 1.38-1.84 2l.22-.3-3.8 4.7c-.1.14-.2.27-.27.4l-2.4-1.9-2.9-2.24c-1.9-1.5-3.78-2.96-5.44-4.43l-.1-.2c.01-.16-1.14-.67-1.2-.88l-.47-.3c-.1-.12-.35-.34-.1-.2-.4-.32-.42-.32-.73-.52l-.38-.4c-1.53-1.3-2.97-2.26-4.6-3.62-1.9-1.72-5.73-4.6-7.94-6.27-3.15-2.28-6.36-5.5-9.6-7.83a1.69 1.69 0 0 0-.38-.26l-2.83-2.3-1.35-1.08 1.96-1.74-.1.16c2.87-2.76 4.65-4.52 6.4-6.64.5-.1 2.3-2.3 3.03-2.9l-.04.08c1.54-1.88 3.64-3.44 5.13-5.24-.05.08-.03.17-.4.56 1.17-1.24 2.76-2.95 2.97-2.92 2.82-2.93 6.86-6.93 8.5-8.97l-.1.16c.9-1.18 1.33-1.4 2.43-2.64.08-.05.17-.13.16-.1.5-.64 1.3-1.5 2.12-2.26l2.12-1.92.14.03c.8-.7 1.63-1.34 2.48-1.98l-.96.7c.14-.5 2.02-1.3 3.85-2.7 1.83-1.1 3.48-2.77 5.62-3.55.94-.54-.78.58.66-.14.1.13-.65.38-.22.34 1.42-.67 2.44-.8 4.25-1.4l.1.1c2.38-.86 4.63-.66 6.25-.82l5.74-.23.05.01c.53-.05 1.9.1 3.14.2-.1.1 2.24.28 1.2.3 2 .28 4 .6 6.1 1.3 2.1.67 4.27 1.67 6.4 3.28 1.1.46 3.1 2.25 3.8 2.76.01.04.27.3.6.62l1.04 1.1c.64.7.98 1.15-.1.1-.2-.18-.5-.5-.46-.5l-.34-.17c1.95 2.32 3.75 4.08 5.38 6.65-.44-.8-1.14-1.76-.6-1.15.5.8 1.04 1.57 1.5 2.4l-.4-.45c.7 1.2 1.4 2.44 2 3.7l-.15-.58c.88 1.88 1 2.6 2.1 4.68.5.93-.62-1.87.28.12 1.02 2.58 2.28 6.55 3.16 9.98.05-.36.3.56.57 1.5l-.1.14c.54 1.8.54 2.16.54 2.5s.01.7.44 2.5l-.15-.3.44.92c.83 3.3.07 1.84 1.03 5.5-.27-1.47.16-.74.4 1.1l-.2-.44c.2 1 .3 1.33.38 2-.16-.6-.22-.3.04 1.2l-.3-.97.67 2.76c.22 2.18.92 5.58.88 6.5 0 0 .64 4.66 1 5.7-.26-.92.1 1.65-.15.94.32 1.2.97 4.73 1.05 6.18l-.06-.27c.66 5.3 1.56 9 2.1 13.75.1-.24.4 2.28.5 1.63.9 4.9.95 9 1.78 10.7zm59.43-87.06c-1.3-.2-2.6-.9-3.2-1.7-.2-.2-.4-.5-.3-.9 0-.3.1-.5.4-.8.7-.4 2-.3 2.7-.1.2.1.4.1.7.2 1.4.3 3 .7 2.8 1.7-.2 1.3-.8 2-3.1 1.6zm2.2-3.8c-1.5-.2-2.9-1-3.6-1.9-.2-.2-.4-.6-.3-1 0-.4.2-.6.5-.8.4-.3 1.1-.4 1.7-.4.5 0 1 0 1.4.2.2.1.4.1.7.2.2.03.4.08.63.12.35.15.7.28 1.07.38.35.12.7.2 1.07.3.4.2.74.42.93.7.1.2.1.4.1.6-.2 1-.9 2.1-4.2 1.6zm5.03-1.9c-.02-.26-.1-.52-.23-.78.03-.01.07 0 .1 0a3.31 3.31 0 0 0 .83-.1l-.7.87zm2.07-3.1c-.64 1.37-1.72 1.65-4.12 1.07-.54-.2-1.1-.35-1.63-.47-1.32-.52-2.45-1.4-2.86-2.3-.2-.3-.2-.6-.1-.9.6-1.4 3.4-.8 4.3-.5.2.1.3.1.5.2a15.23 15.23 0 0 1 .7.24c.26.2.52.4.8.56.63.34 1.15.54 1.62.66.37.27.67.55.78.84a.61.61 0 0 1 .01.6zm2-4c.1.3 0 .5-.1.7-.65.97-1.3 1.35-2.22 1.2-.8-.54-1.78-.96-2.58-1.27-.93-.74-1.66-1.67-1.9-2.53-.1-.3-.1-.8.1-1.1s.5-.4.8-.5h.4c.9 0 2 .5 2.4.9.2.1.4.2.7.4.8.5 2.2 1.4 2.4 2.2zm-71.37 77.67h0l.06.17z"/></svg>