<svg xmlns="http://www.w3.org/2000/svg" viewBox="0 0 480 480" xmlns:v="https://vecta.io/nano"><path d="M391.74 405.42c-.4-.9-.8-2.28-1.4-3.18l-.67.1c-.18-.43-.37-.83-.56-1.06-2.2-2.6-11.5-4.7-17.4-4.5h-1.8l.04.3c-2.88-.42-19.8-2.58-19.8-2.58l-4.32-5.4c-.4-.6-1.2-.8-1.8-.4-.9.5-1.8 1.6-1.3 4.4.9 4.7 3.1 7.4 3.1 7.4s-.25.5-.74 1.34l-3.44-5.63.33-.7-1.8-2.92-.73.02-5-8.17 2.68-1.33c1.5-.8 2.64-3.03 1.94-4.43l-34.54-78.37c-8.76-23.45-25.3-58.3-31.3-72.7-3.1-7.3-6.2-15.2-8.5-21.2h-69.3c-.3 5.4 0 13.3 3.2 21.5l.62 1.5-.3-.17c-1.3 12.8-2.83 30.77-6.63 45.97-3.4 13.5-6.2 30.5-10.4 38-5.4 9.5-27.9 45.9-33.9 55.7-.8 1.22-.66 2.75.25 3.85l-9.8 12.36c-1.38-.78-3.88.78-7.16 4.8-2.1 2.7-3.8 5.9-4.6 7.3l.02.02c-.6.95-1.44 1.82-1.82 2.58-.7 1.2-.5 2.8.6 3.6l21.7 17.4 15.5 12.7c.7.6 1.76 1.02 2.66 1.12l17.83.25c1.98-.08 3.5.2 4.4-.9.6-.7.6-2.87.6-2.87.1-.3 1.4-7.24-11.38-10.1-.5-.2-.3-.4-.3-.4-1-2.1-7.92-18.8-7.92-18.8l2.92-7.2c.3-.6.2-1.4-.4-1.8-1-.7-2.7-1.2-4.9.6-.08.07-.16.14-.25.2l3.2-3.58 5.06 4.16c1.4 1.1 3.4.9 4.5-.5 8.5-11.1 42.1-54.3 47.7-60.1 10.16-10.7 19.37-27.74 19.37-27.74s0-.45-.1-1.34c10.12 15 16.1 23.42 26.23 39.57l32.6 52.2c.8 1.3 2.4 1.8 3.8 1.1l.03.76 10.46 17.4c-.37-.03.04.5-.3.45-.9-.2-1.7.7-1.5 1.7.4 2 1.56 4.98 3.36 8.28.85 1.6 1.98 2.83 2.86 4.23l-.22.1c.9 1.5 1.2 3 1.8 3.9.4.8 1.4 1.1 2.3.8l62.9-26.3c1.18-.6 2.32-1.84 1.72-3.24zm-248.87-14.45a58.87 58.87 0 0 0 1.93 1.91c-.65-.57-1.3-1.2-1.93-1.9z" fill="#fff"/><path d="M208.46 263.18c-.85 3.58-.97 5.5-1.76 9.8l-1.93 8.64-1.2 5.66c-.07.9-.55 2.37-.7 3.4l-.16.38a5.25 5.25 0 0 1-.25 1.11l-.01-.03c-.08.53-.25 1.1-.3 1.38l-.02-.03-.15.63V294c-.16.92-.42 1.85-.66 2.67l.1-.05-1.13 3.96v-.03c-.38 2.04-1.07 3.1-1.67 5.1.07-.25-.08.1-.1.06-.3.92-.78 1.85-.62 1.94-.3.64-.3.5-.4.56.07.03-.17.6-.4 1.1l.1-.24-.7 1.44.27-.2c-.44.73-.26.1-.6.84l.1.05c-.58 1.03-1.06 1.55-1.67 2.5-2.36 4.1-4.7 8.63-7.22 12.25l-.18.12c-.15 0-.48 1.13-.67 1.2l-.22.47c-.1.1-.28.35-.17.12-.26.4-.25.42-.4.73l-.34.4c-1.06 1.54-1.78 2.97-2.88 4.6-1.42 1.9-3.74 5.7-5.1 7.9-1.84 3.1-4.6 6.3-6.5 9.48-.08.1-.22.37-.2.37l-1.93 2.78s-2.34 3.37-3.7 5.52-1.7 3.1 2.3-1.7l-.02.08c1.1-1.48 1.8-2.43 2.4-3.57.26-.07.87-1.24 1.17-1.57v.04c.53-1 1.4-1.86 1.92-2.83-.01.04.01.1-.12.3.43-.67 1-1.6 1.12-1.58 1.05-1.58 2.55-3.75 3.1-4.85l-.02.08c.3-.64.5-.75.87-1.43.03-.03.07-.07.07-.06.33-.7 1.2-1.84 1.5-2.38h.08l.82-1.26-.32.46c-.05-.26.73-.88 1.22-1.86.58-.84.8-1.94 1.46-2.78.2-.47-.13.45.23-.22.1.03-.14.33.03.2.36-.65.75-.96 1.2-1.77l.08.01c.53-1.08 1.3-1.84 1.6-2.58.6-1.07.63-.58 1.2-1.73l.35-.37c.3-.46.1-.4.46-.9.03.07.45-.63.3-.3.8-1.12 1.36-2.44 2.45-3.9.1-.4.63-1.15.7-1.45.07-.01.95-1.56.52-.62-.04.08-.12.2-.13.2v.14c.65-.82.9-1.65 1.44-2.52-.17.25-.38.6-.28.34l.5-.82-.05.2.74-1.2-.16.13c.38-.58.6-.73.9-1.46.12-.34-.42.52-.07-.13.52-.77 1.26-1.95 1.83-3-.13.06.03-.22.16-.52h.08c.5-1.16.36-.33.88-1.47l.01-.24c.37-1.08.4-.48.77-1.7-.2.45-.25.14.04-.4v.17c.13-.3.15-.43.27-.62-.05.2.05.14.25-.3l-.06.34.3-.9c.38-.63.7-1.76.9-2 0 0 .64-1.45.6-1.83-.03.32.25-.5.26-.23a9.11 9.11 0 0 1 .56-2l-.02.1c.56-1.67.73-2.93 1.22-4.43-.1.05.16-.75 0-.58.32-1.6.95-2.83.76-3.5.16-.72.3-.83.4-1.2l-.02.18.63-2.76c.08-.5-.05-.62.2-1.52 0 .3.07-.07.14-.4-.04.22-.03.3.1-.14a.8.8 0 0 1 .02-.26c.01 0 .01-.02.02-.01.1-.57.06-.47 0-.2-.01-.02-.02 0-.06.08.2-.57.36-1.63.48-1.68.35-1.7.5-2.93.76-4.35.1-.15.07.2 0 .6l.2-1c.08.03-.07.6-.13.9.38-1.17.4-2.48.8-3.86v-.3l.03-.08c-.03 0-.01-.33.02-.54.1-.18.16.05.3-.65.18-.53.3-1.56.4-2.3-.1.38-.1.25-.1.08.07-.35.17-.53.2-.8l.1-.01c-.1.12.1-.92.07-1.06.1-.18-.05.55-.01.65l.4-2.1c.07-.76-.1.12-.13-.25.1-.66.17-1.3.37-2.05l-.13.22c.17-1.24.32-1.98.56-2.8 1-9.3-.57-2.1-.57-2.1z"/><path d="M391.53 404.97c-.07.2.14.88-.3 1.9-.22.48-.64 1.04-1.3 1.33l-2.88.9.1-.1c-2.64.98-4.28 1.64-5.97 2.6-.4-.14-2.14.86-2.78 1.03l.05-.05c-1.5.86-3.33 1.2-4.77 2 .05-.05.05-.13.4-.28-1.1.5-2.6 1.2-2.74 1.07l-7.95 3.58.1-.1c-.9.57-1.24.55-2.3 1.08-.07 0-.15.03-.14.01-.98.6-3.06 1.3-3.9 1.74l-.1-.08-2.1.9.8-.3c-.15.4-1.66.5-3.1 1.3-1.44.56-2.64 1.8-4.18 2.27-.65.43.53-.47-.48.07-.1-.13.45-.3.13-.3-1 .5-1.76.56-3 1.2l-.1-.1c-1.58.9-3.2 1.16-4.23 1.83-1.68.8-1.3.14-3 1.1l-.76.14c-.78.3-.47.42-1.35.7.01-.12-1.1.37-.65.07-2 .65-3.8 1.85-6.45 2.65-.23.2-.68.42-1.12.62l-.6.28c-.12.06-.12.07-.15.1-.04.03-.08.05-.1.07-.03-.03-.46.01-.67-.12s-.25-.2.06-.13c.06.01.15.04.14.07l.1-.1c-.35-.2-.25-.1-.68-.73-.3-.5-.6-1.16-.9-1.9.15.47.38 1.04.15.68l-.27-.7-.12-.3c.05.03.1.04.14.06l-.06-.18c.05-.03.14-.04.2-.06-.04-.03-.1-.05-.16-.07.08-.01.14-.01.2-.01.14-.03.36-.1.52-.14.36-.1.72-.25 1.23-.56.45-.3-.98.23.02-.24l.5-.18 2.2-.62 4.22-1.84c.2 0 .35.04 1.26-.42l.2-.23 1.26-.57c.24-.04.5-.12 1.17-.53l1.46-.66a2.88 2.88 0 0 0 .51-.19l-.4.33 1.15-.7.16-.07c1.05-.32 2.5-1.1 2.98-1.1 0 0 2.2-.83 2.62-1.2-.4.3.82-.17.53.1.3-.2 1-.58 1.67-.87h0c.07.06.3-.06.55-.23l.62-.2-.12.07c2.5-.9 4.12-1.94 6.4-2.7-.15-.1.9-.46.7-.54l1.25-.6c1.35-.54 2.53-.86 3.2-1.3l4.87-2.07.35-.16.72-.3a2.84 2.84 0 0 0 .31-.18l.33-.15 2.16-.9a.93.93 0 0 0 .13-.04.31.31 0 0 1 .06-.04l20.63-8.65-.5-.72c.02-.01.05-.03.07-.04l.04-.02.04.04 1.95 2.62c.32.37.4.3.37-.04-.07-.67-.77-2.36-1.33-3.24l-.43-.68-.1-.2c-.06-.1-.18-.28-.25-.35l-.23-.24c-.3-.35-.6-.57-.9-.8-.6-.43-1.2-.75-1.76-1-1.14-.52-2.24-.9-3.37-1.18-2.27-.58-4.68-1-8.07-1.28l-3.28-.23c-1.3-.03-2.27.25-3.36.28H369l-1.9-.13c-.16-.05-.6-.03-.6-.01l-4.75-.57-9.36-.87-2.03-.05c-.3-.92-1.7-3.18-1.7-3.18l-1.48-2.4-.28-.42a1.22 1.22 0 0 0-.2-.25 2.72 2.72 0 0 0-1.03-.74 2.63 2.63 0 0 0-2.43.23 3.93 3.93 0 0 0-1.71 2.12c-.3.87-.3 1.7-.22 2.5.04.46.13.9.24 1.35l-1.07-1.88-.26-.5-.52.38-.07.05c-.36-.65-.74-1.28-1.18-1.84-.02-.07-.14-.2-.16-.18l-.97-1.57-2.14-3.16 1.85-.97c.24-.13.57-.3.83-.5a3.54 3.54 0 0 0 .67-.67c.37-.48.6-1 .68-1.5.18-.98-.12-1.7-.3-2-.2-.33-.28-.33-.22-.1.05.26.3.88.08 1.83-.1.46-.37 1-.84 1.45-.45.5-1.16.74-1.95 1.1l-14.42 6.5.33-.2-9.85 4.8-4.06 2.07c-1 .58-2.2.32-2.9-.64-.24-.92-3.7-6-4.7-7.74l.12.15-.23-.34c.03-.01.05-.02.05-.02 1.06-.3 1.46-.77 2.6-1.4 1.04-.46 1.38-.44 2.4-1l1.52-.78c.18-.23.65-.32.88-.55l.14.01c.08-.08.18-.16.3-.17v.02c.12-.12.3-.17.35-.23v.02l.17-.1-.02.04c.22-.17.48-.3.72-.4l-.06-.07c.53-.15.62-.4 1.1-.5v.02c.45-.47.94-.28 1.4-.75-.06.06.05.03.05.05.25-.15.53-.3.45-.45.2-.1.18-.03.23.02-.03-.07.12-.18.27-.25l-.06.06.42-.23-.15-.1c.24-.07.13.13.33-.01l-.05-.1c.32-.13.58-.06.93-.13 1.28-.56 2.5-1.5 3.77-1.87l.1.05c.08.1.24-.33.34-.24l.1-.12c.05 0 .14-.01.08.04.13-.06.12-.08.2-.16l.17.01c.52-.18.88-.53 1.42-.75.7-.16 1.82-.86 2.46-1.27.88-.64 2.2-.72 3.1-1.4.04 0 .1-.08.1-.1l.9-.42s4.38-2.06.6-1.42l.01-.04c-.52.18-.84.3-1.12.6-.13-.13-.4.18-.55.18v-.02c-.24.26-.67.2-.9.45.01-.02-.01-.06.06-.1-.2.12-.47.3-.53.2-.5.27-1.2.56-1.47.87l.01-.04c-.14.2-.23.13-.4.28-.02-.01-.03-.01-.03-.01-.15.2-.58.3-.72.42l-.04-.06-.4.2.16-.06c.03.2-.35.04-.6.3-.28.1-.38.6-.7.66-.1.14.06-.18-.1-.03-.05-.08.07-.1-.02-.14-.18.14-.37.07-.58.24l-.04-.06c-.26.28-.64.2-.8.42-.3.2-.32-.1-.6.2l-.18-.03c-.15.06-.05.16-.23.2-.02-.06-.23.05-.16-.05-.4.1-.68.5-1.23.57-.05.16-.32.2-.36.33-.04-.04-.5.23-.27-.01.02-.02.06-.04.07-.02v-.08c-.33.01-.46.3-.75.42.1-.02.2-.07.15.01l-.26.1.03-.08-.4.15.1.04c-.2.05-.32-.03-.48.17-.07.1.22.01.04.12l-1 .3c.07.06-.02.1-.1.16l-.04-.06c-.3.25-.2-.1-.5.15l-.01.12c-.23.28-.23-.06-.47.28.13-.07.13.12-.04.17v-.08c-.08.06-.1.1-.16.1.04-.06-.02-.1-.14-.03l.05-.12-.16.25c-.22.02-.5.26-.6.2 0 0-.43.15-.48.3.05-.1-.2-.02-.16-.12-.07.12-.36.33-.52.32l.02-.02c-.5.15-.75.5-1.2.6.06.07-.18.13-.08.2-.4.3-.9.18-.9.56-.2.1-.27.04-.38.07l.04-.04-.74.38c-.12.1-.07.25-.34.33.05-.1-.04-.04-.14.01.05-.04.06-.07-.08-.05-.01.03-.03.05-.05.07v-.01c-.14.1-.1.1-.03.07 0 .01.01.02.04.02-.2 0-.44.22-.5.13-.45.25-.73.5-1.1.73-.07-.03 0-.12.1-.2l-.26.15c-.03-.07.14-.12.2-.17-.38.04-.6.44-1.04.52l-.05.1h-.03c.02.03-.05.1-.1.15-.08-.04-.07-.15-.25-.05-.18.01-.4.23-.6.36.1-.04.1.01.06.06-.1.05-.18.01-.24.07l-.05-.08c.08.06-.2.2-.22.26-.08-.04.12-.12.12-.18l-.56.28c-.17.16.08.06.02.18-.17.1-.3.25-.54.3l.1.04c-.3.22-.5.3-.77.34l-.57.5c-2.7-4.1-5.14-8.6-7.78-12.48.12.15.25.2.87 1.2-1.98-3.1-4.7-7.33-4.7-7.66l-14.33-22.5.24.3c-1.85-2.63-2.23-3.5-4.22-6.5-.1-.18-.2-.4-.18-.37-2.02-2.86-5.55-8.57-7.17-10.88l-.01-.2-3.9-5.78 1.43 2.17c-.76-.58-2.77-4.48-5.78-8.54-2.62-3.93-5.9-7.56-8.53-11.7-1.42-1.86 1.34 1.58-.7-1.26.07-.18 1 1.3.6.48-1.98-2.8-3-4.76-5.44-8.22l.01-.2c-3.25-4.47-5.6-8.78-7.8-11.74-3.2-4.7-1.78-3.4-5.23-8.23l-1.12-2.02c-1.37-2.14-1.17-1.4-2.64-3.8.18.1-1.87-3.03-.9-1.7-3.32-5.43-7.24-10.7-11.35-18-1.13-1.44-3.17-5.13-3.96-6.23-.07-.22-4.08-7.37-1.63-3.33.2.35.55.98.5.95l.38.43c-2.1-4.26-4.26-7.53-6.1-11.83.52 1.28 1.3 2.96.72 1.87-.62-1.32-1.16-2.66-1.7-4l.44.8a45.63 45.63 0 0 1-1.97-6.1l.1.9c-.37-1.53-.54-2.57-.7-3.67l-.65-3.98c-.28-1.6.17 2.98-.25-.32a54.88 54.88 0 0 1-.1-7.47l.03-.24c-.01-.05.04-.04.08-.04l.12.01h.2l.54.01 5.3.05c-.5-.14.96-.14 2.48-.17l.18.12 1.4-.03a22.73 22.73 0 0 0 .22 1.6c.16.97.34 1.77.34 1.77.68 3.22 1.43 5.6 2.33 8.08.44 1.24.92 2.5 1.5 3.9.55 1.4 1.22 2.94 1.98 4.73.63 1.6 1.24 2.85 1.7 4 .48 1.14.93 2.14 1.4 3.12l1.5 3.13 2.1 3.96c.77 1.5 1.66 3 2.52 4.5s1.73 3 2.62 4.4c.94 1.26 2.22 3.72 3.35 5.2l.33.64a17.29 17.29 0 0 1 1.13 1.7l-.04-.02c.57.77 1.13 1.7 1.4 2.07l-.04-.02.64.96-.14-.15c.97 1.34 1.93 2.76 2.75 4.02v-.15c1.72 2.72 2.52 3.6 4.05 6.07l-.04-.02c2.24 2.92 3.1 4.9 5.4 7.92-.3-.38.08.2.04.17 1 1.43 2.04 2.97 2.2 2.9.7 1.06.53.9.57 1.06.06-.05.7.85 1.25 1.67l-.28-.36 1.6 2.35-.2-.54c.8 1.28.07.4.9 1.6l.1-.08c1.14 1.75 1.67 2.86 2.7 4.6l13.9 21 .1.34c-.03.2 1.33 1.7 1.4 2l.54.73c.12.23.4.7.12.33.45.7.48.7.84 1.2l.42.8c1.75 2.8 3.4 5.1 5.24 8.05 2.12 3.6 6.4 10.2 8.8 14.06 3.44 5.37 6.67 12.07 10.03 17.66.1.2.4.65.4.64l2.87 5.24 5.67 10.27c2.2 3.9 3.27 5.33-1.45-4.64l.1.12c-1.5-2.9-2.47-4.73-3.68-6.64-.02-.4-1.28-2.37-1.6-3.06l.05.06c-1.08-1.68-1.9-3.65-2.94-5.27.05.06.1.07.33.46-.7-1.2-1.68-2.86-1.64-3-1.67-2.9-3.97-6.98-5.2-8.75l.1.1c-.7-1-.82-1.36-1.56-2.5-.03-.07-.07-.16-.06-.15-.77-1.1-2.02-3.33-2.62-4.22l.02-.1-1.4-2.25.5.85c-.34-.2-.95-1.77-2.07-3.34-.94-1.54-2.26-2.9-3.2-4.52-.55-.7.54.6-.23-.5.06-.1.38.5.26.16-.74-1.08-1.06-1.87-2-3.2l.03-.1c-1.25-1.7-2.06-3.4-2.93-4.5-1.23-1.8-.6-1.34-1.95-3.16l-.4-.8c-.5-.82-.48-.5-1.03-1.44.1.02-.7-1.16-.3-.67-1.24-2.1-2.8-4.05-4.42-6.82-.48-.5-1.3-1.9-1.67-2.28 0-.1-1.77-2.7-.67-1.25.1.12.24.35.2.35l.18.14c-.9-1.6-1.9-2.73-2.86-4.24.27.46.67 1.05.37.68l-.92-1.4.24.26-1.35-2.1.13.33c-.64-1.04-.77-1.47-1.62-2.56-.4-.5.55 1.02-.18-.04l-3.3-5.22c.04.2-.27-.26-.6-.73l.03-.1c-1.3-1.78-.3-.77-1.6-2.55l-.3-.26c-1.22-1.57-.46-.98-1.86-2.7.5.72.1.43-.48-.48l.2.2c-.34-.48-.48-.63-.68-.97.23.27.2.1-.3-.62l.4.44-1.03-1.3c-.64-1.1-1.85-2.72-2.05-3.2 0 0-1.48-2.3-1.93-2.76.36.42-.46-.85-.15-.54-.46-.55-1.68-2.25-2.08-3l.1.13c-1.66-2.62-3.06-4.34-4.53-6.7 0 .15-.78-1.1-.67-.73-1.7-2.32-2.74-4.48-3.58-5.17-.73-1.08-.78-1.34-1.14-1.92l.2.25c-1.36-2.03-1.77-2.62-2.7-4.18-.5-.76-.7-.8-1.53-2.2.33.42-.03-.14-.35-.66.2.33.3.42-.1-.3-.08-.1-.18-.23-.27-.36 0-.01-.01-.04 0-.03-.55-.86-.47-.7-.24-.3-.02-.02-.01.02.05.16-.5-.94-1.47-2.55-1.45-2.7l-2.1-3.5-1.82-3.22c-.08-.28.24.22.6.87l-.86-1.58c.08-.02.53.9.8 1.38-.44-.98-1-1.93-1.55-2.95s-1.1-2.08-1.6-3.23l-.3-.44-.06-.14c-.02.02-.32-.46-.48-.8-.08-.35.16-.05-.36-1.18-.34-.93-1.2-2.52-1.73-3.7.26.65.13.46 0 .2-.24-.57-.3-.93-.53-1.37l.06-.1c.01.26-.7-1.47-.84-1.66-.07-.35.43.87.54 1-.97-2.3-.48-1.15-1.4-3.48-.54-1.22 0 .26-.3-.3-.45-1.1-.88-2.16-1.26-3.45l.06.43c-.8-2.07-1.14-3.35-1.5-4.8-1.05-3.2-1.58-5.28-1.9-6.52 3.14-.03 1.05.3 6.04.17l1-.17c5.2-.25 2.8.26 8.58-.08-2.28.02-1.08-.27 1.74-.22l-.7.12c1.56-.03 2.08-.08 3.1-.05-.93.06-.5.17 1.8.15l-1.53.15 4.33-.22c3.34.13 8.63-.03 10 .14 0 0 7.18.08 8.83-.1-1.44.12 2.52.16 1.4.3 1.86-.13 7.36-.24 9.56-.1l-.42.02 2.88.03c.06 0 .1 0 .12.06l.4.96 2 4.82 3.84 9.57c.01-.36 1.37 3.25 1.2 2.3 3 6.95 5.1 12.83 6.7 15.1 1.43 3.13 1.54 3.77 2.24 5.4l-.36-.74 5.4 11.93c1.02 2.16 1.42 2.4 3.1 6.33-.66-1.22.07.37.72 1.83-.43-.93-.6-1.2.2.75.15.26.35.67.54 1.05 0 .02.03.1 0 .06 1.1 2.43.95 2 .47.85.04.05.02-.05-.1-.42 1 2.6 3.1 7.08 3.07 7.46l8.14 18.75c.2.73-.46-.7-1.2-2.47l1.78 4.4c-.14.01-1.08-2.5-1.64-3.85 1.94 5.28 4.32 10.8 6.68 17l.62 1.23.13.37c.04-.04.68 1.3 1.07 2.2.25.9-.28.04 1 3.07.9 2.44 2.9 6.77 4.3 9.87-.7-1.7-.4-1.17-.06-.46.65 1.5.9 2.42 1.46 3.56l-.06.16c.2.17 1.85 3.96 2.12 4.45.26.9-1.1-2.3-1.34-2.64l3.94 9.04c1.5 3.17-.12-.64.68.84 1.26 2.83 2.58 5.55 3.92 8.84l-.33-1.1c2.44 5.28 3.83 8.47 5.3 12.1 9.3 19.57 10.68 21.46 9.6 18.5-1.07-2.95-4.46-10.8-4.46-10.8-6.64-15.7-10.58-23.6-18.7-42.2l-7.67-18.77-3.23-8.44c-1.18-3.12-2.55-6.64-4.34-10.92-3.33-8.2-7.16-16.8-10.68-24.7-1.85-3.66-4.62-10.35-6.76-14.7l-.66-1.76c-.74-1.5-1.58-3.27-2.2-4.83l.07.08c-1.1-2.24-2.2-4.83-2.74-5.94l.07.08-1.24-2.76.25.46-2.66-5.96c-.83-2-1.6-3.95-2.3-5.8l-.01.36c-1.5-3.94-2.6-6.6-3.66-9.17l-1.6-3.93-1.25-3.18-.2-.52c-.15-.05-.36-.02-.55-.03l-1.8-.03.1-.04c-9.63.38-15.23-.26-25.16.1 1.24-.05-.53-.07-.43-.1-4.57.04-9.46.06-9.53.35-3.33 0-2.7-.1-3.15-.2.02.12-2.88.18-5.48.18l1.2-.05-7.46.04 1.46.24c-3.95-.07-1-.3-4.8-.23l.05.2c-2.73-.02-4.9-.1-7.05-.2l-3.27-.15-1.75-.07-.93-.03-1.6-.03h-.78c-.03.01-.01.07-.02.1l-.1 2.5a49.48 49.48 0 0 0-.02 2.11 50.56 50.56 0 0 0 .2 4.25 49.93 49.93 0 0 0 1.44 8.45c.54 2.14 1.26 4.2 2.1 6.22-.01.04-.02.08-.03.13-.5 2.36-1.24 8.84-1.24 8.84l-1.98 16.53c-.66 5.18-1.34 10.68-3 18.2l-3.7 15.06c-1.04 4.24-1.96 8.6-3.78 15.33-.92 3.2-2 6.48-3.5 9.37-1.67 2.98-3.44 5.95-5.1 8.77-1.43 2.8-4.47 7.4-6.24 10.65l-.85 1.16c-.6 1.12-1.36 2.42-2.08 3.48l.01-.1c-.92 1.67-2.08 3.47-2.54 4.3v-.1l-1.2 1.98.17-.36c-1.65 2.88-3.44 5.8-5.05 8.35l.25-.14c-3.5 5.4-4.5 7.57-7.7 12.43v-.1c-.88 1.62-1.72 3.04-2.53 4.36l-.6.97c-.18.28-.48.74-.62 1.2-.32.9-.3 1.92.01 2.8.1.27.23.53.38.78-.03.06-.07.12-.1.16.1-.13.1-.06.08.01-.07.1-.16.1-.2.2l-.08-.05c.1.02-.1.3-.1.35-.1.01.05-.18.03-.23l-.4.55c-.1.23.1.02.1.16-.1.18-.18.4-.37.55h.1c-.18.36-.33.54-.56.7-.02.05-.03.1-.05.13l-.77-.6-.9 1.2-.53.74-1.05 1.48-.8 1.08.86.76c-.03 0-.05-.01-.08-.01h-.02c-.12.04-.17.08-.1.23-.14-.1-.07.06-.13.04l-.01-.01c.06.13-.17.04-.12.16-.01-.01-.05-.04-.04-.05-.01.05-.02.12-.1.06-.05.1-.18.2-.1.35v-.02c.06.1-.02.05-.01.12-.01-.01-.02-.01-.02-.01.06.1-.07.1-.05.17l-.05-.04-.04.08.03-.02c.14.12-.13-.02-.08.1-.06.03.22.33.1.32.05.08-.1-.1-.07-.03-.08-.06-.03-.05-.1-.1.01.06-.12-.01-.1.08l-.06-.05c.06.14-.16.04-.1.16 0 .1-.2-.1-.14.05l-.1-.04c-.03.01.08.1.02.1-.05-.04-.07 0-.1-.05-.13 0 .01.2-.2.2.08.1-.01.1.05.16-.04-.03-.07.08-.13-.04 0-.01 0-.02.02 0l-.05-.05c-.15-.04-.01.13-.06.17.03 0 .04-.02.07.02l-.04.04-.04-.05-.08.04.07.04c-.06.01-.17-.06-.1.04.03.05.1.03.1.08-.07.01-.2.02-.25.06.07.05.06.06.06.1l-.06-.05c.04.12-.14-.08-.13.03l.07.08c.07.14-.14-.07-.03.1.01-.03.14.1.1.1l-.05-.05c0 .02.02.05 0 .05-.02-.03-.08-.07-.1-.04l-.06-.07.07.13c-.1-.02-.05.1-.14.05 0 0-.1.04-.02.12-.04-.06-.1-.04-.15-.1.05.07.05.16-.03.13v-.01c-.13.03-.02.2-.16.22.07.05 0 .06.1.12.03.14-.28-.01-.04.23-.01.05-.1-.01-.12 0l-.01-.02c-.03.08-.04.1-.08.14.01.04.13.15.06.17-.04-.05-.04-.03-.06-.01 0-.02-.02-.03-.06-.04.01.02.02.03.02.04-.01.03.01.04.02.03.01.01.02.01.03.02-.1-.02-.06.08-.14.01-.04.1 0 .22-.02.3-.05-.03-.08-.07-.08-.1l-.02.06c-.06-.05-.01-.06-.02-.08-.15-.03.01.2-.14.18v.03c-.3-.2-.6-.33-.93-.38l.13.17c-1-.23-1.66.04-2.18.25a7.9 7.9 0 0 0-1.27.77c-.72.54-1.33 1.1-2.22 1.86v-.05c-1.75 2.33-3.27 3.37-4.54 6.08.16-.34-.15.1-.16.05-.68 1.2-1.37 2.46-1.13 2.62a.85.85 0 0 1-.09.14c-.05-.05-.1-.1-.16-.14l-.84 1.26a24.74 24.74 0 0 1-.46.62 10.57 10.57 0 0 1-.31.39c-.36.47-.82 1.1-1.1 1.95.16-.5-.16.17-.17.13-.3.93-.23 2 .1 2.7.33.72.82 1.05.92.95.52.48.6.54.7.66.06.1.02.12.04.2.07-.1.82.43 1.46.94l-.33-.2 1.87 1.44-.22-.48c.93.84.07.43 1.04 1.13l.1-.16c1.33 1.1 1.94 1.98 3.16 3.14 5.37 4.43 11.54 8.7 16.34 13.05l.13.3c-.04.25 1.58.9 1.65 1.2l.64.4c.14.16.46.48.14.28.53.45.57.43 1 .7l.5.58c2.06 1.82 4.03 3.1 6.24 4.98.63.6 1.43 1.3 2.32 2.05l.7.6a5.61 5.61 0 0 0 .95.6c.7.33 1.32.55 2.22.63l7.05-.12c2.42-.1 5 .02 7.64.17 1.3.06 2.64.18 3.94.18.64.01 1.3.05 2.08-.05a4.15 4.15 0 0 0 1.23-.34c.42-.2.83-.5 1.1-.88.3-.36.4-.73.48-1.02.08-.3.12-.6.15-.86.07-.2.05-.7.02-.7.03-.28.04-.55.05-.84v-.07l.02-.17c.01-.1.03-.22.03-.32.01-.2.02-.4.01-.6 0-.4-.07-.8-.14-1.17-.15-.77-.45-1.5-.8-2.17 0 0-.04-.1-.15-.26l-.46-.68c-.2-.3-.5-.58-.8-.93-.32-.33-.7-.65-1.1-1-1.7-1.32-4.06-2.35-5.93-2.8-.87-.22-1.6-.35-2.13-.4l-.3-.74-.52-1.22-.4-.9a39.23 39.23 0 0 0-.84-1.72c-.04-.16-.27-.52-.3-.5l-1.8-4.23s-2.2-5.1-3.75-8.2c-.35-.7-.66-1.27-.92-1.68.66-.7 1.94-2.83 1.94-2.83a60.51 60.51 0 0 0 1.6-2.69l.35-.63a3.02 3.02 0 0 0 .34-1.28h0c.06.05.13.1.2.17l.48.44c.16.14.4.32.6.44.43.26.9.45 1.4.54.98.18 2.07-.01 2.98-.66a3.33 3.33 0 0 0 .63-.56c.2-.22.3-.36.47-.54l.93-1.1 31.02-39.8.54-.45c.35-.1 2.44-3.57 2.96-3.9l1.06-1.48c.35-.37 1.06-1.2.53-.45 1.06-1.3 1.06-1.36 1.76-2.34l1.24-1.3 6.02-7.3 3.14-3.54 3.22-3.9c2.74-3.22 6.26-8.2 9.48-13.46.14-.22.27-.45.4-.67l-.28-2.75c-.76 1.15-1.73 2.6-2.65 4.2-1.97 3-3.5 6.44-5.84 9.36-.96 1.5.76-1.4-.76.8-.18-.03.67-1.05.15-.58-1.5 2.13-2.73 3.3-4.73 5.8l-.18.02c-.66.8-1.33 1.57-2 2.3l-1.94 2.13c-1.22 1.35-2.3 2.6-3.1 3.75-2.68 3.44-2.14 2.02-4.8 5.7l-1.23 1.27c-1.24 1.5-.7 1.2-2.1 2.84 0-.17-1.76 2.07-1.05 1.02-3.16 3.7-5.96 7.88-10.14 12.75-.7 1.22-2.8 3.68-3.3 4.6-.18.08-4 5.08-1.92 2.1.18-.26.52-.7.52-.63l.17-.42c-2.44 2.73-4 5.3-6.24 8.14.7-.82 1.56-1.95 1.04-1.15l-2.08 2.64.35-.6-3.12 3.9.52-.47c-1.5 1.83-2.2 2.42-3.65 4.5-.07-.1-.12-.16-.2-.27h.04c-.45-.43-.75-.67-1.17-.82.05-.18-.4-.32-.47-.45h.02c-.38-.12-.55-.56-.9-.68.02 0 .05-.04.12.01-.22-.14-.53-.33-.5-.42-.52-.36-1.2-.93-1.6-1.04h.04c-.25-.05-.25-.17-.48-.28 0-.02-.01-.04-.01-.04-.26-.07-.6-.43-.78-.5l.03-.06-.4-.3.14.12c-.16.1-.23-.32-.6-.44-.25-.22-.78-.1-1-.4-.2-.03.2-.02-.04-.12.05-.08.13.02.12-.08-.22-.1-.26-.32-.54-.45l.04-.07c-.4-.13-.53-.53-.82-.6-.36-.2-.08-.34-.5-.48l-.07-.18c-.13-.12-.18.02-.3-.14.05-.04-.17-.2-.04-.17-.3-.36-.82-.45-1.2-.95-.18.02-.37-.22-.5-.2.02-.05-.48-.37-.14-.26.03.01.07.04.05.06l.08-.03c-.2-.32-.54-.32-.8-.54.07.08.18.16.07.14l-.24-.2h.1l-.35-.3.01.1c-.16-.17-.14-.32-.42-.4-.13-.02.1.2-.1.1a8.08 8.08 0 0 0-.83-.82c-.02.1-.1.02-.2-.03l.04-.07c-.4-.17-.02-.22-.4-.4l.06-.02-.18.06c-.4-.1-.07-.24-.52-.33.14.1-.04.18-.18.03l.08-.03c-.1-.06-.15-.05-.2-.1.08.01.1-.06-.05-.15h.14l-.33-.08c-.14-.2-.5-.36-.52-.5 0 0-.38-.35-.54-.33.12.01-.1-.2.03-.2-.15-.02-.5-.2-.58-.37l.03.01c-.4-.42-.86-.5-1.22-.9-.03.08-.22-.12-.24.01-.5-.24-.65-.78-1-.62-.2-.13-.18-.24-.27-.33l.06.02c-.38-.26-.5-.34-.76-.55-.16-.08-.27.03-.5-.18.12.01.01-.06-.08-.13.06.04.1.03 0-.1-.03 0-.06-.01-.1-.02-.16-.1-.14-.07-.08-.01-.01.01-.01.02 0 .05-.1-.2-.44-.33-.4-.43-.47-.33-.87-.5-1.27-.74-.01-.08.1-.05.23.02l-.28-.2c.05-.06.18.08.28.13-.24-.35-.74-.4-1.05-.78l-.12-.01-.02-.03c-.02.03-.13 0-.2-.03-.01-.1.1-.13-.1-.26-.1-.17-.44-.3-.66-.4.1.1.04.1-.02.08-.1-.07-.1-.17-.2-.2l.05-.08c-.02.1-.3-.1-.36-.1-.01-.1.18.06.24.04l-.57-.42c-.24-.1-.02.1-.16.1-.2-.12-.4-.2-.57-.4l.01.12c-.37-.2-.56-.36-.73-.6-2.88-1.33-1.1.35-1.1.35.86.9 1.5 1.07 2.7 1.9 1 .8 1.16 1.14 2.25 1.9.5.4 1.05.77 1.56 1.13.3.08.65.5 1 .6l.06.14a.69.69 0 0 1 .32.21h-.02c.17.06.32.2.4.24l-.02.01.18.12h-.05a3.16 3.16 0 0 1 .75.53l.03-.08c.42.44.7.43 1.07.86h-.02c.7.23.77.78 1.47 1.04-.1-.03 0 .06-.02.07.28.18.56.38.67.25.2.15.12.16.1.23.04-.06.23.04.38.15l-.1-.03.44.3v-.18c.2.2-.05.18.2.32l.07-.1c.3.26.37.54.62.83 1.22 1 2.75 1.78 3.8 2.83v.1c-.06.12.44.1.4.22l.17.06c.02.05.1.13 0 .1.12.1.14.1.25.12l.1.17c.46.43.97.62 1.47 1.04.53.6 1.8 1.38 2.52 1.83 1.07.57 1.87 1.82 2.98 2.4a.19.19 0 0 0 .14.06l.88.7s.8.62 1.5 1.06l-3.48 4.28-2.05 2.56a2.01 2.01 0 0 1-1.84.75c.26.16-.55.18-1.22-.34l-.03-.18c-3.53-2.68-1.08-1.25-4.56-3.93l-.7-.36c-3.22-2.33-1.5-1.56-5.1-4.1 1.36 1.1.46.73-1.16-.67l.5.25c-.93-.74-1.27-.95-1.87-1.47.6.4.4.1-.96-1l1 .63-2.7-1.93c-1.9-1.72-5.1-4.16-5.8-4.96l-2.22-1.86-1.76-1.4c-.4-.3-.63-.64-.76-.83.24.32.08 0 .03-.33-.06-.34 0-.68.07-.42-.06-.2-.08-.55.04-.93.08-.3.53-1 .88-1.6.73-1.25 1.5-2.5 2-3.17l-.15.28c3.37-5.22 5.4-9.15 8.47-13.8-.26.14 1.35-2.33.8-1.8 2.86-5 5.82-8.77 6.42-10.85 1.34-2.25 1.74-2.58 2.47-3.73l-.3.55 5.17-8.56c.9-1.6.82-1.97 2.56-4.74-.46.96.22-.2.85-1.24-.4.68-.48.9.4-.43a14.71 14.71 0 0 1 .4-.81c.01-.01.05-.06.05-.02 1.02-1.77.8-1.48.3-.68.01-.05-.05.01-.22.25 1.2-1.74 3-5.1 3.28-5.23 1.58-2.73 2.4-5.32 3.13-7.72.7-2.42 1.28-4.73 1.88-7.22.23-.53.01.64-.32 2.1l.86-3.53c.13.06-.43 2.04-.7 3.13 1.3-4.14 1.9-8.7 3.2-13.6l.12-1.05.08-.3c-.06 0 .12-1.12.26-1.85.27-.67.25.1.8-2.33.53-1.9 1.24-5.46 1.78-8-.34 1.36-.3.9-.2.3.3-1.22.57-1.9.72-2.86l.14-.07c-.07-.2.57-3.3.58-3.73.25-.68-.27 1.93-.26 2.26.97-4.95.5-2.47 1.37-7.43.32-2.67-.23.46-.15-.83.36-2.34.58-4.64 1.05-7.32l-.26.83c.5-4.42.82-7.05 1.3-10 .6-8.45.82-13.04.83-15.2 1.27 2.96 2.74 5.82 4.22 8.62 5.38 9.9 11.4 19.17 16.8 27.88l.37.84c.03.45 3.35 4.56 3.6 5.33l1.4 1.94c.33.58 1.07 1.78.38.82 1.2 1.85 1.26 1.87 2.18 3.16l1.18 2.05c4.66 7.34 8.94 13.37 14 21l2.56 3.95 1.07 1.6 20.7 30.55c9.22 13.96 18.75 30.97 28.16 45.3a13.15 13.15 0 0 0 .65 1.02c.12.18.23.34.32.46.08.12.14.2.14.18l6.2 10 1.04 1.66c.18.28.3.53.6.9a4.09 4.09 0 0 0 .93.88s.3.25 1 .48c.34.1.8.18 1.3.16a3.6 3.6 0 0 0 .92-.17 9.96 9.96 0 0 0 .24.5c.87 1.8 1.6 2.58 2.9 4.6.8 1.4 1.08 2.06 1.7 3.13l-.5.35.35.62c.5.9 1.04 1.76 1.58 2.68.24.3.48.72.75 1.18.2-.12.46-.25.7-.38.02.02.05.03.04.05h-.01c.15-.01-.03.17.1.17-.01 0-.06.03-.06.01.04.03.1.07.02.12.08.08.1.24.28.23l-.03.01c.1-.02.04.04.1.05l-.02.02c.12-.01.08.1.13.1l-.06.03.06.07V412c.17-.08-.07.1.07.1.01.06.4-.08.34.02.1-.02-.14.04-.06.05-.08.05-.06.01-.12.06.06.02-.05.1.03.12l-.06.04c.15 0-.02.16.1.14.1.03-.17.15-.01.14l-.07.07c0 .04.12-.04.1.02-.06.03-.02.06-.1.07-.05.12.2.07.1.25.12-.04.08.04.17.01-.05.03.04.1-.1.1-.01 0-.01-.01.01-.02l-.07.03c-.1.12.12.06.13.12.01-.03 0-.04.05-.06l.02.05-.06.02v.1l.06-.05c-.02.05-.12.13-.01.12.06-.01.07-.08.1-.06-.02.07-.05.18-.04.25.07-.05.08-.03.1-.02l-.06.04c.13.01-.13.1-.02.13l.1-.04c.16-.01-.12.1.1.07-.02-.02.14-.1.13-.04l-.07.03c.02.01.05 0 .05.02-.04.01-.1.05-.07.06l-.1.03.14-.02c-.05.07.07.1-.01.15 0 0 0 .1.1.07-.07.02-.07.07-.15.1.08-.02.17.01.1.08h-.01c-.03.13.2.1.14.23.07-.05.06.02.15-.04.14.03-.1.26.2.13.04.03-.05.08-.05.1h-.02c.06.06.08.08.1.13.04.01.2-.06.18 0-.06.02-.04.03-.03.05-.01-.01-.04 0-.06.04.02-.01.03-.01.04-.01h-.01c.04.02.05 0 .05-.01.01 0 .02-.01.03-.02-.04.05-.01.07 0 .1-.44.05-.88.22-1.24.54-.52.45-.9 1.24-.84 2.08l-.04-.05c.06.34.13.46.18.65l.17.52.3.96.56 1.76c.38 1.15.8 2.3 1.67 3.6-.2-.32.01.18-.04.17.35.63.7 1.25 1.04 1.75.34.48.63.76.76.7.6.86.42.74.4.92.1-.07.58.5 1 1.06-.01 0-.02.01-.02.01l-.1-.1.08.1a3.27 3.27 0 0 1-.33.14l.86 1.48.2.37.14.3.2.42c.25.57.46 1.18.82 1.85.08.16.22.36.27.44.13.22.3.4.47.57a2.49 2.49 0 0 0 1.27.6 2.93 2.93 0 0 0 1.32-.05c.1-.03.24-.07.34-.12l.66-.3c2.33-1 4.62-1.94 6.83-2.73h.33c.2.15 1.58-1 1.9-.92l.68-.4c.22-.05.66-.2.32 0 .67-.27.67-.3 1.12-.57l.77-.18c2.66-1 4.8-2.17 7.57-3.28 3.42-1.14 9.56-3.98 13.1-5.6 4.92-2.4 11.15-4.08 16.17-6.58a1.94 1.94 0 0 0 .58-.31l4.75-1.95 3.3-1.4 3-1.3 1.5-.68a3.56 3.56 0 0 0 .84-.51 4.61 4.61 0 0 0 .64-.7c.68-1.02.68-2.13.47-2.74-.16-.66-.42-.83-.45-.63zm-207.66-19.5c-.02-.02-.04-.05-.05-.07.28-.3.53-.58.05.07zM143.1 379c.02 0 .03 0 .07-.05l.2-.23c.12-.14.2-.22.07.05-.02.05-.08.12-.1.1l.02.1c.47-.4.6-.9.96-1.36-.12.12-.26.3-.2.16l.34-.43-.02.13.52-.62-.13.04c.07-.07.13-.13.2-.18.04-.03.05-.01.07-.01.03 0 .03 0 .04-.1.02-.13-.1-.04-.03-.18l.02-.01.1.13.04.06.01.01c-.02.23.08.26.22.2a15.65 15.65 0 0 0 .64.55c0-.1.14.01.3.1l-.03.07c.63.35.1.3.73.66h.16c.6.27.18.33.87.6-.23-.16-.01-.2.25.03h-.1c.16.1.23.12.32.2-.1-.04-.1.05.12.2l-.2-.04.5.22c.28.3.86.63.94.82 0 0 .68.58.9.6-.18-.05.2.27.03.24a3.12 3.12 0 0 1 .98.67l-.05-.02c.75.68 1.44.95 2.1 1.58.02-.1.37.23.34.07.8.48 1.22 1.2 1.7 1.15.35.24.35.37.52.52l-.1-.05a20.95 20.95 0 0 1 1.3.97c.26.15.4.05.8.4-.17-.05 0 .07.16.2-.1-.07-.15-.07.03.12.04.01.1.03.14.06.28.2.24.15.13.05.01 0 .01-.02-.02-.06.22.27.76.58.73.7.8.58 1.44.93 2.12 1.4.04.1-.14.02-.35-.1l.48.34c-.05.06-.3-.17-.45-.26.48.53 1.22.77 1.8 1.36l.17.05.03.04c.02-.03.2.05.3.1.05.13-.1.12.22.37.2.25.75.53 1.1.75-.17-.15-.1-.13 0-.1.16.12.2.25.36.32l-.04.1c-.01-.12.48.25.56.26.05.13-.3-.14-.36-.13a6.37 6.37 0 0 1 .29.22l-.48.37c-.56.5-1.1 1.04-1.68 1.63l-.76.74-1.24-1.27.06.01c-.82-.68-1.35-1.1-2.02-1.4.01-.2-.7-.53-.86-.73h.03c-.6-.28-1-.9-1.58-1.16.03 0 .07-.03.18.06-.38-.25-.9-.6-.87-.7-.9-.63-2.07-1.58-2.72-1.87l.05.01c-.38-.15-.42-.3-.8-.52-.01-.03-.03-.05-.02-.05-.4-.18-1.02-.75-1.32-.92l.02-.07-.7-.5.25.2c-.2.08-.45-.5-1.02-.77-.45-.37-1.17-.42-1.6-.86-.28-.1.3.04-.1-.17.05-.08.2.08.16-.05-.36-.22-.5-.5-.95-.77l.03-.07c-.62-.3-.96-.87-1.4-1.04-.6-.4-.23-.47-.9-.8l-.16-.26c-.24-.2-.25-.04-.5-.3.06-.04-.3-.3-.1-.23-.27-.28-.6-.5-.96-.75-.3-.2-.87-.66-.76-.68-.23-.02-.02-.15-.08-.23zm21.63 16.64c-.25.23-.3.22-.25.14.08-.05.16-.1.25-.14zm-24.5-10.9c.08-.08.12-.2.18-.3-.07-.12.1-.1.04-.23l.07.03c-.02-.04-.02-.07.02-.07h.02c-.02-.06.02-.07.01-.1l.02.01.02-.04v.02c-.01-.08.02-.12.07-.15l-.07-.05c.14-.02.03-.16.18-.17h0c-.1-.24.24-.05.15-.28.01.03.04.02.05.04.02-.06.04-.12-.1-.22.03-.03.06.01.12.04-.06-.05-.06-.1-.04-.12v.03l.04-.1-.12-.07c.06-.01.14.1.15.04l-.1-.07c.06-.04.22.04.33.04.2-.18.16-.6.5-.67l.08.05c.1.08-.1-.17-.01-.1l-.03-.06c.02.01.05.01.07.04.02-.02.01-.03-.01-.07l.08.03c.12-.05.05-.2.15-.28.2 0 .26-.3.28-.47-.02-.28.53-.15.5-.46.02.01 0-.03-.01-.04l.14-.14s.07-.08.12-.2l.73.65.03.14c-.04.13.67.3.67.44l.27.14c.05.07.17.2.04.13.2.17.23.16.4.25l.18.24c.8.7 1.63 1.15 2.5 1.87.98.96 3.1 2.4 4.34 3.22 1.77 1.1 3.4 2.96 5.23 4.05a.44.44 0 0 0 .22.12l1.55 1.17s1.9 1.4 3.16 2.16a.3.3 0 0 0 .08.04l-.66.65-.77.76-.36.36c-.03.02-.04.02-.06.03l-.08-.01h-.23c-.25.01-.5.02-.74.01-.5 0-1-.03-1.54-.06-1.08-.1-2.3-.2-3.87-.6-2.35-.6-4.76-1.67-6.72-3.04-.26-.12-.57-.27-.86-.5l-.9-.76c-.64-.5-1.2-1.13-1.74-1.57l-.28-.46a4.03 4.03 0 0 1-1-1.1h.05c-.5-.5-.95-1.16-1.2-1.4h.05c-.17-.23-.32-.47-.48-.7l.12.1a31.76 31.76 0 0 1-1.06-1.52l-.25-.38c-.03-.05-.06-.1-.1-.14.1-.06.22-.06.3-.24zm47.18 46.3c.01.44-.05.93-.15 1.36-.1.42-.26.87-.35.95a1.92 1.92 0 0 1-.53.43c.03-.04.04-.1.2-.22-.47.4-2.23.4-2.28.23-2.8.07-6.66-.1-8.44.15l.12-.04c-1 .17-1.3.01-2.45.08-.06-.02-.14-.04-.13-.04-1.1.16-3.23-.02-4.12.05l-.06-.1H167l.82.04c-.14.15-.56.1-1.14.03l-.98-.1-.27-.01c-.03 0-.1-.01-.18-.02-.16-.02-.32-.04-.5-.07-.63-.2-1.28-.34-1.9-.7-.7-.37-1.37-.76-1.92-1.3-.66-.36.65.23-.27-.38.07-.15.46.25.33-.03-.9-.63-1.28-1.26-2.38-2.02l.04-.13c-1.5-.93-2.45-2.22-3.5-2.8-1.46-1.06-.7-1.05-2.3-2.06l-.46-.6c-.6-.53-.58-.2-1.2-.83.1-.05-.82-.78-.35-.53-1.46-1.4-3.3-2.42-5.22-4.3-.58-.2-1.55-1.13-1.98-1.28 0-.1-2.08-1.7-.8-.9.1.07.3.2.25.23l.22.02c-1.04-1.13-2.23-1.63-3.38-2.6.32.3.8.67.43.5l-1.08-.9.3.1-1.58-1.35.14.28c-.75-.7-.9-1.08-1.9-1.66-.47-.25.65.74-.22.1-1-.92-2.5-2.3-3.85-3.4.04.2-.32-.08-.72-.36l.03-.13c-1.54-1.02-.36-.64-1.87-1.67l-.36-.06c-1.44-.84-.54-.76-2.17-1.64.58.44.1.43-.56-.17l.25.05c-.4-.28-.58-.36-.78-.57.26.1.12-.1-.15-.36.1.05.2.06.3.1-.25-.1-.44-.27-.6-.53-.05-.34-.07-.8.06-1.2.06-.2.15-.36.27-.56.1-.15.2-.27.3-.32l.58-.74a2.8 2.8 0 0 1 .16-.2l.05-.08c.03-.06.05-.13.07-.2.01-.04.03-.02.04-.05-.06.1.14.32.05.42.01-.03.04-.05.08-.05h.03l.17.12.36.26c.48.36.95.75 1.17 1.02l-.1-.07c1.9 1.73 3.55 2.62 5.24 4.2.01-.1.3.1.52.27l2.67 2.05c.47.42.88.76 1.26.96l1.6 1.22c.07.08.15.17.25.26l-.22-.14 3.25 2.58a3.33 3.33 0 0 0 .6.33l1.53 1.23c0 .03.1.13.3.36a1.84 1.84 0 0 1 .33.18c0 .01.02.03 0 .03a3.53 3.53 0 0 0 .33.23l1.1.95.12.28c-.04.2 1.07.63 1.43.93.01.01.02.02.04.03.05.04.08.08.08.12l.33.2a8.11 8.11 0 0 0 .36.26l.04.03c.13.14.24.27.01.13.5.4.54.4.93.62l.02.02.45.52a37.68 37.68 0 0 0 1.83 1.46c1.2 1.07 2.72 1.9 4.05 3.2l.23.1.24.2.85.74c.07.1.2.23.5.45.4.43 1.18.98 1.9 1.48.08.06.16.13.25.2l1.1.83.32.26-.03.07c-.01-.05.04-.04.12 0l.54.44c-.07-.04-.13-.08-.16-.08l2.66 2.13c.1.08.2.13.26.18l.56.45 20.8.86zm-11.33-8.86l1.4-1.08a19.58 19.58 0 0 0 1.03.48c1 .46 2.5 1.1 4.32 2.33l-.12-.02c2.2 1.36 3.27 2.5 4.24 3.88-.06.18.13.63.3 1.13.07.2.12.42.15.62l-19.48-.9 7.06-5.62 1.1-.8zm-6.9-31.48l.16.16c-.1 0-.17-.01-.26 0 .04-.06.07-.1.1-.16zm1.47 2.2a1.71 1.71 0 0 0-.21-.26c.2.07.38.17.55.27.52.3.62.9.48 1.34-.16.4-.5.83-.76 1.23-1.32 3.03-1.95 4.7-2.16 5.5-.53-.64-.46.4.9 4.8-.05.02-.1.07-.1.15-.07-.16-.13.03-.18-.02v-.01c-.04.16-.22-.04-.27.1 0-.01-.02-.06 0-.07-.06.04-.13.1-.17.02-.14.08-.36.1-.4.3v-.03c-.02.12-.07.04-.1.1-.01-.01-.01-.02-.02-.02-.02.12-.17.08-.2.14l-.03-.06-.1.06h.05c.05.18-.13-.08-.17.06-.1.01-.04.42-.15.36-.01.1-.01-.14-.05-.06-.03-.1.01-.07-.03-.13-.04.06-.13-.06-.18.03l-.03-.07c-.05.16-.2-.03-.23.1-.08.1-.14-.2-.2-.01l-.07-.08c-.05 0 .01.13-.05.1-.02-.06-.08-.03-.07-.1-.14-.06-.17.2-.37.1.01.13-.1.08-.08.18-.02-.05-.15.04-.1-.1 0-.01.02-.01.02.01v-.07c-.13-.1-.12.12-.2.13.03.01.06 0 .06.05l-.08.02v-.06h-.12l.04.07c-.07-.02-.13-.13-.15-.01-.01.07.1.08.04.12-.1-.02-.22-.06-.33-.05.04.08.01.08-.01.1l-.03-.07c-.06.13-.1-.14-.16-.03l.02.1c-.04.17-.1-.13-.13.1.03-.03.07.15.01.14l-.01-.07c-.02.02-.02.06-.04.05 0-.04-.03-.1-.06-.08v-.1l-.03.15c-.08-.05-.14.07-.2-.02 0 0-.14 0-.13.1 0-.07-.07-.08-.08-.16-.01.08-.08.18-.14.1v-.01c-.17-.03-.2.2-.36.14.03.08-.05.06.01.16-.1.15-.3-.13-.24.2-.05.04-.1-.05-.13-.06l.01-.02c-.1.06-.13.08-.2.1-.03.05.02.2-.07.2 0-.07-.02-.05-.05-.04.01-.02.01-.04-.04-.07 0 .02 0 .03-.01.05-.05.03-.03.04-.01.04 0 .01.01.02.02.03-.07-.06-.13.05-.17-.05-.13.07-.2.2-.3.3-.03-.05-.02-.1 0-.14l-.07.05c-.03-.08.03-.06.05-.08-.14-.1-.15.2-.3.12v.07h-.01c.01.03 0 .08-.01.1-.04-.06-.05-.15-.1-.13-.07-.05-.1.08-.16.13.03 0 .04.04.03.07-.03.01-.07-.05-.08-.01l-.03-.1c.04.08-.04.12-.04.16-.04-.06.02-.07.01-.12-.1.05-.05.02-.16.07-.04.1.04.08.04.17-.05.04-.08.12-.15.08l.05.07c-.08.1-.14.1-.23.05-.5.9.15.94.15.94.35.07.42-.2.74-.4.32-.07.45.06.74-.1.15-.04.3-.13.44-.2.03-.14.2-.07.24-.2l.06.06c.02-.04.04-.08.08-.05h.01c.02-.07.08-.05.1-.1v.02l.05-.03v.03c.05-.08.13-.1.2-.1l-.03-.08c.18.04.17-.15.34-.08h.01c.1-.27.3.06.4-.2-.01.03.02.04.03.06.07-.05.15-.1.1-.25.06-.02.06.03.1.1-.03-.07.01-.12.06-.14l-.01.03.12-.07-.07-.12c.08.01.07.16.13.1l-.04-.1c.1-.01.2.14.33.2.4-.08.7-.5 1.1-.43l.04.08c.05.12.03-.2.1-.1l.02-.07c.02.02.05.03.04.07.04-.01.03-.03.05-.07l.07.06c.17.01.24-.18.4-.2.24.1.54-.18.7-.33.22-.28.72.1.94-.22.02.01.03-.03.02-.05l.27-.08s.04-.01.1-.03a1.68 1.68 0 0 1 .07.24l-.1-.1c.63 1.66 1.12 2.87 1.67 3.97-.07.01-.17-.06-.2.04 0-.01-.02-.06 0-.07-.06.04-.13.1-.17.02-.14.08-.36.1-.4.3v-.03c-.02.12-.07.04-.1.1-.01-.01-.01-.02-.02-.02-.02.12-.17.08-.2.14l-.03-.06-.1.06h.05c.05.18-.13-.08-.17.06-.1.01-.04.42-.15.36-.01.1-.01-.14-.05-.06-.03-.1.01-.07-.03-.13-.04.06-.13-.06-.18.03l-.03-.07c-.05.16-.2-.03-.23.1-.08.1-.14-.2-.2-.01l-.07-.08c-.05 0 .01.13-.05.1-.02-.06-.08-.03-.07-.1-.14-.06-.17.2-.37.1.01.13-.1.08-.08.18-.02-.05-.15.04-.1-.1 0-.01.02-.01.02.01l-.01-.07c-.13-.1-.12.12-.2.13.03.01.06 0 .06.05h-.08v-.06h-.12l.04.07c-.07-.02-.13-.13-.15-.01-.01.07.1.08.04.12-.1-.02-.22-.06-.33-.05.04.08.01.08-.01.1l-.03-.07c-.06.13-.1-.14-.16-.03l.02.1c-.04.17-.1-.13-.13.1.03-.03.07.15.01.14l-.01-.07c-.02.02-.02.06-.04.05 0-.04-.03-.1-.06-.08v-.1l-.03.15c-.08-.05-.14.07-.2-.02 0 0-.14 0-.13.1 0-.07-.07-.08-.08-.16-.01.08-.08.18-.14.1v-.01c-.17-.03-.2.2-.36.14.03.08-.05.06.01.16-.1.15-.3-.13-.24.2-.05.04-.1-.05-.13-.06l.01-.02c-.1.06-.13.08-.2.1-.03.05.02.2-.07.2 0-.07-.02-.05-.05-.04.01-.02.01-.04-.04-.07 0 .02 0 .03-.01.05-.05.03-.03.04-.01.04 0 .01.01.02.02.03-.07-.06-.13.05-.17-.05-.13.07-.2.2-.3.3-.03-.05-.02-.1 0-.14l-.07.05c-.03-.08.03-.06.05-.08-.14-.1-.15.2-.3.12v.07h-.01c.01.03 0 .08-.01.1-.04-.06-.05-.15-.1-.13-.07-.05-.1.08-.16.13.03 0 .04.04.03.07-.03.01-.07-.05-.08-.01l-.03-.1c.04.08-.04.12-.04.16-.04-.06.02-.07.01-.12-.1.05-.05.02-.16.07-.04.1.04.08.04.17-.05.04-.08.12-.15.08l.05.07c-.08.1-.14.1-.23.05-.5.9.15.94.15.94.35.07.42-.2.74-.4.32-.07.45.06.74-.1.15-.04.3-.13.44-.2.03-.14.2-.07.24-.2l.06.06c.02-.04.04-.08.08-.05l.01.02c.02-.07.08-.05.1-.1v.02l.05-.03v.03c.05-.08.13-.1.2-.1l-.03-.08c.18.04.17-.15.34-.08l.01.02c.1-.27.3.06.4-.2-.01.03.02.04.03.06.07-.05.15-.1.1-.25.06-.02.06.03.1.1-.03-.07.01-.12.06-.14l-.01.03.12-.07-.07-.12c.08.01.07.16.13.1l-.04-.1c.1-.01.2.14.33.2.4-.08.7-.5 1.1-.43l.04.08c.05.12.03-.2.1-.1l.02-.07c.02.02.05.03.04.07.04-.01.03-.03.05-.07l.07.06c.17.01.24-.18.4-.2.24.1.54-.18.7-.33.22-.28.72.1.94-.22.02.01.03-.03.02-.05l.17-.05c.08.14.16.3.25.43-.15.37.8 1.9.95 2.5l-.04-.04c.8 1.32 1.1 2.98 1.86 4.26-.04-.04-.13-.04-.27-.35l.65 1.4c.06.13.1.27-.06.23-.08.07-.16.14-.25.2l-.83.67-1.7 1.38c-1.1.9-2.1 1.77-2.66 2.4l.06-.1c-.62.73-.93.78-1.7 1.5-.06.02-.12.06-.12.04-.23.26-.57.57-.94.87-.14.1-.28.23-.43.34a5.72 5.72 0 0 1-.3.22c-.18-.15-.32-.26-.46-.33l.03-.12-1.6-1.25.58.5c-.4.08-1.1-1.1-2.37-1.87-.4-.32-.84-.58-1.3-.82l-3.1-2.52c-.4-.36-.77-.75-1.4-1.17l.04-.13c-1.4-.83-2.3-2.03-3.27-2.53-1.37-.96-.65-1-2.16-1.88l-.43-.55c-.57-.48-.55-.17-1.14-.75.1-.05-.76-.7-.32-.5-.54-.5-1.15-.96-1.8-1.43-.38-.36-.76-.7-1.14-1-.45-.26-.97-.66-1.52-1.1-.14-.13-.28-.25-.4-.4-.04-.01-.1-.04-.14-.06-.7-.56-1.4-1.14-2.02-1.53l-.16-.2.2.01c-.74-.82-1.58-1.26-2.42-1.84l-.93-.72.05-.01-.76-.6.16.07a14.84 14.84 0 0 1-.64-.46l-.4-.34.03.06-.43-.33c-.32-.35-.58-.64-1.22-.98l-.53-.45-.01.18a29.66 29.66 0 0 0-1.52-1.3l-1.73-1.5c.02.1-.1.08-.24-.02a6.72 6.72 0 0 1-.42-.36l.02-.07c-.2-.12-.34-.22-.45-.3l-.34-.3.05-.01-.1-.06c-.1-.2-.07-.3-.9-.86l-.34-.05c-.1-.05-.15-.1-.23-.14-.1-.07-.2-.14-.28-.22l-.4-.33c-.01-.02-.03-.03-.04-.05-.2-.2-.15-.2-.3-.25l-.24-.2a.36.36 0 0 1 .08-.18c0 .06.04.08.08.07.02.04.14-.13.3-.43l-.1.46.43-1.2c.6-.78 1.25-2.16 1.62-2.4l.62-.9c.32-.48.67-1 .73-1.24-.15.4.55-.46.47-.13.2-.48 1.15-1.75 1.68-2.08l-.07.1c.83-.78 1.5-1.46 2.2-2 .34-.28.7-.5 1.04-.67.34-.15.68-.2.8-.1.01-.08.08-.07.15-.07.06.04.16.05.17-.04.17.05.5.66.75 1.07l.7 1.23c.4.77.88 1.26 1.34 1.43.66.8.64 1.06.97 1.48-.06-.05-.13-.1-.2-.17 1.4 1.38 1.72 1.84 2.85 2.76a4.95 4.95 0 0 0 .76.42c.25.14.55.32 1.07.7-.4-.15.04.13.44.4-.26-.16-.37-.18.12.24.1.02.22.1.33.14 0 .01.02.03 0 .03.7.42.6.3.3.1.02 0 .01-.04-.07-.13.64.55 2.04 1.13 2.05 1.34 2.24 1 3.98 1.3 5.96 1.6.2.12-.27.15-.86.06.47.1.95.14 1.42.22-.03.13-.83-.05-1.27-.1 1.67.54 3.52.3 5.53.38l.4-.14h.15c-.01-.05.35-.14.7-.23.06-.07.1-.14.16-.2.16-.1.2-.04.32-.1.15-.1.25-.14.58-.5.6-.47 1.43-1.58 2.08-2.32.3-.17.56-.33.56-.33a16.93 16.93 0 0 0 1.4-.94l2.03-1.56a4.85 4.85 0 0 1-.28-.2c.64-.23 1.43-.24 2.14.26zm-2.26-2.9l-.01.01-.06-.08.07.07zm-18.2-14.26a117.35 117.35 0 0 0 4.06 3.2c-.76-.57.27.32.18.3 2.72 2.2 5.62 4.54 5.84 4.36 1.96 1.62 1.54 1.4 1.73 1.68.07-.1 1.8 1.26 3.35 2.52l-.74-.54 3.63 2.95a20.69 20.69 0 0 0-.69 1.02c-.05.02-.1.03-.15.05-.17.07-.32.18-.5.26l-1.07-.76c-1.73-1.37-2.1-1.86-3.96-3.2-.86-.67-1.8-1.35-2.67-1.98-.48-.2-1.12-.85-1.66-1.13l-.14-.2c-.2-.1-.4-.22-.54-.38h.02c-.28-.14-.54-.38-.67-.45l.02-.01-.3-.22.07.02c-.46-.28-.9-.6-1.28-.93v.1c-.77-.7-1.2-.8-1.87-1.46l.02-.01c-1.1-.54-1.4-1.27-2.5-1.84.14.07-.03-.08 0-.08-.47-.32-.95-.68-1.06-.55-.33-.25-.23-.25-.24-.33-.04.06-.35-.13-.6-.32l.14.07-.75-.54.06.22c-.36-.33.01-.2-.4-.47l-.07.1c-.46-.37-.68-.72-1.04-1.1.6-.68.8-1.28 1.47-2.28a1.06 1.06 0 0 1 .1.12l.44.4c.6.46 1.17.95 1.78 1.46zm188.35 47.13c-.28.1-.36.1.15-.2.1-.06.3-.15.3-.1-.22.12-.37.23-.46.32zm33.23-25.33c.83.1 2.35-.04 3.45-.01-.58-.06-.4-.1-.13-.14.53.04.82.2 1.23.18l.03.16c-.2-.18 1.4.02 1.6-.01.28.16-.83-.02-.97.06 2.1.3 1.05.12 3.13.5 1.13.12-.17-.2.4-.2.98.2 1.97.3 3.04.74l-.3-.24c1.84.44 2.9.88 3.96 1.58.63.3 1.2.57 1.63.94.34.23.55.54.72.85l-.2-.3-16.8 7.07-.2-1.17-.26-1.92-.43-3.95-.2-2-.12-1-.15-1.14-.04-.25c.16.13.13.24.64.23zm-29.33-1.3c0 .01.01.02.01.03-.01.01-.02.02-.05.03-.01-.01-.02-.01-.03-.01.03-.02.05-.04.07-.05zm-29.2 8.57l-.01-.05c-.03.02-.16-.1-.23-.2 0-.13.14-.08-.06-.4-.1-.3-.47-.72-.7-1.05.1.2.03.15-.04.08-.1-.16-.1-.3-.2-.4l.07-.06c-.04.1-.34-.38-.4-.42 0-.13.2.23.28.24l-.6-1c-.27-.32-.04.1-.2-.02-.2-.3-.44-.57-.6-.96v.16c-.4-.55-.6-.9-.77-1.35-.4-.5-.73-.9-.98-1.18.03-.02.07-.03.1-.05l7-3.5 17.7-8.97 1.22-.64a25.68 25.68 0 0 0 .65 1.62l-.05-.02c.48.9.8 1.43 1.3 1.95-.1.2.43.7.5.94v-.01c.44.45.58 1.13 1 1.57-.02-.01-.07 0-.15-.1.25.35.6.83.53.9.1.18.24.37.37.57-.18.02-.38.05-.64.1v-.03c-.46.18-.73.32-.95.6-.13-.12-.36.18-.48.2v-.02c-.2.26-.58.2-.77.45 0-.02-.02-.06.04-.1-.17.12-.4.3-.46.22-.42.27-1.04.57-1.24.87v-.04c-.1.18-.2.13-.34.28-.02-.01-.03 0-.03-.01-.12.2-.5.3-.6.42l-.04-.05-.33.2.13-.06c.05.18-.32.05-.5.3-.24.1-.28.6-.57.66-.07.14.03-.18-.1-.02-.05-.08.05-.1-.03-.14-.15.14-.32.07-.5.25l-.05-.06c-.2.27-.56.2-.68.42-.25.2-.3-.1-.52.2h-.16c-.13.06-.03.16-.2.2-.02-.06-.2.06-.15-.04-.36.1-.57.48-1.06.57-.03.16-.27.2-.3.33-.04-.04-.42.23-.24-.01.02-.02.05-.04.06-.02v-.08c-.3.01-.4.3-.63.42.08-.02.17-.08.13 0l-.22.1.01-.08-.34.15.08.04c-.18.06-.3-.03-.42.17-.05.1.2 0 .05.12a7.83 7.83 0 0 0-.87.32c.07.06-.01.1-.07.16l-.05-.06c-.23.25-.2-.08-.43.15v.12c-.18.27-.2-.06-.4.28.1-.07.13.1-.02.16V400c-.07.06-.08.1-.14.1.03-.06-.03-.1-.13-.03l.03-.12-.15.24c-.2.03-.4.26-.53.2 0 0-.38.16-.4.3.04-.1-.17-.01-.16-.1-.05.12-.3.33-.44.32v-.02c-.44.15-.63.5-1.04.6.06.07-.15.13-.05.2-.32.3-.8.2-.75.56-.16.1-.24.04-.34.08l.03-.04c-.3.2-.4.26-.63.4-.1.1-.04.24-.27.33.04-.1-.04-.03-.12.01.05-.04.05-.07-.07-.04 0 .03-.02.05-.04.07-.13.08-.1.1-.03.06 0 .01.01.02.04.02-.18.01-.38.22-.45.14-.38.25-.6.5-.92.73-.06-.03-.01-.1.07-.2l-.22.15c-.04-.07.1-.12.17-.17-.34.04-.5.44-.9.52l-.04.1h-.02c.02.03-.03.1-.08.15-.08-.03-.08-.14-.24-.05-.16.01-.34.24-.5.36.1-.04.1.01.06.05-.08.05-.16.01-.2.07l-.05-.08c.08.06-.16.2-.17.25-.08-.03.1-.12.1-.18l-.48.3c-.14.16.08.06.03.18-.14.1-.26.24-.46.3l.1.04c-.25.22-.43.3-.66.34a8.92 8.92 0 0 0-.49.54l-.03-.07c-.26-.57-.78-1.03-1.06-1.7l-.18-.1zm1.14 1.85l-.2-.3c.06-.03.15.14.23.28l.04.07c-.01.01-.02.02-.03.04l-.04-.1zm.04.08c-.03.03-.04.06-.07.1l-.08-.12-.07-.1c0-.07.06-.03.15.06l.07.07zm2.1 2.63l.08-.06-.72.43a2.42 2.42 0 0 1-.23.12c-.02.01-.03.03-.05.05-.05.01-.15.07-.25-.17.05.02.05 0 .04-.02-.01-.01-.01-.03-.02-.05-.02-.04-.05-.08-.07-.12.07.1.1.12.02-.12a.47.47 0 0 1-.1-.1c-.17-.27-.16-.2-.1-.08-.01 0-.02.02-.01.06-.1-.32-.46-.8-.38-.87a15.73 15.73 0 0 0-.76-1.13l.2-.18c-.02.06-.03.1-.02.14l-.07.07.07-.05.03.03-.02.02c.01 0 .02-.01.02-.01.16.14.76-.1.76-.1.93-.32 1.24-.77 2.2-1.4.9-.46 1.2-.45 2.1-1.03.44-.23.88-.53 1.3-.8.14-.22.56-.32.74-.55l.13.01c.06-.08.15-.15.25-.17l.01.02c.1-.12.25-.17.3-.23h.01l.14-.1v.04a2.25 2.25 0 0 1 .61-.39l-.06-.07c.46-.15.53-.4.96-.5h.01c.36-.47.83-.3 1.2-.76-.05.06.05.02.05.05.2-.15.45-.3.36-.45.16-.1.16-.03.2.02-.04-.06.1-.17.2-.25l-.04.06.35-.23-.14-.08c.2-.08.13.12.3-.01l-.06-.1c.28-.13.53-.07.83-.14 1.1-.57 2.12-1.5 3.23-1.88l.1.05c.08.1.18-.32.28-.24l.1-.12c.04 0 .13-.02.08.04.1-.06.1-.08.16-.16h.16c.46-.2.74-.53 1.2-.76.62-.16 1.56-.87 2.1-1.28.73-.63 1.94-.73 2.67-1.4.04 0 .1-.08.08-.1l.78-.42s.88-.5 1.4-.92l.14.22.5-.45c.02-.02.05-.04.07-.06.17.24.32.45.46.6l-.05-.02c.3.27.26.4.53.74 0 .03.01.06 0 .05.15.15.3.4.46.65l.2.34a.5.5 0 0 0 .1.14l-.07.02.12.18-.14.08.14-.06c.1.05-.03.1-.16.12-.07.02-.13.03-.2.05-.1.05-.24.13-.36.23-.5.25-.8.88-1.35 1.08-.2.2.14-.24-.18.02-.06-.08.14-.15.01-.16-.33.24-.63.24-1.03.53l-.05-.06c-.5.43-1.12.5-1.43.83-.56.38-.5.02-1.04.5l-.3.04c-.27.13-.13.2-.44.33-.01-.07-.4.16-.25.01-.7.28-1.26.86-2.2 1.2-.13.2-.6.4-.7.55-.05-.03-.87.48-.44.1.04-.03.1-.07.12-.05l.02-.1c-.56.15-.86.56-1.35.8.16-.06.34-.17.24-.06l-.46.24.06-.1-.7.34.13.02c-.35.15-.53.1-.85.4-.14.15.36-.08.03.13-.47.2-1.16.5-1.74.8.1.05-.06.13-.2.23l-.05-.06c-.55.42-.3-.02-.85.38l-.05.15c-.46.43-.36.02-.86.53.23-.14.2.08-.1.2l.04-.1c-.15.1-.2.16-.3.2.08-.1 0-.12-.23.02l.1-.17-.38.36c-.38.12-.88.5-1.07.5 0 0-.76.37-.88.56.1-.14-.3.06-.23-.08-.15.17-.7.54-.95.6l.04-.03c-.88.4-1.37.9-2.17 1.22.08.06-.34.24-.2.28-.72.53-1.52.6-1.64 1.04-.35.27-.46.22-.65.3zm1.6 3.94h.03l-.07-.07-.12.08c.01-.06.15-.1.1-.12l-.1.06c-.01-.07.12-.2.17-.3-.1-.27-.5-.38-.44-.7l.07-.05c.1-.07-.2.03-.1-.04h-.07c.02-.02.03-.05.06-.05-.01-.03-.03-.02-.07-.02l.06-.06c0-.13-.18-.13-.2-.25.08-.2-.18-.35-.33-.44-.27-.1.06-.55-.23-.64.01-.01-.03-.01-.04 0l-.07-.15.17-.03a1.6 1.6 0 0 1 .53-.32v.02c.23-.2.53-.32.65-.42v.02l.3-.18-.04.06c.42-.3.88-.56 1.3-.76l-.08-.06c.9-.4 1.14-.73 1.98-1.07v.02c.88-.75 1.64-.73 2.55-1.5-.1.1.08.01.08.03.46-.28.95-.57.88-.73.34-.2.3-.1.38-.08-.04-.06.24-.26.5-.4l-.1.1.75-.45-.22-.04c.43-.2.2.1.56-.15l-.06-.1c.57-.3 1-.32 1.57-.55 2.28-1.2 4.57-2.82 6.77-3.8l.14.03c.1.1.5-.5.63-.43l.22-.2c.08-.02.24-.08.13.02.23-.12.22-.14.37-.27l.28-.06c.92-.44 1.6-1 2.56-1.5.4-.16.9-.42 1.43-.7.16-.1.34-.2.5-.3.07.04.15.07.22.14.08.2-.03.35.15.5.05.1.14.18.2.26.13-.02.07.12.2.1l-.05.06c.04 0 .08.01.05.04l-.02.01c.06 0 .05.04.08.04l-.02.01.03.03-.03.01c.08.02.1.06.1.12l.07-.05c-.03.14.15.08.1.22l-.02.01c.26-.02-.04.24.2.23-.03 0-.03.03-.05.04.05.04.1.08.24-.01.02.04-.03.06-.08.1.06-.04.1-.02.13 0h-.03l.07.07.1-.1c-.01.06-.14.1-.1.12l.1-.06c.02.07-.12.2-.16.3.1.26.5.35.46.68l-.07.06c-.1.07.2-.04.1.03l.07-.01c-.02.02-.03.05-.06.05.01.03.03.02.07.01l-.05.07c0 .12.18.12.2.24-.07.2.2.34.34.42.1.03.12.13.12.23l-.4.6c-.3.48-.64.94-1 1.44-.72.98-1.55 2.08-2.77 3.45-1.75 1.9-3.87 3.65-6 4.94-.94.8-2.94 1.54-4.2 2.2-.18.03-.37.05-.56.08-.44.22-.97.44-1.46.52l.02-.04c-.67.3-1.5.44-1.83.56l.02-.04-.86.2.14-.08a13.74 13.74 0 0 1-3.68.48l.1.14-2.4-.1c-.04-.18.04-.3-.12-.47-.04-.1-.13-.2-.2-.27-.14.02-.07-.12-.2-.13l.05-.06c-.04 0-.08-.01-.05-.05h.02c-.06 0-.05-.05-.08-.05v-.01l-.03-.03h.03c-.08-.02-.1-.07-.1-.12l-.07.05c.03-.14-.14-.1-.1-.23h0c-.26 0 .05-.24-.2-.25.03 0 .04-.03.06-.04-.05-.04-.1-.1-.24 0-.02-.04.03-.06.1-.1-.05.07-.1.05-.1.02zm6.2 15.33a1.88 1.88 0 0 0-.31.12c-.1.04-.07.03-.08.04l-.02.03v-.1c.01.03-.01.08-.02.12-.07.03-.13.06-.2.1v-.04c0-.02.01-.02-.01-.06-.04-.06-.1-.14-.15-.22-.13-.16-.32-.37-.62-.64.44.55-.03.42-.5-.3l.22.1c-.3-.36-.43-.46-.58-.72.2.2.22.02-.17-.52l.37.28c-.3-.3-.58-.6-.85-.92-.36-.9-1.24-2.26-1.25-2.7l-.46-1.03c-.25-.54-.52-1.13-.7-1.33.26.35-.12-.75.13-.5-.33-.46-.94-1.96-.92-2.6l.04.1c-.02-.13-.05-.27-.07-.4-.02-.1 0-.1-.01-.14.01-.07.02-.08.03-.1.03-.05.08-.1.16-.12 1.12.12 2.23.13 3.45.18-.1-.14 1.12-.12.8-.3 2.35-.35 4.4-.28 5.07-1.07 1.02-.32 1.26-.22 1.8-.38l-.23.1c1.9-.7 2.42-.96 3.8-1.57.65-.38.64-.66 1.83-1.24-.33.3.15.03.57-.24-.26.18-.33.27.27-.02.06-.08.17-.17.28-.25.01 0 .03 0 .03.01.7-.48.55-.43.2-.23.01-.02-.03-.02-.15.01.8-.35 1.97-1.4 2.15-1.33 1.94-1.6 3.06-3.04 4.34-4.66.22-.12-.03.3-.4.8.3-.38.63-.76.92-1.15.1.1-.48.7-.76 1.07 1.32-1.2 2.1-2.95 3.33-4.6l.13-.42.08-.1c-.02-.02-.01-.1.07-.3.07-.2.18-.44.26-.62.2-.23.28-.13.46-.45-.07-.13-.24-.38-.55-.8l-.2-.34-.6-1c-.3-.48-.6-1-.82-1.45.2.5.07.37-.06.17-.2-.45-.18-.75-.36-1.08l.13-.1c-.1.23-.55-1.15-.64-1.3.03-.3.3.7.43.78-.53-1.85-.32-.94-.68-2.8-.22-.97-.13.2-.3-.26-.1-.86-.17-1.84.46-2.57-.1.05-.2.1-.28.18a2.24 2.24 0 0 1 .9-.99h.01a1.02 1.02 0 0 1 1.11-.04c.33.17.46.5.66.9 2.16 2.7 3.38 4.1 4 4.67-.9.15.28.66 5.84 1.87.01.06 0 .1-.07.1 0 .16-.1.37.05.5l-.03-.01c.1.08 0 .08.04.15h-.03c.1.08-.02.18.02.24l-.07-.01v.13-.04c.18.05-.13.07-.03.18-.04.08.34.24.24.3.08.06-.13-.06-.08.01-.1-.02-.05-.04-.13-.04.03.07-.12.08-.07.17l-.07-.01c.12.12-.13.17-.02.25.04.1-.23.03-.1.16l-.1.02c-.02.04.12.06.06.1-.06-.01-.06.05-.12.01-.12.1.1.25-.1.37.12.06.03.12.12.16-.05-.01-.04.15-.14.04-.01-.01 0-.02.02-.02l-.07-.02c-.15.06.05.17.01.25.03-.02.03-.05.07-.02v.08l-.06-.03-.06.1h.08c-.05.05-.18.04-.1.13.05.04.1-.03.12.03-.07.07-.16.16-.2.26.1.01.08.03.1.06h-.07c.08.12-.17.01-.1.12h-.05l.15.06c.13.12-.16.02.02.16 0-.04.17.01.12.06l-.07-.03c.01.03.04.05.02.06-.04-.02-.1-.03-.1.01l-.08-.04.12.1c-.1.04-.01.16-.1.16 0 0-.07.12.03.17-.06-.04-.1.03-.18-.01.07.05.1.16.03.18l-.01-.01c-.1.13.07.27-.06.38.1.01.03.07.14.07.08.15-.27.2.06.3.01.06-.1.06-.12.08l-.02-.02c.01.12 0 .15-.02.24.02.05.18.08.13.15-.06-.04-.05 0-.06.03-.01-.02-.03-.03-.08 0 .02.01.03.02.04.03-.01.05.01.05.03.03h.04c-.1.03-.02.14-.13.12 0 .15.1.27.1.4-.06 0-.1-.03-.12-.07v.1c-.08-.02-.04-.06-.05-.1-.15.08.1.23-.05.32l.06.04v.01a.17.17 0 0 1 .08.06c-.07 0-.16-.03-.17.03-.08.03.01.14.03.2.02-.03.05-.01.08.01 0 .03-.08.03-.05.06l-.1-.01c.1.01.08.1.12.1-.07 0-.05-.06-.1-.07-.01.12-.01.06-.02.18.06.08.1.01.17.05.01.06.06.12-.01.18h.1c.04.1.02.17-.07.23.52.9.9.34.9.34.24-.27.03-.47.03-.84.1-.3.28-.36.28-.7.04-.15.04-.33.05-.48-.1-.1.04-.2-.05-.3h.08c-.03-.04-.05-.08 0-.1h.02c-.05-.05 0-.1-.03-.12h0v-.06l.03.01c-.04-.1-.03-.17.01-.23h-.1c.12-.13-.04-.22.1-.33h.02c-.2-.2.2-.24.02-.46.02.03.05 0 .07 0-.01-.1-.01-.17-.17-.2.01-.06.06-.04.13-.03-.07-.01-.1-.07-.1-.12l.02.03v-.14h-.14c.05-.06.17.01.15-.06l-.12-.02c.04-.1.23-.12.33-.2.12-.38-.1-.85.18-1.17h.1c.13.02-.17-.14-.05-.13l-.05-.05c.02-.01.05-.03.08 0 .01-.04-.01-.04-.04-.08l.1-.03c.1-.14-.04-.3.03-.46.2-.16.12-.56.07-.78-.1-.26.22-.47.3-.7 1.7.25 2.96.4 4.24.43-.02.14-.05.3.06.4l-.03-.01c.1.08 0 .08.04.15h-.03c.1.08-.02.18.02.24l-.07-.01v.1c.18.05-.13.07-.03.18-.04.08.34.24.24.3.08.06-.13-.06-.08.01-.1-.02-.05-.04-.13-.04.03.07-.12.08-.07.17l-.07-.01c.12.12-.13.17-.02.25.04.1-.23.03-.1.16l-.1.02c-.02.04.12.06.06.1-.06-.01-.06.05-.12.01-.12.1.1.25-.1.37.12.06.03.12.12.16-.05-.01-.04.15-.14.04-.01-.01 0-.02.02-.02l-.07-.02c-.15.06.05.17.01.25.03-.02.03-.05.07-.02l-.02.08-.06-.03-.06.1h.08c-.05.05-.18.04-.1.13.05.04.1-.03.12.03-.07.07-.16.16-.2.26.1.01.08.03.1.06h-.07c.08.12-.17.01-.1.12l-.05-.02.15.06c.13.12-.16.02.02.16 0-.04.17.01.12.06l-.07-.03c.01.03.04.05.02.06-.04-.02-.1-.03-.1.01l-.08-.04.12.1c-.1.04-.01.16-.1.16 0 0-.07.12.03.17-.06-.04-.1.03-.18-.01.07.05.1.16.03.18l-.01-.01c-.1.13.07.27-.06.38.1.01.03.07.14.07.08.15-.27.2.06.3.01.06-.1.06-.12.08h-.01c.01.12 0 .15-.02.24.02.05.18.08.13.15-.06-.04-.05 0-.06.03-.01-.02-.03-.03-.08 0 .02.01.03.02.04.03-.01.05.01.05.03.03h.04c-.1.03-.02.14-.13.12 0 .15.1.27.1.4-.06 0-.1-.03-.12-.07v.1c-.08-.02-.04-.06-.05-.1-.15.08.1.23-.05.32l.06.04h-.01a.17.17 0 0 1 .08.06c-.07 0-.16-.03-.17.03-.08.03.01.14.03.2.02-.03.05-.01.08.01 0 .03-.08.03-.05.06l-.1-.02c.1.01.08.1.12.1-.07 0-.05-.06-.1-.07-.01.12-.01.06-.02.18.06.08.1.01.17.05.01.06.06.12-.01.18h.1c.04.1.02.17-.07.23.52.9.9.34.9.34.24-.27.03-.47.03-.84.1-.3.28-.36.28-.7.04-.15.04-.33.05-.48-.1-.1.04-.2-.05-.3l.08-.02c-.03-.04-.05-.08 0-.1l.02.01c-.05-.05 0-.1-.03-.12l.02.01v-.06l.03.01c-.04-.1-.03-.17.01-.23h-.1c.12-.13-.04-.22.1-.33l.02.01c-.2-.2.2-.24.02-.46.02.03.05 0 .07 0-.01-.1-.01-.17-.17-.2.01-.06.06-.04.13-.03-.07-.01-.1-.07-.1-.12l.02.03v-.14h-.14c.05-.06.17.01.15-.06l-.12-.02c.04-.1.23-.12.33-.2.12-.38-.1-.85.18-1.17h.1c.13.02-.17-.14-.05-.13l-.05-.05c.02-.01.05-.03.08 0 .01-.04-.01-.04-.04-.08l.1-.03c.1-.14-.04-.3.03-.46.2-.16.12-.56.07-.78-.1-.22.13-.4.24-.6.64.14 1.88.14 2.35.27l-.06.02c.8-.02 1.62.12 2.42.26l1.2.2c.2.03.4.05.6.06.12.01.17 0 .28-.02-.04.02-.1.1-.22.08a3.53 3.53 0 0 1 .32.01c.05.06.05.18.07.26 0 .02.05.38.05.52.01.17 0 .3-.04.3.2 1.2.57 2.95.92 4.5l.93 5.85-.23.1-.5.13-.1.12-16.2 6.83c-.35.06-.67.15-.97.35-1.48.74-1.26.2-2.6.95l-.55.17-.34.06c-.14.06-.24.1-.32.15a9.47 9.47 0 0 0-.41.13l.02-.05a20.96 20.96 0 0 1-1.03.54c-.18.06-.3.1-.1-.05-.9.3-1.73.7-2.64 1.15-1 .35-2 .72-3.13 1.3-.07.02-.14.05-.2.07-.04.04-.1.07-.14.1-.1.05-.18.1-.28.14.36-.2-.2 0-.17-.05-.82.37-1.66.74-2.2 1.05l.1-.18c-1.43.36-2.38 1.16-3.72 1.7.4-.13.93-.37.6-.14l-1.24.5.22-.2-1.86.73h.3c-.92.33-1.32.26-2.27.86-.42.3.92-.2-.01.24-.13.05-.28.1-.43.15-.64.17-1.3.33-2.06.58l-3 1.26-1.2.52c-.04.01-.08.01-.13.03zM2711.8 107l.5-.12c-.02-.02-.15 0-.5.12zm19.8-3.25h-.03c-.04.01-.1.02-.13.04l.16-.04z"/></svg>