<svg xmlns="http://www.w3.org/2000/svg" viewBox="0 0 480 480" xmlns:v="https://vecta.io/nano"><path d="M2711.8 107l.5-.12c-.02-.02-.15 0-.5.12zm19.8-3.25h-.03c-.04.01-.1.02-.13.04l.16-.04z"/><path d="M371.48 411.9l-1-2.3-.1.04-.5-1.04c-1.8-2.6-10.2-5.1-15.6-5.4-.5 0-1.1-.1-1.7-.1l.9 12.1-46.8 15.4c.5 1 .7 2.3 1.1 3 .6 1.3 2 1.9 3.3 1.4l58.7-19.5c1.5-.5 2.3-2.1 1.7-3.6zm-19-8.8c-2.2-.3-18.5-3.5-18.5-3.5l-9-12.7s-3.2-.2-2.7 4.2c.3 2.4 1.2 4.7 1.2 4.7s-.08.04-.23.12l-3.46-7.3 2.3-1c1.6-.5 2.5-2.3 1.9-4.1l-27.2-84.1c-5.15-16.15-20.63-59.47-29.28-83.52l1.08-9.28-69.2-.1-4.5.2s-1.8 26.3-2.6 60.3c-.2 8.1-2.6 21.2-5.9 29.6s-9 18.6-14.2 25.3l-32 41.7c-1.1 1.4-.8 3.3.5 4.4l1.45 1.16-8.66 10.55c-1.16-.48-2.54-.25-3.3.78-1.6 2-4.4 5.7-7.5 10.7-.95 1.52-3.5 5.36-4.45 7.04l-.05-.04c-.6 1-1.4 1.9-1.9 2.7-.7 1.2-.5 2.7.6 3.6l21.8 17.2 14.94 12.2c.7.6 1.5 1 2.4 1.1l19.13-.1c1.92-.1 3.04.04 4.04-1.06.5-.7.48-1.63.48-3.46h-.08c.02-.3.02-.57-.01-.7-.6-2.8-3.4-6.7-11.5-7.9-.5-.2-2.52 2.55-3.02 2.25l-6.63 6.15h-.25l-13.16-10.53 12.76 10.03 10.1-8.1c-1.1-2.3-7.6-17.4-7.6-17.4l5.9-14.9s-1.2-2.18-3.8-.8l1.47-1.87 6.54 5.26c1.1.9 2.6.8 3.5-.2 9.6-9.6 56.8-57.3 63.8-69.8 1.5-2.7 3.23-5.1 5.08-7.78l1.52 2.78c9.3 16.8 14.3 24.9 21.7 39.5 4.7 9.4 17.3 36.2 21.2 44.2.5 1.1 1.9 1.6 3 1.1l5.36-2.37 4.2 9.22c-.1.05-.2.1-.27.15-.8.4-1.3 1.4-1 2.4.7 2.2 2.3 6.7 4.9 12.3.8 1.6 2.5 5.7 3.2 7.1l46.8-15.4-.9-11.97z" fill="#fff"/><path d="M138.9 393.63c-.17-.43-.4-.85-.9-1.4-.45-.55-1.08-1-1.7-1.32-.34-.06-.8-.42-1.2-.43l-.12-.12c-.14-.01-.3-.03-.4-.1l.01-.02c-.2.01-.4-.08-.52-.06l.01-.02-.24-.02.05-.02c-.35 0-.7 0-1-.04l.03.1c-.67-.07-.9.14-1.48.16v-.02c-.65.4-1.2.22-1.78.8.07-.07-.06-.02-.06-.04-.3.2-.58.47-.48.6-.2.15-.2.1-.26.06.05.06-.1.23-.23.37l.05-.08c-.14.13-.25.28-.37.43l.18.01c-.23.2-.18-.06-.34.18l.1.07c-.26.3-.55.4-.83.73-.44.74-.67 1.63-.72 2.5-.06.87.05 1.7.18 2.5l-.07.1c-.12.08.33.36.24.45l.12.15c0 .06.03.16-.04.1.07.16.1.15.18.25l.01.2c.28.63.75 1 1.23 1.53.5.75 2.02 1.48 2.94 1.56l2.02.25c.7.03 1.45-.07 2.03-.44.05 0 .13-.1.13-.1a6.58 6.58 0 0 0 1.07-.59s.07-.06.2-.15a3.6 3.6 0 0 0 .46-.4 4.57 4.57 0 0 0 .91-1.22c.18-.42.25-.73.08-.73-.18-.02-.52.33-1.35.87v-.04c-.42.38-.7.56-.93.9-.15-.1-.4.23-.55.24v-.02c-.25.28-.67.2-.94.4.01-.02 0-.06.07-.1-.22.1-.53.2-.56.1-.55.16-1.32.1-1.7.2l.03-.02c-.22.07-.27-.01-.5-.01-.01-.02-.02-.03-.02-.03-.25.07-.65-.17-.84-.18v-.07l-.42-.17.15.08c-.14.14-.27-.24-.6-.3-.24-.17-.76-.04-.96-.34-.18-.04.2-.01-.03-.12.06-.08.12.03.13-.07-.2-.12-.2-.32-.44-.5l.05-.06c-.35-.2-.35-.6-.57-.73-.25-.3.07-.32-.23-.6l.03-.17c-.04-.16-.15-.06-.17-.25.06-.01-.03-.23.06-.15-.02-.4-.37-.77-.22-1.32-.14-.1-.07-.38-.15-.47.05-.01.04-.54.13-.23.01.03.01.07-.02.07l.07.04c.16-.28-.03-.55.06-.84-.04.08-.07.2-.1.1l.07-.27.05.07a3.12 3.12 0 0 1 .15-.39l-.1.03c.1-.18.24-.2.23-.45-.01-.12-.18.14-.1-.07a9.37 9.37 0 0 1 .62-.83c-.1-.02-.03-.1.01-.18l.07.03c.14-.36.2-.02.37-.34l.02.06-.05-.17c.1-.35.22-.03.35-.42-.1.1-.16-.07-.01-.17l.01.1c.06-.08.07-.13.13-.16-.02.07.04.1.15 0l-.02.13.14-.27c.2-.08.46-.3.58-.28 0 0 .43-.15.48-.3-.06.1.2.03.15.13.08-.1.4-.3.54-.24l-.02.02c.5-.06.84-.28 1.3-.2-.02-.1.22-.03.16-.14.5-.1.84.3 1.08.02.22.04.24.13.35.2h-.06c.4.1.52.14.8.28.15.03.25-.1.48.08-.1.01 0 .06.1.1-.06-.03-.1-.02 0 .1.03-.01.06 0 .1 0 0 0 0 .01-.01.02.16.07.14.05.08-.01.01-.01.01-.02 0-.05.1.17.42.3.37.4.4.3.77.5 1.07.84-.01.07-.12.02-.2-.07l.2.24c-.07.05-.14-.1-.2-.18.12.36.56.54.65 1l.1.05v.03c.03-.02.1.05.15.1-.04.1-.15.06-.07.26 0 .18.2.44.28.65-.02-.12.03-.1.07-.05.03.1-.02.18.02.26l-.1.03c.08-.06.14.26.18.3-.06.07-.1-.16-.14-.18.08.43.04.2.08.64.1.23.1-.05.18.06.03.2.08.42.01.66l.1-.07c.02.4-.02.66-.17.9l-.07 1.47c.02.25.1.27.22.2.12-.08.26-.26.37-.43.12-.17.18-.33.18-.33.6-1.25.45-2.1.1-3.62l-.5-1.57zm21.62 8.25c-.23-.2-.37.04-.66.1-.25-.05-.3-.22-.57-.17-.12-.02-.26.01-.38.03-.06.12-.16-.01-.23.1l-.02-.07c-.03.04-.05.06-.08.02v-.02c-.04.05-.08.02-.1.04h0-.04l.01-.03c-.06.05-.13.06-.18.03v.1c-.1-.1-.17.08-.27-.05v-.02c-.15.22-.2-.17-.36.04.02-.03-.01-.05 0-.07-.07.02-.13.03-.14.2-.05 0-.04-.06-.04-.12 0 .07-.05.1-.08.1v-.03l-.1.02v.14c-.05-.04-.01-.17-.06-.14v.12c-.08-.03-.1-.2-.18-.3-.3-.07-.65.22-.93 0v-.1c0-.13-.1.2-.1.07l-.04.06c-.01-.02-.03-.05-.01-.08-.03-.01-.03.01-.06.05l-.03-.08c-.12-.07-.23.08-.36.04-.15-.17-.44-.03-.62.04-.24.18-.5-.34-.75-.14-.01-.02-.03.02-.03.04l-.22-.03s-1.07-.1-.3 1v.03c.12.07.2.1.28-.04 0 .17.1.02.12.08v.01c.08-.13.15.12.22 0 0 .01-.01.06-.02.06.05-.02.13-.05.12.05.12-.02.3.03.38-.12v.03c.05-.1.06-.01.1-.07 0 .01.01.02 0 .03.05-.1.14-.01.2-.05v.07l.1-.01-.04-.02c.02-.18.07.12.15 0 .07.03.15-.37.22-.28.04-.08-.04.14.02.07 0 .1-.03.06-.02.14.05-.04.07.1.14.04v.07c.08-.13.14.1.2-.02.08-.06.04.22.13.08l.03.1c.03.02.03-.12.07-.07-.01.06.05.05.02.1.08.1.2-.13.3.04.03-.12.1-.05.1-.14 0 .05.12.01.05.13-.01.01-.02.01-.01-.01l-.01.07c.06.14.13-.07.2-.05-.02-.03-.05-.02-.03-.07l.06.01-.02.06.1.04-.01-.08c.04.04.05.17.1.07.03-.06-.04-.1.01-.13.06.05.14.14.22.16 0-.1.02-.08.04-.1v.07c.1-.1.02.17.1.1l.02-.1c.08-.14.03.16.12-.04-.03.01-.01-.17.03-.13l-.01.07c.02-.01.03-.04.05-.03-.01.04-.01.1.02.1l-.03.1.07-.13c.04.08.12-.01.14.1 0 0 .1.05.13-.06-.02.07.03.1.01.18.03-.08.1-.14.14-.05h-.01c.1.1.2-.1.3 0 0-.1.05-.04.04-.15.1-.1.18.23.24-.1.05-.02.05.08.08.1l-.01.02c.1-.02.12-.03.2-.01.04-.03.05-.2.1-.15-.02.06 0 .05.03.05-.01.01-.02.03.01.08.01-.02.01-.03.02-.04.04 0 .03-.02.02-.03v-.04c.04.08.1 0 .1.1.1-.02.2-.13.3-.17.01.06-.02.1-.04.13h.07c0 .08-.04.04-.06.06.07.13.17-.12.26 0l.02-.06h0c0-.03.02-.08.04-.1.01.07-.01.16.04.16.03.07.1-.03.15-.06-.03-.01-.02-.05 0-.08.02 0 .03.07.05.04v.1c0-.1.06-.1.08-.13.01.07-.04.06-.05.1.1 0 .05 0 .14-.01.05-.07 0-.1.02-.17.04-.02.1-.08.14-.02v-.08c.1-.06.13-.05.18.04.6-.63.14-.9.14-.9zM307 434.05c-.01-.02-.01-.03-.02-.05 0-.01-.01-.01-.01-.02l.03.07zm10.74-5.77h0l-.12.13zm-5.3-4.12c.04.02.15 0 .16-.02.4.07.8.1 1.2.08l.24-.02c.15 0 .36-.04.6-.08.47-.08 1-.3 1.4-.52.37-.25.6-.47.45-.56-.14-.1-.6-.01-1.57-.01l.02-.03c-.54.08-.87.08-1.24.25-.06-.17-.45-.03-.57-.1l.01-.01c-.35.1-.65-.2-.98-.17.02-.01.04-.05.1-.04-.23-.04-.54-.1-.52-.2-.53-.16-1.13-.62-1.5-.73h.04c-.22-.06-.22-.15-.4-.28 0-.02-.01-.04 0-.04-.24-.08-.44-.48-.58-.6l.05-.05c-.1-.1-.16-.24-.25-.37l.07.15c-.2.04-.1-.34-.32-.58-.1-.27-.6-.44-.6-.8-.12-.13.17.1.05-.1.1-.03.08.1.14.01-.1-.2 0-.37-.1-.63h.07c-.18-.34.03-.67-.08-.9-.05-.37.22-.22.13-.6l.12-.13c.04-.15-.1-.13-.01-.3.06.02.1-.2.14-.1.2-.34.1-.82.5-1.2-.06-.16.14-.35.12-.47.05.02.3-.43.23-.12-.01.03-.03.06-.05.05l.04.07c.27-.15.26-.47.48-.67-.08.04-.16.13-.14.04l.2-.18v.08c.1-.08.2-.18.32-.25h-.1c.18-.1.3-.04.42-.26.05-.1-.22.02-.06-.12l.44-.18a4.16 4.16 0 0 0 .5-.16c-.06-.07.02-.1.1-.14l.04.07c.3-.2.17.1.48-.07l-.02.06.05-.17c.28-.22.2.1.5-.15-.14.03-.1-.15.1-.15l-.03.08c.1-.03.12-.07.2-.06-.05.04-.02.1.12.1l-.1.1.26-.15c.2.05.54-.01.62.1 0-.01.43.1.55.01-.1.05.13.13.05.2.12-.05.47-.04.57.1h-.03c.44.22.84.2 1.18.52.03-.1.2.1.2-.04.47.18.53.7.88.57.17.15.13.24.2.34l-.05-.03c.28.3.36.38.5.64.1.1.28.04.35.3-.1-.05-.04.04.01.14-.04-.05-.07-.06-.05.08.03.01.05.03.07.05l-.01.01c.1.14.1.1.07.03.01 0 .02-.01.02-.04-.01.2.18.47.08.52.17.48.35.82.4 1.26-.05.05-.1-.05-.14-.17l.04.3c-.08 0-.06-.17-.08-.26-.1.36.16.74-.02 1.16l.05.1v.02c.03 0 .07.1.07.17-.08.05-.16-.03-.2.17-.1.15-.08.46-.12.68.05-.1.07-.06.08 0-.03.1-.1.14-.12.22l-.1-.03c.1-.01-.02.3-.01.34-.1.03.01-.18-.03-.22-.16.4-.08.2-.27.57-.05.23.1.01.12.15-.08.2-.16.38-.33.55h.1c-.2.35-.36.53-.6.65l-.82 1.18c-.1.2-.05.28.08.3.14 0 .35-.08.54-.16.18-.08.32-.18.32-.18 1.14-.72 1.45-1.48 2-2.92.25-.64.38-1.06.47-1.5a4.08 4.08 0 0 0 .02-1.62c-.07-.7-.32-1.4-.65-2-.23-.24-.45-.78-.78-1l-.04-.16c-.1-.08-.23-.17-.3-.3l.02-.01c-.18-.1-.3-.28-.4-.32h.02l-.18-.14h.05l-.8-.56v.1c-.5-.4-.8-.35-1.3-.65v-.02c-.75-.01-1.1-.47-1.9-.3.1-.02-.04-.05-.03-.07-.35 0-.72.06-.7.23-.25.02-.2-.03-.25-.1.01.07-.2.14-.4.17l.08-.04c-.18.03-.36.1-.54.15l.14.1c-.3.03-.12-.15-.38-.04l.04.1c-.38.1-.67.02-1.08.13-1.57.8-2.45 2.44-3.06 3.84l-.1.04c-.13 0 .08.47-.04.5 0 .06.01.12.02.2-.03.05-.07.15-.08.05-.03.17-.01.17.01.3l-.1.17c-.1.67.08 1.23.2 1.9.02.42.18 1.02.5 1.55a5.19 5.19 0 0 0 1.05 1.31l1.52 1.3c.6.42 1.26.73 1.93.74zM193.32 256.43l-.04.03c.02.03.03.03.04-.03zm-12.78 126.8h0l.28-.4zm149.93 22.48l.02.02c.12-.06.18-.12.1-.27.15.08.07-.07.13-.07l.01.01c-.07-.14.18-.07.12-.2.01.01.05.04.04.05.01-.06.02-.14.1-.08.05-.12.18-.24.1-.4v.02c-.07-.1.02-.06 0-.13.01.01.02.01.02.01-.06-.1.07-.13.05-.2l.06.03.04-.1h-.03c-.15-.1.14 0 .08-.12.06-.04-.24-.32-.13-.33-.05-.08.1.1.07.02.08.05.04.05.1.08-.01-.07.13-.01.1-.1l.06.04c-.07-.14.16-.07.08-.18-.01-.1.2.08.14-.07l.1.03c.03-.02-.1-.1-.03-.1.05.04.07-.01.1.04.13-.02-.02-.23.2-.24-.1-.1.01-.1-.06-.17.05.03.07-.1.13.03 0 .01 0 .02-.02.01l.06.05c.15.02 0-.14.06-.2-.03 0-.04.03-.07-.01l.04-.05.04.05.08-.06-.07-.03c.06-.02.17.04.1-.06-.04-.05-.1-.02-.1-.07.08-.02.2-.05.25-.1-.08-.04-.06-.06-.06-.08l.06.04c-.04-.13.15.07.13-.05l-.08-.07c-.08-.14.15.05.03-.13-.01.03-.15-.08-.1-.1l.05.05c0-.03-.02-.05 0-.05.03.03.08.06.1.03l.06.07-.08-.12c.1 0 .05-.1.15-.07 0 0 .1-.06.02-.14.05.06.1.02.16.08-.05-.07-.06-.17.03-.14h0c.13-.05.01-.23.15-.26-.07-.04-.01-.06-.1-.1-.03-.15.3-.04.03-.26.01-.05.1 0 .13-.01l.01.02a.54.54 0 0 1 .08-.17c-.01-.05-.14-.14-.07-.17.04.05.05.02.06.01 0 .02.02.03.07.03-.01-.01-.02-.03-.03-.04.01-.03-.01-.04-.02-.03-.01-.01-.02-.01-.04-.02.1.01.06-.1.15-.04.04-.1-.01-.24.01-.34.05.02.08.07.08.1l.02-.07c.07.05.02.06.02.08.15.01-.02-.2.13-.22l-.04-.05h.01c-.03-.02-.05-.06-.06-.08.07.03.13.1.16.05.08.01.03-.1.02-.17-.02.01-.05-.01-.07-.04.01-.02.08.01.06-.02l.08.05c-.08-.04-.05-.1-.07-.13.07.03.03.06.07.1.04-.08.02-.04.07-.12-.03-.08-.08-.04-.14-.1.01-.05-.02-.12.05-.13l-.08-.03c-.01-.1.03-.14.13-.14-.23-.9-.7-.62-.7-.62-.3.1-.15.34-.26.6-.17.2-.35.15-.44.4-.08.1-.12.23-.17.34.07.12-.1.13-.04.25l-.07-.02c.02.04.02.08-.02.07l-.02-.01c.03.06-.02.07-.01.1h-.02l-.02.04v-.02c.01.08-.02.14-.07.17l.08.04c-.15.05-.02.18-.18.2l-.02-.01c.12.24-.25.1-.15.33-.01-.03-.04-.02-.06-.03-.02.07-.04.13.1.23-.03.04-.07 0-.12-.03.06.04.07.1.05.13l-.01-.03-.04.1.13.06c-.06.02-.15-.08-.15-.02l.1.06c-.06.05-.23-.01-.35 0-.2.23-.15.67-.48.8l-.08-.04c-.1-.07.1.17.01.1l.03.06c-.02 0-.06 0-.07-.03-.02.02 0 .04.02.08l-.1-.02c-.12.07-.05.24-.15.33-.22.04-.26.36-.28.55.03.3-.55.25-.5.57-.02 0 0 .04.02.04l-.14.17c.05.02-.58.9.76.8z"/><path d="M332.73 402.83h0l.04.04zm-25.07-67.3l.02-.04c-.01-.02-.02-.01-.02.04zm64.06 76.3c-.08.18.1.82-.3 1.75a2.55 2.55 0 0 1-1.2 1.24c-.3.15-.64.2-1.13.3l-1.5.33.1-.08c-2.5.7-4.06 1.2-5.7 2-.36-.18-2.04.64-2.64.75l.05-.04c-1.43.7-3.16.86-4.55 1.53.05-.04.05-.13.4-.24-1.05.4-2.47.93-2.6.8l-7.6 2.77.1-.08c-.86.48-1.18.42-2.18.85-.06 0-.14.01-.13 0-.95.5-2.92 1-3.7 1.34l-.1-.1-2 .7.76-.23c-.16.38-1.58.32-2.96 1-1.37.4-2.54 1.52-4 1.84-.62.36.5-.42-.45.02-.1-.14.44-.25.14-.28-.96.4-1.67.38-2.85.9l-.1-.1c-1.5.74-3.05.84-4.03 1.4-1.6.64-1.22.02-2.84.8l-.72.06c-.74.22-.45.37-1.3.56.01-.12-1.05.26-.6.01-1.9.45-3.64 1.46-6.14 2-.23.18-.65.35-1.07.5-.38.16-.57.18-.72.26-.02-.04-.44-.06-.7-.22s-.36-.26.06-.13c.07.02.2.06.17.1l.13-.1c-.4-.24-.7-.46-1-.86l-.05-.1c-.18-.22-.4-.75-.55-1.3.1.43.25.92.07.6l-.26-.9c.05.03.1.05.13.06-.01-.07-.02-.13-.04-.18.04-.03.13-.03.18-.04a.53.53 0 0 0-.15-.08c.17-.02.14.06.6-.04.34-.07.68-.17 1.17-.43.44-.25-.93.12.03-.23l4.73-1.3c-.2-.1.23-.22.66-.4l.1.1c1.62-.7.7.06 2.3-.62l.24-.26c1.42-.73.9-.02 2.44-.9-.65.24-.4-.16.43-.37l-.17.18c.44-.17.57-.27.88-.34-.25.15-.1.2.57-.02l-.4.3 1.17-.62c1-.2 2.47-.85 2.92-.82 0 0 2.1-.6 2.5-.93-.38.25.77-.1.5.15.5-.3 2.04-.92 2.72-1l-.1.05c2.38-.64 3.94-1.5 6.1-2.03-.14-.1 1-.4.66-.48a13.16 13.16 0 0 1 1.52-.53c.06-.02.13-.03.2-.05 1-.28 1.85-.47 2.42-.75l3.96-1.37 1.85-.6c.18-.07.3-.15.43-.22l1.97-.73c-.15.07-.1.1.4-.01.07-.06.2-.12.32-.18.01.01.03 0 .02.02.76-.3.6-.28.25-.17.01-.01 0-.02-.02-.02l.2-.08c.35-.08.7-.2 1.15-.34.7-.23 1.27-.4 1.47-.38.01-.02.01-.03.01-.03l16.65-5.5c2.22 3.64 1.25.6.6-1.16l-.33-.9-.16.04c-.02-.04-.03-.07-.03-.07a1.6 1.6 0 0 0-.32-.53l-.4-.47c-.27-.25-.54-.53-.8-.7-.54-.42-1.06-.72-1.58-1-1.03-.55-2.02-.9-3.05-1.26-2.07-.65-4.27-1.17-7.4-1.65l-1.9-.3-.87-.1-.4-.04-1.83-.14-.93-.03c-.01 0-.01.02-.01.03l-.32-.04c-.16-.06-.6-.07-.6-.05l-4.65-.9-9.18-1.55-2.02-.2c-.27-.84-1.8-3.2-1.8-3.2-1.37-2.2-2.52-3.78-3.8-5.44L327.2 388l-.56-.73-.38-.5-.27-.36-.3-.3c-.16-.28-.5-.22-.78-.22l-.3.03a2.33 2.33 0 0 0 .1-.5c.1-.87-.1-1.5-.24-1.8s-.22-.33-.2-.1c0 .25.15.8-.03 1.67-.05.27-.16.58-.33.9-.63.2-1 .44-1.42.8a3.79 3.79 0 0 0-.62.75l-13.45 5.3.3-.2c-7.23 3.07-11.76 5.05-16.62 7.45-.23.02-.7.2-1.33.45l-.98.4c-.23.1-.5.1-.78.06s-.55-.18-.75-.36-.3-.38-.5-.8l-.83-1.77.1.15c-2.27-4.23-4.1-8.98-6.28-13.06.1.15.2.2.68 1.16-1.5-3.02-3.54-7.14-3.5-7.44l-10.77-21.9.2.3c-1.44-2.56-1.73-3.4-3.3-6.27-.06-.17-.16-.38-.14-.35-1.63-2.76-4.43-8.23-5.76-10.45l.02-.2-3.2-5.58 1.15 2.1c-.67-.57-2.2-4.3-4.64-8.2-1-1.83-2.18-3.6-3.35-5.4l-.84 1.5 13.87 24.4c3.8 6.64 7.14 14.22 10.64 21.77l10.55 22.14c.1.24.3.64.5 1l.24.44a1.93 1.93 0 0 0 .11.18l3.1 6.47c.12.28.38.73.68 1 .3.3.66.53 1.04.7.76.32 1.66.34 2.45.02l3.3-1.45 1.4-.62a1.12 1.12 0 0 1 .17.2c.1.33 0 .48.2.77.06.16.17.3.26.45.15.02.1.2.23.23l-.05.06c.05.01.08.04.06.08l-.02.01c.07.02.06.08.1.1l-.02.01.03.05h-.03a.27.27 0 0 1 .14.21l.08-.04c-.02.2.17.16.13.35h-.02c.3.07-.02.33.26.4-.03-.01-.04.03-.06.04.06.07.1.15.27.08.03.06-.03.07-.08.1.07-.03.12 0 .15.05l-.04-.01.08.12.12-.1c0 .1-.15.1-.1.14l.1-.05c.02.1-.1.24-.14.37.14.4.6.7.58 1.13l-.07.05c-.1.06.22.02.12.08l.07.02c-.02.02-.03.06-.06.05.01.04.03.03.08.04l-.05.08c.02.18.22.24.26.4-.06.26.25.56.42.73.3.2.01.77.35.97-.01.02.04.03.05.02l.08.2a2.62 2.62 0 0 0-.55.43c-.23.24-.4.5-.54.78a3.08 3.08 0 0 0-.27 1.83 5.03 5.03 0 0 0 .1.48 4.94 4.94 0 0 0 .11.36 34.27 34.27 0 0 0 .21.79l-.04-.02c1.33 2.66 1.35 4.48 2.85 7.15-.2-.33-.01.18-.05.16.58 1.27 1.22 2.62 1.5 2.52.42.93.27.8.22.96.1-.06.53.73.86 1.44l-.2-.3.97 2.04.03-.5c.43 1.12-.13.4.4 1.43l.17-.1a15.83 15.83 0 0 1 .63 1.81c.05.2.14.48.25.82-.04.02-.08.03-.12.05l.52 1.1c.06.17.12.34.2.5.01 0 .02-.01.03-.01.12.32.2.62.26.75.17.48.3 1 .63 1.6.52 1.1 1.64 1.92 2.88 2 .6.07 1.28-.13 1.7-.3l1.3-.44a96.08 96.08 0 0 1 5.06-1.55l.3.05c.18.16 1.52-.84 1.8-.73l.65-.32c.2-.03.62-.12.3.03.64-.2.64-.24 1.07-.45l.72-.1c2.53-.73 4.56-1.68 7.2-2.5 3.24-.8 9.1-3 12.47-4.27 4.7-1.9 10.57-2.95 15.37-4.93.17-.02.56-.23.55-.25l4.5-1.47 3.15-1.06 2.87-1 .73-.27.36-.13.43-.18c.57-.3 1.05-.7 1.36-1.2.64-.97.6-2.02.4-2.57-.25-.57-.47-.73-.5-.54zm-17.8-7.84c.04.02.1.03.14.04l.36.03c.25.02.52.03.8.03.57.03 1.18.04 1.68.1-.53-.1-.35-.14-.1-.14.48.07.74.23 1.12.25l.02.16c-.16-.2 1.28.08 1.47.07.25.17-.76-.07-.9 0 1.9.4.96.18 2.86.66 1.04.17-.14-.2.38-.2.9.22 1.8.4 2.77.85l-.27-.25c1.68.5 2.64.97 3.57 1.67.68.32 1.26.67 1.7 1.07.1.1.22.2.32.3.07.1.13.2.2.3l-15.85 5.3-.1-.8c-.04-.34-.1-.65-.13-.97l-.03-.75-.1-3.4-.16-3.4-.08-1.02c.06.04.15.08.32.1zm-32.63-15.24a6.6 6.6 0 0 0-.19 1.14c-.01.16-.01.3-.02.46-.06 0-.15.03-.14-.03.07-.01.04-.03.03-.05.02.01.04.01.06-.04H321v-.01c-.04-.03-.05-.01-.05.01-.01 0-.02.01-.03.02.06-.07-.05-.1.04-.15-.07-.1-.2-.14-.3-.2.05-.03.1-.03.13-.01l-.05-.06c.07-.03.06.02.08.03.08-.13-.2-.1-.12-.25h-.06a.17.17 0 0 1-.1 0c.06-.04.15-.07.12-.1.05-.06-.08-.1-.13-.12 0 .03-.04.04-.07.04-.01-.02.05-.06.01-.07l.1-.04c-.08.05-.1-.02-.15-.01.06-.04.07.01.12-.01-.05-.1-.02-.04-.07-.13-.03-.01-.05 0-.06.01l.9-.4zm-21.98 17.8l.03-.01c-.12-.01-.05-.07-.13-.1.01-.01.01-.02.02-.02-.13-.01-.1-.17-.16-.2l.06-.03-.07-.1.01.05c-.17.06.06-.14-.1-.18-.02-.1-.42 0-.38-.13-.1 0 .14-.02.05-.06.1-.04.07 0 .13-.05-.07-.04.04-.14-.05-.2l.07-.03c-.17-.04 0-.22-.14-.23-.1-.07.17-.16-.01-.2l.07-.08c-.01-.05-.13.02-.1-.05.06-.02.02-.08.08-.08.04-.15-.23-.16-.15-.38-.13.02-.1-.08-.2-.07.05-.03-.06-.15.08-.12.01 0 .02.02 0 .02l.07-.02c.1-.14-.14-.12-.16-.2-.01.03.01.06-.05.06l-.03-.08.06-.01v-.13l-.06.05c.01-.07.12-.15-.01-.16-.07 0-.07.1-.12.05.01-.1.03-.24.01-.35-.07.05-.08.02-.1 0l.07-.03c-.14-.06.13-.1.01-.17l-.1.03c-.18-.03.12-.1-.1-.13.03.03-.14.1-.13.03l.07-.02c-.03-.02-.06-.02-.05-.04.04 0 .1-.04.07-.07h.1l-.16-.02c.04-.1-.1-.14-.01-.2 0 0-.01-.15-.13-.13.07 0 .07-.08.15-.1-.1 0-.2-.07-.13-.14h.01c.01-.18-.22-.2-.2-.36-.08.04-.06-.04-.16.02-.16-.08.1-.34-.24-.24-.04-.05.04-.1.04-.14l.02.01c-.08-.1-.1-.13-.13-.22-.05-.03-.2.03-.2-.06.07 0 .04-.03.03-.06.02.01.04.01.06-.05h-.05.01c-.04-.04-.06-.02-.05 0-.01 0-.02.01-.03.02.05-.08-.07-.13.03-.18-.1-.13-.24-.18-.33-.28.04-.04.1-.03.14-.01l-.06-.07c.07-.03.06.03.1.05.07-.15-.2-.15-.16-.3h-.07l.01-.01a.17.17 0 0 1-.1 0c.06-.05.15-.07.12-.12.04-.07-.1-.1-.15-.16 0 .04-.04.04-.06.04-.02-.03.04-.07 0-.08l.08-.04c-.08.05-.12-.03-.16-.03.06-.05.08.02.13 0-.05-.1-.04-.07-.07-.12l23.24-10.47.16.16c.07.27-.05.4.13.63.04.13.14.24.2.36.14 0 .07.16.2.18l-.05.06c.04.01.08.03.05.06l-.02.01c.07.01.05.06.1.07l-.02.01.03.04-.03.01c.08.04.1.1.1.16l.08-.04c-.04.16.15.13.1.28h-.02c.27.04-.05.28.2.32-.03-.01-.04.03-.06.03.05.05.1.12.25.05.02.05-.03.06-.1.1.07-.03.1 0 .14.03h-.03l.07.1.12-.08c-.01.07-.15.08-.1.12l.1-.05c.01.1-.13.2-.17.3.1.33.5.53.45.9l-.07.05c-.1.06.2 0 .1.06l.07.01c-.02.02-.03.05-.06.04.01.03.03.02.07.03l-.06.07c0 .1.1.16.16.23.02.08.03.16.05.24 0 .01 0 .03.01.04 0 .01.01.03.01.04l.23.88c.02.1 0 .05 0 .07h-.03-.01l-.1.05-.4.22-1.83 1c-2.36 1.25-4.85 2.65-7.13 3.92-1 .77-3.02 1.63-4.23 2.48l-.56.16c-.42.3-.92.6-1.4.8v-.05c-.62.44-1.4.8-1.7 1v-.05l-.8.45.12-.12a35.18 35.18 0 0 1-3.38 1.88l.15.08-.82.4c-.01-.01-.02-.03-.01-.04h.01c-.16-.03.01-.23-.14-.27.01 0 .06-.02.07 0-.05-.05-.13-.13-.04-.17-.1-.12-.16-.35-.35-.38zm7.85 22.62l-.04-.17-.03-.1-.04-.1-.07-.17c-.06.2-.24-.2-.46-.6l.1-.1c-.88-1.53-.02-.7-.86-2.24l.14.1-.42-.3c-.87-1.33-.12-.9-1.14-2.33.3.62-.1.4-.4-.38l.2.14c-.22-.4-.33-.53-.43-.82.17.22.22.06-.08-.56l.33.36-.73-1.1c-.3-.97-1.06-2.37-1.06-2.82 0 0-.73-2.03-1.08-2.43.26.36-.12-.76.13-.5-.32-.47-1-2-1.07-2.65l.06.1a35.53 35.53 0 0 0-.51-1.62l-.07-.22c-.01-.05-.02-.1-.02-.16-.01-.1.01-.22.04-.33a.87.87 0 0 1 .16-.3c.04-.04.07-.08.12-.1.04-.03.1-.06.22-.13a15.87 15.87 0 0 1 1.43-.71c-.16-.08.9-.56.57-.6 1.93-1.25 3.85-1.65 4.32-2.54.9-.52 1.15-.47 1.64-.7l-.2.14a85.44 85.44 0 0 1 3.48-1.91c.6-.4.6-.68 1.76-1.24-.32.3.14.02.57-.2-.27.16-.33.24.26 0 .06-.07.18-.15.28-.23.01 0 .03 0 .03.01.7-.42.56-.38.22-.2.01-.02-.03-.03-.14 0 .8-.28 2.06-1.12 2.23-1 2.13-1.2 3.57-2.18 5.32-3.2.24-.03-.13.27-.63.58l1.25-.7c.05.12-.7.46-1.07.7.42-.16.82-.36 1.22-.6l.85-.5c.3-.2.65-.37.93-.56-.28-.64-.6-1.42-.72-1.86-.14-.43-.25-.87-.3-1.34l-.2-.37-.01-.12c-.05.02-.22-.4-.3-.68.08-.3.24-.04.13-.95.02-.7-.07-2 .4-2.6-.25.32-.23.2-.16.01.25-.32.5-.34.72-.52l.1.13c-.07-.04.05-.16.25-.24.1-.04.2-.06.3-.08s.12.1.16.08c.01.13-.06.03-.16-.01-.14.02-.3.07-.32.12a1.11 1.11 0 0 1 .29-.04c.06.04.1.1.12.15.06.08.1.13.13.18l.87 1.2c.7.8.01-.24.42.1.57.75 1.2 1.43 1.73 2.37l-.08-.36c1.1 1.38 1.7 2.25 2.28 3.3 2.27 2.68 3.53 4.02 4.16 4.56-.7.07-.13.46 2.87 1.43-.02.13.06.28.05.48-.1.23-.28.25-.3.52-.05.12-.05.26-.06.38.1.1-.04.16.04.25l-.08.01c.03.03.04.07 0 .08h-.02c.04.05 0 .08.02.1h-.02v.04l-.03-.02c.04.08.03.14-.02.18h.1c-.13.1.04.18-.1.25h-.02c.18.2-.2.17-.04.36-.02-.02-.05 0-.07-.01.01.07 0 .14.16.2-.02.04-.06.02-.13.01.07.02.1.07.1.1h-.02v.1l.14.02c-.05.04-.17-.03-.15.03l.1.03c-.04.07-.23.06-.33.1-.13.3.06.7-.22.92h-.1c-.13-.03.16.13.04.1l.05.05c-.02 0-.05.02-.08-.01-.01.03.01.04.04.07l-.1.01c-.1.1.03.25-.04.36-.2.1-.14.43-.1.62.12.28-.45.4-.3.7-.02 0 .01.03.03.04l-.08.2s-.34 1.03.9.53h.03c.1-.1.13-.17.02-.3.17.03.04-.1.1-.1l.01.01c-.1-.1.15-.12.05-.22.01.01.06.02.06.04-.01-.06-.02-.14.07-.1.01-.13.1-.28-.03-.4l.03.01c-.1-.07 0-.06-.04-.13h.03c-.1-.08.02-.14-.01-.2l.07.02v-.1.03c-.17-.06.13-.04.04-.14.04-.06-.33-.24-.22-.28-.07-.06.13.07.08 0 .1.02.05.04.13.05-.03-.06.12-.05.07-.13l.07.02c-.1-.1.13-.12.02-.2-.04-.1.23.01.1-.1h.1c.03-.03-.1-.06-.05-.08.06.02.06-.03.1 0 .12-.06-.1-.22.1-.28-.1-.06-.02-.1-.1-.14.05.01.04-.1.14-.02.01.01 0 .02-.02.01l.07.03c.15-.03-.04-.14 0-.2-.03.01-.03.04-.07.01l.03-.06.06.03.06-.08-.08-.01c.05-.03.18-.01.1-.1-.05-.04-.1.01-.12-.04.07-.04.17-.1.2-.18-.08-.02-.08-.04-.1-.06l.07.02c-.08-.1.17.02.1-.1l-.1-.04c-.12-.1.16 0-.01-.13 0 .03-.16-.03-.12-.06l.07.03c-.01-.03-.04-.04-.02-.05.03.02.1.04.1 0l.08.05-.1-.1c.1-.02.01-.12.12-.1 0 0 .08-.08-.03-.14.06.04.1-.01.18.03-.07-.05-.1-.14-.02-.15h.01c.1-.1-.06-.22.07-.3-.08-.02-.02-.06-.13-.08-.08-.13.27-.13-.05-.26 0-.05.1-.03.12-.05l.01.02c0-.1 0-.12.03-.2-.02-.04-.17-.1-.12-.14.06.04.05.01.06-.01.01.02.03.03.08.01-.02-.01-.03-.02-.04-.03.01-.04-.01-.04-.03-.03-.01 0-.02-.01-.04 0 .1-.02.02-.1.13-.08.01-.12-.08-.23-.1-.33.06 0 .1.04.1.07v-.07c.08.02.03.05.04.07.15-.04-.08-.2.06-.25l-.06-.04h.01a.17.17 0 0 1-.08-.06c.07.01.16.04.16 0 .08-.02 0-.1-.03-.17-.02.02-.05 0-.07-.01 0-.02.08-.02.05-.04l.1.02c-.1-.02-.08-.08-.1-.1.07.01.05.05.1.07l.03-.14c-.05-.07-.1-.02-.16-.06-.01-.05-.06-.1.01-.14l-.08-.01c-.01-.04-.01-.06-.01-.08l2.23.68-.12.02 2.42.54c.01.04.02.07.03.1-.08.24-.25.28-.2.54-.03.12-.01.25-.01.37.12.07-.02.15.08.23l-.07.02c.03.03.05.06.01.07h-.02c.05.04.01.07.04.1h-.02v.04h-.03c.05.07.04.13.01.18l.1.01c-.1.1.06.17-.07.25h-.02c.2.16-.18.18.01.35-.02-.02-.05 0-.07 0 .02.07.02.13.2.16-.01.04-.06.03-.12.03.07.01.1.05.1.1l-.03-.02v.1h.14c-.05.05-.17-.01-.15.05h.12c-.03.07-.2.1-.3.15-.1.3.16.65-.08.9h-.1c-.13-.01.18.1.06.1l.05.04c-.02.01-.05.02-.08 0-.01.03.01.03.05.06l-.08.02c-.08.1.06.23.01.35-.18.13-.07.43-.01.6.16.25-.38.45-.2.7-.02.01.02.03.03.03l-.05.2s-.2 1.02.97.4l.03.01c.08-.1.1-.18-.02-.28.17.01.03-.1.1-.1h.01c-.12-.1.13-.13.02-.22.01 0 .06.01.06.03-.01-.05-.04-.13.06-.12-.01-.12.06-.28-.1-.38h.03c-.1-.06-.01-.06-.06-.1h.03c-.1-.06 0-.14-.04-.18l.07.01v-.1.03c-.18-.04.12-.06.02-.14.03-.06-.36-.18-.26-.24-.08-.04.13.05.08-.01.1.01.06.03.13.03-.04-.05.1-.06.05-.13l.07.01c-.12-.1.12-.13-.01-.2-.05-.1.23-.02.1-.12l.1-.02c.02-.03-.12-.04-.07-.07.06.01.06-.04.1-.01.1-.07-.12-.2.07-.28-.12-.04-.04-.1-.13-.12.05 0 .02-.1.13-.03.01.01.01.02-.02.01l.07.02c.15-.05-.06-.13-.03-.2-.03.02-.02.04-.07.02v-.06l.06.02.05-.08h-.08c.04-.04.18-.04.08-.1-.06-.03-.1.03-.13-.02.06-.05.15-.13.18-.2-.1 0-.08-.02-.1-.05l.07.01c-.1-.1.17-.01.1-.1l-.1-.03c-.14-.1.16-.02-.03-.12.01.03-.17-.01-.13-.04l.07.02c-.01-.02-.04-.03-.02-.05.04.02.1.02.1-.01l.1.03-.12-.08c.08-.03 0-.12.1-.12 0 0 .06-.1-.04-.13.07.03.1-.02.18.01-.07-.04-.13-.12-.04-.14l.01.01c.1-.1-.1-.2.03-.3-.1-.01-.03-.05-.14-.06-.1-.12.25-.16-.1-.24-.01-.05.1-.04.1-.07l.02.01c-.02-.1-.02-.12 0-.18-.03-.04-.2-.06-.14-.12.06.03.05 0 .05-.02.01.02.03.02.08 0-.02-.01-.03-.01-.04-.02 0-.04-.02-.04-.03-.02h-.04c.1-.03.01-.1.12-.1-.01-.1-.1-.2-.14-.3.06 0 .1.03.12.05l-.01-.07c.08.01.04.04.05.07.14-.06-.1-.18.02-.25l-.06-.03h.01c-.03 0-.08-.03-.08-.05.07 0 .16.02.16-.02.07-.03-.02-.1-.05-.16-.02.02-.05.01-.08 0 0-.02.07-.03.04-.05l.1.01c-.04 0-.06-.02-.07-.03.86.15 1.66.25 2.5.3.23.34 2.1.43 2.7.63l-.06.01c.8.04 1.6.24 2.4.44.26.06.27.08.32.1s.12.04.18.06c.05.12.03.2.1.42-.03-.08-.1-.06-.12-.17.01.06.01.05.03.16l.05.45.08.86c.04.53.04.93-.04.98l.36 4.4a48.06 48.06 0 0 0 .21 2.07l.12.87.03.2c.01.06.02.06.03.1l.06.15-.05-.06c.06.12.1.23.1.33-.1.05-.2.07-.32.1-.07.02-.14.05-.22.07-.14.05-.3.1-.48.2-.06 0-.14.01-.13 0-.95.5-2.93 1-3.72 1.33l-.1-.1-2 .68.76-.22c-.16.38-1.58.32-2.97.98-.85.26-1.64.78-2.46 1.2l-1.6.54c.03-.06-.03-.07-.4.1-.08-.14.44-.25.14-.3-.96.4-1.67.38-2.86.88l-.1-.1c-1.3.64-2.64.8-3.6 1.18a17.47 17.47 0 0 0-1.2.25l.1.17c-.85.23-.83-.07-2.18.58l-.72.06c-.74.2-.46.37-1.3.56.02-.12-1.05.26-.6.01-1.9.45-3.65 1.45-6.15 1.98-.46.37-1.7.65-2.06.93-.1-.06-2.44.8-1.14.15.1-.05.32-.12.32-.08l.13-.17c-1.45.23-2.46.94-3.84 1.36.42-.1.95-.28.62-.08l-1.27.4.23-.18-1.9.56.3.04c-.94.24-1.34.14-2.32.66-.44.25.93-.12-.03.23-.82.18-2.6.67-2.4.55z"/><path d="M241.1 318.23l1.23-1.97.3-.37 1.08-1.2c-.02-.03-.04-.07-.05-.1l1.34-2.14 1.38-1.9c4.7-7.26 7.2-14.26 9.85-22.85 1.67-5.16 3.4-12.77 4.8-20.52 1.4-7.76 2.55-15.66 3.34-21.45l3.5-25.32c2 5.67 3.83 10.1 5.64 15.6.03-.34 1.15 3 1.03 2.13 2.5 6.45 3.87 12 5.24 14.16 1.08 2.95 1.12 3.56 1.63 5.1l-.28-.7 4.02 11.28c.77 2.04 1.14 2.28 2.37 6-.52-1.16.03.34.5 1.73-.32-.88-.46-1.14.1.7.12.24.28.63.42 1 0 .02.02.1-.01.06.84 2.3.73 1.88.37.8.03.05.02-.05-.06-.4.7 2.44 2.32 6.68 2.24 7.03l6.2 17.65c.12.68-.4-.65-.98-2.33l1.37 4.12c-.14.01-.84-2.35-1.28-3.6 1.38 4.98 3.48 10.07 5.16 15.9l.5 1.16.1.35c.05-.03.54 1.23.83 2.08.15.85-.27.03.65 2.88.62 2.3 2.13 6.4 3.14 9.33-.5-1.6-.27-1.1-.01-.43.47 1.43.62 2.28 1.02 3.37l-.08.14c.17.16 1.35 3.76 1.57 4.23.15.85-.8-2.18-1-2.5l2.8 8.57c1.1 3.02-.04-.6.57.82.9 2.68 1.86 5.28 2.77 8.4l-.18-1.02c1.74 5.03 2.7 8.06 3.67 11.52 13.28 37.35 4.05 7.46 4.05 7.46-4.5-14.94-7.37-22.47-13.2-40.1l-11.35-35.82c-2.5-7.7-5.38-15.8-8-23.26-1.43-3.47-3.43-9.78-5.07-13.9l-.46-1.66c-.57-1.42-1.2-3.1-1.65-4.56l.07.08c-.85-2.12-1.66-4.56-2.08-5.62l.06.08-.94-2.6.2.43c-1.42-3.72-2.8-7.57-3.98-11l-.04.33c-2.45-7.33-3.68-9.9-5.86-16.5l.07.08-.82-2.06-.4-1.04.54-4.13.74-6.12c-2.6 0-5.17-.01-7.72-.01l-6.38.08c-.27-.02-.76-.01-1.18.01l-.54.03c-.14.01-.23.02-.22.02l-15.36-.05s-74.48-.2-17.9 1.67l-.38.05c8.4.13 13.7.16 19.5-.07.92.3 6.9.04 8.87.14l-.2.02c5.13-.2 10.56.2 15.5.01-.2.02-.3.1-1.43.1l5.23-.03c-.05.3-.1.56-.1.74-.07.44-.13.72-.17.77l-3 25.93v-.38c-.24 3.14-.53 4.03-.93 7.52-.05.2-.1.43-.1.4-.3 3.4-1.45 9.87-1.83 12.6l-.14.16-1.1 6.7.45-2.5c.16.92-1.05 5.04-1.8 9.92-.9 4.52-1.26 9.3-2.6 13.92-.46 2.24.3-2-.5 1.32-.18.07.32-1.56-.03-.75-.8 3.26-1.6 5.25-2.85 9.18l-.17.12c-1.56 5.16-3.93 9.32-5.46 12.53-1.3 2.44-1.9 3.17-2.46 3.94s-1.14 1.56-2.68 4.02l-1.42 1.76c-1.42 2.05-.86 1.57-2.43 3.88-.03-.23-1.88 3-1.14 1.54-.42.7-.85 1.28-1.26 1.93-.42.64-.8 1.3-1.3 1.92-.96 1.27-1.86 2.6-2.94 3.92-2.08 2.67-4.43 5.47-7.23 8.46-1.03 1.47-3.85 4.48-4.64 5.56-.2.1-5.57 6.12-2.6 2.55.26-.3.73-.83.72-.77l.28-.5c-3.3 3.3-5.65 6.35-8.84 9.7.97-.97 2.2-2.3 1.44-1.37l-2.96 3.13.54-.72-4.45 4.62.7-.55c-2.2 2.23-3.12 2.9-5.44 5.56-1.04 1.23 2.18-2.03-.08.4l-11.2 11.2c.45-.26-.56.77-1.57 1.85l-.2.04c-3.86 4.18-1.65 1.3-5.5 5.42l-.57.83c-3.4 3.8-2.1 1.76-5.87 6.03.8-.8 1.02-.95.8-.64-.1.15-.32.4-.64.76l-.54.57c-.2.2-.45.47-.62.6l.34-.5c-.3.3-.4.43-.55.53-.15.1-.28.17-.42.2a1.43 1.43 0 0 1-.87 0c.3.04.38-.02.2-.07-.08-.03-.22-.07-.42-.16a2.03 2.03 0 0 1-.32-.2 23.07 23.07 0 0 0-.56-.44c.2.12.46.3.6.38.1.05.17.06.26.1-.13-.05-.25-.12-.45-.27l-2.58-1.86c-2.47-2.15-6.6-5.27-7.55-6.25 0 0-5.43-4.47-6.8-5.34 1.17.8-1.82-1.67-.87-1.08-1.5-1.04-5.76-4.33-7.35-5.8l.33.24-4.34-3.54c-.4-.32-.52-.42-.7-.67-.16-.22-.27-.48-.33-.73a1.94 1.94 0 0 1 .27-1.5l1.43-1.92 1.5-1.97 3.17-4.05c-.3.17 2.05-2.78 1.34-2.15 4.36-5.98 8.5-10.47 9.7-12.94 2.03-2.7 2.53-3.08 3.62-4.45l-.46.65 7.78-10.2c1.38-1.9 1.4-2.34 4-5.64-.75 1.15.3-.22 1.22-1.5-.58.83-.73 1.1.54-.54.14-.26.38-.64.6-1 .02-.01.07-.07.05-.03 1.44-2.2 1.15-1.85.47-.84.02-.06-.05.01-.3.3 1.67-2.18 4.04-6.45 4.34-6.66 1.96-3.44 3.45-6.5 4.76-9.44 1.3-2.95 2.44-5.8 3.4-8.97.3-.68-.05.82-.68 2.64.53-1.47 1-2.97 1.42-4.47.13.08-.7 2.6-1.17 3.97 2.05-5.23 3-11.1 4.24-17.5l.1-1.35.08-.38c-.06.01.06-1.45.16-2.4.2-.9.3.1.58-3.13.35-2.58.2-7.26.26-10.57-.07 1.8-.12 1.2-.14.44.04-1.6.2-2.52.17-3.76l.13-.12c-.1-.22 0-4.28-.03-4.82.15-.9.02 2.5.1 2.9l.32-9.64c.01-3.44-.17.62-.25-1.03.1-3.03.1-6 .35-9.46l-.2 1.1c.14-5.7.33-9.1.66-12.92l.4-15.9v-.2l.06-.01.26-.02c.17-.01.34-.03.5-.04l1.62-.15 1.2-.13c2.82-.32 2.6-.47 1.06-.53-.77-.03-1.87-.03-3.1-.02l-1.53.04-.88.03c-.08.23-.06.56-.1.84l-.2 2.54-.36 4.56c-1.24 16.68-1.23 25.32-1.75 45.2-.17 4.36-.2 7.98-.45 11.05-.27 3.1-.7 5.84-1.17 8.57a127.28 127.28 0 0 1-1.84 8.59c-.8 3.12-1.75 6.62-3.44 10.72-3.34 7.83-7.77 15.93-12.7 22.62-2.24 3.3-6.74 8.8-9.48 12.66l-1.2 1.4c-.95 1.33-2.08 2.88-3.13 4.15l.04-.1c-1.42 2-3.13 4.15-3.84 5.14l.03-.1-1.8 2.36.27-.44c-2.52 3.44-5.18 6.92-7.57 9.96l.3-.17c-2.58 3.23-4.27 5.5-5.9 7.67-.2.25-.5.67-.65 1.07-.17.4-.3.85-.32 1.3-.06.9.17 1.82.7 2.6.13.2.28.38.44.56.15.17.38.37.5.47l.92.75.04.04-.18.32-.07.07c.03.02-.2.35-.34.56-.2.15-.1-.12-.66.56-.5.5-1.22 1.54-1.76 2.26.32-.37.25-.22.13-.05-.28.34-.5.5-.68.77l-.1-.03c.18-.08-.65.94-.72 1.1-.2.15.38-.56.4-.68l-1.66 2.04c-.54.77.18-.07-.04.32-.5.63-.94 1.27-1.56 1.95-.06-.03-.1-.05-.16-.07-.16-.06-.32-.12-.48-.15-.64-.15-1.25-.14-1.82 0s-1.1.42-1.6.85c-.5.5-.7.83-1.15 1.3l-.01-.05c-1.55 2.64-3.1 3.7-4.56 6.5.18-.35-.16.1-.17.05-.77 1.22-1.57 2.54-1.34 2.7-.56.9-.53.67-.7.73.1.06-.32.84-.76 1.53l.16-.34-1.23 1.98.45-.26c-.73 1-.4.1-1 1.14l.17.1c-.48.7-.9 1.24-1.35 1.76l-.33.4c-.01.01-.01.02-.02.03l-.08-.08c-.33.42-.7.97-1.13 1.53l-.9 1.2c-.14.2-.27.37-.4.6-.15.2-.3.52-.4.78-.42 1.1-.3 2.45.4 3.44.18.25.37.47.6.67.25.22.37.3.57.44l1.07.8 2.13 1.6c2.83 2.14 5.58 4.27 8 6.4l.13.3c-.04.24 1.6.86 1.67 1.16l.65.4c.14.16.47.47.14.27.54.44.58.42 1 .68l.5.57c2.1 1.78 4.08 3.02 6.3 4.86 2.5 2.4 7.72 6.34 10.72 8.6 1.07.77 2.14 1.64 3.2 2.55l.8.7c.26.24.6.52.96.73.7.43 1.57.76 2.46.73 2.88.1 5.77.22 8.48.02.18.03.63-.04.63-.07l4.96.01 1.77-.01c1.08-.03 2.5.01 4-.1.74-.05 1.65-.1 2.5-.57.2-.12.4-.26.57-.4.08-.08.17-.15.24-.23.08-.1.2-.2.25-.3a2.95 2.95 0 0 0 .42-1.23c.08-.72.02-1.27-.02-1.7-.05-.43-.1-.75-.18-.9l-.22-.52-.2.08c-.01 0-.02.01-.03.01l.02-.35-19.34-.18c.5-.5 1-1 1.6-1.45l.25-.37.1-.07c-.04-.04.25-.4.46-.64.3-.12.17.2.92-.5.35-.24.78-.67 1.22-1.13l1.8-1.36 1.67-1.36a33.76 33.76 0 0 1 1.3.23c1.08.13-.16-.2.37-.2.94.17 1.88.35 2.88.83l-.28-.25c1.73.55 2.7 1.15 3.57 1.98a9.5 9.5 0 0 1 2.88 2.79c.28.43.5.83.66 1.17l.2.47c.05.15.07.3.1.43.12.56.17.73.26.78.08.04.16-.1.23-.34.03-.17.06-.38.07-.62.01-.12.01-.25.01-.38-.02-.1-.03-.2-.05-.32-.06-.44-.2-.93-.37-1.36-.33-.87-.78-1.52-.78-1.52-.7-1.1-1.53-1.9-2.37-2.55-.85-.65-1.72-1.13-2.6-1.5-.9-.4-1.8-.68-2.8-.92-.5-.14-1-.2-1.52-.32-.26-.06-.53-.1-.8-.13l-.42-.06c-.08-.01-.12-.03-.23-.02-.02 0-.05-.01-.08-.01l-.22-.46c-.06-.2-.3-.56-.3-.56l-1.93-4.5s-2.36-5.44-4-8.74c-.4-.77-.74-1.42-1-1.86.57-.73 1.73-3.34 1.73-3.34 1.13-2.42 1.85-4.3 2.57-6.34l1.13-3.23.32-.9.15-.4c1.7 1.3 2.93 2.2 3.1 2.12a3.37 3.37 0 0 0 2.13.69c.53-.01.84-.12 1.03-.17.4-.12.35-.07.63-.17-.03-.02.17-.17.45-.45l.87-.95 2.53-2.6-.8.87 5.1-5.22-1.17.86c2.77-2.7.9-.5 3.46-3.18l-.17-.1c3.78-3.8 6.2-5.84 9.9-9.46 7.53-7.72 15.17-15.88 22.57-24.02l10.83-12.17 5.1-6.04c.83-1 1.66-2 2.43-3.03s1.6-2 2.3-3.1l.62-.7c.1-.06.33-.4.62-.88.3-.5.58-1.1.9-1.72.57-1.2 1.3-2.48 1.6-2.74zM138.76 374.3l3.33-3.9 1.04.87-.1-.04c7.6 5.62 11.46 9.55 19.26 15.37-.97-.73.36.38.26.35.1.07.17.14.26.2-.24.07-.48.14-.68.24a4.38 4.38 0 0 0-.65.33c-.8.47-1.38.96-1.9 1.42a22.21 22.21 0 0 0-1.47 1.43c-.2.23-.4.45-.62.7-.03.03-.04.04-.05.04-.26-.15-1.53-.84-2.62-1.4-2.4-1.35-5.02-2.7-7.4-3.97-1.22-.43-3.1-1.7-4.52-2.27l-.46-.4c-.5-.2-1.04-.46-1.47-.76h.05c-.73-.3-1.47-.77-1.83-.9l.04-.02-.84-.44.17.03a38.75 38.75 0 0 1-3.53-1.87l.02.18c-.07-.05-.13-.08-.2-.12l3.93-5.04zm-4.64 4.4c-.04.06-.08.1-.12.15l-.06-.03.18-.12zm45.45 52.43l.07-.97c.01.01.02.02.04.02l.27.13-.05.1c-.13.2-.24.82-.45 1.88-.12.5-.28 1.2-.8 1.48-.56.4-1.3.43-2.37.35l.12-.05c-2.7-.01-4.4-.1-6.27.17-.3-.3-2.23-.02-2.86-.1l.06-.02c-1.65.23-3.4-.17-5 .04.06-.02.1-.1.46-.1-1.16.04-2.75.1-2.83-.05l-2.23.03-1.18.01h-.46c-.13-.02-.28-.04-.42-.08-.57-.16-1.05-.44-1.54-.83-.53-.4-1-.72-1.4-.95l.12.04c-.9-.5-1.03-.8-1.97-1.46-.03-.06-.1-.12-.07-.1-.97-.56-2.5-2.02-3.25-2.52l.03-.12-1.72-1.37.62.54c-.4.06-1.17-1.2-2.53-2.06-1.13-.97-2.74-1.42-3.85-2.52-.66-.36.65.23-.27-.38.07-.15.46.25.32-.03-.88-.63-1.28-1.25-2.4-2l.04-.13c-1.5-.9-2.48-2.17-3.53-2.72-1.48-1.03-.72-1.04-2.34-2l-.47-.58c-.6-.52-.58-.2-1.23-.8.1-.05-.83-.76-.36-.52-1.48-1.38-3.35-2.35-5.26-4.2-.58-.2-1.55-1.12-2-1.26 0-.1-2.1-1.67-.8-.9.1.07.3.2.25.23h.22c-1.04-1.12-2.24-1.6-3.4-2.56.32.3.8.66.43.48l-1.08-.87.3.1-.8-.66-.2-.16-.1-.1c-.07-.08-.13-.16-.18-.24v.22c-.18-.27-.2-.5-.2-.7-.02-.22-.03-.4-.05-.77-.03-.36-.3.6-.2-.12.06-.18.16-.37.3-.54.16-.2.37-.47.6-.73.1-.14.23-.27.35-.4l.18-.2.05-.04.02-.02 1.5 1.18c.1.1.23.17.34.26a5.87 5.87 0 0 0 .52.4c.03.02.06.05.1.07l-.17-.03.17.03 1.13.87 2.44 1.83-.05-.02.1.05 1.74 1.3 1.62 1.23c.06.06.1.12.13.17 0 0 1.68 1.45 2.22 1.65-.37-.15.54.63.18.52.54.27 1.96 1.27 2.42 1.8l-.1-.07a25.2 25.2 0 0 0 1.63 1.33c.02.1.23.23.5.38 1.07.8 2.08 1.5 3.1 2.45 0-.05.1-.01.2.05l.1.12c2.07 1.76 4.05 2.98 6.26 4.8 2.2 2.02 6.4 5.14 9.46 7.36l3.66 2.9c-.04-.02-.07-.04-.1-.07l-.5-.4a5.33 5.33 0 0 0-.32-.24 7.92 7.92 0 0 0 .6.55c.14.1.28.26.43.33l.27.13.13.1h.1c.13.06.3.02.44.03l.05-.03 20.98.12zm-14.06-41.6c-.1.08-.04-.03-.1-.14-.1-.1-.22-.2-.28-.2.1.08.15.16.2.23.01.07-.04.14-.05.18-.04.1-.06.16-.08.22l-.56 1.44c-.3 1.06.2-.13.15.4-.33.9-.57 1.83-1.07 2.83l.26-.28c-.57 1.73-.98 2.74-1.57 3.82-1.05 3.47-1.5 5.3-1.62 6.15-.4-.48-.44-.03.13 2.08-.18 0-.26.2-.48.3-.26.03-.36-.1-.6.02-.12.02-.24.1-.36.14-.02.14-.16.04-.2.16l-.04-.06c-.01.04-.03.07-.07.04v-.02c-.02.06-.07.04-.08.07v-.02l-.04.02v-.03a.16.16 0 0 1-.17.08l.03.08c-.14-.06-.14.12-.27.04v-.02c-.07.26-.25-.1-.33.15.01-.03-.02-.04-.02-.06-.06.04-.12.07-.08.24-.05.01-.05-.04-.07-.1.02.07-.01.1-.05.13l.01-.03-.1.05.06.13c-.06-.02-.06-.16-.1-.12l.03.1c-.08 0-.17-.16-.27-.23-.32.03-.56.4-.9.3l-.04-.08c-.04-.12-.03.2-.07.1l-.02.07c-.02-.02-.04-.04-.03-.07-.03 0-.03.02-.04.07l-.05-.07c-.14-.03-.2.15-.33.15-.2-.12-.44.1-.58.23-.18.25-.58-.17-.76.1-.01-.02-.02.03-.02.04l-.22.04s-1.06.23.01 1.05v.03c.14.03.2.03.26-.13.06.16.1-.01.14.04v.01c.04-.15.18.07.22-.07 0 .01.01.06 0 .07.04-.03.1-.1.13.01.1-.06.3-.06.33-.23v.03c.02-.12.05-.03.1-.1.01.01.01.02.01.02.02-.12.14-.05.16-.1l.02.06.1-.04h-.04c-.04-.18.1.1.14-.04.07 0 .03-.4.12-.34.01-.1.01.14.04.07.03.1-.01.06.03.13.04-.06.1.07.14 0l.02.07c.04-.15.17.06.2-.08.06-.08.1.2.15.04l.06.1c.04.01-.01-.13.04-.1.01.06.06.04.06.1.1.07.14-.18.3-.05-.01-.13.07-.07.06-.17.02.05.12-.02.08.1 0 .01-.01.01-.02-.01l.01.07c.1.12.1-.1.17-.1-.03-.02-.05-.01-.05-.06h.06v.06l.1.01-.03-.07c.05.03.1.15.12.03.01-.06-.07-.1-.03-.12.07.03.18.1.26.1-.03-.08-.01-.08.01-.1l.02.07c.05-.12.07.15.13.05l-.01-.1c.03-.16.08.14.1-.08-.03.02-.06-.15-.01-.13l.01.07c.02-.02.02-.05.03-.04 0 .04.02.1.05.08v.1l.02-.14c.07.06.1-.05.16.04 0 0 .1.02.1-.1 0 .07.06.08.07.17.01-.08.06-.16.12-.1h0c.13.05.16-.16.3-.1-.03-.08.04-.05 0-.15.08-.13.25.17.2-.17.04-.03.08.06.1.07l-.01.02c.08-.05.1-.06.17-.07.02-.04-.01-.2.06-.17 0 .07.02.05.04.04-.01.01-.01.04.03.07 0-.02 0-.03.01-.04v.01c.03-.03.02-.05 0-.05 0-.01-.01-.02-.02-.04.06.07.1-.03.14.07.1-.05.15-.18.23-.25.02.05.02.1 0 .13l.06-.04c.02.08-.03.05-.04.08.1.1.13-.17.25-.08v-.07l.01.01c-.01-.03 0-.08.01-.1.03.06.04.16.1.14.05.06.1-.06.13-.1-.03 0-.03-.04-.03-.07.02-.01.05.06.06.02l.03.1c-.03-.08.03-.1.03-.15.03.06-.02.07-.01.12.1-.03.04-.02.13-.05.03-.08-.03-.08-.03-.17.04-.03.06-.1.13-.06l-.04-.08c.06-.08.1-.1.2-.02.01-.02.01-.03.02-.04.27.92.63 2.07 1.1 3.5l-.1-.1c.04.1.07.2.1.3-.02.02-.04.05-.07.07-.24.06-.36-.07-.57.1-.12.03-.22.12-.32.18 0 .14-.14.06-.16.2l-.05-.06c-.01.04-.02.08-.06.05h-.01c-.01.06-.06.05-.06.08l-.01-.02-.03.02-.01-.03c-.03.08-.1.1-.15.1l.04.08c-.14-.04-.1.14-.25.07l-.01-.02c-.03.26-.25-.06-.3.2 0-.03-.02-.04-.03-.06-.05.05-.1.1-.04.24-.04.02-.06-.03-.1-.1.03.07.01.1-.03.13v-.03l-.08.06.07.12c-.07-.02-.08-.15-.1-.1l.05.1c-.08.01-.2-.14-.3-.2-.3.07-.48.47-.8.4l-.05-.08c-.06-.12 0 .2-.05.1l-.01.07c-.02-.02-.04-.03-.04-.07-.03.01-.02.03-.03.07l-.06-.06c-.13-.01-.17.17-.3.2-.2-.1-.4.16-.52.3-.14.27-.58-.1-.7.2-.01-.01-.02.03-.01.05l-.2.07s-.97.36.17 1.03l.01.03c.13.02.2 0 .23-.16.08.15.1-.02.14.02h0c.01-.15.18.04.2-.1 0 .01.02.06.01.07.04-.04.1-.1.13-.01.1-.07.27-.1.28-.27l.01.03c0-.12.05-.04.07-.1.01.01.01.02.02.02 0-.12.12-.07.14-.13l.03.06.08-.05h-.04c-.06-.17.1.08.13-.06.07 0-.03-.4.07-.35 0-.1.03.14.05.06.04.1 0 .06.04.13.03-.06.1.06.14-.02l.03.07c.02-.15.17.03.16-.1.05-.1.13.18.15.02l.07.08c.04 0-.03-.12.03-.1.02.06.06.03.07.1.12.06.1-.2.28-.1-.03-.12.06-.08.04-.17.02.05.1-.04.1.1 0 .01-.01.01-.02-.01l.02.07c.1.1.08-.12.15-.12-.03-.01-.05 0-.05-.05l.06-.01.01.06h.1l-.04-.07c.06.02.12.13.12.01 0-.06-.08-.08-.05-.12.07.03.2.06.26.05-.04-.08-.02-.08-.01-.1l.03.07c.03-.13.1.14.13.03v.05l-.04-.15c.01-.16.1.13.1-.1-.02.02-.08-.15-.03-.13l.02.07c.01-.02.01-.05.03-.04 0 .04.03.1.06.08l.02.1v-.15c.07.05.1-.06.16.02 0 0 .1.01.1-.1.01.07.07.07.1.16-.01-.08.04-.17.1-.1h0c.14.04.13-.18.26-.13-.04-.08.03-.06-.03-.15.05-.14.26.13.16-.2.04-.04.08.05.1.06v.02c.07-.06.1-.07.16-.1.02-.04-.04-.2.03-.18.01.07.02.05.04.04-.01.01 0 .04.04.07v-.04c.03-.02.02-.04 0-.04 0-.01-.01-.02-.02-.03.07.06.1-.05.14.05.1-.07.12-.2.2-.27.03.05.03.1.02.13l.05-.04c.03.07-.02.06-.03.08.12.1.1-.18.23-.1l-.01-.07h.01a.17.17 0 0 1 0-.1c.04.06.06.15.1.13.06.05.08-.07.1-.12-.03 0-.04-.04-.04-.07.02-.01.06.05.06.01l.04.1c-.02-.04-.02-.07-.01-.1.01.02.02.04.02.06v.01c.7 1.77 1.3 3.05 2.06 4.35-.14.4.86 2.04 1.02 2.65l-.05-.04a8.87 8.87 0 0 1 .56 1.11l.24.58.1.3.05.15.01.05c0 .06.03.13.05.2-.05.04-.1.07-.14.1l-.3.28c-.04.04-.08.1-.13.13.04-.05.1-.12.2-.2-.87.75-2.06 1.78-2.23 1.7l-3.52 2.87a46.12 46.12 0 0 0-1.63 1.38l-.67.6c-.1.1-.2.2-.27.26l-.05.07h-.02v-.01c-.18-.02-.4-.02-.66-.01h0c-.12-.08-.25-.18-.4-.3-.03-.06-.1-.1-.07-.1-.97-.53-2.52-1.95-3.27-2.43l.02-.12-1.73-1.32.62.52c-.4.07-1.17-1.17-2.54-2-1.14-.94-2.75-1.35-3.86-2.42-.66-.34.65.2-.28-.37.07-.15.46.24.32-.04-.9-.6-1.28-1.22-2.4-1.95l.03-.13c-1.5-.9-2.46-2.14-3.5-2.68-1.46-1.02-.7-1.03-2.32-1.98l-.46-.58c-.6-.5-.57-.2-1.22-.8.1-.05-.82-.75-.35-.5a14.95 14.95 0 0 0-1.21-1c-.1-.1-.2-.2-.32-.32h.05l-1.07-.66c-.85-.62-1.75-1.3-2.65-2.18-.58-.2-1.54-1.1-1.97-1.24 0-.05-.48-.44-.83-.74.02-.04.06-.08.1-.12.1.07.24.18.2.2l.2.01c-.1-.1-.2-.2-.32-.3.01-.01.01-.02.02-.02l-.38-.3a8.78 8.78 0 0 0-.69-.51c-.42-.3-.8-.57-1.08-.7-.3-.2-.6-.42-.92-.67.32.3.8.66.43.48l-.5-.4c-.14-.16-.07-.18-.1-.28-.03.04-.17-.02-.37-.14l.17.06-1.57-1.3.14.27c-.75-.67-.9-1.06-1.9-1.62-.22-.1-.1.04.01.16-.08-.06-.17-.14-.32-.25l-.04.06-.7-.62-.7-.62-.08-.08c-.05-.08-.16-.14-.04-.22.03-.03.06-.07.1-.12l.03-.04.1-.13.17-.27c-.2.06.04-.32.26-.74l.13.02c.82-1.62.58-.4 1.44-2l.03-.36c.68-1.5.7-.6 1.4-2.3-.37.62-.4.14.1-.58l-.02.26c.24-.43.28-.6.47-.85-.1.28.07.22.43-.4l-.13.48.53-1.25c.67-.8 1.45-2.25 1.83-2.5 0 0 1.33-1.78 1.5-2.3-.17.43.58-.54.5-.18.23-.54 1.16-1.97 1.7-2.42l-.07.1c.4-.47.78-.94 1.12-1.38.2-.27.4-.4.68-.53.28-.1.63-.13.96-.03a1.69 1.69 0 0 1 .24.08l.1.05.17.1a13.68 13.68 0 0 1 .71.44c-.02-.18 1 .47.82.16 2.16.97 3.6 2.4 4.6 2.3.96.5 1.05.73 1.53 1.02l-.24-.1 3.6 1.93c.68.3.9.13 2.05.83-.43-.1.06.13.5.37-.3-.14-.4-.15.15.23.1.02.23.07.36.12 0 .01.02.03 0 .03.75.37.64.27.3.07.02 0 .01-.04-.1-.12.7.54 2.12 1.15 2.13 1.36 2.22 1.17 3.88 1.87 5.75 2.8.16.2-.3.03-.86-.23l1.32.68c-.08.1-.78-.34-1.2-.54a10.66 10.66 0 0 0 1.27.76l.9.45c.36.17.72.37 1.06.52.37-.57.83-1.23 1.13-1.6a7.62 7.62 0 0 1 .92-.97l.2-.37.1-.07c-.05-.04.22-.4.42-.63.3-.1.16.2.9-.44.62-.4 1.67-1.25 2.48-1.2-.42-.02-.3-.1-.1-.12.4.02.58.2.86.3l-.05.16c-.01-.05.04-.05.12-.03.06.01.15.06.24.12s.17.15.24.23c.15.07.05.15.1.17z"/></svg>