<svg xmlns="http://www.w3.org/2000/svg" viewBox="0 0 480 480" xmlns:v="https://vecta.io/nano"><path d="M2711.8 107l.5-.12c-.02-.02-.15 0-.5.12zm19.8-3.25h-.03c-.04.01-.1.02-.13.04l.16-.04z"/><path d="M389.74 404.86l-1.5-2.9-.04.02-.16-.32c-1-1.8-4.9-1.9-7.9-2-8.9-.4-29.9-3.5-29.9-3.5l-1.1-1c-.8-.8-2.1-1-3-.4l-3.32 1.87-3.97-6.53 1.9-.94c1.4-.7 2-2.3 1.4-3.7-5.4-11.8-28.3-62.5-34.5-79.6-7.9-22-25.6-58.8-31.7-73.3-2.35-5.56-4.7-11.44-6.7-16.6l1.6-10-6.72.1h-66.38c-.8 4.6-1.8 15.2 2.7 26.7.13.33.28.67.42 1-1.9 16.72-4.47 36.86-6.92 46.6-3.4 13.6-6.2 30.7-10.5 38.3-5.4 9.6-28.1 46.1-34.3 56.1-.9 1.5-.6 3.4.7 4.5l.05.04-3.72 4.57-2.13-1.9c-.9-.8-2.2-.8-3.4-.1l-7.7 6.2c-3.1 2.5-6.2 6.2-8.1 8.6-1 1.4-1 3.4.2 4.7l27.1 30.2.25.01 1.15 1.3c.9 1 2.2 1.6 3.5 1.6l24.8.2c1.4 0 2.6-1.1 2.6-2.5v-3l-.2-.01c.01-.25.01-.5-.01-.8.2-.3-.3-1.3-2.5-3.1-3-2.6-10.9-5.3-10.9-5.3l-2.2-11.7.9-2c.3-.6.1-1.3-.4-1.8l-1.23-1.1 4.44-5.55 3.1 2.55c1.5 1.2 3.6 1 4.7-.5l48.2-60.5c10.33-10.8 16.05-19.04 20.02-28.93 10.08 14.9 16.1 23.44 26.28 39.53l33 52.5c.9 1.4 2.6 1.9 4 1.1l2.6-1.28 4.82 7.7-1 .57c-1.2.6-1.7 2.1-1.3 3.4.8 2.1 2 5.3 3.2 8.9 1.2 3.7 3.2 7.9 4.9 10.5 1 1.5 2.9 2 4.5 1.3l58.8-25.8c.27-.13.5-.3.7-.47 1.1-.75 1.5-2.22.88-3.53z" fill="#fff"/><path d="M215.2 207.3h0l-.52.1zm103.16 126.57l.02-.05c-.02-.01-.03-.01-.02.05z"/><path d="M390.5 405.35c-.25-.64-.5-.8-.52-.6-.06.2.2.9-.18 1.98-.1.26-.26.53-.48.78a2.49 2.49 0 0 1-.38.34 1.76 1.76 0 0 1-.23.14l-.3.18c-.17.1-.35.18-.54.24l-.73.24-1.65.55.1-.1c-2.75 1.08-4.46 1.8-6.22 2.84-.4-.13-2.23.95-2.9 1.14l.05-.05c-1.56.93-3.47 1.32-4.97 2.2.05-.05.05-.14.42-.3-1.14.54-2.7 1.3-2.85 1.18l-8.3 3.9.1-.1c-.94.6-1.3.6-2.4 1.18-.07.01-.15.03-.15.02-1.03.65-3.2 1.43-4.05 1.9l-.1-.08-2.18.98.83-.34c-.16.4-1.73.55-3.24 1.43-1.5.62-2.76 1.9-4.36 2.44-.68.45.55-.5-.5.1-.1-.13.47-.32.14-.3-1.05.54-1.84.63-3.12 1.3l-.1-.1c-1.65.97-3.34 1.3-4.4 2-1.75.88-1.35.2-3.12 1.23l-.8.16c-.8.33-.5.44-1.4.75.01-.12-1.15.4-.67.1-.52.18-1.02.4-1.54.63l-.77.37c-.22.1-.4.18-.6.23-.82.23-1.93-.05-2.47-.94-.2-.07-.5-.52-.76-.92s-.5-.8-.68-.97c0-.02-.05-.14-.13-.3l64.3-28.1-.25-.6c3.77 5.75 1.8 1.15.95-.68l-.46-1-.17.07c-.72-.82-1.53-1.16-2.2-1.42-.74-.25-1.42-.38-2.08-.48-1.3-.18-2.48-.2-3.67-.2l-8.25-.4c-6.07-.74-7.64-1.22-13.94-1.94l-4.6-.62-2.3-.3-.57-.07-.27-.04h-.03c-.03 0-.01 0-.06-.04l-.4-.36c-.2-.13-.37-.27-.73-.54a3.9 3.9 0 0 0-1.19-.59c-.88-.27-2-.23-2.9.37l.07-.04c-.56.32-1.1.64-1.53.95l-.62.2c-.2.14-.42.3-.64.42-.5-.9-1.2-1.74-1.8-2.97-.28-.22-.6-.9-.82-1.07.02-.06-.8-1.3-.24-.64a.94.94 0 0 1 .1.17l.12.05c-.08-.2-.18-.38-.3-.55l.54-.28c.28-.15.5-.26.8-.44a3.43 3.43 0 0 0 .77-.62 3.31 3.31 0 0 0 .81-1.48c.25-1-.03-1.73-.2-2.07-.18-.34-.26-.35-.22-.1.03.27.26.92-.02 1.87a2.95 2.95 0 0 1-.95 1.42c-.5.42-1.27.64-2.07 1.02l-14.8 6.67.33-.22-10.1 4.9-3.15 1.6c-.37.18-.6.34-.86.4-.5.16-1.07.1-1.57-.15-.25-.13-.48-.3-.68-.52-.1-.1-.18-.2-.3-.36l-.32-.47c-.27-.97-3.82-6.14-4.84-7.93l.12.15c-3.04-4.43-5.73-9.46-8.65-13.73.13.16.25.2.9 1.2-2.04-3.17-4.83-7.5-4.84-7.83l-14.75-23.02.25.3c-1.9-2.68-2.3-3.6-4.36-6.63-.1-.18-.22-.4-.2-.38-2.08-2.93-5.72-8.76-7.4-11.12v-.22l-4-5.9 1.47 2.22c-.77-.6-2.86-4.58-5.93-8.75-2.7-4.02-6.05-7.76-8.73-12-1.46-1.9 1.37 1.62-.72-1.3.07-.2 1.02 1.33.6.5-2.03-2.88-3.1-4.88-5.58-8.43l.01-.22c-3.33-4.58-5.77-9-8.02-12.02-3.3-4.82-1.84-3.48-5.37-8.43l-1.15-2.07c-1.4-2.2-1.2-1.45-2.7-3.9.18.1-1.9-3.1-.9-1.74-3.4-5.57-7.38-11-11.55-18.5-1.14-1.5-3.2-5.3-4-6.43-.07-.23-4.05-7.62-1.62-3.43.2.36.55 1 .5.98l.38.45c-2.1-4.4-4.2-7.8-5.83-12.27.4 1.34 1.2 3.07.62 1.94a47.9 47.9 0 0 1-1.46-4.17l.37.85c-.67-2.08-1.15-4.23-1.53-6.38l.03.92c-.27-1.6-.35-2.68-.45-3.8l-.35-4.12c-.17-1.64-.05 3.06-.22-.34-.02-2.16.1-4.86.5-7.67l.14-.93c.02-.07.02-.17.07-.2l.25.02 5.45.05c-.52-.14 1-.14 2.54-.17l.18.12c5.95-.17 2.18.27 8.1.14l1.04-.17c5.33-.25 2.88.26 8.8-.08-2.34.02-1.1-.27 1.78-.22l-.73.12c1.6-.03 2.13-.08 3.2-.05-.95.06-.5.17 1.84.15l-1.57.15 4.43-.22c3.42.13 8.85-.03 10.26.14 0 0 7.36.08 9.05-.1-1.48.12 2.58.16 1.42.3 1.9-.13 7.54-.24 9.8-.1l-.43.02.4.01c.1 0 .06 0 .1.01s.08-.01.08.03l.02.07.26.68 1.05 2.65 2.02 4.95 3.9 9.83c.01-.37 1.4 3.34 1.2 2.36.76 1.78 1.44 3.5 2.06 5.13l1.84 4.44c1.13 2.7 2.08 4.78 2.9 5.94 1.48 3.2 1.6 3.86 2.32 5.53l-.37-.75 5.58 12.2c1.06 2.2 1.46 2.45 3.2 6.47-.68-1.25.08.38.74 1.87-.44-.95-.6-1.23.2.76.15.26.36.68.56 1.08 0 .02.03.1 0 .07 1.15 2.48.98 2.04.48.87.04.05.02-.05-.12-.42 1.03 2.65 3.2 7.24 3.18 7.63l8.4 19.2c.2.75-.46-.7-1.25-2.53l1.82 4.5c-.14.01-1.07-2.57-1.67-3.94.97 2.72 2.13 5.47 3.24 8.36l3.5 9.1.63 1.27.14.38c.04-.04.7 1.34 1.1 2.27.26.93-.3.05 1.02 3.15.92 2.5 2.98 6.94 4.4 10.12-.72-1.73-.42-1.2-.07-.48.67 1.54.95 2.48 1.5 3.65l-.06.16c.2.17 1.9 4.06 2.18 4.56.28.92-1.13-2.35-1.38-2.7l4.06 9.25c1.55 3.24-.13-.66.7.86 1.3 2.9 2.66 5.68 4.05 9.05l-.34-1.1c2.52 5.4 3.96 8.67 5.47 12.4 9.62 20.03 11 21.96 9.88 18.94-1.1-3.02-4.63-11.05-4.63-11.05-6.88-16.07-10.96-24.13-19.32-43.18a593.97 593.97 0 0 1-7.84-19.24c-2.12-5.4-3.97-11.13-7.67-19.9-3.44-8.4-7.4-17.2-11.04-25.27-1.9-3.75-4.78-10.6-7-15.04l-.7-1.8c-.76-1.53-1.63-3.35-2.28-4.94l.08.08c-1.14-2.3-2.26-4.94-2.82-6.08l.08.08-1.26-2.83.26.47c-1.92-4-3.54-8.3-5-12.07l-.01.37-3.65-9.27.68-3.34 1.16-7.15-7.77.14v.01l-1.45.03-3.24.03c-2.1 0-4.05-.03-6.02-.07-3.94-.07-7.92-.14-13 .04 1.27-.05-.54-.07-.44-.1-4.7.04-9.7.06-9.77.35-3.42 0-2.78-.1-3.23-.2.02.12-2.95.18-5.6.18l1.23-.05-7.64.04 1.5.24c-4.05-.07-1.03-.3-4.9-.23l.05.2c-2.8-.02-5.03-.1-7.23-.2l-3.35-.15-1.8-.07-1.3-.03c-.5.05-1.35-.27-1.24.55l-.26 1.66-.14 1.07c-.1.72-.15 1.44-.2 2.16-.1 1.45-.15 2.9-.14 4.36a51.43 51.43 0 0 0 .84 8.74c.53 2.9 1.3 5.75 2.35 8.5l.68 1.7-.66 5.8-2.8 20.84c-1.06 7.8-2.3 15.66-3.7 21.32-1.8 8.04-3.6 16.76-6.04 25.3-1.27 4.26-2.58 8.5-4.84 12.15l-6.56 11.17c-.16.23-.4.65-.6 1.02l-.26.48-.1.2-8.07 13.12-15.76 25.82-2.02 3.43c-.68 1.24-.58 2.55-.25 3.4.3.76.72 1.2 1.03 1.45-.04.05-.07.1-.1.12-.92-.6-.84-.4-.2.25-.1.12-.24.3-.54.67-.4.62.15-.05-.01.28-.4.52-.75 1.06-1.27 1.6l.22-.13a27.17 27.17 0 0 1-.66.87c-.01-.01-.03-.02-.04-.04h.05a18.15 18.15 0 0 1-1.75-1.4l-.4-.36c-.17-.15-.36-.3-.56-.4-.4-.23-.84-.38-1.28-.44-.9-.12-1.76.08-2.54.5-.13.06-.28.18-.37.26l-.2.17-.42.36c-.28.25-.57.52-.87.82.3-.3-.2.05-.18.01-1.18 1-2.45 2.05-2.3 2.3-.88.7-.77.5-.95.5.08.1-.65.75-1.33 1.3l.3-.3-1.95 1.64.54-.14c-1.1.83-.46 0-1.4.9l.14.13c-1.4 1.24-2.37 1.83-3.7 3.08-.64.7-1.27 1.4-1.88 2.15l-.9 1.12-.45.58-.23.3c-.08.13-.18.27-.25.4-.58 1.04-.77 2.28-.5 3.45a4.44 4.44 0 0 0 .75 1.62c.4.5.7.76 1.02 1.14 2.6 2.78 5.1 5.53 7.3 8.23l.1.33c-.07.24 1.5 1.2 1.54 1.54l.6.53c.12.2.4.58.1.3.5.56.53.55.94.9l.44.68c1.9 2.26 3.75 3.95 5.78 6.28 2.2 2.86 6.84 7.68 9.66 10.6l.25.26.25.01.98 1.03c.15.15.3.3.46.43.64.55 1.4.97 2.25 1.2a5.26 5.26 0 0 0 1.31.2l3.44.15c3.08.15 6.18.3 9.08.14.2.03.68-.03.67-.06l5.3.07h6.27c.12-.01.26-.01.4-.03.26-.04.5-.1.75-.18.5-.17.93-.45 1.28-.8a3.42 3.42 0 0 0 .78-1.25 3.3 3.3 0 0 0 .16-1.3c-.05-1.03-.12-1.9-.2-2.43.01 0 .02 0 .03-.01.1-.06.18-.4.24-.86.12-.3.1-.55.1-.73a2.62 2.62 0 0 0-.13-.52c-.1-.27-.22-.48-.34-.68-.24-.4-.5-.7-.72-.96-.46-.53-.83-.87-.83-.87a13.51 13.51 0 0 0-.7-.65l-.74-.63c-.5-.38-1-.7-1.48-1-.97-.57-1.9-1.02-2.84-1.44-.95-.4-1.9-.78-2.94-1.16l-1.62-.57-.87-.3c-.2-.07-.17-.05-.2-.06l-.1-.02c.01.18-.23-1-.4-1.82l-.83-5.08-.6-3.8c.01-.02-.01.03.03-.05.07-.14.13-.3.2-.44l.43-.95c.04-.1.26-.53.3-.9a2.59 2.59 0 0 0-.08-1.15 2.87 2.87 0 0 0-.49-.99c-.1-.16-.2-.26-.37-.43l-.3-.25-.7-.64c.32-.33.43-.26.94-1.06l.38-.32c.35-.4.14-.38.55-.8.03.07.5-.56.34-.25.26-.28.5-.58.74-.9l2.43 1.97a6.46 6.46 0 0 0 .64.46 6.35 6.35 0 0 0 .78.4 4.68 4.68 0 0 0 1.74.33 4.41 4.41 0 0 0 3.28-1.46l3.42-4.5 8-10.43 25.17-31.52 8.34-10.28 2.13-2.53 2.2-2.4c1.52-1.6 2.97-3.24 4.38-4.84.62-.8 1.38-1.75 2.22-2.76l2.6-3.3c1.75-2.32 3.48-4.8 4.64-6.9a23.54 23.54 0 0 0 1.06-1.55l1.23-2.34a63.38 63.38 0 0 1 1.22-2.35l-.02.1 1.16-2.7 19.86 29.17c4.8 7.1 9.58 15.06 14.45 23.02l14.58 23.32c.14.25.42.68.67 1.04l.33.47c.1.12.14.2.14.18l7.47 11.92c.4.58.6 1.1 1.23 1.8 0 0 .25.3.86.7.6.36 1.7.8 3.02.44.33-.08.66-.24.92-.38l.77-.38 1.4-.7c.2.43.72 1.1 1.07 1.58-.17-.3-.08-.22.02-.1.16.25.2.43.34.6l-.07.07c.01-.15.5.6.58.68.03.18-.3-.36-.38-.4l.96 1.5c.4.5.01-.15.25.07.3.47.66.9.95 1.47l-.04-.22c.2.28.37.53.52.76-.01-.01-.03-.01-.05-.01.03.05-.16.2-.46.42-.25.17-.85.48-1.2.93.1-.14.23-.27.35-.4-.87.72-1.3 1.82-1.26 2.86a3.1 3.1 0 0 1 .28-.58c-.13.78-.1.9-.18 1-.02.05-.04.1-.03.23 0 .1.08.43.2.7l.18-.08c.6 1.78.7 2.9 1.17 4.66.6 1.8 1.3 3.55 1.96 5.43.7 1.85 1.52 3.64 2.42 5.4.45.87.92 1.73 1.42 2.56a31.9 31.9 0 0 0 .77 1.24 5.09 5.09 0 0 0 1.13 1.25c.9.7 2.08 1 3.2.9.53-.04 1.15-.24 1.55-.42l1.24-.48.34.01c.2.14 1.65-1.07 1.97-1l.7-.42c.23-.06.7-.2.33-.01.7-.3.7-.34 1.17-.6l.8-.2c2.77-1.1 5-2.36 7.9-3.57 3.56-1.27 9.96-4.35 13.65-6.12 5.14-2.6 11.6-4.5 16.85-7.2a2.15 2.15 0 0 0 .6-.33l4.95-2.14 3.45-1.53 3.14-1.43 1.63-.77a3.52 3.52 0 0 0 .45-.3l.32-.26a3.02 3.02 0 0 0 .7-.73c.77-1.12.64-2.3.4-2.9zM269.2 206.9l.52.03a8.69 8.69 0 0 1-.1.43l-.26 1.4-.56 3.16-.28-.7-.87-2.25-.7-1.85c.14-.01.26-.01.4-.02.8-.06.07-.1-.46-.12-.01-.02-.02-.05-.03-.07l.82-.03h1.5zm-84.6 222.26c-.12.33-.25 1.02-.4 2.17-.04.28-.07.62-.12.93a2.09 2.09 0 0 1-.38.85c-.4.53-1.13.9-1.95.78.04-.02.1-.03.12-.05-2.88-.13-4.73-.18-6.73.04-.32-.3-2.4-.05-3.07-.15l.06-.02c-1.77.2-3.65-.2-5.36-.03.07-.02.1-.1.5-.1-1.25.03-2.95.08-3.04-.1-1.5 0-3.27 0-4.92-.01-.82 0-1.62.01-2.3.04-.56.02-1.06-.07-1.45-.17h.12c-.45-.1-.72-.25-.97-.43-.27-.2-.44-.38-.9-.82-.03-.06-.08-.14-.06-.13-.26-.22-.56-.5-.88-.85l-.2-.2h-.24c-.68-.75-1.37-1.57-1.8-1.98l.04-.12-1.6-1.74.57.67c-.43-.02-1.05-1.45-2.34-2.6-1.04-1.22-2.64-2-3.64-3.32-.64-.5.64.36-.23-.44.1-.14.44.34.33.03-.83-.8-1.15-1.53-2.2-2.52l.05-.13c-1.42-1.24-2.24-2.74-3.23-3.52-1.36-1.37-.6-1.2-2.1-2.54l-.4-.7c-.55-.66-.56-.32-1.14-1.08.12-.03-.74-.95-.3-.6-1.32-1.72-3.1-3.1-4.8-5.4-.56-.32-1.43-1.47-1.85-1.7.02-.12-1.9-2.14-.7-1.08.1.1.26.28.23.3l.22.06c-.46-.68-.97-1.2-1.5-1.72l-.34-.32c-.1-.1-.17-.18-.24-.3-.14-.2-.25-.46-.3-.74.01.35.23.75.02.5a2.78 2.78 0 0 1-.16-1.08c.04.08.06.15.1.23 0-.53.14-1.07.43-1.5a2.69 2.69 0 0 0-.22.14 1.96 1.96 0 0 1 .31-.39l.4-.4c.27-.27.52-.57.84-1.1.27-.5-.78.68-.1-.22.1-.1.23-.24.34-.36l28.03 32.14c.8.9 1.9 1.4 3.1 1.5.1.1.2.1.2 0l25.8.6v-.52c.03.02.06.03.1.05l.2.07-.01.1zm-14.34-9.22c.05.18.08.33.1.38-.01.04 0 .05-.01.05.03.02.02.03-.03.02-.03-.02-.08-.2-.14-.44l.07-.01zM169 405.7c0 .07-.01.13-.04.2l-.14.33c-.03-.02-.02-.08 0-.17.03-.1.07-.2.08-.24a.62.62 0 0 0-.03-.4c.02.34 0 .28-.28.94l-.73 1.8.35 1.6c.07.35.1.7.16 1.07-.03-.12-.12.01-.16-.04v-.01c-.1.14-.2-.1-.28.02 0-.01 0-.06.02-.07-.06.03-.15.07-.16-.03-.16.04-.38 0-.47.17l.01-.03c-.05.1-.07.02-.13.08 0-.01-.01-.02-.01-.03-.06.1-.18.03-.23.08l-.01-.07-.12.02.05.01c-.01.18-.1-.1-.18.01-.1-.02-.15.4-.24.3-.04.1.03-.14-.03-.07-.01-.1.03-.06.01-.14-.06.05-.1-.1-.18-.02l-.01-.07c-.1.14-.2-.1-.25.05-.1.07-.08-.22-.18-.07l-.05-.1c-.05-.01-.03.13-.08.08 0-.06-.07-.05-.04-.1-.12-.1-.22.15-.38-.01-.03.13-.1.06-.12.15-.01-.05-.15 0-.07-.12.01-.01.02-.01.02.01v-.07c-.1-.13-.15.08-.24.07.03.02.06.01.04.07h-.08l.01-.06-.12-.03.02.08c-.06-.04-.1-.16-.15-.05-.03.06.06.1 0 .13-.08-.05-.2-.12-.3-.14.01.1-.01.08-.04.1l-.01-.07c-.1.1-.05-.16-.15-.07l-.01.1c-.08.15-.06-.15-.15.06.04-.02.03.16-.02.13V411c-.03.02-.03.05-.05.03.01-.04 0-.1-.04-.1l.02-.1-.07.14c-.06-.07-.15.03-.18-.07 0 0-.13-.04-.15.07.02-.07-.05-.1-.03-.18-.03.08-.12.15-.17.07l.01-.01c-.15-.08-.24.13-.38.03.01.1-.06.04-.04.15-.13.12-.26-.2-.3.13-.06.02-.08-.08-.1-.1l.01-.02a.74.74 0 0 1-.23.04c-.04.04-.04.2-.12.16.02-.06-.01-.05-.04-.05.02-.01.02-.03-.02-.07 0 .02-.01.03-.02.04-.05.01-.04.02-.01.03 0 .01 0 .02.01.04-.05-.08-.14.01-.15-.1-.14.03-.24.15-.36.2-.02-.06.01-.1.04-.13l-.08.03c0-.08.05-.05.07-.07-.1-.12-.2.14-.33.03l-.02.06-.01-.01c0 .03-.02.08-.04.1-.02-.07-.01-.16-.07-.15-.05-.06-.13.04-.2.08.03.01.03.05.01.07-.03 0-.05-.06-.07-.03v-.1c.02.1-.07.1-.08.14-.02-.07.04-.06.05-.12-.12.02-.06.01-.18.02-.06.07.02.1-.01.17-.05.02-.1.1-.17.04l.02.08c-.1.07-.16.06-.24-.02-.74.73-.1.94-.1.94.32.17.46-.08.82-.17.32.02.42.18.74.1.16 0 .33-.04.48-.07.07-.13.2-.01.28-.12l.04.07c.03-.04.06-.06.1-.03v.02c.04-.06.1-.03.1-.06v.02l.05-.01-.01.03c.07-.06.15-.07.23-.05v-.1c.16.1.2-.1.34.01v.02c.16-.24.28.14.45-.1-.02.03.01.04.01.07.08-.03.17-.05.16-.22.06 0 .05.05.06.12 0-.07.05-.1.1-.12v.03l.13-.03-.03-.14c.07.04.03.17.1.13l-.01-.12c.1.02.17.2.27.27.4.03.8-.3 1.18-.1l.02.1c.01.13.1-.2.1-.08l.04-.06c.01.02.04.05.02.08.04 0 .04-.02.07-.06l.05.08c.16.05.28-.1.45-.1.2.15.57-.02.78-.12.3-.2.67.28.96.05.01.02.03-.02.03-.04h.28s.1 0 .2-.02c.07.08.2.47.27.75-.06.33-.27.03-.06 1.12.02.4.14.97.28 1.57-.01.02-.03.03-.04.06-.04-.17-.12 0-.16-.06v-.01c-.07.14-.2-.1-.26.04 0-.01 0-.06.02-.07-.06.03-.14.08-.16-.02-.14.04-.35.02-.43.2v-.03c-.04.1-.07.02-.12.1 0-.01-.01-.02-.01-.02-.05.1-.17.04-.2.1v-.07l-.1.03.05.01c.01.18-.1-.1-.17.02-.08-.01-.12.4-.2.32-.03.1.02-.14-.03-.07-.01-.1.02-.06 0-.14-.05.05-.1-.1-.17-.01v-.07c-.08.15-.2-.08-.23.06-.1.07-.1-.2-.17-.06l-.05-.1c-.04-.01-.02.13-.07.08 0-.06-.07-.04-.04-.1-.12-.1-.2.17-.36.01-.02.13-.1.06-.1.16-.01-.05-.14.01-.08-.12.01-.01.02-.01.02.01v-.07c-.1-.13-.14.1-.22.08.03.02.06.01.04.06h-.07l.01-.06-.1-.02.02.07c-.06-.03-.1-.16-.14-.04-.02.06.06.1.01.13-.08-.04-.2-.1-.3-.12.02.08-.01.08-.03.1v-.07c-.1.1-.05-.16-.14-.07v-.05l-.01.16c-.07.16-.06-.15-.14.06.04-.02.04.16-.01.13v-.07c-.02.02-.03.05-.05.04.01-.04 0-.1-.04-.1l.02-.1-.06.14c-.06-.07-.14.04-.18-.06 0 0-.13-.04-.14.08.02-.07-.05-.1-.04-.17-.02.08-.1.16-.15.08l.01-.01c-.15-.07-.22.14-.35.05.02.1-.05.05-.03.15-.1.12-.26-.2-.26.15-.06.03-.08-.07-.1-.1l.01-.02c-.1.04-.14.05-.22.05-.04.04-.02.2-.1.17.02-.07-.01-.05-.04-.05.02-.01.02-.04-.02-.07 0 .02-.01.03-.02.04-.04.01-.03.03-.01.03 0 .01 0 .02.01.04-.06-.08-.13.02-.15-.1-.13.04-.22.16-.32.22-.02-.05 0-.1.03-.13l-.08.03c-.01-.08.04-.05.06-.07-.1-.12-.18.15-.3.05l-.02.07h-.01a.19.19 0 0 1-.03.09c-.02-.07-.02-.16-.07-.15-.05-.06-.12.05-.17.1.03.01.03.05.02.07-.03.01-.05-.06-.07-.03l-.01-.1c.02.1-.06.1-.07.14-.02-.07.04-.06.04-.12l-.16.03c-.05.08.02.1 0 .17-.05.02-.1.1-.16.05l.03.08c-.1.08-.15.07-.22 0-.65.76-.05.95-.05.95.3.15.43-.1.76-.2.3.01.4.16.7.06.15 0 .3-.06.45-.1.05-.13.2-.02.26-.14l.04.07c.02-.04.05-.07.1-.03v.02c.04-.06.1-.03.1-.06h.05l-.01.03c.07-.07.14-.08.2-.06l-.02-.1c.15.08.18-.1.32 0v.02c.14-.25.27.13.4-.1-.02.03.01.04.01.06.07-.03.15-.06.14-.23.06 0 .05.05.07.1-.01-.07.04-.1.08-.12l-.02.03.12-.04-.04-.14c.07.03.04.17.1.13l-.01-.12c.1.01.17.18.27.26.37.01.74-.34 1.1-.17l.03.1c.02.13.07-.2.1-.08l.03-.06c.01.02.04.04.02.07.04 0 .04-.02.06-.06l.05.07c.15.04.26-.12.42-.1.2.14.53-.05.72-.16.26-.22.64.25.9 0 .01.02.03-.03.03-.04l.27-.01s.07-.01.17-.03l.25.98c-.1-.6.01-.43.1-.17.1.54.05.88.18 1.3l-.15.08c.05-.1.14.16.23.5-.01.02-.02.02-.03.04-.07-.16-.1.02-.16-.02v-.01c-.03.15-.2-.05-.23.1 0-.01-.02-.06 0-.07-.05.04-.1.1-.14.01-.12.07-.3.1-.34.27v-.03c-.01.12-.05.04-.1.1-.01-.01-.01-.02-.01-.02-.01.12-.14.07-.17.13l-.03-.06-.1.05h.04c.05.18-.1-.08-.15.06-.08 0-.01.4-.1.35 0 .1-.02-.14-.05-.06-.03-.1 0-.06-.04-.13-.03.06-.1-.06-.15.02l-.03-.07c-.03.16-.18-.04-.2.1-.06.1-.13-.2-.17-.02l-.07-.08c-.04 0 .02.13-.04.1-.02-.06-.07-.03-.06-.1-.13-.06-.14.2-.32.08.02.13-.07.08-.06.17-.02-.05-.12.04-.1-.1 0-.01.01-.01.02.01l-.02-.07c-.12-.1-.1.12-.18.12.03.02.05 0 .05.05l-.07.01v-.06h-.1l.04.07c-.06-.02-.12-.14-.14-.02 0 .07.08.08.04.12-.08-.03-.2-.07-.28-.06.04.08.01.08 0 .1l-.03-.07c-.05.13-.1-.14-.14-.04l.02.1c-.03.17-.1-.13-.1.1.03-.02.07.15.02.13l-.01-.07c-.02.02-.01.05-.03.04 0-.04-.03-.1-.06-.08l-.01-.1v.15c-.07-.06-.12.06-.17-.03 0 0-.12-.01-.1.1 0-.07-.07-.08-.08-.16 0 .08-.06.17-.12.1v-.01c-.15-.04-.16.18-.3.12.03.08-.04.06.01.15-.07.14-.27-.14-.2.2-.04.04-.1-.05-.12-.06l.01-.02a.54.54 0 0 1-.18.1c-.02.04.02.2-.05.18 0-.07-.02-.05-.05-.04.01-.01.01-.04-.04-.07v.05c-.04.02-.03.04-.01.04 0 .01.01.02.02.04-.07-.06-.1.04-.15-.06-.1.07-.15.2-.23.27-.03-.05-.02-.1 0-.13l-.06.04c-.03-.08.02-.06.04-.08-.12-.1-.12.18-.26.1v.07l-.01-.01a.17.17 0 0 1 0 .1c-.04-.06-.05-.15-.1-.13-.06-.05-.1.07-.13.12.03 0 .03.04.03.07-.02.01-.06-.05-.07-.02l-.03-.1c.04.08-.03.1-.03.15-.04-.06.02-.07 0-.12-.1.04-.05.02-.14.06-.03.1.04.08.04.17-.04.03-.06.1-.13.08l.04.07c-.06.1-.12.1-.2.04-.4.87.18.93.18.93.3.1.35-.2.62-.35.27-.05.4.08.64-.08.13-.03.25-.12.37-.18.02-.14.16-.06.2-.18l.05.06c.01-.04.03-.08.07-.05l.01.02c.02-.06.07-.05.08-.08l.01.02.04-.02v.03c.04-.08.1-.1.17-.1l-.03-.08c.15.05.14-.14.3-.07h.01c.06-.27.27.07.34-.2-.01.03.02.04.03.06.06-.05.12-.08.07-.25.05-.01.06.04.1.1-.03-.07.01-.1.04-.13v.03l.1-.06-.07-.13c.07.02.07.16.12.1l-.04-.1c.1-.01.2.14.3.2.33-.07.57-.47.94-.38l.04.08c.05.12.02-.2.07-.1l.01-.07c.02.02.05.03.04.07.03-.01.03-.03.04-.07l.06.06c.15.01.2-.17.34-.2.2.1.46-.15.6-.3.18-.27.63.12.8-.18.01.01.02-.03.02-.05h.01l.1.5 1.22.43 1.32.5c1.14.32-.15-.22.43-.14.98.35 1.97.64 3.02 1.22l-.3-.28c1.83.7 2.88 1.27 3.93 2.06 1.44.7 2.48 1.52 3.3 2.15.4.33.74.63 1 .94.13.15.25.3.35.48.06.13.15.3.1.52.02.1.04.2.05.3l-.22.05c-.05.01-.08.03-.1.04v-.57l-25.8-.6c-.9 0-1.7-.4-2.3-1.1l-28.1-32.2 2.5-2.5c-.22.02.12-.33.46-.7l.13.05c1.27-1.45.68-.3 2-1.65l-.07.17.2-.5c1.2-1.3.9-.4 2.2-1.88-.6.5-.46.01.32-.54l-.1.25c.4-.35.5-.5.8-.7-.2.25-.02.24.57-.26l-.3.44 1-1.1c.96-.6 2.26-1.86 2.73-2.02 0 0 .12-.1.3-.24l.32-.25c.06-.05.03-.02.06-.04.01 0 .1-.06.14-.07.45-.23.93-.3 1.1-.37-.16.05-.02.1.1.15s.22.14.1.18c.08-.01.2-.01.34.04a1 1 0 0 1 .21.1l.35.28c.5.4.97.85 1.2 1.15l-.12-.08c1.96 1.95 3.64 3 5.36 4.78.01-.18.93.75.82.4 2.03 1.57 3.22 3.4 4.3 3.58.9.75.94 1.02 1.37 1.44l-.23-.16 3.33 2.93c.64.5.9.4 1.95 1.4-.42-.23.03.15.44.5-.27-.22-.37-.26.1.27.1.04.22.13.34.22 0 .01.02.03 0 .03.7.58.6.45.3.16.03 0 .01-.04-.06-.15.6.73 1.95 1.74 1.92 1.95a84.67 84.67 0 0 0 2.8 2.32l1.28 1.03c.3.23.5.63.46.97-.14.12-.08-.18-.3-.5.12.15.16.3.15.42zm1.73-6.76l-.2.1c-.15-.02-.6 1.05-.8 1.1l-.27.43c-.1.1-.3.3-.18.1-.3.36-.3.38-.47.67l-.37.34c-.06.08-.12.15-.18.22l-5.34-4.68c-1.17-.77-2.86-2.56-4.2-3.52l-.4-.5c-.46-.33-.98-.74-1.36-1.17h.05c-.7-.5-1.36-1.17-1.7-1.42h.05l-.77-.67.16.08a42.55 42.55 0 0 1-3.26-2.84v.18c-1.74-1.75-2.7-2.35-4.1-3.67l2.42-3.17c2.58 2.4 8.07 7.04 8.07 7.04l13.2 11c-.1.12-.23.27-.35.4zm76-86.48c-.67 1.53-1.12 2.4-1.53 3.1l-1.12 1.93c.12-.24.25-.47.35-.7-1.47 2.76-2.53 4.47-3.53 6l-1.52 2.22-1.83 2.47c-1.4 1.85-1.4 2.34-4.16 5.48.8-1.1-.3.22-1.34 1.38.65-.76.83-1-.6.47-.17.24-.45.58-.72.9-.02.01-.08.06-.06.02-1.75 1.94-1.42 1.62-.58.75-.03.06.06-.01.33-.26a78.33 78.33 0 0 0-3.36 3.51c-1.1 1.2-1.9 2.2-2.1 2.27-5.05 6.1-8.4 10.64-12.44 15.8-.53.52.36-.73 1.52-2.24l-2.88 3.67c-.08-.1 1.6-2.14 2.48-3.28-3.63 4.2-6.95 9.1-11.13 14.07l-.75 1.12-.25.3c.06.02-.8 1.2-1.37 1.98-.66.65-.17-.22-2.16 2.32-1.66 1.93-4.42 5.73-6.42 8.4 1.12-1.4.82-.9.37-.27-1 1.27-1.65 1.93-2.38 2.94h-.17c-.05.25-2.54 3.46-2.83 3.93-.66.65 1.46-2.03 1.64-2.4l-5.94 7.65c-2.02 2.8.5-.4-.4.98l-1.37 1.82-.7.9c-.2.28-.46.5-.75.7-.6.37-1.33.5-2.06.35-.75-.13-1.33-.6-2-1.22.25.26.5.56.76.8-4.47-3.5-7.1-5.72-9.98-8.27l-15.86-12.08-.3-.4c.15.08.18.04.06-.1-.15-.22-.6-.66-.87-1.56-.3-.88-.26-2.3.83-3.6l8.67-12.88-.16.35c4.54-7.1 7.34-11.62 10.2-16.7.73-.63 3.65-5.9 4.76-7.53l-.08.17c2.5-4.5 5.67-8.95 8.05-13.32-.08.18-.07.3-.65 1.3l4.5-7.68c1.95-4.04 3.33-9.07 4.5-13.73 1.14-4.67 2.03-8.97 2.5-11.7l-.04.38c.5-3.1.86-4 1.55-7.44.07-.18.13-.42.13-.38.28-1.7.9-4.1 1.43-6.5.58-2.37.97-4.7 1.2-6.06l.14-.16 1.1-6.76a73.67 73.67 0 0 1-.43 2.52c-.15-.92 1-5.08 1.5-10.03.7-4.6.62-9.4 1.35-14.18.14-2.3-.02 2.04.3-1.4.17-.1-.1 1.6.14.74.23-2.44.56-4.24.86-6.63.53 1.15 1.08 2.3 1.66 3.4 2.62 5.17 5.54 10.08 8.42 14.87l8.56 13.86.38.86c.04.46 3.42 4.7 3.7 5.47l1.42 2c.34.6 1.1 1.83.4.84 1.23 1.9 1.3 1.92 2.23 3.25l1.2 2.1c4.8 7.5 9.2 13.7 14.36 21.5l3.78 5.8c-.2.7-.4 1.3-.5 1.82zm69.64 92l-1.02-1.7 3.26-1.62 18.12-9.15 2-1.05c1.07 1.67 2.1 3.33 2.96 4.93v.06c-.67.45-1.42.83-1.74 1.06l.01-.05-.9.52.13-.13c-1.25.82-2.6 1.57-3.8 2.2l.17.07c-2.6 1.28-3.38 2.06-5.76 3.17v-.05c-2.7 1.96-4.68 2.33-7.48 4.32.35-.25-.2.02-.18-.02-1.35.8-2.8 1.65-2.7 1.9l-.1.05c-.84-1.33-1.74-2.54-3.02-4.5zm7.4 25.1c-.05-.13-.05-.17.06-.03l-.06.03zm.27-.1c-.53-1.1-1.18-2-1.66-3.2.15.45.4 1.02.17.67l-.56-1.37.2.25c-.27-.7-.5-1.38-.74-2.07l-.02.33c-.3-1.04-.2-1.46-.8-2.57-.3-.5.2 1.04-.24-.05l-1.64-5.32c-.08.2-.24-.27-.45-.75l.1-.1c-.42-.9-.42-1.1-.4-1.3 0-.1.01-.2-.04-.38-.03-.1-.01-.1-.04-.2-.02-.1-.05-.2-.06-.35l.1.1c-.1-.1-.18-.2-.25-.33-.03-.6.17-.73.3-.83a1.62 1.62 0 0 0 .22-.19 2.99 2.99 0 0 0 .16-.17c.06-.07.17-.15.38-.33-.6.36-.47-.05.42-.5l-.16.23c.45-.28.6-.42.9-.57-.25.2-.06.24.6-.17l-.4.4 1.2-.92c1.06-.45 2.57-1.48 3.06-1.57 0 0 2.2-1.14 2.6-1.58-.38.34.83-.28.56.03.5-.43 2.1-1.45 2.82-1.7l-.12.08c2.5-1.25 4.08-2.52 6.35-3.6-.17-.07 1.02-.65.65-.65 2.17-1.43 4.3-2 4.85-2.95 1-.6 1.3-.57 1.83-.84l-.23.16 2.87-1.67h.01l.04-.03a1.33 1.33 0 0 1 .67-.2c.26-.03.44-.07.68-.06a1.13 1.13 0 0 1 .42.12c.17.08.3.2.6.5-.43-.25.04.15.45.52-.14-.1-.23-.18-.23-.15 0 .01.02.05.08.12.05.07.12.15.35.38.07.04.15.1.24.16s.23.03.34.05c.01.01.05.02.02.03.4.05.5.05.6.06s.16.01.17 0c.02-.01-.12-.04-.33-.08.02-.01 0-.04-.15-.1.5.15 1.2.24 1.77.33 0 .15.07.3.06.53-.1.3-.3.34-.3.67-.05.15-.04.32-.06.47.1.1-.04.2.04.3l-.08.02c.03.04.05.08 0 .1l-.02-.01c.04.05 0 .1.02.12l-.02-.01v.05l-.03-.02a.23.23 0 0 1-.01.23h.1c-.13.12.04.2-.1.32h-.02c.2.2-.2.23-.03.44-.02-.03-.05 0-.07-.01.01.08 0 .17.17.2-.01.06-.06.03-.13.03.07.02.1.07.1.12v-.03.13h.14c-.05.06-.17-.02-.15.05l.1.02c-.04.1-.23.1-.33.18-.13.36.07.83-.2 1.14h-.1c-.13-.02.16.14.05.13l.05.05c-.03.01-.05.03-.08 0-.01.04.01.04.04.08l-.1.02c-.1.13.03.3-.04.44-.2.15-.13.54-.1.76.12.33-.45.55-.3.9-.02.01.01.04.03.04l-.08.26s-.33 1.3.92.53h.03c.1-.13.13-.22.02-.35.17.02.04-.12.1-.14l.01.01c-.1-.12.15-.16.05-.27.01.01.06.02.06.04-.01-.07-.03-.16.07-.14.01-.16.1-.35-.04-.5l.03.01c-.1-.08 0-.07-.04-.15h.03c-.1-.08.02-.18-.01-.24h.07l.01-.12-.02.04c-.18-.05.13-.07.03-.18.04-.08-.34-.25-.23-.3-.08-.06.13.07.08-.01.1.02.05.04.13.04-.03-.07.12-.08.07-.16h.07c-.1-.12.14-.16.02-.25-.04-.1.23-.02.1-.15h.1c.03-.04-.1-.06-.06-.1.06.02.06-.05.12-.01.12-.1-.1-.25.1-.36-.1-.06-.03-.1-.1-.16.05.01.04-.14.14-.04.01.01 0 .02-.02.02l.07.03c.15-.05-.04-.16 0-.24-.03.02-.03.05-.07.02l.03-.07.06.03.06-.1h-.08c.05-.05.18-.04.1-.12-.05-.04-.1.03-.12-.03.07-.06.17-.15.2-.24-.1-.01-.08-.03-.1-.06l.07.01c-.08-.12.17 0 .1-.12l.05.02-.15-.06c-.13-.12.16-.01-.01-.16 0 .04-.16-.02-.12-.06l.07.03c-.01-.03-.04-.05-.02-.06.03.02.1.03.1-.01l.08.05-.1-.1c.1-.04.01-.15.12-.15 0 0 .08-.1-.03-.16.06.04.1-.02.18.01-.07-.05-.1-.16-.02-.18v.01c.1-.12-.06-.26.07-.37-.1-.01-.03-.07-.14-.08-.08-.15.27-.2-.05-.3-.01-.06.1-.05.12-.08h.01c0-.12 0-.15.03-.23-.02-.05-.18-.1-.12-.15.06.04.05 0 .06-.02.01.02.03.03.08 0-.02-.01-.03-.02-.04-.03.01-.05-.01-.05-.03-.03h-.04c.1-.03.02-.13.13-.12.01-.14-.08-.26-.1-.4.06 0 .1.04.1.07v-.1c.08.02.03.06.05.08.15-.07-.08-.23.06-.3l-.06-.04h.01a.17.17 0 0 1-.08-.06c.07 0 .16.04.17-.02.08-.03-.01-.13-.03-.2-.02.03-.05.01-.08-.01 0-.03.08-.03.05-.06l.1.02c-.1-.01-.08-.1-.1-.1.07 0 .05.06.1.07.02-.1.01-.06.02-.17-.06-.08-.1-.01-.16-.05-.01-.06-.06-.12.01-.17h-.1c-.01-.04-.01-.06-.01-.1.02.01.05.02.06.04 1.84.23 3.33.34 4.8.46-.16.24.02.42.02.76-.1.3-.26.35-.25.68-.04.15-.03.32-.03.47.1.1-.03.2.06.3l-.08.02c.03.03.05.07.01.1h-.02c.05.05.01.1.03.12l-.02-.01v.05l-.03-.01c.05.08.04.16 0 .22l.1.01c-.12.13.05.2-.08.32h-.02c.2.2-.2.24-.01.44-.02-.03-.05 0-.07 0 .01.08.01.17.18.2-.01.06-.06.04-.13.03.07.01.1.07.1.1l-.03-.03v.13h.14c-.05.06-.17-.01-.15.06l.12.02c-.04.1-.22.12-.32.2-.1.37.12.82-.14 1.14h-.1c-.13-.01.17.13.05.12l.05.05c-.02.01-.05.03-.08 0-.01.04.01.04.04.07l-.1.03c-.1.14.05.3-.01.44-.2.16-.1.54-.05.76.14.32-.4.57-.24.9-.02.01.02.04.03.04l-.06.26s-.26 1.3.95.47h.03c.1-.14.12-.23 0-.35.17.01.04-.12.1-.14v.01c-.12-.1.14-.17.03-.27.01.01.06.01.06.04-.01-.07-.04-.16.06-.15 0-.15.08-.36-.07-.48l.03.01c-.1-.07 0-.07-.05-.14h.03c-.1-.08.01-.18-.03-.23l.07.01v-.12l-.02.04c-.18-.04.13-.07.02-.18.04-.08-.35-.22-.25-.3-.08-.05.13.06.08-.01.1.01.05.04.13.03-.04-.07.1-.08.06-.16l.07.01c-.12-.12.13-.16.01-.25-.05-.1.23-.03.1-.15l.1-.02c.02-.04-.12-.05-.06-.1.06.01.06-.05.1-.02.12-.1-.1-.24.08-.36-.12-.05-.03-.1-.12-.15.05 0 .03-.14.13-.04.01.01 0 .02-.02.02h.07c.15-.06-.05-.16-.02-.24-.03.02-.03.05-.07.02l.02-.07.06.03.05-.1h-.08c.05-.05.18-.05.08-.13-.06-.04-.1.04-.12-.03.06-.06.16-.16.2-.25-.1 0-.08-.03-.1-.06l.07.01c-.1-.12.17-.01.1-.12l-.1-.03c-.13-.1.16-.02-.02-.15.01.04-.17-.01-.13-.05h.07c-.01-.03-.04-.04-.02-.06.04.02.1.02.1-.02l.08.04-.12-.1c.1-.04 0-.15.1-.16 0 0 .07-.1-.04-.16.06.04.1-.03.18 0-.07-.04-.12-.15-.03-.17l.01.01c.1-.13-.08-.26.04-.36-.1-.01-.03-.07-.14-.07-.1-.15.26-.2-.07-.3-.01-.06.1-.06.1-.08l.02.02c-.01-.1-.01-.15.01-.23-.03-.05-.18-.08-.13-.14.06.03.05 0 .06-.03.01.02.03.03.08 0-.02-.01-.03-.02-.04-.03.01-.05-.02-.04-.03-.02h-.04c.1-.03.02-.13.12-.12 0-.14-.1-.26-.12-.38.06 0 .1.03.12.07v-.08c.08.01.04.05.05.08.14-.08-.1-.22.04-.3l-.06-.03.01-.01a.17.17 0 0 1-.08-.06c.07 0 .16.03.16-.03.07-.03-.01-.13-.04-.2-.02.03-.05.01-.08 0 0-.03.07-.03.05-.06l.1.01c-.1 0-.08-.1-.12-.1.07 0 .05.05.1.07.01-.1 0-.06.01-.17-.06-.07-.1 0-.17-.04-.01-.06-.07-.12 0-.17l-.1.01c-.05-.1-.03-.17.07-.22-.05-.08-.1-.13-.15-.2l1.43.13c.24.13-.3.14-.97.1l1.62.18c-.03.13-.94-.05-1.44-.08 1.17.3 2.4.34 3.72.44-.1.2.08.37.12.67-.06.3-.23.36-.18.66-.02.14.01.3.02.44.12.07-.01.2.1.27l-.07.03c.03.03.06.06.02.1h-.02c.05.04.02.1.04.1h-.02l.01.05h-.03c.05.07.05.15.02.2h.1c-.1.13.07.2-.05.3h-.02c.22.17-.17.24.04.42-.03-.02-.05.01-.07 0 .02.08.03.16.2.17-.01.05-.06.04-.12.04.07 0 .1.05.1.1l-.03-.02v.12l.14-.02c-.04.06-.17.01-.14.07l.12.01c-.03.1-.2.13-.3.2-.07.36.2.76-.03 1.1h-.1c-.13 0 .18.1.06.1l.06.04c-.02.01-.05.03-.08.01-.01.04.01.04.05.07l-.08.03c-.07.14.08.27.04.42-.17.17-.05.52.03.72.17.3-.36.57-.15.87-.02.01.02.03.04.03l-.03.26s-.13 1.24 1 .36h.03c.08-.14.1-.22-.04-.33.17 0 .03-.1.08-.14h.01c-.13-.1.12-.17.01-.26.01 0 .06.01.06.03-.02-.06-.05-.15.05-.14-.02-.15.04-.34-.1-.45l.03.01c-.1-.06-.01-.07-.06-.13.01 0 .02-.01.03-.01-.1-.06-.01-.17-.05-.22h.07l-.01-.12-.02.04c-.18-.03.12-.08.01-.17.03-.08-.37-.18-.28-.26-.08-.04.14.04.07-.02.1 0 .06.03.14.02-.04-.06.1-.1.04-.16h.07c-.13-.1.1-.16-.02-.23-.06-.1.22-.05.1-.16l.1-.03c.02-.04-.12-.04-.07-.08.06.01.05-.06.1-.02.1-.1-.13-.22.05-.35-.12-.04-.04-.1-.14-.13.05 0 .02-.14.13-.05.01.01.01.02-.01.02l.07.01c.14-.07-.07-.15-.04-.22-.03.02-.02.05-.07.03l.01-.07.06.02.04-.1-.08.01c.04-.05.17-.06.07-.13-.06-.03-.1.04-.13-.01a.9.9 0 0 0 .17-.26c-.1 0-.08-.02-.1-.05h.07c-.1-.1.17-.02.1-.12l-.1-.02c-.14-.1.16-.04-.04-.14.01.04-.17.01-.13-.04l.07.02c-.01-.03-.04-.04-.03-.05.04.02.1.01.1-.02l.1.03-.13-.08c.08-.05-.01-.14.1-.16 0 0 .06-.1-.05-.15.07.03.1-.04.18-.01-.08-.04-.13-.13-.05-.16h.01c.1-.13-.1-.24.01-.35-.1 0-.04-.06-.15-.05-.1-.13.24-.2-.1-.28-.01-.06.08-.06.1-.1l.02.01a.56.56 0 0 1-.01-.22c-.03-.04-.2-.06-.15-.12.06.03.05 0 .05-.03.01.02.03.02.08-.01-.02-.01-.03-.01-.04-.02 0-.05-.02-.04-.03-.02h-.04c.08-.04 0-.13.1-.13-.02-.13-.12-.23-.16-.35.06-.01.1.02.12.05l-.02-.08c.08.01.04.05.06.07.14-.08-.12-.2.01-.3l-.06-.03.01-.01c-.03 0-.08-.03-.1-.05.07-.01.16.01.16-.04.07-.04-.03-.12-.06-.18-.01.03-.05.02-.08 0 0-.03.07-.04.04-.06h.1c-.1.01-.1-.08-.13-.1.07-.01.06.05.1.06V399c-.07-.06-.1 0-.17-.03-.02-.05-.08-.1-.02-.16l-.08.01c-.06-.1-.05-.16.04-.2l-.02-.02c.52.06 1.04.13 1.57.24l.48-.05.13.03c0-.06.52-.07.85-.05.3.15-.05.26 1.07.4.87.22 2.53.23 3.7.3-.62-.1-.42-.13-.14-.14.56.05.87.2 1.3.2l.04.16c-.2-.17 1.48-.01 1.7-.06.3.15-.88.02-1.03.1l3.4.28c1.22-.02-.2-.17.38-.26 1.06.05 2.12.01 3.33.14l-.38-.15c2-.04 3.2.05 4.47.44 1.28.13 2.38.5 2.97 1.2l-63.87 28zm40.5-27.06h.05z"/><path d="M277.33 331.47l.85 1.35.42.9c1.76 3.15 3.42 5.74 5.3 9.05 2.14 4.04 6.54 11.42 9.07 15.68 3.62 5.95 7.2 13.24 10.9 19.32.05.1.16.28.25.43s.18.27.2.27l3.2 5.68s15.58 27.53 4.64 6.1l.1.13c-1.7-3.14-2.8-5.1-4.14-7.17-.04-.42-1.43-2.56-1.8-3.3l.05.06c-1.2-1.83-2.12-3.95-3.27-5.72.05.06.12.08.36.5-.78-1.32-1.85-3.12-1.8-3.27l-5.62-9.57.1.13c-.76-1.1-.87-1.5-1.66-2.76-.03-.08-.08-.17-.06-.16-.8-1.2-2.12-3.67-2.74-4.67l.02-.1-1.45-2.5.53.95c-.35-.23-1-1.96-2.13-3.72-.96-1.72-2.3-3.26-3.25-5.08-.56-.8.55.67-.23-.55.06-.1.4.56.27.2-.75-1.22-1.08-2.08-2.02-3.57l.03-.1c-1.27-1.92-2.08-3.8-2.96-5.06-1.24-2.02-.6-1.5-1.97-3.55l-.4-.88c-.52-.92-.5-.6-1.04-1.63.1.03-.7-1.3-.3-.74-1.26-2.34-2.82-4.57-4.52-7.65-.5-.6-1.42-2.1-1.8-2.52 0-.1-1.96-2.93-.76-1.36.1.14.27.38.24.38l.2.16c-1-1.73-2.1-2.96-3.2-4.6.3.5.75 1.13.42.73l-1.03-1.52.27.28-1.52-2.27.15.35c-.73-1.12-.88-1.58-1.83-2.76-.44-.53.63 1.1-.2-.05l-3.7-5.62c.05.22-.3-.28-.67-.8l.02-.1c-1.46-1.93-.37-.82-1.8-2.75l.16.14-.5-.43c-1.35-1.7-.54-1.05-2.06-2.9.55.78.12.46-.52-.52l.23.2c-.38-.52-.53-.7-.76-1.05.25.3.2.1-.35-.67l.44.47-1.13-1.4c-.72-1.2-2.04-2.95-2.28-3.48 0 0-1.64-2.5-2.1-3 .4.46-.5-.92-.18-.58-.5-.6-1.83-2.45-2.27-3.26l.1.14c-1.8-2.86-3.32-4.74-4.9-7.33 0 .16-.84-1.2-.72-.8-1.83-2.56-2.95-4.9-3.86-5.67-.8-1.2-.85-1.46-1.24-2.1l.2.28-2.96-4.57c-.56-.82-.77-.87-1.7-2.4.36.45-.04-.16-.4-.72.23.35.32.45-.1-.3-.08-.1-.2-.25-.3-.4 0-.01-.01-.04 0-.03-.6-.93-.52-.75-.26-.3-.02-.02-.01.03.06.17-.55-1-1.7-2.73-1.67-2.9l-4.52-7.2c-.1-.3.26.24.7.92l-1-1.7c.07-.02.6.95.93 1.47-.55-1.04-1.16-2.08-1.8-3.16-.63-1.1-1.33-2.2-1.9-3.45l-.32-.48-.07-.15c-.03.02-.35-.5-.55-.86-.12-.38.16-.05-.48-1.25-.45-.98-1.38-2.72-2.05-3.97.32.7.18.48.01.2-.3-.6-.4-1-.65-1.46l.06-.1c.03.28-.83-1.57-.97-1.8-.1-.38.5.93.6 1.07-1.14-2.48-.6-1.23-1.67-3.73-.64-1.3.02.28-.33-.33-.53-1.17-1.04-2.32-1.53-3.7l.1.46c-.93-2.23-1.4-3.6-1.8-5.18-1.54-4.23-2.12-6.67-2.43-7.85-.27-1.2-.33-1.1-.35-.44 0 .7.17 1.92.38 2.98.2 1.05.42 1.92.42 1.92.84 3.5 1.78 6.05 2.84 8.72 1.07 2.67 2.34 5.44 4.16 9.27 3.23 6.7 4.05 8.53 7.97 15.18a154.3 154.3 0 0 0 2.91 4.82l2.96 4.7c1 1.38 2.5 4 3.7 5.62l.36.7a21.01 21.01 0 0 1 1.21 1.85l-.04-.03c.6.84 1.23 1.84 1.53 2.25l-.04-.02.7 1.05-.14-.17 2.95 4.42V275c1.86 3 2.73 3.95 4.4 6.65l-.04-.02c2.43 3.2 3.4 5.34 5.93 8.63-.3-.4.1.2.05.18 1.1 1.56 2.25 3.23 2.4 3.15.78 1.14.6.96.64 1.15.06-.05.77.93 1.38 1.8l-.3-.4 1.78 2.54-.23-.58c.9 1.38.1.44 1.02 1.72l.08-.08c1.27 1.9 1.9 3.08 3.07 4.94 5.14 7.58 11.15 15.36 15.1 22.92l.1.37c-.03.2 1.35 1.93 1.4 2.27l.55.83c.18.27.45.8.18.38zm-92.77 97.1c.04-.08.05-.15.07-.22l-.07.22zm4.8-41.77h.05c0-.02-.01-.02-.05.01z"/></svg>