<svg xmlns="http://www.w3.org/2000/svg" viewBox="0 0 480 480" xmlns:v="https://vecta.io/nano"><path d="M2711.8 107l.5-.12c-.02-.02-.15 0-.5.12zm19.8-3.25h-.03c-.04.01-.1.02-.13.04l.16-.04z"/><g fill="#fff"><path d="M353.3 420.04c-.4-3.1-1.5-2.7-1.5-2.7l-25.23 3.84 13.06-2.04 9.27-1.4.02-.04 3.02-.47s.46-1.1.26-3.7c-.3-2.7-2.2-4.3-4.5-5.1-2.4-.9-24.8-6.1-29.5-7.4-3.33-.92-5.15-1.28-6.43-.14-.84-.27-1.48-.5-1.87-.66-1.02-.43-2.1-2.88-3.07-5.98l4.46-1c2.8-.6 4.5-3.4 3.9-6.1l-20.3-88.9c-5.18-18.87-17.96-60.38-25.87-85.66l1.77-5.84h-76.2c.58 5.6 1.83 12.82 4.6 21.3l-8.2 47.2c-1.6 8.6-8.7 31.7-15.3 47.2l-23.5 56.5c-1.7 4.1.5 8.8 4.8 10l.93.26-3.96 10.27c-1.76 4.58-2.58 5.77-4.25 10.94-2.2 6.37-1.42 8.48-.44 10.3s1.67 2.12 10.65 4.04c2.66.55 7.23 1.52 13.07 2.3l-.7 1.32-24.23-.4c-.3.1-1.9.67-2.23 2.47-.33 2.3.96 3.3 1.16 3.32h.1l35.5.28 37.6.8s1.8-.48 1.93-2.47c.14-2.8-1.06-2.6-1.06-2.6H221c.17-.28.7-1.3.9-3.5.34-2.6-1.24-4.52-3.42-5.75-2.08-1.33-23.26-10.52-27.63-12.68-3.02-1.5-4.7-2.2-6.15-1.42-.55-1.22.75-4.85 2.64-9l12.04 3.38c1.8.5 3.6-.3 4.5-1.9 4.5-8.3 17.8-33.4 24.2-49.9 6.34-16.3 9.83-25.7 12.25-33.22 5.16 14.15 13 38.2 17.15 54.32 3.3 12.7 5.7 23.8 6.9 29.5.5 2.2 2.7 3.6 4.8 3.1l7.55-1.7.27 1.1c1.2 4.8 1.8 6.7 1.1 13.3-.7 6.7.2 7.6 1.5 9.2s2.5 2.9 11.6 1.7l12.56-1.8c-.02.06-.03.1-.04.13l-24.13 3.68s-1.8.8-1.7 3.2c.2 2.9 1.8 3.7 1.9 3.5l72.1-11.9c.01.03 1.7-.77 1.4-3.07z"/><path d="M148.08 428h0z"/></g><path d="M353.85 417.4c.01.01.01.02.02.03l.2.2-.22-.23z"/><path d="M354.33 420.43l.12-.07-.16-1.03a1.22 1.22 0 0 1 .01-.4c.02-.1.04-.2 0-.4-.02-.1-.04-.23-.1-.4-.07-.2-.1-.32-.33-.7a4.17 4.17 0 0 0-.47-.4c-.1-.1-.2-.18-.3-.25l.07-.3.16-.83c-.17-.48-.06-1.53-.25-1.87.05-.02.01-.58-.07-1-.08-.4-.1-.65.14-.03.05.1.07.3.03.3l.15.14c.02-1.4-.8-2.38-1.62-3.38.23.32.53.74.26.5-.23-.33-.5-.64-.78-.92l.25.1c-.4-.45-.88-.84-1.37-1.17l.14.24c-.68-.5-.88-.86-1.82-1.04-.42-.05.66.43-.16.17-1.02-.47-2.44-.95-3.7-1.32.08.17-.25.08-.6.02l-.01-.13c-1.37-.17-.42-.4-1.77-.6l.14-.06-.4.17c-1.25-.06-.58-.4-1.98-.4.53.1.18.33-.45.12l.2-.08c-.36-.06-.5-.04-.72-.13.23-.01.15-.14-.37-.25l.4-.06-1.04-.03c-.73-.3-1.98-.45-2.26-.7 0 0-1.62-.48-2.04-.4.36-.03-.54-.3-.25-.36-.46.02-1.74-.18-2.2-.43l.1.01c-1.83-.6-3.23-.58-4.85-1.16.04.16-.82-.13-.65.1-1.77-.24-3.05-1.13-3.8-.74-.8-.17-.9-.36-1.3-.5l.2.02-2.98-.74c-.57-.1-.7.13-1.7-.16.35-.02-.06-.1-.45-.18.25.03.34.01-.16-.16-.08.02-.2.01-.3.02 0-.01-.02-.02-.01-.03-.67-.06-.56-.01-.25.05-.02.01.01.04.1.08-.33-.12-.82-.18-1.26-.17-.43-.01-.8.07-.87-.02-.54.12-1.02.38-1.4.68l-1.02-.35c-.2-.06-.4-.14-.46-.2-.1-.07-.23-.18-.33-.3-.45-.54-.82-1.27-1.14-1.96a28.5 28.5 0 0 1-.96-2.44l3.95-.96a6.75 6.75 0 0 0 1.12-.4c.7-.34 1.3-.8 1.74-1.3.9-1.03 1.3-2.18 1.4-3.08s-.04-1.58-.16-1.93c-.1-.35-.2-.38-.2-.13-.02.27.07.87-.12 1.82a5.18 5.18 0 0 1-2.09 3.24c-.7.52-1.56.78-2.64.95l-3.55.66-9.22 1.76.37-.13c-8.46 1.8-13.78 2.97-19.55 4.5-.98-.07-6.94 1.54-8.93 1.9l.18-.07-.95.25a2.59 2.59 0 0 1-.78.08c-.53-.01-1.06-.2-1.52-.48s-.84-.7-1.1-1.18c-.12-.24-.24-.5-.3-.75-.07-.23-.13-.63-.2-.94-.5-2.64-1.03-5.27-1.68-7.73.07.2.17.28.42 1.42-.83-3.62-2.05-8.54-1.95-8.85l-3.56-14.2c-1.25-4.76-2.56-9.08-3.48-11.77l.15.36c-1.1-3.05-1.2-4-2.35-7.44-.04-.2-.1-.44-.08-.4-1.2-3.32-3.1-9.8-4.06-12.5l.05-.2-2.23-6.65.8 2.5c-.58-.76-1.5-5.1-3.34-9.84-1.53-4.5-3.8-8.9-5.46-13.56-1-2.14 1 1.84-.42-1.4.1-.17.7 1.5.5.6-1.35-3.2-1.98-5.33-3.8-9.2l.04-.2c-2.45-5-4.23-9.64-6.04-12.88-2.62-5.1-1.36-3.63-4.26-8.87l-.9-2.15c-1.14-2.3-1-1.54-2.24-4.1.17.1-1.57-3.23-.72-1.8-2.8-5.78-6.24-11.45-9.98-19.03-1.07-1.52-2.93-5.33-3.67-6.47 0-.12-.94-2.02-1.56-3.4-.6-1.37-.93-2.18.13-.06.18.37.5 1 .44.98l.36.46c-1.84-4.4-3.68-7.87-5.23-12.34.44 1.33 1.08 3.08.58 1.94-.5-1.38-1-2.76-1.43-4.16l.4.83a97.78 97.78 0 0 1-1.84-6.27l.12.9c-.78-3.1-.84-4.24-1.74-7.73-.42-1.58.43 3-.28-.3-.2-1.18-.42-2.52-.6-3.96-.1-.72-.18-1.47-.27-2.24l-.06-.53v-.22l-.03-.42.22.02.1.01.4.01 1.92.03 3.77.04c-.52-.14.97-.14 2.5-.17l.18.12c5.85-.17 2.15.27 7.95.14l1.02-.17c5.24-.25 2.83.26 8.65-.08-2.3.02-1.08-.27 1.75-.22l-.72.12c1.57-.03 2.1-.08 3.14-.05-.93.06-.5.17 1.8.15l-1.55.15 4.36-.22c3.37.13 8.7-.03 10.08.14 0 0 7.24.08 8.9-.1-1.45.12 2.54.16 1.4.3 1.87-.13 7.4-.24 9.63-.1l-.42.02 3.27.03h2.17l2.05 6.27 2.22 7.23c.04-.36 1.12 3.37 1 2.4 2.43 7.2 3.74 13.37 5.1 15.83 1.05 3.3 1.08 3.96 1.57 5.68l-.27-.78 3.9 12.6c.75 2.28 1.12 2.57 2.3 6.7-.5-1.3.02.38.5 1.92-.3-.98-.44-1.28.1.77.12.28.27.7.4 1.12 0 .02.02.1-.01.06.8 2.57.7 2.1.36.9.03.06.02-.05-.06-.43.68 2.7 2.24 7.45 2.16 7.83l6.04 19.7c.1.75-.38-.74-.96-2.6l1.32 4.6c-.14 0-.8-2.62-1.24-4.03 1.36 5.52 3.28 11.24 4.66 17.77l.43 1.32.08.4c.05-.03.47 1.4.72 2.36.1.94-.28 0 .5 3.2.5 2.57 1.75 7.2 2.57 10.53-.4-1.8-.2-1.24.02-.47.37 1.6.47 2.56.8 3.8l-.1.15c.16.2 1.1 4.26 1.28 4.8.1.94-.67-2.48-.84-2.86l2.2 9.68c.88 3.42.01-.66.5.96.7 3.04 1.48 5.98 2.15 9.5l-.1-1.14c1.37 5.7 2.1 9.13 2.8 13 10.3 42.43 3.47 8.66 3.47 8.66-3.34-16.86-5.62-25.45-10.26-45.38l-4.5-19.96a323.32 323.32 0 0 0-5.35-20.3l-7.77-25.94c-1.4-3.9-3.32-10.92-4.9-15.54l-.44-1.84c-.55-1.6-1.17-3.47-1.6-5.1l.06.1c-.83-2.38-1.6-5.1-2.02-6.28l.06.1-.92-2.9.2.5c-1.4-4.16-2.73-8.47-3.87-12.28l-.04.36a276.63 276.63 0 0 0-2.4-7.85l-.14-.44c.04-.16.1-.33.13-.5l.13-.53c.03-.14.05-.22.04-.22l1.37-4.47c.94-1.5-.94-.9-1.85-1.03h-1.97c0-.01 0-.01-.01-.02h-2.68l-2.23-.04.1-.04c-9.7.38-15.34-.26-25.34.1 1.25-.05-.53-.07-.43-.1-4.6.04-9.53.06-9.6.35-3.36 0-2.73-.1-3.17-.2.02.12-2.9.18-5.52.18l1.2-.05-7.5.04 1.47.24c-3.98-.07-1-.3-4.83-.23l.05.2c-2.75-.02-4.94-.1-7.1-.2l-3.3-.15-1.76-.07-.93-.03-1.55-.03h-1.3l.36 3.18.28 2.07a102.69 102.69 0 0 0 .7 4.15c.53 2.76 1.2 5.5 1.96 8.23a111.18 111.18 0 0 0 1.22 4.05l-3.15 19.35-5.22 28.53c-.64 3.14-1.57 6.73-2.8 11.1-2.42 8.34-5.27 17.17-8.18 25.15-.6 1.93-1.6 4.53-2.66 7.2l-3.1 7.65-.82 1.67c-.58 1.55-1.28 3.35-1.98 4.86l.01-.1c-.86 2.3-1.98 4.86-2.4 6l.01-.1-1.14 2.77.15-.5c-1.56 4-3.26 8.1-4.8 11.68l.26-.24c-3.35 7.64-4.25 10.57-7.32 17.45v-.1c-.83 2.23-1.6 4.2-2.4 6.07l-1.15 2.7a8.8 8.8 0 0 0-.7 3.12c-.08 2.14.67 4.37 2.3 6.06.8.84 1.85 1.54 3.04 1.97.63.22 1.17.35 1.73.5l1.74.43c-1.2-.3.48.2.38.22 4.36 1.18 9 2.46 9.16 2.2 3.17.9 2.56.8 2.94 1.03.02-.13 2.78.6 5.26 1.28l-1.15-.27 7.1 1.95-1.33-.62c3.74 1.12.88.55 4.5 1.5l.01-.2c.15.04.3.1.44.13-.01.02-.02.05-.03.06l-.1.04c-.4.92-.8 1.84-1.15 2.78l.43-1.04c.04.43-1.02 2.04-1.48 4.23-.13.48-.2.98-.22 1.5a3.4 3.4 0 0 0 .03.45c-.44.28-.74.63-1 .96-.52.68-.86 1.37-1.22 2.08-.17.1-.06-.26.15-.68l-.53 1c-.12-.07.25-.6.4-.92-.87 1.08-1.15 2.52-2.07 3.8l-.06.33-.06.07c.05.02-.05.37-.14.58-.2.14-.23-.14-.6.54-.4.5-.76 1.56-1.08 2.3.22-.37.2-.22.16-.04-.18.34-.38.48-.48.77l-.16-.04c.2-.07-.33.97-.34 1.12-.2.14.2-.58.16-.7l-1.06 2.06c-.28.8.2-.06.14.35-.3.66-.54 1.34-1 2.04l.25-.17c-.54 1.26-.93 1.98-1.48 2.73l-.87 2.35-1.03-.15c.13.1-1.5-.18-1.1-.01-3.22-.37-5.77-1.2-6.98-1.07-1.45-.26-1.7-.42-2.44-.58l.35.05-5.5-1.15c-1-.2-1.2-.06-2.96-.55.6.1-.14-.1-.8-.27.42.1.55.13-.28-.17-.12-.02-.3-.06-.48-.1-.01-.01-.04-.02-.02-.02-1.04-.36-.85-.3-.4-.1-.03 0 .01.03.15.1-.52-.24-1.25-.55-1.64-1-.4-.43-.63-.97-.62-1.05-.82-1.44-.97-2.83-.9-4.2.1-1.36.36-2.66.74-4.03.15-.3-.02.36-.2 1.16.16-.65.34-1.3.54-1.94.07.04-.3 1.12-.44 1.72.77-2.25 1.35-4.8 2.5-7.36l.16-.57.07-.15c-.04-.01.17-.6.32-1 .22-.34.14.1.68-1.2.5-1 1.18-2.96 1.64-4.33-.3.73-.24.48-.14.15.25-.66.45-1 .62-1.53l.1-.03c-.18.23.57-1.75.62-2 .2-.35-.33 1.04-.35 1.22l.72-1.9-1.16-.08-1.24 3.34c-1.33 3.6-2.4 5.72-3.36 8.03-.47 1.15-.92 2.33-1.38 3.7-.44 1.35-1 2.9-1.4 4.93-.2.97-.33 1.98-.3 3.03s.27 2.17.74 3.13a9.2 9.2 0 0 0 .8 1.4c.35.5.85.9 1.34 1.15.98.5 1.92.76 2.83 1 1.76.35 4.77 1.12 6.83 1.45l.78.23c.7.1 1.54.25 2.24.43l-.05.01c1.06.15 2.25.4 2.78.48h-.05l1.3.22-.23-.01 5.45.83-.13-.1c.3.05.56.1.83.13 0 .01-.01.03-.01.04-.4-.01-.78-.02-1.18-.07l-.43.1-.12-.02c.01.06-.45.12-.76.14-.3-.12.03-.27-.98-.28-.8-.13-2.27.02-3.32.06.56.03.38.1.14.13-.5 0-.8-.13-1.18-.08l-.05-.16c.2.15-1.32.14-1.5.2-.3-.12.8-.1.9-.17l-3.04-.03c-1.08.1.2.15-.33.28-.95.02-1.9.1-2.98 0l.34.15c-1.8.08-2.87.05-4.07-.12-3.72.26-5.57.5-6.3.68.01.02.01.03.02.02 0 0-.02.01-.04.01v-.04l.01-.01v-.3c0-.2 0-.1 0 .03-.23-.03-.8 0-1.6.6a3.14 3.14 0 0 0-1.1 1.87 4.7 4.7 0 0 0-.08 1.48c.03.28.1.57.2.86.12.3.22.58.52.95l-.16-.1c.32.4.73.78 1.22.76l1 .04c.56.02 1.07.03 1.56.03.97 0 1.85-.05 2.76-.16.28.3 2.17.05 2.8.15l-.06.02c1.62-.2 3.32.2 4.88.02-.06.02-.1.1-.45.1 1.13-.03 2.68-.08 2.77.1 2.7-.02 6.48.1 8.22-.17l-.12.05c1-.17 1.28-.02 2.4-.1.06.02.14.03.13.04 1.08-.17 3.14 0 4-.07l.05.1h2.14l-.8-.03c.28-.3 1.62.2 3.18.02 1.45.04 2.96-.58 4.47-.4.72-.13-.64.22.44.13.03.16-.5.1-.23.22 1.06-.05 1.73.2 3.04.12l.05.13c1.7-.2 3.2.23 4.34.04 1.76-.06 1.17.4 3 .2l.7.18c.78.04.56-.2 1.43-.1-.05.1 1.1.1.58.2 1.96.2 4-.15 6.57.2.57-.2 1.86-.04 2.3-.2.07.1 2.6.07 1.14.23-.13.01-.35.01-.33-.03l-.18.12c1.47.26 2.68-.07 4.14 0-.43-.05-1-.05-.62-.13l1.35.05-.28.1 2.02.1-.28-.13c1 .1 1.33.3 2.45.15.5-.1-.93-.2.1-.2l1.1.1c.2.02.4.03.6.05l.32.03.18.01.3.01c.37-.01.8-.22 1.02-.33a4.21 4.21 0 0 0 .76-.51c.47-.4.85-.96 1.05-1.52-.22.16.05-.43.04-1.05l.13-.06c-.05-1.02-.06-1.23 0-1.45.02-.1.04-.22.01-.46-.02-.08-.08-.38-.2-.6a2.3 2.3 0 0 0-.56-.8c-.03-.02-.06-.03-.1-.05l.23-.57c-.07-.5.22-1.54.08-1.88.04-.01.12-.54.14-.96.01-.4.04-.67.14 0 .02.12 0 .32-.03.3l.1.16c.17-.65.1-1.33-.1-1.93s-.52-1.15-.85-1.73c.18.35.4.83.17.55a6.13 6.13 0 0 0-.63-1.04l.23.15c-.33-.5-.73-.97-1.16-1.38l.1.26c-.58-.6-.74-1-1.6-1.32-.4-.12.55.53-.18.14-.9-.65-2.22-1.38-3.38-1.98.05.18-.26.03-.6-.1l.02-.13c-1.32-.42-.34-.46-1.63-.9l-.3.06c-1.22-.3-.5-.5-1.87-.77.5.2.12.35-.46.03l.2-.04c-.34-.13-.48-.13-.7-.26.23.03.18-.1-.32-.3h.4l-1.02-.22c-.66-.44-1.87-.8-2.1-1.1 0 0-1.5-.77-1.94-.76.36.03-.48-.4-.18-.4-.45-.06-1.68-.5-2.1-.83l.1.03c-1.7-.9-3.07-1.16-4.56-2.02.01.16-.78-.28-.65-.02-1.7-.56-2.8-1.67-3.6-1.42-.75-.3-.8-.52-1.18-.72l.2.05c-1.4-.6-1.76-.77-2.78-1.28-.54-.2-.72 0-1.64-.48.35.04-.04-.12-.4-.26.24.08.33.07-.13-.2-.08 0-.2-.02-.3-.04 0-.01-.02-.02-.01-.03-.65-.18-.55-.1-.26 0-.02.01 0 .04.08.1-.3-.18-.78-.32-1.22-.4-.43-.07-.8-.08-.87-.16-.22 0-.42.05-.63.1 0-.06 0-.12.01-.18.06-.53.2-1.1.35-1.65.32-1.12.74-2.25 1.17-3.34a64.62 64.62 0 0 1 .91-2.17l5.3 1.68 3.07 1.02 2.52.8c.3.1.58.2 1 .3 1.67.34 3.53-.32 4.63-1.64.14-.16.26-.33.4-.5a6.53 6.53 0 0 0 .3-.51l.5-.9.98-1.83 3.86-7.38 7.47-14.95c4.85-9.97 9.38-19.95 13.06-29.4l.46-.78c.34-.3 1.7-5.32 2.17-5.97l.74-2.24c.27-.6.8-1.9.43-.78.78-2.03.76-2.1 1.25-3.6l.94-2.15a225.61 225.61 0 0 0 3.64-10.3l9.75 28.55c2.65 8 5.12 16.77 7.22 25.68l6.03 26.3c.03.23.2.9.43 1.36.13.24.25.45.36.6.1.14.17.23.17.22.93 1.3 2.5 2.14 4.16 2.1a5.96 5.96 0 0 0 1.15-.17l.96-.22 9.64-2.15 26.46-6.1c.32.98.65 1.92.93 2.46l-.03.1c.34.7.65 1.44 1.18 2.1l-.3-.44c.1.06.2.22.38.44.1.1.17.24.3.37l.2.2c.1.06.2.13.3.2.33.16.7.3 1.1.46-.07.12-.16.23-.22.35-.4.76-.62 1.5-.85 2.26-.15.14-.1-.24.03-.7-.12.36-.25.73-.35 1.08-.13-.05.14-.64.24-.98-.68 1.22-.7 2.7-1.36 4.12v.34l-.04.08c.05.01.02.37-.03.6-.18.18-.25-.1-.48.64-.3.55-.46 1.67-.64 2.46.15-.4.17-.25.15-.06-.1.37-.3.55-.33.85l-.16-.01c.2-.1-.14 1-.12 1.17-.18.18.08-.6.02-.72l-.66 2.23c-.13.82.2-.1.2.32-.18.7-.28 1.42-.6 2.2l.2-.2c-.3 1.34-.54 2.12-.94 2.96-.3 1.7-.48 2.9-.56 3.72-.01 0-.03 0-.04.01.14.06-1.2.23-1.08.3l-.1.04a30.39 30.39 0 0 1-1.44.23c-.1-.03-.3-.02-.73.04-.46.01-1.12.13-1.8.28-1.1.14-2 .27-2.56.5l-.03-.1c.08.04-.08.1-.33.17l-.73.1c.2-.05.43-.1.47-.15l-1.4.22c-.17.01-.34.03-.55.05l.34-.07c-2.66.43-3.43.56-5.4.75-.98.12-1.12.32-2.9.35.57-.1-.15-.03-.8-.05.42-.01.55-.03-.3-.08-.12.02-.3.02-.48.02-.01-.01-.04-.01-.02-.02-1.08-.05-.9-.04-.4.03-.03.01.02.02.17.05-.56-.08-1.34-.16-1.94-.36s-1.03-.45-1.04-.54c-.62-.38-1.07-1-1.55-1.55-.47-.55-.8-1.08-1-1.68-.4-1.2-.44-2.53-.42-3.9.07-.3.08.34.1 1.14-.01-.65.01-1.3.04-1.95.08.02-.02 1.13 0 1.72l.5-7.6-.05-.58v-.17c-.03.01-.07-.62-.1-1.03.05-.4.18.02.08-1.37-.01-1-.4-2.65-.75-3.97l-.98.47c.66 2.93.7 4.94.57 7.02-.07 1.18-.2 2.35-.34 3.73-.13 1.4-.3 3-.14 5.03.08.96.3 2.05.87 3 .28.47.6.87.9 1.23.3.37.64.78 1.07 1.14.87.75 1.98 1.07 2.96 1.22.44.07.87.1 1.3.12-2.75.7-4.1 1.13-4.62 1.4.12-.14.18-.23.15-.3-.05-.06-.25-.1-.68.1-.4.2-1.04.67-1.4 1.7-.18.5-.26 1.16-.22 1.85.04.7.16 1.5.64 2.38l-.12-.1c.3.55 1.2 1.6 2.03 1.32l1.34-.2 1.1-.2a21.7 21.7 0 0 0 2.04-.5c.33.24 2.17-.33 2.8-.34l-.05.03c1.57-.48 3.33-.36 4.85-.8-.06.03-.08.12-.43.18 1.12-.22 2.65-.54 2.76-.4 2.68-.5 6.45-1.03 8.13-1.58l-.1.07c.95-.34 1.27-.24 2.35-.5.06.01.14.01.13.02 1.04-.35 3.12-.54 3.97-.76l.07.1 2.13-.38-.8.1c.23-.35 1.64-.08 3.16-.53 1.45-.2 2.83-1.1 4.36-1.2.7-.26-.6.33.46.05.06.15-.48.18-.2.26 1.04-.25 1.75-.12 3.03-.44l.07.1c1.65-.5 3.22-.37 4.3-.77 1.73-.4 1.23.17 3-.37l.73.05c.78-.1.52-.3 1.4-.36-.04.1 1.1-.1.6.1 1.98-.16 3.92-.9 6.54-1.03.52-.3 1.84-.4 2.23-.6.08.08 2.6-.4 1.17.02-.12.04-.34.07-.33.03l-.15.15c1.5-.01 2.64-.56 4.1-.77-.44.03-1 .14-.64-.01l1.35-.2-.26.15 2.02-.27-.3-.08c1-.1 1.37.06 2.45-.3.48-.18-.96-.02.07-.23l2.4-.25c.4-.01.75-.25 1.05-.46.25-.2.47-.4.67-.65.4-.48.66-1.07.78-1.64-.18.2-.02-.4-.08-1zM269 207.56a3.21 3.21 0 0 1 .36.02l-.1.02.4-.03c-.01.1-.05.24-.08.36l-.13.45-.3.95-.1.3-.65-2.06a5.23 5.23 0 0 0 .56 0zm-94.4 219.16c2.12-3.4 2.7-5.44 4.83-9.7.05-.1.1-.18.15-.28a1.1 1.1 0 0 1 .16.06c1.36.5 2.14.45 3.82.78 1.46.4 1.8.64 3.34.94.5.13 1 .23 1.52.34-.28.67-.47 1.4-.9 1.93l-.1-.01c-.12-.04.07.3-.05.27l.01.1c-.03.01-.08.05-.08 0-.04.08-.03.1-.02.16l-.1.05c-.2.3-.2.63-.4.95-.34.33-.58 1.15-.7 1.62-.13.7-.93 1.18-1.04 1.9-.03.01-.02.08 0 .1l-.3.56s-.53 1.04-.47 1.46c-.62-.02-1.2-.04-1.25-.14-1 0-1.86.02-2.68.05l-3.15-.04.38-.03h-1.46c.02-.13.84-.06 1.3-.08-1.08-.15-2.2-.06-3.4-.02.35-.5.62-.97.62-.97zm17-7.24v.02l.25.05-.05.02a4.43 4.43 0 0 1 1.06.22l-.01-.1c.67.26.97.14 1.57.4h-.01c.84-.04 1.22.45 2.08.43-.1 0 .03.05.02.07.38.06.8.15.83-.02.27.07.2.1.23.18.02-.07.26-.05.48 0h-.1l.62.12-.1-.17c.32.12.04.2.36.23l.02-.1a2.54 2.54 0 0 1 .64.31c-.04.02-.1.04-.13.07-.34.6-.4 1.4-.86 1.9l-.1-.01c-.12-.04.1.24-.02.2l.02.1c-.03.01-.07.04-.08-.01-.03.06-.02.07 0 .13l-.1.03c-.17.22-.14.5-.3.75-.3.24-.44.9-.53 1.28-.05.56-.78.9-.82 1.5-.02.01-.01.07.01.07l-.23.44s-.1.2-.18.42c-.67-.04-1.2-.02-1.56.2-1.06 0-1.25-.17-1.8-.22h.25l-4.03-.1c-.13.01-.23.02-.33.04-.77-.04-1.53-.04-2.28-.02-.07-.02-.2-.04-.4-.07a1.68 1.68 0 0 1-.37.06c-.01-.01-.03-.02-.02-.03-.82.01-.68.05-.3.08h0c-.05.01-.1.02-.1.03h-.04c-.13-.02-.27-.03-.42-.04.14-.08.3-.2.52-.37l.02.03c.2-.28.32-.47.3-.75.17.04.14-.25.23-.3l.01.01c-.03-.25.3-.34.27-.58.01.01.05.04.03.08.05-.14.1-.34.2-.3.13-.33.4-.76.35-1.03v.03c-.04-.16.06-.16.07-.3.02 0 .03-.01.03 0-.03-.17.17-.38.18-.5l.06.02.1-.26-.06.1c-.15-.1.2-.14.18-.38.1-.16-.17-.52 0-.66-.04-.12.1.14.1-.02.1.04.02.1.1.1.02-.15.2-.16.2-.35l.07.03c-.02-.26.27-.34.22-.53.05-.23.27-.04.24-.32l.13-.04c.06-.1-.08-.12.02-.2.05.03.1-.1.13-.02.2-.2.1-.53.4-.77-.08-.12.06-.24 0-.33.05.02.16-.3.18-.08 0 .02-.01.04-.03.03l.06.05c.2-.1.1-.35.2-.5-.05.04-.07.1-.1.04l.1-.16.04.06.15-.22h-.08c.1-.1.23-.08.2-.26-.03-.1-.15.07-.1-.07.04-.04.08-.1.13-.14.28.07.58.15.84.15l.14.1c.15 0 .3.01.44.08l-.01.02c.22-.02.44.06.55.06zm14.96 3.43l.18.12c.7.23 1.34.22 2.1.43.07.03.16.06.24.1-.16.42-.17.92-.5 1.22l-.1-.02c-.12-.04.12.2.01.16l.03.07c-.03.01-.06.03-.08-.01-.02.04-.01.05.02.1l-.1.02c-.14.16-.06.38-.18.56-.25.17-.3.66-.33.95.02.43-.63.64-.58 1.1-.02 0 0 .05.02.06l-.16.32-.05.12-.15-.03.13-.01c-2.5-.22-4.3.06-6.54-.2.1.15-1.1.03-.8.23-.9.04-1.72-.02-2.45-.1 0-.04.02-.07.01-.12.17.05.1-.2.2-.23v.01c-.05-.2.25-.26.2-.46.01.01.05.03.04.07.03-.1.06-.28.16-.24.1-.26.3-.6.24-.82l.02.02c-.05-.14.04-.13.04-.25h.03c-.05-.15.12-.3.12-.4l.06.02.08-.2-.05.07c-.15-.1.18-.1.14-.3.1-.13-.2-.44-.07-.54-.05-.1.1.12.1-.01.1.04.03.07.1.08.01-.12.17-.12.16-.27l.07.03c-.05-.22.23-.26.16-.42.02-.2.25-.01.2-.25l.12-.02c.05-.07-.1-.1 0-.16.06.03.1-.08.13-.01.18-.14.05-.43.3-.6-.1-.1.04-.2-.03-.27.05.02.12-.24.16-.05 0 .02-.01.04-.03.03l.06.05c.2-.08.05-.28.13-.4-.04.03-.06.1-.1.03l.07-.12.04.05.12-.17-.08-.01c.08-.08.2-.05.16-.2-.03-.07-.13.04-.1-.06.1-.1.26-.25.36-.4-.04-.01-.05-.02-.05-.04 1.63.37 3.36.57 4.8 1.1l.05.1c0 .13.5-.08.54.06h.2c.05.04.16.1.06.1.18.08.2.06.33.05zm14.44 3.93c-.07.6-.2 1.2-.37 1.75l-.07.2c-.06-.01-.12-.01-.16-.02-.1-.03-.22-.05-.32-.08-.22-.05-.52-.07-1.3.05.5 0 .45.14.07.2l-.48-.04h-.01l.1-.05c-.07 0-.1 0-.17.01l-.13-.1c-.04-.1-.28-.05-.56 0-.1-.04-.3-.06-.65-.07l.48-.14-1.34.18c-1.03-.16-2.66-.05-3.08-.23 0 0-2.2-.15-2.72.02.45-.1-.77-.18-.42-.3-.33.06-1 .1-1.67.1-.04-.15.2-.17.14-.32.01.01.05.03.05.06.01-.1.02-.2.12-.17.06-.2.2-.44.12-.62l.02.02c-.07-.1.02-.1.01-.2h.03c-.07-.12.08-.22.06-.3l.06.02.05-.15-.04.05c-.16-.1.15-.07.1-.22.06-.1-.26-.35-.13-.42-.06-.08.1.1.08 0 .1.04.04.06.12.07-.01-.1.14-.08.12-.2l.07.03c-.07-.17.2-.18.1-.3 0-.15.24.01.16-.18l.1-.01c.04-.05-.1-.1-.03-.13.06.03.08-.06.12 0 .15-.1-.01-.33.22-.44-.1-.1.01-.15-.06-.2.05.02.1-.18.15-.03 0 .01 0 .03-.02.02l.06.04c.17-.05.01-.2.07-.3-.04.02-.05.06-.08.02l.05-.1.05.04.1-.12-.08-.01c.07-.05.2-.02.13-.14-.04-.06-.12.02-.1-.06.05-.04.1-.1.16-.14.76.16 1.6.28 2.16.37 1.42.14 2.9 1.02 4.36 1.14.04.03.17.02.17 0l1.28.32s1.85.45 2.8.52c-.01.2-.03.38-.05.6zm-19.94-6.37c.01.01.01.02-.03.02.01-.01.02-.02.03-.02zm-53 8.08h0l-.08.02c.03-.02.05-.05.08-.07v.05zm73.23 4.38c-.25.43-.62.7-1.14.9-.1.05-.12.06-.2.05l-.58-.02-1.3-.03-2.6-.02h-5.2c-3.46 0-6.86-.04-10-.28l-.28-.15c-.12-.22-1.75.28-1.98.08l-.74.08c-.2-.04-.64-.1-.27-.13-.68-.02-.7.01-1.2.07l-.73-.15c-2.68-.16-4.95.05-7.77-.07-3.38-.38-9.75-.17-13.42-.05-5.16.28-11.15-.62-16.44-.3-.17-.03-.62.03-.6.06l-4.83-.07h-3.38-1.3c-.2-.02-.26-.13-.48-.52-.33-.66-.35-1.7-.13-2.3.2-.6.66-1.04 1-1.3.02.03.05.06.12.1.04.02.08.03.14.05l.07.02v.02c1.04.25 3.5.4 3.5.4 5.25.4 7.97.03 14.22.03 5.5.16 6.95.46 12.65.44l8.27.13a6.64 6.64 0 0 1 .81-.05c-.05.02-.1.03-.22.03.86-.01 2.05-.04 2.1.12l4.46.06c.08-.01.16-.01.24-.01.16 0 .3-.01.46-.01.54 0 1.05.03 1.32.01l-.03.03.93.01-.16.04c1.34-.05 2.72-.02 3.94.07l-.1-.15c2.6.24 3.55-.03 5.9.24l-.03.03c2.98-.3 4.68.4 7.75.14-.38.03.16.08.13.1.54 0 1.1.01 1.58-.01l.33.1c.6.04.43-.2 1.1-.1-.04.1.83.1.44.2.75.1 1.5.06 2.33.04.28-.02.72.03 1.03-.03l.26-.03c.01.07.02.06.08.32l.2-.05c.1.74-.02 1.46-.25 1.85zm-7.93-14.06l.07-.18c1.15.57 1.7 1.16 2.76 1.82.56.3 1.16.57 1.67.86.56.3 1.04.6 1.5 1 .88.74 1.54 1.68 1.7 2.75.03.18.03.36.03.55-.26-.15-.6-.34-1.08-.57l.04-.02c-.7-.23-1.13-.35-1.65-.33-.04-.2-.58-.15-.73-.25h.02c-.46.03-.86-.32-1.3-.3.02-.01.04-.05.14-.03-.3-.05-.73-.1-.73-.2-.73-.15-1.73-.43-2.22-.38l.04-.02c-.3.04-.34-.07-.65-.08-.01-.02-.03-.03-.03-.03-.3.04-.84-.18-1.08-.2v-.07l-.58-.12.2.06c-.1.15-.37-.16-.77-.2.01 0 .01-.01.02-.01 0 0 .1-.13.02-.2.05.06.1-.02.18.04-.05-.07-.06-.2.03-.23v.01c.15-.14.02-.34.18-.45-.08-.03 0-.1-.1-.1-.03-.2.33-.2.04-.4.01-.08.1-.05.14-.08l.01.02c.03-.15.05-.2.1-.3-.01-.06-.15-.14-.08-.2.05.05.05.01.07-.02 0 .03.02.04.08.01-.02-.01-.02-.03-.03-.04h.01c0-.07-.02-.06-.04-.04-.01-.01-.02-.01-.04-.01.1-.03.07-.17.17-.13.05-.18 0-.35.02-.5.06.01.1.06.1.1v-.1c.07.03.02.08.02.1.17-.07-.01-.3.16-.4l-.05-.05h.01c-.03-.01-.06-.06-.06-.1.07.01.15.07.17-.01.1-.03.04-.17.03-.26-.03.03-.06.01-.07-.02.01-.04.1-.03.07-.07l.1.03c-.1-.02-.05-.13-.08-.16.07.01.03.08.08.1.05-.14.03-.07.08-.2-.03-.1-.1-.02-.15-.1.01-.07-.02-.16.06-.22l-.1-.01c-.01-.15.03-.22.15-.27a1.85 1.85 0 0 0-.15-.47l.8.34-.2-.36c.8.46.1.37.92.7zm-6.12-2.53c-.28-.08.08.12.05.14 1 .4 2.05.85 2.18.6.7.33.54.34.6.5.05-.12.7.12 1.25.36l-.28-.07.35.15c-.08.05-.14.1-.14.1-.33.3-.18.57-.3 1.03-.2.36-.4.4-.5.8-.1.18-.15.4-.2.6.08.14-.1.24-.05.4l-.08.01c.02.05.02.1-.03.12l-.02-.01c.03.07-.03.12-.01.16l-.02-.01-.02.07-.02-.02a.34.34 0 0 1-.1.28l.08.03c-.17.14-.03.28-.2.4l-.02-.01c.12.3-.28.26-.17.56-.01-.04-.05-.01-.06-.02-.02.1-.05.22.1.28-.03.07-.07.04-.14.02.06.03.07.1.05.15h-.01v-.02.02c-.05-.01-.1-.01-.15-.03-.2.04.2-.1-.1-.1.01-.1.15-.03.1-.12-.3-.02-.44-.2-.8-.22v-.08c-.5.02-.83-.3-1.17-.24-.48-.05-.26-.3-.78-.26l-.17-.14c-.2-.07-.18.08-.4-.02.03-.06-.28-.12-.13-.15-.5-.22-1.1-.1-1.75-.44-.18.08-.5-.07-.64-.01-.01-.06-.7-.17-.28-.2.04 0 .1.01.1.03l.06-.06c-.36-.23-.73-.1-1.12-.2.1.05.26.08.15.1l-.36-.1.1-.04-.53-.16.06.1c-.2-.08-.3-.2-.5-.2.03-.06.06-.14.01-.2.04.07.12-.03.18.04-.05-.1-.03-.27.08-.3v.02c.2-.2.08-.45.28-.6-.08-.03.01-.12-.1-.14 0-.26.4-.3.12-.52.03-.1.13-.08.17-.13v.03c.06-.2.08-.25.16-.4 0-.08-.14-.16-.04-.27.04.07.05.01.07-.03 0 .03.01.05.08.01-.01-.02-.02-.04-.02-.05.03-.08 0-.07-.02-.04-.01-.01-.02-.01-.04 0 .1-.04.1-.22.2-.2.1-.24.06-.45.12-.66.06 0 .08.07.08.13l.05-.14c.07.04 0 .1 0 .15.2-.1.04-.4.24-.53l-.04-.07h.01c-.03-.01-.05-.08-.05-.1.08 0 .15.07.2-.02.1-.05.07-.23.08-.34-.04.05-.06.01-.07-.02.02-.05.1-.04.1-.1l.1.04c-.1-.02-.03-.16-.06-.2.08 0 .02.1.06.13l.12-.3c-.02-.13-.1-.02-.14-.1.03-.1.01-.2.1-.3h-.1c.02-.2.08-.3.2-.37a2.3 2.3 0 0 0-.02-.28c1.3.55 2.26 1.3 3.98 1.78zm-12.73-5.55h-.04l.66.28-.13-.01c.97.33 1.94.76 2.77 1.18l-.01-.16c1.75.96 2.53.98 4.1 1.9h-.04a6.04 6.04 0 0 1 .68.21c-.3.37-.25.72-.45 1.3-.28.5-.5.56-.68 1.12-.13.25-.23.53-.33.8.06.17-.15.33-.12.5l-.1.02c.01.06.01.13-.05.16h-.02c.02.1-.05.16-.04.2h-.02l-.03.1-.02-.03c-.01.15-.06.28-.14.38l.08.03c-.2.2-.08.37-.3.53h-.02c.08.37-.35.37-.3.75-.01-.05-.05 0-.07-.02-.01.02-.01.04-.02.06-.07-.02-.15-.05-.22-.07.02.1-.1.06-.23.05V420c-.5-.01-.14-.2-.63-.23l.05-.04-.16.12c-.46.04-.2-.2-.72-.12.2.03.05.18-.17.1l.08-.06c-.13-.02-.18 0-.26-.03.1-.02.06-.1-.13-.13l.15-.06-.4.04c-.26-.14-.7-.15-.8-.27 0 0-.58-.2-.74-.1.13-.04-.18-.14-.07-.2-.17.04-.64-.01-.8-.13h.04c-.65-.24-1.17-.16-1.75-.4.01.1-.3-.03-.25.1-.65-.04-1.08-.5-1.38-.2-.3-.05-.32-.16-.46-.2h.07a20.06 20.06 0 0 1-.9-.18v-.07c-.03.1-.17-.03-.1-.12l.05.06c.01-.06 0-.1.03-.13.02.05.1.06.12-.02l.05.1-.04-.22c.13-.1.14-.32.25-.33 0 0 .17-.24.1-.35.04.08.13-.05.18.03-.04-.1 0-.33.12-.37v.02c.22-.26.14-.56.37-.78-.08-.03.03-.15-.1-.16.04-.32.45-.4.2-.65.04-.13.15-.1.2-.17v.04a2.98 2.98 0 0 1 .21-.49c.01-.1-.12-.2-.01-.32.03.08.05.01.08-.05-.01.04.01.06.08.01-.01-.02-.02-.04-.02-.06h.01c.03-.1 0-.1-.03-.06-.01-.01-.02-.01-.04 0 .12-.07.13-.28.24-.25.12-.3.12-.56.2-.83.06 0 .08.08.07.16l.07-.18c.07.04-.01.12-.02.18.22-.15.1-.48.32-.67l-.03-.08.02-.01c-.03-.01-.05-.1-.04-.13.08 0 .14.07.2-.05.1-.06.1-.28.13-.42-.04.06-.07.02-.08-.02.03-.06.1-.06.1-.12l.1.04c-.1-.02-.01-.2-.03-.24.08 0 .01.12.05.16l.16-.37c0-.16-.1-.02-.14-.1.04-.12.03-.26.15-.36h-.1a1.14 1.14 0 0 1 .07-.22c.48.16.9.4 1.14.45zm-6.38-2.8c.92.15 2.33 1.1 3.47 1.44l.35.3c.2.06.4.12.6.2-.12.33-.18.67-.37 1.15-.36.63-.6.73-.86 1.44-.17.32-.3.68-.44 1 .04.2-.2.4-.2.64l-.1.04c0 .08-.01.16-.07.2h-.02c0 .1-.07.2-.07.26l-.02-.01-.05.1-.02-.03a1.09 1.09 0 0 1-.2.48l.08.03c-.24.27-.13.46-.37.68h-.02c.03.45-.4.5-.4.94 0-.06-.05 0-.07-.01-.06.18-.13.36.02.44-.06.12-.1.08-.16.06.07.03.04.15 0 .25v-.06l-.1.25c-.01-.01-.02-.01-.01-.02-.22-.03-.2 0-.1.03-.01.01 0 .02.03.05-.2-.13-.64-.15-.64-.26-.67-.13-1.16-.14-1.72-.22-.05-.07.1-.1.26-.07l-.4-.07c.02-.08.23.01.36.02-.43-.24-1-.1-1.5-.35l-.13.04-.03-.02c-.01.03-.14.05-.22.04-.06-.1.04-.16-.23-.22-.2-.12-.6-.1-.9-.14.15.05.1.07.02.08-.14-.03-.2-.12-.3-.1v-.1c.03.1-.37.01-.43.04-.06-.1.22-.01.27-.05l-.8-.18c-.3 0 .03.1-.13.15-.26-.04-.52-.04-.8-.16l.07.1c-.5-.05-.78-.13-1.08-.3l-.73-.02c.73-1.3 1.3-2.22 1.85-3.15l1.07-1.83c.4-.66.8-1.5 1.3-2.28.53-.77 1.07-1.25 1.56-1.32.54-.12 1.5.17 2.36.52zm48.57-83.63c-1.82 5.32-1.63 3.42-3.45 9l-.96 2.07c-.9 2.33-.45 1.75-1.5 4.32-.04-.2-1.34 3.25-.85 1.7-2.43 5.82-4.3 12-8.05 19.4-.55 1.72-2.43 5.44-2.88 6.7-.16.17-3.66 7.5-1.78 3.2.16-.37.48-1 .5-.95l.13-.56c-2.26 4.14-3.66 7.75-5.8 11.9.67-1.2 1.48-2.87 1-1.73l-1.98 3.86.32-.85-3.02 5.72.52-.73c-1.52 2.78-2.23 3.66-3.74 6.9-.67 1.47 1.56-2.57.03.4l-1.73 3.06-.46.8c-.13.2-.3.4-.48.58-.36.35-.82.6-1.32.72s-1 .1-1.54-.06l-2.05-.6-4.02-1.17c.45.27-.95-.12-2.4-.5l-.13-.17c-5.57-1.38-1.95-.83-7.47-2.24l-1-.1c-5-1.15-2.6-1-8.2-2.22 2.18.6.95.55-1.7-.25l.7.07c-1.5-.4-2-.48-2.97-.78.9.18.5-.04-1.67-.63l1.5.26-4.17-.94c-1.57-.5-3.63-1.08-5.45-1.58l-2.46-.7a10.02 10.02 0 0 1-.92-.3l-.54-.23s-.35-.14-.87-.43c-.52-.28-1.14-.8-1.68-1.44-1.13-1.3-1.5-3.2-1.55-3.9.1.62.08.07.15-.5.08-.56.25-1.12.23-.65.01-.2.07-.42.1-.7.08-.28.14-.54.3-.92l.96-2.47c.7-1.73 1.43-3.48 1.9-4.46l-.14.4c3.22-7.37 5.1-12.77 8.03-19.36-.26.25 1.28-3.24.74-2.44 2.7-6.96 5.57-12.42 6.08-15.13 1.28-3.15 1.67-3.66 2.37-5.27l-.28.76 4.93-11.98c.82-2.22.73-2.66 2.27-6.6-.37 1.32.2-.3.75-1.8-.33.96-.4 1.26.38-.67.07-.3.2-.72.33-1.13.01-.01.05-.1.04-.05.85-2.5.67-2.08.24-.93.01-.06-.05.03-.2.37 1.07-2.53 2.48-7.23 2.76-7.5 2.45-7.57 3.9-13.07 5.54-19.48.28-.7-.03.82-.5 2.7l1.15-4.56c.12.07-.58 2.64-.94 4.05.83-2.67 1.52-5.5 2.02-8.48.46-2.96.93-6.04 1.6-9.25l.13-1.36.08-.38c-.06.01.12-1.45.27-2.4.27-.9.25.1.8-3.08.55-2.5 1.2-7.18 1.7-10.5-.33 1.78-.3 1.2-.2.42.27-1.6.55-2.5.7-3.74l.14-.1c-.08-.24.6-4.28.64-4.83.27-.9-.33 2.5-.3 2.9l1.64-9.6c.48-3.44-.25.6-.1-1.06l.23-1.48a123.93 123.93 0 0 0 3.46 8.62c2.28 5.14 5 10.03 7.53 14.8l7.26 14.03.3.87c0 .45 2.9 4.9 3.07 5.7l1.17 2.1c.27.62.88 1.9.3.86 1 1.98 1.04 2 1.82 3.4l.94 2.2c3.77 7.88 7.2 14.47 10.67 22.97a353.25 353.25 0 0 1 3.8 10.2c-1 3.03-2.07 5.7-2.72 7.96zm81.2 96.76c.18.01.1-.27.17-.34l.01.01c-.07-.24.22-.4.16-.62.01.01.06.03.05.07.02-.15.03-.36.13-.34.07-.35.24-.82.14-1.08l.02.02c-.07-.15.03-.17.01-.32.01 0 .02-.01.03-.01-.07-.16.1-.4.08-.53l.07.01.06-.28-.04.1c-.17-.08.17-.18.1-.4.07-.18-.27-.47-.13-.64-.06-.1.1.12.1-.04.1.02.04.08.12.06-.01-.15.15-.2.14-.38h.07c-.07-.25.2-.38.12-.56 0-.24.25-.1.17-.36l.12-.06c.04-.1-.1-.1-.02-.2.06.02.1-.13.13-.05.16-.22 0-.54.25-.83-.1-.1.02-.25-.06-.33.05.01.1-.33.16-.1 0 .02 0 .05-.02.04l.06.04c.18-.15.02-.36.1-.54-.04.05-.05.12-.1.06l.06-.17.05.05.1-.25-.08.02c.07-.1.18-.13.15-.26.2-.02.4.01.5-.01l-.01.02h.26l-.05.03c.38-.03.76-.01 1.1.04l-.02-.1c.72.15 1-.02 1.64.14v.02c.84-.17 1.3.24 2.16.08-.1.02.04.05.03.07.4 0 .8.02.83-.15.28.02.23.07.26.14 0-.07.25-.1.48-.08l-.1.02.64.02-.12-.15c.33.06.07.18.4.17v-.12c.47.05.73.25 1.18.37.2.02.43.02.65.04-.08.53-.1 1.08-.36 1.5l-.1.01c-.13-.02.14.22.02.22l.04.1c-.03.01-.06.05-.08.01-.02.07 0 .07.02.13l-.1.05c-.13.25-.04.52-.14.8-.24.3-.26.97-.27 1.36.06.56-.6 1.03-.5 1.6-.02.01.01.07.02.07l-.14.48s-.02.07-.04.18c-1.1.1-1.98.18-2.47.54l-1.48.17c-.14 0-.27 0-.44.01l.25-.07-.97.17c-1.87.18-3.74.36-5.5.72a1.36 1.36 0 0 0-.04-.4zm2.34-8.24h0zm16.17.96l.2.1c.74.1 1.38 0 2.16.08.37.1.87.14 1.4.16-.02.17-.06.33-.17.47h-.1c-.13-.02.16.17.04.16l.05.07c-.03.01-.06.04-.08 0-.02.05 0 .05.03.1l-.1.04c-.1.18.01.38-.06.58-.2.2-.17.7-.14 1 .1.42-.5.75-.36 1.18-.02.01.01.05.03.05l-.1.33a7.28 7.28 0 0 1-1.1.1l.13-.03c-2.52.24-4.24.84-6.5 1 .12.13-1.06.23-.75.37l-.28.06c-.37.08-.72.14-1.06.18 0-.05 0-.1.03-.1l.01.01c-.1-.2.2-.3.12-.5.01.01.06.02.05.06.01-.12.01-.28.1-.27.04-.28.18-.64.07-.85h.02c-.08-.13.02-.13-.01-.26.01 0 .02-.01.03-.01-.08-.13.06-.32.04-.42l.07.01.04-.22-.03.08c-.17-.07.15-.13.08-.32.06-.14-.3-.4-.17-.52-.06-.1.12.1.08-.03.1.02.05.07.13.06-.02-.12.14-.15.1-.3l.07.01c-.1-.2.18-.3.08-.44-.02-.2.24-.06.15-.28l.12-.05c.04-.07-.1-.1-.04-.16.06.02.08-.1.12-.03.15-.17-.04-.43.2-.65-.1-.1 0-.2-.08-.26.05.01.07-.26.15-.08.01.01 0 .04-.02.03l.07.04c.17-.1-.01-.3.05-.43-.03.04-.04.1-.08.05l.04-.13.05.04.1-.2-.08.01c.06-.1.2-.1.12-.23-.04-.06-.1.03-.12-.02 1.33.03 2.66.03 3.86.25l.07.1c.02.13.5-.16.55-.03l.2-.04c.06.03.17.06.07.08.16.02.17 0 .3-.03zm4.86.36c.01 0 .02.01.04.04.01.01 0 .03-.02.02l.07.03c.05-.02.06-.05.06-.1l1.07-.01c1.44-.1 3.07.53 4.56.4.05.02.17-.01.17-.03l1.34.1s1.9.14 2.87.05a9.53 9.53 0 0 1-.05 1.32c-.02.12-.03.2-.05.28h-.1c-.07 0-.16 0-.26.02a5.94 5.94 0 0 0-1 .27c.2-.04.3-.03.35-.01l-.2.02-.9.1-.23-.1c-.07-.1-.45.06-.8.2l-.5.16c-.08.01-.15.02-.18-.01l-.44.15c-.1.01-.18.01-.28.02-.13-.01-.23-.02-.05-.08-.45.06-.52.1-.78.2l-.18.03-.5-.04c-.75.08-1.45.2-2.15.34-.45.07-.94.16-1.28.25-.08.02-.17.03-.25.05-.04-.07-.82-.01-.55-.16-.15.06-.38.13-.65.2.01-.03.01-.06-.01-.1.01.01.06.02.06.05 0-.1-.02-.2.08-.2.02-.2.12-.47-.01-.63l.03.01c-.1-.1 0-.1-.03-.2.01 0 .02-.01.03 0-.1-.1.03-.23 0-.3l.07.01.02-.16-.03.06c-.17-.06.14-.1.05-.23.05-.1-.33-.3-.2-.4-.07-.07.13.08.08-.02.1.02.05.05.13.05-.03-.1.12-.1.08-.22l.07.01c-.1-.15.15-.2.04-.32-.03-.14.24-.04.12-.2l.1-.03c.03-.05-.1-.07-.05-.12.06.02.07-.07.12-.02.13-.12-.07-.32.13-.47-.1-.07-.02-.15-.1-.2.04 0 .05-.07.08-.1-.02-.02-.01-.02 0-.02zm1.17-6.44l.04-.2c1.23.35 1.9.83 3.05 1.28 1.24.36 2.42.65 3.4 1.25 1 .58 1.8 1.4 2.17 2.46.2.5.28 1 .3 1.6-.28-.1-.68-.24-1.22-.4l.04-.03c-.73-.12-1.2-.16-1.7-.06-.07-.18-.6-.06-.77-.13l.02-.01c-.46.1-.92-.17-1.35-.08.02-.01.03-.06.13-.06-.32 0-.75.01-.77-.1-.75-.02-1.8-.14-2.3-.01l.03-.03c-.28.1-.36-.01-.67.03-.02-.01-.04-.02-.03-.03-.3.1-.87-.04-1.12-.01l-.01-.07-.13-.01c-.04-.12.17-.01.12-.15l-.1-.05c-.12-.15.17-.03 0-.2 0 .05-.17-.01-.12-.07l.07.03c-.01-.04-.03-.06-.01-.08.03.03.1.03.1-.02l.08.05-.1-.13c.1-.06.02-.2.13-.2 0 0 .08-.15-.02-.2.06.05.1-.04.18.01-.07-.06-.1-.2-.01-.23h.01c.12-.17-.05-.34.1-.48-.1-.01-.02-.1-.13-.1-.07-.2.3-.26-.03-.4 0-.08.1-.07.12-.1l.01.02a.87.87 0 0 1 .04-.3c-.02-.06-.17-.1-.12-.2.05.04.05 0 .06-.03 0 .03.03.04.08 0-.02-.01-.03-.02-.04-.04.01-.06-.01-.06-.02-.03h-.04c.1-.04.03-.18.14-.16.02-.2-.07-.34-.07-.5.06-.01.1.04.1.1v-.1c.08.02.03.07.04.1.15-.1-.07-.3.08-.4l-.06-.04.01-.01c-.03-.01-.07-.05-.08-.07.07-.01.16.04.17-.04.08-.04 0-.17-.02-.26-.02.04-.06.02-.08-.01.01-.04.08-.04.06-.08l.1.02c-.1 0-.07-.12-.1-.14.07-.01.05.07.1.1.02-.15.01-.07.04-.22-.05-.1-.1 0-.16-.06 0-.07-.05-.16.02-.22l-.1.01c-.03-.14-.01-.22.1-.3-.06-.15-.12-.26-.18-.35.07.06.2.1.43.14zm-.75-.38a.25.25 0 0 0-.17.03l-.13-.14c.14.04.23.08.3.1zm-5.73-1c-.3-.02.1.1.07.13 1.05.22 2.17.47 2.26.2.76.2.6.24.67.37.03-.12.7-.01 1.3.13h-.3l1.42.32c-.04.04-.06.08-.06.08-.27.34-.07.6-.1 1.07-.13.4-.3.46-.34.9-.06.2-.07.42-.1.6.1.12-.05.26.03.4l-.08.03c.03.05.04.1 0 .12h-.02c.04.07 0 .12.02.16l-.02-.01v.07h-.03c.04.1.02.2-.03.3h.1c-.14.17.02.28-.13.42v-.01c.18.27-.23.3-.06.58-.02-.03-.05 0-.07 0 0 .1-.01.22.16.26-.02.07-.07.05-.13.05.07.02.1.1.08.15l-.02-.03-.01.17h.15c-.06.08-.17-.01-.16.08l.1.02c-.05.12-.24.15-.35.25v.01c-.36.04-.74.3-1.1.2-.2.07.2-.13-.12-.08 0-.1.14-.05.07-.13-.3.03-.48-.13-.84-.1V413c-.48.1-.88-.16-1.2-.05-.5.03-.3-.24-.83-.13l-.2-.1c-.22-.03-.16.1-.4.05.02-.06-.3-.07-.16-.12-.54-.14-1.12.07-1.82-.15-.16.1-.52.02-.64.1-.02-.06-.72-.06-.3-.15.04-.01.1 0 .1.02l.05-.07c-.4-.17-.75.03-1.15-.02.12.03.28.04.17.08l-.35-.03c0-.01-.01-.01-.01-.02l.04-.03.03.02c0-.01 0-.02-.01-.03h0c-.01-.03-.02-.05 0-.07.03.04.1.04.1-.03l.08.07-.1-.17c.1-.08.05-.27.16-.3 0 0 .1-.2.01-.3.06.06.1-.05.18 0-.06-.08-.08-.26.02-.3l.01.02c.15-.23 0-.46.15-.66-.1-.01-.01-.12-.13-.12-.05-.26.33-.37.02-.54.01-.1.1-.1.14-.16l.01.03a1.34 1.34 0 0 1 .08-.4c-.01-.08-.17-.13-.1-.25.05.06.05 0 .07-.05 0 .03.02.05.08 0-.02-.01-.02-.03-.03-.05.02-.1 0-.08-.02-.04h-.04c.1-.07.06-.24.16-.22.04-.25-.03-.46-.01-.67.06-.01.1.05.1.12l.02-.15c.08.02.02.1.03.14.17-.14-.03-.4.13-.56l-.05-.06h.01c-.03-.01-.07-.06-.07-.1.08-.01.16.04.18-.06.1-.06.02-.23.02-.35-.03.05-.06.03-.08 0 .01-.05.1-.06.07-.1l.1.02c-.1 0-.06-.16-.1-.18.08-.01.04.1.1.12l.06-.3c-.04-.13-.1 0-.16-.07.01-.1-.03-.2.05-.3l-.1.01c-.02-.2.02-.3.13-.4a3.28 3.28 0 0 0-.06-.22c.93.3 1.85.63 3.14.74zm-10.07-2.28l-.04-.16c1.9.63 2.67.5 4.37 1.12l-.03.03c.7.05 1.28.17 1.82.32-.27.45-.13.78-.22 1.4-.18.54-.38.64-.46 1.23-.08.27-.12.57-.17.84.1.16-.1.35-.02.52l-.08.04c.02.06.03.13-.02.17h-.02c.03.1-.02.17 0 .2H331v.1h-.02c.02.15-.01.3-.07.4h.1c-.16.24-.01.37-.18.58l-.02-.01c.15.35-.27.43-.14.8-.02-.04-.05.01-.07 0-.01.15-.04.3.13.34-.03.1-.07.07-.14.07.06.01.07.07.07.14a.81.81 0 0 0-.2.03c-.14.05.25.12-.04.12-.36-.08-.9-.2-1.37-.25.04.1-.1.08-.22.1l-.01-.08c-.5.07-.17-.18-.67-.13l.05-.05-.14.15c-.46.12-.23-.17-.74 0 .2 0 .08.17-.16.12l.07-.07c-.13.01-.18.03-.27.01.08-.03.05-.1-.15-.1l.14-.08-.38.1c-.28-.1-.74-.03-.85-.14 0 0-.6-.1-.76.01.13-.06-.2-.1-.1-.18-.16.07-.64.1-.82 0l.04-.01c-.7-.13-1.2.04-1.82-.1.02.1-.3.02-.23.14-.62.06-1.1-.26-1.37-.02-.08-.23.18-.07.05-.34-.01.1-.17 0-.1-.1l.06.05c0-.07-.02-.1 0-.13.03.05.1.05.1-.05l.07.08-.08-.2c.1-.1.07-.34.18-.37 0 0 .12-.27.03-.36.05.07.12-.07.2-.01-.06-.1-.06-.33.04-.4v.02c.17-.3.03-.58.2-.84-.1-.01 0-.15-.12-.14-.03-.32.36-.48.06-.68.02-.14.12-.14.16-.2v.04c.04-.26.06-.33.1-.52-.01-.1-.16-.16-.08-.32.05.07.05 0 .07-.06 0 .04.02.06.08-.01-.02-.02-.02-.04-.03-.06.03-.1 0-.1-.02-.05-.01 0-.02 0-.04.01.1-.1.08-.3.18-.3.06-.32.01-.58.04-.85.06-.02.1.06.1.14l.03-.2c.08.02.02.12.02.18.18-.2 0-.5.18-.72l-.05-.07v-.01c-.03-.01-.06-.08-.06-.12.08-.02.16.04.2-.1.1-.08.04-.3.04-.44-.03.07-.06.04-.08 0 .02-.06.1-.08.08-.14l.1.02c-.1 0-.05-.2-.08-.23.08-.02.03.12.08.15l.1-.4c-.03-.16-.1 0-.16-.1.01-.13-.02-.26.07-.4l-.1.02c0-.17.03-.28.1-.38.02 0 .04.01.06.01l-.03.03.7.16-.13.02c1.03.13 2.06.38 2.95.64zm-15.65 3.45l.72-2c.26-.7.53-1.6.88-2.46.2-.4.4-.78.62-1.03.23-.26.42-.4.7-.5.55-.2 1.55-.1 2.47.1.93-.02 2.5.65 3.68.77l.4.23c.4.04.86.1 1.22.27l-.03.03c.18.02.36.05.53.08-.1.38-.06.75-.16 1.3-.23.7-.44.83-.56 1.58-.1.34-.17.72-.24 1.07.08.2-.12.44-.06.66l-.1.06c.02.07.02.16-.03.2h-.02c.03.1-.03.2-.02.27l-.02-.01-.02.12-.02-.03a1.06 1.06 0 0 1-.1.51l.1.01c-.18.3-.04.47-.23.74h-.02c.12.44-.3.56-.2 1-.01-.06-.05.01-.07 0-.02.2-.06.38.1.43-.04.13-.08.1-.15.1.07.02.07.14.05.24l-.02-.05-.05.3.15-.02c-.07.13-.16.03-.18.13a12.33 12.33 0 0 1-.5-.04c-.2.02-.25.18-.6.1.12-.06-.03-.05-.16-.06.1 0 .12-.03-.06-.08-.03.02-.07.03-.1.03-.23-.01-.2.01-.1.03-.01.01 0 .02.03.04-.23-.1-.66-.04-.68-.15-.7-.02-1.2.06-1.76.06-.06-.06.08-.1.24-.1l-.4-.01c.01-.08.24-.03.36-.04-.47-.16-1 .06-1.56-.1l-.12.06-.03-.01c0 .03-.13.07-.22.08-.08-.08.02-.16-.26-.18-.22-.08-.63-.01-.92.01.16.02.1.06.03.08-.14-.01-.22-.08-.33-.06v-.1c.05.1-.37.07-.43.1-.08-.08.22-.05.26-.1l-.84-.04c-.3.05.05.1-.1.17-.27 0-.53.05-.83-.03l.1.1c-.5.03-.8 0-1.13-.1-.2.02-.36.05-.53.07.53-1.6.95-2.7 1.36-3.8zm-1.64 4.64c1.4.27 2.18.08 3.9.13 1.52.15 1.92.34 3.5.38.75.06 1.56.08 2.3.1.2-.06.48-.03.77-.01-.13.68-.18 1.4-.5 1.97l-.1.01c-.13-.02.12.27 0 .27l.03.1c-.03.02-.07.07-.08.02-.03.1-.01.1.01.16l-.1.07c-.15.32-.08.65-.2 1-.27.4-.34 1.24-.38 1.73.01.7-.7 1.34-.66 2.07-.02.02 0 .08.02.1l-.18.6s-.12.4-.18.83c-.14.03-.3.1-.3.1l-3.65.54s-2.26.34-4.54.77c-.98.1-1.98.34-3.03.55.26-.63.47-1.22.47-1.22 1.43-3.72 1.65-5.82 2.9-10.3zm43.97 8.87c-.2.47-.55.87-.96 1.08-.06.04-.07.05-.2.06l-1.92.3-2.57.46-5.16.96c-3.42.64-6.8 1.23-9.96 1.58l-.3-.1c-.16-.2-1.68.6-1.95.44l-.7.22c-.2 0-.65.03-.3-.08-.68.1-.7.14-1.16.28l-.75-.01c-2.68.34-4.9.96-7.7 1.37-3.4.3-9.7 1.58-13.32 2.32-5.08 1.16-11.18 1.3-16.37 2.53a1.89 1.89 0 0 0-.6.16l-4.8.76-3.86.66c-.12.07-.24-.04-.33-.12-.12-.12-.33-.4-.46-.67-.27-.55-.44-1.24-.5-1.85-.1-1.04.33-1.82.7-2.27.35.3 3.98-.1 3.98-.1 5.28-.5 7.92-1.3 14.14-2.36 5.5-.76 6.98-.72 12.64-1.7l8.23-1.33c1.22-.4 3.48-.53 4.94-.93l.6.03c.5-.14 1.1-.27 1.62-.28l-.03.04c.75-.2 1.62-.28 2-.4l-.03.04.93-.16-.15.07c1.32-.3 2.7-.5 3.9-.66l-.12-.13c2.62-.23 3.52-.68 5.9-.84l-.03.04c2.9-.83 4.7-.45 7.7-1.28-.37.1.17.05.15.1 1.12-.2 2.28-.4 2.7-.62.2.01.64-.05.36.07.75-.03 1.5-.2 2.3-.38.23-.05.58-.1.87-.17a.74.74 0 0 1 .16.2c.02-.07.03-.17.03-.26l.06-.02c.06.12.08.2.08.26.01.1-.01.13-.02.17-.04.1-.04.12.12.62l.2-.06c.08.38.12.76.1 1.08.01.34-.06.6-.15.86zm-139.12-4.3h0l.15-.03z"/><path d="M148.1 428.5c.13-.1.18-.2.07-.24-.02-.01-.04-.01-.08-.02v.04l.01.22z"/><path d="M148.08 428.53h0c.01-.01.01-.01.01-.03h-.01v.02zm0-.43v-.07.2zm74.4 1.02l.03.03.23.13-.26-.16zM212.83 208h0l-.52.1zm89.65 124.8l.03-.04c-.02-.02-.03-.02-.03.04zm-94.54-71.04c-1.3 4.17-1.66 6.4-2.96 11.44-1.24 4.4-1.72 5.52-2.93 10.1l-1.82 6.63c-.16 1.04-.8 2.8-1.03 4l-.2.44c-.08.42-.2.9-.35 1.3l-.01-.03c-.13.63-.36 1.3-.42 1.62l-.01-.03-.2.75v-.14a39.52 39.52 0 0 1-.89 3.15l.1-.06c-.7 2.04-.76 2.85-1.44 4.68l-.01-.03c-.5 2.42-1.3 3.67-1.87 6.15.07-.3-.1.1-.1.08-.35 1.1-.73 2.3-.57 2.37-.27.8-.28.64-.37.72.07.02-.14.73-.36 1.36l.07-.3-.6 1.8.26-.3c-.37.94-.25.18-.54 1.1l.1.03c-.5 1.3-.94 2.02-1.48 3.26-1.96 5.27-3.8 11.04-5.85 15.87l-.16.18c-.16.05-.33 1.42-.52 1.56l-.16.6c-.08.15-.23.48-.15.2-.2.53-.2.55-.3.94l-.3.54c-.85 2.05-1.38 3.88-2.25 6.05-1.16 2.57-2.92 7.56-3.94 10.43-1.36 4.07-3.65 8.52-5.04 12.7-.07.13-.17.5-.15.5l-1.48 3.73s-7.17 18.1-.76 4.73l-.01.1c.87-2.02 1.4-3.3 1.8-4.77.25-.16.67-1.68.9-2.13v.05c.36-1.3 1.1-2.53 1.47-3.78-.01.05.03.1-.08.37.32-.9.75-2.1.87-2.13.8-2.1 1.97-5.02 2.34-6.42l-.01.1c.2-.8.37-1 .65-1.87.03-.04.06-.1.06-.1.22-.87.93-2.44 1.14-3.13l.08-.02.63-1.67-.25.62c-.1-.28.6-1.22.94-2.46.46-1.12.52-2.43 1.06-3.57.13-.6-.06.54.2-.32.1.01-.1.4.06.22.27-.84.6-1.3.93-2.35l.1-.01c.38-1.37 1.04-2.46 1.26-3.38.46-1.38.56-.83.96-2.3l.3-.52c.25-.6.05-.48.35-1.14.04.06.37-.83.28-.42.67-1.5 1.04-3.15 1.95-5.1.05-.48.5-1.47.53-1.83.07-.04.77-2.03.45-.85-.03.1-.1.27-.1.25l.02.16c.56-1.1.7-2.1 1.15-3.24-.15.33-.3.78-.24.46l.4-1.05-.02.24.62-1.56-.15.2c.32-.76.54-.98.76-1.9.1-.4-.37.7-.1-.13l1.56-3.85c-.13.1.01-.26.12-.63h.1c.4-1.43.34-.46.75-1.88v-.28c.3-1.3.4-.63.7-2.1-.18.56-.25.2.02-.46v.2c.12-.38.14-.52.23-.76-.04.24.06.15.23-.4l-.04.4.23-1.1c.35-.8.7-2.1.9-2.4 0 0 .6-1.74.62-2.18-.05.37.3-.6.28-.3.07-.48.42-1.84.67-2.36l-.02.1c.7-1.97.92-3.45 1.55-5.2-.1.06.22-.88.04-.67.44-1.9 1.2-3.32 1.07-4.1.23-.85.37-.98.5-1.4l-.04.2.9-3.23c.14-.6.01-.73.34-1.78-.04.36.07-.08.2-.47-.06.25-.06.34.13-.17 0-.08.02-.2.04-.3.01 0 .02-.02.02-.01.16-.66.1-.56.02-.25-.01-.02-.02 0-.07.1.27-.66.53-1.9.66-1.96.53-2 .82-3.43 1.23-5.1.1-.17.05.23-.07.7l.3-1.18c.07.03-.14.68-.23 1.05.5-1.36.67-2.9 1.24-4.5l.03-.36.04-.1c-.03 0 .02-.38.08-.63.13-.2.15.06.37-.75.24-.62.47-1.83.66-2.68-.13.45-.13.3-.1.1.1-.4.24-.62.3-.94l.1-.01c-.13.14.2-1.08.2-1.24.13-.2-.1.64-.1.76l.65-2.44c.17-.9-.13.13-.1-.3.2-.77.33-1.53.62-2.4l-.16.26c.32-1.45.57-2.3.9-3.26 2.2-10.84-.3-2.45-.3-2.45z"/><path d="M193.1 318.16h0v.14zm67.44 9.06l.43 1.4.16.9 2.5 9.3c.9 4.1 3.04 11.7 4.26 16.08 1.8 6.14 3.15 13.47 5 19.76.04.2.2.73.23.73l1.47 5.8s7.13 28.16 2.7 6.5l.06.14c-.75-3.2-1.24-5.2-1.94-7.35.08-.4-.65-2.6-.8-3.37l.03.07c-.62-1.9-.92-4.02-1.5-5.86.03.07.1.1.2.53-.37-1.36-.9-3.2-.8-3.33-.86-3.24-1.98-7.8-2.68-9.83l.06.14c-.4-1.16-.4-1.53-.8-2.84-.01-.08-.02-.17-.01-.16-.44-1.27-1-3.77-1.3-4.8l.05-.08-.68-2.57.24.96c-.26-.3-.4-1.97-1-3.8-.43-1.75-1.3-3.44-1.68-5.28-.3-.84.33.73-.07-.55.08-.07.22.6.2.24-.38-1.26-.45-2.1-.92-3.65l.06-.08c-.67-2-.92-3.87-1.4-5.2-.6-2.1-.16-1.47-.88-3.62l-.13-.88c-.23-.94-.3-.64-.53-1.7.08.05-.3-1.33-.08-.73-.53-2.38-1.43-4.73-2.1-7.87-.3-.64-.67-2.2-.9-2.7.03-.1-.86-3.12-.26-1.4.05.15.12.4.1.4l.13.2c-.35-1.8-1-3.18-1.48-4.93.13.52.34 1.2.15.76-.15-.54-.3-1.08-.5-1.63l.17.32c-.27-.8-.5-1.65-.82-2.4l.06.35c-.43-1.16-.48-1.6-1.13-2.83-.3-.55.36 1.1-.17-.07-.6-1.53-1.52-3.8-2.36-5.72 0 .2-.23-.3-.48-.82l.04-.1c-1-1.98-.18-.8-1.17-2.78l.13.15-.38-.46c-.97-1.74-.3-1.04-1.4-2.96.38.8.02.44-.4-.55l.18.22c-.26-.53-.38-.7-.53-1.07.18.3.17.13-.2-.66l.33.5-.82-1.44c-.47-1.2-1.43-2.98-1.56-3.5 0 0-1.14-2.5-1.5-3.02.3.47-.33-.9-.07-.56-.37-.6-1.35-2.47-1.65-3.26l.08.14c-1.28-2.84-2.45-4.72-3.6-7.27-.02.15-.64-1.2-.58-.8-1.4-2.53-2.2-4.8-2.97-5.57-.62-1.16-.64-1.42-.94-2.03l.16.27-2.36-4.42c-.46-.8-.67-.84-1.42-2.3.3.43-.02-.15-.3-.7.2.34.27.43-.07-.3-.07-.1-.17-.24-.25-.38 0-.01-.01-.04 0-.03-.5-.9-.44-.72-.22-.3-.02-.02-.01.02.04.16-.44-.97-1.45-2.58-1.4-2.74l-3.9-6.76c-.08-.28.24.23.6.87l-.85-1.6c.08-.02.52.9.8 1.4-.88-1.97-2.17-3.87-3.15-6.2l-.3-.44-.06-.14c-.03.02-.32-.47-.48-.8-.1-.35.16-.05-.37-1.18-.36-.92-1.2-2.53-1.74-3.7.27.64.14.45 0 .2-.25-.57-.33-.93-.55-1.36l.06-.1c.01.26-.7-1.47-.83-1.67-.07-.36.42.87.53 1-.95-2.32-.5-1.15-1.4-3.48-.54-1.22 0 .26-.3-.3-.44-1.1-.9-2.15-1.3-3.45l.07.43c-.82-2.06-1.22-3.33-1.6-4.78-1.42-3.9-2.1-6.08-2.46-7.13-.35-1.06-.42-.96-.38-.36.06.62.27 1.72.5 2.68l.43 1.75c.82 3.18 1.63 5.53 2.57 8 .93 2.47 2 5.05 3.57 8.62l1.72 4 1.4 3.13c.92 2 1.9 4 3.6 7.1 1.6 3 3.43 6.07 5 8.96.86 1.3 2.06 3.8 3 5.4l.27.67c.33.55.7 1.2.96 1.78l-.04-.03c.48.82.95 1.8 1.2 2.2l-.04-.03.54 1.02-.12-.16a90.26 90.26 0 0 1 2.23 4.33l.02-.15c1.35 2.93 2.04 3.9 3.2 6.57l-.04-.03c1.82 3.2 2.4 5.3 4.2 8.63-.23-.42.05.2.01.18.77 1.57 1.57 3.25 1.73 3.2.53 1.15.4.96.4 1.14.06-.04.56.95.98 1.85l-.22-.4 1.2 2.58-.1-.57c.6 1.4 0 .42.63 1.72l.1-.07c.84 1.9 1.18 3.1 1.92 4.98l2.54 5.85a14.24 14.24 0 0 1 .57 1.49l.5 1.5.94 3.07c1.2 4.1 2.33 8.16 3.25 11.96v.36c-.1.18.74 2.03.7 2.35l.3.86c.04.2.16.7.01.28zm81.16 85.82h0l.04.02zm-32.92-13.24c.13.18.27.35.45.5a6.54 6.54 0 0 1-.45-.5zM197.06 244.72l-.04.03c.01.02.02.02.04-.03zm-13.48 150.4h0l.5.05z"/></svg>