<svg xmlns="http://www.w3.org/2000/svg" viewBox="0 0 480 480" xmlns:v="https://vecta.io/nano"><path d="M2711.8 107l.5-.12c-.02-.02-.15 0-.5.12zm19.8-3.25h-.03c-.04.01-.1.02-.13.04l.16-.04z"/><g fill="#fff"><path d="M294.14 197.08c14.9 1.3 33.98 2 33.98 2s5.9 1.7 13.9.6c4.7-.6 1.6-2.7 2.7-3 1.1-.4 1.6-2.7 1.9-4.1.2-1.4.5-2.4.5-2.4s1.3-1.8 1.1-2.7c-.1-.9-2.7-1.6-5-1.4-2.2.1-2.3.2-3.4 0-1-.2 2.3-.8 4.1-1.4 1.7-.5 2.6-2.6-.6-2.4s-6 0-6.9.1-3 .7-4.5 1.2l-1.5.5s-1.2.5-4.4-.4-35.5-11.6-40.2-13.5c-6.1-2.4-6.48 25.6 8.32 26.9z"/><path d="M335.52 226.2s-3.4-31-3.3-39.9c.1-9.8 16.1-14.9 22.6-5.3s.8 12.5-1.8 13.4-3.7-4.1-4.9-6.8c-1.2-2.8-6.8-1.7-6.4 2.1s3.1 36.9 3.1 36.9l-9.3-.4z"/><path d="M344.92 190.3c1.8 0 3.5-.3 3.4-2.2-.1-1.8-3.3-1.7-4.3-1.6-.9 0-3.7-.3-4 1.4-.3 2 3.1 2.4 4.9 2.4z"/><path d="M344.12 190.3c-1.9 0-4.7.1-4.9 1.7-.16 1.22 2 1.85 3.83 2.1-.04 0-.1 0-.13.01-1.5.1-3.7 0-3.8 1.2-.1 1.4 1.9 2 4.2 2s3.1-.5 3.1-1.9c0-.6-.75-1-1.64-1.2 1.78-.03 3.33-.27 3.24-2-.1-2-2-1.9-3.9-1.9z"/><path d="M342.02 197.3c-1.1.1-2.9 0-3 1-.1 1.2 1.5 1.6 3.4 1.6s2.5-.4 2.5-1.5c0-.8-1.7-1.2-2.9-1.1zm12.6 176.3l2 11s.2 1 2 .8c1.9-.2 1.9-1.6 1.9-1.6l-.8-11.6-5.1 1.4z"/><path d="M322.92 224l30.8-3.5-4.3 21.5 11.3 109.6c2.3 24.3-.9 24.1-.9 24.1l-5.3.8s-3.9-2.1-7.7-23.7c-3.6-20.8-14.3-109.5-14.3-109.5l-9.6-19.3z"/><path d="M328.22 243.7l2.9 13.8 23.5-3.4-1.8-13.4z"/><path d="M339.32 249.9c.2-1.9-1.2-3.5-3-3.6s-3.4 1.2-3.5 3.1c-.2 1.9 1.2 3.5 3 3.6 1.8.2 3.4-1.2 3.5-3.1z"/></g><path d="M336.62 245.08h0l.02-.01z"/><path d="M331.83 249.2c-.1.52.03 1.15.25 1.67l.7 1.5-.1.13c-.15.16.44.02.32.17l.15.02c0 .05.02.13-.06.12.08.08.1.06.2.07v.18c.3.38.78.36 1.2.58.2.22.66.36 1.06.34.4 0 .82-.1 1.1-.22.4-.2.84-.2 1.32-.33.47-.1.97-.34 1.14-.8.04 0 .04-.1.02-.12.2-.2.35-.4.5-.64 0 0 .14-.2.24-.5s.16-.7.1-1c-.07-.3-.2-.5-.45-.46-.25.02-.58.3-1.14.6l-.04-.03c-.2.22-.28.32-.16.6-.26-.12-.15.16-.26.16l-.02-.02c.07.27-.34.12-.3.36-.01-.02-.06-.08-.04-.1-.05.1-.13.24-.24.1-.18.2-.5.24-.58.54v-.05c-.04.2-.1.07-.2.17-.01-.02-.02-.03-.02-.04-.08.2-.3.07-.4.14l-.01-.1c-.07.01-.15.01-.23.01l.1.03c-.05.3-.16-.2-.35-.02-.13-.06-.45.57-.6.36-.13.1.14-.2-.01-.13.05-.15.1-.08.1-.2-.14.04-.1-.22-.28-.17l.05-.1c-.27.12-.2-.3-.4-.18-.22-.02.14-.36-.15-.3l.07-.17c-.03-.07-.18.1-.18-.01.08-.07-.01-.13.1-.16.03-.23-.42-.16-.27-.5-.2.04-.14-.12-.3-.1.08-.04-.06-.24.16-.17.02.01.02.02-.01.03l.12-.02c.2-.18-.2-.18-.17-.32-.03.04-.02.1-.1.08v-.13l.1.01c.01-.06.02-.12.04-.18l-.13.03c.06-.1.27-.12.1-.23-.1-.05-.18.1-.2-.01.1-.14.24-.33.3-.48-.15-.01-.13-.05-.15-.1h.12c-.13-.2.27 0 .18-.17l.08.04-.24-.1c-.2-.22.26.02.01-.25-.01.07-.27-.08-.18-.14l.1.07c-.01-.05-.04-.1-.01-.1.05.05.15.1.16.03l.1.1-.14-.2c.15-.02.1-.22.26-.16 0-.01.2-.1.08-.25.06.1.16.06.24.18-.06-.12-.02-.3.1-.23v.02c.23-.02.2-.37.46-.3-.07-.13.06-.1-.03-.26.16-.27.47.24.43-.33.1-.05.15.1.2.13l-.02.03c.2-.06.25-.08.4-.06.07-.06.1-.32.24-.24-.05.1 0 .1.05.1-.03.01-.05.05.01.13.01-.03.03-.05.05-.07v.03c.1-.02.08-.05.04-.08v-.07c.06.15.25.04.2.22.24.03.48-.08.72-.02-.03.1-.1.14-.18.14l.15.04c-.07.1-.1.02-.17.03.03.26.43.01.47.3l.1-.05v.02c.04-.04.13-.07.16-.05-.06.1-.2.2-.12.26-.03.13.2.13.3.18-.02-.06.04-.08.1-.08.04.04-.04.13.02.14l-.13.1c.1-.1.2.03.28.02-.1.08-.13-.02-.2.01l.17.26c.16.05.13-.08.28-.1.07.1.2.16.16.3l.12-.08c.16.18.18.33.06.5l.74.8c.2.15.35.15.48.1.13-.07.23-.22.3-.35.07-.14.08-.26.08-.26.24-1-.3-1.48-.96-2.3l-.6-.95c-.2-.26-.45-.5-.95-.7-.44-.25-1-.33-1.47-.35-.24.18-.62-.04-.87.17l-.1-.1c-.08.07-.18.12-.28.08v-.04c-.12.1-.27.1-.33.15v-.04l-.15.06v-.06a1.5 1.5 0 0 1-.63.29l.08.12c-.47.05-.46.4-.88.47l-.02-.03c-.13.6-.8.36-.83 1.03 0-.08-.08-.02-.1-.04-.1.22-.2.47.05.6-.08.14-.14.08-.25.06.1.05.1.2.06.33l-.02-.07c-.04.12-.05.24-.08.36h.25c-.12.16-.3-.04-.3.16l.2.05c-.1.26-.43.37-.6.6zm29.97 100.63h0l.12.33z"/><path d="M362.63 368.2c-.05-1.13-.26 2.08-.2-.24.17-2.93.14-7.3-.1-11-.12.36-.17-.64-.3-1.66l.1-.13c-.52-3.9.18-1.47-.35-5.33l-.24-.66c-.6-3.47.06-1.9-.67-5.75.18 1.53-.2.75-.34-1.14l.17.47c-.13-1.04-.22-1.4-.27-2.08.13.62.2.3.03-1.22l.26 1-.52-2.88c-.1-2.25-.63-5.8-.56-6.73 0 0-.4-4.83-.7-5.9.2.96-.02-1.7.2-.96-.26-1.24-.75-4.9-.76-6.4l.04.28c-.42-5.47-1.16-9.32-1.5-14.24-.12.24-.3-2.36-.43-1.7-.7-5.05-.58-9.28-1.34-11.05-.27-2.3-.15-2.75-.24-3.94l.1.55-.94-8.78c-.22-1.6-.5-1.82-.74-4.7.2.92.06-.25-.05-1.33.1.68.15.9.07-.52-.05-.2-.1-.5-.15-.8.01-.01.01-.07.02-.04-.22-1.8-.22-1.47-.15-.64-.02-.04-.03.03-.04.3-.06-1.87-.54-5.18-.4-5.43l-1.27-10.2.66-.12-.25-.2c.58-.02.2.26.73.13l-.04-.2c.2-.02.38-.02.55-.01.2.01.3.04.57.05.5.03 1.07.05 1.8.02l.34-.04-.28-2.06-.2-1.3-.43-2.4c-.28-1.6-.53-3.15-.56-4.63l.13-.15c.2-.1-.42-.78-.24-.92l-.14-.33c.02-.1.04-.3.1-.15-.03-.32-.07-.32-.17-.55l.1-.36-.01-.2c-.01-.12-.03-.23-.04-.34l-.1-.7-.2-1.3-1.8.3-.74.1a5.05 5.05 0 0 1-.56.06h-.1c-.01-.2.1-1.03.2-1.6.24-.6.26.1.68-2.07.45-1.7.92-4.88 1.3-7.14-.26 1.2-.25.8-.18.27.2-1.08.45-1.7.57-2.53l.14-.06c-.08-.17.45-2.92.47-3.3.24-.6-.24 1.7-.2 2l1.17-5.92-2.4.28c-.5.07-.64.1-.8.13-.15.03-.24.05-.28.07-.1.03.01.04.14.05.26.01.68 0 .13.14-2 .26-3.94.58-6.2.76-.27-1.43-.05-2.97-.35-4.34.03.05.1.08.14.42-.13-1.06-.3-2.5-.15-2.6-.26-2.54-.48-6.1-.88-7.7l.06.1c-.26-.9-.13-1.2-.3-2.23.02-.06.02-.13.03-.12-.26-1-.28-2.95-.42-3.76l.1-.06-.05-.5c1.13-.13 2.06-.5 2.06-2 0-.2-.1-.5-.4-.8-.01-.01-.03-.02-.04-.02 1.1-.2 1.94-.75 1.94-2.18 0-.18-.1-.5-.4-.8.55-.14 1.05-.36 1.4-.7.4-.3.5-.9.5-1.6-.05-1.06-.55-1.62-1.24-1.92a2.71 2.71 0 0 0 .92-.56c.05.5.1 1 .35 1.56.46.96.85 2 1.75 3.25.32.17.75.6 1.42.78.3.12.65.1.93.1a1.94 1.94 0 0 0 .61-.18c.12.03.7-.18 1.15-.37.44-.18.7-.3.06.13-.1.07-.33.16-.33.12l-.12.18c1.43-.36 2.42-1.27 3.4-2.4-.28.3-.57.53-.36.24.2-.16.34-.36.5-.56s.32-.4.44-.6a3.88 3.88 0 0 1-.07.33c.2-.33.42-.65.58-1 .13-.36.32-.7.38-1.1-.07.1-.1.2-.2.27.3-1.04.56-1.47.3-2.67-.17-.52-.04 1-.23-.1-.02-.7-.18-1.54-.4-2.4-.27-.84-.58-1.72-.98-2.45-.06.2-.26-.2-.5-.6l.08-.1c-1.1-1.4-.08-.7-1.18-2.1l-.33-.16c-.57-.6-.7-.76-.82-1-.12-.22-.28-.45-1.07-.95.53.5.1.4-.56-.17l.25.04c-.4-.28-.55-.35-.8-.55.28.1.23-.06-.4-.44l.5.14c-.43-.2-.85-.38-1.3-.52-.87-.64-2.5-1.02-2.9-1.25l-.35-.1c-.2-.05-.5-.1-.82-.16-.62-.1-1.32-.13-1.58-.03.46-.1-.78-.18-.43-.3-.6.1-2.3.32-3 .35l.13-.04c-2.56.34-4.14 1.38-6.12 2.5.17.05-.86.7-.5.68-.87.8-1.66 1.52-2.24 2.22-.6.7-.93 1.35-.85 1.85a10.4 10.4 0 0 1-.37.78c-.26.08-.54.15-.8.23l-.54.1c-.06-.01-.28.06-.58.16l-.04.02c-.04.02-.37.1-.64.12a5.51 5.51 0 0 1-.91.02c-.6-.02-1.16-.12-1.3-.2a16.71 16.71 0 0 1-1.37-.29c-.37-.13-1.17-.4-.5-.23-1.26-.4-1.3-.4-2.22-.64l-1.33-.5-7.07-2.3.54-3.28c.1-.02.1-.07.02-.13l.04-.26-.53-.1c-.02-.8-.17-.68-.37-.08-.1-.02-.22-.05-.35-.07-1.48-.52-4.33-1.43-8.97-3.1l.2.01-9.38-3.15c-.34-.4-3.22-1.38-4.1-1.87l.1.02c-1.23-.44-2.4-1.1-3.57-1.7-1.13-.7-2.26-1.34-3.37-1.9.1.02.17.01.67.28-1.56-.9-3.7-2.2-3.66-2.46-1.75-1.25-3.78-2.84-5.33-4.6l-1.14-1.28c-.37-.42-.66-.88-.97-1.28-.6-.82-1.2-1.5-1.58-2.07l.14.14c-.94-1.28-1.1-1.73-2-3.25-.02-.1-.07-.2-.05-.2-.47-.73-1.07-1.85-1.6-2.95l-1.3-2.83.06-.13c-.47-1.05-.9-2.13-1.33-3.2l.46 1.2c-.46-.3-.8-2.5-1.84-4.8a18.2 18.2 0 0 0-.51-1.29c-.92-4.57-1.88-9.1-2.96-13.36a8.03 8.03 0 0 0-.19-.8c-.08-.28-.15-.52-.17-.5l-2.27-10.47-1.63-7.32-.52-2.27-.34-2.13a32.01 32.01 0 0 0-.3-1.41l-.45-1.72c-.01-.2-.15-.6-.2-.65-.02 0-.03.01-.03.01l-3.94-.63s-7.85-1.24-8.53-.75c-.14.02-.17.07-.03.14h0c.06.1.23.2.52.34l-.56-.1-.02.13-.43 2.27c.05-1.4.01-2.16-.08-2.52.05-1.08-.12-.9-.38-.06-.37.6-.82 2.4-.82 2.4a32.56 32.56 0 0 0-.49 2.03c2.5.62 4.75 1.08 7.03 1.6-2.65-.6-5.25-1.1-8.26-1.9l.86.35c-5-1.06-7.95-1.78-11.26-2.7l-8.12-1.63-9.32-2.2c0-.16-.04-.18-.13-.03l-.25-.06-.14.52c-1.43-.18-1.18.01-.1.38l-.35 1.3c-.5 1.46-1.24 3.68-2.24 6.84-4.2.8-7.13 2.4-9.9 4.3-2.76 1.98-5.4 4.4-8.7 8-1.45 1.6-2.64 2.88-3.63 4.1a68.71 68.71 0 0 0-2.73 3.33c-.87 1.07-1.7 2.18-2.62 3.48-.95 1.28-1.93 2.8-3.15 4.65-2.32 3.55-4.62 7.44-6.5 11.14-.38.9-.96 2.15-1.6 3.4-.62 1.26-1.2 2.6-1.6 3.7l-.45.8c-.25.77-.56 1.66-.92 2.4v-.06c-.32 1.17-.83 2.43-1 3v-.06l-.42 1.4.03-.26-.8 3.07c-.27 1-.5 2-.7 2.94l.17-.13a27.77 27.77 0 0 0-.76 4.74c-.07.67-.1 1.34-.13 2.06-.06.73-.08 1.52-.12 2.45l-.04-.05c.23 2.36.4 4.2.7 6.07.32 1.86.77 3.76 1.94 5.93-.3-.54.04.27-.01.24.48 1.03 1.1 2.04 1.6 2.78.53.73.96 1.18 1.08 1.1 1 1.3.77 1.1.83 1.34.1-.1 1.06.97 2.08 1.78l-.5-.35c.94.8 1.97 1.52 3.07 2.1l-.5-.57c1.65 1 .3.5 1.95 1.3l.06-.2c2.36 1.17 3.7 2 6.18 2.85a22.24 22.24 0 0 0 2.18.49l-1.48 5.87.6-2.2c.1.84-1.33 4.42-2.23 8.76-1.06 4-1.44 8.3-2.63 12.43-.36 2.02.2-1.8-.42 1.2-.18.06.25-1.4-.06-.68-.66 2.94-1.35 4.75-2.14 8.38l-.16.12c-.94 4.76-2.33 8.84-2.87 12.02-1.05 4.88-1.14 3.17-2.08 8.3l-.62 1.93c-.52 2.17-.15 1.6-.77 4-.07-.17-.75 3.03-.54 1.6-.67 2.72-1.2 5.5-1.7 8.56-.12.76-.23 1.54-.33 2.36-.04.4-.1.82-.1 1.27-.01.17-.03.58.02.9 0 .18.06.34.1.5.07.15.18.3.27.42.26.2.55.4.85.55l.22.12.16.06.33.13c.44.18.88.3 1.32.44.9.26 1.8.46 2.7.65 1.65.1 5.35.6 6.56.52.2.15 7.45.45 3.26.43-.36-.01-1-.05-.95-.08l-.5.1c4.2.5 7.66.23 11.83.3-1.23-.05-2.88-.07-1.78-.14l3.87.05-.8.1a93.61 93.61 0 0 0 5.8-.05l-.8-.1c2.84-.08 3.86.08 7.03-.45 1.43-.26-2.7.14.28-.25 3.78-.34 9.44-1.2 14.1-2.75-.48 0 .78-.4 2.03-.9l.2.06c2.4-1.04 2.83-1.25 3.3-1.37.45-.17.95-.24 3.16-1.66l.7-.64 1.17-.9.78-.63.98-.76a6.48 6.48 0 0 0 1-.9c.43-.44 1-1.1 1.74-2.22-.6.87-.87.97-.68.7l.5-.78a24.86 24.86 0 0 0 .9-1.36l-.25.62c.77-1.23.88-1.67 1.35-2.48-.34.76-.02.48.86-1.37-.13.45-.3.87-.48 1.3a20.02 20.02 0 0 0 .74-1.8l.68-1.82a85.97 85.97 0 0 0 .92-2.31c.3-.83.55-1.7.8-2.5.5-1.63.83-3.07 1.1-3.63l.24-1 .52-2.3c.33-1.74.7-3.66.7-4.4-.1 1.28.5-2.17.5-1.16.17-1.64.7-6.45 1.06-8.36l-.03.37c.92-6.55 1.08-11.4 1.7-17.1l11.25-.23 5.87.08 2.4.05 1.27.02c.22 1.63.43 3.3.64 5.53l-.04-.07c1.26 6.48 1.18 10.4 3.05 17-.25-.82.02.37-.04.3.74 3.07 1.8 6.28 2.1 6.24.68 2.2.5 1.8.5 2.12.12-.06.8 1.82 1.5 3.47l-.35-.75c.64 1.6 1.3 3.16 2.08 4.7l-.23-1c1.14 2.48 0 .77 1.3 3.07l.15-.12c.92 1.66 1.7 2.98 2.78 4.15a6.36 6.36 0 0 0 2.01 1.51c.82.4 1.8.56 2.7.65.46.03.88.08 1.4.13.5.04 1.02.1 1.7-.01a2.22 2.22 0 0 0 .54-.15c.2-.06.37-.17.53-.3.33-.23.6-.6.74-.94.3-.7.32-1.27.33-1.8 0-1.08-.16-2.06-.33-3.03s-.4-1.94-.6-2.87l-2.6-11.24-4.7-21.68v-.64c.15-.3-1.14-3.7-1.06-4.26l-.44-1.57c-.06-.45-.23-1.4-.01-.62-.3-1.47-.36-1.5-.65-2.54l-.22-1.6-.28-1.34c.7.13.5.05-.02-.07 0-.02-.01-.04-.01-.06 1.36.4 3.62.77 3.75.95 2 .35 3.7.63 5.34.82 1.63.22 3.18.4 4.85.58.36.15-.43.12-1.4.02l2.36.3c-.04.13-1.37-.12-2.1-.2 2.78.63 5.83.57 9.1 1.1l.7-.04.2.04c0-.06.75-.07 1.24-.04.46.16-.06.27 1.6.4.65.1 1.57.17 2.55.2l2.6.05a8.34 8.34 0 0 1 .5.01c.1.04.1-.08.1-.16l.03-.24c-.04.15-.03.33-.1.38a6.81 6.81 0 0 1-.29-.03c-.15-.02-.2-.03-.2-.04s.06-.02.15-.03c.05 0 .1-.01.15-.01.04-.02.15.04.13-.07.1-.56.2-1 .28-1.4.04-.17.07-.33.1-.5a3.06 3.06 0 0 0 .06-.45l.13-.04c-.1-.13.22-2.18.2-2.46.2-.44-.1 1.27-.05 1.5l.5-3.15c3.18.14 6 .35 10.02.32-.75.01.32.05.26.07l3.9.05c.54 0 1-.01 1.33-.03a.95.95 0 0 0 .2-.02c.02-.01.05-.01.07-.01.1.01.15 0 .16-.02 2 .45 1.62.38 1.87.5 0-.05.94.08 2.06.2.14 1.16.4 2.38.38 3.7l.14.4v.12c.06-.01.17.4.2.7-.1.28-.27.01-.18.95-.04.76.25 2.13.4 3.1-.03-.53.05-.37.1-.14.05.47-.04.76.04 1.12l-.15.06c.13-.2.28 1.22.36 1.4-.1.28-.17-.73-.27-.84l.3 2.85c.22 1 .13-.2.32.27.12.9.3 1.76.32 2.8l.1-.34c.28 1.67.36 2.68.34 3.82l.45 2.2c-6.16.96-9.66 1.57-11.4 1.96-.5-.8-.68-.87-.37.08-1.66.4-1.17.5.16.46.62 1.74 2.22 5.57 5.25 12.4l-.16-.2 1.7 3.55.88 1.8c-2.58.43-5.26 1.13.33 1.6l-.05.05c1.26-.04 2.05-.1 2.9-.45.17.27 1.03-.1 1.33-.04l-.02.03c.74-.3 1.6-.01 2.3-.3-.03.03-.03.1-.2.13.53-.1 1.26-.25 1.32-.1 1.27-.2 3.07-.34 3.85-.7l-.05.05c.45-.24.6-.1 1.1-.26.03.02.07.03.06.03.5-.24 1.48-.2 1.88-.33l.04.1 1-.15-.38.02c.1-.32.8.1 1.5-.2.7-.05 1.32-.8 2.05-.74.32-.18-.27.27.22.1.04.16-.23.13-.08.24.47-.13.9.06 1.4-.1l.02.12c.2-.15.44-.12.56-.1-.01.2-.03.32.08.4.04.1.04.17.02.22-.02.08-.04.18-.07.25-.05.15-.1.3.1.72l-.12.36c.02.37.24.24.2.66-.1-.01-.01.53-.15.3-.04.95.5 1.85.37 3.1.24.24.2.87.38 1.04-.08.04.15 1.23-.14.57-.02-.06-.04-.16 0-.16l-.13-.07c-.14.73.3 1.25.35 1.94.01-.2-.03-.48.07-.3l.07.64-.12-.12.07.96.1-.15c0 .24-.05.4-.07.57-.01.1-.01.17.01.27.01.08.06.25.1.23.05.02.1 0 .13-.03.03-.03.06-.06.1.03-.03.1-.08.2-.12.27l-.3-.06c.03.14.08.13-.2.2l-.04-.12c-.82.3-.35-.23-1.17.03l-.12.2c-.72.35-.44-.2-1.23.26.33-.07.2.25-.22.25l.1-.13c-.22.06-.3.12-.44.12.13-.08.05-.18-.28-.1l.2-.18-.6.3c-.5-.06-1.25.2-1.47.07 0 0-1.05.07-1.27.3.2-.14-.4-.1-.24-.26-.25.17-1.03.4-1.37.3l.06-.02c-1.2.03-2 .48-3.08.47.07.14-.5.14-.34.3-1.07.34-2.05-.08-2.37.54-.5.1-.6-.05-.87-.04l.1-.05c-.93.18-1.2.23-1.9.3-.34.1-.35.38-1 .4.2-.13-.07-.08-.3-.04.15-.04.2-.08-.13-.1-.04.04-.1.07-.16.1 0-.01-.02-.01-.01-.02-.38.1-.3.12-.13.1-.01.02.01.04.07.06-.42-.08-1.12.17-1.2 0-.48.1-.95.2-1.3.3-.2.08-.44.17-.72.25-.03-.07-.06-.14-.1-.23.07-.14.17-.07.22.02l-.1-.3c.12-.08.1.13.15.2.05-.3 0-.3-.13-.6-.15-.42-.3-.86-.3-1.36l-.15-.18v-.06c-.05.01-.17-.18-.22-.32.1-.16.27-.05.16-.5.03-.4-.28-1.05-.44-1.52.04.27-.05.2-.1.1-.05-.23.03-.4-.05-.57l.15-.06c-.13.12-.3-.58-.37-.66.1-.16.17.34.27.38l-.32-1.4c-.22-.48-.13.12-.3-.1-.12-.44-.32-.85-.34-1.38l-.1.2c-.28-.8-.37-1.32-.35-1.9-2.42-5.98-1.8-1-1.8-1 .2 2.5.88 3.7 1.6 6.58.22 1.22.3 2.02.42 2.82a36.78 36.78 0 0 0 .18 1.23l.23 1.13.34 1.58.8-.13 1.8-.26.88-.14c.3 2.56.45 5.17.88 7.57-.04-.13-.13-.2-.23-.97.34 2.46.82 5.82.68 6.02.77 5.87 1.72 14.1 2.46 17.82l-.08-.25c.45 2.12.38 2.77.77 5.16 0 .13.01.3-.01.28.47 2.32.9 6.82 1.2 8.7l-.1.14.62 4.65-.2-1.74c.38.56.26 3.55.9 6.9.37 3.16 1.46 6.32 1.75 9.62.35 1.54-.4-1.35.01.98-.15.1-.24-1.08-.3-.46.38 2.3.33 3.8.83 6.6l-.1.13c.72 3.66.8 7 1.35 9.42.64 3.8-.01 2.6.82 6.53l.06 1.57c.22 1.7.4 1.18.6 3.08-.12-.1.3 2.4.02 1.3.56 4.3 1.76 8.58 2.96 14.18.26.57.58 1.56.88 2.5.33.94.62 1.85.87 2.26-.01.1.47 1.46.88 2.4s.65 1.53-.13.06c-.12-.26-.32-.72-.27-.7l-.27-.32c.53 1.6 1.18 2.98 2.16 4.3.14.17.25.33.4.5a3.88 3.88 0 0 0 .73.68 2.5 2.5 0 0 0 .41.25h.06c.1.98-.08 1.36.22 2.43.08.56.25 1.14.38 1.67.25.22.13.7.36.98l-.1.14c.08.1.14.2.1.33h-.04c.12.14.1.33.16.4h-.04l.05.2-.06-.02c.15.27.2.5.2.83l.14-.07a1.25 1.25 0 0 0 .36.98c.2.22.43.38.75.66l-.03.03c.58.06.92.16 1.23.25.32.08.64.14 1-.1-.1.06.05.07.05.1.37-.1.78-.27.67-.54.26-.1.25-.02.33.07-.06-.1.14-.27.32-.42l-.06.1c.18-.14.34-.3.47-.5a1.31 1.31 0 0 1-.27-.06c.26-.2.3.12.44-.2l-.17-.1c.24-.36.66-.6.76-1.2-.01-1.4-.6-2.88-.36-4.2l.14-.07c.2-.04-.34-.34-.15-.4l-.1-.14c.04-.05.07-.14.12-.07 0-.14-.04-.14-.1-.24l.12-.16c.06-.56-.22-1-.2-1.6.05-.15.06-.33.06-.52.01-.01.02-.01.02-.02.16-.16.34-.5.43-.64l.22-.5c.14-.33.2-.64.32-.96l.2-.93-.26.62a21.08 21.08 0 0 0 .33-1.46c.1-.43.17-.8.2-1.2.22-.7.27-1.53.23-2.77zM252.8 111.48c-.03.22-.05.13-.06-.1.02.04.04.08.06.1zm14.52 96.05c-.02.03-.1 0-.14 0-.07.04-.17.07-.28.1l-.1-.02c0 .01-.02.03-.06.04-.04.02-.1.03-.24.04a11.17 11.17 0 0 1-.83.06c-.48-.12.03-.27-1.66-.26-1.34-.1-3.8.06-5.57.12.95.02.64.08.23.13-.85 0-1.34-.1-2-.06l-.06-.12c-.12.12-2.26.13-2.55.2-.48-.12 1.32-.1 1.53-.2l-5.1.02c-1.8.12.33.15-.54.3l-3.23.07c0-.68.2-2.72 0-2.07.4-6.6 1.45-12 1.07-14.43.23-3 .42-3.55.57-5.1l-.03.72.8-11.45c.1-2.1-.15-2.44.17-6.18.02 1.22.1-.3.2-1.7-.04.9-.02 1.18.17-.66-.02-.26-.01-.66 0-1.04.01-.01.02-.1.03-.05.12-2.34.06-1.93-.03-.85-.01-.06-.04.03-.1.37.3-2.42.43-6.76.63-7.04l.8-17.92c.13-.65.13.72.07 2.42l.2-4.15c.13.04-.06 2.4-.1 3.67.5-4.93.38-10.2.9-15.98l-.04-1.2.04-.34c-.06.01-.06-1.3-.03-2.15.16-.8.27.07.42-2.8.2-2.02.28-5.56.36-8.4l.4.76c.43.72-.47-1.48.26.07.82 2.02 1.82 5.13 2.53 7.83.06-.3.27.43.52 1.17l-.1.12c.9 2.84.01 1.12.84 3.95l-.14-.23.4.7c.77 2.56.1 1.45.94 4.3-.22-1.15.17-.6.37.84l-.18-.34c.16.78.26 1.04.32 1.57-.15-.46-.2-.22.01.93l-.28-.75c.2.7.38 1.44.56 2.17.13 1.72.68 4.4.6 5.13 0 0 .42 3.68.7 4.5-.2-.73 0 1.3-.2.75.25.94.7 3.74.7 4.9l-.04-.2c.36 4.2 1.03 7.12 1.27 10.9.13-.2.27 1.8.4 1.3.6 3.87.38 7.12 1.1 8.47.2 1.77.08 2.1.15 3.03l-.07-.42.7 6.73c.18 1.22.46 1.4.6 3.6-.17-.7-.07.2.01 1.02-.07-.53-.12-.68-.1.4.05.15.1.38.13.6-.01.01-.01.05-.02.03.17 1.37.18 1.13.13.5.02.03.03-.03.05-.23 0 1.44.4 3.98.22 4.17.43 4.13.9 7.07 1.27 10.5-.06.4-.2-.4-.34-1.4l.25 2.44c-.14-.01-.2-1.4-.3-2.15.02 1.46.2 2.96.4 4.52l.28 2.4.06.6.02.36.01.3v.13zm64.84-8.26v-.04c.05.02.04.03 0 .04zm.14-.1c-.05-.15-.1-.4-.14-.7l.07.68c-.02 0-.06 0-.08-.01a6.3 6.3 0 0 0-.05-.51 4.34 4.34 0 0 0 0 .51l-.6-.04c.3.03.5.07.6.1v.06c-.23.01-.82-.03-1.63-.17h.43c-.92-.13-1.22-.16-1.82-.3.27.04.35.03.2-.03-.08-.03-.2-.07-.4-.1-.1-.03-.2-.05-.34-.1-.08-.02-.16-.04-.25-.07-.06-.03-.14-.01-.2-.02h-.13l.12-.01c.07 0 .14-.01.2 0 .16.04.2.04.28.05l.44.06-.65-.12c-.1-.03-.2-.02-.3-.02h-.16l-.33.01-1.3.03c-2-.13-5.2-.12-6.03-.25 0 0-4.33-.18-5.33-.1.87-.04-1.5-.15-.83-.2-.34.01-.9.02-1.53.01.02-.15.05-.3.08-.5.17-1.75-.2.3-.2-.56.22-1.53.35-3.05.73-4.8l-.23.53c.36-2.9.66-4.6 1.1-6.52l.5-4.7.16-.95c1.58.55 3 1.06 4.22 1.38 3.3 1 2.12.93 5.58 1.88l1.32.5c.76.22 1.04.24 1.35.28l1.5.2c-.06.03.5.1.98.08s.85-.07.27.04c.25-.03.42-.03.78-.15l-.04.02.93-.3-.08.48c-.06.36-.07.68-.1.98-.05.6 0 1.06-.01 1.78.06.7.34.8.32 2.06-.12-.4-.08.1-.06.58-.03-.3-.07-.4-.12.23.04.1.06.22.1.34-.01.01-.01.03-.03.02.08.78.1.64.1.28.02.02.04-.01.06-.13-.1.8.14 2.25-.04 2.36.2 2.3.5 3.94.72 5.83-.03-.01-.06-.02-.1-.02zm13.4 22a6.92 6.92 0 0 0-.48.07c-.01-.03-.01-.07-.02-.1l.5.03zm-3.27-21.58c-1.3 0-2.4-.3-2.8-.7-.2-.2-.2-.3-.2-.5 0-.5 1.1-.58 1.9-.58.32-.06.6-.02.8-.02.9-.1 1.9.2 2.3.5.1.1.1.2.1.2 0 .6-.1 1.1-2.1 1.1zm.9-2.8c-.13.01-.24 0-.37 0-.3-.02-.57-.02-.84 0-1.07-.07-1.85-.35-2.3-.8-.2-.2-.38-.4-.3-.7.42-1.52 4.74-.8 5.66-.62.27.1.5.2.64.32.2.2.2.3.2.3 0 .9-.2 1.5-2.7 1.5zm4.2-4.6c0 .4-.1.8-.3 1-.37.45-1.2.56-2.07.6-1.06.03-1.56-.03-2.57-.14-1.2-.2-2.35-.58-2.76-1.05-.2-.2-.2-.3-.2-.5.1-.9 1.6-1.4 4.5-1.4h.2c2.2 0 3.1.2 3.2 1.5zm0-3.1c-.6.6-1.8.7-2.7.7-1.5 0-3.5-.3-4.2-1.1-.2-.2-.2-.5-.2-.8.2-.9 1.4-1 2.7-1h.9c3.1-.1 3.8.6 3.8 1.2 0 .4-.1.8-.3 1zm-12.63 20.28c-.4-5.16-.26-6.56-.8-11.9l-.56-7.74c-.12-.58-.18-1.4-.17-2.23l-.02-1.24c.03-.36-.01-.7.02-1.02l.2-.45c.04-.42.13-.92.36-1.3l.02.04c.14-.63.56-1.23.7-1.52l.02.04c.13-.22.3-.43.44-.65l-.04.14c.6-.96 1.5-1.78 2.4-2.33l-.15-.07c.98-.57 1.66-.94 2.34-1.27.7-.3 1.37-.6 2.4-.72l-.02.04c1.23-.46 2.3-.46 3.33-.36 1.04.12 2.04.32 3.35.57-.33-.06.1.12.07.14 1.17.35 2.27 1.04 2.44.82.76.5.54.5.57.66.04-.05.22.03.46.2a8.3 8.3 0 0 1 .77.66c-.1-.07-.18-.13-.27-.2.5.46.94.97 1.35 1.5l-.05-.46c.6.93-.06.37.57 1.24l.16-.12c.4.67.67 1.23.84 1.82.1.3.2.58.3.88l.26.97c.52 1.38.83 2.85.57 4.17-.24 1.32-1.18 2.43-2.44 3.18a11.46 11.46 0 0 1-.99.5l-.52.2c-.12.01-.23.08-.33.06-.2.03-.38-.08-.6-.2-.2-.2-.43-.42-.6-.7-.76-1.17-1.22-2.66-1.67-4.08l.04-.3c.08-.1-.14-.46-.4-.84a6.83 6.83 0 0 0-.18-.28l-.22-.32c-.14-.2-.22-.37-.25-.45-.24-.22-.47-.45-.75-.58-.18-.2-.65-.48-.22-.3-.77-.4-.82-.32-1.4-.4-.27-.07-.56-.16-.84-.2-.8-.03-1.54.18-2.22.5a3.91 3.91 0 0 0-.77.5c-1.17.07-2.5.4-2.73 1.78-.1.6.1 1.1.5 1.5.3.35.7.6 1.2.82-1.2.24-2.34.76-2.5 1.88-.1.5 0 .9.3 1.2.26.28.63.52 1.06.7-.84.2-1.5.55-1.56 1.4-.1.5.2.9.5 1.3.2.2.46.37.74.5-.65.17-1.18.5-1.24 1.2-.1.5.1.9.4 1.2.66.65 1.77.84 2.66.88l.43 3.5c.73 4.8.35 10.53 1.13 15.45-.02.16.1.58.1.57l.12 1.6c-2.63.34-4.54.53-6.63.65a6.41 6.41 0 0 0-.43.07c-.25-4.63-.9-7.16-1.54-12.82zm13.64 30.8c-1.48.2-3.15.53-4.27.76-2.4.62-5.34.1-7.8.78-.08-.02-.3.07-.28.1l-2.3.25-.9.1-4.4-8.67-4.28-8.05c-.12-.2-.22-.4-.32-.56 2.53-.1 6.9-.52 6.9-.52a313.88 313.88 0 0 0 11.65-1.23l5.4-.7 2.85-.38c.25-.03.5-.07.74-.1l.38-.05c.08-.01.1-.01.1-.01l.02-.01.22-.05c-.01.08-.01.16-.02.25l-.34 1.87-.8 4.18-2.58 12.03zM353.7 374c-1.2-2.1-2.02-4.5-2.77-6.84-1.44-4.73-2.42-9.5-3.1-14.07l.04-.62c.17-.3-.92-3.7-.8-4.24l-.34-1.57c-.03-.45-.13-1.4.04-.6-.2-1.47-.25-1.5-.47-2.54l-.1-1.6c-.72-5.8-1.66-10.7-2.42-16.82-.72-7.37-2.75-21.16-3.9-29.1-1.74-11.16-2.52-24.3-4.3-35.72-.01-.2-.06-.52-.1-.8s-.1-.52-.12-.52l-.1-.77.35-.06c.56-.3 1.64-.24 2.32-.52l.3.08c.23-.1.5-.18.77-.15l-.01.04c.35-.14.76-.15.94-.22v.04l.44-.08-.07.06a8.39 8.39 0 0 1 1.85-.33l-.07-.14c1.25-.02 1.65-.38 2.8-.35l-.01.04c1.34-.58 2.25-.06 3.64-.63-.17.07.1.06.08.1.36-.08.74-.15 1-.25 0 .02 0 .04.01.07l1.93 18c.5 2.72.8 7.6 1.3 10.83v1.27c.18 1.1.35 2.42.4 3.56l-.04-.07c.26 1.66.4 3.56.53 4.38l-.04-.07.22 2.03-.1-.34c.4 2.9.7 5.9.94 8.57l.12-.23c.42 5.68.94 7.72 1.27 12.85l-.04-.07c1.05 6.42.8 10.24 1.84 16.87-.13-.83-.04.36-.08.3.36 3.06.72 6.34 1 6.36.23 2.24.1 1.83.02 2.13.12-.02.38 1.9.56 3.66l-.13-.8.56 5 .13-1c.2 2.66-.2.7.1 3.23l.2-.05c.28 3.67.17 5.85.18 9.4.1 2.4.14 4.85.05 7.27-.03 1.22-.14 2.42-.3 3.6-.1.58-.22 1.14-.38 1.65-.08.2-.22.53-.22.5-.05.1-.14.13-.24.13l-3.76.6-.67.1c-.12.06-.2-.1-.26-.14-.3-.35-.68-.9-.95-1.4zm5.76 9.6l-.03.13-.03.03c-.02.01-.04.03-.05.04.14.03.13.04.15.08l-.12-.04c.1.18-.26-.1-.18.05l-.07-.06c.07.06.13.12.18.18.07.27-.2-.16-.12.2.04-.06.2.22.05.22l-.03-.12c-.04.05-.03.1-.08.1.01-.07-.05-.17-.12-.12v-.16c-.02.08-.04.18-.08.26-.16-.08-.38.1-.47-.05-.01 0-.34-.06-.4.12.06-.1-.1-.17-.03-.3-.03.06-.12.12-.17.13-.03.02-.06 0-.04-.06v-.01c0-.08-.04-.04-.1-.04-.06.01-.1-.04-.03-.1-.13.1-.1-.2-.27-.1-.27-.44.2-.93-.38-1-.07-.2.08-.28.1-.4l.04.05c-.12-.4-.15-.5-.2-.82-.08-.14-.35-.12-.33-.4.12.07.08-.04.06-.14.03.06.07.07.12-.07-.04-.01-.06-.04-.08-.06.01 0 .01-.01.02-.01-.07-.16-.1-.13-.1-.05-.02 0-.04.01-.06.04.1-.2-.1-.48.08-.54-.13-.5-.38-.82-.53-1.23.08-.06.18.02.24.13l-.1-.3c.13-.02.1.16.15.24.15-.4-.35-.7-.23-1.14l-.12-.07.01-.03c-.06.01-.15-.07-.18-.13.1-.08.27-.04.22-.25.06-.13-.04-.3-.13-.46l1.74-.3c-.94.1-2.2.3-1.37.1l2.94-.43-.6.2c.23-.04.44-.06.67-.1-.03.1-.06.2 0 .35l-.12.02c.25.34-.12.67.1.9.13.36-.35.27-.08.63l-.16.16c-.02.16.2.1.14.3-.1 0-.07.23-.18.13-.14.42.3.8.05 1.36.2.1.1.38.27.46-.1.02.02.54-.2.25-.02-.02-.02-.07.02-.07l-.12-.03c-.2.32.17.54.15.85.03-.1.02-.2.1-.14v.28l-.1-.05-.03.42.12-.07c-.05.2-.26.3-.07.5.1.1.16-.2.2.01.02.18-.02.36-.06.53z"/><path d="M229.14 265h0l-.34.32z"/><g fill="#fff"><path d="M245.64 208.3h22.48s-4.3-51-8.1-75.2-7.73-26.1-7.73-26.1l-6.65 101.3z"/><path d="M267.07 214.33c.17 1.86.07 2.38.4 4.3l.46 2.8c.2.4.18 1.18.38 1.66l-.04.2c.07.17.13.37.12.55l-.02-.01c.1.25.12.55.17.67h-.02l.06.3-.04-.05c.13.44.22.9.28 1.3l.08-.05c.07.9.3 1.17.35 1.98l-.02-.01c.44.94.18 1.6.62 2.57-.06-.12-.03.06-.05.06.14.46.27.96.44.93.08.34.01.3-.04.35.07-.02.17.27.24.53l-.06-.12.2.75.1-.18c.06.4-.14.14-.01.52l.1-.03c.13.56.04.93.1 1.5.56 2.25 1.6 4.53 2.13 6.62l-.05.12c-.1.08.38.5.3.6l.14.22c0 .07.03.22-.04.12.07.22.1.22.2.36l.02.26c.28.88.7 1.55 1.06 2.44.3 1.14 1.4 3.06 2.15 4.1.56.7 1.02 1.56 1.64 2.35.6.8 1.35 1.5 2.08 1.98.03.05.17.12.18.1.33.32.83.8 1.34 1.1 0 0 .48.3 1.17.5a5.86 5.86 0 0 0 2.22.2c.65-.07 1.1-.26.96-.38-.13-.14-.83-.14-2.2-.6l.04-.02c-.8-.22-1.25-.42-1.8-.6.02-.18-.52-.4-.62-.58h.02c-.5-.3-.8-.87-1.27-1.1.02 0 .06-.03.16.05-.3-.23-.7-.54-.66-.63-.68-.57-1.4-1.55-1.85-1.93l.04.02c-.27-.2-.25-.34-.5-.62 0-.02-.01-.05 0-.05-.28-.24-.55-.9-.73-1.12l.05-.05-.35-.63.1.24c-.2 0-.16-.53-.5-.94-.18-.45-.78-.73-.9-1.24-.17-.2.2.14.01-.17.08-.05.12.13.15.01-.18-.3-.14-.58-.37-.95l.06-.05c-.35-.47-.3-1.04-.57-1.35-.27-.53.06-.45-.3-.97l.01-.26c-.07-.25-.18-.13-.23-.43.07-.01-.08-.36.04-.22-.13-.65-.6-1.22-.7-2.1-.18-.14-.25-.58-.38-.7.04-.04-.27-.84 0-.4.02.04.04.1.02.1l.1.03c-.03-.5-.34-.84-.47-1.3.02.15.08.33 0 .22l-.12-.44.1.07-.16-.66-.05.1c-.06-.33.03-.48-.18-.8-.1-.15-.01.33-.13 0l-.3-1.66c-.07.07-.1-.08-.16-.22l.07-.04c-.26-.56.1-.25-.13-.8l.06.04-.2-.12c-.27-.5.08-.32-.25-.86.07.23-.13.15-.17-.14l.1.06c-.05-.15-.1-.2-.1-.3.06.08.1.03.05-.2l.12.13-.23-.4c-.01-.35-.23-.87-.16-1.03 0 0-.1-.74-.25-.88.1.13.04-.28.14-.18-.12-.17-.3-.72-.27-.96l.02.04c-.1-.84-.4-1.4-.44-2.16-.08.05-.1-.35-.2-.23-.26-.75-.03-1.45-.42-1.67-.08-.35.01-.43-.01-.62l.03.08-.25-1.34c-.07-.24-.23-.25-.27-.7.08.13.05-.05.02-.2.03.1.05.13.06-.1-.02-.03-.04-.07-.06-.12l.01-.01c-.07-.27-.08-.22-.07-.1-.01 0-.02.01-.03.05.03-.3-.13-.8-.02-.85-.14-.83-.34-1.4-.48-2.1.05-.1.1.07.16.27l-.08-.5c.08-.01.08.28.12.42.05-.6-.28-1.2-.25-1.9l-.08-.13.01-.04c-.03.01-.1-.14-.12-.24.06-.1.16-.01.12-.35.04-.28-.12-.76-.2-1.1.01.2-.04.13-.07.06-.02-.17.04-.28-.01-.4l.1-.03c-.08.08-.14-.43-.2-.5.06-.1.1.26.15.3l-.12-1.02c-.1-.36-.08.08-.18-.1-.05-.32-.15-.63-.13-1l-.07.12c-.12-.6-.15-.96-.1-1.38-.53-2.22-.75-2.46-.9-2.12-.13.34-.12 1.25-.12 1.25-.08 1.8.25 2.7.54 4.82zm-31.5-14.63c-1.93 0-3.5-1.66-3.5-3.7s1.57-3.7 3.5-3.7 3.5 1.66 3.5 3.7-1.57 3.7-3.5 3.7zm3.62-33.75c-1.93 0-3.5-1.66-3.5-3.7s1.57-3.7 3.5-3.7 3.5 1.66 3.5 3.7-1.57 3.7-3.5 3.7zm-30.24 46.87c-1.5-2.3-4.32-5.6-4.44-5.75l-.42-.5-.37.53c-.1.15-10.56 14.95-21.5 20.13l-.38.18.12.4c.05.16 1.16 3.94 3.02 5.9l2.1 2.23.36-.27c.1-.07 9.5-7.3 15.27-13.56 1.86-2.05 3.3-3.44 4.36-4.46 2.26-2.2 3.03-2.94 1.87-4.85zm20.28 25.93c2.05 0 3.73-1.77 3.73-3.9s-1.68-3.9-3.73-3.9-3.73 1.77-3.73 3.9 1.68 3.9 3.73 3.9zm-23.04 32.85c3.28-.3 4.18-.27 7.55-.96 1.6-.3 3.3-.76 4.85-1.2.7-.36 2.02-.63 2.83-1.03l.35-.06c.28-.15.6-.3.92-.38l-.01.03c.4-.22.9-.38 1.12-.5l-.01.03.5-.25-.08.07c.7-.4 1.46-.77 2.14-1.08l-.1-.05c.7-.37 1.16-.67 1.6-.95l1.45-.94v.03c1.32-1.22 2.37-1.58 3.62-2.98-.15.18.1-.03.1-.01.6-.6 1.27-1.23 1.14-1.38.42-.45.38-.33.5-.35-.06-.05.3-.46.6-.82l-.13.18c.32-.34.6-.7.88-1.07l-.28.12c.5-.54.25-.04.67-.6l-.1-.07 1.75-1.95c2.3-3.48 3.42-7.82 4.37-11.47l.12-.14c.15-.04.02-1.06.17-1.18l.03-.44c.05-.12.12-.37.1-.15.08-.4.06-.4.08-.7l.15-.42c.34-1.57.4-2.93.7-4.6.47-1.98.82-5.76 1-7.95.2-3.07 1.12-6.57 1.25-9.72.03-.1.02-.37 0-.37l.33-2.86s.4-3.47.5-5.64-.06-3.02-1.14 2.2l-.02-.07c-.23 1.56-.35 2.54-.33 3.64-.2.15-.16 1.28-.25 1.64v-.04c.03.97-.33 1.95-.32 2.9-.01-.04-.05-.06-.03-.27-.05.67-.12 1.6-.23 1.63-.16 1.6-.47 3.83-.44 4.88l-.02-.07c.04.6-.08.76-.1 1.42-.02.03-.03.08-.03.07.03.65-.22 1.86-.24 2.38l-.07.02-.15 1.27.08-.47c.16.2-.24.94-.25 1.87-.14.85.13 1.8-.08 2.67.02.44-.08-.4-.1.25-.1.01-.02-.3-.12-.15-.05.63-.25 1-.3 1.78l-.08.02c-.02 1.02-.4 1.87-.4 2.55-.12 1.04-.34.65-.4 1.74l-.18.4c-.1.45.06.35-.1.84-.06-.04-.17.63-.18.32-.34 1.1-.36 2.33-.94 3.75.02.35-.27 1.06-.26 1.32-.05.03-.52 1.43-.34.6.02-.07.06-.2.08-.18l-.03-.12c-.43.76-.44 1.5-.82 2.27.12-.22.25-.53.2-.3l-.32.72.01-.18a10.32 10.32 0 0 1-.53 1.05l.14-.1c-.3.5-.5.6-.7 1.24-.1.3.34-.43.08.12-.44.64-1.08 1.6-1.7 2.37.12-.03-.03.2-.17.42l-.08-.02c-.54.9-.36.2-.94 1.06l.02-.1-.05.3c-.47.82-.43.3-.98 1.2.27-.3.25-.03-.12.32l.04-.14c-.18.22-.22.3-.36.43.1-.15-.02-.14-.3.17l.12-.26c-.14.22-.3.43-.46.64-.5.35-1.12 1.08-1.38 1.17 0 0-1.03.78-1.2 1.06.16-.22-.4.2-.3.02-.2.3-.98.9-1.34 1.08l.06-.05c-1.2.83-2.03 1.46-3.2 2.07.1.05-.55.3-.35.33-1.18.7-2.32.9-2.66 1.35-.57.24-.72.2-1.02.3l.13-.07c-1.07.47-1.4.54-2.23.8-.4.16-.42.34-1.18.54.22-.14-.07-.02-.36.05.18-.06.23-.1-.15-.04-.05.03-.12.06-.2.1 0 0-.02 0-.01-.01-.46.14-.38.14-.16.1-.01.01.01.02.1.02-.5.05-1.36.36-1.45.27-1.4.38-2.42.68-3.6.95-.15-.04.13-.12.47-.2-.28.07-.57.1-.85.17-.01-.08.48-.12.74-.2-1.04.04-2.07.5-3.3.54l-.24.1h-.07c.01.03-.25.1-.43.15-.18-.05-.01-.16-.6-.08-.48 0-1.33.2-1.94.3.33-.02.23.03.1.07-.3.03-.48-.02-.7.03l-.04-.1c.13.08-.77.18-.88.22-.18-.06.46-.1.53-.16l-1.8.15c-.63.12.12.08-.18.2-.56.07-1.1.15-1.77.13l.2.07c-1.06.13-1.7.13-2.42.07-3.96.42-4.4.54-3.84.73.6.17 2.17.23 2.17.23 3.18.16 4.8-.15 8.53-.56zm11.44-188.3s1.5-.8 2.5 1.5c1 2.4 1.1 4 1.8 5s1.4 2 2.2.1c.8-1.8 4.6-11.4 5.4-13.8s1.7-1.7 2.2-1.1c.6.6-.3 6.1-.4 7.5s-.3 2.8.1 2.1 1.5-2 2.5-.9c1.3 1.5.7 2.7.7 2.7s1.3-.3 1.7 1.4c.1.6 0 2.2 0 2.2s1.1.1.8 3-1.8 5-3.1 6.7-2 2.4-2 2.4l-10.5 32c-3.8 11.8-10 22.8-11.4 27.3s-24.6-13.8-24.6-13.8l25.2-38.4c5.9-8.3 7.6-10.3 7.8-11.8s-1.1-3.3-1.1-5.5c.2-2.1.8-5.5.2-8.6z"/></g><path d="M240.98 91.08c-.04-.23-.1-.44-.2-.65l-.2-.43a7.08 7.08 0 0 0-.37-.73c-.25-.45-.5-.83-.83-1.2.2-.27-.5-1.03-.57-1.36l.04.02c-.6-.65-.65-1.63-1.2-2.27.04.02.1 0 .2.16-.3-.5-.74-1.2-.6-1.32-.7-1.24-1.55-3.04-2.2-3.73l.07.03c-.4-.38-.34-.58-.7-1.06 0-.04 0-.08.01-.08-.42-.42-3.45-5.92-3.4-6.1-.33-.46-.28-.88-.7-1.44l.1-.08c-.3-.35-.47-.74-.6-1.1-.15-.37-.24-.65-.53-.96-.37-.47-.48-.64-.6-.85-.12-.18-.28-.42-.93-.53-.14-.1-.28-.2-.44-.3-.56-.1-.42.13-1.02.06.03-.13-.78.04-.44-.12-.35.01-1.5.6-1.73.75-.48.3-1 .6-1.67.8-.17.32-1.43.76-1.42.8l-1.52.88-.64.3.1-.16-1 .44-2.2 1.24a3.13 3.13 0 0 0-1.44 1.39c.18-.04.01.26-.06.6h-.13c-.08.67-.1.78-.2.9-.07.1-.2.26-.01.92l.22.2c.28.53.35.7.34.82.01.14.6 1.32.6 1.32l2.56 4.9-.05-.05.12.25c0 .06-.01.15 0 .26-.06.04-.1.08-.17.13-.13.1-.07.2.18.12v2c-.03.77-.1 1.72-.27 2.87l-.3 1.88-.17 1.07c-.06.45-.03.83.02 1.27l-.06-.18c.26 2.02 1.16 3.5 1 4.6-.08.55-.4 1.12-.7 1.67l-1 1.66c-.37.24-1.83 2.55-2.4 3.25l.04-.08c-1.25 1.98-2.9 3.84-4.1 5.77.04-.08.03-.15.32-.58l-2.3 3.3-6.1 9.4-.45-.28-3-1.8-1.07-.62-1.36-.77c-.04-.02-.08-.05-.12-.06l-.27.3-1.35 1.54-.82 1c-2.23 2.6-4.44 5.5-6.4 8.2-.78 1.4-2.57 3.56-3.5 5.2l-.5.54c-.3.57-.7 1.23-1.1 1.73v-.05c-.45.86-1.07 1.76-1.3 2.2v-.05c-.2.33-.4.67-.6 1l.06-.2c-.8 1.5-1.67 3-2.44 4.33l.2-.04c-1.7 2.8-1.95 4.04-3.4 6.58l-.01-.05c-1.27 3.5-2.8 5.18-3.98 8.88.15-.46-.15.16-.17.1-.64 1.66-1.27 3.46-1 3.6-.43 1.22-.43.97-.6 1.1.13.04-.2 1.12-.45 2.1l.08-.46c-.26.94-.5 1.88-.68 2.84l.35-.5c-.4 1.5-.37.32-.6 1.8l.2.01c-.38 2.1-.8 3.34-.87 5.48.1 2.22.58 4.5 1.57 6.58s2.42 3.92 4.05 5.46c.82.77 1.68 1.47 2.57 2.1.43.34.9.6 1.35.92l.34.22c.12.1.37.2.5.24l.75.27c2 .75 4 1.34 5.98 1.78l.33.2c.12.28 2.27-.02 2.56.2l.96-.06c.26.05.83.1.35.14.88.04.9-.04 1.54-.1.32.03.64.07.96.07 1.76-.08 3.36-.5 4.9-1.08 1.54-.6 3.03-1.36 4.57-2.36 1.92-1.1 4.33-3.24 6.26-5.75 1.96-2.5 3.55-5.26 4.65-7.28 1.5-2.9 3.25-5.86 5.04-8.9 1.77-3.06 3.4-6.22 4.55-9.34.1-.2.28-.72.25-.73.8-1.86 1.57-3.73 2.3-5.6l.43-1.14a94.55 94.55 0 0 0 1.02-2.85c.78-2.28 1.66-5.13 2.2-7.34.55-2.2.77-3.8.44-3.48-.1.1-.27.4-.5.9l.25-.96-3.8-2.18c9.9 4.6.54-1.17.54-1.17l-1.1-.7c.45-1.3.9-2.84 1.13-3.28 0 0 1.05-3.03 1.17-3.76-.14.63.44-1.04.36-.53a37.61 37.61 0 0 1 1.27-4.07l-.05.18c1.2-3.43 1.83-5.94 2.94-9-.13.1.45-1.5.2-1.14.95-3.24 2.13-5.77 2.2-7.04.45-1.44.66-1.75.9-2.4 0 .02-.06.2-.08.3a5.81 5.81 0 0 0 .1-.33l.52-.6c.18-.2.34-.4.5-.6l.8-1c.48-.63.92-1.2 1.47-2.05.28-.47.4-.78.56-1.17.16-.4.38-.9.7-1.82h0l-.05.13.02-.02c-.04.17-.01.13.05-.04.07-.06.15-.12.22-.17l1.64-.85a3.17 3.17 0 0 0 .36-.23 1.82 1.82 0 0 0 .49-.22c.48-.33 1.28-1.15 1.14-2.72l.1.06zm-4.94 3.55c-.17.83-.66 1.93-1.36 2.98-.7 1.04-1.53 2.1-2.16 2.95l-.58.58-.2.24-.1.13-.2.22-.3.97c-.1.27-.18.54-.28.8v-.05c-.3 1.08-.72 2.26-.86 2.8l-.01-.05-.4 1.3.04-.23c-.55 1.86-1.17 3.77-1.75 5.43l.13-.1c-1.27 3.55-1.53 4.92-2.7 8.12l-.01-.05c-1.12 4.16-2.27 6.4-3.44 10.7.15-.53-.12.2-.12.16l-.4 1.32c-4.3-2.6-7.45-4.04-13.34-7.3l-5.42-3.27 3.52-5.15 6.78-9.85a5.27 5.27 0 0 0 .31-.44c.1-.16.2-.3.18-.3l4.1-5.7s.3-.43.78-1.2c.23-.4.52-.86.74-1.5.25-.66.2-1.53-.02-2.22-.4-1.4-1.05-2.8-.95-4.16.15-1.5.32-3.05.34-4.38.05-1.58-.13-2.84-.3-3.54.18-.01.44 0 .65.16.3.17.56.6.75 1.04.2.46.36.96.47 1.3l.17.57c.26.9.42 1.75.8 2.67a4.56 4.56 0 0 0 .36.69 10.71 10.71 0 0 0 .38.55c.14.18.26.36.57.63.3.26.67.42 1.04.42.38-.01.72-.2 1-.46.12-.14.26-.32.35-.44l.18-.32a18.69 18.69 0 0 0 .48-1.11l.84-2.13 3.8-10.2c.3-.78.5-1.5.8-1.88.03-.05.06-.07.1-.1.02-.01.03-.02.04-.03.03-.02.06-.02.1-.01.04.02.03.01.1.07a1.29 1.29 0 0 1 .2.21c.02.02.01.03.03.12s.02.23.03.35c.01.26 0 .52-.01.8-.03.53-.08 1.05-.14 1.56-.1 1.02-.26 2-.4 3.05a26.88 26.88 0 0 0-.18 1.65c-.02.28-.05.57-.08.87l-.03.48v.28c0 .06 0 .1.01.18.02.1 0 .13.1.38.05.07-.01.04.15.22a.95.95 0 0 0 .53.26.81.81 0 0 0 .4-.07c.06-.03.12-.06.18-.1.07-.05.04-.03.07-.05a1.63 1.63 0 0 0 .22-.25l.14-.22a3.71 3.71 0 0 1 .23-.32c.06-.07.14-.35.2-.4.14-.1.47-.2.63-.16.16.04.44.32.55.52.1.17.14.53.18.7.02.1-.03.2-.02.28 0 .04.01.1.01.13.01.07.01.36-.02.48.14.2.2.1.34.3.15.18.32-.18.86.18.68.45.6 1.06.56 1.33.02.17-.1.54-.1.83l-.01.46-.03.7c.16.2.26.33.36.42l.17.2c.02.06.04.22.05.2.02.02.04.05.07.1.06.1.1.24.14.4.07.33.1.7.07 1.1-.02.77-.16 1.55-.37 2.3zm.77-4.87c-.05-.01-.04-.04-.03-.07s.02-.04.03-.05v-.16l.01.3c0-.01-.01-.01-.01-.02z"/><g fill="#fff"><path d="M229.64 137.14l-1.45-.8s-10.7-5.96-3.07-.53h-.07c1.18.73 1.93 1.16 2.84 1.5.01.06.08.12.18.2.06.03.1.07.17.1l.1.05c.06.03.12.05.17.07.04.03-.02.1-.03.12l-.01-.01c.05.05-.17.57-.34.94-.18.4-.36.78-.45 1.18 0-.03-.04-.07.02-.24-.2.56-.44 1.33-.55 1.34l-1.42 4.05v-.1c-.1.52-.23.63-.4 1.18-.02.02-.05.06-.05.05-.1.56-.6 1.53-.72 1.97h-.07l-.4 1.04.17-.38c.12.2-.43.74-.63 1.54-.3.7-.23 1.57-.62 2.27-.07.38 0-.36-.16.18-.1-.02.05-.27-.08-.16-.17.53-.44.8-.65 1.45h-.08c-.22.87-.74 1.5-.86 2.1-.3.86-.45.47-.7 1.4l-.24.3c-.18.37 0 .32-.23.7-.05-.05-.28.5-.22.24-.5.9-.72 1.96-1.43 3.1-.01.32-.36.9-.36 1.14-.06.01-.57 1.23-.36.5.02-.06.07-.17.08-.15l-.03-.1c-.44.64-.53 1.3-.87 1.97.12-.2.24-.47.2-.26l-.3.63v-.16l-.5.93.13-.1c-.26.45-.45.55-.6 1.13-.06.26.3-.4.1.1l-1.3 2.25c.1-.03 0 .18-.1.4l-.08-.01c-.33.88-.3.23-.64 1.1v-.1l.03.3c-.27.8-.35.32-.6 1.23.16-.33.23-.07-.02.3v-.13l-.2.45c.04-.15-.05-.12-.22.2l.04-.26-.2.67c-.32.43-.64 1.23-.85 1.36 0 0-.63.96-.67 1.25.06-.23-.3.3-.26.1-.08.3-.48 1.1-.73 1.35l.03-.06c-.77 1.04-1.12 1.92-1.84 2.83.1.01-.3.48-.12.42-.65 1.02-1.5 1.6-1.5 2.15-.34.43-.5.43-.7.63l.07-.1-1.4 1.54c-.25.28-.2.44-.72.87.12-.2-.08 0-.26.17.1-.12.13-.17-.14.03-.02.05-.07.1-.1.16-.01 0-.02 0-.02-.01-.3.3-.23.27-.08.14 0 .01.02.01.08-.02-.36.26-.94.8-1.05.74l-1.3 1.1-1.24.93c-.13.02.05-.16.3-.35l-.62.43c-.04-.07.34-.28.52-.42-.8.4-1.52 1.06-2.5 1.47l-.17.15-.06.02c.02.03-.18.17-.3.24-.17 0-.06-.15-.53.07-.4.13-1.05.5-1.55.72.28-.1.2-.02.1.04-.24.1-.4.08-.58.18l-.05-.08c.13.06-.6.3-.7.37-.16-.02.37-.18.4-.24l-1.5.47c-.52.2.12.06-.12.2-.48.13-.93.32-1.5.37l.2.05c-.9.23-1.46.32-2.1.3l-3.17.55c-.5.08-.46.17-.22.27.56.22 1.98.23 1.98.23 1.43.02 2.5-.17 3.62-.43a33.44 33.44 0 0 0 3.82-1.26c2.74-1.05 3.55-1.26 6.08-3 .63-.38 1.2-.87 1.8-1.34.6-.45 1.14-.97 1.65-1.46.2-.28.55-.6.9-.92l.9-1.04.26-.18c.16-.23.36-.48.57-.66v.03l.64-.87.01.03.3-.4-.03.1c.38-.6.85-1.18 1.24-1.7l-.1-.01c.84-1.1.97-1.6 1.75-2.58v.03c.6-1.46 1.4-2.04 2.03-3.54-.07.2.08-.05.1-.03.33-.66.7-1.37.55-1.46.26-.47.26-.36.35-.4-.07-.03.13-.46.32-.83l-.07.18.55-1.07-.24.14c.33-.55.23-.06.48-.62l-.1-.05c.42-.78.8-1.16 1.27-1.88 1.65-3.16 2.97-6.75 4.5-9.68l.14-.1c.14-.01.2-.9.35-.98l.1-.38c.06-.1.18-.3.13-.1.15-.32.13-.34.2-.6l.23-.32c.62-1.26.93-2.42 1.54-3.77.84-1.57 1.97-4.72 2.6-6.53.82-2.58 2.44-5.32 3.2-8 .05-.08.1-.3.08-.3l.27-.7.18-.5c.06-.1.2-.3-.03-.36zm-44.3-3.4c-.1 0-.02-.13.06-.28l.07.02c.24-.6.26-.1.52-.7l-.03-.15c.18-.56.3-.18.46-.82-.12.22-.2.01-.01-.23l.02.1c.08-.15.08-.22.16-.3-.02.1.06.1.18-.12l-.01.2.14-.47c.26-.27.48-.8.65-.88 0 0 .47-.63.47-.85-.03.17.23-.18.23-.03.04-.2.3-.75.52-.9l-.02.04c.55-.7.73-1.34 1.26-1.95-.1-.02.18-.34.03-.32.36-.75 1.02-1.13.9-1.57.2-.32.3-.33.44-.48l-.03.08.78-1.2c.12-.23.01-.36.3-.72-.03.16.06 0 .16-.15-.05.1-.05.14.1-.03 0-.04.02-.1.04-.13h.02c.15-.25.1-.22.02-.12 0-.01-.02-.01-.06.02.24-.2.47-.7.58-.67l1.12-1.94c.1-.04.04.13-.07.32l.28-.44c.06.05-.13.27-.2.4.23-.22.4-.5.55-.8l.2-.34c.05-.08.13-.18.18-.2.01-.04.01-.1.03-.1v.03c-.01-.05.06-.05.13-.03.04.1-.02.18.1.26.15.17.68.4 1 .55-.16-.12-.1-.12 0-.1.15.1.2.2.34.26l-.04.1c-.01-.1.45.17.52.17.05.1-.27-.1-.33-.08l.92.57c.36.15-.01-.1.2-.08.3.17.6.3.9.54l-.06-.14c.57.3.9.5 1.2.8 4.38 1.96 1.34-.25 1.34-.25-1.48-1.16-2.42-1.47-4.34-2.6l-1.03-.7-1.17-.8c-.02-.01-.03-.02-.05-.03l-.03.04-.07.1-.13.17-.9 1.22-.73 1.06-1.63 2.46c-.15.44-.7 1.03-.9 1.53l-.17.13c-.07.17-.17.37-.3.5l-.01-.02c-.1.26-.3.5-.36.63h0l-.18.28.01-.06a8.6 8.6 0 0 1-.74 1.19l.1.02c-.6.72-.63 1.1-1.18 1.74v-.02c-.38 1-1.04 1.32-1.44 2.36.05-.13-.07.03-.08 0-.25.44-.52.9-.38 1-.2.3-.2.22-.3.23.06.04-.08.32-.23.57l.05-.13-.4.7.2-.06c-.26.35-.2 0-.4.37l.1.06c-.33.5-.67.7-1.05 1.16l-3.65 6.28-.12.04c-.13-.03-.13.64-.28.65l-.08.26c-.06.05-.15.18-.1.05-.12.2-.1.22-.16.4l-.2.2c-.52.8-.76 1.6-1.26 2.47-.72.98-1.6 3.1-2.1 4.3-.62 1.74-1.97 3.48-2.48 5.32-.04.05-.06.2-.05.22l-.65 1.6s-.76 1.96-.98 3.27c-.12.65-.12 1.14.05 1.05s.48-.7 1.22-2.1l.01.05c.36-.86.58-1.4.67-2.05.2-.03.3-.7.43-.9l.01.02c.1-.58.54-1.05.65-1.6 0 .02.04.05 0 .17.14-.38.3-.9.42-.88.36-.9.95-2.08 1.06-2.7v.05c.05-.36.18-.42.3-.8.02-.01.04-.04.04-.03.07-.4.46-1 .56-1.3l.07.01.32-.7-.14.25c-.12-.17.36-.46.5-1 .25-.45.13-1.1.46-1.54.04-.27.02.26.14-.1.1.03-.03.2.08.13.13-.35.37-.5.53-.94l.07.02c.16-.6.62-.96.7-1.37.25-.57.4-.26.58-.9l.2-.17c.15-.23-.01-.23.18-.48.05.05.23-.3.2-.13.42-.56.58-1.3 1.18-2-.01-.23.3-.6.28-.77.06 0 .47-.8.3-.3-.01.04-.05.1-.07.1l.03.1c.38-.38.42-.85.7-1.3-.1.12-.2.3-.17.15l.25-.4v.12l.4-.6-.12.05c.2-.28.4-.32.5-.7.04-.18-.26.23-.1-.1l1.06-1.42z"/><path d="M186 132.77h0l.02.08zm93.77 65.3l.04.04c-.16-.98-.3-1.6-.58-2.22.14-.14-.17-.8-.17-1.03l.02.02c-.27-.56-.18-1.23-.43-1.77.02.02.07.02.1.15-.12-.4-.3-.96-.2-1.02-.26-.98-.54-2.36-.84-2.96l.04.04c-.2-.33-.13-.46-.27-.85.01-.02.01-.05.01-.05-.2-.37-.3-1.14-.4-1.44l.06-.04-.2-.78.06.3c-.2-.06-.03-.62-.28-1.15-.1-.53-.62-1-.67-1.56-.15-.24.2.2.03-.18.1-.03.1.17.15.05-.14-.37-.05-.65-.23-1.1l.07-.04c-.28-.6-.18-1.2-.4-1.57-.2-.62.1-.48-.18-1.1l.04-.28c-.05-.3-.17-.18-.2-.5.07 0-.04-.4.06-.24-.07-.74-.48-1.42-.54-2.4-.17-.18-.2-.67-.33-.8.05-.04-.22-.95.02-.45.02.04.04.12.02.12l.1.05c.01-.57-.3-.96-.4-1.5.01.16.07.37-.01.24l-.1-.5.08.1-.14-.74-.05.12c-.05-.37.05-.52-.15-.9-.1-.17-.02.36-.13-.01l-.28-1.85c-.07.08-.1-.1-.16-.25l.07-.04c-.25-.63.1-.28-.13-.9l-.13-.1c-.28-.55.08-.35-.27-.95.07.25-.13.16-.17-.16l.1.06c-.06-.17-.1-.22-.1-.34.06.1.12.03.04-.22l.13.15-.24-.45c-.01-.4-.25-.96-.2-1.14 0 0-.14-.82-.3-.98.1.15.03-.3.14-.2-.12-.2-.33-.8-.3-1.06l.02.04c-.13-.93-.48-1.53-.57-2.37-.08.06-.13-.4-.2-.25-.3-.82-.15-1.6-.55-1.82-.1-.38-.03-.47-.06-.68l.04.1-.37-1.46c-.1-.26-.26-.27-.34-.75.1.14.04-.05 0-.23.04.1.07.14.05-.1-.03-.03-.05-.08-.07-.12l.01-.01c-.1-.3-.1-.24-.07-.1-.01 0-.02.01-.03.06.01-.33-.2-.86-.1-.93l-.72-2.25c.03-.1.12.07.2.28l-.15-.53c.08-.01.12.3.17.45-.02-.66-.43-1.27-.5-2.04l-.1-.14v-.05c-.03.01-.12-.15-.15-.25.04-.12.16-.03.07-.4 0-.3-.23-.82-.35-1.2.04.2-.02.15-.06.07-.05-.18 0-.3-.07-.44l.1-.04c-.07.1-.2-.46-.26-.52.04-.12.13.27.2.3l-.27-1.1c-.16-.38-.07.1-.2-.08-.1-.34-.24-.67-.28-1.08l-.05.15c-.22-.64-.3-1.03-.32-1.5-1.8-4.7-1.15-.8-1.15-.8.27 1.95.74 2.88 1.34 5.14l.95 4.64.75 3c.23.43.3 1.27.53 1.8v.23c.08.18.16.4.16.6h-.02c.12.27.16.6.22.72l-.02-.01.1.34-.04-.05c.17.47.3.98.37 1.42l.08-.06c.13.97.4 1.27.48 2.15h-.02c.48 1.03.25 1.74.73 2.8-.06-.13-.03.07-.05.06.15.5.3 1.05.46 1.02.1.37.02.32-.03.38.07-.02.18.3.25.6l-.06-.13.22.83.1-.2c.06.45-.14.15-.01.57l.1-.03c.12.62.03 1.02.1 1.63l1.8 7.4-.06.12c-.1.07.33.6.24.7l.12.25c0 .08.01.24-.05.12.05.25.08.25.15.42v.28c.17 1 .5 1.78.73 2.8.13 1.27.82 3.55 1.22 4.86.63 1.83.65 4.13 1.3 6 0 .07.07.22.1.2l.4 1.76c-.05.05 1.9 8.58 1.42 1.86z"/><path d="M273.23 169.06h0l.06.04zM253.4 98.54c.03-.02.03-.03.05-.05l-.05.05z"/><path d="M254.3 98.72c-.02.08-.14.06-.28.06l.03-.07c-.53.03-.12-.18-.65-.17-.03.03-.06.06-.08.1-.26.1-.1-.17-.4-.01.1 0 .03.17-.1.12l.04-.07c-.08.01-.1.03-.15.01.05-.03.04-.1-.07-.1l.08-.08-.22.1c-.15-.1-.4-.04-.46-.15 0 0-.33-.1-.42 0 .08-.06-.1-.1-.04-.18-.1.07-.36.1-.46 0l.02-.01c-.37-.14-.67.03-1-.12 0 .1-.17.02-.14.13-.37.06-.62-.3-.8.01-.16 0-.18-.1-.26-.13l.04-.01a3.42 3.42 0 0 1-.62-.06c-.12.02-.16.17-.35.1.07-.05-.01-.05-.1-.06.05 0 .07-.02-.03-.08-.02.02-.04.03-.06.03-.13-.02-.1.01-.05.02 0 .01 0 .02.01.04-.12-.1-.36-.04-.36-.15-.38-.03-.67.05-1 .05-.03-.06.05-.1.15-.1l-.23-.01c.01-.08.13-.03.2-.03-.25-.17-.56.05-.86-.1l-.07.05v-.01c0 .03-.08.07-.13.07-.03-.08.02-.16-.13-.18-.1-.08-.35-.01-.52 0 .08.02.05.06.01.08-.08-.01-.1-.08-.18-.06l.01-.1c.02.1-.2.07-.25.1-.03-.08.13-.04.15-.1l-.46-.05c-.17.05.02.1-.07.16-.15 0-.3.04-.46-.04l.04.1c-.28.03-.44 0-.62-.1-2.13.4-.56.87-.56.87.78.3 1.22.1 2.18.17.83.16 1.03.35 1.9.4.4.07.86.1 1.27.13.2-.1.53.07.77 0l.08.08c.08-.03.18-.04.25.01l-.01.02c.12-.04.25.01.3-.01h-.01.14l-.03.03a1.5 1.5 0 0 1 .6.05v-.1c.38.15.55-.01.9.16l-.01.02c.48-.17.7.25 1.2.1-.06.02.02.05.01.07.22 0 .45.02.48-.15.16.02.12.07.13.14.01-.07.15-.1.27-.07l-.06.02h.35c0-.05-.03-.1-.04-.15.15.06.01.18.12.16l.04-.1c.15.04.13.2.1.28l-.03.04c-.02.1-.01.07-.01.27v.8c0 .53-.01 1.06-.15 1.53l-.1.04c-.13.01.17.28.05.3l.05.12c-.03.03-.05.1-.08.04-.01.1.01.1.04.2l-.1.1c-.1.4.03.77-.03 1.2-.2.5-.13 1.5-.08 2.06.13.8-.45 1.7-.3 2.5-.02.02.02.1.03.1l-.07.74s-.32 3.6.95.94h.03c.1-.4.13-.65.01-.95.18-.03.04-.33.1-.42l.01.01c-.1-.26.15-.5.05-.75.01.01.06.02.06.07-.01-.18-.03-.42.07-.42 0-.42.1-1-.04-1.27l.03.02c-.1-.16 0-.2-.04-.37.01-.01.02-.02.03-.02-.1-.17.02-.48-.02-.62h.07l.01-.33-.02.12c-.18-.06.13-.24.03-.5.04-.22-.35-.48-.24-.7-.08-.12.13.1.08-.06.1 0 .05.08.13.04-.03-.17.12-.26.07-.46h.08c-.12-.27.14-.5.02-.67-.04-.27.23-.16.1-.46l.1-.1c.03-.12-.12-.1-.06-.22.06.01.06-.16.12-.08.12-.3-.1-.62.1-1-.12-.1-.03-.3-.12-.36.05-.01.04-.4.14-.17.01.02 0 .05-.02.05l.07.03c.16-.22-.04-.42-.01-.64-.03.06-.03.15-.08.1l.03-.2.06.05.06-.3-.08.04c.05-.1.2-.3.1-.57-.05-.12-.12.27-.13 0l.2-.93c-.1-.05-.25-.08-.4-.1zM218.92 76.3c.6-.3.8-1 .5-1.6s-1-.8-1.6-.5-.8 1-.5 1.6 1 .8 1.6.5zm1.5 3c.6-.3.8-1 .5-1.6s-1-.8-1.6-.5-.8 1-.5 1.6 1 .8 1.6.5z"/></g></svg>