<svg xmlns="http://www.w3.org/2000/svg" viewBox="0 0 480 480" xmlns:v="https://vecta.io/nano"><path d="M2711.8 107l.5-.12c-.02-.02-.15 0-.5.12zm19.8-3.25h-.03c-.04.01-.1.02-.13.04l.16-.04z"/><path d="M171.7 136.7s-9.42 8.17-13.12 13.57c-4.2 6.4-4.6 15.7-4.8 30s1.2 43.8 1.2 43.8-1.6 6.2.5 13.7c2.1 7.4 2.45 8.65 3.63 9.36.86.6 1.57-.46 1.57-.46s.63 2.88 1.93 2.98 1.67-1.58 1.67-1.58.85 1.34 1.9.93c1.3-.5 1.17-2.77 1.22-5.54.04-2.12.63-7.6.73-8.7.1-1 1.37 1.85 1.97 3.45s2.67 2.2 2.17-.8l-.9-6.53c-.2-.8-.4-2.88-1-4.28-.5-1.4-1-1.42-1-1.42s-.6-1.1.1-4.2 8.7-34.8 10.2-39.4c1.9-6 10.3-13.9 14.8-16.5.78-.03-22.78-28.37-22.78-28.37z" fill="#fff"/><path d="M169.08 139.8l-.7.52c.02 0 .2-.13.7-.52zm-15.68 28.82v-.28.28zm83.5 39.24l.84.06c-.01-.03-.22-.05-.84-.06zm32.77 1.96h-.04l-.22.01.26-.01zm-17.32-7.14l.57.62c.01-.02-.13-.18-.57-.62zm31.3 4.45c-.02.01-.03.01-.04.01l-.2.07.25-.08z"/><path d="M352 174.4s2-1.3 1.6-2.6c-.3-1.3-1.8-.9-1.8-.9s1.06-.98.35-2c-.5-.7-2.47-.68-5.54.32-2.05.67-7.7 2-8.7 2.3s1.7-1.7 3-2.8 1.3-3.3-1.5-1.8l-6 2.8c-.7.5-2.4 1.8-3.5 2.9l-1.1 1s-.55.52-2.44 1l-.06-.2c-.3-.8-1.1-1.3-1.9-1.2l-4.9 1.2c-.97.18-1.47.66-1.3 1.4-9.75 1.18-26.32 2.85-33.9 3-4.9.1-11.3-3.1-13.9-7.6-2.7-4.6-8.15-17.9-8.15-17.9l-30.92 15.1s3.36 9.92 12.36 23.62c9.1 13.7 11.9 14.7 18.5 16.5 7.6 2.1 16.3-.2 29.9-4.9 8.64-3 22.6-8.35 31.53-11.8.38.7 1.18 1.07 1.97.8l4.4-1.3c.9-.3 1.4-1.2 1.1-2.1l-.1-.27 1.1-.43s7.2-1.6 13.4-6.1 6.75-5.4 7.3-6.4c.7-1.26-.8-1.6-.8-1.6z" fill="#fff"/><path d="M323.26 191.25c-1.2 0-2-.54-2.48-1.6-.6-1.18-2.84-6.98-2.3-8.5h0c.42-1.17.68-1.48 2.3-1.88l1.58-.45 5.45-1.35c1.26-.2 2.42 1.33 3.43 4.5l.26.8c.72 2.2 1.35 4.1.42 5.4-.5.72-1.8 1.13-3.57 1.68l-2.6.86c-.97.36-1.8.54-2.5.54zm-4.55-10.02c-.47 1.32 1.5 6.72 2.3 8.3.43 1 1.38 2.18 4.64.94l2.6-.87c1.67-.52 2.98-.94 3.44-1.6.86-1.2.25-3.05-.46-5.2l-.26-.8c-.9-2.84-1.94-4.33-3-4.33-.05 0-.1 0-.16.01-1.04.07-3.56.8-5.4 1.35l-1.58.45c-1.56.4-1.73.7-2.1 1.73z"/><path d="M353.94 171.2a1.51 1.51 0 0 0-.5-.6c-.1-.08-.24-.14-.34-.2l-.1-.04c-.07-.02-.14-.02-.2-.01l.03-.03c.04-.05.08-.1.1-.15l.03-.06.02-.1c.03-.15.05-.33.03-.5-.03-.35-.15-.68-.34-.96-.5-.63-1.1-.66-1.58-.73a6.47 6.47 0 0 0-1.4.05c-.9.1-1.76.33-2.6.57l-4.95 1.4-2.15.56-.22.06c-.12.04-.02-.1.01-.1.2-.2.42-.37.65-.56.3-.3 1.42-.97 1.72-2a1.86 1.86 0 0 0 .08-.93 1.13 1.13 0 0 0-.57-.8c-.3-.18-.67-.18-.95-.15-.28.04-.5.1-.74.2-.9.37-1.55.78-2.34 1.12l-2.3 1.02c-.77.36-1.54.6-2.34 1.15a38.54 38.54 0 0 0-3.83 3.19l-.45.4-.23.2c-.05.05-.1.07-.17.12-.28.17-.63.32-1 .44-.23.08-.46.13-.7.2-.45-.85-1.36-1.36-2.36-1.23l-4.9 1.2c-.98.18-1.4.62-1.57.96-.05.1-.1.24-.13.4l-1.77.26-1.52.1-16.13 1.7c-3.52.22-8.6.68-13.73.86-2.47.1-4.96-.6-7.1-1.6-2.14-1-3.96-2.33-5.2-3.7-.9-.94-1.6-2.06-2.2-3.3-.62-1.24-1.2-2.52-1.8-3.83l-2.28-5.33a66.88 66.88 0 0 0-.89-4.31c.15.64.06-.02.05-.23l.02.02 2.83-1.1-1.27.45c.08-.1.16-.17.48-.3a22.87 22.87 0 0 1 1.28-.41c.13-.04.27-.1.4-.13.1-.01.07-.08.05-.15l-.06-.2-.3-.9-.32-.9c-.1-.22-.18-.44-.3-.66-.6-1.73-1.88-3.27-2.4-5.1-.45-.8.5.67-.08-.56.13-.1.3.56.3.2-.54-1.22-.6-2.1-1.3-3.6l.1-.1c-.97-1.92-1.3-3.84-2-5.1-.9-2.02-.2-1.52-1.26-3.57l-.17-.9c-.34-.93-.45-.58-.78-1.62.12.02-.44-1.3-.1-.76-.78-2.36-2.1-4.57-3.2-7.67-.48-.57-1.07-2.1-1.45-2.52.06-.12-1.5-2.96-.46-1.4.1.14.2.4.17.4l.2.14c-.64-1.8-1.7-2.98-2.62-4.6.26.5.62 1.13.3.74-.28-.5-.58-1-.88-1.5l.27.25a45.09 45.09 0 0 0-1.36-2.21l.1.37c-.66-1.08-.74-1.58-1.76-2.62-.35-.33.15.4.08.4l-.65-.8c-.98-1.36-2.42-3.12-3.93-4.44.07.24-.4-.14-.88-.5l.02-.14c-2-1.26-.5-.78-2.58-1.93l-.45-.05c-.98-.42-1.24-.55-1.5-.74-.26-.2-.58-.36-1.75-.6.45.17.52.26.34.26l-.9-.37c-.55-.18-1.1-.34-1.65-.5h.5l-.78-.06c-1.02-.27-2.04-.5-3.07-.62l-.58-.2c-.25-.33-3.73.2-4.2.04l-1.52.17c-.43-.02-1.35.02-.6-.1-1.43.1-1.46.16-2.48.37a20.65 20.65 0 0 0-1.56.17c-1.95.4-3.74 1.18-5.32 2.2h-.01c-.12.06-.07.04-.1.06l-.1.07-.15.1-.27.2-.5.4-1 .77-.54.42c-.2.17-.37.33-.52.5-.33.34-.6.7-.9 1.05-.08.1-.16.22-.23.33l-1.76.5c-.87.37-.94.65-2.53 1.18.46-.3-.16-.03-.75.2.37-.17.47-.25-.32 0-.1.07-.25.16-.4.24-.01-.01-.04 0-.03-.02-.96.44-.77.4-.32.22-.02.02.03.03.18 0-1.06.3-2.75 1.27-2.94 1.16-2.8 1.42-4.67 2.66-6.92 3.95-.3.06.2-.3.84-.7l-1.6.92c-.05-.13.9-.6 1.38-.88-1.02.4-2 1.05-3 1.68-.98.67-2 1.34-3.15 1.97l-.4.38-.14.07c.04.04-.4.42-.72.65-.37.1-.14-.25-1.2.48-.9.47-2.34 1.67-3.37 2.5.6-.4.44-.2.22 0-.52.37-.88.5-1.25.82l-.14-.1c.3-.03-1.25 1.12-1.4 1.3-.36.12.74-.67.8-.83l-3.06 2.3c-1.02.92.3-.03-.15.47-.94.75-1.8 1.56-2.94 2.33l.43-.16c-1.7 1.48-2.77 2.3-4.04 3.16l-2.6 2.5-3.12 2.65c-.1-.03-.13-.01-.1.1-.13.1-.2.17-.2.17l.36.4c-.4.56-.2.58.25.3.01 0 .01-.01.02-.01l.05.05c.3.47.77 1.12 1.4 1.97-1.07.8-2.07 1.58-3.04 2.4-1.46 1.24-2.87 2.55-4.37 4.2-.75.83-1.5 1.74-2.3 2.77-.77 1.04-1.6 2.14-2.4 3.55-1.46 2.65-2.34 5.65-2.86 8.64-.54 3-.77 5.98-.93 8.83-.04 2.7-.28 7.47-.22 10.66l-.1 1.24c.03 1.1.04 2.4.01 3.5l-.02-.07.08 4.3-.02-.07.04 2-.04-.34.23 8.4.08-.22c.06 5.56.3 7.58.38 12.6l-.02-.07c.23 3.16.3 5.67.36 8.2l.13 3.9.05 1.04c.01.17.03.4.02.4-.03.18-.07.35-.1.53a19.27 19.27 0 0 0-.27 2.37c.06-.83-.08.35-.1.28-.27 3.07.16 6.34.34 6.36.3 2.2.24 1.8.22 2.1.04-.01.14.46.33 1.13.18.68.43 1.56.67 2.37l-.24-.75 1.4 4.7-.14-.97c.73 2.5-.01.7.85 3.07l.1-.07c.26.66.5 1.3.98 1.8.25.26.46.44.82.6.18.08.4.1.6.1.22-.02.38-.1.4-.1.1-.05.18-.1.24-.18v-.03c0 .01.01.03.01.04l.06.27.05.2c.05.15.1.32.17.48a4.72 4.72 0 0 0 .52.99c.23.3.57.7 1.15.83.53.12 1.12-.04 1.55-.4.13-.12.25-.24.35-.38.05-.08.08-.1.1-.14.03-.05.05-.1.07-.17.03.05.07.1.12.14l.06.05c.1.06.2.13.3.18a1.89 1.89 0 0 0 .84.2 1.88 1.88 0 0 0 1.49-.81c.6-.92.6-1.8.66-2.6.07-1.66.01-3.2.15-4.8l.2-2.4.2-2.18.03-.4.02-.2c0-.03 0-.08.03-.1.04 0 .06.03.08.05.08.1.14.22.2.35l.1.2.14.3.45 1.1c.12.35.36.86.7 1.2.18.18.35.34.6.47.23.14.6.22.9.2.32-.03.6-.23.78-.48.2-.27.26-.56.3-.8.08-.5.01-.9-.04-1.33l-.17-1.2-.33-2.35-.32-2.33c-.1-.8-.26-1.47-.37-2.26-.13-.76-.28-1.53-.52-2.3a14.96 14.96 0 0 0-.43-1.11c-.1-.2-.2-.38-.32-.57-.07-.1-.14-.2-.23-.28-.07-.08-.25-.22-.24-.2-.02-.01-.05-.01-.06-.05-.02-.06-.02-.06-.04-.18-.02-.1-.04-.23-.05-.35-.02-.24-.03-.48-.02-.72a9.18 9.18 0 0 1 .16-1.47c.06-.18.12-.37.2-.55.15-.2.67-3.63.9-4.1l.32-1.53c.13-.42.38-1.32.22-.55.36-1.4.34-1.44.56-2.46l.46-1.5 4.05-16.08 3.73-13.56c.8-2.4 2.28-4.6 3.8-6.5 1.46-1.86 2.98-3.46 4.34-4.78l-.25-1c-1.7 1.63-3.8 3.8-4.67 5l-.13.05c-.6.75-1.17 1.54-1.7 2.35-.1.3-.6 1-1.23 2.06-.63 1.05-1.26 2.57-1.62 4.18-.87 3-1.3 6.18-2.2 9.28-.3 1.5.2-1.35-.3.9-.1.05.2-1.05-.01-.5-.53 2.2-1.03 3.56-1.66 6.27l-.1.1c-.77 3.55-1.8 6.62-2.26 9-.86 3.65-.83 2.38-1.64 6.2l-.47 1.45c-.42 1.62-.17 1.2-.66 2.98-.04-.13-.6 2.27-.4 1.2-.2.8-.42 1.63-.52 2.5-.05.44-.07.9-.06 1.36a5.83 5.83 0 0 0 .06.71c.02.12.04.24.07.38.04.18.1.37.18.54a2.49 2.49 0 0 0 .3.19c.36.32.57.83.82 1.5.22.6.38 1.26.5 1.95l.38 2.23.27 2.34c.14.58.3 1.55.43 2.5.13.95.3 1.84.3 2.2-.02.01-.04.4-.13.52-.04.07-.13.12-.23.1-.07-.01-.2-.07-.34-.2-.27-.24-.4-.54-.4-.6 0-.07.05.16.47.52.08.05.17.12.22.14.04.02.05.03.05.04.03-.02.05-.05.06-.08-.03 0-.06-.01-.08-.03-.05-.03-.13-.1-.23-.18-.17-.17-.32-.4-.42-.64-.13-.34-.27-.7-.42-1.03l-.22-.5-.4-.88c-.3-.57-.6-1.14-.9-1.38-.15-.12-.28-.2-.4-.24-.03-.01-.07-.01-.1-.02-.01 0-.02-.01-.02-.01-.02-.01-1.86-.6-3.4-2.6-1.13-1.48-1-5-1-5.04.01-.28-.2-.5-.48-.52-.3-.01-.5.2-.52.48-.01.16-.13 3.9 1.2 5.68 1.26 1.66 2.7 2.45 3.42 2.78-.01.04-.03.07-.04.12-.08.63-.14 1.33-.2 2l.14-1.25.06-.57c.01-.16.05-.22.08-.3.01.01.04.02.05.02-.1.22-.12.7-.17 1.07l-.12 1.17-.14 1.44v-.6l-.4 4.3.12-.6c-.22 2.1-.2 2.95-.26 5.2-.03 1.02.27-1.88.1.23-.07.5-.23 1.1-.52 1.37-.14.13-.33.2-.5.18a.73.73 0 0 1-.28-.1c-.05-.03-.1-.06-.2-.14-.12-.1-.24-.22-.36-.37-.2.01-.34 0-.45-.01l-.2-8.62c1.17-.25 1.84-.52 1.88-.53.25-.1.38-.4.27-.65-.1-.25-.4-.38-.65-.27-.01.01-1.36.55-3.6.78-2.44.25-4.2-.58-4.2-.58a.5.5 0 0 0-.44.9c.05.02.8.37 1.96.57l.7 7c-.04 0-.07 0-.12-.01-.37.34-.34.22-.4.25-.01-.03-.02-.06-.02-.08-.04.01-.18-.08-.32-.17-.1-.08-.2-.17-.28-.25-.15-.18-.25-.35-.32-.5-.15-.3-.18-.46-.23-.6-.08-.33-.17-.6-.77-2.4l.15.3-.44-.9c-1.08-3.23-.4-1.82-1.57-5.4.4 1.42-.02.72-.37-1.06l.16.44c-.22-.98-.3-1.3-.4-1.97.14.58.12.3-.06-1.16.07.32.12.65.2.97-.18-.9-.3-1.83-.4-2.76-.01-1.08-.01-2.47.1-3.7.1-1.23.27-2.3.4-2.7 0 0 .02-.07.04-.2.01-.06.03-.13.05-.22.02-.07.03-.15.05-.23 0-.08-.01-.16-.01-.25l-.07-1.74c-.06-1.3-.14-2.76-.22-3.3.1.95.03-1.66.14-.92-.13-1.22-.34-4.83-.3-6.28v.27c-.12-5.35-.45-9.14-.48-13.94-.08.22-.1-2.3-.2-1.7-.24-4.96.05-9.05-.3-10.84-.03-2.26.07-2.68.1-3.84l.01.54.12-8.6c.02-1.57-.15-1.82.03-4.62.02.9.05-.24.13-1.28-.04.67-.03.88.1-.5a10.42 10.42 0 0 1 .01-.77c.01-.01.01-.07.02-.04.13-1.74.1-1.44 0-.63-.01-.04-.02.03-.06.27.2-1.8.57-5.02.72-5.22.83-5.16 2.12-8.74 4.8-12.2.34-.36-.24.48-.95 1.53.58-.85 1.2-1.68 1.82-2.5.04.07-1.05 1.43-1.58 2.22 2.2-2.93 4.6-6.04 8.02-8.73.2-.2.43-.42.65-.62l.2-.15c-.02-.01.16-.17.4-.4.24-.2.54-.48.8-.67.2-.12.27-.13.36-.16l2.36 3.06-.14-.08c2.17 2.53 3.57 4.08 5.3 5.6.03.46 1.83 2.03 2.3 2.67l-.07-.04c1.54 1.34 2.7 3.2 4.17 4.5-.07-.04-.16-.02-.46-.35 1 1.02 2.36 2.42 2.3 2.6 2.34 2.48 5.5 6.02 7.18 7.45l-.14-.08c.33.27.57.5.77.7l1.35 1.42c.04.07.1.15.08.15.44.37 1 .94 1.54 1.54l-.3 2.4c-.08.34-.14 1.26-.1 1.26l-1.4 9.82-2.48 19.33c-.53 4.9-.7 7.82.2 4.1l-.22 1.62c0 .2-.1.9-.2 1.1v.1c0 .3-.1.4-.1.5v.1h5.37l-5.37.35-.3.03-.03-.37-.01-.08a.41.41 0 0 1 .02-.18 1.27 1.27 0 0 1 .04-.15c.01-.07.01-.1 0-.2.01-.07 0-.14.02-.2.07-.37.06-.6.06-.84 0-.04-.01-.1-.02-.14h-.01l-.06-.38c-.06-.28-.12-.37-.17-.3s-.1.26-.14.57l-.01.06v.06h-.01v.01l-.01.04c-.02.07-.04.15-.06.23s-.05.17-.07.26c-.04.1-.03.1-.1.33-.03.08-.04.17-.07.27v.06c-.02 0-.01-.01-.08.18-.01.05-.03.12-.04.2l-.01.14v.08l-.06 1 1.14.07a168.14 168.14 0 0 0 5.55.2c10.8.3 16.36-.1 29.2-.2 11.3.07 14.28.34 25.98.23l12.6-.04c.37.04.73.1 1.12.13 2.1.14 4.2.02 6.27-.25l1-.01h.3c.1 0 .24.03.18-.1l-.02-.1c3.3-.55 6.53-1.46 9.52-2.36 2.5-.88 6.97-2.23 9.88-3.38l1.17-.34c1-.4 2.18-.85 3.2-1.18l-.06.04c1.5-.6 3.2-1.2 3.94-1.5l-.06.04 1.83-.7-.3.14 7.7-2.93-.23-.01c5.12-1.84 6.9-2.72 11.53-4.38l-.05.04 1.36-.57c.4.45.96.72 1.55.72.22 0 .45-.04.67-.1l4.42-1.3c1.07-.36 1.67-1.4 1.5-2.43l.63-.24c.3-.07.6-.15.9-.23 1.3-.36 2.68-.83 4.17-1.47-.74.32.34-.08.3-.04 2.78-1.1 5.54-2.73 5.5-2.9 1.85-1.13 1.53-.9 1.8-1-.03-.03.35-.32.9-.72l1.92-1.45-.6.48c1.28-.97 2.56-1.94 3.8-3l-.82.5c1-.8 1.14-.9 1.28-.97.13-.1.28-.1 1.12-1.08l-.1-.05a5.9 5.9 0 0 0 .8-1.21c.1-.23.2-.5.13-.8-.03-.14-.08-.28-.16-.4l-.1-.15-.06-.06a.79.79 0 0 0-.29-.17c-.05-.01-.02-.02.01-.04l.08-.05.16-.1c.08-.06.1-.07.22-.18.13-.12.25-.25.37-.4.23-.28.45-.6.56-1.04.22-.42.14-.9-.05-1.32zm-192.7 68.44c.33 0 .68-.02 1.04-.05.36-.04.7-.08 1-.13l.2 8.7c0 .07.02.13.04.2-.12.27-.25.43-.3.47-.1.1-.2.15-.28.18-.08.04-.2.04-.3.03-.05-.01-.13-.04-.22-.12-.2-.15-.38-.45-.53-.77a4.4 4.4 0 0 1-.21-.5c-.02-.05-.1-.25-.15-.43-.05-.18-.1-.36-.15-.55a2.88 2.88 0 0 1-.21-.06l-.7-6.96.74.01zm149.02-43.47c.23.01-2.1.84-1.5.73-4.5 1.82-8.38 2.9-9.9 3.82-2.07.78-2.5.82-3.57 1.2l.5-.2-7.94 2.78c-1.45.5-1.62.75-4.26 1.52.83-.32-.24.02-1.22.3.63-.2.82-.27-.5.06-.18.07-.46.16-.72.25-.01 0-.06.01-.04 0-1.64.48-1.35.4-.58.22-.04.02.03.02.27-.04-1.73.4-4.8 1.2-5.04 1.12-5 1-8.74 1.33-12.9.4-.44-.2.5.07 1.73.22-1-.13-1.95-.38-2.93-.64.05-.07 1.68.42 2.6.54-3.4-.9-7.4-1.52-10.46-4.45l-.7-.53-.17-.18c-.01.02-.2-.13-.42-.34s-.52-.47-.73-.7c-.34-.5.12-.06-1.23-1.64-1.02-1.3-2.94-3.68-4.2-5.45.66.97.42.68.1.28-.6-.86-.9-1.4-1.37-2.06l.02-.1c-.14-.07-1.63-2.3-1.83-2.58-.26-.55.9 1.35 1.12 1.53-2.27-3.55-1.18-1.74-3.3-5.37-1.16-1.93.1.4-.48-.5-.98-1.73-1.94-3.42-2.9-5.5l.24.7c-1.7-3.33-2.58-5.4-3.5-7.74l-2.32-5.43c1.5-.55 2.74-1.06 4.02-1.7.44.14 2.57-.93 3.33-1.1l-.06.05c1.82-.92 3.98-1.3 5.74-2.16-.06.05-.08.14-.5.3 1.32-.53 3.13-1.28 3.28-1.16 3.17-1.23 7.65-2.82 9.6-3.84l-.12.1c1.1-.6 1.5-.6 2.77-1.16.08-.01.17-.03.16-.02.68-.36 1.76-.76 2.75-1.12 1.78 4.18 3.67 8.52 4.87 10.8l-.13-.2c.5.92.76 1.53 1.08 2.16.3.63.6 1.3 1.24 2.3.06.12.15.26.13.24.66.96 1.8 2.24 3.06 3.26 1.26 1.03 2.63 1.8 3.47 2.2l.08.1c1.38.66 2.83 1.18 4.33 1.5a19.39 19.39 0 0 1-1.66-.45c.3 0 1.12.3 2.3.53a6.89 6.89 0 0 0 .96.15c.34.05.7.07 1.08.08.76.02 1.53-.03 2.35-.08 3.05-.1 6.14-.75 9.3-.92 1.5-.2-1.3.25.93 0 .08.1-1.04.15-.46.17 2.2-.23 3.62-.2 6.33-.54l.12.06c3.53-.48 6.7-.57 9.03-.96 3.64-.47 2.47-.05 6.25-.64h.08l1.3 3.82c-.23.25-.37.57-.54 1.05-.5 1.4 1.6 7 2.3 8.4.35.8.94 1.37 1.94 1.5l.07.22c-4.88 1.77-8.27 3.28-12.67 4.84zm12.5-4.8l.16-.07h0c-.05.03-.1.05-.16.06zm-1.95-11.98a8.61 8.61 0 0 0-.78.23l-1.26-3.73c-.1-.24-.12-.43-.05-.56.1-.2.43-.36.88-.44l4.87-1.2c.05-.01.1-.01.14-.01.53 0 1.02.35 1.22.87l1.04 3.2c-1.8.36-4.82 1.3-6.06 1.64zm9.06 11.42l-4.42 1.3c-.6.2-1.25-.13-1.47-.8l-.08-.25c.52-.07 1.12-.23 1.8-.5 1.96-.72 3.66-1.14 4.8-1.63l.12.4c.2.62-.13 1.25-.76 1.47zm22.6-17.72c.08-.05.08-.02.02.07-.02.02-.04.05-.06.07s-.05.06-.13.13c-.13.12-.3.27-.5.4.01.06 0 .1 0 .15l-8.33 3.25c-.26.1-.38.4-.28.65.08.2.27.32.47.32.06 0 .12-.01.18-.03l8.1-3.16c.01.05.03.1.04.14.1.05.2.1.28.14l.05.05c.01.02.02.03.02.05.01.03.01.06 0 .13-.02.1-.1.25-.2.4a2.18 2.18 0 0 1-.35.44c-.22.2-.4.44-1.7 1.62l.2-.25-.63.74c-2.5 2.17-1.48 1-4.33 3.36 1.17-.9.66-.25-.83.74l.33-.32c-.8.58-1.06.77-1.63 1.1.47-.36.22-.23-1.03.5.26-.2.54-.37.8-.57-.75.5-1.53 1-2.33 1.45-.96.44-2.2 1.03-3.33 1.48s-2.13.8-2.56.9c0 0-1.08.36-2.3.68l-.47.12c-.03.01-.05.02-.07.02.78-1.4-.05-3.5-.8-5.88-.8-2.46-1.87-4.52-3.24-4.4l-.82-2.53a8.93 8.93 0 0 0 1.16-.41c.27-.12.54-.25.83-.46l.12-.1.1-.1.15-.14.3-.3c.83-.77 1.6-1.56 2.57-2.3.47-.37.97-.75 1.47-1.1.4-.25 1.08-.5 1.7-.75 1.03-.55 3.58-1.63 4.3-2.14.04 0 .34-.16.72-.28.46-.12.62-.1.7.06.06.1-.05.37-.08.42-.01.02-.01-.01.01-.1.02-.1.03-.2-.01-.27-.03-.06-.13-.08-.1-.1l-.13.08c.18 0 .13.04.16.08 0 .03 0 .01-.01.1a1.33 1.33 0 0 1-.12.3c-.12.22-.27.4-.48.6l-.9.75-1.45 1.22a8.2 8.2 0 0 0-.59.57c-.14.17-.23.32-.27.44-.07.26-.15.38-.06.65.1.1.13.08.22.13.04.02.07.04.12.06l.2.05a1.24 1.24 0 0 1-.35-.14c-.04-.02-.08-.04-.1-.06-.02-.01-.05-.05-.06-.1-.01-.04-.01-.06-.01-.1.01-.18.05-.24.05-.03-.03.06.06.22.1.2l.15.05c.1.04.26.07.43.1l.4-.02.2-.01.3-.08 1.2-.3-1.06.34 5.05-1.25-.58.07 2.42-.56c.36-.1.73-.2 1.14-.33l1.38-.44c.98-.3-1.86.37.18-.17.54-.1 1.13-.22 1.75-.25.3-.02.62-.01.9.04.3.04.5.16.53.22a.65.65 0 0 1 .11.34c0 .06 0 .1-.02.2l-.01.05-.07.15c-.04.1-.1.2-.2.3a2.18 2.18 0 0 1 .07.18l-10 3.94c-.26.1-.38.4-.28.65.08.2.27.32.46.32.06 0 .12-.01.18-.03l10.07-3.97c.01 0 .01-.01.02-.02.04.05.08.1.12.18.34-.05.58.06.58.06.05.03.1.06.12.1.06.06.13.3.14.42-.01.26-.24.67-.55 1z"/><path d="M208.1 109.7c-.01 0-.02.01-.02.01l-.12.06.14-.07z"/><g fill="#fff"><path d="M198.05 160.6l.86-4.8.44-3.16c-.05-.5.2-1.33.2-1.9l.1-.2a1.91 1.91 0 0 1 .07-.63l.02.02c-.01-.3.07-.63.07-.78l.02.02.05-.36.02.07a8.63 8.63 0 0 1 .2-1.5l-.1.02c.25-.98.13-1.37.4-2.24v.02c-.04-1.17.44-1.76.42-2.96 0 .15.05-.05.07-.04.06-.54.15-1.1-.02-1.15.07-.4.1-.3.18-.35-.07-.01-.05-.35 0-.66l.01.15.12-.88-.17.15c.12-.46.2-.1.23-.54h-.12c.13-.64.37-.98.56-1.6.5-2.56.7-5.38 1.4-7.7l.1-.1c.14-.02-.05-.7.1-.76v-.3c.04-.07.1-.23.1-.1.06-.25.04-.26.05-.45l.14-.25.7-2.9c.5-1.2 1.1-3.56 1.52-4.9.5-1.93 1.84-3.87 2.5-5.78.04-.05.08-.22.07-.23l2.43-4.92c.3-.63.47-1.08.28-1.06-.18.02-.74.53-1.8 1.92v-.05c-.55.87-.85 1.45-1.04 2.14-.2.02-.4.75-.54.94v-.03c-.15.62-.65 1.12-.8 1.72 0-.03-.04-.06.01-.2-.16.4-.37.98-.47.97-.4.97-.98 2.32-1.08 3l-.01-.05c-.04.4-.16.47-.26.9l-.04.04c-.04.43-.4 1.15-.47 1.5h-.07l-.25.8.1-.3c.14.16-.3.56-.4 1.17-.2.53.03 1.2-.23 1.74 0 .3-.06-.27-.12.14-.1-.01 0-.2-.1-.12-.08.4-.27.62-.35 1.13h-.08c-.04.67-.43 1.18-.4 1.64-.1.68-.32.4-.34 1.12l-.16.25c-.08.3.07.24-.05.56-.06-.03-.14.4-.15.2-.25.73-.18 1.54-.53 2.5.08.24-.1.72-.02.9-.06.02-.2 1-.2.4 0-.05.02-.13.04-.12l-.06-.08c-.24.53-.12 1.03-.24 1.58.05-.16.1-.38.1-.22l-.1.5-.04-.12-.17.76.1-.1c-.1.37-.26.48-.23.92.02.2.17-.34.12.06l-.48 1.87c.1-.05.06.13.05.3l-.08.01c-.02.7-.2.22-.24.9l-.04-.07.12.2c.04.63-.2.3-.12 1.02.03-.27.18-.1.1.23l-.06-.1c-.02.2 0 .25-.03.37-.02-.12-.1-.07-.13.2l-.06-.2.05.53c-.14.38-.15 1.02-.28 1.16 0 0-.2.84-.1 1.05-.04-.18-.14.28-.2.13.04.23 0 .9-.12 1.13v-.05c-.24.94-.15 1.65-.4 2.5.1-.03-.03.42.1.33-.03.9-.48 1.58-.2 1.96-.04.4-.15.47-.2.67v-.1l-.22 1.54c-.01.3.14.35.02.85-.04-.17-.06.04-.1.22.01-.12-.01-.16-.1.08a.68.68 0 0 1 .02.15c-.01 0-.01.01-.02 0-.03.32 0 .27.03.12.01.01.02 0 .05-.04-.13.3-.13.9-.25.93l-.2 2.43c-.07.08-.1-.1-.08-.34l-.06.56c-.08-.02 0-.33.01-.5-.23.64-.08 1.4-.3 2.15l.04.17v.04c.03 0 .05.18.05.3-.1.1-.16-.03-.2.35-.1.3-.1.87-.12 1.28.04-.2.07-.14.08-.04-.03.2-.1.3-.1.45h-.1c.1-.06.02.52.05.6-.1.1-.02-.3-.06-.36l-.16 1.16c.01.42.1-.06.15.15-.04.37-.02.73-.14 1.14l.1-.12c-.03.7-.1 1.1-.25 1.55-.05 5.2.77 1.2.77 1.2.5-1.97.4-3.04.7-5.44zm28.5 9.8c-1.7.46-2.2.44-3.95 1.03l-.77.24h-.01l-.02.01c-.02.02-.02.01-.03-.01l-.02-.02-.1-.3c-.25-.34-.37-1.06-.62-1.48l.01-.2c-.1-.14-.17-.32-.2-.5h.02c-.13-.22-.2-.5-.25-.6h.02l-.1-.28.04.04a6.58 6.58 0 0 1-.43-1.19l-.07.06c-.17-.82-.43-1.06-.55-1.8h.02c-.5-.84-.3-1.48-.8-2.36.06.1.03-.06.05-.06-.16-.42-.3-.88-.48-.84-.1-.32-.03-.27.02-.33-.07.02-.2-.24-.26-.5l.06.1-.24-.7-.1.18c-.07-.4.14-.15 0-.5l-.1.04c-.13-.53-.05-.88-.12-1.4-.57-2.1-1.48-4.28-1.8-6.3l.06-.1c.1-.07-.33-.5-.23-.6l-.12-.2c.01-.07 0-.2.05-.1-.05-.2-.07-.2-.15-.35l.02-.25c-.15-.85-.5-1.52-.67-2.4-.1-1.1-.7-3.04-1.03-4.18-.55-1.58-.4-3.57-.9-5.2.01-.06-.05-.2-.07-.2l-.2-1.53-.17-1.07-.3-1.93c-.24-1.14-.55-1.6-.77 1.33l-.03-.04c.01.86.1 1.4.32 1.96-.16.12.1.7.06.9h-.02c.2.5.04 1.08.26 1.56-.02-.02-.07-.02-.1-.13.1.36.22.84.12.9.2.86.35 2.07.64 2.58l-.04-.03c.17.3.1.4.23.74-.01.02-.01.05-.02.05.18.32.23 1 .33 1.25l-.06.03.16.67-.04-.26c.2.05.01.53.24 1 .1.46.6.84.6 1.33.14.2-.18-.17-.04.16-.1.03-.1-.14-.15-.04.12.32.03.57.2.96l-.07.03c.27.5.16 1.03.38 1.35.2.53-.12.42.17.96l-.04.25c.05.25.16.14.2.43-.07 0 .04.36-.06.2.07.64.47 1.2.53 2.05.17.14.2.57.33.67-.05.04.22.8-.02.4-.02-.04-.04-.1-.02-.1l-.1-.03c-.01.5.3.8.42 1.27-.02-.14-.07-.32.01-.2l.1.42-.08-.07.14.64.05-.1c.05.32-.04.46.16.78.1.14.02-.32.13 0a14.7 14.7 0 0 0 .31 1.59c.07-.07.1.07.17.2l-.07.04c.26.52-.1.25.15.78l-.06-.03.2.1c.3.45-.07.3.3.8-.08-.2.13-.15.18.13l-.1-.05c.06.14.1.18.12.3-.06-.08-.1-.02-.04.2l-.13-.12.25.37c.02.34.27.8.22.97 0 0 .16.7.32.82-.1-.12-.02.27-.13.18.13.15.36.65.34.9v-.04c.17.8.53 1.28.66 2 .07-.06.15.32.22.2.34.68.2 1.37.63 1.52.13.32.05.4.1.58l-.04-.07.44 1.23c.1.2.27.2.37.6-.1-.1-.04.05.02.2-.04-.1-.08-.1-.05.1.03.03.05.05.08.12 0 0 0 .02-.01.01.16.38.15.3.1.12.01 0 .02-.02.02-.08.03.2.13.5.2.7.05.1.06.25.1.28.08-.01.12-.01.12.02l.84-.28.52-.2.9-.37c.1.03-.05.12-.23.2l.45-.15c.02.08-.25.12-.38.18.57-.03 1.07-.45 1.73-.53l.1-.1h.04c-.01-.03.12-.12.2-.16.1.04.04.16.35.06.27-.01.7-.24 1-.37-.18.04-.13-.01-.06-.06.16-.05.26-.01.38-.07l.04.1c-.1-.07.38-.2.43-.27.1.04-.22.13-.25.2l.93-.3c.3-.17-.1-.07.05-.2.3-.1.56-.25.9-.3l-.13-.05c.53-.23.87-.32 1.26-.34 3.93-1.88.6-1.15.6-1.15-1.6.3-2.38.8-4.3 1.43zM203 209.52l.2.03c0-.01-.05-.03-.2-.03zm51.6-.02c.02 0 .03 0 .05-.01h-.05zm-43.68 1.2h0c-.03 0-.05.01-.06.01h.06z"/><path d="M200.52 210.6l6.28.14 4.1-.04c.63-.13 1.73 0 2.47-.1l.3.07c.26-.04.55-.06.8-.02l-.02.02c.38-.05.8-.02 1-.05l-.02.02.46-.01-.08.03c.67-.06 1.35-.06 1.95-.04l-.05-.1c1.3.1 1.76-.08 2.93.03l-.02.02c1.47-.23 2.33.16 3.85-.06-.2.03.08.04.07.07.7-.02 1.45-.04 1.46-.2.5 0 .4.05.48.12 0-.07.44-.1.84-.1l-.18.03 1.14-.03-.22-.14c.6.04.15.17.73.14v-.12c.84.02 1.33.2 2.14.3 3.36.05 6.98-.25 10.1-.04l.14.1c.06.13.86-.2.98-.07l.36-.06c.1.02.32.05.14.08.34.01.34-.02.6-.05l.36.08c1.33.06 2.46-.1 3.85-.06 1.68.16 4.84.01 6.66-.07 2.56-.2 5.54.32 8.16.1.08.02.3-.02.3-.04l2.4.02s11.63.05 2.8-1.02l.06-.03c-1.3-.07-2.14-.08-3.04.06-.14-.17-1.08-.02-1.4-.07l.03-.01c-.8.13-1.65-.1-2.42.01.03-.01.05-.06.22-.06-.56.02-1.33.06-1.37-.04-1.34.03-3.22-.02-4.08.14l.06-.03c-.5.1-.63.02-1.18.07-.03-.01-.07-.02-.06-.03-.53.1-1.56.02-2 .06l-.03-.07-1.06.02.4.01c-.14.18-.8-.12-1.58 0-.72-.02-1.46.38-2.2.3-.36.1.3-.14-.22-.07-.02-.1.25-.06.1-.14-.52.05-.86-.1-1.5-.03l-.03-.07c-.84.14-1.6-.1-2.16.03-.87.06-.58-.22-1.5-.08l-.35-.1c-.4-.02-.28.12-.7.07.03-.06-.54-.05-.3-.1-.97-.1-1.98.14-3.26-.03-.28.12-.92.05-1.13.14-.03-.05-1.3-.01-.57-.13.06-.01.17-.01.17.01l.1-.07c-.73-.14-1.33.08-2.05.05.2.02.5.02.3.07l-.67-.01.14-.06-1-.04.14.08c-.5-.04-.66-.17-1.22-.06-.25.06.46.1-.05.13-.66-.05-1.64-.13-2.47-.15.08.1-.15.08-.38.1l-.03-.07c-.9.1-.33-.16-1.2-.08l.08-.05-.23.16c-.8.15-.43-.15-1.3.05.35-.01.16.16-.27.13l.1-.07c-.24.02-.32.05-.48.03.14-.04.07-.1-.27-.1l.23-.1-.66.13c-.5-.08-1.32.02-1.53-.08 0 0-1.1-.05-1.35.06.22-.07-.38-.1-.2-.18-.28.08-1.12.14-1.46.06l.06-.01c-1.24-.1-2.13.12-3.24.01.05.1-.54.04-.4.15-1.16.1-2.1-.23-2.52.12-.53.02-.62-.08-.9-.1l.13-.02c-.98.03-1.27.03-2 .02-.37.03-.42.2-1.08.15.2-.06-.06-.05-.3-.05.16-.01.2-.03-.12-.08-.05.02-.12.03-.18.04 0 0-.02-.01-.01-.02-.4.02-.34.04-.15.05-.01.01.01.02.07.04-.42-.08-1.18.01-1.23-.1-1.23.03-2.1.14-3.13.18-.12-.06.12-.1.42-.13l-.73.02c.01-.08.42-.05.64-.06-.86-.13-1.78.13-2.8.01l-.2.06-.06-.01c0 .03-.22.08-.37.1-.14-.07.01-.16-.5-.16-.4-.07-1.13.03-1.64.07.28.01.2.05.07.08-.25 0-.4-.07-.6-.04v-.1c.1.1-.65.1-.75.13-.14-.07.4-.06.45-.1l-1.5.01c-.54.07.1.1-.16.17-.47.02-.94.08-1.48.03l.17.08c-.9.07-1.42.06-2.02-.03-6.62.68-1.4.93-1.4.93 2.58.2 3.93-.04 7.03-.1z"/></g></svg>