<svg xmlns="http://www.w3.org/2000/svg" viewBox="0 0 480 480" xmlns:v="https://vecta.io/nano"><path d="M2711.8 107l.5-.12c-.02-.02-.15 0-.5.12zm19.8-3.25h-.03c-.04.01-.1.02-.13.04l.16-.04z"/><g fill="#fff"><path d="M342.8 99.5L328 109.86l-5.54-1.73-.15.12c.03-.04.05-.08.07-.12 1-1.7 2.5-5.1 2.5-5.1s3.8-1.5 5.7-4.4c1.9-2.9.7-3.7.7-3.7s-6.6 2-8.3 3.4c-1.7 1.3-4.7 3.2-4.9 5.2-.2 2-.5 3.9-1.9 6.4-1.4 2.5-21.4 17.5-21.4 17.5l.02.01c-4.28 3.1-8.66 6.17-12.03 8.22-3.57 2.17-8.24 1.34-8.24 1.34l-2.67 33.63s6.95 2.58 14.7-2.67c8.67-5.88 18.34-19.8 20.5-22.5.95-1.2 2.3-2.96 3.85-5l.06.05 3.6-4.92 8.3-11.17c-.02-.02-.03-.05-.05-.08l2.45-3.34.82-.57 5.9-4.5c1.4-1.1 9.73-14.5 10.9-16.37.04-.07-.02-.12-.07-.1z"/><path d="M340.6 94.64c-.9-.7-3.4-1.8-4.3-.3-.6 1.12.36 2.9 1.98 4.22l-1.08-.42c-1.2-.4-4.2-1-4.9.7-.56 1.03.7 2.56 2.6 3.5l-.9-.2c-1.1-.3-3.8-.5-4.1 1.3-.3 1.5 1.9 3.1 4.3 3.4 2.4.4 4.3.1 4.7-1.9.15-.76-.37-1.3-1.13-1.7 1.92.37 3.28.18 4.03-1.4.36-.75-.1-1.4-.87-1.96 1.1.2 1.93-.2 2.67-1.33 1.1-1.7-2.1-3.2-3-3.9z"/><path d="M331.7 106.43c-1-.2-3.4-.4-3.7 1.2-.2 1.3 1.7 2.8 3.9 3.2 2.2.3 3.2-.2 3.6-2s-2.8-2.1-3.8-2.4zm-168.8 49.4c-4.1 7.3-5.9 15.3-7.8 29.6s-3.8 44-3.8 44-2.3 6.1-1 13.7c1.3 7.7 2.1 8.4 2.5 9.5.3 1.1 1.8 0 1.8 0s.3 2.4 1.6 2.6c1.4.3 1.6-1.3 1.6-1.3s.78 1.4 1.58 1.3c.9-.1 1.95-3.1 2-5.42.05-2.2 1.9-7.7 2.1-8.7s.7 2.3 1.1 4 2.4 2.6 2.3-.5.3-5.8.2-6.7-.6-3-1-4.4l-.4-1.5s-.5-1.1.6-4.2c1-3 12.7-33.8 14.7-38.3 2.6-5.8 11.3-17.3 16.1-19.4 8.6-3.7-23.13-29-34.2-14.3z"/></g><path d="M187.05 179.3l-.62.84-.1.03-2.04 2.9.77-1.08c-.12.47-1.64 2.12-2.85 4.4-.62 1.03-1.12 2.17-1.53 3.33l-1.3 3.48c-.36 1.13.26-1.02-.34.65-.1.02.25-.8.01-.4l-1.86 4.64-.1.05-2.54 6.67c-.98 2.7-.9 1.73-1.84 4.58l-.5 1.05c-.47 1.2-.2.9-.76 2.22-.03-.1-.7 1.67-.45.86-1.24 2.98-2.2 6.17-3.83 10.1-.2.9-1.02 2.9-1.16 3.58-.04.04-.42 1.06-.62 1.83-.2.77-.3 1.22-.08-.02.04-.2.15-.58.17-.55l.02-.3c-.24.65-.42 1.3-.52 1.95-.05.33-.08.67-.07 1 0 .17.01.35.04.53s.04.3.13.54c.28.96.6 1.9.85 2.94-.15-.7-.4-1.58-.2-1 .2.7.36 1.42.52 2.14l-.16-.43a31.96 31.96 0 0 1 .32 1.59c.04.26.1.53.08.72 0 .23-.01.5-.03.77l.1-.44c-.1 1.57-.33 2.16-.27 4.02.04.84.15-1.55.12.18-.02.55-.05 1.17-.04 1.83-.01.32-.01.6-.06.9-.05.28-.15.53-.2.53-.08.05-.15.05-.24-.03a1.46 1.46 0 0 1-.43-.59c-.06-.12-.1-.25-.13-.38l-.1-.5-.25-1.28c.01.26-.06.04-.15-.37-.1-.4-.23-1.08-.4-1.57v-.25c-.2-.4-.34-.46-.45-.56-.12-.07-.18-.14-.34-.13-.1.05-.14.04-.2.04-.03 0-.06-.02-.1 0-.05.03-.1.07-.2.14-.04 0-.1.15-.15.27l-.2.46-.47 1.66-.05.26-.07.36-.02.22c-.58 2.65-.6 1.33-1.06 4.3.25-1.15.25-.52-.02.92l-.01-.38c-.12.8-.1 1.16-.13 1.62-.03-.44-.06-.24-.2.85a9.13 9.13 0 0 0 0-.74c-.01.68-.1 1.38-.23 2.06-.14.44-.32.95-.54 1.42a3.48 3.48 0 0 1-.37.64c-.16.2-.16.2-.25.23-.1-.01-.1 0-.26-.12l-.1-.08a3.32 3.32 0 0 0-.18-.19c-.1-.12-.18-.24-.25-.36l.5-10.9c.01-.28-.2-.5-.48-.52-.28-.03-.5.2-.52.48l-.5 10.95c-.1.04-.2.08-.4.13-.06.14-.1.3-.18.4-.07.1-.06.07-.1.1-.05.04-.1.07-.17.08-.1.03-.4-.01-.5-.06-.27-.1-.52-.53-.63-.7.17.26.06.02-.02-.26-.02-.1-.1-.4-.13-.58-.02-.2-.02-.24.06.02-.1-.36-.2-1-.3-1.62-.03.02-.06.04-.08.06l-.2-8.38c-.01-.27-.23-.5-.5-.5h-.01a.51.51 0 0 0-.49.51l.23 9.05c-.1.06-.17.1-.26.15l-.2.1-.06.02c-.06.03-.15 0-.17-.07h0c-.28-.67-.57-1.3-.67-1.7l.08.18c-.63-1.86-1-3.58-1.35-5.23-.34-1.67-.7-3.28-.77-5.07-.1.17-.13-1.74-.22-1.26-.24-3.78.77-6.78.77-8.15.1-.4.2-.74.3-1 .05-.13.1-.25.13-.36.03-.07.05-.14.08-.2.02-.07.02-.18.03-.23.05-.4.1-.7.14-1.16l-.01.4.43-6.6c.05-1.2-.1-1.4.1-3.56.01.7.06-.18.12-1-.03.52-.02.68.1-.38-.01-.15 0-.38 0-.6.01-.01.01-.05.02-.03.08-1.35.04-1.12-.01-.5-.01-.03-.02.02-.06.2.2-1.4.3-3.9.4-4.06l.67-10.33c.1-.37.07.42.01 1.4l.2-2.4c.08.03-.08 1.38-.12 2.1.38-2.83.4-5.88.85-9.2l.01-.7.03-.2c-.03.01 0-.75.04-1.24.12-.46.16.05.34-1.6.2-1.3.4-3.7.6-5.4-.14.9-.13.6-.1.22.1-.82.24-1.28.3-1.92l.08-.05c-.05-.12.24-2.2.24-2.48.14-.46-.13 1.28-.1 1.5l.75-4.92c.22-1.76-.14.3-.08-.55.25-1.54.46-3.06.88-4.8l-.2.54c.53-2.9 1-4.6 1.63-6.47 1.4-5.3 2.8-8.04 3.38-9.4.6-1.35.47-1.3.02-.64a28.66 28.66 0 0 0-1.77 3.14c-.58 1.17-1 2.2-1 2.2-1.68 4.06-2.44 7.3-3.13 10.74-.65 3.44-1.2 7.1-1.85 12.2l-1.3 10.2a282.77 282.77 0 0 0-.99 10.48l-1.02 13.57c-.03 2.08-.4 5.72-.47 8.17l-.14.94-.05 1.34c-.01.23-.03.46-.04.68-.01.06 0 .04-.01.06l-.01.01-.15.4v-.06c-.35 1.26-.67 2.68-.75 3.32l-.01-.06c-.1.5-.16 1.03-.23 1.55l.01-.27c-.24 2.24-.3 4.56-.15 6.6l.07-.18c.13 2.2.47 3.63.74 5 .3 1.4.56 2.72 1.07 4.63l-.04-.05c.33 1 .77 1.86 1.1 2.66h0c.1.28.3.53.55.66s.56.16.85.1c.34-.07.3-.08.37-.1.05-.02.1-.05.14-.07.02.03.02.12.03.17.02.08 0 .06.08.3.14.4.3.83.64 1.23.17.2.37.4.66.53.28.14.57.18.82.2a1.93 1.93 0 0 0 .92-.19 1.95 1.95 0 0 0 .4-.29l.08-.1.02-.03c.03-.05.05-.1.06-.17.02-.01.06.08.1.1.05.04.02.03.34.27.1.08.3.2.5.24.2.06.4.07.6.06l.1-.03c-.05.01-.1.03-.1.03-.43.02-.26.02 0 .03l.33-.1c.1-.04.14-.07.13-.06.48-.3.63-.6.8-.9.17-.3.3-.57.4-.85.22-.56.37-1.1.47-1.56.2-.93.22-1.6.14-1.62a13.9 13.9 0 0 0 .08-.96c.02-.2.04-.3.05-.38.04-.15.07-.12.1-.22-.1.01.1-1.4.44-2.67l-.12.6a59.98 59.98 0 0 1 .46-1.81l.44-1.6c-.04.04-.07.08-.12.14l-.17.32c.04-.1.07-.22.1-.3a2.77 2.77 0 0 1 .06-.16.81.81 0 0 1 .08-.18c.04-.08.06-.08.08-.1.04-.02.06-.01.18-.48l-.03-.3c.03-.1.05-.2.08-.28l.03-.13c0-.05.06-.08.08-.01.08.2.1.4.14.6.06.38.1.7.12.97.01.08 0 .1.02.23l.06.4.14.84c.08.33.2.67.38 1 .2.32.44.64.95.9.5.23 1.13.15 1.5-.28.4-.45.45-.87.53-1.23.06-.37.06-.73.05-1.08l-.02-.95c0-1.27.07-2.56.15-3.86.02-.66.1-1.3.01-2.08-.1-.7-.26-1.33-.4-1.97-.3-1.3-.7-2.56-1.03-3.8v-.04l-.02-.04a1.64 1.64 0 0 1-.06-.38 4.34 4.34 0 0 1 0-.51c.02-.35.07-.7.14-1.07.14-.72.37-1.42.6-2.14.5-1.43 1.02-2.85 1.54-4.25l3.14-8.12.24-.4c.2-.14.84-2.74 1.1-3.07l.37-1.15c.14-.3.42-.97.23-.4.4-1.04.4-1.07.64-1.83l.5-1.1 4.55-11.92 1.9-4.55c.68-1.7 1.6-3.42 2.66-5.15 1.1-1.8 2.3-3.56 3.47-5.16l-.14-1.24z"/><path d="M346.1 87.68c-.4-.5-.02.13-.24-.07-.3-.44-.86-.54-1.28-.66l.13.1c-.78-.1-1.24-.2-1.73-.4l-1.27-.1-1.5-.32a1.02 1.02 0 0 0-.35-.03c-.22-.06-.6-.08-1.02.3h.01l-1.2 1 .01-.06c-.8.82-1.3 1.36-1.72 2.05-.2-.02-.64.7-.86.87l.01-.03c-.36.62-1.04 1.02-1.4 1.6.01-.03-.02-.07.08-.2-.3.4-.73.92-.83.88l-.85 1-.5.6-.17-.12-1.9.56-1.47.48-3.64 1.45c-.63.3-1.28.6-1.93 1.1l-1.64 1.23c-1.1.87-2.25 1.77-3.03 3.1-.14.35-.33.76-.4 1.3l-.15 1.27c-.12.85-.32 1.7-.5 2.38l-.25.5c-.13.46-.34 1-.6 1.42v-.04c-.28.73-.72 1.24-.97 1.56v-.04l-.58.68.08-.13-.68.76c-2.98 2.74-6.34 5.2-9.44 7.66-1.48 1.34-4.37 3.35-6.22 4.83l-.78.5c-.63.5-1.4 1.1-2.08 1.55l.03-.05c-.95.76-2.08 1.54-2.56 1.9l.03-.05-1.2.87.2-.17a90.81 90.81 0 0 1-5.09 3.58l.18-.02-4.03 2.6c-1.1.72-2.22 1.23-4 1.46l.04-.03c-.3.07-.62.1-.92.14l-.07.35-.7-.72c-.13-.14-.2-.25-.2-.3-1.83-1.73-3.26-2.86-4.8-4.28-.1-.23.3.05.77.45l-1.1-1.02c.1-.1.67.54 1 .84-1.12-1.4-2.77-2.4-4.12-4l-.38-.23-.08-.1c-.03.04-.42-.23-.65-.43-.13-.3.2-.18-.54-.9-.5-.65-1.7-1.58-2.5-2.28.4.42.22.33.01.2-.37-.36-.5-.65-.82-.9l.07-.15c.04.25-1.07-.83-1.25-.9-.13-.3.64.5.8.5l-2.23-2.15c-.87-.7.04.25-.43-.02-.72-.66-1.47-1.24-2.2-2.1l.16.35-.84-.75c-.83-1.53-7.2-9.48-14.93-14.12-7.74-4.64-13.28-5.52-16.45-6-1.44-.22-7.27.17-8.84.42-1.94.32-3.85.88-5.9 1.6-2.5.74-5.92 2.42-9.04 4.58-3.14 2.14-6 4.72-7.9 6.83-5.2 5.75-12.14 11.58-17.44 17.5a3.92 3.92 0 0 0-.6.7l-5.1 5.16s-17.05 17.26-11.4 12.93l-.86.87 4.1 3.3c-10.78-7.5-.7 1.08-.7 1.08l1.3 1.12c-.34.33-.63.65-.84.92-.5.68-.7 1.04-.5.88.2-.1.64-.7 1.67-1.5 5 4.25 8.45 6.6 15.13 11.85l10.85 9.08.7.57.67.54-.57 3.8-2.74 20.02c-.6 5.06-.8 8.1.15 4.26l-.24 1.68c0 .2-.1.9-.2 1.1v.1c0 .3-.1.4-.1.5v.1h5.63l-5.63.35-.32.03-.03-.38v-.08a.41.41 0 0 1 .02-.18 1.27 1.27 0 0 1 .04-.15c.01-.07.01-.1 0-.2.01-.07 0-.14.02-.2.07-.38.06-.62.06-.85-.01-.15-.06-.4-.08-.53-.06-.3-.1-.38-.16-.32s-.1.27-.14.58c-.03.22-.12.52-.26 1-.03.08-.04.17-.07.27v.07c-.02 0-.02-.01-.08.18-.01.05-.03.12-.04.2v.14.08l-.06 1 1.13.07c2.46.14 5.83.2 5.83.2 11.2.3 16.96-.1 30.27-.2l26.94.23 17.62-.07a38.21 38.21 0 0 1 2.34-.09l3.23-.01h1.65c.1-.02.28.06.2-.1l-.1-.65-.36-2.36a66.42 66.42 0 0 0-.46-2.58l-.06-1.24c-.22-1.07-.45-2.34-.55-3.44l.04.06c-.33-1.6-.55-3.44-.7-4.23l.04.06-.3-1.96.1.33c-.52-2.8-.96-5.7-1.3-8.28l-.1.23c-.38-3.1-.73-5.1-1.07-7.1l.1-.03c.13-1.83.38-.6.55-2.42l.06.17-.18-.52c.03-1.65.4-.83.37-2.67-.1.7-.33.3-.13-.57l.08.24c.03-.24.04-.4.05-.54.05.01.1.03.15.04.7.17 1.4.27 2.1.35 2.84.26 5.73-.2 8.34-1.27 2.62-1.05 4.9-2.7 6.94-4.43 2.05-1.74 3.9-3.58 5.66-5.38l.36-.27c.24-.05 1.72-2.2 2.05-2.4l.72-.92c.23-.24.7-.75.34-.3.7-.82.7-.85 1.16-1.48l.8-.85c2.73-3.27 4.74-6.3 7.45-9.8 3.35-4.2 9.24-12.08 12.66-16.78l.13-.2c1.44-1.92 2.6-3.7 4.15-5.77l.4-.48.06-.03.14-.1.3-.2a10.73 10.73 0 0 0 .59-.42l1.24-.93 2.67-2.06 1.67-1.32.35-.36c.2-.24.36-.45.53-.68.64-.9 1.2-1.72 1.65-2.43 1.36-2.17 2.92-4.44 4.48-6.74l2.3-3.46c.01-.01.02-.03.03-.04.15-.2.3-.4.43-.63.08-.1.14-.22.17-.34l.45-.72.5-.86.13-.2v-.03a.73.73 0 0 0 .1-.32c.01-.13-.07-.12-.17-.1.27-.25.5-.54.7-.83.3-.4.4-.9.3-1.3-.3-1.06-1.7-2.03-2.7-2.64l.87-1.25c.1-.04.01.15-.13.36l.4-.5c.06.05-.2.3-.3.47.58-.5.9-1.3 1.54-1.9l.07-.18.04-.03c-.03-.02.06-.2.14-.3.14-.06.12.1.4-.24.27-.23.6-.8.86-1.17-.17.18-.15.1-.1 0 .14-.17.27-.23.36-.38l.1.04c-.06 0 .01-.1.1-.27.12-.2.18-.42.18-.47.13-.13-.1.43-.13.52.32-.52.27-.7.3-.83.06-.12.14-.3-.1-.85zm-8.74 19.5c-.6.97-1.13 1.84-1.45 2.44l.04-.1c-.44.88-.68 1.06-1.24 2-.04.04-.1.1-.1.1-.5.94-1.73 2.57-2.22 3.25h-.1l-.32.4-.3.33-.84.65.64-.47c-.1.3-1.34.88-2.5 1.9-1.16.84-2.08 2.08-3.34 2.9-.53.48.43-.47-.4.2-.08-.06.37-.33.1-.24-.13.1-.24.18-.35.26-.56.77-.98 1.17-1.6 2.13h-.1c-.88 1.44-1.96 2.5-2.5 3.48-.98 1.44-.87.8-1.82 2.35l-.5.5-.08.1.02.08a14.09 14.09 0 0 0-.63.84l-.46.7-2.02 2.73.77-1c-.12.46-1.63 2-3 4.03-1.4 1.83-2.5 3.98-4 5.84-.62.97.5-.9-.48.52-.1-.01.43-.68.1-.37-.97 1.37-1.72 2.14-2.93 3.83l-.1.02c-1.5 2.24-3.14 4-4.14 5.5-1.68 2.2-1.32 1.32-3.05 3.64l-.8.8c-.8.93-.48.75-1.42 1.75.01-.1-1.2 1.25-.7.62-2.15 2.2-4.18 4.7-7.42 7.13-.6.66-2.3 1.77-2.8 2.16-.03 0-.25.14-.56.3l-1 .5c-.64.3-1.03.44-.04-.08.17-.1.47-.25.46-.22l.2-.2c-2.04.92-3.73 1.7-5.95 2.03.65-.1 1.52-.24.95-.1a17.84 17.84 0 0 1-2.06.26l.42-.1a15.75 15.75 0 0 1-3.07-.04l.42.1c-.75-.07-1.25-.2-1.76-.32l-.65-.16h-.03v-.6c.3-1 .42-2.68.66-3.08 0 0 .46-2.2.36-2.75.04.47.3-.75.36-.38-.03-.6.15-2.32.4-2.98l-.01.13c.57-2.5.54-4.34 1.1-6.58-.16.08.12-1.1-.1-.84.22-2.37 1.1-4.2.67-5.15.15-1.07.35-1.24.47-1.78l-.01.26c.3-2 .38-2.58.65-4.06.07-.75-.17-.9.12-2.22.03.45.1-.1.2-.6-.04.32-.02.42.16-.22-.02-.1-.01-.24-.01-.38.01 0 .02-.03.03-.01.1-.83.05-.7-.03-.3-.01-.02-.04.01-.1.12.07-.2.12-.44.17-.7.01-.08.03-.15.04-.23.14 0 .3-.01.4-.01l-.2.03c2.07-.12 3.88-.72 5.35-1.68l4.24-2.75c-.18.02 1.4-1 .96-.83 3-2.18 5.64-3.7 6.52-4.76 1.35-1 1.66-1.1 2.37-1.6l-.3.25 5.13-3.83c.9-.74.96-.97 2.64-2.22-.5.46.17-.07.8-.55-.4.32-.5.43.34-.17.1-.1.27-.25.43-.4.01 0 .04-.02.03-.01 1-.84.82-.7.34-.34.02-.03-.03 0-.2.1 1.1-.78 2.93-2.4 3.12-2.4 1.5-1.26 2.83-2 4-3.1h0l.02-.02c.01-.01.01-.02.02-.02 1.37-1.44 2.66-2.48 2.83-3.43.5-.95.65-1.1.9-1.6l-.08.25c.75-1.9.82-2.5 1.07-3.98.03-.37.01-.6 0-.88 0-.3-.03-.58.25-1.1-.1.37.06-.07.32-.44-.14.25-.2.32.2-.13a1.21 1.21 0 0 1 .18-.29c.01 0 .03-.02.02 0 .5-.58.4-.5.15-.24 0-.02-.02-.01-.1.07.58-.55 1.7-1.54 1.84-1.5l1.35-1.05.63-.5c.18-.15.37-.3.57-.4.8-.5 1.67-.9 2.6-1.3.23-.03-.2.2-.72.43l1.32-.55c.02.08-.75.34-1.15.52.8-.26 1.62-.6 2.47-.94.43-.17.86-.34 1.32-.5l.7-.22c.1-.03.23-.07.35-.1l.17-.03.1-.06c.04-.02.1-.07.12-.04.01.01.01.02.01.03l.02-.01c.04.07-.07.17.02.23-.03.05.04.15.04.22l-.03-.04c.1.34-.02.45-.1.87-.02.02-.04.05-.04.04-.03.45-.54 1.16-.7 1.5l-.07-.02c-.17.25-.33.5-.52.74.07-.1.15-.17.22-.26.07.2-.5.5-.84 1.06-.22.24-.32.52-.5.78-.18.27-.4.53-.7.68-.2.24.15-.27-.2.04-.07-.07.15-.17 0-.17-.35.3-.67.32-1.12.66l-.06-.05c-.58.5-1.23.56-1.66.9-.13.07-.25.13-.35.17-.3.62-.38.35-.56 1.05l-.22.24c-.16.3.01.27-.2.6-.05-.05-.25.4-.2.18-.23.36-.38.77-.56 1.2a7.59 7.59 0 0 1-.31.65c-.07.12-.14.25-.23.4a13.22 13.22 0 0 1-.41.63c-.03.18-.17.44-.32.7.35.1.7.2.9.22 0 .03.45.17.76.28.2.07.3.12-.03.08-.1-.02-.26-.07-.24-.1l-.17.02c.16.07.3.12.4.16.07.03.14.06.2.08a3.34 3.34 0 0 0 .43.1c.3.06.58.1.88.2-.17-.08-.4-.15-.24-.15l.56.2-.14.02.83.3-.1-.1c.4.17.5.34 1 .38.23.01-.36-.22.08-.1.13.06.3.12.44.2.08.03.16.07.25.1.1.04.13.07.33.12a1.96 1.96 0 0 0 1.51-.21c.73.5 1.62.88 2.58 1 .4.1.8.1 1.2.1 1.3 0 2.5-.5 2.9-2.4.1-.65-.13-1.14-.53-1.5.1.01.22.01.33.01.6.02 1.2-.04 1.74-.23h0zm-5.77-.35c.2.1.4.1.7.2 1.4.3 3 .7 2.8 1.7-.2 1.3-.8 2-3.1 1.6-1.3-.2-2.6-.9-3.2-1.7-.2-.2-.4-.5-.3-.9 0-.3.1-.5.4-.8.7-.4 2-.3 2.7-.1zm2.6-.3c-1.5-.2-2.9-1-3.6-1.9-.2-.2-.4-.6-.3-1 0-.4.2-.6.5-.8.4-.3 1.1-.4 1.7-.4.5 0 1 0 1.4.2.2.1.4.1.7.2.2.03.4.08.63.12.35.15.7.28 1.07.38.35.12.7.2 1.07.3.4.2.74.43.93.7.1.2.1.4.1.6-.2 1-.9 2.1-4.2 1.6zm5.44-2.62l-.42.6c-.03-.23-.1-.46-.22-.7.03-.01.07 0 .1 0a3.52 3.52 0 0 0 .66-.06l-.12.14zm1.66-2.37c-.64 1.37-1.72 1.64-4.12 1.07-.54-.2-1.1-.35-1.63-.48-1.32-.52-2.45-1.4-2.85-2.3-.2-.3-.2-.6-.1-.9.6-1.4 3.4-.8 4.3-.5.2.1.3.1.5.2a15.23 15.23 0 0 1 .7.24c.26.2.52.4.8.56.63.34 1.15.54 1.62.66.37.27.67.55.78.84.1.2.1.4 0 .6zm.83-1.2l-.08.16c-.06-.1-.1-.2-.18-.28.2-.03.37-.1.55-.16l-.3.28zm1.18-2.8c.1.3 0 .5-.1.7-.65.97-1.3 1.35-2.22 1.2-.8-.54-1.78-.96-2.58-1.27-.93-.75-1.66-1.67-1.9-2.53-.1-.3-.1-.8.1-1.1s.5-.4.8-.5h.4c.9 0 2 .5 2.4.9.2.1.4.2.7.4.8.5 2.2 1.4 2.4 2.2z"/><g fill="#fff"><path d="M273.94 149.8l.14-.94.03.04c.02-.4.22-1.25.26-2.04l.03.04c.15-.5.2-1.12.24-1.65l.22-.56c.08-1.53.66-3.74.67-5.04l.3-2.02v-.05l-.04-.03-1.54-1.48-2.03-1.98-.2-.18-.3 1.72a1.24 1.24 0 0 1-.03.4c-.36 3.4-1.52 7.16-1.9 10.5-.32 2.36-.87 6.46-1.4 8.6a35.33 35.33 0 0 0-.25 1.55c1.2 5.9 1.22 9.55 2.4 15.25.03-.36.03-.62-.04-.62.12-.1.17.04.3-.65l-.06.03c.02-.12.04-.25.07-.37-.2-.24.02-1.63.2-2.96.03.04.15-.5.13-.1.16-3.14 1.1-4.76 1.22-7.8l.03.04c.6-2.33.46-3.34 1.06-5.92l-.16.08c.25-1.22.48-2.6.6-3.97v.15zm-14.07 51.7l-5.6-.02c0 .01-.5.06-.7.04-6.13.22-13.1-.3-19.1-.1-4.26.1-11.66.24-15.6.07-3.27-.03-5.9.12-9.02.06l-.85-.08c-.57.04-.6.06-1.37.05.42-.03-.08-.05-.32-.08l-.85.06c-.28-.12-2.16.2-2.3.07l-.32-.1a236.75 236.75 0 0 0-7.13-.07l-7 .07-.78 5.84 1.28.01c1.9.1 3.04.26 5 .3v-.12c1.35-.03.3.1 1.7.14l-.52-.14 2.67-.03-.43.03c.93 0 1.97-.04 1.96-.1.16.07-.07.12 1.13.12.03-.17 1.77-.18 3.4-.2-.04.02.6.04.15.07 3.55-.22 5.56.17 9-.06l-.04.02c2.73.12 3.83-.07 6.85.03l-.12-.1c1.4.03 3.02.02 4.57-.04l-.2.03 1.08-.01-.04.02c.44-.03 1.45.01 2.34-.05l-.04.02c.6.04 1.3.01 1.9-.02l.67.07c1.73-.1 4.32.02 5.8-.1l9.6-.04c6.62-.07 8.3.1 14.7.14l10.5-.18h2.22c-.01.02 0 .02 0 .02h0l-.01-.1-.04-.35-.15-1.5s-.3-2.65-.32-3.92c-2.7.27-13.68.25-13.68.25zm14.77 3.54l-.5-3.88c-.04.02-.14.05-.28.07l.02.07.5 2.3.27 1.45z"/><path d="M273.8 201.02c.18.03.28.06.33.08l-.02-.17h-.34c.01.04.02.06.03.1z"/><path d="M273.18 200.94l.37.05v-.05h-.37zm-41.03-61.67c-.96 1.5-1.34 1.82-2.23 3.43l-1.35 2.32c-.1.42-.58.97-.74 1.44l-.16.12c-.06.16-.14.34-.25.46l-.01-.02c-.08.24-.25.46-.3.58v-.02l-.15.26v-.06c-.18.4-.4.8-.63 1.1h.1c-.52.66-.55 1-1.06 1.58l-.01-.02c-.34.93-.95 1.18-1.33 2.12.05-.12-.07.02-.08 0-.24.4-.5.8-.36.9-.2.27-.2.2-.28.2.06.04-.07.3-.22.5l.04-.1-.4.63.2-.04c-.26.3-.2-.02-.4.3l.1.06c-.33.43-.66.6-1.04.97-1.3 1.76-2.46 3.83-3.85 5.34l-.12.02c-.13-.05-.2.56-.33.56l-.1.22c-.06.04-.16.14-.12.02-.14.17-.12.2-.2.34l-.2.14c-.58.65-.9 1.33-1.5 2.02-.8.76-1.96 2.47-2.64 3.44-.9 1.42-2.53 2.6-3.46 4.03-.05.03-.1.17-.1.18l-1.03 1.18-1.93 2.38c-.7.95-.8 1.48 1.5-.34v.05c.62-.6.98-1 1.26-1.54.2.04.47-.52.64-.64v.02c.24-.5.78-.75 1.02-1.22 0 .02.03.06-.04.15.22-.3.5-.7.6-.66.55-.7 1.36-1.6 1.6-2.15v.05c.12-.32.25-.33.43-.64.02-.01.04-.02.05-.02.14-.34.63-.8.77-1.05l.06.03.42-.55-.17.2c-.1-.2.42-.34.64-.8.3-.36.3-1 .67-1.32.08-.24-.02.25.15-.07.08.05-.05.17.06.14.18-.3.43-.38.63-.76l.07.03c.23-.52.7-.77.83-1.14.3-.5.4-.17.65-.73l.22-.12c.17-.2.01-.22.22-.42.04.05.25-.25.2-.1.46-.45.66-1.12 1.3-1.7.01-.22.32-.52.32-.68.06.01.5-.68.32-.23-.02.04-.06.1-.07.08l.03.1c.4-.3.45-.75.75-1.12-.1.1-.2.25-.17.12l.27-.35v.1l.42-.5-.12.03c.22-.24.4-.25.5-.6.05-.17-.26.2-.08-.1l1.06-1.23c-.1-.01-.01-.13.06-.26l.07.03c.25-.53.26-.08.52-.6v.07l-.04-.2c.17-.5.3-.14.45-.74-.12.2-.2 0-.01-.22l.02.1c.08-.14.08-.2.15-.27-.02.1.06.1.18-.1l-.01.18.13-.43c.25-.23.47-.73.63-.78 0 0 .45-.57.44-.77-.02.16.22-.16.22-.02.04-.2.3-.7.48-.83v.04c.5-.64.68-1.22 1.15-1.8-.1-.02.15-.32.01-.3.3-.7.9-1.06.75-1.47.16-.3.28-.3.38-.45l-.03.08.66-1.13c.1-.22-.02-.34.23-.68-.02.15.06 0 .15-.14-.04.1-.04.13.1-.02 0-.04.01-.08.03-.12h.02c.12-.24.08-.2.01-.1-.01-.01-.02-.01-.06.02.2-.2.4-.66.5-.63.4-.7.6-1.25.9-1.84.1-.03.05.12-.03.3l.23-.42c.07.05-.1.26-.16.4.4-.4.5-1.06.93-1.57v-.15l.03-.03c-.03-.02.01-.17.05-.26.1-.04.13.1.3-.2.2-.2.35-.65.5-.96-.1.15-.1.08-.1 0 .08-.14.2-.2.23-.3l.1.04c-.1.01.14-.42.14-.5.1-.04-.08.25-.06.3l.5-.85c.12-.34-.1.01-.1-.18.14-.27.24-.57.48-.84l-.13.05c.24-.53.43-.82.7-1.1 1.65-4.05-.33-1.26-.33-1.26-1.05 1.37-1.3 2.24-2.28 4zm27.45-12.9c.24 1.13.15 1.47.5 2.6.12.56.3 1.14.46 1.68.2.23.18.7.36 1l-.04.14c.06.1.12.2.1.33h-.02c.1.14.1.33.15.4h-.02l.06.2-.04-.03c.12.26.2.54.23.8l.08-.04c.04.55.26.7.27 1.2h-.02c.37.55.08 1 .45 1.57-.05-.07-.04.04-.06.04.1.28.18.58.35.55.05.2-.01.18-.07.23.07-.02.15.16.2.32l-.05-.07.14.46.1-.13c.02.26-.15.1-.06.33l.1-.03c.06.35-.06.6-.06.95.3 1.4.95 2.8 1.07 4.14l-.07.08c-.12.06.27.3.17.4l.1.14c-.01.05-.01.14-.06.07.03.14.05.14.1.23l-.04.17c.07.56.34 1 .45 1.57.01.73.48 2 .75 2.72.45 1 .25 2.35.73 3.38-.01.04.05.12.07.12l.23 1s1.13 4.8 1.27.9h.03c-.07-.56-.14-.9-.37-1.24.15-.1-.1-.45-.07-.6v.01c-.2-.3-.06-.7-.25-1 .02.01.06 0 .08.08-.08-.23-.2-.53-.1-.57-.16-.55-.3-1.33-.55-1.64l.03.02c-.16-.18-.08-.26-.2-.47.01-.02.01-.03.02-.03-.16-.2-.17-.64-.26-.8l.06-.03-.12-.43.03.17c-.2-.01.03-.36-.16-.65-.05-.3-.52-.5-.5-.84-.12-.13.17.1.05-.1.1-.03.08.1.14.01-.1-.2.01-.38-.12-.63l.07-.03c-.22-.3-.07-.68-.25-.88-.15-.34.16-.3-.08-.63l.06-.17c-.02-.16-.15-.08-.14-.27.06 0-.01-.24.08-.15 0-.42-.34-.78-.3-1.35-.15-.08-.14-.37-.25-.43.05-.03-.12-.53.06-.26.02.02.03.07 0 .07l.08.02c.06-.33-.2-.53-.26-.83 0 .1.03.2-.04.14l-.06-.28.07.04-.07-.42-.06.08c-.01-.2.1-.3-.06-.5-.08-.1-.05.22-.13.01l-.1-1.05c-.08.05-.1-.04-.14-.13l.07-.03c-.2-.34.13-.17-.04-.52l.06.02-.18-.06c-.22-.3.1-.2-.18-.53.05.14-.14.1-.16-.08l.08.03c-.04-.1-.08-.12-.08-.2.05.05.1.01.06-.14l.1.07-.2-.24c.02-.23-.15-.54-.08-.65 0 0-.06-.46-.2-.54.1.07.05-.18.15-.13-.1-.1-.25-.43-.2-.6l.02.02c-.04-.53-.33-.85-.34-1.33-.08.04-.1-.2-.2-.13-.22-.45 0-.92-.37-1-.07-.2.01-.28 0-.4l.03.05-.23-.82c-.07-.14-.23-.13-.26-.4.08.07.04-.04.02-.14.03.06.05.08.06-.07-.02-.01-.04-.04-.06-.06l.01-.01c-.06-.16-.08-.13-.06-.05-.01 0-.02.01-.03.04.04-.2-.13-.48-.03-.53-.15-.5-.35-.83-.5-1.24.04-.06.12.03.17.14l-.1-.3c.08-.02.1.16.13.25.04-.4-.3-.7-.3-1.14l-.08-.07v-.03c-.03.01-.1-.07-.13-.13.05-.08.16-.03.1-.24.03-.18-.15-.45-.24-.66.02.12-.03.1-.07.05-.03-.1.03-.18-.02-.25l.1-.03c-.08.06-.16-.25-.2-.27.05-.08.1.15.16.16l-.17-.62c-.12-.2-.08.06-.18-.02-.07-.2-.18-.36-.18-.6l-.06.1c-.15-.35-.2-.57-.18-.84-1.34-2.56-1.05-.35-1.05-.35.14 1.1.52 1.6.9 2.86zm-93.95 26.93l-.15-.23c.6.56 1.2.95 1.77 1.4.36.18-.38-.44.3.02l1.8 1.43c-.1-.02-.73-.53-.6-.34.13.06.83.78.77.62l.17.1c.25.16.37.35.67.6.16.1.3.15-.03-.12l2 1.5c.6.47.36.4.48.6.18.13.48.32.5.3l.06.07.3.15c1.12 1.06 2.37 1.73 3.3 2.65-.27-.2-.74-.62-.8-.56l.87.68c-.36-.27-.68-.46-.58-.3l3.8 2.84c-.01.13.94.8 1.4 1.26-.06-.07-.07-.1-.05-.1-.22-.2-.3-.27.2.1-.01 0 0 .01 0 .02l.24.14c.35.34.28.3.1.17.3.23.6.48.32.33.75.65.92.58 1.37.9l2.38 1.9-.16-.1c.3.27.36.44 1 .93.7.13 1.62 1.3 3.06 2.32-.1-.23.57.37.56.26 1.25 1.15 2.43 1.83 3.84 3.08l-.08-.05c.35.4 1.38 1.14 1.76 1.35-.25-.1.44.5.14.34.37.15 1.63 1.24 1.63 1.24.18.28 1.2.98 1.76 1.52l.87.53-.33-.15c.42.32.46.44.27.33a2.19 2.19 0 0 0 .25.2l.14.1.12.08c-.03 0-.04.03-.1.01.26.25.3.05.2-.02h.1c.04-.1.06-.07.1-.08 0 .04.18-.16.44-.6l.1-.37-.03.13c.76-1.1.44-.27 1.2-1.4l.08.01c.2-.3.42-.56.27-.52l.84-1.02.22-.26.1-.12.03-.03.13-.12c-.1-.1-.06-.1-.4-.4-.63-.47.2.24-.14.05-.72-.44-.85-.7-1.4-1.2l.12.2-1.16-.98.2.08-.8-.65c-.26-.14.08.12.32.35-.84-.7-1.7-1.1-2.47-1.9l.15.03c-.02.01.1.12.2.17.93.6-.6-.56-.6-.64-.3-.13-1.02-.8-1.43-.96-1.4-1.35-2.75-2.12-3.85-3.12.34.2-.35-.34-.28-.36-.48-.45-.44-.23-.9-.6l-.35-.4c-1.17-.75-.65-.7-1.72-1.48-.75-.43-1.5-1.33-2.57-2.02l.02-.08c-.8-.57-1.12-1-1.77-1.46-.12-.2.18.1.22 0-.67-.46.26.01-.2-.27-.83-.78-1.97-1.17-2.8-1.88-1-.64-1.6-1.5-1.87-1.5l.46.4-1.27-1v-.08l-2.4-1.84c.01 0-.03-.04-.06-.08-.68-.48-.8-.7-1.45-1.07l.1.03c-1.12-.7-3.3-2.5-4.92-3.77.01-.12-.92-.82-1.6-1.34.2.17.26.15.3.16-1-.64-1.84-1.64-2.87-2.3l.04.02c-.33-.34-1.53-1.1-1.6-1.37l-1.1-.77-.56-.43a1.51 1.51 0 0 1-.2-.17l-.94.93.04-.08-3.34 2.9-.4.44 2.06 1.66 1.8 1.25a27.79 27.79 0 0 0 2.36 1.89z"/></g></svg>