<svg xmlns="http://www.w3.org/2000/svg" viewBox="0 0 480 480" xmlns:v="https://vecta.io/nano"><path d="M311.9 79.35l-2.62 3.58c.5-2.8-.78-3.18-.78-3.18s-5.3 4.2-6.4 6c-1 1.8-3.1 4.6-2.6 6.5s.9 3.7.5 6.5c-.2 1.4-2 5.9-4.1 9.8-5.7 10.4-14.5 22.2-18.9 27.7-2.2 2.6-2.52 1.5-2.52 1.5l-5.98 33.5s16 .2 21.5-4.2c4.4-3.5 7.5-11.2 9.3-16.7 1.5-4.5 3.7-11.5 6.5-21.3 1.3-4.6 5.1-19.33 6.07-23.1l.73-1.1 3.9-6.2c1-1.6 4.4-19 4.4-19l-9-.3z" fill="#fff"/><path d="M192.54 206.54l-5.74.36-.32.03-.03-.38-.01-.08a.41.41 0 0 1 .02-.18l.04-.15c.01-.07.01-.1 0-.2.01-.07 0-.14.02-.2.07-.38.06-.6.06-.85-.01-.15-.06-.4-.08-.52-.06-.28-.1-.38-.16-.32s-.1.26-.14.58l-.02.12c-.01.01-.01.01-.02.05l-.06.23-.07.26c-.04.1-.03.1-.1.33-.03.08-.04.17-.07.27v.07c-.02 0-.02-.01-.08.18-.01.05-.03.12-.04.2l-.01.14v.08l-.06 1 1.14.07 5.76.2.44.01-.48-1.32z"/><g fill="#fff"><path d="M225.62 247.06l-2.62-3.52-1-1.1s-.9-.8-1.3-4-3.5-35.7-3.6-40.6c-.13-4 .87-11.13 2.52-16.8-5.06-1.16-7.67-1.94-14.07-3.45-8.5-1.82-12.6-2.38-19.22-4.08a58.8 58.8 0 0 0-.13 2.25c-.5 8.3 1.4 16.3 6 29.8s15.8 40.9 15.8 40.9.6 6.4 5.1 12.7 5.04 6.92 6.3 7.3c1.02.3 1.6-.8 1.6-.8s1.8 2.15 3.1 1.75c1.3-.3.6-2.14.6-2.14s1.06 1.25 2.14.2c.62-.6-.1-3.02-.84-5.63-.6-2.06-1.8-7.3-2.1-8.4-.2-1 1.2 1.3 2.94 2.94 1.1 1.3 3.16 1.46 1.76-1.34s-2.48-5.28-2.98-5.98zm91.34-171.04c-1.03-.3-3.76-.43-4.1 1.3-.24 1.33 1.6 2.78 3.84 3.28-.66-.01-1.25.01-1.6.02-1.3-.07-4.27.52-4.4 2.34-.1 1.26 1.57 2.16 3.6 2.42l-.82.12c-1.08.2-3.72.97-3.35 2.74.25 1.48 2.93 2.22 5.28 1.6 2.36-.53 3.97-1.5 3.68-3.48-.14-.68-.72-1-1.46-1.13 1.84-.36 2.94-1.05 3.1-2.75.1-1.03-.92-1.5-2.13-1.72 1.47-.08 2.32-.73 2.64-2.25.4-1.95-3.14-2.2-4.28-2.5z"/><path d="M312.96 90.38c-1.1.1-3.43.84-3.08 2.4.34 1.37 2.7 2.04 4.78 1.64 2.16-.52 2.98-1.4 2.7-3.18-.28-1.88-3.4-.97-4.4-.87z"/></g><path d="M266.32 126.9c.01-.02-.04-.1-.26-.33l.26.33z"/><path d="M321.42 77.4c-.58-1-2.3-1.34-3.44-1.53l2-6.46c.2-.63.06-1.33-.4-1.84-.43-.48-1.05-.7-1.65-.58l-4.4.74c-.57.17-1.24.6-1.35 1.1l-3.73 10.03c-.04-.01-.08-.03-.1-.04l-1.37 1.1-.86.7-1.62 1.42-1.53 1.47c-.5.53-.98 1.02-1.46 1.75-.7 1.26-1.52 2.47-2.2 4.1a7.15 7.15 0 0 0-.42 1.33c-.1.48-.16 1.03-.02 1.6l.6 2.78c.1.97.1 1.86.01 2.7l-.17 1.14-.32 1.05c-.48 1.37-1 2.57-1.55 3.76-1.08 2.4-2.3 4.72-4.45 8.38-2.1 3.46-4.43 7.1-6.68 10.4-.96 1.63-3 4.27-4.24 6.12l-.57.65c-.43.64-.95 1.38-1.45 1.97l.01-.05c-.65.95-1.46 1.96-1.8 2.42l.01-.05-.85 1.1.12-.2-.9 1.2c-.27.35-.53.6-.84.84.02-.1.03-.2.05-.28-.3-.28-.55-.54-.74-.75-.13-.15-.2-.25-.2-.3-1.8-1.72-3.22-2.84-4.76-4.25-.1-.23.3.05.76.45l-1.08-1c.1-.1.66.54 1 .84-1.1-1.4-2.74-2.38-4.07-3.97l-.38-.22-.08-.1c-.03.04-.42-.22-.65-.43-.13-.3.2-.18-.53-.9-.5-.65-1.68-1.56-2.47-2.26.4.4.22.33.01.2-.37-.35-.5-.64-.8-.88l.08-.15c.04.25-1.06-.82-1.24-.9-.13-.3.64.48.8.5l-2.2-2.13c-.86-.68.04.25-.43-.02-.7-.65-1.46-1.23-2.18-2.07l.15.34c-.3-.25-.55-.5-.8-.7-1.64-3.02-3.98-4.77-6.22-7.4-1.2-1.42-2.63-2.58-4-3.8-1.42-1.18-2.96-2.37-4.54-3.28-3.1-1.9-5.93-3.5-9.3-4.12l-1.27-.2c-.24-.33-3.08-.95-3.58-1.08-.53.03-1.07.05-1.58.1-.43-.03-1.37-.04-.6-.1-.77.02-1.14.04-1.47.08l-.07-.03c-.18-.27-2.75.1-3.12-.02-.38.05-.77.08-1.14.17-.32 0-1 .04-.44-.08-1.06.1-1.08.2-1.82.4-.38.04-.76.1-1.14.15-2.05.52-3.82 1.4-5.45 2.47-1.64 1.07-3.15 2.34-4.72 3.83-1.97 1.7-4.37 4.64-6.26 7.9-1.92 3.26-3.34 6.84-4.1 9.54-2.14 7.4-5.8 15.65-7.94 23.24-.1.23-.26.9-.23.9l-2.32 6.84s-7.7 22.85-4.53 16.52l-.4 1.15 5.1 1.16c-12.9-1.97-.15 1.28-.15 1.28l.8.2c-.1 1.4-.17 2.82-.2 4.27-.03 1.47.04 2.95.15 4.42.26 2.94.8 5.82 1.43 8.53l.9 3.3-.64 5.05-.38 3.55-.06.37.03-.08-.03.38c-.15.7-.28 1.16-.34 2.18-.02.58.25-1.05.1.14l-.3 1.74 5.3.12c-.14-.07.14-.08.52-.1l.58 1.62-.04-.06.67 1.82-.14-.3 2.88 7.66.01-.23c1.83 5.1 2.72 6.86 4.4 11.44l-.04-.05c2.47 5.65 3.44 9.12 6.03 14.93-.32-.72.1.33.04.28l.84 2c.07.17.15.35.14.35.03.17.05.34.08.5l.18.93c.26 1.15.53 1.9.62 1.9.6 2.07.48 1.7.5 2 .04-.02.2.42.47 1.04a35.02 35.02 0 0 0 1 2.2c-.12-.23-.25-.45-.36-.7a29.56 29.56 0 0 0 2.38 4.21c-.14-.3-.28-.57-.4-.87 1.38 2.15.2.66 1.63 2.62l.08-.1 2.57 3.72c.4.57.8 1.13 1.3 1.7a4.59 4.59 0 0 0 .94.84c.2.13.42.23.64.3.18.08.53.17.85.15.24-.02.47-.1.67-.2.1-.05.2-.1.28-.17l.08-.07c.03-.03.06-.06.08-.1.03-.01.06.06.1.08l.07.07.18.16c.16.14.33.28.5.42.36.26.75.5 1.25.67a2.03 2.03 0 0 0 1.68-.21 1.6 1.6 0 0 0 .59-.78c.1-.38.07-.34.08-.42 0-.08-.04-.2-.04-.24.06.06.13.1.2.13l.08.02c.13.02.27.01.4.01.27-.04.54-.12.74-.26.1-.06.2-.14.3-.22.12-.08.2-.22.3-.34.15-.28.2-.56.2-.77.04-.88-.15-1.58-.3-2.3-.34-1.43-.8-2.78-1.14-4.18l-1.07-4.15-.35-1.38c.72.86 1.47 1.7 2.43 2.5.17.1.35.2.57.3s.52.14.78.1c.54-.04.97-.5.98-1.06l-.01-.4c-.01-.12-.04-.2-.06-.3-.04-.2-.12-.37-.18-.56-.14-.35-.3-.68-.45-.97l-1.74-3.67c-.3-.6-.56-1.2-.93-1.83l-1.12-1.66-.27-.53c-.02-.1-.4-.6-.9-1.15-.52-.57-1.1-1.1-1.5-1.53l-.04-.04c-.06-.06-.2-.28-.2-.35-.23-.37-.4-.82-.56-1.28-.1-.4-.24-1.25-.06-.55-.26-1.32-.25-1.36-.4-2.35l-.08-1.5-1.6-16.04-1.03-12.3 4.15-.05 26.7.23 17.47-.07c.67-.05 1.46-.08 2.32-.1l3.17-.01h1.97c-.02-.2-.06-.43-.1-.64l-.36-2.4c-.14-.9-.3-1.8-.45-2.56l-.06-1.23c-.22-1.06-.45-2.32-.54-3.4l.04.06c-.33-1.6-.54-3.4-.7-4.2l.04.06-.3-1.95.1.33c-.5-2.78-.95-5.66-1.3-8.2l-.1.23c-.38-3.13-.73-5.1-1.07-7.16l.03-.01c.13-1.8.38-.6.54-2.4l-.12-.34c.02-1.46.32-.97.36-2.14.1 0 .2.01.3.01.53.02 1.08.02 1.7.02 2.55-.1 5.15-.33 7.75-.74 2.6-.42 5.2-1 7.65-2.03 1.2-.56 2.43-1.23 3.38-2.17.97-.9 1.8-1.92 2.55-2.95 1.48-2.1 2.63-4.3 3.66-6.45l.25-.35c.2-.12.84-2.5 1.07-2.8l.33-1.06c.13-.28.38-.9.2-.36.34-.96.34-1 .53-1.7l.4-1.02c1.23-3.82 2.08-7.13 3.34-11.16.82-2.4 1.9-5.9 2.95-9.46l2.48-9.92c.9-3.76 2.03-7.8 3.17-11.83l.43-1.52c.03-.1 0-.03.1-.17l.23-.33.45-.65 1.7-2.64 1.65-2.62c.26-.45.54-.8.8-1.44a18.87 18.87 0 0 0 .43-1.49 9.4 9.4 0 0 0 .15-.55c.04-.2.07-.36.06-.36.6-2.35 1.14-4.7 1.65-7.07l.8-4.66c.4-.45.7-1.04.76-1.83.04-.4-.05-.73-.25-1.04l.26-1.4c.3-.4.44-.87.52-1.34.16-.5.02-.9-.22-1.27zm-103.34 107.9l.02-.25c-.32 2.04-.52 2.62-.82 4.9-.03.12-.06.28-.06.26-.1 1.12-.3 2.75-.42 4.33-.12 1.58-.14 3.14-.06 4.05l-.06.12c.08 1.5.2 2.97.3 4.45l-.1-1.66c.22.56.13 3.37.53 6.58.23 3 .9 6.07 1.1 9.2.22 1.48-.26-1.3.01.92-.1.08-.15-1.03-.18-.45.25 2.18.23 3.6.55 6.3l-.06.12c.47 3.5.53 6.65.9 8.98.44 3.63-.03 2.43.6 6.24.05.5.13 1 .25 1.52.18.6.34.92.48 1.17.07.12.14.22.22.34.1.12.14.2.37.43l-.04-.04c.16.17.38.4.68.76-.06-.02.32.4.58.74.27.34.46.6.1.22.6.78 1.17 1.6 1.77 2.48.14.2.33.46.43.62a13 13 0 0 1 .37.66l.73 1.45 1.54 3.13c.28.55.53 1.08.6 1.54 0 .08-.01.17-.08.2-.04.02-.08.01-.1.01a1.5 1.5 0 0 1-.17-.07c-.2-.05-.47-.2-.7-.45-.36-.34-.65-.6-.96-.96-.6-.66-1.17-1.36-1.5-1.67-.01-.02-.07-.1-.17-.22-.06-.06-.12-.14-.2-.22-.04-.04-.08-.1-.15-.15-.03-.02-.07-.06-.13-.1-.02-.01-.1-.05-.15-.07-.01-.01-.1-.03-.17-.03-.1 0-.12-.01-.24.04a.65.65 0 0 0-.25.2c-.03.05-.06.1-.08.16-.04.12-.03.12-.03.2 0 .1 0 .14.01.2.01.1.04.2.05.25l.1.38.18.74c.22.93.34 1.48-.08.02-.07-.25-.18-.7-.15-.67l-.16-.33c.6 3 1.42 5.38 2.14 8.33-.2-.88-.5-2.04-.25-1.27.2.92.48 1.82.72 2.7l-.22-.54c.18.67.36 1.34.5 2 .14.64.26 1.36.2 1.82a2.15 2.15 0 0 0 .09-.43c.01.22-.01.44-.05.53-.03.07-.03.05-.17.15-.1.05-.2.1-.27.1-.04 0-.08 0-.12-.01-.1.02-.34-.17-.52-.3a4.85 4.85 0 0 1-.26.12l-4.1-7.54c-.13-.24-.44-.33-.68-.2s-.33.44-.2.68l4.12 7.58a1.95 1.95 0 0 1-.15.11c.06.2.1.42.1.6v.23l-.01.08c-.03.1-.02.1.01.08.01-.02.04-.03.05-.08.01-.02.02-.04.03-.07.01-.07.01-.14.02-.2 0-.3-.07-.6-.04-.5.02.05.04.17.08.42 0 .1 0 .25-.01.32-.01.06-.03.12-.06.17-.06.1-.16.15-.37.2-.17.03-.38-.01-.63-.12-.24-.1-.5-.3-.75-.5a3.8 3.8 0 0 1-.37-.33l-.25-.25c-.05-.05-.1-.12-.18-.2 0-.01 0-.02-.01-.03l-3.98-6.82c-.14-.24-.45-.32-.68-.18-.24.14-.32.45-.18.68l3.66 6.26c-.05.01-.08.02-.14.03-.07.08-.13.17-.2.23l-.1.08a1.01 1.01 0 0 1-.15.07c-.1.03-.18.03-.3 0-.35-.1-.63-.25-.9-.5-.57-.5-1.1-1.22-1.6-1.88.13.3-.44-.43-1.02-1.2l-.01-.13c-2.25-2.93-.7-1.2-2.85-4.13l.22.23-.66-.7c-.92-1.34-1.06-1.77-1.27-2.2-.17-.46-.43-.9-1.2-2.55.57 1.3.08.7-.5-.97l.22.4c-.35-.9-.47-1.22-.65-1.84.22.54.17.27-.2-1.1.1.3.23.6.34.9-.3-.85-.55-1.72-.76-2.6-.04-.26-.07-.53-.1-.82v-.2c-.01-.1-.02-.25-.08-.36l-.18-.45-.7-1.75c-.46-1.13-.86-2.12-.98-2.55 0 0-1.67-4.28-2.16-5.22.4.83-.5-1.53-.16-.9-.5-1.08-1.87-4.32-2.3-5.66l.1.24c-1.83-4.87-3.35-8.24-4.92-12.64-.01.23-.83-2.1-.72-1.48-1.8-4.48-2.83-8.33-3.7-9.87-.73-2.07-.76-2.5-1.1-3.57l.18.5c-1.3-3.9-1.66-5.04-2.5-7.97-.44-1.46-.67-1.64-1.28-4.3.27.84-.01-.24-.22-1.23.15.63.22.82-.03-.5-.06-.18-.13-.46-.2-.73 0-.01 0-.06.01-.04-.35-1.66-.3-1.37-.17-.6-.02-.04-.02.03.01.27-.3-1.74-.77-4.85-.65-5.07-.26-2.53-.32-4.7-.24-6.8.02-.77.05-1.53.1-2.28 4.88 1.24 8.44 1.88 13.53 2.9l.84.17c.23.05.47.1.7.14l1.2.24c.2.04.42.1.63.13l1.97.42 1.33.32.36.1.87.2.36.1.9.22c.07.02.14.03.2.05l6.62 1.66.75.18c.04.01.1.02.14.03l.75.18 1.26.3c-.5 1.7-.8 3.24-1 4.36zm92.42-93.35c.44-.65 1.7-1.07 2.4-1.14l.7-.07c1.48-.25 3.08-.4 3.27.58.23 1.28-.1 2.12-2.35 2.64-1.37.34-2.8.08-3.66-.44a.96.96 0 0 1-.58-.75c-.03-.3.04-.6.22-.82zm6.1 4.9c-.17.57-.38 1.18-.6 1.58a24.8 24.8 0 0 0-.92 1.53c.04-.08.02-.15.3-.6-.88 1.45-2.1 3.43-2.24 3.48-.54.88-1.1 1.77-1.78 2.78-.08.1-.1.22-.14.34l-.05.2-.33 1.26-.43 1.65c-.56 2.17-1.06 4.18-1.3 5.45l.02-.18c-.27 1.46-.47 1.86-.84 3.47-.04.08-.07.2-.07.18-.3 1.6-1.18 4.56-1.47 5.83l-.1.06-.8 3.1.32-1.16c.05.44-.67 2.33-1.26 4.58-.66 2.08-.92 4.33-1.67 6.47-.23 1.06.14-.95-.26.6-.1.02.16-.74-.03-.36-.42 1.53-.85 2.46-1.36 4.34l-.1.05c-.6 2.48-1.5 4.57-1.87 6.23-.72 2.53-.7 1.63-1.44 4.25l-.45.96c-.42 1.08-.17.83-.7 2-.03-.1-.67 1.5-.43.77-.6 1.32-1.2 2.68-1.9 4.1s-1.58 2.9-2.8 4.32c-.4.74-1.76 2.04-2.18 2.46-.06.02-.8.54-1.38.86-.6.28-.95.44-.04-.08.17-.08.42-.25.4-.22l.16-.2c-1.8.96-3.44 1.67-5.52 2.18.63-.1 1.44-.36.9-.15-.64.16-1.3.3-1.95.45.13-.04.26-.1.4-.15-.97.2-1.95.37-2.94.5l.42.01c-1.45.18-1.98.12-3.6.4-.74.13 1.4-.03-.15.14-.98.07-2.2.14-3.5.17l-1.97.05h-.77c.02-.24.02-.4.08-.62.02.3.15.18.25-.53l.07.5.01-1.36c.3-1 .42-2.66.65-3.05 0 0 .45-2.2.36-2.73.04.46.3-.75.36-.38-.03-.6.15-2.3.4-2.95v.13c.56-2.47.53-4.3 1.08-6.52-.16.08.12-1.1-.1-.83.2-2.35 1.08-4.17.66-5.1.15-1.06.34-1.23.46-1.77l-.01.26.64-4.02c.07-.74-.17-.9.1-2.2.03.44.1-.1.2-.6-.04.32-.01.42.16-.2-.02-.1-.01-.24-.01-.37.01 0 .02-.03.03-.01.01-.1.02-.15.03-.22.57-.3 1.1-.67 1.52-1.1.6-.62 1-1.17 1.44-1.7.83-1.02 1.46-1.84 1.7-2.45.94-1.28 1.2-1.45 1.7-2.1l-.2.3 3.55-4.9c.6-.92.6-1.15 1.74-2.75-.3.56.14-.1.56-.72-.26.4-.32.53.26-.25.06-.12.17-.3.27-.48.01 0 .03-.03.03-.01.68-1.03.54-.87.2-.4.01-.03-.03 0-.14.14.8-1 1.98-2.97 2.16-3.04 2-3.13 3.3-5.45 4.8-8.16.22-.28-.1.38-.53 1.17.37-.63.72-1.27 1.07-1.92.06.05-.57 1.13-.9 1.72 1.44-2.2 2.54-4.78 3.85-7.55l.2-.6.08-.17c-.03 0 .2-.66.34-1.1.22-.38.15.1.67-1.35a10.16 10.16 0 0 0 .35-1.03c.05-.2.1-.42.14-.66l.07-.68c.08-.92.06-1.9-.03-2.7.04.87-.02.6-.06.22-.06-.77-.06-1.23-.2-1.8l.06-.07c-.04-.04-.14-.45-.27-.9-.08-.27-.16-.56-.22-.8a2.17 2.17 0 0 1-.07-.44c.05-.2.02.08.1.37a8.29 8.29 0 0 0 .26.86c-.08-.36-.2-.7-.22-.9-.05-.2-.03-.38-.04-.52a3.61 3.61 0 0 1 .09-.63c.1-.33.13-.7.8-2 .7-1.43-.22.2.07-.5l1.06-1.87c.35-.67.74-1.24 1.34-1.8l-.4.32c1.77-2 3.06-3 4.48-4.1l.8-.7c.24.6.67 2.1-.04 4.37-.76 2.44-4.18 5.46-4.2 5.5l.42.48-.98 2.7c-.2.58-.13 1.2.2 1.73a1.94 1.94 0 0 0 1.52.85l4.24.15a3.58 3.58 0 0 0 2.51-1.26 6.88 6.88 0 0 0 2.23.16c.3-.03.5-.05.8.02.98-.22 2.07-.57 2.64-1.43-.2 1.14-.5 2.27-.83 3.36zm1.87-7.53c-.1.15-.23.68-.37 1.3l-.28 1.33c-.01-.2-.01-.4-.05-.63a1.68 1.68 0 0 0-1.13-1.33c.63-.22 1.34-.54 1.9-1.03a3.47 3.47 0 0 0-.07.35zm-3.1.25c-1.47.35-3.1.1-4.07-.5-.32-.17-.65-.44-.7-.84s.04-.6.2-.93c.53-.76 2-1.2 2.8-1.28l.7-.07c.2-.07.4-.1.63-.15.4.01.78.01 1.16-.03.32-.03.64-.07.96-.12.53.02 1 .1 1.37.3.22.18.34.37.36.57.1 1-.08 2.33-3.42 3.06zm3.5-4.27c-.02-.02-.06-.03-.08-.04.06-.02.1-.04.16-.07.02.07.03.14.04.22-.04-.03-.07-.07-.12-.1zm-1.67-.48c-.9-.06-1.85.05-2.62.17-1.27-.1-2.43-.48-3.07-1.07-.23-.28-.36-.57-.4-.87.04-1.6 2.82-2 4.03-1.9l.5-.05h1.25c.1.01.17.03.26.05l1.08.05c.8.1 1.55.3 1.9.66.12.2.14.4.16.6-.14 1.3-1 2.02-3.1 2.38zm2.96-3.98a1.59 1.59 0 0 0 .22-.13l.03.28c-.08-.05-.16-.1-.25-.15zm.54-2.45c-.28 1.35-1 1.9-2.46 1.92-.44-.06-.9-.1-1.32-.1-1.42-.2-2.7-.93-3.35-1.82-.13-.3-.37-.67-.3-1.07.07-.3.25-.53.53-.76.3-.13.78-.28 1.17-.32.7-.07 1.4.06 1.92.1.2-.02.4.06.72.13.93.2 2.56.45 3.03 1.2.12.2.14.4.07.7z"/><g fill="#fff"><path d="M234.1 168.45l.06-.1c-.01 0-.03.03-.06.1zm6.03-30.65v-.03.03zm-3.9 26.2h0v.04-.04z"/><path d="M234.84 170.14c.38-1.6.63-2 .92-3.7l.47-2.44c-.05-.4.2-1.03.2-1.5l.1-.16c0-.16.01-.34.08-.5l.02.01c-.01-.24.08-.5.08-.6l.02.01.05-.28v.05a6.07 6.07 0 0 1 .21-1.17l-.1.01c.26-.75.14-1.06.4-1.73v.01c-.04-.92.44-1.35.42-2.3 0 .12.05-.04.07-.03.06-.42.14-.87-.02-.9.07-.3.1-.23.18-.26-.07-.01-.05-.28 0-.52v.1l.12-.68-.17.1c.12-.35.2-.05.23-.4l-.12-.02c.13-.5.36-.74.55-1.2l1.2-6.02.1-.07c.13-.01-.1-.55.04-.6v-.23c.03-.06.08-.18.1-.07.04-.2.02-.2.01-.36l.12-.2c.2-.8.17-1.5.34-2.32.33-.98.47-2.9.54-4 .03-1.56.77-3.3.73-4.9.02-.05 0-.2-.02-.2l.18-1.45s.2-1.76.17-2.86c-.04-1.1-.24-1.53-1 1.07l-.02-.04c-.14.78-.2 1.28-.13 1.84-.18.07-.1.65-.16.82l-.01-.02c.08.5-.22.98-.16 1.45-.01-.02-.06-.04-.05-.14-.02.34-.03.8-.14.82-.07.8-.26 1.93-.18 2.46v-.04c.07.3-.03.38-.03.72-.02.02-.03.04-.03.03.06.33-.12.94-.1 1.2l-.07.01-.08.64.05-.24c.17.1-.2.46-.14.94-.1.43.24.93.08 1.37.05.23-.1-.2-.1.12-.1-.01-.03-.16-.12-.1-.01.32-.18.5-.18.9h-.08c.05.53-.26.93-.2 1.3-.03.53-.28.3-.23.87l-.14.2c-.06.23.1.2-.01.43-.06-.03-.1.3-.14.15-.2.56-.08 1.2-.4 1.92.1.2-.06.56 0 .7-.06.01-.17.76-.2.3 0-.04.01-.1.03-.1l-.06-.07c-.22.4-.1.8-.2 1.23.05-.12.08-.3.1-.17l-.1.4-.04-.1-.16.6.1-.07c-.1.28-.25.36-.2.7.03.16.16-.25.12.06l-.46 1.44c.1-.03.06.1.05.25h-.08c-.01.55-.2.16-.23.7l-.04-.06.12.17c.05.5-.2.22-.12.8.03-.2.18-.06.1.2l-.06-.08c-.01.14 0 .2-.03.3-.02-.1-.1-.07-.12.14l-.06-.16.05.42c-.14.3-.15.8-.27.9 0 0-.2.64-.1.8-.04-.15-.14.2-.2.1.04.18 0 .7-.12.88v-.04c-.24.72-.15 1.3-.4 1.93.1-.01-.03.33.1.26-.04.7-.48 1.2-.2 1.52-.05.32-.16.35-.2.5v-.08l-.23 1.2c-.01.22.14.3.02.67-.04-.14-.06.02-.1.17.01-.1-.01-.13-.1.05.01.03.02.07.02.12-.01 0-.01.01-.02 0-.03.25 0 .2.03.1.01.01.02 0 .05-.03-.13.23-.14.7-.25.7-.13.73-.13 1.28-.2 1.9-.07.06-.1-.1-.07-.28l-.07.43c-.08-.02.01-.26.02-.4-.24.5-.1 1.08-.34 1.66l.04.14-.02.03c.03.01.05.15.04.24-.1.07-.16-.04-.22.26-.12.22-.1.67-.14 1 .05-.16.07-.1.08-.03-.03.15-.12.22-.1.34l-.1-.01c.1-.04.01.4.04.47-.1.07-.01-.24-.05-.3l-.18.9c0 .33.1-.04.15.13-.04.28-.03.57-.16.88l.1-.08c-.05.54-.12.85-.28 1.2-.16 4.07.74 1.02.74 1.02.47-1.4.4-2.26.72-4.12zm24.6-44.7l-.01.1c.02 0 .02-.03.01-.1zm5.2 20.85l.01.02c0-.02-.01-.02-.01-.02zm-5.45-17.36h0l-.02-.02z"/><path d="M258.12 124.76c.27 1.1.2 1.44.57 2.55l.5 1.63c.2.22.2.7.37.96l-.04.13c.06.1.12.2.1.32h-.02c.1.14.1.32.16.4h-.02l.06.18-.04-.02c.13.25.2.53.24.77l.08-.04c.04.54.27.7.28 1.18h-.02c.38.53.1.97.46 1.53-.05-.07-.04.04-.06.04.1.27.2.57.35.53.05.2-.01.18-.07.22.07-.02.15.15.2.3l-.05-.07.14.45.1-.12c.02.25-.15.1-.06.33l.1-.03c.06.34-.06.58-.06.93.3 1.37.93 2.76 1.02 4.07l-.07.08c-.12.05.27.3.16.38l.1.13c-.01.05-.02.14-.06.07.03.14.05.14.1.23l-.04.16c.06.55.32.97.4 1.55-.01.72.4 1.96.65 2.7.4 1 .15 2.3.56 3.34-.01.04.05.12.06.12l.16.98s.2 1.2.44 1.9c.23.7.54.97.76-.94h.03c-.03-.55-.07-.9-.28-1.24.16-.1-.06-.45-.03-.58h.02c-.2-.3-.02-.7-.2-1 .02.01.06.01.08.08-.07-.23-.17-.53-.07-.57-.13-.54-.24-1.32-.47-1.64l.03.02c-.15-.18-.07-.26-.17-.47.01-.01.01-.03.02-.03-.15-.2-.15-.63-.23-.8l.06-.03-.1-.43.02.17c-.2-.02.04-.35-.14-.64-.04-.3-.5-.5-.48-.84-.12-.13.16.1.05-.1.1-.03.08.1.14.02-.1-.2.02-.37-.1-.62l.07-.03c-.2-.3-.05-.67-.23-.87-.14-.34.16-.3-.06-.62l.07-.17c-.02-.16-.15-.1-.14-.27.06 0 0-.23.08-.14 0-.42-.32-.77-.28-1.33-.15-.08-.14-.36-.25-.43.05-.03-.12-.53.07-.26.02.02.02.07 0 .07l.08.02c.06-.33-.2-.52-.25-.82 0 .1.03.2-.04.14l-.06-.27.07.04-.06-.4-.06.07c-.01-.2.1-.3-.06-.5-.08-.1-.05.2-.13.01-.01-.28-.04-.7-.1-1.04-.08.05-.1-.04-.14-.13l.07-.03c-.2-.33.13-.17-.04-.5l.06.02-.18-.06c-.22-.3.1-.2-.18-.52.05.14-.14.1-.16-.07l.08.03c-.04-.1-.08-.12-.08-.18.05.05.1 0 .06-.13l.1.07-.2-.23c.02-.23-.16-.53-.08-.64 0 0-.07-.46-.2-.53.1.07.05-.18.15-.13-.1-.1-.26-.42-.2-.57h.02c-.05-.52-.34-.83-.36-1.3-.08.04-.1-.2-.2-.12-.23-.44-.01-.9-.4-.98-.07-.2.01-.27 0-.4l.03.05-.24-.8c-.07-.14-.23-.12-.27-.4.08.07.04-.04.02-.13.03.06.05.07.06-.07-.02-.01-.04-.04-.06-.06v-.01c-.07-.16-.08-.12-.07-.05-.01 0-.02.01-.03.04.03-.2-.14-.47-.04-.52-.16-.5-.37-.8-.52-1.2.04-.06.12.02.17.13l-.1-.3c.08-.02.1.15.13.24.03-.38-.32-.68-.32-1.12l-.08-.07v-.03c-.03.01-.1-.07-.13-.13.05-.08.16-.04.1-.24.02-.18-.16-.44-.25-.64.02.12-.03.1-.06.05-.03-.1.02-.18-.03-.25l.1-.04c-.07.06-.17-.24-.2-.26.05-.08.1.14.16.15l-.18-.6c-.13-.2-.07.06-.18-.02-.07-.18-.2-.35-.2-.58l-.06.1c-.16-.34-.22-.55-.2-.82-1.42-2.45-1.06-.3-1.06-.3.15 1.12.54 1.6.95 2.82zm-68.32 74.8l-1.2-.02-1.1 6.72 4.52.01a322.31 322.31 0 0 1-2.22-6.71zm82.2 6.15l-.07-.35-.27-1.5-.6-3.9c-2.66.26-13.57.22-13.57.22l-5.55-.02c0 .01-.5.06-.7.04-6.07.2-12.96-.3-18.9-.12-4.1.08-10.56.22-14.5.07-.01-.2.23 3.2.44 5.8.6 0 .64 0 1.42.03l-.12-.1c1.4.03 3 .02 4.53-.04l-.18.03 1.07-.01-.04.02c.44-.03 1.44.01 2.32-.05l-.04.02c.6.04 1.3.01 1.88-.02l.67.07c1.72-.1 4.28.02 5.73-.1l9.5-.04c6.55-.07 8.23.1 14.55.14l7.32-.13 3.03-.05h1.52.58c-.02-.01-.02-.01-.02-.02zm-54.33.4l.04.44-.04-.44zm53.86-72.4l-1.35-1.3c-.02.1-.02.14-.02.14l-.4 2.3c.02 0 .01.3-.03.4-.35 3.38-1.5 7.1-1.88 10.4-.3 2.34-.85 6.4-1.38 8.5-.1.55-.18 1.06-.25 1.56 1.25 5.97 1.23 9.63 2.44 15.4a16.74 16.74 0 0 1 .28-1.49l-.1.05a25.7 25.7 0 0 0 .39-2.5l.01.1.1-.6.02.02c.01-.25.14-.8.17-1.3l.02.02c.1-.32.13-.7.15-1.04l.13-.35c.05-.96.42-2.35.43-3.17l.84-5.25c.54-3.62.86-4.52 1.5-8 .6-3.97.66-5.73 1.4-9.03 0 0 .33-1.6.58-2.22a6.54 6.54 0 0 1-.51-.41c-.7-.57-1.64-1.44-2.5-2.27zm-84.06 38.55l-.23-.14c.8.24 1.48.33 2.18.46.4 0-.53-.22.27-.12l2.22.5c-.1.03-.88-.16-.7-.04.14-.01 1.25.24 1.13.12l.01.1c.3.03.5.15.86.23.18.02.32.01-.08-.1l2.43.48c.74.16.5.2.7.32.22.04.57.07.57.04l.1.03.32.01c1.46.45 2.86.5 4.1.92-.33-.06-.93-.23-.95-.15l1.07.22c-.44-.08-.8-.1-.65-.02l4.63.87c.05.12 1.18.3 1.8.5-.08-.04-.1-.05-.1-.06-.28-.07-.38-.1.23 0-.01 0 .01.01.01.02l.27.02c.46.15.4.15.15.1.36.08.75.16.43.15.95.26 1.07.12 1.62.2l2.95.64-.2-.02c.4.1.52.24 1.3.4.7-.2 2 .45 3.73.73-.2-.16.67.1.6-.02 1.62.47 2.96.57 4.77 1.07h-.1c.48.2 1.72.4 2.16.43-.27.02.6.25.27.24.4-.02 2 .4 2 .4.3.17 1.5.34 2.23.6l1 .1-.36.01c.52.1.6.2.38.18.2.06.4.08.65.12-.01.02-.06.04-.12.05.4.12.3-.08.2-.1l.1-.04c-.01-.1.02-.07.06-.1.02-.04.02.02.05-.12.03-.13.05-.3.07-.55l-.08-.38.03.13c.2-1.32.28-.43.46-1.76h.08c.06-.34.13-.68.02-.58l.3-1.3.08-.32.04-.15.02-.04.07-.17-.14-.06c-.04-.01-.02-.02-.1-.04l-.24-.07c-.77-.15.28.13-.1.1-.84-.08-1.06-.26-1.77-.46l.2.12-1.46-.36.22-.01-1-.23c-.3-.01.13.07.44.17-1.06-.26-1.98-.25-3.03-.62l.14-.04c-.02.02.15.06.24.07 1.1.12-.77-.25-.8-.3-.33.02-1.26-.26-1.7-.23-1.85-.6-3.38-.68-4.78-1.1.38.02-.46-.15-.4-.2-.62-.2-.5-.02-1.06-.16l-.5-.2c-1.36-.16-.88-.34-2.17-.56-.85-.06-1.9-.53-3.17-.68v-.08c-.97-.15-1.43-.4-2.2-.53-.2-.12.2 0 .2-.1-.8-.1.24-.1-.3-.14-1.08-.33-2.26-.18-3.32-.44-1.16-.14-2.07-.65-2.32-.5l.58.14-1.57-.33-.03-.07-2.94-.6c.01 0-.05-.02-.1-.05-.82-.13-1-.26-1.75-.32l.1-.01c-1.3-.13-4.04-.8-6.02-1.2-.04-.1-1.18-.33-2-.5.26.06.3.01.34.01-1.16-.14-2.35-.65-3.56-.8h.05c-.44-.16-1.85-.3-2.02-.53l-1.35-.2-.7-.14-.27-.06-.12.32-.3.87v-.1l-1.75 4-.18.57 2.56.58 2.15.32 2.95.65z"/></g></svg>