<svg xmlns="http://www.w3.org/2000/svg" xmlns:xlink="http://www.w3.org/1999/xlink" viewBox="0 0 720 640" xmlns:v="https://vecta.io/nano"><g fill="#e8ecef"><path d="M567.85 484c35.44-45 56.6-101.78 56.6-163.5 0-146.05-118.4-264.44-264.44-264.44S95.56 174.45 95.56 320.5c0 61.72 21.15 118.5 56.6 163.5h415.7z"/><circle cx="360" cy="320.5" r="264.44" opacity="0"/></g><path d="M571.35 307.57l.9.58c0-.03-.23-.16-.9-.58zm-50.1 43.88l.16.2c-.06-.07-.1-.15-.16-.2zm153-63.5l-.6 1.27c.01-.01.06-.1.15-.3l.46-.98zm10 113.53c-3.77-6.47-13.2-12.4-28.46-8.72l-13.52 7.67c-2.92 2.6-5.74 5.88-8.4 9.9-10.2 15.46-12.45 33.15-12.53 45.4-1.62-.62-3.18-1.03-4.62-1.28.38-8.24.98-17.45 1.94-23 2.05-11.9 3.35-29.03 19.1-39.9s27.78-18 29.7-35.65-10.17-17.42-13.34-28.57c-3.18-11.15 5.03-20.87 14.4-31.07 9.4-10.2 14.33-34.22-8.83-42.6-6.75-2.44-17.83-2.1-26.48 2.9-1.24.7-4.23 3.1-5.8 4.95l-7.55 13.96c-3.95 10-10.42 17.27-20.38 20.62-10.77 3.62-15.36 11.46-16.8 19.83-1.54-1.83-3.47-3.42-5.84-4.75-8.27-4.65-12.4-5.68-17.05-20.16s-13.83-24.47-28.42-19.12c-15.5 5.68-8.8 21.2-5.17 33.08 2.95 9.7-2.7 14.93-6.28 24.1H315.27a2.95 2.95 0 0 0-2.95 2.95v11.64a2.95 2.95 0 0 0 2.95 2.95H324v7.66h-8.72a2.95 2.95 0 0 0-2.95 2.95v11.64a2.95 2.95 0 0 0 2.95 2.95H324v31.7h-14.4v2.8c0 5.36 2.32 9.76 7.33 10.27v3.45a2.95 2.95 0 0 0 2.95 2.95h3.57l-5.62 25.88a32.81 32.81 0 0 0-11.4-5.43c-7.97-2.03-16-.85-23.06 2.8l-6.3 4.1c-4.7 3.77-8.67 8.77-11.52 14.68-7.67-4.83-17.37-6.17-26.43-3.2.86-5.6.03-11.5-2.77-16.9-6.76-13-22.5-18.33-36-12.62 1.46-5.27 1.02-11.05-1.68-16.25a22.08 22.08 0 0 0-7.31-8.17V257.5h5.4a5.46 5.46 0 0 0 5.46-5.46v-2.24c0-2.34-1.48-4.34-3.55-5.1l10.96-44.46h4.85l2.1-8.37H159.8l2.1 8.37h4.85l10.96 44.46c-2.07.78-3.55 2.77-3.55 5.1v2.24a5.46 5.46 0 0 0 5.46 5.46h5.17v15.46l-.7 131.73c-2.54-.63-5.2-.82-7.86-.55-.86-1.94-2.1-3.8-3.83-5.52-11.05-11.06-8.5-18.34-7.56-25.1 1.68-12.2-4.22-20.5-15.45-23.48-9.97-2.64-13.6-7.7-16.97-13.9-.75-1.38-2.74-5.3-4.28-7.32l-10.72-6.73c-7.43-2.03-13-.72-16.54.83-17.6 7.7-15.3 24.25-7.46 31.7s10.78 12.8 7.1 21.72c-2.3 5.6-3.02 10.46-2.36 16.5-18.97-8.04-31.82.78-35.18 11.07-4.64 14.2.8 30.06 22.93 30.9 4.3.16 8.2.56 11.75 1.13-7.16 7.15-10.7 17.36-8.54 27.62a29.09 29.09 0 0 0 2.62 7.37c-4.52-.62-9.3.1-13.68 2.4a22.83 22.83 0 0 0-10.71 11.85H391.6l15.86-.53H635s5.95-3.67.65-14.7c4.6-8.37 13.85-21.9 28.4-29.16 18.86-9.38 27.8-26.25 20.18-39.32zm-352.98-54.86h187.68c1.3 3.04 3.3 5.47 5.18 7.66H331.27v-7.66zm0 25.2H529c-.26 5.3-.06 11.22 4.66 18.26v4.26c-.14-.1-.28-.23-.43-.35l.03-.27c-.01.01-.03.08-.03.27-6.14-4.98-20.7-13.9-43.06-10.1-14.65 2.5-22.35 11.25-26.4 19.64h-132.5v-31.7zm103.36 83.63s-13.74-4.58-25.77 4.58a24.73 24.73 0 0 0-6.2 6.9 41.58 41.58 0 0 0-1.9-1.12c-7.53-4-19.67-10.52-42.2-6.78-14.6 2.42-21.73 11.76-25.05 18.4-1-9.06-4.62-17.35-10.18-23.6l9-30.87h106.84c-1.12.75-2.24 1.64-3.36 2.7-12.02 11.45-1.14 29.77-1.14 29.77zM684.2 400.6l.28.5c.01-.02-.05-.15-.28-.5zm-62 39.68c.01-.04.01-.1.02-.13-.02.1-.02.12-.02.13zm-522.03-64.92c.01-.02.01-.03.02-.04.02-.07.05-.14.07-.2l-.1.24zM557.32 485.4h.4c-.12.01-.28.01-.4.01zm-151.9-.58l-.8-.06-6.47.22v.04l.01.05h.47l.77-.01 3.7-.07c1.98-.04 2.92-.1 2.32-.17zm-131.83 1.13l.35-.01h-.06l-.3.01zm-73.8-69.3l-.2-.4c.01.03.02.05.03.07.06.1.12.22.17.32zm23.1-283.43h53.76s17.9.9 16.78-11.7c-1.04-11.6-12.96-9-12.96-9s-1.1-23.57-29.46-22.72c-27.58.83-29.46 25.2-29.46 25.2s-8.8.12-9.67 8.32c-.68 6.3 5.4 9.9 11 9.9zm1.1.4c.01.02.14.03.52.03l-.52-.03zM293.44 119c.02.04.03.08.05.12l-.05-.12zm290.16 41.9a10.37 10.37 0 1 0 0-20.74 10.37 10.37 0 1 0 0 20.74zm6.6-1.85c.01.01.06 0 .16-.08l-.16.08zm-414.3 81.2l.03.07c-.01-.04-.02-.05-.03-.07zm16.52 72.6l-.03 1.03c.01-.01.02-.27.03-1.03zm-8.42 43.1v-.24a1.85 1.85 0 0 1 .01.24zm8.43-57.54l-.02.03c.01.01.01.01.02-.03zm6.2-129.53l-3.58-1.2-1.65.03c.5-.9.77-2.7.77-6.03 0-3.3-2.67-5.96-5.96-5.96s-5.96 2.67-5.96 5.96c0 3.12.17 5.06.47 6.2h-3.94c-.33-.1-2.32 2.54-2.32 2.54l-9.05 20.85h41.92l-10.7-22.4zm-10.42-1.23c.38 0 .75.06 1.1.14l-2.1.04c.33-.1.66-.18 1-.18zm-18.57 16.5v-.01.02zm35.5-3.5l-.03-.04.01.01zm118.42 213.07c-.02.01-.03.1-.03.38l.03-.38zm8.14-16.4c0-.06-.01-.08-.01-.1l.01.1zm106.12-29.97l.4-.01h-.07l-.34.01zm.34 25.2l-.34.01.4-.01h-.07zm-3.7 51.17l.38-.01h-.06l-.32.01zm13.9-225.2H571.2c18.68 0 21.75-16.28 13.5-22.9-9.3-7.45-20.6-2.86-20.6-2.86s1.28-15.2-6.62-28.58c-1.44-2.43-3.18-4.8-5.28-7.02l-14.52-9.48c-2.74-1.03-5.75-1.87-9.08-2.45-45-7.94-49.82 37.8-49.82 37.8s-8.94-10.17-20.4-3.3-6.52 18.76-6.52 18.76-16.74-2.53-16.25 11.18c.37 10.85 12.78 8.86 12.78 8.86zm19.8-41.82l-.32-.01h.05l.27.01zM323.2 346.9l.05.14z" fill="#fff"/><g fill="#9ca5b2"><path d="M562.83 380.86a.5.5 0 0 0 .5.45h.05a.51.51 0 0 0 .45-.55c-.93-9.13-2.2-17.93-3.78-26.13-9.68-50.35-19.23-67.43-19.33-67.6a.52.52 0 0 0-.68-.2.52.52 0 0 0-.2.68c.1.17 9.57 17.16 19.2 67.3 1.58 8.2 2.84 16.95 3.77 26.05zm59.02-110.6c.06.03.13.04.2.04a.5.5 0 0 0 .46-.3l1-2.24c.12-.25 0-.55-.25-.66-.25-.12-.55 0-.66.25l-1 2.26c-.12.25 0 .54.25.65zM240.75 90.7h0l.18-.1zm-24.25 41.35l-.45-.23.45.23z"/><path d="M211.43 124.48l.04.52c.03.67.2 1.2.14 1.28.4 1.63 1.26 2.85 2.2 3.78.96.93 2.04 1.6 3.26 2.16.2.13-.12.05-.6-.17a12.48 12.48 0 0 0 1.29.59c-.05.08-1.04-.38-1.56-.67 1.96 1.26 4.47 1.63 7.1 1.7l.54-.06.15.01c-.01-.03.57-.08.96-.1.37.07-.03.16 1.26.16 1 .07 2.88-.03 4.2-.07-.72-.01-.5-.05-.18-.08l1.5.04.06.1c-.25-.1 1.68-.1 1.9-.13.37.07-1 .06-1.16.1l3.86-.01c1.37-.07-.25-.1.4-.17l3.8-.03-.44-.08 5.17.03c16.96-.68 3.57-.93 3.57-.93-6.68-.2-10.13.06-18.08.12l-7.95-.1c-1.06-.03-2.12-.17-3.3-.48-1.18-.32-2.5-.83-3.86-1.8-1.3-.93-2.3-2.28-2.82-3.78-.5-1.52-.37-3.2.05-4.7.1-.35.17-.8.4-1.22.1-.2.2-.44.33-.66l.45-.64c.65-.83 1.48-1.54 2.22-2.02.2-.1.43-.17.64-.26a6.45 6.45 0 0 1 1.8-.74l-.03.03a7.15 7.15 0 0 1 1.34-.35c.2-.05.4-.06.6-.1l.62-.07-.07.03.9-.04.13-1.25-.01.34.1-.76.1-.62c.07-.4.15-.82.24-1.22a23.94 23.94 0 0 1 .66-2.3l-.12.1c1.13-3.03 1.5-4.2 3.07-6.66v.05c.88-1.63 1.82-2.76 2.82-3.84 1-1.04 2.07-2 3.46-3.2-.1.1.3-.17.27-.13 1.37-1.1 3.02-1.98 2.97-2.14 1.12-.62.96-.43 1.13-.45-.03-.05.94-.6 1.88-.95l-.42.2c.9-.36 1.78-.72 2.7-1l-.58.03c1.48-.4.4.02 1.82-.4l-.05-.1c1.03-.24 1.86-.4 2.7-.47l1.26-.13 1.4-.08c4.22-.44 8.68-.37 12.93.46 4.23.84 8.2 2.68 11.12 5.3l.2.3c.04.17 1.7 1.33 1.8 1.66l.65.64c.14.2.46.65.15.32.5.66.56.66.93 1.13l.45.8c1.73 2.8 2.96 5.42 3.67 8.86a24.61 24.61 0 0 1 .17 1.16l.1.75a23.22 23.22 0 0 1 .08 1.25c.48-.1 1-.2 1.5-.25.27-.04.56-.05.85-.07.58-.03 1.17-.04 1.78-.01 1.2.07 2.44.3 3.6.7 1.14.43 2.12 1.13 2.92 1.9.35.43.7.84.98 1.28.23.46.5.88.67 1.3.24.74.56 1.5.64 2.32.06.4.14.82.18 1.23.01.4.06.83.02 1.25-.05 1.67-.56 3.34-1.57 4.67a9.57 9.57 0 0 1-1.78 1.76c-.68.5-1.4.92-2.17 1.28-1.53.7-3.16 1.18-4.76 1.54-.2.02-.75.17-.75.17-2 .3-4 .4-6.02.33 0 0-7.46-.01-12.07.1-4.62.12-6.4.38 4.9.9l-.15.03c3.36.07 5.47.08 7.8-.06.36.2 2.8.02 3.6-.03l-.07.02c2.05-.3 4.3-.46 6.2-1.24-.07.04-.1.1-.54.25 1.42-.42 3.23-1.4 3.36-1.4 1.55-.9 3.3-2.38 4.14-4.27a9.07 9.07 0 0 0 .8-4.9l.03.16a15.48 15.48 0 0 0-.21-1.5c-.08-.43-.1-.9-.3-1.6-.01-.08-.04-.18-.03-.17a24.17 24.17 0 0 1-.43-1.19c-.18-.44-.44-.88-.66-1.33-.5-.86-1.13-1.64-1.6-2l-.01-.1c-.18-.16-.35-.33-.54-.48l-.6-.4c-.4-.28-.82-.48-1.26-.67.3.17.65.28.94.5-.2-.05-.67-.27-1.33-.63a12.93 12.93 0 0 0-1.18-.44c-.45-.1-.93-.22-1.44-.26a10.48 10.48 0 0 0-2.44-.01c-.8.08-1.66.25-2.3.4l-.06-.74c-.2-.9.25.8-.01-.57.1-.06.15.63.18.27-.25-1.34-.28-2.23-.82-3.83l.05-.1c-.75-2.06-1.38-3.92-2.2-5.15-1.2-1.9-.55-1.46-2.08-3.28-.17-.26-.32-.53-.5-.78-.68-.76-.55-.48-1.32-1.3.1 0-.98-1.04-.47-.62-1.82-1.83-4.15-3.15-7.15-4.65-.36-.07-.93-.28-1.48-.48a9.37 9.37 0 0 0-1.36-.38c-.05-.14-3.26-.85-1.4-.52.16.03.44.1.42.1h.24c-1.83-.6-3.4-.72-5.27-.93.55.1 1.3.16.8.16l-1.74-.2.37-.02c-.86-.13-1.73-.14-2.6-.2l.36.1c-1.27-.12-1.72-.2-3.15-.1-.65.06 1.2.1-.14.13-.85 0-1.9.03-3.03.1-1.12.1-2.3.2-3.37.4.22.05-.36.15-.95.27l-.08-.06c-1.12.32-1.33.33-1.55.34-.2.01-.44-.01-1.52.38l-.36.22c-.97.37-1.23.47-1.54.54-.3.1-.64.14-1.65.73.82-.4.46-.03-.57.4l.23-.18c-.56.28-.73.38-1.1.58.3-.2.12-.2-.67.26l.5-.37c-.48.33-1 .6-1.44.97-1.2.6-2.83 1.98-3.3 2.28 0 0-.57.44-1.14 1-.6.54-1.17 1.2-1.36 1.5.34-.48-.75.68-.5.3l-2.16 2.96c-1.85 2.7-2.6 4.93-3.62 7.66.1-.1-.37 1.36-.15 1.03l-.55 2.36-.2 1.06-.1.48c-.07 0-.13 0-.2.01a5 5 0 0 0-.58.1c-.36.07-.65.2-.87.3-1.34.34-1.6.38-2.3.63l.3-.14a10.9 10.9 0 0 0-2.56 1.45c-.6.48-1.12.95-1.72 1.75-.26.42-.42.66-.54 1.03-.12.36-.37.78-.62 1.6.13-.55-.12.12-.27.75.02-.2.07-.34.05-.32-.03.02-.1.2-.18.6 0 .12-.02.3-.04.48-.01.01-.02.04-.02.02-.1.54-.08.77-.07.8.02.03.01-.15.06-.4.01.03.02-.01.07-.17-.1.27-.1.6-.12.96l-.03.5zm361.4 28.75h0l-.07-.05z"/><path d="M572.62 149.63c.05.22.12-.4.12.06-.1.56-.18 1.42-.1 2.15.08-.08.1.12.15.3l-.07.03c.23.74-.14.32.12 1.05l.13.1c.3.63-.06.4.4 1.07-.12-.28.1-.2.2.17l-.1-.06.18.37c-.1-.1-.12-.02.02.25l-.17-.15.37.46c.1.45.6.97.6 1.2 0 0 .53.8.75.9-.18-.1.15.3-.01.25a4.85 4.85 0 0 1 .94.88l-.05-.03c.74.82 1.52 1.07 2.3 1.64 0-.1.44.17.38.02.47.18.86.4 1.2.54.34.17.63.23.85.1.44.1.5.22.72.27h-.1l1.72.17c.32-.02.36-.16.92-.15-.18.07.05.05.26.04-.13.02-.17.04.1.07a.66.66 0 0 1 .15-.05s.01.01.01.02c.35-.05.28-.08.12-.06.01-.01-.01-.02-.06-.04.37.04 1-.15 1.06-.05 1.02-.26 1.7-.6 2.46-1 .1.01-.05.14-.27.27l.55-.3c.03.07-.3.2-.47.3.73-.2 1.3-.8 2.05-1.2l.1-.16.05-.02c-.02-.03.1-.18.2-.26.14-.03.1.13.4-.16.15-.1.32-.26.5-.45l.44-.6c-.17.17-.15.1-.1-.01.14-.16.28-.2.35-.36l.1.04c-.12.01.26-.5.27-.6.13-.06-.15.3-.14.37.5-.7.26-.34.7-1.08.17-.43-.12.03-.08-.2.2-.35.28-.74.53-1.12l-.14.1a12.93 12.93 0 0 1 .57-1.58c.17-1.38 0-2.13-.1-2.5-.1-.35-.2-.33-.28-.14-.16.38-.3 1.36-.32 1.35-.2.97-.46 1.67-.7 2.43-.3.74-.62 1.54-1.36 2.48a8.28 8.28 0 0 1-1.81 1.53c-.56.36-1.15.7-2.12 1.13-.95.38-2.02.63-3.03.7-.24.08-.57.1-.9.06l-.98-.05-.2-.1c-.2.01-.43-.01-.6-.1l.02-.02c-.3-.02-.6-.12-.75-.15l.02-.02-.34-.1.07-.01c-.5-.1-.98-.34-1.4-.57l-.01.1c-.8-.6-1.22-.64-1.83-1.33h.02c-1.02-.6-1.15-1.37-1.95-2.23.1.1.01-.08.03-.08-.32-.43-.54-.98-.7-.9-.18-.36-.08-.32-.04-.4-.07.03-.22-.28-.33-.58l.08.13c-.12-.27-.2-.56-.28-.85l-.1.2c-.08-.48.14-.16-.01-.6l-.1.03c-.08-.66.02-1.07.1-1.7-.02-1.3.13-2.65.58-3.92.44-1.26 1.18-2.4 2.1-3.2h.13c.1.05.36-.6.5-.57l.17-.23c.08-.03.23-.1.13 0 .2-.15.2-.17.33-.32l.27-.1c.88-.5 1.6-1.04 2.65-1.35.65-.1 1.55-.32 2.5-.35.47-.06.95-.01 1.4-.02l1.22.14c1 .1 2 .63 2.9 1.25.88.64 1.64 1.4 2.38 2.1.03.06.16.17.17.16a10.7 10.7 0 0 1 1 1.57l.16.34a8.73 8.73 0 0 1 .37.85c.3.68.48 1.58.64 2.27.1.7.22 1.2.36 1.08.1-.12.42-.88.23-2.78l.04.04c-.2-1.1-.53-1.78-1-2.4.08-.2-.45-.8-.56-1.05l.03.01c-.5-.48-.78-1.2-1.35-1.58.03.01.08-.02.18.1-.37-.32-.88-.73-.85-.83-.9-.75-2.35-1.54-3.1-1.62l.06-.01c-.44-.03-.5-.2-.98-.25-.02-.02-.05-.03-.04-.04-.46-.04-1.3-.26-1.68-.26l-.02-.07-.9-.04.34.03c-.12.17-.68-.16-1.34.01-.3-.01-.6.14-.9.27s-.58.26-.9.3c-.27.16.22-.2-.2-.03-.04-.1.2-.1.06-.16-.42.14-.73.1-1.23.36l-.05-.06c-.6.4-1.3.47-1.63.85-.6.43-.55.08-1.1.66l-.3.1c-.26.2-.1.25-.4.47-.03-.06-.38.28-.26.1-.67.54-1.07 1.34-1.78 2.2-.03.26-.36.72-.34.93-.07 0-.47 1-.33.4.01-.05.06-.14.07-.12l-.03-.1c-.2.26-.28.55-.35.83l-.2.87c.07-.17.13-.42.13-.24l-.16.56-.03-.13a6.24 6.24 0 0 0-.22.85l.1-.1c-.06.45-.24.6-.16 1.08zM330.42 338.1a2.97 2.97 0 1 0-5.94 0 2.97 2.97 0 1 0 5.94 0zm-4.94 0a1.97 1.97 0 1 1 3.94 0 1.97 1.97 0 1 1-3.94 0z"/><use xlink:href="#B"/><path d="M327.45 366.65a2.97 2.97 0 1 0 0-5.94 2.97 2.97 0 0 0-2.97 2.97 2.98 2.98 0 0 0 2.97 2.97zm0-4.94a1.97 1.97 0 1 1 0 3.94 1.97 1.97 0 0 1-1.97-1.97c0-1.1.9-1.97 1.97-1.97z"/><use xlink:href="#B" y="25.57"/><path d="M498.3 130.25h-.03c-.01.01-.01.02.03 0zm-38.36 67.55h0l.38-.05z"/><path d="M437.07 195.8c1.06 1.28 2.62 2.27 4.47 2.8-.92-.28.38.17.3.17 1.72.5 3.55.58 4.92.5.68-.03 1.3-.1 1.65-.2.3-.03.6-.06.6-.1 2.47 0 2 .05 2.33.12-.01-.04.52-.06 1.3-.08l2.75-.03-.9.02 5.52-.03-1.08-.14c2.93.04.74.17 3.55.14l-.04-.12c4.05.02 6.42.2 10.34.3l48.93-.04.67.1c.3.13 4.18-.2 4.76-.07l1.76-.06c.5.02 1.54.05.66.08 1.63 0 1.67-.02 2.84-.05l1.75.08 18.66-.06c4.06.08 9.92.08 15.86.06 2.94.04 6.06-.13 8.84-.77 2.78-.75 5.2-1.98 7-3.4 2.48-2.03 4.3-5.08 4.8-8.46.57-3.38-.5-7.02-2.7-9.75-.27-.34-.62-.63-.93-.94-.32-.3-.62-.64-.98-.87-.7-.5-1.37-1.07-2.15-1.46l-1.13-.64-1.2-.52c-.78-.38-1.62-.58-2.44-.86-3.33-.88-6.78-.9-9.96-.28a15.77 15.77 0 0 0-.9.18c-.32.08-.57.16-.57.16-.42.1-.83.2-1.24.32l-.27.08-.2.07.02-.37.02-1.1c0-.77 0-1.53-.04-2.3-.05-1.53-.2-3.06-.35-4.58l-.32-2.34c-.25-1.45-.6-3.47-1.24-5.7-.58-2.26-1.47-4.7-2.5-7.07l-.82-1.74c-.27-.57-.6-1.1-.9-1.65a26.52 26.52 0 0 0-1.84-3c-2.5-3.65-4.85-5.67-4.4-5.05.2.33 1.07 1.3 2.54 3.4 1.45 2.1 3.48 5.32 5.28 10.3l-.13-.25c1.13 2.93 1.8 5.42 2.3 7.68a75.38 75.38 0 0 1 1.15 6.47c-.04.35.07 1.64.15 3.03.1 1.4.1 2.88.06 3.6v-.14.4l-.01.64-.07 1.28c.62-.25 1.37-.5 1.88-.67a24.18 24.18 0 0 1 1.22-.31 21.02 21.02 0 0 1 2.48-.41c1.66-.2 3.3-.2 4.88-.14-.14.01-.23.05-1.06.01 1.33 0 2.9.24 4.12.52 1.22.32 2.12.65 2.2.73.7.33 1.5.57 2.23 1.03l1.13.63c.36.25.7.5 1.07.77.77.47 1.32 1.15 1.98 1.73.5.72 1.1 1.36 1.44 2.15.86 1.5 1.17 3.15 1.33 4.6a13.95 13.95 0 0 1-.28 3.56c-.3 1.03-.47 1.75-.87 2.4-.18.34-.36.7-.6 1.1l-.96 1.3a4.82 4.82 0 0 0-.19.22c-.42.46-.97 1-1.58 1.58l-1.06.74c-.37.24-.7.54-1.13.7l-1.18.57c-.38.2-.75.37-1.14.47l-1.9.62-.14-.02-2.48.46c-.83.17-1.68.13-2.52.2l1.9-.1c-.32.1-1.28.13-2.62.17-1.34.02-3.1-.07-4.96.01-3.5-.02-7.1.38-10.72.3-1.73.1 1.52-.14-1.06-.07-.08-.1 1.2-.06.54-.14-2.54.05-4.17-.1-7.3-.03l-.13-.07c-4.1.14-7.7-.1-10.44.03-4.22.06-2.83-.22-7.22-.08l-1.7-.1c-1.88-.02-1.35.12-3.43.07.13-.06-2.63-.05-1.4-.1-4.7-.1-9.57.14-15.78-.03-1.35.12-4.47.05-5.48.14-.17-.05-6.26-.01-2.75-.13.3-.01.83-.01.8.01l.42-.07c-3.54-.14-6.43.08-9.94.05 1.04.02 2.42.02 1.5.07l-3.26-.01.68-.06-4.85-.04.67.08c-2.37-.04-3.2-.17-5.88-.06-1.2.06 2.25.1-.26.13l-11.98-.15c.38.1-.7.08-1.83.1l-.13-.07c-4.3.1-1.58-.16-5.84-.08l-.75.1c-3.85.15-2.08-.15-6.35.05 1.7-.01.8.16-1.28.13l.53-.07c-1.15.02-1.54.05-2.3.03.7-.04.36-.1-1.33-.1l1.14-.1-.8.03h-.44l-.43.07c-.5.08-1.02.12-1.54.15-1.2-.02-2.74-.15-4.05-.5-.64-.2-1.25-.38-1.7-.64a3.5 3.5 0 0 1-.98-.6l-.18-.12c-.1-.08-.3-.17-.46-.33-.34-.33-.85-.73-1.22-1.3l-.3-.4c-.1-.14-.16-.3-.24-.46-.15-.3-.32-.6-.43-.88-.18-.6-.34-1.1-.44-1.37.2.47.02.06.03-.4-.02-.47-.05-.96.03-.58-.14-.62-.23-1.94-.07-3.25.15-1.3.63-2.58 1.06-3.2l-.12.26c1.28-2.5 3.5-3.78 5.75-4.52 2.27-.72 4.67-.95 7.3-.76-.04-.02 0-.02.08-.03h.15c.1.01.24.01.37.02.54.03 1.3.14 1.85.2-.3-.76-.5-1.24-.4-.8-.12-.3-.2-.57-.3-.84l-.14-.42-.06-.24c-.1-.32-.17-.64-.23-.95-.14-.63-.2-1.26-.28-1.86-.1-1.2-.07-2.34.07-3.34.03-.5.16-.97.25-1.4.07-.44.2-.84.3-1.2.2-.75.43-1.34.57-1.82.23-.57.52-.97.75-1.3s.4-.62.6-.84l1.12-1.2-.37.46c.2-.22.35-.44.54-.62l.56-.5 1-.9 1.82-1.26 1.77-.92c.6-.3 1.32-.5 2.1-.8 1.64-.38 1.9-.82 4.98-.68-.5 0-.43.02-.1.04l.66.04c.26.03.55.1.83.14-.73-.12-.95-.14.52.17.22.01.53.08.83.16.01.01.07.03.04.03l1 .28c.2.08.3.12.34.12.04.02-.23-.14-.66-.25.05 0-.02-.03-.28-.12.96.3 2.23.88 3.27 1.43 1.02.6 1.8 1.15 1.86 1.27a20.62 20.62 0 0 1 1.4 1.09c.08.07.27.23.44.4l.5.5c.32.32.65.67.95.98l.32-2.43.25-1.5c.18-.96.38-1.9.6-2.8.43-1.83.94-3.6 1.6-5.42.25-.5-.13.6-.53 1.96a53.9 53.9 0 0 1 1.15-3.3c.05.05-.67 1.9-.98 2.9 1.4-3.88 2.97-8.05 5.7-12.08l.52-.86.17-.23c-.02 0 .12-.24.3-.54s.46-.67.67-.96c.5-.5.07.1 1.6-1.73 1.23-1.44 3.7-3.92 5.7-5.4-1.08.8-.76.5-.3.14.96-.72 1.55-1.08 2.34-1.58l.12.01c.05-.07.6-.43 1.2-.83l1.87-1.03c.64-.25-1.63.9-1.86 1.1 2.12-1.12 2.66-1.4 3.22-1.6l1.04-.44c.24-.1.53-.23.9-.37l1.42-.46c2.42-.86-.47.06.67-.4 1.08-.36 2.2-.57 3.32-.87 1.15-.22 2.35-.4 3.65-.54-.28-.02-.55.02-.83.03 1.06-.2 2.03-.2 2.9-.3l1.28-.1 1.2.01 2.2.03c.7.05 1.4.13 2.13.2 8 .5 12.3 1.9 14.35 2.48 2.06.63 1.93.5.88.01-1.07-.5-3.14-1.24-4.97-1.74s-3.4-.8-3.4-.8c-6.27-1.2-11.2-1.43-16.34-.8l-2.93.47c-.33.07-.66.16-1 .24l-2.03.5c-.68.2-1.36.45-2.07.68-2.8 1-5.82 2.4-8.94 4.62-2.76 1.93-4.74 3.87-6.36 5.7-.84.9-1.52 1.82-2.22 2.68-.64.9-1.3 1.76-1.85 2.68-1.2 1.8-2.2 3.72-3.26 5.98-1.04 2.27-2.06 4.92-3 8.26-.33 1.18-.64 2.38-.9 3.6a54.97 54.97 0 0 0-.36 1.85l-.05.3-.01.04-.1-.08c-.4-.37-.85-.7-1.28-1.03-.9-.64-1.8-1.24-2.78-1.73-1.93-1-4.04-1.66-6.14-1.86-1.6-.13-3.8.04-5.97.7l-1.6.57c-.52.22-1 .5-1.5.75-1 .46-1.8 1.15-2.56 1.67-.42.23-.76.58-1.15.87-.24.22-.48.45-.73.7s-.45.53-.68.8l-.68.8a20.85 20.85 0 0 0-.58.83l.03-.08c-.55.8-.96 1.75-1.34 2.58-.27.86-.57 1.6-.62 2.08V169l-.23 1.15c-.06.4-.08.78-.12 1.16l.01-.4c-.15 1.36-.07 2.75.1 4.1.1.67.22 1.33.37 1.98a12.79 12.79 0 0 0 .2.73l.06.18-.18-.02-.1-.01-.42-.03.24.1c-3.2-.2-5.4.12-7.44.7-1.02.3-2 .7-3 1.28s-2.04 1.36-2.98 2.55l.03-.08c-1.12 1.56-1.62 3.23-1.86 4.78-.24 1.56-.16 3.02.02 4.5.35 1.42.78 2.97 1.9 4.23zm106.46-64.77l1.85 1.14a.45.45 0 0 0 .27.08c.16 0 .32-.08.42-.23a.5.5 0 0 0-.14-.69l-1.9-1.17c-.24-.14-.54-.06-.68.18a.52.52 0 0 0 .18.7zM650.8 393.86c-.74.33-1.18.65-1.66.98l-1.07.7c-.24.14-.32.45-.18.7.1.16.26.25.43.25a.45.45 0 0 0 .25-.07l1.14-.75c.45-.32.84-.6 1.5-.88.25-.1.37-.4.25-.66a.48.48 0 0 0-.65-.27zm-524.74-31a.51.51 0 0 0 .44.26c.08 0 .17-.02.24-.06.24-.13.33-.44.2-.68l-1.23-2.18a.52.52 0 0 0-.68-.2.52.52 0 0 0-.2.68l1.23 2.17zm-19.16-31.98a.51.51 0 0 0-.7-.11c-.22.16-.27.48-.1.7.07.1 6.96 9.44 14.95 22.73.1.16.26.24.43.24a.46.46 0 0 0 .26-.07c.24-.14.3-.45.17-.7-8.03-13.33-14.94-22.7-15-22.8zm15.18-6.28c.38.2 1.42.8 1.7 1.02a.47.47 0 0 0 .3.1c.15 0 .3-.07.4-.2.17-.22.12-.53-.1-.7-.37-.28-1.48-.9-1.84-1.1a.5.5 0 0 0-.68.21c-.13.23-.04.54.2.67zM239 458.04V458c-.01-.02-.01-.02-.02.04zm-137.46-24.38h0l-.37.34zm75.06-189.23v-.01l.04-.08zm5.12-77.95h0l-.06-.04zm-8.7 12.17c.07.03.14.05.2.05.2 0 .37-.1.46-.3l.68-1.5c.12-.25 0-.55-.25-.66-.25-.12-.55 0-.66.25l-.68 1.5c-.12.24-.01.53.24.65zm-12.07 14.58h0l.08.1zm18.23 11.12c-.06 1.27.25 1.9.46 3.38.1 1.32-.04 1.68.16 3.04l.24 1.97c.16.3.08.83.23 1.18l-.06.15c.05.12.1.26.06.4l-.02-.01c.07.18.06.4.1.48l-.02-.01.03.22-.03-.04c.1.3.13.64.13.94l.08-.03c-.04.63.17.84.1 1.4l-.02-.01c.3.7-.04 1.14.25 1.84-.04-.1-.04.04-.06.04.06.33.1.7.28.68.02.25-.03.2-.1.24.07-.01.13.2.15.4l-.04-.1.08.55.13-.12c-.01.3-.16.1-.1.37h.12c.02.4-.14.66-.18 1.06.1 1.62.58 3.33.53 4.86l-.08.08c-.13.04.23.4.12.47l.08.17c-.02.05-.03.16-.07.07.01.16.03.16.08.28l-.06.18c0 .65.2 1.17.25 1.85-.08.82.22 2.33.4 3.2.3 1.2-.05 2.7.3 3.93a.23.23 0 0 0 .05.14l.1 1.16s.5 5.6 1.15 1.24l.03.03c.01-.64-.02-1.04-.2-1.46.17-.1-.03-.52.01-.67h.02c-.17-.37.03-.8-.12-1.16.01.01.06.02.07.1-.05-.27-.12-.63-.03-.66-.1-.64-.13-1.55-.33-1.95l.03.03c-.13-.23-.05-.3-.13-.56.01-.02.02-.04.02-.03-.13-.25-.1-.75-.16-.95h.06l-.07-.5v.2c-.2-.05.08-.4-.08-.76-.01-.35-.45-.67-.4-1.04-.1-.16.15.14.06-.1.1-.02.07.1.14.04-.07-.25.06-.42-.04-.73l.07-.02c-.18-.4.02-.78-.13-1.03-.1-.4.2-.3 0-.72l.08-.18c0-.2-.14-.12-.1-.33.06.01.02-.27.1-.15.05-.48-.24-.94-.13-1.57-.14-.12-.1-.44-.2-.53.05-.02-.05-.62.1-.3.01.03.02.08-.01.08l.08.03c.1-.37-.14-.63-.15-.98-.01.1.01.24-.05.16l-.02-.32.07.06-.01-.5-.07.07c.02-.24.14-.34 0-.6-.07-.1-.08.23-.13-.01l.03-1.2c-.08.05-.1-.06-.12-.17l.07-.02c-.15-.42.15-.17.02-.6l-.1-.06c-.2-.37.13-.22-.1-.63.03.17-.16.1-.14-.1l.08.05c-.03-.1-.06-.15-.05-.23.05.06.1.03.08-.14l.1.1-.16-.3c.05-.25-.08-.63.01-.74 0 0 0-.53-.13-.64.08.1.08-.2.17-.12-.1-.13-.2-.53-.13-.7l.01.03c.03-.6-.22-1-.17-1.56-.08.03-.06-.26-.17-.17-.16-.55.12-1.04-.24-1.2-.04-.25.05-.3.05-.44v.06l-.12-.96c-.05-.17-.2-.18-.2-.5.07.1.05-.03.04-.15.02.07.04.1.07-.06-.02-.02-.04-.05-.05-.08 0 0 .01-.01.02-.01-.04-.2-.06-.16-.06-.07-.01 0-.02.01-.04.04.06-.2-.06-.57.04-.6-.08-.6-.24-1-.33-1.5.05-.06.1.05.15.2l-.05-.35c.08-.01.07.2.1.3.1-.43-.2-.84-.14-1.34l-.07-.1.01-.03c-.03 0-.1-.1-.1-.17.06-.08.16-.01.13-.25.05-.2-.1-.54-.15-.78 0 .14-.04.1-.07.04-.01-.12.05-.2.01-.3h.1c-.08.06-.13-.3-.17-.35.06-.08.08.18.13.2l-.1-.72c-.1-.25-.08.06-.18-.06-.04-.23-.13-.44-.1-.7l-.08.1c-.1-.42-.12-.68-.07-.98-1-3.16-1-.62-1-.62z"/><path d="M182.36 220.96h0l.05.03zm10.17 16.08l-.05.7c.05.26.1-.04.16.1 0 .23.04.45-.04.7l.1-.07c.02.43-.01.68-.12.95.38 3.2.87.75.87.75.3-1.22.12-1.88.2-3.35.17-1.3.36-1.6.42-2.96l.14-1.95c-.1-.3.08-.82 0-1.18l.08-.13c-.02-.12-.04-.27.01-.4h.02c-.04-.2.01-.4 0-.48l.02.01.01-.22.03.04c-.03-.32 0-.64.05-.93l-.1.02c.16-.6 0-.84.16-1.38v.01c-.16-.72.26-1.1.1-1.82.02.1.05-.03.07-.02.01-.33.03-.7-.14-.7.03-.24.07-.2.14-.22-.07-.01-.1-.22-.07-.4l.02.1.03-.54-.15.1c.07-.28.18-.06.17-.33l-.12-.01c.06-.4.26-.6.38-.98.2-1.6.07-3.32.4-4.78l.1-.06c.13-.02-.15-.43-.03-.47l-.04-.18c.03-.05.06-.15.08-.06.02-.16 0-.16-.03-.28l.1-.16c.12-.62.02-1.17.1-1.83.24-.78.23-2.3.23-3.16-.08-1.23.57-2.6.47-3.85a.22.22 0 0 0-.02-.15l.13-1.13s.57-5.5-.9-1.42l-.03-.03c-.13.6-.18 1-.08 1.44-.18.05-.07.5-.14.65v-.02c.1.4-.18.77-.1 1.15-.01-.02-.06-.03-.05-.1 0 .27 0 .64-.1.65-.03.64-.17 1.52-.04 1.94l-.03-.03c.1.24-.01.3.02.57-.01.01-.02.03-.03.03.08.26-.05.74-.03.95h-.07l-.03.5.03-.2c.18.08-.15.37-.07.75-.06.34.3.73.2 1.07.07.18-.12-.16-.08.1-.1 0-.05-.12-.13-.07.02.25-.14.4-.1.7l-.08.01c.1.4-.17.74-.07 1.02.02.42-.25.26-.14.7l-.12.16c-.03.18.1.14.04.34-.06-.02-.08.25-.12.13-.14.45.05.95-.17 1.54.1.14.01.44.1.55-.06.01-.07.6-.15.26-.01-.03 0-.08.02-.08l-.07-.05c-.17.33.02.64-.04.98.03-.1.04-.23.08-.14l-.04.32-.06-.07-.08.47.08-.06c-.06.23-.2.3-.12.57.05.12.12-.2.12.04l-.26 1.16c.1-.03.08.08.08.2l-.08.01c.06.43-.18.14-.14.56l.1.08c.1.4-.17.2-.01.62 0-.17.17-.06.12.14l-.07-.06c0 .1.03.15.01.23-.03-.07-.1-.05-.1.12l-.08-.12.1.33c-.1.23-.04.63-.15.72 0 0-.1.5 0 .64-.06-.1-.1.17-.2.08.06.14.1.55-.01.7l-.01-.03c-.14.58.02 1.02-.13 1.54.1-.02.02.26.13.2.06.56-.32.97 0 1.2-.01.25-.1.3-.14.4v-.06l-.07.95c.02.18.17.22.1.52-.05-.1-.05.02-.06.14 0-.07-.02-.1-.08.05.02.02.03.06.03.1-.01 0-.01.01-.02 0 0 .2.03.16.04.07.01.01.02 0 .04-.03-.1.2-.05.56-.16.57-.03.58.04 1 .04 1.5-.06.05-.1-.07-.1-.2l-.01.34c-.08-.01-.03-.2-.03-.3-.17.4.05.85-.12 1.32l.05.1-.01.03c.03 0 .07.1.07.2-.08.06-.16-.02-.18.22-.1.18-.02.54 0 .78.02-.13.06-.08.08-.03-.01.12-.08.18-.06.27h-.1c.1-.04.07.32.1.37.01.07.04-.18-.01-.22z"/><path d="M193.5 223.58h0l-.05-.05zm175.9 122.6l.03.02c.02-.01.02-.01-.03-.02zm0 25.2l.03.02c.02-.01.02-.01-.03-.02zM312 483.5h0l.13-.05zm58.5-60.97l.03.02c.02 0 .02-.01-.03-.02zm-58.8-7.66l-.1-.12-.3-.26c.14.13.25.27.4.38zm179.7 2.23l-.03-.02c-.02.01-.02.01.03.02zm184.4-148.42v.04c.01.02.02.02.01-.04z"/><path d="M687.23 410.33l-.07-1.03c-.02-.35-.13-.7-.2-1.04-.02-.26.12.1.23.66l-.28-1.52c.08 0 .27 1.14.38 1.76-.06-.6-.18-1.2-.3-1.83l-.2-.93-.33-.9-.7-1.87-.9-1.88-.32-.5-.08-.15c-.02.02-.4-.5-.64-.84-.16-.38.16-.08-.7-1.2-.65-.92-2.15-2.35-3.37-3.16.6.5.4.37.1.18-.54-.44-.84-.72-1.32-1v-.12c.1.1-.3-.12-.76-.4l-1.12-.55c-.32-.25 1 .46 1.17.5l-1.87-.98c-.33-.12-.63-.32-1.95-.8-1.44-.4.23.17-.48.02l-.94-.3-.97-.22-1-.24-1.07-.2.46.16-1.66-.23-1.4-.1c-.88-.1-1.66-.1-2.5-.15-1.15.02-2.15.2-3.04.28l-2.3.42c-1.32.28-2.2.58-2.8.74-1.15.37-1.04.46-.4.37.66-.06 1.85-.26 2.88-.43l1.9-.2c3.5-.3 6.16-.22 8.93.2 2.74.46 5.7 1.23 9.13 3.58 2.9 2.22 4.23 4.16 5.23 6.23l.76 1.6.6 1.8c.25.63.33 1.34.48 2.1l.2 1.2.07 1.34c.15 3.57-.77 7.38-2.3 10.57-.54 1.6-2.26 4.06-3.38 5.72-.16.2-.35.38-.54.56-.42.55-.93 1.18-1.4 1.68l.01-.05c-.62.83-1.52 1.58-1.85 1.98l.02-.05-.88.9.13-.17c-1.32 1.22-2.7 2.48-4.07 3.4l.16-.01-1.86 1.3-1.54 1-1.5.95-1.86.96.03-.04c-1.7 1.04-3.15 1.82-4.6 2.57-.36.2-.73.37-1.1.6l-1.07.7a52.4 52.4 0 0 0-2.35 1.67c.42-.32-.2.1-.2.05-1.5 1.23-3.13 2.53-3.04 2.68-1.08.9-.9.72-1.08.8.06.05-.83.9-1.64 1.65l.35-.36-1.15 1.08-1.1 1.14.53-.35c-1.2 1.17-.42.18-1.5 1.36l.1.07c-.83.8-1.44 1.5-2.08 2.13-.62.66-1.3 1.27-2 2.14-2.4 2.93-4.56 6.2-6.54 9.5l-1.1 1.96c-.77-1.52-1.63-3.03-2.7-4.5-1.25-1.88-2.93-3.65-5-5.3 1.9-7.05 5.6-17.46 12.28-26.66 15.7-21.6 33.08-28.17 33.25-28.24.26-.1.4-.38.3-.64a.5.5 0 0 0-.64-.3c-.18.07-17.82 6.73-33.72 28.6-6.63 9.1-10.34 19.4-12.3 26.52-.22-.17-.43-.33-.4-.3-1.52-1.1-3.22-1.95-4.8-2.6l.1-4.45.32-4.94.46-4.28c.78-7 3.45-14.76 6.18-21.35a2.91 2.91 0 0 0 .21-.46c.07-.17.12-.3.1-.3.98-1.95 1.85-3.96 3.04-5.8l.67-1.13c.44-.7.97-1.7 1.7-2.78a60.65 60.65 0 0 1 5.07-6.51c1.64-1.83 2.9-3 2.48-2.84-.2.1-.82.5-1.92 1.47-1.1.96-2.68 2.45-4.65 4.8l.08-.15c-2.3 2.84-3.38 4.88-4.55 7.1-.17.13-.57.77-.96 1.46-.34.73-.7 1.5-.9 1.88l.02-.08c-.43 1.03-.95 2.04-1.47 3.05-.5 1.02-.9 2.07-1.24 3.08.02-.08-.01-.14.17-.6-.54 1.46-1.32 3.45-1.4 3.54l-.88 2.87c-.3 1-.65 2.02-.86 3.03-.45 2-.94 3.84-1.04 5.04v-.17c-.13 1.36-.3 1.73-.5 3.23-.03.08-.05.18-.06.17l-.68 5.46-.08.07c-.1.97-.15 1.95-.23 2.93l.1-1.1c.18.4-.34 2.2-.28 4.34-.04 1 .01 2 .07 3.03v.01c-.5-.2-1.02-.36-1.5-.5l-1.5-.36c-.3-.06-.54-.1-.8-.14l.85-12.2c-.13.52-.01-1 .12-2.57l.1-.17c.23-3 .37-3.54.47-4.08.1-.54.2-1.06.63-4l-.04.53.04-.53.07-1.06c.36-2.7.5-3.4.68-4.2s.3-1.65.78-4.6c-.43 2.33-.4 1.06.23-1.8l-.08.74c.3-1.58.43-2.1.68-3.15-.16.95-.06.5.57-1.77l-.33 1.55c.35-1.44.68-2.9 1.13-4.3.27-.82.63-1.73 1-2.68.35-.96.8-1.9 1.22-2.8.4-.9.86-1.7 1.23-2.36.37-.66.67-1.2.9-1.46l.65-.98.68-1.04.9-1.16.95-1.23 1-1.1c.54-.58.96-1.1 1.27-1.42-.5.53 2.08-1.76 1.33-.98.35-.32.82-.86 1.48-1.36l2.17-1.68c1.6-1.13 3.25-2.25 4.22-2.87l-.35.25c3.52-2.36 6.5-4.45 9.28-6.63s5.4-4.4 8.07-7.22c-.15.1.48-.6 1.03-1.24.52-.68.98-1.3.63-.93 2.46-3.15 4.2-6.4 5.24-9.22l.7-2.02c.18-.64.3-1.25.43-1.8.12-.56.25-1.07.3-1.54s.08-.9.1-1.25c.3-1.78.35-2.86.43-3.7l.1-1.18c.01-.38 0-.78-.01-1.25l.05.87c.02-3.43-.6-5.62-1.25-7.5l-.57-1.37c-.2-.44-.47-.86-.72-1.3-.23-.45-.54-.88-.87-1.33l-.5-.7-.6-.7c-1.65-1.9-2.16-2-5.14-5.26 1.02 1-.27-.27-1.24-1.6.67.8.85 1.07-.4-.67l-.7-.98c-.01-.02-.05-.1-.02-.06-1.27-2.38-1.05-1.97-.5-.84-.04-.05 0 .05.16.4-.28-.65-.7-1.38-.96-2.22-.14-.4-.3-.83-.42-1.25l-.28-1.26c-.22-.8-.2-1.56-.3-2.12-.07-.56-.02-.94 0-1.03-.07-4.1 1.22-7.5 2.73-10.48 1.55-3 3.4-5.64 5.58-8.34.54-.57-.46.7-1.66 2.32a87.24 87.24 0 0 1 3.06-3.84c.03.08-1.78 2.2-2.68 3.4 1.82-2.28 3.78-4.58 5.86-6.94 1.03-1.2 2.14-2.34 3.2-3.66a33.92 33.92 0 0 0 2.84-4.26l.6-1.32c.07-.12.13-.25.2-.37-.02 0 .12-.36.32-.84.2-.47.4-1.1.6-1.57.2-.44.23-.42.36-.68.12-.27.36-.82.83-2.48.38-1.3.78-3.23.94-5.28a27.37 27.37 0 0 0-.18-5.99c.2 1.92.08 1.3-.01.48-.23-1.7-.36-2.7-.77-3.98l.03-.15c-.06-.1-.35-1-.77-2-.25-.6-.57-1.2-.82-1.72l-.6-1c-.2-.45.13.13.56.86l.93 1.88c-1.4-3.2-2.1-3.82-2.55-4.56-.57-.65-.96-1.5-3.57-3.8-2.96-2.23.48.48-.97-.55-2.6-1.98-5.46-3.4-8.97-4.63.37.15.74.28 1.1.47-2.87-1.03-5.3-1.32-7.48-1.5-2.17-.15-4.1-.1-6.15.05-5.63.7-9.77 2.42-12.65 4.08-1.46.8-2.5 1.77-3.4 2.53a28.85 28.85 0 0 0-2.05 2c-1.9 2.27-1.66 2.23-.55 1.02 1.06-1.13 3.36-3.15 5.48-4.52 1.08-.6 2.17-1.15 2.96-1.48.4-.18.72-.32.95-.4.23-.1.35-.13.35-.13 4.05-1.55 7.88-2.13 11.47-2.3 3.6-.1 7.03.22 10.28 1.33 1.63.6 3.3 1.27 4.88 2.17a23.36 23.36 0 0 1 4.66 3.28c2.95 2.64 5.5 6.5 6.46 11.56.76 4.47.26 8.24-.56 11.43-.83 3.2-2 5.88-3.48 8.38a29.86 29.86 0 0 1-2.54 3.61c-.96 1.13-2.13 2.32-3.27 3.6-1.16 1.3-2.4 2.68-3.68 4.25s-2.65 3.3-4 5.35c-2.6 3.82-4.8 8.4-5.1 13.35-.3 4.93 1.6 9.87 4.73 13.3 1.45 1.64 3.68 3.6 5.57 5.9 1.95 2.25 3.13 5.07 3.64 7.46l.2 1.88c.1.84.1 1.76.16 2.68-.02.92-.1 1.85-.17 2.7l-.01-.1c-.05 1.27-.33 2.6-.48 3.8l-.65 2.8v-.1c-.3 1-.63 1.96-.95 2.94l.14-.5c-1.4 4.22-4.08 8.04-6.85 10.98l.3-.2c-3 3.15-5.33 5-7.56 6.8-2.28 1.76-4.52 3.4-7.82 5.6l.08-.08-5.62 3.95-2.5 1.88c-.8.64-1.53 1.34-2.3 2-2.93 2.8-5.6 6.04-7.86 10.78.55-1.18-.3.48-.25.38-.5 1.1-1.03 2.2-1.42 3.3-.44 1.08-.78 2.12-1.05 3.03-.58 1.8-.8 3.1-.76 3.14-.86 3.38-.72 2.75-.9 3.17.02 0-.01.18-.06.5l-.23 1.3c-.2 1.07-.44 2.5-.68 3.83l.2-1.24-1.24 7.66.4-1.48c-.7 4.05-.36 1-.9 4.92l.12-.04c-.7 5.66-1.1 9-1.5 14.5l-.26 5.07c-.17-.01-.27 0-.28.02a26.6 26.6 0 0 0-2.25-.21c-.5-.04-.82-.05-1-.06-.4-.02-.33-.05-.6-.08.01.02-.3.03-.8.08-.33.02-.4.03-.55.06-.14.01-.36.06-.48.06.07-.1.14-.2.22-.33l.1-.2.06-.1.1-.2c.3-.58.6-1.2.85-1.83-.17.47-.38.92-.58 1.37.7-1.38 1.18-2.85 1.52-4.35.2-.74.28-1.5.4-2.26.06-.76.17-1.52.18-2.3-.04.6-.2 1.2-.27 1.78l.15-1.45.04-.85c.02-.4.05-.56.07-.7.04-.28.08-.54-.12-2.86l-.1.07c-.36-3.34-1-5.9-1.88-8.42-1-2.46-2.54-4.8-5.25-6.75-1.6-1.14-3.4-1.97-5.25-2.58 1.98-19.38 5.67-43.35 12.52-67.37 11.87-41.6 40.5-89.03 40.78-89.5.14-.24.07-.54-.17-.7-.24-.14-.54-.07-.7.17-.3.48-28.98 48.03-40.9 89.75-6.85 24-10.54 47.95-12.53 67.35a30.18 30.18 0 0 0-3.39-.76c-1.7-.28-3.43-.42-5.15-.46-.86-.02-1.73-.01-2.6.03-.43.02-.86.04-1.3.08l-.37.03-.18.02.03-.27.1-.93c.05-.65.08-1.3.1-1.95a42.01 42.01 0 0 0-.09-3.89c-.2-2.6-.64-5.16-1.37-7.65-.76-2.48-1.78-4.9-3.17-7.08a26.27 26.27 0 0 0-5-5.86c-.68-.6-1.4-1.14-2.14-1.66-1.8-3.52-3.34-7.2-4.33-10.77-1.06-3.74-1.42-7.38-1.2-10.4.26-4.27 1.9-8.6 4.75-12.15 2.96-3.5 6.06-7.27 7.93-11.74.97-2.2 1.58-4.6 1.86-7s.16-4.84-.13-7.18c-.28-2.35-.72-4.63-.9-6.87-.17-2.23-.14-4.5.06-6.67.04-.28.07-.8.14-1.23.06-.44.1-.8.1-.8.83-5.27 3.08-10.4 6.94-14.06l.62-.58c.38-.4 1.05-.85 1.83-1.47a28.23 28.23 0 0 1 7.09-3.6c3.1-1.07 6.47-2.72 9.32-5 2.9-2.23 5.24-5 6.95-7.6 3.38-5.24 4.52-9.45 4.07-8.5-.3.44-.96 2.17-2.76 5.28-.92 1.53-2.14 3.4-3.9 5.46-1.75 2.06-4.1 4.25-7.25 6.2l.3-.25c-1.85 1.18-3.66 2.05-5.37 2.75l-2.54.94c-.82.34-1.65.58-2.4 1-3.03 1.43-5.52 3.25-7.6 5.6-.2.16-.6.6-1.13 1.17-.46.63-1.07 1.4-1.58 2.27l-.76 1.32c-.23.45-.42.9-.62 1.32-.42.83-.65 1.6-.87 2.1l.06-.2a38.48 38.48 0 0 0-1.2 4.46 18.07 18.07 0 0 0-2.26-2.1c-2-1.58-4.36-2.66-6.65-4.02l-1-.5-.27-.17c-.01.04-1.06-.53-1.73-.95-.3-.23-.26-.27-.42-.4-.15-.16-.55-.4-1.55-1.22-.76-.68-1.84-1.66-2.77-2.9-.96-1.2-1.82-2.6-2.44-3.8.66 1.3.42.9.1.36a53.13 53.13 0 0 1-.71-1.5c-.18-.45-.35-.86-.56-1.32l.03-.1c-.13-.1-1.38-3.24-1.5-3.68-.1-.37.1.1.3.72l.6 1.48c-1.83-4.98-.82-2.5-2.7-7.53-1.15-2.63.1.52-.48-.72-1-2.3-2.12-4.52-3.7-6.95l.43.8-.94-1.4-.96-1.2c-.58-.8-1.24-1.4-1.8-2.04s-1.22-1.1-1.8-1.65c-.6-.5-1.26-.92-1.9-1.4-3.9-2.2-7.5-2.4-10.04-2.14-2.6.25-4.28.9-5.37 1.3-2.17.82-1.97.92-.75.53.6-.15 1.47-.38 2.4-.65.47-.13 1-.17 1.5-.27.5-.07 1-.2 1.5-.22l1.4-.07.62-.03c.2.01.37.03.54.04l1.07.1c3.3.35 5.98 1.66 8.15 3.34 2.17 1.7 3.88 3.73 5.4 5.98 1.5 2.27 2.82 4.78 3.96 7.72 1.14 2.92 2.1 6.4 3.9 10.17.77 1.67 1.64 3.12 2.53 4.4.93 1.26 1.9 2.34 2.94 3.25 2.07 1.78 4.15 2.93 6.17 4.08 2.03 1.16 4.1 2.18 6.08 3.85.8.68 1.63 1.47 2.4 2.4-.57 3.52-.65 7.12-.17 10.46-.04-.2-.1-.3-.24-1.53.2 1.94.6 4.18.83 5.97.25 1.8.32 3.15.26 3.3.15 2.24.03 4.7-.55 7.15-.56 2.45-1.63 4.82-2.82 7-.64 1.07-1.24 2.13-1.95 3.08l-1 1.42-1.03 1.3c-1.33 1.65-2.6 3.17-3.36 4.45l.2-.35c-.47.7-.78 1.34-1.1 1.88l-.8 1.6c-.44 1.06-.94 2.17-1.35 4.03-.06.2-.13.46-.13.42-.36 1.82-.65 4.52-.45 7.12.16 2.6.7 5.06 1.08 6.5l-.01.2c.63 2.36 1.46 4.65 2.42 6.9a70.49 70.49 0 0 1-1-2.54c.3.54 1.03 2.6 2.24 5.25a28.29 28.29 0 0 0-2.54-1.37c-2.28-1.08-4.66-1.9-7.1-2.36-4.9-.96-9.92-.37-14.34 1.3l-1.07.33c-.25.04-1.85.76-3.38 1.7-1.48.9-2.88 1.94-3.37 2.25.03-.92.1-1.84.01-2.7.01.06.06.1.06.42-.02-1.05-.06-2.48.04-2.56-.03-2.5.02-6-.14-7.6l.03.1c-.1-.9-.02-1.18-.07-2.2.01-.06.02-.13.03-.12-.1-1-.02-2.9-.06-3.7l.07-.05v-1.2l1.77-.01-1.17.03 3.64-.01 1.82-.01c.56.01 1.34 0 1.96-.3-.5.2-1.1.22-1.57.16 1.03.03 1.62-.3 1.93-.47.32-.2.42-.27.53-.34.1-.07.2-.15.43-.42.2-.28.6-.8.66-1.86l-.12.05.13-6.9.1-3.2.04-1.7c.02-.7-.18-1.45-.62-2.1-.46-.66-1.17-1.15-1.95-1.37-.37-.12-.85-.14-1.16-.13h-6.35c0-.1 0-.18.01-.3.06.05.05-1 .1-.54.1-1.73-.1-3.53.02-5.76l1.57-.01-1.17.03 3.64-.01 1.82-.01c.56.01 1.34 0 1.96-.3-.5.2-1.1.22-1.57.16 1.03.03 1.62-.3 1.93-.47.32-.2.42-.27.53-.34.1-.07.2-.15.43-.42.2-.28.6-.8.66-1.86l-.12.05.13-6.9.1-3.2.04-1.7c.02-.7-.18-1.45-.62-2.1-.46-.66-1.17-1.15-1.95-1.37-.37-.12-.85-.14-1.16-.13h-5.1l-8.22.02-13.65.05a69.83 69.83 0 0 1 2.36-5.03c1.65-3.22 3.44-6.48 4.1-10.04a4.18 4.18 0 0 0 .16-1c.03-.36.04-.66.04-.66.2-2.18.02-4.4-.6-6.5-.57-2.08-1.26-4.07-1.88-6.1l-.74-2.44c-.45-1.52-1.05-3.65-1.53-6.1-.45-2.44-.77-5.24-.4-7.92.2-1.34.56-2.63 1.1-3.8s1.3-2.16 2.1-3c1.6-1.68 3.4-2.6 4.55-3.2 1.2-.54 1.75-.82 1.35-.75-.37.13-1.83.37-4.24 1.85-1.2.74-2.6 1.86-3.83 3.67-1.2 1.8-2.1 4.33-2.2 7.33l-.01-.32c-.14 3.57.48 6.42 1.06 8.93.62 2.5 1.34 4.7 2.13 6.98.06.78 1.8 5.45 1.94 7.02l-.03-.15c.43 2.03.36 4.2-.12 6.24s-1.33 4-2.16 5.84c.05-.15.05-.25.44-1.1-.6 1.35-1.4 2.9-2.04 4.18s-1.14 2.23-1.23 2.3c-.55 1.14-1.1 2.4-1.62 3.7l-1.55.01c-10.96.04-21.74.07-31.74-.04l-.88-.1c-.38-.13-5.52.2-6.28.07l-2.33.06c-.65-.02-2.03-.05-.87-.08-2.15-.01-2.2.02-3.75.05l-2.3-.08c-8.5-.06-15.7.1-24.63.06-10.73-.16-30.92-.01-42.56.07-16.35.2-35.38-.32-52.12-.1-.27-.01-.76 0-1.18.01s-.76.03-.76.03l-15.33-.02-10.73.01-4.78.01-2.5.01c-1 .01-1.97.5-2.6 1.25-.32.38-.55.83-.68 1.3-.14.47-.13 1-.12 1.38l.02 2.45.04 4.6.05 3.94c-.02.6.14 1.27.4 1.75a3.3 3.3 0 0 0 1 1.11c.74.5 1.43.56 1.78.55s.4-.06.16-.1c-.24-.05-.87-.07-1.64-.6-.37-.27-.77-.68-1-1.27a3.06 3.06 0 0 1-.23-.99c-.01-.36.02-.76.02-1.18l.16-6.34.1-4.2c-.08-1.38 1.12-2.78 2.7-2.67-.14.01-.22.03-.33.04l19.4-.07c.9.17 6.9.02 8.85.07l-.2.01c5.12-.13 10.54.1 15.47-.01-.2.01-.3.06-1.43.06l8.78.04 26.06-.14-.38.03c3.13-.1 4.06-.02 7.56-.07.2.01.44.02.4.03 3.4-.1 9.96-.02 12.72-.06l.18.07 6.8-.02-2.54-.01c.88-.18 5.14.12 10.07 0 4.6.02 9.36-.38 14.15-.3 2.3-.1-2 .14 1.4.07.1.1-1.6.06-.72.14 3.35-.05 5.5.1 9.64.03l.17.07c5.4-.14 10.18.1 13.78-.03 5.57-.06 3.73.22 9.53.08l2.25.1c2.48.02 1.78-.12 4.53-.07-.17.06 3.48.05 1.86.1 6.22.1 12.63-.14 20.83.03 1.78-.12 5.9-.05 7.24-.14.22.05 8.27.01 3.64.13-.4.01-1.1.01-1.05-.01l-.55.07c4.67.14 8.5-.08 13.12-.05-1.37-.02-3.2-.02-1.98-.07l4.3.01-.9.06 6.4.04-.88-.08c3.13.04 4.24.17 7.77.06 1.6-.06-2.97-.1.34-.13l5.44.06 1 .02a2.38 2.38 0 0 1 .79.17c.5.2.93.6 1.18 1.1.27.5.26 1 .24 1.76l-.03 4.14c.1-.5.08.94.1 2.42l-.07.17c.05 2.84.01 3.36-.03 3.87a6.76 6.76 0 0 1-.04.4c-.01.12-.03.27-.1.47-.1.36-.33 1.05-1.3 1.52.1-.07.2-.13.3-.2a2.16 2.16 0 0 1-1.01.48c-5 .16-2.72-.15-8.35.05 2.23-.01 1.05.16-1.7.13l.7-.07c-1.52.02-2.03.05-3.04.03.9-.04.48-.1-1.76-.1l1.5-.1-4.23.13c-3.26-.08-8.44.02-9.78-.08 0 0-7.02-.05-8.63.06 1.4-.07-2.46-.1-1.36-.18-1.82.08-7.2.14-9.34.06l.4-.01c-7.95-.1-13.6.12-20.73.01.33.1-3.44.04-2.5.15-7.38.1-13.46-.23-16.13.12-3.36.02-3.98-.08-5.72-.1l.8-.02-12.8.02c-2.33.03-2.7.2-6.88.15 1.35-.06-.36-.05-1.92-.05 1-.01 1.3-.03-.74-.08-.3.02-.74.03-1.15.04-.02-.01-.1-.01-.06-.02-2.6.02-2.16.04-.94.05-.06.01.04.02.42.04-2.7-.08-7.55.01-7.88-.1l-20 .18c-.73-.06.8-.1 2.7-.13l-4.63.02c.04-.08 2.66-.05 4.1-.06-5.52-.13-11.37.13-17.84.01l-1.34.06-.4-.01c.01.02-.35.04-.83.05l-1.56.04c-.9-.07.06-.16-3.14-.16-2.53-.07-7.2.03-10.5.07 1.8.01 1.2.05.44.08-1.6 0-2.52-.07-3.76-.04l-.12-.07c-.22.07-4.27.08-4.8.1-.9-.07 2.48-.06 2.88-.1l-9.63.01c-3.43.07.62.1-1.02.17l-9.45.03 1.1.08c-5.68.07-9.08.06-12.9-.03l-11.2.2c0-.01.01-.02.01-.04h-1.18v.07c-17 .4-6.02.6.12.67.14 1.44-.16.78.05 2.42-.01-.65.16-.3.13.5l-.07-.2c.02.44.05.6.03.9-.04-.26-.1-.14-.1.5l-.1-.44.13 1.23c-.03.43-.03.97-.03 1.47h-.9l-4.78.01-2.5.01c-1 .01-1.97.5-2.6 1.25-.32.38-.55.83-.68 1.3-.14.47-.13 1-.12 1.38l.02 2.45.04 4.6.05 3.94c-.02.6.14 1.27.4 1.75a3.3 3.3 0 0 0 1 1.11c.74.5 1.43.56 1.78.55s.4-.06.16-.1c-.24-.05-.87-.07-1.64-.6-.37-.27-.77-.68-1-1.27a3.06 3.06 0 0 1-.23-.99c-.01-.36.02-.76.02-1.18l.16-6.34.1-4.2c-.08-1.38 1.12-2.78 2.7-2.67-.14.01-.22.03-.33.04l19.4-.07c.9.17 6.9.02 8.85.07l-.2.01c5.12-.13 10.54.1 15.47-.01-.2.01-.3.06-1.43.06l8.78.04 26.06-.14-.38.03c3.13-.1 4.06-.02 7.56-.07.2.01.44.02.4.03 3.4-.1 9.96-.02 12.72-.06l.18.07 6.8-.02-2.54-.01c.88-.18 5.14.12 10.07 0 4.6.02 9.36-.38 14.15-.3 2.3-.1-2 .14 1.4.07.1.1-1.6.06-.72.14 3.35-.05 5.5.1 9.64.03l.17.07c5.4-.14 10.18.1 13.78-.03 5.57-.06 3.73.22 9.53.08l2.25.1c2.48.02 1.78-.12 4.53-.07-.17.06 3.48.05 1.86.1 6.22.1 12.63-.14 20.83.03 1.78-.12 5.9-.05 7.24-.14.22.05 8.27.01 3.64.13-.4.01-1.1.01-1.05-.01l-.55.07c4.67.14 8.5-.08 13.12-.05-1.37-.02-3.2-.02-1.98-.07l4.3.01-.9.06 6.4.04-.88-.08c3.13.04 4.24.17 7.77.06 1.6-.06-2.97-.1.34-.13l5.44.06 1 .02a2.38 2.38 0 0 1 .79.17c.5.2.93.6 1.18 1.1.27.5.26 1 .24 1.76l-.03 4.14c.1-.5.08.94.1 2.42l-.07.17c.05 2.84.01 3.36-.03 3.87a6.76 6.76 0 0 1-.04.4c-.01.12-.03.27-.1.47-.1.36-.33 1.05-1.3 1.52.1-.07.2-.13.3-.2a2.16 2.16 0 0 1-1.01.48c-5 .16-2.72-.15-8.35.05 2.23-.01 1.05.16-1.7.13l.7-.07c-1.52.02-2.03.05-3.04.03.9-.04.48-.1-1.76-.1l1.5-.1-4.23.13c-3.26-.08-8.44.02-9.78-.08 0 0-7.02-.05-8.63.06 1.4-.07-2.46-.1-1.36-.18-1.82.08-7.2.14-9.34.06l.4-.01c-7.95-.1-13.6.12-20.73.01.33.1-3.44.04-2.5.15-7.38.1-13.46-.23-16.13.12-3.36.02-3.98-.08-5.72-.1l.8-.02-12.8.02c-2.33.03-2.7.2-6.88.15 1.35-.06-.36-.05-1.92-.05 1-.01 1.3-.03-.74-.08-.3.02-.74.03-1.15.04-.02-.01-.1-.01-.06-.02-2.6.02-2.16.04-.94.05-.06.01.04.02.42.04-2.7-.08-7.55.01-7.88-.1l-20 .18c-.73-.06.8-.1 2.7-.13l-4.63.02c.04-.08 2.66-.05 4.1-.06-5.52-.13-11.37.13-17.84.01l-1.34.06-.4-.01c.01.02-.35.04-.83.05l-1.56.04c-.9-.07.06-.16-3.14-.16-2.53-.07-7.2.03-10.5.07 1.8.01 1.2.05.44.08-1.6 0-2.52-.07-3.76-.04l-.12-.07c-.22.07-4.27.08-4.8.1-.9-.07 2.48-.06 2.88-.1l-9.63.01c-3.43.07.62.1-1.02.17l-9.45.03 1.1.08c-5.68.07-9.08.06-12.9-.03l-10.94.2v-.04h-1.17c.01.02.01.04.02.06-17.6.4-6.07.6.05.68-.02.57-.08.78-.1 1.18l-.02-.23.02 3.73c.03.68.2.8.15 2-.06-.4-.05.1-.05.56-.01-.3-.03-.38-.08.22.02.08.03.2.04.34 0 .01-.01.03-.02.02.02.76.04.63.05.28.01.02.02-.01.04-.12-.08.8.01 2.2-.1 2.3.03 2.3.14 3.92.18 5.82-.06.2-.1-.23-.13-.78l.02 1.35c-.08-.01-.05-.78-.06-1.2-.13 1.6.13 3.3.01 5.2l.06.4-.01.1c.03-.01.08.42.1.7-.07.27-.16-.02-.16.9-.07.74.03 2.1.07 3.06.01-.52.05-.35.08-.13 0 .47-.07.74-.04 1.1l-.1.04c.1-.18.1 1.22.13 1.4-.07.27-.06-.72-.1-.84l.01 2.8c.01.1.01.16.02.22l-14.66-.14-.01 1.84c.1-.5.06.9.12 2.44l-.07.18c.12 1.47.32 2.33.44 2.9s.2.82.26 1.1.16.53.36 1.07c.26.5.58 1.32 1.57 2.4.1.1.2.2.32.3.22.17.42.35.66.48 1.12.83 1.97 1.1 2.56 1.3s.97.26 1.36.34l.05 3a3.29 3.29 0 0 0 1.52 2.61c.72.44 1.35.48 1.68.47.33-.02.38-.06.15-.1-.23-.05-.8-.07-1.54-.55-.73-.45-1.53-1.55-1.3-3.14l.06-2.2c.26.02.55.03.92.05.65 0 1.57-.02 2.98-.07-2.23.01-1.05-.16 1.7-.13l-.7.07c1.52-.02 2.03-.05 3.04-.03-.9.04-.48.1 1.76.1l-1.5.1 4.23-.13c3.26.08 8.44-.02 9.78.08l8.63-.06c-1.4.07 2.46.1 1.36.18 1.82-.08 7.2-.14 9.34-.06l-.4.01 20.73-.01c-.33-.1 3.44-.04 2.5-.15 7.38-.1 13.46.23 16.13-.12 3.36-.02 3.98.08 5.72.1l-.8.02 12.8-.02c2.33-.03 2.7-.2 6.88-.15-1.35.06.36.05 1.92.05-1 .01-1.3.03.74.08.3-.02.74-.03 1.15-.04.02 0 .1.01.06.02 2.6-.02 2.16-.04.94-.05.06-.01-.04-.02-.42-.04 2.7.08 7.55-.01 7.88.1l20-.18c.73.06-.8.1-2.7.13l4.63-.02c-.04.08-2.66.05-4.1.06 5.52.13 11.37-.13 17.84-.01l1.34-.06h.4c-.01-.02.35-.04.83-.05l1.56-.04c.9.07-.06.16 3.14.16 2.53.07 7.2-.03 10.5-.07-1.8-.01-1.2-.05-.44-.08 1.6 0 2.52.07 3.76.04l.12.07c.22-.07 4.27-.08 4.8-.1.9.07-2.5.06-2.9.1l9.63-.01c3.43-.07-.62-.1 1.02-.17l9.45-.03-1.1-.08 12.9.03c42.34-.68 8.92-.93 8.92-.93-16.67-.2-25.27.06-45.1.12l-40.14-.14-26.25.04c-4 .13-11.07 0-15.8.1l-1.83-.07a111.82 111.82 0 0 1-5.18.02l.1-.02-6.4.05.1-.02-2.96.01.5-.03-12.5.04.32.1c-8.25-.1-11.27.08-18.72-.03h.1c-9.4.23-14.88-.16-24.58.06 1.2-.03-.52-.04-.42-.07l-6.3.05c-1.76.03-2.97.07-3 .16-3.26 0-2.65-.05-3.08-.12.01.04-.7.06-1.72.08l-3.62.01c.36.02.77-.01 1.16-.01-1.24.03-2.36-.02-3.46-.38-1.1-.35-2.08-.97-2.86-1.8.3.35.57.7.93 1-.38-.27-.63-.53-.83-.73-.2-.2-.32-.38-.42-.5-.2-.26-.25-.35-.3-.45-.06-.22-.27-.32-.98-1.94l-.1.1c-.57-1.45-.76-2.83-.8-4.12-.01-.64-.01-1.27.02-1.9l.03-.95.03-.48c.15.02 1.3.05 2.14.07l2.9.06 64.6-.04.88.1c.38.13 5.52-.2 6.28-.07l2.33-.06c.65.02 2.03.05.87.08 2.15.01 2.2-.02 3.75-.05l2.3.08 24.64-.06c10.73.16 30.93.01 42.56-.07l52.13.1c.27.01.76 0 1.18-.01s.76-.03.76-.03l15.33.02 20.62-.04.01 2.45c0 .95-.1 1.88-.24 2.78-.33 1.77-1 3.37-1.96 4.5-.93 1.17-2.13 1.8-3.1 2.13-1 .35-1.8.4-2.23.45-.44.06-.54.1-.18.13.35.01 1.17.1 2.47-.22 1.27-.3 3.14-1.23 4.45-3.45.65-1.1 1.14-2.46 1.4-4.04.14-.8.2-1.63.23-2.5l.06-3.12-3.67-.07.38-.03-9.65-.05.08-1.22.03.1c.07-2.44.08-3.98-.06-5.67.17-.27.02-2 .07-2.58l.01.05c-.01-.12-.01-.25-.01-.37l.67-.55c.46-.36.94-.76 2.38-1.63-.07.08.84-.47 1.6-.84.74-.4 1.3-.63.44-.18 3.37-1.68 7.08-2.9 11.2-3.12 4.1-.22 8.6.66 13 2.98 1 .4 2.57 1.3 3.96 2.3a32.74 32.74 0 0 1 3.19 2.7c.1.1 1.8 1.94 2.75 3.44.48.74.84 1.34.9 1.47.05.12-.16-.27-.96-1.42-.27-.4-.8-1.07-.73-1.04-.16-.16-.3-.34-.46-.5 1.68 2.26 2.93 4.5 3.88 6.9a29.83 29.83 0 0 1 1.95 7.68c-.17-1.66-.65-3.84-.3-2.4.33 1.7.53 3.46.6 5.2l-.13-1.08a39.05 39.05 0 0 1 .08 3.9c-.02.65-.05 1.3-.1 1.94l-.1 1c-.07.6-.17 1.22-.28 1.83.14-.68.28-1.44.36-1.94a24.94 24.94 0 0 1-.29 1.87 52.27 52.27 0 0 1 1.89-.2c.34-.02.66-.03.97-.04.63-.02 1.22-.02 1.83-.02 1.23.01 2.57.04 4.5.2 1.95.14-3.6-.47.43-.08 2.52.34 5.68 1.05 8.6 2.65 1.45.8 2.82 1.8 3.95 3.02a13.36 13.36 0 0 1 2.63 4.09c-.16-.57.55.96 1 2.73l-.02.22c.27.82.4 1.5.5 2.04l.26 1.28c.08.66.1.98.12 1.3.01.3.06.62.1 1.28.02.66.12 1.66.08 3.35l-.04-.6c.06.6.07 1.2.06 1.8-.03.75-.13 1.36-.2 1.87-.06.5-.17.92-.25 1.26-.15.68-.3 1.1-.46 1.5-.13.43-.33.84-.6 1.53-.16.33-.3.74-.57 1.23l-.2.4-.48.76c-.3.5-.86 1.17-1.3 1.78.14-.01.4-.07.65-.1-.24.04-.5.1-.62.1l1.08-1.36c.2-.28.28-.4.3-.37.04.02-.37.63-1.08 1.56.43-.05 1.14-.2 1.78-.27.34-.04.7-.1 1.06-.1l.7-.03-.42.06-.52.07.74-.05c.2-.02.37-.02.54-.02l.9-.02c.54.01 1 .03 1.6.08-1.1 0-.57-.03 2.1.37-.6-.1-1.2-.12-1.8-.16 1.7.1 3.37.45 5.02.9 1.9.6 4.2 1.74 6.05 3l1.3.96c.4.32.74.66 1.07.95l.85.8c.24.23.4.46.53.62l.9 1.02c.6.58 1.17 1.56 1.88 2.5.7.96 1.28 2.08 1.86 3l1.15 2.18c-.44-.75-.06-.1.2.66.27.74.56 1.53.27.92.45 1 1.17 3.06 1.3 5.22.2 2.18-.6 4.3-1.34 5.22.1-.12.16-.26.23-.4-.28.48-.64.9-1 1.25-.08.07-.22.2-.26.22-.01.01-.03.02-.04.01h-4.17l-6.3.03H611.7c.4.1-4.27.04-3.1.15-9.15.1-16.68-.23-19.98.12-4.16.02-4.93-.08-7.08-.1l1-.02-15.85.02c-2.9.03-3.35.2-8.53.15 1.68-.06-.44-.05-2.38-.05 1.24-.01 1.62-.03-.92-.08-.2.01-.47.01-.75.02-.05-.2-.1-.4-.18-.63.12.53.1.62.02.44-.04-.1-.1-.24-.15-.44s-.12-.47-.14-.62l.1.17c-.1-.4-.16-.54-.2-.8.1.24.13.1-.01-.5l.18.38-.38-1.1c-.12-.9-.5-2.27-.5-2.65 0 0-.36-1.9-.56-2.3.15.37-.05-.68.1-.4-.18-.47-.56-1.9-.6-2.5l.03.1c-.38-2.16-.9-3.64-1.23-5.6-.07.1-.24-.92-.3-.65-.54-1.97-.57-3.68-1.06-4.32-.2-.9-.15-1.1-.24-1.56l.06.2-.77-3.44c-.17-.62-.35-.7-.55-1.82.14.35.03-.1-.06-.53.07.27.1.35.03-.22-.04-.07-.07-.2-.1-.3 0-.01 0-.03.01-.02-.17-.7-.17-.57-.1-.24-.01-.01-.02.02-.01.12-.08-.75-.45-2.03-.36-2.15-.48-2.1-.92-3.6-1.34-5.35.01-.2.15.2.28.7l-.3-1.24c.08-.01.2.7.3 1.1-.2-1.5-.8-3.04-1.05-4.8l-.14-.35-.01-.1c-.03.01-.16-.37-.23-.63.01-.26.16-.02-.03-.88-.08-.7-.45-1.93-.68-2.82.1.48.02.34-.05.14-.1-.43-.08-.7-.18-1.02l.08-.06c-.05.2-.34-1.1-.4-1.26.02-.26.2.66.28.75l-.58-2.6c-.27-.9-.05.2-.23-.24-.2-.8-.43-1.6-.58-2.54l-.02.3c-.4-1.52-.6-2.44-.73-3.5-.76-2.74-1.24-4.26-1.52-5.02a38.22 38.22 0 0 0 1.56 0l-.04-.12 1.8.01a3.29 3.29 0 0 0 1.73-.49c1-.6 1.6-1.74 1.6-2.85l.1-3c0-.15.01-.3.01-.45-.4.05-.78.1-1.2.1l-.02 3.24c.04-.26.07.04.06.38-.01.36-.18.9-.54 1.32l-.14.04c-.35.38-.74.56-1.06.65-.33.1-.55.08-.83.08-.5-.01-.75-.03-1-.05-.48-.04-.96-.1-3.6-.05l.46-.05-1.4.16c-4.75.15-2.56-.15-7.84.05 2.1-.01.98.16-1.6.13l.65-.07c-1.42.02-1.9.05-2.84.03.85-.04.45-.1-1.64-.1l1.4-.1-3.95.13c-3.05-.08-7.9.02-9.14-.08 0 0-6.56-.05-8.06.06 1.32-.07-2.3-.1-1.27-.18-1.7.08-6.72.14-8.73.06l.38-.01c-7.43-.1-12.7.12-19.38.01.3.1-3.22.04-2.35.15-6.9.1-12.58-.23-15.07.12-3.14.02-3.72-.08-5.34-.1l.75-.02-11.96.02c-2.18.03-2.52.2-6.43.15 1.26-.06-.33-.05-1.8-.05.93-.01 1.22-.03-.7-.08-.27.02-.7.03-1.08.04-.02-.01-.1-.01-.05-.02-2.44.02-2.02.04-.88.05-.06.01.04.02.4.04-2.53-.08-7.06.01-7.37-.1l-18.7.18c-.7-.06.74-.1 2.5-.13l-4.33.02c.04-.08 2.5-.05 3.82-.06-5.16-.13-10.63.13-16.68.01l-1.25.06-.36-.01c.01.02-.33.04-.77.05l-1.46.04c-.85-.07.06-.16-2.93-.16-2.37-.07-6.73.03-9.83.07 1.67.01 1.13.05.4.08-1.5 0-2.36-.07-3.52-.04l-.1-.07c-.2.07-4 .08-4.5.1-.85-.07 2.32-.06 2.7-.1h-9c-3.2.07.58.1-.95.17l-8.83.03 1.03.08c-5.3.07-8.5.06-12.07-.03l-8.62.17h-5.93c.34.04.8.07 1.36.1L323 423c0-.06.01-.13.01-.18h-.27c-.02.06-.04.13-.07.2-6.4.22-3.93.36-.15.45-.3.97-.6 2.26-.6 2.26-1.16 4.45-1.42 6.82-2.52 12.2-.98 4.33-1.42 5.7-2.26 9.72-.65-.45-1.3-.9-2-1.3l-.6-.37c-.4-.22-1-.5-1.74-.9-1.47-.76-3.65-1.6-6.18-2.3-2.54-.66-5.48-1.07-8.4-1-2.9.02-5.76.5-8.15 1.16-4.8 1.37-7.7 3.3-6.9 3 .4-.1 1.73-.78 4.46-1.64 2.7-.83 6.92-1.94 12.84-1.47-.1 0-.2 0-.32.01a34.91 34.91 0 0 1 4.77.67c1.45.3 2.73.77 3.97 1.12l1.76.7.86.34.82.4 1.62.78 1.56.9c.13.15.53.37 1 .74.12.1.25.2.38.28l-1.48 7.04c-.1 1.1-.65 2.98-.82 4.28l-.18.48c-.06.45-.15.97-.28 1.4l-.01-.03c-.1.67-.28 1.4-.33 1.73v-.03l-.16.8v-.14a41.57 41.57 0 0 1-.7 3.37l.1-.07c-.58 2.2-.58 3.05-1.13 5.04v-.03c-.33 2.6-1.02 3.98-1.38 6.64.04-.33-.07.13-.1.1-.24 1.2-.5 2.5-.34 2.55-.2.88-.2.7-.3.8.02 0 .02.04.02.12s-.01.15-.05.36c-.06.35-.15.8-.24 1.24l-.01-.1v.1c-.62.01-1.14.03-.76.08-6.27.1-11.44-.23-13.7.12-2.85.02-3.38-.08-4.86-.1l.68-.02-10.87.02c-.17 0-.3.01-.46.01-.25-1.67-.92-4.36-1.9-6.6-.26-.6-.52-1.18-.78-1.7l-.76-1.35-.72-1.25c-2.4-3.75-5.26-6.54-8.3-8.66a29.12 29.12 0 0 0-1.16-.77c.1-.2.22-.43.34-.64 2-4 4.13-6.83 5.84-8.87 1.72-2.05 3.1-3.3 3.97-4.13 1.78-1.63 1.6-1.57.53-.82-1.08.77-2.96 2.36-4.43 3.92-1.48 1.54-2.6 2.98-2.6 2.98a42.9 42.9 0 0 0-4.5 7.06 31.01 31.01 0 0 0-7.71-3.24c-3.46-.92-7.18-1.32-11.27-.94l-1.55.16c-.52.06-1.04.2-1.58.28-.53.1-1.08.2-1.62.33l-1.4.4-.15.05c-.03-.01 0-.1 0-.13l.05-.52c.03-.3.05-.6.07-.9.07-1.23.07-2.5-.03-3.82-.36-4.64-1.67-8.3-3.26-11.27-1.57-3-3.5-5.33-5.66-7.37a28.09 28.09 0 0 0-7.88-5.19c-3.18-1.38-7.07-2.42-11.9-2.4-.58-.03-1.15.03-1.73.07-.58.05-1.16.07-1.74.15-1.15.22-2.33.32-3.46.68l-1.7.46-1.16.43c-.03.02-.06.03-.04-.02l.03-.16c.06-.3.12-.58.16-.88a22.86 22.86 0 0 0-2.02-13.68c-1.02-1.88-2.6-4.44-4.85-6.54-.67-.64-1.4-1.22-2.13-1.77-.02-1.5-.01-3.04.03-3.92l.01.32-.01-16.44c-.1.26-.04-2.73-.15-2-.1-5.85.23-10.67-.12-12.78-.02-2.66.08-3.16.1-4.53l.02.63-.02-10.14c-.03-1.85-.2-2.14-.15-5.45.06 1.07.05-.28.05-1.52.01.8.03 1.04.08-.6-.02-.23-.03-.58-.04-.9.01-.01.01-.08.02-.05-.02-2.07-.04-1.7-.05-.75-.01-.05-.02.03-.04.33.08-2.15-.01-6 .1-6.25l-.18-15.85c.06-.58.1.63.13 2.13l-.02-3.67c.08.03.05 2.1.06 3.24.13-4.37-.13-9.02-.01-14.14l-.06-1.06.01-.3c-.02.01-.04-.28-.05-.66l-.04-1.24c.07-.73.16.05.16-2.5.07-2-.03-5.7-.07-8.33-.01 1.42-.05.96-.08.35 0-1.27.07-2 .04-2.98l.07-.1c-.07-.18-.08-3.38-.1-3.8.07-.72.06 1.97.1 2.3v-7.63c-.07-2.72-.1.5-.17-.8l-.03-7.5-.08.87c-.06-4.5-.06-7.2.03-10.24l-.4-14.33c.13 0 .25-.01.4.01l-.16-.08c.82-.07 1.3-.06 1.86.03 6.1-.68 1.28-.93 1.28-.93-2.4-.2-3.64.06-6.5.12-2.5-.04-3.17-.2-5.77-.14l-1.9.01c-.63.01-1.3.04-1.8.01-.53.1-1.35-.3-1.9-.5l-.16-.18c-.2-.08-.4-.2-.53-.37l.02-.01c-.27-.16-.48-.44-.6-.54h.02c-.08-.1-.16-.2-.23-.3l.06.03c-.36-.4-.62-.9-.75-1.38l-.07.06c-.2-1.04-.3-1.4-.2-2.5l.02.01c-.22-1.4.07-2.03.35-3.25-.04.15.07-.04.08-.02.2-.54.58-1.02.45-1.14.28-.33.27-.23.35-.23-.06-.05.18-.34.44-.56-.04.04-.07.08-.1.12.24-.2.5-.4.77-.57l-.24-.02c.47-.23.2.07.62-.18l-.05-.1c.68-.27 1.14-.2 1.8-.17 3 .01 6.4-.26 9.25-.06l.13.1c.06.13.8-.2.9-.07l.33-.06c.1.02.3.05.13.08.3.01.32-.02.54-.05l.33.08c1.22.06 2.26-.1 3.54-.06.4.04.86.06 1.37.07.52.01 1.08-.01 1.56.03a5.23 5.23 0 0 1 2.58 1c.9.62 1.5 1.75 1.62 2.9a6.18 6.18 0 0 1 .03.86l-.03.95c-.02.62.01 1.3.03 1.8a.67.67 0 0 0 0 .25c-.1.65-.33 1.28-.68 1.84 0 0-.3.53-.87 1.07-.56.56-1.43 1.04-2.16 1.26-.72.23-1.28.28-1.15.44.07.06.3.17.82.2.5.03 1.28-.01 2.3-.47l-.04.05c1.15-.63 1.7-1.36 2.05-2.2.24-.03.5-.96.6-1.24l.01.03c.1-.78.37-1.66.24-2.35.01.03.06.04.06.2-.02-.52-.06-1.22.04-1.26 0-.58-.02-1.48-.26-2.18-.22-.73-.6-1.33-.9-1.64l.05.03c-.37-.34-.38-.5-.8-.87-.01-.03-.03-.06-.03-.06-.42-.3-1.17-.9-1.6-1.05.07-.28.13-.57.2-.86l.3-1.27.57-2.53c.38-1.67.78-3.3 1.24-4.82l.12-.14c.14-.04.06-1.04.2-1.15l.05-.43c.05-.1.14-.36.1-.14.1-.4.08-.4.1-.7l.18-.4c.44-1.52.6-2.86 1.04-4.47.64-1.9 1.4-5.6 1.83-7.7.54-3 1.9-6.32 2.42-9.4a1.15 1.15 0 0 0 .05-.36l.7-2.77s1.24-4.98 1.42-6.62l3.56.02h1.5l1-4.1c.33-1.4.64-2.8.8-3.72.32-1.86.06-1.84-1.85 3.87v-.1l-.5 1.83-.2.8-.05.2-.02.14-.3.03-.68.06c-.23-.17-1.72-.02-2.2-.07l.05-.01c-1.28.13-2.63-.1-3.86.01.05-.01.07-.06.36-.06-.9.02-2.12.06-2.2-.04-2.14.03-5.13-.02-6.5.14l.1-.03c-.78.1-1 .02-1.9.07-.05-.01-.1-.02-.1-.03-.85.1-2.5.02-3.17.06l-.04-.07-1.7.02.63.01c-.22.18-1.28-.12-2.5 0-1.15-.02-2.33.38-3.53.3-.57.1.5-.14-.35-.07-.03-.1.4-.06.18-.14-.84.05-1.37-.1-2.4-.03l-.04-.07c-1.35.14-2.54-.1-3.44.03-1.4.06-.93-.22-2.38-.08l-.56-.1c-.62-.02-.44.12-1.13.07.04-.06-.87-.05-.47-.1-1.55-.1-3.15.14-5.2-.03-.44.12-1.47.05-1.8.14-.05-.05-2.06-.01-.9-.13.1-.01.27-.01.26.01l.14-.07c-1.17-.14-2.12.08-3.27.05.34.02.8.02.5.07l-1.07-.01.22-.06-1.6-.04.22.08c-.32-.02-.55-.05-.77-.07l-.08-.01h-.01-.02c-.01-.01-.03-.01-.05 0-.01-.01-.02-.02-.05-.04-.08-.1-.04.27-.12.03l-.35-1.76-.45-2.03c-.05.14-.14-.2-.25-.56l.06-.06c-.45-1.35.03-.54-.4-1.9l-.16-.2-.1-.28-.03-.06c-.01-.03-.01-.06 0-.07.01-.03.05-.02.04-.07.03 0 .04-.02.1-.07-.1.01-.28-.16.2-.13-.05.02-.14.05-.14.07.32-.02.5-.05.73-.03-.23.04-.12.1.44.1l-.37.1 1.05-.13c.8.08 2.1-.02 2.44.08 0 0 1.75.05 2.15-.06-.35.07.6.1.34.18.45-.08 1.8-.14 2.33-.06l-.1.01c1.98.1 3.4-.12 5.17-.01-.08-.1.86-.04.63-.15 1.84-.1 3.36.23 4.02-.12.84-.02 1 .08 1.43.1l-.2.02 3.2-.02c.58-.03.67-.2 1.72-.15-.34.06.1.05.48.05-.25.01-.33.03.2.08.07-.02.18-.03.3-.04 0 .01.02.01.01.02.65-.02.54-.04.24-.05.02-.01-.01-.02-.1-.04.68.08 1.88-.01 1.97.1 1.96-.03 3.36-.14 5-.18.18.06-.2.1-.67.13l1.16-.02c-.01.08-.66.05-1.02.06 1.38.13 2.84-.13 4.45-.01l.33-.06.1.01c-.01-.03.36-.08.6-.1.23.07-.02.16.78.16.63.07 1.8-.03 2.62-.07-.45-.01-.3-.05-.1-.08.4 0 .63.07.94.04l.04.1c-.16-.1 1.04-.1 1.2-.13.23.07-.62.06-.72.1l2.4-.01c.85-.07-.16-.1.25-.17.75-.02 1.5-.08 2.36-.03l-.27-.08c.57-.03 1.04-.04 1.47-.04.3.3.37.2.36 0 .5.01.93.03 1.4.07 10.56-.68 2.23-.93 2.23-.93a57.36 57.36 0 0 0-3.84-.06c-.03-.1-.06-.17-.06-.17-.53-1.6-1.12-2.3-2-4.1-.7-1.62-.74-2.1-1.56-3.75-.35-.8-.77-1.63-1.15-2.4-.28-.32-.47-1.02-.76-1.4v-.2c-.1-.14-.2-.3-.24-.47h.02c-.15-.2-.24-.47-.3-.57h.02l-.13-.27.05.03c-.23-.37-.42-.77-.56-1.13l-.07.06c-.26-.8-.55-1-.76-1.73h.02c-.6-.78-.48-1.43-1.1-2.24.08.1.02-.07.04-.06-.2-.4-.42-.84-.58-.78-.14-.3-.06-.26-.02-.33-.07.03-.22-.22-.33-.45l.08.1-.33-.68-.07.2c-.13-.4.1-.17-.1-.5l-.1.06c-.26-.5-.32-.9-.66-1.37-.83-.9-2.03-1.47-3.24-1.62a6.94 6.94 0 0 0-.91-.05l-.82.01c-.05 0-.1-.01-.16-.01.04-.17.05-.36.06-.5-.05.15-.07.1-.08.02.03-.14.1-.2.1-.32l.1.01c-.1.04-.01-.38-.05-.44.08-.07.03.23.07.27.08-.56.04-.28.1-.84-.03-.3-.1.04-.16-.1.02-.26-.03-.52.05-.82l-.1.1c-.03-.5-.01-.78.1-1.1-.3-1.83-.54-2-.7-1.75s-.23.96-.23.96c-.22 1.4.01 2.13-.2 3.7-.07.34-.17.6-.28.78-.07-.01-.14 0-.2-.01l-.1-.1c-.04-.13-.56.2-.64.07l-.24.06c-.07-.02-.2-.05-.1-.08-.22 0-.22.02-.38.05l-.23-.08c-.5-.04-1 0-1.47.03-.2.01-.43-.03-.68-.08-.3-.02-.57-.07-.82 0l-.2-.06a2.22 2.22 0 0 1-.37.09c-1.08-.02-2.4.08-3.27.14a8.27 8.27 0 0 1-1.12.04c-.06.02-.13-.2-.17-.4l.04.1-.1-.6-.13.14c0-.33.16-.1.1-.4l-.12.02c-.02-.45.14-.73.2-1.17-.02-.9-.1-1.85-.16-2.78-.07-.92.03-1.75.43-2.45l.1-.03c.13.03.01-.46.14-.47.01-.06.02-.12.04-.2.05-.03.12-.1.1-.02.1-.14.07-.15.1-.28.05-.04.1-.07.17-.1.43-.48.7-1 1.3-1.37.4-.16.9-.44 1.48-.64.57-.2 1.18-.3 1.64-.36.65-.1 1.36.13 1.97.46.62.34 1.13.77 1.67 1.14.02.04.13.1.14.08.27.3.52.6.72.95a8.38 8.38 0 0 0 .4.73 9.4 9.4 0 0 1 .49 1.44c.1.44.2.77.35.7.1-.08.4-.58.32-1.9l.04.03c-.18-.76-.4-1.22-.8-1.6.1-.17-.35-.53-.43-.7h.02c-.4-.26-.6-.8-1.05-.98.02 0 .06-.03.15.03-.28-.2-.68-.4-.66-.5-.7-.42-1.78-.8-2.32-.7l.04-.02c-.3.07-.37-.06-.7-.01-.02-.01-.04-.02-.04-.03-.32.08-.9.02-1.16.1l-.02-.06c-.2.04-.4.06-.6.12a.91.91 0 0 1 .23-.03c-.04.2-.5-.02-.9.24-.42.12-.63.66-1.02.8-.13.18.08-.2-.14 0-.06-.08.1-.13-.02-.15-.24.2-.47.2-.74.47l-.06-.05c-.3.42-.75.58-.87.92-.25.45-.4.13-.57.67l-.2.13c-.14.2.03.2-.13.4-.05-.04-.2.27-.18.1-.33.5-.3 1.15-.56 1.9.1.18.01.56.1.7-.07.04-.01.72-.13.32-.01-.03-.01-.1.01-.1l-.07-.05c-.14.4.08.73.06 1.13.02-.12.02-.28.07-.17v.37l-.06-.08-.02.56.07-.08c-.03.27-.16.37-.04.68.07.14.1-.26.13.02a11.29 11.29 0 0 0-.08 1.38c.08-.05.1.08.12.2l-.07.02c.15.5-.15.2-.01.7l.1.08c.2.4-.07.3.1.63l-.3-.03c-.46-.04-.88-.08-1.37-.08a2.76 2.76 0 0 0-1.48.4c-.07.01-.2.12-.2.13a4.98 4.98 0 0 0-1.38 1.06s-.36.38-.7.93c-.36.55-.7 1.27-.9 1.85-.2.57-.24 1-.07.95.18-.03.54-.57 1.43-1.65l.01.05c.47-.67.77-1.04 1.04-1.53.18.06.47-.43.66-.47l-.01.02c.3-.4.84-.36 1.2-.54-.01.02-.01.06-.1.08.3-.1.7-.13.76-.03.87-.03 2.08.02 2.64-.14l-.04.03c.32-.1.4-.02.77-.07.02.01.04.02.04.03.35-.1 1-.02 1.3-.06l.02.07.7-.02-.26-.01c.1-.18.52.12 1.02 0 .47.02.95-.38 1.43-.3h.06c-.03.04-.15.12.08.08.01.1-.16.06-.07.14.34-.05.56.1.98.03l.02.07c.55-.14 1.03.1 1.4-.03.56-.06.38.22.96.08l.23.1c.25.02.18-.12.46-.07-.02.06.35.05.2.1.63.1 1.28-.14 2.1.03.18-.12.6-.05.7-.14.02.04.75.08.32.15-.04.01-.1 0-.1-.02l-.05.07c.4.17.75.03 1.14.18-.1-.07-.27-.1-.15-.12l.36.14-.1.03c.17.08.34.16.5.27l-.03-.1c.23.17.24.32.56.4.15.04-.16-.24.1-.1.28.26.64.7.9 1.1.04-.1.12.02.2.12l-.05.05c.35.37-.04.23.26.63l-.07-.02c.07.01.13.04.2.06.32.38-.04.3.38.74-.1-.2.1-.16.2.1l-.1-.04c.08.13.13.17.16.27-.07-.07-.12 0-.01.2l-.15-.1.3.34c.07.33.37.77.34.93 0 0 .25.67.42.77-.12-.1.02.26-.1.2.15.14.43.6.45.84l-.03-.03c.26.77.68 1.2.9 1.9.07-.06.18.3.24.17.4.64.36 1.33.8 1.44.16.3.1.4.15.57l-.05-.07a18.67 18.67 0 0 1 .56 1.17c.13.2.3.17.43.57-.1-.1-.03.05.03.2-.05-.1-.1-.1-.04.1.03.02.06.06.1.1.12.24.12.2.08.08.01 0 .02-.01.02-.05.04.28.32.7.24.77.35.7.7 1.18 1 1.77-.02.1-.13-.03-.23-.2l.2.42c-.08.03-.15-.23-.23-.35.1.56.6 1 .76 1.64l.1.1.01.04c.03-.02.13.1.18.18-.03.1-.15.06-.01.35.05.26.33.65.5.94-.06-.17 0-.13.05-.07.07.15.04.26.12.36l-.08.05c.05-.1.26.35.32.38-.03.1-.16-.2-.22-.22l.42.88c.2.3.06-.1.2.02.14.27.33.52.42.86l.03-.14c.3.5.43.8.52 1.2l.42.62-6.55.17c-4.35-.04-5.5-.2-10-.14-2.15-.01-4.45.02-6.55.04-1 .13-2.76 0-3.94.1l-.46-.07c-.4.04-.88.06-1.3.02l.03-.02c-.6.05-1.3.02-1.6.05l.03-.02h-.74l.13-.03c-1.06.06-2.15.06-3.12.04l.08.1c-2.06-.1-2.8.08-4.67-.03l.03-.02c-.95.1-1.73.08-2.5.06.05-.13.08-.26.03-.37l.02.02c-.07-.1.02-.1.01-.2h.03c-.06-.12.08-.22.07-.3l.06.02.05-.16-.04.05c-.16-.1.16-.07.1-.22.07-.1-.26-.36-.13-.43-.06-.1.1.1.08 0 .1.04.04.06.12.07-.01-.1.14-.08.12-.2l.07.03c-.07-.17.2-.18.1-.3 0-.15.24.01.16-.18l.1-.01c.04-.05-.1-.1-.02-.13.06.03.08-.06.12 0 .15-.1-.01-.33.23-.44-.1-.1.01-.15-.06-.22.05.02.1-.18.15-.03 0 .01 0 .03-.02.02l.06.04c.17-.05.01-.22.08-.3-.04.02-.05.06-.08.02l.05-.1.05.04.1-.13h-.08c.07-.05.2-.02.13-.15-.04-.06-.12.02-.1-.06.1-.07.22-.18.3-.28-.08-.02-.07-.05-.07-.1l.07.03c-.04-.17.17.02.15-.14l.04.03-.13-.1c-.1-.17.17 0 .04-.2-.01.05-.16-.04-.1-.1l.06.04c0-.04-.02-.06 0-.08.03.04.1.05.1 0l.07.07-.08-.15c.1-.04.06-.2.17-.18 0 0 .1-.13.03-.2.05.06.1-.01.17.04-.05-.07-.06-.22.04-.23v.01c.16-.14.03-.35.2-.46-.08-.03 0-.1-.1-.12-.03-.2.34-.2.05-.4.02-.08.1-.05.15-.1h.01c.04-.15.05-.2.1-.3-.01-.06-.15-.14-.07-.2.04.06.05.01.07-.02 0 .03.02.04.08.01-.02-.01-.02-.03-.03-.04.02-.06-.01-.05-.03-.03-.01-.01-.02-.01-.04-.01.1-.03.07-.17.17-.13.05-.18.01-.35.03-.5.06.01.1.06.1.1l.03-.1c.07.03.02.08.02.1.17-.07-.01-.3.17-.4l-.04-.06h.01c-.03-.01-.06-.06-.06-.1.07.01.15.07.17 0 .1-.03.04-.17.04-.26-.03.03-.06.01-.07-.02.01-.04.1-.03.07-.07l.1.04c-.1-.02-.05-.13-.08-.16.07.01.03.08.07.1.05-.14.03-.07.08-.22-.03-.1-.1-.02-.15-.1.01-.07-.02-.17.07-.22l-.1-.01c0-.15.04-.22.15-.27-.2-1.2-.76-.58-.76-.58-.33.3-.2.58-.33 1.04-.2.36-.4.4-.52.82-.1.18-.15.4-.22.6.08.14-.1.24-.06.4l-.08.01c.02.05.02.1-.03.12l-.02-.01c.03.08-.03.12-.02.16l-.02-.01-.02.07-.02-.02c.01.12-.03.2-.1.3l.08.03c-.17.14-.03.28-.2.4l-.02-.01c.12.3-.3.26-.18.56-.01-.04-.05-.01-.06-.02-.02.1-.06.22.1.3-.03.07-.07.04-.14.02.07.03.07.1.05.16v-.04l-.05.17.14.03c-.07.07-.17-.05-.17.05l.1.05c-.07.1-.27.1-.4.18-.26.45-.2 1.08-.6 1.43l-.1-.02c-.12-.04.12.2 0 .17l.03.07c-.03 0-.06.03-.08-.01-.03.05-.01.05.01.1l-.1.02c-.14.16-.07.38-.2.56-.25.17-.3.67-.35.96.01.38-.48.6-.6.94-.7-.02-1.44-.02-2.32.06.3-.03-.13-.04-.1-.07-1.1.02-2.3.04-2.32.2-.8 0-.66-.05-.77-.12-.02.04-.1.06-.5.08-.37.02-.84.03-1.3.03l.03.13-.04-.14.3-.02h-.32l.56 2.13.05-.38c.2.94-.1.28.15 1.17l.1-.04c.3 1.3.32 2.1.55 3.37l.8 3.18 5-.07-.04.01c-.02.2-.01.3.15.4-.16.06.02.15-.03.2h-.01c.16.07-.05.24.1.32-.01 0-.06.01-.07-.01.04.07.1.16.01.2.07.17.08.43.27.5h-.03c.12.04.04.08.1.14-.01.01-.02.01-.02.01.12.04.07.2.12.25l-.06.02.05.14v-.06c.18-.03-.1.13.05.2 0 .1.42.1.35.22.1.03-.15-.01-.06.05-.1.03-.07-.02-.14.02.06.06-.07.14.02.2l-.07.02c.16.08-.04.23.1.27.1.1-.2.13-.03.2l-.1.07c0 .05.13.01.1.07-.06.01-.03.08-.1.06-.06.15.2.23.08.43.13.01.08.1.18.1-.05.02.03.17-.1.1-.01-.01-.01-.02.01-.02h-.07c-.1.13.12.16.12.26.02-.03 0-.07.06-.06v.1h-.06v.14l.07-.04c-.02.07-.14.13-.02.17.07.02.08-.1.12-.02-.03.1-.07.25-.07.36.08-.03.1 0 .1.03l-.07.02c.13.1-.15.08-.04.18h-.05l.16-.01c.17.07-.14.1.1.16-.02-.04.15-.06.14 0h-.07c.02.03.05.03.04.06-.04-.01-.1.02-.08.06h-.1l.15.05c-.06.1.06.17-.03.22 0 0-.01.16.1.16-.07-.01-.08.07-.16.07.1.02.17.1.1.18l-.01-.01c-.04.18.18.25.12.42.08-.03.06.06.16.02.14.13-.15.33.2.3.03.06-.06.1-.07.14l-.02-.01c.06.12.07.16.1.26.04.04.2.01.18.1-.07-.01-.05.02-.04.05-.01-.02-.04-.02-.07.03.02 0 .03.01.05.01h-.01c.03.05.05.03.05.01.01 0 .02-.01.04-.02-.07.08.04.15-.06.2.06.15.2.24.28.37-.05.03-.1.01-.14-.02l.04.1c-.08.02-.06-.04-.08-.07-.1.14.18.2.1.36h.07-.01c.03-.01.08.01.1.03-.06.04-.16.04-.14.1-.05.07.07.14.12.2 0-.04.04-.04.07-.03.01.03-.05.07-.02.1l-.1.03c.08-.03.1.06.16.07-.06.04-.07-.04-.12-.03.04.13.02.06.06.2.1.05.08-.03.17-.02.03.06.1.1.07.2l.08-.04c.1.1.1.17.04.27.88.7.95-.04.95-.04.1-.4-.18-.5-.35-.9-.05-.37.1-.5-.07-.86-.03-.18-.1-.36-.18-.53-.14-.05-.06-.23-.18-.3l.06-.05c-.04-.02-.08-.06-.05-.1h.02c-.07-.04-.05-.1-.08-.12h.02l-.02-.06h.03c-.08-.07-.1-.16-.1-.25l-.08.03c.05-.2-.14-.2-.06-.4h.02c-.27-.14.08-.34-.18-.5.03.02.04-.02.06-.02-.05-.1-.08-.18-.25-.14-.01-.07.04-.07.1-.1-.07.02-.12-.03-.13-.08l.03.02-.06-.14-.13.06c.02-.1.16-.06.1-.13l-.1.03c0-.12.15-.22.2-.35-.06-.45-.47-.86-.37-1.3l.08-.04c.12-.04-.2-.07-.1-.1l-.07-.03c.02-.02.04-.05.07-.04-.01-.05-.03-.04-.07-.06l.07-.07c.02-.2-.17-.3-.18-.5.1-.26-.14-.64-.3-.86-.27-.3.13-.8-.17-1.1.01-.02-.03-.03-.05-.03l-.06-.32s-.01-.06-.04-.15l1.24-.02c2.24-.03 4.44-.03 6.5.06l.22.1c.1.13 1.38-.2 1.57-.07l.58-.06c.16.02.5.05.22.08.54.01.55-.02.94-.05l.58.08c2.12.06 3.92-.1 6.15-.06 2.68.16 7.72.01 10.62-.07 4.08-.2 8.83.32 13 .1.08.01.24 0 .36-.01-.26.55-.65 1.54-1.2 3.13l-.01-.08c-.44 1.5-.7 2.45-.8 3.53-.2.12-.32 1.24-.47 1.58l-.01-.04c-.1.96-.58 1.88-.68 2.8 0-.04-.05-.07 0-.27-.14.66-.32 1.55-.43 1.58-.36 1.56-.94 3.7-1.03 4.75l-.01-.07c-.03.6-.17.74-.27 1.38-.02.03-.04.07-.04.07-.05.64-.43 1.8-.5 2.32l-.07.02-.3 1.23.13-.46c.14.2-.34.9-.45 1.82-.23.83-.05 1.78-.35 2.63-.02.43-.05-.4-.13.24-.1 0 .01-.3-.1-.16-.1.62-.34.97-.46 1.74l-.08.01c-.1 1-.55 1.82-.58 2.5-.2 1.02-.38.62-.5 1.7l-.2.38c-.13.44.04.35-.13.84-.05-.05-.2.62-.2.3-.37 1.1-.43 2.32-.95 3.76.04.35-.2 1.08-.18 1.34-.06.03-.38 1.5-.28.63.01-.07.04-.2.06-.2l-.05-.12c-.34.8-.3 1.55-.53 2.4.08-.24.16-.57.15-.34l-.2.77-.02-.18-.32 1.15.1-.14c-.08.26-.17.44-.24.63-.04.1-.05.07-.04.12-.26-.1-.6-.2-.98-.16-.42-.04-.82.1-1.23.2-.12 0-.24-.01-.36-.01.07.06-.06.08-.24.1-.07 0-.14.01-.22 0l-.03-.07c0-.02-.04-.03-.2-.01-.02-.1.23-.06.1-.14-.48.05-.8-.1-1.4-.03l-.02-.07c-.78.14-1.46-.1-1.98.03-.8.06-.54-.22-1.37-.08l-.32-.1c-.36-.02-.26.12-.65.07.02-.06-.5-.05-.27-.1-.9-.1-1.82.14-3-.03-.26.12-.85.05-1.04.14-.03-.05-1.2-.01-.52-.13.06-.01.16-.01.15.01l.08-.07c-.67-.14-1.22.08-1.9.05.2.02.46.02.28.07l-.62-.01.13-.06-.92-.04.13.08c-.45-.04-.6-.17-1.12-.06-.23.06.43.1-.05.13-.3-.02-.66-.07-1.1-.08-.44-.02-.92.02-1.34.12.06.04-.01.07-.1.1v-.05c-.01-.15-.01-.26-.04-.42l.05.14a50.37 50.37 0 0 1-.59-2.31c-.14-.4-.3-.44-.46-1.2.12.23.03-.08-.04-.36.05.18.1.23.04-.15-.03-.05-.06-.13-.1-.2 0 0 0-.02.01-.01-.14-.47-.14-.38-.1-.16-.01-.01-.02.01-.02.08-.04-.5-.34-1.36-.25-1.45-.37-1.4-.73-2.4-1.07-3.57.02-.15.14.12.24.46l-.23-.83c.08-.01.16.47.24.72-.12-1.03-.63-2.03-.8-3.22l-.12-.23v-.07c-.03.01-.14-.24-.2-.4.03-.18.16-.03.01-.6-.05-.47-.35-1.3-.54-1.88.07.33 0 .23-.05.1-.07-.3-.05-.47-.13-.7l.08-.05c-.06.14-.28-.73-.34-.83.03-.18.17.43.24.5l-.44-1.74c-.22-.6-.06.13-.2-.14-.15-.54-.35-1.06-.45-1.7l-.03.22c-.32-1-.46-1.63-.55-2.34-2.55-7.5-1.3-1.4-1.3-1.4.56 3.06 1.18 4.56 2.13 8.13.74 3.16.78 4.04 1.65 7.3.37 1.56.82 3.22 1.2 4.74.3.7.5 2 .8 2.83v.35c.1.24.16.47.2.74-.08.03-.2.1-.36.2l-.1.17c-.3.27-.4.32-.53.36-.12.04-.25.1-.5.5.26-.24.22 0-.1.28l.02-.13c-.15.2-.18.27-.3.37.07-.13-.04-.14-.24.16l.07-.25c-.1.2-.2.4-.3.63-.37.4-.6 1.2-.75 1.37-.03-.01-.33 1.1-.22 1.36-.06-.23-.12.4-.2.2.05.34.13 1.06.04 1.4l-.01-.06c-.04.6-.03 1.03.03 1.57.04.53.17 1.03.3 1.6.06-.08.23.5.28.33.5 1.02.95 1.96 1.5 2 .4.34.42.46.62.64l-.1-.06c.83.54 1.1.64 1.8.9.37.05.45-.06 1.08.07-.2.03.05.07.3.08-.15 0-.2.02.1.08.05-.02.12-.03.18-.03 0 .01.02.01.01.02.4-.01.3-.04.14-.05.01-.01 0-.02-.06-.04.4.08 1.1-.01 1.13.1 1.13-.03 1.94-.14 2.88-.18.1.06-.1.1-.4.13l.67-.02c-.01.08-.38.05-.6.06.2.03.4.04.6.04v6.53c0 .28.22.5.5.5s.5-.22.5-.5v-6.6c.3-.02.63-.03.96.01l.2-.06.06.01c0-.03.2-.08.34-.1.13.07-.01.16.45.16.36.07 1.04-.03 1.5-.07-.26-.01-.17-.05-.06-.08.23 0 .36.07.54.04l.02.1c-.1-.1.6-.1.7-.13.13.07-.36.06-.42.1l1.4-.01c.5-.07-.1-.1.15-.17.2-.01.37-.02.56-.04l-.13 7.26c-.2 13.2.06 20.03.12 35.76l-.14 31.82.04 20.8c.13 3.17 0 8.77.1 12.52l-.07 1.45c.04 1.3.06 2.8.02 4.1l-.02-.08c.05 1.93.02 4.1.05 5.07l-.02-.08.01 2.35-.03-.4.04 9.9.1-.25-.03 14.84-.02-.08.07 4.44c-.02-.01-.04-.03-.06-.04v1.42c.02.01.04.03.06.05-.02 4.4-.17 8.16-.01 13.62-.03-.96-.04.4-.07.33.02 3.54.04 7.33.2 7.38 0 2.58-.05 2.1-.12 2.44.04-.01.06.55.08 1.36l.03 2.88-.03-.93.03 5.77.14-1.13c-.04 3.06-.17.78-.14 3.7l.12-.04c-.02 4.23-.2 6.72-.3 10.82v4.34c-.02-.01-.06-.02-.16-.03.01-.1.22 0 .13-.1-.45-.05-.68-.3-1.24-.32l-.01-.08c-.73 0-1.35-.24-1.84-.14-.74.1-.5-.2-1.28 0l-.3-.05c-.34.03-.22.16-.6.17.01-.08-.47.06-.27-.05-.26.03-.5.1-.76.2l-.08-15.7.07-17.92.1-.7c.13-.3-.2-4.37-.07-4.98l-.06-1.84c.02-.52.05-1.6.08-.7 0-1.7-.02-1.75-.05-2.97l.08-1.83-.06-19.53c.16-8.5.01-24.5-.07-33.74-.2-12.97.32-28.05.1-41.32.01-.22 0-.6-.01-.94s-.03-.6-.03-.6l.02-12.15s.05-58.9-1.02-14.15l-.03-.3.06 15.42c-.17.72-.02 5.46-.07 7.02l-.01-.15c.13 4.06-.1 8.35.01 12.27-.01-.15-.06-.24-.06-1.13l-.04 6.96.14 20.66-.03-.3c.1 2.48.02 3.22.07 6-.01.15-.02.35-.03.32.1 2.7.02 7.9.06 10.1l-.07.14.02 5.4.01-2c.18.7-.12 4.08 0 7.98-.02 3.66.38 7.42.3 11.22.1 1.8-.14-1.6-.07 1.1-.1.1-.06-1.26-.14-.57.05 2.66-.1 4.36-.03 7.64l-.07.13c.07 2.34.04 4.52.01 6.5-1.3-.28-2.65-.5-3.9-.58l.1-.01c-1.22-.1-2.5-.02-3.67.06-.15-.33-.3-.67-.48-1l-.9-1.42c-.16-.24-.3-.5-.48-.73l-.58-.68-1.2-1.4-1.25-1.33c-.87-.87-1.63-1.86-2.43-2.83-1.54-1.97-2.83-4.16-3.66-6.35-.84-2.2-1.15-4.37-1.16-6.22-.05-2.6.5-5.3.9-8.14.4-2.83.45-5.82-.15-8.73-.58-2.9-1.83-5.73-3.7-8.04s-4.3-4.05-6.82-5.23c-.32-.17-1.18-.56-1.2-.52-.8-.3-1.57-.66-2.38-.88l-2.4-.72c-1.58-.44-3.1-1.02-4.57-1.73 0 0-.68-.3-1.73-.92-1.05-.62-2.47-1.56-3.86-2.9-1.4-1.33-2.75-3.03-3.9-4.86-1.17-1.82-2.17-3.72-3.1-5.36-.93-1.64-1.77-3-2.4-3.85-.62-.85-1-1.2-.85-.9.13.3.74 1.25 1.75 3.2.5.97 1.1 2.2 1.84 3.7.74 1.5 1.63 3.26 2.9 5.22l-.16-.2c1.55 2.3 3.14 4 4.77 5.24 1.63 1.26 3.27 2.15 5.04 2.87.25.2 1.3.67 2.46 1.03 1.15.4 2.45.7 3.02.9l-.12-.02c3.2.78 6.3 2.48 8.68 4.47-.1-.06-.16-.1-.73-.53.46.33.9.77 1.37 1.16.45.4.84.88 1.22 1.27.68.83 1.14 1.52 1.15 1.6 1.52 2.23 2.62 5.35 2.94 8.36.36 3 0 5.8-.2 7.57l.01-.25c-.2 2.03-.43 2.6-.6 4.9a2.2 2.2 0 0 1-.05.26c-.05 1.13-.1 2.78.1 4.37.06.8.27 1.57.4 2.26l.52 1.7-.02.13c.54 1.4 1.17 2.78 1.98 4.05-.3-.48-.58-.96-.8-1.47.38.45 1.53 3.07 3.73 5.48.92 1.2 2.16 2.18 3.2 3.28.52.55 1.08 1.08 1.57 1.68.43.63.86 1.28 1.25 1.95.7 1.22-.55-.9.2.63-.02 0-.04.01-.06.01-.12-.22-.25-.5-.14-.15.03.06.05.1.07.16-.9.12-1.67.24-2.17.4l.1-.05-1.54.37-1.5.52.5-.2c-2.15.74-4.23 1.8-6.07 3.1a25.42 25.42 0 0 0-2.59 2.09l-.6.56-.43.44-.05.06-.07-.04-.5-.27.26.24c-3.86-2.1-6.88-2.72-9.74-3.06-1.67-.14-3.32-.18-5.17-.01a256.04 256.04 0 0 0-2.7-9c-3.08-9.6-7.8-20.37-14.05-32-.13-.24-.43-.33-.68-.2-.24.13-.33.43-.2.68 6.22 11.58 10.93 22.3 13.98 31.84.96 2.98 1.83 5.93 2.65 8.8-1.05.14-2.17.35-3.4.66l.1-.05c-2.4.72-4.45 1.7-6.25 2.8-1.8 1.1-3.38 2.35-4.8 3.76-1 1-1.9 2.07-2.72 3.26-.58-.98-1.13-1.87-1.7-2.74l-1-1.57-1.2-1.6c-.86-1.13-1.8-2.43-3.18-3.86l-1.9-2.13c-.68-.7-1.4-1.33-2.1-2-.7-.65-1.4-1.34-2.13-1.95l-2.22-1.74c-.36-.25-.78-.56-1.23-.9l-.7-.54-.77-.5c-1.04-.7-2.1-1.4-3-1.93l-.63-.5c-.6-.37-1.37-.7-1.97-1.1h.05c-.96-.47-2-1.08-2.47-1.3h.05c-.37-.22-.76-.4-1.16-.57l.22.06c-.75-.3-1.5-.62-2.24-.94-.06-.38-.13-.73-.2-1-.08-1.08-.1-1.72-.06-2.23.01-.5.04-.9.08-1.44v.5c.01-2 .2-3.3.38-4.46.2-1.15.4-2.17.85-3.6.4-1.44.33-1.7 1.35-4.23-.26.86.14-.2.5-1.17-.23.62-.23.84.2-.45.04-.2.1-.48.18-.75.01-.01.03-.06.03-.03.38-1.7.27-1.4.1-.62 0-.04-.03.02-.1.26.1-.44.24-.96.35-1.5.06-.56.16-1.13.17-1.67.05-1.07-.04-1.93-.01-2.05-.03-.66-.23-1.28-.34-1.9-.2-.58-.34-1.17-.6-1.7-.23-.53-.46-1.05-.74-1.52-.26-.5-.55-.94-.85-1.38-1.2-1.76-2.53-3.24-4.02-4.78-.26-.33.27.13.97.86-.58-.63-1.18-1.24-1.78-1.85.07-.03 1.27 1.2 1.9 1.9-.57-.7-1.22-1.36-1.88-2.03-.66-.65-1.4-1.3-2.02-1.97-1.34-1.3-2.46-2.97-3.3-4.85l-.4-.75-.1-.23c-.05.04-.4-.82-.6-1.4-.06-.3-.01-.3-.04-.46s-.13-.5-.3-1.5c-.05-.4-.2-.87-.23-1.4l-.16-1.72c0-1.2-.02-2.47.2-3.5-.2 1.12-.18.75-.12.26.1-.5.17-.9.25-1.26.1-.36.23-.68.33-1.06l.1-.05c-.01-.07.14-.6.32-1.2l.74-1.66c.3-.5-.63 1.45-.7 1.7l.9-1.9c.2-.4.37-.6.5-.8l.53-.8c.12-.2.28-.4.47-.7l.85-.95c1.4-1.68-.33.24.3-.6 1.33-1.42 2.8-2.66 4.74-3.8l-.64.32c3.1-1.98 5.17-2.88 7.6-3.4 3.3-.9 6.03-.9 8.07-.8 2.04.14 3.45.38 4.36.56 1.82.34 1.7.23.77-.1a25.37 25.37 0 0 0-4.44-1.03c-1.64-.24-3.04-.24-3.04-.24-2.8-.05-5.27.37-7.5 1.1-1.1.36-2.16.8-3.14 1.33-.98.53-2 .95-2.9 1.63-.93.63-1.9 1.22-2.77 2.06l-1.36 1.2-1.26 1.43c-1.63 2-3.16 4.55-3.85 7.85-.67 2.88-.47 5.34-.12 7.43.32 2.12 1.05 3.87 1.82 5.6.92 1.64 1.88 3.32 3.47 4.88 1.5 1.55 3.23 3.12 5.05 5.36 1.7 2.13 3.17 4.57 3.62 7.25a13.03 13.03 0 0 1 .03 4.04c-.23 1.33-.56 2.65-1.05 3.9-.37 1.2-1.1 2.93-1.62 4.74-.54 1.82-.9 3.76-1.03 5.33l-.17 1.2c-.04 1.1-.02 2.36-.03 3.44v-.07l.16 1.9-.33-.15c-.4-.18-.83-.3-1.23-.44l.1.13c-3.4-1.26-4.74-1.37-7.94-2l.05-.02c-1.04-.04-1.96-.1-2.83-.2l-2.53.01c-.4.01-.83-.02-1.25.03l-1.3.18c-.88.14-1.84.26-2.84.66.5-.18-.23.02-.2-.01l-1.4.43c-.46.12-.85.37-1.2.52-.7.34-1.17.6-1.15.68-.67.27-.9.45-1.03.5-.13.05-.12.02-.22.04.05.07-1.02.7-1.94 1.35a2.64 2.64 0 0 1 .41-.32c-.87.63-1.7 1.32-2.5 2.02.17-.13.38-.2.57-.3-1.28 1.1-.44.16-1.56 1.34l.1.07c-.86.8-1.4 1.57-2 2.27l-.45.54-.4.6-.84 1.34c-1 2.18-1.75 4.5-2.12 6.88-.26 1.18-.3 2.4-.42 3.6-.05.6 0 1.2 0 1.82.02.6-.01 1.2.1 1.8l.22 1.8c.1.6.26 1.17.4 1.76.2 1.18.73 2.27 1.1 3.38.24.53.53 1.05.8 1.57l.4.77c.14.25.32.48.48.72l.97 1.4c.34.45.74.84 1.1 1.27l.2.35c.03.1.43.57.98.9.53.36 1.07.73 1.16.88.3.2.55.42.85.58.23.17.74.5.3.26.8.5.85.5 1.45.8.3.2.55.43.85.57a101.36 101.36 0 0 0 2.5 1.1c.84.3 1.7.5 2.53.75.84.28 1.7.4 2.6.55.9.13 1.8.38 2.78.42 2.36.3 5.67.52 9.02.72 1.68.1 3.35.4 4.93.55.05 0 .1.01.15.02l-.03.03-1.27 1.33c-.73.93-1.46 1.78-2.1 2.67-1.24 1.83-2.44 3.7-3.44 6.26-1.5 3.86-2.22 8.1-2 12.3l.1 1.58.5 3.14c.1.52.24 1.03.38 1.55a29.65 29.65 0 0 0 1 3.02c.2.5.4.98.62 1.47l.14.3.1.22-.44-.04a25.33 25.33 0 0 0-1.35-.06c-.93-.02-1.87.04-2.8.14-1.85.2-3.68.62-5.42 1.26-3.5 1.26-6.65 3.33-9.15 5.98a23.4 23.4 0 0 0-3.24 4.33c-.23.38-.43.8-.64 1.18l-.3.6-.2.4-.2.48-.4.96c-.18.23.15.13.3.16h2.23l10.17.06.92.1c.4.13 5.74-.2 6.54-.07l2.42-.06c.68.02 2.12.05.9.08 2.24.01 2.3-.02 3.9-.05l2.4.08 25.64-.06c11.17.16 32.2.01 44.3-.07l3.34-.03c0 .05.01.1.01.14a23.93 23.93 0 0 1 1.19-.03h.27.16a4.58 4.58 0 0 1 .23.03l-.07.01c1.46.1 2.5-.12 3.8-.01-.06-.1.63-.04.46-.15.1-.01.22-.01.32-.01h.7c.7.03 1.27.1 1.66 0h1.32l40.85.13c.28.01.8 0 1.23-.01s.8-.03.8-.03l7.82.01-.15.18 10.1.06 33.38-.05c1.53-.06 3.6-.06 5.77-.06.15.54.18.47.14 0l7.53-.05 1.56.07c1.4-.04 3-.06 4.4-.02l-.1.02c2.07-.05 4.4-.02 5.44-.05l-.1.02 2.52-.01-.43.03 10.6-.04-.27-.1 15.9.03-.1.02c8-.23 12.65.16 20.9-.06-1.03.03.44.04.36.07 3.8-.02 7.85-.04 7.9-.2 2.77 0 2.25.05 2.62.12-.01-.04.6-.06 1.46-.08l3.1-.03-1 .03 6.2-.03-1.22-.14c3.28.04.84.17 3.98.14l-.04-.12c4.54.02 7.2.2 11.6.3 7.7.14 15.6-.24 23.47-.55 4.23.13 13.44.2 13.44.2l55.9-.12 49.74.14 32.53-.04c4.96-.13 13.7 0 19.58-.1l2.27.07c2.02-.04 4.4-.06 6.43-.02l-.13.02 7.93-.05-.13.02 3.67-.01-.63.03 15.47-.04-.4-.1 11.97.01 5.14-.02 6.24.03-.2.03c.32.08.6-.26.8-.37.15-.14.3-.27.43-.4a6.68 6.68 0 0 0 .72-.89c.2-.3.4-.63.57-.95.14-.33.3-.66.42-1 .5-1.34.57-2.7.55-3.98-.13-2.57-.86-4.87-1.78-7.06-.07-.16-.15-.3-.22-.47l.64-1.17c.43-.8.85-1.6 1.37-2.44-.32.5-.72 1.16-.5.7.32-.52.63-1.05.97-1.56l-.16.35 1.52-2.28-.27.27c.76-1.1 1.17-1.4 1.94-2.7.35-.6-.82.98-.02-.2.52-.73 1.26-1.57 2-2.5.73-.93 1.56-1.85 2.32-2.7-.2.1.2-.36.6-.85l.1-.01c1.54-1.87.72-.54 2.3-2.34l-.1.2.33-.57c.7-.84.94-1 1.2-1.2s.54-.4 1.36-1.3c-.7.65-.44.18.45-.6l-.17.25c.47-.45.6-.62.94-.9-.25.3-.1.2.64-.4l-.44.47 1.33-1.22c.57-.4 1.27-.96 1.9-1.46.65-.46 1.23-.84 1.5-.96l1.3-.87 1-.7c.32-.2.6-.36.72-.47-.5.35.96-.43.6-.13.64-.44 2.58-1.6 3.46-1.98l-.15.1c1.54-.8 2.85-1.5 4.03-2.3l1.8-1.17 1.83-1.3c-.17.01 1.2-.92.8-.77l3.28-2.75c.88-.83 1.55-1.5 1.84-2.04.98-1.08 1.2-1.25 1.7-1.8l-.2.28c.43-.53.82-.95 1.1-1.35l.76-1.07c.45-.66.9-1.2 1.4-2.1.24-.45.35-.73.5-1.1s.42-.8.8-1.62c-.2.56.1-.12.4-.74-.17.4-.2.54.2-.27.03-.12.1-.3.17-.48.01-.01.03-.04.02-.02.43-1.06.3-.9.12-.4 0-.03-.03.01-.1.15.27-.53.5-1.33.72-1.98.24-.66.4-1.2.44-1.26l.46-2.38.13-2.18c.2-.58.07-1.26.05-1.95zm-362.95-62.9v-.06.06zm6.43 6.3l-6.1.01c-.02-1.23-.04-2.46-.2-2.48 0-.95.05-.77.12-.9-.07.01-.1-.82-.1-1.56l.03.34-.02-1.77 6.36.06c0 1.56-.02 3.1-.07 4.57l-.1.26c-.1.1.05.95.08 1.47zm155.53.01l-.88-.1c-.38-.13-5.52.2-6.28.07l-2.33.06c-.65-.02-2.03-.05-.87-.08-2.15-.01-2.2.02-3.75.05l-2.3-.08c-8.5-.06-15.7.1-24.63.06-10.73-.16-30.92-.01-42.56.07-16.35.2-35.38-.32-52.12-.1-.27-.01-.76 0-1.18.01s-.76.03-.76.03l-16.78-.02c0-.1 0-.2.01-.35.06.05.05-1 .1-.54.1-1.63-.08-3.33 0-5.4l39.9-.17 40.14.14 26.25-.04c4-.13 11.07 0 15.8-.1l1.83.07a111.82 111.82 0 0 1 5.18-.02l-.1.02 6.4-.05-.1.02 2.96-.01-.5.03 12.5-.04-.32-.1 18.7.03-.1.02c7.2-.18 12.1.01 18.34.01.64 1.4 1.14 2.28 2.47 4.1.08.14.2.3.17.3.47.6 1.08 1.32 1.74 2.1l-5.17.02c-10.97.06-21.74.08-31.74-.02zm46.96-3.46l-.07-.2c.02.44.05.6.03.9-.04-.26-.1-.14-.1.5l-.1-.44.13 1.23c-.03.42-.03.95-.03 1.44l-8.76.03-.6-.7c-1.1-1.28-2.17-2.62-3.05-4.1-.36-.54-.64-1.12-.92-1.7l5.26-.07c-1.2.03.52.04.42.07l6.3-.05 1.24-.03.06.16c.15 1.48-.15.8.05 2.44-.04-.64.14-.3.1.5zm.75-2.84c0-.12.01-.2.02-.3h.08l-.1.3zm6.43 4.57l-.1.26c-.1.08.05.9.1 1.43h-6.1c-.02-1.22-.04-2.43-.2-2.45 0-.95.05-.77.12-.9-.07.01-.1-.82-.1-1.56l.03.34-.02-2c.38-.02.62-.05.63-.1 3.26 0 2.65.05 3.08.12-.01-.04.7-.06 1.72-.08l.94-.01-.1 4.93zm-8.66 20.4l1.52-.03c0 .73-.08.92-.1 1.37l-.02-.23.02 3.73c.03.68.2.8.15 2-.06-.4-.05.1-.05.56-.01-.3-.03-.38-.08.22.02.08.03.2.04.34-.01.01-.01.03-.02.02.02.76.04.63.05.28.01.02.02-.01.04-.12-.08.8.01 2.2-.1 2.3.03 2.26.14 3.9.18 5.77l-.01-.01c-.03-.05-.05-.1-.08-.14a7.26 7.26 0 0 1-.04-.57l.01.52c-.02-.03-.03-.06-.05-.08v-.27c-.01.08 0 .17-.01.25l-1.1-2.04c-.88-2-1.8-4.5-2.2-7.38-.3-2.02-.33-4.2-.26-6.43.77-.05 1.5-.05 2.13-.06zM323.68 403c.01-.04.02-.04.04 0h-.04zm1.04 0v-.06c.6.02 1.4.04 0 .06zm5.96-11.45c-.02.16.02.57.04.57l-.02 4.46.05 6.32c-2-.05-3.26-.12-6.03-.03l-.1-4.15c.04-5.08.2-6.43.14-11.7l-.04-7.65c-.13-1.17 0-3.22-.1-4.6l.07-.53c-.04-.48-.06-1.03-.02-1.5l.02.03c0-.06 0-.12-.01-.18l6.02.06.1 3.72c.2 4.76-.33 10.3-.1 15.18zm.96 11.37v-.05l.73.06c-.25 0-.5 0-.73-.01zm122 .23l-.18-.07-6.8.02h2.54c-.88.18-5.14-.12-10.07 0-4.6-.02-9.36.38-14.15.3-2.3.1 2-.14-1.4-.07-.1-.1 1.6-.06.72-.14-3.35.05-5.5-.1-9.64-.03l-.17-.07c-5.4.14-10.18-.1-13.78.03-5.57.06-3.73-.22-9.53-.08l-2.25-.1c-2.48-.02-1.78.12-4.53.07.17-.06-3.48-.05-1.86-.1-6.22-.1-12.63.14-20.83-.03-1.78.12-5.9.05-7.24.14-.22-.05-8.27-.01-3.64-.13.4-.01 1.1-.01 1.05.01l.55-.07c-4.67-.14-8.5.08-13.12.05 1.37.02 3.2.02 1.98.07l-4.3-.01.9-.06-6.25-.04.07-1.07.03.1c.07-2.44.08-3.98-.06-5.67.17-.27.02-2 .07-2.58l.01.05c-.13-1.5.1-3.07-.01-4.5.01.06.06.1.06.42-.02-1.05-.06-2.48.04-2.56-.03-2.5.02-6-.14-7.6l.03.1c-.1-.9-.02-1.18-.07-2.2.01-.06.02-.13.03-.12-.1-1-.02-2.9-.06-3.7l.07-.05v-.84l40.08-.17 40.14.14 26.25-.04c4-.13 11.07 0 15.8-.1l1.83.07a111.82 111.82 0 0 1 5.18-.02l-.1.02 6.4-.05-.1.02 2.96-.01-.5.03 12.5-.04-.32-.1 18.7.03h-.1c9.4-.23 14.88.16 24.58-.06-1.2.03.52.04.42.07l3.16-.02c-.05 1.66.02 3.35.24 5.03.06.5.17.98.25 1.47.07.5.17.98.3 1.46l.34 1.45.44 1.43c.67 1.8-.67-1.55.3 1.13-.1.13-.5-1.24-.34-.5.23.67.52 1.24.75 1.82l.35.85.42.8c.3.55.57 1.12.93 1.73l.6.9c.03 1.02.1 2.08.03 3.2-4.02-3.2-8.3-5.47-12.8-7.2-4.67-1.76-9.64-2.9-15.2-3.4-3.34-.24-7.47-.36-11.9.25-4.45.4-9.3 1.58-13.76 3.72-4.45 2.17-8.44 5.34-11.35 8.98-2.02 2.47-3.58 5.08-4.78 7.57l-9.75.06zm79.6-.37a3.66 3.66 0 0 0 .03.3l-1.77.04c-.9-.17-6.9-.02-8.85-.07l.2-.01c-5.12.13-10.54-.1-15.47.01.2-.01.3-.06 1.43-.06-3.6.02-8.5.06-8.78-.04-8.58.03-20.56-.02-26.06.14l.38-.03c-3.13.1-4.06.02-7.56.07-.2-.01-.44-.02-.4-.03l-1.97.04c.05-.1.1-.22.16-.32 1.35-2.64 3.02-4.96 4.05-6.3l.2-.12c1.75-2.15 3.76-4.1 6-5.73-.44.28-.82.64-1.23.95-.4.32-.82.64-1.2 1 .16-.22.55-.6 1.13-1.04l.98-.78 1.26-.85c1.84-1.2 4.32-2.54 7.12-3.65 2.64-1 5.43-1.75 8.3-2.26l4.35-.66c1.47-.12 2.95-.16 4.43-.2 1.4-.1.8-.04.34.02-.22.03-.4.05-.26.06.14.02.6-.06 1.65 0 .07.05-.42.04-.8.04-.37.03-.63.05-.1.06a79.13 79.13 0 0 1 2.88.12c.9.07 1.8.04 2.68.2 1.8.27 3.72.44 6.2 1l.2.12c1.64.26 3.17.8 4.67 1.2 1.48.46 2.86 1.06 4.2 1.58 2.6 1.2 4.87 2.38 6.77 3.52 2.67 1.64 3.58 2.48 4.42 3.18.16.13.3.26.46.4-.03.08-.05.25-.05.7-.07.74.03 2.1.07 3.06.01-.52.05-.35.08-.13 0 .47-.07.74-.04 1.1l-.1.04c.1-.18.1 1.22.13 1.4-.07.27-.06-.72-.1-.84v2.8zm.17.3h-.08c.02-.1.05-.2.08 0h0zm6.95-11.52c-.02.16.02.57.04.57l-.02 4.46.05 6.42-6.03.05-.1-4.33c.04-5.08.2-6.43.14-11.7l-.04-7.65c-.13-1.17 0-3.22-.1-4.6l.07-.53c-.04-.48-.06-1.03-.02-1.5l.02.03c-.01-.14-.01-.3-.02-.44.23-.02.37-.04.38-.07 3.26 0 2.65.05 3.08.12-.01-.04.7-.06 1.72-.08l.85-.01.1 4.08c.18 4.76-.33 10.3-.1 15.18zm-348.98 67.62v.05c-.2.01-.05-.02 0-.05zm-5.67.6l.13.06c.07.1.6-.34.73-.22l.27-.1c.08.01.25.01.12.06.26-.04.26-.05.45-.1l.3.07c1.02 0 1.92-.07 2.98.23.63.2 1.5.56 2.35.97.84.45 1.66 1 2.2 1.46.8.63 1.43 1.56 1.88 2.55.45 1 .7 2.05 1 3.03a.48.48 0 0 0 .07.23c.1.62.1 1.23.1 1.9 0 0-.01 2.24.1 3.73-.17 0-.34-.01-.6.02-.04-.01-.08-.02-.07-.03-.63.1-1.83.02-2.33.06l-.03-.07-1.25.02.47.01c-.16.18-.94-.12-1.85 0-.85-.02-1.72.38-2.6.3-.42.1.37-.14-.26-.07-.02-.1.3-.06.13-.14-.62.05-1-.1-1.77-.03l-.03-.07c-1 .14-1.87-.1-2.53.03-1.02.06-.68-.22-1.75-.08l-.4-.1c-.45-.02-.33.12-.83.07.03-.06-.64-.05-.34-.1-1.14-.1-2.32.14-3.82-.03-.1.04-.23.05-.37.06-.02-.35-.03-.7.02-1.16h.02c-.22-1.2.14-1.94-.04-3.15.02.15.05-.06.07-.05-.02-.55.07-1.12-.1-1.16.06-.4.1-.3.17-.35-.1-.01-.03-.36.05-.66l-.01.15c.07-.3.12-.6.23-.87l-.2.12c.2-.44.2-.06.33-.5l-.1-.04c.1-.32.3-.53.46-.74s.33-.4.54-.65c.7-1.1 1.56-2.17 2.62-3 1.06-.85 2.3-1.43 3.5-1.63zM94 435.04l1.1.16c-.4.15-2.2-.48-4.34-.46-2-.17-4.07.12-6.12-.15-1 0 .87-.07-.6-.12-.04-.1.7 0 .32-.1-.72-.04-1.3-.1-1.93-.18-.63-.06-1.28-.26-2.15-.37l-.06-.1c-.57-.07-1.13-.16-1.66-.26-.52-.15-1-.3-1.48-.47-.94-.3-1.8-.56-2.5-.84-2.2-.9-1.4-.75-3.55-1.9l-.76-.57c-.8-.66-.66-.37-1.53-1.13.05 0-.23-.24-.45-.43-.23-.18-.34-.37-.1-.14-1.77-1.87-3.66-3.9-4.7-7.2-.17-.33-.44-.9-.6-1.47-.14-.58-.27-1.14-.38-1.4-.08-.08-.47-3.45-.14-1.53.03.17.06.46.04.44l.1.22c-.03-1-.2-1.86-.26-2.74-.02-.9-.14-1.78-.04-2.75-.1.57-.04 1.35-.1.83-.01-.6.1-1.2.14-1.8l.03.38.14-1.34c.05-.45.17-.9.25-1.33l-.14.35c.3-1.3.46-1.73.78-3.2.12-.67-.44 1.18-.08-.17.14-.42.25-.9.47-1.4l.66-1.53c.2-.55.57-1.02.84-1.54.3-.5.56-1.02.93-1.45-.2.12.17-.36.52-.87l.1-.01c.32-.5.54-.78.72-.92.17-.16.26-.22.35-.3.18-.13.36-.24 1.14-1.12l-.1.2c.1-.2.22-.37.35-.53.78-.72 1.03-.88 1.3-1.05.13-.1.27-.18.48-.35.22-.16.54-.36 1.02-.7-.8.5-.47.1.54-.5l-.2.22c.54-.34.7-.5 1.1-.67-.33.2-.14.17.72-.22l-.54.33 1.57-.84c.63-.3 1.5-.5 2.24-.73.75-.22 1.4-.43 1.7-.4l1.54-.23 1.2-.2c.37-.02.68-.05.85-.08-.6.08 1.04.07.58.16.38-.05 1.14-.1 1.9-.13.77.06 1.57.14 2 .22l-.17-.01c1.67.12 3.07.5 4.45.74l1.02.2 1 .32c.67.22 1.35.45 2.06.7-.1-.13 1.4.43 1.06.2 1.46.6 2.76 1.22 3.83 1.72 1.05.54 1.85 1.03 2.44 1.15 1.27.68 1.45.9 2.1 1.27l-.3-.15c2.3 1.38 2.93 1.88 4.6 2.97.86.5 1.05.53 2.44 1.66-.5-.3.1.14.6.55-.34-.26-.46-.32.2.26a4.73 4.73 0 0 1 .41.27c0 .01.03.03.01.03.9.68.75.54.35.2.03.01 0-.03-.1-.14.9.73 2.43 2.15 2.46 2.3 2.52 2.23 4.14 4.02 6.02 6.1.14.3-.27-.22-.85-.8.46.48.86 1 1.27 1.53-.1.05-.7-.9-1.15-1.33.73.93 1.45 1.9 2.27 2.9.4.5.82 1 1.2 1.53a45.86 45.86 0 0 1 1.1 1.71l.37.45.08.14c.02-.03.4.47.64.8.14.38-.1.04.57 1.23l.1.18-.33.52c-.55.93-1.05 1.93-1.5 3-.22.54-.44 1.1-.62 1.68-.1.3-.2.6-.27.9l-.04.15-.02.07c-.02.04-.01.12-.07.1.1-.1.04-.13.03-.05-.06.02-.18-.03-.16-.03-2.25-.18-4.8-.1-6.6.15-1.27.16-2.24.37-2.74.5-3.08-2.6-6.58-5.22-10.52-7.64-17.65-10.8-34.52-14.08-34.7-14.1a.5.5 0 0 0-.58.4.5.5 0 0 0 .4.58c.17.03 16.87 3.28 34.36 13.98 3.7 2.26 6.98 4.7 9.9 7.13-2.44.6-1.98.46-2.4.5.01.02-.17.06-.46.2l-1.22.48-1.7.65-1.8.88 1.1-.56c-1.15.56-2.32 1.08-3.4 1.8-.54.34-1.1.65-1.63 1l-1.54 1.15 1.3-.78c-3.27 2.4-1 .4-3.9 3l.12.05c-.2.17-.4.35-.57.53a7 7 0 0 0-.69-.07l-.07-.08-2.9-.4zm76.02 44.65l-.07-.13c.02.28.05.37.03.56-.04-.17-.1-.1-.1.32l-.1-.27.13.78c-.08.6.02 1.55-.08 1.8 0 0-.05 1.27.06 1.6-.03-.17-.06-.05-.08.2l-.03.24c-.1-.01-.2-.01-.17-.01-3.55.1-10.37.02-13.24.06l-.2-.07-7.08.02 2.64.01c-.92.18-5.35-.12-10.48 0-4.8-.02-9.74.38-14.73.3-2.38.1 2.1-.14-1.46-.07-.12-.1 1.66-.06.74-.14-3.5.05-5.73-.1-10.03-.03l-.18-.07c-5.62.14-10.6-.1-14.34.03-5.8.06-3.88-.22-9.92-.08l-2.35-.1c-2.58-.02-1.85.12-4.7.07.17-.06-3.62-.05-1.94-.1-3.24-.05-6.53-.01-10.07.01l-2.7.02H68.3c-.04-.02.03-.1.05-.16.04-.1.03-.07.1-.24l.3-.64c.23-.42.45-.85.7-1.27.5-.84 1.1-1.67 1.75-2.47.5-.75 1.5-1.88 2.57-2.84 1.07-.97 2.2-1.75 2.75-2.16.1-.04 1.9-1.14 3.28-1.7.68-.3 1.24-.48 1.35-.5s-.25.1-1.32.58c-.37.17-1 .47-.97.43l-.47.3c2.13-1.02 4.17-1.7 6.26-2.13 1.05-.2 2.1-.35 3.2-.4a18.36 18.36 0 0 1 1.66-.01l.42.02.54.04c.52.04 1.07.12 1.6.18-.62-.08-1.4-.18-1.93-.22-.35-.03-.67-.04-.9-.06-.48-.02-.63-.03-.02-.04l.6.03c.2.01.34.03.75.06l2.12.24-.78-1.56-.35-.74-.2-.45.56 1.07-.3-.64-.16-.37-.3-.75c-.2-.5-.38-1.02-.56-1.53a28.5 28.5 0 0 1-.84-3.14l.13.9c-.2-.78-.27-1.44-.35-2.05l-.22-1.7c-.07-.56-.05-1.14-.1-1.8-.02-.66-.13-1.4-.06-2.3.02-1.63-.26 3.02-.1-.35l.12-1.7c.08-.6.2-1.2.3-1.83.16-1.28.63-2.58.98-3.94.94-2.65 2.23-5.33 3.77-7.58-.17.2-.07-.03.2-.44l1.2-1.6.16-.1c.4-.6.82-1 1.13-1.35l.75-.8c.4-.4.57-.6.8-.75.2-.16.42-.32.84-.68.44-.34 1-.98 2.17-1.8h0l.75-.68.7-.55.62-.4.94-.57c.5-.3.83-.48 1.18-.66.36-.15.73-.3 1.33-.6s1.4-.75 2.77-1.25c-2.14.8-1.07.22 1.6-.72l-.65.3c.72-.3 1.23-.4 1.67-.53l1.32-.35c-.88.3-.46.17 1.77-.3a15.53 15.53 0 0 0-1.48.42c1.38-.4 2.8-.66 4.23-.85 1.67-.13 3.83-.18 5.73-.03l1.1.1c.26.1.25-.18.32-.35l.17-.55.2-.67c.07-.2.13-.37.2-.55a12.44 12.44 0 0 1 .64-1.53s.17-.4.48-1.03c.3-.63.75-1.45 1.26-2.3 1.02-1.7 2.46-3.36 3-3.98-.45.56-.04.1.46-.35.48-.45 1.02-.9.64-.5a21.24 21.24 0 0 1 3.6-2.84 20.71 20.71 0 0 1 4.37-2.08l-.38.16c3.78-1.37 7.27-1.73 10.6-1.46 3.32.3 6.52 1.18 9.7 2.93-.03-.03-.01-.03.06 0 .04.02.08.04.13.06.1.05.2.1.32.16a8.03 8.03 0 0 1 .39.21c.14.04.3.25.4.03l.7-.75c.54-.58 1.07-1.07.68-.8 1.35-1.3 2.8-2.37 4.27-3.2.72-.43 1.48-.73 2.18-1.05.7-.35 1.4-.55 2.08-.78.66-.25 1.3-.4 1.92-.53.6-.15 1.17-.3 1.7-.35.53-.08 1.02-.16 1.45-.25.44-.05.83-.1 1.17-.15 3.43-.05 4.05.3 5.77.63-.26-.06-.53-.13-.8-.15.43.08.83.17 1.22.26-.01 1.16-.01 2.24.03 3.2.06 4.4-.22 2.96-.08 7.55l-.1 1.8c-.02 1.97.12 1.4.07 3.6-.06-.13-.05 2.75-.1 1.48-.1 4.93.14 10.02-.03 16.5.12 1.4.05 4.68.14 5.74-.05.17-.01 6.55-.13 2.88-.01-.32-.01-.87.01-.83l-.07-.44c-.14 3.7.08 6.73.05 10.4.02-1.1.02-2.53.07-1.57l-.01 3.4-.06-.7v.95c-.22.1-.46.18-.7.27-.17.2-.68.44-.8.6-.07-.05-.93.62-.5.16.04-.04.12-.1.13-.07l.02-.1c-.6.26-.9.73-1.38 1.15.16-.1.33-.28.24-.13l-.44.4.05-.13c-.23.18-.43.4-.64.6l.14-.04c-.3.3-.53.3-.73.77-.08.2.32-.26.07.1-.4.4-.93 1.1-1.26 1.75.1-.02.02.15-.05.34h-.08c-.22.75-.26.2-.47.96l.05.16c-.07.7-.25.32-.26 1.12.07-.3.2-.1.08.25l-.05-.1c-.02.2 0 .28-.04.4-.02-.13-.1-.08-.13.22l-.06-.22.04.6c-.12.43-.05 1.15-.16 1.32 0 0-.05.9.06 1.1-.07-.18-.1.32-.18.18.08.23.14.93.06 1.2l-.01-.05c-.04.5-.01.95.01 1.38v.1c-.4-.01-.96-.01-.35-.1.07-.01.2-.01.2.01l.1-.07c-.86-.14-1.56.08-2.4.05.25.02.6.02.36.07l-.8-.01.16-.06-1.18-.04.16.08c-.57-.04-.78-.17-1.43-.06-.3.06.54.1-.06.13-.2-.02-1.02-.05-1.78-.08l-.08 2.35c.1-.1.08.17.1.44l-.07.03c.1 1.04-.16.38-.08 1.4l.1.18c.15.93-.16.5.05 1.54.17-.42.35-.2.3.3zm33.84 4.65c-3.06-.2-4.64.06-8.28.12-3.2-.04-4.05-.2-7.37-.14-1.58-.01-3.27.02-4.82.04-.73.13-2.03 0-2.9.1l-.34-.07c-.3.04-.65.06-.95.02l.02-.02c-.45.05-.95.02-1.17.05l.02-.02-.54.01.1-.03c-.78.06-1.58.06-2.3.04l.06.1c-1.5-.1-2.07.08-3.43-.03h.02c-.15.02-.28.03-.4.04-.1.01-.3.02-.3.02-.08.01-.16.01-.23 0l.03-.23c.01.01.01-.17.02-.27l.02-.36c.02-.48.01-1-.06-1.6.03.22.04-.1.07-.08-.02-.82-.04-1.7-.2-1.7 0-.6.05-.5.12-.56-.07 0-.1-.52-.1-.98l.03.2-.03-1.34-.14.26c.04-.7.17-.18.14-.86l-.12.01c.01-.5.06-.88.12-1.26l.1-.6.04-.3c.01-.1.03-.08.04-.12v-.13l2.27-.03 2.9-.06c1.92-.04 3.8-.06 5.56.04l.16.1c.07.13 1-.2 1.15-.07l.43-.06c.12.02.37.05.16.08.4.01.4-.02.7-.05l.42.08c1.56.06 2.88-.1 4.52-.06 1.97.16 5.67.01 7.8-.07 1.38-.1 2.85-.03 4.35.04l2.24.1 1.1.02h.33l.13-.01c.01.06.03.12.04.18a.81.81 0 0 0 .04.33l-.02 2.8s-.02 4.74.2 6.5c-.68-.1-1.72-.15-1.72-.15zm75.2.38c.03.16.08.32.1.48h-2.63l-19.25-.45.4-.03c-8.73-.07-14.23-.08-20.25.06-.95-.17-7.17-.02-9.22-.07h.2c-5.33.13-10.97-.1-16.1.01.2-.01.3-.06 1.5-.06l-7.64.02c-.02-.03-.07-.06-.17-.1.12-.58.26-1.62.44-3.3l.03.07c.07-1.54.08-2.5-.06-3.57.17-.17.02-1.26.07-1.62l.01.03a5.45 5.45 0 0 1-.03-1.07l.03-.72.02-.9c-.4 0-.8 0-1.17.03.06-.01.1-.06.45-.06l-1.3.03c-.3 0-.55-.02-.58-.07-1.57.03-3.77-.02-4.78.14l.07-.03c-.03.01-.05.01-.1.01.07-.37.14-.82.23-1.38l.03.05c.07-1.08.08-1.76-.06-2.5.2-.1-.02-.92.02-1.2l.02.02c-.2-.67-.08-1.43-.4-2.05.02.02.07.02.1.17-.12-.48-.4-1.08-.33-1.15-.4-1.1-1.26-2.52-1.87-2.98l.05.02c-.35-.26-.37-.4-.73-.72-.01-.03-.03-.06-.02-.06-.4-.25-.98-.9-1.32-1.07l.02-.07c-.25-.18-.5-.36-.76-.5l.28.2c-.2.1-.5-.48-1.17-.67-.2-.1-.43-.16-.66-.2l.12-9.94c-.1.4-.08-.74-.1-1.92l.07-.14c-.1-4.5.16-1.65.08-6.1l-.1-.8c-.15-4.03.16-2.17-.05-6.65.01 1.77-.16.83-.13-1.34l.07.55c-.02-1.2-.05-1.6-.03-2.4.04.72.1.38.1-1.4l.1 1.2-.13-3.35c.08-2.6-.02-6.7.08-7.75 0 0 .05-5.56-.06-6.84.07 1.12.1-1.95.18-1.08l-.06-2c.48.4.97.85 1.52 1.35.43.4.74.76 1.05 1.07.3.3.6.58.88.96l1.02 1.3a37.85 37.85 0 0 1 1.3 2.22c-.73-1.18.2.3.77 1.8-.43-.93-.52-1.23.2.74.13.27.27.7.4 1.1 0 .02.02.1 0 .06.38 1.28.47 1.82.5 1.88.02.06-.06-.36-.2-.96.03.06.01-.05-.07-.42.33 1.34.67 3.25.7 4.88.05 1.62-.1 2.94-.17 3.1a22.32 22.32 0 0 1-.2 1.46c-.03.24-.1.47-.13.7-.07.37-.17.75-.25 1.1l-.26 1.07c.01.02-.06.13.01.1l.4-.15 2.25-.84c1.67-.6 3.3-1 4.93-1.26 3.24-.52 6.4-.5 9.7.13.37.1.16.1-.38 0-.53-.1-1.4-.2-2.37-.28.8.1 1.58.13 2.35.32.77.17 1.57.26 2.32.52-.03.03-.68-.17-1.53-.3-.84-.17-1.86-.38-2.6-.42 2.8.4 5.63 1.12 8.4 2.34a24.99 24.99 0 0 1 7.77 5.38c.36.28.67.63 1 .95l.25.3c.01-.02.26.24.6.6.36.34.7.86 1 1.25.25.4.2.4.34.65a7.84 7.84 0 0 0 .4.61l.87 1.52c.66 1.1 1.43 2.8 2.1 4.62a27.89 27.89 0 0 1 1.32 5.52c-.24-1.82-.12-1.24.02-.46.2 1.64.17 2.6.2 3.86l-.08.12c.03.1.04 1-.04 2.02l-.04.47-.03.3-.04.33-.08.65c-.01.1-.03.2-.04.3l-.02.15v.07c0 .02.04-.01.06-.01l1.54-.46c.27-.06.24-.04-.01.04l-1.38.4-.22.06c-.06.03-.04-.02-.03-.06l.01-.1.06-.46.1-.9c.03-.33.03-.4.04-.57 0-.13.01-.22.01-.28l-.06.6c-.04.3-.07.56-.1.82s-.07.5-.1.74l-.02.17c.01.04-.06.16.03.1l.32-.1 1.82-.5c.7-.2 1.1-.33 1.5-.4.8-.12 1.6-.42 4.9-.7 3.52-.13-.65-.1 1.04-.2 3.1-.1 6.2.16 9.64 1.23l-1.08-.36 1.05.25.97.32c.63.22 1.25.4 1.8.63 1.1.5 2.16.9 3.07 1.45l1.35.75c.43.27.83.56 1.23.83.4.28.8.54 1.2.85l1.13.95.8.62c.24.23.48.45.72.67.47.45.94.86 1.37 1.3.8.93 1.63 1.73 2.23 2.63.65.87 1.26 1.67 1.72 2.5.5.8.97 1.55 1.32 2.3 1.47 2.93 2.07 5.15 2.45 6.57l.16.67c-.08.02-.2.02-.28.03zm259.6-61.3l-.52-.06c.42-.01.8-.01 1.1-.03.28.02.32.05.53.06.1 1 .44 2.83.44 2.83.8 4.53 1.54 6.8 2.76 12.13.98 4.7 1.1 6 2.2 10.85l1.58 7.07c.36 1.05.65 2.98 1.03 4.24l.04.5c.13.43.27.94.32 1.4h-.03c.2.65.32 1.4.42 1.7l-.03-.02.18.8-.06-.13c.3 1.13.56 2.3.76 3.36l.07-.1c.4 2.24.74 3.02 1.06 5.05l-.03-.02c.77 2.5.72 4.04 1.5 6.6-.1-.32-.01.15-.04.13.3 1.2.58 2.48.75 2.47.2.88.1.73.06.85.02 0 .04.03.07.1.02.07.05.14.08.22.04.1.08.26.12.4h-.08l.06-.02-.03-.08.02.07-1.3.02.4.14c-1.07-.04-.27-.17-1.3-.14v.12l-.8-.03c-.24-.01-.3-.03-.42-.05l-.03-.28c-.01-.08-.06-.32-.08-.48-.07-.36-.14-.73-.24-1.15-1.6-5.7-3.68-11.74-5.02-17.1l.02-.26c.1-.14-.6-1.4-.55-1.64l-.24-.6c-.03-.18-.1-.55.01-.25-.16-.57-.2-.58-.34-.98l-.1-.63c-.6-2.27-1.3-4.13-1.96-6.5-.67-2.9-2.37-8.2-3.35-11.25-1.45-4.28-2.42-9.46-3.93-13.83-.02-.15-.17-.5-.2-.5l-1.16-4.06-.26-.87 6.5-.06zm-5.72 0l-.75.02v-.01c.25-.01.5-.01.75-.01zm-200.28.36l40.1-.15 37.52.14 24.54-.04 2.47-.05a43.06 43.06 0 0 0-1.66 1.37c-1.6 1.45-2.98 3.17-3.97 5.1-1 1.92-1.64 4-1.94 6.1-.58 4.23.1 8.43 1.33 12.24.1.33.3.9.47 1.4a12.34 12.34 0 0 0 .36.89c.32.85.67 1.7 1.05 2.52l.45.94.2.38c-.18-.06-.36-.1-.54-.14l-.36-.08-.43-.08-.85-.15c-1.14-.18-2.3-.3-3.44-.36-2.3-.13-4.62.01-6.9.4l-1.02.17c-.65.18-1.6.35-2.76.73-2.32.68-5.5 2.05-8.56 4.38-2.32 1.7-4.45 4.02-6.14 6.68-1.12-.68-2.27-1.28-3.37-1.86-1.52-.8-3.06-1.52-4.62-2.2-3.14-1.36-6.44-2.46-10.18-3.32-8.9-2.5-26.77-1.9-35.85 2.88-3.14 1.6-6.2 3.7-8.85 6.34-1.34 1.3-2.55 2.77-3.68 4.3-.57.77-1.08 1.57-1.6 2.37l-.4.67-.23.4-.17-1.32c0-.05-.06-.32-.1-.56l-.14-.7-.3-1.4c-.44-1.86-.97-3.7-1.64-5.47-1.32-3.55-3.12-6.87-5.28-9.76-.26-.4-1-1.36-1.03-1.32a32.65 32.65 0 0 0-1.22-1.42c.97-2.9 2.28-7.87 3.04-10.8 1.08-4.4 3.04-9.28 4.12-13.78.06-.14.13-.52.1-.53l1.2-4.05c.01 0 .1-.32.26-.85zm70.73 42.9l.06-.1-.06.1zm-92.5 16.47l.03.2c.07-.4.07-.56.15-.83-.01.25.07.15.2-.45v.42l.12-1.17c.27-.86.47-2.28.65-2.62 0 0 .46-1.88.44-2.34-.01.4.24-.64.25-.33.03-.5.28-1.97.5-2.53v.1c.55-2.13.68-3.7 1.2-5.6-.1.07.16-.94 0-.7.32-2 1-3.58.83-4.37.18-.9.3-1.06.43-1.52l-.03.22.73-3.45c.1-.64-.03-.77.25-1.9-.02.38.07-.1.16-.5-.05.27-.04.36.12-.18 0-.08.01-.2.03-.32.01 0 .01-.02.02-.01.13-.7.1-.6.01-.27-.01-.02-.02.01-.06.1.24-.7.44-2.04.56-2.1.43-2.12.65-3.66 1-5.43.1-.2.06.24-.03.75l.25-1.25c.08.03-.1.73-.18 1.12.45-1.46.54-3.1 1.03-4.8l.02-.38.03-.1c-.03 0 .01-.4.05-.66.12-.23.15.05.34-.8.2-.67.4-1.95.55-2.85-.12.48-.12.32-.1.1.1-.43.2-.67.26-1l.1-.02c-.12.15.15-1.15.15-1.32.12-.23-.1.68-.06.8l.55-2.6c.13-.94-.12.15-.1-.3.16-.82.27-1.63.53-2.55l-.15.28c.27-1.55.48-2.46.78-3.47.38-2.45.6-3.97.67-4.86l7.46.1.98.01-.2.9c-.24.2-.55 1.82-.75 2.32v-.05c-.27 1.4-.92 2.76-1.2 4.1 0-.05-.04-.1.05-.4-.26.96-.6 2.27-.72 2.3-.64 2.28-1.6 5.44-1.88 6.94v-.1c-.14.86-.3 1.08-.5 2.02-.03.05-.05.1-.06.1-.16.93-.75 2.64-.92 3.4l-.08.03-.5 1.8.2-.67c.1.28-.5 1.33-.77 2.67-.38 1.22-.36 2.6-.8 3.83-.1.63.02-.57-.18.35-.1 0 .07-.44-.08-.23-.22.9-.52 1.43-.78 2.54l-.08.02c-.3 1.47-.88 2.67-1.03 3.66-.37 1.5-.5.93-.8 2.5l-.27.57c-.2.65-.02.5-.28 1.22-.05-.06-.32.9-.25.46-.58 1.62-.84 3.4-1.63 5.5-.02.5-.4 1.58-.42 1.96-.07.04-.65 2.2-.4.93.02-.1.08-.3.1-.28l-.03-.17c-.5 1.2-.58 2.27-.96 3.5.13-.36.26-.84.22-.5l-.34 1.14v-.25l-.53 1.7.14-.2c-.28.82-.5 1.07-.66 2.04-.07.44.33-.76.1.13l-.66 1.95-.66 2.02c.07.01.06.06.05.15l-.07.01-.04-.07c-.02.01-.03.01-.05.02-.07 0-.13.01-.18.01h-.3c-.15-.01-.22-.03-.3-.05-.14-.04-.28-.1-1.06-.05l-.27.1c-.25.03-.52.04-.56.04s-.07-.01-.08-.02c-.03-.02-.02-.06-.1-.05 0-.03-.02-.04-.04-.13-.01.07-.06.12-.1.1-.02-.01-.03-.04-.03-.1 0-.04.01-.1.06-.3zm85.68 1.2l.75.05c-2.66.04-3.6-.02-6.6.13-1.36.06 2.52.1-.3.13l-13.44-.15c.43.1-.8.08-2.05.1l-.15-.07c-4.82.1-1.77-.16-6.56-.08l-.84.1c-4.32.15-2.33-.15-7.13.05 1.9-.01.9.16-1.44.13l.6-.07c-1.3.02-1.72.05-2.58.03.77-.04.4-.1-1.5-.1l1.27-.1-3.6.13c-2.78-.08-7.17.02-8.3-.08 0 0-5.96-.05-7.33.06 1.2-.07-2.1-.1-1.16-.18-1.54.08-6.1.14-7.94.06h.35c-5.3-.07-9.4.04-13.84.04l.23-.63.2-.54a18.48 18.48 0 0 0 .42-1.1c1.7-5.68 3.2-11.88 4.94-17.12l.15-.2c.15-.07.24-1.5.42-1.68l.12-.63c.07-.17.2-.52.14-.2.17-.57.15-.6.24-1l.25-.6c.64-2 1.05-3.8 1.65-5.86 2.08 2.5 3.8 5.32 5.23 8.02-.1-.14-.17-.2-.6-1.03.75 1.3 1.45 2.96 2 4.28.48 1.35.84 2.38.83 2.5l.78 2.7c.23.95.42 1.93.64 2.92l.72 4.88c.01.02 0 .07.01.06l.04-.07.16-.3.93-1.74c.4-.8.95-1.72 1.12-2 2.04-3.43 4.53-6.14 6.2-7.72l-.2.23c1.9-1.8 2.56-2.24 5.02-3.84.14-.07.32-.17.3-.15.6-.4 1.4-.8 2.22-1.25.87-.4 1.8-.83 2.75-1.18 1.9-.7 3.8-1.2 4.93-1.45l.16.04c1.85-.43 3.77-.64 5.66-.93l-2.13.3c.7-.3 4.32-.55 8.47-.8 3.88-.12 7.94-.37 11.95.35 1.93.23-1.7-.14 1.16.27.08.1-1.34-.16-.62.04 2.8.43 4.55.97 7.9 1.97l.1.1c4.38 1.3 7.9 3.38 10.63 4.7 2.1 1.08 2.7 1.58 3.35 2.06.65.48 1.34.96 3.37 2.33.5.4 1 .8 1.48 1.2 1.67 1.27 1.28.8 3.1 2.26-.15-.04 2.28 1.86 1.17 1.06l6.38 5.16 3.46 2.9.53.46.22.2c.08.05-.04.03-.1.03h-.17l-.16-.01h-.34c-1.5.17-5 .22-6.14.35-.2-.05-7.02.23-3.1-.02.34-.02.94-.04.9-.02l.47-.1c-3.97-.01-7.2.32-11.14.43 1.16-.01 2.7-.07 1.68.01l-3.65.1.76-.1-5.4.15zm121.72.02c-.9-.06.98-.1 3.33-.13l-5.74.02c.02-.04.85-.05 1.9-.06h3.18c-6.84-.13-14.1.13-22.1.01l-1.66.06-.48-.01c.01.02-.43.04-1.03.05l-1.94.04c-1.13-.07.08-.16-3.9-.16-3.14-.07-8.92.03-13.03.07 2.22.01 1.5.05.55.08-1.98 0-3.13-.07-4.66-.04l-.15-.07c-.28.07-5.3.08-5.96.1-1.13-.07 3.08-.06 3.57-.1l-11.94.01c-4.25.07.77.1-1.26.17l-11.7.03 1.36.08c-7.04.07-11.26.06-16-.03l-6.4.1 1.23-.04.33-.01c.05.01.03-.01 0-.03l-.06-.05-.13-.1-.5-.44-2.57-2.2-2.54-2.15-5-4.17-.53-.54c-.17-.32-3.8-2.76-4.26-3.24l-1.62-1.14c-.43-.36-1.37-1.06-.55-.5-1.5-1.07-1.53-1.1-2.65-1.8-.53-.4-1.05-.8-1.6-1.17-.13-.1-.26-.16-.38-.25.6-.97 1.32-1.8 1.95-2.65l1.18-1.23.57-.6.62-.52c.8-.7 1.6-1.37 2.44-1.9l1.2-.83 1.25-.7c3.3-1.8 6.56-2.83 10.06-3.3.28.02.95-.03 1.82-.1.88-.02 1.97-.06 3.1-.01 1.13.04 2.3.15 3.33.3 1.08.18 1.7.26 2.93.62l-.37-.1a54.67 54.67 0 0 1 2.19.62l-.94-1.64c-.3-.53-.6-1.13-.7-1.38-.32-.67-.62-1.35-.9-2.04-.55-1.38-1.03-2.8-1.4-4.23-.76-2.86-1.14-5.78-1.08-8.56 0 .2.02.33.04 1.22-.03-2.06.24-4.4.84-6.2.62-1.97 1.44-3.3 1.56-3.4 1.35-2.4 3.54-4.64 6.13-6.4l10.35-.05 1.72.07c1.52-.04 3.3-.06 4.85-.02l-.1.02 5.98-.05-.1.02 2.77-.01-.48.03 11.67-.04-.3-.1 17.5.03h-.1c8.8-.23 13.9.16 22.98-.06-1.13.03.48.04.4.07 4.18-.02 8.64-.04 8.7-.2 3.04 0 2.48.05 2.87.12-.01-.04.65-.06 1.6-.08l1.54-.01c.05.15.1.3.14.46l.37 1.02c-.1.3.5 1.83.6 2.37l-.03-.05c.52 1.32.7 2.82 1.2 4.1-.03-.05-.08-.06-.17-.36.3.95.7 2.24.64 2.34.7 2.27 1.57 5.45 2.15 6.86l-.06-.1c.35.8.33 1.07.65 1.98 0 .05.01.12.01.1.37.87.78 2.63 1.04 3.35l-.05.07.54 1.8-.18-.68c.24.18.3 1.4.78 2.67.33 1.23 1.1 2.37 1.37 3.67.26.58-.3-.5.04.4-.08.06-.18-.4-.2-.15.3.88.33 1.48.7 2.56l-.06.07c.55 1.4.7 2.72 1.1 3.64.5 1.46.08 1.05.66 2.54l.08.62c.18.66.26.44.42 1.18-.07-.03.22.93.04.52.38 1.68 1.1 3.3 1.58 5.52.26.44.5 1.55.7 1.88-.03.07.63 2.2.16 1-.04-.1-.1-.3-.07-.28l-.1-.13c.23 1.28.73 2.23 1.06 3.46-.08-.37-.23-.85-.1-.54l.32 1.14-.13-.22.46 1.7.01-.26c.2.84.16 1.17.54 2.07.18.4-.13-.8.15.05l.5 2a46.09 46.09 0 0 0 .29 1.12l.34 1.28c0-.1.03-.07.07.02-2.72-.01-5.34.01-5.6-.06l-24.74.18z"/></g><defs ><path id="B" d="M537.8 341.08a2.97 2.97 0 1 0 0-5.94 2.97 2.97 0 1 0 0 5.94zm0-4.94a1.97 1.97 0 1 1 0 3.94 1.97 1.97 0 0 1-1.97-1.97c0-1.1.9-1.97 1.97-1.97z"/></defs></svg>