<svg xmlns="http://www.w3.org/2000/svg" xmlns:xlink="http://www.w3.org/1999/xlink" viewBox="0 0 720 640" xmlns:v="https://vecta.io/nano"><style><![CDATA[.F{fill:#fff}.G{fill:#9ca5b2}]]></style><g fill="#e8ecef"><path d="M567.85 484c35.44-45 56.6-101.78 56.6-163.5 0-146.05-118.4-264.44-264.44-264.44S95.56 174.45 95.56 320.5c0 61.72 21.15 118.5 56.6 163.5h415.7z"/><circle cx="360" cy="320.5" r="264.44" opacity="0"/></g><path d="M460.04 299.1h-24.97c-3.56 0-6.45-2.9-6.45-6.45v-11.28h163.44v11.28c0 3.56-2.9 6.45-6.45 6.45h-110.5" class="F"/><path d="M430.97 280.93l.88.03c-.02-.01-.24-.03-.88-.03zM546 299.55l-.2.01.2-.01zm-80.92-17.45h0z" class="G"/><path d="M522.82 299.1h-24.96l-.88 21.64h26.73z" class="F"/><path d="M509.27 299.53l-.24-.03c0 .02.06.03.24.03zm13.9 19.27c0-.02-.01-.04-.01-.06 0 .04.01.06.01.06zm-23.38-20.44c.03 0 .05-.01.07-.01l-.07.01z" class="G"/><circle cx="510.26" cy="290.05" r="2.95" class="F"/><path d="M512.38 292.7h-.06c.01 0 .02.01.06-.01zm-1.22-5.93h0zm-.8 5.5h0l.01-.01z" class="G"/><path d="M428.62 280.7v-80.73c0-3.54 2.9-6.4 6.45-6.4H585.6c3.56 0 6.45 2.87 6.45 6.4v80.73" class="F"/><path d="M428.2 233.32l.03-.85c-.01.01-.03.23-.03.85zm164.3-21.52c0 .07.01.14.01.2v-.2zm-163.14-11.63v.05l.01.22-.01-.27z" class="G"/><path d="M142 437.98h38.3a3.93 3.93 0 0 1 3.93 3.93v5.34h-54.1v-5.34a3.93 3.93 0 0 1 3.93-3.93" class="F"/><path d="M158.47 437.54l.3.03c0-.01-.08-.03-.3-.03zm-15.9 10.16h-.07c.05-.01.07-.01.07-.01zm27.44-8.98h-.02c-.03 0-.05.01-.08.01l.1-.01z" class="G"/><path d="M180.25 447.25h-46.12l2.2 36.9h41.73z" class="F"/><path d="M157.17 447.68l-.42-.03c.02.01.12.03.42.03zm20.63 33.04v-.1.1zm-36.77-34.22h.12-.13z" class="G"/><path d="M178.9 469.94l1.35-22.7h-46.12l1.35 22.7z" class="F"/><path d="M179.6 450.7l.06-.34c-.02.01-.04.1-.06.34zm-28.7 18.8h.08c-.06 0-.08 0-.08.01zm19.35-23h.12z" class="G"/><path d="M202.27 300.83c19.3-6.88 9.6-19.87 25.76-27.46 10.52-4.93 20.68-2.17 26 2.6 9.46 8.46 11.85 21.25-.9 31.5-9.5 7.64-14.84 10.23-13.02 23.37 1.67 12.02-1.34 23.37-15.36 31.38-6.8 3.88-7.35 11-10.04 18.13-2.98 7.9-11.33 11.58-22 15.6-7.77 2.92-9.35 16.02-18.36 22.03-4.24 2.83-7 2.05-10-.33s-9.57-15.5-7-32.7c2.42-16.27 5.13-20.22 13.7-29.38 6.5-6.94 6.32-17.93 6.34-27.04.02-7.43 3.18-13.62 8.67-18.58" class="F"/><path d="M242.24 270.5l.97.16c-.02-.03-.26-.08-.97-.16zm-84.57 109.6l.03-.23-.03.23zm102.3-82.5c.01-.02.01-.03.02-.05l.1-.22-.1.27z" class="G"/><path d="M73.9 386.06c1.9 6.57 6.6 13.32 12.38 17.44 11.46 8.14 23.2 6.58 30.95 9.7s12.03 9.7 17.77 10.96c4.53 1 7.6.02 9.17-1.88 3.87-4.72 4-18.48-6.6-28.5s-22.64-7.83-32.95-13.47S88.3 363.1 77.97 370" class="F"/><path d="M90.27 405.45l.4.26c0-.02-.1-.1-.4-.26zm20.87-22l-.1-.02.1.02zm-3.7 28.28c-.06 0-.1-.01-.14-.01l.14.01z" class="G"/><path d="M72.76 277.66c-.87-9.68 1.44-19.2 9.94-24.47 22.04-13.65 48.2 10.86 50.7 28.13 2.5 17.28 5.66 23.62 13.7 29.08 8.02 5.46 12.54 21.57 8.5 33.42-4.04 11.86 5.38 16.88 9.64 22.9 9.54 13.5.95 48.6-6.88 54.88-7.2 5.77-12.6-7.28-19.55-12.97-12.3-10.1-7.25-22.14-19.18-29.25-15.43-9.18-25.4-20.14-23.82-38.6 1.5-17.4-.37-26.46-9.84-33.46-3.36-2.48-7.22-8.5-9.92-15.76" class="F"/><path d="M112.57 253.4l.9.57c-.01-.02-.23-.17-.9-.57zm-7.45 115.5l-.18-.18.18.18zm28.46-81.84c0-.02-.01-.04-.01-.06l-.06-.27.07.33z" class="G"/><g class="F"><circle cx="189.09" cy="152.7" r="47.42"/><path d="M218.97 190.04l-.64.43c.02.01.18-.1.64-.43zm-17.24-83.47c.06.01.13.03.18.04l-.18-.04zM334.9 331.7l-15.5 152.27h4.98l20.88-152z"/></g><path d="M330.7 377.42l-.12.82c.02-.02.06-.22.12-.82zm6.46 10.36c.01-.06.01-.14.02-.2l-.02.2zm-10.9 21.48v-.04l.01-.2-.01.25z" class="G"/><path d="M603.4 331.7l15.5 152.27h-5l-20.88-152z" class="F"/><path d="M608.46 377.33l.05.82c.02-.01.01-.22-.05-.82zm-8.22 10.57l-.03-.2.03.2zm10.3 21.5v-.04l-.03-.2.03.25z" class="G"/><path d="M612.9 332.14h-292a11.55 11.55 0 0 1-11.55-11.55h315.1a11.55 11.55 0 0 1-11.55 11.55z" class="F"/><path d="M521.16 332.57l-1.65-.03c.01.01.12.02.38.02l1.27.01zm-12.02-12.43l.4-.01-.4.01zm-52.2 11.26h.01z" class="G"/><path d="M327.45 332.28h282.78v29.9H327.45z" class="F"/><path d="M521.05 362.63l-1.6-.03c.01.01.12.02.37.02l1.23.01zm-10.62-30.8l.38-.01-.38.01zm-51.8 29.62h.1l.42-.01-.5.01z" class="G"/><path d="M507.76 336.82h83.22v20.35H470.76v-20.35h23.74" class="F"/><path d="M545.96 336.38l.7.03c-.01-.01-.2-.03-.7-.03zm-63.73 21.24c-.05 0-.1.01-.16.01.1 0 .14 0 .16-.01zm90.47-20.07h-.04c-.06 0-.12.01-.18.01l.22-.01z" class="G"/><circle cx="531.26" cy="346.99" r="2.83" class="F"/><path d="M533.3 349.55h-.06c.01.01.03.02.06 0zm-1.17-5.72h.01zm-.77 5.25h0l.01-.01z" class="G"/><path d="M346.72 336.82h120.23v20.36H346.72z" class="F"/><path d="M426.85 337.25l-.72-.03c.01.01.2.03.72.03zm2.13 19.48c.06 0 .12-.01.17-.01-.12 0-.15 0-.17.01zm-30.18-20.65h.04c.06 0 .13-.01.2-.01l-.23.01z" class="G"/><circle cx="406.22" cy="346.99" r="2.83" class="F"/><g class="G"><path d="M407.72 345.12l-.01-.05c-.01.02-.01.03.01.05zm-.87 4.18h0zm-.45-5.87h0v-.01zm129.14 140.1l.33.03c0-.01-.08-.02-.33-.03zm83.6-.02c.03 0 .06 0 .08-.01-.06 0-.07.01-.08.01zm-70.75 1.2c-.05 0-.08.01-.1.01h.1zm-52.72-1.18l.02.03c0-.01-.01-.02-.02-.03zm4.58-.02zm-3.88 1.2h0zm-204.3-1.18l.5.03c-.01-.01-.14-.02-.5-.03zm125.8-.02c.04 0 .08 0 .12-.01-.08 0-.1.01-.12.01zm-106.5 1.2h-.03c-.04 0-.1.01-.13.01h.16zm-218.7-1.18l.38.03c0-.01-.1-.02-.38-.03zm96.74-.02c.03 0 .06 0 .1-.01-.06 0-.08.01-.1.01zm-81.88 1.2c-.05 0-.1.01-.12.01h.12z"/><path d="M88.02 484.6c5.12.04 6.47.2 11.78.14l7.7-.04c1.17-.13 3.25 0 4.64-.1l.54.07c.48-.04 1.04-.06 1.52-.02l-.03.02c.7-.05 1.52-.02 1.88-.05l-.03.02.87-.01-.15.03c1.25-.06 2.53-.06 3.66-.04l-.1-.1c2.42.1 3.3-.08 5.5.03l-.03.02c2.76-.23 4.37.16 7.2-.06-.36.03.15.04.12.07 1.3-.02 2.7-.04 2.73-.2.96 0 .78.05.9.12-.01-.08.82-.1 1.57-.1l-.34.03 2.14-.03-.42-.14c1.13.04.3.17 1.37.14l-.01-.12c1.57.02 2.5.2 4 .3 6.3.05 13.08-.25 18.95-.04l.26.1c.1.13 1.62-.2 1.84-.07l.68-.06c.2.02.6.05.26.08.63.01.65-.02 1.1-.05l.68.08c2.5.06 4.6-.1 7.23-.06 3.15.16 9.07.01 12.5-.07 4.8-.2 10.38.32 15.3.1.16.02.57-.02.57-.04l4.5.02s21.8.05 5.24-1.02l.1-.03c-2.46-.07-4-.08-5.7.06-.27-.17-2.02-.02-2.6-.07l.05-.01c-1.5.13-3.1-.1-4.54.01.06-.01.1-.06.42-.06-1.05.02-2.5.06-2.57-.04-2.52.03-6.03-.02-7.65.14l.1-.03c-.92.1-1.2.02-2.22.07-.06-.01-.13-.02-.12-.03-1 .1-2.92.02-3.73.06l-.05-.07-2 .02.75.01c-.26.18-1.5-.12-2.96 0-1.35-.02-2.75.38-4.15.3-.67.1.6-.14-.4-.07-.03-.1.47-.06.2-.14-.98.05-1.6-.1-2.83-.03l-.05-.07c-1.58.14-3-.1-4.04.03-1.63.06-1.1-.22-2.8-.08l-.66-.1c-.73-.02-.52.12-1.33.07.05-.06-1.02-.05-.55-.1-1.83-.1-3.7.14-6.1-.03-.52.12-1.73.05-2.12.14-.06-.05-2.43-.01-1.07-.13.12-.01.32-.01.3.01l.16-.07c-1.37-.14-2.5.08-3.85.05.4.02.94.02.58.07l-1.26-.01.26-.06-1.88-.04.26.08c-.92-.04-1.24-.17-2.28-.06-.47.06.87.1-.1.13l-4.64-.15c.15.1-.28.08-.7.1l-.05-.07c-1.66.1-.6-.16-2.26-.08l.15-.05-.44.16c-1.5.15-.8-.15-2.46.05.65-.01.3.16-.5.13l.2-.07c-.45.02-.6.05-.9.03.27-.04.14-.1-.52-.1l.44-.1-1.24.13c-.96-.08-2.48.02-2.87-.08 0 0-2.06-.05-2.53.06.4-.07-.72-.1-.4-.18-.53.08-2.1.14-2.74.06l.12-.01c-2.33-.1-4 .12-6.08.01.1.1-1 .04-.74.15-2.17.1-3.95-.23-4.73.12-1 .02-1.17-.08-1.68-.1l.23-.02-3.75.02c-.68.03-.8.2-2.02.15.4-.06-.1-.05-.56-.05.3-.01.38-.03-.22-.08-.08.02-.22.03-.34.04-.01-.01-.03-.01-.02-.02-.77.02-.63.04-.28.05-.02.01.01.02.12.04-.8-.08-2.22.01-2.3-.1-2.3.03-3.95.14-5.86.18-.22-.06.23-.1.8-.13l-1.36.02c.01-.08.78-.05 1.2-.06-1.62-.13-3.34.13-5.23.01l-.4.06-.1-.01c.01.03-.42.08-.7.1-.27-.07.02-.16-.92-.16-.74-.07-2.1.03-3.08.07.52.01.36.05.13.08-.47 0-.74-.07-1.1-.04l-.05-.1c.18.1-1.23.1-1.4.13-.27-.07.73-.06.85-.1l-2.83.01c-1 .07.18.1-.3.17-.9.02-1.75.08-2.77.03l.32.08c-1.67.07-2.66.06-3.8-.03-12.42.68-2.62.93-2.62.93 4.9.2 7.42-.03 13.24-.1z"/></g><path d="M603.02 172.74h-85.54c-4.5 0-8.15 3.65-8.15 8.15v26.5c0 4.5 3.65 8.15 8.15 8.15h3.8v10.13l14.22-10.13h67.53c4.5 0 8.15-3.65 8.15-8.15v-26.5c0-4.5-3.65-8.15-8.15-8.15z" class="F"/><path d="M561.86 173.17l-.74-.03c.01.02.2.03.74.03zm33.4 41.93c.06 0 .12-.01.18-.01-.13 0-.17 0-.18.01zm-62.2-43.1h.04c.06 0 .13-.01.2-.01h-.23z" class="G"/><path d="M529.9 123.5h-12.4c-4.5 0-8.15 3.65-8.15 8.15v26.5c0 4.5 3.65 8.15 8.15 8.15h85.54c4.5 0 8.15-3.65 8.15-8.15v-26.5c0-4.5-3.65-8.15-8.15-8.15H541.4" class="F"/><path d="M509.77 144.06l-.03.68c.01-.02.03-.2.03-.68zm86.33-20.1c-.05 0-.1.01-.16.01.1 0 .15-.01.16-.01zM516.87 167h-.23.23z" class="G"/><g class="F"><use xlink:href="#B"/><use xlink:href="#B" y="-48.9"/></g><path d="M591.16 136.84l-.13-.03c0 .01.03.03.13.03zm-33.7.01c-.01 0-.02 0-.03.01.02 0 .02 0 .03-.01zm28.52-1.2c.02 0 .03-.01.04-.01l-.04.01zm5.64 50.72l-.13-.03c0 .01.03.03.13.03zm-33.7.02c-.01 0-.02 0-.03.01.02 0 .03 0 .03-.01zm28.53-1.2h0c.02 0 .03-.01.04-.01h-.04zm5.17 9.5l-.13-.03c0 .02.03.03.13.03zm-33.7.03c-.01 0-.02 0-.03.01.02-.01.03-.01.03-.01zm28.53-1.2h0c.02 0 .03-.01.04-.01l-.04.01zm-16.42-48.82l-.07-.03c.01.01.02.03.07.03zm-17.68.02c-.01 0-.01 0-.02.01.01-.01.01-.01.02-.01zm14.97-1.2h0c.01 0 .02-.01.02-.01l-.02.01z" fill="#8f99a8"/><g class="G"><path d="M222.8 118.6l.47.44c-.23-.26-.38-.37-.47-.44zm-81.65 37.26c.05.83.02 1.67.17 2.46.04-.3.17.54.32 1.4l-.06.1c.65 3.3-.1 1.28.8 4.52l.25.55c.9 2.88.23 1.64 1.56 4.73-.47-1.24-.06-.64.47.9l-.2-.36.7 1.66c-.27-.47-.22-.2.37.98l-.47-.77 1.2 2.2.7 1.46.9 1.47 1.24 2.14s.12.23.37.55l.92 1.24 1.83 2.28c-.62-.58.9 1.14.4.7l1.9 1.94.56.6.57.53.9.87-.2-.16 2.48 2.22 2.44 1.8c.77.6 1.62 1.08 2.46 1.6l2.6 1.6c-.13-.16 1.86.86 1.42.52l2.83 1.32 2.53.98c.78.28 1.45.6 2.07.72.62.14 1.13.23 1.54.24l3.27.88-.47-.05 4.1.6c1.07.16 2.04.13 3.43.23 1.38.02 1.6-.03 4.07-.16-.8.1.2.04 1.14-.01-.6.04-.77.07.45.05.17-.03.43-.05.68-.08.01 0 .06.01.04.01l.55-.08c.03-.01-.03-.02-.25-.02 1.6-.12 4.42-.67 4.63-.58 4.53-1.06 7.7-2.17 11.14-3.9.42-.14-.38.3-1.38.8l2.46-1.2c.02.08-1.4.73-2.16 1.1 3.03-1.26 6-3.1 9.1-5.34l.6-.53.2-.13c-.03-.02.63-.57 1.08-.92.45-.3.08.15 1.48-1.13a36.21 36.21 0 0 0 2.17-2l2.16-2.48c-.72.78-.52.5-.23.14.64-.7 1.07-1.05 1.46-1.67h.1c.02-.15 1.45-2.07 1.6-2.35.38-.4-.83 1.2-.93 1.43 2.27-3.05 1.16-1.5 3.16-4.75 1-1.77-.27.27.16-.6.5-.75.8-1.58 1.2-2.4.38-.83.8-1.68 1.26-2.6-.1.2-.24.37-.35.55 1.18-3.13 1.9-5 2.47-7.18l.5-2.15c.1-.68.17-1.34.25-1.94.13-1.22.3-2.27.34-3.2v-3.94c-.06-1.65-.2-1.53-.26-.63-.12.9-.26 2.54-.36 3.96-.03.72-.15 1.36-.24 1.84l-.13.77c-.7 4.77-1.95 8.22-3.3 11.84l-1.26 2.7c-.23.46-.4.95-.68 1.4l-.83 1.4c-1.07 1.96-2.52 3.96-4.3 6.2l-2.35 2.55c-.72.78-1.5 1.37-2.17 2-.7.6-1.3 1.22-1.98 1.7l-1.98 1.44c-2.63 1.87-5.46 3.58-10.27 5.6-1.18.4-2.34.9-3.57 1.26l-3.7.97c-2.52.44-5.03.92-7.47.95-.58.06-1.26.1-2.02.16-.75.02-1.56-.06-2.4-.1l-2.47-.12-2.24-.28-1.04-.23-1.5-.2c-.5-.1-1-.25-1.45-.4l.06-.01c-1.37-.32-2.93-.68-3.58-.92h.06l-1.6-.58.3.07-2.62-.9-.83-.4-3.17-1.54.13.16c-4.07-2.5-5.65-3.33-8.84-6.24l.06.02c-4.18-3.44-5.95-6.17-9.04-10.7.15.2-.22-.43-.18-.4l-1.02-1.64-.78-1.54c-.47-.9-.8-1.52-.9-1.5-.42-.85-.56-1.2-.6-1.4-.04-.18-.01-.16-.02-.3-.07.04-.66-1.5-1.17-2.88l.26.63c-.55-1.3-.85-2.7-1.22-4.05l.07.84c-.52-2.2.03-.6-.55-2.67l-.1.05c-.23-1.54-.36-2.77-.5-3.98-.1-.6-.08-1.2-.08-1.86l-.03-2.07c-.2-6.22.8-12.72 3.08-18.67 2.26-5.95 5.78-11.3 9.88-15.4l.4-.32c.2-.12 2.22-2.3 2.62-2.53l.96-.95c.32-.2.97-.67.45-.24 1-.74 1-.78 1.7-1.35l1.12-.74c1-.7 2.06-1.26 3.04-1.88.97-.65 2-1.14 3.04-1.65 2.03-1.1 4.25-1.88 6.7-2.73 3.02-.72 7.4-1.85 11.96-1.9l1.7-.1 1.7.07 3.3.15 4.47.63 1.3.3c4.68.9 9.48 3 13.82 5.76 4.35 2.78 8.25 6.25 11.45 9.9.22.23.7.88.73.86l1.33 1.78c.44.6.9 1.17 1.27 1.83l1.15 1.9c.37.64.8 1.25 1.1 1.93l1.64 3.4.86 2.3c1.34 3.28 2.17 7.6 2.67 10.9.3 3.33.46 5.67.6 5.1.06-.28.1-1.3.1-3.28 0-.5.01-1.06-.02-1.68l-.5-4.5c-.16-.88-.4-1.82-.6-2.84l.08.2c-.5-2.45-1.33-4.3-1.93-6.05-.7-1.7-1.52-3.13-2.3-4.65-.15-.53-2.06-3.53-2.7-4.5l.08.08c-.98-1.16-1.84-2.48-2.82-3.67-1.03-1.15-2-2.36-3.1-3.33.04.04.1.05.18.1-1.5-1.38-3.3-2.96-3.35-3.1l-3.3-2.46c-1.2-.8-2.48-1.52-3.68-2.26-1.22-.7-2.5-1.22-3.57-1.74-1.08-.55-2.1-.84-2.88-1.1l.22.05a31.94 31.94 0 0 1-2.05-.69c-.3-.1-.6-.23-.95-.34l-1.28-.3c-.1-.04-.25-.08-.22-.08-.5-.1-1.1-.24-1.76-.4-.65-.16-1.35-.36-2.06-.44l-3.58-.54-.1-.08c-1.34-.1-2.68-.14-4.02-.2l1.5.1c-.27.08-1.02.01-2.08-.08s-2.42.01-3.88.12c-1.37 0-2.73.34-4.1.64l-2.05.42c-.68.18-1.35.38-2.04.53-1.28.42 1.1-.43-.82.13-.1-.08.9-.3.37-.24-.95.28-1.76.4-2.6.68-.83.28-1.7.58-2.84 1.03l-.12-.04-1.1.44-1.03.5-1.95.9c-1.28.53-2.32 1.2-3.2 1.8-2.8 1.75-2 1-4.7 3.14-.37.24-.76.47-1.13.73-1.1.98-.7.8-1.94 1.86.03-.1-1.56 1.35-.9.66-.73.57-1.3 1.33-1.96 2.02-.62.72-1.3 1.42-1.92 2.23-1.18 1.65-2.55 3.33-3.8 5.42-.22.5-.67 1.24-1.1 1.97-.36.76-.7 1.5-.84 1.87-.05.05-.6 1.15-.97 1.93-.2.38-.3.7-.35.77-.02.06-.01-.17.27-.8.1-.22.28-.6.28-.56l.08-.33c-.72 1.2-1.07 2.43-1.48 3.62l-.6 1.8c-.2.62-.3 1.26-.5 1.93.23-.78.5-1.84.36-1.12l-.65 2.47.07-.53-.5 1.84c-.15.62-.22 1.25-.33 1.88l.15-.5-.42 2.18c-.1.65-.28 1.33-.24 2.4.01.95.2-1.75.12.2l-.15 2.07c-.03.75-.16 1.55-.1 2.37.01.9.04 1.74.07 2.57z"/><path d="M142.4 164.36h0l-.12-.27zm88.33-16.73l-.54-3.44-.92-3.54c-.33-1.15-.8-2.2-1.15-3.16-.34-.97-.76-1.76-1.1-2.36l.1.16-.84-1.62c-.22-.48-.45-1-.95-1.72l-.08-.18-1.8-2.78-1.84-2.45v-.1c-.7-.9-1.52-1.7-2.27-2.54l.85.95c-.22-.1-.63-.6-1.2-1.3-.56-.7-1.44-1.46-2.38-2.26-.82-.82-1.84-1.42-2.84-2.06l-1.48-.97-1.53-.92c-1.02-.52.93.4-.56-.43 0-.1.7.36.38.07l-1.94-1.16-2.3-1.12-.05-.1-.9-.4-.9-.33-1.7-.65c-1.07-.46-2.1-.73-2.98-.9l-2.26-.65c-.47-.12-.96-.23-2.4-.37l-1.1-.27c-.6-.1-.84-.1-1.08-.07-.24.01-.5.02-1.2-.04.1-.06-1.74-.14-.93-.16-3.13-.3-6.36.15-10.43.8-.85.3-2.88.74-3.5 1.05-.13-.06-3.93 1.34-1.78.45.2-.08.52-.2.5-.16l.24-.16c-2.3.62-4 1.58-6.07 2.6.63-.28 1.45-.7.92-.38-.65.3-1.3.64-1.92 1l.37-.27a38.96 38.96 0 0 0-2.8 1.61l.4-.18c-1.34.82-1.9 1.03-3.25 2.18-.6.54 1.25-.82-.06.2a39.48 39.48 0 0 0-5.91 5.32c.23-.13-.25.4-.72 1l-.1.02c-1.7 2.3-.82.7-2.4 3.04l-.2.48c-.64 1.1-.85 1.38-1.07 1.7-.22.3-.47.65-1.06 1.95.54-1 .38-.4-.27.82l.1-.35-.65 1.38c.15-.43.01-.26-.45.76l.23-.72c-.26.66-.5 1.33-.73 2-.7 1.5-1.4 4-1.66 4.63 0 0-.24.85-.47 1.8-.2.96-.4 2.03-.4 2.44.05-.7-.3 1.2-.28.65l-.37 4.7v-.2c-.15 2 .07 3.72.16 5.38.02.83.23 1.63.34 2.46l.38 2.56c.04-.18.47 1.67.46 1.2a51.65 51.65 0 0 1 .67 2.55l.74 2.18c.23.66.44 1.25.64 1.74.24.48.48.85.7 1.12.72 1.45.8 1.8 1.13 2.54 1.5 2.48 1.95 3.33 3.34 5.12.75.9.9 1.02 2.3 2.57-.5-.46.08.17.6.75-.34-.36-.47-.46.2.33.1.1.27.25.42.4 0 .01.03.04.01.03.44.5.66.64.7.66.03.01-.13-.12-.34-.35.03.02 0-.03-.1-.18.9 1 2.8 2.55 2.83 2.75 3.1 2.43 5.5 3.9 8.47 5.3.3.2-.4-.08-1.27-.47l2.1 1c-.05.06-1.22-.54-1.87-.83.6.33 1.24.64 1.9.95.65.3 1.3.63 2 .85l2.15.74c.37.13.73.28 1.1.4l1.16.33.67.1.18.06c0-.04.7.1 1.18.2.2.1.2.13.32.2s.4.17 1.2.27c1.25.25 3.57.58 5.24.53-.9-.06-.6-.08-.22-.1.8.04 1.26.13 1.88.13l.06.08c.05-.03.5-.01.98-.03.6-.02 1.27-.06 1.42-.08.46.06-1.24.1-1.44.15 1.6-.03 2-.07 2.4-.1s.8-.04 2.4-.23c1.7-.3-.32-.05.48-.24 1.5-.22 2.93-.55 4.62-.92l-.55.05c2.73-.74 4.32-1.3 6.12-1.94 4.82-2.18 7-4.16 8.1-5 1.07-.9.92-.93.27-.53-.67.36-1.84 1.1-2.87 1.74-1.04.6-1.95 1.07-1.95 1.07-3.62 1.83-6.53 2.86-9.68 3.7a44.33 44.33 0 0 1-5.1 1c-1.86.22-3.95.42-6.37.24-1.06-.08-2.03-.06-2.9-.22l-2.45-.4-1.1-.2c-.35-.1-.7-.2-1.04-.28l-2-.54c-.67-.15-1.3-.4-1.96-.66l-2.1-.78c-.75-.26-1.48-.7-2.32-1.07-.83-.4-1.75-.8-2.67-1.4-.88-.56-1.83-1.07-2.7-1.7l-2.6-1.93c-1.62-1.42-3.26-2.82-4.6-4.4-.35-.34-.76-.76-1.18-1.22l-1.2-1.6c-.4-.56-.86-1.1-1.23-1.68l-1.03-1.6-.4-.8c-.48-.64-.88-1.5-1.2-2.23l.04.04c-.56-1.05-1.15-2.26-1.33-2.82l.04.04-.5-1.35.1.22c-.86-1.9-1.28-4-1.75-5.83l-.05.17-.38-2.6c-.1-.76-.27-1.42-.3-2.08-.06-1.33-.2-2.6-.15-4.42l.02.05c-.07-2.3.16-4.12.5-5.93.33-1.76.75-3.53 1.35-5.74-.05.23.16-.38.17-.33.64-2.1 1.6-4.22 1.46-4.32.67-1.45.62-1.15.76-1.3-.08-.03.52-1.28 1.15-2.36-.1.17-.18.34-.26.5a41.3 41.3 0 0 1 1.87-3.04l-.5.5c1.1-1.55.4-.3 1.43-1.8l-.1-.05c1.6-2.08 2.77-3.12 4.64-4.83 3.8-3.63 8.4-6.7 13.4-8.7 4.98-2 10.3-2.93 15.2-2.76l.43.1c.18.14 2.7-.05 3.07.08.38-.02.76.04 1.14.08.3.07.98.2.4.14 1.04.16 1.07.15 1.82.22l1.1.25c4.02 1 7.42 2.03 11.3 4.08 2.2 1.4 5.46 3.37 8.22 6.06l1.07.96.97 1.05c.63.7 1.3 1.36 1.88 2.06 1.08 1.45 2.2 2.72 2.9 3.97 2.28 3.3 3.94 7.4 4.93 11.63l.38 1.6c.13.53.16 1.08.25 1.6.13 1.08.35 2.14.4 3.2l.16 3.2c.05.53.02 1.05.02 1.57s0 1.04-.03 1.55a4.62 4.62 0 0 0-.03.58v.38a40.17 40.17 0 0 1-1.35 7.37s-.58 2.2-1.72 4.95c-1.1 2.77-2.95 5.98-4.6 8.28-1.63 2.3-2.94 3.8-2.5 3.54.2-.14.87-.7 1.98-1.95 1.12-1.25 2.72-3.2 4.5-6.26l-.06.18a34.38 34.38 0 0 0 2.27-4.87c.27-.73.52-1.42.7-2.12.2-.7.38-1.38.52-2.1.34-.4.78-3.37.97-4.33v.1c.24-2.55.7-5.26.4-7.74.02.1.07.15.1.72l-.3-4.43z"/><path d="M154.32 128.9h.01l.1-.23zm-2.02 43.84c-.01-.03-.03-.06-.04-.08l-.16-.27c.07.12.12.24.2.35zm36.78-54.28c.28 0 .5-.22.5-.5v-3.5c0-.28-.22-.5-.5-.5s-.5.22-.5.5v3.5a.5.5 0 0 0 .5.5zm0 69.07c-.28 0-.5.22-.5.5v3.5c0 .28.22.5.5.5s.5-.22.5-.5v-3.5c0-.28-.22-.5-.5-.5zm38.55-34.03c.28 0 .5-.22.5-.5s-.22-.5-.5-.5h-3.5c-.28 0-.5.22-.5.5s.22.5.5.5h3.5zm-77.1-1c-.28 0-.5.22-.5.5s.22.5.5.5h3.5c.28 0 .5-.22.5-.5s-.22-.5-.5-.5h-3.5zm40.17-11.35h0l-.04-.04z"/><path d="M204.38 162.8l.07.14c.37.3.8.38 1.2.67.42.45 1.46.92 2.05 1.18.87.32 1.5 1.3 2.4 1.6.02.03.1.04.1.03l.72.46s3.5 2.22 1.38-.34l.03-.01c-.36-.3-.6-.47-.95-.52.05-.17-.32-.22-.38-.32h.02c-.3-.04-.44-.4-.74-.45.02-.01.05-.04.1-.01-.18-.1-.43-.2-.4-.3-.42-.23-.96-.62-1.3-.64h.03c-.2 0-.2-.1-.4-.16 0-.02-.01-.03-.01-.03-.22-.01-.48-.28-.63-.32l.03-.06-.33-.2.1.1c-.14.13-.18-.25-.48-.3-.2-.15-.64.05-.82-.17-.15.01.17-.06-.03-.1.05-.08.1 0 .1-.1-.18-.06-.2-.24-.44-.3l.03-.07c-.33-.04-.43-.38-.67-.38-.3-.1-.06-.3-.4-.34l-.05-.15c-.1-.1-.15.05-.25-.07.04-.05-.14-.14-.03-.15-.24-.27-.67-.25-.97-.63-.15.05-.3-.13-.42-.1.02-.05-.4-.25-.1-.2.02 0 .06.03.04.04l.06-.05c-.15-.25-.44-.18-.65-.34.05.06.14.1.06.12l-.2-.13.07-.03-.28-.22v.1c-.13-.13-.1-.27-.34-.28-.1 0 .1.17-.08.1a5.74 5.74 0 0 0-.67-.59c-.02.1-.1.04-.17.01l.03-.07c-.32-.08-.01-.2-.32-.3l-.1.06c-.32-.02-.05-.2-.42-.2.1.05-.04.17-.15.06l.07-.04c-.08-.03-.12-.02-.16-.06.06-.01.08-.08-.03-.13l.12-.03-.27-.01c-.1-.16-.4-.23-.42-.36 0 0-.3-.25-.44-.2.1-.02-.07-.15.03-.2-.13.01-.4-.1-.47-.22h.02c-.33-.3-.7-.3-1-.6-.03.08-.18-.07-.2.05-.4-.12-.52-.6-.82-.37-.17-.08-.15-.18-.22-.25l.05.01-.62-.36c-.13-.04-.23.08-.4-.07.1-.01.01-.05-.06-.1.05.02.08.01 0-.1-.02.01-.05.01-.08 0-.13-.07-.1-.04-.06.01-.01.01-.01.02 0 .05-.08-.15-.36-.22-.32-.32-.38-.2-.7-.28-1.04-.43-.01-.07.1-.07.2-.03l-.23-.12c.04-.07.15.04.23.07-.2-.27-.6-.22-.85-.5l-.1.01-.01-.02c-.02.03-.1.03-.16.01-.01-.1.1-.14-.07-.23-.04-.07-.13-.1-.23-.15.01-.02.02-.05.04-.07l-.1.01c.03-.25.1-.38.2-.52-.05-.5-.2-.72-.32-.83-.12-.1-.2-.1-.3-.04-.15.1-.23.36-.24.36-.27.47-.12.8-.48 1.37-.44.4-.64.35-1.13.64-.25.1-.53.18-.8.2-.13.14-.36.01-.52.08l-.05-.08c-.06.03-.13.04-.17-.01l.01-.02c-.1.03-.17-.02-.22-.01l.01-.02-.1-.03.03-.02c-.15.01-.3-.05-.4-.13l-.03.08c-.2-.22-.38-.13-.5-.4l.02-.01c-.4-.06-.23-.45-.58-.6.04.02.03-.04.05-.05-.1-.1-.17-.26-.34-.2-.05-.1.01-.1.07-.15-.07.03-.13-.05-.17-.14l.04.03c-.04-.08-.07-.16-.1-.24l-.12.1c0-.15.16-.08.1-.2l-.1.03c-.01-.2.15-.34.23-.52.01-.36.01-.74.1-1.12.1-.37.3-.72.62-.9l.08.04c.1.08.01-.26.1-.2l.02-.1c.03 0 .1 0 .07.04.06-.04.05-.06.07-.12l.1.02c.27-.1.42-.35.72-.42.38.04 1.03-.15 1.46-.12.3-.03.6.17.8.4s.4.47.65.6c0 .02.06.04.07.03.1.14.2.3.27.45-.01 0 .08.14.16.33.1.2.16.44.25.64.07.2.17.35.32.3.13-.04.37-.27.48-.97h.03c-.03-.4-.14-.65-.38-.83.13-.12-.15-.3-.16-.4h.02c-.24-.12-.22-.47-.48-.56.02 0 .05-.04.1 0-.14-.1-.34-.23-.3-.32-.33-.25-.84-.57-1.15-.5h.03-.02c.16-.44.3-.7.4-1.34.1-.4.16-.82.22-1.22-.08-.2.1-.5.05-.75l.1-.07c-.02-.08-.02-.18.03-.24l.02.01c-.03-.12.03-.24.02-.3l.02.01.02-.14.02.03c-.01-.2.03-.4.1-.58h-.1c.18-.36.03-.54.22-.85l.02.01c-.13-.48.3-.65.2-1.14.01.06.05-.01.07-.01.02-.2.06-.43-.1-.47.03-.15.08-.1.15-.12-.07-.02-.08-.15-.05-.27v.06l.05-.34-.15.04c.08-.17.18-.01.18-.2l-.1-.02c.08-.24.28-.35.42-.57.26-.98.2-2.1.6-2.98l.1-.02c.13.01-.13-.3-.01-.3l-.03-.12c.03-.03.07-.08.08-.02.03-.1.01-.1-.02-.18l.1-.1c.15-.38.07-.74.2-1.15.27-.46.32-1.42.35-1.97-.02-.8.67-1.56.62-2.38.02-.02 0-.1-.02-.1l.17-.7s.8-3.4-.8-1.04l-.02-.02c-.15.37-.22.6-.14.9-.18.01-.1.3-.16.4v-.01c.08.26-.2.46-.15.7-.01-.01-.06-.03-.05-.08-.01.17-.03.4-.13.4-.06.4-.23.94-.12 1.23h-.02c.07.17-.02.2-.01.36-.01.01-.02.02-.03.01.07.18-.08.46-.07.6l-.07-.01-.05.32.04-.1c.17.08-.16.2-.1.46-.07.2.28.5.14.7.06.12-.12-.12-.1.05-.1-.02-.04-.1-.13-.06.01.16-.15.23-.13.44l-.07-.01c.08.28-.2.45-.1.64 0 .27-.25.12-.17.42l-.12.08c-.04.1.1.1.03.22-.06-.02-.08.15-.13.06-.16.27.01.6-.24.95.1.1-.01.28.07.36-.05 0-.1.38-.16.14-.01-.02 0-.05.02-.05l-.07-.04c-.18.2-.01.4-.08.62.04-.06.05-.14.1-.08l-.05.2-.05-.05-.1.3h.08c-.07.14-.2.16-.14.34.04.1.13-.1.12.04-.1.18-.23.45-.3.7.1 0 .07.06.07.13l-.07-.01c.04.28-.18.06-.16.34l.1.07c.1.27-.18.1-.04.4.01-.1.17-.01.1.1l-.06-.05c0 .07.02.1 0 .15-.03-.05-.1-.04-.1.06l-.07-.1.1.22c-.1.13-.07.4-.18.43 0 0-.12.3-.03.4-.05-.08-.12.1-.2.02.06.1.07.36-.04.44l-.01-.02c-.16.35-.02.65-.2.96.1 0 0 .17.12.15.03.36-.35.57-.05.77-.02.16-.12.17-.15.24l-.01-.04c-.04.3-.05.38-.1.6.01.1.16.17.08.35-.05-.08-.05.01-.07.08 0-.05-.02-.07-.08.02.02.02.02.04.03.06h-.02c0 .12.02.1.04.05.01 0 .02 0 .04-.01-.1.1-.07.35-.18.34-.05.37 0 .65-.02.96-.06.02-.1-.06-.1-.15l-.03.22c-.08-.02-.02-.13-.02-.2-.18.23.01.55-.17.82l.05.08-.01.02c.03.01.06.08.06.13-.08.03-.16-.04-.18.1-.02.02-.01.06-.02.1h-.1l.1.02v.01c-.06.13-.24-.14-.46 0-.23-.01-.37.42-.58.4-.07.1.05-.16-.08-.06-.03-.1.05-.08 0-.14-.13.08-.27-.03-.43.1l-.03-.07c-.18.22-.48.1-.56.3-.18.18-.27-.1-.4.2l-.15-.01c-.1.07.02.15-.1.2-.04-.05-.16.08-.14-.02-.3.15-.3.53-.66.78.06.14-.1.28-.04.38-.06-.02-.17.36-.2.1 0-.02.02-.05.03-.04l-.06-.05c-.22.16-.1.42-.17.63.04-.06.06-.15.1-.07l-.06.2-.05-.06c-.04.1-.08.2-.1.3l.08-.03c-.06.14-.2.18-.1.37.06.08.1-.13.13.03-.07.2-.15.5-.14.77.08-.03.1.04.12.1l-.07.02c.15.26-.15.13-.01.4l.1.02c.2.2-.12.18.17.38-.05-.1.14-.1.15.03h-.08c.04.06.07.07.08.12-.05-.02-.1.02-.05.1l-.1-.03.2.13c0 .18.22.34.17.45 0 0 .17.3.3.3-.1-.01.01.15-.1.16.12.02.34.17.37.3v-.01c.24.34.6.33.84.6.03-.08.17.04.18-.08.35.06.54.46.75.16.16.02.16.13.24.16l-.04.01.6.05c.1-.03.13-.18.32-.15-.06.07.02.05.1.05-.05.01-.06.04.04.07.01-.02.03-.03.05-.04 0 0 .01.01 0 .02.12-.03.1-.05.04-.05 0-.01 0-.02-.02-.04.13.07.34-.06.38.05.36-.1.57-.3.82-.46.05.04.01.1-.06.17l.2-.1c.03.07-.1.1-.15.14.3 0 .42-.35.72-.43v-.1h.02c-.02-.03 0-.1.03-.14.08.03.1.13.2.02.1-.02.2-.18.25-.3.45.35.7.6 1.38.97.4.26.86.5 1.26.73.26.01.52.32.8.37l.05.1c.1.02.2.05.26.13l-.02.01c.14.03.26.13.33.15l-.02.01.14.08-.04.01c.23.08.44.2.6.34l.03-.08c.34.32.58.26.87.58l-.02.01c.57.08.62.57 1.2.67-.07-.01 0 .05-.01.07.22.1.46.24.55.1.15.1.1.12.08.2.04-.06.2-.01.3.06l-.07-.01.36.2.01-.16c.16.15-.04.18.15.25l.06-.1c.24.18.3.42.5.64 1 .67 2.24 1.1 3.08 1.86v.1c-.05.12.36 0 .33.12l.14.02c.02.04.07.1 0 .1.16.1.18.08.27.1z"/><path d="M185.12 153.68h0l-.06-.01zm434.03 325.58h0l.08.3z"/><path d="M320.63 479.4h0l.02.32zm319.84 4.1l.1-.03c-2.13-.07-3.46-.08-4.93.06-.23-.17-1.75-.02-2.24-.07l.05-.01c-1.3.13-2.67-.1-3.92.01.05-.01.08-.06.36-.06-.9.02-2.16.06-2.22-.04-2.18.03-5.2-.02-6.6.14l.1-.03c-.7.1-.98.03-1.67.06l-.07-.6-.06-.62-.01-.64c.01-.32.02-.67-.2-2.4l-.17-.62c-.47-3.2-.02-1.75-.6-5.3.16 1.4-.1.68-.24-1.06l.12.43-.23-1.92c.1.57.14.3-.02-1.12l.2.94-.4-2.65-.55-6.18-.62-5.44c.16.88-.06-1.56.1-.87-.2-1.14-.6-4.52-.66-5.9l.04.26c-.43-5.03-1-8.57-1.34-13.08-.07.2-.26-2.17-.3-1.57-.58-4.65-.64-8.52-1.15-10.17-.23-2.12-.18-2.52-.27-3.62l.07.5-.84-8.07c-.18-1.47-.36-1.68-.6-4.33.15.85.03-.23-.07-1.22.07.63.12.82.03-.48-.04-.18-.08-.46-.12-.72 0-.01 0-.06.01-.04-.2-1.65-.18-1.36-.1-.6-.01-.04-.02.03-.01.27-.1-1.72-.5-4.77-.4-4.98l-1.46-12.6c.01-.47.16.5.3 1.68l-.32-2.92c.08.02.22 1.68.32 2.57-.22-3.5-.86-7.17-1.16-11.26l-.15-.84-.01-.24c-.03.02-.17-.9-.24-1.5.01-.58.16.02-.05-2-.1-1.6-.5-4.54-.75-6.63.1 1.13.03.77-.05.3-.1-1-.1-1.6-.2-2.38l.07-.08c-.08-.13-.35-2.7-.42-3.02.01-.58.22 1.56.3 1.8l-.25-2.45h-1.12l.58 5.26 2.44 25.35 1.73 16.56c.38 2.5.7 6.98 1.12 9.96l.05 1.17c.14 1.03.3 2.23.35 3.27l-.03-.06c.2 1.53.35 3.27.46 4.03l-.03-.06.2 1.87-.06-.32a249.26 249.26 0 0 1 .84 7.88l.07-.2c.43 5.22.8 7.1 1.17 11.8l-.03-.06c.83 5.92.8 9.4 1.64 15.5-.1-.76-.01.33-.04.27.3 2.82.63 5.83.8 5.85.2 2.06.12 1.68.08 1.95.07-.02.3 1.76.45 3.37l-.1-.74.5 4.6.05-.92c.2 2.44-.1.64.16 2.97l.1-.04.12 1.35c.01.17.02.33.04.5 0 .1.01.17.01.26-.4.01-.82.01-1.24.01l-.8-.04-1.23-.05-.6-.03-.2-.02c-.01-.15.01-.1-.05-.6l-5.62-40.6.01-.57c.1-.26-.66-3.44-.6-3.94l-.26-1.45c-.03-.4-.13-1.28 0-.56-.18-1.35-.2-1.38-.38-2.35l-.12-1.46c-.67-5.34-1.45-9.86-2.2-15.47-.76-6.77-2.66-19.44-3.75-26.74-1.34-8.57-2.36-18.37-3.62-27.5h-1.2c.3 2.1.65 4.43.58 4.58l2.4 16.36-.06-.23c.38 1.95.37 2.55.72 4.74 0 .12.02.28.01.25.4 2.13.88 6.26 1.16 8l-.05.12.6 4.27-.2-1.6c.26.53.33 3.25.87 6.33.38 2.9 1.2 5.83 1.5 8.85.28 1.42-.3-1.25.05.9-.1.08-.2-1-.2-.43.33 2.1.38 3.47.8 6.06l-.06.12c.6 3.37.78 6.4 1.22 8.65.54 3.5.1 2.38.75 6l.1 1.43c.2 1.56.28 1.1.46 2.83-.08-.1.25 2.2.05 1.2.44 3.93 1.23 7.92 1.77 13.1.28 1.1.56 3.7.77 4.53-.03.15.7 5.2.2 2.3-.04-.25-.1-.7-.08-.66l-.12-.34c.27 2.96.8 5.33 1.2 8.24-.1-.86-.26-2-.1-1.25l.36 2.7-.14-.55.52 4.03v-.56c.23 1.97.2 2.68.6 4.9.2 1-.15-1.88.16.2l.76 6.3a7.65 7.65 0 0 0-.95.02c-1.17-.02-2.37.38-3.6.3-.58.1.5-.14-.36-.07-.03-.1.4-.06.18-.14-.85.05-1.4-.1-2.44-.03l-.04-.07c-1.37.14-2.58-.1-3.5.03-1.4.06-.95-.22-2.42-.08l-.57-.1c-.63-.02-.45.12-1.15.07.04-.06-.88-.05-.47-.1-1.58-.1-3.2.14-5.28-.03-.45.12-1.5.05-1.83.14-.06-.05-2.1-.01-.92-.13.1-.01.28-.01.27.01l.14-.07c-1.18-.14-2.15.08-3.33.05.35.02.8.02.5.07h-1.1l.23-.06-1.62-.04.22.08c-.8-.04-1.07-.17-1.97-.06-.4.06.75.1-.1.13l-4-.15c.13.1-.24.08-.6.1l-.04-.07c-1.44.1-.53-.16-1.95-.08l.13-.05-.38.16c-1.3.15-.7-.15-2.13.05.57-.01.27.16-.43.13l.18-.07c-.4.02-.5.05-.77.03.23-.04.12-.1-.45-.1l.38-.1-1.07.13c-.83-.08-2.14.02-2.48-.08 0 0-1.78-.05-2.2.06.36-.07-.62-.1-.34-.18-.46.08-1.82.14-2.37.06l.1-.01c-2.02-.1-3.45.12-5.26.01.08.1-.87.04-.64.15-1.87.1-3.4-.23-4.1.12-.85.02-1-.08-1.45-.1l.2-.02-3.24.02c-.6.03-.68.2-1.74.15.34-.06-.1-.05-.5-.05.25-.01.33-.03-.2-.08-.07.02-.2.03-.3.04 0-.01-.03-.01-.01-.02-.66.02-.55.04-.24.05-.02.01.01.02.1.04-.7-.08-1.9.01-2-.1-2 .03-3.4.14-5.07.18-.2-.06.2-.1.68-.13l-1.17.02c.01-.08.67-.05 1.04-.06-1.4-.13-2.88.13-4.52.01l-.34.06-.1-.01c.01.03-.36.08-.6.1-.23-.07.02-.16-.8-.16-.64-.07-1.82.03-2.66.07.45.01.3.05.1.08-.4 0-.64-.07-.95-.04l-.04-.1c.16.1-1.06.1-1.2.13-.23-.07.63-.06.73-.1l-2.44.01c-.87.07.16.1-.26.17-.77.02-1.5.08-2.4.03l.28.08c-1.44.07-2.3.06-3.27-.03-10.73.68-2.26.93-2.26.93 4.22.2 6.4-.06 11.43-.12 4.42.04 5.6.2 10.17.14l6.65-.04c1-.13 2.8 0 4-.1l.47.07a7.06 7.06 0 0 1 1.3-.02l-.03.02c.62-.05 1.3-.02 1.62-.05l-.03.02.75-.01-.13.03a42.34 42.34 0 0 1 3.16-.04l-.08-.1c2.1.1 2.86-.08 4.74.03l-.03.02c2.4-.23 3.77.16 6.23-.06-.3.03.13.04.1.07 1.13-.02 2.34-.04 2.36-.2.83 0 .67.05.78.12 0-.08.7-.1 1.36-.1l-.3.03 1.85-.03-.36-.14c.98.04.25.17 1.2.14v-.12c1.35.02 2.15.2 3.46.3 5.45.05 11.3-.25 16.37-.04l.22.1c.1.13 1.4-.2 1.6-.07l.6-.06c.17.02.52.05.22.08.55.01.56-.02.95-.05l.6.08c2.15.06 3.98-.1 6.24-.06 1.46.1 3.6.08 5.74.05 0 .03.01.05.01.08l3.7.03c-.16-.04-.01-.06.3-.08l1.66-.02.25.07c.14 0 .28 0 .4-.01l-.03-.24c3.85-.06 8.16.33 12 .13.14.02.5-.02.5-.04h3.88c.02.01 18.85.06 4.54-1zm-139.07-.02c-.12-.07-.2-.08-.27.06-.01-.17-.1-.02-.12-.07v-.01c-.07.13-.15-.1-.2.01 0-.01 0-.06.02-.06-.05.02-.12.06-.12-.04-.12.03-.3-.02-.36.14l.01-.03c-.04.1-.06.02-.1.07 0-.01-.01-.02-.01-.03-.05.1-.14.02-.18.06v-.07l-.1.02.04.01c-.01.18-.07-.12-.14 0-.06-.02-.13.38-.2.3-.03.1.03-.14-.02-.07 0-.1.02-.06.01-.14-.05.05-.08-.1-.13-.03v-.07c-.07.14-.14-.1-.2.03-.08.06-.05-.22-.13-.08l-.03-.1c-.03-.02-.02.12-.06.07 0-.06-.05-.05-.03-.1-.1-.1-.18.14-.3-.03-.02.12-.08.05-.1.14 0-.05-.1-.01-.05-.13.01-.01.02-.01.01.01l.01-.07c-.06-.14-.12.08-.18.05.02.02.04.02.03.07l-.06-.01.01-.06-.1-.04v.08c-.04-.04-.06-.17-.1-.06-.02.06.04.1 0 .13-.06-.05-.15-.13-.22-.15.01.1-.01.08-.03.1v-.07c-.08.1-.03-.16-.1-.08v.1c-.07.15-.04-.15-.12.05.03-.01.01.16-.02.13l.01-.07c-.02.02-.03.05-.04.03.01-.04.01-.1-.02-.1l.02-.1-.06.13c-.05-.08-.12.02-.14-.08 0 0-.1-.05-.12.06.02-.07-.03-.1-.02-.18-.03.08-.1.14-.13.06l.01-.01c-.1-.1-.2.12-.3.01 0 .1-.05.04-.03.15-.1.1-.2-.23-.22.12-.05.02-.06-.08-.08-.1l.01-.02c-.1.03-.1.03-.18.02-.03.03-.04.2-.1.15.02-.06 0-.05-.03-.05.01-.01.02-.03-.01-.08 0 .02-.01.03-.02.04-.04 0-.03.02-.01.03 0 .01 0 .02.01.04-.04-.08-.1.01-.1-.1-.1.03-.2.14-.28.18-.01-.06.01-.1.04-.13l-.06.02c0-.08.04-.05.06-.06-.08-.13-.16.13-.25.01v.06l-.01-.01a.19.19 0 0 1-.03.09c-.01-.07 0-.16-.04-.16-.04-.07-.1.03-.15.07.02.01.02.05.01.08-.02 0-.04-.07-.05-.04v-.1c.01.1-.06.1-.07.13-.01-.07.03-.06.04-.1-.1.01-.04 0-.13.01-.05.07.01.1-.01.17-.04.02-.08.08-.13.03l.02.08c-.08.07-.13.06-.18-.03-.6.68-.12.93-.12.93.23.2.35-.06.63-.12.24.04.3.2.56.14.12.01.25-.02.36-.04.06-.13.15 0 .22-.1l.03.07c.02-.04.05-.06.07-.02v.02c.03-.05.07-.02.1-.05h0 .04l-.01.03c.06-.06.12-.06.17-.04v-.1c.1.1.16-.08.26.03v.02c.13-.23.2.16.34-.06-.02.03.01.04.01.07.06-.02.13-.04.13-.2.05 0 .04.05.04.12 0-.08.04-.1.07-.1l-.02.03.1-.03-.02-.14c.05.04.01.17.06.14v-.12c.07.02.12.2.2.3.3.05.62-.25.9-.04v.1c.01.13.08-.2.1-.07l.03-.06c.01.02.03.05.01.08.03.01.03-.02.05-.05l.03.08c.12.06.22-.1.34-.06.15.16.43.01.6-.07.23-.2.5.32.72.1.01.02.03-.02.03-.04l.2.02s1.03.05.25-1.02h-.04zm-3.5-.28h0v-.05zM316.1 331.92c-.08-.03-.15-.07-.23-.1l-.4-.14.63.24z"/><path d="M518.97 362.58l.48.01c-.01-.02.43-.04 1.02-.05l1.93-.04c1.13.07-.08.16 3.87.16 3.12.07 8.87-.03 12.96-.07-2.2-.01-1.5-.05-.54-.08l4.64.04.15.07c.27-.07 5.26-.08 5.93-.1 1.12.07-3.06.06-3.56.1l11.87-.01c4.22-.07-.77-.1 1.25-.17l11.65-.03-1.35-.08 15.92.03 24.8-.48c.04.63.1.67.14-.01 2.2-.1 1.74-.18.02-.25.14-2.23.32-9.72.56-25.35l.03.47.03-4.85c12.63-.38-12.3-.52-12.3-.52-21.14-.2-32.05.06-57.2.12l-50.9-.14-33.3.04c-5.07.13-14.03 0-20.04.1l-2.33-.07a180.35 180.35 0 0 1-6.58.02l.13-.02-8.1.05.13-.02-3.75.01.65-.03-15.83.04.4.1c-10.46-.1-14.3.08-23.73-.03l.13-.02-8.15.08h.05a196.08 196.08 0 0 0-6.82-.03c-4.94-.04-9.88-.1-16.26.02 1.53-.03-.66-.04-.53-.07l-8 .05-2.56.05h-.14c-.22.01-.34.01-.4.02-.44.02-.7.05-.7.08-4.13 0-3.36-.05-3.9-.12.01.02-.2.03-.6.05l-1.65.03c-.53 0-1.06-.01-1.6-.01-.94.03-1.95.03-2.94.04l1.48-.03-4.6.01a11.08 11.08 0 0 1-4.32-.91c.52.25 1.05.53 1.6.7-1.15-.3-1.75-.63-2.1-.83-.36-.2-.48-.28-.58-.37-.2-.2-.5-.2-2.2-1.7l-.04.12a10.71 10.71 0 0 1-3.33-7.54v-.12l.95.02 2.05.04 4.52.08 81.92-.04 1.12.1c.5.13 7-.2 7.96-.07l2.95-.06c.83.02 2.58.05 1.1.08 2.73.01 2.8-.02 4.76-.05l2.93.08 31.24-.06 45.1-.02-.02.2.58.04h1.88l1.54-.02 3.1-.07c2.05-.04 4.07-.07 5.94.04l.17.1c.07.13 1.03-.2 1.18-.07l.44-.06c.12.02.38.05.16.08.4.01.4-.02.7-.05l.43.08c1.6.06 2.94-.1 4.6-.06.82.07 1.92.08 3.1.07l4.04-.1c-.01-.08-.01-.15-.02-.23l47.13.12c.35.01.97 0 1.5-.01l.97-.03 19.44.02 13.6-.01 12.44-.03 3.18-.01h1.43l-.03.6c-.2 1.94-.9 3.76-1.9 5.2-1 1.45-2.24 2.54-3.47 3.28-1.22.75-2.4 1.14-3.37 1.38-.48.08-.9.18-1.26.22l-.84.1c-.4.05-.5.07-.2.1.3 0 1 .08 2.15-.1 1.13-.2 2.75-.58 4.55-1.78 1.77-1.2 3.77-3.26 4.7-6.47a8.28 8.28 0 0 0 .28-1.24c.1-.43.13-.87.15-1.32l.02-.34.01-.1v-.04c.08.05-.62-.62-.35-.33h-.17c-.23 0-.45-.01-.68-.01l-1.4-.02-6.23-.1.48-.03c-10.64-.07-17.33-.08-24.67.06-1.16-.17-8.74-.02-11.23-.07l.24-.01c-6.5.13-13.37-.1-19.62.01.24-.01.38-.06 1.82-.06-4.56.02-10.8.06-11.13-.04l-27.63.06-.05-.7c-.32-3.05.05-6.63-.3-9.76a1.27 1.27 0 0 0-.05-.36l-.1-2.87s-.18-4.9-.47-6.67c.06.01.1.01.12.02l17.56-.14-.25.03c2.1-.1 2.73-.02 5.1-.07.13.01.3.02.27.03 2.3-.1 6.7-.02 8.57-.06l.12.07 4.58-.02-1.7-.01c.6-.18 3.46.12 6.78 0 3.1.02 6.3-.38 9.53-.3 1.54-.1-1.36.14.95.07.08.1-1.07.06-.48.14 2.26-.05 3.7.1 6.5.03l.1.07c1.83-.08 3.5-.02 5.12-.04 1.67-.07 3.12-.78 4.04-1.67.73-.67 1.13-1.22 1.4-1.65.27-.42.44-.73.58-1.04a5.48 5.48 0 0 0 .39-1.17c.1-.5.14-1.27.1-2.22l.1-1.52c.02-1.67-.12-1.2-.07-3.05.06.1.05-2.34.1-1.26l.03-2.25-.01-2.95-.8.01c.15-.43.35-4.26.62-13.8l.03.25c.07-5.5.08-8.95-.06-12.74.17-.6.02-4.5.07-5.8v.12c-.13-3.35.1-6.9-.01-10.13.01.13.06.2.06.94-.02-2.35-.06-5.57.04-5.75l-.14-17.06.03.25-.04-.97 1-.01c2.33-.05 4.75-.05 7.22-.03 1.23-.02 2.47.1 3.82-.1a8.41 8.41 0 0 0 3.67-1.54c2.2-1.56 3.57-4.26 3.57-6.96l-.05-7.34c.01-.15 0-.43-.01-.67s-.03-.43-.03-.43l.02-8.72-.01-6.1-.01-2.72c0-.93-.06-2.02-.38-2.97-.6-1.96-1.92-3.6-3.36-4.56-1.44-.98-2.9-1.3-3.85-1.38-.95-.05-1.38.04-1.1.1.27.12 1.32.08 3.06.86a8.16 8.16 0 0 1 2.77 2.14c.9 1.06 1.68 2.6 1.83 4.5l-.06-.2c.1 1.1.02 2.23.03 3.2l-.01 2.8a132.49 132.49 0 0 0 .11 4.98c-.17.52-.02 3.92-.07 5.04v-.1c.13 2.9-.1 6 .01 8.8-.01-.1-.06-.17-.06-.8l.03 3.2c.01.5-.04.87-.06 1.17-.06.3-.1.47-.13.5-.17 1.12-.67 2.3-1.45 3.3-.76 1.03-1.85 1.82-3 2.33-1.17.5-2.34.64-3.5.64l-2.95.1.2-.03c-1.78.1-2.3.02-4.3.07-.1-.01-.25-.02-.23-.03-1.94.1-5.67.02-7.24.06l-.1-.07-3.87.02 1.45.01c-.5.18-2.93-.12-5.73 0-2.62-.02-5.32.38-8.05.3-1.3.1 1.14-.14-.8-.07-.06-.1.9-.06.4-.14-1.9.05-3.13-.1-5.48-.03l-.1-.07c-3.07.14-5.8-.1-7.84.03-3.17.06-2.12-.22-5.42-.08l-1.28-.1c-1.4-.02-1 .12-2.57.07.1-.06-1.98-.05-1.06-.1-3.56-.1-7.15.14-11.9-.03-.12.01-.24.01-.38.02l-.92.72-.9.67c-.6.44-1.18.86-1.44 1.1-.13.03-3.84 2.72-1.76 1.1.18-.14.5-.37.5-.34l.2-.24c-2.25 1.43-3.9 2.87-6.05 4.37.65-.43 1.5-1.04.96-.6l-2 1.4.38-.35-1.5 1.04-.62.43-.13.08c.01.02.03.04.07.05-.08.05-.14.07-.18.08.02-.17.05-.27.06-.34.01-.44.01-1.08-.04-1.85-.06-.9-.1 1.7-.13-.2l.06-3.02.06-4.14-3.16-.03c.3.08-.54.1-1.37.1l-.1-.08c-1.5-.03-1.74-.26-1.98-.34-.23-.15-.5-.18-1.78-.87l.25.1c-.24-.1-.5-.17-.73-.3-1.1-.76-1.27-1.13-1.5-1.44-.2-.35-.52-.65-1.16-2 .2.55.27.68.14.53-.06-.08-.15-.23-.24-.46a3.6 3.6 0 0 1-.28-.89l.16.34c-.23-.77-.28-1.05-.3-1.58.07.47.1.27.06-.96.02.3.07.56.1.8-.1-.73-.1-1.58-.15-2.37.08-1.86-.02-4.8.08-5.56 0 0 .05-4-.06-4.9.07.8.1-1.4.18-.77-.08-1.03-.14-4.1-.06-5.3l.01.23c.04-2.26.01-4.2-.01-6.07l-.02-1.4c-.01-.47-.01-.93.02-1.35.07-.86.3-1.73.7-2.56-.07.06.1-.36.3-.7.2-.37.42-.66.22-.5 1.1-1.66 2.78-2.58 4.2-2.92.7-.2 1.37-.23 1.93-.28.6-.03 1.1-.06 1.48-.15 1.9-.02 2.26.08 3.25.1l-.46.02 7.28-.02c1.33-.03 1.54-.2 3.9-.15-.77.06.2.05 1.1.05-.57.01-.74.03.42.08.16-.02.42-.03.66-.04.01.01.06.01.03.02 1.5-.02 1.23-.04.54-.05.03-.01-.02-.02-.24-.04 1.54.08 4.3-.01 4.48.1l11.37-.18c.42.06-.45.1-1.53.13l2.64-.02c-.02.08-1.5.05-2.33.06 3.14.13 6.47-.13 10.15-.01l.76-.06h.22c-.01-.03.8-.08 1.36-.1.52.07-.04.16 1.8.16 1.44.07 4.1-.03 5.98-.07-1.02-.01-.7-.05-.25-.08.9 0 1.44.07 2.14.04l.07.07c.13-.07 2.43-.08 2.74-.1.52.07-1.4.06-1.64.1l5.48-.01c1.95-.07-.35-.1.58-.17 1.72-.02 3.4-.08 5.38-.03l-.63-.08c3.23-.07 5.17-.06 7.35.03 24.1-.68 5.07-.93 5.07-.93-9.48-.2-14.38.06-25.66.12l-22.84-.14-14.93.04c-2.28.13-6.3 0-9 .1l-1.04-.07c-.93.04-2.02.06-2.95.02l.06-.02c-1.4.06-2.93-.01-3.7.1l.06-.03c-.6.08-1.2.2-1.78.4.1-.05.2-.08.3-.12-2.54.75-4.63 2.75-5.6 4.92l.16-.14a8.11 8.11 0 0 0-.84 3.14c-.06.96 0 1.7-.01 2.5.02 1.55.03 3.03-.02 5.15l-.02-.06c.08 1.9.08 3.5.07 5.05l-4.63-.07c.33.1-.6.08-1.58.1l-.1-.07c-3.72.1-1.36-.16-5.05-.08l-.65.1c-3.33.15-1.8-.15-5.5.05 1.46-.01.7.16-1.1.13l.46-.07c-1 .02-1.33.05-2 .03.6-.04.3-.1-1.15-.1l.98-.1-2.77.13c-2.14-.08-5.52.02-6.4-.08 0 0-4.6-.05-5.65.06.92-.07-1.6-.1-.9-.18-1.2.08-4.7.14-6.1.06l.27-.01c-5.2-.1-8.9.12-13.57.01.2.1-2.25.04-1.64.15-4.83.1-8.8-.23-10.56.12-2.2.02-2.6-.08-3.74-.1h.52-2.62c-.76.01-1.47.08-2.08.27-.62.18-1.2.4-1.75.76a6.72 6.72 0 0 0-1.66 1.4 5.54 5.54 0 0 0-.95 1.67c-.2.6-.5 1.34-.57 2.8-.02-.93-.07.26-.05 1.26-.01-.65-.03-.86-.08.5.02.2.03.48.04.76-.01.01-.01.06-.02.04.02 1.7.04 1.4.05.62.01.04.02-.03.04-.27-.08 1.77.01 4.94-.1 5.16l.18 13.1c-.06.48-.1-.52-.13-1.76l.02 3.03c-.08-.03-.05-1.74-.06-2.68-.13 3.6.13 7.45.01 11.68l.06.88-.01.25c.03-.01.08.94.1 1.57-.07.6-.16-.04-.16 2.06-.07 1.66.03 4.7.07 6.88.01-1.17.05-.8.08-.3 0 1.05-.07 1.65-.04 2.46l-.07.08c.07.15.08 2.8.1 3.15-.07.6-.06-1.63-.1-1.9l.01 6.3c.07 2.24.1-.4.17.67.02 1.98.08 3.9.03 6.2l.08-.72c.07 3.72.06 5.95-.03 8.45l.5 13.54c-.22 0-.5-.01-.8-.01v.8 1.7 1.83l.08 3.74c.01-1.2.05-.82.08-.3 0 1.08-.07 1.7-.04 2.53l-.07.08c.03.07.05.66.07 1.32 0 .85.25 1.8.33 1.98.05.32-.1-.1-.22-.64-.12-.55-.14-1.23-.17-1.37 0 1.15.23 1.86.38 2.33.16.48.3.73.43 1 .15.24.27.5.6.9a6.4 6.4 0 0 0 1.73 1.61c2.18 1.1-.36-.26.7.2.95.47 2 .7 3.07.7h3.3l-.74-.08c3.83-.07 6.12-.06 8.7.03 28.52-.68 6-.93 6-.93l-14.4-.03h-1.7c-.57 0-1.2.03-1.7-.01-1.04-.08-2.1-.45-3.03-1.16a5.68 5.68 0 0 1-2.03-2.99c-.2-.65-.24-1.25-.22-2.06l-.01-2.42.06-7.6 7.63.08h10.4l17.68-.04c2.7-.13 7.45 0 10.64-.1l1.24.07c1.1-.04 2.4-.06 3.5-.02l-.07.02c1.64-.05 3.5-.02 4.3-.05l-.07.02 2-.01-.34.03a299.19 299.19 0 0 1 8.41-.04l-.22-.1c5.56.1 7.6-.08 12.6.03l-.07.02c6.34-.23 10.02.16 16.56-.06-.8.03.35.04.28.07 3-.02 6.22-.04 6.27-.2 2.2 0 1.8.05 2.07.12-.01-.08 1.9-.1 3.6-.1l-.8.03 4.9-.03-.96-.14c2.6.04.66.17 3.15.14l-.03-.12c3.6.02 5.7.2 9.2.3l20.7-.07 10.27-.04h5l4.36.03-.03 2.13-.1.6c-.13.26.2 3.72.07 4.23l.06 1.57c-.02.44-.05 1.37-.08.6-.02 1.44.05 1.5-.01 2.45-.08.47-.24.92-.43 1.35-.5 1.2-1.34 2.18-2.4 2.8-1.05.66-2.22.92-3.52.9l-8.4.04c-7.23-.16-20.83-.01-28.67.07-8 .14-16.96-.1-25.6-.14-.7-.1-1.78-.14-1.78-.14-3.12-.2-4.73.06-8.45.12-3.27-.04-4.13-.2-7.52-.14-1.6-.01-3.34.02-4.92.04a5.84 5.84 0 0 1-.89.06h-1.7v.12c-11.13.02-39.1.14-7.93 1l-.26.03 8.16.04v.23c0 .08.01.15.01.24l-.1.34c.02.3.03.67-.02.97l-.02-.02c.04.46-.02.97 0 1.2l-.02-.02-.01.55-.03-.1c.03.8 0 1.62-.06 2.34l.1-.06c-.16 1.54 0 2.1-.18 3.5l-.02-.02c.16 1.77-.27 2.78-.13 4.6-.02-.23-.05.1-.07.08-.01.84-.03 1.73.14 1.75-.03.6-.07.5-.14.57.08 0 .08.53.07 1l-.02-.22-.03 1.36.15-.26c-.07.72-.18.18-.17.87h.12c-.03.43-.08.8-.14 1.13-.02.1-.05.3-.08.52l-3.53.01-.23-.07h-8.62l3.22.01c-1.12.18-6.52-.12-12.77 0-5.85-.02-11.87.38-17.95.3-2.9.1 2.55-.14-1.78-.07-.14-.1 2.02-.06.9-.14-4.25.05-6.98-.1-12.22-.03l-.2-.07c-6.84.14-12.9-.1-17.47.03-7.06.06-4.73-.22-12.08-.08l-2.86-.1c-3.14-.02-2.25.12-5.74.07.2-.06-4.4-.05-2.37-.1-7.9-.1-16.02.14-26.42-.03-2.26.12-7.5.05-9.18.14-.28-.05-10.5-.01-4.6-.13.5-.01 1.4-.01 1.34.01l.7-.07c-5.93-.14-10.77.08-16.64.05 1.74.02 4.05.02 2.5.07l-5.45-.01 1.13-.06-8.12-.04 1.12.08c-3.97-.04-5.37-.17-9.85-.06-2.03.06 3.76.1-.43.13l-9.47-.1-8-.06c-.44 0-.87 0-1.3-.01h-.83c.62-.62-.85.84-.7.7v.14l.02.34c.08-.68 0 1.28.64 3.17v.24c.66 1.8 1.32 2.72 1.75 3.3.42.6.65.86.87 1.13.2.28.45.53 1 1.03.54.44 1.36 1.16 2.96 1.87.5.18 1 .32 1.52.45 1.65.46 2.74.42 3.5.47.74 0 1.2.02 1.68.04.83.03 1.72.05 4.25-.01l-.07 11.18c.1-.62.08 1.16.1 2.98l-.07.2c.1 7-.16 2.56-.08 9.5l-.05-.6.16 1.83.04 2.8-.02 2.14 2.5.05 1.72-.01-.42 4.48-2.72 25.32-1.64 16.57c-.13 2.54-.7 6.98-.9 9.98l-.2 1.15a51.62 51.62 0 0 1-.31 3.27l-.01-.07c-.1 1.54-.3 3.27-.36 4.04v-.07l-.18 1.87v-.32c-.22 2.7-.5 5.45-.77 7.88l.1-.2c-.63 5.2-.64 7.12-1.23 11.8l-.01-.07c-.38 5.96-1.1 9.37-1.52 15.52.05-.77-.08.32-.1.26-.26 2.82-.56 5.84-.4 5.9-.2 2.05-.22 1.67-.32 1.93.08 0-.07 1.78-.23 3.4l.05-.74-.44 4.6.23-.9c-.3 2.43-.23.6-.44 2.94l.12-.02-.25 2.07c-.13-.01-.25-.02-.4-.02l.3-.02-4.88.02c-.9.03-1.03.2-2.63.15.52-.06-.14-.05-.73-.05.38-.01.5-.03-.28-.08-.1.02-.28.03-.44.04-.01-.01-.04-.01-.02-.02-1 .02-.82.04-.36.05-.02.01.02.02.16.04-1.03-.08-2.88.01-3-.1l-7.63.18c-.28-.06.3-.1 1.03-.13l-1.77.02c.02-.08 1.02-.05 1.56-.06-2.1-.13-4.34.13-6.8.01l-.5.06-.15-.01c.01.03-.55.08-.9.1-.35-.07.02-.16-1.2-.16-.97-.07-2.75.03-4 .07.68.01.46.05.17.08-.6 0-.96-.07-1.43-.04l-.06-.1c.24.1-1.6.1-1.82.13-.35-.07.95-.06 1.1-.1l-3.67.01c-1.3.07.24.1-.4.17-1.15.02-2.28.08-3.6.03l.42.08c-2.17.07-3.47.06-4.93-.03-16.15.68-3.4.93-3.4.93 6.36.2 9.64-.06 17.2-.12 6.65.04 8.42.2 15.3.14l10-.04c1.53-.13 4.22 0 6.03-.1l.7.07c.62-.04 1.35-.06 1.98-.02l-.04.02c.93-.05 1.98-.02 2.44-.05l-.04.02 1.13-.01-.2.03a95.89 95.89 0 0 1 4.76-.04l-.12-.1c3.15.1 4.3-.08 7.14.03l-.04.02c3.6-.23 5.68.16 9.38-.06-.46.03.2.04.16.07 1.7-.02 3.53-.04 3.55-.2 1.24 0 1 .05 1.17.12-.01-.08 1.07-.1 2.04-.1l-.45.03 2.78-.03-.55-.14c1.47.04.37.17 1.8.14l-.02-.12c2.04.02 3.23.2 5.2.3l24.64-.04.34.1c.15.13 2.1-.2 2.4-.07l.9-.06c.25.02.78.05.33.08.82.01.84-.02 1.43-.05l.88.08c3.24.06 6-.1 9.4-.06 4.1.16 11.8.01 16.24-.07 6.24-.2 13.5.32 19.9.1.2.02.75-.02.74-.04l5.85.02s28.35.05 6.8-1.02l.14-.03c-3.2-.07-5.22-.08-7.42.06-.35-.17-2.63-.02-3.38-.07l.07-.01c-1.95.13-4.02-.1-5.9.01.07-.01.1-.06.55-.06-1.37.02-3.25.06-3.35-.04-3.27.03-7.85-.02-9.94.14l.14-.03c-1.2.1-1.55.02-2.88.07-.07-.01-.17-.02-.15-.03-1.3.1-3.8.02-4.85.06l-.07-.07-2.6.02.97.01c-.34.18-1.96-.12-3.84 0-1.76-.02-3.57.38-5.4.3-.87.1.77-.14-.54-.07-.04-.1.6-.06.27-.14-1.28.05-2.1-.1-3.68-.03l-.06-.07c-2.06.14-3.9-.1-5.26.03-2.12.06-1.42-.22-3.64-.08l-.86-.1c-.95-.02-.68.12-1.73.07.06-.06-1.33-.05-.7-.1-2.37-.1-4.82.14-7.95-.03-.68.12-2.25.05-2.76.14-.08-.05-3.15-.01-1.4-.13.15-.01.42-.01.4.01l.2-.07c-1.78-.14-3.24.08-5 .05.52.02 1.22.02.75.07l-1.64-.01.34-.06-2.44-.04.34.08c-1.2-.04-1.62-.17-2.96-.06-.6.06 1.13.1-.13.13l-6.03-.15c.2.1-.36.08-.92.1l-.07-.07c-2.16.1-.8-.16-2.94-.08l.2-.05-.57.16c-1.94.15-1.05-.15-3.2.05.85-.01.4.16-.65.13l.27-.07c-.58.02-.77.05-1.16.03.35-.04.18-.1-.67-.1l.57-.1-1.6.13c-1.25-.08-3.22.02-3.73-.08 0 0-2.68-.05-3.3.06.54-.07-.94-.1-.52-.18-.7.08-2.74.14-3.56.06l.16-.01c-3.03-.1-5.2.12-7.9.01.12.1-1.3.04-.96.15-.7.03-1.36.03-1.98.02.02-.15.05-.3.07-.46l5.53-40.6.16-.54c.16-.22.3-3.5.47-3.96l.14-1.47c.08-.4.22-1.27.15-.54.2-1.35.17-1.4.27-2.37l.28-1.44 2.07-15.5c1.1-6.72 2.68-19.43 3.6-26.76 1-8.48 2.63-18.02 3.86-27l2.3-.06 12.05.08 10.63-.06c-1.74.07 3.03.1 1.67.18 2.24-.08 8.86-.14 11.5-.06h-.5H405c-.4-.1 4.24-.04 3.1-.15 9.1-.1 16.6.23 19.88-.12 4.14-.02 4.9.08 7.05.1l-1 .02 15.77-.02c2.88-.03 3.33-.2 8.48-.15-1.67.06.44.05 2.37.05-1.23.01-1.6.03.92.08l1.42-.04c.02.01.12.01.07.02 3.22-.02 2.66-.04 1.16-.05.08-.01-.05-.02-.5-.04l9.7.1 24.64-.18c.9.06-.98.1-3.3.13l5.7-.02c-.02.04-.84.05-1.88.06l-3.16.01c6.8.13 14.02-.13 22-.01l1.55-.1zm68.63-81.8c-1.57.01-3.22-.01-5-.06-1.2.12-3.98.05-4.87.14-.15-.05-5.57-.01-2.45-.13.27-.01.74-.01.7.01l.37-.07c-3.15-.14-5.72.08-8.84.05.92.02 2.15.02 1.33.07l-2.9-.01.6-.06-4.3-.04.6.08c-2.1-.04-2.85-.17-5.23-.06-1.08.06 2 .1-.23.13l-10.65-.15c.34.1-.63.08-1.63.1l-.12-.07c-3.82.1-1.4-.16-5.2-.08l-.67.1c-3.42.15-1.85-.15-5.65.05 1.5-.01.7.16-1.14.13l.47-.07c-1.02.02-1.37.05-2.05.03.6-.04.32-.1-1.18-.1l1-.1-2.85.13c-2.2-.08-5.68.02-6.58-.08 0 0-4.73-.05-5.8.06.95-.07-1.66-.1-.9-.18-1.22.08-4.84.14-6.3.06l.27-.01c-5.36-.1-9.16.12-13.97.01.22.1-2.32.04-1.7.15-4.97.1-9.07-.23-10.86.12-2.26.02-2.68-.08-3.85-.1l.54-.02-8.62.02c-1.57.03-1.82.2-4.63.15.9-.06-.24-.05-1.3-.05.67-.01.88-.03-.5-.08-.2.02-.5.03-.78.04-.01 0-.07-.01-.04-.02-1.76.02-1.45.04-.64.05-.04.01.03.02.28.04-1.82-.08-5.1.01-5.3-.1l-13.46.18c-.5-.06.53-.1 1.8-.13l-3.12.02c.03-.08 1.8-.05 2.75-.06-3.72-.13-7.66.13-12.02.01l-.9.06-.26-.01c.01.03-.96.08-1.6.1-.28-.03-.3-.07-.44-.1-.07-.01-.17-.03-.35-.04h-.3c.16-1.78.23-7.7.23-7.7.2-10.9-.06-16.55-.12-29.53l.14-26.28-.04-17.2c-.03-.63 0-1.3.24-2.04a5.66 5.66 0 0 1 1.22-2.07c.57-.62 1.28-1.12 2.03-1.43a6.42 6.42 0 0 1 2.23-.49l1.2.07c1.07-.04 2.32-.06 3.4-.02l-.07.02c1.6-.05 3.4-.02 4.2-.05l-.07.02h1.94l-.33.03c2.78-.06 5.65-.06 8.18-.04l-.2-.1c5.4.1 7.38-.08 12.25.03l-.07.02c6.16-.23 9.74.16 16.1-.06-.8.03.34.04.28.07 2.93-.02 6.05-.04 6.1-.2 2.13 0 1.74.05 2 .12-.01-.07 1.84-.1 3.5-.1l-.77.03 4.77-.03-.94-.14c2.53.04.64.17 3.06.14l-.03-.12c3.5.02 5.55.2 8.94.3h.26c-.04 2.36-.1 4.67.02 7.7-.03-.7-.04.3-.07.24.03 2.54.04 5.26.2 5.3.02.97.1 1.36.1 1.55.01.2-.03.17-.03.3.05-.02.14.4.36.97.2.58.58 1.3 1 1.94l-.4-.58c.73 1.26 1.76 2.36 3 3.1-.23-.18-.42-.4-.62-.6.9.68 1.05.75 1.14.85.1.06.18.22 1.24.57l.01-.12c1.25.46 2.4.52 3.4.55l1.52.07.78.04c.1.01.17.02.26.04-.02.17-.03.14-.05.73l.01 9.98 14.96-10.78 5.16.01 5.13.06.5.1c.22.13 3.14-.2 3.57-.07l1.32-.06c.37.02 1.16.05.5.08 1.22.01 1.25-.02 2.14-.05l1.3.08c4.83.06 8.93-.1 14-.06 5.56.15 15.57.04 22.32-.05l-.14 27.88a10.42 10.42 0 0 0 .01.77c.01.27.03.5.03.5l-.02 10.03s-.02 24.32.34 25.5c-1.34.06-2.74.07-4.2.08zm-89.76 37.2l-.1-.2c-.1-.96.18-.5.02-1.57 0 .42-.17.2-.12-.32l.07.13c0-.3-.03-.38-.01-.57.03.17.1.1.1-.32l.08.28-.1-.8c.1-.6.05-1.58.16-1.83 0 0 .1-1.3 0-1.62.06.27.1-.46.2-.25-.06-.34-.1-1.35.01-1.75l.01.08c.15-1.48-.01-2.55.15-3.88-.1.06-.01-.65-.13-.48-.05-1.4.33-2.5.01-3.02.01-.63.1-.74.14-1.07l.01.15.03-1.34h.2s.01 0 .02-.01l1.57-.03c.02 0 .03 0 .06.01.01 0 .04-.01.05-.01l1.6-.05c.07.01.13.02.14.04.13 0 .25-.01.38-.01.67.06 2.2.04 3.57.03h.46c.68-.01 1.28-.01 1.66.01l-.13.01c.74-.03 1.5-.03 2.25-.03a8.37 8.37 0 0 0 .71 0c2.53.01 5.08.1 7.46.03-.13.01-.2.06-.96.06l5.4-.01c-.1.6-.2 1.66-.3 3.4l-.03-.07c0 1.57.02 2.56.2 3.64-.17.18.04 1.3-.01 1.66l-.02-.03c.17.95-.03 1.98.13 2.9-.02-.04-.06-.05-.07-.27.05.67.13 1.6.03 1.64.1 1.6.14 3.85.34 4.87l-.03-.07c.13.58.05.76.13 1.4v.08c.05.25.08.6.1.94 0 .1.01.2.01.3l-4.53.07.48-.03c-3.88.1-5.1.02-9.3.07-.06-.01-.08-.02.02-.04-1.17-.1-2.37.14-3.9-.03-.24.1-.7.08-1.05.1h-1.05c-.23-.01-.34-.03.06-.08.07-.01.2-.01.2.01l.1-.07c-.88-.14-1.6.08-2.46.05.26.02.6.02.37.07l-.8-.01.17-.06-1.2-.04.17.08c-.6-.04-.8-.17-1.45-.06-.24.05.27.1.13.1h-.45c-.22-.01-.46-.03-.7-.05l-.26-.02-.06-.02-.1-.03c.02-.08.03-.1.04-.2-.1.1-.08-.18-.08-.46l.08-.03c-.08-1 .16-.32.12-1.38zm-171 14.75c-.2-.01-.18-.03 0-.05v.05zm13.07 33.9l-2.1 16.4v-.24c-.16 1.98-.33 2.55-.58 4.76-.03.12-.06.27-.06.25-.2 2.16-.84 6.26-1.04 8l-.08.1-.57 4.27.23-1.6c.1.58-.56 3.22-.87 6.33-.42 2.9-.43 5.93-.93 8.93-.1 1.45.04-1.28-.2.87-.1.06.08-1-.07-.47-.24 2.1-.57 3.44-.86 6.05l-.1.1c-.33 3.4-.98 6.4-1.16 8.66-.42 3.5-.54 2.32-.9 5.98l-.3 1.4c-.23 1.56-.03 1.13-.32 2.85-.05-.1-.35 2.18-.27 1.16-.64 3.9-.95 7.96-1.83 13.1-.03 1.14-.46 3.72-.48 4.57-.07.13-.72 5.2-.44 2.27.02-.25.1-.7.1-.66l-.02-.36c-.54 2.92-.66 5.35-1.08 8.25.14-.86.3-2 .24-1.23l-.38 2.7.02-.57-.6 4.02.15-.54c-.3 1.96-.53 2.64-.73 4.87-.08 1 .36-1.85.1.23l-.98 6.26-.22-.01-.8-.01c-.52 0-1.04-.01-1.54-.01.16.04.01.06-.3.08-.2.01-.5.02-.82.02.01-.02.02-.05.03-.07-.02 0-.03 0-.05.01v-.15c0-.04.01-.08.01-.12l.07-.62c.04-.32.08-.47.12-.63.08-.32.15-.66.3-2.4l-.04-.64c.18-3.22.33-1.7.5-5.3-.13 1.4-.23.65-.02-1.08l.03.45.16-1.92c-.02.58.07.3.2-1.1l-.01.95.14-2.68c.3-2.05.52-5.33.7-6.16 0 0 .5-4.42.5-5.45-.02.9.25-1.54.26-.84.04-1.16.32-4.55.54-5.9l-.02.26c.6-5 .76-8.6 1.32-13.1-.1.2.18-2.18.01-1.6.37-4.67 1.1-8.47.92-10.2.2-2.12.34-2.5.46-3.6l-.03.5.8-8.08c.12-1.48-.02-1.72.3-4.36-.02.86.07-.22.17-1.2-.05.63-.05.83.12-.46 0-.18.02-.47.03-.73.01-.01.02-.06.02-.03.15-1.65.1-1.36.01-.6-.01-.04-.02.02-.07.26.26-1.7.48-4.77.6-4.96l1.1-12.63c.1-.46.05.5-.05 1.7l.28-2.93c.08.03-.12 1.68-.2 2.6.48-3.47.6-7.2 1.14-11.26l.02-.85.04-.24c-.03.01.01-.9.06-1.52.13-.57.16.06.36-1.97.23-1.6.43-4.54.6-6.64-.13 1.13-.13.76-.1.27.1-1 .23-1.6.28-2.37l.08-.07c-.05-.15.2-2.7.2-3.05.01-.03.01-.06.02-.07.04.18-.1 1.7-.1 1.9l.2-1.9 1.3-.03a30.08 30.08 0 0 1-1.29-.02c0-.02 0-.03.01-.05.4-.04 1.64-.08 3.37-.06l-.86.07 3.75-.03c-1.1.04-.6.1 2.04.1l-1.72.1 1.72-.04c-.2 1.84-.45 3.64-.55 3.76zm151.17-5.2l-32.36.04c-4.93.13-13.64 0-19.47.1l-2.26-.07c-2 .04-4.37.06-6.4.02h.13l-7.88.05.13-.02-3.65.01.63-.03-15.4.04.4.1c-10.17-.1-13.9.08-23.07-.03l.13-.02c-11.6.23-18.34-.16-30.3.06 1.5-.03-.64-.04-.52-.07l-7.77.05c-2.17.03-3.66.07-3.7.16-4 0-3.27-.05-3.8-.12.01.02-.2.03-.58.05l-1.53.03-4.48.03 1.44-.03-2.86.01v-5.22l-.14 1.76c.04-4.76.17-1.2.14-5.77l-.12.06.3-16.82v-2.86l35.06-.08c.8.02 1.6.05.93.1 2.3-.08 9.12-.14 11.84-.06l-.52.01 26.3-.01c.64-.01 1.3 0 1.94 0l1.1.1c.47.13 6.8-.2 7.74-.07l2.87-.06c.8.02 2.5.05 1.08.08 2.65.01 2.72-.02 4.63-.05l2.85.08 82.83-.13 64.25.1c.34.01.94 0 1.46-.01l.94-.03 18.9.02 17.47-.02.07 16.42.17 11.72.03.66c-3.97-.14-13.8-.2-13.8-.2-20.54-.2-31.15.06-55.6.12l-49.5-.16z"/><path d="M543.5 362.64l-.04-.02c-.03.01-.03.02.04.02zm-.27-4.84c-.2.01-.58.01-.56-.01l-.3.07c2.47.14 4.5-.08 6.93-.05-.72-.02-1.7-.02-1.04-.07l2.27.01-.47.06 3.38.04-.47-.08c1.65.04 2.24.17 4.1.06.84-.06-1.57-.1.18-.13l8.35.15c-.26-.1.5-.08 1.28-.1l.1.07c3-.1 1.1.16 4.07.08l.52-.1c2.68-.15 1.45.15 4.43-.05-1.18.01-.56-.16.9-.13l-.37.07 1.6-.03c-.48.04-.25.1.93.1l-.8.1 2.23-.13 5.16.08h1.96l2.64-.07c-.23.01-.2.03-.2.04.02.01.1.02.33.03l1.3.06c.01-.12.02-.14.04.04.02 0-.01.01-.07.01h.08l-.1-3.14.03-2.5.01.2c.1-4.2-.12-7.18-.01-10.95-.1.17-.04-1.82-.15-1.33v-1.77-2.18l-3.6-.05c-.87 0-1.56.04-2.05.16-1.77.02-2.1-.08-3.02-.1l.42-.02-6.76.02c-1.23.03-1.43.2-3.63.15.7-.06-.2-.05-1-.05.53-.01.7-.03-.4-.08-.15.02-.4.03-.6.04-.01-.01-.05-.01-.03-.02-1.38.02-1.14.04-.5.05-.03.01.02.02.22.04-1.43-.08-4 .01-4.16-.1l-10.56.18c-.4-.06.42-.1 1.42-.13l-2.45.02c.02-.08 1.4-.05 2.16-.06-2.9-.13-6 .13-9.42.01l-.7.06-.2-.01c.01.03-.76.08-1.26.1-.48-.07.03-.16-1.66-.16-1.34-.07-3.8.03-5.55.07.94.01.64.05.23.08-.85 0-1.33-.07-2-.04l-.06-.07c-.12.07-2.25.08-2.54.1-.48-.07 1.3-.06 1.52-.1l-5.1.01c-1.8.07.33.1-.54.17-1.6.02-3.16.08-5 .03l.58.08c-3 .07-4.8.06-6.82-.03-22.36.68-4.7.93-4.7.93 8.8.2 13.34-.06 23.82-.12l21.2.14 13.86-.04c2.1-.13 5.84 0 8.34-.1l.97.07a31.27 31.27 0 0 1 2.74-.02l-.05.02c1.3-.05 2.74-.02 3.38-.05l-.05.02 1.56-.01-.27.03.85-.02.2-.01c.01.1.01.04.01.6v1.24 2.38l.1-.17c-.1 4.36.08 5.95-.03 9.88l-.02-.05a87.64 87.64 0 0 1 .08 3.07l-.01 1.4v.57.2l-.24-.02h-.83l-1.7-.02c-1.16-.01-2.4.01-3.82.07.64-.03-.27-.04-.22-.07-2.36.02-4.88.04-4.92.2-1.72 0-1.4-.05-1.62-.12.01.08-1.48.1-2.83.1l.62-.03-3.85.03.76.14c-2.04-.04-.52-.17-2.47-.14l.02.12c-2.82-.02-4.48-.2-7.2-.3-11.35-.05-23.55.25-34.1.04l-.47-.1c-.2-.13-2.9.2-3.32.07l-1.23.06c-.35-.02-1.07-.05-.46-.08-1.14-.01-1.16.02-1.98.05l-1.22-.08c-4.48-.06-8.3.1-13 .06-5.67-.16-16.33-.01-22.47.07-2.07.05-4.2.05-6.4.04l-5.84-.07-.3-.01.01-.4.01-.92.03-1.84.04-3.66a209.21 209.21 0 0 0-.05-7.12 6.79 6.79 0 0 0-.01-.62c-.01-.22-.03-.4-.03-.4l.01-4.33 2.65.01s39.24.05 9.43-1.02l.2-.03c-4.43-.07-7.22-.08-10.27.06-.14-.05-.5-.07-.96-.08l-2.1.01v2.6l-.01-.1c.13 2.7-.1 5.57.01 8.17-.01-.1-.06-.16-.06-.76.02 1.9.06 4.5-.04 4.63l.02 6.9 4.8-.03 3.25-.1-.2.03c1.65-.1 2.14-.02 4-.07.1.01.23.02.2.03 1.8-.1 5.26-.02 6.72-.06l.1.07 3.6-.02-1.34-.01c.47-.18 2.72.12 5.32 0 2.44.02 4.94-.38 7.47-.3 1.2-.1-1.06.14.74.07.06.1-.84.06-.38.14 1.77-.05 2.9.1 5.1.03l.1.07c2.85-.14 5.38.1 7.27-.03 2.94-.06 1.97.22 5.03.08l1.2.1c1.3.02.94-.12 2.4-.07-.1.06 1.84.05.98.1 3.3.1 6.67-.14 11 .03.94-.12 3.12-.05 3.82-.14.15.12 4.4.07 1.95.2z"/><path d="M571.05 357.92h0l-.26.06zm-71.25-20.6h2.65c.28 0 .5-.22.5-.5s-.22-.5-.5-.5h-2.65c-.28 0-.5.22-.5.5s.22.5.5.5zm28.25 10.88c-.04-.08.14-.1.15.02h-.08c.04.05.07.06.08.1-.05-.02-.1.02-.05.1l-.1-.02.2.1c-.01.16.2.3.14.4 0 0 .14.28.27.26-.1 0 0 .14-.1.16.1.01.3.13.33.25h-.02c.2.3.53.28.74.52.03-.08.15.03.17-.1.3.04.46.43.66.12.14.01.14.12.2.15h-.04l.53.04c.1-.03.1-.18.28-.15-.05.07.02.05.08.05-.04.01-.05.04.04.07.01-.02.03-.03.04-.04.1-.01.08-.03.03-.03 0-.01 0-.02-.02-.04.12.07.3-.05.33.06.3-.1.5-.27.7-.42.05.04.02.1-.04.16l.16-.1c.03.07-.08.1-.12.13.27.02.35-.32.62-.38l.01-.08h.02c-.02-.03 0-.1.02-.13.07.03.1.13.2.04.13-.02.2-.23.25-.35-.06.05-.07 0-.07-.04.04-.05.12-.03.12-.1l.08.05c-.08-.04.02-.2.01-.23.08.01-.01.1.02.16.15-.2.08-.1.2-.33.01-.15-.1-.02-.13-.12.04-.1.03-.24.14-.33h-.1c.02-.22.07-.32.18-.44-.07-.42-.23-.62-.34-.7-.12-.1-.2-.1-.3-.03-.15.1-.23.3-.23.3-.25.37-.08.63-.37 1.12-.36.32-.55.25-.93.5-.2.07-.43.15-.65.18-.1.14-.3.01-.43.1l-.04-.08c-.05.03-.1.05-.14-.01h.01c-.08.04-.14-.01-.18 0v-.02l-.08-.02.02-.02a.39.39 0 0 1-.32-.1l-.03.08c-.14-.2-.32-.1-.4-.33v-.01c-.36-.02-.17-.4-.48-.48.04.01.03-.04.05-.04-.1-.1-.15-.2-.3-.14-.04-.1.02-.1.07-.13-.07.03-.13-.04-.16-.1l.04.02c-.04-.06-.06-.13-.1-.2l-.13.08c.01-.13.16-.07.1-.17l-.1.02c0-.17.16-.3.24-.43.01-.3 0-.6.08-.92.07-.3.24-.6.5-.73l.08.04c.1.08-.02-.24.08-.17l.01-.1c.03.01.08 0 .07.04.05-.03.04-.05.05-.1l.1.03c.22-.07.33-.3.6-.35.32.06.84-.12 1.2-.1.26-.04.5.14.66.34.18.2.3.4.53.5 0 .02.05.03.06.02a1.57 1.57 0 0 1 .22.37l.35.8c.07.16.17.3.3.26s.37-.22.5-.85l.03.01c-.02-.35-.1-.57-.34-.72.13-.12-.13-.25-.13-.35h.02c-.22-.1-.18-.42-.42-.48.01 0 .05-.04.1 0-.12-.1-.3-.2-.25-.28-.3-.22-.74-.5-1-.42l.02-.02c-.16.06-.16-.05-.32-.03 0-.01-.01-.02-.01-.03-.16.06-.4-.07-.5-.04v-.07h-.28l.1.02c-.04.18-.2-.13-.4.01-.2-.01-.3.42-.5.37-.06.1.04-.15-.07-.06-.03-.1.04-.07-.01-.14-.1.07-.24-.03-.37.08l-.03-.07c-.14.2-.42.08-.48.28-.16.17-.25-.1-.36.16l-.14-.02c-.1.06.03.14-.1.18-.04-.05-.14.06-.13-.03-.27.13-.26.48-.58.68.06.13-.08.24-.02.34-.06-.02-.15.3-.18.1 0-.02.01-.05.03-.04l-.06-.05c-.2.14-.07.37-.14.55.04-.05.05-.13.1-.06l-.06.17-.05-.05a1.34 1.34 0 0 0-.09.26l.08-.02c-.06.12-.2.16-.1.32.06.07.1-.12.13.02a1.75 1.75 0 0 0-.14.68c.08-.03.1.03.1.1h-.07c.14.22-.15.12-.01.35l.1.02c.2.17-.12.16.15.33z"/><path d="M527.8 347.86h0l-.06-.01zm-180.34-1.64h0l.06.27z"/><path d="M435.62 336.17l-22.25-.14-14.55.04-8.76.1-1.02-.07-2.87.02.06-.02-3.54.05.06-.02-1.64.01.28-.03a202.52 202.52 0 0 1-6.92.04l.18.1c-4.57-.1-6.24.08-10.37-.03l.06-.02c-5.22.23-8.25-.16-13.62.06.67-.03-.3-.04-.23-.07l-4.33.06.02.97c.01.14.01.27.02.4.01.07.01.14.02.2.02.24.05.38.1.4 0 1.8-.05 1.47-.12 1.7.08-.01.1 1.56.1 2.97l-.03-.65.03 4.04.14-.8c-.04 2.14-.17.54-.14 2.6l.12-.03c-.02 2.96-.2 4.7-.3 7.56v2.16l9.3-.03 8.75-.06 16.8.04.5.1c.2.13 3.06-.2 3.48-.07l1.3-.06c.36.02 1.13.05.48.08 1.2 0 1.22-.02 2.08-.05l1.28.08c4.7.06 8.7-.1 13.65-.06 5.95.16 17.14.01 23.6-.07 9.06-.2 19.6.32 28.9.1.15.01.42 0 .65-.01s.42-.03.42-.03l10.24.02-.03-8.6-.13-9.27c-.13-4.88-.4-5.43-.87 8.6l-.03-.2-.05 4.9.01 2.07.01.98.01.28.01.2-.44.03-.93.04c-.5-.17-3.82-.02-4.9-.07l.1-.01c-2.84.13-5.84-.1-8.57.01.1-.01.17-.06.8-.06-2 .02-4.72.06-4.86-.04-4.76.03-11.4-.02-14.44.14l.2-.03c-1.74.1-2.25.02-4.2.07-.1-.01-.24-.02-.22-.03-1.9.1-5.52.02-7.05.06l-.1-.07-3.77.02 1.4.01c-.5.18-2.85-.12-5.58 0-2.56-.02-5.2.38-7.84.3-1.27.1 1.12-.14-.78-.07-.06-.1.88-.06.4-.14-1.86.05-3.05-.1-5.34-.03l-.1-.07c-3 .14-5.64-.1-7.63.03-3.08.06-2.07-.22-5.28-.08l-1.25-.1c-1.37-.02-.98.12-2.5.07.1-.06-1.93-.05-1.03-.1-3.45-.1-7 .14-11.54-.03-1 .12-3.27.05-4 .14-.12-.05-4.58-.01-2-.13.22-.01.6-.01.58.01l.3-.07c-2.6-.14-4.7.08-7.27.05.76.02 1.77.02 1.1.07l-2.38-.01.5-.06-3.55-.04.5.08c-1.74-.04-2.35-.17-4.3-.06-.9.06 1.64.1-.2.13l-1.64-.04-.9-.02c-.2 0-.17-.01-.23-.01l-.12-.01.01-.16v-.2l.01-.33v-1.33l.03-2.62c-.1.28-.08-.52-.1-1.34l.07-.1c-.1-3.14.16-1.15.08-4.27l-.1-.55c-.15-2.82.15-1.52-.05-4.65.01 1.24-.16.58-.13-.94l.07.4c-.02-.84-.05-1.12-.03-1.7.04.5.1.27.1-.97l.1.83-.05-.9c0-.1-.01-.1-.01-.13l-.01-.06-.03-.14.14-.03c.05 0 .04.01.15.01.12 0 .24.01.37.01h.78 1.6c1.04 0 1.94 0 2.3.05 0 0 3.9.05 4.78-.06-.78.07 1.36.1.75.18 1-.08 3.98-.14 5.18-.06l-.23.01c4.4.1 7.54-.12 11.5-.01-.18-.1 1.9-.04 1.4-.15 4.1-.1 7.46.23 8.94-.12 1.86-.02 2.2.08 3.17.1l-.44.02 7.1-.02c1.3-.03 1.5-.2 3.8-.15-.75.06.2.05 1.06.05-.55.01-.73.03.4.08.16-.02.4-.03.64-.04.01.01.05.01.03.02 1.45-.02 1.2-.04.52-.05.03-.01-.02-.02-.23-.04 1.5.08 4.2-.01 4.37.1l11.08-.18c.4.06-.44.1-1.5.13l2.57-.02c-.02.08-1.48.05-2.27.06 3.06.13 6.3-.13 9.9-.01l.74-.06.2.01c-.01-.03.8-.08 1.32-.1.5.07-.04.16 1.74.16 1.4.07 4-.03 5.83-.07-1-.01-.67-.05-.24-.08.9 0 1.4.07 2.08.04l.07.07c.12-.07 2.37-.08 2.67-.1.5.07-1.38.06-1.6.1l5.34-.01c1.9-.07-.34-.1.56-.17 1.68-.02 3.3-.08 5.24-.03l-.6-.08c3.15-.07 5.03-.06 7.16.03 23.46-.68 4.94-.93 4.94-.93-9.26-.22-14.03.03-25.02.1z"/><path d="M409.32 346.95c.12.1.22.1.3.04.15-.13.17-.5.17-.5.05-.78-.34-1.12-.9-1.73-.47-.56-.57-.85-1.34-1.13-.35-.16-.78-.2-1.15-.2-.18.1-.5 0-.68.14l-.1-.06c-.07.05-.14.08-.22.07v-.02c-.1.08-.2.08-.26.12v-.02l-.12.05.01-.04c-.16.1-.32.2-.48.25l.05.07c-.36.1-.36.3-.67.43h-.01c-.13.42-.57.36-.62.84 0-.06-.05 0-.07-.02-.08.17-.15.37 0 .44-.06.12-.1.08-.16.07.07.03.06.15.03.24v-.05c-.03.1-.04.2-.06.3l.15-.02c-.08.14-.18 0-.18.15l.12.02c-.06.2-.25.3-.35.52-.04.46.1.93.3 1.34s.46.76.68 1.13l-.04.1c-.08.1.3.02.24.13l.1.02c.01.03.04.1-.02.08.07.06.08.04.16.05l.03.12c.27.26.62.26.96.4.4.3 1.32.22 1.75-.01.3-.16.65-.22 1-.35s.7-.34.86-.7c.03 0 .03-.08.02-.1a3.34 3.34 0 0 0 .37-.53s.1-.17.17-.42c.08-.24.12-.56.1-.8-.04-.24-.13-.4-.28-.36s-.33.27-.7.6h-.02c-.13.22-.2.33-.15.55-.17-.06-.12.16-.2.18h-.01c.02.2-.27.17-.28.35-.01-.01-.04-.05-.02-.07-.06.08-.14.2-.2.14-.17.18-.48.3-.57.5v-.03c-.05.13-.1.06-.2.14h-.02c-.07.14-.3.08-.36.13l-.01-.07-.2.03.08.01c-.02.2-.16-.1-.3 0-.12-.03-.34.35-.5.22-.1.06.1-.12-.03-.08.02-.1.06-.05.06-.13-.12.02-.13-.14-.27-.12l.02-.07c-.2.06-.23-.2-.38-.15-.18-.04.03-.24-.2-.22l.01-.12c-.04-.06-.12.06-.14-.03.05-.04-.04-.1.04-.12-.04-.18-.35-.17-.33-.46-.14.02-.13-.1-.22-.1.04-.03-.1-.22.07-.14.01.01.02.02 0 .03l.07-.02c.08-.16-.16-.18-.17-.3-.01.04 0 .1-.05.07l-.02-.12h.07c0-.06-.01-.12 0-.18l-.07.04c.03-.1.15-.13.03-.22-.06-.04-.1.1-.13 0l.16-.43c-.1 0-.08-.03-.1-.08l.07.01c-.08-.17.16-.03.12-.18l.05.02-.14-.08c-.1-.18.16-.02.02-.23-.01.06-.16-.03-.1-.1l.06.05c0-.05-.02-.07 0-.1.02.04.1.05.1-.01l.06.07-.07-.16c.1-.05.1-.2.2-.2 0 0 .15-.12.1-.23.03.07.12.01.16.1-.03-.08.02-.24.13-.22v.01c.2-.08.22-.32.44-.33-.05-.07.07-.07-.01-.16.15-.2.42.07.4-.27.1-.04.13.05.18.06v.02c.17-.05.23-.07.36-.06.06-.04.08-.2.2-.15-.04.06.01.05.06.05-.03.01-.04.03.02.08.01-.02.02-.03.04-.04.08 0 .07-.01.03-.03 0-.01 0-.02-.01-.04.07.1.23.03.22.14.22.03.42-.03.63.02 0 .06-.07.08-.13.08l.13.04c-.04.07-.1.01-.14 0 .08.18.37.04.46.26l.07-.03v.02c.02-.03.08-.04.12-.03-.02.07-.1.12-.03.18.01.1.18.12.27.17-.03-.05.01-.06.05-.06.04.04 0 .1.05.1l-.07.06c.06-.07.15.04.2.04-.04.06-.1-.03-.14 0 .12.15.06.07.17.23.12.05.07-.06.17-.06.07.07.16.14.16.26l.06-.07c.13.15.16.27.1.4.27.3.4.53.54.63zm130.48-66.33h0l.34-.06zm-41.96 37.34h0l.05.1zm9.1-26.66c-.05-.1.14-.1.15.02h-.08c.04.06.07.07.08.1-.05-.02-.1.02-.05.1l-.1-.02.2.1c-.01.17.2.3.14.4 0 0 .15.28.28.27-.1 0 0 .14-.1.16.12.01.32.14.34.26v-.01c.2.32.55.3.77.53.03-.08.16.03.17-.08.32.04.48.43.68.13.14.02.14.12.2.15l-.04.01.55.04c.1-.03.12-.18.3-.15-.05.07.02.05.08.05-.04.01-.05.04.04.07.01-.02.03-.03.05-.04.1-.01.1-.03.03-.03 0-.01 0-.02-.02-.04.12.07.3-.05.34.05.32-.1.5-.28.73-.43.05.04.02.1-.05.16l.17-.1c.03.07-.08.1-.13.13.28.02.37-.33.64-.4v-.08h.02c-.02-.03 0-.1.02-.13.07.03.1.13.2.03.13-.02.2-.23.26-.36-.06.05-.07 0-.07-.04.04-.05.12-.03.13-.1l.08.05c-.08-.04.03-.2.01-.24.08.01-.01.12.02.16.15-.22.08-.1.2-.34.01-.16-.1-.02-.13-.12.05-.1.03-.25.14-.35l-.1.01c.02-.23.07-.34.2-.46-.07-.44-.22-.64-.34-.74s-.2-.1-.3-.04c-.15.1-.24.3-.24.3-.26.4-.1.67-.4 1.18-.38.34-.57.28-.97.53-.22.08-.45.16-.68.2-.1.14-.3.01-.45.1l-.04-.08c-.05.03-.1.04-.15-.01l.01-.02c-.08.03-.15-.01-.2 0l.01-.02h-.08l.02-.02c-.13.02-.25-.04-.34-.1l-.03.08c-.15-.2-.33-.1-.43-.34h.02c-.37-.03-.18-.4-.5-.5.04.02.03-.04.05-.04-.1-.1-.15-.22-.3-.15-.04-.1.02-.1.07-.13-.07.03-.13-.04-.16-.12l.04.02c-.04-.07-.06-.14-.1-.2l-.13.08c.01-.13.16-.07.1-.18l-.1.03c0-.18.15-.3.24-.45.01-.3 0-.64.08-.97.08-.32.25-.63.54-.77l.08.04c.1.08-.01-.25.08-.18v-.1c.03.01.08 0 .07.04.05-.03.04-.05.06-.1h.1c.23-.08.35-.3.62-.37.34.06.88-.13 1.26-.1.27-.04.52.15.7.35.2.2.32.42.56.53 0 .02.05.03.06.02a1.44 1.44 0 0 1 .23.4l.37.83c.07.17.17.3.3.27.13-.04.37-.23.5-.88l.03.01c-.02-.36-.12-.6-.35-.74.13-.12-.13-.26-.13-.36h.02c-.23-.1-.2-.43-.43-.5.01 0 .05-.04.1 0-.13-.1-.3-.2-.26-.3-.3-.23-.76-.5-1.04-.44l.02-.02c-.16.06-.17-.05-.33-.03 0-.01-.01-.02-.01-.03-.16.06-.4-.07-.53-.04v-.07h-.3l.1.02c-.04.18-.2-.13-.42.01-.2-.01-.33.42-.5.38-.06.1.04-.15-.07-.06-.03-.1.05-.07-.01-.14-.12.07-.25-.03-.4.1l-.03-.07c-.15.2-.44.1-.5.3-.16.17-.26-.1-.37.17l-.14-.02c-.1.06.02.15-.1.2-.04-.05-.15.07-.14-.03-.27.13-.27.5-.6.7.06.13-.1.25-.03.35-.06-.02-.16.32-.18.1 0-.02.01-.05.03-.04l-.06-.05c-.2.14-.08.38-.15.57.04-.05.05-.13.1-.07l-.06.18-.05-.05-.1.27.08-.03c-.06.13-.2.16-.1.33.06.07.1-.12.13.03-.07.17-.15.45-.14.7.08-.03.1.03.12.1l-.07.02c.14.23-.15.12-.01.36l.1.02c.2.2-.12.2.16.36z"/><path d="M506.68 290.95h0l-.06-.01zm-9.28-98.15h0l.33-.05zm11.15-36.1l.01 1.72c.02.62.1 1.25.25 1.86.3 1.22.87 2.38 1.65 3.37a8.87 8.87 0 0 0 6.37 3.36l4.02-.03 4.25-.05.95.07 2.7-.02-.05.02 3.32-.05-.05.02 1.54-.01-.26.03 6.5-.04-.17-.1 9.68.03c4.9-.23 7.74.16 12.78-.06-.63.03.27.04.22.07 2.32-.02 4.8-.04 4.84-.2 1.7 0 1.38.05 1.6.12-.01-.08 1.46-.1 2.78-.1l-.6.03 3.8-.03-.74-.14c2 .04.5.17 2.43.14l-.02-.12c2.78.02 4.4.2 7.1.3l19.2-.1c.7.01 1.5-.05 2.2-.2 1.45-.34 2.83-1 3.9-2 1.1-.96 1.94-2.2 2.42-3.54.26-.67.4-1.37.5-2.06.06-.72.07-1.37.08-2.02l.1-.46c.13-.2-.2-2.87-.07-3.26l-.06-1.2c.02-.34.05-1.06.08-.45.01-1.12-.02-1.15-.05-1.95l.08-1.2c.06-4.4-.1-8.16-.06-12.8l.05-2.3c0-.84.05-1.7-.04-2.73-.2-2-1.24-4.08-2.9-5.52-1.64-1.46-3.88-2.2-5.9-2.15l-5.22.07c-8.5.2-18.4-.32-27.1-.1-.14-.01-.4 0-.6.01s-.4.03-.4.03l-7.97-.02s-38.63-.05-9.28 1.02l-.2.03c4.36.07 7.1.08 10.1-.06.48.17 3.58.02 4.6.07h-.1c2.66-.13 5.48.1 8.04-.01-.1.01-.15.06-.74.06 1.87-.02 4.42-.06 4.56.04l13.55-.14-.2.03c1.63-.1 2.1-.02 3.93-.07.1.01.23.02.2.03 1.78-.1 5.18-.02 6.6-.06l.1.07c1.14-.01 2.24.17 3.27.62a8.63 8.63 0 0 0-1.18-.4c.46-.1 2.5.78 4.12 2.6.7.9 1.3 1.9 1.68 3.03.4 1.13.37 2.4.34 3.64.1 1.2-.14-1.05-.07.73-.1.06-.06-.83-.14-.37.05 1.74-.1 2.86-.03 5l-.07.1c.14 2.8-.1 5.3.03 7.16.06 2.9-.22 1.94-.08 4.95l-.1 1.17c-.02 1.3.12.92.07 2.35-.06-.1-.05 1.8-.1.97a66.52 66.52 0 0 0-.02 2.46c-.01.8-.06 1.57-.3 2.36-.45 1.56-1.5 3.15-3.2 4.14-.32.28-.95.64-1.6.86-.65.23-1.3.33-1.62.42-.05-.02-1.05.03-1.84 0-.76-.01-1.2-.03 0-.1.2-.01.57-.01.55.01l.3-.07c-2.43-.14-4.42.08-6.82.05.7.02 1.66.02 1.03.07h-2.23l.46-.06-3.33-.04.46.08c-1.63-.04-2.2-.17-4.04-.06-.83.06 1.54.1-.18.13l-8.22-.15c.26.1-.5.08-1.26.1l-.1-.07c-2.95.1-1.08-.16-4-.08l.26-.05-.77.16c-2.64.15-1.42-.15-4.36.05 1.16-.01.55.16-.88.13l.36-.07c-.8.02-1.05.05-1.58.03.47-.04.25-.1-.9-.1l.78-.1-2.2.13c-1.7-.08-4.4.02-5.08-.08 0 0-3.65-.05-4.48.06.73-.07-1.28-.1-.7-.18-.95.08-3.74.14-4.85.06l.2-.01c-4.13-.1-7.07.12-10.78.01.17.1-1.8.04-1.3.15-3.84.1-7-.23-8.38.12-1.75.02-2.07-.08-2.97-.1l.42-.02-6.65.02c-1.2.03-1.42.2-3.56.14.67-.05-.18-.01-.94-.15.5.06.64.07-.34-.14a11.72 11.72 0 0 1-.56-.1c-.01-.01-.04-.02-.02-.02l-.9-.3c-.03 0 .15.1.43.2-.03 0 .01.03.18.1-.63-.23-1.46-.67-2.1-1.14-.64-.46-1.06-.95-1.07-1.05-1.3-1.42-1.93-3.05-2.07-4.62-.1-1.6-.1-3.23-.12-4.9.06-.38.1.4.13 1.4l-.02-2.4c.08.02.05 1.38.06 2.13.13-2.87-.13-5.9-.01-9.28l-.06-.7v-.2c-.03.01-.08-.74-.1-1.24.07-.48.16.03.16-1.63.07-1.32-.03-3.74-.07-5.46-.01.93-.05.63-.08.23 0-.83.07-1.3.04-1.95l.07-.06c-.07-.12-.08-2.22-.1-2.5.07-.47.06 1.3.1 1.5l.02-2.48c0-.2.03-.4.08-.74.02-.17.06-.38.13-.63.05-.26.15-.57.3-.94.64-1.57-.23.24.04-.53.3-.7.72-1.34 1.23-1.93.5-.6 1.14-1.14 1.92-1.55-.17.07-.35.14-.52.22 1.2-.83 2.34-1.2 3.37-1.35 1.04-.13 1.98-.05 2.98-.02 22-.68 4.64-.93 4.64-.93l-5.87-.07c-1.85-.08-3.85.38-5.42 1.45-1.58 1.06-2.93 2.65-3.6 4.74-.34 1.02-.45 2.24-.4 3.36l.03 3.6-.18 20.86zm16.62 26.65a3.6 3.6 0 0 0-3.6 3.6v13.5a3.6 3.6 0 0 0 3.6 3.6h13.5a3.6 3.6 0 0 0 3.6-3.6v-13.5a3.6 3.6 0 0 0-3.6-3.6h-13.5zm16.1 3.6v13.5a2.6 2.6 0 0 1-2.6 2.6h-13.5a2.6 2.6 0 0 1-2.6-2.6v-13.5a2.6 2.6 0 0 1 2.6-2.6h13.5a2.6 2.6 0 0 1 2.6 2.6z"/><path d="M521.57 138.05v13.5a3.6 3.6 0 0 0 3.6 3.6h13.5a3.6 3.6 0 0 0 3.6-3.6v-13.5a3.6 3.6 0 0 0-3.6-3.6h-13.5a3.61 3.61 0 0 0-3.61 3.61zm19.7 0v13.5a2.6 2.6 0 0 1-2.6 2.6h-13.5a2.6 2.6 0 0 1-2.6-2.6v-13.5a2.6 2.6 0 0 1 2.6-2.6h13.5a2.6 2.6 0 0 1 2.6 2.6zm23.6-2.18l-.24-.08c-.87-.06-1.6.1-2.52.06-1.1-.16-3.16-.01-4.35.07-1.67.2-3.62-.32-5.33-.1-.06-.02-.2.02-.2.04l-1.57-.02s-7.6-.05-1.82 1.02l-.04.03c.86.07 1.4.08 2-.06.1.17.7.02.9.07h-.02c.52-.13 1.08.1 1.58-.01-.02.01-.03.06-.15.06.37-.02.87-.06.9.04.88-.03 2.1.02 2.66-.14l-.04.03c.32-.1.4-.02.77-.07.02.01.04.02.04.03.35-.1 1.02-.02 1.3-.06l.02.07.7-.02-.26-.01c.1-.18.53.12 1.03 0 .47.02.96-.38 1.45-.3.23-.1-.2.14.14.07.01.1-.16.06-.07.14.34-.05.56.1 1 .03l.02.07c.55-.14 1.04.1 1.4-.03.57-.06.38.22.97.08l.23.1c.25.02.18-.12.46-.07-.02.06.36.05.2.1.64.1 1.3-.14 2.13.03.18-.12.6-.05.74-.14.02.05.85.01.37.13-.04.01-.1.01-.1-.01l-.06.07c.48.14.87-.08 1.34-.05-.14-.02-.33-.02-.2-.07h.44l-.1.06.65.04-.1-.08c.32.04.43.17.8.06.16-.06-.3-.1.03-.13l1.62.15c-.05-.1.1-.08.25-.1l.02.07c.58-.1.2.16.8.08l.1-.1c.52-.15.28.15.86-.05-.23.01-.1-.16.17-.13l-.07.07c.16-.02.2-.05.3-.03-.1.04-.05.1.18.1l-.15.1.43-.13c.33.08.86-.02 1 .08 0 0 .72.05.88-.06-.14.07.25.1.14.18.2-.08.73-.14.95-.06h-.04c.8.1 1.4-.12 2.12-.01-.03-.1.35-.04.26-.15.75-.1 1.38.23 1.65-.12.34-.02.4.08.58.1l-.08.02 1.3-.02c.24-.03.28-.2.7-.15-.14.06.04.05.2.05-.1.01-.13.03.08.08.03-.02.08-.03.12-.04 0 .01.01.01.01.02.27-.02.22-.04.1-.05.01-.01 0-.02-.04-.04.28.08.77-.01.8.1.8-.03 1.38-.14 2.04-.18.08.06-.08.1-.27.13l.47-.02c0 .08-.27.05-.42.06.56.13 1.16-.13 1.82-.01l.14-.06.04.01c0-.03.15-.08.24-.1.1.07-.01.16.32.16.26.07.74-.03 1.07-.07-.18-.01-.12-.05-.05-.08.16 0 .26.07.38.04v.1c-.06-.1.43-.1.5-.13.1.07-.25.06-.3.1l.98-.01c.35-.07-.06-.1.1-.17.3-.02.6-.08.97-.03l-.1-.08c.58-.07.93-.06 1.32.03 4.33-.68.9-.93.9-.93-1.7-.2-2.58.06-4.6.12-1.78-.04-2.26-.2-4.1-.14-.88-.01-1.82.02-2.68.04-.4.13-1.13 0-1.6.1l-.2-.07c-.17.04-.36.06-.53.02l.01-.02c-.25.05-.53.02-.65.05l.01-.02-.3.01.05-.03a6.93 6.93 0 0 1-1.28.04l.03.1c-.84-.1-1.15.08-1.9-.03l.01-.02c-.96.23-1.52-.16-2.5.06.12-.03-.05-.04-.04-.07-.46.02-.94.04-.95.2-.33 0-.27-.05-.3-.12 0 .08-.3.1-.55.1l.12-.03-.74.03.15.14c-.4-.04-.1-.17-.48-.14v.12c-.55-.02-.87-.2-1.4-.3-2.2-.05-4.56.25-6.6.04l-.1-.1c-.04-.13-.56.2-.64.07l-.24.06c-.07-.02-.2-.05-.1-.08-.23-.04-.23-.02-.4.02z"/><path d="M574.65 137.15h0l-.05.05zm23.2 48.03c-1.7-.2-2.58.06-4.6.12-1.78-.04-2.26-.2-4.1-.14-.88-.01-1.82.02-2.68.04-.4.13-1.13 0-1.6.1l-.2-.07c-.17.04-.36.06-.53.02l.01-.02c-.25.05-.53.02-.65.05v-.02l-.3.01.05-.03a6.93 6.93 0 0 1-1.28.04l.03.1c-.84-.1-1.15.08-1.9-.03v-.02c-.96.23-1.52-.16-2.5.06.12-.03-.05-.04-.04-.07-.46.02-.94.04-.95.2-.33 0-.27-.05-.3-.12 0 .08-.3.1-.55.1l.12-.03-.74.03.15.14c-.4-.04-.1-.17-.48-.14v.12c-.55-.02-.87-.2-1.4-.3-2.2-.05-4.56.25-6.6.04l-.1-.1c-.04-.13-.56.2-.64.07l-.24.06c-.07-.02-.2-.05-.1-.08-.22-.01-.23.02-.38.05l-.24-.08c-.87-.06-1.6.1-2.52.06-1.1-.16-3.16-.01-4.35.07-1.67.2-3.62-.32-5.33-.1-.06-.02-.2.02-.2.04l-1.57-.02s-7.6-.05-1.82 1.02l-.04.03c.86.07 1.4.08 2-.06.1.17.7.02.9.07h-.02c.52-.13 1.08.1 1.58-.01-.02.01-.03.06-.15.06.37-.02.87-.06.9.04.88-.03 2.1.02 2.66-.14l-.04.03c.32-.1.4-.02.77-.07.02.01.04.02.04.03.35-.1 1.02-.02 1.3-.06l.02.07.7-.02-.26-.01c.1-.18.53.12 1.03 0 .47.02.96-.38 1.45-.3.23-.1-.2.14.14.07.01.1-.16.06-.07.14.34-.05.56.1 1 .03l.02.07c.55-.14 1.04.1 1.4-.03.57-.06.38.22.97.08l.23.1c.25.02.18-.12.46-.07-.02.06.36.05.2.1.64.1 1.3-.14 2.13.03.18-.12.6-.05.74-.14.02.05.85.01.37.13-.04.01-.1.01-.1-.01l-.06.07c.48.14.87-.08 1.34-.05-.14-.02-.33-.02-.2-.07l.44.01-.1.06.65.04-.1-.08c.32.04.43.17.8.06.16-.06-.3-.1.03-.13l1.62.15c-.05-.1.1-.08.25-.1l.02.07c.58-.1.2.16.8.08l.1-.1c.52-.15.28.15.86-.05-.23.01-.1-.16.17-.13l-.07.07c.16-.02.2-.05.3-.03-.1.04-.05.1.18.1l-.15.1.43-.13c.33.08.86-.02 1 .08 0 0 .72.05.88-.06-.14.07.25.1.14.18.2-.08.73-.14.95-.06h-.04c.8.1 1.4-.12 2.12-.01-.03-.1.35-.04.26-.15.75-.1 1.38.23 1.65-.12.34-.02.4.08.58.1l-.08.02 1.3-.02c.24-.03.28-.2.7-.15-.14.06.04.05.2.05-.1.01-.13.03.08.08.03-.02.08-.03.12-.04 0 .01.01.01.01.02.27-.02.22-.04.1-.05.01-.01 0-.02-.04-.04.28.08.77-.01.8.1.8-.03 1.38-.14 2.04-.18.08.06-.08.1-.27.13l.47-.02c0 .08-.27.05-.42.06.56.13 1.16-.13 1.82-.01l.14-.06.04.01c0-.03.15-.08.24-.1.1.07-.01.16.32.16.26.07.74-.03 1.07-.07-.18-.01-.12-.05-.05-.08.16 0 .26.07.38.04l.02.1c-.06-.1.43-.1.5-.13.1.07-.25.06-.3.1h.98c.35-.07-.06-.1.1-.17.3-.02.6-.08.97-.03l-.1-.08c.58-.07.93-.06 1.32.03 4.3-.7.9-.96.9-.96z"/><path d="M575.1 186.7h0l-.05.05zm21.84 7.74c4.33-.68.9-.93.9-.93-1.7-.2-2.58.06-4.6.12-1.78-.04-2.26-.2-4.1-.14-.88-.01-1.82.02-2.68.04-.4.13-1.13 0-1.6.1l-.2-.07c-.17.04-.36.06-.53.02l.01-.02c-.25.05-.53.02-.65.05h0-.3l.05-.03a6.93 6.93 0 0 1-1.28.04l.03.1c-.84-.1-1.15.08-1.9-.03v-.02c-.96.23-1.52-.16-2.5.06.12-.03-.05-.04-.04-.07-.46.02-.94.04-.95.2-.33 0-.27-.05-.3-.12 0 .08-.3.1-.55.1l.12-.03-.74.03.15.14c-.4-.04-.1-.17-.48-.14v.12c-.55-.02-.87-.2-1.4-.3-2.2-.05-4.56.25-6.6.04l-.1-.1c-.04-.13-.56.2-.64.07l-.24.06c-.07-.02-.2-.05-.1-.08-.22-.01-.23.02-.38.05l-.24-.08c-.87-.06-1.6.1-2.52.06-1.1-.16-3.16-.01-4.35.07-1.67.2-3.62-.32-5.33-.1-.06-.02-.2.02-.2.04l-1.57-.02s-7.6-.05-1.82 1.02l-.04.03c.86.07 1.4.08 2-.06.1.17.7.02.9.07l-.02.01c.52-.13 1.08.1 1.58-.01-.02.01-.03.06-.15.06.37-.02.87-.06.9.04.88-.03 2.1.02 2.66-.14l-.04.03c.32-.1.4-.02.77-.07.02.01.04.02.04.03.35-.1 1.02-.02 1.3-.06l.02.07.7-.02h-.26c.1-.18.53.12 1.03 0 .47.02.96-.38 1.45-.3.23-.1-.2.14.14.07.01.1-.16.06-.07.14.34-.05.56.1 1 .03l.02.07c.55-.14 1.04.1 1.4-.03.57-.06.38.22.97.08l.23.1c.25.02.18-.12.46-.07-.02.06.36.05.2.1.64.1 1.3-.14 2.13.03.18-.12.6-.05.74-.14.02.05.85.01.37.13-.04.01-.1.01-.1-.01l-.06.07c.48.14.87-.08 1.34-.05-.14-.02-.33-.02-.2-.07h.44l-.1.06.65.04-.1-.08c.32.04.43.17.8.06.16-.06-.3-.1.03-.13l1.62.15c-.05-.1.1-.08.25-.1l.02.07c.58-.1.2.16.8.08l.1-.1c.52-.15.28.15.86-.05-.23.01-.1-.16.17-.13l-.07.07c.16-.02.2-.05.3-.03-.1.04-.05.1.18.1l-.15.1.43-.13c.33.08.86-.02 1 .08 0 0 .72.05.88-.06-.14.07.25.1.14.18.2-.08.73-.14.95-.06l-.04.01c.8.1 1.4-.12 2.12-.01-.03-.1.35-.04.26-.15.75-.1 1.38.23 1.65-.12.34-.02.4.08.58.1l-.08.02 1.3-.02c.24-.03.28-.2.7-.15-.14.06.04.05.2.05-.1.01-.13.03.08.08.03-.02.08-.03.12-.04 0 .01.01.01.01.02.27-.02.22-.04.1-.05.01-.01 0-.02-.04-.04.28.08.77-.01.8.1.8-.03 1.38-.14 2.04-.18.08.06-.08.1-.27.13l.47-.02c0 .08-.27.05-.42.06.56.13 1.16-.13 1.82-.01l.14-.06h.04c0-.03.15-.08.24-.1.1.07-.01.16.32.16.26.07.74-.03 1.07-.07-.18-.01-.12-.05-.05-.08.16 0 .26.07.38.04l.02.1c-.06-.1.43-.1.5-.13.1.07-.25.06-.3.1l.98-.01c.35-.07-.06-.1.1-.17.3-.02.6-.08.97-.03l-.1-.08c.57-.1.92-.08 1.3 0z"/><path d="M575.1 195.03h0l-.05.05zm-2.28-50.58c2.27-.68.48-.93.48-.93-.9-.2-1.36.06-2.42.12-.94-.04-1.18-.2-2.15-.14-.46-.01-.96.02-1.4.04-.2.13-.6 0-.85.1l-.1-.07c-.1.04-.2.06-.28.02v-.02c-.13.05-.28.02-.34.05l.01-.02h-.16l.03-.03c-.23.06-.46.06-.67.04l.02.1c-.44-.1-.6.08-1-.03v-.02c-.5.23-.8-.16-1.32.06.06-.03-.03-.04-.02-.07-.24.02-.5.04-.5.2-.17 0-.14-.05-.16-.12 0 .08-.15.1-.3.1l.06-.03-.4.03.08.14c-.2-.04-.05-.17-.25-.14v.12c-.3-.02-.45-.2-.73-.3-1.15-.05-2.4.25-3.46.04l-.05-.1c-.02-.13-.3.2-.34.07l-.12.06c-.04-.02-.1-.05-.05-.08-.12-.01-.12.02-.2.05l-.12-.08c-.46-.06-.84.1-1.32.06-.58-.16-1.66-.01-2.28.07-.88.2-1.9-.32-2.8-.1-.03-.02-.1.02-.1.04l-.82-.02s-4-.05-.96 1.02l-.02.03c.45.07.73.08 1.04-.06.05.17.37.02.47.07l-.01.01c.27-.13.57.1.83-.01-.01.01-.02.06-.08.06.2-.02.46-.06.47.04.46-.03 1.1.02 1.4-.14l-.02.03c.17-.1.22-.02.4-.07.01.01.02.02.02.03.18-.1.53-.02.68-.06l.01.07.36-.02h-.14c.05-.18.28.12.54 0 .25.02.5-.38.76-.3.12-.1-.1.14.08.07.01.1-.1.06-.04.14.18-.05.3.1.52.03v.07c.3-.14.55.1.74-.03.3-.06.2.22.5.08l.12.1c.13.02.1-.12.24-.07-.01.06.2.05.1.1.33.1.68-.14 1.12.03.1-.12.32-.05.4-.14.01.05.44.01.2.13-.02.01-.06.01-.06-.01l-.03.07c.25.14.46-.08.7-.05-.07-.02-.17-.02-.1-.07l.23.01-.05.06.34.04-.05-.08c.17.04.23.17.42.06.1-.06-.16-.1.02-.13.22.05.56.13.85.15-.03-.1.05-.08.13-.1l.01.07c.3-.1.1.16.4.08l.05-.1c.27-.15.15.15.45-.05-.12.01-.06-.16.1-.13l-.04.07c.08-.02.1-.05.16-.03-.05.04-.03.1.1.1l-.08.1.23-.13c.18.08.45-.02.52.08 0 0 .38.05.46-.06-.08.07.13.1.07.18.1-.08.4-.14.5-.06l-.02.01c.43.1.73-.12 1.1-.01-.02-.1.18-.04.13-.15.4-.1.72.23.87-.12.18-.02.2.08.3.1l-.04.02a4.31 4.31 0 0 1 .7-.02c.13-.03.14-.2.37-.15-.07.06.02.05.1.05-.05.01-.07.03.04.08.02-.02.04-.03.06-.04 0 0 .01.01 0 .02.14-.02.12-.04.05-.05 0-.01 0-.02-.02-.04.15.08.4-.01.42.1.42-.03.72-.14 1.07-.18.04.06-.04.1-.14.13l.25-.02c0 .08-.14.05-.22.06.3.13.6-.13.96-.01l.07-.06h.02c0-.03.08-.08.13-.1.05.07 0 .16.17.16.14.07.4-.03.56-.07-.1-.01-.07-.05-.02-.08.1 0 .14.07.2.04v.1c-.03-.1.22-.1.26-.13.05.07-.13.06-.15.1l.52-.01c.18-.07-.03-.1.05-.17.16-.02.32-.08.5-.03l-.06-.08c.3-.1.48-.08.68 0z"/><path d="M561.37 145.03h0l-.03.06zm-91.8 154.43c.28 0 .5-.22.5-.5s-.22-.5-.5-.5h-2.15c-.28 0-.5.22-.5.5s.22.5.5.5h2.15zm-333 176.17h0l.06.15zm1.27-18.98h-1c-.28 0-.5.22-.5.5s.22.5.5.5h1c.28 0 .5-.22.5-.5a.5.5 0 0 0-.5-.5z"/><use xlink:href="#C"/><use xlink:href="#C" x="-11.68"/><use xlink:href="#C" x="5.84"/><use xlink:href="#C" x="-5.84"/><use xlink:href="#C" x="11.68"/><use xlink:href="#C" x="17.52"/><path d="M177.77 456.65h-1c-.28 0-.5.22-.5.5s.22.5.5.5h1c.28 0 .5-.22.5-.5s-.22-.5-.5-.5zm-38.32-18.17c.28 0 .5-.22.5-.5s-.22-.5-.5-.5h-2.26c-.28 0-.5.22-.5.5s.22.5.5.5h2.26zm-65.7-61.1c.22-1.18.6-2.28 1.13-3.26a.503.503 0 0 0-.89-.47c-.57 1.07-.98 2.26-1.23 3.54a.5.5 0 0 0 .4.58c.03.01.06.01.1.01.25.01.45-.16.5-.4zm148.63-12.42h0l-.2.27z"/><path d="M262.2 289.14c-.44-2.97-1.55-5.33-2.8-7.37a25.55 25.55 0 0 0-4.57-5.45c-.37-.4.53.3 1.5 1.34-.37-.45-.82-.82-1.23-1.23l-1.3-1.17c.1-.07 1.52 1.32 2.3 2.06l-1.1-1.12a12.32 12.32 0 0 0-1.19-1.08c-.83-.7-1.77-1.3-2.75-1.84-1.97-1.08-4.17-1.88-6.55-2.44l-1-.12-.28-.06c.01.01-.26-.01-.63-.03l-1.17-.1c-.68-.1.06-.2-2.36-.23-.96-.02-2.32.07-3.73.3a26.59 26.59 0 0 0-3.62.91l.25-.07c.14-.03.2-.04.2-.03-.01.02-.25.08-.52.2-1.14.4-1.82.53-2.66.94l-.1-.03c-.05.05-.66.3-1.32.67l-1.86 1.06c-.64.27 1.6-.94 1.85-1.13l-2.2 1.2c-.47.24-.7.47-.94.63l-.92.67c-.2.16-.5.33-.8.6l-1.1 1.04c-1.77 1.9.38-.28-.43.65-1.5 1.73-2.6 3.66-3.68 6l.4-.7-2 4.92-.9 1.97-.47.93-.56.88c-1.92 3.42-4.48 5.3-6.42 6.54-1.97 1.27-3.5 1.84-4.43 2.32-1.9.9-1.75.87-.65.58l2.18-.8 1.32-.52 1.28-.67c.84-.43 1.6-.84 2.1-1.25l.85-.6c2.58-1.92 4.33-4.3 5.5-6.66 1.2-2.37 1.92-4.7 2.9-6.93.97-2.22 2.23-4.37 4.24-6.25l.75-.72.87-.64c.6-.42 1.17-.9 1.88-1.25l2.13-1.16 2.4-.98c3-1.03 5.57-1.4 7.84-1.43a23.32 23.32 0 0 1 6.23.71c3.86 1.04 7.76 2.73 11.87 7.87 1.9 2.44 3.4 5.34 4 8.42l.13.57.18 1.75c.04.78-.01 1.55-.04 2.32-.14.76-.2 1.53-.4 2.26l-.32 1.1-.16.54-.22.52c-.28.65-.53 1.48-1.04 2.26l-.73 1.25-.92 1.22c-1.23 1.65-2.8 3.1-4.08 4.26-.34.28-.7.55-1.08.8-.92.78-2.02 1.67-3 2.4l.05-.06c-1.4 1.16-3 2.44-3.66 3.07l.04-.07c-.57.48-1.1 1.02-1.63 1.53l.26-.3c-1.12 1.16-2.22 2.4-3.03 3.85-.8 1.42-1.4 2.93-1.68 4.4l.14-.22c-.7 3.1-.44 5.28-.27 7.3.22 2.05.55 3.9.55 6.64l-.02-.07c.16 3.43-.25 6.15-1 8.76-.77 2.54-1.85 5-3.73 7.83.12-.2-.4.48-.37.43-1.9 2.64-4.6 4.88-4.52 5.03l-1 .83a8.22 8.22 0 0 1-.49.32c-.2.1-.2.07-.33.14.06.05-1.6 1.3-3.2 2.25l.72-.47c-1.48.92-3.16 1.87-4.44 3.22.3-.22.6-.44.9-.64l-1.37 1.2c-.07.05-.13.1-.3.28s-.42.47-.82 1.05l.12.04c-1.18 1.64-1.87 3.1-2.5 4.54-.63 1.45-1.16 2.9-1.77 4.73-.6 1.9-1.17 3.83-1.96 5.62-.8 1.78-1.93 3.4-3.32 4.8-2.8 2.82-6.4 4.8-10.07 6.47-1.84.83-3.7 1.6-5.57 2.32-.94.4-1.86.66-2.8 1.12-.47.23-.96.42-1.37.75-.42.3-.88.56-1.23.93-1.55 1.35-2.74 2.98-3.77 4.6-1.04 1.64-1.98 3.3-2.92 4.88l-.4.52c-.24.2-1.9 3.6-2.38 3.94-.3.5-.6.95-.95 1.4-.3.36-.94 1.14-.45.46-.47.62-.77.9-.98 1.16-.23.25-.38.5-.8.9l-1.28 1.07c-.62.44-1.2.92-1.82 1.3-.6.4-1.25.72-1.9 1-1.3.52-2.64.7-3.93.3-.25-.07-.5-.17-.74-.28.3-3.42 3.4-32 28.03-72.55 26.16-43.07 47.93-60.12 48.14-60.3.22-.17.26-.48.1-.7s-.48-.26-.7-.1-22.12 17.32-48.4 60.56c-23.94 39.42-27.65 67.64-28.13 72.58-.06-.03-.12-.06-.17-.1-.58-.37-1.25-.8-1.7-1.28-.37-.37-.7-.8-1.02-1.26.65-1.44 1.4-3.17 1.6-3.92.07-.07.66-1.67 1.04-2.8.37-1.14.6-1.8.08.03-.1.32-.3.86-.3.82l-.08.46c1.4-3.6 2-6.72 2.8-10.44-.25 1.1-.58 2.57-.4 1.58l.7-3.46-.07.74c.34-1.72.63-3.46.86-5.2l-.17.7c.37-2.55.6-3.45.66-6.37 0-1.32-.22 2.44-.1-.3.24-3.43.2-8.66-.77-13.03.01.42-.26-.74-.6-1.93l.03-.16-.47-1.37-.34-.84c-.17-.43-.23-.64-.3-.85-.08-.2-.16-.4-.36-.82-.17-.42-.53-1-1.17-1.97-.2-.23-.42-.46-.64-.68l-1-1.18c1.8-2.66 3.98-5.07 6.17-7.42 1.1-1.16 2.26-2.43 3.14-3.82.86-1.4 1.6-2.86 2.1-4.37.08-.2.2-.54.3-.84l.14-.56c.6-1.84.97-3.73 1.23-5.63.27-1.9.43-3.8.5-5.7l.08-2.3.04-5.67c.02-2.2.35-4.67 1.1-7 .73-2.33 1.87-4.48 3.05-6.2 2.4-3.46 4.73-5.34 4.06-5-.3.2-1.35.95-3.06 2.8a25.25 25.25 0 0 0-2.84 3.78 22.95 22.95 0 0 0-2.68 6.28l.04-.28c-.4 1.54-.6 2.97-.7 4.3-.08 1.34-.07 2.55-.07 3.7l-.04 6.46c-.1.33-.18 1.6-.3 2.95-.12 1.36-.32 2.8-.48 3.5l.01-.14c-.5 3.73-2.1 7.44-4.12 10.34.07-.12.07-.2.54-.88-.36.53-.75 1.13-1.22 1.65-.43.54-.9 1.06-1.35 1.53-.87.93-1.52 1.64-1.62 1.68-1.54 1.72-3.27 3.78-4.76 6l-.38-.46c-.4-.48-.86-1-2.5-2.6 1.25 1.32.44.75-1-.94l.43.37c-.82-.9-1.1-1.2-1.58-1.86.47.56.3.25-.74-1.2.24.32.5.6.77.9-.35-.44-.7-.87-1-1.34l-.47-.7-.4-.73c-.3-.57-.53-1.27-.8-1.98-.13-.36-.18-.74-.28-1.1-.1-.37-.18-.73-.2-1.1l-.1-1.04c-.02-.33.01-.65.02-.93.03-.57.03-1.02.12-1.27 0 0 .06-.34.14-.87.05-.26.07-.58.17-.9l.3-1.07c.35-1.33.86-2.9.97-3.68.02.15.5-2.13.42-1.33.07-.38.12-.94.18-1.6s.16-1.4.16-2.18c.1-1.5.02-3.02.04-3.92-.15-3.2-.7-5.9-1.45-8.47-.8-2.63-1.78-5.12-3.28-7.7.1.27-1.63-2.4-1.3-1.67-.48-.6-.97-1.2-1.44-1.75-.53-.5-1-1.05-1.53-1.5l-1.57-1.24c-.5-.37-.98-.7-1.4-1.06-1.76-1.37-2.95-2.64-3.78-3.33-1.74-2.06-1.83-2.6-2.54-3.8l.35.54c-1.27-2.17-1.87-3.7-2.38-5.08-.5-1.4-.88-2.65-1.35-4.48s-.72-2.08-1.33-5.43c.27 1.07-.01-.3-.22-1.55.15.8.2 1.04-.03-.6-.06-.23-.14-.58-.2-.92 0-.01 0-.08.01-.05-.34-2.1-.3-1.73-.17-.75-.02-.05-.02.04.01.34-.12-1.1-.35-2.6-.6-3.93-.3-1.3-.6-2.32-.62-2.46-1.03-3.1-2.36-5.57-3.78-7.8-1.43-2.22-2.97-4.2-4.76-6.2-.28-.36.17.05.83.8l-.55-.64c-.42-.48-.84-.96-1.3-1.4.1-.04 1.53 1.58 2.28 2.5-2.8-3.6-6.5-6.8-10.92-9.8l-.96-.55-.27-.17c0 .02-.27-.1-.62-.3l-1.13-.6c-.64-.4.14-.14-2.25-1.3-.47-.22-1.05-.5-1.7-.76-.66-.24-1.37-.52-2.12-.75-1.5-.45-3.12-.83-4.48-1.03 1.46.27.97.24.35.13-1.3-.2-2.05-.4-3.08-.42l-.1-.1c-.27.03-3.54-.05-3.97.14-.38 0 .13-.06.78-.13.65-.04 1.44-.03 1.6-.07-1.33-.03-2.17.06-2.75.12-.58.05-.9.07-1.24.14-.65.13-1.33.14-3.9.86-2.66 1 .5-.1-.74.44-2.36.8-4.53 1.96-6.9 3.56l.8-.44c-1.92 1.33-3.28 2.64-4.33 3.94-1.06 1.3-1.9 2.53-2.62 3.93-1.83 3.97-2.18 7.4-2.3 9.94-.1 2.56.05 4.32.2 5.46.3 2.28.4 2.1.35.85-.03-1.24-.1-3.54.04-5.5.08-1 .17-1.9.27-2.55.08-.66.17-1.06.17-1.06.28-1.64.74-3.12 1.22-4.52.55-1.37 1.12-2.65 1.85-3.8 1.4-2.32 3.22-4.2 5.37-5.7 2.18-1.5 4.66-2.8 7.6-3.63 2.94-.82 6.38-1.26 10.3-.7 3.45.5 6.16 1.5 8.47 2.53a39.23 39.23 0 0 1 6.1 3.46c1.84 1.3 3.63 2.7 5.54 4.47s3.95 3.94 6.1 6.86c2.04 2.8 3.8 5.94 5.05 9.24.6 1.66 1.02 3.35 1.3 5.07l.87 5.22c.68 3.2 1.84 8.96 3.58 12.54.2.47.35.96.57 1.42.64 1.2 1.46 2.6 2.27 3.7l-.07-.06c1.24 1.64 2.87 3.3 3.66 3.92l-.08-.04c.6.55 1.28 1.05 1.93 1.55-.12-.07-.24-.15-.36-.23.7.52 1.5 1.02 2.13 1.53.33.26.67.5.98.77l.9.88c.6.57 1.06 1.27 1.6 1.88.44.68.9 1.33 1.28 2l-.05-.27c1.63 2.87 2.4 5.02 3.05 7.1s1.12 4.16 1.36 7.14l-.03-.08a28.14 28.14 0 0 1-.43 9.72c-.13.74-.35 1.46-.58 2.2l-.68 2.33a14.4 14.4 0 0 0-.48 5.55c-.13-1.03 0 .44-.03.36.23 1.9.88 3.8 1.65 5.08.73 1.3 1.37 2.1 1.46 2.06.8 1.1 1.15 1.5 1.3 1.73.15.2.1.2.2.36.02-.02.42.4 1 1l2.05 2.16-.68-.68c1.36 1.44 2.75 2.85 3.86 4.44-.18-.34-.38-.67-.58-1 .95 1.24.93 1.48 1.03 1.63.06.18.18.3.84 1.6l.1-.1c.92 1.94 1.35 3.62 1.7 5.27.3 1.67.52 3.33.65 5.4.34 4.33.15 8.78-.4 13.2-.55 4.43-1.43 8.85-2.67 13.12-1.26 4.25-2.78 8.45-5.07 12.05-1.07 1.67-2.4 3.22-4.12 3.9-.13-1.46-.8-5.9-3.58-19.37-2.74-13.22-8.76-32.02-18.38-57.5-15.86-41.96-39.57-80.7-39.8-81.1a.49.49 0 1 0-.85.53c.24.4 23.9 39.06 39.72 80.93 9.6 25.42 15.6 44.18 18.34 57.34 3.1 14.9 3.53 18.63 3.6 19.45a4.44 4.44 0 0 1-2.11-.17c-.9-.3-1.73-.84-2.5-1.45-.17-.16-.32-.33-.48-.5-.08-.14-.9-.83-1.73-1.64-.82-.8-1.63-1.7-1.78-1.96l-1.25-1.42c-.32-.43-1-1.32-.4-.6-1.1-1.37-1.15-1.4-2-2.34-.4-.5-.8-1-1.2-1.48-.6-.65-1.2-1.28-1.82-1.87l-1.87-1.66c-.6-.54-1.22-1.04-1.73-1.65-.5-.6-1.12-1.13-1.56-1.8-1.98-2.5-3.42-5.43-4.62-8.84-.7-2.06-1.45-4.64-2.67-7.38-1.2-2.72-3.15-5.55-5.85-7.5l-2.06-1.37-2.03-1.24c-1.34-.83-2.64-1.68-3.87-2.54a63.82 63.82 0 0 1-6.38-5.05c-2.44-2.23-4.73-4.84-6.57-7.82-1.85-2.98-3.2-6.33-3.95-9.82s-.94-7.1-.65-10.64c.25-3.56.52-7.14.44-10.58.01-.22 0-.63-.02-.97-.01-.35-.04-.63-.04-.63-.08-2.1-.2-4.22-.57-6.3-.14-1.05-.42-2.08-.65-3.12-.32-1.02-.6-2.05-1.04-3.03 0 0-.33-.9-1.1-2.33a23.38 23.38 0 0 0-3.86-5.08l-1.44-1.32c-.5-.42-1.05-.84-1.6-1.26-1.06-.77-2-1.7-2.88-2.74-1.74-2.06-3.14-4.37-4.26-6.4-2.2-4.1-3.28-7.2-3.18-6.4.1.4.45 1.76 1.52 4.3a43.77 43.77 0 0 0 2.28 4.67c1.05 1.82 2.34 3.97 4.4 6.1l-.24-.2c.6.63 1.3 1.18 1.9 1.66.6.5 1.2.92 1.7 1.42 1.05.95 1.95 1.9 2.7 2.86 1.54 1.92 2.63 3.86 3.5 6.02.01.4.5 1.67.82 3.13.2.72.32 1.48.44 2.16.13.67.2 1.27.22 1.67l-.03-.15c.6 4.1.28 8.53.13 12.53 0-.16-.05-.25 0-1.17-.04 1.46-.2 3.18-.28 4.58-.07 1.4-.14 2.48-.2 2.6-.06 3.55.4 7.85 1.63 11.62 1.2 3.8 3.1 6.93 4.45 8.75l-.2-.24c.82 1 1.3 1.7 1.85 2.38.58.65 1.14 1.4 2.15 2.42.1.12.24.27.2.25.52.47 1.12 1.1 1.8 1.73.7.6 1.44 1.3 2.2 1.94l2.2 1.78 1.78 1.28.08.14c.74.56 1.54 1.05 2.3 1.57.32.22.66.42 1 .63-.13-.1-.26-.17-.4-.26.34.14 1.23.7 2.46 1.5.63.4 1.3.87 2.02 1.38.76.46 1.44 1.13 2.2 1.75 1.2 1.13 2.25 2.45 3.16 3.9-1.68-.6-3.75-1.2-5.88-1.7l-7.63-1.72c-2.86-.68-5.83-1.87-8.52-3.54-2.68-1.7-5.1-3.8-7.52-5.64a3.68 3.68 0 0 0-.57-.42c-1.43-1.18-2.88-2.36-4.46-3.4 0 0-.35-.25-.97-.6-.6-.37-1.5-.85-2.58-1.24s-2.37-.68-3.66-.66a9.95 9.95 0 0 0-3.54.74c-2 .87-3.1 1.88-2.74 1.77.2-.02.75-.34 1.88-.8.57-.22 1.28-.47 2.17-.64.88-.18 1.95-.26 3.15-.06-.04 0-.1 0-.13.01 1.43.18 2.54.62 3.52 1.07.98.46 1.83.94 2.73 1.46.18.3 2 1.45 2.5 1.95l-.06-.03c1.53 1.04 2.87 2.5 4.35 3.53-.06-.03-.12-.02-.45-.28 1.03.8 2.48 1.87 2.5 2 1.27.92 2.84 2 4.4 2.8.8.38 1.54.78 2.24 1.04s1.3.5 1.8.64l-.14-.02c1.12.26 1.4.5 2.65.8.06.03.15.06.13.07 1.22.27 3.5.94 4.5 1.1l.05.08 2.4.55-.9-.22c.35-.1 1.8.53 3.54.84 1.6.43 3.37.5 4.98 1.15.8.2-.73-.1.45.24.01.1-.56-.14-.3.04.3.1.56.2.8.3.78 1.43 1.43 2.96 1.93 4.55.7 1.73-.67-1.5.3 1.1-.06.12-.48-1.2-.32-.5.95 2.56 1.3 4.32 2.86 7.38v.16c2.05 4 4.77 7.02 7.12 8.83 1.7 1.43 2.14 2.08 2.64 2.67.5.6 1 1.22 2.55 3l1.1 1.5.73.87c-.16.77-.35 1.55-.62 2.24.13-.14 0 .35-.2.8l-.1.02c-.2.44-.3.7-.4.86-.1.14-.18.2-.25.26s-.13.1-.24.25-.25.37-.55.68c.02-.05.05-.1.07-.14a5.86 5.86 0 0 1-.23.43c-.03.03-.06.05-.1.08-2.04-3.83-4.87-7.9-8.8-11.58-9.46-8.9-22.77-14.96-31.58-18.97-2.62-1.2-4.87-2.22-6.35-3.03-6.2-3.38-13.32-9.28-13.4-9.34-.2-.18-.53-.15-.7.07-.18.2-.15.53.07.7.07.06 7.27 6.02 13.55 9.45 1.5.82 3.78 1.86 6.4 3.06 8.75 3.98 21.96 10 31.3 18.8 3.88 3.64 6.66 7.65 8.66 11.42-.06.02-.1.04-.16.06-.25.07-.47.2-1.36.53.72-.22.4.1-.54.25l.22-.12c-.5.12-.68.15-1.03.18.3-.06.15-.1-.6-.06.17-.03.34-.08.5-.12-.47.08-.96.13-1.45.15-1.12-.1-2.94-.38-3.33-.64 0 0-.14-.03-.36-.12l-.82-.33-1.55-.73c.46.2-.7-.52-.32-.4-.58-.26-2.18-1.3-2.73-1.87l.12.08c-2.2-1.8-3.9-3-6.02-4.56.05.14-1.1-.66-.86-.38-2.32-1.38-4.3-2.56-5.37-2.54l-2-.7.3.06c-2.25-.55-2.9-.64-4.6-.95-.84-.1-1 .02-2.5-.26.5.02-.12-.07-.68-.16.36.05.47.04-.25-.12a3.44 3.44 0 0 1-.42-.03c-.01-.01-.03-.01-.02-.02-.93-.13-.78-.1-.34-.01-.02.01.01.02.14.06-.96-.23-2.7-.47-2.78-.6-2.78-.5-4.76-.9-7-1.58-.23-.14.3 0 .96.18-.53-.15-1.06-.34-1.58-.5.04-.07.92.27 1.4.4-1.83-.74-3.9-1.2-5.93-2.36l-.46-.15-.12-.08c-.01.03-.48-.18-.8-.34-.25-.22.1-.13-.9-.7-.4-.24-.9-.6-1.5-.96s-1.2-.72-1.67-1.07c.5.4.32.3.08.15-.47-.34-.67-.6-1.03-.86l.02-.1c.1.23-1.2-.9-1.37-1.02-.2-.27.7.55.84.6-.86-.76-1.07-.96-1.27-1.16-.2-.2-.43-.4-1.2-1.23-.9-.85.1.22-.38-.15-.74-.8-1.48-1.57-2.17-2.6l.17.37c-1.3-1.6-1.92-2.66-2.54-3.9-2.02-3.25-2.76-5.28-3.2-6.22-.42-.95-.47-.85-.4-.3.1.56.36 1.6.66 2.46a38.92 38.92 0 0 0 .61 1.58c1.2 2.85 2.5 4.84 4 6.8a35.84 35.84 0 0 0 6.22 6.18c1.27 1 2.4 1.7 3.36 2.35 1.02.58 1.87 1.15 2.8 1.6l1.4.7 1.57.65c.55.24 1.16.43 1.82.66.66.24 1.38.44 2.2.66 3.05.88 6.4 1.42 9.4 1.88 1.46.1 3.95.63 5.6.9l.62.2a10.82 10.82 0 0 1 1.78.46l-.04.01a17.45 17.45 0 0 1 2.12.74h-.04l.96.42c-.06-.02-.12-.04-.17-.05 1.37.6 2.7 1.4 3.84 2.2l-.05-.13c2.36 1.76 3.28 2.34 5.34 4.1h-.04c1.42.97 2.5 1.8 3.68 2.57 1.17.74 2.52 1.45 4.35 1.7-.45-.06.18.08.14.1 1.65.3 3.48.24 3.5.05 1.22-.1 1-.06 1.17 0-.02-.08 1.05-.25 1.94-.67-.13.07-.27.13-.4.2a8.12 8.12 0 0 0 .95-.43c3.47 6.9 4.3 12.8 4.43 13.8l-.44-.03c-9.63.68-2.03.93-2.03.93 3.8.2 5.75-.06 10.26-.12 3.97.04 5.02.2 9.13.14l5.97-.04c.9-.13 2.52 0 3.6-.1l.42.07a5.82 5.82 0 0 1 1.18-.02l-.02.02c.55-.05 1.18-.02 1.46-.05l-.02.02.67-.01-.12.03c.97-.06 1.96-.06 2.84-.04l-.07-.1c.5.02.78.05 1.1.1.3.07.55.14.8.25.48.2.92.53 1.3 1.15h-.03a2.44 2.44 0 0 1 .56 1.11c.08.4.07.72.05 1.18-.04.85-.08 1.72.03 2.82-.03-.28-.04.12-.07.1l.04 1.18c.02.1.04.2.1.3-.01.02-.01.05.02.08-.37 0-.3-.05-.34-.12 0 .08-.64.1-1.22.1l.27-.03-1.66.03.33.14c-.52-.02-.5-.08-.58-.12.48-.26-3.95-.36-3.95-.36-5.3-.2-8.06.06-14.4.12h-.14c-.03-.05-.2-.03-.43 0-5.1-.05-6.67-.2-12.23-.13l-8.37.04c-1.28.13-3.53 0-5.04.1l-.6-.07c-.25.03-1.25.05-2 .04v.03c-.7 0-1.37.01-2.03.05-.12-.02-.44.02-.44.04h-.27l.01-2.12-.01-2.44a3.67 3.67 0 0 1 .4-1.89 3.72 3.72 0 0 1 1.28-1.38c1-.62 1.9-.57 1.7-.74-.1-.05-.5-.2-1.28-.05-.74.15-2.04.66-2.83 2.3v-.1c-.2.5-.32.98-.34 1.43-.03.44-.02.78-.02 1.14.01.7.04 1.33.1 2-.1.1-.1.5-.08.92.01.2.01.43.02.62l-.01.74-.01-.06.03.64a25.63 25.63 0 0 1 1.24 0l.8.04c.52.03 1.04.04 1.53-.01-.04.01-.07.06-.33.06.18 0 .37-.01.56-.01l.15 1.85-.02-.03.07.94-.04-.16a64.62 64.62 0 0 1 .27 3.97l.08-.1c.06 2.63.3 3.58.32 5.96l-.02-.03c.1.7.15 1.34.2 1.94 0 .07.01.14.01.2l-.07.24c-.08.07.05.62.13 1.08.03 1.04.04 2.06.15 3.27l.06 1.2c0 .03.01.07.01.1 0 .04 0 .08.01.12l.16 2.17h.04c.05.34.1.56.17.57.06 1.04 0 .85-.06 1 .07-.01.16.9.2 1.7l-.05-.37.16 2.32.1-.46c.03 1.23-.15.32-.05 1.5l.12-.02c.08 1.7-.04 2.7-.03 4.36l.22 3.65 9.5-.1c2.96-.03 5.85-.03 8.56.05l.28.1c.12.13 1.76-.2 2-.07l.74-.06c.2.02.65.05.28.08.7 0 .7-.02 1.2-.06l.74.08c2.7.06 5-.1 7.86-.06 1.38.07 3.25.08 5.23.07l6.4-.1.12-2.95c.1-3.87.6-8.17.88-12.32.16-.98.3-2.47.3-2.47.45-4.42.34-6.72.6-12l.33-4.16.14-1.7.08-1.18.07-.03c1.16-.15.62.15 1.9-.05-.5.01-.24-.16.4-.13l-.16.07.5-.03c.16-.01.3-.01.5 0-.3.04-.15.1.67.1v-.08.1l-.47.08.5-.04-.1-1.2c.01-.14.01-.27.02-.4l.01-.32v-.66c0-.43 0-.8.05-.95 0 0 .05-1.6-.06-1.96.07.32.1-.56.18-.3-.03-.18-.08-.7-.2-1.17-.1-.48-.32-.93-.4-1.2l.06.1c-.96-1.95-2.83-2.52-4.52-2.52.07.1-.78.04-.57.15-1.68.1-3.06-.23-3.67.12-.76.02-.9-.08-1.3-.1l.18-.02-2.9.02c-.53.03-.6.2-1.57.15.3-.06-.08-.05-.44-.05.23-.01.3-.03-.17-.08-.07.02-.17.03-.26.04 0-.01-.02-.01-.01-.02-.6.02-.5.04-.2.05-.01.01.01.02.1.04-.62-.08-1.72.01-1.8-.1-1.08.02-1.98.06-2.85.1l2.56-17.93a7.32 7.32 0 0 0 1.63.45c1.85.25 3.5-.36 4.66-1.06.94-.5 1.5-.93 1.93-1.24l1.04-.7a25.29 25.29 0 0 0 .98-.84c.43-.36.92-.9 1.62-1.76.42-.4.76-.84 1.14-1.26.6-.73.72-1.04.9-1.35.17-.32.4-.63.95-1.5 0 .15 1.4-2.2.83-1.13 1.24-1.97 2.3-4.06 3.6-6.2 1.27-2.12 2.82-4.4 5.27-5.87.93-.72 3.94-1.68 4.8-2.15.1 0 1.52-.57 2.52-.98 1-.42 1.6-.65.03.08-.27.13-.76.32-.73.3l-.35.22c3.28-1.2 5.82-2.56 8.8-4.36-.9.53-2.1 1.2-1.3.7.94-.54 1.86-1.1 2.75-1.72l-.53.43c1.36-.87 2.64-1.9 3.8-3.04-.18.14-.35.3-.53.42l1.12-1.08c.32-.33.6-.65.87-.97.3-.3.53-.7.8-1.1.3-.4.56-.9.86-1.52.54-1.1-1.2 1.95.01-.3 1.5-2.87 2.6-7.43 4.03-11.05-.2.3.15-.68.6-1.65l.12-.08c.42-.93.7-1.46.93-1.78.2-.33.32-.48.45-.6.28-.25.42-.6 1.76-2.04l.43-.56c1.33-1.22 1.84-1.36 2.3-1.64.5-.28 1.06-.56 2.78-1.8-1.4.9-.72.34.96-.85l-.38.36c.9-.7 1.23-.9 1.8-1.4-.5.47-.2.3 1.07-.78l-.8.8c.8-.7 1.6-1.42 2.3-2.22.93-.8 1.97-2.03 2.83-3.15l1.12-1.56c.3-.47.52-.84.67-1.04l.44-.73c.24-.46.54-1.1.87-1.77.55-1.25 1.02-2.65 1.17-3.35-.05.38.53-1.55.5-1.24.1-.7.4-1.98.5-3.3l.12-1.03.06-1 .1-1.6.01.3.01-2.18-.13-2.04c-.13-1.32-.3-2.58-.45-3.76-.27-2.37-.4-4.73.2-7.2-.06.1.05-.5.18-1.04.17-.53.33-1 .16-.7.8-2.52 2.5-4.36 3.95-5.74 1.46-1.4 2.74-2.38 3.4-3.14 1.93-1.56 2.36-1.76 3.38-2.55l-.45.38c3.64-2.9 4.72-3.9 6.9-6.64.52-.7.8-1.14 1.1-1.77.3-.62.8-1.33 1.4-2.8-.18.48-.14.43.01.1.13-.32.42-.87.56-1.45-.2.73-.25.97.23-.52.04-.22.13-.55.2-.85.01-.01.03-.07.03-.04.34-1.96.23-1.62.1-.7 0-.05-.03.03-.1.3.1-.5.2-1.1.3-1.74.08-.63.06-1.3.1-1.9-.06-1.2-.22-2.18-.16-2.32zM177.93 478.3l-.02-.12c.05 1-.06 1.3-.07 2.4-.02.06-.03.14-.03.13.02.44-.01 1.04-.04 1.66l-.1 1.38c-.13 0-.24 0-.33.01l-.04-.07-2.13.02.8.01c-.28.18-1.64-.12-3.2 0-1.47-.02-2.98.38-4.5.3-.73.1.64-.14-.45-.07-.04-.1.5-.06.23-.14-1.07.05-1.75-.1-3.07-.03l-.05-.07c-1.72.14-3.25-.1-4.4.03-1.77.06-1.2-.22-3.04-.08l-.72-.1c-.8-.02-.57.12-1.44.07.05-.06-1.1-.05-.6-.1-1.98-.1-4.03.14-6.64-.03-.57.12-1.88.05-2.3.14-.07-.05-2.64-.01-1.16-.13.13-.01.35-.01.34.01l.18-.07c-1.5-.14-2.7.08-4.18.05.44.02 1.02.02.63.07l-1.37-.01.3-.06-2.04-.04.28.08c-.5-.02-.82-.06-1.17-.08l-.26-.01h-.22c-.03 0-.06.01-.13.04l-.01-.01c-.03-.02-.05.02-.06.08.02.02.1.04-.05.06 0-.02-.01-.03-.01-.05 0-.06.01-.12.01-.18 0-.17-.01-.35-.01-.54l-.03-1.27-.1-2.66c-.08.16-.1-.3-.15-.76l.07-.06c-.2-1.8.12-.67-.06-2.46l-.12-.3c-.24-1.6.1-.88-.2-2.67.05.7-.14.34-.16-.53l.1.22c-.04-.48-.08-.64-.1-.97.06.3.1.15.06-.56l.12.47-.12-.76.94-.02h1.7c2.85.16 8.23.01 11.32-.07 4.35-.2 9.4.32 13.87.1.15.02.52-.02.52-.04h4.08s7.43.02 9.72-.2c-.18 2.7-.43 6.3-.38 8zm1.74-28.05l-.02.1c.03 0 .06.38.05.64-.08.24-.16-.03-.2.82-.07.46-.08 1.2-.1 1.9-.01.06-.01.12-.02.2l-.02-.12c-.23 2.67-.34 4.35-.3 6.2-.2.28-.15 2.2-.24 2.8v-.06c.04 1.64-.3 3.35-.28 4.93-.01-.06-.06-.1-.04-.46-.04 1.07-.1 2.5-.2 2.74-.78-.13-2.33-.28-5-.47l.1-.03c-2.23-.07-3.64-.08-5.18.06-.24-.17-1.83-.02-2.36-.07l.05-.01c-1.36.13-2.8-.1-4.12.01.05-.01.08-.06.38-.06-.96.02-2.26.06-2.34-.04-2.28.03-5.47-.02-6.93.14l.1-.03c-.83.1-1.08.02-2 .07-.05-.01-.12-.02-.1-.03-.9.1-2.65.02-3.4.06l-.05-.07-1.8.02h.68c-.23.18-1.37-.12-2.68 0-1.23-.02-2.5.38-3.77.3-.6.1.54-.14-.37-.07-.03-.1.42-.06.2-.14-.9.05-1.46-.1-2.56-.03l-.04-.07a7.81 7.81 0 0 1-.83.04c-.1 0-.16 0-.23-.01-.03-1.02-.17-2.33-.1-2.7 0 0-.08-2.24-.22-2.74.1.44.05-.8.15-.44-.1-.57-.28-2.28-.24-2.97l.02.13c-.06-2.24-.3-3.9-.38-5.83l.03.06c.06-1.25-.2-2.25-.26-3.48 0 .37.03.85-.04.53l-.06-1.14.08.23-.07-1.7-.06.24c-.01-.42.02-.7.03-1 .01-.27-.02-.74-.07-.7-.07-.15-.1.2-.13-.1 0-.03.01-.06.01-.1.1.01.18.03.2.05h.35l.72.03 2 .06c-.13-.1.25-.08.64-.1l.05.07c1.5-.1.55.16 2.05.08l.26-.1c1.35-.15.73.15 2.23-.05-.6.01-.28-.16.45-.13l-.2.07c.4-.02.54-.05.8-.03-.24.04-.13.1.47.1l-.4.1 1.12-.13c.87.08 2.24-.02 2.6.08 0 0 1.87.05 2.3-.06-.38.07.65.1.36.18.48-.08 1.9-.14 2.48-.06l-.1.01c2.12.1 3.62-.12 5.52-.01-.1-.1.92-.04.67-.15.18-.01.35-.01.52-.02l.34.07c.34.01.42-.04.56-.07.18 0 .35.01.52.02.17.03.67.03.37.08 1.42.1 2.87-.14 4.74.03.4-.12 1.3-.05 1.63-.14h.03c.14.05 1.84.01.8.12-.1.01-.25.01-.24-.01l-.13.07c1.06.14 1.93-.08 3-.05-.3-.02-.73-.02-.45-.07l.98.01-.2.06 1.46.04-.2-.08c.7.04.96.17 1.77.06.36-.06-.68-.1.08-.13l3.6.15c-.1-.1.2-.08.55-.1l.04.07c.36-.03.55-.03.67-.01.01.38-.03 1.28-.12 2l.07.36zm-24.45-12.6c-.36 0-.57-.07-.86-.04l-.04-.1c.14.1-.95.1-1.1.13-.2-.07.57-.06.66-.1l-2.2.01c-.78.07.14.1-.23.17-.7.02-1.36.08-2.15.03l.25.08a28.01 28.01 0 0 1-1.48.04c-.03-.3-.75-6.74-4.6-14.36a5.84 5.84 0 0 0 .59-.51c-.17.1-.33.2-.5.26.57-.46.65-.53.73-.57.1-.04.17-.08.55-.68l-.1-.05c.3-.4.52-.8.72-1.17l.3-.54.24-.54c.24-.5.4-1 .58-1.58a30.2 30.2 0 0 1 .73.84c-.17-.04 1.96 2.13.98 1.2.9.94 1.9 1.84 3.1 2.55 1.13.68 2.6 1.1 4.07.87l1.27 13.9c-.54.01-1.16.06-1.65.1.44.02.3.06.13.08zm8.2-.08v.08l-.7.03c-.17-.06.18-.1.6-.13l-1.05.02c.01-.08.6-.05.93-.06-1.26-.13-2.6.13-4.06.01l-.3.06-.1-.01c0 .03-.33.08-.54.1-.18-.06-.05-.13-.45-.15l-1.3-14.18c1.23-.44 2.3-1.22 3.22-2.2 1.08-1.17 1.98-2.54 2.84-4l.28-.6c.2.25.4.5.63.76.01.05.03.1.04.15l.6.54a23.25 23.25 0 0 0 .61.44c.4.28.82.55 1.25.8.03.02.07.03.1.05l-2.62 18.33z"/><path d="M98.33 248.85l.02.02c.02-.01.03-.01-.02-.02zm67.5 117.48c.02.03.03.05.05.07l.22.26-.27-.33zm-8.14-34.25v.07c0 .1.02.18.02.27l-.02-.34zm37.47-28.9l-2.48 1.34c-.24.14-.32.44-.18.68.1.16.26.25.43.25.08 0 .17-.02.25-.07l2.44-1.3a.49.49 0 0 0 .22-.67c-.13-.24-.44-.34-.68-.22zM140.74 448h0l-.13.06z"/></g><defs ><path id="B" d="M538.67 203.56h-13.5c-1.72 0-3.1-1.4-3.1-3.1v-13.5c0-1.72 1.4-3.1 3.1-3.1h13.5c1.72 0 3.1 1.4 3.1 3.1v13.5c0 1.72-1.4 3.1-3.1 3.1z"/><path id="C" d="M155.36 456.65h-1.95c-.28 0-.5.22-.5.5s.22.5.5.5h1.95c.28 0 .5-.22.5-.5a.5.5 0 0 0-.5-.5z"/></defs></svg>