<svg xmlns="http://www.w3.org/2000/svg" xmlns:xlink="http://www.w3.org/1999/xlink" width="585.499" height="434.838" viewBox="0 0 585.499 434.838">
  <defs>
    <linearGradient id="linear-gradient" x1="0.5" x2="0.5" y2="1" gradientUnits="objectBoundingBox">
      <stop offset="0.273" stop-color="#d69072"/>
      <stop offset="0.663" stop-color="#b5775a"/>
    </linearGradient>
  </defs>
  <g id="_5836" data-name="5836" transform="translate(-232.8 -229.17)">
    <g id="Group_3162" data-name="Group 3162" transform="translate(267.65 349.481)">
      <path id="Path_5316" data-name="Path 5316" d="M859.662,888.209l-68.9,27.672L705.47,703.505l58.24-23.39a11.487,11.487,0,0,1,14.94,6.379Z" transform="translate(-613.899 -679.207)" fill="#f4a640"/>
      <g id="Group_3160" data-name="Group 3160" transform="translate(89.06 15.585)">
        <rect id="Rectangle_198" data-name="Rectangle 198" width="133.985" height="188.382" transform="translate(0 23.394) rotate(-10.056)" fill="#adcfd8"/>
        <rect id="Rectangle_199" data-name="Rectangle 199" width="59.831" height="1.343" transform="translate(39.69 35.343) rotate(-10.056)" fill="#55769f"/>
        <rect id="Rectangle_200" data-name="Rectangle 200" width="84.97" height="1.343" transform="translate(26.72 34.183) rotate(-10.056)" fill="#55769f"/>
        <rect id="Rectangle_201" data-name="Rectangle 201" width="103.088" height="1.343" transform="translate(20.857 53.006) rotate(-10.056)" fill="#55769f"/>
        <rect id="Rectangle_202" data-name="Rectangle 202" width="103.088" height="1.343" transform="translate(21.986 59.368) rotate(-10.056)" fill="#55769f"/>
        <rect id="Rectangle_203" data-name="Rectangle 203" width="103.088" height="1.343" transform="translate(24.241 72.088) rotate(-10.056)" fill="#55769f"/>
        <rect id="Rectangle_204" data-name="Rectangle 204" width="103.088" height="1.343" transform="translate(25.371 78.45) rotate(-10.056)" fill="#55769f"/>
        <rect id="Rectangle_205" data-name="Rectangle 205" width="103.088" height="1.343" transform="translate(26.497 84.81) rotate(-10.056)" fill="#55769f"/>
        <rect id="Rectangle_206" data-name="Rectangle 206" width="103.088" height="1.343" transform="translate(31.459 112.788) rotate(-10.056)" fill="#55769f"/>
        <rect id="Rectangle_207" data-name="Rectangle 207" width="103.088" height="1.343" transform="translate(32.628 119.386) rotate(-10.056)" fill="#55769f"/>
        <rect id="Rectangle_208" data-name="Rectangle 208" width="103.088" height="1.343" transform="translate(33.798 125.98) rotate(-10.056)" fill="#55769f"/>
        <rect id="Rectangle_209" data-name="Rectangle 209" width="103.088" height="1.343" transform="translate(34.965 132.577) rotate(-10.056)" fill="#55769f"/>
        <rect id="Rectangle_210" data-name="Rectangle 210" width="103.088" height="1.343" transform="translate(36.138 139.174) rotate(-10.056)" fill="#55769f"/>
        <rect id="Rectangle_211" data-name="Rectangle 211" width="103.088" height="1.343" transform="translate(37.306 145.77) rotate(-10.056)" fill="#55769f"/>
        <rect id="Rectangle_212" data-name="Rectangle 212" width="103.088" height="1.343" transform="translate(38.476 152.365) rotate(-10.056)" fill="#55769f"/>
      </g>
      <g id="Group_3161" data-name="Group 3161" transform="translate(72.406 10.983)">
        <rect id="Rectangle_213" data-name="Rectangle 213" width="133.985" height="188.382" transform="matrix(0.967, -0.255, 0.255, 0.967, 0, 34.099)" fill="#daeef7"/>
        <rect id="Rectangle_214" data-name="Rectangle 214" width="59.831" height="1.343" transform="matrix(0.967, -0.255, 0.255, 0.967, 40.536, 42.768)" fill="#55769f"/>
        <rect id="Rectangle_215" data-name="Rectangle 215" width="84.97" height="1.343" transform="matrix(0.967, -0.255, 0.255, 0.967, 27.512, 42.672)" fill="#55769f"/>
        <rect id="Rectangle_216" data-name="Rectangle 216" width="103.088" height="1.343" transform="matrix(0.967, -0.255, 0.255, 0.967, 23.209, 61.91)" fill="#55769f"/>
        <rect id="Rectangle_217" data-name="Rectangle 217" width="103.088" height="1.343" transform="matrix(0.967, -0.255, 0.255, 0.967, 24.852, 68.158)" fill="#55769f"/>
        <rect id="Rectangle_218" data-name="Rectangle 218" width="103.088" height="1.343" transform="matrix(0.967, -0.255, 0.255, 0.967, 28.142, 80.654)" fill="#55769f"/>
        <rect id="Rectangle_219" data-name="Rectangle 219" width="103.088" height="1.343" transform="matrix(0.967, -0.255, 0.255, 0.967, 29.786, 86.903)" fill="#55769f"/>
        <rect id="Rectangle_220" data-name="Rectangle 220" width="103.088" height="1.343" transform="matrix(0.967, -0.255, 0.255, 0.967, 31.429, 93.151)" fill="#55769f"/>
        <rect id="Rectangle_221" data-name="Rectangle 221" width="103.088" height="1.343" transform="matrix(0.967, -0.255, 0.255, 0.967, 38.66, 120.636)" fill="#55769f"/>
        <rect id="Rectangle_222" data-name="Rectangle 222" width="103.088" height="1.343" transform="matrix(0.967, -0.255, 0.255, 0.967, 40.367, 127.112)" fill="#55769f"/>
        <rect id="Rectangle_223" data-name="Rectangle 223" width="103.088" height="1.343" transform="matrix(0.967, -0.255, 0.255, 0.967, 42.071, 133.59)" fill="#55769f"/>
        <rect id="Rectangle_224" data-name="Rectangle 224" width="103.088" height="1.343" transform="matrix(0.967, -0.255, 0.255, 0.967, 43.777, 140.068)" fill="#55769f"/>
        <rect id="Rectangle_225" data-name="Rectangle 225" width="103.088" height="1.343" transform="matrix(0.967, -0.255, 0.255, 0.967, 45.481, 146.549)" fill="#55769f"/>
        <rect id="Rectangle_226" data-name="Rectangle 226" width="103.088" height="1.343" transform="matrix(0.967, -0.255, 0.255, 0.967, 47.187, 153.028)" fill="#55769f"/>
        <rect id="Rectangle_227" data-name="Rectangle 227" width="103.088" height="1.343" transform="matrix(0.967, -0.255, 0.255, 0.967, 48.891, 159.505)" fill="#55769f"/>
      </g>
      <path id="Path_5317" data-name="Path 5317" d="M582.719,898.494,444,954.2,363.1,752.751l116.563-71.9a12.411,12.411,0,0,1,18.032,5.938Z" transform="translate(-363.1 -678.994)" fill="url(#linear-gradient)"/>
    </g>
    <g id="Group_3163" data-name="Group 3163" transform="translate(272.093 565.544)">
      <path id="Path_5318" data-name="Path 5318" d="M411.41,1513.367l-19.79-.359c-6.871-12.45-11.91-23.277-11.91-23.277,22.349-5.151,41.211-3.036,56.927,3l8.66,21.036,1.854-16.2c38.945,21.017,54.993,65.507,54.993,65.507s-68.829-7.331-83.419-14.117c-5.633-2.621-12.734-12.049-19.327-22.635C404.67,1521.305,411.41,1513.367,411.41,1513.367Z" transform="translate(-379.71 -1486.822)" fill="#dbead3"/>
      <path id="Path_5319" data-name="Path 5319" d="M379.71,1497.7s88.367,37.188,122.431,73.349c0,0-68.829-7.331-83.419-14.117-5.633-2.621-12.734-12.049-19.327-22.635,5.274-5.023,12.014-12.961,12.014-12.961l-19.79-.358C384.752,1508.527,379.71,1497.7,379.71,1497.7Z" transform="translate(-379.71 -1494.791)" fill="#93c9c7"/>
      <path id="Path_5320" data-name="Path 5320" d="M390.25,1682.993a90.722,90.722,0,0,1,35.519-12.67c3.4,4.234,7.585,9.211,7.585,9.211l.441-9.926c44.573-2.03,81.506,27.835,81.506,27.835-25.815,16.27-47.836,20.758-65.876,19.3-1.07-3.472-2.581-8.652-2.581-8.652l-3.185,7.973a77.864,77.864,0,0,1-22.868-7.344c1.688-4.135,3.466-8.864,3.466-8.864l-9.607,5.456A84.177,84.177,0,0,1,390.25,1682.993Z" transform="translate(-387.431 -1620.648)" fill="#dbead3"/>
      <path id="Path_5321" data-name="Path 5321" d="M449.433,1750.659c-1.07-3.472-2.581-8.652-2.581-8.652l-3.185,7.973a77.86,77.86,0,0,1-22.868-7.344c1.688-4.135,3.466-8.864,3.466-8.864l-9.607,5.456a84.218,84.218,0,0,1-24.4-22.325c51.933-6,125.049,14.454,125.049,14.454C489.491,1747.626,467.471,1752.111,449.433,1750.659Z" transform="translate(-387.438 -1654.557)" fill="#b1cbc0"/>
    </g>
    <path id="Path_5322" data-name="Path 5322" d="M1227.444,615.887l15.952-11.715c-1.578-14.133-3.71-25.882-3.71-25.882-21.223,8.693-35.407,21.309-44.752,35.313l5.071,22.175-10.864-12.156c-19.672,39.641-7.1,85.235-7.1,85.235s51.973-45.715,59.97-59.679c3.089-5.392,3.445-17.187,2.717-29.64C1237.527,618.482,1227.444,615.887,1227.444,615.887Z" transform="translate(-692.457 -255.744)" fill="#02ccc0"/>
    <path id="Path_5323" data-name="Path 5323" d="M1250.538,578.29s-50.695,81.373-57.638,130.567c0,0,51.973-45.715,59.97-59.679,3.089-5.392,3.445-17.187,2.717-29.64-7.205-1.057-17.291-3.648-17.291-3.648l15.951-11.715C1252.67,590.04,1250.538,578.29,1250.538,578.29Z" transform="translate(-703.31 -255.744)" fill="#06bfad"/>
    <path id="Path_5324" data-name="Path 5324" d="M1271.225,765.83a90.774,90.774,0,0,0-36.319,10.156c-.337,5.421-.877,11.9-.877,11.9l-6.088-7.85c-37.568,24.069-50.491,69.776-50.491,69.776,30.472-1.613,51.045-10.661,64.934-22.261-1.131-3.453-2.886-8.556-2.886-8.556l7.205,4.673a77.743,77.743,0,0,0,14.432-19.2c-3.766-2.4-7.946-5.237-7.946-5.237l11-1.089A84.175,84.175,0,0,0,1271.225,765.83Z" transform="translate(-691.992 -393.124)" fill="#02ccc0"/>
    <path id="Path_5325" data-name="Path 5325" d="M1242.394,827.56c-1.131-3.453-2.886-8.556-2.886-8.556l7.205,4.673a77.75,77.75,0,0,0,14.432-19.2c-3.766-2.4-7.946-5.237-7.946-5.237l11-1.089a84.208,84.208,0,0,0,7.037-32.312c-45.87,25.077-93.772,83.983-93.772,83.983C1207.932,848.208,1228.5,839.159,1242.394,827.56Z" transform="translate(-691.999 -393.131)" fill="#06bfad"/>
    <g id="Group_3164" data-name="Group 3164" transform="translate(450.482 428.98)">
      <path id="Path_5326" data-name="Path 5326" d="M1302.949,977.926h9.487a9.911,9.911,0,0,0-5.606-1.7H1069.192c-12.432,0-22.512,8.933-22.512,19.955v12.675c0,11.019,10.078,19.955,22.512,19.955l234.979-.072Z" transform="translate(-1046.68 -976.23)" fill="#93c9c7"/>
      <path id="Path_5327" data-name="Path 5327" d="M1107.233,1008.86V996.185c0-11.022,10.078-19.955,22.512-19.955h-5.1c-12.432,0-22.512,8.933-22.512,19.955v12.675c0,11.019,10.078,19.955,22.512,19.955l5.036,0C1117.276,1028.781,1107.233,1019.861,1107.233,1008.86Z" transform="translate(-1087.299 -976.23)" fill="#feb546"/>
      <path id="Path_5328" data-name="Path 5328" d="M1315.313,1008.86V996.185c0-11.022,10.078-19.955,22.512-19.955h-5.1c-12.432,0-22.512,8.933-22.512,19.955v12.675c0,11.019,10.078,19.955,22.512,19.955l5.036,0C1325.356,1028.781,1315.313,1019.861,1315.313,1008.86Z" transform="translate(-1239.726 -976.23)" fill="#feb546"/>
      <path id="Path_5329" data-name="Path 5329" d="M1441.448,976.4c-11.891,0-21.528,8.543-21.528,19.083v14.325c0,10.541,9.639,19.084,21.528,19.084h147.936v-3.2h-.613l-37.608-3.156-7.6-26.433s14.67-14.609,15.628-14.983,29.581-1.519,29.581-1.519l.613-.005V976.4Z" transform="translate(-1320.093 -976.355)" fill="#8fc9c9"/>
      <path id="Path_5330" data-name="Path 5330" d="M1592.9,1011.328c0-15.457,9.011-22.948,9.011-22.948h-144.32c-10.921,0-19.773,7.847-19.773,17.53v11.027c0,9.679,8.853,17.529,19.773,17.529h144.32S1592.9,1030.789,1592.9,1011.328Z" transform="translate(-1333.205 -985.13)" fill="#daeef7"/>
      <path id="Path_5331" data-name="Path 5331" d="M1437.81,1005.917v11.027a15.777,15.777,0,0,0,.575,4.2c4.868-10.557,14.2-20.726,31.956-23.994,41.462-7.633,131.562-8.765,131.562-8.765h-144.32C1446.663,988.387,1437.81,996.237,1437.81,1005.917Z" transform="translate(-1333.198 -985.138)" fill="#daeef7"/>
    </g>
    <g id="Group_3165" data-name="Group 3165" transform="translate(412.791 533.66)">
      <path id="Path_5332" data-name="Path 5332" d="M1195.807,1369.734h10.736a10.475,10.475,0,0,0-6.344-2.124H931.239a25.232,25.232,0,0,0-25.478,24.978v15.866a25.232,25.232,0,0,0,25.478,24.978l265.951-.088Z" transform="translate(-905.76 -1367.61)" fill="#284c7a"/>
      <path id="Path_5333" data-name="Path 5333" d="M1352.566,1367.823a24.131,24.131,0,0,0-24.366,23.887v17.931a24.131,24.131,0,0,0,24.366,23.887H1520v-4.012h-.693l-42.567-3.953-8.6-33.088s16.6-18.284,17.687-18.757,33.481-1.9,33.481-1.9l.693-.008v-3.988H1352.566Z" transform="translate(-1215.213 -1367.764)" fill="#55769f"/>
      <path id="Path_5334" data-name="Path 5334" d="M1523.975,1411.553c0-19.345,10.2-28.723,10.2-28.723H1370.831a22.165,22.165,0,0,0-22.381,21.94v13.8a22.164,22.164,0,0,0,22.381,21.94h163.342S1523.975,1435.911,1523.975,1411.553Z" transform="translate(-1230.047 -1378.759)" fill="#daeef7"/>
      <path id="Path_5335" data-name="Path 5335" d="M1348.44,1404.763v13.8a21.6,21.6,0,0,0,.652,5.261c5.51-13.215,16.067-25.941,36.166-30.033,46.926-9.554,148.9-10.971,148.9-10.971H1370.821A22.17,22.17,0,0,0,1348.44,1404.763Z" transform="translate(-1230.04 -1378.752)" fill="#daeef7"/>
    </g>
    <g id="Group_3166" data-name="Group 3166" transform="translate(389.18 481.432)">
      <path id="Path_5336" data-name="Path 5336" d="M843.2,1174.025H832.46a12.374,12.374,0,0,1,6.347-1.685h269.064c14.076,0,25.489,8.874,25.489,19.819v12.589c0,10.947-11.413,19.819-25.489,19.819l-266.055-.07Z" transform="translate(-828.453 -1172.34)" fill="#02ccc0"/>
      <path id="Path_5337" data-name="Path 5337" d="M984.981,1172.51c13.461,0,24.376,8.486,24.376,18.955v14.226c0,10.468-10.912,18.955-24.376,18.955H817.48v-3.183h.693l42.583-3.135,8.607-26.254s-16.612-14.507-17.7-14.882-33.494-1.508-33.494-1.508l-.693-.005v-3.164h167.5Z" transform="translate(-817.48 -1172.465)" fill="#06bfad"/>
      <path id="Path_5338" data-name="Path 5338" d="M830.161,1207.211c0-15.35-10.2-22.791-10.2-22.791H983.366c12.365,0,22.389,7.794,22.389,17.409v10.95c0,9.615-10.024,17.409-22.389,17.409H819.96S830.161,1226.537,830.161,1207.211Z" transform="translate(-819.297 -1181.189)" fill="#daeef7"/>
      <path id="Path_5339" data-name="Path 5339" d="M1005.748,1201.812v10.95a13.82,13.82,0,0,1-.653,4.175c-5.512-10.484-16.074-20.584-36.182-23.831-46.945-7.583-148.963-8.706-148.963-8.706H983.356C995.723,1184.4,1005.748,1192.2,1005.748,1201.812Z" transform="translate(-819.289 -1181.174)" fill="#daeef7"/>
      <path id="Path_5340" data-name="Path 5340" d="M1703.379,1204.749v-12.589c0-10.945-11.412-19.819-25.489-19.819h25.551c14.077,0,25.489,8.874,25.489,19.819v12.589c0,10.947-11.412,19.819-25.489,19.819l-25.211-.008C1692.148,1224.42,1703.379,1215.607,1703.379,1204.749Z" transform="translate(-1447.763 -1172.34)" fill="#55769f" opacity="0.5"/>
    </g>
    <path id="Path_5341" data-name="Path 5341" d="M764.959,1616.093H753.38a12.981,12.981,0,0,1,6.842-1.883h290.057c15.176,0,27.479,9.915,27.479,22.143v14.066c0,12.231-12.3,22.143-27.479,22.143l-286.813-.078Z" transform="translate(-381.345 -1014.594)" fill="#feb546"/>
    <path id="Path_5342" data-name="Path 5342" d="M917.806,1614.41c14.512,0,26.278,9.482,26.278,21.178v15.9c0,11.7-11.766,21.178-26.278,21.178H737.24v-3.555h.746l45.9-3.5,9.278-29.333s-17.907-16.211-19.075-16.628-36.107-1.685-36.107-1.685l-.746-.005v-3.536H917.806Z" transform="translate(-369.521 -1014.741)" fill="#f4a640"/>
    <path id="Path_5343" data-name="Path 5343" d="M750.9,1653.165c0-17.15-11-25.465-11-25.465H916.056c13.33,0,24.136,8.708,24.136,19.452v12.236c0,10.744-10.805,19.453-24.136,19.453H739.9S750.9,1674.76,750.9,1653.165Z" transform="translate(-371.47 -1024.476)" fill="#daeef7"/>
    <path id="Path_5344" data-name="Path 5344" d="M940.192,1647.16V1659.4a15.9,15.9,0,0,1-.7,4.664c-5.94-11.715-17.329-23-39-26.626-50.609-8.47-160.584-9.725-160.584-9.725H916.056C929.386,1627.707,940.192,1636.416,940.192,1647.16Z" transform="translate(-371.47 -1024.483)" fill="#daeef7"/>
    <path id="Path_5345" data-name="Path 5345" d="M958.007,1837.321H468.818a2.619,2.619,0,0,1-2.618-2.619v-1.2a2.619,2.619,0,0,1,2.618-2.618H958.01a2.617,2.617,0,0,1,2.618,2.618v1.2A2.622,2.622,0,0,1,958.007,1837.321Z" transform="translate(-170.974 -1173.313)" fill="#c4dfe8"/>
    <path id="Path_5346" data-name="Path 5346" d="M454.99,889.977l94.441-54.017L562.2,861.243,465.56,912.369Z" transform="translate(-162.763 -444.497)" fill="#ffd593"/>
    <path id="Path_5347" data-name="Path 5347" d="M1102.472,462.64s-.746,7.344-6.542,7.853c5.8.508,6.542,7.853,6.542,7.853s.746-7.345,6.542-7.853C1103.219,469.985,1102.472,462.64,1102.472,462.64Z" transform="translate(-632.276 -171.026)" fill="#02ccc0"/>
    <path id="Path_5348" data-name="Path 5348" d="M722.1,251.67s-.992,9.784-8.714,10.46c7.722.677,8.714,10.46,8.714,10.46s.992-9.784,8.714-10.46C723.1,261.454,722.1,251.67,722.1,251.67Z" transform="translate(-352.05 -16.482)" fill="#feb546"/>
    <path id="Path_5349" data-name="Path 5349" d="M578.719,578.84s-.666,6.569-5.849,7.024c5.183.455,5.849,7.024,5.849,7.024s.666-6.569,5.849-7.024C579.385,585.409,578.719,578.84,578.719,578.84Z" transform="translate(-249.114 -256.147)" fill="#ff5b7e"/>
    <path id="Path_5350" data-name="Path 5350" d="M2288.341,1164.88s-.992,9.784-8.711,10.46c7.722.677,8.711,10.46,8.711,10.46s.992-9.784,8.714-10.46C2289.333,1174.664,2288.341,1164.88,2288.341,1164.88Z" transform="translate(-1499.38 -685.443)" fill="#ff5b7e"/>
    <path id="Path_5351" data-name="Path 5351" d="M241.514,842.81s-.992,9.784-8.714,10.46c7.722.677,8.714,10.46,8.714,10.46s.992-9.784,8.714-10.46C242.5,852.594,241.514,842.81,241.514,842.81Z" transform="translate(0 -449.515)" fill="#02ccc0"/>
    <path id="Path_5352" data-name="Path 5352" d="M2365.451,803.7s-.992,9.784-8.711,10.46c7.719.677,8.711,10.46,8.711,10.46s.993-9.784,8.714-10.46C2366.444,813.484,2365.451,803.7,2365.451,803.7Z" transform="translate(-1555.867 -420.865)" fill="#02ccc0"/>
    <path id="Path_5353" data-name="Path 5353" d="M1464.894,229.17s-.992,9.784-8.714,10.46c7.721.677,8.714,10.46,8.714,10.46s.992-9.784,8.714-10.46C1465.886,238.954,1464.894,229.17,1464.894,229.17Z" transform="translate(-896.172)" fill="#ff5b7e"/>
    <path id="Path_5354" data-name="Path 5354" d="M2094.187,534.66s-.54,6.178-4.737,6.6c4.2.428,4.737,6.6,4.737,6.6s.54-6.178,4.734-6.6C2094.727,540.836,2094.187,534.66,2094.187,534.66Z" transform="translate(-1360.066 -223.783)" fill="#feb546"/>
  </g>
</svg>
