<svg xmlns="http://www.w3.org/2000/svg" width="593.45" height="428.454" viewBox="0 0 593.45 428.454">
  <g id="_10088" data-name="10088" transform="translate(-178.451 -107.925)">
    <g id="Group_57" data-name="Group 57" transform="translate(178.451 107.925)">
      <path id="Path_3890" data-name="Path 3890" d="M320.088,536.379l189.242-1.156,50.444-.017,16.711-.007,50.54-.017,230.9-.074s52.812-79.745-3.6-155.483c-58.49-78.527-86.93-14.575-104.91-125.111C704.157-23.73,256.718,138.212,374.076,374.981,416.334,460.233,290.9,414.921,320.088,536.379Z" transform="translate(-286.912 -107.925)" fill="#ebf3fa"/>
      <g id="Group_21" data-name="Group 21" transform="translate(199.309 354.622)">
        <g id="Group_19" data-name="Group 19" transform="translate(5.768)">
          <path id="Path_3891" data-name="Path 3891" d="M1160.171,1562.146l-1.024-.661a2.92,2.92,0,0,1-.9-3.609l4.7-10.11a2.1,2.1,0,0,1,3.065-1.056l1.466.944a.573.573,0,0,1,.176.708.411.411,0,0,1-.6.207l-1.466-.944a1.275,1.275,0,0,0-1.865.643l-4.7,10.11a1.776,1.776,0,0,0,.546,2.2l1.024.661a1.275,1.275,0,0,0,1.865-.643l3.122-6.711a.411.411,0,0,1,.6-.207.573.573,0,0,1,.176.708l-3.122,6.711A2.1,2.1,0,0,1,1160.171,1562.146Z" transform="translate(-1157.974 -1546.384)" fill="#afcdfb"/>
        </g>
        <g id="Group_20" data-name="Group 20" transform="translate(0 1.209)">
          <path id="Path_3892" data-name="Path 3892" d="M1134.027,1576.457l-1.834-1.183c-1.7-1.1-2.276-3.74-1.277-5.887l7.068-15.2a.411.411,0,0,1,.6-.207.57.57,0,0,1,.176.708l-7.068,15.2a3.611,3.611,0,0,0,.925,4.474l1.834,1.184c1.275.823,2.935.153,3.7-1.492l8.052-17.314a3.611,3.611,0,0,0-.925-4.474.573.573,0,0,1-.176-.708.41.41,0,0,1,.6-.207c1.7,1.1,2.276,3.74,1.277,5.887l-8.05,17.314C1137.929,1576.7,1135.731,1577.557,1134.027,1576.457Z" transform="translate(-1130.425 -1551.289)" fill="#afcdfb"/>
        </g>
      </g>
      <g id="Group_30" data-name="Group 30" transform="translate(144.434 68.016)">
        <path id="Path_3893" data-name="Path 3893" d="M1103.511,629.959H878.342c-5.536,0-10.022-5.283-10.022-11.8V395.621c0-6.518,4.487-11.8,10.022-11.8h225.169c5.536,0,10.022,5.283,10.022,11.8V618.158C1113.535,624.676,1109.046,629.959,1103.511,629.959Z" transform="translate(-868.32 -383.82)" fill="#fff" opacity="0.6"/>
        <path id="Path_3894" data-name="Path 3894" d="M1113.535,411.133H868.32v-18.5c0-4.867,3.35-8.811,7.483-8.811h230.25c4.133,0,7.483,3.944,7.483,8.811Z" transform="translate(-868.32 -383.82)" fill="#699dee"/>
        <g id="Group_22" data-name="Group 22" transform="translate(9.915 10.226)">
          <path id="Path_3895" data-name="Path 3895" d="M915.68,428.566a2.811,2.811,0,1,1,2.774,3.267A3.05,3.05,0,0,1,915.68,428.566Z" transform="translate(-915.68 -425.3)" fill="#dde7fe"/>
          <path id="Path_3896" data-name="Path 3896" d="M971.28,428.566a2.811,2.811,0,1,1,2.774,3.267A3.05,3.05,0,0,1,971.28,428.566Z" transform="translate(-959.639 -425.3)" fill="#dde7fe"/>
          <path id="Path_3897" data-name="Path 3897" d="M1026.87,428.566a2.811,2.811,0,1,1,2.774,3.267A3.05,3.05,0,0,1,1026.87,428.566Z" transform="translate(-1003.591 -425.3)" fill="#dde7fe"/>
        </g>
        <rect id="Rectangle_4" data-name="Rectangle 4" width="69.511" height="81.85" transform="translate(19.433 48.985)" fill="#cde0fb" opacity="0.5"/>
        <path id="Path_3898" data-name="Path 3898" d="M1428.8,588.348h-55.289a2.89,2.89,0,0,1-2.628-3.094h0a2.89,2.89,0,0,1,2.628-3.094H1428.8a2.89,2.89,0,0,1,2.627,3.094h0A2.89,2.89,0,0,1,1428.8,588.348Z" transform="translate(-1265.662 -533.263)" fill="#7c9af2" opacity="0.5"/>
        <path id="Path_3899" data-name="Path 3899" d="M1744.586,571.518H1689.3a2.89,2.89,0,0,1-2.628-3.094h0a2.89,2.89,0,0,1,2.628-3.094h55.289a2.89,2.89,0,0,1,2.627,3.094h0A2.888,2.888,0,0,1,1744.586,571.518Z" transform="translate(-1515.337 -520.583)" fill="#7c9af2" opacity="0.5"/>
        <g id="Group_23" data-name="Group 23" transform="translate(105.216 74.888)" opacity="0.3">
          <path id="Path_3900" data-name="Path 3900" d="M1439.732,691.6h-67.16a1.872,1.872,0,0,1-1.7-2h0a1.872,1.872,0,0,1,1.7-2h67.16a1.872,1.872,0,0,1,1.7,2h0A1.872,1.872,0,0,1,1439.732,691.6Z" transform="translate(-1370.87 -687.59)" fill="#bdd1f9"/>
          <path id="Path_3901" data-name="Path 3901" d="M1748.351,691.6h-17.729a1.872,1.872,0,0,1-1.7-2h0a1.872,1.872,0,0,1,1.7-2h17.729a1.872,1.872,0,0,1,1.7,2h0A1.872,1.872,0,0,1,1748.351,691.6Z" transform="translate(-1653.957 -687.59)" fill="#bdd1f9"/>
          <path id="Path_3902" data-name="Path 3902" d="M1397.921,742.038h-25.339a1.872,1.872,0,0,1-1.7-2h0a1.872,1.872,0,0,1,1.7-2h25.339a1.872,1.872,0,0,1,1.7,2h0A1.872,1.872,0,0,1,1397.921,742.038Z" transform="translate(-1370.878 -725.595)" fill="#bdd1f9"/>
          <path id="Path_3903" data-name="Path 3903" d="M1558.525,742.038H1523.8a1.872,1.872,0,0,1-1.7-2h0a1.872,1.872,0,0,1,1.7-2h34.723a1.872,1.872,0,0,1,1.7,2h0A1.872,1.872,0,0,1,1558.525,742.038Z" transform="translate(-1490.438 -725.595)" fill="#bdd1f9"/>
          <path id="Path_3904" data-name="Path 3904" d="M1748.351,742.038h-17.729a1.872,1.872,0,0,1-1.7-2h0a1.872,1.872,0,0,1,1.7-2h17.729a1.872,1.872,0,0,1,1.7,2h0A1.872,1.872,0,0,1,1748.351,742.038Z" transform="translate(-1653.957 -725.595)" fill="#bdd1f9"/>
          <path id="Path_3905" data-name="Path 3905" d="M1406.956,785.649h-34.384a1.872,1.872,0,0,1-1.7-2h0a1.872,1.872,0,0,1,1.7-2h34.384a1.872,1.872,0,0,1,1.7,2h0A1.869,1.869,0,0,1,1406.956,785.649Z" transform="translate(-1370.87 -758.454)" fill="#bdd1f9"/>
          <path id="Path_3906" data-name="Path 3906" d="M1638.047,785.649h-56.235a1.872,1.872,0,0,1-1.7-2h0a1.872,1.872,0,0,1,1.7-2h56.235a1.872,1.872,0,0,1,1.7,2h0A1.872,1.872,0,0,1,1638.047,785.649Z" transform="translate(-1536.303 -758.454)" fill="#bdd1f9"/>
        </g>
        <g id="Group_24" data-name="Group 24" transform="translate(105.216 114.392)" opacity="0.3">
          <path id="Path_3907" data-name="Path 3907" d="M1439.732,851.839h-67.16a1.872,1.872,0,0,1-1.7-2h0a1.872,1.872,0,0,1,1.7-2h67.16a1.872,1.872,0,0,1,1.7,2h0A1.874,1.874,0,0,1,1439.732,851.839Z" transform="translate(-1370.87 -847.83)" fill="#bdd1f9"/>
          <path id="Path_3908" data-name="Path 3908" d="M1748.351,851.839h-17.729a1.872,1.872,0,0,1-1.7-2h0a1.872,1.872,0,0,1,1.7-2h17.729a1.872,1.872,0,0,1,1.7,2h0A1.874,1.874,0,0,1,1748.351,851.839Z" transform="translate(-1653.957 -847.83)" fill="#bdd1f9"/>
          <path id="Path_3909" data-name="Path 3909" d="M1397.921,902.269h-25.339a1.872,1.872,0,0,1-1.7-2h0a1.872,1.872,0,0,1,1.7-2h25.339a1.872,1.872,0,0,1,1.7,2h0A1.872,1.872,0,0,1,1397.921,902.269Z" transform="translate(-1370.878 -885.827)" fill="#bdd1f9"/>
          <path id="Path_3910" data-name="Path 3910" d="M1558.525,902.269H1523.8a1.872,1.872,0,0,1-1.7-2h0a1.872,1.872,0,0,1,1.7-2h34.723a1.872,1.872,0,0,1,1.7,2h0A1.872,1.872,0,0,1,1558.525,902.269Z" transform="translate(-1490.438 -885.827)" fill="#bdd1f9"/>
        </g>
        <g id="Group_25" data-name="Group 25" transform="translate(31.206 61.186)">
          <path id="Path_3911" data-name="Path 3911" d="M1036.763,632.01h7.179l19.4,52.274h-8.186l-4.47-12.531H1029.84l-4.535,12.531h-7.935Zm11.082,31.659-7.619-20.76-7.556,20.76Z" transform="translate(-1017.37 -632.01)" fill="#bdd1f9"/>
        </g>
        <g id="Group_26" data-name="Group 26" transform="translate(19.433 147.321)">
          <rect id="Rectangle_5" data-name="Rectangle 5" width="38.829" height="8.826" fill="#f99746"/>
          <rect id="Rectangle_6" data-name="Rectangle 6" width="38.829" height="8.826" transform="translate(0 8.828)" fill="#ed7d2b"/>
          <rect id="Rectangle_7" data-name="Rectangle 7" width="38.829" height="8.826" transform="translate(0 17.654)" fill="#474fea"/>
        </g>
        <g id="Group_27" data-name="Group 27" transform="translate(63.887 148.507)">
          <path id="Path_3912" data-name="Path 3912" d="M1196.462,990.021H1175.1a1.779,1.779,0,0,1-1.618-1.906h0a1.779,1.779,0,0,1,1.618-1.906h21.364a1.779,1.779,0,0,1,1.618,1.906h0A1.779,1.779,0,0,1,1196.462,990.021Z" transform="translate(-1173.478 -986.21)" fill="#bdd1f9"/>
          <path id="Path_3913" data-name="Path 3913" d="M1189.256,1017.271h-14.168a1.78,1.78,0,0,1-1.618-1.906h0a1.78,1.78,0,0,1,1.618-1.906h14.168a1.78,1.78,0,0,1,1.618,1.906h0A1.779,1.779,0,0,1,1189.256,1017.271Z" transform="translate(-1173.47 -1006.742)" fill="#bdd1f9"/>
        </g>
        <g id="Group_28" data-name="Group 28" transform="translate(19.433 192.958)">
          <rect id="Rectangle_8" data-name="Rectangle 8" width="38.829" height="18.036" fill="#f99746"/>
          <rect id="Rectangle_9" data-name="Rectangle 9" width="38.829" height="12.898" transform="translate(0 13.584)" fill="#b5453c"/>
          <path id="Path_3914" data-name="Path 3914" d="M961.14,1166.52l13.929,13.779L961.14,1193Z" transform="translate(-961.14 -1166.52)" fill="#474fea"/>
        </g>
        <g id="Group_29" data-name="Group 29" transform="translate(63.887 194.144)">
          <path id="Path_3915" data-name="Path 3915" d="M1196.462,1175.141H1175.1a1.779,1.779,0,0,1-1.618-1.906h0a1.779,1.779,0,0,1,1.618-1.906h21.364a1.779,1.779,0,0,1,1.618,1.906h0A1.779,1.779,0,0,1,1196.462,1175.141Z" transform="translate(-1173.478 -1171.33)" fill="#bdd1f9"/>
          <path id="Path_3916" data-name="Path 3916" d="M1189.256,1202.4h-14.168a1.78,1.78,0,0,1-1.618-1.906h0a1.78,1.78,0,0,1,1.618-1.906h14.168a1.779,1.779,0,0,1,1.618,1.906h0A1.78,1.78,0,0,1,1189.256,1202.4Z" transform="translate(-1173.47 -1191.87)" fill="#bdd1f9"/>
        </g>
      </g>
      <g id="Group_32" data-name="Group 32" transform="translate(317.873 38.43)">
        <path id="Path_3917" data-name="Path 3917" d="M1842.481,394.138s1.011,14.193-1.736,13.978-8.167-6.461-19.109-5.446-24.328,3.836-32.42-13.027,10.349-21.714,10.349-21.714l42.916,26.208Z" transform="translate(-1768.23 -342.261)" fill="#233862"/>
        <path id="Path_3918" data-name="Path 3918" d="M1747.722,314.647l55.132,5.337L1804,317.1l-52.854-45.941-53.39-7.347-1.026,2.586Z" transform="translate(-1696.73 -263.81)" fill="#2b478b"/>
        <g id="Group_31" data-name="Group 31" transform="translate(82.847 97.9)">
          <path id="Path_3919" data-name="Path 3919" d="M2103.666,662.75a2.116,2.116,0,0,0-2.645-1.728,2.6,2.6,0,0,0-1.465,3.114,2.114,2.114,0,0,0,2.642,1.728,2.608,2.608,0,0,0,1.468-3.114Z" transform="translate(-2098.001 -660.924)" fill="#f99746"/>
          <path id="Path_3920" data-name="Path 3920" d="M2096.267,671.156c2.211-.2,2.728,23.489,2.728,23.489s-1.442.8-2.15.611-1.07-3.387-1.07-3.387l-.069,3.355s-2.425.1-3.266-.6c0,0,.329-23.149,3.827-23.472Z" transform="translate(-2092.439 -668.633)" fill="#f99746"/>
        </g>
        <path id="Path_3921" data-name="Path 3921" d="M1998.924,437.7l-.4-51.761-.285-.251-28.8-25.082-1.035,1.647,28.51,24.835.645,50.524Z" transform="translate(-1911.529 -336.746)" fill="#f99746"/>
      </g>
      <g id="Group_43" data-name="Group 43" transform="translate(284.427 267.596)">
        <g id="Group_34" data-name="Group 34" transform="translate(30.418 61.805)">
          <g id="Group_33" data-name="Group 33">
            <path id="Path_3922" data-name="Path 3922" d="M1834.253,1498.274H1713.14V1444.09h121.517c9.821,0,17.783,9.375,17.783,20.94v11.828C1852.44,1488.687,1844.3,1498.274,1834.253,1498.274Z" transform="translate(-1706.677 -1444.088)" fill="#fcecdb"/>
            <path id="Path_3923" data-name="Path 3923" d="M1931.928,1466.376v8.153a28.451,28.451,0,0,1-2.554,11.942c-3.264,7.056-9.333,11.8-16.282,11.8H1685c-1.509,0-2.732-1.541-2.732-3.442v-1.22c0-1.9,1.223-3.442,2.732-3.442h139.043a23.283,23.283,0,0,0,1.951-3.7,26.716,26.716,0,0,0,2.037-10.359v-10.361a26.931,26.931,0,0,0-.563-5.515,24.159,24.159,0,0,0-3.224-8.047H1685c-1.509,0-2.732-1.541-2.732-3.444v-1.218c0-1.9,1.223-3.444,2.732-3.444h229.239c8.077,0,14.892,6.827,17.006,16.15A27.765,27.765,0,0,1,1931.928,1466.376Z" transform="translate(-1682.27 -1444.08)" fill="#699dee"/>
            <path id="Path_3924" data-name="Path 3924" d="M1931.245,1460.233H1827.47a24.164,24.164,0,0,0-3.224-8.047H1685c-1.51,0-2.732-1.541-2.732-3.444v-1.218c0-1.9,1.223-3.444,2.732-3.444h229.239C1922.318,1444.083,1929.131,1450.906,1931.245,1460.233Z" transform="translate(-1682.27 -1444.08)" fill="#548ee2"/>
          </g>
          <path id="Path_3925" data-name="Path 3925" d="M1713.14,1553.98l16.887.912-16.887.547Z" transform="translate(-1706.677 -1526.886)" fill="#f4d2b8"/>
          <path id="Path_3926" data-name="Path 3926" d="M1713.14,1588.47l40.179.91-40.179.55Z" transform="translate(-1706.677 -1552.874)" fill="#f4d2b8"/>
        </g>
        <g id="Group_38" data-name="Group 38" transform="translate(2.006 115.873)">
          <g id="Group_36" data-name="Group 36">
            <g id="Group_35" data-name="Group 35">
              <path id="Path_3927" data-name="Path 3927" d="M1563.738,1705.556h118.891V1663.41h-119.94c-8.909,0-16.129,8.5-16.129,18.993v2.928C1546.562,1696.5,1554.252,1705.556,1563.738,1705.556Z" transform="translate(-1546.56 -1663.407)" fill="#f99746"/>
              <path id="Path_3928" data-name="Path 3928" d="M2105.782,1705.556h135.5V1663.41H2105.409c-9.057,0-16.4,8.646-16.4,19.311v3.089C2089.012,1696.716,2096.52,1705.556,2105.782,1705.556Z" transform="translate(-1975.441 -1663.407)" fill="#fcecdb"/>
              <path id="Path_3929" data-name="Path 3929" d="M2036.851,1815.1h165.8a2.74,2.74,0,0,0,2.491-2.934v-.439a2.74,2.74,0,0,0-2.491-2.934h-165.8a2.741,2.741,0,0,0-2.491,2.934v.439A2.739,2.739,0,0,0,2036.851,1815.1Z" transform="translate(-1932.232 -1772.947)" fill="#f99746"/>
              <path id="Path_3930" data-name="Path 3930" d="M2036.851,1669.706h165.8a2.74,2.74,0,0,0,2.491-2.934v-.439a2.74,2.74,0,0,0-2.491-2.934h-165.8a2.741,2.741,0,0,0-2.491,2.934v.439A2.739,2.739,0,0,0,2036.851,1669.706Z" transform="translate(-1932.232 -1663.4)" fill="#f99746"/>
            </g>
            <path id="Path_3931" data-name="Path 3931" d="M2746.611,1748.9l-18.462.707,18.462.427Z" transform="translate(-2480.768 -1727.822)" fill="#f4d2b8"/>
            <path id="Path_3932" data-name="Path 3932" d="M2650.47,1709.55l-43.92.71,43.92.427Z" transform="translate(-2384.626 -1698.173)" fill="#f4d2b8"/>
          </g>
          <g id="Group_37" data-name="Group 37" transform="translate(222.376 11.944)">
            <path id="Path_3933" data-name="Path 3933" d="M2608.71,1711.85a10.041,10.041,0,0,1,2.506,4.787,9.052,9.052,0,0,1,.195,1.664c.1,3.954,0,12.906,0,12.906l5.557-4.474,5.542,4.474v-12.132a12.135,12.135,0,0,0-1.359-5.986c-.427-.708-.946-1.24-1.535-1.24Z" transform="translate(-2608.71 -1711.85)" fill="#699dee"/>
            <path id="Path_3934" data-name="Path 3934" d="M2608.71,1711.85a10.041,10.041,0,0,1,2.506,4.787l11.136.177s-.437-4.263-2.734-4.965Z" transform="translate(-2608.71 -1711.85)" fill="#568cdb"/>
          </g>
        </g>
        <g id="Group_42" data-name="Group 42">
          <g id="Group_40" data-name="Group 40">
            <g id="Group_39" data-name="Group 39">
              <path id="Path_3935" data-name="Path 3935" d="M1684.188,1255.3H1567.17V1193.38h117.445c10.385,0,18.8,9.913,18.8,22.141v17.141C1703.416,1245.163,1694.807,1255.3,1684.188,1255.3Z" transform="translate(-1560.849 -1193.38)" fill="#fcecdb"/>
              <path id="Path_3936" data-name="Path 3936" d="M1679.621,1217.419v13.328c-.029,5.692-2.27,10.63-5.561,13.271a8.752,8.752,0,0,1-5.484,2.036H1539.724c-1.51,0-2.734,1.721-2.734,3.846v1.573c0,2.123,1.225,3.846,2.734,3.846h222.6c6.388,0,12.032-4.465,15.441-11.3a34.232,34.232,0,0,0,3.412-15.213v-10.514a33.3,33.3,0,0,0-1.759-10.825c-2.862-8.325-8.925-14.067-15.943-14.067H1539.724c-1.51,0-2.734,1.718-2.734,3.841v1.573c0,2.123,1.225,3.846,2.734,3.846h129.246c3.088,0,5.885,1.849,7.839,4.807A18.339,18.339,0,0,1,1679.621,1217.419Z" transform="translate(-1536.988 -1193.395)" fill="#afcdfb"/>
              <path id="Path_3937" data-name="Path 3937" d="M1536.98,1404.61v1.573c0,2.123,1.225,3.846,2.734,3.846h222.6c6.388,0,12.032-4.465,15.441-11.3h-103.7a8.75,8.75,0,0,1-5.483,2.036H1539.716C1538.2,1400.764,1536.98,1402.484,1536.98,1404.61Z" transform="translate(-1536.98 -1348.105)" fill="#a4c4f4"/>
            </g>
            <path id="Path_3938" data-name="Path 3938" d="M1567.17,1318.96l16.519,1.04-16.519.629Z" transform="translate(-1560.849 -1288.001)" fill="#f4d2b8"/>
            <path id="Path_3939" data-name="Path 3939" d="M1567.17,1261.16l39.3,1.04-39.3.626Z" transform="translate(-1560.849 -1244.45)" fill="#f4d2b8"/>
          </g>
          <g id="Group_41" data-name="Group 41" transform="translate(26.198 17.543)">
            <path id="Path_3940" data-name="Path 3940" d="M1681.126,1264.54a10.59,10.59,0,0,0-3.453,5.192,8.01,8.01,0,0,0-.27,1.8c-.142,4.287,0,13.993,0,13.993l-7.656-4.852-7.638,4.852v-13.152a10.951,10.951,0,0,1,1.872-6.491,2.874,2.874,0,0,1,2.114-1.346Z" transform="translate(-1662.11 -1264.54)" fill="#f99746"/>
            <path id="Path_3941" data-name="Path 3941" d="M1681.957,1264.54a10.589,10.589,0,0,0-3.452,5.192l-15.344.192s.6-4.622,3.768-5.384Z" transform="translate(-1662.94 -1264.54)" fill="#ed7d2b"/>
          </g>
        </g>
      </g>
      <g id="Group_47" data-name="Group 47" transform="translate(0 239.122)">
        <path id="Path_3965" data-name="Path 3965" d="M251.416,1113.042c.835-24.345-16.494-35.162-34.212-35.162s-37,5.406-38.672,37.778c-1.074,20.827,8.354,33.641,35.5,33.641,9.155,0,16.272-1.7,21.724-4.733l13.571,14.2-6.668-19.628C248.567,1132.671,251.056,1123.55,251.416,1113.042Z" transform="translate(-178.451 -1077.88)" fill="#ebf3fa"/>
      </g>
      <g id="Group_49" data-name="Group 49" transform="translate(361.18 169.076)">
        <path id="Path_3971" data-name="Path 3971" d="M1970.291,825.895c.764-22.257-15.079-32.145-31.277-32.145s-33.827,4.943-35.355,34.536c-.982,19.039,7.637,30.755,32.458,30.755,8.37,0,14.877-1.555,19.86-4.327l12.407,12.982-6.1-17.945C1967.686,843.84,1969.962,835.5,1970.291,825.895Z" transform="translate(-1903.584 -793.75)" fill="#91b5f8"/>
      </g>
      <g id="Group_54" data-name="Group 54" transform="translate(201.617 400.253)">
        <rect id="Rectangle_10" data-name="Rectangle 10" width="25.8" height="110.229" transform="matrix(0, -1, 1, 0, 25.626, 25.805)" fill="#c65447"/>
        <path id="Path_4003" data-name="Path 4003" d="M1167.074,1757.284l-16.2-8.16-9.423-4.746,9.645-4.854,15.985-8.044a44.91,44.91,0,0,1,2.165,12.191C1169.3,1752.943,1167.074,1757.284,1167.074,1757.284Z" transform="translate(-1141.45 -1731.48)" fill="#fcecdb"/>
        <path id="Path_4004" data-name="Path 4004" d="M1803.157,1740.142l0,8.157c0,5.017-3.457,9.084-7.717,9.084h-5.1l0-25.8h5.546C1799.906,1731.582,1803.159,1735.416,1803.157,1740.142Z" transform="translate(-1654.486 -1731.555)" fill="#fcecdb"/>
        <path id="Path_4005" data-name="Path 4005" d="M1151.1,1764.11c.4,2.608.749,6.6-.222,9.6l-9.423-4.746Z" transform="translate(-1141.45 -1756.066)" fill="#2b478b"/>
      </g>
      <path id="Path_4029" data-name="Path 4029" d="M830.647,1836.81H257.319a.816.816,0,0,1-.739-.871v-.569a.816.816,0,0,1,.739-.87H830.645a.816.816,0,0,1,.739.87v.569A.811.811,0,0,1,830.647,1836.81Z" transform="translate(-240.223 -1408.849)" fill="#2e3552"/>
    </g>
  </g>
</svg>
