<svg xmlns="http://www.w3.org/2000/svg" width="593.474" height="413.359" viewBox="0 0 593.474 413.359">
  <g id="_11070" data-name="11070" transform="translate(-175.427 -147.926)">
    <g id="Group_163" data-name="Group 163" transform="translate(175.428 147.926)">
      <path id="Path_4284" data-name="Path 4284" d="M216.909,559.934s-62.683-20.678-33.94-115.361,83.42-53.837,67.621-136.646c-20.833-109.2,67.388-183.452,164.378-153.208s71,63.859,184.975,30.007C738.9,143.456,750.616,315.158,718.389,372.193s87.972,65.258,38.324,187.741h-539.8Z" transform="translate(-175.428 -147.926)" fill="#ebf3fa"/>
      <g id="Group_107" data-name="Group 107" transform="translate(468.095 162.073)">
        <path id="Path_4285" data-name="Path 4285" d="M2451.25,840.265s16.06-38.318,25.044-34.917S2451.25,840.265,2451.25,840.265Z" transform="translate(-2439.698 -805.134)" fill="#cde0fb"/>
        <path id="Path_4286" data-name="Path 4286" d="M2396.44,904.663s38.474-44.126,53.423-36.079-9.113,16.676-18.292,19.026S2396.44,904.663,2396.44,904.663Z" transform="translate(-2396.44 -852.198)" fill="#cde0fb"/>
      </g>
      <path id="Path_4287" data-name="Path 4287" d="M2442.132,1362.875c13.744-10.565.688-38.538.688-38.538s-32.061-10.1-34.336-15.741,28.85,2.372,28.85,2.372c-2.25-11.758-22.327-36.227-22.327-36.227s-30.28,13.65-31.3,7.527,27.337-10.486,27.337-10.486c-5.918-9.946-19.8-16.022-19.8-16.022-21.516-6-26.988,26.639-26.988,26.639s-10.58,4.466-25,1.445h0a33.115,33.115,0,0,0-7.092-1.171l.843,3.006a22.017,22.017,0,0,1,2.223.052s.008,0,.013,0l.032,0c.455.054,1.1.133,1.9.237h.006c1.794.328,3.1.516,4.034.592h.008c5.6.9,12.993,2.456,15.052,4.6a5.772,5.772,0,0,1,1-1.095c-.318.35-.651.713-1,1.095-7.983,8.762-2.346,35.1,4.186,48.478s8.236,5.8,11.682-4.074-2.564-25.482-1.7-31.107,5.016.518,7.066,10.318-4.782,17.714-1.711,33.637,31.188,18.168,31.188,18.168c-5.815-9.578-6.144-30.624-3.208-32.565s10.553,26.491,12.732,30.54S2428.389,1373.44,2442.132,1362.875Z" transform="translate(-1877.621 -982.004)" fill="#cde0fb"/>
      <g id="Group_108" data-name="Group 108" transform="translate(71.62 195.815)">
        <path id="Path_4288" data-name="Path 4288" d="M669.033,986.266s-20.256-48.328-31.586-44.039S669.033,986.266,669.033,986.266Z" transform="translate(-610.19 -941.958)" fill="#dfebfd"/>
        <path id="Path_4289" data-name="Path 4289" d="M588.662,1067.5s-48.525-55.655-67.381-45.507,11.495,21.033,23.07,24S588.662,1067.5,588.662,1067.5Z" transform="translate(-515.251 -1001.324)" fill="#dfebfd"/>
      </g>
      <path id="Path_4290" data-name="Path 4290" d="M429.457,1274.617c.249-16.91,24.144-18.705,24.144-18.705s21.476,23.122,26.125,22.451-15.061-23.963-15.061-23.963c8.523-3.568,33.489,2.387,33.489,2.387s5.562,32.732,9.929,30.742-6.188-28.688-6.188-28.688c9.094.471,19.476,9.682,19.476,9.682,13.918,15.884-4.232,35.975-4.232,35.975a57.906,57.906,0,0,0,10.829,22.407h0a38.18,38.18,0,0,1,4.076,5.615l-2.306.681q-.515-1-1.077-1.909s0-.007-.006-.01l-.017-.027c-.249-.37-.6-.9-1.041-1.534l0,0s0,0,0,0c-1.052-1.406-1.785-2.456-2.272-3.228,0,0,0-.005,0-.008-3.2-4.441-31.175,7.608-42.735,8.215s-7.552-4.434-2.9-12.069,17.383-9.746,20.549-13.134-2.687-4.118-9.872-1.295-9,12.479-20.551,17.295-26.189-18.572-26.189-18.572c8.814.555,22.33-9.05,22.182-12.513s-21.778,3.275-25.373,3.285S429.207,1291.527,429.457,1274.617Z" transform="translate(-375.914 -980.676)" fill="#cde0fb"/>
      <g id="Group_110" data-name="Group 110" transform="translate(119.144 128.296)">
        <path id="Path_4291" data-name="Path 4291" d="M918.082,950.658H747.453c-3.707,0-6.713-3.526-6.713-7.874V676.042c0-4.466,3.161-8.037,6.963-7.869l177.089,9.556V942.781C924.792,947.134,921.787,950.658,918.082,950.658Z" transform="translate(-740.74 -668.167)" fill="#f99746"/>
        <path id="Path_4292" data-name="Path 4292" d="M1620.743,950.658h170.629c3.708,0,6.713-3.526,6.713-7.874V676.042c0-4.466-3.161-8.037-6.963-7.869l-177.091,9.556V942.781C1614.03,947.134,1617.036,950.658,1620.743,950.658Z" transform="translate(-1429.978 -668.167)" fill="#f99746"/>
        <path id="Path_4293" data-name="Path 4293" d="M776.689,715.11l-5.532,5.26a4.244,4.244,0,0,0-1.237,3.068v258.6c0,2.163,1.465,3.918,3.273,3.918h13.775c1.886,0,3.381-1.9,3.267-4.155Z" transform="translate(-763.77 -703.533)" fill="#aec3ff"/>
        <path id="Path_4294" data-name="Path 4294" d="M2376.873,715.11l5.533,5.26a4.245,4.245,0,0,1,1.237,3.068v258.6c0,2.163-1.465,3.918-3.273,3.918h-13.775c-1.886,0-3.381-1.9-3.267-4.155Z" transform="translate(-2021.35 -703.533)" fill="#aec3ff"/>
        <path id="Path_4295" data-name="Path 4295" d="M959.226,979.875H798.684c-3.488,0-6.314-3.406-6.314-7.608V714.556c0-4.313,2.974-7.766,6.552-7.6l140.13,6.338c14.787.668,26.488,15.307,26.488,33.134V972.27C965.541,976.469,962.715,979.875,959.226,979.875Z" transform="translate(-781.489 -697.384)" fill="#fff7f0"/>
        <path id="Path_4296" data-name="Path 4296" d="M1619.834,979.8h161.581c3.2,0,5.8-3.127,5.8-6.981V713.831c0-3.958-2.729-7.127-6.013-6.977l-143.644,6.5c-13.128.594-23.514,13.588-23.514,29.416V972.819C1614.038,976.676,1616.632,979.8,1619.834,979.8Z" transform="translate(-1429.986 -697.31)" fill="#fff7f0"/>
        <g id="Group_109" data-name="Group 109" transform="translate(183.618 60.859)">
          <rect id="Rectangle_56" data-name="Rectangle 56" width="0.87" height="167.339" fill="#f9dec7"/>
        </g>
      </g>
      <g id="Group_120" data-name="Group 120" transform="translate(137.983 374.942)">
        <g id="Group_119" data-name="Group 119">
          <path id="Path_4320" data-name="Path 4320" d="M845.054,1704.062h118.5c8.243,0,14.924-7.817,14.924-17.463v-.727c0-9.645-6.681-17.462-14.924-17.462h-118.5c-8.243,0-14.924,7.818-14.924,17.462v.727C830.13,1696.242,836.811,1704.062,845.054,1704.062Z" transform="translate(-830.13 -1668.388)" fill="#2b478b"/>
          <path id="Path_4321" data-name="Path 4321" d="M1219.18,1683.943l-.105,7.793c-.095,6.893,4.605,12.57,10.5,12.681l78.756,1.472.021-1.551c-4.417-2.688-7.4-8.133-7.318-14.355l.038-2.74c.084-6.222,3.216-11.551,7.705-14.074v-.032l-78.756-1.472C1224.126,1671.551,1219.275,1677.051,1219.18,1683.943Z" transform="translate(-1137.1 -1670.839)" fill="#f9dec7"/>
          <g id="Group_115" data-name="Group 115" transform="translate(80.775)">
            <path id="Path_4322" data-name="Path 4322" d="M1305.9,1703.994h-82.971c-5.351,0-9.543-7.835-9.543-17.837s4.192-17.837,9.543-17.837H1305.9a1.478,1.478,0,0,1,0,2.92h-82.971c-3.821,0-7.048,6.831-7.048,14.92s3.229,14.92,7.048,14.92H1305.9a1.475,1.475,0,0,1,0,2.915Z" transform="translate(-1213.39 -1668.32)" fill="#1b3770"/>
          </g>
          <g id="Group_116" data-name="Group 116" transform="translate(94.021 9.494)">
            <rect id="Rectangle_57" data-name="Rectangle 57" width="71.352" height="0.229" fill="#e8c2a3"/>
          </g>
          <g id="Group_117" data-name="Group 117" transform="translate(137.273 12.752)">
            <rect id="Rectangle_58" data-name="Rectangle 58" width="27.087" height="0.21" fill="#e8c2a3"/>
          </g>
          <g id="Group_118" data-name="Group 118" transform="translate(117.105 23.822)">
            <rect id="Rectangle_59" data-name="Rectangle 59" width="47.252" height="0.21" fill="#e8c2a3"/>
          </g>
        </g>
        <path id="Path_4323" data-name="Path 4323" d="M1276.947,1707.29s3.661,1.793,4.1,7.845a50.147,50.147,0,0,1,0,9.275l-4.42-2.461-4.462,2.461v-9.46s-.162-7.66-6.253-7.66Z" transform="translate(-1174.066 -1697.68)" fill="#f78248"/>
      </g>
      <g id="Group_126" data-name="Group 126" transform="translate(133.638 348.109)">
        <g id="Group_125" data-name="Group 125">
          <path id="Path_4324" data-name="Path 4324" d="M819.279,1586.416H910.45c5.4,0,9.769-5.117,9.769-11.43v-3.975c0-6.313-4.373-11.43-9.769-11.43H819.279c-5.4,0-9.769,5.117-9.769,11.43v3.975C809.51,1581.3,813.883,1586.416,819.279,1586.416Z" transform="translate(-809.51 -1559.563)" fill="#699dee"/>
          <path id="Path_4325" data-name="Path 4325" d="M1099.856,1571.257l-.08,5.857c-.07,5.181,3.438,9.448,7.834,9.531l58.776,1.107.017-1.167a12.37,12.37,0,0,1-5.461-10.789l.027-2.059a12.226,12.226,0,0,1,5.75-10.58v-.024l-58.776-1.107C1103.549,1561.942,1099.926,1566.075,1099.856,1571.257Z" transform="translate(-1038.6 -1561.405)" fill="#f9dec7"/>
          <g id="Group_121" data-name="Group 121" transform="translate(60.283)">
            <path id="Path_4326" data-name="Path 4326" d="M1164.582,1586.326h-61.92c-3.994,0-7.122-5.889-7.122-13.408s3.128-13.408,7.122-13.408h61.92a1.112,1.112,0,0,1,0,2.195h-61.92c-2.852,0-5.261,5.134-5.261,11.213s2.409,11.213,5.261,11.213h61.92a1.112,1.112,0,0,1,0,2.195Z" transform="translate(-1095.54 -1559.51)" fill="#4b87dd"/>
          </g>
          <g id="Group_122" data-name="Group 122" transform="translate(78.707 7.147)">
            <rect id="Rectangle_60" data-name="Rectangle 60" width="44.71" height="0.158" fill="#e8c2a3"/>
          </g>
          <g id="Group_123" data-name="Group 123" transform="translate(102.447 9.586)">
            <rect id="Rectangle_61" data-name="Rectangle 61" width="20.216" height="0.158" fill="#e8c2a3"/>
          </g>
          <g id="Group_124" data-name="Group 124" transform="translate(87.397 17.909)">
            <rect id="Rectangle_62" data-name="Rectangle 62" width="35.264" height="0.158" fill="#e8c2a3"/>
          </g>
        </g>
      </g>
      <g id="Group_141" data-name="Group 141" transform="translate(313.527 149.323)">
        <g id="Group_133" data-name="Group 133" transform="translate(0 192.594)">
          <path id="Path_4344" data-name="Path 4344" d="M1701.648,1579.561l-38.6,2.222v-45.164l38.6-2.219Z" transform="translate(-1663.05 -1534.4)" fill="#f9dec7"/>
          <g id="Group_132" data-name="Group 132" transform="translate(2.9 9.959)">
            <path id="Path_4345" data-name="Path 4345" d="M1676.81,1629.458l11.4-24.708,8.384,12.9,4.186-5.6,8.871,15.516Z" transform="translate(-1676.81 -1597.36)" fill="#fff7f0"/>
            <path id="Path_4346" data-name="Path 4346" d="M1756.68,1578.41a3.466,3.466,0,0,1,2.951-3.623,3.018,3.018,0,0,1,2.951,3.282,3.465,3.465,0,0,1-2.951,3.623A3.018,3.018,0,0,1,1756.68,1578.41Z" transform="translate(-1739.847 -1574.783)" fill="#fff7f0"/>
          </g>
        </g>
        <g id="Group_135" data-name="Group 135" transform="translate(97.69)">
          <path id="Path_4347" data-name="Path 4347" d="M2182.176,818.5l-55.606,3.2V756.626l55.606-3.2Z" transform="translate(-2126.57 -753.43)" fill="#f9dec7"/>
          <g id="Group_134" data-name="Group 134" transform="translate(4.175 14.346)">
            <path id="Path_4348" data-name="Path 4348" d="M2146.38,890.383l16.427-35.593,12.076,18.579,6.03-8.059,12.78,22.353Z" transform="translate(-2146.38 -844.14)" fill="#fff7f0"/>
            <path id="Path_4349" data-name="Path 4349" d="M2261.45,816.829c0-2.747,1.9-5.083,4.251-5.218s4.251,1.983,4.251,4.73-1.9,5.083-4.251,5.218S2261.45,819.577,2261.45,816.829Z" transform="translate(-2237.198 -811.605)" fill="#fff7f0"/>
          </g>
        </g>
        <g id="Group_136" data-name="Group 136" transform="translate(0 110.449)">
          <path id="Path_4350" data-name="Path 4350" d="M1717.425,1205.007l-54.375,3.127v-3.707l54.375-3.127Z" transform="translate(-1663.05 -1201.3)" fill="#f99746"/>
          <path id="Path_4351" data-name="Path 4351" d="M1692.2,1246.972l-29.152,1.677v-1.854l29.152-1.675Z" transform="translate(-1663.05 -1234.313)" fill="#f9dec7"/>
          <path id="Path_4352" data-name="Path 4352" d="M1683.658,1273.962l-20.608,1.186V1273.3l20.608-1.186Z" transform="translate(-1663.05 -1254.648)" fill="#f9dec7"/>
          <path id="Path_4353" data-name="Path 4353" d="M1800.416,1268.222l-20.606,1.186v-1.852l20.606-1.186Z" transform="translate(-1755.202 -1250.323)" fill="#f9dec7"/>
          <path id="Path_4354" data-name="Path 4354" d="M1916.62,1261.684l-25.11,1.443v-1.852l25.11-1.445Z" transform="translate(-1843.36 -1245.396)" fill="#f9dec7"/>
          <path id="Path_4355" data-name="Path 4355" d="M1680.939,1299.082l-17.889,1.031v-1.854l17.889-1.029Z" transform="translate(-1663.05 -1273.573)" fill="#f9dec7"/>
          <path id="Path_4356" data-name="Path 4356" d="M1782.309,1294.1l-17.889,1.028v-1.852l17.889-1.028Z" transform="translate(-1743.055 -1269.821)" fill="#f9dec7"/>
          <path id="Path_4357" data-name="Path 4357" d="M1883.188,1288.422l-21.8,1.255v-1.854l21.8-1.253Z" transform="translate(-1819.588 -1265.542)" fill="#f9dec7"/>
        </g>
        <g id="Group_137" data-name="Group 137" transform="translate(0 68.629)">
          <path id="Path_4358" data-name="Path 4358" d="M1717.425,1035.427l-54.375,3.127v-3.707l54.375-3.127Z" transform="translate(-1663.05 -1031.72)" fill="#f99746"/>
          <path id="Path_4359" data-name="Path 4359" d="M1692.2,1077.385l-29.152,1.677v-1.854l29.152-1.677Z" transform="translate(-1663.05 -1064.726)" fill="#f9dec7"/>
          <path id="Path_4360" data-name="Path 4360" d="M1857.37,1069.272l-29.15,1.677v-1.854l29.15-1.674Z" transform="translate(-1793.409 -1058.616)" fill="#f9dec7"/>
          <path id="Path_4361" data-name="Path 4361" d="M1683.658,1104.382l-20.608,1.186v-1.854l20.608-1.184Z" transform="translate(-1663.05 -1085.068)" fill="#f9dec7"/>
          <path id="Path_4362" data-name="Path 4362" d="M1800.416,1098.642l-20.606,1.186v-1.855l20.606-1.183Z" transform="translate(-1755.202 -1080.743)" fill="#f9dec7"/>
          <path id="Path_4363" data-name="Path 4363" d="M1916.62,1092.1l-25.11,1.445v-1.855l25.11-1.443Z" transform="translate(-1843.36 -1075.816)" fill="#f9dec7"/>
          <path id="Path_4364" data-name="Path 4364" d="M1680.939,1129.5l-17.889,1.028v-1.852l17.889-1.028Z" transform="translate(-1663.05 -1103.993)" fill="#f9dec7"/>
          <path id="Path_4365" data-name="Path 4365" d="M1782.309,1124.522l-17.889,1.028V1123.7l17.889-1.028Z" transform="translate(-1743.055 -1100.241)" fill="#f9dec7"/>
          <path id="Path_4366" data-name="Path 4366" d="M1883.188,1118.842l-21.8,1.253v-1.852l21.8-1.253Z" transform="translate(-1819.588 -1095.962)" fill="#f9dec7"/>
        </g>
        <g id="Group_138" data-name="Group 138" transform="translate(97.376 74.885)">
          <path id="Path_4367" data-name="Path 4367" d="M2163.33,1059.7l-38.25,2.2v-2.607l38.25-2.2Z" transform="translate(-2125.08 -1057.09)" fill="#f99746"/>
          <path id="Path_4368" data-name="Path 4368" d="M2145.587,1089.215l-20.507,1.179v-1.3l20.507-1.179Z" transform="translate(-2125.08 -1080.31)" fill="#f9dec7"/>
          <path id="Path_4369" data-name="Path 4369" d="M2261.777,1083.5l-20.507,1.179v-1.3l20.507-1.179Z" transform="translate(-2216.782 -1076.008)" fill="#f9dec7"/>
          <path id="Path_4370" data-name="Path 4370" d="M2139.576,1108.2l-14.5.836v-1.3l14.5-.834Z" transform="translate(-2125.08 -1094.616)" fill="#f9dec7"/>
          <path id="Path_4371" data-name="Path 4371" d="M2221.716,1104.165l-14.5.834v-1.3l14.5-.834Z" transform="translate(-2189.908 -1091.573)" fill="#f9dec7"/>
          <path id="Path_4372" data-name="Path 4372" d="M2303.464,1099.565l-17.664,1.016v-1.3l17.664-1.016Z" transform="translate(-2251.927 -1088.107)" fill="#f9dec7"/>
          <path id="Path_4373" data-name="Path 4373" d="M2137.667,1125.875l-12.586.723v-1.3l12.586-.725Z" transform="translate(-2125.08 -1107.929)" fill="#f9dec7"/>
          <path id="Path_4374" data-name="Path 4374" d="M2208.974,1122.372l-12.584.725v-1.3l12.584-.723Z" transform="translate(-2181.361 -1105.292)" fill="#f9dec7"/>
          <path id="Path_4375" data-name="Path 4375" d="M2279.945,1118.375l-15.335.88v-1.3l15.335-.883Z" transform="translate(-2235.203 -1102.278)" fill="#f9dec7"/>
        </g>
        <g id="Group_139" data-name="Group 139" transform="translate(0 154.074)">
          <path id="Path_4376" data-name="Path 4376" d="M1717.425,1381.906l-54.375,3.127v-3.707l54.375-3.127Z" transform="translate(-1663.05 -1378.2)" fill="#f99746"/>
          <path id="Path_4377" data-name="Path 4377" d="M1692.2,1423.872l-29.152,1.677V1423.7l29.152-1.677Z" transform="translate(-1663.05 -1411.214)" fill="#f9dec7"/>
          <path id="Path_4378" data-name="Path 4378" d="M1857.37,1415.752l-29.15,1.677v-1.852l29.15-1.677Z" transform="translate(-1793.409 -1405.096)" fill="#f9dec7"/>
          <path id="Path_4379" data-name="Path 4379" d="M1683.658,1450.862l-20.608,1.186V1450.2l20.608-1.186Z" transform="translate(-1663.05 -1431.547)" fill="#f9dec7"/>
          <path id="Path_4380" data-name="Path 4380" d="M1800.416,1445.124l-20.606,1.184v-1.852l20.606-1.186Z" transform="translate(-1755.202 -1427.223)" fill="#f9dec7"/>
          <path id="Path_4381" data-name="Path 4381" d="M1916.62,1438.584l-25.11,1.443v-1.852l25.11-1.445Z" transform="translate(-1843.36 -1422.296)" fill="#f9dec7"/>
          <path id="Path_4382" data-name="Path 4382" d="M1680.939,1475.984l-17.889,1.028v-1.854l17.889-1.028Z" transform="translate(-1663.05 -1450.473)" fill="#f9dec7"/>
          <path id="Path_4383" data-name="Path 4383" d="M1782.309,1471l-17.889,1.031v-1.854l17.889-1.028Z" transform="translate(-1743.055 -1446.721)" fill="#f9dec7"/>
          <path id="Path_4384" data-name="Path 4384" d="M1883.188,1465.324l-21.8,1.253v-1.852l21.8-1.255Z" transform="translate(-1819.588 -1442.442)" fill="#f9dec7"/>
        </g>
        <g id="Group_140" data-name="Group 140" transform="translate(48.552 212.187)">
          <path id="Path_4385" data-name="Path 4385" d="M1935.42,1617.557l-42,2.414v-3.706l42-2.414Z" transform="translate(-1893.42 -1613.85)" fill="#f99746"/>
          <path id="Path_4386" data-name="Path 4386" d="M1915.935,1658.182l-22.515,1.295v-1.852l22.515-1.3Z" transform="translate(-1893.42 -1645.854)" fill="#f9dec7"/>
          <path id="Path_4387" data-name="Path 4387" d="M2043.515,1651.912,2021,1653.207v-1.852l22.515-1.295Z" transform="translate(-1994.112 -1641.13)" fill="#f9dec7"/>
          <path id="Path_4388" data-name="Path 4388" d="M1909.336,1684.722l-15.917.915v-1.852l15.917-.915Z" transform="translate(-1893.42 -1665.849)" fill="#f9dec7"/>
          <path id="Path_4389" data-name="Path 4389" d="M1999.518,1680.284l-15.918.915v-1.852l15.918-.917Z" transform="translate(-1964.594 -1662.504)" fill="#f9dec7"/>
          <path id="Path_4390" data-name="Path 4390" d="M2089.284,1675.235l-19.394,1.115v-1.854l19.394-1.115Z" transform="translate(-2032.698 -1658.699)" fill="#f9dec7"/>
          <path id="Path_4391" data-name="Path 4391" d="M1907.237,1709.694l-13.817.794v-1.854l13.817-.794Z" transform="translate(-1893.42 -1684.661)" fill="#f9dec7"/>
          <path id="Path_4392" data-name="Path 4392" d="M1985.529,1705.852l-13.819.794v-1.852l13.819-.794Z" transform="translate(-1955.21 -1681.768)" fill="#f9dec7"/>
          <path id="Path_4393" data-name="Path 4393" d="M2063.458,1701.462l-16.838.969v-1.852l16.838-.969Z" transform="translate(-2014.332 -1678.461)" fill="#f9dec7"/>
        </g>
      </g>
      <g id="Group_147" data-name="Group 147" transform="translate(144.39 150.274)">
        <g id="Group_143" data-name="Group 143" transform="translate(78.279 12.88)">
          <path id="Path_4394" data-name="Path 4394" d="M1292.545,883l-60.595-2.575v-70.9l60.595,2.575Z" transform="translate(-1231.95 -809.52)" fill="#f9dec7"/>
          <g id="Group_142" data-name="Group 142" transform="translate(4.552 15.715)">
            <path id="Path_4395" data-name="Path 4395" d="M1253.55,951.946l17.9-37,13.162,21.564,6.571-8.126,13.925,25.748Z" transform="translate(-1253.55 -904.665)" fill="#fff7f0"/>
            <path id="Path_4396" data-name="Path 4396" d="M1378.94,878.472c0-2.994,2.074-5.332,4.633-5.223s4.632,2.624,4.632,5.615-2.074,5.332-4.632,5.223S1378.94,881.466,1378.94,878.472Z" transform="translate(-1352.513 -873.245)" fill="#fff7f0"/>
          </g>
        </g>
        <g id="Group_144" data-name="Group 144" transform="translate(77.262 108.301)">
          <path id="Path_4397" data-name="Path 4397" d="M1281.493,1202.467l-54.373-2.311v-3.707l54.373,2.311Z" transform="translate(-1227.12 -1196.45)" fill="#f99746"/>
          <path id="Path_4398" data-name="Path 4398" d="M1256.27,1237.48l-29.15-1.238v-1.852l29.15,1.238Z" transform="translate(-1227.12 -1225.034)" fill="#f9dec7"/>
          <path id="Path_4399" data-name="Path 4399" d="M1247.726,1262.117l-20.606-.876v-1.852l20.606.875Z" transform="translate(-1227.12 -1243.869)" fill="#f9dec7"/>
          <path id="Path_4400" data-name="Path 4400" d="M1364.478,1266.357l-20.608-.876v-1.852l20.608.873Z" transform="translate(-1319.264 -1247.063)" fill="#f9dec7"/>
          <path id="Path_4401" data-name="Path 4401" d="M1480.688,1270.6l-25.108-1.068v-1.852l25.108,1.065Z" transform="translate(-1407.43 -1250.114)" fill="#f9dec7"/>
          <path id="Path_4402" data-name="Path 4402" d="M1245.009,1286.484l-17.889-.76v-1.854l17.889.762Z" transform="translate(-1227.12 -1262.311)" fill="#f9dec7"/>
          <path id="Path_4403" data-name="Path 4403" d="M1346.369,1290.164l-17.889-.76v-1.854l17.889.76Z" transform="translate(-1307.118 -1265.084)" fill="#f9dec7"/>
          <path id="Path_4404" data-name="Path 4404" d="M1447.258,1293.849l-21.8-.925v-1.855l21.8.927Z" transform="translate(-1383.658 -1267.736)" fill="#f9dec7"/>
        </g>
        <g id="Group_145" data-name="Group 145" transform="translate(77.262 151.926)">
          <path id="Path_4405" data-name="Path 4405" d="M1281.493,1379.367l-54.373-2.311v-3.707l54.373,2.311Z" transform="translate(-1227.12 -1373.35)" fill="#f99746"/>
          <path id="Path_4406" data-name="Path 4406" d="M1256.27,1414.38l-29.15-1.238v-1.852l29.15,1.238Z" transform="translate(-1227.12 -1401.934)" fill="#f9dec7"/>
          <path id="Path_4407" data-name="Path 4407" d="M1421.432,1420.372l-29.152-1.238v-1.855l29.152,1.238Z" transform="translate(-1357.471 -1406.447)" fill="#f9dec7"/>
          <path id="Path_4408" data-name="Path 4408" d="M1247.726,1439.017l-20.606-.875v-1.852l20.606.875Z" transform="translate(-1227.12 -1420.768)" fill="#f9dec7"/>
          <path id="Path_4409" data-name="Path 4409" d="M1364.478,1443.258l-20.608-.875v-1.852l20.608.875Z" transform="translate(-1319.264 -1423.963)" fill="#f9dec7"/>
          <path id="Path_4410" data-name="Path 4410" d="M1480.688,1447.5l-25.108-1.068v-1.852l25.108,1.068Z" transform="translate(-1407.43 -1427.014)" fill="#f9dec7"/>
          <path id="Path_4411" data-name="Path 4411" d="M1245.009,1463.384l-17.889-.76v-1.854l17.889.762Z" transform="translate(-1227.12 -1439.211)" fill="#f9dec7"/>
          <path id="Path_4412" data-name="Path 4412" d="M1346.369,1467.064l-17.889-.759v-1.855l17.889.762Z" transform="translate(-1307.118 -1441.984)" fill="#f9dec7"/>
          <path id="Path_4413" data-name="Path 4413" d="M1447.258,1470.749l-21.8-.925v-1.854l21.8.927Z" transform="translate(-1383.658 -1444.636)" fill="#f9dec7"/>
        </g>
        <g id="Group_146" data-name="Group 146">
          <path id="Path_4414" data-name="Path 4414" d="M914.905,763.3l-54.375-2.311v-3.7l54.375,2.308Z" transform="translate(-860.53 -757.29)" fill="#f99746"/>
          <path id="Path_4415" data-name="Path 4415" d="M889.68,798.31l-29.15-1.238V795.22l29.15,1.238Z" transform="translate(-860.53 -785.866)" fill="#f9dec7"/>
          <path id="Path_4416" data-name="Path 4416" d="M1054.85,804.31l-29.15-1.238V801.22l29.15,1.238Z" transform="translate(-990.889 -790.386)" fill="#f9dec7"/>
          <path id="Path_4417" data-name="Path 4417" d="M881.136,822.947l-20.606-.875V820.22l20.606.875Z" transform="translate(-860.53 -804.701)" fill="#f9dec7"/>
          <path id="Path_4418" data-name="Path 4418" d="M997.9,827.188l-20.606-.875V824.46l20.606.876Z" transform="translate(-952.682 -807.895)" fill="#f9dec7"/>
          <path id="Path_4419" data-name="Path 4419" d="M1114.1,831.43l-25.109-1.065V828.51l25.109,1.068Z" transform="translate(-1040.84 -810.947)" fill="#f9dec7"/>
          <path id="Path_4420" data-name="Path 4420" d="M878.419,847.321l-17.889-.76V844.71l17.889.759Z" transform="translate(-860.53 -823.151)" fill="#f9dec7"/>
          <path id="Path_4421" data-name="Path 4421" d="M979.781,851l-17.891-.759V848.39l17.891.759Z" transform="translate(-940.528 -825.924)" fill="#f9dec7"/>
          <path id="Path_4422" data-name="Path 4422" d="M1080.669,854.689l-21.8-.927V851.91l21.8.925Z" transform="translate(-1017.068 -828.576)" fill="#f9dec7"/>
        </g>
      </g>
      <g id="Group_148" data-name="Group 148" transform="translate(166.296 79.979)">
        <path id="Path_4423" data-name="Path 4423" d="M968.923,473.567l4.772-1.327L989.4,497.157l-5.41,1.5-3.4-5.576-9.946,2.765-.9,6.769-5.275,1.467Zm8.732,14.683-4.938-8.057-1.313,9.793Z" transform="translate(-964.47 -472.24)" fill="#afcdfb"/>
      </g>
      <g id="Group_149" data-name="Group 149" transform="translate(197.442 51.812)">
        <path id="Path_4424" data-name="Path 4424" d="M1112.319,371.208c.678-8,6.39-13.958,13.779-13.1,4.535.528,6.908,2.834,8.923,5.667l-3.524,3.894c-1.688-2.185-3.17-3.536-5.92-3.855-4.055-.471-7.311,3.129-7.729,8.037-.409,4.826,2.1,9.179,6.226,9.657,2.75.321,4.542-.772,6.6-2.562l3.01,4.614a11.133,11.133,0,0,1-10.27,3.64C1116.342,386.375,1111.627,379.371,1112.319,371.208Z" transform="translate(-1112.251 -358.026)" fill="#afcdfb"/>
      </g>
      <g id="Group_150" data-name="Group 150" transform="translate(270.383 55.057)">
        <path id="Path_4425" data-name="Path 4425" d="M1458.34,373.48l11.082-2.094c2.727-.515,5-.044,6.58,1.295a6.806,6.806,0,0,1,2.3,4.518,7.108,7.108,0,0,1-2.306,6.617c2.932.715,4.9,2.269,5.425,6.1.7,5.107-2.489,8.33-7.876,9.346l-11.353,2.145Zm11.514,9.411c2.318-.439,3.663-1.593,3.366-3.746-.253-1.835-1.623-2.641-3.84-2.222l-5.182.979.816,5.9Zm2.951,10.986c2.318-.439,3.585-1.66,3.288-3.813-.259-1.874-1.612-2.806-4.306-2.3l-6.07,1.147.847,6.143Z" transform="translate(-1458.34 -371.182)" fill="#afcdfb"/>
      </g>
      <g id="Group_151" data-name="Group 151" transform="translate(228.752 90.639)">
        <path id="Path_4426" data-name="Path 4426" d="M1260.861,528.848c.582-8.012,6.392-14.047,13.689-13.319a12.551,12.551,0,0,1,9.183,4.806l-3.68,4.38c-1.726-2-3.3-3.208-6.089-3.485-3.855-.382-7.206,3.3-7.56,8.17-.375,5.154,2.38,9.24,6.645,9.665a7.472,7.472,0,0,0,5.113-1.194l.293-4.027-5.334-.53.39-5.356L1283.973,529l-.889,12.242a14.1,14.1,0,0,1-10.614,3.445C1264.965,543.938,1260.25,537.264,1260.861,528.848Z" transform="translate(-1260.808 -515.469)" fill="#afcdfb"/>
      </g>
      <g id="Group_152" data-name="Group 152" transform="translate(504.818 105.944)">
        <path id="Path_4427" data-name="Path 4427" d="M2588.374,605.866a11.374,11.374,0,0,1-7.457.631c-7.3-1.808-11.385-9.467-9.948-17.416,1.423-7.867,7.893-13,15.191-11.191s11.385,9.467,9.948,17.416a15.1,15.1,0,0,1-3.532,7.428l2,3.014-4.091,3.49Zm-3.132-4.947-3.159-4.789,4.1-3.529,3.142,5.073a10.361,10.361,0,0,0,1.342-3.717c.858-4.745-1.4-9.435-5.591-10.471s-7.8,2.118-8.669,6.942c-.858,4.745,1.4,9.435,5.592,10.471A6.666,6.666,0,0,0,2585.242,600.919Z" transform="translate(-2570.684 -577.528)" fill="#afcdfb"/>
      </g>
      <g id="Group_153" data-name="Group 153" transform="translate(468.095 71.157)">
        <path id="Path_4428" data-name="Path 4428" d="M2396.44,439.844l4.86-.769,13.225,15.48-2-17.26,5.2-.824,3.246,28.032-4.483.71-13.666-15.98,2.063,17.82-5.2.824Z" transform="translate(-2396.44 -436.47)" fill="#afcdfb"/>
      </g>
      <g id="Group_154" data-name="Group 154" transform="translate(310.436 89.394)">
        <path id="Path_4429" data-name="Path 4429" d="M1648.38,510.42l5.667.688,3.288,19.657,7.092-18.478,4.533.552,3.695,19.788,6.673-18.446,5.53.673-10.728,27.339-4.6-.56-3.794-19.07-7.062,17.748-4.6-.56Z" transform="translate(-1648.38 -510.42)" fill="#afcdfb"/>
      </g>
      <g id="Group_156" data-name="Group 156" transform="translate(61.997 390.161)">
        <path id="Path_4430" data-name="Path 4430" d="M469.59,1754.676a9.35,9.35,0,0,0,.053,1.009,9.248,9.248,0,0,0,.805,2.95,8.267,8.267,0,0,0,1.212,1.894,6.582,6.582,0,0,0,5,2.422h99.452c3.905,0,7.073-3.7,7.073-8.274a9,9,0,0,0-2.072-5.852,6.574,6.574,0,0,0-5-2.424H476.661C472.756,1746.4,469.59,1750.1,469.59,1754.676Z" transform="translate(-469.59 -1742.363)" fill="#f78248"/>
        <path id="Path_4431" data-name="Path 4431" d="M501.515,1732.57h34.1a1.193,1.193,0,0,0,1.085-1.27h0a1.193,1.193,0,0,0-1.085-1.27h-34.1a1.193,1.193,0,0,0-1.085,1.27h0A1.193,1.193,0,0,0,501.515,1732.57Z" transform="translate(-493.93 -1730.03)" fill="#f78248"/>
        <rect id="Rectangle_64" data-name="Rectangle 64" width="3.697" height="1.497" transform="translate(13.164 4.038) rotate(180)" fill="#ea642f"/>
        <path id="Path_4432" data-name="Path 4432" d="M473.66,1796.01a8.267,8.267,0,0,0,1.212,1.894,6.581,6.581,0,0,0,5,2.422h21.065v-4.316Z" transform="translate(-472.802 -1779.739)" fill="#ea642f"/>
        <path id="Path_4433" data-name="Path 4433" d="M645.654,1752.252v4.848a6.762,6.762,0,0,1-.175,1.534,5.2,5.2,0,0,1-4.824,4.316h-103.6a5.2,5.2,0,0,1-4.824-4.316,6.762,6.762,0,0,1-.175-1.534v-4.848c0-3.231,2.236-5.852,5-5.852h103.6C643.418,1746.4,645.654,1749.019,645.654,1752.252Z" transform="translate(-518.894 -1742.363)" fill="#f99746"/>
        <path id="Path_4434" data-name="Path 4434" d="M646.134,1796.01a5.2,5.2,0,0,1-4.824,4.316h-103.6a5.2,5.2,0,0,1-4.824-4.316Z" transform="translate(-519.549 -1779.739)" fill="#ef873a"/>
        <g id="Group_155" data-name="Group 155" transform="translate(116.471 4.037)">
          <path id="Path_4435" data-name="Path 4435" d="M1022.22,1754.706a10.131,10.131,0,0,0,2.057,6.39c.03.034.055.067.084.1a4.71,4.71,0,0,0,3.549,1.813c2.1,0,7.294-3.7,10.517-6.16,1.606-1.226,2.719-2.143,2.719-2.143s-1.115-.917-2.719-2.143c-3.222-2.461-8.419-6.163-10.517-6.163a4.1,4.1,0,0,0-1.741.395,5.935,5.935,0,0,0-2.4,2.215,9.992,9.992,0,0,0-1.439,4.049.489.489,0,0,0-.006.054A11.884,11.884,0,0,0,1022.22,1754.706Z" transform="translate(-1022.22 -1746.4)" fill="#cde0fb"/>
          <path id="Path_4436" data-name="Path 4436" d="M1022.22,1775.213a10.132,10.132,0,0,0,2.057,6.39l15.944-6.419-17.9-1.563A11.878,11.878,0,0,0,1022.22,1775.213Z" transform="translate(-1022.22 -1766.907)" fill="#a6c7ed"/>
          <path id="Path_4437" data-name="Path 4437" d="M1029.58,1750.214l15.906,5.083-13.507-7.3A5.932,5.932,0,0,0,1029.58,1750.214Z" transform="translate(-1028.029 -1747.605)" fill="#e3f0ff"/>
          <path id="Path_4438" data-name="Path 4438" d="M1094.2,1773.533a2.382,2.382,0,0,0,1.039,2.143c1.606-1.225,2.719-2.143,2.719-2.143s-1.115-.917-2.719-2.143A2.377,2.377,0,0,0,1094.2,1773.533Z" transform="translate(-1079.03 -1765.227)" fill="#f99746"/>
        </g>
      </g>
      <g id="Group_162" data-name="Group 162" transform="translate(111.932 192.205)">
        <g id="Group_157" data-name="Group 157" transform="translate(0 62.037)">
          <path id="Path_4439" data-name="Path 4439" d="M871.393,1336.656h0a1.866,1.866,0,0,0,1.667-1.356l42.864-154.086a.985.985,0,0,0-.908-1.374h0a1.866,1.866,0,0,0-1.667,1.356l-42.864,154.086A.987.987,0,0,0,871.393,1336.656Z" transform="translate(-835.885 -1179.603)" fill="#233862"/>
          <path id="Path_4440" data-name="Path 4440" d="M707.484,1335.7h0a1.866,1.866,0,0,0,1.667-1.356l42.864-154.086a.985.985,0,0,0-.908-1.374h0a1.866,1.866,0,0,0-1.667,1.356l-42.864,154.086A.987.987,0,0,0,707.484,1335.7Z" transform="translate(-706.521 -1178.88)" fill="#233862"/>
          <path id="Path_4441" data-name="Path 4441" d="M884.173,1263.637l34.689.237a1.771,1.771,0,0,0,1.574-1.28h0a.933.933,0,0,0-.858-1.3l-34.689-.237a1.771,1.771,0,0,0-1.574,1.28h0A.932.932,0,0,0,884.173,1263.637Z" transform="translate(-846.014 -1240.794)" fill="#233862"/>
          <path id="Path_4442" data-name="Path 4442" d="M848.664,1372.727l34.689.237a1.771,1.771,0,0,0,1.574-1.28h0a.932.932,0,0,0-.858-1.3l-34.688-.237a1.771,1.771,0,0,0-1.574,1.28h0A.932.932,0,0,0,848.664,1372.727Z" transform="translate(-817.988 -1322.981)" fill="#233862"/>
          <path id="Path_4443" data-name="Path 4443" d="M814.467,1477.8l34.688.237a1.771,1.771,0,0,0,1.574-1.28h0a.933.933,0,0,0-.858-1.3l-34.688-.237a1.771,1.771,0,0,0-1.574,1.28h0A.933.933,0,0,0,814.467,1477.8Z" transform="translate(-790.999 -1402.14)" fill="#233862"/>
          <path id="Path_4444" data-name="Path 4444" d="M775.967,1596.087l34.688.236a1.771,1.771,0,0,0,1.574-1.28h0a.933.933,0,0,0-.858-1.3l-34.689-.236a1.77,1.77,0,0,0-1.574,1.28h0A.934.934,0,0,0,775.967,1596.087Z" transform="translate(-760.613 -1491.259)" fill="#233862"/>
          <path id="Path_4445" data-name="Path 4445" d="M735.666,1719.887l34.689.237a1.771,1.771,0,0,0,1.574-1.28h0a.933.933,0,0,0-.858-1.3l-34.689-.237a1.771,1.771,0,0,0-1.574,1.28h0A.934.934,0,0,0,735.666,1719.887Z" transform="translate(-728.806 -1584.528)" fill="#233862"/>
        </g>
        <g id="Group_161" data-name="Group 161" transform="translate(48.28)">
          <g id="Group_159" data-name="Group 159">
            <path id="Path_4459" data-name="Path 4459" d="M967.989,1109.463,938.367,1142.1c-.582.639-1.313.843-1.627.454l-1-1.243c-.314-.39-.1-1.233.485-1.874l29.622-32.634c.58-.639,1.313-.844,1.627-.454l1,1.243C968.788,1107.981,968.571,1108.824,967.989,1109.463Z" transform="translate(-935.597 -1062.047)" fill="#1f4d84"/>
            <path id="Path_4460" data-name="Path 4460" d="M951.367,1185.713l-13,14.321c-.582.639-1.313.844-1.627.454l-1-1.243c-.314-.39-.1-1.233.485-1.874l13-14.321Z" transform="translate(-935.597 -1119.984)" fill="#f78248"/>
            <path id="Path_4461" data-name="Path 4461" d="M1053.219,962.414a28.072,28.072,0,0,0,6.3,11.859c9.339,10.281,24.035,9.756,32.821-1.171,8.671-10.784,8.348-27.667-.639-37.99-.118-.138-.24-.276-.365-.412-9.339-10.281-24.031-9.758-32.817,1.169C1052.61,943.218,1050.878,953.4,1053.219,962.414Zm6.635-25.075c5.113-6.36,12.4-8.9,19.24-7.509a20.3,20.3,0,0,1,10.989,6.432c8.6,9.47,9.014,25.3.921,35.371a20.818,20.818,0,0,1-10.631,7.2c-6.759,1.872-14.163-.138-19.6-6.123C1052.174,963.24,1051.761,947.405,1059.854,937.339Z" transform="translate(-1027.635 -927.319)" fill="#1f4d84"/>
            <g id="Group_158" data-name="Group 158" transform="translate(26.409 2.144)" opacity="0.5">
              <path id="Path_4462" data-name="Path 4462" d="M1097.864,978.18a20.837,20.837,0,0,1-10.631,7.2c-6.757,1.872-14.163-.138-19.6-6.123-8.6-9.47-9.014-25.3-.921-35.371,5.113-6.36,12.4-8.9,19.24-7.507a20.307,20.307,0,0,1,10.989,6.429C1105.544,952.281,1105.957,968.116,1097.864,978.18Z" transform="translate(-1060.904 -936.013)" fill="#b3cff9"/>
            </g>
          </g>
        </g>
      </g>
      <path id="Path_4467" data-name="Path 4467" d="M780.494,1815.436l-588.567-.237a.875.875,0,0,1-.8-.932v-.735a.875.875,0,0,1,.8-.932l588.567.237a.875.875,0,0,1,.8.932v.735A.875.875,0,0,1,780.494,1815.436Z" transform="translate(-187.821 -1402.077)" fill="#2e3552"/>
    </g>
  </g>
</svg>
