<svg xmlns="http://www.w3.org/2000/svg" viewBox="0 0 480 480" xmlns:v="https://vecta.io/nano"><path d="M340.26 235.75l-.57-1.52-6.65-5.45-2.3-3.3 4.46.5.9-.7-2.22-1.58-6.33-3.42-5.2-1.46-2.98-.25-.23-.23.33-.4c.3-.5.3-1.1-.1-1.5l-4-3.6c-.5-.5-1.2-.4-1.6 0l-.06.07-2.06-2.06-22.4-30.05L281 168l-12.46-20.1 7.73-4.66s-8.7-15.3-15.2-25.4c-8.8-13.1-23-26.4-38.2-17.8-1.53.84-2.83 1.77-3.95 2.78-.26.2-.53.4-.8.63-5.48 1.1-11.15 3.77-16.45 6.2-11.7 5.3-28 17.8-28 17.8l5.45 6.88-3.05 2.32c-5.7 3.7-9.2 7.6-11.8 11.4-3.2 4.6-5 12.8-6.8 27-2.6 21-2.6 43.8-2.6 43.8s-3 6.4-1.1 13.8c1.9 7.5 1.8 8.9 2.4 9.7 1 1.4 2.1 0 2.1 0s.5 2.1 1.9 2.3c1.2.1 1.5-1.3 1.5-1.3s.6 1.3 1.7.9c.8-.3 1.1-2.7 1.1-5.4 0-2.2 1.5-7.4 1.6-8.4s1.1 1.5 1.7 3c.8 1.7 2.4 2.8 2.1-.3s-.2-5.7-.3-6.5c-.2-.9-.5-4.1-1.5-6-.7-1.3-2.5-3.2-2-6.6.6-5.8 5.8-21.1 8.9-30.5 2.3-6.7 4.9-16.3 7.1-19.1 2.8-2.63 7.4-6.45 12.54-10.56l5.52 6.98-8.97 46.98h79.3v-.06c0-.07-.01-.2-.02-.4l-.04-.7v-.1l-.06-1.22-.13-2.44c-.01-.13-.01-.26-.02-.4l-.1-1.56-.04-.67c0-.07-.01-.15-.01-.22l-.2-3.9-.03-.48-.08-1.4c-.01-.23-.03-.45-.04-.68l-.05-.88-.03-.44-.05-.82 10.03 9.74 20.12 16.98 6.14 4.28c-.28.5-.27 1.07.12 1.46l4.2 3.3c.5.3 1.1.3 1.5-.1l.24-.3 2.45 1.78 1.9 2.15 2.6 2.66 3.42 2.53 8.74 3.36 4.24 1.33.7-.5-.14-1.26 2.16.18 1.14-.7-.35-1.38 1.48-1.27zm-182.63-67.32l-.03.27c0-.02 0-.03.01-.05a1.5 1.5 0 0 1 .02-.22zm38.3-56.65l.46-.2c-.02-.02-.14.02-.46.2zm1.62 47.06c.05.06.07.08.08.08l-.08-.08zm73.4 50.26h.42c-.14 0-.3.01-.4.01zm15.1-1.2l.2.16-.03-.03a.96.96 0 0 0-.17-.13zm-72 .72l-.3.01.3-.01z" fill="#fff"/><path d="M340.87 235.2c.1.46-.16.9-.43 1.13.25-.28.37-.6.36-.87a1.42 1.42 0 0 0-.15-.54l-.17-.37c-.07-.13-.1-.33-1-1.13l-.06.1-1.8-1.48-.83-.63c-.25-.2-.5-.4-.73-.62-.94-.88-1.8-1.85-2.9-3.03l-1.4-1.4.44.06 1.13.22c.18.03.36.1.63.13.22.03.45.04.67.05.23 0 .44-.01.7-.06.33-.06.66-.15.92-.32.27-.16.45-.4.52-.7.04-.3 0-.6-.2-.84-.07-.14-.2-.25-.3-.36s-.25-.24-.34-.3a4.52 4.52 0 0 0-.6-.36l-1.06-.55c-1.4-.73-2.7-1.58-4.1-2.42l-.56-.3c-.1-.05-.22-.1-.32-.15l-.25-.1-1.1-.48-2.26-.88c-.78-.25-1.57-.45-2.42-.53-.84-.04-1.57-.02-2.3-.16a5.53 5.53 0 0 1-.96-.28c.32-.68.23-1.43-.28-1.93l-3.98-3.58c-.6-.6-1.4-.6-1.97-.25l-2.27-2.86-.27-.5c-.05-.26-2.3-2.6-2.5-3.05l-.94-1.12c-.23-.34-.74-1.04-.27-.48l-1.48-1.84-.8-1.2-9.33-12.33c-1.92-2.77-4.84-6.65-7.7-10.65-1.42-2-2.84-4.03-4-6l-.4-.73-.27-.54c-.02-.03-.1-.2-.15-.26l-.9-1.35-1.64-2.47c-3.8-5.72-7.6-12.3-11.4-18.7 1.2-.78 2.82-1.67 3.55-2.18l.12.06 2.35-1.45-.9.5c.04-.1.17-.22.38-.35.23-.14.4-.22.95-.5l.8-.42c.23-.17.8-.27.42-.62l-.53-.93c-.1-.16-.2-.32-.3-.48-.07-.1-.15-.22-.22-.33-.9-1.64-2.45-2.97-3.3-4.73-.6-.73.6.6-.18-.55.1-.12.4.5.34.14-.75-1.14-1-2-1.93-3.4l.07-.12c-1.3-1.77-1.97-3.64-2.9-4.78-1.26-1.88-.46-1.5-1.9-3.38l-.33-.87c-.5-.87-.55-.5-1.07-1.5.13 0-.67-1.25-.24-.74-1.2-2.22-2.88-4.27-4.66-7.15-.6-.47-1.53-1.9-2-2.22.03-.14-2.15-2.63-.78-1.3.12.1.3.34.26.35l.24.1c-1.05-1.64-2.36-2.6-3.65-4 .37.43.88.98.48.67-.4-.44-.8-.86-1.22-1.3l.33.2c-.6-.65-1.22-1.28-1.86-1.9l.18.34c-.9-.92-1.1-1.4-2.36-2.2-.58-.34.85.9-.24.08-1.28-1.17-3.34-2.8-5.3-3.92.1.23-.4-.08-.98-.33v-.14c-1.1-.47-1.3-.58-1.46-.74-.17-.15-.33-.33-1.5-.68l-.45.02c-1.07-.2-1.32-.36-1.62-.48-.3-.1-.63-.3-1.85-.32.94.14.4.34-.74.1l.3-.07c-.64-.08-.86-.02-1.3-.1.4-.01.22-.18-.73-.2.22-.05.43-.1.65-.1-.6.02-1.22.1-1.8.15-1.4-.16-3.57.38-4.16.35 0 0-.2.03-.47.1a36.72 36.72 0 0 1-1.07.28c-.8.27-1.65.6-1.92.84.5-.35-1.02.27-.65-.04-.34.2-1 .6-1.66 1-.67.4-1.33.84-1.76 1.02l.14-.1c-1.5.78-2.55 1.86-3.6 2.8-.03.03-.05.06-.08.1l-1.3.32c-.86.26-.92.57-2.45.98.46-.25-.16-.04-.72.14.36-.12.45-.2-.3-.02-.1.07-.25.15-.4.22-.01-.01-.04 0-.03-.02-.92.38-.75.35-.3.2-.02.02.03.03.17.01-1.02.2-2.67 1.03-2.85.9-2.74 1.16-4.58 2.22-6.78 3.3-.3.03.2-.28.83-.6l-1.57.76c-.04-.13.88-.5 1.35-.73-1.97.65-3.82 2-6.06 2.98l-.4.34-.14.06c.03.05-.4.38-.72.57-.36.07-.1-.25-1.16.35-.88.4-2.33 1.4-3.35 2.13.58-.34.43-.17.2.02-.5.32-.87.4-1.24.7l-.13-.1c.28 0-1.25.98-1.4 1.15-.35.1.74-.6.82-.74-2.03 1.32-1.03.65-3.04 2-1 .8.28 0-.16.45-.94.65-1.8 1.36-2.93 2.02l.42-.12c-1.7 1.3-2.76 2-4.02 2.73-2.97 2.46-4.57 3.94-5.33 4.75-.47-.42-.63-.4-.3.33-.47.57-.28.62.18.4 0 0 .01-.01.02-.01.54 1.02 1.7 2.9 3.73 5.93l-.12-.08c.07.1.14.18.2.28l-.85.63-1.4 1.05c-.37.27-.9.6-1.33.9-1.76 1.2-3.26 2.36-4.67 3.62s-2.76 2.63-4.15 4.34c-.7.85-1.4 1.8-2.12 2.85-.75 1.1-1.4 2.36-1.98 3.8-1.13 2.72-1.88 5.64-2.5 8.55s-1.07 5.82-1.48 8.6c-.28 2.65-1 7.3-1.23 10.46l-.2 1.2a65.59 65.59 0 0 1-.32 3.44l-.01-.07c-.1 1.62-.3 3.44-.3 4.25l-.02-.07-.14 1.97v-.34l-.5 8.3.1-.2c-.4 5.48-.28 7.5-.55 12.44l-.02-.07-.03 4.7-.1 4.07c0-.01-.07.15-.13.3l-.16.4c-.1.27-.2.55-.3.83-.2.56-.35 1.15-.5 1.76a19.44 19.44 0 0 0-.54 4.02c.05-.82-.08.35-.08.28-.22 3.07.6 6.3.78 6.28.5 2.1.37 1.72.37 2 .07-.03.54 1.8.9 3.43l-.2-.75.52 2.36c.18.8.3 1.56.6 2.42-.1-.36-.12-.68-.14-1 .26 1.28.52 1.52.57 1.65.04.08.07.16.27.34.1.08.24.2.5.3a1.46 1.46 0 0 0 1-.05l-.08-.1c.1-.03.1-.05.15-.07a1.4 1.4 0 0 0 .29-.23c.06.03.08.24.13.33.04.14.23.54.45.85s.5.6.85.8c.34.2.82.3 1.23.16.22-.05.4-.16.58-.28a1.5 1.5 0 0 0 .22-.2c.03-.02.05-.05.07-.07.06-.08.1-.16.13-.23.04.1.1.2.16.26l.07.07a1.4 1.4 0 0 0 .3.18c.22.1.5.16.76.16a1.67 1.67 0 0 0 .39-.06c.17-.03.28-.12.42-.2a1.75 1.75 0 0 0 .52-.65c.45-1 .5-1.9.6-2.84.08-.9.07-1.9.1-2.72.15-1.7.6-3.5 1-5.27l.2-.93a2.7 2.7 0 0 0 .07-.41c.03-.1.1.04.13.07l.1.18.1.2.18.43c.2.42.3.82.57 1.3.12.22.26.43.4.64.1.1.16.2.27.32.14.12.26.28.4.37a1.31 1.31 0 0 0 .94.3c.34-.04.6-.3.73-.6.07-.16.14-.3.15-.5.03-.18.07-.37.06-.5a6.31 6.31 0 0 0-.02-.77c-.18-1.82-.25-3.6-.28-5.4-.02-.47 0-.87-.1-1.43l-.22-1.3c-.15-.9-.3-1.78-.55-2.66-.24-.87-.55-1.77-1.05-2.56-.47-.75-.92-1.44-1.2-2.2-.3-.74-.46-1.53-.48-2.3-.02-.77.15-1.6.26-2.4l.2-.55c.13-.22.58-3.58.84-4.04l.34-1.5c.13-.4.4-1.28.22-.54.4-1.37.38-1.4.63-2.4l.5-1.45 4.93-15.6 2.06-6 2.3-7.2c.8-2.46 1.63-4.96 2.65-7.13.26-.54.52-1.06.83-1.5.07-.1.17-.26.2-.28l.3-.28c.2-.2.42-.4.62-.58.8-.76 1.56-1.5 2.33-2.1 5.22-4 5.72-6.07 4.8-5.26l.18-.18c-1.55 1.4-2.08 1.72-3.83 3.26-.1.07-.24.17-.22.15-.83.78-2.1 1.85-3.3 2.92l-.88.8-.42.38-.2.18c-.1.07-.18.2-.22.26-.44.6-.73 1.17-.93 1.6l-.1.08c-.67 1.4-1.2 2.8-1.72 4.23l.6-1.6c-.05.6-1.32 3.18-2.2 6.35-.97 2.92-1.5 6.05-2.63 9.04-.4 1.47.3-1.32-.36.86-.1.04.28-1.03.02-.5-.66 2.13-1.24 3.44-2.04 6.08l-.1.08c-1 3.45-2.2 6.4-2.77 8.74-1.02 3.56-.95 2.3-1.88 6.06l-.5 1.42c-.45 1.6-.2 1.18-.68 2.95-.04-.13-.56 2.27-.38 1.2-.25 1.02-.44 2.06-.56 3.15-.15 1.1-.06 2.36.35 3.5.38 1.17 1.13 2.23 1.72 3.2.53.96.82 2.2 1.03 3.52.17.54.33 1.55.5 2.42.07.85.06 1.8.13 2.24-.03.07 0 1.46.05 2.44s.08 1.56-.1 0c-.03-.27-.05-.74-.02-.7l-.1-.37a27.6 27.6 0 0 0 .09 2.27l.1 1.03.01.36v.07c0 .05-.06.1-.1.07-.03-.01-.05-.02-.07-.04l-.02-.02-.07-.08a1.27 1.27 0 0 1-.14-.17c-.2-.26-.34-.5-.47-.8l-.43-1.05.46 1.2c.1.24.14.32-.04.03l-.54-1.35c-.28-.65-.63-1.5-1-1.86.14.1.3.3.45.54-.16-.3-.32-.52-.48-.68a.51.51 0 0 0-.4-.32c-.08-.01-1.86-.25-3.4-2.6-1.35-2.16-.3-5.1-.3-5.14a.5.5 0 0 0-.3-.64c-.26-.1-.54.04-.64.3-.05.14-1.22 3.44.4 6.02 1.18 1.8 2.52 2.54 3.35 2.84-.03.07-.06.15-.08.25l-.2.95-.32 1.3.2-.55c-.5 2.03-.85 2.7-1.13 5.1-.1 1.1.4-2 .1.25-.1.55-.12 1.25-.13 1.85-.02.63-.07 1.3-.15 1.97-.08.66-.2 1.38-.44 1.9-.16.3-.14.26-.3.3-.08.01-.14 0-.2-.03-.04-.01-.07-.04-.1-.06-.1-.05-.23-.24-.33-.4h-.2l-.08-10.12 2.27-.2c.27-.05.46-.3.4-.57s-.3-.45-.57-.4c-.03 0-.65.1-3.48.3-1.3.15-2.22.06-3.2-.03l-.8-.07a.51.51 0 0 0-.54.46c-.02.28.2.52.46.54s.52.04.78.07a8.75 8.75 0 0 0 .51.04c0 .02-.01.03-.01.04v8.82c-.08-.02-.16-.04-.27-.06-.06.07-.13.1-.2.15-.1.07-.13.08-.16.1-.08.03-.1.01-.13.01-.03-.01-.06-.02-.17-.1-.05-.03-.12-.13-.2-.2-.06-.08-.1-.17-.17-.32.05.07.1.14.14.18-.14-.14-.27-.42-.4-.7-.85-3.22-.2-1.8-1.23-5.43.35 1.45 0 .72-.4-1.07l.18.43c-.25-.98-.36-1.3-.5-1.96.2.58.16.27-.17-1.14l.3.93c-.26-.9-.5-1.75-.65-2.66-.1-1.05-.18-2.4-.1-3.62.05-1.2.2-2.26.34-2.67 0 0 .14-.84.4-1.85a23.13 23.13 0 0 1 .45-1.57c.1-.25.17-.5.25-.73l.12-.32c.06-.14.1-.28.17-.4-.01-.18-.01-.34-.01-.48-.01-.1-.01-.2-.02-.27.06.94.1-1.63.18-.9-.07-1.2-.07-4.77.05-6.2v.27c.22-5.27.18-9.03.53-13.75-.1.2.1-2.28-.05-1.67.18-4.9.83-8.9.66-10.7.17-2.22.3-2.62.45-3.77l-.04.53c.4-4.16.54-5.36.93-8.44.17-1.54.04-1.8.47-4.54-.07.9.1-.23.24-1.25-.1.66-.1.86.15-.48.01-.2.05-.5.08-.76.01-.01.02-.06.02-.03.25-1.7.2-1.42.05-.63 0-.04-.03.02-.08.27.36-1.76.87-4.93 1.03-5.12.5-2.55 1.02-4.7 1.63-6.73.63-2 1.32-3.9 2.47-5.7.3-.37-.22.47-.77 1.58a21.4 21.4 0 0 1 1.57-2.58c.05.08-.98 1.44-1.37 2.28 1.88-3.02 4.18-6.23 7.43-8.96l.63-.63.2-.15c-.03-.02.68-.66 1.17-1.06.52-.3.05.14 1.76-1.1l1.23-.8c.52-.35.95-.72 1.46-1.1l1.15-.9c1.4 1.88 2.47 3.2 3.75 4.5-.01.45 1.58 2.05 1.97 2.68l-.06-.04c1.37 1.37 2.3 3.22 3.62 4.55-.06-.04-.15-.02-.42-.36.87 1.04 2.06 2.44 2 2.63 2.04 2.5 4.77 6.08 6.26 7.53l-.12-.08c.87.8.97 1.18 1.86 2.15.03.07.08.15.06.14.42.4.94 1.04 1.45 1.7-.8 3.94-1.58 7.85-2.16 11.6-.1.34-.2 1.24-.17 1.24l-1.86 9.68s-8.95 46.95-.46 11.6v.25c1.1-5.28 1.77-8.62 2.23-12.32.4-.53.85-4.35 1.18-5.58v.12c.4-3.27 1.44-6.63 1.83-9.8 0 .12.06.2-.07.92.4-2.28.92-5.4 1.1-5.54.98-5.44 2.5-13 2.88-16.52v.25c.2-2 .46-2.57.8-4.8.04-.12.1-.27.1-.25.26-2.2 1.1-6.3 1.32-8.06l.13-.1c.12-.7.22-1.44.37-2.15l.46-2.12-.38 1.58c-.1-.3.14-1.1.45-2.2.33-1.1.65-2.53 1.02-4.06.44-1.4.64-2.9 1-4.38.4-1.46.73-2.97 1.4-4.36.47-1.4-.3 1.26.48-.77.18 0-.32.97.02.5.4-1 .8-1.77 1.2-2.6l.74-1.25c-.1.38-.15.74-.2 1.06.7-2.7 3.62-5.78 5.95-7.9.8-.92 1.65-1.64 3.05-2.55l.03.01c.7-.54 1.35-1.03 2.02-1.4.7-.37 1.35-.67 2.04-.9 1.37-.5 2.76-.9 4.58-1.36-.45.1.2.05.18.1.84-.14 1.73-.2 2.4-.25.68-.02 1.15-.1 1.17-.23 1.27.13 1.02.2 1.17.32.01-.13 1.1-.04 2.08.2l-.46-.06c.93.2 1.85.44 2.75.76-.15-.14-.3-.3-.46-.4 1.42.6.27.38 1.65.87l.06-.2c1.93.9 2.88 1.76 4.5 3 7 4.8 13.23 12 17.1 19.04l.06.38c-.1.24 1.44 1.73 1.44 2.1l.58.75c.1.25.36.74.08.37.45.75.5.75.87 1.25l.37.87c1.7 3 3.4 5.38 5.18 8.53a78.36 78.36 0 0 0 1.85 3.4l1.13 1.96c.2.33.4.67.6 1l.25.43.08.13.1.13c-.03.03-.08.06-.12.1l-.13.1-.15.1-.25.16-1.95 1.24-3.43 2.2c-5.52 3.7-12.57 6.96-18.2 10.78-.2.1-.66.44-.64.46l-5.34 3.2s-9.54 5.72-12.43 7.9c-.54-1.4-1.62-3.63-1.62-3.63-2.78-6.13-4.7-9.06-8.02-16.35-1.36-3.24-2.07-5.35-2.78-7.48-.56-1.7-1.07-3.38-1.8-5.74-.83-2.3-2.3-6.22-2.7-6.15-.56.1 1 6.78 1 6.78-.01.3-.26-.26-.5-.98h0l.56 1.8c-.13.02-.38-1-.57-1.56.4 2.2 1.55 4.4 2.26 6.93l.3.48.04.15c.05-.03.33.5.5.86.02.4-.26.07.2 1.3.3 1 1.14 2.7 1.74 3.92-.27-.68-.12-.5.04-.2.26.6.3 1 .54 1.43l-.12.12c.03-.3.83 1.5 1 1.7.04.4-.5-.88-.65-1 1.1 2.38.52 1.2 1.63 3.56.7 1.22.03-.3.43.25.54 1.1 1.16 2.14 1.68 3.45l-.07-.46c1.1 2.03 1.7 3.27 2.27 4.73 2.15 3.6 3.45 5.58 4.18 6.52-.5.43-.5.6.27.33.53.6.6.43.43-.1 0-.02-.01-.04-.02-.05 1.14-.45 3.3-1.46 6.9-3.26l-.1.12c2.97-1.66 4.82-2.75 6.7-4.16.47.06 2.4-1.42 3.14-1.75l-.05.06c1.66-1.26 3.76-2.05 5.37-3.25-.05.06-.05.15-.44.4 1.23-.78 2.9-1.87 3.08-1.78 2.96-1.84 7.16-4.28 8.93-5.66l-.1.12c.98-.8 1.4-.87 2.52-1.65l8.06 12.9-.15-.2c1.14 1.6 1.36 2.16 2.58 4 .05.1.13.24.1.23a127.06 127.06 0 0 1 2.29 3.47l1.2 1.8.13.2c.02.03.01.01.03.05l.05.1.2.4c.12.27.26.48.37.67v.13c.72 1.26 1.5 2.45 2.3 3.64l-.87-1.35c.45.37 1.7 2.78 3.6 5.23 1.67 2.38 3.77 4.53 5.48 7 .92 1.1-.86-.93.46.75-.04.1-.64-.77-.38-.28 1.28 1.67 1.98 2.84 3.58 4.88v.13c2.14 2.63 3.75 5.18 5.22 6.9 2.16 2.75 1.24 2 3.57 4.8l.8 1.18c.94 1.24.78.8 1.8 2.2-.12-.04 1.3 1.75.64 1 1.08 1.43 2.24 2.85 3.5 4.33l-1 1.23c-.68.1-1.3.42-1.75.94l-3 3.5c-.54.63-.78 1.43-.7 2.2l-.76.92c-3-2.22-5.27-4.2-6.57-4.86-1.68-1.27-1.92-1.6-2.76-2.3l.4.3-6.26-5.02c-1.15-.9-1.43-.93-3.4-2.65.7.5-.14-.18-.88-.82.48.4.64.5-.3-.36-.15-.1-.37-.28-.57-.44 0-.01-.04-.05-.02-.04-1.25-1.06-1.05-.85-.48-.35-.04-.02 0 .03.17.2-1.24-1.17-3.57-3.12-3.64-3.34-3.67-3.27-6.3-5.62-9.22-8.5-.28-.37.42.28 1.3 1.1l-2.07-2.04c.08-.04 1.2 1.15 1.86 1.77-2.36-2.52-5.12-4.97-7.74-8.06l-.6-.6-.15-.2c-.02.03-.65-.62-1.04-1.07-.3-.5.12-.05-1.1-1.63-.9-1.3-2.74-3.6-4.02-5.24.66.9.42.64.1.27-.6-.8-.9-1.3-1.4-1.9l.01-.1c-.14-.07-1.67-2.1-1.9-2.35-.3-.5.98 1.2 1.18 1.38l-3.64-4.83c-1.35-1.68.16.37-.52-.4-1.15-1.5-2.32-2.95-3.58-4.73l.35.6c-1.32-1.7-.37 1.6 8.15 12.16 1.72 2.13 2.95 4 4.14 5.6 1.18 1.64 2.36 2.97 3.52 4.3a155.14 155.14 0 0 0 3.83 4.15c.02.05.03.12.05.16.15 2.15.01 2.56.05 3.68l-.06-.5.5 8.2c.07.75.17 1.18.27 1.76.05.3.1.62.13 1.04l.04.5c0 .15.01.3.02.5-.07-.3-.1-.26-.1-.12.05.1-.13.05-.22.06h-.36c.16-.01.25-.02.22-.04-.01-.01-.06-.02-.13-.04-.04-.01-.08-.01-.13-.02-.03 0-.05-.01-.08-.01-.07 0-.15-.01-.23-.01-.2.03-.47.05-.74.07-.01-.01-.06-.01-.04-.03-1.68.04-1.4.07-.6.08-.04.02.03.04.27.07-1.74-.14-4.86.01-5.07-.17-5.05.04-8.66.23-12.86.3-.47-.1.5-.18 1.73-.2l-2.98.03c.03-.13 1.7-.08 2.63-.1-3.55-.22-7.32.22-11.48.02l-.86.1-.25-.02c.01.06-.92.13-1.54.15-.6-.12.04-.27-2.02-.26-1.63-.1-4.63.06-6.76.12 1.15.02.78.08.28.13-1.03 0-1.62-.1-2.42-.06l-.08-.12c-.14.12-2.75.13-3.1.2-.6-.12 1.6-.1 1.86-.2l-6.2.02c-2.2.12.4.15-.65.3-1.95.03-3.84.14-6.08.05l.7.14c-3.66.1-5.84.1-8.3-.05-27.24 1.14-5.74 1.56-5.74 1.56 10.72.3 16.26-.1 29.02-.2 11.22.07 14.2.34 25.82.23l8.5-.02 9.5-.06c.13-.02.34.03.4-.06-.01-.16-.03-.33-.04-.5l-.08-1.03-.12-1.72-.15-2.66c-.1-1.84-.2-3.73-.37-5.25l.05-1.2c-.1-.87-.2-1.87-.2-2.8l3.1 3.04c3.88 3.8 8.23 7.64 12.28 11.07 2 1.54 5.34 4.47 7.74 6.24l.86.78c.83.6 1.8 1.34 2.58 2h-.06c1.24.9 2.6 1.98 3.22 2.42h-.06l1.5 1.12-.27-.17 3.52 2.6c-.07.5.07 1.03.46 1.4l4.25 3.34c.3.2.65.28.97.28.34 0 .66-.1.94-.3l2.33 1.6.2.3c.1.12.18.25.27.38l.6.77c.43.52.9 1.07 1.44 1.65l-.06-.03c2.22 2.07 4.18 3.46 6.34 4.58 1.07.55 2.25 1 3.43 1.4l3.9 1.35c-.72-.24.3.16.22.15 1.33.47 2.58 1.05 3.8 1.36.65.13 1.26.05 1.7-.22.44-.3.5-.66.48-.67a1.52 1.52 0 0 0 .11-.4c.02-.1.01-.1.01-.16 0-.13-.03-.23-.04-.3.23.04.26.1.3.14l.02.02c-.01-.02.02-.03.1-.03.1 0 .47.03.8 0 .36-.03.8-.1 1.25-.4.33-.23.57-.57.67-.97-.05.2-.1.38-.22.54a1.71 1.71 0 0 0 .3-.86c0-.16-.01-.3-.04-.46-.05-.18-.04-.14-.07-.2-.05-.1-.12-.2-.2-.28.1.01.23 0 .34-.02.04.01.52-.2.75-.5.16-.4.35-.87.2-1.28zm-181.53-1.96c.45 0 .93-.02 1.46-.1.1-.01.18-.01.27-.02l.08 10.15c-.06.01-.13.03-.2.04-.06.14-.12.3-.2.4-.1.12-.07.08-.1.12-.05.05-.1.07-.15.1.17-.02-.2.36-.8-.15l-.01-.1c-.33-.35-.48-.56-.74-1.33-.01 0-.01 0-.02-.01v-9.1c.15 0 .28.01.43.01zm51.98-122.5c-.34.62-.72 1.23-1 1.9-1.7 3.1-3.33 7.9-4.58 12.85l-.8 3.73-.38 1.83-.28 1.8-1 6.4c-.97 6.15-2.45 12.82-3.84 19.45-4.03-4.6-7.77-10.68-11.94-15.34-.1-.18-.5-.55-.5-.53l-3.55-4.53s-6.3-7.98-8.68-10.42c1.2-.7 3.08-1.96 3.08-1.96 5.24-3.38 7.63-5.58 13.85-9.6 2.8-1.68 4.62-2.6 6.47-3.54 1.86-.93 3.73-1.77 6.82-3.23 2.94-1.3 6.05-2.72 8.98-3.7.2-.1.44-.2.7-.3l-.05.06c-.45.5-.8 1.06-1.18 1.6l-1.12 1.7-1 1.8zm103.72 102.48l3.98 3.58c.26.26.18.63.07.82l-.72.85c-.12-.2-.28-.38-.47-.5l-3.5-3c-.35-.3-.77-.52-1.2-.64l.95-1.15c.2-.2.6-.26.9.04zm-7.1 6.15l3-3.5a1.96 1.96 0 0 1 1.37-.65h.12c.5 0 .95.17 1.3.5l3.55 3.04c.2.13.36.46.42.6.3.7.18 1.48-.32 2.07l-3 3.5c-.27.34-.82.62-1.4.72-.4.07-.95-.13-1.4-.5l-3.53-3.02c-.27-.2-.33-.4-.43-.66l-.02-.05c-.3-.68-.17-1.48.33-2.07zm2.53 7.48l-4.16-3.26c-.26-.26-.18-.63-.07-.83l.55-.66c.1.27.28.56.64.83l3.5 3c.23.18.47.32.7.44l-.35.42c-.25.25-.62.18-.83.05zm28.57 9.08c-.15.25-.25.36-.3.43l-8.07-5.96c-.22-.16-.54-.12-.7.1-.16.22-.12.54.1.7l8.4 6.2c.05.03.1.04.16.05.05.13.05.16.05.2.01.07.01.14-.01.22 0 .07-.08.22-.17.3-.1.1-.27.22-.6.28.53-.1.57-.15.47-.04-.05.05-.2.12-.44.16-.12.02-.26.03-.42.03-.2-.01-.27 0-.67-.08.1.01.24.02.33.01.07-.01.13-.01.2-.02-.16 0-.65-.06-.92-.14a.55.55 0 0 1-.14.09l-.03-.03-7.1-4.7a.5.5 0 0 0-.69.14.5.5 0 0 0 .14.69l6.96 4.6c-.01.02-.02.02-.03.04.1.6 0 .58-.1.7.04-.04.04-.08.05-.12 0-.04.01-.04 0-.1v-.1l-.03-.23c.01.1.04.26.03.28 0 .03 0 .08-.01.1-.01.04-.02.07-.02.1-.01.04-.07.1-.2.13-.26.08-.6.1-1-.01l-3.24-1.27c-1.1-.42-2.07-.77-2.45-.96l-2.2-.8c-1.18-.4-2.36-.87-2.83-1.05.4.15.07-.03-.27-.22-.34-.2-.7-.44-.38-.3a14.84 14.84 0 0 1-2.39-1.38c-.93-.63-1.8-1.4-2.24-1.87l.2.16a29.39 29.39 0 0 1-1.84-1.91l-.8-.95-.36-.48-.17-.24-.24-.36-2.4-1.64.04-.05c.03 0 .06.01.1.01.1 0 .22-.01.32-.03.83-.14 1.58-.54 2-1.07l3-3.5c.62-.73.85-1.67.65-2.57l.5-.58c.46.18 1 .35 1.54.43.96.15 1.84.1 2.22.1.06.01 1.25.18 2.1.5.84.3 1.32.5-.03.08-.23-.07-.64-.18-.6-.2-.1-.01-.22-.01-.34-.01 1.32.4 2.52.9 3.73 1.4.3.13.62.27.95.4.22.08.52.25.8.4l1.8 1.1c-.73-.48-1.7-1.1-1.02-.72.76.48 1.53.97 2.32 1.42l-.52-.23c.58.35 1.17.7 1.78 1 .3.16.6.32.86.46l.3.2.06.06c0-.04.01-.06-.03-.13.12.1.16.2.1.26-.08.06-.14.04-.22.05a4.81 4.81 0 0 1-.92-.02l-.13-.01H334l-.08-.02c-.1-.02-.22-.05-.34-.07-.24-.05-.5-.1-.78-.13-1.02-.14 1.86.47-.24.1-.38-.07-.78-.15-1.23-.2a5.23 5.23 0 0 0-.73-.05c-.07 0-.14 0-.23.01-.1.02-.17.01-.4.12-.1.04-.33.24-.33.56 0 .1.04.24.07.3l.1.15c.1.12.17.17.25.23.75.63 1.63 1.63 2.5 2.5.88.9 1.77 1.83 2.7 2.65-.2-.3.53.38 1.32.87l.04.12c1.45.97 1.64 1.24 1.86 1.46a6.39 6.39 0 0 0 .43.46c.1.1.24.25.42.44.07.1.17.2.24.3.08.1.15.26.15.24.04.02.07.02.06.12-.12.18-.04.3-.74.35zm-8.3-10.46c.01-.02.03-.03 0 0z"/><path d="M240.1 97.43h.01l.22-.01z"/></svg>