<svg xmlns="http://www.w3.org/2000/svg" viewBox="0 0 480 480" xmlns:v="https://vecta.io/nano"><path d="M212.8 208.88l-.2.01c.13 0 .18-.01.2-.01zm-65.15 21.62c0-.01.01-.02.01-.02l.04-.1-.05.13zm34.45-103.27l.15-.14-.15.14zm153.16 98.3c2.14-.14 3.46-1.55.46-2.45-3-.8-5.4-1.9-6.2-2.1s-4-1-6.2-.8c-1.5.1-3.4.9-6.4-.8l-.68-.45.08-.15c.6-1 .4-2.2-.5-2.7l-3.2-2.4c1.6-3.32 2.6-6.7 2.3-9.7-.8-8.4-5.7-9.1-19.1-20.2-13.3-11.1-22.8-24.3-32.4-54.9s-24.3-33.7-33.9-30.1c-1.14.44-2.2.92-3.22 1.44-1.82.23-4.25.88-6.86 2.8a32.09 32.09 0 0 0-2.52.94c-11.3 4.7-29.1 19.2-42.2 30.5-13.1 11.2-29.6 27.9-35.4 49s2.6 31.6 8 33.3l1.12.34-.72 5.06c-.27 1.17.43 2.17 1.44 2.43l-.54 5.57s-3.3 6.3-1.8 13.9c0 .6.9 1.2 1.7 1.9.18.14.4.13.62.07.03.01.05.02.08.03.4.06.72-.04.97-.24.04.01.1.02.13.04.4.1.2 1.2.6 1.4.6.3 1.7 1.1 2.1.6l.03-.03a1.27 1.27 0 0 0 .78-.62c.4-.16.67-.01.92.23.1.2.24.38.4.5.2.3.4.57.67.6 1.1.1 1.8-.7 1.9-.9.6-2.1 1.4-4.2 1.5-5.2s.72 1.92 1.12 3.42c.6 1.7 2.76 2.67 2.56-.43s.13-5.8-.07-6.6c-.1-.8-.2-4.1-1.2-6.1-.6-1.3-1.9-2.9-1.2-6.3.02-.1.05-.2.07-.28.95.1 1.94-.58 2.23-1.62l1.3-4.67c3.32.1 6.53-.26 9.1-1.43 7.5-3.4 9-9.6 12.9-24.3 1.82-6.95 5.4-12.64 11.92-18.94l-.82 4.34-5.5 28.4h58.43c5.97 6.84 12.76 13.23 20.27 18.4 20.8 14.2 28.2 6.2 32.1 1.9l1.36-1.54 4.14 2.34a2.17 2.17 0 0 0 2.53-.23l6.37 2.83s4.9 5.1 12.5 6.1c1.03.13 2.95.22 3.66-1 .43-.64.24-1.4.64-1.8 1.5-.4 1.73-1.4 1.93-2.1-.36-1.35.9-1.3 1.2-2 .4-1 .2-1.7-.54-2.2l-4.4-3.1c-.93-.38 1.63-.17 3.42-.03zm-18.66 6.97l.1.1h-.02zm-52.34-103.37l.23.9c.02-.03-.03-.26-.23-.9z" fill="#fff"/><path d="M150.9 219.1h-.35zm183.4 5.6h0l.17-.04z"/><path d="M337.15 225.4a1.9 1.9 0 0 0 .56-.47c.33-.4.3-1.03-.1-1.44-.1-.1-.2-.2-.3-.3l-.28-.2c-.2-.13-.4-.2-.6-.32l-2.54-.78-2.48-.87-1.27-.46c-.48-.16-.92-.24-1.36-.34l-2.68-.45c-.9-.1-1.82-.17-2.74-.1-.94.08-1.75.3-2.56.28-1.57.03-3.03-.58-4.24-1.5.06-.05.12-.1.18-.17.24-.3.67-.94.33-2.02l.07.03c-.14-.3-.33-.56-.55-.75-.1-.1-.26-.2-.24-.2l-.2-.15c-.27-.2-.54-.32-.85-.4.1-.3-.57-.46-.68-.66l.03-.01c-.4-.1-.62-.44-.9-.7l.05-.14c.56-1.06 1.1-2.52 1.48-3.86l.43-1.85.23-1.22s.06-.33.1-.86c-.02-.52.02-1.27-.08-2-.1-1.35-.56-2.82-.87-3.47.12.2.03-.2-.1-.6-.18-.48-.38-1-.13-.63-.33-.65-1.16-1.82-2.1-2.86-.96-1.03-2-1.94-2.57-2.5l.24.18c-2.2-1.92-4.2-3.27-6.1-4.65l-5.63-4.35c.1.26-1.93-1.48-1.54-.93-4.18-3.16-6.8-6.6-8.48-7.57-.82-.86-1.27-1.4-1.62-1.83-.33-.45-.56-.8-.95-1.27l.4.4c-2.9-3.33-3.6-4.42-5.5-7.1-.93-1.35-1.34-1.4-2.8-3.96.57.77-.05-.26-.6-1.2.37.6.52.77-.16-.52a8.18 8.18 0 0 1-.47-.67c0-.01-.02-.07 0-.05-.9-1.6-.78-1.3-.4-.55-.03-.03-.02.04.08.3-.4-.88-1.02-2.05-1.55-3.04-.5-1-.9-1.84-.86-1.98-2.46-4.97-4.15-8.58-5.85-12.9-.1-.52.36.46.87 1.7l-1.2-3.06c.14-.02.74 1.74 1.12 2.67-.58-1.87-1.38-3.72-2.1-5.7l-1.13-3.02a57.46 57.46 0 0 1-1-3.21l-.4-.87-.07-.27c-.05.03-.44-.93-.67-1.57-.1-.65.27-.04-.48-2.2-.25-.87-.66-2.1-1.16-3.36l-1.62-3.64c.47 1.2.25.84 0 .34-.42-1.07-.6-1.7-1.05-2.48l.07-.13c-.17-.1-1.44-2.7-1.7-3-.2-.64.9 1.54 1.1 1.77-1-2.1-1.36-2.55-1.63-3.06l-.55-.94c-.28-.42-.57-1.1-1.26-2.03-1.5-1.96.13.45-.66-.44-1.23-1.8-2.63-3.38-4.3-5.23l.47.65-2.03-1.9c-.64-.54-1.28-1-1.84-1.45-.55-.48-1.16-.8-1.73-1.18-.58-.36-1.12-.77-1.75-1.04-3.53-1.5-6.57-1.6-8.76-1.36l-1.52.23-1.24.34c-.76.18-1.33.46-1.78.65-1.8.8-1.6.96-.55.68.52-.1 1.23-.3 2.03-.45.8-.1 1.68-.3 2.5-.3.4-.02.8-.06 1.16-.06l.96.06.9.04c2.74.32 5 1.3 6.98 2.43.5.3 1 .57 1.46.9l1.34 1.03.67.5.6.58 1.24 1.16c3.2 3.26 6.1 7.37 9 13.7l1.56 3.9c.5 1.2.8 2.34 1.16 3.4.7 2.1 1.28 4 1.86 5.92 1.17 3.82 2.46 7.68 4.9 13.68 2.28 5.74 5.17 11.72 8.3 16.92 1.62 2.38 4.26 6.76 6.6 9.28.24.37.48.75.74 1.1.82.85 1.7 1.9 2.48 2.8l-.08-.03c.63.6 1.27 1.3 1.84 1.9l1.42 1.37-.08-.03c.5.5 1.02 1 1.55 1.47l-.3-.2c2.3 2.04 4.7 4.05 6.83 5.82l-.1-.26c4.5 3.8 6.52 4.77 10.54 8.13l-.08-.02c2.72 1.87 4.48 3.75 5.3 6.04.4 1.14.6 2.4.74 3.74a17.81 17.81 0 0 1-.33 4.34c.13-.8-.14.32-.17.25-.76 2.93-2.35 5.9-2.12 6.06-1.08 2-1 1.57-1.22 1.78.12.05-.84 1.8-1.86 3.26l.42-.7c-.93 1.43-1.93 2.82-2.96 4.2l.8-.66c-1.72 2.12-.64.38-2.22 2.45l.17.1a37.52 37.52 0 0 1-3.35 3.52 19.17 19.17 0 0 1-3.67 2.74c-1.5.94-3.2 1.54-5 1.82l-1.36.12c-.45.05-.92-.01-1.37-.01-.92.02-1.84-.18-2.77-.3-3.7-.66-7.27-2.26-10.63-4.1-6.76-3.68-12.74-8.54-17.72-13.52l-.35-.54c-.02-.17-.78-.8-1.56-1.43-.76-.66-1.54-1.36-1.65-1.62l-1.2-1.12c-.3-.36-.93-1.1-.33-.53-1.02-1.13-1.06-1.14-1.84-1.9l-.98-1.3c-3.83-4.6-7.13-8.5-10.64-13.76-2-3.22-4.93-7.84-7.6-12.7-2.7-4.84-5.07-9.93-6.7-13.73-2-4.48-3.8-9.4-5.38-14.5-1.03-2.73-3.68-11.03-3.94-10.9-.48.24 4.35 16.78 4.86 18.48l.2.46-.14-.24c.96 2.03 1.05 2.7 2.07 5 .03.13.08.3.07.28 1.1 2.2 2.74 6.56 3.68 8.3l-.05.16c.67 1.48 1.42 2.9 2.14 4.37l-.78-1.64c.54.43 1.45 3.4 3.35 6.38.8 1.45 1.75 2.83 2.76 4.2.98 1.38 2 2.74 2.86 4.2 1 1.3-.97-1.08.44.9-.1.15-.7-.9-.47-.3.67 1 1.2 1.82 1.76 2.7.57.9 1.15 1.85 2.08 3l-.03.17c1.22 1.5 2.26 3 3.26 4.3l1.4 1.9c.47.57.93 1.1 1.38 1.56.55.63.92 1.1 1.2 1.45-1.07-.02-2.12-.03-3.14.04.12-.02.2-.1.92-.1-2.3.04-5.47.1-5.64-.07-5.52.04-13.22-.03-16.76.23l.24-.05c-2 .18-2.6.03-4.86.12-.12-.02-.28-.03-.26-.04-2.2.18-6.4.03-8.18.1l-.1-.1-4.37.03 1.63.02c-.57.3-3.3-.2-6.48.01-1.48-.02-3 .14-4.5.28l-2.3.18c-.38.02-.77.03-1.15.04-.37 0-.68 0-1-.02-.7.07-.35.01-.1-.05.12-.03.2-.06.17-.08-.02-.01-.07-.01-.18-.01-.07-.03-.37.1-.26-.16.05-.05.07-.03.08.01.01.01-.01.06.02.06.04-.01.08-.01.12-.02.15-.02.24-.04.14-.1h-.12c-.01-.02.01-.07.01-.1l.04-.22.1-.43.3-1.22a37.3 37.3 0 0 0 .64-3.22l.14-.08c.44-3.45 1.4-6.4 1.63-8.7.58-3.53.82-2.3 1.3-6l.44-1.4c.33-1.56.01-1.16.43-2.88.08.13.5-2.18.4-1.14.93-3.9 1.3-8.03 2.55-13.16.01-1.16.62-3.75.62-4.62.1-.12 1-5.23.63-2.26-.03.25-.12.7-.15.66l.06.37c.78-2.92.87-5.4 1.45-8.3-.2.86-.4 2.02-.34 1.23l.52-2.72v.58l.8-4.04-.23.54c.42-1.97.76-2.63 1-4.9.08-1.03-.5 1.85-.17-.25l1-4.7.28-1.27.14-.62a2.56 2.56 0 0 0 .05-.27l.03-.17.05-.33.45-2.6c-.2.3-.04-.6.1-1.55l.14-.08c.52-3.58.5-1.25 1.12-4.8l.02.33-.05-.98c.52-3.2.68-1.62 1.27-5.17-.34 1.38-.46.56.1-1.1l-.03.45c.28-.92.34-1.24.56-1.85-.12.57.07.34.5-1l-.16.95c.23-.86.4-1.75.67-2.6.46-.93.92-2.18 1.4-3.25.52-1.05.97-1.97 1.23-2.3 0 0 .1-.25.35-.6l.84-1.38.47-.8.5-.72c.3-.45.55-.84.66-1.07-.2.4.04.1.3-.2.3-.28.6-.56.44-.27.33-.43.96-1.37 1.8-2.1a8.17 8.17 0 0 1 .95-.84c-.18.16-.35.33-.53.5.4-.32 1.08-.83 1.9-1.38.45-.27.9-.52 1.34-.73.34-.26.7-.5 1.06-.74 1.15-.62 2.32-1.1 3.25-1.13.7-.4 1.33-.74 1.84-.98 1-.5 1.46-.8 1.1-.8-.18.01-.57.1-1.2.28-.12.03-.25.07-.4.12.25-.1.5-.23.76-.33a22.62 22.62 0 0 0-2.04.11c-1.84.22-3.62.65-5.92 1.77l.04-.07c-.88.56-1.65 1.13-2.36 1.7-.05.02-.1.04-.15.07-.33 0-1.48.34-2.6.9-1.16.52-2.34 1.18-2.95 1.45l.1-.08c-2.97 1.8-6.28 3.42-8.95 5.44.08-.08.1-.17.5-.46-1.97 1.36-4.44 3.17-4.67 3.15-4.7 3.38-11.07 8.34-13.76 10.88l.17-.2c-1.52 1.47-2.1 1.75-3.85 3.32-.1.06-.25.16-.23.14-1.65 1.6-5.1 4.33-6.46 5.6h-.16l-3.44 3 1.3-1.1c-.25.62-2.75 2.12-5.05 4.53-2.33 2.07-4.1 4.82-6.45 7.02-.95 1.2.76-1.15-.73.6-.17-.05.66-.86.16-.5-1.48 1.7-2.65 2.6-4.4 4.8h-.17c-1.1 1.45-2.2 2.77-3.22 3.96-.97 1.23-1.9 2.3-2.5 3.37-2.07 3.14-1.8 1.83-3.7 5.28-.32.4-.65.8-.95 1.2-.87 1.44-.42 1.15-1.43 2.72-.07-.17-1.17 2.05-.76 1.03-.52.92-1 1.87-1.5 2.85l-1.32 3.1c-.85 2.16-1.73 4.48-2.64 7.13-.22 1.2-.94 3.92-1.02 4.83-.18.1-1 5.55-.66 2.4.03-.27.12-.75.14-.7l-.06-.4c-.4 1.56-.63 3-.68 4.46-.03.73-.1 1.45-.1 2.2s0 1.5-.03 2.3c.06-.94.08-2.2.15-1.36-.03.98-.08 1.97 0 2.95l-.14-.6.1 2.2c.05.74.17 1.47.25 2.2l.04-.63.13 1.4.2 1.17c.07.38.14.77.25 1.2.13.44.32.92.55 1.5.44 1.03-.47-2.02.27.16a22.47 22.47 0 0 0 2.11 4.78c.98 1.7 2.37 3.3 3.95 4.48-.1-.17.05-.1.35.1.3.2.78.44 1.26.7l.06.17 1.24.46c.06.02.1.03.15.05-.01.3-.04.57-.15.87.15-.01.01.37.2.3.07.8-.57 1.36-.05 1.73-.02.36-.2.4-.25.58l-.02-.1-.07.8.01-.07c-.04.22-.08.45-.08.76.08.35.32.36.45.92-.16-.14-.08.1.04.28-.08-.12-.14-.15-.06.16a.48.48 0 0 1 .15.11c-.01.01 0 .02-.02.02.26.3.25.2.15.06.02 0 .02-.03.02-.1.1.43.77.72.72.88.02.01.05.02.07.03l-.1 1.1-.33 3.77-.23.5c-.44 1.28-1.26 3.5-1.43 5.07l-.18.6c-.04.55-.12 1.18-.2 1.72l-.02-.04c-.04.8-.07 1.73-.06 2.14v-.03l.03 1-.03-.17c.07 1.17.25 2.36.43 3.45l-.01-.13c.02.5.24.8.4 1.02v-.16c.33.46.64.7.92.95.3.23.42.42.94.72.24.1.5.1.76.05.1-.02.15-.04.22-.06.03 0 .06.01.1.01.2 0 .38-.03.55-.1.02.04.03.1.04.15.03.2.1.93.62 1.16.22.12.27.17.44.27h-.04c.32.15.64.3 1.02.43.46.16 1 .1 1.3-.25.1-.05.23-.1.33-.16a1.66 1.66 0 0 0 .35-.35c.03 0 .06.01.1.02.1.01.34.4.66.84.07.1.23.28.4.4a1.14 1.14 0 0 0 .6.21c.42.04.7-.02 1.03-.14a2.66 2.66 0 0 0 .89-.54c.13-.13.25-.23.4-.47a.99.99 0 0 0 .14-.35l.05-.22c-.08.38.1-.15.1-.1l.56-1.95c.1-.35.06-.3.07-.4 0-.08-.01-.16-.04-.2.15-.5.14-.3.18-.2a1.88 1.88 0 0 1 .03-.43c.02-.1.01-.2.05-.3.08.03.1.14.12.22-.02-.03-.04-.05-.06-.07.12.3.2.63.3 1 .02-.1.04-.23.05-.38.08.42.05.46.03.53-.02.04-.03.13.14.7l.1-.04c.3.93.72 1.6 1.5 2 .45.23 1.1.17 1.48-.3.37-.45.46-.93.52-1.4.02-.7-.04-1.24-.05-1.84-.02-.6-.02-1.18-.02-1.78l.03-1.8c-.01-.63.06-1.18-.1-1.97l.01.07c-.23-2.27-.43-4.85-1.68-6.95-.55-1-.92-1.98-.97-3.03-.04-.83.06-1.65.28-2.45.4.1 1.1.08 1.88-.52v.07a2.43 2.43 0 0 0 .5-.68c.13-.23.2-.5.23-.62.08-.32.1-.62.08-.94.3-.02.22-.7.37-.87l.02.03c-.07-.58.48-1.03.43-1.6.02.03.1.06.06.18.03-.17.06-.37.1-.53.07 0 .13.01.2.01.67-.01 1.36-.02 2-.06l1.76-.16c.5-.07.9-.12 1.15-.12 0 0 .08-.01.2-.03.14-.02.33-.05.57-.1.47-.14 1.12-.24 1.78-.5.67-.25 1.36-.52 1.9-.84.56-.28 1-.58 1.22-.78-.8.64 1.58-.8 1-.27.25-.23.62-.55 1.06-.92.4-.42.9-.85 1.32-1.37l.65-.75.56-.76c.38-.47.64-.92.87-1.23l-.14.26c1.53-2.4 2.28-4.66 2.96-6.8l1.93-6.54c-.2.17.54-2.25.2-1.7a76.57 76.57 0 0 1 .88-3.42c.3-1.06.64-2 .92-2.86.34-.84.64-1.6.86-2.25.27-.64.44-1.2.5-1.65.43-1.02.85-1.54 1.12-1.98.3-.43.5-.75.84-1.2a10.4 10.4 0 0 0-.26.45l1.42-2.2 1.2-1.58c.7-.97 1.46-1.75 2.47-2.9.32-.36.53-.63.74-.9l-.45 2.14-.25.53c-.26.2-.36 3.54-.65 3.98l-.2 1.5c-.12.4-.33 1.27-.23.53-.27 1.36-.24 1.4-.37 2.4l-.4 1.43c-1.14 5.34-1.77 9.94-2.9 15.57l-.43 2-.13.6-.07.3-.03.16c-.01.05-.04.12.04.1l1.3.02 3.92.04L203 209l13.9-.22c10.3-.3 22.23.5 32.83.18.35.43.87 1 1.8 1.92.3.45.65.87.98 1.3 1.2 1.3 1.03.78 2.34 2.25-.18.01 1.72 1.8.82 1.07.78.8 1.58 1.6 2.42 2.38s1.76 1.53 2.7 2.33l1.42 1.2 1.52 1.22c1.04.83 2.08 1.76 3.25 2.66.58.3 1.45.9 2.3 1.5.83.6 1.7 1.08 2.12 1.3.04.08 1.3.9 2.17 1.47.9.53 1.43.86-.08.12-.25-.14-.68-.42-.63-.43l-.4-.1c.34.25.68.5 1 .72.35.2.7.4 1.04.6.7.4 1.37.74 2.06 1.1.68.36 1.42.62 2.13.94.6.24 1.2.53 1.82.78-.82-.35-1.57-.77-.86-.5.93.48 1.94.77 2.9 1.16l-.65-.13c.73.3 1.45.58 2.23.77.77.2 1.5.47 2.3.6-.2-.08-.42-.14-.62-.25l2.73.58c.42.04.85.07 1.34.08l.8.01c.28-.01.6-.07.93-.12 1.2-.2-2.25.02.24-.23 1.57-.04 3.57-.48 5.47-1.4 1.9-.9 3.65-2.34 5-3.76-.35.16.38-.6 1.06-1.4l.18-.01a15.53 15.53 0 0 1 .44-.53 2.67 2.67 0 0 1 .48.32c.04-.14.35.12.36-.1.77.23 1.05 1.03 1.6.67.33.15.3.32.45.44l-.1-.02.67.33c.2.1.43.24.76.33.36.03.44-.2 1-.14-.18.1.05.1.27.06-.13.03-.18.08.12.1a.56.56 0 0 1 .15-.1c0 .01.02.01.01.02.35-.14.27-.15.1-.12 0-.02-.02-.03-.07-.05.22.03.46-.1.67-.2l2.42 1.1 3.53 1.52a7.68 7.68 0 0 1 .29.27c1.06.83 2.88 2.33 4.32 3l.5.36c.5.22 1.07.5 1.56.74l-.04.01 2 .75H325c.3.1.63.2.94.3l-.17-.02c1.38.37 2.78.65 4.1.8l-.1-.1c1.4.14 2.56-.04 3.4-.9.4-.4.62-1 .7-1.5l.06-.34c.03-.1.03-.1.05-.14.05-.1.05-.02.47-.2l-.03.04c.85-.42 1.38-1.28 1.55-1.95l.08-.27c.03-.13.1-.26.05-.36-.05-.27-.05-.32-.04-.4.03-.14.06-.18.26-.32.2-.14.53-.26.87-.7a1.61 1.61 0 0 0 .18-.34c.03-.08.07-.17.1-.26.06-.18.1-.38.12-.6.05-.42-.05-.97-.37-1.38-.15-.2-.34-.37-.54-.5l-.5-.32c.34.2-.1-.13-.08-.13-1.2-.8-2.47-1.7-2.58-1.56-.32-.22-.5-.36-.6-.44l1.32.07-.45-.17c.62.06.7.12.76.15.03.02.07.04.17.05.06.01.12.01.2.02.1 0 .18.03.42.01l-.03-.1c.47-.03.87-.1 1.26-.22.2-.05.4-.12.6-.22zm-178.62 16.56c.17.1.3.16.4.2a1.74 1.74 0 0 0-.27.58c-.02-.28-.07-.54-.14-.78zm-1.7-.38c.94.18.95 1 .73 2.98l-.07.56c-.18 1.14-.35 2.22-.84 2.57-.18.13-.42.17-.77.1-.26-.04-.45-.15-.6-.34-.24-.34-.46-1.14-.1-3 .22-1.4.63-2.4 1.12-2.76.12-.1.25-.13.38-.13.05 0 .1.01.13.01zm-2.8 2.93l-.03.2c-.18 1.14-.35 2.22-.84 2.57-.18.13-.42.16-.77.1-.26-.04-.45-.15-.6-.34-.24-.34-.46-1.14-.1-3 .22-1.4.63-2.4 1.12-2.76.12-.1.25-.13.38-.13a.41.41 0 0 1 .11.01c1 .2 1.06.9.7 3.33zm-3.5-1.35c-.07 1.25-.28 2.03-.64 2.3-.1.08-.26.17-.58.12-.26-.04-.38-.16-.44-.25-.4-.55-.14-2-.05-2.53.06-1.1.37-2 .8-2.33.1-.08.2-.12.3-.12a.34.34 0 0 1 .1.01h.03c.35.05.48.2.55.3.26.4.24 1.2-.07 2.5zm8.4-.84l.05-.14c.03.01.03.01.05.02-.04.04-.06.08-.1.12zm3.14-18.92l-.28 1.04c-.1.37-.44.77-.78.97-.33.2-.67.27-.65.53.01.07.08.18.22.28a2.45 2.45 0 0 1-.27-.02l-.47-.07a9.06 9.06 0 0 0 .44 5.48c.38.53.94 1.68 1.13 2.02-.01.04.2.64.28 1.08.1.45.13.7-.08.02-.03-.12-.1-.32-.07-.32l-.1-.14c.24 1.4.58 2.57.7 4.06-.01-.44-.07-1.02.01-.64l.1 1.28.01.07.01.08-.04-.07v-.07l-.05-.18.02.18.01.08c.06.4.02 1.13 0 1.73l.08-.28c-.06 1-.2 1.37-.1 2.53.06.53.1-.97.13.1-.03.68-.04 1.56-.02 2.45.01.4-.04.82-.14 1.06-.1.2-.14.14-.2.13.05.1-.17.05-.47-.2l.02-.08c-.5-.5-.46-.73-.47-.8.02 0 .01-.14-.02-.3-.04-.22-.05-.26-.3-1.17-.08-.18-.16-.36-.24-.5-.4-1.34-.52-1.48-.65-1.73-.02-.03-.04-.04-.06-.07a.49.49 0 0 0-.29-.63c-.02-.01-1.8-.72-2.85-2.36s-.78-4.76-.77-4.8c.03-.27-.17-.52-.45-.55-.27-.03-.52.17-.55.45-.01.14-.32 3.5.93 5.43.27.42.6.78.9 1.1a1.65 1.65 0 0 0-.92.32c-.25.18-.47.44-.65.73-.18-.7-.63-1.24-1.6-1.42h-.01a1.6 1.6 0 0 0-1.25.3c-.2.14-.36.32-.5.53a2.1 2.1 0 0 0-.31-.9c-.27-.4-.68-.65-1.23-.73a1.45 1.45 0 0 0-1.2.3c-.67.52-1.1 1.64-1.17 3-.1.52-.17 1.07-.17 1.6-.02-.03-.05-.05-.07-.08-.03.07-.14-.16-.17-.13v-.12c-.04-.2-.1-.34-.1-.2-.53-2.3-.12-4.23-.42-5.08.07-1.07.2-1.25.3-1.8l-.02.25a20.17 20.17 0 0 1 .84-3.97c.2-.7.07-.9.6-2.1-.1.42.08-.1.3-.53-.06.14-.1.23-.08.23s.03-.03.06-.1c.04-.06.07-.12.2-.35 0-.02.01-.06.01-.1v-.43c.01-.01.01-.03.02-.02.05-.84.02-.7-.02-.3-.01-.02-.02.01-.05.13.16-.87.22-2.44.34-2.53l.14-1.7h.12c.34-.01.67-.03 1.02-.02.07.1-.1.16-.3.17l.5.03c-.02.13-.3.04-.44.04.56.3 1.22-.05 1.88.24l.15-.1.04.02c0-.06.17-.1.27-.1.08.13-.04.27.3.3.25.15.76.05 1.12.04-.2-.05-.12-.1-.03-.13.17.02.25.15.4.12v.16c-.05-.16.46-.1.53-.15.08.13-.27.06-.33.14l1.02.12c.38-.07-.05-.16.14-.27.32.01.65-.05 1 .1l-.1-.15c.6-.02.97.04 1.35.24 4.62-.5 1.15-1.4 1.15-1.4-1.72-.55-2.7-.27-4.8-.46-1.83-.33-2.3-.66-4.22-.82l-.66-.1c-.14-.01-.2-.03-.28-.06a.82.82 0 0 1-.39-.32c-.2-.06-.17-.33-.15-.56l.02-.1a1.4 1.4 0 0 0-.02-.36l.15-.18c-.04-.18-.05-.4.04-.55l.03.02c-.05-.27.04-.55.02-.7l.03.02.03-.3.04.06c-.03-.46.03-.92.13-1.32l-.15.01a1.98 1.98 0 0 0 .09-.37c.35.1.86.25 1.68.44h.7c3.42.55 1.75.73 5.6 1.1-1.5-.26-.66-.37 1.18-.04l-.5.05c1.03.13 1.38.14 2.06.23-.62-.01-.35.14 1.18.3l-1.04.03c.86.05 1.72.04 2.58.03-.07.27-.12.53-.14.8-.04.05-.02.2 0 .22l-.43 1.56zm32.14-45.94l-1.9 2.22c-.58.76-1.12 1.5-1.57 2.18-.28.3-.54.65-.8.98l-.93 1.53c-.3.54-.6 1.07-.9 1.55v-.08c-.4.74-.74 1.58-1.08 2.3-.35.7-.6 1.36-.7 1.76l-.01-.08c-.23.64-.5 1.27-.7 1.93l.05-.35-2.2 8.16.2-.17-1.82 6.17c-.54 1.7-1.08 3.37-2.25 5.46v-.07c-1.22 2.77-2.93 4.5-4.98 5.66-1 .62-2.14 1.06-3.3 1.48-1.22.33-2.55.68-4.1.86.77-.12-.34-.04-.28-.1-2.88.25-6.02-.1-6.1.18-2.14-.24-1.73-.32-2-.45 0 .13-1.87-.1-3.52-.43l.77.1c-1.58-.3-3.16-.64-4.73-1.03l.87.46c-2.48-.7-.56-.43-2.95-1.03l-.02.2c-.83-.26-1.66-.5-2.25-.8-.16-.08-.3-.14-.46-.22l-.42-.28c-.28-.2-.56-.36-.8-.6-1.03-.82-1.85-1.9-2.78-3.22-1.02-1.37-1.75-2.95-2.43-4.56-.27-.84-.58-1.66-.8-2.52-.18-.87-.46-1.72-.55-2.6-.57-3.53-.56-7.2-.13-10.77.97-7.17 3.25-14.07 6.43-19.9l.4-.45c.15-.06.5-.9.86-1.8.4-.86.82-1.75 1.03-1.92l.7-1.4c.24-.36.8-1.1.4-.43.78-1.2.77-1.25 1.27-2.15.32-.4.6-.82.95-1.2 3.26-4.6 6.07-8.5 10.12-12.87 2.5-2.56 6.12-6.22 9.98-9.76 3.85-3.54 7.88-7.06 10.8-9.62 4.1-3.64 8.77-7.3 13.58-10.8s9.72-6.9 14.38-9.94c.16-.08.43-.26.66-.42s.42-.3.4-.3c1.52-.9 3.08-1.74 4.66-2.5l-.5.56c-.75 1-1.57 1.96-2.22 3.14-.33.58-.72 1.16-1.03 1.82-.3.65-.6 1.34-.92 2.08.3-.73-.22.27-.22.2-.6 1.34-1.1 2.76-1.52 3.84-.35 1.1-.5 1.87-.4 1.94-.67 2-.63 1.6-.82 1.84.1.02-.35 1.8-.77 3.4l.15-.74c-.4 1.52-.8 3.05-1.12 4.58l.43-.85c-.6 2.42-.43.55-.87 2.9l.2.01-2 8.56-6.34 35.2c-.92.86-1.98 1.97-3.1 3.15zm142.2 47.14c-.67.3-.88.24-1 .22h-.12c-.06-.01.01-.01-.08-.03-.17-.03-.44-.05-.9-.06l-.33.08c-.83.02-1.06-.03-1.3-.07-.13-.02-.26-.04-.5-.03-.12 0-.25.01-.48.05-.08.02-.1.01-.33.1-.03.01-.5.28-.33.8.05.13.1.2.17.27l.1.08c.07.05.1.05.15.08l.05.02c.02.01.08.04.12.07-.87-.56-.1-.28.52.2l-.22-.07c.4.27.56.34.82.54-.26-.14-.18 0 .4.4l-.44-.2 1.2.67c.4.34.97.72 1.46 1.07.23.17.45.32.64.45.13.1.2.2.2.27 0 .01.18.2.1.67-.02.1-.05.23-.1.36-.05.14-.02.08-.07.15-.08.1-.3.26-.4.36.18-.16.01-.1-.23.07-.24.14-.5.48-.35.2a1.77 1.77 0 0 0-.34 1.03c0 .1.01.2.02.3.01.12.02.1.03.14.02.07.01.03-.03.22-.13.52-.4.83-.6.93l.06-.06c-.17.14-.36.23-.6.32l-.34.13c-.06.03-.13.04-.18.08l-.13.15c-.17.2-.28.46-.34.7-.15.75-.13.95-.38 1.27-.38.52-1.4.72-2.43.58.1.12-1.04-.1-.78.05-2.34-.24-4.03-1.25-4.93-1.25-1-.4-1.12-.6-1.6-.85l.23.1c-1.78-.9-2.26-1.23-3.47-2.08-.6-.42-.82-.35-1.8-1.25.18.12.17.1.06-.01-.12-.1-.32-.3-.5-.5.17.17.2.2.23.2-.01-.02.02-.01-.23-.28-.08-.04-.17-.08-.27-.13-.1-.02-.23-.07-.36-.1 0-.01-.03-.02-.01-.02-.78-.3-.65-.24-.3-.07-.02 0 0 .03.1.1-.77-.42-2.23-.98-2.3-1.12l-2.55-1.08a2.46 2.46 0 0 0 .19-.45c.1-.32.22-.64.36-.95.12-.02.1.16.04.35l.2-.44c.1.07-.07.28-.12.43.48-.4.4-1.15.92-1.65v-.18l.04-.03c-.05-.03-.04-.2-.01-.3.15-.03.23.14.4-.16.23-.18.33-.7.45-1.03-.1.16-.14.07-.13-.02.08-.15.23-.18.25-.32l.15.06c-.16-.01.08-.46.05-.55.15-.03-.04.28.01.36l.5-.9c.08-.37-.16-.02-.2-.23.13-.3.2-.62.46-.9l-.18.03c.2-.58.4-.88.72-1.17 1.23-4.47-.9-1.6-.9-1.6-1.14 1.4-1.24 2.38-2.2 4.27-.98 1.58-1.46 1.87-2.3 3.6l-.34.6c-.05.1-.1.16-.16.23-.12.13-.3.23-.5.26-.1.1-.25.1-.38.06-.07-.02-.13-.05-.2-.08-.07-.03-.25-.1-.37-.12l-.1-.2c-.18-.03-.38-.1-.5-.24l.03-.02c-.27-.05-.5-.24-.63-.26l.03-.03-.28-.14h.07a4.43 4.43 0 0 1-1.19-.6l-.04.14c-.03-.03-.06-.04-.1-.06.3-.24.6-.48 1.78-2.1l.3-.7c1.96-3.1 1.43-1.4 3.4-5.02-.85 1.37-.62.5.45-1.16l-.15.5c.53-.97.68-1.3 1.06-1.93-.25.6-.01.4.7-1.02l-.35 1 .42-.97c.03.01.07.01.08.01l1.3 1s.1.07.26.2c.08.06.18.13.3.2.06.04.1.08.18.13.06.04.12.1.25.17.26.12.47.46.5.9.04.4-.05.8.2.85.08.01.2-.02.34-.1-.04.08-.07.16-.12.24l-.4.7c1.46.98 3.4 1.73 5.75 1.56.3-.1.78-.18 1.22-.25.43-.06.84-.1 1.04-.14.06-.01 2.57.17 1.12.16-.12 0-.34-.01-.32-.03l-.17.06c1.42.2 2.64.22 4.07.57-.42-.12-1-.23-.6-.2.45.1.9.2 1.33.32l-.3-.01c.6.14 1.22.43 1.87.68l-.24-.17c.94.4 1.23.65 2.36.93.5.1-.9-.4.15-.08.64.24 1.46.54 2.3.8.37.14.78.3 1.05.5.1.07.12.1.13.14.02.03 0 .07-.02.1.07.02.14.06-.2.25l-.05-.08z"/><path d="M216.3 108.25l2-2.6-1.22 1.5.12-.26-.9 1.38zm90.92 116.22l-.01.01-.14.33z"/></svg>