<svg xmlns="http://www.w3.org/2000/svg" viewBox="0 0 480 480" xmlns:v="https://vecta.io/nano"><g fill="#fff"><path d="M347.47 211.05c-2-1-4.42-2.1-5.52-2.4-1-.2 2-.42 3.6-.72 1.8-.3 3.5-2.17.4-2.47s-5.6-1-6.5-1-4.1-.3-6.2.3c-1.5.4-3.1 1.5-6.4.3-2.68-1.08-8.57-4.46-14.77-8.2l2.07-6.5c-.2-.8-26.6-16.7-30.1-21.7-7.75-10.97-11.14-29.45-21.8-47.66-2.83-6.88-7.18-11.33-11.12-14.1l.22-4.04-8.3-4.7-.38 1.34-.03-.04-6.3-2.15a25.81 25.81 0 0 1 .69-.95c.82-1.1 1.78-2.4 2.4-4l2.3-1.2c1.2-.6 1.6-2.1 1-3.3l-7.65-14.6c-.02-.3-.06-.52-.15-.6a2.61 2.61 0 0 0-.27-.19l-2.73-5.2c-.6-1.2-2.1-1.6-3.3-1l-8.6 4.5c-1.2.6-1.6 2.1-1 3.3l3.48 6.63c-.67-.35-1.28-.03-1.28-.03a43.08 43.08 0 0 1 .5 8.4c0 1.3.4 2.46.63 3.48l-.23-.08c-.5-.2-1.1.1-1.3.6l-1.6 3.8.22.2c-.2-.02-.34-.05-.46-.06-.15-.02-.3-.05-.62-.05-.32.03-.8-.01-1.62.2l-.55.28c-.72.18-1.16.4-1.5.5-.33.1-.54.14-.76.2a5.45 5.45 0 0 0-.66.27c-11.2 2.26-17.74 14.14-24.06 29.56-5.2 12.5-9.8 22.5-9.6 30.7a85.84 85.84 0 0 0 .18 3.35c-.03 3.25.6 6.1 1.74 8.55 1.38 3.5 3.7 6.3 7.68 8.4.37.2.74.36 1.12.53l-8.1 33.63-3.03-.76c-2.6-.7-5.2.9-5.9 3.5l-4.7 18.8c-.7 2.6.9 5.2 3.5 5.9l35.4 8.9c.17.04.34.07.5.1.16.07.3.16.5.2h.2c1.75.4 3.6-.74 4.6-2.62.3-.48.55-1 .7-1.58l4.5-17.8a5.12 5.12 0 0 0 .05-2.3c-.2-1.92-1.26-3.46-2.85-3.9l-.2-.1c-.15-.03-.3-.03-.46-.05-.15-.05-.28-.12-.44-.15l-30.23-7.6h42.93c4.37 0 9.86-2.34 12.6-6h16.8l.01.1v-.1h9.38c.01.13.01.27.02.4.1 3.1 2.7 5.6 5.9 5.6h4.9l-.82-7.87c11.22 3.94 19.66 7.03 29.92 9.97l1.28-4c12.1 3.63 21.52 5.8 21.52 5.8s5.26 3.9 12.96 3.6c.6.1 1.36-.62 2.16-1.32.5-.4.17-1.08.47-1.68.2-.4 1.2.1 1.6-.4.5-.6 1.3-1.5.9-2-1.6-1.9.9-1.8 1.1-2.7.22-1.1-.38-1.9-.58-2zM226.4 88c-.35-.14-.67-.6-1.02-1.06-.4-.62-.64-1.57-1.03-2.84l2.05 3.9zm-8.94 10h-.2.2zm-1.42.04c-.03 0-.06.01-.1.01.03-.01.06-.01.1-.01zm-1.38.13zm114.24 120.3l.12.07-.02-.02z"/><path d="M262.57 120.06l.36.7c.01-.02-.07-.2-.36-.7zm-76.92 57.1c-.03 0-.1.17-.24.67l.24-.67zm2 68.04l-.34-.15c0 .03.08.08.34.15zm31.63-20.4c-.02-.07-.04-.1-.04-.1l.04.1zM216.8 97.15h0l.27-.14zm-31.65 37.42l-.05.17c0-.01.01-.02.01-.03l.04-.14z"/></g><path d="M313.1 197.85h0v.3zm-39.23-1.3h0l-.1-.23z"/><circle cx="252.67" cy="196.55" r="1.5"/><circle cx="252.97" cy="172.75" r="1.5"/><circle cx="253.37" cy="150.25" r="1.5"/><circle cx="252.77" cy="130.45" r="1.5"/><path d="M222.62 74.2c.75-.3 1.05-1.18.7-2.04l-.05-.1c-.3-.44-.87-.76-1.38-.76-.14 0-.45 0-.7.18-.36.17-.6.48-.7.88a1.84 1.84 0 0 0 .09 1.13c.16.4.48.68.9.8a1.51 1.51 0 0 0 .42.05 1.94 1.94 0 0 0 .7-.14zm-1.1-1.08c-.07-.17-.1-.35-.05-.5.04-.16.13-.2.2-.24h.02l.07-.07c.18-.05.5.07.66.26.05.16.06.32.03.45-.04.16-.13.2-.2.24-.17.07-.35.1-.5.05a.36.36 0 0 1-.23-.2z"/><path d="M222.72 74.32a1.88 1.88 0 0 0-.76.93c-.16.44-.13.9.07 1.22.3.6.82.92 1.4.92.25 0 .52-.06.78-.2l.03-.02c.7-.4 1.13-1.4.67-2.2-.4-.7-1.4-1.13-2.18-.67zm1 2c-.17.08-.33.1-.46.05-.14-.05-.26-.16-.37-.37-.08-.14-.04-.3-.01-.4a.83.83 0 0 1 .34-.42c.05-.03.12-.05.2-.05.22 0 .5.15.63.38s-.03.63-.32.8zm-50.18 136.66c.03-.07.04-.13.06-.2-.03.06-.04.13-.06.2z"/><path d="M348.57 211.58c-.06-.17-.14-.34-.24-.5a3.04 3.04 0 0 0-.18-.25c-.1-.1-.18-.2-.3-.27-.06-.03-.1-.07-.18-.1l-.33-.15-.45-.2c.37.15-.13-.1-.1-.12l-1.88-.82-.28-.1c-.04-.01-.08-.01-.12-.02-.08-.01-.16-.01-.22.02-.48-.2-.27-.17-.16-.2-.1 0-.23-.03-.43-.08l-.3-.08c-.01-.07.14-.07.2-.1-.03.02-.06.03-.08.05.3-.08.65-.12 1-.18-.1-.03-.23-.06-.4-.1.43-.04.47 0 .53.03.03.01.05.03.13.02a5.67 5.67 0 0 0 .57-.09l-.03-.1c.9-.1 1.64-.4 2.27-.9.35-.28.7-.85.5-1.4-.1-.27-.3-.5-.55-.68-.25-.13-.52-.27-.74-.32-.5-.13-.96-.15-1.38-.2l-1.3-.17-2.6-.44-1.35-.23-.75-.06-.65-.01-2.72-.01c-.9.04-1.83.12-2.74.36l-2.48.76c-1.57.33-3.18-.07-4.56-.8l-.22-.2c-.05-.17-1.67-.6-1.83-.84l-.7-.3c-.18-.12-.56-.35-.2-.2l-1.1-.53-.62-.43c-5.9-3.4-6.9-2.77-5.7-2.14l.01.1c1.58.77 2.8 1.76 3.9 2.22 1.6.84.95.8 2.68 1.57l.6.43c.7.4.57.17 1.35.62-.08.03 1 .55.5.37 1.73 1 4.15 1.78 6.97 1 .27-.15.73-.33 1.15-.47l1-.3c.06-.02 2.57-.24 1.13-.02-.12.02-.34.04-.33.02l-.16.1 4.15-.1c-.45-.04-1.03-.06-.64-.1l1.37.06c-.08.02-.14.03-.26.05.57.01 1.27.2 1.94.32l-.27-.13c1 .23 1.32.43 2.5.5.53.02-.95-.26.13-.1l2.4.4c1 .18.94.32.76.48.04.01.08.02-.02.12-.08.1-.22.2-.4.3l-.08-.04c-.67.38-.83.3-1 .3-.1-.01-.17-.02-.34 0l-.33.04-.93.14-.52.17-1.4.3a.51.51 0 0 0-.55.23l-.05.08c-.01.01-.01.01-.02.01a.54.54 0 0 0-.07.13c-.32.5-1.25 1.87-2.6 2.87-2 1.47-3.56 1.46-3.54 1.47-.3-.01-.5.2-.5.5a.49.49 0 0 0 .49.51h.03c.24 0 1.95-.06 4.13-1.66.47-.34.9-.72 1.26-1.1-.14.45-.1.9.13 1.32.1.2.27.38.44.55-.2.03-.4.08-.56.17-.48.23-.8.63-1 1.2-.16.47-.12.95.12 1.38.1.17.22.32.36.47-.7.05-1.34.36-1.67 1.23l-.01.04c-.5 1.67 1.8 2.54 2.83 2.92a10.81 10.81 0 0 0 1.06.29c-.06.04-.1.06-.05.1-.06.02-.1.02-.1.02h-.1c-2.2.14-3.95-.4-4.8-.26-1.05-.2-1.22-.34-1.75-.5l.25.05c-1.93-.52-2.47-.74-3.82-1.36-.68-.3-.87-.18-2-.9.4.17-.08-.1-.48-.37.13.08.2.13.22.12 0-.01-.02-.03-.07-.07-.04-.04-.1-.1-.3-.24-.04-.01-.1-.03-.15-.04l-.4-.05c0-.01-.03-.02-.01-.02-.83-.17-.7-.12-.3-.02-.02 0 .01.02.12.07l-2.46-.7-6.33-1.45c-.22-.12.28-.03.88.1l-1.46-.37c.03-.07.85.18 1.3.28-1.7-.58-3.6-.83-5.6-1.5l-.44-.06-.12-.04c0 .03-.47-.05-.77-.13-.27-.15.06-.15-.94-.43-.77-.3-2.25-.62-3.3-.88.55.17.36.16.12.1-.36-.1-.6-.2-.85-.3l2.74-7.9c-.23.24.04-.58.3-1.45l.15-.06c.88-3.33.64-1.12 1.55-4.4l.02-.62c.7-3 .75-1.5 1.47-4.86-.2.65-.3.78-.3.55 0-.1.03-.32.1-.6l.13-.46.2-.63c-.04.25-.03.36-.04.52l.22-.76c.1-.27.07-.47.1-.66.07-.2-.1-.34-.2-.5-.1-.15-.22-.3-.42-.46.4.24.42.35.32.12-.1-.1-.27-.26-.53-.48l-.36-.27-.38-.27.42.2.2.1c.1.05.23.14.34.22-.37-.28-.5-.32-.7-.45l-.57-.33-1.13-.63-4.88-3.37-4.42-2.78c.77.37-1.15-.95-.52-.7-1-.5-3.75-2.2-4.74-3.06l.2.13c-3.86-2.83-6.9-4.5-10.05-7.32.04.24-1.56-1.28-1.28-.78a12.8 12.8 0 0 1-1.12-1.07c-.16-.18-.3-.35-.43-.54a21.99 21.99 0 0 1-.4-.63c-.5-.83-1-1.6-1.37-2.34-.8-1.44-1.37-2.6-1.98-3.2-.93-1.78-.9-2.22-1.3-3.17l.23.42c-1.57-3.43-1.95-4.47-2.98-7.1-.56-1.3-.9-1.4-1.73-3.8.4.73 0-.23-.33-1.12.23.56.33.72-.04-.47a6.2 6.2 0 0 1-.31-.63c0-.01-.01-.06.01-.04-.6-1.46-.53-1.2-.28-.5-.03-.03-.03.04.03.26-.46-1.58-1.65-4.27-1.57-4.52-1.8-4.42-3.28-7.5-5.04-11.05-.1-.44.36.36.9 1.4l-1.23-2.54c.13-.04.76 1.43 1.15 2.2-1.2-3.15-3.18-6.15-4.96-9.67-.02-.02-.04-.05-.06-.07a1.01 1.01 0 0 0-.07-.15c-.66-1.73-1.53-3.24-2.2-4.52-1.98-3.27-4.5-6.54-7.67-9.28a32.67 32.67 0 0 0-1.83-1.47l.2-3.57-9.13-5.17-.4 1.42-5.17-1.77c.04-.05.08-.1.1-.16.47-.64.92-1.2 1.5-2.1.27-.45.38-.75.53-1.13l.35-.86 2.3-1.2c.7-.35 1.2-.96 1.43-1.73.22-.74.14-1.54-.2-2.25l-7.62-14.53c-.02-.1-.04-.24-.08-.38-.03-.15-.12-.27-.2-.4-.06-.06-.13-.1-.2-.15l-2.7-5.14c-.35-.7-.96-1.2-1.73-1.43-.74-.22-1.54-.14-2.25.2l-8.6 4.5c-1.42.7-1.96 2.5-1.22 3.98l3.27 6.24c.52 0 1.25.3 1.77 1.63.24.6.43 1.16.6 1.68-.2-.53-.4-1.03-.58-1.45-.27-.63-.6-1.12-.96-1.36-.36-.26-.72-.27-.96-.2-.07.01-.12.03-.17.05-.08-.26-.14-.37-.16-.22-.01.07-.02.17-.02.32-.05.04-.1.08-.16.12-.12.1-.2.16-.2.2-.02.06.13.02.36-.07.04 1.1.23 3.7-.05 8.7l-.04-.17c.06.8.23 1.53.4 2.18-.17.01-.35.06-.5.13-.36.17-.65.47-.78.82l-1.74 4.13.2.13c-.7-.1-1.95-.26-3.05-.25l-2.1.16c-3.83.5-6.55 1.98-8.95 3.84-2.4 1.9-4.57 4.32-7.02 7.94-2.2 3.16-3.4 5.26-4.57 7.4-1.2 2.14-2.26 4.38-3.78 8l-4.3 10.5c-.47 1.68-1.82 4.44-2.4 6.42l-.4.7c-.2.68-.44 1.48-.74 2.13l-.02-.05c-.28 1.03-.7 2.16-.82 2.67l-.02-.05-.37 1.25.02-.23-1.28 5.36.17-.1c-.8 3.56-.48 5.06-.48 8.28l-.04-.04c.32 2.05 0 3.6.24 5.27.25 1.65 1 3.43 2.07 5.38-.27-.48.03.25-.02.22.87 1.87 2.3 3.58 2.55 3.4.95 1.13.76.93.8 1.17.04-.05.3.15.65.45l.6.47c-.03.27-.1.7-.2 1.04-.24.45-.25-.1-.7 1.58-.46 1.3-.95 3.8-1.35 5.56.27-.93.25-.62.18-.2-.22.84-.46 1.3-.58 1.96l-.13.03c.08.15-.47 2.28-.48 2.58-.24.45.25-1.33.22-1.56l-1.32 5.07c-.36 1.83.23-.3.14.6-.4 1.6-.7 3.18-1.27 4.98l.3-.54c-.68 3.02-1.17 4.8-1.84 6.78l-1.2 5.8a5.14 5.14 0 0 0-.8.11c.2.1-.3.2-.74.42l-.1-.1c-.86.48-1 .58-1.2.6-.17.06-.42.07-1.04.83-.03.13-.07.26-.1.4-.42.76-.54.95-.72 1.15a1.99 1.99 0 0 0-.24.43c-.06.2-.17.58-.16.95.13-.6.34-.22.1.52l-.07-.22c-.08.42-.07.57-.16.84 0-.26-.14-.17-.27.44l-.04-.45-.07 1.2c-.35.86-.54 2.3-.8 2.64 0 0-.56 1.9-.5 2.38-.02-.4-.32.63-.38.3 0 .53-.26 2.02-.54 2.57v-.12c-.68 2.14-.74 3.76-1.4 5.67.16-.05-.17.96.07.75-.08.52-.2 1-.33 1.44l-.2.66c-.07.24-.14.47-.17.7-.16.93.01 1.7.4 2.05.36 1.02.35 1.26.64 1.76l-.17-.2a6.15 6.15 0 0 0 1.61 1.65c.5.34.97.6 1.7.84.7.14.83-.12 1.97.24-.4.01.08.1.5.2-.28-.05-.37-.04.17.17.1-.01.2 0 .33.01 0 .01.02.02.01.03.72.14.6.08.28-.02.02-.01 0-.04-.1-.1.7.32 2.06.5 2.1.7 2.15.5 3.73.7 5.53 1.08.18.14-.26.12-.8.02l1.27.3c-.04.13-.75-.1-1.14-.18 1.45.6 3.16.57 4.88 1.2l.4-.01.1.04c.01-.06.42-.03.7.02.22.18-.08.26.8.47.66.28 1.98.44 2.9.6-.48-.14-.3-.16-.1-.15.44.1.66.28 1 .32v.16c-.14-.2 1.18.13 1.36.1.22.18-.7-.07-.83-.02l2.64.64c.96.12-.13-.2.35-.2.83.18 1.67.27 2.6.6l-.27-.2c1.58.28 2.5.53 3.5.93 2.54.4 4.1.56 5.02.6.8.52 1.44.48 1.7.4l-.1-.02c.54-.27.37-.46 0-.6l.27.04c-.14-.14-.3-.27-.43-.4-.12-.14-.22-.2-.2-.22-.44-.56-.73-1.06-1-1.7-.26-.62-.5-1.4-.33-2.52.58-2.13 1.03-2.72 1.5-5.04.3-1.1.54-2.3.78-3.38-.08-.56.35-1.42.34-2.06l.18-.2c-.01-.22.02-.48.13-.67l.03.02c-.01-.33.13-.67.13-.84l.03.02.08-.38.03.08c.04-.57.18-1.13.35-1.6l-.15.01c.42-1.02.23-1.47.66-2.38l.03.02c-.03-.65.15-1.1.34-1.57.2-.42.35-.78.44-1.35-.02.14.1-.02.12.01.2-.46.5-.88.28-1.07.24-.3.27-.17.38-.13-.1-.08.1-.35.3-.54l-.07.12a3.74 3.74 0 0 1 .63-.5l-.26-.12c.42-.17.23.18.57-.04l-.08-.18c.6-.2 1 .05 1.45.23l.18.04c.01 0 .12.07.18.08l.2.07.18.06c.23.1.46.2.67.4.43.32.78.8 1.03 1.35.5 1.13.48 2.44-.04 3.6l-.17.08c-.22 0 .13.78-.1.83v.32c-.06.07-.14.24-.15.08-.08.27-.05.3-.03.5l-.2.26c-.38 1.06-.36 2.05-.7 3.18-.6 1.3-1.02 3.95-1.26 5.48-.22 2.17-1.66 4.4-1.85 6.63-.05.06-.02.23 0 .24a5.27 5.27 0 0 1-.71 1.56s-.27.45-.75.9c-.47.47-1.17.87-1.74 1.03-.57.17-1.05.18-1 .45.03.1.2.34.68.5.46.16 1.27.28 2.32-.1l-.03.07c1.1-.54 1.66-1.2 1.95-1.97l.13-.16c.14-.05.25-.25.34-.48.1-.18.23-.37.32-.55.26-.5.4-1.08.5-1.47.12-.48.2-.94.28-1.4.04-.1.1-.17.14-.17.18-.86.5-1.97.6-2.78.05-.2.1-.37.14-.48l.01.06c.14-1.45.9-2.83 1.05-4.23.01.06.08.1 0 .42.2-1 .5-2.35.67-2.38l.95-3.88a50.36 50.36 0 0 0 .39-1.78c0 .01.01.02.01.04.35-.7.25-1.78.46-3-.2-.26-.17-.9-.37-1.07.1-.05-.32-1.23.07-.6.03.06.06.16.02.17l.14.05c.03-.8-.55-1.27-.94-1.9.1.2.25.46.07.33a4.45 4.45 0 0 0-.38-.58l.17.05c-.2-.3-.43-.58-.7-.83l.03.2c-.2-.2-.3-.4-.46-.55l.52-1.8v.2l1.17-4.8h.47l7.14-.1c2.37.04 4.62-.54 6.35-1.2 2.42-1 4.86-2.35 6.8-4.46.1-.1.2-.24.3-.35h1.6c5.8.23 15.9.1 23.43-.05.02.2.04.43.1.6.18.88.5 1.62.93 2.27.87 1.26 2.02 2.34 4.05 3l-.07.02c.66.15 1.3.16 1.9.15.52-.02 1.02-.03 1.5-.03l1.42.02 2.07.05.6.01.3.01c.07.02.05-.05.05-.1l-.01-.15-.1-1.2-.17-1.94c-.1-1-.24-2.03-.45-3.2.1.58.05-.26.1-.22l-.06-.5c2.98 1.05 6.2 1.96 10 3.52 1.1.16 3.4 1.1 4.23 1.2.1.13 4.75 1.6 2.02.9-.23-.06-.64-.2-.6-.22l-.36.01c2.62 1.12 4.94 1.5 7.6 2.37-.78-.28-1.84-.6-1.1-.46l2.5.8-.55-.06 1.85.6 2.12.66c-.3-.14-.64-.28-.74-.35l2.48.82c.28-.74.57-1.56.82-2.33.16-.47.3-1 .47-1.7.2-.95-.7 1.66-.14-.26.02-.06.05-.13.07-.2a10.38 10.38 0 0 1 .44.13c5.44 1.63 6.84 2.2 12.55 3.65 1.26.34 2.56.67 3.85.98l3.7.87c.15.1.3.2.44.28 1.2.64 3.3 1.74 4.85 2.12.2.1.37.18.56.25.53.13 1.16.26 1.7.4l-.04.01c.8.12 1.7.3 2.12.3l-.04.02c.33.03.66.08 1 .1l-.17.02 1.46.04 1.44-.02h-.13c.42.06.75-.06 1-.17.25-.12.44-.25.62-.38h-.15c.45-.3.77-.6 1.07-.85.34-.2.6-.5.77-.98a1.77 1.77 0 0 0 .06-.84h.15c.1 0 .23 0 .36-.01.32-.03.67-.16.9-.45.23-.27.46-.52.73-.88v.04c.14-.26.26-.44.36-.85a1.18 1.18 0 0 0-.22-1.02l-.02-.02c-.03-.1-.07-.2-.12-.28-.07-.12-.15-.23-.24-.34 0-.07.01-.12.05-.17a.81.81 0 0 1 .08-.06c.23-.08.45-.2.64-.36a2.2 2.2 0 0 0 .56-.4c.07-.1.14-.18.2-.27.04-.1.1-.2.13-.32.05-.27.05-.36.06-.55.06-.27.01-.62-.1-.96zM243.38 98.9l7.47 4.23-.33 6.08-3.35-2.88-3.94-6.9.15-.52zm5.67 10.36l-.15.1-.26-.45.4.35zm-6.72-9.4l1.32 2.3c-.23-.2-.46-.4-.7-.57-.74-.58-1.54-1.14-2.45-1.7-1.12-.68-2.44-1.33-3.97-1.86.02-.03.04-.06.05-.1.01-.02.02-.03.03-.05l5.73 1.96zm-4.93.66c-.06.1-1.03-.35-1.82-.6.01-.02.01-.03.02-.05.6.2 1.2.4 1.8.66zm-1.8-.7c.02-.04.04-.1.06-.13l.73.22c.27.18-.13.08-.8-.1zm4.62-8.43c.03-.1.05-.2.07-.3l-.06.3-.01.01zm-5.4-10.45a2.3 2.3 0 0 1 .27-.28c.3-.3.93-.57 1.4-.48-.44-.1-.9.06-1.22.3-.17.12-.3.25-.44.4.07-1.18.26-2.46.46-3.78l.01-.6.03-.17c-.03.01-.01-.64.02-1.06.04-.17.08-.2.1-.26l6.86 13.08c.23.47.3 1.02.14 1.5-.15.5-.47.9-.92 1.12l-1.28.67a7.53 7.53 0 0 0 .17-.61c.01-.17.03-.35.04-.53.01-.01.01-.04.02-.02.1-1.2.03-1 0-.44-.01-.03-.02.02-.05.2.08-.47.13-1.1.03-1.74-.05-.32-.14-.63-.3-.9-.07-.14-.18-.27-.28-.38-.07-.07-.1-.1-.14-.1-.06-.01-.03-.06-.02-.1s.02-.05.03-.06l.01-.86c-.01-.33 0-.64-.06-1-.07-.35-.2-.7-.4-1a1.56 1.56 0 0 0-.41-.4 3.14 3.14 0 0 0-.25-.14l-.13-.05s-.03-.01-.04-.01a.81.81 0 0 0-.31 0c.02-.07.06-.18.06-.28 0-.05.01-.1 0-.17 0-.1-.01-.2-.02-.3-.02-.2-.07-.37-.14-.55-.13-.35-.32-.66-.55-.93-.1-.1-.24-.3-.43-.4-.16-.1-.35-.2-.56-.23a1.5 1.5 0 0 0-1.17.31c-.16.1-.1 0 .12-.17.1-.1.3-.18.55-.23-.2.03-.4.1-.57.2-.27.16-.47.37-.65.6.01-.04.02-.08.02-.1zm-15.32-7.1c-.5-1-.15-2.17.78-2.63l8.6-4.5a2.06 2.06 0 0 1 .94-.22 2.24 2.24 0 0 1 .57.08c.5.15.9.47 1.12.93l2.34 4.47c-.58.23-.82.68-1.02 1.03-.2.4-.34.8-.46 1.16.3-.76.24-.5.14-.16-.24.67-.44 1-.6 1.53l-.1.03c.2-.22-.57 1.74-.64 2-.2.35.34-1.03.36-1.22l-1.55 3.92c-.5 1.42.2-.22-.01.48-.48 1.23-.9 2.46-1.56 3.84l.26-.4c-.45 1.16-.83 2.1-1.2 2.9-.18.33-.36.64-.62.8l-7.32-14zM178.9 210.37c2.6-8.68 3.4-13.3 6.06-23.77l2.25-8.02c.32.2.65.4.98.58l.16.1c.06.04.13.06.2.1a.88.88 0 0 1 .1.06l-.01-.01c.2.12.43.24.65.35l-3.2 13.85-2.28 9.75-1.16 4.7-.97 3.74h-.04c-.18 0-.1.05.01.1-.01.03-.02.06-.02.1-.04-.01-.07-.01-.13-.02l-2-.65c-.26-.08-.54-.14-.83-.18.16-.48.24-.8.24-.8zm4.72 1.95l.13.12a.88.88 0 0 0-.15-.05c.01-.03.02-.05.02-.07zm23.62 22.94c.02-.13-.01-.18-.15.06.02.04.03.1.03.16-.01 0-.02.01-.03 0-.05.34 0 .3.05.14.01.01.04 0 .08-.04-.22.3-.24.97-.42.97-.2 1-.2 1.78-.36 2.63-.1.07-.15-.14-.12-.4l-.12.6c-.13-.04.01-.36.03-.55-.4.65-.16 1.5-.56 2.3l.06.2-.03.05c.06.01.08.2.07.34-.14.1-.26-.07-.36.34-.2.3-.18.92-.22 1.4.07-.25.12-.15.14-.03-.04.22-.18.33-.16.52H205c.16-.07.07.62.15.7-.13.12-.08-.36-.15-.43-.06.93-.06.47-.02 1.4.17.48.14-.1.3.12.07.42.24.8.3 1.3l.1-.2.47 1.04c-.72-.25-1.38-.45-1.38-.45-4.47-1.44-6.92-1.64-12.36-2.9-4.74-1.26-5.94-1.85-10.9-2.98-2.35-.6-4.87-1.18-7.18-1.73-.55-.03-1.4-.22-2.05-.42-.6-.2-1.14-.54-1.57-.85-.07-.13-.14-.24-.18-.37-.28-.22-.53-.57-.6-.93l.04.01c-.3-.45-.32-1.06-.36-1.3l.03.02c-.01-.2 0-.42.02-.63l.04.12c0-.4.16-1.05.3-1.63.14-.58.3-1.14.44-1.66l-.16.05c.55-1.7.63-2.63.96-3.87.22.37.5.72.85 1 2 1.7 12.8 4.4 24.1 7 1.9.4 3.2.7 3.7.9.6.2 1.2.3 1.9.3 1.9-.17 3.87-.9 5.5-2.5 0 .04-.02.12-.04.2zm.15-.22c-.01-.03-.02-.03-.02-.05l.04-.04c-.01.03-.01.05-.02.1zm3.94-12.8l-.01-.16c-.14.2-.16.27-.28.38.04-.15-.1-.17-.3.1l.03-.28c-.08.22-.16.44-.22.66-.4.34-.6 1.13-.83 1.25 0 0-.1.24-.2.52-.1.28-.15.6-.1.74-.07-.2-.23.28-.33.1.07.26 0 .98-.2 1.22v-.06c-.4.98-.25 1.8-.65 2.66.15-.01-.05.46.16.38-.06 1-.8 1.63-.33 2.1-.08.44-.26.48-.34.7v-.1l-.17.83c-2.2 3-5.15 3.6-7.38 2.97-.5-.1-1.9-.5-3.8-.9-6.5-1.5-21.6-5-23.7-6.8-.5-.44-.8-1.05-1-1.72.32-2.45 1.24-3.8 1.53-6.4-.04.34.1-.12.14-.1.26-1.23.57-2.54.3-2.63.23-.9.27-.7.4-.8-.1 0 0-.88.2-1.4-.03.1-.04.2-.05.28.17-.55.45-1.08.83-1.52l-.4.12c.34-.36.44-.34.52-.34s.13-.02.46-.3l-.13-.15c.55-.4 1.1-.53 1.6-.56.5-.03 1 .05 1.55.2l.46.1.55.14 1.1.28 2.25.53 4.54 1.03c3 .68 5.96 1.4 8.65 2.24l.2.2c.05.23 1.58.07 1.74.32l.66.06c.17.08.54.22.2.18.6.16.6.13 1.05.17l.6.3c2.3.68 4.33.93 6.75 1.6 1.1.38 2.58.78 4.18 1.17a1.6 1.6 0 0 0-.23.35c.27-.24.32.1 0 .35zm4.68-1.7c-.13-.08-.27-.1-.4-.14-.5-.15-1-.17-1.47-.12.04.04.02.07-.01.1-.38-.13-.83-.26-1.3-.3-1.25-.35-2.7-.02-3.98-.5-.66-.02.6-.1-.35-.22.01-.16.46.01.25-.17-.93-.16-1.46-.54-2.62-.72l-.02-.13c-1.53-.15-2.74-.86-3.77-.9-1.54-.28-.93-.6-2.57-.78l-.57-.32c-.67-.2-.54.08-1.27-.2.07-.1-.93-.32-.46-.3-1.4-.5-2.95-.62-4.7-1.15 4.7.05 8.88-.16 13.95-.12 2.77.1 6.58.14 10.6.1l-1.27 5.86zm2.44-11.12l-.8 3.53c-2.73.02-5.53.62-8.37.48-1.4.14 1.24-.23-.87-.12-.07-.16.98-.1.44-.23-2.07.08-3.4-.16-5.95-.06l-.1-.12c-3.33.23-6.28-.16-8.5.05-3.43.1-2.3-.37-5.88-.13l-1.4-.17c-1.2-.02-1.2.12-1.98.14l-.06-.02.27-.04-1.65-.47.23-1 .6-2.78c.42-1.9.9-3.95 1.56-6.18.06-1.12.77-3.56.8-4.4.12-.1 1.2-4.96.73-2.13-.04.24-.15.66-.17.63l.04.36c.9-2.75 1.1-5.12 1.8-7.9-.24.8-.5 1.9-.4 1.16l.64-2.57-.03.56.98-3.83-.25.5c.47-1.7.82-2.38 1.13-4.13 1.73.53 3.47.76 5.16.84l.32.13c.07.1.57.01 1.07-.1.5-.13 1-.3 1.16-.2l.8-.2c.23-.01.72-.08.33.06.75-.16.76-.2 1.28-.38.28-.01.55-.06.82-.1 2.93-.8 5.13-2.26 7.64-4.14 1.6-1.03 3.54-3 5.16-5.24 1.65-2.24 2.72-4.85 3.5-6.68 1.95-5.26 4.87-11.1 6.24-16.68.08-.17.16-.65.14-.65l1.56-4.98s1.82-6.06 2.65-9.9c.8-3.85.85-5.4-2.58 3.6l-.01-.14c-.9 2.7-1.42 4.42-1.76 6.36-.37.2-.7 2.23-1 2.84v-.07c-.3 1.72-1.24 3.36-1.58 5 0-.07-.07-.13.05-.5-.34 1.17-.8 2.77-1 2.8-.87 2.78-2.35 6.54-2.8 8.36v-.14c-.2 1.06-.5 1.27-.86 2.4-.05.05-.1.12-.1.1-.13.57-.47 1.34-.83 2.06l-.9 1.84h-.13c-.36.66-.66 1.35-1.1 1.95.16-.23.35-.44.48-.7.08.22-.23.53-.6 1-.4.44-.84 1.06-1.3 1.74-.5.57-.85 1.3-1.3 1.96-.46.65-.9 1.35-1.57 1.82-.5.6.37-.6-.44.2-.13-.1.34-.42.04-.32-.4.38-.78.64-1.18.93-.4.28-.87.52-1.4.96l-.1-.07c-.33.3-.7.55-1.06.74-.37.2-.73.37-1.07.54-.7.3-1.36.5-1.86.85-.85.35-1.17.34-1.5.37-.32.04-.64.06-1.54.38-.25 0-.5 0-.75-.01-.8.08-.54.28-1.44.32.04-.08-1.13-.03-.6-.14-1-.02-2 .02-3.1-.06-.54-.07-1.1-.1-1.67-.27-.28-.08-.58-.14-.86-.25a20.81 20.81 0 0 1-.85-.39c-.6.01-1.65-.74-2.1-.88 0-.07-.6-.4-.93-.73-.36-.3-.56-.5.1-.1.1.07.3.2.25.23.07.01.15 0 .22 0-1.05-1.08-2.22-1.58-3.17-2.74.26.36.65.8.33.56l-.9-1.05.27.15a2.4 2.4 0 0 0-.56-.45c-3.95-5.18-5-12.17-3.15-19.7a7.87 7.87 0 0 1 .1-.47c-.17.1.2-1.43-.04-1.08.5-3.1 1.9-5.4 1.7-6.65.44-1.37.7-1.56.98-2.25l-.1.33c.9-2.54 1.2-3.27 1.96-5.13.33-.95.14-1.2.9-2.84-.13.58.14-.1.4-.73-.15.4-.17.54.24-.25.02-.13.07-.3.13-.5.01 0 .03-.03.03-.01.4-1.05.3-.9.08-.4 0-.03-.04 0-.13.14.58-1.03 1.25-3 1.47-3.07 1.28-3.15 2-5.45 3.1-8.05.2-.25.02.38-.27 1.14l.77-1.84c.12.07-.4 1.08-.6 1.65.57-1.04 1.02-2.18 1.52-3.35.48-1.18 1.02-2.4 1.74-3.57l.17-.56.1-.14c-.06-.02.18-.6.36-.97.3-.3.22.15.88-1.05.3-.45.68-1.1 1.08-1.82.4-.7.78-1.47 1.17-2.06-.45.6-.37.38-.2.08.4-.56.7-.82.97-1.28l.17.04c-.13.07.07-.33.37-.75.3-.4.64-.88.7-1 .33-.23-.58.9-.62 1.07 1.7-2.1.78-1.13 2.63-3.1.9-1.14-.3.1.1-.5.4-.5.9-.9 1.37-1.37l.75-.68c.28-.2.58-.4.9-.6l-.46.16 1.32-1c.4-.3.83-.5 1.2-.7.4-.2.75-.4 1.12-.57.38-.13.76-.25 1.16-.37 2.04-.98 3.8-1.34 5.14-1.6.67-.17 1.25-.2 1.73-.24.5-.05.92-.03 1.23 0 .8.06 2.48.24 2.58.17l-1.33-.65 1.62-4.03c.05-.13.15-.23.3-.3a.46.46 0 0 1 .32-.02c.1.48.15.9.1 1.3a37.39 37.39 0 0 1-.64 3.72c-.25.34-.92 2.83-1.33 3.6v-.08c-.7 2.12-1.96 4.14-2.88 6.08.03-.08.01-.14.23-.58-.7 1.4-1.76 3.26-1.9 3.3-1.64 2.78-2.52 6.15-1.5 4.62 1.08-1.63 2.14-3.27 3.14-4.94.98-1.68 1.87-3.37 2.62-5.07a4.8 4.8 0 0 0 .21-.48c.07-.18.12-.32.1-.32.95-2.05 1.78-4.17 2.37-6.38 0 0 .14-.5.32-1.35.1-.42.18-.94.25-1.5l.06-.43a4.39 4.39 0 0 0 .04-.53 4.82 4.82 0 0 0-.13-1.07c-.3-1.38-.8-2.7-.72-4.1.03-1.5-.04-2.97-.15-4.24-.13-1.47-.33-2.66-.5-3.32.17-.01.42.01.6.14.26.16.5.56.68.98.17.44.33.94.43 1.27l.17.55c.25.86.43 1.68.76 2.55.1.22.18.44.32.66.03.05.06.12.13.2l.1.12.2.24c.13.17.25.33.5.57.28.26.63.44 1 .46s.72-.12 1-.37c.15-.1.26-.25.37-.4.1-.12.14-.2.2-.3.24-.4.38-.76.52-1.1l.84-2.04 3.75-9.75c.17-.47.3-.87.48-1.2.16-.34.4-.64.5-.7.03-.02.07-.02.1-.01.02.01.02 0 .06.03.01.01.03.02.04.03.02.03.02.03.03.1.01.14.02.3.01.45-.04 1.3-.22 2.52-.38 3.72-.15 1.22-.4 2.38-.5 3.92a4.81 4.81 0 0 0 .01.65c0 .06.02.14.03.23 0 .03.02.1.05.17.03.07.02.1.16.3.06.07.1.13.2.2.14.1.34.14.5.14.18-.01.2-.04.32-.08.08-.03.2-.1.22-.14a1.56 1.56 0 0 0 .24-.28l.16-.27.14-.2a2.02 2.02 0 0 1 .3-.34c.22-.2.36-.23.44-.2.03 0 .07.02.1.05.02.01.05.04.08.05.01.01.01 0 .02.01.1.12.24.28.32.43a1.63 1.63 0 0 1 .18.46.91.91 0 0 1 .03.23c0 .05.01.05 0 .14-.02.1-.02.2-.07.33l.42.6.45.58c.85.1.66.98.63 2.67.16.2.26.33.36.42l.16.18c.04.06.05.2.06.2.01.02.04.04.06.08a1.14 1.14 0 0 1 .13.36c.07.3.1.65.08 1.02a8.62 8.62 0 0 1-.34 2.16c-.16.8-.63 1.85-1.3 2.85-.65 1-1.5 2-2.04 2.93l-.5.66c-.1.18-.2.36-.3.54-.1.2-.1.27-.13.36l-.1.28c-.12.37-.24.74-.37 1.08V100c-.28 1.03-.7 2.17-.84 2.68l-.01-.05-.4 1.24.04-.22c-.53 1.8-1.13 3.6-1.7 5.2l.13-.1c-1.23 3.4-1.47 4.72-2.6 7.78v-.05c-1 3.7-2.04 5.84-3.08 9.4-4.5-2.72-7.3-3.8-13.05-6.8l-3.28-1.87-1.32-.78c-.23-.13-.46-.27-.68-.4l-1.2-.67-.3-.17-.15-.08c-.02-.01-.05-.04-.07-.03l-.06.06-.45.5-.9 1.02-1.06 1.2c-.73.84-1.53 1.8-2.5 3-1.9 2.25-3.8 4.75-5.55 7.04-.3.53-.8 1.2-1.3 1.87l-.13.42s-5.9 8.32-5.3 8.74c.27.2 1.72-1.33 3.2-3.02 0-.01.01-.02.01-.03.64-.94.9-1 1.27-1.47l-.03.04c.05-.05.1-.1.14-.17 1.02-1.46 1.42-1.97 2.3-3.14.44-.66.3-.92 1.22-2-.2.43.14-.04.47-.46-.2.28-.23.38.25-.12a2.06 2.06 0 0 1 .19-.35c.01 0 .03-.02.03 0 .52-.72.4-.62.13-.3 0-.03-.04-.01-.14.07.68-.64 1.58-2.02 1.8-2 1.63-2.1 2.7-3.7 4.06-5.44.23-.13-.04.32-.42.84l.98-1.23c.1.1-.52.74-.8 1.13.68-.65 1.26-1.42 1.87-2.22l.9-1.14c.1-.1.18-.22.27-.3.02-.01.04-.06.07-.05l.1.06.16.12h.23l.1.08c.02-.05.5.12.8.25.22.25-.15.23.8.74.7.5 2.18 1.1 3.2 1.6-.53-.3-.32-.27-.07-.18.48.26.7.5 1.1.66l-.03.16c-.12-.23 1.33.54 1.53.57.22.25-.8-.3-.95-.3l2.9 1.54c1.08.45-.12-.23.44-.1.92.46 1.85.84 2.85 1.5l-.26-.3c1.75.82 2.76 1.4 3.84 2.13l2.88 1.25.63.34c.01-.02.02-.05.02-.07 6.4 2.63 1.97-.17.38-1.14.14-.4.25-.7.34-.87 0 0 1-2.9 1.13-3.6-.13.6.43-1 .36-.5.18-.78.86-3.04 1.23-3.9l-.05.17c1.18-3.28 1.76-5.7 2.85-8.63-.13.1.44-1.45.2-1.1.37-1.27.78-2.4 1.14-3.42 1.3 1.85 2.04 4.15 2.4 6.5.43 2.85.5 5.78.3 8.62-.06 1.43-.22 2.83-.4 4.22-.15 1.4-.4 2.74-.63 4.07l-.2.45c-.12.1-.15.83-.2 1.6-.06.77-.12 1.57-.25 1.76l-.13 1.26c-.1.34-.27 1.07-.2.44-.22 1.14-.18 1.18-.28 2.02l-.37 1.2c-.98 4.5-1.53 8.4-2.58 13.13-1.46 5.65-3.53 16.43-4.76 22.64-1.6 8.76-4.67 18.67-6.3 27.63-.1.28-.2 1.05-.17 1.05l-1.86 8.17zm-27.35-28.9c.01 0 .02 0 .02.01-.02.04-.03.05-.02-.01zm43.77-78.14l.15.3c-.06-.07-.1-.14-.17-.2.01-.02.02-.05.02-.08zm21.43 104.55c-.82-.02-1.72-.03-2.67.03-2.97-.04-6.03.64-9.12.5-1.47.14 1.3-.23-.9-.12-.07-.16 1.03-.1.46-.23-1.03.04-1.9 0-2.8-.03a9.23 9.23 0 0 0 .85-1.86c.25-.72.37-1.35.56-2.03.18-.67.35-1.34.5-2 1.24-5.4 2.08-10.9 2.43-16.07.06-.33.08-1.2.06-1.2.34-3.14.6-6.3.87-9.43l.48-6.6.68-11.93c.16-3.55.22-6-.07-5.44-.3.58-.94 4.2-1.97 12.86l-.03-.24c-.47 5.15-.73 8.4-.78 11.97-.33.54-.38 4.23-.6 5.42l-.01-.12c-.06 3.16-.82 6.43-1 9.46-.01-.1-.06-.17-.02-.64-.23 2.17-.58 4.95-.77 5.08a102.18 102.18 0 0 1-1.57 8.53c-.32 1.48-.6 2.64-1.2 3.6-.55.98-1.23 1.76-1.78 2.34l.13-.18c-.6.68-1.1 1.04-1.6 1.4-.52.34-1.08.68-2 1.2-.1.03-.25.08-.23.06-.86.53-2.26 1.08-3.66 1.38-1.4.33-2.75.36-3.6.4l-.1-.1-4.2.03 1.57.02c-.45.25-2.35-.04-4.7-.04a65.08 65.08 0 0 0 .68-3.77c.4-.42.85-3.65 1.18-4.67v.1c.4-2.76 1.44-5.55 1.83-8.2 0 .1.06.18-.07.78.4-1.92.9-4.54 1.1-4.64.97-4.57 2.46-10.9 2.84-13.9v.2c.2-1.7.45-2.16.77-4.04.04-.1.08-.23.1-.2.22-1.85 1.13-5.3 1.38-6.78l.13-.07.76-3.62-.32 1.35c-.2-.53.78-2.7 1.15-5.36.56-2.45.45-5.1 1.13-7.63.12-1.25 0 1.12.28-.72.17-.03-.08.87.14.43.3-1.8.78-2.9 1.13-5.12l.14-.06c.37-2.92 1.28-5.4 1.45-7.36.48-3 .77-1.92 1.1-5.07l.38-1.18c.27-1.33-.03-1 .32-2.46.1.1.38-1.86.35-.98.3-1.68.57-3.4.7-5.26l.28-2.9a69.41 69.41 0 0 1 .29-3.21c-.15-1-.05-3.28-.23-4 .1-.12-.35-4.6.06-2.04.03.22.06.6.02.6l.14.3c.06-2.4-.55-4.37-1.36-6.57.16.5.23.85.05.4-.27-.78-.6-1.55-.94-2.3.13.13.2.28.3.43-.5-1.08-1.14-2.13-1.94-3.05.1-.36.16-.68.17-.93.22-.7.38-1.12.5-1.44 1.38.52 2.76 1.13 4.14 1.93l1.14.7 1.13.8 1.1.9c.27.25.58.68.87 1.02.2.16.38.36.55.56l.1.2c.02-.03.62.6.86 1.13.1.55-.2.06.53 1.8.52 1.4 1.26 4.1 1.6 6.1-.12-1.08-.01-.74.1-.28.12.97.1 1.54.2 2.28l-.12.1c.12.13.35 2.6.4 2.92-.08.56-.18-1.5-.3-1.75.18 1.95.13 2.45.17 2.94.02.5.06.98.07 2.95.13 2.1.15-.38.3.62.03 1.86.1 3.68-.07 5.8l.17-.67c-.01 3.5-.16 5.6-.45 7.94l-.16 11.9c.06 1.75.22 1.64.43.7.2-.93.43-2.68.6-4.2l.3-2.8c.53-5.13.76-9.03.82-13.2.03-2.08.04-4.23-.04-6.64-.07-2.4-.2-5.06-.6-8.17-.13-1.37-.4-2.6-.6-3.75l-.12-.5.66.12c2.2 4.06 7.4 15.53 7.54 33.57.17 21.07-.48 56.15-.6 61.94zm19.5 5.77c.05-.06-.08-.1-.16-.14-.1-.04-.13-.1-.12-.15 0 .02-.01.03-.03.05l-.52.04c-.4.03-.83.05-1.28.06l-1.3.01c-.22 0-.4-.01-.52-.03-.14-.02-.27-.03-.37-.07.05 0 .1.01.16 0-1.54-.23-2.75-1-3.5-2.03a4.35 4.35 0 0 1-.77-1.76c-.1-.58-.1-1.5-.1-2.35-.14.16-.13-1.68-.3-1.22-.3-3.6.18-6.58-.42-7.87-.07-1.64.1-1.95.1-2.8l.04.4-.18-6.25c-.08-1.14-.35-1.3-.34-3.36.12.66.08-.18.06-.94.03.5.07.64.12-.37-.04-.14-.06-.36-.1-.56.01-.01.01-.05.03-.03-.07-1.28-.1-1.05-.1-.46-.02-.03-.04.02-.06.2.1-1.33-.1-3.7.06-3.86-.17-3.84-.45-6.57-.67-9.76.08-.36.2.38.27 1.3l-.13-2.26c.13.01.13 1.3.2 2 .1-2.7-.48-5.55-.46-8.72l-.15-.65v-.2c-.06.01-.18-.7-.23-1.16.1-.45.27.01.16-1.55.04-1.25-.3-3.5-.52-5.12.05.87-.03.6-.1.23-.07-.78.01-1.24-.1-1.84l.12-.07c-.12-.1-.32-2.07-.42-2.33.07-.46.23 1.2.33 1.4l-.5-4.7c-.3-1.66-.12.32-.34-.46-.2-1.47-.5-2.9-.63-4.58l-.07.55c-.46-2.74-.76-4.38-.9-6.26-.63-2.52-1.1-4.47-1.6-5.94-.48-1.46-.84-2.46-1.1-3.1-.53-1.28-.67-1.14-.6-.4.06.75.3 2.1.52 3.28a56.66 56.66 0 0 1 .4 2.17l1.67 10.2c.5 3.22 1.04 6.64 1.5 11.45.62 8.48.46 10.74.95 19.54l.48 12.8c.26 1.95.14 5.4.36 7.7l-.1.9c.08.8.14 1.73.1 2.53l-.04-.05c.12 1.2.1 2.53.16 3.13l-.04-.05.06 1.45-.06-.25c.15 2.08.22 4.22.26 6.1l.14-.16a12.21 12.21 0 0 0 .01.61l-2.2.02-.12-.1-4.38.03 1.64.02c-.33.18-1.4.1-2.82.02l.58-62c-.18-20.67-6.93-32.9-8.4-35.32l1.95 1.67v-.18c.4.74 1 1.78 1.5 2.48 1.75 2.32 3.55 5.45 4.66 7.98l.74 1.74.54 1.33c.3.7.5 1.04.56.78.03-.25-.03-1.1-.42-2.73s-1.14-4-2.74-7.14l.13.14c-1.7-2.97-3.2-4.88-4.86-6.52l.04-.73c.47.35.94.72 1.37 1.1.45.34.83.74 1.22 1.1.38.37.8.7 1.1 1.05.65.7 1.28 1.28 1.72 1.77l-.14-.1c1 1.1 1.24 1.5 2.17 2.88.03.1.08.2.06.18a13.47 13.47 0 0 1 .83 1.2l.78 1.52c.56 1.02.9 2.08 1.2 2.68l-.07.12c.45 1 .75 2.04 1.06 3.08l-.33-1.18c.4.33.58 2.4 1.27 4.7.24 1.1.65 2.17 1.06 3.26.4 1.1.74 2.2.9 3.37.37 1.06-.43-.92.02.7-.15.1-.26-.74-.3-.3.4 1.6.4 2.66.86 4.62l-.1.1c.7 2.55.76 4.9 1.25 6.6.56 2.66-.06 1.86.66 4.6l.01 1.1c.16 1.2.34.82.47 2.16-.12-.06.18 1.7-.04.93.32 3.02 1.17 6.06 1.47 10.06.34.83.48 2.84.73 3.47-.07.12.54 4 .04 1.8-.04-.2-.1-.53-.05-.5l-.16-.25c.1 2.3.7 4.1.95 6.34-.05-.67-.17-1.55-.01-.97l.26 2.08-.16-.42.35 3.1.07-.44c.14 1.53-.02 2.1.38 3.78.2.76-.01-1.46.23.14l.68 7.7c.1-.26.2.44.3 1.15l-.1.1c.5 2.73-.15 1.04.3 3.76l.23.46c.53 2.44-.1 1.36.54 4.06-.14-1.08.22-.54.3.8l-.16-.32c.1.74.18.98.2 1.47-.1-.43-.2-.2-.06.87l-.23-.7.44 2.03c.04 1.6.47 4.1.37 4.76l.17 1.8c.07.65.06.53.1.68.02.06.04.12.05.16-.03 0-.05.01-.06.04zm30.7-1.52l-.67 2.14-.38 1.23-.94-.26-1.85-.53-3.7-1.1-7.3-2.33c-4.82-1.6-9.5-3.28-13.88-4.96l-.46-.32c-.02-.04-.12-.1-.25-.14-.14-.9-.3-1.54-.44-1.54-.17-1.58-.05-1.3.03-1.52-.12.02-.33-1.35-.47-2.58l.1.56-.45-3.54-.15.72c-.15-1.88.23-.5-.03-2.3l-.2.05c-.26-2.6-.16-4.16-.3-6.7-1.18-10.45-3.2-21.58-4.36-31.3l.08-.45c.18-.22-.73-2.62-.6-3.02l-.27-1.1c-.01-.32-.1-1 .06-.44-.17-1.04-.2-1.06-.4-1.8l-.06-1.14c-.58-4.12-1.48-7.55-2.27-11.86-.2-1.3-.5-2.88-.83-4.6l-.16-.7 1.12 2.42c2.08 4.74 4.12 9.9 5.96 14.66 1.06 2.2 2.4 6.27 3.7 8.87l.32 1.08c.45.9.98 1.94 1.34 2.88l-.06-.04c.74 1.3 1.43 2.85 1.85 3.48l-.06-.04.92 1.6-.2-.25c.33.57.7 1.1 1.1 1.66l.56.82c.18.27.36.54.6.84.93 1.12 1.9 1.93 2.8 2.72l-.06-.24c1.9 1.7 3.32 2.66 4.68 3.62 1.36.95 2.67 1.84 4.48 3.2h-.07c4.93 2.9 7.36 5.24 12.48 8.15-.64-.36.22.23.15.23 2.3 1.44 4.68 3.02 4.86 2.82l.35.26a1.22 1.22 0 0 1 .16.14c.1.1-.03.17-.03.2-.06.08-.1.07-.18.1.03 0 .05.04.05.1a8.19 8.19 0 0 1-.17.72c-.16.6-.4 1.38-.62 2.1l.17-.7-1.3 4.22.5-.75c-.78 2.2-.45.48-1.08 2.63l.2.03c-1.02 3.07-1.88 4.8-2.97 7.73l-1.37 4.25zm35.4-2.08c.18.1.4.2.7.3-.3-.08-.4-.1-.3-.03.03.02.1.04.17.07-.33-.01-.65.04-.94.16.15-.2.27-.36.36-.5zm2.23 10c-.17.5-.6.86-2.75.2-1.62-.6-2.34-1.15-2.2-1.67.3-.73.92-.76 2.75-.2l.26.1c1.7.63 2.14.9 1.94 1.57zm2.3-2.8c-.3.84-1.18.88-3.4.18-1.36-.34-2.3-.84-2.6-1.38a.69.69 0 0 1-.05-.58c.1-.3.26-.5.5-.62.17-.08.38-.12.6-.12.66 0 1.53.28 2.3.56 1.12.28 2.3.65 2.63 1.23.08.14.16.35.03.73zm1-3.3c-.3.83-1.18.88-3.4.18-1.36-.34-2.3-.84-2.6-1.38-.1-.2-.12-.37-.05-.57.4-1.04 1.15-.97 3.4-.18 1.12.28 2.3.65 2.63 1.23.07.13.15.34.02.72z"/></svg>