<svg xmlns="http://www.w3.org/2000/svg" viewBox="0 0 480 480" xmlns:v="https://vecta.io/nano"><path d="M426.12 241.42h0c-.01-.01-.02-.02-.03-.02l.03.02z"/><g fill="#fff"><path d="M320.7 105.84c.6-2.4 2.7-4.1 4.3-5.4s7.9-3.2 7.9-3.2.6 1.6-.3 2.9c-1.8 2.7-5.3 3.9-5.3 3.9l-3.15 5.72s1.64.46 3.47 2.1 2.3 3.4 2.3 3.4m11.28-17.62c-.8-.6-2.9-1.5-3.7-.2-.45.82-.03 2.26.95 3.36l-.15-.06c-1-.4-3.6-.8-4.2.6-.4.82.36 1.9 1.62 2.63-1.23-.07-3.18.27-3.42 1.47-.14.85.54 1.9 1.66 2.6l-.12-.03c-.8-.2-2.9-.3-3.1 1-.2 1 1.4 2.2 3.2 2.4 1.8.3 2.8-.1 3.1-1.6.1-.5-.2-.87-.64-1.12 1.72.01 3.16-.5 3.5-1.95.18-.77-.32-1.32-1-1.72 1.55.3 2.66.1 3.3-1.18.3-.58-.02-1.1-.57-1.54.9-.04 1.63-.52 2.17-1.36.9-1.4-1.8-2.7-2.6-3.3z"/><path d="M345.18 89.84l-3.14-.82c-1.06-.35-1.86.27-3 1.5l-6.08 6.96-.07-.25s-6.3 1.9-7.9 3.2-3.7 3-4.3 5.4c-.5 1.9-2.3 7.2-3 8.4-1.12 1.93-11.53 12.1-15.6 16.04l-.7-.84c-.4-.5-1.2-.6-1.7-.2-2.5 1.9-9.5 6.9-13.6 8.8-3.9 1.8-9.4 1-15-4.4-2.3-2.2-5.4-6.05-8.28-9.88-7.02-16.56-18.16-20.47-20.12-21.22a59.45 59.45 0 0 1 1.49 1.18c-4.1-2.78-8.67-4.4-13.72-4.58-5.7-1.4-12.66-.43-18.37 1.6-12 4.6-30.1 27.5-39.9 45.1-6.2 11.1-11.9 37.3-11.9 37.3-.2.6 0 1.1.4 1.4l2.6 1.48a47.91 47.91 0 0 0-1.6 5.32c-5.5 19.1-7.3 35.3-7.3 35.3s-4.5 8.9-5.1 20.3c0 .8-.2 2.1.6 2.7.7.5 1.3-.2 1.3-.2s-.4 3.1 0 3.8c.8 1.6 1.8.2 1.8.2s.3 2.2 1.6 2.6c1.2.3 1.7-1.2 1.7-1.2s.4 1.3 1.5 1.2c.8-.2 1.95-2.84 2.35-5.44l2.25-7.76c.2-1 1 1.6 1.3 3.2.5 1.7 2 3.1 2.1 0s.6-5.7.6-6.6c-.1-.8.1-4-.7-6.2-.5-1.4-1.6-3-.7-6.3 1.75-5.25 10.86-22.1 15.6-31.03l1.1.63a.95.95 0 0 0 1.3-.2c.43-.6 3.22-5.72 6.87-12.14l-7.37 30.64h45.2c4.37 0 9.86-2.34 12.6-6h26.1v-.02c.01.14.01.28.02.42.1 3.1 2.7 5.6 5.9 5.6h4.9s-2.03-20.9-5.22-43.87c4.3 1.77 8.4.9 16.32-4.43 11.5-7.7 21.2-20.2 23.6-23.4.3-.4.3-1.1-.1-1.5l-.05-.06 14.85-19.12 1.3-.93s4.2-3.1 5.6-4.3c1-.78 5.53-8.27 8.13-12.64a2.7 2.7 0 0 0 .57-.76c.06-.12.07-.23.1-.34l1.2-2-.08-.04c.15-.15.28-.32.4-.52.84-1.3-1.45-2.52-2.4-3.17L346 92c.6-.77.2-1.97-.8-2.17zM240.82 208.02c-.04.06-.08.13-.12.2.05-.07.08-.13.12-.2zm.68-1.38c.1-.3.2-.6.28-.9a7.76 7.76 0 0 1-.28.9zm-.37.82c.07-.13.13-.26.18-.4-.05.14-.1.27-.18.4zM341.18 97.64a1.56 1.56 0 0 0 .19.13c-.07-.04-.13-.1-.2-.13zm-75.53 117.6l.03.02v-.01c-.02 0-.02 0-.03-.01zM148.8 243.88c0-.05.01-.1.01-.15v.15zm42.7-126.8l.1-.13c-.07.08-.1.12-.1.13z"/></g><path d="M333.13 100.2h0l.02.07z"/><path d="M346.64 90.5c-.23-.6-.74-1.03-1.33-1.15l-3.12-.8c-1.4-.46-2.43.47-3.52 1.65l-5.34 6.12c-.05.01-.1.03-.16.05 0-.05-.01-.12-.02-.17-.05-.01-.08-.02 0-.08-.33.18-1.03.46-1.34.47l.06-.03-.33.08-.2.07-.37.16c-.24.1-.47.2-.76.26.05.07-.25.13-.14.2-.01 0-.01 0-.02.01l-.53.18c-.2.04-.4.1-.5.18l-3.05 1.27-.97.52a7.58 7.58 0 0 0-.5.35l-.4.33-1.6 1.43c-1.03 1.02-1.97 2.26-2.4 3.7-.2 1.28-1 3.3-1.38 4.72l-.26.5c-.14.5-.32 1.05-.53 1.5l-.01-.04c-.2.72-.58 1.5-.7 1.78v-.03c-.1.24-.3.44-.44.67l.06-.13c-.72 1-1.68 2.03-2.5 2.88l.13-.01-4.1 4.16.01-.04c-1.9 2.25-3.4 3.17-5.4 5.45.25-.28-.15.08-.14.04-2.82 2.92 1.4.27 1.77.04l1.88-1.94c-.27.36.6-.47.43-.17.35-.46 1.5-1.7 2.03-2.1l-.08.1 4.53-4.67c-.13.02.7-.82.43-.68l2.08-2.35c.3-.37.53-.77.64-1.1.12-.32.2-.6.2-.83.37-1 .53-1.14.73-1.65l-.07.24 1.28-3.8c.2-.7.08-.87.47-2.12-.03.27.01.13.08-.1.17-.22.35-.56.35-.56.55-.8.76-1.38 1.42-2.22.07-.06.13-.1.15-.1l1.08-1.04.37-.26c.35-.23.74-.57 1.2-.88l1.74-.9c.02-.02.04-.03.06-.04l2.2-.85 1.63-.6.15-.03c.1-.04.24-.14.33-.15l-.01.08.42-.23c0 .08-.02.14.08.2-.03-.02-.04.02-.07.02.04.27.02.6.18.62-.04.22-.1.17-.16.18.07.01.06.2 0 .37v-.08a1.89 1.89 0 0 1-.19.44h.17c-.18.2-.17-.04-.3.2l.1.06c-.25.32-.55.4-.86.62-1.1 1.1-2.48 2.32-3.97 2.7l-.1-.06c-.03-.07-.28.12-.45.23-.05.16-.1.3-.15.3-.04.1-.07.2-.07.26-.04.03-.12.12-.1.02-.1.15-.07.16-.1.3l-.16.12c-.38.56-.52 1.13-.88 1.73-.28.33-.57.86-.85 1.42l-.88 1.88c-.05.15-.16.32-.2.45.47.13 1 .32 1.33.5a6.28 6.28 0 0 1 .75.52c.5.37.94.77 1.44 1.06.02.04.13.08.14.07.28.26.55.52.8.8l.5.6c.27.36.57.82.8 1.2s.4.6.5.5c.1-.1.22-.63-.16-1.78l.04.01c-.3-.63-.6-1-1-1.26.08-.18-.38-.43-.46-.58h.02c-.14-.07-.25-.18-.36-.3l1.04.32c.3.1.66.17 1.03.17.54 0 1.1-.16 1.52-.57a5.51 5.51 0 0 0 2.45.92c.34.06.7.1 1.1.1 1.12 0 2.25-.4 2.58-2.1a1.37 1.37 0 0 0-.19-1.05c.42-.01.8-.05 1.18-.14l-1.8 3.1.04-.1c-.43.9-.66 1.08-1.2 2.02-.04.04-.1.1-.1.1-.5.92-1.7 2.66-2.26 3.1l-.1-.02-1.67 1.3.64-.47c-.1.3-1.34.9-2.5 1.9-1.02.76-1.84 1.8-2.95 2.58l-.35.42c-.37.62.28-.58-.33.3-.1-.03.26-.43.03-.26-.6.86-1.13 1.3-1.87 2.36h-.1c-.93 1.42-2.03 2.45-2.62 3.42-1.02 1.4-.9.8-1.9 2.3l-.5.5c-.5.6-.24.5-.8 1.16-.02-.08-.7.83-.45.4l-4.02 5.13c-.24.52-1.1 1.5-1.27 1.87-.02.01-.16.17-.32.36-.1-.08-.18-.17-.25-.2.44.34-.5-.82-.12-.6-.55-.45-1.98-1.95-2.4-2.68l.1.1-5.2-6.07c-.03.2-.9-.97-.82-.57l-.73-.8-.33-.4-.16-.2c-.08-.1-.17-.2-.27-.3-.8-.74-2.02-.74-2.75-.17-.9.62-1.48 1.06-1.73 1.6-1.03.78-1.32.78-1.88 1.14l.23-.2-4.03 2.78c-.72.53-.7.84-2.1 1.62.38-.36-.16 0-.67.3.32-.2.4-.3-.3.04-.08.08-.2.2-.34.28-.01 0-.04.01-.03-.01-.84.52-.68.46-.27.25-.01.03.03.02.17-.02-.95.4-2.53 1.36-2.7 1.2-1.27.55-2.47.76-3.63.8a10.74 10.74 0 0 1-3.44-.47c-.23-.17.34-.07 1 .08l-1.62-.5c.06-.12.94.28 1.45.38-1.84-.72-3.97-1.38-5.77-3.04l-.45-.24-.1-.1c-.03.05-.5-.24-.78-.48-.17-.32.2-.17-.68-1-.6-.74-1.93-1.9-2.8-2.85.43.53.24.4.01.2-.4-.46-.55-.8-.88-1.14l.08-.15c.04.28-1.14-1.14-1.33-1.27-.13-.34.68.68.85.74l-2.32-2.88c-.9-.97.03.28-.47-.13a.7.7 0 0 1-.08-.1c-1.26-3.1-2.8-6.02-4.12-8.13-2-3.1-4.34-6.3-7.24-9.1-2.85-2.82-6.35-5.2-10.07-6.5l-3.8-1.32a19.19 19.19 0 0 0-5.47-1.8c-1.4-.26-2.83-.35-4.24-.36h-.2a21.84 21.84 0 0 0-4.84-.47l-1.23.03-1.18.1c-.78.06-1.53.23-2.3.38-.27-.13-1.2.03-2.17.22l-2.53.6.1-.05c-1.3.48-2.7.8-4.02 1.33-.66.28-1.34.55-1.97.86-.6.35-1.2.72-1.73 1.1.08-.07.08-.17.6-.5l-1.3.83-1.2.9c-.75.54-1.34.92-1.44.9-3.66 2.84-8.23 7.35-9.98 9.7l.1-.18c-1.02 1.33-1.43 1.62-2.6 3.07-.08.06-.18.15-.17.13-.54.73-1.38 1.76-2.2 2.74-.83.98-1.62 1.93-2.04 2.53h-.15l-2.2 2.87c.27-.36.55-.7.84-1.06-.06.55-1.8 2.06-3.2 4.28-.73 1-1.32 2.1-1.92 3.2-.6 1.1-1.18 2.24-1.96 3.24-.56 1.08.4-1-.52.55-.17-.04.4-.76.02-.44-.9 1.53-1.73 2.35-2.8 4.27l-.15.01c-1.32 2.55-2.92 4.56-3.68 6.33-1.28 2.7-1.28 1.62-2.32 4.56l-.6 1.05c-.5 1.22-.17.95-.77 2.3-.07-.12-.7 1.7-.5.87-1.3 3.07-1.98 6.43-3.47 10.53-.07.96-.78 3.04-.82 3.76-.12.1-1.16 4.23-.7 1.8.04-.2.14-.57.17-.53l-.04-.32c-.88 2.34-1.03 4.4-1.67 6.76.22-.7.44-1.64.37-1l-.56 2.2v-.5l-.85 3.3.23-.43c-.22.8-.42 1.33-.6 1.9a11.21 11.21 0 0 0-.23.92c.01-.02-.13.44-.1.8.01.38.12.82.38 1.2.55.62.04.03-.1-.5-.07-.25-.07-.46-.05-.4.04.04.01.42.5 1.03a2.15 2.15 0 0 0 .34.33l.02.01.08.05 6.9 4.22c-.16-.26.5.13 1.2.5l.02.15c2.7 1.34.82.78 3.47 2.14l.54.1c2.46 1.12 1.13.94 3.9 2.13-1.04-.57-.35-.5.9.25l-.38-.08c.7.38.97.47 1.42.75-.45-.18-.3.03.73.6l-.76-.26 1.6.72c-.5.9-.97 1.73-1.3 2.46-1.1 2.2-.97 1.35-2.04 3.67l-.55.83c-.53.96-.26.75-.87 1.8-.02-.1-.76 1.33-.48.68-1.37 2.38-2.47 5-4.27 8.13-.25.76-1.14 2.34-1.3 2.9-.1.06-1.63 3.27-.83 1.38.07-.16.2-.44.22-.4l.04-.25c-1.04 1.8-1.6 3.4-2.46 5.26.27-.55.6-1.28.43-.77l-.8 1.73.1-.4c-.4.87-.8 1.7-1.13 2.65l.2-.36c-.14.32-.25.6-.36.87-.08.27-.17.52-.23.78a5.84 5.84 0 0 0-.16 1.91c.06.76.1-1.4.13.16-.01 1 .33 2.27.8 3.38.43 1.06.58 2.24.66 3.4.07-.22.12.4.16 1.03l-.07.08c.1 1.23.04 1.47.01 1.72l-.16 1.56-.03-.22.08.67c-.1 2.25-.32 1.2-.32 3.72.06-1 .18-.46.1.76l-.06-.3c-.02.68.01.92-.05 1.27 0-.15-.02-.2-.05-.1-.02.04-.04.1-.06.22-.02.12-.03.1-.05.2 0-.04 0-.08-.01-.1l-.01-.04-.01-.1c-.01.14 0 .13 0 .18 0 .04 0 .08-.02.12-.03.1-.14.1-.22.06-.04-.05-.07-.1-.1-.16-.08-.13-.17-.3-.24-.46-.17-.36-.22-.65-.32-1.1-.2-.83-.4-1.53-.46-1.84 0 0-.06-.2-.18-.5-.07-.16-.13-.33-.3-.6-.07-.08-.08-.15-.3-.3-.1-.06-.36-.17-.64-.05-.23.1-.33.26-.37.32-.17.36-.1.3-.16.45-.24.83-.5 1.75-.53 2.1.1-.62-.4 1.02-.34.53-.15.8-.74 3.1-1.1 3.97l.04-.18-.35 1.15-.23 1.14c-.15.68-.34 1.33-.56 1.95-.22.6-.48 1.2-.8 1.67-.2.26-.2.25-.28.25a.53.53 0 0 1-.18-.07c-.03-.02-.08-.05-.12-.1-.1-.1-.2-.26-.28-.45-.1-.01-.16-.02-.23-.03l1.88-10.18a.5.5 0 0 0-.4-.58.5.5 0 0 0-.58.4l-1.93 10.43c-.04.01-.08.01-.12.02-.14.3-.2.37-.05.23-.06.08-.1.17-.16.24l-.1.1c-.05.05-.1.08-.16.1-.1.05-.22.06-.33.05-.22-.03-.46-.2-.64-.46-.33-.46-.5-1.07-.58-1.58l1.6-10.1c.04-.27-.14-.53-.42-.57-.27-.04-.53.14-.57.42l-1.53 9.64-.15.2c-.1.12-.28.27-.32.28-.06.03-.13.03-.2.01-.08.03-.35-.33-.46-.42-.1-.22-.1-.55-.1-.76a5.03 5.03 0 0 1 .03-.59l.1-.96v.34c.02-.44.06-.82.08-1.12h.02l-.02-.01c.01-.14.03-.27.04-.36l.18-1.65-1.1 1.24a.8.8 0 0 1-.27.18c-.08.03-.14.03-.2.01-.14-.04-.3-.2-.37-.38-.2-.4-.18-.95-.15-1.72.03-1.02-.14-1.18.08-3 0 .6.07-.15.15-.83-.04.44-.03.57.1-.3a3.09 3.09 0 0 1 .03-.5c.01-.01.02-.04.02-.02.15-1.13.1-.94.01-.42-.01-.03-.02.01-.07.17.24-1.16.56-3.26.7-3.37.7-3.35 1.3-5.74 2.26-8.44.17-.28-.03.36-.28 1.15l.68-1.9c.06.04-.37 1.1-.57 1.7.47-1.1.88-2.28 1.37-3.48l.38-.9c.02-.06.1-.2.13-.3l.03-.3.06-.5c.08-.67.18-1.36.3-2.06l.02-.6.03-.17c-.03 0 .01-.63.06-1.05.13-.4.16.05.36-1.34.24-1.1.47-3.13.7-4.57-.15.77-.14.52-.1.18.12-.7.26-1.08.33-1.62l.1-.05c-.14.26.24-1.83.26-2.1.15-.38-.15 1.08-.13 1.27l.8-4.16c.23-1.5-.14.25-.08-.47.24-1.3.47-2.6.84-4.07l-.18.45c.5-2.46.83-3.9 1.32-5.53l1.75-8.3c.22-1.23.1-1.17-.15-.54-.25.63-.64 1.83-.97 2.87s-.57 1.93-.57 1.93c-2.02 7.1-2.63 10.86-4.17 19.48l-1.5 8.64-.27 1.87-.06.43-.13.27-.44.97c-.6 1.33-1.18 2.87-1.8 4.8a55.61 55.61 0 0 0-2.45 11.44l-.2 3.4c-.01.62-.1 1.37.3 2.17.2.4.53.75 1 .92.17.06.34.08.5.07l-.08 1.73-.02-.05c.02.3.04.6.12.94.03.1.03.17.1.3.05.1.1.22.13.27a3.06 3.06 0 0 0 .28.42c.23.3.65.57 1 .6.25.03.46-.02.65-.1.2.58.5 1.16 1.06 1.66.36.32.95.57 1.5.47.3-.03.55-.16.77-.3a1.76 1.76 0 0 0 .26-.21l.04-.04c.03-.04.06-.1.08-.12l.03.08v-.16a.53.53 0 0 0 .08.15c.03.04 0 .02.1.1a2.16 2.16 0 0 0 .33.24c.24.14.52.2.84.22.3.03.58-.13.8-.3.23-.2.32-.32.44-.48.42-.6.65-1.15.87-1.7a19.27 19.27 0 0 0 .56-1.72c.1-.3.17-.63.24-.97a7.34 7.34 0 0 0 .11-.54c.02-.1.04-.2.05-.2l.1-.27.01.05c.46-2.02.96-3.58 1.46-5.16l.34-1.08.33 1.03c-.15-.5.01.23-.02.2l.17.75a4.94 4.94 0 0 0 .31.77c.06.12.12.24.2.35l.1.17.17.22c.23.3.5.5.77.62a1 1 0 0 0 .76 0c.2-.1.35-.26.44-.4.18-.3.18-.55.16-.57.1-.27.1-.43.14-.6s.04-.27.05-.37c.02-.2.03-.3.05-.37.03-.13.06-.1.1-.2-.08.01-.06-1.23.05-2.33l-.02.5c.08-1.06.2-2.1.32-3.18l-.22.6c.12-.84.18-.95.22-1.04.02-.05.04-.1.07-.23.01-.16.07-.32.05-.86a1.64 1.64 0 0 0-.11.03c-.08-2.3.23-3.75-.37-6.12-.43-1.22-.94-2.17-1.04-3.28-.1-1.08.04-2.23.43-3.3.8-2.2 1.86-4.43 2.88-6.6a226.99 226.99 0 0 1 6.39-12.42l.26-.3c.2-.1.96-2.24 1.23-2.48l.43-.93c.16-.24.46-.77.25-.3.45-.83.44-.86.73-1.5l.55-.86c.8-1.46 1.52-2.84 2.24-4.23.04.03.08.05.12.08l.16.1a1.11 1.11 0 0 1 .27.17c.2.1.37.2.58.25.8.23 1.8-.22 2.1-.94.1-.15.24-.34.3-.45.06-.1.12-.2.18-.3.12-.2.23-.38.32-.55.2-.33.37-.58.5-.72 0 0 1.9-3.2 2.14-4.03-.06.17-.05.2 0 .15l-.92 4-2.28 9.75-1.16 4.7-1.33 5.16-.4 1c-.05.1-.1.27-.18.54.37.01.95-.01 1.58-.04l.98-.05.5-.03.32-.03c.74-.07 1.44-.1 1.64-.03l1.44-.1c.4.04 1.25.08.54.13 1.33.01 1.36-.03 2.32-.1l1.42.13c5.24.1 9.7-.15 15.2-.1 3.3.14 8.08.14 12.92.1l7.14-.1c2.37.04 4.62-.54 6.35-1.2 2.42-1 4.86-2.35 6.8-4.46.1-.1.2-.24.3-.36h1c5.94.23 16.32.08 23.93-.05.04.43.1.85.22 1.22.26.87.66 1.57 1.15 2.18 1 1.18 2.25 2.16 4.34 2.63l-.06.03c.68.08 1.34.02 1.83.01a40.1 40.1 0 0 1 1.52-.03l1.55.02 1.8.03h.3c.1-.01.25.05.2-.1l-.32-3.88c-.1-1-.24-2.05-.45-3.23.1.6.05-.26.1-.22-.27-2.18-.55-4.52-.84-4.52-.17-1.6-.06-1.3.03-1.53-.12.02-.33-1.36-.48-2.6l.1.57-.45-3.56-.15.73c-.15-1.9.23-.5-.03-2.3l-.2.05c-.27-2.62-.16-4.18-.32-6.73-.62-5.4-1.45-10.98-2.28-16.45.4.14.62.22.86.33.37.18.8.3 2 .24l.95.12c.53-.01.7-.1.9-.18s.4-.16.95-.23c-.03.16 1.4-.3.8-.02 2.53-.58 4.63-2.13 7.5-3.57.47-.56 1.9-1.3 2.23-1.75.12.03 2.66-1.84 1.28-.64-.12.1-.35.26-.35.22l-.1.22c.82-.43 1.48-.94 2.1-1.5.63-.55 1.24-1.1 1.94-1.68-.44.3-.98.77-.67.4l1.3-1.05-.2.3c.66-.5 1.3-1.04 1.94-1.57l-.34.13c.97-.75 1.44-.88 2.32-1.95.4-.5-.97.66-.05-.24 1.26-1.03 3.1-2.66 4.56-4.13-.24.04.15-.36.53-.8l.14.04c1.4-1.72.76-.4 2.14-2.1l.13-.4c1.1-1.65.9-.62 2.08-2.5-.55.67-.47.13.26-.64l-.08.28c.37-.46.45-.65.72-.94-.17.3.02.26.55-.43l-.26.54.87-1.4c.9-.9 2-2.6 2.46-2.9l.13-.16c.04-.06.3-.33.45-.68.3-.62.24-1.6-.26-2.24l1.86-2.44a174.22 174.22 0 0 1 3.42-4.29l.24-.16c.18-.02.9-1.48 1.15-1.6l.4-.6c.14-.15.43-.47.23-.17.42-.53.4-.55.68-.96l.5-.52c1.68-2.06 2.94-3.93 4.68-6.12l1.12-1.36 1.05-.73c.4-.27.77-.58 1.17-.9l2.42-1.9c.8-.66 1.6-1.22 2.35-1.92.7-.82 1.13-1.54 1.56-2.2 1.35-2.2 2.86-4.5 4.38-6.85l2.22-3.52 1.04-1.76.64-1.12.42-.74c.07-.06.01-.1-.05-.1.22-.36.3-.75.2-1.14-.22-1-1.4-1.8-2.32-2.38l4.27-5.3c.32-.43.4-1.1.18-1.73zM265.3 208.18l.08-.1v.1h-.08zm8.5-15l-.1.1c.5 2.75-.15 1.05.3 3.78l.23.46c.53 2.45-.1 1.37.55 4.1-.14-1.1.22-.54.3.8l-.16-.33c.1.74.2.98.22 1.48-.1-.44-.2-.2-.06.88l-.23-.72.45 2.04c.04 1.6.48 4.12.37 4.8l.17 1.82.08.72c.01.12.03.24.04.35l.02.08c.03.1.07.2.13.3-.08-.15-.1-.06-.17-.1-.1-.04-.17-.1-.2-.15.01.03-.01.06-.07.1.03.01-.15.01-.23.02-.1.01-.2.01-.32.02l-.67.03c-.9.02-1.86.03-2.32-.06l.17-.01c-1.58-.1-2.85-.73-3.72-1.7-.43-.5-.76-1.06-.94-1.7a3.94 3.94 0 0 1-.15-.99c-.02-.38-.01-.84-.01-1.27-.14.16-.13-1.7-.3-1.22-.32-3.62.17-6.62-.43-7.92-.07-1.65.1-1.96.1-2.8l.04.4-.18-6.3c-.08-1.15-.35-1.32-.34-3.38.12.66.08-.18.06-.95.03.5.07.64.12-.37-.04-.14-.06-.36-.1-.57.01-.01.01-.05.03-.03-.07-1.28-.1-1.06-.1-.46-.02-.03-.04.02-.06.2.1-1.34-.1-3.72.06-3.88-.17-3.86-.45-6.62-.66-9.82.08-.37.2.38.27 1.3l-.13-2.28c.13.01.13 1.3.2 2 .1-2.73-.48-5.6-.45-8.78l-.15-.65v-.2c-.06.01-.18-.7-.23-1.17.1-.46.27.01.16-1.56.04-1.25-.3-3.53-.5-5.16.05.88-.03.6-.1.23-.07-.8.01-1.25-.1-1.85l.12-.07c-.12-.1-.32-2.08-.42-2.34.07-.46.23 1.2.33 1.4l-.5-4.72c-.3-1.67-.12.32-.34-.47-.2-1.48-.5-2.9-.63-4.6l-.07.56c-.45-2.76-.76-4.4-.9-6.3-.63-2.54-1.1-4.5-1.6-5.97s-.84-2.48-1.1-3.12c-.53-1.3-.67-1.15-.6-.4.06.76.3 2.13.53 3.3.25 1.17.4 2.18.4 2.18l1.68 10.28c.5 3.24 1.04 6.68 1.5 11.52.6 8.53.46 10.8.95 19.67l.48 12.88c.26 1.96.14 5.44.36 7.76l-.1.9c.08.8.14 1.74.1 2.55l-.04-.05c.12 1.2.1 2.55.16 3.15l-.04-.05.06 1.46-.06-.25a110.4 110.4 0 0 1 .26 6.08l-2.43.02-.12-.1-4.4.03 1.65.02c-.57.3-3.33-.2-6.53.01-3-.04-6.07.64-9.17.5-1.48.14 1.3-.23-.9-.12-.07-.16 1.03-.1.46-.23-.8.03-1.52.01-2.22-.01.35-.6.65-1.2.86-1.88.25-.72.37-1.35.56-2.03.18-.67.35-1.34.5-2 1.24-5.4 2.08-10.9 2.43-16.07.06-.33.08-1.2.06-1.2.34-3.14.6-6.3.87-9.43l.48-6.6.68-11.93c.16-3.55.22-6-.07-5.44-.3.58-.94 4.2-1.97 12.86l-.03-.24c-.47 5.15-.73 8.4-.78 11.97-.33.54-.38 4.23-.6 5.42l-.01-.12c-.06 3.16-.82 6.43-1 9.46-.01-.1-.06-.17-.02-.64-.23 2.17-.58 4.95-.77 5.08a102.18 102.18 0 0 1-1.57 8.53c-.32 1.48-.6 2.64-1.2 3.6-.55.98-1.23 1.76-1.78 2.34l.13-.18c-.6.68-1.1 1.04-1.6 1.4-.52.34-1.08.68-2 1.2-.1.03-.25.08-.23.06-.86.53-2.26 1.08-3.66 1.38-1.4.33-2.75.36-3.6.4l-.1-.1-4.2.03 1.57.02c-.54.3-3.17-.2-6.2.01-2.85-.04-5.77.64-8.73.5-1.4.14 1.24-.23-.87-.12-.07-.16.98-.1.44-.23-2.07.08-3.4-.16-5.95-.06l-.1-.12c-3.33.23-6.28-.16-8.5.05-3.43.1-2.3-.37-5.88-.13l-1.4-.17c-1.53-.03-1.1.2-2.8.12-.36-.1-.84-.08-.53-.2l-.18-.03c.03-.1.06-.2.08-.28l.23-1.03.6-2.78c.42-1.9.9-3.95 1.56-6.18.06-1.12.77-3.56.8-4.4.12-.1 1.2-4.96.73-2.13-.04.24-.15.66-.17.63l.04.36c.9-2.75 1.1-5.12 1.8-7.9-.24.8-.5 1.9-.4 1.16l.64-2.57-.03.56.98-3.83-.25.5.22-.75c1.87-3.17 3.04-5.73 4.93-8.62-.2.07.87-1.6.46-1.27 1.83-3.45 4-5.87 4.27-7.36.9-1.52 1.24-1.7 1.77-2.44l-.2.37a90.83 90.83 0 0 1 2.01-3.08c.53-.8 1.04-1.48 1.77-2.46.7-1 .57-1.33 2.06-2.94-.4.6.2-.08.74-.7-.34.4-.42.54.36-.2.08-.13.23-.3.37-.48.01 0 .05-.03.04 0 .92-1 .74-.85.28-.42.01-.03-.04-.01-.2.1 1.08-.93 2.8-2.8 3.07-2.77l7.7-7.2c.36-.18-.2.4-.94 1.08l1.84-1.6c.07.12-1.02.97-1.58 1.48 1.17-.86 2.27-1.85 3.4-2.9 1.72-1.9 8.63-9.6 7.98-9.43-.28.08-2.3 1.75-4.74 3.82l-1.27 1.17-6.7 5.7-.95.83-.48.42c-3.48 2.98-7.1 6.3-10.14 9.7-1.35 1.72-3.74 4.7-5 6.9l-.64.75c-.42.76-.95 1.63-1.48 2.33v-.07c-.6 1.15-1.44 2.35-1.74 2.92v-.06l-.8 1.35.1-.26a147.12 147.12 0 0 1-3.36 5.71l.2-.07c-2.36 3.7-2.88 5.23-5 8.56v-.06c-2.13 4.5-4.08 6.76-6.28 11.37.14-.3.1-.24 0-.12-.1.16-.14.17-.15.16-.1.23-.2.27-.36.23l-.1-.05-.33-.18-.66-.35c-.83-.42-1.43-.67-1.5-.56-1.5-.86-1.17-.77-1.3-.98-.05.1-1.38-.58-2.55-1.24l.56.27-3.37-1.87.54.58c-1.74-1.07-.3-.5-2.04-1.43l-.08.18c-2.43-1.44-3.73-2.5-6.03-4l-3.88-2.22c-.04-.03-.05-.05-.06-.1 0-.02 0-.06.01-.1l.06-.24.45-2.07.84-3.68 1.8-7.32c1.26-4.82 2.65-9.5 4.3-13.76l.3-.4c.27-.1.68-2.83 1.04-3.12l.36-1.17c.16-.3.47-.96.3-.38.44-1.04.44-1.06.7-1.83l.6-1.04c2.05-3.84 3.87-7.26 6.44-11.17l6.35-9c2.4-3.36 4.96-6.67 6.87-9.06 2.67-3.37 5.92-6.73 9.42-9.8 3.5-3.04 7.26-5.87 11.03-7.7.24-.1.9-.4.9-.4 2.5-.83 5.1-1.42 7.7-1.73 0 0 .15-.02.42-.05a11.42 11.42 0 0 1 1.16-.1c.98-.08 2.37-.15 3.92-.06 1.87-.42 4.08-.2 5.97.17.63.22 1.24.46 1.83.74a17.43 17.43 0 0 1 2.75.72c.38.25-.5-.03-1.6-.3.9.22 1.75.55 2.6.9-.08.1-1.48-.56-2.3-.75 1.53.56 3.07 1.22 4.6 2.1l1.14.7 1.13.8 1.1.9c.27.25.58.68.87 1.02.2.16.38.36.55.56l.1.2c.02-.03.62.6.86 1.13.1.55-.2.06.53 1.8.52 1.4 1.26 4.1 1.6 6.1-.12-1.08-.01-.74.1-.28.12.97.1 1.54.2 2.28l-.12.1c.12.13.35 2.6.4 2.92-.08.56-.18-1.5-.3-1.75.18 1.95.13 2.45.17 2.94.02.5.06.98.07 2.95.13 2.1.15-.38.3.62.03 1.86.1 3.68-.07 5.8l.17-.67c-.01 3.5-.16 5.6-.45 7.94l-.16 11.9c.06 1.75.22 1.64.43.7.2-.93.43-2.68.6-4.2l.3-2.8c.53-5.13.76-9.03.82-13.2.03-2.08.04-4.23-.04-6.64-.07-2.4-.2-5.06-.6-8.17-.13-1.37-.4-2.6-.6-3.75-.3-1.14-.52-2.2-.9-3.17-.23-.76-.56-1.46-.9-2.13.98.93 1.94 1.88 2.84 2.88l.98 1.12c.6.7 1.4 1.7 2.26 2.9 1.7 2.37 3.4 5.58 4.47 8.15l1.23 3.12c.3.72.5 1.05.55.8.04-.26-.02-1.12-.4-2.75-.36-1.63-1.04-4.05-2.58-7.25l.14.14c-2-3.7-3.73-5.8-5.86-7.77-.03-.2-.35-.58-.78-1.02a32.36 32.36 0 0 1 1.97 1.69c.84.76 1.6 1.56 2.28 2.25.65.73 1.25 1.34 1.7 1.83l-.14-.12c.52.55.8.95 1.1 1.36a60.02 60.02 0 0 1 1.09 1.55c.03.1.1.2.07.2.52.65 1.18 1.66 1.7 2.7l.8 1.47.57 1.17-.06.13c.46 1 .96 1.98 1.34 3.02l-.43-1.16c.23.14.4.74.66 1.58.13.42.27.9.45 1.4.05.13.1.25.14.4.06.15.06.16.1.34.07.28.15.57.25.85.47 2.2 1.7 4.32 2 6.67.37 1.07-.43-.92.02.7-.15.1-.26-.75-.3-.3.4 1.6.4 2.67.9 4.65l-.1.1c.7 2.56.77 4.94 1.28 6.64.56 2.68-.06 1.87.66 4.64l.02 1.12c.18 1.2.34.83.48 2.17-.12-.06.18 1.7-.04.93.32 3.04 1.2 6.1 1.5 10.12.34.84.5 2.86.74 3.5-.07.12.54 4.03.04 1.8-.04-.2-.1-.53-.05-.52l-.16-.25c.08 2.3.7 4.1.96 6.38-.05-.67-.17-1.56-.01-.98l.26 2.1-.16-.42.35 3.13.07-.45c.14 1.54-.01 2.1.38 3.8.2.77-.01-1.47.23.14l.7 7.74c.04-.28.12.42.24 1.14zm37.15-50.55l-.44.64-.53.8c.25-.4-.18.1-.2.06-1.02 1.37-2.17 2.8-1.96 3-.8.96-.72.73-.9.78.1.07-.56.93-1.2 1.68l.26-.37-1.82 2.12.54-.25c-1.05 1.05-.47.1-1.38 1.17l.16.12c-1.42 1.48-2.47 2.14-3.96 3.44-2.94 2.86-6.05 5.77-9.36 8.32-3.3 2.5-6.83 4.8-10.33 5.97l-.35-.04c-.1-.08-.54.14-1 .38-.47.18-.98.36-1.13.3-.27.1-.53.13-.8.18-.23-.03-.7-.04-.3-.1-.37.03-.56.02-.73.02-.16.01-.3.01-.58.02-.26-.05-.52-.15-.77-.26-.5-.13-1-.3-1.5-.47l-1.85-13.1.08-.45c.18-.22-.74-2.63-.6-3.04l-.28-1.12c-.02-.32-.1-1 .05-.45-.17-1.05-.2-1.07-.4-1.8l-.06-1.14c-.3-2.07-.67-3.97-1.08-5.9l-1.24-6.03c-.2-1.3-.48-2.9-.85-4.63l-.63-2.68c-.04-.15-.07-.3-.1-.45l1.32 1.53c2.18 2.6 3.7 4.24 5.47 5.68.9.7 1.84 1.4 3.03 2 1.2.6 2.64 1.23 4.56 1.52.9.15 1.86.2 2.82.13.96-.1 1.92-.28 2.83-.6.94-.36 1.7-.78 2.47-1.2a45.21 45.21 0 0 0 2.19-1.3c1.23-1 3.65-2.3 5.06-3.5l.65-.3c.5-.4 1.07-.87 1.63-1.2l-.01.05c.72-.62 1.6-1.2 1.96-1.53l-.01.05.58-.45c.02-.02.03-.03.06-.04-.01.02-.01.04-.01.06.04-.06.12-.08.2-.06.04.01.08.03.1.06l.4.44a68.93 68.93 0 0 1 1.51 1.8l.03-.2c1.94 2.53 2.92 3.22 4.64 5.52l-.05-.01c1.68 1.6 2.68 3.03 3.82 4.47a.37.37 0 0 1 .01.38zm16.6-43c.2-.15.53-.25.8-.38.08-.03.16-.07.23-.1.03.07-.6.3-1.03.48zm5.88-2.4c0 .01.01.02.01.03 0-.01-.01-.02-.01-.03h0zm.04.15c0-.02-.01-.04-.01-.07 0 .03 0 .05.01.07zm-8.86 11.86c-.01.04-.02.07.01.1-.02-.02-.02-.05-.01-.1zm2.73 1.67c.1.1.2.2.3.32-.1-.1-.2-.22-.3-.32zm9.04-1.03c-.2.97-.7 1.5-2.55 1.2-1.24-.14-2.2-.76-2.6-1.27-.1-.14-.22-.35-.18-.53v-.02c.03-.18.12-.3.28-.42.3-.2.8-.27 1.27-.27a4.23 4.23 0 0 1 .94.1c.14.04.33.07.56.1.67.12 1.92.34 2.23.8.04.05.08.13.04.3zm-.4-1.9c-1.88-.38-3.33-1.64-3.2-2.42.05-.26.2-.45.45-.6.66-.38 1.8-.3 2.4-.12.18.06.46.12.8.2.88.2 2.52.57 2.9 1.2.08.12.1.25.06.4-.27 1.2-1.18 1.54-3.4 1.33zm2.6-6.57l.73.28c.1.07.22.16.34.22.4.22.83.42 1.3.56.4.25.72.5.83.8a.42.42 0 0 1-.03.39c-.57 1.14-1.52 1.3-3.95.63-1.64-.36-2.86-1.3-3.2-2.03-.18-.38-.08-.6-.05-.66l.01-.03c.2-.5.9-.68 1.64-.68.7 0 1.44.15 1.92.35.13.06.3.1.48.18zm1.6 4.32c-.01-.02-.03-.03-.04-.05.05 0 .1-.01.16-.01-.03.05-.05.1-.08.14-.01-.04-.02-.06-.04-.08zm3.27-5.45c.03.15 0 .28-.1.42-.45.7-1 1.1-2.02.85-.48-.28-1.03-.53-1.6-.76-1.45-.96-2.2-2.4-1.83-3.07.14-.22.33-.34.6-.4.76-.14 1.86.36 2.37.74.15.1.36.25.6.4.68.44 1.82 1.17 1.96 1.8zm2.14-8.52l-4.32 5.37c-.7-.46-1.93-.98-2.95-.78-.55.1-1 .4-1.27.86l-.01.02c-.45.83-.15 1.87.53 2.82-1.32-.28-3.32-.32-3.94 1.1-.23.46-.2 1 .05 1.52.17.35.44.7.78 1-.6.01-1.22.1-1.73.4-.5.3-.82.73-.93 1.27v.02c-.13.78.3 1.54 1.04 2.17-.65-.03-1.45.05-2.03.43-.4.26-.64.64-.7 1.1-.08.43.04.88.35 1.3.02.03.04.05.06.07-.4.32-1.08.27-1.5.13l-4.4-1.36c.01-.04.04-.08.06-.12.05-.1.1-.15.15-.28h.07l.25-.48-.1.17c-.13-.15.3-.3.38-.7.2-.3.02-.83.28-1.12.01-.2.05.2.12-.06.1.04-.01.14.1.12.1-.25.3-.33.4-.65h.07c.1-.44.47-.66.5-.97.16-.4.34-.15.43-.62l.17-.1c.07-.1-.07-.13.01-.18h0c.04.05.1.01.1.08 0 .03.15-.03.27-.1s.24-.13.36-.2c.24-.14.5-.3.84-.38.07-.18.4-.28.45-.42.04.04.58-.35.32-.05-.02.03-.07.05-.08.03v.1c.4-.1.56-.45.88-.65-.1.05-.23.14-.17.04l.3-.2-.02.1.44-.3-.1-.01c.23-.13.38-.1.53-.38.06-.13-.25.1-.06-.1.3-.2.72-.53 1.03-.87-.1-.02-.01-.1.05-.22l.07.03c.2-.46.23-.02.46-.5l-.04-.14c.1-.5.3-.18.28-.76-.05.2-.18.04-.1-.2l.05.08c.02-.14 0-.2.03-.28.02.1.1.06.12-.15l.07.15a4.96 4.96 0 0 0-.08-.41c.05-.15.05-.34.03-.52-.02-.24-.05-.46-.02-.57v-.04.04c-.01.05-.01.13-.01.23l5.93-6.8c.96-1.03 1.52-1.44 2.07-1.44a1.18 1.18 0 0 1 .41.07l3.2.83c.3.06.5.25.62.53.1.32.04.65-.14.9z"/><path d="M305.67 152.62h0l-.07.2zm-40.84.12l-.03.02c.01.01.02.01.03-.02zm9.17 44.3h0l-.1-.24zm-68.28 2.22h0l-.15.01z"/><path d="M232.96 169.64c-.12-.4-.26-.37-.4-.12-.72-.2-1.88-.45-3.65-.75l.08-.04c-1.82-.16-2.97-.2-4.24-.01-.2-.3-1.5-.07-1.93-.17l.04-.02c-1.12.2-2.3-.24-3.37-.07.04-.02.07-.1.3-.1-.78.02-1.86.06-1.9-.1-1.87 0-4.48-.14-5.68.1l.08-.04c-.7.16-.88.01-1.65.08l-.1-.04c-.75.16-2.17-.03-2.77.04l-.04-.1h-1.48l.55.04c-.1.15-.38.1-.77.02l-1.02-.1-.58-.02h-.22c-.01.02-.01.05-.01.08l-.02.33a7.47 7.47 0 0 0-.11 1.16v.48l.05.4c.06.53.1 1.07-.04 1.57.06.5-.16-.47-.17.28-.16 0-.05-.36-.2-.2-.04.73-.35 1.16-.37 2.07l-.13.02c.05 1.2-.5 2.17-.4 2.98-.07 1.22-.48.75-.4 2.04l-.23.46c-.1.53.15.4-.01 1-.1-.05-.18.74-.24.38-.34 1.33-.1 2.77-.58 4.53.17.4-.05 1.3.08 1.6-.1.04-.16 1.82-.28.78-.01-.1.01-.24.04-.23l-.1-.13c-.32 1.02-.02 1.88-.05 2.98.04-.32.03-.75.12-.46v1l-.12-.2c.03.5.02 1.02.12 1.53l.1-.23c.04.37.01.64.03.9.04.27.1.55.33.94.2.34-.05-.74.22.01.25.97.92 2.43 1.87 3.4.01-.2.26.07.54.3l-.05.12c1.2.7.22.6 1.46 1.2h.3c.6.18.7.3.85.42.14.12.3.27.98.33-.5-.16-.13-.34.44-.07l-.2.06.68.18c-.22.01-.16.14.34.26l-.38.05 1 .05c.7.3 1.9.35 2.16.54l.83.13c.44.03.93.05 1.1-.03-.33.1.54.2.3.32.42-.1 1.62-.16 2.1-.03l-.1.02c1.8.15 3.06-.3 4.7-.36-.1-.13.76-.2.52-.35 1.6-.48 3.1-.4 3.47-1.18.7-.3.9-.23 1.27-.4l-.15.1.8-.46.6-.4c.37-.22.66-.48 1.1-.82.38-.4.26-.66.95-1.34-.1.32.12-.01.34-.3-.13.2-.15.28.2-.07.01-.08.07-.17.1-.26.01 0 .02-.01.03 0 .28-.56.2-.48.04-.24-.01-.02-.04-.01-.1.05.2-.24.47-.62.6-.97.15-.35.27-.63.37-.63.15-.44.22-.88.3-1.28l.1-1.1.2-2.08c.12-.14.15.2.1.6l.13-1c.13.03-.01.6-.04.9.4-1.16.17-2.5.56-3.86l-.06-.3.03-.08c-.06 0-.1-.33-.08-.54.14-.18.26.05.35-.64.2-.53.15-1.57.17-2.3-.07.38-.12.25-.14.08.04-.35.18-.53.16-.8h.16c-.16.12-.05-.93-.1-1.06.14-.18.03.55.1.65l.22-2.1c-.03-.76-.16.12-.26-.25.05-.66.01-1.3.2-2.05l-.17.22c.03-1.24.12-1.98.35-2.8l-.24-3.9c.63-.17.7-.34-.03-.6zm-1 2.35c-.68 3.57-.47 5.47-.88 9.76l-1.45 8.57-.52 2.64c-.26.76-.57 1.5-1.08 2.1-.3.74-1.46 1.48-2.18 2.08-.12.03-.25.05-.38.07-.26.2-.57.43-.9.5l.01-.04c-.4.27-.95.43-1.17.54l.01-.04-.57.2.08-.08c-.8.34-1.7.54-2.5.62l.1.13c-1.72.08-2.34.43-3.92.25l.02-.04c-2 .37-3.13-.32-5.16-.28.25 0-.1-.1-.07-.13-.92-.12-1.87-.37-1.96-.1-.66-.18-.5-.25-.55-.38-.03.1-.6-.02-1.1-.22.08.02.15.04.24.05-.45-.2-.93-.37-1.34-.63l.13.36c-.65-.48-.03-.35-.7-.7l-.1.17c-.86-.7-1.1-1.36-1.57-2.22-1.12-1.7-1.5-3.92-1.36-6.25.1-2.35.33-4.7.77-6.8l.17-.17c.22-.05-.16-1.23.06-1.37l-.03-.5c.06-.14.14-.43.15-.17.07-.46.04-.48.02-.82l.2-.48c.36-1.8.34-3.4.68-5.3.16-.57.3-1.26.43-2.03l.17-1.02.02-.15.01-.08c.02-.01.05 0 .07-.01-.07-.03 1.12-.03 1.87-.05l2.2-.07c3.57-.23 7.7.72 11.35.44a.89.89 0 0 0 .42-.05l3.34.1s4.98.15 7.32-.08c-.2.77-.34 1.7-.34 1.7zm-60.16 20.35h0l-.27-.06zM331.7 98.3l.17-.15.01-.06c-.02.02-.04.04-.05.08h0l-.13.13zm3.64 15.67l.05-.1-.05.1zm-15.24-8.65c0-.01 0-.02.01-.02l.03-.12-.04.14zm3.6-4.37l.1-.04c-.01-.01-.03 0-.1.04zm1.1 8.55h0zm2.86-9.62h-.01l-.02.02zm-3.54 10.2c.05.02.1.05.15.07l.08.02-.23-.1zm11.6-6.1zm-2.17 3.98c.03-.04.08-.08.1-.12-.22-.16-.4-.32-.58-.5l-.43.56c.33 0 .64.02.9.06zm4.74-7.2c.04.02.1.04.15.06-.04-.04-.07-.1-.1-.14l-.06.07v.01zm-7 9.52c-.08-.07-.14-.14-.2-.22-.4.62-.42.8.2.22zm10.77-7.5l.08-.15c-.02.05-.05.1-.08.15zm-75.8 109.08l-.03.08c.03-.01.05-.03.03-.08zm2.46-2.15h-.02c.01 0 .02 0 .02-.01zM240.9 102.6c-.23-.15-.48-.26-.72-.4 0 .04.2.13.72.4zm29.66 105.33c0-.03-.01-.07-.01-.1 0 .07 0 .1.01.1zm-20.68-98.2l.01-.04c-.02 0-.02.01-.01.04zm-4.58-1.84l-.37-.67c-.01.03.07.2.37.67zm-10.76 104.52l.16-.1-.16.1zm-17.27-111.17c.02-.01.03-.02.04-.02l.18-.13-.22.15zm91.98 168.82v-.03c0-.05.01-.1.01-.15l-.01.18z"/><g fill="#fff"><path d="M205.4 215.52l.1.03c0-.02-.03-.03-.1-.03zm28.5-1.07l.02-.02c-.02.01-.02.02-.02.02zm-24.1 2.25h0c-.02 0-.02.01-.04.01h.04z"/><path d="M204 216.6c1.52.04 1.93.2 3.5.14l2.3-.04c.35-.13.97 0 1.38-.1l.16.07c.14-.04.3-.06.45-.02l-.01.02c.2-.05.45-.02.56-.05l-.01.02.26-.01-.04.03c.37-.06.75-.06 1.1-.04l-.03-.1c.72.1.98-.08 1.63.03l-.01.02c.82-.23 1.3.16 2.14-.06-.1.03.05.04.04.07.4-.02.8-.04.8-.2.28 0 .23.05.27.12 0-.07.25-.1.47-.1l-.1.03.64-.03-.12-.14c.34.04.1.17.4.14v-.12c.47.02.74.2 1.2.3 1.88.05 3.9-.25 5.64-.04l.08.1c.03.13.48-.2.55-.07l.2-.06c.06.02.18.04.08.07.2 0 .2-.02.33-.07l.2.07c.38.02.73-.02 1.1-.06l1.1-.17c.98.08 2.74-.5 3.7-.9 1.3-.62 3.1-.9 4.26-1.9.05-.01.14-.1.13-.12l1.13-.8s.34-.25.74-.63c.4-.37.87-.87 1.17-1.3.3-.43.44-.8.27-.8-.18-.01-.62.3-1.66.95v-.04c-.56.44-.9.7-1.2 1.12-.16-.08-.48.33-.65.38v-.02c-.27.37-.8.4-1.1.72.01-.02-.01-.07.07-.12-.24.18-.6.4-.67.32a9.55 9.55 0 0 1-1.06.54c-.36.18-.7.35-.88.5l.02-.04c-.2.2-.32.13-.58.3-.02-.01-.04-.01-.04-.01-.23.22-.8.26-1.02.38l-.03-.06-.55.17.2-.04c-.03.2-.45.01-.84.2-.4.04-.72.55-1.15.5-.18.1.15-.16-.13-.06-.02-.1.13-.08.04-.14-.28.08-.48-.04-.83.06l-.02-.07c-.45.2-.87-.02-1.17.12-.48.08-.33-.2-.82-.04l-.2-.1c-.2-.01-.15.13-.4.08.01-.06-.3-.05-.16-.1-.54-.1-1.1.14-1.82-.03-.16.12-.52.05-.63.14-.02-.05-.72-.01-.32-.13.03-.01.1-.01.1.01l.05-.07c-.4-.14-.74.08-1.14.05.12.02.28.02.17.07l-.37-.01.08-.06-.56-.04.08.08c-.27-.04-.37-.17-.68-.06-.14.06.26.1-.03.13l-1.38-.15c.04.1-.08.08-.2.1v-.07c-.5.1-.18-.16-.67-.08l.04-.05-.13.16c-.44.15-.24-.15-.73.05.2-.01.1.16-.15.13l.06-.07c-.13.02-.18.05-.27.03.08-.04.04-.1-.15-.1l.13-.1-.37.13c-.28-.08-.74.02-.85-.08 0 0-.6-.05-.75.06.12-.07-.2-.1-.12-.18-.16.08-.63.14-.8.06l.04-.01c-.7-.1-1.2.12-1.8.01.03.1-.3.04-.22.15-.64.1-1.17-.23-1.4.12-.3.02-.35-.08-.5-.1l.07-.02-1.12.02c-.2.03-.24.2-.6.15.12-.06-.03-.05-.17-.05.1-.01.1-.03-.06-.08a.3.3 0 0 1-.1.04s-.01-.01 0-.02c-.23.02-.2.04-.08.05-.01.01 0 .02.04.04-.24-.08-.66.01-.7-.1-.68.03-1.17.14-1.74.18-.06-.06.07-.1.23-.13l-.4.02c0-.08.23-.05.36-.06-.48-.13-1 .13-1.56.01l-.12.06-.03-.01c0 .03-.12.08-.2.1-.08-.07.01-.16-.27-.16-.22-.07-.63.03-.92.07.16.01.1.05.04.08-.14 0-.22-.07-.33-.04l-.01-.1c.05.1-.36.1-.42.13-.08-.07.22-.06.25-.1l-.84.01c-.3.07.05.1-.1.17-.26.02-.52.08-.82.03l.1.08c-.5.07-.8.06-1.13-.03-3.7.68-.78.93-.78.93 1.4.2 2.14-.05 3.88-.1z"/></g></svg>