<svg xmlns="http://www.w3.org/2000/svg" viewBox="0 0 480 480" xmlns:v="https://vecta.io/nano"><path d="M271.66 240.3l-.3-1.12c-.02.02.05.3.3 1.12zm-53.06-31.88l-.3.01.3-.01zm28.6 7.4l-.1.08.1-.08zm15.23 29.08c.02-.01.03-.12.02-.45l-.02.45zM146.9 231.23c0-.01.01-.02.01-.02l.03-.1-.04.13zm34.64-103.93l.15-.14-.15.14zm153.1 97.97c1.8 0 3.5-1.2.5-2.1-3-.8-5.4-1.9-6.2-2.1s-4-1-6.2-.8c-1.5.1-3.4.9-6.4-.8l-.68-.45.08-.15c.6-1 .4-2.2-.5-2.7l-3.2-2.4c1.6-3.32 2.6-6.7 2.3-9.7-.67-7.07-4.25-8.7-13.35-15.63l-3.27-2.55-2.5-2.02c-13.3-11.1-22.8-24.3-32.4-54.9s-24.3-33.7-33.9-30.1c-1.14.44-2.2.92-3.22 1.44-1.82.23-4.26.88-6.87 2.82a29.61 29.61 0 0 0-2.51.94c-11.3 4.7-29.1 19.2-42.2 30.5-13.1 11.2-29.6 27.9-35.4 49-.03.1-.05.22-.08.32l-.12-.02-.7 3.37a56.29 56.29 0 0 0-.67 3.87c-.1.7-.2 1.37-.24 1.96-.02.27-.03.54-.04.8-1.04 14.26 5.4 21.6 9.84 23l1.12.34-.72 5.06c-.28 1.2.48 2.22 1.54 2.45l-.54 5.55s-3.3 6.3-1.8 13.9c0 .6.9 1.2 1.7 1.9.16.13.35.13.55.1.02 0 .03.01.05.01.43.07.75-.04 1-.26.07.01.14.03.2.06.4.1.2 1.2.6 1.4.6.3 1.7 1.1 2.1.6.03-.03.05-.05.07-.08.24-.1.43-.26.6-.5.4-.22.68-.16.92.03.14.36.35.64.67.8.17.23.34.4.55.44 1.1.1 1.8-.7 1.9-.9.6-2.1 1.6-5.3 1.7-6.3.2-1 .65 3.05 1.05 4.55.6 1.7 2.54 3.33 2.34.23s.55-6.32.35-7.12c-.1-.8-.55-4.26-1.55-6.26-.6-1.3-1.9-2.9-1.2-6.3.02-.1.05-.18.07-.28.92.04 1.86-.62 2.13-1.62l1.3-4.67c3.32.1 6.53-.26 9.1-1.43 6.05-2.74 8.2-7.3 10.84-16.68 1-2.68 2.26-8.22 2.26-8.22l-.03-.01c1.87-6.7 5.43-12.24 11.76-18.38l-.83 4.4-5.5 28.4h58.43c5.97 6.84 12.76 13.23 20.27 18.4l.94.63c1.42 1 3 2.02 4.26 2.67l1 .5c2.12 1.15 4.08 2.03 5.88 2.7l1.23.52s.02-.02.06-.07c10.95 3.46 15.82-1.8 18.74-5.03l1.36-1.54 4.14 2.34a2.17 2.17 0 0 0 2.53-.23l6.37 2.83s4.68 4.86 12.3 5.47c.97.08 2.1.34 3-.16.5-.3.9-.47 1.1-1 .14-.4.08-1.04.48-1.44.12-.08 1.1-.13 1.75-.87.63-.7-.15-2.04-.12-2.07.14-.12 1.1-.26 1.3-.7.4-1-.22-2-.86-2.54l-3.95-2.77c-.88-.43 1.82-.63 3.42-.43zm-18.74 7.2l.08.08zM263.68 129.2l.23.9c.02-.02-.03-.25-.23-.9z" fill="#fff"/><path d="M150.33 219.2h-.35zm183.3 5.25h.01l.16-.05z"/><path d="M337.18 223.96c-.08-.23-.24-.43-.44-.62-.5-.38-.8-.52-1.26-.7l-4.96-1.65-1.3-.45-1.34-.3-2.68-.42c-.9-.1-1.82-.14-2.74-.03-.92.12-1.7.3-2.52.26-1.48-.04-2.84-.62-4-1.5.06-.05.12-.1.2-.18.24-.3.67-.94.33-2.02l.07.03c-.14-.3-.33-.56-.55-.75-.1-.1-.26-.2-.24-.2l-.2-.15c-.27-.2-.54-.32-.85-.4.1-.3-.57-.46-.68-.66l.03-.01c-.4-.1-.62-.44-.9-.7l.05-.14c.56-1.06 1.1-2.52 1.48-3.86l.43-1.85.23-1.22s.06-.33.1-.86c-.02-.52.02-1.27-.08-2-.1-1.35-.56-2.82-.87-3.47.12.2.03-.2-.1-.6-.18-.48-.38-1-.13-.63-.33-.65-1.16-1.82-2.1-2.86-.96-1.03-2-1.94-2.57-2.5l.24.18c-2.2-1.92-4.2-3.27-6.1-4.65l-5.63-4.35c.1.26-1.93-1.48-1.54-.93-4.18-3.16-6.8-6.6-8.48-7.57-.82-.86-1.27-1.4-1.62-1.83-.33-.45-.56-.8-.95-1.27l.4.4c-2.9-3.33-3.6-4.42-5.5-7.1-.93-1.35-1.34-1.4-2.8-3.96.57.77-.05-.26-.6-1.2.37.6.52.77-.16-.52a8.18 8.18 0 0 1-.47-.67c0-.01-.02-.07 0-.05-.9-1.6-.78-1.3-.4-.55-.03-.03-.02.04.08.3-.4-.88-1.02-2.05-1.55-3.04-.5-1-.9-1.84-.86-1.98-2.46-4.97-4.15-8.58-5.85-12.9-.1-.52.36.46.87 1.7l-1.2-3.06c.14-.02.74 1.74 1.12 2.67-.58-1.87-1.38-3.72-2.1-5.7l-1.13-3.02a57.46 57.46 0 0 1-1-3.21l-.4-.87-.07-.27c-.05.03-.44-.93-.67-1.57-.1-.65.27-.04-.48-2.2-.25-.87-.66-2.1-1.16-3.36l-1.62-3.64c.47 1.2.25.84 0 .34-.42-1.07-.6-1.7-1.05-2.48l.07-.13c-.17-.1-1.44-2.7-1.7-3-.2-.64.9 1.54 1.1 1.77-1-2.1-1.36-2.55-1.63-3.06l-.55-.94c-.28-.42-.57-1.1-1.26-2.03-1.5-1.96.13.45-.66-.44-1.23-1.8-2.63-3.38-4.3-5.23l.47.65-2.03-1.9c-.64-.54-1.28-1-1.84-1.45-.55-.48-1.16-.8-1.73-1.18-.58-.36-1.12-.77-1.75-1.04-3.53-1.5-6.57-1.6-8.76-1.36l-1.52.23-1.24.34c-.76.18-1.33.46-1.78.65-1.8.8-1.6.96-.55.68.52-.1 1.23-.3 2.03-.45.8-.1 1.68-.3 2.5-.3.4-.02.8-.06 1.16-.06l.96.06.9.04c2.74.32 5 1.3 6.98 2.43.5.3 1 .57 1.46.9l1.34 1.03.67.5.6.58 1.24 1.16c3.2 3.26 6.1 7.37 9 13.7l1.56 3.9c.5 1.2.8 2.34 1.16 3.4.7 2.1 1.28 4 1.86 5.92 1.17 3.82 2.46 7.68 4.9 13.68 2.28 5.74 5.17 11.72 8.3 16.92 1.62 2.38 4.26 6.76 6.6 9.28.24.37.48.75.74 1.1.82.85 1.7 1.9 2.48 2.8l-.08-.03c.63.6 1.27 1.3 1.84 1.9l1.42 1.37-.08-.03c.5.5 1.02 1 1.55 1.47l-.3-.2c1.12 1 2.28 2 3.42 2.96-.65.7-1.37 1.67-1.37 1.67-2.75 3.44-3.7 5.54-6.58 9.9-2.67 3.74-3.58 4.6-6.2 8.57-1.3 1.86-2.63 3.9-3.87 5.73-.42 1-1.65 2.4-2.2 3.53l-.37.33c-.2.4-.45.83-.75 1.15l-.01-.04c-.3.58-.75 1.15-.9 1.43l-.01-.04-.43.65.04-.14c-.56.98-1.2 1.93-1.82 2.74l.17.01c-.68.85-1.08 1.48-1.46 2.1l-.6.92a23.25 23.25 0 0 1-.4.55c-.07.1-.15.2-.22.3-3.1-2.37-5.96-4.92-8.56-7.5l-.35-.54c-.02-.17-.78-.8-1.56-1.43-.76-.66-1.54-1.36-1.65-1.62l-1.2-1.12c-.3-.36-.93-1.1-.33-.53-1.02-1.13-1.06-1.14-1.84-1.9l-.98-1.3c-3.83-4.6-7.13-8.5-10.64-13.76-2-3.22-4.93-7.84-7.6-12.7-2.7-4.84-5.07-9.93-6.7-13.73-.94-2.1-1.83-4.3-2.68-6.56v.08l-.65-1.86c0-.01-.01-.03-.01-.04-1.02-2.85-2.9-7.88-3.46-7.65-.56.24 1.3 6.02 2.3 9.05.08.18.16.37.24.53l-.14-.24c.96 2.03 1.05 2.7 2.07 5 .03.13.08.3.07.28 1.1 2.2 2.74 6.56 3.68 8.3l-.05.16c.67 1.48 1.42 2.9 2.14 4.37l-.78-1.64c.54.43 1.45 3.4 3.35 6.38.8 1.45 1.75 2.83 2.76 4.2.98 1.38 2 2.74 2.86 4.2 1 1.3-.97-1.08.44.9-.1.15-.7-.9-.47-.3.67 1 1.2 1.82 1.76 2.7.57.9 1.15 1.85 2.08 3l-.03.17c1.22 1.5 2.26 3 3.26 4.3l1.4 1.9c.47.57.93 1.1 1.38 1.56.55.63.92 1.1 1.2 1.45-1.07-.02-2.12-.03-3.14.04.12-.02.2-.1.92-.1-2.3.04-5.47.1-5.64-.07-5.52.04-13.22-.03-16.76.23l.24-.05c-2 .18-2.6.03-4.86.12-.12-.02-.28-.03-.26-.04-2.2.18-6.4.03-8.18.1l-.1-.1-4.37.03 1.63.02c-.57.3-3.3-.2-6.48.01-1.48-.02-3 .14-4.5.28l-2.3.18c-.38.02-.77.03-1.15.04-.37 0-.68 0-1-.02-.7.07-.35.01-.1-.05.12-.03.2-.06.17-.08-.02-.01-.07-.01-.18-.01-.07-.03-.37.1-.26-.16.05-.05.07-.03.08.01.01.01 0 .06.02.06.04-.01.08-.01.12-.02.15-.02.24-.04.14-.1h-.12c-.01-.02.01-.07.01-.1l.04-.22.1-.43.3-1.22a37.3 37.3 0 0 0 .64-3.22l.14-.08c.44-3.45 1.4-6.4 1.63-8.7.58-3.53.82-2.3 1.3-6l.44-1.4c.33-1.56.02-1.16.43-2.88.08.13.5-2.18.4-1.14.93-3.9 1.3-8.03 2.55-13.16.01-1.16.62-3.75.62-4.62.1-.12 1-5.23.63-2.26-.03.25-.12.7-.15.66l.06.37c.78-2.92.87-5.4 1.45-8.3-.2.86-.4 2.02-.34 1.23l.52-2.72v.58l.8-4.04-.23.54c.42-1.97.76-2.63 1-4.9.08-1.03-.5 1.85-.17-.25l1-4.7.28-1.27.14-.62a2.56 2.56 0 0 0 .05-.27l.03-.17.05-.33.45-2.6c-.2.3-.04-.6.1-1.55l.14-.08c.52-3.58.5-1.25 1.12-4.8l.02.33-.05-.98c.52-3.2.68-1.62 1.27-5.17-.34 1.38-.46.56.1-1.1l-.03.45c.28-.92.34-1.24.56-1.85-.12.57.07.34.5-1l-.16.95c.23-.86.4-1.75.67-2.6.46-.93.92-2.18 1.4-3.25.52-1.05.97-1.97 1.23-2.3 0 0 .1-.25.35-.6l.84-1.38.47-.8.5-.72c.3-.45.55-.84.66-1.07-.2.4.04.1.3-.2.3-.28.6-.56.44-.27.33-.43.96-1.37 1.8-2.1.3-.3.6-.57.92-.8a16 16 0 0 0-.83.82c.35-.36.7-.68 1.05-.98.45-.33.87-.6 1.17-.76-.07.04-.13.1-.2.15.52-.33 1.04-.6 1.55-.86.54-.4 1.1-.8 1.7-1.16 1.56-.63 2.62-.7 2.62-.7.7-.4 1.33-.74 1.84-.98 1-.5 1.46-.8 1.1-.8-.18.01-.57.1-1.2.28-.12.03-.25.07-.4.12.25-.1.5-.23.76-.33a22.62 22.62 0 0 0-2.04.11c-1.84.22-3.62.65-5.92 1.77l.04-.07c-.9.57-1.66 1.14-2.37 1.7-.04.02-.08.04-.12.05-.33 0-1.48.33-2.62.9-1.16.52-2.34 1.18-2.95 1.45l.1-.08c-2.97 1.8-6.3 3.42-8.95 5.44.08-.08.1-.17.5-.46-1.97 1.36-4.44 3.17-4.67 3.15-4.7 3.38-11.07 8.34-13.76 10.88l.17-.2c-1.52 1.47-2.1 1.75-3.85 3.32-.1.06-.25.16-.23.14-1.65 1.6-5.1 4.33-6.46 5.6l-.16-.01-3.44 3 1.3-1.1c-.25.62-2.75 2.12-5.05 4.53-2.33 2.07-4.1 4.82-6.45 7.02-.95 1.2.76-1.15-.73.6-.17-.05.66-.86.16-.5-1.48 1.7-2.65 2.6-4.4 4.8h-.17c-1.1 1.45-2.2 2.77-3.22 3.96-.97 1.23-1.9 2.3-2.5 3.37-2.07 3.14-1.8 1.83-3.7 5.28-.32.4-.65.8-.95 1.2-.87 1.44-.42 1.15-1.43 2.72-.07-.17-1.17 2.05-.76 1.03-.52.92-1 1.87-1.5 2.85l-1.32 3.1c-.85 2.16-1.73 4.48-2.64 7.13-.05.25-.12.57-.2.92h-.02c-.02 0-.06-.02-.07 0l-.02.08-.03.16-.07.3-.28 1.2-.14.54-.1.35c-.26.92-.5 1.86-.55 3.1.01-.3-.1.12-.13.1l-.14 1.1c.01-.15.03-.34.06-.6.03-.27.12-.75.14-.7l-.06-.4c-.4 1.56-.63 3-.68 4.46-.03.73-.1 1.45-.1 2.2s0 1.5-.03 2.3c.06-.94.08-2.2.15-1.36-.03.98-.08 1.97 0 2.95l-.14-.6.1 2.2c.05.74.17 1.47.25 2.2l.04-.63.13 1.4.2 1.17c.07.38.14.77.25 1.2.13.44.32.92.55 1.5.44 1.03-.47-2.02.27.16.42 1.4 1.12 3.1 2.1 4.78.98 1.7 2.37 3.3 3.95 4.48-.1-.17.05-.1.35.1.3.2.78.44 1.26.7l.06.17 1.24.46c.06.02.1.03.15.05-.01.3-.04.57-.15.87.15-.01.01.37.2.3.07.8-.57 1.36-.05 1.73-.02.36-.2.4-.25.58l-.02-.1-.07.8.01-.07c-.04.22-.08.44-.08.76.08.35.32.36.45.92-.16-.14-.08.1.04.28-.08-.12-.14-.15-.06.16a.48.48 0 0 1 .15.11c-.01.01 0 .02-.02.02.26.3.25.2.15.06.02 0 .02-.03.02-.1.1.43.77.72.72.88.05.03.1.05.17.07l-.14 1.3-.3 3.5-.23.52c-.1.2-.17.42-.25.63-.4 1.3-1.17 3.58-1.3 5.2l-.16.6c-.05.55-.06 1.2-.15 1.75l-.02-.04c.01.83-.02 1.76.03 2.17l-.02-.03c.01.34.02.67.07 1l-.05-.17c.1.87.24 1.75.4 2.6l-.01-.12c.03.6.32.9.5 1.14a5.72 5.72 0 0 0 .62.6l-.03-.14.67.6c.1.1.3.26.5.35.2.08.43.1.64.06.13-.03.23-.06.32-.08.2 0 .4-.04.58-.1.05.03.06.1.08.15l.07.35c.05.2.12.4.26.56.1.15.38.28.48.34.1.07.23.14.35.2.26.15.52.3.94.47h-.06c.52.16 1.1.05 1.4-.36.03-.04.06-.06.1-.1.02-.01.04-.01.05-.03.12-.08.22-.18.3-.3.03-.02.06-.04.08-.05.1-.04.17-.02.25.05.04.07.06.16.1.22a1.71 1.71 0 0 0 .35.36c.1.12.16.24.3.4.16.17.37.3.6.37.1.04.24.03.36.05.1 0 .2 0 .28-.01a2.68 2.68 0 0 0 .55-.11c.36-.1.7-.3 1-.56a2.08 2.08 0 0 0 .21-.21 1.38 1.38 0 0 0 .23-.33c.12-.3.12-.4.17-.57l.24-1c-.1.4.1-.15.1-.1.4-1.42.82-2.95.65-3.02.02-.08.04-.14.06-.2l.17.93.06-.5c.18 1.27-.12.35.13 1.55l.1-.04c.1.45.1.8.27 1.25.14.38.3.72.5 1.05.18.3.47.7 1 1 .25.15.54.17.83.1.3-.08.5-.33.66-.62.1-.27.18-.56.18-.78a3.51 3.51 0 0 0 .02-.63l-.03-1.04c-.01-.67.01-1.36.06-2.05.04-.7.1-1.38.18-2.08l.1-1.07c.01-.38.07-.7-.03-1.24l.01.06c-.34-2.22-.72-4.46-1.7-6.52-.52-1-1-1.86-1.16-2.83-.18-.95-.1-1.94.1-2.86a3.14 3.14 0 0 1 .14-.25c.02-.01.03-.05.04-.1.42.04 1.02-.04 1.66-.55v.07a2.43 2.43 0 0 0 .5-.68c.13-.23.2-.5.23-.62.08-.32.1-.62.08-.94.3-.02.22-.7.37-.87l.02.03c-.07-.58.48-1.03.43-1.6.02.03.1.06.06.18.03-.17.06-.37.1-.53.07 0 .13.01.2.01.67-.01 1.36-.02 2-.06l1.76-.16c.5-.07.9-.12 1.15-.12 0 0 .08-.01.2-.03.14-.02.33-.05.57-.1.47-.14 1.12-.24 1.8-.5.67-.25 1.36-.52 1.9-.84.56-.28 1-.58 1.22-.78-.8.64 1.58-.8 1-.27.25-.23.62-.55 1.06-.92.4-.42.9-.85 1.32-1.37l.65-.75.56-.76c.38-.47.64-.92.87-1.23l-.14.26c1.53-2.4 2.28-4.66 2.96-6.8l1.93-6.54c-.16.14.32-1.52.3-1.75.16-.7.3-1.36.42-1.98a46.39 46.39 0 0 1 .38-1.39c.3-1.06.64-2 .92-2.86.34-.84.64-1.6.86-2.25.27-.64.44-1.2.5-1.65.43-1.02.85-1.54 1.12-1.98.3-.43.5-.76.84-1.2l-.26.46 1.42-2.2 1.2-1.58c.7-.97 1.46-1.75 2.47-2.9.33-.37.55-.66.77-.95l-.46 2.2-.25.53c-.26.2-.36 3.54-.65 3.98l-.2 1.5c-.12.4-.33 1.27-.23.53-.27 1.36-.24 1.4-.37 2.4l-.4 1.43c-1.14 5.34-1.77 9.94-2.9 15.57l-.43 2-.13.6-.07.3-.03.16c-.01.05-.04.12.04.1l1.3.02 3.92.04 7.33-.02 13.9-.22c10.3-.3 22.23.5 32.83.18.36.43.87 1 1.8 1.92.3.45.65.87.98 1.3 1.2 1.3 1.03.78 2.34 2.25-.18.01 1.72 1.8.82 1.07.78.8 1.58 1.6 2.42 2.38s1.76 1.53 2.7 2.33l1.42 1.2 1.52 1.22c1.04.83 2.08 1.76 3.25 2.66.53.27 1.3.8 2.06 1.33.75.63 1.52 1.25 2.66 1.8-.3-.14.07.14.03.15.34.22.7.43 1.03.62l-.3-.1c.34.25.68.5 1 .72.35.2.7.4 1.04.6.7.4 1.37.74 2.06 1.1.68.36 1.42.62 2.13.94.6.24 1.2.53 1.82.78-.82-.35-1.57-.77-.86-.5.53.27 1.08.48 1.64.7.05.03.1.06.14.1l.7.3-.23-.05c.4.16.8.3 1.2.45l.8.33c.02-.02.04-.04.06-.07.06.02.12.04.18.05.77.2 1.5.47 2.3.6-.2-.08-.42-.14-.62-.25l2.73.58c.42.04.85.07 1.34.08l.8.01c.28-.01.6-.07.93-.12 1.2-.2-2.25.02.24-.23 1.57-.04 3.57-.48 5.47-1.4 1.9-.9 3.65-2.34 5-3.76-.35.16.38-.6 1.06-1.4l.17-.01a15.53 15.53 0 0 1 .44-.53 2.67 2.67 0 0 1 .48.32c.04-.14.35.12.36-.1.77.23 1.05 1.03 1.6.67.33.15.3.32.45.44l-.1-.02.67.33c.2.1.43.24.76.33.36.03.44-.2 1-.14-.18.1.05.1.27.06-.13.03-.18.08.12.1a.56.56 0 0 1 .15-.1c0 .01.02.01.01.02.35-.14.27-.15.1-.12 0-.02-.02-.03-.07-.05.22.03.46-.1.67-.2l2.36 1.07 3.6 1.54c.06.06.1.1.17.16 1.07.84 2.9 2.3 4.38 2.9l.5.34c.5.2 1.1.46 1.6.68l-.04.01c.77.26 1.63.55 2.02.65h-.04l.96.24-.17-.01c.7.16 1.4.25 2.1.36l1.97.23-.1-.1c.66.1 1.3.15 1.9.01.3-.06.6-.2.83-.33.2-.12.4-.23.62-.4.22-.17.46-.43.6-.73.14-.3.16-.6.2-.8.03-.22.1-.4.13-.44.02-.03.05-.07.1-.06.03 0 .03 0 .1-.01l.24-.06-.03.03c.56-.2 1.08-.5 1.45-.95.24-.27.36-.63.38-.92.03-.3-.01-.56-.06-.8l-.08-.3c-.01-.03-.02-.05-.02-.08.03-.01.06-.02.1-.02l.1-.02.04-.01.17-.07c.24-.1.62-.36.74-.7.5-1.2-.07-2.4-1-3.14.36.3-.1-.16-.12-.18-1.2-.8-2.47-1.7-2.58-1.56-.82-.58-.7-.54-.74-.65.47-.05.98-.06 1.45-.05l-.45-.15c1.24.07.25.16 1.5.2l-.02-.12a4.6 4.6 0 0 0 1.27-.16c.4-.1.95-.35 1.17-.77.1-.15.1-.4.04-.63zM144.84 186.1c1.86.2 3.26 1.06 4.03.64.84.14.96.34 1.38.45l-.2-.01c1.57.28 2.02.37 3.18.62.6.07.73-.17 1.76.1-.36.03.07.1.46.18-.25-.04-.34-.01.16.16.08-.02.2-.01.3-.01 0 .01.02.02.01.03.65.1.55.04.25-.03.02-.01 0-.04-.1-.1.64.27 1.87.38 1.92.57 1.95.36 3.38.47 5 .74.16.13-.23.13-.7.07l1.15.2c-.04.13-.67-.06-1.03-.1 1.32.5 2.86.37 4.42.9l.35-.03.1.04c.01-.06.38-.06.62-.02.2.16-.07.26.72.42.6.24 1.8.32 2.63.42-.44-.1-.28-.15-.08-.15.4.08.6.24.92.25v.16c-.13-.18 1.07.06 1.23.03.2.16-.64-.03-.75.04l2.4.47c.87.06-.12-.18.3-.23.76.13 1.5.17 2.35.44l-.24-.2c1.43.2 2.27.38 3.2.7 1.9.2 3.2.28 4.06.3l-1.73 6.43.2-.17-1.82 6.17c-.32 1-.64 2-1.1 3.07.01-.04.02-.1.05-.16-.04.12-.1.25-.13.37l-.28.62c-.06 0-.12-.05-.14-.1h-.1l-.22-.04-.9-.16-1.8-.32c-1.2-.2-2.28-.36-3-.35l.1-.03c-.8.03-1-.16-1.9-.23-.04-.03-.1-.05-.1-.06-.88.02-2.48-.43-3.18-.5l-.02-.12-1.7-.3.63.14c-.28.26-1.24-.43-2.5-.46-1.14-.25-2.44.2-3.6-.18-.6.04.54-.14-.33-.2 0-.16.4-.02.22-.2-.85-.08-1.34-.4-2.4-.5v-.13c-1.38-.02-2.5-.64-3.43-.6-1.4-.17-.86-.54-2.34-.6l-.53-.27c-.6-.15-.48.12-1.14-.1.06-.1-.84-.25-.43-.27-1.5-.46-3.18-.38-5.15-1.05-.48.12-1.48-.2-1.84-.12-.04-.1-2.04-.42-.86-.38.1 0 .28.04.26.07l.16-.1c-1.1-.45-2.13-.3-3.27-.55.33.1.78.18.46.2l-1.06-.22.24-.06-1.43-.34c.01.05-.02.08.05.14-.34-.14-.05-.23-.25-.32-.12-.12-.14.28-.2-.01-.04-1.04-.03-2.6-.05-3.93-.14.13-.15-.23-.2-.6l.12-.05c-.2-1.4.26-.52.13-1.9l.08.12-.25-.37c-.2-1.26.25-.66.05-2.03-.01.2-.05.26-.1.27a23.91 23.91 0 0 1 .11-1.19c.05.08.14-.05.18-.5l.1.4-.06-1.07c.25-.78.33-2.1.56-2.4 0 0 .4-1.7.3-2.15.04.37.28-.57.36-.27 0-.18-.03-.17-.05-.2s-.03-.1-.03-.15v-.08c.02-.01.04.01.06.01.04.02.1.05.1.1l-.01.01.05.03c.03.01-.02.01.14.04l.67.14 1.27.2c.83.13 1.62.25 2.5.52-.06-.13.86.14.67-.1zm11.3 55.55a.41.41 0 0 1 .11.01c.94.18.95 1 .73 2.98l-.07.56c-.18 1.14-.35 2.22-.84 2.57-.18.13-.42.17-.77.1-.26-.04-.45-.15-.6-.34-.24-.34-.46-1.14-.1-3 .22-1.4.63-2.4 1.12-2.76.14-.1.26-.13.4-.13zm-2.7 2.94l-.03.2c-.18 1.14-.35 2.22-.84 2.57-.18.13-.42.16-.77.1-.26-.04-.45-.15-.6-.34-.24-.34-.46-1.14-.1-3 .22-1.4.63-2.4 1.12-2.76.12-.1.25-.13.38-.13a.41.41 0 0 1 .11.01c1 .2 1.06.88.7 3.33zm-3.5-1.35c-.07 1.25-.28 2.03-.64 2.3-.1.08-.26.17-.58.12-.26-.04-.38-.16-.44-.25-.4-.55-.14-2-.05-2.53.06-1.1.37-2 .8-2.33.1-.08.2-.12.3-.12a.34.34 0 0 1 .1.01h.03c.35.05.48.2.55.3.26.4.24 1.2-.07 2.5zm8.4-1.4c-.1.47-.1.64-.2.95.02-.17-.01-.18-.06-.04-.03-.52-.16-.98-.43-1.34.34.1.6.18.8.23a3.11 3.11 0 0 1-.08.43l-.03-.23zm1-.96l-.06-.03a.58.58 0 0 0-.21-.06c-.01 0-.02.01-.03 0-.03-.02-.06-.04-.1-.04.12-.01.27.01.34.06.07.04.1.06.12.1.05.05.06.07.05.07-.04-.04-.07-.07-.1-.1zm2.14-17.4l-.28 1.04c-.1.37-.44.77-.78.97-.33.2-.67.27-.65.53.01.07.07.17.2.26-.08 0-.17 0-.25-.01l-.37-.05c-.23.86-.3 1.82-.22 2.8.1 1.22.6 2.5 1.2 3.7.4.44.8 1.66.98 2.05 0 .07.6 2.6.17 1.16-.04-.12-.1-.34-.07-.33l-.12-.15c.2 1.34.56 2.44.74 3.74l.01.08c.01.04.02.14.01.26.01-.12 0-.22 0-.26l-.01-.07c-.03-.3-.05-.5.02-.23l.03.22v.07c.03.18 0 .63-.04 1l-.04-.3c-.06.67-.17 1.37-.25 2.08l.1-.28c-.14 1.03-.3 1.4-.26 2.6.04.54.14-1 .12.12l-.05 1.18c0 .43.02.93-.01 1.2-.02.17-.03.2-.06.23-.02.04-.07.07-.1.05-.1-.05-.07-.02-.37-.4.02.16-.24-.15-.44-.53l.05-.08c-.1-.17-.17-.33-.18-.4a1.79 1.79 0 0 1-.07-.33c-.03-.17-.02-.26-.02-.34.01-.17.02-.33-.17-1.24l.08.15-.24-.46c-.2-.8-.2-1.03-.23-1.28-.01-.12-.01-.25-.06-.45a3.69 3.69 0 0 0-.1-.38c-.03-.08-.05-.17-.12-.32l-.05-.1c-.02-.03-.02-.04-.1-.14-.04-.04-.08-.07-.12-.1-.03-.02-.02-.02-.1-.05a.71.71 0 0 0-.22-.06.8.8 0 0 0-.27.03c-.52-.13-2.53-.7-4.17-1.66-1.8-1.06-2.7-3.67-2.7-3.7a.51.51 0 0 0-.63-.32.51.51 0 0 0-.32.63c.04.12 1.02 3 3.14 4.24.52.3 1.06.57 1.6.8a1.53 1.53 0 0 0-.56.27c-.25.18-.47.44-.65.73-.18-.7-.63-1.24-1.6-1.42h-.01a1.6 1.6 0 0 0-1.25.3c-.2.14-.36.32-.5.53a2.1 2.1 0 0 0-.31-.9c-.27-.4-.68-.65-1.23-.73a1.45 1.45 0 0 0-1.2.3c-.67.52-1.1 1.64-1.17 3-.1.53-.17 1.1-.17 1.62-.05-.04-.07-.04-.06.02-.12-.13-.15-.23-.16-.26l-.01-.1c-.44-2.05-.18-3.75-.46-4.53 0-1.1.16-1.28.22-1.83v.26c.2-2.02.36-2.6.74-4.05.18-.73.05-.9.55-2.16-.1.43.08-.1.28-.56-.1.3-.13.4.16-.2.02-.1.07-.23.1-.35.01 0 .02-.02.02-.01.04-.1.1-.18.12-.25l.02-.43v-.1c-.01.01-.02.1-.05.33-.01-.03-.02.01-.05.17l-.02.02.01-.02.06-.43c.02-.13.03-.26.05-.4l.08-.8c.05-.52.1-.93.16-.98l.18-2.3h.03c.34-.01.67-.03 1.02-.02.07.1-.1.16-.3.17l.5.03c-.02.13-.3.04-.44.04.56.3 1.22-.05 1.88.24l.15-.1.04.02c0-.06.17-.1.27-.1.08.13-.04.27.3.3.25.15.76.05 1.12.04-.2-.05-.12-.1-.03-.13.17.02.25.15.4.12v.16c-.05-.16.46-.1.53-.15.08.13-.27.06-.33.14l1.02.12c.38-.07-.05-.16.14-.27.32.01.65-.05 1 .1l-.1-.15c.6-.02.97.04 1.35.24 4.62-.5 1.15-1.4 1.15-1.4-1.72-.55-2.7-.27-4.8-.46-1.83-.33-2.3-.66-4.22-.82l-.66-.1c-.14-.01-.2-.03-.28-.06a.82.82 0 0 1-.39-.32c-.2-.06-.17-.33-.15-.56l.02-.1a1.4 1.4 0 0 0-.02-.36l.15-.18c-.04-.18-.05-.4.04-.55l.03.02c-.05-.27.04-.55.01-.7l.03.02.03-.3.04.06c-.03-.46.03-.92.13-1.32l-.15.01a1.98 1.98 0 0 0 .09-.37c.35.1.86.25 1.68.44h.7c3.42.55 1.75.73 5.6 1.1-1.5-.26-.66-.37 1.18-.04l-.5.05c1.03.13 1.38.14 2.06.23-.62-.01-.35.14 1.18.3l-1.04.03c.86.05 1.72.04 2.57.03-.07.27-.12.53-.14.8-.04.05-.02.2 0 .22l-.4 1.56zm12.53-6.83c-1 .62-2.14 1.06-3.3 1.48-1.22.33-2.55.68-4.1.86.77-.12-.34-.04-.28-.1-2.88.26-6.02-.1-6.1.18-2.14-.24-1.73-.32-2-.45 0 .13-1.87-.1-3.52-.43l.77.1c-1.58-.3-3.16-.64-4.73-1.03l.87.46c-2.48-.7-.56-.43-2.95-1.03l-.02.2c-.83-.26-1.66-.5-2.25-.8-.16-.08-.3-.14-.46-.22l-.42-.28c-.28-.2-.56-.36-.8-.6-1.03-.82-1.85-1.9-2.78-3.22-1.02-1.37-1.76-2.95-2.43-4.56-.27-.84-.58-1.66-.8-2.52-.08-.38-.17-.75-.26-1.12l3.58.6c2.74.46 5.42.95 7.88 1.6l.2.2c.05.23 1.43-.04 1.58.2h.6c.16.07.5.18.2.17.53.1.55.08.95.1l.55.24c2.1.52 3.93.6 6.14 1.07 2.62.76 7.68 1.45 10.6 1.85 2.06.22 4.24.76 6.42 1.3l1.64.4c.02.01.05.01.07.02-1.22 2.54-2.88 4.18-4.84 5.3zm19.6-39.13l-1.9 2.22c-.58.76-1.1 1.5-1.57 2.18-.28.3-.54.65-.8.98l-.92 1.53c-.3.54-.6 1.07-.9 1.55v-.08c-.4.74-.74 1.58-1.08 2.3-.35.7-.6 1.36-.7 1.76v-.08c-.23.64-.5 1.28-.7 1.93l.05-.35-.24.9c-.82-.28-1.76-.52-1.76-.52-4.06-1.16-6.28-1.2-11.2-2.12-4.3-.97-5.4-1.47-9.9-2.3-2.13-.47-4.42-.88-6.5-1.28-1.03 0-2.74-.57-3.95-.64l-.43-.2c-.42-.02-.9-.08-1.3-.23l.03-.03c-.62-.04-1.3-.23-1.6-.25l.03-.03-.74-.14h.14a21.85 21.85 0 0 1-3.1-.59l.05.16c-1-.3-1.7-.4-2.4-.5-.34-.05-.67-.1-1.03-.2-.18-.04-.36-.1-.57-.13l-.7-.2.05-.03-.2-.03c1.18-4.16 2.78-8.12 4.7-11.66l.4-.45c.15-.06.5-.9.86-1.8.4-.86.82-1.75 1.03-1.92l.7-1.4c.24-.36.8-1.1.4-.43.78-1.2.77-1.25 1.27-2.15.32-.4.6-.82.95-1.2 3.26-4.6 6.07-8.5 10.12-12.87 2.5-2.56 6.12-6.22 9.98-9.76 3.85-3.54 7.88-7.06 10.8-9.63 4.1-3.64 8.77-7.3 13.58-10.8s9.72-6.9 14.38-9.94c.16-.08.43-.26.66-.42s.42-.3.4-.3c1.52-.9 3.07-1.74 4.65-2.5l-.5.56c-.75 1-1.57 1.96-2.22 3.14-.33.58-.72 1.16-1.03 1.82-.3.65-.6 1.34-.92 2.08.3-.73-.22.27-.22.2-.6 1.34-1.1 2.76-1.52 3.84-.35 1.1-.5 1.87-.4 1.94-.67 2-.63 1.6-.82 1.84.1.02-.35 1.8-.77 3.4l.15-.74c-.4 1.52-.8 3.05-1.12 4.58l.43-.85c-.6 2.42-.43.55-.87 2.9l.2.01-2 8.56-6.33 35.15-3.1 3.24zm77.87 48.83s-1.44-1.12-1.9-1.22c.36.12-.42-.5-.1-.45-.1-.04-.27-.12-.46-.23-.1-.05-.2-.1-.3-.17-.1-.06-.23-.15-.2-.13-.08-.04-.2-.1-.1-.16.01 0 0 .01.02.01.03-.03.06-.05.1-.08l.03-.03.1-.14c.24-.4.48-.76.72-1.13.46-.74.9-1.46 1.5-2.18-.17-.01.46-.78.17-.7.95-1.7 2.32-2.7 2.25-3.6.48-.75.7-.8 1-1.15l-.1.2c.9-1.4 1.17-1.8 1.88-2.8.3-.54.14-.77.82-1.64-.12.35.12-.03.36-.37-.14.23-.15.32.22-.1a1.63 1.63 0 0 1 .12-.29c.01 0 .03-.01.03 0 .36-.6.26-.5.07-.25 0-.02-.04-.01-.12.05.52-.5 1.12-1.64 1.32-1.6 1.14-1.73 1.82-3.05 2.74-4.5.2-.1.03.27-.23.7l.66-1.02c.1.08-.33.62-.53.95 1-1.07 1.52-2.6 2.65-3.88l.1-.35.07-.07c-.05-.03.1-.4.23-.6.23-.13.2.17.7-.53.47-.5 1.03-1.6 1.47-2.35-.28.38-.25.2-.17.02.24-.35.47-.48.6-.78l.15.06c-.22.05.5-1 .53-1.16.23-.13-.3.6-.28.73l1.42-2.1c.4-.8-.22.05-.08-.38.43-.67.78-1.38 1.38-2.08l-.28.16c.76-1.3 1.28-2.02 1.97-2.77 1.04-1.9 1.68-3.16 2.03-3.97l2.8 2.35-.1-.26c2.57 2.17 4.33 3.42 6.1 4.7.14.13.33.28.53.43l.38.27c.1.06.2.13.3.2l.1.06c.1.08.22.16.33.25 0 0 .01.01.02.01l-.05-.01c.08.04.15.1.22.14a63.26 63.26 0 0 1 2.62 2.08l-.08-.02a26.67 26.67 0 0 1 1.24.92c.04.05.04.1-.02.1.08.05-.04.12-.06.2l-.33.5-1.06 1.6c-.7 1.05-1.3 2.02-1.6 2.7l.02-.1c-.3.78-.58.9-1.02 1.7-.05.03-.1.08-.1.06-.36.84-1.45 2.18-1.8 2.83l-.12-.02-1 1.5.4-.54c.12.36-.92 1-1.5 2.2-.72.98-.86 2.4-1.7 3.36-.22.58.1-.57-.3.24-.15-.07.15-.4-.08-.3-.44.77-.95 1.1-1.47 2.07l-.13-.03c-.6 1.3-1.64 2.12-2 3.03-.75 1.27-.84.6-1.53 2l-.48.4c-.4.52-.1.5-.58 1.04-.06-.1-.6.7-.44.3-1.08 1.24-1.74 2.85-3.23 4.43-.1.5-.84 1.3-.93 1.68-.1 0-1.3 1.74-.73.65.05-.1.16-.24.18-.2l-.01-.2c-.9.85-1.22 1.87-1.98 2.82.25-.26.53-.65.4-.35l-.7.9.06-.25-1.06 1.3.24-.1c-.28.3-.5.48-.7.68a3.49 3.49 0 0 0-.31.34c-.02.03-.05.07-.07.1v.1c-.02.2.25-.03.1.2-.02.01-.03.02-.05.03-.08-.03-.16-.05-.24-.08-.02-.01-.04-.03-.06-.04.01-.01-.17-.1-.3-.16l-.42-.2-1.7-.84c.06.18-.28.03-.64-.1l.01-.13c-1.42-.46-.38-.47-1.77-.97l.15-.02-.46.07c-1.3-.36-.53-.54-2-.9.2.1.26.16.24.2l-1.08-.62c-.04-.06-.18-.17-.43-.3l.4.06c-.34-.1-.7-.24-1.04-.37-.6-.56-1.8-1.18-2-1.52zm1.4 3.4a6.92 6.92 0 0 1-.59-.38c.36.2.67.34.88.4.76.45 1.1.67-.3-.01zm27.55-.93a19.17 19.17 0 0 1-3.67 2.74c-1.5.94-3.2 1.54-5 1.82l-1.36.12c-.45.05-.92-.01-1.37-.01-.92.02-1.84-.18-2.77-.3a25.74 25.74 0 0 1-1.47-.32l.2-.28 1.15-1.57 2.23-3.16c1.47-2.1 2.92-4.13 4.4-5.95l.25-.1c.23.04.58-1.37.86-1.42l.27-.56c.13-.12.37-.4.24-.1.33-.46.3-.5.5-.86l.45-.43c1.34-1.8 2.2-3.5 3.57-5.43 1.82-2.18 4.6-6.73 6.2-9.34 1.08-1.87 2.5-3.72 3.93-5.6l.53-.7.45-.6c1.16 1.16 2 2.37 2.48 3.74.4 1.14.6 2.4.74 3.74a17.81 17.81 0 0 1-.33 4.34c.13-.8-.14.32-.17.25-.76 2.93-2.35 5.9-2.12 6.06-1.08 2-1 1.57-1.22 1.78.12.05-.84 1.8-1.86 3.26l.42-.7c-.93 1.43-1.93 2.82-2.96 4.2l.8-.66c-1.72 2.12-.64.38-2.22 2.45l.17.1c-1.22 1.44-2.28 2.5-3.35 3.5zm35.37-4.36l-.06-.06c-.05.04-.26.1-.36.13-.12.03-.2.05-.3.05-.15.01-.22 0-.3-.03l-.1-.03c-.06-.01.02-.01-.1-.03-.2-.03-.47-.06-.95-.05l-.34.1c-.85.08-1.08.07-1.35.06-.13 0-.27 0-.5.04-.13.03-.25.04-.52.16-.07.04-.17.07-.32.24-.06.07-.1.15-.14.24-.04.1-.05.26-.02.38a.68.68 0 0 0 .12.26c.04.06.07.08.1.12.32.23.24.12.38.22-.04-.02-.07-.05-.1-.07-.04-.02.01 0-.06-.04-.04-.03-.1-.07-.14-.1-.05-.05-.1-.1-.13-.15-.1-.16-.1-.26-.1-.23 0-.01.08.18.17.24a.68.68 0 0 0 .26.16c.03 0 .07.02.14.07a7.52 7.52 0 0 1 .46.31l-.22-.07c.4.27.56.34.8.53-.26-.13-.18 0 .4.4l-.44-.2 1.18.67c.4.33.96.72 1.45 1.06.35.24.6.66.62.8 0 0 .07.14.12.35.06.2.03.5-.02.64-.03.06-.01.06-.18.15-.02.01-.1.04-.17.08-.07.03-.14.06-.2.08l-.2.08c.1-.08-.2 0-.4.15a.51.51 0 0 0-.15.14l-.03.04-.01.01.1.05-.01.02-.02.05c-.02.06-.04.07-.04-.04-.01.1-.03.22-.04.35-.03.16.08.38.18.6l.08.23c.02.05.03.1.04.15.03.1.03.2.03.27-.01.07-.01.14-.04.17 0 .02-.03.03-.03.05l-.1.1a1.31 1.31 0 0 1-.42.24l.08-.05c-.22.1-.42.17-.7.24-.57.04-.94.56-1.08 1.04-.12.38-.13.7-.17.88-.03.15-.06.22-.16.32s-.3.23-.55.37c-.18.1-.32.17-.53.2-.4.1-.9.05-1.44-.04.1.1-1.13-.08-.83.06-2.34-.1-4.07-1.02-4.96-.97-1-.36-1.14-.53-1.62-.78l.24.1c-1.8-.8-2.3-1.14-3.5-1.96-.6-.4-.82-.33-1.8-1.22.16.1.17.1.1.02-.1-.1-.27-.26-.45-.43l-.18-.08a2.3 2.3 0 0 0 .19.07c.15.14.2.17.02-.03-.1-.05-.22-.1-.4-.2-.1-.02-.23-.06-.36-.1 0-.01-.03-.02-.01-.02-.78-.3-.65-.24-.3-.07-.02 0 0 .03.1.1-.77-.42-2.23-.97-2.28-1.12l-2.4-1.02a2.46 2.46 0 0 0 .19-.45c.1-.32.22-.64.36-.95.12-.02.1.16.04.35l.2-.44c.1.07-.07.28-.12.43.48-.4.4-1.15.92-1.65l-.02-.18.04-.03c-.05-.03-.04-.2-.01-.3.15-.03.23.14.4-.16.23-.18.33-.7.45-1.03-.1.16-.14.07-.13-.02.08-.15.23-.18.25-.32l.15.06c-.16-.01.08-.46.05-.55.15-.03-.04.28.01.36l.5-.9c.08-.37-.16-.02-.2-.23.13-.3.2-.62.46-.9l-.18.03c.2-.58.4-.88.72-1.17 1.23-4.47-.9-1.6-.9-1.6-1.14 1.4-1.24 2.38-2.2 4.27-.98 1.58-1.46 1.87-2.3 3.6l-.34.6c-.05.1-.1.16-.16.23-.12.13-.3.23-.5.26-.1.1-.25.1-.38.06-.07-.02-.13-.05-.2-.08-.07-.03-.25-.1-.37-.12l-.1-.2c-.18-.03-.38-.1-.5-.24l.03-.02c-.27-.05-.5-.24-.63-.26l.03-.03-.28-.14.07-.02a4.43 4.43 0 0 1-1.19-.6l-.04.14c-.03-.03-.06-.04-.1-.06.3-.24.6-.48 1.78-2.1l.3-.7c1.96-3.1 1.43-1.42 3.4-5.02-.85 1.37-.62.5.45-1.16l-.15.5c.53-.97.68-1.3 1.06-1.93-.25.6-.01.4.7-1.02l-.35 1 .42-.97c.03.01.07.01.08.01l1.3 1s.1.07.26.2c.08.06.18.13.3.2.06.04.1.08.18.13.06.04.12.1.25.17.26.12.47.46.5.9.04.4-.05.8.2.85.08.01.2-.02.34-.1-.04.08-.07.16-.12.24l-.4.7c1.4.93 3.2 1.67 5.46 1.6.63-.17 1.9-.33 2.28-.4.06-.01 2.55.12 1.1.14-.12 0-.34-.01-.32-.03l-.17.07c1.4.18 2.63.18 4.05.5-.42-.12-1-.22-.6-.2a31.92 31.92 0 0 1 1.33.31l-.3-.01.5.13c.17.04.27.08.44.14l.94.37-.24-.17c.93.4 1.22.65 2.34.93.5.1-.88-.42.15-.08.63.25 1.44.54 2.3.8.45.13.8.27 1.14.44.1.06.14.12.1.2.1-.01.08.1-.06.16z"/><path d="M216.5 107.22l.12-.26-.87 1.32.75-1.06zm90.14 117.34l-.01.01-.14.32z"/></svg>