<svg xmlns="http://www.w3.org/2000/svg" viewBox="0 0 480 480" xmlns:v="https://vecta.io/nano"><path d="M289.16 410.62l-3.57-20.4 22.95-3.06 3.32 16.23c0 .1-5.1 21.03-22.7 7.23z" fill="#fff"/><path d="M286.5 397.97v-.23c-.01 0-.01.06.01.23zm.4-7.2h-.01c-.02.01-.04.01-.06.02l.07-.02z"/><path d="M84.92 330.73l30.32-9.94 6.1 23-32.42 9.54c-.1 0-16.4-3.9-4-22.6z" fill="#fff"/><path d="M100.7 325.1l.3-.06c-.02-.02-.1-.01-.3.06zm209.47 66.8l-.02-.1h-.04zm-5.3.43l.28-.08-.28.08zM59.7 359.14c0-.01 0-.02.01-.02l.01-.1-.02.13zm35.37-11.4l.02-.05c-.01 0-.02.01-.02.05zm-2.53-11.56c-.01 0-.01 0 0 0-.01 0-.01 0 0 0zm3.3 9.53c0 .01.01.01.01.01h-.01zm198.65 59.44l.06.02c0-.01-.02-.02-.06-.02z"/><path d="M306.87 402.37l.01-.01c-.01 0-.01 0-.01.01zM96.08 346.6c-.05-.3-.16-.62-.24-.9-.15-.1-.1-.4-.23-.53l.06-.08c-.05-.05-.1-.1-.06-.18h.02c-.07-.07-.06-.18-.1-.2h.02l-.03-.1h.03c-.1-.14-.13-.3-.13-.43l-.08.03c.03-.3-.17-.38-.1-.66h.02c-.3-.28.04-.55-.25-.85.04.04.04-.03.06-.03-.06-.15-.1-.32-.28-.28-.02-.1.03-.1.1-.13-.07.02-.13-.08-.15-.16l.04.03-.08-.25-.13.08c.01-.14.16-.07.1-.2l-.1.03c-.02-.2.13-.34.18-.54-.12-.76-.58-1.5-.54-2.25l.08-.05c.12-.04-.23-.15-.12-.2l-.07-.07c.02-.03.03-.08.07-.05-.01-.08-.03-.07-.08-.12l.06-.1c0-.3-.2-.53-.25-.85.08-.4-.22-1.1-.4-1.48-.3-.53.04-1.3-.3-1.85.01-.02-.04-.06-.05-.06l-.1-.54s-.52-2.6-1.13-.4l-.03-.01c0 .3.02.5.2.67-.16.07.04.25 0 .33h-.02c.17.15-.03.4.13.54-.01 0-.06 0-.07-.04.05.12.12.3.03.32.1.3.14.72.34.88l-.03-.01c.13.1.05.14.13.25l-.02.02c.13.1.1.35.16.43l-.06.02.07.23-.01-.1c.2-.01-.07.2.08.35.01.17.44.25.4.43.1.06-.15-.04-.06.06-.1.02-.07-.04-.14 0 .07.1-.05.2.04.34l-.07.02c.17.16-.02.38.14.48.1.18-.2.18 0 .35l-.08.1c0 .1.13.04.1.14-.06.01-.02.13-.1.1-.05.24.23.4.13.74.13.04.1.2.2.22-.05.02.05.3-.1.15-.01-.01-.02-.04 0-.04h-.08c-.1.2.14.28.15.45.01-.05-.01-.12.05-.08v.15l-.07-.02.01.23.07-.05c-.01.12-.13.18 0 .3.07.04.08-.13.13-.02-.02.16-.05.4-.03.6.08-.04.1.02.12.06l-.07.02c.15.18-.14.1-.02.3h-.05l.16.02c.18.15-.13.13.1.28-.03-.08.15-.07.14.03l-.08-.01c.03.05.06.06.05.1-.04-.02-.1.01-.08.08l-.1-.03.16.12c-.05.13.08.3-.01.36 0 0 0 .26.13.3-.08-.03-.07.1-.16.1.1.05.2.22.13.3l-.01-.01c-.02.3.22.45.17.72.08-.03.06.1.17.06.16.24-.12.52.24.54.04.1-.05.16-.05.22l-.02-.02c.08.2.1.28.12.44.05.07.2.05.2.2-.07-.03-.05.02-.04.08-.02-.03-.04-.04-.07.04.02.01.04.02.05.03h0c.04.1.06.07.06.02.01 0 .02-.01.04-.02-.06.1.06.26-.04.3.08.27.24.44.33.66-.05.04-.1-.01-.14-.07l.06.16c-.08.02-.07-.08-.1-.13-.08.22.2.37.15.62l.07.03-.01.02c.03-.01.1.03.1.06-.06.05-.16.03-.13.14-.05.1.1.24.15.35 0-.07.04-.05.07-.03.01.06-.05.1-.01.14l-.1.03c.08-.04.13.13.17.14-.06.05-.08-.07-.13-.08l.1.33c.1.1.08-.04.18 0 .04.1.13.2.1.33l.07-.06c.1.2.12.3.07.46 1 1.34.98.1.98.1.05-.62-.25-.87-.47-1.55-.13-.6-.01-.8-.2-1.4z"/><path d="M352.06 425.3l.01.07c-.37-2.2-.27-4-1.42-6.5.18.38.01-.2.05-.17-.53-1.44-1.42-2.9-1.7-2.76-.22-.3-.38-.46-.5-.56-.1-.1-.17-.18-.2-.24-.07-.1-.02-.12-.05-.22-.07.1-.92-.46-1.67-.84l.37.15c-.72-.4-1.45-.74-2.2-1.07l.33.4c-1.12-.6-.17-.4-1.3-.85l-.06.2c-1.6-.74-2.44-1.38-3.97-2.13-6.57-2.56-13.9-4.3-20.04-6.53l-.23-.22c-.06-.24-1.8-.2-2-.47l-.75-.12c-.2-.1-.6-.27-.24-.2-.67-.2-.7-.18-1.2-.26l-.34-.17c-.04-.02-.18-.08-.27-.1l-.25-.07c-.76-.1-1.53.01-2.22.36-.01-.01-.01-.03-.02-.05-.26-.96.08-.7-.27-1.68l.02-.4c-.07-.44-.18-.3-.23-.78.07.02-.07-.62.04-.35-.12-1.1-.6-2.18-.72-3.65-.18-.3-.26-1.02-.4-1.24.04-.05-.3-1.45-.01-.66.02.07.05.2.02.2l.1.08c-.03-.7-.27-1.28-.44-1.92l.72-.18 1.46-.36.37-.1c.15-.04.3-.08.44-.13.3-.1.57-.24.83-.4 1.04-.66 1.77-1.8 1.92-3.05.03-.3.05-.63 0-.95-.03-.34-.08-.53-.12-.8l-.25-1.52-.95-6.12-3.86-24.13c-.03-.25-.1-.7-.2-1.1l-.1-.5c-.03-.13-.05-.2-.06-.2l-2.28-14.1-1.68-9.87c-.97-5.6-2.23-12.5-3.36-17.77-1.12-5.27-2.2-8.88-2.2-7.93-.01.3.08 1 .25 2.2l-.5-2.14c-.56-2.23-1.63-5.63-3.06-9.84l3.22 8.76c.9 2.5.96 2.27.74.86-.14-.7-.37-1.72-.63-2.84-.28-1.1-.64-2.3-.96-3.42s-.65-2.13-.88-2.87l-.4-1.2c-2.38-7.43-4.44-12.96-6.7-18.8l-8.1-20.62c-5.84-15.2-7.16-19.3-13.64-34.9l-2.34-5.65-1.22-2.85-.22-.52c0-.01.01-.02.01-.04l.37-1.25.2-.63.05-.16c.02-.06-.1-.02-.13-.03h-1.38l-.1-.23c-.03-.04-.03-.15-.1-.14h-1.32l-12.37.06-1.56.06-2.12.03c-.05.03-.1.07-.15.1l-24.96.24c-3.97.08-8.1.1-12.3.06l-13.58-.16-2.74 13.23-2.28 12.18c-.06.26-.15.72-.2 1.12-.03.2-.05.38-.07.52-.02.13-.02.22-.02.22l-2.87 14.5-2.03 10.15L183 277.6c-.6 2.7-1.22 4.95-1.66 6.4-.45 1.4-.77 2.03-.43 1.7.14-.18.45-.6.84-1.4l.4-.93c-.38 1.13-.72 1.97-1.02 2.45-.32.77-3.92 2.7-9.34 5.22 4.3-2.2 6.98-3.76 8.34-4.86.25-.2.44-.4.5-.53.06-.2.1-.36.14-.5.1-.33.12-.52.1-.58-.03-.13-.26.23-.6.9.03-.12-.02-.02-.18.07-.13.1-.3.2-.5.33-.4.24-.87.5-1.37.75-1 .52-2.16 1.07-3.23 1.57l-4 1.82-18.9 8.12-21.16 8.73c-7.86 2.97-12.9 4.74-18 6.33l-.95.28c-.3.08-.84.26-1.23.5-.83.47-1.5 1.2-1.9 2.07s-.58 1.88-.4 2.9l.52 2.28.26 1.1c-.06.01-.1.02-.13 0-1.72.6-2.92 1.1-4.34 1.6-.18 0 .14-.16.55-.3l-1 .35c-.02-.08.57-.24.88-.35-1.25.27-2.46.94-3.92 1.3l-.28.16-.1.02c.01.03-.3.18-.5.26-.22 0-.04-.16-.74.08-.58.12-1.57.55-2.3.83.4-.12.28-.04.12.04-.35.12-.58.12-.84.24l-.06-.08c.17.04-.9.4-1 .47-.22 0 .53-.24.6-.32l-1.7.56c.07-.14.13-.3.2-.48.17-.6.13-1.24-.18-1.77-.28-.55-.98-.87-1.22-1.02-.33-.2-.66-.37-1-.53-1.33-.66-2.67-1.17-4-1.56-.16-.1-.62-.18-.62-.16-1.6-.57-3.2-1.06-4.82-1.5 0 0-1.47-.42-3.44-.8-.98-.2-2.1-.4-3.18-.54l-1.63-.2-.78-.07-.37-.03a4.599 4.599 0 0 0-.43-.02c-.65.02-1.2.27-1.6.58-.4.3-.62.65-.76.94-.27.6-.2.9-.04.77.1-.06.28-.35.65-.65-.18.22-.32.47-.4.73l-.9 3.5c1.36-8.93-1.26-.23-1.26-.23-1.66 5.16-1.97 7.97-3.5 14.24-1.5 5.47-2.14 6.85-3.5 12.56-.73 2.7-1.42 5.6-2.08 8.27-.12 1.3-.9 3.48-1.12 5l-.27.55c-.07.53-.2 1.14-.4 1.64l-.03-.04c-.1.8-.4 1.64-.44 2.03l-.03-.04-.23.93v-.17c-.25 1.36-.6 2.74-.96 3.94l.17-.06c-.42 1.28-.6 2.17-.8 3.03l-.3 1.3c-.15.46-.33 1.38.07 2.24l-.06-.03c.3.54.77.93 1.25 1.16.23.1.5.2.7.23.17.04.33.08.5.1l1.86.46c1.22.28 2.5.54 4.15.4-.4.03.17.08.14.12 1.52.02 3.2-.26 3.17-.56.28-.04.57-.16.72-.2.14-.06.23-.1.3-.1.12-.02.13.03.23.04-.04-.1.77-.7 1.4-1.25-.1.1-.18.2-.28.3.63-.53 1.23-1.08 1.8-1.66l-.5.16c.96-.84.44-.01 1.26-.92l-.15-.13c1.25-1.22 2.16-1.78 3.4-2.95 4.72-5.23 8.94-11.47 13.17-16.43l.3-.14c.25.03.84-1.62 1.14-1.7l.38-.66c.16-.15.46-.48.27-.15.43-.55.4-.6.67-1.03.2-.2.37-.33.6-.57.26-.4.45-.8.55-1.25.8-.33 1.6-.8 2.47-1 .48-.23-.4.27.33-.02.05.08-.34.16-.12.18.73-.26 1.25-.27 2.15-.6l.06.06c1.16-.48 2.3-.57 3.05-.93 1.22-.42.9-.03 2.14-.55l.53-.05c.55-.15.36-.23.98-.37-.02.07.8-.18.45-.02 1.4-.3 2.76-.96 4.63-1.33.36-.23 1.3-.43 1.56-.6.06.04 1.84-.53.84-.12-.1.04-.24.08-.24.06l-.1.1c1.08-.17 1.86-.63 2.9-.9-.3.07-.7.2-.46.06l.96-.27-.18.12.78-.2.26 1.07.37 1.55c.04.14.05.22.1.42.05.18.1.36.18.53.14.35.33.66.55.96.9 1.17 2.3 1.86 3.75 1.83.18-.01.36-.02.54-.05s.4-.07.5-.1l.75-.2 1.5-.42c3.7-1.24 10.28-3.04 14.6-4.57l1.73-.42c1.48-.53 3.24-1.12 4.76-1.55l-.08.06c2.2-.8 4.76-1.56 5.86-1.96l-.08.06 2.7-.9-.45.2 11.44-3.8-.34-.04c7.62-2.33 10.3-3.53 17.17-5.62l-.08.06c8.5-3.24 13.7-4.3 22.46-7.66-1.1.42.5-.1.42-.03 4.07-1.4 8.44-2.9 8.4-3.2 2.98-1.05 2.45-.78 2.88-.82-.06-.1 2.5-1.1 4.76-2.16-.33.2-.68.34-1.03.5 2.16-.98 4.32-2.05 6.26-3.48l-1.3.6c1.6-1.04 1.84-1.1 2.04-1.22s.4-.18 1.77-1.4l-.17-.1c1.96-1.78 3.2-3.48 4.43-5.16.54-.88 1.12-1.75 1.63-2.7.48-.97 1.06-1.98 1.53-3.17l5.54-16.07 2.2 3.57 8.48 12.66 4.25 6.4 2.08 3.22c.65 1.08 1.4 2.17 1.95 3.22l.44.8c.15.26.2.57.33.85.2.57.4 1.14.58 1.76l1.03 3.63 1.86 7.26 3.24 14.1.04.83c-.13.4 1.47 4.94 1.44 5.68l.58 2.1c.1.6.34 1.86.06.82.44 1.96.48 2 .87 3.4l.34 2.13 5.1 22.4 1.77 8.7 1.05 5.06c.1.45.12.76.32 1.46.2.62.6 1.17 1.1 1.57s1.1.65 1.75.73c.62.1 1.36-.07 1.72-.17l3.63-.94c0 .03.01.06.02.1.01.46.25 1.26.4 1.84-.04-.32.01-.22.06-.1.05.28.01.46.08.67l-.1.04c.07-.13.22.72.28.82-.04.17-.14-.43-.2-.5l.3 1.7c.18.6.07-.12.2.15.1.53.27 1.04.32 1.66l.05-.2c.24 1 .33 1.6.37 2.28l.7 2.4c-.44-.15-.86-.18-1.37-.1-.6.12-1.16.47-1.48 1-.16.25-.25.6-.3.84-.04.2-.1.4-.1.58-.06.38-.12.75-.15 1.12-.15 1.48-.16 2.92-.05 4.3-.03.18.05.65.07.64.03 1.7.14 3.37.3 5.05 0 0 .13 1.53.47 3.5.16 1 .37 2.1.63 3.17.13.54.25 1.08.4 1.6l.2.75c.04.14.08.27.1.4.03.2.17.34.25.5.67 1 1.66 1.4 2.28 1.44.65.05.9-.1.73-.2-.1-.1-.43-.16-.86-.42.28.1.56.16.86.16l3.6-.38c-8.84 1.88.23 1.26.23 1.26 5.42-.26 8.16-.97 14.57-1.75 5.65-.53 7.17-.42 13-1.15 2.8-.27 5.76-.65 8.48-.97 1.27-.35 3.58-.38 5.1-.72l.6.06c.52-.12 1.14-.22 1.67-.2l-.03.04c.78-.17 1.67-.2 2.06-.3l-.03.04.96-.12-.16.07c1.36-.24 2.78-.4 4.03-.5l-.12-.13c1.34-.06 2.25-.2 3.13-.32l1.34-.17c.62-.05 1.45-.32 2.07-1v.06c.55-.7.73-1.56.56-2.3zm-247.44-77.17l-.22-.03c-.12-.1-1.17.54-1.37.48l-.5.2c-.15.02-.46.1-.22-.02-.48.14-.48.16-.82.3l-.53.07c-1.9.5-3.46 1.1-5.45 1.67-.86.2-1.96.5-3.15.85-.01-.1-.01-.23-.03-.34a3.243 3.243 0 0 0-.54-1.3l-.58-.78c-.72-1-1.4-2.08-1.93-3.36-.55-1.58-1.26-3.86-1.5-6.28-.24-2.4-.05-4.94.37-6.65.25-1.1.77-2.2 1.6-2.95 2.48-.8 4.34-1.57 7.8-2.75 3.85-1.22 4.9-1.4 8.86-2.76 1.05-.33 2.12-.7 3.18-1.06l4.93 20.86.2.83c-3.43 1.1-6.9 2.22-10.1 3zm205.64 44.4c0 .04-.01.05-.03.01.01-.01.02-.01.03-.01zm.95 10.88l-.1.44c-.1.12-.2.24-.25.35-.16.27-.32.54-.5.8-.67 1.03-1.45 2.03-2.48 2.97-1.3 1.06-3.2 2.5-5.4 3.54-2.17 1.03-4.65 1.7-6.4 1.85-.54.06-1.1.05-1.62-.03-.26-.12-.55-.25-.87-.43-.66-.34-1.4-.78-2.1-1.2-.12-.13-.23-.24-.35-.38-.4-.44-.77-1-1.47-1.5-.04-.62-.13-1.33-.13-1.33-.33-2.96-.84-4.43-1.5-7.9-.15-.9-.24-1.6-.33-2.24l14.76-3.8 5.64-1.46 1-.25c.52 2.28 1.04 4.54 1.35 6.65l-.05.17c-.1.1.38.93.3 1.08l.14.4c0 .12.03.36-.04.17.07.38.1.38.2.65v.42c.03.2.07.37.1.55a7.561 7.561 0 0 0 .1.46c0 .02-.01.04-.01.06zm-1.17-1.76l.01-.03c-.33 0-.53.03-.72.22-.07-.16-.26.04-.35 0v-.02c-.16.17-.42-.02-.58.14 0-.02 0-.06.04-.07-.13.05-.3.13-.34.03-.32.1-.78.15-.95.36l.01-.03c-.1.13-.15.05-.27.13l-.02-.02c-.1.13-.37.1-.46.17v-.06l-.25.07.1-.01c.01.2-.22-.07-.38.1-.18.02-.27.45-.47.4-.07.1.05-.15-.07-.06-.03-.1.05-.07 0-.14-.12.07-.23-.05-.37.05l-.02-.07c-.17.18-.4-.01-.5.15-.2.1-.2-.18-.37.01l-.1-.08c-.1 0-.04.14-.15.1-.01-.06-.14-.02-.1-.1-.26-.04-.44.24-.8.15-.04.14-.2.1-.24.2-.02-.05-.3.06-.16-.1.01-.01.04-.02.04 0v-.08c-.2-.1-.3.15-.48.16.06.01.12-.01.1.05l-.16.03.02-.07-.25.02.05.07c-.13-.01-.2-.13-.3.01-.05.07.13.08.02.13-.17-.02-.42-.04-.63-.02.04.08-.02.1-.07.12l-.02-.07c-.2.15-.1-.14-.3-.02v-.05.16c-.16.2-.14-.13-.3.12.08-.03.08.15-.03.14l.01-.08c-.05.03-.07.06-.1.06.03-.05 0-.1-.1-.08l.04-.1-.13.16c-.14-.05-.3.1-.4 0 0 0-.27.01-.3.13.04-.08-.1-.07-.1-.16-.05.1-.24.2-.34.14h.01c-.32-.02-.5.23-.78.2.03.08-.12.07-.06.17-.25.17-.56-.1-.58.25-.12.05-.17-.04-.24-.05l.03-.02c-.23.08-.3.1-.48.13-.08.05-.06.2-.23.2.04-.07-.02-.05-.08-.03.04-.02.04-.04-.04-.07-.01.02-.02.04-.03.05l-.01-.01c-.1.04-.07.06-.02.06 0 .01.01.02.02.04-.12-.06-.28.07-.32-.03-.3.1-.48.25-.7.34-.04-.05.01-.1.07-.15l-.17.06c-.02-.08.1-.07.14-.1-.24-.08-.4.22-.67.16l-.04.07-.02-.01c.01.03-.04.1-.07.1-.05-.06-.03-.16-.15-.13-.1-.04-.26.1-.38.16.07 0 .06.04.03.07-.06.02-.1-.04-.15-.01l-.03-.1c.04.08-.14.13-.15.17-.05-.06.08-.08.08-.13l-.36.1c-.1.1.04.08 0 .18-.1.04-.2.13-.35.1l.06.07c-.2.1-.33.13-.5.08-1.44 1.02-.13 1-.13 1 .67.04.94-.27 1.67-.5.66-.1.87.02 1.54-.2.33-.06.66-.17.98-.26.12-.16.42-.1.57-.24l.08.05c.05-.05.12-.1.2-.07v.02c.08-.07.2-.06.23-.1v.02l.1-.03-.01.03c.15-.1.3-.13.46-.14l-.03-.08c.33.03.4-.18.7-.13h0c.3-.3.6.03.9-.27-.04.04.03.04.03.06.16-.06.34-.1.3-.28.12-.03.1.03.14.1-.02-.07.08-.13.18-.15l-.04.04.27-.1-.08-.13c.15.01.07.16.2.1l-.03-.1c.2-.02.36.12.58.17.82-.13 1.62-.62 2.42-.58l.05.08c.04.12.17-.23.22-.12l.07-.08c.03.02.1.03.05.07.08-.01.08-.03.13-.1l.1.06c.33-.01.57-.22.9-.27.44.07 1.16-.25 1.58-.43.57-.32 1.4.02 1.98-.34.02.01.07-.04.06-.05l.58-.1c.02-.01 2.82-.6.47-1.16z"/><g fill="#fff"><path d="M69.76 326.03c-.34.96-.57 1.83-.9 3.3l.15-.26c-.3.87-.42 1.65-.6 2.43-.03.44.26-.6.1.3l-.63 2.47c-.02-.12.2-.98.08-.77 0 .16-.32 1.4-.2 1.26l-.1.02c-.05.32-.18.54-.3.95-.03.2-.03.36.1-.1l-.63 2.7c-.2.82-.23.55-.36.76-.05.25-.1.63-.07.64l-.04.1-.03.36c-.55 1.63-.7 3.2-1.18 4.57.08-.37.3-1.03.2-1.06l-.3 1.2c.1-.5.16-.9.06-.72l-1.1 5.18c-.13.06-.37 1.32-.62 2 .04-.1.06-.1.07-.1.1-.3.14-.42-.01.25 0-.01-.01.01-.02.01-.02.1-.04.23-.04.3-.18.5-.18.43-.12.17-.1.4-.2.84-.18.48-.32 1.06-.2 1.2-.3 1.8l-.83 3.28.04-.2c-.13.44-.27.57-.48 1.44.15.77-.58 2.24-.96 4.16.17-.2-.13.74-.02.68-.58 1.8-.76 3.3-1.37 5.3l.02-.1c-.22.53-.52 1.92-.57 2.4-.01-.3-.3.68-.26.3 0 .44-.52 2.23-.52 2.23-.2.32-.44 1.67-.73 2.48l-.15 1.12.01-.4c-.14.58-.23.67-.2.43-.07.25-.1.43-.13.7-.02-.05-.04-.1-.05-.15-.07.28 0 .48.05.54.06.06.07.01.05-.2.15.5.25.55.3.68.06.1.1.27.56.35l.16-.05.07.02.17-.03-.12.02c.65.12.8.17.92.24.06.03.12.07.26.1.07.02.16.03.28.05.1.02.33.05.3.03l.02.08c.05 0 .1.01.12 0 0-.04-.01-.08-.05-.1l1.12-3.5c.2-.85-.15.3-.1-.12.14-.93.35-1.18.6-1.97l-.14.2.48-1.62v.24l.3-1.1c.04-.32-.08.14-.2.5.34-1.17.4-2.2.87-3.36l.03.16c-.02-.02-.07.16-.1.27-.2 1.2.3-.85.38-.9 0-.36.36-1.4.37-1.88.74-2.05.95-3.75 1.5-5.3-.05.43.2-.5.24-.45.24-.7.06-.55.24-1.17l.26-.55c.27-1.52.4-.97.74-2.4.13-.95.7-2.1.93-3.52l.08-.02c.23-1.07.52-1.58.7-2.45.14-.2-.02.22.08.22.18-.9.1.27.17-.34.42-1.2.36-2.52.7-3.7.23-1.3.82-2.3.7-2.57l-.2.64.46-1.74.08-.03.83-3.26c0 .01.03-.05.05-.1.2-.9.35-1.12.46-1.95v.1c.23-1.45 1.12-4.5 1.7-6.7.12-.04.42-1.3.65-2.23-.08.3-.04.33-.04.38.23-1.3.85-2.6 1.08-3.95v.05c.2-.5.46-2.05.7-2.24l.5-2.26.17-.6.08-.27c0-.03.07-.1.01-.1l-.13-.03-.14-.04c-.12-.02-.24-.05-.36-.08l.1-.01c-2.54-1.14-3.77-.4-4.35.2-.15.2-.27.42-.34.64l-.74 2.85-.44 2.42zm16.8-2.73c-.3.46-.5.5-.74 1-.16.2-.28.47-.42.68.03.17-.2.27-.2.45h-.1c0 .06-.02.12-.08.13l-.01-.02c-.01.1-.08.14-.1.18v-.02l-.05.08-.01-.03a.525.525 0 0 1-.23.31l.07.05c-.25.12-.18.3-.42.4h-.01c-.05.36-.43.2-.5.56.01-.04-.04-.02-.05-.04-.1.1-.2.2-.1.34-.08.06-.1.01-.15-.03.05.06 0 .14-.06.2v-.05l-.16.16.12.1c-.12.04-.13-.12-.2-.03l.07.1c-.15.08-.33-.01-.5.01-.56.3-1.05.92-1.7.95l-.06-.07c-.06-.12-.1.24-.15.14l-.05.08c-.03-.01-.07-.02-.05-.06-.06.02-.06.04-.1.1l-.1-.05c-.27.01-.42.25-.7.27-.36-.07-.92.2-1.27.33-.5.27-1.1-.2-1.6.01-.02-.02-.06.02-.06.04a3.708 3.708 0 0 1-.47-.03s-.57-.04-.93.03c-.34.06-.6.3.3.95l-.02.03c.27.1.46.12.65-.02.02.17.23.03.3.08h0c.17-.13.35.1.52-.01-.01.01-.01.06-.05.07.12-.03.28-.07.3.03.3-.03.7-.03.86-.2l-.01.03c.1-.12.13-.03.24-.1l.02.02c.1-.12.33-.06.4-.12v.06l.22-.06h-.1c0-.2.2.08.33-.07.16 0 .22-.44.4-.4.05-.1-.03.15.06.06.03.1-.04.07.01.14.1-.07.2.05.32-.05l.03.07c.13-.18.35-.01.43-.17.16-.12.2.17.33-.03l.1.07c.08-.02.01-.14.12-.13.02.06.13 0 .1.08.24.01.35-.28.67-.26 0-.14.16-.13.16-.24.03.05.26-.12.17.06-.01.01-.03.02-.04 0l.02.07c.2.05.23-.2.37-.26-.05 0-.1.04-.1-.03l.13-.07v.07l.2-.08-.07-.05c.1-.02.2.07.26-.08.01-.08-.14-.04-.06-.1.15-.02.37-.1.53-.17-.06-.06-.02-.1.01-.13l.05.06c.1-.2.15.1.26-.1l.02.05-.05-.15c.05-.22.17.07.2-.2-.05.06-.13-.1-.04-.14l.03.07c.03-.04.02-.08.06-.1 0 .05.05.1.1.03l.02.1.03-.2c.14-.01.2-.2.3-.15 0 0 .2-.13.17-.25.01.08.13.01.15.1-.01-.1.08-.27.2-.26v.02c.26-.13.24-.4.48-.52-.07-.05.05-.1-.05-.16.08-.25.47-.2.26-.5.06-.1.15-.05.2-.08v.03c.12-.18.14-.23.24-.35.02-.08-.1-.2.01-.27.02.07.05.02.08-.02-.01.03 0 .05.08.02-.01-.02-.01-.04-.01-.06 0 0 .01 0 .01.01.03-.08.01-.08-.02-.05-.01-.01-.02-.01-.04-.01.12-.03.14-.2.23-.16.13-.23.14-.45.2-.65.06.01.08.08.06.14l.06-.14c.07.04-.01.1-.02.15.2-.1.1-.4.3-.5l-.03-.07h.02c-.03-.02-.05-.08-.04-.1.08.01.14.08.2-.01.1-.04.1-.23.1-.34-.04.05-.06.01-.07-.02.02-.05.1-.04.1-.1l.1.04c-.1-.02-.02-.17-.05-.2.08 0 .02.1.06.14l.13-.3c-.02-.13-.1-.02-.14-.1.03-.1.01-.2.1-.3h-.1c.01-.2.07-.3.2-.37-.06-.77-.3-.9-.45-.84-.16.02-.3.24-.3.24-.35.37-.23.7-.45 1.28zm2.24 31.58c-.18-.26-.12-.44-.4-.64-.1-.13-.24-.23-.35-.33-.14.03-.14-.15-.27-.14l.03-.07c-.05 0-.1-.01-.08-.06l.02-.01c-.07 0-.08-.06-.1-.05l.02-.01-.04-.03.03-.01a.252.252 0 0 1-.18-.15l-.06.06c-.03-.18-.2-.1-.2-.28l.02-.01c-.3.03-.07-.3-.35-.3.03 0 .03-.04.04-.05-.07-.04-.14-.1-.27.01-.04-.05.01-.07.05-.12-.06.05-.1.03-.15 0h.04l-.1-.08-.1.1c-.02-.08.12-.13.05-.16l-.1.08c-.05-.1.05-.25.05-.38-.23-.32-.73-.44-.82-.85l.05-.07c.1-.1-.2.05-.13-.04h-.07c.01-.02.01-.06.05-.06-.02-.03-.04-.02-.1-.01l.03-.08c-.06-.16-.26-.15-.35-.3-.01-.25-.37-.43-.57-.53-.34-.1-.2-.7-.56-.77.01-.02-.04-.01-.05 0l-.17-.22s-.87-1.04-.97.44h-.03c.05.16.1.24.28.22-.12.13.07.1.05.17h-.01c.16-.02.05.22.2.2-.01.01-.05.04-.07.02.06.03.15.07.08.15.12.1.24.3.42.26h-.03c.12-.03.06.04.15.05-.01.01-.01.02-.01.02.12-.03.13.12.2.13l-.05.05.1.08-.02-.04c.15-.1-.02.15.13.13.04.08.4-.13.4 0 .1-.03-.13.07-.04.07-.07.07-.06.02-.1.08.07.02-.01.14.1.15l-.05.05c.17-.02.05.2.2.17.1.03-.12.2.06.18l-.05.1c.02.04.1-.06.1.01-.05.04 0 .08-.06.1 0 .15.26.08.23.3.1-.06.1.05.2 0-.04.04.1.12-.05.13-.01 0-.02-.01 0-.02l-.06.04c-.05.16.16.06.2.14 0-.03-.03-.06.03-.07l.05.06-.06.03.05.1.05-.06c.01.07-.07.17.05.15.06-.02.04-.1.1-.08.01.1.03.23.08.32.06-.06.07-.04.1-.03l-.05.05c.15.01-.1.14.03.16l-.04.03.13-.08c.17-.03-.08.14.14.08-.04-.02.1-.12.12-.07l-.06.04c.03.01.06 0 .06.02-.04.01-.08.06-.05.1l-.1.04.15-.03c-.02.1.12.1.06.2 0 0 .05.13.15.08-.07.03-.04.1-.1.14.08-.03.2 0 .16.1h-.01c.03.16.25.1.26.27.06-.06.07.02.14-.07.17.03 0 .33.28.14.05.03-.01.1 0 .14h-.02c.1.07.12.1.17.16.05.01.18-.1.2-.01-.06.02-.03.04-.01.06-.02-.01-.04 0-.05.06.02-.01.03-.01.05-.01l-.01.01c.05.02.06 0 .05-.02.01-.01.02-.02.02-.03-.03.1.1.1.02.18.1.1.27.1.38.15-.03.05-.1.06-.13.05l.07.05c-.06.05-.07-.01-.1-.01-.03.16.24.07.23.23l.06-.02v.01c.02-.02.08-.03.1-.03-.04.06-.12.1-.08.15-.02.08.1.07.18.1-.01-.03.02-.05.05-.06.02.02-.02.08.02.08l-.07.07c.06-.07.12-.01.16-.03-.04.06-.08.01-.12.04l.13.12c.1 0 .06-.07.14-.1.05.03.14.02.14.1l.05-.07c.12.03.15.1.14.2 1.02.12.8-.5.8-.5-.1-.37-.38-.32-.67-.55zm-4.17 5.42c-.18-.26-.12-.43-.4-.63-.1-.12-.24-.22-.35-.32-.14.03-.14-.15-.27-.14l.03-.07c-.05 0-.1-.01-.08-.05l.02-.01c-.07 0-.08-.05-.1-.05l.02-.01-.04-.03.03-.01c-.1-.02-.15-.07-.18-.14l-.06.06c-.03-.18-.2-.1-.2-.27l.02-.01c-.28.03-.07-.3-.35-.3.03 0 .03-.04.04-.05-.07-.04-.14-.1-.27.02-.04-.05.01-.07.05-.12-.05.05-.1.03-.15 0h.04l-.1-.08-.1.1c-.02-.08.1-.13.04-.16l-.1.08c-.05-.1.04-.25.04-.38-.23-.32-.73-.43-.82-.83l.05-.07c.1-.1-.2.06-.13-.04h-.07c.01-.02.01-.06.05-.06-.02-.03-.04-.02-.1-.01l.03-.08c-.06-.16-.26-.15-.35-.3-.01-.25-.37-.42-.58-.52-.34-.1-.2-.7-.57-.76.01-.02-.04-.01-.05 0l-.17-.22s-.88-1.02-.97.45h-.03c.05.16.1.24.28.22-.12.13.07.1.05.17h-.01c.16-.02.05.22.2.2-.01.01-.05.04-.06.02.06.03.15.07.08.14.12.1.24.3.42.25l-.03.01c.12-.03.06.04.15.05-.01.01-.01.02-.01.02.12-.03.13.12.2.13l-.05.05.1.08-.02-.04c.15-.1-.02.15.13.13.04.08.4-.13.4-.01.1-.03-.13.07-.04.07-.07.07-.06.02-.1.08.07.01 0 .14.1.15l-.05.05c.17-.02.05.2.2.16.1.03-.12.2.06.18l-.05.1c.02.04.1-.06.1.01-.05.04.01.08-.06.1 0 .15.26.07.24.3.1-.06.1.04.2 0-.04.04.1.12-.05.13-.01 0-.02-.01 0-.02l-.06.04c-.04.16.16.06.2.14 0-.03-.03-.05.03-.07l.05.06-.06.03.05.1.05-.06c.01.07-.07.17.05.14.06-.02.04-.1.1-.08.01.1.03.23.08.3.06-.07.07-.04.1-.04l-.05.05c.15.01-.1.14.03.16l-.04.03.13-.1c.17-.03-.08.14.14.08-.04-.02.1-.13.12-.07l-.06.04c.03.01.06 0 .06.02-.04.01-.08.06-.05.1l-.08.04.15-.03c-.02.1.12.1.06.2 0 0 .05.13.15.07-.07.03-.04.1-.1.14.08-.03.2 0 .16.08h-.01c.04.16.25.1.26.27.06-.06.07.02.14-.07.17.02 0 .33.28.14.05.03-.01.1 0 .14h-.02c.1.06.12.1.17.15.05.01.17-.1.2-.01-.06.02-.03.04-.01.06-.02-.01-.04.01-.05.06.02-.01.03-.01.04-.01l-.01.01c.05.02.06 0 .05-.02.01-.01.02-.02.02-.03-.03.1.1.1.02.17.1.1.27.1.38.15-.03.05-.1.06-.13.05l.07.05c-.06.05-.07 0-.1-.01-.03.16.24.06.23.23l.06-.03v.01c.02-.02.08-.03.1-.03-.04.06-.12.1-.08.15-.02.08.1.07.18.1-.01-.03.02-.05.05-.06.02.02-.02.08.02.08l-.07.07c.06-.07.12-.01.16-.03-.04.06-.07.01-.12.04l.13.12c.1 0 .06-.07.14-.1.05.03.14.02.14.1l.05-.07c.12.03.15.08.14.2 1.02.1.8-.5.8-.5-.07-.35-.35-.3-.64-.52z"/><path d="M350.53 425.7c-.04-.04-.1-.12-.13-.2l-.07-.12c.02.04.05.08.07.12-.15-.72-.13-.86-.1-1 .01-.07.02-.14.01-.3l-.04-.28-.03-.17c-.01-.02-.02-.04-.02-.06l.07-.05c0-.14-.12-.1-.14-.01l-3.7.18c-.87.1.34.04-.08.13-.92.2-1.22.1-2.05.13l.24.06-1.7.12.23-.08-1.13.1c-.32.08.16.03.53.02-1.22.1-2.2.4-3.45.37l.14-.1c-.01.02.17.01.28-.01 1.2-.23-.9.01-.97-.04-.34.12-1.44.15-1.9.32-2.17.03-3.84.42-5.5.47.42-.1-.54 0-.5-.07-.73.02-.53.14-1.2.18l-.6-.05c-1.5.28-1.06-.04-2.52.15-.93.22-2.22.1-3.63.36l-.05-.07c-1.08.16-1.66.07-2.54.2-.24-.06.2-.06.18-.15-.9.15.22-.18-.38-.04-1.27.03-2.48.54-3.7.63-1.3.24-2.44.04-2.65.24l.67-.05-1.8.18-.05-.06-3.35.37c.01-.01-.06-.01-.1-.02-.92.14-1.17.07-2 .25l.1-.04c-1.43.3-4.6.53-6.85.76-.08-.1-1.37.06-2.32.17.3-.03.32-.08.37-.1-1.3.24-2.74.12-4.08.38l.05-.02c-.52-.01-2.08.3-2.34.14l-2.3.32-.63.06-.25.01c-.14-.03-.06.1-.07.18v.15l.06.4-.04-.1.24 2.38c.1.57.5.98.85 1.23a4.125 4.125 0 0 0 .7.4c.22.06.44.1.65.1l2.93-.3 2.4-.42c1.02-.02 1.9-.1 3.4-.33l-.3-.05c.92-.04 1.7-.2 2.48-.3.42-.13-.64-.03.25-.2l2.53-.28c-.1.06-1 .15-.75.2.15-.05 1.42-.2 1.24-.27l.05.1c.32-.06.57-.02 1-.07.2-.05.35-.1-.12-.06l2.76-.36c.84-.1.6.02.84.07.25-.04.63-.12.62-.16h.1l.35-.1c1.7-.06 3.23-.48 4.7-.5-.37.06-1.07.1-1.07.18l1.22-.15c-.5.07-.9.17-.7.2l5.24-.74c.1.1 1.36-.12 2.08-.12-.1-.01-.13-.02-.1-.03-.32.03-.44.02.24-.08-.01.01.01.01.02.01l.3-.07c.54-.02.47.02.2.05.4-.04.86-.1.5 0 1.1-.08 1.18-.25 1.8-.35l3.36-.38-.2.04c.46-.03.63.05 1.5-.06.67-.42 2.3-.25 4.23-.57-.26-.08.74-.14.65-.22 1.9-.1 3.35-.45 5.45-.6l-.1.02c.57.02 1.98-.2 2.45-.32-.28.1.74.03.37.14.4-.16 2.26-.3 2.26-.3.36.06 1.7-.18 2.58-.2l1.1-.25-.4.13c.6-.07.7-.02.47.04.27-.02.43-.04.7-.13l-.1.1c.28-.05.44-.2.47-.26.04-.07-.03-.07-.2.03.4-.33.44-.47.55-.55.1-.06.25-.18.15-.6zm-60.45-6.4c.25.07.53.1.8.15.15-.1.32.1.5.03l.03.1c.06-.02.12-.02.16.03l-.01.02c.1-.03.16.03.2.02l-.01.02.1.02h-.02c.14-.01.27.03.37.1l.02-.08c.2.2.35.05.52.25v.02c.36-.08.34.34.7.28-.04.01-.01.05-.02.06.13.05.26.1.35-.04.1.05.04.1.02.15.04-.06.13-.05.2-.01l-.05.01c.07.03.14.06.2.1l.04-.14c.08.1-.07.16.04.2l.06-.1c.13.1.1.32.18.47.5.4 1.23.66 1.5 1.27l-.05.08c-.1.1.25 0 .18.1l.1.01c0 .03.01.08-.04.07.04.05.06.04.12.05v.1c.1.24.38.3.5.56.06.36.5.8.75 1.07.42.36.2 1.1.58 1.5-.01.02.04.05.06.04l.14.45s.16.54.35.86c.18.3.5.45.8-.6l.03.01c-.01-.3-.05-.47-.24-.6.15-.08-.05-.23-.03-.3h.02c-.2-.1-.02-.37-.2-.48.02 0 .06-.01.08.02-.07-.1-.17-.24-.08-.3-.13-.26-.27-.64-.5-.74h.03c-.15-.04-.08-.1-.18-.2.01-.01.01-.02.02-.02-.15-.05-.17-.3-.26-.34l.05-.04-.13-.2.03.08c-.17.07.01-.2-.18-.3-.06-.15-.5-.05-.5-.23-.1-.01.15-.02.03-.08.08-.06.08.01.13-.06-.1-.07-.02-.2-.15-.28l.06-.05c-.22-.06-.13-.33-.3-.34-.16-.1.1-.24-.14-.3l.03-.12c-.04-.07-.13.04-.16-.06.05-.04-.04-.12.04-.12-.07-.22-.38-.23-.47-.53-.13.05-.18-.1-.28-.07.03-.04-.2-.2 0-.18.02 0 .03.02.02.03l.06-.04c-.02-.22-.26-.15-.37-.26.02.05.07.08.01.1l-.1-.1.06-.03-.15-.17-.02.08c-.06-.1-.01-.22-.17-.22-.08.01.02.15-.1.1-.08-.14-.2-.3-.35-.44-.03.08-.07.05-.12.04l.04-.07c-.22-.02.03-.18-.17-.22l-.08.07c-.22.03 0-.18-.27-.1.07.03-.05.16-.12.08l.06-.05c-.05-.01-.08 0-.1-.03.05-.02.07-.08 0-.1l.1-.05-.2.04c-.06-.12-.26-.13-.25-.24 0 0-.2-.15-.3-.08.07-.04-.03-.12.04-.18-.1.04-.28.02-.3-.1h.02c-.2-.2-.47-.08-.65-.27-.02.08-.12-.01-.13.1-.27.01-.35-.37-.55-.08-.1-.02-.1-.12-.15-.16l.03-.01c-.2-.05-.27-.05-.42-.1-.08.01-.14.16-.26.08.06-.05 0-.05-.05-.07.03 0 .05-.02 0-.08-.01.02-.03.02-.05.03h0c-.1 0-.08.02-.04.04v.04c-.07-.1-.24-.05-.23-.16-.26-.04-.47.03-.68.03-.01-.06.05-.1.1-.1l-.15-.01c.02-.08.1-.03.15-.03-.16-.16-.4.05-.58-.1l-.05.06-.01-.01c0 .03-.06.07-.1.08-.02-.07.03-.16-.08-.17-.07-.08-.24 0-.36.02.06.02.03.06 0 .08-.05 0-.07-.08-.12-.05v-.1c.01.1-.15.08-.17.1-.02-.07.1-.05.1-.1h-.32c-.12.06.01.1-.05.17-.1.01-.2.07-.3 0l.03.1c-.2.06-.3.04-.42-.05-.7.32-.73.58-.63.72.08.14.33.2.33.2.5.2.76-.03 1.38-.03.46.17.57.36 1.12.4z"/><path d="M294.73 419.55h0l.04-.04zm20.32-6.3l.02.02c.13-.1.2-.18.1-.34.16.07.07-.1.14-.1l.01.01c-.07-.14.2-.12.12-.25.01.01.05.03.04.05.01-.07.02-.17.1-.12.05-.15.2-.32.1-.5v.02c-.07-.1.02-.07 0-.16.01 0 .02 0 .03.01-.07-.1.07-.17.05-.23l.06.03.04-.12-.03.03c-.16-.1.15-.03.08-.16.06-.06-.26-.33-.14-.36-.06-.08.1.1.08.01.1.04.04.05.1.07-.01-.08.13-.04.1-.14l.07.03c-.08-.15.17-.12.1-.24-.01-.12.23.04.15-.12h.1c.04-.03-.1-.1-.03-.1.06.03.07-.03.1.02.14-.05-.02-.27.2-.32-.1-.1.01-.12-.07-.18.05.02.08-.13.14 0 .01.01 0 .02-.02.01l.06.04c.16-.01 0-.17.06-.24-.03.01-.04.04-.08 0l.04-.06.05.04.1-.1H317c.06-.03.2.01.12-.1-.04-.05-.12 0-.1-.06.08-.04.2-.1.27-.18-.08-.03-.07-.05-.07-.1l.07.03c-.04-.14.16.04.14-.1l.04.03-.13-.1c-.1-.15.16.03.03-.16-.01.04-.16-.06-.1-.1l.06.04c0-.03-.02-.05 0-.06.03.03.1.06.1.01l.07.07-.08-.13c.1-.02.05-.15.16-.12 0 0 .1-.1.02-.17.05.05.1 0 .17.06-.05-.07-.07-.18.03-.18h0c.14-.1.01-.27.16-.34-.08-.03-.01-.07-.1-.1-.04-.17.3-.1.03-.32.01-.06.1-.03.14-.05h.01c.03-.1.04-.15.1-.22-.01-.05-.15-.13-.08-.18.04.05.05.02.06-.01 0 .02.02.04.07.02-.02-.01-.02-.03-.03-.04 0 0 .01 0 .01.01 0-.05-.02-.05-.04-.04-.01-.01-.02-.01-.04-.01.1-.01.06-.12.16-.08.04-.14-.01-.28.01-.4.06.01.1.06.1.1l.02-.08c.07.04.02.06.02.1.16-.03-.02-.24.14-.3l-.05-.05h.01c-.03-.02-.06-.06-.06-.08.07.02.14.08.17.02.08-.01.03-.13.03-.2-.03.02-.06 0-.07-.03.01-.03.08-.01.06-.04l.1.04c-.08-.03-.05-.1-.08-.14.07.02.03.07.08.1l.07-.16c-.03-.1-.08-.03-.14-.1.01-.06-.02-.14.05-.17l-.08-.02c-.01-.12.03-.17.14-.2-.25-1-.75-.58-.75-.58-.3.18-.16.44-.27.8-.18.26-.37.26-.46.6-.08.13-.13.3-.18.44.08.12-.1.18-.04.3H317c.02.04.02.1-.02.1v-.01c.03.06-.02.1-.01.13h-.02l-.02.05-.02-.02c.02.1-.02.17-.07.22l.08.04c-.16.1-.02.22-.2.3v-.01c.12.26-.26.17-.15.43-.01-.03-.04-.01-.06-.02-.02.08-.04.17.1.25-.03.05-.07.02-.13-.01.07.03.07.1.05.14l-.02-.03-.04.13.14.04c-.07.04-.16-.06-.16.01l.1.05c-.07.08-.25.04-.37.1-.23.32-.15.84-.5 1.06l-.1-.03c-.12-.05.12.18.01.13l.03.06c-.03 0-.06.01-.08-.02-.02.03 0 .04.02.1h-.1c-.13.1-.05.3-.15.43-.24.1-.27.5-.3.72.03.35-.58.42-.53.8-.02 0 0 .04.02.05l-.15.24c.02.03-.65 1.2.77.78zm8.95-1.93h0l.05.03z"/><path d="M321.68 415.27l.02.02c.13-.1.2-.18.1-.34.16.06.07-.1.14-.1l.01.01c-.08-.14.2-.12.12-.25.01.01.05.03.05.05.01-.07.02-.16.1-.12.05-.15.2-.32.1-.5l.02.02c-.07-.1.02-.07 0-.15.01 0 .02 0 .03.01-.07-.1.07-.17.05-.23l.06.03.04-.12-.03.03c-.16-.1.14-.03.08-.16.06-.06-.26-.32-.14-.36-.06-.08.1.1.08.01.1.04.04.05.12.07-.01-.07.13-.04.1-.14l.07.03c-.08-.15.17-.12.08-.24-.01-.12.23.04.15-.12l.1.01c.04-.03-.1-.08-.03-.1.06.03.07-.03.1.02.14-.06-.02-.27.2-.32-.1-.08 0-.12-.07-.18.05.02.08-.13.14 0 .01.01 0 .02-.02.01l.06.04c.16-.01 0-.17.06-.24-.03.01-.04.04-.08 0l.04-.07.05.04.08-.1-.08-.02c.06-.03.2.01.12-.1-.04-.05-.12 0-.1-.06.08-.04.2-.1.27-.2-.08-.03-.07-.05-.07-.08l.07.03c-.05-.14.16.04.14-.1l-.08-.06c-.1-.15.16.03.03-.16-.01.04-.16-.06-.1-.1l.06.04c0-.03-.02-.05 0-.06.03.03.1.06.1.01l.07.07-.08-.13c.1-.02.05-.15.15-.12 0 0 .1-.1.02-.17.05.05.1 0 .17.06-.05-.06-.07-.18.02-.18h0c.14-.1.01-.27.16-.34-.08-.03-.01-.07-.1-.1-.04-.17.3-.12.03-.3.01-.06.1-.03.13-.05v.02c.03-.1.04-.15.08-.22-.01-.05-.15-.13-.08-.18.05.05.05.02.06-.01 0 .02.02.04.07.02-.02-.01-.02-.03-.03-.04 0 0 .01 0 .01.01 0-.05-.02-.05-.04-.04-.01-.01-.02-.01-.04-.01.1-.01.06-.12.16-.08.04-.14-.01-.28 0-.4.06.01.1.06.1.1v-.08c.07.04.02.06.02.1.16-.03-.02-.24.14-.3l-.05-.05h.01c-.03-.01-.06-.06-.06-.08.07.02.14.07.17.02.08-.01.03-.13.02-.2-.03.02-.06 0-.07-.03.01-.03.08-.01.06-.04l.1.04c-.08-.03-.05-.1-.08-.14.07.02.03.07.08.1l.07-.16c-.04-.1-.08-.03-.15-.1.01-.06-.03-.13.05-.17l-.08-.02c-.01-.12.02-.17.13-.2-.26-1-.76-.57-.76-.57-.3.2-.15.44-.26.8-.18.26-.36.26-.45.6-.08.13-.12.3-.18.44.08.12-.1.18-.03.3h-.08c.02.04.03.08-.02.1l-.02-.01c.03.06-.02.1-.01.13l-.02-.01-.02.05h-.02c.02.1-.02.17-.07.22l.08.03c-.15.1-.02.22-.18.3l-.02-.01c.13.26-.26.17-.15.43-.01-.03-.04-.01-.06-.02-.01.08-.04.17.1.25-.03.05-.07.02-.13 0 .07.03.07.1.05.14l-.02-.03-.04.13.14.04c-.07.04-.16-.06-.16.01l.1.05c-.06.08-.25.05-.37.1-.22.33-.14.83-.5 1.06l-.1-.03c-.12-.05.12.18.01.13l.03.06c-.03 0-.06.01-.08-.02-.02.03 0 .04.02.1h-.1c-.13.1-.05.3-.15.43-.23.1-.27.5-.28.72.04.35-.58.43-.52.8-.02 0 0 .04.02.05l-.14.24c0-.01-.65 1.17.76.74zm-201.16-96.84c.26 1.2.18 1.56.56 2.78l.5 1.8c.2.24.2.76.38 1.06l-.04.14c.06.1.12.23.1.35H122c.1.15.1.35.16.43h-.02l.06.2-.04-.03c.13.28.2.58.25.85l.08-.04c.05.6.28.75.3 1.3h-.02c.4.6.1 1.06.5 1.67-.05-.08-.03.05-.06.04.1.3.2.62.36.6.05.22-.01.2-.06.24.07-.02.15.17.2.34l-.05-.07.15.5.1-.13c.03.27-.15.1-.05.35l.1-.03c.07.37-.05.63-.04 1 .32 1.48 1 3 1.16 4.4l-.07.08c-.12.06.28.33.18.4l.1.14c-.01.05-.01.15-.06.08.03.15.05.15.12.24l-.04.18c.1.6.36 1.05.5 1.67.03.77.52 2.12.8 2.9.47 1.07.3 2.5.8 3.6-.01.04.06.13.07.12l.25 1.05s1.24 5.1 1.3.97h.03c-.08-.6-.16-.96-.4-1.32.15-.1-.1-.48-.08-.62l.02.01c-.22-.32-.08-.75-.28-1.06.02.01.06.01.1.08-.08-.24-.2-.57-.1-.6-.17-.58-.34-1.4-.6-1.75l.03.02c-.16-.2-.1-.27-.2-.5.01-.02.01-.03.02-.03-.16-.2-.2-.68-.28-.86l.06-.03-.13-.46.03.18c-.2-.02.02-.38-.18-.7-.06-.32-.53-.55-.53-.9-.12-.14.17.1.05-.1.1-.03.1.1.14.02-.1-.22 0-.4-.13-.67l.07-.03c-.23-.34-.08-.72-.27-.94-.16-.37.15-.3-.1-.67l.06-.18c-.03-.17-.15-.1-.15-.3.06 0-.01-.25.08-.15-.01-.45-.36-.83-.33-1.43-.15-.1-.15-.4-.26-.46.05-.03-.13-.57.06-.28.02.02.03.07.01.08l.08.02c.05-.35-.22-.56-.28-.9 0 .1.04.22-.03.15l-.06-.3.08.05-.08-.45-.06.08c-.02-.22.1-.33-.08-.55-.1-.1-.05.23-.13.01l-.13-1.12c-.07.06-.1-.04-.14-.14l.07-.03c-.2-.36.12-.18-.05-.55l.06.02-.18-.06c-.23-.3.1-.23-.2-.56.05.15-.14.1-.16-.08l.08.03c-.04-.1-.08-.13-.08-.2.05.05.1.01.06-.14l.1.08-.2-.26c.02-.24-.17-.57-.1-.7 0 0-.07-.5-.2-.58.1.08.05-.2.15-.14-.1-.1-.26-.46-.22-.63l.02.03c-.06-.57-.35-.9-.37-1.42-.08.04-.1-.23-.2-.14-.23-.48-.01-.98-.4-1.08-.08-.23.01-.3 0-.42l.03.05c-.14-.42-.17-.55-.24-.87-.07-.15-.23-.14-.27-.43.08.08.04-.04.02-.14.03.07.05.08.06-.07-.02-.01-.04-.04-.06-.07l.01-.01c-.07-.17-.08-.14-.07-.05-.01 0-.02.01-.03.04.03-.2-.14-.52-.04-.56-.16-.53-.37-.9-.52-1.32.04-.06.12.03.17.15l-.1-.3c.08-.02.1.17.13.26.03-.4-.32-.75-.32-1.22l-.08-.08v-.03c-.03.01-.1-.08-.13-.14.05-.08.16-.04.1-.25.02-.2-.16-.48-.25-.7.02.13-.03.1-.07.05-.03-.1.02-.2-.03-.27l.1-.03c-.08.07-.17-.26-.2-.3.05-.08.1.16.16.17l-.18-.66c-.13-.22-.08.06-.18-.03-.07-.2-.2-.4-.2-.64l-.06.1c-.16-.37-.2-.6-.2-.9-1.4-2.73-1.06-.38-1.06-.38.07 1.18.45 1.7.86 3.05zm91.4-91.4c-1.16 5.54-1.62 6.97-2.72 12.73l-1.66 8.35c-.14 1.3-.72 3.52-.93 5.04l-.2.57c-.07.53-.17 1.14-.32 1.65v-.04c-.1.78-.32 1.65-.37 2.04l-.01-.04-.2.94v-.17c-.22 1.36-.5 2.75-.8 3.97l.1-.08c-.65 2.6-.67 3.6-1.3 5.93l-.01-.04c-.4 3.03-1.16 4.68-1.62 7.8.06-.4-.08.15-.1.12-.28 1.42-.62 2.93-.45 3-.24 1.03-.24.83-.34.94.07.01-.1.9-.28 1.7l.06-.38-.52 2.3.25-.42c-.34 1.2-.24.27-.5 1.44l.12.01c-.45 1.68-.87 2.57-1.5 4.14-.56 1.65-1.1 3.32-1.9 4.82s-2 2.73-3.43 3.7c-1.42.98-2.98 1.8-4.53 2.5-1.55.73-3.1 1.36-4.62 1.9l-.3.02c-.16-.08-1.6.82-1.87.8l-.68.32c-.2.05-.63.2-.3.03-.65.24-.66.26-1.12.48l-.73.18c-2.6.9-4.75 1.83-7.48 2.78-3.33 1-9.46 3.32-13 4.63-4.95 1.92-10.95 3.43-16.02 5.38-.17.04-.6.23-.58.24l-4.7 1.58-9.2 3.22c-3.5 1.3-4.8 2 4.05-.4l-.1.07c2.6-.8 4.23-1.34 5.96-2.07.34.07 2.12-.7 2.74-.85l-.05.03c1.53-.66 3.27-1 4.75-1.62-.05.03-.07.1-.42.2 1.1-.4 2.6-.95 2.7-.88 2.63-.92 6.32-2.14 7.95-2.87l-.1.07c.93-.43 1.24-.44 2.3-.87.06-.01.14-.03.13-.02 1-.46 3.05-1.07 3.88-1.4l.08.04 2.08-.74-.78.26c.2-.27 1.6-.44 3.08-1.08 1.42-.47 2.74-1.37 4.23-1.8.67-.33-.57.35.45-.08.07.08-.47.23-.17.2 1-.4 1.72-.5 2.96-1.02l.08.05c1.6-.72 3.14-1.02 4.2-1.55 1.67-.68 1.2-.2 2.93-1l.72-.17c.76-.27.5-.32 1.35-.6-.03.08 1.07-.36.6-.1 1.93-.65 3.78-1.65 6.26-2.66.47-.37 1.72-.9 2.05-1.22.04 0 .64-.32 1.06-.57.4-.25.66-.4.04.07-.1.08-.3.2-.3.17l-.12.15c1.4-.7 2.37-1.6 3.5-2.73-.33.34-.8.74-.52.43.35-.34.7-.7 1-1.07l-.14.28.7-.86c.2-.3.42-.6.6-.93a2.284 2.284 0 0 1-.22.22c.55-.9.84-1.2 1.18-2.34.14-.52-.45.88-.08-.15.54-1.3 1.28-3.16 1.8-4.85-.13.13.01-.32.12-.8l.1-.03c.38-1.83.33-.62.7-2.42v.17l-.04-.5c.25-1.64.37-.83.58-2.67-.15.7-.24.3-.01-.57l.02.24c.1-.48.1-.65.2-.97-.03.3.07.17.22-.54l-.02.5.18-1.37c.3-1.02.57-2.68.76-3.08 0 0 .54-2.2.54-2.75-.03.46.26-.76.26-.4.05-.6.35-2.3.58-2.98l-.02.13c.63-2.5.8-4.34 1.38-6.58-.1.1.2-1.1.02-.83.4-2.37 1.1-4.23.95-5.14.2-1.07.34-1.25.47-1.8l-.04.26.82-4.07c.12-.75-.01-.9.3-2.22-.03.44.07-.1.18-.6-.06.32-.05.42.12-.22 0-.1.02-.24.03-.38.01 0 .02-.03.02-.01.15-.83.1-.7.01-.3-.01-.02-.02.01-.07.12.26-.84.5-2.4.6-2.48.48-2.5.74-4.3 1.12-6.4.1-.22.05.27-.05.88l.28-1.48c.08.03-.13.86-.2 1.3.48-1.73.6-3.64 1.14-5.67l.02-.44.04-.12c-.03 0 .01-.47.07-.78.13-.28.15.05.36-.97.23-.8.43-2.3.6-3.36-.13.57-.13.37-.1.13.1-.5.23-.8.28-1.2l.1-.03c-.13.18.17-1.35.17-1.54.13-.28-.1.8-.07.94l.6-3.07c.15-1.1-.13.18-.1-.36.17-.97.3-1.92.58-3l-.15.33c.3-1.82.52-2.9.85-4.1 2-13.6-.35-3.02-.35-3.02-1.3 5.3-1.6 8.1-2.8 14.4z"/><path d="M234.5 213.6c-.5.93-.78 1.1-1.27 2.07l-.84 1.34c-.04.27-.38.55-.48.83l-.13.04a.534.534 0 0 1-.18.26v-.02c-.05.15-.18.26-.2.33v-.02l-.1.15v-.04c-.12.24-.3.43-.48.6l.08.04c-.4.3-.4.57-.8.8l-.01-.02c-.25.56-.74.53-1.04 1.07.04-.07-.05-.01-.06-.03-.2.2-.4.4-.3.53-.15.13-.16.07-.22.03.05.06-.06.2-.18.3l.04-.06-.34.28.16.06c-.2.1-.15-.1-.3.06l.07.1c-.28.18-.53.15-.83.26-1.1.65-2.2 1.6-3.43 1.86l-.08-.06c-.07-.1-.24.3-.32.22l-.1.1c-.05-.01-.13 0-.08-.05-.13.04-.12.06-.2.13l-.16-.03c-.5.12-.87.42-1.4.54-.67.04-1.82.5-2.5.72-.95.4-2.2.08-3.17.42-.04-.01-.12.03-.1.05l-.94.08-1.84.2c-.7.12-1 .4.8.88l-.02.03c.53.04.87.02 1.22-.14.07.17.43-.03.56.02l-.01.02c.3-.16.68.04.97-.12-.01.02-.01.06-.08.08.22-.05.53-.13.56-.03.53-.1 1.3-.18 1.6-.4l-.02.03c.17-.15.25-.07.45-.17.01.01.03.01.03.02.2-.15.6-.14.77-.23l.03.06.4-.12-.16.02c.01-.2.34.03.62-.16.3-.04.47-.52.78-.52.1-.12-.08.17.1.05.03.1-.08.1 0 .14.2-.1.36-.01.6-.14l.03.07c.3-.22.64-.12.8-.3.3-.18.3.13.6-.13l.17.05c.16-.04.06-.16.24-.18.01.06.22-.04.15.06.4-.07.7-.44 1.23-.5.05-.16.32-.22.35-.34.04.04.47-.23.26.01-.02.02-.06.04-.07.02v.08c.33-.01.45-.32.72-.43-.1.02-.2.08-.15 0l.25-.13-.02.08.37-.2-.1-.04c.2-.07.32 0 .46-.2.06-.1-.22.01-.05-.12.26-.1.65-.23.93-.44-.08-.05 0-.1.07-.18l.05.05c.23-.3.2.05.45-.23v.06-.18c.17-.3.24.02.4-.36-.1.1-.15-.08 0-.17v.08c.06-.08.07-.12.13-.15-.02.07.04.1.14 0l-.01.13.12-.28c.2-.08.4-.37.52-.35 0 0 .37-.26.36-.42-.02.1.18-.04.18.07.03-.14.23-.43.4-.46l-.01.02c.43-.3.53-.7.9-.97-.08-.04.12-.2 0-.22.24-.4.73-.5.58-.86.12-.18.22-.15.3-.22v.05l.48-.66c.06-.14-.05-.25.13-.44 0 .1.06.01.1-.07-.03.06-.02.1.1.01-.01-.03 0-.06.01-.08 0 0 .01 0 .01.01.08-.15.05-.13-.01-.08-.01-.01-.02-.01-.05 0 .17-.1.26-.4.37-.36.25-.43.36-.8.52-1.17.07-.01.07.1.02.2l.13-.26c.07.04-.05.17-.08.26.3-.24.26-.68.55-1l-.02-.1.02-.02c-.03-.01-.03-.12-.01-.18.1-.02.14.08.23-.1.14-.1.17-.43.23-.63-.06.1-.08.05-.08-.01.04-.1.13-.12.14-.2l.1.03c-.1 0 .03-.28 0-.33.1-.02-.01.17.03.2l.23-.57c.02-.23-.1 0-.13-.13.06-.18.06-.38.2-.56l-.1.03c.07-.36.15-.55.3-.75.08-1.38-.2-1.53-.36-1.38-.18.12-.37.58-.37.58-.42.87-.37 1.44-.8 2.56zm22.66 64.42l4.93 8.5 3.3 5.5c.6.78 1.37 2.34 2.04 3.28l.16.42c.23.33.5.72.65 1.1l-.03-.01.82 1.33-.03-.01.37.62-.1-.1c.57.87 1.1 1.8 1.53 2.64l.04-.1 2.13 4.03-.03-.01c1.25 1.93 1.42 3.32 2.5 5.4-.14-.26.01.13-.02.12.43 1 .83 2.1 1 2.04.27.75.17.63.14.75.07-.03.33.6.54 1.2l-.12-.26.6 1.68v-.38c.25.9-.08.28.22 1.13l.1-.05c.37 1.25.4 2.04.68 3.27 1.4 5.04 2.82 10.5 3.32 15.38l-.05.23c-.1.1.4 1.3.3 1.52l.15.55c0 .16.04.5-.04.22.1.52.1.53.2.9l.02.57c.3 2.06.78 3.77 1.15 5.93.32 2.6 1.42 7.44 2.06 10.22.96 3.9 1.38 8.56 2.4 12.54.01.13.12.46.13.46l.73 3.68s3.62 17.83 1.87 4.08l.05.1c-.35-2.03-.6-3.3-1-4.65.12-.25-.32-1.66-.36-2.14l.02.04c-.38-1.2-.4-2.55-.76-3.7.02.04.07.06.13.33-.2-.86-.47-2.03-.4-2.1-.44-2.05-.97-4.94-1.4-6.23l.05.1c-.26-.73-.2-.97-.43-1.8 0-.05 0-.1.01-.1-.27-.8-.5-2.4-.66-3.04l.06-.06-.33-1.63.1.6c-.22-.18-.13-1.26-.48-2.42-.2-1.1-.8-2.18-.94-3.35-.2-.53.23.46.01-.35.1-.04.13.37.17.15-.2-.8-.15-1.34-.4-2.32l.07-.05c-.38-1.27-.35-2.47-.64-3.3-.3-1.33.06-.94-.33-2.3l.01-.56c-.1-.6-.2-.4-.25-1.08.07.03-.08-.84.04-.47-.14-1.5-.6-3.05-.8-5.05-.2-.4-.32-1.42-.47-1.72.04-.06-.4-2-.06-.9.03.1.06.26.04.26l.1.12c-.1-1.16-.5-2.03-.73-3.15.05.33.15.77.04.5l-.23-1.03.1.2-.33-1.54v.23c-.15-.76-.1-1.05-.4-1.87-.16-.37.08.73-.14-.05-.2-1-.55-2.52-.9-3.8-.05.14-.14-.2-.27-.54l.06-.06c-.52-1.3.01-.54-.5-1.84l.1.1-.26-.3c-.54-1.14-.05-.7-.7-1.94.2.5-.07.3-.26-.35l.13.14c-.14-.35-.2-.46-.28-.7.1.2.14.07-.06-.44l.2.32-.5-.93c-.2-.78-.78-1.93-.8-2.27 0 0-.15-.4-.35-.85-.2-.44-.42-.93-.55-1.1.2.3-.17-.6.02-.38-.26-.38-.87-1.55-1.05-2.06l.05.1c-.8-1.8-1.66-2.92-2.42-4.5-.04.1-.45-.72-.43-.47-.97-1.53-1.43-2.98-2.05-3.38-.42-.7-.42-.9-.6-1.26l.1.16-1.6-2.7c-.32-.48-.5-.47-1-1.38.22.25 0-.1-.2-.43.13.2.2.26-.03-.2-.05-.05-.12-.14-.18-.22 0-.01 0-.03.01-.02-.34-.54-.3-.43-.16-.17-.02-.01-.01.02.02.1-.26-.6-.94-1.6-.9-1.72-1-1.64-1.8-2.77-2.65-4.12-.04-.18.2.1.45.5l-.6-.96c.07-.03.37.54.57.83-.58-1.23-1.54-2.33-2.25-3.75l-.22-.25-.04-.1c-.03.02-.25-.26-.38-.46-.06-.23.15-.07-.26-.74-.26-.57-.94-1.5-1.4-2.17.22.38.1.28-.01.13-.2-.33-.26-.56-.44-.8l.06-.08c0 .18-.6-.83-.72-.93-.06-.23.37.5.46.55l-1.23-2c-.5-.68 0 .18-.28-.12-.4-.62-.83-1.2-1.22-1.96l.07.27c-.78-1.16-1.2-1.87-1.62-2.72-5.98-8.5-1.93-1.38-1.93-1.38 1.9 3.57 3.2 5.24 5.77 9.36z"/><path d="M284.47 386.5c1.16-.2 1.5-.1 2.67-.4l1.72-.38c.24-.18.73-.15 1.02-.3l.13.05c.1-.06.22-.1.34-.1v.02c.15-.1.34-.1.4-.13v.02l.2-.05-.03.04c.27-.1.56-.17.82-.2l-.04-.08c.56-.01.73-.23 1.24-.2h0c.58-.35 1-.04 1.6-.38-.07.04.04.04.04.06.3-.08.6-.16.57-.33.22-.04.2.02.23.08-.02-.07.16-.14.33-.18l-.07.04.48-.12-.12-.12c.26-.01.1.16.34.07l-.03-.1c.36-.05.6.1.96.1 1.43-.23 2.9-.82 4.25-.88l.08.08c.05.12.33-.26.4-.15l.14-.1c.05.01.14.02.07.06.14-.02.14-.04.24-.1l.17.05c.57-.05 1.02-.3 1.6-.38.74.02 2.04-.4 2.8-.63 1.04-.4 2.4-.15 3.46-.58.04.01.12-.05.12-.06l1-.18s4.9-.92.98-1.23l.02-.03c-.57.04-.92.1-1.27.3-.1-.16-.46.07-.6.04l.01-.02c-.3.2-.72.03-1.02.2.01-.02.01-.06.08-.08-.23.07-.55.17-.6.07-.56.14-1.36.25-1.7.48l.02-.03c-.2.15-.26.07-.48.17-.02-.01-.03-.01-.03-.02-.2.15-.65.15-.83.23l-.02-.06-.45.1.17-.02c-.02.2-.36-.05-.66.13-.3.04-.54.5-.88.47-.13.1.1-.16-.1-.05-.03-.1.1-.08.02-.14-.2.1-.38-.02-.64.1l-.03-.07c-.33.2-.7.04-.9.2-.36.13-.3-.17-.64.05l-.17-.07c-.17.02-.1.14-.28.13 0-.06-.24 0-.14-.08-.43-.02-.8.3-1.38.24-.1.14-.38.13-.45.23-.02-.05-.55.1-.26-.08.02-.01.07-.02.07 0l.02-.08c-.34-.08-.55.2-.85.22.1.01.2-.02.14.04l-.3.05.05-.07-.43.05.07.06c-.2 0-.3-.1-.52.04-.1.08.22.06 0 .13l-1.07.05c.05.08-.05.1-.14.13l-.03-.07c-.35.18-.17-.13-.52.02l.02-.06-.07.17c-.3.2-.2-.12-.54.16.14-.04.1.15-.1.15l.03-.08c-.1.03-.13.07-.2.07.05-.05.01-.1-.13-.07l.08-.1-.25.2c-.23-.03-.55.13-.66.05 0 0-.47.04-.56.17.08-.1-.18-.06-.12-.16-.1.1-.45.23-.6.18l.03-.01c-.54.02-.87.3-1.37.28.04.08-.22.08-.14.18-.47.2-.93-.05-1.04.32-.22.06-.28-.03-.4-.02l.05-.03-.84.2c-.15.06-.14.22-.42.24.08-.08-.03-.05-.14-.03.06-.02.08-.05-.06-.06-.02.02-.04.04-.07.06l-.01-.01c-.17.06-.13.07-.05.06 0 .01.01.02.04.03-.2-.04-.5.1-.54 0-.5.13-.86.3-1.28.44-.06-.05.03-.1.15-.16l-.3.08c-.01-.08.17-.08.26-.1-.4-.06-.73.28-1.17.24l-.08.08-.03-.01c.01.03-.08.1-.14.12-.07-.06-.03-.16-.24-.1-.18-.03-.47.13-.68.2.12-.01.1.03.04.07-.1.02-.18-.03-.26.01l-.03-.1c.06.08-.26.15-.3.2-.07-.06.15-.1.17-.15l-.63.14c-.2.1.06.08-.03.18-.2.06-.38.16-.62.15l.1.07c-.36.14-.6.17-.86.14-2.66 1.22-.4 1.03-.4 1.03 1.14-.02 1.66-.37 2.95-.7zm-41.02-110.74l.1-.17c-.01 0-.04.04-.1.17zm14.7-45.72c0-.01.01-.03.01-.05-.01.03-.01.04-.01.05zm-11.33 39.06c0 .01 0 .01 0 0 0 .03-.01.04-.01.06l.01-.06z"/><path d="M243.78 278.3l1.92-5.52 1.13-3.65c.06-.6.5-1.53.6-2.22l.15-.23c.04-.24.1-.5.2-.73v.02c.06-.35.2-.73.24-.9l.02.02.12-.4v.08c.13-.6.33-1.22.52-1.74l-.1.02c.46-1.1.42-1.6.87-2.6v.02c.2-1.38.8-2.02 1.04-3.43-.03.18.07-.06.08-.04.18-.63.38-1.3.22-1.35.15-.45.17-.35.25-.4-.07-.02.02-.42.13-.78l-.02.17.3-1.02-.2.16c.2-.52.2-.08.34-.6l-.1-.03c.26-.73.57-1.1.88-1.8l2.84-8.97.12-.1c.14-.01.06-.82.2-.9l.05-.34c.05-.08.14-.27.1-.1.1-.3.08-.3.1-.54l.18-.3c.44-1.16.6-2.2 1.04-3.43.63-1.44 1.4-4.28 1.83-5.92.55-2.33 1.88-4.8 2.42-7.2.04-.07.07-.28.05-.28l.7-2.12s3.36-10.3-.17-2.8v-.06c-.44 1.14-.7 1.87-.8 2.72-.2.07-.32.95-.47 1.2l-.01-.03c-.1.75-.58 1.43-.68 2.15 0-.03-.05-.06 0-.22-.14.5-.32 1.2-.43 1.2l-1.03 3.66-.01-.06c-.04.47-.17.57-.27 1.07-.02.02-.04.05-.04.05-.05.5-.43 1.4-.5 1.78h-.07l-.3.95.13-.35c.14.18-.34.68-.45 1.4-.23.63-.05 1.4-.35 2.05-.02.34-.04-.32-.13.17-.1-.01.01-.24-.1-.14-.1.48-.34.73-.46 1.33h-.08c-.1.8-.55 1.38-.58 1.92-.2.8-.38.45-.5 1.3l-.2.28c-.13.34.04.28-.13.65-.05-.04-.2.47-.2.22-.37.83-.43 1.8-.96 2.88.04.28-.22.83-.2 1.05-.06.01-.38 1.14-.28.47.01-.06.04-.16.06-.14l-.05-.1c-.34.6-.3 1.2-.53 1.84.08-.18.16-.44.15-.25l-.2.6-.02-.14-.32.88.1-.1c-.18.42-.35.54-.4 1.06-.01.24.23-.38.1.1l-.85 2.15c.1-.04.04.16-.01.37h-.08c-.15.82-.25.24-.42 1.04l-.03-.08.08.25c-.1.75-.27.33-.33 1.18.1-.3.2-.1.05.28l-.04-.12c-.05.22-.05.3-.1.43 0-.14-.08-.1-.17.22v-.24l-.06.63c-.22.43-.36 1.18-.5 1.33 0 0-.36.96-.33 1.22 0-.22-.2.3-.23.13-.01.28-.2 1.04-.36 1.3v-.06c-.44 1.08-.5 1.92-.9 2.88.1-.02-.12.5.03.4-.23 1.06-.82 1.8-.6 2.27-.13.47-.25.53-.35.76l.02-.12-.55 1.78c-.07.33.06.43-.16 1 0-.2-.06.03-.13.25.04-.14.03-.2-.1.08.01.05 0 .1-.01.17-.01 0-.01.01-.02 0-.1.37-.06.3.01.15.01.01.02 0 .06-.05-.2.35-.33 1.05-.45 1.06l-.72 2.83c-.1.08-.06-.14 0-.4l-.2.65c-.07-.03.07-.38.12-.6-.37.73-.38 1.62-.8 2.48v.2l-.03.05c.03.01.01.22-.02.36-.1.1-.15-.06-.3.4-.18.33-.3 1-.4 1.48.1-.24.1-.15.1-.04-.07.22-.18.33-.2.5l-.1-.01c.1-.06-.1.6-.08.7-.1.1.05-.36.02-.43l-.42 1.34c-.08.5.1-.06.12.2-.12.43-.2.85-.4 1.32l.13-.13c-.2.8-.35 1.28-.6 1.78-1.24 6.08.5 1.52.5 1.52.94-2.27 1.1-3.54 1.92-6.3z"/></g></svg>