<svg xmlns="http://www.w3.org/2000/svg" viewBox="0 0 480 480" xmlns:v="https://vecta.io/nano"><path d="M91.98 323.97c.5-5.3 8.8-1.7 12.2-2.4 5.5-1.1 19.4-5.6 19.4-5.6l5 23.9s-21.1 5-22.1 6.3c-2 2.4-8.8 12.8-14.6 23.3-3.2 5.7-4.7 10.7-7.6 10.6s-2.9-1.3-2.9-1.3l10.6-54.8zm209.2 94.4c-5.3-.1-2.4-8.6-3.4-12-1.5-5.4-7.1-18.8-7.1-18.8l23.5-6.9s6.7 20.6 8.1 21.5c2.6 1.8 13.5 7.7 24.4 12.7 5.9 2.7 11.1 3.8 11.2 6.7s-1.1 3-1.1 3l-55.6-6.2z" fill="#fff"/><path d="M338.62 423h-.1.1zm-29.06-6.55l-.12-.1c-.01.03.02.06.12.1zm4.38-6.25h.04c-.03-.01-.04 0-.04 0zm-9.08 2.64h0zm9.48 17.33l.33.1c0-.03-.1-.06-.33-.1zm7.26-3.33h-.08c.05.01.07.01.08 0zm5.65 6.63h-.02l-.08.01zm10.75-10.4l-.33-.1c0 .02.1.05.33.1zm.78 4.14h0zm-13.68-7.45h.1zm20.8-3.1l.1-.1c-.03 0-.06.02-.1.1zm-10.27 4.67c.01 0 .02-.01.03-.01-.02.01-.03.01-.03.01zm-13.33-20.16l.02.01-.05-.08c.01.03.01.04.03.07zm7.4 11.73l.1-.13c-.03 0-.06.03-.1.13zm-13.45 6.35c.01 0 .02-.01.03-.01-.02.01-.03.01-.03.01zm16.85-12.32c0 .01.01.01.01.01.02.02.03.04.04.06l-.05-.07z"/><path d="M83.43 370.35l-.2.25c.27-.87.3-1.64.43-2.42-.05-.44-.3.58-.23-.32l.2-1.1c-.18-.9.34-3.24.34-3.24l.3-1.35c-.02 0-.06-.14-.03-.18-.05-1.56 1.14-3.06 1.12-4.57l.04-.55.02-.3.07-.5.4-2.32.4.14.5-3.5c.1-.02.17-.33.24-.7-.06-1.27.48-4 .48-4l.37-1.77c-.02 0-.06-.18-.02-.24 0-1 .32-2.02.64-3.02l.12-.38c.06-.66.4-1.53.6-2.58l.1-.82c-.18.1.05-.75-.1-.7.53-1.78.48-3.3 1.02-5.3l-.01.1c.24-.52.4-1.9.37-2.4.08.3.3-.67.36-.3-.1-.45.33-2.22.33-2.22.23-.3.33-1.66.62-2.47 0-.2-.01-.35-.03-.45-.03-.1-.06-.22-.12-.3.06.06.1.14.16.22-.02-.35.04-.44.14-.3 0-.18-.07-.26-.2-.48l.16.06c-.18-.5-.56-.42-.33-.15-.38-.26-.45-.3-.5-.4-.03-.05-.06-.1-.14-.14-.1-.05-.16-.05-.47-.05l-.3.12c-.74-.1-.86-.2-.97-.3-.03-.02-.06-.05-.1-.07-.01-.02-.02-.03-.03-.04-.03-.02-.1-.03-.15 0l-.07-.14c-.04 0-.08 0-.1.01.01.07.03.12.1.2-.02.05-.05.1-.07.15l-.26.96-.52 1.88c-.13.85.17-.3.2.13 0 .94-.27 1.17-.5 1.96l.17-.2-.38 1.62-.06-.25-.23 1.1c.02.33.1-.14.2-.48-.27 1.17-.1 2.22-.57 3.36l-.1-.17c.03.02.07-.16.07-.26.03-.78-.1-.22-.22.3-.01.08-.02.16-.04.2l-.28 1.85c-.01.16-.01.3.02.42-.7 2.03-.62 3.75-1.1 5.3-.02-.43-.18.5-.28.44-.22.68.05.55-.1 1.18l-.28.54c-.05 1.27-.3 1.1-.5 1.84l-.1.7c-.01.26-.06.54-.13.83-.01.05-.02.1-.02.15-.44 3-1.2 8.2-2.02 10.87-.5 2.27-.6 4.16-1.14 6.3l-.25.56c-.01.4.02.43-.1.97.01-.14-.02-.14-.05-.08a32.939 32.939 0 0 1-.24 1.59c.01.43.03.9-.1.93l-.1.1-.57 3c-.18.04-.36 1.3-.5 2.22.05-.3-.02-.33-.03-.4-.03.7-.23 1.38-.42 2.08l-.03.15-.63 3.66-.32 1.84-.2 1c.05.02.1.03.14.05.12.04.1.05.46.14l-.1.03c2.22 1.17 3.47.18 4.02-.43a1.595 1.595 0 0 0 .12-.27c.05-.12.1-.24.12-.38v-.02l.55-2.8c.04-.67.1-1.47.2-2.4.36-.97.55-1.83.73-3.3z" fill="#fff"/><path d="M341.23 411.6l.08.03c.13.05.36.16.33.18l.2.02c-.8-.47-1.55-.8-2.3-1.13l1.7.9zm-9.25-3.63l-.1.3 4.05 2.04.15-.54c.06-.3.24-.48.48-.5l-1.42-.75.25.2c-.98-.55-1.27-.84-2.44-1.33-.53-.2.9.58-.17.06l-4.9-2.8c.01.02-.01.01 0 .02l3.82 2.4c.28.2.38.6.28.9zm-32.8 13.37h0l.08.13z"/><g fill="#fff"><path d="M348.16 423.6l.27.17c-.9-.2-1.66-.16-2.45-.2-.44.1.6.23-.3.26l-1.03-.1c-.83.28-3.3-.03-3.3-.03l-1.37-.2c0 .02-.14.08-.18.04-1.54.2-3.15-.86-4.66-.7l-.53.01h-.3l-.5-.02-2.27-.17c.03-.14.07-.27.1-.4l-3.67-.17c-.04-.1-.45-.15-.93-.2-1.32.12-3.85-.18-3.85-.18l-1.8-.23c0 .02-.17.07-.23.04-.98.07-2-.15-3-.38-.8.22-2.2-.35-3.9-.36.22.2-.74.03-.67.18-1.83-.36-3.32-.18-5.36-.53h.1c-.54-.2-1.94-.23-2.42-.15.3-.1-.7-.25-.32-.33-.43.14-2.24-.13-2.24-.13-.33-.2-1.68-.18-2.5-.4-.22.01-.27.05-.4.1-.1.04-.2.1-.3.16.06-.07.13-.13.2-.2-.35.08-.46.03-.33-.1-.18.04-.26.1-.46.27l.04-.17c-.48.24-.35.62-.12.35-.22.42-.24.5-.35.57a.432.432 0 0 0-.13.16c-.01.04-.03.1-.03.16.01.1.01.2.02.34l.15.27c-.01.74-.1.86-.18 1l-.06.1a.138.138 0 0 0-.04.03c-.02.03-.02.1.02.14l-.13.08c.01.03.01.07.02.1.07-.01.12-.04.2-.12l.16.06 1.02.17.8.14 1.25.1c-.1-.04-.2-.08-.02-.1.9-.08 1.2.15 1.95.3h.04l-.2-.14 1.65.23-.16.05 1.13.13c0-.04-.34-.07-.6-.13 1.2.16 2.22-.1 3.4.26l-.13.1c1.8.05 3.7.3 5.6.6.8.04 1.57.08 2.3.23-.38.05.33.12.44.2l.52.07c.2-.03.27-.1.68-.05l.54.22c.02 0 .05.01.07.01.7-.03.95.04 1.17.13l1.96.14c3.02.17 8.26.47 11 1.03 2.3.3 4.2.23 6.38.56l.58.2c.4-.02.42-.06.98.01-.3.02.05.1.2.15l.6-.03c.18.22 1.56-.17 1.64.05l.2.17.4.06 2.94.28c.05.17 1.33.24 2.26.3-.16-.01-.24 0-.3.02l1.84.16 3.74.3 1.87.15 1.22.12c.01-.03.01-.05.02-.08.02-.1.04-.15.1-.53l.04.1c.13-.64.33-1.3.36-1.67.02-.44-.08-.85-.24-1.17-.28-.54-.65-.87-.95-1.1-.1-.04-.2-.08-.3-.1-.12-.03-.24-.07-.37-.1l-2.88-.3c-.67.02-1.46.03-2.4.03-1-.2-1.88-.3-3.36-.34z"/><path d="M309.1 423.8c.04 0 .08.01.12.01-.04-.02-.17-.04-.25-.03-.03 0-.06 0-.1.01.08-.01.17-.01.22.01z"/></g><path d="M295.86 405.94v-.01l-.1-.15zm49.54 6.5h0zM197.38 328.8c-.03.01-.04.01-.06.02l-.3.1.36-.13zm76 50.4l.02-.04c-.01-.02-.02-.02-.02.04zM196.3 223.82h0l-.23-.44z"/><path d="M359.9 426.1c-.22-.77-.7-1.37-1.2-1.73-.26-.2-.52-.32-.76-.4.1-.23.17-.47.23-.7.1-.5.14-.95.16-1.38.01-.2.01-.43-.03-.67-.01-.24-.1-.45-.17-.66a2.465 2.465 0 0 0-.69-.97c-.8-.75-1.1-.9-1.37-1.16-.3-.2-.6-.45-1.58-.83l-.7-.43c-.82-.37-.64-.14-1.54-.56.08-.04-1.14-.5-.58-.35l-3.33-1.35c-.04-.27-.12-.55-.3-.83-.2-.3-.46-.57-.8-.76l-.46-.24-.27-.13-1.07-.5c-.42.02-.88-.47-1.34-.52l-.1-.18c-.16-.02-.33-.06-.43-.2l.02-.03c-.24-.02-.43-.2-.55-.2l.02-.03-.24-.1.06-.02c-.38-.1-.73-.28-1.02-.48l-.04.14c-.58-.5-.96-.36-1.46-.85l.02-.03c-.93-.06-1.06-.87-2-.96.12.01-.01-.1.02-.1l-.36-.16-.38-.16c-.3-.12-.52-.1-.5.1-.37-.12-.32-.17-.4-.3.02.14-.3.13-.6.27.04-.03.08-.07.12-.1-.3.1-.53.33-.66.58l.24.06c-.24.3-.26-.16-.4.3l.16.13c-.12.3-.25.52-.42.76-.15.2-.3.32-.43.54-.58 1.85-.64 4-1.43 5.65l-.16.04c-.22-.02.18.56-.03.58l.04.23c-.05.05-.12.16-.14.04-.06.2-.03.2 0 .35l-.18.17c-.15.36-.2.7-.25 1.07l-.08.54-.06.28-.1.38-.07.18-.34-.03-2.33-.24c.76-1.66.7-2.76 1.27-4.93.67-1.94 1.1-2.4 1.62-4.46l.34-1.1.36-1.3c.14-.5.1-.98-.1-1.4-.24-.37-.64-.77-1.2-1.07-.3-.2-.58-.38-.87-.45l-.12-.22c-.2-.05-.4-.14-.54-.3h.03c-.3-.08-.54-.3-.68-.33l.03-.02-.3-.17.08-.01a5.28 5.28 0 0 1-1.28-.73l-.05.14c-.74-.66-1.2-.6-1.84-1.22l.03-.02c-1.14-.27-1.35-1.15-2.5-1.46.14.04-.01-.1.02-.12l-.35-.18-.53-.27c-.32-.15-.52-.18-.54-.02-.5-.23-.4-.24-.47-.4 0 .07-.1.1-.23.1-.02 0-.05.01-.07.01-.05-.1-.1-.2-.14-.32.17.27.16.12-.16-.6l.3.45-.7-1.33-1.17-3.28-1.1-2.88c.23.45-.2-.86 0-.52-.3-.6-1-2.38-1.16-3.13l.06.13-2.4-7.03c-.01.02-.03-.01-.06-.07l1.4-.43c.77-.24 1.35-.82 1.65-1.57l.03-.06c.01-.03.03-.07.04-.1.08-.2.15-.44.2-.7.12-.64-.1-1.36-.27-2.15l-3.34-14.57.14.34c-2.02-7.86-3.34-12.8-5.04-18.12.04-.93-1.73-6.43-2.14-8.3l.07.17c-1.52-4.7-2.52-9.88-3.98-14.42.07.17.18.25.47 1.3-.96-3.34-2.3-7.9-2.2-8.2l-7.05-24.2.15.34c-1-2.87-1.1-3.76-2.14-7-.03-.18-.1-.42-.07-.38-1.08-3.1-2.8-9.25-3.85-11.72l.05-.2c-.74-2.07-1.53-4.12-2.34-6.16l.87 2.3c-.6-.68-1.6-4.73-3.62-9.06-1.67-4.15-4.12-8.1-5.85-12.4-1.03-1.96 1 1.68-.44-1.3.1-.16.72 1.37.5.54-1.4-2.93-2.02-4.93-3.8-8.52l.04-.2c-2.38-4.65-4-9-5.7-12.05-2.3-4.58-1.33-3.55-3.53-7.7l.8-4.47.32-1.95.44-2.9.03-.2c-.05-.02-.13 0-.2-.01h-1.22l-1.47.01-1.96.01-1.2.01c-.1-.13-.1-.38-.3-.3l-1.73-.01h-2.3l-4.78.06c-3.3.04-6.82.07-10.8-.07-1.72.2-5.7.08-7 .24-.08-.04-1.34-.05-2.55-.06l-.4-.07c-.14-.08-.95-.05-1.93 0 .1-.02.5-.05 1.36-.1.4-.02 1.07-.01 1.02.02l.54-.12c-4.52-.23-8.2.13-12.7.1 1.33.04 3.1.03 1.9.1l-4.16-.02.86-.1-6.2-.06.85.13c-3.03-.07-4.1-.28-7.5-.1-1.47.1 2.46.16.05.2h-.45l-7.16-.14-2.62-.03-.9.01h-.23c-.07 0-.02.13-.04.2v.45l.04 1.82c.07 1.5.18 2.8.34 4.12.08-.5.24.9.52 2.33l-.1.2c.57 2.73.66 3.24.7 3.75.05.5.05 1.03.9 3.68l.1.2-4.64 30.86c-.16.96-.34 1.92-.55 2.88-.2.96-.4 1.94-.66 2.9-.47 1.92-1.08 3.9-1.66 5.87-.6 1.96-1.25 3.93-2.18 5.7-.92 1.8-2.18 3.34-3.75 4.6-1.57 1.26-3.4 2.26-5.24 3.2-1.85.93-3.77 1.77-5.68 2.64l-11.1 5.24c-.24.1-.66.3-1.02.48-.18.1-.34.18-.46.24s-.2.1-.18.1L146 294.9l-31.05 14.76c-1.04.45-1.36 1.38-1.4 1.93-.03.6.15.9.2.92.08.04.03-.15.1-.64.05-.42.32-1.2 1.15-1.56-.7.36-1.1 1.18-.92 2l1.4 6.76-.17-.83c-.1 0-.1-.03-.2-.03-3.07-12.18-1.97-5.3-.98.23-.9.22-2.38.75-3.46 1.1.62-.16.43-.07.17.03-.55.16-.9.18-1.3.33l-.08-.08c.24.03-1.42.5-1.6.58-.33.02.84-.3.97-.38l-1.3.35c.04-.1.1-.18.13-.26-.16.15-.17.1-.14-.03l-.32.03.14-.13c-1.33.2-.1-.27-1.43-.1l-.34.18c-.57.13-.65.07-.8.02-.12-.05-.3-.1-.87.1.22-.01.26.05.18.12s-.26.13-.38.1l.08-.12c-.17.03-.22.08-.34.06.1-.07.05-.18-.2-.15l.16-.15-.46.23c-.36-.12-.93.05-1.08-.12 0 0-.78-.07-.95.12.15-.12-.27-.15-.15-.3-.28.12-1.1.22-1.62.17-.04.07-.08.13-.12.17l.02-.1c-.17.3-.3.62-.44.93l-.9-.14c-1.83-.1-3.34.1-4.26.7-.2-.28-.54-.82-1.04-1.17.12.06.22.15.33.22-.3-.3-.66-.52-1.05-.66-.4-.15-.78-.18-1.06-.24l.32.3c-.96-.28-.2-.34-1.14-.48l-.03.2a12.786 12.786 0 0 0-.51-.13c-.12-.04-.25-.07-.37-.1.01-.04.01-.08.02-.1l-.85-.14-.52-.16c-.01.02-.02.05-.02.07-.1-.02-.2-.03-.28-.05l-.62-.1c-.15-.01-.3-.03-.42-.04-.52-.04-.9-.04-1.03.04-.13.07-.03.2.4.44.04.03.12.06.18.1l-.66-.14c-1-.22-2 .2-2.56.95.15-.28.35-.5.55-.7.67-.57 1.35-.7 1.78-.75.86-.06.77-.2.43-.42-.5-.25-1.6-.35-2.48.08-.43.2-.8.47-1.02.7-.24.23-.35.4-.35.4-.25.33-.44.7-.56 1.1l-.2.85-.3 1.37c-.18.88-.32 1.7-.45 2.58-.26 1.72-.5 3.56-.94 6.1-.95 4.43-1.44 5.56-2.24 10.18-.45 2.2-.86 4.55-1.25 6.7.01 1.06-.55 2.82-.62 4.06l-.2.45c-.02.43-.08.92-.22 1.33l-.03-.03c-.03.64-.22 1.33-.24 1.64l-.03-.03-.13.76-.02-.14c-.12 1.1-.33 2.22-.57 3.2l.16-.05c-.57 2.07-.43 2.9-1 4.76l-.03-.03c-.1 2.47-1 3.74-1.13 6.28.02-.32-.1.12-.13.1-.18 1.15-.4 2.37-.13 2.44-.17.83-.22.66-.35.74.12.02.03.75-.1 1.4l.01-.3-.16.93-.08.47c-.02.16-.07.38-.07.57.08-.16.2-.3.3-.42-.13.57-.16.67-.22.74-.04.07-.12.16.05.75l.18-.07c.2.8.6 1.4 1.13 1.9.27.23.6.43.96.56.3.1.6.2.93.32l3.15.66c.01-.03.01-.07.02-.1l.85.17.96.17c.44.06.84.03 1.22-.05.76-.16 1.38-.58 1.8-1.02.2-.2.33-.43.44-.64.17.07.34.12.5.17a7.003 7.003 0 0 0 1.37.23c.42.05.95.01 1.35-.15.4-.16.75-.4 1-.64.8-.75.98-1.02 1.24-1.28.24-.27.5-.55.95-1.5l.48-.67c.44-.8.2-.63.7-1.5.03.08.6-1.1.4-.55.53-.96 1-1.95 1.53-3 .4.07.85.04 1.3-.2.33-.16.6-.4.82-.72l.28-.44.16-.26.6-1.02c.02-.42.55-.84.63-1.3l.2-.07c.03-.16.1-.32.23-.4l.02.03c.04-.23.23-.4.25-.53v.03l.13-.23.02.07c.13-.37.34-.7.57-.98l-.14-.06c.54-.53.44-.93.97-1.38l.02.03c.15-.92.95-.98 1.13-1.9-.02.12.1 0 .1.03l.36-.67c.15-.3.14-.53-.04-.55.14-.36.18-.3.32-.37-.13.01-.12-.34-.24-.65.03.04.06.08.1.13-.08-.3-.3-.56-.53-.73-.02.08-.05.17-.07.24-.2-.2-.06-.25-.08-.32l.37-.6-.23.23c.5-.73.8-1.06 1.18-1.72.44.1.9.06 1.32-.1.18-.12.4-.27.58-.46.1-.1.2-.2.28-.33.08-.1.16-.2.24-.3.2-.26.43-.54.53-.8l.23-.1c.07-.2.17-.4.34-.5l.02.03c.1-.28.34-.5.4-.65l.02.03.2-.3v.08c.23-.46.54-.87.85-1.2l-.14-.06c.72-.67.7-1.14 1.4-1.72l.02.03c.37-1.1 1.28-1.23 1.7-2.36-.05.14.1 0 .12.03l.36-.55c.15-.22.26-.43.34-.57.08-.18.05-.3-.07-.3.24-.46.25-.36.4-.44-.07 0-.08-.08-.1-.22a1.048 1.048 0 0 0-.15-.44c.01 0 .02 0 .03-.01.02.02.04.04.06.07-.01-.03-.03-.05-.05-.07.12-.03.28-.08.5-.16l-.47.25 1.38-.58c1.13-.27 2.88-.87 3.37-.9 0 0 2.43-.62 2.96-.87-.47.2.87-.13.5.05.34-.14 1.07-.37 1.77-.56l.44 2.02.8 3.55.22.98c.14.53.43 1 .82 1.38.74.75 2 1.1 3.1.64l-.1.03 12.6-3.98 36.58-11.07 23.8-7.65c3.56-1.37 10.02-3.3 14.23-4.92l1.7-.46c1.45-.58 3.16-1.2 4.66-1.7l-.08.07 3.27-1.3c1.02-.44 1.93-.8 2.45-1.06l-.07.07 2.56-1.26-.42.27c3.6-1.92 7.37-4.08 10.05-6.96l-.33.14c1.46-1.47 2.4-2.97 3.15-4.3.37-.67.7-1.3 1-1.9.3-.6.6-1.2.83-1.85l.5-1.32 4.73 8.9c.55 1 .92 1.53 1.4 2.27.48.75 1 1.7 1.8 3.52-.62-1.15.06.35.67 1.73-.4-.87-.56-1.13.17.7.14.24.33.63.5 1 0 .02.02.1 0 .06 1.02 2.3.88 1.9.43.8.04.05.02-.05-.1-.4.9 2.45 2.8 6.73 2.77 7.1l7.47 17.82c.17.7-.44-.65-1.15-2.34l1.68 4.15c-.14.01-1.02-2.37-1.55-3.64 1.76 5.04 4.24 10.15 6.33 16.05l.57 1.17.12.35c.05-.04.63 1.24.98 2.1.2.87-.27.04.86 2.92.78 2.32 2.57 6.46 3.8 9.43-.6-1.62-.34-1.12-.04-.44.56 1.44.78 2.32 1.25 3.4l-.07.15c.18.16 1.6 3.8 1.85 4.27.2.86-.96-2.2-1.18-2.53l3.37 8.67c1.92 3.3-.3-.65.72.87.9 1.4 2.7 2 4.28 1.6l4.54-1.36-1.06.18 4.92-1.58.15.37.62 1.43c.43.97.88 1.98 1.25 3.08l.24.42.04.13c.03-.02.26.45.4.76.05.33-.16.04.26 1.1.27.87.96 2.4 1.4 3.5-.2-.6-.1-.42.02-.17.2.54.25.87.43 1.27l-.07.08c.01-.24.6 1.37.7 1.56.04.33-.36-.82-.45-.93l.85 2.42c-.3-.12-.6-.23-.9-.34.1.08.1.13.1.14.05.13.07.32.1.52l-.14-.12c.3 1.3-.26.16 0 1.45l.2.3c.18.55.12.64.08.78-.02.07-.04.14-.02.28.01.07.02.14.05.24s.07.22.12.27c-.05-.3.26-.12.24.17l-.13-.07c.04.16.1.22.08.33-.07-.1-.18-.04-.14.2l-.17-.15.27.44c-.1.37.12.92-.03 1.1 0 0-.01.78.2.94-.13-.14-.13.3-.28.18.07.07.16.44.2.73.06.3.1.64.08.92.05.03.1.05.12.08l-.1-.01c.35.15.7.27 1.05.38a14.414 14.414 0 0 0 .28 2.37c.2.72.44 1.35.82 1.75.1.1.17.2.26.3.1.07.2.14.3.2s.18.13.27.18c.03.01.07.02.1.03-.38.1-.56.17-.65.17-.1.01-.12-.04-.2-.05.06.1-.77.6-1.2 1.37.05-.12.1-.24.18-.35-.25.33-.43.7-.54 1.1-.05.2-.08.4-.1.6l-.04.47.27-.35c-.17 1-.3.23-.35 1.18l.2.01-.08.52-.03.18c-.16-.01-.33-.03-.48-.04-.04 1.24-.07 2.44-.03 2.82.03.53.1.9.18 1.03s.2 0 .38-.46c.02-.05.04-.12.06-.18l-.04.67c-.07 1 .43 1.95 1.24 2.45-.3-.13-.54-.3-.74-.48-.63-.6-.83-1.26-.95-1.67-.18-.84-.32-.73-.47-.36-.18.52-.13 1.6.37 2.42.23.4.54.73.8.94s.43.3.43.3a3.713 3.713 0 0 0 1.13.47c.42.08.62.1.86.13l1.4.17c.9.1 1.74.16 2.6.2 1.74.1 3.6.16 6.16.38 4.5.54 5.67.93 10.35 1.3 2.23.25 4.6.44 6.8.63 1.05-.1 2.86.3 4.1.24l.46.17c.43-.02.92-.01 1.34.1l-.03.03c.64-.03 1.34.1 1.66.1l-.03.03.77.06-.14.04c1.1.02 2.24.13 3.23.28l-.07-.15c2.12.38 2.92.16 4.83.55l-.03.03c2.47-.13 3.82.66 6.36.56-.32.01.13.1.1.12 1.16.08 2.4.18 2.44-.1.84.1.68.16.78.28.01-.13.74-.1 1.4-.04l-.3.02 1.4.12c.2.01.4 0 .6-.02-.16-.06-.32-.13-.47-.22.6.04.68.05.77.1.08.03.17.1.73-.16l-.1-.17c.76-.32 1.3-.76 1.72-1.35.2-.3.37-.64.45-1 .1-.34.16-.6.23-.93l.1-1.07c.04 0 .08.01.13.01l.25-2.8.07-.97c0-.4-.04-.86-.15-1.23zM115.52 319.23l.7 3.4-.83-3.36c.04-.02.1-.03.13-.04zM92.3 331.88c.1-2.48 1-3.74 1.13-6.3-.02.32.1-.12.13-.1l.24-1.62c.07-.53-.02-1.02-.17-1-.02-.25-.04-.43-.06-.56.5-.32 1.1-.4 1.1-.4 1.22-.2 2.45-.05 3.6.08-.1.3-.2.6-.4.87.15.03-.1.37.12.36-.16.82-.94 1.2-.54 1.7-.12.35-.3.35-.4.5l.01-.1c-.24.65-.3.84-.54 1.3-.05.26.17.4-.07.8-.04-.18-.1 0-.16.16.03-.1.01-.15-.15.02.02.04.02.1.01.14h-.03c-.08.28-.03.25.04.13.01.01.04.01.08-.02-.25.22-.33.77-.5.73-.3.8-.4 1.45-.62 2.14-.12.04-.13-.15-.07-.36l-.18.48c-.12-.06.05-.3.1-.46-.44.47-.3 1.24-.78 1.8l.04.18-.03.03c.05.02.06.2.03.3-.15.05-.24-.12-.38.2-.22.2-.27.75-.36 1.1.1-.17.13-.1.13.01-.07.16-.22.2-.23.35l-.15-.05c.16 0-.04.5-.01.57-.15.04.02-.3-.04-.37l-.4.98c-.04.4.16 0 .22.22-.1.32-.14.66-.38.97l.18-.05c-.1.4-.2.7-.36.93l-1.1-.42c.05-.22.1-.46.14-.67l-.16.05c.57-2.07.43-2.9 1-4.76l.02.05zm-9.74 47.3c-.06-.02-.12-.05-.18-.07-.01-.22-.08-.27-.22-.14-.05-.04-.1-.07-.15-.1-.01-.01-.02-.03-.03-.04l-.01.05c-.05.23-.14.44-.25.65-.55.6-1.8 1.6-4.02.43l.1-.03c-.36-.1-.34-.1-.46-.14-.05-.02-.1-.03-.14-.05l.2-1 .32-1.84.63-3.66.03-.15c.2-.7.4-1.4.42-2.08.01.05.08.1.03.4.15-.92.33-2.2.5-2.22l.57-3 .1-.1c.13-.03.1-.5.1-.93a32.939 32.939 0 0 0 .24-1.59c.03-.06.05-.06.05.08.12-.55.08-.57.1-.97l.25-.56c.53-2.14.64-4.03 1.14-6.3.8-2.68 1.58-7.88 2.02-10.87.01-.05.02-.1.02-.15.07-.3.12-.57.13-.83l.1-.7c.2-.73.45-.57.5-1.84l.28-.54c.15-.63-.1-.5.1-1.18.1.06.26-.87.28-.44.48-1.55.4-3.27 1.1-5.3-.03-.1-.03-.26-.02-.42.1-.62.2-1.24.28-1.85.02-.05.03-.13.04-.2.12-.52.25-1.08.22-.3 0 .1-.04.28-.07.26l.1.17c.46-1.15.3-2.2.57-3.36-.1.34-.2.8-.2.48l.23-1.1.06.25.38-1.62-.17.2c.22-.8.5-1.02.5-1.96-.02-.43-.32.72-.2-.13l.52-1.88.26-.96c.03-.05.05-.1.07-.15-.07-.07-.1-.12-.1-.2.02-.01.06-.01.1-.01l.07.14c.05-.03.12-.02.15 0 .02.01.03.03.03.04.04.02.07.05.1.07.12.1.24.2.97.3l.3-.12c.32 0 .4 0 .47.05.08.04.1.1.14.14.06.12.13.15.5.4-.23-.26.15-.34.33.15l-.16-.06c.13.22.2.3.2.48-.1-.14-.16-.05-.14.3-.05-.08-.1-.15-.16-.22.05.1.1.2.12.3.03.1.04.24.03.45-.3.8-.4 2.16-.62 2.47 0 0-.43 1.77-.33 2.22-.04-.38-.28.6-.36.3.04.5-.13 1.88-.37 2.4l.01-.1c-.54 2-.5 3.5-1.02 5.3.15-.05-.08.8.1.7-.03.3-.07.56-.1.82-.2 1.05-.54 1.92-.6 2.58l-.12.38c-.32 1-.64 2.02-.64 3.02-.04.06-.01.23.02.24l-.37 1.77s-.54 2.72-.48 4c-.08.38-.15.7-.24.7-.24 1.34-.36 2.43-.5 3.5-.13-.05-.26-.1-.4-.14-.15.76-.28 1.58-.4 2.32-.02.17-.04.34-.07.5-.01.1-.02.2-.02.3-.01.2-.03.38-.04.55.01 1.5-1.17 3.02-1.12 4.57-.04.04 0 .18.03.18l-.3 1.35s-.52 2.35-.34 3.24c-.03.18-.08.45-.2 1.1-.06.9.18-.13.23.32-.12.78-.16 1.55-.43 2.42l.2-.25c-.18 1.47-.37 2.33-.7 3.28-.34 3.67-.33 5.18-.17 5.56zm6.96-6.43l-.22.24c-.18.07-.72 1.85-.95 2.03l-.33.76c-.13.2-.4.6-.2.23-.37.66-.36.68-.6 1.16-.16.22-.34.4-.5.6-.43.56-.88 1.06-1.38 1.36-.5.3-.97.33-1.68.26-.3-.02-.6-.08-.88-.16.4-.36 1.06-3.05 1.06-3.05.76-2.8 1.03-4.74 1.4-7.23 1.07.52 1.92.48 3.43.9.73.3 1.17.54 1.63.77l.33.16-1.07 1.95zm8.15-14.33c-.12-.14-.25-.28-.4-.4-1.8-.75-3.92-1-5.5-1.96l-.02-.17c.04-.2-.58.12-.57-.1l-.23.02c-.04-.06-.14-.14-.03-.15-.18-.08-.2-.04-.35-.03l-.15-.2c-.34-.18-.7-.27-1.04-.35-.18-.04-.36-.1-.53-.13-.18-.05-.32-.1-.7-.25l-.06-.03c.01-.07.02-.14.04-.2.16-.75.3-1.52.45-2.3 1.57.9 2.66.96 4.76 1.7 1.87.85 2.27 1.3 4.28 2.02.4.18.84.34 1.26.5l-1.22 2zm14.6-14.95c.4-.15-.2.01-.16-.02-1.54.46-3.18 1-3.15 1.18-1.02.34-.95.28-1.06.26-.05-.03-.1-.05-.22-.1l-.1.16c-.43-.2-.56-.36-.76-.56-.2-.2-.36-.4-.6-.58-2.28-1.1-4.97-1.77-6.98-3.05l-.03-.18c.02-.1-.13-.1-.3-.1.32-.8.7-1.66.68-2.2l.03.06c-.03-.4.15-.42.2-.82.03-.01.05-.03.06-.02-.02-.42.4-1.03.45-1.34h.1l.27-.7-.13.25c-.24-.2.4-.45.43-1.03.23-.45-.2-1.2.16-1.63-.03-.3.13.3.17-.1.15.05.02.2.18.16.07-.37.4-.5.46-.96l.12.03c.02-.64.6-.97.54-1.42.14-.6.5-.24.52-.92l.25-.16c.13-.24-.1-.26.08-.5.1.06.23-.32.25-.12.42-.57.32-1.38.93-2.1-.1-.26.18-.63.1-.83.1.01.37-.84.35-.3 0 .05-.04.12-.07.1l.1.1c.4-.4.25-.9.48-1.37-.1.12-.16.3-.2.16l.2-.43.06.13.33-.63-.16.04c.1-.15.2-.23.3-.32.04-.05.08-.1.1-.17.01-.05.08-.25.1-.4.02-.3-.38.47-.18-.1a50.072 50.072 0 0 0 .71-1.32l3.72-1.06 3.76-1.05.68 3.6 2.98 14.93.8 3.63c-2.18.6-3.97.87-6.53 1.77zm178.6 45.77c.01 0 .03-.01.04-.01l.14.32c-.03 0-.1-.13-.18-.3zm56.4 29.24c.23-.75.44-1.22.62-1.7l.14-.36.07-.2c.02-.06.04-.12.06-.2l2.08.92.26.2c.08.17 1.9.56 2.1.78l.78.27c.2.1.63.34.25.2.7.3.7.3 1.2.52l.65.46c.6.4 1.12.8 1.43 1.27.1.1.15.23.2.36.06.12.1.25.1.38.03.12.04.27.04.45.01.17 0 .33 0 .5 0 .38-.08.8-.2 1.1-.44-.36-3.12-.77-3.12-.77-2.83-.5-4.78-.6-7.26-.72.38-1.1.27-1.96.57-3.5zm9.7 5.2c-.04.08-.1.13-.13.2-.05.02-.07.04-.07.08-.04.03-.1.06-.14.05l-.5-.05c-.15-.02-.3-.04-.46-.05.7-.07 1.1-.14 1.3-.22zM328.27 420v.02h-.01l.01-.02zm-30.32-15.53c-.46-1.32-1-2.76-1.63-4.42l-2.38-6.46-1.1-2.82-.65-1.62c-.04-.1-.07-.18-.1-.27 2.06-.63 3.86-1.15 5.8-1.66l8.44-2.9 8-2.47-.4.12.06.2.05-.14c.84 2.84 1.36 3.8 2.1 6.37l-.03-.03c1.32 3.12 1.6 5.1 3.03 8.3-.18-.4.02.2-.01.16.6 1.5 1.27 3.1 1.44 3.04.17.4.26.6.3.75-.08.12-.15.26-.23.4.1-.01.2-.01.27 0-.3.48-.3-.1-.46.55l.17.1c-.17.44-.32.62-.5.82s-.35.4-.52.66c-.9 2.37-1.3 5.1-2.4 7.23l-.17.05c-.12-.02-.08.22-.06.43-.8-.25-1.72-.55-2.25-.5l.05-.03c-.4.07-.44-.1-.83-.14-.01-.03-.04-.05-.03-.05-.4.05-1.06-.3-1.37-.33l.02-.1-.72-.2.26.1c-.2.26-.48-.36-1.06-.33-.47-.2-1.18.3-1.64-.02-.28.06.28-.15-.1-.16.04-.16.2-.04.15-.2-.38-.04-.53-.34-1-.38l.02-.12c-.64.03-1.02-.5-1.47-.42-.62-.1-.28-.48-.96-.44l-.2-.24c-.25-.1-.25.14-.5-.03.05-.1-.34-.2-.14-.24-.6-.37-1.4-.2-2.18-.75-.25.14-.65-.12-.83-.02 0-.1-.87-.3-.32-.32.05 0 .12.02.1.06l.1-.1c-.42-.38-.93-.17-1.4-.36.13.08.33.14.17.18l-.45-.16.13-.07-.66-.27.05.15c-.15-.08-.24-.2-.35-.26-.06-.04-.1-.06-.2-.1-.13-.04-.28-.06-.45-.07-.3.01.5.34-.08.2l-.76-.33c-.04-.12-.1-.24-.13-.38zM299.5 417l-.26-.4c-.07-.13-.1-.28-.16-.4-.1-.2-.13-.38-.13-.38-.2-.84-.24-1.7-.23-2.53.28.06.56.13.84.3.01-.15.38.06.34-.15.83.08 1.3.82 1.75.37.36.1.38.26.55.35h-.1c.68.17.87.23 1.35.4.26.03.38-.2.8-.01-.17.05.01.1.17.15-.1-.02-.15.01.04.15.04-.02.1-.02.14-.03 0 .01.01.02 0 .03.3.06.25.01.13-.05.01-.01.01-.04-.02-.08.24.22.8.25.77.44.84.23 1.48.25 2.2.4.05.1-.14.14-.35.1l.5.13c-.05.13-.3-.02-.46-.04.5.4 1.26.2 1.88.6l.17-.05.03.03c.02-.05.2-.08.3-.06.06.14-.1.25.25.36.23.2.77.2 1.14.25-.18-.08-.1-.12-.01-.13.17.05.23.2.38.2l-.03.16c-.02-.16.5-.01.57-.05.06.14-.3.01-.36.08l1.02.3c.4.01-.02-.16.2-.24.33.08.67.07 1 .28l-.07-.17c.37.06.65.13.88.23l-.34 1.2c-.2-.03-.4-.04-.6-.07l.07.15c-2.12-.38-2.93-.16-4.83-.55l.03-.03c-2.47.13-3.82-.66-6.36-.56.32-.01-.13-.1-.1-.12-.58-.04-1.18-.1-1.64-.1-.23 0-.4.02-.57.06-.01-.01-.03-.01-.04-.01-.14-.1-.32-.13-.45-.24-.15-.12-.28-.2-.4-.33zm9.6 6.82c-.05-.02-.14-.02-.22-.02.03 0 .05 0 .1-.01.1 0 .22.01.25.03h-.12zm49.2 4.6l-.04-.1c-.06.38-.07.42-.1.53-.01.03-.01.05-.02.08l-1.22-.12-1.87-.15-3.74-.3-1.84-.16c.05-.02.13-.04.3-.02-.93-.06-2.2-.13-2.26-.3l-2.94-.28-.4-.06-.2-.17c-.08-.22-1.46.17-1.64-.05l-.6.03c-.17-.06-.52-.13-.2-.15-.55-.07-.57-.03-.98-.01l-.58-.2c-2.18-.33-4.07-.27-6.38-.56-2.74-.56-8-.86-11-1.03-.64-.02-1.3-.07-1.96-.14-.23-.1-.48-.17-1.17-.13-.02 0-.05-.01-.07-.01l-.54-.22c-.4-.06-.5.02-.68.05-.17-.03-.35-.05-.52-.07-.12-.1-.83-.15-.44-.2-.73-.15-1.5-.2-2.3-.23-1.9-.3-3.8-.56-5.6-.6l.13-.1c-1.18-.36-2.2-.1-3.4-.26.27.06.6.1.6.13l-1.13-.13.16-.05-1.65-.23.2.14h-.04c-.76-.15-1.04-.38-1.95-.3-.17.02-.1.07.02.1l-1.25-.1c-.26-.05-.52-.1-.8-.14l-1.02-.17c-.05-.02-.1-.04-.16-.06-.07.08-.12.1-.2.12-.01-.02-.01-.05-.02-.1l.13-.08c-.04-.05-.04-.1-.02-.14.01-.02.02-.03.04-.03l.06-.1c.1-.13.18-.25.18-1l-.15-.27c-.01-.15-.02-.25-.02-.34 0-.07.02-.12.03-.16a.432.432 0 0 1 .13-.16c.1-.08.13-.15.35-.57-.23.27-.36-.1.12-.35l-.04.17c.2-.16.28-.23.46-.27-.13.12-.02.17.33.1-.07.07-.14.12-.2.2.1-.07.2-.12.3-.16.12-.05.17-.08.4-.1.83.22 2.18.2 2.5.4 0 0 1.8.27 2.24.13-.37.08.62.22.32.33.48-.08 1.88-.04 2.42.15h-.1c2.04.35 3.53.17 5.36.53-.07-.15.9.03.67-.18 1.7.01 3.1.58 3.9.36 1 .23 2.02.46 3 .38.06.04.23-.01.23-.04l1.8.23s2.53.3 3.85.18c.48.05.9.1.93.2 1.4.12 2.54.14 3.67.17-.04.14-.08.27-.1.4.76.07 1.56.13 2.27.17.17.01.35.02.5.02h.3c.2 0 .37-.01.53-.01 1.5-.15 3.1.9 4.66.7.05.04.18-.02.18-.04l1.37.2s2.45.3 3.3.03l1.03.1c.9-.03-.15-.16.3-.26.78.05 1.56.02 2.45.2l-.27-.17c1.48.04 2.36.15 3.33.4l2.4-.03 2.88.3c.24.03.46.1.67.2.3.22.68.55.95 1.1a2.218 2.218 0 0 1 .24 1.17c0 .3-.2.98-.33 1.62z"/><g fill="#fff"><path d="M225.8 231.62c2.76 5.74 3.36 7.33 6.33 13.22l4.3 8.57c.77 1.25 1.8 3.62 2.67 5.1l.24.63c.3.52.64 1.13.87 1.68l-.04-.02c.45.77.87 1.68 1.1 2.07l-.04-.02.5.96-.1-.15c.75 1.36 1.48 2.78 2.1 4.05l.02-.14c1.27 2.73 1.95 3.63 3.08 6.1l-.04-.02c1.77 2.95 2.36 4.9 4.2 7.93-.23-.38.05.2.01.17.8 1.43 1.63 2.96 1.8 2.9.56 1.05.4.88.43 1.05.06-.04.6.85 1.05 1.66L254 287l1.3 2.32-.13-.53c.65 1.25.02.4.7 1.56l.1-.07c.94 1.7 1.35 2.8 2.17 4.48 1.86 3.44 3.82 7 5.56 10.6 1.76 3.58 3.26 7.2 4.43 10.65l.03.33c-.07.17.87 1.82.85 2.12l.34.78c.06.23.2.7.04.33.26.74.3.75.5 1.27l.2.82c.98 2.94 2 5.37 3.1 8.45 1.2 3.73 3.73 10.64 5.17 14.64 2.1 5.6 3.8 12.34 5.94 18.07.04.2.25.67.26.66l1.73 5.32 3.5 10.4c1.4 3.96 2.16 5.43-.52-4.53l.07.12c-.9-2.93-1.47-4.77-2.26-6.73.06-.37-.77-2.4-.94-3.1l.03.06c-.7-1.73-1.1-3.7-1.78-5.36.03.06.1.08.23.48-.43-1.24-1.03-2.93-.97-3.05-1-2.97-2.36-7.13-3.15-8.98l.07.12c-.47-1.05-.5-1.4-.95-2.6-.01-.07-.03-.16-.02-.15-.5-1.15-1.2-3.44-1.56-4.38l.04-.08-.82-2.34.3.88c-.28-.24-.5-1.8-1.2-3.48-.54-1.6-1.48-3.1-2-4.78-.36-.76.38.64-.1-.5.08-.07.25.53.22.2-.46-1.14-.6-1.93-1.16-3.32l.05-.08c-.8-1.8-1.16-3.53-1.73-4.72-.74-1.9-.25-1.36-1.1-3.3l-.18-.8c-.3-.86-.34-.57-.64-1.53.08.04-.4-1.2-.13-.68-.7-2.17-1.75-4.28-2.77-7.1-.37-.55-.9-1.97-1.2-2.37.03-.1-1.26-2.76-.44-1.27.07.13.17.36.15.36l.15.15c-.6-1.62-1.4-2.8-2.13-4.3.2.46.5 1.06.26.68l-.7-1.4.2.27-1.04-2.1.08.32c-.5-1.04-.56-1.46-1.27-2.54-.33-.5.42 1-.17-.05-.67-1.38-1.7-3.43-2.64-5.15.01.2-.24-.26-.52-.72l.03-.1c-1.1-1.76-.23-.74-1.3-2.5l.13.13-.4-.4c-1.03-1.55-.35-.95-1.52-2.65.4.7.04.4-.42-.48l.2.2c-.28-.48-.4-.63-.56-.96.2.27.17.1-.22-.6l.34.44-.84-1.3c-.5-1.1-1.47-2.7-1.6-3.18 0 0-1.14-2.3-1.5-2.76.3.42-.33-.84-.07-.52-.38-.55-1.34-2.26-1.62-3l.08.13c-1.25-2.62-2.38-4.36-3.46-6.73-.02.15-.6-1.1-.55-.75-1.32-2.35-2.02-4.48-2.76-5.2-.57-1.1-.58-1.33-.85-1.9l.15.25-2.1-4.16c-.4-.75-.6-.8-1.26-2.18.28.4-.01-.14-.27-.65.17.32.24.4-.05-.28-.06-.1-.15-.23-.22-.36 0-.01-.01-.04 0-.03-.44-.84-.4-.7-.2-.3-.02-.02-.01.02.03.15-.37-.92-1.23-2.47-1.2-2.62l-3.4-6.46c-.07-.27.22.2.55.82l-.76-1.5c.08-.02.47.85.7 1.3-.77-1.86-1.95-3.67-2.88-5.84l-.27-.4-.05-.13c-.03.02-.3-.43-.46-.74-.08-.33.16-.05-.36-1.1-.35-.86-1.2-2.34-1.75-3.4.28.6.15.42 0 .18-.26-.52-.34-.86-.57-1.25l.06-.1c.02.25-.76-1.33-.88-1.5-.08-.33.45.8.56.9l-1.55-3.15c-.6-1.1.02.24-.32-.26-.5-.98-1.03-1.93-1.53-3.1l.1.4c-.97-1.84-1.5-2.96-2.03-4.25-7.33-13.62-2.26-2.53-2.26-2.53 2.54 5.53 4.13 8.25 7.36 14.73zm-91.4 86.48l8.4-3.08 5.43-2.18c.78-.45 2.3-.9 3.23-1.4l.4-.08c.32-.17.7-.35 1.06-.45l-.01.03c.48-.25 1.06-.45 1.3-.58v.03l.6-.26-.1.07 2.57-1.08-.1-.05 3.87-1.56-.01.03c1.84-1.03 3.12-1.13 5.02-2.2-.24.13.12 0 .1.02.9-.42 1.88-.85 1.82-1.02.67-.3.56-.2.68-.16-.03-.06.53-.35 1.04-.6l-.23.13 1.47-.7h-.35c.8-.32.27.07 1-.3l-.06-.1c1.1-.46 1.8-.6 2.88-1.03 4.34-2.04 8.85-4.5 12.95-6.27h.22c.14.08 1.02-.73 1.22-.7l.44-.3c.14-.05.42-.17.2-.02.43-.23.43-.25.72-.45l.5-.18c1.7-.9 3.02-1.88 4.62-3.14 1-.7 2.3-1.94 3.4-3.33 1.12-1.38 2.12-2.87 2.8-3.98 1.9-3.14 4.33-6.7 5.7-10.2.07-.1.16-.4.15-.4l1.4-3.13.9-2.22c.5-1.27 1.07-2.85 1.46-4.08.38-1.23.58-2.1.37-1.95s-.8 1.36-2.18 4.18v-.1c-.74 1.7-1.2 2.78-1.57 4.02-.24.12-.62 1.4-.85 1.77v-.04c-.34 1.1-1.07 2.08-1.43 3.12.01-.04-.03-.1.08-.3-.32.73-.78 1.72-.9 1.73-.83 1.7-2.14 4-2.66 5.1l.02-.1c-.27.65-.44.78-.83 1.45-.03.03-.07.07-.07.06-.3.7-1.22 1.83-1.55 2.35h-.08l-.9 1.2.35-.43c.03.27-.77.83-1.4 1.72-.67.75-1.12 1.78-1.97 2.43-.3.4.24-.4-.28.15-.08-.05.22-.28.03-.2-.55.5-.97.72-1.68 1.3l-.07-.04c-.87.8-1.9 1.16-2.52 1.67-1.03.68-.82.2-1.87.96l-.5.14c-.5.23-.3.3-.86.52 0-.07-.7.3-.42.1-1.28.53-2.45 1.36-4.17 2-.3.28-1.17.6-1.4.82-.07-.03-1.67.78-.78.23.08-.05.22-.1.22-.1l.08-.12c-1 .32-1.67.9-2.6 1.3.3-.1.65-.3.43-.13l-.87.4.15-.14-1.3.6.2-.02c-.65.27-.92.26-1.6.7-.3.2.64-.2-.01.15l-3.24 1.37c.14.03-.15.16-.44.32l-.07-.05c-1.1.6-.5.04-1.6.63l.08-.1-.24.28c-.97.6-.62.1-1.68.8.45-.22.28.06-.3.27l.1-.13c-.3.15-.4.22-.6.3.17-.12.06-.14-.4.07l.27-.22-.8.5c-.7.22-1.7.76-2.03.8 0 0-1.45.57-1.74.8.26-.2-.54.12-.35-.05-.34.23-1.42.75-1.9.86l.08-.04c-1.66.6-2.75 1.26-4.26 1.77.1.05-.7.33-.46.35-1.48.72-2.86.9-3.28 1.45-.7.3-.85.26-1.22.38l.16-.08c-1.3.55-1.67.7-2.64 1.07-.47.22-.5.4-1.37.7.26-.17-.1-.02-.42.1.2-.1.26-.14-.18-.01-.05.04-.14.1-.22.13-.01 0-.02 0-.02-.01-.53.23-.43.2-.18.12-.01.01.02.02.1 0-.6.14-1.56.62-1.67.54-1.62.66-2.74 1.22-4.08 1.78-.17.01.13-.16.5-.33l-.95.4c-.02-.08.54-.26.83-.4-1.2.32-2.3 1.04-3.7 1.44l-.26.17-.08.02c.02.03-.27.2-.46.27-.22.01-.04-.16-.7.1-.55.14-1.48.6-2.16.9.38-.13.27-.05.12.04-.33.13-.55.14-.8.26l-.07-.08c.16.03-.84.42-.95.5-.2.01.5-.25.56-.33l-2 .77c-.7.34.16.03-.15.24-.62.25-1.22.55-1.96.77h.26c-1.16.5-1.87.76-2.7.98-8.6 3.92-1.54 1.57-1.54 1.57 3.54-1.1 5.25-2 9.36-3.62zm69.32-79.67l.06.2c.01-.01 0-.07-.06-.2zm26.82 47.47l.03.04c-.02-.03-.03-.04-.03-.04zm-24.2-39.42l-.01-.01c-.01-.02-.02-.03-.03-.05l.04.06z"/><path d="M201.6 236.53l2.77 6.05 1.96 3.88c.4.54.82 1.64 1.27 2.3l.07.3c.15.23.32.5.4.76h-.03c.23.34.4.76.53.92l-.03-.01.23.43-.06-.06c.37.6.7 1.25.98 1.83l.05-.1c.55 1.26.94 1.62 1.4 2.77l-.03-.01c.94 1.27 1.02 2.26 1.98 3.57-.12-.16 0 .1-.02.1.38.64.77 1.33.93 1.25.26.47.17.4.14.5.06-.04.32.36.53.72l-.12-.16.62 1.04v-.28c.28.58-.07.23.27.74l.1-.07c.43.78.52 1.33.9 2.1 1.8 3.1 4.1 6.16 5.66 9.1v.17c-.08.12.64.68.6.85l.25.3c.04.1.14.3.01.16.18.3.2.3.37.5l.13.37c.7 1.23 1.45 2.16 2.2 3.43.8 1.6 2.7 4.36 3.78 5.95 1.6 2.2 2.82 5.15 4.47 7.4.03.1.2.26.2.25l1.32 2.17s6.45 10.48 2.42 1.98l.06.04c-.67-1.22-1.12-1.97-1.75-2.7.07-.22-.6-.98-.7-1.3l.03.02c-.56-.65-.83-1.54-1.36-2.17.03.02.08.01.18.17-.33-.5-.8-1.17-.73-1.26-.77-1.2-1.78-2.9-2.4-3.6l.06.04c-.37-.38-.37-.56-.72-1.03-.01-.03-.02-.07-.01-.07-.4-.42-.88-1.4-1.16-1.76l.04-.06-.6-.95.2.37c-.23-.03-.35-.78-.88-1.42-.38-.66-1.14-1.12-1.48-1.84-.27-.28.3.2-.06-.24.07-.07.2.2.18.03-.33-.45-.4-.83-.8-1.37l.05-.06c-.6-.7-.8-1.5-1.23-1.92-.54-.75-.14-.64-.77-1.38l-.1-.37c-.2-.36-.26-.18-.46-.6.07-.01-.26-.52-.07-.32-.46-.93-1.22-1.7-1.8-2.95-.26-.2-.56-.8-.75-.94.03-.06-.7-1.17-.2-.58.04.05.1.15.08.16l.1.04c-.3-.73-.8-1.16-1.2-1.82.1.2.26.46.1.3l-.37-.6.13.1-.53-.92.01.16c-.24-.46-.23-.7-.62-1.13-.2-.2.17.47-.14.02-.3-.62-.8-1.54-1.2-2.3-.03.12-.15-.1-.3-.3l.05-.06c-.56-.76-.03-.38-.56-1.14l.1.05-.26-.14c-.54-.66-.1-.46-.72-1.18.2.32-.06.23-.25-.18l.12.07c-.13-.2-.2-.27-.27-.43.1.1.13.02-.06-.3l.2.17-.45-.55c-.2-.5-.7-1.2-.7-1.45 0 0-.5-1.05-.73-1.23.17.17-.1-.4.05-.28-.2-.23-.7-.98-.78-1.33l.04.05c-.54-1.2-1.14-1.94-1.6-3.03-.05.1-.3-.5-.33-.3-.65-1.04-.8-2.1-1.32-2.32-.27-.5-.23-.62-.34-.9l.08.1-.97-1.88c-.2-.33-.37-.3-.65-.95.16.17.02-.08-.1-.3.08.14.13.18.01-.14-.04-.03-.08-.1-.12-.15 0 0 0-.02.01-.02-.2-.38-.2-.3-.1-.12-.01 0-.02.02-.01.08-.12-.44-.56-1.12-.48-1.22-.6-1.15-1.1-1.94-1.62-2.9 0-.13.15.07.3.34l-.35-.68c.08-.03.23.38.35.58-.28-.88-.94-1.64-1.3-2.65l-.15-.17-.02-.06c-.03.02-.17-.18-.25-.32 0-.17.15-.06-.08-.54-.12-.4-.55-1.06-.82-1.54.12.27.04.2-.04.1-.12-.24-.12-.4-.23-.58l.07-.06c-.04.13-.38-.58-.46-.66 0-.17.23.35.3.38l-.7-1.43c-.3-.48-.04.13-.23-.08-.23-.44-.5-.86-.7-1.4v.2c-.46-.82-.7-1.34-.88-1.95-3.57-6.08-1.47-.95-1.47-.95 1.04 2.65 1.87 3.84 3.34 6.78z"/></g></svg>