<svg xmlns="http://www.w3.org/2000/svg" viewBox="0 0 480 480" xmlns:v="https://vecta.io/nano"><path d="M89.58 322.7c.5-5.3 10.1-.7 13.3-1.9 24.5-8.3 38.1-17.9 53-24.5 14.4-6.4 29.6-13.4 35.1-16.6 4.1-2.4 8.6-21.4 8.6-21.4l41.5 11.4s-6.3 19.8-11.7 28c-3.5 5.2-15.6 9-19 10-51.5 15.9-98.5 30.7-106.4 37.3-2.4 2-13.55 9.35-19.35 19.85-3.2 5.7 4.95-42.15 4.95-42.15zm209.2 94.4c-3 0-3.7-3.8-3-8.5.5-3.5 2.4-7.5 1.2-11-1.6-4.5-9.9-24.8-20.1-48.4-8.3-19.2-11.3-34.6-13.2-43.3-1-4.4-23.8-39.5-23.8-39.5l38.7-11s11 25.4 13.7 34.2c3.6 12.2 7.4 36.3 12.4 57.5 6.2 25.8 11.2 48.8 14.1 52.7 1.9 2.5 12.9 12.1 23.9 17.1 5.9 2.7 8.3 4.5 8.4 7.4s-1.3 4.8-1.3 4.8l-51-12zM83.23 321.02c-.32.96-.5 1.82-.67 3.3l.2-.26c-.26.87-.3 1.64-.4 2.42.06.44.28-.6.23.3l-.44 2.47c-.07-.12.1-.98-.05-.77.04.16-.18 1.4-.01 1.26l-.16.01c-.01.32-.17.54-.24.95 0 .2.04.36.15-.1-.1.86-.16 2.08-.4 2.7-.15.82-.25.54-.4.76-.03.25-.02.63.03.64l-.04.1.04.36c-.5 1.62-.36 3.2-.84 4.56.04-.37.22-1.03.1-1.06l-.2 1.2c.06-.5.05-.9-.08-.72l-.67 5.16c-.2.05-.28 1.32-.55 1.98.05-.1.07-.1.08-.1.07-.3.13-.42.04.26-.01-.01-.02.01-.03.01 0 .1-.01.23.01.3-.17.5-.2.43-.16.17-.08.4-.14.84-.18.48-.26 1.06-.02 1.2-.08 1.8l-.58 3.28.01-.2c-.1.44-.3.57-.44 1.43.43.8-.4 2.24-.58 4.16.23-.2-.03.75.13.7-.5 1.8-.45 3.3-.98 5.3v-.1c-.24.52-.4 1.92-.35 2.4-.08-.3-.3.67-.35.3.1.45-.3 2.23-.3 2.23-.23.3-.32 1.66-.6 2.47l.01 1.12-.08-.4c-.1.58-.22.66-.24.42-.07.25-.05.4-.1.8l-.08-.2c-.2.7.05 1.05.13.48.03.75-.05.96-.14 1.14-.04.1-.1.18-.13.33-.02.07-.03.16-.04.28s-.02.26 0 .34c.07.1.16.15.25.2l-.1-.06c.08.34.06.4.01.5-.04.08-.1.23.26.5l-.07.1c.2.15.38.25.4.1.16.1.28.17.53.22l1.5.36.14.06.3.12c.01-.02.02-.04.02-.05.02-.3-.1-.01-.17-.23-.06-.16-.05-.16 0-.2l.32-.93-.17.2.37-1.62.06.25c-.01-.17 0-.4.03-.66-.01.02-.01.04-.02.06l.03-.17.1-.8c.07-.8.08-1.57.4-2.4v.04c.28-2.05.85-3.5 1.13-5.47l.03-.23.1-1 .03.04.1-.35.15-.6c.38-1.7.38-2.77.94-4.98l-.16.07.7-3.97v.17l.16-.94.03.04c.03-.4.25-1.25.3-2.05l.03.04c.16-.5.24-1.12.27-1.65l.23-.56c.1-1.54.74-3.74.77-5.05l1.5-8.34c.97-5.76 1.52-7.18 2.63-12.7l.66-4.17.18-1.12c-.38-.15-.75-.28-1-.4l-.65-.1c-1-.2-2 .24-2.55 1.02-.08.15-.16.3-.2.5-.08.44-.05 1.06-.13 1.75z" fill="#fff"/><path d="M355.16 428l-.03-.33c-.03.12-.07.2-.1.3-.03-.01-.06-.01-.1-.02-.02-.56-.01-.67.04-.76.02-.05.04-.1.02-.26-.03-.17-.07-.35-.17-.65l-.18.07-.78-2.24c-.28-.68-.6-1.33-1.14-2.06-1.23-1.45-2.73-2.5-4.16-3.56l-4.4-3.06c-2.93-2-5.8-3.95-8.38-5.93l-.15-.28c.02-.25-1.65-.75-1.74-1.05l-.68-.34c-.15-.15-.5-.44-.16-.26-.57-.4-.6-.38-1.05-.6l-.54-.53c-2.2-1.63-4.28-2.72-6.65-4.38-.34-.27-.73-.56-1.15-.86-.1-.07-.32-.22-.48-.32-.2-.1-.44-.16-.68-.18-.48-.06-1 .06-1.4.24-.17.08-.32.18-.47.28l-.42-.4c-.35-.36-.72-.73-1.04-1.13-.18-.2-.27-.43-.4-.64-.13-.2-.26-.43-.36-.68-.9-1.9-1.47-3.93-1.88-5.08l.02-.17c-.6-1.93-1.15-3.88-1.7-5.84l.6 2.2c-.4-.7-1.1-4.46-2.3-8.72-1-4-2.37-8.05-3.28-12.25-.56-1.97.55 1.72-.22-1.24.07-.12.4 1.38.28.6-.74-2.9-1.04-4.82-1.96-8.4l.04-.16c-1.24-4.68-2-8.9-2.9-12-1.18-4.84-.55-3.3-1.8-8.34l-.32-2c-.45-2.17-.46-1.53-.9-3.95.1.13-.58-3.06-.23-1.66l-3.64-18.3c-.43-1.54-1.1-5.18-1.42-6.33.02-.2-1.52-7.26-.54-3.22.1.35.2.97.18.93l.17.47c-.73-4.13-1.66-7.44-2.65-11.48.3 1.2.66 2.8.36 1.74l-.95-3.75.27.76-.76-2.8c-.3-.92-.58-1.85-.9-2.75l.2.77-.7-2.12 1.7-1 1.23-.76.3-.2c.1-.06.27-.2.38-.3.24-.2.46-.44.66-.7.4-.54.67-1.23.7-2 .02-.38-.03-.8-.14-1.16l-.25-.9.05.06c-2.36-6.06-2.98-9.84-5.6-16.02.33.77-.05-.36 0-.3-1.1-2.88-2.28-5.96-2.56-5.9-.8-2.1-.57-1.74-.57-2.05-.12.06-.85-1.75-1.5-3.37l.34.73-1.9-4.66.15 1c-.93-2.5.02-.74-1-3.08l-.17.1c-1.36-3.43-1.9-5.53-3.2-8.88-2.96-6.83-6.54-13.65-10.13-20.3l-2.7-4.95-1.35-2.44-.8-1.43-.26-.46c-.02-.04-.04-.1-.07-.1h-.4l-1 .01-10.68.04-.6-.14c-.27-.2-3.8.37-4.32.18l-1.6.12c-.45-.03-1.4-.06-.6-.12-1.48.01-1.52.05-2.58.13l-1.6-.1c-5.85-.02-10.8.3-16.96.35-3.48-.08-8.4-.02-13.48.1l-15.15.43.07 2.32c.16 5.6-.4 11.66-1.2 17.7-.8 6.05-1.84 12.1-2.75 17.76-.05.18-.1.5-.14.8s-.07.52-.05.52l-1.1 5.14-1.2 5.12-.53 2.02c-.36 1.25-.87 3-1.57 4.95-1.37 3.9-3.45 8.62-5.2 12.14-1.74 3.53-3.06 5.94-2.5 5.5.17-.14.54-.58 1.1-1.38l-.88 1.5c-.6.9-.4 2.2.4 2.9.15.15.33.3.52.48-.06-.05-.12-.1-.18-.16-.07.03-.14.07-.22.1-.27-.2-.53-.4-.74-.7-.52-.7-.6-1.48-.5-2.05.04-.3.12-.54.22-.75l.2-.44c.1-.23.14-.36.12-.4-.02-.1-.25.1-.6.5-.5.6-.84 1.77-.44 2.93.1.3.24.58.43.85.12.17.25.3.37.43-.15.07-.33.14-.54.24-.2.12-.53.3-.84.44-.02 0-.08.03-.05.01-1.92.93-1.58.8-.68.38-.04.03.04.01.32-.1-2.04.88-5.6 2.62-5.9 2.63l-14.83 6.9c-.57.2.55-.36 1.96-1L155.5 296c0-.1 1.97-.93 3.03-1.42-4.2 1.7-8.45 3.97-13.2 6.33l-.95.56-.28.14c.02.01-.24.16-.58.36l-1.12.63c-.7.3-.03-.17-2.35 1.06-1.86.9-5.2 2.77-7.6 4.04 1.3-.65.9-.4.36-.1-1.17.6-1.87.87-2.76 1.35l-.12-.02c-.1.14-3.1 1.6-3.48 1.83-.7.26 1.8-.95 2.07-1.14l-3.54 1.72c-.6.27-1.17.6-3.57 1.66-2.52 1.2.5-.13-.7.5l-3.4 1.53c-1.16.52-2.37 1.02-3.7 1.52l.87-.26-2.93 1.22-2.5.95c-1.56.6-2.96 1.06-4.46 1.54l-1.48.55c-.48.2-.93.3-1.4.32-.17.01-.33.01-.5.01.04-.1.08-.2.1-.3.15-.77-.23-1.77-1.1-2.25l-.12-.05c-.88-.4-1.75-.7-1.75-.7-1.3-.5-2.65-.74-3.77-.88-1.2-.14-2.33-.14-3.48-.05-.3.02-.57.05-.86.1l-.6.08-.8.13c-.25.06-.55.07-.77.17l-.03.15a12.279 12.279 0 0 0-.71-.05c-.54-.02-.92 0-1.06.07-.13.08-.02.2.43.43.25.13.7.3 1.16.47l-.18 1.12-.66 4.17c-1.1 5.52-1.66 6.94-2.63 12.7-.54 2.73-1.03 5.66-1.5 8.34-.03 1.3-.66 3.5-.77 5.05l-.23.56c-.04.53-.1 1.14-.27 1.65l-.03-.04c-.06.8-.27 1.65-.3 2.05l-.03-.04-.16.94-.02-.17c-.16 1.37-.42 2.76-.7 3.97l.16-.07c-.56 2.2-.56 3.27-.94 4.98-.06.2-.1.4-.15.6l-.1.35-.03-.04c-.02.35-.06.68-.1 1l-.03.23c-.28 1.98-.85 3.42-1.13 5.47l-.02-.04c-.32.82-.33 1.6-.4 2.4l-.1.8-.03.17c.01-.02.01-.04.02-.06-.03.27-.04.5-.03.66v.01l-.06-.25-.37 1.62.17-.2c-.1.4-.23.65-.32.93-.05.04-.06.04 0 .2.06.22.2-.07.17.23-.01.02-.02.03-.02.05-.1-.04-.2-.08-.3-.12l-.14-.06-.5-.12-1-.24c-.25-.06-.37-.12-.53-.22-.01.16-.2.06-.4-.1l.07-.1c-.35-.27-.3-.42-.26-.5.05-.1.07-.17-.01-.5.03.02.05.04.1.06-.1-.06-.17-.12-.25-.2-.02-.08-.01-.23 0-.34s.03-.2.04-.28c.04-.15.08-.23.13-.33.1-.18.17-.4.14-1.14-.1.57-.32.22-.13-.48l.08.2c.05-.4.02-.53.1-.8.02.24.15.16.24-.42l.08.4-.01-1.12c.28-.8.37-2.16.6-2.47 0 0 .42-1.78.3-2.23.04.38.27-.6.35-.3-.04-.5.1-1.88.35-2.4v.1c.52-2 .46-3.5.98-5.3-.16.06.1-.9-.13-.7.18-1.92 1.02-3.37.58-4.16.13-.86.32-1 .44-1.43v.2c.26-1.62.34-2.1.58-3.28.06-.6-.2-.75.08-1.8.04.36.1-.08.18-.48-.03.26-.01.34.16-.17-.02-.08-.02-.2-.01-.3.01 0 .02-.02.03-.01.1-.67.04-.56-.04-.26-.01-.02-.04 0-.08.1.26-.67.35-1.93.55-1.98.34-2 .42-3.48.67-5.16.13-.17.14.23.08.72l.2-1.2c.13.03-.05.7-.1 1.06.48-1.37.33-2.95.84-4.56l-.04-.36.04-.1c-.06 0-.06-.4-.03-.64.16-.2.26.06.4-.76.23-.63.3-1.85.4-2.7-.1.45-.14.3-.15.1.07-.4.23-.63.24-.95l.16-.01c-.18.14.04-1.1.01-1.26.16-.2-.02.65.05.77l.44-2.47c.05-.9-.18.13-.23-.3.12-.78.15-1.55.4-2.42l-.2.26c.17-1.47.35-2.34.67-3.3.08-.7.05-1.3.2-1.8.15-.5.45-.9.76-1.2.65-.58 1.33-.73 1.76-.8.87-.06.77-.2.43-.42-.5-.26-1.66-.32-2.5.13-.86.4-1.34 1.1-1.34 1.1-.24.33-.44.68-.56 1.06-.07.18-.1.38-.13.52-.03.12-.06.24-.08.36l-.3 1.37c-.17.88-.3 1.72-.42 2.58l-.88 6.1c-.9 4.44-1.4 5.58-2.16 10.2-.44 2.2-.82 4.56-1.2 6.7.02 1.06-.53 2.83-.58 4.07l-.2.45c-.02.43-.07.92-.2 1.33l-.03-.03c-.03.64-.2 1.33-.23 1.65l-.03-.03-.13.76-.02-.14c-.1 1.1-.3 2.22-.54 3.2l.16-.05c-.56 2.08-.4 2.9-.95 4.77l-.03-.03c-.08 2.48-.97 3.75-1.08 6.3.01-.32-.1.12-.13.1-.17 1.15-.38 2.37-.1 2.45-.16.83-.2.66-.34.75.12.02.04.75-.08 1.4l.01-.3-.15.93-.08.47c-.03.2-.06.4-.05.6.08-.16.17-.3.28-.44-.1.6-.13.68-.2.76-.04.07-.12.17.1.75l.18-.08c.26.8.68 1.36 1.2 1.82.27.23.6.4.96.54.37.12.6.2.94.3l3.1.54c.03-.15.06-.3.08-.47.1-.01.23-.01.34-.03-.12-.02-.2-.07-.32-.1.01-.03.01-.06.02-.1.56-.01.68-.01.77.04.1.04.3.05.88-.15l-.07-.18c.88-.25 1.58-.48 2.25-.77.67-.28 1.34-.6 2.06-1.15 1.45-1.24 2.5-2.73 3.57-4.14l3.1-4.35c2.04-2.9 4.04-5.76 6.05-8.3l.28-.15c.25.02.77-1.64 1.08-1.72l.35-.67c.15-.15.44-.5.27-.16.4-.56.4-.6.63-1.04l.54-.53c1.67-2.18 2.8-4.24 4.5-6.58.28-.34.57-.72.88-1.13.57-.58.65-1.84.17-2.62-.17-.3-.38-.55-.6-.77.7-.53 1.47-.93 2.2-1.33 1.4-.83 2.74-1.42 3.73-1.94l-.27.16c2.26-1.2 3.03-1.33 5.63-2.52.15-.05.34-.12.3-.1 1.28-.56 3.17-1.3 5-2.02l4.7-1.75.16.01 5.23-1.9-1.96.68c.62-.4 4-1.32 7.77-2.73 3.57-1.22 7.13-2.82 10.88-3.98 1.75-.67-1.52.65 1.1-.3.12.06-1.22.46-.5.3 2.6-.9 4.3-1.3 7.5-2.43l.15.03c4.16-1.5 7.96-2.47 10.72-3.48 4.32-1.44 2.98-.72 7.46-2.3l1.8-.46c1.94-.6 1.35-.55 3.5-1.18-.1.1 2.73-.8 1.5-.35 4.9-1.43 9.83-3.22 16.3-5.05 1.35-.55 4.6-1.48 5.6-1.9.2 0 6.47-2 2.88-.76-.3.1-.86.27-.83.24l-.4.2c1.85-.5 3.5-1.03 5.15-1.57 1.66-.53 3.3-1.1 5.1-1.76-1.07.36-2.5.85-1.56.48 1.12-.38 2.23-.78 3.33-1.2l-.67.33c1.65-.62 3.28-1.3 4.88-2.06-.23.1-.46.16-.7.24 1.18-.54 1.98-.9 2.8-1.33a13.759 13.759 0 0 0 1.28-.74c.47-.28.97-.64 1.56-1.1 1.06-.82-2.1 1.35.16-.27l1.1-.87c.03-.02.06-.05.08-.08l1.44.1c1 .05 2.07.04 3.2.06l3.65.01 4.3-.22c6-.33 12.35-1.2 18.08-2.44h.01l.7 1.3-.37-.6c1.42 2.43 2.3 4 3.04 5.45.36.72.7 1.4.94 2.12.25.74.38 1.65.62 2.66.48 2.04.7 2.33 1.5 6-.34-1.17.02.32.34 1.7-.2-.87-.3-1.13.08.67.08.25.2.63.3 1 0 .02.01.1 0 .05.6 2.27.52 1.87.25.8.02.05.01-.04-.05-.37.5 2.38 1.73 6.55 1.72 6.86 1.96 6.77 3.72 11.5 5.84 16.97.18.64-.35-.63-.97-2.2l1.5 3.88c-.1 0-.92-2.2-1.38-3.4 1.6 4.7 3.94 9.43 6.12 14.8l.53 1.08.13.32c.01-.01.16.27.34.66l.58 1.27c.26.78-.17.01.96 2.65.83 2.1 2.55 5.92 3.74 8.64-.6-1.48-.38-1.02-.08-.4.56 1.32.8 2.1 1.27 3.12l-.03.13c.14.15 1.55 3.5 1.77 3.93.25.78-.9-2.03-1.1-2.34l3.32 7.96c1.24 2.8-.13-.55.5.78l3.22 7.83-.3-.94 2.4 5.94c.3.85.66 1.66.85 2.47.18.8.2 1.64.14 2.48-.1 2-.58 3.77-.94 5.38-.02 0-.04-.02-.06-.02-.77-.15-1.77.23-2.25 1.1l-.06.15c-.38.9-.65 1.75-.65 1.75-.44 1.33-.78 2.48-.9 3.78-.1 1.2-.08 2.32.02 3.46l.1.86c.04.28.12.9.2 1.42.06.25.06.56.18.76.08.02.17.03.25.05-.03.32-.05.57-.05.7-.02.52-.01.9.07 1.02s.2.02.42-.4c.13-.25.3-.7.48-1.16l1.04.16 4.18.6c5.54 1.04 6.96 1.56 12.73 2.46 2.74.5 5.68.95 8.36 1.4 1.3.01 3.52.6 5.06.7l.56.22c.53.03 1.15.1 1.66.25l-.04.03c.8.05 1.66.25 2.05.27l-.04.03.94.15-.17.02c1.37.14 2.76.38 3.98.64l-.08-.16c1.47.35 2.44.46 3.42.6l.03.02c.16.04.27.04.36.04.4.06.83.14 1.3.24.1.03.1.06-.04.07.68.2 1.38.28 2.13.37 2.17.45 4.4 1 6.58 1.54l.85.2.55.14c.12.03.23.05.34.07l.17.03h.08c.02-.02.03-.05.05-.07.1-.13.17-.25.24-.36.02 0 .04.01.05.01-.02 0-.03-.01-.05-.01l.06-.1.6.1-.25.06 1.63.35-.2-.17c.38.1.7.23.9.3.04.05.04.06.2-.01.22-.06-.07-.2.23-.17.01.01.03.01.04.02-.04.1-.08.2-.12.3l-.06.14-.12.5-.24 1.02c-.06.24-.12.36-.22.5.16.01.06.2-.1.38l-.1-.07c-.28.34-.44.3-.52.25-.1-.05-.18-.07-.57.02l.07-.1c-.06.08-.14.18-.22.25-.06.03-.26.01-.36.01-.1-.01-.2-.02-.28-.04-.15-.03-.24-.08-.33-.12-.2-.1-.4-.16-1.14-.12.57.08.23.32-.47.14l.2-.1c-.4-.04-.53-.02-.8-.1.24-.02.15-.15-.43-.23l.4-.08-1.12.03c-.82-.27-2.17-.35-2.48-.57 0 0-1.78-.4-2.23-.28.38-.05-.6-.27-.3-.35-.5.05-1.88-.1-2.4-.32h.1c-2-.5-3.5-.42-5.3-.9.06.16-.9-.1-.68.14-1.92-.15-3.4-.97-4.16-.53-.86-.12-1-.3-1.44-.42l.2.01-3.28-.53c-.6-.05-.74.2-1.8-.05.36-.04-.08-.1-.48-.17.26.03.34 0-.17-.16-.08.02-.2.02-.3.02 0-.01-.02-.02-.01-.03-.67-.08-.56-.03-.25.04-.02.01 0 .04.1.08-.67-.26-1.94-.33-2-.52-2.02-.3-3.48-.38-5.17-.6-.17-.12.23-.14.72-.1l-1.2-.17c.03-.13.7.04 1.06.08-1.38-.46-2.95-.3-4.57-.78l-.36.04-.1-.03c0 .06-.4.07-.64.04-.22-.16.06-.26-.76-.4-.63-.22-1.85-.27-2.7-.35.45.1.3.14.1.14-.4-.07-.63-.22-.95-.23l-.01-.16c.14.17-1.1-.03-1.26.01-.22-.16.65.01.77-.06l-2.47-.4c-.9-.04.14.17-.3.24-.78-.1-1.55-.13-2.43-.38l.26.2c-1.47-.15-2.34-.32-3.3-.63-.7-.07-1.3-.04-1.8-.17-.5-.14-.9-.45-1.2-.77-.57-.66-.73-1.32-.8-1.74-.1-.85-.26-.75-.45-.4-.22.5-.25 1.6.18 2.43.4.86 1.1 1.35 1.1 1.35.33.25.7.45 1.08.57.17.06.4.1.52.13s.24.05.36.08l1.37.27c.9.16 1.72.28 2.6.4l6.12.8c4.45.85 5.6 1.32 10.24 2.02 2.2.4 4.57.76 6.73 1.1 1.06-.03 2.83.5 4.07.53l.45.2c.43.01.92.06 1.33.2l-.03.03c.64.02 1.33.2 1.65.2l-.03.03.76.12-.14.03c1.1.1 2.23.28 3.2.5l-.06-.16c2.1.53 2.9.37 4.78.9l-.03.03c2.47.04 3.77.92 6.3 1-.32-.01.12.1.1.13 1.15.16 2.38.35 2.44.07.83.15.67.2.76.33.01-.12.75-.05 1.4.06h-.3l1.4.2c.17.02.4.04.6.03-.16-.07-.3-.17-.44-.26.6.1.68.1.75.17.07.04.16.1.73-.08l-.07-.18c.8-.24 1.37-.62 1.85-1.15.23-.27.43-.6.56-.96.13-.4.2-.6.3-.95l.55-3.15c-.24-.01-.43-.04-.63-.07zM85.08 375.2c-2 2.5-4.5 3-4.5 3s.01-.03.01-.06c1.3-.47 2.9-1.38 4.5-3.14.48-.53 1.17-1.4 2-2.47l-2 2.67zm98.58-88.28c-.66-.4-1.26-.82-1.8-1.2l-.44-.32c.05-.02.1-.05.14-.07-.2-.17-.4-.34-.58-.5.68.6 1.56 1.3 2.67 2.08zm-4.14-1.88s-.01 0 0 0c-.01 0 0 0 0 0zM99.75 319.2l.02.01c.56.22.84.73.9 1.15.03.2.02.37-.02.53l-.52-.03c-.02.05-.03.1-.06.14-.14.17-.3.37-.45.58l.45-.58c.4-.5.2-1.3-.4-1.6-.45-.16-1-.36-1.63-.54.68.12 1.26.25 1.7.34zm-.18 2.45h0zm-7.04 43.5l5.8-8.13a4.459 4.459 0 0 0 .14.05l-5.95 8.08zm128.72-62.2c-4 1.97-8.27 3.4-12.56 4.7l-24.82 7.67-.72.13c-.34-.03-4.25 1.54-4.88 1.6l-1.8.63c-.52.14-1.6.45-.7.14-1.68.52-1.72.56-2.9.98l-1.83.5c-6.64 2.05-12.22 4-19.18 6.25-8.4 2.58-24.04 8-32.87 11.63-1.56.62-3.14 1.27-4.73 1.97-1.6.66-3.22 1.4-4.84 2.15-.82.35-1.6.8-2.4 1.22l-1.2.64c-.4.23-.77.5-1.16.77-.03.02-.06.04-.08.06-.06-.04-.12-.08-.17-.12-.56-.38-1.26-.74-2.05-.9-.8-.18-1.72-.1-2.47.27-.38.17-.7.4-1 .65l-.7.64-1.27 1.13-.55.5-.2.2c-.2.22-.44.45-.7.67l-.37.3-.18.14c-.06-.02-.1-.12-.15-.18-.18-.28-.18-.7.04-.97.23-.27.48-.47.68-.66l.3-.26.75-.82c.25-.3.5-.57.72-.9.12-.18.23-.3.36-.57.15-.28.24-.58.28-.9-.02-.73-.13-.96-.2-1.33l-.22-1.02-.43-1.97c0-.17-.12-.6-.15-.6-.2-1.6-.3-3.2-.26-4.8 0 0 0-.36.05-.94.07-.57.16-1.4.38-2.3.4-1.83 1.25-4 2.1-5.6.44-.84.85-1.52 1.08-1.97.73.08 1.47.1 2.26.01.23-.03.46-.1.7-.17l.54-.18 1.05-.36 2.04-.7c2.67-.97 5.17-1.93 7.72-3 5.1-2.13 10.4-4.55 17.65-8.27l14.45-7.4c2.04-1.04 4.1-2.05 6.5-3.18l8.52-3.86 18.8-8.7c.1.08.17.16.26.24 1.32 1.18 2.55 2.03 2.55 2.03 2.4 1.72 4.68 3 6.9 4 2.2 1.05 4.36 1.84 6.6 2.58 4.48 1.43 9.33 2.57 16.15 3.6 3 .43 5.44.8 7.64 1l3.12.33c.93.1 1.83.13 2.73.2-1.55 1.16-3.3 2.16-5.1 3.06zm73.73 104.72a32.933 32.933 0 0 0-.51 1.68l.32-1.74v-.03c.22-.56.73-.84 1.15-.9.06-.01.1-.01.17-.01-.02.07-.04.15-.05.23l-.03.2c-.42-.03-.85.17-1.06.58zm1.6-.4c-.1-.08-.2-.1-.32-.15.1.03.22.07.32.15.06.05.14.1.2.16.01-.06.03-.13.05-.2.08.13.2.3.4.54-.25-.18-.48-.35-.67-.5zm26.44 5.07c-.26.2-.67.22-.95 0-.27-.22-.47-.47-.66-.66l-.13-.14c-.04-.04-.05-.06-.23-.22l-.83-.73c-.3-.24-.58-.47-.9-.7a4.404 4.404 0 0 0-.53-.34c-.3-.17-.57-.27-.9-.3-.15-.02-.3 0-.46.01l-.38.07-.54.1-1.02.23-1.96.46c-.17 0-.6.13-.6.16-1.6.23-3.2.34-4.78.3l-.95-.04c-.6-.05-1.4-.1-2.32-.3-1.84-.33-4.02-1.15-5.6-2-1.18-.6-2.05-1.17-2.4-1.26.01-.04.02-.08.03-.13.01 0 .02.01.02.01.32.13.42.1.36-.06-.04-.08-.05-.15-.2-.3-.02-.02-.06-.04-.08-.06.67-2.68 1.5-5.27 1.03-8-.06-.42-.2-.86-.33-1.24-.14-.36-.27-.73-.4-1.1l-.82-2.1-1.68-4.16-8.27-19.62-6.85-16.4c-1.93-4.64-4.04-9.24-6.77-16.83-2.6-7.25-4.88-15.14-6.58-22.48-.47-1.73-1-4.14-1.54-6.64l-.4-1.9c-.04-.3-.2-.66-.32-.98-.12-.34-.25-.66-.4-.93-.55-1.15-1.13-2.2-1.67-3.13-.24-.5-.5-1-.74-1.48l-1.37-2.3c1.17-.3 2.57-.63 4-.97 1.9-.54 3.9-1.02 5.45-1.6l1.25-.27c1.06-.4 2.32-.82 3.4-1.16l-.06.06c1.57-.65 3.4-1.24 4.14-1.6l-.05.06 1.9-.77-.3.18c1.36-.58 2.7-1.23 4.06-1.8l3.84-1.8-.26-.03c1.2-.55 2.2-1.06 3.1-1.54l.4 1.1c.84 2.3 1.5 4.65 2.1 7.04.6 2.38 1.17 4.78 1.7 7.17 2.1 9.58 3.9 19.07 5.6 27.87l.07.8c-.06.36 1.2 4.8 1.2 5.5l.5 2.03c.1.58.33 1.8.1.78.4 1.9.44 1.93.77 3.28l.37 2.04c1.66 7.44 3.34 13.67 5.14 21.48 1.04 4.7 2.6 11.44 4.38 18.26.88 3.4 1.8 6.83 2.82 10 .5 1.6 1.03 3.1 1.6 4.54.32.7.6 1.4 1.05 2.04.4.65.94 1.13 1.4 1.6l.4.36c-.22.25-.42.5-.58.76-.37.6-.7 1.27-.86 2.07-.17.78-.1 1.7.26 2.45.33.77.95 1.33 1.28 1.73l1.13 1.27.82.9c.2.2.44.43.66.68l.3.37.14.18c.04.05-.1.1-.14.15zm9.66-3.97l3.32 2.38-3.35-2.3c.02-.05.03-.08.03-.08zm21.25 17.5c-.5-1.28-1.42-2.83-3.14-4.4l-.27-.24c-.02-.03-.05-.06-.07-.1l.44.32c2.6 1.9 3.1 4.4 3.1 4.4h-.06z"/><g fill="#fff"><path d="M296.83 424.14c.96.3 1.83.48 3.3.63l-.26-.2c.87.25 1.65.27 2.43.38.44-.06-.6-.27.3-.24l2.47.4c-.12.07-.98-.1-.77.06.16-.04 1.4.17 1.26-.01l.01.16c.32.01.54.16.95.23.2-.01.36-.04-.1-.14.86.1 2.08.13 2.7.35.82.14.55.24.76.4.25.03.63.01.64-.04l.1.03.36-.04c1.62.5 3.2.32 4.57.78-.37-.04-1.03-.2-1.06-.08l1.2.17c-.5-.05-.9-.04-.72.1l5.17.6c.06.2 1.32.27 2 .52-.1-.05-.1-.07-.1-.08-.3-.07-.42-.12.25-.04-.01.01.01.02.01.03.1 0 .23 0 .3-.02.5.16.43.2.17.16.4.07.84.13.48.17 1.06.25 1.2 0 1.8.05l3.28.53h-.2c.44.1.57.3 1.44.42.77-.44 2.24.38 4.16.53-.2-.22.74.02.68-.14 1.8.5 3.3.4 5.3.9h-.1c.53.23 1.92.37 2.4.32-.3.08.68.3.3.35.44-.1 2.23.28 2.23.28.32.23 1.67.3 2.48.57l1.12-.03-.4.08c.58.08.67.2.43.23.26.07.4.04.8.1l-.2.1c.7.18 1.04-.06.47-.14.75-.04.95.04 1.14.12.1.04.18.1.33.12.07.02.16.03.28.04.1 0 .3.03.36-.01.07-.07.15-.17.22-.25l-.07.1c.4-.1.47-.07.57-.02.08.04.24.1.52-.25l.1.07c.16-.18.26-.36.1-.38.1-.15.17-.27.22-.5l.24-1.02.12-.5.06-.14.12-.3c-.02-.01-.03-.01-.04-.02-.3-.01-.02.1-.23.17-.16.06-.16.05-.2.01-.2-.08-.52-.2-.9-.3l.2.17-1.63-.35.25-.06-.67-.13-.53-.05c.02.04.34.1.6.17-1.18-.24-2.22-.06-3.38-.5l.16-.1c-.02.03.16.07.27.07.26 0 .36-.01.38-.03-1.15-.08-2.1-.25-3-.45-.06 0-.1.01-.16.02-2.05-.64-3.76-.54-5.33-.98.15-.01.13-.03.04-.07l-1.3-.24c-.1 0-.2-.01-.36-.04h-.03l-3.42-.6.08.16c-1.22-.26-2.6-.5-3.98-.64h.17l-.94-.15.04-.03c-.4-.02-1.26-.23-2.05-.27l.04-.03c-.5-.16-1.13-.22-1.66-.25l-.56-.22c-1.54-.1-3.75-.7-5.06-.7l-8.36-1.4c-5.77-.9-7.2-1.42-12.73-2.46l-4.18-.6-1.04-.16c-.15.36-.28.73-.4 1l-.1.65c-.14 1 .28 2 1.04 2.56a1.88 1.88 0 0 0 .5.21c.46.17 1.1.14 1.77.2z"/><path d="M331.57 411.07c-.36.42-.63.82-1.08 1.5l.16-.07c-.35.36-.58.72-.86 1.05-.1.23.32-.18.02.23l-1 .98c.01-.08.38-.4.23-.36-.03.1-.55.55-.42.56l-.08-.06c-.12.14-.26.17-.44.32-.07.1-.1.17.1.02-.34.33-.8.83-1.15 1-.37.28-.3.12-.46.14-.1.1-.25.25-.23.27l-.05.02-.12.16-.58.34c-.1.1-.23.22-.3.37-.14.28-.15.56-.2.84-.04-.15.03-.4-.04-.43-.03.16-.02.34.01.5-.06-.2-.08-.37-.15-.3 0 .38.18.72.44.95.13.1.28.2.46.27l.7.23c.01.12.67.25 1 .43-.05-.03-.06-.05-.04-.05-.16-.06-.2-.1.14-.01-.01 0 0 .01 0 .02.06.01.12.01.17.01.26.12.22.13.08.1.2.06.44.1.25.12.56.2.65.05.97.1l1.75.4-.1-.01c.23.07.3.2.76.28.44-.25 1.2.26 2.25.37-.1-.14.4.02.38-.07.97.3 1.8.28 2.87.6h-.06c.28.14 1.04.22 1.3.2-.17.05.36.18.15.2.25-.07 1.2.18 1.2.18.17.14.9.18 1.34.35l.6-.01-.23.05c.3.05.36.13.23.14.14.04.2.03.43.05l-.1.05c.38.1.57-.03.26-.08.82-.04.44.2 1.17.18l.16-.08c.8.07.25.24 1.05.3l.01.08c.2.02.4.07.36-.03l2.17.58c.46.07-.16-.1.07-.12.5-.01.64.15 1.07.27l-.1-.1.88.2-.14.04.6.13c.18-.02-.08-.06-.26-.12.64.15 1.2.04 1.83.3l-.1.06c.01-.02-.1-.04-.14-.04-.67-.01.46.16.48.22.2-.05.76.13 1.03.06l.2.07a1.111 1.111 0 0 1 .13.04c.03.02.07.03.1.04.07.02.14.02.18.01.07.02-.02-.1-.03-.13-.02-.05-.03-.08-.03-.13.1.06.02-.07.08-.1 0-.06-.07-.13-.12-.18-.06-.04-.1-.08-.18-.22l-.07-.3c-.56-.54-.18-.52-.72-1.05-.42-.27-.72-.87-1.42-1.2v-.07c-.5-.3-.68-.58-1.1-.82-.06-.13.12.04.16-.05-.43-.23.2-.06-.12-.18-.5-.47-1.28-.53-1.8-.93-.64-.3-.95-.9-1.16-.83l.28.22-.8-.55.02-.07c-.34-.2-1.04-.8-1.5-1 .01 0-.02-.03-.03-.05-.44-.25-.5-.4-.9-.57h.06c-.73-.32-2.08-1.35-3.08-2.04.03-.1-.56-.48-.98-.76.13.1.17.06.2.07-.64-.3-1.12-.96-1.78-1.27h.03c-.2-.2-.97-.58-.97-.8-.75-.36-1.35-.8-2.27-1.56l.06.01-1.86-1.9-.3-.2s-.2.6-.64 1.5c-.06.3-.2.67-.42 1.12zM97 356.43a10.717 10.717 0 0 1-1.17-.49c-.42-.37-.8-.64-1.5-1.1l.07.16c-.36-.35-.72-.58-1.05-.87-.23-.1.18.32-.23.02-.66-.66-.37-.32-.97-1.03.07.02.38.4.35.25-.1-.03-.5-.58-.53-.45l.06-.08c-.13-.12-.16-.27-.3-.45-.1-.07-.17-.1-.02.1-.32-.35-.8-.83-.97-1.16-.28-.36-.12-.3-.15-.45-.1-.1-.26-.24-.28-.22v-.05l-.17-.12c-.12-.2-.25-.4-.4-.56-.1-.14-.23-.26-.37-.33-.27-.16-.54-.2-.83-.24.15-.04.4.05.43-.02-.16-.04-.33-.03-.5-.01.2-.05.37-.07.3-.13-.38-.02-.73.15-.96.4-.12.13-.2.28-.28.46-.07.17-.15.45-.23.7-.12.01-.26.67-.44 1.02.03-.05.05-.06.06-.04.06-.16.1-.2.01.14 0-.01-.01 0-.02 0-.01.06-.01.12-.01.17-.12.26-.13.22-.1.08-.06.2-.12.45-.13.25-.2.56-.06.65-.12.97l-.43 1.75.01-.1c-.08.23-.2.3-.3.76.24.45-.28 1.2-.4 2.25.14-.1-.02.4.07.38-.32.97-.28 1.8-.6 2.88v-.06c-.15.28-.24 1.04-.22 1.3-.05-.17-.2.36-.2.15.06.25-.2 1.2-.2 1.2-.14.17-.2.9-.37 1.34v.6l-.04-.23c-.05.3-.13.36-.14.22-.04.14-.03.2-.06.43l-.05-.1c-.1.38.02.58.08.26.03.83-.2.44-.2 1.18l.07.16.04.08-.04-.08c-.1.8-.24.24-.3 1.05l-.08.01c-.03.2-.07.4.03.36l-.62 2.17c-.07.46.1-.16.1.07 0 .5-.16.64-.3 1.07l.1-.1-.23.88-.03-.14-.14.6c.01.18.06-.08.13-.26-.16.64-.06 1.2-.34 1.84l-.06-.1c.02.01.04-.1.04-.14.02-.67-.17.46-.23.48.05.2-.14.76-.08 1.04-.03.07-.05.14-.07.2l-.03.1-.01.02c-.02.03-.03.07-.04.1-.02.07-.02.13-.02.18-.02.07.1-.02.13-.03.05-.02.08-.03.13-.02-.06.1.07.02.1.08.06 0 .14-.07.18-.12s.08-.1.23-.18l.3-.07c.56-.55.53-.17 1.08-.7.28-.4.9-.7 1.26-1.38l.07.03c.3-.5.6-.67.84-1.08.13-.05-.04.12.05.17.24-.43.05.2.18-.1.48-.5.56-1.28.97-1.8.32-.64.92-.94.85-1.15l-.23.28.56-.8.07.02c.2-.34.82-1.04 1.03-1.5 0 .01.03-.02.05-.03.25-.43.4-.48.58-.9l-.01.06c.34-.73 1.4-2.06 2.1-3.06.1.03.5-.55.77-.98-.1.13-.06.17-.07.2.32-.63.97-1.1 1.3-1.77v.03c.2-.2.6-.97.8-.97.38-.74.83-1.34 1.6-2.26v.06l1.93-1.84.2-.3s-.57-.2-1.46-.65z"/></g></svg>