<svg xmlns="http://www.w3.org/2000/svg" viewBox="0 0 480 480" xmlns:v="https://vecta.io/nano"><g fill="#fff"><path d="M240.35 427l-1.4-28.1h28.4l2.6 35.3zm-71.98.04l3.13-21.7 25.8 2.87-3 22.5z"/><path d="M173.6 393.24c1.4.3 1.76.54 3.25.75l2.15.36c.35-.06.9.17 1.3.14l.14.1c.14-.01.3-.01.43.06l-.01.02c.2-.02.43.06.53.05l-.01.02.24.04-.05.02a4.11 4.11 0 0 1 1.02.16l-.01-.1c.65.22.93.1 1.52.32h-.01c.8-.08 1.18.38 2 .32-.1.01.03.05.02.07.37.04.76.1.8-.06.26.05.2.1.23.16.01-.07.25-.06.46-.03l-.1.01.6.1-.1-.16c.3.1.05.18.36.2l.02-.12c.43.1.65.33 1.06.5 1.74.38 3.68.44 5.27.95l.06.1c.01.13.48-.1.53.03l.2-.02c.05.03.16.08.06.1.17.04.18.02.32 0l.17.1c.68.2 1.3.15 2.02.32.84.32 2.52.5 3.48.58 1.37.06 2.82.86 4.23.9.04.03.16.01.17-.01l1.25.25s6.05 1.18 1.64-.73l.04-.02c-.67-.2-1.1-.3-1.6-.24-.04-.18-.56-.12-.7-.2v-.01c-.44.05-.84-.27-1.26-.23.02-.01.04-.06.13-.04-.3-.03-.7-.07-.7-.17-.7-.1-1.67-.33-2.15-.26l.04-.02c-.28.06-.33-.05-.63-.05-.01-.02-.03-.03-.03-.03-.3.05-.82-.14-1.05-.13v-.07l-.56-.1.2.05c-.1.17-.4-.2-.82-.15-.37-.1-.83.23-1.2.07-.2.05.2-.1-.1-.1.01-.1.14-.03.08-.12-.28-.01-.43-.18-.78-.18v-.08c-.47.05-.8-.25-1.13-.18-.46-.02-.26-.27-.76-.22l-.17-.13c-.2-.05-.17.1-.38 0 .03-.06-.27-.1-.13-.14-.5-.2-1.06-.05-1.7-.35-.17.1-.5-.04-.62.03-.01-.06-.67-.14-.27-.18.03 0 .1.01.08.03l.06-.06c-.36-.2-.7-.05-1.08-.15.1.04.26.07.15.1l-.35-.08.08-.05-.52-.13.06.1c-.25-.1-.3-.23-.62-.18-.14.03.22.15-.05.12l-1.26-.4c.02.1-.1.07-.22.06v-.08c-.48.02-.14-.2-.6-.2l.05-.04-.15.13c-.44.07-.2-.2-.7-.08.18.02.06.18-.16.1l.07-.06c-.13-.01-.17.01-.25-.02.08-.02.06-.1-.13-.12l.14-.07-.37.07c-.25-.13-.7-.1-.78-.23 0 0-.56-.16-.7-.07.13-.05-.18-.13-.08-.2-.16.05-.6.03-.77-.08h.03c-.63-.2-1.13-.1-1.7-.3.01.1-.3-.01-.23.1-.62-.01-1.06-.43-1.34-.13-.28-.03-.3-.14-.45-.18l.07-.01-1.05-.17c-.2 0-.26.15-.6.05.12-.04-.02-.06-.15-.08.08.01.1-.01-.05-.1-.03.01-.07.02-.1.02-.22-.04-.18-.01-.1.02-.01.01 0 .02.03.05-.2-.12-.62-.1-.62-.22-.64-.1-1.12-.07-1.66-.13-.05-.07.08-.1.24-.08l-.38-.05c.02-.08.23 0 .34 0-.43-.2-.95-.05-1.46-.26l-.12.04-.03-.02c0 .03-.13.06-.2.05-.06-.08.04-.16-.23-.2-.2-.1-.6-.08-.87-.1.14.04.1.07.02.08-.13-.02-.2-.1-.3-.1v-.1c.03.1-.36.03-.4.06-.06-.08.2-.02.26-.07l-.8-.13c-.3.02.03.1-.1.15-.25-.03-.5-.01-.78-.12l.07.1c-.48-.02-.75-.08-1.05-.23-3.58.02-.9.78-.9.78 1.3.4 2.06.3 3.7.54zm64.23 8.1c1.55-.08 1.98.05 3.58-.15l2.33-.23c.35-.15.98-.08 1.4-.22l.17.06c.14-.05.3-.1.46-.06l-.01.02c.2-.07.46-.06.56-.1l-.01.02.26-.03-.04.03c.37-.1.76-.12 1.1-.12l-.04-.08c.74.04 1-.16 1.67-.1h-.01c.82-.3 1.34.05 2.18-.24-.1.04.05.04.04.06.4-.06.82-.1.8-.27.3-.02.24.03.28.1-.01-.07.24-.13.47-.15l-.1.04.65-.08-.14-.13c.35.01.1.17.43.1l-.01-.12c.48-.01.77.14 1.24.2 1.9-.1 3.94-.56 5.74-.5l.1.08c.04.13.48-.23.55-.12l.2-.08c.06.02.18.03.08.07.2-.01.2-.03.33-.08l.2.06c.76 0 1.4-.2 2.2-.24.97.1 2.75-.2 3.78-.38 1.44-.3 3.17.07 4.64-.27.05.01.17-.04.17-.05l1.36-.1s6.6-.48 1.5-1.14l.03-.03c-.75-.01-1.22.01-1.72.2-.1-.17-.6.03-.8-.01l.02-.02c-.44.17-.95-.04-1.37.12.02-.02.02-.06.12-.07-.32.05-.75.12-.78.02-.76.1-1.83.13-2.3.32l.03-.03c-.27.13-.36.04-.67.12l-.04-.02c-.3.13-.88.1-1.13.15l-.02-.07-.6.06h.23c-.06.2-.47-.08-.9.08-.4.01-.8.45-1.23.4-.2.1.17-.15-.13-.06-.02-.1.14-.07.05-.14-.3.07-.5-.06-.86.04l-.02-.07c-.47.17-.9-.03-1.22.13-.5.1-.35-.2-.85-.01l-.2-.08c-.22 0-.15.14-.4.1.01-.06-.3-.03-.17-.1-.56-.05-1.1.23-1.85.12-.15.14-.52.1-.63.2-.02-.05-.74.05-.33-.1.03-.01.1-.02.1.01l.04-.08c-.43-.1-.75.14-1.16.15.12.01.3 0 .18.05l-.38.02.07-.07h-.57l.08.07c-.28-.02-.4-.14-.7-.01-.14.07.27.08-.02.13l-1.42-.04c.05.08-.08.1-.2.12v-.07c-.5.14-.2-.15-.7-.03l.04-.06-.12.17c-.44.18-.26-.14-.74.1.2-.03.1.16-.14.14l.06-.08c-.13.03-.18.06-.27.05.08-.05.03-.1-.16-.08l.13-.1-.37.16c-.3-.05-.75.08-.88-.01 0 0-.63 0-.76.12.12-.08-.23-.08-.13-.17-.16.1-.63.2-.83.12h.04c-.7-.03-1.2.2-1.84.16.04.08-.3.06-.2.17-.65.16-1.2-.13-1.42.23-.3.04-.36-.05-.52-.06l.07-.02-1.14.1c-.2.05-.22.2-.6.2.12-.07-.04-.05-.17-.04.1-.02.1-.04-.07-.07-.02.02-.06.04-.1.05 0 0-.01-.01-.01-.02-.23.04-.2.06-.08.06 0 .01.01.02.04.04-.25-.06-.67.06-.7-.05-.7.08-1.2.23-1.76.32-.07-.05.06-.1.23-.15l-.4.05c0-.08.23-.06.36-.1-.5-.1-1 .2-1.6.14l-.1.07-.04-.01c0 .03-.12.1-.2.1-.1-.06-.01-.16-.3-.13-.23-.05-.64.08-.93.15.16 0 .1.04.05.07-.14.01-.23-.05-.34-.01l-.02-.1c.06.08-.36.13-.4.17-.1-.06.22-.08.25-.13l-.86.08c-.3.1.06.08-.08.18-.27.04-.52.13-.84.1l.1.08c-.5.1-.8.12-1.15.06-3.7.98-.72 1-.72 1 1.48.1 2.23-.2 4-.4z"/></g><path d="M305.82 440.73c.1.4.05-.2.1-.16-.24-1.5-.72-3.1-1-3.04-.32-1.07-.2-.9-.14-1.07-.06.02-.18-.2-.34-.5-.18-.33-.32-.7-.68-1.2l.32.4c-.6-.96-1.3-1.4-1.96-1.9l.25.5c-1.02-.84-.1-.45-1.17-1.1l-.1.17-3.7-2.7c-6.3-3.4-13.5-5.95-19.47-8.82l-.2-.25c-.04-.25-1.8-.4-1.96-.68l-.75-.2c-.2-.12-.6-.33-.22-.23-.66-.28-.68-.25-1.18-.38l-.66-.4-.95-.4-.47-.2c-.2-.07-.44-.16-.66-.2-.48-.1-.96-.07-1.42.04-.08-1.3-.32-2.65-.3-4.34-.15-.42-.15-1.42-.27-1.73.05-.06-.14-2 .06-.88.02.1.03.26.01.25l.08.13c.02-.37 0-.7-.04-1.05l6.44-.63c.52-.03 1.2-.2 1.7-.5.52-.3.96-.7 1.3-1.17s.55-1 .66-1.54a4.58 4.58 0 0 0 .08-.83l-.02-.64-.17-4.75c-.72-16.43-.33-35.57-1.1-52.4a13.41 13.41 0 0 0-.04-1.19c-.02-.2-.03-.4-.04-.54s-.02-.23-.03-.22l-.48-15.4s-1.7-51.36-2.2-36.5l-.1-2.55-.4-11.1.8 10c.3 2.83.44 2.6.52 1.07.07-1.54.06-4.42.03-6.9l-.1-4.6c-.2-8.4-.56-14.74-1.04-21.48l-1.9-23.82-1.54-19.9-.38-4.28-.55-5.5-.06-.57c.01-.07-.05-.05-.1-.05h-3.22l-.05.3c-.23-.2-.82-.08-1.22-.12h-3.82l-8.57.1c-.28-.01-.8 0-1.23.01l-.57.03c-.15.01-.24.02-.23.02H235.3s-53.44.02-38.02 1h-2.64c-.43 1.93-1.04 5.87-1.82 11.3l1.15-10.27c.42-2.96.24-2.76-.24-1.23-.48 1.6-1.04 4.54-1.48 7.1l-.77 4.72c-1.38 8.62-2.24 15.16-3.16 22.12l-1.45 11.06c-.52 4.03-.97 8.46-1.52 13.63l-4.66 41.68c-.67 4.4-1.52 9-2.34 13.55l-2.48 13.42c-.58 4.15-2.2 11.36-2.96 16.25l-.5 1.86c-.27 1.7-.6 3.66-1 5.33l-.01-.1c-.4 2.52-1 5.33-1.2 6.58v-.1l-.58 3.04.05-.53c-.77 4.38-1.65 8.87-2.48 12.82l.2-.3c-1.84 8.43-2.16 11.6-3.87 19.2l-.01-.1-.58 3.46c-.1.57-.22 1-.28 1.76-.04.7.12 1.38.4 1.98.6 1.2 1.7 2.03 2.94 2.33l2.9.57 1.5.3c-.1.9-.18 1.8-.4 2.78l.01.34-.02.1c.03 0 .03.36 0 .6-.1.2-.16-.04-.27.74-.16.6-.23 1.76-.32 2.57.08-.43.1-.3.1-.1-.06.4-.16.6-.18.9h-.1c.1-.14-.06 1.03-.04 1.18-.1.2.03-.6 0-.72l-.35 2.35c-.06.84.1-.14.13.27-.1.74-.14 1.47-.33 2.3l.12-.25c-.15 1.4-.28 2.22-.5 3.14l-.1 1.2a2.22 2.22 0 0 0-1.13.24c-.34.18-.64.45-.85.78-.2.3-.32.82-.37.97-.25.9-.42 1.8-.53 2.68-.06.18-.08.66-.05.66-.3 1.7-.45 3.42-.52 5.14 0 0-.07 1.56.03 3.6.05 1.02.14 2.16.28 3.27l.23 1.64c.05.27.1.53.13.78.05.26.07.48.17.8.34 1.18 1.32 1.88 2 1.98.34.07.6.04.72-.01s.14-.1.06-.16c-.1-.08-.44-.16-.83-.45a1.98 1.98 0 0 0 .82.2l3.67-.01c-9.1.96.1 1.28.1 1.28 5.5.3 8.33-.12 14.87-.25 5.75.05 7.27.32 13.23.2 2.84.01 5.87-.06 8.65-.1 1.32-.22 3.65-.01 5.2-.2l.6.12c.54-.06 1.17-.1 1.7-.04l-.03.03c.8-.1 1.7-.04 2.1-.1l-.03.04.98-.02-.17.05c1.4-.1 2.84-.1 4.1-.07l-.1-.14c2.72.15 3.7-.15 6.17.03l-.03.04a14.54 14.54 0 0 1 1.12-.1c.52-.03 1.02-.18 1.44-.45.84-.53 1.3-1.4 1.4-2.3.08-1.4.07-2.63-.33-4.26.1.4.05-.2.1-.16-.24-1.5-.72-3.1-1-3.04-.32-1.07-.2-.9-.14-1.07-.06.02-.18-.2-.34-.5-.18-.33-.32-.7-.68-1.2l.32.4c-.6-.96-1.3-1.4-1.96-1.9.1.16.17.33.25.5-1.02-.84-.1-.45-1.17-1.1l-.1.17c-1.48-1-2.25-1.76-3.7-2.7-6.3-3.4-13.5-5.95-19.47-8.82l-.2-.25c-.04-.25-1.8-.4-1.96-.68l-.75-.2c-.2-.12-.6-.33-.22-.23-.66-.28-.68-.25-1.18-.38l-.66-.4-.95-.4-.47-.2c-.2-.07-.44-.16-.66-.2-.54-.1-1.08-.05-1.6.1.01-.08.02-.17.05-.3.06.05.16-.84.17-.44.3-1.5.25-3.1.66-5.1-.02-.15-.01-.37.01-.6l3.14.53-1.2-.17 3.3.56c.18.02.36.06.55.07 1.5.12 3.04-.56 3.98-1.73-.43.4-.93.72-1.46.92 1-.56 1.38-1.1 1.63-1.4l.4-.55c.1-.1.16-.22.3-.57.12-.32.28-.82.56-1.75h-.2c1.72-5.32 2.98-8.36 4.75-13.47l13.53-43.53 2.9 28.6-.05.9c-.17.4.9 5.48.78 6.27l.34 2.32c.03.66.13 2.04-.04.9.22 2.15.26 2.2.48 3.74l.1 2.32c.4 4.25.84 8.17 1.3 12.15l.17 1.5c.03.22.07.6.16.9.08.32.2.62.36.9.62 1.15 1.8 2 3.16 2.17.33.04.7.03 1-.01l2.1-.2c-.01.23-.03.4 0 .62l-.1.04c.08-.16.15 1 .2 1.14-.06.22-.1-.6-.15-.7l.13 2.32c.1.82.08-.15.18.24.05.73.16 1.44.14 2.28l.07-.27c.13 1.37.16 2.2.13 3.1l.37 2.86c-.15.04-.3.08-.44.15-.34.18-.64.45-.85.78-.2.3-.32.82-.37.97-.25.9-.42 1.8-.53 2.68-.06.18-.08.66-.05.66-.3 1.7-.45 3.42-.52 5.14 0 0-.07 1.56.03 3.6.05 1.02.14 2.16.28 3.27l.23 1.64c.05.27.1.53.13.78.05.26.07.48.17.8.34 1.18 1.32 1.88 2 1.98.34.07.6.04.72-.01s.14-.1.06-.16c-.1-.08-.44-.16-.83-.45a1.98 1.98 0 0 0 .82.2l3.67-.01c-9.1.96.1 1.28.1 1.28 5.5.3 8.33-.12 14.87-.25 5.75.05 7.27.32 13.23.2 2.84.01 5.87-.06 8.65-.1 1.32-.22 3.65-.01 5.2-.2l.6.12c.54-.06 1.17-.1 1.7-.04l-.03.03c.8-.1 1.7-.04 2.1-.1l-.03.04.98-.02-.17.05c1.4-.1 2.84-.1 4.1-.07l-.1-.14c2.72.15 3.7-.15 6.17.03l-.03.04a14.54 14.54 0 0 1 1.12-.1c.52-.03 1.02-.18 1.44-.45.84-.53 1.3-1.4 1.4-2.3.1-1.43.1-2.66-.3-4.3zm-110.27-23.87l-.1.2c-.14.08.02 1.37-.12 1.54l-.01.36a3.39 3.39 0 0 0-.42.33 2.69 2.69 0 0 0-.44.49c-.2.25-.4.5-.6.75-.43.5-.9.98-1.42 1.44-1.33 1.06-3.3 2.48-5.53 3.5s-4.7 1.6-6.54 1.73c-3.6.4-7.82-.1-11.05-2-.08-.05-.17-.08-.25-.1a62.26 62.26 0 0 0 .62-4.01c.16.1.4.13.4.13.73.2 1.1-.06 1.97-.12.76.04.96.2 1.75.14.38.01.78-.02 1.14-.04.17-.13.48 0 .7-.1l.08.07c.07-.04.15-.06.23-.02v.02c.1-.05.23-.02.28-.05v.02l.13-.01-.02.03a1.27 1.27 0 0 1 .54-.04l-.01-.1c.36.1.5-.08.82.03v.02c.4-.23.65.16 1.07-.06-.05.03.02.04.02.07.2-.02.4-.04.4-.2.14 0 .12.05.13.12 0-.07.12-.1.23-.1l-.05.03.32-.03-.06-.14c.17.04.04.17.2.14v-.12c.23.02.37.2.6.3.94.05 1.94-.25 2.8-.04l.04.1c.02.13.24-.2.27-.07l.1-.06c.03.02.1.05.04.08.1.01.1-.02.16-.05l.1.08c.37.06.68-.1 1.07-.06.47.16 1.35.01 1.85-.07.7-.2 1.54.32 2.27.1.02.02.1-.02.08-.04l.67.02s3.24.05.78-1.02l.02-.03c-.37-.07-.6-.08-.85.06-.04-.17-.3-.02-.4-.07l.01-.01c-.22.13-.46-.1-.67.01.01-.01.01-.06.06-.06-.16.02-.37.06-.38-.04-.37.03-.9-.02-1.14.14l.02-.03c-.14.1-.18.02-.33.07-.01-.01-.02-.02-.02-.03-.15.1-.43.02-.55.06l-.01-.07-.3.02.1.01c-.04.18-.22-.12-.44 0-.2-.02-.4.38-.62.3-.1.1.1-.14-.06-.07 0-.1.07-.06.03-.14-.15.05-.24-.1-.42-.03l-.01-.07c-.24.14-.44-.1-.6.03-.24.06-.16-.22-.42-.08l-.1-.1c-.1-.02-.08.12-.2.07.01-.06-.15-.05-.08-.1-.27-.1-.55.14-.9-.03-.08.12-.26.05-.32.14-.01-.05-.36-.01-.16-.13.02-.01.05-.01.05.01l.02-.07c-.2-.14-.37.08-.57.05.06.02.14.02.1.07l-.2-.01.04-.06-.28-.04.04.08c-.14-.04-.18-.17-.34-.06-.07.06.13.1-.01.13-.18-.05-.46-.13-.7-.15.02.1-.04.08-.1.1l-.01-.07c-.25.1-.1-.16-.34-.08l-.04.1c-.22.15-.12-.16-.37.05.1-.01.05.16-.07.13l.03-.07c-.07.02-.1.05-.13.03.04-.04.02-.1-.08-.1l.07-.1-.18.13c-.14-.08-.37.02-.43-.08 0 0-.3-.05-.38.06.06-.07-.1-.1-.06-.18-.08.08-.3.14-.4.06l.02-.01c-.35-.1-.6.12-.9.01.01.1-.15.04-.1.15-.32.1-.6-.23-.7.12-.15.02-.17-.08-.25-.1l.03-.02c-.27.03-.35.03-.56.02-.1.03-.12.2-.3.15.06-.06-.02-.05-.08-.05.04-.01.06-.03-.03-.08-.01.02-.03.03-.05.04-.1 0-.1.02-.04.03 0 .01 0 .02.02.04-.12-.08-.33.01-.34-.1-.34.03-.6.14-.87.18-.03-.06.03-.1.12-.13l-.2.02c0-.08.12-.05.18-.06-.24-.13-.5.13-.78.01l-.06.06-.02-.01c0 .03-.06.08-.1.1-.04-.07 0-.16-.14-.16-.1-.07-.3.03-.46.07.08.01.05.05.02.08-.07 0-.1-.07-.16-.04l-.01-.1c.03.1-.18.1-.2.13-.04-.07.1-.06.13-.1-.28.01-.14 0-.42.01-.15.07.03.1-.04.17-.13.02-.26.08-.4.03l.05.08c-.25.07-.4.06-.56-.03-.34.13-.57.24-.72.34l.7-5.62 1.27-7.3c3 .58 6.18 1.15 10 1.7-1.25-.18.52.17.4.2 4.6.78 9.53 1.64 9.65 1.37 3.35.6 2.7.58 3.13.76 0-.05.53 0 1.34.12-.2 1.75-.43 3.44-.7 5.04zm45.43 7.35a51.53 51.53 0 0 0-.08-2.93c.5.03.9-.12 1.6-.18.76.04.96.2 1.75.14.38.01.78-.02 1.14-.04.17-.13.48 0 .7-.1l.08.07c.07-.04.15-.06.23-.02v.02c.1-.05.23-.02.28-.05v.02l.13-.01-.02.03a1.27 1.27 0 0 1 .54-.04l-.01-.1c.36.1.5-.08.82.03v.02c.4-.23.65.16 1.07-.06-.05.03.02.04.02.07.2-.02.4-.04.4-.2.14 0 .12.05.13.12 0-.07.12-.1.23-.1l-.05.03.32-.03-.06-.14c.17.04.04.17.2.14v-.12c.23.02.37.2.6.3.94.05 1.94-.25 2.8-.04l.04.1c.02.13.24-.2.27-.07l.1-.06c.03.02.1.05.04.08.1.01.1-.02.16-.05l.1.08c.37.06.68-.1 1.07-.06.47.16 1.35.01 1.85-.07.7-.2 1.54.32 2.27.1.02.02.1-.02.08-.04l.67.02s3.24.05.78-1.02l.02-.03c-.37-.07-.6-.08-.85.06-.04-.17-.3-.02-.4-.07v-.01c-.22.13-.46-.1-.67.01.01-.01.01-.06.06-.06-.16.02-.37.06-.38-.04-.37.03-.9-.02-1.14.14l.02-.03c-.14.1-.18.02-.33.07-.01-.01-.02-.02-.02-.03-.15.1-.43.02-.55.06V420l-.3.02.1.01c-.04.18-.22-.12-.44 0-.2-.02-.4.38-.62.3-.1.1.1-.14-.06-.07 0-.1.07-.06.03-.14-.15.05-.24-.1-.42-.03l-.01-.07c-.24.14-.44-.1-.6.03-.24.06-.16-.22-.42-.08l-.1-.1c-.1-.02-.08.12-.2.07.01-.06-.15-.05-.08-.1-.27-.1-.55.14-.9-.03-.08.12-.26.05-.32.14-.01-.05-.36-.01-.16-.13.02-.01.05-.01.05.01l.02-.07c-.2-.14-.37.08-.57.05.06.02.14.02.1.07l-.2-.01.04-.06-.28-.04.04.08c-.14-.04-.18-.17-.34-.06-.07.06.13.1-.01.13-.18-.05-.46-.13-.7-.15.02.1-.04.08-.1.1l-.01-.07c-.25.1-.1-.16-.34-.08l-.04.1c-.22.15-.12-.16-.37.05.1-.01.05.16-.07.13l.03-.07c-.07.02-.1.05-.13.03.04-.04.02-.1-.08-.1l.07-.1-.18.13c-.14-.08-.37.02-.43-.08 0 0-.3-.05-.38.06.06-.07-.1-.1-.06-.18-.08.08-.3.14-.4.06l.02-.01c-.35-.1-.6.12-.9.01.01.1-.15.04-.1.15-.32.1-.6-.23-.7.12-.15.02-.17-.08-.25-.1l.03-.02c-.27.03-.35.03-.56.02-.1.03-.12.2-.3.15.06-.06-.02-.05-.08-.05.04-.01.06-.03-.03-.08-.01.02-.03.03-.05.04-.1 0-.1.02-.04.03 0 .01 0 .02.02.04-.12-.08-.33.01-.34-.1-.34.03-.6.14-.87.18-.03-.06.03-.1.12-.13l-.2.02c0-.08.12-.05.18-.06-.24-.13-.5.13-.78.01l-.06.06-.02-.01c0 .03-.06.08-.1.1-.04-.07 0-.16-.14-.16-.1-.07-.3.03-.46.07.08.01.05.05.02.08-.07 0-.1-.07-.16-.04l-.01-.1c.03.1-.18.1-.2.13-.04-.07.1-.06.13-.1-.28.01-.14 0-.42.01-.15.07.03.1-.04.17-.13.02-.26.08-.4.03l.05.08c-.25.07-.4.06-.56-.03-.03.01-.04.02-.07.03l-.53-6.97v-.1l2.56-.22c5.38-.34 13.12-1.02 20.96-1.76l3.88-.38c.23 2.6.45 5.18.52 7.58l-.07.22c-.03.03-.02.14 0 .28-.16.1-.3.22-.45.35a2.69 2.69 0 0 0-.44.49 20.08 20.08 0 0 1-.61.75c-.43.5-.9.98-1.42 1.44-1.33 1.06-3.3 2.48-5.53 3.5s-4.7 1.6-6.54 1.73c-3.6.4-7.82-.1-11.05-2a2.4 2.4 0 0 0-1.13-.34c0-.37-.01-.65-.01-.65z"/><path d="M179.74 419.7h0l.02-.05zm70.48 0h0l.02-.05z"/><g fill="#fff"><path d="M189.28 322.37l.02-.14-1.46 7.15c.1-.1-.2 1.2-.03.9l-.6 2.82 1.16.52.82-4.05-.1.1 1.36-6.45.01.04.5-2.73-1.2-.3-.46 2.15zm3.14-16.23h0l-.02-.18zm-6.17 31.66l.04-.28-.9 4.4c-.14.8-.01.97-.35 2.4.04-.48-.08.1-.2.65.06-.35.06-.46-.13.24 0 .1-.02.26-.04.4-.01 0-.02.03-.02.02-.17.9-.12.75-.02.34.01.02.02-.01.07-.13-.28.9-.55 2.6-.68 2.7 0 .02-.01.05-.01.07l1.17.48.9-4.37c.17-1.4.8-3.8 1.05-5.46l.2-.62.3-1.5-1-.56-.36 1.22zm-6.15 29.12c.15-.6.14-.4.1-.14-.12.55-.26.85-.32 1.28l-.1.03c.13-.2-.22 1.46-.23 1.67-.14.3.13-.87.1-1.02l-.7 3.3c-.2 1.2.13-.2.1.4l-.5 2.43.97.17 1.5-7.54.25-1.1-1.05-.25-.14.76zm14.8-75.02c.1-.47.2-1.1.17-.68l-.24 1.5-.01-.32-.38 2.22.12-.3c-.2 1.08-.4 1.45-.47 2.7-.03.57.26-1.02.1.14l-.75 3.8 1.16.36.18-.8c.64-3.77 1.18-7.7 1.72-11.55l-1.2-.5c-.16 1.16-.2 2.23-.4 3.44zm-12.2 63.53c-.1.24-.04-.3.08-.95l-.32 1.6c-.08-.03.15-.93.24-1.42-.54 1.87-.72 3.94-1.32 6.14l-.04.47-.04.13c.03 0-.03.5-.1.84-.13.28-.15.01-.34.82l1.13.3 2.18-9.63.28-1.27-1.1-.46-.65 3.43zm10.98-50.23l.1-.46-.93-.28c-.13.6-.2.2-.4 1.7l.04.36c-.18 1.78-.33.92-.5 2.9.14-.77.23-.33.02.6v-.25l-.17 1.06c.02-.32-.07-.2-.2.6v-.53l-.15 1.48-.75 3.36-.15.7 1.23.36.34-2.04c-.06.42.08-.17.1-.13.28-1.55.58-3.2.42-3.26.22-1.13.23-.9.32-1.04-.07-.01.08-1 .25-1.87l-.05.4.45-2.53-.23.47c.3-1.33.23-.3.43-1.6h-.13zm4.12-31.33l-.22.77c-.15.86.03.64-.17 1.6-.05-.07-.23 1.2-.2.63l-1.13 7.24c.01.25-.03.6-.08 1l1.04.27 1.2-7.34.13-.3c.15-.1.1-1.95.26-2.2l.07-.82c.06-.22.15-.7.12-.3.12-.75.1-.77.14-1.3l.2-.77-1.07-.2c-.1.33-.18.65-.27 1.72zm2.6-16.67c-.27 1.6-.12 3.3-.46 4.97-.04.8-.03-.72-.15.48-.1.02.03-.56-.1-.27-.13 1.17-.4 1.9-.54 3.35l-.08.05c-.1 1.13-.3 2.15-.46 3.07l1.03.22.75-5.32 1.3-8.18-1-.25-.28 1.88zm-22.9 122.57c-2.57 14.7.23 3.27.23 3.27l1.24-5.3-.9-.23-.57 2.26zm28.78-161.33l-.01-.14-.42 2.45 1.07.13c.94-6.37 2.37-16.92-.64-2.44zm-4.08 26.66v-.14c-.06 1.1-.2 1.4-.33 2.64-.02.06-.04.15-.05.14-.07 1.17-.48 3.3-.6 4.33l.92.2.44-3.3 1.23-7.84-1.1-.2-.5 4.18zm10.86-20.07h0l-.02.02z"/><path d="M226.62 208.8c-.01-.72-.2-.94-1.03.5l-.02-.03c-.17.44-.27.72-.22 1.08-.18 0-.13.37-.2.46h-.01c.04.32-.28.53-.26.83-.01-.01-.05-.04-.03-.1-.05.2-.1.47-.2.45-.15.46-.44 1.07-.42 1.4l-.02-.03c.03.2-.08.22-.1.42-.02 0-.03.01-.03.01.02.22-.23.5-.26.68l-.06-.02-.16.35.08-.12c.14.13-.23.2-.26.5-.15.22.08.65-.14.85.01.15-.06-.17-.1.03-.1-.04 0-.1-.1-.1-.06.2-.25.22-.32.45l-.07-.03c-.05.33-.38.44-.4.67-.13.3-.3.05-.37.4l-.15.05c-.1.1.04.15-.1.25-.05-.05-.15.13-.15.02-.3.2-.33.64-.74.9.04.16-.17.3-.15.4-.05-.03-.32.34-.23.07.01-.02.04-.05.05-.04l-.03-.07c-.28.1-.26.4-.45.58.07-.04.13-.12.12-.04l-.17.17v-.08l-.27.22h.1c-.15.1-.3.04-.35.25-.02.1.2-.04.07.1-.2.1-.5.3-.75.46.08.05.01.1-.04.16l-.05-.05c-.2.27-.2-.06-.4.2v-.06l.03.17c-.14.3-.2-.04-.34.32.1-.1.14.1 0 .16l-.01-.08c-.06.06-.07.1-.13.1.02-.06-.04-.1-.13-.03l.02-.12-.13.23c-.2.03-.4.26-.5.2 0 0-.35.16-.38.3.04-.1-.17-.02-.15-.12-.05.1-.3.3-.43.28l.02-.02c-.42.13-.63.44-1.04.48.05.07-.16.1-.07.2-.34.27-.78.06-.8.43-.17.08-.24-.01-.34.01l.04-.03c-.33.13-.42.18-.68.24-.12.07-.1.22-.33.25.06-.08-.03-.04-.12-.02.05-.02.06-.05-.06-.06-.01.02-.03.04-.05.06v-.01c-.14.06-.1.07-.04.06 0 .01.01.02.03.03-.17-.04-.4.12-.46.01-.43.12-.72.3-1.07.4-.05-.05.03-.1.13-.16-.08.03-.17.05-.25.07-.01-.08.14-.07.22-.1-.33-.07-.6.24-1 .18l-.07.08-.02-.01c.01.03-.07.1-.12.1-.06-.06-.02-.16-.2-.13-.15-.05-.4.08-.58.15.1 0 .07.04.03.07-.1.01-.15-.05-.22-.01l-.02-.1c.05.1-.23.12-.26.16-.06-.07.14-.07.15-.13l-.54.06c-.2.1.04.1-.04.18-.17.04-.34.1-.54.06l.07.08c-.32.1-.52.08-.74 0l-.75.26.1-.67-1.02-.07-.05.55c-.22.3-.38 2.4-.54 3.07V228c-.14 1.8-.67 3.65-.8 5.38 0-.07-.04-.1.01-.5l-.5 3.05-.15 1 1.2.16.95-6.36a3.78 3.78 0 0 0 .07-.68l.66-4.24a2.66 2.66 0 0 0 .34.07c1 .17 1.5-.1 2.66-.28 1.03-.1 1.33.04 2.37-.23a12.24 12.24 0 0 0 1.5-.4c.2-.18.64-.17.87-.37l.13.03a.45.45 0 0 1 .3-.12v.02c.12-.1.3-.12.35-.17v.02l.16-.07-.02.04c.22-.15.46-.25.68-.3l-.05-.07c.5-.1.6-.33 1.03-.42v.02c.4-.45.88-.25 1.26-.75-.05.06.05.02.06.04.22-.16.45-.32.36-.47.17-.1.16-.04.22 0-.04-.06.08-.2.2-.28l-.04.07.33-.28-.15-.06c.2-.1.15.1.3-.06l-.07-.1c.26-.18.54-.13.82-.3 1.03-.83 1.68-2.06 2.56-2.87h.1c.12.06.04-.38.16-.34l.03-.15c.04-.02.1-.07.1 0 .08-.1.06-.12.08-.2l.14-.07c.35-.37.43-.83.74-1.26.48-.46.9-1.6 1.1-2.25.22-.94 1.12-1.8 1.22-2.82.03-.03.01-.12 0-.12l.28-.86c-.03.03.28-1.03.28-1.72zm4.98 123l.12-.3c-.01-.01-.05.07-.12.3zm21.36-80.22l.01-.08-.01.08zm-16.7 68.3l-.01.1.01-.1z"/><path d="M231.53 335.92c1.28-4.2 1.76-5.28 2.96-9.67.62-2.08 1.22-4.32 1.78-6.37.16-1 .76-2.68.98-3.86l.2-.43c.08-.4.18-.88.33-1.26l.01.03c.1-.6.33-1.26.4-1.56v.03l.2-.72v.13a37.12 37.12 0 0 1 .81-3.04l-.1.05c.65-1.98.68-2.76 1.3-4.54v.03c.4-2.35 1.14-3.57 1.56-6-.05.3.08-.1.1-.1.27-1.1.57-2.26.4-2.32.22-.8.23-.63.32-.72-.07-.01.08-.7.24-1.33l-.05.3.44-1.78-.23.3c.3-.93.23-.2.43-1.1h-.12c.36-1.3.74-2 1.15-3.25 1.4-5.23 2.53-10.94 3.96-15.78l.14-.2c.15-.06.16-1.4.32-1.55l.1-.58c.06-.15.17-.48.13-.2.14-.52.12-.54.18-.93l.22-.54c.58-2.06.88-3.86 1.46-6.03.82-2.58 1.92-7.55 2.55-10.4.82-4.04 2.5-8.56 3.3-12.7.05-.13.1-.48.08-.48l.96-3.74s4.63-18.13.12-4.6v-.1c-.58 2.03-.92 3.32-1.14 4.76-.22.18-.44 1.68-.62 2.14v-.05c-.2 1.28-.76 2.55-.95 3.78 0-.05-.04-.1.03-.37-.2.88-.47 2.1-.58 2.13-.5 2.1-1.3 5-1.47 6.4v-.1c-.1.8-.23 1-.4 1.86l-.05.1c-.1.86-.6 2.44-.72 3.12l-.08.03-.4 1.66.17-.62c.12.26-.43 1.23-.62 2.46-.3 1.12-.2 2.38-.6 3.53-.06.58-.01-.53-.16.32-.1 0 .04-.4-.1-.2-.16.83-.43 1.32-.63 2.34l-.08.02c-.2 1.35-.72 2.46-.82 3.37-.28 1.37-.44.86-.66 2.3l-.24.53c-.17.6.01.46-.2 1.12-.05-.06-.26.84-.22.43-.48 1.5-.64 3.12-1.3 5.08.01.47-.32 1.45-.3 1.8-.07.04-.52 2.02-.35.86.02-.1.06-.27.08-.25l-.04-.15c-.42 1.1-.45 2.1-.76 3.22.1-.33.2-.78.2-.47l-.27 1.05v-.23l-.43 1.55.13-.2c-.23.75-.43 1-.55 1.88-.04.4.3-.7.1.1a124.15 124.15 0 0 0-1.14 3.8c.12-.1.02.25-.06.6l-.08.02c-.26 1.4-.3.46-.57 1.86l-.02-.13.06.4c-.18 1.27-.33.63-.5 2.05.13-.55.23-.2.02.45l-.02-.2c-.08.37-.1.5-.17.75.02-.23-.07-.14-.2.4v-.4l-.15 1.06c-.3.77-.53 2.06-.72 2.35 0 0-.5 1.7-.5 2.1.03-.36-.26.57-.26.28-.05.46-.34 1.78-.56 2.28l.02-.1c-.6 1.9-.8 3.33-1.37 5.03.1-.06-.2.85-.02.65-.4 1.82-1.12 3.2-.98 3.94-.2.82-.35.94-.48 1.36l.04-.2-.85 3.1c-.13.57 0 .7-.33 1.7.03-.34-.07.07-.18.45.06-.24.06-.33-.12.16a1.67 1.67 0 0 1-.04.29c-.01 0-.02.02-.02.01-.16.64-.1.53-.02.24.01.02.02 0 .07-.1-.27.63-.52 1.83-.64 1.88-.52 1.9-.8 3.3-1.22 4.9-.1.16-.05-.22.07-.7l-.3 1.13c-.07-.03.14-.66.22-1-.5 1.3-.67 2.8-1.24 4.32l-.03.34-.04.1c.03 0-.02.37-.08.6-.13.2-.15-.06-.37.7-.24.6-.48 1.75-.68 2.56.14-.43.13-.28.1-.1-.1.4-.24.6-.3.9l-.1.01c.13-.13-.2 1.04-.2 1.2-.13.2.12-.62.1-.73l-.67 2.33c-.18.85.13-.12.1.3-.2.74-.35 1.47-.65 2.3l.16-.24c-.35 1.4-.6 2.2-.96 3.1-2.42 10.4.25 2.42.25 2.42 1.37-3.9 1.75-6.06 3.1-10.87zm18.87 110.82l-.3-.14c.96.1 1.78-.02 2.62-.05.45-.14-.67-.17.28-.3l2.67-.03c-.1.1-1.05.08-.8.2.16-.06 1.5-.08 1.32-.23l.04.16c.34-.05.6.06 1.04.06.2-.04.37-.1-.12-.13.92-.07 2.2-.24 2.9-.13.9-.01.62.14.87.26.27-.02.67-.1.66-.15l.1.02.37-.1c1.8.2 3.42-.25 4.94-.03-.4.03-1.12-.03-1.13.1l1.28-.04c-.53.04-.95.12-.74.2l5.54-.32c.1.18 1.43.03 2.18.16-.1-.03-.13-.05-.12-.07-.34-.01-.46-.05.26-.1-.01.01.01.02.02.03l.32-.07c.57.07.48.1.2.13.43 0 .9-.02.53.08 1.16.06 1.26-.2 1.9-.26l3.55-.05-.22.03c.48.03.65.2 1.58.16.74-.57 2.42-.02 4.47-.2-.26-.18.8-.1.7-.25 1.98.17 3.54-.18 5.75-.04l-.1.02c.6.14 2.08.03 2.6-.1-.3.14.77.18.38.3.45-.2 2.4-.1 2.4-.1.37.17 1.8 0 2.7.13l1.17-.22-.42.15c.62-.02.74.1.5.15.28.02.42-.03.84-.05l-.2.12c.43.03.52-.05.57-.12.03-.08-.01-.13-.16-.1.33-.2.34-.25.46-.26.1-.02.25-.05.26-.43a.81.81 0 0 0-.22-.23l.08.07c-.01-.1-.03-.43-.01-.55.01-.14.05-.2.08-.28s.07-.14.08-.28c.01-.07 0-.17 0-.28-.01-.03-.02-.07-.04-.1l.12-.06c-.03-.1-.03-.2-.17-.03-.02-.04-.1-.03-.15-.06-.03 0 0-.01-.1-.02l-.87-.06-2.07-.16c-.92.03.35.1-.1.2-.98.18-1.28-.04-2.15-.1l.24.13-1.77-.07.25-.1-1.2-.02c-.34.08.17.07.55.12-1.28-.04-2.34.3-3.64.07l.15-.12c-.01.03.18.04.3.02 1.3-.2-.95-.13-1-.22-.37.15-1.5.02-2 .23-2.27-.3-4.05.1-5.77-.08.45-.1-.56-.08-.52-.2-.76-.1-.57.15-1.25.12l-.62-.17c-1.6.23-1.1-.24-2.64-.14-1 .2-2.32-.2-3.82.03l-.05-.12c-1.15.1-1.74-.14-2.67-.07-.24-.13.23-.07.2-.23-.95.1.25-.26-.4-.12-1.33-.16-2.65.5-3.92.46-1.37.2-2.55-.32-2.8-.01l.7.03-1.88.01-.05-.1c-.77.07-2.58-.1-3.53.08.01-.01-.06-.02-.1-.04-.97.1-1.23-.07-2.1.1l.1-.05c-1.53.26-4.85.16-7.22.2-.07-.17-1.44-.1-2.43-.08.3 0 .34-.08.4-.1-1.37.2-2.87-.22-4.3-.01l.05-.02c-.54-.1-2.2.15-2.45-.14-.8.1-1.57.16-2.43.16-.2 0-.43 0-.66-.01-.16 0-.2-.01-.3-.02l-.3-.03c-.08-.03-.05.05-.06.1v.16l-.05-.07c-.1.2-.06 1.37-.08 2-.08.67.15 1.1.42 1.47.22.27.43.44.63.57.2.07.43.12.66.12h3.08l2.55-.28c1.05.12 2 .14 3.57.02z"/><path d="M274.63 422.14c-.17.25-.35.24-.44.55-.08.13-.12.28-.16.42.08.12-.08.17-.03.3h-.08c.02.04.03.08-.02.1h-.02c.03.06-.02.1-.01.12h-.02l-.01.05-.02-.02a.2.2 0 0 1-.07.21l.08.03c-.15.08-.01.2-.17.27l-.02-.01c.13.25-.25.16-.14.4-.01-.03-.04-.01-.06-.02-.01.08-.04.16.1.24-.03.05-.07.02-.13-.01.07.03.07.1.06.13l-.02-.03-.03.12.14.04c-.07.04-.16-.06-.16.01l.1.05c-.06.07-.24.04-.36.08-.2.3-.12.8-.46 1l-.1-.03c-.12-.05.13.17.01.13l.03.06c-.03 0-.06.01-.07-.02-.02.03 0 .04.02.08h-.1c-.12.1-.04.28-.14.4-.23.1-.25.47-.26.68.04.34-.56.4-.5.75-.02 0 .01.04.02.05l-.14.23s-.62 1.1.77.73h.02c.13-.1.18-.17.1-.32.16.06.07-.1.13-.1h.01c-.08-.14.18-.1.1-.24.01.01.05.03.05.05.01-.06.01-.16.1-.12.04-.14.18-.3.08-.46l.02.02c-.07-.1.02-.07 0-.15.01 0 .02 0 .03.01-.07-.1.06-.16.04-.22l.06.03.04-.1-.03.03c-.16-.1.14-.03.07-.16.06-.06-.27-.32-.15-.35-.06-.07.1.1.08.01.1.04.04.05.12.07-.01-.07.13-.04.1-.13l.07.03c-.08-.14.17-.1.08-.22-.01-.1.23.04.14-.1h.1c.03-.03-.1-.08-.03-.1.06.03.07-.03.1.02.14-.05-.03-.26.2-.3-.1-.08 0-.1-.07-.18.05.02.07-.12.14 0 .01.01 0 .02-.02.01l.06.04c.16-.01 0-.16.05-.22-.03.01-.04.04-.08 0l.04-.06.05.04.08-.08-.07-.02c.06-.03.18.01.1-.1-.04-.05-.1 0-.1-.06.08-.04.2-.1.26-.17-.08-.03-.07-.05-.07-.08l.07.03c-.05-.13.16.04.13-.08l.04.03-.13-.1c-.1-.14.16.03.02-.15-.01.04-.15-.06-.1-.1l.06.04c0-.03-.02-.05 0-.06.03.03.1.05.1.02l.07.06-.1-.12c.1-.01.05-.14.15-.1 0 0 .1-.08.01-.16.05.05.1.01.17.06-.06-.06-.07-.17.02-.17v.01c.14-.08 0-.26.15-.32-.08-.03-.01-.07-.1-.1-.04-.16.3-.1.02-.3.01-.06.1-.02.13-.04v.02c.02-.1.04-.14.08-.2-.01-.05-.15-.13-.08-.17.05.05.05.02.06-.01 0 .02.02.04.07.02-.02-.01-.02-.03-.03-.04.01-.04-.01-.04-.03-.03-.01-.01-.02-.01-.04-.01.1 0 .05-.12.15-.07.04-.13-.02-.27 0-.4.06.01.1.06.1.1l.02-.08c.07.04.02.06.02.1.16-.02-.03-.23.13-.28l-.05-.05h.01c-.03-.01-.06-.06-.06-.08.07.02.14.07.16.02.08-.01.03-.12.02-.2-.02.02-.05 0-.07-.03.01-.03.08-.01.06-.04l.1.04c-.08-.03-.05-.1-.08-.13.07.02.03.07.08.1l.06-.15c-.04-.08-.08-.03-.15-.1.01-.05-.03-.13.05-.16l-.08-.02c-.01-.12.02-.16.13-.18-.28-.96-.76-.56-.76-.56-.28.16-.13.4-.23.74zm5.02 2.1c-.17.24-.35.24-.42.54-.08.12-.1.28-.16.4.08.12-.08.17-.02.28h-.08c.02.04.03.08-.02.1l-.02-.01c.03.06-.02.1 0 .12l-.02-.01v.05-.02c.02.1-.01.16-.06.2l.08.03c-.15.08-.01.2-.17.27h-.02c.14.24-.25.15-.13.4-.02-.03-.04-.01-.06-.02-.01.08-.04.15.12.23-.03.05-.07.02-.13-.01.07.03.07.1.06.13l-.02-.03-.03.12.14.04c-.07.04-.16-.06-.16.01l.1.05c-.06.07-.24.04-.36.08-.2.3-.1.78-.44.98l-.1-.03c-.12-.05.13.17.02.13l.04.06c-.03 0-.06.01-.07-.02-.02.03 0 .04.02.08h-.1c-.12.1-.03.28-.13.4-.23.1-.24.46-.25.67.05.33-.55.4-.48.73-.02 0 .01.04.02.05l-.13.22s-.6 1.1.78.72h.02c.12-.1.18-.17.1-.32.16.06.07-.1.13-.1h0c-.08-.14.18-.1.1-.23.01.01.05.03.05.05.01-.06.01-.15.1-.1.04-.14.17-.3.07-.45l.02.02c-.07-.1.02-.07-.01-.14.01 0 .02 0 .03.01-.07-.1.06-.16.04-.22l.06.03.04-.1-.03.03c-.16-.1.14-.03.07-.15.06-.06-.27-.3-.16-.34-.06-.07.1.1.08.01.1.04.04.05.12.07-.02-.07.13-.04.1-.13l.07.03c-.08-.14.16-.1.07-.22-.01-.1.23.04.14-.1l.1.01c.03-.03-.1-.08-.03-.1.06.03.07-.03.1.02.14-.05-.03-.25.18-.3-.1-.08 0-.1-.07-.17.05.02.07-.12.14 0 .01.01 0 .02-.02.01l.06.04c.16-.01 0-.16.05-.22-.03.01-.04.04-.08 0l.04-.06.05.04.08-.08h-.07c.06-.03.18.01.1-.1-.04-.05-.1 0-.1-.06.08-.04.2-.1.26-.17-.08-.03-.07-.05-.07-.08l.07.03c-.05-.13.16.04.13-.08l.04.03-.13-.1c-.1-.14.16.03.02-.15-.01.04-.16-.06-.1-.08l.06.04c0-.03-.03-.05 0-.06.03.03.1.05.1.02l.07.06-.1-.12c.1-.01.05-.13.15-.1 0 0 .1-.08.01-.16.05.05.1.01.17.06-.06-.06-.07-.17.02-.17l.01.01c.14-.08 0-.26.14-.32-.08-.03-.01-.07-.12-.1-.04-.16.3-.1.02-.3.01-.06.1-.02.13-.04v.02a.42.42 0 0 1 .07-.2c-.01-.05-.15-.13-.1-.17.05.05.05.02.06-.01 0 .02.02.03.07.02-.02-.01-.02-.03-.03-.04.01-.04-.01-.04-.03-.03-.01-.01-.02-.01-.04-.01.1 0 .05-.12.15-.07.04-.13-.02-.26-.01-.38.06.01.1.06.1.1v-.08c.07.04.02.06.03.1.16-.02-.03-.23.12-.27l-.05-.05h.01c-.03-.01-.06-.06-.06-.08.07.02.14.07.16.02.08-.01.02-.12.01-.2-.02.02-.05 0-.07-.03.01-.02.08-.01.06-.04l.1.04c-.08-.03-.05-.1-.08-.13.07.02.04.06.08.1l.06-.15c-.04-.08-.08-.03-.15-.1.01-.05-.03-.13.05-.15l-.08-.02c-.02-.1.02-.16.12-.18-.3-.94-.77-.55-.77-.55-.3.15-.16.4-.25.72zm-38.9 7.3c.53.2.6.4 1.18.53.25.1.54.18.8.26.17-.07.32.14.5.1l.02.1c.06-.01.13-.01.16.05h-.01c.1-.02.16.05.2.04v.02l.1.03h-.03a.65.65 0 0 1 .37.15l.03-.08c.2.2.35.1.5.32l-.01.02c.38-.05.32.37.7.36-.05 0-.01.05-.03.06.13.06.27.13.36-.01.08.06.04.1.01.16.04-.06.13-.03.2.01h-.05l.2.12.05-.14c.07.1-.08.16.04.2l.07-.1c.13.12.08.33.15.5.47.45 1.2.8 1.44 1.43l-.05.08c-.1.1.25.02.18.1h.1c-.01.03 0 .08-.04.07.04.06.05.05.12.06l-.02.1c.12.24.35.36.5.6.05.37.48.84.72 1.14.4.4.16 1.15.52 1.57-.01.02.04.05.05.05l.12.47s.14.57.3.9c.15.3.47.5.82-.56l.03.01c.01-.3-.02-.48-.2-.64.16-.08-.05-.23-.01-.3h.02c-.17-.13 0-.38-.17-.5.02 0 .06-.01.08.03-.06-.1-.15-.26-.06-.3-.13-.27-.24-.68-.47-.78h.03c-.14-.05-.07-.12-.17-.2.01-.01.01-.02.02-.02-.15-.06-.17-.3-.25-.36l.06-.04-.12-.2.03.08c-.17.06.02-.2-.17-.3-.06-.15-.5-.08-.5-.27-.1-.02.15-.02.04-.08.08-.05.08.01.13-.05-.1-.07-.02-.2-.15-.3l.06-.05c-.22-.08-.1-.35-.3-.37-.16-.12.1-.23-.14-.3l.03-.12c-.04-.08-.14.03-.15-.08.05-.03-.03-.13.05-.12-.05-.24-.4-.24-.45-.57-.13.04-.17-.12-.27-.1.03-.04-.2-.2 0-.18.02 0 .03.02.02.04l.07-.04c-.01-.2-.26-.16-.36-.3.02.05.07.1 0 .1l-.1-.1.07-.02-.13-.18-.03.08c-.05-.1.01-.23-.16-.23-.08.01.01.14-.1.1-.07-.13-.2-.34-.32-.48-.04.08-.08.04-.13.02l.04-.06c-.22-.04.04-.17-.17-.23l.05-.03-.14.1c-.23.01.02-.18-.26-.14.07.04-.07.15-.12.07l.06-.04c-.05-.02-.08-.01-.1-.04.05-.01.07-.08 0-.1l.1-.04-.2.02c-.05-.13-.25-.14-.24-.25 0 0-.18-.18-.28-.1.08-.03-.02-.13.05-.18-.1.03-.3 0-.3-.1h.02c-.2-.2-.46-.14-.64-.34-.03.08-.12-.02-.15.1-.27-.02-.3-.4-.54-.14-.1-.03-.1-.13-.14-.17l.03-.01c-.2-.06-.27-.1-.4-.16-.1 0-.16.14-.28.05.07-.04.01-.05-.04-.07.04 0 .05-.01.01-.08-.02.01-.04.02-.05.02-.1-.03-.08-.01-.05.01-.01.01-.01.02 0 .04-.05-.1-.24-.1-.2-.2-.26-.08-.48-.03-.7-.07 0-.06.06-.1.13-.1l-.15-.03c.03-.08.1-.01.15-.01-.13-.2-.4 0-.58-.18l-.06.05v-.01c-.01.03-.07.06-.1.06-.01-.08.05-.15-.05-.18-.06-.1-.24-.04-.36-.03.05.03.02.06-.01.08-.05-.01-.06-.1-.1-.07v-.1c0 .1-.16.05-.2.1-.01-.08.1-.04.12-.08l-.32-.07c-.13.04 0 .1-.08.16-.1-.01-.2.03-.3-.05l.02.1c-.2.02-.3-.02-.4-.13-.77.18-.85.42-.78.58.06.16.3.27.3.27.44.24.76.07 1.4.18zm-63.2 15.18l-.3-.14c.96.1 1.78-.02 2.62-.05.45-.14-.67-.17.28-.3l2.67-.03c-.1.1-1.05.08-.8.2.16-.06 1.5-.08 1.32-.23l.04.16c.34-.05.6.06 1.04.06.2-.04.37-.1-.12-.13.92-.07 2.2-.24 2.9-.13.9-.01.62.14.87.26.27-.02.67-.1.66-.15l.1.02.37-.1c1.8.2 3.42-.25 4.94-.03-.4.03-1.12-.03-1.13.1l1.28-.04c-.53.04-.95.12-.74.2l5.54-.32c.1.18 1.43.03 2.18.16-.1-.03-.13-.05-.12-.07-.34-.01-.46-.05.26-.1-.01.01.01.02.02.03l.32-.07c.57.07.48.1.2.13.43 0 .9-.02.53.08 1.16.06 1.26-.2 1.9-.26l3.55-.05-.22.03c.48.03.65.2 1.58.16.74-.57 2.42-.02 4.47-.2-.26-.18.8-.1.7-.25 1.98.17 3.54-.18 5.75-.04l-.1.02c.6.14 2.08.03 2.6-.1-.3.14.77.18.38.3.45-.2 2.4-.1 2.4-.1.37.17 1.8 0 2.7.13l1.17-.22-.42.15c.62-.02.74.1.5.15.28.02.42-.03.84-.05l-.2.12c.43.03.52-.05.57-.12.03-.08-.01-.13-.16-.1.33-.2.34-.25.46-.26.1-.02.25-.05.26-.43a.81.81 0 0 0-.22-.23l.08.07c-.01-.1-.03-.43-.01-.55.01-.14.05-.2.08-.28s.07-.14.08-.28v-.28c-.01-.03-.02-.07-.04-.1l.12-.06c-.03-.1-.03-.2-.17-.03-.02-.04-.1-.03-.15-.06-.03 0 0-.01-.1-.02l-.87-.06-2.07-.16c-.92.03.35.1-.1.2-.98.18-1.28-.04-2.15-.1l.24.13-1.77-.07.25-.1-1.2-.02c-.34.08.17.07.55.12-1.28-.04-2.34.3-3.64.07l.15-.12c-.01.03.18.04.3.02 1.3-.2-.95-.13-1-.22-.37.15-1.5.02-2 .23-2.27-.3-4.05.1-5.77-.08.45-.1-.56-.08-.52-.2-.76-.1-.57.15-1.26.12l-.62-.17c-1.6.23-1.1-.24-2.64-.14-1 .2-2.32-.2-3.82.03l-.05-.12c-1.15.1-1.74-.14-2.67-.07-.24-.13.23-.07.2-.23-.95.1.25-.26-.4-.12-1.33-.16-2.65.5-3.92.46-1.37.2-2.55-.32-2.8-.01l.7.03-1.88.01-.05-.1c-.77.07-2.58-.1-3.53.08.01-.01-.06-.02-.1-.04-.97.1-1.23-.07-2.1.1l.1-.05c-1.53.26-4.85.16-7.22.2-.07-.17-1.44-.1-2.43-.08.3 0 .34-.08.4-.1-1.37.2-2.87-.22-4.3-.01l.05-.02c-.54-.1-2.2.15-2.45-.14-.8.1-1.57.16-2.43.16-.2 0-.43 0-.66-.01-.16 0-.2-.01-.3-.02l-.3-.03c-.08-.03-.05.05-.06.1v.16l-.05-.07c-.1.2-.06 1.37-.08 2-.08.67.15 1.1.42 1.47.22.27.43.44.63.57.2.07.43.12.66.12h3.08l2.55-.28c1.06.12 2 .14 3.58.02z"/><path d="M201.8 422.14c-.17.25-.35.24-.44.55-.08.13-.12.28-.16.42.08.12-.08.17-.03.3h-.08c.02.04.03.08-.02.1h-.02c.03.06-.02.1-.01.12h-.02l-.01.05v-.02a.2.2 0 0 1-.07.21l.08.03c-.15.08-.01.2-.17.27l-.02-.01c.13.25-.25.16-.14.4-.01-.03-.04-.01-.06-.02-.01.08-.04.16.1.24-.03.05-.07.02-.13-.01.07.03.07.1.06.13l-.02-.03-.03.12.14.04c-.07.04-.16-.06-.16.01l.1.05c-.06.07-.24.04-.36.08-.2.3-.12.8-.46 1l-.1-.03c-.12-.05.13.17.01.13l.03.06c-.03 0-.06.01-.07-.02-.02.03 0 .04.02.08h-.1c-.12.1-.04.28-.14.4-.23.1-.25.47-.26.68.04.34-.56.4-.5.75-.02 0 .01.04.02.05l-.14.23s-.62 1.1.77.73h.02c.13-.1.18-.17.1-.32.16.06.07-.1.13-.1h.01c-.08-.14.18-.1.1-.24.01.01.05.03.05.05.01-.06.01-.16.1-.12.04-.14.18-.3.08-.46l.02.02c-.07-.1.02-.07 0-.15.01 0 .02 0 .03.01-.07-.1.06-.16.04-.22l.06.03.04-.1-.03.03c-.16-.1.14-.03.07-.16.06-.06-.27-.32-.15-.35-.06-.07.1.1.08.01.1.04.04.05.12.07-.01-.07.13-.04.1-.13l.07.03c-.08-.14.17-.1.08-.22-.01-.1.23.04.14-.1h.1c.03-.03-.1-.08-.03-.1.06.03.07-.03.1.02.14-.05-.03-.26.2-.3-.1-.08 0-.1-.07-.18.05.02.07-.12.14 0 .01.01 0 .02-.02.01l.06.04c.16-.01 0-.16.05-.22-.03.01-.04.04-.08 0l.04-.06.05.04.08-.08-.07-.02c.06-.03.18.01.1-.1-.04-.05-.1 0-.1-.06.08-.04.2-.1.26-.17-.08-.03-.07-.05-.07-.08l.07.03c-.05-.13.16.04.13-.08l.04.03-.13-.1c-.1-.14.16.03.02-.15-.01.04-.15-.06-.1-.1l.06.04c0-.03-.02-.05 0-.06.03.03.1.05.1.02l.07.06-.1-.12c.1-.01.05-.14.15-.1 0 0 .1-.08.01-.16.05.05.1.01.17.06-.06-.06-.07-.17.02-.17v.01c.14-.08 0-.26.15-.32-.08-.03-.01-.07-.1-.1-.04-.16.3-.1.02-.3.01-.06.1-.02.13-.04l.01.02c.02-.1.04-.14.08-.2-.01-.05-.15-.13-.08-.17.05.05.05.02.06-.01 0 .02.02.04.07.02-.02-.01-.02-.03-.03-.04.01-.04-.01-.04-.03-.03-.01-.01-.02-.01-.04-.01.1 0 .05-.12.15-.07.04-.13-.02-.27 0-.4.06.01.1.06.1.1l.02-.08c.07.04.02.06.02.1.16-.02-.03-.23.13-.28l-.05-.05h.01c-.03-.01-.06-.06-.06-.08.07.02.14.07.16.02.08-.01.03-.12.02-.2-.02.02-.05 0-.07-.03.01-.03.08-.01.06-.04l.1.04c-.08-.03-.05-.1-.08-.13.07.02.03.07.08.1l.06-.15c-.04-.08-.08-.03-.15-.1.01-.05-.03-.13.05-.16l-.08-.02c-.01-.12.02-.16.13-.18-.28-.96-.76-.56-.76-.56-.28.16-.13.4-.23.74zm5.03 2.1c-.17.24-.35.24-.42.54-.08.12-.1.28-.16.4.08.12-.08.17-.02.28h-.08c.02.04.03.08-.02.1l-.02-.01c.03.06-.02.1 0 .12v-.01.05l-.02-.02c.02.1-.01.16-.06.2l.08.03c-.15.08-.01.2-.17.27h-.02c.14.24-.25.15-.13.4-.02-.03-.04-.01-.06-.02-.01.08-.04.15.12.23-.03.05-.07.02-.13-.01.07.03.07.1.06.13l-.02-.03-.03.12.14.04c-.07.04-.16-.06-.16.01l.1.05c-.06.07-.24.04-.36.08-.2.3-.1.78-.44.98l-.1-.03c-.12-.05.13.17.02.13l.04.06c-.03 0-.06.01-.07-.02-.02.03 0 .04.02.08h-.1c-.12.1-.03.28-.13.4-.23.1-.24.46-.25.67.05.33-.55.4-.48.73-.02 0 .01.04.02.05l-.13.22s-.6 1.1.78.72h.02c.12-.1.18-.17.1-.32.16.06.07-.1.13-.1h.01c-.08-.14.18-.1.1-.23.01.01.05.03.05.05.01-.06.01-.15.1-.1.04-.14.17-.3.07-.45l.02.02c-.07-.1.02-.07-.01-.14.01 0 .02 0 .03.01-.07-.1.06-.16.04-.22l.06.03.04-.1-.03.03c-.16-.1.14-.03.07-.15.06-.06-.27-.3-.16-.34-.06-.07.1.1.08.01.1.04.04.05.12.07-.02-.07.13-.04.1-.13l.07.03c-.08-.14.16-.1.07-.22-.01-.1.23.04.14-.1l.1.01c.03-.03-.1-.08-.03-.1.06.03.07-.03.1.02.14-.05-.03-.25.18-.3-.1-.08 0-.1-.07-.17.05.02.07-.12.14 0 .01.01 0 .02-.02.01l.06.04c.16-.01 0-.16.05-.22-.03.01-.04.04-.08 0l.04-.06.05.04.08-.08h-.07c.06-.03.18.01.1-.1-.04-.05-.1 0-.1-.06.08-.04.2-.1.26-.17-.08-.03-.07-.05-.07-.08l.07.03c-.05-.13.16.04.13-.08l.04.03-.13-.1c-.1-.14.16.03.02-.15-.01.04-.16-.06-.1-.08l.06.04c0-.03-.03-.05 0-.06.03.03.1.05.1.02l.07.06-.1-.12c.1-.01.05-.13.15-.1 0 0 .1-.08.01-.16.05.05.1.01.17.06-.06-.06-.07-.17.02-.17v.01c.14-.08 0-.26.14-.32-.08-.03-.01-.07-.12-.1-.04-.16.3-.1.02-.3.01-.06.1-.02.13-.04l.01.02a.42.42 0 0 1 .07-.2c-.01-.05-.15-.13-.1-.17.05.05.05.02.06-.01 0 .02.02.03.07.02-.02-.01-.02-.03-.03-.04.01-.04-.01-.04-.03-.03-.01-.01-.02-.01-.04-.01.1 0 .05-.12.15-.07.04-.13-.02-.26-.01-.38.06.01.1.06.1.1v-.08c.07.04.02.06.03.1.16-.02-.03-.23.12-.27l-.05-.05h.01c-.03-.01-.06-.06-.06-.08.07.02.14.07.16.02.08-.01.02-.12.01-.2-.02.02-.05 0-.07-.03.01-.02.08-.01.06-.04l.1.04c-.08-.03-.05-.1-.08-.13.07.02.04.06.08.1l.06-.15c-.04-.08-.08-.03-.15-.1.01-.05-.03-.13.05-.15l-.08-.02c-.02-.1.02-.16.12-.18-.3-.94-.77-.55-.77-.55-.32.15-.16.4-.25.72zm-38.9 7.3c.53.2.6.4 1.18.53.25.1.54.18.8.26.17-.07.32.14.5.1l.02.1c.06-.01.13-.01.16.05h-.01c.1-.02.16.05.2.04l-.01.02.1.03h-.03a.65.65 0 0 1 .37.15l.03-.08c.2.2.35.1.5.32l-.01.02c.38-.05.32.37.7.36-.05 0-.01.05-.03.06.13.06.27.13.36-.01.08.06.04.1.01.16.04-.06.13-.03.2.01h-.05l.2.12.05-.14c.07.1-.08.16.04.2l.07-.1c.13.12.08.33.15.5.47.45 1.2.8 1.44 1.43l-.05.08c-.1.1.25.02.18.1h.1c-.01.03 0 .08-.04.07.04.06.05.05.12.06l-.02.1c.12.24.35.36.5.6.05.37.48.84.72 1.14.4.4.16 1.15.52 1.57-.01.02.04.05.05.05l.12.47s.14.57.3.9c.15.3.47.5.82-.56l.03.01c.01-.3-.02-.48-.2-.64.16-.08-.05-.23-.01-.3h.02c-.17-.13 0-.38-.17-.5.02 0 .06-.01.08.03-.06-.1-.15-.26-.06-.3-.13-.27-.24-.68-.47-.78h.03c-.14-.05-.07-.12-.17-.2.01-.01.01-.02.02-.02-.15-.06-.17-.3-.25-.36l.06-.04-.12-.2.03.08c-.17.06.02-.2-.17-.3-.06-.15-.5-.08-.5-.27-.1-.02.15-.02.04-.08.08-.05.08.01.13-.05-.1-.07-.02-.2-.15-.3l.06-.05c-.22-.08-.1-.35-.3-.37-.16-.12.1-.23-.14-.3l.03-.12c-.04-.08-.14.03-.15-.08.05-.03-.03-.13.05-.12-.05-.24-.4-.24-.45-.57-.13.04-.17-.12-.27-.1.03-.04-.2-.2 0-.18.02 0 .03.02.02.04l.07-.04c-.01-.2-.26-.16-.36-.3.02.05.07.1 0 .1l-.1-.1.07-.02-.13-.18-.03.08c-.05-.1.01-.23-.16-.23-.08.01.01.14-.1.1-.07-.13-.2-.34-.32-.48-.04.08-.08.04-.13.02l.04-.06c-.22-.04.04-.17-.17-.23l.05-.03-.14.1c-.23.01.02-.18-.26-.14.07.04-.07.15-.12.07l.06-.04c-.05-.02-.08-.01-.1-.04.05-.01.07-.08 0-.1l.1-.04-.2.02c-.05-.13-.25-.14-.24-.25 0 0-.18-.18-.28-.1.08-.03-.02-.13.05-.18-.1.03-.3 0-.3-.1h.02c-.2-.2-.46-.14-.64-.34-.03.08-.12-.02-.15.1-.27-.02-.3-.4-.54-.14-.1-.03-.1-.13-.14-.17l.03-.01c-.2-.06-.27-.1-.4-.16-.1 0-.16.14-.28.05.07-.04.01-.05-.04-.07.04 0 .05-.01.01-.08-.02.01-.04.02-.05.02-.1-.03-.08-.01-.05.01-.01.01-.01.02 0 .04-.05-.1-.24-.1-.2-.2-.26-.08-.48-.03-.7-.07 0-.06.06-.1.13-.1l-.15-.03c.03-.08.1-.01.15-.01-.13-.2-.4 0-.58-.18l-.06.05v-.01c-.01.03-.07.06-.1.06-.01-.08.05-.15-.05-.18-.06-.1-.24-.04-.36-.03.05.03.02.06-.01.08-.05-.01-.06-.1-.1-.07l.02-.1c0 .1-.16.05-.2.1-.01-.08.1-.04.12-.08l-.32-.07c-.13.04 0 .1-.08.16-.1-.01-.2.03-.3-.05l.02.1c-.2.02-.3-.02-.4-.13-.77.18-.85.42-.78.58.06.16.3.27.3.27.44.24.76.07 1.4.18zm91.4-204.76v-20.6l6.9.1v.5c0 .5-.1 11.3-.3 13.8-.3 2.8-5 5.4-5.5 5.7l-1.1.5zm1.4-19.4v17.1c1.7-1.1 3.7-2.8 3.8-4 .2-2.1.3-10.5.3-12.9l-4.1-.2z"/></g></svg>