<svg xmlns="http://www.w3.org/2000/svg" viewBox="0 0 480 480" xmlns:v="https://vecta.io/nano"><path d="M93.2 323.7c.5-5.3 10.1-.7 13.3-1.9 24.5-8.3 38.1-17.9 53-24.5 14.4-6.4 29.6-13.4 35.1-16.6 4.1-2.4 8.6-21.4 8.6-21.4l41.5 11.4s-6.3 19.8-11.7 28c-3.5 5.2-15.6 9-19 10-51.5 15.9-98.5 30.7-106.4 37.3-2.4 2-8.8 12.8-14.6 23.3-3.2 5.7-4.7 10.7-7.6 10.6s-2.9-1.3-2.9-1.3l10.7-54.9z" fill="#e79a7a"/><linearGradient id="A" gradientUnits="userSpaceOnUse" x1="164.192" y1="171.837" x2="174.526" y2="143.529" gradientTransform="matrix(1 0 0 -1 0 482)"><stop offset="0" stop-color="#cc7a5e" stop-opacity="0"/><stop offset=".924" stop-color="#aa5f4b"/></linearGradient><path d="M107.7 346c7.9-6.5 54.9-21.4 106.4-37.3 3.4-1.1 15.5-4.8 19-10 5.2-7.8 11.1-26.1 11.7-27.8v-.2h-.1c-1.3.8-13.2-10.5-17.8-7.5-4.8 3.2-46.2 36.9-63.7 44.4S93.9 333 90 343c-2.4 6-6.5 22.4 4.4 23.9 5.5-9.7 11-19.1 13.3-20.9z" fill="url(#A)"/><linearGradient id="B" gradientUnits="userSpaceOnUse" x1="-102.029" y1="833.276" x2="-82.609" y2="838.06" gradientTransform="matrix(0.5139 -0.8579 -0.8579 -0.5139 984.4025 628.3618)"><stop offset="0" stop-color="#cc7a5e" stop-opacity="0"/><stop offset=".924" stop-color="#aa5f4b"/></linearGradient><path d="M209 284.3c9.8 4.4 26.3 10.2 26.3 10.2s3.4-5.9 5-10.6l4.6-13.3-41.4-11.6-5.7 18.1c-.1.2 3 3.6 11.2 7.2z" fill="url(#B)"/><g fill="#ad5c49"><path d="M237.7 278.7l1.2-.5-1.1-.9zm-3.5-1.2l.7-1.4h-1.8zm4.6 7.3l.6.8.5-1.2zm-13.3-2.4l.7.3v-.9zm-4-1.8l.8.3-.1-.9zm-3.2 1.1l.7.3v-.9zm.6-9v.7l.7-.4zm15.7 8.8h-.6l.3.6zm-.3 4.1l.3.9.8-.7zm-1.7-2.1l1.2-.5-1.1-.9zm-4.3-4.5l.7.8.5-1zm-3-.9l.7.8.5-1zm10.1 5.8l-.8-1.2-.9 1.4zm-4.2-.7l.7-.7-1.1-.4zm-14.6-10.1l1.3.4-.3-1.4zm19.8 14.6l.8-.9-1.3-.4z"/><path d="M238.3 280.5l1.1.6.1-1.3zm.5 6.8l.6-1.4-2 .4zM214 274.5l1.1.3-.2-1.1zm24.7 2.8l.1 2.2 2.3-1.1zm-20.2-5.9l1.5 2.7 2.3-2.1zm3.4 5.5l1.6-1-1.4-1.3zm18.4 2l.5.6.4-.7zm-3.3-3.1l.5.7.4-.7zm-1.2 1.2l.5.6.5-.7zm4.7-3.5l.5.7.5-.8zm1.7-1.8l.5 1.1 1.1-1.3zm-14.8 5.4l.9.4-.1-1zm-17.9-6.3l.9.2-.3-1zm6.6 2.8l.1.8.8-.4zm24.2-1.7h-2.9l1.7 2.9zm-3.4 8.5l.4.8.8-.7zm-24.6-9l.5 1.9 1.9-1.3zm22.9 6.6l-2.1.4 1.5 1.9zm-2.2 1.6l-.4-.7-.5.6zm-2.3 6.3l-.4-.7-.5.7zm-5.5 0l-.3-.7-.6.7zm-7.3 2.9l-.4-.7-.5.7zm7.6-11.4l-.4-.7-.5.6zm11.9 7.7l.8-.4-.8-.6zm-6.8-4.3l.8.9.5-1.2zm-8.2-2.3l1.1-.4-1.1-.9zm-1.7-.3l.7-.7-1.2-.4zm-.7-2.4l.8 1 .6-1.3zm18.6 7.4l-.8-1.2-.9 1.3zm-2.2 2.2l.8-.8-1.4-.5zm-7.6-7.2l1.1.6.1-1.3zm5.3 9l.7.6.5-.8z"/><path d="M228.9 288.6l.7.6.5-.8zm-17.7-14.1h.8l-.4-.8zm6 1.6l-.5-.5-.3.8zm-5.1 1.8l-.6-.5-.3.8zm2.2 1.1l.9.4.2-1zm26.6 2.9l.6-1.7-2.1.3zm-2.6.9l.8-.8-1.3-.5zm-23.6-12.1l.9 2.5 1.9-2zm-3.7-.6l.5 1.5 1.2-1.1zm29.1 13.5l.5-1.3-1.7.2zm.1-8.3l1.1.5v-1.3zm-2.8-.9l1.1.5v-1.3z"/><path d="M241.5 274.3l1.1.6v-1.4zm-1.1-2.5l.8 1 .6-1.2zm3.6 1l-1.5.3.9 1.3zm-1.2 3.7l.5-1.7-2 .4zm-2.5 1.1l.7-.9-1.3-.4zm1.9.7l.4-1.4-1.7.3zm-12.3-2.1l1.2 2.1 1.4-2.1zm6.5 3.4l-.4 1.2 1.4-.2z"/></g><path d="M302.4 418.1c-3 0-3.7-3.8-3-8.5.5-3.5 2.4-7.5 1.2-11-1.6-4.5-9.9-24.8-20.1-48.4-8.3-19.2-11.3-34.6-13.2-43.3-1-4.4-23.8-39.5-23.8-39.5l38.7-11s11 25.4 13.7 34.2c3.6 12.2 7.4 36.3 12.4 57.5 6.2 25.8 11.2 48.8 14.1 52.7 1.9 2.5 14.5 8.9 25.4 13.9 5.9 2.7 11.1 3.8 11.2 6.7s-1.1 3-1.1 3l-55.5-6.3z" fill="#e79a7a"/><linearGradient id="C" gradientUnits="userSpaceOnUse" x1="-300.422" y1="561.718" x2="-279.191" y2="566.948" gradientTransform="matrix(-0.0613 -0.9981 -0.9981 0.0613 815.5057 -45.1487)"><stop offset="0" stop-color="#cc7a5e" stop-opacity="0"/><stop offset=".924" stop-color="#aa5f4b"/></linearGradient><path d="M281.5 290.1c10.6-2 12.1-6.2 12.1-6.2l-8.8-22.1-39.2 9.1 15.9 23.7c0 .1 11.2-2.9 20-4.5z" fill="url(#C)"/><g fill="#ad5c49"><path d="M283.3 269.7l.5-1.2-1.4.1zm5.3 3.7l1 .1-.5-1.2zm-11.2 7.6l.7-.3-.6-.6zm13.8 1l.8-.3-.7-.6zm-15.9-9.5l.4.5.3-.6zm7.8 1.3l-.4.5.7.2zm2.8 3.1l.8.4v-1zm-2.7-.2l.4-1.2-1.4.2zm-6.3-.1l1.1.1-.4-1.1zm-12.4-3.3l1.1.1-.4-1.1zm21 1.7l-1.5-.3.4 1.6zm-3.5 2.5l-.1-1-1.1.5zm-8.4-3.5l1.2-.4-.9-.9zm-1.7-1.6l1.2-.4-.9-1zm-5.8-.5l1.2-.3-1-1zm-.6-2.6l1.3-.3-1-1z"/><path d="M273.7 271.7l1.2-.4-.9-.9zm15.4 5.2l-.1-1.2-1.3.7zm-4.1-6.4l1.2-.3-.9-1zm5.1 4.9l-.4-1.4-1.3 1.5zm-19.1-1l1.1-.2-.8-.9zm-21.9-.6l1.3.3-.4-1.6zm18.7-1.9l1-.2-.7-.9zm-3.2-1.1l.4 1.1.8-.9zM283 268l1.7 1.5.8-2.4zm-7.3 2.9l1.3 1.5.8-2.3zm3.8.9l.5-1.8h-1.9zm5.8-3.8l.8.1-.2-.8zm-10.4 8l.9-.4-.8-.7zm-8.6-.2l.9-.4-.8-.7zm7.1-1.1l.5.6.5-.8zm8.8-6.4l-2.6 1.1 2.6 2zm1.8 3.1l.8.4.1-1.1zm-17.2-3.5l1.4 1.5.9-2.2zm6.2-.2l-1.1 1.8 2.3.4zm8 3.3l-1.1 1.8 2.4.3zm-.4 2.7l-.7-.3.1.9zm2.9 6.1l-.7-.3.1.9zm5.6.8l-.7-.3v.9zm-1.5 1.9l-.4-.7-.5.7zm5.3 1.2l-.4-.7-.5.7zm-19.1-6.2l-.7-.3v.9zm-6-7.2l-.7-.3.1.9zm1.7-.8l-.8-.3.1.9zm18.2 4.8l.3-.7-1 .1zm-7.9 1.9l1.2.1-.4-1.2zm7.4-4l-1.5-.3.3 1.6zm0 3.2l-.1-1.2-1.3.6z"/><path d="M276.7 275.7l1.2-.3-.9-1zm10.2 2.5l.9-.1-.3-.9zm-1.5 1.8l.9-.1-.3-.9zm-31.7.9l.7-.3-.7-.5zm7.2-4.3l.8.3-.1-1zm-2.5-1.1l.3-1-1.2.3zm-5.4 1.6l.9-.1-.4-.9zm7.3-2.9l-1.3.2.8 1.2zm-2.8 3.2l-.1-.9-1 .6zm6.2-1.1l-.1-1.1-1.1.7zm.8-1.5l-.6-1.2-.9 1.5zm-13.3 1.9l.7-.4-.8-.6zm-1.5-1l.5.5.3-.7zm9.4 3.6l-.7-.2.1.8zm-10.2-7l-.7-.1.2.8zm15.2 7.2l-.7-.2.1.8zm4.9-4.3l-.6-.1.1.7zm-6.1 6.1l-.4-.5-.4.6zm-7.5-6.4l.7.9.5-1.1zm6.5.2l-.2-1.1-1 .7zm-7.6-.1l-1.1.3.7.9zm7.6 2.6l.8-.1-.3-.8zm-1.2 1.7l.8-.1-.3-.9zm-11.8-7.5l.9-.1-.3-.8zm40.9 7.7l.9-.1-.2-.9zm1.3.4l.9-.1-.4-.9zm-3.2-10.1l-.6-1.7-1.4 1.6zm-1.2 2.3l-.1-1.1-1.2.6zm-17.2-4.9l1.9 1.7.8-2.6zm-2 6.1l1.2.9.4-1.5zm2.2-2.8l1.2 1 .4-1.6zm18.8 1l-.4-1.3-1.3 1.2zm2.7 6.6l-.5-1.3-1.2 1.2zm-14.3-3.7l2.3-.6-1.7-1.9zm-12.3-3.5l1.4-1.9-2.4-.5zm18.4.4l.6 1.1.9-1.1z"/></g><linearGradient id="D" gradientUnits="userSpaceOnUse" x1="176.792" y1="893.775" x2="188.134" y2="862.709" gradientTransform="matrix(0.1048 -0.9945 -0.9945 -0.1048 1164.7653 608.3865)"><stop offset="0" stop-color="#cc7a5e" stop-opacity="0"/><stop offset=".924" stop-color="#aa5f4b"/></linearGradient><path d="M321.9 399.1c-3.9-6-14.5-55.9-26-109.4-.8-3.5-7.1-18.9-11.7-26.5-4.9-8-21-7.6-22.7-8.3h-.2v.1c.7 1.4-11.9 12-9.3 16.9 2.7 5.1 31.8 49.8 37.5 68s18.1 71.6 27.5 76.5c5.7 3 26.7 8.3 29.4-2.4-12.5-5.6-22.2-11.3-24.5-14.9z" fill="url(#D)"/><linearGradient id="E" gradientUnits="userSpaceOnUse" x1="242.042" y1="217.136" x2="260.333" y2="177.77" gradientTransform="matrix(1 0 0 -1 0 482)"><stop offset="0" stop-color="#cc7a5e" stop-opacity="0"/><stop offset=".924" stop-color="#aa5f4b"/></linearGradient><path d="M244.8 270.7h0v.2-.2z" fill="url(#E)"/><linearGradient id="F" gradientUnits="userSpaceOnUse" x1="244.7" y1="270.6" x2="244.7" y2="270.6"><stop offset="0" stop-color="#cc7a5e" stop-opacity="0"/><stop offset=".924" stop-color="#aa5f4b"/></linearGradient><path d="M244.7 270.6h0z" fill="url(#F)"/><path d="M318.1 417.9l-19.1-7 .4-6.1 20.5 7.5z" fill="#fffdf3"/><path d="M298 426.2c-.1 1.4.9 2.7 2.3 2.8l56 5.8c1.4.1 2.7-.9 2.8-2.3l.3-2.9-61.2-6.4-.2 3z" fill="#ad203a"/><path d="M357.5 423.9l-56-5.8c-1.4-.1-2.7.9-2.8 2.3l-.3 2.9 61.2 6.4.3-2.9c.1-1.5-1-2.7-2.4-2.9z" fill="#fffdf3"/><path d="M345.7 422.8l2-7.8c.1-.4-.1-.7-.4-.9l-9.5-5.1c-.5-.3-.9-.1-1 .4l-3.2 12 12.1 1.4zm-17-1.9l4.1-13.3c.1-.3 0-.7-.3-.9l-9.7-6.1c-.2-.1-.5 0-.6.2l-6.4 18.7 12.9 1.4z" fill="#ad203a"/><path d="M173.67 249.7s12.93 21.1 52.93 22.3 67.7-14.3 67.7-14.3-3.2-10.3-12.6-20.8C272.2 226.4 268 208 268 208h-63.7s-4 12.9-14.75 27.3c-10.7 9.4-15.88 14.4-15.88 14.4z" fill="#c12f4f"/><g fill="#ad203a"><path d="M167.65 249.58a1.34 1.34 0 0 1 0-2c4.1-3.2 13.67-10.56 20.65-19.78 8.32-10.98 10-19.6 10-19.6h9.1s-5.54 18.7-15.43 32.42c-6.7 9.3-11.83 14.1-14.33 16.8-.5.5-1.3.5-1.8.1l-8.2-7.95zm22.65 16.72c-.5.8-.2 1.8.7 2.2l5.6 2.4 5.5 1.9c.7.2 1.5-.1 1.8-.8 1.9-3.8 8.27-14.26 12.5-31.9 4.44-18.5 6.4-32 6.4-32h-7s-2.66 15.44-11.02 34.34c-5 11.3-12.28 20.36-14.48 23.86zm39.5-58.1s-2.8 33.3-4.6 43.2l-4.4 22.9c-.1.7.4 1.4 1.1 1.5l8.3.3c1.6-.1 3 0 4 0 .7 0 1.2-.5 1.3-1.2l.3-38-.13-28.9-5.87.2zm12.9-.1s1.3 28.03 4 47l2.7 19c.2.8.9 1.3 1.7 1.2l11.5-1.6c1-.1 1.6-1.2 1.2-2.2-2.4-5.3-7.73-19.66-10.53-33.4l-5.67-29.9H244l-1.3-.1z"/><path d="M254.9 208.4s1.8 18.5 8.9 37.5c5.2 13.9 8.8 21.1 10.3 23.9.5.8 1.5 1.2 2.4.8l9.6-4.1c1.2-.5 1.5-1.9.7-2.9-3.2-4-10.7-13.7-16.6-26.3-7.8-16.6-10.8-29.2-10.8-29.2l-4.5.3zm13.1-.4s7 18.7 16.3 28.4a825.81 825.81 0 0 0 18.4 18.5c.6.6.5 1.6-.2 2.1l-5.1 3.7c-.6.4-1.3.3-1.8-.2-2.8-3-12.2-13-19-23.6-8.1-12.6-12.3-28.7-12.3-28.7l3.7-.2z"/></g><g fill="#961d37"><path d="M242.7 213.1l.2 1.4-1.6-.4zm2.2-3.5l.3 1.5-1.7-.4zm-5.8.5h-.9l.4-.9zm5.4 5.5l-1.5 1-.3-2zm4.4-5.6l-1.5.9-.3-1.9zm3.8-.6l-1.5 1-.3-2zm-8.2 0l-1.4 1-.4-2zm-.6 2.3l-1.5 1-.3-2zm3.1-.2l-1.4.9-.4-1.9zm-7.8 0l-1.5 1-.3-1.9zm2-.4l-1.4 1-.4-1.9zm18.8 2.5l-1.5.9-.3-1.9zm-6.3 1l-.5-1.7 2 .3zm2.9-1.2l-.5-1.7 2 .3zm-7.5.6l.3 1.5-1.6-.5zm-8.1-.1l.2 1.5-1.6-.5zm18.1 1.8l.2 1.5-1.6-.4zm-7.7-2.5l.2 1-1.2-.2zm-6.8 0h.9l-.4.9zm4.6 7.2l.3-.9.7.6zm-2.2 3.4l-1 .2.2-1.1zm.1-6.7l-.1.8-.8-.4zm-7.2 4.5l.9.3-.7.7zm19 5.6l-1 .3.2-1.2zm0-6.6v.8l-.8-.4zm-7.1 4.5l.8.2-.6.7zm20.9.6l-.9.4V225zm-1.6-6.5l.2.8-.9-.2zm-5.8 6.2h.9l-.4.9zm1.4-1.5l-1 .2.2-1.1zm.1-6.7v.9l-.9-.5zm-7.2 4.5l.8.2-.6.8z"/><path d="M269.4 215.9l-.4 1-.8-.8zm-5.7-3.6l.8.5-.9.5zm.1 8.5l.6-.6.3.9zm-4.9-4.6v1.9l-1.9-.9zm-4.2 3.5l.8.2-.6.7zm6.3-2.6l-.5-.9h1.1zm-4.3-.1l-.8-.7 1-.4zm5.5-3.7l-.7.4-.2-.9z"/><path d="M254.4 210l.3.8-.9-.1zm4.5 7.7l-1.3.2.5-1.5zm1.4-8.8l-.2 1.1-1.1-.7zm-10.4 4.7l1.1.5-1 .9zm13 4.9l-1.1-.6 1.2-.9zm5.5-6.3l-.7.8-.5-1.1zm-10.3-1.5l.5.9-1.1.2zm-7.3 6.8l-.7-.7 1-.5z"/><path d="M256.3 213.7l-.6.5-.2-1zm-7.8-3.2l.3.8-1-.1zm2.4-1l.3 1.4-1.7-.4zm1.6 1.6l-.7 2.2-1.9-1.7zm-2.7 1.3l-2 1.2-.4-2.6zm9.6-.8l-1.9 1.2-.4-2.6zm5.1.1l-2 1.2-.4-2.5zm.8 1.2l-.8-2.2 2.6.2z"/><path d="M263.4 215.1l.5-1.6 1.4 1.2zm4.9.8l.1-1.7 1.7.8zm-9.1-2.1l.5-1.7 1.4 1.3zm6.8.4v-1.7l1.8.8zm0-4.1l-1.9 1.1-.4-2.5zm-11.4.7l.3 1.4-1.7-.4zm.6-1.9l.2 1.5-1.6-.5zm-11.3 10l-1 .2.3-1.1zm-2.2-1.5l-.4-.7 1-.1zm2.7 3.4v.8l-.9-.4zm12.1-10.4h-.9l.4-.9zm-8.1 3.5l-.2.8-.7-.6zm12.2-4.8l-1.4 1-.3-2z"/><path d="M255.9 208.2l3.3-.1-1.4 3.4zm3.5-.1l3.3-.1-1.4 3.5zm-7.8 0h3.3l-1.4 3.4zm12.7.1l3.4-.1-1.4 3.4zm6.9 12l1.4-1.7 1.1 2.2zm-23.6-12l3.3-.1-1.4 3.4zm-3.5 0h3.3l-1.5 3.4zm-4.1-.1l3.3.1-1.5 3.3z"/><path d="M266.8 209.8l-1.5 1-.3-1.9zm-3.5-1.3l.3 1.8-1.9-.5zm3.9 2.2l1.7.2-.9 1.7zm2 1.1l1.3 2.4-2.5.2zm2.2 4.5l1 2.1-2.1.1zm-4.7-2.2l.5 2.5-2.4-.5zm-3.6-2.3l.6 3.2-3-.6zm12 11.9l.7 1.5h-1.5zm-2.6-2l.7 1.2-1.4.1zm-5.2-2.6l.3 1.2-1.2-.2zM259 213l.5 2.3-2.1-.5zm6.7 3.6l-.8 2.1-1.6-1.4z"/><path d="M269.5 216.7l1 1.8-2 .2zm-6.3 2.5l-.9-.4.9-.8zm4.4-5l-.5.6-.4-.8zm-8.3-1.2l.4.7-.9.1zm-4.8 4.9l-.6-.5.8-.4zm-2.3 2l-1.1-.8 1.4-.8z"/><path d="M257 218.6l-.7-.5.9-.4zm-2.2-1l-.6-.6.8-.4zm6 1.3l.3.6h-.8zm-9.2 4.3l-.9-.8 1.1-.6z"/><path d="M257.5 218.5l-.8.6-.2-1.1zm-9-3.1l.4.9h-1.1zm-27.2-2.4l.3 1.5-1.7-.5zm2.2-3.4l.3 1.5-1.6-.5zm-.4 6l-1.5 1-.3-2zm4.4-5.6l-1.5.9-.3-1.9zm4.1-.7l-1.5.9-.3-1.9zm-8.5.1l-1.4 1-.4-2zm-.6 2.2l-1.4 1-.4-1.9zm3.1-.2l-1.4 1-.3-1.9zm-5.8-.3l-1.4.9-.3-1.9zm-3.6-.5l.3 1.8-1.9-.6zm-1.9.6l-.7-1.6 1.9-.1zm24.7 2.2l-1.5.9-.3-1.9zm-6.2.9l-.5-1.7 2 .3zm2.7-1.1l-.4-1.7 1.9.3zm-7.3.5l.3 1.5-1.6-.5zm-8.6.2l.2 1.5-1.6-.5zm-1.9-1.2l.2 1.5-1.6-.5zm12.3.5l.2 1-1.2-.2zm-6.7 0h.8l-.4.9zm4.5 7.1l.3-.8.7.6zm-2.2 3.5l-1 .2.2-1.2zm.1-6.7l-.1.8-.8-.4zm-7.2 4.5l.9.2-.7.8zm-.7 1l-1 .2.3-1.1zm.1-6.7v.9l-.9-.4zm-7.1 4.5l.8.3-.6.7zm27.2 6.5l-1 .3.2-1.2zm.1-6.7l-.1.9-.8-.4zm-7.2 4.6l.8.2-.6.7zm7.1-8.9v1.9l-1.9-.9z"/><path d="M233.8 219.3l.8.3-.6.7zm3.8-2.5l-.7-.7 1-.4zm5.5-3.8l-.7.5-.1-1zm-7.8-3.2l.3.8-.9-.1zm4.6 7.7l-1.4.2.5-1.5zm1.2-8.8l-.2 1.1-1-.7zm-10.3 4.8l1.1.5-.9.8zm12 3.4l-.9-.9 1.3-.5z"/><path d="M249.6 212.1l-.8.7-.2-1.2zm-9.6-3.9l.3 1-1.2-.1zm-10.5 9.3l-.8-.7 1-.5zm5.5-3.9l-.7.5-.2-.9zm-7.9-3.2l.3.8h-.9zm2.9-1.3l.3 1.5-1.7-.4zm1.5 1.9l-.7 2.2-1.9-1.7zm-3.1 1.4l-2 1.2-.4-2.6zm11.9-1l-1.9 1.2-.4-2.6zm-6.7-.8l.2 1.5-1.6-.4zm.5-1.8l.2 1.4-1.6-.4zm-11.6 10.1l-1 .2.3-1.1zm-5.1-.7l-.9.2.3-1.1zm2.9-.8l-.4-.8h1zm-5.9-.9l-.4-.8h1zm8.6 4.2v.9l-.9-.5z"/><path d="M235.4 210.2l-.9.1.4-.9zm-8.4 3.7l-.1.8-.8-.6zm12.4-4.4l-1.5.9-.3-1.9z"/><path d="M234.6 208.3l3.3-.1-1.3 3.4zm-4.2 0l3.3-.1-1.3 3.4zm-3.9-.1l3.3-.1-1.3 3.5zm-11.1-.1l3.4-.1-2.2 2.7z"/><path d="M211.8 208.1l3.3-.1-2.1 2.7zm11 0l3.3.1-1.6 3.3zm-4.1 0l3.3.1-1.6 3.3zm14.9 9.5l-.6-.5.8-.5z"/><path d="M231.3 219.6l-1.1-.8 1.4-.8zm4.8-1.3l-.7-.5.9-.4zm-2.2-1.1l-.6-.5.8-.4zm-3.2 5.7l-.9-.8 1.1-.6z"/><path d="M236.6 218.2l-.7.5-.3-1zm-9-3.1l.4.9h-1.1zm-21.7-1.7l.2 1.5-1.6-.5zm2.2-3.3l.3 1.4-1.7-.5zm-5.8.3h-.9l.4-.9zm5.3 5.6l-1.5 1-.3-2zm.1-6.2l-1.4 1-.3-2zm-.6 2.2l-1.5 1-.3-1.9zm3.6-.4l-1.5 1-.3-2zm1.5-1.8l-1.5.9-.3-1.9zm-9.8 2l-1.5 1-.3-2zm2-.3l-1.5.9-.2-1.9zm-.3 2.8l.2 1.4-1.6-.4zm10.9-.8l.2 1-1.1-.2zm-6.7-.2l.9.1-.5.9zm4.5 7.2l.2-.8.7.7z"/><path d="M213.7 211.5l.2 1-1.1-.3zm-6.7-.2l.9.1-.5.9zm4.5 7.2l.2-.8.7.7zm-1 5.5l-1 .1.2-1.1zm.1-6.8v.9l-.8-.4zm-7.2 4.5l.9.2-.7.7zm3.6-2.4l-1 .2.3-1.1zm-2.2-1.5l-.4-.8h1zm3.1 3.1v.9l-.8-.5zm-.6-12.7l3.4-.1-1.4 3.4zm-4-.1h3.5l-2.1 2.8zm-1.2 5.6l-1.5.9-.2-2zm-3.9.2l-.4-1.7 1.9.3zm1.5.3v1.8l-1.9-.9zm-1.6 5.2l.9.2-.7.8zm3.6-1l-.7-.7 1-.4z"/><path d="M207.3 214.7l-.7.5-.2-1zm-7.8-3.3l.3.8-1-.1zm2.6 5.1l-1-.9 1.4-.5zm10.2-3.5l-.9.6-.2-1.2zm-9-4l.3 1-1.2-.1zm67.3 5.6l.6 1.4h-1.7zm-72.7.5l-.5 1.7-1.5-1.3zm.7-4.6h-.9l.4-.9z"/><path d="M202.6 209.8l-1.5.9-.3-1.9z"/><path d="M198.4 208.2h3.3l-1.4 3.4zm-.3 9.5l-.6-.5.8-.4zm.6 5l-1.1-.9 1.5-.8zm-1.9-3.4l-.6-.5.9-.4z"/></g><path d="M318.4 417.9l-19.4-6.4 1.2-6.3 19.9 7.1z" fill="#fffdf3"/><path d="M298.3 426.2c-.1 1.4.9 2.7 2.3 2.8l56 5.8c1.4.1 2.7-.9 2.8-2.3l.3-2.9-61.2-6.4-.2 3z" fill="#ad203a"/><path d="M357.8 423.9l-56-5.8c-1.4-.1-2.7.9-2.8 2.3l-.3 2.9 61.2 6.4.3-2.9c0-1.5-1-2.7-2.4-2.9z" fill="#fffdf3"/><linearGradient id="G" gradientUnits="userSpaceOnUse" x1="342.392" y1="70.444" x2="339.906" y2="59.729" gradientTransform="matrix(1 0 0 -1 0 482)"><stop offset="0" stop-color="#db405b"/><stop offset=".924" stop-color="#99203a"/></linearGradient><path d="M345.9 422.8l2-7.8c.1-.4-.1-.7-.4-.9L338 409c-.5-.3-.9-.1-1 .4l-3.2 12 12.1 1.4z" fill="url(#G)"/><linearGradient id="H" gradientUnits="userSpaceOnUse" x1="326.909" y1="79.991" x2="322.708" y2="59.846" gradientTransform="matrix(1 0 0 -1 0 482)"><stop offset="0" stop-color="#db405b"/><stop offset=".924" stop-color="#99203a"/></linearGradient><path d="M328.9 420.9l4.1-13.3c.1-.3 0-.7-.3-.9l-9.7-6.1c-.2-.1-.5 0-.6.2l-6.4 18.7 12.9 1.4z" fill="url(#H)"/><g fill="#e88097"><path d="M323 400.7l2.9 1.8-2.4 1.1zm3 1.9l2.9 1.7-2.4 1.2zm3.2 2l2.9 1.8-2.4 1.2zm-5 .3l1.4-.8v1.2zm3.4.8l1.3-.8v1.2zm-5.2-1.6l1.3.3-.7.7zm4 2.4l1.2.3-.7.7zm5 1.1l1.2.2-.7.8z"/><path d="M325.9 405.6l1.2-.3-.2.9zm-1.4-3l1.4.8-1.2.5zm-1.6.6v-.6l.4.2zm.4 3.1v-.6l.5.2zm1.4 1.1v-.6l.4.3zm1.6 1.9v-.6l.4.2zm-.9-3v-.7l.5.3zm3.6.8v-.8l.5.3zm-1.8 1.7v-.7l.5.3zm2.2-.6v-.7l.5.3zm-5.4-2.1v-.8l.5.3zm6.3 2.1v-.7l.5.3zm1.7-.7v-1.1l.7.4zm-9.9-.6l.6-.2-.1.5zm1.2 1.3l.6-.3-.1.5zm5.5.8l.6-.2-.1.4zm-.9-1.5l.5-.2v.4zm-7 .5l.5-.3v.5zm3-3.5v-.6l.5.2zm-2.8.6l.7-.3-.1.5zm.8-.6l.1-.6.3.3zm1-.4l.1-.6.4.3zm-.9-1.8l.7-.2-.1.5zm.4-1.3l.6-.3v.6z"/><path d="M321.9 402.4l.7 1.2h-1.1zm.5-1.5l.7 1.2H322zm15.3 8l3 1.6-2.3 1.3zm3.1 1.7l3 1.5-2.3 1.4zm3.3 1.8l3 1.5-2.3 1.4zm-4.9.6l1.3-.9.1 1.2zm3.4.5l1.3-.9.1 1.3zm-5.2-1.2l1.2.2-.6.8z"/><path d="M341.5 414.4l1.3.2-.7.8zm5.1.7l1.2.2-.6.7zm-5.6-1.5l1.1-.4-.1.9zm-1.6-2.9l1.4.7-1.1.6zm-1.7.8v-.7l.5.2zm.7 3v-.6l.4.2zm1.5 1v-.6l.4.2zm1.8 1.7l-.1-.6.4.2zm-1.2-2.8l-.1-.8.5.3zm3.6.4v-.7l.5.2zm-1.6 1.9v-.7l.5.2zm2.1-.8v-.7l.5.2zm-5.5-1.7l-.1-.7.5.2zm6.5 1.7l-.1-.8.5.3zm1.6-.9v-1l.6.4zm-9.9.2l.5-.3v.5zm1.3 1.2l.5-.3v.4zm5.6.3l.5-.3-.1.5zm-1.1-1.4l.5-.3v.5zm-7 1.1l.6-.3-.1.4zm2.8-3.7l-.1-.7.5.2zm-2.7.8l.6-.4-.1.6zm.6-.7l.1-.6.4.3zm1.1-.5v-.6l.4.3zm-1.1-1.6l.6-.4v.6zm.3-1.4l.6-.3v.5z"/><path d="M336.7 410.7l.8 1.1-1.1.2zm.4-1.5l.8 1.1-1.1.1z"/></g><path d="M92 339.8l8.1-18.8 6.8.9-9.4 20.2z" fill="#fffdf3"/><path d="M85.5 319.1c-1.4-.3-2.8.6-3 2.1l-10.6 55.3c-.3 1.4.6 2.8 2.1 3l2.9.6 11.6-60.4-3-.6z" fill="#ad203a"/><path d="M82.7 378.5l10.6-55.3c.3-1.4-.6-2.8-2.1-3l-2.8-.5-11.6 60.4 2.8.5c1.4.3 2.8-.6 3.1-2.1z" fill="#fffdf3"/><linearGradient id="I" gradientUnits="userSpaceOnUse" x1="-577.068" y1="1632.014" x2="-579.554" y2="1621.299" gradientTransform="matrix(-0.0861 0.9963 0.9963 0.0861 -1579.3575 798.7289)"><stop offset="0" stop-color="#db405b"/><stop offset=".924" stop-color="#99203a"/></linearGradient><path d="M84.8 366.9l7.6 2.6c.3.1.7 0 .9-.3l5.9-9c.3-.4.2-.9-.3-1.1l-11.7-4.2-2.4 12z" fill="url(#I)"/><linearGradient id="J" gradientUnits="userSpaceOnUse" x1="-592.538" y1="1641.559" x2="-596.738" y2="1621.414" gradientTransform="matrix(-0.0861 0.9963 0.9963 0.0861 -1579.3575 798.7289)"><stop offset="0" stop-color="#db405b"/><stop offset=".924" stop-color="#99203a"/></linearGradient><path d="M88.2 350l12.8 5.3a.96.96 0 0 0 .9-.2l6.9-9.2c.2-.2.1-.5-.2-.6l-18.1-8-2.3 12.7z" fill="url(#J)"/><g fill="#e88097"><path d="M108.8 345.9l-2.1 2.8-.9-2.5z"/><path d="M106.7 348.7l-2 2.7-1-2.5zm-2.4 3.1l-2 2.7-1-2.5zm.2-5l.7 1.4-1.2-.1zm-1 3.2l.6 1.5-1.2-.2z"/><path d="M105.5 345.1l-.4 1.2-.6-.8zm-2.8 3.7l-.4 1.2-.6-.8zm-1.5 4.9l-.3 1.2-.7-.8zm2.4-5.3l.3 1.2-1-.3zm3.2-1.1l-1 1.2-.4-1.1zm-.5-1.7h.7l-.4.5zm-3.2.1l.7.1-.3.4zm-1.2 1.3l.6.1-.2.4zm-2 1.5h.6l-.2.4zm3.1-.7h.7l-.3.5zm-1.1 3.5l.8.1-.4.4zm-1.6-1.9l.8.1-.4.4zm.5 2.2l.7.1-.4.4zm2.5-5.2l.8.1-.4.5zm-2.6 6.1l.7.1-.4.4zm.6 1.8l1.1.1-.5.7zm1.4-9.8l.1.6-.4-.1zm-1.4 1.1l.2.5-.4-.1zM100 351l.2.6-.4-.1zm1.6-.8l.2.5-.5-.1zm.1-7l.2.5-.4-.1zm3.2 3.3l.7.1-.3.4zm-.3-2.8l.2.6-.5-.1zm.5.8l.6.1-.4.3zm.3 1l.6.2-.3.3zm1.8-.7l.3.6-.5-.1zm1.3.5l.3.6-.6-.1zm-1.3-.6l-1.2.6v-1.2z"/><path d="M108.6 345.3l-1.2.6.1-1.1zm-9.2 14.5l-1.9 2.9-1.1-2.4zm-2 3l-1.8 2.9-1.2-2.5zm-2.1 3.1l-1.8 2.9-1.1-2.4zm-.1-4.9l.8 1.4-1.3-.1zm-.9 3.3l.8 1.4h-1.2zm1.7-5.1l-.3 1.3-.7-.8zm-2.5 4l-.3 1.2-.7-.7z"/><path d="M92.4 368.1l-.3 1.3-.7-.7zm2-5.4l.3 1.2-.9-.3zm3.1-1.4l-.9 1.4-.5-1.2zm-.7-1.6h.7l-.3.4zm-3.1.4h.7l-.3.4zm-1.1 1.4h.6l-.3.4zm-1.9 1.6h.6l-.2.4zm3-1h.7l-.3.5zm-.8 3.6h.8l-.3.5zm-1.7-1.7h.7l-.3.5zm.6 2.2l.7-.1-.3.5zm2.1-5.4h.8l-.3.5zm-2.1 6.3h.7l-.3.5zm.7 1.7h1l-.5.6zm.6-9.9l.2.6-.4-.1zm-1.2 1.2l.2.5h-.5zm-.9 5.5l.2.5h-.4zm1.5-1l.2.6-.4-.1zm-.4-7l.2.6-.5-.1zm3.4 3.1h.7l-.3.5zm-.6-2.8l.3.6h-.5zm.6.8l.6.1-.3.3zm.5 1l.5.1-.3.4zm1.7-.9l.3.6h-.6zm1.3.4l.3.6h-.5zm-1.4-.5l-1.1.7-.1-1.1z"/><path d="M99.1 359.2l-1.1.7-.1-1.1z"/></g><linearGradient id="K" gradientUnits="userSpaceOnUse" x1="235.664" y1="553.387" x2="237.435" y2="586.661" gradientTransform="matrix(1 0 0 -1 0 782)"><stop offset="0" stop-color="#7f0026" stop-opacity="0"/><stop offset=".998" stop-color="#7f0026"/></linearGradient><path d="M182.36 234.82s26.54 5.38 38.24 2.98c31.9-6.7 67.4 2.7 67.4 2.7s-8.5-9.5-12.1-15.6c-4.1-7.1-7.7-16.9-7.7-16.9l-69.9.1s-1.27 7-7.44 15.97c-4.5 6.6-8.5 10.75-8.5 10.75z" fill="url(#K)"/></svg>