<svg xmlns="http://www.w3.org/2000/svg" viewBox="0 0 480 480" xmlns:v="https://vecta.io/nano"><path d="M351.54 422.05c-.4-2.44-1.27-6.3-3.08-9.02-2.4-3.33-27.3-9.47-34.35-11.25-1.06-.2-2.2.18-2.76 1.17-.07.12-.16.26-.24.4l-3.77-17.67 8.02-1.84a3.46 3.46 0 0 0 2.6-3.9c-2.5-13.5-11.9-66.9-16.2-80.5-3.35-10.5-26.04-63.6-37.02-89.1l1.2-3.34H195.2l-17.35 72.74c-1.6 2.7-54.8 18.7-68.4 22.8-1.8.5-2.8 2.4-2.4 4.1l7.12 29.37-5.47-20.75-15.4 4.02c-1.1.3-2.1.64-3.02 1.03.24-.2.45-.4.6-.6.45-.64.57-1.65-.16-2.1-2.5-1.3-10.94-3.96-20.6-4.3-1.1-.01-1.94.85-2.17 1.77L57.1 375.6c-.2 1.12.46 2.07 1.58 2.18 2.44.4 6.38.8 9.53-.04 3.92-1.2 17.67-22.85 21.6-28.97.16-.28.26-.6.32-.9 2.98.04 6.58-1.2 6.58-1.2l18.9-4.7 2.03 8.35c.4 1.7 2.2 2.8 3.9 2.4 13.3-3.3 64.9-16.2 80-22 17.4-6.7 25.5-16.5 30-28.6l3.7-10.18 20.5 33.88c2.7 6.3 10.7 37.1 12.1 44.7l3.6 20.7c.2 1.4 1.6 2.3 3 2l5.17-1.2 3.72 15.3c.3 1.16.64 2.22 1.04 3.18-.05.1-.1.2-.12.3-.44 2.8-.27 11.63 2.48 20.9.34 1.05 1.43 1.57 2.37 1.5l60.84-9c1.14-.14 1.83-1.08 1.58-2.17z" fill="#fff"/><path d="M279.3 392.5l-.06-.4c-.02.01-.01.1.06.4zm10.27-2.17c-.03.01-.05.02-.08.02l.08-.02z"/><path d="M288.12 405l22.46-4.36" fill="#fff"/><path d="M291.24 403.95l.06.02c0-.01-.02-.02-.06-.02zm14.6-2.85zm-12.13 3.57c-.01.01-.01.01-.02.01l.02-.01zm23.57-.2l-.04.01c.01.01.03.01.04-.01zm-1.45.44h0v-.01zm8.32 1.25l-.04.01c.02.01.03.01.04-.01zm-1.44.43h0-.01zm-18.88-20.88l.28-.08-.28.08zm-26.18-33.07l.02.06c-.01-.05-.02-.06-.02-.06zm-2.04 27.18l.1.01c0-.01-.03-.02-.1-.01zm25.42-5.9c.01 0 .02-.01.02-.01-.01 0-.02 0-.02.01zm-21.25 6.14c-.01.01-.02.01-.03.02l.03-.02zm19.86 39.13l-.06.02c.05-.01.06-.01.06-.02zm13.35 9.77l.44-.01c-.01-.02-.12-.03-.44.01zm-18.83-15.04h-.1.1zm35.88 14.5c-.06.01-.1.02-.13.03l.13-.03zm-21.1 1.5l.36-.02c-.01-.01-.1-.01-.36.02zm-.87-4.18l-.08.02c.06-.01.07-.01.08-.02zm14.8 3.3h-.02l-.1.03zm-27.48-4.53l.01-.05c-.01 0-.02.02-.01.05zm-7.13-6.36zm7.44 4.4h0l.02.01zm19.3-12.32zm6.87 1.68zM108.4 314.88l.4-.07c.01-.01-.1 0-.4.07z"/><path d="M95.76 324l4.73 22.38" fill="#fff"/><path d="M96.86 327.1l-.02.06c.01 0 .02-.01.02-.06zm3.1 14.54zm-3.77-12.07c-.01-.01-.01-.01-.01-.02l.01.02zm13.42 14.7h0l-.1.08zm.33-41.1c-.45.1-.7.17-1.03.36.01.01.08-.02.22-.1.18-.07.33-.14.8-.27zM80.85 335.8l-.02-.07c.01.05.01.06.02.07zm-16.42 3.25l-.13.42c.02-.01.06-.1.13-.42zM84.7 326l.03-.1c-.03.08-.03.1-.03.1zm-25.2 29.38c0-.06 0-.1.01-.13v.13zm5.32-20.48l-.1.35c.02-.01.05-.1.1-.35zm4.24.5l.01-.08c-.01.05-.01.07-.01.08zm-7.83 12.97v-.02l.01-.1zm13.04-24.6l.04.03c.01-.01-.01-.03-.04-.03zm8.3-4.72zm-6.54 5.66h0-.01zm10.23 26.2v-.04c0 .01-.01.03 0 .04zm-4.7-4zm4.75 2.5h.01zm-3.84 7.5v-.04c-.01.01-.01.02 0 .04zm-4.7-4.02zm4.75 2.5h.02zm28.14-29.88l-.03-.08.03.08zm5.77 25c-.01-.03-.01-.05-.02-.07l-.1-.32.1.4zm5.67-39.23v.12c.02 0 .02-.03.01-.12zm6.52 29.47c0 .01.01.02.01.03 0-.03 0-.03-.01-.03zm-6.66-24.7c-.01-.02-.01-.03-.02-.03l.02.03zm38-15.35l-.08.03.08-.03zm96.4-8.42l.08.24c.02-.01 0-.08-.08-.24zm41.97 109.98h0l.01-.06zm-14.8 2.57c-.36-1.93-.73-3.32-1.17-4.87l-.9.48.08.37.03-.25c.35 1.15.5 1.85.62 2.66 2.77 8.53 1.35 1.6 1.35 1.6zm25.54-14.6h0l.07.1z"/><path d="M352.44 421.8l-.06-.46-.13-.96c-.2-1.28-.44-2.58-1.17-4.12.18.38.01-.2.05-.18-.55-1.46-1.42-2.95-1.68-2.82l-.5-.85c-.07-.13-.02-.15-.05-.26-.1.03-.98-.63-1.77-1l.38.16c-.75-.43-1.52-.76-2.28-1.1l.35.42c-1.17-.6-.2-.4-1.37-.84l-.06.2c-1.66-.7-2.56-1.33-4.17-2.03-6.86-2.38-14.48-3.86-20.88-5.86l-.25-.22c-.07-.24-1.87-.15-2.07-.4l-.78-.1c-.2-.1-.64-.24-.25-.2-.7-.18-.72-.15-1.26-.22-.1-.05-.28-.1-.47-.16-.17-.04-.34-.07-.5-.1a3.53 3.53 0 0 0-2.09.66c-.1-.94-.44-1.67-.62-2.6.04.3.12.66.02.42l-.18-.9.1.17-.25-1.33-.04.2c-.1-.66-.02-.9-.28-1.62-.13-.32.03.63-.14-.04-.13-.88-.33-2.2-.55-3.3-.06.12-.12-.18-.2-.48l.07-.05c-.35-1.15.07-.46-.26-1.6l-.15-.18c-.37-1.02.03-.6-.42-1.72.1.46-.1.25-.2-.32l.1.13c-.08-.3-.13-.4-.16-.62.08.18.12.08.01-.38l.15.3-.32-.85c-.01-.1-.03-.2-.04-.3v-.01l4.94-1.12 1.5-.33c.52-.13.95-.17 1.6-.4 1.2-.45 2.14-1.46 2.53-2.68.2-.6.25-1.27.15-1.92l-.78-4.64-4.38-24.26c-.03-.25-.13-.7-.2-1.1-.05-.2-.1-.37-.12-.5s-.06-.2-.06-.2l-2.66-14.17-1.97-9.9c-1.14-5.6-2.64-12.54-4-17.8-1.33-5.27-2.64-8.85-2.6-7.9.03.96 1.36 6.38 3.6 19.46l-.12-.34 3.7 17.9c-.12.9 1.2 6.37 1.44 8.2l-.06-.17c1.1 4.7 1.64 9.77 2.68 14.3-.06-.17-.15-.26-.35-1.3.65 3.32 1.54 7.85 1.42 8.13l2.42 13.12c.1.52.23 1.14.3 1.57.05.38 0 .77-.13 1.13-.26.72-.86 1.28-1.5 1.52l-.25.08-.34.08-1.9.5-2.13.58.34-.12c-2.83.84-3.7.88-6.9 1.7-.18.02-.4.06-.38.04-3.1.9-9.12 2.13-11.64 2.78l-.2-.07-6.22 1.46 2.33-.5c-.74.48-4.75.9-9.23 2.13-1.06.23-2.12.5-3.17.8l-1.54.44c-.43.08-.9.04-1.33-.17a2.05 2.05 0 0 1-.97-1c-.16-.43-.26-1.05-.4-1.58-.23-1.1-.44-2.2-.6-3.32-.5-2.1.55 1.83-.1-1.32.14-.13.36 1.46.34.63-.28-1.42-.46-2.62-.64-3.87.3.02.7-.03.7-.03 1.33-.12 1.93-.5 3.45-.93 1.35-.27 1.75-.2 3.13-.58.67-.14 1.37-.34 2-.5.28-.2.85-.2 1.2-.4l.16.04c.12-.06.26-.12.4-.1v.02c.18-.1.4-.1.48-.16v.02l.23-.06-.03.04a4.35 4.35 0 0 1 .95-.26l-.04-.08c.66-.05.85-.28 1.45-.3h0c.67-.4 1.18-.1 1.88-.5-.1.05.05.03.05.06.34-.1.7-.2.67-.37.25-.06.22 0 .26.06-.02-.07.2-.15.4-.2l-.08.05.56-.15-.14-.1c.3-.03.1.15.4.05l-.03-.1c.42-.07.7.04 1.12.04 1.67-.34 3.38-1.04 4.97-1.2l.1.07c.06.12.38-.28.47-.18l.17-.1c.06.01.17.01.08.06.17-.03.17-.05.28-.12l.2.04c.67-.1 1.2-.37 1.9-.5.86-.03 2.4-.54 3.26-.83 1.22-.48 2.8-.32 4.04-.83.05.01.15-.06.14-.07l1.2-.26s5.74-1.28 1.15-1.3l.02-.03c-.66.08-1.07.16-1.5.4-.1-.15-.54.1-.7.1l.01-.02c-.36.22-.84.08-1.2.28.01-.02.01-.06.1-.1-.27.1-.64.2-.7.12-.66.18-1.6.35-1.98.6l.02-.03c-.22.16-.3.1-.57.2-.02-.01-.04-.01-.04-.02-.24.17-.76.2-.97.3l-.03-.06-.52.14.2-.03c-.03.2-.42-.02-.78.18-.36.06-.64.54-1.02.54-.16.12.12-.17-.12-.05-.03-.1.1-.1.02-.15-.25.1-.45 0-.75.14l-.03-.07c-.4.23-.8.1-1.05.28-.42.16-.34-.15-.75.1l-.2-.06c-.2.03-.1.15-.33.15 0-.06-.28.01-.17-.07-.5.01-.94.36-1.6.35-.1.15-.44.15-.53.27-.03-.05-.64.14-.3-.06.03-.02.08-.03.08-.01l.03-.08c-.4-.05-.64.23-1 .3.1 0 .25-.04.17.03l-.33.07.05-.08-.5.08.1.06c-.25.02-.36-.1-.6.08-.1.1.25.05 0 .13-.33.02-.84.06-1.25.13.06.07-.05.1-.16.14l-.03-.07c-.4.2-.2-.12-.6.06l-.05.12c-.36.23-.25-.1-.64.2.17-.05.12.14-.1.16l.04-.08c-.1.04-.15.08-.23.08.06-.05.01-.1-.16-.06l.1-.1-.3.2c-.27-.02-.65.17-.77.1 0 0-.55.08-.65.2.1-.1-.2-.05-.14-.15-.12.1-.52.27-.7.22l.03-.02c-.63.06-1.02.36-1.6.38.04.08-.26.1-.16.2-.54.24-1.1.02-1.22.4-.25.08-.33-.01-.46.01l.06-.03c-.48.14-.62.18-.98.25-.17.07-.16.24-.5.27.1-.1-.04-.04-.16-.02.07-.03.1-.06-.07-.06-.02.02-.05.04-.08.06-.2.06-.17.07-.07.06 0 .01.01.02.04.03-.23-.03-.58.14-.63.04-.6.16-1 .37-1.5.53-.07-.04.04-.12.18-.17l-.35.1c-.02-.08.2-.1.3-.13-.45-.03-.85.33-1.37.33l-.1.1h-.03c.01.03-.1.1-.16.13-.1-.05-.03-.16-.28-.1-.2-.02-.55.16-.8.26.14-.02.1.03.05.07-.12.03-.2-.02-.3.03l-.03-.1c.07.08-.3.17-.34.22-.1-.05.18-.1.2-.16l-.74.18c-.25.13.07.08-.04.2-.23.07-.44.2-.72.2l.1.06c-.42.16-.7.22-1 .2-.62.3-1 .5-1.24.66-.2-1.34-.42-2.77-.8-4.63l.1-.18c-.55-2.48-.9-4.85-1.26-7-.38-2.18-.8-4.1-1.3-5.73-1.33-5.07-.46-3.5-2.02-8.74l-.36-2.1c-.56-2.27-.6-1.57-1.2-4.1.14.12-.76-3.2-.27-1.75-1.38-5.7-3.28-11.42-5.4-18.9-.37-.76-.83-2.1-1.4-3.37-.63-1.24-1.24-2.4-1.6-2.9 0-.24-3.76-6.83-1.46-3.1.2.32.5.9.46.88l.36.4c-1.93-3.98-4.02-6.92-6.14-10.73.6 1.14 1.46 2.63.82 1.67l-1.98-3.52.5.68-2.94-5.26.3.78c-1.4-2.6-1.74-3.6-3.55-6.4-.84-1.25 1.24 2.5-.34-.17l-1.28-2.34-1.03 2.12 11.83 20.45 3.73 6.7.84 1.65c.23.57.46 1.13.67 1.72.42 1.17.8 2.36 1.17 3.55 1.48 4.75 2.74 9.47 3.9 14.02l.07.84c-.1.4 1.64 4.93 1.62 5.67l.64 2.1c.12.6.4 1.87.08.83.5 1.96.53 2 .95 3.4l.4 2.14 2.52 11.08 2.08 11.54.64 4.1.58 3.5c.1.42.1.74.28 1.4.38 1.18 1.45 2.07 2.66 2.3.3.05.6.08.92.06a2.63 2.63 0 0 0 .47-.06l.34-.08 1.3-.3 5.34-1.25 25.3-6.1c.03.13.07.26.1.37.1.36.2.6.3.6.14.67.06.56.02.66.07-.02.23.56.34 1.08l-.08-.24.35 1.5.08-.32c.13.8-.13.24.07 1l.1-.03c.2 1.1.18 1.8.32 2.88.43 2.12.95 4.3 1.45 6.46l-.4-.1.01-.03c-.38.01-.62.04-.85.22-.07-.16-.3.04-.4 0l.01-.02c-.2.17-.5-.02-.68.14.01-.02 0-.06.05-.08-.15.05-.37.13-.4.04-.37.1-.9.16-1.13.36l.01-.03c-.12.13-.18.05-.32.13l-.02-.02c-.13.13-.44.1-.55.17l-.02-.06-.3.07.12-.01c0 .2-.25-.07-.45.1-.2.02-.34.46-.57.4-.08.1.06-.15-.08-.06-.02-.1.06-.07.01-.14-.14.07-.26-.05-.43.05l-.02-.07c-.2.18-.47-.01-.6.15-.23.1-.2-.2-.44.01l-.12-.08c-.1.01-.06.14-.2.1 0-.06-.16-.02-.1-.1-.3-.04-.53.25-.93.15-.06.14-.25.1-.3.2-.02-.05-.37.06-.18-.1.02-.01.05-.02.05 0l.01-.08c-.23-.1-.36.15-.57.17.07.01.14-.01.1.05l-.2.03.03-.07-.3.02.05.07c-.15-.01-.22-.13-.36.01-.06.07.15.08.01.13a3.52 3.52 0 0 0-.73-.01c.04.08-.03.1-.1.12l-.02-.07c-.23.15-.12-.14-.36-.01l-.02.1c-.2.2-.15-.13-.36.12.1-.03.08.15-.05.14l.02-.08c-.06.03-.08.06-.13.06.03-.05 0-.1-.1-.08l.05-.1-.16.17c-.16-.05-.37.1-.45 0 0 0-.32.01-.37.13.05-.08-.13-.07-.1-.16-.07.1-.3.2-.4.14l.02-.01c-.37-.02-.58.23-.92.2.03.08-.14.07-.08.17-.3.17-.64-.1-.7.25-.15.05-.2-.04-.27-.05l.03-.02c-.27.08-.35.1-.56.13-.1.05-.08.2-.28.2.05-.07-.03-.05-.1-.03.04-.02.05-.04-.05-.07-.01.02-.03.04-.04.05-.12.03-.1.05-.04.05 0 .01.01.02.03.04-.14-.06-.33.07-.37-.03-.34.1-.57.25-.85.35-.04-.05.01-.1.1-.15l-.2.06c-.01-.08.1-.07.17-.1-.27-.08-.48.23-.8.16l-.05.07-.02-.01c.01.03-.05.1-.1.1-.05-.06-.03-.16-.17-.13-.12-.04-.3.1-.45.16.08 0 .06.04.03.07-.07.02-.12-.04-.17 0l-.02-.1c.04.08-.17.13-.2.17-.05-.06.1-.08.1-.14-.28.06-.14.03-.42.1-.14.1.04.08-.01.18-.13.04-.25.13-.4.1l.06.07c-.24.1-.4.13-.58.08-1.74 1.03-.22 1-.22 1 .77.04 1.1-.27 1.97-.5.78-.1 1.02.01 1.8-.2.38-.06.78-.18 1.15-.27.15-.16.5-.1.68-.24l.1.05c.07-.05.15-.1.23-.07v.02c.1-.07.23-.07.27-.1v.02l.13-.03-.02.03a1.4 1.4 0 0 1 .55-.14l-.03-.08c.38.02.48-.18.83-.13v.02c.37-.3.7.03 1.08-.27-.05.04.03.04.03.06.2-.06.4-.12.37-.3.14-.03.13.03.16.1-.02-.07.1-.13.22-.15l-.05.04.32-.1-.1-.13c.18.01.08.16.23.1l-.02-.1c.24-.02.4.12.66.16.96-.14 1.93-.63 2.85-.6l.06.08c.04.12.2-.23.26-.12l.1-.08c.03.02.1.03.05.07.1-.01.1-.03.16-.1l.12.06c.4-.01.68-.23 1.08-.27.5.07 1.37-.25 1.87-.44.7-.33 1.63.01 2.33-.35.03.01.08-.04.08-.05l.68-.1s.68-.12 1.17-.3l.3 1.28-.18.3c-.15.27-.33.54-.5.8-.7 1.07-1.48 2.1-2.5 3.1-1.3 1.12-3.25 2.64-5.5 3.73-1.12.55-2.3 1.02-3.44 1.33a13.85 13.85 0 0 1-3.11.6c-1.28.12-2.62-.07-3.9-.54-1.3-.5-2.44-1.25-3.7-2.1-.35-.22-.6-.42-1.2-.64-.3-.1-.55-.12-.84-.12a2.8 2.8 0 0 0-.93.16c-.08.03-.15.07-.23.1-.02-.08-.05-.16-.08-.25-.4-1.12-.7-1.9-.8-1.67-.03.16-.05.88.3 2.33-.22.22-.4.5-.48.8-.06.15-.08.3-.1.47l-.05.33c-.03.2-.04.4-.06.58-.14 1.54-.1 3.02.06 4.44a2.11 2.11 0 0 0 .1.66c.1 1.73.25 3.46.47 5.18 0 0 .2 1.56.6 3.6.4 2.04 1.03 4.47 1.72 6.38.25.63.7 1.07 1.15 1.32s.86.34 1.2.36c.53.01.8-.1.8-.2.17-.04.23-.1.14-.12-.14-.07-.68-.1-1.44-.6-.3-.22-.66-.57-.8-1.05-.06-.28-.1-.7-.18-1.1a52.47 52.47 0 0 1-.24-1.54l.03.05c-.07-.4-.14-.5.13-.5l.13-.01c.12-.01.23-.03.34-.04l.65-.1c.84-.12 1.6-.25 2.37-.43.27.14 1.88-.24 2.42-.25l-.05.02c1.37-.32 2.88-.28 4.2-.58-.05.02-.07.07-.38.12.97-.15 2.3-.37 2.4-.28 2.33-.34 5.6-.74 7.07-1.1l-.1.04c.84-.22 1.1-.17 2.05-.35.05.01.12 0 .1.01.9-.23 2.7-.38 3.45-.53l.06.06 1.85-.27-.7.08c.2-.2 1.4-.08 2.74-.38 1.26-.15 2.5-.72 3.8-.8.6-.17-.53.2.4.02.04.1-.43.12-.18.16.9-.17 1.5-.1 2.63-.32l.06.07c1.45-.33 2.78-.28 3.74-.54 1.5-.27 1.05.08 2.6-.28h.63c.68-.08.47-.2 1.22-.24-.04.07.95-.08.52.04 1.7-.13 3.42-.6 5.67-.74.47-.2 1.6-.27 1.95-.4.07.05 2.25-.3 1-.01-.1.02-.3.05-.3.03l-.14.1c1.3-.04 2.3-.4 3.56-.54-.38.03-.87.1-.55.01l1.17-.15-.23.1 1.75-.2-.25-.04c.86-.08 1.18.01 2.12-.23.43-.12-.82.01.08-.14l3.72-.35c.01-.03.03-.06.06-.07.02 0 .04.06.07.13l-.07.04c.4 1.32.03.65.3 1.82v.07c.01.03.01.06.02.1l-.07-.07c.07.07.13.15.18.24.05.46-.1.56-.2.65-.12.07-.15.2-.63.48.38-.18.32.12-.35.2.06-.03.13-.07.17-.1-.38.08-.54.13-.8.15.24-.08.12-.12-.5-.02l.4-.15-1.13.3c-.9.06-2.3.36-2.67.3 0 0-1.9.23-2.33.4.37-.13-.68.01-.4-.12-.48.15-1.93.43-2.53.44l.1-.03c-2.17.24-3.68.67-5.63.85.1.07-.93.18-.66.25-2 .4-3.7.32-4.36.77-.9.15-1.1.08-1.57.13l.2-.05-3.47.54c-.63.13-.7.3-1.85.43.36-.12-.1-.04-.53.03.27-.05.35-.1-.2-.04-.08.03-.2.06-.3.1-.01 0-.03 0-.02-.01-.7.13-.58.13-.25.1-.02.01.01.02.12.02-.75.03-2.05.3-2.15.22-2.13.34-3.64.68-5.4 1-.2-.03.2-.14.7-.23l-1.26.2c0-.08.72-.15 1.1-.23-1.52.1-3.07.6-4.84.73l-.36.12h-.1c.01.03-.38.14-.64.2-.26-.03-.01-.16-.88-.03-.7.04-1.95.32-2.84.5.5-.06.34 0 .13.06-.43.07-.7.04-1.03.12l-.06-.1c.18.06-1.12.26-1.28.33-.26-.03.67-.16.77-.23l-2.6.4c-.92.2.18.06-.25.2-.82.14-1.6.33-2.56.4l.3.04c-1.53.3-2.46.42-3.5.5-4.84 1.02-5.98 1.4-5.7 1.5h0c-1.5.74 3.96.14 3.96.14 5.56-.5 8.35-1.33 14.9-2.4 5.78-.78 7.35-.74 13.32-1.74 2.86-.4 5.9-.9 8.68-1.36 1.3-.4 3.66-.54 5.2-.95l.62.03c.53-.14 1.16-.27 1.7-.3l-.03.04c.8-.2 1.7-.3 2.1-.4l-.03.04.98-.16-.16.07c1.4-.3 2.84-.52 4.13-.67l-.13-.13a29.25 29.25 0 0 0 3.2-.46l1.37-.23.76-.1a7.42 7.42 0 0 0 .44-.05c.2-.03.42-.07.64-.14l-.04.05c1.12-.5 1.76-1.64 1.72-2.64l-.12-.76zm-41.15-20.67c.03.08.06.23.03.22l.04.04c-.03.03-.06.06-.1.08-.07-.43-.18-.96.03-.34zm-22.25 32.44c-.08.01-.16.01-.27.01.1.01.2 0 .27-.01zm60.02-14.46c-5.86.75-12.1 1.9-17.57 2.43l-.25-.05c-.12-.1-1.48.4-1.7.3l-.62.14c-.18 0-.56.03-.25-.04-.6.07-.6.1-1 .2h-.64c-2.32.25-4.26.67-6.7.97-2.94.23-8.4 1.13-11.57 1.65-3.6.64-7.7.9-11.55 1.42.03-.14.02-.3.02-.3-.02-.58-.35-.75-.66-1.32-.2-.53-.1-.74-.43-1.24-.12-.26-.3-.5-.44-.74-.18-.05-.18-.32-.35-.4l.03-.1c-.06-.03-.1-.07-.1-.13l.02-.01c-.1-.04-.1-.13-.15-.15l.02-.01-.06-.08h.03c-.12-.1-.2-.2-.26-.32l-.07.06c-.07-.28-.27-.26-.32-.52h.02c-.36-.1-.17-.5-.55-.6.05.01.02-.04.04-.05-.1-.1-.22-.2-.36-.1-.07-.08-.02-.1.02-.15-.06.05-.14 0-.2-.06l.05.01-.18-.16-.07.13c-.06-.12.1-.14-.01-.2l-.08.08c-.1-.14-.07-.33-.14-.52-.53-.55-1.35-.7-1.85-1.17l.01-.1c.04-.12-.25.1-.22-.03l-.1.02c-.01-.03-.04-.07 0-.08-.06-.04-.07-.02-.14 0l-.04-.1c-.24-.16-.52-.12-.8-.23-.28-.27-.98-.3-1.36-.3-.55.07-1.08-.54-1.66-.4-.02-.02-.07.02-.07.03l-.5-.07c-.01-.04-2.4-.15-.64.97l-.01.03c.25.08.4.1.6-.02.01.17.2.04.26.1l-.01.01c.17-.12.3.15.47.05-.01.01-.02.06-.05.06.1-.01.27-.02.26.08.26.02.6.12.8 0v.02c.12-.1.12.01.24-.02 0 .01.01.02.01.03.13-.08.3.05.4.03l-.01.07.2.04-.07-.03c.07-.17.12.15.3.08.13.06.38-.28.5-.15.1-.06-.1.1.02.08-.03.1-.07.04-.06.12.1-.01.13.14.27.12l-.02.07c.2-.07.25.2.4.12.18.01.02.24.24.18l.02.12c.06.05.1-.1.15-.01-.03.06.07.1 0 .12.12.17.4.03.53.3.1-.08.17.04.26-.02-.02.05.2.13.03.16-.02 0-.03-.01-.02-.03l-.05.05c.05.18.24.07.34.16-.02-.04-.06-.07-.01-.1l.1.08-.06.04.13.14.03-.08c.05.1 0 .2.14.18.07-.02 0-.14.1-.1.06.12.14.3.23.4.05-.07.08-.04.12-.03l-.05.06c.2.03-.07.16.1.22l-.05.03.14-.08c.2.01-.06.16.2.15-.05-.04.1-.13.13-.05l-.07.03c.04.02.08.01.08.05-.05.01-.1.06-.03.1l-.1.03.18.01c0 .13.18.18.12.28 0 0 .1.2.2.16-.08.01-.03.12-.12.14.1 0 .24.1.2.2h-.01c.07.24.33.26.37.5.07-.06.1.06.17-.02.22.13.03.46.36.35.07.08 0 .15.01.2l-.03-.01c.13.15.16.2.22.33.06.05.2-.02.24.1-.08-.01-.04.03-.02.08-.02-.02-.05-.02-.05.06.02 0 .04 0 .05.01.05.07.06.05.05.01.01 0 .02-.01.03-.03-.03.1.1.2.02.26.13.2.32.3.44.47-.04.05-.1.02-.15-.02l.08.12c-.07.03-.08-.05-.1-.1-.04.2.28.26.25.5l.08.01v.02c.03-.01.1.01.1.03-.05.06-.15.07-.1.15-.03.1.12.2.2.27-.01-.06.03-.05.06-.04.02.04-.03.1.01.12l-.08.04c.07-.05.14.08.18.08-.05.05-.1-.05-.14-.04.1.18.04.1.13.27.1.07.08-.05.17-.04.05.08.15.14.14.26l.07-.06c.13.14.16.25.12.4a3.41 3.41 0 0 0 .4.31 64.6 64.6 0 0 0-2.08.33c-.15 0-.53.1-.52.1l-4.17.55-2.92.4-.98.14.57-.08c-.48-2.65-.73-4.34-1.2-6.17.24-.34-.24-2.27-.2-2.92l.03.06c-.37-1.67-.05-3.48-.22-5.1.02.06.1.1.1.47-.05-1.16.02-2.8.2-2.75 0-.1.04-.2.14-.25.1-.05.17-.07.4-.05.05-.02.45.2.76.37l1.03.62c1.4.85 2.9 1.44 3.9 1.57h-.14c1.12.12 1.42.35 2.67.36.07.03.15.04.14.05.6-.04 1.5-.07 2.33-.17s1.64-.25 2.1-.42l.1.1c.76-.18 1.5-.46 2.24-.72-.28.1-.56.17-.84.26.18-.38 1.77-.37 3.2-1.35 1.45-.72 2.42-2.2 3.72-3.12.48-.62-.35.63.43-.23.14.1-.34.44-.03.33.8-.82 1.5-1.18 2.35-2.33l.13.04c.52-.78 1.06-1.47 1.54-2.1.23-.3.48-.67.64-.93a3.23 3.23 0 0 1 .41-.53c.55-.4.88-.26 1.1-.2.1.04.25.08.37.1.23.07.52.12 1 .18l.7.35c.44.13.6.1.78.1-.02.15.01.3-.03.53-.16.3-.34.3-.4.65-.07.14-.1.32-.14.47.1.12-.08.2-.01.32l-.08.01c.02.04.03.08-.02.1l-.02-.01c.03.06-.02.1 0 .13v-.01l-.01.05-.02-.02c.02.1 0 .17-.05.23l.08.03c-.15.1 0 .23-.16.3l-.02-.01c.15.25-.25.2-.12.45-.02-.03-.05-.01-.06-.02-.01.1-.03.17.13.24-.02.06-.07.03-.13.01.07.03.08.1.07.13l-.02-.03-.03.14.14.03c-.06.05-.17-.05-.16.03l.1.04c-.06.08-.25.07-.36.13-.2.36-.08.87-.4 1.14l-.1-.02c-.12-.04.14.17.02.14l.04.06c-.03 0-.06.02-.08-.01-.02.04 0 .04.02.1l-.1.01c-.12.12-.02.3-.12.45-.23.13-.23.53-.23.77.06.36-.54.5-.46.87-.02 0 .01.04.02.05l-.12.26s-.57 1.27.82.7l.02.02c.12-.12.17-.2.08-.36.17.05.06-.1.13-.13l.01.01c-.1-.14.18-.14.1-.27.01.01.05.03.05.05 0-.07 0-.17.1-.14.04-.16.16-.35.05-.5h.02c-.08-.1.01-.08-.01-.16h.03c-.08-.1.05-.18.03-.24l.06.02.03-.12-.03.04c-.16-.08.14-.05.07-.18.05-.07-.3-.3-.17-.36-.06-.07.12.1.08 0 .1.03.04.05.12.06-.02-.08.13-.06.1-.16l.07.02c-.1-.14.16-.14.07-.25-.02-.12.23.02.14-.14h.1c.03-.04-.1-.08-.04-.1.06.03.07-.04.12.01.14-.07-.04-.27.17-.35-.1-.08-.01-.12-.08-.18.05.02.07-.14.14-.02.01.01 0 .02-.02.01l.06.04c.16-.03-.01-.18.04-.25-.03.01-.04.05-.08.01l.04-.07.05.04.08-.1-.08-.01c.06-.04.2-.01.1-.1-.04-.05-.12.01-.12-.05.08-.05.2-.13.25-.22-.08-.02-.07-.05-.08-.08l.07.02c-.06-.14.17.03.13-.1l-.1-.06c-.1-.14.16.01.02-.16 0 .04-.16-.04-.1-.08l.06.04c0-.03-.03-.05-.01-.06.03.03.1.05.1 0l.07.06-.1-.12c.1-.03.04-.15.14-.14 0 0 .1-.1 0-.17.05.05.1-.01.17.04-.06-.06-.08-.18.01-.18h.01c.13-.1-.01-.28.13-.37-.08-.03-.01-.07-.12-.1-.05-.17.3-.15 0-.32.01-.07.1-.04.13-.06l.01.02c.02-.12.03-.15.07-.23-.01-.05-.16-.12-.1-.18.05.05.05.01.06-.01 0 .02.02.04.08.02-.02-.01-.02-.02-.03-.04.01-.05-.01-.05-.03-.04-.01 0-.02-.01-.04-.01.1-.02.05-.13.15-.1.03-.15-.03-.3-.03-.4.06.01.1.05.1.1v-.1c.07.03.02.06.03.1.16-.05-.04-.25.12-.3l-.05-.05h.01c-.03-.01-.06-.05-.07-.08.07.01.15.06.17 0 .08-.02.02-.14.01-.2-.02.03-.06 0-.07-.02.01-.03.08-.02.06-.05l.1.03c-.1-.02-.06-.1-.1-.13.07.01.04.07.08.1.04-.1.02-.06.06-.17-.04-.1-.1-.02-.15-.08 0-.06-.04-.14.04-.17h-.1c-.01-.07 0-.12.03-.15.28.1.8.25.4.22 1.68.57 3.5.77 5.6 1.4 0 .1 0 .2-.02.32-.16.3-.34.3-.4.65-.07.14-.1.32-.14.47.1.12-.08.2-.01.32l-.08.01c.02.04.03.08-.02.1l-.02-.01c.03.06-.02.1 0 .13l-.02-.01-.01.05h-.02c.02.1 0 .17-.05.23l.08.03c-.15.1 0 .23-.16.3l-.02-.01c.15.25-.25.2-.12.45-.02-.03-.05-.01-.06-.02-.01.1-.03.17.13.24-.02.06-.07.03-.13.01.07.03.08.1.07.13l-.02-.03-.03.14.14.03c-.06.05-.17-.05-.16.03l.1.04c-.06.08-.25.07-.36.13-.2.36-.08.87-.4 1.14l-.1-.02c-.12-.04.14.17.02.14l.04.06c-.03 0-.06.02-.08-.01-.02.04 0 .04.02.1h-.1c-.12.12-.02.3-.12.45-.23.13-.23.53-.23.77.06.36-.54.5-.46.87-.02 0 .01.04.02.05l-.12.26s-.57 1.27.82.7l.02.02c.12-.12.17-.2.08-.36.17.05.06-.1.13-.13l.01.01c-.1-.14.18-.14.1-.27.01.01.05.03.05.05 0-.07 0-.17.1-.14.04-.16.16-.35.05-.5v.02c-.08-.1.01-.08-.01-.16h.03c-.08-.1.05-.18.03-.24h.06l.03-.12-.03.04c-.16-.08.14-.05.07-.18.05-.07-.3-.3-.17-.36-.06-.07.12.1.08 0 .1.03.04.05.12.06-.02-.08.13-.06.1-.16h.07c-.1-.14.16-.14.07-.25-.02-.12.23.02.14-.14h.1c.03-.04-.1-.08-.04-.1.06.03.07-.04.12.01.14-.07-.04-.27.17-.35-.1-.08-.01-.12-.08-.18.05.02.07-.14.14-.02.01.01 0 .02-.02.01l.06.04c.16-.03-.01-.18.04-.25-.03.01-.04.05-.08.01l.04-.07.05.04.08-.1-.08-.01c.06-.04.2-.01.1-.1-.04-.05-.12.01-.12-.05.08-.05.2-.13.25-.22-.08-.02-.07-.05-.08-.08l.07.02c-.06-.14.17.03.13-.1l-.1-.06c-.1-.14.16.01.02-.16 0 .04-.16-.04-.1-.08l.06.04c0-.03-.03-.05-.01-.06.03.03.1.05.1 0l.07.06-.1-.12c.1-.03.04-.15.14-.14 0 0 .1-.1 0-.17.05.05.1-.01.17.04-.06-.06-.08-.18.01-.18l.01.01c.13-.1-.01-.28.13-.37-.08-.03-.01-.07-.12-.1-.05-.17.3-.15 0-.32.01-.07.1-.04.13-.06v.02c.02-.12.03-.15.07-.23-.01-.05-.16-.12-.1-.18.05.05.05.01.06-.01 0 .02.02.04.08.02-.02-.01-.02-.02-.03-.04.01-.05-.01-.05-.03-.04-.01 0-.02-.01-.04-.01.1-.02.05-.13.15-.1.03-.15-.03-.3-.03-.4.06.01.1.05.1.1l.01-.1c.07.03.02.06.03.1.16-.05-.04-.25.12-.3l-.05-.05h.01c-.03-.01-.06-.05-.07-.08.07.01.15.06.17 0 .08-.02.02-.14.01-.2-.02.03-.06 0-.07-.02.01-.03.08-.02.06-.05l.1.03c-.1-.02-.06-.1-.1-.13.07.01.04.07.08.1.04-.1.02-.06.06-.17-.04-.1-.1-.02-.15-.08 0-.03-.01-.06-.01-.1.08.03.16.05.24.08.63-.05 1.93.43 2.4.4.05.1 2.66.75 1.12.52-.13-.02-.36-.1-.33-.1l-.2.07c1.44.63 2.76.64 4.24 1.1-.43-.17-1.02-.32-.6-.3l1.37.4-.32.02 2.03.66-.25-.2c.98.36 1.27.67 2.44.85.54.06-.9-.46.17-.17l4.9 1.9c-.1-.2.34-.03.8.12l.01.14c1.8.52.55.5 2.3 1.07l-.18.02.54-.04c1.57.48.73.57 2.33 1.16-.28-.17-.3-.27-.18-.27s.4.12.68.38l-.23-.03c.2.12.23.17.3.23.07.04.14.18.2.3-.2-.2-.22-.04.14.54-.12-.1-.24-.22-.36-.32.28.3.56.68.82 1.04.35.97 1.04 2.5 1 2.96l.28 1.06 1.5-.1-2.23.14zM292.5 433.6c.04 0 .06-.01.06-.01s-.03 0-.06.01zm-.65.07zm.22-.02h.03c-.01-.01-.02-.01-.03 0zm.2-.03h0z"/><path d="M316.43 407.4h0l.04.03zm6.87 1.7h0l.04.03zm-41.36-156.54l.02-.04c-.02-.02-.03-.01-.02.04zm-154.67 45.36l-.04-.02c-.02.02-.01.03.04.02z"/><path d="M252.93 245.77l.44-.77c.33-.3 1.57-5.27 2-5.9l.7-2.2c.26-.6.76-1.87.42-.77l1.18-3.54.9-2.1c2.56-6.82 4.55-12.84 7.02-19.72l-.57 1.9 3.55 7.9c.2.67-.46-.62-1.2-2.24l1.75 4c-.14.02-1.06-2.27-1.6-3.5 1.85 4.85 4.4 9.75 6.62 15.42l.6 1.12.13.34c.04-.04.65 1.2 1.02 2 .23.84-.27.05.92 2.82.83 2.23 2.7 6.2 3.97 9.05-.64-1.56-.37-1.08-.05-.43.6 1.4.82 2.23 1.32 3.28l-.07.15c.2.15 1.68 3.65 1.93 4.1.23.83-1-2.1-1.23-2.43l3.53 8.34c1.36 2.92-.1-.6.63.77 1.12 2.6 2.3 5.13 3.46 8.18l-.27-1c2.15 4.9 3.35 7.86 4.58 11.24l7.25 16.63c1.05 2.46 1.1 2.23.8.82-.64-2.9-3.46-10.24-3.46-10.24-5.56-14.7-9.1-21.98-16.43-39.14l-14.6-34.82-2.23-5.17.88-2.4c.05-.13.1-.25.14-.38h-1.6l-.54 1.38a87.2 87.2 0 0 0-1.51 4.18l-.17.12c-1.6 5.12-3.6 9.46-4.6 12.9-1.78 5.24-1.6 3.36-3.34 8.86l-.92 2.05c-.86 2.3-.4 1.73-1.4 4.27-.04-.2-1.25 3.22-.8 1.68-2.26 5.76-4.05 11.9-7.08 19.46-.4 1.74-1.92 5.55-2.22 6.85-.16.17-2.8 7.73-1.43 3.33.12-.38.36-1.03.38-.98l.07-.56c-1.8 4.3-2.75 8-4.35 12.3.5-1.27 1.1-2.98.77-1.8l-1.47 4 .2-.87-2.22 5.97.42-.78c-1.12 2.9-1.7 3.86-2.72 7.23-.45 1.53 1.16-2.7.08.4-.76 1.92-1.65 4.42-2.7 6.87-1.1 2.46-2.42 4.95-3.84 7.12.36-.34-.33.87-1.18 2.03l-.2.06c-.76 1.15-1.3 1.75-1.65 2.16-.35.4-.53.57-.73.73s-.4.3-.77.68c-.37.37-.9.97-1.88 1.9l.3-.4-.86 1.18c-1.78 1.7-2.36 2.06-3 2.45-.3.2-.63.4-1.14.8-.52.37-1.25.87-2.34 1.7.9-.6 1.15-.7.9-.45-.25.26-1.02.84-2.2 1.48l.53-.45c-1.27.78-1.67 1.1-2.57 1.5.76-.47.33-.37-1.6.66l1.23-.8-1.8 1.04-1.83.97c-2.96 1.23-7.7 3.07-9.03 3.28l-1.06.34-2.44.77c-1.85.58-3.9 1.23-4.63 1.53 1.3-.5-2.4.54-1.38.1-1.7.65-6.8 2.2-8.88 2.65l.4-.12c-7.64 2-12.97 3.76-19.87 5.4.35.06-3.3.94-2.35.88-7.05 2.04-13.04 3-15.47 4.2-3.23.86-3.87.85-5.55 1.24l.76-.22-5.37 1.4c.03-.32.04-.78.03-1.42l.03.03c-.1-.76-.2-1.24-.44-1.73.15-.12-.12-.62-.1-.8l.02.01c-.23-.43-.1-.97-.3-1.38.02.01.07.01.1.1-.1-.32-.23-.75-.13-.8-.2-.76-.4-1.84-.65-2.3l.03.03c-.17-.26-.1-.36-.22-.66.01-.02.01-.04.02-.04-.17-.28-.2-.9-.3-1.12l.06-.03-.15-.6.04.23c-.2-.04.01-.48-.2-.9-.07-.42-.56-.75-.56-1.2-.13-.2.18.15.04-.14.1-.03.1.13.15.03-.1-.3-.01-.5-.16-.87l.07-.03c-.24-.45-.1-.93-.3-1.22-.17-.48.14-.38-.1-.87l.05-.22c-.03-.23-.16-.13-.16-.4.07 0-.02-.32.07-.2-.03-.58-.4-1.1-.38-1.87-.16-.13-.17-.52-.28-.62.05-.03-.15-.74.05-.35.02.03.03.1.01.1l.08.03c.04-.45-.24-.74-.3-1.16 0 .13.05.3-.03.2l-.08-.4.08.07-.1-.58-.06.1c-.02-.3.08-.42-.1-.7-.1-.13-.04.3-.13 0a18.27 18.27 0 0 0-.16-1.45c-.07.06-.1-.07-.15-.2l.07-.03c-.2-.48.12-.22-.07-.7l-.12-.07c-.24-.42.1-.28-.2-.74.06.2-.14.13-.16-.12l.08.05c-.04-.13-.08-.17-.1-.27.06.07.1.02.06-.18l.12.1-.2-.35c.01-.3-.2-.75-.1-.9 0 0-.1-.64-.23-.76.1.1.04-.24.15-.16-.1-.15-.28-.6-.24-.82l.02.03c-.07-.73-.38-1.2-.42-1.85-.08.05-.1-.3-.2-.2-.25-.64-.05-1.25-.43-1.42-.08-.3 0-.37-.02-.53l.03.07a18.3 18.3 0 0 1-.28-1.14c-.08-.2-.24-.2-.3-.58.1.1.04-.04.01-.18.03.1.06.1.06-.08-.02-.02-.05-.06-.06-.1-.06-.24-.07-.2-.06-.08-.01 0-.02.01-.03.05.03-.26-.15-.67-.05-.73-.18-.7-.4-1.17-.57-1.75.04-.08.12.05.18.2l-.1-.4c.08-.01.1.23.14.35.02-.52-.35-1-.36-1.6l-.1-.1v-.04c-.03.01-.1-.1-.14-.2.05-.1.16-.03.1-.3.02-.24-.17-.64-.28-.92.02.16-.03.12-.06.06-.03-.14.02-.24-.04-.34l.1-.03c-.07.08-.18-.35-.23-.4.05-.1.1.2.17.23l-.2-.86c-.14-.3-.08.07-.2-.05-.08-.27-.2-.52-.2-.84l-.06.12c-.18-.5-.23-.8-.23-1.16-1.5-3.64-1.1-.6-1.1-.6.15 1.53.56 2.25 1 4 .3 1.57.23 2.02.66 3.62.16.77.38 1.6.56 2.34.2.33.22 1 .42 1.4l-.03.18c.07.14.13.3.12.46h-.02c.1.2.12.46.17.56h-.02l.07.26-.04-.04a5.39 5.39 0 0 1 .28 1.1l.08-.05c.07.76.3 1 .34 1.68h-.02c.4.8.14 1.36.54 2.18-.05-.1-.03.06-.06.05.1.4.22.82.4.8.06.3 0 .25-.06.3.07-.02.16.23.2.45l-.05-.1.17.65.1-.16c.04.35-.15.12-.04.45l.1-.03c.08.48-.03.8-.01 1.28.37 1.93 1.12 3.93 1.3 5.76l-.07.1c-.12.06.3.45.2.55l.1.2c-.01.06-.01.2-.06.1.04.2.06.2.13.32l-.03.22c.1.77.4 1.38.55 2.2.05 1 .6 2.77.9 3.8.5 1.42.4 3.23.93 4.68-.01.05.06.17.07.17l.28 1.37s.42 1.98.8 2.92l-6.44 1.6c-.56.15-1 .3-1.4.42-.2.06-.38.13-.57.2a2.4 2.4 0 0 1-.48.1 2.23 2.23 0 0 1-1.26-.25 2.45 2.45 0 0 1-1.28-1.51c.24.48.24.4.1.07-.02-.1-.05-.2-.1-.3-.04-.15-.07-.3-.12-.48l-.27-1.1c.25.96.36 1.25-.05-.75-.1-.27-.22-.7-.34-1.1 0-.02-.01-.1.01-.06-.65-2.5-.57-2.07-.3-.9-.03-.06-.03.05.03.42-.5-2.65-1.78-7.3-1.68-7.65l-4.98-19.24c-.08-.73.36.73.84 2.55l-1.12-4.47c.14.01.7 2.55 1.06 3.93-.54-2.7-1.26-5.43-2-8.27l-1.13-4.37-.53-2.24c-.12-.6 0-1.27.33-1.8a2.89 2.89 0 0 1 .58-.9c.08-.06.17-.1.26-.17-.02-.01.2-.2.56-.37.4-.16 1-.36 1.44-.5.9-.15.02.28 3.06-.65 2.44-.62 6.83-2.13 9.97-3.15-1.7.5-1.18.27-.46.01 1.52-.47 2.43-.63 3.6-1.03l.15.08c.18-.17 4.02-1.37 4.52-1.6.9-.16-2.33.82-2.7 1.02l9.14-2.85c3.22-1.13-.64.04.88-.58 2.86-.93 5.63-1.9 8.95-2.87l-1.08.2c5.35-1.82 8.57-2.85 12.23-3.9 9.88-3.6 15.3-5.87 17.62-7.34.27-.18.5-.37.6-.5.08-.2.16-.35.22-.48.03-.07.04-.1.06-.16-.06.22-.1.4-.13.55-.06.3-.1.4.1.2.28-.34.96-1.95 1.95-5.16 1-3.2 2.37-8 4.2-14.78l-.04.38c2.03-8.1 3.24-13.2 4.3-18.86.5-.82 1.57-6.67 2.1-8.55v.2c.93-5 2.53-10.17 3.43-15-.02.2.03.3-.22 1.4.76-3.5 1.8-8.26 2.02-8.5l.86-3.76h-2.05l-1.95 8.18-2.23 10.1c-.08.26-.18.74-.25 1.15l-.1.53-.03.22-3.45 14.8-6.72 29.15-1.7 7.28c-.06-.03-.32.28-.7.83.07-.13-.05 0-.2.07a10.34 10.34 0 0 1-.57.28c-.44.2-.95.4-1.5.62-1.1.43-2.33.87-3.48 1.28L167.1 283l-20.14 6.62-22.45 7.26-10.57 3.12-4.82 1.4c-.22.07-.45.14-.67.25a4.44 4.44 0 0 0-1.19.8 4.8 4.8 0 0 0-1.38 2.42c-.1.46-.14.94-.1 1.42.01.23.07.5.1.7l1.66 7.05 6.78 27.67c-.05 0-.1.01-.1 0-.92.25-1.9.5-1.88.68-.68.17-.56.08-.67.04.02.07-.56.25-1.08.38l.24-.1-1.5.4.33.06c-.8.16-.25-.12-1 .1l.04.1c-1.12.25-1.8.24-2.9.43l-4.98 1.28a.99.99 0 0 0-.22-.59c.16-.08-.05-.3-.01-.4h.02c-.18-.2.01-.5-.15-.68.02.01.06 0 .08.05-.05-.15-.14-.36-.04-.4-.1-.37-.17-.9-.38-1.12l.03.01c-.14-.12-.05-.18-.14-.32l.02-.02c-.14-.13-.1-.44-.18-.55l.06-.02-.08-.3.01.12c-.2 0 .06-.25-.1-.44-.02-.2-.46-.33-.42-.56-.1-.08.16.06.06-.08.1-.02.07.06.14 0-.08-.14.04-.26-.06-.43l.07-.02c-.18-.2 0-.47-.16-.6-.1-.23.18-.2-.02-.44l.08-.12c-.01-.1-.14-.05-.12-.18.06-.01.02-.16.1-.1.04-.3-.26-.53-.17-.92-.14-.05-.1-.25-.2-.3.05-.02-.07-.37.1-.2.01.02.02.05 0 .05l.08.01c.1-.23-.15-.36-.18-.57-.01.07.01.14-.05.1l-.03-.2.07.03-.02-.3-.07.05c.01-.15.13-.22-.01-.36-.07-.06-.07.15-.13.01.01-.2.03-.5 0-.73-.08.04-.1-.02-.12-.1l.07-.02c-.15-.23.14-.13.01-.36l-.1-.02c-.2-.2.13-.15-.12-.36.03.1-.15.08-.15-.05h.08c-.03-.06-.06-.08-.06-.13.05.03.1 0 .07-.1l.1.05-.17-.16c.05-.16-.1-.37-.01-.45 0 0-.02-.32-.14-.37.08.05.07-.13.16-.1-.1-.06-.2-.3-.14-.4l.01.02c.01-.37-.24-.58-.2-.9-.08.03-.07-.14-.17-.08-.18-.3.1-.64-.27-.7-.05-.14.04-.2.04-.27l.03.03a2.53 2.53 0 0 1-.14-.56c-.05-.1-.2-.08-.2-.27.07.05.05-.03.03-.1.02.04.04.05.07-.05-.02-.01-.04-.03-.05-.04-.04-.12-.05-.1-.05-.04-.01 0-.02.01-.03.03.05-.14-.08-.33.03-.37-.1-.34-.26-.57-.36-.84.05-.04.1.01.15.1l-.06-.2c.08-.01.07.1.1.17.08-.27-.23-.47-.18-.8l-.07-.05.01-.02c-.03.01-.1-.05-.1-.1.06-.05.16-.03.12-.17.04-.13-.1-.3-.17-.45.01.08-.04.06-.07.04-.02-.07.04-.13 0-.17l.1-.03c-.08.05-.13-.16-.18-.18.06-.05.08.1.14.1-.07-.28-.03-.14-.1-.42-.1-.14-.08.05-.18-.01-.05-.13-.14-.25-.12-.4l-.07.07c-.12-.24-.14-.4-.1-.58-1.06-1.73-1-.2-1-.2-.03.77.3 1.1.54 1.96.12.78.01 1.02.24 1.8.07.38.2.78.3 1.15.16.15.1.5.25.67l-.05.1c.05.06.1.14.07.22h-.02c.08.1.07.22.1.27h-.02l.04.13h-.03a1.26 1.26 0 0 1 .15.54l.08-.03c-.02.38.2.48.14.83H97c.3.37-.01.7.3 1.07-.04-.05-.04.03-.06.03.07.2.12.4.3.37.03.14-.03.13-.1.16.07-.02.13.1.16.2l-.04-.05.1.32.13-.1c0 .18-.16.08-.1.24l.1-.03c.03.24-.12.42-.15.66.15.96.66 1.92.64 2.84l-.08.06c-.12.04.24.2.13.26l.08.1c-.02.03-.03.1-.07.05.02.1.04.1.1.15l-.06.12c.02.4.24.67.3 1.07-.06.5.28 1.37.47 1.86.34.68.02 1.63.4 2.32-.01.03.04.08.05.08l.13.68a11.01 11.01 0 0 0 .15.6l-.8.2-1.7.45-.42.1c-.13.03-.34.1-.45.13l-.8.24c-1.08.3-2.15.52-3.2.62l-.2-.06c-.06-.08-.58.1-.94.18a3.41 3.41 0 0 0-.4-1.56c-.12-.22-.27-.4-.42-.58l-.32-.36a23.52 23.52 0 0 1-.61-.73c-.8-1-1.53-2.07-2.14-3.37-.64-1.6-1.47-3.92-1.8-6.4-.16-1.24-.23-2.5-.17-3.68a13.96 13.96 0 0 1 .42-3.14 8.96 8.96 0 0 1 1.76-3.53c.87-1.07 1.96-1.9 3.18-2.84.3-.24.55-.42.9-.83.01 0 .02-.01.02-.01 1.13-.44 1.92-.76 1.68-.84-.1-.02-.53-.03-1.3.1.02-.04.03-.08.05-.12.1-.28.15-.62.14-.93-.01-.64-.3-1.27-.83-1.64a2.14 2.14 0 0 0-.41-.25l-.3-.15c-.18-.1-.36-.16-.53-.24-1.42-.62-2.83-1.05-4.23-1.36a2.08 2.08 0 0 0-.65-.12c-1.67-.47-3.36-.86-5.06-1.2 0 0-1.55-.3-3.6-.57-2.06-.27-4.56-.44-6.6-.4a2.62 2.62 0 0 0-1.61.67 2.7 2.7 0 0 0-.72 1c-.18.5-.16.78-.07.8-.02.17.01.25.07.17.1-.1.3-.62 1.02-1.17.35-.26.88-.53 1.48-.4-.08-.02-.15-.01-.23-.01.3.03.7.12 1.1.18a36.73 36.73 0 0 1 1.54.27l-.05.01c.4.06.53.03.43.28l-.03.13-.07.34-.12.64c-.15.83-.27 1.6-.35 2.38-.22.2-.37 1.85-.53 2.37V320c-.13 1.4-.65 2.82-.8 4.17 0-.05-.04-.1.01-.4-.16.97-.38 2.3-.5 2.36-.42 2.32-1.08 5.54-1.2 7.05l-.01-.1c-.06.87-.2 1.1-.32 2.05-.02.05-.04.1-.05.1-.07.94-.5 2.7-.6 3.44l-.07.04-.34 1.84.15-.68c.13.27-.38 1.36-.52 2.72-.26 1.24-.1 2.6-.44 3.87-.03.63-.03-.57-.14.36-.1.01.02-.44-.1-.22-.13.9-.38 1.46-.53 2.6l-.08.03c-.14 1.48-.62 2.73-.68 3.72-.23 1.5-.4.96-.57 2.56l-.22.6c-.14.67.03.5-.16 1.23-.05-.06-.23.93-.2.48-.42 1.66-.5 3.43-1.1 5.6.03.5-.26 1.6-.23 1.98-.06.05-.44 2.23-.3.96.01-.1.05-.3.07-.28l-.04-.16c-.38 1.23-.36 2.3-.62 3.55.1-.37.18-.86.17-.52l-.23 1.16-.03-.16-.37 1.72.12-.22c-.2.84-.4 1.1-.46 2.08-.02.44.25-.78.1.12l-.85 3.64c.03.02.04.05.05.07-.01.02-.07.02-.14.02l-.01-.08c-1.4-.04-.63-.18-1.82-.3l-.07-.01c-.03 0-.06 0-.1-.01l.1-.04c-.1.04-.18.08-.3.1-.46-.1-.5-.28-.55-.4-.03-.14-.14-.2-.25-.74.05.4-.22.27-.08-.4.01.06.02.14.04.2.05-.4.05-.55.1-.8-.01.25.08.15.18-.46l.02.42.07-1.17c.23-.87.4-2.28.55-2.63 0 0 .4-1.9.35-2.34 0 .4.2-.65.24-.34.01-.5.2-1.97.4-2.54l-.01.1c.47-2.13.54-3.7 1-5.6-.1.07.13-.94-.03-.7.25-2.02.87-3.6.66-4.38.14-.9.27-1.06.37-1.53l-.02.22.6-3.46c.08-.64-.06-.76.18-1.9 0 .38.07-.1.14-.5-.04.27-.03.36.1-.2a1.81 1.81 0 0 1 .01-.32c.01 0 .01-.03.02-.01.1-.7.06-.6 0-.26-.01-.02-.02.01-.06.1.2-.72.36-2.04.48-2.1.35-2.13.5-3.66.8-5.44.1-.2.07.23 0 .75l.2-1.26c.08.02-.08.73-.14 1.12.4-1.47.42-3.1.85-4.83v-.37l.03-.1c-.03 0-.01-.4.03-.66.1-.23.16.05.3-.82.2-.67.3-1.95.44-2.85-.1.48-.1.32-.1.1.07-.43.2-.67.22-1l.1-.02c-.12.15.1-1.15.1-1.3.1-.23-.06.68-.03.8l.45-2.6c.1-.94-.12.15-.12-.3.13-.82.2-1.63.43-2.56l-.14.28c.2-1.55.38-2.46.65-3.48.58-4.92.58-6.1.38-5.87-.23-1.65-1.4 3.7-1.4 3.7-1.3 5.44-1.4 8.34-2.46 14.9-1.1 5.73-1.64 7.2-2.6 13.18l-1.48 8.66c-.03 1.36-.65 3.65-.76 5.24l-.23.58c-.04.55-.1 1.2-.27 1.7l-.03-.04c-.05.82-.27 1.7-.3 2.12l-.03-.04-.16.98-.02-.18a40.24 40.24 0 0 1-.68 4.12l.16-.08c-.32 1.34-.46 2.28-.6 3.18l-.22 1.37-.15.76a8.69 8.69 0 0 1-.1.43 3.32 3.32 0 0 0-.07.65l-.04-.05c.1 1.2 1 2.2 1.95 2.47.23.08.48.1.64.14l.46.1.96.18c1.27.22 2.6.4 4.28.2-.42.05.18.07.15.1 1.56-.06 3.25-.4 3.2-.7l.97-.2c.15-.02.15.03.26.04.01-.1.9-.73 1.52-1.35l-.28.3c.65-.58 1.2-1.2 1.76-1.82l-.5.2c.94-.92.44-.05 1.23-1.03l-.16-.12c1.2-1.35 2.08-2 3.26-3.3 4.44-5.75 8.27-12.5 12.2-17.92l.28-.17c.25.01.74-1.73 1.04-1.83l.34-.7c.15-.16.43-.53.27-.18.4-.6.38-.64.6-1.12.08-.08.2-.23.3-.4.1-.14.17-.3.25-.46.02-.06.03-.12.04-.17.1-.02.2-.03.4-.03-.03.07.77-.04.42.06 1.4-.06 2.7-.58 4.47-.93.08-.06.2-.1.34-.17l.17-.07.22-.06c.3-.08.58-.16.7-.24.06.04 1.72-.42.8-.07-.08.03-.23.06-.22.04l-.1.1c1-.1 1.75-.5 2.7-.73-.3.05-.67.15-.43.04l.9-.2-.17.1 1.34-.3-.2-.03c.66-.12.92-.05 1.63-.34.32-.14-.64.05.04-.14.88-.17 2.2-.4 3.32-.67-.12-.06.18-.13.48-.22l.05.06c1.15-.4.47.05 1.62-.32l.18-.15c1.02-.4.6.01 1.73-.48-.46.13-.26-.1.32-.22l-.13.1c.3-.1.4-.15.62-.2-.18.08-.07.13.4 0l-.3.16.85-.35c.35-.05.8-.16 1.17-.26.04-.01.08-.04.12-.08l1.87 7.6c.06.2.18.63.34.94a4.24 4.24 0 0 0 .63.97c.5.6 1.2 1.1 2.03 1.37a4.34 4.34 0 0 0 1.31.23c.23.01.46-.01.7-.03.24-.04.48-.1.62-.13l2.05-.5 7.87-2.05 1.8-.33c1.56-.46 3.4-.96 5-1.3l-.1.06c2.33-.7 5-1.3 6.14-1.66l-.1.06 2.85-.75-.48.17 12-3.2-.34-.06c7.97-1.95 10.8-3 18-4.8l-.1.06c4.46-1.44 8.04-2.4 11.64-3.4s7.25-2.02 11.78-3.8c-1.13.45.52-.1.43-.04 4.22-1.55 8.54-3.7 8.45-4.03 2.9-1.5 2.38-1.2 2.82-1.3-.04-.05.55-.45 1.42-1 .85-.6 1.98-1.32 3.02-2.08-.3.25-.62.5-.94.72 2-1.4 3.94-2.93 5.7-4.65-.4.27-.8.56-1.2.8 1.44-1.3 1.66-1.43 1.87-1.54s.38-.23 1.64-1.62l-.18-.1c1.8-2 3.17-3.64 4.38-5.4a40.61 40.61 0 0 0 3.52-5.87c.58-1.23 1.08-2.5 1.58-3.78l1.38-3.8 2.75-7.7 5.48-15.47 10.8-29.6zM89.3 348a2.57 2.57 0 0 0-.22.32c-.14.2-.28.46-.5.9l-.55.54c-.26.38-.28.53-.34.7-.13-.06-.3-.1-.5-.2-.22-.24-.18-.42-.48-.6-.1-.12-.27-.2-.4-.3-.14.05-.16-.13-.3-.1l.02-.08c-.05.01-.1 0-.1-.05l.02-.01c-.07.01-.1-.05-.12-.04h.02l-.05-.03.03-.02c-.1-.01-.16-.06-.2-.13l-.06.08c-.05-.17-.2-.07-.25-.25l.02-.01c-.28.06-.1-.3-.4-.25.03-.01.02-.04.04-.06-.08-.04-.16-.08-.27.05-.04-.04 0-.07.03-.13-.05.06-.1.05-.15.02l.04-.01-.12-.07-.07.12c-.03-.08.1-.14.02-.16l-.08.1c-.06-.08.01-.26-.01-.38-.27-.3-.8-.35-.95-.75l.04-.08c.08-.1-.2.08-.14-.02l-.07.02c.01-.03 0-.06.04-.07-.03-.03-.04-.01-.1 0v-.1c-.08-.15-.28-.12-.4-.25-.05-.25-.43-.4-.65-.46-.36-.05-.3-.67-.68-.7 0-.02-.04-.01-.05 0l-.2-.2s-1.03-.94-.9.56l-.02.02c.08.15.14.23.3.2-.1.14.1.1.08.16l-.01.01c.16-.04.08.2.23.18-.01.01-.04.04-.06.03.07.03.16.06.1.14.14.08.28.27.46.2v.02c.12-.04.07.04.15.04-.01.01-.01.02-.01.02.12-.04.15.1.22.1l-.04.05.1.07-.03-.04c.13-.13 0 .15.15.12.05.07.38-.18.4-.05.1-.04-.12.08-.03.07-.06.07-.06.03-.1.1.08.01.01.14.12.14l-.05.06c.17-.04.08.2.22.14.12.02-.1.2.1.17l-.03.1c.02.04.1-.07.1 0-.04.05.02.08-.05.1.02.15.27.05.28.27.1-.07.12.03.2-.02-.03.04.1.1-.03.14-.01 0-.02-.01-.01-.02l-.06.05c-.02.16.17.05.22.12 0-.04-.03-.05.02-.08l.05.06-.05.04.07.1.04-.07c.02.07-.05.18.07.14.06-.03.02-.1.1-.1.03.1.06.23.13.3.05-.07.07-.05.1-.05l-.05.06c.15-.01-.08.15.06.16l.08-.07c.17-.05-.06.15.15.07-.04-.02.1-.14.1-.08l-.06.05c.03.01.06-.01.06.01-.04.02-.07.07-.04.1l-.08.02.15-.05c0 .1.13.1.1.18 0 0 .07.12.16.06-.07.04-.03.1-.1.15.08-.04.2-.02.17.07h-.01c.06.16.27.08.3.24.05-.07.07.01.13-.08.18.01.05.34.3.1.06.03 0 .1.02.14h-.02c.1.06.14.08.2.14.05 0 .16-.1.2-.03-.06.03-.03.04-.01.06-.02 0-.04.01-.04.07.02-.01.03-.02.04-.02.04.02.05 0 .04-.02.01-.01.01-.02.02-.04-.01.1.1.1.05.17.13.08.28.06.4.1-.03.05-.08.07-.12.06l.08.04c-.05.06-.07 0-.1 0-.01.17.25.04.26.2l.06-.03v.01c.02-.03.07-.04.1-.04-.03.06-.1.12-.06.16-.01.08.12.06.2.07-.02-.03.02-.05.04-.06.02.02-.01.08.03.07l-.06.07c.05-.08.12-.02.16-.04-.03.06-.07.02-.1.05.1.07.05.04.15.1.1-.01.05-.08.13-.12.06.02.14.01.15.1l.04-.08c.07.01.1.04.14.08-.2.23-.5.67-.34.3-1.07 1.4-1.84 3.07-3.1 4.85-.1-.03-.2-.06-.3-.13-.22-.24-.18-.42-.48-.6-.1-.12-.27-.2-.4-.3-.14.05-.16-.13-.3-.1l.02-.08c-.05.01-.1 0-.1-.05h.02c-.07.01-.1-.05-.12-.04l.02-.01-.05-.03.03-.02c-.1-.01-.16-.06-.2-.13l-.05.07c-.05-.17-.2-.07-.25-.25h.02c-.28.06-.1-.3-.4-.25.03-.01.02-.04.04-.06-.08-.04-.16-.08-.27.05-.04-.04 0-.07.03-.13-.05.06-.1.05-.15.02h.04l-.12-.07-.07.12c-.03-.08.1-.14.02-.16l-.08.1c-.06-.08.01-.26-.01-.38-.27-.3-.8-.35-.95-.75l.04-.08c.08-.1-.2.08-.14-.02h-.07c.01-.03 0-.06.04-.07-.03-.03-.04-.01-.1 0l.02-.1c-.08-.15-.28-.12-.4-.25-.05-.25-.43-.4-.65-.46-.36-.05-.3-.67-.68-.7 0-.02-.04-.01-.05 0l-.2-.2s-1.03-.94-.9.56h-.02c.08.15.14.23.3.2-.1.14.1.1.08.16l-.01.01c.16-.04.08.2.23.18-.01.01-.04.04-.06.03.07.03.16.06.1.14.14.08.28.27.46.2h-.02c.12-.04.07.04.15.04-.01.01-.01.02-.01.02.12-.04.15.1.22.1l-.04.05.1.07-.03-.04c.13-.13 0 .15.15.12.05.07.38-.18.4-.05.1-.04-.12.08-.03.07-.06.07-.06.03-.1.1.08.01.01.14.12.14l-.05.06c.17-.04.08.2.22.14.12.02-.1.2.1.17l-.03.1c.02.04.1-.07.1 0-.04.05.02.08-.05.1.02.15.27.05.28.27.1-.07.12.03.2-.02-.03.04.1.1-.03.14-.01 0-.02-.01-.01-.02l-.06.05c-.02.16.17.05.22.12 0-.04-.03-.05.02-.08l.05.06-.05.04.07.1.04-.07c.02.07-.05.18.07.14.06-.03.02-.1.1-.1.03.1.06.23.13.3.05-.07.07-.05.1-.05l-.1.07c.15-.01-.08.15.06.16l.08-.07c.17-.05-.06.15.15.07-.04-.02.1-.14.1-.08l-.06.05c.03.01.06-.01.06.01-.04.02-.07.07-.04.1l-.08.05.15-.05c0 .1.13.1.1.18 0 0 .07.12.16.06-.07.04-.03.1-.1.15.08-.04.2-.02.17.07h-.01c.06.16.27.08.3.24.05-.07.07.01.13-.08.18.01.05.34.3.1.06.03 0 .1.02.14h-.02c.1.06.14.08.2.14.05 0 .16-.1.2-.03-.06.03-.03.04-.01.06-.02 0-.04.01-.04.07.02-.01.03-.02.04-.02.04.02.05 0 .04-.02.01-.01.01-.02.02-.04-.01.1.1.1.05.17.13.08.28.06.4.1-.03.05-.08.07-.12.06l.08.04c-.05.06-.07 0-.1 0-.01.17.25.04.26.2l.06-.03v.01c.02-.03.07-.04.1-.04-.03.06-.1.12-.06.16-.01.08.12.06.2.07-.02-.03.02-.05.04-.06.02.02-.01.08.03.07l-.06.07c.05-.08.12-.02.16-.04-.03.06-.07.02-.1.05.1.07.05.04.15.1.1-.01.05-.08.13-.12.03.01.06.01.1.02-.05.07-.1.13-.15.2-.16.6-1.02 1.7-1.14 2.14-.1.01-1.55 2.28-.85.9.06-.12.2-.3.2-.28v-.22c-1.06 1.16-1.48 2.42-2.4 3.67.3-.35.63-.86.47-.48l-.83 1.17.1-.3-1.27 1.7.27-.17c-.66.8-1.04 1-1.6 2.04-.23.5.72-.7.1.22l-3.37 4.03c.2-.04-.08.33-.37.73l-.13-.03c-1.06 1.54-.64.37-1.74 1.83l.04-.18-.13.53c-.96 1.33-.78.5-1.84 1.84.25-.2.35-.2.3-.1-.04.12-.24.35-.57.52l.1-.2c-.18.14-.24.16-.3.22-.06.05-.22.08-.36.1.24-.13.1-.2-.56-.04.14-.08.3-.15.4-.24-.4.17-.82.3-1.25.45-1.03.02-2.7.2-3.12 0l-1.1-.07-.4 1.46.6-2.2c1.16-5.8 2.06-12.07 3.3-17.43l.13-.22c.15-.08.1-1.52.25-1.7l.06-.64c.06-.17.15-.54.12-.22.12-.58.1-.6.14-1.02l.2-.6c.5-2.28.72-4.25 1.2-6.65.7-2.86 1.6-8.34 2.13-11.5.53-3.6 1.6-7.6 2.34-11.4a.86.86 0 0 0 .27.11c.56.17.83-.1 1.46-.2.57-.01.74.13 1.3-.01a4.86 4.86 0 0 0 .84-.19c.1-.15.36-.07.5-.2l.07.06c.04-.05.1-.1.16-.06v.02c.07-.07.16-.06.2-.1v.02l.1-.03-.01.03a.74.74 0 0 1 .39-.14l-.03-.08c.3.02.33-.17.6-.14v.02c.22-.3.52 0 .75-.33-.03.04.03.04.04.06.13-.08.27-.14.2-.3.1-.04.1.01.14.07-.03-.07.04-.14.12-.17l-.02.04.2-.12-.1-.1c.13-.02.1.14.2.06l-.05-.1c.17-.06.34.04.54.03.7-.33 1.1-1.06 1.7-1.38l.08.04c.1.08-.01-.27.1-.2v-.1c.03 0 .08-.02.08.03.05-.05.04-.06.05-.13l.1-.01c.23-.18.27-.45.47-.67.35-.18.6-.83.73-1.2.1-.54.85-.85.9-1.45.02-.01.01-.07-.01-.07l.22-.45c.04 0 .9-2.22-.72-.9l-.02-.02c-.16.2-.24.35-.18.57-.17-.04-.1.18-.18.22l-.01-.01c.06.2-.24.24-.2.43-.01-.01-.05-.04-.04-.07-.03.1-.06.26-.16.22-.1.24-.3.54-.26.76v-.02c.04.14-.05.1-.06.23h-.03c.04.15-.14.27-.15.36l-.06-.03-.1.18.05-.06c.14.12-.18.07-.17.26-.1.1.14.45-.02.52.03.1-.07-.13-.08-.01-.08-.05-.02-.08-.1-.1-.03.1-.18.08-.2.22l-.06-.04c0 .2-.27.17-.24.34-.06.17-.24-.06-.24.17l-.12-.02c-.06.04.05.12-.04.15-.04-.05-.1.04-.12-.04-.2.06-.16.37-.46.4.04.13-.1.15-.07.25-.04-.04-.2.15-.16-.03 0-.02.02-.03.03-.01l-.03-.07c-.18-.01-.14.2-.26.27.05 0 .1-.04.1.02l-.1.06-.02-.07-.17.08.06.05c-.1.02-.2-.07-.22.08-.01.07.13.05.06.1-.13.02-.33.03-.47.1.05.07.02.1-.01.12l-.04-.06c-.1.17-.12-.12-.24.02v-.05l.03.16c-.08.2-.14-.1-.2.15.06-.04.1.14.01.14l-.01-.07c-.04.03-.04.07-.07.07.01-.05-.03-.1-.08-.06l.01-.1-.07.17c-.12-.04-.23.1-.3.03 0 0-.2.03-.22.15.02-.08-.1-.07-.1-.15-.03.1-.16.2-.25.14v-.01c-.25-.01-.36.23-.6.2.03.08-.1.07-.03.17-.2.17-.45-.12-.45.23-.1.04-.14-.05-.2-.06h0a1.34 1.34 0 0 1-.38.1c-.06.05-.04.2-.18.2.03-.07-.02-.05-.07-.04.03-.02.03-.04-.04-.07-.01.02-.02.04-.03.05-.07.02-.06.03-.02.04 0 .01.01.02.02.04-.1-.06-.23.04-.26-.06-.23.06-.4.2-.6.27-.03-.05.01-.1.07-.14l-.14.04c-.01-.08.08-.06.12-.08-.2-.1-.33.18-.55.08l-.03.07h-.01c0 .03-.04.08-.06.1-.04-.07-.02-.16-.1-.15-.08-.06-.22.06-.32.1.06.01.04.05.02.07-.05.01-.08-.06-.12-.03l-.01-.1c.03.1-.12.1-.14.15-.03-.07.07-.07.08-.12-.2.02-.1.01-.3.04-.1.08.03.1-.02.17-.1.02-.18.1-.3.05l.04.08c-.17.07-.28.07-.4-.01-.2.1-.32.2-.42.28a53.11 53.11 0 0 0 .35-2.08c.05-.14.08-.53.06-.53l.8-4.13.55-2.9.18-.98c-.04.2-.07.38-.1.57 2.66.4 4.35.7 6.24.82.24.33 2.23.5 2.83.75l-.07.01c1.7.18 3.3 1.07 4.9 1.4-.07 0-.13.06-.48-.05 1.12.32 2.65.9 2.54 1.08.1.03.17.1.2.2.02.1.02.18-.1.4.01.06-.32.36-.6.6l-.9.78c-1.25 1.06-2.3 2.3-2.72 3.2l.04-.14c-.47 1.03-.78 1.23-1.2 2.42-.05.05-.1.13-.1.1-.15.6-.4 1.43-.58 2.26-.17.83-.28 1.64-.27 2.1l-.12.05c-.07.78-.05 1.57-.03 2.35-.01-.3.01-.6.02-.88.3.3-.2 1.8.25 3.47.22 1.6 1.3 3 1.77 4.52.44.66-.5-.54.08.48-.13.1-.3-.46-.3-.13.52 1.02.64 1.8 1.46 2.97l-.08.1c.58.74 1.05 1.47 1.5 2.13.2.32.5.66.68.9.16.2.26.37.37.56.2.66-.01.92-.13 1.1zM288 376.64h0v-.06zm-38.16-94.36c1.33 2.97 2.32 4.34 4.15 7.75l.78 1.6 1.02-.6-.77-1.3c.15.32.06.23-.03.1-.15-.28-.17-.47-.3-.67l.07-.07c-.02.15-.46-.68-.55-.77-.02-.2.28.4.36.45l-.87-1.66c-.37-.56-.02.15-.24-.1-.3-.52-.6-1-.87-1.62v.23c-.57-.95-.86-1.55-1.13-2.25-4.43-7-1.64-1.1-1.64-1.1zm23.43 56.12c.08.36.1.42.2.62l1.03-.3-.12-.36v-.45c-.1-.47-.2-.3-.28-.84.07.02-.1-.67.02-.38-.18-1.2-.7-2.37-.9-3.96-.2-.3-.32-1.1-.47-1.34.04-.05-.37-1.57-.04-.72.03.07.06.2.04.2l.1.1c-.08-.92-.46-1.6-.66-2.48.04.27.13.6.03.4l-.2-.82.1.15-.23-1.06-1.13.65 2.1 8.62-.05.2c-.1.1.43 1 .35 1.17l.16.43c.02.15.05.4-.03.2zm2.73 7.93l-.86.28 1.45 5.67.6 2.5.9-.35-.12-.33.04.07c-.24-.57-.2-.77-.4-1.42 0-.04 0-.1.01-.08-.25-.62-.45-1.9-.62-2.4l.06-.05-.3-1.3.1.5c-.22-.13-.1-1-.44-1.9-.07-.4-.24-.8-.4-1.17zm-13.56-39.63l1.1-.63c-.15-.3-.3-.54-.5-.65-.3-.58-.28-.73-.4-1.04l.1.13-1.14-2.22c-.23-.4-.4-.38-.74-1.13.18.2.01-.1-.12-.36.1.17.14.2 0-.16-.04-.04-.1-.1-.14-.18 0-.01 0-.02.01-.02-.25-.44-.23-.36-.13-.14-.01-.01-.02.02 0 .1-.17-.5-.67-1.3-.6-1.42l-1.54-2.7-.97.56.1.2 2.36 4.54c.46.64.97 1.92 1.48 2.7l.1.35a4.54 4.54 0 0 1 .47.9l-.03-.01c.26.4.47.9.6 1.1h-.03l.04.1zm17.34 55.06l-1.04.34.03.1a1.21 1.21 0 0 0 .12.36l.64 2.92s3.13 14.14 1.76 3.17l.04.07c-.3-1.6-.5-2.62-.9-3.7.13-.2-.28-1.3-.3-1.7l.02.03c-.2-.52-.28-1.07-.37-1.6zm-10.73-41.1l.92-.57c-.15-.44.06-.37-.4-1.2.17.4-.08.25-.25-.27l.12.1c-.13-.28-.2-.36-.25-.55.1.15.13.05-.04-.36l.2.25-.45-.72c-.2-.62-.7-1.5-.7-1.8 0 0-.54-1.26-.77-1.5.18.22-.12-.48.05-.32-.22-.3-.73-1.2-.84-1.62l.04.07-.45-.98-1.12.65.23.54h-.03c1 1.55 1.1 2.68 2.1 4.3-.12-.2 0 .1-.03.1.38.78.76 1.62.9 1.56.23.58.14.5.1.6.06-.03.32.45.45.92l-.1-.2.3 1.02z"/><path d="M259.8 301.6l-.05-.06.05.06zm-134.2 24.04h0l.06.03zm76.12-69.2l.65-2.87c-.1.07.2-1 .02-.76.37-2.15 1.1-3.82.93-4.66l.07-.3-1.1-.17-.3 1.43v-.03l-.18.85v-.15l-.77 3.6.1-.07-.64 2.77 1.2.38zm-3.42 13.47l.07-.25.02.22.2-.88c-.03.27.07.16.2-.48l-.02.45.17-1.24.76-2.78.53-2.5c-.02.3.12-.17.2-.35l-1.22-.4-.92 3.95c.06-.35-.08.14-.1.1-.28 1.28-.6 2.65-.44 2.7-.17.66-.22.76-.27.8l.8.63zm-14.33 22.4c1.48-.76 2.9-1.77 4.7-3.04l1.26-1.23-.85-.65c-1.67 1.56-3.56 2.82-5.46 3.76l.36 1.16zm20.85-51.24c-.02.4.07-.1.17-.54-.05.3-.05.38.12-.2 0-.1.02-.22.03-.34.01 0 .01-.03.02-.01.14-.76.1-.63.01-.28-.01-.02-.02.01-.06.1.25-.76.47-2.17.6-2.25l.45-2.33-1.18-.2-1.2 5.67c-.04.37-.12.8-.22 1.3l1.07.17c.01-.26.06-.58.2-1.1zm-7.94 35.06l-.95-.73-.76 1.93c-.6 1.9-1.42 3.8-2.47 5.54l.97.74.8-1.33-.2.2c.5-.8.7-1.08 1.08-2.08.15-.46-.47.77-.07-.14a32.96 32.96 0 0 0 1.6-4.12zM172 295.78l.27.87c.67-.2 1.26-.32 2.17-.7l.07.05c1.46-.65 2.88-.9 3.82-1.4l.24-.1-.3-1-5.82 2.14-.44.13zm-5.5 1.74l-7.47 2.52.26.85.56-.2c.06 0 .13-.02.12-.01.93-.4 2.8-.9 3.56-1.18l.07.05 1.9-.62-.72.2c.15-.2 1-.3 2.02-.6l-.3-1zm-26.03 9.36l-.3-1.02c-3.76 1.2-18.02 5.76-3.85 2.28l-.1.06 4.26-1.32zm10.08-3.08l3.24-1.04-.33-1.08-7.6 2.35a.94.94 0 0 0-.18.06l.32 1.03 2.47-.77c-.05.03-.07.08-.38.2l2.46-.74zm57.35-76.5l.02-.4.03-.1c-.03 0 .01-.43.06-.7.12-.25.15.05.35-.87.1-.36.2-.88.3-1.43.2.1.48.2.82.32l-.03.03c.6.1 1 .13 1.4-.01.07.18.5.01.64.07l-.01.01c.37-.13.77.1 1.12-.05-.01.01-.02.06-.1.07.26-.04.6-.1.64 0 .62-.08 1.5-.13 1.86-.35l-.02.03c.2-.14.3-.06.53-.15.02.01.03.02.03.02.22-.14.7-.15.9-.23l.03.06.48-.1-.18.02c.02-.2.4.04.7-.16.33-.06.56-.53.9-.52.13-.13-.1.17.12.04.03.1-.1.1-.01.15.22-.1.4-.02.67-.17l.03.07c.33-.25.73-.1.94-.32.36-.2.33.12.67-.16l.2.04c.17-.05.08-.16.28-.18.01.06.25-.04.17.06.46-.06.8-.5 1.4-.56.07-.16.37-.22.42-.34.04.04.54-.26.3 0-.02.02-.07.04-.07.02v.08c.36-.03.52-.35.82-.48-.1.02-.2.1-.16 0l.28-.13-.03.08.43-.18-.1-.04c.22-.07.36.01.52-.22.07-.1-.24.02-.04-.12l1.07-.46c-.08-.05.01-.1.1-.18l.05.06c.3-.3.23.07.52-.24v-.13c.22-.34.25.01.47-.4-.12.1-.16-.1.02-.18v.1c.08-.08.1-.12.16-.15-.03.07.03.1.16 0l-.03.14.17-.3c.25-.07.48-.4.6-.38 0 0 .42-.3.44-.46-.03.12.2-.04.2.07.05-.15.3-.45.48-.5l-.02.03c.48-.34.62-.78 1.07-1.08-.08-.04.15-.2.02-.23.28-.47.8-.6.68-.96.14-.2.25-.17.35-.25l-.02.06.55-.75c.07-.16-.04-.27.17-.5-.01.12.06.01.12-.08-.04.06-.03.1.1 0 0-.03.01-.06.02-.1 0 0 .01 0 .02.01.1-.17.05-.15 0-.1-.01-.01-.02-.01-.05 0 .17-.12.3-.46.4-.42.3-.5.42-.9.6-1.32.07-.02.06.1.01.23l.15-.3c.07.04-.06.2-.1.3.3-.3.3-.77.62-1.13v-.12l.02-.02c-.03-.01-.02-.13 0-.2.1-.03.14.08.24-.13.15-.13.2-.48.26-.72-.06.1-.08.06-.08 0 .04-.1.14-.14.14-.23l.1.03c-.1.01.04-.3.02-.37.1-.03-.02.2.02.23l.26-.65c.02-.26-.1.01-.13-.13.06-.2.08-.43.22-.64l-.1.05c.07-.4.17-.63.33-.86v-.06h-1.03l-.64 2.14c-.55 1.08-.84 1.28-1.4 2.38l-.96 1.53c-.06.3-.45.6-.57.94l-.13.06c-.04.1-.1.22-.22.28h-.01c-.07.16-.22.28-.25.37l-.01-.02-.13.16v-.05c-.15.26-.34.5-.55.66l.08.04c-.47.33-.5.6-.94.9l-.01-.02c-.33.6-.88.55-1.24 1.16.05-.08-.06-.01-.06-.03-.23.2-.5.4-.4.55-.18.13-.18.07-.24.03.05.06-.1.2-.24.3l.05-.07-.4.32.16.06c-.24.12-.15-.1-.34.08l.07.1c-.33.17-.62.14-.97.25-1.27.75-2.63 1.68-4 2.03l-.1-.06c-.07-.1-.3.3-.38.22l-.13.1c-.05-.01-.15 0-.08-.05-.14.05-.14.07-.23.14l-.18-.02c-.57.16-1 .42-1.6.58-.76.06-2.08.5-2.87.73-1.1.38-2.48.02-3.6.28-.04-.01-.13.03-.13.04-.35 0-.7.01-1.06-.01l-2.02-.01.16-.95c-.12.5-.12.34-.1.1.1-.46.22-.7.27-1.08l.1-.02c-.13.16.16-1.23.16-1.4.12-.25-.1.73-.07.85l.58-2.78c.14-1-.13.16-.1-.33l.55-2.73-.15.3.8-3.72.6-4.3h-.6l-.06.24-.32 1.3c-1.2 4.77-1.47 7.3-2.62 13.02l-1.8 7.75 1.23.2c.05-.78.2-1.54.4-2.32z"/><path d="M226.94 219.63h0v.07zM95.88 319.4c2-.4 3.42-.82 5.03-1.3l-.48-.9-.5.13.25.02c-1.16.37-1.87.54-2.68.67-8.6 2.94-1.6 1.38-1.6 1.38zm-12.1 29.78h0l-.04.03z"/></svg>