<svg xmlns="http://www.w3.org/2000/svg" viewBox="0 0 480 480" xmlns:v="https://vecta.io/nano"><path d="M375.57 355.35c0-.04 0-.08.01-.1l-.01.14v-.03zm1.73-7v-.1.12zm-266.83-35.2l.35-.06c-.01-.01-.1 0-.35.06zm44.03-21.57l-.33.15c.02-.01.04-.02.06-.02l.27-.13zM286.86 395.4l-.06-.35c-.02.01-.01.1.06.35zM81.8 315.26v-.1l-.02.1zm278.38 99.8c-.54-2-4.25-2.9-7.1-3.7-3.16-.85-7.9-2.45-12.6-4.12l.2-.5-2.4-.9-.2.52-3.83-1.4.24-.5-2.5-.9-.23.5-3.48-1.3.2-.37s0-.1.1-.1l-2.5-1-.3.52-.9-.35-1.15-1.65a1.81 1.81 0 0 0-2-.72l-4.4 1.32-4.53-15.46 3.37-.76c1.2-.3 2-1.5 1.7-2.7l-16.4-78.2c-2.25-9.96-22.24-65.73-33.33-96.18h-75.88c-.65 11.5-3.55 51.03-4.3 59.68-.9 10.2-.5 12.5-7.1 15.2l-59.8 24.9c-.7.3-1.1 1-.9 1.7l.57 2.3-10.87 2.92a2.11 2.11 0 0 0-1-.7l-9.1-3.7c-3.9-1.6-9.1-2.5-12-2.9-1.3-.2-2.5.6-2.9 1.8L64.96 369c-.5 1.6.4 3.3 2 3.8 1.1.2 2.3.6 3.5.9 2 .5 4.6-2.3 6.7-4.4 6.1-6.3 22.4-19.8 22.4-19.8l2-.2c.8-.1 1.4-.6 1.6-1.4l.8-3.65 23.57-6.24.33 1.3c.2 1 1.2 1.6 2.2 1.4l85.9-20.4c12.9-3.7 17.5-11.25 22-20.95.67-1.47 1.63-3.94 2.78-7.06l2.42 3.5c13.8 20.3 17.4 27.2 18.7 31.4 1.2 3.7 13.6 54 16 63.9.2 1 1.2 1.5 2.1 1.3l6.12-1.4 4.73 17.37-.77.23c-1.06.36-1.7 1.28-1.5 2.44l1.2 9.75c.5 4.2 2.24 9.17 3.3 11.9.46 1.23 1.74 1.9 2.98 1.66l62.7-12.15a3.04 3.04 0 0 0 2.35-3.6c-.38-1.07-.6-2.3-.93-3.5zm-56.5 18.53l-.1.03.1-.03zm43.88-143l.06.2-.06-.2z" fill="#fff"/><path d="M362.22 418.5c-.1-.5-.23-.62-.42-1.08.22.7-.18.43-.36-.5l.17.2c-.15-.5-.24-.66-.3-1 .14.3.2.13 0-.64l.27.48-.3-.7c-.1-.24-.17-.44-.36-.8-.25-.83-1.02-1.5-1.65-1.87l-1.4-.82s-.6-.28-1.28-.5c-.68-.23-1.42-.42-1.72-.4.5.03-.8-.4-.38-.42-.66-.05-2.47-.45-3.14-.8l.14.03-6.83-2.2c.06.17-1.15-.33-.9-.05-2.5-.67-4.3-1.92-5.35-1.7-1.1-.37-1.26-.6-1.8-.84l.27.07-4.2-1.5c-.78-.23-1-.03-2.33-.6.48.07-.1-.12-.6-.32.33.1.45.1-.2-.2a2.35 2.35 0 0 1-.4-.08c0-.01-.03-.03-.01-.03-.86-.3-.73-.2-.34-.04-.03.01 0 .04.1.1-.83-.46-2.46-.93-2.5-1.14l-.9-.33c-.06-.03-.15-.02-.2-.08l-.18-.22-.54-.7c-.2-.23-.3-.44-.6-.73-.52-.52-1.32-.8-2.02-.67a2.44 2.44 0 0 0-.5.12l-.4.14-.8.27c-.27-.02.22-.25.84-.47l-1.54.5c-.02-.13.87-.34 1.34-.5-1.12.2-2.23.64-3.4 1.05a5.48 5.48 0 0 0-.28-.81c-.48-1.42-.07-1.02-.65-2.48l-.07-.6c-.17-.64-.25-.42-.4-1.15.07.03-.2-.9-.03-.5-.37-1.63-1.1-3.22-1.55-5.38-.25-.42-.5-1.5-.68-1.83.02-.04-.2-.8-.3-1.16.02 0 .04-.01.06-.01l.08.2c.04.1.1.28.07.28l.1.12-.14-.62.16-.03 1.63-.35.82-.17a3.25 3.25 0 0 0 1.06-.46 3.24 3.24 0 0 0 1.33-1.86 3.18 3.18 0 0 0 .07-1.19l-.17-.9-.64-3.28-1.3-6.52-2.74-12.65a15.96 15.96 0 0 0-.25-1.16l-.14-.53c-.04-.13-.06-.22-.07-.2l-3.13-15.05s-15.22-72.96-5.33-17.15l-.12-.36c1.62 8.26 2.68 13.45 4.1 19.07-.1.96 1.4 6.77 1.7 8.72l-.06-.18c1.27 4.97 2 10.4 3.2 15.18-.06-.18-.16-.27-.4-1.38.78 3.52 1.85 8.33 1.74 8.63l1.44 6.8c.1.57.3 1.3.28 1.5-.02.32-.2.65-.47.88-.13.1-.3.2-.46.25-.18.05-.56.13-.83.2l-1.76.4-11.57 2.83.36-.13c-3.02.87-3.96.92-7.37 1.8-.2.02-.44.06-.4.05-3.3.93-9.74 2.23-12.42 2.92l-.2-.07-1.66.38-.4.1c-.08.02-.17.02-.25.02-.17 0-.34-.06-.48-.13a1.04 1.04 0 0 1-.34-.32c-.08-.13-.1-.26-.2-.6l-.4-1.67.3 1.25.15.62c.05.2.07.28.13.4-.06-.04-.13-.1-.18-.25a7.61 7.61 0 0 1-.2-.73c-.14-.6-.3-1.35-.48-2.23-.37-1.76-.84-4.02-1.53-6.4-1.07-4.5-2.86-8.96-3.87-13.66-.7-2.2.7 1.9-.22-1.4.13-.15.48 1.53.4.64-.88-3.25-1.17-5.4-2.27-9.4l.08-.2c-1.53-5.2-2.3-9.95-3.4-13.4-1.46-5.4-.55-3.72-2.22-9.3l-.4-2.23c-.6-2.42-.64-1.67-1.28-4.37.08.07-.15-.8-.33-1.48-.2-.68-.35-1.2-.04-.4-.97-3.13-2.6-5.93-4.33-8.9l-5.84-9.6c-1.14-1.4-3.32-4.93-4.2-5.95-.04-.24-4.62-6.9-1.86-3.15.24.32.63.9.57.9l.4.4c-2.42-4.02-4.87-7-7.54-10.82.76 1.15 1.83 2.64 1.06 1.7l-2.5-3.53.6.67-3.72-5.25.42.8c-1.8-2.58-2.28-3.6-4.52-6.35-1.03-1.23 1.62 2.5-.37-.15l-9.07-12.98c.17.5-.65-.7-1.52-1.9v-.2c-3.37-4.57-.96-1.86-4.22-6.45l.34.37-1.03-1.1c-2.97-4.13-1.28-2.43-4.55-7.04 1.2 1.88.3 1.05-1.05-1.34l.46.54c-.8-1.3-1.1-1.7-1.6-2.6.52.74.38.33-.75-1.6.28.4.6.8.88 1.22-.8-1.16-1.5-2.38-2.27-3.56-1.5-2.9-3.96-7.43-4.36-8.72l-1.57-3.35-2.04-4.44c.62 1.26-.75-2.33-.22-1.36-.38-.82-1.07-2.46-1.63-4.2-.58-1.72-1.06-3.5-1.22-4.56l.1.4c-.43-1.9-.75-3.68-.96-5.37-.07-.62-.13-1.22-.17-1.82h-2.14l.04.67c.12 1.5.32 3.12.65 5l-.06-.1c1.17 4.67 2.37 8.25 3.7 11.82s2.92 7.07 5.27 11.36c-.6-1.06.17.5.1.43 2.07 4 4.5 8.15 4.78 8.08 1.66 2.82 1.28 2.34 1.4 2.77.05-.04.45.55 1 1.42a171.78 171.78 0 0 1 1.97 3.08l-.66-.97c1.28 2.08 2.64 4.1 3.98 6.15l-.6-1.34c2.06 3.3.3 1 2.4 4.05l.14-.15 7.48 11.5 19.3 26.67c3.1 4.53 6.15 9.04 9 13.53 2.82 4.5 5.57 8.94 7.54 13.45.08.28.14.56.2.85-.02.22.56 1.4 1 2.7.46 1.3.9 2.74.9 3.13l.68 2.23c.13.64.43 2 .1.88.52 2.1.57 2.13 1.02 3.62l.44 2.28 6.08 23.94c1.16 5.25 3.02 12.78 4.94 20.4l1.7 6.75a2.86 2.86 0 0 0 .17.52c.32.7.97 1.23 1.66 1.43a2.77 2.77 0 0 0 1.07.1c.4-.05.57-.1.8-.17l1.36-.32 9.8-2.34 12.4-2.87 8.32-1.8c.82 2.66 1.6 5.27 2.22 7.74l-.02.25c-.1.14.6 1.37.54 1.6l.23.58c.03.17.1.54-.01.25.16.56.18.56.34.95l.1.62a45.75 45.75 0 0 0 .6 2.05c-.5.16-1 .3-1.54.4l-.42.24-.13.02c.02.05-.44.27-.76.38-.34-.02-.05-.27-1.12.06-.88.15-2.4.78-3.48 1.17.6-.16.43-.04.18.08-.53.16-.87.14-1.27.32l-.1-.14c.25.08-1.35.57-1.53.7-.34-.02.8-.35.9-.47l-3.2 1c-1.1.46.25.08-.26.38-1 .33-1.96.73-3.14 1l.4.02c-1.87.67-3 1-4.32 1.25-2.38.92-4 1.6-5.08 2.07-.76-2.88-1.53-5.08-2.67-9.1l-.63-2.48-1.06.57c.18.62.43 1.33.6 1.9-.1-.47-.04-.33.04-.13.12.4.1.67.23.98l-.08.06c.04-.2.4 1.06.47 1.2 0 .25-.23-.63-.3-.72l.7 2.5c.3.87.04-.18.24.22.23.78.5 1.53.7 2.44v-.3c.46 1.43.7 2.3.87 3.3-3.2 1.62 3.46-.12 3.46-.12 5.65-1.37 8.4-2.63 15-4.72 2.92-.84 4.78-1.3 6.67-1.8l2.98-.82 1.75-.52a30.73 30.73 0 0 1 .99-.3l.5-.15c.05-.01.13-.03.18-.03.1.01.17.04.27.12.06.05.08.07.16.18l.33.47.77 1.1.16.23c.03.04.05.08.08.1l.13.05.53.2.6.22 1.27.47c-.06.12-.14.25-.07.38l-.02-.02c.07.1-.02.07-.01.16-.01 0-.02 0-.03-.01.06.1-.08.17-.06.24l-.06-.03-.05.12.04-.03c.15.1-.15.03-.1.16-.06.06.25.34.12.37.05.08-.1-.1-.08-.01-.08-.05-.04-.06-.1-.08.01.08-.14.04-.12.14l-.07-.03c.07.15-.18.1-.1.24 0 .12-.23-.05-.15.12l-.1-.01c-.04.03.1.1.02.1-.05-.03-.08.03-.1-.03-.14.05.01.27-.2.32.1.1-.01.12.06.2-.05-.02-.08.13-.14 0 0-.01 0-.02.02-.01l-.06-.05c-.16.01-.01.17-.07.24.03-.01.04-.04.08 0l-.05.06-.05-.05-.1.08.07.02c-.06.03-.2-.02-.12.1.04.06.12 0 .1.07-.08.04-.2.1-.28.18.08.03.06.06.06.1l-.07-.03c.04.14-.16-.05-.14.08l.08.07c.08.16-.16-.03-.04.16.01-.04.15.06.1.1l-.06-.05c0 .03.02.06 0 .06-.03-.03-.1-.06-.1-.02l-.06-.07.08.13c-.1.01-.06.15-.16.12 0 0-.1.1-.03.17-.05-.06-.1-.01-.17-.07.05.07.06.2-.03.18h0c-.15.1-.02.28-.18.34.08.04 0 .07.1.1.03.17-.32.1-.05.32-.01.06-.1.02-.14.04v-.02a.5.5 0 0 1-.1.22c.01.05.14.14.07.2-.04-.05-.05-.02-.06.01 0-.02-.02-.04-.07-.03.01.01.02.03.03.04-.01.04.01.05.03.03.01.01.02.01.04.01-.1 0-.06.12-.16.08-.05.14 0 .28-.03.4-.06-.02-.08-.07-.1-.1l-.02.08c-.07-.04-.02-.07-.02-.1-.16.02.01.25-.15.3l.04.05h-.01c.03.02.06.06.06.08-.07-.02-.14-.08-.17-.03-.08.01-.04.13-.03.2.03-.02.06.01.07.03-.01.03-.08.01-.07.04l-.08-.04c.08.03.04.1.07.14-.07-.02-.03-.07-.07-.1-.05.1-.03.05-.08.16.03.1.08.03.14.1-.01.06.02.14-.06.17l.08.02c0 .12-.04.17-.14.2.2 1.02.73.6.73.6.3-.18.18-.44.3-.8.2-.26.38-.25.5-.58.1-.13.14-.3.2-.44-.07-.13.1-.18.05-.3h.08c-.02-.04-.02-.1.03-.1l.02.01c-.02-.07.03-.1.02-.13h.02l.02-.05v.02a.26.26 0 0 1 .08-.22l-.08-.04c.16-.08.03-.22.2-.28l.02.01c-.1-.27.27-.16.17-.43.01.03.04.01.06.03.02-.08.05-.17-.1-.25.03-.05.07-.02.13.01-.07-.04-.07-.1-.05-.14l.01.03.04-.13-.14-.05c.07-.04.16.07.16-.01l-.1-.06c.07-.07.25-.04.37-.08.24-.32.2-.84.56-1.06l.08.03c.12.06-.1-.18 0-.14l-.03-.07c.03 0 .06-.01.07.02.02-.03.01-.04-.01-.1h.1c.13-.1.06-.3.17-.43.24-.1.3-.5.33-.72-.01-.3.37-.38.5-.6l1.84.67c.8.17 1.9.6 3 1.02.01.02.01.05.02.07l-.02-.02c.07.1-.02.07.01.16h-.03c.07.1-.06.17-.04.24l-.06-.02-.04.12.03-.04c.16.1-.14.04-.07.17-.06.07.28.32.16.36.06.07-.1-.1-.08-.01-.1-.04-.04-.05-.12-.07.02.08-.13.05-.1.15l-.07-.03c.08.15-.17.13-.08.24.01.12-.23-.03-.14.13h-.1c-.03.03.1.08.03.1-.06-.03-.07.04-.12-.01-.14.06.03.27-.18.34.1.08 0 .12.07.18-.05-.02-.07.14-.14.01-.01-.01 0-.02.02-.01l-.06-.04c-.16.02 0 .17-.05.24.03-.01.04-.05.08 0l-.04.07-.05-.04-.08.1h.08c-.06.04-.2 0-.1.1.04.05.12-.01.1.06-.08.05-.2.12-.26.2.08.03.07.05.07.08l-.07-.03c.05.14-.17-.03-.13.1l-.04-.03.13.1c.1.15-.16-.02-.02.16.01-.04.16.05.1.08l-.06-.04c0 .03.03.05 0 .06-.03-.03-.1-.05-.1-.01l-.07-.06.1.13c-.1.02-.05.15-.15.13 0 0-.1.1-.01.17-.05-.05-.1 0-.17-.05.06.06.07.18-.02.18l-.01-.01c-.14.1 0 .28-.15.35.08.03.01.07.12.1.04.17-.3.13-.02.32-.01.06-.1.03-.13.06l-.01-.02c-.02.12-.03.15-.08.22.01.05.15.13.1.18-.05-.05-.05-.02-.06.01 0-.02-.02-.04-.07-.02.02.01.02.03.03.04-.01.04.01.04.03.03.01.01.02.01.04.01-.1.01-.05.13-.15.1-.04.14.02.28.01.4-.06-.01-.1-.06-.1-.1l-.02.1c-.07-.03-.02-.06-.03-.1-.16.04.03.24-.13.3l.05.05h-.01c.03.01.06.06.06.08-.07-.01-.15-.07-.17-.01-.08.01-.02.13-.02.2.02-.03.06 0 .07.02-.01.03-.08.01-.06.05l-.1-.04c.1.03.06.1.1.14-.07-.01-.04-.07-.08-.1-.04.1-.02.06-.06.17.04.1.1.03.15.1-.01.06.03.14-.05.17l.08.02c.02.12-.02.18-.13.2.3 1 .78.54.78.54.3-.2.14-.45.23-.8.17-.28.36-.3.43-.62.08-.14.1-.3.16-.46-.08-.12.08-.2.02-.3h.08c-.02-.04-.03-.08.02-.1h.02c-.03-.06.02-.1 0-.13l.02.01.01-.05.02.02c-.02-.1.01-.17.06-.22l-.08-.03c.15-.1.01-.22.17-.3l.02.01c-.14-.25.26-.2.13-.44.02.03.04.01.06.02.01-.1.04-.17-.12-.24.03-.05.07-.02.13 0-.07-.03-.08-.1-.06-.14l.02.03.03-.13-.14-.03c.07-.05.16.05.16-.02l-.1-.05c.06-.08.25-.06.37-.1.2-.34.1-.85.46-1.1l.1.02c.12.05-.13-.17-.02-.14l-.04-.06c.03 0 .06-.01.08.02.02-.03 0-.04-.02-.1l.1-.01c.12-.12.04-.3.13-.44.23-.1.25-.5.26-.75-.02-.12.05-.22.13-.3.45.16.9.3 1.28.4l.56.33c.56.14 1.2.33 1.7.6l-.05.02c.8.2 1.64.55 2.07.66-.01.07-.01.14.04.2v-.02c.08.1-.01.06.02.14h-.03c.08.1-.04.15-.02.2l-.06-.02-.03.1.03-.03c.16.08-.14.03-.06.15-.05.06.3.28.18.32.07.07-.12-.08-.08-.01-.1-.04-.05-.05-.12-.06.02.07-.12.04-.1.13l-.07-.03c.1.13-.15.1-.05.2.02.1-.23-.03-.13.1l-.1-.01c-.03.03.1.07.04.1-.06-.03-.07.03-.1-.02-.13.05.05.24-.15.3.1.07.01.1.1.16-.05-.02-.06.12-.14 0-.01-.01 0-.02.02-.01l-.06-.04c-.16.01.02.15-.03.2.03-.01.04-.04.07 0l-.03.06-.05-.04-.07.08.08.02c-.06.03-.18 0-.1.1.05.05.1 0 .12.05-.07.04-.18.1-.24.17.08.03.07.05.08.07l-.07-.03c.06.12-.16-.03-.12.08l.1.05c.1.13-.16-.02-.01.14 0-.04.16.05.1.08l-.06-.04c.01.03.03.05.01.06-.03-.03-.1-.05-.1-.01l-.07-.06.1.1c-.1.02-.03.13-.13.1 0 0-.1.08.01.15-.06-.05-.1 0-.17-.05.06.06.1.16 0 .16l-.01-.01c-.13.08.03.24-.1.3.08.03.02.06.12.1.06.15-.3.1.01.28 0 .06-.1.03-.12.04l-.01-.02c-.01.1-.02.13-.05.2.02.05.16.1.1.16-.05-.04-.05-.01-.06.01 0-.02-.02-.03-.07-.02.02.01.02.02.03.03 0 .04.02.04.03.02.01 0 .02.01.04.01-.1.01-.04.1-.14.07-.02.12.05.25.05.36-.06-.01-.1-.05-.1-.1l-.01.07c-.07-.03-.03-.06-.03-.08-.15.03.05.2-.1.26l.05.04h-.01c.03.01.06.05.07.07-.07-.01-.15-.06-.16-.02-.08.01-.01.12 0 .18.02-.02.05 0 .07.02-.01.02-.08.01-.06.04l-.1-.03c.1.03.06.1.1.12-.07-.01-.04-.06-.1-.08-.03.1-.02.05-.05.14.05.08.1.03.15.08 0 .05.04.12-.03.15l.08.02c.03.1 0 .15-.1.17.38.87.8.5.8.5.27-.17.1-.4.16-.7.14-.23.32-.24.37-.52.06-.12.08-.27.12-.4-.1-.1.06-.16-.01-.27h.08c-.02-.04-.04-.07.01-.08l.02.01c-.04-.06.01-.08-.01-.1l.02.01.01-.05.02.02c-.03-.08-.01-.15.04-.2l-.08-.03c.14-.08-.01-.2.14-.26l.02.01c-.16-.22.23-.15.1-.38.02.03.04.01.06.02 0-.07.02-.15-.14-.2.02-.05.07-.02.13 0-.07-.03-.08-.08-.07-.12l.02.03v-.1l-.14-.03c.06-.04.17.05.16-.01l-.1-.04c.05-.07.24-.04.35-.1.17-.3.04-.74.35-.95l.1.02c.12.04-.14-.15-.03-.12l-.04-.06c.03 0 .06-.01.08.02.02-.03 0-.04-.03-.08h.1c.1-.1.01-.26.1-.38.2-.1.2-.44.2-.64-.03-.13.05-.22.15-.3 1.37.4 2.74.87 3.94 1.33l-.06-.17c2.68 1.1 3.77 1.14 6.22 2.1l-.04.02c1.64.3 2.9.7 4.1 1.12 1.18.43 2.4.82 3.73 1.36-.13-.04.18.18.14.2.6.32.96.73 1.08 1l.22.52c-.4-.06-1.22-.06-2.63 0l.05-.04c-1.13.14-1.83.26-2.58.54-.15-.15-.92.15-1.2.15l.02-.02c-.66.26-1.42.15-2.06.4.02-.02.03-.07.18-.1-.47.1-1.12.27-1.17.18-1.14.24-2.74.5-3.44.8l.04-.04c-.4.18-.54.12-1 .26-.03-.01-.06-.01-.06-.02-.43.2-1.32.26-1.68.38l-.04-.06-.9.18.34-.05c-.08.2-.7.01-1.34.25-.62.1-1.17.6-1.83.64-.3.14.24-.2-.2-.04-.03-.1.2-.1.07-.15-.44.13-.75.04-1.3.2l-.04-.07c-.7.27-1.37.16-1.83.37-.73.2-.54-.12-1.28.16l-.32-.04c-.33.05-.2.17-.6.2.01-.07-.47.04-.27-.06-.85.06-1.65.45-2.78.5-.2.17-.78.2-.94.32-.04-.05-1.1.2-.5-.03.05-.02.15-.04.14-.01l.06-.1c-.65-.02-1.12.3-1.73.38.2-.01.43-.06.28.02l-.57.1.1-.08-.86.12.13.05c-.42.04-.6-.06-1.04.13-.2.1.4.03-.02.13-.57.05-1.42.13-2.13.24.08.07-.1.1-.3.16l-.04-.07c-.74.24-.3-.1-1.04.1l-.1.13c-.65.27-.4-.08-1.1.26.3-.07.17.14-.2.17l.08-.1c-.2.05-.26.1-.4.1.1-.06.04-.1-.25-.05l.18-.13-.54.24c-.45.01-1.12.23-1.32.16 0 0-.94.13-1.14.28.17-.1-.34-.03-.2-.14-.23.12-.93.32-1.23.3l.05-.02c-1.07.1-1.8.45-2.75.53.06.08-.45.12-.3.2-.96.3-1.83.1-2.12.52-.44.1-.54.02-.78.05l.1-.04a33.78 33.78 0 0 1-1.7.34c-.3.1-.32.26-.9.32.17-.1-.06-.04-.26 0 .13-.03.17-.07-.1-.06a.42.42 0 0 1-.15.07l-.01-.01c-.34.1-.28.1-.12.07-.01.01.01.02.06.03-.38-.01-1 .2-1.07.1-1.04.22-1.76.47-2.63.67-.1-.04.1-.12.33-.2l-.6.14c-.01-.08.35-.1.53-.16-.76.01-1.5.4-2.37.46l-.17.1h-.05c.01.03-.18.1-.3.15-.13-.05-.02-.16-.45-.08-.35 0-.95.2-1.38.33.24-.03.17.02.07.06-.2.04-.35 0-.5.06l-.04-.1c.1.07-.54.2-.6.25-.13-.05.32-.12.36-.18l-1.28.25c-.44.16.1.07-.1.2-.4.1-.78.23-1.25.26l.16.05c-.74.2-1.2.28-1.72.3-1.12.35-1.83.6-2.24.8l-.55-1.56c-.02-.2-.22-.63-.25-.62-.47-1.7-.87-3.4-1.1-5.1l-.48-3.7-1-6.67c-.16-.72.17-1.22.5-1.52.3-.3.56-.44.36-.5-.1-.03-.3-.04-.6.06a1.94 1.94 0 0 0-1.05.9 2.4 2.4 0 0 0-.27 1.06l.01 1.25.08 3.2-.06-.12c.25 2.92.42 4.7.94 6.73-.25.38.42 2.42.52 3.1l-.04-.06c.65 1.7.82 3.65 1.58 5.24-.04-.06-.13-.07-.26-.44.43 1.2 1.1 2.8 1 2.94.12.3.32.87.68 1.3a3.7 3.7 0 0 0 1.33 1.05c.52.24 1.1.36 1.7.34.65-.05.96-.16 1.4-.23 1.62-.33 3.1-.67 4.03-.98l-.12.07c1.04-.4 1.38-.3 2.57-.62.07.01.16 0 .14.02 1.13-.4 3.4-.7 4.34-.95l.08.1 2.32-.48-.87.15c.24-.36 1.8-.15 3.45-.67 1.6-.27 3.08-1.25 4.75-1.42.75-.3-.64.36.5.03.07.15-.53.2-.2.27 1.13-.3 1.9-.2 3.3-.58l.08.1c1.8-.58 3.52-.5 4.7-.97 1.9-.47 1.35.1 3.3-.5l.8.02c.85-.14.57-.32 1.53-.42-.04.12 1.2-.15.67.06 2.16-.25 4.28-1.07 7.14-1.34.57-.32 2-.47 2.43-.7.1.07 2.83-.53 1.3-.04-.13.04-.37.1-.36.05l-.17.16c1.65-.08 2.88-.7 4.47-.96-.48.05-1.1.18-.7.02l1.47-.27-.3.16 2.2-.37-.33-.07c1.1-.14 1.5 0 2.68-.42.53-.2-1.05.03.07-.23l5.46-.8c-.2-.1.3-.2.8-.32l.08.1.7-.2c.2-.08.36-.13.48-.18.24-.1.37-.13.5-.17.13-.03.25-.07.48-.22.2-.15.53-.4.88-.98.04-.18.1-.36.1-.54.2-.57.26-.94.3-1.2l.1-.6c.16-.12.2-.3.13-.62zm-2.27 2.2c-.1 0-.13.05-.5.37l.12.15c-.32.22-.66.3-.98.34-.4.04-.76.07-1.13.1-.74.04-1.47.07-2.37.17-7.37 1.34-15.18 3.36-22.1 4.35l-.33-.1c-.17-.18-1.83.68-2.13.53l-.78.25c-.23.01-.7.06-.32-.07-.74.13-.75.17-1.27.34l-.82.02c-2.92.46-5.34 1.2-8.4 1.73-3.72.44-10.6 2.03-14.54 2.94-1.38.35-2.84.64-4.33.9l-2.26.37-1.14.18c-.35.05-.84.14-1.04.14-.52.01-1.02-.23-1.32-.6-.17-.2-.24-.35-.35-.67l-.38-1.08-.78-2.18c.5-.02 1.07-.1 1.07-.1 2.25-.23 3.35-.7 5.98-1.25 2.33-.4 2.97-.35 5.36-.86 1.15-.2 2.37-.47 3.48-.7.5-.22 1.47-.28 2.08-.5h.26c.2-.08.46-.15.7-.15l-.01.02c.3-.1.7-.15.84-.2l-.01.02.4-.08-.06.04a11.9 11.9 0 0 1 1.65-.35l-.06-.08c1.12-.1 1.48-.36 2.5-.43h-.01c1.2-.46 2-.22 3.26-.67-.16.06.08.03.07.05.6-.14 1.22-.27 1.2-.44.43-.08.36-.01.43.04-.02-.07.35-.17.7-.24l-.15.06.96-.2-.22-.1c.52-.06.16.15.65.02l-.03-.1c.7-.1 1.16-.01 1.87-.06 2.87-.5 5.88-1.36 8.58-1.65l.13.06c.07.12.7-.32.82-.23l.3-.12c.1.01.28 0 .13.05.3-.05.3-.07.5-.15l.32.02c1.14-.15 2.07-.48 3.27-.67 1.46-.1 4.1-.76 5.65-1.13 2.14-.6 4.76-.57 6.95-1.2.08 0 .26-.07.25-.1l2.04-.36s4.1-.75 4.96-1.18c.05.07.1.1.14.1.26 1.1.13.92.06 1.1.06-.02.16.2.28.56l.2.6.1.3c.02.04.02.12.04.2-.04-.12-.05-.16-.1-.24.16.5.08 1.27-.28 1.8.13-.07.27-.14.4-.24-.25.54-.38.52-.46.54z"/><path d="M361.72 421.5c-.01.02-.02.03-.03.04-.02.07-.02.14-.04.2l.07-.25zm-38.52.3h0l.06-.06zm1.44-15.3h0l-.04-.04zm13.2 4h0l-.05-.03zM211.5 210.1l2.85 7.8 3.68 8.46c2.72 6.2 3.34 7.9 6.58 14.13 1.52 2.98 3.27 6.1 4.92 8.93.86 1.3 2.2 3.7 3.2 5.22l.3.65c.35.53.78 1.14 1.08 1.7l-.04-.02c.55.77 1.08 1.7 1.36 2.08l-.04-.02.62.97-.13-.15 2.64 4.06.01-.15c1.64 2.75 2.46 3.6 3.95 6.08l-.04-.02c2.22 2.9 3.08 4.88 5.36 7.87-.3-.37.08.2.04.17 1 1.42 2.04 2.94 2.2 2.87.7 1.05.53.88.57 1.05.06-.05.7.84 1.25 1.65l-.28-.36 1.6 2.32-.2-.54c.8 1.27.07.4.9 1.58l.1-.08c1.13 1.73 1.67 2.83 2.68 4.56 4.52 6.97 9.52 14.4 12.8 21.4l.07.35c-.05.2 1.1 1.83 1.1 2.15l.44.78c.1.24.3.73.08.34.35.75.35.77.63 1.3l.27.85a55.94 55.94 0 0 0 .92 2.2c.3.7.54 1.43.82 2.14l.82 2.18c.23.76.46 1.52.66 2.37.9 4.05 2.83 11.62 3.94 16 1.63 6.12 2.78 13.4 4.44 19.7a5.06 5.06 0 0 0 .2.73l1.3 5.8s6.3 28.07 2.52 6.52l.06.14c-.65-3.18-1.1-5.18-1.73-7.33.1-.38-.57-2.6-.7-3.36l.03.07c-.57-1.9-.8-4-1.34-5.84.03.07.1.1.2.53-.33-1.35-.8-3.2-.72-3.32-.77-3.23-1.77-7.76-2.4-9.8l.06.14c-.38-1.16-.37-1.53-.73-2.84 0-.08-.02-.17-.01-.16-.4-1.26-.9-3.75-1.2-4.78l.05-.08-.62-2.56.2.96c-.26-.3-.35-1.96-.9-3.8-.4-1.74-1.23-3.43-1.6-5.26-.3-.84.33.72-.06-.54.08-.07.2.58.2.23-.37-1.25-.42-2.1-.94-3.63l.05-.1c-.85-1.93-1.2-3.8-1.88-5.02-.9-1.97-.36-1.42-1.38-3.44l-.3-.83c-.4-.88-.4-.57-.83-1.55.1.03-.54-1.24-.22-.7-.46-1.12-1.08-2.2-1.73-3.35s-1.3-2.4-2.05-3.82c-.45-.54-1.18-1.97-1.52-2.37.02-.1-1.65-2.75-.6-1.28.1.13.23.36.2.36l.17.15c-.82-1.62-1.78-2.78-2.7-4.33.26.47.63 1.07.34.7-.28-.48-.58-.95-.87-1.42l.24.26-1.3-2.12.12.33c-.62-1.05-.73-1.48-1.57-2.57-.4-.5.54 1.02-.18-.04l-3.24-5.2c.04.2-.27-.26-.6-.72l.03-.1c-1.3-1.77-.3-.76-1.6-2.53l-.3-.26c-1.22-1.55-.47-.97-1.86-2.67.5.7.1.43-.48-.47l.2.18c-.34-.48-.48-.63-.68-.96.23.27.2.1-.3-.62l.4.43-1.03-1.28c-.64-1.1-1.85-2.7-2.05-3.18 0 0-1.48-2.28-1.92-2.73.36.4-.45-.84-.15-.53-.46-.54-1.67-2.23-2.06-2.97l.1.13c-1.62-2.62-3-4.3-4.4-6.7 0 .15-.76-1.1-.65-.73-1.66-2.33-2.6-4.52-3.44-5.2-.7-1.1-.75-1.35-1.1-1.93l.18.25-2.56-4.23c-.5-.76-.7-.8-1.47-2.22.3.42-.02-.15-.32-.67.2.33.28.42-.08-.3-.07-.1-.17-.23-.26-.37 0-.01-.01-.04 0-.03-.52-.87-.45-.7-.22-.3-.02-.02-.01.02.04.16-.45-.95-1.44-2.54-1.4-2.7l-2-3.53-1.76-3.22c-.08-.28.23.23.6.87l-.84-1.58c.08-.02.5.9.78 1.38-.87-1.95-2.08-3.88-3.06-6.18l-.28-.44-.05-.14c-.03.02-.3-.47-.47-.8-.1-.35.16-.05-.37-1.17-.36-.9-1.17-2.52-1.73-3.68.27.64.14.45 0 .2-.25-.57-.34-.92-.55-1.35l.06-.1c.01.26-.72-1.45-.85-1.65-.07-.35.43.86.54.98l-1.46-3.43c-.57-1.2.01.26-.3-.3-.46-1.07-.95-2.1-1.38-3.38l.08.43a44.93 44.93 0 0 1-1.75-4.68c-2.74-5.54-2.98-6.46-2.83-5.26.23 1.16.82 2.27.82 2.27zm42.63 74.6h0l.15.14zM64.1 371.85c-.01-.02-.01-.03-.02-.04-.05-.05-.1-.1-.16-.14l.18.18zm31.16-25.1h0l.05-.02z"/><path d="M234.67 302.14c-1.03 2.2-1.52 2.87-2 3.56l-.8 1.23-1.43 2.3-1.3 1.44c-1.4 1.57-.8 1.3-2.55 2.9.04-.16-2.32 1.83-1.33.88-2.1 1.58-4.42 2.94-7.14 4-2.7 1.03-5.87 1.8-9.4 2.57-1.47.58-5.03 1.34-6.14 1.77-.2-.04-7.1 1.7-3.17.56.34-.1.94-.24.9-.2l.45-.23c-4.06.75-7.26 1.9-11.24 2.8 1.2-.24 2.75-.62 1.72-.3l-3.7.86.74-.28-5.5 1.24.8-.05c-2.7.57-3.7.6-6.7 1.47-1.35.42 2.6-.43-.24.27L163 331.86c.46.04-.78.32-2.04.65l-.18-.1c-4.84 1.3-1.85.15-6.66 1.4l-.8.37c-4.32 1.25-2.42.3-7.2 1.74 1.92-.46.97.06-1.4.55l.57-.26c-1.3.33-1.73.48-2.6.65.76-.24.37-.27-1.55.2l1.26-.44-3.6 1.05c-2.84.52-7.26 1.7-8.43 1.8l-.26.06c-.06.01-.23.06-.25.05a.53.53 0 0 1-.18 0c-.27-.01-.62-.2-.7-.54-.4-1.57-.9-3.5-1.16-4.14.42 1.18-.37-2.14-.01-1.23-.52-1.53-1.78-6.1-2.1-8l.1.35c-1.57-6.86-3.1-11.62-4.48-17.78-.07-.02-.17-.1-.05-.3.06-.1.16-.17.25-.23.17-.1.2-.14 0-.1 5.95-2.67 11.12-4.22 13.07-5.65 2.73-1.17 3.3-1.23 4.72-1.8l-.64.3 10.4-4.38c1.88-.84 2.08-1.2 5.5-2.57-1.06.56.32-.04 1.6-.57-.8.35-1.05.5.65-.14.22-.13.58-.3.9-.46.02 0 .1-.02.06 0 2.1-.92 1.73-.8.74-.4.04-.04-.05-.02-.36.08 2.26-.8 6.15-2.57 6.5-2.52l16.18-7.06c.63-.16-.58.43-2.1 1.1l3.8-1.65c.02.08-.53.34-1.23.65l-2.1.88c1.14-.42 2.3-.86 3.48-1.43 1.17-.57 2.4-1.3 3.33-2.46.95-1.14 1.45-2.6 1.72-3.97.28-1.4.42-2.8.6-4.23v-1.2l.05-.34c-.06.01-.03-1.27.03-2.12.18-.8.28.08.47-2.74.27-2.22.4-6.35.54-9.27-.13 1.57-.16 1.06-.15.38.1-1.4.27-2.2.3-3.3l.13-.1c-.1-.2.14-3.77.1-4.25.17-.8-.06 2.2.01 2.56l.58-8.5c.1-3.03-.2.54-.22-.92.16-2.67.23-5.27.55-8.33l-.2.96c.25-5 .48-8 .86-11.37l.48-15.8h-.7c-.38 3.25-.78 7.87-.78 7.87-1.35 14.65-1.5 22.24-2.62 39.7l-1.5 17.42c-.13 1.2-.3 2.4-.58 3.53-.3 1.13-.7 2.14-1.53 2.92-.82.8-2.05 1.47-3.52 2.1l-5.03 2.13-21.37 8.98c-3.18 1.55-9.02 3.76-12.8 5.53l-1.54.5c-1.3.6-2.85 1.3-4.2 1.8l.07-.07c-1.95.9-4.2 1.8-5.18 2.25l.07-.07-2.4 1.02.4-.22a212.93 212.93 0 0 1-5.18 2.24l-2.54 1.06c-.15.06-.55.22-.83.45-.3.22-.55.5-.73.86-.18.34-.3.74-.28 1.14a2.54 2.54 0 0 0 .07.57l.08.33.07-.3.43 1.85-4.3 1.32c-.2 0 .18-.16.67-.3l-1.2.34c-.01-.08.68-.23 1.05-.35-1.48.26-2.94.92-4.66 1.26l-.33.16-.1.02c.01.03-.35.18-.6.25h-.01l-.12.47c-.03-.07-.06-.14-.1-.22-.17-.27-.44-.54-.8-.76l-1.1-.6-2.82-1.48h.14c-2.68-1.2-4.32-1.93-6.34-2.45-.2-.4-2.32-.8-2.97-1.06h.07c-1.8-.26-3.6-1.06-5.34-1.17.07-.01.12-.08.52-.02-1.25-.2-2.98-.4-3.04-.57-.3-.04-.9-.15-1.46-.04-.56.1-1.1.3-1.57.65s-.86.8-1.12 1.3c-.28.6-.33.92-.47 1.33-.5 1.58-.93 3.04-1.1 4v-.14c-.17 1.1-.42 1.35-.7 2.54-.04.06-.08.14-.08.12-.2 1.2-1.06 3.3-1.28 4.25l-.13.02-.7 2.26.3-.83c.2.4-.74 1.64-1.1 3.34-.54 1.52-.4 3.3-1.07 4.84-.1.8 0-.74-.27.43-.16-.01.08-.56-.14-.3-.3 1.13-.75 1.77-1.1 3.18l-.14.02c-.37 1.86-1.26 3.32-1.45 4.58-.5 1.88-.76 1.12-1.15 3.12l-.4.7c-.3.8 0 .65-.37 1.54-.08-.1-.46 1.13-.38.56-.83 2-1.15 4.26-2.3 6.9 0 .65-.56 1.98-.56 2.47-.1.05-.9 2.73-.6 1.14.03-.14.1-.37.14-.34l-.06-.22c-.73 1.48-.8 2.85-1.34 4.37.2-.44.38-1.05.32-.62l-.48 1.42v-.33l-.75 2.1.22-.25c-.4 1.02-.73 1.32-.94 2.54-.08.56.5-.93.16.18-.54 1.36-1.34 3.4-1.96 5.16.2-.12.03.35-.1.85l-.14.02-.16.7c-.03.2-.06.37-.07.5-.03.26-.07.38-.1.5-.03.13-.06.26-.04.52.03.26.1.67.43 1.24.14.13.27.26.42.36.4.45.7.68.9.85l.48.4c.15.1.3.22.6.32.47.16.66.1 1.15.16-.72-.14-.3-.36.6-.07l-.26.06c.5.1.7.1 1.02.23-.32-.02-.2.12.55.3h-.55l.75.1c.26.03.47.06.88.08.85.18 1.8-.16 2.44-.53.67-.36 1.14-.74 1.4-.83 0 0 .53-.4 1.06-.87s1.06-1.04 1.2-1.3c-.27.43.73-.5.55-.13.37-.55 1.6-1.95 2.22-2.36l-.1.1c2.06-1.8 3.3-3.37 5.25-4.9-.18-.03.85-.85.48-.77 1.8-1.85 3.76-2.8 4.08-3.85.86-.8 1.14-.8 1.6-1.18l-.2.2c1.63-1.47 2.1-1.88 3.36-2.93.58-.57.5-.85 1.66-1.75-.3.38.15-.01.57-.37-.26.24-.3.34.28-.07a2.25 2.25 0 0 1 .26-.31c.01 0 .04-.01.03.01.67-.6.53-.54.2-.28.01-.03-.03-.02-.15.04.8-.5 2-1.7 2.2-1.63l.73-.63c.06-.04.1-.12.16-.12l.28-.05.88-.13c.3-.05.54-.06.93-.17.7-.2 1.33-.77 1.57-1.43a2.43 2.43 0 0 0 .14-.49l.07-.4.15-.83c.15-.23.1.3.01.96l.3-1.6c.13.04-.12.92-.2 1.42.32-.95.48-1.97.66-3.03.76-.17 1.45-.3 2-.53 1.44-.44 1.03-.04 2.5-.6l.62-.06c.65-.16.43-.24 1.16-.4-.03.07.92-.2.52-.02 1.65-.33 3.27-1 5.45-1.42.43-.24 1.53-.46 1.86-.64.07.04 2.16-.56.98-.13-.1.04-.3.08-.28.06l-.13.1c.8-.12 1.48-.36 2.18-.6l-.16-1.22-9.47 2.5-.25-.02c-.13-.1-1.4.57-1.62.5l-.6.22c-.18.02-.54.1-.25-.01-.56.14-.57.17-.97.3l-.62.08a53.61 53.61 0 0 0-2.73.73 16.06 16.06 0 0 1 .47-1.94v-.48l.05-.13c-.06-.01-.02-.52.03-.85.18-.3.26.08.5-1 .3-.84.48-2.46.67-3.6-.15.6-.17.4-.16.12.12-.55.3-.83.34-1.27l.17-.02c-.2.18.16-1.46.14-1.68.18-.28-.1.87-.03 1.02l.7-3.28c.14-1.2-.2.18-.2-.4.2-1.04.3-2.07.66-3.23l-.22.34c.32-1.96.6-3.1 1-4.4 2.06-14.66-.85-3.37-.85-3.37-1.55 5.6-1.8 8.62-3.17 15.4l-1.66 6.7-.73 3-.4 1.78-.3 1.5c-.01.05-.04.12-.06.17a.53.53 0 0 1-.23.18c-.08.02-.1.03-.23.05l-.66.15-1.33.14-.28.03c-.05.01-.1.01-.14.02l-.1.1-.43.36-.48.4c-.34.3-.7.6-1.03.88-.08-.1-.15-.24-.3-.25h.03c-.12.01-.05-.06-.13-.08.01-.01.01-.02.02-.02-.12 0-.1-.15-.18-.17l.06-.04-.08-.1.01.05c-.17.08.05-.14-.1-.16-.02-.1-.42.05-.4-.07-.1.01.14-.04.05-.06.08-.05.07-.01.12-.06-.07-.03.03-.14-.06-.17l.06-.04c-.17-.02-.01-.2-.16-.2-.1-.06.15-.17-.03-.2l.06-.1c-.01-.05-.12.04-.1-.03.06-.03.01-.08.08-.1.03-.15-.24-.13-.18-.34-.12.04-.1-.07-.2-.04.04-.03-.07-.14.07-.12.01 0 .02.01 0 .02l.07-.03c.07-.15-.15-.1-.17-.18-.01.03.02.06-.04.07l-.03-.07.06-.02-.03-.12-.06.05c0-.07.1-.15-.02-.15-.07.01-.06.1-.1.06 0-.1.01-.23-.02-.33-.07.05-.08.03-.1.01l.06-.04c-.14-.04.12-.12 0-.16l-.1.04c-.18 0 .1-.12-.12-.1.03.03-.13.1-.13.04l.07-.03c-.03-.02-.06-.01-.06-.03.04-.01.1-.05.06-.08l.1-.02h-.15c.04-.1-.1-.12-.02-.2 0 0-.02-.14-.14-.1.07-.01.06-.1.14-.1-.08.01-.2-.04-.14-.12h.01c0-.17-.23-.16-.2-.32-.07.05-.07-.03-.15.04-.16-.06.06-.33-.25-.2-.05-.04.03-.1.03-.14h.02c-.08-.1-.1-.1-.14-.2-.05-.02-.2.06-.2-.03.07-.01.04-.03.03-.06.02.01.04 0 .06-.05-.02.01-.03 0-.05 0h0c-.04-.03-.06-.01-.05.01-.01 0-.02.01-.03.03.04-.1-.08-.12.01-.18-.1-.1-.25-.14-.34-.22.04-.04.1-.04.13-.02l-.06-.06c.07-.04.07.02.1.03.06-.15-.22-.1-.18-.28h-.06c-.03.02-.08.02-.1.01.05-.05.14-.08.1-.13.03-.08-.1-.1-.16-.13.01.03-.03.05-.06.05-.02-.02.03-.07 0-.08l.08-.05c-.07.06-.12-.02-.16-.01.05-.05.08.01.12-.01-.07-.1-.03-.05-.1-.15-.1-.02-.07.06-.16.07-.04-.04-.13-.05-.1-.14l-.06.06c-.1-.06-.13-.12-.1-.22-1-.32-.88.34-.88.34 0 .36.3.37.54.65.13.3.04.46.27.7.07.14.2.27.3.4.15 0 .1.17.24.2l-.04.07c.05.01.1.02.07.07h-.02c.07.01.07.07.1.08h-.02l.04.04-.03.01c.1.04.14.1.15.18l.07-.05c0 .18.18.14.15.3l-.02.01c.3.03.01.32.3.36-.03-.01-.03.03-.05.04.06.06.12.13.27.04.03.05-.02.07-.07.1.06-.04.12-.01.15.03h-.04l.1.1.1-.1c0 .08-.14.1-.07.15l.1-.06c.03.1-.1.24-.12.36.16.37.64.58.65 1l-.07.06c-.1.07.22-.01.12.06l.07.01c-.01.02-.02.06-.06.05.02.04.03.03.08.03l-.05.08c.03.17.23.2.3.36-.04.25.28.5.47.64.26.13.16.5.28.73l-1.5 1.28c-.55.62-1.46 1.38-2.36 2.14-.02-.01-.04-.02-.07-.01l.03-.01c-.12.02-.06-.05-.14-.07.01-.01.01-.02.02-.02-.12.01-.12-.14-.2-.15l.05-.04-.1-.1.02.05c-.16.1.04-.14-.1-.15-.03-.08-.4.1-.4-.04-.1.02.13-.05.04-.06.08-.06.07-.01.12-.07-.07-.02.02-.14-.08-.16l.06-.05c-.17 0-.03-.2-.18-.2-.1-.05.14-.2-.04-.2l.06-.1c-.01-.05-.12.05-.1-.02.05-.04 0-.08.07-.1.01-.15-.25-.1-.2-.33-.12.05-.1-.06-.2-.02.04-.04-.08-.13.06-.13.01 0 .02.01 0 .02l.06-.04c.06-.15-.15-.08-.2-.16 0 .03.02.06-.03.07l-.04-.07.06-.02-.04-.12-.05.06c0-.07.1-.16-.04-.15-.07.01-.05.1-.1.07 0-.1-.01-.23-.05-.33-.06.06-.08.04-.1.02l.06-.05c-.15-.02.1-.13-.02-.16h.05l-.14.07c-.17.01.1-.13-.13-.1.03.03-.12.1-.12.05l.07-.03c-.03-.01-.06 0-.06-.03.04-.01.1-.06.06-.08l.1-.03h-.15c.03-.1-.1-.1-.04-.2 0 0-.04-.13-.14-.1.07-.02.05-.1.13-.12-.08.02-.2-.02-.15-.1H90c-.02-.17-.24-.13-.24-.3-.07.06-.07-.03-.15.05-.17-.04.03-.33-.27-.17-.05-.04.02-.1.02-.14h.02c-.1-.08-.1-.1-.16-.18-.05-.01-.18.07-.2-.01.07-.02.04-.04.02-.06.02.01.04 0 .05-.06-.02.01-.03.01-.05.01l.01-.01c-.05-.03-.06-.01-.05.02-.01 0-.02.01-.03.03.04-.1-.1-.1 0-.18-.1-.1-.26-.12-.36-.2.04-.04.1-.05.13-.04l-.07-.06c.07-.05.07.01.1.02.04-.16-.23-.1-.2-.26l-.07.02c-.03.02-.08.03-.1.02.05-.06.13-.1.1-.14.03-.08-.1-.1-.17-.1.01.03-.03.05-.06.05-.02-.02.03-.08-.01-.08l.07-.06c-.06.06-.12-.01-.16.01.05-.06.08 0 .12-.02-.08-.1-.04-.05-.12-.14-.1-.01-.07.06-.15.1-.05-.03-.13-.04-.13-.12l-.06.07c-.1-.05-.14-.1-.12-.2-1-.22-.85.42-.85.42.03.36.32.34.6.6.16.28.08.45.33.68.08.14.2.25.32.36.15-.02.12.16.26.17l-.04.07c.05 0 .1.02.07.06l-.02.01c.07 0 .07.06.1.07h-.02l.04.04-.03.01a.27.27 0 0 1 .17.16l.07-.06c.01.18.2.12.18.3l-.02.01c.3 0 .04.3.32.33-.04 0-.03.03-.05.05.07.05.13.1.27.01.03.05-.01.07-.06.12.06-.04.12-.02.15.01h-.04l.1.1.1-.1c.01.08-.13.12-.06.15l.1-.07c.04.1-.07.24-.08.37.2.35.7.5.74.93l-.06.07c-.1.08.2-.03.13.05h.07c-.01.02-.02.06-.05.06.02.03.04.02.1.02l-.04.08c.04.16.25.18.32.33-.01.26.33.47.53.6.12.04.16.15.2.27a17.87 17.87 0 0 0-.97.92l-.56.33c-.4.42-.87.9-1.35 1.2v-.05c-.56.6-1.28 1.17-1.6 1.5-.05-.04-.1-.08-.2-.06h.03c-.12.03-.05-.04-.13-.05.01-.01.01-.02.02-.02-.12.02-.1-.1-.17-.12l.05-.04-.08-.07v.04c-.15.1.04-.13-.1-.12-.03-.07-.4.12-.37.01-.1.03.13-.06.04-.06.07-.06.06-.02.1-.08-.07-.01.02-.13-.07-.14l.06-.05c-.16.02-.02-.2-.16-.15-.1-.03.14-.18-.03-.16l.06-.1c-.01-.04-.1.05-.1-.01.05-.04.01-.07.07-.1.02-.14-.23-.07-.18-.27-.1.05-.1-.04-.18 0 .04-.04-.07-.1.06-.12.01 0 .02.01 0 .02l.06-.04c.06-.14-.14-.06-.17-.13-.01.03.02.05-.03.07l-.03-.06.06-.03-.03-.1-.05.06c0-.06.1-.16-.03-.13-.06.02-.05.1-.1.07 0-.08 0-.2-.03-.3-.06.06-.07.04-.1.03l.06-.05c-.14-.01.1-.13-.01-.14l.05-.03-.14.08c-.17.03.1-.13-.12-.07.03.02-.12.1-.12.06l.06-.04c-.03-.01-.06 0-.05-.02.04-.01.1-.06.06-.08l.1-.04-.13.04c.03-.1-.1-.1-.03-.17 0 0-.03-.12-.13-.07.07-.03.05-.1.13-.13-.08.03-.18 0-.14-.08h.01c-.01-.15-.22-.1-.2-.25-.06.06-.06-.02-.14.06-.16-.02.05-.3-.25-.12-.05-.03.02-.1.02-.13h.02a.46.46 0 0 1-.14-.14c-.05-.01-.18.1-.2.01.06-.02.04-.04.02-.06.02.01.04 0 .05-.06-.02.01-.03.01-.04.01H84c-.04-.02-.05 0-.05.02-.01.01-.02.01-.03.03.04-.08-.08-.1 0-.16-.1-.08-.24-.08-.33-.13.04-.04.1-.06.13-.05l-.06-.04c.06-.05.06 0 .1.01.05-.15-.2-.06-.18-.2l-.06.02v-.01a.23.23 0 0 1-.09.03c.05-.05.13-.1.1-.14.03-.07-.1-.07-.16-.08.01.03-.03.05-.05.05-.02-.02.03-.07-.01-.07l.07-.06c-.06.06-.12.01-.15.03.05-.05.07-.01.12-.03-.07-.07-.03-.04-.1-.1-.1 0-.06.06-.14.1-.04-.03-.12-.02-.1-.1l-.06.07c-.1-.03-.13-.08-.1-.18-.94-.1-.82.47-.82.47.02.32.3.27.53.47.14.24.05.4.28.58.07.1.2.2.3.3.14-.03.1.13.24.13l-.04.07c.04 0 .08.01.07.05v.01c.07 0 .07.05.1.05h-.02l.04.03h-.03c.1.02.13.07.15.13l.07-.06c0 .16.17.1.16.25v.01c.27-.03.02.28.3.26-.03 0-.03.03-.05.05.06.04.12.1.25-.02.03.04-.02.07-.06.1.06-.05.1-.03.14 0h-.03l.1.07.1-.1c.01.07-.13.12-.06.14l.1-.07c.03.08-.08.23-.1.34.17.3.63.4.66.76l-.06.07c-.1.08.2-.05.12.03h.07c-.01.02-.02.05-.05.06.02.03.03.02.08.01l-.04.08c.03.14.22.13.3.26-.02.23.3.4.47.47.13.03.16.15.18.28-1 1-2.1 1.97-3.08 2.8l.18.03c-2.25 1.8-2.83 2.74-4.85 4.4v-.05c-1.07 1.28-2.02 2.2-2.98 3.04-.95.82-1.88 1.7-3 2.6.1-.1-.25.07-.24.03-.57.36-1.1.48-1.4.46-.2-.02-.4-.05-.56-.06.24-.32.65-1.03 1.28-2.3l.01.06c.42-1.05.67-1.73.78-2.5.2-.06.3-.88.45-1.1l.01.03c.1-.7.56-1.32.66-2 0 .03.05.06 0 .2.13-.47.3-1.1.42-1.1.34-1.1.9-2.63 1-3.4l.01.06c.03-.44.16-.53.26-1 .02-.02.04-.05.04-.04.05-.47.4-1.28.5-1.65h.07l.28-.88-.12.32c-.14-.17.33-.62.43-1.3.22-.58.04-1.32.33-1.9.02-.32.05.3.13-.16.1.02-.01.22.1.14.1-.44.33-.67.45-1.23h.08c.1-.74.53-1.28.56-1.78.18-.73.37-.4.48-1.2l.2-.26c.12-.3-.04-.27.12-.6.05.04.2-.43.2-.2.36-.77.4-1.67.92-2.66-.04-.27.2-.77.18-.97.06-.01.36-1.06.28-.43-.01.05-.04.14-.06.13l.05.1c.33-.56.3-1.1.5-1.7-.08.17-.15.4-.15.23l.2-.55.02.13.3-.8-.1.1c.17-.4.34-.5.4-.98.01-.22-.22.35-.1-.08a35.72 35.72 0 0 0 .82-1.98c-.1.04-.04-.15.01-.34h.08c.15-.76.25-.2.4-.96l-.06-.16c.08-.7.26-.3.32-1.1-.08.3-.2.08-.05-.26l.04.1c.05-.2.04-.27.1-.4 0 .13.08.1.16-.2l.02.22.06-.58c.2-.4.34-1.1.5-1.23 0 0 .35-.88.3-1.13.01.2.2-.3.23-.12 0-.26.17-.97.35-1.22v.06c.42-1 .47-1.78.88-2.66-.1.01.1-.45-.03-.37.2-.98.8-1.66.58-2.1.13-.44.25-.5.34-.7v.1a25.63 25.63 0 0 1 .53-1.65c.07-.3-.07-.4.15-.93 0 .2.06-.03.13-.23-.03.13-.02.18.1-.07-.01-.04 0-.1.01-.16.1-.34.07-.3.01-.14-.01-.01-.02 0-.06.04.2-.32.32-.97.44-.98.3-1.02.45-1.77.7-2.62.08-.08.07.14.01.4l.18-.6c.07.03-.07.36-.12.54.36-.67.37-1.5.76-2.3v-.2l.03-.05c-.03-.01-.01-.2.02-.34.1-.1.15.06.28-.35.17-.3.28-.93.38-1.37-.1.23-.1.14-.1.03.07-.2.17-.3.2-.47l.1.01c-.1.05.1-.57.08-.66.1-.1-.05.34-.02.4l.4-1.24c.08-.46-.1.05-.12-.2.1-.4.18-.8.38-1.22l-.13.1c.18-.75.34-1.18.58-1.65.24-1.15.36-1.9.4-2.34l1.63.27c.18.07.66.1.66.1 1.7.4 3.4.9 5 1.5l3.46 1.38 6.3 2.4c.7.2.98.74 1.1 1.17.1.4.1.7.27.56.07-.07.18-.23.23-.54.02-.15.04-.34.01-.56 2.1-.5 3.7-.88 6.87-1.77l2.84-.77c1.2 4.93 2.06 7.57 3.24 12.97l-.06-.08c1.2 3.98 1.93 7.18 2.67 10.4l.56 2.44.3 1.25.15.64c.06.3.2.66.4.95a2.99 2.99 0 0 0 1.7 1.22c.35.1.7.1 1.07.07l.28-.05.17-.04.35-.1 2.97-.77c-1.03.28.46-.03.4.02 3.84-.92 7.94-1.9 7.94-2.18 2.8-.64 2.3-.44 2.7-.42-.04-.12 2.38-.73 4.56-1.24l-1 .28 6.26-1.5-1.28.06c3.34-.7.9.08 4.08-.7l-.08-.18c4.6-1.03 7.37-1.37 11.85-2.26l28.2-6.8 13.9-3.5 3.4-.9c1.12-.28 2.25-.63 3.36-1 2.2-.78 4.35-1.7 6.3-2.92.26-.1.5-.2.75-.33.2-.03 1.23-.78 2.15-1.73.5-.44.93-.93 1.3-1.34.37-.4.68-.68.83-.8.44-.56.9-1.1 1.3-1.67.4-.45 1.2-1.42.58-.55.6-.77.86-1.2 1.1-1.56.23-.37.42-.67.75-1.3.4-.57.8-1.13 1.17-1.72.97-1.65 1.77-3.3 2.54-4.9l1.14-2.5-1.03-1.95c-.93 1.85-1.77 3.5-2.37 4.96zM90.7 309.02c-.9 2.08-1.03 3.26-1.82 5.83-.8 2.22-1.14 2.77-1.86 5.1-.38 1.1-.74 2.3-1.1 3.38-.05.55-.47 1.42-.58 2.06l-.15.2a2.59 2.59 0 0 1-.2.67v-.02c-.05.33-.2.67-.23.84l-.02-.02-.12.38-.01-.07a11.7 11.7 0 0 1-.5 1.61h.1c-.45 1.03-.4 1.47-.83 2.4l-.02-.02c-.2 1.28-.8 1.86-1 3.17.03-.16-.06.05-.08.03-.17.58-.36 1.2-.2 1.26-.14.42-.16.32-.25.36.07.02-.02.4-.12.72l.02-.16-.3.94.2-.14c-.2.48-.2.07-.33.56l.1.03c-.25.68-.55 1.02-.86 1.66-.97 2.74-1.68 5.8-2.73 8.3l-.12.1c-.14.01-.06.77-.2.83l-.04.32c-.05.08-.13.25-.1.1-.1.27-.08.3-.1.5l-.17.27c-.42 1.07-.6 2.04-1 3.18-.62 1.32-1.34 3.96-1.76 5.48-.52 2.16-1.82 4.44-2.33 6.66-.04.06-.06.26-.05.26l-.68 1.96s-1.34 3.95-1.38 4.9c-.08.01-.15.03-.16.07-1.1-.3-.87-.34-.98-.48-.01.06-.26.04-.63-.02l-.62-.1-.32-.06c-.04 0-.1-.04-.2-.06.12.02.17.04.26.03-.52-.1-1.14-.55-1.43-1.1a2.36 2.36 0 0 0 .01.46c-.3-.5-.2-.6-.2-.67.04-.08.02-.13-.08-.6l-.2.03a2.17 2.17 0 0 1 .17-1.02l.47-1.03c.32-.67.65-1.32 1-2.15 2.4-7.1 4.45-14.9 6.95-21.4l.24-.25c.25-.06.3-1.93.57-2.12l.16-.8c.1-.2.3-.65.22-.25.24-.7.2-.74.32-1.27l.38-.72c1.02-2.78 1.56-5.25 2.58-8.2 1.42-3.47 3.38-10.23 4.5-14.13a58.13 58.13 0 0 1 1.32-4.22l1.18-3.26c.13-.33.28-.8.4-.97a1.77 1.77 0 0 1 1.16-.87c.25-.05.43-.04.75.02l1.13.2 2.28.38c-.2.43-.4.97-.4.97zm192.8-57l.02-.04c-.01-.02-.02-.02-.02.04z"/><path d="M270.14 214.6l1.6 4.36c-.14.01-.98-2.48-1.5-3.82 1.68 5.27 4.08 10.65 6.1 16.82l.55 1.23.1.37c.05-.04.6 1.3.95 2.2.2.9-.28.03.82 3.05.75 2.43 2.48 6.78 3.65 9.9-.58-1.7-.33-1.17-.03-.46.54 1.5.74 2.42 1.2 3.57l-.08.15c.18.17 1.55 4 1.8 4.48.2.9-.92-2.32-1.14-2.67l3.23 9.1c1.25 3.2-.07-.64.6.87 1.03 2.85 2.1 5.6 3.16 8.93l-.23-1.1c1.97 5.35 3.06 8.58 4.15 12.26 7.4 19.9 7.6 22.27 7.28 19.16-.46-3.16-2.98-11.16-2.98-11.16-2.46-8-4.55-14-6.83-20.34l-8.14-22.4-13.4-37.97-1.5-4.1h-2.12l3.83 10c.2.74-.4-.67-1.1-2.44z"/></svg>