<svg xmlns="http://www.w3.org/2000/svg" viewBox="0 0 480 480" xmlns:v="https://vecta.io/nano"><path d="M329.9 428.47l.13-.03c-.06.01-.1.02-.13.03zm-7.18.6l.1-.03h-.02zm28.88-6.66c-.37-2.45-1.22-6.32-3-9.04-2.37-3.35-27.2-9.68-34.26-11.5-1.06-.2-2.2.16-2.77 1.15l-.4.6-2.5-11.7c.82-.54 1.27-1.57 1.03-2.66l-1.67-7.1c4.6-1.4 9.17-6.4 9.57-16.5.6-9.9-5.8-36.1-9.9-51.2s-16-46.7-24.3-64.1c-4.6-9.73-11.05-26.14-15.84-38.73l.72-4.58h-74.53c-1.5 9.3-3.32 25.1-6.55 38.6-3.98 23.5-6.07 27.05-10.13 32.64-5.5 5-22.1 11.07-36.8 13.87s-24.3 7.1-27.85 8.43c-3.35 3.68-4 6.77-3.54 11.83l-6.28 1.64c-1.3.3-2.1 1.6-1.8 2.9l.08.33-7.57 1.98c-1.1.3-2.1.64-3.02 1.03.24-.2.45-.4.6-.6.45-.64.57-1.65-.16-2.1-2.5-1.3-10.94-3.96-20.6-4.3-1.1-.01-1.94.85-2.17 1.77L57.1 375.6c-.2 1.12.46 2.07 1.58 2.18 2.44.4 6.38.8 9.53-.04 3.92-1.2 17.67-22.85 21.6-28.97.16-.28.26-.6.32-.9 2.98.04 6.58-1.2 6.58-1.2l10.83-2.7.04.17c.4 1.6 2 2.5 3.5 2.1l5.2-1.37a35.13 35.13 0 0 0 .5 1.67c1.4 4.1 7.8 9.2 22.9 6.9s57.4-16.8 79.9-31c8.42-5.32 14.77-10.1 19.72-15.07l8.86 14.73c2.3 4.6 4.42 9.24 4.92 21.14.4 11.9-.4 31.1 5 39.4 4.68 7.07 9.74 8.76 17.3 7.94l1.9 6.06c.4 1.4 1.9 2.3 3.4 1.9l.48-.1 2.16 8.9c.3 1.2.67 2.28 1.08 3.27-.01.02-.02.04-.02.06-.46 2.8-.36 11.63 2.32 20.92.33 1.05 1.42 1.58 2.36 1.5l60.9-8.53c1.14-.13 1.84-1.07 1.6-2.16z" fill="#fff"/><path d="M308.9 429.92l.36-.02c-.01-.01-.1-.01-.36.02zm-215.24-94.6h0l.06.01zm98.54-53.2l.25-.14-1.88 1.6c-.36.36.8-.5 0 .17-.54.4-1.2.92-1.97 1.35l-2.3 1.35c.18 0-.22.22-.63.46l-.08-.04c-1.55.97-.66.18-2.25 1.04l.12-.1-.37.34c-1.42.83-.85.25-2.46 1.12.66-.28.38.02-.46.33l.18-.15-.9.4c.26-.15.1-.15-.56.12l.42-.26c-.4.22-.83.4-1.24.6l-3.02.97-2.65.92c.42-.2-.8.14-.47-.04-.54.24-2.2.8-2.9.92l.12-.05-6.5 1.84c.13.06-1.07.33-.75.36-2.3.74-4.3.92-5.05 1.47-1.05.3-1.28.26-1.83.38l.25-.08-4.03 1.1c-.73.23-.8.42-2.13.75.4-.18-.13-.02-.62.12.3-.1.4-.15-.26-.01l-.35.14c-.01 0-.03 0-.02-.01-.82.26-.67.23-.28.13-.02.01.02.02.14 0-.88.17-2.38.68-2.5.62l-6.14 2.26c-.24.03.2-.2.78-.42l-1.42.54c-.02-.08.8-.34 1.24-.52-.87.25-1.74.6-2.64.96l-2.82 1.15-.38.22-.12.04c.02.03-.4.24-.7.38-.3.06-.04-.16-1 .28-.78.3-2.15.97-3.1 1.5.53-.25.38-.13.16 0l-1.12.5-.1-.06c.23-.01-1.2.68-1.34.82-.3.07.7-.43.8-.53l-2.8 1.5c-.95.6.22-.02-.2.3l-2.66 1.58.35-.1-3.56 2.27c-2.75 2.12-4.05 3.54-4.62 4.25-.54.72-.42.76-.03.44l1.7-1.34 1.17-.88 5.7-3.86 6.68-3.8 3.28-1.47 2.63-1.05 2.68-1.03 3.48-1.28 8.12-2.56c1.2-.5 3.47-.96 4.94-1.46l.6-.08 1.63-.46-.03.03c.75-.26 1.63-.46 2-.58l-.03.03.93-.26-.15.07 3.93-1.1-.12-.06 5.9-1.6-.03.03c1.44-.55 2.62-.86 3.8-1.17l3.86-1.3c-.37.16.17-.02.15.02 1.37-.52 2.85-1.06 2.8-1.23 1-.4.83-.28.98-.27-.03-.07.82-.45 1.6-.76l-.34.17 2.18-1-.5.07c1.17-.5.37.02 1.45-.53l-.07-.1 2.05-.97.97-.44 1.03-.58c3-1.9 5.76-4.57 7.68-7.68 1.97-3.1 3.03-6.55 4.03-9.66l.17-.25c.17-.1.26-1.8.44-2.02l.13-.75c.07-.2.2-.64.14-.26.18-.68.16-.7.24-1.2l.25-.72c.65-2.7 1.02-5.04 1.58-7.9.86-3.4 1.8-9.95 2.33-13.7.45-3.7 1.27-7.76 1.9-11.72a5.73 5.73 0 0 0 .55.03c1.35.01 2-.35 3.5-.77 1.35-.3 1.75-.26 3.1-.78.64-.24 1.33-.5 1.93-.8.24-.25.8-.36 1.1-.6h.16c.1-.1.22-.2.36-.2v.02c.15-.14.36-.2.43-.28v.02l.2-.12-.02.05c.27-.2.58-.36.85-.5l-.07-.06c.6-.26.72-.54 1.28-.76v.02c.5-.6 1.05-.57 1.55-1.2-.06.08.06.01.07.03.28-.22.54-.5.44-.63.2-.17.2-.1.26-.07-.05-.06.1-.23.25-.36l-.05.08.42-.4-.18-.03c.26-.17.18.08.37-.14l-.08-.08c.33-.26.6-.33.96-.57a16.15 16.15 0 0 0 .88-.96l.75-1.08c.52-.7.96-1.42 1.48-2.02h.1c.12.05.08-.47.2-.45l.05-.18c.05-.03.13-.1.1-.02.1-.14.08-.15.1-.28l.17-.1c.4-.53.58-1.08.98-1.66.58-.63 1.26-2.07 1.62-2.9.45-1.2 1.6-2.3 1.97-3.58.04-.03.05-.15.03-.15l.52-1.1s.17-.37.35-.85h-1.16c-.06.17-.1.34-.13.53-.18-.01-.24.48-.35.6v-.02c-.04.42-.45.68-.5 1.08-.01-.02-.04-.05-.01-.13-.1.26-.24.6-.34.6-.27.6-.74 1.4-.8 1.84v-.04c-.02.26-.14.28-.22.55-.02.01-.03.02-.04.01-.03.28-.36.68-.43.9l-.06-.02-.25.46.1-.16c.12.15-.3.28-.4.67-.2.3-.04.82-.3 1.1-.02.2-.04-.2-.12.05-.1-.04.01-.14-.1-.12-.1.25-.3.3-.42.62l-.07-.03c-.1.43-.5.6-.54.92-.18.4-.34.12-.46.58l-.18.1c-.12.15.03.18-.13.33-.05-.05-.2.2-.17.06-.35.35-.43.9-.92 1.32.03.2-.23.38-.2.52-.05-.02-.4.5-.27.14.01-.03.04-.07.06-.06l-.03-.08c-.32.2-.33.55-.56.82.08-.07.16-.18.14-.08l-.2.25-.01-.1-.32.36h.1c-.2.15-.35.12-.45.4-.04.13.23-.1.08.1-.26.2-.64.5-.93.77.1.03.01.1-.05.2l-.06-.04c-.24.37-.23-.01-.5.33l-.01-.06.02.2c-.2.36-.26.02-.44.45.12-.12.17.07-.01.2l-.01-.1c-.08.1-.1.14-.15.18.03-.08-.04-.1-.16.02l.03-.14-.15.3c-.23.1-.5.4-.64.4 0 0-.46.28-.5.44.05-.12-.2.03-.2-.08-.07.14-.35.45-.54.46l.02-.02c-.56.25-.8.64-1.32.84.06.06-.2.17-.1.23-.44.37-1 .28-1.03.68-.22.14-.3.07-.43.12l.05-.04c-.4.25-.55.3-.87.44-.15.1-.1.26-.42.36.07-.1-.05-.04-.15.01.07-.04.08-.07-.08-.05-.01.03-.04.05-.06.07l-.01-.01c-.17.1-.13.1-.05.08 0 .01.01.02.04.02-.22.02-.54.22-.6.13-.55.23-.9.5-1.38.7-.07-.04.02-.12.16-.18l-.33.13c-.02-.08.18-.1.28-.15-.44.01-.8.4-1.3.43l-.08.1h-.03c.01.03-.08.1-.15.13-.1-.05-.04-.16-.27-.1-.2-.01-.52.18-.76.28.14-.02.1.02.05.06-.12.03-.2-.02-.3.03l-.03-.1c.07.08-.3.16-.33.2-.08-.05.17-.1.2-.16l-.72.18c-.24.13.06.08-.04.2-.22.06-.44.17-.7.16l.1.07c-.42.15-.68.18-1 .13a15.48 15.48 0 0 0-1.03.4c.24-1.53.45-3.04.6-4.5a3.57 3.57 0 0 0 .05-.63l.68-4.96s.8-6 1.12-9.77c.3-3.75.26-5.22-1.4 3.86l-.01-.13c-.4 2.7-.65 4.4-.75 6.3-.2.27-.32 2.23-.46 2.85l-.01-.06c-.1 1.67-.57 3.4-.68 5-.01-.06-.05-.1 0-.47-.14 1.16-.33 2.76-.44 2.83-.38 2.77-1 6.63-1.12 8.43l-.01-.13c-.05 1.03-.2 1.3-.3 2.45-.02.06-.04.14-.05.12-.06 1.12-.5 3.2-.6 4.1l-.08.05-.35 2.2.15-.82c.14.32-.4 1.63-.56 3.24-.3 1.47-.14 3.08-.54 4.6-.06.75-.01-.67-.16.44-.1.02.04-.52-.1-.25-.16 1.08-.44 1.74-.63 3.08l-.08.04c-.2 1.76-.8 3.22-.9 4.4-.33 1.78-.46 1.14-.77 3l-.28.7c-.2.78-.02.6-.28 1.45-.05-.07-.32 1.08-.25.56-.66 1.9-.94 4-2.1 6.37-.04.6-.75 1.73-.86 2.15-.04.02-.34.6-.58 1-.27.38-.43.6-.07-.04.07-.1.16-.3.17-.3l.02-.2c-.4.63-.8 1.16-1.12 1.75a8.51 8.51 0 0 1-1.2 1.7c.3-.32.66-.77.45-.44l-.88 1.05.13-.26c-.34.5-.85.95-1.35 1.4zm-8.35-23.87l-.04.02c0 .03.01.03.04-.02zm-103.88 96.9h0l-.04.03z"/><path d="M250.96 292.7c1.72-3.68 3.1-7.55 4.42-11.88 3.26-10.4 6.6-30.43 8.48-41.97l2.78-16.54 1.32-7.5c2.58 6.57 4.66 11.42 6.98 17 .18.7-.46-.65-1.18-2.36l1.73 4.2c-.14.01-1.05-2.38-1.6-3.67 1.8 5.1 4.37 10.23 6.74 16.1l.64 1.16.14.35c.04-.04.7 1.22 1.1 2.07.27.86-.27.07 1.06 2.9.96 2.27 2.94 6.37 4.27 9.3-.67-1.6-.4-1.12-.05-.45.62 1.44.85 2.3 1.37 3.4l-.07.15c.2.14 1.7 3.8 1.96 4.27.23.87-1-2.2-1.24-2.53l3.54 8.7c1.33 3.07-.08-.62.63.82 1.1 2.74 2.25 5.4 3.35 8.6l-.25-1.05c2.06 5.16 3.16 8.3 4.28 11.86l6.5 17.68c.94 2.6 1.02 2.37.75.9-.15-.74-.4-1.8-.67-2.95l-.98-3.58-1.3-4.28c-2.43-7.8-4.58-13.6-6.96-19.74-2.4-6.12-5.02-12.57-8.85-21.5-3.26-7.9-5.67-12.78-7.77-17.76l-7.5-18.3-4.24-10.86-1.7-4.4.24-1.4.4-2.37h-2l-1.65 10.6-1.52 10.42.02-.38c-.34 3.13-.65 4.02-1.15 7.5-.05.2-.1.43-.1.4-.4 3.4-1.7 9.85-2.12 12.6l-.14.16-1.22 6.7.5-2.5c.13.92-1.13 5.04-1.92 9.92-.95 4.52-1.26 9.33-2.57 13.96-.4 2.26.26-2.02-.46 1.34-.18.07.28-1.58-.05-.75-.35 1.64-.8 2.94-1.22 4.35l-1.66 4.82-.17.1c-.8 2.57-1.9 4.85-2.97 6.9l-1.6 2.85c-.55.87-1.04 1.7-1.47 2.48-.78 1.14-1.3 1.9-1.74 2.44-.45.53-.78.87-1.1 1.22-.64.7-1.3 1.42-3.16 3.62l-1.7 1.47c-1.8 1.68-1.13 1.37-3.2 3.13.06-.2-2.7 2.16-1.54 1.05-1.2.98-2.46 1.9-3.7 2.9l-3.96 2.93c-1.4.97-2.82 2-4.4 2.98l-2.4 1.5-2.6 1.47c-1.38 1.14-5.1 2.95-6.17 3.74-.23.03-7.37 3.73-3.33 1.46.35-.2.97-.5.95-.46l.44-.36c-2.13.96-4 1.95-5.9 2.9l-2.85 1.45c-.97.47-1.98.93-3.04 1.4 1.27-.52 2.93-1.28 1.85-.7l-3.93 1.74.78-.46c-1.95.87-3.94 1.64-5.9 2.47l.86-.23c-2.9 1.18-4.03 1.34-7.24 2.84-1.45.7 2.82-.95-.24.32l-14.95 5.2c.52-.03-.84.44-2.24.95l-.2-.06c-5.35 1.9-2.05.43-7.4 2.22l.45-.23-1.35.68c-2.4.87-3.08.97-3.82 1.13-.74.14-1.54.38-4.22 1.23 2.15-.58 1.1 0-1.6.64l.64-.3c-1.46.4-1.94.57-2.93.77.86-.26.42-.28-1.74.24l1.42-.48-2.03.57-2.03.48c-.8.13-1.7.23-2.66.34-.94.14-1.92.2-2.83.26-1.83.12-3.42.08-4.07-.05l-1.1-.07c-.65-.1-1.56-.14-2.47-.34-1.86-.3-3.8-.96-4.5-1.23.63.23.12-.05-.42-.35-.53-.3-1.03-.7-.57-.5-.76-.33-2.2-1.2-3.17-2.52-.26-.3-.45-.66-.64-1-.16-.36-.3-.66-.42-1.07-.24-.76-.4-1.48-.5-2l.12.4-4.84-20.2c-.05.35-.9-3.35-.86-2.4-1.05-3.56-1.7-6.82-1.83-9.52-.2-2.7-.37-4.84.12-6.04 2.74-6.73 7.47-6.74 16.37-9.55 1.3-.4 27.34-6.07 33.62-8.06.63-.1-.35.27-1.8.74 1.24-.37 2.48-.75 3.72-1.17.01.14-2.54.9-3.92 1.32 2.7-.67 5.23-1.77 8-2.95 1.38-.6 3-1.2 4.4-1.95 1.4-.74 3.16-1.64 4.5-2.7.35-.32.68-.65.97-1l.3-.26c-.05-.02.96-1.1 1.58-1.88.67-.66.25.3 2.16-2.42.76-1.07 1.65-2.72 2.38-4.52.72-1.8 1.35-3.73 1.82-5.34-.58 1.7-.46 1.14-.26.4.5-1.54.86-2.4 1.18-3.6l.15-.08c-.04-.25 1.03-4.18 1.1-4.72.34-.86-.53 2.45-.57 2.85 1.65-6.26-.14-1.8 1.4-8.06.7-3.38-.01-1.17.24-2.8.68-2.96 3.42-20.02 4.27-23.78 1.45-9.2 1.52-16.3 1.84-19.46h-.7l-.86 4.4-.84 4.5c-1.58 8.2-5.15 32.53-6.02 36.3-.87 3.76-1.22 7.68-2.24 12.52-1.3 4.13-2.62 7.4-4.25 9.95-.82 1.27-1.7 2.37-2.65 3.38-.96 1-1.97 1.92-3 2.67-16.48 8.42-44.8 11.23-58.95 17.82-5.1 2.38-5.95 8.14-6 8.48-.1.6-.13 1.17-.17 1.66v1.2l-.03-.1c-.01.9.05 1.78.13 2.66-.01 0-.03.01-.04.01l-.02-.1c0 .04.01.07.01.1-.7.24-1.2.34-1.76.37-6.86 2.97-1.1 1.9-1.1 1.9 1.2-.18 2.15-.43 3.07-.72.58 3.83 1.72 7.5 2.45 10.76l.07-.35 4.26 18.3-.06-.1.46 1.53-1.65.5c-.9.27-1.87.57-2.68.76-.65.14-1.34-.13-1.7-.6l.03-.17c.06-.1-.1-.13-.25-.23-.16-.1-.3-.22-.23-.3-.07-.07-.12-.15-.18-.24.01-.1-.01-.36.1-.17-.08-.37-.12-.37-.25-.6l.03-.42c-.26-1.46-.8-2.62-1.14-4.15-.2-1.88-1.3-5.24-1.92-7.18-1-2.7-.98-6.12-2.04-8.86a.53.53 0 0 0-.14-.31l-.62-2.6-.47-1.8c-.12-.5-.36-1.17-.36-1.45a1.86 1.86 0 0 1 .28-1.05c.37-.6.97-.8.77-1.02-.1-.08-.42-.2-1.04.01-.3.12-.67.35-1 .77s-.6 1.06-.58 1.88l-.06-.08c.03.28.06.42.1.6l.1.47a8.65 8.65 0 0 0 .2.84c.14.52.3.98.54 1.44-.24.22.26 1.17.26 1.53l-.03-.03c.43.8.27 1.83.67 2.62-.03-.03-.1-.03-.16-.22.2.6.46 1.42.3 1.5.4 1.44.84 3.5 1.33 4.36l-.06-.05c.3.5.2.68.44 1.25-.01.04-.01.08-.02.08.32.54.45 1.68.64 2.13l-.1.06.3 1.15-.08-.44c.33.08.03.92.43 1.7.16.8 1 1.43 1.07 2.28.24.35-.3-.28-.06.27-.15.06-.16-.25-.25-.07.22.55.07.97.35 1.65l-.1.06c.45.86.27 1.76.63 2.32.3.8-.06.76.14 1.3-.27.03-.54.07-.85.12-2.24.53-4.54 1.17-6.8 1.77l-1.7.45-.42.1c-.13.03-.34.1-.45.13l-.6.18c-.01-.35-.05-.57-.23-.78.16-.08-.05-.3-.01-.4l.02.01c-.18-.2.01-.5-.15-.68.02.01.06 0 .08.05-.05-.15-.14-.36-.04-.4-.1-.37-.17-.9-.38-1.12l.03.01c-.14-.12-.05-.18-.14-.32l.02-.02c-.14-.13-.1-.44-.18-.55l.06-.02-.08-.3v.12c-.2 0 .06-.25-.1-.44-.02-.2-.46-.33-.42-.56-.1-.08.16.06.06-.08.1-.02.07.06.14 0-.08-.14.04-.26-.06-.43l.07-.02c-.18-.2 0-.47-.16-.6-.1-.23.18-.2-.02-.44l.08-.12c-.01-.1-.14-.05-.12-.18.06-.01.02-.16.1-.1.04-.3-.26-.53-.17-.92-.14-.05-.1-.25-.2-.3.05-.02-.07-.37.1-.2.01.02.02.05 0 .05l.08.01c.1-.23-.15-.36-.18-.57-.01.07.01.14-.05.1l-.03-.2.07.03-.02-.3-.07.05c.01-.15.13-.22-.01-.36-.07-.06-.07.15-.13.01.01-.2.03-.5 0-.73-.08.04-.1-.02-.12-.1l.07-.02c-.15-.23.14-.13.01-.36l-.1-.02c-.2-.2.13-.15-.12-.36.03.1-.15.08-.15-.05h.08c-.03-.06-.06-.08-.06-.13.05.03.1 0 .07-.1l.1.05-.17-.16c.05-.16-.1-.37-.01-.45 0 0-.02-.32-.14-.37.08.05.07-.13.16-.1-.1-.06-.2-.3-.14-.4v.02c.01-.37-.24-.58-.2-.9-.08.03-.07-.14-.17-.08-.18-.3.1-.64-.27-.7-.05-.14.04-.2.04-.27l.03.03a2.53 2.53 0 0 1-.14-.56c-.05-.1-.2-.08-.22-.27.07.05.05-.03.03-.1.02.04.04.05.07-.05-.02-.01-.04-.03-.05-.04l.01-.01c-.05-.1-.06-.1-.06-.03-.01 0-.02.01-.03.03.05-.14-.08-.33.03-.37-.1-.34-.26-.57-.36-.84.05-.04.1.01.15.1l-.06-.2c.08-.01.07.1.1.17.08-.27-.23-.47-.18-.8l-.07-.05.01-.02c-.03.01-.1-.05-.1-.1.06-.05.16-.03.12-.17.04-.13-.1-.3-.17-.45.01.08-.04.06-.07.04-.02-.07.04-.13 0-.17l.1-.03c-.08.05-.13-.16-.18-.18.06-.05.08.1.14.1-.07-.28-.03-.14-.1-.42-.1-.14-.08.05-.18-.01-.05-.13-.14-.25-.12-.4l-.07.07c-.12-.24-.14-.4-.1-.58-1.06-1.73-1-.2-1-.2-.03.77.3 1.1.54 1.96.12.78.01 1.02.24 1.8.07.38.2.78.3 1.15.16.15.1.5.25.67l-.05.1c.05.06.1.14.07.22h-.02c.08.1.07.22.1.27h-.02l.04.13h-.03a1.26 1.26 0 0 1 .15.54l.08-.03c-.02.38.2.48.14.83h-.01c.3.37-.01.7.3 1.07-.04-.05-.04.03-.06.03.07.2.12.4.3.37.03.14-.03.13-.1.16.07-.02.13.1.16.2l-.04-.05.1.32.12-.1c0 .18-.16.08-.1.24l.1-.03c.03.24-.12.42-.15.66.15.96.66 1.92.64 2.84l-.08.06c-.12.04.24.2.13.26l.08.1c-.02.03-.03.1-.07.05.02.1.04.1.1.15l-.06.12c.02.4.24.67.3 1.07-.06.5.28 1.37.47 1.86.34.68.02 1.63.4 2.32-.01.03.04.08.05.08l.13.68a14.96 14.96 0 0 0 .19.78c-.8.2-1.6.35-2.4.43l-.2-.06c-.06-.08-.58.1-.94.18a3.41 3.41 0 0 0-.4-1.56c-.12-.22-.27-.4-.42-.58l-.32-.36a23.52 23.52 0 0 1-.61-.73c-.8-1-1.53-2.07-2.14-3.37-.64-1.6-1.47-3.92-1.8-6.4-.16-1.24-.23-2.5-.17-3.68a13.96 13.96 0 0 1 .42-3.14 8.96 8.96 0 0 1 1.76-3.53c.87-1.07 1.96-1.9 3.18-2.84.32-.27.6-.44 1-.93a3.14 3.14 0 0 0 .24-.42c.7-.25.47.05 1.5-.4-.46.13-.26-.1.32-.22l-.13.1c.3-.1.4-.15.62-.2-.18.08-.07.13.4 0l-.3.16.85-.35c.35-.05.8-.16 1.17-.26.4-.1.37-1.33.37-1.33-.05.02-.1.04-.17.05-.1.04-.22.08-.35.12.24-.1-.12-.02-.1-.04-.92.25-1.9.5-1.88.68-.68.17-.56.08-.67.04.02.07-.56.25-1.08.38l.24-.1-.5.14c0-.03.01-.06.01-.1-.01-.64-.3-1.27-.83-1.64a2.14 2.14 0 0 0-.41-.25l-.3-.15c-.18-.1-.36-.16-.53-.24-1.42-.62-2.83-1.05-4.23-1.36a2.08 2.08 0 0 0-.65-.12c-1.67-.47-3.36-.86-5.06-1.2 0 0-1.55-.3-3.6-.57-2.06-.27-4.56-.44-6.6-.4a2.62 2.62 0 0 0-1.61.67 2.7 2.7 0 0 0-.72 1c-.18.5-.16.78-.07.8-.02.17.01.25.07.17.1-.1.3-.62 1.02-1.17.35-.26.88-.53 1.48-.4-.08-.02-.15-.01-.23-.01.3.03.7.12 1.1.18a36.73 36.73 0 0 1 1.54.27l-.05.01c.4.06.53.03.43.28l-.03.13-.07.34-.12.64c-.15.83-.27 1.6-.35 2.38-.22.2-.37 1.85-.53 2.37v-.05c-.13 1.4-.65 2.82-.8 4.17 0-.05-.04-.1.01-.4-.16.97-.38 2.3-.5 2.36-.42 2.32-1.08 5.54-1.2 7.05v-.1c-.06.87-.2 1.1-.32 2.05-.02.05-.04.1-.05.1-.07.94-.5 2.7-.6 3.44l-.07.04-.34 1.84.15-.68c.14.27-.38 1.36-.52 2.72-.26 1.24-.1 2.6-.44 3.87-.03.63-.03-.57-.14.36-.1.01.02-.44-.1-.22-.13.9-.38 1.46-.53 2.6l-.08.03c-.15 1.48-.62 2.73-.68 3.72-.23 1.5-.4.96-.57 2.56l-.22.6c-.14.67.03.5-.16 1.23-.05-.06-.23.93-.2.48-.42 1.66-.5 3.43-1.1 5.6.03.5-.26 1.6-.23 1.98-.06.05-.44 2.23-.3.96.01-.1.05-.3.07-.28l-.04-.16c-.38 1.23-.36 2.3-.62 3.55.1-.37.18-.86.17-.52l-.23 1.16-.08-.2-.37 1.72.12-.22c-.2.84-.4 1.1-.46 2.08-.02.44.25-.78.1.12l-.85 3.64c.03.02.04.05.05.07-.01.02-.07.02-.14.02v-.08c-1.4-.04-.63-.18-1.82-.3l-.07-.01c-.03 0-.06 0-.1-.01l.1-.04c-.1.04-.18.08-.3.1-.46-.1-.5-.28-.55-.4-.03-.14-.14-.2-.25-.74.05.4-.22.27-.08-.4.01.06.02.14.04.2.05-.4.05-.55.1-.8-.01.25.08.15.18-.46l.02.42.07-1.17c.23-.87.4-2.28.55-2.63 0 0 .4-1.9.35-2.34 0 .4.2-.65.24-.34.01-.5.2-1.97.4-2.54l-.01.1c.47-2.13.54-3.7 1-5.6-.1.07.13-.94-.03-.7.25-2.02.87-3.6.66-4.38.14-.9.27-1.06.37-1.53l-.02.22.6-3.46c.08-.64-.06-.76.18-1.9 0 .38.07-.1.14-.5-.04.27-.03.36.1-.2-.01-.08 0-.2.01-.32.01 0 .01-.03.02-.01.1-.7.06-.6 0-.26-.01-.02-.02.01-.06.1.2-.72.36-2.04.48-2.1.35-2.13.5-3.66.8-5.44.1-.2.07.23 0 .75l.2-1.26c.08.02-.08.73-.14 1.12.4-1.47.42-3.1.85-4.83v-.37l.03-.1c-.03 0-.01-.4.03-.66.1-.23.16.05.3-.82.2-.67.3-1.95.44-2.85-.1.48-.1.32-.1.1.07-.43.2-.67.22-1l.1-.02c-.12.15.1-1.15.1-1.3.1-.23-.06.68-.03.8l.45-2.6c.1-.94-.12.15-.12-.3.13-.82.2-1.63.43-2.56l-.14.28c.2-1.55.38-2.46.65-3.48.58-4.9.58-6.1.38-5.87-.23-1.65-1.4 3.7-1.4 3.7-1.3 5.44-1.4 8.34-2.46 14.9-1.1 5.73-1.64 7.2-2.6 13.18l-1.48 8.66c-.03 1.36-.65 3.65-.76 5.24l-.23.58c-.04.55-.1 1.2-.27 1.7l-.03-.04c-.05.82-.27 1.7-.3 2.12l-.03-.04-.16.98-.02-.18a40.24 40.24 0 0 1-.68 4.12l.16-.08c-.32 1.34-.46 2.28-.6 3.18l-.22 1.37-.15.76a8.69 8.69 0 0 1-.1.43 3.32 3.32 0 0 0-.07.65l-.04-.05c.1 1.2 1 2.2 1.95 2.47.23.08.48.1.64.14l.46.1.96.18c1.27.22 2.6.4 4.28.2-.42.05.18.07.15.1 1.56-.06 3.25-.4 3.2-.7l.97-.2c.15-.02.15.03.26.04.01-.1.9-.73 1.52-1.35l-.28.3c.65-.58 1.2-1.2 1.76-1.82l-.5.2c.94-.92.44-.05 1.23-1.03l-.16-.12c1.2-1.35 2.08-2 3.26-3.3 4.44-5.75 8.27-12.5 12.2-17.92l.28-.17c.25.01.74-1.73 1.04-1.83l.34-.7c.15-.16.43-.53.27-.18.4-.6.38-.64.6-1.12.08-.08.2-.23.3-.4.1-.14.17-.3.25-.46.02-.06.02-.12.04-.17.1-.02.2-.03.4-.03-.03.07.77-.04.42.06 1.4-.06 2.7-.58 4.47-.93.08-.06.2-.1.34-.17l.17-.07.22-.06c.3-.08.57-.16.7-.24.06.04 1.72-.42.8-.07-.08.03-.23.06-.22.04l-.1.1c1-.1 1.75-.5 2.7-.73-.3.05-.67.15-.43.04l.9-.2-.17.1 1.34-.3-.2-.03c.66-.12.92-.05 1.63-.34.32-.14-.64.05.04-.14l2.75-.54c.1.1.2.16.34.52-.13.03.4.7.1.46.78 1.33 2.67 1.7 4.37 1.4.25-.28.98-.34 1.16-.55.06.08 1.4-.35.67.04-.06.03-.18.06-.18.03l-.06.14c.85.02 1.4-.5 2.2-.67-.24.02-.55.1-.36-.02l.6-.15c.01.03.02.05.03.08l-.03.03.03-.01c.07.2.14.4.2.6a19.12 19.12 0 0 0 .33.8c.26.52.53 1.02.87 1.46 1.3 1.8 3 3 4.78 3.9 3.6 1.77 7.68 2.36 12.64 2-1.24.08.54.06.44.08 4.6-.3 9.34-1.43 9.33-1.72 3.2-.72 2.63-.52 3.07-.5-.05-.13 2.7-.84 5.17-1.57l-1.12.37 7.03-2.1-1.44.2c3.73-1.08 1.03 0 4.57-1.18l-.1-.17c2.56-.82 4.62-1.38 6.64-2 2.03-.6 4.04-1.17 6.5-2 10.2-3.65 20.54-8.03 30.45-12.9 4.93-2.5 9.8-5.04 14.35-7.9 4.55-2.83 8.9-5.75 12.95-8.8l.8-.43c.48-.04 4.1-3.82 4.77-4.24.56-.56 1.12-1.1 1.64-1.7.5-.45 1.5-1.42.72-.54 1.56-1.54 1.52-1.66 2.53-2.87.57-.54 1.08-1.14 1.6-1.73 2.74-3.38 4.82-6.86 6.55-10.54zm-190.8 61.8l.02.03-.02-.03zm-.06.5l-.12.7c.04-.2.08-.46.12-.7zm-1.75 10.22h0l-.02-.03.02.03zm-1.7 10.4c.01-.13.01-.22 0-.26.01.04 0 .13 0 .26zm.08-.4c.03-.06.06-.17.1-.4a3.47 3.47 0 0 1-.1.4zm1.78 3a2.07 2.07 0 0 1-.59-.16 2.07 2.07 0 0 0 .59.16h0zM89.3 348a2.57 2.57 0 0 0-.22.32c-.14.2-.28.46-.5.9l-.55.54c-.26.38-.28.53-.34.7-.13-.06-.3-.1-.5-.2-.22-.24-.18-.42-.48-.6-.1-.12-.27-.2-.4-.3-.14.05-.16-.13-.3-.1l.02-.08c-.05.01-.1 0-.1-.05l.02-.01c-.07.01-.1-.05-.12-.04h.02l-.05-.03.03-.02c-.1-.01-.16-.06-.2-.13l-.06.08c-.05-.17-.2-.07-.25-.25l.02-.01c-.28.06-.1-.3-.4-.25.03-.01.02-.04.04-.06-.08-.04-.16-.08-.27.05-.04-.04 0-.07.03-.13-.05.06-.1.05-.15.02l.04-.01-.12-.07-.07.12c-.03-.08.1-.14.02-.16l-.08.1c-.06-.08.01-.26-.01-.38-.27-.3-.8-.35-.95-.75l.04-.08c.08-.1-.2.08-.14-.02l-.07.02c.01-.03 0-.06.04-.07-.03-.03-.04-.01-.1 0v-.1c-.08-.15-.28-.12-.4-.25-.05-.25-.43-.4-.65-.46-.36-.05-.3-.67-.68-.7 0-.02-.04-.01-.05 0l-.2-.2s-1.03-.94-.92.56v.02c.08.15.14.23.3.2-.1.14.1.1.08.16v.01c.16-.04.08.2.23.18-.01.01-.04.04-.06.03.07.03.16.06.1.14.14.08.28.27.46.2l-.02.02c.1-.04.07.04.15.04-.01.01-.01.02-.01.02.12-.04.15.1.22.1l-.04.05.1.07-.03-.04c.13-.13 0 .15.15.12.05.07.38-.18.4-.05.1-.04-.12.08-.03.07-.06.07-.06.03-.1.1.08.01.01.14.12.14l-.05.06c.17-.04.08.2.22.14.12.02-.1.2.1.17l-.03.1c.02.04.1-.07.1 0-.04.05.02.08-.05.1.02.15.27.05.28.27.1-.07.12.03.2-.02-.03.04.1.1-.03.14-.01 0-.02-.01-.01-.02l-.06.05c-.02.16.17.05.22.12 0-.04-.03-.05.02-.08l.05.06-.05.04.07.1.04-.07c.02.07-.05.18.07.14.06-.03.02-.1.1-.1.03.1.06.23.13.3.05-.07.07-.05.1-.05l-.05.06c.15-.01-.08.15.06.16l.08-.07c.17-.05-.06.15.15.07-.04-.02.1-.14.1-.08l-.06.05c.03.01.06-.01.06.01-.04.02-.08.07-.04.1l-.06.02.15-.05c0 .1.13.1.1.18 0 0 .07.12.16.06-.07.04-.03.1-.1.15.08-.04.2-.02.17.07h-.01c.06.16.27.08.3.24.05-.07.07.01.13-.08.18.01.05.34.3.1.06.03 0 .1.02.14h-.02c.1.06.14.08.2.14.05 0 .16-.1.2-.03-.06.03-.03.04-.01.06-.02 0-.04.01-.04.07.02-.01.03-.02.04-.02.04.02.05 0 .04-.02.01-.01.01-.02.02-.04-.01.1.1.1.05.17.13.08.28.06.4.1-.03.05-.08.07-.12.06l.08.04c-.05.06-.07 0-.1 0-.01.17.25.04.26.2l.06-.03v.01c.02-.03.07-.04.1-.04-.03.06-.1.12-.06.16-.01.08.12.06.2.07-.02-.03.02-.05.04-.06.02.02-.01.08.03.07l-.06.07c.05-.08.12-.02.16-.04-.03.06-.07.02-.1.05.1.07.05.04.15.1.1-.01.05-.08.13-.12.06.02.14.01.15.1l.04-.08c.07.01.1.04.14.08-.2.23-.5.67-.34.3-1.07 1.4-1.84 3.07-3.1 4.85-.1-.03-.2-.06-.3-.13-.22-.24-.18-.42-.48-.6-.1-.12-.27-.2-.4-.3-.14.05-.16-.13-.3-.1l.02-.08c-.05.01-.1 0-.1-.05h.02c-.07.01-.1-.05-.12-.04l.02-.01-.05-.03.03-.02c-.1-.01-.16-.06-.2-.13l-.05.07c-.05-.17-.2-.07-.25-.25h.02c-.28.06-.1-.3-.4-.25.03-.01.02-.04.04-.06-.08-.04-.16-.08-.27.05-.04-.04 0-.07.03-.13-.05.06-.1.05-.15.02h.04l-.12-.07-.07.12c-.03-.08.1-.14.02-.16l-.08.1c-.06-.08.01-.26-.01-.38-.27-.3-.8-.35-.95-.75l.04-.08c.08-.1-.2.08-.14-.02h-.07c.01-.03 0-.06.04-.07-.03-.03-.04-.01-.1 0l.02-.1c-.08-.15-.28-.12-.4-.25-.05-.25-.43-.4-.65-.46-.36-.05-.3-.67-.68-.7 0-.02-.04-.01-.05 0l-.2-.2s-1.03-.94-.92.56h-.02c.08.15.14.23.3.2-.1.14.1.1.08.16l-.01.01c.16-.04.08.2.23.18-.01.01-.04.04-.06.03.07.03.16.06.1.14.14.08.28.27.46.2h-.02c.12-.04.07.04.15.04-.01.01-.01.02-.01.02.12-.04.15.1.22.1l-.04.05.1.07-.03-.04c.13-.13 0 .15.15.12.05.07.38-.18.4-.05.1-.04-.12.08-.03.07-.06.07-.06.03-.1.1.08.01.01.14.12.14l-.05.06c.17-.04.08.2.22.14.12.02-.1.2.1.17l-.03.1c.02.04.1-.07.1 0-.04.05.02.08-.05.1.02.15.27.05.28.27.1-.07.12.03.2-.02-.03.04.1.1-.03.14-.01 0-.02-.01-.01-.02l-.06.05c-.02.16.17.05.22.12 0-.04-.03-.05.02-.08l.05.06-.05.04.07.1.04-.07c.02.07-.05.18.07.14.06-.03.02-.1.1-.1.03.1.06.23.13.3.05-.07.07-.05.1-.05l-.1.07c.15-.01-.08.15.06.16l.08-.07c.17-.05-.06.15.15.07-.04-.02.1-.14.1-.08l-.06.05c.03.01.06-.01.06.01-.04.02-.07.07-.04.1l-.08.05.15-.05c0 .1.13.1.1.18 0 0 .07.12.16.06-.06.04-.03.1-.1.15.08-.04.2-.02.17.07h-.01c.06.16.27.08.3.24.05-.07.07.01.13-.08.18.01.05.34.3.1.06.03 0 .1.02.14h-.02c.1.06.14.08.2.14.05 0 .16-.1.2-.03-.06.03-.03.04-.01.06-.02 0-.04.01-.04.07.02-.01.03-.02.04-.02.04.02.05 0 .04-.02.01-.01.01-.02.02-.04-.01.1.1.1.05.17.13.08.28.06.4.1-.03.05-.08.07-.12.06l.08.04c-.05.06-.07 0-.1 0-.01.17.25.04.26.2l.06-.03v.01c.02-.03.07-.04.1-.04-.03.06-.1.12-.06.16-.01.08.12.06.2.07-.02-.03.02-.05.04-.06.02.02-.01.08.03.07l-.06.07c.05-.08.12-.02.16-.04-.03.06-.07.02-.1.05.1.07.05.04.15.1.1-.01.05-.08.13-.12.03.01.06.01.1.02-.05.07-.1.13-.15.2-.16.6-1.02 1.7-1.14 2.14-.1.01-1.56 2.28-.85.9.06-.12.2-.3.2-.28v-.22c-1.06 1.16-1.48 2.42-2.4 3.67.3-.35.63-.86.47-.48l-.83 1.17.1-.3-1.27 1.7.27-.17c-.66.8-1.04 1-1.6 2.04-.23.5.72-.7.1.22l-3.37 4.03c.2-.04-.08.33-.37.73l-.13-.03c-1.06 1.54-.64.37-1.74 1.83l.04-.18-.13.53c-.96 1.33-.78.5-1.84 1.84.25-.2.35-.2.3-.1-.04.12-.24.35-.57.52l.1-.2c-.18.14-.24.16-.3.22-.06.05-.22.08-.36.1.24-.13.1-.2-.56-.04.14-.08.3-.15.4-.24-.4.17-.82.3-1.25.45-1.03.02-2.7.2-3.12 0l-1.1-.07c.06-.24.13-.48.2-.73 1.16-5.8 2.06-12.07 3.3-17.43l.13-.22c.15-.08.1-1.52.25-1.7l.06-.64c.06-.17.15-.54.12-.22.12-.58.1-.6.14-1.02l.2-.6c.5-2.28.72-4.25 1.2-6.65.7-2.86 1.6-8.34 2.13-11.5.53-3.6 1.6-7.6 2.34-11.4a.86.86 0 0 0 .27.11c.56.17.83-.1 1.46-.2.57-.01.74.13 1.3-.01a4.86 4.86 0 0 0 .84-.19c.1-.15.36-.07.5-.2l.07.06c.04-.05.1-.1.16-.06v.02c.07-.07.16-.06.2-.1v.02l.1-.03-.01.03a.74.74 0 0 1 .39-.14l-.03-.08c.3.02.33-.17.6-.14v.02c.22-.3.52 0 .75-.33-.03.04.03.04.04.06.13-.08.27-.14.2-.3.1-.04.1.01.14.07-.03-.07.04-.14.12-.17l-.02.04.2-.12-.1-.1c.13-.02.1.14.2.06l-.05-.1c.17-.06.34.04.54.03.7-.33 1.1-1.06 1.7-1.38l.08.04c.1.08-.01-.27.1-.2v-.1c.03 0 .08-.02.08.03.05-.05.04-.06.05-.13l.1-.01c.23-.18.27-.45.47-.67.35-.18.6-.83.73-1.2.1-.54.85-.85.9-1.45.02-.01.01-.07-.01-.07l.22-.45c.04 0 .9-2.22-.72-.9l-.02-.02c-.16.2-.24.35-.18.57-.17-.04-.1.18-.18.22l-.01-.01c.06.2-.24.24-.2.43-.01-.01-.05-.04-.04-.07-.03.1-.06.26-.16.22-.1.24-.3.54-.26.76l-.02-.02c.04.14-.05.1-.06.23h-.03c.04.15-.14.27-.15.36l-.06-.03-.1.18.05-.06c.14.12-.18.07-.17.26-.1.1.14.45-.02.52.03.1-.07-.13-.08-.01-.08-.05-.02-.08-.1-.1-.03.1-.18.08-.2.22l-.06-.04c0 .2-.27.17-.24.34-.06.17-.24-.06-.24.17H81c-.06.04.05.12-.04.15-.04-.05-.1.04-.12-.04-.2.06-.16.37-.46.4.04.13-.1.15-.07.25-.04-.04-.2.15-.16-.03 0-.02.02-.03.03-.01l-.03-.07c-.18-.01-.14.2-.26.27.05 0 .1-.04.1.02l-.1.06-.02-.07-.17.08.06.05c-.1.02-.2-.07-.22.08-.01.07.13.05.06.1-.13.02-.33.03-.47.1.05.07.02.1-.01.12l-.04-.06c-.1.17-.12-.12-.24.02v-.05l.03.16c-.08.2-.14-.1-.2.15.06-.04.1.14.01.14l-.01-.07c-.04.03-.04.07-.07.07.01-.05-.03-.1-.08-.06l.01-.1-.07.17c-.12-.04-.23.1-.3.03 0 0-.2.03-.22.15.02-.08-.1-.07-.1-.15-.03.1-.16.2-.25.14v-.01c-.25-.01-.36.23-.6.2.03.08-.1.07-.03.17-.2.17-.45-.12-.45.23-.1.04-.14-.05-.2-.06l.02-.02a1.34 1.34 0 0 1-.38.1c-.06.05-.04.2-.18.2.03-.07-.02-.05-.07-.04.03-.02.03-.04-.04-.07-.01.02-.02.04-.03.05-.07.02-.06.03-.02.04 0 .01.01.02.02.04-.1-.06-.23.04-.26-.06-.23.06-.4.2-.6.27-.03-.05.01-.1.07-.14l-.14.04c-.01-.08.08-.06.12-.08-.2-.1-.33.18-.55.08l-.03.07h-.01c0 .03-.04.08-.06.1-.04-.07-.02-.16-.1-.15-.08-.06-.22.06-.32.1.06.01.04.05.02.07-.05.01-.08-.06-.12-.03l-.01-.1c.03.1-.12.1-.14.15-.03-.07.07-.07.08-.12-.2.02-.1.01-.3.04-.1.08.03.1-.02.17-.1.02-.18.1-.3.05l.04.08c-.17.07-.28.07-.4-.01-.2.1-.32.2-.42.28a53.11 53.11 0 0 0 .35-2.08c.05-.14.08-.53.06-.53l.8-4.13.55-2.9.18-.98c-.04.2-.07.38-.1.57 2.66.4 4.35.7 6.24.82.24.33 2.23.5 2.83.75l-.07.01c1.7.18 3.3 1.07 4.9 1.4-.07 0-.13.06-.48-.05 1.12.32 2.65.9 2.54 1.08.1.03.17.1.2.2.02.1.02.18-.1.4.01.06-.32.36-.6.6l-.9.78c-1.25 1.06-2.3 2.3-2.72 3.2l.04-.14c-.47 1.03-.78 1.23-1.2 2.42-.05.05-.1.13-.1.1-.15.6-.4 1.43-.58 2.26-.17.83-.28 1.64-.27 2.1l-.12.05c-.07.78-.05 1.57-.03 2.35-.01-.3.01-.6.02-.88.3.3-.2 1.8.25 3.47.22 1.6 1.3 3 1.77 4.52.44.66-.5-.54.08.48-.13.1-.3-.46-.3-.13.52 1.02.64 1.8 1.46 2.97l-.08.1c.58.74 1.05 1.47 1.5 2.13.2.32.5.66.68.9.16.2.26.37.37.56.22.66-.01.92-.13 1.1zm194.23 56.83l-.2-1.04-.86.3c2.4 7.16 1.07.74 1.07.74z"/><path d="M289.07 265.03l.02-.05c-.02-.01-.03 0-.02.05zm63.4 157.15l-.06-.46-.13-.96c-.2-1.28-.42-2.6-1.14-4.13.18.38.01-.2.06-.18-.54-1.47-1.4-2.96-1.66-2.83l-.5-.86c-.07-.13-.02-.15-.05-.26-.1.02-.97-.63-1.76-1.03l.38.16c-.75-.44-1.5-.77-2.27-1.1l.35.42c-1.17-.6-.2-.4-1.37-.85l-.06.2c-1.66-.72-2.55-1.35-4.15-2.07-6.84-2.43-14.44-3.97-20.83-6.02l-.25-.22c-.07-.24-1.87-.16-2.07-.42l-.78-.1c-.2-.1-.64-.25-.25-.2-.7-.2-.72-.16-1.26-.23-.1-.05-.27-.1-.47-.16-.17-.04-.34-.07-.5-.1-.87-.02-1.76.3-2.42.92-.07-.44-.26-1.27-.01-.55.03.08.06.23.03.22l.1.1c-.07-1-.45-1.74-.63-2.7.04.3.12.66.02.42l-.18-.9.1.17-.25-1.33-.04.2c-.1-.66-.02-.9-.28-1.62-.13-.32.03.63-.14-.04-.13-.88-.33-2.2-.55-3.3-.05.1-.1-.07-.15-.28.33-.26.6-.52.85-.82.3-.4.53-.85.6-1.47 0-.3-.05-.68-.1-.9l-.16-.68-.35-1.36-.75-2.72-.34-1.3a16 16 0 0 0 1.2-.51c1.06-.54 2-1.24 2.86-2.03 1.7-1.6 2.92-3.6 3.74-5.65.83-2.06 1.28-4.2 1.5-6.3a7.3 7.3 0 0 0 .11-1.18c0-.2.01-.4.01-.54s0-.23-.01-.22c.17-2.57.01-5.13-.25-7.63a132.88 132.88 0 0 0-1.06-7.47s-.74-4.5-2.02-10.32a354.23 354.23 0 0 0-4.52-18.41c-1.5-5.43-2.7-9.16-2.67-8.18-.02 1 1.3 6.65 4.03 20.16l-.13-.35 3.88 18.55c-.1.46.2 2.12.44 3.9.27 1.78.47 3.68.52 4.63l-.04-.18c.6 4.87-.23 10.18-2.2 14.3.05-.18.06-.28.47-1.25-.62 1.54-1.64 3.25-2.74 4.35-1.08 1.13-2.1 1.7-2.25 1.7a9.84 9.84 0 0 1-1.29.67c-.46.2-.9.34-1.48.52l-3.32 1.05-6.77 2.1-11.1 3.26.34-.13c-2.92.88-3.82.95-7.15 1.66-.2.01-.42.04-.4.03-1.6.38-4 .77-6.3.78-2.3.05-4.45-.4-5.66-.8l-.12-.16c-1.98-.68-3.74-1.9-5.22-3.43.26.3.56.56.85.83s.58.54.9.76c-.2-.06-.56-.28-.97-.67-.44-.36-.92-.9-1.47-1.55-1.07-1.33-2.34-3.1-3.33-5.2-.45-1-.8-2.04-1.2-3.1-.32-1.08-.7-2.15-.97-3.26-.6-2.2-1-4.52-1.17-6.85-.33-2.2.4 1.93.01-1.37.15-.12.23 1.54.28.67-.35-3.24-.22-5.34-.45-9.37l.12-.17c-.37-5.25.02-9.94-.33-13.46-.18-2.73-.15-3.64-.15-4.6-.01-.95.01-1.93-.45-4.76l-.15-2.24c-.42-2.44-.47-1.7-1.07-4.4.07.07-.13-.78-.34-1.45-.2-.67-.36-1.15-.04-.4a25.16 25.16 0 0 0-1.87-4.4c-.8-1.44-1.67-2.76-2.57-4.18l-1.78-2.8-1 1.83 1.4 2.3 1.6 2.7c.5.9.97 1.75 1.35 2.7l.2.82c-.03.2.54 1.37 1 2.64.48 1.26.85 2.63.83 3 .18.72.35 1.44.5 2.18.07.62.2 1.95 0 .85l.5 3.6c.03.74.04 1.5.05 2.24.5 8.2.4 15.27.9 24.03.1 2.64.3 5.86.85 9.38.57 3.5 1.44 7.37 3.56 10.9 1.1 1.67 2.34 3.24 3.8 4.6s3.2 2.45 5.02 3.1c1.82.66 3.67.9 5.38.96 1.05.02 2.04-.04 2.98-.12.26 1.14.57 2.06.93 3l.7 1.74.43 1.1a4.09 4.09 0 0 0 1.02 1.35 4.06 4.06 0 0 0 2.43 1.08c.4.03.78.01 1.1-.06l.75-.12c.97-.16 1.95-.35 3.47-.76 1.48-.32 3.03-.74 4.46-1.1.63-.36 1.9-.44 2.65-.8l.34.04c.26-.12.58-.24.88-.24v.04c.4-.18.88-.24 1.07-.33l-.01.04.5-.13-.08.07c.7-.26 1.45-.44 2.12-.55l-.1-.13c1.44-.17 1.9-.58 3.2-.7v.04c1.52-.74 2.6-.33 4.17-1.07-.2.1.1.05.1.1.75-.22 1.56-.43 1.5-.7.56-.12.47-.02.57.07-.03-.12.44-.28.87-.4l-.2.1c.4-.12.7-.17 1.2-.34l.1 1.15c.45 2.22 1 4.5 1.53 6.77l.1.5a7.33 7.33 0 0 0-.38-.09l.01-.03c-.38.01-.62.04-.85.22-.07-.16-.3.04-.4 0l.01-.02c-.2.17-.5-.02-.68.14.01-.02 0-.06.05-.08-.16.05-.37.13-.4.04-.38.1-.9.16-1.13.36l.01-.03c-.12.13-.18.05-.32.13h-.02c-.13.13-.44.1-.55.17l-.02-.06-.3.07.12-.01c0 .2-.25-.07-.45.1-.2.02-.34.46-.57.4-.08.1.06-.15-.08-.06-.02-.1.06-.07.01-.14-.14.07-.26-.05-.43.05l-.02-.07c-.2.18-.47-.01-.6.15-.23.1-.2-.2-.44.01l-.12-.08c-.1.01-.06.14-.2.1 0-.06-.16-.02-.1-.1-.3-.04-.53.25-.93.15-.06.14-.25.1-.3.2-.02-.05-.37.06-.18-.1.02-.01.05-.02.05 0l.01-.08c-.23-.1-.36.15-.57.17.07.01.15-.01.1.05l-.2.03.03-.07-.3.02.05.07c-.15-.01-.22-.13-.36.01-.06.07.15.08.01.13a3.52 3.52 0 0 0-.73-.01c.04.08-.03.1-.1.12l-.02-.07c-.23.15-.12-.14-.36-.01l.01-.06-.04.17c-.2.2-.15-.13-.36.12.1-.03.08.15-.05.14l.02-.08c-.06.03-.08.06-.13.06.03-.05 0-.1-.1-.08l.05-.1-.16.17c-.16-.05-.37.1-.45 0 0 0-.32.01-.37.13.05-.08-.13-.07-.1-.16-.07.1-.3.2-.4.14h.02c-.37-.02-.58.23-.92.2.03.08-.14.07-.08.17-.3.17-.64-.1-.7.25-.15.05-.2-.04-.27-.05l.03-.02c-.27.08-.35.1-.56.13-.1.05-.08.2-.28.2.05-.07-.03-.05-.1-.03.04-.02.05-.04-.05-.07-.01.02-.03.04-.04.05l-.01-.01c-.1.04-.1.06-.03.06 0 .01.01.02.03.04-.14-.06-.33.07-.37-.03-.34.1-.57.25-.85.35-.04-.05.02-.1.1-.15l-.2.06c-.01-.08.1-.07.17-.1-.27-.08-.48.23-.8.16l-.05.07-.02-.01c.01.03-.05.1-.1.1-.05-.06-.03-.16-.17-.13-.12-.04-.3.1-.45.16.08 0 .06.04.03.07-.07.02-.12-.04-.17 0l-.02-.1c.04.08-.17.13-.2.17-.05-.06.1-.08.1-.14-.28.06-.14.03-.42.1-.14.1.04.08-.01.18-.13.04-.25.13-.4.1l.06.07c-.24.1-.4.13-.58.08-1.74 1.03-.22 1-.22 1 .77.04 1.1-.27 1.97-.5.78-.1 1.02.01 1.8-.2.38-.06.78-.18 1.15-.27.15-.16.5-.1.68-.24l.1.05c.07-.05.15-.1.23-.07h0c.1-.07.23-.07.27-.1v.02l.13-.03v.03a1.4 1.4 0 0 1 .55-.14l-.03-.08c.38.02.48-.18.83-.13h0c.37-.3.7.03 1.08-.27-.05.04.03.04.03.06.2-.06.4-.12.37-.3.14-.03.13.03.16.1-.02-.07.1-.13.22-.15l-.05.04.32-.1-.1-.13c.18.01.08.16.23.1v-.1c.24-.02.4.12.66.16.96-.14 1.93-.63 2.85-.6l.06.08c.04.12.2-.23.26-.12l.1-.08c.03.02.1.03.05.07.1-.01.1-.03.16-.1l.12.06c.4-.01.68-.23 1.08-.27.5.07 1.37-.25 1.87-.44.7-.33 1.63.01 2.33-.35.03.01.08-.04.08-.05l.68-.1s.66-.12 1.15-.3l.17.75-.04.07a21.53 21.53 0 0 1-.5.8c-.7 1.06-1.5 2.1-2.54 3.08-1.32 1.1-3.27 2.62-5.53 3.7-1.12.54-2.3 1-3.45 1.3-1.14.35-2.2.5-3.1.58-1.28.1-2.62-.1-3.9-.57-1.3-.5-2.43-1.27-3.7-2.14-.35-.22-.6-.42-1.2-.65a3.18 3.18 0 0 0-.84-.13c-.3 0-.63.05-.93.15a2.09 2.09 0 0 0-.4.19c-.02-.06-.05-.12-.07-.17-.4-1.12-.7-1.9-.8-1.67-.03.16-.05.88.3 2.35a1.79 1.79 0 0 0-.34.6c-.06.15-.1.3-.1.47l-.05.33c-.03.2-.04.4-.07.58-.15 1.54-.1 3.02.03 4.44-.02.2.07.66.1.66.08 1.73.22 3.46.43 5.18 0 0 .2 1.57.58 3.6.4 2.04 1 4.47 1.67 6.4.24.63.7 1.07 1.14 1.33a2.64 2.64 0 0 0 1.2.37c.53.02.8-.1.8-.2.17-.04.23-.1.14-.12-.14-.07-.68-.1-1.43-.6-.36-.26-.78-.67-.85-1.28l-.17-1.15.17 1.15c.01.08.04.15.06.22-.06-.28-.1-.7-.17-1.1l-.23-1.55v.05c-.07-.4-.14-.5.13-.5h.13c.12-.01.23-.03.34-.04l.65-.08c.84-.1 1.6-.24 2.37-.4.27.14 1.88-.22 2.42-.24l-.05.02c1.38-.3 2.88-.26 4.2-.55-.05.02-.07.07-.38.1.98-.15 2.3-.36 2.4-.27 2.33-.33 5.6-.7 7.08-1.05l-.1.04c.84-.22 1.1-.16 2.05-.33.05.01.12 0 .1.01.92-.23 2.7-.36 3.46-.5l.06.06 1.85-.25-.7.07c.22-.2 1.42-.06 2.74-.35 1.26-.14 2.5-.7 3.82-.78.6-.16-.53.2.4.02.04.1-.43.12-.18.16.9-.16 1.5-.1 2.63-.3l.06.07c1.45-.32 2.8-.26 3.75-.5 1.5-.25 1.04.1 2.6-.26l.63.02c.68-.07.47-.18 1.22-.23-.04.07.95-.07.52.05 1.7-.12 3.42-.58 5.68-.7.47-.18 1.6-.26 1.95-.4.07.05 2.25-.28 1 0-.1.02-.3.05-.3.02l-.14.1c1.3-.03 2.3-.37 3.57-.5-.38.02-.87.1-.55 0l1.17-.14-.24.1 1.75-.2-.25-.05c.86-.07 1.18.02 2.12-.2.43-.12-.82 0 .08-.14l3.72-.32c.01-.03.03-.06.06-.07.02 0 .04.06.06.13l-.07.04c.4 1.33.03.65.28 1.82l.01.07c.01.03.01.06.02.1l-.06-.07c.07.07.13.15.18.24.05.47-.1.56-.2.64-.12.07-.15.2-.63.47.38-.18.32.13-.35.2.06-.03.13-.07.17-.1-.38.07-.54.12-.8.15.24-.07.12-.12-.5-.02l.4-.15-1.13.3c-.9.05-2.3.34-2.67.3 0 0-1.9.22-2.34.4.37-.12-.68 0-.4-.12-.48.15-1.94.42-2.53.42h.1c-2.17.22-3.68.64-5.64.8.1.07-.93.17-.66.25-2 .4-3.7.3-4.37.74-.9.15-1.1.07-1.57.12l.22-.05-3.47.5c-.63.12-.7.3-1.85.42.36-.1-.1-.04-.53.02.27-.05.35-.08-.2-.05-.08.03-.2.06-.3.1-.01 0-.03 0-.02-.01-.7.12-.58.12-.25.1-.02.01.01.02.12.02-.75.02-2.05.3-2.16.2-2.13.33-3.64.65-5.4.95-.2-.03.2-.13.7-.23l-1.26.2c0-.08.72-.15 1.1-.22-1.52.08-3.07.57-4.85.7l-.36.1h-.1c.01.03-.38.13-.64.18-.26-.03 0-.16-.88-.04-.7.03-1.95.3-2.85.47.5-.06.34 0 .13.06-.44.06-.7.03-1.03.1l-.05-.1c.18.06-1.12.26-1.28.32-.26-.03.67-.16.77-.22l-2.62.38c-.92.2.18.06-.25.2-.82.13-1.6.3-2.56.4l.3.04c-1.54.28-2.46.4-3.5.47-4.85.98-6 1.35-5.7 1.46-1.5.73 3.96.17 3.96.17 5.57-.47 8.36-1.27 14.92-2.3 5.8-.74 7.36-.7 13.34-1.63l8.7-1.3c1.3-.4 3.67-.52 5.2-.9l.62.03c.53-.14 1.16-.27 1.7-.28l-.03.04c.8-.2 1.7-.28 2.1-.38l-.03.04.98-.15-.16.07c1.4-.3 2.85-.5 4.13-.64l-.13-.13c1.38-.1 2.3-.28 3.2-.43a43.86 43.86 0 0 1 1.37-.22l.77-.1c.14-.01.3-.03.44-.04a2.64 2.64 0 0 0 .64-.14l-.04.05c1.12-.48 1.77-1.63 1.74-2.62.12-.23.08-.47.05-.63zm-44.32-29.48l.2-.04c0 .04.01.08.01.1-.07-.02-.15-.04-.22-.07zm.55-3.05c-.01.3-.1.6-.23.8.15.01.1.15.02.3l-.1-.06c-.1.27-.2.24-.28.22-.08-.03-.14-.06-.32.1v-.1a1.43 1.43 0 0 1-.03.29c-.07.1-.27.15-.36.16-.1.02-.17 0-.24-.01-.14-.02-.3-.03-.74.25.38-.1.24.23-.24.28l.1-.14c-.25.08-.33.15-.5.17.14-.1.04-.2-.33-.08l.22-.2-.67.38c-.6 0-1.43.37-1.7.25 0 0-1.22.2-1.45.44.2-.17-.46-.06-.3-.23-.28.2-1.17.52-1.57.46l.07-.03c-1.4.18-2.28.73-3.54.84.1.13-.57.2-.37.34-1.22.47-2.4.17-2.7.83-.57.16-.7.03-1 .07l.13-.06c-1.06.3-1.37.37-2.18.54-.4.15-.4.42-1.1.52.2-.16-.08-.07-.35-.01.17-.06.2-.1-.16-.1-.04.04-.1.08-.18.1-.01-.01-.02-.01-.02-.02-.44.14-.35.15-.14.12-.01.02.02.03.1.05-.5-.03-1.3.3-1.4.14-1.33.35-2.24.75-3.34 1.08-.15-.06.1-.2.4-.3l-.78.22c-.03-.13.44-.18.67-.26-1 .01-1.9.66-3.04.72l-.2.16h-.07c.02.05-.22.2-.34.23-.15-.1-.04-.25-.44-.22-.3-.1-.9-.1-1.3-.34.18.16.1.17-.03.14-.2-.13-.2-.3-.34-.4l.1-.12c-.08.18-.45-.36-.5-.43.05-.15.23.27.34.26-.38-.74-.16-.36-.53-1.4-.3-.54-.1.15-.33-.1-.2-.5-.45-.96-.54-1.57l-.08.22c-.4-.92-.56-1.5-.63-2.17l-.3-.62.24-.03c8-1.26 16.36-3.55 24.73-5.97l6.25-1.87c.13-.04.25-.07.37-.1.03.3.27 1.2-.05.56-.03-.06-.06-.18-.02-.18l-.14-.07c-.04.85.46 1.42.6 2.2-.02-.24-.1-.55.03-.36l.16.74-.14-.13.2 1.1.1-.18c.06.55-.1.78.2 1.35.16.25.05-.54.22.01l.07.6a2.4 2.4 0 0 1 .07.6zm-23.25 38.5l-.03-.14.03.14c.07.28.14.58.2.87-.06-.3-.13-.58-.2-.87zm.73 3.06l-.26-1.06.26 1.06a11.7 11.7 0 0 0 .17.6c-.08-.23-.12-.4-.17-.6zm62.94-11.75c-5.86.7-12.1 1.8-17.6 2.3l-.25-.06c-.12-.1-1.48.38-1.7.3l-.63.14c-.18 0-.56.02-.25-.05-.6.07-.6.1-1.02.2h-.64c-2.32.23-4.27.64-6.7.92-2.94.2-8.42 1.06-11.58 1.56-3.6.62-7.72.84-11.56 1.33.03-.14.02-.3.02-.3-.01-.58-.34-.76-.65-1.32-.2-.53-.1-.74-.42-1.24a4.98 4.98 0 0 0-.44-.74c-.18-.05-.18-.32-.35-.4l.03-.1c-.06-.03-.1-.07-.1-.13v-.01c-.1-.04-.1-.13-.15-.15h.02l-.06-.08h.03c-.12-.1-.2-.2-.25-.33l-.07.06c-.07-.28-.27-.26-.32-.53h.02c-.36-.1-.16-.5-.54-.6.05.01.02-.04.04-.05-.1-.1-.22-.22-.35-.1-.07-.08-.02-.1.02-.15-.06.05-.14 0-.2-.06l.05.01-.18-.16-.07.13c-.06-.12.1-.14 0-.2l-.08.08c-.1-.14-.06-.33-.14-.52-.53-.56-1.34-.7-1.84-1.18l.01-.1c.04-.12-.25.1-.22-.03l-.1.02c-.01-.03-.04-.07.01-.08-.06-.04-.07-.02-.14 0l-.04-.1c-.24-.16-.52-.12-.8-.24-.28-.28-.97-.32-1.36-.32-.55.06-1.07-.55-1.65-.4-.02-.02-.07.02-.07.03l-.5-.07c-.01-.04-2.4-.16-.64.97l-.01.03c.25.08.4.12.6-.01.01.17.2.04.26.1h-.01c.17-.12.3.15.47.05-.01.01-.02.06-.05.06.1-.01.27-.02.26.08.26.02.6.13.8.01l-.02.02c.12-.08.12.01.24-.02 0 .01.01.02.01.03.13-.08.3.05.4.03l-.01.07.2.04-.07-.03c.08-.17.12.15.3.08.13.06.4-.28.5-.14.1-.06-.1.1.02.08-.03.1-.07.04-.06.12.1-.01.13.14.27.13l-.02.07c.2-.07.25.2.4.13.18.01.02.24.23.18l.02.12c.06.05.1-.1.15-.01-.03.06.07.1 0 .12.12.17.4.03.52.3.1-.08.17.04.26-.01-.02.05.2.13.02.16-.02 0-.03-.01-.02-.03l-.05.05c.04.18.24.07.34.17-.02-.04-.06-.07-.01-.1l.1.08-.06.03.13.14.03-.08c.05.1 0 .2.14.18.07-.02 0-.14.1-.1.06.12.14.3.23.42.05-.07.08-.04.12-.03l-.05.06c.2.04-.07.16.1.22l-.05.03.14-.08c.2.01-.06.16.2.15-.05-.04.1-.13.13-.05l-.07.03c.04.02.08.01.08.05-.05.01-.1.06-.03.1l-.1.03.18.01c0 .13.17.18.12.28 0 0 .1.2.2.16-.08.01-.03.12-.12.14.1 0 .24.1.2.2h-.01c.07.24.33.27.36.5.07-.06.1.07.17-.02.22.13.03.47.36.36.07.08-.01.15.01.2h-.03a1.71 1.71 0 0 1 .22.33c.06.05.2-.02.24.1-.08-.01-.04.03-.02.08-.02-.02-.05-.02-.06.06.02 0 .04 0 .05.01l-.01.01c.06.06.07.04.06 0 .01 0 .02-.01.03-.03-.03.1.1.2.02.26.13.2.3.3.44.47-.04.05-.1.02-.15-.02l.08.12c-.07.03-.08-.05-.1-.1-.04.2.27.26.25.5l.07.01c.03-.01.1.01.1.03-.05.05-.15.06-.1.15-.03.1.12.2.2.27-.01-.06.03-.05.06-.04.02.04-.03.1.01.12l-.1.04c.07-.05.14.08.18.08-.05.05-.1-.05-.14-.04.08.18.04.1.13.27.1.07.08-.05.17-.04.05.08.15.14.14.26l.07-.06c.12.14.16.25.12.4.16.14.28.24.4.3l-2.08.32c-.15 0-.53.1-.52.1l-4.18.52-3.9.5c-.18.02-.36.05-.55.07l-.07.01.07-.01c.18-.02.37-.05.55-.07l.58-.08c-.46-2.65-.7-4.35-1.16-6.18.24-.33-.22-2.27-.17-2.93l.03.06c-.36-1.67-.02-3.48-.18-5.1.02.06.1.1.1.47a15.06 15.06 0 0 1 .05-2.04l.4.02-.3-.6c.03-.08.06-.14.1-.13 0-.1.05-.2.14-.25s.17-.07.4-.04c.05-.02.45.2.76.38l1.03.63c1.4.86 2.9 1.46 3.88 1.6h-.14c1.12.12 1.4.36 2.67.38.07.03.15.05.14.05.6-.04 1.5-.06 2.33-.15.84-.1 1.64-.24 2.1-.4l.1.1c.76-.18 1.5-.44 2.25-.7-.28.1-.56.17-.84.25.2-.38 1.77-.36 3.22-1.32 1.46-.7 2.43-2.17 3.74-3.1.5-.62-.36.63.44-.22.13.1-.34.44-.03.33.8-.8 1.5-1.17 2.37-2.3l.13.04c.52-.78 1.07-1.46 1.55-2.1.24-.3.48-.67.65-.92.13-.2.27-.36.4-.53.56-.4.88-.26 1.1-.2a2 2 0 0 0 .37.1c.23.07.52.13 1 .2l.7.35c.44.13.6.1.78.1-.02.15.01.3-.04.53-.16.3-.35.3-.42.64-.07.14-.1.32-.15.47.1.12-.08.2-.01.32h-.08c.02.04.03.08-.02.1h-.02c.03.06-.02.1 0 .13l-.02-.01-.01.05-.02-.02c.02.1 0 .17-.06.23l.08.03c-.15.1 0 .23-.16.3h-.02c.15.25-.25.2-.12.45-.02-.03-.05-.01-.06-.02-.01.1-.03.17.13.24-.03.06-.07.03-.13.01.07.03.08.1.06.13l-.02-.03-.03.14.14.03c-.07.05-.17-.05-.16.03l.1.04c-.06.08-.25.07-.36.13-.2.35-.1.87-.42 1.14l-.1-.02c-.12-.04.14.17.02.14l.04.06c-.03 0-.06.02-.08-.01-.02.04 0 .04.02.1l-.1.01c-.12.12-.03.3-.12.45-.23.12-.23.53-.24.77.06.36-.55.5-.46.87-.02 0 .01.04.02.05l-.13.26s-.58 1.27.8.7h.02c.12-.12.17-.2.1-.36.17.05.07-.1.13-.13l.01.01c-.1-.14.18-.14.1-.27.01.01.05.03.05.05.01-.07 0-.17.1-.14.04-.16.17-.35.06-.5l.02.02c-.08-.1.01-.08-.01-.16h.03c-.07-.1.06-.18.03-.24l.06.02.03-.12-.03.04c-.16-.1.14-.05.07-.18.05-.07-.3-.3-.17-.36-.06-.07.1.1.08 0 .1.03.04.05.12.06-.02-.08.13-.06.1-.15l.07.03c-.1-.15.16-.14.07-.25-.02-.12.23.02.14-.14h.1c.03-.04-.1-.08-.04-.1.06.03.07-.04.12.01.14-.07-.04-.27.17-.35-.1-.08 0-.12-.08-.18.05.02.07-.14.14-.02.01.01 0 .02-.02.01l.06.04c.16-.03-.01-.18.04-.25-.03.01-.04.05-.08.01l.04-.07.05.04.08-.1-.08-.01c.06-.04.2-.01.1-.1-.04-.05-.12.01-.1-.05.08-.05.2-.13.25-.22-.08-.02-.07-.05-.08-.08l.07.03c-.06-.14.17.03.13-.1l-.1-.06c-.1-.14.16.01.02-.16 0 .04-.16-.04-.1-.08l.06.04c0-.03-.03-.05-.01-.06.03.03.1.05.1 0l.07.06-.1-.12c.1-.03.04-.15.15-.14 0 0 .1-.1 0-.17.05.05.1-.01.17.04-.06-.06-.08-.18.01-.18h.01c.14-.1-.01-.28.14-.36-.08-.03-.01-.07-.12-.1-.05-.17.3-.15.01-.32.01-.07.1-.04.13-.06l.01.02c.02-.12.03-.15.07-.23-.01-.05-.16-.12-.1-.18.05.05.05.01.06-.01 0 .02.02.04.08.02-.02-.01-.02-.02-.03-.04.01-.04-.01-.04-.03-.03-.01 0-.02-.01-.04-.01.1-.02.05-.13.15-.1.03-.15-.03-.3-.02-.4.06.01.1.05.1.1v-.1c.07.03.02.06.03.1.16-.05-.04-.25.12-.3l-.05-.05h.01c-.03-.01-.06-.06-.07-.08.07.01.15.06.17.01.08-.02.02-.14.01-.2-.02.03-.06 0-.07-.02.01-.03.08-.02.06-.05l.1.03c-.1-.02-.06-.1-.1-.13.07.01.04.07.08.1.04-.1.02-.06.06-.17-.04-.1-.1-.02-.15-.08 0-.06-.04-.14.04-.17l-.1-.01c-.01-.07 0-.12.03-.15.28.1.8.26.4.23 1.67.58 3.5.8 5.58 1.45 0 .1 0 .2-.03.32-.16.3-.35.3-.42.64-.07.14-.1.32-.15.47.1.12-.08.2-.01.32h-.08c.02.04.03.08-.02.1l-.02-.01c.03.06-.02.1 0 .13l-.02-.01v.05l-.02-.02c.02.1 0 .17-.06.23l.08.03c-.15.1 0 .23-.16.3v-.01c.15.25-.25.2-.12.45-.02-.03-.05-.01-.06-.02-.01.1-.03.17.13.24-.03.06-.07.03-.13.01.07.03.08.1.06.13l-.02-.03-.03.14.14.03c-.07.05-.17-.05-.16.03l.1.04c-.06.08-.25.07-.36.13-.2.35-.1.87-.42 1.14h-.1c-.12-.04.14.17.02.14l.04.06c-.03 0-.06.02-.08-.01-.02.04 0 .04.02.1h-.1c-.12.12-.03.3-.12.45-.23.12-.23.53-.24.77.06.36-.55.5-.46.87-.02 0 .01.04.02.05l-.13.26s-.58 1.27.8.7l.02.02c.12-.12.17-.2.1-.36.17.05.07-.1.13-.13v.01c-.1-.14.18-.14.1-.27.01.01.05.03.05.05.01-.07.01-.17.1-.14.04-.16.17-.35.06-.5h0c-.08-.1.01-.08-.01-.16h.03c-.07-.1.06-.18.03-.24l.06.02.03-.12-.03.04c-.16-.1.14-.05.07-.18.05-.07-.3-.3-.17-.36-.06-.07.1.1.08 0 .1.03.04.05.12.06-.02-.08.13-.06.1-.15l.07.03c-.1-.15.16-.14.07-.25-.02-.12.23.02.14-.14h.1c.03-.04-.1-.08-.04-.1.06.03.07-.04.12.01.14-.07-.04-.27.17-.35-.1-.08 0-.12-.08-.18.05.02.07-.14.14-.02.01.01 0 .02-.02.01l.06.04c.16-.03-.01-.18.04-.25-.03.01-.04.05-.08.01l.04-.07.05.04.08-.1h-.08c.06-.04.2-.01.1-.1-.04-.05-.12.01-.1-.05.08-.05.2-.13.25-.22-.08-.02-.07-.05-.08-.08l.07.03c-.06-.14.17.03.13-.1l-.1-.06c-.1-.14.16.01.02-.16 0 .04-.16-.04-.1-.08l.06.04c0-.03-.03-.05-.01-.06.03.03.1.05.1 0l.07.06-.1-.12c.1-.03.04-.15.15-.14 0 0 .1-.1 0-.17.05.05.1-.01.17.04-.06-.06-.08-.18.01-.18l.01.01c.14-.1-.01-.28.14-.36-.08-.03-.01-.07-.12-.1-.05-.17.3-.15.01-.32.01-.07.1-.04.13-.06l.01.02c.02-.12.03-.15.07-.23-.01-.05-.16-.12-.1-.18.05.05.05.01.06-.01 0 .02.02.04.08.02-.02-.01-.02-.02-.03-.04.01-.04-.01-.04-.03-.03-.01 0-.02-.01-.04-.01.1-.02.05-.13.15-.1.03-.15-.03-.3-.02-.4.06.01.1.05.1.1v-.1c.07.03.02.06.03.1.16-.05-.04-.25.12-.3l-.05-.05h.01c-.03-.01-.06-.06-.07-.08.07.01.15.06.17.01.08-.02.02-.14.01-.2-.02.03-.06 0-.07-.02.01-.03.08-.02.06-.05l.1.03c-.1-.02-.06-.1-.1-.13.07.01.04.07.08.1.04-.1.02-.06.06-.17-.04-.1-.1-.02-.15-.08 0-.03-.01-.06-.01-.1.08.03.16.05.24.08.63-.04 1.92.45 2.4.42.05.1 2.65.77 1.1.53-.13-.02-.36-.1-.33-.12l-.2.07c1.44.65 2.76.66 4.23 1.13-.43-.17-1-.33-.6-.3l1.37.42-.32.01 2.02.68-.24-.2c.98.37 1.26.68 2.44.87.54.07-.9-.46.17-.17l4.88 1.95c-.1-.2.34-.02.8.13l.01.14c1.8.53.55.5 2.28 1.08l-.18.02.54-.04c1.56.5.73.58 2.32 1.18-.28-.17-.3-.27-.18-.27.13 0 .4.12.67.38l-.23-.03c.2.12.22.18.3.23.07.04.14.18.2.3-.2-.2-.22-.04.14.54-.12-.1-.24-.23-.36-.32.28.32.55.68.8 1.04.34.97 1.02 2.5.97 2.96l.27 1.07c.24-.01.46-.02.7-.04-.4-.06-.88-.03-1.38 0zm-44.38 12.17l-1.36.2 1.36-.2.85-.1-.85.1zm22.34-3.17c-.62.14-1.4.25-2.14.35.75-.1 1.52-.2 2.14-.35h0zm4.27-.54h0l.13-.05-.8.12.8-.12-.13.05zm.3-.05a43.17 43.17 0 0 1 3.1-.46 43.17 43.17 0 0 0-3.1.46zm3-.54h0l.78-.1-.78.1zm5.06-.66h0l.02-.02-.02.02zm6.63-1c.02 0 .02-.01.05-.01h0c-.02 0-.03 0-.05.01zm.17.03s-.01-.01-.03-.01c.02.01.04.01.03.01h0zm2.5-.56c0 .1-.32.18-.8.27.48-.1.8-.2.8-.27.33-.05.52-.06.63-.07-.1 0-.3.02-.63.07zm2.9-2.78h0c.01-.13.03-.15.05-.2-.01.06-.04.08-.05.2zm54.38-91.06v-.1c-.01.07-.01.1 0 .1z"/></svg>