<svg xmlns="http://www.w3.org/2000/svg" viewBox="0 0 480 480" xmlns:v="https://vecta.io/nano"><path d="M226.1 78.8l-7.5 24.5-2.2 5.7s3.2 4.1 10.8 5.7c5.2 1.1 8.7 1.2 11 1 1.9-.2 4.2-.6 3-4.1-1.7-5.2-1.1-8.5-1.1-8.5l2.7-14.7-16.7-9.6z" fill="#ea9d7d"/><linearGradient id="A" gradientUnits="userSpaceOnUse" x1="229.193" y1="95.709" x2="236.065" y2="86.861"><stop offset="0" stop-color="#bc5a32" stop-opacity="0"/><stop offset=".99" stop-color="#bc5a32"/></linearGradient><path d="M224.9 92c2.5 3.8 6.9 7 9.4 8.2 3.5 1.7 6 2.1 6 2.1l2.2-12.2-16.4-11.3-.9 1.7-.7 2.8c-.1.1-1.9 5.2.4 8.7z" fill="url(#A)"/><path d="M254.8 61.6s.2 11-1.2 18.4c-1.1 6-4.1 9-7.3 10s-8.6-1-12.5-3c-3.3-1.7-5.2-3.5-5.7-5.6-.5-2.2-1.5-5-1.5-5l.2-6.5 7.7-16.4 20.3 8.1z" fill="#ea9d7d"/><linearGradient id="B" gradientUnits="userSpaceOnUse" x1="241.093" y1="64.416" x2="233.077" y2="53.307"><stop offset="0" stop-color="#bc5a32" stop-opacity="0"/><stop offset=".99" stop-color="#bc5a32"/></linearGradient><path d="M233.2 72.1s4-6.6 7.4-8.6c4-2.3 10.6-3.7 10.6-3.7l-17.5-5.5-.5 17.8z" fill="url(#B)"/><linearGradient id="C" gradientUnits="userSpaceOnUse" x1="235.063" y1="67.747" x2="225.821" y2="48.997"><stop offset=".017" stop-color="#4f211e"/><stop offset=".995" stop-color="#743529"/></linearGradient><path d="M221.3 52.4c-3.8 3.7-6.3 7.9-7.6 13.8-3.2 15.5 9.9 19.6 9.9 19.6s3-11.9 5.7-13.6c2.6 1.2 5.1.6 5.7-3.9.7-5.1.6-8.7 1.4-9.3 1.1-.8 2.8.2 9.3 2.1s10.8 2.2 11.5 1c.6-.4-1.8-4.6-5.1-8.9-3.5-4.5-9.5-7.2-14.5-7.4-5.2-.4-10 .4-16.3 6.6z" fill="url(#C)"/><ellipse cx="224.4" cy="75.3" rx="5.3" ry="5.7" fill="#ea9d7d"/><path d="M217 109.2h-.1a.55.55 0 0 1-.3-.5l4.7-14.4c.9-3 3.6-13.1 3.6-13.1a.55.55 0 0 1 .5-.3.55.55 0 0 1 .3.5l-3.6 13.1c-.8 2.7-4.7 14.3-4.7 14.3 0 .3-.2.4-.4.4z" fill="#cf7653"/><linearGradient id="D" gradientUnits="userSpaceOnUse" x1="224.487" y1="78.667" x2="224.824" y2="73.339"><stop offset="0" stop-color="#cc7a5e" stop-opacity="0"/><stop offset=".924" stop-color="#aa5f4b"/></linearGradient><ellipse cx="224.7" cy="75.3" rx="2.4" ry="2.5" fill="url(#D)"/><g fill="#b76349"><path d="M227.8 79c-.9 1-2.1 1.6-3.4 1.6-2.7 0-4.9-2.4-4.9-5.3s2.2-5.3 4.9-5.3c1.9 0 3.6 1.2 4.4 2.9 0 0 .2.1.5-.1s.2-.6.2-.6c-1-1.8-2.9-3.1-5-3.1-3.2 0-5.8 2.7-5.8 6.1 0 3.3 2.6 6.1 5.8 6.1 1.4 0 2.5-.4 3.5-1.2l-.2-1.1z"/><path d="M243.4 90.6c-1.1 0-2-.2-4-.7-3.2-.8-7.7-3.3-10-5.5-2.2-2.2-2-4.3-2-4.4 0-.2 0-.5.2-.5s.3.2.4.4c.1.4.1 2.1 1.9 3.9 2.1 2.1 6.6 4.5 9.6 5.3 3.1.7 3.7.9 6 .7 2.2-.2 3.3-1 3.3-1 .4-.3.5-.3.3 0-.2.2-1.3 1.3-3.5 1.7-.9.1-1.5.1-2.2.1z"/></g><g fill="#a84d3b"><path d="M228.9 84.6l.2.5.4-.4z"/><path d="M228.9 84l-.3.9 1.1-.2zm5.3 3.8v1.1l1.1-.5zm-2.7-1.7l-.1 1.1 1.1-.4zM230 85l-.2 1.1 1.2-.3z"/><path d="M228.2 83l-.4 1h1.2zm7.5 7.2l-.5-.6-.4.7zm-1.4-1.1l-.6-.8-.3.9zm4.1 2.1l-.7-.7-.2.8zm3 1.1l-.7-.8-.3.9zm-5.3-3.6l-.6-.3v.9zm1.4 3.1l-.5-.5-.3.7zm-3.9-4l-.6-.4-.1.9zm5.3 2.1l-1-.4.1 1.2zm1.9.3l-.8-.1.2.9zm1.3 1.6h-.8l.3.7zm-2.8-.2l-.3-.7-.5.7zm2.4 2.3l.1-.7-.8.2zm-.2 1.3l.1-.7-.8.2zm-1.7 0l-.4.3.5.3zm.3-3.9l-.4.4.6.3zm2.3-.7l-.6-.1.2.6zm-1.9 5.8l-.4.3.6.3zM230.6 86l-.4.3.5.3zm-3.4-4.6l-.4.3.5.3zm10.1 9.4l-.3-.3-.1.5zm-2.8-.8l.1-.4h-.5zm1.4.9l.2-.4h-.5zm2.1 2l.2.5.5-.4zm2.9-2l-.3.3.4.2z"/><path d="M241.1 90.4l-.5.4.6.3zm-1.2.4l-.4.3.4.2zm.4 7.1l-.4.2.4.3zm-1.1-1.1l.2.4.3-.4zm-.1-2.4l.2.4.3-.4zm1.9.9l-.3-.2-.1.4zm-13.9-4.7l.2.2.2-.3zm1.9-1.2l-.2.2h.3zm2 3.5l-.3-.1.1.4zm-1-1.7l-.2.3h.4zm6.9 3.2l-.1.6.6-.3zm-.9-4.5v.5l.5-.2zm0-1v.5l.6-.3zm-7.7-3.1v.6l.5-.3zm12 7.3l-.5.1.4.4zm-1.5 4.2l-.2-.4-.4.4zm.3-5.2l.3.4.3-.5zm1.6.6l.3.5.3-.6zm1-1.9l-.3.4.5.1zm-.6 3.2l-.4-.3v.6zm-11.3-8.9l-.6.4.7.4zm-2 .8l-.3-.3-.1.5zm-2-1l-.2-.2-.1.4zm-.5 3.1l.1-.4h-.4zm3.8-2.2l.2.4.4-.4zm-1.2-1l.3.6.5-.5zm-.2-2.7l-.4.6.8.1zm3 4.8l-.3.2.4.3zm.8-.4l-.3.2.4.2zm.8.4l-.3.2.3.3zm-1.5 2.7l-.2-.2-.1.4zm-6-3.4l.2.3.3-.4zm2.3-2.3l-.3.2.4.2zm-.1 3.7l-.3-.2-.1.4zm.3-4.1l.2.3.3-.4zm1 .5l.2.4.3-.4zm-2.3-1l-.3.3.4.1zm.3-1l-.3-.2-.1.4zm5.3 5.5v.4l.5-.2zm1.9.8l-.4.1.3.3zm-.8-.8l-.4.1.3.3zm6.7 3l-.4.1.3.3zm-1.5-.6l-.3.1.2.3zm-4.7.7l-.1-.3-.3.3zm5.6 5l-.1-.3-.3.3zm-6.1-6l-.2-.3-.3.3zm2.6-.6v.5l.4-.2zm1.6.4v.4l.4-.2zm1.8.9l-.4.1.3.3zm-1.4 2l-.2-.3-.2.3zm-4.3-.1v.4l.4-.2zm1.9-1l-.3.1.2.3zm3.4.8l-.1-.3-.3.3z"/></g><g fill="#f4b9a6"><path d="M244.7 76.5l.6-.4-.7-.4zm-7.6-1l-.2-.5-.5.5zm9.7.4h.9l-.5-1zm-1.6-3.1l.6.5.2-.8zm.4-.9l.9-.5-.8-.6zm1.6 8.1l.8-.4-.7-.7zm2.3-.9l.4-1h-1zm-5-3.4l-.7.1.3.7z"/><path d="M245.1 74.8l-.8.1.5.6zm-.5 3.7l.2.7.6-.5zm.2 1.4l.6.4.2-.7zm3.4 2.5l-.7.1.4.6zm-1.5-15.3l-.3.5h.8zm.3 4.4l-.6-.2.2.7zm.8-2.1l-.6-.2.2.7zm-4.3 2.8l-.1.6.8-.1zm.9-3.1l-.7.3.7.5zm-2.9.7l-.5.1.3.4zm5.5 12.4l-.7.2.4.5zm-.7-.4l-.6.1.4.6zm-4.9-4.3h-.6l.3.6zm1.4 1.3h-.6l.3.6zm-1.7-3.4l-.2.6.7-.2zm3.2-.4l-.1-.5-.6.5zm6 5.8l.3-.4-.6-.1zm-2.2-1.9l.3.1v-.4zm4.1-3.9v.5l.3-.2zm-2 1.9l.4.1v-.5z"/><path d="M252.3 75.8l.1-.4h-.4zm-12.4-4.6l-.3.4.5.1zm5.9-2.3l.8-.1-.5-.7zm-.1 8.8l.9-.1-.7-.8zm-.6-5.8l-.6-.1.1.6zm-4.9 3.9v-.6l-.7.3zm4-5.6v.7l.8-.4zm-.9 1.3v.7l.8-.3zm.7-.5v.7l.8-.4zm5.9.2l.6.3.1-.7zM245 74l-.3-.4-.4.5zm2.3 7.6l-.5.1.4.5zm-2.4-4l-.2.4.6-.1zm.4 3l-.3-.5-.3.5zm.9.5l.4-.3-.6-.2zm.3-1l.4-.3-.6-.4zm-.3-.8l.6-.3-.6-.4zm.1-2.6l.5-.3-.6-.4zm-1.2.1l.4.4.2-.5zm4.9 4.6l-.6.1.4.5zm-2.4-5.2l-.2.4.6.1zm.9 5.5l-.3-.4-.3.4zm-3.2 1.5v.6l.7-.3zm-1.2-3l-.6.2.4.4zm-5-6.3l-.3-.4-.3.5zm5.2 7.7l.3.2.2-.6zm-1.5-1.2l.4.3.1-.6zm-1.1 3.9l-.3.4h.6zm-.8-.7l-.6-.1.2.5zm-1-.2h-.5l.1.5zm5.6-7.7l1.1-.2-.8-.9zm-.5-2.5l.2.5.4-.5z"/><path d="M245 74.1l.4.9.8-.9zm2.7-1.1l-.8.7 1 .3zm-6.7 1v-.4l-.5.2zm6 0l-.4.3.5.2zm-1.7-3.3l.6-.1-.4-.5zm3.8 1.7l.6-.1-.4-.6zm-4.2-.3l.6-.1-.5-.6zm4.6-2.6l.6-.1-.4-.5zm-2-1.5l-.5.2.6.3zm-5 1.3v-.4l-.5.2zm0 7.9l-.2.7.9-.2zm-.9-.5l-.7.1.3.6zm1 2.9l-.1.6.7-.2zm1.1-2.6l.1.7.7-.3zm-.7 1.3v.8l.9-.4zm-.6-2v-.6l-.5.3zm8.2-3.5l.6-.1-.4-.5zm-2.1-2.2l.2.4.4-.4zm3.9 7.4l.5-.2-.4-.3zm-8.7-8.7v-.4l-.6.2zm3.6 1.5l-.1.6.7-.2zm-.7-1.2l-.1.6.7-.2zm1.5 4.5l.8.6.4-1zm1.2 1.6l1-.2-.6-1zm-3.5.3l.5.1-.1-.3zm.1-2.5l-.2.4.6.1zm1.2-1.2h-.6l.4.6zm1.9.4l-.6.1.3.6z"/><path d="M247.1 73l1.1-.5-1-.7zm1.8-4.4l.4-.6-.8-.1zm-3 9.9l.4-.6h-.9zm.3-4.4l.9-.4-.9-.6zm1.3-4.1l.3.3.2-.5zm1.2 1.1l-.7.8 1.3.2zm1-1.2l-.3.4.6.1zm.2 3.9l.4.4.3-.5zm-1.2-4.5l-.3.4h.6zm-8.3 4.4l-.6.2.5.5zm2.9-.8l-.4.5h.7zm-.6.8v-.4l-.5.3zm-.6.5l-.1-.4-.4.3z"/></g><g fill="#a84d3b"><path d="M243.4 60.3l-.1.5.4-.1zm1.5.5l-.4-.1v.5zm-.7-.1l-.3-.3-.1.5zm-8.2-1l-.2 1.1 1.1-.3zm5.2-.1l-.2.5.6-.1zm-1.9 0l.2.6.4-.4zm-1.3 1.2l.1.2.2-.2zm-2.4 2l-.1.6.7-.2z"/><path d="M238.5 58.8l-.5-.1v.5zm3.8 1.2v.5l.4-.4zm-1.7-.2l.1.5.4-.4zm4.5 1.1l.1.4.4-.3zm-3-.1l.1.3.4-.2zm-2.5-.4v.4l.5-.3zm-.9-.8l.2.4.4-.3zm2.9.5l.2.2.1-.2zm1.1.3l.2.2.2-.3zm3 .7l.1.2.2-.2zm-9.6 2.3l-.2.1.2.2zm1.1-3.4l.2.5.5-.5zm-.7-1.2l.3.7.6-.7zm-.1 3.8h-.4l.2.4zm.2-.3l-.1-.4-.3.3zm1.1.4l-.1-.3-.2.2z"/><path d="M239.4 61.9l-.1-.3-.2.2zm.7-1.5h.5l-.2-.4zm.2-.6l.7-.2-.6-.2zm-2.1-.1l.2.3.3-.2zm.6.9h.4l-.3-.4zm-2.7 3.3v.4l.4-.2zm.6-1v.2l.2-.1zm1.5-2.9l-.3.2.4.2zm-2.6 3.5l-.1.3.5-.2zm0 .8l.3-.2-.4-.2zm-.1 1l.3-.2-.4-.1zm-.1-.6l.4-.1-.3-.4zm-.1 1.8l.4-.2-.3-.3zm.1-.7l.4-.2-.4-.3zm2.6-7.1h-.8l.2.8zm-1 2.2l.3.3.2-.5z"/><path d="M239.3 59.1l.2.9.7-.7zm-2.8 2l.3.3.2-.5zm4.6-.6l.4.2v-.6zm-5.5 2.1l.7-.2-.6-.6zm.7-3.6l-.3.6.8-.1zm1 2.5h-.4l.2.4zm-.4-1.2l-.4.2.4.3zm1.1-1.1l.1.4.3-.3zm-1.5 2l-.7-.4-.1.8zm0-1.6l-.4.1.4.3zm1.4-.3l-.4.2.4.3zm-.8.2l-.4.2.4.3z"/><path d="M236.2 60.7l-.1.3.4-.1zm3.1-1.6l-.7-.2.2.8z"/></g><g fill="#964c38"><path d="M226.9 75.9v-.4l-.4.1zm-1.7-3l-.4.1.3.4z"/><path d="M225.1 73l-.5.6.9.2zm-.9-.1l-.6.2.5.5zm2.6 1.5l-.3.2.4.2zm-.9-.5l-.3.3.4.1z"/><path d="M226.5 74.6l-.2.3.4.2zm-2.2-.8l-.3.2.5.2z"/><path d="M223.8 73.5l-.4.5.7.2zm1.7 1.8l.2.2.1-.3zm1.1-1.2l-.1.2h.3zm.2.9l-.1.3h.3zm-3.6-1.6l-.4.4.6.1zm.8 1.5h-.2l.1.3zm.6.9l-.1-.3-.2.2zm.8-2.5l.2-.2-.3-.2zm-1.2 0l-.3.3.5.1zm-.5.3l-.3-.2v.4z"/><path d="M223.7 73.6v-.3h-.3zm2.4.4l.2.3.2-.3zm-.4-.9l-.1.7.7-.2z"/><path d="M225.4 73.6l.3.2.1-.4zm-2.4.9l-.2.3h.3zm1.8-1.6l-.3-.1.1.4zm-.6 1.8l.2.3.2-.4zm.8 1.3l-.1.2.3.1zm-2.1-2.2l-.2.3.4.1z"/><path d="M223.8 76l-.3-.1.1.3zm-1.1-1.6l.3-.1-.2-.3z"/><path d="M222.4 75.5h.2l-.1-.3zm.2-1l.2-.1-.1-.2zm.7-.3v.3l.3-.2zm-1 .9h.4l-.2-.4zm.6.1v.2l.3-.2zm2-1.3l-.3.2.3.2zm1.4 1.5l.1.4.3-.2zm-2-2.2l.1.4.3-.3zm1 1.1l-.2-.2-.1.3z"/></g><path d="M238.3 68.4a.78.78 0 0 1-.2-1c.1-.1 1.7-2.5 5.3-2.2.4 0 .7.4.7.8s-.4.7-.8.7c-2.7-.2-3.8 1.5-3.9 1.6-.3.4-1 .2-1.1.1zm14.9-1.8c-.1 0-.3 0-.4-.1-.7-.5-1.5-.4-1.6-.4-.4.1-.8-.2-.9-.6s.2-.8.6-.9c.1 0 1.5-.4 2.8.7.3.2.3.7.1 1-.1.2-.4.3-.6.3z" fill="#7a3e2b"/><path d="M243.8 84.4h0c-3.8-.2-5.4-2.9-5.8-4.4-.1-.4.1-.8.5-.9s.8.1.9.5c0 .1.8 3.1 4.4 3.3.4 0 .7.4.7.7 0 .5-.3.8-.7.8z" fill="#cf7653"/><path d="M247 78.9h-.2c-.4 0-.6-.4-.6-.7 0-.4.4-.6.7-.6.2 0 .7 0 .9-.6s-.3-1.5-.5-1.8-.2-.7.1-.9.7-.2.9.1c.1.2 1.2 1.6.8 3-.4 1.2-1.4 1.5-2.1 1.5z" fill="#b4603f"/><g fill="#4f2b23"><circle cx="241.8" cy="72.1" r="1.4"/><path d="M241.6 71.7c-.2 0-.9.1-1-.1-.1-.3.5-.7.8-.9 1-.5 1.8-.4 2.1-.4a.47.47 0 1 1 0 1c-.3 0-.9 0-1.7.3-.1.1-.2.1-.2.1z"/><circle cx="252.2" cy="71.3" r="1.4"/><path d="M252 70.9c-.2 0-.9.1-1-.1-.1-.3.5-.7.8-.9 1-.5 1.8-.4 2.1-.4a.47.47 0 1 1 0 1c-.3 0-.9 0-1.7.3-.1.1-.2.1-.2.1z"/></g><linearGradient id="E" gradientUnits="userSpaceOnUse" x1="218.658" y1="88.626" x2="191.121" y2="63.876"><stop offset=".017" stop-color="#4f211e"/><stop offset=".995" stop-color="#743529"/></linearGradient><path d="M225.1 46.6s-1.8-4.4-8-4.8c-5.6-.4-9.6.7-13.2 6.7-2.3 3.8-6.1 5.2-11.2 6.5-4.2 1.1-9.1 4.8-8.6 12.1.6 7.3 0 11.2-3.9 14.5s-8.7 16.6 5.4 25.3c12.7 7.9 26.6 1.9 30.7-9 4-10.5-1.1-16-4.5-23.2-3-6.3-.8-13.6.9-15.4 2-2.3 3.1-1.8 3.1-1.8l9.3-10.9z" fill="url(#E)"/><linearGradient id="F" gradientUnits="userSpaceOnUse" x1="215.624" y1="64.769" x2="219.914" y2="53.459"><stop offset=".007" stop-color="#ff7a00"/><stop offset=".983" stop-color="#ffb600"/></linearGradient><path d="M215.8 60l-2.4-1.6s-1.3-2.1 3.7-8c4.6-5.4 7.5-5.4 8.1-4.8l2.3 2.1s-8.7 5.5-11.7 12.3z" fill="url(#F)"/><g fill="#934634"><path d="M206.5 45.2l1 .4-.1-1.3zm7.4-2.4l-.5.1.3.4zm9.3 1.3l-.4.1.3.4zm-2.1.3l-.1-.4-.4.3zm-11.9-.8l.1.8.8-.4zm9.4.3v.5l.5-.2zm1.2-1.6l.2.9.8-.6zm-1.1-.3l.2.9.8-.6zm-13.1 4.1l-.5.7.9.3zm-.6.7l-.5.8 1 .2zm.4 2.3l-.5 1.1 1.4.1zm-1.5-.4l-.5.8 1 .2zm9.8-6.9l-.8.1.5.9zm-2.6 2.7l-.5-.9-.6.8zm1.7-.5l-.3-.8-.8.7zm2-.4l1 .5-.1-1.3z"/><path d="M214.2 41.8l.8 1.1.9-1.1zm.7 2.6l-.1.5.5-.1zm-7 4.3l-.1.5.5-.2zm-1.6.7v.5l.4-.2zm-.2-.9v.5l.4-.2zm-.5 2v.5l.5-.2zm-.8-.1v.5l.6-.2zm-.4.5v.5l.5-.2zm8.8-7.6v.5l.4-.2zm8.5.9l-.1.5.5-.1zm-7.9-1.2l.4.2-.1-.5zm3.6 1.1l.4.1-.1-.5zm2-1.1l-.5.1.4.3zm-12.3 8.1h.4l-.2-.5zm0-2.4l.1.3.3-.3zm3.4.9h-.3l.3.3zm-1.6-.6l.2.3.3-.3zm1.8-.4l-.3.1.3.2zm2.1-.9l-.3-.2-.1.3zm3-1.8l.4.4.2-.6zm-3.9-3.8l.6.8.5-1zm-5.5 5l.5.4.1-.7zm11.3-5.2l-.7-.1.2.8zm.8.1l-.7-.1.2.8zm3.2 1.1l-.6-.3.1 1zm-9.4-.1l-.6-.3.3.8zm3.3-.4l.6.1-.1-.7zm.8 1l.6.1-.2-.6zm-.2-.8l.6.2-.3-.7zm-3.6 3.5v.5l.5-.2zm5.9-3.9l-.4.2.4.4zm-14.2 7.7v.5l.6-.3zm-.5-.4l-.1.4.6-.2zm-.8 1.2l.8.1-.2-.8zm-.4 0l-.2.6h.8zm3.7-4.6l-.4.2.3.2z"/><path d="M203 50.9l-.3-.7-.7.8z"/><path d="M203.7 50.3l-.3-.8-.7.7zm1.3-2.7l1 .3-.3-1.1z"/><path d="M205.7 48.2l.8.2-.1-.9zm1.7-1.6l.4.1-.1-.6z"/><path d="M206.7 45.4l-.2 1.4 1.5-.4zm-2.2 2.2l-.5.7 1 .3zm2-2.5l-.8.9.8.1zm1.7 2l-.4.1.3.3z"/><path d="M205.5 49.3l.5.2-.2-.6zm-.6-.6l.9-.2-.8-.8zm-.5 3.7v.3l.3-.2zm.4-3.3l-.5.1.6.5z"/><path d="M204.6 48.6l-.6-.2.3 1.1zm.8 3.3h.5l-.2-.5zm1.9.2l.1.4.3-.2zm-5.8-.5l-.3 1 1-.1z"/><path d="M202 50.9l-.7.7.9.4zm1.6 4.5l-.4-.2v.5zm-.7-3l.3-.2-.3-.3zm3.3-1.2l.2-.3-.4-.2zm-6 1.1l.8.5v-1zm-1 .6l.8.5.1-1zm-1.1.4l.9.7v-1zm-1.2.5l.9.7.2-1.1zm9.4-1.9l.3.2.1-.4zm.3-1.1l.4-.3-.4-.3zm-1.9 2.3l.3.2.1-.5zm3.2-3.5l-.1.3.4.1zm.1 2l-.2.4h.5zm-.4-6.2l.3.4.2-.6zm1.6-2.4l-.8.6.8.7z"/><path d="M208.4 43.6l-.9.6 1.1.8zm1.9 2.2l-.9-.2.1.9z"/><path d="M218.1 43.2h-.3l.1.4zm-8.7 2.4h-.4l.1.3zm1.1-3.1l.7.7.4-1zm.5 3.7l.5.3.1-.5zm-1.6-3.2l.7.6.2-1zm3.5 2l.4.4.1-.6zm1.4.7l.3.4.2-.5zm-.2-3.6l-.3.3h.5zm-1 .9h-.4l.1.4zm1.6.7l-.4-.1.1.4zm5.8.5l.5-.7-.9-.2zm-1.1-.9v.5l.5-.3zm2.6 0v.7l.6-.4zm-5.9-1.3l.5.4.1-.6zm4.2 1.2l.6.1-.2-.6zm1.1.9h.5l-.2-.6zm1.3.1l-.4-.1.1.5zm-2.5.2l-.4-.1.1.4zm-9 2.9l.4.3.1-.5zm.6-2.4l-.2.4h.4zm2.2 1.4l-.4-.1v.4zm-13.8 10.8l-.3-.2.1.5zm2.7 1.8h-.3l.2.3zm-3.5 1.6h-.3l.2.3zm4.9-1.8l-.1-.3-.3.2zm-8.5 2.6V61l-.4.1zm5.4-2.9l-.1-.3-.3.2zm1.4-2.3l.2.5.3-.4zm1.8 1.9l-.2-.3-.2.4zm.8-3.7h-.3l.2.3zm.1 1.2h-.3l.2.3zm-8.3 4.7h-.3l.2.3zm-5.8 3.3h-.3l.2.3zm15.4-9.4v-.3l-.4.2zm-3-.3l-.1-.3-.3.2zm3.2-.3l-.3-.4-.1.4zm8.1-10.7l-.4-.1.1.4zm-3.3 1.2l-.7.3.7.7zm0-.7l-.4.2.4.3zm-2.1 3.9l-.3-.4-.2.5zm-1.4-1.2v1.1l1.1-.4z"/><path d="M207.7 46.1l.1.4.3-.2zm1.9.6l.2.4.2-.4zm-.4-1.9h-.5l.3.4zm-.4-.7h-.7l.4.6zm-.8.5h-.7l.4.7zm2.8-1.8h-.6l.2.7zm1.3-.4l-.7-.1.3.7zm-1.8 2.5l-.2-.3-.3.4z"/><path d="M210.5 46.3l-.2-.3-.3.4zm-.5-1.2l.5.3v-.7zm3.4-.9l.5.1-.3-.7zm-6.6 3.8l.5-.1-.3-.5zm-22.5 19.7l1-.6-1.1-.6zm.1 1.5v.8l.9-.5zm0 1.1v.9l.9-.3zm-.1 3.6l-.2 1.1 1.4-.1z"/><path d="M184.4 72.7l-.1 1 1-.3zm3.4-3.3l.3.4.2-.4zm-1.5 1.6l.3.4.3-.4zm1-1.1l.2.2v-.4zm-1.6-.8l.6-.1-.4-.6zm-.6-.5l-.2.4h.4zm0 2.1l.9-.6-.9-.5z"/><path d="M185.9 70.5l.7-.3-.6-.6zm.1-2.7l.3-.3-.5-.2z"/><path d="M184.7 67.8l.9 1 .6-1.3zm-.3 3.6v.8l1-.3zm-.1-3.7l.1 1.2.6-.5zm2 4.5l.4-.1-.4-.4z"/><path d="M185.4 72l.6-.6-1.1-.2zm.1.4l-.3.4.8.1z"/><path d="M185.1 72.1l-.6.2.8.7zm.1-5.2h.5l-.3-.5zm.6.4l.3.1.1-.4zm.8 2.4l.3-.5-.6-.1zM208.9 46l.5.2-.1-.6zm2.9-2l-.2.4.4-.1zm-.5 1.2l-.5.1.3.4zm1.5.3l-.4-.1.2.4zm-2.6 1.9l-.2.4.5-.1zm2.5-2.9h-.3l.2.4zm4-.4l.2.5.5-.3zm-.7.6l.4.4.1-.6zm2.1-1.1l.3.3.1-.6zm-1.1-.1l-.2.4h.4zm-.7.3l-.4-.1.1.5zm2 .2h-.4l.3.4zm-.5-1h-.4l.2.5zm-8 4.7l-.4-.2.1.6zm-22.9 10.9l1.1.3-.2-1.2zm1.8 5.4h-.5l.3.5zm6.1-2.7l-.2-.5-.3.4zm-5.1-3.7l.1 1 1-.5zm8.8-3.5l.4.4.3-.7zm4.1-1.5l.3.5.3-.5z"/><path d="M185.4 60.9l-.8 1.6 1.5.1zm-.8 2.1l-.2.8.7-.4zm2.1.6l-.1.6.7-.1zm-1.3-.2l-.1.5.6-.2zm8-8.5l-.7.1.8.9zm-2.2 3.2l-.1-.4-.4.4zm2.1-.5l-.4-.7-.6.8zm2.6-1.6h.5l-.4-.6z"/><path d="M195.6 57.7l.1.5.5-.3zm-7.9 4.5l-.2.4h.5zm-2.1 0v.4h.5zm6.5-2.1l-.1.4h.5zm16.2-9.9l.3.3.2-.5zm-7.9 5.7l-.1.4.4-.1zm-1.9.5h-.4l.2.5zm1-1.1l.2.4.2-.4zm2.3.6l-.3.3.5.2zm.7-1.3l.2.4.3-.5zm-2.1-.3l.4-.2-.5-.3zm-2.7.5l.4-.1-.4-.4zm1.5-1.7l-.2.5h.6zm-12.7 10.8h.3l-.1-.4zm.7-2.2v.3l.4-.1zm2.1 2.3h-.3l.2.4z"/><path d="M188.1 62.8v.3h.4zm2.9 2.3l-.3.1.2.2zm-3.7 1.3l-.2-.2v.5zm9.8-7.5l.5.2v-.7zm-5.6-3.4l.8 1 .3-1.4zm-4.5 4.7l.3.4.3-.6zm9.9-6.2l.2.4.4-.2zm4.1.7l-.4.3.6.2zm.6-2l-.4.6.9.1zm-1.7.8l-.7.5 1 .4zm-3.9 1.9l-.2-1.2-1.2.3zm1.7-1l.5-.3h-.7zm-1.1-.4l-.7.2.9.8zm-4 7.6v.6l.7-.1zm5.8-8.2l-.2.4h.5zM186 64l-.1.4.5-.1zm.8-4.2h-.4l.3.4zm-1.7 5.3l-.4.1.3.4zm.3-.4l-.2-.4-.3.4zm.2-3.6l.5.2-.1-.5z"/><path d="M187.5 60l.5.2v-.6zm-.8-1.2l-.7.8 1.2.3zm-.4 3l-.1.7.7-.2zm1.9-1.3h-.9l.4.9zm-2.6.1h.8l-.4-.8zm-1.3 3.7l-.2 1 1.1-.3zm2.4-1.4l-.7.1.5.6zm-2.2 1.5l.4.1V64zm8.2-4.3v.5l.5-.2zm-7 5.4l-.4.1.3.4zm6.8-7.8l-.5.4.6.3zm-1-1.2l-.4.3.6.4z"/><path d="M193 56l-.4.4.4.1zm-1.9 1.9l-.3.3.4.2zm.9-.2l.3.4.2-.5zm-5.5 3l.4.7.5-.7zm1.8-1.1l.1.3.3-.2zm6.5-4.3l.4.1.1-.5zm-.9.7l.2.2.3-.4zm-5.1 2.7l.2.3.2-.3zm2.9-1.2l-.5.4.6.2zm-.9 0l.3-.7-.8.1zm1.5-.5l-.4-.2v.5zm-.8 1.3l-.2.3.4.1zm-1.7-.5l-.7-.4-.2 1zm-4.2 8.3l.3-.3-.4-.2zm-1.4-.2l.5.6.2-.8zm3.7-6.9l.2.3.3-.4z"/><path d="M188.6 57l-.7.7 1 .4zm-3.8 5.2l-.4 1.1 1.1-.4zm3.9-4l-.4.2.5.3zm2.1 2l-.6-.4-.2.7zm8.2-5.1l-.3.2.4.2zm-.9.3l.5-.2-.5-.3zm-3.5 3.2l.8.5.2-1.2zm2.1-2.2l.6.4.1-.8zm-3.1.4l1.2.2-.4-1.2zm-3.4 2.3l.6.1-.2-.7zm6.1-3.6l.7.1-.3-.7zm4.9-.6l1.2-.2-.8-1.1zm-2.6.1h1.1l-.6-1.2zm-4 1.1l1.1.5v-1.3zm3.8 1.8h-.6l.4.5zm-.6-3.1l-.9.1.6.8zm3-2l-.9.2.8.7zm-4.2 4.3h-.4l.2.4zm-7.3 2.6l-.3-.3v.5zm1.2-3.8l1 .9-.1-1.3zm1.2 3.3l.7.6.3-.9zm-2.4-2.6l1.1.8-.1-1.4zm4.4 2l.3.3.2-.6zm-6.7 4.6l.3.5.2-.5z"/><path d="M193.6 54.9l.7.7v-.9zm0 1.7l-.3-.1v.5zm1.6.5h-.4l.3.3zm-4.6 4.8l.3.4.3-.4zm.5-1.3l-.3.2.4.2zm-1.3-1.1l-.1-.5-.4.3zm-.3 2.7l-.3.5.6-.1zm0-2.8l-.6.2.4.5z"/><path d="M189.1 59.3l.2.3.2-.3zm-.4.5l-.7.3.7.4zm-.6 1.5l.3.4.3-.4zm2-.6l.3.5.3-.5zm-2 1.7l.3.4.3-.4zm.9-2.3l-.2.3.4.3zm4.3 3.3l-.4-.2v.4zm-3.5 1.9l-.2-.5-.4.4zm-2.5 3.5l-.3.1.2.2zm.1-1.4v.7l.7-.2zm-1-1.1v.7l.7-.2zm1.8-.9l-.1.6.7-.1zm-1.3.2l.2.4.3-.4zm.5-1.3l-.3.2.4.2zm-1.7 1.6l-.2.5.6-.1zm.7-1.5l.3.5.3-.5z"/><path d="M189.5 67.1l-.3-.2-.1.4zm5.5-11.6l-.5.2.4.4zm-5.7 6.7l-.2-.3-.2.5zm1.3 5.2l-.3-.2-.1.4zm-.8 5.1l-.2.2h.4zm-.9 2.3l-.3.4h.5zm1.1-6.6l-.4-.1.1.5zm-3.2 6.4l.2.3.3-.4zm2.4-.3l-.2.2.4.1zm-1.7.3l.3.2.1-.3zm4.1-8.4l-.1.3h.3zm-2.5 4l.5.4.2-.7zm-2.9-2.5l.5.4.3-.6zm-.4-2.3l.7.5.3-.9zm-.2 7.8l-.4.8.9.1zm2.6-1.2l.5.1-.2-.5zm-.8-1.1v.4l.4-.3zm.4 2.2l.2.5.3-.5zm-1.5.6h.5l-.2-.4zm.6-1.9h.6l-.2-.5zm.3 2.6h.5l-.2-.5zm-1.4-2.1l.1.4.5-.2zm9.1-5.9l-.4.2.2.2zm-1.6 1.3l-.5-.1.2.5zm-5.6 5.5l-.4.1.3.4zm-3.6 2.1l-.2.7 1-.1zm-.2 1l-.3.9h1zm-1.6 3.4l-.5.5.7.3zm.7-1.1l-.6.8 1 .2zm4.3-1.9l.1.5.4-.4zm-1.9 1l.1.4.4-.3zm1.2-.7l.2.2.1-.4z"/><path d="M185.4 75.7l.7.1-.3-.7zm-.4-.7l-.3.3.4.1zm-.7 1.9l1.1-.2-.7-.8zm-1.3 3.8l.6-.1-.3-.6zm-4.1 3.3l.6-.1-.4-.6zm4.6-6.7l-.3.9h1zm1.4 1.5h.5l-.3-.5zm-3.3 1.6l-.5.5.9.2zm2.5-1.7l-.4.2.7.4zm-5.3 6h-.3l.3.6zm7.3-8.2l.4-.3-.5-.3zm.9-.6h-.3l.1.3zm9.9-13.2l-.3.2.3.1zm-13.1 18.4l-.4.3.5.2zm-3.2 1.4l-.4.2.5.3zm17.5-20.8l.1.5.4-.3zm-18 22.6l-.2.1.3.2zm1.3.2l.1.3.3-.3zm14.1-20.8l-.2.3.3.1zm-4.2.6l.3.5.5-.5zm-10.4 16.9l-.6.4.7.4zm12.4-16l.4.2v-.5zm-6.9 12.7l-.1.4.4-.2zm9.3-14.2v.5l.4-.4zm-11.3 16.5l.5.2-.1-.5zm1.3-1.6l.5.2-.1-.6zm-4.1 3.2l.5.2v-.5zm2.8-3.1v.4h.5zm7.4-10l-.4.1.1.3zm-9.6 14.2l-.4-.2-.1.5zm.9.3l-.4-.1.2.5z"/></g><g fill="#3a1911"><path d="M250.4 62.2l-.5-1-.8.7zm-11.7-5.1v.6l.6-.2zm-1 .6l.5.2v-.6zm4.4.1l.6.2-.1-.6zm-2.7-1.2l-.1.6.7-.2zm7.4 3.7l.4-.5-.7-.2zm-10.4-1.4l.6-.3-.6-.5z"/><path d="M236 59.4l.4-.6h-.8zm17 3.2l1.7.1-.5-1.3z"/><path d="M252 62.5l1 .1-.5-.9zm2.3-2.1l.5-.5-.7-.2z"/><path d="M251.1 62.3l1 .2-.3-1.1zm-9.1-2.4l.6.1-.1-.7zm3.9-.9v.6l.5-.2zm-2-.2v.6l.6-.2zm-2.6-.6l-.5-.4-.3.6zm.2.8l.4-.4-.8-.2zm10.6-1.7l.3-.4-.6-.3zm2.1 1l.4-.3-.6-.3zm-2.1 1.5l.5-.5-.7-.1zM237 57.6l.1-.5-.6-.1zm.2.4l-.5-.4-.1.6zm3.1.3l-.5-.4-.1.6zm-3-.7l.6.1-.2-.6zm20 4.2l-.3-.3-.1.4zm-4.4-3.5l.2-.4h-.4zm-3.9-4h.3l-.1-.3z"/><path d="M251.2 56.1l.1-.4-.5.1zm-4.7-3.4h.3l-.2-.4zm-2.5 3.5h.3l-.2-.4zm-1.9-2.9l.1.3.3-.3zm-4.7-1.3v-.3l-.4.2zm6.5 1.8l.1.3.3-.3zm-3.1 3.9l-.3-.7-.5.5zm3 2.8l-.2-1.1-1 .6zm6.8.4l-.1-.6-.7.4zm-11.4-2.3l.4-.5-.6-.3zm-2.4.1l.8-.1-.4-.8zm3.1.5l-.2-.9-.7.6z"/><path d="M238.4 58.8l-.3-.7-.6.5z"/><path d="M239 58.9l-.1-.7-.6.6zm3.3-.3l.2-.5-.6-.1z"/><path d="M238.2 58.4l.6-.1-.3-.6zm17 1.9l.3-.5-.6-.1zm-3.1-.2l.5.2-.1-.5zm-.7 1l.5.3-.1-.5z"/><path d="M253.6 60.2l.4.2v-.5zm-1 0l-.1.4.6-.1zm1.5-.6l-.3-.5-.3.6zm-4.2 1.3l-.2-.5-.4.5zm1-.3l.4-.3-.5-.3zm-.6 1.5l.8.2-.2-1zm3.4-4.1l.3-.4-.5-.2zm-3.2.3l.4.2V58zm1 2.2l.3.2.1-.5zm3.7.2l-.4-.5-.4.6zm-1.6.5l.3-.4-.6-.2zm1.8-.5l.5.2v-.5zm-2.2.4l-.4-.4-.2.6zm.5 1l-.6-.8-.5 1zm-1.1-.4l-.4-.5-.3.6zm3.3-1.6l.3-.4-.5-.2z"/><path d="M253.3 59.3l.5.3V59zm-9-.7h.7l-.4-.7zm.1 1.7l.6-.1-.3-.6zm-.6.1l.6.2-.1-.6zm2.1-1h.6l-.3-.6zm-1.2-.2v-.5l-.5.3zm11.1 3.5l-.5-.9-.6.9zm-6.7-.8l-.2-1.3-1.3.9zm.6-2.6v-.4l-.4.1zm-9.3.1l-.1-.4-.4.2zm1.5.4l-.1-.4-.4.3zm6.9.5v-.5l-.5.3zm-.9.6l-.4-.8-.6.9zm-2.9-1.4l.5-.1-.3-.5zm0 .9l.5-.1-.3-.5zm1-.4l-.4.3.4.2z"/><path d="M245.7 60.1l-.4.7h.7zm-1.7-.7l.3.5.3-.4zm1.8-.7l.5-.1-.3-.5zm1.2 1.2l.2.4.4-.4zm7.2 1.2l-.6.1.3.6zm2.5.1h-.7l.4.8z"/><path d="M257.1 61l-.3.4.4.1zm-.6 1.5l.6-.3-.7-.4zm.4-1.9l-.6-.1.3.6zm-1.7 1l-.1-.5-.3.2zm0 .7l-.5-.8-.5.6zm.2 0l.9-.3-.7-.7z"/><path d="M255.9 62.7l.6-.2-.5-.6zm-6-2.4l-.2-.6-.5.3zm1.4 1.4l-.2-.7-.6.4zm-3.9-.4l-.2-.6-.5.3zm.3-.5l.6-.3-.6-.4zm1.2 0l.4-.2-.4-.3z"/><path d="M247.4 61.5l.9-.3-.7-.5zm1.8 0l.4-.2-.4-.3zm-2-3.6l.3.3.2-.5zm-7.9-.2l.4.1.1-.5zm0 .2l-.4-.4-.2.6zm3.8.8l-.2-.7-.6.6z"/><path d="M242.4 59.2l-.2-.6-.6.6zm.4-.9l.4.3.2-.6zm-1.5-.8l.3.3.2-.4zm8.5 3.5l.4.6.3-.9zm-14.9 7.5l-.9.5.7.6zm.2-.7l.1-1-1.1.3z"/><path d="M233.9 67.5l.2-.5-.5.1zm1 1l.2-.7-1 .2z"/><path d="M234.7 69.8l-1.4-.1 1 1zm-.2-2.2l-.7.2.4.6zm-.1 2.1l-.2-.4-.3.4zm-.6-.6l.6-.5-.9-.2zm11.4-8.4l-.2-.5-.4.4zm1.4-3.5l-.1-.5-.5.4zm.4 4.1l-.4-1.1-.9.8zm-3.3-2.1l-.1-.6-.5.4z"/><path d="M244.2 58.8l-.3-.6-.4.5zm-3.6.6l.7.3.1-.8zm2-.2l.3.4.2-.5zm-7.3 6.1l.1-.6-.7.3z"/><path d="M235.5 63.4l-1 .4.9.9zm-.2 2l-.3.2.3.3zm-.7-.4l-.5.4.6.4zm-.3-1.2l-.6.2.6.4zm.9 3l.1-.8-.8.1zm-.6-2l.3-.4h-.5zm1.2-4.1l.1-.8-.8.3z"/><path d="M235.9 60l.2-.8-.9.2zm-.1.6l-.4.3.3.3zm-.7-.3l-.5.3.6.5zm-.3-1.3l-.6.3.5.4z"/><path d="M235.7 58.8l-.6.3.5.3zm0 3.3l.1-.8-.8.1zm-.6-2l.3-.4h-.6zm5.4-1.4l.4.4.2-.5zm6.4-2.8l-.2-.6-.4.4zm-4.6.1l-.2-.6-.4.4zm-1.8.6l-.2-.6-.4.4zm.2-4.4l.3-.1-.3-.3zm-1.6 4l.3-.1-.3-.3zm-2.5-2.4l.2.3.2-.4zm1.8 0l.2.3.2-.4zm3.5 1.4l-.4-.5-.3.5zm-4.5 1.1l-.4-.5-.3.5zm7.5 1.5l.4-.2-.4-.3zm2.7 1.2l-.1.6.6-.1zm-1.9 1.1l.3-.5-.7-.1z"/><path d="M247.7 59l.7-.1-.5-.7zm.7.4l-.1-.4-.4.3zm1.2-.1l.4-.2-.2-.4zm1-1.4l-.2-.6-.4.3zm-3-.4l-.2-.5-.5.4zm-5.6-.1l-.2-.5-.5.4zm1.6 0l-.2-.5-.5.4zm7.2 2.9l-.2-.5-.5.3zm-2.1-1.9l.4-.2-.5-.3zm-1.9.6l.3.4.3-.5zm-6.8-.5l.3.3.2-.5zm8.7-2l.3.4.2-.5zm-17.9 13.7v-.7l.7.3zm-.9.6l.6-.7.3.9zm1.1.8v-.7l.7.3z"/><path d="M230.6 72.3v-.9l.8.4zm-1-.7v-.7l.7.3zm2.6.3v-.7l.7.3zm2.2-16.9l-.4.2v-.6zm1.7 2.3l.5.4-.6.2zm-3.2 9.4l-.6-.2.4-.6zm.8 2.8l-.9-.3.6-.9zm.6-2l-.7.7-.5-1z"/><path d="M232.9 72.3l-.9.3v-1.1zm3.4-15.4l-.7-.3.6-.5zm0 1.9l-.7-.3.6-.5zm-6.4 11.7l-.4 1.6-1-1.3zm-4.1-1.3l-.7-.1.5-.6zm-1-.2h-.7l.4-.5zm6.2 3.6l-.6-.1.4-.6zm2.4-8.7l-.5.3-.1-.6zm-2.9 3l.4.4-.5.2zm1.4-2l.5.4-.6.2zm1.8-2.6l-.1-.6.8.2zm-1.6-.3l-.5-.1.3-.5zm-5.2 7.6l-.9-.4.8-.7zm11.4-12.8l-.6-.2.5-.5zm-2.5-1.7l.5-.4.1.6zm3.2-.1l.3.1v-.4z"/><path d="M240.7 54.2l.2.2.1-.4zm-2.6 1.6l.5-.4.2.5zm-4.1 2.5l.5-.4.2.6zm1.8-1.1l-.3.5-.3-.6zm-10.7 8.3l-.3.3-.1-.4zm-.3 2.5l-.3-.3.4-.2zm-.6 1.1l-.6-.2.5-.6zm-1.1-.4l-.6-.2.5-.6zm4.7.8l-.3-.3.4-.2zm-2-6.9l-.3.2v-.4zm8.1-9.6l-.3.2v-.4zm-2.2 1.2l.2.3h-.4zm2 4.9l-.5.3.1-.7zm-.6-1.9l-.3.2V57zm-2.1 1.1l.2.3h-.4zm1.5 2l.1-.7.6.6zm.5 5.7l-.5-.4.7-.3zm1.4-.7l-.5-.4.7-.3zm-.6.8l-.5-.4.7-.3zm1.3-4.3h-.6l.3-.6z"/><path d="M235.8 55.9l-.5.4-.1-.7zm-1.4 7.8l.1-.7.6.4zm.3-4.7l.2-.7.6.5zm-.5 3.3l.2-.6.6.5zm-1.8 6.3l-.6-.2.5-.5zm3.5-10.5l-.5.4-.2-.6zm-6.6 10.7l-.1-.6.6.2zm-.7.1l-.7-.4.7-.5zm-.7 1.3l-.7-.4.7-.5z"/><path d="M228.5 70.9l-.8-.7 1-.4zm1.3-1.3h-.4l.2-.4z"/><path d="M231.8 72.6h-.7l.5-.9zm-2.5-2.6l-.1.7-.8-.7zm-8.5-.1l-.4-.1.3-.4zm12.9 1.7l-.7.6-.5-1.2zm-1.2-4.8l-.5.4-.2-.7zm1.1.4l-.8.5-.1-.9zm-.5.9l-.5.3-.1-.6zm-5.5 1.3l-.5.4-.1-.6z"/><path d="M228.4 69.5l-.5.4-.1-.6zm2.3 0l-1 .7-.1-1.1zm.6-3.6l-.2-.3.5-.1zm2.4 5.8l-.7-1h1.3zm1.8-8.3l-1.3-.8 1.5-1.1zm-5.4 4.5l-.2-.4.4-.1zm3.7-6.6l-.2-.4h.4zm-1.2 3l-.3-.4.5-.1zm-1.2 3.7l-.3-.4.5-.1zm0 2l-.6-.8 1.1-.3z"/><path d="M231.7 69l.8-.2-.3.9zm.4-3.3l.1.4h-.5zm-.2.7l.2.4-.5-.1zm-1.4 2.4l-.2-.5.6-.1z"/><path d="M231.3 71.1l-.2-.5.6-.1zm1.2-3.5l-.4.1.1-.5zm.2 2.1l-.4.1.1-.5zm.1-.5h-.4l.1-.5zm-4-2.3v.5l-.5-.3zm5.9-10.7l-.3.2-.1-.5zm-.7.8l.4-.4.2.6zm-.2 6.8l-.3-.6h.8zm-1.9.6l-.3-.6h.8zm1.8-8.5l-.4.4-.3-.6zm-1 5v.5l-.4-.2zm-2 5.7l-.2-.5h.6zm-1.9-.6l-.3-.5h.6zm3 4.2l-.3-.5h.7zm.3.6l-.3-.5h.7z"/><path d="M231.8 71.9l-.4-1 1.1-.2zm2.3-11.6l-.2-.5h.6zm.4 2.9l-.4.1.1-.5zm-1.6 1.3v.5l-.5-.3zm-.1-2v.5l-.5-.3zm-5.2 2.8l-.2-.6h.6zm5.2 6l-.3-1.1h1.1z"/><path d="M233.5 70.3l-1-.7.9-.6zm1.1-3.4l-.9-.7.8-.6zm-4.2-1.5l-.4.1.1-.5zm-3.6 1.5l-.6-.3.5-.4zm3.4.9l-.4.2-.1-.6zm.4 4.7l-1-.3.9-.9zm-2.3-5.6l-.3-.5h.6zm-3.1 1.3l-.2-.5h.6zm0 .6l-.2-.5h.6zm-1.4-.2l-.2-.5h.6zm.9.5l.1-.5.5.5zm1.2.1l-.2-.5h.6zm-3.2.1l-.7.3.1-.8zm-1 .5l-.6.4v-.8z"/><path d="M223.9 68.9l-.9.3.2-1.2zm-2.2.9l-.2-.5h.6zm1.1-.5l-.5-.3.5-.3zm-1.8.9l-.5.4-.1-.8zm-.6.6l-.5.5-.2-.7zm.3-2.1v.4l-.3-.2z"/><path d="M219.4 70h-.4l.2-.4zm.5 1.2l-.6.3-.1-.7zm-1 .5l-.6.3-.1-.7zm-.8 2.6l-.3.2-.1-.5zm1.8-4.4l-.5-.2.4-.5zm.5.4l-.5-.2.4-.5z"/><path d="M219.2 71.2l-.5-.2.4-.5zm1.1-.4l-.4-.4.6-.2zm.8-.7l-.5-.2.4-.5zm-2 2.5l-.2.6-.5-.6zm-.9.7l-.2.7-.5-.6z"/><path d="M218.8 73.4l-.1.7-.6-.5zm.9-1.9l-.4.8-.6-.9z"/><path d="M218.7 73.5l-.5-.2.4-.4zm3.1-4.1l-.5-.2.4-.4zm-2.7 3l-.6.1.1-.6zm-1 3.1l-.3.2-.2-.4zm.5-.1v.7l-.7-.3zm0-1.2l-.1 1.1-.9-.7zm0 2.2l.1.7-.7-.3zm-1.2.2l-.2.4-.3-.4z"/><path d="M218.7 76.9l-.2.7-.6-.3zm-.2 1.2l-.1.7-.7-.4zm1.6 2.1v.4l-.5-.2zm-2.6-4l-.4.3-.1-.6zm.7-.2l-.5.3-.1-.6zm0 1.5l-.4.3-.1-.6z"/><path d="M218.6 76.5h-.6l.2-.6zm-.2-1.2l-.4.3-.1-.6zm.9 3.1l.4.6h-.8zm.5.8l.5.5-.8.1z"/><path d="M218.8 77.3l.4.8h-1.1zm1 2l-.4.3-.2-.6zm-.7-1l-.2.5-.4-.4zm1.3 1.5l.5.5-.7.2z"/><path d="M220.8 80.3l.3.6-.7.1zm.6 1l.3.6-.7.1z"/><path d="M223.8 81.5l.5.8-.9.1zm-3-.6l-.2.5-.4-.3zm1.4.1l.7.2-.6.5zm.9.3l.7.1-.5.6zm.8.1l.9.1-.3 1z"/><path d="M223.6 82.5h.9l-.3 1zm-.3 1l.9.1-.3 1zm0 1.7l.6-.5-.3 1-1-.4zm-2.2-4.8l.8.5-.8.6zm2 1l-.1.5-.5-.3zm-1.1-.3l.1.5-.6-.1zm5.1-11.9l-.4-.2.4-.4zm3.1-2.7l-.4.1.1-.5zm-8.3 2.4l-.2-.6h.7zm-1.5-1.9l-.1.6-.5-.3zm2.4 0v.7l-.6-.4zm2.5-1.5l-.2-.4.6-.1zm-3.7 3.1l-.6-.2.4-.5zm0-1.5l.2-.3.3.3zm2.1.2l.1-.5.4.3zm-1.4.4l-.3.3-.3-.4z"/><path d="M221.6 67.9l-.3.4-.2-.5zm-2 1.1l.4-.6.4.7zm7.6-1.4l.3-.4.3.4zm-1.9-1.2l-.4.3-.1-.6zm-2 1.6l-.3-.2.4-.2zm-2.8-1.4l-.3-.3.5-.2zm-3.3 5.6l-.5-.1.3-.5zm1.3-1.8l-.5-.1.3-.5zm-1.5 4.2l-.6-.1.4-.4zm0-1.1l.4.1-.4.4zm-.3 2l.5.2-.4.3zm1-3.1l.3-.3.2.5zm10.2-10.2v.4l-.5-.2zm5.3-1.5l-.1.4-.4-.2zm-6.4 6.3l-.1.4-.4-.2zM222 81.7l-.3.3-.1-.4zm-.3 2.5l-.3-.3.4-.2zm1.1-.3l-.6-.5.7-.3zm.5-1.1l-.4-.4.6-.3z"/><path d="M223.7 83.1l-.6-.3.5-.4zm-.2 2.1l-.9-.5.8-.6zm-.9-2.9l-.2-.4.5-.1zm-2 1.2l.2-.5.4.4z"/><path d="M222.2 82.6l-.4.3v-.5zm.9-.2l-.1.7-.6-.5zm-.2 2.4l-.4.3v-.6zm.1-.3l-.9-.5 1.1-.6z"/><path d="M223.7 83.2l-.1.4-.4-.2zm.1 1.1l-.1.4-.4-.2zm-1.3.5l-.1.4-.4-.2zm5.5-16.6l-.1.4-.4-.2zm-1.6-.5l.4.1-.2.4zm-.1.8l.4.1-.3.4zm-22.9 41.3l-.9-.8-.5 1.1zm-13.3-2.6l-.1.6.6-.2zm3.4.7l.5.1-.1-.6zm-2.6-1.2l-.2.6.8-.1zm8 3l.4-1.1H198zm7.2-1l1.7-.8-1.2-1z"/><path d="M205.1 109.1l1-.4-1-.6zm1.2-3.1l.1-.8-.7.2zm-2.2 3.5l1-.3-.8-1zm-10.6.6l.6.1-.2-.7zm4-1.7l.2.6.4-.4zm-2.2.4l.2.6.6-.4zm-2.8-.4l-.5-.5-.3.7zm.3.8l.4-.5-.8-.1zm10.2-5l.2-.5h-.7zm-4.9 3.3l.3-.7-1-.1zm-1.3.8l.3-.7h-1zm8.3-4.2l.2-.5h-.7zm-1.2 2.5l.2-.7-.8.2zm-12.3 1.9l-.4-.4-.2.6zm18.5-2.5l-.4-.2-.1.5zm-6.3-1.3v-.4l-.4.2z"/><path d="M199.3 102.6l.3-.1-.2-.3zm2.4.9l-.1-.5-.4.3zm-5.5-1.8l.3-.1-.3-.4zm-1.1 4.2h.3l-.2-.4zm-2-2.9l.1.3.4-.3zm1.5.3l.1.3.3-.4zm-2.4 4.5l-.2-.7-.6.5zm3.4 2.7l-.3-1.2-1 .9zm7.5-2.1l-.4-.5-.5.7zm-12.7.5l.6-.6-.7-.4zm.8.6l-.2-1-.8.6z"/><path d="M190.3 109.1v-.8l-.8.5zm3.4-.5l.2-.5-.6-.1z"/><path d="M189.4 108.5h.6l-.2-.7zm17.6-3.1l.1-.7-.7.2zm-3 1.5h.5l-.2-.5zm3.6-1.5h1.3l-.7-1zm-5 1.7h.9l-.4-.7zm1.2 1.1h.6l-.3-.4zm1.6-2.1l.5.1-.2-.5zm-.9.6l.2.5.4-.4zm1.1-1.3l-.5-.4-.1.7zm-3.2 3.3l-.5-.4-.1.7zm.9-.8l.2-.4h-.6zm0 1.8l.8-.2-.7-.8zm1.1-5.6l.1-.6-.5.1zm-2.5 1.8l.5.1-.2-.6zm1.7 1.7h.4l-.2-.5zm3.6-1.9l-.6-.2-.1.7z"/><path d="M205.9 107.1l.2-.5-.7.1zm1.5-1.6h.6l-.3-.4zm-1.9 1.7l-.5-.2v.7zm1 .7l-1-.4.1 1.1z"/><path d="M205.6 107.6l-1.3-.6v1.6zm2-2.9v-.5l-.5.1zm-2.9.8h.6l-.3-.6zm-9 2.9l.7-.2-.6-.6zm-.8-.6l.7-.3-.6-.6zm1.4 2.4l.6-.3-.5-.5zm-.6.3h.6l-.2-.6zm1.9-1.7l.6-.2-.5-.5zm-1.3.1l-.2-.5-.4.5zm12.5-1.6l-.9-.6-.1 1.2zm-6.8 2.8l-.8-1.2-.8 1.5zm-.5-2.8l-.1-.5-.4.4zm-9.7 2.4l.1-.9-.9.6zm1.9.5l-.4-1.2-.7.9zm7.4-1.5l-.2-.5-.4.5zm-.7.9l-.8-.6-.1 1.1zm-3.7-.4l.5-.3-.5-.4zm.3.9l.5-.3-.5-.4zm.9-.7l-.3.4.4.1z"/><path d="M197.5 109.6l-.1.9.7-.3zm-1.9-.2l.4.4.3-.5zm1.7-1.3l.5-.3-.5-.4zm1.8.9l.4.3.2-.5zm7.4-2.4l-.5.4.5.5zm2.8-1.1l-.8.2.6.7z"/><path d="M209.7 105.2l-.3.5h.5zm-.4 1.7l.6-.4-.8-.3zm.2-2.1l-.7.1.3.5zm-1.8 1.7l-.4-.4-.2.4zm.3.8l-.9-.6-.1.8zm.1-.4l.9-.5-.9-.6z"/><path d="M208.6 107.2l.7-.3-.6-.5zm-6.5 1l-.4-.6-.4.6zm1.9.7l-.5-.6-.4.7zm-3.9 1.5l-.9-1.1v1.1zm.1-.8l.4-.6-.7-.1zm1.2-.5l.3-.4-.5-.1zm-1.2 1.3l.8-.6-1-.2zm1.7-.7l.3-.4-.5-.1zm-3.4-2.9l.4.3.1-.6zm-7.9 1l.5.2.1-.5zm.1.3l-.5-.5-.2.7zm3.9.7l-.4-.8-.5.7z"/><path d="M193.9 109.3l-.3-.6-.6.7zm.3-1l.5.3.1-.7zm-1.6-.7l.3.3.2-.5zm9.7 1.3l.7.4-.1-1.1zm-4.9 1.6l-.6-1-.5 1zm.3-4.2l-.3-.5-.4.6zm1.6 4.2l-.7-1.1-.8 1.1zm-4-1.4l-.2-.6-.5.5z"/><path d="M195.7 108.6l-.3-.6-.4.6zm-3.8 1.1l.8.2v-.8zm2.3-.3l.4.3.1-.6zm-2.5-.4l.5.4.2-.6zm5.9-4.1l-.4-.6-.3.5zm-4.1 1l-.3-.7-.4.5zm.4.9l-.2-.6-.4.4zm-1.9-.2l-.2-.6-.5.4zm-.5-4.7l.3-.1-.3-.3zm-1 4.3h.3l-.3-.4zm-.6-2.6l.2.3.3-.4zm3.1 1.5l-.4-.6-.3.6zm3.1 2.3l.3-.3-.5-.2zm3.3.5l.1.6.6-.3zm-1.9 1.7l.2-.6-.8.1zm1.9-1.8l.7-.4-.8-.5zm.9.1l-.3-.3-.2.4zm1.1-.6l.4-.3-.5-.4zm.4-1.8l-.4-.6-.3.6zm-3 .8l-.4-.5-.4.6zm-5.5 1.2l-.3-.5-.5.4zm1.6-.3l-.3-.5-.5.6zm8.1.6l-.4-.5-.4.6zm-2.8-1l.3-.4h-.6zm12.5-3l-1.1-.1.2 1.1zm1.8-2.4l.9-1.6-1.6-.2z"/><path d="M213.8 102.3l.7-.9-1.2.1zm-.7-3.2l-.3-.8-.5.6z"/><path d="M213.2 103.2l.7-.9-1.2-.3zm-3.8-3.8l-.1-.6-.6.4zm1.7-1.3l-.1-.5-.6.4zm.3 2.8l-.2-.7-.5.6zm4.8-3.9h-.4l.2.4zm-5.8 2.3l-.3-.3-.2.4zm-2.5.2l-.4-.4-.1.5zm3.9 3.3l-.6-.2v.8z"/><path d="M213.4 98.1l-.3-.5-.5.4zm-1.7 3l.5-.3-.5-.3zm.6 1.2l.5-.3-.5-.3zm.2-2.7l.4-.2-.4-.3zm-.5 1l.4.3.2-.5zm.2-1.7l-.6-.1.3.7zm-.8 4.6l-.6-.1.2.6zm.3-1.2l-.1-.4-.5.3zm1 1.5l.5-.6-1-.3zm-2.2-5.3l-.2-.5-.4.3zm-1.1 2.9l.4-.2-.4-.4zm2.3.5l.4-.3-.4-.3zm2-3.6l-.6.1.3.7zm-.3 1.9l-.1-.6-.5.5zm.4-2.1l.5-.4-.5-.2zm-.6 2.4l-.6.1.4.6z"/><path d="M214.3 100.5l-1 .2.7.9zm-.9.9l-.7.1.5.6zm.1-4.1l-.2-.5-.4.4zm-2 2.2l.5-.4-.6-.2zm4.4-.8l-1.1.1.6 1zm-4.1 6.1l-1.3-.6.1 1.7zm-2-2.1l-.3-.2-.1.4zm.4 1.4l-.4-.3v.7zm0 1.2l-1-.1.5 1zm3.4-5.9l-.2.6.7.2zm1.7-2.4l-.5.6.9.2zm.1-.5l.1.6.5-.3z"/><path d="M216.2 98.1l.2-.7-.8.2zm-1-1.7l-.6.3.6.3zm-.6 2.3l-.6-.1.1.4zm.7.5h-1.1l.3.8zm-.1-.4l.4-.9h-1.1z"/><path d="M215.8 98.8l.4-.7h-.8zm-5 4.4l-.6-.3v.7zm2-.5l-.7-.2v.8zm-2.8 2.7l.1-.7-.8.3zm.8-1.1v-.4l-.5.1zm-.4 1.8l.3-1-.8.4zm1.1-1.6v-.4l-.5.1zm-.1-.9h.8l-.7-.8zm-2.2.3l-.4-.1v.5zm.5-1.1l.2-.4-.6-.1zm-.6-1.7l-.7-.3.1.7zm2.2 1.3l-.5-.2v.7zm-2.8.7v-.5l-.5.3zm-10.2 5l.5.4.1-.7zm-7 .6l.4.3.1-.5zm6.9-4.1l.5.2v-.6z"/><path d="M190.5 104.9l.3.2.1-.5zm1.1-.8l.3.2v-.5zm-2.1 1.6l.6-.4.1.6zm18.5-1.4l.6.1-.2-.6zm-.4-.8l.6.2-.2-.8zm-4.9-5.5l-.1-.3-.4.3zm4.2 1.2l-.1-.3-.4.3zm-3 1.9l.3-.1-.3-.3zm.4-1.4l.3-.1-.4-.3zm4.4 2.5l-.7.2.5.6zm1.2-1.9l.3-.4-.6-.1zm-.8 1.3l-.5.2.5.5zm.1 1.4l-.6.4.5.3zm-2.4-2.2l-.7.3.5.4zm-4 5.7l-.7.2.5.4zm.6-1.4l-.6.2.4.4zm4.1-2.7l-.7.2.5.4zm-4.7.3l-.1-.3-.4.3zm4.3 1.1l-.1-.3-.4.3zm-2.7.5l.4-.1-.4-.3zm1.6-2.9l-.6.3.6.3zm-9.4 3.7l-.6.4.5.3zm11.8-6.8l-.3-.4-.2.5zm3.7-.9l-.5.3.6.4zm-3.7 3.7l-.5.2.4.6zm2.2-.2l-.5.3.5.5zm-4.9 2.9l.2-.2-.4-.1zm-.7-1.1l.2-.3h-.5zm4.6-5.5l.2-.5h-.7zm-10.5 9.1l.4-1h-1.3zm12.7-9.2l.1-.5-.7.1zm-5.9-1.5l.3-.1-.2-.3zm-.7-1.8l.3-.1-.2-.3zm-4.8 1.9h.3l-.2-.3zm4.8 2.4l.3-.1-.2-.2zm3.1-1.6V96l-.5.3zm2.7.6l.2-.5-.6.1zm-1.7-6l-.1-.4-.3.4zm4.2 1.2v-.4l-.4.3zm-2.9 1.9l.3-.2-.4-.3zm.3-1.5l.3-.1-.3-.3zm-3.8 1.8l.3-.1-.3-.3zm-8.7 6.8l.3-.2-.4-.3zm15-7.4l-.6.2.4.4zm.8 1.5l-.7.2.4.5zm-4.8.3l-.1-.3-.3.3zM204 102l.2-.5h-.7zm-3.7-1.6l.3-.1-.2-.3z"/><path d="M202.7 101.3l-.1-.5-.4.3zm1.1-.8l-.1-.3-.3.3zm9.9-3.6v-.4l-.4.3zm-2.6.5l.3-.2-.4-.3zm1.6-3l-.6.4.5.3zm-.3 2.4l.2-.2-.5-.1zm-.8-1.1l.2-.3h-.4zm3.1-1.3l-.4-.6-.5.6z"/><path d="M211 95.4l-.2-.5-.5.5zm6.7-4l-.6.2.4.5zm-3 2.1l-.3-.5-.4.5zm-.5 1.6l.4-.3-.5-.2zm-.4-.7l-.7.1.5.6zm-1.8 0l-.3-.5-.3.4zm3.1-.8l-.6.2.5.6zm.7 1.2l-.5.2.4.6zm.7 1.5l-.6.2.5.6zm-1.3-3l.4-.4-.5-.1zm-.5-.7l-.3-.4-.3.5zm-1.8 3.4l.4-.4-.6-.2zm4.5-2.2l-1 .3.7.9zm-.3 1.5l-1.1.3.7.9zm-.7-3.4l-.3.7.9.1zm.1-.4l.2.5.3-.4z"/><path d="M217.5 92.9l.1-.7-.8.3zm-1.3-1.5l-.5.4.6.2zm-.1 2.4h-.6l.2.4zm.8 1.1h-.6l.2.4z"/><path d="M216.9 94.1l-1.1.2.5.7zm-.7 1.4l-1.1.2.5.7zm.5-1.7l.2-1-1.1.2z"/><path d="M217.4 93.7l.1-.7-.8.2zm-4.1-.7l-.4.4.7.3zm1.7 3.5l.1-.8-1 .2zm-2.7-3.6v-.6l-.5.2zm-5 4.4l-.6.3.5.4zm8.2-5.4l-.6.3.5.3z"/><path d="M214.9 92.2l-.1-.4-.4.4zm-2.5.9l.3-.2-.5-.2zm-12 12.3l-.5.5.6.2zm.3-1.2l-.5.5.6.2z"/><path d="M213.5 92.4l.2-.3h-.5zm3.7-2.3l-.3.2.3.3zm-2.2 2.2l-.5-.5-.2.6zm.4-.3l.3-.5h-.5zm-.6-.6l-.4-.3-.2.5zm1.5-.9l-.2.7 1-.1zm0-.5l.3.5.3-.4zm1.4 1.2v-.7l-.8.4z"/><path d="M216 90l-.4.5h.7zm-3-3.3l-.2-.3-.2.4zm.5 1.6l-.5.4.5.2zm-.8 1l-.6.5.6.2z"/><path d="M215.9 90.5l-.5.4.5.2zm-1.2-1.1l-.5.5.5.2zm.1 1.6l-.1-.3-.3.4zm0-2.7l-.6-.4-.1.7zm1.6-3.4l-.3.2.3.3zm-1.8 2.5l-.6-.3-.1.6zm0 1.7l.3-.4h-.6zm-.6-.4l-.6.3.7.3zm.9-1.3l-.4.4.6.4zm1.2.9l-.5.4.6.3zm1.1 1.1l-.4.4.6.4zm-2.3-2.3l.3-.5h-.6zm-.7-.5l-.4-.2-.1.5zm-.4 3.9l.2-.6-.6.1zm3.4-3.7l-.8.7 1.1.5zm.3 1.6l-.9.6 1 .6zm-1.9-3l-.1.8.9-.3zm-.2-.4l.4.4.2-.5z"/><path d="M216.9 85.9l-.2-.7-.6.6zm-1.8-1l-.2.6h.6zm.8 2.3l-.5.2.3.4zm1.2.8l-.5.2.3.3zm-.3-.7l-1 .5.7.5zm-.1 1.5l-.9.6.7.5zm-.3-1.8l-.1-1-.9.6z"/><path d="M217.1 86.7l-.1-.7-.7.5zm-4 .8l-.2.5.6.1zm2.8 2.7l-.2-.9-.9.7zm-1.2-4.6l-.5.5.6.2z"/><path d="M214.2 86.1l-.2-.2-.2.4zm-2.1 1.6v-.3l-.4.2zm-.8-4.6l-.2-.2-.1.5zm.9 1.4l-.3.6h.6zm2.7.4l-.8-.3.1.7zm-.8-4.4l-.2.3.4.1zm-1.1 2.9l-.6-.2.1.6zm.6 1.6l.1-.4-.6.1zm0 .1l-.4.5.7.2zm-.2-1.8l-.3.5.7.2zm1.3.5l-.3.5.7.2zm-1.4-.8l.1-.6-.5.2zm-.8-.3l-.5-.1v.5zm2.9-.6l-.5.9 1.1.2zm.7 1.4l-.7.8 1.2.4zm-2.6-2.4l.1.8.8-.5z"/><path d="M213.2 80.8l.5.3.1-.5zm1.8.5l-.4-.9-.5 1zm-2.1-.4l-.1.6.6-.3zm1.4 1.9l-.5.4.4.2zm1.4.4l-.5.4.4.2zm-.6-.6l-.7.8.8.3zm-.4-.1l-.3-.9-.8.8zm.7-.4l-.3-.7-.5.7zm-3.8 1.7v.6l.6-.1zm1.1-2.2l-.3.6h.6zm-.4.7l-.2-.2-.1.5zm-1.6 2.1V84l-.4.3zm.6-2.8v-.4l-.4.3zm1.3 9.8l.1-.3-.4.1zm-34.2 8.4l.6.8.4-.7zm-.6-1.2l.4.6.5-.6zm3.3.9l.8.1-.3-.7zm-1.4-1l.6.1-.1-.6zm-1.5-1.1l.5.2v-.7zm4.6.7l.5.1-.1-.6zm-1.2 5.2l.2-.4h-.5zm.4-6.3l.5-.2-.3-.3zm-2.6.4l.5-.1-.3-.4zm2.4 2.8h.7l-.3-.6zm-.9-1.5v.5l.5-.2zm.6-.1l.3-.5h-.7zm1.3-1.2l.5.1-.1-.5zm-1.3 3l.2-.6h-.7zm-1.5-1.1l.5.1-.2-.6zm1.7 1.3l.1.6.4-.4zm.9.1h.4l-.1-.6zm-3.4-2l.1.6.5-.4zm1 3.5l.4-1h-1.2zm.4-2.3l-.5-.5-.4.6zm1.4 2.5l-.3-.7-.6.7zm.4.3l-.6-.2.1.6z"/><path d="M180.6 102.7l.5.5.2-.8zm2-.1v-.7l-.5.4zm-1.8-1.6l.3-.4-.4-.1zm-.8.5l.5-1-.8-.1zm.4 0l.7.8.4-1z"/><path d="M180.2 102.1l.4.6.4-.7zm1.2-5.9l.3.4.3-.5zm-.7.8l.1-.4h-.6zm-3 .1l.1-.4h-.6zm5.4 2.2l-.1-.5-.6.3zm.2 3.4l.4.4.3-.6zm.1-3.5l.4.3.3-.6zm.4-.7l.4.4.2-.5zm6.2 1.1l.3.1-.1-.5zm-3 3.3l.4.1-.1-.5zm-.4-3.5v.3l.4-.2zm1.2.9v.4l.4-.3zm-2.2 1.8l.1-.7-.6.2zm-1.7 0l.2-.7-.6.2zm1.8-4.4h.3l-.1-.4zm-2.9 3.3l.3.1-.1-.4z"/><path d="M183.5 98.5v.3l.4-.2zm2 2.7l-.1-.7-.5.3zm-2.1-1.4l.2.4.2-.4zm1.4-.1l.1.2.3-.3zm.6 6.9l1.5 1 .3-1.6zm-.9-.7l.8.7v-1.2z"/><path d="M187.7 105.3l.8-.3-.6-.5zm-4.1 0l.9.7.3-1.2zm-1-.6l.9.7.3-1.2zm-.8-.8l.8.7.3-1.2z"/><path d="M181.1 103.3l.7.6.3-.7zm6.4-1.8l.5-.1-.3-.6zm1.2 1.8l.5-.1-.4-.6zm-2.7.2l.6-.1-.5-.6zm-2.2 1.6l.7-.2-.6-.5zm-.7-.9l.7-.2-.6-.5zm6.7 4.2l-.1-.3-.4.1zm-2.3-5.9l.4-.2-.5-.2zm-.1-2.5l.4-.3-.5-.2zm1.3 5.5l.5-.2-.4-.5zm-2.9-1.7l.3.5.2-.5zm-1.3.6l.3.5.3-.5z"/><path d="M187.2 104.6l.2.5.3-.5zm-1-.5l-.3.5.5.1zm1.7.3l.1-.6-.7.3zm-3.4-.6h.4l-.2-.6zm3.9-1.1l.5-.2-.4-.4zm-4.1-.6l.4.3.1-.5zm.7 1.7l.2.5.3-.5zm3.5 2.1l-.1-.6-.7.3z"/><path d="M186.6 105.6l.6-.2-.5-.5zm2.1.4l.3.5.3-.5zm-2.4-.7l-.1-.6-.6.4zm-.1 1.2l-.1-1-.9.6zm-.8-1l-.1-.7-.6.5zm4.1.2l.5-.2-.4-.4zm-2.1-2l.3.5.3-.6zm.6 4.4V107l-1.1.5z"/><path d="M187.4 105.8l-.7-.3-.1.8zm2.4 1.7l-.6-.5-.3.9zm.4.1l-.5.1.3.5zm-1.7.8l.9.4.1-.8zm1.9-1l-.3-.6-.3.6zm-2.3-.6l.1-.6-.4.1zm-.5.7v-1.1l-.8.3zm.4-.2l.8.5.1-1.1z"/><path d="M187.6 107.9l.9.5.1-.8zm-1.8-6.7l.2-.6h-.6zm1.9-2.1l.3-.1-.3-.4zm-1.9-3.1l.1.4.4-.4zm-1.9-.4l.1.3.3-.3zm-3.2-1.5l.1.3.3-.3zm6.5 2.3l.2.3.3-.3zm-.3-2.3l.1.3.3-.3zm-.3 8l.4.2.1-.5zm-1.3-.9l-.3-.5-.4.6zm.8-2.3l-.3-.6-.4.4zm-6.8-2.5l-.3-.6-.4.4zm20.1 7.2l-.3-.5-.3.5zm-10.8-3l.3-.3-.5-.2zm.8 3.7l-.3-.5-.4.5zm-3.6-3.8l-.2-.5-.6.4zm.1 2.3l-.3-.5-.4.4zm-1.4 1l-.3-.6-.5.5zm5.1-2l.5.2.1-.7zm.1 2.2l.5.1v-.7zm1.6-5.8l.1.3.3-.2zm1.8-.7l.1.3.3-.2zm-4.3-.1l.1.3.3-.2zm1.6 3.1h.5l-.3-.5zm-.6 2.7l.5.2-.1-.5zm6.5-.2l.3-.1-.3-.3zm-1.8 2.8h.4l-.3-.4zm-.9-4.8l.1.3.3-.4zm1.1 3.1l.1.4.3-.4zm-2.3-4.7l.1.3.3-.4zm.5 6.3l-.2-.7-.4.5zm-1.5.7l-.2-.7-.5.4zm-.3-4.7l.3-.1-.3-.4zm5.6-1.7l.5.2.1-.7zm13.6-11l.2.2.2-.2zm-.5-3.2l.3.3.1-.5zm1.3 1.9l.3.2.1-.5zm1.6 1.3l.2.3.2-.3zm-.3-7.7l-.2.2.2.2zm-3.7 5.2l.2.2.2-.4zm.7-3.4l-.2.3.4.1zm-2.7-20.7l.2.2.2-.4zm.7-3.4l-.2.3.4.1zm4.2 26.6v.6l.7-.3zm-1.9-5.6l-.2-.2-.1.4zm2.8-2.7l-.2.3.4.2zm-1.1 2.9l-.6-.1.1.6zm.4-.1l-.3.5.7.2z"/><path d="M211.7 79.8l.1-.5-.5.2zm-.8-.3l-.5-.1v.6zm2.9-.5l-.5.9 1.1.2zm-1.9-1l.1.8.8-.5zm-.3-.4l.5.3.1-.5zm1.8.5l-.4-.6-.6.6zm-2.1-.4l-.1.7.6-.3zm1.4 2l-.5.3.4.3z"/><path d="M213.5 79.5l-.7.8.8.3zm-.4-.2l-.3-.9-.8.8z"/><path d="M213.8 78.9l-.4-.6-.5.6zm-3.8 1.8v.6l.6-.2zm1.1-2.2l-.3.6h.6zm-.4.6l-.2-.2-.1.5zm-1.6 2.1v-.3l-.4.3zm-1.6-4.9l-.3-.3-.1.5zm-.5-1.8l-.3-.2-.1.5zm1.4 3.6l-.2.6.6-.1zm2.6-.4l-.7-.1.2.7zm-.6-4.5l-.2.3.4.2zm-1.2 3.1l-.6-.1.1.7zm.6 1.9v-.5l-.5.3zm.2.1l-.4.5h.7zm-.5-2.1l-.2.5.7.1zm1.4.4l-.3.6.7.1zm-1.5-.7v-.6l-.4.3zm-.8-.2l-.5-.1.1.6zm3.1-.8l-.6.9 1.1.3zm.6 1.3l-.6.9 1.2.2zm-2.6-2.3l.1.8.9-.5zm-.2-.4l.5.4.1-.6zm1.8.5l-.3-.6-.5.7zm-2.1-.4l-.1.6.6-.2zm1.2 2.1l-.5.4.5.2z"/><path d="M211.8 76l-.5.3.4.3z"/><path d="M211.2 75.4l-.7.9.9.2zm-.2-.1l-.4-.9-.7.7zm.6-.5l-.2-.7-.6.6zm-4 2.8l.1.6.7-.4zm1.3-3.2l-.3.6h.6z"/><path d="M208.6 75l-.3-.2-.1.5zm-1.7 3.3l-.1-.3-.3.4zm-.4 1.7l.2.2.1-.5zm1.7 1.4l.3.2v-.5zm.5-7.4l-.3.2.3.2zm1.5-2.2l-.3.2.3.2zm-.9 0l.3.4.3-.5zm1.5 1l-.1-.7-.8.3zm-1.9-1.1l-.2.6h.6zm-.2-.1l-.7-.3v.7zm.9-4.4l-.3.2.3.3zm-2.4 3.8l-.5-.4-.1.7zm-1.6 2.2l.2-.4h-.5zm2.4.2l-.5.4.6.3zm.9-2.8l-.4.4.6.3zm-1.1-1.2l.2-.5-.6.1zm.4 1l-.4-.2-.1.5zm2.1-1l-.7.5.8.5zm.1 1.2l-.8.6 1 .6zm-1.6-3l-.2.8.9-.2zm-.1-.4l.3.4.3-.4zm1.5 1.1v-.7l-.8.4zm0-1.4v-.7l-.7.4zm-1.8.2l-.4.6h.7zm.4 2.4l-.6.2.3.3zm1.2.7l-.6.2.3.4z"/><path d="M209.6 69.5l-.9.6.7.5zm-.2-.2v-1l-.9.5zm.8-.2v-.7l-.7.3zm-1.7 3.5l-.1.6.7-.1zm1.3 0l-.1.5.7-.1zm-2-4.8l-.5.4.6.2zm-1.5.7l-.2-.3-.2.4zm1-2l-.3.1.2.2zm2.6-.7l-.4.1.2.4zm-.3.6l-.5.1.3.5zm.6.5l-.6.2.4.6zm-1.2-1.3l.2.5.3-.4zm-.2-.2l-.8.7 1 .3zm-.3-.2l-.6-.5-.2.7zm2.2-3.9l-.4.1.2.4zm-4.5 2.2l-.4-.5-.3.5zm.4 1.1l-.5.5.6.2zm2.4-.3l-.5.3.5.5zm-.7-1.5l.3-.4-.5-.1zm-.1 1.2l-.4-.3-.3.4zm2.4-.4l-.8.3.6.7zm-.2 1.2l-1 .4.8.8zm-.6-3.4l-.5.7 1 .2zm0-.4l.2.6.4-.4zm1.1 1.5l.2-.7-.8.2zm.5-1.3l.3-.6-1 .1zm-1.9-.3l-.5.4.6.2zm-.1 2.3h-.9l.3.6zm.7 1.1l-.6.1.2.4z"/><path d="M210 63.5l-1.1.3.6.7zm-.1-.2l.3-.9-1.1.1z"/><path d="M210.7 63.3l.2-.7-.8.1zm1.2-6l.1.5.4-.4zm1.2.4l-.4.4.5.2z"/><path d="M212.8 57.1l-.5.6.7.2zm-1.2.1l-.7.7 1 .2zm-.2-.2l-.6-.6-.2.8zm.5-1l-.6.3.5.5zm-.3-1.3l.3-.4-.5-.1zm4.4-4l.3-.4h-.5zm-1.2.8l.3-.4-.5-.1zm-1.8.6l.3-.3h-.4z"/><path d="M215.7 49.8l.3-.3h-.4zm-4.7 6l-.3-.4-.3.5zm2.7-.3l-.9.1.5.8zm-.4 1.1l-1 .3.8.8zm1.1-2.7h-.8l.3.8zm-1.9 1.1h-.7l.2.5zm.5 1.1h-.6l.2.4zm.7-1.1h-.5l.2.4z"/><path d="M212.9 55.3l-1.1.3.6.6zm.2-.3l.4-.7h-1z"/><path d="M213.7 55.2l.3-.6h-.7zm.8-1.4l.2-.5-.6-.1zm-5.7 7.5l-.6.3.5.4zm-1.7.2v-.3l-.4.3zm1.6-1.6h-.3l.1.3zm-2.8 6.4h-.4l.2.4zm.1-5.2h-.3l.1.3zm4.3-4.8l.3.2V56zm0 1.2l-.6-.3v.7zm.1-2.7l-.2-.3-.2.5zm5.1-4.7l-.3-.4-.3.5zm-.7.5l.3.2v-.5zm0-1.5l-.2-.2-.1.4zm-1.2 1.7l.1-.3-.5.1zm3.8-2.7v-.3l-.4.1zm-8.1 8.2l-.3.1.2.3zm3.4-2.5l.3.1v-.4zm2.9-1.7l-.8-.2.3.9z"/><path d="M214.2 53.8l-.2-.8-.7.5zm.6-.6l.3-.5-.6-.1zm1-1.3l.3-.5-.6-.2zm-1.8-.2l.2.2.1-.4z"/><path d="M215.7 51.3l.5-.3-.7-.5zm-3 3.5l-.4-.3-.1.6zm3-3l-.5-.3v.6zm1-1.1h-.5l.1.5z"/><path d="M214.3 52.7l-.5-.3-.1.7zm.7-.4l-.6-.3v.6zm2.1-2.1l.4-.4-.6-.2zm-.4.5l.4-.4-.6-.2zm1.9-2.1l-.9-.2.2.9zm-1.8 1.4v-.5l-.5.3z"/><path d="M217.6 49.7l.4-.5-.7-.2zm-.4-.6l-.5-.4-.2.7zm.7-.4l-.5-.3-.2.6zm-5.4 5.3l-.1-.2-.2.3zm4.1-3.6l-.2-.2-.2.4zm1.8-2.4l.4-.3-.4-.1zm-.1-.8l.3-.2-.3-.1zm-.2.2l-.2-.4-.3.4zm2-1.5v-.3l-.4.1zm1.5.2v-.3l-.3.1zm-1.5.8l-.1-.2-.2.3zm2.5-1.4l-.2-.2-.2.3zm-4.5 2.9l.5-.1-.5-.5z"/><path d="M219.1 48.1l-.5-.1v.4zm.4-.4l.4-.4-.5-.2z"/><path d="M219.1 48.1l.3-.4-.4-.2zm2.5-1.9l-.5-.3-.1.6zm-2.4 1.3l.1-.4-.5.1zm1-.3l.4-.4-.5-.2zm-.5-.5l-.4-.3-.2.5zm3.5-1.2l-.4-.3-.1.5zm-2.4.9l-.3-.2-.1.3zm1.5-.7l-.3-.2-.2.5zm-3.3 2.1l-.1-.2-.2.3zm-3.5 3.5l-.2-.2-.1.3zm-3.7 1.7l-.3.2.2.2zm-2.3 9.2h-.4l.1.3zm2.6-3.4h-.4l.1.4zm.6.1h-.5l.2.5zm-3.3.7l.5-.3-.6-.2zm2.1 1.4l-.9.1.5.8z"/><path d="M211.2 58.7l-.6.5.9.4zm.1-.4l.1.5.4-.2zm.7 1.6l.4-.5-.9-.1zm.6-.8l.8-.7-1.2-.4zm-1.5-1l-.6.3.6.3zm-.7 2.1l-.9-.1.1.6zm.5.5l-1.1.1.3.7zm-.1-.2l.6-.8-1.1-.2z"/><path d="M211.6 60.6l.4-.6-.8-.1zm-1.3-2.3l-.7.1.4.5zm.2-1.4l-.3-.1v.4zm.2 2.4l-.3-.1v.4zm-5.2 21.6l.3.2v-.5zm-.2-3.4l-.1.3h.4zm2.8 1.8l.2.5.5-.4zm5 11.5l.1.5.6-.2zM186.5 96l.3-.1-.4-.4zm-1.1-2.5l.3-.1-.3-.4zm8.1 10.1l.5-.2-.4-.5zm-1.2-.6l.3-.3-.4-.1zm1.4 2.9l.6-.3-.5-.5zm-.5-2.9l.5-.2-.5-.3zm1.2 1.5l-.4-.4-.4.6zm.2-.3l.5.1-.1-.7zm0-.7l.5.1-.1-.6zm5.8-2.3l.4-.1-.4-.3zm-2.9 1.5l.1.3.3-.3zm-1.7-.9l.3-.2-.4-.3z"/><path d="M194.3 103.5l.2.3.2-.3zm.6 1.3l.3.2.1-.5zm1.1-.9l.3.2v-.5zm2.5-1l.2-.5-.6.1zm-.3-1l.3-.2-.5-.2zm-3.1-1.6l.2.2.1-.4zm-1.9.6l.3.2.1-.4zm3.3-1l.3.2v-.5zm-1.5-1.8l.3.2v-.5zm1.7 4.5l-.5-.4-.1.6zm.6 1.6l-.4-.4-.3.7zm3.6-4.9l.2.2.2-.3zm1.2-1.5l.2.2.2-.3zm-3.8 2.1l.3.3.1-.3zm2.9 1.9l.5-.3-.5-.2zm1.2-2l.3.2v-.5z"/><path d="M195.6 99.9l.2-.2-.5-.2zm-2.2-1.6l.2-.2-.5-.2zm6.9 6.3l.3-.2-.3-.2zm-3.2 0l.3-.2-.4-.3zm5.2-5.3l-.2-.3-.2.4zm4.4 0l-.1-.3-.3.4zm-2.3 2.7l.2-.2-.4-.2zm-.1-1.5l.3-.2-.5-.2zm2.7.4l-.5.4.5.3zm1.2 1.3l-.6.3.5.4zm-4.5 1.6l-.2-.3-.2.4zm2.7-2.2l-.4.5.6.2zm-.6 1.6l.1-.4-.4.1zm-1-7.1l.3-.2-.3-.2zm-1.2-1.5l.3-.2-.3-.2zm-4.1 3.1l.2-.1-.2-.2zm5.3 1l.3-.2-.3-.2zm-5.7 4.9l.3-.2-.5-.2zm5.6-.8v-.6l-.6.2zm-4-.6l.3-.2-.3-.2zm2.5.3l-.2-.6-.3.5zm.9-1.1l-.2-.3-.2.4zm2.5-4.1l-.5.5.6.2zm-13.6 4.1l.2.3.2-.3zm4.6 4.4l.2-.1-.4-.3zm-3.2-1.2l.2.3.2-.4zm2.7-1.8l.6.1-.2-.7zm4 .2l.2-.2-.4-.2zm-4.4 1.8l.3-.2-.4-.2zm2.9.4l.1-.6-.5.3zm-.5-.9l.2-.3-.5-.1zm-3.5-.7l.3.1v-.5z"/><path d="M194 104.7l.3.1v-.5zm2.9-1.9l.3.1-.1-.5zm-2-1.3l.4.1-.1-.5zm3 3.9l-.6-.3v.6zm3.1-4.4l.2.2.1-.4zm.7-1.8l.3.2v-.3zm-3 3.1l.3.2v-.3zm3.3 1l.3-.4h-.5zm.5-2.2l.4.1-.1-.4zm3.9-3.7l-.1-.6-.6.4zm-1.4.2l-.4-.4-.2.6zm1.6 1.7l.4-.2-.4-.3zm-.3-.2l-.7-.2.1.6zm-6.7-2.5l-.1-.3-.3.4zm4.3.8v-.3l-.4.3zm-2.8 2.2l.3-.1-.3-.3zm.3-1.4l.2-.2-.3-.3zm4.9 1.4l-.4.3.6.3zm-2.3-.5l-.6.3.4.3zm-.8.5l-.5.5.6.2zm2.2-3.2l-.4-.4-.1.6zm.2 2.8l-.5.2.5.5zm.9-4l.1-.5h-.7zm-3.9-1.3l.3-.1-.2-.3zm-.8-1.7l.3-.1-.2-.3zm-4.7 2.4l.3-.2-.2-.2zm5.1 1.9l.3-.1-.2-.3zm2.9-1.9l-.1-.5-.4.4zm.5-5.5l-.1-.3-.3.3zm-1.9 3.6l.3-.1-.4-.3zm2.5 1l-.2-.3-.3.4zm-4.9 6.8l.2-.6-.7.1z"/><path d="M197.5 99.2l.3-.2-.2-.2zm2.4.7l-.1-.6-.4.4zm1.1-.9l-.1-.3-.4.3zm3.1-3.5l-.5.4.5.2zm-6.4 4.5l.3-.1-.4-.3zm.3-2l.2.2.1-.3zm1-1.6l.3.3.1-.4zm-.5 4.1l.5-.3-.6-.2zm1-2.1l.3.2v-.5zm-.1-.5l-.2-.2-.2.4zm4.4-.4l-.2-.2-.3.4zm-2.1 2.9l.2-.2-.4-.2zm-.2-1.5l.2-.2-.4-.1zm2.7.2l-.5.4.6.3zm-.5.7l-.4.6.6.1zm-2.1-5.3l.2-.2-.3-.2zm-1.3-1.4l.2-.2-.3-.2zm-5.2 2.8l.3-.1-.2-.3zm-.8.9l-.1-.3-.3.3zm3.1-2.7l.3-.1-.2-.3z"/><path d="M196.5 92.4l.3-.1-.2-.3zm-4.7 2.3l.3-.1-.2-.2zm5.1 2l.3-.1-.2-.3zm-3.2-.1l.3.2.1-.3zm2.6-1.9l.2-.2-.2-.2zm-1.3-1.4l.2-.2-.2-.2zm6.8 3.8l.3-.2-.3-.2zM198 101l.3-.2-.3-.2zm2.6 0l-.3-.5-.3.5zm.8-1.2l-.2-.2-.3.4zm2-4.2l-.4.5.6.1zm4.7-2.2l.3-.1-.2-.3zm3.3-1.2l.3-.2-.3-.2zm-1-.7l.3-.1-.2-.3zm-.9-1.7l.4-.1-.3-.3zm-4.6 2.4l.3-.1-.2-.3zm6.6-1.8l.3-.2-.4-.3zm.4 2.7l-.5.4.5.3zm-2.6-1l.3-.2-.3-.2zm-1.3-1.4l.3-.2-.3-.2zm-5.2 2.8l.4-.1-.2-.2zm2.3-1.8l.3-.1-.2-.3zm-.8-1.7l.3-.1-.2-.3zm-.3 2.3l.3-.2-.3-.2zm-1.2-1.4l.2-.2-.3-.2zm8.4 2.3l-.4.5.6.1zm-21 8.4l.1.3.3-.2zm1.8-.7l.1.3.3-.2zm-1.9-4.9l.1.3.2-.2zm-.4 4.4l.2.3.2-.3zm1.5-1.1l.2.3.2-.3zm-1.8 1.7l.3-.3-.5-.2zm1.2 1.1l.5.2v-.7zm1.3-3.8l.1.3.3-.2zm1.7-.9l.1.3.3-.2zm-2.3-4.6l.1.3.3-.3zm-2 5l.1.3.3-.2zm1.9 2.9h.5l-.4-.5zm1.9-1.3l.1.3.3-.4zm-1 2.4l.3-.1-.4-.3zm-1.8-2l-.4-.6-.2.6zm1-2.6l.2.3.2-.3zm1.4-1.3l.2.3.2-.3zm15.2-3.6h.3V92zm.4-8.8v-.3l-.4.1zm.5 2.4v-.4l-.3.1zm.6 1h-.4l.2.4zm-1.5-3.8v-.4l-.3.1z"/><path d="M206 83.2v-.3l-.3.1zm.5 5.3v-.4l-.3.1zm3.7-4v-.4l-.4.1zm-1.2 2.9l.3-.2-.3-.2zm-.9-3.1l-.1-.3-.3.2zm-1.8.7l-.1-.3-.3.2zm.8 5.6h.3l-.1-.3zm2.6-2.8h.3l-.1-.3zm-5.2.5h.3l-.1-.4zm4.1 1.5l.3-.1-.1-.2zm-.7-1.7l.4-.1-.2-.3zm-17.7 11l-.5-.4-.1.6zm17.1-.8l.2-.3-.5-.1zm2-1.4l.1-.3-.5.1zm-3.4.6l.3.1-.2-.5zm.8-1.1l.4-.1-.3-.4zm-2.3-.6h.4l-.2-.4zm4.2 2.6l-.7-.1.3.6zm1.3-5.2h.3l-.1-.3zm0-1.9h.3V91zm-1.7 4h.4l-.1-.3zm-2.2 1.6v-.3l-.4.2zm-2.7.1l.1-.3-.5.1zm7.5-5.6l-.2-.3-.3.3zm-1.1-1.5h-.3l.2.4zm-2.8 1.6v-.4l-.4.1z"/><path d="M209.3 90.4l.3-.2-.2-.2zm-1.9 3.2h.3l-.1-.3zm2.8-.9h.3l-.1-.3zm-.2-1.9h.4l-.1-.3zm-5.2.5h.3l-.1-.4zm4 3.7h.3l-.1-.4zm.2-2.1l.3-.1-.2-.3zm-.7-1.8l.3-.1-.2-.3zm2 3.5l-.6.3.5.3zm-12.1 5.1l.3.2v-.4zm.6-1.8l.3.2v-.4zm1 1.8l.3.1-.1-.5zm-3.8 3.4l.2-.3-.5-.1zm-2.5-1l.1-.3h-.5zm-3.6 3.8h.3l-.2-.4zm-.4-2.6l.1.3.3-.4zm3.5 1.1l-.4-.5-.3.5zm-3 .2l.2.2.1-.4zm1.1-.7l.3.1v-.4zm15.4.9l-.4-.5.7-.2z"/></g></svg>