<svg xmlns="http://www.w3.org/2000/svg" xmlns:xlink="http://www.w3.org/1999/xlink" viewBox="0 0 480 480" xmlns:v="https://vecta.io/nano"><path d="M238.4 48s2.3-2.1 5-1.8c4.1.6 7.2 5 9.6 8.9 2.7 4.3 3.4 9 3 14.8-.2 3.9.8 36.3 1.2 47.6.1 2.1-1.6 3.9-3.8 4l-38.6.7L238.4 48z" fill="#321011"/><path d="M226.1 78.8l-7.5 24.5-2.2 5.7s3.2 4.1 10.8 5.7c5.2 1.1 8.7 1.2 11 1 1.9-.2 4.2-.6 3-4.1-1.7-5.2-1.1-8.5-1.1-8.5l2.7-14.7-16.7-9.6z" fill="#ea9d7d"/><linearGradient id="A" gradientUnits="userSpaceOnUse" x1="229.186" y1="95.719" x2="236.058" y2="86.871"><stop offset="0" stop-color="#bc5a32" stop-opacity="0"/><stop offset=".99" stop-color="#bc5a32"/></linearGradient><path d="M224.9 92c2.5 3.8 6.9 7 9.4 8.2 3.5 1.7 6 2.1 6 2.1l2.2-12.2-16.4-11.3-.9 1.7-.7 2.8c-.1.1-1.9 5.2.4 8.7z" fill="url(#A)"/><use xlink:href="#E" fill="#cf7653"/><g fill="#a84d3b"><path d="M228.9 84.6l.2.5.4-.4z"/><path d="M228.9 84l-.3.9 1.1-.2zm5.3 3.8v1.1l1.1-.5zm-2.7-1.7l-.1 1.1 1.1-.4zM230 85l-.2 1.1 1.2-.3z"/><path d="M228.2 83l-.4 1h1.2zm7.5 7.2l-.5-.6-.4.7zm-1.4-1.1l-.6-.8-.3.9zm4.1 2.1l-.7-.7-.2.8zm3 1.1l-.7-.8-.3.9zm-5.3-3.6l-.6-.3v.9zm1.4 3.1l-.5-.5-.3.7zm-3.9-4l-.6-.4-.1.9zm5.3 2.1l-1-.4.1 1.2zm1.9.3l-.8-.1.2.9zm1.3 1.6h-.8l.3.7zm-2.8-.2l-.3-.7-.5.7zm2.4 2.3l.1-.7-.8.2zm-.2 1.3l.1-.7-.8.2zm-1.7 0l-.4.3.5.3zm.3-3.9l-.4.4.6.3zm2.3-.7l-.6-.1.2.6zm-1.9 5.8l-.4.3.6.3zM230.6 86l-.4.3.5.3zm6.7 4.8l-.3-.3-.1.5zm-2.8-.8l.1-.4h-.5zm1.4.9l.2-.4h-.5zm2.1 2l.2.5.5-.4zm2.9-2l-.3.3.4.2z"/><path d="M241.1 90.4l-.5.4.6.3zm-1.2.4l-.4.3.4.2zm.4 7.1l-.4.2.4.3zm-1.1-1.1l.2.4.3-.4zm-.1-2.4l.2.4.3-.4zm1.9.9l-.3-.2-.1.4zm-13.9-4.7l.2.2.2-.3zm1.9-1.2l-.2.2h.3zm2 3.5l-.3-.1.1.4zm-1-1.7l-.2.3h.4zm6.9 3.2l-.1.6.6-.3zm-.9-4.5v.5l.5-.2zm0-1v.5l.6-.3zm-7.7-3.1v.6l.5-.3zm12 7.3l-.5.1.4.4zm-1.5 4.2l-.2-.4-.4.4zm.3-5.2l.3.4.3-.5zm1.6.6l.3.5.3-.6zm1-1.9l-.3.4.5.1zm-.6 3.2l-.4-.3v.6zm-11.3-8.9l-.6.4.7.4zm-2 .8l-.3-.3-.1.5zm-2-1l-.2-.2-.1.4zm-.5 3.1l.1-.4h-.4zm3.8-2.2l.2.4.4-.4zm-1.2-1l.3.6.5-.5zm-.2-2.7l-.4.6.8.1zm3 4.8l-.3.2.4.3zm.8-.4l-.3.2.4.2zm.8.4l-.3.2.3.3zm-1.5 2.7l-.2-.2-.1.4zm-6-3.4l.2.3.3-.4zm2.3-2.3l-.3.2.4.2zm-.1 3.7l-.3-.2-.1.4zm.3-4.1l.2.3.3-.4zm1 .5l.2.4.3-.4zm-2.3-1l-.3.3.4.1zm.3-1l-.3-.2-.1.4zm5.3 5.5v.4l.5-.2zm1.9.8l-.4.1.3.3zm-.8-.8l-.4.1.3.3zm6.7 3l-.4.1.3.3zm-1.5-.6l-.3.1.2.3zm-4.7.7l-.1-.3-.3.3zm5.6 5l-.1-.3-.3.3zm-6.1-6l-.2-.3-.3.3zm2.6-.6v.5l.4-.2zm1.6.4v.4l.4-.2zm1.8.9l-.4.1.3.3zm-1.4 2l-.2-.3-.2.3zm-4.3-.1v.4l.4-.2zm1.9-1l-.3.1.2.3zm3.4.8l-.1-.3-.3.3z"/></g><path d="M248.5 56c3.2 1.8 4.3 3.9 5.7 6.6.5 1.4.5 2.6.5 3.7 0 4.2-.3 10.1-.8 13.4-1 5.7-3.7 9.1-6.9 10.1s-9-1.1-12.9-3.1c-3.3-1.7-5.2-3.5-5.7-5.6-.5-2.2-1.5-5-1.5-5l-5.7-3.9s-6-8.5 3.7-15c8.3-5.6 17.2-4 23.6-1.2z" fill="#ea9d7d"/><path d="M243.4 90.6c-1.1 0-2-.2-4-.7-3.2-.8-7.7-3.3-10-5.5-2.2-2.2-2-4.3-2-4.4 0-.2 0-.5.2-.5s.3.2.4.4c.1.4.1 2.1 1.9 3.9 2.1 2.1 6.6 4.5 9.6 5.3 3.1.7 3.7.9 6 .7 2.2-.2 3.4-.9 3.4-.9.4-.3.5-.3.3 0-.2.2-1.4 1.2-3.6 1.6-.9.1-1.5.1-2.2.1z" fill="#b76349"/><path d="M238.3 68.4a.78.78 0 0 1-.2-1c.1-.1 1.7-2.5 5.3-2.2.4 0 .7.4.7.8s-.4.7-.8.7c-2.7-.2-3.8 1.5-3.9 1.6-.3.3-1 .2-1.1.1zm14.9-1.8c-.1 0-.3 0-.4-.1-.7-.5-1.5-.4-1.6-.4-.4.1-.8-.2-.9-.6s.2-.8.6-.9c.1 0 1.5-.4 2.8.7.3.2.3.7.1 1-.1.2-.4.3-.6.3z" fill="#4f2b23"/><path d="M243.8 84.4h0c-3.8-.2-5.4-2.9-5.8-4.4-.1-.4.1-.8.5-.9s.8.1.9.5c0 .1.8 3.1 4.4 3.3.4 0 .7.4.7.7 0 .5-.3.8-.7.8z" fill="#cf7653"/><path d="M247 78.9h-.2c-.4 0-.6-.4-.6-.7 0-.4.4-.6.7-.6.2 0 .7 0 .9-.6s-.3-1.5-.5-1.8-.2-.7.1-.9.7-.2.9.1c.1.2 1.2 1.6.8 3-.4 1.2-1.4 1.5-2.1 1.5z" fill="#b4603f"/><g fill="#4f2b23"><circle cx="241.8" cy="72.1" r="1.4"/><path d="M241.5 71.7c-.2 0-.7 0-.8-.2-.1-.3.3-.7.6-.8 1-.5 1.8-.4 2.1-.4a.47.47 0 1 1 0 1c-.3 0-.9 0-1.7.3 0 .1-.1.1-.2.1z"/><circle cx="252.2" cy="71.3" r="1.4"/><path d="M251.9 70.9c-.2 0-.8.1-.9-.1-.1-.3.4-.7.7-.9 1-.5 1.8-.4 2.1-.4a.47.47 0 1 1 0 1 4.54 4.54 0 0 0-1.7.3c0 .1-.1.1-.2.1z"/></g><g fill="#f4b9a6"><path d="M244.6 76.5l.7-.4-.8-.4zm-7.6-1l-.2-.5-.5.5zm9.7.4l.7.1-.4-1zm-1.6-3.1l.7.5.2-.8zm.4-.9l.9-.5-.8-.6zm1.6 8.1l.8-.4-.7-.7zm2.3-.9l.5-1h-1.1zm-5-3.4l-.7.1.4.7z"/><path d="M245 74.8l-.8.1.5.6zm-.5 3.7l.2.7.7-.5zm.2 1.4l.6.4.3-.7zm3.4 2.5l-.7.1.5.6zm-1.5-15.3l-.3.5h.8zm.3 4.4l-.6-.2.2.7zm.8-2.1l-.6-.2.2.7zm-4.2 2.8l-.2.6.9-.1zm.8-3.1l-.6.3.6.5zm-2.9.7l-.4.1.2.4zm5.5 12.4l-.6.2.4.5zm-.7-.4l-.6.1.4.6zm-4.8-4.3h-.7l.3.6zm1.3 1.3h-.6l.3.6zm-1.7-3.4l-.1.6.7-.2zm3.2-.4l-.1-.5-.6.5zm6 5.8l.3-.4-.6-.1zm-2.2-1.9l.3.1.1-.4zm4.2-3.9l-.1.5.4-.2zm-2.1 1.9l.5.1-.1-.5z"/><path d="M252.3 75.8l.1-.4h-.5zm-12.5-4.6l-.3.4.5.1zm6-2.3l.8-.1-.6-.7zm-.2 8.8l1-.1-.7-.8zm-.6-5.8l-.6-.1.2.6zm-4.9 3.9l.1-.6-.8.3zm4-5.6l.1.7.7-.4zm-.9 1.3l.1.7.8-.3zm.8-.5l-.1.7.8-.4zm5.9.2l.6.3v-.7zm-5 2.8l-.3-.4-.4.5zm2.3 7.6l-.5.1.4.5zm-2.3-4l-.2.4.6-.1zm.3 3l-.2-.5-.3.5zm.9.5l.4-.3-.6-.2zm.3-1l.5-.3-.6-.4zm-.2-.8l.6-.3-.6-.4zm.1-2.6l.4-.3-.5-.4zm-1.3.1l.4.4.3-.5zm4.9 4.6l-.5.1.4.5zm-2.3-5.2l-.3.4.5.2zm.9 5.5l-.4-.4-.3.4zm-3.3 1.5l.1.6.6-.3zm-1.2-3l-.5.2.4.4zm-5-6.3l-.3-.4-.3.5zm5.2 7.7l.4.2.1-.6zm-1.4-1.2l.4.3v-.6zm-1.2 3.9l-.3.4h.6zm-.8-.7l-.5-.1.1.5zm-1-.2h-.5l.1.5zm5.7-7.7l1.1-.2-.8-.9zm-.6-2.5l.2.5.4-.5z"/><path d="M244.9 74.1l.5.9.8-.9zm2.7-1.1l-.7.7 1 .3zm-6.7 1l.1-.4-.6.2zm6.1 0l-.4.3.5.2zm-1.8-3.3l.7-.1-.4-.5zm3.8 1.7l.7-.1-.5-.6zm-4.2-.3l.7-.1-.5-.6zm4.6-2.6l.6-.1-.4-.5zm-2-1.5l-.4.2.5.3zm-4.9 1.3v-.4l-.6.2zm-.1 7.9l-.1.7.8-.2zm-.9-.5l-.6.1.3.6zm1.1 2.9l-.2.6.8-.2zm1.1-2.6v.7l.7-.3zm-.7 1.3v.8l.8-.4zm-.7-2l.1-.6-.6.3zm8.2-3.5l.6-.1-.4-.5zm-2.1-2.2l.2.4.4-.4zm3.9 7.4l.6-.2-.4-.3zm-8.7-8.7v-.4l-.5.2zm3.7 1.5l-.2.6.7-.2zm-.7-1.2l-.2.6.8-.2zm1.4 4.5l.9.6.4-1zm1.2 1.6l1.1-.2-.7-1zm-3.4.3l.4.1v-.3zm.1-2.5l-.3.4.7.1zm1.1-1.2h-.6l.4.6zm1.9.4l-.6.1.3.6z"/><path d="M247.1 73l1-.5-1-.7zm1.8-4.4l.4-.6-.9-.1zm-3 9.9l.4-.6h-.9zm.2-4.4l.9-.4-.8-.6zm1.3-4.1l.3.3.3-.5zm1.2 1.1l-.7.8 1.3.2zm1-1.2l-.3.4.6.1zm.3 3.9l.3.4.3-.5zm-1.3-4.5l-.3.4h.6zm-8.2 4.4l-.7.2.5.5zm2.8-.8l-.4.5h.7zm-.5.8l-.1-.4-.4.3zm-.7.5v-.4l-.5.3z"/></g><use xlink:href="#E" x="-0.2" fill="#cf7653"/><linearGradient id="B" gradientUnits="userSpaceOnUse" x1="241.863" y1="64.523" x2="238.292" y2="59.574"><stop offset="0" stop-color="#bc5a32" stop-opacity="0"/><stop offset=".99" stop-color="#bc5a32"/></linearGradient><path d="M232 70.4l10.7-6.1c5.9-2.6 11.2-2.3 11.2-2.3s-.8-1.7-2.5-3.8c-1.1-1.3-2.5-2.1-2.5-2.1l-6.1-1.8L232 70.4z" fill="url(#B)"/><path d="M227.2 81.4l-.4.3.5.3z" fill="#a84d3b"/><path d="M230 45.8c-4.4 1.5-9.8 5.7-15.1 16s-6.4 17.1-7.3 28.8l-2.2 26.7c-.2 2.7 1.9 5 4.6 5h7.9s6.6-19.7 7.6-28.8l2.6-22.3s3.2 2.9 4.6.7c7.5-11.8 16.7-15.6 16.7-15.6l-11-8.3c0 0-4.7-3.5-8.4-2.2z" fill="#321011"/><ellipse cx="224.4" cy="75.3" rx="5.3" ry="5.7" fill="#ea9d7d"/><linearGradient id="C" gradientUnits="userSpaceOnUse" x1="224.487" y1="78.668" x2="224.824" y2="73.34"><stop offset="0" stop-color="#cc7a5e" stop-opacity="0"/><stop offset=".924" stop-color="#aa5f4b"/></linearGradient><ellipse cx="224.7" cy="75.3" rx="2.4" ry="2.5" fill="url(#C)"/><path d="M227.9 79.1c-.9 1-2.2 1.5-3.5 1.5-2.7 0-4.9-2.4-4.9-5.3s2.2-5.3 4.9-5.3c1.9 0 3.6 1.2 4.4 2.9 0 0 .2.1.5-.1s.2-.6.2-.6c-1-1.8-2.9-3.1-5-3.1-3.2 0-5.8 2.7-5.8 6.1 0 3.3 2.6 6.1 5.8 6.1 1.4 0 2.5-.4 3.5-1.2l-.1-1z" fill="#b76349"/><g fill="#964c38"><path d="M226.9 75.9v-.4l-.4.1zm-1.7-3l-.4.1.3.4z"/><path d="M225.1 73l-.5.6.9.2zm-.9-.1l-.6.2.5.5zm2.6 1.5l-.3.2.4.2zm-.9-.5l-.3.3.4.1z"/><path d="M226.5 74.6l-.2.3.4.2zm-2.2-.8l-.3.2.5.2z"/><path d="M223.8 73.5l-.4.5.7.2zm1.7 1.8l.2.2.1-.3zm1.1-1.2l-.1.2h.3zm.2.9l-.1.3h.3zm-3.6-1.6l-.4.4.6.1zm.8 1.5h-.2l.1.3zm.6.9l-.1-.3-.2.2zm.8-2.5l.2-.2-.3-.2zm-1.2 0l-.3.3.5.1zm-.5.3l-.3-.2v.4z"/><path d="M223.7 73.6v-.3h-.3zm2.4.4l.2.3.2-.3zm-.4-.9l-.1.7.7-.2z"/><path d="M225.4 73.6l.3.2.1-.4zm-2.4.9l-.2.3h.3zm1.8-1.6l-.3-.1.1.4zm-.6 1.8l.2.3.2-.4zm.8 1.3l-.1.2.3.1zm-2.1-2.2l-.2.3.4.1z"/><path d="M223.8 76l-.3-.1.1.3zm-1.1-1.6l.3-.1-.2-.3z"/><path d="M222.4 75.5h.2l-.1-.3zm.2-1l.2-.1-.1-.2zm.7-.3v.3l.3-.2zm-1 .9h.4l-.2-.4zm.6.1v.2l.3-.2zm2-1.3l-.3.2.3.2zm1.4 1.5l.1.4.3-.2zm-2-2.2l.1.4.3-.3zm1 1.1l-.2-.2-.1.3z"/></g><g fill="#633535"><path d="M227.6 46.8l.9.7.2-1.2zm8.7 4.9l-.5-.1.1.5zm4.2-1.4v-.4l-.3.2zm-9.9-4.1l-.1.7.8-.1zm8.7 2.5l-.2.6.7-.2zm-12.8-1.2l-.7.5.9.5z"/><path d="M225.8 48l-.8.6.9.5zm-.4 2.3l-.7 1 1.3.4zm-1.5-.7l-.7.6.9.4zm11.5-3.3l-.9-.2-.1 1.1zm-3.3 1.3l-.2-1-.8.6zm1.6.2v-.9l-.9.4zm1.6.5l.5.9.6-1.2zm.3-1.9l.2 1.4 1.2-.6zm-.5 2.8l-.3.4.5.1zm-6.8 1.6l-.1.5.5-.1zm-1.9 0l-.1.5.5-.1zm.1-.8l-.2.4h.5zm-1.5 1.9l-.2.4h.5zm-.7-.3l-.2.4h.6zm-.7.3l-.2.5h.5zm16.2-1.5l-.1.4h.4zm-2.6-.5l.4.3.1-.5zm-10.5 2.8l.4.1-.1-.5zm.7-2.3v.3l.4-.2zm2.7 1.8h-.3l.2.3zm-.9-.8l.1.3.3-.3zm3 1.7l-.3.1.2.2zm1.2-.5l-.1-.3-.3.2zm-.1-6.8l.3 1 .8-.8zm-6.1 2.9l.4.5.3-.6zm11.2-.7l-1.1-.7.1 1.5z"/><path d="M239 48.5l-.5-.3-.2.5zm-1.5-1.1l-1.1.6.2-1zm-.9 1.6l.5.4.1-.7zm.3-.8l.3.4.2-.7zm-4 1.8l-.1.5.4-.1zm6.1-1.1h-.5l.2.6zM223.9 51l-.2.5.6-.1zm-.5-.5l-.2.5.6-.1zm-.7 1.2l.7.2-.1-.9zm-.4 0l-.3.6h.8z"/><path d="M227.3 47.9h-.4l.3.4zm-4.6 3.9l-.3-.8-.7.7z"/><path d="M223.4 51.2l-.3-.9-.8.7zm2.1-2.4l.9.5v-1.1zm.7.7l.7.5.2-.9zm2-.9l.3.2.1-.6z"/><path d="M227.8 47.2l-.6 1.2h1.5zm-2.9 1.5l-.7.5.8.6zm2.8-1.9l-1.1.6.8.3zm1.2 2.5h-.4l.2.3zm-3.2 1.3l.4.2v-.6zm-.6-.8l.9.1-.6-1zm-2.2 3.5l-.2.3h.4zm1.8-3.1h-.5l.4.7z"/><path d="M224.7 49.7l-.6-.3v1.1zm-.4 3.4l.5.2-.1-.5zm2.3.6v.5l.4-.2zm-5.3-1.3l-.2.9 1-.1z"/><path d="M221.7 51.7l-.6.7.9.3zm3.2 2.8h-.4l.2.5zm-2.5-1.3l.4-.2-.3-.3zm3.4-.7l.3-.1-.3-.4zm-5.4.7l.9.2-.3-.9zm-.6.8l.9.2-.3-.9zm-.8 1l1.1.1-.5-.9zm-.8 1l1.1.2-.4-1.1zm7.2-2.6l.2.3.2-.4zm1-1.1l.4-.2-.3-.4zm-3.5 1.8l.1.3.3-.3zm5.4-2.4l-.3.3.4.2zm-.2 2l-.3.3.5.1zm.5-6.2l.3.4.2-.5zm2.3-1.9l-1 .2.5.9zm-1.2.3l-.9.4.8 1zm1.3 2.7l-.7-.5-.2.9zm6.5 2.7l-.2-.2-.1.4zm-7.1-3.4l-.3-.1v.4zm1.7-2.4l.4 1 .7-.8zm-.6 3.8l.3.4.3-.5zm-.5-3.7l.5.8.5-.9zm2.3 3.2l.3.5.3-.4zm.7 1.3l.1.5.4-.4zm1.3-3.4l-.4.2.4.2zm-1.2.5l-.3-.2v.4zm1 1.2l-.3-.3v.5zm4.7 1.4l.5-.2-.5-.4zm.9.7l-.2.3h.5zm-1.4-.7l-.4-.2v.5zm-7.7.7l.2.4.3-.4zm.9-2.2l-.2.3.3.2zm1 3.6l-.4-.3v.4zM222 58l-.3-.1.2.4zm4-.1l-.3.2.3.1zm-3.9 3.8h-.3l.2.3zm5.5-4.9l-.2-.2-.2.3zm-6.3 6.4l-.2-.2-.2.2zm2-4.3l-.2-.2-.2.2zm1.1-3.3l.4.4.1-.5zm3 .6l-.4-.2.1.4zm8.3-8.6l-.3-.2-.1.5zm-3.1-.2h-.8l.4.9zm.3-.7l-.5.1.2.5zm-2.8 2.9l-.2-.5-.3.4z"/><path d="M229.1 48.2l-.3 1.1 1.2-.2zm-.5 0v.3l.3-.1zm1.5 1l.1.4.2-.2zm.3-2.1l-.5-.1.2.5zm-.2-.8l-.6-.1.1.7zm-1.1.4l-.6-.1.2.7zm3.3-.7l-.6-.3v.8zm1.1.1l-.6-.3v.7zm-2.3 1.6l-.1-.4-.4.3zm-.1 1.5l-.1-.4-.4.3z"/><path d="M230.8 47.8l.4.4.2-.7zm3.2.6l.5.2-.1-.7zm-6.7 1.3h.5l-.1-.5zm2.5-1.5l.4.3.1-.5zm3-.8l-.3.4h.4zm-.7 1l-.5-.1.1.5zm1.1.8l-.3-.3.1.5zm-2.5 1l-.2.4h.5zm2.8-2l-.3-.1v.5zm2.2 1.6l.2.5.4-.4zm2.4 0l.2.4.3-.5zm-.9-.6l-.4.2.4.2zm-.8-.1l-.3-.2-.1.5zm1.7 1.1l-.4-.1.1.5zm0-1.1l-.4-.1v.5zm11.3 1h-.4l.2.5zm-1.3.2v-.5l-.5.2zm-2-.6l-.2.5h.6zm1.8-1.2l-.2 1.1 1-.3z"/><path d="M247 47.8l-.1 1 1-.3zm-3.2-1.5l.3 1 .9-.7zm3.9 5.2l-.2.4h.4zm-6.1-3.9l.3.3.1-.6zm3.4 1.6l.4.3.1-.5zm2.3-.1l-.5-.1.2.5zm-1.2-1.9l-1.1-.5.2 1.4zm-4.6-.9l.7.9.5-1z"/><path d="M243.8 46.3l-1.2-.1.7 1.2zm-4.4.9l1 .6.1-1.1z"/><path d="M241.6 46.3l-1.2.4 1.2.8zm5.4 1.5l-.9-.6-.4 1zm-3-.2l-.4-.3v.6zm-5 .3l-.2-.2-.3.2zm7.8.3h-.5l.3.5zm-1.8-1.1h-.5l.3.6zm-2.1-.5l-.5.1.3.6zm-2 .5l-.4.2.4.5z"/><path d="M239.4 47.2l-.4.3.5.4zm8.1 2.2l.5-.3-.5-.3zm-3.9-2.1l.5-.3-.6-.2zm4.5 3.1l-.2.5h.6zm1 1.2l.1.2.2-.2zm-.8-1.7l.5.3.1-.6zm1.2.4l-.3.6h.7zm-2.1-.4l-.3-.2v.5zm-4.5-2.5l-.1.5.6-.1zm3 1.7l.2.4.3-.5zm-.9-1.2l-.3-.1.1.5zm-5-.2l-.3-.1.2.5zm5.9.7l-.4-.1v.5zM230 50.2l-.3-.2-.1.5zm-17.4 16.4l1.1-.1-.5-1.1zm3.3 4.5l-.4.1.3.3zm-6.5 9.3l-.2-.5-.4.4zm5.6-16.2l.6.8.6-1zm4.8-8.8l.5.1-.1-.7zm2.3-2l.3.5.3-.5zm-10.7 16l-.5 1.7 1.4-.1zm-.6 2.1l-.3 1.1.8-.6zm2.2-.3l-.1.5.7-.1zm-1.5.7v.5l.5-.2zm4.8-12.6l-.4.7 1.2.2zm.5 4.3l-.3-.2-.1.5zm1.1-1.8l-.8-.3v.9zm.8-3l.3-.3-.6-.3zm.9 1.1l.4.4.2-.5zm-5.6 9.9l-.1.4.5-.1zm-2.1 3.8l-.1.4.5-.1zm16.5-21.3l.2.5.3-.5z"/><path d="M221.7 56.4l.1.5.3-.3zm-.7 1.3l-.3.1.3.4zm0-1.6l.3.3.1-.4zm2-.2l-.2.4h.5zm.2-1.5l.4.3.1-.5zm-1.8.5l.3-.4-.6-.1zm-2 1.7l.3-.4-.6-.1zm.5-2.4v.5l.5-.2zm-7.2 18.1h.3l-.1-.4zm.5-2.7l.1.3.4-.2zm3.8 1l-.3.1.3.3zm-2-.5l.1.3.3-.2zm-1 2.9l-.2.3.3.1zm-1.3 2.4l-.2-.2-.1.4zm8.1-14.8h.5l-.3-.6zm-5.5.4l1.4.2-.9-1.1zm-2.5 7.2l.4.4.1-.7zm5.5-12l.4.3.2-.4zm3.5-1.1l-.3.4h.7zm-.3-1.7l-.3.7h.9zm-.9.9l-.4.8 1.1-.1zm-2.1 3.8l-.9-.9-.7 1z"/><path d="M219.2 56.2l.3-.6-.7.4zm-1.1.3l-.5.7 1.2.1zm-.2 7.3l.4.5.5-.5zm1.4-8.8v.4l.5-.3zm-7.2 17.5l-.1.4.5-.2zm.8-4.5l-.3.1.3.3zm-2.2 5.9l-.4.1.2.4zm.8-.7l-.1-.4-.3.4z"/><path d="M211.8 69.4l.5.1-.1-.5zm1.7-1.8h.5l-.1-.5zm-1-.8l-.3 1h1.2zm.1 3.2l-.1.7.7-.2zm1.8-2l-.8.3.6.7zm-2.8.8h.8l-.4-.7zm-1.2 4.3l-.3 1 1.2-.2zm2.1-1.9l-.8.1.7.8zm-1.8 1.7l.4.1-.1-.5zm1.8.6l-.1.5.5-.3zm-1.3.9l-.4.1.3.3zm6.3-12.2l-.1.7.7-.2z"/><path d="M215.9 62l-.1.5.7-.1zm.8-1.5l-.1.6.5-.2zm-.1 3l-.1.4.5-.1zm.6-.9h.5l-.2-.4zm-4.6 6.3l.5.7.5-.8zm1.8-2l.2.3.2-.3zm3-8.2l.4-.1-.2-.5zm-.1 1.2l.3-.1v-.4zm-2.8 6l.3.2.1-.4zm2.2-3.2l-.1.5.6-.2zm-.6.5l-.3-.6-.5.5zm.9-1.4l-.4.2.2.3zm.2 1.8v.3l.3-.2zm-2.1.7h-.8l.5.9zM211.6 76l.3-.3-.3-.2zm-2.1 1.2l.2-.4-.3-.1z"/><path d="M211.3 75.6l.3-.1-.4-.3zm-1.6 3.7l.4.2.1-.4zm1-2.5l.4-.3-.4-.3zm-1-2.1l.6.5.3-.8z"/><path d="M209.7 75.6l-.1 1 1.1-.3zm.3 2.6l-.2.3h.4zm3.8-11.7l.3.2.1-.5zm-.1-2.3l-.4 1 1.1-.1zm.6 1.1l-.2.4h.5zm2.8.9h-.8l.2.7zm3.6-10.2l-.1.3h.4zm-.4.8l.3-.4h-.6zm-2.5 4.7h.9l-.5-1zm1.7-2.8h.7l-.4-.7zm-1.5 1.5l1-.7-1.2-.6zm-1.6 4.9l.6-.3-.5-.4zm2.4-7.1l.5-.4-.6-.3zm3.3-2.8l.9-.6-1.1-.7zm-1.8 1l1-.7-1.2-.6zm-4.9 5.7l1.1-.2-.8-1z"/><path d="M221.6 59l-.4.3.5.2zm-1.9-2.4l-.8.5 1 .4zm1.5-3.3l-.7.5.9.4zm-1.1 5.6l-.4.2.4.2zm-4.6 7.5l-.4-.1.2.5zm-.7-4.2h1.3l-.9-.9zm5.2-4.4h1l-.5-.9zm-6 5.8l1.4.2-.9-1.2zm5-1.7h.4l-.2-.6zm-5.5 9.2l.4.4v-.6zm2.9-11.9l.9.1-.6-.7zm1.2 1.3l-.4.2.4.3zm1.3-.8l-.3.2.4.2zm-.9 8.1l.4.3.1-.5zm-.2-1.4l-.1.4.5-.1zm-1.9-.4l-.3-.4-.3.4zm.6 2.9l-.1.5.6-.3zm-.4-3.7l-.5.3.7.4zm2.3.2l.3.2.1-.3zm-3.6 1.6l-.5.5.8.2zm-.1 1.7l.4.3.1-.5zm2-1.7l.4.3.1-.5zm-7.6 11.5l.4.3.1-.4zm6.3-11.6l-.1.4.5.1zm5 .9h-.4l.1.4zm-2.5-9.2l-.3.4.5.1zm-1.5 10.3l-.4-.2.1.5z"/></g><defs ><path id="E" d="M217 109.2h-.1a.55.55 0 0 1-.3-.5l4.7-14.4c.9-3 3.6-13.1 3.6-13.1a.55.55 0 0 1 .5-.3.55.55 0 0 1 .3.5l-3.6 13.1c-.8 2.7-4.7 14.3-4.7 14.3 0 .3-.2.4-.4.4z"/></defs></svg>