<svg xmlns="http://www.w3.org/2000/svg" viewBox="0 0 480 480" xmlns:v="https://vecta.io/nano"><path d="M212.2 77.6s-7.2 3.1-9 9.7c-1 3.7-1.6 8.7 3.4 13 3.8 3.3 9.8 3.4 13.5 2.1 9.2-3.3 6.1-21.1 6.1-21.1l-14-3.7z" fill="#fff"/><path d="M215.2 103.5c-3.1 0-6.5-.9-8.9-3-5.2-4.5-4.5-9.8-3.5-13.4 1.8-6.7 8.9-9.8 9.2-9.9l.1-.1 14.4 3.8v.2s.8 4.6.4 9.4c-.5 6.5-2.8 10.7-6.7 12.1-1.5.7-3.2.9-5 .9zm-3-25.5c-.9.4-7.1 3.5-8.7 9.4-1 3.7-1.5 8.5 3.3 12.6 3.6 3.1 9.3 3.4 13.1 2 8.2-3 6.2-18.3 5.9-20.4L212.2 78z" fill="#ddd"/><path d="M226.2 78.9l-7.5 24.5-2.2 5.7s3.2 4.1 10.8 5.7c5.2 1.1 8.7 1.2 11 1 1.9-.2 4.2-.6 3-4.1-1.7-5.2-1.1-8.5-1.1-8.5l2.7-14.7-16.7-9.6z" fill="#ea9d7d"/><linearGradient id="A" gradientUnits="userSpaceOnUse" x1="229.26" y1="95.853" x2="236.131" y2="87.004"><stop offset="0" stop-color="#bc5a32" stop-opacity="0"/><stop offset=".99" stop-color="#bc5a32"/></linearGradient><path d="M225 92.1c2.5 3.8 6.9 7 9.4 8.2 3.5 1.7 6 2.1 6 2.1l2.2-12.2-16.4-11.3-.9 1.7-.7 2.8c-.1.1-1.9 5.2.4 8.7z" fill="url(#A)"/><path d="M252.7 61.9c1.1 2.1 2.1 4.1 2.1 5.3-.1 3.8-.4 8.9-1.1 12.9-1.1 6-4.1 9-7.3 10s-8.6-1-12.5-3c-3.3-1.7-5.2-3.5-5.7-5.6-.5-2.2-1.5-5-1.5-5l1.8-4.8s4.3-4.3 9.2-7.7c5.8-4.1 10.6-6.4 10.6-6.4s2.4.7 4.4 4.3z" fill="#ea9d7d"/><path d="M217.1 109.3h0c-.3-.1-.4-.3-.4-.5l4.7-14.4c.9-3 3.6-13.1 3.6-13.1a.55.55 0 0 1 .5-.3.55.55 0 0 1 .3.5l-3.6 13.1c-.8 2.7-4.7 14.3-4.7 14.3 0 .3-.2.4-.4.4z" fill="#cf7653"/><path d="M243.5 90.7c-1.1 0-2-.2-4-.7-3.2-.8-7.7-3.3-10-5.5-2.2-2.2-2-4.3-2-4.4 0-.2 0-.5.2-.5s.3.2.4.4c.1.4.1 2.1 1.9 3.9 2.1 2.1 6.6 4.5 9.6 5.3 3.1.7 3.7.9 6 .7 2.2-.2 3.3-1 3.3-1 .4-.3.5-.3.3 0-.2.2-1.3 1.3-3.5 1.7-1 .1-1.5.1-2.2.1z" fill="#b76349"/><g fill="#a84d3b"><path d="M229 84.7l.2.5.4-.4z"/><path d="M229 84.1l-.3.9 1.1-.2zm5.3 3.8V89l1.1-.5zm-2.7-1.7l-.1 1.1 1.1-.4zm-1.5-1.1l-.2 1.1 1.2-.3z"/><path d="M228.3 83.1l-.4 1h1.2zm7.5 7.2l-.5-.6-.4.7zm-1.4-1.1l-.6-.8-.3.9zm4.1 2.1l-.7-.7-.2.8zm3 1.1l-.7-.8-.3.9zm-5.3-3.6l-.6-.3v.9zm1.4 3.1l-.5-.5-.3.7zm-3.9-4l-.6-.4-.1.9zM239 90l-1-.4.1 1.2zm1.9.3l-.8-.1.2.9zm1.3 1.6h-.8l.3.7zm-2.8-.2l-.3-.7-.5.7zm2.4 2.3l.1-.7-.8.2zm-.2 1.3l.1-.7-.8.2zm-1.7 0l-.4.3.5.3zm.3-3.9l-.4.4.6.3zm2.3-.7l-.6-.1.2.6zm-1.9 5.8l-.4.3.6.3zm-9.9-10.4l-.4.3.5.3zm-3.4-4.6l-.4.3.5.3zm10.1 9.4l-.3-.3-.1.5zm-2.8-.8l.1-.4h-.5zm1.4.9l.2-.4h-.5zm2.1 2l.2.5.5-.4zm2.9-2l-.3.3.4.2z"/><path d="M241.2 90.5l-.5.4.6.3zm-1.2.4l-.4.3.4.2zm.4 7.1l-.4.2.4.3zm-1.1-1.1l.2.4.3-.4zm-.1-2.4l.2.4.3-.4zm1.9.9l-.3-.2-.1.4zm-13.9-4.7l.2.2.2-.3zm1.9-1.2l-.2.2h.3zm2 3.5l-.3-.1.1.4zm-1-1.7l-.2.3h.4zm6.9 3.2l-.1.6.6-.3zm-.9-4.5v.5l.5-.2zm0-1v.5l.6-.3zm-7.7-3.1v.6l.5-.3zm12 7.3l-.5.1.4.4zm-1.5 4.2l-.2-.4-.4.4zm.3-5.2l.3.4.3-.5zm1.6.6l.3.5.3-.6zm1-1.9l-.3.4.5.1zm-.6 3.2l-.4-.3v.6zm-11.3-8.9l-.6.4.7.4zm-2 .8l-.3-.3-.1.5zm-2-1l-.2-.2-.1.4zm-.5 3.1l.1-.4h-.4zm3.8-2.2l.2.4.4-.4zm-1.2-1l.3.6.5-.5zm-.2-2.7l-.4.6.8.1zm3 4.8l-.3.2.4.3zm.8-.4l-.3.2.4.2zm.8.4l-.3.2.3.3zm-1.5 2.7l-.2-.2-.1.4zm-6-3.4l.2.3.3-.4zm2.3-2.3l-.3.2.4.2zm-.1 3.7l-.3-.2-.1.4zm.3-4.1l.2.3.3-.4zm1 .5l.2.4.3-.4zm-2.3-1l-.3.3.4.1zm.3-1l-.3-.2-.1.4zm5.3 5.5v.4l.5-.2zm1.9.8l-.4.1.3.3zm-.8-.8l-.4.1.3.3zm6.7 3l-.4.1.3.3zM238 90l-.3.1.2.3zm-4.7.7l-.1-.3-.3.3zm5.6 5l-.1-.3-.3.3zm-6.1-6l-.2-.3-.3.3zm2.6-.6v.5l.4-.2zm1.6.4v.4l.4-.2zm1.8.9l-.4.1.3.3zm-1.4 2l-.2-.3-.2.3zm-4.3-.1v.4l.4-.2zm1.9-1l-.3.1.2.3zm3.4.8l-.1-.3-.3.3z"/></g><path d="M215.4 74.5s-3.9-15.5 11-23.6c13.9-7.5 24.1 1.6 26.4 4.9 2.5 3.5 2.4 6.6 2.3 8.8-.1 2-.3 2.7-.3 2.7s-.4-3.6-3.4-7.2c-1.8-2.1-3.2-2.5-3.2-2.5s-6.6 3.3-12.5 7.9c-2.8 2.2-12.9 11.3-12.9 11.3l-7.4-2.3z" fill="#fff"/><path d="M215 74.6c0-.2-3.8-15.9 11.2-24 13.8-7.5 24.3 1.3 26.9 5 2.3 3.3 2.5 7.5 1.9 10.5-.4 2-.3 1.2-.2-.7.1-1.7.1-5.8-2.4-9.4-2.5-3.5-12.6-12-25.9-4.8-14.5 7.8-10.9 23-10.8 23.2l-.7.2z" fill="#ddd"/><linearGradient id="B" gradientUnits="userSpaceOnUse" x1="211.243" y1="74.353" x2="226.277" y2="80.655"><stop offset="0" stop-color="#997ebd"/><stop offset="1" stop-color="#6a4bb4"/></linearGradient><path d="M212.3 74.6c1.6-1.7 2.4-2.1 2.4-2.1l11.7 3.9-1.9 7-14.4-5.3c.1.1-.4-.8 2.2-3.5z" fill="url(#B)"/><g fill="#ddd"><path d="M238.5 63.4l-1.1-.3.1 1.1zm-11.1 6.8l.4.3.1-.6zm2.6-2.6l.4-.4-.5-.2zm-3 2l.2.5.7-.8zm7.6-4.7l-.3-.6-.5.5zm5.4-2.5l.8-.6-1-.3z"/><path d="M239.2 63l.8-.6-1-.6zm-7.5 5.9l.5-.4-.7-.4zM233 65l.5.3.1-.6zm-1.2 1.6l.5.3.1-.6zm-1.9 2l-.6.1.3.6zm.8.2l-.2-.6-.5.6zm-1.3.6l-.5.2.4.5zm7.9-10.6l-.2-.3-.2.3z"/><path d="M230.6 59.9l.1-.3h-.3zm-1 5.3l.2-.3h-.5zm-3.5.1h.3l-.1-.4zm1.3-1.3l.3.1-.1-.4zm1.8 4.7l-.7-.2.1.8zm3.9-1.1l-1-.4v1.3zm4.7-5.3l-.6-.3-.1.8zm-8.6 8.3l-.3-.7-.6.4zm.9-.4l-.8-.3.2.9zm-.7.6l-.6-.3.1.8z"/><path d="M230.7 67.8l-.3-.4-.4.4zm-2.1 3.4l.3-.5h-.8zm9.5-10.5l.5-.2-.4-.3zm.3 1.2l.5-.2-.4-.3zm.1-1.6l.3.4.3-.5zm-1.2 2.6l-.6-.2.2.6zm.4-1.1v-.4l-.5.2zm.8 1.6l.6-.4-.8-.6zm-3.3-2.6l.4-.2-.3-.3zm2.8.6l.4-.1-.3-.4zm1.9-.8l-.6-.1.2.6zm1 .2l-1-.1.4 1zm-1.1.6l-.6-.1.2.7zm-8 4.7l.4-.6h-.8zm1.5.8l.3-.5-.7-.1zm-.1.7l.4-.4-.5-.3zm.1-2.4l.3-.5-.6-.1zm-.8.9l-.5-.2.1.5zm5-2l-1.2-.6V65zm-2-2.1l-.2-.2-.2.4zm-4.9 7.8l-.4-.1v.5zm1.1-.9l-.4-.1v.4zm4.2-5.6l-.4-.3-.1.6zm-.2 1.2l-.8-.2.3 1zM233 66l.1-.5h-.6zm.7.5l.2-.5h-.6zm.2-1.1l.1.5.3-.2z"/><path d="M233.8 65.8l.4.6.4-.6zm-1.4 1l.5.1-.2-.6zm.3-1.9l.2-.5h-.6zm1.8-.3h.4l-.1-.5zm2.3-2.1l-.5-.3-.2.6zm2-.1l-.6-.4-.2.7zm-3 2.7l-.6-.3v.7zm-.2-.6l.1-.6-.7.2zm1-1l.1-.4-.5.1zm-.6 1.7l.3-.9-.8.3zm1.2-1.4l.2-.4-.5.1zm-4.5-.5l.4-.1-.3-.4zm-4.3 6.6l.4-.2-.7-.5zm.2.1l-.5.2.4.5zm2.7-2.8l-.8-.1.2.8zm0 .9l-.6-.1.2.7z"/><path d="M230.7 67.3l.6-.2-.5-.5zm-1.4.8l.4-.1-.2-.3zm7.9-5.1l.8.1-.5-.9zm-2.9 3.6l-.7-.2.1.7zm-2.5-3.2l-.5-.1.1.6zm3.8 2.1l-1.1-.4.1 1.3zm-3.6 1.4l-.6-.2.1.7z"/><path d="M231.9 66.4l-.6-.1.1.6zm-1.3 3.4l.6-.5-.6-.4zm.9-1.9l.4-.1-.3-.4zm-1.6 1.6l.6-.2-.4-.4zm-1.4-3l-.6-.1.1.5zm-.4 1.8l-.6-.1.1.5zm-1.1 1.1l.1-.3-.4.1zm-2.3-.7h.3l-.2-.3zm2.9-2.2h-.6l.3.5zm3.8-1.3l.1-.4-.5.1zm2.5-1.7l.4.4.3-.6zm-.1 2.3l-.3-.5-.4.5z"/><path d="M233.9 63.4l.3-.6h-.9zm.7-.4l-.4-.1.1.5zm.9-.9l.1-.4-.5-.1zm-2.9.6h-.5v.6zm-3 4.8l-.5-.1.1.7zm.8-1.4l-.5-.1.1.7zm7-4.3l-.5-.2-.1.6zm-3.5.5l.1-.5-.6.3zm-.5 2l.5-.1-.3-.5zm12-5.3l-1-.4-.1 1zm-4.1 1.3l-.1-.7-.6.5zm5.7-2.1l.9-.5-1.1-.4z"/><path d="M247.8 57.8l.9-.5-1-.4z"/><path d="M248.6 57.4l.9-.5-1.1-.4zm-2.5 1.3l.9-.5-.9-.7zm-1.4-.8l-.4-.2-.1.5zm2.1-1.3l.3-.1-.2-.2z"/><path d="M245.5 57.6l.5-.1-.3-.4zm-1.3.9l-.5-.2.1.6zm.5-1v-.3l-.4.1zm.7 1.5l.7-.4-.7-.6zm-.2-2h.3l-.2-.3zm3.1-.7l-.3.2.3.3zm-.4.6l-.6-.2.1.7zm-.9.3l-.7-.1.2.7zm2.7-.9l-.6-.2.1.7zm-5.4 3.4l-1.1-.8-.3 1.6zm-1.7-2.2l-.3-.3-.2.5zm.2 1.4l-.4-.4-.1.6zm-.3 1.1l-.8-.3.3 1zm-1.9.7v.5l.4-.2z"/><path d="M240.5 61.1l.4.7.4-.6zm.8-1.2l.4.2v-.6zm2.3-1.8l-.3-.3-.2.5zm2.2 0l-.6-.4-.2.7zm-3.3 2.5l-.5-.3-.1.6zm-.1-.6l.1-.6-.7.1z"/><path d="M243.4 59.1l.2-.4h-.5zm-.7 1.6l.4-.8-.9.1zm1.4-1.3l.2-.4-.5.1zm.1-.8l.8.1-.4-.8zm-2 2.3l-1-.5-.1 1.3zm-1.4-2l.4.4.3-.6z"/><path d="M240.5 61.1l-.2-.5-.5.5zm1-2.7l-.3-.1v.5zm.3-.3l.2-.4-.5-.1zm2.3-.6l-.3-.2-.2.5zm-3.9 2.1l.5-.1-.2-.5zm-10.7 10.2l.4-.1-.4-.4zm-3.6-1l.3-.1-.3-.3zm.3-1.8l.3-.1-.4-.3zm-.3 2.5l.6-.4.2.7zm-6.7 1.9l.3.5.4-.5zm1.7-1.5l.2.5.6-.4zm3.8-1.9l-.6-.1v.7zm-1.4.5l-.5-.1.2.6zm1.1.8l-.4-.6-.4.6z"/><path d="M225.8 68.3l.1-.7-.7.1zm-2.3 1.1l-.7-.6-.2.9z"/><path d="M222.6 69.7l-.5-.6-.2.8zm4.1-1.2l.5-.4-.5-.3zm-4.5 0l.4-.1-.2-.5zm.2.2l-.6-.1.2.6zm2.1.6l.5.1-.1-.5zm-3.6-.2l.2-.2-.5-.3zm-1.2.3l.3.1-.1-.4zm6.1.1l-.1-.5-.6.4zm-2.6-.7l.5.1-.2-.5zm-2-1h.3l-.2-.4zm-1.4 3.2l.1-.6.5.4zM249 52.5l-.4.3.2.7 1.1-.3zm-7.1-1.7l.3-.3-.4-.2zm9 3.8l-.8.4.7.6zm-2.2-2.4l-.8-.5-.1 1.1zm-1-.7l-.9-.5v1.1z"/><path d="M241.7 49l.3 1.2 1.1-.8-.7-.2zm-11.2.5l.6.5.3-.8zm-1 .4l.6.5.3-.8zm14.3-.2v1l.9-.7zm10.2 9.1l-.5-.8-.5.9zm-1.9-.7l.5-.5-.7-.2zm-4.4-5.4l-.2.4.6-.1zm-2.5-.3h-.5l.3.4zm-5-1.6h-.5l.3.5zm.6-1.6l-.7 1.1 1.2.4zm-4.7 0l-.2.7.7-.2zm-9.3 2.5v.8l.8-.1zm1.2.5l-.1.8.9-.3zm-1.6 1l1.3.6.1-1.5zm3.3-.8l-1 .5.9.8zm-4.5.5l1.1.3-.2-1.3z"/><path d="M242.8 51.9l-.4.4.6.2zm-4.5-1.6l-.2.4.5.1zm1.3.5l.1-.6-.7.2zm5.7 3.7l.2.4.3-.2zm.1-1l-.4.2.3.1zm9 8.1l-.2-.2-.1.3zm-.9-1.1l-.2-.2-.1.3zm1.1 2.5l-.2-.2-.1.3zm-9.3-7.2l-.3.2.4.2zm7.8 1l-.7.7 1.2.4zm-8.7-5.9l-.4.6h.7zm9.8 8.6l-.7.1.4.8zm-.8-.7v.6l.6-.3zm.6 1.6v.6l.5-.3zm-11.4-9.8l-.3.4.5.1zm4.9 1.7l-.1-.3-.3.3z"/><path d="M243.1 50.3l-.7-.4v.9zm-4.4-.6l-.7-.2.1.9zm3.1 1l-.7-.3v.9zm-2.5-.6l-.7-.2.1.9zm-1.7-1l.2-.7-.9.2zm-2.9-.3l-.7-.3.1 1zm1.4.1l-.7-.2.1.8zm-6.7 2.3l-.9-.3V52z"/><path d="M227.7 52.1l.5-.8-1.1-.1zm4.8-2.8l-.8-.3.1.9zm-3.4 1.7l.9.6.1-1.3z"/><path d="M228.9 52l.9.5.1-1.3zm1.3-1.4l.7.8.5-1.1zm13.4-.1l.2-.8-1.1.1zm-5.1-2l.5.9.7-.8zm-2.5-.1l.6.9.6-.9zm-1.5.1l.5.9.7-.9zm-8.9 3.2l.9.5.2-1.1zm17.7-.9l-.1.5.6-.1z"/><path d="M247.4 53.6l-.1.5.5-.3zm-.9-2.7l-.6-.3v.8zm-17.1-1l-.9.4.7.7zm-2 1.2l-.7.1.4.7zm-1.7.6l-.6.4.6.4zm21.3 2.9l-.1-.4-.3.4zm-2.6-1.5v.5l.5-.3zm-2.3.5l-.2.3.4.1zm2.4-1.1l-.4-.2v.5zm-1.3-.7l.3.3.2-.4zm-6.3-2.4l.3.3.2-.5zm5.5 3.3l-.2.4h.5zm-1.1-3.9l-.5.7.9.3zm.2 4.5l-.4-.1v.4zm0-1l.4-.1-.3-.3zm-4-.1l.5-.2-.4-.5zm3-2.8l.5-.6-1-.3zm-1.8 2.4l.2.3.3-.4zm1.2-2.2l.1-.7-.8.1zm-6.1.6l.2-.8-.9.3zm-5.5.9l-.1-.7-.8.4zm14.8 2.3l.1.4.3-.2zm1 1l-.3.2.3.3zm-10.7-.3l-.4.2.4.3zm6.5 1.2l-.4.1.4.4zm8.7-1.9l-.3.5.4.2.2-.2zm2.7 1l-.8-.7-.4.5.1.6zm-7-3v-.8l-.8.4zm4.4 4.1l.1-.4-.5.2zm3.8.3l-.7.9.5.4.7-.5zm-.9-1.1l-.5.2.3.7.9-.1zm-1.9-.3l-.7.5 1-.2zm-8.3-1.7l-.4-.1.2.4zm11.5 5.7l-.1-.4-.3.2zm-1.3-2.8l-.1.7.7-.2zM240.5 51l-.3.4.6.1zm2.2.2l-.8-.2.1.8zm4.5 3.1l-.1-.5-.3.2zm5.8 5.4l.1-.5-.4.2zm-6-7.1l-.4-.4-.2.5z"/><path d="M252.1 57.1l-.5-.5-.2.6zm-4.5-1.7l.4-.3-.6-.1zm.2-1.6l-.2.2.3.3zm2.6.2l-.5-.7-.4.3.2.5zm.2 1.7l.6.7.4-.5zm-5.7-4.5l-.1.8.6-.2zm1 1.9l.2.5.5-.4z"/><path d="M245.5 52.8l.4.3.1-.6zm5 2.9h-.4l.3.4zm-4-3.8l-.4-.9-.5.8zm4.7 5.2l-.1-.4-.3.4zm-6.6-5.2h-.3l.1.5zm10.1 10.6l-.2-.4-.3.4zm-6.4-7.7l.1-.5-.5.3zm-9-1.6l-.1-.5-.5.3zm-6.1-4.5l-.9.5.8.6zm6.9 1.4v-1l-.9.4zm-4.8 1.7l-.4.6.8.2zm-1.7 1.6l.3.2.1-.5zm-1.6.7l-.1.3h.3zm2.6 1.6h-.3l.2.3zm-2.9-3.4v.6l.6-.3zm7.6 1.9l-.3.2.2.2z"/><path d="M233.7 48.8l-.8 1 1.3.5.1-.8zm0 1.5l-.6.8.9.2.1-.7z"/><path d="M233.6 49.6l-1.7.6 1.2.9z"/><path d="M232.1 49.7h-.6l-.5.5 1 .7zm6-.3l-1.2.2.7 1.3z"/><path d="M235.8 50.1l-.2.9 1.1-.1zm2 .9l-.9-.5-.1 1.1zm-5.6.7l-1.1-.1.4 1.2zm13.3-.2l.2-1-1.1.3zm-11.1 1.9l.4-.5-.7-.3zm-9.9 2.6l.6-.6-.9-.4zm-.8 1.7l.6-.4-.6-.5zm7.4-4.2l.7.2-.2-.9z"/><path d="M234.9 51.9l-.6-.8-.6 1zm-1.9-1.2l-1.3.2.7 1.2zm3-1.2l-1.3.2.8 1.2z"/><path d="M235.1 50l-1.3.3.8 1.2zm-1.9 2.1l-.6.6.9.2zm-1.8 4l-.3-.2v.5zm-15.3 14.8l-.7-.4v.9z"/><path d="M232.3 52.8l.4.3.2-.5zm2.2-3.4l.2.5.3-.4zm2.7.8l-.6-.6-.3.9zm-11.3 4.7l-.8-.1.4.9zm5-2.3l-.8-.2.3.9zm5.8-1.1l-.3-.3-.1.5zm2.3.6l.2.4.4-.4zm-3.7 1l-.3.3.3.2zm2.4-.7l.2.5.3-.4zm-4.1-.5l-.1-.5-.5.4zm4.6-3.5l-.7.5v.4l1.2.2zm-3.3 2.7l-.1.3.3-.1zm9.9-.9v.4l.3-.1zm-18.7 5.6v.4l.3-.1zm10.8-5.2l-.4-.1v.5zm3.8 1.7v-.6l-.5.3z"/><path d="M240.2 53.6v-.5l-.5.2zm-2.2-2.5l.4.5.3-.5zm-7.9.7l.7.5.1-1.1zm5.4-.5l.2.4.3-.5zm4.6 1.3l-.3-.3-.1.5zm-11.8 4.2l-.4-.2v.4zm8.9-3l-.3.3.4.1zm-.7-.1l-.3-.3-.2.4zm-6.2.9l-.4.3.5.2zm-5.6 6.6l-.3-.3-.3.4zm-.6-2.5l-.4-.6-.3.6zm1.5-4.3l.4.9.8-.8zm1.8-.5l.1.6.6-.5zm.3 1.4l.2.5.5-.5zm-11.3 7.9l-.4 1.5 1.4-.1zm-.6 2.1l-.2 1.2 1.1-.6zm2.6.5l.1.6.6-.3zm-1.4-.1l.1.5.6-.2zm3-8.1l-.2.9 1-.3zm.9 2.1l-.3-.3-.2.4zm-.2.9l-.6-.7-.4.8zm-1.2-.3l-.5-.7-.5.8zm.5-1.2l-.4-.6-.5.8zm1-1.2l1 .2-.3-1.1z"/><path d="M222.9 59.9l.1.5.4-.3zm-3.2 4.2v.4h.4zm-3.1.6v1l.9-.5zm1.1 2.6l-.1.4.5-.1zm.9-8.9l1.3.2-.4-1.5zm5.6-3.6h1l-.4-1zm3.2-.5l-.7.3.8.7zm-8.6 10l.3.1-.1-.5z"/><path d="M218.8 63.8v.4l.3-.3zm.4 1.8l-.2.1.3.2zm-.5-.9l-.1.1.2.2zm-1.7 4.5l-.2.2.2.2zm0-3.5l.3.4.2-.4zm1.1-.7l.2.4.4-.4zm3.8-1.2l-.2.2.3.1zm5.4-8.1l-.5-.2.1.6zm-4.4 1.8l.5.3v-.7zm-2.6.6l.3.9.9-.7zm-1.7.3l-.5.9h1.2zm-.2 3.8l.4.4.2-.6zm-1.1-.6l.6.6.3-.9zm5.9-6.2v.5l.5-.2zm-.6 0v.5l.5-.1zm6.5-2.1l-1 .2.6.9z"/><path d="M223.3 56.7h-.9l.5.8zm13.7-5l-.8.1.6.8z"/><path d="M223.1 55.2l.2-1-1 .2zm.6 1l-.9-.5.1 1.2zm-1-.7l-.6-.8-.4.9zm-1.2.6l-.3-.9-.7.7z"/><path d="M222.3 55.2l-.2-.9-.7.7zm2.7-.6l.6-.1-.3-.5zm-.8.1h-.9l.5.8zm-1.3-.9l.2.6.5-.6zm3.4-.9l-.9.9 1.3.6zm-8.6 13.4v.4l.4-.1zm.7-4.2h-.4l.2.3zm-1.9 5.6l-.4.2.2.3zm.6-.5l-.2-.3-.2.4zm2.5-5.3l.4.1v-.5zm-2-1.7l-.5 1 1.2-.1zm.7 2.6v.7l.7-.2z"/><path d="M216.4 63.1l1.5-.1-.9-1.5zm-.9 3.8V68l.9-.5zm.8-.1l.8.2-.3-.9zm2 .4v.4l.4-.3zm-1.2 1l-.4.1.4.3zm5-9.1l-.3.4.6.1zm-3.2.1l-.4.4.7.3zm1.3-.6l-.3.3.5.2z"/><path d="M220.8 59.5l-.4.3.6.2zm1-.4l.3.3.1-.5zm-5.1 4.2l.5.7.4-.8zm1.5-1.5l.2.2.2-.4zm4.3-3.8l.3.2.1-.4zm-1.3.5l.3.1.1-.4zm-.5-.8l.4.4.2-.6zm-2.4 3l.2.3.1-.5zm2.9-1.8l-.3.4.5.1zm-1.4.8l-.2-.2v.5z"/><path d="M221.2 59.9l-.3.3.5.1zm-1.4 0l-.4-.2v.5zm-3.3 8.9l.3-.3-.6-.2zm-.9.6l.2-.2-.4-.2z"/><path d="M215.8 69.6l.3-.3-.4-.1zm-.2.5l.4-.2-.5-.4zm3.7-7l.4-.1-.4-.4zm-4 5.2l.6.5.3-.8zm2.7-9.1l-.4 1h1.2zm2.8 1.6h-.7l.3.7zm5.6-5l-.8.2.6.7zm-1.4-.1l.5.1-.3-.6zm-.8-3l1 .4-.1-1zm-.3 3l.2.8.8-.6zm-.8-2.1l1 .3-.1-1.1zm-3.7 3.5l1 .2-.3-1.1z"/><path d="M225.4 56.4h-.5l.4.5zm-1.5 2.9l-.3.1.1.3zm-4.5 1.9h-.4l.2.3zm4.7-7.8l.9.4-.1-1zm-2.7 8.7l.5.2v-.5zm4-3.2l.5.2v-.5zm-3.9-2.9l.5.5.2-.7zm.6.7l-.2.6.7-.1z"/><path d="M220.3 56.4l.5.6.5-.8zm0 1.1l.4.4.3-.6zm.6 1.5h-.3l.1.4zm1.7.2h-.4l.2.4zm-1 1.7l-.1.4.5-.1zm-1.9-.2l-.3-.4-.3.5zm.8 2.2l.1.6.5-.5zm-1.2-1.9l-.4.4.7.1z"/><path d="M219 61l.2.2.2-.4zm-.4.8l-.5.5.8.1zm-1.2 2.3l.5.3.1-.5zm3.2-2.4l.3.3.2-.6zm-3.5 3.2l.4.3.1-.5zm2.2-3.1l-.1.4.5-.1zm3.3-3.5h-.4l.2.4zm-2.2 4.7l-.3-.1.1.4z"/></g><path d="M238.8 68.6c-.1 0-.3 0-.4-.1a.78.78 0 0 1-.2-1c.1-.1 1.7-2.5 5.3-2.2.4 0 .7.4.7.8s-.4.7-.8.7c-2.7-.2-3.9 1.5-3.9 1.6-.3.1-.5.2-.7.2zm14.4-1.9c-.1 0-.3 0-.4-.1-.7-.5-1.5-.4-1.6-.4-.4.1-.8-.2-.9-.6s.2-.8.6-.9c.1 0 1.5-.4 2.8.7.3.2.3.7.1 1-.1.2-.4.3-.6.3z" fill="#fff"/><path d="M243.9 84.5h0c-3.8-.2-5.4-2.9-5.8-4.4-.1-.4.1-.8.5-.9s.8.1.9.5c0 .1.8 3.1 4.4 3.3.4 0 .7.4.7.7 0 .5-.3.8-.7.8z" fill="#cf7653"/><path d="M247 79h-.1c-.4 0-.6-.3-.6-.7s.3-.6.7-.6c.1 0 .7 0 .9-.7.2-.6-.4-1.5-.6-1.8s-.2-.7.1-.9.7-.2.9.1c.1.2 1.2 1.6.8 3-.3 1.3-1.4 1.6-2.1 1.6z" fill="#b4603f"/><g fill="#4f2b23"><circle cx="241.9" cy="72.2" r="1.4"/><path d="M241.6 71.9a.55.55 0 0 1-.5-.3c-.1-.3 0-.5.3-.7 1-.4 1.8-.4 2.1-.4a.47.47 0 1 1 0 1c-.3 0-.9 0-1.7.3-.1 0-.1.1-.2.1z"/><circle cx="252.3" cy="71.4" r="1.4"/><path d="M252 71.1a.55.55 0 0 1-.5-.3c-.1-.3 0-.5.3-.7 1-.4 1.8-.4 2.1-.4a.47.47 0 1 1 0 1c-.3 0-.9 0-1.7.3 0 0-.1.1-.2.1z"/></g><g fill="#f4b9a6"><path d="M244.7 76.6l.6-.4-.7-.4zm-7.6-1l-.2-.5-.5.5zm9.7.4h.9l-.5-1zm-1.6-3l.6.4.2-.8zm.4-1l.9-.4-.8-.7zm1.6 8.1l.8-.4-.7-.7zm2.3-.9l.4-.9-1-.1zm-5-3.4l-.7.1.4.7z"/><path d="M245.1 74.9l-.8.1.5.6zm-.5 3.7l.2.7.7-.4zm.2 1.4l.6.5.2-.8zm3.4 2.5l-.7.1.5.6zm-1.5-15.2l-.3.5.8-.1zm.3 4.3l-.6-.1.2.6zm.8-2.1l-.6-.2.2.8zm-4.2 2.8l-.2.7.8-.2zm.8-3l-.6.2.6.5zm-2.9.7h-.4l.2.5zm5.5 12.4l-.6.1.4.5zm-.7-.5l-.6.2.4.5zm-4.9-4.3l-.6.1.3.5zm1.4 1.3h-.6l.3.6zm-1.7-3.3l-.2.6.8-.2zm3.2-.5l-.1-.5-.6.5zm6 5.8l.3-.4-.6-.1zm-2.2-1.9l.3.1.1-.4zm4.1-3.8v.4l.4-.1zm-2 1.8l.4.1v-.5z"/><path d="M252.3 75.9l.2-.4h-.5zm-12.4-4.6l-.3.4.5.1zm5.9-2.3l.8-.1-.5-.6zm-.1 8.8l.9-.1-.6-.8zm-.6-5.7l-.6-.2.1.6zm-4.9 3.8v-.6l-.7.3zm4-5.6v.7l.8-.4zm-.9 1.3v.8l.9-.4zm.8-.5l-.1.7.8-.4zm5.9.2l.6.3v-.7zm-5 2.9l-.3-.5-.4.5zm2.3 7.5l-.5.1.4.5zm-2.4-4l-.2.4h.7zm.4 3l-.2-.5-.3.5zm.9.5l.4-.3-.6-.2zm.3-1l.5-.3-.6-.4zm-.2-.8l.5-.3-.6-.4zm0-2.6l.5-.3-.6-.4zm-1.2.1l.4.4.2-.5zm4.9 4.6l-.6.1.4.5zm-2.4-5.2l-.2.5.4.2zm.9 5.5l-.3-.4-.3.4zm-3.2 1.6l.1.5.6-.3zm-1.2-3.1l-.6.2.4.4zm-5-6.3l-.3-.4-.3.5zm5.2 7.7l.4.2.1-.5zm-1.5-1.1l.5.2v-.5zm-1.1 3.8l-.3.4h.6zm-.8-.6l-.5-.2.1.6zm-1-.2l-.5-.1.1.6zm5.7-7.8l1-.2-.8-.9zm-.6-2.4l.2.4.4-.5z"/><path d="M245 74.2l.5.9.7-.8zm2.7-1.1l-.8.7 1.1.3zm-6.7 1.1l.1-.5-.6.2zm6-.1l-.3.3.5.2zm-1.7-3.3l.6-.1-.4-.5zm3.8 1.7l.7-.1-.5-.6zm-4.2-.3l.6-.1-.4-.6zm4.6-2.6l.6-.1-.4-.5zm-2-1.5l-.5.2.6.4zm-5 1.3l.1-.4-.6.2zm0 7.9l-.1.7.8-.2zm-.9-.5l-.6.1.3.6zm1.1 2.9l-.2.6.7-.2zm1.1-2.6v.7l.7-.2zm-.8 1.3v.8l.9-.4zm-.6-2l.1-.5-.6.3zm8.2-3.5l.6-.1-.4-.5zm-2.1-2.2l.2.4.4-.4zm3.9 7.4l.5-.1-.4-.4zm-8.7-8.6V69l-.5.2zm3.6 1.4l-.1.6.7-.2zm-.7-1.2l-.1.6.7-.2zm1.5 4.5l.9.7.4-1.1zm1.2 1.7l1-.3-.6-1zm-3.4.2l.4.1-.1-.3zm0-2.5l-.2.4.6.1zm1.2-1.2h-.6l.4.6zm1.9.4l-.6.1.3.6z"/><path d="M247.2 73.1l1-.5-1-.7zm1.7-4.4l.4-.6-.8-.1zm-3 9.9l.4-.5-.8-.1zm.3-4.4l.9-.4-.8-.6zm1.3-4l.3.2.2-.5zm1.2 1l-.7.9 1.3.2zm1-1.2l-.3.4.6.2zm.3 3.9l.3.4.3-.5zm-1.3-4.5l-.3.4.6.1zm-8.2 4.4l-.7.2.5.5zm2.8-.8l-.4.5h.7zm-.5.9l-.1-.5-.5.3zm-.7.4v-.4l-.5.3z"/></g><ellipse cx="224.5" cy="75.4" rx="5.3" ry="5.7" fill="#ea9d7d"/><linearGradient id="C" gradientUnits="userSpaceOnUse" x1="224.587" y1="78.776" x2="224.923" y2="73.449"><stop offset="0" stop-color="#cc7a5e" stop-opacity="0"/><stop offset=".924" stop-color="#aa5f4b"/></linearGradient><ellipse cx="224.8" cy="75.4" rx="2.4" ry="2.5" fill="url(#C)"/><path d="M228 79.1c-.9 1-2.2 1.6-3.5 1.6-2.7 0-4.9-2.4-4.9-5.3s2.2-5.3 4.9-5.3c1.9 0 3.6 1.2 4.4 2.9 0 0 .2.1.5-.1s.2-.6.2-.6c-1-1.8-2.9-3.1-5-3.1-3.2 0-5.8 2.7-5.8 6.1 0 3.3 2.6 6.1 5.8 6.1 1.4 0 2.5-.5 3.5-1.3l-.1-1z" fill="#b76349"/><g fill="#964c38"><path d="M227 76v-.4l-.4.1zm-1.7-3l-.4.1.3.4z"/><path d="M225.2 73.1l-.5.6.9.2zm-.9-.1l-.6.2.5.5zm2.6 1.5l-.3.2.4.2zm-.9-.5l-.3.3.4.1z"/><path d="M226.6 74.7l-.2.3.4.2zm-2.2-.8l-.3.2.5.2z"/><path d="M223.9 73.6l-.4.5.7.2zm1.7 1.8l.2.2.1-.3zm1.1-1.2l-.1.2h.3zm.2.9l-.1.3h.3zm-3.6-1.6l-.4.4.6.1zm.8 1.5h-.2l.1.3zm.6.9l-.1-.3-.2.2zm.8-2.5l.2-.2-.3-.2zm-1.2 0l-.3.3.5.1zm-.5.3l-.3-.2v.4z"/><path d="M223.8 73.7v-.3h-.3zm2.4.4l.2.3.2-.3zm-.4-.9l-.1.7.7-.2z"/><path d="M225.5 73.7l.3.2.1-.4zm-2.4.9l-.2.3h.3zm1.8-1.6l-.3-.1.1.4zm-.6 1.8l.2.3.2-.4zm.8 1.3l-.1.2.3.1zm-2.1-2.2l-.2.3.4.1z"/><path d="M223.9 76.1l-.3-.1.1.3zm-1.1-1.6l.3-.1-.2-.3z"/><path d="M222.5 75.6h.2l-.1-.3zm.2-1l.2-.1-.1-.2zm.7-.3v.3l.3-.2zm-1 .9h.4l-.2-.4zm.6.1v.2l.3-.2zm2-1.3l-.3.2.3.2zm1.4 1.5l.1.4.3-.2zm-2-2.2l.1.4.3-.3zm1 1.1l-.2-.2-.1.3z"/></g><g fill="#ddd"><path d="M221 95.7l-1.1.4.7.8zm-8.8 4.8l.6.1-.1-.6zm6.6-1.1l-.5-.4-.2.7zm2.7-5.5l.3-1-1 .5z"/><path d="M221.3 94.9l.2-1-1.1.2zm-9 7.7h.6l-.2-.6zm5.2-2.3h.6l-.2-.5zm-.2 2h.6l-.3-.6zm-5.9-1.3l-.4-.5-.4.7zm.3.7l.3-.4-.7-.1zm4.1-6.9l-.4-.3-.2.6zm3-1l-.5-.4-.2.6z"/><path d="M217.1 93.1l-.4-.1.1.4zm-3.4 4.7v-.3h-.3zm1-2.3l-.4-.1.1.5zm-2.9 3.9v-.3l-.4.1zm3 2.8l.1-.3-.4.2zm-3.1-6.2l.2.3.2-.3zm.5 6.2l.4-.1-.3-.3zm-1.2-1.7l-.3-.7-.5.5zm3.4 2.3l-.5-1-.8.9z"/><path d="M215.7 102.9l-.4-1-.9.9zm1.2-.2l-.5-.9-.6 1zm1.8 0l-.5-1-.8 1zm1.1-7.4l-.6.1.4.7zm-7.3 5.9l.2-.5h-.7zm6.6-7.3l.2-.5h-.5z"/><path d="M220.1 94.6l.3-.5-.6.1zm-1.1-1.2l.5.1-.2-.5zm.8 2.6l-.5.2.5.4zm-.3-1l-.3-.4-.2.5zm1.5.6l.3-.7h-1zm-4.1.1l.2-.4h-.5zm2.5-1.2l.3-.4h-.5zm.7-1.8l-.4.3.5.3zm1-.4l-.8.5.9.5zm-.3 1l-.5.3.6.4zm-2.7-.6l.3-.4h-.6zm-1 9.2v-.7l-.7.4zm1.7-.1l-.1-.6-.6.3z"/><path d="M218.8 102.3l.2-.6-.6.1zm-.9-2v-.6l-.6.3zm-.3 1.2h-.5l.4.5zm3-4.6l-1.3.1.8 1.4zm-2.6-.4h-.4l.1.4zm-7.2 5.7l-.3-.8-.8.5zm1.5.3l-.2-.3-.4.2zm6.7-5.2h-.5l.3.5zm.6.9l-.8.5.9.5zm-1.6 3l-.1-.5-.5.3zm.8 0l-.1-.5-.5.3zm-.3-1l.3.4.2-.4z"/><path d="M218.6 100.5l.7.4v-.7zm-.7 1.7l.4-.3-.4-.3zm-.7-1.8l-.1-.5-.5.3zm1.4-1.3l.4-.2-.4-.4zm.6-3.1l-.6.1.3.6zm1.5-1.3l-.7.1.3.7zm-.7 4l-.6.2.3.5zm-.5-.3l-.3-.6-.4.6z"/><path d="M219.7 97l-.2-.4-.3.4zm.4 1.6l-.3-.8-.5.7zm.3-1.8l-.2-.4-.3.4zm-3.9 2.4l.2-.3-.5-.2zm-3.2 2.1l-.3-.7-.5.6zm1.8.4l-.4-.6-.4.7zm1 .5l-.4-.6-.4.6zm.9-1.8l-.5-.6-.3.7z"/><path d="M216.1 100.4l-.5-.5-.4.6zm-3.4 1.4l-.3-.5-.5.6zm.2-1l.5.3v-.7zm3.7 1.6l.5.2v-.6zm.1-1.7l.5.2v-.6zm-1 1l.6.2-.1-.6zm-4.3-1.4l.3.3.2-.5zm8.5-4.1l.6-.5-.9-.3z"/><path d="M219.2 101l-.5.2.4.4zm-3.5-1.4l-.5.1.4.5zm4.1-.2l-1.1.2.7 1zm-5.8 2l-.3-.5-.3.5z"/><path d="M214.3 101l-.4-.5-.3.5zm3.1-1.6l-.4-.5-.3.6zm-1.7 2.1l-.4-.5-.3.5zm-4.8.8l.7.1v-.8zm2-.5l.5.3v-.6zm-2.3-.3l.5.4.1-.5zm4.1-2.2l-.6.1.4.5zm-2.5-.7l-.3-.5-.3.4zm-.5-.6l-.4-.5-.3.5zm4.6 3.3l-.2-.4-.3.4zm1.2-2.7l.6.1-.1-.6zm1.1 1.9l-.5-.3-.1.7z"/><path d="M217.5 98.5l-.2-.6-.6.5zm.3-.7l-.4.1.4.4zm.1-1.2l-.1-.4-.4.2zM216 96l-.6.2.5.4zm0 2.6l-.5.2.4.5zm-3.9 1.6l-.3-.5-.4.4zm1.6-.3l-.3-.4-.5.4zm5.5-4.8l-.5.2.3.5zm-2.4 2.5l-.2-.4-.3.5zm.7 1.8l.4-.3-.5-.3zm5.7-11.5l-1.1.5.7.7zm-2.2 3.6l-.5-.4-.1.8zm2.6-5.3l.3-1-1 .5z"/><path d="M223.9 85.2l.3-1-1 .5z"/><path d="M224.2 84.4l.2-1.1-1 .5zm-.8 2.8l.2-1-1.1.2zm-6.2-.2l-.4-.2-.2.6zm3.2.3l-.5-.5-.2.7zm-1.1-2l-.4-.2v.5zm2-1.7l-.4-.2v.4zm.6 4.1l-.6.1.4.6zm-.8-1.6l.3-.5h-.5z"/><path d="M222.9 84l.3-.5-.5.1zm-.7 2.9l.2-.5-.5.1zm-.8-1.9l.5.1-.2-.5zm.8-1.2l.5.1-.1-.5zm-.3 4.6l-.5.3.5.4zm-.4-1.2l-.2-.3-.3.5zm1.6.7l.3-.7-1 .1zm-4.1.2l.2-.4h-.5zm2.5-1.4l.2-.4h-.5zm.8-1.8l-.4.3.5.3zm1-1.1l-.4.3.5.4z"/><path d="M223.3 84.4l-.8.5.9.6zm-.4 1.2l-.5.3.6.4zm-2.6-.7l.3-.4h-.6zm2.5 4.3l-1.3.1.9 1.4zm-2.7-.6h-.4l.1.4zm1 .8l-.5.1.3.5zm.6 1l-.8.4.9.6zm-.9 1.9l.3.4.2-.4z"/><path d="M221 92.7l.7.2-.1-.6zm-.3-1.4l.4-.3-.4-.3zm.6-2.9l-.7.1.4.6zm1.5-1.4l-.7.1.3.7zm-.7 3.9l-.6.1.3.6zm-.5-.3l-.3-.6-.4.6zm.2-1.4l-.2-.4-.3.3zm.5 1.7l-.2-.8-.5.7z"/><path d="M222.5 89.1l-.2-.4-.3.4zm-.5-.6l.6-.4-.9-.4zm.2 2.9l-1.2.3.8 1zm-2.6-.6h.6l-.1-.6z"/><path d="M220.9 92.7l-.5-.3v.7zm-1.8-1.3l-.1-.7-.7.6zm.8-1.5l-.4.2.4.4zm0-.4l-.1-.4-.5.3zm-2.8.5l-.6.2.4.4zm4.2-2.6l-.5.1.3.6zm-2.4 2.3l-.2-.3-.3.5zm.8 2l.4-.4-.6-.2zm-9.6 9.6l.3.3.2-.5zm5.2-3.5l.4-.3-.5-.2zm-7.5.5l.4.3.2-.6zm-.7 1.9l.5.3.1-.7zm0-1.7l-.1-.6-.6.4zm-.2.7l.5-.3-.6-.4zm3.1-2.4l.1-.3h-.3zm-2.2.2l.1-.2-.4-.1zm1.3 4l.2-.2h-.5zm5.1-2.6l.1.3.3-.4zm-7 1.4l.3.1-.1-.4zm-1.3-1.4l.2-.7-.7.1zm2.7 2.9l.2-1.1-1.2.4z"/><path d="M209.7 101.9v-1.1l-1.1.5zm-1.9-2.9l.3-.4-.5-.3zm-1.9.2l.1-.4h-.4zm1.1.9v-.4l-.4.1z"/><path d="M208.5 99.4l-.1-.7-.7.3zm1 1.3l-.1-.8-.6.5zm1.3-.9l-.3-.7-.6.5zm-3.1-.1v-.6l-.7.3z"/><path d="M208.3 98.9l.3.5.3-.6zm-1-1.1l.2.3.3-.3zm1.7 2.2v-.6l-.6.3z"/><path d="M209.1 99.7l-.1-.6-.5.3zm1.1 1l-.2-.6-.5.4zm-4.2-1.5l.5.6.4-.7zm1.9.6l.2.4.3-.4zm-1.7-1.2l.2.5.4-.3zm4.4.1h-.6l.3.5zm-1.3-1.4l-.1-.7-.5.3zm4.4 1.4l-.5-.4-.2.5zm-5.8-.8v-.5l-.6.2zm1.6.7l-.1-.5-.6.3zm-3.5-.4l.1.4.4-.3zm-1.5-2.8l.3.4.3-.4zm-.2 1.8l.4.5.3-.6zm3.3-2.6l.2-.2-.3-.1zm-1.1-.8l.3-.3-.5-.1zm-2 3.1l.3.2.1-.5z"/><path d="M203.3 94.6l.4-.3-.4-.3zm2.1 4.2l.5-1-1.3-.1zm-1.7-2.9l.2-.4-.4-.1zm.7 1.3l.1-.4-.4-.1zm2.2 1.2l.1-.7-.8.2zm-1.5-1.5l.1-.6-.7.1zm.7-.6l.2.5.5-.4zm-.4-.7l.2.4.3-.3zm.7 1.9l.2-.6-.6.1z"/><path d="M206.5 97.4l.1-.7-.6.2zm-2.8-1.5l.3.7.6-.5zm1.5 1.2v.5l.5-.3zm-1.1-1.7v.5l.4-.2zm2.8 1.4v-.6l-.5.2zm-2-3.1l.1-.5h-.6zm2.1 4.1l-.1-.5-.6.2zm-3.2-2.9l.1.4.4-.3zm6.9 2.1l.5-.2-.4-.3z"/></g></svg>