<svg xmlns="http://www.w3.org/2000/svg" viewBox="0 0 480 480" xmlns:v="https://vecta.io/nano"><path d="M226.2 78.8l-7.5 24.5-2.2 5.7s3.2 4.1 10.8 5.7c5.2 1.1 8.7 1.2 11 1 1.9-.2 4.2-.6 3-4.1-1.7-5.2-1.1-8.5-1.1-8.5l2.7-14.7-16.7-9.6z" fill="#ea9d7d"/><linearGradient id="A" gradientUnits="userSpaceOnUse" x1="229.292" y1="95.71" x2="236.164" y2="86.862"><stop offset="0" stop-color="#bc5a32" stop-opacity="0"/><stop offset=".99" stop-color="#bc5a32"/></linearGradient><path d="M225 92c2.5 3.8 6.9 7 9.4 8.2 3.5 1.7 6 2.1 6 2.1l2.2-12.2-16.4-11.3-.9 1.7-.7 2.8c-.1.1-1.9 5.2.4 8.7z" fill="url(#A)"/><path d="M254.9 61.6s.2 11-1.2 18.4c-1.1 6-4.1 9-7.3 10s-8.6-1-12.5-3c-3.3-1.7-5.2-3.5-5.7-5.6-.5-2.2-1.5-5-1.5-5l.2-6.5 7.7-16.4 18 3.1 2.3 5z" fill="#ea9d7d"/><linearGradient id="B" gradientUnits="userSpaceOnUse" x1="242.089" y1="63.245" x2="236.358" y2="55.302"><stop offset="0" stop-color="#bc5a32" stop-opacity="0"/><stop offset=".99" stop-color="#bc5a32"/></linearGradient><path d="M233.5 71.6s4.5-6.1 8-8.1c4.4-2.6 12-4.7 12-4.7l-17.8-3.3-2.2 16.1z" fill="url(#B)"/><path d="M217.1 109.2h-.1a.55.55 0 0 1-.3-.5l4.7-14.4c.9-3 3.6-13.1 3.6-13.1a.55.55 0 0 1 .5-.3.55.55 0 0 1 .3.5l-3.6 13.1c-.8 2.7-4.7 14.3-4.7 14.3 0 .3-.2.4-.4.4z" fill="#cf7653"/><path d="M243.5 90.6c-1.1 0-2-.2-4-.7-3.2-.8-7.7-3.3-10-5.5-2.2-2.2-2-4.3-2-4.4 0-.2 0-.5.2-.5s.3.2.4.4c.1.4.1 2.1 1.9 3.9 2.1 2.1 6.6 4.5 9.6 5.3 3.1.7 3.7.9 6 .7 2.2-.2 3.3-1 3.3-1 .4-.3.5-.3.3 0-.2.2-1.3 1.3-3.5 1.7-.9.1-1.5.1-2.2.1z" fill="#b76349"/><g fill="#a84d3b"><path d="M229 84.6l.2.5.4-.4z"/><path d="M229 84l-.3.9 1.1-.2zm5.3 3.8v1.1l1.1-.5zm-2.7-1.7l-.1 1.1 1.1-.4zm-1.5-1.1l-.2 1.1 1.2-.3z"/><path d="M228.3 83l-.4 1h1.2zm7.5 7.2l-.5-.6-.4.7zm-1.4-1.1l-.6-.8-.3.9zm4.1 2.1l-.7-.7-.2.8zm3 1.1l-.7-.8-.3.9zm-5.3-3.6l-.6-.3v.9zm1.4 3.1l-.5-.5-.3.7zm-3.9-4l-.6-.4-.1.9zm5.3 2.1l-1-.4.1 1.2zm1.9.3l-.8-.1.2.9zm1.3 1.6h-.8l.3.7zm-2.8-.2l-.3-.7-.5.7zm2.4 2.3l.1-.7-.8.2zm-.2 1.3l.1-.7-.8.2zm-1.7 0l-.4.3.5.3zm.3-3.9l-.4.4.6.3zm2.3-.7l-.6-.1.2.6zm-1.9 5.8l-.4.3.6.3zM230.7 86l-.4.3.5.3zm-3.4-4.6l-.4.3.5.3zm10.1 9.4l-.3-.3-.1.5zm-2.8-.8l.1-.4h-.5zm1.4.9l.2-.4h-.5zm2.1 2l.2.5.5-.4zm2.9-2l-.3.3.4.2z"/><path d="M241.2 90.4l-.5.4.6.3zm-1.2.4l-.4.3.4.2zm.4 7.1l-.4.2.4.3zm-1.1-1.1l.2.4.3-.4zm-.1-2.4l.2.4.3-.4zm1.9.9l-.3-.2-.1.4zm-13.9-4.7l.2.2.2-.3zm1.9-1.2l-.2.2h.3zm2 3.5l-.3-.1.1.4zm-1-1.7l-.2.3h.4zm6.9 3.2l-.1.6.6-.3zm-.9-4.5v.5l.5-.2zm0-1v.5l.6-.3zm-7.7-3.1v.6l.5-.3zm12 7.3l-.5.1.4.4zm-1.5 4.2l-.2-.4-.4.4zm.3-5.2l.3.4.3-.5zm1.6.6l.3.5.3-.6zm1-1.9l-.3.4.5.1zm-.6 3.2l-.4-.3v.6zm-11.3-8.9l-.6.4.7.4zm-2 .8l-.3-.3-.1.5zm-2-1l-.2-.2-.1.4zm-.5 3.1l.1-.4h-.4zm3.8-2.2l.2.4.4-.4zm-1.2-1l.3.6.5-.5zm-.2-2.7l-.4.6.8.1zm3 4.8l-.3.2.4.3zm.8-.4l-.3.2.4.2zm.8.4l-.3.2.3.3zm-1.5 2.7l-.2-.2-.1.4zm-6-3.4l.2.3.3-.4zm2.3-2.3l-.3.2.4.2zm-.1 3.7l-.3-.2-.1.4zm.3-4.1l.2.3.3-.4zm1 .5l.2.4.3-.4zm-2.3-1l-.3.3.4.1zm.3-1l-.3-.2-.1.4zm5.3 5.5v.4l.5-.2zm1.9.8l-.4.1.3.3zm-.8-.8l-.4.1.3.3zm6.7 3l-.4.1.3.3zm-1.5-.6l-.3.1.2.3zm-4.7.7l-.1-.3-.3.3zm5.6 5l-.1-.3-.3.3zm-6.1-6l-.2-.3-.3.3zm2.6-.6v.5l.4-.2zm1.6.4v.4l.4-.2zm1.8.9l-.4.1.3.3zm-1.4 2l-.2-.3-.2.3zm-4.3-.1v.4l.4-.2zm1.9-1l-.3.1.2.3zm3.4.8l-.1-.3-.3.3z"/></g><g fill="#f4b9a6"><path d="M244.8 76.5l.6-.4-.7-.4zm-7.6-1l-.2-.5-.5.5zm9.7.4h.9l-.5-1zm-1.6-3.1l.6.5.2-.8zm.4-.9l.9-.5-.8-.6zm1.6 8.1l.8-.4-.7-.7zm2.3-.9l.4-1h-1zm-5-3.4l-.7.1.3.7z"/><path d="M245.2 74.8l-.8.1.5.6zm-.5 3.7l.2.7.6-.5zm.2 1.4l.6.4.2-.7zm3.4 2.5l-.7.1.4.6zm-1.5-15.3l-.3.5h.8zm.3 4.4l-.6-.2.2.7zm.8-2.1l-.6-.2.2.7zm-4.3 2.8l-.1.6.8-.1zm.9-3.1l-.7.3.7.5zm-2.9.7l-.5.1.3.4zm5.5 12.4l-.7.2.4.5zm-.7-.4l-.6.1.4.6zm-4.9-4.3h-.6l.3.6zm1.4 1.3h-.6l.3.6zm-1.7-3.4l-.2.6.7-.2zm3.2-.4l-.2-.5-.5.5zm6 5.8l.3-.4-.6-.1zm-2.2-1.9l.3.1v-.4zm4.1-3.9v.5l.3-.2zm-2 1.9l.4.1v-.5z"/><path d="M252.4 75.8l.1-.4h-.4zM240 71.2l-.3.4.5.1zm5.9-2.3l.8-.1-.5-.7zm-.1 8.8l.9-.1-.7-.8zm-.6-5.8l-.6-.1.1.6zm-4.9 3.9v-.6l-.7.3zm4-5.6v.7l.8-.4zm-.9 1.3v.7l.8-.3zm.7-.5v.7l.8-.4zm5.9.2l.6.3.1-.7zm-4.9 2.8l-.3-.4-.4.5zm2.3 7.6l-.5.1.3.5zm-2.4-4l-.2.4.6-.1zm.4 3l-.3-.5-.3.5zm.9.5l.4-.3-.6-.2zm.3-1l.4-.3-.6-.4zm-.3-.8l.6-.3-.6-.4zm.1-2.6l.5-.3-.6-.4zm-1.2.1l.4.4.2-.5zm4.9 4.6l-.6.1.4.5zm-2.4-5.2l-.2.4.6.1zm.9 5.5l-.3-.4-.3.4zm-3.2 1.5v.6l.7-.3zm-1.2-3l-.6.2.4.4zm-5-6.3l-.3-.4-.3.5zm5.2 7.7l.3.2.2-.6zm-1.5-1.2l.4.3.1-.6zm-1.1 3.9l-.3.4h.6zm-.8-.7l-.6-.1.2.5zm-1-.2h-.5l.1.5zm5.6-7.7l1.1-.2-.8-.9zm-.5-2.5l.2.5.4-.5z"/><path d="M245.1 74.1l.4.9.8-.9zm2.7-1.1l-.8.7 1 .3zm-6.7 1v-.4l-.5.2zm6 0l-.4.3.5.2zm-1.7-3.3l.6-.1-.4-.5zm3.8 1.7l.6-.1-.4-.6zm-4.2-.3l.6-.1-.5-.6zm4.6-2.6l.6-.1-.4-.5zm-2-1.5l-.5.2.6.3zm-5 1.3v-.4l-.5.2zm0 7.9l-.2.7.9-.2zm-.9-.5l-.7.1.3.6zm1 2.9l-.1.6.7-.2zm1.1-2.6l.1.7.7-.3zm-.7 1.3v.8l.9-.4zm-.6-2v-.6l-.5.3zm8.2-3.5l.6-.1-.4-.5zm-2.1-2.2l.2.4.4-.4zm3.9 7.4l.5-.2-.4-.3zm-8.8-8.7l.1-.4-.6.2zm3.7 1.5l-.1.6.7-.2zm-.7-1.2l-.1.6.7-.2zm1.5 4.5l.8.6.4-1zm1.1 1.6l1.1-.2-.6-1zm-3.4.3l.5.1-.1-.3zm.1-2.5l-.2.4.6.1zm1.2-1.2h-.6l.4.6zm1.9.4l-.6.1.3.6z"/><path d="M247.2 73l1-.5-.9-.7zm1.8-4.4l.4-.6-.8-.1zm-3 9.9l.4-.6h-.9zm.3-4.4l.9-.4-.9-.6zm1.3-4.1l.3.3.2-.5zm1.2 1.1l-.7.8 1.3.2zm1-1.2l-.3.4.6.1zm.2 3.9l.4.4.3-.5zm-1.2-4.5l-.3.4h.6zm-8.3 4.4l-.6.2.5.5zm2.9-.8l-.4.5h.7zm-.6.8v-.4l-.5.3zm-.6.5l-.1-.4-.4.3z"/></g><g fill="#a84d3b"><path d="M244.9 58.3v.5l.4-.2zm1.6 0h-.5l.2.4zm-.7.1l-.4-.1v.5zm-10.5 2.9l-.2 1 1.1-.3zm7.3-2.9l-.1.5.6-.3zm-1.8.5l.3.5.3-.5zm-.9.9l.1.2.2-.2zm-4.9 4.5v.6l.6-.2z"/><path d="M237.1 59.5l-.1-.6-.4.3zm6.6-1.2l.3.5.2-.5zm-1.7.4l.3.4.3-.5zm4.7-.4l.2.4.3-.4zm-2.9.8l.2.3.3-.3zm-2.5.4l.1.4.4-.4zm-1.4-.4l.3.3.3-.4zm-.4-.3l.3.3.3-.4zm3.6-.2l.3.2v-.3zm1.2 0l.2.1.1-.4zm3-.2l.2.1.1-.2zm1.9.4l.2-.5h-.4zm1.4-.5h-.4l.2.5zm-.6.1l-.4-.1v.5zm-2.1-.1l.2.5.3-.5zm3 0l.2.4.3-.4zm-2.4.3l.2.1.1-.4zm3-.2l.1.1.2-.2zM235.6 65l-.2.1.2.2zm.8-5.3l.2.4.4-.5zm-.5.8l.2.4.4-.5zm-.1-.6l-.2.4h.7zm0 4.2h-.4l.2.4zm.2-.4l-.1-.3-.3.3zm3.5-3.5l-.2-.2-.1.2zm-.9.3l-.1-.2-.2.2zm-.9-.3l-.1-.2-.1.2zm-.2 2.4l-.1-.3-.1.3zm-.6-.9l-.2-.2-.1.2zm4.9-2.3l.4-.1-.3-.4zm0-.6l.6-.4-.6-.1zm-2.8.5l.2.3.3-.3z"/><path d="M238.8 58.7l.3.3.2-.3zm1.8.8l.3-.1-.4-.3zm-5 5.9v.4l.4-.2zm.6-1v.2l.2-.1zm2.6-5.5l-.4.2.4.2zm-3.8 6.2v.3l.4-.2zm.1.8l.3-.2-.4-.2zm-.1.9l.3-.2-.4-.1zm-.1-.6l.4-.1-.4-.3zm0 1.9l.3-.2-.3-.4zm.1-.7l.4-.2-.4-.3zm1.5-8.1l-.6.5.7.5zm1.3-.7l-.7.3.6.4zm-1.5 3.8l.3.3.2-.5zm4.5-4.1l.4.8.5-.7zm-5 4.3l.3.2.2-.5z"/><path d="M242.8 59.2l.4.1-.2-.5zm-7.8 5l.7-.2-.6-.6zm.5-3.7l-.2.6.7-.1zm1.1 2.4l-.4.1.3.3zm-.3-1.1l-.4.2.4.3zm1-1.2l.1.4.3-.3zm.6-1.6l.2.4.3-.3zm-.7.3l.1.4.3-.3zm-1.4 3.5l-.7-.4v.8zm0-1.7l-.4.2.4.2zm1.4-.3l-.4.1.4.3zm-.1-.7l-.3.1.3.3zm-.7.9l-.4.2.4.3zm-.9 1.2v.3l.4-.1zm5.1-3.8h-.6l.4.5zm-.8 0h-.6l.4.6zm-1.1.1l-.7.1.5.5z"/></g><path d="M238.4 68.4a.78.78 0 0 1-.2-1c.1-.1 1.7-2.5 5.3-2.2.4 0 .7.4.7.8s-.4.7-.8.7c-2.7-.2-3.8 1.5-3.9 1.6-.4.3-1 .2-1.1.1zm14.9-1.8c-.1 0-.3 0-.4-.1-.7-.5-1.5-.4-1.6-.4-.4.1-.8-.2-.9-.6s.2-.8.6-.9c.1 0 1.5-.4 2.8.7.3.2.3.7.1 1-.1.2-.4.3-.6.3z" fill="#7a3e2b"/><path d="M243.9 84.4h0c-3.8-.2-5.4-2.9-5.8-4.4-.1-.4.1-.8.5-.9s.8.1.9.5c0 .1.8 3.1 4.4 3.3.4 0 .7.4.7.7 0 .5-.3.8-.7.8z" fill="#cf7653"/><path d="M247.1 78.9h-.2c-.4 0-.6-.4-.6-.7 0-.4.4-.6.7-.6.2 0 .7 0 .9-.6s-.3-1.5-.5-1.8-.2-.7.1-.9.7-.2.9.1c.1.2 1.2 1.6.8 3-.4 1.2-1.4 1.5-2.1 1.5z" fill="#b4603f"/><g fill="#4f2b23"><circle cx="241.9" cy="72.1" r="1.4"/><path d="M241.7 71.7c-.2 0-.9 0-1-.2-.1-.3.5-.7.8-.8 1-.5 1.8-.4 2.1-.4a.47.47 0 1 1 0 1c-.3 0-.9 0-1.7.3-.1.1-.2.1-.2.1z"/><circle cx="252.3" cy="71.3" r="1.4"/><path d="M252.1 70.9c-.2 0-.9.1-1-.1-.1-.3.5-.8.8-.9 1-.5 1.8-.4 2.1-.4a.47.47 0 1 1 0 1c-.3 0-.9 0-1.7.3-.1.1-.2.1-.2.1z"/></g><path d="M224.6 83.3s-7.2-1.5-9-11 1.6-14.6 11.1-20.6c9.5-5.9 14.5-4.7 19-3.1 4.8 1.7 8.1 5 9.1 9.1.7 2.7 0 3.8 0 3.8s-.9-1.8-1.9-2.8c-.6-.6-3.6-.4-8.2-.4-3.5 0-7-.3-8.5 1.1-1.2 1.2-1 2.8-1.2 5.9s0 6.4-2.3 7.3c-2 .8-2.8-.1-3.2-.5-.8-.9-2.6-2.4-2.6-2.4l-2.3 13.6zm-9.9-24.8s-1.7 1-3.2-.5c-1.7-1.6-.2-3.9-.2-3.9s-3.7 1.7-4.9-2 2.2-4.6 2.2-4.6-4-1.9-2.1-5.3c1.8-3.2 5.6-1.4 5.6-1.4s-2.9-3.4.7-5.8c3.3-2.2 5.4 1.5 5.4 1.5s.1-4 3.8-3.8c3.7.3 3.6 3.7 3.6 3.7s2.7-2.1 5-.1c2.4 2.1.9 4.7.9 4.7s1.7-1.3 3.5.5c1.3 1.3.5 3.1.5 3.1l-20.8 13.9z" fill="#4f211e"/><linearGradient id="C" gradientUnits="userSpaceOnUse" x1="217.653" y1="62.9" x2="230.912" y2="46.911"><stop offset=".007" stop-color="#ff7a00"/><stop offset=".983" stop-color="#ffb600"/></linearGradient><path d="M216.8 61.3l-2.1-2.7s1.8-4.3 8.1-8.8c7-5 12.3-5.6 12.9-5s2 2.5 2 2.5-13.1 2.4-20.9 14z" fill="url(#C)"/><ellipse cx="224.5" cy="75.3" rx="5.3" ry="5.7" fill="#ea9d7d"/><linearGradient id="D" gradientUnits="userSpaceOnUse" x1="224.587" y1="78.667" x2="224.924" y2="73.339"><stop offset="0" stop-color="#cc7a5e" stop-opacity="0"/><stop offset=".924" stop-color="#aa5f4b"/></linearGradient><ellipse cx="224.8" cy="75.3" rx="2.4" ry="2.5" fill="url(#D)"/><path d="M228 79.1c-.9 1-2.2 1.5-3.5 1.5-2.7 0-4.9-2.4-4.9-5.3s2.2-5.3 4.9-5.3c1.9 0 3.6 1.2 4.4 2.9 0 0 .2.1.5-.1s.2-.6.2-.6c-1-1.8-2.9-3.1-5-3.1-3.2 0-5.8 2.7-5.8 6.1 0 3.3 2.6 6.1 5.8 6.1 1.4 0 2.5-.4 3.5-1.2l-.1-1z" fill="#b76349"/><g fill="#964c38"><path d="M227 75.9v-.4l-.4.1zm-1.7-3l-.4.1.3.4z"/><path d="M225.2 73l-.5.6.9.2zm-.9-.1l-.6.2.5.5zm2.6 1.5l-.3.2.4.2zm-.9-.5l-.3.3.4.1z"/><path d="M226.6 74.6l-.2.3.4.2zm-2.2-.8l-.3.2.5.2z"/><path d="M223.9 73.5l-.4.5.7.2zm1.7 1.8l.2.2.1-.3zm1.1-1.2l-.1.2h.3zm.2.9l-.1.3h.3zm-3.6-1.6l-.4.4.6.1zm.8 1.5h-.2l.1.3zm.6.9l-.1-.3-.2.2zm.8-2.5l.2-.2-.3-.2zm-1.2 0l-.3.3.5.1zm-.5.3l-.3-.2v.4z"/><path d="M223.8 73.6v-.3h-.3zm2.4.4l.2.3.2-.3zm-.4-.9l-.1.7.7-.2z"/><path d="M225.5 73.6l.3.2.1-.4zm-2.4.9l-.2.3h.3zm1.8-1.6l-.3-.1.1.4zm-.6 1.8l.2.3.2-.4zm.8 1.3l-.1.2.3.1zm-2.1-2.2l-.2.3.4.1z"/><path d="M223.9 76l-.3-.1.1.3zm-1.1-1.6l.3-.1-.2-.3z"/><path d="M222.5 75.5h.2l-.1-.3zm.2-1l.2-.1-.1-.2zm.7-.3v.3l.3-.2zm-1 .9h.4l-.2-.4zm.6.1v.2l.3-.2zm2-1.3l-.3.2.3.2zm1.4 1.5l.1.4.3-.2zm-2-2.2l.1.4.3-.3zm1 1.1l-.2-.2-.1.3z"/></g><g fill="#724539"><path d="M217.5 35.7l-.9-.8-.3 1.4zm-1-.9l-.7-.3-.7-.1.6 1.6zm-.2 4.2l-.3.4.6.1zm-4.4 1.6l.4.5.2-.6z"/><path d="M218.3 36.7l-.8-1-.5 1.3zm-.1.8l.4-.1-.2-.4zm-1.4 1.6l.8-.5-.8-.4zm1.6-.9l-.5-.1.2.6zm.4 1.6v-.5l-.6.2zm-3.2 1.7v-.6l-.6.3zm1.5-1.2l-.4-.2-.1.5zm-2.1-3.8l-1.2.7 1.2.9zm-1.9 4.7l-.4-.4-.2.5zm3.2-1.2l-.5-.6-.3.9zm-1.3-3.8l.3 1.2.9-.8zm1-.4l.4.8.4-.6zm1.3 1.2l.3.9.5-.8zm-4.5 2.9l1.1.1-.4-1.2zm.5 1.4l.2.5.4-.3zm2.4-4l.2.7.9-.5z"/><path d="M212.5 38.7l1.5.1-.6-1.5zm1.1-1.9l1.2.1-.4-1.4zm3.3-.3l-.8.4.8.7zm-.4 2l-.5-.3v.8zm-3.5 2.1l.7.3v-.8zm-.6-3.2l-.1.4.7-.1zm-.6-.2v.9l.5-.4zm1.4 2.9l-.8-.1.3.7zm1.5-1.7l-.6.1.4.5zm-2.6-1.5l-.2-1-.4.4-.2.5z"/><path d="M213.1 38l-1-.2v.7zm-.8-.7l-1-.5-.2.5-.1.5zm-.4.9l-.9-.3.1.9zm2.7-1.9l.7-.1-.3-.6zm-1.1.3l-1-.1.3 1.1z"/><path d="M211.9 35.8l.6.8.1-.8zm3.8-.7l-1.2.4.9.4zm-3.1 6.5l.4.2.1-.4zm3-3.2h-.9l.6 1z"/><path d="M214 38.1l.6.1-.2-.6zm-.3-3.5l1 1.2.3-1.4h-.7zm.3 4.2l.1 1 .9-.7zm-1.9-3.2l.9.6.6-1.5-.8.3z"/><path d="M211.5 39.9l.6-1h-1l.1.5zm3.4 0h-.6l.3.7zm-.4.9l-.5.1.2.5zm-1.9-4.7l1.4.7-.1-1.7z"/><path d="M211.5 40l.4.6.5-.8zm.7-1.2l-.2.6h.8zm-.8-.4l.4.5.4-.7zm4.2-.7h-.5l.3.4zm8.2 16.2l1.6 1.1-.5-2zm3.7-1.2l.2 1.3 1.2-.8zm2.1-1l.2 1.1.9-.6zm-1.1 3.1l-.4-.4-.3.5zm.3 1.1l-.5-.8-.2.9zm2.3-2.2l.2.3.3-.3zm-.8 2.1l-.4.2.4.2zm-1.9 1.5l-.3.3.5.1zm1.9 0l-.3.3.5.1zm-.4-7.2l1.1.8.1-1.4zm-6.8 6.5l-.8-.5.1 1.2zm-.5 1l-.8-.5.1 1.2z"/><path d="M230.6 53.7l-.4.5.8.3zm-4.2-1.2l-.4.5.8.3zm5-3l-.5.5.8.3zm-.1 3.2l-.2.6.9-.2z"/><path d="M229.3 51.5l-.6.7.9.4zm-2.3 1.4l-1.4 1 1.3.7zm-3.7 4.2l-.2.7.7-.1zm5.9-3.6l-1-.2.2 1.3z"/><path d="M225 55.5l.7.8.4-1.1zm5.4-4.7l-.7.8.9.3zm-2.2 2.1l.2-.9-1 .2zm.7-.9l-.2-1.3-1.2.8zm1.8 1.1l-.5-.2v.6zm-1.1-.2l-.5.6 1 .2zm2.1-1.2l.1-1.1-1.2.5zm-3.7 2.6l-1-.4-.2 1.2zm-4.9 1.6l1.1.7.4-1.1zm2.9-3.6l-1 .7 1.4.7zm-2.2 1.6l-1.1.9 1.2.5z"/><path d="M222.8 54.7l-.8.8 1.1.4zm-1.1 1l-.8.8 1 .4zm5.3-.4h-.7l.2.9zm-3.7 3h-.8l.3.9zm4.1-2.1l-.5-.1.2.6zm1.3-5.5l1 .7.2-1.3zm-2.5 1.5l1.3.9-.1-1.7zm4.3 3.4l.5.3.2-.7zm1.2-3.5l-.6-.5.1.9zm1.6-2l-.1 1 1.1-.4zm.5-1.6l.9 1 .3-1.4zm-.8 1.3l-.7.6.8.5zm1.1-.5l-.8.6.9.5zm-1.6.9V49l-1.4.5z"/><path d="M233.1 52.1l.2-.9-1.1.3zm-.6-3.1l.9.8.3-1.3zm2.8 1.8l-.6-.6.1.9zm-6.6 6.4l.4.3.1-.6zm.6-3.1l-.3.8.9-.1zm-4.3 1.2l-.1-1.1-1 1zm1-.9l-.5.5.8.2zm.2 4.5l.3.3.2-.5zm-1.5-2.5l.3.2.2-.5zm4.3-.7l.7.5.1-1zm-7.5.4l.7.4.1-.9zm-2.5 3.1l.7.4.2-.9zm8.3-2.3l-.2.5h.6zm-13.9-18l-1.1-.4.2 1.3zm1.4 2.8l-.5.1.3.4zm.2.9l-.4.2.2.3zm2.7-1.6l-.3.2.2.3zm1.3 3.5l-.4.1.3.3zm-2.8-2.5l-.3.1.3.3zm1.4.5l-.3.2.2.2zm6.7 14.6l.3.4.3-.6zm-4.4.4l1.8.8-.9-1.8zm-.3 2.7l-.9-.3.3 1.2zm.3.5l-.1.8.6-.2z"/><path d="M221.3 58.9l.9.7.2-1.2zm-1.8.6l1.2.6.2-1.1zm.4-2l-.9 1 1.1.3z"/><path d="M219 58.5l-.7.8 1.1.3zm-1 1.1l-.6.9 1.1.2zm-.7 1l-.5.6.8.2zm4-2l-.3-1-.8 1.1zm-.5 2l.4.3.2-.7zm-5.3-20.8l-.3-.3-.3.4zm2 0l.2-.5-.5-.1zm1.8 1.8l-.3-.1v.4zm-.6-1.1l-.3-.1v.4zm.5-1.9l-.4-.2v.5zm-8.6 1.9l-1.2-.1.6 1.3zm-1.3-.1l-.7.1-.7.3 1.4 1zm2.1 3.7l.1.5.5-.3zm-2.3 3.5l.6.2-.1-.6zm2.9-6.7l-1.2-.4.2 1.4zm.2.8l.3-.3-.4-.2z"/><path d="M211.8 43.6l.3-.9-.9.1zm.9-1.4l-.4.2.5.4zm1.3 1.1l-.3-.4-.3.5zm-1.4 2.8l-.4-.5-.2.6zm.4-1.8h-.5l.3.5zm-4-1.6l-.6 1.2 1.5.1zm1.4 4.7l-.5-.2.1.7zm1.8-2.9l-.8-.1.3.8z"/><path d="M208.8 42.5l.9.7.4-1.1zm1.2-1.4l.2.8.5-.8zm1.2.7l.7.6v-.9zm-1.8 4.7l.9-.6-1-.7zm1.3.8l.4.3.1-.5zm-.7-4.4l.6.5.5-.9zm-1.6 2.8l1.3-.8-1.4-.8zm-.4-2l1-.6-1.1-.9z"/><path d="M210.6 41.6l-.5.8 1.1.1zm.7 1.9h-.6l.5.7zM210 47l.7-.2-.5-.6zm-2.5-2.3l.2.4.4-.4z"/><path d="M207 45l.5.7.2-.7zm2.9 1.4l-.8.5.7.3zm0-2.3l-.4.5.6.2zm-2.9.3l-1-.5.2 1z"/><path d="M208.5 44.9l-.9.4.4.5zm-1.1-.2l-1.2.3.3.6.3.4z"/><path d="M207.7 45.7l-1 .3.7.7zm.9-3l.5-.4-.7-.4zm-.8.7l-.8.6.9.6zm-1.8.4l1 .4-.4-.7z"/><path d="M208.8 41.1l-.8 1 1-.2zm1.5 6.9l.5-.1-.3-.4zm.4-4.4l-.8.5 1.1.5zm-1.9.8l.5-.3-.5-.3z"/><path d="M206.9 41.8l1.4.5-.5-1.4-.6.4zm2.8 3.1l.7.7.3-1.1zm-3.6-1.4l1 .1-.3-1.7-.4.7zm2.3 3.8l-.1-1.2-.8.7.3.3z"/><path d="M211.1 45.3l-.5.3.6.4zm.2.9l-.4.4.5.3zm-4.5-2.5l1.5-.2-1-1.4zm1.6 3.7l.6.3.1-.9zm-.2-1.4l.3.7.6-.6zm-.9.2l.7.2-.1-.9zm2.9-2.9l-.4.3.4.2zm-.4-1.9l-.4.3.4.3z"/><path d="M209.2 45.4l-1 .3 1 .9zm2.9 1.4l-.3.4.4.1zm.7.6l-.2.3.4.1zm.9-2.5l-.1.3.4.2zm.1 2.4l-.2.3h.4zm-.7-.8l-.1.3h.4zm1.4-.3l-.2.3.3.1zm-3.1-1.3l-.4-.2-.1.5zm1.5-.9l-.1-.5-.5.3zm-4 3.5l-1.1.5 1.1.9zm-1.3.6l-.5.4-.5.6 1.7.2zm3.7 2.2l.3.4.3-.4zm-.7 3l.7-.1-.5-.5zm-.3-6.1l-1.3.3.9 1zm.5.7l.2-.5h-.5zm.5 1.8v-.9l-.8.5z"/><path d="M211.6 48l-.3.4.6.2zm1.2 1.8l-.4.2.5.3zm-4.3 1.3l.8.2-.2-.9zm3.3 1.5l-.6.2.5.4zm-3.6-2.5l1.2.3-.2-1.2zm.5-1.7l.5.6.1-1zm1.3 0l1 .2-.5-.8zm.3 4.2l.3-.6-.8-.1zm.8 1.6l.5-.2-.4-.4zm-1.6-4.3l.7.2v-1z"/><path d="M207.2 51.2l1.2.3-.2-1.4zm2.2-2.7l-.1.9 1-.3zm1.5 1.3l-.5.3.7.4zm.1 2.6l.5-.5-.8-.4zm-2.7.3l.4.3.1-.6z"/><path d="M208 53.2l.8.4-.2-.7zm2-.8l-.4.7h.8zm.2-1.4l-.2.6.6-.1zm-2.5 1.8l-1-.1.2.5.3.4z"/><path d="M209.3 52.4l-.6.8.7.2zm-1.2.4l-.8.9.5.4.5.2z"/><path d="M208.9 53.5l-.6.8 1 .2zm-.7-3.1l.2-.6h-.7zm-.2 1l-.5.9 1.1.1zm-1.4 1.2l1-.1-.7-.5z"/><path d="M207.6 48.9l-.2 1.3.7-.6zm4 3.6l.4-.2-.5-.3z"/><path d="M209.7 51.4l.3-.5h-.5zm-3.5-1l1.5-.2-1.1-1-.3.7zm.3 2l.9-.5-1.2-1.2.1.8zm3.9 2.1l-.8-1-.3 1h.5z"/><path d="M210.7 50.6l-.2.5h.7zm-1.4 1l-.2.5h.7zm2.8-.7l-.1.4.6.1zm-4.5 1l.3-1.2-1.3.4zm2.8 2.6l.7-.3-.6-.7zm-.8-1l.5.4.3-.8zm-.7.6l.7-.2-.6-.6zm.9-3.9l-.2.5h.5zm-1.2-1.5l-.2.5h.5zm5.2 2.3l-.1.5.5-.1zm-.5-.9v.4l.4-.1zm-.5-1.7v.4l.4-.1zm3.2-1v.4l.3-.1zm.2-3.5v.4l.3-.1zm-1.9 6v.3l.3-.2zm-.2-1.4v.3l.4-.1zm-2.3 2.4l-.4.1.2.5zm.7-1.3l-.2-.5-.4.5zm7.1-13.7l-1.1-.9-.3 1.2zm.3-.6l-.5-1.6-.5.6-.4.6zm1.6 3.3l.4-.4-.5-.2zm2.2-1.5l.5.4.1-.7zm-4.3-.1l-1.2-.7v1.3zm.9.4l-.4.9.9-.1z"/><path d="M219.8 38.9l-.2-.6-.3.4zm1.9.7l-.4-.5-.1.5zm-.6-3.7h.9l-.3-.8zm3.3 1.9l-.6-.3v.6zm-4.4-1.7h1.1l-.4-1.1zm-1.2.3l.9-.2-.7-.4zm0 1.3l.9.3-.3-.9zm4-1.4l.1.7.6-.4zm2.1 1l.5.3v-.5zm-4.8-.1l.9-.2-.3-.7z"/><path d="M220.6 35h1.4l-.4-1.1zm-.5 2.3l.1-1-.9.2zm1.5.5l-.5-.6-.2.6zm.9-.5l.5.6.4-.6zm.5-2.1l.6-.2-.3-.4z"/><path d="M223.5 34.9l.7.1-.5-.8zm.5 1.7l-.1-.8-.6.5zm-1.5.6v-.7l-.6.3zm1.5-3.8l-1-.4.3 1z"/><path d="M224.1 35.5l-.3-.6-.7.7zm.7-1.2l-.3-.4-.4-.4-.7 1zm.5.9l-.4-.9-.7.8zm-5-.7l.1.7.6-.3z"/><path d="M223 35l-.3-1-.8.5zm-.6-1.6l.5.6v-1zm-2.3 1.6l.5-.8-1.2.4zm3.1 2.9l.3.4.1-.4z"/><path d="M221.7 36.1l.1.6.4-.5zm-1.7-3l-.5.4 1.1 1v-1.6zm1.7-.3l-.9.1 1.4 1 .3-1zm3.7 2.9l-.1-.5-.9.6 1.1.5zm-3.2 2.1l-.1-.7-.5.3zm.7-1.6l-.1-.7-.5.3zm-.2 2.9l-.1-.6-.5.2zm-1.7-5.7v.8l.9-.4z"/><path d="M224.6 36.7l.9.3v-.7zm-.4-.1l.7-.4-.5-.4zm-.3-1.3l.8.4V35zm-2.3 1.5l-.1-.5-.4.3zm-1.7-1l-.1-.5-.4.3zm4.4 3.3v-.5l-.5.2zm-.4 1.5l.1-.5-.5.2zm-1.4-.9v-.4l-.4.1zm-.7 2.2l.1-.4-.5.1zm-1.6-1.7v-.4l-.3.1zm4.4-1.8l.1-.4-.3.1zm-4.2 3l.1-.3-.4.1zm2.2-3.3l-.5-.1v.4zm-1.7.7l-.4.4.5.2zm3.8.4l-.2-.3-.3.4zm2.2-2l-.2-1.4-.9.4z"/><path d="M227.4 37l.8-1.5-.8.1-.6.2zm-.9 3.8l.5-.1-.2-.5zm2.6.2l.2.6.5-.5zm-3-4l-.3-.7-.4.5zm.2 2.1l-.8.4.7.5zm-1.3.8l.2-.6-.5.1zm1 1.8v-.6l-.4.2zm1.9-3.3l.8.6.2-.8zm1.3 3.6l-.2-.6-.4.4zm-2.3-4.1l.9.7.3-1.1zm-1.1-.5l.9.4-.3-.8zm-.8 1l.5.7.3-.8z"/><path d="M225.1 37.3l.5.8.3-.9zm3.8 2.5l-.3.7h.7zm1.1 1.6l.2.5.4-.4zm-3.7-2.6l.8.4.2-.7zm1.8-1.3l1.1.8.4-1.1zm-1.9 1.3l.8-.7-.8-.4zm.9 1.4v-.8l-.6.3zm1 .2v.8l.7-.2zm1.7-1.2l.6.1v-.5z"/><path d="M230.4 39.2l.5.5.1-.9zm-.7 1.6l.4-.6h-.8zm-1.5-.5l.4-.5-.6-.2zm3.5-2l-.1-.4-.3-.5-.5.9z"/><path d="M230.5 40.1l.1-.7-1 .1zm1.3-.6v-.4l-.1-.6-1.1.3zm-.2 1.1l.2-.9-1 .1zm-3.4-3.8l-.4.7.7.1z"/><path d="M230 39l.4-1-1-.1zm.5-1.7l.1.8.5-.8zm-2.8-.2l.9-.3-1.2-.4zm.5 4.2v.5l.4-.2z"/><path d="M228.2 39l-.2.5.6-.1zm.8-3.4l-.7-.1.3 1.5.9-1.2zm1.5.8l-.8-.6.5 1.7.8-.6zm-3 4.2l.4-.6-.6-.1zm1.6-.8l.4-.6-.6-.1zm-2 2.1l.3-.5-.5-.1zm2.4-5.5l-.6.6 1 .3zm1.5 4.2l.3.6.2-.6zm-1.2.4l.8.1-.1-.7zm.7-1.2l.3.7.5-.5zm-2.8-.4l.3-.4-.5-.1zm-.7-1.8l.3-.4-.5-.1zm1.3 5.3l.3-.3-.4-.2zm-2.5.5l.4-.3-.5-.2zm.7-1.2l.3-.3-.4-.1zm-2-1l.2-.4-.3-.1z"/><path d="M229 42.6l.3-.2-.3-.2zm-5.2-.4l.3-.2-.3-.2zm3.9-1.1l-.3-.4-.3.3zm-1.8-.6h-.6l.3.5zm5.7 2l-.2-1.4-.9.4zm1.2-1l.8-.8h-.5l-.5-.1z"/><path d="M230.8 42.3l-.3-.8-.5.6zm.7.8l.5.3.1-.5zm.1-2.1l.5.6-.4.5zm.2-.2l.5.8.1-.9zm-1.9 1.9l.3.5.2-.6zM231 44l.7.4.2-.5zm2.2-1.2l.4.3.1-.4zm1.3 1.6l.6.2v-.5z"/><path d="M233.2 42l-.3.7.6.1zm1.4 2.2l.5-1h-1zm1-1.4l-.7.2.7.4zm-3.3-.7l1-.3-.8-.3zm.8 1.3l-.3.6.6-.1zm1-2.4l-.5-.2v1l.8-.6zm1 .8l-.5-.5.1 1.3.7-.3zm-1-.1l-.5.6 1 .3zm-1.7 3l.2-.5h-.5zm-20.3 12.7l-1-.1.2.4.3.4zm.2 1.2l.3-.9-.8.5zm.6-2.8v-.5l-.4.2zm.1-2.1l-.3-.5-.3.3zm-.7 3l.7-.2-.3-.5zm.6-2.4l-.7.3.4.5zm-1.6.1l.6.4-.2-.8zm1.6 2.9l-.5-.2v.5zm-1-3.2l.5-.2-.4-.4zm-1.1 2.8l.2.4.8-.7-1-.1zm0-1.4v.7l.9-.9-.7-.3zm.6.8h.8l-.4-.9zm2.1-3.2l-.5.1.3.4zm18.2-10.2l.2-.5h-.5zm-16.2 1l-.3.1.2.3zm-1.2 0l-.3.2.3.3zm-.7-1.8l-.4.1.3.4zm12.1 14.7l.4.5.4-.4zm-2.4-.2l.4.6.4-.5zm4.2 2.6l-.2.2.4.1zm1.1-.3l-.3.1.2.4zm-5.1.2l.1.4.3-.4zm1-.9l.2.4.3-.4zm-1 .6l.4-.3-.5-.3zm.6 3.6l.4-.2-.4-.4zm-1.5-2.4l.4.3.2-.5zm-.7 1.4l.6-.1-.2-.6zm3.5-.3l.2.2.2-.3zm-.4-1.5v.3l.4-.1zm-1.3.5v.4l.4-.1zm-3.2 1.6l-.3.3.4.1zm1.9-.1l-.3.3.4.1zm-1.7-.1l.5.3.1-.6zm-2.4 1.1l.3.3.2-.5zm1.1-1.4l-.2.5h.5zm-2.3 1.5l-.8-.4.2 1.2zm.2-.9l-.1.7.6-.2zm.2 1.5l-.3.3.5.1zm-1.5.2l-.2.5.6-.1zm1.8-2.4l.3.6.4-.5zm-1.2.3l-.2.6.6.1zm2.9 2.1l-.1.3h.3zm1.2-.2l-.4.1.3.3zM235 52.1l-.2.3.4.2zm.6 1.1l-.3.3.5.1zm-1.7-1.9l.4.3.2-.6zm-2.1-.3l.4.2.1-.6zm2.9-1.3l.4.3.1-.6zm-2.3 4.6l.3.2.2-.5zm1.1-2.1l-.2.5h.6zm-1.6-.1l.4.5.4-.4zm1.8 3l-.3.1.2.3zm5.6-4.1v.3l.4-.1zm1.2-3.6l.5 1.4.8-1.2zm6 1.8l-.6.1.4.7z"/><path d="M242.1 47.7l-.7.2.4.7zm4.8 2.3l-.5.4.8.3zm-5.9-.4l.7-.7-1.3-.4zm4.5.6l.2.6.5-.5zm-4.8-.2l-.1-.7-.5.8zm2.5-.7l-.6.8 1.1.3zm1.5-1l.2 1.2 1-.7zm-1.6.6l-.9.1.4.9z"/><path d="M244.3 49.1l-1 .1.5.9zm-1.8-.2l.7-1-1.4-.3zm-.6 1.9l.7-.5-1.1-.5zm-2.7-2.7l.4 1 1-1.1z"/><path d="M243.2 47.9l.2 1.2 1.1-.8zm1.4 3.3l-.1-.8-.5.7zm3.6-.9l-.4.1.3.3zm1.2 1l-.4.1.3.3zm-6.4-.7l.2.5.4-.4zm-1.5-1.5l.2.5.4-.4zm3.1.8l.3.5.4-.4zm-4.6 2.3l.1.3.5-.3zm2.1-1l-.4.3.5.3zm-1.2-1.1v.7l.6-.2zm-5.9-2l.9 1 .3-1.4z"/><path d="M236.5 47.9l-.5.4.7.5zm-.2 2.1l.4-1-1.3.2zm-.1.4l-.4-.6-.1.9zm2-1.6l-.3 1 1.2-.2z"/><path d="M238 48.5l-.8.4.6.7zm1.2-.3l-.9.5.8.6zm-1.8.4l.2-1.2-1.4.3zm.2 2.1l.4-.8h-1.2zm.1-3.3l.5 1.1.7-1.1zm1.4-.1l.5 1 .8-.9zm-2.5 2l.3.3.3-.5zm-.2 1.1l.2.6.5-.3zm4.2 3.2l-.3-.1v.4zm-5-1.6l.2.2.3-.3zm3.6-1.4l-.3.3.5.1zm-.8 2l-.2.3.5.1zm.8-2.5l.5.2v-.6zm-2.4 2.9l.3.2.1-.5zm.8-2.2l-.1.6.6-.1zm.6 2.8l-.3.2.2.3z"/></g></svg>