<svg xmlns="http://www.w3.org/2000/svg" xmlns:xlink="http://www.w3.org/1999/xlink" viewBox="0 0 480 480" xmlns:v="https://vecta.io/nano"><path d="M214.5 70.5s-8 1.5-11.9 7.8c-3.5 5.6-4.1 14.3 4.6 21.5 4.9 4.1 12.4 5.5 17.7 3.3 13.6-5.5 9.1-20.4 9.1-20.4l-10.1-9.6-9.4-2.6z" fill="#b23031"/><path d="M226.3 78.8l-7.5 24.5-2.2 5.7s3.2 4.1 10.8 5.7c5.2 1.1 8.7 1.2 11 1 1.9-.2 4.2-.6 3-4.1-1.7-5.2-1.1-8.5-1.1-8.5l2.7-14.7-16.7-9.6z" fill="#ea9d7d"/><linearGradient id="A" gradientUnits="userSpaceOnUse" x1="229.374" y1="95.734" x2="236.246" y2="86.885"><stop offset="0" stop-color="#bc5a32" stop-opacity="0"/><stop offset=".99" stop-color="#bc5a32"/></linearGradient><path d="M225.1 92c2.5 3.8 6.9 7 9.4 8.2 3.5 1.7 6 2.1 6 2.1l2.2-12.2-16.4-11.3-.9 1.7-.7 2.8c-.1.1-1.9 5.2.4 8.7z" fill="url(#A)"/><use xlink:href="#F" fill="#cf7653"/><g fill="#a84d3b"><path d="M229.1 84.6l.2.5.4-.4z"/><path d="M229.1 84l-.3.9 1.1-.2zm5.3 3.8v1.1l1.1-.5zm-2.7-1.7l-.1 1.1 1.1-.4zm-1.5-1.1l-.2 1.1 1.2-.3z"/><path d="M228.4 83l-.4 1h1.2zm7.5 7.2l-.5-.6-.4.7zm-1.4-1.1l-.6-.8-.3.9zm4.1 2.1l-.7-.7-.2.8zm3 1.1l-.7-.8-.3.9zm-5.3-3.6l-.6-.3v.9zm1.4 3.1l-.5-.5-.3.7zm-3.9-4l-.6-.4-.1.9zm5.3 2.1l-1-.4.1 1.2zm1.9.3l-.8-.1.2.9zm1.3 1.6h-.8l.3.7zm-2.8-.2l-.3-.7-.5.7zm2.4 2.3l.1-.7-.8.2zm-.2 1.3l.1-.7-.8.2zm-1.7 0l-.4.3.5.3zm.3-3.9l-.4.4.6.3zm2.3-.7l-.6-.1.2.6zm-1.9 5.8l-.4.3.6.3zM230.8 86l-.4.3.5.3zm6.7 4.8l-.3-.3-.1.5zm-2.8-.8l.1-.4h-.5zm1.4.9l.2-.4h-.5zm2.1 2l.2.5.5-.4zm2.9-2l-.3.3.4.2z"/><path d="M241.3 90.4l-.5.4.6.3zm-1.2.4l-.4.3.4.2zm.4 7.1l-.4.2.4.3zm-1.1-1.1l.2.4.3-.4zm-.1-2.4l.2.4.3-.4zm1.9.9l-.3-.2-.1.4zm-13.9-4.7l.2.2.2-.3zm1.9-1.2l-.2.2h.3zm2 3.5l-.3-.1.1.4zm-1-1.7l-.2.3h.4zm6.9 3.2l-.1.6.6-.3zm-.9-4.5v.5l.5-.2zm0-1v.5l.6-.3zm-7.7-3.1v.6l.5-.3zm12 7.3l-.5.1.4.4zm-1.5 4.2l-.2-.4-.4.4zm.3-5.2l.3.4.3-.5zm1.6.6l.3.5.3-.6zm1-1.9l-.3.4.5.1zm-.6 3.2l-.4-.3v.6zM230 85.1l-.6.4.7.4zm-2 .8l-.3-.3-.1.5zm-2-1l-.2-.2-.1.4zm-.5 3.1l.1-.4h-.4zm3.8-2.2l.2.4.4-.4zm-1.2-1l.3.6.5-.5zm-.2-2.7l-.4.6.8.1zm3 4.8l-.3.2.4.3zm.8-.4l-.3.2.4.2zm.8.4l-.3.2.3.3zm-1.5 2.7l-.2-.2-.1.4zm-6-3.4l.2.3.3-.4zm2.3-2.3l-.3.2.4.2zm-.1 3.7l-.3-.2-.1.4zm.3-4.1l.2.3.3-.4zm1 .5l.2.4.3-.4zm-2.3-1l-.3.3.4.1zm.3-1l-.3-.2-.1.4zm5.3 5.5v.4l.5-.2zm1.9.8l-.4.1.3.3zm-.8-.8l-.4.1.3.3zm6.7 3l-.4.1.3.3zm-1.5-.6l-.3.1.2.3zm-4.7.7l-.1-.3-.3.3zm5.6 5l-.1-.3-.3.3zm-6.1-6l-.2-.3-.3.3zm2.6-.6v.5l.4-.2zm1.6.4v.4l.4-.2zm1.8.9l-.4.1.3.3zm-1.4 2l-.2-.3-.2.3zm-4.3-.1v.4l.4-.2zm1.9-1l-.3.1.2.3zm3.4.8l-.1-.3-.3.3z"/></g><path d="M251.1 53.1c2.2 2.8 2.9 5.2 3.3 8.1l.3 5.4c0 4.2-.3 10.1-.8 13.4-1 5.7-3.7 9.1-6.9 10.1s-9-1.1-12.9-3.1c-3.3-1.7-5.2-3.5-5.7-5.6-.5-2.2-1.5-5-1.5-5l-5.7-3.9s-4.4-15.1 5.3-21.6c8.4-5.6 20.7-2.7 24.6 2.2z" fill="#ea9d7d"/><path d="M243.6 90.6c-1.1 0-2-.2-4-.7-3.2-.8-7.7-3.3-10-5.5-2.2-2.2-2-4.3-2-4.4 0-.2 0-.5.2-.5s.3.2.4.4c.1.4.1 2.1 1.9 3.9 2.1 2.1 6.6 4.5 9.6 5.3 3.1.7 3.7.9 6 .7 2.2-.2 3.4-.9 3.4-.9.4-.3.5-.3.3 0-.2.2-1.4 1.2-3.6 1.6-1 .1-1.5.1-2.2.1z" fill="#b76349"/><path d="M238.4 68.4a.78.78 0 0 1-.2-1c.1-.1 1.7-2.5 5.3-2.2.4 0 .7.4.7.8s-.4.7-.8.7c-2.7-.2-3.8 1.5-3.9 1.6-.3.4-1 .2-1.1.1zm14.9-1.8c-.1 0-.3 0-.4-.1-.7-.5-1.5-.4-1.6-.4-.4.1-.8-.2-.9-.6s.2-.8.6-.9c.1 0 1.5-.4 2.8.7.3.2.3.7.1 1-.1.2-.4.3-.6.3z" fill="#b4603f"/><path d="M209.9 65.5c1.9 4.8 6.1 4.6 6.1 4.6s2.4-4.3.9-7.5c-1.2-2.7-4.8-4.3-6.2-4.8-.3-.1-.6 0-.7.3-.4 1.3-1.2 4.7-.1 7.4z" fill="#ffb600"/><path d="M212 65.5c1.3 3.8 3.3 3.3 3.3 3.3s1.5-1.6-.1-4.8c-.6-1.2-2.5-2.5-3-2.7-.1 0-.3 0-.3.1-.2.6-.3 2.9.1 4.1z" fill="#ffa300"/><path d="M208.6 73.5c5.2.3 6.7-3.6 6.7-3.6s-2.9-4-6.5-4c-2.9 0-5.9 2.6-6.9 3.6-.2.2-.2.5 0 .7 1.1 1 3.8 3.2 6.7 3.3z" fill="#ffb600"/><path d="M244 84.4h0c-3.8-.2-5.4-2.9-5.8-4.4-.1-.4.1-.8.5-.9s.8.1.9.5c0 .1.8 3.1 4.4 3.3.4 0 .7.4.7.7 0 .5-.3.8-.7.8z" fill="#cf7653"/><path d="M247.2 78.9h-.2c-.4 0-.6-.4-.6-.7 0-.4.4-.6.7-.6.2 0 .7 0 .9-.6s-.3-1.5-.5-1.8-.2-.7.1-.9.7-.2.9.1c.1.2 1.2 1.6.8 3-.4 1.2-1.5 1.5-2.1 1.5z" fill="#b4603f"/><g fill="#4f2b23"><circle cx="242" cy="72.1" r="1.4"/><path d="M241.7 71.7c-.2 0-.8.2-.9 0-.1-.3.4-.9.7-1 1-.5 1.8-.4 2.1-.4a.47.47 0 1 1 0 1c-.3 0-.9 0-1.7.3-.1.1-.1.1-.2.1z"/><circle cx="252.4" cy="71.3" r="1.4"/><path d="M252.1 70.9c-.2 0-.9.2-1 0-.1-.3.5-.8.8-1 1-.5 1.8-.4 2.1-.4a.47.47 0 1 1 0 1c-.3 0-.9 0-1.7.3-.1.1-.1.1-.2.1z"/></g><g fill="#f4b9a6"><path d="M244.8 76.5l.6-.4-.7-.4zm-7.6-1l-.2-.5-.5.5zm9.7.4h.9l-.5-1zm-1.6-3.1l.6.5.2-.8zm.4-.9l.9-.5-.8-.6zm1.6 8.1l.8-.4-.7-.7zm2.3-.9l.4-1h-1zm-5-3.4l-.7.1.4.7z"/><path d="M245.2 74.8l-.8.1.5.6zm-.5 3.7l.2.7.7-.5zm.2 1.4l.6.4.2-.7zm3.4 2.5l-.7.1.5.6zm-1.5-15.3l-.3.5h.8zm.3 4.4l-.6-.2.2.7zm.8-2.1l-.6-.2.2.7zm-4.2 2.8l-.2.6.8-.1zm.8-3.1l-.7.3.7.5zm-2.9.7l-.4.1.2.4zm5.5 12.4l-.6.2.3.5zm-.7-.4l-.6.1.4.6zm-4.9-4.3h-.6l.3.6zm1.4 1.3h-.6l.3.6zm-1.7-3.4l-.2.6.8-.2zm3.2-.4l-.1-.5-.6.5zm6 5.8l.3-.4-.6-.1zm-2.2-1.9l.3.1.1-.4zm4.1-3.9v.5l.3-.2zm-2 1.9l.4.1v-.5z"/><path d="M252.4 75.8l.2-.4h-.5zM240 71.2l-.3.4.5.1zm5.9-2.3l.8-.1-.5-.7zm-.1 8.8l.9-.1-.6-.8zm-.6-5.8l-.6-.1.1.6zm-4.9 3.9v-.6l-.7.3zm4-5.6v.7l.8-.4zm-.9 1.3v.7l.9-.3zm.7-.5v.7l.8-.4zm6 .2l.5.3.1-.7zm-5 2.8l-.3-.4-.4.5zm2.3 7.6l-.5.1.4.5zm-2.4-4l-.2.4.6-.1zm.4 3l-.2-.5-.3.5zm.9.5l.4-.3-.6-.2zm.3-1l.4-.3-.5-.4zm-.2-.8l.5-.3-.6-.4zm0-2.6l.5-.3-.6-.4zm-1.2.1l.4.4.2-.5zm4.9 4.6l-.6.1.4.5zm-2.4-5.2l-.2.4.4.3zm.9 5.5l-.3-.4-.3.4zm-3.2 1.5v.6l.7-.3zm-1.2-3l-.6.2.4.4zm-5-6.3l-.3-.4-.3.5zm5.2 7.7l.3.2.2-.6zm-1.5-1.2l.4.3.1-.6zm-1.1 3.9l-.3.4h.6zm-.8-.7l-.5-.1.1.5zm-1-.2h-.5l.1.5zm5.7-7.7l1-.2-.8-.9zm-.6-2.5l.2.5.4-.5z"/><path d="M245.1 74.1l.4.9.8-.9zm2.7-1.1l-.8.7 1 .3zm-6.7 1l.1-.4-.6.2zm6 0l-.3.3.5.2zm-1.7-3.3l.6-.1-.4-.5zm3.8 1.7l.6-.1-.4-.6zm-4.2-.3l.6-.1-.4-.6zm4.6-2.6l.6-.1-.4-.5zm-2-1.5l-.5.2.6.3zm-5 1.3l.1-.4-.6.2zm0 7.9l-.1.7.8-.2zm-.9-.5l-.6.1.3.6zm1 2.9l-.1.6.7-.2zm1.2-2.6v.7l.7-.3zm-.8 1.3v.8l.9-.4zm-.6-2l.1-.6-.6.3zm8.2-3.5l.6-.1-.4-.5zm-2.1-2.2l.2.4.4-.4zm3.9 7.4l.5-.2-.4-.3zm-8.7-8.7v-.4l-.5.2zm3.6 1.5l-.1.6.7-.2zm-.7-1.2l-.1.6.7-.2zm1.5 4.5l.8.6.4-1zm1.2 1.6l1-.2-.6-1zm-3.4.3l.4.1-.1-.3zm0-2.5l-.2.4.6.1zm1.2-1.2h-.6l.4.6zm1.9.4l-.6.1.3.6z"/><path d="M247.3 73l1-.5-1-.7zm1.7-4.4l.4-.6-.8-.1zm-3 9.9l.4-.6h-.8zm.3-4.4l.9-.4-.9-.6zm1.3-4.1l.3.3.2-.5zm1.2 1.1l-.7.8 1.3.2zm1-1.2l-.3.4.6.1zm.3 3.9l.3.4.3-.5zm-1.3-4.5l-.3.4h.6zm-8.3 4.4l-.6.2.5.5zm2.9-.8l-.4.5h.7zm-.5.8l-.1-.4-.5.3zm-.7.5v-.4l-.5.3z"/></g><use xlink:href="#F" x="-0.2" fill="#cf7653"/><linearGradient id="B" gradientUnits="userSpaceOnUse" x1="240.021" y1="64.404" x2="236.191" y2="59.097"><stop offset="0" stop-color="#bc5a32" stop-opacity="0"/><stop offset=".99" stop-color="#bc5a32"/></linearGradient><path d="M231 70.6l8.2-5.5c5.5-2.6 13.3-2.1 13.3-2.1l-6.8-4.7H236l-5 12.3z" fill="url(#B)"/><path d="M227.4 81.4l-.4.3.5.3z" fill="#a84d3b"/><path d="M217.8 68.6s-2.6-18.2 14.1-21.8 21.4 7.3 22.2 8.9 1.3 5.2 1.2 6.7-.9 1.5-.9 1.5-6.8.1-11.8-2.2l-5.8-2.4s.1 4.7-1.8 8.7-3.5 4.9-6 4.3c-2.4-.5-7.3.3-7.3.3s-3.9 0-3.9-4z" fill="#b23031"/><path d="M210 71.4c4 .2 4.3-1.8 4.3-1.8s-.9-2-4.5-1.8c-1.3.1-3.3 1.3-3.7 1.8-.1.1-.1.2 0 .3.5.4 2.6 1.5 3.9 1.5z" fill="#ffa300"/><linearGradient id="C" gradientUnits="userSpaceOnUse" x1="223.873" y1="80.955" x2="216.716" y2="66.436"><stop offset=".007" stop-color="#ff7a00"/><stop offset=".983" stop-color="#ffb600"/></linearGradient><path d="M213.5 72.4l11 8.2 2.2-6.5-9.4-7.5c-.4-.3-.9-.2-1.1.2l-2.9 4.8c-.1.3 0 .6.2.8z" fill="url(#C)"/><g fill="#d3505d"><path d="M249 49.4l-.3 1.2 1.3-.3-.5-.5zm-21.7-1l1 .7.2-1.3zm23.5 2.6l-.2.9.9-.2zm-3.3-1.4l-1.2.6 1.1.9zm-13.8-2.2l.1.6.6-.2zm-8.7 3.1l.1.8.7-.4zm1.2.1l.2.8.7-.5zm-1.4 1.5l1.5.2-.3-1.5zm3.1-2l-.7.9 1.1.4zm-4.5 2.2h1.1l-.3-1.3zm26.1-.2l-.4.3.6.2zm-1.3.4l-.4.4.6.1zm-12.7-5l-.2.4.5.1zm10.8 2.3l.4-.4-.7-.3zm5.4 2.1l-.3.5.5.1zm-1.9-.5l-.7-.3.1.9z"/><path d="M246.3 50.3l-.5-.5-.3.8zm2.2.2l-.5-.5-.3.8zm-11.6-3.6l-1.1.2.2.8zm-1.6.3l.1-.8-.9.4zm-2.9-.1l-.8-.1.1.9zm1.4 0l-.7-.1.1.9zm-6.8 2.2l-.8-.1.4 1.1zm-1.2 1.3l.2-.9-1 .3zm3.9-3.1l-1 .3.4.8zm-2.6 2.1l1 .1-.4-1.2z"/><path d="M226.6 50.3l1.1.3-.3-1.3zm1.1-.1l1 .5.1-1.3zm22.6 1.3l.1-.9-.9.4zm-14.7-5.3l.6.9.5-1zm-1.9.4l.6.8.4-1zm-1.6.2l.7.8.5-1zm-8.5 4.1l1 .5-.1-1.2zm3.5-2.4l-.6.3.6.6z"/><path d="M225.2 49.6l-.7.5.7.4zm-1.5 1.2l-.5.5.6.3zm25.3 3l-.2.3h.5zm-1.4 0l-.2.3h.5zm3.5-1.3l-.3-.1.1.4zm-1.2-.6l.3.4.2-.6zm-1.7-.4l.4.4.1-.6zm-13.6-4.1l.3.3.2-.5zm14.6 5.4l-.1.4.4.1zm-17.9 2.3l-.2.4h.5zm17.2-6l-.7.5.9.6zm-1.2 3.8l-.4-.3-.1.4zm.4-1l.3.1-.1-.4zm-2.7-.4l.5.1-.1-.7zm2.5-2.2l.6-.5-.7-.4zm-2.9 2.7l-.1.4.4-.1z"/><path d="M247.1 49.6l.4-.6-.8-.3zm-16.2-1.9l.2-.7-.9.3zm-4.7 2l-.1-.7-.8.5zm23.7 3.9l.2.3.3-.3zm-3.6-.3h-.4l.1.4zm-16.1 1l-.3.2.4.2zm13.7-2.3h-.3l.1.4zm7.7 1.8l.5.3v-.6zm-.5-.6l.5.2v-.6zm-14.8-.7V52l-.5.3zm-6.2-5.1l-.7 1.3 1.2-.2zm6.1 1.1l-.1-.9-.9.5zm-5.2 3.2l-.4.9.9.1zm3.2-.1l-.3.6.7.1zm-2.1 1.8l.4.1v-.4zm-2.2-1.5v.3h.4zm3.8 1l-.3.1.2.2zm-1.6-.8l-.1.6.7-.3zm3.9 2l-.4.1.3.3zm-7.3-.1l.7.6.3-.8zm2.7-6.7l-.8.9 1.4.4v-.7zm-.3 1.6l-.4.8.9.2-.1-.7zm.7 1.1l-.7-.1-.5.4.8 1.1zm-7.1 5.7l-.5.8h1zm6.3-7.2l-1.3.3.8.6zm-1.7.1l-.6.2-.3.7 1.2.3zm5.8-.9l-1.2.3.9 1.1z"/><path d="M235.9 48.5h-1.1l.9.8zm.2 1.2l-.8-.4-.1 1.1zm-5.9 1l-1.2-.6-.2.8.4.4zm-.6.9h-.9l.4.9zm-1.4 0l-1.3-.2.3 1.3zm6.5-.7l-.1-1-1 .4zM233 52l.6-.8-1-.3zm-5 2.9l.5-.5-.9-.3z"/><path d="M228.7 56.3l.3-.7h-.8zm-.3-3l.7.1v-.7zm4-1.7l-.6-.7-.5.9zm-1.7-2l-1-.2.5 1.3zm2.9-1.8l-1.1.7.7.5zm.2 1.7l-.6.4.4.6zm-1 .3l-.4.7.8.2zm-1.4 3.6l-.4-.1.1.4zm-1.1-.7l-.7-.3.1 1zm1.6-1.8l.4.2.2-.5zm.3-3.1l.3.4.4-.3zm2.6 1.5l-.7-.4-.2.9zm-4.3 1.8h-.8l.4.9zm-1.9.7l-.8.3.7.6zm5.2-3l-.2-.3-.2.5zm10.4 4l-.1.4.5-.1z"/><path d="M235.5 52.9l-.2.3.3.2zm-.2-1.6l.2.5.3-.4zm-2-.9l-.1-.5-.5.3zm-.6-1.6l-.6.6v.4l1-.2zm-.6-.4l-.1.5.3-.2zm1.8 1.6l-.1.3.4-.1zm-.7 2.3l-.1.4.4-.2zm.8-4.4l-.4-.1.1.4zm12.9 3.7l.2-.5h-.5zm-.9 1l.1-.5-.5.1zm-15.9 3l-.1-.5-.5.4zm15.9-5.3v.6l.5-.3zm-12.7-1.4l.3.3.2-.4zm13 2.8l-.3-.4-.2.4zm-13.2 2.7h-.5l.2.5zm1.3-3.4l-.2.3.4.2zm-.7-.1l-.3-.1-.1.4zm-4 5.1l-.2.5.5.1zm12-2.2l-.2.4h.5zm.7-1.8l.5.2-.1-.4zm-.7.1l-.4-.2.2.5zm1.7 1h-.4l.2.4zm-17.8 5l-.5-.2v.5zm1.5-.5l-.6-.3v.8zm-2.8-3.9l.6.7.6-.9zm1.8-1.2l.3.4.4-.6zm.7.9l.3.5.4-.6zm-7.7 4.1l-.3.8.9-.2zm4.6.3l.9-.2-.6-.8zm-2.2 0l.8-.2-.6-.8zm2.5 1.1l.3.3.2-.3zm-2.4 4.3l.2.3.3-.3zm1.1-2.4l.3.4.2-.3zm4.7-8.1l.8.9.7-1.3zm-1.6 2.3l1.2-.4-1-1.1zm-3-.7l1-.3-.7-.9z"/><path d="M225.7 52.6l-.5.6.9.4zm1.7 2.3h-.5l.3.6zm-4.3 1.8l.6.1-.2-.6zm-1.1-1.8l.1.5.4-.3zm-1.1.3l-.1.5.6-.1zm5.4.4l-.8.5.8.5zm10-5.4l-.8.2.7.7zm4.2-2.9l-.2.6.8-.1zm1.8.3l-.4.3.5.2zm.9.3l-.6-.3-.1.9zm-1.1-.4l.3-1-1 .4zm-3.2-1.3l-.8-.1.3.9zm1.8.7l-.7-.4-.1.9zm1.9-.3l.3 1 .8-.8zm-2.1-.4l.4 1.1.7-.9zm-1.5-.1l.4 1 .8-.9z"/><path d="M241.3 47.6l.3.4.3-.5zm-4 5.8l-.3.4.5.1zm.3-6.6l.3-.7h-.9zm4.1 4.6l.1-.4h-.5zm.8-2.3l.2-.9-1 .2zm.2.5l.9-.2-.6-.9zm-6 1.1l-.7.7.9.3zm3.1.8l-.5.5.6.2zm-2.6 1l.3.3.1-.4zm1.7.1l-.3-.1.1.4zm-1.3-1.3l-.3.6.8-.1zm3.2 3h-.4l.1.4zm-2.8-7.5l-.7.5.8.6.2-.5zm-.4 1.2l-.7.6.8.5.2-.7zm-.4 1l-.3-.2-.4.1.3.8zm.3-1.5h-1.3l.6.8z"/><path d="M241.8 48l-1.4-.1.6 1.4z"/><path d="M242.2 49l-1-.3.6 1zm-.1 1.2l-.7-.6-.4 1zm-1.7.7l.2-1-1 .2zm-2.4.4l.8-.5-.9-.6zm-.2-1.1l-.5-1-.7.8zm2.5-2.5l-1.3.3.5.7zm-.4 1.7l-.6.1.2.7zm-1-.1l-.6.6.7.4z"/><path d="M236.8 52.9l-.4-.3v.5zm.9-2.8l.3.4.3-.5zm1-3.3l-.2.9 1.2-.4zm2.2 2.7l-.5-.7-.4.9zm2.9-1.6l-.2.6.7.1zm1.7.7l-.4.2.4.3zm.9.5l-.6-.5-.3.9zm-1.1-.6l.6-.9-1.1.1z"/><path d="M244.1 47.5l-.5-.4-.3.8zm2 .2v1.1l1-.7zm-2-.8l.2 1.1.9-.7zm.5 1.5l.1.4.4-.4zm.9 1.7l.3-.8h-1zm-.6-1.2l-1.2-.4.2 1.5z"/><path d="M245.2 49.9l-1-.4.4 1zm-.4 1.2l-.6-.8-.6 1zm-1.9 0l.2-.5h-.6zm.9-1l-.3-.7-.7.7zm-3.5-1.3l-.2-.7-.6.9zm.4 4.3l-.4.2.2.3zm.2-1.6v.5l.5-.3zm-1.6-1.5v-.5l-.6.2zm-.2-1.6l-.8.3v.4l.9.1zm-.5-.8l-.4.8.7-.1zm1.3 2.3l-.1.2h.4zm-1.3 1.9l-.2.4h.4zm.3 2l-.4-.1v.5zm1.2-2.9l-.3.3.4.2zm-.7-.2l-.2-.3-.2.4zM221.6 55l.1-1-1 .3z"/><path d="M221.9 56.1l-.8-.4-.1 1zm-.9-.7l-.5-.8-.5.9zm-.5 1.1l.4-.8-1.1.1zm3.1-2.6l.5-.2-.4-.5zm-.8.3l-.8.1.5.7zm-1.7-.6l.4.6.4-.6zm3.3-1.7l-.6 1.1 1.5.2zm-1.4 5.4h.3l-.1-.4zm-2.5 1l.3.2.1-.4zm-.6-.7l.4.4.3-.7zm5.2-2.9l-.8.4.7.6zm-1.5.3l.5-.1-.3-.5zm-1.2-3l1 .5-.3-1.2zm.3 3.1l.3.8.7-.7zm-1.3-1.9l1.1.2-.3-1.2zm-2.2 4.1l1-.3-.5-.8z"/><path d="M224.2 55.6l-.5.1.4.4zm.5 2.4l-.3.2.2.3zm-5.4 7.4l-.3.1.3.3zm3.1-12.5l.9.2-.3-1zm4.6 3.8h.4l-.1-.5zm-6.4.9l.4.5.4-.6zm1.5-1.4v.6l.7-.2zm-1.9.3l.4.5.3-.6zm-.7.8l.5.5.3-.6zm3.6.3h-.4l.4.4zm-5.2 4.7l-.1.8.9-.4zm-.2 1.9l.6-.2-.5-.5zm3.1-1.4l.4.3.1-.4zm.4-2.2l.5-.3-.5-.3zm-1.1-1.6l.2.5.4-.4zm-.5 4.4l.2.5.4-.4zm-.4-3.8v.5l.5-.2zm.6-.4l-.2-1-.9.6z"/><path d="M220.8 60.2l-.9-.2.2 1zm-1.5-.5l-.7-.7-.3 1.1zm-.2 1.3l.1-1-1 .4zm1.6-2.9l-.7.3.7.6zm.9 3h.4l-.2-.4zm-2.1 1.6l.3.1.1-.4zm-1 1.8l.3.1.1-.4zm.3-2.4l.5.3v-.7z"/><path d="M221.7 58.7l.5-.2-.4-.4zm-.8.3l.5.7.4-.9zm-3 3l.9-.5-.7-.6zm4.5-2.9l-.4.2.5.3zm-4.1 4.3l.6.4.1-.7zm-.6 1.4l.4.3.1-.6zm2.5-3.3l.1.6.7-.4zm-1.4-.5l.5.4.2-.7zm-.4 1l.5.3.1-.7zm3.5-.7l-.4.2.4.2zm-1.2 3.9l-.4.2.4.2z"/></g><g fill="#93282d"><path d="M238.4 59.3l.5-.5-.7-.3zm6.5 2.6l.6-.5-.8-.4zm1.1 1l-.3-1.4-1.2.9z"/><path d="M243.5 62l1 .4-.1-1.2zm-6.2-4l.3-.1-.3-.4zm-.6-1.3l-.4.5.5.3zm-2 4.3l.5.4.2-.7z"/><path d="M236.4 57.7l.4.6.4-.7zm.9.6l-.7.5.9.5zm6.2 3.7l-.1-1.1-1.1.6zm-5-2.3v-1l-1 .5zm1.8.8l-.2-1.1-.9.6zm-5.5-.4l.3-.3-.4-.2zm3.1-1.5l-.1-.4-.4.3zm7.4-1.9l.4-.1-.3-.3zm-8.7-1.3l.2.3.2-.3zm1 .8l-.5-.1v.6zm1.1.2l.1-.3-.4-.1zm-2.3.1l.4-.1-.3-.3zm7-.7l.4.1-.1-.5zm-4.2-.9h.3l-.1-.4zm.6.6l-.4.4.5.2zm1.4 5.4l.7.4v-1.2z"/><path d="M237.5 56.7l-.6.8.9.3zm5.5.3l-.1-.4-.3.3zm1.3 2l.5-.3-.5-.4zm-1.8-3l.3.3.1-.4zm-.5-1l.2.1.2-.3zm2.1 6.3l.3-1-.9.1zm-3.9-.8l.9.4.1-1.2-.7.2zm1.1-1.3h.5l-.2-.5-.3.2zm.5 1.6l.4.7.7-.3-.3-1.1zm1.9-1.5l.2.7.4-.2.2-.3zm1.3-.8l.5.7.4-.9zm-.1 1.8l.3 1.2 1-.8zm-5.7-1.2l-.7.6 1 .5zm1.5-1l-1 .2.5.9zm6.7-.1h-.7l.3.6zm3.9 1.9l-.7-.1.2.7z"/><path d="M241.1 59.7l.9.8.4-1.4zm-5.5-1.5l1.1.6-.1-.9zm7.8-.8l.2.4.3-.3zm-1.3.1v-.4l-.4.2zm-2.3 2.5l.1-.5h-.5zm-1.5-2.4v.8l.8-.5zm3.4.5l.6.7.3-1zm1 .4l.6.7.3-.9zm-2.3.8l.3.4.2-.6zm4.2.6l.5.6.4-.8zm-5.4-1.7l.2.3.3-.2zm1.7-1.4l-.3.4.5.1zm-.2 1.9h.4l.2-.2-.4-.6zm-.4.3l.3-.3-.3-.2zm-.3-1.8l.3-.2-.4-.1zm1.6-1.3l.3-.2-.4-.2z"/><path d="M238.6 58.7l.2.4.3-.5zm-2.4 2v.5l.4-.2zm2.1-3.4l.1-.6-.7.2zm5.4 3.2l-.3-.9-.7.7zm-3.9-2V58l-.5.2zm-4.1 1.4l.3.4.2-.5zm11.1-3l.1.5.3-.4zm-6.5-.8h.4l-.3-.4zm.9 0l-.1.4.4-.2zm-6.8 13L233 69l.5 1.5zm10.9-11.2h.5l-.1-.5zm5.1 3.4l.9.2-.2-1zm.7-2.9v.4l.4-.2zm-3.2 3.7l.5-.9h-1.2zm-1.7.3l.2-.6-.6.1zm.3-1l.3-.5h-.7zm-10.6 3.8l.4-1.6-1.4.3zm.4-1.7l.2-1.2-1.2.5zm13.2-3.4l.4-.5-.6-.2zm3.2-.6l.3-.4-.5-.1zm-21.2 7.1l-.1-.5-.4.3zm1-5.3h.4l-.2-.5zm13.5-.9l.4-.8-1-.1zm2.7-.3l-1-.7-.3 1.2zm.4 3.3l-.3-.9-.9.7zm5.1.4l-.5-1-.7 1.1zm-7.8-2.2l.8.3-.2-1zm-12.7.4l-.3.1.2.3zm-1.6 3.4l-.2-.2-.2.3zm-1.5 4.3l.2-.2-.3-.1zm-.7-4.1l-.3-.3-.1.4zm2.8-1.6l-.4-.4-.2.5zm0-1l.2-.3h-.3zm15.3-4.1l.2.5.4-.5zm-14.5 7.6l-.4-.4-.2.6zm1.1.4l-.6-.6-.3 1zm-3.8 5.4l-.3-.8-.7.8zm3.9-3.9l-.8-.5-.1 1.1zm15.6-5.3l.4-.2-.5-.3zm.4.5l.7.1-.7-.6z"/><path d="M246.7 60.1l.5.4.1-.8zm-8.1-3.3l.7.3.1-.9zm12.1 5.5l.1.9.9-.7zm-2.4.4l-.6-.3v.6zm.8.8l1.1.1-.1-.9zm-2.8-.6l1.2.2-.7-1.3zm-12.8 3.7l.4-.1-.3-.3zm1.9-1.9l-.9-.4.1 1.3zm-3.4 2.7h-.5l.2.5zm2.9.7l.4-.9-1.2.1zm-1.7-2.9l-.1-.8-.6.5zm-.4 3.5l.8-.2-.5-.8zm3.1-3.3l-1.4.3.9 1.3zm-2.3-1.5l.6-.4-.6-.4zm1.5-.7h-.7l.3.8zm-.9 2.2l-.5-.6-.4.8zm-3 2.7l-.2-.2-.1.5zm20.6-6.9l-.1-.4-.3.2zm1.3.7l-.1-.2-.3.2zm.6.8v-.6l-.6.4zm-22.3 7.2l-.3-.2-.1.4zm3.5-8l-.4.4.5.1zm-2.2 9.4l.7-.7-1-.4zm-1-1.7l.1-.4-.5.1zm.8.2l.2-.7-.8.2zm-.6-1.4l.7-.1-.4-.7zm16.4-7.8l.7.5.2-1zm.7 1.6l-.5-.5-.2.7zm.9 0l-.5-.6-.2.7zm.2 0l.4-.8-1-.2zm2.8 1.6l-.5-1.1-.4 1zm-3.3-3.3l.4.4.1-.6z"/><path d="M251.7 59.3l.3.2.2-.5zM231 71.1h.8l-.4-.7zm18.7-12.6l-.2-.4-.3.3zm4 3.4l.6.6.3-.8zm.3-.9l-.5.1.3.5zm.4 1.7l.6.6.3-1zm.3-1.3l.5.1-.2-.5zm-.2 2.3l.4-.2-.5-.3zm-2-1.6l.1-.6-.7.2zm-1.2.4l.5-.4-.5-.4zm.8.6v-.6l-.6.3zm1-.1v-.6l-.6.2zm1.4-2.5l.4.2.1-.4zm-2-.3l.3.3.2-.5zM231.8 67l-.2-.5-.4.4zm-2.1 3.7l.3-.4-.6-.2zm2.6-3.9l.3-.5-.7-.1zm0 4.8l-.5-.2v.6zm-.9.2l-.4-.3v.6zm4.2-9.9l.9.5-.2-.8zm16.4-1l.3.2.1-.3zm-21.4 9.5h.3l-.2-.4z"/></g><ellipse cx="224.6" cy="75.3" rx="5.3" ry="5.7" fill="#ea9d7d"/><linearGradient id="D" gradientUnits="userSpaceOnUse" x1="224.687" y1="78.67" x2="225.024" y2="73.342"><stop offset="0" stop-color="#cc7a5e" stop-opacity="0"/><stop offset=".924" stop-color="#aa5f4b"/></linearGradient><ellipse cx="224.9" cy="75.3" rx="2.4" ry="2.5" fill="url(#D)"/><path d="M228.1 79.1c-.9 1-2.2 1.5-3.5 1.5-2.7 0-4.9-2.4-4.9-5.3s2.2-5.3 4.9-5.3c1.9 0 3.6 1.2 4.4 2.9 0 0 .2.1.5-.1s.2-.6.2-.6c-1-1.8-2.9-3.1-5-3.1-3.2 0-5.8 2.7-5.8 6.1 0 3.3 2.6 6.1 5.8 6.1 1.4 0 2.5-.4 3.5-1.2l-.1-1z" fill="#b76349"/><g fill="#964c38"><path d="M227.1 75.9v-.4l-.4.1zm-1.7-3l-.4.1.3.4z"/><path d="M225.3 73l-.5.6.9.2zm-.9-.1l-.6.2.5.5zm2.6 1.5l-.3.2.4.2zm-.9-.5l-.3.3.4.1z"/><path d="M226.7 74.6l-.2.3.4.2zm-2.2-.8l-.3.2.5.2z"/><path d="M224 73.5l-.4.5.7.2zm1.7 1.8l.2.2.1-.3zm1.1-1.2l-.1.2h.3zm.2.9l-.1.3h.3zm-3.6-1.6l-.4.4.6.1zm.8 1.5h-.2l.1.3zm.6.9l-.1-.3-.2.2zm.8-2.5l.2-.2-.3-.2zm-1.2 0l-.3.3.5.1zm-.5.3l-.3-.2v.4z"/><path d="M223.9 73.6v-.3h-.3zm2.4.4l.2.3.2-.3zm-.4-.9l-.1.7.7-.2z"/><path d="M225.6 73.6l.3.2.1-.4zm-2.4.9l-.2.3h.3zm1.8-1.6l-.3-.1.1.4zm-.6 1.8l.2.3.2-.4zm.8 1.3l-.1.2.3.1zm-2.1-2.2l-.2.3.4.1z"/><path d="M224 76l-.3-.1.1.3zm-1.1-1.6l.3-.1-.2-.3z"/><path d="M222.6 75.5h.2l-.1-.3zm.2-1l.2-.1-.1-.2zm.7-.3v.3l.3-.2zm-1 .9h.4l-.2-.4zm.6.1v.2l.3-.2zm2-1.3l-.3.2.3.2zm1.4 1.5l.1.4.3-.2zm-2-2.2l.1.4.3-.3zm1 1.1l-.2-.2-.1.3z"/></g><g fill="#93282d"><path d="M221.3 93.9l-1 .4.7.8zm-11.9 6.5l.5.2v-.6zm-.9 0l.6.2-.1-.6zm-1.5-.7l.5.2v-.6zm12.1-2.1l-.5-.4-.2.7zm2.8-5.4l.2-1-1 .4z"/><path d="M221.6 93.1l.3-1-1.1.2zm-8.1 10.2l.6.1-.1-.6zm4.3-4.8h.6l-.2-.5zm-.1 2.1h.6l-.2-.6zm-4.9 1.1l-.4-.6-.4.6zm.2.7l.4-.4-.8-.2zm3.6-10.6l-.3-.3-.3.6zm2.5.2l-.4-.4-.2.7zm-3.6-.7l-.4-.2v.5zm-3.9 5l.1-.3h-.3zm1.8 3l.1-.3h-.3zm2.2-6.8l-.5-.2.1.6zm-6.1 6.4l.1-.3-.4.1zm6.5 4.4l.1-.3-.4.1zm-6.1-9.5l.1.3.3-.4zm3.6 9.1h.3l-.2-.4z"/><path d="M209.3 99.9l-.1-.7-.6.5zm.8 1.8l-.1-.7-.6.4zm-1.8-2l-.1-.7-.7.5zm7.2 4.1l-.3-1.1-1 .8zm1.3.2l-.3-1-.9.8zm1.2 0l-.3-1-.8.9zm1.1-3l-.5-1-.8 1zm1.1-7.5l-.6.1.4.7zm-6.4 8.5l.2-.5-.6-.1zm5.6-9.9l.3-.5h-.5z"/><path d="M220.5 92.8l.2-.5-.5.1zm-1.2-1.1h.5l-.1-.5zm.9 2.5l-.6.2.6.4zm-.3-1l-.3-.4-.3.5zm1.5.6l.2-.7-1 .1zm-3.7-1l.3-.3-.5-.1zm2.1-.1l.3-.4h-.5zm.7-1.8l-.5.3.6.3zm1-.4l-.8.5.9.5zm-.3 1l-.6.4.7.3zm-2.7-.6l.3-.4h-.6zm-.2 12.3l.1-.7-.8.3zm.9-3.1l-.1-.6-.6.3z"/><path d="M219.3 100.6l.2-.6h-.6zm-.3 1.1l.1-.6h-.5zm-.8-3.2v-.6l-.6.3zm-.2 1.3h-.5l.4.5zm-.5 1.1h-.5l.4.5zm3.5-5.8l-1.3.2.8 1.3zm-2.7-.4h-.4l.2.4zm-6.3 8.1l-.1-.9-.9.4zm-2.7-1.4v-.9l-.9.3zm4.1 1.9l-.1-.4-.4.2zm6-7.8h-.5l.3.5zm.6 1l-.8.4.9.5zm-1.6 3l-.1-.5-.5.3zm.1 2.1l-.1-.5-.5.3zm.8-2.1l-.1-.5-.5.3zm-.5-1.1l.3.4.2-.4z"/><path d="M219 98.8l.7.3-.1-.7zm-.7 1.7l.5-.3-.4-.3zm.4-6.8l-.1-.5-.5.3zm.3 3.6l.4-.2-.4-.4zm.6-3l-.6.1.3.5zm1.5-1.4l-.7.1.3.7zm-.7 4.1l-.6.1.3.5zm-.5-.4l-.3-.6-.5.6z"/><path d="M220.1 95.2l-.2-.4-.3.4zm.4 1.7l-.3-.9-.5.7zm.3-1.9l-.2-.4-.3.4zm-3.8 1.3l.3-.3-.5-.2zm-2.4 5.9l-.2-.7-.6.5zm1.7.6l-.3-.7-.5.6zm1 .6l-.3-.7-.5.6zm.1-5.9l-.4-.6-.5.7z"/><path d="M217.1 98.5l-.3-.7-.5.7zm-3.2 4.1l-.2-.6-.6.6zm.4-1l.4.3.1-.6zm3.4 2l.5.3.1-.6zm-.7-4.9l.5.3v-.7zm-2.1 2.3l.5.2v-.6zm2.1 1.9l.5.2v-.6zm-6.9-3.6l.3.3.2-.4zm10.2-4.9l.6-.4-.9-.4zm-.7 4.9l-.5.2.4.4zm-3.4 2.3l-.5.2.5.4zm1.6-6.4h-.5l.4.6zm2.4 2.4l-1.1.3.7 1zm-1.2 3.9l-1.1.3.7 1zm-3.7.9l-.2-.6-.4.5z"/><path d="M215.7 102l-.3-.6-.4.5zm2.2-5.4l-.4-.6-.4.6zm-.9 6l-.3-.5-.5.5zm-4.9.2l.7.3.1-.8zm2.1-.2l.4.3.1-.5zm-2.3-.5l.4.4.2-.5zm3.3-5.9l-.6.1.3.5zm-.6 3.1l-.6.2.3.4zm1.4.8l-.6.1.3.4zm-3.9-.8l-.1-.6-.4.4zm-2.7-1.1l-.3-.6-.3.5zm8.1 4.4l-.1-.5-.4.4zm.4-5.8l.6.1-.2-.6zm1 2l-.5-.3-.1.7z"/><path d="M218.8 95.8l-.1-.7-.7.5zm-.6.2l-.4.1.4.4zm0-1.8l-.2-.4-.4.3zm-1.4-1.1l-.6.1.4.4zm-.3 2.6l-.5.1.3.6zm-2.4 4.9l-.5.2.4.5zm-2.6.3l-.5.2.4.5zm5.1-1.4l.2-.4h-.5zm.7 1.1l-.5-.5-.2.8zm-.9.2l-.5-.5-.2.7zm.9 1l.5.2-.1-.7zm-.8-.1l.5.1-.1-.6zm1.1-2.2l-.5-.4-.2.6zm-2.7.4l-.6.2.5.4zm1.1-.9l-.4.3.5.4zm-5.2-.2l-.2-.6-.5.4zm-.1 1.7l-.2-.5-.5.4zm0 .8l-.2-.5-.5.4zm8.9-7.9l-.5.1.3.5zm-2.2 1.3l-.2-.4-.3.5zm.4 3l.4-.3-.5-.3zm5.7-11.5l-1 .4.7.8zm-2.1 3.5l-.5-.3-.2.7zm2.6-5.2l.3-1.1-1 .5z"/><path d="M224.3 83.4l.3-1-1.1.5z"/><path d="M224.5 82.6l.3-1-1 .4zm-.7 2.8l.2-.9-1.1.1zm-10 11.7l-.4-.3-.2.6zm6.9-11.6l-.4-.5-.2.7zm-1.1-2l-.3-.1v.4zm2.1-1.7l-.4-.2v.4zm.6 4.1l-.6.1.4.7zm-.8-1.6l.2-.5h-.5z"/><path d="M223.3 82.2l.3-.5-.5.1zm-.7 2.9l.2-.5-.5.1zm-.9-1.8h.5l-.1-.5zm.9-1.3l.5.1-.1-.5zm-.3 4.7l-.5.2.5.4zm-.4-1.3l-.2-.3-.3.5zm1.6.8l.3-.8-1 .1zm-4.2.1l.3-.3-.5-.1zm2.5-1.4l.3-.4h-.5zm.9-1.8l-.4.3.5.3zm1-1.1l-.5.3.6.4z"/><path d="M223.7 82.6l-.8.5.9.6zm-.4 1.2l-.6.4.7.3zm-2.6-.6l.3-.5h-.6zm2.5 4.2l-1.3.1.9 1.4zm-2.7-.6h-.4l.1.4zm1 .9h-.5l.3.5zm.6.9l-.8.4.8.6zm-.9 1.9l.3.4.2-.4z"/><path d="M221.3 90.9l.8.3-.1-.7zm-.2-1.4l.4-.2-.4-.4zm.5-2.9l-.6.1.4.6zm1.6-1.4l-.8.2.4.6zm-.7 3.9l-.6.2.3.5zm-.5-.3l-.3-.6-.5.6z"/><path d="M222.2 87.4l-.2-.4-.3.4zm.5 1.8l-.2-.9-.6.7zm.2-1.8l-.2-.5-.3.4zm-.5-.7l.6-.4-.9-.3zm.2 2.9l-1.2.3.8 1zM220 89h.6l-.2-.5zm1.3 1.9l-.5-.3v.7zm-1.8-1.3l-.1-.7-.7.6z"/><path d="M220.3 88.2l-.4.1.4.4zm0-.5l-.1-.4-.5.3zm-2.8.5l-.6.2.4.4zm4.2-2.6l-.6.1.4.6zm-2.4 2.4l-.3-.4-.2.5zm.8 1.9l.3-.4-.5-.2zm-8.6 11.9l.2.3.3-.5zm4.4-7l.4-.3-.5-.2zm-10.1 1l.4.4.2-.6zm-1.1 1.8l.5.4.2-.7zm.4-1.7l-.1-.7-.7.3zm-.4.7l.6-.2-.6-.5zm3.4-2.2l.1-.3-.3-.1zm7.3 3.2l.1.3.3-.3zm-1.8.6l.2-.3h-.3zm-7.8-3.8l.2-.2-.4-.1z"/><path d="M206.6 98.8l.2-.3h-.4zm8.1-3.5l.2.3.2-.4zm-9.8 1.9l.3.2V97zm-1.1-1.9l.3-.7-.8.1zm2.3 3.7l.3-1.1-1.2.2z"/><path d="M207 99.8l.3-1.1-1.2.2zm1.4.9l.1-1.1-1.2.3zm-2.8-4.1l.4-.4-.5-.3zm-1.9-.3l.2-.4h-.5zm1.1 1.1l.1-.4-.5.1zm8.9 3.4v-.7l-.7.3z"/><path d="M207.1 98.5v-.8l-.7.4zm6.5 2.7l-.2-.7-.6.4zm-2.7 1l-.2-.8-.6.5zm-5.4-5v-.6l-.7.2zm9-3.2l.2.5.4-.5zm-9.2 1.2l.2.4.3-.2zm1.3 2.5l.2-.6-.7.2z"/><path d="M206.9 97.5l-.1-.7-.6.3zm.8 1.1V98l-.6.3zm-3.9-2.1l.5.6.5-.6zm1.8.8l.1.5.4-.4zm-1.5-1.5l.2.6.4-.3zm4.7 2.9l-.6-.1.1.5zm2.6 1.9v-.7l-.5.3zm1.4 0l-.4-.5-.2.5zm-4.3-4l.1-.5-.7.1zM208 98v-.6l-.6.3zm-4.1-2.6l.1.4.5-.3zm10.9 4l.3.5.4-.5zm-12.6-5.3l.4.5.3-.6zm10 0l.2-.2-.3-.1zm-2.3 2.6l.3-.2-.4-.2zm-7.4-2.9l.2.2.1-.5z"/><path d="M201.3 91.5l.4-.3-.5-.3zm2 4.2l.5-.9-1.2-.2zm-1.7-2.9l.2-.4-.4-.1zm.7 1.3l.2-.4-.5-.1zm2.2 1.6l.2-.7-.8.1zm-1.5-1.8l.2-.7-.8.1zm8.2 5.1l.1.6.5-.4zm-7.8-6.5l.1.4.4-.3z"/><path d="M214.9 98.9l.2-.5-.7.1zm-10.3-4.2l.1-.7-.6.1zm-3-1.8l.4.7.5-.6zm1.5 1.1v.5l.5-.3zm9.4 5.2l.1.5.4-.2zm-2.2-3.6l.1-.6-.5.2zm2.1 2.9l.1-.5h-.6zM212 97l.1-.6-.7.2zm-10.2-5.2v.4l.5-.3zm6.5 5.7l.5-.2-.4-.3z"/></g><defs ><path id="F" d="M217.2 109.2h-.1a.55.55 0 0 1-.3-.5l4.7-14.4c.9-3 3.6-13.1 3.6-13.1a.55.55 0 0 1 .5-.3.55.55 0 0 1 .3.5l-3.6 13.1c-.8 2.7-4.7 14.3-4.7 14.3 0 .3-.2.4-.4.4z"/></defs></svg>