<svg xmlns="http://www.w3.org/2000/svg" viewBox="0 0 480 480" xmlns:v="https://vecta.io/nano"><path d="M226.1 79l-7.5 24.5-2.2 5.7s3.2 4.1 10.8 5.7c5.2 1.1 8.7 1.2 11 1 1.9-.2 4.2-.6 3-4.1-1.7-5.2-1.1-8.5-1.1-8.5l2.7-14.7-16.7-9.6z" fill="#ea9d7d"/><linearGradient id="A" gradientUnits="userSpaceOnUse" x1="229.204" y1="95.895" x2="236.076" y2="87.047"><stop offset="0" stop-color="#bc5a32" stop-opacity="0"/><stop offset=".99" stop-color="#bc5a32"/></linearGradient><path d="M224.9 92.2c2.5 3.8 6.9 7 9.4 8.2 3.5 1.7 6 2.1 6 2.1l2.2-12.2L226.1 79l-.9 1.7-.7 2.8c-.1.1-1.9 5.2.4 8.7z" fill="url(#A)"/><path d="M253.9 60.4c1.1 2.1.8 5.7.8 6.9-.1 3.8-.4 8.9-1.1 12.9-1.1 6-4.1 9-7.3 10s-8.6-1-12.5-3c-3.3-1.7-5.2-3.5-5.7-5.6-.5-2.2-1.5-5-1.5-5l1.8-4.8s3-11 7.9-14.5c5.8-4.1 11.9.4 11.9.4s3.7-1 5.7 2.7z" fill="#ea9d7d"/><path d="M217 109.4h-.1a.55.55 0 0 1-.3-.5l4.7-14.4c.9-3 3.6-13.1 3.6-13.1a.55.55 0 0 1 .5-.3.55.55 0 0 1 .3.5l-3.6 13.1c-.8 2.7-4.7 14.3-4.7 14.3 0 .3-.2.4-.4.4z" fill="#cf7653"/><path d="M243.4 90.8c-1.1 0-2-.2-4-.7-3.2-.8-7.7-3.3-10-5.5-2.2-2.2-2-4.3-2-4.4 0-.2 0-.5.2-.5s.3.2.4.4c.1.4.1 2.1 1.9 3.9 2.1 2.1 6.6 4.5 9.6 5.3 3.1.7 3.7.9 6 .7 2.2-.2 3.3-1 3.3-1 .4-.3.5-.3.3 0-.2.2-1.3 1.3-3.5 1.7-.9.1-1.5.1-2.2.1z" fill="#b76349"/><g fill="#a84d3b"><path d="M228.9 84.8l.2.5.4-.4z"/><path d="M228.9 84.2l-.3.9 1.1-.2zm5.3 3.8v1.1l1.1-.5zm-2.7-1.7l-.1 1.1 1.1-.4zm-1.5-1.1l-.2 1.1 1.2-.3z"/><path d="M228.2 83.2l-.4 1h1.2zm7.5 7.2l-.5-.6-.4.7zm-1.4-1.1l-.6-.8-.3.9zm4.1 2.1l-.7-.7-.2.8zm3 1.1l-.7-.8-.3.9zm-5.3-3.6l-.6-.3v.9zm1.4 3.1l-.5-.5-.3.7zm-3.9-4l-.6-.4-.1.9zm5.3 2.1l-1-.4.1 1.2zm1.9.3l-.8-.1.2.9zm1.3 1.6h-.8l.3.7zm-2.8-.2l-.3-.7-.5.7zm2.4 2.3l.1-.7-.8.2zm-.2 1.3l.1-.7-.8.2zm-1.7 0l-.4.3.5.3zm.3-3.9l-.4.4.6.3zm2.3-.7l-.6-.1.2.6zm-1.9 5.8l-.4.3.6.3zm-9.9-10.4l-.4.3.5.3zm-3.4-4.6l-.4.3.5.3zm10.1 9.4l-.3-.3-.1.5zm-2.8-.8l.1-.4h-.5zm1.4.9l.2-.4h-.5zm2.1 2l.2.5.5-.4zm2.9-2l-.3.3.4.2z"/><path d="M241.1 90.6l-.5.4.6.3zm-1.2.4l-.4.3.4.2zm.4 7.1l-.4.2.4.3zm-1.1-1.1l.2.4.3-.4zm-.1-2.4l.2.4.3-.4zm1.9.9l-.3-.2-.1.4zm-13.9-4.7l.2.2.2-.3zm1.9-1.2l-.2.2h.3zm2 3.5l-.3-.1.1.4zm-1-1.7l-.2.3h.4zm6.9 3.2l-.1.6.6-.3zm-.9-4.5v.5l.5-.2zm0-1v.5l.6-.3zm-7.7-3.1v.6l.5-.3zm12 7.3l-.5.1.4.4zm-1.5 4.2l-.2-.4-.4.4zm.3-5.2l.3.4.3-.5zm1.6.6l.3.5.3-.6zm1-1.9l-.3.4.5.1zm-.6 3.2l-.4-.3v.6zm-11.3-8.9l-.6.4.7.4zm-2 .8l-.3-.3-.1.5zm-2-1l-.2-.2-.1.4zm-.5 3.1l.1-.4h-.4zm3.8-2.2l.2.4.4-.4zm-1.2-1l.3.6.5-.5zm-.2-2.7l-.4.6.8.1zm3 4.8l-.3.2.4.3zm.8-.4l-.3.2.4.2zm.8.4l-.3.2.3.3zm-1.5 2.7l-.2-.2-.1.4zm-6-3.4l.2.3.3-.4zm2.3-2.3l-.3.2.4.2zm-.1 3.7l-.3-.2-.1.4zm.3-4.1l.2.3.3-.4zm1 .5l.2.4.3-.4zm-2.3-1l-.3.3.4.1zm.3-1l-.3-.2-.1.4zm5.3 5.5v.4l.5-.2zm1.9.8l-.4.1.3.3zm-.8-.8l-.4.1.3.3zm6.7 3l-.4.1.3.3zm-1.5-.6l-.3.1.2.3zm-4.7.7l-.1-.3-.3.3zm5.6 5l-.1-.3-.3.3zm-6.1-6l-.2-.3-.3.3zm2.6-.6v.5l.4-.2zm1.6.4v.4l.4-.2zm1.8.9l-.4.1.3.3zm-1.4 2l-.2-.3-.2.3zm-4.3-.1v.4l.4-.2zm1.9-1l-.3.1.2.3zm3.4.8l-.1-.3-.3.3z"/></g><path d="M238 67a.78.78 0 0 1-.2-1c.1-.1 1.7-2.5 5.3-2.2.4 0 .7.4.7.8s-.4.7-.8.7c-2.7-.2-3.8 1.5-3.9 1.6-.4.4-1 .2-1.1.1zm15-1.7c-.1 0-.3 0-.4-.1-.7-.5-1.5-.4-1.6-.4-.4.1-.8-.2-.9-.6s.2-.8.6-.9c.1 0 1.5-.4 2.8.7.3.2.3.7.1 1-.1.2-.4.3-.6.3z" fill="#af361a"/><path d="M243.8 84.6h0c-3.8-.2-5.4-2.9-5.8-4.4-.1-.4.1-.8.5-.9s.8.1.9.5c0 .1.8 3.1 4.4 3.3.4 0 .7.4.7.7 0 .5-.3.8-.7.8z" fill="#cf7653"/><path d="M247.3 79.1h-.2c-.4 0-.6-.4-.6-.7 0-.4.4-.6.7-.6.2 0 .7 0 .9-.6s-.3-1.5-.5-1.8-.2-.7.1-.9.7-.2.9.1c.1.2 1.2 1.6.8 3-.4 1.2-1.5 1.5-2.1 1.5z" fill="#b4603f"/><g fill="#4f2b23"><circle cx="241.8" cy="72.3" r="1.4"/><path d="M241.5 71.9c-.2 0-.9.2-1 0-.1-.3.4-.8.8-1 1-.5 1.8-.4 2.1-.4a.47.47 0 1 1 0 1c-.3 0-.9 0-1.7.3 0 .1-.1.1-.2.1z"/><circle cx="252.2" cy="71.5" r="1.4"/><path d="M251.9 71.1c-.2 0-.9.2-1 0-.1-.3.4-.8.8-1 1-.5 1.8-.4 2.1-.4a.47.47 0 1 1 0 1c-.3 0-.9 0-1.7.3 0 .1-.1.1-.2.1z"/></g><g fill="#f4b9a6"><path d="M244.7 76.6l.6-.3-.7-.5zm-7.6-.9l-.2-.6-.5.5zm9.7.3h.9l-.5-.9zm-1.6-3l.6.5.2-.8zm.4-.9l.9-.5-.8-.6zm1.6 8l.8-.4-.7-.6zm2.3-.9l.4-.9-.9.2zm-5-3.4l-.7.1.4.8z"/><path d="M245.1 74.9l-.8.1.5.7zm-.5 3.8l.2.7.7-.5zm.2 1.4l.6.4.2-.8zm3.4 2.4l-.7.1.5.7zm-1.5-15.2l-.3.5h.8zm.3 4.4l-.6-.2.2.6zm.8-2.2l-.6-.1.2.7zm-4.2 2.8l-.2.7.8-.2zm.8-3l-.6.3.6.5zm-2.9.7l-.4.1.2.4zm5.5 12.4l-.6.1.4.6zm-.7-.4l-.6.1.4.6zm-4.9-4.3h-.6l.3.6zm1.4 1.2l-.6.1.3.5zm-1.7-3.3l-.2.6.8-.2zm3.2-.4l-.1-.5-.6.4zm6 5.7l.3-.4h-.6zm-2.2-1.8l.3.4.2-.7zm4.1-3.9v.5l.4-.2zm-2 1.9l.4.1v-.5z"/><path d="M252.3 75.9l.2-.3-.5-.1zm-12.4-4.5l-.3.4h.5zm5.9-2.3l.8-.1-.5-.7zm-.1 8.8l.9-.2-.6-.7zm-.6-5.8l-.6-.1.1.6zm-4.9 3.9v-.6l-.7.2zm4-5.7v.7l.8-.3zm-.9 1.4v.7l.9-.4zm.8-.6l-.1.7.8-.3zm5.9.3l.6.3V71zm-5 2.8l-.3-.5-.4.5zm2.3 7.5l-.5.2.4.4zm-2.4-4l-.2.4h.7zm.4 3.1l-.2-.5-.3.5zm.9.5l.4-.3-.6-.3zm.3-1.1l.5-.3-.6-.4zm-.2-.7l.5-.3-.6-.4zm0-2.6l.5-.3-.6-.4zm-1.2 0l.4.4.2-.5zm4.9 4.6l-.6.2.4.4zm-2.4-5.1l-.2.4.6.1zm.9 5.4l-.3-.3-.3.4zm-3.2 1.6l.1.5.6-.3zm-1.2-3l-.6.2.4.4zm-5-6.4l-.3-.4-.3.5zm5.2 7.7l.4.2.1-.5zm-1.5-1.1l.5.2v-.5zm-1.1 3.9l-.3.4.6-.1zm-.8-.7l-.5-.1.1.5zm-1-.2h-.5l.1.5zm5.7-7.8l1-.1-.8-1zm-.6-2.4l.2.5.4-.5z"/><path d="M245 74.3l.5.8.7-.8zm2.7-1.1l-.8.6 1.1.4zm-6.7 1l.1-.4-.6.2zm6-.1l-.3.3.5.3zm-1.7-3.2l.6-.1-.4-.5zm3.8 1.6l.7-.1-.5-.5zm-4.2-.2l.6-.2-.4-.5zm4.6-2.6l.6-.1-.4-.5zm-2-1.5l-.5.2.6.3zm-5 1.3l.1-.5-.6.3zm0 7.8l-.1.7.8-.2zm-.9-.4h-.6l.3.7zm1.1 2.8l-.2.6.7-.2zm1.1-2.5v.7l.7-.3zm-.8 1.2v.8l.9-.3zm-.6-2l.1-.5-.6.3zm8.2-3.5l.6-.1-.4-.4zm-2.1-2.2l.2.5.4-.4zm3.9 7.4l.5-.1-.4-.4zm-8.7-8.6v-.4l-.5.2zm3.6 1.5l-.1.6.7-.2zm-.7-1.2l-.1.6.7-.2zm1.5 4.4l.9.7.4-1.1zm1.2 1.7l1-.3-.6-.9zm-3.4.3l.4.1-.1-.4zm0-2.5l-.2.4h.6zm1.2-1.2h-.6l.4.5zm1.9.4h-.6l.3.7z"/><path d="M247.2 73.2l1-.5-1-.7zm1.7-4.5l.4-.5-.8-.1zm-3 10l.4-.6-.8-.1zm.3-4.4l.9-.5-.8-.6zm1.3-4.1l.3.3.2-.5zm1.2 1.1l-.7.8 1.3.2zm1-1.3l-.3.5.6.1zm.3 3.9l.3.4.3-.5zm-1.3-4.5l-.3.4.6.1zm-8.2 4.5l-.7.2.5.5zm2.8-.9l-.4.5.7.1zm-.5.9l-.1-.5-.5.4zm-.7.5v-.5l-.5.3z"/></g><g fill="#fff"><path d="M247.3 72.5l-.7-.7s.6-.8 1.6-.8 1.7.5 1.7.6l-.6.8s-.4-.4-1-.4c-.5 0-1 .5-1 .5z"/><path d="M253.4 77.3c-1.8-.1-3.2-2.6-3.1-5.4s1.7-5.2 3.5-5.2c.3 0 .7.1 1 .2v-1.1c-.3-.1-.6-.2-.9-.2-2.4-.1-4.4 2.8-4.5 6.2-.1 3.5 1.7 6.5 4.1 6.5h.4l.1-1h-.6z"/></g><path d="M258 72.2c.1-3-1.2-5.7-3.2-6.4v1.1c1.3.8 2.2 2.8 2.1 5.3-.1 2.6-1.4 4.8-3 5.2l-.1 1c2.3-.1 4.1-2.8 4.2-6.2z" fill="#ccc"/><linearGradient id="B" gradientUnits="userSpaceOnUse" x1="240.782" y1="62.901" x2="235.065" y2="54.978"><stop offset="0" stop-color="#bc5a32" stop-opacity="0"/><stop offset=".99" stop-color="#bc5a32"/></linearGradient><path d="M232.9 70.6s4-6.6 7.4-8.6c4-2.3 10.6-3.7 10.6-3.7l-17.5-5.5-.5 17.8z" fill="url(#B)"/><path d="M223.3 86.7s-10.1-4.2-11.2-14.6 5.2-16.6 5.2-16.6l-.4-3.6s-4.3-1.2-5.6-7c-1.2-5 2.8-9.4 7.4-11.1 5.6-2.1 12.1.8 13.8 5.8 1.5 4.2-.7 7.1-.7 7.1l1.8 2.2s6.5-3.8 13.4.1c6.8 3.9 10.8 11.1 11.7 12 .6.5-4.2 1.3-9.4.5s-10.4-2.7-11.7-3.4c-1.1-.8-1.2-.3-1.1 1.4.2 2.6.3 10.3-4.6 12.2-2.1.8-3.4.2-3.4.2l-5.2 14.8z" fill="#c94112"/><linearGradient id="C" gradientUnits="userSpaceOnUse" x1="210.032" y1="63.467" x2="226.021" y2="49.428"><stop offset=".007" stop-color="#ff7a00"/><stop offset=".983" stop-color="#ffb600"/></linearGradient><path d="M217.2 55.7l16.8-7-1.3-3.1-17.1 6.7z" fill="url(#C)"/><ellipse cx="224.4" cy="75.5" rx="5.3" ry="5.7" fill="#ea9d7d"/><linearGradient id="D" gradientUnits="userSpaceOnUse" x1="224.489" y1="78.833" x2="224.826" y2="73.505"><stop offset="0" stop-color="#cc7a5e" stop-opacity="0"/><stop offset=".924" stop-color="#aa5f4b"/></linearGradient><ellipse cx="224.7" cy="75.5" rx="2.4" ry="2.5" fill="url(#D)"/><path d="M227.9 79.1c-.9 1-2.2 1.6-3.5 1.6-2.7 0-4.9-2.4-4.9-5.3s2.2-5.3 4.9-5.3c1.9 0 3.6 1.2 4.4 2.9 0 0 .2.1.5-.1s.2-.6.2-.6c-1-1.8-2.9-3.1-5-3.1-3.2 0-5.8 2.7-5.8 6.1 0 3.3 2.6 6.1 5.8 6.1 1.4 0 2.5-.4 3.5-1.2l-.1-1.1z" fill="#b76349"/><g fill="#964c38"><path d="M226.9 76.1v-.4l-.4.1zm-1.7-3l-.4.1.3.4z"/><path d="M225.1 73.2l-.5.6.9.2zm-.9-.1l-.6.2.5.5zm2.6 1.5l-.3.2.4.2zm-.9-.5l-.3.3.4.1z"/><path d="M226.5 74.8l-.2.3.4.2zm-2.2-.8l-.3.2.5.2z"/><path d="M223.8 73.7l-.4.5.7.2zm1.7 1.8l.2.2.1-.3zm1.1-1.2l-.1.2h.3zm.2.9l-.1.3h.3zm-3.6-1.6l-.4.4.6.1zm.8 1.5h-.2l.1.3zm.6.9l-.1-.3-.2.2zm.8-2.5l.2-.2-.3-.2zm-1.2 0l-.3.3.5.1zm-.5.3l-.3-.2v.4z"/><path d="M223.7 73.8v-.3h-.3zm2.4.4l.2.3.2-.3zm-.4-.9l-.1.7.7-.2z"/><path d="M225.4 73.8l.3.2.1-.4zm-2.4.9l-.2.3h.3zm1.8-1.6l-.3-.1.1.4zm-.6 1.8l.2.3.2-.4zm.8 1.3l-.1.2.3.1zm-2.1-2.2l-.2.3.4.1z"/><path d="M223.8 76.2l-.3-.1.1.3zm-1.1-1.6l.3-.1-.2-.3z"/><path d="M222.4 75.7h.2l-.1-.3zm.2-1l.2-.1-.1-.2zm.7-.3v.3l.3-.2zm-1 .9h.4l-.2-.4zm.6.1v.2l.3-.2zm2-1.3l-.3.2.3.2zm1.4 1.5l.1.4.3-.2zm-2-2.2l.1.4.3-.3zm1 1.1l-.2-.2-.1.3z"/></g><g fill="#fff"><path d="M242.4 80.4c-2.8 0-5-3-5-6.6s2.3-6.6 5-6.6 5 3 5 6.6-2.3 6.6-5 6.6zm0-12.2c-2.2 0-4 2.5-4 5.6s1.8 5.6 4 5.6 4-2.5 4-5.6-1.8-5.6-4-5.6z"/><path d="M229.2 72l-1.2-1.3 10.2 1.7-.1 1z"/></g><g fill="#a84d3b"><path d="M243.8 60.3l-.1.5.4-.1zm1.5.4l-.5-.1.1.5zm-.6 0l-.4-.3-.1.5zm-8.2-2.6v1l1-.6zm5.1 1.6l-.2.5.6-.2zm-1.8 0l.2.5.4-.4zm-1.3 1.1v.3l.3-.2zm-1.9.6v.6l.6-.2z"/><path d="M239.1 58.8l-.4-.2-.1.4zm3.6 1.2l.1.5.4-.4zm-1.7-.2l.1.5.4-.4zm4.5 1v.4l.5-.3zm-3 0l.2.4.3-.3zm-2.4-.4l.1.4.4-.3zm-.8-.7l.1.3.4-.3zm2.7.4l.3.3.1-.3zm1.2.3l.1.2.2-.3zm2.9.7l.1.2.2-.2zm-9.3 2.3l-.2.1.2.2zm1-3.3l.2.4.4-.5zm-1-2.5l-.1.5.6-.2z"/><path d="M237.2 57.8l-.1.7.8-.3zm-.3 4.7h-.4l.2.4zm.1-.2l-.1-.3-.3.3zm1.2.4l-.1-.2-.2.2zm1.7-.8l-.1-.3-.2.2zm.6-1.5l.5.1-.2-.5zm.2-.5l.8-.3-.7-.2zm-1.9-.2l.1.4.3-.3zm.5.9h.4l-.3-.4zm-2.5 3.3v.4l.4-.2zm.4-.9v.2l.2-.1zm1.5-3l-.3.2.4.2z"/><path d="M236.6 63l-.1.3.5-.2zm-.1 1.1l.3-.1-.3-.3zm-.1 1l.3-.2-.3-.1zm0-.5l.3-.1-.2-.3zm-.3 1.7l.4-.2-.3-.3zm.2-.7l.4-.1-.4-.4zm2.3-7l-.7-.4-.2.8zm-1.2 2.4l.3.3.2-.5z"/><path d="M239.8 59.1l.3.9.6-.7zm-2.9 2.1l.3.3.2-.6zm4.6-.7l.4.2v-.5zm-5-1.4v.6l.6-.4zm1.2 2.5h-.4l.3.4zm-.2-1.2l-.4.2.4.3zm1-1.2l.1.4.3-.3zm-1.2-.6l.1.4.3-.3zm0 1.6l-.7-.2v.8zm-.3-.6l-.3.2.3.3zm1.4-.2l-.4.1.4.3zm0-.6l-.4.1.3.3z"/><path d="M236.8 57.7l-.4.2.3.3zm.8 1.9l-.4.1.4.3zm-.5-.7l-.4.1.4.3zm-.5 1.9l-.1.3.4-.1zm3.2-1.8l-.7-.2.2.8z"/></g><g fill="#ff593e"><path d="M243.1 47.6l.2 1.1 1-.7zm6.8 9.2l-.5-.2v.5zm6.4 1.4h-.4l.2.5zm-2.5-.8l.1-.5-.6.1zm-8-8.3l-.5.6.8.3zm5.8 6.3l-.3.5.7.1zm1.6-1l-.2 1 1.1-.2z"/><path d="M252.7 53.7l-.3 1 1.1-.1zm-11.1-6.3l-.8-.1.3 1zm-.9-.1l-.9.1.4.9zm-1.6 1.7l-1.1.3.8 1.1zm-.6-1.6l-.9.1.4.9zm11.5 3.8l-.7-.5-.2 1zm-3.7 0l.3-1-1 .2zm1.6.9l.4-.8h-1.1zm1.8 1.2l.3 1 .8-1zm.7-1.8l-.2 1.4 1.4-.3zm-1.2 2.5l-.4.3.4.2zm-7.8-2.9l-.4.3.4.3zm-1.8-1.1l-.4.3.5.2zm.6-.7l-.4.3.4.2zm-2.1.7l-.4.3.5.3zm-.4-.6l-.4.3.6.2z"/><path d="M237.1 49.3l-.4.3.5.2zm15.9 8.4l-.3.5h.5zm1.5-.3l-.3.4.5.1zm-2.8-.2l.2.4.3-.5zm-.5-1.9l.3.4.2-.5zm1.7-.3l-.5-.2.1.5zm-14.1-3.3l.2.3.3-.5zm1.9-1.5l-.2.3h.5zM242 54l-.2-.2v.5zm-.1-1.8l-.1.3h.4zm2.4 4.1h-.3l.1.3zm1.4.1v-.3l-.3.1zm3.1-.8l.1.6.5-.3zm-.3-5.5l-.1 1.1 1-.5zm-7.3-1.6l-.1.7.7-.3zm10.9 4.6l-.5-.5-.3.8z"/><path d="M252.7 53.7l-.5-.5-.3.8zm2.3 2.6l-.5-.6-.3 1zm-3.5 1.7l-.4-.4-.1.6zm-.6-5l.3.5.4-.6zm-.1 1.3l.4.5.3-.6zm.4-.7l.3.5.3-.7zm-4.9.1l-.4.5.5.1zm6.2.3h-.5l.2.6zm-14.8-5.3l-.4.3.6.3zm0-.7l-.4.3.5.3zm-1.2.6l.5.5.3-.9zm-.4-.2l-.5.4.7.4z"/><path d="M241.8 48.1l-.3-.3-.1.4zm-5.4.5l.1-.8-1 .3z"/><path d="M237.3 48.5l.1-.9-.9.2zm2.7-.7l.5.9.7-.8zm.3 1l.2.7.7-.6zm1.9.5l.1.4.4-.4z"/><path d="M242.8 47.9l-1.3.6 1.1 1zm-3.1-.6h-.8l.4 1z"/><path d="M242.9 47.6l-1.1-.1.4.7zm-.7 2.7l-.3-.2v.4zm-3-1l.2.5.4-.5zm0-1l.6.7.2-1.2zm-3.3 1.9l-.3.2.4.1zm2.9-1.7l-.4-.3-.1.8z"/><path d="M239.1 48.1l-.3-.6-.6.8zm-2.2 2.6l.3.4.2-.4zm1.3 1.7l-.4.4.4.1zm-3.3-3.7l-.6.7.9.3z"/><path d="M235.4 48.1l-.9.3.8.7zm1.3 4.1l-.4-.2v.5zm-1.1-2.3h.4l-.2-.5zm2.6 1.1h.3l-.1-.4zm-4.7-2l.6.6.2-1zm-1 .4l.7.6.2-1zm-1.1.5l.8.6v-1zm-1.2.5l.9.7.2-1.2zm7.5 1.1v.4l.3-.2zm1.1-.4l.4.1v-.5zm-3.2-.2v.3l.4-.2zm5.2.9l-.4.1.2.4zm-1.4 1.4l-.5.1.3.4zm4.1-4.4l-.2.5.6-.2zm2.8 0l-.9-.4-.1 1.1zm-1-.4l-1-.4v1.4z"/><path d="M244.7 51.4l-.4-.8-.6.7zm6.5 5.3l-.2-.2-.2.4zm-7-6.3l-.2-.3-.3.3zm3.1-1l.1 1 .9-.4zm-2.2 3v.5l.5-.3zm1.1-3.6l.1 1 .9-.5zm1.1 4.2l.1.5.4-.3zm.5 1.5v.5l.5-.3zm2.3-2.9l-.4.1.3.3zm-1.4.1l-.2-.3-.2.4zm.8 1.5l-.3-.4-.2.5zm3.5 3.3l.8-.4-.8-.6zm-.4.9l-.3.4h.6zm3-.3l-.4.6h.8zm-2.8 1.9l.3.5.3-.5zm.8-3.2l.5.3.1-.6zm.6 1.3l.6.2v-.7zm1.1 2.1l-.4-.3-.1.5zm-2.5-2.5l-.3-.3-.1.5zm-8.2-3.2v.5l.4-.3zm2-1.4l-.4.2.3.3zm-.6 3.7l-.2-.4-.2.3zm-12.8-2.1l-.3-.2.1.4zm2.5 2l-.3-.1.2.4zm-3.6 1.3h-.3l.2.3zm5-1.5v-.3l-.4.2zm-7.9 2.5v-.3l-.3.1zm4.9-2.9l-.1-.4-.3.2zm1.5-2.3l.2.6.3-.4zm1.8 2.1l-.3-.3-.2.3zm12.8-2.2l-.2-.4-.2.5zm-3.2-1.4l-.7-.3v1z"/><path d="M247.6 50.8l-.5-.1.1.5zm-4.7.7l.1-.5-.4.1zm.2-1.9l-.9.7 1 .6zm-.4-.3l-.2.2.3.2zm.9 2.2l-.2.3h.4zm1.1-1.7l-.3-.4-.2.5zm.5-.8l-.4-.5-.3.7zm-.9-.4l-.4-.5-.3.7zm3 1.3l-.4-.5-.3.6zm1.1.6l-.4-.5-.3.7zm-3 .3l.1-.4-.5.2zm-.8 1.3l.1-.4-.5.1z"/><path d="M245 50.7l.2.6.5-.5zm3.1 2.1l.4.4.2-.7zm-7.1-3.2l.4.3.2-.6zm2.6.7l.1.4.4-.3zm3.6 1.1l-.4.2.4.2zm-1.3.5l-.3-.3-.1.5zm1 1.3l-.2-.4-.1.5zm-3.3-.5l-.4.1.4.3zm3.9-.3l-.2-.2-.1.4zm3.6 3.9l-.2.5h.6zm-1.4-1.5l.1.6.5-.3zm1.8 0l.1.4.4-.4zm-.2-.1h-.4l.3.3zm-.7-.3l-.2-.3-.3.4zm.8.8l-.3-.2v.5zm.1-1.1l-.3-.2v.5zm-8.5-1.8l-.1-.4-.4.4zm-23.1 2.4l.8.7.4-1.2zm.2 5.9l-.4-.2.1.6zm-.7.7l-.2-.5-.4.4zm3.3-6.3v.9l1.1-.5zm9.1-4.4l.4.4.3-.7zm3.4-.7v.6l.5-.3zM216.9 56l-.9 1.4 1.4.3zm-1.3 1.8l-.3.7.7-.2zm2.3 1l-.1.5h.6zm-1.3-.4l-.2.5.7-.1zm10-6.4l-.7.3.9.8zm-2.1 3.6l-.2-.4-.4.4zm2.2-1l-.4-.6-.5.8zm2.6-1.8l.5-.1-.3-.5zm-.2 1.6v.5l.5-.3z"/><path d="M219.2 58.3l-.3.3.4.2zm-2.3-1.1v.5h.5zm-.1 2.7l-.1.3h.5zm23.8-7.4v.5l.5-.2zm-7.2 0l-.1.4.4-.1zm-1.4.5l-.4-.1.2.5zm.6-1.1l.1.3.3-.3zm2.3.7l-.4.2.5.3zm.7-1.3l.2.5.3-.5zm-2.1-.4l.5-.2-.5-.3zm-2.5.5l.5-.2-.5-.3zm1.5-1.8l-.2.5h.5zM217.6 59l.3.1v-.4zm.8-1.5l-.1.3h.4zm2.9 3.3h-.3l.1.4zm-1.4-1.5l-.1.3h.4zm5.9 3.2l-.2.2.2.2zm-8.4-.6l-.2-.2-.2.4zm13.3-6.4l.5.2-.1-.7zm-6-2.7l.9.9.2-1.4zm-5.9 3.2l.1.5.5-.4zm11.4-5.4l.2.4.4-.3zm3.9.7l-.4.3.6.3zm.6-1.6l-.6.4.8.5zm-1.6.3l-.7.5 1 .5zm-3.6 2.2l-.2-1.3-1.2.5z"/><path d="M231 51l.5-.4h-.7zm-.9-.3l-.8.2.9.8zm-3.6 8.1v.7l.7-.3zm5.1-8.9l-.1.4h.5zM217 59.1l-.1.4.5-.1zm2-3.2l-.3-.2v.5zm-3.4 4.1h-.4l.2.5zm.7-.3v-.4l-.4.3zm.9-3.6l.4.3v-.5zm2.7.1l.4.4.2-.5zm-.3-1.4l-.9.4.9.8zm-1.8 2.1l-.2.7.7-.1z"/><path d="M220.3 57l-.8-.4v1zm-2.7-1.1l.7.4.1-.8zm-2.8 3.1l-.4.9h1.1zm3.1-.9h-.7l.4.7zm-2.4 1.1l.4.2v-.5zm1.9.7l-.1.5.5-.2zm-1.3.6l-.5.1.2.4zm10.1-5.6l-.4.5.7.1z"/><path d="M224.8 53.8l-.5.3.6.4zm1.4-.7l-.4.4.5.1zm-1.9 2.2l-.3.3.4.3zm1.5-.3l.3.3.1-.5zm-7.5 1.5v.8l.8-.3zm2.7-.3v.4l.4-.1zm7.2-4.2l.4.1.1-.5zm-1 1l.3.1.2-.3z"/><path d="M221.7 55.5l.1.3.3-.2zm3.2-.7l-.4.4.6.2zm-.8 0l.2-.7-.8.1zm1.8-.6h-.4v.4zm-1.2 1.6l-.2.2.4.1zm-1.6-.9l-.6-.6-.4 1zm-7.3 6.2l.4-.2-.3-.3zm-2 1.9l.3-.3-.3-.2zm.7-1.4l.3-.1-.4-.3zm-.8 2l.3.3.1-.3zm.8-.9l.4-.2-.3-.3zm-.4-2.3l.5.6.4-.7zm-.4.7l-.4.9 1.2-.1zm.1 2l-.2.2.4.1zm7-7.6l.1.4.4-.3zm1.2-1.7l-.9.5.9.7z"/><path d="M221.7 55l-.3.1.3.4zm2 2.5l-.6-.4-.2.8zm8.7-5.9l-.3.2.4.2zm-.9.4l.4-.2-.4-.4zm-3.5 3.3l.8.6.2-1.2zm2.2-2.2l.6.3v-.8zm-3.2.7l1.1.1-.5-1.2zm-3.6 2.8l.6.1-.2-.7zm6.4-4.3h.6l-.3-.7zm4.6-.8l1.1-.1-.7-1.1zm-2.5.1l1.2-.2-.7-1.1zm-3.8 1.3l1 .5v-1.3zm3.8 1.5l-.5.1.4.4zm-.8-3l-.9.1.7.8zm3-2l-.9.2.7.7zm-4.1 4.5l-.4-.1.2.4zm-7.8 2.7l-.2-.3-.2.5zm1.5-3.4l1.1.9-.2-1.3zm2.1 3.3l.8.5.1-1zm-3.6-2.7l1.2.9-.1-1.4zm5.2 1.8l.3.2.1-.5zm-9.8 3.2l.1.5.4-.3zm9.1-6.9l.8.7-.1-1zm.2 1.8l-.3-.1.1.4z"/><path d="M228.7 53.8h-.4l.2.4zm-4.9 5.5l.3.5.3-.5zm.5-1.3l-.2.3.4.1zm-1.6-1.2l-.1-.5-.4.3z"/><path d="M221.8 59.1l-.3.4h.5zm.6-2.7h-.6l.3.6z"/><path d="M222.1 56.2l.1.3.3-.2zm-.8.3l-.7.1.5.7zm-.9 1.3l.1.5.4-.3zm2.6.3l.3.4.3-.4zm-3 .8l.2.5.4-.3zm1.9-1.9l-.4.2.4.4zm5.4 3.6l-.3-.2-.1.4zm1.2-8.3l-.5.1.3.4zm-6.8 6.7l-.2-.3-.2.4zm3.1-25.7l.1 1.1 1-.7zm4.2 8.9l-.3-.4-.3.5zm-.7-.7l-.3-.3-.2.5zm3.1 2.4l.4-.4-.5-.2zm-3.9-9.1l-.6.6.9.3zm2.3 5.7l-.5.4.5.3zm3 .7l-.8.7 1 .5z"/><path d="M232.6 40.3l-.8.6 1 .5zm-9.3-7.1l-.8-.1.3 1zm-.9-.1h-1l.4 1zm-1.4 1.8l-1.1.6.9.9zm-1-1.5l-.9.3.6.8zm11.1 3.7l-.6-.5-.4.9zm-3.1-.2l.2-1-.9.1zm1.3.9l.3-.8h-1zm.8.6l-.2 1.1 1.2-.5zm1.2-1l-.7 1.2 1.5.2zm-2 1.8l-.5.2.4.4zm-6.3-2.4l-.4.3.5.3zm-1.4-1l-.3.4.5.2zm.3-.8l-.4.3.4.2zm-1.7 1.1l-.4.4.5.2zm-.5-.5l-.4.3.6.2z"/><path d="M219 35.6l-.3.3.5.2zm12 8.3l-.4.3.4.3zm1 .4l-.5.2.4.4zm-1.9-1.4v.4l.5-.3zm.4-1.9l.1.5.4-.4zm1.5.5l-.3-.5-.2.5zm-10.9-3.8l.2.2.2-.5zm1.3-1.8l-.2.2.4.1zm1.3 3.8l-.3-.2.1.5zm-.2-1.8v.3h.4zM226 42l-.3-.1.1.4zm1.4.1v-.4l-.4.2zm1-1.4l-.1.5.5-.1zm1.4-4.9l-.3 1 1.1-.2zm-7-1.6v.6l.6-.2zm9.6 5.2l-.4-.6-.5.7z"/><path d="M232.6 40.2l-.2-.6-.7.5zm.2 3.5l.1-.7-1 .3zm-3.3-.2l-.1-.5-.4.4zm1.7-4.6l.2.6.6-.5z"/><path d="M230.7 39.9l.1.6.5-.4zm.7-.5v.6l.5-.4zm-3.5 0l-.3.5.5.1zm4.4 1.1l-.4-.4-.2.6zm-12.8-5.6l-.3.4.6.2zm-.1-.7l-.3.4.5.1zm-1.1.8l.6.4.1-.9zm-.4-.1l-.5.4.8.3zm5.6-1.2l-.3-.2-.1.4zm-5.3 1.2l-.1-.9-.9.5z"/><path d="M219 34.5v-.9l-.9.5zm2.7-1.1l.4 1 .7-.8zm.2 1.1l.3.7.6-.6zm1.9.5l.2.4.4-.4z"/><path d="M224.4 33.6l-1.2.6 1.1 1zm-3.1-.4l-.8.2.5.8zm3.3.1l-1.2-.2.4.7zm-.7 2.7l-.3-.3-.1.5zm-2.8-.7l.3.4.2-.6zm-.2-1l.7.5v-1.1zm-2.9 2.3l-.3.3.4.1zm2.6-2.1l-.5-.2.1.8z"/><path d="M220.8 34.1l-.4-.6-.5 1zM219 37l.4.3.2-.4zm1.5 1.5l-.2.4h.4zm-3.7-3.2l-.5.9.9.1z"/><path d="M217.1 34.5l-.8.5.8.6zm1.9 4l-.3-.1v.5zm-1.4-2.1l.4-.1-.2-.4zm2.7.7l.3-.1-.1-.4zm-5-1.4l.8.4v-1zm-.8.6l.9.4-.2-1zm-.8.9l1.1.2-.5-.9zm-.8.9l1 .3-.3-1.1zm7-.4l.1.4.3-.3zm1-.6l.5.1-.1-.6zm-3.1.3v.3l.4-.2zm4.6.1l-.3.1.2.4zm-.5 1.6l-.4.2.3.3zm3.2-4.6l-.1.5.5-.2zm2.9 0l-1-.4v1.1zm-1-.5l-1-.3V35zm-.6 3.1l-.4-.8-.7.7zm3.5 5.1l-.1-.3-.4.3zm-4.1-6.1l-.2-.3-.2.3zm3-1.1v1.1l.9-.4z"/><path d="M226.7 38.1l.1.5.5-.3zm1.2-3.6v1l.9-.5zm.7 4.2v.5l.5-.3zm-.1.9l-.1.5.5-.2zm2.6-2h-.5l.3.4zm-1-.2l-.2-.3-.3.4zm-.3 1.2l-.1-.4-.3.4zm1.4 4.1l1 .2-.4-1zm-.4.7l-.5.3.5.3zm1.9 1l-.8.2.6.5zm-2.4.5l-.1.7.6-.4zm1.9-2.4l.2.5.4-.4zm-.3 1.4l.3.5.5-.5zm-.4 1.3l-.1-.4-.5.3zm-.2-2.2l-.2-.4-.3.4zm-5.1-3.8l.1.5.4-.3zm2.1-1.4l-.4.2.2.2zm-.6 3.6l-.2-.3-.2.3zm-11.9-.9l-.3-.1.2.4zm2.9 1.6h-.3l.2.3zm-4.4 5.5h-.3l.2.3zm1-3.6h-.3l.2.3zm4.7-2.2l-.1-.3-.3.2zm-5 3.7l-.1-.3-.3.2zm2-3.8l-.1-.3-.3.3zm1.1-2.4l.2.5.3-.4zm2 1.8l-.3-.3-.1.4zm10.6-2.7l-.1-.4-.3.3zm-2-1.5l-.8-.3.1 1.1z"/><path d="M229 36.5l-.5-.2v.6zm-4.4.7l.1-.5-.5.1zm.2-1.9l-1 .7 1 .6zm-.4-.3l-.3.2.4.2zm.9 2.1l-.2.4h.3zm1-1.7l-.2-.3-.2.5zm.6-.7l-.4-.5-.3.7zm-.9-.4l-.4-.5-.3.7zm3 1.2l-.5-.5-.3.7zm.8.7l-.4-.5-.3.7zm-2.7.3v-.4l-.5.1zm-.8 1.3v-.4l-.4.1z"/><path d="M226.7 36.4l.1.6.6-.5zm2.5 1.6l.3.5.3-.7zm-6.5-2.8l.4.4.2-.6zm2.5.7l.2.5.3-.3zm3.7 1.2l-.4.2.3.2zm-1.3.5l-.3-.3-.2.5zm1 1.3l-.2-.4-.2.5zm-3.3-.5l-.4.1.4.3zm3.9-.3l-.2-.3-.2.5zm.8 3.7l-.4.3.5.3zm-.5-1.9l-.2.5.5-.1zm1.5.6l-.1.4.5-.2zm0-.1l-.5-.1.2.4zm-.6-.6v-.3l-.5.3zm.4 1.2l-.2-.4-.2.5zm.6-1l-.2-.3-.3.4zm-6.7-2l-.2-.4-.4.4zm-12.2 10.1l.7-.8-1.1-.5zm5.4-11.5l.8.6.4-1zm-3.5 1l.5.2v-.7zm2.8-1.1l.1.6.5-.4zm-5.8 4.6l-.2.7 1.2-.1zm1.1 4l-.4-.1.1.5zm.9-2.3l-.8-.1.3.9zm-.4-2.1l.4-.3-.5-.4zm.4 1.5l.3.5.3-.5zm8.9-4l-.1.5.5-.3zm-6.4 1.1l-.1.4.4-.1zm-.4.4l-.4.2.4.3zm-.6-.9l.3.4.1-.4zm2.4.4l-.3.3.5.1zm.6-1.4l.3.5.2-.6z"/><path d="M215.7 37.7l.5-.2-.6-.3zm-1.7 1l.3-.3-.5-.1zm.5-2.1l-.1.5h.5zm.9 6h.5l-.4-.6zm-4.2.4l1.2-.4-1.2-.8zm1.7-4.7l.4.3.2-.4zm3.5-.3l-.4.4.7.2zm.3-1.6l-.5.5.8.3z"/><path d="M215.2 36.9l-.6.6 1 .4zm-2 3l-.9-.9-.6 1.1zm.6-1.6l.3-.5-.6.3zm-.9 0l-.6.6 1.2.2zm-.1 8.5l.2.5.6-.5zm1.2-9.7v.4l.5-.2zm-.8 6.3l.1.6.6-.4zm-1.1 0l.1.5.6-.4z"/><path d="M212 42.1v.6l.4-.3zm1.1 2.4v.5l.5-.2zm-.1-.7l.4-.1-.3-.4zm-.8-3.3l.4-.2-.3-.4zm.4.8l.3-.1-.2-.4zm-.3 5.6h.3l-.1-.4zm0-2.7l-.1.6.6-.3z"/><path d="M212.7 44.5l-.5-.5-.3.7zm-.1-1.4l-.4.3.3.2zm1 2.4v.3l.4-.2zm-.1 2.6l-.6.5.9.4zm3-3.6h.4l-.3-.5zm-4.9 1.2l.3 1 .8-.7zm1.1-.5l.1.4.4-.3zm2.1.4l-.7.2.4.6zm-.1-7l-.3.3h.5z"/><path d="M214.7 39l.3-.3-.6-.1zm-1.2 4.2l1 .2-.4-1.2zm.4-2.6h.7l-.3-.7zm-.9 1.5l.8-.8-1.2-.4zm0 4.4l.5-.3-.6-.4zm.2-6.5l.6-.2-.5-.5zm3.5-1.8l1.1-.3-.9-.9zm-2.4.4l1.1-.3-.9-.9z"/><path d="M213.1 40.6l1.1-.4-1-.9zm1.6.9l-.5.1.4.4zm-.6-2.8l-.8.5 1 .4zm2-2.5l-.9.3.8.6zm-2 5.2l-.4.1.4.3zm7.1-1.6h-.4l.2.4zm-10 4.2l1.2-.6-1.3-.3zm2.7.8l.9-.2-.6-.8zm-2.3.7l1-1h-1.4zm3-2h.4l-.2-.5zm-3.1-2.6h.9l-.7-.7zm1.4 1.1l-.4.2.4.2zm2.3-1l-.4.3.4.2zm3.9-1.2v.4l.4-.1zm-1.9 3.2l-.4-.3-.1.5zm-.2-4.7l-.4.5.7.2z"/><path d="M215.9 38.7l-.4.4.6.2zm-2.1 8.2l.3.2v-.4zm1.2 0l.5.1-.1-.5zm2.3-6.5v.4h.5zm-4.4-.5l-.2.5h.5z"/></g><g fill="#af2500"><path d="M251.1 61.7l-.5-1-.7.8zm-11.6-4.4v.6l.6-.3zm3.5.6l.5.2-.1-.6zm-2.8-1.1l-.1.6.7-.2zm7.3 3.4l.3-.6-.7-.1zm6.3 1.6h1.7l-.6-1.3z"/><path d="M252.8 61.8h1.1l-.7-.9zm2.2-2.3l.5-.5-.7-.2z"/><path d="M251.9 61.8h1l-.4-1.1zm-9.1-1.8l.7.2-.2-.7zm3.7-1.1v.6l.5-.2zm-1.8 0l.1.6.6-.3zm-2.6-.6l-.5-.4-.3.6zm.2.8l.4-.4-.7-.2zm-4.3-1.9l.3-.4-.6-.2zm19.7 3.2l.3-.3-.6-.3zm-4.8.2l.4-.5-.7-.1zm-11.8-2.2l-.4-.3-.2.6zm17.6 2.7l-.3-.3-.1.4zm-6.5-1.6l.1-.4h-.4zm-4.9-2.9h.3l-.2-.3zm-8 1.6l.1-.4-.5.1zm4.7-3.1h.3l-.2-.4zm.8 1.2h.3l-.2-.4z"/><path d="M239 56l.2.3.2-.3zm4.1 0l.1.3.3-.3zm-1.5 1.8l-.3-.7-.5.6zm3.1 2.7l-.2-1.1-1.1.8zm6.6-.1l-.2-.6-.6.5zM240 58.8l.5-.5-.7-.4zm.8.6l-.1-.9-.8.5zm2.4-.8l.2-.5h-.6zm12.6.8l.4-.5-.6-.1zm-3.1 0l.5.2-.1-.5zm-.6 1.2l.5.2-.1-.5zm2.2-1.3l.4.3v-.5z"/><path d="M253.2 59.4v.5l.5-.2zm1.5-.6l-.2-.6-.4.6zm-4.1 1.7l-.3-.5-.3.6zm1-.5l.3-.3-.5-.2zm-.5 1.7h.8l-.3-.9zm3-1.9l.3-.4-.5-.1zm-4-2.1l.4.2v-.5zm2 2.2l.4.2v-.5zm3.8-.2l-.4-.4-.4.6zm-1.6.6l.3-.3-.6-.2zm1.8-.6l.5.3v-.5zm-2.2.7l-.4-.5-.2.6zm.6.8l-.7-.6-.3.9zm-1.1-.2l-.5-.5-.2.7zm3.2-1.9l.2-.4-.5-.1zm-14.6-.9l.5.2v-.6zm3.2.5l.7-.1-.4-.6zm.1 1.7l.6-.2-.3-.6zm-.6.1l.5.2v-.6zm1.8-1.2h.6l-.4-.6zm-.9-.1l-.1-.5-.4.4zm11 2.5l-.5-.8-.6.9zm-6.8-.1l-.3-1.3-1.2 1zm.4-2.7v-.4l-.4.2z"/><path d="M241.3 59.5l-.1-.4-.4.3zm1.5.5l-.2-.4-.3.2zm6.7 0l-.1-.5-.5.3zm-1 .6l-.4-.7-.5.9zm-2.9-1.1l.5-.1-.3-.5zm.1.9l.5-.1-.4-.5zm1-.5l-.4.4.4.1z"/><path d="M246.3 60.2l-.5.6.6.1zm-1.4-.7l.2.5.4-.5zm1.4-.8l.5-.2-.3-.5zm1.3 1l.3.4.3-.4zm7.4.5l-.7.1.3.7zm2.4 0l-.7.1.5.7zm.6.1l-.3.4.5.1zm-.3 1.3l.6-.2-.6-.6zm-.1-2h-.6l.3.5zm-1.6 1.1l-.2-.6-.3.3zm-.1.7l-.5-.8-.4.6zm.3 0l.9-.4-.8-.7z"/><path d="M256.8 61.7l.7-.1-.5-.6zm-6.3-1.8l-.2-.6-.5.4zm1.5 1.3l-.2-.7-.6.4zm-3.9-.1l-.2-.6-.5.4zm.3-.6l.6-.3-.7-.4zm1.2 0l.4-.3-.4-.2zm-1.4.8l.8-.4-.7-.4zm1.7-.1l.4-.3-.5-.2zm-2.2-3.5l.3.3.1-.5zm-7.6.1l.4.2.1-.5zm.1.3l-.5-.4-.1.6zm3.7.7l-.2-.7-.6.6z"/><path d="M243.3 59.3l-.3-.6-.5.6zm.3-.9l.5.3.1-.6zm-1.5-.7l.4.2.1-.4zm8.4 2.9l.5.5.2-.9zm-14.8 6.8l-1 .4.6.6zm.2-.7l.3-1-1.1.2z"/><path d="M234.8 66.2l.2-.4h-.5zm.9 1.2l.2-.7-1 .1z"/><path d="M235.2 68.6l-1.3-.2.8 1zm.2-2.2l-.8.1.4.7z"/><path d="M235 68.5l-.2-.4-.3.4zm-.5-.7l.6-.4-.9-.3zm11.4-7l-.2-.6-.5.5zm1.1-3.7l-.1-.5-.5.4zm.7 4.1l-.4-1.1-.9.8zm-3.1-2l-.2-.6-.4.5z"/><path d="M245 58.8l-.2-.5-.5.4zm-3.6.8l.8.2V59zm2.1-.3l.3.4.2-.5zm-7.2 4.5l.1-.7-.7.3z"/><path d="M236.5 61.8l-1 .4.9.9zm-.1 2.5l-.3.2.2.3zm-.9-.6l-.5.2.5.6zm-.3-1.6l-.5.3.5.3zm1 3.6l.2-.8-.8.1zm-.6-2.6l.3-.4h-.5zm.9-2.8v-.6l-.5.3z"/><path d="M236.5 60.3l-.3.3.3.2zm-.8-.3l-.5.5.7.3zm.8-.9l-.4.3.4.2zm0 2.7V61l-.7.2zm-1-2l.3-.4h-.6zm5.8-.9l.5.3.1-.5zm-4.1-1.1v-1l-.9.5zm4.1-1.1l-.2-.6-.4.4zm-.8-1l.3-.1-.3-.3zm-.6.7l.2-.1-.2-.3zm-.9.4l-.3-.5-.3.5zm6.4 1l.3-.2-.4-.3zm2.8 1l-.1.6.6-.2zm-1.9 1.3l.2-.5-.7-.1z"/><path d="M248.2 58.8l.7-.2-.5-.6zm.8.3l-.1-.4-.4.4zm1.1-.2l.4-.2-.3-.4zm1.6.3l-.1-.6-.5.4zm-3.7-1.9l-.2-.5-.5.5zm-5.2.2l-.2-.4-.5.4zm1.6 0l-.2-.5-.5.4zm7 2.3l-.2-.5-.5.4zm-2.2-1.7l.4-.2-.5-.3zm-1.9.8l.3.3.3-.5zm-6.5-.2l.3.2.2-.5zm-2-.9l.4-.3-.7-.3zm-1.1.2l.1-.5-.6.3zm1.4.7l-.1-.4-.4.2zm.8.3l-.2-.7-.6.5zm-2.1-.9l.7.4.2-.8zm0-.7l.4.4.2-.4zm-.4-.3l.2.3.3-.4zm11-.1l.3.4.2-.6zm-16.6 12.9l.1-.7.6.3zm-.8.1l.1-.7.7.3zm1.3.7l.1-.7.6.4zm-1.1.5l.4-.6.7.7zM230 71l.7-.7.3.9zm6.3-13.7l-.4-.2.5-.4zm-2.5 8l-.5-.3.4-.5zm.5 2.9l-.8-.4.7-.8zm.8-1.9l-.7.6-.4-1zm.8-9.3l-.4-.2.4-.3zm.5 2.1l-.4-.2.4-.3zm-10.7 10.4l-.7-.1.5-.6zm-.9-.2h-.7l.4-.6z"/><path d="M236.3 63.9l-.5.3-.1-.6zm-5.6 3.2l.4.4-.5.2zm3.5-3.7l.5.4-.6.2zm.4-1.2l-.2-.6.8.1zm-1.7-.3h-.5l.2-.5zm-6.1 8l-.8-.3.8-.8zm9.8-13.3l.5-.4.2.6zm3.1-1.4l.3.1v-.4zm2.1.8l.3.2v-.4zm-5.4 2.4v.2l-.3-.1zm-11.3 7.2l-.3.3-.1-.4zm-.3 2.5l-.3-.3.4-.2zm-.6 1.2l-.6-.3.5-.5zm-1.1-.4l-.6-.3.5-.5zm4.7.7l-.3-.3.4-.2zm-2-6.9l-.3.2v-.4zm10.2-6.5l-.3.1V56zm-.8-.8l.2.3h-.4z"/><path d="M236.3 56l-.3.2v-.4zm-1.9-.5l.2.3h-.4zm1 3.6v-.4l.4.2zm-1.4 5.5l-.4-.4.7-.2zm1.5-.9l-.5-.4.7-.3zm-.7 1.1l-.4-.4.7-.2zm1.2-3.4l-.6.1.2-.7zm1.7-5.5l-.4.4-.1-.6z"/><path d="M235.4 62.1l.1-.8.6.4z"/><path d="M235.2 62l.1-.6.6.4zm-2.1 5.2l-.5-.3.5-.5zm-4.2 2.5l-.1-.6.9.3zm-.3-.2l-.7-.4.7-.5zm-.8.9l-.7-.4.7-.5z"/><path d="M228 70.7l-.3-.3 1-.5zm1.6-.5l-.8-.1.8-.8z"/><path d="M229.3 70.1l.1.8-1.2-.2zm-8.5-.1l-.4-.1.3-.4zm12.6-4.6l-.5.3-.1-.7zm1.1.5l-.8.4v-.9zm-.6.9l-.5.2v-.6zm-6.3 2.7l-.5.4-.1-.6zm.8.2l-.5.4-.1-.6zm2.4.3l-.9.8.1-1.1zm1.6-5.7l-.2-.3h.5zm-2.2-1.3l-.2-.4h.5zm.1 5.1l-.2-.4.4-.1zm4.2-6.9l-.2-.3.3-.1zm.8 1.8l-.3-.4.5-.1zm-3.1 3.4l-.2-.4.5-.1zm.2 5l-.6-.9 1.4.5zm-.2-2.2l.9-.1-.4.8z"/><path d="M231.5 70l.8-.1-.4.8zm1.7-5.8v.4h-.5zm-.3.7l.1.4-.4-.2zm-2.5 4.7l-.2-.5.6-.1zm2.8 1.4l-.4-1.2 1.1.5zm.1-4.8h-.4l.2-.5zm0 2.1h-.4l.2-.5zm-.3.6h-.4l.2-.5zm.5-1.1l-.4-.1.1-.5zm-4.7-.8v.5l-.5-.3zm7.6-10.4l-.4.3-.1-.5zm-1.4-.1l.4-.3v.5zm-.1 4.6l-.3-.6h.8zm-.2 2.4l-.4-.6.8-.1zm.5-7.4l-.3.4-.4-.5zm-1.8 4.7v.5l-.4-.2z"/><path d="M230.9 66.8l-.2-.5h.6zm.9 1.5l-.2-.5h.6zm-3-2.2l-.3-.5h.6zm3.8 2.1l-.2-.6.7.1zm-1.1.7l-.3-.5.7.1zm-.4 2l-.2-.5h.7zm2.1-1l-.2-.6.7.1zm1.4-9.7l-.3-.4.6-.1zm.8 1.3l-.4.1.1-.5zm-.2 1.5v.5l-.5-.3zm-1.6-.6l.1.5-.5-.3zm-6 3l-.2-.6h.6zm6.3 5l-.2-1.2 1 .2z"/><path d="M234 69.3l-.8-.8.9-.5zm1.5-3.6l-.8-.7.9-.6zm-4.9-.1l-.4.1.1-.5zm-3.8 1.4l-.6-.3.5-.4zm3 1.9h-.6v-.6zm-1.5-1.9l-.3-.5h.6zm-3.1 1.3l-.2-.5h.6zm0 .7l-.2-.5h.6z"/><path d="M223.8 68.7l-.2-.5h.6zm.9.6l.1-.6.5.3zm1.2.1l-.2-.5h.6zm-3.2.2l-.7.3.1-.8z"/><path d="M221.8 70l-.6.3v-.8zm2.1-.7l-1 .2.3-1zm-2.2.6l-.2-.5h.6zm1.1-.5l-.5-.3.5-.3zm-1.7 1l-.6.4-.1-.7zm-.7.6l-.5.5-.2-.8zm.3-2.2v.5l-.3-.2zm-1.3 1.4h-.4l.1-.5z"/><path d="M219.9 71.3l-.6.3-.1-.7zm-1 .6l-.6.3-.1-.7zm-.8 2.5l-.3.2-.1-.5zm1.8-4.4l-.5-.2.4-.4zm.5.4l-.5-.2.4-.4zm-1.2.9l-.5-.2.4-.4zm1-.3l-.3-.4.6-.2zm.9-.8l-.5-.2.4-.4zm-2 2.5l-.2.7-.5-.6zm-.9.7l-.2.7-.5-.6z"/><path d="M218.8 73.6l-.2.7-.5-.6zm.9-1.9l-.5.8-.6-1zm-1 1.9l-.5-.1.4-.5zm3.1-4.1l-.5-.1.3-.5zm-2.8 3l-.5.1.1-.6zm-.9 3.1l-.4.3-.1-.5zm.5 0v.7l-.7-.4zm0-1.2l-.1 1-.9-.7zm0 2.1l.1.7-.7-.3zm-1.2.3l-.2.3-.3-.3z"/><path d="M218.6 77.1l-.1.6-.6-.3zm-.1 1.1l-.1.7-.7-.4zm1.6 2.1v.4l-.5-.2zm-2.6-4l-.4.3-.1-.5zm.7-.2l-.5.3-.1-.5zm0 1.5l-.4.3-.1-.6z"/><path d="M218.5 76.6h-.5l.2-.5zm-.1-1.2l-.4.3-.1-.6zm.9 3.1l.4.6h-.8zm.5.8l.5.5-.8.2z"/><path d="M218.8 77.4l.4.9-1.1-.1zm1 2l-.4.3-.2-.6zm-.7-.9l-.2.5-.4-.5zm1.3 1.5l.5.4-.7.3z"/><path d="M220.8 80.4l.3.6-.7.1zm.6 1l.3.6-.7.1zm2.4.3l.6.7-1 .2zm-3-.6l-.2.5-.4-.4z"/><path d="M222.2 81.2l.7.2-.6.5zm.9.3l.7.1-.5.6zm.9.1h.8l-.3 1zm-.3 1l.8.1-.3 1z"/><path d="M223.4 83.7h.8l-.3 1zm0 1.6l.5-.4-.3 1-1-.4zm-2.3-4.7l.8.4-.9.7zm2.1 1l-.2.5-.4-.4zm-1.2-.4l.1.6-.6-.1zm5.1-11.9l-.5-.2.5-.4zm3.1-2.7l-.4.1.1-.5zm-8.3 2.4l-.2-.6h.7zm-1.6-1.8l-.1.5-.4-.3zm2.5 0l-.1.6-.5-.4zm2.5-1.5l-.2-.5h.5zm-3.7 3l-.6-.1.4-.6z"/><path d="M221.6 67.2l.1-.3.4.4zm2.1.2l.1-.5.4.4zm-1.5.4l-.2.3-.3-.4zm-.7.2l-.2.4-.2-.5zm-1.9 1.2l.3-.6.5.6zm7.6-1.5l.3-.4.3.5zm-1.9-1.2l-.4.3-.1-.6zm-2 1.7l-.3-.3.4-.2zm-2.8-1.5l-.3-.3.5-.2zm-3.3 5.6l-.5-.1.3-.4zm1.3-1.8l-.5-.1.3-.4zm-1.5 4.3l-.6-.1.4-.5zm0-1.2l.4.2-.4.3zm-.3 2l.4.2-.3.4zm1-3.1l.3-.2.2.4zm10.2-10.2v.4l-.5-.2zm5.9-1.6v.5l-.4-.2zm-7 6.4l-.1.4-.4-.2zM222 81.9l-.3.3-.1-.4zm-.3 2.5l-.3-.3.4-.2zm1-.3l-.5-.6.7-.3zm.7-1.1l-.4-.4.5-.3z"/><path d="M223.8 83.3l-.6-.3.5-.4zm-.2 2.1l-1-.5.8-.7zm-1.1-2.9l-.2-.5.6-.1zm-1.9 1.1l.2-.4.4.3z"/><path d="M222.2 82.8l-.4.3v-.6zm1-.2l-.1.7-.6-.6zm-.3 2.4l-.4.3v-.6zm.1-.4l-.8-.5 1-.5z"/><path d="M223.8 83.4l-.1.4-.4-.2zm0 1l-.1.4-.4-.2zm-1.3.5l-.1.4-.4-.2zm5.5-16.5l-.1.4-.4-.2zm-1.6-.6l.4.2-.2.3zm-.1.8l.4.1-.3.4z"/></g></svg>