<svg xmlns="http://www.w3.org/2000/svg" viewBox="0 0 480 480" xmlns:v="https://vecta.io/nano"><path d="M217.9 103s4.1-1.4 12.1-1.1c4.6.2 9.5 1.4 10.6 1.9 2.2 1 5.6 1.7 10.8.5 9.7-2.3 8.9-9.8 8.2-13.4-1.3-6.9-5.8-11-7.6-15.4-1.2-2.9-17.4-3.5-27.1 5.6-5 4.5-7.4 17.8-7 21.9z" fill="#321011"/><path d="M226.2 78.8l-7.5 24.5-2.2 5.7s3.2 4.1 10.8 5.7c5.2 1.1 8.7 1.2 11 1 1.9-.2 4.2-.6 3-4.1-1.7-5.2-1.1-8.5-1.1-8.5l2.7-14.7-16.7-9.6z" fill="#ea9d7d"/><linearGradient id="A" gradientUnits="userSpaceOnUse" x1="229.285" y1="95.72" x2="236.157" y2="86.872"><stop offset="0" stop-color="#bc5a32" stop-opacity="0"/><stop offset=".99" stop-color="#bc5a32"/></linearGradient><path d="M225 92c2.5 3.8 6.9 7 9.4 8.2 3.5 1.7 6 2.1 6 2.1l2.2-12.2-16.4-11.3-.9 1.7-.7 2.8c-.1.1-1.9 5.2.4 8.7z" fill="url(#A)"/><path d="M217.1 109.2h-.1a.55.55 0 0 1-.3-.5l4.7-14.4c.9-3 3.6-13.1 3.6-13.1a.55.55 0 0 1 .5-.3.55.55 0 0 1 .3.5l-3.6 13.1c-.8 2.7-4.7 14.3-4.7 14.3 0 .3-.2.4-.4.4z" fill="#cf7653"/><g fill="#a84d3b"><path d="M229 84.6l.2.5.4-.4z"/><path d="M229 84l-.3.9 1.1-.2zm5.3 3.8v1.1l1.1-.5zm-2.7-1.7l-.1 1.1 1.1-.4zm-1.5-1.1l-.2 1.1 1.2-.3z"/><path d="M228.3 83l-.4 1h1.2zm7.5 7.2l-.5-.6-.4.7zm-1.4-1.1l-.6-.8-.3.9zm4.1 2.1l-.7-.7-.2.8zm3 1.1l-.7-.8-.3.9zm-5.3-3.6l-.6-.3v.9zm1.4 3.1l-.5-.5-.3.7zm-3.9-4l-.6-.4-.1.9zm5.3 2.1l-1-.4.1 1.2zm1.9.3l-.8-.1.2.9zm1.3 1.6h-.8l.3.7zm-2.8-.2l-.3-.7-.5.7zm2.4 2.3l.1-.7-.8.2zm-.2 1.3l.1-.7-.8.2zm-1.7 0l-.4.3.5.3zm.3-3.9l-.4.4.6.3zm2.3-.7l-.6-.1.2.6zm-1.9 5.8l-.4.3.6.3zM230.7 86l-.4.3.5.3zm6.7 4.8l-.3-.3-.1.5zm-2.8-.8l.1-.4h-.5zm1.4.9l.2-.4h-.5zm2.1 2l.2.5.5-.4zm2.9-2l-.3.3.4.2z"/><path d="M241.2 90.4l-.5.4.6.3zm-1.2.4l-.4.3.4.2zm.4 7.1l-.4.2.4.3zm-1.1-1.1l.2.4.3-.4zm-.1-2.4l.2.4.3-.4zm1.9.9l-.3-.2-.1.4zm-13.9-4.7l.2.2.2-.3zm1.9-1.2l-.2.2h.3zm2 3.5l-.3-.1.1.4zm-1-1.7l-.2.3h.4zm6.9 3.2l-.1.6.6-.3zm-.9-4.5v.5l.5-.2zm0-1v.5l.6-.3zm-7.7-3.1v.6l.5-.3zm12 7.3l-.5.1.4.4zm-1.5 4.2l-.2-.4-.4.4zm.3-5.2l.3.4.3-.5zm1.6.6l.3.5.3-.6zm1-1.9l-.3.4.5.1zm-.6 3.2l-.4-.3v.6zm-11.3-8.9l-.6.4.7.4zm-2 .8l-.3-.3-.1.5zm-2-1l-.2-.2-.1.4zm-.5 3.1l.1-.4h-.4zm3.8-2.2l.2.4.4-.4zm-1.2-1l.3.6.5-.5zm-.2-2.7l-.4.6.8.1zm3 4.8l-.3.2.4.3zm.8-.4l-.3.2.4.2zm.8.4l-.3.2.3.3zm-1.5 2.7l-.2-.2-.1.4zm-6-3.4l.2.3.3-.4zm2.3-2.3l-.3.2.4.2zm-.1 3.7l-.3-.2-.1.4zm.3-4.1l.2.3.3-.4zm1 .5l.2.4.3-.4zm-2.3-1l-.3.3.4.1zm.3-1l-.3-.2-.1.4zm5.3 5.5v.4l.5-.2zm1.9.8l-.4.1.3.3zm-.8-.8l-.4.1.3.3zm6.7 3l-.4.1.3.3zm-1.5-.6l-.3.1.2.3zm-4.7.7l-.1-.3-.3.3zm5.6 5l-.1-.3-.3.3zm-6.1-6l-.2-.3-.3.3zm2.6-.6v.5l.4-.2zm1.6.4v.4l.4-.2zm1.8.9l-.4.1.3.3zm-1.4 2l-.2-.3-.2.3zm-4.3-.1v.4l.4-.2zm1.9-1l-.3.1.2.3zm3.4.8l-.1-.3-.3.3z"/></g><path d="M251 53.1c2.2 2.8 2.9 5.2 3.3 8.1l.3 5.4c0 4.2-.3 10.1-.8 13.4-1 5.7-3.7 9.1-6.9 10.1s-9-1.1-12.9-3.1c-3.3-1.7-5.2-3.5-5.7-5.6-.5-2.2-1.5-5-1.5-5l-5.7-3.9s-4.4-15.1 5.3-21.6c8.4-5.6 20.7-2.7 24.6 2.2z" fill="#ea9d7d"/><path d="M243.5 90.6c-1.1 0-2-.2-4-.7-3.2-.8-7.7-3.3-10-5.5-2.2-2.2-2-4.3-2-4.4 0-.2 0-.5.2-.5s.3.2.4.4c.1.4.1 2.1 1.9 3.9 2.1 2.1 6.6 4.5 9.6 5.3 3.1.7 3.7.9 6 .7 2.2-.2 3.4-.9 3.4-.9.4-.3.5-.3.3 0-.2.2-1.4 1.2-3.6 1.6-.9.1-1.5.1-2.2.1z" fill="#b76349"/><path d="M238.4 68.4a.78.78 0 0 1-.2-1c.1-.1 1.7-2.5 5.3-2.2.4 0 .7.4.7.8s-.4.7-.8.7c-2.7-.2-3.8 1.5-3.9 1.6-.4.3-1 .2-1.1.1zm14.9-1.8c-.1 0-.3 0-.4-.1-.7-.5-1.5-.4-1.6-.4-.4.1-.8-.2-.9-.6s.2-.8.6-.9c.1 0 1.5-.4 2.8.7.3.2.3.7.1 1-.1.2-.4.3-.6.3z" fill="#4f2b23"/><path d="M243.9 84.4h0c-3.8-.2-5.4-2.9-5.8-4.4-.1-.4.1-.8.5-.9s.8.1.9.5c0 .1.8 3.1 4.4 3.3.4 0 .7.4.7.7 0 .5-.3.8-.7.8z" fill="#cf7653"/><path d="M247.1 78.9h-.2c-.4 0-.6-.4-.6-.7 0-.4.4-.6.7-.6.2 0 .7 0 .9-.6s-.3-1.5-.5-1.8-.2-.7.1-.9.7-.2.9.1c.1.2 1.2 1.6.8 3-.4 1.2-1.4 1.5-2.1 1.5z" fill="#b4603f"/><g fill="#4f2b23"><circle cx="241.9" cy="72.1" r="1.4"/><path d="M241.6 71.7c-.2 0-.8.1-.9-.1-.1-.3.4-.8.7-.9 1-.5 1.8-.4 2.1-.4a.47.47 0 1 1 0 1c-.3 0-.9 0-1.7.3 0 .1-.1.1-.2.1z"/><circle cx="252.3" cy="71.3" r="1.4"/><path d="M252 70.9c-.2 0-.8.2-.9 0-.1-.3.4-.8.7-1 1-.5 1.8-.4 2.1-.4a.47.47 0 1 1 0 1c-.3 0-.9 0-1.7.3 0 .1-.1.1-.2.1z"/></g><g fill="#f4b9a6"><path d="M244.7 76.5l.7-.4-.8-.4zm-7.6-1l-.2-.5-.5.5zm9.7.4h.9l-.4-1zm-1.6-3.1l.7.5.2-.8zm.4-.9l.9-.5-.8-.6zm1.6 8.1l.8-.4-.7-.7zm2.3-.9l.5-1h-1.1zm-5-3.4l-.7.1.4.7z"/><path d="M245.1 74.8l-.8.1.5.6zm-.5 3.7l.2.7.7-.5zm.2 1.4l.6.4.3-.7zm3.4 2.5l-.7.1.5.6zm-1.5-15.3l-.3.5h.8zm.3 4.4l-.6-.2.2.7zm.8-2.1l-.6-.2.2.7zm-4.2 2.8l-.2.6.8-.1zm.8-3.1l-.6.3.6.5zm-2.9.7l-.4.1.2.4zm5.5 12.4l-.6.2.4.5zm-.7-.4l-.6.1.4.6zm-4.8-4.3h-.7l.3.6zm1.3 1.3h-.6l.3.6zm-1.7-3.4l-.1.6.7-.2zm3.2-.4l-.1-.5-.6.5zm6 5.8l.3-.4-.6-.1zm-2.2-1.9l.3.1.1-.4zm4.2-3.9l-.1.5.4-.2zm-2.1 1.9l.5.1-.1-.5z"/><path d="M252.4 75.8l.1-.4h-.5zm-12.5-4.6l-.3.4.5.1zm5.9-2.3l.9-.1-.6-.7zm-.1 8.8l1-.1-.7-.8zm-.6-5.8l-.6-.1.1.6zm-4.9 3.9l.1-.6-.8.3zm4-5.6l.1.7.7-.4zm-.9 1.3l.1.7.8-.3zm.8-.5l-.1.7.8-.4zm5.9.2l.6.3v-.7zm-5 2.8l-.3-.4-.4.5zm2.3 7.6l-.5.1.4.5zm-2.3-4l-.2.4.6-.1zm.3 3l-.2-.5-.3.5zm.9.5l.4-.3-.6-.2zm.3-1l.5-.3-.6-.4zm-.2-.8l.5-.3-.5-.4zm.1-2.6l.4-.3-.5-.4zm-1.3.1l.4.4.3-.5zm4.9 4.6l-.5.1.4.5zm-2.3-5.2l-.3.4.5.2zm.9 5.5l-.4-.4-.3.4zm-3.3 1.5l.1.6.6-.3zm-1.2-3l-.5.2.4.4zm-5-6.3l-.3-.4-.3.5zm5.2 7.7l.4.2.1-.6zm-1.4-1.2l.4.3v-.6zm-1.2 3.9l-.3.4h.6zm-.8-.7l-.5-.1.1.5zm-1-.2h-.5l.1.5zm5.7-7.7l1.1-.2-.8-.9zm-.6-2.5l.2.5.4-.5z"/><path d="M245 74.1l.5.9.8-.9zm2.7-1.1l-.8.7 1.1.3zm-6.7 1l.1-.4-.6.2zm6.1 0l-.4.3.5.2zm-1.8-3.3l.7-.1-.4-.5zm3.8 1.7l.7-.1-.5-.6zm-4.2-.3l.7-.1-.5-.6zm4.6-2.6l.6-.1-.4-.5zm-2-1.5l-.4.2.5.3zm-4.9 1.3v-.4l-.6.2zm-.1 7.9l-.1.7.8-.2zm-.9-.5l-.6.1.3.6zm1.1 2.9l-.2.6.8-.2zm1.1-2.6v.7l.7-.3zm-.7 1.3v.8l.8-.4zm-.7-2l.1-.6-.6.3zm8.2-3.5l.6-.1-.4-.5zm-2.1-2.2l.2.4.4-.4zm3.9 7.4l.6-.2-.4-.3zm-8.7-8.7v-.4l-.5.2zm3.7 1.5l-.2.6.7-.2zm-.7-1.2l-.2.6.7-.2zm1.4 4.5l.9.6.4-1zm1.2 1.6l1.1-.2-.7-1zm-3.4.3l.4.1v-.3zm.1-2.5l-.3.4.7.1zm1.1-1.2h-.6l.4.6zm1.9.4l-.6.1.3.6z"/><path d="M247.2 73l1-.5-1-.7zm1.8-4.4l.4-.6-.9-.1zm-3 9.9l.4-.6h-.9zm.2-4.4l.9-.4-.8-.6zm1.3-4.1l.3.3.3-.5zm1.2 1.1l-.7.8 1.3.2zm1-1.2l-.3.4.6.1zm.3 3.9l.3.4.3-.5zm-1.3-4.5l-.3.4h.6zm-8.2 4.4l-.7.2.5.5zm2.8-.8l-.4.5h.7zm-.5.8l-.1-.4-.4.3zm-.7.5v-.4l-.5.3z"/></g><path d="M216.9 109.2h-.1a.55.55 0 0 1-.3-.5l4.7-14.4c.9-3 3.6-13.1 3.6-13.1a.55.55 0 0 1 .5-.3.55.55 0 0 1 .3.5L222 94.5c-.8 2.7-4.7 14.3-4.7 14.3 0 .3-.2.4-.4.4z" fill="#cf7653"/><linearGradient id="B" gradientUnits="userSpaceOnUse" x1="239.996" y1="64.37" x2="236.166" y2="59.062"><stop offset="0" stop-color="#bc5a32" stop-opacity="0"/><stop offset=".99" stop-color="#bc5a32"/></linearGradient><path d="M231 70.6l8.2-5.5c5.5-2.6 13.3-2.1 13.3-2.1l-6.8-4.7h-9.8L231 70.6z" fill="url(#B)"/><path d="M231.4 47.6s-5.8.9-9.8 7.1c-2.5 3.9-4.6 4.3-8.5 6-2.7 1.2-5.2 5.7-4.7 10.9.5 5.6-1.5 7.4-5.8 9.8s-7.5 6-6 14.1 9.7 9.6 14.7 9.4c5.1-.2 6.9-.9 8.8-4.3 4.3-7.7 6.8-29.3 6.8-29.3s-2.4-5.8-.2-14.8c2.3-9.1 4.7-8.9 4.7-8.9z" fill="#321011"/><path d="M227.3 81.4l-.4.3.5.3z" fill="#a84d3b"/><path d="M227.8 72s3.5 2.6 6.2-2.9c2.6-5.5 3.5-10.2 3.5-10.2l.6 3.1c.1.4.4.6.7.6h17.4c.5 0 .9-.5.9-1-.4-2.6-1.9-9.8-8.5-12.5-8.2-3.4-14.5-2-14.5-2l-4.5 4.1-2.4 8.3-.3 7.2.9 5.3z" fill="#321011"/><ellipse cx="224.5" cy="75.3" rx="5.3" ry="5.7" fill="#ea9d7d"/><linearGradient id="C" gradientUnits="userSpaceOnUse" x1="224.587" y1="78.668" x2="224.924" y2="73.341"><stop offset="0" stop-color="#cc7a5e" stop-opacity="0"/><stop offset=".924" stop-color="#aa5f4b"/></linearGradient><ellipse cx="224.8" cy="75.3" rx="2.4" ry="2.5" fill="url(#C)"/><path d="M228 79.1c-.9 1-2.2 1.5-3.5 1.5-2.7 0-4.9-2.4-4.9-5.3s2.2-5.3 4.9-5.3c1.9 0 3.6 1.2 4.4 2.9 0 0 .2.1.5-.1s.2-.6.2-.6c-1-1.8-2.9-3.1-5-3.1-3.2 0-5.8 2.7-5.8 6.1 0 3.3 2.6 6.1 5.8 6.1 1.4 0 2.5-.4 3.5-1.2l-.1-1z" fill="#b76349"/><g fill="#964c38"><path d="M227 75.9v-.4l-.4.1zm-1.7-3l-.4.1.3.4z"/><path d="M225.2 73l-.5.6.9.2zm-.9-.1l-.6.2.5.5zm2.6 1.5l-.3.2.4.2zm-.9-.5l-.3.3.4.1z"/><path d="M226.6 74.6l-.2.3.4.2zm-2.2-.8l-.3.2.5.2z"/><path d="M223.9 73.5l-.4.5.7.2zm1.7 1.8l.2.2.1-.3zm1.1-1.2l-.1.2h.3zm.2.9l-.1.3h.3zm-3.6-1.6l-.4.4.6.1zm.8 1.5h-.2l.1.3zm.6.9l-.1-.3-.2.2zm.8-2.5l.2-.2-.3-.2zm-1.2 0l-.3.3.5.1zm-.5.3l-.3-.2v.4z"/><path d="M223.8 73.6v-.3h-.3zm2.4.4l.2.3.2-.3zm-.4-.9l-.1.7.7-.2z"/><path d="M225.5 73.6l.3.2.1-.4zm-2.4.9l-.2.3h.3zm1.8-1.6l-.3-.1.1.4zm-.6 1.8l.2.3.2-.4zm.8 1.3l-.1.2.3.1zm-2.1-2.2l-.2.3.4.1z"/><path d="M223.9 76l-.3-.1.1.3zm-1.1-1.6l.3-.1-.2-.3z"/><path d="M222.5 75.5h.2l-.1-.3zm.2-1l.2-.1-.1-.2zm.7-.3v.3l.3-.2zm-1 .9h.4l-.2-.4zm.6.1v.2l.3-.2zm2-1.3l-.3.2.3.2zm1.4 1.5l.1.4.3-.2zm-2-2.2l.1.4.3-.3zm1 1.1l-.2-.2-.1.3z"/></g><linearGradient id="D" gradientUnits="userSpaceOnUse" x1="232.904" y1="68.02" x2="232.334" y2="51.308"><stop offset=".007" stop-color="#ff7a00"/><stop offset=".983" stop-color="#ffb600"/></linearGradient><path d="M224 69.1s-1-12.3 2.6-17.7c3.7-5.4 7.6-5.4 7.6-5.4s.4-.2 3.4-.1 3.6 1.1 3.6 1.1-4.2-.2-6.5.9c-2.7 1.3-5.9 4.2-6.5 9.9s-.4 12.4-.4 12.4-1.1-1.2-3.8-1.1z" fill="url(#D)"/><g fill="#633535"><path d="M236.3 47.4v.6l.7.3.5-1.1zm5.7 4.5l-.5-.1.2.6zm6.7-2l-.4.2.6.3zm-7.4 2.2l-.1-.4-.5.3zm-2-4.5l-.3.8h.9zm6 3.6v.6l.6-.2zm-9.5-3.7l-.9.4.9.7zm-1.2.5l-.8.5.8.6z"/><path d="M221.2 55.4l1.3.2-.5-1.3-.4.6zm-8.2 5.5l.8.7.4-1.2zm9.6-7.4l1 .2-.4-.9zm21.3-6l-.8.3.7.7zm-4.4 2.2l-.1-1.7-1.2.8zm1.5-.9l-.8-.8-.3 1zm1.7.6l-.2-.9-.8.5zm1.6.3l1 .4-.1-1.2z"/><path d="M243.9 47.5l.5 1.3 1.1-.8zm.5 3v.5l.5-.1zm-8.4 1l-.1.5h.5zm1-.9l-.3.4.5.1zm-15.5 6.1l.4 1.2 1.1-.9zm-2.9 2.2l.2.7.6-.5zm-7.4 4.4l.3.8.7-.7z"/><path d="M212 63.2l.4.8.6-.6z"/><path d="M211.5 64.9l1.5-.2-.8-1.3zm2.1-2.3l-.6 1 1.2.3z"/><path d="M210.4 65.4l1.1-.5-.9-1zm13.1-10.3l.3.4.3-.6zm-3.3 3.3v.5l.5-.2zm1.4 0l-.1-.6-.6.5zm23.1-8.5l-.2.5.6-.1zm2.9-.7l.2.6.4-.4zm.8 2.8l.5.1-.2-.5zm-1.3-2.4h.4l-.2-.5zm.8.3l-.5.2.5.4zM236.6 54l.5.2-.1-.4zm-4.1 4l.4.2-.1-.4zm2.6-7l-.1.3.4-.2zm3.2 2.7l-.3-.1.3.4zm-5.5 2.9l-.3-.1.2.4zm3.8-4.2l-.1.3.5-.1zm9.2.2l-.3.1.2.2zm5.4.1l-.3-.1v.4zm-8.1-1.9l.4.4.3-.7zm-.8-3.6l.2 1.1.9-.9zm-7.3 2.1l.3.5.4-.6zm10.8-1.2l.2.8.8-.4zm1.3 5.1l-.4.1.1.5zm-2.9-1.9l-.4.1.1.5zm.9-2.7l.6.2-.1-.7z"/><path d="M246 49.4h.6l-.5-.7z"/><path d="M245.4 49.3l.6.1-.2-.6zm-3.4 1.9l-.1.5.5-.1zm3 .2l-.5.2.4.4zm-21 1.3l.4.3.2-.4zm11.3-4.3h-.5l.2.5zM223 54.5l-.4.7.9.2zm-.9 4.3h-.9l.6.8zm.6-2.9l-.7.3.8.5zm-1.6 2h-.8l.5.8zm-1.3.2l-.3-.7-.6.6zm-2.9 1l-.7.4.7.5zm1.7-.4h-.8l.5.8zm-5.8 3.1l-.9.1.5.9zm-.7 1.4l-.2-.9-.9.7zm3-3l-.8.1.5.8zm-2.3 1.9l1 .1-.5-1.2z"/><path d="M212.5 62.9l1.1.1-.4-1.2zm1-.3l1 .6v-1.3zm9.8-8.5l-.8-.3v1zm-3.7 3.2l.9.6-.2-1.3zm-1.5 1.2l.9.5-.1-1zm-1.1.6l.9.6.1-1.1zm-7 4.9l1.1.1-.5-1zm24.2-13.9l.3.3.2-.6zm2-.6l.3.2.2-.5z"/><path d="M235.9 47.9l-.6 1.1 1.4.2zm-2.3.8l-.6.4.7.4zM212.7 61l-.5.5.6.4zm-1.6 1.4l-.5.7.8.2zm-1.1 1.7l-.3.6.8.1zm26.8-13.8l-.4-.1v.4zm-.2 1.2l.3.4.1-.6zm-11.1-.8v.4l.5-.2zm-1.1 2.8l-.2.3h.4zm-.9 1.1l.5-.2-.6-.3zm-4.1 4.1l.5.2-.1-.6zm5.6-7.6v.4l.4-.2zm-6.9 15.3l-.1.4.5-.1zm3.2-10.8l.5.9.7-.8zm5-5.4h-.4l.3.5zm-3.1 6.5l.3-.3-.4-.2zm-.9 3.7l.4-.3-.6-.3zm-.9-3.7l-.5-.8-.5.7zm1 4.4l.3.2.2-.4zm-.9-3.4l-.2-.6-.7.4zm-5.3 2.5l-.2-.6-.9.3zm-4 2.1l-.4-.7-.5.7zm10.7-4.3l.3.2.2-.4zm2.2-5.7l-.1.4.4.1zM221 65.9l-.3.3.4.2zm2.7-13.8l-.4.5.6.3zm12.9-3.8l.4.9.7-.2-.1-.6zm2.9-1.3l-.9.1v.5l.4.4zm-1.2.1l-.7.6.3.5.6.1zm1.1 3l-.7-.5-.2.9zm2.8 2.7l-.3-.2-.1.4zm-3.7-3.3l-.3-.2-.1.4zm2.6-2.4l.3 1.1.7-.2-.1-.8zm-1 3.8l.2.5.4-.5zm-.3-3.9l-.2.5.7.2.5-.7zm2.8 3.5l.3.8.3-.9zm1.1 1.6l.1.5.4-.5zm-2.8 1.6l-.3.3.4.1zm2.5-5.3h-.3l.1.4zm.8 1.4l-.4-.1.1.5zm4.4-.7l.1.5.4-.3zm1.1.5l.1.7.4-.3z"/><path d="M248 48.9l.1.5.5-.3zm-.6-.3l.1.6.4-.4zm-6.9-1l.4.6.4-.7zm9.5 3.2l.5.3v-.5zm-3.1.8h.6l-.3-.6zm-.7-1.5h.5l-.3-.6zm3.9 1.3l-.4.1.2.4zm-1.6-.8h-.3l.2.4zm-8.4 1.5l.2.5.3-.5zm1.6-2.6l-.5.6.8.3zm1.1 4l-.4-.2v.4zm1.6-4.6l-.4-.1.1.5z"/><path d="M241.5 49.1l-.8.1.5.9zm.5-.9h-.9l.5.7zm-4.1 2.8l-.1-.5-.4.4zm-.7-1.5l-.4.7.9.1zm-.5-.3l-.1.3h.4zm1.8 1.5v.4l.3-.2zm.2-2.4l-.8.1v.5l.4.1zm1 1l-.1-.4-.4.4z"/><path d="M239.8 50.8l-.2-.3-.3.3zm-.5-1.4l.4.4.2-.6zm3.7.6l1.2-.4-.6-.8zm-1.9.7l.6.5.2-.6zm-6.1-.4l.5.1-.1-.6zM223.8 52l1.2-.2-.6-.4zm13.7-2.6l.8.9.5-1.1zm4.2-.3l-.2.4h.4z"/><path d="M240.9 49.7l-.9-.2.3.9zm1.4 1l-.3-.1.1.5zm-3.1 1.1l-.2.4h.4zm3.3-2l-.3-.1.1.5zm-1.6.4l-.2.5h.5zm4.6.7l.3.3.3-.5zm1.3-.7l.4.1-.1-.5zm-.3-1.1v.4l.4-.1zm-.7.8l-.4-.1.2.5zm-11.6 3.5l-.3.3.6.2zm-4.6 4.8l-.5-.1.1.5zm3.2-2.6l-.5-.2v.6zm2.6-4.5l.4.3.1-.6zm-3.9-.5l-.2.8.9-.2zm-1.5 4l-.8-.9-.4 1zm2.5-2.1l-.9-.2.1.9zm1.1-1.2l.8-.7-1.1-.5zm-2.4-.8l1.4.2-.2-1.3z"/><path d="M234.3 51.6l.5.2.1-.5zm-.4-.6l.4.4.1-.5zm0 1.8l.6-.1-.5-.6zm-3.7-.9l1.1.3-.3-1.2zm4.7.3l-.1.4h.5zm-1.9-2.1l.4-.5-.7-.2zm.7 0l.4-.5-.7-.1zm-5 9.4l.5.3.1-.4zm2.3-3.1l.4.3.2-.5zm4.4-4.9l-.1.5.6-.2zm-.1 3.1l-.4.1.4.3zm-5.5-1.8l1 .3.2-.7-.8-.3zm3.6.4l.9.1-.7-.7zm-3.3 1.2l.9.1-.7-.7zm5.3-1.5l.5.2-.3-.6zm-3.4-1.5l-.2.3.4.1zm1.6 0l-.3.3.5.2zm1.3 2.5l.2.5.4-.5zm-4.8 3.4l.2.4.4-.4zm-.2-3.7h.7l-.5-.7zm2.3-.1l.2.6.7-.5zm-3 1.3l.2.7.7-.5zm7-.4l-.4.2.4.2zm-5.9 4.1l-.4.2.4.2z"/><path d="M231.6 54.9l-.4.3.4.2zm1.3-4.1l-.3.3.5.2zm-1.2 2.6l-.3.8 1-.1zm-3 3.2l-.3.7h1zm2.5-4l-.5.8.9-.1zm2 0l.2-1.3-1 .2zm-4.8 3.8l1.2-.6-.8-.8zm3.4-3.1l.2.3.2-.3zm1.7.2l-.3.2.5.2zm-.7-.6l-.2.3.4.1zm.5 1.5l.3.4.2-.5zm-2.8.8l.3.3.2-.4zm4-6.3l-.6.6 1.3.3zm13.3 1.6l-.4.1.3.3zm-.6-1.9l-.4.1.3.3zm-8.8 3.1l-.3-.3-.2.4zm-15.6 11.2l-.3-.5-.3.4zm-7.8-2.8l-.5.8 1 .2zm6.3-1l-.4-.8-.6.7zm-3.8 4.8l-.1.9.9-.1zm3-1.2l-.1.7.7-.2zm-1 2.2h.4l-.2-.3zm-3.2-.4l.1.4.3-.3zm4.2-.3h-.3l.3.3zm-1.9-.3l.2.5.5-.4zm8.2-14.2h-.3l.3.3zm-12.9 14.1l.7.8.4-1.1zm2.5 2.5l.2.8.6-.7zm-.1-6.7l-.3 1.3 1.4-.2-.2-.7zm.4 1.6l-.2.9.9-.1-.2-.7zm1 .7l-.7.4-.3.5 1.1.8zm-1.2 6.5l-.3.9 1-.2z"/><path d="M216.5 60.5l-1.2 1.1 1.4.5zm-1.6.5l-.5.4-.3.5 1.2.3zm5.1-2.3l-1 .7 1.2.9z"/><path d="M221.1 58.9l-1.1.8 1.2.8z"/><path d="M221.6 60.3l-.9-.1.2 1.1zm-5.3 2.9l-1.2-.1v.8l.4.6zm-.3 1.1l-1.1.5.9.7zm-1.7-.6H213l.6 1.3zm6.5-1.8l-.4-.9-.9.8zm-1.4 1.6l.4-.9h-1.1zm-1.2 2.3l.4-.6-.9-.1zm-2 2.7l.5-.7-1-.2z"/><path d="M215.3 70.7l.4-.6-.7-.2zm-.9-3.9h.7l-.2-.7zm4.4-3.5l-.9-.4-.1 1.1zm-2.3-1.8l-1.1.7 1.3.8zm2.2-2.1l-1 .7 1.1.8zm1 1.2l-1.1.7 1.2.8zm-1.2 1l-.3.8 1-.1zm1 5.4h-.3l.1.3z"/><path d="M217.6 65h-.9l.5.9zm.5-2.2l.4.2v-.6zm-.8-3l.4.4.2-.5zm2.9.7l-.7-.3v.9zm-2.9 2.4l-.7.3.6.7zm-.5.7l-.8.2.8.7zm-5.5 7.7l-.8.2.6.7zm3.8-7.7l-.8.5.9.5zm4.1-3.4l-.4-.2.1.5zm3.6 1.6l.3.4.2-.5zm-.6 1.7l-.2.4h.4zm-.8-1.4l.3.4.2-.6zm-2.2-.3l-.3-.4-.3.5zm-1.3-1.4l-.4.8.3.4 1.2-.3zm-.5.1l.1.4.2-.3zm2.2.8l.2.4.2-.3z"/><path d="M219.7 63.7l.2.3.2-.2zm-.7-4.4h-.4l.2.5zm4.4-.4l-.3-.4-.2.6zm.3 1.4l-.3-.3-.2.5zm-5.1 9.1l-.2-.4-.4.4zm3.3-10.4l.5.4.1-.7zm-7.5 4.1h1l-.5-1zm4.3-2.7l.5.3-.1-.5zm-10.2 16.5l.5.5.3-.7zm1.2-2.4l.3.4.3-.4zm1.1.2l.6.6.5-.7zm.6 1.4l.3.4.3-.4zm1.1-2.5l.3.3.3-.4zm-1.8-.6l-.6-.3v.7zm.5-.9l-.6.6.9.2zm-1-.9l-.9 1 1.3.2zm-.2 2.3l-.6.6.9.3zm-.8 1.1l-.7-.4v.8zm-2 3.4l-.5.6.9.2zm1.2-1.2l-.7.4.8.4z"/><path d="M208.6 74.1l1.1-.2-1.1-.7zm-.7 2.7h1.1l-.7-.8zm-.7 1.2h1.1l-.5-1.1zm2.1-2.8l.5-.2-.5-.3zm.1-2.7l-.8-.3v.9zm.7.6l-.5-.3-.2.8zm-3.4 6.9v-1.2l-.9.6zm-1.1-.4l-.9.6 1.2.9zm5.4-5.3l-.9-.3.1 1zm-4.1 4.4l.4 1.2 1-.8-.5-.5z"/><path d="M207.5 79.4L207 81l1.5-.3zm2.1-3.3l-.5 1.1 1.4.2zm-1.1-1.2l-.3 1.3 1.4-.3zm3.3 1.8l-.9.3.8.8zm-7.6 4.9l-.9.4.8.8zm8.1-9.3l-.9.4.8.8zm-1.6 2.9l-.9.4.8.8zm.6 4.5l-.9.4.8.8zm-5.4 4.2l-.8.4.7.8zm6-5.5l-.8-.5-.4 1.1z"/><path d="M208.8 77.4l-.5 1.1 1.4.1zm1.5.5l-.6 1.1 1.4.1z"/><path d="M207.9 78.4l.5.1-.1-.5zm3.5-5l-.8.1.6.8zm-1.7 4.3l-.4.1.3.4zm3.5-.7l-.5.1.4.4zm-1-1.9l-.4.1.3.4zm-3.9 3.9l.2.2.1-.3zm.8-2l-.4.3.5.3zm5.2-3.5l.6.1-.3-.5zm8.8-13.9h-.4l.2.3zm-4.7 10.8l-.5-.2.1.5zm2.1-8.3l-.1.4.4-.1zm-.6.2l-.4-.2-.1.5zm-3.5 7.3l-.3.4h.5zm-3.3-1.2l-.8.9 1.3.2zm1.3 3.6l-.3-.2-.1.5zm-.1-1.3l-.6-.3v.8zm-2.9-4.1l.8.6.3-1.1zm1.3-1.3l.5.3.1-.5zm.9.9l.4.4.2-.7zm-5.1 4.6v1l1.1-.7zm3.5 0l.8-.4-.7-.7zm.3.9l.3.4.2-.4zm1.3-6.6l.9.9.5-1.4zm-.5 2.7l1.1-.7-1.2-.7z"/><path d="M210.4 67.7l.8-.6-.9-.6zm2.5-2.1l-.4.7h1zm1.8 2.4l-.5.1.2.5zm-3.7 2h1.3l-.6-1.4zm-1.1-2l.1.5.4-.4zm-.6.2l.1.5.5-.3zm5.9-1.1l-.9.4.9.8zm.3 1.5l-.8.4.7.6z"/><path d="M222 60.7l-.8.5.9.4zm-12.3 7.2V67l-.9.5zm.9.8l-.9-.2.2 1zm-1.2-.3l-.7-.8-.2 1.2z"/><path d="M209.5 69.6l-.1-1-.9.5zm1.5-2.5l.4-.4-.6-.3zm-.3 0l-.9.4.7.6zm-2 .4l.5.3.1-.7zm2.6-2.5l-.3 1.2 1.4-.1zm-2.2 6.4l-.3 1.1 1.3-.1zm2-1.2l.4.2-.1-.4zm-1 1l.4.1-.1-.4zm-.8-.3l.6.1-.1-.8zm3.8-3.3l-.8.3.8.6z"/><path d="M211.3 68.3l1.4-.3-1.1-1zm-2.1-2.5l1.2-.1-.7-.9z"/><path d="M210.7 68.1l.4.7.5-.7zm-1.9-1l1.1-.2-.7-1zm-.3 3.6l1-.6-1-.7zm3.7-2.3l-.4.2.5.3z"/><path d="M212.9 70.8l-.3.2.3.3zm-3.3-4.2l.9-.2-.5-.8zm4.5 3.2l.5.1-.2-.5zm-4.1.7l.5.3.1-.7zm.2-1.3v.7l.7-.3zm-1.1.5l.6.4.1-.8zm-.2 1l.6.3v-.7zm4.3 4.1l-.3.2.3.3zm-.9-.9l-.3.1.3.4zm-4.1 7.8v.5l.5-.1zm-.8.7v.5l.5-.1zm2.6-1.1l-.1.5.5-.1zm-10.1 11.1l-.1.4.5-.1zm-.8 2.8v.4l.5-.1zm2.8-2.9l.3.2.2-.5zm7.5-13.4h-.8l.5.8zm-2.2 2.9l-.8-.4v1.1zm1.4-.5l-.9-.4V82zm-2.2 2.1l-.1-.9-1.1.5zm2.9-2.9l-.7-.5-.1.9zm-1.3 3.8l-.4-.3v.5zm1.6 1l.4.4.1-.5zm0-2.6h-.3l-.1.4zm2.1-11.4l-.4.1.4.3zm4.2-6l-.8.7 1 .5zm-15.2 17.3l1.4.5-.3-1.1zm-1.6 2.5l.3.8.7-.7z"/><path d="M199.9 85l.4.8.6-.6z"/><path d="M199.4 86.7l1.5-.2-.8-1.3zm2.1-2.3l-.6 1 1.2.3z"/><path d="M198.3 87.1l1.1-.4-.9-1zm2.4-3.5l-.9.1.5.9zM200 85l-.2-.9-.9.6zm2.7-3.6l-.8.4.8.7zm-2 2.5l1 .1-.5-1.2z"/><path d="M200.4 84.7h1.1l-.4-1.1zm1-.3l1 .6v-1.3zm-3.6 1.4h1.1l-.5-.9zm2.7-3l-.5.5.6.4z"/><path d="M199 84.2l-.5.7.8.2zm-1.2 1.6l-.3.8.7-.1zm6.2-4.1l-.1-1-1.1.6zm-3.9 2.5l-.3-.7-.7.7zm2.8-2.3l-.5.8 1 .2zm1.3 4.4l.1.3.3-.2zm-1.9-.8l.7.8.4-1.1zm2 2.6l.2.8.6-.7zm.9-6.8l-.2.9.9-.1-.2-.7zm-8.8 10v1.2l.7-.5z"/><path d="M204.8 82.1l-1.3 1.1 1.5.5zm.1-1.9l-1.3 1.1 1.5.5zm-2.1 2.6l-.5.4-.3.5 1.2.3zm-3.6 8.2l-1.1.4.9.7zm7.7-11.1l-1 .5.8.7zm-4.6 5.6h-1.4l.6 1.3zm-5.3 8.4l.6-.8-1-.1zm5.3-5.3h.7l-.2-.8z"/><path d="M204.4 83.3l-1.1.7 1.3.8zm.3 2.1l-.7.2.7.7zm-2.4-.5h1l-.4-1zm-3 3.5l.8.6.3-1.1zm1.3-1.3l.5.3.1-.5zm.9.9l.4.4.2-.7zm-3.2 1.4l.8-.5-.9-.7zm2.5-2l-.4.7h1zm1.8 2.4h-.5l.2.6zm-3.4 4h-.5l.2.6zm-.8 2.7h-.5l.3.6zm-.6-6.7l.1.4.4-.3zm-.6.2l.1.5.5-.3zm0 4.4l-.7.4.7.6z"/><path d="M197.6 89.7v-.9l-.9.5zm.9.8l-.9-.2.2 1zm-1.2-.3l-.8-.7-.1 1.2zm.1 1.2l-.1-1-.9.5z"/><path d="M198.9 88.9l.4-.5-.5-.2zm-.3 0l-.9.4.7.6zm-2 .4l.5.3.1-.7zm2.6-2.5l-.3 1.2 1.4-.2zm1.8 2.6l-.8.3.8.6zm-1.4.2l.5-.1-.4-.3zm-2.7-1.9l1.2-.1-.7-1zm1.7 2.2l.4.7.5-.8zm-2-.9l1.2-.3-.9-.9zm3.5 1.2l-.4.2.5.3z"/><path d="M197.5 88.4l.9-.2-.5-.8zm.9 3.3l-.8.6 1 .5zm13.2-21.6l-1.1.5 1 .6z"/></g></svg>