<svg xmlns="http://www.w3.org/2000/svg" viewBox="0 0 480 480" xmlns:v="https://vecta.io/nano"><linearGradient id="A" gradientUnits="userSpaceOnUse" x1="239.687" y1="99.997" x2="219.824" y2="59.7"><stop offset=".007" stop-color="#974c36"/><stop offset=".983" stop-color="#c06b43"/></linearGradient><path d="M201.1 101.7h65.6c3.8 0 6.4-2.3 6.2-6.2s-2.7-6.2-5.2-8.1c-2.5-1.8-3.2-4.9-1.7-7.9s2.2-5.5-1-9.2-4.7-5.5-4.7-10.9-3.2-6.2-5-6.9-3-3.2-3.9-4.5c-1.3-2-3.9-3.5-7.4-2.3-2.7.9-5 0-6.7-1.5s-5.5-1.8-7.9-.8c-2.3 1-3.2 3-4.2 4.4-1 1.3-3.4 2.9-6.4 3.4s-5.7 2.2-7 4.7-.3 6.2-.2 8.4-.3 4.2-4.2 5.9-5.7 6.4-4.4 9.9 2 5.7.8 7.7-3.7 2.9-5.7 5.5c-1.3 1.9-2 7.8 3 8.4z" fill="url(#A)"/><path d="M226 79l-7.5 24.5-2.2 5.7s3.2 4.1 10.8 5.7c5.2 1.1 8.7 1.2 11 1 1.9-.2 4.2-.6 3-4.1-1.7-5.2-1.1-8.5-1.1-8.5l2.7-14.7L226 79z" fill="#ea9d7d"/><linearGradient id="B" gradientUnits="userSpaceOnUse" x1="229.123" y1="95.871" x2="235.995" y2="87.023"><stop offset="0" stop-color="#bc5a32" stop-opacity="0"/><stop offset=".99" stop-color="#bc5a32"/></linearGradient><path d="M224.8 92.2c2.5 3.8 6.9 7 9.4 8.2 3.5 1.7 6 2.1 6 2.1l2.2-12.2L226 79l-.9 1.7-.7 2.8c-.1.1-1.9 5.2.4 8.7z" fill="url(#B)"/><g fill="#ea9d7d"><path d="M252.6 62c1.1 2.1 2.1 4.1 2.1 5.3-.1 3.8-.4 8.9-1.1 12.9-1.1 6-4.1 9-7.3 10s-8.6-1-12.5-3c-3.3-1.7-5.2-3.5-5.7-5.6-.5-2.2-1.5-5-1.5-5l1.8-4.8s4.3-4.3 9.2-7.7c5.8-4.1 10.6-6.4 10.6-6.4s2.4.7 4.4 4.3z"/><ellipse cx="224.3" cy="75.5" rx="5.3" ry="5.7"/></g><path d="M216.9 109.4h-.1a.55.55 0 0 1-.3-.5l4.7-14.4c.9-3 3.6-13.1 3.6-13.1a.55.55 0 0 1 .5-.3.55.55 0 0 1 .3.5L222 94.7c-.8 2.7-4.7 14.3-4.7 14.3 0 .3-.2.4-.4.4z" fill="#cf7653"/><linearGradient id="C" gradientUnits="userSpaceOnUse" x1="224.389" y1="78.837" x2="224.726" y2="73.51"><stop offset="0" stop-color="#cc7a5e" stop-opacity="0"/><stop offset=".924" stop-color="#aa5f4b"/></linearGradient><ellipse cx="224.6" cy="75.5" rx="2.4" ry="2.5" fill="url(#C)"/><g fill="#b76349"><path d="M227.8 79.1c-.9 1-2.1 1.6-3.4 1.6-2.7 0-4.9-2.4-4.9-5.3s2.2-5.3 4.9-5.3c1.9 0 3.6 1.2 4.4 2.9 0 0 .2.1.5-.1s.2-.6.2-.6c-1-1.8-2.9-3.1-5-3.1-3.2 0-5.8 2.7-5.8 6.1 0 3.3 2.6 6.1 5.8 6.1 1.4 0 2.4-.4 3.4-1.2l-.1-1.1z"/><path d="M243.3 90.8c-1.1 0-2-.2-4-.7-3.2-.8-7.7-3.3-10-5.5-2.2-2.2-2-4.3-2-4.4 0-.2 0-.5.2-.5s.3.2.4.4c.1.4.1 2.1 1.9 3.9 2.1 2.1 6.6 4.5 9.6 5.3 3.1.7 3.7.9 6 .7 2.2-.2 3.3-1 3.3-1 .4-.3.5-.3.3 0-.2.2-1.3 1.3-3.5 1.7-.9.1-1.4.1-2.2.1z"/></g><g fill="#a84d3b"><path d="M228.8 84.8l.2.5.4-.4z"/><path d="M228.8 84.2l-.3.9 1.1-.2zm5.3 3.8v1.1l1.1-.5zm-2.7-1.7l-.1 1.1 1.1-.4zm-1.5-1.1l-.2 1.1 1.2-.3z"/><path d="M228.1 83.2l-.4 1h1.2zm7.5 7.2l-.5-.6-.4.7zm-1.4-1.1l-.6-.8-.3.9zm4.1 2.1l-.7-.7-.2.8zm3 1.1l-.7-.8-.3.9zm-5.3-3.6l-.6-.3v.9zm1.4 3.1l-.5-.5-.3.7zm-3.9-4l-.6-.4-.1.9zm5.3 2.1l-1-.4.1 1.2zm1.9.3l-.8-.1.2.9zM242 92h-.8l.3.7zm-2.8-.2l-.3-.7-.5.7zm2.4 2.3l.1-.7-.8.2zm-.2 1.3l.1-.7-.8.2zm-1.7 0l-.4.3.5.3zm.3-3.9l-.4.4.6.3zm2.3-.7l-.6-.1.2.6zm-1.9 5.8l-.4.3.6.3zm-9.9-10.4l-.4.3.5.3zm-3.4-4.6l-.4.3.5.3zm10.1 9.4l-.3-.3-.1.5zm-2.8-.8l.1-.4h-.5zm1.4.9l.2-.4h-.5zm2.1 2l.2.5.5-.4zm2.9-2l-.3.3.4.2z"/><path d="M241 90.6l-.5.4.6.3zm-1.2.4l-.4.3.4.2zm.4 7.1l-.4.2.4.3zm-1.1-1.1l.2.4.3-.4zm-.1-2.4l.2.4.3-.4zm1.9.9l-.3-.2-.1.4zM227 90.8l.2.2.2-.3zm1.9-1.2l-.2.2h.3zm2 3.5l-.3-.1.1.4zm-1-1.7l-.2.3h.4zm6.9 3.2l-.1.6.6-.3zm-.9-4.5v.5l.5-.2zm0-1v.5l.6-.3zm-7.7-3.1v.6l.5-.3zm12 7.3l-.5.1.4.4zm-1.5 4.2l-.2-.4-.4.4zm.3-5.2l.3.4.3-.5zm1.6.6l.3.5.3-.6zm1-1.9l-.3.4.5.1zm-.6 3.2l-.4-.3v.6zm-11.3-8.9l-.6.4.7.4zm-2 .8l-.3-.3-.1.5zm-2-1l-.2-.2-.1.4zm-.5 3.1l.1-.4h-.4zM229 86l.2.4.4-.4zm-1.2-1l.3.6.5-.5zm-.2-2.7l-.4.6.8.1zm3 4.8l-.3.2.4.3zm.8-.4l-.3.2.4.2zm.8.4l-.3.2.3.3zm-1.5 2.7l-.2-.2-.1.4zm-6-3.4l.2.3.3-.4zm2.3-2.3l-.3.2.4.2zm-.1 3.7l-.3-.2-.1.4zm.3-4.1l.2.3.3-.4zm1 .5l.2.4.3-.4zm-2.3-1l-.3.3.4.1zm.3-1l-.3-.2-.1.4zm5.3 5.5v.4l.5-.2zm1.9.8l-.4.1.3.3zm-.8-.8l-.4.1.3.3zm6.7 3l-.4.1.3.3zm-1.5-.6l-.3.1.2.3zm-4.7.7l-.1-.3-.3.3zm5.6 5l-.1-.3-.3.3zm-6.1-6l-.2-.3-.3.3zm2.6-.6v.5l.4-.2zm1.6.4v.4l.4-.2zm1.8.9l-.4.1.3.3zm-1.4 2l-.2-.3-.2.3zm-4.3-.1v.4l.4-.2zm1.9-1l-.3.1.2.3zm3.4.8l-.1-.3-.3.3z"/></g><g fill="#964c38"><path d="M226.8 76.1v-.4l-.4.1zm-1.7-3l-.4.1.3.4z"/><path d="M225 73.2l-.5.6.9.2zm-.9-.1l-.6.2.5.5zm2.6 1.5l-.3.2.4.2zm-.9-.5l-.3.3.4.1z"/><path d="M226.4 74.8l-.2.3.4.2zm-2.2-.8l-.3.2.5.2z"/><path d="M223.7 73.7l-.4.5.7.2zm1.7 1.8l.2.2.1-.3zm1.1-1.2l-.1.2h.3zm.2.9l-.1.3h.3zm-3.6-1.6l-.4.4.6.1zm.8 1.5h-.2l.1.3zm.6.9l-.1-.3-.2.2zm.8-2.5l.2-.2-.3-.2zm-1.2 0l-.3.3.5.1zm-.5.3l-.3-.2v.4z"/><path d="M223.6 73.8v-.3h-.3zm2.4.4l.2.3.2-.3zm-.4-.9l-.1.7.7-.2z"/><path d="M225.3 73.8l.3.2.1-.4zm-2.4.9l-.2.3h.3zm1.8-1.6l-.3-.1.1.4zm-.6 1.8l.2.3.2-.4zm.8 1.3l-.1.2.3.1zm-2.1-2.2l-.2.3.4.1z"/><path d="M223.7 76.2l-.3-.1.1.3zm-1.1-1.6l.3-.1-.2-.3z"/><path d="M222.3 75.7h.2l-.1-.3zm.2-1l.2-.1-.1-.2zm.7-.3v.3l.3-.2zm-1 .9h.4l-.2-.4zm.6.1v.2l.3-.2zm2-1.3l-.3.2.3.2zm1.4 1.5l.1.4.3-.2zm-2-2.2l.1.4.3-.3zm1 1.1l-.2-.2-.1.3z"/></g><path d="M238.2 68.5a.78.78 0 0 1-.2-1c.1-.1 1.7-2.5 5.3-2.2.4 0 .7.4.7.8s-.4.7-.8.7c-2.7-.2-3.8 1.5-3.9 1.6-.3.4-1 .2-1.1.1zm14.9-1.8c-.1 0-.3 0-.4-.1-.7-.5-1.5-.4-1.6-.4-.4.1-.8-.2-.9-.6s.2-.8.6-.9c.1 0 1.5-.4 2.8.7.3.2.3.7.1 1-.1.3-.4.4-.6.3z" fill="#b76349"/><path d="M243.7 84.6h0c-3.8-.2-5.4-2.9-5.8-4.4-.1-.4.1-.8.5-.9s.8.1.9.5c0 .1.8 3.1 4.4 3.3.4 0 .7.4.7.7 0 .5-.3.8-.7.8z" fill="#cf7653"/><path d="M247 79.1h-.2c-.4 0-.6-.4-.6-.7 0-.4.4-.6.7-.6.2 0 .7 0 .9-.6s-.3-1.5-.5-1.8-.2-.7.1-.9.7-.2.9.1c.1.2 1.2 1.6.8 3-.4 1.2-1.5 1.5-2.1 1.5z" fill="#b4603f"/><g fill="#4f2b23"><circle cx="241.7" cy="72.3" r="1.4"/><path d="M241.5 71.9c-.2 0-.8 0-.9-.2-.1-.3.4-.6.7-.8 1-.5 1.8-.4 2.1-.4a.47.47 0 1 1 0 1c-.3 0-.9 0-1.7.3-.1.1-.1.1-.2.1z"/><circle cx="252.2" cy="71.5" r="1.4"/><path d="M251.9 71.1c-.2 0-.8 0-.9-.2-.1-.3.3-.7.7-.8 1-.5 1.8-.4 2.1-.4a.47.47 0 1 1 0 1 4.54 4.54 0 0 0-1.7.3c-.1.1-.1.1-.2.1z"/></g><g fill="#8e483a"><path d="M238.4 63.3l-1.1-.3.1 1.1zm-10.9 6.9l.5.3.1-.6zm2.4-2.6l.4-.3-.5-.3zm-3 2l.5.4.4-.7zm7.6-4.7l-.3-.6-.5.5zm5.3-2.5l.9-.6-1.1-.3z"/><path d="M239 62.9l.9-.5-1-.7zm-7.4 5.9l.4-.4-.7-.2zm1.3-3.8l.5.3.1-.5zm-1.2 1.7l.5.3.1-.7zm-1.9 1.9l-.6.1.3.7zm.8.2l-.2-.5-.5.5zm3.9-9.9l-.1-.5-.5.3zm3.3 1.6v-.6l-.6.3zm-8.5 9l-.5.2.4.4zm7.9-10.6l-.2-.4-.2.4zm-6.7 1l.1-.2-.3-.1zm2.6-.9l-.3-.3-.2.5zm-5.3 2.3l.2-.3h-.5zm1.7 3.9l.2-.2-.5-.1zm-3.5.1l.3.1-.1-.4zm1.3-1.2h.3l-.1-.4z"/><path d="M229.1 68.7l-.8-.1.2.7zm3.9-1.1l-1-.4v1.2zm4.6-5.2l-.5-.3-.1.7zm-8.5 8.2l-.3-.7-.6.4zm.8-.3l-.9-.3.2.9z"/><path d="M229.2 70.9l-.7-.2.2.7zm1.4-3l-.3-.5-.4.5z"/><path d="M228.3 71.3l.3-.5-.7-.1zm9.7-10.6l.5-.2-.4-.3z"/><path d="M238.3 61.9l.5-.1-.4-.3zm.1-1.5l.3.4.3-.5zm-1.2 2.5l-.6-.2.2.7zm.4-1v-.4l-.5.2zm.8 1.4l.6-.4-.8-.5zm-3.3-2.5l.4-.1-.3-.4zm2.8.6l.4-.1-.3-.3zm1.8-.8l-.5-.1.2.6zm1.1.4l-1-.2.3 1zm-1.1.4l-.6-.1.2.7zm-1.5-2.1l.5-.2-.4-.3zm-6.5 6.9l.4-.6h-.8z"/><path d="M233.2 67l.2-.6h-.6zm-.3.6l.5-.4-.5-.3zm.3-2.4l.3-.5h-.6zm-.8.9l-.5-.2.1.6zm4.9-2l-1.1-.7-.1 1.6zm-1.9-2l-.3-.3-.1.5zm-5 7.8l-.4-.1-.1.5zm1.1-1l-.4-.1v.4zm4.3-5.5l-.4-.3-.1.6zm-.2 1.1l-.8-.1.3.9zm-2.8 1.6l.2-.5h-.6zm.8.4l.2-.5h-.6z"/><path d="M233.8 65.5v.5l.4-.3z"/><path d="M233.7 65.8l.4.7.4-.6zm-1.5 1.1h.6l-.2-.5zm.4-1.9l.1-.5h-.5zm1.8-.4l.4.1-.1-.6zm2.3-2.1l-.6-.3-.1.7zm2-.1l-.6-.3-.2.7zm-3 2.8l-.6-.3v.6zm-.2-.6l.1-.7-.7.2z"/><path d="M236.5 63.6l.1-.5-.5.1zm-.6 1.6l.3-.8-.8.2zm1.2-1.3l.2-.4-.5.1zm-4.5-.6l.4-.1-.3-.4zm-4.3 6.7l.3-.3-.6-.4zm.2.1l-.5.2.4.4zm2.6-2.8l-.7-.1.2.7zm.1.8l-.6-.1.2.8z"/><path d="M230.6 67.3l.6-.2-.5-.4zm-1.4.9l.4-.1-.2-.4zm7.9-5.1h.8l-.5-.8zm-3.1 3.4l-.6-.1.2.6zm-2.3-3l-.5-.2.1.7zm3.8 2l-1.1-.4.1 1.2zm-3.7 1.5l-.5-.2.1.6z"/><path d="M231.8 66.4l-.6-.1.1.7zm-1.4 3.4l.7-.5-.7-.5zm.9-1.8l.5-.1-.3-.4zm-1.5 1.6l.5-.2-.3-.4zm.9-7l-.6-.2.2.6zm-2.3 4l-.6-.2.1.6zm-.4 1.8l-.6-.2.1.6zm-3.6-2.4v-.3h-.4zm2.5 3.4l.1-.3-.4.1zm-2.4-.6h.4l-.2-.4zm3-2.3l-.6.1.3.5zm3.8-1.2l.1-.5-.5.2zm2.5-1.7l.4.4.2-.6zm-.1 2.2l-.3-.5-.4.6z"/><path d="M233.8 63.5l.3-.7-.9.1zm.7-.4l-.4-.1.1.5zm.9-.9l.1-.5h-.5zm-1.1-1.7l-.6-.2.1.5zm-1.8 2.3l-.6-.1.1.6zm-3 4.8l-.5-.1.1.6zm.8-1.4l-.5-.1v.6zm7-4.3l-.5-.3-.1.7zm-3.5.4l.1-.4-.6.2zm-.5 2h.5l-.3-.6zm12-5.3l-1-.3-.1 1zm-4.1 1.3l-.2-.6-.5.4zm5.6-2l.9-.6-1-.4zm1-.4l.9-.5-1.1-.4z"/><path d="M248.6 57.4l.9-.5-1.1-.4zm-2.6 1.3l.9-.5-.9-.7zm-4.2-4.4l-.1-.5-.5.3zm2 2.4l.1-.6-.7.3zm5-1.6v-.7l-.6.4zm-4.3-.5l-.2-.4-.2.3zm2.6.2l-.1-.4-.3.4zm-2.4 3.2l-.5-.3-.2.7z"/><path d="M245.2 56.4l.5-.1-.3-.4zm2.8-.1l.5-.1-.4-.4zm-2.6 1.4l.5-.2-.4-.3zm.7-1.8l.3.4.3-.4zm1.5-.2l.3.4.3-.5zm-3.5 2.9l-.5-.3.1.7zm.6-1.1v-.4l-.5.2zm.6 1.5l.7-.3-.8-.6z"/><path d="M242.2 56.3l.5-.1-.4-.4zm2.8.8h.5l-.3-.5zm1.9-.6l-.5-.2.1.7zm1.5 0l-.6-.2.2.7z"/><path d="M248 56.9l-1-.3.3 1.1zm-1.2.4l-.6-.2.2.7zm2.8-1l-.7-.1.2.7zm-4.1-1.2l.5-.2-.4-.4zm-1.3 4.7l-1.1-.8-.3 1.5zm-1.8-2.2l-.2-.3-.2.4zm.3 1.3l-.4-.3-.1.6zm-.3 1.1l-.8-.2.3 1zm-1.9.8v.5l.4-.2z"/><path d="M240.4 61.2l.3.6.4-.5zm.8-1.2l.4.1v-.5zm2.4-1.8l-.5-.4-.1.6zm2.1 0l-.6-.4-.2.7zm-3.3 2.5l-.5-.4-.1.7zm-.1-.6l.1-.7-.7.2z"/><path d="M243.3 59.2l.2-.5-.5.1zm-.7 1.5l.4-.8-.9.2zm1.4-1.2l.2-.4h-.5zm.1-.9l.8.2-.4-.9zm-2 2.4l-1-.5-.1 1.2zm-1.5-2.1l.5.4.2-.5zm-.2 2.2l-.3-.5-.4.5zm-.5-2.1l.3-.6h-.8zm1.5-.5l-.3-.2v.5zm.3-.3l.2-.4-.5-.1zm-2.4-1.5l-.6-.3.1.6zm5.1.8l-.5-.3-.2.6zm-3.6.2l.1-.5-.6.2zm-.7 1.9h.5l-.2-.5zm-10.7 10.3l.4-.2-.4-.4zm2.8-8.6h.5l-.3-.4zm-6.4 7.6l.3-.2-.3-.2zm.3-1.8l.2-.2-.3-.2zm-.2 2.4l.5-.3.2.6zm-6.8 2l.3.4.4-.4zm1.7-1.5l.3.5.6-.4zm3.8-1.9l-.7-.1.1.7zm-1.4.4h-.5l.2.5zm1.1.9l-.4-.6-.4.6z"/><path d="M225.7 68.4l.1-.7-.8.1zm-2.3 1.1l-.6-.7-.3.9zm-.9.3l-.5-.6-.1.8zm4.1-1.2l.5-.4-.6-.4zm-4.5-.1h.4l-.2-.5zm.1.2l-.5-.1.2.6zm2.2.5l.5.1-.1-.4zm-.3-2.1l-.5-.4-.1.5zm-3.3 2.1l.2-.3-.5-.3zm-1.2.2l.3.1-.1-.4zm6.1 0l-.1-.5-.5.4zm-2.6-.5h.4l-.1-.5zm-2-1.1h.3l-.2-.4zm-1.5 3.3l.2-.6.5.3z"/></g><g fill="#7f3e33"><path d="M221.1 94.7l-1 .4.7.8zm-9.1 5h.5l-.2-.5zm6.9-1.3l-.5-.4-.2.7zm2.7-5.4l.3-1-1 .5z"/><path d="M221.4 93.9l.2-1-1.1.2zm-8.9 7.8h.6l-.3-.6zm5.1-2.4h.6l-.2-.5zm-.2 2.1l.6-.1-.2-.6zm-6.1-1l-.6-.3-.1.7zm.4.7l.2-.6-.7.1zm3.6-7.3l-.4-.3-.1.6zm3.6-.9l-.5-.5-.2.7zm-1.7-.7l-.4-.2.1.4zm-4.4 4.6v-.3l-.3.1zm1.6-2.2l-.5-.1.2.5zm-3.1 4.1v-.3l-.4.2zm3.5 2.5v-.3l-.4.2zm-4.2-5.8l.2.3.2-.4zm1.7 6l.3-.1-.3-.3zm-1.6-1.4l-.5-.6-.4.7z"/><path d="M214.4 101.7l-.5-1-.8 1z"/><path d="M215.7 101.7l-.5-1-.8 1zm1.4 0l-.5-1-.8 1zm1.7 0l-.5-1-.8 1zm1.2-7.3l-.7.1.4.6zm-7.6 6v-.6l-.6.1zm6.8-7.5l.2-.5-.5.1z"/><path d="M220.2 93.6l.3-.4h-.5zm-1.1-1.1h.5l-.2-.5zm.8 2.6l-.5.2.5.4zm-.3-1.1l-.2-.3-.3.4zm1.5.7l.3-.8-1 .1zm-4.1 0l.3-.3-.5-.1zm2.6-1.2l.2-.3-.5-.1zm.7-1.8l-.5.4.5.3zm.9-.4l-.8.5 1 .6zm-.3 1l-.5.4.6.4zm-2.6-.5l.2-.5h-.6zm-1.1 9.1v-.7l-.7.4z"/><path d="M218.9 100.8l-.1-.6-.6.3zm.1.7l.2-.6h-.6zm-1-2.2v-.6l-.6.3zm-.3 1.2l-.5.1.4.4zm3.1-4.6l-1.3.2.8 1.3zm-2.7-.4h-.4l.1.4zm-7 6.2l-.5-.7-.7.7zm1.3 0l-.2-.3-.3.3zm6.7-5.4h-.5l.4.5zm.6 1l-.8.4.9.5zm-1.6 2.9l-.1-.5-.5.3zm.9 0l-.1-.5-.5.3zm-.4-1l.3.4.2-.4z"/><path d="M218.7 99.6l.7.3v-.7zm-.7 1.6l.5-.2-.5-.4zm-.7-1.8l-.1-.5-.5.3zm1.5-1.3l.4-.2-.4-.4zm.5-3l-.6.1.3.5zm1.5-1.4l-.7.2.4.6zm-.7 4.1l-.6.1.4.6zm-.5-.4l-.3-.6-.4.6z"/><path d="M219.8 96l-.2-.4-.3.4zm.4 1.7l-.2-.9-.5.7zm.3-1.8l-.2-.5-.3.4zm-3.9 2.3l.3-.3-.6-.2zm-3.4 2.1l-.5-.6-.3.7zm1.8.4l-.5-.6-.3.7zm1.1.4l-.5-.5-.3.7zm1-1.7l-.4-.6-.4.7z"/><path d="M215.9 99.4l-.4-.5-.4.6zm-3.2 1.6l-.4-.5-.4.7zm.1-1l.5.2-.1-.6zm3.9 1.4l.5.2v-.6zm.2-1.6l.5.2-.1-.6zm-1 .9l.5.2-.1-.6zm-4.8-1l.4.2.1-.5zm8.9-4.5l.6-.4-.9-.4z"/><path d="M219.3 100l-.5.2.4.4zm-3.5-1.4l-.5.1.4.5zm4.3-.2l-1.2.2.7 1zm-6.2 2.1l-.3-.5-.3.6z"/><path d="M214.2 100l-.4-.4-.3.5zm3.3-1.6l-.4-.4-.3.5zm-1.9 2.1l-.4-.5-.3.5zm-4.6 1.2h.8l-.2-.7zm1.9-.8l.4.3v-.5zm-2.2.2l.5.2v-.5zm3.8-2.8l-.6.2.4.4zm-2.9-.4l-.4-.5-.3.5zm-.7-.5l-.5-.5-.1.6zm5.5 2.9l-.2-.4-.3.4zm1.2-2.6h.7l-.2-.6zm1.1 1.9l-.5-.3-.1.7zm-1.1-2l-.2-.7-.6.6zm.4-.8l-.4.2.3.3zm.1-1.2l-.2-.4-.4.3zm-1.9-.6l-.6.2.4.4zm-.1 2.6l-.5.2.4.5zm-4.4 1.8l-.3-.4-.4.5zm1.6-.5l-.4-.4-.3.5zm6.1-4.7l-.6.1.4.6zm-2.5 2.4l-.2-.3-.3.5zm.7 1.9l.4-.3-.5-.3zm5.6-11.5l-1 .4.8.8zm-2.1 3.5l-.5-.3-.1.7zm2.6-5.2l.3-1-1 .5z"/><path d="M224 84.3l.3-1-1 .4z"/><path d="M224.3 83.4l.2-1-1 .4zm-.8 2.8l.2-1-1.1.2zm-6.1-.1l-.5-.3-.1.6zm3.1.2l-.5-.5-.1.7zm2.3-4.7l-.5-.5-.2.7zm-3.4 2.7l-.4-.1.1.4zm2-1.7l-.4-.1.1.4zm.7 4.1l-.7.1.5.7z"/><path d="M221.2 85.1l.3-.5-.5.1zm1.9-2.1l.2-.4h-.5zm-.8 2.9l.3-.4h-.5zm-.8-1.8l.5.1-.1-.6zm.8-1.2h.5l-.1-.5zm-.2 4.6l-.6.2.6.4zm-.4-1.2l-.3-.4-.3.5zm1.5.7l.3-.8-1 .1z"/><path d="M219.1 87.2l.2-.4h-.5zm2.5-1.5l.2-.3-.4-.1zm.9-1.8l-.5.3.5.3zm1-1l-.5.3.5.3z"/><path d="M223.5 83.4l-.8.5.9.6zm-.5 1.2l-.5.4.6.4zm1.2-2.7l-.6.3.7.4zm-3.8 2.1l.3-.5h-.6zm2.6 4.2l-1.3.2.8 1.3zm-2.8-.5l-.4-.1.2.4zm1 .8h-.5l.3.5zm.6 1l-.8.4.9.5zm-.9 1.9l.4.3.1-.4z"/><path d="M221.1 91.7l.7.3-.1-.7zm-.2-1.4l.4-.2-.4-.4zm.5-2.9l-.6.2.3.5zm1.5-1.3l-.7.1.4.6zm-.7 3.9l-.6.1.4.5zm-.5-.4l-.3-.6-.4.6zm.2-1.4l-.2-.4-.3.4zm.6 1.8l-.3-.9-.5.7z"/><path d="M222.7 88.2l-.2-.4-.3.4zm-.6-.7l.6-.4-.9-.3zm.2 2.9l-1.1.4.8.9zm-2.6-.6l.6.1-.1-.6z"/><path d="M221.1 91.7l-.6-.2v.7zm-1.8-1.3l-.2-.7-.6.6zm.8-1.4l-.4.1.3.4zm0-.4l-.2-.5-.4.3zm-2.8.4l-.7.2.4.4zm4.1-2.6l-.5.2.3.5zm-2.4 2.4l-.2-.4-.3.5zm.8 1.9l.4-.3-.5-.3zm-9.7 10.4l.4.1v-.5zm4.9-4.3l.4-.3-.5-.1zm-8.7 2.9h.6l-.3-.5zm.5 2h.6l-.3-.6zm-1.2-1.3l-.6-.3-.1.7zm.4.7l.3-.6-.8.1zm2-4.1v-.3l-.3.2zm-2.4 1.7v-.3l-.4.2z"/><path d="M209.1 101.2v-.3l-.4.2zm4.8-3.7l.2.2.2-.3zm-7.2 3.9l.3-.1-.3-.3zm-2.2-.4l-.5-.5-.4.7zm4.2.7l-.5-1-.8 1zm1.4 0l-.5-1-.8 1zm-3.4-1.3l.1-.6-.6.1zm-1.5 1.3l-.3-.3-.3.4z"/><path d="M206.7 101.7l-.2-.3-.3.3zm.8-1.4l-.4-.6-.4.7zm1.8.4l-.4-.6-.4.7zm.9-1.3l-.4-.5-.4.6z"/><path d="M207 101l-.4-.5-.4.7zm.1-1l.5.2v-.6zm-1.7-.3l.4.2.1-.5zm2.8.8l-.3-.5-.3.6z"/><path d="M208.5 100l-.4-.4-.3.5zm1.4.5l-.4-.5-.3.5zm-4.6 1.2h.8l-.2-.7zm1.9-.8l.4.3v-.5zm-2.2.2l.5.2v-.5zm4.8-2.6l-.6.2.4.4zm-2.8-.4l-.4-.5-.3.5zm6.4-.3l-.4-.4-.2.6zm-7.3 1.6l-.4-.4-.3.5zm2.3-.5l-.4-.4-.3.5zm-3.9 2.2l.3.1v-.5zm-3.3-.5h.5l-.2-.5zm1.4 1.1h.6l-.3-.6zm1.2-4.7v-.3l-.3.2z"/><path d="M201.7 97.6v-.3l-.4.2zm.8 3.8l.3-.1-.3-.3zm-2.7 0v-.5l-.5.2zm4.7.3l-.5-1-.8 1z"/><path d="M201.1 101.7l-.2-.4-.4.3zm1.4 0l-.2-.3-.3.3zm2.6-1l-.4-.6-.4.7zm-2.3.3l-.4-.5-.4.7zm.1-1l.5.2v-.6zm-.8-.2l.4.2v-.4zm1.9.7l-.3-.5-.3.6z"/><path d="M204.3 100l-.4-.4-.3.5zm-3.2 1.7h.8l-.2-.7zm1.9-.8l.4.3v-.5zm-2.2.2l.5.2v-.4zm3.8-1.9l-.4-.5-.3.5zm-4.6.1l-.4-.4-.3.6zm5.2.6l-.3-.4-.4.6zm-4.9 1.2l.3.1v-.5zm9.1-4.3l.3-.3-.5-.1z"/></g><g fill="#d88a6f"><path d="M227.5 44.9l1 .4-.2-1.2zm7.2-.8l-.5-.1.1.5zM243 46l-.3.2.4.3zm-1.9.6l-.3-.4-.3.4zm-11.2-2.9l-.1.8.9-.2zm7.7 3.1l-.2.5h.5zm1.9-1.2l.2 1 .8-.7z"/><path d="M238.5 45.1l.1 1 .9-.5zm-11.9.8l-.5.6.9.3zm-.5.7l-.5.8 1 .3zm.2 2.3l-.7 1 1.4.3zm-1.4-.7l-.7.7.9.4zm9.9-5.2l-.8-.1.2 1zm-3.2 1.9l-.3-.9-.8.6zm1.7 0l-.1-.9-.9.5zm1.1 2.4l-.1-.8-.9.5zm-2.7-.3l-.6-.7-.4.9zm3.3-2l.7.9.4-1.3zm.1-1.9l.3 1.4 1.2-.9zm0 2.9l-.2.4h.5zm-6.3 3l-.2.5.5-.1zm-1.7.4l-.1.5.5-.1zm0-.9l-.1.5.5-.1z"/><path d="M226.2 50.3l-.1.5.5-.1zm-.7-.2l-.1.5.6-.1zm-.5.4l-.1.4.5-.1zm8.9-6.2l-.2.5.5-.1zm7.7 2v.5l.5-.2zm-7.1-2l.3.3.1-.5zm1.9 2.1l.4.3.1-.5zm2.4 0l-.5-.1.2.4zm-11.2 4.8l.4.1-.1-.5zm.5-2.4v.4l.3-.3zm3.1 1.6h-.3l.2.3zm-1.4-.8l.1.2.3-.2zm2-1.1l-.3.1.3.2zm2.1-.9l-.2-.2-.2.3zm2-1.4l.3.4.3-.5zm-3-3.4l.4 1 .7-.9zm-5.4 4.1l.5.4.1-.7zm10.3-2.3l-.6-.4-.2.8zm.7.5l-.6-.4-.2.8zm2.9 1.3l-.6-.3.1 1zm-8.3-2.6l-.5-.4.1.8zm2.9.5l.6.4.1-.8z"/><path d="M236.5 45.2l.5.4.1-.7zm-.4-.5l.4.4.1-.7zm-2.5 1.2l.1.5.4-.2zm4.7-.4l-.5-.1.2.6zm-13.2 4.2l-.2.4.6-.1zm-.5-.6l-.2.5.6-.1zm-.9 1l.6.3v-.9zm-.4 0l-.4.5.8.1z"/><path d="M227.3 46.1l-.3.2.3.2zm-3.6 4.1l-.2-.9-.9.7z"/><path d="M224.4 49.7l-.1-.9-.8.6zm1.8-2.2l1 .2-.3-1zm.7.6l.7.2-.1-.9zm1.5-1.7l.4.1-.1-.6z"/><path d="M227.7 45.2l-.1 1.4 1.4-.5zm-2.1 2.2l-.6.7 1.1.3zm1.8-2.5l-.8.9.9.1zm1.9 2l-.4.1.3.3z"/><path d="M226.4 49.2l.4.2-.1-.6zm-.4-.6l.9-.2-.8-.8zm-1.4 3.3v.4l.3-.2zm1.1-3.1h-.5l.5.6z"/><path d="M225.6 48.3l-.6-.2.1 1.1zm.1 3.4l.5.1-.1-.5zm1.9.5v.5l.4-.2zm-5.6-1.7l-.6.8 1 .2z"/><path d="M222.6 49.9l-.9.5.8.6zm.5 4.7l-.3-.3-.1.5zm.1-3.1l.4-.1-.3-.4zm3.5-.4l.2-.2-.3-.3zm-6.1-.4l.6.7.3-1zm-1.1.3l.6.7.3-.9zm-1.2.2l.7.8.2-.9zm-1.2.4l.7.7.4-1.1zm9.5.2l.3.3.1-.4zm.6-1l.4-.2-.4-.4zm-2.3 1.4l-.2.7 1-.2zm3.8-2.3l-.2.3.4.2zm-.3 2l-.3.3.4.2zm.2-6.8l.3.4.2-.5zm1.6-2l-1 .4.8.8zm-1.1.4l-.8.6 1 .9zm1.8 2.1l-.8-.3v1zm6.6.4l-.2-.2-.1.4z"/><path d="M230.4 45.3h-.4l.1.4zm1-2.4l.6.8.6-.9zm1 3.9l.4.3.2-.5zm-2.2-3.7l.6.8.5-1zm3 2.8l.3.4.3-.4zm2 .8l.2.5.3-.5zm-.1-3.3l-.4.3.4.1zm-1.2.6l-.4-.1v.4zm1.2 1.2l-.3-.3-.1.5zm5.1 2.3l.6-.7-1-.1zm-1.6-.8l-.2.4h.5zm3.2-.2l-.1.8.7-.4z"/><path d="M236.7 43.8v.5l.5-.3zm3.3 2.7l.6.1-.2-.5zm1.1.8h.6l-.3-.6zm1.5-1.1l-.4-.1.1.5zm-2.5.5l-.4-.1.2.4zm-8.3.7l.4.3.1-.5zm.4-1.9l-.3.4.4.1zm2.6.5l-.4-.1v.4zm-15.2 9.3l-.2-.2v.4zm1.8 2.5l-.3-.1.1.4zm-2.4.6h-.3l.2.3zm4-.4v-.3l-.3.1zm-6.1 1v-.3l-.3.2zm3.1-2.1v-.3h-.4zm1.9-1.9v.6l.4-.3zm1.5 2.4l-.2-.4-.2.4zm1.7-3.4l-.3-.1.1.4zm-.1 1.2l-.3-.1.1.4zm-7.7 2.7h-.3l.2.3zm-2.2 4.1l-.3.1.3.2zm11.4-7.9v-.3l-.3.1zm-3-1v-.3l-.3.1zm3.3.4l-.2-.4-.2.4zm8.8-9.1l-.3-.3-.1.5zm-3.4.2l-.8.2.6.8zm.2-.7l-.5.1.3.5zm-1.8 3.2l-.4-.4-.2.4zm-1.5-1.4v1.2l1.1-.5z"/><path d="M228.7 45.9l.1.3.3-.2zm1.9.5l.2.4.2-.4zm1.6-1l.4.9.5-.8zm-4 2.5l.5.8.4-.7zm-.1-1.2l.5.8.4-.7zm1.6.7l.4.8.4-.7zm2.8-.1l.4.8.4-.7zm-2.6-2.5h-.4l.2.5zm-.2-.7l-.7-.1.3.7zm-.8.2h-.6l.3.7zm2.8-1l-.7-.2.1.7zm1.3-.1l-.6-.3v.8zm-2.3 2l-.1-.3-.4.3zm.9.8l-.3-.3-.2.4z"/><path d="M230.9 45.5l.4.4.2-.7zm2.8-.3l.6.3-.1-.7zm-5.8 2.7l.5-.1-.3-.5zm-18.7 21.3l1 .5v-1.2zm-1.3.7l-.7.3.7.7zm-1 .5l-.8.5.8.6zm-2.6 2.3l-.6 1 1.3.3zm.7-.8l-.6.7 1 .3z"/><path d="M209.5 73.1l-.2.5.5-.1zm-2.5-.7l-.3.4.5.1zm1.5.5l-.1.3.4-.2zm0-1.8l.4.5.3-.6zm.2-.8l-.5.1.3.3zm-1.9.8l.9.6.1-1z"/><path d="M207.3 71.8l.5.6.3-.9zm2.6-1.1l.4.2v-.6z"/><path d="M209.3 69.6l-.4 1.2 1.5-.1zm-3.4 1.4l-.6.6.8.5zm3.3-1.7l-1.1.5.8.4zm-2.9 3.7l.4.3v-.6z"/><path d="M206 72.2h.9l-.5-.9zm-.2.3h-.4l.4.7z"/><path d="M205.8 72l-.6-.3.1 1.1zm4.5-2.4l.3.4.2-.6zm0 .7l.1.3.3-.1zm-1.9 1.9h.5l-.1-.5zm21.2-26.6l.5.2-.1-.5zm2.8-1l-.3.4h.4zm-.4 1.5h-.5l.2.4zm1.4-.6l-.4-.1.2.4z"/><path d="M231.3 47.3l-.1.4.5-.1zm1.8-1.9l-.3-.2.1.5zm1.7 1.5l-.1.6.6-.1zm1.3-1l.3.5.3-.5z"/><path d="M237.4 46.3l.1.4.3-.5zm-.9-.6l-.4.2.3.2zm-.2 0l-.3-.2-.1.5zm1 1l-.3-.1.1.5zm0-1.1l-.3-.1v.5zm-6.4 2l-.4-.2.1.5zm-19.7 11.8l1-.5-1-.8zm3.3 4.1l-.5.2.5.3zm1.8-4.4l-.3-.4-.3.5zm-3.8-1.8l.7.7.5-1zm6-5.3l.3.5.4-.6zm4.3-.3l.2.6.4-.5zm-11.3 10.1l.2 1.7 1.3-.7zm.4 2.5l.3.7.3-.7zm.7-.1l.1.6.5-.4zm.8-.9l.3.5.3-.6z"/><path d="M214.1 53.2l-.5.5 1.1.4zm-.1 3.7l-.4-.2-.1.5zm1.3-1.3l-.6-.3-.2.9zm1.1-1.8l.5-.1-.5-.5zm-.1 1.6l.2.6.4-.4zm-3.4 7.1v.4l.5-.2zm-.5.5l.2.4.4-.3zm2.4-4.5v.5l.5-.3zm14.1-8l.3.5.2-.5zm-9.1 3.7l-.2.4h.4zm-1.3.1h-.4l.1.4zm.7-.9l.1.4.3-.3zm2 1.2l-.4.2.4.3zm-.2 6.8l-.3-.2-.1.4zm-1.7 3.3l-.3-.1.1.3zm1.6.1v-.3l-.4.1zm-1.2-2.9l.1.5.4-.3zm1.5 2.3l-.2-.4-.2.4zm1.6-2.2l-.3-.1.2.4zm-.4-2.2l-.3-.1.2.3zm-3.3 1.7l-.4.2.4.3zm4.1-5.4l-.3-.2-.1.5zm-1.3 3.4h-.3l.2.3zm1.6 0v-.3l-.3.1zm2.1.1v-.3l-.4.1zm-3.6-2.9l.1.5.4-.3zm2.9 1.2l-.3-.4-.1.4zm2.2-.7l-.3-.4-.2.4zm-2-.7l-.3-.1.2.4zm5.9-7.4l-.1-.4-.3.4zm.2 2.1v-.3l-.4.1zm1.6-.4v-.3l-.3.1zm-3.2-2.7l-.1-.5-.6.2zm2.9 1.5l-.2-.3-.2.3zm2.2-.7l-.2-.4-.2.4zm-1.9-.7h-.3l.1.3zm-11.5 8.2l-.4.2.5.3zm.9-2.8l.1.5.4-.4zm-2-.9l.5-.1-.4-.4zm-2.5 0l.5-.2-.4-.4zm1.8-1.5l-.4.4.6.2zM214 65l.3-.1-.3-.3zm1.9-2.7l.2.3.2-.3zm-.9.9l-.3.1.4.3zm2.4-.1h.2l-.1-.4zm-2.5 10.5l-.2-.2-.2.3zm-3.1-2.4l.1-.3-.4.1zm5.1-14.6l.4.3.1-.7z"/><path d="M212.8 54.6l1.1.5-.4-1.4zm-.4 5.9l.5.1-.2-.7zm4.6-8.8l.2.5.4-.2zm3.7 1.5l-.4.3.5.3zm1.2-1.7l-.6.5.9.3zm-1.9.2l-.8.4.9.7zm-3.5 1.5l-.4-1.2-1.1.5zm1.3-1l.5-.2-.7-.1z"/><path d="M216.8 51.6l-.7.4 1 .7zm-1 8.1l.2.6.6-.4zm2.7-8.4l-.2.4.5.1zm-5.8 13.5l.1.4.4-.4zm-.7-4.4l-.3.2.5.1zm-.2 8.1l-.3-.2-.2.4zm1.2-2.3l-.3-.3-.1.5zm-1.3-4.1l.5-.1-.3-.4z"/><path d="M212 59.6l.5-.2-.4-.4zm-.8.1v1l1.2-.5zm1.2 2.1l.3.7.5-.6zm1.1-1.9l-.6.6.8.4zm-2.1 1.7l.7-.4-.8-.4zm.3 4.4l-.4 1.1h1.5zm1.1-2.6l-.6.4.8.3zm-.2 2l.4-.1-.3-.4zm2.7-7.1l.2.4.3-.3zm-3.5 10.9l-.3-.2-.2.4zm2.8-13.1l-.2.7.7-.1zm-1.3-.7l-.2.5h.7z"/><path d="M214.3 54.4l-.2.6.5-.1zm-.6 2.4l-.1.4h.5zm.6-.4l.4.1-.1-.5zm-2 4.9l.7.3v-.9zm.7-2.1l.3.2.1-.4zm2.2-6l.5.1-.1-.5zm-.3.8l.3.1.1-.4zm-2.2 4.2l.3.1v-.4z"/><path d="M213.9 56.3l-.2.6.6-.1zm-.5.2l-.3-.7-.5.5zm.8-.9l-.4.1.1.3zm-.1 1.6v.3l.4-.1zm-1.3-.3l-.8.1.6.8zm-1.6 12.6l.5.1-.1-.4zm-.5-1.3l-.3.7.8-.3zm1.6-9.2l.4.1-.2-.5zm-.8-2l-.1 1 1-.3zm.2 6.5l.1 1.1.8-.7zm.1 1.3l-.1 1.2 1-.5zm-.5 2.4l-.7.9h1.1zm1-9.3l-.1.4.5-.1zm2.1 1.2h-.7l.2.7zm4.4-6l-.3.2.3.2zm-.7.2l.5-.2-.4-.4z"/><path d="M215.6 56.5l.9.5-.1-1.2zm1.3-2.3l.6.3v-.8zm-1.9.7l1.1-.2-.8-1zm-1.4 3.4l.6-.2-.6-.5zm3.2-5.1h.6l-.4-.6zm4.1.3l1.1.1-.4-1.2zm2.7-2.6l.2 1.2 1-.8zm-5.2 2.1l1.2.1-.5-1.2z"/><path d="M215.2 54.1l1.1.3-.2-1.2zm3 1.7h-.5l.3.4zm-.3-3.1h-1l.6.8zm3.2-1.3h-1l.6.9zm-3.9 3.4h-.4l.3.4zm-4 4.8h-.4l.2.4zm-1.1-4.2l1.4.3-.8-1.1zm2.7 2.4l.9.2-.2-1zm-3.3-1.1h1.5l-1-1.1zm4.2-.2l.4.2v-.6zm-2.1 5.9l.5.3v-.5zm.7-9.3l.8.5-.3-1zm.6 1.6l-.4.1.2.4zm1.1.2l-.4.1.2.3zm-.9 5.8l.4.3.1-.6zm-.2-1.4l-.1.4.4-.1z"/><path d="M213.7 58.7l-.3-.4-.2.5zm.5 2.8v.6l.5-.4zm.3-3.6l-.3.5.7.2zm1.6-.2l.2.2.1-.4zm-3.1 1.9l-.3.7.8-.1zm0 1.9l.4.3.1-.5zm1.1-1.6l.5.3v-.6zm-.8 2.1l.4.3.1-.5zm1-1.7l-.1.4h.5zm2.7.9l-.4-.1.1.4zm-1 2.9l-.4-.3-.1.5zm-6.2 8.2l-.3-.2-.1.3zm1.2-.6l-.6.3.5.5zm.5-1.4l-.6.3.5.5zm1.6 1l-.5.3.5.5zm-.8-1l-.2.5h.5zm1.6-6.1l-.1.4.4-.1zm-2.4 5.3h-.6l.4.5zm2.9-4.4l.4.3.1-.5zm-2 8.3V73l-.4.1zm3.1-19.9l-.4.2.3.3zm-1.4 8.1l-.4-.2.2.5zm-1.4 12.9v-.4l-.4.1zm-5.7 1.7l-.3-.1.2.3zm-.7.4h-.5l.3.5zm5.4-2.2l-.2-.5-.3.4zm-5.6.3v.4l.5-.2zm.8 1.8h-.3l.2.4zm-1.4-1l.1.3.3-.1zm8.8-.8l-.4.1.2.2zm-7.9 8.2l-.3.1.1.2zm1.4 0l-.3.1.1.3z"/><path d="M206.5 84.4l-.3.1.2.2zm.1-10.8l-.1.6.7-.1zm2.6.7l-.1.6.7-.1zm-2.2 1.3l.5.4.3-.7zm3.1-4.7l-.1.6.7-.1zm1.8-1.6l-.1.9 1-.2zm-6.1 3.7l-.8.4.8.6zm1 1.5l.2.5.3-.4zm.7-1.2l-.3.2.4.2zm-1.2 1.4l-.2.5.6-.1z"/><path d="M205.4 74l.3.3.2-.4zm1.6-.7l.3.4.3-.4zm-1.5 1.8l.3.4.3-.5zm.6-2.4l-.2.3.5.2zm9.6 4.9l-.3-.2-.1.3zm-1.9-.7l-.2-.4-.3.3zm-5.7-2.5l-.2-.5-.4.4zm-1.4.3l-.3-.3-.1.5zm-3.1-.8l-.3.7h1zm-.4 1l-.3.9 1-.1zm37.3-27h-.7l.2.7zm-.7-1.4l-.9.1.5.9zm-35.3 29.4l-.2.5.5-.1zm37.9-27.7l-.3.5h.5zm-6.3 1l-.1.3.4-.1zm-31.4 25.6l.5.3.1-.7z"/><path d="M204.5 74l-.3.2.3.2zm-.8 1.5l1-.1-.6-.9zm36.5-26.4l.4.3.2-.6zm-5.9.8h.5l-.3-.6zm8.7-3.1l-.7.3.6.8zm-.3 2.4l.3.4.2-.6zm-3.2-1.4h-.6l.4.8zm2.2.4l-.4-.1.1.7zm-7.5 2.5h-.4l.3.5zM205 75.8l.5-.2-.4-.5zm.7.2l-.3-.2-.1.3zm-2.8 2.9l.3.9.6-.7zm-.1-1.3v.8l.8-.2zm0-1.3v.9l1-.2z"/><path d="M203.7 77.1l.7-.6-1.1-.3zm.2.4l-.4.3.8.2z"/><path d="M203.5 77.1l-.7.2.8.8zm5 3.3l-.4.4.6.1zm.9-2.3l-.4.4.6.1zm-2.1.7l-.3.4.5.1zm1.2-4.4l-.4.4h.6zm-3.9 7.5l-.3.4.5.1zm.3 1.9l-.3.3.5.1zm.8-4l.3.2.1-.3zm-.5-2.4l-.2.7.7-.1zm-.7 1.4l.5.1-.1-.5zm3.2-1l.5.1-.2-.5zm-3.5-.4v.4l.5-.2zm-.6 3.4l.3.8.7-.7zm.5 1.7l.3.9.5-.7zm1.1-1.7l.3.5.3-.5zm-.4.8l.3.4.2-.4zm1.3-3.3l.3.4.3-.4zm-1.5 1.6l.6-.2-.4-.5zm-.6-.5l-.2.4h.4zm4.8-2.8l.4-.5-.7-.2zm-3.3 3.8l.3-.5-.6-.1zm-1.5.2l.2-.4-.6-.1zm3.2.4l-.3.1.2.3zm-3 9.6l-.3.1.2.2zm-2.2.5h-.3l.2.3zm.8-1.3l-.3.1.2.2zm.4.5l-.3.3.5.1zm5.8-4.4l-.3.3.5.1zm-2.1.7l-.3.4.5.1zm-1.5 1l.2.1.1-.3zm-.7-2.4l-.1.7.8-.3zm2.6.4h.5l-.1-.5zm-3.6 2.8l.2.4.3-.4zm-.5.5l.3.4.2-.4zm2.6-2.9l.2.4.3-.4zm-1.7 1.6h.6l-.3-.7zm.9-.4l.3-.5-.6-.1zm.2 1.5h-.3l.1.3zm12-28.2l-.2.1.3.2zM240.4 50l-.4-.2.1.5zm-4.4-1.6l-.4.3.5.2zm-18.3 11.2v.4l.5-.3zm17.8-9.4l-.2.2.3.2zm1.3.3l.1.2.3-.2zm-19.9 11l-.1.3h.3zm-1.8-5.5l.5.4.2-.7zm21.1-8.8l-.5.4.7.3zm-20.9 16.1l.5.1v-.5zm22.9-12.9l-.4.2.4.2zm-23 10.9l.1.6.4-.5zm-.6 5.8l-.3-.1.2.4zm-1.2 1h-.5l.3.5zm-2-.1l-.1.5.6-.1zm1.2-.5v.5l.5-.3zm-.2-.9l-.1.3.5.1zm-.1 2.7h.3l-.1-.4z"/><path d="M215.2 67.7l.1.3.3-.1zm-1.2.4h-.3l.2.3zm-.2 2.4l.3.1v-.4zm-2.5-2l-.1.4.5-.1zm.5-1.3l-.1.7.8-.2zm1.3-.4l.3.5.2-.5zm.9-.6l-.2.5.6-.1zm-.7-1l.3.4.3-.4zm-.3 1l.3.5.3-.4zm4.2-.6l-.3-.2-.1.4zm-2.7 3.7l-.2-.4-.3.4zm-1.9-.8l-.3.3.5.1z"/><path d="M212.7 69.6l.2.4.3-.4zm1.2-3.4l-.3-.3-.1.5zm2.6 1.2l-.2.2.2.1zm-2.2.9l.4.3.1-.5zm1.2-2.6l-.1.5.5-.3zm4.2-9.3v-.3l-.4.1zm-2.1 2.9l-.2.1.2.2zm1.4-2.8l-.2-.4-.3.4zm-.6 3.2l.2.2.2-.2zm-1 .7l-.3.1.3.3zm2.4.1h.3l-.2-.3zm-1.3-3.5l.1.7.7-.4zm-.8 1l.4.2.1-.5zm-.1-1.5l-.1.4h.4zm2 2.1l-.4-.1.1.4zm-1.2 2.8l-.4-.3-.2.5zm-1.7.9l.4.3.1-.5zm3.2-4.4l-.3.1.3.2zm.5-.8v.4l.4-.2zm7.9-6.2l-.1-.3-.2.3zm1.1 1.2l.2-.2-.3-.2zm.7-.2l.1-.4-.4.1zm-2.4 1.1l-.1-.3-.2.3zm-.2-.5l-.1-.3-.2.3zm1.2 1l.2-.2-.3-.1zm-1 1.9l.2-.3-.3-.1zm1.9-4.9l-.3.4.5.1zm1.2 2.8l.1-.4-.4.1zm2.1-.6v-.4l-.3.1zm-.9-.2l-.2-.3-.1.4zm-2.2-4l-.3-.4-.2.6zm-.5 1.3l-.5-.1.2.5zm-1.2-.2l-.2.3.4.2zm19.7-4.1l.1 1.1 1-.8zm-1.4-.1h-.8l.4.9zm-1 0l-.9.2.5.9zm-1.3 2l-1.2.4.9 1zm1.6 1.4l-.4.2.4.3zm1.3-1.6l-.7.3.6.5zm-2.6 1.1l-.4.3.5.2z"/><path d="M245 47.5l-.4.4.4.2zm-1.9 1l-.4.3.5.2zm.6 1.5l.2.3.2-.5zm1.8-1.6l-.1.3h.4zm.9 1.7l-.1.2.4.1zm-.3-3.4l.1.6.6-.3zm.6-.6l-.4-.2v.4zm-1.8-.1l.5 1 .6-.9z"/><path d="M245.1 46.7l.3.7.6-.7zm2 .3l.2.4.3-.4z"/><path d="M247.5 45.8l-1.1.7 1.2.9zm-3 0l-.9.1.6 1zm3.2-.4l-1.2-.1.4.7zm-.4 2.7l-.3-.2-.1.4z"/><path d="M244 47.6l.2.5.3-.5zm.1-.7l.8.5-.1-1.2zm-.4 0l-.4-.3v.8z"/><path d="M243.9 46.5l-.3-.6-.6.9zm-.9 2.9l.3-.1-.1-.4zm.6 0l.5.1-.1-.5zm1.7.3h-.3l.2.4zm2.8-3.2l-.1.5.5-.1zm1.7-.2l-.8-.5-.4 1.3zm1.1.9l-.7-.6-.8 1.1zm-2.9 0l-.9.7 1 .7z"/><path d="M247.6 47l-.2.3.4.1zm1.4.6l-.2-.4-.3.4zm.6-.6l-.3-.6-.5.5zm-.6-.5l-.3-.6-.4.6zm-3.3 1.2l.4.3.2-.6zm2.5 0v.5l.5-.3zm-3.3 2.7l-.1.5.6-.2zm2-1.8l.3-.4-.5-.2zm-2.5 1.6l.1-.3-.3.2zm2.1 1.2l-.5.1.4.3zm.3-2.2l.1-.4-.5.2zm-.9.7l-.3-.3-.2.5zm-.8-.8l-.4.1.2.4zm-25.6 9.8l-.2.3h.3zm-1.7 1.6l.4.2v-.5zm0-1.9v.5l.4-.4z"/><path d="M219.4 63.1l-.3-.3-.1.4zm-1.7-.2l-.2.6.6-.2zm23.7-13.1l.2.4.3-.3zm-2.3.8l.1.5.4-.4zm-2.1-2.8l.5.1v-.5zm5.5 1.1l-.3.2.3.3zm7.1-1.8l-.5.1.3.4zm-1.1 1.3l-.2.5.6-.2zm3.2.1l-.7-1.1-.9.9zm-1.1 2.1l-.4-.3v.5zm1-.8l-.5-.3-.1.6zm-.2.9v-.6l-.5.2zm-1-1.6v-.6l-.5.3zm-4.7-.8v-.6l-.5.2zm-3.5-.2l.1-.7-.7.3zm-1.1-.1v-.7l-.7.2z"/><path d="M250.3 49.2l-.5-.1.1.5zm1.7-.1l-.7-.3v.9zm-.7-.7l-.8.3.5.6zm-1.1-.4l-.8-.2.2.8zm-.9.3l-.4-.1.1.5zm-.9 1.4l-.1.3.5-.1zm2.3-.1l-.3.1.2.3zm-.7 2.3h-.3l.3.4zm.3 1.4l-.3.1.2.3zm-5.9-2.2l-.3.1.2.4zm3.8 2.2l-.3.1.2.4zm-6.3-1.8l-.3.1.2.3zm5.4-2.5l.2.3.3-.4zm1.2 0l.2.5.4-.4zm1.2 1.8l-.3-.2-.2.3zm-1.3 0l-.4.3.5.2zm3.2-.8l1-.1-.5-.8zm-2.4-.8h.5l-.2-.5zm-.5 1.2l.3-.1-.3-.2zm-.9-.4l-.4-.3-.1.5zm2.8 1.6l.4-.2-.5-.3zm-.8-.2l.1-.5-.5.2zm.2-1.2l-.3-.3-.1.5zm1.9 2.2l-.5-.1.1.5z"/><path d="M252.7 51.6l-.5-.2v.5zm0 .8l-.1-.5-.5.3zm-1.3-1.3v-.6l-.5.3zm0 .1l-.5-.1.1.5z"/><path d="M253.1 50.6l-.8-.2.2.9zm-1-.4l-.8.4.7.5zm-.3 1.3l-.3.1.3.3zm-.8 1.3l-.3-.2-.1.4zm1.8-1l1-.3-.6-.7zm-2.6-.4l.6-.1-.3-.5zm1.8 2.1l.4-.3-.5-.2zm-.7-.1v-.5l-.5.2z"/><path d="M251.3 52.2l-.4-.2-.1.5zm-2.7-4.2l-.3-.1-.1.5zm4.8 4.3h-.4l.2.4zm-.3.7l-.9-.1.3 1zm-1.4 2l.1.5.4-.4zm6.2-1.2l-.3 1 1.2-.2zm-1.1-.6l-.8-.4v1z"/><path d="M256 52.8l-.9-.3-.1 1.1zm-1.9.4l-1.2-.1.3 1.3zm.5 2.8l-.5-.1.2.5zm1.9-1h-.8l.3.7zm-2.8-.1l-.5.1.3.4zm.8-.4l-.5.1.3.4zm-2 0l-.5.1.3.4zm-.7-.5l-.4.1.3.4z"/><path d="M249.3 52.4l-.5.1.4.4zm-1.5-.3l-.5.1.3.4zm4.4 4.1l.1.3.4-.3zm2.4-.7l-.3.2.4.2zm.1 1.9l-.2.2.3.2zm1.2-3.2l-.2.6h.7zm.8-.3l-.3-.3-.2.4zm-1.6-.8v1.1l.9-.5z"/><path d="M255 53.7v.8l.8-.3zm1.9.7v.4l.5-.2zm-1.8-1.9l-.8-.4-.1 1.1zm2.8 1.2l-1-.6v.9zm-1.5 2.3l-.2-.3-.2.3zm-2.8-1.9l-.1.5.6-.3zm.4-.6l.5.8.4-1.1zm.2-.8l-.2-.4-.4.7zm-.3-.4v-.7l-.9.5zm-2 3l.3.1.1-.4zm.6.3l.3.3.2-.5zm1.4 1l-.3-.1v.4zm3.9-1.6l-.4.3.6.1zm1.7.4l-.6-.8-.9 1zm.5 1.3l-.3-.9-1.2.7zm-2.9-1.5l-.3.1.3.3z"/><path d="M258.1 56.3v-.5l-.4.2zm.8-.3v-.7l-.7.3zm-.3-.7v-.7l-.7.4zm-3.5-.4l.2.5.4-.5zm2.2 1.1l-.1.5.5-.1zm-4.1 1l-.3.5h.6zm2.6-.7l.5-.2-.4-.5zm-2.9.4l.2-.3h-.4zm1.4 1.9l-.6-.1.2.5zm1.1-1.8l.3-.4h-.6zm-1.1.2l-.1-.4-.4.3zm-.4-1.1l-.4-.1.1.5zm5 .2l-.5-.2v.5zm-1.6.7l-.3.4h.6zm3 1.5l-.1-.9-.8.3zm-1 3.4l-.3-.4-.2.4z"/><path d="M259.6 59.3l-.4-.4-.3.5zm-.1 1.1l.3-.5h-.6zm-.8-2.2l.3-.5h-.6zm-3.8-2.7l.2-.5-.6-.1zm3.7 2.8l-.4-.3-.1.5zm1.5.3h-.5l.1.5zm-1-1.5l-.6-.5-.2.8zm-1-.1l-.4-.3-.1.5z"/><path d="M256.7 57.9l-.2.3.5.1zm1.8 1.6l-.3-.1.1.4zm2.1 3.3l-.3-.1v.4zm-4.6-6l.1.3.4-.1zm1.1.5v.5l.5-.1zm2.6-.2l-.1-.3-.4.3zm-.1 5h-.6l.4.5zm.2-2.5l.6.3v-.6zm-2.2-1.8l.4.3.1-.6zm-.9.9h.3l-.2-.3zm-.7-.8l-.2-.4-.3.4zm4 3.7h.4l-.3-.5zm-1.4-.8l.3-.4-.5-.1zm-.7-1.7l-.1-.4-.4.4zm-.9-3l-.3-.3-.3.4zm-44.9 20.1l-.2-.4-.2.3zm25.5-27.3l-.4-.3-.1.5zm.9.3l-.4-.1.2.4z"/></g><g fill="#f4b9a6"><path d="M244.6 76.6l.6-.3-.7-.5zm-7.6-.9l-.2-.6-.5.5zm9.6.3h.9l-.5-.9zm-1.5-3l.6.5.2-.8zm.4-.9l.9-.5-.8-.6zm1.6 8l.8-.4-.7-.6zm2.3-.9l.4-.9h-1zm-5-3.4l-.7.1.4.8z"/><path d="M245 74.9l-.8.1.5.7zm-.5 3.8l.2.7.6-.5zm.2 1.4l.6.4.2-.8zm3.4 2.4l-.7.1.5.7zm-1.5-15.2l-.3.5h.8zm.3 4.4l-.6-.2.2.7zm.8-2.2l-.6-.1.2.7zm-4.2 2.8l-.2.7.8-.2zm.8-3l-.7.3.7.5zm-2.9.7l-.4.1.2.4zm5.5 12.4l-.6.1.3.6zm-.7-.4l-.6.1.4.6zm-4.9-4.3h-.6l.3.6zm1.4 1.2l-.6.1.3.5zm-1.7-3.3l-.2.6.8-.2zm3.2-.4l-.1-.5-.6.4zm6 5.8l.3-.5h-.6zm-2.2-1.9l.3.1.1-.5zm4.1-3.9v.5l.3-.2zm-2 1.9l.4.1v-.5z"/><path d="M252.2 75.9l.1-.3h-.4zm-12.4-4.5l-.3.4h.5zm5.9-2.3l.8-.1-.5-.7zm-.1 8.8l.9-.2-.7-.7zm-.6-5.8l-.6-.1.1.6zm-4.9 3.9v-.6l-.7.2zm4-5.7v.8l.8-.4zm-.9 1.4v.7l.9-.4zm.7-.6v.7l.8-.3zm6 .3l.5.3.1-.7zm-5 2.8l-.3-.5-.4.5zm2.3 7.5l-.5.2.4.4zm-2.4-4l-.2.5.6-.1zm.4 3.1l-.2-.5-.4.5zm.9.5l.4-.3-.6-.3zm.3-1l.4-.4-.5-.4zm-.2-.8l.5-.3-.6-.4zm0-2.6l.5-.3-.6-.4zm-1.2.1l.4.3.2-.5zm4.9 4.5l-.6.2.4.4zm-2.4-5.1l-.5.4.7.2zm.9 5.4l-.3-.3-.3.4zm-3.2 1.6v.5l.7-.3zm-1.2-3l-.6.2.4.4zm-5-6.4l-.3-.4-.3.5zm5.2 7.7l.3.2.2-.5zm-1.5-1.1l.4.2.1-.5zm-1.1 3.9l-.3.4h.6zm-.8-.7l-.5-.1.1.5zm-1-.2h-.5l.1.5zm5.7-7.8l1-.1-.8-1zm-.6-2.4l.2.5.4-.5z"/><path d="M244.9 74.3l.4.8.8-.8zm2.7-1.1l-.8.6 1 .4zm-6.7 1l.1-.4-.6.2zm6-.1l-.4.3.6.3zm-1.7-3.2l.6-.1-.4-.5zm3.8 1.7l.6-.2-.4-.5zm-4.2-.3l.6-.2-.4-.5zm4.6-2.6l.6-.1-.4-.5zm-2-1.5l-.5.2.6.3zm-5 1.3l.1-.4-.6.2zm0 7.8l-.1.7.8-.2zm-.9-.4h-.6l.3.7zm1 2.8l-.1.6.7-.2zm1.2-2.5v.7l.7-.3zm-.8 1.2v.8l.9-.3zm-.6-2l.1-.5-.6.3zm8.2-3.4l.6-.2-.4-.4zm-2.1-2.3l.2.5.4-.4zm3.9 7.4l.5-.1-.4-.4zm-8.7-8.6v-.4l-.5.2zm3.6 1.5l-.1.6.7-.2zm-.7-1.2l-.1.6.7-.2zm1.5 4.4l.8.7.4-1.1zm1.2 1.7l1-.3-.6-.9zm-3.5.3l.5.1-.1-.4zm.1-2.5l-.2.4.6.1zm1.2-1.2h-.6l.4.6zm1.9.4h-.6l.3.7z"/><path d="M247.1 73.2l1-.5-1-.7zm1.7-4.4l.4-.6-.8-.1zm-3 9.9l.4-.6-.8-.1zm.3-4.4l.9-.5-.9-.6zm1.3-4.1l.3.3.2-.5zm1.2 1.1l-.7.8 1.3.2zm1-1.2l-.3.4.6.1zm.3 3.9l.3.3.3-.5zm-1.3-4.6l-.3.4.6.1zm-8.3 4.5l-.6.2.5.5zm2.9-.9l-.4.5.7.1zm-.5.9l-.1-.4-.5.3zm-.7.5v-.5l-.5.3z"/></g></svg>