<svg xmlns="http://www.w3.org/2000/svg" viewBox="0 0 480 480" xmlns:v="https://vecta.io/nano"><path d="M186.8 123.6s-17.1 4.7-30.9 13.5-16 11.9-17.7 18.2c-1.9 7.4.7 16.3 5.2 29.9s15.4 41 15.4 41 .5 6.4 4.9 12.7 5.5 6.6 6.3 7.4 1.6-.7 1.6-.7 1.8 2.1 3.1 1.8.4-1.9.4-1.9 1.9.4 2.6 0c.7-.5 0-3.6-.9-5.5-1-1.9-1.8-7.4-2-8.4s1.6 1.7 2.7 3.1c1.1 1.3 3.3 1.3 1.9-1.4-1.4-2.8-2.2-5.3-2.7-6a78 78 0 0 0-2.8-3.6l-1-1.1s-.9-.8-1.3-4-3.1-35.7-3.2-40.6c-.1-6.3 3.3-11.2 7.9-13.7s30.4-13.7 30.4-13.7l-19.9-27z" fill="#ea9d7d"/><path d="M158.6 225.5c-.2 0-.3-.1-.4-.3-.1-.4-14.5-38.3-18.6-50.9-6.1-18.7 1.8-26.1 2.1-26.4.2-.2.4-.1.6 0 .2.2.1.4 0 .6 0 0-2 1.8-3.2 5.8-2 6.7-.4 14.4 1.3 19.6 4.1 12.6 18.5 50.5 18.6 50.9.1.2 0 .5-.2.5-.1.2-.1.2-.2.2z" fill="#cc7a5e"/><linearGradient id="A" gradientUnits="userSpaceOnUse" x1="167.92" y1="151.28" x2="184.23" y2="145.1"><stop offset="0" stop-color="#cc7a5e" stop-opacity="0"/><stop offset=".92" stop-color="#aa5f4b"/></linearGradient><path d="M169.2 171.9s-.1-11.5-3.3-21.7c-3.2-10.3-7.9-14.1-7.9-14.1l9.1-5c2.4-1.2 10-4.4 10-4.4l17 29.2s-7.2 2.9-13.1 5.6c-5.5 2.7-9.7 5.1-11.8 10.4z" fill="url(#A)"/><linearGradient id="B" gradientUnits="userSpaceOnUse" x1="167.22" y1="177.81" x2="198.64" y2="183.82"><stop offset="0" stop-color="#cc7a5e" stop-opacity="0"/><stop offset=".92" stop-color="#aa5f4b"/></linearGradient><path d="M176.3 164.2c2.6-1.8 17.8-8.2 17.8-8.2l-4.8-17.8s-6.6 3-15.6 9.5c-8.8 6.4-12.6 13.2-11.6 18.8-1.8-2.1-3.4-2.7-4.1.9-.8 4.5-1.3 34.9.4 45.9 1.5 9.8 4.5 7 9.6 7.6 2.1.3 4.8 1.3 4.8 1.3l-1.3-4.5-3-39.9c.1-1.9-.4-4 1.4-7.4 1.7-3.3 3.8-4.4 6.4-6.2z" fill="url(#B)"/><linearGradient id="C" gradientUnits="userSpaceOnUse" x1="174.2" y1="200.25" x2="185.88" y2="200.57"><stop offset="0" stop-color="#cc7a5e" stop-opacity="0"/><stop offset=".92" stop-color="#aa5f4b"/></linearGradient><path d="M169.8 170.5c-.8 1.4-1.6 6.2-1.2 11l3.1 36.2.9 5.4s.3-.7 2 1.2c1.8 1.9 4.6 8.1 5.2 9.5.7 1.4.3 1.5-.1 1.8-.3.3-1 0-1.5-.5s-3.8-4.3-3.8-4.3-2.9.7-4.7-1.4c-1.7-2.1-2.3-5.2-2.3-5.2s-17.5-37.1-13-52.5c4.4-14.5 16.2-2.6 15.4-1.2z" fill="url(#C)"/><linearGradient id="D" gradientUnits="userSpaceOnUse" x1="166.28" y1="231.44" x2="174.58" y2="224.64"><stop offset="0" stop-color="#cc7a5e" stop-opacity="0"/><stop offset=".92" stop-color="#aa5f4b"/></linearGradient><path d="M167.8 225.2s-3.6-.9-4.9 2.1c-1.2 2.8.4 5.4 1.4 6.6 1.7 1.9 5.9 1.7 7.7.3 2-1.6 2.3-3.2 2.3-3.2s-3.2 0-4.7-1.7c-1.3-1.6-1.8-4.1-1.8-4.1z" fill="url(#D)"/><linearGradient id="E" gradientUnits="userSpaceOnUse" x1="191.17" y1="97.35" x2="228.02" y2="157.75"><stop offset="0" stop-color="#997ebd"/><stop offset=".57" stop-color="#7c59aa"/><stop offset="1" stop-color="#6a4bb4"/></linearGradient><path d="M170.7 122.2s19.6-10.5 33.3-14.2c13.6-3.7 27.8-7.6 36.1 8.4s-8.5 28.1-18.8 34.5c-10.2 6.4-25.7 15-25.7 15l-24.9-43.7z" fill="url(#E)"/><linearGradient id="F" gradientUnits="userSpaceOnUse" x1="177.54" y1="184.3" x2="156.83" y2="215.7"><stop offset="0" stop-color="#6a4bb4" stop-opacity="0"/><stop offset="1" stop-color="#4f3282"/></linearGradient><path d="M221.3 150.9c10.2-6.4 27.1-18.5 18.8-34.5-7-13.5-18.2-12.8-29.7-10.1l-.4 1.2s-6.2 15.3-15 21.9c-6 4.5-12.2 6.9-15.6 7.9l16.3 28.5c-.1.1 15.4-8.5 25.6-14.9z" fill="url(#F)"/><linearGradient id="G" gradientUnits="userSpaceOnUse" x1="195.42" y1="121.03" x2="207.5" y2="131.1"><stop offset="0" stop-color="#6a4bb4" stop-opacity="0"/><stop offset="1" stop-color="#4f3282"/></linearGradient><path d="M221.3 150.9c10.2-6.4 27.1-18.5 18.8-34.5-7-13.5-18.2-12.8-29.7-10.1l-3.7 4-14.8 14.8c-5.3 5.4-8.4 9.5-11.8 13.1l15.6 27.6c-.1.1 15.4-8.5 25.6-14.9z" fill="url(#G)"/><path d="M196.3 167c-.2 0-.4-.1-.5-.3l-25.2-43.8c-.2-.3-.1-.6.2-.8s.6-.1.8.2l25.2 43.8c.2.3.1.6-.2.8-.1 0-.2.1-.3.1z" fill="#603e87"/><g fill="#ffc1a6"><path d="M145.1 148.8l-.8-.1.3.9.5-.8zm-2.8 4.8l.8-.1-.5-.5-.3.6zm6.6-1.3l.1-.8-.7.4.6.4zm-7.3 4.2l-.1.9.8-.5-.7-.4zm-1.3 1.3l-.1.9.8-.5-.7-.4zm-.3 3.3l-.8.8 1.3.4-.5-1.2zm0 4.2l-1.2.4.8.8.4-1.2zm.2-2.3l1.1 1.1.5-1.7-1.6.6z"/><path d="M139.4 170.3l1.4-1-1.6-.5.2 1.5zm4.3-20.5l.3.1-.2-.7-.3.2-.5-1.5-1.5 1.4 2.2.8v-.3zm2.8-5.2l3 1-1-2.9-2 1.9zm-7 14.3l-.3-.7-.5.5.8.2zm4.9 2.8l.4-.7-.8.1.4.6zm-4.8-5.4l.3.6.4-.7-.7.1zm6.9-3.4l.2-.8-.9.3.7.5zm-4.6-3.1v.8l.6-.5-.6-.3zm1.3 6.2l-.4.5.8.2-.4-.7zm1.8-11l-1.8 1.8 2.4.3-.6-2.1zm5.3-4l-1.4.9 1.6.6-.2-1.5zm3.5-2.3l-1.4.9 1.6.5-.2-1.4zm-12.7 15.2l.2-.8-.9.3.7.5zm.5-2.7l-.9.3.8.5.1-.8zm4.7-6.4l-.9.2.8.5.1-.7zm-1.6 7.5l-.3-.7-.4.5.7.2z"/><path d="M148.6 147.4l.8.2-.3-.7-.5.5zm1.9-3.2l-.3.9.8-.1-.5-.8zm4.7-3.7l.1-.7-.7.2.6.5zm-11.9 7.1l1.3.8.2-1.4-1.5.6zm4.5-2.4l-.4 1.2 1.1-.1-.7-1.1zm-2 5.3l-.2.7.7-.1-.5-.6zm3.5-7l.6-.5-.6-.3v.8zm-1.6 13.2l.1-.5-.6.2.5.3zm-2.9-2v.5l.4-.3-.4-.2zm1 4.4l-.2-.5-.3.3.5.2zm-4 5.2l.3-.5-.6.1.3.4zm2.7-1.1l.4-.2-.4-.3v.5zm-3.1-2.2l-.1-.4-.4.3.5.1zm3.5 10.6l.5.2-.1-.6-.4.4zm2.2-2.2l.3-.4-.5-.1.2.5zm-4-.6l-.2.5.5-.1-.3-.4zm8.6-9v-.5l-.4.2.4.3zm1-11.1l.7-.4-.8-.6.1 1zm-.4-4.9l-.1-.7-.6.5.7.2zm-4.1 4.3h-.7l.3.7.4-.7zm-3.9 5.7v.9l.7-.4-.7-.5zm-4.9 0l-.3 1.8 1.5-.8-1.2-1zm-.7 3l-.3 1.7 1.5-.8-1.2-.9zm-.3 3v2.3l1.8-1.4-1.8-.9zm4.3-9l-.3 1.7 1.5-.8-1.2-.9zm-.7 5.5l-.2-1.7-1.3.8 1.5.9zm3.1-7.1l1.5.9-.2-1.7-1.3.8zm9.1-6.2l.8.1-.4-.9-.4.8zm2.4-1.5l.3.6.3-.6h-.6zm-5.8 5v.1l.6-.5-.3-.2-.3-.1v.1h-.3l.3.6zm1.5-4.4l-1.3-.9.1 1.5 1.2-.6zm1.3 2.7l.6-.3-.6-.5v.8z"/><path d="M146.7 150.4l.6-.3-.6-.4v.7zm5.3 1.1l.6-.3-.6-.4v.7zm5.7-9l-.5.4.6.1-.1-.5zm-6.1 2.9l.3.6.3-.6h-.6zm-11.8 18.7l-.4-.8-.5.6.9.2zm2.4 4l.3-.7-.8.2.5.5zm1.5-6.9v.8l.6-.3-.6-.5zm-1 2.1l-.5.7.9.2-.4-.9zm2.4 4.3l.4.5.3-.7-.7.2zm1.9-5.6l.6-.3-.6-.5v.8zm-.9 1.4l.7.6.2-.8-.9.2zm-3.8-1.9l.6-.5-.6-.3v.8zm.7 6l.8.2-.3-.7-.5.5zm-1.6 6.4l.9.2-.4-.8-.5.6zm3.7 3.4l-.7.2.4.5.3-.7zm1.1-5.4l.6-.3-.6-.5v.8z"/><path d="M142.9 178l.9.2-.4-.8-.5.6zm3.3 4.1l.3-.7-.7.2.4.5zm1.5-6.1l.6-.3-.6-.5v.8zm-5.9-10.2l-.4.7.9.1-.5-.8zm-.7-6.3l-.4.7.9.1-.5-.8zm.8 12.3l.9.1-.5-.8-.4.7zm2.6 8.4l.7-.6-.9-.2.2.8zm-4.2-28.7l-.5 1.4 1.7-.2-1.2-1.2zm4.6 18.9l.3-.7-.7.2.4.5zm1.8-6.5l-.6-.5v.8l.6-.3zm-.5-10.3l-.7.3.7.6v-.9zm2.9-4.7l.1-.9-.8.3.7.6zm-5.5 9.4l-.7.3.7.6v-.9zm-3.4 8.7l.9-.1-.6-.6-.3.7zm12.6-25.4l.9-.1-.6-.6-.1.3-.3-.7-.5.8.7.1-.1.2zm-6.7 17.5l.6-.4-.7-.2.1.6zm4.5-4.4l.7.1-.3-.7-.4.6z"/></g><g fill="#a84d3b"><path d="M178.4 150.4l.8-.1-.3-.6-.5.7zm-3.6 1.1l.1-.7-.6.1.5.6zm4.7 3.1l-.6-.3v.6l.6-.3zm-6.8 0l-.3.4.5-.1-.2-.3zm-2.4.7l-.4.1.3.3.1-.4zm2.8 2.3l-.4-.2v.4l.4-.2zm7.9-13.4l.8-.1-.4-.6-.4.7zm2.2 1.1l-.8-1.5-.8 1.5h1.6zm-14.1 24.6h-.1l.3.4v-.1l.4.7.8-1.5-1.7.1.3.4zm-3.2 7.5l.7-1.3h-1.4l.7 1.3zm2.4 2.8l-1.1.8 1.3.6-.2-1.4zm.1-1.5l-.2-1.4-1.1.9 1.3.5zm0 15.4l1 .4-.1-1-.9.6zm-4.1-18.2l-.7.6.9.3-.2-.9zm.2 3.5l-.2-1-.8.6 1 .4zm.2 5.1l.5-.8-1-.1.5.9z"/><path d="M166.5 182.8l-.3-.9-.7.7 1 .2zm1.2 7.4l.2 1 .7-.7-.9-.3zm0-4l.5-.8-1-.1.5.9zm-1.6 1.7l.5-.7-.9-.1.4.8zm-2.5-5.7l-.9-.1.4.8.5-.7zm-.1-7.9l.4.9.5-.8-.9-.1zm0-4.7l-1-.1.4.9.6-.8zm3 5.5l.4.9.5-.8-.9-.1zm2-3.7l1 .3-.2-.9-.8.6zm-2.5.1l-.8.6 1 .3-.2-.9zm3.8-4.3l-.9.8 1.1.4-.2-1.2zm-1-1.8l.1 1.2 1-.7-1.1-.5zm-2.8.3l-.9-.4.1.9.8-.5zm1.5-.9l.8-.5-.9-.4.1.9zm-1 5.3v.9l.8-.5-.8-.4zm4.5-3.2l1.1.4-.3-1.2-.8.8zm-3 1.7l-.2-1.2-.9.8 1.1.4zm19.4-16.3l-.8-1.5-.8 1.4 1.6.1zm1.6 2.8l-.8-1.5-.9 1.4 1.7.1zm-7.8 6.4l1.4-1-1.5-.7.1 1.7zm-6 3.3l1.2-.8-1.3-.6.1 1.4zm6.4-7.8l-.1-.2-.1.1-.6-.3.1 1.5 1.2-.9-.5-.2zm2.4-1.7l-1.1-.6v-.4l-.3.2.2.2.1 1.5.5-.4 1.3 1 .2-1.7-1.4.6.5-.4zm1.5 4.4l1.3-.6-1.1-.9-.2 1.5zm3.8-3.1l.1 1.6 1.4-.4-1.5-1.2zm-1.5 1.6l.2-1.4-1.3.6 1.1.8zm-8.5-20.1l-.9 1.4 1.6.1-.7-1.5zm-2.2-3.6l-.8-1.5-.9 1.4 1.7.1zm-.2 3.2l1.2-1.2-1.6-.5.4 1.7zm-3.5 3.6l.9-.9-1.3-.4.4 1.3zm1-11.7l-1.3-.4.4 1.3.9-.9zm-2.3 7.9l.8-.7-1.1-.3.3 1zm2.1-4.4l-1.1-.3.3 1.1.8-.8zm.4 5.7l.8-.8-1.1-.3.3 1.1zm.4 6.7l.3 1.1.8-.8-1.1-.3zm3.7 2.9l-.8.7-.4-.5-.5 1.1 1.2-.1-.3-.4.9.3-.1-1.1zm-2 3.1l-.9.7 1.1.4-.2-1.1zm3.2 5.6l-.2-1.1-.8.5-.1-.6.1-.2h-.1l-.1-.6-1.1.9 1.3.5-.3.2.7.2h-.2l.3.8.4-.6h.1zm-1.4 2.2l-1.1.7 1.3.4-.2-1.1zm-3.1-4.1l-1.1.7 1.3.4-.2-1.1zm-3.8-10.6l-.9.6 1.1.3-.2-.9zm-3 1.4l-.9.6 1.1.3-.2-.9zm4.9 11.7l1.1.3-.2-.9-.9.6zm2.1 5.1l1.1.3-.2-.9-.9.6zm-3.4 2.8l1.1.3-.2-.9-.9.6zm.9-2.7l1.1.3-.2-.9-.9.6zm.3.6l-.1 1.1.2-.1v.1l.5-.1-.1-.1.4-.3-.9-.6zm4.7-.7l.9-.6-.8-.5-.1 1.1zm-6.2-.9l.3-1.1-.9.2.6.9zm.5-4.1l-.9.2.6.9.3-1.1zm-3.9.2l-.7.1.5.7.2-.8zm.7 3l-.2.7.8-.1-.6-.6zm3.4-5.5l-.2.7h.8l-.6-.7zm7.3-2.4l-.2.7.8-.1-.6-.6zm-2.2-8.8l1.1-1.1-1.6-.5.5 1.6zm1.9-3.2l.8-.8-1.2-.3.4 1.1zm1.3 2.1l.8-.8-1.2-.3.4 1.1zm2.1 3.8l.9-.8-1.2-.3.3 1.1zm-7.1-14.7l-.6-1-.6 1.1 1.2-.1zm-1.2 3h1.2l-.6-1.1-.6 1.1zm1.4 8.8l.4 1.1.8-.9-1.2-.2zm5.2 6.3l.8-.9-1.2-.2.4 1.1zm3.7-.5l.4 1.1.2.4.4-.5-.4-.1.6-.7-1.2-.2zm-.1 2.3l-.5 1.1 1.2-.1-.7-1z"/><path d="M187 156.3l1.2-.1-.7-1-.5 1.1zm-5.8-3.7l-.5 1.1 1.2-.1-.7-1zm.7-1.4l-.5 1.1.7-.1-.2.1.4.4v-.5h.2l-.6-1zm-.9-4.9l-.4.4-.6-1.1-.6 1.1h1.2l-.4.4 1.2.3-.4-1.1zm1.9 2.1l.3 1.1.8-.7-.1.2 1.6.1-.8-1.5-.7 1.2-1.1-.4zm-2.7-5.6l-.6.2.5.5.1-.7zm4.3 6.3v.6l.6-.3-.6-.3zm-16.6-17l-.1.8.7-.4-.6-.4zm-3.1 2.7l-.5.4.6.3-.1-.7zm5.3 2.1l.4-.6h-.7l.3.6zm-7.5.2l-.5.7.8-.1-.3-.6zm-4 1.1l-.6.2.5.5.1-.7zm4 4.1l.6-.3-.6-.3v.6zm8.1-1.2l.4-.5-.8-.2.4.7zm-2.6-3.7l.7-.1-.4-.5-.3.6zm-1.3 5.4v-.7l-.6.2.6.5zm11.3-1.9l.5-.6-.8-.2.3.8zm-2.7-3.7l.7-.1-.3-.5-.4.6zm-1.2 4.7l-.5.2.5.5v-.7zm-1.3-7.1l-.6.6.7.3-.1-.9zm1.5-3.2l.4-.5-.8-.1.4.6zm-4.6-.1l-.3.6.6-.2-.3-.4zm-2.2 7.9l-.5-.1.2.5.3-.4zm-1.8-2.4l-.2.4.4-.1-.2-.3zm-1 3.4l-.4.1.3.3.1-.4zm-5.5 2.5l.1.4.4-.3-.5-.1zm3 .3l-.2.4h.4l-.2-.4zm-2.1-2.9l.3.3.1-.4-.4.1zm-3.6 8.1l-.5-.1.1.4.4-.3zm2.2.6l.4.1-.2-.4-.2.3zm-1.5-3l.1-.4-.4.1.3.3zm4.2-7.3l.4-.3-.5-.1.1.4z"/><path d="M164.3 138.6l-.2.4h.4l-.2-.4zm-1.6-3h-.4l.3.3.1-.3zm9.6 13.2l.1.4.4-.3-.5-.1zm2.9.3l-.2.4h.4l-.2-.4zm-1.6-3l-.5.1.3.3.2-.4zm-11.2 14.5l-.4-.1.1.4.3-.3zm3.7-1.5l-.2.3h.3l-.1-.3zm-2.8-2.3l.3.2.1-.3-.4.1zm2.2-4l.2-.6-.6.2.4.4zm3.1-5l.4-.3-.5-.3.1.6zm-4.9-.6l-.2-.4-.4.4h.6zm6.3 6.8l-.4.2.3.3.1-.5zm2.1-3.7l.1.4.3-.2-.4-.2zm-3.7-.3l-.3.3h.4l-.1-.3zm3.7 9.8l-.4-.2.1.4.3-.2zm-4.8-.3h.4l-.1-.4-.3.4zm-7.5 8.7l.3-.2-.4-.2.1.4zm5.3-4.7l.4.2.1-.4-.5.2zm-2.9 3.3l.3-.3-.4-.1.1.4zm-.6 2.9l.3.1-.1-.3-.2.2zm-1.2 3.2l.2-.3h-.3l.1.3zm15.8-23l-.5.2.3.3.2-.5zm2.3-4.1l.1.4.3-.2-.4-.2zm-4 0l-.1-.4-.3.3.4.1zm-16.3 21.4l.1-.5-.5.2.4.3zm2.5-4.3l.3-.2-.4-.2.1.4zm-4.5-.4l.4.1-.1-.4-.3.3zm19.6-15l.4-.2-.4-.3v.5zm-2.3-4.2l-.1-.4-.4.3.5.1zm-2.5 3.4l.2.4.2-.4h-.4zm-.5 2.5v.6l.5-.2-.5-.4zm-3.3-4.6l.5.1-.1-.5-.4.4z"/><path d="M164.9 149.4l.3-.5h-.5l.2.5zm6.1 1.9l-.1-.5-.4.3.5.2zm-5.1 1l.2.4.2-.4h-.4zm3.2 3l-.1.3h.4l-.3-.3zm.8-17.7h.7l-.4-.7-.3.7zm1.9-4.5l-.7.1.5.4.2-.5zm-5.6 1.8v.7l.5-.4-.5-.3zm7.3-1.1l.6.4.1-.8-.7.4zm-1.7-4.3l-.4.6h.7l-.3-.6zm11.6 18.8l.5-.1-.3-.4-.2.5zm-3.9.7l.5.2v-.7l-.5.5zm2.5-2.5l.3-.4-.6-.1.3.5zm-4.8-.1l.5-.2-.3-.4-.2.6zm5.2 2l-.3-.6-.3.6h.6zm-3.7-1.6l.4-.3-.4-.2v.5zm3.4 7.1l-.5.4.5.3v-.7zm2.3-1.7l.3-.4-.5-.2.2.6zm-4.2-.9l-.3-.4-.3.5.6-.1zm6.5 5.3l-.5.4.5.3v-.7zm-.2-4.2l.2.5.2.7.9-.8-.7-.2-.6-.2zm-7.4-7.6h.6l-.3-.6-.3.6zm1.5-3.3l.1-.5-.6.1.5.4zm-4.6 1.6l.4-.3-.4-.2v.5zm.8-4.3h.6l-.3-.6-.3.6zm-.2-3.9l-.6.1.4.4.2-.5zm-2.9 2.3l.5-.3-.4-.2-.1.5zm3.5 4.5l-.3-.6-.3.6h.6zm.8-3.3l.1-.5-.5.1.4.4zm-4 1.3l-.4-.3v.6l.4-.3zm11.9 14.2l.3.8.4-.7-.7-.1zm-1.7 4.4l.7-.1-.5-.5-.2.6zm4.5-1.8l.5.4.1-.7-.6.3z"/><path d="M182.9 150.7l.7-.1-.5-.5-.2.6zm-11.1-11.5l.4-.7-.7-.1.3.8zm-1.8 3.1l-.2.5.7-.1-.5-.4zm5.7-1.4l-.6.3.5.4.1-.7zm8.3 13.8l.4-.7h.4l-.3-.4-.2.4-.5-.1.2.8zm-8.2 4.9l-.7-.1.3.8.4-.7zm-5.7 4.8l-.5.5.8.3-.3-.8zm12.9-7.5l-.5.5.8.3-.3-.8zm-5.4 3.9l-.2.6.7-.1-.5-.5zm5.6-.7l.1-.7-.6.3.5.4zm-7.7-20.2l-.7-.1.3.8.4-.7zm-2.2 3.7l-.2.5.7-.1-.5-.4zm5.6-.6l.1-.7-.6.3.5.4zm-4.4 10.2l-.5.5.8.2-.3-.7zm1.7 4l.3.5.3-.6-.6.1zm2.3-5.4l-.1.7.6-.2-.5-.5zm-2.2 3.5l-.2.7.8-.1-.6-.6zm3.8 3.1v-.7l-.6.4.6.3zm-.1-5.9l-.6-.2.2.6.4-.4zm-13 19.4l-.4-.2.1.5.3-.3zm-1.6 2.4l-.5-.1.1.5.4-.4zm2.4-1.7l-.4.2.4.3v-.5zm-.7 3.8l-.2.4.4-.1-.2-.3zm4.2-14.6l.1.5.4-.4-.5-.1zm2.6-1.3l.4.3v-.5l-.4.2zm6.6-4.4l.4-.3-.5-.1.1.4zm1.6 1.9l.4-.1-.2-.3-.2.4zm-5.4 4.4h.5l-.2-.5-.3.5zm-.5-2.8l.4-.3-.4-.1v.4zm3.7 1.7v-.5l-.4.2.4.3zM165 172.9l-.3-.1.2.3.1-.2zm-1.8-.4v-.3l-.2.2.2.1z"/><path d="M165 171.1l.3-.1-.3-.2v.3zm5.4-1.9l.2-.3-.3-.1.1.4zm-1.8-1l-.2.2.3.1-.1-.3zm1.9-1.1l.3-.1-.3-.2v.3zm-3.1 20.6l.2.3.2-.3h-.4zm-2.5-2.1l.3.1v-.3l-.3.2zm2.9-.9l.3-.1-.2-.1-.1.2zm-1.6-1.1l.4-.1-.3-.4-.1.5zm-.5-4.5l.2.3.2-.3h-.4zm-3.6 5.2l.4-.1-.3-.4-.1.5zm-.5-4.2l.2-.3h-.4l.2.3zm3.4 1.1l.3.1-.1-.4-.2.3zm-1.4 13.9l.5-.1-.4-.4-.1.5zm-.5-5l.2-.4h-.4l.2.4zm3.9 1.4l.4.2-.1-.4-.3.2zm-8.1-12.6l.3-.1-.2-.3-.1.4z"/><path d="M158.6 175.5l.2-.2h-.3l.1.2zm2.8.8l-.2.2.3.1-.1-.3zm17.6-16.9l.3-.1-.2-.3-.1.4zm-19.1 17.7l.2-.3-.4.1.2.2zm2.9-2.1l-.1.2.3.1-.2-.3zm.1 3.3l.2-.2-.3-.1.1.3zm1.7-8.2l.4.2v-.5l-.4.3zm.8-2.8l-.3-.3-.1.4.4-.1zm1.7 2.4l.2.4.2-.4h-.4zm2.7-6.4l-.5-.2v.6l.5-.4zm-6.8 9.9l-.4.2.4.2v-.4zm6.4-8.8l-.4.4.6.1-.2-.5zm2 .6l.2-.6-.5.1.3.5zm-4.7 1.7l.3-.2-.4-.2.1.4zm.4-3.9l.2-.5-.5.2.3.3z"/></g><linearGradient id="H" gradientUnits="userSpaceOnUse" x1="189.9" y1="153.99" x2="270.7" y2="153.99"><stop offset="0" stop-color="#997ebd"/><stop offset=".41" stop-color="#7c59aa"/><stop offset="1" stop-color="#6629c8"/></linearGradient><path d="M190.2 206.2c0 .2-.1.9-.2 1.1v.1c0 .3-.1.4-.1.5v.1h80.8l-6.1-65.8c-2-11.8-13.3-43-37.9-42.2-4.1.1-8.1.3-12.1 2.8-.1 0-2.2 1.6-2.5 1.8-1.7 1.4-7.6 8.2-12.4 34.5-2 11.7-9.5 67.1-9.5 67.1z" fill="url(#H)"/><linearGradient id="I" gradientUnits="userSpaceOnUse" x1="221.36" y1="179.4" x2="248.25" y2="160.94"><stop offset="0" stop-color="#6a4bb4" stop-opacity="0"/><stop offset="1" stop-color="#4f3282"/></linearGradient><path d="M211 124l7.3 52.9s10.7 0 14.2 10c3.3 9.6 5.4 20.9 5.4 20.9l33 .1-2.4-28.5L211 124z" fill="url(#I)"/><path d="M236.8 160.4s8.3 15.6 19.9 27.2 14.6 12 21.5 12.5c7.9.5 16-3.5 28.3-10.8s36.1-22.8 36.1-22.8 6.7-3 11.9-8.7 5.3-6.8 5.9-7.7-1.1-1.4-1.1-1.4 1.7-1.7 1.1-2.9-2-.5-2-.5.2-1.6-.4-2.2-2.9.6-5.1 2c-1.8 1.2-7.1 3.1-8 3.6s1.4-2 2.4-3.3c1.1-1.4.6-3.5-1.8-1.5s-4.7 3.3-5.3 3.9-2 2.3-2.9 3.5l-.9 1.2s-.6.9-3.6 2.1c-5 2-29.2 9.8-38.9 12-4.8 1.1-11.7-.8-15.2-4.7s-19.5-28.1-19.5-28.1l-22.4 26.6z" fill="#ea9d7d"/><linearGradient id="J" gradientUnits="userSpaceOnUse" x1="309.7" y1="175.16" x2="316.06" y2="192.05"><stop offset="0" stop-color="#cc7a5e" stop-opacity="0"/><stop offset=".92" stop-color="#aa5f4b"/></linearGradient><path d="M256 186.9s11.1 12.1 18.4 13c6.1.7 11.3.1 18.6-3.2 5.5-2.5 12.2-6.6 21.7-12.4 7.4-4.5 12.9-8.2 17-10.8l10.9-7 6.2-3.6c2.7-1.6 8.8-8.2 10.2-10.4 1.3-2.2-6.6 2.3-12.1 5.1s-34.8 13.5-52 20.4c-13.9 5.6-24.5 14.1-38.9 8.9z" fill="url(#J)"/><linearGradient id="K" gradientUnits="userSpaceOnUse" x1="264.89" y1="169.4" x2="252.13" y2="156.11"><stop offset="0" stop-color="#cc7a5e" stop-opacity="0"/><stop offset=".92" stop-color="#aa5f4b"/></linearGradient><path d="M256 186.9s.6-10.5 7.9-18.4 12.8-8.9 12.8-8.9l-12.1-17.4-27 20.1c0-.1 10.5 17.6 18.4 24.6z" fill="url(#K)"/><linearGradient id="L" gradientUnits="userSpaceOnUse" x1="326.37" y1="165.99" x2="333.56" y2="162.5"><stop offset="0" stop-color="#cc7a5e" stop-opacity="0"/><stop offset=".92" stop-color="#aa5f4b"/></linearGradient><path d="M327.5 156.4s1.8 4.7 1.4 4.9c-1.2.8-3.1 5-.8 8.1 2.6 3.4 6.4 1.9 6.4 1.9l2.7-1.6-8.1-14.3-1.6 1z" fill="url(#L)"/><linearGradient id="M" gradientUnits="userSpaceOnUse" x1="340.49" y1="158.38" x2="334.68" y2="162.22"><stop offset="0" stop-color="#cc7a5e" stop-opacity="0"/><stop offset=".92" stop-color="#aa5f4b"/></linearGradient><path d="M333 154.3s1.8 3.2 2.2 3.1c1.4-.5 5.6.4 7 3.9 1.6 3.9-.7 5.9-.7 5.9l-2.7 1.5-8-13.4 2.2-1z" fill="url(#M)"/><g fill="#cc7a5e"><path d="M353.6 153.5c-.1 0-.2-.1-.3-.2-.1-.2-.1-.4.1-.6l5.7-4.4c.8-.6 1.4-1.6 1-2.4-.1-.2-.3-.4-.5-.4-.3-.1-.8.2-1 .3s-.5 0-.6-.2 0-.4.2-.5c.1-.2.8-.6 1.6-.4.3 0 .9.3 1.1.9.7 1.5-.8 2.9-1.3 3.5h0l-5.7 4.4h-.3z"/><path d="M332 155.3c-.1 0-.3-.1-.4-.2-.1-.2 0-.5.2-.6l4.3-2.3c.2-.6 1-2.5 3.2-4.2l6.7-5c1.2-.7 1.8-.5 2.1-.2.1.1.3.3.3.5.1.9-1 2.6-2.8 4.8a63.6 63.6 0 0 0 7.5-3.4l.6-.3c2.5-1.5 3-1.7 4-1.5.6.1.9.5 1.1.8.4.8 0 1.8 0 1.9s-.1.1-.2.2l-7.3 4.8c-.2.1-.5.1-.6-.1s-.1-.5.1-.6l7.2-4.7c.1-.3.2-.8 0-1.1-.1-.2-.3-.3-.5-.3-.7-.1-.9 0-3.5 1.4l-.6.3a78.9 78.9 0 0 1-9.3 4.1c-.2.1-.4 0-.5-.2s-.1-.4 0-.5c3-3.2 3.8-5 3.8-5.4-.1-.1-.4-.2-1.1.3a88.4 88.4 0 0 0-6.6 5c-2.3 1.8-2.9 3.9-2.9 4s-.1.2-.2.3l-4.4 2.4c-.1-.2-.2-.2-.2-.2z"/><path d="M292.2 167.8c-.2 0-.3-.1-.4-.3s.1-.5.3-.5c.3-.1 24.9-7.3 29.4-8.9 4.4-1.5 10.7-3.9 10.8-3.9.2-.1.5 0 .5.2.1.2 0 .5-.2.5-.1 0-6.4 2.4-10.9 4-4.5 1.5-29.2 8.8-29.5 8.9h0z"/></g><linearGradient id="N" gradientUnits="userSpaceOnUse" x1="266.79" y1="180.2" x2="257.36" y2="189.35"><stop offset="0" stop-color="#cc7a5e" stop-opacity="0"/><stop offset=".92" stop-color="#aa5f4b"/></linearGradient><path d="M240.2 166.7s9.9 14.6 15.8 20.2c5.6 5.6 9.6 9.6 14.4 11.7 4.8 2 7.9 1.5 9.8 1.5s7.1-.7 11.7-3.1 5.3-2.5 5.3-2.5-23.7-6.5-34.6-17.8c-10.9-11.4-13.2-18.6-13.2-18.6s-13.7 2.6-9.2 8.6z" fill="url(#N)"/><linearGradient id="O" gradientUnits="userSpaceOnUse" x1="249.26" y1="122.78" x2="199.94" y2="160.8"><stop offset="0" stop-color="#997ebd"/><stop offset=".57" stop-color="#7c59aa"/><stop offset="1" stop-color="#6a4bb4"/></linearGradient><path d="M230.4 172.2S219 153 214.8 139.6c-4.3-13.5-8.7-27.5 6.9-36.4 15.6-9 28.4 7.3 35.3 17.3s16.1 25.1 16.1 25.1l-42.7 26.6z" fill="url(#O)"/><linearGradient id="P" gradientUnits="userSpaceOnUse" x1="232.25" y1="134.89" x2="214.35" y2="148.72"><stop offset="0" stop-color="#6a4bb4" stop-opacity="0"/><stop offset="1" stop-color="#4f3282"/></linearGradient><path d="M216.9 106.8s2.3 13.4 14.5 28.3 27.8 18.9 27.8 18.9l-28.8 18.2s-10.2-18.2-13.9-27.9-5.9-19-4.8-26.8c1.2-7.8 5.2-10.7 5.2-10.7z" fill="url(#P)"/><path d="M230.4 172.8c-.2 0-.4-.1-.5-.3-.2-.3-.1-.6.2-.8l42.1-26.4c.3-.2.6-.1.8.2s.1.6-.2.8l-42.1 26.4c-.1.1-.2.1-.3.1z" fill="#51347a"/><linearGradient id="Q" gradientUnits="userSpaceOnUse" x1="212.08" y1="110.5" x2="222.87" y2="158.77"><stop offset="0" stop-color="#744795"/><stop offset="1" stop-color="#51347a"/></linearGradient><path d="M230 172.6c-.1-.2-13-23.4-17.6-39.5-4.3-15.1 1.2-22.9 1.4-23.3l.8-.9c.3-.1-.1.4-.2.7h0c-.1.1-5.5 8.6-1.3 23.3 4.6 16 17.3 38.7 17.5 38.9l-.6.8z" fill="url(#Q)"/><g fill="#ffb7a4"><path d="M307.6 164.6l.3-.4-.4-.1.1.5zm-21.3 2.5l-.6-.1.2.5.4-.4zm1.4.3h-.6l.2.5.4-.5zm-9.5-4.7l.4-.4-.6-.1.2.5zm3.2 2.6l.4-.4-.6-.1.2.5zm6.8 3.7l-.1.4.4-.2-.3-.2zm2.6 1.6l.4-.2-.4-.4v.6zm-1.8-2.2l.2-.4-.5.1.3.3zm3.9.3l.4.1-.2-.4-.2.3zm-15.5-1.9l.4-.2-.4-.4v.6zm-1.8-2.2l.2-.4-.5.1.3.3zm3.6-.5l.5.1-.2-.4-.3.3zm-2.8-2.9l.5.2-.1-.5-.4.3zm-2.5 1.4l.4-.2-.4-.3v.5zm1.1-3.8l.2-.4-.5.1.3.3zm15.7 8.8v.4l.3-.1-.3-.3zm-1.2 3.4l.3-.2-.3-.1v.3zm0 1.9v-.3l-.3.1.3.2zm-2-1.8h.3l-.2-.3-.1.3zm30.1-10.4v-.3l-.3.1.3.2zm-33.1 5.7l.3-.2-.3-.1v.3zm-.2 1.7l.2.2.1-.3-.3.1zm19.3-3v.3l.3-.2-.3-.1zm-1.6 2.5v-.3l-.3.1.3.2zm-1.1-1.2l-.1-.3-.1.1.1-.9-1.3.5 1.1 1.2.1-.5.2-.1zm-1.7 1.1l-.2.3h.4l-.2-.3zm-3.3 1.4l.2-.2-.3-.1.1.3zm4.9 1.2h.4l-.2-.3-.2.3zm-3.7 2l.2-.2-.3-.1.1.3zm.6-2.9v-.3l-.3.2.3.1zm10.5-2.7h.4l-.1-.3-.3.3zm-3 .6l.2-.2-.3-.1.1.3zm.5-2.4v-.3l-.3.1.3.2zm8.1 1.6h.4l-.2-.3-.2.3zm-2.6 1.4l.2-.2-.3-.1.1.3zm.6-3v-.3l-.3.1.3.2zm1.2-1.3h-.4l.3.3.1-.3zm0 4.9l.2-.2-.4-.1.2.3zm-2.1-2.7v-.3l-.2.2.2.1zm2.9-.9l-.1.2h.3l-.2-.2zm-14.5 6.1h.4l-.2-.3-.2.3zm-5.6 3.2l.2-.2-.3-.1.1.3zm0-3.2l-.3.2.2.1.1-.3zm-20.5-11.1h.4l-.2-.3-.2.3zm.5-2.7l.1.3.2-.2-.3-.1zm-.7-1.6l.1.3.2-.2-.3-.1zm22.7 18.3l.2-.3-.4-.1.2.4zm-3.4-1.1v-.3l-.2.2.2.1zm2.7-.9l.3-.1-.2-.2-.1.3zm1.8-1.3l.2-.2-.4-.1.2.3zm-1.8-2.2v-.3l-.2.2.2.1zm2.3-1.4v.3l.3-.1-.3-.2zm2-.9l-.3.3.3.1v-.4zm3.1-.2l.1.3.1-.3h-.1l.2-.8-.9.1.6.7zm-15.5 6l.1-.4-.5.1.4.3zm-3.2 0h.4l-.2-.3-.2.3zm2.3-2.4l.4-.2-.5-.1.1.3zm-6.9-.8l.5-.2-.5-.3v.5zm11.4 4.6l.2-.5-.4.1.2.4zm34-14.2l-.3-.5-.2.4.3-.8-1.3.4.9.7.1-.3.5.1zm1.8.3l.3-.4-.4-.1.1.5zm-2.8 2.4v-.4l-.4.2.4.2zm-9.3.4l.5-.2-.5-.3v.5zm-2.5.6l-.1.5.5-.2-.4-.3z"/><path d="M308.8 163l1.1 1.2.2-1.6-1.3.4zm5.7-1.8l1.2.7.6-1.2-1.8.5zm5.9-1.9l1.2.7.6-1.2-1.8.5zm-13.8 5.8l.2-1.6-1.3.5 1.1 1.1zm-12.3 3.7l.4-1.6-1.4.3 1 1.3zm-4.8-1.9l.6 1.5.8-1.4-1.4-.1zm-6.2-1.6l.1 1.6 1.2-1.1-1.3-.5zm-3.1-1.9l-.3 1.6 1.5-.7-1.2-.9zm11 4.7l.3 1 .7-.9-1-.1zm-2.1 1l-.7.8h1.2l-.5-.8zm-2.9-.2h1.1l-.4-.9-.7.9zm-2.2 0h1.1l-.4-.9-.7.9zm18.3-2l1-.2-.8-.7-.2.9zm-1.3 1.7l.7-.2-.6-.5-.1.7zm4.1-.3l.1-.7-.7.4.6.3zm9-4.4l-.7.4.6.4.1-.8zm-3.3-.8l-.7.5.7.4v-.9l.1.1.1-.8-.7.4.5.3zm9.2-3.7l-.7.4.6.4.1-.8zm-11.5 3.8l-.7.4.6.4.1-.8zm-1.8 3l.1-.7-.7.4.6.3zm-2.1-1.9l-.2.9 1-.2-.8-.7zm3.4 1.3l1-.2-.8-.7-.2.9zm-11.9 2.4l.4-1-1 .4.6.6zm-7.2-1l-1 .3.7.6.3-.9zm-4 .8l.3-1-1 .4.7.6zm-2.3-1.2h.2l-.2-.3v.3l-.3-.3-.1 1.1.9-.3-.5-.5zm14.9 1.9l.8-.1-.5-.7-.3.8zm18-4.6l.1-.9-.7.5.6.4zm-3.5.5l.7-.3-.7-.6v.9zm.3-2.5v.9l.7-.4-.7-.5zm-7.5 3.7l-.9.1.6.6.3-.7zm-4.6 1.9l.2-.8-.9.1.7.7zm13.5-5.9l-.7.5.7.4v-.9zm6.3-1.3l-1 .7.9.5.1-1.2zm6.2-2l.4-1.1-1.4.4 1 .7zm-9 2l-.7.5.7.4v-.9zM298 167l.8-.1-.5-.7-.3.8zm18.2-4.3l.2-.4-.4.1.2.3zm-1.1 2.4h.5l-.2-.4-.3.4zm12.2-7.8l.1.5.3-.4-.4-.1zm-2.7 2.9v-.4l-.4.2.4.2zm-3.8.5l.3-.4-.4-.1.1.5zm-3.3 1.6v-.4l-.4.2.4.2zm1.1-2l.3.4.2-.5-.5.1zm-.9 3.5h.5l-.2-.4-.3.4zm-36.9 4.7v-.6l-.4.3.4.3zm-.9-2.6l.2.5.4-.4-.6-.1zm2.7 4.5l.5-.1-.3-.3-.2.4zm-3.6.6l.2-.4-.5-.1.3.5zm42.9-11.2l.3.5.2-.5h-.5zm.4 2.7l.5.1-.1-.4-.4.3zm-2.5-.5l.4-.2-.4-.3v.5z"/></g><path d="M327.7 156.6l8.7 15c.3.6 1.1.8 1.6.4l2.4-1.4c.6-.3.8-1.1.4-1.6l-8.5-14.7c-.3-.5-.9-.7-1.5-.5l-2.6 1.1c-.6.3-.8 1.1-.5 1.7z" fill="#283749"/><linearGradient id="R" gradientUnits="userSpaceOnUse" x1="330.95" y1="156.76" x2="332.49" y2="159.55"><stop offset="0" stop-color="#151e28" stop-opacity="0"/><stop offset="1" stop-color="#151e28"/></linearGradient><path d="M330.7 161.7l-2.2-3.8 4.5-2.7 2.6 4.4-4.9 2.1z" fill="url(#R)"/><linearGradient id="S" gradientUnits="userSpaceOnUse" x1="338.71" y1="170.28" x2="337.92" y2="168.83"><stop offset="0" stop-color="#151e28" stop-opacity="0"/><stop offset="1" stop-color="#151e28"/></linearGradient><path d="M339.8 167l1.2 2-4.5 2.7-1.2-2.2 4.5-2.5z" fill="url(#S)"/><path d="M335.1 170a6 6 0 1 0 0-12 6 6 0 0 0-6 6c0 3.4 2.7 6 6 6z" fill="#283749"/><g fill="#445a6b"><path d="M335.1 165.3c.7 0 1.2-.6 1.2-1.2 0-.7-.6-1.2-1.2-1.2-.7 0-1.2.6-1.2 1.2-.1.6.5 1.2 1.2 1.2z"/><path d="M337.4 165.4h-.1l-2.9-1.3 3.7-2.5c.2-.1.4-.1.5.1s.1.4-.1.5l-2.6 1.7 1.7.7c.2.1.3.3.2.5s-.2.3-.4.3z"/></g><g fill="#be95f9"><path d="M205.8 144.3l.9-.7-1.2-.3.3 1zm-7.6 28.8l1 .3-.2-1.2-.8.9zm8.9-4.7l-.9.8 1 .4-.1-1.2zm-2.1-38.2l-.6.1.4.6.2-.7zm-3.2 22.9l-1.2-.3.2 1 1-.7zm9.4-8.2l-.5.3.5.4v-.7zm-.3 6.2h.5l-.2-.5-.3.5zm-.2-2.7l-.4-.1.1.4.3-.3zm2.7 1.3l.3.2v-.4l-.3.2zm-6.8-15.4h-.7l.3.6-.2.4.9-.1-.4-.7.1-.2zm-1.7-6.6v-.8l-.7.5.7.3zm4.5-.7h-.6l.3.6.3-.6zm-5.2 41.9l-.6.1.3.6.3-.7zm-6.2-.1l-.3.8h.7l-.4-.8zm8.2-7.2l-.7-.2.1.6.6-.4zm-5.2 13l-.5-1.3.3-.4-.9-.3.4 1-.2.3-.1-.2-.4.7h.3l-.1.1 1.2.1zm2.2-2.5l-.7-.2.1.6.6-.4zm.1-8.6l.4.4.2-.4h-.6zm-.2-2.5l.4-.2-.4-.1v.3zm-.2-5.5v-.5l-.4.2.4.3zm3.2-5.5l.1-.5-.4.2.3.3zm1.6 1.6l-.2.4.5-.1-.3-.3zm-5.8-1.6l.4-.1-.2-.3-.2.4zm9.5 5.9l.4-.4-.4-.2v.6zm-4.8.6l.9.1-.3-.9-.4.5-.1-.1-.1.4zm3.3 10.7l-.3-.3-.1.4.4-.1zm-1.6-4.2l-.5.1.2.3.3-.4zm-6.5 7.2h1.2l-.5-.9-.7.9zm-.6 2.6l-.3.6h.4l.1.4.5-.5-.5-.2-.2-.3zm-1 6l.1-.1.2.5.6-.7-.5-.1.4-.5-1.3-.4.3-.1-.6-.4-.1.8.4-.2.5 1.2zm1.5-1.7l-.5.3.4.2.1-.5zm-.9-10.4l-.7.4.6.3.1-.7z"/><path d="M203.5 149.2l-.3-.6-.4.5.7.1zm1 5.4l.5-.4-.5-.2v.6zm-3.8-3.8l-.4.5.7.2-.3-.7zm2.8-10.8l-.4.6.8.2-.4-.8zm1.5 7.4l.6-.5-.6-.3v.8zm-.9-6.7h.7l-.3-.7-.4.7zm1.3 2.3l-.2-.1.1-.1-.9-.3.4.9.6-.4zm-6.3 18.5l.4-.7-.8.2.4.5zm11.1-52h.6l-.9-1.7-.9 1.4 1.2.3zm-2.9 6.2l.6.8-.3.1.6.4.2-.8-.4.2.4-.8h-.2l.1-1.1.8.4-.3.2 1.3.8.3-1.7-1.4.8.1-1.2-.3.2-1.4-1.9-.9 1.9h1l-.1.4-.7.4.1.1-.4.3.9.5zm.1-.1v-.3l.5.3h-.5zm.8-1.2v-.4h.5l-.5.4zm-.5-.3h.5l-.3.2-.2-.2zm4.7-7.3l-.3.6.7-.1-.4-.5zm-3.8 14.4h.5l-.2-.3-.3.3zm-1.8 2.2l-.8-.6.1 2.1 1.6-.9-.7-.6.1-.1-.3.1zm1.2-.8l-.4.4.6.2-.2-.6zm-1.7 5.9l-.5-.3v.7l.5-.4zm-8.3 61.7l-.2-1.2-.8.8 1 .4zm-.3-5.9l1 .3-.2-1.2-.8.9zm-.7 2.6l.7-.2-.6-.4-.1.6zm7.5 1.4l-.8.1.6.6.2-.7zm-4.4.1l-.2-.6-.4.6h.6zm5.1-5.9h-.8l.6.6.2-.6zm-4.3.2l-.2-.6-.4.6h.6zm4.4 15.2l.3-.7-.8.1.5.6zm-.9-5.1l.1.6.6-.3-.7-.3zm-.7 13.8l.2-.7-.8.1.6.6zm-.2-4.9l-.7-.2.1.6.6-.4zm-1.5 2.7l.3-.7h-.8l.5.7zm-4.7-.6l.6.1-.2-.6-.4.5zm3.9-4.6l.1.6.6-.4-.7-.2zm-3.2-2.9l-.1-.2-.4.7h.2l-.1.1 1.3.2-.5-1.4-.4.6zm3-1.8l-.7-.2.1.6.6-.4zm-4.5-2.8l.2.8.7-.6-.9-.2z"/><path d="M199.5 191.1l-.4-.6-.4.7.8-.1zm-7.3 14.4l-.1-.6.6-.4-.7-.2v-.1l-.1.1-1.3-.4.3 1.8.5-.3.8.1zm5.8-5.6l-.1.1-.3-.1.3-.1-.6-.4-.1.5-.4.7.9-.1-.1.2h.3l.3.7.8-.9-.8-.2-.2-.4zm-.4.2l-.1-.2.1.2zm.6-5.9l.7-.1-.1-.1h.4l-.3-.5-.2.3-.1-.1-.4.5zm1.3 5.3l-.5.3.4.2.1-.5zm3.2-7.8l-.5.7h1l-.5-.7zm-3.4 4.4l.5-.5-.5-.2-.1-.2-.1.1-.3.4h.4l.1.4zm-.6-7l-.7.4.6.4.1-.8zm2-35.4l-.2-1.2.2.2.4-.7-.6.1v-.1l-.1.2h-.1l-1.1 1.1 1.5.4zm4.7-.1l1.2-1.4-.3-.1.5-.1-.7-1.1-.5 1-1-.3.8 2zm-3.1 14.4l-2-.6.8 2 1.2-1.4zm-1-2.3h.6l-.2.3.6.1-.2-.6-.1.2-.1-.1.5-.5-.9-.3.2.5-.4.4-1.6-.7v.1l-.1-.1-.1.6.2-.1v1.1l-.7.7 1 .3v-.6l1.4-1.2-.1-.1zm3.1-8.7l-.4.4-.5-.9-.2.5-.2-.1v.7l.1-.1h.7l-.8.8.3.1-.3.1.5.4v-.5l.9.3-.2-1.2.3-.1-.2-.4-.1.3.1-.3zm1.2-6.8l-.2-1.7-1.2 1.3 1.4.4zm-2.6 10.6l-.1-1.2-.9.8 1 .4zm-.2-6.5l1-.3-.9-.6-.1.9z"/><path d="M209.1 159.8l-.2.1.4.2.3-1-.9.1.4.6zm4.4-2.5l.4-1-1.2.1.8.9zm-1.3-7.5l.1.9.8-.5-.9-.4zm3.2 20.3l.4-1-1.2.1.8.9zm-6.3-1.7l-.6.8.9.1-.3-.9zm5.1-5.9l.1.8.8-.5-.9-.3zM213 183l.3-1-1.2.1.9.9zm-.3-7.3l-1-.3.1.9.9-.6zm-1.7 3h-1.2l.4.5h-.7l.8.9.2-.5.1.1.4-1zm-6.5-.2l.3-.2-.4-.1-.1-.1v.1h-.1v.2l-.1.1-.6.8.9.1-.1-.4h.4l-.2-.5zm4.9-6.4v.5l-.2-.1.1.9.9-.5-.5-.2.5-.3-.8-.3zm-6.1 12.5l.9-.5-.9-.8v1.3zm4.3-6.4l-.5.7 1 .2-.5-.9zm-2.3-11.4l-.7 1.1-.2-.3-.6 1h.5l-.1.1 1.9.3-.8-2.2zm3.8-1.7l-1-.3.1.9.9-.6zm-10.3.4v-1l-.1.1.1-.3-.8.1.1.1-.5.1.5.4-.1.1.8.4z"/><path d="M205.7 169.4l-.7.2-.2-.3-.3.4v-.2l-.3.3h-.1l-.9.9 1.5.4-.1-1 .8.7.3-1.4zm-2-8.1l-1.4-.3.1.4-.9.8 1 .4-.1-1.1.2.8 1.1-1zm2.2-1.7l-.7 1 1.2-.2-.5-.8zm-5.6-2.1l.1-1-.9.6.8.4zm1.7 3.4l-.9-1.4.7.3-.1-1.2-.8.7-.4-.6-.9 2.6 2.4-.4zm-3.6 14.8l1-1.2h.3l-.1-.2.4-.5-2.6-.7 1 2.6zm3.6-.6l-1.7.3 1.1 1.7.6-2zm-1.5-2.6l.3-.7h.2l-.1-.2h.4l-.3-.4.2-.6-1.8.3 1.1 1.6z"/><path d="M199 163.5l1.5.4-.1-.6.1.5.1-.1h.3l-.1-.2.5-.5v1.5l1.7-1.3-1.7-.7v.6l-1.1-.2v-.2h.6l-.4-.7-.3.6v-.2l-1.1 1.1zm-1.6-.2h0l-.3.4 1.5.4-.2-1.4 1.4-.4-.6-.4v-.5l-.3.2-.8-.6 1-1.2-1.6-.5.7-.2-.1-.1.5-.1-.5.5 1.5.4-.1-1.1 1-.2-1.5-1.2.3-.3.1.3.9-.7-.5-.1.2-.3-.8-.2.3-.6 1.1-.3.3.7.6-.7.6.2-.2-.7.2-.2-1.9-.6.2.5h-.2l-1.1-.7v-.8l.1.1 1.2-1.3-1.6-.5.3-.1.2.2.2-.4 2.4-.7-.5-.3 1.2-1.4-.3-.1 1-1.3-.5-.1.5-.5-1.9-.6.3.8-.6-.2.1-.1-1.6-.5 1.7-.4-.5.3.6.4.1-.7 1.2-.3-1.7-1.4h.1l.6.2.1.1.3.1-.1-1.2-.1.1-.3.2.1-.4-1 .2.5.4-.1.1-.5-.4v.2l-.9-.7-.6 3.4.4-.1.4 1 .1.5.1.4.4-.5.3.2.1-.7.1-.1.6 1.4-.7-.2v-.2l-.4.2.4.4.6 1.7-1.5-1.1.2-.1-.5-.3v-1l-.8.6-.1-.1v.2l-.3 3.2.3-.1.6 1.5-.5.4-.7-.5-.4 3.5.8-.3.2.5-.3-.1.2.5-.8-.7-.6 3.4.4-.1v.1h.1l.6 1.4-1.2-.9-.5 3.4 1.8-.5-1.1.4zm1.4-7.8l.3.4-.8-.2.5-.2zm-.4 1.1l.2.5-.4-.3.2-.2zm10.8-4.1l-1.2.1.9.8.3-.9zm-2.3-2l-.2 1 .9-.4-.7-.6z"/><path d="M211.3 153.4l-.5.8.9.1-.4-.9zm-14.5 15l-.1.5.2-.1.2.5.9-1 .8 1.9-.6.5.3.2h-.5l.5.5.2-.5.3.2v-.6l.4-.5.2.1v-.4l.8-1-.5-.2-.7-.5-.1.3-1-.3.1-.1-1-.3.4-.4 1.6-.4-1-.8.4-.1-.7-.5-.1.3-1.8-1.4-.5 3.4.8-.2.5.9zm-1.2 4.9l-.3.3 1 .3-.1-.8.3-.1.4.5.3-.7 1.1-.3-2-1.5h.8l-.6-1.2-.1.2v-.3l-.3.3v-1.1l-1 .8.4.2-.4.3v.1l-.3.2.2.1-.5 3 1.1-.3zm.6-2.5l-.2-.1.2.1zm-.1-.7l-.1.1v-.2l.1.1zm9.8-6.6l-.3.5-.1-.2-.5.8 1-.1-.2-.2h.6l-.5-.8zm2.2-2.6l-1 1.4 1.7-.1-.7-1.3zm-3.4 12.4l-.1-.2-.1.1-.4-.1.4-.2-.9-.6-.1.6-.3-.4-.7 1.3h.2l-.6 1 1.5-.2-.6-.8 1-.1-.2-.3.3-.1.2.5-.3.5.5-.1.4.9 1.2-1.3-1.4-.5zm2.2-.8l-.7.5.7.4v-.9zm4.7-11.5l-.8 1.1 1.4-.1-.6-1zm-5 6.5l.7-.7-.7-.3-.1-.1.2-.5h-.8l.4.5-.4.6.6-.1.1.6zm-1-10.4l-1 .6.8.5.2-1.1zm2.8-26.2v-1.8l-1.4 1.1 1.4.7zm.2-.3l.5 2.1 1.4-1.2-1.9-.9zm-5.8.4l1.4-1.2-1.1-.5 1.7-.3.5 1.9 1.4-1.2-1.7-.7.6-.1-1.9-1.7-.1-.9-.5.4-.4-.3 3.3-.6.3 1.1-.9-.4.2-.3-.8.1.1.2.4 1.9 1.4-1.2-.3-.2 1.3-1.2-1.8-.8.1.2-1.9-1.7 1.1.3v-.3l.6-.1-.5-.4-.1.5-.2-1 2.5-.3-2.1-2.1.3-.2v.3l1.5-1-.2-.1.2-.5h.1v.2h-.1l.2.2.2 1-.7-.4.4 2.1 1.4-1.1-.3-.2 1.2-1.1-.4-.2.5-.4-.2-.1 1.3-.6-1.4-1.1-.4 1.4-.8-.4v.1h-.1l-1.9-2.5-1.4 3.2h.7l.1 1.3-.7-.2-.3-.3-.1.2-.9 3.1.5-.1-.4.4.3.1-.2.2-.2-.2-.7 3.4-.1-.1-.8 3.4.6-.1.2 1.2zm5.2-12.6h0zm-1.8 0h0zm-1.2 27.8l-2-.6.8 2 1.2-1.4zm-1-3.4l1.7-1.3-1.7-.7v2zm-1.5 2.6l.6-.5h.8l-.2-.5.4-.3-1.7-.7.1 2z"/><path d="M205.7 136.6l1.5.5-.2-1.7-1.3 1.2zm4.1-7.3v-1.7l-1.4 1 1.4.7zm-3.9 8.2l-.9.8.4.1.5.5.1-.4h.1l-.2-1zm-.2-5.3l-.5-.4-.1.6.6-.2 1-.2-.9-.6-.1.8zm6.5 5.9l.3-1-.9.1.6.9zm-1.3 5.9l.8-.5-1-.4.2.9zm-3.9 1.9l-.6 1h.4l-.1.2h.3l-.2.4h.7l-.2-.4 1.3.2-.7-2.1-.6 1-.3-.3zm-4.1 6l.3-.4.7.2.1.3.2-.2.2.1-.2-1.7-.9 1-.8-.3.1.2-1.9-.6.5 1.4-.1.1h.2l.1.4.3-.3h.1l.9-1 .2.8z"/><path d="M206.6 148.1l1.2 1.1.4-1.4-1.6.3zm-1.3-7.6l1-.9-1.4-.3.4 1.2zm-4.6 16.8l.5 1.2.1-.1.1.3 1.5-1.8-.6-.2.2-.2-.5-.3v.3l-1.6-.5.6 1.3h-.3zm-2.6 29.5l1.6-1.4-1.7-.7.1 2.1zm-1.7.8v2.1l1.7-1.3-1.7-.8zm3.5-6.8l1.5.5-.2-1.6.2-.2-.6-.2v.5l-.1.1-.4-.9-.4.9h.8l-.8.9zm-1.1 2.1l1 .4v-1.2l-1 .8zm.9-6l1-.3-.6-.4-.2-1.2-.8.9.7.2-.1.8zm6.7 5.2l.6.1-.3-1-.5.7-.7.1.5.8.4-.7zm5.5 10.9l.4-1-1.2.1.8.9zm-6.3-1.9l-.6.8.9.1-.3-.9zm5.3-5.7l.1.8.8-.5-.9-.3zm-1.7 20.4l.4-1-1.2.1.8.9zm-6.3-1.9l-.6.8.9.1-.3-.9zm5.2-5.7l.1.9.9-.5-1-.4zm-1.2 4.2l.4-1h-1.2l.8 1zm-6.9-1l.9.1-.3-.9-.6.8zm5.8-6.6l.1.9.9-.5-1-.4zm-6.3 11.1l-.1-.5-.4.6.5.1-.1 1 1-.4-.9-.8zm-4.3-4.2l-.8-.3.4 1.2.6-.6.2.3.4-.9-.8.3zm8.1-.2l1 .2-.4-.9-.6.7zm-.8-10l-.6-2.1-.6.9h-.3l-.1-.2-.6 1h.4l-.1.1 1.9.3zm3.3-3.7l-1-.4.1.9.9-.5zm-9.1 8.3l.6-.7-.9-.3.3 1zm5.5-4l-1.1.2v-.3l-.3.3h-.1l-.4-.7-.7.9h.8l-.7.7 1.5.5-.1-1 .8.7.3-1.3zm-2.8-7.4l1.1-.9-1.4-.3.3 1.2zm3.1-2.8l-.6 1 1.2-.1-.6-.9zm-4.4 5.2l.3.9.6-.7-.9-.2zm-4.4 8.4l1 2.6.9-1 .1.2.8-.9-.2-.1-2.6-.8zm2.9 2.3l1 1.7.5-1.4.3.3.2-.9-.9.2v-.1l-.2.2h-.9zm-.6-4.5l.4.8-.4-.1.2.6.3-.3.5.8.7-2-1.7.2zm-2.3-1.6l.7-.8.2.1v-.3l.8 1.9-.7.4.8.4v-.6l1.4-1.7.2.1v-.2l.3-.1.3.9 1.2-1.4-2-.6.2.5h-.1v.1l-.6.5-1.7-.5.1-.1-.4-.1v-.4l-.3.3-.9-.3 3-.7-3.1-2.5-.6 3.4.4-.1.8 1.8z"/><path d="M193.7 182.2l-.5 3.4 1.3-.3-.7.8v-.1.1l-.1.6.6-.3-.3-.2 1.1.3.2.5-.2.1.1-.4-1 .2.5.4-.1.1.8.4v-.6l.2.5.8-.9-1.2-.4-.2-1.3 1.5-.4.1.1-1 1 1.5.4-.2-1.2.1.1.1-1.6 1.4-.2-1.2-1.9.5.3.1.2.1-.1.5.3.1-.9.2-.2h-.1l.1-.8.4-.5.3.3.4-.9-.5.1.1-.1-.6-.3v.2l-1.7-.5-1-.7v-.2l.4-.5v.1l.3-.4.1.3.1-.1v.7l-.4.1.4.5.1.1.1-.3 2-1.5-1.7-.8.4-.5-.4-.1v-.5l-.6.3.1.1-1.1-.3-.1-1-.2.2-.5-.3-.1.7.5-.2-1.2 1.1.6.2.5.5.1-.3.2.1.2.4-1-.3.7 1.7-.8-.6h.4l-.2-.6-.3.5-.2-.2-.2 1.8-.2-.2-.6 3.4h.1l.4.9-.4-.4zm1.5.6l.8-.6.2.1v-.1l.1.2.6-.7-.7 2.1h.2l-.4.2-1.1-.8.3-.4zm-.5-1.4l.2.1v-.1l.5-.1-.3.3-.4-.2zm2.5-.3l-.2.1.1.1-.1.2-.9-.3v-.1l1.1-.3-1.4-1.1.4-.1.3.1v.4l.3-.3h.1v-.1l.2-.2-.2-.1v-.1l.3-.1.2.5h-.1l.3.9-.2-.1.1.3-.3.3zm-2.8.4l.1.3-.7-.2.6-.1zm-2 22.2l-.1-.7.7-.8-.5-.2 1.9-.6-1.6-1.2v-.4l.9-1-.2-.1.3-.4-.2 2.3 1.5-.9.1.4.4-.5-.3-.1.6-.4-1.6-.9v-.5l.1-.1-1.4-.4.3-.3.2.1v-.2l.4-.5-.4-.1-.1-.6 2.1-.5-1.2-1v-.1h-.3l-.7-.5h.5l-.5-1.1v-.4h.1l-.1-.1v-.6l-.2.2-.1-.1-.1.2-.6.5.8.4-.3.5-.5-.4-.6 3.4.6-.1-.6.5 1.1.4.2.5-.3-.1v-.2l-.1.1-.8-.2.3.6.3.7-.1.2h.1v.1l-.7-.2.6 1.6h-.1l-1.1-.8-.4 3.4.7-.2-.8.7 1.8.7zm2.8-1l-1.8 1 .4.3-.3-.1.3.8.4-.4.6.4.2-1 .1.3.4-.4-.5-.1.2-.8zm-1.9 4.9l.3-1.9-1.8 1 1.5.9zm3.1-6.9l.3 1 .6-.6-.9-.4zm6.2-14.5l-.3.5-.1-.2-.5.8 1-.1-.1-.2h.5l-.5-.8zm2.2-2.6l-1 1.4 1.7-.1-.7-1.3zm-2.4 12.7l-1.3-.4-.1-.2-.1.1-.4-.1.4-.2-.9-.7-.1.6-.7 1.1 1.3-.2-.2.3.5-.1.1.2-.3.5.5.1.1.2 1.2-1.2zm-2.1-.6l.2-.1.2.5-.4-.4zm2.4-.1l.6.4.1-.9-.7.5zm5.6-11.9l-.8 1.1h1.4l-.6-1.1zm-5.2 5.4l-.2-.3-.1.2-.4.6h.6l.2.5.7-.7-.8-.3zm-.6-9.4l-1 .6.8.6.2-1.2zm5.7-41.3h0l-.1.1h.1l.4.3v-.4l.7-.1-.6-.9-.5 1zm-5-3v-1l-.8.6.8.4zm.1 1.6l-.9 2.6 1.5-.3v.1l.8-.2-.1-.1h.2l-.8-1.1h.2l-.2-.3-.1.2-.6-.9zm2.5-2.3l-2.6-.7 1.1 2.6 1.5-1.9z"/><path d="M211.6 130.4l-.7-.6-.3 1 1-.4zm-12.3 11.4l.3-.1-.1.9 1.1-.4h-.1l.6.2-.2-1.1 1.3-.3-.7.7 1 .3v.2l.4-.1h.4l-.3-.3-.2-1.3-.2.2-.6-.7.5-.4-.7-.2.1.5-.4-.3-.1-.3-.1.1-.3-.2.1-.1-.2-.1.8-1 .4.1-.1-1.1 1.2-.3.3.1-.1-.1.3-.1-.3-.3.2-.2-.7-.2-.6-.5v-.2l-.2.1-.3-.3 1.1-1.3-1.4-.4 1.8-.3.2.4.4-.5.5-.1-.2-.2.5-.6-.2-.1.3-.6-.7.1v-1.3l-1.4 1.1 1 .4-.7-.2-1.5-1.3.7-.2-.6-.5-.1.6-.8 3.4h.2l.2.7-.3.2-.3-.3-.5 3.3-.3-.1.5 1.2-.4-.3-.5 3.7zm.7 0l-.2-.1.4-.1-.2.2zm4.4-9.9l.1.2h-.1v-.2zm-3.2 1.7h0-.1.1zm.3 1l.1-.1.3.7-.4-.3v-.3zm-.4 2.9l-.3.3-.4-.1.7-.2zm9.5 1.8l-1 1.4 1.7-.1-.7-1.3zm-1.3 6l-.5-.7-.5.8 1-.1zm-.8-2.4l-.2-.2h.6l-.4-.7v-.1l-.6.3.1.1-.5.7 1-.1zm0-17.5l1.6-.9-1.7-1.2.1 2.1zm-.4-14.4h0l.2 1.7 1.3-.9h.2l.3.2.2-1.7-1.5.9h-.1v-.4l-.4.2-.4-.2.2.2zm4.4-3.1l1.4.1-.5-1.6-.9 1.5z"/><path d="M211.5 109.5l-1 1.4 1.5.2-.5-1.6zm-.2 3.7l-.5-1.6-1 1.4 1.5.2zm2.7-9.1l1-.2-.6-.8-.5.8-.4-.4-.2.9h-.8l-1.2 1.3.9.2-.1.2.6-.1h.1l-.3-1.6.6.7-.1.4 1.7-.5.3.3.8-1.5-1.7.3h-.1zm3.2-1.6l1.3-.3-.7-.9-.6 1.2zm1.7-1.4l.8.8.5-1.2-1.3.4zm-2.6 2.3l.3-1.5-1.4.7 1.1.8zm-5.1 4.9l.1-.2.1.3h-.7l.7.8.2-.5.1.2.5-.7-1-.2.4-1.2.1.1.4-1-1.2.1.6.6-1.4.5 1.1 1.2zm-38.3 15.2l.7 1.4 1.1-1.3-1.8-.1zm.1-2.3l-1 1.8 1.8.1-.8-1.9zm1.4 4.1h1.8l-.8-1.9-1 1.9zm5.3 8.9l.5-.9-1 .1.5.8zm13.5-17.5l.4 1.5 1.3-1.1-1.7-.4zm.3-2.6l.4 1.5 1.3-1.1-1.7-.4zm-2.6 5.2l1.8.3-.6-2-1.2 1.7zm-10.8 3.2l-1 1.9h1.8l-.8-1.9zm4-2.4l-1.6 1.3 2.1.4-.5-1.7zm-2.6.5l-1.6 1.3 2.1.4-.5-1.7zm5.5-.9l1.2-1.3-1.8-.2.6 1.5zm10.9-3.5l1.3-1.2-1.8-.3.5 1.5zm-16.7 7.5l1-.6-1.2-.4.2 1zm6.1-2.6l.1-1.1-.8.4.7.7zm-2.5 7.8l1-.2-.6-.7-.4.9zm-4.4-2.3l1.2-1.9-2.2.2 1 1.7zm6 .9l.9.3-.4-1-.5.7z"/><path d="M179.2 123.3l-.2-.4h.7l-.8-1.9-.4.7-.2-.6h.1l-.4-1 1.9 1.4-.1-4-3 1.7.6.4-.8 1.4h.6v.4l.6-.3h.1l-.7 1.3-.3-.8-.5 1-.1-3.2-3 1.7 2.8 2-.2.3h1.8l-.1-.3 1.6.2zm18.1-4l.1-.9-.9.4.8.5zm-7.3-.2h0l.2-.1-.1-.3.2-.6-.4.1-.6-1.8-1.6 2.3 2 .2.3.2zm-6.3.7l.2-2.5 1.4.2.1.2-1.4.5 1.8 1.6.8-2.6-.8.3.7-.6 1.1 1 .1-1.8 1.7.2-.6-2-1 1.5.2-2-3.2 1.4 1.3 1.2-1-.2-.3-.9-.8 1.2.1-.9-3.1 1.4.6.6-1-.1.5 1.3-.5-.4v1l.8-.4-.2-.2.8-.9 1.1 1-1.1-.1.6 1.4.9-.9.2.5zm2.2 4.5l.1-.2-.9.1.7.7.1-.3.4.4.3-.8-.7.1zm.5-3.2l-1.7.1 1.2 1.3.5-1.4zm4.2 0l.4-.9-1.2.1.8.8zm-6.2 6l.3-.8-1 .1.7.7zm24.1-18.8h0v-.4l.2.7.9-.8-1.1-.2.1-.7-1.6.6.1-.3-2.7.7.1.2-1.1 1.3 1.2.3.1.3-1.7.6.5-2.3-2.6.8.4.5-1.1-.2v-.1l-2.8 1.1v-.1l-3 1.1v-.1l-2 .8-3.5 1.6 2.1 1.7-.9 1.2 1.8.2-.3-.9.2.2.1-.7.1.4 1.3-1.1-1.3-.3.3-1.9 1.8 1.7.2-2.6 1.3 1.4-1.1-.2.4 1.5 1.1-.9.7.7-1.2 1.6 1.8.3-.4-1.7.1.2.1-1 1.3-1.1-1.1-.2.1-1.3 1.4 1.7-1 1.4 1.8.2-.1-.3 1.6.5-.3-1.6-1.4 1-.2-.6.2.3.7-3.6.4 1.2 1-.9 1.1 1.3-.4-.1.3 1.2 1.1-.8-.8-.2.1-.6 1.3 1.2.6-1.5.1.2.9-.8.5.6.4-1.4 1.2.1-.2.2h.5l.1.1v-.1l.6.1-.4-1.4zm-3.7 1.3l-.2-1.3 1.1 1.4-.9-.1zm1.9-.7l.2-.7.2.2-.4.5zm-4.1 4.4l1.8.6-.3-1.6-1.5 1zm-1.6 5.3l.4-.9h-1.1l.7.9zm-6.3-.9l.8.1-.2-.9-.6.8z"/><path d="M200.3 110.9v.9l-.3-.1.1.8.8-.5-.4-.2.6-.3-.8-.6zm37.5-1.5l.4.6.2-.7-.6.1zm-20.3-3.2l-.1 1.1 1.2-.4-1.1-.7zm-.4 3.2l-.1.8.9-.3-.8-.5z"/><path d="M215 110l.4-.1.2.7.2-.2v.5l.7-.3-.5-.3 1-.9.1.1.4-1.1-.5.2-.3.1-.5-1.1-1 1.1 1.1.3.1.2h-.2l-1.2-.2.2.5-.1-.1-.1.6zm1.8-1h0zm-.3 0h0zm15.8-4.3l-.1.7.7-.2-.6-.5zM219 110l.7-.2-.6-.5-.1.7zm-2.5.7l-.1.7.7-.2-.6-.5zm-.7.5l-.1.7.7-.2-.6-.5zm4.1.7h.5l-.2-.5-.3.5zm.6-3.4l.1.4.4-.3-.5-.1zm6 2.1v-.5l-.4.2.4.3zm-2.9-1.2l.2.5.4-.4-.6-.1zm6.6 1.4v-.4l-.1.1-.8-.4.1.9.6-.3.2.1zm2.9 1.7l-.1.5.5-.2-.4-.3zm-1.1 6.8l.5-.2-.3-.3-.2.5zm-18.1-6.9l.2-.6-.6.1.4.5zm.9-1.8l-.4.5.6.1-.2-.6zm4.1-3l-.6.5.6.3v-.8zm-2.2-.3l-.1.5.6-.2-.5-.3z"/><path d="M222.8 106.7l-.6.1.3.5.3-.6zm-4.1 2.7l-.1-.7-.5.6.6.1zm-3.4 4.4l.6-.3-.6-.3v.6zm2.2-1.6l-.5.6.6.2-.1-.8zm2.3 1.7l.6-.3-.6-.3v.6zm-6.6-.3l.6-.3-.6-.3v.6zm4.7 1.5l.2-.6-.6.1.4.5zm-3.3-2.5l.1.6.4-.3-.5-.3zm-1.8 3.4l-.5-.2.1.6.4-.4zm0-2.2l.1.6.4-.3-.5-.3zm.2 3.3l-.6.2.4.4.2-.6zm-.1 3l.2-.6-.6.2.4.4zm.3-4.2l.6-.3-.6-.5v.8zm2.5-1.7l.4.4.2-.6-.6.2zm-.7 2.6l.6.1-.3-.6-.3.5zm-.2 2.1l.6.1-.3-.5-.3.4zm-1.9 3.7l.2-.6-.6.2.4.4zm3.3-2l.6.1-.3-.6-.3.5z"/><path d="M216.2 124.1l.6.1-.3-.6-.3.5zm17.9-15.3l.5.5.3-.7-.8.2zm-.5 6.4l.2-.7-.7.1.5.6zm-3 1.4l.8.1-.3-.6-.5.5zm-2.3 1.6l.5-.2-.3-.3-.2.5zm1.9-4.4l-.7.2.5.5.2-.7zm-3.3 3.2l.3-.7-.7.2.4.5zm-2.3 3.6l.3-.7-.7.2.4.5zm-5.6-3l.3-.7-.7.2.4.5zm12.7-16.5l-.3.5h.3l-.6.4 1.5 1 .1-.5.2-.2-.2-.1.1-.8.2 1.3-.1.1h.2l.1.7-.1.1-.8.5 1.5 1v-.1l.4.5.2-.5.6.7.1 1.1-1.4.5 1.3 1.2.5-1.6.2-.1.1.3.5-.5.8 1.1.1-.2.8 1.7 1.1-1.4-1.8-.4.6-1.2h-1.5l.5-.2-.7-.4v.3h-.1v.3l-.8-.3.4-.9.4.3.1-.3.3.2v.2l.1-.1.9.7.2-.6.3-.1.8.1-.2-.3.4.1-.2-1 .3-.6h-.5l1-.9-1.6-.7-.4-.1-1.2-.4-.1-.2-.1.1h-.1l-2.9-.7v-.1h-.9l.3.6-.5.3-.4-.4zm6.9 3l-.4.4-.1-.1-.3.5-.1-.1.2-.9.3-.3.4.5zm-2.5-2.5l-.2.3h.3l.1.9v.5l-.8.3-.1-.2v.1l-.1-.7-.6.7.7.2-.1.1-.4.2.4.3-1 .2.3.4-.5.1.1-.7.3-.5h-.3v-.2l1.9-2zm3.9 5.1l-.1.7.7-.2-.6-.5zm-11.5.4l.2-.2-1-.2.2.9.2-.1.2.2.2-.6zm-2.7-.8l-.6-.1.2.5.4-.4zm2 1.8l-.3.7.8-.1-.5-.6zm4-2.6l-.4.9h.8l-.4-.9zm-8.9 5.2l-.4-.8-.4.8h.8z"/><path d="M222.8 117.4l.5.1-.3-.5-.2.4zm3.4-1.9l-.2.4h.5l-.3-.4zm-1.6-3.8l-.8.1.4.6.4-.7zm5 .8l-.1-.8-.5.6.6.2zm-6.9 1.4l.6.2-.1-.8-.5.6zm3.5-.6l.9.1-.3-.8-.6.5.1-.2-.6.1.4.5.1-.2zm-4.5 1.9l.5-.4-.6-.1.1.5zm3.3-7.8v.2l-.1-.1-.5.7 1 .2-.2-.5.3-.4-.5-.1zm8.7-.3l.2.3.2-.4 1-.3-1.5-1-.1 1.1h-.1l.1.1v.3l.2-.1zm-1.1-3.9l-1.2-.8v-.1.1l-.2-.2-.2.8v.1l-.1.6 1.7-.5zm1.1 4.1l-1.8 1.1 1.6.9.2-2zm-7.3-.7l-.2 1.5 1.7-.5-1.5-1zm-1.9.2l-.3-.4-.3.7.6-.1v.1l-2 .5 1.2 1.3.8-1.7 1.2-.2-1-.8-.2.6zm6.2-.9l.5.9.4-1-.9.1zm-1.1 11.1l1 .2-.3-1.2-.7 1zm7.1-1.6l.1-.6.2.2.2-.4h.1l.5.8.2-.5 1.1-.3-1.1-1.3-.2 1.2-.4.1-.1-.1.1-.3h-1l.2.3-.5.2.6.7zm-9.3-6l.7 1 .5-.9-1.2-.1zm-5.4-1.3l-.7.8.6.1-.1.6.7-.2-.5-.4h.1l-.1-.9zm13.2 1.2h-1l.6.8.4-.8zm-3 5.3l.9-.5-.9-.4v.9zm-12.9-7.8l-.3.5h.4l-.4.3.6.3v-.6h.6l.1.1-.1.2h.3l.4.3v-.3h.1l-.1-.2-.1-2 .4-.1-.2-.3.7-.5.8.9-.3-.1-.2.1-.4-.1.1.4-.1.1h.1l.2 1 1.1-.8-.1.5.4-.1.1.1v-.1l.9-.2-.3-.2.5-.5 1.2-1.1.7.4.1-.7.6.6-.8.5-.4-.1.1.6.4-.4.1.1-.3.5.8-.1-.2-.2 1.6.9.2-2 .6.1-.4-.5-.2.4.1-.6-.9.6h-.5l.1.2-.2.1.2-1.3.5.4v-.3l.4-.2.4.3.1-.4.5-.1-.5-.4.1-.7.2.3-.2.2h.4l.5.8.1.3-.7.4.7.4h-.2l.2.6.2-.4.5.3.1-.6.2.2.3-.7-.4.1.1-1-.2.1 1-2.6-2 .3.2-.3-1.8.3.6.8-.6.2.1.1-.6.4.3-1.6-1.6.6v-.1l-1.5.5.1.1-.3.1.3.3-.4-.3v.2l-.1-.5-.5.6v-.2l-2.1 1 .2.2-.2.1v-.1l-.3.2-.6.2.2.2-.1.1h-.2l-.4-.1.1.3-1.1.7-.4.3-1.1.7 1.4 1zm4.8-3.2h-.2v-.1l.2.1zm-.3.5l.1-.3.2.4-.3-.1zm-1.7 1.4h0zm.3.1l.1-.1.1.1h-.2zm5.3-2.5l-.3.2.1-.3.2.1zm-2.5.1h0l.4-.1.2.2-.3.6.4-.1-.6.4.3.2-1.5-.2.2-.5.4.1-.1-.3.6-.3zm5.8 5.3h0l.4-.4-.5-.2v.1l-1.4-.3.8 1.5.7-.7zm13.4 7.8l1.6-1.3-.9-.2v-1.1l-1.4.7.1.1.6 1.8zm1.1-4.4v1.8l1.9-.9-1.9-.9zm-2.3-.7l1.6-1.7-2.8-.2.6 1.5-.4.6v.1l-.1.1v-.2l-.4.3.3.2-.1.2h.1l-.1.3h1l-.1-.1.8.1-.4-1.2zm-3.1-3.2l-.8.6 1 .6-.2-1.2zm-3.1 12.1l.6-1-1.2.2.6.8zm3.3-5.4l1 .3-.4-1-.6.7zm2.3 8.3l.8-.6-.8-.4v1zm-13.5-3l.2-1.2-1.1.5.9.7zm1.4-6.2l1-.1-.7-.7-.3.8zm4.8 7.1l.6-.8-.8-.1.2.9z"/><path d="M236.1 111.5l-.1-.1-.2-.6-.2.2-.4-.2.3-.2-1-.7v.4l-.2-.1-.2 1.2-.6.1-.2-.7-.7 1 .6.1.3.5.6-.9-.1.6 2.1-.6zm-5.9-4.5l.2-.6.2-.1h-.1v-.2l-.2.1-.4-.2v.3l-.3.1.6.6zm-9.6 5.7v1.2l.9-.5-.9-.7zm23-3.9l.9.5-.1-1-.8.5z"/><path d="M239 105h.3l-.1.6h-.1v.5l-.3-.5-.8 1.3h.3l-.1.1.6.3v-.3l.8.1-.4-.7 1.6-1 .1.2-.5.3.7.4v-.3l.4.6.5-.8.3.1-.1.2-.5.7.5.1-.2.9-1.6-1.1v.5l-.1.7h.1l-.1 1.3.5-.2.5.5.3-.8.4-.1-.1.2 1.6-.7.1.5.5-.4-.4-.1.3-.1.7 1.6.7-.8-.6 1.4h-.2l.1.2-.2.6.4-.1.4 1 .5-.5.4.4v-.8l.5-.5h-.3l.5-.1.1 1.3 1.3-.7-1.3 2.6 4-.8-2.2-2.6-.2.5-.9-.4.7-.2-2.5-2.4-.2.6-1.5-.1.7-.3.1.1.1-.2.5-.2-.3-.3-2.4-1.8-.1.5v-.1l-.1.1-.1-.5.1-.2-1.2.1.8-.5-3-1.7-.2 1.3-.1.5zm3.8 13.4l.5-1.1-1.2.3.7.8zm3.7-1.3l-.2-.2v-1.5l-1.4.7.8.6-.1.7.9-.3zm-6.6 2.3l1 .2-.4-.9-.6.7zm-1.1-7.5l.2-.1-.8-.5.1 1-.3.7 1.1-.1-.2-.4.3-.2-.4-.4zm-2.9.1l.1 1 .7-.4-.8-.6zm1 6.4l1.2-.4-.9-1-.3 1.4zm6.1-6.3l-.8.7 1.1.4-.3-1.1zm4.8 9.1l1.8-1-2-.8.2 1.8zm3-.4h.1l-.1-1.8-1.3.8 1.1.8-1.1.6 1.4 1-.1-1.4zm-5.9-7.3v-.8l.5-.2-.7-.6-.1.4-.6.3.9.9zm3.5 4.4l1-.3-.6-.7-.4 1zm-7.8.8l.5-.7-1-.2.5.9zm-1.5 5.1l.8-.9h-1.2l.4.9zm5.1-5.3l-.7.5.9.5-.2-1zm-.2 9.2l1-.5-.7-.5-.3 1zm1.1-4.5l.7-.9h-1.2l.5.9zm3.1-1.4l-.3 1 .3-.1.4.7.4-1h-.3l-.5-.6zm11.3 13.6l1.4 1.1v-1.8l-1.4.7zM258 133l.1 1.8 1.8-.9-1.9-.9zm2.2-1.7v1.8l.9-.4-.1.2h.7l-.4.2 1.3 1.2.1-1.3h2.3l-2-3.3-1.4 2.3-1.4-.7zm2.1 8.4l1.5.9-.2-1.8-1.3.9zm-9.2-14.7l.3-1.2-.9.3-.4-1.9-1.5 1.2 2 .9v-.1l.5.8zm-5.2 4.3l.6-.7-.9-.3.3 1z"/><path d="M250.2 129.3l-.2 1 .9-.5-.7-.5zm-2.8-2.5l-.8.9 1 .2-.2-1.1zm-1.1-6.1l.1.9.9-.5-1-.4zm7.4 5.4l.2-1-.8.3.6.7zm-11.4-3.4l-.9.8.3.1-.4.3.9.4-.1-.5.2.1v-1.2zm.9-5.5l-.8-.6-.1.9.9-.3zm14.9 14.8l-.1.2h.1v.2l.3-.2.6.1-.2-.3 1.6-1-2.1-.8-.1-1.7-1.4.8 1.4.9-.5-.2.4 2z"/><path d="M257.1 123.4l.3-.5-1 .1.5.7.1-.2.9.7-.8 1.1v-.9l-1.1.6-.1-.1v.2l-.2 1.9 1.7-.7-.1-.1h.5l-1.2 1.8 2.6.5-.4-.7.6.6-.8 1.2 1.8-.1v1.7l1.9-.9-1.7-.8 2-.1-1.8-2.9-.2.2-.8-.5h.7l-1.7-3-.4.5v-.9l-1.3.6zm2.7 4.5v-.5l.5-.2-.5.7zm-.7-1.7v.9l-.5.2-.6-1.1h1.1zm.3 14l.9-.2-.7-.8-.2 1zM255 123l-.1 1.4 1.7-.7-.8-.8 2.4-.2-1.9-2.9-.3.5-.1-.1.5-.9-1 .1.5.7-1.5-.6.7-.4-1.7-.8 2.2-.3-2-2.8-.6.8-1.2-.5 1.6-.3-2.1-2.7-1.6 2.8-1.2-.5 1.3-.8-1.9-.8.2 1.8.3-.2.2 1.7 1.6-.9.5-.1-.8.5 1.4 1-.1-1.5.5-.1.1 1.8.4-.3-.3.5-.9-.4.1 1.8.6-.3 1.1-.1.1 1.7.3-.2.2 1.6.4-.2.1.7.9-.5-.5.8-1.9-.8.2 1.8 1.7-.9-.3.6h1zm.1-2.1l.7-.4-.3.5-.4-.1zm1.4 7.8l-.3-1.7-1.2 1.3 1.5.4zm.2 3.1l-.8.9 1 .3-.2-1.2zm-5.7-5.3l-.6.8.9.2-.3-1zm2.2 1.1l-.6.8h.3l-.4.4.8.2-.1-.6h.2l-.2-.8zm12.9 16.4l1.6-.5-1.3-1.4-.3 1.9zm-10.2-14.1l.8-.1-.4-.8-.5.7-1-.6.2 1.9 1.4-.9-.5-.2zm4.9 13.5l1 .1-.3-1-.7.9zm.2-6l-.9-.4.1.8.8-.4zm5.5 3.5l.6.6.1-.5.4.5.4-.8-.8.2v-.3l-.7.3zm-15.6-2.7l1 .1-.3-1-.7.9zm-.8-6.3l.1.8.8-.5-.9-.3zm7.1 4.5l.1-.9-.8.3.7.6zm.9 7.8l.9.3-.1-1.1-.8.8zm1.3-5.8l-.8-.5-.1.8.9-.3zm5.2 5.3l.3-.9-.8.2.5.7zm3.7-.8l.2-1.4-1.2.4 1 1zm4.4 2.7l-1.1-2.2h.1l-.2-.1v-.1l-.3-.2h.3l-1.6-2.2-.4.7-.1-1.3h.1l-1.7-2.4h.1l-1.7-2.7h.1l-1.3-2-1.4 2.3v-.8l-1.4.7 1.4 1.1v-1l1.5-.2-1.3.7 1.2.9-.5.8-1.8-.9v1.8l1.8-.8-.3.5 1.4-.1 1 .8v-.9l1.2-.1-1.2 1.7-1.7-.6.3 1.8.3-.2v1.7l1.5-.7-1.3-1.1.5-.3-.2.3 3.7-.2-1.1.7 1.2.8-.3.5-1.1 1.5 2 .5-.4.3.7.4-.6.7-.8-.9-.3 1.9 1.6-.5-.4-.4 2.5-.2zm-7.7-10.5l1-.1-1 1.4v-1.3zm4.6 8.1l.6-.1-.1.7h.1l-.2.2-.4-.8zm.9.5l.6-.2-.6.7v-.5z"/></g><g fill="#50297a"><path d="M225.4 136.5v.8l.6-.3-.6-.5zm-1.7-2.7l-1.2.2.7.8.5-1zM212 122.6l-.5 1.1 1-.1-.5-1zm6.5 24.6l.8-.9.2.1v-.3l.7-.8h-.3l.1-.7.5.2v-.7l-.5.5.1-.7-.8.2h-.6l.1-.1-.8.1h-1.3l1.2 2.6.2-.2.4.7zm.6-1.9l.2-.2.2.3-.4-.1zm-3.7-7.3l.5-1-.6.1.8-.9-1.3-.1 1.3-1.5h-.1l.3-.3-.8-.2.1.4-2-.1.7 1.6h-.2l.6 1.9.4-.4.3.5zm6.4 7.8l.1.1v-.2l.5-.2-.4-.4v-.5l.2.1.1-.8-.5.4-.5.1-.5-.5-.1.6h-.1l.1.1-.2 1.5 1.3-.3zm3.7 2.2l-.3 2.3 1.2-.4 1 1 .5-1.4-.9.1-1.5-1.6zm-8.9-8.3l1.9-.7-1.6-1.6-.3 2.3zm-2.8-13l-.2 2 1.6-.6-1.4-1.4zm4.5 9.3l.7-1.6h-1.9l1.2 1.6zm4.4 1.7h-2l1.2 1.6.8-1.6zm9.9 18.7h-2l1.2 1.6.8-1.6zm3.1 3.9l.7-1.6h-2l.8 1-1.7.3.9 1.3.8-1.6.5.6zM214.5 133l.5-1-1.1.2-.5-.9-.5 1.1.9-.1.7.7zm13.8 0l-.4.5.7.1-.3-.6zm-7.4 6l-1 .1.7.7.3-.8zm-1.5-5.4l.1.7.7-.4-.8-.3zm11.4 4.7v.5l.4-.2-.4-.3zm-1.5-1.8l-.4.1.2.3.2-.4zm3.3-.4l-.2.3.4.1-.2-.4zm-16.7-6.1l-.6-.5v.8l.6-.3zm-3.7-3.4l.4.5.3-.6-.7.1zm6-.6l-.3.5.7.1-.4-.6zm12.2 31.7v-.7l-.5.3.5.4zM224 151l-.6-.5v.8l.6-.3zm3.6-2.1l-.3-.6-.3.5.6.1zm2.8 1.5l.3.5.4-.6-.7.1zm1.5 4l-.4.1.7.5h-.2l.3.6.3-.6h-.1l.1-.6.7.3-.1-.7-.6.3v-.1l-.7.2v-1.5l-1.7 1 1.7.5zm9.4 3v1.9l1.6-1.2-1.6-.7zm7.9 1.3l.9.4v-.8l-.9.4zm7.4-4.8l.9.4v-.8l-.9.4zm-19.1 10.8l.6-.2-.5-.5-.1.7zm1.5-5.8l.3.5.3-.6-.6.1zm1 2.6l-.7.1.3.5.4-.6zm-10.2-8.5l-.4.3.5.2-.1-.5zm-2.8 1l-.1.4.4-.1-.3-.3zm1.3-3.3l-.4.1.2.3.2-.4zm-2.8-4.5l-.2-.5-.3.3.5.2zm2.1.8v.4l.4-.3-.4-.1zm-1.8-7.6l-.3.3.5.2-.2-.5zm2.2 1.7l.4-.3-.3-.2-.1.5zm-3 1.6l.1-.4-.4.1.3.3zm-5.1-2.7l-.3.3.5.2-.2-.5zm2.3 1.3v.4l.4-.3-.4-.1zm-3 2l.1-.4-.4.1.3.3zm-2.8-14.9l-.3.3.5.2-.2-.5zm2.2 1.7l.4-.2-.3-.2-.1.4zm-3 1.6l.1-.4-.4.1.3.3zm33 17.5h-.5l.3.5.2-.5zm-.6 5.6l-.3.3.5.1-.2-.4zm-4-2.4l-.4-.2.1.5.3-.3zm-4.3-3.2l.3.4.2-.3-.5-.1zm-.5-4.4l-.3.3.4.1-.1-.4zm2.1 2h-.5l.3.5.2-.5zm-.4 4.9l-.3.3h.4l-.1-.3zm-3.5-2l-.4-.2.1.4.3-.2zm-4-7.3h-.5l.3.5.2-.5zm-.6 5.2h.5l-.2-.4-.3.4zm-3.6-2.1l.3-.2-.4-.2.1.4zm13.6 9.5l-.4.5h.6l-.2-.5zm-6.4-1.4l.1.4.3-.3-.4-.1zm-2.9-2.5v-.4l-.4.3.4.1zm-.2 9.4l-.1.8.7-.4-.6-.4zm-4 .2l-.2-.6-.4.6h.6z"/><path d="M252.6 155.6l.7.3v-.7l-.7.4zm-1 1.9l.5-.2-.4-.5-.1.7zm3-1.6l.5-.2-.4-.5-.1.7zm-1.1-3.3l.4-.5h-.7l.3.5zm-5 4.7l.5-.6-.7-.2.2.8zm-.1 2.3l.5-.6-.6-.2.1.8zm-.5-.5l-.6.2.6.3v-.5zm-3.6-1.2l.6-.1-.4-.5-.2.6zm9.9-7.9l.2.7.4-.6-.6-.1zm.6 4.2l.6.2-.1-.5-.5.3zm-4.4-2.2l.5-.2-.5-.4v.6zm-2.5 5.5l-.5.6h.8l-.3-.6zm-2.9 3.3h0l.7-.3-.5-.4-.1.4-.4-.2.2.6.1-.1zm-.3-5.7l-.6.3.4.3.2-.6zm15.4-4.6l.2.7.4-.6-.6-.1zm-1.9 2.3l.6.2-.1-.6-.5.4zm-1.9-1v.6l.5-.2-.5-.4zm-15.2 7.9l-.3.5.5.1-.2-.6zm2.1.6l-.2-.6-.4.5.6.1zm-7.7 1.3l.6-.3-.5-.3-.1.6zM233 158l-.1.7.6-.3-.5-.4zm5.9-.9l-.5-.3-.1.7.6-.4zm-1.1 3.2h-.6l.4.4.2-.4zm-2.8-3.9l-.3.5h.5l-.2-.5zm-8.2-12.2h-.6l.3.6.3-.6zm-4.9-.8l-.5-.5-.1.6.6-.1zm3.3 4.5l.3-.6h-.6l.3.6zm-.4-1.4l-.4-.6-.4.7.8-.1zm-6.1-9.5l-.6.4-.4-.7-.5 1.1 1-.1.4.2.1-.9zm.5-4.9l-.2.7.8-.2-.6-.5zm4.6 5.9l.4-.8h-.7l.3.8zm-6.4-5.7l.5.5.3-.7-.8.2z"/><path d="M224.5 131.5l-.4.6.8.2-.4-.8zm-4.4.1v.8l.7-.3-.7-.5zm-2.3-3l-.7.2.4.5.3-.7zm5.3-.5l-.3.5.7.1-.4-.6zm-7.3 4.2v.8l.7-.3-.7-.5zm-2.4-3l-.7.1.4.5.3-.6zm5.6.2l-.3-.6-.3.5.6.1zm-2.8 5.6l-.8.6.8.4v-1zm.5-4.9l-.2.7.8-.2-.6-.5zm4.2 5.2l.1.3v1l.8-.4-.4-.4.3-.6-.8.1zm-3.8 6.3l-.1 1.9 1.7-1.2-1-.6v-.7l-.5.4 1-1.2-2.5-.1 1-1.7-1.8-.2.3.8-.1.2h.2l.4.9.9 2.1.5-.6zm2.8-.1l-.2.6.7-.1-.5-.5zm6.4 8.7l-.7.5.6.3.1-.8zm-2.1-7l.2.7.6-.5-.8-.2zm4.3 8l.7-.1-.5-.4-.2.5zm.1 3.2l-1.4.7 1.4 1.1v-1.8zm-.5-3.3l.1 2.1 1.5-1.4-1.6-.7zm-5.8.1l-.7-.3v-.1l.4-.8v.1l.4-.5v.6l-.2.1.2.3-.1.6 2.1-1.8-2.1-1v.6l-.3.1.1-.2-.7.1.2.2-1.4.3-.9.1 1.1 2 .3-.4.1 1.4 1.5-1.4zm0-1.5l-.2-.1.2-.4v.5zm-1.2.8l.2.2-.3-.1.1-.1zm4-2.2l-.5-1.7-.7.6-.3-.9v.1l.3-.6h-.6l.2.4-.8.6 1.1.5-.4.4 1.7.6zm.8 4.8l.4-.6.9 1.2.7-1.6h-2l.1.1h-.6v.1l-1.1.2.6.7-.3 1.7.2.6.5-.4-.7-.1 1.5-.8-.1.5.7-.4-.4-.3h.1l-1.3-1 .3-.7.5.8zm4.5-7.6l-.6-.8-.2 1 .8-.2zm4.1-.4l-.7-.7-.4 1.1 1.1-.4zm-5.7 3.5l-.1-1-.8.5.9.5zm7 3.2l.7-.7-1-.1.3.8zm-9.3-6.1l.6-.9-1.2-.2.6 1.1zm-3.5-5.5h.2l-.5-.5v.1l-.2-.3-.4.9.9-.2zm-2.9 8.9l.3-.8.5.3v-1l.8 1.1.5-1.9.3.4.5-1.1-.7.2v-.1l-2.1.4-.5-.6-.4 1-.2-.3-.4 1.1h.3l-.1.2 1.4-.4h-.1l.5.3-.7.3.2.1-.4.1-.2-.6-1.2 1 1.7.6v-.3zm11.2.7l-.5 1.1.7-.2.4.6.4-1.1h-.6l-.4-.4zm-.1 5.5l.6-.7-1-.3.4 1zm2.2-6.4l-.1-1-.8.5.9.5zm-8.3.5l.1-1-.5.2v-.1l-.4.1.8.8zm4.6 15.3l.5-.6.6.7.7-1.6h-.9l-1.7-.5.8 2z"/><path d="M231.9 159.5v.2l-.1-.1-.5 1.1 1-.1-.1-.2.6-.1-.9-.8zm4.7-3.8l.6-.6-1-.3.4.9zm-.6-13.3l-1-.4.2 1.2.8-.8zm-4.3 4.6l-.5.7 1 .1-.5-.8zm8.6-.1l-.9.3.6.6.3-.9zm-8.3 14.5l-.3.3.3-.3-.9-.3.2.5-.6 1.1 2.1.7-.8-2zm4.6-8.5l.6-.9-1 .1.4.8zm-9.3-1.4l-.8-.4.1 1.1.7-.7zm-7.5-18.1l1.2.1-.4-1-.8.9zm-5.6.9l.3-1-.9.1.6.9zm5.4 5l-.1.9 1-.4-.9-.5zm16 17.6l-.9.8 1.2.2-.3-1zm-4.9 4.3l-.5-1.4-.5.5-.2.1-.6.6 1.8.2zm3.5-8.4l-.1-.9-.9.5 1 .4zm4.9-3.1l-1 1.1 1.3.1-.3-1.2zm-1.5 7.5l-.1 1 1.1-.4-1-.6zm-3.9 6.1l1.4.1-1.2-1.7-.9 1.6h.7l-.8.5.6.2-.1.3.7-.1.1.4.5-.6-.7-.2v.1l-.3-.2v-.4zm11.7-1.8h-.6l.4.5.2-.5.2.4.6-1-1.2.2.4.4zm-1.7.4h0l-.5-.7.9.1-.7-1.1-.7 1h.3l-.7 1.1 1.1.1h.3l.1.7.5-.6-.5-.1-.1-.5zm-8.3-7l.6-.9-.9-.2.3 1.1zm-3.2 4.6h.9l-.6-.7-.3.7zm8-.9l.2-.9-.8.3.6.6z"/><path d="M238.2 163.1l.2-.6-1.6.2 1.5-.4-1-1.3-.7 1.7h-.2l.7.7-.1.1-.9-1-.7 1.8 1.8-.5-.1-.2.3.2.4.5v-.1l.1.2.6-1.3h-.3zm3.2-.8h-1l.2.5-1.9-.6.1 1.8-.5-.2.3 1.9-1 .2-.8-.5v-.2l-.2.1-.3-.2h-.1l-.5.2-1-1.3-.7 1.3h-.5v.1l-1.5.3.5-.2-.3-.3.1-.2h-.3l-.6-.7-.5 1.4-.1-.1-.2.5h-.1l-.9-.5.5-.1-.4-.5-.1.6-.5-.3v.3l-1.7-.5.4-.6 1.1-.1-.5-.9.5-.7.1.3.5-.5-.3-.1.3-.5-1.4.1 1.1-1.1-1.5-.5h.5l-.2-.5h.3l.3.1-.1-.2 1.6-.6-.5-.5.9-.9-1.3-.4.3-.6h-.3l.1-.2 1.3-1.1-1.6-.8v1.5l-1.1.2h-.1l.2-.4h-1.3l-.3-.1v.1h-.4l.5.6v.4l-.5-.3v.6l-.4-.8-.3.8-.4-.2.6-.9-2.5.2.7-.8.8-.4-.3-.2.4-.4h-.4l-.4-1.3.7.3-.1-.7-.7.4-1.1.9.5-.8v.1l1.2-1.1v.3l.7-.3-.6-.5v.2l-1.4-.6.1.8-.1-.1-.4.5.5.1v.2l-1 .1.3-.7-1.2.3.4.5-.7.1 1.1 2.1.1-.2.5 1.1v.2h.1l.1.3h-.1l1.2 2.2.3-.5.1.3.4-.3.1 1.1.3-.3.2.2.2-.5.6-.6v.9l.7-.5-.1.9h-.2l-.1-.3-.1.3-1.4.1-.2-.2v.2h-.1l.1.2v.5l.2-.1 1 2 .1.1h-.2l1.6 3.1.1-.1.7 1.7.1-.1v.1h.1l2.1 4.6.8-.9v.2l.7-.5.2.2.1-.2v-.2l.3-.2-.2-.1.2-.6.4 1.7 2.5-1.9.1.3 2.6-1.8-.3-.1.1-.2.5-.3-.3-.1.3-.6.2 1.1 2.3-1.5-2.3-1.2.8-.5-.1.6.6-.3-.5-.3.9-.6.1.3-.1-.1-.6 1.3 1.7-.1-.8-1 .5-.7.1.2-.2.1.2.1v.1l-.5.1.3.5.2-.4.3 1.4 2.2-1.6-2.9-1.3.5-.5zm-19-7.9l.1-.2.3.1v.1h-.4zm4.8 7.6h0-.3l.7-.8.3.7-.7.1zm1-2.8l-.3.4-.1-.2.8-.5-.2.7-.2-.4zm-.2-2.5l.6.7.3.8-.1-.1-.1.5-1-.6.3-.3-.2-.1-.3-.2.1-.2.4-.5zm-3.6 1l.2-.3v.3h-.2zm1.5-.2h.1v.1l-.1-.1zm1.5 2.1l.1-.1-.3.6h-.1v.2h.1l.2.4h-.7l.7-1.1zm8.1 6.3l.2-.4.4.4.1-.3.2.1.1.6-1-.4zm.8-.5l-.1.1.1-.3v.2zm-2.1 1.1l-.2 1-.3.1v-.1h-.1l-.5-.2.5-.4-.5-.1.7-1.3.4 1zm-1.3.7h0v-.1.1zm-2.2-.6l-.2.6-.5-.1.8-.9-.1.4zm-1.5-.7h-.2l.2-.2v.2zm.7 2.7v.4l-.3-.1.3-.3zm1.7.4l-.5-.3v.6l-1.1-.3 1.4-.6-.8-.4h.1l1.6-.2-1.2-1.2h.5l-.3-.6.9-.3.9 1.3-.2-.1.1.2h-.5l-.3-.1.4 1.3-.2.1.3.1.1.3-1.2.2zm2.8-1.1l.2-.4v.1-.1l.6-.2.3 1.2-1.1-.6zm12.5-7.4h-.1l.1.1.1.7 1.4-1-1.7-.5.2.7zm-6-.7l-1.7.3.9 1.3.8-1.6zm.9 22.8l-.7-.4.1.8.6-.4zm-.8-3.1l-.2-.7.8-.4-.3-.2h.3l-.2-.3.8-.1-.5-.7-.4.6-.1-.1-.3.4-.2-.1v.6l-.8.8 1.1.2zm17 14.6h-.2l.5.5.2-.5h-.1l.4-.5-1.2-.2.4.7zm-5.3 7.8l.6-.8-1.2-.2.6 1z"/><path d="M262.8 200.5l-.5-1-.7-.3v.7l.6-.3-.7 1.1-.2-.8-.2.2h-.7l.3.4.2.2.1-.1.5.2 1.2.2.2.4.3-.3.3-.4-.7-.2zm-32.9-26.2l.6-.8h-.3l.4-.1-1.7-1.2-.2 1.8.8-.3.4.6zm-2.1-3.9l-1.1.4 1.3 1.6.2-1.1.4-.1-.3-.4.1-.6-.4.1-.1-.1-.1.2zm3 6.1l-1.2-.2.5 1.1.7-.9zm-2.4.9l-.1.2 1 .2-.3-.5h.1l-.4-.4-.3.5zm-1.4-1.3l-.6.3.6.4v-.7zm-1.5-9.7v-.2h.1l-.1-.2v-.3l-.1.1-.2-.4-.5.7.6.1.2.2zm2.2 7.6v.3l.7-.7-.8-.3-.5.2.6.5zm-1-6.8l-.6.3.6.4v-.7zm10.5 15.5h-.6l.3.6.3-.6zm2.4 5l.1.5.4-.2-.5-.3zm-.3-2.2l-.1-.4-.2.2v-.6l-.8.6.3.2-.2-.1.1.7.4-.4.1.1v-.2l.4-.1zm-6.5-6.3l.5-.5-.8-.3.3.8zm-3.9.5l-.6.2.4.5.2-.7zm27.1 17.7l-.5.3.6.4-.1-.7zm-4.2 1.5l.2-.8-.7.4.5.4zm3.3-2.5l.5-.3-.6-.3.1.6zm-5.6-1.8h.7l-.2-.6-.5.6zm17.1 3.2l-.7.4.6.4.1-.8zm-6.4 3.9l.3 1.4.4-.3.6-.4h-.1l.2-.1-1.4-.6zm-2.4-.2l-.4.5h.7l-.3-.5zm-4.9-6.8l-.5.2.4.3.1-.5zm-1.3-2.5l-.3.3h.4l-.1-.3zm-3-2l.4-.2-.4-.2v.4zm2.9-1.9l.4.1-.1-.4-.3.3zm-7.9-3.8l.1-.5-.4.1.3.4zm-.5 2.6l.4-.2-.4-.2v.4zm3.3-1.8l-.1-.4-.3.3.4.1zm-4.8 6.8l.5.1-.2-.5-.3.4zm4.6 2.4l-.4.1.2.3.2-.4zm0-4l.3-.1-.3-.3v.4zm2.9 10.7l.4-.1-.3-.3-.1.4zm16.3 1.6l-.4.6 1.7.2-.9-1.5-.4.7zm-6.1-2.5l-.6-.3v.6l.6-.3zm-2.7-1v1l1-.5-1-.5zm4 .3l-.6-.3v.5l.6-.2zm-1-1.9v.6l.6-.3-.6-.3zm4.3 4.6l.5-.1-.6-.6-.2.7h.3l-.9 1.1 1.2.3-.3-1.4zm-1.9 4.6l1.1-.6-1.2-.8.1 1.4zm5.8-1.9h.4l-.3-.5.1-.5-.4.1-.3-.6-.5.8-.8.2 1.6 1.2.2-.7zm-22.9-15.8l-1.2.3.9.7.3-1zm2.8 2.8l-.2.6-.8.5.6.2v.1l.2-.1.2.1v-.1l1-.4-1-.9zm14.9 11.1h-.6l.3.4.3-.4zm-8.1-1.8l.8-.4-.8-.4v.8zm4.6 1.1l.7.2-.2-.8-.5.6zm-1.6-6.2h-.8l.5.6.3-.6zm-10.8-8.6l.7.1-.3-.6-.4.5zm4 .7l-.4-.6-.3.5.7.1z"/><path d="M242.9 179.1l.4-.3.1.4 1.6-1.3-2.1-.5.2.9-.4-.2.2 1zm16.2 15.5l-.5-.5-.3.8.8-.3zm-.6 3.6l.6 1 .6-.9-1.2-.1zm-4.2 8.9l.6-.9-1.2-.1.6 1zm-.9-9.4l.6 1 .6-.9-1.2-.1zm3.3 5l.6.4-.1-.7-.5.3zm-3.5 1.5l.1-.8-.7.4.6.4zm3-2.8l.5-.4-.7-.2.2.6zm-5.3-1.9l-.4.6h.7l-.3-.6zm8.1 7.4h.7l-.3-.5-.4.5zm-5-7l-.5.3.4.3.1-.6zm1.7-1.6l.1.4.3-.2-.4-.2zm-3.1-.5l-.2-.3-.3.4.5-.1zm-10.2.4l.5.1-.3-.5-.2.4zm4.7 2.4l.2-.4-.4.1.2.3zm-.2-4.8v.4l.3-.1-.3-.3z"/><path d="M250.6 206.7l.4-.1-.3-.3-.1.4zm-.7-4.2v-.4l-.4.2.4.2zm7.1-4.1l-.7-.3v.7l.7-.4zm3.7.5l-.4.5.6.1-.2-.6zm-13.6-3.2l.7-.4-.8-.3.1.7zm4.6.8l-.2-.7-.4.6.6.1zm-2.4-5.5h-.7l.4.5.3-.5zm10.8 13.8v.6l.6-.4-.6-.2zm-2.2-.6l.1 1 1-.6-1.1-.4zm3.5-.3l.1.6.6-.4-.7-.2zm-5.3 2.5l.8-.5-.8-.3v.8zm4.6.7l.7.1-.3-.7-.4.6zm-2.1-6.1l-.8.1.5.6.3-.7zm-6.6-11.7v-.7l-.7.3.7.4zm-9.1-8.6l.8-.3-.5-.5-.3.8zm16.4 18.9l.7-.3-.5-.5-.2.8zm-11.6-11.5l.4-.5-.6-.2.2.7zm1.9 4.4l-.3.5h.7l-.4-.5zm-14.8-6.3l-.7-.4.1.8.6-.4zm-1.1-4.2l-.9.8 1.2.2-.3-1zm-3.5 4.2h-.6l.3.5v.1-.1l.3-.1-.2-.1.2-.3zm9.2-2.6l-.2-1-.6.8.8.2zm-6.7 8.1l.4-.2-.4-.3v.5zm-.4-2.6l-.1-.4-.1.1-.3-.7-.7.7h.8l-.1.1.5.2zm-2.3 2.8l.2-.4h-.4l.2.4zm-7.1-25.2h-.6l.4.6.2-.6zm2.5 5.5l.4-.2-.4-.3v.5zm-.4-2.6l-.1-.4-.3.3.4.1zm-2.2 2.8l.2-.4h-.4l.2.4zm13.8 15.7l.1-.5-.4.1.3.4zm-.1 2.4l-.4-.2v.4l.4-.2zm2.8-2.1l-.3.3.4.1-.1-.4z"/><path d="M234.8 197.8l.4-.2-.4-.3v.5zm-.7-2.7l.4.1-.1-.4-.3.3zm-2.1 2.5l.2.4.1-.4h-.3zm6.8-3.5l.1-.5-.5.1.4.4zm-.6 2.6l.4-.2-.4-.2v.4zm3-1.9l.3.1v-.4l-.3.3zm-16.9-13l.4-.2-.4-.3v.5zm-.5-3l-.3.3.4.1-.1-.4zm-2.4 2.8l.2.4.1-.4h-.3zm6.9-3.5l.1-.5-.5.1.4.4zm-.6 2.2v.4l.4-.2-.4-.2zm3.3-1.4l-.1-.5-.3.3.4.2zm-4.5 9l.4-.2-.5-.3.1.5zm-.8-2.8l.4.1-.1-.4-.3.3zm-1.9 3l.2-.4h-.4l.2.4zm6.8-4.4l-.5.1.3.4.2-.5zm2.2 1.2l.4.1-.1-.5-.3.4zm7.4 19.9l.4-.2-.4-.3v.5zm-.8-2.8l.4.1-.1-.4-.3.3zm-1.9 2.9l.1-.4h-.4l.3.4zm6.6-3.8l.1-.5-.5.1.4.4zm-.6 2.6l.4-.2-.4-.2v.4zm3.1-2l.3.1v-.4l-.3.3zm-4.5-7.5l1.2.9.3-1.2-1.5.3zm.6-7.3l-.8.3.7.4.1-.7zm-2.7 3.8l-.4.5.7.1-.3-.6zm-3.4 11.7l.1-.7-.8.3.7.4zm-4.2-1.6l.5-.5-.6-.2.1.7zm1.3 5.1l.7.1-.3-.6-.4.5zm5.3-25l.1-.8-.9.4.8.4zm-5.1-1.9l.6-.6-.7-.3.1.9zm1.5 6.2l.8.1-.4-.7-.4.6zm.5-2.6l.7-.5-.8-.5.1 1zm-1.5-5.3l.8.1-.1-.3 1.8-.8-1-.5.1-.3h-.5l-.5-.2v1.6l-.1-.2-.5.6zm-3.3 5h-.7l.4.7.3-.7zm-4.9 16.9h-.6l.3.6v-.1l.3-.1-.2-.1.2-.3zm2.5 5.5l.4-.2-.4-.3v.5zm-.8-2.8l.4.1-.1-.4-.3.3zm-1.8 3l.1-.4h-.4l.3.4zm-3.6-4.1l.4-.2-.4-.3v.5z"/><path d="M221.7 198.1h.4l-.1-.3-.3.3zm-1.8 2.9l.2-.4h-.4l.2.4zm6.5-3.8l.1-.5-.4.1.3.4zm2.5.6l.4.1-.1-.5-.3.4zm2.9-3.2l.1 1 .7-.4-.8-.6zm-1.4-4.3l.8.1-.2-.7-.6.6zm-3.6 5.6l.3-.7h-.7l.4.7zm7.3-14.8l-.4.6.8.1-.4-.7zm10.9 11.8v-.7l-.8.3.8.4zm3.6 3.6l-.7.4.7.3v-.2l.2.1v-.4l-.2.1v-.3zm-6.6-8.1l-.7.4.7.3v-.7zm-5.8-5l-.2.8.8-.3-.6-.5zm16.3 19l-.2.8.8-.3-.6-.5zm-11.9-10.8l.4-.5-.6-.2.2.7zm1.7 5h.7l-.4-.6-.3.6zm-2.2-17.2v1.8l1.9-.8-1.9-1zm-9.8-3.5l1.7-.8.1.5.6-.6-.7-.3v.2l-1.8-.9.1 1.9zm3 2.1l.6-.7-1-.3.4 1zm-1.7 3.9l.4 1 .8-.8-1.2-.2zm5.7-3.9l-.7.5.8.5v-.2l.4.7.3-.8h-.7l-.1-.7zm-.5 8.2l-.3 1 1-.4-.7-.6zm.1-9.3l-.4.2.3.2v.1h.2l.4.2v-.2h.4l-.6-1.1-.3.6zm.9 5.5l-.3.5 1.1.1-.4-.5.4-.5.1.2.4-.6h-.8l.3.4h-1.1l.3.4zm4 1.9l.9-.3-.7-.7-.2 1z"/><path d="M235.7 182.4l-.7.5.9.5-.2-1zm3.6-7.4l-.6.6.9.3-.3-.9zm.7 3.7l-.6-1.6-.9 1.5 1.5.1zm6.9 5l-1.3-1.3.4-.4-.6-.2v.3l-.2-.5.9-.4.1.4.3-.2.3 1.6 1.9-1.2.5.4.1-.6 1.5-.2-.2.4-.3.1.2.1-.6 1.3-.6-.6.1-.1-.5-.2-.2-.2-.2 2.1 1-.4.1.1-.4.7h.1l-.2.1-.7.3.3-.9-1.6.6 1.1 1 .2-.6.7.3v-.5l1 .1-.2-.6 3-.6v.1l-.5.2.4.3-.2 1.4 1.3-.6-.1.7-.1-.4-.5.5.6.1-.2 1.5-.3-.1v1.7l.7-.5v.2l.3-.2-.3 1-1.6-.4.1.4-.8-.2.5 1 .3-.4.2.9 1.2-.9.4-.1v.3l.2-.1-.1.2.3-.1-.6.6 1.2.2-.2-.8.5-.1.9.5-.1-.7 1.1-.3.5-.1-.6 1.1-.2.1.1.1-.4.7-2.1-.3.6 1.7.2-.2.1.5-.4-.2v-.2l-.6.3-.1-.1v.1l.1.3.2-.2.2.1v.2l.6-.3.2 1 .4-.3-.3 1.1 1.3-.5-.8-.8.7-.5-1.5-.8 1.1-1-.4.8h.2l-.1.2.6-.2-.1-.1 1.4-.3.4.3-.2.2 1.1.4-.6 1.3-.1-.1v.2l-.7.7.6.2-.1.7.6-.2v.1l.1-.1 1.2-.3-.3.5h.3l.5.4v-.3l.6.1-.1.2-.2.1 1.4 1h.1l.6 1 .8-1.1h-.4l.4-.6.2.4v.1l-.3.4h.2v.2l-.1-.1-.8 1.3 1.7.2-.1-.2 1.2.2-.8-1.6-.6.9-.4-.7.3-.2.6.1-.2-.3 1.5-.9-4.1-3-.1.5-.5-.1.1.2-1.2-.2 1.7-.5-2.2-2-2.3-2.2-1.1-1.1-.7-.8v.1l-.3-.3-2-1.9-1.4-1.5-2.1-2.4-.7-.9v-.1l-1.3-1.6-2-2.6-.1.1-1.2-.2 1.1-.2-2.1-2.8-.1.2-.2.1-.3-.2.7-.1-2.2-3.1-.1.1v-.1l-1.4.6.8.8-.9 1.7-.4.1-1.7-.9v1.8l-1.2.5 1.3 1.1.1-1.7.6-.3.5.4v1.2h-.1l.1.8.4-.3v1.3l1.4-.6.4-.2v.4l.4-.2 1-.2.3.3.3.5.1-.1.5.5v-.4l.2.8.6-.4.3.2.1-.4.3-.2-.7 1.2h-.4l.2.3-.7 1.2 1.2-.2-.5.6.3.1.1.4-.9-.6-.1 1.6-.6.9-1.3-.6h.2l-.3-.4 1.4.7-.4-1.7-1.1.9-.1-.1-.4.6.5.1.1 1.8 1.5-.8.8.2-.2 1.6 2.2-1.1zm12.4 8.2l.3-.1-.3.3v-.2zm.6 2.7l-.1-.3.7-.2.1.7.3-.2.3.7.1-.1-.1.3-1.3-.9zm3 1.6l.9-.4.1.2-1 .2zm.7 1.3l.1-.4.2.3-.3.1zm1.1-1.1l.1-.1-.1.1zm.1-.2l-.9.1.1-.3h-.1l.2-.3.8-.4-.1.9zm-2.3-1.5l-.3 1.5-.7-1.1.8-.8.2.4zm-1.8-.5l-.1-.1h.1v.1zm-.3-2.2l-.3.3-.2-.5.6-.1-.1.3zm-6.2-4.1l-.1.1h-.1l.2-.1zm1.3.8l-.4-.5v-.3l-.2.1-.1-.2v-.1l1.4-.4-.7 1.4zm-7.3-9l-.5.8-.8-.3 1.3-.5zm-.7 1.3h0l-.1.1-.3-.1.6-.4-.2.4zm.9-1.5l-.8-.5 1.2-.2-.4.7zm-2.9-3.5l.1.1-.3-.1h.2zm-4.6-2.6l1-.1-.4.4-.6-.3zm-.8 1.8l.7-.3.1.5-.5-.2v.3l-.3-.3zm.8.2l.5-.5-.3-.1 1.2-.6-.6-.3.5.1-.2-.6.5-.1v.9l.5-.2.3.2v-.4l.4-.2.4.2-.1.2-.1-.1-.3.8-.3.6-.9-.5v1l-.2-.2-.1.3-1.2-.5zm5.7.9l.1-.1-.1.1zm-.3 2.9l.5-.1v1l-.3-.1h.1l-.3-.8zm3.9 7.8l1.2-.4v1l.7-.6-.2.2 1.2.1-.3-1-.1.1-1.4-.6-.2-.2h.4l-.3-1-.5.5-.3-.3-.2 1.4-.7-.1.2.7.4-.4.1.6zm-4.2-.7l.3 1.1.7-1-.4-.1.3-1.2-1.5.3 1.1.8-.5.1zm-6 2l-.1 1.1.8-.4-.7-.7zm-11.2-6.3l-.1 1.1 1.1-.4-1-.7z"/><path d="M235.6 180.9l-.9.1.6.8.3-.9zm12.2 6.2l1.6 1.5.1-1h.1l-.1-.1.1-1.1-1.8.7zm-10.7.9h-.3l.2.4.1-.4 1-.2-.6-.7-.4.9zm4.5-4.1l-.8.9 1 .2-.2-1.1zm5.7-1.2l.6.7.2-1-.8.3zm-27.6-15.9l.5-1.1-1.2.3.7.8zm2.8-5.8l1 .2-.5-.9-.5.7zm3 7.2l.1 1 .8-.7-.9-.3zm-3.6 3.7l.5-1.1-1.2.3.7.8zm2.9 10.7l.7.8.5-1.1-1.2.3zm6.5 2.2l.1 1 .8-.7-.9-.3zm14.8 12.6l-.2 1.2 1-.3-.8-.9zm-3-4.7l-1 .1.5.7.5-.8zm7.8 0l-.6.7.9.3-.3-1zm-15.8-3.1l.4-1.2-1.4.4 1 .8zm7.5 1.2l-1-.3.2 1.1.8-.8zm11.9 2.4l-.5-1.7-1.1 1.1-.4-.1.5 1 .5-.7 1 .4zm-4.9-4.3l-.8.5.8.5v-1zm8.7 8.7l1.2-1.1-1.7-.8.4 1.5-.4-.4-.2.7.6-.2.1.3zm3.3.1l.5.9.7-.8-1-.2.2-.2-1.7-.7.6 1.8.7-.8zm-8.9-2.3l-.5 1 1-.1-.5-.9zm-2.2-4.2l.6-.6-.7-.1.1-.2h-.6l.4.6.1-.2.1.5zm7.5 1.3l-.7.4.7.5v-.5l.5.4.3-.9-.8.3v-.2zm-1.9 12.2l.9-.2-.6-.9-.3 1.1zm-2.4-5l.6-.7-.9-.1.3.8zm-2.8 1.3l1-.1-.5-1-.5 1.1zm-1.6-5.3l.7-.6-1-.1.3.7zm7.5 2.3l-.1-.9-.7.4.8.5zm9.3 2.3l-2.1.1.9 1.6.8-1 .5.1-.1-.6v-.2zm.1 7.2l1.7.2-.9-1.5-.8 1.3zm-15.5-19.2l-.8 1.3 1.7.2-.9-1.5zm13.7 16.2h-.1l-.2-.1v.1l-.7-.2.3.9.4-.4.1 1 1.1-.6-.9-.7zm-27.7-23.8l.1-1-1 .3.9.7zm-6-.2l-.3.9.8-.1-.5-.8zm3.5-5.5l.6-.7h-.5l.5-.4-.8-.4.2.8h-.3l.3.7zm3.5-2.1l.4.4.1-.9.1-.1h-.1v-.2l-.5.2h-.2l.1-.5-.6.1.2.3h-.5l.4 1-1.3.3-.8-.5v1.8l1.5-.7.6.4.3-1.4.3-.2zm-4.8.5l.7.3-.1-1.2.3.4.6-1 1.5 1-.1-1.7.4.3.2-.8 1.3.9v-1l.5.2-.2-.7 1.3-.1-1.2 1.3.5.2h.1l.3.1v.3l.2-.2 1.3.5-.6-1.6.8-.7 1.3-.1-2.1-3-.1.2-.2-.3-.4.6h.4l-.8 1.2-.2-.7-1.1 1 .8.4-.4.6-.3-.4v.1l-.1-.4-.1.1v-.8l-4.4 2.7.8.5-.9.1.3.4-.5.3v-1.1l-2.2 1.4 2.3 1.8.1-1.1zm5.3-3.6l-.1.2v-.1l.1-.1zm32.5 37.9l-.2-3.2-.1.1-.1-2.9-.1.1-.2-3.1-1.4.9.6-.8.4-.3-2.9-1.7-.5 3.9.5-.4h.1l.5.9.6-.7h.2l.8.6v.2l.2-.1.8.6-1.7 1.1-.2-.1.9-1.6-2.1.3.5.6-.3.5.8.1.1.1h-.1l.2.3h-.1l.1.1.2.4-.2.2.3.1.2.5.3-.4.3.1v-.1l1 .7-1.6 1-.1-.4-.9 1.1 1.2.3-.1-.3 2.1 1.3zm-2-8.2l-.6.3-.2-.3.6-.4.2.4z"/></g><g fill="#a84d3b"><path d="M270.1 185.2l-.5.5.8.3-.3-.8zm1.6 4.6l.4-.5h-.7l.3.5zm2.5-5.7l-.1.7.6-.1-.5-.6zm-8.4 6.5l.4-.7-.7-.1.3.8zm-1.8 3.7l.7-.1-.5-.5-.2.6zm5.7-1.5l.1-.7-.6.3.5.4zm6.7-10.3l-.3.3.5.2-.2-.5zm1.3 2.5h-.4l.2.3.2-.3zm1.3-3.2l-.1.4.4-.1-.3-.3zm-5 5.2l-.5.5.8.3-.3-.8zm1.7 4.7l.4-.6h-.7l.3.6zm2.5-5.7l-.1.7.6-.1-.5-.6zm-28.8-10.3l-.3.7.8-.1-.5-.6zm3.4 3.5l.2-.7-.6.3.4.4zm-.1-6.2l.2.7.5-.4-.7-.3zm2.9 7.1l-.5.5.8.3-.3-.8zm.8 1.4l-.5.5.8.3-.3-.8zm.8 3.3l.4-.6h-.7l.3.6zm-.6-1.9h-.7l.3.5.4-.5zm3-3.2l.6-.1-.4-.5-.2.6zm-5 1.8l-.1.7.6-.1-.5-.6zm2.1-9.2l.6-.5-.6-.3v.8zm-2.7 2.2l-.4.4.7.2-.3-.6zm5.5 1.4l.3-.6-.7.1.4.5zm-7.4 4.1v.8l.6-.5-.6-.3zm-.9-.5l-.6-.3v.7l-.6.1 1.4 1.7.5-2.1-1 .2.3-.3zm-6.8-8.6v.8l.6-.5-.6-.3zm2 2.7v.8l.7-.5-.7-.3zm12.3-18v.8l.6-.5-.6-.3zm6.5-4.1v.8l.6-.5-.6-.3zm-15.4 12.4l-.3-.6-.4.4.7.2zm5.6.1l-.7.1.3.5.4-.6zm-2.7-.7l.4-.6-.7.1.3.5zm-1.2-2.7l.3.5.2-.3.3.1v.2l.2-.1.3.1v-.3l.2-.2-.2-.1-.1-1.3-1.9 1.2.7.2zm-2.7 6l-.8.2.7.5.1-.7zm-4.3-1.2l.5-.4 1 .4-.1-1.9-1.9 1.2.5.2v.5zm3.7 10.4l-.6-.3v.7l.6-.4zm-.1-3.8l-.6.2.5.4.1-.6zm3.7 3.3l-.7.2.6.4.1-.6zm-6-5.2l-.4.5.7.1-.3-.6zm10.6 5.6l.4-.3-.4-.2v.5zm-1.8 1.4l-.2.3.4.1-.2-.4zm3.8.5l-.4.1.2.3.2-.4zm3 4.5v.5l.4-.2-.4-.3zm.1-2.7l-.4.2.4.1v-.3zm-2.6 2.5l-.4-.1.1.4.3-.3zm8.5 2.2v.5l.4-.1-.4-.4zm.1-2.6l-.4.2.4.2v-.4zm-3 2.4l.1.4.2-.4h-.3zm-.1 5.9l.4-.2-.4-.4v.6zm.2-2.8v-.4l-.4.3.4.1zm-2.6 2.1l-.4-.1.2.4.2-.3zm11.8 8l-.1.5.4-.2-.3-.3zm0-2.6l-.4.2.4.1v-.3zm-2.9 2.4l.2.4.2-.3-.4-.1zm8.9 2.3l.4-.2-.4-.4v.6zm.1-3.2l-.4.2.4.1v-.3zm-2.8 2.8l.2-.4-.4-.1.2.5zm10.3-3.1l.4-.2-.4-.4v.6zm.1-2.8v-.4l-.4.2.4.2zm-2.8 2.4l.2-.4h-.4l.2.4zm-19-34.4l.2-.4h-.5l.3.4zm-4.4-2.1l-.3-.3-.1.4.4-.1zm.5 4.5l-.1-.4-.3.2.4.2zm21.9 21.7h-.4l.2.4.2-.4zm3.3 2.3l-.1.4.4-.1-.3-.3zm-.6-2.4h-.5l.3.4.2-.4zm-4.9-1.9l-.1.4.4-.2-.3-.2zm.6 4.3l-.3.2.4.2-.1-.4zm-14.1-11h-.5l.3.4.2-.4zm-5-1.5l.4-.2-.3-.3-.1.5zm.8 3.9l-.3.2.4.2-.1-.4zm-5.1-15.7l.5-.1-.3-.4-.2.5zm.2 6.1v-.4l-.4.1.4.3zm1.2 3.6v.4l.4-.2-.4-.2zm-9.6-3.7l.8.2-.1-.7-.7.5zm-6 3.8l1.4 1.7.5-2.1-1.9.4zm9.8 12.3l.5-2.1-1.9.4 1.4 1.7zm3.5 1.1l-1.8.5 1.5 1.6.1-.3.6.9.6-1.2h-1.1l.1-1.5zm2.4 4.5l.3-1.6-1.4.4 1.1 1.2z"/><path d="M247.6 173.3l-.8 1.2 1.7.1-.9-1.3zm0-2.1l-.6-1.2-.8 1.2h1.4zm.9-1.8h1.3l-.5-1.2-.8 1.2zm2.2 9.3h1.3l-.6-1.2-.7 1.2zm.6-5.3l-.8 1.2h1.3l-.5-1.2zm-.8-9.9h1.3l-.6-1.2-.7 1.2zm.6-2.4l-1.1-.6.1 1.4 1-.8zm2.7 1l1.1-.8-1.2-.7.1 1.5zm2.8-4.2l-1.1-.7.1 1.4 1-.7zm1.7 1l-1.1-.7.1 1.4 1-.7zm3.2-3.4l.9-.7v.1l.5-.4-.5-.3v.4l-1-.6.1 1.5zm.8 1.1l-1.3.4 1.2.9.1-1.3zm6.1-7l-1.2.4 1.2.9v-1.3zM256.8 163l.1-1.2-1.1.4 1 .8zm.1 15.3l-.6-1.2-.7 1.2h1.3zm3.1 5.3h-1.3l.8 1.2.5-1.2zm1.2 8.2l.6-1.2h-1.3l.7 1.2zm3-1.8h-1.3l.8 1.2.5-1.2zm3.7-.2l-.9-1-.5 1.2 1.4-.2zm8.6 5.1l-1.3-.2.4 1.3.9-1.1zm3.4-.4l.9-1.1-1.3-.1.4 1.2zm-.2 1l-1-1-.3 1.3 1.3-.3zM278 200l1.3-.2-1-1-.3 1.2zm.1-1.9l.3-1.3-1.3.5 1 .8zm2.3.6l1.6 1.2.5-1.9h-1.3l-.8.7zm2.5.2l-.2 1 1.7-.4-.7-.9-.8.3zm-11.7-.3l1.3.6-.2-1.3-1.1.7zm.2-10.5l-.9-.9-.5 1.2 1.4-.3zm.7 7l1.4-.3-.9-1-.5 1.3zm13.6.2l.7-1.3-1.3.1.6 1.2zm5.7 0l-.6-1.2-.9 1 1.5.2zm-7.7.7l-.9 1 1.4.2-.5-1.2zm6.4 1.6l1.4-.4-1-.9-.4 1.3zm-21.4-5.4h-1.3l.8 1.2.5-1.2zm-5.1-7.3l-.8 1 1.4.1-.6-1.1zm0 8v-1l-1.7.8 1.7 1.4v-1l1.3.1-.6-1.2-.7.9zm-7-11.6l.8 1.2.6-1.2h-1.4zm-4.9-4.7l.8 1.2.6-1.2h-1.4zm4.5 8.4l-.8 1.2h1.3l-.5-1.2zm-2.1-5.4l-.8 1.2h1.3l-.5-1.2zm-4.2-4.2l-.6-1.2-.8 1.2h1.4zm1.4-11.4l-.8 1.2h1.3l-.5-1.2zm3.1 3.3l-.4-.9-.5.9h.9zm-7.2.2l-1.2-.6.2 1.4 1-.8zm-2.7 2.9l1-.8-1.2-.6.2 1.4zm4.8 1.2h1.3l-.5-1.2-.8 1.2zm-6.3-4.2l-.8 1.2h1.3l-.5-1.2zm1-2.5l-1.5 1.1 1.6.6-.1-1.7z"/><path d="M248.9 165.8l-.1-1.7-1.5 1.1 1.6.6zm-5 5.7l.5-2.1-1.9.4 1.4 1.7zm5 7.1l.5-2.1-1.9.4 1.4 1.7zm20.6 18.4l-.8-.9-.5 1.2 1.2-.2-.8.6 2 .9-.5-2.1-.6.5zm5.5 1.9l-.6-.7-.5 1.2.9-.2-.4.6 2.2.2-1.1-1.8-.5.7zm11.7.1l2.1-.8-1.6-1-.5 1.8zm7.9-3.5l1.9-.7-1.5-.9-.4 1.6zm.6-2.4l1.2-.4-1-.6-.2 1zm10.4-4.4l1.2-.4-1-.7-.2 1.1zm4.4-2.8v-1.2l-1 .4 1 .8zm4.3-1.6v-1.2l-1 .4 1 .8zm4.4-2.8v-1.2l-1 .4 1 .8zm1.3-2.6l-.1 1.2-.6-.2v1.3l1.4-.9-.8-.3.9-.6-.8-.5zm-4.1 2.4l.8-.5-.7-.5-.1 1zm-4.1 1.9l-.1 1 .8-.6-.7-.4zm-8 4l-.1 1 .8-.5-.7-.5zm-2 3.3l-.1 1 .8-.5-.7-.5zm-3 .3l-.1 1 .8-.5-.7-.5zm-1.1 3.3l.8-.5-.7-.5-.1 1zm-3.5-2.7l-.1 1 .8-.5-.7-.5zm7-4.4l-.1 1 .8-.5-.7-.5zm11.2-6l-.8.7.9.2-.1-.9zm-4.7 2.9l-.8.7.9.2-.1-.9zm11.3-7l-.8.7 1 .2-.2-.9zm3 1.8l.9.2-.2-.9-.7.7zm5.4-3.2l.9.2-.1-.9-.8.7zm1.4-3.3l-.8.7.9.2-.1-.9zm1.8-2.3l-.8-.3.1 1 .7-.7zm2.8 2.2l.6-.7-.8-.3.2 1zm-1.3-2.8l-.6.7 1 .2-.4-.9zM310 186l1 .2-.4-.9-.6.7zm6.5-3.9l1 .2-.4-.8-.6.6zm18-10.7l.7-.7-.8-.3.1 1zm8.6-5.9l.6-.7-.8-.3.2 1zm3-2.5l.8.5-.1-.9-.7.4zm2.2-1.2l.9-.2-.5-.7-.4.9zm2-.3l.8-.5-.7-.5-.1 1zm-3.4.9l.9-.2-.4-.7-.5.9zm-2.2-.6l-.3.6.7-.1-.4-.5zm-1 1.8l.1-.6-.7.2.6.4zm-1.2-1.8l-.7.2.6.4.1-.6zm7.1-2.2l-.7.2.6.4.1-.6zm2.6-.3l.1-.6-.7.2.6.4zm-.5-1.2l.7-.2-.4-.5-.3.7zm2.3-.5l.7-.2-.4-.5-.3.7zm4.5-5.6l.6-.2-.4-.5-.2.7zm-3.1 4.6l.5-.5-.6-.2.1.7zm2.9-3.5l.5-.5-.6-.2.1.7zm-4.9 5.7l.5-.5-.5-.3v.8zm-12.1 4.5l.8.5-.1-.9-.7.4zm-.1 2l-.3.7 1-.1-.7-.6zm-11.5 6.9l1 .3-.4-.9-.6.6zm-38.9 20.1l1.2-.1-.7-1.2-.5 1.3zm8.9.2l1.3-.1-.7-1.2-.6 1.3zm8.1-4.2l1.4-.9-1.4-.5v1.4zm6.8-4.1l1.4-.9-1.4-.4v1.3z"/><path d="M326.3 177l1.4-1-1.4-.5v1.5zm-2.6 1.6l1.4-1-1.4-.5v1.5zm8.3-5.8l-.3-.6h.2l-.2-.2-.1.1v-.1l-.6.7 1 .1v.6l1.4-1-1.4-.5v.9zm9.7-5.8l1.5-.9-1.4-.6-.1 1.5zm2.9-1.6l1.5-.9-1.4-.6-.1 1.5zm3.3-2.1l1.2-.8-1.1-.5-.1 1.3zm-44 27.4l1.4-.9-1.4-.5v1.4zM260.6 155l.4.1-.2-.5-.2.4-.1-.8-1.7 1.1 1.8.7v-1zm4.4-3.7l-1.7 1 1.8.7-.1-1.7zm-18.5 16.9l.3.6.3-.6h-.6zm3.1 4.7l-.2.6.7-.1-.5-.5zm4.7 4.9l-.1-.7-.7.5.8.2z"/><path d="M249.4 176.8l.3.6.3-.6h-.6zm3.2 4.6l-.2.6.7-.1-.5-.5zm-5.7-14.9l.3-.7-.8.1.5.6zm-2 1.2l.2-.6.2.2.1-.8-.7.4.2.2h-.6l.6.6zm-2.3-.9l-.5-.4v.1l-1.8.4 1.4 1.7.3-1.5.6-.3zm.4 2.2l.6.3-.2-.6-.4.3zm20.2-16.2l-.3.4.5.2-.2-.6zm2.4 2.5l-.5.1.3.4.2-.5zm-5.5 2.6l.1-.6-.6.2.5.4zm-1.7-1.4l-.7.2.6.4.1-.6zm-4.5 2.2l-.6.2.5.4.1-.6zm3.6-1.6v.6l.4-.4-.4-.2zm-1.2-.1v.6l.4-.4-.4-.2zm1.5 3.2l-.3.4.6.1-.3-.5zm9.6-4.4l.2-.6-.7.1.5.5zm-2.6-2.4l-.4-.3v.6l.4-.3z"/><path d="M264.4 158l.5.2-.2-.5-.3.3zm-5.6-.6l-.3.6.7-.2-.4-.4zm-3.1 1.9v-.3l.3.1-.1-.6-.5.4-.2.1.5.3zm3.7 2.4l.5-.4-.5-.1v.5zm10.1-11.3l-.7.1.5.5.2-.6zm-2.7.6v.6l.5-.3-.5-.3zm-.2 1.9l-.3.3.5.2-.2-.5zm-12.7 7.1l.3-.5h-.5l.2.5zm1.1-1.7h-.5l.2.5.3-.5zm-.3 3.7l-.1.5.5-.1-.4-.4zm-8.3 1.5l-.2.5.6-.1-.4-.4zm2.1 6.4l-.1.5.6-.1-.5-.4zm7.1-9l-.4-.4-.2.5.6-.1zm-5.2 1.2l.6.2-.1-.6-.5.4zm-1-.4l-.5.4.6.1-.1-.5zm2.4 4.6l-.5.4.7.2-.2-.6zm1.1 4l.7.2-.1-.6-.6.4zm-5.6-7l.2.5.2-.4.8.3-.1-1.9-1.9 1.2 1.1.4-.3-.1zm2.2 2.4l.6-.1-.4-.4-.2.5zm6.6.1l.6.2-.1-.6-.5.4zm-3.1-.1l.3-.5h-.5l.2.5zm2.2 3.7l.5-.1-.4-.4-.1.5zm6.3 16.2l.1.7.7-.4-.8-.3zm4.7 1.5l-.2-.7-.4.5.6.2zm-2.7-4.9l.3-.6-.7.1.4.5zm-4.7 3.7l-.8-.3.1.7.7-.4zm3.9 1.2l-.2-.7-.4.6.6.1zm-2.3-5.5h-.7l.4.5.3-.5zm-3.5 2.4l-.6.2.5.5.1-.7zm3.8 3.5v.6l.6-.3-.6-.3zm6.3 4.7l-.8-.3.1.7.7-.4zm3.7.6l-.4.6.6.1-.2-.7zm-2.4-4.3l.2-.5h-.7l.5.5zm5.2 3.7l.1.7.7-.5-.8-.2zm4.7 1.5l-.2-.7-.4.6.6.1zm-2.3-5.5h-.7l.4.5.3-.5zm-5.8 6.5l.4-.6h-.7l.3.6zm2.5-5.7l-.1.7.6-.1-.5-.6zm.1 3.7l-.2-.8-.5.5.7.3zm1.4 3.9l.4-.6h-.7l.3.6zm3-5.2l-.4-.5-.1.7.5-.2zm-5.1 6.4l.7-.4-.7-.3v.7zm4.1.7l.6.1-.2-.7-.4.6zm-1.8-5.4h-.7l.5.5.2-.5zm-7.5 1.5l-.7.3.5-1.1h-1.3l.7 1.2-.9.4 1.7 1.4v-1.5l.7-.4-.7-.3zm4.1 1.2l.6.1-.2-.6-.4.5zm-1.8-5.3h-.5l-.1-.5-.5.5.8.3.2.2.1-.5zm-10.3-3l.1.7.7-.4-.8-.3zm-4-4l.1.7.7-.4-.8-.3zm8.1 7.7l-.8-.3.1.7.7-.4zm5.8 4l-.7.4.6.4.1-.8zM250.5 178l-.7.4.6.4.1-.8zm12.4 10.9l.6.1-.2-.7-.4.6zm-2.1-4.8l.2-.5h.1l-.4-.6-.4.6v.1h.1l.4.4zm-7-8.2l.1.7.7-.4-.8-.3zm-4-3.9l.1.7.7-.4-.8-.3zm7.4 8.1l.7-.4-.7-.3v.7zm6.4 4.3l.1-.8-.7.4.6.4zm-5.7-7.1l.6.1-.2-.7-.4.6zm-2-4.8l.2-.6h-.7l.5.6zm22.1 23l-.8-.3.1.7.7-.4zm3.8.5l-.4.6.6.1-.2-.7zm-2.2-4.8h-.7l.5.5.2-.5zm2.7.8l-.7.5.6.4.1-.9zm3.3-2.4l-.7-.2.2.7.5-.5zm-5.8-1.4l-.4.6.7-.1-.3-.5zm5.4 9.7l.7.1-.3-.8-.4.7zm2.3-4.3l-.7.1.5.5.2-.6zm-5.3 1.6l-.5-.3-.1.7.6-.4zm24.6-9l.5-.2-.5-.2v.4zm2.8.6l.4.1-.1-.4-.3.3zm-1-2.8l.2-.3h-.5l.3.3zm.5-.9v.5l.5-.2-.5-.3zm3.2 1.4l-.1-.5-.3.4.4.1zm-1.2-4h-.5l.3.4.2-.4zm.5 5.2l.1-.4-.3.2.2.2zm1.7-1.5l.3-.2-.3-.2v.4zm-2.3-.9h.3l-.1-.3-.2.3zm-17 9.9l.2.5.4-.4-.6-.1zm3 .1l.4-.1-.3-.4-.1.5zm-2.3-2.7l.1-.4-.5.2.4.2zm4.5 2.2l.5-.2-.5-.3v.5zm5.9-4.7l-.3.4.4.1-.1-.5zm-4.1 2l.2-.4h-.5l.3.4zm-5.2-2.1l.1-.6-.5.2.4.4zm-.2 2.8l.4-.2-.4-.2v.4zm3.2-2.9l-.3.4.4.1-.1-.5zm-10.7-3.7l-.5.2.4.4.1-.6zm-.2 3.4l.4-.2-.4-.2v.4zm3.1-2.9l-.3.4.4.1-.1-.5zm-1.9 4.5l-.3.5.6-.1-.3-.4zm-2.7 1.6v-.5l-.4.1.4.4zm3.1 2l.4-.3-.5-.1.1.4zm7.9-3.4l-.3.1.3.3v-.4zm-.1 2.2l.3-.2-.3-.1v.3zm2-1.9l-.2.3h.3l-.1-.3zm3.9.9l.1-.3h-.4l.3.3zm-1.3-1.5l-.2-.1-.1.3.3-.2zm-.1 2.7l-.1-.3-.2.1.3.2zm5.4-3.2l.1-.3h-.4l.3.3zm-1.6-1.6l-.1.3.3-.1-.2-.2zm-.2 2.6l.3.1-.1-.3-.2.2zm-10.9-1.5h-.4l.2.3.2-.3zm-1.6-1.3l-.1.3.3-.1-.2-.2zm-.1 2.5l-.2.2.3.1-.1-.3zm40-18.7v-.3l-.3.2.3.1zm-1.7-.9l-.2-.1v.3l.2-.2zm-7.9 8l.1-.3h-.4l.3.3zm-1.6-1.2l.3-.1-.2-.2-.1.3zm-.2 2.3l.3.1-.1-.3-.2.2zM294 195.1l.1-.3h-.4l.3.3zm-1.6-1.2l.3-.1-.2-.2-.1.3zm-.2 2.3l.3.1-.1-.3-.2.2zm16.4-13.8h-.4l.2.3.2-.3zm-3.6-.9l-.1.3.3-.1-.2-.2zm.8 2.9l-.2.2.3.1-.1-.3zm-2.6-.5l.4.1-.1-.3-.3.2zm-2.7 1.3h-.3l.1.3.2-.3zm2.1 2l.3-.1-.2-.2-.1.3zm-.4-6.6l-.3.3h.3v-.3zm-3.1 1.5h-.3l.1.3.2-.3zm2.2 1.7l-.1.3.3-.1-.2-.2zm9.7-5.6l-.3.3h.4l-.1-.3zm-3 1.6h-.3l.2.3.1-.3zm2.2 1.7v.3l.3-.1-.3-.2zm5.2-7.5l-.3.2.4.1-.1-.3zm-3 1.5h-.3l.1.3.2-.3zm2.2 1.7l-.1.3.3-.1-.2-.2zm1.5 0v.4l.3-.2-.3-.2zm-.9 3.3l-.2.2.3.1-.1-.3zm3.1-.6l-.3.1.2.2.1-.3zm-5.3-6l.1.3.2-.3h-.3zm.6 3.5l-.2-.2-.1.3.3-.1zm2.4-1.5v-.3l-.3.2.3.1zm-19.8 4.1l-.3.2.4.1-.1-.3zm-3.2 1.8l.1-.3h-.3l.2.3zm2.4 1.4l-.1.3.3-.1-.2-.2zm21.2-3.7l-.1-.3-.3.3h.4zm-3.1 1.2h-.3l.1.3.2-.3zm2.1 2l.3-.1-.2-.2-.1.3zm-20.3-.9l-.3-.1.1.4.2-.3zm-.3 3.6h.3l-.2-.2-.1.2zm2.9-1.7l-.3.1.2.2.1-.3zm2.3-.1l-.3-.1.1.4.2-.3zm-.3 3.6h.3l-.2-.2-.1.2zm2.9-1.6l-.3.1.2.2.1-.3zm1.7-.8l-.1.3h.4l-.3-.3zm3.4 1l-.3.1.2.2.1-.3zm-.6-2.9l-.3-.1.1.3.2-.2zm-16.1 6v.6l.5-.3-.5-.3zm-2 2l-.3.3.4.2-.1-.5zm3.7 1.3l.3-.4h-.5l.2.4zm-4.1 5.3l.1-.6-.5.2.4.4zm4.7-11.5l.1.5.3-.3-.4-.2zm10.5 2.9l-.3.4h.5l-.2-.4zm23.7-14.8l-.1-.6-.4.4.5.2zm1.7-2.8h-.5l.3.4.2-.4zm-4.2.1l-.2.4.4-.1-.2-.3zm-8.1 5.9l-.5.2.4.3.1-.5zm2.1-1.6l.1.4.3-.2-.4-.2z"/><path d="M315.9 174.9l-.2-.4-.3.4h.5zm13.1-.7l.5.2-.1-.6-.4.4zm1.7-2.7l.3.4.2-.4h-.5zm-3.7.2l-.2.4.4-.1-.2-.3zm-4.3 5.4l-.4.4.5.1-.1-.5zm-3.9 2l.5.1-.1-.6-.4.5zm6.7-2.8l.5.2-.1-.6-.4.4zm4.5-2.6l.4-.3-.5-.3.1.6zm-15.9 7.3l.4-.3-.5-.3.1.6zm10.2-5.7l.2-.3h-.5l.3.3zm-3.9-.3l-.1.5.4-.2-.3-.3zm0 1.9l-.5.2.4.3.1-.5zm2.5-1.4l-.4-.2.1.4.3-.2zm-3.8-1.4l-.3.4h.5l-.2-.4zm-29.5 22.2l-.5-1.1-.9 1 1.4.1v.2l.5-.1-.4-.4-.1.3zm.4-2.7v-.4l-.4.2.4.2zm-3.4 1.8l.1.5.3-.4-.4-.1zm38.4-21.5l.1.6.4-.3-.5-.3zm-.9-2.7l-.3.4h.5l-.2-.4zm-1.8 3.5l-.4.1.3.4.1-.5zm24.8-13.9v.4l.4-.2-.4-.2zm2.4.9l.3.1-.1-.3-.2.2zm-.9-2.4l.2-.3h-.4l.2.3zm.5-.8v.4l.4-.2-.4-.2zm2.3 1.1l.3.1-.1-.4-.2.3zm-.7-3.2h-.4l.2.3.2-.3zm.5 4.3l.1-.4-.3.2.2.2zm1.4-1.2l.2-.2-.2-.1v.3zm-1.7-.8v-.3l-.2.2.2.1zm-9.6 7.6v.4l.4-.2-.4-.2zm4.3-3.5l-.3.3.3.1v-.4zm-3.3 1.4h-.4l.2.3.2-.3zm1.8.7l.1-.2h-.3l.2.2zm-1.3-1.4v.3l.2-.1-.2-.2zm0 2.4l-.1-.3-.2.1.3.2zm4.6-2.7l.1-.3h-.3l.2.3zm-1.3-1.3l-.1.2.2-.1-.1-.1zm-.2 2.2l.2.1-.1-.3-.1.2zm2.7-6.1h-.3l.2.2.1-.2zm-3-.8l-.1.3.2-.1-.1-.2zm.7 2.4l-.2.1.2.1v-.2zm-2-.6l-.2.2h.3l-.1-.2zm-2.6 1.3h-.2l.1.2.1-.2zm1.9 1.8l.2-.1-.2-.2v.3zm-.5-5.7l-.2.2.3.1-.1-.3zm-2.7 1.5l.1-.2h-.2l.1.2zm2 1.3v.2l.3-.1-.3-.1zm8.3-4.8l-.2.2h.3l-.1-.2zm-2.6 1.3h-.2l.1.2.1-.2zm1.8 1.7l.3-.1-.2-.1-.1.2zm4.5-6.6l-.2.2h.3l-.1-.2zm-2.6 1.3h-.2l.1.2.1-.2zm1.8 1.7l.3-.1-.2-.2-.1.3zm1.4-.3v.3l.2-.2-.2-.1zm-.7 2.8l-.2.2h.3l-.1-.2zm1.9-1l.1-.2h-.3l.2.2zm-3.5-4.1l.1.3.2-.2-.3-.1zm.4 2.7l-.1.2h.3l-.2-.2zm2.8-1.3l-.3.1.2.1.1-.2zm-16.3 3.2h.3l-.1-.3-.2.3zm-2.4 1.3l.1-.2h-.3l.2.2zm1.9 1.4l.2-.1-.2-.2v.3zm16.2-3.3l-.2.2h.3l-.1-.2zm-2.6 1.3h-.2l.1.2.1-.2zm.5 1.1v.2l.3-.1-.3-.1zm-11.8 1.4l-.3-.1.1.3.2-.2zm-.1 2.8l-.1.2h.3l-.2-.2zm2.4-1.2l-.2.1.2.1v-.2zm1.4-.7l-.1.3h.3l-.2-.3zm2.9.9l-.2.1.2.2v-.3zm-.5-2.4l-.2-.1.1.2.1-.1zm-2.8 5.1l-.3.3h.4l-.1-.3zm11.2-9.9l-.4.2.3.3.1-.5zm1.8-1l.3-.2-.4-.2.1.4zm-3.3-1.1h.4l-.1-.3-.3.3zm2.9 2.5l.1-.5-.4.2.3.3zm1.9-3.7l.1.4.3-.2-.4-.2zm-1.7.6l-.3.3h.4l-.1-.3z"/></g><g fill="#50297a"><path d="M194.5 124.1l-.6.6.7.3-.1-.9zm2.7-2.5l-1.2-.2.6 1 .6-.8zm-11.5 23.7h1l-.5-1.1-.5 1.1zm9.1-8.1l-.5 1.1h1l-.5-1.1zm12.1-27l-.5 1.1h1l-.5-1.1zm-2.2 2l-.5 1.1h1.1l-.6-1.1zm-2.9-1.1l-.7.2.5.4.2-.6zm2 .7l-.7.2.6.4.1-.6zm-1.1-2.1v.7l.6-.4-.6-.3zm2.6-1.1v.7l.6-.4-.6-.3zm-2.6 13.6l.1-.5.1-.1h-.1l-1.6-.7v2l-.2-.4-.4.8-.8.1-.2-.7-.8.8v-.4l-.7.7.3.1-.1.1 1.8.8-.3-1.1 1.4 1.4v.1h.1l.7.8-1.7.2.8.8-1.5.3h-.4v.1l-.8.1 1.2 1.1.1.3.1-.1 1.6 1.4.2-.7.2-.1-.1-.1.6-2.4.3-.9.9-2.9h-.1l.2-.9h-.9zm-.1.1l-.6.1.4-.3.2.2zm-1.4.7l.4-.3.5.4-.8.1-.1-.2zm3.5-8l.5.9h-.3v-.1l-.1.1-1.5.1 1.6 1.7.6-1.9.5-.7-1.3-.1zm-13.4 5.9l-.3.7.7-.2-.4-.5zm8.8 5.5h-1l.3.8.7-.8zm.4-1.4l-.2.8.7-.1-.5-.7zm-.2-4.1l-.8.3.7.4.1-.7zm-11.1 5.4l-.4.4.4.2v-.6zm1.7-1.8l-.4-.1.2.4.2-.3zm-3.6-.2l-.2.4.4-.1-.2-.3zm19.4-11.4l.3-.5h-.7l.4.5zm-5.7.4l-.1.7.6-.3-.5-.4zm-6 33.4l-.3.7h.7l-.4-.7zm-3.7-1.5l-.6-.3v.7l.6-.4zm6-7.2l-.6.6.7.2-.1-.8zm-8.9 4.4l-.7-.3v.7l.7-.4zm3.6 1l-.4.5.6.2-.2-.7zm-2.4-5.1l.4.6.3-.5-.7-.1zm1.1 14.4l-.3-1.5-.1-.4-1.3 1.4.5.1 1.2.4z"/><path d="M188.4 149.2l.4.6.3-.5-.7-.1zm4.3-10.3l.1-.2.7.3-.5-2-1.4 1.2.9.4.2.3zm3.2-2.7l.1.4.3-.3-.4-.1zm-1.8-8.6l.5-.2-.3-.3-.2.5zm-2 1.3l-.1-.4-.3.2.4.2zm3 1l.1.4.3-.3-.4-.1z"/><path d="M201 130.2l.1.3h-.1l-1-1.4-.4.7h-.6l-.1-.4-.5.5h-.9l.8 1.6-.2-.1.1.8.3-.2.1.3.6-1.3.7.5v.8l-2.1.5.4-.5-1.2-.2.4.7-.8.7-.1-.2-.5.7h.1l-.2.2 2.4 1.1-.2-.8.4-.6.8.6-.1.1-.5-.1.1.5-.4.3 1.1.5-1.3.4.3.2-.5.1v-.1l.2-.3-.3-.1-.1-.4-.4.4-.4-.1.1.3-.7.7.4.2.8.6v1.7l.2-.2v.1l-.3.4h.2l-.2.5-1.2.3.1-.1-1.2-.2.5.9-1.1.9-.7.1v-.2l-.2.2h-.2l-.5-1.5-1.3 1.3 1.6.6.1.2-.3.1.5.5-.9.7-.2-.4-.5.7.9.2-.1-.2 1.3.7.1-1.9.1-.2.2.1-.1-.4.2-.4.9.5-.3.3.3.1-1 1.3.8.2v.1h-.1v.3l-.2.3h.1v.4l.7-.4h.3l-.1-.3.5.4-.6.4-.8.2.3.2-.5.4 1.6.8-.1.1.2.1-1.6.4.7.6-1.7 1.2.7.4-.4.8-.9-1.2-.2.4h-.1v.3l-.5 1.1-1.2-.2.3 1.4.9-1-.1.2 2.1-.5-.2-.3h.4v.4l-2.5.7.4.3h-.1v-.1l-.3.2-1.3.5.4.5-.4.6-.3-.4-.1.5.4-.1-.3.4h1.3v.1h-.9l.5 1.1.6-.7.3.6-.5.2.5.4h-.2l.2.3-.4.4 1.9.6-.6.1 1.1.9v.4h-.7l.5 1-.3.1-.6-1.2-1 1.5 1.5.3 2.4 2.1.4-2.7h.2l-.2-.3v-.1l.2-1.1h.1v-.7l.2-1.1h-.1l.2-1.4v-.1l.1-.9.1.1.1-.6.1-1.1.1.1.1-.7h-.1v-.1h.1l-.1-.1v-.2h-.1l-.1-.1v-.6l.3.2.1-1.4.1-.8h.2l-.2-.3.3-2h-.1l.2-1.1.1-.2h-.1l.4-2.1.1-.3-.6.3-.2-1 .8.6.3-1.6.1-.4.2-1.1.1-.3h-.2l-.6-1.1.9.7.7-3.4h-.1l.1-.4-.2.1-.1-.5.4.3.6-3.4h-.1v-.1l.3-.2-.2-.1.3-1.2-.2.1.3-.3h-.6zm-3 9.5l.8.2-.5.1-.3-.3zm-2.2 9l-.3-.1v-.1l.3.2zm-3.4 4.4h.5l-.4.9-.2.1.1-1zm.7-.3l-.1-.3.2.1-.1.2zm-.5-.5l-.1.2.1-.2zm-.5 1.9h0zm2.5 1.1l-.1.1v-.1h.1zm.9 0l-.1-.2.5-.1-.4.3zm-1.8 1.8l.3.2.1.1h-.2l-.2-.3zm1.2 2.5l-.5.1.6-.7.5.4-.6.2zm-.6-.1v.2h-.3l.3-.2zm.3-2.2v-.1h-.3l.1-1.2.8.1.3.2-.2.5h1l.4.2-2.1.3zm2.3-2.9l-.9.6-.4-.5.9.1-.2-.5.3.2v.1h.3zm-1.7-1.1l.4.2-.4.4-.4-.5-.6 1.4-1.9.6.5-1h.1l1.1.3-.2-.5.6-.1-.7-.9.8.6.3-2 1.4.1v.1l.3-.1-.1.2h.5l-1.7 1.2zm1.6-1.6l-.3-.4-.1.4-.3-.6.7.4v.2zm-.8-.9l-.1-.3-1 1.1v-.2l.3-.3-.7-.3h.6l-.3-.7.6.3.1-1.4.5-.3 1.2.9-1.3.5.6.3-.5.4zm1.9-3.8l.1-.3-.6.2.2.3-.9.2v-.5l-.4.4.1-1.9 1.9 1.6h-.4zm0-3.3l-1.3.3-.3-.7.8.3-.3-.9.5.3v.1l.1-.1.9.5-.4.2zm-1.2-1.3l-.3-.8-.3.4-.2-1 .2-.3 1.2 1h-.1l.2.1-.7.6zm2.7-11.7l.7.1-.8.2.1-.3zm-1.4 3l-.1-.5.7.6-.6-.1zm4.8-17.7l.5-.2-.3-.3-.2.5zm-2 1.4l-.1-.4-.3.2.4.2zm-13.5 13.2h-.5l.2.5.3-.5z"/><path d="M191.2 133l-.4.2.3.2.1-.4zm-6.8 9.3l.1-.4-.4.2.3.2zm2.8-3.1l.3-.2-.4-.2.1.4zM195 153l.5-.1-.3-.4-.2.5zm-4.8-6.2l-.8.6 1.1.5-.3-1.1zm-2 0l-.2-.9-.6.5.8.4zm1.7 3.9h-.8l.3.6.5-.6zm2.6-4.9l.7-.1-.5-.6-.2.7zm4.8-18l.4 1.1-.1.1.1.1.2.4 1-1.5-1.4-.1-.2-.5-.5.5.5-.1zm-3.4 4.7l.3-.6h-.6l.3.6zm1.1 2.4l.4.6.2-.6h-.6zm4.9-14.9l.3.6.3-.6h.1v-.1l.1-.2h-.2l-.1-.4-.3.4h-.2l.1.2-.1.1zm-3.4 4.8h-.7l.4.7.3-.7zm-1.5-5.7l-.3.8.8-.2-.5-.6zm4.4-.2l-.6.6.7.3-.1-.9zm-3.2-3.3l-.3.7.7-.2-.4-.5z"/><path d="M204 117.3l-.5.7.7.1-.2-.8zm1.9-2.9l.3-.5h-.7l.4.5zm-5.6.3l-.2.7.6-.3-.4-.4zm1.7 1.2l-.5-.1.2.4-.3.3.8.1-.2-.5.1-.2h-.1zm-3.8 5.5h-.7l.4.7.3-.7zm-4.4 20.5l1.1-1.4-1.3-.2-.4-.8-.5 1.1h.8l.3 1.3zm2.4-2.4l-.4.4.7.3-.1-.6.8.2-1-1.9-1 1.5 1 .1zm-1.4-7.9v1.7l1.4-1-1.4-.7zm1.5-1.4l-.1 1.2 1-.7-.9-.5zm-.9 7.3l.2-.9-1 .2.8.7zm-5.5-7.5l-.5.9h.9l-.4-.9zm-4.5 2.2l-.5.9h1.2l-.7-.9zm5.9 1.5l.2 1 .7-.7-.9-.3zm-5.6 5.3l-.9.4.9.5v-.9zm7.6-6.6l-1.2.4.8.7.4-1.1zm2.9-4.8l-.5-.8-.4.8h.9zm-5 13.3l-.8.5.8.4v-.5l.4-.2-.4-.2zm-3.5-5.2h0l-.2-.3-.1.2-.5-.1.2 1 .6-.8zm7.6-2.3l-.1-.1v.1h-.2l.1.3v.1h.1l.2.6v-.1l.1.2.3-.6h-.2l.2-.4-.5-.1zm8.7-14.7l.2-.3-.4-.1.2.4-2.7.3.4.4-.3-.1.4.7.2-.3 1.2 1.3-.3-.2.1 1 .6-.4.1-.1h-.1l.4-1.3.3-.5h-.2l.3-.9-.4.1zm-10.8 17.6l-.2.4.7-.2-.3-.3.7-1.3-1.2.2v-.4l-.3.2.3.2-.5.1.8 1.1zm-2.2 10.6l1.2-.1-.6-.9-.6 1zm-3.5 5l.6-.7-1-.3.4 1zm-1.4-8.1l.1-1-.9.6.8.4zm-3.5-13l1.1.6-.2-1.2-.9.6zm5.6 3.2l-.2 1 .9-.4-.7-.6zm-7.7 3.3l.4-.8h-1l.6.8zm11.7 12.4l-.4.2.6.3-.1-.3 1.6-1.2-.6-.3v-.2l-.1.1-1-.5v1.9zm-6.8-9.5l-1 .2.8.6.2-.8zm4.4 1.9l.7-.9h-1.2l.5.9zm3.9-5.1l.9.4-.3-1-.6.6zm0-17.6l-.3 1 1.2-.2-.9-.8z"/><path d="M194.5 126.6l1 .3-.2-.9-.8.6zm-7.1 18l.1 1.1 1.1-.6-1.2-.5zm5.9 2.7l1.6-.6-1.5-.8-.1 1.4zm-5-7.6l-1-.2.2.9.8-.7zm-6.4.2l1.2-.5-1.2-.7v1.2zm6.7-2.6l.7.9.1-.7h.7l-.8-1-.3.6-.4.2zm-3.8 9.1h1.2l-.4-.9-.8.9zm6.3 3.7v.4l-.4.7 1-.1-.2-.3.5-.4-.9-.3zm.7-.1l-.2-1.9-1.4 1.4 1.6.5zm-3.1-1.4l.6.8.5-.9-1.1.1zm-1-.1l.5-1-1.1.2.6.8zm2.7-5.1l.9.2-.4-.9-.5.7zm4.7 21.1l1-1.3-1.4-.3.4 1.6zm-1.7-1.8l.9-.3-.8-.5-.1.8z"/></g><path d="M180.1 233.8c-.4-1.3-2.3-5-3.6-7.6a9.7 9.7 0 0 0-3.5-3.9l-1.4-4.6c0-.2-.3-.4-.5-.3-.2 0-.4.3-.3.5l1.5 4.8c0 .1.1.1.2.2 0 .1 2 1.1 3.3 3.7l3.6 7.5c.3.8.1 1.1 0 1.2-.4 0-2.02-1.06-4.43-4.46-.05-.1-.1-.2-.17-.24h0l-.02-.02c-.1-.1-.3-.18-.48-.08h-.01c-.56.02-2.2-.03-3.7-1-1.7-1.1-2.4-4.2-2.4-4.2-.1-.2-.3-.3-.5-.3-.2.1-.3.3-.3.5.1.1.8 3.4 2.8 4.7a7.5 7.5 0 0 0 3.84 1.1c.2 1.32 1.18 6.74 2.16 9.6l.2.6c.9 2.8 1 3.1.7 3.7-.1.2-.2.3-.4.4-.4.1-.8-.1-1.1-.2l-3.1-7.68c.4-.37.77-.8 1.1-1.32.1-.2.1-.5-.1-.6s-.5-.1-.6.1c-2.5 3.6-6.7 3-6.9 3-.3 0-.5.2-.5.4 0 .3.2.5.4.5.1.1.4.1.9.1a9.4 9.4 0 0 0 1.63-.14l3.17 6.34c.1.1 1 2 2.5 2 .9 0 1.5-.5 1.6-.9.17-.3.22-.56.22-.8.17.05.36.1.58.1.2 0 .4 0 .6-.1.3-.2.6-.5.9-1.1.4-1 .2-1.5-.7-4.3l-.2-.6a71.6 71.6 0 0 1-1.9-8c1.7 2.2 3.3 3.6 4.1 3.7.3 0 .5-.1.6-.2.3-.3.7-.8.2-2.1zm-5.5 13.3c-1 .4-1.9-.9-2.2-1.4l-3.08-6.16a7.5 7.5 0 0 0 2.56-1.3l3.12 7.65c.03.03.04.06.06.1.08.32.1.88-.46 1.12z" fill="#cc7a5e"/></svg>