<svg xmlns="http://www.w3.org/2000/svg" viewBox="0 0 480 480" xmlns:v="https://vecta.io/nano"><path d="M215.9 113.9s-16.8 3.1-32.4 7.5c-15.8 4.5-22.1 9-26.9 13.4-5.5 5.2-8 14.3-11.5 28.1-3.4 13.9-8.7 42.9-8.7 42.9s-3 5.7-2.6 13.4 1.2 8.5 1.4 9.6 1.7.2 1.7.2.24 3.13 1.54 3.63c1.3.4 1.73-1.5 1.73-1.5s.72 1.18 1.62 1.18 2.03-3.05 2.92-5.45c1.07-2.5 1.98-7.15 2.38-8.15.3-1 1 3.1 1.3 4.9.2 1.7 1.4 2.1 1.7-1s.9-5.7.9-6.5a29.2 29.2 0 0 0-.5-4.5l-.2-1.5s-.3-1.2 1-4.1c1.4-2.9 16.3-31.9 18.8-36.1 3.2-5.4 13.1-11.2 18.2-12.7 8.9-2.6 27.9-7.5 27.9-7.5l-.3-35.8z" fill="#ea9d7d"/><path d="M136.6 205.3c-.1-.1-.2-.3-.2-.4.1-.4 8-40.2 11.2-53.1 2.9-11.4 7.7-16.7 11.3-19.2 2.4-1.7 4-2.6 4.2-2.6.2-.1.4.1.5.3s-.1.4-.3.5c0 0-2.3 1.1-5.4 3.8-5.3 4.7-8 12-9.4 17.3-3.2 12.8-11.1 52.7-11.2 53.1 0 .2-.3.4-.5.3h-.2z" fill="#cc7a5e"/><linearGradient id="A" gradientUnits="userSpaceOnUse" x1="168.34" y1="148.95" x2="184.56" y2="143.09"><stop offset="0" stop-color="#cc7a5e" stop-opacity="0"/><stop offset=".92" stop-color="#aa5f4b"/></linearGradient><path d="M169.7 170.6s.1-11.5-3-21.8c-3-10.3-9.3-14.8-9.3-14.8s6.6-4.8 9-5.9c2.5-1.2 8.6-3.7 8.6-3.7l19.7 31.3s-6.8 1.1-13 4.8c-4.9 2.9-9.1 5.9-12 10.1z" fill="url(#A)"/><linearGradient id="B" gradientUnits="userSpaceOnUse" x1="169.8" y1="163.5" x2="189.49" y2="181.77"><stop offset="0" stop-color="#cc7a5e" stop-opacity="0"/><stop offset=".92" stop-color="#aa5f4b"/></linearGradient><path d="M185.7 158.4c3.7-1.3 19.5-5.5 19.5-5.5l4-17.9s-6 1.6-17.1 2.4c-10.8.7-15.9 4-17.9 9.2-.4-2.8-4.7 6.4-7.2 9.1-3.1 3.4-19.6 28.9-24 39.1-3.9 9.1.1 8.3 4.1 11.5 1.7 1.4 3.4 3.6 3.4 3.6l1.04-4.76 18.5-35.4c1.36-1.24 2.06-3.34 5.46-5.24 3.6-2.7 7.2-5.1 10.2-6.1z" fill="url(#B)"/><linearGradient id="C" gradientUnits="userSpaceOnUse" x1="162.8" y1="192.21" x2="172.54" y2="198.68"><stop offset="0" stop-color="#cc7a5e" stop-opacity="0"/><stop offset=".92" stop-color="#aa5f4b"/></linearGradient><path d="M174.96 164.75c-1.5.8-4.7 4.4-6.9 8.7l-16.6 32.3-2.1 5.1s.6-.4 1.1 2.1-.4 9.3-.6 10.8-.6 1.4-1 1.5c-.4 0-.8-.5-1-1.2s-.9-5.6-.9-5.6-2.9-.9-3.2-3.7c-.3-2.7.8-5.6.8-5.6s4.8-40.8 16.9-51.4c11.2-10.2 14.9 6.2 13.5 7z" fill="url(#C)"/><g fill="#cc7a5e"><path d="M136.8 229.6h0l.7-7.1c0-.2.2-.4.5-.4.2 0 .4.2.4.5l-.7 7.1c0 .6-.32 2.04 1.1 2.3.76.14.86-.47 1.02-.84.1-.2.38-.36.58-.26.2 0 .2.37.1.57 0 .1.01.93-.7 1.33-.3.2-.78.23-1.3.2-2.06-.32-1.7-3.3-1.7-3.4z"/><path d="M139.8 231.2l1.3-8.4c0-.2.5-.6.7-.5.2 0 .4.3.3.5l-1.34 8.45c.07.35.24.65.64.75.2 0 .4 0 .6-.1.94-.43 4.8-13.4 4.9-13.7.1-.2.3-.3.5-.3s.3.2.4.4c.3 4.4 1.1 6.2 1.4 6.4.2 0 .4-.2.6-1 .3-1.4.8-6.5.9-8.3.3-2.9-.9-4.8-.8-4.8 0-.1-.1-.2 0-.3l1.3-4.9c.1-.2.3-.4.5-.3s.4.3.3.5l-1.3 4.7a9.2 9.2 0 0 1 .9 5.2l-.9 8.4c-.3 1.3-.8 1.6-1.3 1.7-.1 0-.4 0-.6-.2-.7-.5-1.3-2.5-1.5-5.3-.8 2-3.16 11.46-4.56 12.44a1.8 1.8 0 0 1-1.37.39c-1.46-.1-1.67-1.63-1.57-1.73z"/></g><linearGradient id="D" gradientUnits="userSpaceOnUse" x1="139.97" y1="214.47" x2="150.63" y2="213.11"><stop offset="0" stop-color="#cc7a5e" stop-opacity="0"/><stop offset=".92" stop-color="#aa5f4b"/></linearGradient><path d="M144.6 209.9s-2.6-2.6-5.3-.8c-2.5 1.7-2.5 4.7-2.3 6.4.4 2.6 4.1 4.6 6.4 4.4 2.6-.3 3.7-1.5 3.7-1.5s-2.7-1.7-3.1-3.9c-.3-2.2.6-4.6.6-4.6z" fill="url(#D)"/><path d="M146.7 218.4a7.2 7.2 0 0 1-2.8-3.1c-1-2.2.1-5.4.1-5.5.1-.2.3-.3.5-.2s.3.3.2.5c0 0-1 3-.2 4.8.9 1.9 2.8 2.9 2.8 2.9.2.1.3.3.2.6-.1.2-.3.3-.6.2.2.1.1 0-.2-.2zm-10.7 3.4l-.7-.5c-.2-.2-.2-.4-.1-.6.2-.2.4-.2.6-.1.1.1 3.4 2.8 7.4 1.1.2-.1.5 0 .5.2.1.2 0 .5-.2.5-3.3 1.6-6.2.2-7.5-.6z" fill="#cc7a5e"/><linearGradient id="E" gradientUnits="userSpaceOnUse" x1="-482.52" y1="-236.93" x2="-445.88" y2="-217.19"><stop offset="0" stop-color="#8b4433"/><stop offset=".98" stop-color="#af614e"/></linearGradient><path d="M168.4 122.6s19.7-10.5 33.3-14.2c13.7-3.7 27.8-7.6 36.2 8.4 8.3 16-8.6 28.1-18.8 34.5s-25.8 15-25.8 15l-24.9-43.7z" fill="url(#E)"/><linearGradient id="F" gradientUnits="userSpaceOnUse" x1="190.35" y1="120.76" x2="208.74" y2="134.71"><stop offset="0" stop-color="#552828" stop-opacity="0"/><stop offset="1" stop-color="#552828"/></linearGradient><path d="M219.1 151.3c10.2-6.4 27.1-18.5 18.8-34.5-7-13.5-18.2-12.8-29.7-10.1 0 0-8.3 5.9-19.8 16.3-5.6 5-7.7 9.9-11.2 14.8l16.3 28.5c-.2 0 15.3-8.6 25.6-15z" fill="url(#F)"/><path d="M193.4 166.4c-.2.1-.3 0-.4-.2l-24.8-42.9c-.2-.3-.1-.6.2-.8s.6-.1.8.2l24.8 42.9c.2.3 0 .4-.3.6-.1.1-.2.1-.3.2z" fill="#633030"/><linearGradient id="G" gradientUnits="userSpaceOnUse" x1="235.96" y1="154.19" x2="176.47" y2="154.81"><stop offset="0" stop-color="#8b4433"/><stop offset=".98" stop-color="#af614e"/></linearGradient><path d="M191.1 206.3c0 .2-.1.9-.2 1.1v.1c0 .3-.1.4-.1.5v.1h80.9l-6.1-65.8c-2-11.8-13.3-43-37.9-42.3-4.1.1-8.1.3-12.1 2.8-.1 0-2.2 1.6-2.5 1.8-1.7 1.4-7.6 8.2-12.4 34.5-2.1 11.8-9.6 67.2-9.6 67.2z" fill="url(#G)"/><linearGradient id="H" gradientUnits="userSpaceOnUse" x1="222.32" y1="179.58" x2="249.22" y2="161.1"><stop offset="0" stop-color="#552828" stop-opacity="0"/><stop offset="1" stop-color="#552828"/></linearGradient><path d="M211.9 124.2l7.3 53s10.7 0 14.2 10c3.3 9.6 5.4 20.9 5.4 20.9l32.9.1-2.2-28.5-57.6-55.5z" fill="url(#H)"/><path d="M238.5 160.1s9.3 15.1 21.6 25.9 15.4 11 22.2 11c7.9 0 15.7-4.5 27.5-12.6s34.6-25.1 34.6-25.1 6.5-3.4 11.3-9.5c4.8-6 4.8-7.1 5.4-8.1.5-.9-1.2-1.3-1.2-1.3s1.6-1.8.9-3-2-.3-2-.3.1-1.6-.5-2.1c-.6-.6-2.9.8-4.9 2.3-1.7 1.3-6.9 3.6-7.8 4.1s1.2-2.1 2.2-3.5.4-3.5-1.9-1.4-4.8 3.4-5.3 4.1c-.6.6-1.8 2.3-2.6 3.6s-.6 1.6-.6 1.6-.6 1-3.5 2.3c-4.9 2.3-28.5 11.6-38.1 14.5-4.7 1.4-11.7 0-15.4-3.7s-21.3-26.7-21.3-26.7l-20.6 27.9z" fill="#ea9d7d"/><linearGradient id="I" gradientUnits="userSpaceOnUse" x1="312.16" y1="170.06" x2="319.6" y2="186.51"><stop offset="0" stop-color="#cc7a5e" stop-opacity="0"/><stop offset=".92" stop-color="#aa5f4b"/></linearGradient><path d="M259.4 185.3s11.9 11.4 19.2 11.7c6.1.3 11.2-.7 18.3-4.4 5.4-2.9 11.8-7.4 20.8-13.8 7.1-5 12.3-9 16.3-11.9l10.4-7.7 5.9-4c2.6-1.8 8.3-8.8 9.5-11s-6.4 2.8-11.7 5.9c-5.3 3.2-33.8 15.8-50.5 23.8-13.4 6.4-23.5 15.6-38.2 11.4z" fill="url(#I)"/><linearGradient id="J" gradientUnits="userSpaceOnUse" x1="267.14" y1="167.18" x2="253.53" y2="154.74"><stop offset="0" stop-color="#cc7a5e" stop-opacity="0"/><stop offset=".92" stop-color="#aa5f4b"/></linearGradient><path d="M259.4 185.3s-.1-10.5 6.7-18.8c6.7-8.4 12.2-9.8 12.2-9.8L265.1 140l-25.7 21.8c0 0 11.6 16.9 20 23.5z" fill="url(#J)"/><linearGradient id="K" gradientUnits="userSpaceOnUse" x1="329.14" y1="159.58" x2="333.35" y2="157.18"><stop offset="0" stop-color="#cc7a5e" stop-opacity="0"/><stop offset=".92" stop-color="#aa5f4b"/></linearGradient><path d="M326.7 151s2.5 3.7 2.2 4c-1.2.8-.5 4.3 2.1 7.2 2.8 3.2 4.2 3.9 4.2 3.9l2.6-1.6-9.3-14.1-1.8.6z" fill="url(#K)"/><linearGradient id="L" gradientUnits="userSpaceOnUse" x1="343.05" y1="150.83" x2="338.47" y2="154.3"><stop offset="0" stop-color="#cc7a5e" stop-opacity="0"/><stop offset=".92" stop-color="#aa5f4b"/></linearGradient><path d="M336.3 146.5s2 3.1 2.4 2.9c1.4-.6 4.2.4 5.9 3.8 2.5 4 1 5.6 1 5.6l-2.6 1.7-8.9-12.8 2.2-1.2z" fill="url(#L)"/><path d="M294.3 163.8c-.2 0-.3-.1-.4-.3s0-.5.2-.5a1700.1 1700.1 0 0 0 28.7-10.8l10.5-4.6c.2-.1.5 0 .5.2.1.2 0 .5-.2.5-.1 0-6.2 2.8-10.6 4.7-4.2 1.8-28.4 10.7-28.7 10.8h0z" fill="#cc7a5e"/><linearGradient id="M" gradientUnits="userSpaceOnUse" x1="269.68" y1="177.81" x2="260.87" y2="187.57"><stop offset="0" stop-color="#cc7a5e" stop-opacity="0"/><stop offset=".92" stop-color="#aa5f4b"/></linearGradient><path d="M242.2 166.1s11 14 17.1 19.2c6.1 5.1 10.1 8.9 15.1 10.6s8.1 1.1 10 1a27.7 27.7 0 0 0 11.5-3.9c4.4-2.8 5.1-2.9 5.1-2.9s-24.1-4.9-35.8-15.5-14.4-17.7-14.4-17.7-13.4 3.5-8.6 9.2z" fill="url(#M)"/><linearGradient id="N" gradientUnits="userSpaceOnUse" x1="251.95" y1="163.19" x2="231.2" y2="104.44"><stop offset="0" stop-color="#8b4433"/><stop offset=".98" stop-color="#af614e"/></linearGradient><path d="M232.9 172.3s-12.6-18.4-17.7-31.6-10.5-26.8 4.5-36.8 28.8 5.5 36.3 14.9c7.5 9.5 17.7 24 17.7 24l-40.8 29.5z" fill="url(#N)"/><linearGradient id="O" gradientUnits="userSpaceOnUse" x1="232.28" y1="134.87" x2="215.32" y2="149.86"><stop offset="0" stop-color="#6c372a" stop-opacity="0"/><stop offset="1" stop-color="#6c372a"/></linearGradient><path d="M215.1 107.8s3.2 13.3 16.4 27.3c13.2 14.1 29 17.1 29 17.1l-27.6 20.1s-11.4-17.5-15.7-27c-4.3-9.4-7.1-18.6-6.5-26.5.6-7.8 4.4-11 4.4-11z" fill="url(#O)"/><path d="M232.9 172.9c-.2 0-.4-.1-.5-.2-.2-.3-.1-.6.1-.8l40.3-29.1c.3-.2.6-.1.8.1.2.3.1.6-.1.8l-40.3 29.1c-.1 0-.2.1-.3.1z" fill="#633030"/><linearGradient id="P" gradientUnits="userSpaceOnUse" x1="201.48" y1="125.23" x2="244.03" y2="157.5"><stop offset="0" stop-color="#823735"/><stop offset="1" stop-color="#552828"/></linearGradient><path d="M232.5 172.7c-.1-.2-14.6-22.5-20.2-38.3-5.3-14.8-.3-23-.1-23.3l.8-1c.3-.1 0 .4-.1.7h0c-.1.1-5 9 .2 23.3 5.6 15.7 19.8 37.5 20 37.8l-.6.8z" fill="url(#P)"/><g fill="#a84d3b"><path d="M273.3 182.6l-.5.5.8.3-.3-.8zm2.3 4h-.7l.3.5.4-.5zm1.7-5.3l-.1.7.6-.2-.5-.5zm-7.6 6.3h-.7l.3.7.4-.7zm-1.9 4.5l.7-.1-.5-.4-.2.5zm5.2-2.2l.5.3v-.7l-.5.4zm6.5-10.4l-.3.3.5.1-.2-.4zm1.2 2.8l.2-.4h-.4l.2.4zm1.3-3.6l-.1.4.4-.1-.3-.3zm-4.6 5.5l-.5.5.8.3-.3-.8zm2 4.6l.4-.6-.7.1.3.5zm2-5.9l-.1.7.6-.2-.5-.5zm-29.3-8.4l-.2.7.8-.1-.6-.6zm3.7 2.6l-.6.3.5.3.1-.6zm-.6-5.5l.2.6.4-.4-.6-.2zm3.3 6.9l-.5.5.8.2-.3-.7zm.9 1.3l-.5.5.8.2-.3-.7zm1.1 3.2l.4-.6-.7.1.3.5zm-.8-1.7l-.7.1.3.5.4-.6zm2.8-3.5l.6-.2-.5-.5-.1.7zm-4.9 2.2l-.1.7.5-.2-.4-.5zm2.1-9.9l-.6-.3v.8l.6-.5zm-3.1 2.9l-.4.5.7.2-.3-.7zm5.5 1l.3-.6-.7.1.4.5zm-7.1 4.6l.1.8.6-.5-.7-.3zm-.9-.4l-.7-.3v.7l-.6.2 1.5 1.6.3-2.2-1 .3.5-.3zm-7.4-8.1l.1.8.6-.5-.7-.3zm2.2 2.5v.8l.6-.5-.6-.3zm11.7-18.5l-.6-.3v.8l.6-.5zm6.3-4.5l-.7-.3.1.8.6-.5zm-15.2 13.1l-.3-.6-.4.5.7.1zm5.3.4l.3-.6-.7.1.4.5zm-2.4-1.2l.3-.6-.7.1.4.5zm-1.4-2.6l.4.5.1-.3.3.1v.2l.2-.1.3.1v-.3l.2-.2-.2-.1-.2-1.3-1.8 1.3.7.1zm-2.4 6.2l-.8.3.7.4.1-.7zm-4.3-1l.5-.4 1 .3-.2-1.9-1.8 1.3.5.2v.5zm4.3 10.2l-.6-.2.1.7.5-.5zm-.3-3.8l-.6.2.5.3.1-.5zm3.9 3.1l-.6.3.6.3v-.6zm-6-4.2l-.3-.6-.4.5.7.1zm10.6 4.3l.4-.3-.4-.2v.5zm-1.9 1.8l.4.1-.2-.4-.2.3zm3.6.1l.2.3.2-.4-.4.1zm3.8 4.6l.4-.2-.4-.3v.5zm-.1-2.8v-.4l-.4.3.4.1zm-2.5 2.3h-.4l.1.4.3-.4zm8.6 2.1l.4-.1-.4-.4v.5zm0-3.1l-.4.3.4.1v-.4zm-2.7 3l.2-.4h-.4l.2.4zm.6 5.3l-.4-.3v.5l.4-.2zm-.5-3l-.4.3.4.1v-.4zm-2.6 3l.2-.3-.4-.1.2.4zm12.5 6.9v.5l.4-.2-.4-.3zm-.5-2.4l.4.1-.1-.4-.3.3zm-2.2 2.7l.2-.3h-.4l.2.3zm8.9 1.4l.4-.2-.4-.3v.5zm-.5-2.9l.4.1-.1-.4-.3.3zm-2.3 2.7l.2-.4h-.4l.2.4zm10.1-3.8l.4-.2-.4-.3v.5zm-.4-3l.4.2v-.4l-.4.2zm-2.3 2.8l.2-.4h-.4l.2.4zm-21-33.5h-.6l.3.4.3-.4zm-5.1-1.2l.4-.2-.3-.3-.1.5zm1 3.8l-.3.2.4.2-.1-.4zm23 20.7l.3.4.1-.4h-.4zm3.9 2.1l-.1.4.4-.2-.3-.2zm-.8-2.4h-.6l.3.4.3-.4zm-5-1.6l-.1.4.4-.2-.3-.2zm.9 4.3l-.3.2.4.2-.1-.4zm-15-9.7l.2-.4h-.5l.3.4zm-4.8-2l-.1.4.4-.2-.3-.2zm.6 4.5l.4.2-.1-.4-.3.2zm-5.8-15.6l.5-.1-.3-.4-.2.5zm.6 5.7l-.4.1.4.3v-.4zm1.5 4.3l.4-.3-.4-.1v.4zm-9.2-4l-.6.6.8.1-.2-.7zm-4.9 6.4l.3-2.2-1.8.5 1.5 1.7zm9 9.9l.3-2.1-1.8.5 1.5 1.6zm3.6.9l-1.8.6 1.6 1.5v-.3l.6.9.5-1.2h-1.1l.2-1.5zm2.7 4.4l.2-1.7-1.4.5 1.2 1.2zm-13.7-16.6l-.7 1.3h1.7l-1-1.3zm-.8-3.2l-.7 1.3 1.3-.1-.6-1.2zm1.4-.7l1.3-.1-.6-1.2-.7 1.3zm2.9 9.1l1.3-.1-.6-1.2-.7 1.3zm.2-5.3l-.7 1.3 1.3-.1-.6-1.2zm-1.5-9.9l1.3-.1-.6-1.2-.7 1.3zm.5-2.4l-1.2-.6.2 1.4 1-.8zm2.7.8l1-.8-1.2-.6.2 1.4zm2.6-4.3l-1.2-.6.2 1.4 1-.8zm1.7.8l-1.2-.6.2 1.4 1-.8zm3-3.6l.9-.7v.1l.5-.4-.5-.2v.4l-1-.5.1 1.3zm.9 1.1l-1.2.5 1.2.8v-1.3zm5.7-7.4l-1.2.5 1.2.8v-1.3zm-10.8 14.1v-1.2l-1.1.5 1.1.7zm.5 14.2l-.7 1.3 1.3-.1-.6-1.2zm4 6.2l-1.3.1.8 1.2.5-1.3z"/><path d="M264.9 189.8l.5-1.2h-1.3l.8 1.2zm2.8-2l-1.3.1.9 1.2.4-1.3zm2.8-1.3l-.4 1.2 1.4-.3-1-.9zm9 6.6l.9-1.2-1.3-.1.4 1.3zm4.3-1.8l.9-1.2h-1.3l.4 1.2zm-1.2.1l-.3 1.3 1.3-.3-1-1zm-.4 5.5l1.3-.3-1-1-.3 1.3zm-1.1-2.6l1.1.7.2-1.3-1.3.6zm3.5 1.1l1.6 1.1.3-2-1.3.1-.6.8zm2.4.1l-.1 1 1.6-.5-.7-.9-.8.4zm-11.7.5l1.4.5-.3-1.3-1.1.8zm-1.8-10.2l1.4-.4-1-.9-.4 1.3zm2.5 6.6l1.4-.3-1-.9-.4 1.2zm13.6-.6l.6-1.3-1.3.2.7 1.1zm5.7-.5l-.7-1.2-.8 1.1 1.5.1zm-7.6 1.3l-.8 1 1.4.1-.6-1.1zm6.4 1.1l1.4-.5-1-.8-.4 1.3zm-21.7-4l-1.3.1.8 1.2.5-1.3zm-5.6-7l-.7 1.1h1.4l-.7-1.1zm.6 8v-1l-1.7.9 1.8 1.3v-1l1.3.1-.7-1.1-.7.8zm-7.8-11.1l.8 1.2.5-1.2h-1.3zm-3.8-4.4h-1.3l.8 1.2.5-1.2zm3.7 8.1l-.7 1.3 1.3-.1-.6-1.2zm-2.5-5.2l-.7 1.2 1.3-.1-.6-1.1zm-5.1-5.1l-.7 1.3 1.3-.1-.6-1.2zm.6-9l1.3-.1-.7-1.2-.6 1.3zm3.6 1l-.5.9h.9l-.4-.9zm-7.7 2.4l.9-.9-1.2-.5.3 1.4zm-.6 1.2l-1.2-.5.2 1.4 1-.9zm5.2 1.7l-.6-1.2-.7 1.3 1.3-.1zm-7.9-3.7l-.7 1.2 1.3-.1-.6-1.1zm.9-2.5l-1.4 1.2 1.6.5-.2-1.7z"/><path d="M250.7 163l-1.4 1.2 1.6.5-.2-1.7zm-4.4 7.7l.3-2.1-1.8.5 1.5 1.6zm5.5 6.8l.3-2.1-1.8.5 1.5 1.6zm21.7 16.9l-.9-.8-.4 1.3 1.2-.3-.7.7 2.1.7-.7-2.1-.6.5zm5.7 1.6l-.7-.6-.5 1.2.9-.2-.3.6 2.2.1-1.3-1.7-.3.6zm11.6-.7l2.1-.9-1.7-.9-.4 1.8zm7.6-3.9l1.8-.8-1.5-.8-.3 1.6zm.5-2.5l1.2-.5-1-.6-.2 1.1zm10.1-5l1.2-.5-1-.6-.2 1.1zm4.1-4.3l-1 .5 1 .7v-1.2zm3.3-1.4l1 .7-.1-1.2-.9.5zm4.1-3.1l1 .7-.1-1.2-.9.5zm2.3-2.1v1.2l-.6-.2.1 1.3 1.3-.9-.8-.2.9-.7-.9-.5zm-4 2.8l.8-.6-.8-.5v1.1zm-3.9 2.2v1l.8-.6-.8-.4zm-7 4.9l-.8-.5v1l.8-.5zm-2.6 2.9v1l.8-.6-.8-.4zm-3 .6v1l.7-.6-.7-.4zm-.8 3.4l.8-.6-.7-.4-.1 1zm-3.7-1.5l.8-.6-.8-.4v1zm6.7-4.9l.8-.6-.8-.5v1.1zm10.8-7.7l-.8.7.9.1-.1-.8zm-4.5 3.2l-.8.7.9.1-.1-.8zm10.8-7.7l-.7.7 1 .1-.3-.8zm3.2 1.5l1 .1-.2-.8-.8.7zm5.1-3.5l.9.1-.2-.8-.7.7zm.5-2.6l.9.1-.2-.8-.7.7zm2.3-3.1l-.8-.3.2 1 .6-.7zm3 2l.6-.8-.8-.2.2 1zm-1.5-2.8l-.5.7 1 .1-.5-.8zm-21 18.1l1 .1-.5-.8-.5.7zm6.3-4.2l1 .1-.5-.8-.5.7zm17.3-11.9l.6-.7-.8-.3.2 1zm8.2-6.4l.6-.7-.8-.3.2 1zm2.7-2.8l.9.4-.2-.9-.7.5zm3-1.6l-.5-.7-.4.9.9-.2zm1.1-.1l.7-.5-.7-.4v.9zm-3.3 1.1l.9-.3-.5-.6-.4.9zm-2.2-.5l-.3.7.7-.2-.4-.5zm-.8 1.2l-.6.3.6.4v-.7zm-1.4-1l-.6.3.6.3v-.6zm6.3-2.4l.6.4.1-.6-.7.2zm3.2-.8l.1-.6-.7.2.6.4zm-.5-1.1l.6-.3-.5-.5-.1.8zm2.2-.7l.7-.2-.5-.4-.2.6zm4.2-5.8l.6-.2-.4-.4-.2.6zm-2.9 4.7l.5-.5-.6-.2.1.7zm2.7-3.7l.4-.5-.6-.2.2.7zm-4.5 6.1l.5-.5-.6-.2.1.7zm-11.8 5.2l.9.4-.2-.8-.7.4zm-.3 2.8l.9-.2-.7-.6-.2.8zm-10.7 6.9l1 .2-.4-.9-.6.7zm-37.5 22.6l1.2-.2-.8-1.2-.4 1.4zm8.9-.4l1.2-.2-.8-1.1-.4 1.3zm7.8-4.7l1.3-.9-1.4-.4.1 1.3zm6.5-4.6l1.3-1-1.4-.4.1 1.4zm11.2-7.9l1.3-1-1.4-.4.1 1.4zm-2.5 1.7l1.4-1.1-1.4-.4v1.5zm7.9-6.3l-.4-.6h.2l-.2-.2-.1.1v-.1l-.6.7 1 .1v.5l1.3-1-1.4-.4.2.9zm9.4-6.4l1.4-1-1.4-.5v1.5zm2.7-1.7l1.4-1-1.4-.5v1.5zm3.3-2.4l1.1-.9-1.2-.3.1 1.2zM307.5 186l1.3-1-1.4-.4.1 1.4zm-45.6-32.9l.4.1-.2-.5-.2.4-.1-.8-1.6 1.2 1.9.5-.2-.9zm4.2-4l-1.6 1.1 1.9.6-.3-1.7zm-16.9 18.2h-.6l.3.6.3-.6zm2.9 4.4l-.2.6.7-.2-.5-.4zm4.8 3.9l-.6.5.8.1-.2-.6zm-4.7.1l.4.6.3-.6h-.7zm3.4 4.3l-.1.6.7-.2-.6-.4zm-7.3-15.1l.6.6.2-.7-.8.1zm-1.2 1.9l.2-.6.2.1.1-.8-.7.4.3.2-.6.1.5.6zm-2.9-1.1v.1l-1.8.5 1.5 1.6.2-1.5.5-.4-.4-.3zm1.1 2.5l.6.2-.2-.6-.4.4zm19.1-17.5l-.3.4.5.1-.2-.5zm2 2.5l.3.4.2-.5-.5.1zm-4.8 2.3l-.6.2.6.4v-.6zm-1.9-.7l-.6.2.6.3v-.5zm-4.2 2.4l-.6.2.6.3v-.5zm3.9-1.6l-.4-.2v.6l.4-.4zm-1.2 0l-.5-.2.1.6.4-.4zm.9 3.3l.6.1-.3-.5-.3.4zm9.6-5.4l.2-.6-.7.1.5.5zm-3.2-2.5v.6l.4-.3-.4-.3zm.7 4.5l-.3.3.5.2-.2-.5zm-6.2.8l.7-.2-.4-.4-.3.6zm-2.7 1.1l.3.1-.1-.6-.5.5-.2.1.5.4v-.5zm3.7 1.9l.1.5.5-.4-.6-.1zm9.5-11.4l-.7.2.5.4.2-.6zm-2.2 1.1l-.5-.3v.6l.5-.3zm-.5 1.6l-.3.3.6.1-.3-.4zm-12.3 8l.2-.5h-.5l.3.5zm1-1.8h-.5l.2.5.3-.5zm-.2 4.2l.5-.1-.4-.4-.1.5zm-8 1.6l-.1.5.5-.1-.4-.4zm2.5 6.2l-.1.5.6-.1-.5-.4zm6.1-9.8l-.1.5.6-.1-.5-.4zm-4.7 1.9l.6.1-.1-.5-.5.4zm-1-.3l-.5.5.6.1-.1-.6zm2.8 5l-.2-.6-.5.4.7.2zm1.7 2.8l-.5.5.7.1-.2-.6zm-6.6-6.1l.3.5.2-.4.8.2-.3-1.9-1.8 1.3 1.1.3h-.3zm2.6 1.8l-.1.5.6-.1-.5-.4zm6.9-.4l-.5.5.6.1-.1-.6zm-3.3.1h-.5l.3.5.2-.5zm2.2 4l.5-.1-.4-.4-.1.5zm7.4 16.5l.7-.5-.8-.2.1.7zm4.4-.1l-.3.6.6.1-.3-.7zm-2.7-4.1l.2-.6-.7.1.5.5zm-5.2 4.4l.7-.5-.8-.3.1.8zm4.5-.1l-.3.6.6.1-.3-.7zm-2.5-4.7l-.7.1.5.5.2-.6zm1 1.9l-.4-.6-.4.7v.1h.1l.4.4.3-.6zm-4.3.7l-.6.2.5.5.1-.7zm4.1 3.9l.6-.3-.6-.3v.6zm5.8 4.1l.7-.5-.8-.2.1.7zm4.4-.2l-.3.6.6.1-.3-.7zm-2.5-4.6l-.7.1.5.5.2-.6zm5.4 4.6l.7-.5-.8-.2.1.7zm4.1.4l.6.1-.2-.7-.4.6zm-2.1-5.2l-.7.1.5.5.2-.6zm-7.8 2.8l.8.2.2.2.2-.6-.5.1-.2-.4-.5.5zm2.5 4.1l.4-.6-.7.1.3.5zm2.1-5.9l-.1.7.6-.2-.5-.5zm.1 2.9l-.5.5.8.2-.3-.7zm1.9 4.5l.4-.6-.7.1.3.5zm2.1-5.8l-.1.7.6-.2-.5-.5zm-4.1 7.2l.7-.5-.8-.2.1.7z"/><path d="M280.6 194.9l-.4.6.6.1-.2-.7zm-2.7-4l.2-.6-.7.1.5.5zm-6.5 1.4l-.8-.2v.1l-.7.3.4-1.1-1.3.1.8 1.1-.9.5 1.8 1.3-.1-1.6v.1l.8-.6zm3.8.4l-.3.6.6.1-.3-.7zm-13-7l.1.7.7-.5-.8-.2zm-4.1-3l.7-.5-.8-.2.1.7zm7.8 6.9l.7-.5-.8-.2.1.7zm6.7 3.1l-.7.4.6.4.1-.8zm-19.3-15.9l-.7.4.6.4.1-.8zm13.4 9.4l-.3.6.6.1-.3-.7zm-10.1-11l.7-.5-.8-.2.1.7zm-4.3-4.4l.1.7.7-.5-.8-.2zm8.5 7.1l-.7-.2.1.7.6-.5zm6.1 3.6l-.7.4.6.4.1-.8zM261 175l-.3.6.6.1-.3-.7zm-2.7-4.1l.2-.6-.7.1.5.5zm23.6 21.5l-.8-.2.1.7.7-.5zm4 .9l-.2-.6-.4.6h.6zm-2.7-5.3l-.7.1.5.5.2-.6zm2.8 1.5v-.8l-.6.5.6.3zm3.1-3.5l-.7-.2.3.6.4-.4zm-5.9-1l-.4.6.7-.1-.3-.5zm6 9.4h.7l-.3-.8-.4.8zm1.9-3.9l.2-.6-.7.1.5.5zm-5.5 1.1l-.1.7.5-.4-.4-.3zm25-10.6l-.5-.2v.4l.5-.2zm2.3.7l.4.1-.1-.4-.3.3zm-1.2-2.8l.2-.3h-.5l.3.3zm1-.7l-.5-.2v.5l.5-.3zm2.7 1l-.1-.5-.3.4.4.1zm-1.4-3.9h-.5l.3.4.2-.4zm.9 5.1l.1-.4-.3.2.2.2zm1.5-1.5l.2-.2-.3-.2.1.4zm-2.3-.9h.3l-.1-.3-.2.3zM298 189.6l.4-.5h-.6l.2.5zm2.8-.6l.4-.1-.3-.4-.1.5zm-3-2.8l.4.2v-.4l-.4.2zm5.1 2.1l.5-.3-.5-.2v.5zm5.7-4.6l-.1-.4-.3.4h.4zm-4 1.4h-.5l.3.4.2-.4zm-5.4-1.9l-.5.2.5.4v-.6zm0 3.4l.4-.3-.4-.1v.4zm3.2-2.7l-.2-.5-.2.4.4.1zm-11.1-3.4l-.5.2.4.4.1-.6zm-.1 3.4l.4-.3-.5-.2.1.5zm3-3.1l-.2.4h.4l-.2-.4zm-1.6 4.7l-.2.5.6-.1-.4-.4zm-2.6 1.2l-.4.2.4.3v-.5zm3.6 2l-.5-.1.1.4.4-.3zm7.3-3.6l-.3.1.3.3v-.4zm0 2.2l.3-.2-.3-.1v.3zm1.9-2l-.1.3h.3l-.2-.3zm4 .6l.1-.3-.4.1.3.2zm-1.7-1.2l.3-.2-.2-.1-.1.3zm.3 2.4l-.1-.3-.2.1.3.2zm5.2-3.5l.1-.3-.4.1.3.2zm-1.7-1.2l.3-.2-.2-.1-.1.3zm0 2.3l.3.1-.1-.2-.2.1zm-11-.8h-.4l.2.3.2-.3zm-1.5-1l-.2-.1v.3l.2-.2zm-.1 2.3l-.2.2.3.1-.1-.3zM335 164v-.3l-.3.2.3.1zm-1.8-.8h-.2l.1.3.1-.3zm-7.3 8.5l.1-.3h-.4l.3.3zm-1.7-1.4l-.1.3.3-.1-.2-.2zm0 2.6l.3.1-.1-.3-.2.2zM297.8 191l.1-.3h-.4l.3.3zm-1.6-1.5v.3l.3-.1-.3-.2zm-.1 2.7l.3.1-.1-.3-.2.2zm15.5-14.9l-.4.1.2.3.2-.4zm-3.6-.7v.3l.2-.1-.2-.2zm1 2.9l-.2.2.3.1-.1-.3zm-2.4-.6l-.2.3h.4l-.2-.3zm-2.9 1.8h-.3l.1.3.2-.3zm2.3 1.9l.3-.1-.2-.2-.1.3zm-1-6.7l-.2.3h.3l-.1-.3zm-2.9 1.8h-.3l.1.3.2-.3zm2.3 1.5l-.1.3.3-.1-.2-.2zm9.3-6.2l-.2.3h.4l-.2-.3zm-2.9 1.8h-.3l.2.3.1-.3zm2.3 1.5v.3l.3-.1-.3-.2zm4.8-7.8l-.3.3h.4l-.1-.3zm-3 1.7h-.3l.1.3.2-.3zm2.3 1.9l.3-.1-.2-.2-.1.3zm1.8-.3l-.3-.1v.4l.3-.3zm-.7 3.5l-.2-.3-.1.2.3.1zm2.8-1.1l-.3.1.2.2.1-.3zm-5.5-5.3l.2-.3h-.3l.1.3zm.4 2.9v.3h.3l-.3-.3zm2.6-1.4v-.3l-.3.2.3.1zm-19.5 5.3l-.3.2h.4l-.1-.2zm-3.2 1.7l.1.3.1-.3h-.2zm2.6 1.6l-.1.3.3-.1-.2-.2zm20.9-5.1l-.1-.3-.3.3h.4zm-3.2 1.7l.1-.3h-.3l.2.3zm2.5 1.3v.3l.3-.1-.3-.2zm-20.5.7h-.3l.2.4.1-.4zm.3 3.5l-.2-.2-.1.3.3-.1zm2.5-1.8l-.3.2.2.1.1-.3zm2.3-.2l-.4-.1.2.4.2-.3zm.2 3.6l-.2-.2-.1.2h.3zm2.5-1.8l-.3.2.2.1.1-.3zm1.6-.9l-.1.3h.4l-.3-.3zm3.3.9l.2.1v-.3l-.2.2zm-.5-2.9l-.3-.1.1.3.2-.2zm-15.2 7.2l-.5-.2v.6l.5-.4zm-2.3 2.3l-.2-.4-.3.3.5.1zm3.7.6l.2-.4-.5.1.3.3zm-4.2 5.3l.4.3.1-.6-.5.3zm4.5-11l.3-.3-.4-.2.1.5zm10.5 1.7l-.3.4h.5l-.2-.4zm22.7-16.3l-.1-.6-.4.4.5.2zm1.5-2.9h-.5l.3.4.2-.4zm-4.1.4l-.1.4.4-.2-.3-.2zm-7.7 6.4l-.5.3.4.3.1-.6zm2.4-1.6l-.4-.2.1.4.3-.2zm-3.8-.8l-.2-.4-.3.4h.5zm13-1.5l.5.1-.2-.6-.3.5zm1.6-2.8l.3.4.2-.4h-.5zm-3.7.4l-.2.4.4-.2-.2-.2zm-4.3 6.2l.5.1-.2-.6-.3.5zm-3.5 1.8l.5.1-.1-.6-.4.5zm6.6-3.3l.5.1-.1-.6-.4.5zm4.3-2.8l.4-.3-.5-.3.1.6zm-15.5 7.7l.1.6.4-.3-.5-.3zm10.2-6.1h-.5l.3.3.2-.3zm-4.2.3l-.1.5.4-.2-.3-.3zm.2 1.9l-.5.3.4.3.1-.6z"/><path d="M325.5 169.5l-.4-.2.1.4.3-.2zm-4-1.2l-.3.4h.5l-.2-.4zm-28 24.1l-.6-1-.8 1.1 1.4.1v.1l.5-.1-.4-.4-.1.2zm.3-2.7v-.4l-.4.3.4.1zm-3.3 2.1l.1.5.3-.4-.4-.1zm37.1-23.4l.4-.4-.5-.2.1.6zm-1.3-3.2l-.3.4h.5l-.2-.4zm-1.9 3.7l.3.3.1-.4-.4.1zm24.7-15.5l-.4-.2v.4l.4-.2zm2 .6h.3l-.1-.3-.2.3zm-1.1-2.3l.2-.3h-.4l.2.3zm.5-.8v.4l.4-.2-.4-.2zm2.3.9l.4.1-.1-.4-.3.3zm-1.3-3.2l.3.3.2-.3h-.5zm1.2 4.3l.1-.4-.3.2.2.2zm1.3-1.3l.2-.2-.2-.1v.3zm-1.7-1l-.2.3h.2v-.3zm-9.1 9l.4-.2-.5-.2.1.4zm4.2-3.9l-.1-.4-.2.3.3.1zm-3.3 1.2h-.4l.3.3.1-.3zm1.8.6l.1-.2-.3.1.2.1zm-1.4-1l.2-.1-.2-.2v.3zm0 2l.2.1-.1-.3-.1.2zm4.6-2.9l.1-.3h-.3l.2.3zm-1.4-1l.2-.1-.2-.1v.2zm-.1 2l.3.1-.1-.3-.2.2zm2.3-6.3h-.3l.2.2.1-.2zm-3-.6v.3l.2-.2-.2-.1zm.8 2.4l-.2.2.2.1v-.3zm-2-.4l-.2.3h.3l-.1-.3zm-2.5 1.5h-.2l.1.2.1-.2zm2.2 1.5l-.2-.2v.2h.2zm-1-5.6l-.2.2h.3l-.1-.2zm-2.6 1.7l.1-.2h-.2l.1.2zm2.1 1.1v.2l.3-.1-.3-.1zm7.9-5.3l-.2.2h.3l-.1-.2zm-2.5 1.5l-.2.1.2.2v-.3zm1.9 1.6l.3-.1-.2-.1-.1.2zm4.1-6.9l-.2.3h.3l-.1-.3zm-2.5 1.5h-.2l.1.2.1-.2zm2 1.3l-.1.2.3-.1-.2-.1zm1.2-.1l.1.3.2-.2-.3-.1zm-.4 3.1l-.1-.2-.2.2h.3zm1.8-1.5l.1-.2-.3.1.2.1zm-3.8-3.8l.1.3.2-.2-.3-.1zm.5 2.9l.3-.1-.3-.2v.3zm2.8-1.7l-.3.2.2.1.1-.3zm-16.1 4.2h.3l-.1-.3-.2.3zm-2.3 1.5l.1-.2h-.2l.1.2zm2 1.3l.2-.1-.2-.2v.3zm16-4.4l-.2.2h.3l-.1-.2zm-2.6 1.7l.1-.2h-.2l.1.2zm.6.8v.2l.3-.1-.3-.1zm-11.9 2.2l.1.3.2-.2-.3-.1zm.5 3.1l-.2-.2-.1.2h.3zm2.1-1.6l-.2.2.2.1v-.3zm1.4-.7l-.1.3.3-.1-.2-.2zm2.9.9l.1-.3-.2.1.1.2zm-.6-2.7l-.2-.1.1.2.1-.1zm-2.5 5.3l-.2.3h.4l-.2-.3zm10.5-10.6l-.4.2.3.2.1-.4zm1.8-1.1l.2-.2-.4-.2.2.4zm-3-.9l-.1-.3-.3.3h.4zm2.7 2.3l.1-.5-.4.2.3.3zm1.7-3.8l.1.4.3-.2-.4-.2zm-2 1h.4l-.2-.3-.2.3z"/></g><path d="M309.4 159.6l.3-.4-.4-.1.1.5zm-21.7 3.9l.2.4.4-.4h-.6zm1.7.7l.4-.5h-.6l.2.5zm-9.4-4.5l.4-.4h-.6l.2.4zm3.3 2.4l.4-.4h-.6l.2.4zm7.1 3.2l-.1.4.4-.2-.3-.2zm2.7 1.4l.4-.2-.4-.3v.5zm-2-2.1l.2-.4-.5.1.3.3zm4 .1h.4l-.2-.4-.2.4zm-15.6-.9l.4-.2-.5-.3.1.5zm-2-2.1l.2-.5-.5.1.3.4zm3.8-1.1l-.2.4h.5l-.3-.4zm-3.2-2.4l.6.2-.1-.5-.5.3zm-2.4 1.6l.4-.2-.4-.3v.5zm.8-3.8l.2-.4-.5.1.3.3zm16.3 8.1l.3-.2-.3-.2v.4zm-1 3.1l.3-.2-.3-.1v.3zm.1 1.9v-.3l-.3.1.3.2zm-2.1-1.6l.3-.1-.2-.2-.1.3zm29.4-12.7l-.3.1.3.2v-.3zm-32.7 8.2l.3-.2-.3-.1v.3zm.2 1.6l-.3.1.3.1v-.2zm18.8-3.9l.3-.3-.3-.1v.4zm-1.5 2.2v-.3l-.3.1.3.2zm-1.3-1.3v.1l.1-1-1.3.6 1.2 1.1v-.5h.2l-.2-.3zm-1.6 1.8h.4l-.2-.3-.2.3zm-3.1 1l.1.3.2-.2-.3-.1zm5 1.2h.4l-.2-.3-.2.3zm-3.6 2.2l.2-.2-.3-.1.1.3zm.4-3v-.3l-.3.2.3.1zm10.3-3.3h.4l-.2-.2-.2.2zm-2.8.7l.2-.2-.3-.1.1.3zm.2-2.3v-.3l-.3.2.3.1zm8.2 1h.4l-.2-.2-.2.2zm-2.4 1.6l.2-.2-.3-.1.1.3zm.4-3v-.3l-.2.2.2.1zm1-1.1l.1-.3-.4.1.3.2zm.4 4.6l.2-.3-.4-.1.2.4zm-2.5-2.7l.3.1v-.3l-.3.2zm3-.9l-.1.2h.3l-.2-.2zm-14 7h.4l-.2-.2-.2.2zm-5.4 3.5l.2-.2-.3-.1.1.3zm-.2-2.8v-.3l-.3.2.3.1zM274.8 157h.4l-.2-.3-.2.3zm.4-2.4l.2-.2-.3-.1.1.3zm-.8-1.6l.2-.2-.3-.1.1.3zm23.7 16.5l.2-.3-.4-.1.2.4zm-3.7-1l.2.1v-.3l-.2.2zm2.9-.9l.3-.1-.3-.2v.3zm1.7-1.5l.2-.2-.4-.1.2.3zm-2.2-2.1l.2.1v-.3l-.2.2zm2.5-1.6v.3l.3-.1-.3-.2zm1.9-.9l-.2.3.3.1-.1-.4zm3.2-.2l.1-.3h-.1l.2-.8-.9.2.7.6h-.1l.1.3zm-15.2 6.8l.1-.4-.5.1.4.3zm-3.1.2h.4l-.2-.3-.2.3zm2.1-2.5l.3-.3-.5-.1.2.4zm-7-.4l.5-.2-.5-.3v.5zm11.7 3.8l.2-.5-.4.1.2.4zm33-16.3l-.4-.4-.2.4.2-.8-1.3.5 1 .6.1-.3h.6zm1.8.1l.3-.4-.4-.1.1.5zm-3 2.4l.4.2v-.4l-.4.2zm-8.9 1.2l.5-.2-.5-.3v.5zm-2.4.8v.5l.5-.2-.5-.3zm-1.7 1.7l.1-1.6-1.3.5 1.2 1.1zm6.2-4l-1.8.7 1.3.6.5-1.3zm4-1.6l1.2.6.6-1.3-1.8.7zm-13.3 5.1l-1.3.6 1.2 1 .1-1.6zm-12.2 6.1l.3-1.6-1.4.4 1.1 1.2zm-4.8-1.6l.7 1.4.7-1.4h-1.4zm-6.3-1.2l.2 1.6 1.1-1.2-1.3-.4zm-3.3-1.7l-.2 1.6 1.4-.8-1.2-.8zm11.7 5l.6-.9-1-.1.4 1zm-2.4.2l-.6.9h1.2l-.6-.9zm-2.9 0l1.1-.1-.5-.8-.6.9zm-2.2.1h1.1l-.5-.8-.6.8zm18.1-3.2l1-.3-.8-.6-.2.9zm-1.2 1.8l.7-.2-.6-.4-.1.6zm4.1-.6l.1-.7-.6.4.5.3zm8.7-5l-.6.4.6.3v-.7zm-3.2-.4l.1-.8-.7.4.5.2-.7.6.7.3v-.8l.1.1zm8.8-4.4l-.6.4.6.3v-.7zm-11.2 4.5l-.6.4.6.3v-.7zm-1.7 3.1l.1-.7-.7.4.6.3zm-2.1-1.8l-.2.9 1-.3-.8-.6zm3.4 1.1l1-.3-.8-.6-.2.9zm-11.8 3.2l.3-1-1 .4.7.6zm-7.2-.6l-1 .4.7.6.3-1zm-3.6 0l-1 .4.7.6.3-1zm-2.7 0l.2-.1-.2-.2v.3l-.3-.3-.1 1.1.8-.4-.4-.4zm15 1l.8-.2-.5-.7-.3.9zm17.7-6.6l-.7.5.7.3v-.8zm-3.5 1.5l.7-.4-.7-.5v.9zm.8-2l-.7-.5.1.9.6-.4zm-8.8 3.9l.7.6.2-.7-.9.1zm-3.6 2l.2-.8-.9.2.7.6zm13.1-6.8l-.7.5.7.3v-.8zm6.2-1.7l-.9.7.9.4v-1.1zm5.1-3l1 .6.3-1.1-1.3.5zm-7.8 3.3l-.7.5.7.3v-.8zm-18.8 7.8l.8-.2-.5-.7-.3.9zm17.9-5.5l.1-.5-.4.1.3.4zm-1 2.5h.5l-.2-.4-.3.4zm11.7-8.6l.1.5.3-.4-.4-.1zm-2.9 2.9l.4.2v-.4l-.4.2zm-3.3.9l.3-.4-.4-.1.1.5zm-3.6 1.7l.5.2v-.4l-.5.2zm1.7-1.5l.1-.5-.4.1.3.4zm-1 3.2h.5l-.2-.4-.3.4zm-37 6.8l.4.3v-.6l-.4.3zm-.4-1.8l.3-.5h-.6l.3.5zm2.8 3.9l.5-.2-.3-.3-.2.5zm-3.6.8l.2-.4h-.5l.3.4zm42.5-13.5l.2-.5-.5.1.3.4zm.2 2.1h.5l-.2-.4-.3.4zm-2.6-.3l.4-.3-.4-.2v.5z" fill="#ffb7a4"/><g fill="#ffbca4"><path d="M156.2 166.3l.9.1-.3-1-.6.9zm-.8-5l.2 1.3 1.2-.8-1.4-.5zm-4.5-6.5l1.1-.6.2.7 2-1.7-2.6-.5.4 1.3-1.2-.5.1 1.3zm3.1-.2l.2 1.3 1.2-.8-1.4-.5zm-5 24.5l.4 1.4 1.4-1-1.8-.4zm-1.1-9.4l.3 1.4-1 1 1.6.7-.6-1.7 1.4-.9-1.7-.5zm.4-.6l-.6-1.7-1 1.1 1.6.6zm.9-1l1.5-1-1.8-.5.3 1.5zm-1.2-1.9v-1l.6-.4-.6-.2v-.2l-.2.2-.7-.2.1.6-.7.5 1.5.7zm-1.6 19.5l1.5.6-.1-1.7-1.4 1.1zm-9.9 24v-1.1l-1 .7 1 .4zm16-30.7v-1.7l-1.5 1.1 1.5.6zm-.7-5.6l-1.5 1 1.4.6.1-1.6zm-10.9 27.4l-1.3.8 1.1.7.2-1.5zm-2.4-1.8l1.1.6v-.1l.9.4.1-1.4-.9.7v-.5l.9-.3-.9-1.1h.7l-.2-.6.9-.3-.7-.9-.1.3-.7-.8-.4 1.8.8-.2-.3.6-.2 1-1 .8zm8.5-37.2l1.1.5.1.2-.7.1.5.7.3-.5.7-1-.9.1v-.5l.6-.2-1.7-2-.5 2.6.6-.2-.1.2z"/><path d="M150.1 161.4v-1.5l-1.2.9 1.2.6zm.5 3.6l.3 1.5 1.5-.9-1.8-.6zm10.9-.9l.6.6.1-.9-.7.3zm-12.3-.2l.2-1-.9.5.7.5zm2.6-5.3l-.3.8 1-.1-.7-.7zm-2.3 19.3l-.6 1.1h1.1l-.5-1.1zm-3.8 10.5l-.5-1-.6 1h1.1zm3.7-11.8l-.5-1.1-.6 1.1h1.1zm-3-6.3l.9-.5-.5-.2h.2l-1.7-2-.5 2.6 1.6-.5v.6zm-.2 2.4l.9-.5-1-.3v.3l-1.6-1.8-.5 2.6 2.1-.6.1.3zm8.7 1.2l.1-1-.8.3.7.7zm-8.6 7.3l-1.2.1.8.9.4-1zm-4.4 1.4l-.3 1.8 1.6-.5-1.3-1.3zm5.5-4.8l-.2.1v-.7l-.8.4.6.4-1.3.4 1.2 1.2.5-1.8zm-.7 4.6l-1.7.6 1.2 1.2.5-1.8zm3.6-14.7l-1.7.6 1.2 1.2.5-1.8zm.4-7.4l.5-1.8-1.7.6 1.2 1.2zm-11.9 42.5l1-.4-1-.5v.9zm-2.7 5l1-.2-.6-.7-.4.9zm9.5-16.6l.4-.8h-1l.6.8zm-5.7 2.5l-.3.9 1-.3-.7-.6zm15.8-21.7l.7-.1-.3-.4-.4.5zm-4.8-.6l-.6-.2.2.6.4-.4zm.3-14.1l-.7.2.5.5.2-.7z"/><path d="M153.6 161l-.3-.5-.4.5h.7zm-3.8 22.5l1.3-.1-.6-.9-.7 1zm-3.9 4.6l.7-.6-1-.4.3 1zm-.9-7.9l.1-1-.9.5.8.5zm-6.7 25.6l1-.3-.6-.6-.4.9zm2-2.7l-.3.9 1-.3-.7-.6zm3.1-7.6l-.8.4.3.2-1.1-.3.5-2.5-1 .7v-1.5l-.5.4-.9-1.1 2.1-.5 1 .3-1.6.5 1.1 1.3.6-1.7 1.1.3-.5-2.6-1.8 2-.7-.9.8-.3.3.1v-.2l.6-.2-.5-.4.3-.1-.5-.4v-.3l-.2.1-.6-.5-.2 1.3-.3.2.5.2-.1.5-.9-1.2-.6 2.7h.1l-.5 1.8.6-.2-.1.1 1.2.5-1 .6 1.4 1.1-1.1-.3 1 2.5 1.4-1.6.5.2.5-.9-.7.3.3-.6zm-3.5 10.9l1 .1-.4-.8-.6.7zm7.2-24.8l1.8.1-.7-1.3-1.1 1.2zm-9.5 25.7h1l-.4-.8-.6.8zm6.3-14.3h1l-.4-.8-.6.8zm-6.6 11.9l-.2 1.8 1.4-.5-1.2-1.3zm4.3-4.9l1.2-1-1.5-.7.3 1.7zm4.9-32.2l.7-1 .3-.1-1.7-2-.5 2.6.8-.2.4.7zm4.4-5.8l-.6.6 1 .3-.4-.9zm1.3 8.9l.9-.5-.8-.4-.1.9zm.1-3.5l-1.1.6 1.2.4-.1-1zm-6.6 3.6l.9-.3-.8-.7-.1 1zm7-14.2l-.6.7.9.3-.3-1zm1.2 8.2l-.1 1 .9-.5-.8-.5zm-2-7.9l-.4-1.6-1.1 1.3 1.5.3zm-5.4 4.9l-.5 2.6 2.2-.6-1.7-2zm-2.5 21.4h0l.8.8.4-1-1.2.2.3-2.6-.6.4-1.1-1.3-.5 1.8 1.3-.3-1.4.8 2 1.2zm.1-5.1l1.8-.7-1-.8h.1l-1.4-1 1.1-.6 1.4.9.1-.4 2 .4-.6-2.5-1.3 1.7.2-1.7-.4.2-1.2-.9-.3 1.5 1-.2-1 .6-.8-.6-.3 1.9.2-.1-.3 1.4 1.2-.3-.5 1.2-1-1.1-.5 2.6 2.2-.6-.7-.9z"/><path d="M149.4 154.3l1.9-1.8-.8-.1h.1l-1.6-2.1-.7 2.6.5-.1.6 1.5zm5.4 14.2l-1-.4.1.2-.6.2.5.5.1-.4.1.5.8-.6zm-4.9-3.4l-.9-.4.3 1.2.3-.2.3.2.1-.6.2-.1h-.1v-.1h-.2zm6.2-1.6h.9l-.6-.7-.3.7zm-12.9 31.1l.4-1h-1.2l.8 1zm.4 1l.5-.9h-1.2l.7.9zm.2-7.1l.2-1.4.3-.1-.2-.2.1-1-.7.4v-.2l.1-.6.7-.5-.6-.1v-.2l-.2.1-1-.2.2.7h-.1l-.5-.4-.1.7-.6.3.5.3v.1h.2l.6.4-.4.3-.9-.9-.4 2.2 1.5-.8 1.3 1.1zm-6.5 16.2l2.3-.6-1.7-2.1-.6 2.7zm1.4-5.5l-.7 2 1.8-.2-1.1-1.8zm17.7-33.9l.7-.6-.9-.4.2 1zm-4.2-4l-.5-1.4-1 1.1 1.1.5-.2.1.6.5.1-.4v-.1l.1-.4-.2.1zm6.3-1.6h.9l-.6-.7-.3.7zm1-8.8l-1.4-.6.1 1.3 1.3-.7zm-4.9-8.3l.1 1.3 1.3-.6-1.4-.7zm1.2-2.9l-1.3-.6.1 1.3 1.2-.7zm-4.6 7.4l-.4-.3-.4 1.2 1.5-.2-.3-.3 1.2-.2-.9-.9.7-.1-1.5-2.2-.8 2.6 1.1-.2-.2.6z"/><path d="M154.5 150.2l-.3.1.6.5.1-.4v-.1l.1-.4-.2.1-.4-1.4-1.1 1 1.2.6zm-2.1-4.9l1.3-.7-.9-.4.8-.1-1.5-2.2-.8 2.6 1-.2.1 1zm-2.7 4.8l.8.5.1.3h-.5l.5.7.5-.8h-.1l.5-.6h-.7l.1-.5.6-.1-1.6-2.1-.7 2.6.6-.1-.1.1zm3.1-.2l.1-1.4-1.2.8 1.1.6zm2.6-1.8l-.7-.8-.3.8h1zm-1.9.8l.6-1.7-1.7.5 1.1 1.2zm.1-2.7l.5.6.2-.7-.7.1zm2.4 3.4l-.4.5h.7l-.3-.5z"/><path d="M148.7 156.1l.2-.3.1.6 1.2-.8-.8-.3.1-.1h-.3l.7-.1-1.6-2.1-.7 2.6.8-.2.3.7zm5.2-4.5l-.3-1-.7.6 1 .4zm.2 8l.9-.4-.8-.5-.1.9zm.4-3.4l-1.1.5 1.1.5v-1zm-6.9 2.9h0v.5l1.4-.3-.4-.3 1.3-.3-1.1-.8.7-.2-1.7-2-.5 2.6.4-.1-.1.9zm.7-.4l-.4-.4.5-.2-.1.6zm7.5-12.9l-.7.6.9.4-.2-1zm.2 8.3l-.2 1 .9-.4-.7-.6zm.3-17.1l-1.2 1.2 1.4.4-.2-1.6zm-1.7 4.1l-1.6-.3.4 1.4 1.2-1.1zm4.2 13.3l.7-.6-.9-.5.2 1.1zm2.9-6.1l-.3.7h.9l-.6-.7zm-7.9 17l-1.2-.2.4 1 .8-.8zm4.6-4l-.7.5.8.5-.1-1zm-.9 9.2l1-.4-.6-.6-.4 1zm2.9-4.5l.7-.2-.6-.6-.1.8z"/></g><g fill="#d17a69"><path d="M206.5 143.4l.3 1 .9-.7-1.2-.3zm-7.4 29.8l1 .3-.2-1.2-.8.9zm8.9-4.6l-.9.8 1 .4-.1-1.2zm-1.8-36.6l-.1.6.7-.2-.6-.4zm-.3-1.7l-.6.1.4.6.2-.7zm-3.1 23l-1.2-.3.2 1 1-.7zm9.4-8.3l-.5.3.5.4v-.7zm-.4 6.3h.5l-.2-.5-.3.5zm-.2-2.8l-.4-.1.1.4.3-.3zm2.7 1.4l.3.2v-.4l-.3.2zm-7.5-15.4l.2.5-.2.5.9-.1-.4-.7.1-.3-.6.1zm-1-6.7v-.8l-.7.5.7.3zm.8-4.4l-.5-.4-.1.6.6-.2zm3.5 4.4l.3-.6h-.6l.3.6zm-5.3 42l.3-.7-.6.1.3.6zm-5.9-.9l-.3.8h.7l-.4-.8zm7.5-7.4l.1.6.6-.4-.7-.2zm-7.5 3.1h0l-.5.2.5.4-.1.1.8.4v-1l.1-.2-.8.1zm3.1 10.2l-.5-1.4.2-.3-.9-.3.4 1 .3-.3-.4.6-.1-.2-.4.7h.2l-.1.1 1.3.1zm1.6-2.2l.6-.4-.7-.2.1.6zm1.2-8.9h-.5l.4.4.1-.4zm-.7-2.5l.4-.2-.4-.1v.3zm-.2-5.6v-.5l-.4.2.4.3zm3.1-5.5l.1-.5-.4.2.3.3zm1.6 1.7l-.2.4.5-.1-.3-.3zm-5.7-1.6l.4-.1-.2-.3-.2.4zm9.4 5.8l.4-.4-.4-.2v.6zm-4.6.2l-.2.4.9.1-.3-.9-.4.4zm3.1 11.1l-.3-.3-.1.4.4-.1zm-1.5-4.2l-.5.1.2.3.3-.4zm-6.6 7.3h1.2l-.5-.9-.7.9zm-.5 2.6l-.3.6h.4l.1.4.5-.5-.5-.2-.2-.3z"/><path d="M201.1 179l.1-.1.2.5.6-.7-.5-.1.5-.5-1.3-.4.3-.1-.6-.4-.1.8.4-.2.4 1.2zm1.5-1.7l-.5.3.4.2.1-.5zm-.9-10.5l-.7.4.6.3.1-.7zm.3-14.7l-.7.1v-.1l-1.2 1.3 1.5.4-.2-1.3.2.3.4-.7zm2.5-2.8l-.3-.6-.4.5.7.1zm.9 4.8v.7l.5-.4-.5-.3zm-3.8-3.2l-.4.5.7.2-.3-.7zm1.3 5.4v.3l-1.7-.5.5 1.3-.2-.1.5 1.2.1-.1.1.3 1.5-1.8-.6-.2.2-.2-.4-.2zm1.5-16.2l-.4.6.8.2-.4-.8zm1.5 6.6v.8l.6-.5-.6-.3zm-.8-5.8h.7l-.3-.7-.4.7zm4-2.3l-.1.1.1-.1.5.4v-.4l.6-.1-.6-.9-.5 1zm-2.9 0l.5.5.1-.7-.6.2zm.1 4.6l-.2-.1.1-.1-.5-.2-.5-.1.4.9.1-.1v.1l.6-.4zm-6.3 18.4l.4-.7-.8.2.4.5zm8.2-48.9l-.2 1 1.2-.2-1-.8zm2.9-3.1h.5l-.9-1.7-.9 1.4 1.1.2.2.1zm-2.9 6.2l.6.8.4-.8h-.2l.1-1.1.9.4.1-1.2-.9.6.1-.5-.4.2-.3-.3-.1.5-.7.4.1.1-.4.3.7.6zm.2 0v-.3l.5.3h-.5zm4.6-8.3l.7-.1-.3-.5-.4.6zm-3.8 9.7l.2-.8-.7.4.5.4zm-1.1 1.5l.3.4.1-.5-.4.1zm1.4 2.6h.5l-.2-.3-.3.3zm-1.8 2.2l-.8-.6.1 2.1 1.6-.9-.7-.5.1-.1h-.3zm1.2-.7l-.4.4.6.2-.2-.6zm1 6.1l.6-.4-.5-.3-.1.7zm-2.6-.2l-.5-.3v.7l.5-.4zm-8.4 61.6l-.2-1.2-.8.8 1 .4zm.6-6.7l-.8.9 1 .3-.2-1.2zm-1.6 3.5l.7-.2-.6-.4-.1.6zm7.5 1.3l-.8.1.6.6.2-.7zm-4.5-.4l-.4.6.6.1-.2-.7zm5.2-5.3h-.8l.6.6.2-.6zm-4.9.1l.6.1-.2-.6-.4.5zm5 15.3l.3-.7-.8.1.5.6zm-.8-5.2l.1.6.6-.3-.7-.3zm-.8 13.9l.2-.7-.8.1.6.6zm-4.3-1.2l-.4.6.5.1-.1 1 1-.4-.8-.7-.2-.6zm4.1-3.7l-.7-.2.1.6.6-.4zm-2 2l.5.6.3-.7-.8.1zm-4.1.1l.6.1-.2-.6-.4.5zm3.8-4.6l.1.6.6-.4-.7-.2zm-3.2-2.9l-.1-.2-.4.7h.2l-.1.1 1.3.2-.5-1.4-.4.6zm3.1-1.8l-.7-.2.1.6.6-.4zm-4.5-2.9l.2.8.7-.6-.9-.2z"/><path d="M200 190.6l-.4.7.8-.1-.4-.6zm-6.8 15l-.1-.7.5-.4-.6-.2v-.1l-.1.1-1.3-.4.3 1.8.5-.3.8.2zm5.7-5.6l-.1.1-.3-.1.3-.1-.6-.4-.1.5-.4.7.9-.1-.1.2h.3l.3.7.8-.9-.8-.2-.2-.4zm-.3.3l-.1-.2.1.2zm1.2-6.7l-.2.3-.1-.1-.3.5.7-.1-.1-.1h.4l-.4-.5zm.7 6.1l-.5.3.4.2.1-.5zm3.1-7.8l-.5.7h1l-.5-.7zm-4-2.6l-.7.4.6.4.1-.8zm3.6-21.2l-2-.6.8 2 1.2-1.4zm-1-2.2h.6l-.2.3.6.1-.2-.6-.1.2-.1-.1.4-.5-.9-.3.2.5-.3.4-1.6-.7v.1l-.1-.1-.1.6.2-.1v1.2l-.6.7 1 .3-.1-.8 1.3-1.2zm3-8.8l-.4.4-.5-.9-.2.5-.1-.1v.7l.1-.1h.6l-.8.8.3.1-.3.1.5.4v-.4l.9.3-.2-1.2.4-.1-.2-.3-.2.3.1-.5zm1.3-6.7l-.3-1.7-1.2 1.3 1.5.4zm-1 19.9l.8.7.3-1.4-.7.1-.1-.3-.3.4h-.1v-.2l-.3.3h-.1l-.9.9 1.5.4-.1-.9zm-1.6-9.4v-1.2l-.9.8.9.4zm-.2-6.4l1-.3-.9-.6-.1.9zm6.3 5.5h-.1l.3.2.1.1v-.1l.3-.9-.9.1.3.6zm4.4-2.5l.4-1-1.2.1.8.9z"/><path d="M213.1 149.9l.1.9.8-.5-.9-.4zm3.2 20.3l.4-1-1.2.1.8.9zm-6.3-1.7l-.5.8.9.1-.4-.9zm5.1-5.9l.1.8.8-.5-.9-.3zm-1.2 20.5l.4-1-1.2.1.8.9zm-.3-7.2l-1-.3.1.9.9-.6zm-1.7 3h-1.2l.4.5h-.7l.8.9.2-.5.1.1.4-1zm-6.6-.2l.4-.2-.5-.2v-.1l-.1.1h-.1v.1l-.1.1-.6.8.9.1-.1-.4h.4l-.2-.3z"/><path d="M210.3 172.2l.1.5-.2-.1.1.9.9-.5-.5-.2.5-.3-.9-.3zm-6.1 12.5l1-.5-.9-.8-.1 1.3zm4.3-6.4l-.5.7 1 .2-.5-.9zm-2.3-11.4l-.7 1.1-.2-.3-.6 1h.4l-.1.1 1.9.3-.7-2.2zm3.9-1.7l-1-.3.2.9.8-.6zm-5.5-3.8l-1.4-.3.1.4-.8.7 1 .4-.1-.9.2.6 1-.9zm2.2-1.7l-.6 1 1.2-.2-.6-.8zm-3.9 1.4l-.9-1.4.8.3-.1-1.2-.8.7-.4-.7-.9 2.6 2.3-.3zm-3.6 14.8l.9-1.2.3.1-.2-.3.4-.5-2.6-.7 1.2 2.6zm3.6-.7l-1.8.3 1.1 1.7.7-2zm-1.5-2.6l.2-.7h.3l-.1-.2h.4l-.3-.5.2-.5-1.8.3 1.1 1.6zm-1.5-9l1.5.4-.1-.9.2.8.1-.1h.3l-.1-.2.4-.4v1.4l1.6-1.3-1.7-.7v.6l-1.1-.2v-.1h.7l-.4-.7-.3.7v-.3l-1.1 1zm-2 .3l1.5.4-.2-1.4 1.4-.4-.5-.4-.1-.5-.3.2-.8-.6 1-1.2-1.6-.4.8-.2-.1-.1.5-.1-.5.5 1.5.4-.1-1.1 1-.2-1.5-1.2.3-.4.1.3.2-.1.8.4v-1l-.7.5.6-.5-.5-.1.2-.3-.8-.2.3-.6 1-.3.3.7.6-.7.6.2-.2-.7.1-.2-1.9-.6.2.5h-.2l-1-.7v-.7l1.2-1.3-1-.3-.5-.2.4-.1.2.3.2-.4 2.3-.7-.7-.4 1.2-1.4-.3-.1 1-1.3-.5-.1.5-.5-1.9-.6v-.5l1.1-.3-1.7-1.4h.2l.4.1.6.2-.1-1.2-.2.2v-.1l-.3.2.1-.4-1 .2.5.4-.1.1-.5-.4v.2l-1-.8-.6 3.4.4-.1.5 1.4v.1l.1.3.4-.5.3.2.1-.7.1-.1.6 1.4-.6-.2v-.3l-.3.6.4.3.6 1.7-1.5-1 .2-.1-.6-.4v-.9l-.8.6-.1-.1v.2l-.3 3.2.3-.1.6 1.6-.5.4-.8-.5-.4 3.5.8-.3.2.5-.2-.1.2.6-.9-.7-.6 3.4.4-.1v.1l.6 1.4-1.2-.9-.5 3.4 1.8-.5-.8.7zm2.3-18.1l1.8-.4-.6.4.6.4v-.2l.3.7-.6-.2.1-.1-1.6-.6zm-.5 9.8l.4.4-.8-.3.4-.1zm-.4 1.1l.2.5-.4-.3.2-.2zm10.8-4l-1.2.1.9.8.3-.9zm-2.3-2.1l-.2 1 .9-.4-.7-.6zm4.4 3l-.5.8.9.1-.4-.9z"/><path d="M197.7 168.6l-.1.4.2-.1.2.5.9-1 .8 1.9-.6.5.4.2h-.5l.5.5.2-.4.3.1v-.6l.4-.5.3.1v-.4l.7-.9-.5-.1h.1l-.7-.5-.1.3-1.1-.3.1-.1-1-.3.5-.4h-.1l1.6-.4-1-.8.4-.1-.7-.5-.1.4-1.9-1.4-.5 3.4.8-.2.5.7zm-1.1 4.8l-.3.3 1 .3-.1-.8.3-.1.4.5.4-.7 1-.3-2-1.5h.8l-.6-1.2-.1.1v-.2l-.4.3V169l-1 .8.4.2-.4.3v.1l-.3.2.2.1-.5 3.1 1.2-.4zm.5-2.5l-.2-.1.2.1zm0-.7l-.2.2v-.2h.2zm9.7-6.5l-.3.5-.1-.2-.5.8 1-.1-.2-.2h.6l-.5-.8zm2.2-2.6l-1 1.4 1.7-.1-.7-1.3zm-3.5 12.3l-.1-.2-.1.1-.4-.1.4-.2-.9-.6-.1.6-.3-.4-.7 1.3h.2l-.6 1 1.5-.2-.6-.8.9-.1-.2-.3.3-.1.2.5-.3.5.5-.1.3.9 1.2-1.3-1.2-.5zm2.3-.8l-.7.5.6.4.1-.9zm4.7-11.5l-.8 1.1 1.4-.1-.6-1zm-5 6.5l.7-.7-.8-.3-.1-.1.2-.5h-.8l.4.4-.4.6.6-.1.2.7zm-1-10.4l-1 .6.8.5.2-1.1zm-2.8-26l1.4-1.2-1.1-.5 1.7-.3.5 1.9 1.4-1.2-1.7-.8.6-.1-1.9-1.7-.1-1-.5.5-.4-.4 3.3-.6.3 1.1-.8-.4.2-.4-.8.1v.1l.5 2 1.4-1.2-.3-.2 1.3-1.2-1.8-.8.1.2-1.9-1.7 1.1.3-.2-1.3 2.5-.3-.8-.8h-.1l-1.2-1.2.3-.2v.2l1.5-1-.2-.1.2-.5h1.2l.1.3.7-.6-.9-.4v.2l-2-2.7-1.4 3.2h.7l.1 1.3-.7-.2-.3-.3-1 3.3.6-.1-.5.4.2.1-.2.2-.2-.2-.7 3.4-.1-.1-.8 3.4.6-.1.1 1.6zm3.4-12.7h0zm-1.2 27.9l-2-.6.8 2 1.2-1.4zm-1-3.5l1.6-1.3-1.7-.7.1 2zm-1.5 2.7l.7-.6v.1h.8l-.2-.6.4-.3-1.7-.7v2.1zm4.7-8.4l-.3-1.7-1.2 1.2 1.5.5zm4.5 6.4l-1-.4.2.9.8-.5zm-4.7 2.4l-.6 1h.4l-.1.2h.3l-.2.4h.7l-.2-.4 1.2.2-.7-2.1-.6 1-.2-.3zm-4.1 6l.3-.4.8.2.1.3.2-.2.2.1-.2-1.7-.9 1-.8-.3.1.2-2-.6.6 1.4-.1.1h.1l.1.4.3-.3h.1l-.1-.1.9-.9.3.8zm5-2.7l.4-1.4-1.6.3 1.2 1.1zm-2.6-8.7l1-.9-1.4-.3.4 1.2zm.3 11.5l-1-.3.8 2 1.2-1.4-.3-.1.5-.1-.7-1.1-.5 1zm-7.5 32.7v2.1l1.6-1.4-1.6-.7zm-1.7 2.9v2.1l1.7-1.3-1.7-.8zm3.5-6.8l1.5.5-.2-1.5.3-.3-.6-.2v.5l-.2.2-.4-.9-.4.9h.8l-.8.8zm-1.1 2.2l1 .4v-1.2l-1 .8z"/><path d="M200.6 177.1l1-.3-.6-.4h.1l-.2-1.2-.8.9.6.2-.1.8zm6.6 5.2l.6.1-.3-1-.5.7-.7.1.5.8.4-.7zm5.6 10.8l.4-1-1.2.1.8.9zm-6.3-1.8l-.6.8.9.1-.3-.9zm5.3-5.8l.1.8.9-.5-1-.3zm-1.7 20.4l.4-1-1.2.1.8.9zm-6.3-1.8l-.6.8.9.1-.3-.9zm5.2-5.8l.1.9.9-.5-1-.4zm-1.2 4.3l.4-1H207l.8 1zm-6.9-1l.9.1-.3-.9-.6.8zm5.8-6.7l.1.9.8-.5-.9-.4zm-10.6 7l-.8-.3.4 1.2.6-.6.3.3.4-.9-.9.3zm8.1-.2l1 .2-.4-.9-.6.7zm-.8-10l-.6-2.1-.6.9h-.2l.1.2-.2-.4-.7 1h.4l-.1.1 1.9.3zm3.3-3.7l-1-.4.1.9.9-.5zm-9.1 8.3l.6-.7-.9-.3.3 1zm5.5-4l-1.2.2v-.3l-.3.3-.4-.6-.7.9h.8l-.7.7 1.5.5-.1-1 .8.7.3-1.4zm-2.8-7.4l1.1-.9-1.4-.3.3 1.2zm3.1-2.8l-.6 1 1.2-.1-.6-.9zm-4.4 5.1l.3.9.6-.7-.9-.2zm-3.4 11.1l.9-1.1.1.2.8-.9-1.3-.4-1.5-.4 1 2.6zm1.9-.3l1 1.7.3-.9h.1v-.1l.2-.5.3.3.2-.9-.9.2v-.1l-.2.2-1 .1zm-.6-4.6l.4.7-.3-.1.2.6.2-.3.4.7.7-2-1.6.4zm-2.4-1.5l.7-.8.3.1v-.1l.7 1.8-.6.4.8.4v-.6l1.4-1.7.2.1v-.2h.2l.3.8 1.2-1.4-2-.6.2.5v.1l-.6.5-1.8-.5.1-.1-.3-.1v-.4l-.3.3-.9-.3 3-.7-.9-.7-2.2-1.8-.6 3.4.4-.1.7 1.7zm-1.4.9l-.6 3.4.6-.1-.6.5 1.2.4.2.4.2-.3.1.1v-.2l.4-.5-.5-.1-.1-.6 2.1-.5-1.2-1v-.1l-.1.1-.1-.1v-.1h-.1l-.6-.5v-.1h.4l-.5-1.1v-.2h.1l-.1-.2v-.5l-.2.2v-.1l-.1.2-.7.5.8.4-.3.5-.3-.4zm1.5-10.4l-.5 3.4 1.3-.3-.8.8h.1l-.1.5.6-.3-.2-.2 1.1.3.2.5-.2.1.1-.4-1 .2.5.4-.1.1.8.4v-.7l.2.6.8-.9-1.3-.4-.2-1.3 1.5-.4.1.1-1 1 1.5.4-.2-1.2.1.1.1-1.6 1.4-.2-1.2-1.9.5.3.1.1.1-.1.5.3.1-.9.2-.2-.2-.1.1-.8.4-.5.3.3.4-.9-.4.1-.6-.3v.2l-1.8-.5-.9-.7v-.3l.4-.5v.1l.3-.4.1.3v-.1.7l-.4.1.3.4v.1l.1.1.2-.3 2-1.4-1.7-.8.4-.5-.4-.1v-.5l-.5.3.2.1-1.2-.3-.1-1-.2.3-.4-.3-.1.7.4-.2-1.1 1.1.7.2.5.5.1-.3h.1l.2.4-1-.3.7 1.7-.8-.6.5.1-.2-.6-.3.5-.2-.2-.2 1.8-.2-.2-.6 3.4h.1l.4.9-.5-.3zm1.5.6l.8-.6.2.1v-.2l.1.4.6-.7-.7 2h.2l-.5.3-1.1-.8.4-.5zm-.5-1.4l.2.1v-.1l.5-.1-.3.3-.4-.2zm2.5-.4l-.2.1.1.1-.1.2-.9-.3 1.1-.3-1.4-1.1.4-.1.3.2v.4l.3-.3h.1v-.1l.3-.2-.3-.1v-.1l.3-.1.2.5h-.1l.3.9h-.1l.1.3h-.4zm-2.8.5l.1.3-.7-.2.6-.1z"/><path d="M193.3 203.8l-.1-.6.7-.8-.6-.2 1.9-.6-1.6-1.1v-.5l.8-.9-.2-.1.3-.4-.2 2.3 1.5-1 .2.4.4-.5-.4-.1.6-.4-1.5-.9v-.6l-.1.1.2-.2-1.6-.5v-.2l-.2.1-.8-.3.5 1.4v.1h.1v.1l-.7-.2.6 1.6-1.1-.8-.4 3.4.7-.2-.7.7 1.7.9zm2.8-.9l-1.8 1 .2.1.3.8.4-.4.6.4.1-1.1.2.4.4-.4-.5-.2.1-.6zm-1.9 4.9l.3-1.9-1.8 1 1.5.9zm3.5-5.9l.6-.6-.9-.3.3.9zm5.8-15.5l-.3.5-.1-.2-.5.8 1-.1-.1-.2h.5l-.5-.8zm2.2-2.6l-1 1.4 1.7-.1-.7-1.3zm-2.4 12.7l-1.3-.5-.1-.2-.1.1-.4-.1.4-.2-.9-.7-.1.6-.1.2-.5-.2-.1-.2-.1.1-.3.4h.4l.1.3.4-.4-.5.8 1.3-.2-.2.3.5-.1.1.3-.3.4h.4l.1.2 1.3-.9zm-2.1-.6l.2-.1.2.5-.4-.4zm2.4-.1l.6.4.1-.9-.7.5zm5.6-11.9l-.8 1.1h1.4l-.6-1.1zm-5.2 5.4l-.2-.3-.2.2-.4.6h.6l.2.5.7-.7-.7-.3zm-.8-8.3l.2-1.1-1 .6.8.5zm.9-45.5v-1l-.8.6.8.4zm.1 1.6l-.9 2.6 1.5-.3v.1l.8-.2-.1-.1h.1l-.8-1.2h.3l-.2-.3-.1.2-.6-.8zm2.4-2.3l-2.6-.7 1.1 2.6 1.5-1.9z"/><path d="M200.2 141.9l.4-.1-.1 1 1.1-.4.5.2-.2-1.1 1.3-.3-.7.7 1.1.3v.1h.8l-.4-.4-.1-1.3-.2.2-.7-.6.6-.4-.8-.2.1.5-.4-.3-.1-.3-.1.2-.3-.2.2-.1-.3-.1.8-.9.4.1-.1-1.1 1.3-.3.3.1-.1-.1.2-.1-.3-.2.3-.2-.7-.2v.1l-.6-.5v-.3l-.2.1-.4-.3 1.1-1.3-1.4-.4 1.8-.3.2.4.4-.5.5-.1-.2-.2.5-.6h-.1l.3-.6-.7.1v-1.3l-1.4 1.1 1 .4-.6-.2h-.1l-1.4-1.3.7-.2-.6-.5-.1.6h-.1l-.8 3.4.3-.1.2.7-.3.2-.4-.3-.5 3.3-.3-.1.5 1.2-.4-.3-.7 3.3zm.7 0l-.2-.1.3-.1-.1.2zm4.3-9.9l.2.3-.2-.1v-.2zm-3.1 1.8h0zm.3.9h0l.3.6-.4-.3.1-.3zm-.4 2.9l-.3.3-.4-.1.7-.2zm9.5 1.8l-1 1.4 1.7-.1-.7-1.3zm-2.3 6.1l1-.1-.5-.7-.5.8zm.2-2.4l-.2-.2h.6l-.4-.6v-.3l-.6.3.1.1-.5.8 1-.1zm-.3-.6h0zm-1-20.8l1.4-1.2-1.8-.9.4 2.1zm1.1-8.9l1.3-.9h.3l.3.2.2-1.7-1.5.9v-.5l-.4.2-.4-.2.2 2zm5.7-8.6l1-.2-.6-.8-.4 1-.4-.5-.2.9h-.8l-1.2 1.4.9.2-.1.2.6-.1h.1l-.3-1.7.6.7-.1.5 1.7-.5.3.3.8-1.5-1.7.3-.2-.2zm3.2-1.6l1.3-.3-.7-.9-.6 1.2z"/><path d="M219.8 101.2l.8.8.5-1.2-1.3.4zm-2.6 2.4l.3-1.5-1.4.7 1.1.8zm-5.2 4.8l.1-.2.2.3h-.7l.7.8.2-.4.1.1.5-.7-1-.2.4-1.2.1.1.4-1-1.2.1.5.6-1.5.5 1.2 1.2zm-40.6 15.2l.6 1.4 1.1-1.3-1.7-.1zm.1-2.3l-1 1.8 1.8.1-.8-1.9zm1.4 4.1h1.8l-.8-1.9-1 1.9zm5.3 8.9l.5-.9-1 .1.5.8zm13.5-17.5l.4 1.5 1.3-1.1-1.7-.4zm.3-2.6l.4 1.5 1.3-1.1-1.7-.4zm-2.6 5.2l1.8.3-.5-2-1.3 1.7zm-10.8 3.2l-1 1.9h1.8l-.8-1.9zm4-2.4l-1.6 1.3 2.1.4-.5-1.7zm-2.6.5l-1.6 1.3 2.1.4-.5-1.7zm5.5-.9l1.2-1.3-1.7-.2.5 1.5zm10.8-3.5l1.3-1.2-1.8-.3.5 1.5zm-16.7 7.6l1-.6-1.2-.4.2 1z"/><path d="M185.8 121.2l.1-1.1-.8.4.7.7zm-2.5 7.8l1-.2-.6-.7-.4.9zm-4.4-2.3l1.1-1.9-2.2.2 1.1 1.7zm5.9.9l1 .3-.4-1-.6.7zm-7.1-4.2l-.2-.4h.7l-.8-1.9-.4.7-.3-.6h.2l-.4-1 1.9 1.4-.1-4-3 1.7.6.4-.8 1.4h.6v.4l.6-.3h.1l-.7 1.3-.3-.8-.6 1-.1-3.2-3 1.7 2.8 2-.2.3h1.8l-.1-.3 1.7.2zm18.1-4l.1-.9-.9.4.8.5zm-7.3-.2l.1-.1h.2l-.1-.3.2-.6-.4.1-.6-1.8-1.6 2.3 2 .2.2.2zm-6.3.7l.2-2.5 1.4.2.1.2-1.4.5 1.8 1.6.8-2.6-.8.3.7-.6 1.1 1 .2-1.8 1.7.2-.6-2-1 1.5.1-2-3.2 1.4 1.3 1.2-1-.2-.3-.9-.8 1.2.1-.9-3.2 1.4.6.6-1-.1.5 1.3-.5-.4v1l.8-.4-.2-.2.8-.9 1.1 1-1.1-.1.6 1.4.9-.9.3.5zm2.2 4.6l.1-.2-.9.1.7.7.1-.3.4.4.3-.8-.7.1zm.5-3.3l-1.7.1 1.2 1.3.5-1.4zm4.2 0l.3-.9-1.1.1.8.8zm-6.2 6l.3-.8-1 .1.7.7zm24.1-18.8h0v-.4l.2.7.9-.8-1.1-.2.1-.7-1.6.6.1-.3-2.7.7.1.2-1.1 1.3 1.2.3.1.3-1.7.6.5-2.3-2.6.8.4.5-1.1-.2v-.1l-2.9 1.1v-.1l-3 1.1v-.1l-2 .8-3.5 1.6 2.1 1.7-.9 1.2 1.8.2-.3-.9.2.2.1-.7.1.4 1.3-1.1-1.3-.3.3-1.9 1.8 1.7.2-2.6 1.3 1.4-1.1-.2.4 1.5 1.1-.9.7.7-1.2 1.6 1.8.3-.4-1.7.1.2.1-1 1.3-1.1-1.1-.2.1-1.3 1.4 1.7-1 1.4 1.8.2-.1-.3 1.6.5-.3-1.6-1.4 1-.2-.6.2.3.7-3.6.4 1.2 1-.9 1.1 1.3-.4-.1.3 1.2 1.1-.8-.8-.2.1-.6 1.3 1.2.6-1.5.1.2.9-.8.5.6.4-1.4 1.2.1-.2.2h.5l.1.1v-.1l.6.1-.3-1.4zm-3.7 1.3l-.2-1.3 1.1 1.4-.9-.1zm1.9-.7l.2-.7.2.2-.4.5zm-4.1 4.4l1.9.6-.3-1.6-1.6 1zm-1.6 5.3l.4-.9h-1.1l.7.9zm-6.3-.9l.8.1-.3-.9-.5.8z"/><path d="M198.8 111l-.1.9-.3-.1.1.8.8-.5-.4-.2.6-.3-.7-.6zm38-2.1l-.7.2.5.6.2-.8zm-19.4-2.9l.1.1.4.5.1-.3.9.5-.7.3.5.5v.1h.2l-.3.7.8-.1-.4-.6h1.3l.2.1v-.1h.1l-.1-.2-.1-.8h.1v-.6l.1.3.4-.3-.5-.1v-.5l.2-.2h.4l-.2-.2.5-.4.2.1v-.1l.8.8-.1.1.3.1.2.2-1.6-.4.2.8-.1.6.2-.1v.1l.2-.2.8-.3-.3-.2.5-.4.1.1.1-.8.3.9.8-.8.1.5.4-.5-.4-.1.4-.4h.1v.3l.6-.6-.6-.1v-.6l-.3.2-.2-.2h.1l-.1-.3.6-.2h.5l.3.3-.1.1.6.5v-.1l.7.7-.8.6 2.1 1.1.1-1.2.1.1.3-.6h-.5l.1-.8.2-.4h-.2l.1-1.5 1.1 1.6-.8.5.2.1-.2.1.5.4.1-.3 1 .5.2-2-.2.1.5-1.6v.1l.5-1h-.2l.1-.2-3.4.6.4.7-.7.5-.3.2v-.1l.7-1.6-.6.1v-.1l-1.2.3.1.1-.6.2v-.1l-.7.3.1.1-.8.3.1-.4-1.4.6.3.3-1.3.5v-.2l-1.1.6-.5.2.1.1-.5.3.2.1-.2.1v-.1l-.5.5-1.9 1.3-1.1.9 1.5.7-.3-1.3zm1.4 1.3l.1-.3h.1l-.2.3zm5-2.9h-.1l.3-.1-.2.1zm-.3 0l-.5-.1.1-.5.6.1-.2.5zm3.5-1.3h0l-.3-.1.3.1zm.7.8l-.8.6-.2-.2-.2.5h.1l-.1.1.2-1.3.4-.1v.3l.4-.2.2.1h-.2l.2.2zm-3.6-1.5l-.2-.2v-.1l.2.3zm-3.7 2l-.4-.1v-.2l.4.3zm-4.8 2.8v1.1l1.1-.5-1.1-.6z"/><path d="M213.4 110.3v.8l.8-.4-.8-.4zm18.1-9.4l.1.2-1.2.8.8.5-.1.1-.3-.2h-.1l-.3-.2v.1h-.1l.1.4-.1 1 1.5-.6.3.1-.1-.4.1-1.4.4 2-.1.1h.1l-.4.2h-.4v-.5l-.7.6.7.3.3.2v.1l1.2.7.1-1.1h.3l-.2-.4v-.1l1.9-2.2.1.4.1.8.1.7-1.2.5-.1.1-.3.2.1.1-.3.2.2.1-.6.2 1 1.1v.2h-.1l.1.6.2-.2.1.6-1.4.6 1.4 1.2.5-1.6.2-.1.1.3.5-.5.9 1.1.1-.2.8 1.6 1.1-1.5-1.8-.4.1-.3v-.1l.4-.9h-1.9l-.5-.2-.4-.2.3-.8.3.2v.2l.5-.2v.1l.1-.1.9.6.4-2 .3-.4-.1.6.4-.1-.4.5-.1-.1-.4.8h1l-.2-.3.4.1-.3-1 .5-.2-.7-.5.9-.9-3.3-.9-3.4-.7.1.4-.2.1-.3-.1zm.3 3.1v-.3l.1.2-.1.1zm-1.5 1.4l.7-.2-.6-.4-.1.6zm-10 4.2l-.1.7.7-.3-.6-.4zm-2.9 1.3l.7-.2-.7-.4v.6zm-1.8 1.3l-.7-.4-.1.7.8-.3zm-.6.5l-.7-.4-.1.7.8-.3zm23.8-5.5l.7-.2-.6-.4-.1.6zm-20.1 5l-.3.5h.5l-.2-.5zm.2-2.4l.4-.3-.5-.1.1.4zm5.7.9l.4.3v-.5l-.4.2zm-2.6-.7l.2.5.4-.4-.6-.1zm6.6.9l-.1-.5-.3.3.4.2zm12.1-.3l-.3.3.4.2-.1-.5zm-9.1 1.9l-.1.5.5-.2-.4-.3zm3.9 2l.5-.2-.3-.2-.2.4z"/><path d="M231 119.3l.4-.2-.3-.2-.1.4zm1.1-12l.3-.8-.9.3.6.5zm4.6.2l-.6-.1.1.7.5-.6zm-8.7-1.4l.1.7.7-.4-.8-.3zm-13.7 5.7l.7-.3-.7-.4v.7zm-1.8 1.8l.2-.6-.6.1.4.5zm.8-1.8l-.4.5h.6l-.2-.5zm3.4-2.9h0l-1 .2.1.1-.8.3-.5-1.1-.9 1.2.9.2.1.3-.2.1.4.5v-.1l.3.7.4-.4v.5l.8-.4-.6-.4.8-.8h-.2l.4-.9.5.3v-.7l-.5.4zm-1 .8l.1-.4.4.5-.5-.1z"/><path d="M217.8 108l-.6.5.6.2v-.7zm-2.8.4l-.1.5.6-.2-.5-.3zm5.7-.4l.2-.6-.6.1.4.5zm-4.3 2.2l.6.1-.2-.7-.4.6zm-2.4 4.7l.6-.3-.6-.3v.6zm1.5-1.2l.6.1-.1-.7-.5.6zm3 1l.5-.3-.6-.3.1.6zm-6.6-.5v.6l.5-.3-.5-.3zm4.7 1.9l.1-.6-.5.2.4.4zm-3.2-1.8l.4-.3-.5-.2.1.5zm-2.3 2.8l.2.6.4-.4-.6-.2zm.9-1.8l-.5-.2.2.6.3-.4zm-.1 3.1l-.6.3.4.4.2-.7zm.3 2.4l-.6.2.4.4.2-.6zm-.2-3.7l.5-.4-.6-.4.1.8zm2.8-1.4l.2-.6-.6.2.4.4zm-.9 2.3h.6l-.4-.5-.2.5zm0 2h.6l-.4-.5-.2.5zm-1.8 3.9l.2-.6-.6.2.4.4zm3.4-2.7l-.3.5h.6l-.3-.5zm0 4h.6l-.4-.6-.2.6zm10.7-19.5l-.7.3.5.5.2-.8zm1.1 12.7l.4-.2-.3-.3-.1.5zm1.5-4.5l-.7.3.5.5.2-.8zm-3 3.4l.2-.7-.7.3.5.4zm-2.1 3.8l.2-.7-.7.3.5.4zm-5.8-2.6l.2-.7-.7.3.5.4zm19.5-12.8l.4-.5-.6-.2.2.7zm-15.3 2l.8-.2-.5-.5-.3.7zm1.9-1h-.6l.2.5.4-.5zm1.1-.6l-.5-.5-.3.7.8-.2zm1.5 2.8l-.5-.5-.3.7.8-.2zm3.2-2.8l-.7.3.7.6.2-.5h.5l.2.4.4-1-.9.1.2.3-.4-.6-.2.4zm-9.2 5.3l.8-.1-.4-.8-.4.9zm4.7-6.7l.3.5.3-.6-.6.1zm-3.6 13.3l.5.1-.3-.5-.2.4zm3.3-2.1l-.2.4h.5l-.3-.4zm-2.2-3l.3-.7-.7.1.4.6zm5.3-.2l-.2-.7-.5.6.7.1zm-6.2 1.3l-.5.6.6.2-.1-.8zm2.5-.5l.4.5.1-.6-.5.1zm-3.9 2.4l.5-.4-.6-.1.1.5zm11.4-10.8l.5.5.2-.7-.7.2zm2.2-2.4l.3.6.3-.6h-.6zm-1.1 2.7l-.1 1.5 1.6-.6-1.5-.9zm-1.6 2.9l1 .5.4.4v-.1l.1.1v-.7l.1-1.4-1.6 1.2zm-4.6-1h0l-.8-.5-.2 1.5 1.6-.6-.6-.4zm-1.7-.2l-1-.7-.1.9-2 .5 1.3 1.3.4-.9.2-.2h-.1l.3-.6 1-.3z"/><path d="M225.9 113.4l1 .1-.3-.8-.7.7zm4.1 2.9l-.1-.2-.5.6h.3l-.1.2 1 .1-.4-1.1-.2.4zm-1-5.4l.8-.5-.9-.4.1.9zm-.8-1.4H227l.8 1 .4-1zm-6.6-1.1l-.6.8.9.2-.3-1zm12.8 1.5l.4-.8-1 .1.6.7zm-2.5 3.7l.1.9h-.2l.5.6.2-.7-.4.1.8-.5-1-.4zm-3.7-6.6l-1-.2.2.9.8-.7z"/><path d="M230.8 108l-1.7-.3.2.3h-.1l.1.6.2-.2.5.8.8-1.2zm13.5 7.7l1.5-1.4-.9-.1v-1.1l-1.3.8.1.1.6 1.7zm1-4.5l.1 1.8 1.8-1-1.9-.8zm-.9.1l-.1.4-.6.3.9.7v-.7l.5-.2-.7-.5zm-7.3 8.5l.5-1.1-1.2.3.7.8zm4-5.4l-.4-.9-.5.7.9.2zm1.7 8l.8-.7-.8-.3v1zm-13.6-2.4l.2-1.2-1 .6.8.6zm1.4-7.1l-.3.8 1-.1-.7-.7zm4.8 7.8l.6-.8-.9-.1.3.9zm.4-9.5l-1-.6.3-.2-1-.6v.4l-.1-.2-.1 1.1-.1.1-.6.1-.2-.7-.6 1 .6.1.3.5.6-.9-.1.7 2-.8zm-15.3 3.1l.9-.5-1-.7.1 1.2zm4.3-6.1l.5-.1-.5-.4-.1.3-.2-.3-.5.8 1 .1-.2-.4zm18.4 0l.9.5-.2-1-.7.5zm-1.1-3l-.6.4.3.1-.2.4.7.1-.2.9h-.1v.1l-1.8-1.1-.1 1.8-.4.1-.1-.6-.8.7.9.5.1.1.3-.8v.5l1.9-.7v.2l1.8-.9.7 1.6 1-1.1-.6 1.8h-.4l.2.5-.1.2.2-.1.5 1 .5-.5.5.3v-.8l.4-.5h-.3l.5-.2.1 1.3 1.3-.8-1.1 2.6 3.9-1-2.3-2.5-.2.5-1-.4 1-.3-2.6-2.3-.2.7H244l1.6-.8-2.9-2-.2.9-.2-.3-.2.4zm-.4 3.4l.7 1.5-.4.6v.1l-.3.5h.1l-.1.3 1-.1-.1-.1.9.1-.5-.9 1.5-1.8-2.8-.2z"/><path d="M238.5 104.6l.2-.1v1l-.3-.5-.8 1.3.5.1-.1.5.7-.2-.3-.2.9.1-.4-.7.5-.3.2.1v-.2l.8-.6-.1.1.4.1.4.6-.4-.3-.1.7.7-.2.1.1 1-1.8-1.2.2.8-.6-3.1-1.6-.1 1.3-.3 1.1zm4.7 12.1l-1.2.3.7.8.5-1.1zm3.2-.3l-.3-.2-.1-1.6-1.3.8.9.6-.1.7.9-.3zm-6.5 2.5l1 .2-.4-.9-.6.7zm-1.3-7.4l.2-.1-.8-.5.1 1-.2.7 1.1-.2-.2-.4.3-.2-.5-.3zm-1.1 2.6l-.5.1.1-.3h-1l.2.3-.5.2.7.7.1-.6.2.2.2-.5.6.8.2-.5 1.1-.3-1.1-1.3-.3 1.2zm-1.9-2.4l.1 1 .7-.5-.8-.5zm1.3 6.3l1.1-.4-.9-1-.2 1.4zm5.1-5.8l1.1.4-.4-1.1-.7.7zm5.9 8.2l1.7-1.1-2-.7.3 1.8zm3-.6h0l-.1-1.7-1.3.8 1.1.7-1.1.7 1.5 1-.1-1.5zm-2.6-2.8l1-.3-.6-.6-.4.9zm-7.6 1.2l.5-.8-1-.1.5.9zm-1.3 5.1l.7-.9h-1.2l.5.9zm4.1-4.9l.9.4-.2-1-.7.6zm.9 8.7l.9-.5-.7-.5-.2 1z"/><path d="M245.1 122.6l.7-1-1.2.1.5.9zm3-1.5l-.2.9.6-.1.4.6.3-1-.6.1-.5-.5zm12.9 12.3l-1.3.8 1.4 1-.1-1.8zm-3-1.6l.2 1.8 1.8-1-2-.8zm2.2-1.8l.1 1.8.8-.4-.1.2h.7l-.4.2 1.4 1.1v-1.3l2.3-.1-2.2-3.2-1.3 2.4-1.3-.7zm-7.7-9.2l.2 1.8 1.8-1.1-2-.7zm3.7 1.9l-.9-.8 3-.4-2-2.8-.3.5h-.1l.5-.9-1 .2.5.7-1.5-.5.7-.4-1.8-.7 2.2-.4-2.1-2.7-.3.6-1.2-.4 1.6-.3-2.2-2.6-1.4 2.9-1.2-.4 1.3-.8-2-.7.3 1.8.3-.2.3 1.7 1.5-1 .5-.1-.8.5 1.5.9-.2-1.5.5-.1.2 1.8.4-.3-.3.5-1-.3.2 1.8.6-.3 1.1-.2.2 1.7.3-.2.3 1.6.4-.3.1.7.9-.5-.8 1.4h.3l-.1 1.5 1.5-1zm-1-3l.6-.4-.3.5-.3-.1zm7.7 18.4l1.5.9-.2-1.8-1.3.9zm-15.1-9.6l.6-.7-1-.3.4 1zm4.2-7.3l-1.5 1.3 1.5.7.8.9.2-1.2-.6.2-.4-1.9zm-1.7 8.3l.9-.5-.8-.5-.1 1zm-2.5-3.6l-.7 1 1.1.1-.4-1.1zm-1.4-5.9l.1.9.8-.5-.9-.4zm7.7 5l.1-1-.8.3.7.7zm-11.6-2.8l-.9.8.3.1-.5.4.9.4-.2-.8.5.2-.1-1.1zm.6-5.6l-.9-.5-.1.9 1-.4zm14.9 5l-.7.4.1-.3-1 .2.3.4h-.1l.2.1.1.1.7.5-.7 1.1v-.9l-1.2.7-.1-.1v.2l-.1 1.9 1.6-.8-.1-.1h.5l-1.1 1.8 2.6.3-.4-.7.7.5-.8 1.3 1.8-.2.1 1.7 1.8-1-1.7-.7 2-.2-2-2.9-.2.2-.9-.4h.7l-1.9-2.9-.3.5.1-.7zm1.6 5v-.5l.5-.2-.5.7zm-.7-1.6v.9l-.5.3-.7-1.1 1.2-.1zm.9 14l.9-.2-.7-.8-.2 1z"/><path d="M258.1 131v.2l.3-.2h.6l-.2-.3 1.6-1.1-2.1-.7-.2-1.7-1.3.8 1.4.9-.5-.2.4 2-.1.3h.1zm-1.7-3.4l-.4-1.6-1.1 1.3 1.5.3zm.4 3.1l-.7.9 1 .2-.3-1.1zm-5.4-4l-.2-1-.6.8.8.2zm2 0l-.6.8h.3l-.4.4.9.2-.1-.5h.2l-.3-.9zm19.1 14.6l-.6-.4.3-.1-1.7-2.2-.4.7-.2-1.2h.1l-1.8-2.3h.1l-1.8-2.6h.1l-1.4-1.9-1.3 2.4v-.8l-1.3.8 1.4 1v-1l1.5-.3-1.3.7 1.2.9-.5.8-1.9-.8.1 1.8 1.7-.9-.3.5 1.4-.2 1.1.8v-.9l1.2-.2-1.2 1.8-1.7-.5.4 1.8.3-.2v1.7l1.4-.8-1.3-1 .5-.4-.2.3 3.7-.4-1.1.8 1.2.7-.2.5-1.1 1.6 2 .4-.4.3 1.2.7-.2-1.3 1-.6zm-7.1-7.9l1-.2-.9 1.5-.1-1.3zm5.4 8.6l-.4-.8.6-.1-.1.7h.1l-.2.2zm-3.9.2l1.5-.6-1.3-1.3-.2 1.9zm2.4 2.3l1.6-.6-1.3-1.3-.3 1.9zm-13.5-15.7l.8-.1-.5-.7-.5.7-1-.6.3 1.9 1.3-1-.4-.2zm5.8 13l1 .1-.3-1-.7.9zm-.9-5.4l.7-.5-.9-.3.2.8zm6.5 2.7l.7.6v-.5l.4.5.4-.9-.8.2v-.3l-.7.4zm-16-1.7l1 .1-.3-1-.7.9zm-.9-5.5l.7-.5-.9-.3.2.8zm7.2 3.3l.1-.9-.7.4.6.5zm1.4 7.6l.9.3-.1-1.1-.8.8zm.2-5.5l.8-.3-.8-.5v.8zm6.3 4.7l.2-.9-.8.2.6.7zm3.7-1l.1-1.4-1.1.5 1 .9z"/></g><g fill="#562828"><path d="M195.8 140.6l-1.5-.3.5 1.7 1-1.4zm-2-3.5l-1.3 1.2 1.9.8-.6-2zm3.4.9l-1.1 1.5 2 .4-.9-1.9zm-1.5-6.2v1.7l1.4-1-1.4-.7zm2.4-1l-.9-.5-.1 1.2 1-.7zm-1.6 5.9l-1 .2.8.7.2-.9zm-5.7-6.6l-.5.9h.9l-.4-.9zm-4.5 2.3l-.5.9h1.2l-.7-.9z"/><path d="M193.1 134.1l-.9-.2.2 1 .7-.8zm-6.5 5l-.9.4.9.5v-.9zm7.6-6.5l-1.2.4.8.7.4-1.1zm2.9-4.8l-.5-.8-.5.8h1zm3.7 3.4v1.2l-2.2.5-.1-.3-1.7 1.6 2.4 1.1-.5-2 1.5 1.2-.1.1-.5-.1.1.5-.4.3 1.6.7-2 .4-.2-.9-1.4 1.2.4.2.8.6v1.7l.3-.3-.5.6 1.3.2-2.9.6 1.5 1.3-.7.6-.3-.8-.3.4-.2-1.1-1.2 1-1.1.1-.5-1.5-1.3 1.3 1.6.6.1.2-.3.1.5.5-.9.7-.2-.4-.5.7.9.2-.1-.2 1.3.7.1-1.9.3-.8.9.5-.3.3.3.1-1 1.3 1.1.3.7.6-1.7 1.2 1.6.8.1-2 1.9 1.6-3.6 1 .7.6-1.7 1.2 1.6.8.1-2 1.9 1.4-1.3.9-.1-.3-1 1.1v-.2l.3-.3-.7-.3v.4l-2.5.7.4.3-1.7.6.4.5-.8 1.1h1.3l.5 1.1-.5.2.8.5-.6.6 1.9.6-.6.1 1.1.9.2 1.3-.7.1-.6-1.2-1 1.5 1.5.3 2.4 2.1.5-3.2.6-2.5h-.1l.3-2.3.1.1.3-2.8-2.4 1.5.4.2-.8.8 1.8.1-.2-.5.6.4-1.4.9-.3-.7-.7.8.1-.7-2.3.7.6-1.1 1.2.3-.7-1.6-.9 1.1h.1-.3l.3-2 2 1.5.3-2 1.6.1-.4-.9 1.3.7.1-1.7.3.2.5-3.4h-.1l.7-3.4-2.3.5-.3-.7.8.3-.3-.9 1.5.8-.2-1.1.9.7.6-3.1.1-.3h-.2l-.6-1.1.9.7.7-3.4h-.1l-.2-.9.4.3.6-3.4h-.2l.4-.3-1.5.2zm-6.3 26l.5.3-.3.1-.2-.4zm.8 2.7l.6-.7.5.4-1.1.3zm.8-3.7l1.4.9-2.4.4.2-1.4.8.1zm-3.1-1.8l-.1-.1.1.1z"/><path d="M199.5 132.4l.8-1.5 1.8.2-1.2-1.8-.4.7-2.2.1 1.2 2.3zm2.6-9.3l1.7-1.3-1.7-.7v2zm-3.3 6.5l1-1.5-1.5-.1.5 1.6zm1.3-2.3h0l-.7.2 1.2 1.1.1.3.1-.1 1.6 1.4.8-3.4-2.6.5h-.5zm-8 14.7v-1l-.8.5.8.5zm-3.5-6.3l-.9-.2.2 1 .7-.8zm7.5-1.2l.5-.9-.9-.1.4 1zm4.4-11.7l-1.3 1.2 1.8.8-.3-1.1 2.6 2.6 1-3.3-3.7.4-.1-.6zm4-1.2l.9-2.8-3.3.3 2.4 2.5zm-.4-5.4l1.5 1.7.6-1.9-2.1.2zm-9.9 20.4l.8-1.5-1.7.3.9 1.2zm-2.3 10.5l1.3-.1-.6-.9-.7 1zm-3.6 5l.6-.7-1-.3.4 1zm-1.3-8.2v-1l-.8.6.8.4zm-3.5-12.9l1 .6-.2-1.2-.8.6zm5.6 3.2l-.2 1 .9-.4-.7-.6zm-7.7 3.2l.4-.8h-1l.6.8zm11.6 12.8l1.8-1.3-1.7-.9-.1 2.2zm-6.7-9.9l-1 .2.8.6.2-.8zm4.4 1.9l.7-.9h-1.2l.5.9zm4.6-5.7l-.7.6.9.4-.2-1zm.6 9.2l.9-.5-.7-.5-.2 1zm-1.4-26.2l-.3 1 1.2-.2-.9-.8zm7 .3l-.9-.1.4.9.5-.8z"/><path d="M196.3 127l-.2-.9-.8.6 1 .3zm-7.9 18.8l1.1-.6-1.1-.5v1.1zm4.2 5.3l-.2-.3.5-.4-1-.3.1.4-.4.7 1-.1zm1.7-5.2v1.5l1.6-.6-1.6-.9zm-5.9-5.5l.8-.6-1-.2.2.8zm-5.6-.3l1.2-.5-1.2-.7v1.2zm7.6-2.4h.7l-.8-1-.3.6-.6.1.7.9.3-.6zm-4.7 8.8h1.1l-.4-.9-.7.9zm5.5 4.4l-1.3 1.4 1.6.4-.3-1.8zm1.3-2.6l-1.4 1.4 1.6.5-.2-1.9zm-1.8.3l-1.1.2.6.8.5-1zm-2.1.1l.5-1-1.1.2.6.8zm3.2-5.8l-.5.7.9.2-.4-.9zm2.7 7.5l-.7-.3v.9l.7-.6zm-1.2 1.1l-1.2-.3.3 1.4.9-1.1zm2.7 13.2l1-1.3-1.4-.3.4 1.6zm-1.7-1.9l.9-.3-.8-.5-.1.8zm35-8.3l-1.4.7 1.5 1-.1-1.7zm-.6-3.2l.1 2.1 1.5-1.4-1.6-.7zm-5.7.1l-1.3-.6.8-1.3-2.5.2 1.1 2 .3-.4.1 1.4 1.5-1.3zm2.2 3.8l-.6-.5.4.2-.5-1.7-1.1 1 .5-.8v.1l1.5-1.4-1.7-.7.1 1.5-2.2.2 1.1 2.1.6-.9.4.1-.3 1.8 1.8-1zm2.1-.9l-1.4-1.1-.4 2.1 1.8-1zm-3.9-7.3l1.1.4-.4.4 1.6.6-.5-1.7-.7.7-.3-1.1-.8.7zm3.8 5.4l-1 .1.4.8.6-.9zm3.2-7.6l-.2 1 .9-.2-.7-.8zm4-.4l-.4 1.2 1.1-.4-.7-.8zm-5.1 3.3l-.8.5.9.5-.1-1zm7.2 4.1l.7-.7-1-.1.3.8zm-8.8-6.9l-1.2-.2.6 1 .6-.8zm-4.7-5.1l-.3.9.9-.3-.6-.6zm-1.4 9.1v-1l-.8.4.8.6zm-1.3-1l-1.2 1.1 1.7.6-.5-1.7zm2.7-1.7l-2.2.4-.5-.6-.8 2 1.8-.5 1.1 1.4.6-2.7zm-6.9-5.7l1-1.8-1.8-.2.8 2zm9 9l-2.2-1 .2 2.8 2-1.8zm-3.9-4.8l1.3 1.3.2-1.7-1.5.4zm-.7 1l.3-1.7-.8.2-2.5.1 1.2 2.6 1.3-1.7.5.5zm11.4 9.7l.6-.7-.9-.3.3 1zm2.1-7.5l-.8.5.9.5-.1-1zm-8.3 1.6l.1-1-.8.3.7.7zm-8.1-7.8l-.1 2.1 1.6-1.2-1.5-.9zm-3.1-5.5l.6 1.9 1.6-1.7-2.2-.2zm10.8 23.3l1.4 2.5 1.5-2.3 1.3-.9-1.4-.9.3-.2-.4-.2.7-.7.6.7.7 1.8 1.3-1.3-1.3-.4.3-.6h-.3l.1-.2 1.3-1.1-1.6-.8v1.5l-1 .3-1.5-.6.2 1.1-.5-.3v.9l-1.2-.4.6-.9-2.7.3 1.2 2.2.7-1.2.2 1.6 1.2-1.2v1l.7-.5-.1.9-2.3-.1zm3.3-10l-1.7.2 1.2 1.2.5-1.4zm2 15.4l1.3-1.3-2-.6.7 1.9zm1.8-4.4l1.2-.3-.9-.7-.3 1zm4.9-4.8l.7-.6-1-.3.3.9zm-.7-13.4l-1-.3.2 1.2.8-.9z"/><path d="M232.3 147l-.5.7 1 .1-.5-.8zm8.7-.2l-.9.3.6.6.3-.9zm-8.2 14.6l-.3.3.3-.3-.9-.3.3 1-.7.7 2.1.7-.8-2.1zm4.5-8.6l.6-.9-1 .1.4.8zm-4 2.4l.2-1-1.2.4 1 .6zm-5.3-3.6l-.8-.4.1 1 .7-.6zm1.4 8.5l-.4-.9-.6.7 1 .2zm-8.3-27.5l-.8.9 1.2.1-.4-1zm-6.1.9l-.9.1.6.8.3-.9zm5.1 5.9l-.1.9 1-.4-.9-.5zm16.3 17.5l-.9.8 1.2.2-.3-1zm-1.8 6.7v-.3h1.4l-1.2-1.7-.9 1.6h.6l-.7.5.6.2-.1.3 1-.2-.7-.4zm-4.7-2.5l1.7.1-.5-1.4-1.2 1.3zm4.1-8.7l.9.4-.1-.9-.8.5zm5.8-2.8l-1 1.1 1.4.1-.4-1.2zm-7.2 1.8l.4-1.1-.6.1-.4-.5-.4 1.1.7-.2.3.6zm5.7 5.7l-.1 1 1.1-.4-1-.6zm8.2 4.6l.6-1-1.1.2.5.8zm-2.9-.7h.3l-.7 1.1 1.7.1-.9-1.2.9.1-.8-1.1-.5 1zm-4.5 1l-1.1-1.2-.7 1.8 1.8-.6zm-2.1 3.8l.1-.3.7.4-.1-.9-.6.3.1-.5-.5.2-1-1.3-.9 1.6h1.8l.4.5zm-.9-10.9l.6-.9-.9-.2.3 1.1zm-2.7 3.8l-.4.7h.9l-.5-.7zm7.5-.2l.2-.9-.8.4.6.5zm-2.1 5.7l.6-1.3-.8.2v-.4l-.8.6-.9-1.1-.7 1.8 1.8-.5-.1-.2.6.4.3.5zm3.4-2h-1l.2.5-1.9-.6.2 1.8-.5-.2.4 1.9-1.5.4.7.9-3.1-1.3.3 1.1-.8-.6-.3 1.4-.3.1-1.6-.7.5 1.8-1.5.5.1.1-1.2-.3 1.4-.6-.9-.5 1.7-.2-1.5-1.5-.3.9-1.8-.4h.4l-.4-.5.5-.5-.1.9 1.6-.7-1.5-.9v.3l-1.7-.5 2-3.1-1.4.1 1.1-1.1-2-.6.7 1.8-2.1.2 1.7 3 .1-.1.7 1.7.1-.1v.1h.1l1.1 2.3 1 2.2 1.3-1.5.5.5.5-1.4.5 1.7 2.5-2 .1.3 2.6-1.8-.3-.1.6-1.4.2 1.1 2.3-1.6-2.3-1.1 1.7-1.1.1.3-.1-.1-.6 1.3 1.7-.1-.8-.9.5-.7.5 2.1 2.2-1.7-2.9-1.3v.5zm-11.4 6.4v.4l-.3-.1.3-.3zm4.5-.7l.2-.4.7-.2.3 1.2-1.2-.6zm.8-8.3l-1.7.3.9 1.3.8-1.6zm11.5 0l.2 1.5 1.5-1.1-1.7-.4zm-6.7 1.7l.8-1.6-1.7.3.9 1.3zm-7 5.5l.8-1.6-1.7.3.6-.2-1.2-1.2-.6 1.8 1.2-.5.9 1.4zm8.5 13.3l.1-.1.6-.2-.1-.1h.1l-.3-.2-.4-.4v1zm10.4 2.7v-.2l.5-.4-.7-.3v-.1l-.1.1-.6-.3-.9-.9.1-.3-.8.3.6.4v.3l-.6.5-.7.3h.1l-1.4.6 1.6 1.5.2-1.9.2.1v-.6l.5.1-.1.6 1.2-.5v.1l-.2.2h.2v.7l.7-.6.2.3z"/><path d="M264 194.9l-1.2-.2.5 1 .7-.8zm-10 4.2l.6-.8-1.2-.2.6 1zm1-9.3l-1.2-.2.5 1 .7-.8zm9.7 8l-1.2-.2.6 1 .6-.8zm-35.6-30.5l-.3 1.1 1-.1-.7-1zm2.4 7.1l.6-.8-1.2-.2.6 1zm7.7-8l-.2.7.7-.2-.5-.5zm-9.2 7.4l-.3.7.7-.2-.4-.5zm-1.7-.6l-.6.3.6.4v-.7zm-1.5-10.4l-.6.3.6.4v-.7zm2.1 8.3v-.6l.9 1.1.4-2.1-1.7.6.3.3-.5.2.6.5zm-.9-6.8l-.6.3.6.4v-.7zm14.4 1.5l-.3-1-.9.8 1.2.2zm-4 14h-.5l.3.6.2-.6zm2.5 5.5l.4-.2-.2-.1h.1l-.7-.7-.1 1 .5-.2v.2zm-.4-3l-.3.3.4.1-.1-.4zm-2.2 3.2l.2-.4h-.4l.2.4zm-4.5-10l.3.8.5-.5-.8-.3zm-1.2-3.3l-.3-.5-.4.6.7-.1zm-2.5 4.6l-.6.2.5.5.1-.7zm30.8 16.2l.4 1.2 1-1 .5.4.1-.7-.5.3.2-.2-1.1-.4.1-.1-.4-.1-.3-.1v.1h-.2l.2.6zm-2.9-3.3l.6-.2-.3-.4-.3.6zm-.7 4.8l-.6.3.6.4v-.7zm-5.5-7.1h-.6l.4.6.2-.6zm1.3 8.6l.2-.8-.8.4.6.4zm3.5-2.7l.8.5-.1-.9-.5.3-.6-.3.1.6.3-.2zm-5.8-1.6h.7l-.2-.6-.5.6zm10.7 7.1l.3 1.4.3-.3.5-.4h-.1l.2-.1-1.2-.6zm-2.4-.1l-.4.5h.7l-.3-.5zm6 .1l-.3.7h.3l-.6.7-.6-.2.3.9.3-.3.9.2-.3-1.4h.5l-.5-.6zm-10.9-6.9l-.4.2.4.3v-.5zm-1.3-2.6l-.3.3h.4l-.1-.3zm-2.4-5.1l-.1-.1-.1.1-.3.1.1.2-.1.2h.2l.1.1v-.1l.4.1-.2-.6zm-.7 3.1l.4-.2-.4-.2v.4zm-4.8-6.2l-.4.1.3.4.1-.5zm-.7 3.1l.4-.2-.4-.2v.4zm3.8-4.5l.4-.2-.4-.2v.4zm-4.9 9.4l.4-.6-1 .1.3.5-.1.1h.2l.1.1v-.1l.2.1-.1-.2zm4.1 2.9l.2-.4-.4.1.2.3zm.5-4.5l-.3-.3v.4l.3-.1zm2.6 10.8l.4-.1-.3-.3-.1.4zm13-1.5l.3.1-.8-1.6-.7 1.1-.2-.4-.1.1-.1-.4-.6.5.4.2v.1l.4.1h.1l.6.1v.4l.7-.3zm3.4 1.3l.5.1-.1-.7-.4.6zm.3 2.5l-.4-.7-.4.6.8.1zm-6.5-3.1l-.6-.3v.6l.6-.3zm-2.8-1.1v1l1-.5-1-.5zm4.1.3l-.6-.3v.5l.6-.2zm-1.1-1.9v.6l.6-.3-.6-.3z"/><path d="M265.5 202.8l1.1-.6-1.2-.8.1 1.4zm-2.3 1.2l1.1-.6-1.2-.8.1 1.4zm-25.3-36.9l-1.7.4 1.3 1.1.4-1.5zm8.3 19.3l-1.2.3.9.7.3-1zm2.8 2.7l-.4 1.4 1.3-.5-.9-.9zm19.9 14.5l1.2.3-.3-1.4-.9 1.1zm-5.2-3l.2-.4h-.5l.3.4zm-7.9-2.2l.8-.4-.8-.4v.8zm4.5 1.1l.7.2-.2-.8-.5.6zm-1.5-6.2h-.8l.5.6.3-.6zm-10.5-9.1l-.3.5.7.1-.4-.6zm2.6-.9l.2.7.5-.6-.7-.1zm-6.8-8.1l.1 1 .7-.5-.8-.5zm-4.1-6.6h.4v.3l-.3.5 1.1-.1-.6.7-.2-.1v.4l-.3.4.9.3.7.5.1-.3.8.3-.6-1.6.7-.7 1.3-.1-.1.1-1.3.6 1 1-.2.4-.2-.1h.1l-.2-.7-.4.4-.2-.1v1.2l-.3-.1-1.5-.8v.6l-.5-.2v1.8l.8-.4v.2l.9-.6v.1l.4-.4h.1v.4l.4-.2 1-.2.6.5-.4.2.8.6.2.4-1.9-.4.4-.1-.5-.5-.2.8.4-.1.4 1.7 1.6-1.2.1.2.6-.8h-.3l.7-.5-1.4 2.6 1.5-.2.4.5.1-.1v.5l-.8-.3.1.5-.9-.5-.1 1.6-.6.9-1.4-.6.1 1.8 1-.5.5-.3.8.2-.2 1.6 1.7-.7-.3-.3.1-.1-.5-.2-.7-.7-.4-.8.9-.4.1.4.3-.2.3 1.6 1.9-1.2 2.1-.3-.6 1.2.2-1-2 .5.2.2-.1.6-.2-.1.1.7.1-.1-.1.7 1.2-.5v.1l-.4.8 3.7-.8v.5l-.8-.2.2.4-.2.1.3.2.2.3.1-.1h.1v-.3l-.1.9.7-.3.5.3.1-.6-.3 2.2-.1.1-.2-.1v.3l-.5.5.5.1v.9l.8-.6.3.1-.3 1-1.4-.4v-.3l-.3.3h.1l.1.4-.5.2.6.3.1.5-.3-.1.5 1 .6-.8-.7-.1 1.1-.8.6-.1v.2l-.2.3 1.1-.3.9.5-.1-.4.1-.3 1.7-.5-1.3 2.8 1-.3h-.1l.4.4-.5.2v-.3l-.7.4.8.5v-.5l.5.4.2-.9-.1.1.1-.5.9-.2v.1l-.7.7 1.1.4-.6.3.6.5.1-.7.3.1-.2-.7.3-.1-.5-.7.9-.2-2.3-2.2-.1.3-2.2-2.4-.7 1.6-.1-.2v-.1l-.5-.7h.5l-.1-.2.9-.3-1.8-2-.3-.3-1.1-1h.2L251 177l-.1.1-2.1-2.7-1.9-2.4-.2-.3-.1.2-1.2-.3 1.1-.2-1.1-1.4-.9-1.1-.1-.5-.5.5-.4-.6-.1-.4-.1.1-.1-.2h-.1l-1.1-1.7-1.1 1.7-.1-.5.1-.2h-.1l-.1-.3-1.1 1 .6.3-.2.5zm14.5 15.2l.2-.1-.2.1zm-4.3-4.6h0zm-2.1-3.4h.3l-.3.5-.8-.3.8-.2zm-.4 1.1h0l.4-.3-.2.4-.2-.1zm1.1-1.7l-.1-.2-.3.2-.5-.3 1-.2-.1.5zm-4.7-5.7h.3l-.4.7.1-.7zm1 3.5l.2.1h-.2v-.1zm.3.1v-.4l.1.4h-.1zm-4.2-9.3l-.4.6h.7l-.3-.6zm1.2 10.9l-.5.6.8.1-.3-.7zm17.4 20.6l.6 1 .6-.9-1.2-.1zm-4.3 8.9l.6-.9-1.2-.1.6 1zm6.1-7l.5.6.3-.6h-.8zm-2.5-3.3l-.2.7.6-.2-.4-.5zm-1.1 5.9l.6.4v-.7l-.6.3zm-3.6 1.5l.1-.8-.7.4.6.4zm3.6-3.2l-.7-.2.2.6.5-.4zm2.2 5.9h.7l-.2-.5-.5.5zm-5-6.9l-.5.3.4.3.1-.6zm1.9-1.3l.3-.2-.4-.2.1.4zm-3.4-1.2l-.3.4h.4l-.1-.4zm-10 .7l.5.1-.3-.5-.2.4zm4.6 2.4l.2-.4-.4.1.2.3zm.1-4.5l-.3-.3v.4l.3-.1zm3.5 10.6l.4-.1-.3-.3-.1.4zm-.7-4.1v-.4l-.4.2.4.2z"/><path d="M257.5 195.9l.7-.4-.8-.3.1.7zm-9.1-3.1l.7-.4-.8-.3.1.7zm4.6.8l-.2-.7-.4.6.6.1zm-3.1-5.4l.4.5.3-.5h-.7zm11.5 13.7l.1.6.6-.4-.7-.2zm-2.2-.6l.1 1 1-.6-1.1-.4zm3.5-.3v.6l.6-.4-.6-.2zm-5.4 2.5l.8-.5-.8-.3v.8zm4.6.7l.7.1-.3-.7-.4.6zm-2.1-6l-.7.1.5.6.2-.7zm-3.7-7.8v.3l.3-.2.2.1v.3l.7-.4-.5-.2v-.1l1.2-.9-1.5-.8h.1v-.2l.9-.9-1.4-.2-.5-.3v.2h-.2l.3.9-.3.3h.5l.2.5.2-.2.3 1.5-.5.3zm4.4 6.4l.8-.3-.5-.5-.3.8zm-11.6-11.6l.4-.5-.6-.2.2.7zm2 4.4l-.3.5h.7l-.4-.5zm-14.9-6.3l-.7-.4v.8l.7-.4zm-1.1-4.2l-.9.9 1.2.2-.3-1.1zm-3.5 4.2h-.6l.3.5v.2l.1-.1.3-.1-.2-.1.1-.4zm9.1-3.6l-.6.8.8.2-.2-1zm-.5-.5l.4-.6h-.8l.4.6zm-6.1 9.6l.4-.2-.5-.3.1.5zm-.5-3l-.3.3.4.1-.1-.4zm-2.1 3.2l.2-.4h-.4l.2.4zm-7.2-25.2h-.6l.4.6.2-.6zm2.5 5v.5l.4-.2-.4-.3zm-.4-2.5l-.3.3.4.1-.1-.4zm-2.2 3.2l.2-.4h-.4l.2.4zm13.9 15.7l.1-.5-.5.1.4.4zm-.6 2.2v.4l.4-.2-.4-.2zm3.3-1.9l-.3.3.4.1-.1-.4zm-4.5 9.4l.4-.2-.5-.3.1.5zm-.8-2.7l.4.1-.1-.4-.3.3zm-2.1 2.5l.3.4.1-.4h-.4zm6.8-3.4l.1-.5-.5.1.4.4zm-.5 2.5l.4-.2-.4-.2v.4zm3-1.9l.3.1-.1-.4-.2.3zm-17-13.5v.1l-.2.1.2.3.4.5.5-1.1-.8.2-.1-.1zm-.4-2.5l-.3.3.4.1-.1-.4zm-2.4 2.8l.2.4.1-.4h-.3zm6.8-3.4l.2-.5-.5.1.3.4zm-.5 2.1v.4l.4-.2-.4-.2zm3.2-1.8l-.3.3.4.1-.1-.4zm-4.5 9.4l.4-.2-.5-.3.1.5zm-.8-2.8l.4.1-.1-.4-.3.3zm-1.8 3l.2-.4h-.4l.2.4zm6.7-4.3l.1.9.7-.7-.8-.3v.1h-.5l.3.4.2-.4zm2.3 1.1l.4.1-.1-.5-.3.4zm7.3 19.9l.4-.2-.4-.3v.5zm-.7-2.8l.4.1-.1-.4-.3.3zm-1.9 3l.1-.4h-.4l.3.4zm6.6-3.9l.1-.5-.5.1.4.4zm-.6 2.6l.4-.2-.4-.2v.4zm3-1.9l.3.1v-.4l-.3.3zm-4.4-7.6l1.2.9.2-1.2-1.4.3zm.6-7.3l-.8.3.7.4.1-.7zm-3.9-1.3l-.6-.2.1.7.5-.5zm1.2 5.1l-.4.5.7.1-.3-.6zm-3.4 11.7l.1-.7-.8.3.7.4zm-4.3-1.6l.5-.5-.6-.2.1.7zm1.3 5.2l.7.1-.3-.6-.4.5zm5.4-25.9l-.9.4.8.5.1-.9zm-5.2-1.1l.6-.6-.7-.3.1.9zm2.8 3.2l-.8-.5.1 1 .7-.5zm-1.7-5.4l-.6.6.8.1-.2-.7zm-4.2 6.2l.3-.7h-.7l.4.7zm-4.5 16.2h-.6l.3.6.1-.1.3-.1-.2-.1.1-.3zm2.5 5.5l.3-.2-.4-.3.1.5zm-.9-2.7l.4.1-.1-.4-.3.3zm-1.8 2.9l.2-.4h-.4l.2.4zm-3.5-4.1l.3-.2-.4-.3.1.5zm-.9-2.7h.5l-.1-.3-.4.3zm-1.8 2.9l.2-.4h-.3l.1.4zm6.6-3.8l.1-.5-.4.1.3.4zm2.5.6l.3.1v-.5l-.3.4zm2.9-3.2l.1 1 .8-.4-.9-.6zm-1.4-4.3l.8.1-.2-.7-.6.6zm-3.6 5.7l.3-.7h-.8l.5.7zm18.2-3.1v-.7l-.7.3.7.4zm3.5 3.6l-.7.4.7.3v-.3l.2.1v-.4l-.2.1v-.2zm-6.5-8l-.7.4.7.3v-.7zm-5.9-5.1l-.2.8.8-.3-.6-.5zm16.4 19l-.3.8.8-.3-.5-.5zm-11.9-10.8l.4-.5-.6-.2.2.7zm1.7 5h.7l-.4-.6-.3.6zm-3-16.6l1.3-.6.4.1-.1-.2.3-.1-.4-.2-.2-.5-.3.3-1.1-.6.1 1.8zm2.9-.7l-.5.9.6-.1.8.3-.1.3.3-.1.3.2-.1-.3.2-.1-.2-.2-.3-1.2-.7.6-.3-.3zm-8.3.9l.1-.2.5.6.3-1-.6.1.3-.3-1-.3.4 1.1zm-3.2.5l.4 1 .8-.8-1.2-.2zm5.8-3.9l-.7.5.8.5-.1-.7.7.4.1-.8-.8.3v-.2zm.2 8.8l-.6-.5-.3-.5-.4.6.6.1-.2.7.9-.4zm1-6.2h.6l-.3-.7v-.1h-.1l-.2-.4-.2.4h-.3l.1.3-.2.5h.6zm-2.9 1.8l-.5.4-.3-.4-.4.6h.5l.8.5-.1-1.1zm-5.5-5l1.9-.7-1.4-.9 1.5-.7-1.9-1v.3h-.1l.1.2v1.1l-.1 1.7zm9.2-.3l-.9 1.5 1.5.1-.6-1.6zm6.7 9.2l.3 1.1.2-.4.8.6.3-1.2-.7.2.1-.1.2.1-.1-.4-.3.3-.8-.2zm.8 6.6l1 .4-.1-.9-.9.5zM229.2 178l-.1 1.1 1.1-.4-1-.7zm2.4 6.8l1 .1-.3-.8-.7.7zm7-1.1l-.6-.7-.5.9 1.1-.2zm3.5-3.9l-.8.9 1 .2-.2-1.1zm-1-5.1l.9-.5-.9-.5v1zm6.7 3.9l.7.7.2-1-.9.3zm-26.3-12.4l.5-1.1-1.2.3.7.8zm2.8-5.8l1 .2-.5-.9-.5.7zm3.1 8.1l.7-.7-.8-.3.1 1zm-3.7 2.8l.5-1.1-1.2.3.7.8zm3.7-5.6l-.5-.9-.5.7 1 .2zm2.3 7.9l.7-.6-.9-.3.1.8-.3-.6-.5.7 1 .2-.1-.2zm16.8 20.9l1-.4-.8-.9-.2 1.3zm4.9-5.9l-.6.7.9.3-.3-1zm-2.8-6.9l.5-1.6-1.6.6 1.1 1zm-9.1-1.1l-.8.6.8.4v-1zm-3.9 5l.4-1.3-1.3.5.9.8zm3.1-7.3l.5-.5H238l.3.6-.3.5 1.2.1-.5-.7zm3.5 8.1l.2 1.1.8-.9-1-.2zm12.4.9l-1.1 1.1 1.6.6-.5-1.7zm-4.6-1.6l.1-1-.9.5.8.5zm8.5 5.8l-.6-.5-.4 1.4 1-.4.3 1.4 1.2-1.1-1.5-.8zm-5.3-.3l-.5 1 1-.1-.5-.9zM251 187l.7-.6-.9-.2.2.8zm6.1 12.4l-.3 1.1.9-.2-.6-.9zm-2.4-4.4l.5.8.6-.9-1.2-.1h-.7l.4.7.4-.5zm-2.7.8l-.5 1h.5l-.2.4h.7l-.2-.3h.2l-.5-1.1zm-1.5-4.8l-.9-.2.3.8.6-.6zm9.8-1.2l-.1.6-.1-.3-.5.5-.6-.1.4.7h-.2l.5.5.2-.5-.3.8.8-.3-.1-.1.8-.2-.4.4.6.2-.2-.6.7-.2v.3l-.1.1h.1v.4l.5-.3.7.1-.1.3.8-.4.2.4.2-.2.7 1.1.1-.2.2.2-.6.2h-.9l.1.2-.5.1 1.3 1-.2.4 1.7.2-.1-.2 1.2.2-.5-.9.6-.1-.5-.5-.2.5-.1-.2.2-.3-.6-.1-.1-.3 1.9-1.1-2-1.1-.1.7-1.4.1.4-.5 1.3-.6-2.2-1.6-.6 2.6-.7-1.1.5-.1-.2-.2.6-.6-1.1-.1 1.4-.6-2.1-1.8-.8 2.8-.5-.2zm4.8 3.9v-.2l.4.1.3.6-.2.3-.5-.8zm.4-1h0l-.3.4h-.1l.3-.5h-.3l.5-.7-.1.8zm-5.8-1.5h0zm.2.1l.1.1v.1l-.1-.2zm1.9-.1h.2l-.1.1-.1-.1zm-.3-1.4h0l.5 1.1.1-.1-.1.3-1.2-.9.7-.4z"/></g><path d="M334.3 148.4c-.2 0-.4-.1-.5-.3-.1-.3 0-.5.2-.7 1.1-.5 2.9-1.5 3.2-2.1a3 3 0 0 0 .4-1c.3-.8.6-1.8 1.5-2.9 1.5-1.8 5.6-5 6.1-5.4 1.4-1.1 2.4-1.7 3-1.2.5.4.8 1.4.1 2.8-.3.6-1 1.6-1.6 2.5l9.9-5.5c1.7-.7 2.3.2 2.5.7.3.7.1 1.6 0 1.7 0 .1-.1.2-.2.2l-6.8 5.3c-.2.2-.5.1-.7-.1s-.1-.5.1-.7l6.7-5.2c0-.2.1-.6 0-.9-.1-.2-.3-.6-1.2-.2-.8.4-8.1 4.5-11.8 6.6-.2.1-.5.1-.6-.1-.2-.2-.2-.4 0-.6 0 0 2.3-3.1 2.9-4.2.4-.9.3-1.4.1-1.6 0 0-.4.1-1.8 1.2-1.7 1.3-4.8 3.9-6 5.3a6 6 0 0 0-1.3 2.5c-.1.4-.3.8-.5 1.2-.6 1-3.1 2.3-3.6 2.5 0 .2 0 .2-.1.2z" fill="#cc7a5e"/><g fill="#562828"><path d="M265.8 196.1l.1-.3h-.5l.2.3h-1l.9 1.6 1.2-1.7-.9.1zm.7 1.7l-.8 1.3 1.7.2-.9-1.5zm.3 5.4l1.7.2-.9-1.5-.8 1.3zm-15.5-19.1l-.8 1.3 1.7.2-.9-1.5z"/><path d="M268 199.2l-.8 1.3 1.7.2-.9-1.5zm2.4-5.1l-2.8-1.8-.7 3.8.6-.3-.1.2 1 .2.1.4.4-.3h.1l1.8 1.3-1.7 1.1-.2-.1.4-.6.3-.4h-.1l.3-.6-2.1.3 1 1.3h-.1l.2.3-.1.1.1.1.1.2-.4.6.7.1.2.4.4-.6.5.3-.8 1 .4.1-.6.4.1-.3-2 .5 1.6 1.2.2-.9 2.2 1.5-.2-3.2-.1.1-.2-3-.1.1-.2-3.1-1.9 1.2-.2-.4 1.9-1.2zm.1 6.6l-.2-.7.6.4-.4.3zm-33.3-25.1l-1 .3.9.7.1-1zm-5.5 1.6l-.5-.7-.3.9.8-.2zm3.3-6.1l.5.6v1.4l.5-.2.2.8.6-.5-.6-.3.8-.4v.2h-.2l.3.5v.9l1.9-.9-1.7-.8.2-.1-1.2-.6.3-.5 1.5 1-.1-.9.5.4.3-1.4 1 .7-.5.5h-.4l.5 1.1.4-.4.4.4.1-.7h.1v-.1l.1-.1h-.1v-.2l-.2.1-.2-.5-.1.1-.1-1.1.5.2-.4-1.8-.1.1v-.6l-2.3 1.5h.1l-1.9 1.2.7.4H235zm3.6-.9l-.8.2v-.8l.8.6zm-6 2l2.2 1.7-.1-3.3.1.1v-.1l.3-.4h-.4v-1l-1.5.9 1.2.4.1.3-1.9 1.4z"/></g><g fill="#1f2b36"><path d="M328.6 149.1l4.5-2.4c.8-.3 1.7-.1 2.1.6l8.5 13c.5.8.3 1.8-.5 2.3l-3.9 2.4c-.8.5-1.8.3-2.3-.5l-9.1-13.4c-.6-.9-.3-1.6.7-2z"/><path d="M329.5 155.9c-.1 1.5 3.4 6.3 4.4 7.5s2.3 1.5 4.9-.3c2.5-1.8 4.8-2.9 5.2-4 .6-1.6-.8-3.5-2.3-5.7s-3-3.9-4.4-3.4c-1.3.5-4.9 2.8-6.3 3.6-1.3.7-1.4 1.1-1.5 2.3z"/></g><path d="M353.8 145.5c-.1 0-.3-.1-.4-.2-.2-.2-.2-.5.1-.7l6-5.2c.5-.4 1.3-1.4 1-1.9-.5-.7-1.5-.4-1.5-.4-.3.1-.5 0-.7-.3s0-.5.3-.7c.6-.2 1.9-.4 2.7.7.9 1.3-.9 3-1.1 3.2l-6 5.2c-.2.3-.3.3-.4.3z" fill="#cc7a5e"/></svg>