<svg xmlns="http://www.w3.org/2000/svg" width="65.332" height="71.4" viewBox="0 0 65.332 71.4">
  <g id="Group_1673" data-name="Group 1673" transform="translate(0.001)">
    <path id="Path_4639" data-name="Path 4639" d="M259.15,90.93c-.9-4.74-3.3-8.16-5.3-11.26a82.465,82.465,0,0,0,1.05-12.6c0-1.5-.1-3.44-.18-4.44h1.02a.987.987,0,0,0,.9-1c-.4-2.6-1.9-9.16-8.5-12.5a22.657,22.657,0,0,0-7.65-2.34,5.606,5.606,0,0,0-3.35-.86c-2.5-.08-6.7.03-10.18,3.24a16.824,16.824,0,0,0-5.82,5.56c-2.5,3.9-4.6,4.3-8.5,6-2.7,1.2-5.2,5.7-4.7,10.9.5,5.6-1.5,7.4-5.8,9.8s-7.5,6-6,14.1,9.7,9.6,14.7,9.4c3.7-.14,5.66-.56,7.18-2.07.22-.06.5-.13.86-.2l-.2.6-2.2,5.7s3.2,4.1,10.8,5.7a37.971,37.971,0,0,0,11,1c1.9-.2,4.2-.6,3-4.1a21.039,21.039,0,0,1-1.18-7.75.035.035,0,0,1,.02.01c2.2,1,5.6,1.7,10.8.5,9.72-2.3,8.92-9.8,8.22-13.4Z" transform="translate(-194.85 -44.89)" fill="#fff"/>
    <path id="Path_4640" data-name="Path 4640" d="M224.8,72.28a3,3,0,1,0,2.9,3A2.957,2.957,0,0,0,224.8,72.28Zm0,5a2,2,0,1,1,1.9-2A1.954,1.954,0,0,1,224.8,77.28Zm14.7-9a4.005,4.005,0,0,1,3.9-1.6.752.752,0,1,0,.1-1.5,5.611,5.611,0,0,0-5.3,2.2.78.78,0,0,0,.2,1A1.089,1.089,0,0,0,239.5,68.28Zm13.44-1.83a.713.713,0,0,0,.97-.18.785.785,0,0,0-.1-1,3.134,3.134,0,0,0-2.8-.7.773.773,0,0,0-.6.9.853.853,0,0,0,.9.6,2.646,2.646,0,0,1,1.63.38Zm-5.34,7.83a.633.633,0,0,0-.1.9,2.573,2.573,0,0,1,.5,1.8.842.842,0,0,1-.9.6.652.652,0,1,0-.1,1.3h.2a2.2,2.2,0,0,0,2.1-1.5,3.972,3.972,0,0,0-.8-3,.633.633,0,0,0-.9-.1Zm-3.5-3.4a.47.47,0,0,0-.5-.5,5.479,5.479,0,0,0-2.38.46,1.04,1.04,0,0,0-.42.38,1.36,1.36,0,0,0-.3.86,1.4,1.4,0,1,0,2.62-.68,4.647,4.647,0,0,1,.48-.02.47.47,0,0,0,.5-.5Zm-.22,11.97a4.628,4.628,0,0,1-4.4-3.3.728.728,0,1,0-1.4.4,6.114,6.114,0,0,0,5.8,4.4.713.713,0,0,0,.7-.8.751.751,0,0,0-.7-.7Zm-5.3-37.9h0l.1-.06Z" transform="translate(-194.85 -44.89)"/>
    <path id="Path_4641" data-name="Path 4641" d="M259.37,90.9c-.08.23-.01,1-.04,2.48a15.809,15.809,0,0,1-.3,2.7,9.222,9.222,0,0,1-1.5,3.43l.04-.15a8.739,8.739,0,0,1-3.18,2.85,21.286,21.286,0,0,1-3.34,1.46c-.42-.1-2.9.57-3.74.52l.08-.03a13.953,13.953,0,0,1-6.36-.74,1.577,1.577,0,0,1,.58.1q-.466-.147-.92-.33l2.3-12.54a11.6,11.6,0,0,0,1.53.11,7.193,7.193,0,0,0,2.12-.3c2.23-.7,6.13-2.93,7.55-9.98a26.653,26.653,0,0,1,1.38,2.36,29.255,29.255,0,0,1,3.85,7.54c.43,1.2.53,1.07.52.4-.02-.35-.08-.85-.17-1.4-.12-.54-.24-1.15-.42-1.7-.16-.55-.33-1.04-.47-1.4l-.23-.58a41.5,41.5,0,0,0-4.12-7.2,84.055,84.055,0,0,0,.86-11.44c0-1.12-.06-2.48-.12-3.52h.06c.1-.01.34,0,.5-.02a1.593,1.593,0,0,0,.96-.47c-.27.27.17-.05.16-.02a1.9,1.9,0,0,0,.46-1.9c-.1-.4-.22-.57-.34-.57-.13-.63-.04-.53.04-.63-.1.03-.28-.5-.42-1l.1.2c-.14-.46-.3-.92-.47-1.36l-.1.33c-.2-.73.17-.27-.12-.94l-.16.07c-.37-.98-.38-1.66-.8-2.62a14.335,14.335,0,0,0-4.46-4.84,32.182,32.182,0,0,0-5.62-2.83l-.13-.18c-.02-.2-1.12-.07-1.23-.25l-.47-.03c-.12-.06-.38-.17-.14-.15a2.054,2.054,0,0,0-.74-.08l-.43-.2a8.519,8.519,0,0,0-.97-.16.943.943,0,0,1-.1-.1,3.968,3.968,0,0,0-.62-.36c.03.15-.2.05-.45-.01l.01-.1c-.96-.1-.3-.35-1.22-.4l-.18.13c-.8.13-.42-.28-1.3-.03.34,0,.15.24-.26.2l.1-.1a2.043,2.043,0,0,1-.45.04c.14-.06.07-.15-.26-.14l.23-.13-.63.2c-.5-.1-1.27.1-1.48-.04,0,0-.27.01-.57.05a1.7,1.7,0,0,0-.73.22c.2-.13-.4-.08-.25-.22a3.586,3.586,0,0,1-1.4.43l.06-.03a13.424,13.424,0,0,0-2.98,1.3c.1.07-.43.34-.22.4-.7.58-1.5.88-1.75,1.32-.67.38-.93.55-1.28.78a11.234,11.234,0,0,0-1,.7,13.039,13.039,0,0,0-3.56,4c.28-.48-.2.16-.2.1a21.042,21.042,0,0,1-1.52,2.13c-.45.55-.8.9-.72,1-1.06.82-.93.56-1.12.6a5.1,5.1,0,0,1-1.93,1.16l.44-.24c-.94.44-1.93.84-2.9,1.28l.66-.06a3.63,3.63,0,0,1-1.04.3c-.1.02-.27-.02-1,.52l.12.13a10.811,10.811,0,0,0-2.27,2.27,10.456,10.456,0,0,0-1.53,2.76,13.85,13.85,0,0,0-.66,3.73,14.963,14.963,0,0,0,.06,1.9c.04.6.1,1.15.1,1.73a7.849,7.849,0,0,1-.56,3.2,6.587,6.587,0,0,1-2.02,2.5,22.894,22.894,0,0,1-2.92,1.9,15.375,15.375,0,0,0-3,2.15,11.671,11.671,0,0,0-2.3,2.88,11.533,11.533,0,0,0-1.2,3.37l-.2.4a.791.791,0,0,0-.1.48q0,.46.03.92a7.235,7.235,0,0,1,.06,1.52c.04.36.1.7.17,1.05-.01.3.03.93-.08.4a9.64,9.64,0,0,0,.34,1.67l.15,1.08a10.363,10.363,0,0,0,2.87,4.95,13.512,13.512,0,0,0,5,2.95,16.141,16.141,0,0,0,4.25,1.03,24.186,24.186,0,0,0,5.17-.03,17,17,0,0,0,2.7-.48,7.121,7.121,0,0,0,2.34-1.16l-1.93,5,.17.22c.14.17,3.4,4.26,11.1,5.88a44.574,44.574,0,0,0,9.08,1.1q1.037,0,2.07-.09c1.28-.13,2.7-.37,3.4-1.45a3.77,3.77,0,0,0,.03-3.3,22.406,22.406,0,0,1-1.17-6.42c.2.08.4.16.6.22a12.155,12.155,0,0,0,2.94.5,3.36,3.36,0,0,0,.9.01,21.64,21.64,0,0,0,6.9-.84s.13-.04.36-.1a8.045,8.045,0,0,0,1-.33,12.084,12.084,0,0,0,3.14-1.7,8.959,8.959,0,0,0,2.9-3.62,10.654,10.654,0,0,0,.84-4.38c-.03-2.68-.7-4.36-.78-3.9Zm-13-1.4c-3.65,1.14-10.2-1.98-12.12-2.97-3.2-1.66-5-3.38-5.44-5.27q-.2-.866-.45-1.72l-.22-.76-.6.52a4.6,4.6,0,0,1-3.03,1.17,5.217,5.217,0,0,1,0-10.4c.08,0,.15.01.22.01a.892.892,0,0,1,.13.05l.24-.01a2.866,2.866,0,0,1,1.24.35c.35.13.65.45.98.6a1.507,1.507,0,0,1,.2.17,4.334,4.334,0,0,0,.4.47,2.462,2.462,0,0,0,.38.35v.03h.02a4.521,4.521,0,0,0,.43.32,3.413,3.413,0,0,0,1.52.57,3.14,3.14,0,0,0,1.59-.23,2.931,2.931,0,0,0,.63-.35,1.919,1.919,0,0,0,.5-.42l.43-.45.33-.47a5.151,5.151,0,0,0,.55-1,6.089,6.089,0,0,0,.28-.6l.16-.56.7-2.4c.57-1.57.98-2.54,1.38-3.54l.15-.38.1-.28.03-.01c.01-.01.01-.01.02-.1a.1.1,0,0,0,.03.06v.02l.01.02.01.01v.01l.06.14a1.84,1.84,0,0,0,1.1,1.16,1.787,1.787,0,0,0,.8.1h.52c.77-.2,2.12,0,3.02-.16l.35.1a2.79,2.79,0,0,1,1-.03l-.02.03c.47-.08,1-.03,1.22-.07l-.02.03h.57l-.1.04a14.918,14.918,0,0,1,2.4-.05l-.06-.13c1.58.14,2.16-.12,3.58.05l-.02.03a8.385,8.385,0,0,1,2.33-.05c.1.01.23.01.34.02.06,1.04.12,2.43.12,3.56q0,1.311-.06,2.62a.5.5,0,0,0-.34-.12,6.086,6.086,0,0,0-2.2.4c-.05.03-.1.07-.15.1a1.331,1.331,0,0,0-.26.21c-.01.01-.02.03-.04.04a1.4,1.4,0,1,0,2.44.93,1.351,1.351,0,0,0-.2-.7c.15-.01.3-.01.4-.01a.52.52,0,0,0,.31-.1,81.65,81.65,0,0,1-1,9.4c-.93,5.12-3.4,8.53-6.95,9.64Zm-3.8-41.63.37.24c.44.14.37-.1.84.1-.05.08.6.27.28.26a15.956,15.956,0,0,1,3.54,1.45c.38-.02.97.45,1.25.45,0,.07,1.23.85.45.52-.07-.03-.17-.1-.15-.12l-.14.03c.58.62,1.3.78,1.9,1.37-.15-.2-.42-.4-.2-.3.2.17.37.36.55.54l-.18-.05a10.374,10.374,0,0,1,.76.86l-.02-.2c.34.46.3.72.82,1.13.25.18-.2-.52.2-.06a20.531,20.531,0,0,1,1.27,2.57c.07-.14.2.1.32.33l-.1.07c.54.9-.06.43.4,1.34l-.1-.06.3.18c.48.82-.05.53.5,1.45-.13-.4.2-.25.26.26l-.13-.1a3.173,3.173,0,0,1,.17.54c-.1-.15-.17-.05-.07.34l-.18-.24.17.36c.06.1.12.3.15.28a.7.7,0,0,1-.12.28.136.136,0,0,1-.22.01.175.175,0,0,1-.05-.01c-.13,0-.3,0-.47-.01a2.8,2.8,0,0,0-.94.1c.27-.1-.47-.14-.26-.26a5.357,5.357,0,0,1-1.8.1l.08-.01c-1.52-.12-2.6.17-3.97.02.06.13-.66.06-.48.22-1.4.16-2.58-.33-3.1.17a4.522,4.522,0,0,1-1.1-.14l.15-.03c-1.2.04-1.55.05-2.45.03-.45.05-.52.28-1.32.23.26-.1-.07-.08-.37-.08.1-.01.16-.02.15-.04a.158.158,0,0,0-.08-.03,1.02,1.02,0,0,1-.15-.04.17.17,0,0,1-.1.06v-.02c-.23,0-.2,0-.1.06-.01.01-.01.03.02.06a.591.591,0,0,1-.3-.4c-.03-.07-.05-.14-.08-.2-.03-.08-.05-.16-.08-.23a.605.605,0,0,1-.04-.3c-.66-1.55-1.2-2.6-1.64-3.5l-.47,1.6c-.1.03.01-.5.18-1.1l-.42,1.32a5.66,5.66,0,0,1,.36-1.32,15.167,15.167,0,0,0-.83,2.43l-.4,1.3a6.278,6.278,0,0,1-.34.85v.27l-.04.06c.05.01.02.3-.02.48-.15.13-.22-.1-.4.5a9.154,9.154,0,0,0-.55,1.94c.13-.32.15-.2.13-.04-.1.3-.25.42-.3.66h-.14c.16-.07-.13.8-.1.93-.15.13.07-.48.02-.58l-.58,1.75c-.1.65.16-.07.18.27a4.038,4.038,0,0,1-.3.75,2.307,2.307,0,0,1-.5.74l.22-.1a2.186,2.186,0,0,1-1.8,1.34,2.332,2.332,0,0,1-1.64-.12c-.12-.07-.24-.15-.35-.23h-.06a2,2,0,0,1-.14-.16,6.332,6.332,0,0,1-.58-.57c-.01-.01-.02-.01-.03-.02,0-.14,0-.3-.01-.48a6.509,6.509,0,0,1-.03-1.13l.02.05c-.03-.14-.04-.34-.05-.42-.01-.1-.01-.2-.01-.28a4.919,4.919,0,0,1,.04-.56,3.132,3.132,0,0,0,.01-1.1.209.209,0,0,1,.1.2c-.03-.52-.07-1.22.07-1.26a27.557,27.557,0,0,0-.08-3.75l.04.06c-.14-.46,0-.58-.04-1.1.02-.03.03-.06.04-.05a10.88,10.88,0,0,1,.05-1.83l.1-.02.07-.97a3.375,3.375,0,0,0-.06.36c-.26-.16.25-.7.2-1.4a1.526,1.526,0,0,0,.03-.3l.65-2.36a1.77,1.77,0,0,0,.26-.6l.1.03c.16-.76.78-1.15.9-1.65.38-.67.55-.2.9-.94l.3-.12c.25-.22.04-.3.36-.5.04.08.4-.25.3-.05.7-.42,1.22-1.2,2.3-1.48.1-.26.65-.34.78-.5.04.06,1.08-.25.5.06-.05.02-.14.05-.14.01l-.04.12c.63.05,1.08-.34,1.72-.4-.2-.01-.44.03-.28-.07l.6-.05-.1.1.9-.02-.13-.1c.44.03.6.2,1.08.05.22-.1-.42-.14.04-.2l3,.4-.22-.35a.51.51,0,0,0,.2.04Zm-2.55-.4c.01.01.02.03.03.04h0l-.01-.01-.02-.03ZM236.36,46.53Zm-4.62.88v.03c1.14-.7,2-.26,3.27-.67-.16.05.08.06.06.1h.02a9.739,9.739,0,0,0-1.48.6c-.72.37-1.38.8-2.03,1.2l-.2-.01c-.18-.1-.46.78-.66.73a3.371,3.371,0,0,0-.19.32c-.1.05-.27.18-.17.02a1.205,1.205,0,0,0-.33.5l-.32.2a11.2,11.2,0,0,0-1.82,3.35,9.375,9.375,0,0,0-.9,3.08,26.967,26.967,0,0,0-.13,3.2c.1,2.4-.7,5.14-.38,7.58-.03.08.03.28.06.28L226.5,69c0-.01.01.04-.03.01s-.13-.06-.23-.1c-.05-.01-.1-.03-.17-.05l-.56-.12a7.063,7.063,0,0,0-2.55-.02c.07-.43.1-.86.1-.86.3-2.36-.03-3.6.14-6.42.35-2.45.67-3.06,1.18-5.5a17.852,17.852,0,0,1,1.2-3.3c.07-.55.76-1.22,1.06-1.8l.24-.1a1.2,1.2,0,0,1,.44-.53l.01.03c.18-.28.48-.5.57-.64l.01.03.3-.25-.03.08a4.318,4.318,0,0,1,1.32-.98l-.1-.1a10.627,10.627,0,0,1,2.3-.96Zm-14.43,55.35-.12-.03a5.733,5.733,0,0,1-2.4,1.13,8.01,8.01,0,0,0,.99-.27c-.12.2-.63.33-1.38.42s-1.72.12-2.78.27c-1.96.1-4.06.57-6.1-.01-1-.12.9.02-.56-.26-.01-.15.68.1.35-.12a14.941,14.941,0,0,1-3.77-1.53v-.13a7.2,7.2,0,0,1-2.42-1.95,12.713,12.713,0,0,1-.8-1.1c-.24-.35-.4-.7-.64-1a4.26,4.26,0,0,1-.57-1.84,13.3,13.3,0,0,0-.4-2c-.01-.32.02-.64.04-.96a9.892,9.892,0,0,1-.2-1.9c.08.07.16-1.43.2-.76a13.828,13.828,0,0,1,.94-3.76,7.887,7.887,0,0,1,2.9-3.36,15.259,15.259,0,0,1,2.46-1.8,10.47,10.47,0,0,0,1.43-.8c.56-.35.9-.56.07.1-.15.1-.42.3-.42.25l-.16.22a8.962,8.962,0,0,0,4.18-4.22c-.28.54-.62,1-.4.54a7.441,7.441,0,0,0,.83-1.95,2.282,2.282,0,0,1-.04.45,10.81,10.81,0,0,0,.5-3.05c-.04.14-.07.27-.12.4a14.113,14.113,0,0,0-.03-3.44c-.1-.66-.16,1.22-.2-.14a12.562,12.562,0,0,1,1.9-6.08c-.2.1.08-.4.42-.87l.13.02c.65-.9.9-.93,1.06-1a1.815,1.815,0,0,0,.35-.15,2.145,2.145,0,0,1,.32-.18,2.18,2.18,0,0,1,.22-.12,4.005,4.005,0,0,0,.36-.18l-.17.15.5-.46c1.97-1.08,1.2-.2,3.4-1.58-.92.47-.53.03.6-.55l-.23.25c.6-.38.78-.56,1.17-.82-.32.3-.07.3.73-.42l-.47.56a11.859,11.859,0,0,0,1.34-1.52,13.37,13.37,0,0,0,1.6-2.04A6.176,6.176,0,0,1,223,53.81l.22-.27q-.214.711-.36,1.44c-.07.47-.13.92-.22,1.4-.1.1-.12-.15-.08-.43q-.079.332-.13.67c-.12-.03.02-.4.05-.6-.38.75-.2,1.68-.5,2.58l.06.2v.02c.05.01.08.23.07.37-.12.12-.24-.05-.3.42a4.775,4.775,0,0,0-.08,1.54c.04-.26.1-.17.12-.05-.02.23-.13.36-.1.54l-.14.01c.14-.08.08.62.13.7-.12.12-.05-.37-.12-.43-.08.94-.04.47-.1,1.4.07.5.14-.08.24.16a6.387,6.387,0,0,1-.04,1.37l.13-.15a5.971,5.971,0,0,1-.1,1.87,14.8,14.8,0,0,0,.5,2.38c-.3.14-.42.3-.23.4a1.288,1.288,0,0,0,.44.13.035.035,0,0,0,.01.02,6.187,6.187,0,0,0-3.7,5.76,6.015,6.015,0,0,0,5.8,6.2c.12,0,.24-.02.36-.03l-6.33,20.7-.76.2a6.223,6.223,0,0,0-.48.44Zm23.62,11.42c-.45.7-1.6.88-2.64,1a37.969,37.969,0,0,1-10.85-1c-6.34-1.33-9.56-4.47-10.33-5.3l2.1-5.45,6.78-22.16a5.646,5.646,0,0,0,1.6-.73c.1.32.17.65.24.96.53,2.22,2.42,4.1,5.96,5.93a33.694,33.694,0,0,0,8.23,3.05l-2.3,12.5c-.03.14-.6,3.5,1.12,8.75a2.979,2.979,0,0,1,.08,2.45Z" transform="translate(-194.85 -44.89)"/>
  </g>
</svg>
