<svg id="Group_1656" data-name="Group 1656" xmlns="http://www.w3.org/2000/svg" width="82.898" height="76.783" viewBox="0 0 82.898 76.783">
  <path id="Path_4598" data-name="Path 4598" d="M252.93,52.36c-3.5-4.5-8.4-7.76-13.4-7.96a19.462,19.462,0,0,0-11.2,2.45c-.06-.06-1.7-1.5-2.3-2.1a2.738,2.738,0,0,0-2.2-.3,6.845,6.845,0,0,0-5.9-3.5c-5.6-.4-9.6.7-13.2,6.7-2.3,3.8-6.1,5.2-11.2,6.5a11.185,11.185,0,0,0-8.6,12.1c.6,7.3,0,11.2-3.9,14.5s-8.7,16.6,5.4,25.3c12.7,7.9,26.2,2.97,30.3-7.93,4-10.5-2.92-17.12-6.32-24.32-4.38-7.05-1.22-16.3,2.67-18.97a1.707,1.707,0,0,1,1.2-.7c-.76,2.3-.04,3.4-.04,3.4l2.4,1.6a29.681,29.681,0,0,0-2.1,6.2c-1.85,12.98,8.24,18.9,10.07,19.85l-5.57,18.2-2.2,5.7s3.2,4.1,10.8,5.7a37.971,37.971,0,0,0,11,1c1.9-.2,4.2-.6,3-4.1-1.7-5.2-1.1-8.5-1.1-8.5l2.4-13a8.534,8.534,0,0,0,3.9-.1c3.2-1,6.2-4,7.3-10a82.219,82.219,0,0,0,1.1-12.9c0-2.13-.22-5.1-.22-5.1l-.82-.2c2.13.2,3.48-.01,3.84-.64.6-.4-1.8-4.6-5.1-8.9ZM228.2,79.8a.109.109,0,0,1,.01.05l-.05-.03a.076.076,0,0,0,.04-.02Zm7.85-16.88c.28-2.72.48-4.7.96-5.25Zm-18.78-5.03c-.01.03-.03.05-.04.08A.3.3,0,0,1,217.27,57.89Zm8.57,23.1a.142.142,0,0,0,.06-.02l-.27.88.2-.86Zm11.68-23.6c1.1-.22,3,1,7.88,2.52C242.65,59.16,238.78,57.83,237.52,57.39Z" transform="translate(-176.049 -39.697)" fill="#fff"/>
  <path id="Path_4599" data-name="Path 4599" d="M258.8,60.16a5,5,0,0,0-.25-.6l-.24-.48-1.07-1.9a31.859,31.859,0,0,0-3.26-4.92,23.985,23.985,0,0,0-4.4-4.36,26.21,26.21,0,0,0-6.47-3.68,13.655,13.655,0,0,0-3.82-.77,14.419,14.419,0,0,0-3.72.15,1.18,1.18,0,0,0-.55.13,20.073,20.073,0,0,0-4.3,1.08,19.232,19.232,0,0,0-2.3,1.03,1.073,1.073,0,0,0-.4-.25c.03-.03-.2-.24-.3-.36-.08-.1-.12-.16.1-.1.02,0,.12.1.1.1l.14-.02a1.347,1.347,0,0,0-.23-.3,1.818,1.818,0,0,0-.23-.15,1.691,1.691,0,0,1-.48-.3c.06.1.18.2.06.2l-.26-.26h.12l-.3-.32c.05.04-.07-.08-.08-.07l-.08-.07c.02.06.02.1.04.17-.3-.33-.47-.6-.92-.57-.2.03.3.25-.1.17a3.471,3.471,0,0,0-1.15-.27,8.046,8.046,0,0,0-.87-1.17,7.829,7.829,0,0,0-2.2-1.66,9.11,9.11,0,0,0-2.35-.74l-1.13-.13-1.04-.04q-1.051-.015-2.1.06a13.086,13.086,0,0,0-4.46,1.13,12.723,12.723,0,0,0-4.4,3.47,19.634,19.634,0,0,0-1.52,2l-.6.9-.52.72a9.9,9.9,0,0,1-2.31,2.11,24.949,24.949,0,0,1-7.1,2.82,14.994,14.994,0,0,0-2.64.86,14.146,14.146,0,0,0-2.5,1.43,11.728,11.728,0,0,0-3.65,4.32,16.8,16.8,0,0,0-.97,3.16,10.946,10.946,0,0,0-.15,3.48l-.06.74a11.464,11.464,0,0,1,.16,2.02l-.03-.04c.12.94.07,2,.1,2.47l-.03-.04-.05,1.13-.03-.2a10.127,10.127,0,0,1-1,4.46l.16-.05a11.936,11.936,0,0,1-2.04,2.85,18.111,18.111,0,0,0-2.54,2.8v-.05a25.05,25.05,0,0,0-1.96,4.7,11.712,11.712,0,0,0-.47,5.14c-.08-.5-.05.22-.08.18.1,1.9.76,3.8,1.02,3.75.43,1.27.28,1.07.25,1.27a10.269,10.269,0,0,1,1.13,1.92l-.25-.4a6.77,6.77,0,0,0,.8,1.27l.87,1.22.3.25c.02.1.05.2.57.75l.1-.13a27.166,27.166,0,0,0,1.9,2.07,11.607,11.607,0,0,0,.92.94l1.13.92a26.414,26.414,0,0,0,5.9,3.13,25.031,25.031,0,0,0,6.6,1.42l.84.07.84-.02,1.67-.05a22.528,22.528,0,0,0,3.27-.54,24.76,24.76,0,0,0,3.1-.96,23.979,23.979,0,0,0,2.82-1.42l.38-.1a2.441,2.441,0,0,0,1-.75,4.137,4.137,0,0,1,1.02-.9,4.912,4.912,0,0,0,.64-.72c.2-.17.64-.56.33-.18a5.618,5.618,0,0,0,1-1.2l.68-.7a16.237,16.237,0,0,0,2.44-4.4c.3-.77.5-1.58.74-2.4a23.212,23.212,0,0,0,.46-2.63,15.88,15.88,0,0,0-1.16-8.55,49,49,0,0,0-4.23-7.62l-1.27-2.1c-.44-.74-.72-1.43-1.18-2.3a12.1,12.1,0,0,1-1.5-4.72,18.316,18.316,0,0,1,1.64-9.58,2.112,2.112,0,0,0,.2-.4l.1-.27a10.425,10.425,0,0,1,1.74-2.18l.52-.4c-.03.1-.1.2-.07.3l-.14.01c.12-.05.14.4.2.45-.1.1-.1-.23-.17-.27a4.424,4.424,0,0,0,.1.94c.17.3.12-.1.27.04a2.692,2.692,0,0,0,.2.43,1.288,1.288,0,0,0,.28.42V57.8a2.007,2.007,0,0,1,.92.67l.54.17a33.05,33.05,0,0,0-1.93,6.3l-.06.23a1.422,1.422,0,0,0-.05.3l-.05.44-.1.83-.14,1.47.03,2.56a16.252,16.252,0,0,0,1.52,5.77,19.473,19.473,0,0,0,4.5,6.22c.5.32,1.08.88,1.74,1.4a11.716,11.716,0,0,0,1,.74l.5.32.6.33.7.5-5.3,17.27-2.3,5.96.17.22c.14.17,3.4,4.26,11.1,5.88a44.574,44.574,0,0,0,9.08,1.1q1.037,0,2.07-.09c1.28-.13,2.7-.37,3.4-1.45a3.77,3.77,0,0,0,.03-3.3c-1.63-5-1.1-8.22-1.08-8.25l2.3-12.53a11.6,11.6,0,0,0,1.53.11,7.193,7.193,0,0,0,2.12-.3c2.27-.7,6.3-3,7.64-10.4a82.808,82.808,0,0,0,1.1-13c0-1.44-.1-3.28-.17-4.32a6.62,6.62,0,0,0,1.4-.08c.15-.03.25-.06.45-.1a2.581,2.581,0,0,0,.54-.23,1.448,1.448,0,0,0,.47-.32,1.667,1.667,0,0,0,.37-.42,1.65,1.65,0,0,0,.06-1.6Zm-42.98-1.53.42.1c0,.05.01.1.01.13l-.02.06-.4-.3Zm-.5-1.8a1.23,1.23,0,0,0-.15-.08c0,.01-.01.01-.02.02a.107.107,0,0,1-.06.02c-.01.06-.07-.08-.1-.18a2.246,2.246,0,0,1-.13-.84,4.209,4.209,0,0,1,.47-1.36q.353-.689.66-1.4c.33-.58.67-1.23,1.04-1.8.03-.37.52-.72.65-1.12l.18-.05a.515.515,0,0,1,.24-.35l.02.03c.06-.2.25-.34.3-.44l.02.03.15-.2v.06a2.359,2.359,0,0,1,.65-.77l-.1-.07c.57-.37.57-.73,1.14-1l.01.03c.37-.75,1.06-.55,1.5-1.22-.06.08.07.04.08.07.28-.2.6-.4.5-.62.23-.1.22-.01.3.06-.05-.1.13-.24.32-.3l-.07.07.52-.22-.17-.16c.3-.04.15.22.4.1l-.05-.17c.42-.07.7.16,1.04.28a2.354,2.354,0,0,1,.83.15l1.22.97a1.526,1.526,0,0,1,.46.4,1.358,1.358,0,0,1-.4.14l-.14-.06c-.1-.05-.04,0-.01.06s.04.15-.04.1l-.1.2c-.07.01-.18.05-.13-.05-.15.1-.14.13-.2.26l-.23.02c-.64.37-1,.93-1.63,1.38a9.537,9.537,0,0,0-2.68,2.52c-.8,1.17-2.5,1.87-3.15,3.25a.175.175,0,0,0-.06.17c-.3.34-.54.72-.8,1.07a5.721,5.721,0,0,0-.5.8,8.357,8.357,0,0,0-.56,1.12.516.516,0,0,0-.07-.06,4.643,4.643,0,0,0-.74-.6,1.718,1.718,0,0,0-.35-.25Zm24.7,46.27c-.03.14-.6,3.5,1.12,8.75a2.93,2.93,0,0,1,.07,2.45c-.45.7-1.6.88-2.64,1a37.969,37.969,0,0,1-10.85-1c-6.34-1.33-9.56-4.47-10.33-5.3l2.1-5.45,6.78-22.16a5.646,5.646,0,0,0,1.6-.73c.1.32.17.65.24.96.53,2.22,2.42,4.1,5.96,5.93a33.694,33.694,0,0,0,8.23,3.05L240,103.1Zm14.63-33.3a.5.5,0,0,0-.34-.12,6.086,6.086,0,0,0-2.2.4c-.05.03-.1.07-.15.1a1.331,1.331,0,0,0-.26.21c-.01.01-.02.03-.04.04a1.4,1.4,0,1,0,2.44.93,1.35,1.35,0,0,0-.2-.7c.15-.01.3-.01.4-.01a.52.52,0,0,0,.31-.1,81.646,81.646,0,0,1-1,9.4c-.93,5.1-3.4,8.5-6.96,9.6-3.64,1.14-10.2-1.98-12.12-2.97-3.2-1.66-5-3.38-5.44-5.27q-.2-.866-.45-1.72l-.22-.76-.6.52a4.532,4.532,0,0,1-3.03,1.17,5.217,5.217,0,0,1,0-10.4,4.638,4.638,0,0,1,3.68,1.87l.08.1.13.05a5.842,5.842,0,0,0,4.57-.17,5.275,5.275,0,0,0,2.38-4l1.8-10.14c1.67.58,6.67,2.3,9.23,2.84l7.84,1.73c.06.86.2,3.06.2,4.7.01.85-.01,1.74-.05,2.64Zm-29.52,2.6a3,3,0,1,0,2.9,3A2.957,2.957,0,0,0,225.13,72.4Zm0,5a2,2,0,1,1,1.9-2A1.954,1.954,0,0,1,225.13,77.4Zm14.7-9a4.005,4.005,0,0,1,3.9-1.6.752.752,0,0,0,.1-1.5,5.611,5.611,0,0,0-5.3,2.2.78.78,0,0,0,.2,1A1.089,1.089,0,0,0,239.83,68.4Zm11.5-3.7a.773.773,0,0,0-.6.9.853.853,0,0,0,.9.6,2.566,2.566,0,0,1,1.63.38.713.713,0,0,0,.97-.18.785.785,0,0,0-.1-1,3.1,3.1,0,0,0-2.8-.7Zm-3.4,9.7a.633.633,0,0,0-.1.9,2.573,2.573,0,0,1,.5,1.8.842.842,0,0,1-.9.6.652.652,0,1,0-.1,1.3h.2a2.2,2.2,0,0,0,2.1-1.5,3.972,3.972,0,0,0-.8-3,.633.633,0,0,0-.9-.1Zm-3.5-3.4a.47.47,0,0,0-.5-.5,5.479,5.479,0,0,0-2.38.46,1.04,1.04,0,0,0-.42.38,1.36,1.36,0,0,0-.3.86,1.4,1.4,0,1,0,2.62-.68,4.647,4.647,0,0,1,.48-.02.47.47,0,0,0,.5-.5Zm-.23,11.97a4.628,4.628,0,0,1-4.4-3.3.728.728,0,1,0-1.4.4,6.114,6.114,0,0,0,5.8,4.4.713.713,0,0,0,.7-.8.751.751,0,0,0-.7-.7Z" transform="translate(-176.049 -39.697)"/>
</svg>
