<svg id="_52" data-name="52" xmlns="http://www.w3.org/2000/svg" xmlns:xlink="http://www.w3.org/1999/xlink" width="43.018" height="73.183" viewBox="0 0 43.018 73.183">
  <defs>
    <linearGradient id="linear-gradient" x1="0.293" y1="0.72" x2="0.656" y2="0.343" gradientUnits="objectBoundingBox">
      <stop offset="0" stop-color="#bc5a32" stop-opacity="0"/>
      <stop offset="0.99" stop-color="#bc5a32"/>
    </linearGradient>
    <linearGradient id="linear-gradient-2" x1="0.5" y1="0.534" x2="0.358" y2="0.027" xlink:href="#linear-gradient"/>
    <linearGradient id="linear-gradient-3" x1="0.456" y1="1.16" x2="0.527" y2="0.094" gradientUnits="objectBoundingBox">
      <stop offset="0" stop-color="#cc7a5e" stop-opacity="0"/>
      <stop offset="0.92" stop-color="#aa5f4b"/>
    </linearGradient>
  </defs>
  <path id="Path_3956" data-name="Path 3956" d="M226.1,79.2l-7.5,24.5-2.2,5.7s3.2,4.1,10.8,5.7a37.971,37.971,0,0,0,11,1c1.9-.2,4.2-.6,3-4.1-1.7-5.2-1.1-8.5-1.1-8.5l2.7-14.7Z" transform="translate(-216.4 -43)" fill="#ea9d7d"/>
  <path id="Path_3957" data-name="Path 3957" d="M225,92.4a26.6,26.6,0,0,0,9.4,8.2,23.925,23.925,0,0,0,6,2.1l2.3-12.2L226.3,79.2l-.9,1.7-.7,2.8c-.3,0-2,5.2.3,8.7Z" transform="translate(-216.4 -43)" fill="url(#linear-gradient)"/>
  <path id="Path_3958" data-name="Path 3958" d="M217,109.5h-.1a.55.55,0,0,1-.3-.5l4.7-14.4c.9-3,3.6-13.1,3.6-13.1a.412.412,0,0,1,.8.2l-3.6,13.1c-.8,2.7-4.7,14.3-4.7,14.3A.366.366,0,0,1,217,109.5Z" transform="translate(-216.4 -43)" fill="#cf7653"/>
  <g id="Group_1604" data-name="Group 1604" transform="translate(8.5 38.7)">
    <path id="Path_3959" data-name="Path 3959" d="M228.9,85l.2.5.4-.5Z" transform="translate(-224.9 -81.7)" fill="#a84d3b"/>
    <path id="Path_3960" data-name="Path 3960" d="M228.9,84.3l-.2.9,1-.1Zm5.4,3.9v1.1l1.1-.5Zm-2.7-1.7-.2,1,1.2-.3Zm-1.5-1.1-.2,1,1.2-.3Z" transform="translate(-224.9 -81.7)" fill="#a84d3b"/>
    <path id="Path_3961" data-name="Path 3961" d="M228.3,83.4l-.5,1H229Zm7.4,7.1-.4-.6-.4.8Zm-1.3-1.1-.6-.7-.3.8Zm4.1,2.2-.7-.8-.3.9Zm2.9,1-.6-.7-.3.8Zm-5.2-3.5-.7-.3v.8Zm1.4,3.1-.5-.6-.4.8Zm-3.9-4.1-.7-.3v.8Z" transform="translate(-224.9 -81.7)" fill="#a84d3b"/>
    <path id="Path_3962" data-name="Path 3962" d="M238.9,90.2l-.9-.4v1.3Zm2,.4-.8-.2.2,1Zm1.2,1.6-.7-.1.3.8Zm-2.7-.3-.4-.6-.5.7Zm2.4,2.3.1-.7-.8.3Zm-.3,1.4.2-.7-.8.2Zm-1.7,0-.4.3.6.3Zm.4-3.9-.4.3.5.3Zm2.2-.7-.5-.1.1.6Zm-1.8,5.7-.4.4.5.2Zm-10-10.4-.4.3.6.3Zm-3.3-4.6-.4.4.5.2Zm10.1,9.5-.3-.3-.2.5Zm-2.9-.8.2-.5-.5.1Zm1.5.9.1-.4h-.5Zm2.1,1.9.2.5.4-.4Zm2.9-1.9-.4.2.5.3Z" transform="translate(-224.9 -81.7)" fill="#a84d3b"/>
    <path id="Path_3963" data-name="Path 3963" d="M241.2,90.7l-.6.4.7.4Zm-1.3.5-.4.2.5.3Zm.4,7.1-.4.2.5.3Zm-1-1.2.1.4.4-.3Zm-.1-2.4.1.4.4-.3Zm1.9,1-.3-.3-.2.5ZM227.2,91l.2.2.2-.4Zm1.8-1.3-.2.2.4.1Zm2.1,3.6-.3-.1v.3Zm-1-1.7-.2.3h.4Zm6.8,3.2v.5l.6-.2Zm-.9-4.6v.5l.6-.2Zm.1-1v.6l.5-.3Zm-7.8-3v.5l.6-.2Zm12,7.3-.4.1.3.4Zm-1.5,4.1-.2-.4-.3.4Zm.4-5.2.2.5.4-.5Zm1.5.6.3.5.4-.5Zm1.1-1.8-.3.3.5.2Zm-.6,3.1-.4-.2v.5Zm-11.3-8.8-.6.4.7.4Zm-2,.7-.3-.2-.1.4Zm-2-1-.3-.2-.1.4Zm-.6,3.1.1-.3H225Z" transform="translate(-224.9 -81.7)" fill="#a84d3b"/>
    <path id="Path_3964" data-name="Path 3964" d="M229.2,86.1l.2.4.3-.4Zm-1.2-1,.2.7.6-.6Zm-.3-2.7-.3.6.8.1Zm3.1,4.9-.3.2.4.2Zm.7-.4-.3.2.4.2Zm.8.4-.3.2.4.2Zm-1.4,2.6-.3-.2-.1.4Zm-6-3.4.2.4.3-.4Zm2.2-2.3-.2.3.3.1ZM227,88l-.3-.2v.4Zm.4-4.2.2.4.3-.4Zm.9.6.2.4.3-.4ZM226,83.3l-.2.3.3.2Zm.4-1-.3-.2-.1.5Zm5.3,5.5v.5l.4-.2Zm1.8.9-.3.1.2.3Zm-.8-.8-.3.1.2.3Zm6.7,3-.3.1.2.3Zm-1.4-.7-.4.1.3.3Zm-4.7.8-.2-.4-.3.4Zm5.6,4.9-.2-.3-.3.3Zm-6.2-6-.2-.3-.2.3Zm2.6-.5v.4l.5-.2Zm1.7.3v.5l.4-.2Zm1.7.9-.3.1.2.4Zm-1.3,2.1-.2-.3-.2.3Zm-4.4-.1V93l.5-.2Zm2-1.1-.4.1.3.3Zm3.4.8-.2-.3-.2.3Z" transform="translate(-224.9 -81.7)" fill="#a84d3b"/>
  </g>
  <path id="Path_3965" data-name="Path 3965" d="M250.4,55.2s2.9,4.7,3.4,6.9a20.1,20.1,0,0,1,.6,4.9,108.518,108.518,0,0,1-.8,13.4c-1,5.7-3.7,9.1-6.9,10.1s-9-1.1-12.9-3.1c-3.3-1.7-5.2-3.5-5.7-5.6-.5-2.2-1.5-5-1.5-5l.2-6.5,7.7-16.4Z" transform="translate(-216.4 -43)" fill="#ea9d7d"/>
  <path id="Path_3966" data-name="Path 3966" d="M230.6,73.3s5.8-6.5,9.5-7.9a37.066,37.066,0,0,1,14-2.6L253,59.3l-20.2-2.7-4.4,12.6Z" transform="translate(-216.4 -43)" fill="url(#linear-gradient-2)"/>
  <ellipse id="Ellipse_587" data-name="Ellipse 587" cx="5.3" cy="5.7" rx="5.3" ry="5.7" transform="translate(2.8 27)" fill="#ea9d7d"/>
  <path id="Path_3967" data-name="Path 3967" d="M224.5,81.8a6,6,0,0,1-5.8-6.1,5.938,5.938,0,0,1,5.8-6.1,6.108,6.108,0,0,1,0,12.2Zm0-11.4a5.316,5.316,0,1,0,4.9,5.3A5.07,5.07,0,0,0,224.5,70.4Z" transform="translate(-216.4 -43)" fill="#b76349"/>
  <ellipse id="Ellipse_588" data-name="Ellipse 588" cx="2.4" cy="2.5" rx="2.4" ry="2.5" transform="translate(5.9 30.2)" fill="url(#linear-gradient-3)"/>
  <path id="Path_3968" data-name="Path 3968" d="M230.3,72.1l-1.7,1.5-.7,5.6.3,1.6a5.288,5.288,0,0,0,2.6-3.9,14.063,14.063,0,0,0-.5-4.8Z" transform="translate(-216.4 -43)" fill="#ea9d7d"/>
  <path id="Path_3969" data-name="Path 3969" d="M243.4,90.9a15.834,15.834,0,0,1-4-.7,26.5,26.5,0,0,1-10-5.5,5.859,5.859,0,0,1-2-4.4c0-.2,0-.5.2-.5s.3.2.4.4a6.25,6.25,0,0,0,1.9,3.9,25.8,25.8,0,0,0,9.6,5.3c3.1.7,3.7.9,6,.7A7.836,7.836,0,0,0,249,89c.3-.2.6-.3.4,0a8.048,8.048,0,0,1-3.8,1.8,17.733,17.733,0,0,1-2.2.1Z" transform="translate(-216.4 -43)" fill="#b76349"/>
  <g id="Group_1605" data-name="Group 1605" transform="translate(17.9 21.9)">
    <path id="Path_3970" data-name="Path 3970" d="M243.8,75.8l.7-.6-.9-.3Zm-8.8-.4-.2-.5-.5.5Zm11.6,1,1,.6.1-1.2ZM244,71.3l1.3.8.2-1.6Z" transform="translate(-234.3 -64.9)" fill="#f4b9a6"/>
    <path id="Path_3971" data-name="Path 3971" d="M244,70.5l1.3-.8-1.3-1Zm3,8.9,1.3-.8-1.3-.9Zm1.3-1.6.5-1.4h-1.7Zm-4.8-2.9-.8.2.5.7Zm.6-1.1-.9.2.6.7Zm-.2,4.3.3.8.7-.7Zm.4,1.5.7.4.2-.8Zm4.1,2.4-.8.3.6.7Zm-3.3-17.1-.3.7.9-.1Zm.8,5-.7-.1.3.7Zm.7-2.5-.7-.1.2.7Zm-5.8,1.4-.1.9.9-.4Zm1.9-1.4-.7.5.8.5Zm-3.3,1.2h-.5l.3.5ZM247,82.1l-.7.2.5.5Zm-.8-.5-.7.2.5.6Zm-6-4.4-.7.1.4.7Zm1.7,1.3-.7.2.4.6ZM239.6,75l-.1.6.8-.2Zm3.6-.8-.3-.6-.5.6Zm7.3,5.8.4-.4-.7-.1Zm-2.8-2,.4.1v-.5Zm4.5-4.6v.4l.4-.2Zm-2.1,2.2.5.1-.2-.5Z" transform="translate(-234.3 -64.9)" fill="#f4b9a6"/>
    <path id="Path_3972" data-name="Path 3972" d="M252.4,74.1l.1-.4-.5.1Zm-14.6-3.8-.3.5h.6Zm6.5-3.2.9-.2-.7-.7Zm.9,10.3,1.8-.5-1.5-1.5Zm-1.4-6.8-.7-.1.1.7Zm-5.2,4.8v-.6l-.8.3Zm4-6.8.1.9.8-.6Zm-1.1,1.5.1.8.8-.4Zm.9-.6.1.9.8-.5Zm7.5-.9.7.3v-.8Zm-6,4.3-.4-.5-.5.7Zm3.4,8.3-.7.2.5.6Zm-3.1-4.3-.2.5h.7Zm.7,3.5-.3-.5-.3.6Zm1,.5.4-.4-.6-.2Zm.3-1.3.5-.4-.7-.3Z" transform="translate(-234.3 -64.9)" fill="#f4b9a6"/>
    <path id="Path_3973" data-name="Path 3973" d="M246.1,78.9l.6-.5-.8-.3Zm-.4-3.1.5-.4-.7-.3Zm-1.4.3.5.3.2-.5Zm6,4.7-.6.1.4.5Zm-3.2-5.6-.2.5.7-.1Zm1.6,6.1-.4-.5-.3.6Zm-3.5,2,.1.7.6-.5Zm-1.8-3.2-.5.2.5.4Zm-6.2-6.7-.4-.5-.3.7Zm6.7,8.1.4.2.1-.6Zm-1.8-1,.4.2.1-.7Zm-3.2.7-.2.6.7-.1Zm2.2,2.2h-.6l.2.6Zm-2.1.8-.5-.1.1.6Zm5.7-9.4,1.2-.3-1-1Zm-.9-2.8.3.5.4-.5Zm.1,1.1.6.9.8-1.1Zm3.4-2-.8.7,1.2.4Zm-7.4,2v-.6l-.6.3Zm6.3-.5-.4.4.6.2Zm-2.3-3.5.7-.1-.5-.6Zm4.5,1.6.7-.2-.6-.6Zm-4.9,0,.8-.2-.6-.5Zm5-3.3.7-.2-.5-.6Zm-2.4-1.6-.5.4.7.2Zm-5.5,2.1v-.6l-.6.3Zm.8,8.8-.1.8.9-.3Zm-1.1-.3-.7.1.4.6Zm1.5,3-.1.8.8-.3Zm1-2.9v.8l.9-.5Zm-.7,1.5.1.8.8-.5Zm-.9-2.2v-.6l-.6.3Z" transform="translate(-234.3 -64.9)" fill="#f4b9a6"/>
    <path id="Path_3974" data-name="Path 3974" d="M250.1,71l.7-.2-.6-.6Zm-2.6-2.3.3.4.4-.5Zm5.2,8,.6-.3-.5-.4Zm-10.8-8.9v-.6l-.6.3Zm4.2,1.2v.7l.8-.2Zm-.8-1.3-.1.7.8-.3Zm.5,6.7,1.2.8.4-1.5Zm2.9,0L250,74l-.9-1.2Zm-3.2.7.4.1-.1-.5Zm-.6-2.8-.2.5h.7Zm1.2-1.5-.7.1.4.6Zm2.2.3-.7.1.4.6Z" transform="translate(-234.3 -64.9)" fill="#f4b9a6"/>
    <path id="Path_3975" data-name="Path 3975" d="M245.6,72.1l1.5-.8-1.6-1Zm2.2-5.7.4-.8h-1Zm-1.1,11.4.3-.7h-.9ZM245.4,74l1.3-.7-1.4-.9Zm.8-5.9.5.4.2-.6Zm1.6,1.1-.7,1.1,1.5.1Zm1-1.4-.3.4.7.1Zm.7,4.3.4.4.2-.6Zm-1.9-4.9-.3.4.7.1Zm-8.9,5.9-.7.2.6.6Zm1-3-.3.6h.8Zm1.5,0-.1-.6-.5.5Zm-.8,3.2-.1-.6-.6.5Z" transform="translate(-234.3 -64.9)" fill="#f4b9a6"/>
  </g>
  <g id="Group_1606" data-name="Group 1606" transform="translate(16.9 14.6)">
    <path id="Path_3976" data-name="Path 3976" d="M243.2,61.1l-.1.5h.4Zm.2,1.3-.3-.4-.1.5Zm3.9-.7-.3-.3-.2.4Zm3.4-.9.3.3.2-.5Zm1.8-.5.3.3.1-.5Zm-.6.6.4-.1-.3-.4Zm-7.5.8-.3-.3-.2.4Zm4.7-.3-.4-.3-.1.5Zm-6.5.5-.3-.4-.2.5Zm-9.3-4.3v1.1l1-.6Zm6.2,2.7-.2.5.6-.1Zm-4.1-1.5v.5l.5-.2Zm-.2,1.9-.1.5.6-.2Zm.5,1.1.1.6.5-.4Zm4.8-.8-.4-.3-.2.4Zm.3-.4.1.7.7-.5Z" transform="translate(-233.3 -57.6)" fill="#a84d3b"/>
    <path id="Path_3977" data-name="Path 3977" d="M246.1,61.2l.3.4.4-.5Zm-3.7-.2.3.5.4-.5Zm-5.6-1,.2.8.7-.6Zm10.8,1.1.3.5.4-.6Zm-3.1,0,.2.7.7-.5Zm-6.2-.5.2.4.4-.3Zm-1.8,1.8-.1.5.5-.2Zm-.5.4-.1.4.5-.1Zm3.5-1.9.2.2.1-.2Zm2.2.3.2.2.2-.3Zm3.8.3.1.2.2-.2Zm-10,1.6-.3.1.2.2Zm.3-4.1.1.7.8-.4Zm-.1,3.6-.4.1.3.3Z" transform="translate(-233.3 -57.6)" fill="#a84d3b"/>
    <path id="Path_3978" data-name="Path 3978" d="M235.4,62.7l-.1-.5-.5.4Zm.5-3,.4.2v-.5Zm2.9.8.4.1-.1-.5Zm-3.9-1.2v.3l.4-.1Zm.9,1.2.4.1-.1-.5Zm-.1,3.6v.3l.3-.1Zm-.9-3.8-.4.1.3.3Zm.1,2.8v.7l.7-.4Z" transform="translate(-233.3 -57.6)" fill="#a84d3b"/>
    <path id="Path_3979" data-name="Path 3979" d="M235.1,64.2l.4-.3-.5-.2Zm0-3.9.3-.3-.4-.1Zm-.6,1.1.4-.3-.6-.3Zm2.3-.3.3.2.1-.4Zm-1.7,4.2.4-.2-.4-.3ZM234,67.5l.4-.2L234,67Zm.6-9.3.1.8.7-.2Zm-.9,1.7.3.3.2-.5Zm4-.2.2.9.8-.5Zm-3.7-.4.3.3.2-.4Zm6.2,2.3.5.2-.1-.5Zm9.5-.3.4.2V61Zm-14.9,1,.7-.3-.7-.6Zm-.6-4.1-.4.7.8.1Z" transform="translate(-233.3 -57.6)" fill="#a84d3b"/>
    <path id="Path_3980" data-name="Path 3980" d="M236.2,61.3l-.4-.1.1.4Zm-2.4-2.4-.4.2.4.3Zm3.6.8-.1.4.4-.1Zm-2.6.4-.7-.3v.8Z" transform="translate(-233.3 -57.6)" fill="#a84d3b"/>
    <path id="Path_3981" data-name="Path 3981" d="M235.3,59h-.4l.2.4Zm-1.5.3-.1.3.4-.1Zm3.3.4-.5-.4-.1.7Z" transform="translate(-233.3 -57.6)" fill="#a84d3b"/>
  </g>
  <g id="Group_1607" data-name="Group 1607" transform="translate(6 30.2)">
    <path id="Path_3982" data-name="Path 3982" d="M227,76.2v-.4l-.4.1Zm-1.7-2.9-.5.1.3.4Z" transform="translate(-222.4 -73.2)" fill="#964c38"/>
    <path id="Path_3983" data-name="Path 3983" d="M225.2,73.4l-.5.6.8.2Zm-.9-.1-.6.2.5.5Zm2.6,1.4-.3.3.4.1Zm-.9-.4-.3.3.4.1Z" transform="translate(-222.4 -73.2)" fill="#964c38"/>
    <path id="Path_3984" data-name="Path 3984" d="M226.6,75l-.2.3.4.1Zm-2.2-.9-.3.3.4.1Z" transform="translate(-222.4 -73.2)" fill="#964c38"/>
    <path id="Path_3985" data-name="Path 3985" d="M223.9,73.9l-.4.4.7.3Zm1.6,1.8.3.1.1-.3Zm1.2-1.3-.1.2h.3Zm.2,1-.1.2h.3Z" transform="translate(-222.4 -73.2)" fill="#964c38"/>
    <path id="Path_3986" data-name="Path 3986" d="M223.3,73.7l-.4.4.6.2Zm.8,1.6h-.2l.1.2Zm.6.8-.1-.2-.2.1Zm.7-2.4.3-.3-.4-.1Zm-1.1,0-.3.2.4.1Zm-.5.2-.3-.1v.4Z" transform="translate(-222.4 -73.2)" fill="#964c38"/>
    <path id="Path_3987" data-name="Path 3987" d="M223.8,73.9v-.3l-.3.1Zm2.4.5.2.3.2-.4Zm-.4-.9-.1.7.7-.2Z" transform="translate(-222.4 -73.2)" fill="#964c38"/>
    <path id="Path_3988" data-name="Path 3988" d="M225.5,73.9l.3.3.1-.4Zm-2.4,1-.2.3h.3Zm1.8-1.6-.3-.1v.3Zm-.6,1.8.2.2.2-.3Zm.8,1.2-.2.3.4.1ZM223,74.2l-.2.3h.4Z" transform="translate(-222.4 -73.2)" fill="#964c38"/>
    <path id="Path_3989" data-name="Path 3989" d="M223.9,76.3l-.3-.1.1.4Zm-1.1-1.6h.3l-.2-.3Z" transform="translate(-222.4 -73.2)" fill="#964c38"/>
    <path id="Path_3990" data-name="Path 3990" d="M222.5,75.9l.2-.1-.1-.3Zm.2-1.1h.2l-.1-.3Zm.7-.3v.3l.3-.2Zm-1,.9h.4l-.2-.4Zm.6.1v.3l.3-.2Zm2-1.2-.3.1.3.3Zm1.4,1.5.1.3.3-.2Zm-2-2.2.1.3.3-.2Zm1,1.1-.2-.3-.1.4Z" transform="translate(-222.4 -73.2)" fill="#964c38"/>
  </g>
  <path id="Path_3991" data-name="Path 3991" d="M238.3,68.1a.6.6,0,0,1-.4-.1.775.775,0,0,1-.2-1,5.812,5.812,0,0,1,5.3-2.2.752.752,0,0,1-.1,1.5,4.073,4.073,0,0,0-3.9,1.6,2.544,2.544,0,0,1-.7.2ZM253.1,66a.6.6,0,0,1-.4-.1,2.708,2.708,0,0,0-2.1-.2.728.728,0,0,1-.4-1.4,4.149,4.149,0,0,1,3.3.4.775.775,0,0,1,.2,1,.864.864,0,0,1-.6.3Z" transform="translate(-216.4 -43)" fill="#af361a"/>
  <g id="Group_1608" data-name="Group 1608" transform="translate(24.1 26.9)">
    <circle id="Ellipse_589" data-name="Ellipse 589" cx="1.4" cy="1.4" r="1.4" transform="translate(0 0.7)" fill="#4f2b23"/>
    <circle id="Ellipse_590" data-name="Ellipse 590" cx="1.4" cy="1.4" r="1.4" transform="translate(10.4)" fill="#4f2b23"/>
  </g>
  <path id="Path_3992" data-name="Path 3992" d="M247.7,80.5a.73.73,0,0,1-.7-.6.641.641,0,0,1,.6-.8s1.1-.2,1.2-1.1-.8-3.4-1.3-4.7a.7.7,0,1,1,1.3-.5c.2.4,1.5,3.8,1.4,5.4a2.747,2.747,0,0,1-2.3,2.4.31.31,0,0,0-.2-.1Z" transform="translate(-216.4 -43)" fill="#b4603f"/>
  <path id="Path_3993" data-name="Path 3993" d="M244.3,84.7h0a6.1,6.1,0,0,1-5.8-4.4.728.728,0,0,1,1.4-.4,4.6,4.6,0,0,0,4.4,3.3.751.751,0,0,1,.7.7.713.713,0,0,1-.7.8Z" transform="translate(-216.4 -43)" fill="#cf7653"/>
  <g id="Group_1609" data-name="Group 1609" transform="translate(14.16 24)">
    <path id="Path_3994" data-name="Path 3994" d="M242.8,80.2c-2.8,0-5-3-5-6.6s2.3-6.6,5-6.6,5,3,5,6.6S245.5,80.2,242.8,80.2Zm0-12.2c-2.2,0-4,2.5-4,5.6s1.8,5.6,4,5.6,4-2.5,4-5.6S245,68,242.8,68Z" transform="translate(-230.56 -67)" fill="#fff"/>
    <path id="Path_3995" data-name="Path 3995" d="M247.5,72.2l-.9-.5a2.108,2.108,0,0,1,1.6-1,2.279,2.279,0,0,1,1.7.6l-.6.8a1.986,1.986,0,0,0-1.1-.4C247.8,71.6,247.5,72.2,247.5,72.2Zm-16.94-.26.17-1,7.5,1.3-.17,1Z" transform="translate(-230.56 -67)" fill="#fff"/>
  </g>
  <path id="Path_3996" data-name="Path 3996" d="M227.8,48.5s-5-2-9,5c-4.4,7.8,1.3,18.1,1.3,18.1a5.231,5.231,0,0,1,5-2c2.7.4,3.5,1.9,4.3,2.8.8.8,4,.1,5.1-3.6.8-2.9.8-5.7-.2-7.7s-1.9-4.3-.5-3.3a17.54,17.54,0,0,0,7.5,2.9c3.7.6,10.8,1.2,14.4-1.9,3.6-3,3.8-5.6,3.7-7.7a5.546,5.546,0,0,0-1.2-3.3,11.924,11.924,0,0,1-3,1.2c-1,.1-1.8.2-1.7-1.1.2-3-1.5-4-1.5-4a6.933,6.933,0,0,1-1.5,1.4,4.406,4.406,0,0,1-4.4.5c-2.2-.7-4.5-2.7-9-2.8a11.838,11.838,0,0,0-9.3,5.5Z" transform="translate(-216.4 -43)" fill="#c94112"/>
  <g id="Group_1610" data-name="Group 1610" transform="translate(0.9 0.2)">
    <path id="Path_3997" data-name="Path 3997" d="M248.8,46.2l1,.8.3-1.3-.7.3Zm-9.6-2.8.4,1.2,1-.9Zm12.8.7-.6.8,1,.1Zm-3.9,3.5-1.1.8,1.1.8Zm-3.5-1.5-.3.5.7.1Zm-8.5-2.3-.4.7.9.2Zm.9.8-.3.8.8.1Zm-1.9.4.9,1,.8-1.3Z" transform="translate(-217.3 -43.2)" fill="#ff593e"/>
    <path id="Path_3998" data-name="Path 3998" d="M238.5,45.1l-1.1.1.5,1.1Zm-4.4-.9,1,.8.3-1.3ZM249.6,49l-.4.3.4.3ZM246,46.9l-.4.3.5.3Zm.9,1.1.4-.5-.7-.2Zm5,.6-.4.3.5.2Zm-1.3-1.2-.5-.5-.3.8Zm2.1-1.7-.5-.5-.3.9Z" transform="translate(-217.3 -43.2)" fill="#ff593e"/>
    <path id="Path_3999" data-name="Path 3999" d="M247,48.5l-.6-.5-.3.9Zm2.3-.3-.5-.5-.3.9Zm-2.3-1-.5-.5-.3.8Zm-.9-.4.4-.7-.9-.1Zm-2.6-1.6-.6-.6-.3.9Zm1.3.7-.6-.5-.2.8Zm-6.2-2-.7-.6-.3,1Zm-1.8.6.7-.7-1-.4Zm4.5-.3-.5-.5-.3.9Zm-3-.1.7.8.6-1.1Z" transform="translate(-217.3 -43.2)" fill="#ff593e"/>
    <path id="Path_4000" data-name="Path 4000" d="M237.6,44.4l.6.9.6-1.2Zm.8.6.2,1,1-.7ZM251,46.2l-.1-.9-.8.5Zm-4.5.1.4,1,.8-.8Zm-1.8-.8.3,1.1.8-.7Zm-1.3-.7.2,1.1.9-.6Zm-8.5-1.5.7.8.6-.9Zm4.2.1-.7-.2.1.7Z" transform="translate(-217.3 -43.2)" fill="#ff593e"/>
    <path id="Path_4001" data-name="Path 4001" d="M236.9,43.4l-.7-.2.1.8Zm-1.8.2h-.7l.4.7Zm13.6,7.8-.3.3.4.2Zm2.1-1.2-.3-.2-.1.4Zm-.7-1.7.2.5.3-.4Zm-4.8-2,.2.5.3-.5Zm3.9,3.5-.3.3.4.1Zm-10.7.1-.3.3.4.1Zm10.6-3.6-.7.6.9.5Zm-.9,4.4-.4-.2v.4Zm.3-1,.3.1-.1-.4Zm-2.7-.1.6.1-.2-.7Z" transform="translate(-217.3 -43.2)" fill="#ff593e"/>
    <path id="Path_4002" data-name="Path 4002" d="M248.4,47.1l.3-.8-1,.1Zm-3,3.2v.4l.4-.1Zm2.2-2.6.4-.6-.8-.2ZM242,45.1l.4-.6-.9-.3ZM237.6,44l.4-.6-.9-.1Zm12,7.5v.4l.4-.1Zm-2.3,0-.5.1.3.3Zm-7.2.7-.5.1.3.4Zm6,.2h-.4l.2.4Zm5-4.8.3.5.3-.6Zm-6.8,4.2.3-.5H244Zm-3-7.7-.9.1.5.9Zm4.8,4.1.4-.8h-1Zm-6,.4-.8.5.8.5Zm2.9,1.3-.7.4.7.4Zm-2.7.6.2.3.2-.4Z" transform="translate(-217.3 -43.2)" fill="#ff593e"/>
    <path id="Path_4003" data-name="Path 4003" d="M238.6,48l-.2.3h.4Zm3.3,2.9-.3-.1v.3Zm-1.1-1.6-.3.5.7.1Zm2.5,3.7-.3-.1.1.4Zm-5.4-6.9-.2,1,1.1-.4Zm-.9,4,.2.8.7-.6Zm5.6-5.3-1.2.6,1,.9.4-.6Zm-1,1.3-.8.4.7.7.3-.6Z" transform="translate(-217.3 -43.2)" fill="#ff593e"/>
    <path id="Path_4004" data-name="Path 4004" d="M241.7,47.4,241,47l-.6.1.2,1.4Zm-5.2,2.7-.9.5,1,.5Zm5.5-4.5-1.6-.2.6,1.3Zm-1.4-.9-.6-.2-.7.2.6,1Zm5.1,2.3-1.3-.3.2,1.4Z" transform="translate(-217.3 -43.2)" fill="#ff593e"/>
    <path id="Path_4005" data-name="Path 4005" d="M246.2,47.9l-1.3-.3.2,1.4Z" transform="translate(-217.3 -43.2)" fill="#ff593e"/>
    <path id="Path_4006" data-name="Path 4006" d="M245.5,49.2l-.5-.8-.6.9Zm-5.7-2-.7-1-.6.5-.2.6Zm-1.1.8-.9-.5-.2,1.2Zm-1-1.4-.7-1-.8,1.2Zm6.1,3,.4-.9-1.2-.1Zm-2.1.1.9-.4-.7-.8Zm8.5-2.9.7-.2-.6-.6ZM236,50l.9-.3-.7-.8Z" transform="translate(-217.3 -43.2)" fill="#ff593e"/>
    <path id="Path_4007" data-name="Path 4007" d="M232.1,49.8l.7-.3-.5-.6ZM251,45.2l.5.5.3-.8Zm-9.6,3.9-.2-.9-.9.6Zm-.1-2.9-1.3-.4.2,1.4Zm3,.2-1.3-.3.2,1.4Zm-.3,1.5-1.2-.3.1,1.4Zm-1.5-.2-.7.4.6.6Zm-2.9,2.8-.3-.3-.1.4Z" transform="translate(-217.3 -43.2)" fill="#ff593e"/>
    <path id="Path_4008" data-name="Path 4008" d="M239,49.3l-.5-.6-.3.9Zm2.3-1.1.2.5.4-.5Zm1.8-2.5-.1.5.5-.2Zm1.4,2.6-.3-.8-.7.7Zm-3.8-.7-.8-.3v1Z" transform="translate(-217.3 -43.2)" fill="#ff593e"/>
    <path id="Path_4009" data-name="Path 4009" d="M239.9,47.7l-.8-.4v1Zm-1.8-.9-.7-.3v.9Zm5.9.5-.1-.3-.4.3Zm1.1,3.8v.5l.5-.2Zm-1.6.7h-.4l.2.4Zm.5-1.5v.4l.5-.2Zm-1.2-1.9.1-.5-.6.1Zm.2-1.9-.9.2-.1.4,1,.7Zm-.4-.3-.3.3h.4Zm.8,2.2-.2.3h.5ZM241.7,50l-.2.4h.4Zm2.8-3.4-.2-.2-.2.4Zm3.3,3.1.1-.5-.5.1Zm-.9,1.1.1-.4h-.5Zm-9.5,1.4.1-.5-.5.1Zm9.2-3.6.1.6.6-.4Z" transform="translate(-217.3 -43.2)" fill="#ff593e"/>
    <path id="Path_4010" data-name="Path 4010" d="M238.7,46l.6.7.4-1Zm4.7,1.1.1.5.5-.3Zm3.6,2.7-.2-.3-.2.4Zm-10.4,3-.3-.3-.2.4Zm6.8-3.2-.4.1.4.3Zm-.6-.4-.1-.4-.3.3Zm-21.9,1.5,1.4.5-.1-1.7Zm14.7.2-.5.1.3.4Zm-3.3-3.1-1.1.2.8,1Zm-2.9,2.8-.3-.4-.3.4Zm3.8.7-.3-.6-.5.5Zm-8.3-1.1v1l1.1-.4Zm9.1-4.1v1l1-.4Zm1.8-.1-.1.6.7-.3Zm-.2,1.2v.6l.6-.2Zm-17,6.9-.6,1.5,1.4-.1Zm-.7,1.6-.3,1.3,1.2-.6Zm2.8,1.9v.6l.6-.2Zm-1.4-.1V58l.6-.2Zm9.1-9.7-.4.8h1Zm-1.7,3.1-.2-.4-.4.4Zm-.3.9L226,51l-.6.7Zm6.9-3.4-.4.9H234ZM231,50.8v.5l.5-.2Z" transform="translate(-217.3 -43.2)" fill="#ff593e"/>
    <path id="Path_4011" data-name="Path 4011" d="M223.3,55.1v.4l.5-.1Zm-.4,2.6-.5-.1.1.5Zm-2.6-2-.1,1.1,1-.4Zm-1.5,0v1.1l1-.4Zm1.1,3.2-.1.5.6-.2Zm16.4-12.1-.1,1.3,1.5-.5Zm-2.2,1.4,1.1.4-.1-1.4Zm-1.6-1.9,1,.4-.1-1.2Zm3.2.1-.8.1.5.8ZM221.9,57.2h.4l-.1-.4Zm.4-2.3v.3l.3-.2Zm4.3.8-.3.2.3.2Zm-4.5,3.7-.3.2.3.2Zm-1.6,1.1-.2.2.3.2Zm4-5.1.1.3.3-.3Zm-1.8.6.2.5.4-.5Zm4.4-.8-.2.1.3.2Zm8.1-6.1-.4-.4-.2.6Zm16.5-2.2.5.4.1-.6Zm3.1,2.4.6.9.6-1-.7.1Zm3.4-1.3-.8.6.9.4Zm-3.6,4.2-.5.1.4.4Zm2.4.1-.5.2.4.4Zm-.9-1.4-.4-.7-.5.8Zm2.4-1.1-.4-.6-.5.7Zm-3.9,1.5-.4-.6-.5.7Zm-1-1.7-.4-.7-.4.8Zm3.3,0v-.9l-.9.4Zm-1.5,4-.2-.3-.2.4Zm-.1-1.8v.5l.5-.3ZM254,53l-.4.2.4.3Zm.6-3.7-1,.1.5.9Z" transform="translate(-217.3 -43.2)" fill="#ff593e"/>
    <path id="Path_4012" data-name="Path 4012" d="M253.3,52.7l.3.2v-.4Zm-.1-2.2.3.2v-.5Zm3.2.7.2.6.4-.6Zm-.6-1,.7-.1-.4-.7Zm1.1-1.4.4.6.5-.6Zm.3,1.9.4.5.3-.6Zm-30-2.3.1.9,1-.5Zm-6.1,5,.3.5.3-.5Zm-1-.7.4.8.6-.9Zm.3-1.4.7.7.3-1.1Zm11-4.9-.2.4.5.1Zm-.6-.2-.2.5h.5Zm5.3,2.1-1-.2.3,1.1Zm-.7,1.3-.8-.2.2,1Zm10.1.1-.9-.2.3,1Zm-14.1-3.5.5-.7-1.1-.2Z" transform="translate(-217.3 -43.2)" fill="#ff593e"/>
    <path id="Path_4013" data-name="Path 4013" d="M231.5,47.3l-.6-.7-.4,1Zm-.6-.9-.3-.9-.8.7Zm-.8,1,.5-.8-1-.2Zm3.3-1.3.5.1-.1-.6Zm-.9.1-.8-.3.1.9Zm-.9-1.3.1.6.6-.3Zm3.6.1-1.2.5,1,1ZM219.9,58.1v.4l.5-.1Zm1.2-4.8h-.4l.2.4Zm-2.4,6.1-.4.1.3.3Zm.6-.5-.1-.4-.3.4Zm0-4.1.9.6.2-1.2Zm3.6-1.8.4.1v-.5Zm-2.7-1.5-.5.8,1.1.2Zm1.3,3.8-.1.7.8-.3Zm.9-3.7-.8-.1.2.9Zm1.3,2.1-.9.1.5.8Zm-1.2-1.2-.9.1.6.8Zm2.1-2.2-.8.1.5.8Zm-5.9,3.5,1.4.2-.5-1.6Zm-1.1,3.4-.3,1.2,1.5-.3Zm4.2-.9-.6.2.5.6Zm-2.5.7.7.2-.1-.8Zm1.2,1.9v.4l.4-.2Zm-1.2.9-.3.1.2.3Zm8.7-9.3-.5.4.6.3Zm-.8-1.1-.5.3.6.4Zm-2-.3-.8.6,1,.5Z" transform="translate(-217.3 -43.2)" fill="#ff593e"/>
    <path id="Path_4014" data-name="Path 4014" d="M228.6,48.9l-.4.3.4.3Zm-2.1,1.8-.4.3.5.3Zm1.1-.2.3.3.2-.4Zm-6.9,3.7.3.7.6-.6Zm3.1-1.7.2.3.2-.4Zm7.2-3.6.2.3.2-.4Zm-1.4.2.2.2.2-.3Zm-.4-.8.4.4.3-.6ZM224,51.4l.2.3.2-.4Zm3.1-1.2-.4.3.5.3Zm-.8,0,.3-.6h-.8Zm-.7-1,.3-.9h-1.1Zm2.4.8-.3-.2-.1.4Zm-1.1,1.2-.3.2.4.2Zm-1.5-.3-.3-.3-.1.5ZM219,60.8l.3-.3-.4-.2Zm-1.3,1.8.2-.2-.3-.2Zm.3-1.4.3-.3-.4-.1Zm-.3,2.1.3.3.1-.5Zm.5-1.1.5-.2-.5-.3Z" transform="translate(-217.3 -43.2)" fill="#ff593e"/>
    <path id="Path_4015" data-name="Path 4015" d="M219.3,61.8l.4-.2-.4-.3Zm-1.9-2.9.5.5.3-.7Zm.4.6-.5.8,1.2.1Zm-.5,1.2v.9l.7-.4Zm.4,2-.2.3.4.1Zm5.2-11,.6.5.3-.9Z" transform="translate(-217.3 -43.2)" fill="#ff593e"/>
    <path id="Path_4016" data-name="Path 4016" d="M223,49.1l-.4.9,1,.1Zm.7,1.9-.2.3.5.1Zm-.7-.5-.3.6.8.1Zm3.5,1.6-.7-.2.2.8Zm-3.3,0-.6-.1.1.7Zm11-4.4-.8-.2.2.9Zm-1.4-.3.5.2V47Zm.3-3.4.9.8.3-1.2Zm-1.2,2.9-.1.9.9-.3Zm0-2.2.8.7.4-1.1Zm-3.2,2.9,1,.2-.3-1.1Zm4.3.5-.5-.1.1.5Z" transform="translate(-217.3 -43.2)" fill="#ff593e"/>
    <path id="Path_4017" data-name="Path 4017" d="M232,50.5l-.3-.1.1.5Zm-7,1.6-.3-.1.1.5Zm1.1-3.8.4.8.6-.8Zm6.8-3.6.7.6.3-.9Zm-9.6,4.2.9.8.4-1.3Zm3.6,4.4.3.4.2-.6Zm6.7-3.2.4.3.2-.4Zm-3.7-1.7.3.6.5-.5Zm1-.8-.4.5.7.1Zm-1.1-.3.3.6.5-.6Zm-.9.6.3.6.5-.5Zm.3,1.7-.4-.1.1.4Zm1.6.5-.4-.1.1.5Zm-3.4,3.6.3.3.2-.5Zm-.1-1.4-.1.3.4.1Zm-1.9-.6-.2-.4-.4.4Z" transform="translate(-217.3 -43.2)" fill="#ff593e"/>
    <path id="Path_4018" data-name="Path 4018" d="M225.9,54v.5l.5-.2Zm-.9-2.2-.4.4.5.3Z" transform="translate(-217.3 -43.2)" fill="#ff593e"/>
    <path id="Path_4019" data-name="Path 4019" d="M224.7,51.8l.2.3.2-.4Zm-2.2,1.7-.6.4.8.3Zm1.5.4.4.3.1-.5Zm2.1-1.1.4.3.1-.5ZM224.4,55l.3.3.2-.5Zm.5-2.3-.2.3h.5Zm12.8-4.1-.9-.3.2,1.1Zm-6.7.6-.4-.1.1.5ZM225.8,54l-.4-.1.1.5Z" transform="translate(-217.3 -43.2)" fill="#ff593e"/>
  </g>
  <g id="Group_1611" data-name="Group 1611" transform="translate(10.5 10.8)">
    <path id="Path_4020" data-name="Path 4020" d="M238.1,59.4l.4-.5-.7-.1Zm7.4,1.8.5-.7-.9-.2Zm1.9,0-.9-1.2-.9,1.2Zm-3.4-.1,1.2.1-.3-1.2Zm-7.2-2.7.4-.2-.4-.3Zm-.9-1.1-.3.4.6.2Zm-2.4-.1.5.4.2-.6Zm2.3,1,.5.6.4-.9Z" transform="translate(-226.9 -53.8)" fill="#af2500"/>
    <path id="Path_4021" data-name="Path 4021" d="M236.7,58.5l-.6.6.9.4Zm7.5,2.6-.3-1-1,.9Zm-6-1.2-.2-1.1-.9.7Zm2.1.5-.4-1-.8.8Zm-6.6-4.1.3-.2-.3-.3Zm3.8,2.6-.2-.5-.4.4Zm7-2.9.4-.2-.4-.2Zm-8.9-.1.3.3.1-.4Zm1.2.7-.5-.1.1.6Zm1.2,0v-.4l-.4.1Zm-3.4-1.4h.4l-.2-.4Zm7.8.5.4-.1-.2-.4Zm-4.2-.6h.4l-.2-.5Zm.8.5-.3.4.5.1Zm2.3,5.1.9.2-.2-1Zm-4.5-3.6-.5.8,1,.1Zm5.4-.2-.1-.3-.3.3Zm1.9,1.6.5-.5-.7-.2Zm-2.5-2.4.2.2.1-.3Zm-.8-.9.2.1v-.4Zm4,4.9.2-1-1.1.3Zm-4.5.4,1,.1-.2-1.1-.6.2Z" transform="translate(-226.9 -53.8)" fill="#af2500"/>
    <path id="Path_4022" data-name="Path 4022" d="M241.1,59.7l.8-.3-.6-.7-.4.5Zm1,.9.6.3.6-.1-.4-1.1Zm.8-1.8.7,1.1.6-.4.3-.7Zm1.8-.9.7.4.2-.9Zm.3,1.7.6,1.1.9-1.1Zm-6.1-.5-.7.8,1.1.3Zm1.3-1.1-1,.3.7.9Zm6.7-1.3-.6.2.4.5Z" transform="translate(-226.9 -53.8)" fill="#af2500"/>
    <path id="Path_4023" data-name="Path 4023" d="M250.9,57l-.7.2.4.6Zm-9.5,2.7,1.2.4V58.7Zm-6.6-1.3,1,.5-.1-.9Zm5.6-.3.8-.3-.6-.7Zm2.4-.9.3.3.2-.4Zm-1.2.4-.1-.4-.4.4Zm-2,2.4v-.5l-.5.1Zm-1.9-2.2.2.8.7-.6Z" transform="translate(-226.9 -53.8)" fill="#af2500"/>
    <path id="Path_4024" data-name="Path 4024" d="M241.4,58.3l.7.5.1-1Zm1.1,0,.7.4.1-1Zm2.1,1,.7.5.1-1Zm-5.8-1.1.1.4.3-.3Zm1.4-.9-.2.5.5-.1Zm0,2.1.9-.1.2-.4-1-.8Z" transform="translate(-226.9 -53.8)" fill="#af2500"/>
    <path id="Path_4025" data-name="Path 4025" d="M240.1,59.5l.3-.2-.3-.1Zm-.6-2.3.2-.3h-.4Zm1.1-1,.2-.3-.3-.1Zm-2.4,2.7.2.3.3-.4Zm-3.1-1.8-.1.5.5-.1Zm2.6.5V57l-.6.3Zm6.3,2.5-.6-.8-.5,1Zm-4.7-1.6V58l-.5.3Zm-4.6-2.2.2.4.2-.5Zm11.4-.5.2.4.2-.4Zm-6.5.3.4-.1-.3-.4Zm.6.4.1.4.3-.3Zm-5.5,11.7-1.4.3.9,1.3Zm10.2-11.1h.5l-.3-.5Zm5.7,2,1-.1-.6-.9Zm2.9-3.8.2.5.3-.4Zm-3.4.4.1.4.3-.3Zm-18.6,15-.5-1-.8.9Zm17.1-10.2.2-1-1.1.3Zm-1.8-.1.1-.5-.6.1Zm.3-1.2.2-.6-.7.2Zm-11.9,4.9-.3-1.6-1.2.8Zm-.4-1.7-.4-1.3-.7,1.1Zm-3.3-.4-.3-.5-.4.5Zm1.3-.5-.3-.5-.4.5Zm-3.6,9.8-.1-.9-.9.5Zm.4-.5.4.3.1-.6Zm-.1-.8.6.4.2-.9Zm20.1-11.8.3-.6h-.8Zm2.5-2,.1-.5-.5.1Zm-21.6,9.4-.2-.5-.4.4Zm-.9-2.5.4-.2-.3-.4Z" transform="translate(-226.9 -53.8)" fill="#af2500"/>
    <path id="Path_4026" data-name="Path 4026" d="M232.8,63.6l-.5-1-.7.8Zm1.3-.8-.5-1-.7.9Zm-2.5-2.3-.2-.4-.4.4Zm14.8-1,.3-1.3-1.5.4Zm2.4-1.1-1.1-.5v1.4Zm1.3,2-.9-.4v1.1Zm5.1-1.1-.9-.5-.2,1.1Zm-8.2.8h.8l-.4-.9ZM230.6,63l-.3.2.3.3Zm.9,2.2-.2-.2-.1.3Zm-4.2,1.4.2-.3h-.4Zm2.1-5.4.2-.3h-.4Zm.8-1.7.2-.3-.4-.1Zm-.9,6.4-.3-.3-.1.5Zm1.3-1.4-.4-.3-.2.6Zm-3.5,2.9.2-.3h-.4Zm20.7-10,.4.4.2-.6Zm-17,15.2-.4-.9-.7.8Zm2.4-6.7-.5-.3-.1.7Zm1.3.2-.8-.5-.1,1Zm.3,1.4-.9-.3.2,1.1Zm16.4-7,.3-.4L251,60Zm.6.2.6-.2-.8-.3Zm-5.1-2.4.7.2-.1-.8Z" transform="translate(-226.9 -53.8)" fill="#af2500"/>
    <path id="Path_4027" data-name="Path 4027" d="M247.7,56.9l.6.2-.1-.7Zm-9.8.1.8.3-.1-1Zm13.3,2.5.6.8.5-.9Z" transform="translate(-226.9 -53.8)" fill="#af2500"/>
    <path id="Path_4028" data-name="Path 4028" d="M252.2,59l-.6.8,1,.2Zm-2.9,1.6-.6-.2.1.6Zm.8.4,1.2-.2-.4-.8Zm-2.6.2h1.2l-1-1.2Zm-15.5,0-.2-.4-.4.4Zm1.3,4.8.3-.2-.3-.3Zm-.9-6.4.3-.3-.5-.1Zm-.3.7.3.2.1-.4Zm2,3.6-1-.2.4,1.2Zm-2.2,3.3-.5.1.3.4Zm3,0,.1-1-1.1.4ZM232,64.5l-.3-.7-.6.6Zm1,3.7.7-.3-.6-.7Zm-2.2-1.3.7-.5-.8-.5Zm1.7.5.6-.5-.8-.4Zm-.9,3,.7-.5-.8-.5Zm3.6-6-1.4.6,1.3,1.1Zm-.9-3.4-.5-1.2-1,1.1Zm-3.2,2.8.5-.5-.7-.3Zm1.9-1.9-.7.2.6.7Zm-1.9-1-.3-.4-.2.4Zm.5-1.4.3-.3-.4-.1Zm-4,10.9.3-.6h-.7Zm2.3,2,.2-.5h-.6Zm1.8-.7.5-.9H231Zm-3.4-1,.2-.5H228Zm1.5.2.2-.4h-.5Zm.4-1.9-.4-.2.1.5Zm3-4-.7-.5-.2.9Zm-1.9,3.1-.3-.2v.4ZM251.9,58l-.2-.3-.2.3Zm1.4,0-.2-.3-.2.3Zm.3.8-.3-.4-.4.5ZM231.7,69.1l-.4-.1v.4Zm-2.2,2.6.2-.5h-.5Zm.7-.4.1.7.7-.4Z" transform="translate(-226.9 -53.8)" fill="#af2500"/>
    <path id="Path_4029" data-name="Path 4029" d="M231.5,71.5l.2.9.9-.6Zm-2.3.4h.4l-.1-.4Zm0-1.2.2-.3h-.5Zm1.5-.4h.4l-.2-.4Zm.7-11.9-.1.5.5-.1Zm1.4-1.2-.1.4.4-.1Zm-.6,1.1-.1.4.4-.1Zm-.3-1.4-.4-.1.1.4Zm.3.7-.2.4h.5Zm1.3,3.6-.2.3.5.1Zm.1-1.7-.6-.2.1.8Zm-.1-.1-.3-1-.9.7Z" transform="translate(-226.9 -53.8)" fill="#af2500"/>
    <path id="Path_4030" data-name="Path 4030" d="M233.2,58.4v-.7l-.6.3Zm-.7,9.9-.8-.1.2.9Z" transform="translate(-226.9 -53.8)" fill="#af2500"/>
    <path id="Path_4031" data-name="Path 4031" d="M233.7,70.6l-.1-1-1,.5Zm-1.6-1.3v-.4l-.4.2Zm.9.1v-.8l-.8.4Zm-3.9.4.8-.2-.6-.6Zm2.9-1.7.7-.2-.6-.6Zm16.6-9.2.8.3-.1-.9Zm1.6.8-.6-.3v.7Zm.5.3.3-.9-1.1.2Zm3.3,0-.9-.7v1Zm-4.1-1.4.4.2-.1-.6Zm1.1-2.3.4.1V56ZM230.4,69l.4-.1-.3-.3Zm1.3,3.4-.6-.7-.4.9Zm1.9-1.6-1.2-.4.1,1.3Zm-5.4-2-.5-.1.2.5Zm21.2-12.3-.3-.3-.2.4Zm6,2.7V58.1l-1.1.6ZM253.9,58l.9.3v-.9Z" transform="translate(-226.9 -53.8)" fill="#af2500"/>
    <path id="Path_4032" data-name="Path 4032" d="M254,57l-.6.3.6.5Zm1,1.4.8.3-.1-1Zm.7-3.7.3.3.1-.5Zm-.6,2.3.5-.2-.4-.4Zm3.7-3.1.2.3.3-.4Zm-2.3,3.2-.1-.6-.5.3Zm2-1.3.3-.7H258Zm-2.4,2.7.9-.9-1.4-.5Zm1.9-2-1.2-.2.3,1.3Zm-.3-.6.4.3.1-.6Zm-2,.3.7.1-.3-.8Zm1.4-1,.6.1-.3-.7Zm2-.6-.4-.3-.1.5Zm-6.2,4-.1-.6-.6.5Zm-1,.8.4-.5-.7-.2Zm1,.4-.2-.6-.5.4Zm.9-.6-.1-.6-.6.5Zm.3-2.9.4.2V56Zm-1.8.6.3.1v-.5ZM227.6,68.7l-.5-.1.1.5Zm.7,1.3v-.4l-.4.2Zm2-.4.4.2.1-.5Zm-1.5-1.9-.3-.4-.3.5Zm2.7,1.4.2-.5-.6-.1Zm-.6,0-.4-.2.1.5Zm1.1-2.6.2-.6-.7.1Zm-1.5.4-.5-.1.1.6Zm-1.4,2-.5-.1.2.5Zm.5-2.7-.5-.1.1.5Zm.7,2.2-.1-.3-.4.2Zm3.5-10.5.9.4-.1-.7Zm18.2-.2.3.1v-.4Zm-23.1,10,.3-.1-.3-.4Z" transform="translate(-226.9 -53.8)" fill="#af2500"/>
  </g>
  <path id="Path_4033" data-name="Path 4033" d="M253.5,77.1c-1.8,0-3.3-2.5-3.3-5.3s1.5-5.3,3.3-5.3a3.553,3.553,0,0,1,1,.2V65.6a2.92,2.92,0,0,0-.9-.2c-2.4,0-4.3,2.9-4.3,6.4s1.9,6.4,4.3,6.4h.4l.1-1A.726.726,0,0,0,253.5,77.1Z" transform="translate(-216.4 -43)" fill="#fff"/>
  <path id="Path_4034" data-name="Path 4034" d="M257.8,71.7c0-3-1.4-5.6-3.4-6.2v1.1c1.3.7,2.3,2.7,2.3,5.1,0,2.6-1.2,4.8-2.8,5.2l-.1,1C256.1,77.7,257.8,75,257.8,71.7Z" transform="translate(-216.4 -43)" fill="#ccc"/>
</svg>
