<svg xmlns="http://www.w3.org/2000/svg" width="44.6" height="72.462" viewBox="0 0 44.6 72.462">
  <g id="Group_1687" data-name="Group 1687" transform="translate(7486.945 8352)">
    <path id="Path_3297" data-name="Path 3297" d="M258.2,48.82c-3.5-4.6-12.1-.9-12.1-.9s-1.3-2.5-5.7-2.7c-1.8,0-3.9.3-6.1.4s-4.4-.2-7.1,1.1c-5.5,2.6-4.8,7.6-4.8,7.6a5.268,5.268,0,0,0-3.2,1.1c-1.6,1.3-3.4,3.3-2.3,6.7.7,2,2.56,10.3,2.56,10.3a8.1,8.1,0,0,1,1.36-1.33l.1.54a5.861,5.861,0,0,0-1.6,4.1,5.508,5.508,0,0,0,5.3,5.7,4.748,4.748,0,0,0,1.07-.13l-6.87,22.43-2.2,5.7s3.2,4.1,10.8,5.7a37.971,37.971,0,0,0,11,1c1.9-.2,4.2-.6,3-4.1-1.7-5.2-1.1-8.5-1.1-8.5l2.4-13.1a9.386,9.386,0,0,0,4.3-.01c3.2-1,5.9-4.4,6.9-10.1a108.518,108.518,0,0,0,.8-13.4c0-1.1-.1-3.4-.3-5.4-.1-.64-.2-1.25-.32-1.84,4.3-1.88,7.3-6.75,4.1-10.87ZM228,80.1a.3.3,0,0,1,.02.1l-.08-.05a.209.209,0,0,0,.06-.04Z" transform="translate(-7702.505 -8396.278)" fill="#fff"/>
    <path id="Path_3298" data-name="Path 3298" d="M231.93,77.95a1.773,1.773,0,0,1-.5.07C231.43,78.04,231.57,78.07,231.93,77.95Zm-8.63-9.22h.02l.1-.03-.12.03Zm-1.95,2.5-.1-.47a8.727,8.727,0,0,0-.88.69l.14.65a6.2,6.2,0,0,1,.83-.87Zm3.55,1.5a3,3,0,1,0,2.9,3A2.957,2.957,0,0,0,224.9,72.73Zm0,5a2,2,0,1,1,1.9-2A1.954,1.954,0,0,1,224.9,77.73Zm14.2-9.08a4.231,4.231,0,0,1,3.9-1.6.818.818,0,0,0,.8-.9,1.064,1.064,0,0,0-1.1-1.2,5.861,5.861,0,0,0-5.3,2.1,1.273,1.273,0,0,0,.3,1.66,1.2,1.2,0,0,0,1.4-.06Zm11.5-2.26a4.4,4.4,0,0,1,2.1.2.832.832,0,0,0,1.02-.33,1.007,1.007,0,0,0-.22-1.4,4.059,4.059,0,0,0-3.3-.4.98.98,0,0,0-.57,1.38,1.011,1.011,0,0,0,.97.56Z" transform="translate(-7702.505 -8396.278)"/>
    <circle id="Ellipse_532" data-name="Ellipse 532" cx="1.4" cy="1.4" r="1.4" transform="translate(-7461.855 -8325.628)"/>
    <circle id="Ellipse_533" data-name="Ellipse 533" cx="1.4" cy="1.4" r="1.4" transform="translate(-7451.855 -8326.429)"/>
    <path id="Path_3299" data-name="Path 3299" d="M248.05,80.65a2.747,2.747,0,0,0,2.3-2.4c.1-1.6-1.2-5-1.4-5.4a.7.7,0,1,0-1.3.5c.5,1.3,1.4,3.8,1.3,4.7s-.85,1-1.2,1.1a.762.762,0,0,0-.65.9.78.78,0,0,0,.95.6Zm-7.45-.08a.709.709,0,0,0-.94-.4.7.7,0,0,0-.4.94,6.11,6.11,0,0,0,6.2,3.84.707.707,0,0,0,.62-.86.744.744,0,0,0-.76-.63,4.633,4.633,0,0,1-4.7-2.9Zm-19-29.1h.01l-.04-.17Z" transform="translate(-7702.505 -8396.278)"/>
    <path id="Path_3300" data-name="Path 3300" d="M259.9,51.04a5.81,5.81,0,0,0-.65-1.63l.06-.1-.55-.8c-.2-.26-.45-.5-.67-.74l.5.56c-.2-.01-.4-.3-.73-.73a3.96,3.96,0,0,0-1.6-1.03c-1.26-.58-2.65-.14-3.9-.24-.6.14.53-.22-.38-.1-.04-.14.43-.1.18-.2a12.622,12.622,0,0,0-2.6.27l-.07-.1c-.6.2-1.2.35-1.73.48l-.78.2-.33.1-.15.06a.94.94,0,0,0-.18.12c-.02.01-.04.03-.05,0l-.15-.2-.06-.1-.12-.18-.2-.3a2.425,2.425,0,0,0-1.05-.72,5.492,5.492,0,0,0-.52-.44c-.66-.3-.54-.06-1.27-.36.08-.1-.95-.3-.48-.3a7.082,7.082,0,0,0-2.77-.24l-2.98.16c-.45.22-1.53.2-1.86.35-.07-.06-2.12.06-.94-.14.1-.02.28-.02.27.01l.14-.1a16.945,16.945,0,0,0-3.5.2c.4,0,.9-.03.56.06l-1.2.1.24-.12a11.271,11.271,0,0,0-1.8.3l.27.04a4.37,4.37,0,0,0-2.12.7c-.37.28.82-.23,0,.2l-.9.4-1,.6a8.41,8.41,0,0,0-1.8,1.67c.2-.03-.1.28-.3.67l-.12-.01c-.38.76-.44.9-.6,1-.12.1-.26.23-.46,1.06l.07.33a3.862,3.862,0,0,1-.17,1.07,2.169,2.169,0,0,0-.08.3v.1a.254.254,0,0,0,.02.07l.1.17c-.02-.13.16-.03.2.2a.639.639,0,0,1-.14,0,.34.34,0,0,0-.01-.1.521.521,0,0,0-.15.06.39.39,0,0,1-.13.02c.05-.04.05-.08.01-.1s-.01-.03-.12-.01a2.305,2.305,0,0,0-.4.1,2.864,2.864,0,0,1,.42-.24,7.176,7.176,0,0,0-1.18.58,4.715,4.715,0,0,0-1.48.84l-.93.76a6.318,6.318,0,0,0-.73.83,3.307,3.307,0,0,0-.66,1.34c.07-.45-.42.66-.4.3a12.612,12.612,0,0,0-.18,1.44c-.04.58,0,1.15-.02,1.5l-.03-.12a6.177,6.177,0,0,0,.34,1.65l.4,1.22a16.23,16.23,0,0,1,.65,2.54c.1-.1.27.86.37.6a18.065,18.065,0,0,1,.56,2.52,5.955,5.955,0,0,0,.22.94l.18.47a1.366,1.366,0,0,0,.24.4,23.368,23.368,0,0,1,.42,2.5l-.1-.3.13.53a.558.558,0,0,0,.05.08,6.771,6.771,0,0,0-.23,1.7,6.015,6.015,0,0,0,5.8,6.2c.12,0,.24-.02.36-.03l-6.63,21.65-2.3,5.96.17.22c.14.17,3.4,4.26,11.1,5.88a44.574,44.574,0,0,0,9.08,1.1q1.037,0,2.07-.09c1.28-.13,2.7-.37,3.4-1.45a3.77,3.77,0,0,0,.03-3.3c-1.63-5-1.1-8.22-1.08-8.25l2.33-12.6a13.864,13.864,0,0,0,1.96.18,7.475,7.475,0,0,0,2.08-.28c3.63-1.14,6.27-4.96,7.25-10.5a110.635,110.635,0,0,0,.8-13.47c0-1.18-.1-3.5-.3-5.47-.05-.37-.13-.72-.2-1.08a11.242,11.242,0,0,0,3.25-2.35,7.256,7.256,0,0,0,1.74-2.93l-.01.1a9.863,9.863,0,0,0,.43-2.15c.02-.05.03-.13.04-.1a14.389,14.389,0,0,0-.27-1.9Zm-20.1,52.4c-.03.14-.6,3.5,1.12,8.75a2.93,2.93,0,0,1,.07,2.45c-.45.7-1.6.88-2.64,1a37.969,37.969,0,0,1-10.85-1c-6.34-1.33-9.56-4.47-10.33-5.3l2.1-5.45,6.78-22.16a5.247,5.247,0,0,0,1.63-.75c.08.3.16.6.22.88.53,2.22,2.42,4.1,5.96,5.93a33.5,33.5,0,0,0,8.25,3.06l-2.3,12.6Zm18.42-48.4a7.916,7.916,0,0,1-2.07,2.4,13.248,13.248,0,0,1-5.86,2.35,2.009,2.009,0,0,0-.48.1,26.727,26.727,0,0,1-3.9-.01s-1.2-.08-2.76-.26-3.5-.47-5-.68-2.55-.3-2.34-.04,1.65.92,5.3,1.9l-.1.02a18.734,18.734,0,0,0,5.16.5c.23.27,1.85.1,2.38.15l-.05.02c1.36-.22,2.9-.02,4.2-.58a.691.691,0,0,1-.36.2c.46-.13.98-.32,1.42-.48.05.3.12.6.16.9.2,1.93.3,4.2.3,5.35a107.32,107.32,0,0,1-.8,13.3c-.9,5.15-3.3,8.7-6.56,9.7-3,.94-8.62-1.07-12.52-3.07-3.2-1.66-5-3.38-5.44-5.27q-.156-.68-.35-1.35L228.3,79a4.651,4.651,0,0,1-3.7,1.92,5.217,5.217,0,0,1,0-10.4c1.97.05,2.87.33,4.1,1.63l.5.17a.7.7,0,0,1,.08.1q.06.244.11.49a6.015,6.015,0,0,1,.77,2.94,5.81,5.81,0,0,1-.2,1.52.562.562,0,0,0,.04.12.85.85,0,0,0,.26.33,1.956,1.956,0,0,0,.48.24,2.207,2.207,0,0,0,.52-.03l.15.01a8.614,8.614,0,0,0,.8-.42c.16-.06.2-.01.3-.05.08-.05.35-.17.54-.8a4.341,4.341,0,0,0,.16-1.43l-.01-1.48c-.05.47-.1.32-.12.1a6.739,6.739,0,0,0,.12-1l.14-.04c-.14.16-.06-1.12-.1-1.27.12-.24.04.66.1.77l.08-1.28c.01-.1.01-.22.02-.4a2.5,2.5,0,0,1,.03-.75c.06-.8-.16.12-.2-.28a6.242,6.242,0,0,1,.84-2.24l-.24.2,1.37-3.15a13.142,13.142,0,0,0,.1-5.08c-.18-.7-.33-.67-.42-.26-.1.35-.2,1.08-.32,1.7L234.4,62a25.666,25.666,0,0,1-.73,2.67c-.13.4-.28.77-.43,1.13l-.54,1.16a9.409,9.409,0,0,0-.9,3.05,4.13,4.13,0,0,0-.01.5,2.464,2.464,0,0,0,.02.26c0,.07,0,0,.01.04v.1l-.03.8-.08,1.8-.14,1.53c-.02.23-.04.46-.07.67-.01.06-.01.12-.02.18l-.13-.9-.5-3.13c-.04-.07-.1-.17-.16-.27a3.138,3.138,0,0,0-.23-.33l-.17-.2a4.485,4.485,0,0,0-.36-.4,7.372,7.372,0,0,0-.8-.68,6.9,6.9,0,0,0-1.86-.93,8.569,8.569,0,0,0-1.97-.38,7.771,7.771,0,0,0-.96-.02,8.592,8.592,0,0,0-1.02.1,11.876,11.876,0,0,0-2.17.92c-.2.1-.36.23-.54.34a2.12,2.12,0,0,0-.36.28.76.76,0,0,0-.14.21.149.149,0,0,1-.03-.1l-.01.03c-.06.15-.1-.01-.07-.1V70.3c-.04,0-.06-.07-.08-.12-.03-.1-.05-.2-.07-.3a1.5,1.5,0,0,0-.1-.3h.04l-.2-.76.07.12c-.34-1.07-.6-2.2-.82-3.2l-.1.1a19.741,19.741,0,0,0-.62-2.5l-.33-1.07a5.231,5.231,0,0,1-.27-1.17l.03.02a3.111,3.111,0,0,1,.16-2.63,11.054,11.054,0,0,1,1.73-2.25c-.2.22.14-.03.14.01.72-.68,1.77-.97,1.73-1.2.06-.01.12-.03.17-.04l.22-.03a2.125,2.125,0,0,1,.33-.02c.26-.15.24-.07.35-.08-.03-.03.12-.2.3-.3.07-.15.14-.38.3-.68a3.741,3.741,0,0,1,0-.58,4.455,4.455,0,0,0,.03.5,6.038,6.038,0,0,1,.05-1.08,7.7,7.7,0,0,1,.17-.86l-.3.28c.32-.9.3-.17.55-1.03l-.16-.06a5.81,5.81,0,0,1,2.27-2.36,10.516,10.516,0,0,1,3.45-1.84,14.18,14.18,0,0,1,4.08-.5c1.48-.03,2.93-.2,4.32-.3a13.3,13.3,0,0,1,3.9.04l.2.16c.05.17,1.34.02,1.45.28a4.58,4.58,0,0,1,.53.14c.13.1.4.28.13.2.43.25.44.23.77.4.1.14.22.28.32.42.06.06.1.12.16.17l.04.04c.03.03.07.1.1.1l.15.2q.335.144.66.31c.17.07.44.1.7.18q.671-.278,1.36-.51c.36-.13.72-.24,1.1-.35a11.415,11.415,0,0,1,2.34-.45,19.162,19.162,0,0,1,2.33.07,7.714,7.714,0,0,1,2.5.73,5.55,5.55,0,0,1,2.65,3.95,4.982,4.982,0,0,1-.58,2.88Z" transform="translate(-7702.505 -8396.278)"/>
  </g>
</svg>
