<svg id="Group_1662" data-name="Group 1662" xmlns="http://www.w3.org/2000/svg" width="50.563" height="86.35" viewBox="0 0 50.563 86.35">
  <path id="Path_4613" data-name="Path 4613" d="M259.7,60.17c-.9-.9-4.95-8.16-11.75-12.06a15.438,15.438,0,0,0-13.08-.76l-1.9-4.13-.46.2a9.026,9.026,0,0,0,.04-6.63c-1.7-5-9.05-6.98-14.65-4.88-4.6,1.7-8.32,7.56-7.12,12.56a8.609,8.609,0,0,0,5.47,6.34l1.9,3.8.16.82s-5.72,5.27-4.5,15.65a18.019,18.019,0,0,0,10.5,14.78l1.85-4.9c.02,0,.03-.01.05-.02l-6.87,22.43-2.2,5.7s3.2,4.1,10.8,5.7a37.971,37.971,0,0,0,11,1c1.9-.2,4.2-.6,3-4.1-1.7-5.2-1.1-8.5-1.1-8.5l2.4-13a8.534,8.534,0,0,0,3.9-.1c3.2-1,6.2-4,7.3-10a82.219,82.219,0,0,0,1.1-12.9c0-2-.2-5.72-.24-6.2,2.85-.04,4.8-.5,4.4-.83Zm-46.14,3.3c-.02,0-.07.12-.16.46ZM234.1,38.1l-.12-.18v.01Z" transform="translate(-209.81 -30)" fill="#fff"/>
  <path id="Path_4614" data-name="Path 4614" d="M225.43,72.4a3,3,0,1,0,2.9,3A2.957,2.957,0,0,0,225.43,72.4Zm0,5a2,2,0,1,1,1.9-2A1.954,1.954,0,0,1,225.43,77.4Zm18.7-13.62a5.611,5.611,0,0,0-5.3,2.2.78.78,0,0,0,.2,1,1.087,1.087,0,0,0,1.1-.1,4.005,4.005,0,0,1,3.9-1.6.752.752,0,1,0,.1-1.5Zm7.8.9a2.566,2.566,0,0,1,1.63.38.713.713,0,0,0,.97-.18.785.785,0,0,0-.1-1,3.134,3.134,0,0,0-2.8-.7.773.773,0,0,0-.6.9.839.839,0,0,0,.9.6ZM248.4,74.4a.633.633,0,0,0-.1.9,2.573,2.573,0,0,1,.5,1.8.842.842,0,0,1-.9.6.652.652,0,1,0-.1,1.3h.2a2.2,2.2,0,0,0,2.1-1.5,3.972,3.972,0,0,0-.8-3,.633.633,0,0,0-.9-.1Zm-4.17-3.9a5.479,5.479,0,0,0-2.38.46,1.04,1.04,0,0,0-.42.38,1.36,1.36,0,0,0-.3.86,1.4,1.4,0,1,0,2.62-.68,4.647,4.647,0,0,1,.48-.02.5.5,0,0,0,0-1Zm.27,12.32a4.646,4.646,0,0,1-4.67-2.92.72.72,0,0,0-.94-.41.709.709,0,0,0-.42.94,6.157,6.157,0,0,0,6.16,3.9.715.715,0,0,0,.63-.86.761.761,0,0,0-.76-.64Zm15.75-22.64a1.377,1.377,0,0,0-.18-.37,1.416,1.416,0,0,0-.24-.4l-1.26-1.87a9.016,9.016,0,0,0-1-1.3c-1.32-1.54-.57-1.3-2.12-2.76l-.44-.7c-.62-.67-.57-.36-1.24-1.1.1-.02-.87-.94-.38-.6a16.589,16.589,0,0,0-2.77-2.28c-1.05-.72-2.2-1.42-3.6-2.2a8.12,8.12,0,0,1-1.4-.4,6.669,6.669,0,0,0-1.3-.27,9.188,9.188,0,0,0-1.35-.3c-.55-.07-.87-.13.02-.13.15.01.42.06.4.1l.23-.07a12.755,12.755,0,0,0-5-.04c.52-.03,1.2-.1.76.02l-1.6.2.32-.15a17.073,17.073,0,0,0-2.4.5l.35.02-.72.16-.14-.26-.15-.23c-.1-.13-.2-.2-.33-.15-.12-.27-.03-.25.04-.33-.1.05-.25-.17-.35-.37l.08.08-.3-.6-.13.2c-.1-.34.2-.2.01-.47l-.15.08a5.279,5.279,0,0,1-.24-.95l.06-.17a9.1,9.1,0,0,0,.27-.99c-.16.17-.04-.4-.01-.98l.12-.06.05-1.54a2.793,2.793,0,0,0-.14-1.52l-.24-.35-.5-1.5a3.219,3.219,0,0,0-.9-1.54c.25.38.25.5.13.4a1.822,1.822,0,0,1-.26-.3,5.34,5.34,0,0,1-.44-.52l.26.15c-.4-.47-.57-.57-.84-.86.3.2.26.01-.43-.57a4.541,4.541,0,0,1,.53.3,10.669,10.669,0,0,0-1.44-.88,13.967,13.967,0,0,0-3.4-1.62,11.576,11.576,0,0,0-1.4-.32,6.9,6.9,0,0,0-1.88-.1c.55-.1-.94-.16-.52-.27l-3.57.5.15-.05a9.537,9.537,0,0,0-3.85,1.63,17.785,17.785,0,0,0-2.9,2.63c.17-.02-.76,1.1-.4.9-1.5,2.35-2.48,4.62-2.1,5.72l-.16,2.2-.05-.3a11.842,11.842,0,0,0,.6,2.65,10.168,10.168,0,0,0,1,2.02,3.631,3.631,0,0,0,.76.76l1.18,1.06c-.46-.26.05.16.54.5-.32-.2-.45-.25.18.25a3.7,3.7,0,0,1,.4.2c0,.01.03.03.01.03.9.47.76.33.35.12.03,0,0-.04-.1-.13a3.744,3.744,0,0,0,.8.46l.63,1.3a17.387,17.387,0,0,0,1.5,2.53l.08.28-.3.38-.46.62-.84,1.3c-.18.16-.04-.2.25-.7l-.76,1.24c-.1-.07.44-.9.74-1.34-1.35,1.62-1.93,3.8-2.7,6.05l-.02.5-.05.14a3.091,3.091,0,0,1-.05.9c-.15.32-.23-.07-.4,1.1a10.138,10.138,0,0,0-.16,1.84l.12,2.05c-.01-.66.07-.45.1-.17.05.58-.03.93.05,1.38l-.13.07c.06-.12.1.26.2.7l.24,1.02c-.05.35-.24-.9-.34-1.03a19.445,19.445,0,0,0,.76,3.48c.47,1.18.05-.26.34.3l.64,1.54.75,1.62-.07-.42a40.169,40.169,0,0,0,2.62,3.89,16.625,16.625,0,0,0,3.64,2.7,10.766,10.766,0,0,0,2.04.87l.08.06c-.1.48-.03.6.26.2l-5.4,17.64-2.3,5.96.17.22c.14.17,3.4,4.26,11.1,5.88a44.574,44.574,0,0,0,9.08,1.1q1.037,0,2.07-.09c1.28-.13,2.7-.37,3.4-1.45a3.77,3.77,0,0,0,.03-3.3c-1.63-5-1.1-8.22-1.08-8.25l2.3-12.53a11.6,11.6,0,0,0,1.53.11,7.193,7.193,0,0,0,2.12-.3c2.27-.7,6.3-3,7.64-10.4l.3-2c1.6-.9,2.72-3.2,2.72-5.92a7.48,7.48,0,0,0-1.92-5.33c-.01-1.77-.16-4.6-.22-5.6q.2-.006.4-.03c.05.14-.58.1-.25.2.6-.06,1.12-.06,1.66-.1l.42-.03a5.438,5.438,0,0,0,.63-.1,2.849,2.849,0,0,0,1.23-.45l.16.02a.99.99,0,0,0,.25-.32c.1-.13,0-.2-.03-.32Zm-17.3,6.95c-2.38,0-4.45,2.33-4.9,5.35l-5.44-.94a7.066,7.066,0,0,0,3.72-3.23c1.85-3.53,1.94-8.5,1.9-10.4,1.88.68,7,2.47,9.9,2.7,2.95.24,5.7.62,6.68.77l.2,4.82a3.14,3.14,0,0,0-1.35-.31c-2.2,0-3.95,2.33-4.24,5.44a2.665,2.665,0,0,0-.77-.1,1.91,1.91,0,0,0-1,.31c-.7-2.56-2.58-4.43-4.7-4.43Zm4,6.6c0,3.1-1.8,5.6-4,5.6s-4-2.5-4-5.6,1.8-5.6,4-5.6S246.95,70.63,246.95,73.73Zm-28.6-18.7h0l.1.2Zm22,48.07c-.03.14-.6,3.5,1.12,8.75a2.93,2.93,0,0,1,.07,2.45c-.45.7-1.6.88-2.64,1a37.969,37.969,0,0,1-10.85-1c-6.34-1.33-9.56-4.47-10.33-5.3l2.1-5.45,6.8-22.17a5.91,5.91,0,0,0,1.6-.72c.1.32.17.65.24.96.53,2.22,2.42,4.1,5.96,5.93a33.63,33.63,0,0,0,8.24,3.05l-2.3,12.5ZM253.95,80c-.93,5.1-3.4,8.5-6.96,9.6-3.65,1.14-10.2-1.98-12.12-2.97-3.2-1.66-5-3.38-5.44-5.27-.12-.55-.28-1.14-.45-1.72l-.22-.76-.6.52a4.6,4.6,0,0,1-3.03,1.17,5.217,5.217,0,0,1,0-10.4,4.638,4.638,0,0,1,3.68,1.87l.15.2h.25a9.193,9.193,0,0,0,.95-.08l7.8,1.3c0,.08-.01.16-.01.25,0,3.6,2.2,6.6,5,6.6,2.7,0,5-3,5-6.6a8.757,8.757,0,0,0-.07-1.03,1.23,1.23,0,0,1,.76-.4,1.387,1.387,0,0,1,.74.13c.06,3.48,1.9,6.2,4.28,6.2a2.734,2.734,0,0,0,.5-.05l-.24,1.45Zm1.03-10.2a.5.5,0,0,0-.34-.12,6.086,6.086,0,0,0-2.2.4c-.05.03-.1.07-.15.1a1.33,1.33,0,0,0-.26.21c-.01.01-.02.03-.04.04a1.4,1.4,0,1,0,2.44.93,1.35,1.35,0,0,0-.2-.7c.15-.01.3-.01.4-.01a.52.52,0,0,0,.31-.1q-.171,3.461-.62,6.9a2.01,2.01,0,0,1-.65.1c-1.78,0-3.3-2.45-3.3-5.35s1.5-5.35,3.3-5.35a2.371,2.371,0,0,1,1.36.5l-.06,2.4Zm1.04-1.27a7.322,7.322,0,0,1,.94,3.7,6.728,6.728,0,0,1-1.53,4.5q.489-4.084.6-8.2Z" transform="translate(-209.81 -30)"/>
  <path id="Path_4615" data-name="Path 4615" d="M219.74,53.72a2.091,2.091,0,0,0,1-.66l-.15-.04a2.69,2.69,0,0,0,.7-.53c.05-.2-.27.01-.07-.26l.72-.52c.01.08-.25.25-.13.3.01-.08.38-.34.25-.4l.1.1c.07-.1.2-.06.32-.15.04-.07.05-.15-.1-.07.22-.22.5-.58.75-.63.25-.17.24-.01.37.03.07-.06.14-.2.1-.23l.04-.01.05-.15c.6-.18.87-.8,1.42-.9-.1.1-.34.17-.3.28l.36-.25c-.14.12-.23.25-.13.3a8.157,8.157,0,0,1,1.62-1.1c.1.14.47-.15.76-.1-.04-.01-.06-.03-.06-.04-.1.03-.16.01.06-.1,0,.01.01.01.01.02.03-.03.07-.06.08-.1.2,0,.2.04.1.08.14-.05.3-.1.2.02.4-.07.35-.3.54-.4l1.13-.38-.06.05c.16-.02.26.1.55-.01.1-.55.78-.24,1.4-.57-.13-.13.23-.16.17-.27a2.6,2.6,0,0,0,.9-.24l.44-.17.23-.06c.01,0,.02.01.04.02v.01c.1.1.16-.01.03-.1.1.1.23.1.33.18a.149.149,0,0,1-.06-.07c-.08-.07-.06-.12-.06-.12.08,0,.07-.04.04-.08-.03-.06-.04-.05-.03-.18l-.34-.27.18.07c-.1-.18-.03-.26.06-.2-.02-.1-.08-.12-.16-.24l.12.01c-.06-.25-.34-.24-.24-.06-.5-.35.01-.34-.4-.67l-.18-.02c-.33-.42.17-.28-.2-.7l.1-.06c-.05-.04-.05-.06-.15.02,0-.12.04-.23-.3-.3-.28.04.1.1-.03.2-.3.17-.4-.02-.66-.06l.08.1c-.18,0-.36-.01-.55,0l.07-.1-.37.03c-.1.1.06.06.18.08-.4.02-.67.4-1.1.27l.02-.12c0,.03.06.02.1,0,.36-.25-.3-.04-.35-.1-.08.15-.46.14-.56.36-.76-.05-1.18.48-1.74.54.1-.13-.2,0-.2-.1-.25.02-.12.2-.33.26l-.24-.06c-.38.4-.4-.05-.82.26-.2.3-.74.2-1.06.62l-.07-.1c-.28.26-.55.18-.78.4-.13-.05.03-.1-.05-.2-.22.25-.05-.24-.17-.03-.45.1-.5.85-.9,1.04-.3.38-.85.22-.78.5l.2-.1-.52.35-.07-.07c-.18.2-.76.4-.93.7,0-.01-.03,0-.05-.01-.22.24-.37.18-.52.47l.01-.05a9.666,9.666,0,0,1-1.85,1.5c-.05-.05-.16,0-.3.1a2.326,2.326,0,0,0-.2.16.378.378,0,0,0-.07.08c.02-.02-.02-.08-.03-.1-.01.1-.1.12-.22.16-.2.02-.1.15.03.22h-.03c-.03.04.05.1.1.15s.14.27.04.34a3.449,3.449,0,0,1,.88,1.57l-.05-.01a7.847,7.847,0,0,1,.17,1.82l.1.2.84-.6c.24-.24.4-.46.63-.73Z" transform="translate(-209.81 -30)" fill="#fff"/>
</svg>
