<svg id="Group_1665" data-name="Group 1665" xmlns="http://www.w3.org/2000/svg" width="82.939" height="76.703" viewBox="0 0 82.939 76.703">
  <path id="Path_4621" data-name="Path 4621" d="M252.66,52.24c-3.5-4.5-8.4-7.76-13.4-7.96a19.462,19.462,0,0,0-11.2,2.45c-.06-.06-1.7-1.5-2.3-2.1a2.738,2.738,0,0,0-2.2-.3,6.845,6.845,0,0,0-5.9-3.5c-5.6-.4-9.6.7-13.2,6.7-2.3,3.8-6.1,5.2-11.2,6.5a11.185,11.185,0,0,0-8.6,12.1c.6,7.3,0,11.2-3.9,14.5s-8.7,16.6,5.4,25.3c12.7,7.9,26.2,2.97,30.3-7.93,4-10.5-2.92-17.12-6.32-24.32-4.38-7.05-1.22-16.3,2.67-18.97a1.707,1.707,0,0,1,1.2-.7c-.76,2.3-.04,3.4-.04,3.4l2.4,1.6a29.681,29.681,0,0,0-2.1,6.2c-1.85,12.98,8.24,18.9,10.07,19.85l-5.57,18.2-2.2,5.7s3.2,4.1,10.8,5.7a37.971,37.971,0,0,0,11,1c1.9-.2,4.2-.6,3-4.1-1.7-5.2-1.1-8.5-1.1-8.5l2.4-13a8.534,8.534,0,0,0,3.9-.1c3.2-1,6.2-4,7.3-10a82.219,82.219,0,0,0,1.1-12.9c0-2.13-.22-5.1-.22-5.1l-.82-.2c2.13.2,3.48-.01,3.84-.64.6-.4-1.8-4.6-5.1-8.9ZM227.93,79.68a.109.109,0,0,1,.01.05l-.05-.03a.076.076,0,0,0,.04-.02Zm7.85-16.88c.28-2.72.48-4.7.96-5.25ZM217,57.77c-.01.03-.03.05-.04.08A.3.3,0,0,1,217,57.77Zm8.57,23.1a.142.142,0,0,0,.06-.02l-.27.88.2-.86Zm11.68-23.6c1.1-.22,3,1,7.88,2.52C242.38,59.04,238.51,57.71,237.25,57.27Z" transform="translate(-175.799 -39.567)" fill="#fff"/>
  <path id="Path_4622" data-name="Path 4622" d="M258.55,60.05a5,5,0,0,0-.25-.6l-.24-.48-1.07-1.9a31.859,31.859,0,0,0-3.26-4.92,23.985,23.985,0,0,0-4.4-4.36,26.21,26.21,0,0,0-6.47-3.68,13.655,13.655,0,0,0-3.82-.77,14.419,14.419,0,0,0-3.72.15,1.18,1.18,0,0,0-.55.13,20.073,20.073,0,0,0-4.3,1.08,19.232,19.232,0,0,0-2.3,1.03,1.073,1.073,0,0,0-.4-.25c.03-.03-.2-.24-.3-.36-.08-.1-.12-.16.1-.1.02,0,.12.1.1.1l.14-.02a1.347,1.347,0,0,0-.23-.3,1.818,1.818,0,0,0-.23-.15,1.691,1.691,0,0,1-.48-.3c.06.1.18.2.06.2l-.26-.26.12-.02-.3-.32c.05.04-.07-.08-.08-.07l-.08-.07c.02.06.02.1.04.17-.3-.33-.47-.6-.92-.57-.2.03.3.25-.1.17a3.471,3.471,0,0,0-1.15-.27,8.046,8.046,0,0,0-.87-1.17,7.829,7.829,0,0,0-2.2-1.66,9.11,9.11,0,0,0-2.35-.74l-1.13-.13-1.04-.04q-1.051-.015-2.1.06a13.086,13.086,0,0,0-4.46,1.13,12.723,12.723,0,0,0-4.4,3.47,19.634,19.634,0,0,0-1.52,2l-.6.9-.52.72a9.9,9.9,0,0,1-2.31,2.11,24.948,24.948,0,0,1-7.1,2.82,14.994,14.994,0,0,0-2.64.86,14.146,14.146,0,0,0-2.5,1.43,11.728,11.728,0,0,0-3.65,4.32,16.8,16.8,0,0,0-.97,3.16,10.946,10.946,0,0,0-.15,3.48l-.06.74a11.464,11.464,0,0,1,.16,2.02l-.03-.04c.12.94.07,2,.1,2.47l-.03-.04-.05,1.13-.03-.2a10.127,10.127,0,0,1-1,4.46l.16-.05a11.936,11.936,0,0,1-2.04,2.85,18.111,18.111,0,0,0-2.54,2.8v-.05a25.05,25.05,0,0,0-1.96,4.7,11.712,11.712,0,0,0-.47,5.14c-.08-.5-.05.22-.08.18.1,1.9.76,3.8,1.02,3.75.43,1.27.28,1.07.25,1.27a10.269,10.269,0,0,1,1.13,1.92l-.25-.46a6.77,6.77,0,0,0,.8,1.27l.87,1.22a4.5,4.5,0,0,1-.17-.6c.4.68.5.74.5.86.02.1.05.2.57.74l.1-.13a27.166,27.166,0,0,0,1.9,2.07,11.607,11.607,0,0,0,.92.94l1.13.92a26.414,26.414,0,0,0,5.9,3.13,25.031,25.031,0,0,0,6.6,1.42l.84.07.84-.02,1.67-.05a22.528,22.528,0,0,0,3.27-.54,24.76,24.76,0,0,0,3.1-.96,23.979,23.979,0,0,0,2.82-1.42l.38-.1a2.441,2.441,0,0,0,1-.75,4.137,4.137,0,0,1,1.02-.9,4.912,4.912,0,0,0,.64-.72c.2-.17.64-.56.33-.18a5.618,5.618,0,0,0,1-1.2l.68-.7a16.237,16.237,0,0,0,2.44-4.4c.3-.77.5-1.58.74-2.4a23.212,23.212,0,0,0,.46-2.63,15.88,15.88,0,0,0-1.16-8.55,49,49,0,0,0-4.23-7.62l-1.27-2.1c-.44-.74-.72-1.43-1.18-2.3a12.1,12.1,0,0,1-1.5-4.72,18.316,18.316,0,0,1,1.64-9.58,2.112,2.112,0,0,0,.2-.4l.1-.27a10.425,10.425,0,0,1,1.74-2.18l.52-.4c-.03.1-.1.2-.07.3l-.14.01c.12-.05.14.4.2.45-.1.1-.1-.23-.17-.27a4.424,4.424,0,0,0,.1.94c.17.3.12-.1.27.04a2.69,2.69,0,0,0,.2.43,1.288,1.288,0,0,0,.28.42v-.15a2.007,2.007,0,0,1,.92.67l.54.17a33.05,33.05,0,0,0-1.93,6.3l-.06.23a1.422,1.422,0,0,0-.05.3l-.05.44-.1.83L213,68l.03,2.56a16.252,16.252,0,0,0,1.52,5.77,19.473,19.473,0,0,0,4.5,6.22c.5.32,1.08.88,1.74,1.4a11.724,11.724,0,0,0,1,.74l.5.32.6.33.7.5-5.3,17.27-2.3,5.96.17.22c.14.17,3.4,4.26,11.1,5.88a44.574,44.574,0,0,0,9.08,1.1q1.037,0,2.07-.09c1.28-.13,2.7-.37,3.4-1.45a3.77,3.77,0,0,0,.03-3.3c-1.63-5-1.1-8.22-1.08-8.25l2.3-12.53a11.6,11.6,0,0,0,1.53.11,7.193,7.193,0,0,0,2.12-.3c2.27-.7,6.3-3,7.64-10.4a82.808,82.808,0,0,0,1.1-13c0-1.44-.1-3.28-.17-4.32a6.621,6.621,0,0,0,1.4-.08c.15-.03.25-.06.45-.1a2.581,2.581,0,0,0,.54-.23,1.448,1.448,0,0,0,.47-.32,1.667,1.667,0,0,0,.37-.42,1.559,1.559,0,0,0,.05-1.54Zm-46.2-5.9-.36.3a3.376,3.376,0,0,0-.44.4,7.35,7.35,0,0,1-.63.63l.04-.07a15.251,15.251,0,0,0-2.98,5.7,1.119,1.119,0,0,1,.1-.6c-.46,1.43-.7,3.46-.83,3.56a16.6,16.6,0,0,0,.4,5.9c.15.48.28.95.44,1.4l.54,1.24c.2.38.42.72.6,1.03l.48.75-.1-.12c.7,1.07.77,1.45,1.53,2.64.02.08.06.17.05.16.82,1.1,2.05,3.4,2.62,4.3l-.05.1q.669,1.151,1.25,2.35-.2-.45-.42-.9c.4.2.77,1.86,1.56,3.58.55,1.66,1.47,3.4,1.33,5.32.13.9-.2-.8-.1.55-.14.04-.1-.62-.2-.28a19.965,19.965,0,0,1-.55,3.66l-.12.04a10.119,10.119,0,0,1-.94,2.75L215,99.7a8.714,8.714,0,0,0-.52,1,3.809,3.809,0,0,1-1.08,1.43,5.29,5.29,0,0,0-.45.47,4.133,4.133,0,0,0-.3.4c-.12.15-.27.32-.45.54l-.7.5c-.67.65-.38.58-1.22,1.2,0-.06-.27.14-.48.3s-.4.22-.16.03c-1.97,1.2-4.07,2.64-7.2,3a4.985,4.985,0,0,1-1.4.3c-.53.08-1.05.14-1.3.2a10.924,10.924,0,0,0-1.4-.04,1.345,1.345,0,0,1-.54-.06c-.04-.03.1-.01.54-.07.15-.02.42-.02.4.02l.2-.1a37.414,37.414,0,0,1-4.94-.5c.5.14,1.2.27.72.25a14.964,14.964,0,0,1-1.6-.4l.35.02-2.3-.8c.1.08.18.15.28.22a19.987,19.987,0,0,0-2.7-1.27c-.58-.2.94.67-.2.1a30.534,30.534,0,0,1-4.9-3.54c.06.22-.35-.14-.8-.5l.03-.12q-.266-.192-.52-.4c-.12-.13-.2-.23-.27-.3a1.006,1.006,0,0,1-.2-.35c-.08-.2-.15-.37-.9-1.12l.18.1a2.94,2.94,0,0,1-.52-.3,4.627,4.627,0,0,1-.84-1.23,8.983,8.983,0,0,0-.83-1.42c.4.74-.04.46-.46-.5l.22.2a4.875,4.875,0,0,1-.45-1.05c.16.3.2.12-.08-.67l.3.5a8.535,8.535,0,0,1-.62-1.46q-.056-.508-.16-1.01c-.07-.36-.06-.73-.1-1.08a4.32,4.32,0,0,1,.04-1.56l.03-.42a7.788,7.788,0,0,1,.09-.96l.14-1.07a6.945,6.945,0,0,0,.1-.76c-.03.53.36-.86.38-.42a8,8,0,0,1,.42-1.64,6.986,6.986,0,0,1,.82-1.57l-.07.13.57-.88.6-.76c.2-.24.4-.43.6-.64s.5-.48.74-.72a13.958,13.958,0,0,0,2.55-3.53c-.14.1.5-1.4.2-1.1.83-3.02,1.1-5.53.63-6.6-.06-1.35.05-1.6.04-2.3l.05.32-.13-1.6-.04-1.13a12.837,12.837,0,0,1,.23-2.15,5.5,5.5,0,0,1,.6-2.5c-.14.5.12-.1.4-.6-.15.34-.2.44.24-.18a2.528,2.528,0,0,1,.18-.4c.01,0,.03-.02.03-.01.55-.8.44-.68.14-.33,0-.03-.04-.01-.14.1a6.789,6.789,0,0,0,.58-.66l.65-.68a2.87,2.87,0,0,1,.92-.68,13.31,13.31,0,0,1,3.4-1.97c1.12-.4,2.35-.73,3.57-1.16.3-.01-.26.24-.98.5.6-.18,1.2-.37,1.78-.58.02.12-1,.4-1.55.58a20.171,20.171,0,0,0,6.64-3,4.97,4.97,0,0,0,.38-.42l.13-.1a5.4,5.4,0,0,1,.64-.77c.33-.2.18.2,1.03-.84.78-.84,1.5-2.47,2.3-3.48-.45.52-.35.3-.2.06.4-.5.7-.68,1-1.05l.14.05c-.28.06,1.05-1.2,1.23-1.34.33-.13-.7.64-.74.82a9.055,9.055,0,0,1,1.42-1.1,8.692,8.692,0,0,1,1.6-.82c1.17-.54-.27-.05.27-.38a9.593,9.593,0,0,1,3.58-.68q-.218-.057-.44-.1a15.187,15.187,0,0,1,2.82-.06,7.479,7.479,0,0,1,2.2.44,6.667,6.667,0,0,1,2.5,1.08,8.079,8.079,0,0,1,1,.89.54.54,0,0,0-.3.07l-.05.18c-.38.37-.34-.14-.73.35.18-.1.18.18-.07.24v-.12c-.12.08-.14.14-.24.16.05-.1-.02-.16-.2-.05l.07-.18a2.269,2.269,0,0,0-.26.35c-.32.04-.66.4-.84.35,0,0-.6.3-.6.52.04-.16-.26.02-.25-.13a1.139,1.139,0,0,1-.62.6v-.03c-.63.38-.8.93-1.35,1.28.1.07-.18.26,0,.3-.33.58-1.04.66-.82,1.16-.17.24-.3.2-.42.3l.02-.07a7.006,7.006,0,0,1-.67.9c-.08.2.1.36-.17.62-.01-.15-.08-.02-.16.1.04-.08.03-.12-.13-.01a.246.246,0,0,1-.01.12c-.01,0-.02,0-.02-.01-.1.2-.06.2.01.1.01.01.03.02.07,0-.24.12-.35.56-.5.5a9.105,9.105,0,0,0-.63,1.66c-.1.03-.12-.14-.06-.3a3.711,3.711,0,0,0-.15.4c-.1-.05.03-.25.07-.37a2.033,2.033,0,0,0-.4,1.05c-.03.01-.06.01-.1.02a2.358,2.358,0,0,0-1.15.76c-.06,0-.02-.03,0-.05Zm2.58,2.5c0,.01-.01.01-.02.02a.107.107,0,0,1-.06.02c-.01.06-.07-.08-.1-.18a2.246,2.246,0,0,1-.13-.84,4.209,4.209,0,0,1,.47-1.36q.353-.689.66-1.4c.33-.58.67-1.23,1.04-1.8.03-.37.52-.72.65-1.12l.18-.05a.515.515,0,0,1,.24-.35l.02.03c.06-.2.25-.34.3-.44l.02.03.15-.2.01.06a2.359,2.359,0,0,1,.65-.77l-.1-.07c.57-.37.57-.73,1.14-1l.01.03c.37-.75,1.06-.55,1.5-1.22-.06.08.07.04.08.07.28-.2.6-.4.5-.62.23-.1.22-.01.3.06-.05-.1.13-.24.32-.3l-.07.07.52-.22-.17-.16c.3-.04.15.22.4.1l-.05-.17c.42-.07.7.16,1.04.28a2.354,2.354,0,0,1,.83.15l1.22.97a1.526,1.526,0,0,1,.46.4,1.358,1.358,0,0,1-.4.14l-.14-.06c-.1-.05-.04,0-.01.06s.04.15-.04.1l-.1.2c-.07.01-.18.05-.13-.05-.15.1-.14.13-.2.26l-.23.02c-.64.37-1,.93-1.63,1.38a9.537,9.537,0,0,0-2.68,2.52c-.8,1.17-2.5,1.87-3.15,3.25a.175.175,0,0,0-.06.17c-.3.34-.54.72-.8,1.07a5.721,5.721,0,0,0-.5.8,8.357,8.357,0,0,0-.56,1.12.516.516,0,0,0-.07-.06,4.643,4.643,0,0,0-.74-.6c-.12-.08-.24-.16-.37-.23a1.146,1.146,0,0,0-.13-.1ZM216,58.6a.412.412,0,0,0,.02.2l-.44-.3C215.73,58.53,215.88,58.57,216,58.6Zm.47.23c-.03.07-.07.14-.1.2l-.16-.1a1.3,1.3,0,0,0,.26-.1Zm23.3,44.15c-.03.14-.6,3.5,1.12,8.75a2.93,2.93,0,0,1,.07,2.45c-.45.7-1.6.88-2.64,1a37.969,37.969,0,0,1-10.85-1c-6.34-1.33-9.56-4.47-10.33-5.3l2.1-5.45,6.78-22.16a5.646,5.646,0,0,0,1.6-.73c.1.32.17.65.24.96.53,2.22,2.42,4.1,5.96,5.93a33.694,33.694,0,0,0,8.23,3.05l-2.3,12.5Zm13.6-23.1c-.93,5.1-3.4,8.5-6.96,9.6-3.64,1.14-10.2-1.98-12.12-2.97-3.2-1.66-5-3.38-5.44-5.27q-.2-.866-.45-1.72l-.22-.76-.6.52a4.532,4.532,0,0,1-3.03,1.17,5.217,5.217,0,0,1,0-10.4,4.638,4.638,0,0,1,3.68,1.87l.08.1.13.05a5.842,5.842,0,0,0,4.57-.17,5.275,5.275,0,0,0,2.38-4l1.8-10.14c1.67.58,6.67,2.3,9.23,2.84l7.84,1.73c.06.86.2,3.06.2,4.7q0,1.311-.06,2.62a.5.5,0,0,0-.34-.12,6.086,6.086,0,0,0-2.2.4c-.05.03-.1.07-.15.1a1.331,1.331,0,0,0-.26.21c-.01.01-.02.03-.04.04a1.4,1.4,0,1,0,2.44.93,1.35,1.35,0,0,0-.2-.7c.15-.01.3-.01.4-.01a.52.52,0,0,0,.31-.1,73.929,73.929,0,0,1-1,9.43Zm3.72-19.05c-.23.2-.33.18-.76.34a2.232,2.232,0,0,1-1.2-.04,3.835,3.835,0,0,0-1.28-.1q-.294-.1-.58-.22c-.66-.1-.5.12-1.22-.08.06-.08-.9-.25-.47-.25a36.736,36.736,0,0,1-5.5-1.42c-.52.04-1.57-.4-1.96-.4-.03-.1-2.14-.76-.88-.5a.935.935,0,0,1,.27.1l.18-.05c-1.14-.6-2.22-.68-3.4-1.18.35.17.82.34.48.3l-1.12-.44h.27a11.156,11.156,0,0,0-1.88-.63l.28.17a2.436,2.436,0,0,0-1.8.02l-.08-.03-.01.07a1.792,1.792,0,0,0-.92,1.36c-.02.26.06.05.16-.12.06-.1.1-.2.1-.17s-.07.2-.12.45a28.911,28.911,0,0,0-.86,4.46c.14-.13.1.27.08.68l-.1.04c-.01,1.58-.3.55-.35,2.1l-.06-.14.18.43c.04,1.4-.3.76-.24,2.25.04-.3.12-.34.16-.22-.01.03-.01.07-.02.1a3.9,3.9,0,0,1-.1.4h-.01c-.01.07-.02.12-.03.17-.04.18-.08.38-.13.55,0-.17-.12-.08-.26.4v-.4a5.66,5.66,0,0,1-.21,1.01,7.333,7.333,0,0,1-.63.77,2.811,2.811,0,0,1-.51.4,2.348,2.348,0,0,1-.4.18h-.03a2.825,2.825,0,0,1-.76.18c-.28.04-.57.05-.8.06-.1,0-.17-.01-.25-.01a.587.587,0,0,0-.2-.1l-.33-.12c-.1-.04-.1-.07.03-.07-.13-.01-.27-.02-.43-.04l-.26-.03c-.06-.02-.1.04-.16.1a5.641,5.641,0,0,0-4.38-2.14,6.214,6.214,0,0,0,0,12.4h.05l-.25.86a4.769,4.769,0,0,0-.2.97,1.052,1.052,0,0,0,.1.4l-.13.43c-.07-.04-.15-.15-.2-.18h.06a2.153,2.153,0,0,1-.34-.17c-.03-.02-.37-.22-.54-.34a12.874,12.874,0,0,1-1.24-.93,5.178,5.178,0,0,1-1.55-1.04c.34.17-.03-.1-.32-.42.2.2.28.22-.06-.22a1.539,1.539,0,0,1-.26-.18c0-.01-.01-.03.01-.03-.5-.48-.45-.38-.23-.13-.02,0-.02.03.03.12a11.494,11.494,0,0,1-1.25-1.7,21.319,21.319,0,0,1-2.75-4.6c0-.2.23.15.45.6a8.181,8.181,0,0,1-.45-1.16c.06-.01.12.15.2.37.08.2.18.46.26.63-.23-.7-.4-1.44-.7-2.18a10.451,10.451,0,0,1-.43-2.44l-.1-.35v-.1c-.05.01-.13-.38-.15-.64.1-.25.24.01.2-.85.08-.67.1-1.94.1-2.82-.06.45-.1.3-.12.1.05-.36.24-.63.27-.96l.14-.01c-.18.13.16-1.14.15-1.3.16-.2-.1.68-.05.8a21.867,21.867,0,0,1,.77-2.5c.23-.9-.2.1-.14-.35a11.69,11.69,0,0,1,1-2.4l-.24.22.12-.27a10.533,10.533,0,0,0,1.03-.88l.02.05a3.5,3.5,0,0,0,.8-1.4c.25.08.35-.45.5-.53v.02c.1-.46.66-.58.78-1a.132.132,0,0,1,0,.15c.15-.26.38-.6.5-.52a8.438,8.438,0,0,0,1.3-1.72l.01.05c.07-.3.22-.26.37-.52h.05c.1-.3.58-.6.7-.8l.08.06.4-.4-.17.13c-.13-.25.43-.16.62-.57.3-.22.24-.93.63-1.1.01-.02.01-.03.02-.04s.01-.01.02-.01c.02.04.01.25.13.06.1.1-.05.15.08.2.18-.23.45-.18.66-.47l.08.08c.23-.44.76-.4.88-.74.32-.35.44.08.7-.38l.24.01c.18-.1-.01-.2.34-.38.04.08.47-.23.35-.04a12.219,12.219,0,0,0,1.6-1.1l1.82-.93a2.155,2.155,0,0,0,1.06-.22,6.636,6.636,0,0,1,1.24-.33l-.04.03c1.3-.5,2.8-.3,4.1-.45a.517.517,0,0,1-.38.1,6.678,6.678,0,0,1,2.35.15,12.648,12.648,0,0,1,3.6.8c1.18.42,2.2.95,2.9,1.22h-.1a8.757,8.757,0,0,1,1.74,1.05c.03.04.08.1.06.1a15.843,15.843,0,0,1,2.62,2.22l-.04.1c.44.43.84.9,1.24,1.36l-.43-.54c.37,0,.77,1.15,1.7,2.15.72,1.04,1.96,1.78,2.57,2.97.45.47-.47-.36.12.4-.1.1-.3-.32-.27-.06.55.75.68,1.36,1.3,2.3l-.08.1a4.717,4.717,0,0,1,.54,1c.02.25.1.46-.05.58ZM224.87,72.28a3,3,0,1,0,2.9,3A2.957,2.957,0,0,0,224.87,72.28Zm0,5a2,2,0,1,1,1.9-2A1.954,1.954,0,0,1,224.87,77.28Zm14.7-9a4.005,4.005,0,0,1,3.9-1.6.752.752,0,0,0,.1-1.5,5.611,5.611,0,0,0-5.3,2.2.78.78,0,0,0,.2,1A1.089,1.089,0,0,0,239.57,68.28ZM253,66.45a.713.713,0,0,0,.97-.18.785.785,0,0,0-.1-1,3.134,3.134,0,0,0-2.8-.7.773.773,0,0,0-.6.9.853.853,0,0,0,.9.6,2.646,2.646,0,0,1,1.63.38Zm-5.33,7.83a.633.633,0,0,0-.1.9,2.573,2.573,0,0,1,.5,1.8.842.842,0,0,1-.9.6.652.652,0,1,0-.1,1.3h.2a2.2,2.2,0,0,0,2.1-1.5,3.972,3.972,0,0,0-.8-3,.633.633,0,0,0-.9-.1Zm-3.5-3.4a.47.47,0,0,0-.5-.5,5.479,5.479,0,0,0-2.38.46,1.04,1.04,0,0,0-.42.38,1.36,1.36,0,0,0-.3.86,1.4,1.4,0,1,0,2.62-.68,4.647,4.647,0,0,1,.48-.02.47.47,0,0,0,.5-.5Zm-.23,11.97a4.628,4.628,0,0,1-4.4-3.3.728.728,0,1,0-1.4.4,6.114,6.114,0,0,0,5.8,4.4.713.713,0,0,0,.7-.8.751.751,0,0,0-.7-.7Z" transform="translate(-175.799 -39.567)"/>
</svg>
