<svg id="Group_1658" data-name="Group 1658" xmlns="http://www.w3.org/2000/svg" width="53.479" height="78.816" viewBox="0 0 53.479 78.816">
  <path id="Path_4602" data-name="Path 4602" d="M256.92,69.98c-.5-5.8-1.42-11.16-4.12-15.46-2.4-3.9-5.5-8.3-9.6-8.9-1.8-.2-3.84,1.17-4.05,1.1-2-.8-5.65-2.8-9.35-1.5-4.4,1.5-9.8,5.7-15.1,16s-6.4,17.1-7.3,28.8l-2.2,26.7a4.626,4.626,0,0,0,4.6,5h7.9s.02-.06.05-.16l35.45-.64a3.9,3.9,0,0,0,3.8-4c-.4-11.3.34-42.03-.08-46.94ZM220,51.1l-.1.15v-.02A.448.448,0,0,1,220,51.1Z" transform="translate(-204.394 -43.62)" fill="#fff"/>
  <path id="Path_4603" data-name="Path 4603" d="M257.74,94.25l.08-6.86s.1-8.3-.12-13.5a25.125,25.125,0,0,0-.34-3.64l.02-.35c.2.75.3.6.35,0a21.63,21.63,0,0,0-.1-3.1l-.22-2.07a25.443,25.443,0,0,0-2.86-9.47,46.452,46.452,0,0,0-2.7-4.1,22.935,22.935,0,0,0-4.18-4.47,10.494,10.494,0,0,0-2.52-1.53,6.76,6.76,0,0,0-1.28-.4l-.66-.13a4.18,4.18,0,0,0-.7-.02,7.5,7.5,0,0,0-2.28.52l-.94.38-.08.03h-.02a.076.076,0,0,1-.04-.02c-.02-.01.03.01-.06-.03l-.2-.1-.43-.2-.9-.4a17.578,17.578,0,0,0-2.06-.73,10,10,0,0,0-5.7-.04c-4.07,1.24-7.4,4.24-9.9,7.2a47.485,47.485,0,0,0-4.04,6l-.5.67c-.33.67-.72,1.44-1.12,2.08l-.01-.06-1.25,2.6-.01-.05-.56,1.22.06-.23-2.15,5.25.17-.1c-1.4,3.5-1.48,4.9-2.36,8.17l-.02-.05c-.47,4.25-1.27,6.64-1.35,11.02.01-.55-.1.23-.1.18-.12,2-.28,4.13-.03,4.18-.12,1.45-.18,1.18-.3,1.36a10.168,10.168,0,0,1-.03,2.4v-.53l-.23,3.25.26-.62c-.2,1.72-.3.42-.37,2.07l.17-.01c-.23,2.38-.6,3.76-.92,6.05l-.53,6.54-.23,3.3c-.02.3-.04.53-.05.85a5.367,5.367,0,0,0,.05.98,5.55,5.55,0,0,0,.6,1.83,5.31,5.31,0,0,0,2.82,2.48,5.426,5.426,0,0,0,1.86.35l1.64-.01,6.35.03.53.01.06-.16h2.12l.4.12c.18.2,2.46-.32,2.8-.16l1.04-.1c.3.03.9.05.4.1a13.985,13.985,0,0,0,1.68-.1l1.04.1c3.8.02,7.03-.26,11.03-.3,2.4.08,5.87.02,9.38-.1l5.2-.2a4.763,4.763,0,0,0,4.06-3.06,4.352,4.352,0,0,0,.24-1.6l-.05-1.42c-.04-.94-.04-1.9-.04-2.87,0-1.94.05-3.92.1-5.9.1-3.98.25-7.98.1-11.72a5.637,5.637,0,0,0-.08-.85ZM252.8,72.8a1.4,1.4,0,0,0,1.4-1.4,1.351,1.351,0,0,0-.2-.7c.15-.01.3-.01.4-.01a.52.52,0,0,0,.31-.1,81.653,81.653,0,0,1-1,9.4c-.93,5.1-3.4,8.5-6.96,9.6-3.64,1.14-10.2-1.98-12.12-2.97-3.2-1.65-5-3.38-5.44-5.27q-.2-.866-.45-1.72l-.22-.76-.6.52a4.532,4.532,0,0,1-3.03,1.17,5.217,5.217,0,0,1,0-10.4,4.638,4.638,0,0,1,3.68,1.87l.1.1a3.641,3.641,0,0,0,2.5.73,2.314,2.314,0,0,0,1.58-1.1,87,87,0,0,1,5.7-7.72c4.47-5.56,8.1-7.43,8.98-7.82a14.58,14.58,0,0,1,5.33,5.05,12.811,12.811,0,0,1,2.04,5.9q0,1.311-.06,2.62a.5.5,0,0,0-.34-.12,6.086,6.086,0,0,0-2.2.4c-.05.03-.1.07-.15.1a1.329,1.329,0,0,0-.26.21c-.01.01-.02.03-.04.04a1.409,1.409,0,0,0,1.04,2.35Zm-33.23,30.74,6.78-22.16a5.646,5.646,0,0,0,1.6-.73c.1.32.17.65.24.96.53,2.22,2.42,4.1,5.96,5.93a33.694,33.694,0,0,0,8.23,3.05l-2.3,12.5c-.03.14-.6,3.5,1.12,8.75a2.93,2.93,0,0,1,.07,2.45c-.45.7-1.6.88-2.64,1a37.969,37.969,0,0,1-10.85-1c-6.34-1.33-9.56-4.47-10.33-5.3l2.1-5.45Z" transform="translate(-204.394 -43.62)"/>
  <path id="Path_4604" data-name="Path 4604" d="M225.2,72.4a3,3,0,1,0,2.9,3A2.957,2.957,0,0,0,225.2,72.4Zm0,5a2,2,0,1,1,1.9-2A1.954,1.954,0,0,1,225.2,77.4Zm14.7-9a4.005,4.005,0,0,1,3.9-1.6.752.752,0,1,0,.1-1.5,5.611,5.611,0,0,0-5.3,2.2.78.78,0,0,0,.2,1A1.091,1.091,0,0,0,239.9,68.4Zm13.43-1.83a.713.713,0,0,0,.97-.18.785.785,0,0,0-.1-1,3.134,3.134,0,0,0-2.8-.7.773.773,0,0,0-.6.9.853.853,0,0,0,.9.6,2.646,2.646,0,0,1,1.63.38ZM248,74.4a.633.633,0,0,0-.1.9,2.573,2.573,0,0,1,.5,1.8.842.842,0,0,1-.9.6.652.652,0,1,0-.1,1.3h.2a2.2,2.2,0,0,0,2.1-1.5,3.972,3.972,0,0,0-.8-3,.633.633,0,0,0-.9-.1ZM244.5,71a.47.47,0,0,0-.5-.5,5.479,5.479,0,0,0-2.38.46,1.04,1.04,0,0,0-.42.38,1.36,1.36,0,0,0-.3.86,1.4,1.4,0,1,0,2.62-.68,4.647,4.647,0,0,1,.48-.02.47.47,0,0,0,.5-.5Zm-.23,11.97a4.628,4.628,0,0,1-4.4-3.3.728.728,0,1,0-1.4.4,6.114,6.114,0,0,0,5.8,4.4.713.713,0,0,0,.7-.8.751.751,0,0,0-.7-.7Z" transform="translate(-204.394 -43.62)"/>
</svg>
