<svg xmlns="http://www.w3.org/2000/svg" viewBox="0 0 480 480" xmlns:v="https://vecta.io/nano"><path d="M316.9 186.47l-.73-.53c.01.03.2.16.73.53zm1.7 21.83l.2.04-.2-.04zm-30.15-42.16l.03.03c.04.03.02.02.04.03.04.02.07.04.1.06l-.12-.07c.04.02-.02-.03-.05-.05zm38.92 27.3l-.01-.03c-.01-.01-.01 0 .01.03zm17 14.76l.57-.2-.57.2zm-14.77-6.9l-.07.1c.01.01.04-.01.07-.1zm5.7-2.46v-.03.03zm-8.25 6.58h0v-.04.04z"/><path d="M361.9 207.7c-1.9-1.1-6.3-2.2-9.4-3.5-4.97-2.15-9.35-3.58-13.3-5.04.33-2.18-1.7-4.52-4.8-5.46-2.02-.6-4-.47-5.4.26l-40.9-27.16c-2.76-2.02-9.4-10.57-15.46-18.74-4.2 2.48-12.1 6.6-12.1 6.6l-5.9 3.06c.02.02-.5.36-.72.45-3.7 2.2-7.9 4.16-11.97 6.14 8.47 10.94 18.63 23.67 21.83 26.1 6.7 5.3 17.2 8.2 31.4 12.3 11.47 3.3 21.7 5.65 31 7.9h0c-.2.7.2 1.4.8 1.6l2.9.6c.7.2 1.4-.2 1.6-.8l.03-.1 1.17.3c1.7.4 3.4 1.3 5.8 1.6 2-3.5 5.8-5.8 10.1-5.8 6.4 0 11.6 5.1 11.6 11.5 0 1.1-.2 2.2-.5 3.3.1.2.2.4.4.5 3.6 1.7 4.8-14 1.8-15.6z" fill="#fff"/><path d="M330.78 192.95l.1.03c0-.02-.02-.03-.1-.03zm-.38 8.85zm3.54-7.45v-.01l-.03.01z"/><path d="M240.44 209.43c2-.28 5.2-.55 5.1-1.04-.14-.67-1.37-.68-1.37-.68-.14.03-.7-.08-.98-.05-.64.07-1.36-.01-2.84-.04.95-.1-.25-.1-1.35-.08.7-.02.92-.06-.52-.12-.2.03-.52.05-.8.07-.01-.01-.07-.01-.04-.03-1.84.04-1.52.08-.66.1-.04.02.03.04.3.07-1.9-.13-5.32.03-5.55-.15l-14.08.35c-.52-.1.56-.18 1.9-.22l-3.26.04c.03-.13 1.88-.08 2.88-.1-3.9-.2-8 .24-12.57.06l-.94.1-.27-.02c.01.06-1 .14-1.68.16-.64-.1.04-.27-2.2-.25-1.78-.1-5.07.07-7.4.14 1.26.02.85.08.3.12-1.13.01-1.78-.1-2.65-.05l-.08-.12c-.16.12-3 .14-3.4.2-.64-.1 1.75-.1 2.03-.2l-6.78.04c-2.4.13.44.15-.7.3-2.13.04-4.2.15-6.65.07l.77.14c-4 .12-6.4.1-9.1-.02-29.8 1.24-6.28 1.58-6.28 1.58 11.74.27 17.8-.16 31.77-.3l28.27.14 18.5-.13c.1-.04.25-.05.37-.05z" fill="#fff"/><path d="M364.03 213.32c-.1-2.02-.44-3.75-1.02-4.8-.3-.52-.64-.87-.9-.97-.23-.12-.28-.08-.15.02.14.13.48.4.73 1 .26.58.48 1.44.6 2.6.1 1.15.14 2.6 0 4.34-.17 1.72-.4 3.84-1.33 5.98l.07-.24c-.25.63-.6 1.2-.96 1.5-.2.13-.36.2-.52.16-.12-.01-.23-.08-.27-.2-.04-.05.01-.1.02-.16l.1-.4.18-.88a10.17 10.17 0 0 0 .15-1.72c-.03-2.23-.6-4.23-1.7-6-.1-.32-.72-1.42-1.68-2.36-.93-.96-2.13-1.76-2.74-2.12l.12.06c-3.2-1.8-7.45-2.24-10.74-.76.08-.03.14-.1.4-.2-1.08.4-2.2 1-3.05 1.64-1 .73-1.64 1.43-1.74 1.46-.27.28-.5.6-.77.92l-.36.5c-.06.08-.12.17-.17.26l-.06.1c.1.17-.98-.1-1.7-.3-.78-.22-1.56-.5-2.37-.77-.62-.22-1.26-.37-1.87-.52.05-.15.1-.3.14-.47l.4-1.47c.27-.98.56-1.93.94-2.78l.1-.05c.13.01-.02-.54.1-.57v-.22c.04-.05.1-.16.1-.05.07-.2.05-.2.05-.35l.14-.18c.3-.73.36-1.4.65-2.18a5.72 5.72 0 0 0 .19-.42c.07.03.14.05.32-.03.06.03.1.05.17.08.18-.02.1-.14.3-.13 0 .07.25 0 .15.08.47-.02.84-.36 1.45-.48.07-.16.36-.26.4-.4.05.05.5-.36.3-.05-.02.03-.06.06-.07.04l.01.08c.38-.1.47-.46.73-.7-.1.06-.2.16-.16.06.08-.08.16-.15.23-.24v.1l.33-.38-.1.01c.16-.18.32-.2.36-.5 0-.14-.2.16-.1-.08a4.06 4.06 0 0 0 .32-.63l1.3.5-.7-.34c3.72 1.27 5.93 2.05 8.36 3.1 1.72.6 3.2 1.24 4.57 1.73 1.36.48 2.56.83 3.6 1.14 2.08.6 3.52 1.04 4.45 1.42 1.83.82 1.7.7.83.1-.97-.66-2.84-1.35-4.46-1.93l-2.95-1.05a39.55 39.55 0 0 1-1.9-.76l-1.83-.8c-1.2-.5-2.35-.96-3.47-1.4-2.25-.85-4.38-1.58-6.57-2.34l-1.1-.4c.04-.07.13-.06.06-.35-.04-.02-.07-.05-.12-.07-.23-.35.13-.25-.2-.62.06.16-.13.12-.17-.08l.08.03c-.05-.1-.1-.13-.1-.2.05.05.12-.01.04-.15.04.02.1.04.13.07-.08-.1-.17-.16-.25-.24-.02-.26-.3-.54-.27-.68 0 0-.06-.12-.15-.23-.1-.12-.2-.23-.27-.25.12.04-.04-.2.07-.2-.15-.05-.45-.3-.5-.46l.03.01c-.36-.48-.8-.56-1.16-.93-.03.08-.22-.1-.23.03-.5-.18-.72-.67-1.04-.44-.2-.1-.22-.18-.32-.25h.06l-.84-.3c-.16-.02-.23.12-.5.01.1-.04-.01-.06-.1-.08.07.01.1-.01-.03-.1a.24.24 0 0 1-.09.02v-.02c-.18-.02-.15 0-.07.03-.01.01 0 .02.02.05-.16-.13-.5-.1-.5-.2-.54-.07-.94.01-1.38.03-.05-.06.06-.1.2-.12l-.32.01c0-.08.18-.04.28-.05-.38-.15-.8.12-1.24.05l-.1.07-.03-.01c.01.03-.1.1-.15.1-.07-.06-.02-.16-.24-.12-.2-.04-.5.14-.7.24.12-.02.1.03.05.06-.1.03-.2-.02-.26.04l-.04-.1c.05.04-.07.1-.16.17-.01-.01-.03-.02-.04-.02.04-.03.08-.05.08-.08-.05.02-.1.04-.13.05l-2.7-1.73-23-15.5-15.12-9.95c-1.02-.76-2.36-2.1-3.62-3.6-1.3-1.47-2.56-3.05-3.62-4.3l-.73-1.03a46.06 46.06 0 0 1-2.21-2.8l.06.04c-1.08-1.3-2.18-2.83-2.7-3.48l.06.04-1.23-1.63.23.26-1.5-1.97c2.02-1.22 2.86-1.9.8-1.2l.97-.5s-.88-1.58-2.37-4.1c3.1 4.38 3.52 4.7 3.18 3.64-.44-1.3-2.2-4.47-2.2-4.47-3.47-6.37-5.77-9.35-10.75-16.4a256.86 256.86 0 0 0-4.98-7.07 82.94 82.94 0 0 0-2.41-3.05 75.06 75.06 0 0 0-3.36-3.71c-2.53-2.76-5.35-5.65-8.2-8.06-.73-.5-1.7-1.26-2.7-2.05-1.06-.72-2.1-1.53-3.1-1.95l-.66-.52c-.65-.34-1.47-.64-2.12-1l.06-.01c-1.02-.42-2.2-.8-2.75-.94l.05-.02c-.44-.1-.85-.3-1.3-.35h.24c-.97-.1-1.94-.32-2.9-.4-.96-.02-1.9-.12-2.8-.1l.15.13c-.93.05-1.72.12-2.43.2-.7.1-1.3.3-1.9.45-.58.18-1.2.26-1.8.52l-.95.34c-.1.02-.2.04-.3.07-.2.05-.4.1-.65.16l-.72.27c-.98.38-2 .74-2.27.78l-1.53.72c-.47.12-1.37.55-.64.12-1.4.7-1.4.76-2.38 1.33-.5.23-1 .5-1.5.76-1.35.76-2.5 1.7-3.65 2.57-1.12.92-2.16 1.9-3.2 2.88-2 2.04-3.92 4.2-5.88 6.7-2.52 2.9-5.58 7.5-8.28 12.36-2.73 4.86-5.07 9.98-6.8 13.7-4.72 10.52-11.12 22.32-15.7 33.2-.1.17-.23.5-.34.76s-.2.5-.18.5l-4.5 9.82s-5.42 11.9-8.4 19.48l-.52 1.36-.48 1.3c-.33 1.08.16 2.12.75 2.54.6.47 1.18.48 1.45.45.28-.04.3-.1.13-.16-.18-.07-.66-.13-1.16-.6a1.86 1.86 0 0 1-.35-.46c.3.48.86.8 1.5.8l91.1-.3.1-.73 1.1.3.4-3.27a53.93 53.93 0 0 0 .24-2.74l.26-1.27c.07-1.15.17-2.5.35-3.64l.03.08c.1-1.72.34-3.64.38-4.5l.03.07.2-2.08.02.36a207.59 207.59 0 0 1 .75-8.77l-.16.2c.4-3.62.5-5.82.67-8.24l6.03 7.42c2.37 2.82 4.62 5.6 7.06 8.13.13.17.27.33.4.5.07.12.8.82 1.66 1.34.82.58 1.74 1.07 1.92 1.28.47.28.96.52 1.43.8.38.26 1.23.7.5.37 1.33.7 1.37.7 2.36 1.14a27.67 27.67 0 0 0 1.43.74c5.42 2.4 10.28 3.68 16.18 5.48 3.54 1.1 8.66 2.63 13.9 4 5.25 1.4 10.6 2.64 14.52 3.54l9.23 2.2c-.01.1-.02.2-.01.3l-.02-.01c.2.6.46 1 .86 1.35a1.22 1.22 0 0 0 .36.21c.17.07.25.07.34.1a2.8 2.8 0 0 0 .61.06c-.1 0 .04.05.02.07.4.06.84.14.88-.03.3.06.23.1.25.17.01-.07.28-.05.5-.01h-.1l.54.1h-.03l.16.03-.12-.16v.01-.01c.38.12.06.2.5.2v-.12c.6-.03 1.06-.05 1.55-.58 0-.01.01-.02.01-.03l1.78.5 2.2.76c.38.12.76.23 1.15.32l.6.13.32.06.5.07.25.04c.08.02.17.04.2-.06l.26-.42c.2-.33.26-.42.38-.58.2-.3.43-.58.67-.86.48-.54 1-1.05 1.56-1.5 2.26-1.8 5.16-2.6 7.9-2.4.18.01.5.07.77.1.26.03.46.04.5.05 3.3.7 6.24 2.94 7.66 6 0 0 .38.67.7 1.9.3 1.22.6 3 .16 4.97l-.08.37-.1.46c-.18.42.1.85.4 1.16.37.25.86.38 1.26.32.43-.07.77-.3 1.02-.55.5-.5.78-1.08 1.02-1.65.23-.57.4-1.15.54-1.74.57-2.28.68-4.62.6-6.64zm-37.3-6.48l-.12.14c-.01.15-.04.33-.12.46l-.02-.02c-.02.23-.12.46-.13.58l-.02-.02-.07.26-.01-.05a5.31 5.31 0 0 1-.31 1.11h.1c-.12.26-.18.46-.22.64l-2.08-.44.26.03c-2.13-.4-2.73-.64-5.1-1.15-.13-.04-.3-.1-.26-.1-2.32-.44-6.7-1.6-8.55-2.03l-.1-.1-4.55-1.15 1.7.45c-.64.03-3.4-1-6.72-1.77-3.06-.86-6.32-1.4-9.48-2.4-1.54-.36 1.37.25-.9-.34-.05-.1 1.07.25.5.01-2.24-.6-3.62-1.15-6.37-1.93l-.1-.1c-3.6-.96-6.65-2.24-9-3-1.8-.67-2.36-.98-2.94-1.3s-1.2-.6-3-1.44c-.44-.27-.88-.53-1.3-.83-1.44-.87-1.1-.5-2.63-1.6.06.01-.4-.35-.77-.64-.38-.28-.6-.53-.18-.2l-1.15-1.05c-.4-.35-.75-.77-1.13-1.16-.77-.77-1.52-1.62-2.3-2.5a99.5 99.5 0 0 1-4.92-5.9c-.88-.86-2.6-3.13-3.25-3.8-.06-.14-3.55-4.47-1.47-2.04.18.2.48.6.44.58l.3.25c-1.9-2.6-3.7-4.55-5.65-7.08.56.76 1.35 1.75.8 1.12l-1.82-2.34.43.45-1.92-2.5c3.88-1.88 7.84-3.76 11.35-5.84.22-.08.73-.43.72-.45l5.9-3.06s7.34-3.84 11.64-6.33c1.88 2.6 3.33 4.68 4.33 5.58 1.43 1.83 1.62 2.23 2.34 3.2l-.35-.43c2.72 3.4 3.5 4.4 5.63 6.85.55.6.88.93 1.36 1.35s1 1 2.13 1.98c-.38-.3-.34-.24-.1-.02.13.1.26.27.53.42l.67.42c-.58-.36-.77-.45.4.34.18.1.44.25.7.4.01.01.05.04.02.03 1.52.96 1.27.78.57.3.04.01-.01-.03-.22-.2 1.52 1.1 4.35 2.87 4.48 3.08l11.58 7.52c.4.33-.5-.22-1.6-.93l2.67 1.76c-.07.05-1.55-.98-2.38-1.52 3.1 2.23 6.6 4.26 10.25 6.84l.8.46.22.16c.01-.04.87.48 1.42.84.5.4-.13.1 1.72 1.33 1.42 1.03 4.16 2.72 6.1 3.95-1.02-.7-.67-.5-.2-.23.92.6 1.42 1 2.15 1.46l.03.1c.07.01.54.3 1.08.63-.05.04-.1.08-.17.1l.1.02c-.27.28-.43.43-.67.57-.35.67-.28 1.1-.24 1.28.05.2.15.22.25.14.1-.06.2-.17.28-.28.1-.1.16-.17.16-.17l.76-.77a3.27 3.27 0 0 1 1.11-.72c1-.2 1.3-.07 2.36-.1.5.06 1.06.1 1.56.23.27-.07.64.2.95.2l.08.1c.1 0 .22.03.3.1v.02c.16.01.3.12.37.13l-.01.02.16.07-.04.01c.25.08.5.2.66.36l.03-.08c.35.36.6.34.86.73l-.02.01c.57.24.48.73.94 1.08-.06-.05-.02.05-.04.05.15.2.26.45.42.4.06.18 0 .16-.06.2.07-.03.16.12.2.26l-.04-.06s.4 1.22-1 2.82c-.4.47-1.07.7-1.67.76l-.07-.07c-.04-.1-.28.25-.35.14l-.13.08c-.04-.01-.13-.03-.06-.07-.13.01-.13.03-.22.08l-.15-.07c-.5-.02-.95.13-1.5.03-.63-.22-1.85-.4-2.54-.63-.5-.13-.96-.47-1.34-.86-.4-.4-.72-.8-1.1-1.1-.01-.03-.1-.08-.1-.07a5.05 5.05 0 0 1-.46-.77s-.13-.24-.23-.56-.2-.73-.2-1.05c-.02-.32-.03-.58-.2-.57-.1.02-.55.3-.7 1.4l-.03-.02c.02.64.2 1.02.5 1.33-.12.14.23.44.26.58h-.02c.3.22.37.67.7.85-.02 0-.06.03-.12-.03.2.17.47.38.42.47.06.05.13.1.2.16-.28.7-.5 1.22-.8 2.3-.25.76-.47 1.58-.7 2.33-.04.44-.35 1.03-.38 1.48zm3.1 6.24h0zm1.33-1.78c-.04.1-.1.2-.14.3s-.1.25-.14.26c-.08.1-.18.17-.3.22.06.06 0 .1-.06.14l-.03-.07c-.24.16-.1-.12-.34-.05l.03-.05c-.03.05-.06.1-.1.14h-.01l-.05-.01c-.46.04-.2-.2-.75-.1.2.03.06.18-.18.1l.08-.06c-.14-.01-.2.01-.28-.03.1-.02.06-.1-.14-.12l.15-.06-.4.05c-.28-.14-.77-.14-.87-.26 0 0-.16-.05-.33-.08-.12-.02-.13-.02-.14-.02-.03 0-.07 0-.1.01.08-.02-.03-.14.06-.18-.1.05-.32-.16-.25-.3l.01.01v-.24l.01-.1.05-.23c.07-.3.13-.6.28-.9-.1 0 .06-.3-.07-.26.1-.68.6-1.12.34-1.45.08-.3.2-.33.25-.47v.08c.15-.56.2-.72.33-1.13.03-.22-.1-.3.04-.65.02.14.06-.02.1-.15-.02.1 0 .12.1-.04-.01-.03-.01-.07-.01-.1.07-.24.04-.2 0-.1-.01-.01-.02 0-.05.03.15-.2.2-.67.32-.66.2-.7.24-1.23.4-1.8.07-.05.08.1.05.27l.1-.4c.08.03-.03.25-.05.38.28-.45.2-1.04.5-1.57l-.02-.14.01-.02c.15.07.3.13.4.14h-.04c.24.01.26.12.5.18.01.02.02.03.01.04.25.01.63.26.83.3l-.01.07.45.14-.16-.07c.1-.15.3.23.66.2.3.1.7-.24 1-.1.16-.07-.15.12.08.08-.01.1-.12.05-.07.13.23-.02.36.15.65.1l.01.08c.12-.03.23-.03.33-.02-.07.23-.22.4-.27.72l-.08-.01c-.02.52-.38.86-.36 1.22-.1.5-.32.26-.34.8l-.16.17c-.1.2.07.2-.06.42-.06-.03-.15.3-.16.13-.27.52-.23 1.15-.62 1.82.07.2-.12.53-.07.68-.06 0-.24.72-.22.28 0-.04.02-.1.04-.1l-.05-.07c-.27.37-.17.77-.32 1.17.06-.1.1-.28.12-.15l-.13.37-.03-.1-.22.55.1-.05c-.13.26-.28.32-.28.66 0 .14.17-.24.1.05z"/><path d="M339.94 198.22c.02.01.04.02.05.03l-.05-.03zm-6.7-.48c.33.1.65.13.92.08l1.13.78c.17.1.4.2.62.08.18-.12-.02-.28-.12-.38l-1.12-.82c.02-.03.05-.05.06-.08.03-.08.01-.16 0-.24l2.45-.17c.2 0 .27-.18.2-.3-.12-.2-.3-.2-.5-.2l-2.42.17c-.17-.18-.4-.34-.7-.45-.68-.23-1.35-.1-1.5.33s.3.97.98 1.2z"/><path d="M239 164.8c-.12-.24-1.82.4-3.05.87l-1.46.8c-.08.02-.18.06-.17.04-1.22.85-3.8 2.03-4.83 2.65l-.12-.06-2.5 1.35.9-.45c-.05.1-.2.22-.43.34l-.38.18-.26.1-.27.1c-.05.04-.07-.03-.1-.08l-.07-.16-.16-.3-.4-.65c-.9-1.77-2.47-3.27-3.3-5.17-.6-.8.6.66-.18-.6.12-.12.4.56.35.17-.74-1.25-.97-2.18-1.9-3.72l.08-.12c-1.28-1.96-1.88-3.98-2.8-5.26-1.18-2.1-.4-1.6-1.75-3.73l-.3-.95c-.46-.97-.53-.6-.98-1.7.13.02-.6-1.38-.2-.8-1.03-2.5-2.63-4.8-3.78-8.13-.5-.62-1.07-2.3-1.42-2.77.03-.12-1.27-3.3-.38-1.53.08.15.18.43.14.43l.2.18c-.47-1.8-1.26-3.15-1.8-4.84l-.06-.1c.13.48.27.92.07.53l-.23-.77c-.37-.53-.74-.9-1-.74-.38.2-.3 1.82-.1 3.34l.56 1.5c1.72 4.48 3.76 8.7 5.5 12.67l.04.4c-.12.25 1.35 2 1.32 2.4l.54.86c.1.27.33.82.06.4.4.84.45.84.8 1.4l.34.95c1.58 3.33 3.25 5.98 5 9.43.48 1.06 1.1 2.33 1.83 3.7l1.14 2.13 1.35 2.46.54.97.27.48c.13.01.32-.15.48-.2l1.8-.97 2.16-1.2 3.8-2.13a82.7 82.7 0 0 1 2.68-1.49c.96-.73 2.54-1.95 2.4-2.2z" fill="#fff"/></svg>