<svg xmlns="http://www.w3.org/2000/svg" viewBox="0 0 480 480" xmlns:v="https://vecta.io/nano"><g fill="#fff"><path d="M361.93 207.7c-.6-.35-1.47-.7-2.46-1.06l.42-.07c1.03-.3 2.16-1.18 2.45-1.76s.3-1.08.2-1.32-1.28-1.14-1.28-1.14l-9.45-1.5-5.2-.27-3.16.1c-3.54-1.27-6.75-2.4-9.7-3.78-3-1.5-41.3-27.5-45.6-30.1-5.6-4.1-30.1 19.2-24.3 23.6 6.7 5.3 17.2 8.2 31.4 12.3s26.5 6.7 37.5 9.5c1.7.4 3.4 1.3 5.8 1.6 2-3.5 5.8-5.8 10.1-5.8 6.4 0 11.6 5.1 11.6 11.5 0 1.1-.2 2.2-.5 3.3.1.2.2.4.4.5 3.6 1.7 4.8-14 1.8-15.6zm-144.33.9l.16-.5 13.6-.36c.23.18 3.63.02 5.53.14-.26-.03-.33-.05-.3-.06-.85-.01-1.17-.04.66-.1-.03.01.03.02.04.03l.8-.07c1.44.07 1.22.1.52.13 1.1 0 2.3-.02 1.35.1l2.9-.08.44-.05.2-.05c.06-.01.1-.03.17-.04l.1-.02v-.12l.42-3.46.5-4.88-.03.56c.16-1.2.37-1.62.58-3.97-.38-1.92.6-6.1.88-11.27-.24.63.07-2-.1-1.78.6-4.97.6-8.94 1.13-14.5l-.01.3c.26-1.5.4-5.26.35-6.54.08.78.3-1.92.36-.93-.1-1.14.27-6.04.27-6.04.23-.93.26-4.56.5-6.84l-.07-2.97.1 1.06c.06-1.57.18-1.86.22-1.22.06-.7.03-1.07.05-2.13l.1.5c.14-1.92-.12-2.76-.17-1.2-.18-3.96.27-2.3.1-5.86l-.24-1.04.08.35c-.12-3.92.34-1.42.1-5.36l.12-.12c-.05-1.03-.12-2.02-.24-1.67-.1-3.7-.54-8.02-1.1-10.85-.58-2.2.1.86-.26-.18-.38-1.15-.57-1.92-.76-2.64a24.42 24.42 0 0 0-.69-2.45l.1.6c-.47-1.37-1.08-2.67-1.74-3.95l.37.5c-.2-.44-.46-.85-.72-1.26-.25-.4-.5-.83-.8-1.2-.57-.6.22.34.64 1.16-1.63-2.67-3.67-4.23-6.12-6.04l.37.1c-.05.01.34.26.58.4 1.28.85.86.48.08-.12l-1.3-.85c-.42-.23-.74-.4-.76-.44-.4-.2-1.3-.54-2.2-.85l.48-.84c-2.67-1-5.78-1.56-9.43-1.56-12.7-.7-26.7 7.9-40.7 36.2-8.9 17.9-28.7 61.4-33 72-.6 1.3.3 2.6 1.6 2.6l63.8-.2.38-.03zm.26-.82l1 .03c-.3.01-.64.01-1 .01l.01-.04zm-.04.12l1.4-.02-1.43.07v-.05z"/><path d="M237.03 90.6s.1-1.6 0-2.2c-.4-1.7-1.7-1.4-1.7-1.4s.6-1.2-.7-2.7c-1-1.1-2.1.2-2.5.9s-.2-.7-.1-2.1.9-6.9.4-7.5-1.4-1.3-2.2 1.1-4.6 11.9-5.4 13.7-1.5.9-2.2-.1-.8-2.6-1.8-5c-1-2.3-2.5-1.5-2.5-1.5.5 3 0 6.4-.2 8.7 0 2.2 1.3 4 1.1 5.5s-1.9 3.4-7.8 11.7l-4.36 6.37 3.37 1.67c6.64 3.04 10.15 4.35 15.03 6.78l7.26-21.92s.7-.7 2-2.4c1.3-1.6 2.8-3.7 3.1-6.6s-.8-3-.8-3z"/></g><path d="M363.97 211.73c-.2-1.5-.55-2.78-1.1-3.53-.25-.38-.57-.6-.75-.67s-.2-.05-.12.04c.24.17.9.9 1.15 2.62.27 1.7.36 4.3-.25 7.8v-.2c-.16 1.04-.38 1.97-.64 2.8-.27.8-.6 1.56-1.04 2-.22.23-.42.3-.6.3-.15.01-.28-.08-.33-.22l.17-.87.13-1.14c.13-.23.2-1.17.1-2.16-.03-.5-.15-1-.22-1.45l-.27-1.08.04.1c-.88-2.58-2.55-5.15-4.85-6.53.1.05.16.04.66.4-.76-.6-1.8-1.12-2.62-1.5l-1.58-.6c-1.3-.36-2.8-.5-4.3-.36.93-.15 1.93-.23 3-.17 3.8.2 6.3.3 8.7 0 .5-.07.97-.22 1.42-.4l.44.14a10.86 10.86 0 0 1 1.04.4c.5.22.6.2.42.05a3.89 3.89 0 0 0-.46-.34l-.38-.23-.22-.13-.14-.1-.04-.04c.04-.01.08-.01.12-.02.16-.07 0 .1.66-.4.43-.34.68-.66.68-.66.12-.13.26-.38.33-.53a3.24 3.24 0 0 0 .19-.52 2.61 2.61 0 0 0 .09-.58c.01-.2-.02-.5-.1-.73-.06-.12-.12-.23-.2-.33l-.23-.24-.32-.3-.63-.52-.3-.23-.37-.06-.4-.07-.72-.12-2.77-.44-5.46-.8-3.18-.12-1.07-.06-.25.01-.78-.03-2.05.1h-1.15l-1.45-.5-5.28-2.04-2.1-.93c-.68-.3-1.18-.65-1.8-1.04l-.4-.26-.45 1.14.64.4.65.3.17.1c0-.02.17.07.4.15l.75.3c.4.25-.1.15 1.43.78.95.46 2.62 1.03 4.07 1.52-.2.04-.42.22-.42.48a.47.47 0 0 0 .5.5l2.93.06.3.1 1.2-.07.36-.02h.44c-.16.04-1.35.08-1.52.13l2.75-.1 2.15.1c1.7.02-.18-.1.47-.14l3.62.64c2.2.4 4.4.9 6.1.9 2.7.1 3.3 1.2 3.3 1.2a1.9 1.9 0 0 1-.3.9c-.6.8-1.6 1.3-2.8 1.5-2.3.3-4.7.2-8.5 0-3.4-.2-6.8.9-8.3 2.1l-2.4 1.7c-.2.2-.3.5-.1.7.1.1.2.2.4.2-.4.4-.73.8-.97 1.14l.1-.17-.62.88c-.18.25-.34.53-.38.6l-.05.08c-.02.02-.06 0-.1 0l-.25-.04-1.08-.22-.2-.08c-.84-.16-2.02-.6-3.23-1l-3.06-.77-.07-.1-3.4-.82 1.27.32c-.48.07-2.54-.74-5.03-1.2l-.48-.1.1-.34 2.7-6 2.17-5.4c-.26.92.8-1.46.63-.73.36-1.18 1.66-4.55 2.36-5.83l-.1.26 1.02-2.3c.06-.14.2-.48.27-.84a2.71 2.71 0 0 0-.04-1.1 2.37 2.37 0 0 0-1.32-1.6l-8.1-4.17c.13.23-2.08-1.02-1.6-.57-4.48-2.16-7.83-4.6-9.68-4.93-2-1.05-2.3-1.4-3.3-1.97l.5.23-7.56-4.12c-1.4-.72-1.75-.6-4.15-2.06.84.36-.17-.2-1.08-.72.6.32.78.4-.37-.36-.18-.07-.45-.2-.7-.33-.01-.01-.05-.05-.02-.04-1.53-.86-1.28-.67-.6-.25-.04-.01 0 .05.2.2-1.5-1.02-4.3-2.64-4.38-2.93-.55-.35-1-.7-1.5-1.07-.45-.4-.9-.77-1.32-1.17-.85-.77-1.62-1.54-2.37-2.3-1.48-1.53-2.83-3.06-4.22-4.76-.23-.44.46.3 1.3 1.27l-1.96-2.4c.12-.06 1.15 1.36 1.78 2.08-2.15-3-4.83-5.9-7.18-9.58l-.6-.68-.14-.22c-.04.04-.66-.7-1.04-1.23-.25-.57.25-.12-1-1.88-.87-1.47-2.77-3.97-4.07-5.8.66 1 .4.72.06.32-.6-.9-.85-1.48-1.35-2.14l.06-.13c-.18-.06-1.7-2.32-1.96-2.6-.25-.58 1.02 1.34 1.24 1.5-2.44-3.58-1.2-1.8-3.68-5.37-1.42-1.83.12.43-.63-.4-1.2-1.65-2.44-3.2-3.76-5.15l.33.68c-2.35-3.03-3.75-4.84-5.23-6.96l-.43-.5a46.05 46.05 0 0 0-.43-1.17c-.32-.83-.83-1.98-1.5-3.23a23.36 23.36 0 0 0-2.61-3.79c-1.02-1.22-2.24-2.24-3.35-3-.56-.38-1.1-.7-1.6-.95-.47-.25-.9-.43-1.24-.55-1.5-1.24-3.17-2.24-4.92-3.02-.06-.03-.13-.05-.2-.08l.28-.4c.5-.88.57-1.13 1.13-2.58l2.17-1.12c.75-.35 1.3-.96 1.55-1.7.26-.77.18-1.62-.23-2.37l-11.2-21.28c-.32-.7-.9-1.23-1.65-1.5-.8-.28-1.68-.22-2.43.15l-8.88 4.6c-.7.32-1.23.9-1.5 1.65-.28.8-.22 1.68.16 2.43l3.5 6.64c.22.02.47.1.72.26.07.04.14.1.2.16.02.02.05.04.07.07.06.06.12.12.18.2.03.03.05.06.08.1.06.08.12.17.18.26.02.04.05.08.08.12.08.14.16.3.23.47.14.35.27.67.38 1l.06.18.18.55c-.2-.53-.4-1.02-.58-1.43-.3-.64-.64-1.14-1.03-1.4-.38-.27-.75-.3-1-.24a.53.53 0 0 0-.19.06c-.08-.27-.14-.38-.16-.22-.01.06-.02.17-.02.32-.06.04-.1.08-.17.12-.13.1-.2.16-.2.2-.02.06.13.02.37-.07 0 .43.01 1.08-.03 2-.04.77-.12 1.7-.27 2.86l-.45 3.25c-.01.15 0 .22-.01.33-.01.2.02.42.03.63-.02-.06-.03-.12-.05-.18.22 2.03 1.13 3.5 1 4.63a2.94 2.94 0 0 1-.25.87c-1.38.32-2.77.75-4.17 1.33-.63-.02-1.32-.01-1.96.08-.64.05-1.23.1-1.65.2l-.7.14c-4.25.87-7.18 2.5-9.97 4.44-2.78 1.98-5.47 4.38-8.86 7.98-3 3.14-4.8 5.23-6.55 7.38-.87 1.1-1.76 2.17-2.7 3.48l-1.52 2.1-1.7 2.56c-2.4 3.53-4.8 7.4-6.88 11-.84 1.8-2.73 4.76-3.66 6.93a20.34 20.34 0 0 0-.52.76c-.3.76-.7 1.63-1.1 2.33v-.06c-.42 1.14-1.04 2.37-1.23 2.94l-.01-.06-.54 1.38.05-.25c-.74 2-1.4 4.1-1.98 5.95l.2-.12c-.32 1-.5 1.85-.68 2.6l-.33 2.15-.18 2.1c-.01.74-.1 1.55-.1 2.5l-.04-.05c.1 1.2.27 2.26.4 3.27l.4 2.82c.17 1.08.35 2.2.67 3.38-.43 1.07-1.04 3.05-1.34 3.34l-.58 1.52c-.22.4-.65 1.26-.37.5-.62 1.36-.6 1.4-1 2.42l-.78 1.4c-2.5 5.36-4.33 10.05-6.83 15.76a85.03 85.03 0 0 0-2.61 6.16c-.9 2.36-1.8 4.96-2.32 7.77-.24 1.4-.4 2.9-.1 4.42.13.75.4 1.5.75 2.16a5.8 5.8 0 0 0 1.08 1.42c.03-.2.07-.37.17-.54l.23-.4c.03.04.07.07.1.1-.08.1-.15.22-.2.4-.07.22-.01.5.1.78.01.01.02.02.03.02 1.18.9 2.42 1.38 3.6 1.77s2.3.6 3.3.8c5.75.9 11.97 1 18.22.68 6.23-.36 12.5-1.27 18.16-2.93.2-.04.52-.14.8-.23s.5-.18.5-.2c3.46-.95 6.9-2.18 10.16-3.77l1.95-1.02 2.07-1.27c.76-.52 1.6-1.1 2.46-1.78 1.72-1.35 3.46-3.1 4.93-5 .6-.78 1.13-1.6 1.63-2.4l4.07-.03 18.42-.15c.7-.05 1.54-.08 2.45-.1l1.6-.01h1.53c.13.05.27.1.4.14l1.06.42 2.3.88 3.78 1.07-.06-14.88a249.89 249.89 0 0 1 .15-9.18c1.2 1.14 1.58 1.63 2 2.1.43.5.87 1.02 2.45 2.22.35.38.73.74 1.1 1.1.65.55.95.68 1.24.84.3.15.57.36 1.4.9-.08.01.43.36.84.62.4.24.7.42.2.2 3.63 2.2 7.7 3.78 12.62 6.33 1.18.3 3.68 1.56 4.57 1.76.1.15 5.14 2.2 2.18 1.16-.25-.1-.7-.28-.65-.3l-.4-.03c2.82 1.45 5.35 2.1 8.25 3.26-.85-.38-2-.82-1.2-.6l2.7 1.08-.6-.12 4.02 1.6-.5-.33c1.96.8 2.6 1.26 4.9 1.9 1.05.27-1.83-.84.3-.12 2.63 1.04 6.6 2.56 10 3.73-.28-.24.65.07 1.6.35l.07.15c3.7 1 1.26.7 4.9 1.7l.7.03c.43.1.7.16 1.07.27.44.13.86.1 1.17.06a2.93 2.93 0 0 0 1.34-.59c.17-.13.32-.3.48-.52.16-.23.26-.5.33-.67.17-.4.38-.98.67-1.9-.57 1.4-.53.55.24-1.13l-.07.48c.37-.95.46-1.3.75-1.9-.18.6.04.36.6-1.03l-.25 1 .46-1.38 1.85.43 5.78 1.35 2.66.63c.8.18 1.57.46 2.28.7.5.16 1.02.32 1.56.45a23.7 23.7 0 0 0 .81.19l.4.08.52.08.3.04c.1 0 .23.07.26-.06l.33-.53c.17-.28.3-.45.46-.68a10.88 10.88 0 0 1 1.04-1.21c1.52-1.5 3.54-2.57 5.68-2.98s4.4-.16 6.37.62c1.98.8 3.7 2.14 4.92 3.76.17.2.53.8.55.77 1.27 2.14 1.78 4.75 1.37 7.2 0 0-.03.14-.07.4-.03.13-.06.3-.1.47-.02.1-.05.2-.08.33-.05.17-.1.36-.1.55.13.8 1.4 1.4 2.24.9.84-.46 1.2-1.24 1.54-2 1.16-3.1 1.32-7.07.98-10.08zm-124.9-108.8c-.1-.12-.2-.24-.28-.35.66.5 1.04.84.28.35zm-27.54-1.56c-.08.04-.16.1-.24.13-.2.04-.43.07-.64.12.3-.1.6-.18.88-.25zm-1.1 16.37l-3.2-1.58c1.53-2.12 5.23-6.85 6.34-8.48a5.27 5.27 0 0 0 .31-.44c.1-.16.2-.3.18-.3l4.1-5.67s.3-.43.8-1.2c.23-.4.52-.86.72-1.53.22-.7.1-1.52-.1-2.2-.4-1.4-1.04-2.78-.9-4.15.13-1.52.27-3.04.3-4.37.04-1.57-.12-2.84-.27-3.53.18-.02.45 0 .66.15.3.17.56.6.75 1.03.2.46.36.96.47 1.3l.17.57c.26.9.43 1.74.8 2.66a4.56 4.56 0 0 0 .36.69c.14.2.25.36.4.56.15.18.26.36.57.6.3.26.68.42 1.06.4s.73-.2 1-.47c.12-.12.26-.3.33-.4.06-.1.13-.2.18-.32.22-.43.33-.75.5-1.1l.85-2.13 3.8-10.16c.18-.48.32-.94.48-1.3.14-.35.4-.68.43-.65.1-.01.08-.05.32.2.07.08.04.04.06.15s.03.3.03.45c-.01 1.35-.2 2.62-.34 3.87-.16 1.24-.32 2.57-.44 4.04-.01.2-.03.38-.03.62.02.16-.05.16.1.62l.04.1c.01.02.01.02.04.06a.71.71 0 0 0 .12.13c.17.18.5.26.62.23.17-.01.35-.08.47-.18.06-.04.07-.06.1-.1.15-.16.15-.2.2-.27.18-.3.38-.56.6-.76.25-.2.4-.22.44-.2.05.02.13.06.25.2s.25.3.34.5c.1.17.16.34.2.5.02.1.03.17.04.25 0 .04.01.08.01.13.01.08-.02.24-.05.36l.44.58.46.56.2.03c.04.01.04.01.06.02.03.01.05.03.08.05.05.04.1.08.15.16a1.6 1.6 0 0 1 .23.55c.02.17.03.53.03.8v.46l-.03.7c.16.2.26.33.36.42l.17.2c.02.06.04.2.05.2.02.02.05.05.07.1.06.1.1.24.14.4.07.33.1.7.07 1.1a8.93 8.93 0 0 1-.38 2.31c-.18.83-.67 1.92-1.37 2.95a22.98 22.98 0 0 1-1.13 1.52l-1.06 1.4-.58.57c-.13.16-.17.22-.46.53l-.32 1c-.1.3-.2.57-.3.83v-.05c-.3 1.07-.72 2.25-.87 2.78l-.01-.05-.4 1.28.04-.23c-.55 1.86-1.17 3.75-1.75 5.42l.13-.1c-1.27 3.54-1.53 4.9-2.7 8.1l-.01-.05a57.91 57.91 0 0 1-.96 3.13c-4.64-2.28-8.13-3.6-14.55-6.54zm38.62 25.66l-.1-.5c-.02 1.06.01 1.42-.05 2.13-.03-.64-.16-.35-.22 1.22l-.1-1.06.07 2.97c-.03.25-.05.53-.08.8 0 .02 0 .04-.01.06l-.06.84c0 .04-.01.08-.01.1l-.05.84c0 .05-.01.1-.01.16-.02.3-.03.57-.04.86l-.04.84c0 .03 0 .07-.01.1-.01.26-.03.5-.04.74 0 .03 0 .05-.01.08l-.05.64v.04c-.02.2-.04.37-.06.5-.01.08-.03.15-.04.2v.06c0 .03-.01.08-.01.14v.05c0 .03 0 .06-.01.1v.03l-.03.47v.03c0 .04-.01.1-.01.13v.07c0 .05-.01.1-.01.15v.1a3.88 3.88 0 0 0-.02.35v.1l-.07 1.15v.1c-.01.13-.01.26-.02.4v.1c0 .1-.01.18-.01.27v.02c0 .05 0 .1-.01.15-.01.13-.01.25-.02.38v.1c-.02.54-.03 1-.02 1.34 0 .1.01.18.01.25 0-.08-.01-.13-.02-.16v-.02c-.01-.03-.01-.04-.02-.04-.01.01-.02.04-.04.1-.03.1-.06.3-.1.48-.02.1-.03.2-.05.3l-.03.17c0 .02-.01.03-.01.05-.01.05-.02.1-.03.13 0 .01-.01.02-.01.02-.01.03-.02.04-.03.03-.01-.02-.02-.03-.02-.05s-.01-.05-.01-.1c.05 1.28-.1 5.04-.35 6.54l.01-.3-.17 1.9c-.01.16-.02.3-.04.46l-.1 1.46c-.01.08-.01.16-.02.23l-.52 7.7-.28 2.74c.16-.2-.15 2.4.1 1.78-.27 5.17-1.26 9.36-.88 11.27-.2 2.35-.42 2.76-.58 3.97l.03-.56-.5 4.88-.42 3.46v.12l-.1.02c-.06.02-.12.03-.17.04l-.2.05c-.14.02-.3.03-.44.05-.64.07-1.43.12-2.9.08.95-.1-.25-.1-1.35-.1.7-.02.92-.06-.52-.13-.2.03-.52.05-.8.07-.01-.01-.07-.01-.04-.03-1.83.04-1.5.08-.66.1-.04.02.03.04.3.06-1.9-.13-5.3.04-5.53-.14l-13.14.35c.3-.56.56-1.12.8-1.66 1.6-3.78 2.15-6.53 1.75-5.95-.15.18-.4.68-.8 1.57l.56-1.64 2.3-7.33-1.64 6.75c-.4 1.94-.22 1.84.23.87.44-.98 1.13-2.86 1.7-4.5l1-3.02c3.63-11.06 4.83-16.96 8.26-30.36L236 149.4c.98-3.78 1.96-7.6 3.3-13.78 1.32-5.88 2.64-12.16 3.38-18.08a10.96 10.96 0 0 1 .04-.55v-.15c0-.02-.01.03-.01.03l.05-.4c.05-.44.13-.9.17-1.38l.07-1.5c-.02-.52-.03-1.05-.07-1.58-.2-2.14-.9-4.28-1.77-5.8-.17-.42-.34-.85-.55-1.25a22.14 22.14 0 0 0-.98-1.38 29.58 29.58 0 0 1 1.34 1.13c.26.23.5.48.75.73l.04.04c.22.23.44.47.65.72.03.04.07.07.1.1.2.23.38.48.57.73.04.06.1.1.13.17.22.3.44.64.65.98-.42-.83-1.2-1.76-.64-1.16.3.38.54.8.8 1.2.25.4.5.82.72 1.26l-.37-.5c.66 1.27 1.27 2.58 1.74 3.95l-.1-.6c.34 1 .53 1.7.7 2.45.2.73.38 1.5.76 2.64.36 1.04-.33-2.02.26.18.06.3.1.6.17.93.02.14.05.28.07.42l.06.4.18 1.26c.02.17.05.34.07.5.03.22.05.45.08.68l.07.64.06.64.07.73c.02.2.04.4.05.62l.03.38.03.4c.01.2.03.37.04.56l.05.88.03.47.05 1.32c.12-.35.2.64.24 1.67l-.12.12c.25 3.94-.22 1.45-.1 5.36l-.08-.35.24 1.04.02.6v.2c0 .1.01.2.01.3v.48c0 .1 0 .2-.01.28v.05c0 .07-.01.13-.01.2 0 .03-.01.07-.01.1 0 .05-.01.1-.01.13 0 .02 0 .04-.01.06-.07.6-.17.94-.13 2.56l.03.9c.06-1.5.32-.68.17 1.24z"/><g fill="#fff"><circle cx="219.03" cy="75.85" r="1.06"/><circle cx="220.49" cy="78.73" r="1.06"/><path d="M253.34 176.5l.04-.17c-.02 0-.03.04-.04.17zm-.14-43.9c0-.01-.01-.02-.01-.04.01.03.01.04.01.04zm1.5 37.18h0c0 .03 0 .04.01.05v-.05z"/><path d="M254.36 178.64l.3-5.35.04-3.5c-.1-.54.03-1.48-.06-2.1l.08-.24c-.03-.22-.05-.47-.01-.7l.02.01c-.05-.33-.01-.7-.03-.85v.01-.4l.03.07a10.34 10.34 0 0 1 0-1.67l-.1.04c.12-1.1-.05-1.5.08-2.5l.02.01c-.2-1.26.2-1.98-.01-3.28.03.16.05-.07.07-.06-.02-.6-.02-1.23-.2-1.24.01-.43.06-.35.12-.4-.08 0-.1-.38-.1-.7l.03.16-.02-.97-.14.2c.04-.5.17-.13.14-.62l-.12.01c.03-.7.2-1.13.3-1.82l-.15-8.62.08-.12c.13-.05-.2-.73-.1-.84l-.07-.3c.02-.1.04-.27.07-.12 0-.3-.02-.3-.07-.5l.07-.3c.02-1.13-.16-2.1-.18-3.28.1-1.44-.16-4.12-.33-5.67-.3-2.17.07-4.73-.3-6.95.01-.07-.04-.26-.05-.26l-.1-2.04-.4-4c-.24-1.53-.53-2.1-.8 1.7l-.03-.05c.01 1.12.04 1.82.24 2.58-.16.13.04.92 0 1.18h-.02c.18.67-.02 1.4.14 2.06-.02-.02-.06-.04-.08-.2.05.48.13 1.13.03 1.17l.33 3.46-.03-.05c.13.4.05.54.12 1-.01.03-.02.06-.02.05.13.45.08 1.32.15 1.7l-.07.03.06.9v-.34c.2.1-.08.7.06 1.34.01.6.43 1.23.37 1.87.1.3-.15-.26-.07.2-.1.02-.07-.2-.14-.1.06.44-.07.74.02 1.28l-.07.03c.16.7-.05 1.36.1 1.83.1.74-.2.5-.04 1.27l-.1.3c-.01.33.13.23.1.6-.06-.02-.04.46-.1.25-.07.83.18 1.68.04 2.77.13.23.07.78.16.96-.05.03 0 1.1-.12.5-.01-.05-.01-.15.01-.14l-.07-.07c-.13.62.1 1.13.07 1.74.02-.18.01-.42.07-.26v.57l-.06-.12-.03.85.08-.12c-.04.42-.17.56-.06 1.03.06.2.1-.4.13.05l-.16 2.1c.1-.07.08.13.1.32h-.07c.1.76-.17.28-.1 1.03l-.05-.07.15.2c.14.68-.16.36.04 1.12-.01-.3.17-.14.13.23l-.07-.1c.01.2.04.27.03.4-.04-.12-.1-.06-.1.23l-.1-.2.13.56c-.08.43.01 1.12-.1 1.3 0 0-.06.93.05 1.15-.07-.2-.1.33-.18.18.07.24.13.96.04 1.24l-.01-.05c-.1 1.06.1 1.8-.04 2.76.1-.04.03.46.14.34.1 1-.26 1.8.07 2.15.01.45-.1.53-.1.76l-.02-.1-.01 1.7c.03.3.18.36.13.92-.06-.18-.05.05-.06.25-.01-.13-.03-.18-.08.1.02.04.03.1.04.15-.01 0-.01.01-.02.01.01.35.04.3.05.13.01.01.02 0 .04-.05-.1.36-.02 1-.13 1.05l.1 2.67c-.06.1-.1-.1-.12-.36v.62c-.08-.01-.04-.36-.05-.55-.15.73.1 1.52-.06 2.38l.06.18v.05c.03 0 .07.2.08.32-.07.12-.16-.01-.17.4-.08.34.01.96.03 1.4.02-.24.06-.16.08-.06 0 .2-.08.33-.05.5h-.1c.1-.08.08.56.12.64-.07.12-.05-.33-.1-.4l-.03 1.28c.06.46.1-.08.17.14.01.4.06.8-.01 1.26l.1-.14c.04.76.02 1.2-.1 1.72.5 5.66.9 1.22.9 1.22.28-2.2.07-3.36.1-6zm-76.86 13.42l.25.13c0-.02-.06-.05-.25-.13zm45.5-42.42l.02-.07c-.01.05-.02.07-.02.07zm-34.9 45.4h-.02c-.03 0-.05.01-.07.01l.1-.01z"/><path d="M173.93 191.62c.83.5 1.57.8 2.2 1.13l1.82.72c1.2.4 2.4.72 4.37 1.04 1.86.35 3.9.57 5.78.53l1.7-.12c.64-.02 1.3-.1 1.8-.24l.42.01 1.13-.25-.02.03c.52-.2 1.13-.28 1.38-.4v.03l.62-.23-.1.07 1.33-.52 1.24-.56-.1-.05c.87-.3 1.37-.7 1.9-1.02.52-.3.98-.66 1.68-1.1l-.01.03 2.07-1.72c.67-.5 1.27-1.1 1.94-1.93-.17.2.1-.05.1-.02.7-.7 1.3-1.56 1.2-1.67.46-.54.4-.4.52-.44-.07-.05.33-.53.65-.98l-.13.22.92-1.3-.3.17c.53-.66.27-.07.7-.74l-.1-.06 1.87-2.34c2.5-4 4.34-8.68 6.32-12.54l.16-.14c.15-.02.3-1.17.48-1.28l.15-.5c.08-.12.22-.38.15-.14.2-.43.18-.44.28-.77l.27-.43c.8-1.67 1.23-3.18 2-4.95 1.03-2.1 2.5-6.22 3.33-8.6 1.1-3.38 3-7.06 4.03-10.55a1.39 1.39 0 0 0 .11-.41l1.14-3.12s1.36-3.8 2.04-6.2.77-3.4-1.72 2.2v-.1c-.66 1.7-1.05 2.76-1.34 4-.23.13-.5 1.4-.7 1.78v-.04c-.25 1.1-.88 2.1-1.13 3.15 0-.04-.04-.08.04-.3-.24.74-.58 1.75-.7 1.77-.6 1.75-1.57 4.16-1.84 5.33v-.1c-.14.67-.3.83-.5 1.55-.03.03-.05.08-.05.07-.17.73-.76 2-.94 2.6H222l-.52 1.38.2-.5c.1.24-.5 1-.8 2.03-.4.92-.4 2.02-.87 2.95-.1.5.03-.46-.18.25-.1-.01.07-.34-.07-.2-.22.7-.54 1.06-.83 1.9l-.08.01c-.32 1.13-.94 2-1.12 2.76-.42 1.13-.52.65-.9 1.86l-.3.4c-.23.48-.04.4-.32.93-.04-.06-.35.67-.26.32-.62 1.2-1 2.54-1.9 4.07-.05.4-.5 1.18-.54 1.47-.07.02-.8 1.6-.46.65.03-.08.1-.22.1-.2v-.14c-.57.84-.75 1.67-1.2 2.55.15-.25.32-.6.25-.35l-.43.82.04-.2-.7 1.2.16-.13c-.36.57-.6.72-.85 1.43-.1.33.4-.5.08.13-.45.78-1.27 1.85-1.88 2.8.13-.04-.04.22-.2.5h-.08c-.6 1.05-.4.27-1.03 1.3l.02-.12-.06.35c-.53.96-.44.4-1.04 1.46.3-.37.27-.07-.13.36l.04-.16c-.2.26-.24.36-.4.52.1-.17-.02-.15-.3.23l.14-.3-.48.78c-.48.5-1.22 1.32-1.48 1.46 0 0-.26.27-.56.56-.28.3-.64.6-.72.75.18-.25-.46.27-.33.06-.24.3-1.04 1.12-1.48 1.3l.06-.06c-1.38.93-2.3 1.73-3.68 2.3.1.05-.64.34-.42.36-.67.4-1.38.55-1.94.72-.55.2-1 .27-1.23.5-.7.18-.83.13-1.2.18.05-.01.1-.03.16-.05-1.3.22-1.7.32-2.68.35-.5.05-.56.27-1.45.2.3-.06-.08-.05-.4-.06.2-.01.28-.03-.16-.08-.06.02-.16.03-.25.04 0-.01-.02-.01-.01-.02-.56.01-.46.04-.2.05-.01.01.01.02.1.04-.57-.08-1.6-.1-1.67-.22-1.67-.13-2.87-.24-4.26-.47-.14-.1.2-.06.6-.01a11.22 11.22 0 0 1-.98-.18c.03-.08.57.1.87.12-1.14-.35-2.42-.38-3.7-.9l-.3-.04-.07-.04c-.01.03-.3-.03-.5-.1-.16-.13.07-.15-.57-.38-.46-.3-1.4-.57-2.04-.9.33.2.2.17.05.1-.3-.16-.44-.32-.68-.42l.02-.1c.06.16-.8-.37-.94-.42-.13-.16.48.23.58.23-1.15-.74-.6-.33-1.7-1.12-.64-.37.06.15-.28.01-.54-.35-1.07-.72-1.6-1.23.04.07.08.15.13.22-.97-.74-1.5-1.26-2.03-1.9-1.72-1.5-2.58-2.46-3.04-2.9-.46-.45-.5-.35-.38-.04.14.34.48.88.8 1.33s.6.8.6.8c1.16 1.45 2.2 2.4 3.36 3.35s2.48 1.84 4.42 2.88zm25.25-77.74l-.1.1c.01.01.05-.01.1-.1zm-19.1 31.92c0 .01 0 .02-.01.03.01-.02.01-.03.01-.03zm14.82-27.92h0c.01-.02.01-.03.02-.04l-.02.04z"/><path d="M200.46 112.74l-.94-.5-.25-.13c-.04-.02-.08-.06-.12-.05l-.08.1-.3.4-.8 1-1.37 1.86-1.68 2.47c-.15.45-.7 1.04-.93 1.54l-.18.13c-.07.17-.18.37-.3.5v-.02c-.1.26-.3.5-.37.63v-.02l-.18.28.01-.06a7.92 7.92 0 0 1-.76 1.2l.1.02c-.6.73-.64 1.1-1.2 1.76v-.02c-.4 1.02-1.05 1.34-1.46 2.38.05-.13-.07.03-.08 0-.25.44-.52.9-.38 1-.2.3-.2.23-.3.23.06.04-.08.33-.23.57l.05-.13-.42.72.2-.06c-.27.35-.2 0-.4.38l.1.06c-.33.5-.67.72-1.05 1.18-1.32 2.06-2.36 4.5-3.63 6.4l-.13.05c-.13-.02-.14.64-.28.66l-.05.25c-.05.06-.15.18-.1.05-.12.22-.1.23-.15.4l-.2.2c-.5.83-.76 1.62-1.22 2.53-.34.52-.72 1.3-1.1 2.13l-.87 2.3c-.56 1.8-1.83 3.6-2.36 5.42-.04.05-.06.2-.05.22l-.7 1.6-1.24 3.17c-.2.62-.3 1.05-.14 1 .17-.02.65-.56 1.52-1.92l.01.05c.44-.85.68-1.4.8-2.06.2-.03.32-.7.46-.9v.02c.1-.6.56-1.06.67-1.62 0 .03.04.05 0 .17.14-.38.3-.9.42-.9.35-.9.9-2.15 1-2.8v.05c.04-.37.16-.43.27-.82.02-.01.04-.04.04-.03.05-.4.43-1.04.52-1.34l.07.01.3-.7-.13.26c-.12-.17.33-.5.47-1.04.25-.46.1-1.12.43-1.57.03-.27.03.27.14-.1.1.03-.02.2.1.13.13-.36.35-.52.5-.96l.08.02c.16-.6.62-.98.7-1.4.23-.6.4-.27.56-.92l.2-.18c.14-.24-.01-.24.18-.48.05.05.23-.32.2-.13.43-.57.56-1.32 1.16-2.05-.01-.24.28-.6.28-.78.06.01.48-.8.3-.3-.01.04-.06.1-.07.1l.03.1c.38-.4.4-.87.7-1.3-.1.12-.2.3-.17.16l.25-.42v.12l.4-.6-.12.05c.2-.3.4-.32.5-.72.04-.2-.26.23-.1-.1l1.05-1.45c-.1 0-.02-.13.06-.3h.07c.24-.6.26-.12.53-.7v.07l-.04-.22c.18-.57.3-.18.46-.83-.12.22-.2.01-.01-.23v.1c.08-.15.08-.22.16-.3-.02.1.06.1.18-.12l-.01.2.14-.48c.26-.27.5-.82.66-.9 0 0 .47-.64.48-.85-.03.17.23-.18.23-.03.05-.2.32-.76.52-.92l-.02.04c.56-.7.75-1.35 1.28-1.96-.1-.02.18-.35.03-.32.37-.76 1.04-1.14.92-1.58.2-.33.32-.33.44-.48l-.04.1.8-1.2c.12-.24.01-.36.32-.73-.03.16.07 0 .17-.15-.06.1-.06.14.1-.03 0-.04.02-.1.04-.13h.02c.15-.26.1-.22.02-.12 0-.01-.02-.01-.06.02.24-.2.5-.7.6-.67l1.16-1.95c.1-.04.03.13-.07.32l.3-.44c.06.05-.14.27-.22.4.47-.43.64-1.12 1.17-1.64l.04-.16.03-.03c-.03-.02.03-.18.1-.27.1-.04.15.06.24-.06.03-.01.05-.03.07-.06l.03-.06c.01-.01.04.01.05.01.1.02.15.01.3.08-.15-.1-.08-.1-.01-.1.16.08.22.2.36.23l-.03.1c-.02-.1.47.13.54.13.06.1-.28-.08-.34-.05l.98.5c.38.1-.02-.1.18-.1.3.14.64.24.96.47l-.07-.13c.6.24.94.42 1.3.7 4.58 1.6 1.33-.37 1.33-.37-1.63-1.02-2.6-1.24-4.63-2.22zm51.04 100.02c-.9 0-2.16-.12-3.74-.58-3.33-.97-4.46-3.84-4.5-3.96-.1-.26.03-.55.3-.64a.5.5 0 0 1 .65.3c.01.02 1 2.52 3.85 3.35 2.94.86 4.68.44 4.7.44a.501.501 0 1 1 .25.97c-.05 0-.57.13-1.5.13zm-92.05 15.44l.18.07c0-.02-.05-.04-.18-.07zm46.3-8.5l.03-.03-.03.03zm-39.06 10.37h-.01c-.02 0-.03 0-.05.01l.06-.01z"/><path d="M156.96 228.82c2.5.6 3.18.84 5.85 1.08l3.88.17c.6-.1 1.64.05 2.33-.1l.27.07c.24-.04.52-.07.76-.04l-.01.02c.36-.06.76-.04.94-.07l-.01.02.44-.03-.07.04c.62-.1 1.26-.15 1.83-.17l-.05-.08c1.22.01 1.65-.2 2.74-.22l-.01.02c1.34-.4 2.2-.07 3.57-.54-.17.06.08.03.07.05.64-.13 1.33-.26 1.3-.43.47-.08.4-.01.46.04-.02-.07.4-.17.75-.24l-.16.06 1.05-.2-.23-.1c.56-.05.17.15.7.02l-.03-.1c.78-.1 1.26-.03 2.02-.1l4.68-1.15 4.5-1.24.15.04c.1.1.7-.45.85-.37l.3-.17c.1-.01.3-.05.15.03.3-.1.3-.12.5-.23l.35-.04c.6-.18 1.14-.38 1.68-.6l1.68-.74c1.54-.4 4.17-1.85 5.63-2.75 2-1.32 4.65-2.44 6.45-4.2.08-.03.2-.2.2-.2l1.7-1.53 1.1-1.16.92-1.15.78-1.2c.43-.75.6-1.38.4-1.3-.2.07-.72.8-2.2 2.2l.01-.06c-.8.9-1.36 1.4-1.83 2.1-.2-.03-.74.65-1 .8l.01-.03c-.44.6-1.22.9-1.7 1.42.01-.03 0-.07.12-.18-.4.33-.93.8-1.02.74l-3.07 2.16.03-.05c-.34.32-.5.3-.9.6-.03 0-.06.01-.06.01-.37.35-1.24.73-1.6.93l-.05-.05-.88.45.34-.15c-.03.22-.72.23-1.3.65-.6.3-1.1.9-1.76 1.1-.27.2.22-.24-.22.01-.05-.08.2-.14.04-.17-.43.23-.77.22-1.3.5l-.05-.06c-.67.44-1.4.45-1.86.74-.74.32-.6-.03-1.33.38l-.34.01c-.34.1-.2.2-.6.28 0-.07-.5.12-.3-.02-.87.22-1.7.65-2.9.83-.22.2-.8.28-.97.42-.04-.04-1.16.32-.54.02.05-.02.15-.05.15-.03l.06-.1c-.7.05-1.16.42-1.83.53.2-.02.46-.08.3 0l-.6.13.1-.1-.9.17.14.05c-.45.06-.64-.03-1.1.18-.2.1.44.01-.02.13l-2.27.35c.1.07-.12.12-.33.17l-.04-.07c-.8.24-.33-.1-1.12.1l.06-.06-.18.2c-.7.27-.42-.1-1.2.25.32-.07.18.14-.22.17l.1-.1c-.22.05-.28.1-.43.1.12-.06.05-.1-.27-.05l.2-.13-.58.23c-.48 0-1.2.22-1.4.15l-.53.08c-.28.04-.6.1-.7.16.2-.1-.37-.05-.22-.15-.25.1-1.02.26-1.33.22l.06-.02c-1.15.07-1.94.34-2.98.3.05.08-.5.08-.35.18-1.06.2-1.95-.1-2.33.24-.5.03-.58-.07-.83-.08l.12-.02-1.85.05c-.34.03-.4.18-1 .13.2-.06-.05-.05-.28-.06.15-.01.2-.03-.1-.08-.04.02-.1.03-.17.04 0-.01-.01-.01-.01-.02-.38.01-.3.03-.14.05-.01.01.01.02.06.04-.4-.1-1.1-.02-1.14-.15-1.13-.07-1.96.02-2.9-.06-.1-.07.13-.1.4-.08l-.67-.06c.02-.08.4 0 .6.01-.77-.24-1.65-.05-2.56-.33l-.2.03-.05-.02c0 .03-.22.04-.36.03-.12-.1.04-.16-.42-.23-.35-.12-1.02-.17-1.5-.24.25.07.16.1.05.1-.23-.05-.34-.15-.52-.16v-.1c.07.1-.6-.04-.7-.03-.1-.1.36.04.43-.01l-1.34-.35c-.5-.06.06.1-.2.13-.43-.1-.85-.2-1.3-.4l.12.13c-.8-.2-1.26-.4-1.75-.68-2.94-.9-3.3-1.18-3.02-.74.34.43 1.44 1.04 1.44 1.04 1.1.63 2 .96 2.97 1.24.97.3 2 .52 3.44.82z"/></g></svg>