<svg xmlns="http://www.w3.org/2000/svg" viewBox="0 0 480 480" xmlns:v="https://vecta.io/nano"><path d="M204.5 207.6l.92.06c-.01-.03-.24-.05-.92-.06zm35.67 1.85h-.05l-.24.02.3-.02zm76.8-22.98l-.73-.53c0 .03.2.16.73.53zm1.7 21.83l.2.04-.2-.04zm-30.15-42.16l.03.03c.04.03.02.02.04.03.04.02.07.04.1.06l-.12-.07c.04.02-.02-.03-.05-.05z"/><path d="M361.96 207.7c-1.9-1.1-6.3-2.2-9.4-3.5-7.4-3.2-13.5-4.8-18.8-7.3-3-1.5-41.3-27.5-45.6-30.1-4.17-3.05-8.44-9-10.35-11.84l-27.1 14.24-2.77 1.68s10.1 15.1 15.9 19.5c6.7 5.3 17.2 8.2 31.4 12.3s26.5 6.7 37.5 9.5c1.7.4 3.4 1.3 5.8 1.6 2-3.5 5.8-5.8 10.1-5.8 6.4 0 11.6 5.1 11.6 11.5 0 1.1-.2 2.2-.5 3.3.1.2.2.4.4.5 3.6 1.7 4.8-14 1.8-15.6z" fill="#fff"/><path d="M327.44 193.44l-.01-.03c-.01-.01-.02 0 .01.03zm17 14.76l.57-.2-.57.2zm-83.22-82.64l-.3-.54c-.01.03.05.17.3.54zm-25.44 50.64c.04-.03.08-.05.12-.08-.1.05-.1.07-.12.08zm11.72-70.14l.02.02.13.1-.15-.12zm-9.27 68.9l.32-.1c-.02-.03-.1-.01-.32.1zm12.15-15.4l-.06.05c.04-.03.06-.04.06-.05zm.17 11.13l-.01.01-.07.05zm-78.98 37.02l.52.06c-.01-.03-.14-.05-.52-.06zm25-7.57c-.04 0-.08.01-.12.01.08 0 .1 0 .12-.01zm-4.86 9.47h-.03l-.13.02.16-.02z"/><path d="M364.1 213.32c-.1-2.02-.44-3.75-1.02-4.8-.3-.52-.64-.87-.9-.97-.23-.12-.28-.08-.15.02.14.13.48.4.73 1 .26.58.48 1.44.6 2.6s.14 2.6 0 4.34c-.17 1.72-.4 3.84-1.33 5.98l.07-.24c-.25.63-.6 1.2-.96 1.5-.2.13-.36.2-.52.16-.12-.01-.23-.08-.27-.2-.04-.05.01-.1.02-.16l.1-.4.18-.88a10.17 10.17 0 0 0 .15-1.72c-.03-2.23-.6-4.23-1.7-6-.1-.32-.72-1.42-1.68-2.36-.93-.96-2.13-1.76-2.74-2.12l.12.06c-3.2-1.8-7.45-2.24-10.74-.76.08-.03.14-.1.4-.2-1.1.4-2.2 1-3.05 1.64-1 .73-1.64 1.43-1.74 1.46-.27.28-.52.6-.77.92l-.36.5c-.06.08-.12.17-.17.26l-.06.1c.1.17-.98-.1-1.7-.3-.78-.22-1.56-.5-2.37-.77-.82-.28-1.68-.47-2.46-.67-3.2-.8-6.14-1.47-8-1.83l.26.03c-2.13-.4-2.73-.64-5.1-1.15-.13-.04-.3-.1-.26-.1-2.32-.44-6.7-1.6-8.55-2.03l-.1-.1-4.55-1.15 1.7.45c-.63.03-3.4-1-6.72-1.77-3.06-.86-6.32-1.4-9.48-2.4-1.54-.36 1.37.25-.9-.34-.05-.1 1.07.25.5.01-2.24-.6-3.62-1.15-6.37-1.93l-.1-.1c-3.6-.96-6.65-2.24-9-3-1.8-.67-2.36-.98-2.94-1.3s-1.2-.6-3-1.44c-.44-.27-.88-.53-1.3-.83-1.44-.87-1.1-.5-2.63-1.6.06.01-.4-.35-.77-.64-.38-.28-.6-.53-.18-.2l-1.15-1.05c-.4-.35-.75-.77-1.13-1.16-.77-.77-1.52-1.62-2.3-2.5a95.78 95.78 0 0 1-4.92-5.9c-.88-.86-2.6-3.13-3.26-3.8-.06-.14-3.55-4.47-1.47-2.04.18.2.48.6.44.58l.3.25c-.77-1.06-1.52-2-2.28-2.9 2.9-1.43 5.78-2.9 8.42-4.44a3.77 3.77 0 0 0 .78-.48l6.38-3.32s21.25-11.1 14.66-8.76l1.05-.55-2.6-4.45c3.33 4.8 3.8 5.13 3.4 4-.5-1.38-2.4-4.82-2.4-4.82-3.75-6.9-6.2-10.14-11.37-17.9l-5.1-7.83c-.74-1.1-1.48-2.2-2.4-3.43-.9-1.25-1.98-2.62-3.34-4.28-.66-.8-1.35-1.58-2.05-2.38l-2.13-2.3a165.34 165.34 0 0 0-4.32-4.41c-1.5-1.2-3.82-3.64-5.77-4.88a9.36 9.36 0 0 0-.63-.63c-.7-.4-1.46-.9-2.1-1.4h.06c-1.1-.5-2.2-1.27-2.77-1.45l.06-.01-1.33-.58.25.06c-.95-.43-2-.67-3-1-.5-.18-1-.25-1.5-.35l-1.45-.28.14.17c-2-.3-3.42-.26-4.74-.05-1.34.1-2.56.5-4.35.84l.04-.05c-.46.22-.9.4-1.3.6-.1.02-.2.04-.32.07-.2.05-.4.1-.65.16l-.72.27c-.98.38-2 .74-2.27.78l-1.53.72c-.47.12-1.37.55-.64.12-1.4.7-1.4.76-2.38 1.33-.5.23-1 .5-1.5.76-1.35.76-2.5 1.7-3.65 2.57-1.1.92-2.16 1.9-3.2 2.88-2 2.04-3.92 4.2-5.88 6.7-2.52 2.9-5.58 7.5-8.28 12.36-2.73 4.86-5.07 9.98-6.8 13.7-4.72 10.52-11.12 22.32-15.7 33.2-.1.17-.23.5-.34.76s-.2.5-.18.5l-4.5 9.82s-5.42 11.9-8.4 19.48l-.52 1.36-.48 1.3c-.33 1.08.16 2.12.75 2.54.6.47 1.18.48 1.45.45.28-.04.3-.1.13-.16-.18-.07-.66-.13-1.16-.6a1.86 1.86 0 0 1-.35-.46c.3.48.86.8 1.5.8l7.82-.03c-19.47 1 .22 1.28.22 1.28 11.74.27 17.8-.16 31.77-.3l28.27.14 18.5-.13c.7-.06 1.54-.08 2.46-.1l1.87-.02h1.18c.04-.02.02-.1.04-.15l.17-1.36.4-3.3a53.93 53.93 0 0 0 .24-2.74l.26-1.27c.07-1.15.17-2.5.35-3.64l.03.08c.1-1.72.33-3.64.38-4.5l.03.07.2-2.08.02.36a207.59 207.59 0 0 1 .75-8.77l-.16.2c.58-5.2.22-4.47.58-8.35l6.12 7.53c2.37 2.82 4.63 5.6 7.06 8.13.13.17.27.33.4.5.07.12.8.82 1.66 1.34.82.58 1.74 1.07 1.92 1.28.47.28.96.52 1.43.8.38.26 1.23.7.5.37 1.33.7 1.37.7 2.36 1.14a27.67 27.67 0 0 0 1.43.74c5.42 2.4 10.28 3.68 16.18 5.48 3.54 1.1 8.66 2.63 13.9 4 5.25 1.4 10.6 2.64 14.52 3.54 5.5 1.25 11.5 2.67 17.33 4.32l2.2.76c.38.12.76.23 1.15.32l.6.13.32.06.5.07.25.04c.08.02.17.04.2-.06l.26-.42c.2-.33.26-.42.38-.58.2-.3.43-.58.67-.86.48-.54 1-1.05 1.56-1.5 2.26-1.8 5.16-2.6 7.9-2.4.18.01.5.07.77.1.26.03.46.04.5.05 3.3.7 6.24 2.94 7.66 6 0 0 .38.67.7 1.9s.6 3 .16 4.97l-.08.37-.1.46c-.18.42.1.85.4 1.16.37.25.86.38 1.26.32.43-.07.77-.3 1.02-.55.5-.5.78-1.08 1.02-1.65.23-.57.4-1.15.54-1.74.56-2.33.67-4.67.6-6.7zM248.25 171.1c.02-.2.03-.42.05-.63l.13-.07.01.93c-.06-.07-.12-.15-.2-.23z"/><path d="M284.18 163.52l1.36 1.35 2.13 1.98c-.38-.3-.34-.24-.1-.02.13.1.26.27.53.42l.67.42c-.58-.36-.77-.45.4.34.18.1.44.25.7.4.01.01.05.04.02.03 1.52.96 1.27.78.57.3.04.01-.01-.03-.22-.2l4.48 3.08 11.58 7.52c.4.33-.5-.22-1.6-.93l2.67 1.76c-.07.05-1.55-.98-2.38-1.52 3.1 2.23 6.6 4.26 10.25 6.84l.8.46.22.16c.01-.04.87.48 1.42.84.5.4-.13.1 1.72 1.33 1.42 1.03 4.16 2.72 6.1 3.95-1.02-.7-.67-.5-.2-.23.92.6 1.42 1 2.15 1.46l.03.1c.17.03 2.5 1.55 2.85 1.72.5.4-1.48-.88-1.74-1l2.8 1.8.88.55c.2.13.46.3.8.48l.56.32c.2.1.44.2.7.32 2.2.9-.36-.25.72.13 1.93.82 3.87 1.47 6.1 2.34l-.7-.34c3.72 1.27 5.93 2.05 8.36 3.1 1.72.6 3.22 1.24 4.57 1.73 1.36.48 2.56.83 3.6 1.14 2.08.6 3.52 1.04 4.45 1.42 1.83.82 1.7.7.83.1-.97-.66-2.84-1.35-4.46-1.93l-2.95-1.05c-.66-.25-1.3-.5-1.9-.76l-1.83-.8c-1.2-.5-2.35-.96-3.47-1.4-2.25-.85-4.38-1.58-6.57-2.34-2.18-.77-4.43-1.56-6.8-2.63-1.1-.56-2.3-1.34-3.55-2.13l-4.03-2.6-23-15.5-15.12-9.95c-1.02-.76-2.36-2.1-3.62-3.6-.58-.66-1.15-1.34-1.7-2-.48-.35-.9-.58-1.05-.45-.25.22.17 1.06.52 1.68.42.53.9 1.08 1.46 1.73z"/><path d="M225.1 168.35c.28-.2.34-.58.32-1l-.5-.93c-.64-.87.66.72-.2-.64.1-.12.45.6.36.2-.82-1.34-1.1-2.34-2.1-4l.07-.13c-1.4-2.12-2.12-4.28-3.1-5.66-1.32-2.25-.5-1.72-1.98-4l-.34-1c-.5-1.04-.57-.64-1.1-1.82.13.02-.67-1.5-.23-.86-1.18-2.67-2.9-5.16-4.24-8.75-.54-.67-1.2-2.48-1.56-3 .02-.12-1.42-3.57-.45-1.64.08.17.2.47.16.46l.2.2c-.6-2.1-1.55-3.62-2.18-5.67.16.62.44 1.4.18.9l-.6-1.9.22.36-.62-2.36-.15-.07s-1.2-3.92-2.05-3.5c-.63.32-.18 2.63.1 3.85.67 2.44 1.52 4.84 2.44 7.16 1.92 4.82 4.18 9.38 6.17 13.65l.06.44c-.1.26 1.47 2.16 1.46 2.57l.6.92c.1.3.37.88.08.42.46.9.5.9.9 1.52l.4 1.02c1.78 3.57 3.6 6.43 5.57 10.14.44.93 1 2 1.62 3.18.18.04.35.04.5-.07zm5.38 9.98l-.01-.3.24.5a3.64 3.64 0 0 0 .23.39l.1.17c.01.01.02.03.03.04l.15-.1.36-.23c.2-.26-.3-.03.08-.37l2.04-1.1c-.05.13-.82.5-.56.5.1-.13 1.18-.7.97-.76l.1.12c.26-.2.52-.2.88-.4.15-.13.25-.25-.16-.06.72-.45 1.7-1.15 2.3-1.35.72-.4.57-.13.83-.14.2-.13.5-.37.47-.42l.1-.03.25-.25c1.55-.6 2.67-1.67 4-2.13-.3.2-.93.45-.87.58l1.03-.58c-.4.26-.72.5-.5.5l4.37-2.63c.16.12 1.18-.58 1.86-.78-.1.02-.13.01-.12-.01-.28.13-.4.16.17-.2 0 .02.02.01.02.02a.92.92 0 0 0 .23-.2c.5-.18.44-.1.23.02.35-.2.73-.4.47-.15.97-.44.93-.72 1.43-1.04l2.87-1.55-.17.12c.4-.18.62-.1 1.36-.53.34-.82 1.96-1.05 3.54-2.08-.3-.05.6-.43.45-.52 1.7-.7 2.8-1.66 4.66-2.48l-.08.06c.55-.13 1.7-.86 2.06-1.2-.2.25.7-.17.44.1.28-.35 1.9-1.1 1.9-1.1.38-.01 1.47-.76 2.27-1.04l.85-.7-.27.3c.5-.28.64-.24.47-.07.24-.1.33-.2.66-.4l-.1.2c.64-.28.77-.68.28-.4 1.12-.97.82-.24 1.85-1.06l.14-.27.07-.14-.07.14c1.2-.8.6.03 1.8-.8l.1.1c.32-.2.65-.37.47-.43l1.46-.64c.06-.03.3-.03.22-.12-.01-.07-.04-.16-.06-.25-.04-.06-.07-.08-.1-.1-.02-.01.01.07-.01.08-.01.05-.03.1-.1.08l-.04-.01a1.35 1.35 0 0 1-.09-.11l-.15-.22a2.13 2.13 0 0 1-.2-.4c-.1-.26-.18-.53-.36-.9v.26l-.77-1.43.2.14-.54-.95c-.23-.22.02.17.16.5-.28-.52-.62-.94-.95-1.37l-.46-.68-.1-.18-.06-.13c0-.03.01-.06.02-.1a.36.36 0 0 1 .1-.07c-.03.02-.01.06.02.07.02-.02.13.14.16.15.04.04.06.05.07.03s-.01-.06-.04-.12l-.07-.15c-.05-.12-.14-.28-.13-.34-.05-.02-.16.07-.26.14-.05.03-.1.07-.13.1l-.03.03-.1.07c-.06.05-.1.1-.15.14-2 .7-3.26 1.8-4.75 2.37.32-.28-.5.16-.5.05-.66.25-.4.37-.97.63l-.6.1c-1.2.9-1 .25-2.22 1-.72.6-1.98.8-3.1 1.64l-.1-.1c-.9.57-1.5.6-2.2 1.06-.26-.01.16-.16.06-.3-.72.5.08-.34-.37.05-1.16.42-1.93 1.57-3 2.07-1.03.75-2.22.8-2.28 1.17l.6-.27-1.53.8-.1-.08c-.6.4-2.15 1-2.84 1.56 0-.01-.06.01-.1.01-.75.5-1.03.46-1.66.98l.06-.08c-1.13.87-3.88 2.2-5.8 3.22-.14-.12-1.22.5-2.02.95.26-.14.24-.22.28-.26-1.03.75-2.44 1-3.5 1.8l.03-.04c-.5.14-1.73 1.06-2.06.9-1.2.88-2.4 1.47-4.37 2.33l.06-.1-4.53 1.46-.58.3 1.34 2.43 1.4 1.96c.34.93.74 1.7 1.54 2.9zm-77.26 29.97c.74.08 1.7 0 2.8-.04l-.44-.14c1.38.1 2.55-.02 3.76-.06.65-.14-.96-.17.4-.3l3.83-.03c-.16.1-1.5.08-1.15.2.24-.07 2.15-.08 1.9-.23l.06.16c.5-.05.86.06 1.5.06.3-.04.53-.1-.18-.13l4.18-.13c1.27-.01.88.14 1.25.26.38-.02.96-.1.95-.15l.15.02.53-.1c2.57.2 4.9-.25 7.1-.04-.57.03-1.6-.02-1.63.1l1.84-.04c-.75.04-1.36.12-1.07.22l7.95-.33c.13.18 2.06.03 3.13.16-.15-.03-.2-.05-.17-.07-.48-.01-.66-.05.38-.1-.02.01.02.02.02.03l.46-.07c.82.07.7.1.3.13.62 0 1.3-.02.76.08 1.66.06 1.8-.2 2.73-.27l5.1-.06-.32.03c.7.03.94.2 2.27.16 1.06-.57 3.48-.02 6.4-.22-.37-.18 1.13-.1 1-.25 2.84.16 5.08-.18 8.24-.05l-.16.02c.85.14 3 .02 3.7-.1-.44.14 1.1.18.54.3.64-.2 3.43-.1 3.43-.1.53.17 2.6 0 3.9.12l1.68-.23-.6.15c.9-.02 1.06.1.7.15.4.02.6-.03 1.2-.05l-.28.12c1.1.05 1.56-.25.67-.22 2.24-.34 1.3.16 3.33-.1l.4-.17.2-.1-.2.1c2.24-.14.8.3 3.07.13l.07.12c.6-.03 1.16-.03.96-.17l3.32.1.2.01c.07 0 .05.01.08.01h.1c.06 0 .2.06.2 0l.1-.3.05-.3c.1-1.3-.17.48-.2-.16-.02-1.4.25-1.82.46-3.05l-.17.33.35-2.5.06.36.14-1.04c-.08-.08-.1.12-.14.24.02-.1.02-.2 0-.26-.1.01-.2.05-.25.08-.02.01-.02.01-.05.02l-.32.02-.64.02c-.43 0-.88-.02-1.34-.08l.22-.12c-.02.04.26.04.42.02 1.84-.2-1.36-.12-1.45-.2-.53.15-2.17.03-2.88.24-3.26-.28-5.8.12-8.28-.04.64-.1-.8-.08-.74-.2-1.1-.08-.8.15-1.8.12l-.9-.17c-2.3.24-1.58-.23-3.8-.13-1.43.22-3.33-.17-5.48.05l-.07-.12c-1.64.1-2.5-.13-3.83-.06-.35-.13.33-.07.28-.23-1.36.1.35-.27-.56-.12-1.9-.15-3.8.53-5.62.5-1.96.2-3.65-.3-4 .01l1 .02-2.7.03-.07-.1c-1.1.08-3.7-.07-5.06.1.02-.01-.08-.02-.16-.04-1.4.1-1.76-.06-3 .12l.15-.05c-2.2.27-6.95.2-10.36.23-.1-.17-2.06-.1-3.5-.07.45 0 .5-.08.57-.1-1.96.2-4.12-.2-6.15.01l.07-.02c-.78-.1-3.16.17-3.52-.12-2.3.24-4.4.2-7.73.1l.15-.05-7.82-.68c.04 0-4.03 7.72-2 8.85z" fill="#fff"/></svg>