<svg xmlns="http://www.w3.org/2000/svg" viewBox="0 0 480 480" xmlns:v="https://vecta.io/nano"><path d="M2711.8 107l.5-.12c-.02-.02-.15 0-.5.12zm19.8-3.25h-.03c-.04.01-.1.02-.13.04l.16-.04zM131.44 367.26l.3-.2c-.01-.01-.1.04-.3.2zm.83 30.04h.02c.04.02.07.03.1.05l-.12-.06zm150.03 4.38l-.06-.36c-.02.01-.01.1.06.36zm-2.55-13.88v.02l.04.1z"/><path d="M318.18 421.76l-7.28-24.9c1.15-.7 1.8-2.05 1.48-3.4l-2.3-9.8-2.8.82-1.8-6.12-27.3 6.5 2.05 7.56-3.55 1.04 1.9 7.4c.6 1.8 2.4 2.9 4.3 2.4l.28-.06 4.82 17.76 30.2.8z" fill="#fff"/><path d="M282.6 402.58l.22.01c0-.03-.08-.03-.22-.01zm12.34-13.7l-.05.03c.04-.02.05-.02.05-.03zm-3.07 13.65h-.01l-.06.03.07-.03zm1.43-10.7l.26-.08-.26.08z"/><path d="M162.23 377.76l1.95-1.9-20.44-19.05-1.6 1.43-2.36-2.3-7.1 6.4c-.9 1-1 2.5-.2 3.5l.52.6-16.2 14.53 14.4 26.94 20.68-20.1c.83.64 2.1.64 2.9-.07l9.4-8.1-1.96-1.88z" fill="#fff"/><path d="M142.04 377.85l-.05-.03.05.03zm6.06-12.1c-.03-.02-.04-.03-.06-.04l.06.04zm-21.5 11.6v.07c.02-.02.02-.04-.01-.07zm10.16 11.98c.01 0 .01.01.02.01l-.02-.01zm-9.5-9.38c-.01 0-.01-.01-.02-.01l.02.01zm161.62 28.98l.06.02c0-.01-.02-.02-.06-.02zm14.8-2.78l.01-.01zm-12.3 3.5h0c-.01.01-.01.01-.02.01l.02-.01z"/><path d="M117.37 380.78l-.04.05c.02 0 .04-.01.04-.05zm-5.03 11.02h0zm3.66-9.3h0 0zm204.33 27.05l-.04.01c.01.01.02.01.04-.01zm-1.6.32h0zm7.98 2.35l-.04.01c.01 0 .03 0 .04-.01zm-1.54.35h0v-.01z" fill="#fff"/><path d="M155.4 429.4c-.06-.14-.13-.34-.2-.57-.07.03-.17.06-.3.1l.5.48z"/><path d="M352.3 429.95a13.79 13.79 0 0 0-.35-2.28c.1.4.05-.2.1-.16-.25-1.55-.73-3.2-1.02-3.12-.34-1.1-.22-.92-.15-1.1-.05.02-.2-.2-.36-.52-.18-.32-.36-.75-.73-1.23.1.12.23.27.33.4-.62-.93-1.33-1.38-2.02-1.9l.26.5c-1.05-.84-.1-.45-1.2-1.12l-.1.17-3.82-2.74c-6.48-3.47-13.88-6.06-20-8.97l-.22-.25c-.04-.25-1.85-.4-2-.7l-.77-.2c-.2-.12-.6-.33-.23-.23-.67-.28-.7-.25-1.2-.4l-.68-.4-1-.4-.5-.2c-.25-.08-.47-.13-.7-.17-.7-.1-1.46 0-2.12.33-.02-.05-.03-.1-.06-.16-.5-1.47-.08-1.06-.67-2.56l-.08-.63c-.18-.67-.26-.44-.42-1.2.07.03-.22-.94-.04-.53-.22-.95-.55-1.9-.88-2.94.05-.04.12-.1.2-.17l-.14-.14c.8-.72 1.43-1.22 1.74-2.43.08-.58-.08-1.3-.18-1.68l-.35-1.36-.88-3.24a12.41 12.41 0 0 0 1.11-.49c1.88-.97 3.46-2.44 4.67-4.12 1.22-1.68 2.1-3.57 2.68-5.5 1.16-3.87 1.32-7.85.97-11.6.01-.25-.05-.68-.1-1.05-.03-.18-.05-.35-.07-.48-.02-.12-.04-.2-.04-.2-.44-4.5-1.2-8.95-2.04-13.37 0 0-.76-4.02-1.96-9.23-1.2-5.22-2.8-11.62-4.17-16.5-1.36-4.87-2.45-8.2-2.45-7.33-.01.28.1.98.32 2.18l-.57-2.1c-.72-2.64-1.68-5.8-2.82-9.28l3 8.25c.87 2.33.96 2.12.73.8-.25-1.33-.85-3.78-1.45-5.88l-1.14-3.85c-2.14-7.02-4.05-12.24-6.15-17.75l-7.78-19.36-6.7-16.1-3.2-7.08-4-9.17-8.63-21.3c-.36-.8-.76-1.76-1.18-2.82l-.76-2 .36-2.08.9-5.35-11-.07-9.55.1c-.27-.02-.77-.01-1.2.01l-.55.03c-.14.01-.23.02-.22.02l-15.48-.03s-51.62-.06-36.72.94h-2.55l-1.7 12.46c3.25-30-1.17-1.22-1.17-1.22-2.68 16.62-3.38 25.3-6.26 45.12-1.37 8.68-2.52 14.1-4.06 19.46-.4 1.34-.8 2.68-1.3 3.97-.53 1.3-1.16 2.66-1.9 4.07-1.5 2.82-3.47 5.9-6.2 9.47-2.65 3.37-5.65 6.65-8.84 9.7-1.6 1.53-3.25 2.98-4.92 4.37l-5.05 4.1c-1.5 1.35-3.7 3.1-5.9 5.03s-4.4 4.06-5.9 6c-.43.47-.9.9-1.3 1.4-.98 1.4-2.07 3.07-2.93 4.55l.02-.1c-1.15 2.27-2.27 4.92-2.57 6.14v-.1c-.33.97-.62 1.96-.84 3 .02-.18.03-.36.07-.54-.48 2.2-.7 4.55-.4 6.8.27 2.28 1.1 4.4 2.05 6.2l-.03-.37c.5.97 1 1.82 1.5 2.6-.5.53-.92.86-1.42 1.16-4.95 6-.16 2.24-.16 2.24a21.35 21.35 0 0 0 2.47-2.11l.6.82c.96 1.3 1.88 2.36 2.8 3.4 1.82 2.1 3.63 4.03 6.16 6.84l-.1-.05c3.4 3.33 6.02 6.05 8.4 8.92.3.36.6.72.86 1.1l.88 1.17c.4.5.83.97 1.3 1.43l-.87.8c-.73.68-1.46 1.34-2.2 1.97l-1.1.9c-.24.2-.5.26-.8.25l-.1-.14c-.02-.1-.15-.02-.3.03-.16.06-.36.06-.35-.04-.1-.01-.18-.02-.27-.04-.03-.08-.1-.2.01-.16-.12-.12-.22-.2-.44-.34l-.18-.4c-.94-1.23-2-2.04-3.03-3.3-1.08-1.64-3.7-4.23-5.2-5.72-2.2-2.02-3.84-5.17-6.13-7.22-.04-.1-.26-.24-.28-.22l-1.82-2.1-1.3-1.45c-.2-.2-.4-.42-.6-.64l-.3-.33c-.05-.06-.1-.13-.16-.22a2.04 2.04 0 0 1-.27-1.15c.04-.78.44-1.32.14-1.38-.13-.01-.47.1-.9.62-.2.27-.4.66-.5 1.2-.07.54-.05 1.25.42 2-.03 0-.06-.03-.1-.04l.27.35-.03.03-.23.3-.1.06c.03.02-.24.32-.43.5-.24.12-.1-.13-.75.46-.57.42-1.46 1.36-2.12 2 .38-.32.28-.2.14-.03-.33.3-.57.42-.8.67l-.1-.04c.2-.05-.8.85-.9.98-.23.12.47-.5.52-.62l-1.98 1.8c-.66.7.2-.05-.1.32-.6.57-1.18 1.17-1.93 1.77l.28-.14c-.8.78-1.4 1.32-1.98 1.8-.25-.3-.58-.55-.95-.7-.23-.1-.47-.13-.7-.14-.1 0-.27 0-.34.01l-.23.01c-.3.01-.6.03-.9.06-1.2.1-2.44.33-3.87.88.42-.16-.2-.02-.18-.06-1.58.48-3.22 1.1-3.14 1.4-1.1.42-.93.27-1.12.22.05.1-.9.55-1.73.93l.37-.22c-.8.37-1.6.76-2.38 1.16l.57-.02c-1.3.56-.45-.1-1.62.56l.06.1-.5.25c-.7.36-1.3.62-1.94.88l-1.23.52-.13.06c-.03.02-.04.02-.01 0 0 0 .01-.01-.03.01a2.35 2.35 0 0 0-.77.51c-.54.56-.8 1.34-.76 2.05.01.36.1.7.2 1.03.1.2.15.43.24.66l.98 2.78 2 5.57c1.34 3.7 2.62 7.35 3.6 10.8l-.04.34c-.16.2.94 1.78.84 2.1l.36.76c.04.23.16.7-.02.34.24.73.28.74.52 1.25l.14.82c.88 2.9 1.96 5.3 2.95 8.33a32.51 32.51 0 0 0 .44 1.53c.16.65.54 1.37.97 1.94.24.34.46.54.68.8l.7.76 1.43 1.54 5.38 5.63c.52.52 1.04 1.06 1.56 1.62.62.62 1.36 1.15 2.32 1.4a3.07 3.07 0 0 0 .74.1l1.77.1 2.38.14c3.2.2 6.4.37 9.4.24.2.03.7-.03.7-.05l5.5.1 2.8.01 2.77-.03 1.52-.05.77-.04c.38-.01.78-.08 1.15-.17.2-.08.38-.27.53-.44.12-.2.2-.43.26-.67a4.6 4.6 0 0 0 .11-.7c.02-.17.02-.32.03-.48a12.57 12.57 0 0 0-.05-1.67c-.1-1-.27-1.7-.43-1.94-.16-.23-.23 0-.3.84 0 .03-.01.06-.01.1-.03-.32-.06-.64-.1-.9h-.03c-.12-1.08-.55-2.38-1.17-3.8a29.86 29.86 0 0 1 .8 1.55c.26.55.45 1 .6 1.38-.06-.02-.12-.04-.2-.06l.27.25c.01.02.02.04.02.06.01 0 .02-.01.03-.01l.58.54c.06-.66-.13-1.78-.4-2.67-.26-.9-.55-1.6-.55-1.6-.2-.6-.75-1.7-1.28-2.2-.26-.33-.53-.57-.8-.8-.27-.25-.53-.48-.8-.67-1.07-.83-2.13-1.42-3.22-2.02-2.2-1.14-4.6-2.16-7.95-3.5l-.27-.1-.06-.03c-.04-.02-.07-.03-.1-.05l.14-5.6c.04-1.9.06-3.8-.02-6.95-.05-1-.53-1.9-1.25-2.58.47-.44.92-.77 1.53-1.43l.1.02c.98-1.14 2.1-1.9 2.72-2.68 1.06-1.12.9-.56 1.95-1.8l.52-.36c.5-.47.27-.43.85-.93.01.08.73-.64.45-.28 1.3-1.13 2.4-2.54 4.16-4a2.01 2.01 0 0 1 .21-.27c.25.1.33-.02.8.2-.08.12.85.22.43.26.8.17 1.7-.07 2.4-.68.54-.5.95-.9 1.63-1.3.1-.37.76-.76.84-1.04.1.04 1.15-.97.64-.27-.04.06-.14.14-.16.1v.16c.76-.36 1.06-1.03 1.66-1.54 1.54 1.2 3.38 2.22 5.55 2.9-1.22-.42.5.28.4.24a22.68 22.68 0 0 0 6.56 1 23.51 23.51 0 0 0 2.24-.12c.54-.07.86-.17.87-.24 1.68-.12 2.35-.26 2.67-.26.32-.01.28.04.5.06-.02-.06.7-.2 1.74-.5 1.04-.3 2.34-.82 3.54-1.38l-1.1.53c2.33-1 4.47-2.32 6.5-3.76-.44.23-.9.43-1.34.63 1.66-1.07 1.88-1.2 2.1-1.27.22-.08.4-.18 1.9-1.36l-.16-.12c4.24-3.4 6.72-5.42 10.5-9.1 7.6-7.86 14.6-16.73 21.45-25.43l10.2-12.86a115.85 115.85 0 0 0 8.79-13.11c.2-.23.37-.48.56-.72.15-.1.6-1 1.07-2.04l2.68 4.17 1.9 3.04a23.52 23.52 0 0 1 1.56 3.09c.9 2.13 1.54 4.35 1.97 6.6.86 4.5 1.1 9.05 1.2 13.4l-.12.77c-.18.33.4 4.8.2 5.48l.1 2.04c-.04.57-.08 1.78-.13.77 0 1.9.03 1.94.1 3.3l-.1 2.03c.01 3.74.2 7.22.68 10.74.26 1.76.56 3.53 1.05 5.33a25.29 25.29 0 0 0 2.06 5.47c.58 1.12 1.3 2.25 2.15 3.4.84 1.17 1.86 2.35 3.02 3.5 1.2 1.13 2.55 2.2 4.1 3.1 1.54.9 3.28 1.52 5.06 1.88a20.59 20.59 0 0 0 4.12.43c.2 1.15.47 2.08.78 3.05l.3.88.15.46.08.24.05.18.08.18c.35.82.96 1.66 1.94 2.3a4.79 4.79 0 0 0 2.44.85c.37.02.75 0 1.06-.05.03 0 .06-.01.1-.01l.38 1.16c-.12-.48-.04-.34.04-.14.12.43.12.7.24 1.02l-.08.07c.04-.2.4 1.1.48 1.24 0 .26-.24-.65-.32-.74l.7 2.58c.32.9.04-.2.24.23.2.63.4 1.24.57 1.93-.2 0-.4.01-.58.05-.62.15-1.16.6-1.43 1.18-.15.34-.2.53-.26.72-.07.2-.12.4-.16.58-.2.74-.34 1.48-.43 2.2-.06.18-.1.68-.06.68-.3 1.75-.46 3.5-.53 5.28 0 0-.07 1.6.05 3.7.06 1.04.16 2.2.3 3.35.08.57.15 1.14.25 1.68l.14.8c.06.25.06.5.2.86.43 1.2 1.48 1.82 2.16 1.9.7.07.96-.12.78-.2-.1-.08-.45-.14-.85-.4.26.1.54.16.84.15l3.76-.02c-9.34.98.1 1.28.1 1.28 5.64.28 8.54-.14 15.25-.3 5.9.04 7.46.3 13.58.16 2.92.01 6.03-.07 8.87-.12 1.35-.22 3.74-.02 5.34-.2l.62.12c.55-.06 1.2-.1 1.75-.05l-.03.04c.82-.1 1.75-.05 2.16-.1l-.03.04 1-.02-.17.05a43.24 43.24 0 0 1 4.22-.08l-.1-.14c2.8.15 3.8-.16 6.33.02l-.03.04.58-.06c.1-.01.2-.02.28-.02.08-.01.2-.01.34-.03.53-.06 1-.26 1.4-.53.8-.56 1.28-1.4 1.37-2.34l.02-.56v-.5c-.04-.35-.05-.7-.07-1.04zm-205.23-38.22l-.24.1c-.17-.02-.96 1.2-1.2 1.26l-.42.5c-.15.1-.44.36-.23.1-.43.4-.43.44-.7.76l-.5.4c-1.73 1.6-3.06 3.1-4.86 4.8-.13.12-.28.24-.42.37-.17-.1-.33-.2-.52-.26l-.35-.1-.27-.08c-.36-.1-.7-.22-1.07-.36-1.4-.5-2.77-1.16-3.98-1.92-1.3-.53-3.04-2.2-4.22-3.3l-.3-.55c-.42-.37-.83-.88-1.1-1.36h.05c-.55-.63-1-1.45-1.23-1.8l.05.01-.5-.88c.04.05.08.1.12.13a19.62 19.62 0 0 1-1.76-3.96l-.1.15-.9-3.2c-.2-.9-.4-1.8-.3-3.03l.04.03a5.08 5.08 0 0 1-.02-1.35 2.3 2.3 0 0 0-.06-.83l1.7-1.57.05.1c.37.73.82.88 1.48 1.56.5.66.52.93 1.13 1.55.25.32.57.63.84.93.22.06.34.4.57.5v.1c.08.04.16.1.18.17l-.02.01c.12.05.18.17.23.2v.01l.1.1h-.04c.17.12.3.27.4.43l.06-.07c.18.36.4.36.55.7h-.02c.46.2.34.64.8.85-.06-.03-.02.05-.04.06.16.15.3.3.45.2.1.12.04.13 0 .2.06-.05.17.03.25.12l-.06-.02.24.25.06-.14c.1.17-.1.15.04.26l.1-.08c.15.2.1.44.2.68.62.8 1.56 1.46 2.02 2.32l-.04.1c-.1.1.3.08.25.18l.12.05c0 .04.03.1-.03.08.06.08.08.07.16.1l.01.14c.2.35.55.5.8.86.2.5.94 1.13 1.37 1.5.65.47.84 1.5 1.53 1.96 0 .03.08.06.1.05l.46.57s2.25 2.73 1.33-.01h.03c-.2-.35-.36-.55-.64-.67.1-.14-.2-.26-.22-.37h.02c-.26-.1-.24-.45-.48-.56.02 0 .06-.03.1.01-.13-.12-.3-.27-.24-.35-.28-.3-.62-.76-.9-.86h.03c-.18-.04-.14-.14-.3-.23 0-.02 0-.03.01-.03-.2-.05-.32-.35-.44-.42l.05-.05-.22-.24.07.1c-.17.1-.07-.26-.3-.36-.12-.18-.58-.1-.66-.33-.14-.03.17-.02.01-.1.07-.07.1.02.13-.06-.14-.1-.1-.26-.27-.37l.05-.05c-.27-.1-.24-.43-.45-.48-.22-.16.05-.28-.24-.4l.01-.15c-.06-.1-.15.02-.2-.12.05-.04-.07-.16.03-.14-.12-.3-.5-.37-.62-.77-.15.02-.22-.18-.33-.17.03-.04-.25-.3-.02-.2.02.01.04.04.02.05l.07-.03c-.04-.26-.32-.26-.45-.44.02.07.08.13.01.12l-.12-.16.07-.01-.17-.26-.03.08c-.07-.14 0-.26-.2-.32-.1-.02.01.17-.1.07-.1-.2-.22-.46-.37-.67-.05.07-.1.02-.15-.02l.05-.05c-.25-.14.06-.18-.17-.33l-.1.03c-.27-.1.03-.2-.3-.27.08.07-.1.14-.15.02l.08-.02c-.06-.05-.1-.04-.12-.1.06.01.1-.05.02-.12h.1l-.23-.07c-.04-.17-.27-.3-.24-.4 0 0-.18-.3-.3-.27.1.01 0-.15.1-.16-.12-.02-.33-.17-.33-.3l.02.01c-.18-.34-.5-.42-.65-.75-.06.07-.14-.1-.2.01-.3-.2-.24-.63-.6-.5-.12-.1-.06-.2-.1-.27l.04.02c-.2-.2-.27-.27-.4-.45-.1-.06-.23.03-.33-.15.1.01.03-.05-.02-.1.04.03.07.03.03-.08-.02 0-.05-.01-.07-.02-.1-.1-.1-.06-.06-.01-.01 0-.02.02-.02.04-.02-.15-.24-.27-.16-.35-.26-.27-.52-.4-.75-.6.02-.06.1-.04.18.02l-.16-.16c.06-.05.12.07.17.1-.07-.28-.45-.33-.56-.64l-.1-.01v-.02c-.02.02-.1 0-.14-.03.03-.08.13-.1.02-.22-.03-.14-.25-.24-.38-.34.05.07 0 .08-.04.06-.05-.06-.03-.14-.1-.16l.07-.07c-.05.08-.2-.1-.25-.1.03-.08.12.05.17.03-.2-.23-.1-.1-.3-.34-.16-.08-.05.08-.16.07-.1-.1-.25-.16-.3-.33l-.03.1c-.22-.16-.32-.3-.38-.5a6.27 6.27 0 0 0-.54-.29l4.64-4.37 3.94-3.4c.45.53.88.95 1.4 1.33-.1.3.8.96.97 1.3l-.04-.01c.78.56 1.13 1.56 1.87 2.1-.04-.01-.1.03-.25-.13.46.47 1.1 1.1 1 1.24 1.06 1.14 2.45 2.83 3.3 3.4l-.08-.02c.5.3.5.54 1 .96.01.04.03.08.02.08.55.35 1.22 1.34 1.6 1.67l-.06.1.84.9-.3-.36c.34-.08.47.83 1.22 1.37.53.66 1.6.86 2.07 1.6.38.22-.42-.12.08.27-.1.12-.27-.15-.26.05.46.4.54.86 1.12 1.35l-.07.1c.82.6 1.1 1.5 1.7 1.85.7.66.23.73.94 1.3-1.3 1.3-2.6 2.55-3.85 3.7zm12.6-6.9l.17-.14c.02.02.05.04.08.06-.18.12-.34.25-.25.08zm123.43 17.62l-.18.13-.1.02-.28.1c.01.03.02.06.02.1-.03.01-.06.03-.1.04-.16-.1-.04-.25-.48-.22-.34-.1-1-.06-1.45-.27.22.14.12.16-.01.14-.2-.12-.25-.3-.43-.37l.08-.13c-.03.18-.56-.3-.64-.37.01-.17.3.24.42.2-.32-.34-.36-.45-.43-.55-.05-.1-.14-.2-.3-.6-.26-.52-.1.16-.32-.08-.16-.52-.4-1-.46-1.62l-.1.22c-.36-.96-.5-1.55-.53-2.25-.08-.2-.15-.36-.23-.52 1.65-.08 3.26-.3 4.77-.58 3.22-.57 6.18-1.24 8.67-1.85l10.8-2.82 5.57-1.53 2.6-.74c.15.53.42 1 .53 1.56-.02-.25-.1-.56.03-.37l.16.75-.14-.13.2 1.13.1-.18c.06.56-.1.8.22 1.38.16.26.05-.56.22.01l.07.62c.01.18.01.33-.01.5-.05.33-.17.64-.32.9.15.01.08.16 0 .33l-.1-.05c-.13.32-.25.3-.33.3-.1-.01-.17-.03-.4.2v-.1c0 .1 0 .2-.02.3-.22.25-.34.2-.44.18-.08-.03-.28-.03-.72.24.38-.1.24.23-.25.28l.1-.14c-.26.08-.34.15-.52.17.14-.1.04-.2-.34-.08l.23-.2-.7.38c-.6 0-1.47.36-1.74.24 0 0-1.24.2-1.48.43.22-.17-.47-.06-.3-.23-.3.2-1.2.5-1.6.46l.07-.03c-1.42.17-2.33.72-3.62.82.1.13-.6.2-.38.34-1.25.46-2.44.15-2.77.8-.58.16-.73.02-1.04.06l.13-.06a31.96 31.96 0 0 1-2.23.53c-.4.14-.4.42-1.14.52.2-.15-.08-.07-.35-.01.17-.05.22-.1-.16-.1a.68.68 0 0 1-.19.11c0-.01-.02-.01-.02-.02-.45.14-.36.15-.15.12-.01.02.02.03.1.05-.5-.03-1.32.3-1.42.14-1.36.34-2.3.74-3.42 1.06-.15-.06.1-.2.42-.3l-.8.2c-.02-.13.45-.18.7-.26-.95-.03-1.87.62-3.05.68zm29.28 4.05c-.2.27-.4.52-.62.77-.44.5-.9 1-1.46 1.48-1.36 1.1-3.4 2.54-5.7 3.58s-4.83 1.62-6.73 1.78a21.13 21.13 0 0 1-8.43-.72c-.7-.2-1.35-.45-2-.74-.34-.16-.58-.27-.97-.5l-.1-.05-.45-1.5a1.82 1.82 0 0 0 .41.05c.78.04 1.12-.27 2-.5.8-.1 1.03.02 1.83-.2.4-.06.8-.17 1.17-.26.16-.16.5-.1.7-.24l.1.06c.07-.05.15-.1.23-.07v.02c.1-.07.23-.07.28-.1v.02l.13-.03-.02.03c.18-.1.38-.13.55-.14l-.03-.08c.4.03.5-.18.85-.12v.02c.38-.3.7.03 1.1-.27-.05.04.03.04.03.06.2-.06.4-.1.38-.28.15-.02.13.03.16.1-.01-.07.1-.13.22-.15l-.05.04.32-.1-.1-.13c.18.01.08.16.24.1l-.02-.1c.24-.02.42.13.67.17.97-.13 1.96-.62 2.9-.58l.06.08c.04.12.2-.23.27-.12l.1-.08c.03.02.1.03.05.07.1-.01.1-.03.16-.1l.12.06c.4-.01.7-.22 1.1-.27.5.07 1.4-.25 1.9-.43.7-.33 1.65.02 2.36-.34.03.01.08-.04.08-.05l.7-.1s3.35-.57.62-1.15l.01-.03c-.4 0-.63.03-.86.22-.07-.16-.3.04-.4 0v-.02c-.2.17-.5-.02-.7.14.01-.02 0-.06.05-.07-.16.05-.37.13-.4.03-.38.1-.93.15-1.14.36l.01-.03c-.12.13-.18.05-.33.13v-.02c-.13.13-.44.1-.56.17l-.02-.06-.3.07.12-.01c-.01.2-.25-.07-.45.1-.2.02-.35.45-.58.4-.1.1.06-.15-.08-.06-.02-.1.06-.07.01-.14-.14.07-.26-.05-.44.05l-.02-.07c-.22.18-.48-.01-.6.15-.24.1-.2-.2-.44.01l-.12-.08c-.1 0-.06.14-.2.1 0-.06-.17-.02-.1-.1-.3-.05-.54.24-.94.15-.06.14-.26.1-.3.2-.02-.05-.37.06-.2-.1.02-.01.05-.02.05 0l.01-.08c-.24-.1-.37.15-.58.16.07.01.15-.01.1.05l-.2.03.03-.07-.3.02.05.07c-.15-.01-.22-.13-.36.01-.06.07.15.08.01.13-.2-.02-.5-.04-.74-.02.04.08-.03.1-.1.12l-.02-.07c-.24.15-.12-.14-.36-.02v-.06l-.04.17c-.2.2-.15-.13-.37.12.1-.03.08.15-.05.14l.02-.08c-.07.03-.08.06-.13.06.03-.05 0-.1-.1-.08l.05-.1-.17.17c-.16-.05-.38.1-.45 0 0 0-.32.01-.38.13.05-.08-.13-.07-.1-.16-.07.1-.3.2-.4.14v-.01c-.37-.02-.6.23-.93.2.03.08-.15.07-.08.17-.3.17-.65-.1-.7.25-.15.05-.2-.05-.27-.05l.03-.02c-.28.08-.36.1-.57.13-.1.05-.1.2-.28.2.05-.07-.03-.05-.1-.03.04-.02.05-.04-.05-.07-.01.02-.03.04-.04.05l-.01-.01c-.1.04-.1.06-.03.06 0 .01.01.02.03.04-.14-.06-.34.07-.37-.04-.35.1-.58.25-.86.34-.04-.05.02-.1.1-.15l-.2.06c-.01-.08.1-.07.17-.1-.27-.08-.5.22-.8.16l-.05.07-.02-.01c.01.03-.05.1-.1.1-.05-.06-.03-.16-.17-.13-.13-.05-.32.1-.46.16.08 0 .06.04.03.07-.07.02-.13-.05-.18-.01v-.1c.04.08-.17.13-.2.17-.05-.06.1-.08.1-.14l-.43.1c-.14.1.04.08-.01.18-.13.04-.25.13-.42.1l.06.07c-.24.1-.4.13-.58.08-.4.24-.64.42-.76.56l-1.35-4.57-.35-1.35c.87-.14 1.8-.32 3.15-.67 1.5-.3 3.1-.73 4.56-1.08.65-.36 1.93-.43 2.7-.8l.35.05c.27-.12.6-.24.9-.24l-.01.04c.4-.18.9-.24 1.1-.33l-.01.04.5-.13-.08.07c.72-.26 1.48-.43 2.16-.54l-.1-.13c1.48-.16 1.93-.57 3.28-.67v.04c1.56-.74 2.65-.32 4.27-1.05-.2.1.1.05.1.1.77-.2 1.6-.42 1.55-.7.57-.12.48-.02.58.08-.03-.12.45-.28.9-.4l-.2.1.32-.08.4-.13c.03-.01.05-.03.08-.04l.53 1.94v.26c-.1.14.6 1.42.56 1.65l.24.6c.03.18.1.56-.01.25.16.57.2.58.35.98l.1.64a52.88 52.88 0 0 0 .5 1.74c-.05.05-.1.1-.15.14-.22.2-.3.32-.4.44z"/><path d="M131.8 383.04h0l.05-.02zm185.46 39.14h-.13c.1.01.12.01.13 0zm-7.1 11.27l.44.06c-.01-.03-.12-.05-.44-.06zm-13.23-17.75l-.1.02.1-.02zm30.37 19.62c-.06.01-.1.01-.13.02l.13-.02z"/><g fill="#fff"><path d="M316.5 415.68h0zm6.9 2.55zm-37.18-.7l.04.05c0-.01 0-.03-.04-.05zm9.78 7.17h.01z"/><path d="M287.62 419.22h0l-.01.01zm63.58 11.8l-.07-1.23c.01-.03.01-.1.02-.13-1.55.13-4.25.12-4.25.12l-2.1-.02a.59.59 0 0 1-.26.04c-2.28.22-4.87-.3-7.1-.1l-5.8.07c-1.2-.03-2.2.12-3.35.06l-.3-.08c-.2.04-.22.06-.5.05.16-.03-.03-.05-.12-.08l-.32.06c-.1-.12-.8.2-.85.07l-.12-.1c-2.72-.2-5.86.08-8.8.03-.7-.1-1.13-.27-1.86-.3l.01.12c-.5.03-.1-.1-.64-.14l.2.14-1 .02.16-.03c-.35 0-.73.04-.73.1-.06-.07.03-.12-.42-.12-.01.17-.66.2-1.27.2.01-.02-.22-.04-.06-.07-1.32.22-2.06-.17-3.34.06l.01-.02c-1-.12-1.42.06-2.55-.04l.04.1c-.52-.03-1.12-.02-1.7.03l.07-.03-.4.01v-.02c-.16.03-.54-.01-.87.05l.01-.02a2.06 2.06 0 0 0-.7.02l-.25-.07c-.64.1-1.6-.02-2.15.1h.01l-.06.01c.01 0 .03-.01.05-.01l-3.57.04c-2.46.06-3.1-.1-5.46-.15-2.7.06-3.87.3-6.14.12l-.86-.08.02 1.9c.02.44-.02.85.05 1.13a2.43 2.43 0 0 0 .33.82c.23.34.48.56.7.7a2.18 2.18 0 0 0 .85.16l3.8.01 3.16-.27c1.3.15 2.48.17 4.43.06l-.38-.14c1.2.1 2.2-.01 3.24-.04.56-.14-.83-.17.35-.3h3.3c-.14.1-1.3.07-1 .2.2-.06 1.85-.07 1.64-.22l.05.16c.42-.05.74.07 1.3.07.26-.04.46-.1-.15-.13 1.14-.06 2.73-.23 3.6-.1 1.1 0 .76.15 1.08.27.33-.02.83-.1.82-.15l-.45-.06c.33.01.44.03.45.06l.13.02.46-.1c2.22.2 4.22-.22 6.1 0-.5.03-1.4-.04-1.4.1l1.6-.03c-.65.03-1.17.12-.92.2l6.85-.28c.1.18 1.77.04 2.7.18-.13-.03-.16-.05-.14-.07-.42-.02-.57-.05.32-.08-.01.01.01.02.02.03l.4-.07c.7.07.6.1.26.13.54 0 1.12-.02.66.1 1.43.07 1.56-.2 2.36-.25l4.38-.03-.27.03c.6.03.8.2 1.96.17.9-.58 3 0 5.52-.18-.32-.2.97-.1.86-.25 2.45.18 4.38-.15 7.1 0l-.14.02c.18.04.5.06.55.05.13-.01.27-.07.4-.17.23-.2.3-.5.26-.65.04.1.12.01.18-.1.06-.02.08-.28.15-.06-.1-.26-.13-1-.17-1.64zm-35.7-13.8l.02.02c.16-.12.23-.2.18-.4.16.08.1-.12.17-.13l.01.01c-.05-.17.22-.14.17-.3.01.01.05.04.04.06.02-.08.05-.2.14-.14.08-.17.26-.37.2-.56l.02.02c-.06-.12.03-.08.03-.18.01 0 .02 0 .03.01-.05-.12.1-.2.1-.27l.06.03.07-.13-.04.04c-.15-.1.16-.03.1-.2.07-.07-.2-.38-.08-.42-.05-.1.1.1.08.01.08.05.03.06.1.1 0-.1.15-.05.14-.16l.06.04c-.05-.17.2-.14.13-.27.01-.14.23.05.18-.14h.1c.04-.04-.08-.1-.01-.12.05.04.08-.04.12.02.16-.06.03-.3.27-.37-.08-.1.03-.14-.04-.2.05.02.1-.15.15 0 0 .01-.01.02-.02.01l.06.05c.17-.01.03-.2.1-.27-.04.01-.05.05-.08 0l.06-.07.04.05.1-.1-.08-.02c.07-.04.2.01.14-.1-.03-.06-.12 0-.1-.07.1-.05.23-.12.3-.2-.08-.04-.06-.06-.06-.1l.06.04c-.02-.16.16.05.16-.1l.04.04-.1-.1c-.07-.17.16.03.06-.18-.02.05-.15-.07-.1-.1l.05.05c0-.04-.01-.06.01-.07.02.04.08.06.1.02l.06.08-.06-.15c.1-.02.08-.17.18-.14 0 0 .12-.1.05-.2.04.06.1.01.17.07-.04-.08-.04-.2.06-.2v.01c.17-.1.06-.3.23-.4-.08-.04.01-.08-.1-.13-.01-.2.35-.13.1-.36.02-.07.1-.03.15-.05l.01.02c.05-.13.07-.17.13-.25 0-.06-.13-.15-.05-.2.04.06.05.02.07-.01 0 .02.01.04.07.03-.01-.02-.02-.03-.02-.04.02-.05 0-.05-.02-.03-.01-.01-.02-.01-.04-.01.1-.01.08-.14.18-.1.07-.16.04-.32.08-.47.06.02.08.07.08.12l.04-.1c.07.04.01.07.01.1.17-.03.02-.28.2-.34l-.04-.06h.01c-.03-.02-.05-.07-.05-.1.07.02.14.1.17.03.1-.01.06-.15.06-.23-.03.03-.06 0-.07-.03.02-.03.1-.01.08-.05l.08.05c-.08-.04-.03-.13-.06-.16.07.02.02.08.06.1l.1-.2c-.02-.1-.08-.04-.13-.1.02-.07 0-.16.1-.2l-.08-.02c.01-.14.06-.2.18-.22-.08-1.15-.7-.66-.7-.66-.35.2-.25.5-.42.9-.24.3-.43.3-.6.67a3.46 3.46 0 0 0-.27.5c.06.14-.13.2-.1.35h-.08c.01.05.01.1-.04.1h-.02c.02.07-.04.1-.03.14h-.02l-.03.06-.02-.03c0 .1-.05.2-.12.25l.08.04c-.18.1-.06.25-.25.33v-.01c.08.3-.3.2-.23.5-.01-.04-.04-.01-.06-.03-.03.1-.08.2.07.28-.04.06-.08.02-.14-.01.06.04.06.1.03.16l-.01-.04-.06.15.14.05c-.08.05-.16-.07-.17.01l.1.06c-.08.1-.27.05-.4.1-.3.37-.3.96-.72 1.22l-.08-.03c-.1-.06.1.2-.01.15l.02.07c-.03 0-.06.01-.08-.02-.03.04-.01.05 0 .1h-.1c-.15.12-.1.34-.24.5-.26.1-.37.57-.43.83-.03.4-.68.5-.7.9-.02 0 0 .05.01.06l-.2.27c-.07-.04-.98 1.32.58.83zm7.06 2.53l.02.02c.14-.12.2-.2.15-.38.16.07.08-.12.15-.13l.01.01c-.06-.16.2-.14.15-.3.01.01.05.04.04.06.02-.08.03-.18.12-.14.06-.17.23-.36.14-.54l.02.02c-.06-.1.03-.08.01-.17.01 0 .02 0 .03.01-.06-.1.1-.2.07-.26l.06.03.05-.13-.04.04c-.15-.1.15-.04.1-.2.07-.07-.24-.36-.1-.4-.05-.08.1.1.08.01.08.04.04.06.1.08-.01-.08.14-.05.13-.16l.07.03c-.06-.16.2-.14.1-.27 0-.13.23.04.16-.14l.1.01c.04-.04-.1-.1-.02-.12.05.03.08-.04.12.02.15-.07 0-.3.23-.37-.1-.1.02-.13-.05-.2.05.02.1-.15.15-.01 0 .01 0 .02-.02.01l.06.05c.17-.02.02-.2.08-.27-.04.01-.05.05-.08 0l.05-.07.04.05.1-.1-.08-.02c.07-.04.2 0 .13-.1-.04-.06-.12 0-.1-.07.1-.05.22-.13.3-.2-.08-.03-.06-.06-.06-.1l.07.03c-.03-.15.16.04.15-.1l-.08-.07c-.08-.16.16.03.04-.18-.01.05-.15-.06-.1-.1l.06.05c0-.04-.02-.06 0-.07.02.04.1.06.1.01l.06.07-.07-.14c.1-.02.07-.16.17-.14 0 0 .1-.1.03-.2.05.06.1 0 .17.06-.05-.07-.05-.2.04-.2h0c.15-.1.04-.3.2-.38-.08-.04 0-.08-.1-.12-.02-.2.33-.14.06-.35.02-.07.1-.03.14-.06h.01c.04-.13.05-.16.1-.24-.01-.06-.14-.14-.07-.2.04.06.05.02.06-.01 0 .02.02.04.07.02-.01-.01-.02-.03-.02-.04.02-.05-.01-.05-.02-.03-.01-.01-.02-.01-.04-.01.1-.01.07-.14.17-.1.06-.16.02-.3.04-.45.06.01.08.07.08.1l.03-.1c.07.04.01.07.01.1.17-.04 0-.27.17-.33l-.04-.06h.01c-.03-.02-.06-.06-.05-.1.07.02.14.08.17.02.08-.01.04-.15.04-.23-.03.03-.06 0-.07-.03.01-.03.08-.01.07-.05l.08.04c-.08-.03-.04-.12-.07-.15.07.02.03.07.07.1l.1-.18c-.03-.1-.08-.03-.14-.1.01-.06-.01-.15.07-.2l-.08-.02c0-.14.04-.2.16-.22-.17-1.1-.73-.6-.73-.6-.33.2-.2.5-.35.88-.2.3-.4.3-.53.66-.1.15-.16.34-.23.5.07.13-.1.2-.06.34H325c.02.05.02.1-.03.1h-.02c.02.07-.03.1-.02.14l-.02-.01v.06h-.02c.01.1-.03.2-.1.24l.08.04c-.17.1-.04.25-.22.33h-.02c.1.28-.3.2-.2.48-.01-.04-.04-.01-.06-.02-.02.1-.06.2.1.27-.04.06-.07.02-.14 0 .07.04.06.1.04.15l-.01-.04-.05.15.14.04c-.07.05-.16-.07-.17.02l.1.06c-.07.1-.26.06-.4.1-.26.37-.23.93-.6 1.2l-.1-.03c-.12-.06.1.2 0 .15l.03.07c-.03 0-.06.01-.08-.02-.03.04-.01.05.01.1h-.1c-.14.12-.08.33-.2.48-.25.12-.32.56-.36.8 0 .4-.64.5-.6.9-.02 0 0 .05.01.05l-.17.27c.05-.02-.74 1.3.76.8z"/><path d="M325.36 415.3h0l.04.04zm-38.64 3.66l.9.26c.18-.07.37.14.57.1l.04.1c.07-.01.14-.01.18.05v.02c.1-.02.18.05.23.04l-.01.02.1.03-.03.02a.81.81 0 0 1 .42.14l.03-.08c.22.2.4.1.6.32l-.01.02c.4-.05.4.4.8.35-.05 0-.01.05-.02.06.15.06.3.14.4-.01.1.06.05.1.03.16.04-.06.14-.04.22.01h-.05l.23.12.04-.14c.1.1-.07.16.06.2l.07-.1c.14.13.13.34.22.52.54.47 1.34.85 1.66 1.54l-.05.08c-.1.1.27.02.2.12l.1.02c0 .03.01.1-.04.07.05.06.06.05.13.07v.12c.13.28.43.37.58.66.1.4.6.9.9 1.23.47.42.3 1.25.73 1.7-.01.02.05.05.06.05l.18.5s.2.62.4.98c.18.34.52.53.76-.66l.03.01c-.02-.33-.08-.53-.28-.7.15-.1-.08-.25-.05-.34h.02c-.2-.13-.05-.42-.23-.54.02 0 .06-.01.08.02-.07-.12-.2-.27-.1-.32-.16-.3-.34-.72-.57-.83h.03c-.15-.05-.1-.13-.2-.2.01-.01.01-.02.01-.03-.16-.06-.2-.32-.3-.38l.05-.04-.15-.2.04.1c-.17.07-.01-.23-.2-.32-.07-.16-.52-.07-.54-.27-.12-.02.16-.02.03-.1.08-.06.08.01.13-.06-.1-.08-.04-.23-.18-.32l.06-.05c-.23-.08-.16-.36-.35-.4-.18-.13.1-.25-.17-.33l.02-.13c-.05-.08-.14.03-.17-.08.05-.04-.05-.13.04-.13-.1-.24-.42-.27-.5-.6-.14.04-.2-.13-.3-.1.03-.04-.2-.23-.01-.2.02 0 .03.02.02.04l.07-.04c-.03-.22-.27-.18-.4-.32.02.05.08.1.01.1l-.12-.12.07-.02-.17-.2-.02.08c-.07-.1-.02-.24-.2-.25-.1.01.02.16-.1.1a2.92 2.92 0 0 0-.4-.5c-.04.08-.08.05-.14.03l.04-.06c-.24-.05.03-.18-.2-.25l-.1.07c-.25.02-.01-.2-.3-.13.08.03-.05.16-.13.08l.06-.05c-.06-.02-.1 0-.12-.04.05-.01.07-.08-.01-.1l.1-.05-.2.03c-.07-.14-.3-.15-.28-.26 0 0-.2-.17-.32-.1.08-.04-.04-.13.04-.18-.1.04-.3-.01-.35-.12h.02c-.24-.2-.52-.12-.72-.33-.02.08-.14-.02-.15.1-.3-.01-.38-.4-.6-.13-.12-.03-.1-.13-.16-.17h.03c-.23-.06-.3-.08-.46-.15-.1 0-.16.14-.3.05.07-.04 0-.05-.05-.07.04 0 .06-.01 0-.08-.02.01-.04.02-.05.02-.1-.03-.1-.01-.05.02-.01.01-.01.02 0 .04-.07-.1-.27-.1-.25-.2-.3-.07-.52-.03-.77-.06-.01-.06.06-.1.13-.1l-.17-.03c.03-.08.1-.01.17-.01-.16-.18-.44 0-.64-.18l-.07.05-.01-.01c-.01.03-.07.06-.1.06-.01-.08.05-.15-.07-.18-.07-.1-.27-.04-.4-.04.06.03.03.06 0 .08-.06-.01-.07-.1-.13-.07l.02-.1c0 .1-.18.05-.2.1-.02-.08.1-.04.13-.08l-.35-.08c-.14.04 0 .1-.08.16-.1-.01-.24.03-.35-.05l.02.1c-.22.01-.34-.02-.46-.13-.84.17-.94.4-.86.57.07.16.35.28.35.28.54.3.9.13 1.6.25.6.16.7.36 1.34.5z"/><path d="M291.96 419.7h0l.04-.04z"/></g><path d="M130.16 406.92l-.05-.07c.03.05.04.07.05.07zm8.36 5.05l.05-.47c-.02.01-.04.13-.05.47zm-15.22 19.77l.08.07c-.05-.05-.07-.06-.08-.07z"/><g fill="#fff"><path d="M137.7 408.86l-.02-.04c-.01.02 0 .03.02.04zm-7.18-.96h0zm6.23-.36h.01zm1.15 8.24l-.02-.04c0 .02.01.04.02.04z"/><path d="M131.05 415.24zm5.9-.7h0l.01-.01zm18 15.42l-24.46-.8c-2.6-.1-5.1-1.3-6.8-3.3l-6-7.1a7.68 7.68 0 0 1-1.4-2.5l-11.47-33.4-.18.07c-.38.24-.7.44-.5.47l-1.27.68-.16.1-.36.18a.65.65 0 0 0-.19.21c-.1.18-.14.44-.08.7.01.03.01.07.02.1l.06.18.1.32.16.58c.42 1.1-.04-.46.24.05.58 1.14.5 1.6.8 2.67l.02-.34.7 2.2-.2-.27.48 1.47c.22.4 0-.23-.12-.7.5 1.58 1.28 2.77 1.6 4.43l-.18-.15c.04.01-.04-.23-.1-.37-.72-1.5.28 1.2.22 1.3.3.4.66 1.84 1.06 2.38.68 2.87 1.8 4.93 2.37 7.1-.28-.52.16.72.04.7.24.96.38.65.64 1.5l.1.82c.9 1.9.24 1.42.98 3.28.62 1.16.8 2.9 1.65 4.67l-.1.1c.58 1.37.6 2.18 1.06 3.3-.02.34-.16-.26-.3-.18.5 1.13-.36-.22.05.5.16.84.73 1.48 1.4 1.98.68.53 1.36 1.05 1.9 1.68 1.33 1.18 1.98 2.64 2.42 2.67l-.6-.7 1.65 1.8-.04.12c.72.68 2.18 2.52 3.13 3.3.01 0 .03.02.08.07l-.08-.07c-.02 0 .04.07.06.14.45.42.72.78.93.96.24.2.5.4.94.5h-.12c.2.05.4.1.62.12a1.82 1.82 0 0 0 .33 0l.53-.02 2.4-.01 5.1.06c.1.17 1.86.14 3.15.12-.4 0-.45.08-.52.1 1.77-.17 3.7.27 5.55.07h-.07c.7.1 2.85-.13 3.17.16 2.07-.22 3.97-.16 6.96-.1l-.13.05 1.84.12c.2.04.3-.17.35-.3a2.3 2.3 0 0 0 .16-.52 10.77 10.77 0 0 0 .2-1.23l.2-1.64c.04-.12.02-.24 0-.4zm-26.26-22.28c.17.1.3.12.43 0 0 .17.15.04.18.1l-.01.01c.13-.12.2.14.34.04-.01.01-.01.06-.04.06.08-.01.2-.03.2.07.2 0 .44.08.58-.06l-.01.03c.08-.1.1 0 .17-.05 0 .01.01.02 0 .03.1-.1.22.01.3-.02v.07h.15l-.05-.02c.04-.18.1.13.22.03.1.04.26-.35.35-.25.06-.08-.06.13.02.08-.01.1-.04.05-.03.13.08-.03.1.1.2.06l-.01.07c.14-.12.2.13.3.01.13-.04.05.23.2.1l.04.1c.05.02.06-.12.1-.06-.01.06.07.06.03.12.12.12.3-.1.45.1.06-.12.13-.03.18-.12 0 .05.18.03.06.14-.01.01-.02 0-.02-.02v.07c.08.15.2-.05.3-.02-.03-.03-.07-.03-.03-.07l.1.02-.03.06.13.05-.01-.08c.06.05.07.18.16.08.04-.06-.05-.1.02-.12.08.06.2.16.32.2 0-.1.03-.08.07-.1l-.01.07c.14-.1.02.17.16.1l-.02.05.05-.15c.13-.13.04.16.2-.02-.05.01 0-.17.06-.13v.07c.04-.01.05-.04.07-.02-.02.04-.02.1.03.1l-.04.08.1-.12c.06.1.2.01.2.1 0 0 .15.07.2-.04-.04.06.04.1.01.18.05-.07.18-.12.2-.03l-.01.01c.16.1.3-.07.45.05 0-.1.08-.03.08-.14.18-.1.26.26.37-.07.08-.01.08.1.1.1l-.02.02c.14-.01.18-.01.28.02.06-.03.08-.18.17-.13-.04.06 0 .05.03.06-.02.01-.03.03.01.08.01-.02.02-.03.03-.04.06.01.05-.02.03-.03v-.04c.05.1.17.02.16.13.17 0 .3-.1.46-.12.01.06-.03.1-.08.12h.1c-.01.08-.06.04-.1.05.1.15.26-.1.4.04l.04-.06h.01c0-.03.04-.07.06-.08.01.07-.02.16.05.17.05.07.16-.01.24-.04-.04-.02-.02-.05 0-.08.04 0 .05.07.08.05l-.01.1c0-.1.1-.08.12-.12.01.07-.06.05-.08.1l.2.02c.08-.06 0-.1.05-.17.07-.01.14-.07.2 0l-.01-.1c.13-.05.2-.03.28.07 1-.55.32-.9.32-.9-.34-.23-.56-.02-1-.01-.37-.1-.45-.27-.85-.26-.2-.04-.4-.03-.58-.03-.1.1-.24-.03-.36.06l-.03-.08c-.04.03-.1.05-.12.01v-.02c-.06.05-.12.01-.15.03l.01-.02h-.07v-.03c-.1.04-.2.04-.28 0v.1c-.17-.12-.26.05-.4-.1v-.02c-.24.2-.3-.2-.54-.01.03-.02 0-.05 0-.07-.1.01-.2.01-.23.18-.07-.01-.05-.06-.05-.13-.01.07-.08.1-.13.1l.03-.03h-.16l.01.14c-.08-.05 0-.17-.08-.15l-.02.12c-.1-.04-.16-.22-.26-.33-.46-.1-1 .1-1.4-.15v-.1c.01-.13-.15.17-.15.05l-.06.05c-.01-.02-.04-.05-.01-.08-.05-.01-.05.01-.1.04l-.04-.1c-.18-.1-.35.04-.54-.01-.2-.2-.67-.1-.93-.05-.38.14-.73-.42-1.12-.25-.01-.02-.05.02-.05.03l-.33-.06s-1.6-.27-.53.95l-.02.04z"/><path d="M138.3 414.73c-.36-.07-.44-.24-.82-.2-.18-.03-.37-.01-.55 0-.1.12-.23-.02-.34.08l-.03-.07c-.04.03-.08.05-.1.01v-.02c-.06.05-.1.01-.14.04v-.02h-.06l.01-.03c-.1.05-.18.05-.26.01v.1c-.16-.1-.24.06-.4-.06v-.02c-.2.2-.3-.18-.52.02.03-.03-.01-.05 0-.07-.1.02-.2.02-.2.2-.07-.01-.05-.06-.05-.12-.01.07-.07.1-.12.1l.03-.03-.15.01.02.14c-.08-.05-.01-.17-.1-.15l-.01.12c-.1-.03-.16-.2-.26-.3-.44-.1-.95.17-1.34-.07v-.1c0-.13-.13.18-.14.06l-.05.05c-.01-.02-.04-.05-.01-.08-.04-.01-.05.01-.08.05l-.04-.08c-.17-.08-.33.07-.52.02-.2-.18-.64-.07-.9 0-.35.16-.7-.38-1.07-.2-.01-.02-.04.02-.04.03l-.32-.04s-1.54-.17-.45.98v.03c.17.08.28.1.4-.03.01.17.14.03.18.1h-.01c.12-.12.2.13.32.02-.01.01-.01.06-.04.06.08-.02.18-.05.18.05.18-.01.43.05.55-.1l-.01.03c.07-.1.1-.01.16-.06 0 .01.01.02.01.03.08-.1.2 0 .27-.04v.07h.14l-.05-.02c.03-.18.1.12.2.01.1.03.23-.36.32-.27.05-.08-.05.14.02.08-.01.1-.04.06-.03.13.07-.04.1.1.2.05v.07c.12-.13.2.12.3-.01.12-.05.06.23.2.1l.04.1c.05.02.05-.12.1-.07-.01.06.07.06.03.1.12.1.27-.12.43.06.05-.12.13-.04.16-.13 0 .05.17.02.07.13-.01.01-.02.01-.02-.01v.07c.1.15.18-.06.28-.03-.03-.03-.06-.02-.04-.07l.1.02-.02.06.13.05-.01-.08c.06.04.07.18.16.07.04-.06-.05-.1.02-.13.08.06.2.15.32.18 0-.1.03-.08.06-.1v.07c.13-.1.03.17.15.1l-.01.05.04-.15c.12-.14.04.16.18-.03-.05.01-.01-.17.05-.13v.07c.03-.01.05-.04.07-.03-.02.04-.02.1.03.1l-.04.1.1-.13c.06.08.18-.01.2.1 0 0 .14.06.18-.05-.03.07.04.1.01.18.04-.07.16-.13.2-.04l-.01.01c.16.1.3-.1.43.02 0-.1.07-.03.06-.15.16-.1.26.25.34-.1.07-.01.08.1.1.1l-.02.02a.61.61 0 0 1 .27 0c.05-.03.07-.2.16-.14-.03.06 0 .05.04.05-.02.01-.03.03.01.08.01-.02.02-.03.03-.04.06 0 .05-.02.02-.03 0-.01 0-.02-.01-.04.05.1.16.01.16.12.17-.01.3-.1.43-.15.01.06-.02.1-.07.12h.1c-.01.08-.06.04-.1.06.1.14.25-.1.37.02l.03-.06.01.01c0-.03.04-.08.06-.1.01.07-.01.16.05.16.05.07.15-.02.22-.05-.04-.01-.02-.05 0-.08.03 0 .05.07.08.04v.1c-.01-.1.1-.1.1-.13.01.07-.06.06-.07.1h.2c.08-.07-.01-.1.04-.17.06-.01.13-.07.2-.01l-.02-.1c.12-.06.2-.04.27.05.93-.6.26-.92.26-.92-.36-.13-.56.1-.98.13zm-21.88-27.9h0l.04.04z"/><path d="M109.72 393.65v.03c.32-.1.5-.18.62-.42.12.13.23-.12.33-.12v.02c.1-.22.4-.13.5-.34 0 .02.03.06-.01.08.1-.1.23-.24.3-.17.25-.2.63-.47.7-.73l.01.03c.02-.16.1-.1.17-.24.01.01.03 0 .03.01.02-.17.27-.26.3-.37l.05.04.17-.2-.08.06c-.1-.16.22-.05.27-.27.15-.1-.03-.52.15-.6-.01-.12.05.15.1.01.07.06 0 .08.08.1.05-.12.2-.1.27-.24l.06.04c.03-.25.32-.23.3-.42.1-.2.26.03.3-.23l.13-.01c.07-.07-.06-.13.04-.18.05.04.12-.07.13.01.22-.13.18-.46.5-.63-.06-.13.08-.2.04-.3.05.02.18-.26.18-.04 0 .02-.02.04-.03.03l.05.06c.2-.08.12-.3.23-.46-.05.03-.08.1-.1.03l.1-.14.04.06.16-.2-.08-.01c.1-.1.23-.06.2-.24-.02-.08-.15.05-.1-.07a2.95 2.95 0 0 0 .41-.49c-.1-.02-.06-.07-.05-.13l.07.02c0-.24.2-.01.2-.24l-.08-.08c-.07-.24.18-.04.07-.32-.02.1-.17-.02-.1-.1l.06.05c.01-.06-.02-.1.01-.12.02.05.1.05.1-.03l.06.08-.07-.2c.12-.1.1-.3.2-.33 0 0 .13-.24.04-.33.05.07.12-.06.18 0-.06-.1-.05-.3.04-.36l.01.02c.16-.28.01-.53.18-.77-.1-.01-.01-.14-.13-.13-.05-.3.32-.46 0-.62.01-.13.1-.13.14-.2l.01.03c.01-.24.02-.3.05-.48-.02-.1-.17-.13-.1-.28.05.06.05-.01.06-.06 0 .04.03.05.08-.02-.02-.01-.03-.03-.04-.05.01-.1-.01-.1-.03-.04-.01 0-.02 0-.04.01.1-.1.03-.28.14-.28.01-.3-.07-.52-.1-.76.06-.02.1.04.12.1v-.17c.08.01.04.1.05.16.15-.2-.1-.44.05-.67l-.06-.05.01-.01c-.03 0-.08-.06-.08-.1.07-.03.16.01.17-.1.07-.1-.01-.27-.05-.4-.02.07-.05.04-.08.01 0-.06.07-.1.04-.14h.1c-.1.02-.1-.16-.13-.18.07-.03.06.1.1.1v-.36c-.07-.13-.1.02-.17-.04-.02-.1-.08-.22-.02-.35l-.08.04c-.06-.2-.05-.34.04-.48-.34-.8-.6-.84-.73-.73-.14.1-.2.4-.2.4-.2.6.05.9.08 1.62-.08.63-.26.78-.25 1.43-.05.3-.05.64-.07.94.1.16-.06.4.02.57l-.08.05c.03.06.04.14-.01.2l-.02-.01c.04.1-.01.2 0 .23h-.02v.1l-.03-.02a.79.79 0 0 1-.05.44h.1c-.17.26-.02.4-.2.64v-.01c.14.4-.3.46-.2.85-.01-.05-.05 0-.07-.01-.03.16-.08.32.1.38-.04.1-.08.07-.15.06.07.03.06.13.04.22v-.05l-.07.25.15.01c-.1.1-.17-.03-.2.1l.1.04c-.1.16-.3.2-.46.32-.35.62-.56 1.48-1.17 1.93l-.1-.03c-.1-.07.03.27-.08.22v.1c-.03 0-.08.03-.08-.02-.05.06-.03.07-.04.14l-.1.01c-.24.2-.28.5-.52.7-.37.17-.76.78-1.02 1.12-.3.55-1.16.56-1.5 1.06-.03 0-.04.06-.04.07l-.46.28s-.56.32-.87.6c-.32.28-.44.65.77.65zm99.85-161.88c1.43-.26 1.84-.2 3.28-.67.7-.2 1.42-.47 2.07-.72.27-.24.86-.33 1.2-.57l.17.01a.93.93 0 0 1 .39-.18v.02c.17-.13.4-.2.47-.26v.02l.22-.1-.03.04c.3-.2.63-.35.94-.46l-.06-.07c.66-.2.8-.5 1.4-.68v.02c.6-.55 1.16-.48 1.74-1.08-.07.08.06.02.06.04.3-.22.64-.44.55-.58.22-.15.2-.08.28-.05-.04-.06.13-.23.3-.35l-.06.08.48-.38-.18-.04c.28-.16.17.1.4-.12l-.07-.1c.37-.25.7-.24 1.08-.47 1.43-1.1 2.58-2.7 3.78-3.84h.1c.12.06.15-.47.28-.44l.08-.2c.05-.03.14-.1.1-.01.12-.14.1-.15.15-.28l.18-.1c.5-.5.73-1.08 1.2-1.65.66-.62 1.5-2.07 1.94-2.94.57-1.23 1.8-2.34 2.25-3.7.04-.03.05-.15.04-.16l.57-1.14s.66-1.4.88-2.35c.2-.96.12-1.33-1.2.6l-.01-.04c-.32.6-.5.98-.58 1.46-.18-.01-.26.5-.38.6l-.01-.02c-.06.43-.5.7-.56 1.12-.01-.02-.04-.05 0-.13-.12.27-.28.63-.37.6-.3.62-.84 1.43-.94 1.9v-.04c-.04.27-.16.3-.26.56-.02.01-.04.02-.04.01-.06.3-.43.7-.5.9l-.06-.02-.3.46.13-.16c.1.16-.33.28-.46.68-.23.3-.13.84-.44 1.1-.04.2-.02-.22-.13.05-.08-.05.03-.14-.08-.13-.12.25-.34.3-.5.6l-.07-.03c-.16.43-.58.6-.66.9-.24.4-.36.1-.54.56l-.2.08c-.14.15.01.2-.17.33-.04-.05-.22.18-.18.04-.4.3-.54.9-1.13 1.25-.01.2-.3.37-.3.5-.05-.02-.46.47-.3.12.02-.03.06-.07.07-.05l-.02-.08c-.36.17-.4.54-.68.8.1-.06.2-.17.16-.06l-.25.23v-.1l-.4.3h.1c-.22.14-.37.1-.5.36-.06.13.25-.08.06.1-.3.17-.7.46-1.06.7.1.04-.01.1-.1.2l-.06-.05c-.3.35-.23-.03-.55.3v-.07.2c-.24.36-.27 0-.52.43.14-.12.16.1-.04.2v-.1c-.1.08-.1.13-.18.17.04-.08-.02-.1-.17 0l.05-.14-.2.3c-.27.07-.57.37-.7.34 0 0-.5.25-.56.42.06-.12-.22.02-.18-.1-.08.15-.44.4-.63.4l.02-.02c-.6.2-.9.62-1.47.77.06.07-.24.15-.12.22-.5.34-1.08.23-1.14.64-.24.13-.32.06-.46.1l.05-.04-.96.4c-.16.1-.14.26-.47.34.08-.1-.04-.04-.16.01.07-.04.1-.07-.08-.05a.27.27 0 0 1-.08.07l-.01-.01c-.2.1-.15.1-.06.07 0 .01.01.02.04.03-.24-.01-.58.2-.64.1-.6.22-1 .47-1.5.64-.07-.04.03-.12.18-.18l-.36.12c-.02-.08.2-.1.3-.15-.47-.01-.85.38-1.4.38l-.1.1h-.03c.01.03-.1.1-.17.13-.1-.05-.03-.16-.28-.1-.2-.02-.56.17-.82.26.15-.02.1.03.05.07-.13.03-.2-.03-.3.02l-.03-.1c.07.08-.3.16-.35.2-.1-.05.2-.1.2-.16l-.76.16c-.26.1.07.08-.05.18-.24.06-.47.16-.76.15l.1.07c-.45.14-.73.16-1.05.12-1.67.55-1.88.73-1.6.88.28.14.98.13.98.13 1.44.01 2.12-.33 3.73-.7z"/><path d="M146.52 346.7l2.1-3.23 1.87-2.4c.57-.8 1.26-1.5 2-2.36l1.2-1.38 1.46-1.6 3.25-3.3 3.4-3.08c.95-1.03 2.92-2.58 4.12-3.76l.54-.37c.4-.4.92-.86 1.37-1.23l-.01.04 1.63-1.57-.01.04.77-.72-.1.14 3.17-3.1-.14.02c2.17-1.97 2.73-2.92 4.64-4.75l-.01.04c1.03-1.32 1.92-2.3 2.83-3.27a36.22 36.22 0 0 0 2.75-3.44c-.25.35.15-.12.15-.08.94-1.28 1.92-2.67 1.8-2.78.7-.93.6-.73.74-.8-.06-.04.47-.9.96-1.64l-.2.36 1.4-2.17-.4.35c.78-1.13.34-.2 1-1.34l-.1-.05 2.65-4.07c3.72-6.73 5.95-14.74 7.28-21.7l.14-.3c.16-.12.14-1.95.3-2.2l.08-.82c.06-.22.17-.7.13-.3.13-.75.1-.77.17-1.32l.22-.8c.56-2.95.84-5.48 1.4-8.6.8-3.7 1.84-10.77 2.44-14.83.78-5.73 2.4-12.27 3.18-18.14.05-.2.1-.68.08-.68l.92-5.33s4.44-25.87.05-6.4v-.14c-.56 2.9-.9 4.75-1.1 6.8-.22.3-.43 2.4-.6 3.07v-.07c-.17 1.8-.73 3.65-.9 5.4 0-.07-.04-.1.02-.5-.2 1.26-.44 2.97-.56 3.05-.48 3-1.24 7.16-1.4 9.1v-.14c-.08 1.1-.22 1.42-.38 2.65-.02.06-.05.15-.05.13-.1 1.2-.57 3.47-.7 4.44l-.08.05-.4 2.37.16-.88c.13.34-.42 1.77-.6 3.5-.3 1.6-.18 3.32-.55 4.98-.05.8-.02-.72-.16.48-.1.02.03-.57-.1-.27-.15 1.18-.42 1.9-.6 3.35l-.08.05c-.18 1.9-.7 3.53-.78 4.8-.27 1.95-.44 1.27-.64 3.3l-.23.77c-.16.86.02.64-.2 1.6-.05-.07-.26 1.2-.22.63-.23 1.07-.4 2.16-.6 3.34s-.5 2.42-.9 3.8c-.03.64-.52 2-.55 2.48-.04.03-.23.73-.4 1.2-.18.48-.3.76-.08-.03.04-.13.1-.37.12-.35v-.2c-.63 1.5-.86 2.85-1.45 4.35.2-.43.4-1.04.32-.62-.18.47-.38.93-.57 1.4l.06-.3-.87 2.06.2-.26c-.44 1-.77 1.28-1.18 2.45-.18.53.53-.9.06.16-.63 1.33-1.77 3.2-2.68 4.85.17-.1-.1.32-.35.78h-.1c-.93 1.76-.5.54-1.46 2.27l.05-.18c-.04.18-.1.35-.15.52-.86 1.56-.66.7-1.6 2.47.42-.66.34-.2-.22.57l.08-.24c-.28.46-.38.6-.6.9.16-.28.01-.2-.44.44l.24-.48-.77 1.27c-.37.44-.8 1.04-1.2 1.56-.4.5-.77.96-.96 1.1 0 0-1.57 1.9-1.86 2.4.27-.42-.64.6-.45.24-.36.53-1.55 2-2.1 2.5l.1-.1c-1.96 1.98-3.15 3.6-5.03 5.26.14-.02-.83.88-.52.73-1.75 1.93-3.6 3.07-4.05 3.98-.85.82-1.1.9-1.56 1.27l.2-.2-3.4 2.97c-.6.57-.6.78-1.72 1.74.32-.37-.13.05-.54.4.26-.24.32-.33-.25.12-.06.08-.17.2-.28.3-.01 0-.03.02-.03 0-.68.63-.54.54-.22.26-.01.02.03.01.14-.07-.77.58-2 1.78-2.16 1.78-1 .98-1.8 1.86-2.57 2.7-.76.84-1.54 1.6-2.26 2.5-.2.16.1-.28.53-.8l-1.06 1.26c-.05-.06.6-.75.9-1.14-.7.7-1.33 1.48-2 2.3l-2.08 2.56-.23.42-.1.1c.03.01-.24.46-.43.74-.25.22-.12-.1-.8.8-.62.66-1.35 2.18-1.96 3.2.35-.54.27-.34.15-.1-.3.5-.55.72-.72 1.13h-.1c.18-.16-.58 1.38-.64 1.6-.2.26.34-.82.36-.97l-.76 1.54c-.1.27-.3.5-.7 1.58-.37 1.17.16-.17.03.4l-.54 1.53c-.18.52-.3 1.1-.48 1.67l.18-.36-.32 1.34c-.1.4-.12.8-.2 1.15-.1.72-.26 1.34-.3 2.03-.01 3.8 1.03 5.73 1.54 6.5.56.75.66.65.4.15-.16-.4-.5-1.32-.66-2.12-.12-.4-.13-.78-.2-1.05l-.07-.45c-.24-2.78.07-4.94.63-7.16.5-2.17 1.4-4.48 3.04-7.5zm103.84-40.03l3.2-7.65 1.77-5.13c.13-.83.7-2.18.9-3.14l.18-.34c.06-.33.15-.72.28-1.03v.03c.1-.5.28-1.03.33-1.28l.01.03.16-.6v.1l.65-2.5-.1.04c.54-1.62.5-2.27.97-3.74l.02.03c.24-1.94.82-2.96 1.02-4.97-.02.25.07-.1.08-.07.17-.9.34-1.87.17-1.92.13-.66.16-.53.24-.6-.07-.01.01-.6.1-1.1l-.02.24.26-1.48-.2.26c.2-.77.2-.17.32-.92l-.12-.01c.22-1.08.5-1.68.8-2.7.85-4.34 1.36-9.08 2.25-13.1l.12-.16c.14-.06 0-1.15.14-1.3l.02-.48c.04-.13.12-.4.1-.16.08-.44.06-.45.07-.77l.16-.46c.35-1.7.43-3.2.75-5 .5-2.15 1.02-6.28 1.3-8.66.33-3.35 1.42-7.14 1.72-10.58.03-.1.04-.4.02-.4l.48-3.12s.57-3.78.8-6.14.1-3.3-1.26 2.36l-.02-.08c-.32 1.7-.5 2.77-.53 3.96-.2.16-.23 1.4-.34 1.8l-.01-.04c-.02 1.06-.43 2.13-.46 3.15-.01-.04-.05-.07-.02-.3-.1.73-.2 1.74-.3 1.78-.24 1.75-.66 4.18-.67 5.32v-.08c.01.65-.1.83-.17 1.55-.02.04-.03.1-.04.08 0 .7-.3 2.03-.34 2.6l-.07.03-.2 1.38.1-.5c.15.2-.28 1.03-.32 2.05-.17.93.08 1.96-.17 2.92.01.48-.07-.43-.12.27-.1.01-.01-.33-.1-.17-.07.7-.28 1.1-.35 1.95l-.08.02c-.04 1.12-.43 2.05-.42 2.8-.13 1.14-.34.72-.4 1.92l-.18.44c-.1.5.06.38-.08.93-.06-.04-.17.7-.17.36-.3 1.25-.3 2.58-.74 4.22.06.38-.16 1.2-.1 1.5-.06.04-.3 1.67-.25.72 0-.08.03-.22.05-.2l-.05-.12c-.3.92-.23 1.73-.4 2.66.07-.27.13-.64.14-.4l-.16.87-.03-.2-.26 1.3.1-.17c-.15.63-.32.83-.34 1.56 0 .33.2-.58.1.1l-.74 3.17c.1-.1.05.2.01.5l-.08.02c-.1 1.16-.23.4-.37 1.54l-.03-.1.1.33c-.05 1.05-.26.52-.28 1.7.08-.45.2-.18.06.37l-.04-.15c-.04.3-.04.42-.1.62 0-.2-.08-.12-.16.34l-.03-.32-.04.88c-.2.64-.33 1.7-.5 1.95 0 0-.34 1.4-.3 1.74-.01-.3-.2.47-.23.24.01.38-.2 1.46-.37 1.87v-.08c-.45 1.56-.52 2.74-1 4.12.1-.04-.14.7.01.54-.27 1.5-.97 2.6-.8 3.2-.18.67-.3.76-.43 1.1l.03-.16c-.34 1.25-.47 1.6-.77 2.5-.1.47.01.6-.3 1.4.02-.28-.07.05-.17.36.06-.2.06-.26-.12.12 0 .06-.02.15-.04.24-.01 0-.02.02-.02.01-.15.5-.1.43-.02.2 0 .01.02 0 .07-.07-.26.5-.5 1.47-.63 1.5l-1.23 3.92c-.1.12-.04-.2.07-.56l-.3.9c-.07-.04.15-.53.23-.8-.5 1.02-.72 2.22-1.3 3.42l-.04.28-.04.07c.03.01-.04.3-.1.5-.14.15-.14-.07-.4.54-.26.45-.52 1.38-.76 2.02.16-.33.14-.2.1-.05-.13.3-.27.45-.34.7l-.1-.01c.13-.08-.25.83-.26.95-.14.14.15-.5.13-.6l-.78 1.82c-.22.67.13-.08.07.26-.24.57-.42 1.16-.77 1.78l.17-.17c-.43 1.1-.73 1.72-1.15 2.4-1.58 4.06-1.67 4.56-1.22 4.08.43-.5 1.26-2.02 1.26-2.02 1.7-3.1 2.24-4.82 3.8-8.6z"/></g></svg>