<svg xmlns="http://www.w3.org/2000/svg" viewBox="0 0 480 480" xmlns:v="https://vecta.io/nano"><path d="M248.6 438.1c-5.8 0-1.7-10.3-1.5-14.9-.8-5.5-1.6-21-1.6-21l23.9-1.9s.7 18.2 1.9 19.2c2.4 2.1 8.7 5.5 23.1 10 6.7 1.9 10.8 2.6 10.5 5.5s-1.4 2.8-1.4 2.8l-54.9.3z" fill="#e79a7a"/><path d="M245.5 446.2c0 1.4 1.2 2.6 2.6 2.6h56.3c1.4 0 2.6-1.2 2.6-2.6v-2.9l-61.6.1.1 2.8z" fill="#0a5f66"/><path d="M304.5 437.8h-56.3c-1.4 0-2.6 1.2-2.6 2.6v2.9l61.6-.1v-2.9c-.2-1.4-1.4-2.6-2.7-2.5z" fill="azure"/><linearGradient id="A" gradientUnits="userSpaceOnUse" x1="259.9426" y1="422.104" x2="256.2729" y2="402.116"><stop offset="0" stop-color="#cc7a5e" stop-opacity="0"/><stop offset=".9241" stop-color="#aa5f4b"/></linearGradient><path d="M258.4 425.5c10.8-.7 12.8-5.8 12.8-5.8s-.7-1.9-.9-3.5c-.4-3.7-1.3-17.6-1.3-17.6l-23.8 1.9 1.7 23.4c0 .1 2.6 2.2 11.5 1.6z" fill="url(#A)"/><g fill="#ad5c49"><path d="M266.1 413.7l.9-.8-1.5-.3zm5.5 7.2l1-.3-1.3-1zm-14.8 1.7h.7l-.4-.8zm.7-9.1l.2.6.6-.4zm7.2 4.6l-.7.2.7.4zm7.7 5l-.6.3.6.4zm-8.2-1.9l.2.7.5-.6zm-4.2-.4l.2.7.5-.7zm16.2 3.3l-.7.2.7.5zm-8.1-2.6l-.7.3.7.4zm-4.4-.8l.8-.9-1.4-.3zm-5.8-2.3l.9.4.1-1.2zm9.8-.3l-1.3-.8-.1 1.6zm-5.5 2.8l.5-.9-1.4.1zm-6.9-6.6l1.4.1-.6-1.2zm12.1.9l1.1.1-.4-1.3z"/><path d="M272.8 420.6v1.1l1.4-.1zm-19.7-4.5l1.1.1-.4-1.1zm13.2-3.9l1.1 1.9 1.6-1.9zm-9.3.1l1.9 2.4 1.8-2.5zm4.7 2l1.1-1.4-1.8-.6zm6.8-1.4l.7.4.1-.9zm-12.6 3.7h1l-.4-.9zm-8-3.4l1.1.1-.6-1zm7.1 1.7l.2.7.7-.5zm10.5-2.8l-2.8.1 1.7 2.8zm.5 3.6l.6.6.4-.9zm-15.1-2.3l.8 1.8 1.7-1.7zm12.6.9l-1.8 1.2 2.1 1.1zm-1.1 2.7l-.6-.6-.3.9zm-7.8 1.1l-.5-.6-.3.9zm14.1 2l.5-.6-.8-.2zm2.2 2.7l.5-.7-.8-.1zm3.7-.1l.5-.6-.8-.2zm-13.9-3.6l1.1.5v-1.3zm10.2 1.3l-1.3-.8-.2 1.5zm-3 .5l.4-1.1-1.4.1zm-9.9-3.5l1.3.2-.6-1.3zm12.4-1.7l-.3-2.2-1.6 1.2zm.3 2.3l-.3-2.2-1.6 1.2z"/><path d="M268.7 417.7l.2-1.1-1.3.2zm-15.6-5.4l1.3 2.2 1.6-2.2zm-3.8 0l.8 1.5 1-1.5zm21.9 7.1l-.5-1.4-1.2 1.2zm-13-3.6l2.5.3-.9-2.4zm7-.6l.2 1.2 1.2-.7z"/></g><linearGradient id="B" gradientUnits="userSpaceOnUse" x1="287.3401" y1="423.8576" x2="284.7486" y2="439.0764"><stop offset="0" stop-color="#0a7b95"/><stop offset=".9241" stop-color="#0a5657"/></linearGradient><path d="M297.1 429.6l-2.7-1c-.7 2.2-2.8 3.9-5.2 4.1-3.5.4-6.6-2.1-7-5.6-.1-.9 0-2 .3-2.8l-2.7-1c-.5-.1-1.1 0-1.3.5l-6.2 13.8h25.4v-7.1c0-.3-.3-.7-.6-.9z" fill="url(#B)"/><path d="M289.1 432.6c2.5-.2 4.5-1.9 5.2-4.1l-11.8-4.4c-.3.9-.4 1.8-.3 2.8.3 3.6 3.4 6.1 6.9 5.7z" fill="azure"/><path d="M247 423.5c-.2 0-.4-.1-.4-.3l-1.8-22.6c0-.2.1-.4.3-.4s.4.1.4.3l1.8 22.6c.1.2 0 .4-.3.4h0z" fill="#cc7a5e"/><path d="M182.7 438.1c-5.3-.8-4.8-9.3-2.2-14.9l3.8-21.8 24-.4s-4.9 17.5-3.6 18.5c2.4 2.1 8.7 5.5 23.1 10 6.7 1.9 10.8 2.6 10.5 5.5s-1.4 2.8-1.4 2.8l-54.2.3z" fill="#e79a7a"/><path d="M179 446.2c0 1.4 1.2 2.6 2.6 2.6h56.3c1.4 0 2.6-1.2 2.6-2.6v-2.9l-61.6.1.1 2.8z" fill="#0a5f66"/><path d="M237.9 437.8h-56.3c-1.4 0-2.6 1.2-2.6 2.6v2.9l61.6-.1v-2.9c-.2-1.4-1.3-2.6-2.7-2.5z" fill="azure"/><linearGradient id="C" gradientUnits="userSpaceOnUse" x1="196.7194" y1="421.7054" x2="193.2792" y2="402.9674"><stop offset="0" stop-color="#cc7a5e" stop-opacity="0"/><stop offset=".9241" stop-color="#aa5f4b"/></linearGradient><path d="M191.9 425.5c10.8-.7 12.8-5.8 12.8-5.8s-.4-1.8-.2-3.3c.6-4.2 4.7-17.8 4.7-17.8l-24.9 2.6-3.9 22.7c0 .1 2.6 2.2 11.5 1.6z" fill="url(#C)"/><g fill="#ad5c49"><path d="M200.5 413.7l1-.7-1.5-.4zm4.6 7.2l1-.3-1.3-1zm-15.2 1.4h.7l-.4-.8zm2.2-9.4l.2.6.6-.4zm5.7 4.9l-.7.2.7.5zm8.1 5.3l-.7.3.7.4zm-8.6-2.1l.2.7.5-.7zm-4.2-.5l.2.7.5-.7zm16.6 3.6l-.7.2.7.5zm-8.5-2.8l-.7.2.7.4zm-4.4-.9l.8-.9-1.4-.3zm-5.8-2.3l.9.4.1-1.1zm9.8-.3l-1.3-.8-.1 1.6zm-5.5 2.9l.5-1-1.4.1zm-5.4-7.1l1.4.2-.6-1.2zm13.1 1.9l1.5.2-.5-1.6z"/><path d="M206.2 420.6v1.1l1.5-.1zm-18.6-5.3l1.1.2-.3-1.1zm13.2-3.1l1.1 2 1.7-1.9zm-9.1-.5l1.7 2.5 2-2.4zm4.6 2.3l1.2-1.4-1.8-.7zm6.7-1l.7.4.1-.9zm-12.6 2.9l1 .1-.4-.9zm-7.8-3.7l1 .1-.5-1z"/><path d="M189.6 414.2l.1.7.8-.4zm10.4-2.1h-2.8l1.6 2.9zm.8 3.1l.9 1 .7-1.4zm-15.2-2.7l.7 1.8 1.7-1.6zm12.5 1.5l-1.8 1.1 2 1.3zm-1.5 2.3l-.6-.7-.3.9zm-8.9 1.5l-.5-.5-.3.8zm14.1 2.1l.5-.7-.8-.1zm2.6 2.9l.5-.7-.8-.1zm3.7-.1l.5-.6-.8-.2zm-14.3-3.9l1.1.6V418zm10.6 1.6l-1.3-.8-.3 1.5zm-3.4.2l.3-1H200zm-8.8-4.1l1.2.2-.5-1.3zm12.8-1.8l.4-2.2-1.9.6zm-.5 2.8l.3-1.6-1.4.5zm-2.7-.1l.2-1-1.3.1zm-14-5.9l1.2 2.3 1.7-2.1zm-3.8-.1l.7 1.4 1-1.3zm20.5 7.8v-1.4l-1.6.8zm-11.7-3.9l2.4.4-.8-2.5zm6.8-.2l.2 1.3 1.2-.7z"/></g><linearGradient id="D" gradientUnits="userSpaceOnUse" x1="220.8386" y1="423.8662" x2="218.2471" y2="439.085"><stop offset="0" stop-color="#0a7b95"/><stop offset=".9241" stop-color="#0a5657"/></linearGradient><path d="M230.6 429.6l-2.7-1c-.7 2.2-2.8 3.9-5.2 4.1-3.5.4-6.6-2.1-7-5.6-.1-.9 0-2 .3-2.8l-2.7-1c-.5-.1-1.1 0-1.3.5l-6.2 13.8h25.4v-7.1c-.1-.3-.4-.7-.6-.9z" fill="url(#D)"/><path d="M222.5 432.6c2.5-.2 4.5-1.9 5.2-4.1l-11.8-4.4c-.3.9-.4 1.8-.3 2.8.3 3.6 3.4 6.1 6.9 5.7z" fill="azure"/><path d="M180.5 423.5s-.1 0 0 0c-.3 0-.4-.2-.4-.4l3.9-22.7c0-.2.2-.3.4-.3s.3.2.3.4l-3.9 22.7c0 .1-.1.3-.3.3z" fill="#cc7a5e"/><linearGradient id="E" gradientUnits="userSpaceOnUse" x1="235.6639" y1="292.9627" x2="301.7761" y2="343.7107"><stop offset="0" stop-color="#0a4552"/><stop offset="1" stop-color="#0a5f66"/></linearGradient><path d="M277.7 310.5c-.1-14.3-3.5-80.8-5.6-102.7h-16.8l-37.4 19.6 15 90.9c1.1 6.8 8.8 86.2 8.9 91.1-.1 1.4 1 2.6 2.4 2.7l30.6.1c1.7 0 3.3-1.4 3.4-3.2 1-13.5-.4-84.1-.5-98.5z" fill="url(#E)"/><path d="M254.3 412.2c0-.7-1.7-72.8-2.1-78.8l-3.5-45.5 1-.1c0 .4 3.1 39.4 3.5 45.5s2.1 78.2 2.1 78.9h-1z" fill="#2d7f7f"/><linearGradient id="F" gradientUnits="userSpaceOnUse" x1="258.8215" y1="328.5878" x2="231.5776" y2="332.7942"><stop offset="0" stop-color="#00394a" stop-opacity="0"/><stop offset=".9975" stop-color="#00394a"/></linearGradient><path d="M275.6 412.2l-30.5-.1c-2.4-.1-3.3-1.2-3.2-2.5-.3-6.4-4-35.2-4.7-47.8-1.6-15.2-2.7-29.3-3.4-43-2.2-8.7-6.9-39-6.9-39l24.7-36.3s18.3 59.2 21.1 85.9c2.7 26.4 2.9 82.8 2.9 82.8z" fill="url(#F)"/><path d="M192.7 304.9l-14 101.8c-.4 2.7 0 4.2 2.1 4.4l28.8 1.4c2.6 0 4-1 4.8-3.4l28.6-97.4 25.4-103.8h-68.1l-7.6 97z" fill="#0a5f66"/><g fill="#044147"><path d="M264.7 348.2l-.6 1h1l-.4-1zm2.1-3.1l.5-1.4-1.6.3 1.1 1.1zm4 20l-2.1.1 1.4 1.4.7-1.5zm2.8-8.8l-1 1.8 2-.5-1-1.3.6-1.6-2 .3 1.4 1.3zm1.3-4.2l-1 1.9 2-.5-1-1.4zm-3.5-9l-.7 1.5-.2-.1v1l.7-.4-.2-.1 1.3-.3-.9-1.6zm.2-14.2l-.8 1.2-.4.3h.2l-.2.3h.3l-.6 1h1.1l-.4-.9h.2l.4.1-.1-.1 1.1-.2-.8-1.7zm1.6 22.3l-2 .3 1.5 1.3.5-1.6zm2-22.3l-1.5-1.3-.3 1.8h-.7l.9 1.4.5-1.3 1.1-.6zm-4.7 44.6l1.7-.4-1.4-1.5-.3 1.9zm.8 7.8l-.4 1.9 1.7-.4-1.3-1.5zm-4.3-16.9l1.8-.5-1.5-1.4-.3 1.9zm-.8-52.5l.1-.2h-.2l-.1-.1v.1l-.8.2.6.8-.3.8 1.8-.3-1.1-1.3zm2.6 46.3l-.3 1.9 1.8-.5-1.5-1.4zm2.2 32.7l1.4-.4-1.1-1.2-.3 1.6zm7.2 1.3L277 391l-.2 1.7 1.4-.5z"/><path d="M273 345l1.4-.5-1.1-1.2-.3 1.7zm-1.3 4l-2 .3 1.5 1.3.5-1.6zm-12.7-3.8v1l.8-.6-.8-.4zm14 5.1l.3-.8.1-.1h-.1l.2-.4-.4.1-.5-.2v.4l-.4.1.8.9zm.8-2l.9-.5-.9-.8v1.3zm-2.3-6.8l-.9.8 1.1.3-.2-1.1zm-1 22.2l-.8 1.1 1.2.2-.4-1.3zm3.2 11.8l-.7 1.1 1.3.2-.6-1.3zm-2.1-14.1l-.8 1 1.3.2-.5-1.2zm3.7-3.5l.8.7.1-.3 1.4.7-1.7.9-.4-.4-.1 1.9-1.2-2.2-1.2 2.8h2.4v.5l1.5-.7 1.2.8-1.7.8h.1l-1.2.7 1.8 1.1-1.1 1 2.4 1.2-1.7 1.1 1.6.8v-2.2l-.1.1-.1-3-1.1 1-.1-1.5 1.3.5v-1.6l-.1-.8.1-1.1-.8.5-1.5-1.2 1.7.6V359l.6.2-.1-3-1.7 1.4-1.1.3zm-10.1.3l1-.6-.9-.5-.1 1.1zm9.3 10.2l-1.4-.3.2 1.2 1.2-.9zm-.2 3.7l1.2-.9-1.4-.2.2 1.1zm2.1-.6l2 1.4v-2.6l-2 1.2zm-1.6-6.4l-1.4-.8.7-.4-.8-.5-.1.8-.2-.1.3 2 1.5-1zm-.6 5.3l-1.9-1 .3 2 1.6-1z"/><path d="M273.5 353.3l-1.9-1 .3 2 1.6-1zm-1-9.6l1.6-1-1.9-1 .3 2zm-7.5 37.5l.2-1-1.1.3.9.7zm6.9 10.8l-.9.6.3.3-1.9.5 1 1.4.9-1.8.5.3.1-1.3zm.6-11.9l.9-.8-1.2-.2.3 1zm6 9.1l-.4.6.3.2-.9.9 1.2.7v-1.9l-.2-.5.3.2-.1-1.4-1 .9.8.3zm-14.7-33.5l.8.2-.3-.7-.5.5zm6.6.9l.3-.7-.8.1.5.6zm2.3-15.7l.7-.6-.8-.3.1.9zm-2.9 2.4l-.3.4.8.1-.5-.5zm6.7 1.1h0l-.8.7.7.3-.1.5-1-.2.6 1.2.2.7.7-.8-.8-.2.1-.2 1.3-.4-.1-.2.7.3-.1-3-1.4 1.3zm-3.5-11.1v.7l.5-.4-.5-.3zm-3.2 3.1l.6.1-.2-.6-.4.5zm5 .2l.3.5.2-.6-.5.1zm-6.4 32.3l-.8.9 1.5.4-.7-1.3zm4.8 6l-1.3.2.7.8.6-1zm1.9-8.8l-.1 1.1.9-.4-.8-.7zm-3.3 29l.9.8.1-1.1-1 .3zm3.9.6l-.9.4.9.8v-1.2zm-4.6-28.9l-1 1.4 2.1.3-1.1-1.7zm-4.3 15.9l1.2.2-.6-1-.6.8zm2.3-2.2l-.6-1-.1.2-.3-.6-.5.8h.6l-.3.2 1.2.4zm4.4 18.5l.9-1.8-1.9.5 1 1.3zm1.1-.4l1 1.4.9-1.8-1.9.4zm.9-6.2l.8-1.8-1.9.5 1.1 1.3zm-3.3-47l-.6 1 1.2-.2-.6-.8zm-3 8.7l-.9.4.9.8v-1.2zm.4-2.9l-.3 1.2 1.5-.1-1.2-1.1zm7.1 4.4l-1 .7.9.5.1-1.2zm-8.4-7.4l-.9.4.9.8v-1.2zm3.8-20.7l-.8 1.1 1.2.2-.4-1.3zm-2.9 11.8l-.6 1h1l-.4-1z"/><path d="M272.2 334.1l-1 .2 1.6-1.1-1.8-1 .2 2 .7.6.3-.7zm-8.6 2.9l.8-.5-.3-.3.2-.7-1.1.3.5.4-.1.8zm9.5-1.1l.1.2-1.3.2 1 1.3.3-1.3.3.7.8-1-1.2-.1zm5.3 71.4l.1-1.4-.7.6.6.8zm-1.7-96.8l-1.2 1 1.4.6-.2-1.6.9.6-.1-2.9-2.5 1.2 1.7 1.1zm-5.8 14.7l.9-.8-1.3-.4v.2l-.2-.1-.4-1v-.1l-.7.6.3.1-1.1 1.9 2.6.3-.1-.7zm-.3-.9h0l.3.6-.3-.6zm-1.7 8.1l.3-.9-.5.1-.3-.7-.5.8-.5.9 1.1.1.2.3.1-.3h.2l-.1-.3zm3.6 5.7l-.7 1.7 1.8-.1-1.1-1.6zm-2.1-.5l1.8-.1-.9-1.7-.9 1.8zm5.8 4.1l-1.3.7 1.4.6-.5.2 1.5.7v-1.6l-.6.3v-.7l1.1.5-.1-3-2.4 2 .9.3zm1.9 7.9l-.1-3-2.3 1.9.8.4-1 .2.3.3-.2 1.7 1.7-.5-.5-.4.2-.9 1.1.3zm-1.5 2.4l.4.9.4.1.3.3-1.7 1.6.3.2-.5.1.8.7.1-.6 1.5.8-.2-6-2.3 1.9h.9zm-1.2 19.2l2.4-1-2.5-2.1.1 3.1zm1.5 3.2l-.1-.8-.6.3h-.1l1.2-1.5-2.1.8-.2-.3v.2l-.8.1.8.7v.6l-.4-.3v1.2l-.1.1h.1v1.7l1.4-.7.8.6-.7.4-.1-.2-.1.4-.6.5.6.1v.1l-.9.7 1.6.8-.7.7-1.5-2.4-1.2 2.8 2.2-.1-.1.2 2.1.9-.9.7-.2-.3v.6l-.1.1h.1v.2l-.2-.1v3.1l1.4-.6-1 .9.5.2.3 1h-2.5l1.3 2.3 1.6-2.3h.7l-1.2-1 1.3.6v-1.7l-.2-.4-.1-.1-.1-1.1-.6.3-.3-.4.8-.2.5.3v-2.3l-.1-2.9-1.2.8-.1-.7.9-.2-.2-.4v-1.5l.5.6V375l-.8.5-.3-.3.6-.2.2.1v-.2l.6-.2-1.7-.3zm-.8-36l-1.5.2 1.3 1.1.2-1.3 1.8.7-.1-3.1-2.3 1.9.6.5zm.3 70.6l1.5 1.1.4-2.5-1.9 1.4z"/><path d="M276.2 406.2l-.7 2.1 2-.1-1.3-2zm-8.4-54.7l-1.1.3.8.7v.3l.7-.6-.5-.1.1-.6zm-2-6.5l-.8.7 1 .1-.2-.8zm8.7-67h-1.6l1 1.3.6-1.3zm-6.6 45.4l-.2-.6-.4.3.6.3zm5.1-35.8l.9-.8-1.3-.4.4 1.2zm-2.6-8l-.7 1h1.1l-.4-1zm-5.2 8.7l.7.9.2-1.2-.9.3zm11 2h-.9l.6.7-.7 1 1.9.4-.9-1.6v-.5zm-7.7 1.3l-.7-.6-.3 1 1-.4zm-4.6 35.4l.2-.8h.3l-.6-1.5-1.1 1.3h.5l.7 1zm5.4 5.9l.2 1.1.7-.4-.9-.7zm-6.1-3.2l-.1-.8-.8.5.9.3zm6.1-28.3l-1.1.8 1.4.4-.3-1.2zm-1.7.5l-1.6.7 1.5.9.1-1.6zm3.4 2.8l-.3-1.9-1.6 1.1 1.4.8v.1h-.5l.3 1 .9-.8-.2-.3zm1.2 21.3l-.7-.9-.3 1.2 1-.3zm-.8-6.4l.9.4.1-.9-1 .5zm-6.3 5l.6-.7v.2l1.1-.4-.9-.7-.2.9-.9-.3.3 1zm-4.3-4l-.2 1 .8-.1-.6-.9zm9.7-21.5l-1.9 1.3 2 .7-.1-2zm2.6 1.9l1.6-1.5-1.8-.8.2 2.3zm1.8.8l.2 2.2 1.6-1.5-1.8-.7zm0 4.7l1.5 1.7.5-2.2-2 .5z"/><path d="M274.3 302.9l-1.1 1.5 1.3.1 3 1.5-.1-2.8-2.1.8-1-1.1zm.1 5.4l1.6.3-1.1-1.9-.8 1.2-.1-.1-1.2 1.5.8.1.4 1.9-.8.8 2 .9-.5-2 .9-.7-1.7-.9 1.1.2-.6-1.3zm-2.6-7.3l-.7 1.1-.5-.9-.4 1.2.5-.1.3.6.2-.4 1.7.3-1.1-1.8zm-.9 4l2.2.4-1.1-1.9-1.1 1.5zm-2.5 4l1.5-1.6-1.8-.7.3 2.3zm8.8-14.2l-.1-2-1.7.7 1.8 1.3zm-.4-5.2l-.1-2-1.6.8 1.7 1.2zm-1-4.1l-.9-1.6-1.1 1.3 1.8.4v1.1l1-.4-.8-.8z"/><path d="M275.3 272.2l-1.1 1.3 1.8.5-.7-1.8zm-3 46.9l1.2-1.1-1.4-.5.2 1.6zm.9 5l.2 1.4-1.1 1.3 2.1.6-.8-1.8 1-1-1.4-.5zm-.7-12.4l-.9 1.7h.2l-.4.6h-.1l.1.1v.1h.1l.8 2 1.1-1.9-1.4-.2.6-.2-.5-.5 1.7-.1-1.3-1.6zm-1.6-.8h-.3l.2.3.6 1.1.5-1.2h1l-1.4-1.6-.6 1.4zm3.7 3.9l-.7 1.8 2.1-.4-.7 1.5-.2-.1-.9 1.7 2-.1-1.4.8 1.5.6-1.6.5 1.1.7h-.8l.7.9.4-.8.9.5-2.1 1.9 2.3.7-2.3 1.8 2.3.6-.7 1 .4-.9-1.7.1.9 1.2-1.3 1.1.4.1-1.8 1.3 1.7.5-.4.3 3.2 2.1v-6.8l-.2-2.1h.1l.1-3.3-.4.5.2-1.4h.1v-2.4l-.8.4-.8-.9 1.7-.1-1.1-2.2-.1.4-1-.9 2 .8v-2.5l-2.2 1.5-.9-.4zm2 16.1l-1.3.8-.2-1.6 1.5.8zm-4 2.2l1.9.6-.2 1 2-1.1-1.5-1.3-.2 1-.7-1.7-1.3 1.5zm.8.7l-.9 1.2 1.7.2-.8-1.4z"/><path d="M271.8 331.8l-.4.1.2.3-.1.1h.2l.1.1v-.1l1.3.3-.7-1.5-.6.7zm5.5 1.5l-1.7 1 .6.4-.9 1.3 2.2.3-.7-1.2.6.4-.1-2.2zm-3.2 51.3l1.2-.9-1.4-.3.2 1.2zm1.4 1.8l-1.2-.2-.2-.3.5-.3-1.8-1 .3 2 .5-.4v.1l.7-.2.2 1.1 1-.8zm-7.4-1.2l1.5.4-.7-1.2-.8.8zm5.1 6l.5-1-1.1.2.6.8zm3.1-9.2l-.9-.8v1.1l.9-.3zm2.1 17.8l-.9 1 .9.7-.9 1.1h.1l-1.2 2.8h2.1l-1.1-2.7 1 .9v-2l.1-1.8.1-.4V392l-1.2 1.1-.2-.4-.1.7-.1.1h.1l-.1.8 1.2-.3-.1.6-1.5 1.7 1.6 1.3-.6 1.1-.6-.1.1.8.5-.2.8.6zm-5.9-80.5l.9 2-1.5.8 1.5.7v.1h-1.1l.6 1.2-.5.1.3.5.3-.5.1.2.4-1 1.7.4-.9-2-.8.9v-1.4l.4-.6.8-.1-.5-.5.2-.5-1.9-.3zm2.1-30.1l.8-1.4-1.3-.1.5 1.5zm-4.6 33.1l.7-1.4h-.2l.4-.3-.6-.2v.5l-.8-.1.5 1.5zm-.7-7.8h0l.8-2.9-2.6.5 1.4 1.7-.4.9.8-.2zm3.1 6.5l-.6-.8-.5 1 1.1-.2zm-1.2-15.8l.4 2.2 1.2-1.3-.1.9.8-.3-.7-.7.2-.3-1.8-.5zm.6-8.7l-1.1 1.5 2.2.5-1.1-2zm-7.3 17.8l.8.1-.2-.7-.6.6zm-3.7-22.3l.8-.1-.6-.9-.2 1zm1.4-5.9l-.7.3.7.4v-.7zm2.1 28l-.8-.3.2 1 .6-.7zm2.1-5.2l-1.1.3.8.8.3-1.1zm-1.3 11.7v1.8l1.7-.6-1.7-1.2zm10.4-22l-.9 1.5 1.6.1-.4.4-1.3.9 2.8.9-.1-2.9-.7.6-1-1.5zm-10 16.1l-1.7.5 1.4 1 .3-1.5zm6.6-21l.5.6-.2-.1v1.1l.5-.3-.6.9 1 .2-.3-1 .2-.1-.4-.3.6-.8-1.3-.2zm-3.3-5.5l.6.2-.1-.8-.5.6-.3-.3-.5 1.1 1.1-.2-.3-.6zm-2.6 9.8v-1.1l-.9.4.9.7zm-3.7-8.1l.6-.5-.9-.5.3 1zm-1.4-5.2l.8.1-.2-.7-.6.6zm13.7-4.7l1 .3-.1-.8-.9.5zm-4.8 5.4l-.9-.1.4.9.5-.8zm3.3-1.5l-1-.8v1.1l1-.3zm-1.2-6.8l-.8.7 1 .3-.2-1zm-6.3 5.9l.1-.5-.8.3.7.6-.3.1.6.9.5-1.1.1-.3h-.9zm-.1.5l.1-.3.1.2-.2.1zm4.1-.8l-.5-1.5-1.2 1.2 1.7.3zm6.9 1.9l-.2-2.1-1.7.9 1.9 1.2zm-.4-5.1l-.1-2.2-1.7.9 1.8 1.3zm-10 39.8l.8 1.2.5-1.4-1.3.2zm-2.7 1.4l.5-1.1-1.1.2.6.9zm.4-28.8l.8.5.1-1-.9.5zm6.2 25.1l-.1-.4.6-.2-.8-1-.3 1-.3.2-.7-.9-.1.4h-.1l-.7 1h.3v.1l.7-.1h.2l.4-.1h.9z"/><path d="M264.1 323.3h-.3l.4-.1-.4-.5-.5.6h-.3l.3.9.8-.9zm1-5.5l-1 .7.9.5.1-1.2zm0-36.3l.8-.1-.4-.5-.4.6zm7.7-1l-.2.8h-1.1l.5 1 .7-1.1v.4l1-.3-.9-.8zm1.2-5.8l-.9.4.9.5v-.9zm-7.5 4.8l-.8-.3.2 1 .6-.7zm-.3 53.7l.1 2 1.7-.8-1.8-1.2zm-5.1-5.5l-.9 1.4 2 .1-1.1-1.5zm5.6.7l-1.7.5 1.4 1 .3-1.5zm.2 8.7l.8 1.1.6-1.1h-1.4zM263 332l-.3 1.2 1-.5-.7-.7zm-2.3 9.7l1 .6-.2-1.2-.8.6zm5-36.6l.1.8-.5-.2-.1 1 .8-.6-.3-.1.5-.5-.5-.4zm-.6-5.1l-.6.7.8.1-.2-.8zm-4.8 5.9l.5.6.3-.7-.8.1zm-1.9 28.4l-.9-.3.3 1 .6-.7zm12.8-4.9l-1-.7v1.1l1-.4zm-6.6-.6l-.9-.1.4.9.5-.8zm6.8-40l1 .3-.2-.9-.8.6zm-4.3 37.2l.6.9.5-1.1-1.1.2z"/><path d="M268.5 329.9l.9-1.5.8.4.1-.9-.7.3.2-.3-.3-.1.4-.2-.7-.5v.6l-1.2-.2.5 2.4zm-9.9 6.7l.8.3v-1l-.8.7zm12.7-.5l.9-.6-1.1-.6.2 1.2zm-5-4.6l.1-1.2-.5.5-.2-.5-.4.4.4.1-.1.1.7.6zm3.2-34.7l1.7-.7-1.5-1.3-.2 2zm3.9-1.5l2 .2-1.1-1.6-.9 1.4zm.2-4.3l.4-1.5-1.7.5 1.3 1zm-7.5 3.7h0l.4-.6-.9-.1.4.6-1.1-.2.6 1.2.6-.9zm-5.3-5.7l-.5 1.1 1.1-.2-.6-.9zm3.2 20.7l-1-.8v1.1l1-.3zm-.8-7.2l-.8.7 1 .3-.2-1zm-6.8 6.3l.4.9.4-.9h-.8zm3.8 14.4l-1-.7v1.1l1-.4zm-.8-7.3l-.1-.8-.8.7.9.1zm17.7-17.3l.1-2.2-2.5 1.5 2.4.7zm-9.8-9.4l-1.3.2.8 1.2.5-1.4zm-4.6 1.9l.5-1.1-1.1.2.6.9zm.4 2.9l.5-.9h-.3l.4-.1-.4-.5-.5.6-.2-.1.5 1zm6.1.7l1-.4-1-.8v1.2zm-3.6 52.4l-1.1.3.7.8.4-1.1zm-2.8-5.7l1 .1-.2-.9-.8.8zm3.4-5.1h-1l.2-.4h.2l-.4-.5-.1.5h-.3l.2.5.2.4.6.7.4-1.2zm6.4-43.9l2 .3-1.1-1.6-.9 1.3zm-2.9 56.2l-1.4-.1.8 1.1.6-1zm-5.8-5.6l-.3 1.2 1-.4-.7-.8zm-1.9 9.9l1 .6-.2-1.2-.8.6zm-2-12.7l-.9-.3.1.5-.5.4 1 .6-.1-.8.4-.4zm-3-4.3l.8-.1-.3-.7-.5.8zm3.3 22.1l.5-.5-.9-.3.4.8zm-1.8-5.6l-.5.6h.8l-.3-.6zm12.7-12.2l.5-.1-.6-.9-.4.6-.5-.2.1 1.2.9-.6zm-1.5-6.3l-.7.8 1 .1-.3-.9zm-5.5 7.4l.3-.9-.9.1.6.8zm2.5-3.4l.1 1.2-.6.2.9.8v-1.2l-.3.1.8-.6-.9-.5zm-.4-4.9l-.3-.9-.4.5-1 .5.9.7.2-.9.6.1zm-5.2 5.8l-.9.1.6.8.3-.9zm-1.4 9l.8.3v-1l-.8.7zm-.4-9.6l-1.4-.1.8 1.1.6-1zm3-.6l.9-.6-1-.7.1 1.3zm-.6-6.8l-.5.5-.2-.3-.4 1.1 1-.4-.2-.4h.6l-.3-.5zm9.8-56.5l-1 .7 1 .6v-1.3zm.4 17l-1.1.4.8.7.3-1.1zm-2.2 17.3l-1.1.4.8.7.3-1.1zm-1-9.3l.7-1.4-1.5.3.8 1.1z"/></g><linearGradient id="G" gradientUnits="userSpaceOnUse" x1="225.377" y1="308.4942" x2="264.4147" y2="323.3602"><stop offset="0" stop-color="#00394a" stop-opacity="0"/><stop offset=".9975" stop-color="#00394a"/></linearGradient><path d="M209 412.5c2.8 0 5.2-1.4 5.4-3.1l27.7-95.9c4.4-14.1 23.5-94.8 25.5-105.3-9.2-.4-32.7.4-32.7.4l-44.1 203.1 18.2.8z" fill="url(#G)"/><g fill="#147a7c"><path d="M193.6 384.6c.2 0 .5-.1.6-.3l.1-.1-1.1-.2c-.1.1.1.5.4.6zm18.5-136.1c0 .1 0 .2.1.3 0-.2.1-.5 0-.7-.1.1-.1.2-.1.4z"/><path d="M191.7 382.6l.8-1-1.2-.3.4 1.3zm.3 1.4l.6.1-.4.4-.1-.2-.5.8h.2l-.2.2 1.6.2-.4-1.3.8.1v.1l.2-.1.4-.4-.6-.2-.1-.4-.2.2-.6-1-.7 1.5zm-11.2 14.6l-.5-.4.8 3 1.9-1.1-1.7-1.2 1.1-.7-1.8-.6.2 1zm5.2-4.7l-1-1.5-.8 1.5h1.8zm1.3-20.6l1.5-1.9-2.2.1.7 1.8zm2.3 9.7l.2.2.1-.6.1-.1.1-.6-1 .3.2.2h-.4l.1-.6-.7.4.2.2-.7-.1.8 1.8 1-1.1zm.2-14.3l-.9-.4.4 1.3-.6.8 2.4.2-1.1-1.4.3-.3-.4-.1 1.4-1.6-2.2.1.7 1.4zm-.3 4.3l-1 1.8 2.4.2-1.4-2zm6.4-20.7l1-2h-2.2l1.2 2zm.2-12.2l1.3 2 .8-2h-2.1zm1.6 23.4l.8-2-2.1.1 1.3 1.9zm-2 2.4l-2.1.1 1.3 2.1.3-.6.6-.2-.4-.2.3-1.2zm-10.3 16.3l.9 1.6.7-1.8-1.6.2zm4.4-4.6l1.3.1-.2.2.7.2v-.1l.6.1-1.3-2-1.1 1.5zm12.6 7.3l.3-1.1-1.1.3.8.8zm-13.4.7l-1.2-.5v1.3l1.2-.8z"/><path d="M194.2 359.8l.2 1.6 1-1-1.2-.6zm-.8-13.6l.2 1.6 1-1-1.2-.6zm5.2 23.7l.4-1.3-1.3.3.9 1zm-6.6-14.4v1.1l1-1-.8-.3.1-1-1.5.7 1.2.5zm-3.7-4.8l-.3-.5-.1.3-1-.9-.3 2.6 2.5-1.1-.8-.4zm2 8l1.3 1.1-.9.1.8.8.3-.8.2.2.2-2.4-1.9 1z"/><path d="M204.9 343.1l-.4 1.1 1.5-.1-1.1-1zm-15.8 3.6l-.4-.5.1-.1-.7-.7.4.1v.2l.4-.1 1.1.3-.1-.4 1.1-.5.1.2.2-.2h.1l-.1-.1.3-.4.5 1.1 1.7-2.9-2.8-.2-2.6-1.5-.5 3.6.7-.4.1.3-.1.8-.4.6-.4-.7-.4 3.4 1.8-.6.2.3-.6.1-.2-.2-.2.2-.6.1.3.5-.3.1.4.4.1.8.4-.2.1.1-.4.8 1.4.2.2.2v-.2l.8.1-.7-1 .1-.8v.1l1.1 2.3 1.3-1.8-2-.5.2-1.1.4-.1-.3-.3.3-1.7-2.1.3zm1.4-4.4l.6 1.4-.7.3-.1-.1.2-.4-.6-.1-.5-.4 1.1-.7zm-1.3.9l-.1.4h-.5l.6-.4zm10.2 28.2l.1.8.6-.3-.7-.5zm-7.3-2.5l-.1-.2-.5.8.4.1-.2.1.9.2-.1.1.8.1-.2-.6-.2-1.2-.8.6zm-.9 15.2l-.8-.4.1.8.7-.4zm-7.2-.8l1.1-.5-.6-.5.2-.6 1.1.4-.6-2.4-.6.3v-.6l1.1-.7-2.4-1.8-.5 3.4.7-.3 1.1.4.4.3-.2.2-1.7.1.1.4-.7-.6-.5 3.5 2-1zm31.7-25.5l-.6-.5-.2.8.8-.3zm-5.5 6.4l-.1-.8-.6.3.7.5z"/><path d="M197.8 354.7l.6 1.5 1-.8-1.6-.7zm-2.4-7.6l-.8 1h1.4l-.6-1zm-6.2 9.4l.8 1 .3-1.3-1.1.3zm6.6-.1l-2.3-.8.7 1.8-.8-.2 1 2.3-.1.1 2.4.5-1.1-1.7.3-.3-1.3-.3 1.2-1.4zm6.1-15.8l.4 1 .1.8 1-.7-.6-.3.5-.3-1.4-.5zm-1.7 2.6h0l-.1-.3-.6 1.1.7-.1.2.6.5-.4.2.6.8-.6-.8-.3.3-.3-1.2-.3zm0-16.8l-.1-.2-.4.7h.2l-.3.8 2.2-.7-1.2-1.5-.4.9zm-6.6-18.1l.4.2.1-.4.3-.1-.3-.2v-.1h-.1l-.3-.2h.2l1.3 1.7.3-1.5v.1l.9-1.2-1.7-.4.5.8-.8.2-.2-1.1.6-.3 1.9.1-.3-.6h.1l-.1-.1-.7-1.7-.4.9-.7-.4 1.2-2-2.9-.7.3 1.8-.4-.2-.2 2.3-.2 1.3h.1v.4l.2-.1-.8 2.1 1.7-.6zm-.3-1.8h0l-.1.2-.1-.1.2-.1zm5.1 15.2l-1.3-1.4-.9 2.2.8-.2.1.8.8-.6-.8-.2 1.3-.6zm-3.1-8.9l1.5-1.2-2.1-1.1.1.8h-.8l.6.9.3-.8.4 1.4zm.9 10.4l-1.3-1.4-.9 2.2.8-.2.1.8.8-.6-.8-.2 1.3-.6zm-8.2 57.3l.4 1 .8-1H188zm5.7-7.9h1.2l-.8-1-.4 1zm-1.5 1.9l.8-.7-.9-.4-.1-.2-.1.1-.3-.1.4-.1-.7-.6-.1.5-.2.2.1-1.7-2 .9 1.4 1.3.2.2v-.2l.7-.1-.1.3h.3l.1.4h-.2l1.1 1.2.5-1.2-.9.2zm-.8-1.4h0l.1.2-.1-.2zm-4 14.6l.3 1.2.8-1-1.1-.2zm5.9-8.4l1.2-.1-.8-1-.4 1.1z"/><path d="M193.5 300.8l.9-.3.3.9.8-1.2.3.8.1-.1.7 1.4-.8.5.8.4v-.7l1-1.4.2.3.4-1h-.3l-1.3-.3.4-.4-.5-.2.5-.8-.8-.1 1-.4-.5-.5.5-.3-.8-.3v.4l-.8-.6-.6-.5-1.3-.8v.1l-.3.1-.2 2.6.5 1.3.2.6-.7-.7.3 1.2zm1.7-1.8l.1.6-.9-.2v-.2l.8-.2zm-3.9 64.3l-2.7-.4.2-.6-2.1.5-1.1-1.2 1.4-.4.2.8.9-.8-.4-.3.6-.1.9-.5-1.1-1 .7-1h-.8l.5-.3-2.5-1.7-.5 3.5 1.3-.7.3.6-.1 1-1.3-.9-.4 1.9-.2-.2-.3 2.5 1.2-.4 1.4 1.6-2.6-1 .6 1.4-.3.3-.5-.5.3.8-.3.1-.2.3-.3 2.1 2.7-1 .3-.1-.2.4 1.4.1-.8-1-.2.4-.3-.3v-.2h-.1l-.1-.1.1-.1h-.1l-.8-.6v-.2l1.8-.6.4.5.4-2.2 1 2.6 1.7-3zm-6.4 24.4l-1.8-.4.7 2.2 1.1-1.8zm-1.4 7.9l-1.8-.4.7 2.2 1.1-1.8z"/><path d="M184.1 386.9l.2-.2 1.2-.2-.5-.4.2-.2 1.4 1.2-.7.4.6.3-.9.4.7.6.1-.4.7.1-.4-.9v-.4l.1.1.2-2.4-1.8.8-1-.4h.3l-1.5-1.1-.1.8-.2.7-.7-.6-.6 3.4 3-1.6h-.3zm-1.4-1l.4-.1.1.4-.1.1-.4-.4zm1.2 12.8l3.4 1-1.3-3.1-2.1 2.1zm11.8-24.1l.1-.4-.6.3v-.3l-.7.4.6.3v-.2l.2.2-.5.6 1.5-.1-.6-.8zm-4.4 20.3l1.1-.5-1.1-.4v.9zm2.2-56.1l1.5.6-.1-1.5-1.4.9zm0-3l1.3.4.3.3-.6.2 1.8 1.4.1-2.4-.6.3.2-.2h-.1l-.6-.2.1.3h-.1l-.1-1.4-1.7 1.3zm-5.4 4.8l1.9-.7.2.3.2-.5.2-.1-.2-.2.2-.2.1.2.3-1 .2-.2.6-2.1-1.8.5 1.4-.6h-.4l.5-.5-.8-.4v-.4l2.7.4-.9-2.9-1.2 1.2-.1-1.4-1 .9-.1-.1.7-.6-.8-.4 1.7-.9-.2-.2h.2v.1l.7-1.8h-.3l.8-.7-.4-.2.1-.1.6-.3-.3-.2.3-.7-1.4.2.1-.3.6-.9.3.3-.1.1.6.4.1-.8-.2.2.1-.4-.6.1.6-.9.7.5 1-.4-1-.8-.8.7-3-1.5-.3 2.2 1.3 1.3h-1.5l-.2 1.7 1.4 1-.4-.4-.3.2.6.4-.2.3-1.3-.4-.2 1.5.4.3v.9l-.5-.5-.2 1.4 1.5-.3.3.1-.8.7-.8-.1.5.5.1.3-.9-.5-.3 2 .1.3-.2.2.4-.1-.5.9h1.1l-.5.5-.1-.1-.5-.1-.1 3.1zm3.4-12.1l.1.4-.4-.1.3-.3zm9.2 10.9l1-.9-1.5-.6.5 1.5zm-8.4 52.6l1.1-.6-1.1-.4v1zm-.5-13.5l1.5.3-.6-1.4-.9 1.1zm7.1 6.9l.6 1.1.6-1.3-1.2.2zm1.6-11.1l-.1 1.3 1-.4-.9-.9zm4.1-3l-.1-1-.8.4.9.6zm.5 5.6l.8-.6-.9-.3.1.9zm5.5-5.8l-.3-.8-.4.8h.7zM206 258.7h.9l-.4-.9-.5.9zm-1.4-3.5l1.1-1.1-1.4-.1.3 1.2zm-3.5 5.3h-.2l.2-.2-2.1-.5 1 2.2.6-.9.5-.6zm.7 18.6l-.4-1.6-1.1 1.4 1.5.2zm-.8 7.9l-.3-1.6-1.1 1.4 1.4.2zm11.2-6.5l-.2-1.6-.3.2-1-.3.3 1 .9-.6-1 1 1.3.3zm-7.7-10.7l-1.2 1.3 1.4.3-.2-1.6zm-1.1-2.1l-.3-1.6-1.2 1.3 1.5.3zm-2.4 25.8v-.4l.1.3 1.1-1.2-1.5-.2v.2l-.9 1 1.2.3zm-2.8-37.1l.1.2-.7.2.6.7.3-.5.4-1 .2-.4-.6.1-.4-.4v-.1l-.1.1-.2-.2.3-.2-.6-.2v.2l-.5-.9-.2 2.6.7-.3.7.1zm0-.5h0zm.3-1.1l1.1.2-.3-1.4-.8 1.2zm1-19.7l1.1.2-.2-1.4-.9 1.2-1-.9v1.4l1-.5zm-.4 5.6l-1 1.2 1.1.2-.1-1.4zm4.3.2l-.6-.6-.1.7.7-.1zm-3.2.4l.8-.2-.6-.5-.2.7zm1.9-2.7l-.7.1.4.8.3-.9zm-2.8-1.4l.3-.7-.7.1.4.6z"/><path d="M201.3 259.8l1.3-1.2-1.7-.2.4 1.4zm9.8-4.4l-.7.4.4.3-.2.3.7-.1-.2-.3v-.6zm-11.8 2.2v-1l-.9.6.9.4zm1.5-4.5l1-.3-.8-.6-.2.9zm15.2.8l-.4.6.6.1-.2-.7zm-1.4-2.6l.5-.3-.6-.2.1.5zm4.6 1.1l.5.4v-.6l-.5.2zm-20.6-7.7l.1-.6.9-.9-1.4-.2.2.9-.7.5.9.3zm-.2-6.3l-.1.8.9-.2-.8-.6zm5.9 5.8l.3-.8-.8.1.5.7zm-3.8 32h0l.7 1.2 1.2-1.7-2.1-.5.5 1h-.3zm7.4 3.9l-.9.1.5.9.4-1zm-9.4 1.7l.6 1.1 1.2-1.6.1.6-.1.1.2.1v.1l.7.2v-.5l1 .2-.4-1.9-1 1.3-.7-.2.5-.5h-.1l1.1-.5-1-.6v1l-.8-.2.4.9h.1v.2l-1.3-.3-.1-.2-.1.1-.6-.3.3.9-.1.2.1-.2zm2.6-13l-.4 1h.3l.2 2.1.4-.3-.2.3h.1l.1.3-.2-.1.6 1.4.2-.1.5.1-.1-.4.8-.7-.8-.1.1-.2-.6-.2h.5l-.4-.7.9-.8-1.5-.5h.4l-.9-1.1zm10 6.6l-1.2.3.8.8.4-1.1zm-2-5.1l.9-.5-1-.2.1.7zm-3.4 14l.1.8.9-.5-1-.3zm-5.7-.9l-1 .2.7.7.3-.9zm6.4-10.2l.3-.6-.8.1.5.5zm-1.1-4.4v.5l.5-.3-.5-.2zm-.8-7.2v-.8l-.5.2.5.6zm2.2 2.6l.7-.1-.3-.4-.4.5zm-5.3.1l.2.6.4-.4-.6-.2zm7.2-11.2l-.6.2.5.5.1-.7zm-2.7 3.7l.4-.4-.6-.2.2.6zm-5.7-5l.1-.7-.6.2.5.5zm2.2 2.6h.6l-.3-.4-.3.4zm-2.9-9.3l-.5-.4v1l.8-.2.1.1v-.1l.3-.1-.2-.2.1-.3-.6.2zm2.3 2.4l-.3.4h.5l-.2-.4zm-3.8.5l-.5-.2.1.5.4-.3zm18.8 13.2l.6-.4-.6-.3v.7zm-2.5 5.6l-.6.1.5.4.1-.5zm-4.2-4.7l-.2.5h.6l-.4-.5zm5.3 15l.5-.1-.4-.4-.1.5zm-2.5-5.2l.4-.5h-.6l.2.5zm-7.5 9l.3-.1-.8-.6v1.1l.4-.2-.5.5-.7-1-.5 1-1-.2 1 1.9-.3.3-.1-.2-.5.8 1-.2-.1-.2h.5l-.2-.5 1.1-1.6 1.5-.2-1.1-.6zm-.9 1.2h0zm-5 13.2l.9-.8-1.8-.7.2 2.3.7-.8.7 1.5.9-1.3-1.6-.2z"/><path d="M199.9 299.2l-1.3-.2 1.4-1.5h-.1l.4-.3.1.2.7-.7-1-.2.1.6-.5-.3v.7l-1.7-.5.2 2.3.1-.1.7 1.3.3-.3.7 1.4 1.1-1.7-1.4-.2.2-.5zm-2.9 28.5l-1.6-.5.6 1.7 1-1.2zm5.9-32.8l.1-.6-.6.3.5.3zm6-14.4l-.7 1.1 1.4-.2-.7-.9zm-4.7 5.6l-.2-.3-.5.8h.6l.1.5.7-.7-.7-.3zm-2.6-7.9l.8.5-.1-1.1-.7.6zm-.1-21l-1.2.4.6.9.6-1.3zm3.2-4.2l-.4-.9-.6.6 1 .3zm1.9 6.3v.9l.9-.6-.9-.3zm-9.9 3l.5-.6 1.6-.6-.9-.6.2.1v-.5l1.2.2v-.1l.8-.7-.9-.3-.1-.7-.9 1.2v-.4l.3-.2-.5-.1.6-.5-1.6-.4.4 1h-.1l.4 1.1-.2.2-.7-.5-.2 2.6.5-.1-.4-.1zm6.6.6l-.2-.5-.3 1h.4v.3l.4-.2h.1v-.1l.3-.2-.7-.3zm-.7-2.4l-.9.8 1.2.1-.3-.9zm-.6-9.2l-.5-1-.6.6 1.1.4zm1.8 6.6l.1 1 .9-.6-1-.4zm-1.3-1.8l-.7-1.1-.4 1 1.1.1zm-3.1-6.3l.2.9.8-.6-1-.3zm8.2 2.1l-.8.4.8.6v-1zm-5-1.7l-.4.8.5.1v.7l1.1-.5-.7-.5-.5-.6zm4.9-2.6l-.6.3.6.5v-.8zm-8.3 3.1l-.3-1-.6.8.9.2zm-1.5-5.7l.1.7.8-.4-.9-.3zm6.2 3.9l.1-.8-.7.3.6.5zm-2.6-2.2l-.2-.5.4-.3-.8-.1v.3l-.4.4 1 .2zm1.9 6.7l.1 1 .9-.6-1-.4zm-.9 3.6l1.5.3-.4-1.9-1.1 1.6-.2-.6-.6.6h.8zm-2.5 53.1l-.3-1.4-.9 1.2 1.2.2zm-.7 1.5l-.2-1-.8.7 1 .3zm-.6-5.9v.7l.8-.3-.8-.4zm4.9 4.1l.5.7.2-.7h-.7zm3.7-1.8l.3-.8-1 .2.7.6zm-5.5-.1h.7l-.3-.8-.4.8zm4.1-5.1l.7-.5-.7-.2v.7zm1.7-1.6l.3-.8-1 .2.7.6zm-4.9-.2l-.3-.8-.5.6.8.2zm3.5-5.8l.1.7.7-.5-.8-.2zm-4.9 39.3l.8-.4-.8-.7v1.1zm1.4-5.7l-.2-.8-.5.6.7.2zm-2.1 6.8l-.6-2.1-1.3 1.8 1.9.3zm6.2-6.2l.8.1-.4-.7-.4.6zm-1.3 10.4l.3-.8h-1.1l.8.8z"/><path d="M200.4 338.3l-.6.8.8.1-.2-.9zm4.1-3.8l.7-.4-.8-.3.1.7zm-1.7 2l.6.7.3-.8-.9.1zm-4.9-.1l.6.1-.1-.8-.5.7zm4.6-4.7l.7-.4-.8-.3.1.7zm-3.6-4.2l-.2-.2-.5.8h.3l-.2.2.6.1.1.7h-.2v-.1l-.2.1-.8.8 1.2.3v-.9l.8.7.2-1.1h-.1l.5-.2-.4-.4.4.1-.6-1.6-.9.7zm2.7-1.6l.7-.4-.8-.3.1.7zm-5.9 6.5l-1.6-.6.6 1.5 1-.9zm-2.6 4.1l-1.6-.6.6 1.5 1-.9zm.3 0l.3 1 .6-.7-.9-.3zm6.9-12.5l.1-.8-.9.4.8.4zm-3.1.9l-.8-.3.3.7.5-.4zm1.1-14.7l-.6-1-1.2 1.9h1.6v-.1h.6l-.1-.3.4-.4-.7-.1zm-4.8 8.3l-.6-1-1.2 1.9h1.6v-.1h.6l-.1-.3.4-.4-.7-.1zm3.1-9l-.4-.7-.3.7h.7zm-1.2 12.4l.3-.6-.8-.1.5.7zm6.6.6l.1-1.1-1.2.5 1.1.6zm-5.4-3.4l.1-1.1-1.2.5 1.1.6zm3.3 5.9l-.1-.2h.4l-.3-.6-.3.3v-.1l-.1.3-1-.8v1.4l.9-.4-.1.3.6-.2zm-.7 6.3l-1.8.1-.3-.3-.1.4-.6-1-.8 1 1.5-.1-.1.1-.5.8 1-.1-.8.5 1.1.6.1-.6.1.4.4-.4v.1l.1-.3.5-.4-.2-.2.4-.6zm-1.7.7l-.1-.2.1.2zm.3 0l-.4-.1.2-.1.2.2zm2.7 0l.1-.6-.6.3.5.3zm4.7-5l.2-.9-1 .4.8.5zm-1.8-5.8l.7-.6-.9-.2.2.8zm-3.4 49.1l.6.8.4-.8h-1zm-4.8 0l.7.2-.2-.8-.5.6zm5.5-5l-.8-.3.1.7.7-.4zm-4.8 25.2l.6.8.4-.8h-1zm-3.1-10l.7.2-.2-.8-.5.6zm4.7-5.2l.1.7.7-.4-.8-.3zm-2.9 5.8l-.9-.1.6.8.3-.7zm2-8.4l-.8-.3.1.7.7-.4zm-7.6.1l-.8-.3.3.7.5-.4zm2.9-2.4h0l-.3.1-.8.8 1.2.3v-.9l.7.8.3-1.1h-1.1zm-7 1.2h0l1.5-.9-.2-.2h.9l-.8-1-.3.6-.4-.4.2-.1.6-.1-.1-.2.1-.1-.4-.1-.4-.5-.2.2-.7-.2.1.6-.6-.3-.5 3.5 1.2-.8zm1.5 6l.3.8-.8.1.9 1 .2-1.4h-.1l.5-.5h-1zm7.2-15.4l-.8.1-.2-.2v.1h-.3l.4.5.1.8 1.1-1.1-.1-.1h.2l-.3-.6v-.1l-.1.6zm-3.7 3.8l.2.8.5-.5-.7-.3zm-5.4 11.2l.2-.2-.2.4 2 .1-.4-.4.7-1.9-2 .2.3.6-1.2-.3 2.5-1.4-1-.7-.2-.8h-.1l.1-.1-.3.3-.9-.6-.5 3.4.5-.2.5 1.6zm-1.8 15.9h0l.6-.3-.2-.2.6-.5-.2-.2.6.1-1-1.5-.7 1.1-.2-.2.1.2-.1.1-1.1-.9-.6 3.3 2.2-1zm5.4-16.1l.2.8.5-.5-.2-.2v-.2h.5l-.6-1.2-.5.8-.3.1.1.1-.3.3h.6l.1.2-.1-.2z"/><path d="M186.8 371l.6.3.1-.8-.7.5zm8.9-6.5l-.5-1.1-.8 1.2 1.3-.1zm-2.7 3.9h.4l.1.4.6-.6-.6-.2-.1-.4-.4.8zm-.5-2h.9l-.1-.2h.4l-.3-.6-.3.3v-.1l-.6.6zm.8 6.6l.6.3.1-.6-.7.3zm4.5-9.3l-.6.9 1.1.1-.5-1zm-4.8-2.4l.2-.9-.8.4.6.5zm-.1 25.1l-.2.1h-.1l-.8.8 1.2.3v-.9l.7.8.3-1.1h-1.1zm8.7.7l.4-.8h-1.1l.7.8zm-5.7-2l-.1-.8-.5.6.6.2zm5-4.1l.1.7.6-.3-.1.8 1-.5-.8-.7-.1.4-.7-.4zm-11.7 7.7l.3.7.6-.5-.9-.2zm2.4-9.2l.2 1 1-.6-1.2-.4zm-5.9 10h1.1l-.1.3h.3l.2.8 1-1-.9-.4-.1-.2-.1.1-.4-.1.4-.1-.7-.6-.1.5-.6.7zm.9-.6l.1.2-.1-.2zm1.2 5.8l.6-.7-.9-.4.3 1.1zm1.7-.8l.6-.5-.8-.4.2.9zm-.8-6.6l.1-.8-.7.4.6.4zm14 6.8l.1-.6-.6.3.5.3zm-1.6-15.8l-.6.9 1.1.1-.5-1zm-7.7-1.2l.6.5.2-.9-.8.4zm6.5-66.6l-.1.7-.3-.1.6 1.1.7-.7-.4-.1.7-.3-1.2-.6zm1.9-22.1l-.5.4 1.6.4-.3-1.1.3.1.8.5v-1.2l-.4.2-.7-1.3-.6 1-.2-.3-.3.4-.4-.7-.3.6v-.1l-.6.6 1.6.5zm.1-.3l-.1.1h.3l-.2.2v-.3zm-7.5 55.8l.6.3-.1.1 1.3.4-.1-1h-.1l-.1-1.2-1.5 1.4zm3.9 5.5l-.4-2.1-1.5 1.5 1.9.6zm-.2-4.2l-.2-.3-.7 1.3.5-.1-.1.3 2.4.1-1-2.5-.9 1.2zm-1.1 5.5l-.2 1.5.8-.4 1 2.3 1.5-1.7-2.4-.7.5-.3-1.2-.7zm-.9 4.9l1-1-1.3-.5.3 1.5zm-9.4.2l1-.1-.4-.8 1-.5.6.8.3-1.6.9.3-.4-1.8 1.3.6v-.1l.1.1-.4.1 1.8 1.6.2-2.4-.6.2.1-.1.5-.6-1.3-.3.4.9-.9.1.1-1-1.2.6v-.1l-.2.2-2.9.5 1.3 1.7-1.7-1.1-.3 2.6 1-.5-.3.7zm6.8-8.1l.1-1-.8.6.7.4zm6.8-99.1l-.9-2.4-1.2 2.3 2.1.1zm-5.7 90.9l-2.4-.8.6 1.4-.9.1.8 1 .2-1.1.3.7 1.4-1.3zm-3.8-16.5l2.4.8-.4-2.1.2-.2-.4-.2v-.4l-.4.1-1.5-.7-.4 2.8 1.1-.7-.6.6z"/><path d="M192 313l2.4.8-.4-2.1.2-.2-.4-.2v-.4l-.4.1-1.5-.8-.4 2.8 1.1-.7-.6.7zm7.5 25l-2.1-.6.9 2 1.2-1.4zm.8 13.4l.8.4.1-1-.9.6zm6.7-13.6l-.9-1.2-.9 1.3 1.8-.1z"/><path d="M200.6 317.6l-.9-1.2-.9 1.3 1.8-.1zM199 316l-.9-1.2-.9 1.3 1.8-.1zm-3.2 0l-.9-1.2-.9 1.3 1.8-.1zm-1.9-5.7l-.8-1.2-1 1.2h1.8zm14.2 64.1l.3-.8h-1.1l.8.8zm-4.8-.6l-.3-.7-.4.6.7.1zm3.8-4.8l.7-.4-.8-.3.1.7zm-1 15.7l.3-.8h-1.1l.8.8zm-5.1-1.3l-.5.6.7.2-.2-.8zm4.2-4.1l.7-.4-.8-.3.1.7zm-1.7 2l.6.7.3-.8-.9.1zm-4.9.1l.7.1-.2-.7-.5.6zm4.7-5.4l.1.7.7-.4-.8-.3zm-13.3 2.5l-.2.2-.4-.1.2.5-.1.1-.9.5 1.1.6.1-.6.1.4 1-1-1-.4.1-.2zm-1.6 18.5h.9l-.5-1.1-.5.6-.4-.1.2.5-.2.2h.2v.1l.3-.2zm12.8-20.2l.1-.7-.6.3.5.4zm4.4-8.8l-.4-.8-.6.9 1-.1zm-4.6 4.2l.5-.5-.8-.3.3.8zm-3.3 28.3l-.1-.8-.6.3.7.5zm-7.2 8.9l-.1-1-.8.4.9.6zm6-.1l-.3-.8-.4.8h.7zm-3.5-2.1l.7-.4-.8-.3.1.7zm-1.5-1l-.4-.8-.6.9 1-.1zm-4.6 4.2l.5-.5-.8-.3.3.8zm13.4-45.6l.2-.9-.8.4.6.5zm-10.2 35.3l-.9-1.2-.8 1.5 1.7-.3zm-10.1 3.6l-.3 1.3 1.1-.3-.8-1zm4.3-2.6v-1l-.8.3.8.7zm0 5.7l.9-.5-.8-.4-.1.9zm6.1-5.2l-.2-.9-.5.8.7.1zm-11.2 5.8v.7l.7-.3-.2.8 1-.4-.7-.7-.1.3-.7-.4zm18.9-12.4l-.7.8 1.1.2-.4-1zm-10.6 9.6l.4-.7-1.1-.1.7.8zm4-7.4l.4-.7-1.1-.1.7.8zm-8.7 6.2l-.2-.8-.5.5.7.3zm1.3 5.7l.7-.3-.7-.4v.7zm-2.3-1.1l.5.8.4-.7-.9-.1zm.7-2.4v.7l.7-.3-.7-.4zm-2.1.6l.1-.7-.7.3.6.4zm.3-4.6l.6-.5-.7-.4.1.9zm1.8 5.1l-.7-1.3-1 1.4 1.7-.1zm2.1-1.9l-.7-1.3-1 1.4 1.7-.1zm3.2 2.4l.8-.9-1.3-.5.5 1.4zm19.6-45.5l.4-1.3-1.5.2 1.1 1.1zm-7.3-.8l-.3-1.2-.6 1.1.9.1zm5.7-7.3l1-.7-1.3-.4.3 1.1zm6.2-15.1l.4-1.3-1.5.2 1.1 1.1zm-8.6 8.6l-.3-1.2-.6 1.1.9.1zm8.6-19l1-.7-1.3-.4.3 1.1zm-18.3 2.2l1.3-.1-.9-1.7-.6 1v-.3l-.7.3.4.3-.2.2-.4-.2-.1 1.3 1.3-.5-.1-.3zm.1 44.9l-.1 1.3 1.3-.5-1.2-.8zm2.2-29l1.2.2-.6-1-.6.8zm3.9 9.8l.8-.9-1-.4.2 1.3zm3.4-76l-.4-1.9-1.2 1.6 1.6.3zm.5 21.3l-.4.3h-.1l-.9 1.2 1.6.3-.3-1.1.9.7.2-1.5-1 .1zm-3.2-10.5l-.2-1.3-1 1.1 1.2.2zm0-6l1.1-.5-1-.6-.1 1.1zm7.7 5.9l.2-1.1-1 .3.8.8zm4.6-4.7l-1.3.3 1.1 1 .2-1.3zm-7.3-.2l-.6 1h1l-.4-1zm10.1 15.3l.3-1.1-1.3.3 1 .8zm-7-1.5l-.6 1h1l-.4-1zm5.2-5.9l1-.6-1-.3v.9zm-10.6 23.4l-.1-1.1-1.2.6 1.3.5z"/><path d="M201.2 314.9l-.1-1.1-1.2.6 1.3.5zm7.1 4.3l1-.3-.8-.9-.2 1.2zm3.9-1.4l1-.3-.8-.9-.2 1.2zm-7.8-2l1-.3-.8-.9-.2 1.2zm8-7.7l1-.7-1.1-.2.1.9zm-1.2 3.9l.3-1-1.3.2 1 .8zm-8.4 1.5l.6-2-2.5.4 1.9 1.6zm-2.6 7.6l.6-2-2.5.4 1.9 1.6zm-3.7-3.5l1.2-1.7-2.5-.4 1.3 2.1zm.3-2.8l2-.6-1.7-1.9-.3 2.5zm-5.9 3.6l2.2-1.6-1.7-1.9-.5 3.5zm12.7-6.8h1l-.6-1.1-.4 1.1z"/><path d="M209.5 304.7l1-.7-1-.3v1zm-4.3-4.2l-.9-2.3-.7 1.2-.2-.4-.6 1.1h.5l-.1.1 2 .3zm-11.3 15.1l-.9-2.3-.7 1.2-.2-.4-.6 1.1h.5l-.1.1 2 .3zm14.6-19.6l-1-.3.2 1 .8-.7zm-8.5 9.4l-1-.2.6 1.1.4-.9zm4.4-15.2l-.5 1.1 1.4-.3-.9-.8zm-6.1-1.8l-.1-1.1-.9.8 1 .3zm2.5 21.4l.6-2.2-1.9.4 1.3 1.8z"/><path d="M197.2 308.6l.6-2.2-1.9.4 1.3 1.8zm2.9-5.9v-.5l-.7.7-1.1.3 1.3 1.8.3-1.3.2.1v-1.1zm7.5-20.6l-1.3.3 1.2.9.1-1.2zm1.9 2h1l-.6-1.1-.4 1.1zm-15.9 10.8l.5.6.4.1v-.1l.4-.1-.3.3-.8.2.3.3-.1.1.5.2.2.2-.6.5.3.1.5.5-.1.1.8.4-.1-1.1-.4.2.1-.4h-.2l.1-.3h.1v-1.4l-.4.1v-.2l.6-.1.2.6.8-.9h.2l-1 1.4 1.6.3-.3-1.8.3-.5.5-.5-.5-.2 1.7-.4-1.8-2.3-.6 2.3-.1-.4.5-.8-.6-.1-.2-1 1.1-.4.4.2v-.8l-.5.3-1.6-.9.9-1.1.2.2.3-.4.7 1.3-.2-.1.6 1.4.1-.1.1.3 1.5-2.2-2.8-.7.3-.5-1.2.4-.6-.3v-.2l-.1.1-.4-.2 2.1-.8.3.9 1.2-1.7-.7-.2-.7-1.8-.3.3-.1-.8-.9 1.1-.1-.7.8-.9-1.7-.4 1.2-.5-.1.2.9-.4 1.5-.6-.5-.4 1.2-1.7-.3-.1 1-1.6-.5-.2.5-.5-2-.5.3.9-.1-.1v.1l-.5-.2.1-.1-1.7-.4 2.1-.7.9.8.3-.9-1.1.3 1.1-.5-1.5-.9.1-.3.3.2-.1-1.1-.4.2.1-.4-1.1.5.5.5-.2.1.3.2-.2.1-1.5-1.5-.3 3.6-.1 1.8.8-.4.4 1 .5-.5.3.3.1-.8.1-.1.3.8h-.4l.7.7v.1l-.9-.3.6 1.1h-1.4l-.2-.5-.8-.6-.3 3.7 1.1 1.5-.5.4-.7-.4-.3 3.3 1.1.1.1.5-.4.3-.9-.1-.3 3.1 1 1.2-1.1-.2-.3 2.7zm3.3-15.5l.6 1.1-.9-.6.3-.5zm-1.3 4.9l-.2.1.9.3-.2.3-1.6-.9 1.1.2zm-.3 4.1h0l-.1-.1.1.1zm-.3 2.3h.3l-.5.4.2-.4zm0 1.9l.5.2.3.6.3-.4.4.1-.1.3h.6l.1.5-.8.2-1.3-1.5zm-.6-1.5l.3.3h-.1l.1.2-.3-.5zm10.4 3.6l-.2.2-.4-.2v.4l-.5.6 1.1-.3-.1-.3h.6l-.5-.4zm-2.8 1.5l-.9 1.7 1.9-.2-1-1.5zm2.2 9.3l-.1-.2-.1.1-.5-.2.5-.2-1-.7-.1 1.3.8-.4.1.6-.4.5h.5l.6 1.1 1.2-1.6-1.5-.3zm2.4-1.1l-.8.6.6.4.2-1zm-1.7-10.6l1.6-.2-.9-1.1-.7 1.3zm1.6 4.3l-.8-.3-.2-.4-.2.2-.5.6.7-.1.1.6.9-.6zm-6.9-23.1l1.6-1.6-1.8-.7.2 2.3zm4.5-9.5l-.4-1.9-1.2 1.5 1.6.4zm12.8 11.6l.2-1.1-1.3.3 1.1.8zm-7.1-1.5l-.6 1h1l-.4-1zm6.2-6.4l-1-.3.2 1 .8-.7zm-10.5 5.1l-.7 1.1-.2-.3-.3.4v-.1l-.2.2-.5-.7-.6 1 1-.2-.3.3h.7l1.8.1-.7-1.8zm3.2-1.6l1-.7-1.1-.2.1.9zm-2.5 4.4l-1.8.4 1.5 1 .3-1.4zm-3.8-7.8l1.1-1.2-1.5-.2.4 1.4z"/><path d="M205.9 265.7h0v-.4l-.8.4.5.5-.4.7 1.4-.3-.7-.9zm-6.8-2.2l.5 1.1 1.3-1.2h-1.1l.1-.6-.7.5-.2.1.1.1zm-3.3 4l-.3 3.7.7-.2-.1.6-.1.1-.1.3.5-.1 1.1.2-.1-.7h.1l-.1-.1-.1-.7 1.2-.5.3.3-.8.7.5.2.8.5v-.3l.4.2-.3-1.5.2-.3h-.2v-.1l-.1.1-.4-.4 1.1-.1-.6-1.1 1.7-.4-1.7-2.4-.4 1.4v-.1l-1 1.9-.9-.7.5-.5h.1l.4-.3.4.2-.3-1.3.1-.1h-.1v-.1l1.6-.5-2-1.2.1-.1v.1l.9-1.1.1-.2.3-.3h-.1l.2-.4-.9.2-1.3-.2.8 1.7-.5-.2v.1l-1.3-.8-.3 3.5 1.9-.5v.1l-.7.6-1-.2.3.8v.1l-.5.1zm3.5 2.4h0zm-2.5.9l-.1.1-.1-.1h.2zm9.1-.2l-.4.5-.1-.2-.5.8 1.1-.3-.2-.3h.6l-.5-.5zm2.2-3l-1 1.7 1.9-.2-.9-1.5zm3.1 1l1.6-.2-.9-1.1-.7 1.3zm-3.5 5.4l-.8-.3-.2-.4-.2.2-.5.6.7-.1.1.6.9-.6zm-2.7-9.6l.7-.6-.5-.2v-.1l-.2.1-.1-.1v.1l-.9.5 1 .6v-.3zm-6.6-16.1l-1.1.5 1 .7.1-1.2zm1.4 6.4l.7 1.2-.3.3.9.2-.4-.8.6-.6-1.5-.3zm-1.9-1.8l-.3-.3v.1l-.3-.1.2.6-.1.6.3-.1.2.6.7-.9.2-.2-.3-.1 1-.4-1.4-.7.3-.4.5.2-.4-1.4.6-.4-1.4-.2.2.9-.8.8.6.3h-.6l.6.9v-.1l.2.3zm2 .1l.7-.9-1.2-.2.5 1.1zm3.7 6l-.2-1.3-.9 1.2 1.1.1zm6.8-1.4l.2-1.1-1 .3.8.8z"/></g><g fill="#044147"><path d="M219.6 346.8l.9.5-.1-1.2-.8.7zm3.2-4.6l.7 1.6 1-1.2-1.7-.4zm3.4 25.6l1.1-3.6-2.9 1.7 1.8 1.9zm1.8-6.4l.9-2.7-2 .2 1.1 2.5zm-7.3 16l1.3.9-.5.1 1.4.9.3-1.4-.6.2.2-.9v.1l1-.7-1.3-.7.3 1-2.1.5z"/><path d="M222.2 376.3l1.1-1.3-2-.5.9 1.8zm-3.6-10.1l-.3.3.6.2.1.2 1.1-1.3-2-.5.5 1.1zm5.7-11.4l.9 1.8 1.1-1.3-2-.5zm1.6-1.8l1.1-1.3-2-.5.9 1.8zm7.3-11.8l.9-1-1.7-.4.8 1.4zM218 371.8l-.9 1.7 1.9.3-1-2zm4.3 9.1l-.9-1.9-.9 1.7 1.8.2zm-5.7 2.1l-.9-1.9-.9 1.7 1.8.2zm-11.5-16.1l-.9 1.7 1.7.2-.8-1.9zm12.3-4.7l-.9 1.8 1.8.2-.9-2zm3-5.6l-.9 1.7 1.7.2-.8-1.9zm.5 29l-.9-1.9-.9 1.7 1.8.2zm-3.4 9.9l-.5-1.5-.9 1.4 1.4.1zm-4.3-6.9l-.9 1.4 1.5.2-.6-1.6zm3.5 11.2l-.2-1.7-.9 1.4 1.1.3zm13.7-53.9l-.6-1.6-.9 1.4 1.5.2zm8.3-21.1l-.4-1.7-1.1 1.3 1.5.4zm-1.3-2l.8-1.5-1.6.3.8 1.2zm-.5 8.9l-.6-1.6-.8 1.4 1.4.2zm-6-3.3l.7.7.3-.8-1 .1zm3 1.4l.8.6.2-.8-1 .2zm-.5-2.1l.9-.5-.7-.6-.2 1.1zm4-.9l.9-.5-.7-.6-.2 1.1zm-8.4 23.4l-.9 1.4 1.7.2-.3-.6.8-1-1.7-.4.4.4zm-4.7-1.7l1 1.8 1.1-1.3-2.1-.5zm11.2-14.3l-.3.6h1.2l-.5-.8.6-.8-1.7-.4.7 1.4zm-18.7 7.6l-.5-.7-.4.8-.4.1.7.4-.1-.5.7-.1zm10.3 8.8l1.1-1-1.3-.2.2 1.2zm1.4-1.9l1-.1-.6-1.1-.4 1.2zm.2-5.6l.2-1-1 .3.8.7zm-17.2-5.5l-.6.5.8.4-.2-.9zm2.8-2.6l.3.6.4-.4-.7-.2zm-5.6-.5l-.3.6.7-.1-.4-.5zm28.6-5l.4-.9-1.1.1.7.8zm-7.4 1.8l-.9-.4v1l.9-.6zM216.7 376l-.6 1.2 1.3.1-.7-1.3zm2.6-5.2l.3-1-1.2.2.9.8zm-9.5 1.6l-.2 1.1 1-.5-.8-.6zm9.3-7.4l1.1.5V364l-1.1 1zm.8 13l-.1-1.6-1 .7 1.1.9zm.8-15l1.2.6-.1-1.6-1.1 1zm6.7-6.3l.6-.8-1.1-.3.5 1.1zm-1.2 2.4l.6-.8-1.1-.3.5 1.1zm-8.4-4.6l-.5 1 1.2-.2-.7-.8zm4.8 10.3l-.5 1.1 1.2-.2-.7-.9zm-14.9-1.2l-.1 1.2 1.3-.4-1.2-.8zm7.9 5.5l1 .6-.1-1.4-.9.6-.1-.3-.8.8 1 .4-.1-.7zm-4.1-11.4l.6 1.1.6-.8-1.2-.3zm9.8 12.8l1.3-.4-1.3-.7v1.1zm3.2 2.9l.7-1.9-2 .6 1.3 1.3zm8.3-28.5l.7-1.9-2 .6 1.3 1.3zm-7.5 25.8l.7-1.9-2 .6 1.3 1.3zm-6.3 21.5l.7-1.9-2 .6 1.3 1.3zm-5.2 17.2l.7-1.9-2 .6 1.3 1.3zm15.6-52.3l.7-1.9-2 .6 1.3 1.3zm-16.7 24.3l-1.6 1.8 2.2.7-.1-.3.4.2-.2-1.3-.4.1-.3-1.2zm-3.4-3.6l.6 1.1.6-.8-1.2-.3zm2.8 14l-2-.2.5 1.7 1.5-1.5.5.6.3-1.1-1 .2.2.3zm5.1-11.5l1.1-.5-1.1-.5v1zm3.4 6.6l.3-1.1-1 .2.7.9zm1.1-9.2l.3-1.1-1 .2.7.9zm-3.2 16.3l.1-1.1-.6.6.5.5zm-4.6-28.8l.8-.4-.8-.4v.8zm2.3-4.5l.4.6.4-.5-.8-.1z"/><path d="M221.1 350.3l-.4.8.9-.3-.5-.5zm-4.5 2.2l.7.4-.1-.8-.6.4zm5.9 3.2l.6-.5-.7-.2.1.7zm-2.3-16l-.4.8.8-.2-.4-.6zm1.1 4.8l.2.6.6-.5-.8-.1zm8.9-3.3l-.4.8.9-.3-.5-.5zm-3.9 1.9l-.5.3.7.4-.2-.7zm5.3 3.5l.6-.5-.8-.2.2.7zm-1.6-9.8l.5.3-.1-.6-.4.3zm4.2 2.5l.5-.4-.6-.1.1.5zm-27.2 4.9l.4.8.5-.8h-.9zm.7 8.1l-.2.6.8-.1-.6-.5zm6.2-3l.5.4.1-.7-.6.3zm-12.3 13.6l.4.4.2-.7-.6.3zm5.5-4.9l.1.7.5-.3-.6-.4zm14.1 25l-.6-1.1-.4 1 1 .1zm-3.2-7.5l.4-1.1-1.4.1 1 1h-.2l.3 1 .8-.8-.9-.2zm9.5-12.8l-1.1-1.9-.8 1.7 1.9.2zm-16 31.4l.6 1.1.5-1-1.1-.1zm2.6 1.9l.6 1.1.5-1-1.1-.1zm1.2 3.8l-.8-.6-.3.8 1.1-.2zm21.3-73l.1-1.1-.8.6.7.5zm-19.5 59.7l-.6-.9-.4.8 1 .1zm-4.4-10.6l-.5-1.9-1.3.9 1.8 1zm-.7 5.5l-.2-1.2-.4.2-1-.1.5 1.1.4-.4.7.4zm1.6-2.9l-.1-.6-.9.6.5.4-.4.1 1 .6-.2-1.2.1.1zm1 25.8l1.4-1.4-2-.2.6 1.6zm-3.3-7.5l.5 1.7 1.4-1.4-1.9-.3zm1.7 1.6l.5 1.5 1.4-1.4-1.9-.1zm-2.9-7.4l-.3-.7-.4.8.7-.1zm-1.6-18.6l-1 .7 1.5.7-.5-1.4zm8.2-1l-.3 1.3 1.2-.1-.9-1.2zm9.6-23.9l.1 1.4 1.1-.6-1.2-.8zm-1.8-6.1l1.1.3-.3-1-.8.7zm-5.9 6.2l.6 1.1.5-1-1.1-.1zm11.3 6l-1.2-.9.1 1.4 1.1-.5zm-1.9-6.7l-.2-1-.9.7 1.1.3zm-6 6.1l-1.1-.1.6 1.1.5-1zm.6-1.6l1.5.4-.8-1.2-.7.8zm5.2 6.4l.5-1.1-1.2.3.7.8zm1.6-16.9l-.3-1-.8.8 1.1.2zm-6.2 6.2l-1.1-.1.6 1.1.5-1zm2.3-1.3l1.1.5v-1.4l-1.1.9zm5-5.9l.6 1.1.6-.8-1.2-.3zm-8.9-1l-.6 1 1.1-.2-.5-.8zm6.3 1.5l-.1-1.2-.8.8.9.4zm3.9-4.7l-.5.4 1.1.2-.1-.7.1-.3-.9-.2.3.6zm-7.1-.6l-.5-.7-.4.9.9-.2zm6.7 6.1l1 .3-.3-1.2-.7.9zm4.2-4.9l.4-.8h-.9l.5.8zm-7.3.6l-.6-.5-.2.9.8-.4zm-3.5 5.5l.6 1.1.5-1.1h-1.1zm2.8 11.8l-1.1-.9v1.3l1.1-.4zm-3.8 10l-1.2-.8v1.4l1.2-.6zm6.1-17.9l.1.5-.1-.1v2.1l1-.3-.6-.5.2-.1 1.4.2-.6-1.6-.3.6-1.1-.8zm.8 1.1h0zm3.9-12.6l-.8.1-.2-.3-.1.3-.3.1.2.3-.1.1h.1l.7.6.5-1.2zm-9.6 12.3l1.2.4-.2-1-1 .6zm-5.2 5.9l-1.1-.1.6 1.1.5-1zm-9.1 48.8l-.7-1.6-.9 1.4 1.6.2zm-2 9.4l-.6-1.1-.5 1.1h1.1zm.9-6.2l.7.7.3-.8-1 .1zm-7.1 2.3l-.1 1 .9-.6-.8-.4zm-2.6-3.2l1.1-.5-1.1-.5v1zm6.3 2l-.1-1-.7.7.8.3zm-3.4-8.1l.6.9.5-.8-1.1-.1zm-.6-2.6l-.1 1.1 1.1-.6-1-.5zm5.4 2.6l.8.3-.1-1-.7.7zm-2.6-7.9l.6.9.5-.8-1.1-.1zm9.5 17.1l.3-1.4-.7.6.4.8zM244 282.8l-.8 1.2 1.2.2-.4-1.4zm-8.3-3.8l-.1.9.9-.3-.8-.6zm5.2 1.6l-.6.5.7.3-.1-.8zm-1.8-6l-.8-.1.4.7.4-.6zm-5.6 14.6l-.1.9.9-.3-.8-.6zm5.2 1.6l-.6.6.7.2-.1-.8zm-1.9-5.9l-.8-.1.4.7.4-.6zm-.5 3.4l.9-.3-.8-.5-.1.8zm5.1.9l-.6.6.6.2v-.8zm-1.8-6l-.8-.1.4.7.4-.6zm4.6-2.7l-1.3 1.3 1.4.3-.1-1.6zm-1.5-2.4l-.8-.1.4.7.4-.6zm3.1 13.6l-1-.2.2.9.8-.7zm1.4-3.9h.9l-.5-.9-.4.9zm-1.2-13.2l-.7.4.8.5-.1-.9zm1.1 5.7l.6-.6-.8-.1.2.7zm4.3-5.5l-.4-.8-.3.8h.7zm-2.2 6.8l.8-.1-.6-.5-.2.6zm-1.3 2.5l1.4-1.1-1.5-.3.1 1.4zm-1.3 7.3l1.3-1.2-1.6-.1.3 1.3zm-5 23.5l.1-1.7-1.3 1 1.2.7zm4-21h1.4l-.7-1.6-.7 1.6zm-7 28l1.1-.9-1.5-.6.4 1.5zm5.3-30.8l.6-.5-.8-.1.2.6zm4.4-5.6l-.4-.7-.3.7h.7zm-3.8-7l-.2.1.7.5-.1-.8-.2.1v-.4l-.6.4.4.1zm4.9-.5l-.1-.8-.3.1-.6-.1.3.8.3-.3.4.3z"/><path d="M243.7 289.4l.3.2v-.3l.9.6-.1-.9.2-.5-.9.1.2.3-.4-.1v-.1l-.2.1-1-.2.6 1.4.4-.6zm.6-.5h0l-.2.2.2-.2zm-3.2-4h.6l-.3-.6-.3.6zm.3-10.7l-.8.5 1 .5-.2-1zm5.4.1l.8-.1-.5-.8-.3.9zm-10.5 22.3h0l-.1-.3-.1.1-.9-.5-.2 1.1 1-.3-.4.9 1.2.1-.5-1.1zm-8.4-3.6l-.1.9.9-.3-.8-.6zm5.4 2.5l-.1-.8-.6.6.7.2zm-2.1-6.9l-.8-.1.4.7.4-.6zm5.3 19l-1.1 1.5 1.4.2-.3-1.7zm-1.2-8.7l.2.4-.4.2-.1-.5-.6.5.9.4v-.3l1 .5-.2-.9.1-.5-.9.2zm6.6 2l.6-.7-.9-.1.3.8zm3.9-5.6h.9l-.4-.9-.5.9zm-5.8 13.4l.7-.5-.9-.5.2 1zm-.3 2.1l.7-.5-.9-.5.2 1zm.6-19.7l-1.1-.3.4 1 .7-.7zm1.6 7.3l-.7.7.8.3-.1-.8.8-.1-.6-.8-.2.7zm-1.4 15.2l-.4 1 .9-.1-.5-.6.6-.5-.9-.5.3.7zm2.8-11.3l-.7.7.8.3-.1-.8.8-.1-.6-.8-.2.7zm-6.6 2.9l.4-.7h-.8l.4.7zm3.3-6.3l.7-.1-.5-.6-.2.7zm-4-4.2v-.8l-.6.3.6.5zm5.8-.5l.6 1.4 1.3-1.2-1-.2-.1-1.1-.9.5.8.5-.7.1zm-8.2 4l.1-.4-1.1.1.6 1 .1-.3h.4l-.1-.4zm-17.4 92.9l-.8-.7.6-.5-1.1-.3.2.8-.1 1.2.5-.2.5 1.5 1.4-1.4-1.7-.2.5-.2zm-4.7 8.9l1.1-.5-1.2-.8.1 1.3zm6.7-15.7l1.1-.5-1.2-.8.1 1.3zm2.4-12.7l.8.6-.1-.1-.1 1.2 1.3-.4-.8-.5.4-1.1-1.5.3zm-15.1 38.3l1.1.9.4-1.1-1.5.2zm9-25.5l-.2-1-.9.7 1.1.3zm-6.2 5.9l-1-.1.6 1.1.4-1zm25.3-51l-.4-3-2 2.2 2.4.8zm-11.5 21.9l2.5.9-.4-3-2.1 2.1zm-5.5 26.9l.5 2.6 2.5-1.8-.1-.1.9-1h-1.2l-.1 1-2.5-.7zm3.5-6l-.5-3-1.9 2.2 2.4.8zm-7.1 20.7l-2 2.2 2.6.9-.6-3.1zM244 297l1.6 2.1.7-2.4-2.3.3zm-16.4-17.3l.9-.3-.8-.5-.1.8zm5.2.8l-.6.5.6.3v-.8zm7.6-2.4l-.8-.1.4.7.4-.6zM225.1 289l-.1 1 .9-.3-.8-.7zm5.2 1.8l-.6.5.7.3-.1-.8zm-1.9-6.1l-.8-.1.4.7.4-.6zm-.5 2.7l-.1.9.9-.3-.8-.6zm5.2 1.8l-.6.5.7.3-.1-.8zm-1.7-6.1l-.8-.1.4.7.4-.6zm2 2.2l.5 1.4.6-.5.3.2v-.4l.4-.3-.4-.1v-.2l-.2.1-1.2-.2zm1.9 5.3l.1.7.6-.5-.7-.2zm4-4.9h.7l-.4-.7-.3.7zm-6.6-.8h.6l-.3-.6-.3.6zm13-16.3l-.8.5.9.6-.1-1.1zM235.6 280l-.9-.1.2.8.7-.7zm-.1 21.7l-.9 1.4 1.5.2-.6-1.6zm-14.7 10.2l.9-.8-1.2-.1.3.9zm6.4-1.2l-.4.9h.8l-.4-.9zm-1.9-13.9l-1-.2.4.9.6-.7zm-3.8 36.7l-.5 1.2 1.2-.1-.7-1.1zm1.1-7.8l.8.8.2-1-1 .2zm-8.3 5.1l.1 1.2.8-.8-.9-.4zm10-30.6l-.2 1 1.2-.3-1-.7zm6.3 3.5v-1l-.7.7.7.3zm-2.2-8.1l.6-.6-1-.3.4.9zm8.9 9.4l.6 1.7 1.5-1.5-2.1-.2zm3.6 5.7l1.4 1.1.5-2.1-1.9 1zm.6-5.3l.6 1.7 1.5-1.5-2.1-.2z"/><path d="M234.4 311.1l-1.8.4 1 1.3.8-1.7zm9.6-6.2l.4-1.7-2.1.4 1.7 1.3zm-5.1 8.4l1.6-.5-1.4-1.4-.2 1.9zm4.2-12.1l1.7.2-.7-1.9-1 1.7zm-11.5-2.6l1 .8v-1.2l-1 .4zm1.8 10.3l.5-.9-.9.2.4.7zm5.4-10.9l-.4.9.9.1-.5-1zm-7.6-.8l-.3-.8-.3.7.6.1zm-2.6 24v.2h-1.3l.6 1.3.7-.9.1 1.3 1.4-.9-1.5-1zm-11.1 2l.6.9.5-1.1-1.1.2zm7.1-1.4l-.7-.7v1l.7-.3zm-6.6-7.4l-.9.5.9.4v-.9zm9.4 2.7l-.3 2.2 1.9-.6-1.6-1.6zm15.7-7.9l.1-2.2-1.7 1.3 1.6.9zm-10.3 23.5l-1.8-1.3.1 2.2 1.7-.9zm.8-9.8l-.2 2.2 1.8-.5-1.6-1.7zm2.2-6.3l-1.5-1.6-.3 2.2 1.8-.6zm-5.3 8.1l-.5-1.1-.8.8 1.3.3zm5.6-5.1l-.4 1.3 1.2-.3-.8-1zm-8.2-9.1l.9.9.4-1.1-1.3.2zm1.3 14.1l-.4 1 1.3-.1-.9-.9zm5.3 5.1l.2-1.1-.8.5.6.6zm.3-8.8l-1-.4.4 1 .6-.6zm-8.6-2.8v-.5h.6l-.7-.7-.2.3-.7.4 1 .5zm.6 6.4l.3.9.5-.5-.8-.4zm-2.2-16.3l-.7 1 1.4.1-.7-1.1zm3.4-8.2l-.5 1.1h1l-.5-1.1zm12 19.1l.8-3-3 1.2 2.2 1.8zm-27.5 1.9l.6.9.6-1-1.2.1zm6.5-3l-.7-.7-.3 1 1-.3zm-4-22.2l-1-.2.4 1 .6-.8zm-1.3 19.6l.5.9.7-1-1.2.1zm7.4-1.1l-.5.9h.9l-.4-.9zm-2.2-21.1l-1-.3.3.9.7-.6zm11.9 20.3l.5.9.7-1-1.2.1zm6.4-.6l.9-.2-.7-.7-.2.9zm-4.4-9.1l.5-.7-1-.2.5.9zm-12.4 1.9l-.9.5 1.1.7-.2-1.2zm3.7 8.7l.3-1-1 .4.7.6zm4.5-17.1l-.5.9h.9l-.4-.9z"/></g><path d="M190.5 411.6l-1-.2c.2-1 17.8-97.9 18.6-103.5s10.4-99.2 10.5-100.1l1 .1L209.1 308c-.8 5.8-18.4 102.7-18.6 103.6z" fill="#2d7f7f"/><path d="M235.6 339.2l-1-.3c.1-.4 12.4-42.4 15.3-56.3s17.6-74.3 17.8-74.9l1 .2c-.1.6-14.9 60.9-17.8 74.8-3 14.1-15.2 56.1-15.3 56.5z" fill="#053a39"/><linearGradient id="H" gradientUnits="userSpaceOnUse" x1="235.4023" y1="235.0424" x2="233.8965" y2="202.2598"><stop offset="0" stop-color="#00394a" stop-opacity="0"/><stop offset=".9975" stop-color="#00394a"/></linearGradient><path d="M197.4 247.4s10.6-7.6 22.3-10c31.9-6.7 54.5 2.6 54.5 2.6l-2.2-32.2h-71.7l-2.9 39.6z" fill="url(#H)"/><g fill="#044649"><path d="M230.9 212.7l-.3 1.4 1.6-.4zm-2.3-3.5l-.2 1.5 1.6-.4zm5.9.5h.9l-.4-.9zm-5.4 5.5l1.5 1 .3-2zm-4.4-5.6l1.4.9.4-1.9zm-3.8-.6l1.5 1 .3-2zm8.2 0l1.4 1 .3-2zm.6 2.3l1.4 1 .4-2zm-3.2-.2l1.5.9.3-1.9zm7.9 0l1.4 1 .4-1.9zm-2.1-.4l1.5 1 .3-1.9zm-22.1 2.5l1.5.9.3-1.9zm9.7 1l.4-1.7-1.9.3zm-6.3-1.2l.5-1.7-2 .3zm10.9.6l-.3 1.5 1.6-.5zm8.1-.1l-.2 1.5 1.6-.5zm-21.5 1.8l-.3 1.5 1.7-.4zm11.1-2.5l-.2 1 1.1-.2zm6.7 0h-.8l.4.9zm-4.5 7.2l-.3-.9-.7.6zm2.2 3.4l1 .2-.3-1.1zm-.1-6.7v.8l.9-.4zm7.1 4.5l-.8.3.6.7zm-21.1 4.1l1 .3-.3-1.2zm-.1-6.6v.8l.9-.4zm7.2 4.5l-.8.2.5.7zm-17.4 1.5h1l-.4-1zm-1-6.7l.2.8.7-.5zm7.7 3.6l-.8.4.7.6zm-5.4 1.9l1 .2-.2-1.1zm-.1-6.7v.9l.9-.5zm7.2 4.5l-.9.2.7.8zm-9-7l.7.9.5-1.1zm3.9-5.4l-.4.7.9.1zm3.1 7.9l-.7-.3v1zm12.7-2.4v1.9l1.9-.9zm-1.3 3.7l-.9.2.7.7zm-10.8-1.4l.5-.9h-1.2zm4.3-.1l.7-.7-1-.4zm-5.6-3.7l.8.4.1-.9z"/><path d="M215.7 209.6l-.2.8.9-.1zm-6.7 8.6l1.4.2-.5-1.5zm-1.3-8.8l.2 1.1 1.1-.7zm10.3 4.7l-1 .5 1 .9zm-2.2-3l-1 .5 1 .9zm-7.2 3.2l.8-1-1.4-.4zm-7.4-3.7l.8.5.1-1.3zm18.1 6.5l.8-.7-1.1-.5zm-5.5-3.8l.7.5.2-1zm7.9-3.2l-.3.8.9-.1z"/><path d="M222.6 209.1l-.2 1.4 1.6-.4zm-1.6 1.6l.7 2.2 2-1.7zm2.8 1.3l2 1.2.3-2.6zm-13.1-.8l2 1.2.4-2.6zm-5 .1l2 1.2.3-2.5zm-.8 1.2l.7-2.2-2.5.2zm1.9 2.2l-.5-1.6-1.5 1.2zm-4.2-.8l-.7-1.5-1.2 1.4z"/><path d="M211 213.4l-.5-1.7-1.5 1.3zm-7.2 0l-.5-1.7-1.4 1.3zm.3-3.7l2 1.1.3-2.5zm14.8.7l-.2 1.4 1.6-.4zm-2.8 1.7l-.2 1.5 1.6-.5zm13.6 6.4l1 .2-.3-1.1zm2.2-1.5l.4-.7-1-.1zm-2.7 3.4v.8l.8-.4zM213.7 210h.9l-.4-.9zm11.5 3.5l.1.8.8-.6zm-15.7-4.8l1.5 1 .2-1.7z"/><path d="M214.3 207.8l-3.3.1 1.4 3.2zm-3.5.1h-3.4l1.5 3.2zm7.7-.1h-3.3l1.4 3.4zm3.8 0H219l1.4 3.4zm-17.6 0l-3.2.1 1.2 3.2zm-3.1 11.3l-1.9-1.1-.2 2.5zm24.5-11.1l-3.3-.1 1.3 3.4zm3.4-.2h-3.4l1.6 3.4z"/><path d="M233.6 207.9l-3.4.1 1.6 3.3zm-30.2 1.5l1.4 1 .4-1.9zm3.5-1.3l-.3 1.8 1.9-.5zm-6.5-.2l-.2 2.1 1.7-.4zm-.2 2.6l-.2 2.6 2.3-.7zm-.3 5l-.2 2.2 2.1-.7zm3.6-1.8l-.5 2.5 2.3-.5zm3.6-2.3l-.7 3.2 3.1-.6z"/><path d="M199.3 223.3l-.2 2.3 1.3-1.3zm1.6-2.5l-.2 1.4 1.3-.3zm1.9-2.1l-.2 1.2 1.1-.2zm8.3-6.1l-.4 2.3 2.1-.5zm-6.6 3.6l.7 2.1 1.7-1.4zm-2.8-1.1l-.1 2.1 1.8-.7zm6.1 2.4l.7-.6-1-.5zm-5.6-3.7l.7.5.2-1zm7.8-3.3l-.2.8.9-.1zm5.7 8.2l.6-.5-.8-.4zm5.7.8l1.1-.8-1.5-.8zm-8.2-1.3l.7-.5-.9-.4zm1.8-1.8l.6-.6-.8-.4zm-5.7 2.1l-.2.6h.8zm5.2 6.9l1.2-.4-.8-1zm-3.7-6.6l.4.9.7-.9zm9.5.6l-.7.6 1 .4zm31.9-6.8l-.2 1.5 1.6-.5zm-2.2-3.4l-.2 1.5 1.6-.5zm.5 6l1.4 1 .4-2zm-4.4-5.6l1.4.9.4-1.9zm-4.1-.7l1.4.9.3-1.9zm8.4.1l1.5 1 .3-2zm.7 2.2l1.4 1 .4-1.9zm-3.2-.2l1.5 1 .3-1.9zm5.8-.3l1.5.9.3-1.9zm-19.1 2.3l1.5.9.3-1.9zm6.2.9l.4-1.7-1.9.3zm-2.8-1.1l.5-1.7-2 .3zm7.3.5l-.2 1.5 1.6-.5zm8.7.2l-.2 1.5 1.6-.5zm-10.4-.7l-.2 1 1.1-.2zm6.7 0h-.8l.4.9zm-4.6 7.1l-.2-.8-.7.6zm2.3 3.5l1 .2-.3-1.2zm-.1-6.7v.8l.9-.4zm7.1 4.5l-.8.2.6.8zm-19.4 5.3l1 .3-.3-1.2zm-.1-6.7v.9l.9-.4zm7.1 4.6l-.7.2.5.7zm-7-8.9v1.9l1.9-.9zm4.2 3.4l-.9.3.7.7z"/><path d="M235.9 216.4l.8-.7-1-.4zm-5.5-3.8l.8.5.1-1zm7.8-3.2l-.2.8.9-.1zm-4.5 7.7l1.3.2-.5-1.5zm-1.3-8.5l.2.8 1.1-.7zm10.3 4.5l-1.1.5 1 .8zm-13.4 4.4l1-.9-1.3-.5zm-6.8-4.8l.9.7.2-1.2z"/><path d="M232.2 208.8l-.3 1 1.2-.1zm11.9 8.3l.8-.7-1.1-.5zm-5.5-3.9l.7.5.2-.9zm7.8-3.2l-.2.8h.9zm-2.9-1.3l-.2 1.5 1.6-.4zm-1.4 1.9l.6 2.2 2-1.7zm3.1 1.4l1.9 1.2.4-2.6zm-12-1l2 1.2.4-2.6z"/><path d="M240 210.2l-.3 1.5 1.7-.4zm-.5-1.8l-.3 1.4 1.6-.4zm11.6 10.1l.9.2-.3-1.1zm2.1-1.5l.5-.8h-1zm-2.6 3.3v.9l.8-.5zm-12.4-10.5l.8.1-.3-.9zm8.4 3.7l.1.8.8-.6zm-12.4-4.4l1.4.9.4-1.9z"/><path d="M239 207.9l-3.3-.1 1.3 3.4zm4.2 0l-3.3-.1 1.3 3.4zm3.9.1l-3.3-.1 1.4 3.5zm3.6-.1l-3.3.1 1.5 3.3zm4.2 0l-3.3.1 1.5 3.3zm-14.9 9.3l.6-.5-.8-.5zm2.2 2l1.2-.8-1.5-.8zm-4.7-1.3l.7-.5-.9-.4z"/><path d="M239.7 216.8l.6-.5-.8-.4zm3.2 5.7l.9-.8-1.2-.6zm-5.9-4.7l.7.5.3-1zm9-3.1l-.4.9h1.1zm14-1.7l-.2 1.5 1.6-.5zm-2.2-3.3l-.3 1.4 1.7-.5zm5.8.3h.9l-.4-.9zm-6.5 5.5l1.5 1 .3-2zm1.1-6.1l1.4 1 .3-2zm.6 2.2l1.5 1 .3-1.9zm-3.6-.4l1.5 1 .3-2zm8.3.2l1.5 1 .3-2zm-2-.3l1.5.9.2-1.9zm.3 2.8l-.2 1.4 1.6-.4zm-10.9-.8l-.2 1 1.1-.2zm6.7-.2l-.9.1.5.9z"/><path d="M253.1 220.1l-.2-.8-.7.7zm2.3 3.5l1 .1-.2-1.1zm-.1-6.8v.9l.8-.4zm7.2 4.5l-.9.2.7.7zm-3.6-2.4l1 .2-.3-1.1zm2.2-1.5l.4-.8h-1zm-3.1 3.1v.9l.8-.5zm.7-12.5l-3.4-.1 1.4 3.4zm3.6-.2l-3.3.1 1.6 3.3zm1.5 5.5l1.5.9.2-2zm5.8.6l.4-1.6-1.9.3zm3 .1l-.2-2.4-2 .4zm-3.4 2.4l.5 1.8 1.6-1.5zm3.7 2.3l-.8.4.9.6zm-8.3-1.8l.7-.7-1-.4zm-5.6-3.7l.7.4.2-.9z"/><path d="M267.9 213.7l-.3.9.9-.1zm-7.3 2.6l1-.6-1-.4zm-8-4.3l.8.5.2-1.1zm9.6-4.2l-.3 1 1.2-.1zm-62.3 5.9l-.1 1.5 1.6-.4zm68.5 3l-1.5-1-.5 1.9zm-6-5.4l2 1.2.3-2.6zm6.3-1l-.2 1.4 1.6-.4zm-.5-1.9l-.2 1.5 1.6-.5z"/><path d="M267.3 210.1h.9l-.4-.9zm-4-.7l1.5.9.3-1.9z"/><path d="M267.5 207.8h-3.3l1.4 3.4zm4.4.1h-3.3l1.4 3.4z"/><path d="M272.9 217.3l-.2-2.4-1.5 1zm-.6-6.5l-.1-2.4-1.6 1zm-.5 10.9l.8-1.2-1.6-.3zm0-3.5l.4-.8-1-.1z"/></g><g fill="#044147"><path d="M247.4 316l1.3.5-.1-1.6zm-3.8 1.3l1.4.5-.1-1.6zm2.4-5.4l.2-.8-1 .1zm3.4 6.4l1.2-1.2-1.7-.8zm-6.4 3.4l1.3-1.2-1.8-.8zm-1.5 3.4l1.3-1.2-1.8-.7zm1.9-8.3l1.4-1.1-1.8-.8zm2.4 0l1.3-1.2-1.8-.8zm-.9 3.5l1.2-1.1-1.7-.9zm2.4-8l1.2-1.2-1.7-.7zm-1.4 1.8l1.2-1.2-1.7-.7zm-2 17.3l1.3-1.1-1.8-.8zm1.9-3.6l-1.4-.9-.3 1.9z"/><path d="M244.6 328.1l-1.4-.9-.3 2zm2.2-5.2l1.3.6-.1-1.6zm1.8-8.4l1.3.6.1-1.6zm-2.9 18.5l1.3.6-.1-1.6zm-.3-8.2l1 .5v-1.1zm1.7-6.4l-.2.9.9-.2zm5.6 6.2h-.9l.5.9zm3.9-1.3l.4-.8-1.1-.1zm-6.5-1.6l.9.2-.2-.9zm6.1-5.6l.1.8.9-.3zm-2.8 26.4l.5-.9-1.1-.1zm-6.3-1.8l.8.3-.2-1zm6.2-5.5l-.1.8.9-.3zM240.7 360l1.1-.1-.7-.9zm-2-6.3l.2.8.7-.6zm8 2.1l-.7.5.8.5zm-3.4-6.3l1-.2-.5-.9zm-2.1-6.2l.3.7.7-.7zm8.1 2l-.7.4.7.5zm-11 4.6l.9.7.3-1.1zm2.7-5.9l-.3.7h.9zm4.5 6.8l-.8-.1.3 1zm1.2-19.6l1.7.5-.3-2.1zm4.4-3.1v.8l.8-.3z"/><path d="M246.5 335.2l-.7-.8-.4 1.1zm1-4.1l-.4-.9-.8.8zm-5 4.1l.6-.5-.8-.4zm-1-8.2l.7.5.2-.9zm6.1 6.4l.4-1.2h-1.5zm-8.7-1.1l1.1.1-.4-1.2zm7.2-8.5l.2 1.2 1.1-.7zm-.7 24l.5-1-1.3-.1zm-8-1.8l1 .4-.1-1.2zm7.4-7.1l.1 1 1.1-.6zm5.2-15l-.4-1-.7.9zm-5 4.1l.6-.5-.8-.4zm-.9-8.2l.7.5.2-.9zm-2.1 3.6l1.3.7.1-1.7zm1.2 2l2.2-.1-1.1-2.3zm1.9-2.3l1.5-1.5-2.2-1.1z"/><path d="M241.6 332.1l1.7-1.5-2.3-.9zm-.6 4.9l1.6-1.6-2.3-1zm.3 4l-1.7-1.2-.7 2.3zm3.2-4.2h-1.7l.7 1.8zm-5.3 12.6l-1-1.3-1 1.6zm4.5-16.9h-1.6l.8 1.7zm-3.1 13.7l-1.1-1.2-1 1.5zM239 338l1.7-1.5-2.4-1.1zm3-10.4l1.3.6v-1.6zm-1.9.1l1.3.5v-1.6zm12.6-9.2l.4-.9H252zm-.9-2.4l-.6-.6-.3.9zm2.6 4.1l.8.2-.2-.9zm-13.3 9.1l.3-.9-1 .2zm5.7-7.1h.8l-.3-.9zm-7.3 8.7l1.3-1.2-1.7-.8z"/><path d="M239.7 326.2l-1 3.1 3.6-.5zm-1.6 5.1l-.9 3.1 3.6-.3z"/><path d="M240.1 324.1l-.9 3.1 3.6-.4zm-3.5 15.7l-1 3.1 3.5-.3zm-.1-3.5l-1 3.1 3.5-.3zm3.2 18.8l-3-1 .4 3.6z"/><path d="M241.5 320l-1 3.2 3.6-.4zm.9-3.4l-.8 3.1 3.5-.6zm.8-4.3l-.8 3.2 3.6-.7zm-4.7 26.3l1.4-1.1-1.7-.8zm-.8-3.6l1.6.7.1-1.9zm-.1 9.1l-1.3 1.1 1.6 1z"/><path d="M237.3 343.3l-.8 1.5 1.9.2zm-1.4 3.2l.2 2.5 2.2-1zm.6 4.8l.3 2.5 1.7-1.1zm3.2-4.5l.4 3.2 2.7-1.5zm-.8-4.7l1.7 2.8 1.8-2.6zm4.5 2l2.4-2-2.7-1.5zm-3.2-9.9l2.4-2.2-2.7-1.2zm1.3 1.5l2.8 1.4.2-3zM237 359l.3 2.7 2.4-1.3zm.4 3.9l.2 2.1 1.8-1zm1.1-6.7l.2 2.3 1.8-1zm2.2-4.1l.2 2.3 1.8-1.1zm-2.6 9.3l1.3 1.4.7-1.6zm0 4.3l1.3 1.4.8-1.6zm3.6-18.9l1.4 1.4.6-1.7zm-5.8-9.3l1.9-.5-1.2-1.5z"/><path d="M243.1 332.2l2 1 .1-2.1zm-1.5 17.1l1.4 1.9 1.1-2zm-1.9-10.6l2 1.2.2-2.2zm-1.4 11.7l.3 3.2 2.6-1.5zm7-1.6l.5-.9h-1.2zm-6.5-1.5l.9.2-.2-.9zm6.1-5.9v1l.9-.4zm3.8-11.9l-.3-.8-.7.7z"/><path d="M251.2 327.8l-.4-1.3-1.2 1.2zm-1.8 2.1l-.3-.8-.6.8zm-1.1-.2l-.4-.7-.6.6zm-1.3 7.5l1.4-1.1-1.9-.8z"/><path d="M248.1 335.5l.6.5.1-.8zm7.2-9.3l-.6-1.1-.8.9zm-6.1 4.2l.7-.6-.9-.5zm-.4-9.4l.7.7.3-1.1zm4.2-25.3l1.3.5v-1.6zm-3.8 1.3l1.3.6v-1.7zm5.8 1l1.3-1.1-1.9-.9zm-6.5 2.8l1.3-1.1-1.7-.8zm-1.6 3.8l1.3-1.2-1.8-.8zm2.1-8l1.4-1.2-1.8-.8zm2.3-.1l1.4-1.2-1.9-.8zm-.9 2.9l1.3-1.1-1.8-.7zm1.1-5.5l1.3-1.2-1.8-.8zm-2.5 18.7l1.4-1.2-1.9-.8zm2.4-5.7l-1.5-.8-.2 1.9zm-1.6 2.4l-1.6-.8-.2 1.9zm2.1-6.8l1.4.6v-1.7zm2.3-8.3l1.4.7-.1-1.7zm-3.1 9.8l.8.4.2-1.1zm1.6-6.4l-.3.8 1-.1zm5.6 6.1h-.8l.4.8zm3.8-1.3l.5-.9-1.1-.1zm-6.3-1.6l.8.2-.2-1zm6-5.7v.9l.8-.5zm.3 19.8l.5-.9-1.1-.1zm-6.2-1.5l.8.2-.3-.9zm5.9-5.7v.7l.9-.3zm-10.1 4.6l1.8.4-.5-2z"/><path d="M256 309.1v.9l.9-.5zm-3.8 3l-.5-.9-.7.8zm-5 4.3l.7-.6-.9-.4zm-1.2-8.3l.7.5.2-.9zm6.3 6.3l.4-1.3-1.5.1zm-8.8-1l1.1.1-.3-1.2zm7.1-8.6l.2 1.1 1.1-.6zm.4 12.9l-.5-1.2-.9 1.2z"/><path d="M244.9 322.9l.8-.6-1.2-.6zm-1.4-10.1l.8.5.3-1.1zm11.7-8.3l-.4-.9-.8.9zm-4.9 4.4l.6-.6-.8-.4zm-1.2-8.3l.8.5v-.9zm-1.9 2.5l1.4.5-.1-1.6zm1.4 1.8l2.2-.1-1.1-2.3zm2-2.7l1.6-1.6-2.3-.8zm-4.3 11l1.7-1.4-2.4-1zm1.4-6.4l1.4.6v-1.7zm-1.9.1l1.4.5v-1.6zm12.4-8.6l.5-1-1.2.1zm-.9-2.5l-.6-.6-.3.9zm2.6 3.4l.8.1-.3-.8zm-13 9.2l.3-.8-.9.1zm5.5-7.1l.9.1-.5-.9z"/><path d="M245.3 312l1.2-1.2-1.7-.7z"/><path d="M244.7 307.1l-.9 3.2 3.6-.5zm1-3.7l-.9 3.2 3.6-.5zm1-3.8l-.9 3.1 3.6-.4zm1-3.6l-.7 3.2 3.6-.7zm1-4.1l-.8 3.3 3.6-.8zm5.6 16.6l-.3-.7-.6.6zm2.5-1.7l-.5-1.2-1.1 1.1zm-2.4 4.2l-.3-.7-.6.7z"/><path d="M253.9 308.7l-.3-.7-.6.6zm6.2-1.7l-.5-1.1-.9.9zm-5.9 4.5l.7-.6-1-.5zm-.8-9.4l.7.7.3-1.2zm1.7-14l1.4.6-.2-1.6zm-3.7 1.7l1.4.5v-1.6zm1.6-5.7l.2-.8-.9.1zm4.3 6.6l1.2-1.2-1.8-.8zm-6.1-1.6l1.3-1.1-1.9-.7zm2.3-.1l1.3-1.1-1.9-.8zm-1.1 3.6l1.2-1.2-1.7-.7zm2-8.1l1.2-1.2-1.9-.7zm-.9 1.9l1.2-1.2-1.8-.7zm2.7.3l1.5.5-.2-1.6zm.8-17.6l1.1.9 1.3-1.1zm-3.9 28l.9.5v-1.1z"/><path d="M254.6 290.7l-.2.8.9-.1zm5.8 6h-.9l.4.9zm3.7-1.9l.5-.8h-1.2zm-6.4-1.2l.8.1-.2-.9zm5.8-6l.1.8.7-.3zm-2.9 3.2l.3-.8h-1.1zm-1.2-2.7l-.6-.5-.2.9zm2.4 4.1l.9.1-.3-.9zm-12-4.7l-.9 3.2 3.6-.5z"/><path d="M250.6 284.9l-.7 3 3.6-.6zm2.8-7.9l1.2-1.2-1.7-.6zm2.7 7.7l1.2-1.2-1.8-.8zm1.9-5.5l-1.5-.8-.1 2zm-1.4 2.1l-1.5-.8-.1 1.9zm2.1 3l1.9.3-.6-2zm1.1-7.7l.1.9.8-.5zm2.1-1.2l-.5-.8-.7.9z"/><path d="M257.1 280l.6-.7-.8-.3zm-1.4-8.1l.7.3v-.9zm2.6 17.5l-.6-1-.8 1.1zm-5.9 5.7l.8-.7-1.1-.5zm-1.8-10.1l.8.5.2-1.1zm-14.4 64.6l.3 1.4 1.4-.9zm21.1-68.3l2.3-.2-1.1-2.2zm-2.2-12.1l1.4 1.8.4-1.9zm0 4.4l1.2.9.4-1.7zm3-1.8l1-1.2-1.7-.6zm-3.5 5.3l2.3-.2-1.2-2.2zm-1.1-5.3l2.3-.3-1.7-2.2zm.4 13.7l1.6-1.6-2.4-.8zm.5-6.2l1.3.5-.1-1.7zm-1.9.1l1.3.5-.1-1.7z"/><path d="M253.9 280.6l.1-.8-.9.2zm-1.6 3.6l1.2-1.2-1.7-.6z"/><path d="M251.7 279.9l-.8 3.1 3.6-.5zm.9-4.1l-.7 3.2 3.4-.5zm.7-3.5l-.7 3.2 3.4-.7zm7.6 9.4l-.4-.8-.5.8zm-2.5-4.6l-.6-1.3-1 1.2zm3.1 5.8l-.4-.8-.6.8zm-1.4-17.5l1.3.6-.1-1.6zm-3.9 1.3l1.4.6v-1.7zm5.9 1l1.2-1.1-1.8-.8zm-6-1.4l1.4-1.1-1.9-.9zm2.3-.1l1.4-1.2-1.9-.8zm2 4.1l1.4-1.2-1.9-.7zm-1.8-6.7l1.2-1.2-1.7-.8zm2.7.4l1.3.6v-1.7zm-3.1 9.7l.8.4.1-1.1zm1.6-6.4l-.3.9 1-.2z"/><path d="M265.4 273.4h-.8l.4.8zm.3 4.8l.5-.9-1.2-.1zm-6.4-1.6l.8.3-.1-1zm6-5.7l.1.9.8-.4zm0-2.9l.5-.9h-1.2zm-.9-2.5l-.6-.6-.3 1zm2.6 3.4l.8.2-.3-.9zm-12.3-3l-.6 3.2 3.6-.7zm1-4.2l-.8 3.3 3.6-.8zm6.5-3.8l1.3.5-.1-1.6zm-3.7 1.6l1.4.5-.1-1.6zm1.6-5.7l.1-.8-.9.2zm4.2 6.6l1.3-1.1-1.8-.9zm-6.1-1.6l1.4-1-1.9-.8zm2.3-.1l1.4-1.1-1.9-.8zm-1.1 3.7l1.3-1.3-1.8-.7z"/><path d="M261.4 254.2l1.2-1.2-1.8-.6zm-.8 1.9l1.2-1.2-1.8-.7zm2.7.3l1.4.5-.1-1.6zm.5-17.5l1.2.9 1.2-1.1zm-3.7 27.9l1 .5v-1.1zm1.5-6.4l-.1.9.9-.2zm5.8 6h-.9l.5.9zm2.8 1.8l.4-.9h-1.1zm-6.4-1.3l.8.2-.2-.9zm5.8-5.9l.1.8.7-.4zm-1.9-.4l.3-.9h-1.1zm-1.2-2.7l-.6-.6-.2.9zm2.4 4l.8.2-.2-.9zm-12.3-3.5l-.8 3.2 3.5-.5zm1-4l-.7 3.1 3.6-.7zm2.6-7.6l1.3-1.1-1.8-.7zm2.9 7.6l1.3-1.2-1.8-.8zm1.7-5.4l-1.5-.8-.1 2zm-1.3 2.1l-1.6-.8-.1 1.9zm2.5-12.7l1.8.3-.5-2z"/><path d="M266.6 246.4l.1.9.9-.5zm2.2-1.2l-.6-.8-.6.9zm-4.8 4.6l.5-.7-.8-.3zm-1.5-8.1l.7.3v-.9zm2.9 17.4l-.6-1-.8 1.1zm-5.9 5.7l.7-.7-1-.5zm-1.8-10.1l.8.5.2-1.1zm6.5-3.6l2.2-.2-1.1-2.2zm-2.3-12.1l1.4 1.8.4-1.9zm0 4.4l1.3.9.3-1.7zm3-1.8l1-1.2-1.6-.6zm-3.5 5.3l2.3-.2-1.2-2.2zm-.7-5.5l2.2-.3-1.6-2.2zm.3 13.8l1.6-1.6-2.4-.8zm.2-6.1l1.3.5-.1-1.7zm-1.9.1l1.3.5-.1-1.7z"/><path d="M260.7 250.4l.1-.8-.8.2zm-1.3 3.6l1.2-1.2-1.7-.7z"/><path d="M258.5 249.7l-.7 3.1 3.5-.5zm1.1-4.2l-.7 3.1 3.4-.5zm1-3.8l-.8 3.2 3.5-.7zm7.1 9.8l-.4-.8-.5.8zm-2.4-4.6l-.6-1.3-1.1 1.2zm3.2 5.7l-.3-.8-.7.8zm-.9-17.4l1.3.5-.1-1.6zm-4 1.7l1.5.6-.1-1.6zm1.9-5.7l.1-.8-.9.1zm4.2 6.6l1.3-1.2-1.9-.8zm-6.3-1.5l1.3-1.1-1.9-.8zm2.3-.2l1.3-1.1-1.9-.7zm1.1-4.5l1.2-1.2-1.8-.7zm-1.1 1.9l1.2-1.2-1.7-.6zm3 .2l1.4.5-.1-1.6zm3.2 1.5l-.7-.5-.1.9z"/><path d="M262.1 235.7l-.9 3.2 3.6-.5zm.7-3.7l-.7 3.1 3.6-.7zm3.1-7.9l1.2-1.2-1.8-.6zm2.6 7.6l1.2-1.1-1.7-.8zm1.9-5.4l-1.4-.8-.2 2zm-1.3 2.1l-1.6-.8v1.9zm-3 14.6l2.3-.2-1.1-2.2zm1-28.4l1.4 1.8.4-1.9zm.4 6.1l1.3.9.4-1.7zm-.4 3.4l2.3-.1-1.3-2.2zm-.8-5.4l2.3-.3-1.7-2.2zm-.2 14l1.6-1.6-2.4-.9zm.7-6.3l1.4.5-.1-1.7zm-1.9.1l1.4.5-.1-1.7z"/><path d="M266.3 227.7l.2-.8-.9.1zm-1.5 3.6l1.2-1.2-1.8-.7z"/><path d="M264.2 226.9l-.8 3.2 3.6-.5zm1.1-4.1l-.8 3.1 3.5-.5zm.9-3.8l-.8 3.1 3.5-.6zm7.1 9.8l-.3-.8-.6.8zm-2.4-4.6l-.6-1.3-1 1.2z"/></g></svg>