<svg xmlns="http://www.w3.org/2000/svg" viewBox="0 0 480 480" xmlns:v="https://vecta.io/nano"><path d="M226.1 79.1l-7.5 24.5-2.2 5.7s3.2 4.1 10.8 5.7c5.2 1.1 8.7 1.2 11 1 1.9-.2 4.2-.6 3-4.1-1.7-5.2-1.1-8.5-1.1-8.5l2.7-14.7-16.7-9.6z" fill="#ea9d7d"/><linearGradient id="A" gradientUnits="userSpaceOnUse" x1="229.23" y1="95.97" x2="236.1" y2="87.12"><stop offset="0" stop-color="#bc5a32" stop-opacity="0"/><stop offset=".99" stop-color="#bc5a32"/></linearGradient><path d="M224.9 92.3a26.6 26.6 0 0 0 9.4 8.2c3.5 1.7 6 2.1 6 2.1l2.2-12.2-16.4-11.3-.9 1.7-.7 2.8c-.1 0-1.9 5.2.4 8.7z" fill="url(#A)"/><path d="M217 109.4h-.1c-.2-.1-.3-.3-.3-.5l4.7-14.4c.9-3 3.6-13.1 3.6-13.1.1-.2.3-.3.5-.3.2.1.3.3.3.5l-3.6 13.1c-.8 2.7-4.7 14.3-4.7 14.3 0 .3-.2.4-.4.4z" fill="#cf7653"/><g fill="#a84d3b"><path d="M228.9 84.9l.2.5.4-.5z"/><path d="M228.9 84.2l-.2.9 1-.1zm5.4 3.9v1.1l1.1-.5zm-2.7-1.7l-.2 1 1.2-.3zm-1.5-1.1l-.2 1 1.2-.3z"/><path d="M228.3 83.3l-.5 1h1.3zm7.4 7.1l-.4-.5-.4.7zm-1.3-1l-.6-.8-.3.9zm4.1 2.1l-.7-.8-.3.9zm2.9 1.1l-.6-.8-.3.9zm-5.2-3.6l-.7-.3v.9zm1.4 3.1l-.5-.6-.4.8zm-3.9-4.1l-.7-.3v.8z"/><path d="M238.9 90.2l-.9-.4V91zm2 .3l-.8-.1.2.9zm1.2 1.6l-.7-.1.3.8zm-2.7-.3l-.4-.6-.5.7zm2.4 2.4l.1-.8-.8.3zm-.3 1.3l.2-.7-.8.2zm-1.6 0l-.5.3.6.3zm.3-3.9l-.4.3.5.3zm2.2-.7l-.5-.1.1.6zm-1.8 5.8l-.4.3.5.3zm-10-10.5l-.4.4.6.2zm-3.3-4.6l-.4.4.5.3zm10.1 9.5l-.3-.3-.2.5zm-2.9-.8l.2-.4h-.5zm1.5.9l.1-.4h-.5zm2.1 2l.2.5.4-.5zm2.9-2l-.4.2.5.3z"/><path d="M241.2 90.6l-.6.4.7.4zm-1.3.5l-.4.2.5.3zm.4 7.1l-.3.2.4.3zm-1-1.2l.1.4.4-.3zm-.1-2.4l.1.4.4-.3zm1.9 1l-.3-.3-.2.5zm-13.9-4.7l.2.2.2-.3zm1.8-1.3l-.2.3h.4zm2.1 3.6l-.3-.1v.3zm-1-1.7l-.2.3h.4zm6.8 3.2v.5l.6-.2zm-.9-4.6v.6l.6-.3zm.1-.9v.5l.5-.3zm-7.8-3.1v.5l.6-.2zm12 7.3l-.4.1.3.4zm-1.5 4.2l-.2-.4-.3.4zm.4-5.3l.2.5.4-.5zm1.5.7l.3.4.4-.5zm1.1-1.9l-.3.3.5.2zm-.6 3.1l-.4-.2v.5zm-11.3-8.8l-.6.4.7.4zm-2 .8l-.3-.3-.1.4zm-2-1.1l-.3-.2-.1.5zm-.6 3.1l.2-.3h-.5zm3.9-2.2l.2.4.3-.3zm-1.2-1l.2.7.6-.6zm-.3-2.6l-.3.6h.8zm3.1 4.8l-.3.2.4.2zm.7-.4l-.3.2.4.2zm.8.4l-.3.2.4.2zm-1.4 2.7l-.3-.3-.1.4zm-6-3.5l.2.4.3-.4zm2.2-2.3l-.2.3.3.1zm-.1 3.8l-.3-.2v.4zm.4-4.2l.2.4.3-.4zm.9.6l.2.4.3-.4zm-2.3-1l-.2.2.3.2zm.4-1l-.3-.2-.1.4zm5.3 5.4v.5l.4-.2zm1.8.9l-.3.1.2.3zm-.8-.8l-.3.1.2.3zm6.7 3l-.3.1.2.3zm-1.4-.6l-.4.1.3.3zm-4.7.7l-.2-.3-.2.3zm5.6 4.9l-.2-.3-.3.3zm-6.2-5.9l-.2-.4-.2.4zm2.6-.6v.4l.5-.2zm1.7.4v.4l.4-.2zm1.7.9l-.3.1.2.3zm-1.3 2l-.2-.3-.2.3zm-4.4-.1v.4l.5-.2zm2-1.1l-.4.1.3.3zm3.4.8l-.2-.3-.2.3z"/></g><g fill="#ea9d7d"><path d="M250.9 53.3c2.2 2.8 2.9 5.2 3.3 8.1a64.1 64.1 0 0 1 .3 5.4c0 4.2-.3 10.1-.8 13.4-1 5.7-3.7 9.1-6.9 10.1s-9-1.1-12.9-3.1c-3.3-1.7-5.2-3.5-5.7-5.6-.5-2.2-1.5-5-1.5-5l-5.7-3.9s-4.4-15.1 5.3-21.6c8.4-5.6 20.7-2.7 24.6 2.2z"/><ellipse cx="224.4" cy="75.6" rx="5.3" ry="5.7"/></g><path d="M224.4 81.7c-3.2 0-5.8-2.8-5.8-6.1s2.6-6.1 5.8-6.1 5.8 2.8 5.8 6.1-2.6 6.1-5.8 6.1zm0-11.4c-2.7 0-4.9 2.4-4.9 5.3s2.2 5.3 4.9 5.3 4.9-2.4 4.9-5.3-2.1-5.3-4.9-5.3z" fill="#b76349"/><linearGradient id="B" gradientUnits="userSpaceOnUse" x1="224.49" y1="78.92" x2="224.83" y2="73.59"><stop offset="0" stop-color="#cc7a5e" stop-opacity="0"/><stop offset=".92" stop-color="#aa5f4b"/></linearGradient><ellipse cx="224.7" cy="75.6" rx="2.4" ry="2.5" fill="url(#B)"/><path d="M230.3 72l-1.7 1.5-.7 5.6.3 1.6s2.4-1.3 2.6-3.9-.5-4.8-.5-4.8z" fill="#ea9d7d"/><path d="M243.4 90.8c-1.1 0-2-.2-4-.7a26.5 26.5 0 0 1-10-5.5c-2.2-2.2-2-4.3-2-4.4 0-.2 0-.5.2-.5s.3.2.4.4c.1.4.1 2.1 1.9 3.9a25.8 25.8 0 0 0 9.6 5.3c3.1.7 3.7.9 6 .7 2.2-.2 3.5-1.1 3.5-1.1.3-.2.6-.3.4 0-.2.2-1.8 1.5-3.8 1.8-.9.1-1.6.1-2.2.1z" fill="#b76349"/><g fill="#f4b9a6"><path d="M243.8 75.7l.6-.5-.8-.4zm-8.8-.4l-.3-.5-.4.6zm11.6 1l1 .6.1-1.2zm-2.7-5.1l1.3.8.3-1.6z"/><path d="M243.9 70.4l1.3-.8-1.3-.9zm3.1 9l1.3-.8-1.3-1zm1.2-1.7l.5-1.4h-1.6zm-4.7-2.9l-.9.2.6.8zm.5-1.1l-.8.2.5.7zm-.1 4.3l.3.8.7-.6zm.4 1.5l.7.5.2-.9zm4 2.5l-.8.2.7.7zM245 64.9l-.2.6.8-.1zm.9 4.9l-.8-.1.3.7zm.6-2.5l-.7-.1.3.8zm-5.7 1.5l-.1.8.9-.3zm1.9-1.5l-.7.5.8.5zm-3.3 1.2l-.5.1.3.4zM247 82l-.8.2.5.6zm-.8-.5l-.7.3.5.6zm-6-4.4l-.7.1.4.7zm1.7 1.4l-.8.1.5.6zm-2.4-3.6l-.1.7.8-.3zm3.7-.8l-.3-.6-.6.6zm7.3 5.8l.3-.4-.6-.1zm-2.8-2l.4.1-.1-.5zm4.4-4.6v.4l.5-.2zm-2.1 2.3h.6l-.2-.5z"/><path d="M252.3 74l.2-.4-.6.1zm-14.6-3.8l-.2.5h.6zm6.6-3.2l.8-.2-.6-.7zm.8 10.3l1.9-.5-1.5-1.5zm-1.3-6.8l-.7-.1.1.7zm-5.3 4.9v-.7l-.7.4zm4.1-6.9v.9l.9-.5zm-1.1 1.5l.1.8.8-.4zm.9-.6l.1.9.8-.5zm7.5-.9l.7.3v-.7zm-6 4.4l-.4-.6-.5.7zm3.4 8.2l-.7.2.5.6zm-3.1-4.3l-.2.5h.7zm.7 3.5l-.3-.5-.4.6zm1 .5l.4-.4-.6-.2zm.2-1.2l.6-.5-.7-.3z"/><path d="M246.1 78.8l.5-.4-.7-.4zm-.5-3.1l.6-.4-.7-.3zm-1.3.3l.4.4.2-.6zm5.9 4.7l-.5.1.4.5zm-3.1-5.6l-.3.5h.7zm1.5 6.1l-.3-.5-.3.6zm-3.4 2.1v.6l.7-.4zm-1.8-3.3l-.5.2.4.4zm-6.3-6.7l-.3-.4-.3.6zm6.7 8.1l.5.2V81zm-1.8-1l.5.2V80zm-3.1.7l-.2.6.6-.1zm2.1 2.3l-.5-.1.1.6zm-2 .7l-.6-.1.2.6zm5.6-9.4l1.2-.3-.9-1zm-.8-2.7l.3.4.4-.5zm.1 1l.6.9.7-1.1zm3.3-2l-.8.7 1.3.4zm-7.3 2v-.6l-.7.3zm6.2-.5l-.4.4.7.2zm-2.2-3.4l.7-.2-.6-.6zm4.5 1.5l.6-.2-.5-.6zm-4.9 0l.7-.2-.5-.5zm5-3.3l.7-.2-.6-.6zm-2.5-1.6l-.4.4.6.2zm-5.4 2.1v-.6l-.6.4zm.8 8.8l-.1.8.9-.3zm-1.1-.3l-.8.1.5.6zm1.5 3.1l-.1.7.8-.3zm.9-3l.1.8.9-.5zm-.6 1.5l.1.9.8-.5zm-.9-2.2v-.6l-.6.3z"/><path d="M250 70.9l.8-.2-.6-.6zm-2.6-2.3l.4.4.3-.5zm5.3 8l.5-.2-.5-.5zm-10.8-8.9v-.6l-.6.4zm4.2 1.3l-.1.6.8-.2zm-.9-1.3v.6l.7-.2zm.6 6.6l1.2.8.3-1.5zm2.8 0l1.4-.4-1-1.2zm-3.2.7l.5.1-.1-.4zm-.5-2.8l-.2.5h.6zm1.1-1.5l-.7.1.5.6zm2.2.3l-.7.1.5.6z"/><path d="M245.6 72l1.5-.8-1.7-1zm2.2-5.7l.4-.7-1-.1zm-1.2 11.4l.4-.7h-1zm-1.2-3.8l1.3-.7-1.4-.9zm.8-5.9l.4.4.2-.6zm1.5 1.2l-.6 1 1.4.1zm1.1-1.5l-.3.5h.6zm.6 4.4l.5.3.2-.5zm-1.8-5l-.3.5h.6zm-8.9 5.9l-.7.2.6.6zm1-3l-.3.6h.8zm1.5 0l-.2-.6-.5.5zm-.8 3.2l-.2-.5-.5.4z"/></g><g fill="#964c38"><path d="M226.9 76.1l.1-.3-.4.1zm-1.7-2.9l-.4.1.3.4z"/><path d="M225.2 73.3l-.5.6.8.2zm-.9-.1l-.7.2.6.5zm2.5 1.5l-.2.2.4.2zm-.9-.5l-.2.3.4.1z"/><path d="M226.6 74.9l-.2.3.4.1zm-2.3-.9l-.2.3.4.1z"/><path d="M223.9 73.8l-.4.4.7.3zm1.6 1.8l.3.2v-.3zm1.1-1.3v.3h.2zm.2 1v.2h.2z"/><path d="M223.2 73.6l-.3.4.6.2zm.9 1.6h-.2l.1.2zm.5.8v-.2l-.2.2zm.8-2.4l.3-.3-.4-.1z"/><path d="M224.2 73.6l-.2.2.4.1zm-.5.2l-.3-.1v.4z"/><path d="M223.7 73.8l.1-.3-.3.1zm2.4.5l.2.3.3-.4zm-.3-.9l-.1.7.7-.2z"/><path d="M225.5 73.8l.2.3.2-.4zm-2.5 1l-.1.3h.3zm1.9-1.6l-.3-.1v.3zm-.7 1.8l.3.3.1-.4zm.9 1.2l-.2.3.4.1zm-2.1-2.1l-.2.3h.3z"/><path d="M223.9 76.3l-.3-.1v.3zm-1.1-1.6l.3-.1-.2-.3z"/><path d="M222.4 75.8h.3l-.2-.3zm.2-1l.3-.1-.2-.3zm.7-.4l.1.4.3-.2zm-.9.9l.4.1-.2-.4zm.5.1l.1.3.3-.2zm2-1.2l-.2.1.2.3zm1.5 1.5v.4l.4-.3zm-2-2.2v.3l.4-.2zm1 1.1l-.2-.3-.2.4z"/></g><path d="M237.7 68.6c-.3-.2-.4-.9-.1-1.2.1-.1 1.7-2.4 5.3-2.1.4 0 .8.3.8.8 0 .6-.4.9-.8.9-2.7-.2-3.8 1.5-3.9 1.6-.2.2-.9.3-1.3 0zm15.3-2.2c-.1 0-.3 0-.4-.1-.8-.6-2-.2-2.1-.2-.4.1-.8-.1-.9-.4-.3-.8.2-1.1.5-1.3.1 0 1.9-.6 3.3.4.3.2.6.6.1 1.4 0 .1-.2.2-.5.2z" fill="#cf7653"/><g fill="#4f2b23"><circle cx="241.9" cy="72" r="1.4"/><circle cx="252.3" cy="71.2" r="1.4"/></g><path d="M245.7 85h0c-3.7.5-5.9-1.9-6.5-3.2-.2-.4 0-.8.4-1s.8 0 1 .4c.1.1 1.4 2.9 4.9 2.4.4 0 .8.2.8.6s-.2.7-.6.8z" fill="#cf7653"/><g fill="#f4b9a6"><path d="M248.3 51.1l-.5.4.3.6 1.1-.4zm-7.2-.9l.3-.3-.4-.2zm9.2 3.1l-.7.3.5.7zm-2.4-2.4l-.7-.3-.1 1zm-1.4-.8l-.8-.2.2 1zm-5.7-1.7l.4 1.1.9-.9-.7-.1zm-10.8.9l.8.9.5-1.2zm12.8-.5l.2 1 .7-.7z"/><path d="M252.9 57.1l-.4-.8-.5.9zm-1.8-.2l.6-.7-.9-.2zm-4.3-5.8l-.2 1.1 1.1-.4zm-2.3.1l-.5.2.3.4zm-5-.8l-.4.1.3.4zm.5-1.5l-.7 1.1 1.3.2zm-4.5.1l-.1.7.6-.2zm-7.9 2v.8l.8-.2zm1.1.4l-.1.8.9-.2zm-1.6 1.1l1.3.6.1-1.5z"/><path d="M230.3 51.5l-.9.6.9.7zm-4.3.7l1.1.3-.2-1.3zm16.1-1l-.2.3.5.1zm-4.4-1.2l-.3.4.5.1zm1.2.6l.1-.6-.7.2zm6 2.7l.2.4.3-.3zm-.1-1l-.2.2.2.1zm8.7 7.9l-.2-.2-.1.3zm-8.4-5.7l-.2.3.3.1zm7.2 1l-.7.8 1.1.3zm-8.8-5.5l-.2.6.6-.1zm9.9 8h-.7l.3.8zm-.8-.7v.6l.6-.3zm.5 1.7v.6l.6-.3zm-4.4-4.9l-.4.2.4.3zm-6.9-4.2l-.2.4.5.1z"/><path d="M246.7 50.9l-.2-.3-.2.4zm-4.5-1.4l-.7-.2.1.9zm-4.1 0l-.7-.2.1.8zm3 .7l-.7-.2.1.8zm-2.5-.3l-.6-.2.1.8zm-1.6-1l.1-.7-.8.2zm-2.8-.2l-.6-.3v.9zm1.3.1l-.6-.3.1.8zm-5.6 1.7l-.8-.3.1 1zm-1.5.9l.4-.9-1.1.1zm3.7-2.1l-.7-.2.1.9zm-2.3 1.4l.9.5V50z"/><path d="M229.2 51.3l.9.5.1-1.2zm1.1-.6l.6.9.6-1.1zm12.4-1v-.9l-.9.4zm-4.8-1.7l.5 1 .6-.9zm-2.4.1l.5.9.6-.9zm-1.5.2l.5.9.6-.9zm-7.6 2.7l.9.6.1-1.1zm16.1-.9v.4l.4-.2z"/><path d="M246.8 52.4v.4l.5-.2zm-1.2-2.7l-.7-.2.1.7zm-15.7-.3l-.8.4.7.7zm-1.8 1l-.7.1.4.6zm-1.6.7l-.6.3.6.5zm20 2.1l-.2-.4-.2.4zm-2.6-1.1v.4l.4-.3zm-2.2.8l-.1.4h.4zm2.1-1.4l-.3-.1.1.4zm-1.3-.5l.4.3.1-.5zm-6.2-1.9l.3.4.2-.5zm5.6 2.9l-.1.3h.4zm-12.7 5l-.2.4h.5zm11.1-8.7l-.4.9h1zm.8 4.4l-.4-.1.1.5zm-.1-1l.3-.1-.2-.3zm-4.1.2l.5-.2-.4-.5zm2.7-2.8l.4-.8h-1zm-1.5 2.4l.1.3.3-.2zm.9-2.2l.1-.7-.8.2zm-5.6.7l.1-.7-.8.1zm-4.6.5v-.7l-.7.3zm13.8 2.1l.1.3.3-.3zm1.2.8l-.4.2.4.3zm-10.9.3l-.4.2.4.3zm7 1.1l-.3.2.3.3zm8-2.9l-.4.9.6.3.4-.4zm2.8 1.2l-.7-.6-.4.4v.6zm-.7-.7l-.7-.6-.4.4v.6zm-6.5-1.9l-.1-.8-.8.5zm4.8 3.5v-.4l-.4.3zm3.5.6l-.7.8.5.4.6-.5z"/><path d="M249.6 55.1l-.1.4h.5zm1.3-1.6l-.5.2.2.6.9-.1zm-1.5-.1l-.5.7.8-.3zm-8.4-1.3h-.4l.2.4zm11 4.8l-.1-.4-.3.3zm-4.1-2.7v-.4l-.4.2zm2.9.1l-.1.7.7-.2zm-10.9-3.7l-.2.5.5-.1zm2-.1l-.7-.1.2.8zm4.7 2.3l-.1-.4-.3.2zm5.1 5.1l.1-.4-.4.2zm-5.3-6.6l-.6-.6-.3.9zm5.2 4.4l-.6-.7-.2.8zm-4.3-1.6l.2-.4h-.5zm0-1.5l-.2.2.2.1zm.3 2.2l-.3.3.4.1zm1.7-1.5l-.6-.5-.4.3.3.4zm0 1.4l.2-.4h-.4z"/><path d="M248.3 55.8l.2-.5h-.5zm.8-1.3l-.1.6.6-.3zm.6-.1l.7 1 .7-.8zm-5.7-4.2l.1 1.2.9-.3zm1.3 1.6l.2.5.4-.5zm-.5-.2l.4.3v-.7zm5.9 4.4h-.4l.2.4zm-5.1-5.3l-.4-.9-.4.9zm4.6 5.7l-.1-.4-.3.4zm-6.3-5.5l-.4.1.3.3zm6.7 6.2l-.1-.4-.3.4zm-1-1.7l-.5.1.3.4zm-1.7-2l-.1-.4-.4.2zm-9.4-.4l.1-.5-.5.2zm-5.8-4.5l-.8.4.8.7zm6.7 1.4l-.1-.9-.8.4z"/><path d="M234.8 51.6l-.4.6.7.1zm-1.7 1.5l.3.2.1-.5zm-1.6 1v.3l.3-.1zm4.2 1.2l-.3-.1.1.4zm-4.3-3v.5l.6-.2zm7.1 1.7h-.3l.2.3zm-5.2-5.4l-.9 1 1.3.5.1-.8zm-.1 1.5l-.5.7.9.3v-.7z"/><path d="M233.1 49.4l-1.5.5 1.1.9z"/><path d="M231.8 49.8h-.6l-.5.5.9.6zm5.7-.6l-1.2.2.7 1.2zm-2.2.7l-.2.9 1-.2zm1.8.9l-.7-.5-.2 1zm-5.3.9l-1-.1.4 1.1zm12.9-1.3v-1l-1 .4zm-10.8 2.7l.5-.5-.7-.3zm-8.4 2.2l.6-.7-.9-.3z"/><path d="M226 56.4l.4-.4-.6-.3zm4.7-3l.6.2v-.8zm3.7-1.7l-.6-.8-.5.9zm-1.9-1.3l-1.2.2.7 1.2zm2.9-1.1l-1.1.2.7 1.2z"/><path d="M234.6 49.8l-1.2.3.7 1.1zm-1.8 2l-.6.6.9.2zm.6 3.7l-.3-.1v.4zm-6.3 1.4l-.7-.3.1.9z"/><path d="M232 52.4l.3.3.2-.5zm2-3.2l.2.5.3-.4zm2.6.8l-.6-.6-.3.9zm-9.8 4.1h-.8l.4.8zm3.9-.8l-.8-.1.3.9zm5.4-2.1l-.3-.2-.1.4zm2.3.6l.1.5.4-.4zm-3.7 1l-.3.3.4.2zm2.4-.7l.2.5.3-.4zm-4-.4l-.1-.5-.4.3zm4.5-3.5l-.7.5.1.4 1.1.2zm-3.2 2.6l-.1.3h.3zm9.4-1.6v.4l.3-.1zm-16.2 6.5l-.1.4.4-.1zm8.7-5.3l-.4-.1v.4zm4 1.3l-.1-.4-.4.3z"/><path d="M240 53.1l-.1-.4-.5.3zm-7.9 2.7l-.1-.5-.4.3zm5.3-4.9l.3.5.3-.6zm-7.1.8l.7.4V51zm4.6-.7l.3.4.2-.4zm4.8 1.2l-.3-.2v.4zm-10.6 3.6l-.4-.2v.4zm7.4-2.4l-.3.3.5.2zm-.7-.1l-.3-.2-.1.4zm-5.8.9l-.3.3.4.3zm-2.6 5.3l-.3-.3-.2.5zm-.9-2.2l-.5-.4-.2.7zm0-3.7l.4.9.7-.8zm1.7-.5l.2.6.4-.5zm.3 1.2l.2.5.5-.4zm-8.4 9v1.6l1.2-.6z"/><path d="M220.1 65.1v1.3l.9-.8zm2.6.1l.1.6.5-.3zm-1.4.1l.1.6.5-.3zm.9-8.1l.1.8.8-.4zm1.4 1.8l-.3-.3-.2.5zm-.1.8l-.6-.5-.3.9zm-1.3 0l-.6-.5-.2.9zm.5-1.2l-.6-.4-.3.8zm.7-1.3l.8-.1-.4-.9zm2.3 1.4l.1.4.4-.3zm-2.3 4.5v.4l.5-.2zm-2.7 1.1l.1 1.1.9-.6zm1.4 2.3l.1.4.4-.2zm-1.1-8.4l1.3-.1-.8-1.3zm4.2-4.1h1l-.5-1zm3-.6l-.6.4.7.5zm-5.7 10.1h.4l-.2-.4z"/><path d="M222.4 63.2l.1.3.2-.3zm.9 1.7l-.2.2.3.1zm-.6-.9l-.2.2.3.1zm-1 4.6l-.2.2.3.1zm-.4-3.2l.3.2.1-.3zm.8-.9l.3.4.3-.5zm3.4-2l-.2.3h.4zm2.6-7.7l-.5-.2.1.6zm-3.1 1.7l.5.2V56zm-2.3 1.1l.5.8.6-.9zm-1.7.6l-.3 1 1.1-.2zm.8 3.6l.5.3.1-.6zm-1.2-.2l.7.5.1-1zm3.7-7v.5l.5-.2zm-.6.1v.5l.5-.2zm6.1-2.3l-1 .2.7 1z"/><path d="M225.2 55.6l-.8.2.6.7zm11.2-4.2l-.8.2.6.7zm-12.2 3.1l.1-.9-.9.3zm.4.9l-.8-.3v1zm-.9-.6l-.5-.8-.5.8zm-.5.8l-.6-.8-.4.9zm2.8-1.7l.5-.2-.4-.4zm-.8.1l-.8.1.4.8z"/><path d="M223.8 53.2l.3.5.4-.5zm3.3-1l-.8.9 1.2.5zM222 65.8l.1.5.4-.3zm-.3-4.1l-.3.1.3.3zm-.6 5.5l-.4.2.4.3zm.5-.6l-.3-.3-.1.4zm1.2-5.3h.4l-.1-.5zm-2.4-1l-.1 1 1-.3z"/><path d="M221.8 62.4v.7l.7-.4zm-1.7.8l1.3-.5-1.1-1.2zm0 3.4v.9l.9-.5zm.6-.1h.7l-.3-.7zm2-.1l.1.4.3-.3zm-1 1.1l-.3.2.3.3zm2.9-9.4l-.3.5.7.1zm-3.1.9l-.3.4.6.1z"/><path d="M222.7 58l-.2.4.5.1zm.7.9l-.2.4h.5zm.9-.6l.3.1V58zm-3.9 5l.6.5.2-.9zm1.1-1.8l.3.2v-.4zm3.2-4.5l.4.2v-.4zm-1.1.8l.3.1v-.4zm-.6-.6l.4.2.1-.6zm-1.7 3.3l.3.2v-.5zm2.4-2.3l-.2.4h.5zm-1.3 1l-.3-.1.1.4zm1.5-.1l-.2.4h.5z"/><path d="M222.3 59.4h-.3l.1.4zm-1.1 8.9l.2-.4-.5-.1zm-.8.7l.2-.3-.3-.1z"/><path d="M220.7 69.1l.2-.3-.4-.1zm-.2.5l.4-.3-.5-.2zm2.2-7l.4-.3-.5-.2zm-2.6 5.3l.6.4.1-.8zm.6-8.7l-.2 1 1.1-.3zm3 .8l-.6.2.4.6zm3.6-5l-.8.1.6.7zm-1.4-.1h.5l-.3-.4zm-.8-2.8l.9.3-.1-1zm-.2 2.8l.2.8.7-.6zm-.8-1.9l.9.3-.1-1.1zm-2.6 3.8h1.1l-.5-1z"/><path d="M226.3 55.5l-.4.1.3.4zm.2 2.6h-.4l.3.4zm-4 2.6l-.4.1.3.3zm2.5-7.9l.8.3-.1-1zm-.5 8.2l.5.2-.1-.5zm3.3-3.6l.4.1V57zm-4.7-1.5l.4.5.2-.7zm1 0l-.1.6.7-.2z"/><path d="M222.4 56l.6.5.2-.8zm.2 1l.4.4.3-.7zm.9 1.3l-.4.1.2.4zm1.5-.1h-.3l.2.4zm.1 3l.5.1-.1-.5zm-.6-1.3v.4l.4-.2zm-1.8.3l-.4-.3-.2.5zm1.1 1.9l.2.4.3-.4zm-1.5-1.6l-.2.4.6.1z"/><path d="M222 60.6l.4.2v-.5zm-.2.8l-.2.6h.7zm-.5 2.5l.5.1-.1-.6zm2.4-3l.4.1-.1-.5zm-2.5 3.8l.5.2-.1-.6zm1.4-3.5v.4l.4-.1zm2.3-3.9l-.4.1.2.4zm-1.2 4.8l-.4.1.3.3z"/></g><path d="M247.7 80.4c-.3 0-.6-.2-.7-.6s.2-.8.6-.8c0 0 1.1-.2 1.2-1.1s-.8-3.4-1.3-4.7c-.2-.4 0-.8.4-.9.4-.2.8 0 .9.4.2.4 1.5 3.8 1.4 5.4-.1 1.5-1.5 2.3-2.3 2.4-.1-.1-.2-.1-.2-.1z" fill="#b4603f"/></svg>