<svg xmlns="http://www.w3.org/2000/svg" viewBox="0 0 480 480" xmlns:v="https://vecta.io/nano"><path d="M226.1 79.1l-7.5 24.5-2.2 5.7s3.2 4.1 10.8 5.7c5.2 1.1 8.7 1.2 11 1 1.9-.2 4.2-.6 3-4.1-1.7-5.2-1.1-8.5-1.1-8.5l2.7-14.7-16.7-9.6z" fill="#ea9d7d"/><linearGradient id="A" gradientUnits="userSpaceOnUse" x1="229.29" y1="96.01" x2="236.16" y2="87.16"><stop offset="0" stop-color="#bc5a32" stop-opacity="0"/><stop offset=".99" stop-color="#bc5a32"/></linearGradient><path d="M225 92.3a26.6 26.6 0 0 0 9.4 8.2c3.5 1.7 6 2.1 6 2.1l2.2-12.2-16.4-11.3-.9 1.7-.7 2.8c-.2 0-2 5.2.4 8.7z" fill="url(#A)"/><path d="M217 109.4h-.1c-.2-.1-.3-.3-.3-.5l4.7-14.4c.9-3 3.6-13.1 3.6-13.1.1-.2.3-.3.5-.3.2.1.3.3.3.5l-3.6 13.1c-.8 2.7-4.7 14.3-4.7 14.3 0 .3-.2.4-.4.4z" fill="#cf7653"/><g fill="#a84d3b"><path d="M228.9 84.9l.2.5.4-.4z"/><path d="M228.9 84.2l-.2 1 1-.2zm5.4 3.9v1.1l1.1-.5zm-2.7-1.7l-.2 1 1.2-.3zm-1.5-1.1l-.2 1 1.2-.3z"/><path d="M228.3 83.3l-.5 1h1.2zm7.4 7.1l-.4-.5-.4.7zm-1.3-1l-.6-.8-.4.9zm4.1 2.1l-.7-.8-.3.9zm2.9 1.1l-.6-.8-.3.9zm-5.2-3.6l-.7-.3v.9zm1.4 3.1l-.6-.6-.3.8zm-3.9-4.1l-.7-.3-.1.9z"/><path d="M238.9 90.2l-.9-.4V91zm2 .3l-.9-.1.3.9zm1.2 1.6h-.7l.3.7zm-2.7-.2l-.4-.7-.5.7zm2.4 2.3l.1-.8-.8.3zm-.3 1.3l.2-.7-.8.2zm-1.7 0l-.4.3.6.3zm.4-3.9l-.4.4.5.3zm2.2-.7l-.5-.1.1.6zm-1.8 5.8l-.5.3.6.3zm-10-10.5l-.4.4.6.2zm-3.3-4.5l-.4.3.5.3zm10.1 9.4l-.4-.3-.1.5zm-2.9-.8l.2-.4h-.5zm1.5.9l.1-.4h-.5zm2.1 2l.2.5.4-.5zm2.9-2l-.4.2.5.3z"/><path d="M241.2 90.6l-.6.4.7.4zm-1.3.5l-.4.2.5.3zm.4 7.1l-.4.2.5.3zm-1-1.2l.1.4.4-.3zm-.1-2.4l.1.4.4-.3zm1.9 1l-.3-.2-.2.4zm-13.9-4.7l.2.2.2-.3zm1.8-1.3l-.2.3h.4zm2.1 3.6l-.3-.1v.3zm-1-1.7l-.2.3h.4zm6.8 3.2v.5l.6-.2zm-.9-4.6v.6l.5-.3zm.1-.9v.5l.5-.3zm-7.8-3.1v.5l.6-.2zm12 7.3l-.4.1.3.4zm-1.5 4.2l-.2-.4-.3.4zm.4-5.2l.2.4.4-.5zm1.5.6l.3.4.4-.5zm1.1-1.9l-.3.3.5.2zm-.6 3.1l-.4-.2v.5zm-11.4-8.8l-.5.4.7.4zm-1.9.8l-.3-.3-.1.4zm-2-1l-.3-.2-.1.4zm-.6 3.1l.1-.4h-.4zm3.9-2.3l.1.4.4-.3zm-1.2-.9l.2.6.6-.5zm-.3-2.7l-.3.6h.8zm3.1 4.8l-.3.2.4.2zm.7-.4l-.3.2.4.2zm.8.4l-.3.2.4.2zm-1.4 2.7l-.3-.3-.1.4zm-6-3.5l.2.4.3-.4zm2.2-2.3l-.2.3.3.1zm-.1 3.8l-.3-.2v.4zm.4-4.2l.2.4.3-.4zm.9.6l.2.4.3-.4zm-2.3-1l-.3.2.4.2zm.4-1l-.4-.2v.4zm5.3 5.4v.5l.4-.2zm1.8.9l-.3.1.2.3zm-.8-.8l-.3.1.2.3zm6.7 3l-.3.1.2.3zm-1.4-.6l-.4.1.3.3zm-4.7.7l-.2-.3-.3.3zm5.6 5l-.2-.3-.3.3zm-6.2-6l-.2-.4-.2.4zm2.6-.6v.4l.5-.2zm1.6.4v.4l.5-.2zm1.8.9l-.3.1.2.3zm-1.3 2l-.2-.3-.3.3zm-4.4-.1v.4l.4-.2zm2-1.1l-.4.1.3.4zm3.4.9l-.2-.3-.2.3z"/></g><path d="M250.4 55.1s2.9 4.7 3.4 6.9a20.1 20.1 0 0 1 .6 4.9c0 4.2-.3 10.1-.8 13.4-1 5.7-3.7 9.1-6.9 10.1s-9-1.1-12.9-3.1c-3.3-1.7-5.2-3.5-5.7-5.6-.5-2.2-1.5-5-1.5-5l.2-6.5.1-18.2 23.5 3.1z" fill="#ea9d7d"/><linearGradient id="B" gradientUnits="userSpaceOnUse" x1="240.91" y1="61.66" x2="237.23" y2="53.15"><stop offset="0" stop-color="#bc5a32" stop-opacity="0"/><stop offset=".99" stop-color="#bc5a32"/></linearGradient><path d="M231.8 65.3s1.6-2.3 5.2-3.8c7.1-2.9 15.8-1.8 15.8-1.8l-.7-1.8-23.1-3.8-.5 8.5 3.3 2.7z" fill="url(#B)"/><ellipse cx="224.4" cy="75.6" rx="5.3" ry="5.7" fill="#ea9d7d"/><path d="M224.4 81.7c-3.2 0-5.8-2.8-5.8-6.1 0-3.4 2.6-6.1 5.8-6.1s5.8 2.8 5.8 6.1c0 3.4-2.6 6.1-5.8 6.1zm0-11.4c-2.7 0-4.9 2.4-4.9 5.3s2.2 5.3 4.9 5.3 4.9-2.4 4.9-5.3a5 5 0 0 0-4.9-5.3z" fill="#b76349"/><linearGradient id="C" gradientUnits="userSpaceOnUse" x1="224.49" y1="78.92" x2="224.83" y2="73.59"><stop offset="0" stop-color="#cc7a5e" stop-opacity="0"/><stop offset=".92" stop-color="#aa5f4b"/></linearGradient><ellipse cx="224.7" cy="75.6" rx="2.4" ry="2.5" fill="url(#C)"/><path d="M230.3 72l-1.7 1.5-.7 5.6.3 1.6s2.4-1.3 2.6-3.9c.2-2.5-.5-4.8-.5-4.8z" fill="#ea9d7d"/><path d="M243.4 90.8c-1.1 0-2-.2-4-.7a26.5 26.5 0 0 1-10-5.5c-2.2-2.2-2-4.3-2-4.4 0-.2 0-.5.2-.5s.3.2.4.4c.1.4.1 2.1 1.9 3.9a25.8 25.8 0 0 0 9.6 5.3c3.1.7 3.7.9 6 .7 2.2-.2 3.5-1.1 3.5-1.1.3-.2.6-.3.4 0-.2.2-1.8 1.5-3.8 1.8-.9.1-1.6.1-2.2.1z" fill="#b76349"/><g fill="#f4b9a6"><path d="M243.8 75.7l.7-.5-1-.4zm-8.8-.4l-.2-.5-.5.6zm11.6 1l1 .6v-1.2zm-2.7-5.1l1.3.8.3-1.6z"/><path d="M243.9 70.4l1.3-.8-1.3-.9zm3.1 9l1.3-.8-1.3-1zm1.2-1.6l.5-1.5h-1.6zm-4.7-3l-.8.2.5.8zm.5-1.1l-.8.2.5.7zm-.1 4.3l.3.8.7-.6zm.4 1.5l.7.5.2-.9zm4 2.5l-.8.2.7.7zM245 64.9l-.2.6.8-.1zm.9 4.9l-.8-.1.4.7zm.6-2.5l-.6-.1.2.8zm-5.7 1.5l-.1.8.9-.3zm1.9-1.4l-.7.4.8.5zm-3.3 1.1l-.5.1.3.4zM247 82l-.8.2.5.6zm-.8-.4l-.7.2.5.6z"/><path d="M240.2 77.1l-.7.1.4.7zm1.7 1.4l-.7.1.4.6zm-2.3-3.6l-.1.7.7-.3zm3.6-.8l-.3-.6-.6.6zm7.3 5.8l.3-.4-.6-.1zm-2.9-2l.5.1v-.5zm4.5-4.6v.4l.5-.2zm-2 2.3h.5l-.2-.5z"/><path d="M252.4 74.1l.1-.5-.6.1zm-14.7-3.9l-.2.5h.6zm6.6-3.2l.8-.2-.6-.7zm.8 10.3l1.9-.5-1.5-1.5zm-1.3-6.8l-.7-.1.1.7zm-5.2 4.9v-.7l-.8.4zm4-6.9l.1.9.8-.5zm-1.1 1.5l.1.9.8-.5zm.9-.6l.1.9.8-.5zm7.5-.9l.7.3v-.7zm-6.1 4.4l-.4-.6-.4.7zm3.5 8.3l-.7.2.5.5zm-3.1-4.4l-.3.5h.8zm.7 3.5l-.3-.5-.4.6zm1 .5l.4-.4-.6-.2zm.2-1.2l.6-.5-.7-.3z"/><path d="M246.1 78.8l.5-.4-.7-.4zm-.5-3.1l.6-.4-.7-.3zm-1.3.3l.4.4.3-.6zm5.9 4.7l-.5.1.4.6zm-3.1-5.6l-.2.5h.6zm1.6 6.1l-.4-.5-.3.6zm-3.5 2.1v.6l.7-.4zm-1.8-3.3l-.5.2.4.4zm-6.3-6.7l-.3-.4-.4.6zm6.7 8.2l.5.2.1-.6zm-1.8-1.1l.5.2V80zm-3.1.8l-.2.5.6-.1zm2.1 2.2l-.5-.1.2.6zm-2 .7l-.5-.1.1.7zm5.6-9.4l1.3-.3-1-1zm-.8-2.7l.3.4.4-.5zm0 1l.7.9.7-1.1zm3.4-2l-.7.7 1.1.4zm-7.4 2v-.6l-.6.3zm6.3-.5l-.4.4.7.2zm-2.2-3.4l.7-.2-.6-.6zm4.5 1.5l.7-.2-.6-.6zm-4.9.1l.7-.2-.5-.6zm5-3.4l.7-.2-.5-.6zm-2.5-1.6l-.4.4.6.2zm-5.4 2.1v-.5l-.6.3zm.8 8.8l-.1.9.9-.4zm-1.2-.3l-.6.1.4.6zm1.6 3.1l-.1.7.8-.3zm1-3v.8l.9-.5zm-.7 1.5l.1.9.8-.5zm-.9-2.2v-.6l-.6.3z"/><path d="M250.1 70.9l.6-.2-.5-.6zm-2.7-2.3l.3.4.5-.5zm5.3 8l.6-.2-.5-.5zm-10.8-8.9v-.5l-.6.3zm4.2 1.3l-.1.6.9-.2zm-.9-1.3v.6l.8-.2zm.6 6.6l1.2.8.3-1.5zm2.9.1l1.3-.5-.9-1.2zm-3.2.6l.4.1-.1-.4zm-.6-2.8l-.2.5h.7zm1.1-1.5l-.6.1.4.6zm2.2.3l-.7.1.5.6z"/><path d="M245.6 72l1.5-.8-1.6-1zm2.2-5.7l.4-.7-1.1-.1zm-1.2 11.4l.4-.7h-1zm-1.2-3.7l1.3-.8-1.4-.9zm.8-6l.4.4.3-.6zm1.5 1.2l-.6 1 1.5.1zm1.1-1.5l-.3.5h.7zm.6 4.4l.5.3.2-.5zm-1.9-5l-.3.5h.7zm-8.8 5.9l-.7.2.6.6zm1-3l-.3.6h.8zm1.5 0l-.2-.6-.5.5zm-.8 3.2l-.2-.5-.5.4z"/></g><g fill="#a84d3b"><path d="M241.6 58.6l-.1.3h.4zm.2 1l-.2-.3-.2.5zm2.6-.7l-.3-.3-.2.5zm3.2-.6l.4.3.1-.5zm2.1.1l.4.3.1-.5zm-.9.3l.4-.2-.3-.3zm-6.5-.2l-.2-.3-.2.4zm3.8.2l-.2-.3-.2.4zm-5 .5l-.3-.2-.1.4zM230 55.3l.1 1 1-.6zm6.1 3.1l-.2.5.6-.1zm-1 1.4v.5l.6-.2zm-.2-.7v.6l.5-.3zm-2 2.3v.6l.5-.3zm5.4-3.1l-.6.1.3.5zm-1.8.1l.4.6.5-.6zm6.8-.1l.2.5.4-.5zm-2.4.2l.2.4.3-.5zm-7.6-.6l.3.8.6-.6zm11.4.4l.3.5.4-.5zm-4.9 0l.2.6.5-.5zm-1.4.8l.4.2v-.5zm-4.1 3.2l-.1.4.5-.1zm-.7-.7l-.2.4.6-.1zm3.9-2.6h.3l-.1-.3zm5.1-.3l.1.2.2-.2zm-9 4.3l-.3.2.3.2zm-.5-3.3l.1.8.7-.5zm.6 2.9l-.4.1.4.3z"/><path d="M233.4 62.7l-.2-.5-.4.5zm2.3-2l.4.2v-.5zm-.5-2.1l.4.3v-.5zm-.5 1.7v.4l.4-.1zm3.7-1.5h.4l-.1-.4zm-4.5 5.2v.4l.4-.2zm.7-2.6l-.3.1.2.3zm-1.6-3.8l-.3.1.2.3zm-.3 5.6v.7l.7-.5zm.6 1.1l.4-.4-.6-.1zm-.4.7l.4-.4-.6-.2zm4-5l.3.2.1-.4zm-4.2 5.6l.3-.2-.4-.2zm3.2-5.9l.3-.3-.4-.2zm-3.3-.9l.1.9.7-.4z"/><path d="M232.9 58.5l.1.8.8-.3zm-1.2-.9l.1.8.7-.3zm.3-.8l.1.7.7-.2zm1.3 4.1l.4.3.1-.5zm1-2.7l-.1.8.9-.2zm-.5 2.3l.3.2.2-.4zm-1.6-1.9l.3.2.2-.4zm7.2.5l.4-.2-.4-.3z"/><path d="M246.8 58.6l.4.2v-.5zm-13.9 2.6l.7-.2-.8-.6zm-2-5l-.3.7h.9zm4.4 5.9h-.4l.1.4zm-5.3-7.2l-.5.2.5.3zm1.5 1.3l-.1.4.5-.1zm.4 1l-.7-.2.1.8zm3.2 2.9h-.4l.2.4z"/><path d="M233.6 60.8v.4l.4-.1zm.9-1.5l-.5-.3-.1.7z"/></g><g fill="#964c38"><path d="M227 76.1v-.3l-.4.1zm-1.7-2.9l-.5.1.3.4z"/><path d="M225.2 73.3l-.5.6.8.2zm-.9-.1l-.6.2.5.5zm2.6 1.5l-.3.2.4.2zm-1-.5l-.2.3.3.1z"/><path d="M226.6 74.9l-.2.3.4.1zm-2.3-.8l-.2.2.4.2z"/><path d="M223.9 73.8l-.4.5.7.2zm1.6 1.8l.3.2v-.3zm1.1-1.2v.2h.3zm.3.9l-.1.2h.2zm-3.6-1.7l-.4.5.6.1zm.8 1.6h-.2l.1.2zm.6.8l-.1-.2-.2.2zm.7-2.4l.3-.3-.4-.1z"/><path d="M224.3 73.6l-.3.3.4.1zm-.5.3l-.4-.2v.4z"/><path d="M223.8 73.9v-.4l-.3.1zm2.3.4l.3.3.2-.3zm-.3-.9l-.1.7.7-.2z"/><path d="M225.5 73.9l.2.2.2-.4zm-2.5.9l-.1.3h.3zm1.9-1.6l-.3-.1v.3zm-.6 1.8l.2.3.2-.4zm.8 1.2l-.2.3.4.1zm-2.1-2.1l-.2.3.4.1z"/><path d="M223.9 76.3l-.3-.1.1.3zm-1.1-1.6l.3-.1-.2-.3z"/><path d="M222.4 75.8h.3l-.2-.3zm.2-1l.3-.1-.1-.2zm.7-.3l.1.3.3-.2zm-.9.8l.4.1-.2-.4zm.5.1l.1.3.3-.2zm2-1.2l-.2.2.2.2zm1.5 1.5l.1.4.3-.3zm-2-2.2v.4l.4-.3zm1 1.1l-.2-.2-.2.3z"/></g><path d="M238.2 68.6c-.1 0-.3 0-.4-.1-.3-.2-.4-.7-.2-1 .1-.1 1.7-2.5 5.3-2.2.4 0 .7.4.7.8s-.4.7-.8.7c-2.7-.2-3.9 1.5-3.9 1.6-.2.1-.4.2-.7.2zm14.8-2.1c-.1 0-.3 0-.4-.1-.8-.6-2-.2-2.1-.2-.4.1-.8-.1-.9-.5s.1-.8.5-.9c.1 0 1.9-.6 3.3.4.3.2.4.7.2 1-.1.1-.3.3-.6.3z" fill="#7a3e2b"/><g fill="#4f2b23"><circle cx="241.9" cy="72" r="1.4"/><circle cx="252.3" cy="71.2" r="1.4"/></g><path d="M247.6 80.4c-.3 0-.6-.2-.7-.6s.2-.8.6-.8c0 0 1.1-.2 1.2-1.1s-.8-3.4-1.3-4.7c-.2-.4 0-.8.4-.9.4-.2.8 0 .9.4.2.4 1.5 3.8 1.4 5.4-.1 1.5-1.5 2.3-2.3 2.4-.1-.1-.1-.1-.2-.1z" fill="#b4603f"/><path d="M244.2 84.6h0a6.1 6.1 0 0 1-5.8-4.4c-.1-.4.1-.8.5-.9s.8.1.9.5a4.6 4.6 0 0 0 4.4 3.3c.4 0 .7.4.7.7.1.5-.3.8-.7.8z" fill="#cf7653"/><g fill="#4f211e"><path d="M225.9 50.5c-4.7 2.8-6.2 7.7-6.3 13.6s.7 7.2.7 7.2 2-2.2 4.8-1.7c2.4.3 3.6 2 4 2.4.3.2.6 2.2 1.1 2.7.7.8 1.9.4 2-.9.2-2.1.2-8.6 6.6-12.6.6-.4 11-2 11-2s2.4.8 3.3 1.9 1 2.7 1 2.7c1.4-2.1-.3-8.8-2.9-11.1-2.7-2.5-7.7-4.4-12.8-4.6-5-.3-9.2.3-12.5 2.4z"/><path d="M219.2 61.3s-6.1 1.6-6.6-4.1c-.4-5.7 5.8-5.5 5.8-5.5s-4.9-3.1-1.9-7.1c2.9-3.8 7-.4 7-.4s-3-5.2 1.3-7.5c3.8-2.1 6.7 2.1 6.7 2.1s-.9-5.5 3.9-6c5.4-.6 5.1 5.3 5.1 5.3s1.9-5.2 6.9-3.2c4.2 1.7 2.3 6.7 2.3 6.7s3.8-3.1 7.2.7c3.4 3.7-.3 8.5-3.4 8.5-1.7 0-1.6 1.6-1.6 1.6l-26.4 8.7-6.3.2z"/></g><path d="M219 61.2s-.7 1.4-.3 5.2c.4 3.7 1.5 4.8 1.5 4.8s8.6-6.2 17.9-8.6c10.6-2.8 16.6-2.8 16.6-2.8s1-2.5.6-5.3-1.5-3.9-1.5-3.9-8.7.3-18.1 3.2c-9.5 3-16.7 7.4-16.7 7.4z" fill="#fff"/><g fill="#724539"><path d="M229.4 36.7l-1.5-.5V38z"/><path d="M228.1 36.2l-1.6-.1.5 1.4zm2.6 3.3l-.2.5h.6zm-6.1 5.6l-.4.3.4.3zm-.1-2.6l.6.7.4-1zm6.1-4.8l-1.2-1-.5 1.7zm.1 1.4l.6-.6-.6-.8zm-1.3 1.1l.7-.6-.9-.3zm2.1-.9h-.5l.3.6zm.9 1.1l-.1-.5-.5.3zm-3.9 2.4l-.1-.6-.5.4zm2.1-1.8l-.4-.2v.6zm-14.9 5.9h1.8l-1.5-1.2zm9.8-1.6l-.4.4.6.2zm1.8-7.1l-1.1.9 1.4.7zm-2.4 5.9l-.4-.4-.2.6zm4.1-2.9l-.6-.5-.2.9z"/><path d="M223.4 46.4l-.6-.5-.2.8zm-5.3-1.6l.5 1.2 1-1.1zm9.1-6.8l.5 1.1.8-.9zm2-.6l.2.7.6-.6zm.4 1.5l.3.6.5-.6zm-16.1 14.9l-.6 1.4h2zm.5 3l.3 2 1.4-1.5zm3.4-.4l.3.6.5-.5z"/><path d="M213.9 58.8l.3.6.5-.5zm-.7-2.2l.3.6.5-.5zm2.5-.2v1.2l1.5-.6zm7.5-13.3l.4.9.7-.9zm-3 3l-.4-.4-.2.6zm.1 1l-1-.9-.1 1.3zm.4 1.5l-.6-.5-.1.8zm4.8-7l1.1-.1-.6-1.1zm.6 2.6l.2.5.4-.4zm-8.3 9.5l.1.5.5-.3zm3.1.5l.1.5.5-.4zm-4.3-1.4l.2.5.5-.4zm3.3 2.6l-.6.1.4.5zm-1.1 2.4l-.5.1.3.5zM222 52l-.6.1.4.6zm-1.3-1.8l-.5.1.4.5zm-2.4 4.5l-.6.1.4.5zm-1 .7l-.5.1.4.6zm-4.5-.1l-.1 1.4 1.9-.5zm4.4 2.8l.2.5.4-.4zm-.3.2l-.6.6.9.4zm.8 2.1v.7l.8-.2zm10.6-21.5l.3.7.8-.6zm-3.3 1.5l1.5-.1-.8-1.4z"/><path d="M225.5 38.7l1.2-.1-.6-1.3zm3.8-.8l-.8.5.9.6zm-12 18.8l.4-.1-.3-.4zm-1.4-3.1l.5 1.1.9-1zm1.2-1.9l.5 1.1.8-1.2zm3.4-.5l-.2.3.4.1zm3.1-5.8l-.2.3.4.1zm-1.7-.6l.2.3.2-.4z"/><path d="M221.6 47l-.2.2.4.2zm-1.8 10.6l-.2.3.4.1zm-1.7-2.1l-.2.3.4.2zm.6 4.1l-.2.3.4.1zm1.2-.5l-.2.3.4.2zm-.7-5.6l.3.3.2-.5zm-2 1.7l.5-.9-1.1-.2zm5.1-5.5l-.2.3h.4zm-1.6-.4l-.2.3h.4zm1.4-1l-.2.4h.4zm-2.6 2.7l-.2.4h.4zm9.5-11.4l-.6-.2.1.8zm-2.4 2.8l.7.2-.1-.8zm-6.4.4l.3 1.2.8-1.1zm-5 9.8l.5.5.2-.7zm-1.1 4l1 .4-.1-1.2zm-.4-2.9l1 .4-.1-1.3zm10.7-14.4v.5l.6-.2zm-.8.1v.6l.6-.2zm2.5 2.2l-.9.2.7.9z"/><path d="M227.2 39.8l-.6.2.4.5zm-3-.9l.2-1.1-1.2.4zm.7 1.3l-1-.4V41zm-1-.9l-.8-.9-.5 1.3z"/><path d="M223.6 40.8l.1-1.1-1.1.5zm2.9-2.4l.6-.2-.4-.6zm-1 .1l-1 .1.5 1zm-1.7-1l.4.7.5-.7z"/><path d="M227.6 37l-1 1 1.5.7zm-11.2 20.3l.3.9.7-.8zm-1.2-4.8l-.4.3.4.2zm1 6.7l-.4.3.5.2zm.4-.8l-.4-.4-.1.6zm-2-3.2l1.3-.1-.8-1.3zm2.2-5.2l.6.7.4-1zm-2.5 5.2l.2 1.3 1.2-.9z"/><path d="M215.4 54.7l.3 1.4 1.2-1.1zM217 49h-.9l.6.9zm0 2.8l-1.2.3.6.7zm.7-5.7l-1 1.1.9.6zM213.2 59l1.3-1.2-1.8-.8zm.4.6l1.1 1.1.6-1.7zm3.2-3.8l-.6.5.8.4zm-2.1 2.5l1.3.7v-1.2z"/><path d="M217.6 59.5l.3.4.3-.4zm-.6-.1l-.3.3.4.2zm4.4-14.5l-.3.7.8.1zm2-.9l-.3.6.8.1zm-1.7-.2v.7l.7-.4zm-2.2-.1l-.4.6.8.1zm-1.7 1l-.8 1.4 1.3.1zm3.5-1.8l-.3.5.6.1z"/><path d="M220 45.1l-1 .1.5 1.1zm.6-1.1l.7.3v-.9zm-5.7 9.7l1.2.6v-1.5zm2.3-4.8l1 .4-.1-1.1z"/><path d="M225.8 43.5l.4.2v-.5zm-2.1-.4l.4.1v-.4zm-.3-.6l.6.3.1-.8zm-5.9 5.3l.7.8.3-1.3zm2.6-4.1l-.4.8 1 .1zm-1.3 1v-.8l-.9.4z"/><path d="M218.9 44l-.1-1.1-1.2.6zm2.3.4l-.5-.1.2.5zm-1 0l-.3.7h1zm-1.2 1.8l-1-.2.1 1.2zm-1.9 14.5l.2-.5h-.6zm-1.2-.1l.4-1-1.3.1z"/><path d="M216.2 61.1l.9.1-.4-1zm-.9-.2l.8.3v-1zm.7-12.1l1.4.2-.1-1.2zm.6-4.3l-.5 1.1h1.4z"/><path d="M217 47.2l-.5 1.3 1.2-.2z"/><path d="M215.7 47.5l.2 1.1.9-.7zm4.4 0l-.8.2.5.7zm8-7.8l-.9.1.7.9zm-1.7-.1h.6l-.3-.5zm-1.2-3.2l.7.9.6-1.2zm1.3 3.9l.3 1 .8-.8zm-2.5-3l1.1.6v-1.4zm-1.1 4.8l1-.8-1.2-.6z"/><path d="M227.8 41.1l-.6.1.4.6zm-.7 2.3l-.5.1.4.5zm-8.1 4.7l-.5.1.4.4zm-.3-5.1l.8.8.5-1.1zm6-5.2l1.5.5-.3-1.7zm-8 6.7l1.4.5-.5-1.5zm5.1 2.2l.5.2v-.7zm.7-1.2l.6.1-.1-.6zm1.2-3.3l.6.5.3-.8zm.6-1.4l-.1.7.8-.2zm-1.2.2l.5.5.3-.8zm-.2 1.2l.2.8.7-.6zm-.5 1.2l-.7-.4.4.8zm1 .5l-.8-.5.3 1zm1.6-.8l-.5.1.3.4zm-4 5.4l.5.2-.1-.6z"/><path d="M220.5 45.5v.8l.8-.3zm-1.3 2l-.5-1-.5 1.2zm.2 2l.3.6.4-.6zm-.6-1.7l-.3.6.8.1z"/><path d="M218.5 48l.4.2v-.6zm-.1.6l-.5 1.1 1.3-.2zm-.8 2.3l.6.2-.1-.6zm2.8-3.7l.8.3-.1-.9zm-1.5 5.9l.6.2-.1-.6zm-1.3-.1l.6.2-.1-.7zm.6-.9l.6.2-.1-.6zm1-3.3v.5l.4-.2zm32.1-8.1l1 1.7.4-2zm3.3 1.2l-.9 1 1.4.4zm-.3 2.4l.1-.6-.6.2zm-1.4.5l.3-.9-.8.4zm3.3.5l-.1.3h.4zm-2.1.7l-.4-.1.1.4zm-2.6.1h-.4l.2.4zm1.5.9h-.4l.2.4z"/><path d="M257.4 42.9l-1 .8 1.3.2zm-7.3-.5l-.3-.9-.7 1zm5.8 2.5h-.7l.3.8zm1.2-.2l-.6.3.7.5zm-.9-2.1h-.7l.2.7zm-1.7-1.1l-1.7-.1.5 1.3zm3.7 2.9l-.7-.1.2.6zm-3.1-.7l-.5-.9-.8 1z"/><path d="M250.4 43.1l.1 1.1 1-.6zm6.1.1h-1l.4.9zm-1.6-.7l.8-.4-.8-.6z"/><path d="M255.5 42.5l1-.6-1.1-.8zm.9 2l-.2-.5-.4.4zm-.6-.9h-.8l.5.9zm-2.1-.3l-.4-1-1 .6zm-3.8-1.6l.4 1.3 1-.6zm4.2-1.3l-1.2-.1.6 1.4z"/><path d="M251.8 41.9l-1.5.1.7 1z"/><path d="M250.9 40.9l-.9.6 1 .6zm3 2.9l-.5-.6-.5.8zm-2 .3l-.3-.4-.3.5zm4.7-2.3l-.5 1h1.3zm-2.5-1.2l.2 1.5 1.2-1.1zm.3 5.4l.1.6.6-.3zm3.9-.2V45l-.6.7zm-6 .3l.1.5.5-.3z"/><path d="M254.7 44.2l-.8.3.7.6zm-2.5-1l.6-.9-1.4.1zm-.2.6h-.7l.3.7z"/><path d="M251.7 43.6v.4l.5-.2zm1.6 1.4l.1.8.8-.5zm-2-.5l-.5.2.4.4zm-25.9-3.6l-1.1-.2.4 1.3zm0 3.5l-.5.1.3.4zm-6.4 5.8l-.5.1.3.4zm24.9-15.6l.9 1.7.5-1.9zm3.1 1.5l-.9.9 1.3.5zm-.4 2.4l.2-.6-.7.1z"/><path d="M245.9 39l.4-1.3-1.2.5zm-1.6.9l.2-.8-.8.3zm-2.6.7l-.4-.1.1.4zm-3 2.2l-.4-.1.1.4zm9.8-1.4l-.3-.1v.5zm-.1-1.8l-.1.3h.4zm-2.2.5l-.3-.1v.4zm-2.3 1.7h-.4l.1.3zm-1.7.4h-.3l.1.4zm1.4-2.1h-.4l.2.4zm1.5 1h-.4l.2.3zM227.8 45l-.4.2.3.3zm3.3-3.1l-.3.2.3.3zm-.1 4l-.3.2.3.2zm-2-2.4l-.3.2.4.2zm1.8-.1l-.3.2.3.2zm-5.3 6l-.3.2.2.3zm1.7-1l-.3.2.3.2zm-1.2-1.2l-.3.2.3.2zm1.8-.1l-.3.2.3.2zm5.9-6.9l.2.6.4-.5zm-.3-.7l.4.2v-.4zm1.2 0h-.4l.3.5zm.7 1.6l-.3.1.3.3zm2.5-.4l-.3.2.3.2zm-1.2-1.2l-.3.2.3.2zm1.8 0l-.3.2.3.2zm2.4-.7h-.4l.1.3zm9.1-1.6l-1.1.8 1.3.3zm-8.7-.3l-.4.8h1.1zm1.2-.2l-.4-.9-.7.9zm3-.7l-1.5-.6-.2 1.1z"/><path d="M248.1 39.2h-.7l.2.7zm-3.2 1.2l-.8-.1.3.7zm5 .5h-.7l.2.8zm-.5-1.9l-.7.3.7.6zm-.8-2.1l-.7-.1.2.8zm-1.7-1.1l-1.6-.3.4 1.3zm3.2 2.6l-.7-.1.2.6zm-2.7-.4l-.4-1-.9.9z"/><path d="M248.8 38.1l-.1.8.9-.4zm-6.2-1.3v1l1.1-.5z"/><path d="M243.8 36.7l-.5.8 1.4-.1zm5 .8l-.9-.1.3 1zm-1.5-.8l.9-.3-.8-.7z"/><path d="M248 36.5l1.1-.5-1-.8zm.6 2.3l-.1-.4-.4.3zm-.4-.9l-.9-.1.4 1zm-2.4-.6l-.3-1.1-1.1.6zm-3.5-1.7l.3 1.4 1.1-.6zm4.3-1l-1.2-.2.5 1.3z"/><path d="M244.2 36h-1.5l.7 1z"/><path d="M243.4 34.9l-1 .6 1.1.6zm1.7 4l-.5-.7-.5.8zm-1-.8l-.2-.4-.3.5zM249 36l-.5 1h1.3zm-2.3-1.4l.1 1.5 1.3-1zm-.1 5.6v.6l.6-.3zm1.8 1.8v.6l.6-.3zm-.3-1.6v.6l.6-.3zm1.6 2.6v.5l.6-.3zm.4-3.5v-.7l-.6.6zm-.2 1.1l.2-.9-.9.7zm-5-1.2v.6l.5-.3zm2.3-.8l-.8.3.7.6zm-2.4-.5l.7-.9h-1.4zm-1.9.9l-.4.5.6.1zm-1.6.1l-.4.5.7.1z"/><path d="M244.3 37.8h-.7l.2.8z"/><path d="M244 37.6v.5l.5-.3zm-.6.2l-1.3-.1.7 1.2zm-2.6.1l.1.6.6-.3zm4.7 1.2l.1.8.8-.4zm-2-.6l-.5.2.4.4zm-1.4.4l-.3-.4-.3.5zm-11.8 3.8l-.3-.3-.3.4zm1-2l.2-.5h-.6zm1.6 2.7h-.3v.4zm-1.3-.1l-.3-.1.1.4zm-.3-1.7h-.3l.1.4zm2.9 2.3h-.4l.2.3zm-1.5-2.2l.1-.5-.6.2zm1.2-8.5l1 1.6.3-2zm3.2 1.1l-.8 1 1.4.3zm-.1 2.4l.1-.6-.7.2zm-.9.5l.3-1.3-1.2.6zm-1.1 1.2l.1-.9-.7.4zm-2.4 1l-.4-.1.1.5zm6.6 0l-.4-.1.1.4zm6.8 4l-.4.2.4.2zm-1.7.3l-.3.2.3.2zm.5-1.5l-.3.2.3.2zm1.7 0l-.3.2.3.2zm.8-.1l-.3-.1v.4zm-1.1.4l-.3-.2-.2.4zm1.4 2l-.3-.2-.1.4zm1.4 0l-.4-.2v.4zm.1-.8l-.6-.3-.1.7zm1.6.7l-.2.6h.6zm-2 2.6h-.4l.2.3zm-.5-1.6h-.4l.2.3z"/><path d="M249.7 46.1l-.3.1.2.3zm.8.3l-.3-.2-.1.4zm-11.6-8.9l-.1.4h.4zm-2.1.8h-.3l.1.4zm-2 1.9l-.3.1.1.3zm-.4-1.5h-.4l.2.3zm1.4.8h-.3l.2.3zm-3.6-1h-.3l.2.3zm7.8-3.4l-1 .9 1.3.1zm-8.1.5l-.3.9 1-.1zm1-.3l-.4-.8-.6 1zm2.8-.7l-1.4-.4-.1 1.1zm2.8 2.6h-.6l.3.8zm-6.2.4h-.6l.3.8zm7.4-.7l-.6.4.7.4zm-1-2h-.7l.3.7z"/><path d="M237 33.9l-1.6-.1.5 1.3zm3.3 2.2h-.7l.3.6z"/><path d="M237.8 36.1l-.6-.9-.7 1zm1.2-.1v.8l.8-.4zm-6-.5l.1 1 1-.6z"/><path d="M234.2 35.2l-.4.9 1.3-.2zm4.8.3h-.9l.4.9zm-1.5-.7l.7-.4-.7-.6z"/><path d="M238.2 34.5l1-.6-1.1-.7zm.7 2.2l-.1-.4-.4.4zm-.5-.8h-.8l.5.9zm-2.1-.2l-.3-1-1 .7zm-3.7-1.4l.5 1.3.9-.6zm4-1.5h-1.1l.6 1.3z"/><path d="M234.4 34.5l-1.4.2.8.9zm-.8-1.2l-.8.7 1 .5zm2 4l-.5-.7-.4.9zm-1-.7l-.3-.3-.2.4zm4.6-2.7l-.5 1 1.2.1zm-2.5-1.1l.2 1.4 1.1-1.1zm.5 5.6l.1.6.5-.4zm1.4 0l.1.6.5-.4zm1.9-1.1l-.1-.7-.5.7zm0 1.2v-1l-.7.8zm-5.3.1v.5l.5-.3zm-12.9 12.3l.5.2v-.6zm-.7-.2l.4-.2-.4-.3zm.7-1l-.2.4h.5zm1.9 2.1l-.1.3h.4zm1-3.8v.3l.3-.1z"/><path d="M223.6 48.2l-.1.3.4-.1zm1-1.4v.3l.3-.1zm.4-.7l-.2.2.3.2zm-2 3.9l-.2.3.4.1zm-1.5-.6l-.2.3.4.1zm1.6-.7l-.3.3.4.1zM223 47l.6.3v-.6zm.9-1.1l.5.3v-.6zm-2 2.8l.5.3v-.6zm15.7-12l-.7.4.7.5zm-2.3-.2l.6-.9-1.3.1zm-1.8 1.1l-.3.5.7.1zm1.3-1.3h-.7l.3.8z"/><path d="M234.5 36.1v.4l.5-.2zm-.6.3h-1.2l.8 1.1zm-2.3.4l.1.5.6-.3zm4.5.6l.1.8.7-.5zm-2-.3l-.4.2.4.3zm-1.3.5l-.3-.4-.3.5z"/></g><path d="M238.1 59.5c-8.9 2.5-15.8 6.8-19 8.9.5 2.1 1.1 2.8 1.1 2.8s8.5-6.1 17.9-8.6c10.6-2.8 16.6-2.8 16.6-2.8s.6-1.4.7-3.4c-2.6.1-8.8.7-17.3 3.1zm-.6-2.8a98.9 98.9 0 0 1 17.7-3.3c-.5-2-1.3-2.8-1.3-2.8s-8.7.3-18.1 3.2c-9.4 3-16.6 7.3-16.6 7.3s-.5 1.1-.4 3.7c3.3-2 10-5.8 18.7-8.1z" fill="#ffc408"/></svg>