<svg xmlns="http://www.w3.org/2000/svg" viewBox="0 0 480 480" xmlns:v="https://vecta.io/nano"><path d="M226.2 79l-7.5 24.5-2.2 5.7s3.2 4.1 10.8 5.7c5.2 1.1 8.7 1.2 11 1 1.9-.2 4.2-.6 3-4.1-1.7-5.2-1.1-8.5-1.1-8.5l2.7-14.7-16.7-9.6z" fill="#ea9d7d"/><linearGradient id="A" gradientUnits="userSpaceOnUse" x1="229.27" y1="95.88" x2="236.14" y2="87.03"><stop offset="0" stop-color="#bc5a32" stop-opacity="0"/><stop offset=".99" stop-color="#bc5a32"/></linearGradient><path d="M225 92.2a26.6 26.6 0 0 0 9.4 8.2c3.5 1.7 6 2.1 6 2.1l2.2-12.2L226.1 79l-.9 1.7-.7 2.8s-1.8 5.2.5 8.7z" fill="url(#A)"/><path d="M250.5 55s2.9 4.7 3.4 6.9a20.1 20.1 0 0 1 .6 4.9c0 4.2-.3 10.1-.8 13.4-1 5.7-3.7 9.1-6.9 10.1s-9-1.1-12.9-3.1c-3.3-1.7-5.2-3.5-5.7-5.6-.5-2.2-1.5-5-1.5-5l.2-6.5 7.7-16.4 15.9 1.3z" fill="#ea9d7d"/><linearGradient id="B" gradientUnits="userSpaceOnUse" x1="241.43" y1="65.86" x2="238.44" y2="58.92"><stop offset="0" stop-color="#bc5a32" stop-opacity="0"/><stop offset=".99" stop-color="#bc5a32"/></linearGradient><path d="M230.6 73.1s5.8-6.5 9.5-7.9c7.1-2.9 14-2.6 14-2.6l-1.1-3.5-17.7-.9-7 10.8 2.3 4.1z" fill="url(#B)"/><ellipse cx="224.5" cy="75.5" rx="5.3" ry="5.7" fill="#ea9d7d"/><path d="M217.1 109.4h-.1c-.2-.1-.3-.3-.3-.5l4.7-14.4c.9-3 3.6-13.1 3.6-13.1.1-.2.3-.3.5-.3.2.1.3.3.3.5l-3.6 13.1c-.8 2.7-4.7 14.3-4.7 14.3-.1.3-.2.4-.4.4z" fill="#cf7653"/><path d="M224.5 81.6c-3.2 0-5.8-2.8-5.8-6.1s2.6-6.1 5.8-6.1 5.8 2.8 5.8 6.1-2.6 6.1-5.8 6.1zm0-11.4c-2.7 0-4.9 2.4-4.9 5.3s2.2 5.3 4.9 5.3 4.9-2.4 4.9-5.3-2.2-5.3-4.9-5.3z" fill="#b76349"/><linearGradient id="C" gradientUnits="userSpaceOnUse" x1="224.59" y1="78.83" x2="224.93" y2="73.51"><stop offset="0" stop-color="#cc7a5e" stop-opacity="0"/><stop offset=".92" stop-color="#aa5f4b"/></linearGradient><ellipse cx="224.8" cy="75.5" rx="2.4" ry="2.5" fill="url(#C)"/><path d="M230.3 71.9l-1.7 1.5-.7 5.6.3 1.6s2.4-1.3 2.6-3.9c.2-2.5-.5-4.8-.5-4.8z" fill="#ea9d7d"/><path d="M243.5 90.7c-1.1 0-2-.2-4-.7a26.5 26.5 0 0 1-10-5.5c-2.2-2.2-2-4.3-2-4.4 0-.2 0-.5.2-.5s.3.2.4.4c.1.4.1 2.1 1.9 3.9a25.8 25.8 0 0 0 9.6 5.3c3.1.7 3.7.9 6 .7 2.2-.2 3.5-1.1 3.5-1.1.3-.2.6-.3.4 0-.2.2-1.8 1.5-3.8 1.8-1 .1-1.6.1-2.2.1z" fill="#b76349"/><g fill="#a84d3b"><path d="M229.2 85.6l.2.5.4-.4z"/><path d="M229.5 85l-.3.9 1-.1zm4.9 4.1l-.1 1.1 1.1-.4zm-2.6-1.8l-.2 1 1.1-.3zm-1.4-1.3l-.3 1.1 1.2-.3zm-1.6-2.1l-.5.9 1.2.1zm6.9 7.7l-.4-.6-.4.7zm-1.3-1.2l-.6-.8-.3.8zm4 2.4l-.7-.8-.3.8zm2.8 1.2l-.6-.8-.3.8zm-5-3.8l-.6-.4-.1.8zm1.2 3.1l-.5-.6-.4.7zm-3.6-4.3l-.7-.3-.1.8zm5.1 2.5l-.9-.5v1.2zm1.9.4l-.8-.1.2.9zm1.2 1.7l-.8-.1.3.8zm-2.8-.4l-.3-.7-.5.7zm2.3 2.5l.1-.8-.8.2zm-.4 1.3l.2-.8-.8.2zm-1.6-.2l-.4.3.5.3zm.6-3.8l-.5.3.5.3zm2.2-.6l-.5-.1.1.6zm-2.2 5.7l-.4.3.5.3zM230.9 87l-.5.4.6.3zm-3.1-4.8l-.4.4.5.3zm.2-1.2l-.4.3.5.3zm9.3 11.3l-.3-.3-.2.5zm-2.8-1l.2-.4h-.5zm1.4 1l.2-.4h-.5zm2 2.1l.1.5.5-.4zm3-1.8l-.4.3.4.2z"/><path d="M241.1 92.1l-.6.4.6.4zm-1.3.3l-.4.3.5.3zm0 7.2l-.4.2.4.3zm-1-1.2l.1.4.4-.3zm.1-2.4l.1.4.4-.3zm1.8 1l-.3-.2-.2.4zm-13.6-5.5l.2.2.2-.3zm1.9-1.2l-.2.2.4.1zm1.9 3.7l-.3-.1v.3zm-1-1.8l-.1.4h.4zm6.7 3.7l-.1.5.6-.2zm-.6-4.6v.5l.5-.2zm.1-1v.5l.5-.2zm-7.5-3.6l-.1.6.6-.2zm11.5 8.1l-.5.1.3.4zm-1.8 4.1l-.1-.4-.4.3zm.7-5.2l.2.4.4-.4zm1.5.7l.3.5.3-.5zm1.2-1.8l-.4.3.5.2zm-.8 3.1l-.4-.3-.1.6zm-10.8-9.6l-.6.4.7.4zm-2 .7l-.2-.3-.2.4zm-1.9-1.1l-.3-.3-.1.4zm-.8 3l.2-.3h-.4zm4-2l.2.4.4-.3zm-1.1-1l.2.6.6-.5zm0-2.9l-.4.6.8.1zM231 88l-.4.2.4.3zm.7-.3l-.3.1.4.3zm.8.4l-.3.2.3.3zm-1.6 2.6l-.3-.3-.1.4zm-5.8-3.8l.2.4.3-.4zm2.4-2.2l-.3.2.4.2zm-.4 3.8l-.2-.2-.1.4zm.7-4.2l.1.4.4-.4zm.9.7l.2.4.3-.4zm-2.3-1.2l-.3.2.4.2zm1.7-2l-.3.3.4.1zm-1.3 1l-.3-.2-.1.4zm5 5.8v.4l.4-.1zm1.8 1h-.4l.3.4zm-.8-.9l-.3.1.2.3zm6.5 3.5h-.3l.2.3zm-1.4-.8l-.3.1.2.3zm-4.7.5l-.1-.4-.3.3zm5.3 5.2l-.2-.3-.2.3zm-5.8-6.3l-.1-.4-.3.3zm2.7-.4l-.1.4.5-.2zm1.5.5v.4l.5-.2zm1.8 1l-.4.1.3.3zm-1.5 1.9l-.2-.3-.2.3zm-4.4-.4v.4l.5-.1zm2.1-.9l-.4.1.3.3zm3.3 1l-.1-.3-.3.3z"/></g><g fill="#f4b9a6"><path d="M243.8 75.6l.7-.5-.9-.4zm-8.7-.4l-.3-.5-.5.6zm11.6 1l.9.6.1-1.2zm-2.7-5.1l1.3.8.3-1.6z"/><path d="M244 70.3l1.3-.8-1.3-.9zm3 9l1.3-.8-1.3-1zm1.3-1.6l.5-1.5h-1.6zm-4.8-3l-.8.2.5.8zm.6-1.1l-.9.2.6.7zm-.2 4.3l.3.8.7-.6zm.4 1.5l.7.5.2-.9zm4.1 2.5l-.8.2.6.7zm-3.3-17.1l-.3.6.9-.1zm.8 4.9l-.7-.1.3.7zm.7-2.5l-.7-.1.3.8zm-5.8 1.5l-.1.8.9-.3zm1.9-1.4l-.7.4.8.5zm-3.2 1.1l-.5.1.3.4zm7.5 13.5l-.7.2.5.6zm-.8-.4l-.7.2.5.6z"/><path d="M240.2 77.1l-.7.1.4.6zm1.7 1.3l-.7.1.4.6zm-2.3-3.6l-.1.7.8-.3zm3.6-.8l-.2-.6-.6.6zm7.4 5.8l.3-.4-.7-.1zm-2.9-2l.4.1v-.5zm4.5-4.6v.5l.5-.2zm-2.1 2.3h.5l-.1-.5z"/><path d="M252.4 74l.1-.4h-.5zm-14.6-3.9l-.3.5h.6zm6.5-3.2l.9-.2-.7-.7zm.9 10.3l1.8-.5-1.4-1.5zm-1.4-6.8l-.7-.1.2.7zm-5.2 4.9v-.7l-.8.4zm4-6.9l.1.9.8-.5zm-1 1.6v.8l.9-.5zm.9-.6v.8l.9-.5zm7.4-1l.7.3V68zm-6 4.4l-.4-.6-.4.7zm3.4 8.3l-.6.2.5.5zm-3.1-4.3l-.2.5.7-.1zm.7 3.4l-.3-.5-.3.6zm1.1.5l.4-.4-.6-.2zm.2-1.2l.5-.5-.7-.3z"/><path d="M246.1 78.7l.6-.4-.7-.4zm-.4-3.1l.5-.4-.7-.3zm-1.4.3l.5.4.2-.6zm6 4.7l-.6.2.5.5zm-3.2-5.6l-.2.5h.7zm1.6 6.1l-.4-.4-.3.5zm-3.5 2.1l.1.6.7-.4zm-1.7-3.3l-.6.3.5.4zm-6.3-6.7l-.4-.4-.3.6zm6.7 8.2l.4.2.1-.6zm-1.8-1.1l.5.2v-.6zm-3.1.8l-.3.5.7-.1zm2.1 2.2l-.6-.1.2.6zm-2 .7h-.6l.2.6zm5.6-9.4l1.2-.3-1-1zm-.9-2.7l.3.4.4-.5zm.1 1l.6.9.8-1.1zm3.4-2l-.8.7 1.2.4zm-7.4 2v-.6l-.6.3zm6.3-.5l-.4.4.6.3zm-2.3-3.4l.7-.2-.5-.6zm4.5 1.5l.7-.2-.6-.6zm-4.8.1l.7-.2-.6-.6zm4.9-3.4l.7-.2-.5-.5zm-2.4-1.6l-.4.4.6.3zm-5.5 2.1v-.5l-.6.3zm.8 8.9l-.1.8.9-.3zm-1.1-.4l-.7.1.4.7zm1.6 3.1l-.1.7.7-.3zm.9-3l.1.8.8-.4zm-.6 1.5v.9l.9-.5zm-1-2.2V75l-.6.3z"/><path d="M250.1 70.8l.7-.2-.5-.5zm-2.6-2.3l.3.4.4-.5zm5.3 8l.5-.2-.5-.5zM242 67.6v-.5l-.7.3zm4.2 1.3l-.1.7.8-.3zm-.9-1.3l-.1.6.8-.2zm.5 6.6l1.2.8.4-1.5zm2.9.1l1.4-.5-1-1.2zm-3.2.6l.5.1-.1-.4zm-.6-2.8l-.2.5h.7zm1.2-1.5l-.7.1.5.6zm2.2.3l-.7.1.4.6z"/><path d="M245.7 71.9l1.4-.8-1.6-1zm2.1-5.7l.4-.7-1-.1zm-1.1 11.4l.4-.7h-1zm-1.2-3.7l1.2-.8-1.4-.9zm.8-6l.4.4.2-.6zm1.5 1.2l-.7 1 1.5.1zm1-1.5l-.3.5h.7zm.7 4.4l.4.3.3-.5zm-1.9-5l-.3.5h.7zm-8.9 5.9l-.6.3.5.5zm1.1-3l-.4.6h.8zm1.4 0l-.1-.5-.5.4zm-.8 3.2l-.1-.5-.5.4z"/></g><g fill="#a84d3b"><path d="M243.3 61.3l-.1.4h.5zm.3 1.2l-.4-.3-.1.5zm3.8-.7l-.3-.3-.2.5zm3.4-.9l.3.3.1-.5zm1.8-.5l.3.3.1-.5zm-.6.6l.4-.1-.4-.4zm-7.6.9l-.3-.4-.1.5zm4.8-.4l-.3-.3-.2.5zm-6.5.6l-.3-.4-.1.5zm-7.2-2.2l.1 1 1-.5zm3.7.7l-.2.5h.6zm-1.6.3v.6l.6-.2zm-.2 2l-.1.5.6-.2zm-1.4-.2v.5l.6-.2zm4.6-1.5l-.4-.3-.2.5zm.3-.3l.1.7.7-.5z"/><path d="M246.3 61.3l.2.5.4-.5zm-3.8-.1l.3.4.4-.5zm-3.6.1l.2.8.7-.6zm8.7-.1l.4.5.3-.6zm-3 .1l.2.6.7-.5zm-4.5.5l.1.4.4-.3zm-3.5 1.6l-.1.4.5-.1zm-.5.2l-.1.4h.5zm3.5-2.5l.2.2.1-.2zm2.2.3l.2.2.2-.3zm3.8.2l.1.3.2-.3zm-10 2.2l-.3.1.2.2zm1.9-2.3v.8l.8-.5zm-1.6 1.9h-.4l.2.4z"/><path d="M235.6 63.4l-.1-.5-.5.4zm2.6-1.5l.4.2v-.5zm.3-.9h.4l-.2-.5zm-1.4.4v.4l.4-.1zm.9 1.3l.4.1-.1-.5zm-2.4 2.1l-.1.4.4-.1zm1.4-2.3l-.4.1.3.3zm-2.1 1.2l-.1.7.7-.3zm.1 1.2l.4-.2-.4-.3zm-.8 1.3l.4-.2-.4-.2zm.2-.8l.5-.2-.5-.4zm-.3 1.4l.2.3.2-.3zm.7-.8l.5-.2-.4-.3zm-1.5 1.9l.5-.1-.4-.4zm3.6-7.5v.8l.8-.3zm-1.2 1.5l.3.3.2-.5z"/><path d="M238 60.5l-.1.8.9-.2zm-1.8 1l.3.3.2-.5zm4.5 1l.5.2v-.5zm9.1-1.1l.4.2v-.5zm-14.3 1.5l.7-.3-.7-.6zm.9-2.5l-.4.7h.8zm2 3.1l-.3-.1v.4zm-2.4-3.3l-.4.2.4.3zm.6-.3l-.1.4.4-.1zm-.4 1.5l-.7-.3v.8zm1.3-.2h-.4l.2.4zm-1.5.7l-.1.3h.4zm1.9-1.2l-.5-.4-.2.7z"/></g><g fill="#964c38"><path d="M227 76v-.3l-.4.1zm-1.7-2.9l-.4.1.3.4z"/><path d="M225.2 73.2l-.5.6.9.2zm-.9-.1l-.6.2.5.5zm2.6 1.5l-.3.2.4.2zm-.9-.5l-.3.3.4.1z"/><path d="M226.6 74.8l-.2.3.4.1zm-2.2-.8l-.2.2.4.2zm-.4-.3l-.5.5.7.2zm1.6 1.8l.2.2.1-.3zm1.1-1.2l-.1.2h.3zm.2.9l-.1.2h.3zm-3.6-1.6l-.4.4.6.1zm.9 1.5h-.3l.2.2zm.5.8l-.1-.2-.2.2zm.8-2.4l.2-.2-.3-.2zm-1.2 0l-.2.3.4.1zm-.5.3l-.3-.2v.4z"/><path d="M223.8 73.8l.1-.3h-.4zm2.4.4l.2.3.2-.3zm-.4-.9l-.1.7.7-.2z"/><path d="M225.5 73.8l.3.2.1-.4zm-2.4.9l-.2.3h.3zm1.8-1.6l-.3-.1.1.4zm-.6 1.8l.2.3.2-.4zm.8 1.2l-.1.3.3.1zM223 74l-.2.3.4.1z"/><path d="M224 76.2l-.3-.1v.3zm-1.2-1.6l.3-.1-.2-.3z"/><path d="M222.5 75.7h.2l-.1-.3zm.2-1l.2-.1-.1-.2zm.7-.3v.3l.3-.2zm-1 .8l.4.1-.2-.4zm.6.1v.3l.3-.2zm2-1.2l-.3.2.3.2zm1.4 1.5l.1.4.3-.3zm-2-2.2l.1.4.3-.3zm1 1.1l-.2-.2-.1.3z"/></g><path d="M238.3 68.5c-.1 0-.3 0-.4-.1-.3-.2-.4-.7-.2-1 .1-.1 1.7-2.5 5.3-2.2.4 0 .7.4.7.8s-.4.7-.8.7c-2.7-.2-3.9 1.5-3.9 1.6-.3.1-.5.2-.7.2zm14.8-2.1c-.1 0-.3 0-.4-.1-.8-.6-2-.2-2.1-.2-.4.1-.8-.1-.9-.5s.1-.8.5-.9c.1 0 1.9-.6 3.3.4.3.2.4.7.2 1-.1.2-.4.3-.6.3z" fill="#b4603f"/><g fill="#4f2b23"><circle cx="242" cy="71.9" r="1.4"/><circle cx="252.3" cy="71.1" r="1.4"/></g><path d="M247.7 80.4c-.3 0-.6-.2-.7-.6s.2-.8.6-.8c0 0 1.1-.2 1.2-1.1s-.8-3.4-1.3-4.7c-.2-.4 0-.8.4-.9.4-.2.8 0 .9.4.2.4 1.5 3.8 1.4 5.4-.1 1.5-1.5 2.3-2.3 2.4-.1-.1-.2-.1-.2-.1z" fill="#b4603f"/><path d="M235.7 60s-.2 3.6-2.2 6.8-2.3 3.2-2.1 4.3 3.2 7.1 10.1 9.6c5.2 1.9 9.7 1 11.9 0 0 0 .2-1 .3-1.6 0 0 .9.4.9 1.7.1 1.6-.1 4.3-.3 6a6.7 6.7 0 0 1-6.6 6.3c-3.2.3-8.8-1.1-14-4.1-2.6-1.5-5.3-5.1-5.6-6.5-.6-3.1.3-9.7.3-9.7s-.4-3.5-4.8-3.2c-3.2.2-4.4 3.4-4.4 3.4s-2.2-8.7-2.9-10.7c-1.1-3.4.7-5.4 2.3-6.7 1.6-1.2 3.2-1.1 3.2-1.1s-.7-5 4.8-7.6c2.7-1.3 4.9-1 7.1-1.1s4.3-.4 6.1-.4c4.4.2 5.7 2.7 5.7 2.7s8.6-3.7 12.1.9c3.5 4.5-.4 9.9-5.3 11.3-3.4 1.1-8.7 1.5-16.6-.3z" fill="#b23031"/><path d="M243.9 85.5h0a6.1 6.1 0 0 1-5.8-4.4c-.1-.4.1-.8.5-.9s.8.1.9.5a4.6 4.6 0 0 0 4.4 3.3c.4 0 .7.4.7.7 0 .5-.3.8-.7.8z" fill="#ea9d7d"/><g fill="#d3505d"><path d="M249.5 47.1l-.1.6.7.3.6-1.1zm4.8 5l-.4-.2v.5zm4.3 2.1l-.4-.3v.6zm-5-1v-.5l-.5.2zm-1-5.8l-.4.8.9.1zm3.6 5l-.4.5.7.2zm-7.1-5.2l-.9.2.7.9zm-1.4.3l-.8.5.8.6z"/><path d="M241.6 45.8l.2 1.2 1.1-.8-.7-.3zm-11.4.2l.7 1 .7-1.1zm13.9.8l-.2.9.9-.3zm13.1 1.8l-.8-.2.1 1zm-4.6 1v-1.7l-1.4.7zm1.8-.6l-1-1.3-.7 1.4zm1.1.7l.1-.9-.9.4zm.7 1l.6.9.6-1zm1-2l-.5 1.3h1.5zm-1.3 2.7l-.4.4.5.2zm-7.4-.3l-.3.5.6.1zm3.3 1.3l-.3.4.5.1zm-11.7-5.9l-.7 1.1 1.4.3zm-3.9 0v.6l.7-.2zm-8.8.8l-.1.8.8-.2zm1.1.4v.8l.8-.2zm-1.7 1.1l1.4.6.1-1.5zm3.4-1l-1 .6.9.7z"/><path d="M225.7 48.6l1.1.2-.2-1.3zm16.9-.7l-.3.4.6.1zm-4.6-1.2l-.3.4.5.1zm1.2.6l.1-.6-.7.1zm17.2 3.7l-.3.4.4.2zm2.1 1.9l-.3.4.5.2zm-1.5 1.3l.2.4.3-.5zm1-1.7l.2.5.3-.5zm0 1l-.4-.3v.6zm-8.6.2l.3.2v-.4zm-1.7-3.3l-.1.3h.3zm3.3 3h-.3l.1.3zm-1.6-1.4l-.1.4.4-.1zm3.8 2.7l-.3.1.2.3zm1.2 2.7l-.1-.3-.2.3zm1.2-4.3l.1.6.6-.4zm.1-5.6l-.1 1.1 1.1-.5zm-7.7 1.3l.2.6.4-.5zm10.6 2l-.6.6.8.4zm-2.6 3.7l-.3-.4-.3.5z"/><path d="M257.5 50.3l.4.4.2-.6zm0 1.3l.4.5.3-.7zm-.1-.6l.4.4.2-.6zm-3.1.8l-.1.5.5-.1zm1.5.6l-.5-.2.1.6zM245 47.6l-.2.5.5.1zm3.3.4l-.3-.1v.5zm-5.4-.8l-.7-.2.1.9zm-3.4.5l-.7-.2.1.9zm2-.9l-.7-.2.1.9zm-2.5-.3l-.7-.2.1.9zm-1.2-.1l.2-.8-1 .3zm-2.9-.3l-.8-.2.1.9zm1.4.1l-.7-.2.1.9zm-6.6.5l-.8-.3.1 1.1zm-1.5.9l.4-.8h-1.1zm4.3-1.4l-.7-.2.1.8zm-2.9.8l.9.5.1-1.3z"/><path d="M229 47.6l1 .5v-1.3z"/><path d="M230 47.8l.7.8.6-1.1zm13.4-.5l.1-.9-.9.4zm-5.3-1.7l.6.9.5-1zm-1.9.1l.6.9.5-1zm-1.5.2l.6.9.6-1zm-8.6 1.4l.9.6.1-1.2zm20.9 2.1l.3.4.2-.5zm2.2-.4l.3.4.2-.5z"/><path d="M249.1 47.6l-.8 1 1.3.4zm-2.4.3l-.7.2.5.6zM230 46l-.7.1.4.7zm-2.1.6l-.8.1.5.7zm-1.7.6l-.6.4.6.4zm23.5 2.8l-.4-.2v.5zm-.3 1.2l.3.4.2-.6zm-7.2-1.5l-.2.3h.5zm2.1-1.4l-.3-.1.1.4zm-1.3-.6l.4.4.1-.6zm-5.9-1.1l.3.3.2-.5zm5.3 2.1l-.1.4h.4zm-9.2 5.3l-.2.4h.5zm7.6-8.3l-.4.8 1.1.1zm.8 3.8l-.5-.1.1.4zm-.2-1.1l.4-.1-.3-.3zm-2.5 1l.5-.2-.4-.5zm1.1-3.1l.3-.7h-.9z"/><path d="M238.8 50l.1.4.3-.3zm1-3.3l.1-.7-.9.1zm-6.4-.1l.2-.7-.9.2zm-4.6.3l.1-.7-.9.2zm14.3 2.5l.2.3.3-.3zm-2.2.9l-.3.2.3.3zm-6.5 4.9l-.4.2.4.2zm5.8-3.6l-.3.2.3.3zm9.5-3.6l.3.9.7-.2v-.5zm3.1-1.1l-1-.1-.1.6.4.5zm-1.3-.1l-.8.6.3.6.6.1zm.8 3.1l-.6-.5-.3.9zm2 3.1l-.2-.3-.2.4zm-2.9-3.7l-.2-.3-.2.5zm3.2-2.1v1.1h.7l.1-.8zm-1.7 3.6l.1.4.4-.3zm.3-3.9l-.2.5.6.3.6-.7zm2 3.9l.1.9.4-.8zm-1.2 4.3v.4l.5-.3zm-1.2-1.6l-.3.3.3.2zm3.5-4.4l-.3-.3-.1.5zm-.2 1.6l-.2-.4-.3.5zm-1.2 1.7l-.4.3.5.2zm-1.1-4.8l.3.6.4-.7zm2.8 8.3v.6l.6-.4zm-.4-2.3l.4.5.2-.7zm.9-1.5l.3.5.3-.7zm-.2 3.2l-.2-.4-.2.5zm1-.9l-.2-.3-.2.4zm-5.2-2.4l.1.4.4-.4zm1.9-2.3l-.6.4.7.5zm.1 4l-.3-.2-.2.4z"/><path d="M256.8 50.1l-.3-.3-.2.4zm-2.3-.9l-.9-.1.4 1zm.7-.8l-.9-.1.3.8zm-4.4 2.4l-.1-.5-.5.3zm-.6-1.8l-.6.9 1.2.3zm-.5-.1l-.1.3.3-.1zm1.7 1.6l-.1.3.4-.1zm.3-2.4l-.7.1-.1.4.4.2zm1.1 1.1l-.1-.5-.5.4zm-.2 1.5l-.1-.5-.5.3z"/><path d="M252.4 49.2l.3.5.3-.6zm2.6.9l1.2.4v-1zm-1.6.4l.8 1 .6-.9zm-5.6-.8l.5.3v-.7zm-3-.1l.5.2v-.6zm5.7-.5l.6 1 .7-1.2zm4.1.2l-.2.3.4.1zm-.7.5l-.9-.4.2.9z"/><path d="M254.9 51l-.3-.2-.1.5zm-3.1.6l-.2.3.4.1zm3.5-1.4l-.3-.2-.1.4zm-1.3.8l-.3.4.5.1zm2.5 1.3l.1.5.5-.4zm.8.3v.5l.5-.3zm.7-.7l-.3.1.3.3zm-.7-.2l-.3-.3-.1.5zm.2 1.9l-.3-.2-.1.4zm1.4-1.4l-.3-.3-.1.5zm-7.8-.7l-.3-.3-.1.4zm-12.7.3v-.5l-.5.2zm-5.9-5.7l-.8.4.8.7zm6.1 1.7v-.9l-1 .4zm-5.4 2.8l-.5.8.9.2zm3.2.1l-.4.6.7.1zm-2.3 1.6l.4.2v-.4zm-2.6-1.9l-.1.3h.4zm4.3 1.6h-.3l.1.3zm-1.6-1l-.1.6.7-.2zm3.8 2.3l-.4.1.2.3zm-8-4.3l.3 1 .9-.9zm.7 3.7l.6.6.4-.8zm3.2-6.5l-.8.9 1.3.5.1-.7zm-.4 1.6l-.5.7.9.3v-.7zm.6 1.1l-.7-.1-.5.3.7 1.2z"/><path d="M230.2 52.9l-.5.8h1zm3.5-5.8l-1.6.5 1.1.9zm-1.7-.2h-.6l-.5.5 1 .7zm5.6 0l-1.3.2.8 1.2z"/><path d="M238.5 47.5l-1.3.2.8 1.3z"/><path d="M238.4 49l-.8-.5-.2 1.1zm-6 .5l-1.1-.7-.3.8.1.6zm-.8.9l-1.1-.1.4 1.2zm-1.7-1.1l-1.1-.7-.2 1.4zm7 .7v-1l-1 .4zm-1.8 1l.7-.7-1-.4zm.2 2.7l.5-.5-.8-.3zm-5.5-.7l.6-.7-.9-.3z"/><path d="M228.5 54.9l.5-.5-.7-.3zm5-1.7l.7.2v-.8zm1.1-2.6l-.6-.8-.6.9zm-1.3-2.6l-1.3.2.8 1.2zm2.8-1.1l-1.2.2.7 1.3zm.4 1.5l-1.2.3.7 1.2zm-1.4.4l-.5.7.8.2zm-1.7 3.5l-.4-.2.1.5z"/><path d="M232.4 51.5l-.7-.4v1zm1.7-1.7l.4.3.2-.5zm.6-3l.2.4.4-.3zm2.4 1.7l-.6-.5-.3.9zm-3.7 1h-.9l.4.9z"/><path d="M232.7 49.9h-.8l.3.9zm.1 2.6h-.8l.4.9zm-2.3-2.9h-.8l.4.8zm5.7-1.7l-.2-.3-.2.5zm2.7 3l.1.4.4-.3zm-1.3 1.2l-.3.3.3.2zm-.1-1.6l.1.5.4-.4zm-1.9-1.1l-.1-.5-.5.3zm-.6-1.8l-.7.5v.4l1.3.3zm-.5-.2l-.1.4.3-.1zm1.7 1.7l-.1.3.4-.1zm-.9 2.2l-.1.4.4-.1zm1.1-4.3l-.3-.1v.4zm4.2 1.5l-.1-.5-.4.3zm-.3 1.4l-.1-.5-.4.3zm-8.3 4.5l-.1-.5-.5.3z"/><path d="M239.2 47.9l.3.5.3-.5zm-8.5.7l.9.4v-1.1zm5-.7l.2.4.3-.4zm4.4 1l-.4-.2v.5zm-8.6 6.4l-.4-.2v.5zm5.1-5.2l-.2.3.4.2zm-.7-.1l-.3-.2-.1.4zm-19.8 9.3l1.5-.1-.8-1.5zm13.7-5.3l-.4.3.5.3zm-3-1.9l-.9.8 1.2.5zm.6 3.9l-.4-.3-.2.5zm.1-1.3l-.5-.4-.2.7zm-8 2.4l.4 1 .8-.9zm6.7-7.1l.4.9.8-.8zm1.7-.5l.2.5.5-.5zm.4 1.1l.2.6.5-.5zm-11.5 12.8l.4 1.6 1.1-.9zm.4 1.7l.4 1.2.7-1zm2.6-.6l.2.5.5-.5zm-1.4.4l.2.5.5-.4zm3.4-11.3l.1.9.9-.5zm-.4 3.5l-.4-.3-.1.5zm.1.8l-.7-.5-.2.9zm3.7-3.8h.9l-.5-.9z"/><path d="M225.3 55.2l.2.4.3-.3zm-5.2 7.1l.1.4.4-.3zm1.7 1.3l-.4.1.2.4zm-4.2.5l.3 1 .8-.8zm1.9 1.9l.2.4.4-.4zm9.3-16l.4 1.2 1.1-1zm-1.7 1.8h1.3l-.7-1.3zm-2.3-1.3l1-.1-.5-1z"/><path d="M228 49.8l-.7.4.8.6zm-8.3 15l.3-.2-.3-.3zm-.7-2.3l.2.3.1-.3zm4.3-1l-.2.2.3.1zm-1.5 4l-.2.3.3.1zm-1 1.7l-.1.2.3.1zm.4-5.2l.3.3.1-.4zm-1.4 1.3l.5.4.2-.6zm3.7-2.6l-.1.3h.3zm5-8.5l-.5-.2.1.7zm-3.8.7l.6.2-.1-.6zm-3.6 1.7l.5.9.6-.9zm-3.2 6.7l.6.2-.1-.6zm-1.2 0l.8.4-.1-1zm-.6-1.4l.9.4-.1-1.1zm7.8-8.9v.5l.5-.2zm-.7.1v.5l.5-.2zm6 .3l-1 .2.7.9zm-.1 1.5l-.9.2.6.8zm9.5-3.4l-.9.1.7.8z"/><path d="M223.8 50.9l.1-1-1 .3zm.5.9l-.9-.3.1 1zm-1-.6l-.6-.7-.4 1zm-.3 1.2l.2-.9-1 .3z"/><path d="M225.6 50.2l.6-.1-.4-.5zm-.8.2h-.8l.4.8zm-1.5-.9l.4.6.4-.6zm3.5-1l-.9.9 1.4.6zm-7.6 16.7l.2.4.4-.3zm-1.3-4l-.3.2.3.2zm.8 5.7l-.3.2.4.2zm.3-.7l-.3-.3-.1.4zm-1.6-2.7l1.1-.1-.6-1.1zm1.4-3h.5l-.3-.5zm-2.8-.1l.2 1 1-.7zm2.5 2.8l.2.7.6-.6zm-.5-3.7l-.7.4.8.5zm1.8 1.4l-.7.4.8.6zm-.5-3.5l-.7.4.8.5zm-2.7 5.8l1.2-.9-1.6-.8z"/><path d="M217.6 66.5l.3 1.3 1.2-.9zm1.6-2.5l-.5.4.7.4zm-1 2.2l.7-.1-.5-.7zm1.9-.6l.2.4.3-.4zm-.7 1.4l-.3.2.4.2zm3-10.8l-.2.5.6.1zm-1.1-.7l-.3.5h.6zm-2 .5l-.5.9 1.1.1z"/><path d="M222.3 54.5l-.2.4.5.1zm-1.1 2.5l-.3.4h.6zm.9-.7l.4.2v-.4zm-4 5.9l.7.3v-.9zm1.3-2.5l.3.2v-.5zm5.1-6.2l.3.1v-.4zm-1.2.7l.3.1.1-.4zm-.7-.6l.5.3.1-.7zm-3.4 5l.3.2v-.5zm2.3-2.3l-.2.4h.5zm-.7.3v-.7l-.7.3zm-1.1-.5l-.1-1-.9.5zm2.5-.4l-.3-.1.1.5zm-.5 1.5l-.2.4h.5zm-1.4.3h-.4l.1.4zm-.8 10.6l.2-.4h-.5zm-.4 2.1l.1-.3h-.4zm-.3-1.4l.1-.4-.4.1zm.6 2l.4.2-.1-.5zm0-1.1l.3-.4-.5-.1z"/><path d="M220.3 68.9l.2-.4-.5-.1zm-2.2-.9l.7.2-.1-.8zm.4.7l-.1 1.1 1.1-.4zm.6 1.6v.4l.4-.1zm-.8-11l.7.3-.1-1zm-1-2.3v.9l1-.4z"/><path d="M218.7 58.4v.4l.4-.2zm-.8-.2l-.1.8.8-.3zm3.8 0l-.7.1.5.7zm5.3-6.9l-.8.2.6.7zm-1.5 0h.5l-.2-.5zm-.8-2.9l.9.4-.1-1.2zm-.1 2.9l.2.8.7-.6zm-1-2.1l1 .4-.1-1.2z"/><path d="M221.9 53.3l1-.3-.8-.9zM226 52h-.5l.3.5zm.1 2.5l-.3.1.2.3zm-5.7 4.3l-.4.1.3.4zm-.4-3.9l.6.7.4-.9zm4.6-5.8l.9.3-.2-1zm-7.1 7.6l1.2.4-.1-1.3zm5.1 2.5l.4.1v-.5zm5-5.4l.4.1v-.5zm-4.3-.3l.5.4.2-.7zm.5-1.2l-.1.6.7-.1zm-1.1.2l.5.4.2-.7zm-.5.9l.5.4.2-.7zm.9 1.4l-.3.1.2.4zm1.7-.2l-.4.1.3.4zm-1.6 4.7l.5.2-.1-.5z"/><path d="M222.5 58v.4l.5-.1zm-1.9.3l-.4-.3-.1.5zm1.3 2l.3.4.3-.4zm-1.6-1.7l-.3.5.7.1z"/><path d="M219.9 58.7l.4.2v-.5zm-.2.9l-.2.6h.8zm.5 1.3l.5.1-.1-.5zm1.5-1.9l.4.2v-.5zm-.7 2.7l.5.2-.1-.6zm-.5-2.3v.4l.4-.2zm10.2-8.4l-.9.1.6 1zm-6.1 2.8h-.4l.3.4zm-2.8 6.5l-.3.1.2.3z"/></g><g fill="#93282d"><path d="M245.3 92.4l-.5-.5-.3.6zm-16.1-8.7v.6l.6-.2zm12.1 7.5l.4-.5-.8-.2zm-9.2-5l.3-.6h-.8zm-1.8-.6l.2-.6h-.7zM248 93l1.4-.2-.5-1.1zm-.9-.1l.6-.6-.9-.1zm-1.2-.2l.4-.5-.7-.2zm-9.5-2.6l.5.2v-.6zm4-.2l-.1.6.6-.2zm-2.1-.5v.6l.6-.2zm-3.2-.3v-.8l-.9.4zm.8-1.7l.3-.5-.6-.1zm10.4.5l.3-.4-.6-.2zm.4 2.5l.3-.5-.6-.1zm-17-5.4l.3-.5-.7-.1zm2.2-.8l-.4-.4-.2.6zm1.5 2.6l-.5-.4-.2.6zm-3-.8l.6.6.3-1zm21.4 3.3l-.4-.2v.4zm-4.6-.5l.1-.4-.4.1zm-1.9-1.9l.1-.5-.5.2zm-7.2 4.1l-.1-1.1-1.1.6zm8.3-1.1l-.2-.6-.6.5zm-13.6-1.6l.4-.4-.6-.2zM232 85l.4.3.2-.6zm2.1 4.1v-.6l-.7.2zm-1.7-1.2l.2-.9-1.1.2zm1.6 0l-.7-.5-.1.9zm-2.6-1.2h.6l-.2-.6zm15.3 4l.4.2v-.6zm1.4-.1l.5.2-.1-.6zm-.9.1v.5l.4-.2zm1.4-.7l-.3-.5-.3.6zm-3.2.3l-.4-.5-.2.6zm.2 1l.3-.3-.5-.2zm-.8-2.2l.5.2v-.5zm5 1.8l-.4-.5-.3.7zm-1.5.7l.2-.4-.5-.1zm.5-4.3l.5.2-.1-.6z"/><path d="M247.9 91.6l-.4-.4-.2.6zm2.8-4l.3-.5h-.6zm-2.9 2.2l.4.2v-.6zm-9-.3h.7l-.4-.7z"/><path d="M238.9 91.2l.6-.1-.3-.7zm-.9-.2l.6-.1-.3-.6zm2.4-.8h.5l-.2-.5zm-1.3-.4v-.5l-.5.3zm-4.2-1.4l-.1-.5-.4.3zm15.7 4l-.6-.6-.5 1zm-7 .3l-.3-1.3-1.2 1zm.6-2.5l-.1-.4-.4.2zm-9.4-.9l-.1-.4-.4.2zm1.5.7l-.1-.4-.4.2zm7 1.2l-.1-.5-.4.3zm-3.8-.8l.5-.1-.3-.5zm.9.5l-.3.3.4.2zm-2-.9l.2.5.4-.4zm1.9-.4l.4-.1-.3-.5zm1.2 1.2l.2.4.4-.4zm8-1.5l-.4.1.2.4zm1.2 1l-.4.1.3.5z"/><path d="M250.8 89.8l-.4.1.3.4zm1.3 1l-.1-.5-.4.3zm-1.7-2.7h-.6l.3.5zm-.4 3.7l-.2-.5-.3.3zm.8-.3l.4-.2-.4-.3zm.7.1l.4-.2-.4-.3zm-7.1-.4l-.1-.6-.5.4zm-2.2.4l.4-.2-.4-.3zm1.2.1l.4-.2-.5-.3zm-1.7-2.9l.3.3.2-.5zm-8.7-3.5l.4.2V85zm.8.8l-.4-.4-.2.6zm3.8 2.9l-.2-.6-.5.5zm-2.9-2l.3.3.2-.5zm8 2.8l.3.3.2-.5zm-2.8 1.9l-.1-.8-.7.5z"/><path d="M241.1 88.1l-.2-.5-.4.4zm.3 4.1l-.2-1.1-1.1.7zm-3.1-4.3l-.1-.6-.5.4zm-2.1.9l-.2-.5-.5.4zm-.6 1.1l.4-.3-.4-.3zm1.4-.2l.3.4.2-.5zm-1.3-.7l.5.5.3-.8zm5.5-2.2l-.2-.4-.3.3zm-3.9.2l-.1-.4-.4.3zm-8.1-3.6l-.2-.4-.3.3zm10.2 5.3l.4-.2-.4-.3zm2.7 1.2l-.1.6.6-.2zm.5.2l.6-.1-.4-.7z"/><path d="M242.9 90.3l-.1-.4-.4.2zm1.1-.2l.5-.1-.3-.4zm.9-1.4l-.2-.6-.5.4zm-2.8-.3l-.2-.5-.5.4zm1.1.9l.4-.2-.5-.3zm-8.4.2l.6.3.1-.8zm8.4-2.1l.3.4.2-.5zm9.5 2.3V89l.7.3zm1.8-4.4l-.1.9-.9-.5zm-2.6 6.3l-.2-.9.9.3zm-9.7.7l-.7-.1.5-.6zm9.5-3.9l-.7-.1.5-.6zm1.6 1.6l-.6.9-.5-1.3zm-3.4 1.6l.4.4-.6.2zm1.4-2.1l.4.4-.6.3zm1.1-3.1l-.1-.7.7.3z"/><path d="M251.5 86.7l-.6-.1.4-.5zm-5.7 6.3l-.8-.1.5-.8zm7.2-7.7v-.6l.6.3zm-8.6 4.9l-.2.2-.2-.4zm-.1 2.6l-.7-.1.6-.7zm10.3-10l-.3.2-.1-.4zm-3.1 7.1l-.5-.4.7-.3zm2.8-4.7h-.6l.2-.5zm-.7 1.9v-.7l.7.4zm-.2-.8l.2-.6.6.5zm-3.3 3.5v-.6l.6.3zm-2.2 3.2l-.8-.2.6-.7zm1.8-.5h-.4l.2-.5zm-4.4-1l-.1.4-.4-.4zm-5.1.3l-.4-.1.3-.4zm7.6 0l-.9.6-.2-1.2zm4.1-.2l-.6.4-.1-.7zm.8-1.6l-.8.7-.3-1.1zm-8.6 2l-.4.3-.2-.6zm6.6-1.4l-.3-.4h.5zm-.3 1.6l-.6-1.1 1.4-.2zm3.1-2.5l-1.1-1.1 1.7-.4-.3.8zm-3.9-.5l-.3-.3.5-.1zm4.6-1.3l-.7-.5.9-.5z"/><path d="M251.9 89l-.2-.4.4-.1zm-1.1 3.3l-.3-.3.5-.1zm-.6-3.3l1-.1-.4.9zm1.2 1.4l.1.4-.5-.1zm1.2-2.8l.2.9-.9-.1zm-.8.8l-.2-.5.6-.1zm-.4 3.5l-.4.1.1-.5zm2.2-5.9h-.5l.1-.5z"/><path d="M248.4 91.6v.6l-.7-.3zm2.9-2.5l-.3-.6h.7zm.8-3.5v.5l-.5-.3zm-2 5.7l-.2-.5h.6zm-2-.6l-.3-.5h.7zm4.9-3.2l-.3-.5.6-.1zm-3 1.2l-.2-.5.6-.1zm3.4-.4l-.5.1.2-.5zm-1.2.9v.4l-.4-.2zm-.1-2v.5l-.4-.3zm-5.1 2.7l-.3-.5h.7zm2.8.2h-.5l.2-.5zm-3.7 1.5l-.5-.3.4-.4zm3.3-.5l-.4.2-.1-.5zm-3.4 2l.5-1 .7 1zm1.6-1.5l-.2-.5h.6z"/><path d="M244.6 92.9l-.3-.5.6-.1zm5-1.7l-.4.1.1-.5zm5-7.4l-.1.4-.4-.2zm-1.4 3.5v.4l-.5-.2zm-7.1 4.4v.4l-.5-.2zm-7.4-31.5l.3-.6-.7-.1zm6.9.8l.5-.6-.9-.2zm1.8.1l-.8-1.1-.8 1.2z"/><path d="M244.3 61.1l1.1.1-.4-1.1zm-7-1.8l.3-.2-.4-.3zm-.9-1.1l-.3.6.6.1zm-2.4.3l.5.4.2-.7zm2.3.7l.6.5.2-.8zm1 .4l-.5.7.9.2zm7 1.6l-.3-1-.9.9zm-5.4-.6l-.3-1-.8.8zm2 .3l-.5-1-.7.8zm-6.8-3.3l.3-.3-.4-.2zm3.9 2.1l-.2-.4-.3.4zm6.7-3.8l.3-.2-.4-.2zm-8.8 1.1l.3.2.1-.4zm1.2.5h-.5l.2.6zm1.1-.1V57l-.4.1zm-3.4-1l.4-.1-.3-.3z"/><path d="M242.6 55.5h.4l-.2-.4zm-4.3.3l.3-.1-.2-.4zm.7.4l-.2.5h.5zm2.7 4.8l.9.1-.3-1zm-4.6-3l-.3.9h.9zm5.4-1.2l-.2-.4-.2.4zm1.8 1.6l.4-.5-.6-.2zm-2.5-2.4l.3.2v-.4z"/><path d="M241 55.1l.3.1v-.4zm3.9 4.9l.3-1-1.2.3zm-4.2.9l1.1.1-.3-1.1-.6.3zm.6-1.3l.9-.3-.6-.8-.4.6z"/><path d="M242.4 60.8l.5.3.6-.2-.5-1zm.8-2.1l.6 1.1.6-.5.2-.6zm1.6-1l.7.5.2-.9zm.4 1.8l.6 1.1.8-1.1zm-5.8.3l-.5.8 1.1.2zm1.2-1.3l-.9.4.7.8zm6.4-1.9l-.6.2.4.5zm3.8.3l-.6.2.4.6zm-9.4 3l1.1.5V59zm-5.6.1l1 .2-.2-.8zm4.9-2.1l.7-.2-.5-.7zm2.3-.8l.3.3.2-.4zm-1.2.4l-.1-.4-.4.3zm-1.6 3V60l-.5.2zm-2.1-1.9l.3.8.6-.7zm3.5-.4l.7.5.1-1z"/><path d="M242.7 58.1l.7.5.1-1zm2.1 1.1l.7.4.1-.9zm-5.6-.3l.2.3.3-.3zm1.2-1.7l-.1.4h.5zm.1 2.1l.8-.1.2-.4-.9-.9z"/><path d="M240.4 59.4l.3-.3-.4-.1zm-.7-1.6l.2-.3h-.4zm1.2-1.7l.2-.3-.4-.1zm-2.2 3.5l.3.3.2-.5zm-3.2-1.4v.5l.4-.2zm2.6.1l-.1-.6-.6.4zm6 1.7l-.5-.8-.5.9zm-4.3-.9l-.1-.5-.4.3zm-4.8-1.7l.3.4.2-.5zm11.2-1.7l.2.4.2-.4zm-6.5.9l.4-.1-.4-.3zm.8-.2l.1.4.3-.3zm-6.8 10.2l-1.4-.1.5 1.5zM245 57l.5-.1-.3-.4zm5.6 2l.9-.1-.6-.9zm2.8-3.8l.1.4.4-.3zm-3.3.4l.1.4.3-.3zm-1.5 4.8l.2-1-1.1.3zm-1.7-.1l.1-.6-.6.2zm.3-1.2l.1-.6-.6.2zm-11.9 3.6l.2-1.6-1.3.4zm.3-1.6l.1-1.3-1.1.7zm14-3l.3-.6-.7-.1zM252 56l.1-.4-.5.1z"/><path d="M230.3 63.1l-.1-.5-.4.3zm1.5-4.3h.4l-.2-.5zm14.7.6l.3-1.3-1.5.3zm2.3-1.1l-1.1-.5v1.3zm1.3 2l-.9-.4V61zm4.9-1.1l-.9-.6-.1 1.2zm-8 .7h.8l-.4-.9zm-14-.4l-.3.1.2.3zm-1.6 3.4l-.2-.2-.2.3zm-1.4 1.5l.2-.2-.3-.1zm-.8-1.3l-.3-.3-.1.4zm2.8-1.6l-.4-.4-.2.5zm0-1l.2-.3h-.3zm15.8-3.2l.4.4.2-.6zm-15 6.7l-.4-.4-.2.6zm1.1.4l-.6-.6-.3 1z"/><path d="M234 65.9l-.8-.5-.1 1.1zm17.2-5.6l.2-.4-.5-.1zm.5.3l.7-.2-.9-.3zm-4.9-2.5l.6.3-.1-.8z"/><path d="M247.7 56.7l.6.2-.1-.7zm-9.5 1.1l.8.1-.2-.9zm13 1.6l.5.8.5-1z"/><path d="M252.1 58.9l-.6.8 1 .2zm-2.8 1.6l-.6-.2.1.6zm.8.4l1.1-.2-.4-.8zm-2.6.2l1.2-.1-1-1.1zm-14.7 3l.4-.1-.3-.3zm1.3-1.9l-.9-.4.1 1.3zm-2.8 2.7h-.5l.2.5zm2.9.7l.4-.9-1.2.1zm-1.7-2.9l-.1-.8-.6.5zm-.4 3.5l.8-.2-.5-.8zm3.1-3.3l-1.4.3.9 1.3zm-2.3-1.5l.6-.4-.6-.4z"/><path d="M234.4 60.7h-.7l.3.8zm-1.4 2.4l-.5-.6-.4.8zm-2.5 2.5l-.2-.2-.1.5zm21.3-7.7l-.2-.3-.2.3zm1.4-.1l-.2-.2-.2.3zm.3.9l-.3-.5-.4.6zm-22.9 8.1l-.3-.2-.1.4zm3.6-7.4l-.4.4.5.1z"/><path d="M232.2 68.6l.2-.9-1.1.2zm-1.2-1.5l.1-.4-.5.1zm.8.2l.2-.7-.8.2zm-.6-1.4l.7-.1-.4-.7zm17.4-7.1l.8.3-.1-1zm1.6.8l-.6-.4v.7zm.5.3l.2-.9-1 .1zm3.1 0l-.9-.8.1 1.1zm-4-1.5l.5.3-.1-.6zm1.2-2.2l.3.1v-.5zm-20.5 12.3h.4l-.2-.4zm18.9-12.1l-.3-.3-.2.4zm4.4 1.5l.8.3v-.9zm0-1l-.5.3.5.4zm1 1.4l.8.3-.1-1zm.6-3.7l.3.2.2-.4zm-.5 2.2l.5-.1-.4-.4zm1.3.2v-.6l-.6.3zm-3.4 1.5l-.1-.6-.6.5zm-1 .8l.4-.5-.7-.2zm1 .3l-.2-.6-.5.5zm.9-.5l-.2-.6-.5.5zm.2-2.9l.4.1v-.4zm-1.8.5l.4.2v-.5zm-21 7.8l-.2-.5-.4.4zm-.6 2.2l.3-.4-.6-.2zm1.1-2.4l.3-.5-.7-.1zm0 4.8l-.5-.2v.6zm-.9.2l-.4-.3v.6zm4.1-9.8l.9.4-.3-.7zm17.1-1.9l.3.1v-.4zm-22 10.3h.3l-.2-.4z"/></g></svg>