<svg xmlns="http://www.w3.org/2000/svg" viewBox="0 0 480 480" xmlns:v="https://vecta.io/nano"><path d="M226.1 79.2l-7.5 24.5-2.2 5.7s3.2 4.1 10.8 5.7c5.2 1.1 8.7 1.2 11 1 1.9-.2 4.2-.6 3-4.1-1.7-5.2-1.1-8.5-1.1-8.5l2.7-14.7-16.7-9.6z" fill="#ea9d7d"/><linearGradient id="A" gradientUnits="userSpaceOnUse" x1="229.34" y1="96.12" x2="236.21" y2="87.27"><stop offset="0" stop-color="#bc5a32" stop-opacity="0"/><stop offset=".99" stop-color="#bc5a32"/></linearGradient><path d="M225 92.4a26.6 26.6 0 0 0 9.4 8.2c3.5 1.7 6 2.1 6 2.1l2.3-12.2-16.4-11.3-.9 1.7-.7 2.8c-.3 0-2 5.2.3 8.7z" fill="url(#A)"/><path d="M217 109.5h-.1c-.2-.1-.3-.3-.3-.5l4.7-14.4c.9-3 3.6-13.1 3.6-13.1.1-.2.3-.3.5-.3.2.1.3.3.3.5l-3.6 13.1c-.8 2.7-4.7 14.3-4.7 14.3 0 .3-.2.4-.4.4z" fill="#cf7653"/><g fill="#a84d3b"><path d="M228.9 85l.2.5.4-.5z"/><path d="M228.9 84.3l-.2.9 1-.1zm5.4 3.9v1.1l1.1-.5zm-2.7-1.7l-.2 1 1.2-.3zm-1.5-1.1l-.2 1 1.2-.3z"/><path d="M228.3 83.4l-.5 1h1.2zm7.4 7.1l-.4-.6-.4.8zm-1.3-1.1l-.6-.7-.3.8zm4.1 2.2l-.7-.8-.3.9zm2.9 1l-.6-.7-.3.8zm-5.2-3.5l-.7-.3v.8zm1.4 3.1l-.5-.6-.4.8zm-3.9-4.1l-.7-.3v.8z"/><path d="M238.9 90.2l-.9-.4v1.3zm2 .4l-.8-.2.2 1zm1.2 1.6l-.7-.1.3.8zm-2.7-.3l-.4-.6-.5.7zm2.4 2.3l.1-.7-.8.3zm-.3 1.4l.2-.7-.8.2zm-1.7 0l-.4.3.6.3zm.4-3.9l-.4.3.5.3zm2.2-.7l-.5-.1.1.6zm-1.8 5.7l-.4.4.5.2zm-10-10.4l-.4.3.6.3zm-3.3-4.6l-.4.4.5.2zm10.1 9.5l-.3-.3-.2.5zm-2.9-.8l.2-.5-.5.1zm1.5.9l.1-.4h-.5zm2.1 1.9l.2.5.4-.4zm2.9-1.9l-.4.2.5.3z"/><path d="M241.2 90.7l-.6.4.7.4zm-1.3.5l-.4.2.5.3zm.4 7.1l-.4.2.5.3zm-1-1.2l.1.4.4-.3zm-.1-2.4l.1.4.4-.3zm1.9 1l-.3-.3-.2.5zM227.2 91l.2.2.2-.4zm1.8-1.3l-.2.2.4.1zm2.1 3.6l-.3-.1v.3zm-1-1.7l-.2.3h.4zm6.8 3.2v.5l.6-.2zm-.9-4.6v.5l.6-.2zm.1-1v.6l.5-.3zm-7.8-3v.5l.6-.2zm12 7.3l-.4.1.3.4zm-1.5 4.1l-.2-.4-.3.4zm.4-5.2l.2.5.4-.5zm1.5.6l.3.5.4-.5zm1.1-1.8l-.3.3.5.2zm-.6 3.1l-.4-.2v.5zm-11.3-8.8l-.6.4.7.4zm-2 .7l-.3-.2-.1.4zm-2-1l-.3-.2-.1.4zm-.6 3.1l.1-.3h-.4z"/><path d="M229.2 86.1l.2.4.3-.4zm-1.2-1l.2.7.6-.6zm-.3-2.7l-.3.6.8.1zm3.1 4.9l-.3.2.4.2zm.7-.4l-.3.2.4.2zm.8.4l-.3.2.4.2zm-1.4 2.6l-.3-.2-.1.4zm-6-3.4l.2.4.3-.4zm2.2-2.3l-.2.3.3.1zM227 88l-.3-.2v.4zm.4-4.2l.2.4.3-.4zm.9.6l.2.4.3-.4zm-2.3-1.1l-.2.3.3.2zm.4-1l-.3-.2-.1.5zm5.3 5.5v.5l.4-.2zm1.8.9l-.3.1.2.3zm-.8-.8l-.3.1.2.3zm6.7 3l-.3.1.2.3zm-1.4-.7l-.4.1.3.3zm-4.7.8l-.2-.4-.3.4zm5.6 4.9l-.2-.3-.3.3zm-6.2-6l-.2-.3-.2.3zm2.6-.5v.4l.5-.2zm1.7.3v.5l.4-.2zm1.7.9l-.3.1.2.4zm-1.3 2.1l-.2-.3-.2.3zm-4.4-.1v.4l.5-.2zm2-1.1l-.4.1.3.3zm3.4.8l-.2-.3-.2.3z"/></g><path d="M250.4 55.2s2.9 4.7 3.4 6.9a20.1 20.1 0 0 1 .6 4.9c0 4.2-.3 10.1-.8 13.4-1 5.7-3.7 9.1-6.9 10.1s-9-1.1-12.9-3.1c-3.3-1.7-5.2-3.5-5.7-5.6-.5-2.2-1.5-5-1.5-5l.2-6.5 7.7-16.4 15.9 1.3z" fill="#ea9d7d"/><linearGradient id="B" gradientUnits="userSpaceOnUse" x1="241.25" y1="65.52" x2="237.59" y2="57.05"><stop offset="0" stop-color="#bc5a32" stop-opacity="0"/><stop offset=".99" stop-color="#bc5a32"/></linearGradient><path d="M230.6 73.3s5.8-6.5 9.5-7.9c7.1-2.9 14-2.6 14-2.6l-1.1-3.5-20.2-2.7-4.4 12.6 2.2 4.1z" fill="url(#B)"/><ellipse cx="224.5" cy="75.7" rx="5.3" ry="5.7" fill="#ea9d7d"/><path d="M224.5 81.8c-3.2 0-5.8-2.8-5.8-6.1 0-3.4 2.6-6.1 5.8-6.1s5.8 2.8 5.8 6.1-2.6 6.1-5.8 6.1zm0-11.4c-2.7 0-4.9 2.4-4.9 5.3s2.2 5.3 4.9 5.3 4.9-2.4 4.9-5.3c0-3-2.2-5.3-4.9-5.3z" fill="#b76349"/><linearGradient id="C" gradientUnits="userSpaceOnUse" x1="224.49" y1="79" x2="224.83" y2="73.67"><stop offset="0" stop-color="#cc7a5e" stop-opacity="0"/><stop offset=".92" stop-color="#aa5f4b"/></linearGradient><ellipse cx="224.7" cy="75.7" rx="2.4" ry="2.5" fill="url(#C)"/><path d="M230.3 72.1l-1.7 1.5-.7 5.6.3 1.6s2.4-1.3 2.6-3.9-.5-4.8-.5-4.8z" fill="#ea9d7d"/><path d="M243.4 90.9c-1.1 0-2-.2-4-.7a26.5 26.5 0 0 1-10-5.5c-2.2-2.2-2-4.3-2-4.4 0-.2 0-.5.2-.5s.3.2.4.4c.1.4.1 2.1 1.9 3.9a25.8 25.8 0 0 0 9.6 5.3c3.1.7 3.7.9 6 .7 2.2-.2 3.5-1.1 3.5-1.1.3-.2.6-.3.4 0-.2.2-1.8 1.5-3.8 1.8-.9.1-1.5.1-2.2.1z" fill="#b76349"/><g fill="#f4b9a6"><path d="M243.8 75.8l.7-.6-.9-.3zm-8.8-.4l-.2-.5-.5.5zm11.6 1l1 .6.1-1.2zm-2.6-5.1l1.3.8.2-1.6z"/><path d="M244 70.5l1.3-.8-1.3-1zm3 8.9l1.3-.8-1.3-.9zm1.3-1.6l.5-1.4h-1.7zm-4.8-2.9l-.8.2.5.7zm.6-1.1l-.9.2.6.7zm-.2 4.3l.3.8.7-.7zm.4 1.5l.7.4.2-.8zm4.1 2.4l-.8.3.6.7zm-3.3-17.1l-.3.7.9-.1zm.8 5l-.7-.1.3.7zm.7-2.5l-.7-.1.2.7zm-5.8 1.4l-.1.9.9-.4zm1.9-1.4l-.7.5.8.5zm-3.3 1.2h-.5l.3.5zm7.6 13.5l-.7.2.5.5zm-.8-.5l-.7.2.5.6zm-6-4.4l-.7.1.4.7zm1.7 1.3l-.7.2.4.6zm-2.3-3.5l-.1.6.8-.2zm3.6-.8l-.3-.6-.5.6zm7.3 5.8l.4-.4-.7-.1zm-2.8-2l.4.1v-.5zm4.5-4.6v.4l.4-.2zm-2.1 2.2l.5.1-.2-.5z"/><path d="M252.4 74.1l.1-.4-.5.1zm-14.6-3.8l-.3.5h.6zm6.5-3.2l.9-.2-.7-.7zm.9 10.3l1.8-.5-1.5-1.5zm-1.4-6.8l-.7-.1.1.7zm-5.2 4.8v-.6l-.8.3zm4-6.8l.1.9.8-.6zm-1.1 1.5l.1.8.8-.4zm.9-.6l.1.9.8-.5zm7.5-.9l.7.3v-.8zm-6 4.3l-.4-.5-.5.7zm3.4 8.3l-.7.2.5.6zm-3.1-4.3l-.2.5h.7zm.7 3.5l-.3-.5-.3.6zm1 .5l.4-.4-.6-.2zm.3-1.3l.5-.4-.7-.3z"/><path d="M246.1 78.9l.6-.5-.8-.3zm-.4-3.1l.5-.4-.7-.3zm-1.4.3l.5.3.2-.5zm6 4.7l-.6.1.4.5zm-3.2-5.6l-.2.5.7-.1zm1.6 6.1l-.4-.5-.3.6zm-3.5 2l.1.7.6-.5zm-1.8-3.2l-.5.2.5.4zm-6.2-6.7l-.4-.5-.3.7zm6.7 8.1l.4.2.1-.6zm-1.8-1l.4.2.1-.7zm-3.2.7l-.2.6.7-.1zm2.2 2.2h-.6l.2.6zm-2.1.8l-.5-.1.1.6zm5.7-9.4l1.2-.3-1-1zm-.9-2.8l.3.5.4-.5zm.1 1.1l.6.9.8-1.1zm3.4-2l-.8.7 1.2.4zm-7.4 2v-.6l-.6.3zm6.3-.5l-.4.4.6.2zm-2.3-3.5l.7-.1-.5-.6zm4.5 1.6l.7-.2-.6-.6zm-4.9 0l.8-.2-.6-.5zm5-3.3l.7-.2-.5-.6zm-2.4-1.6l-.5.4.7.2zm-5.5 2.1v-.6l-.6.3zm.8 8.8l-.1.8.9-.3zm-1.1-.3l-.7.1.4.6zm1.5 3l-.1.8.8-.3zm1-2.9v.8l.9-.5zm-.7 1.5l.1.8.8-.5zm-.9-2.2v-.6l-.6.3z"/><path d="M250.1 71l.7-.2-.6-.6zm-2.6-2.3l.3.4.4-.5zm5.2 8l.6-.3-.5-.4zm-10.8-8.9v-.6l-.6.3zm4.2 1.2v.7l.8-.2zm-.8-1.3l-.1.7.8-.3zm.5 6.7l1.2.8.4-1.5zm2.9 0l1.3-.4-.9-1.2zm-3.2.7l.4.1-.1-.5zm-.6-2.8l-.2.5h.7zm1.2-1.5l-.7.1.4.6zm2.2.3l-.7.1.4.6z"/><path d="M245.6 72.1l1.5-.8-1.6-1zm2.2-5.7l.4-.8h-1zm-1.1 11.4l.3-.7h-.9zm-1.3-3.8l1.3-.7-1.4-.9zm.8-5.9l.5.4.2-.6zm1.6 1.1l-.7 1.1 1.5.1zm1-1.4l-.3.4.7.1zm.7 4.3l.4.4.2-.6zm-1.9-4.9l-.3.4.7.1zm-8.9 5.9l-.7.2.6.6zm1-3l-.3.6h.8zm1.5 0l-.1-.6-.5.5zm-.8 3.2l-.1-.6-.6.5z"/></g><g fill="#a84d3b"><path d="M243.2 61.1l-.1.5h.4zm.2 1.3l-.3-.4-.1.5zm3.9-.7l-.3-.3-.2.4zm3.4-.9l.3.3.2-.5zm1.8-.5l.3.3.1-.5zm-.6.6l.4-.1-.3-.4zm-7.5.8l-.3-.3-.2.4zm4.7-.3l-.4-.3-.1.5zm-6.5.5l-.3-.4-.2.5zm-9.3-4.3v1.1l1-.6zm6.2 2.7l-.2.5.6-.1zm-4.1-1.5v.5l.5-.2zm-.2 1.9l-.1.5.6-.2zm.5 1.1l.1.6.5-.4zm4.8-.8l-.4-.3-.2.4zm.3-.4l.1.7.7-.5z"/><path d="M246.1 61.2l.3.4.4-.5zm-3.7-.2l.3.5.4-.5zm-5.6-1l.2.8.7-.6zm10.8 1.1l.3.5.4-.6zm-3.1 0l.2.7.7-.5zm-6.2-.5l.2.4.4-.3zm-1.8 1.8l-.1.5.5-.2zm-.5.4l-.1.4.5-.1zm3.5-1.9l.2.2.1-.2zm2.2.3l.2.2.2-.3zm3.8.3l.1.2.2-.2zm-10 1.6l-.3.1.2.2zm.3-4.1l.1.7.8-.4zm-.1 3.6l-.4.1.3.3z"/><path d="M235.4 62.7l-.1-.5-.5.4zm.5-3l.4.2v-.5zm2.9.8l.4.1-.1-.5zm-3.9-1.2v.3l.4-.1zm.9 1.2l.4.1-.1-.5zm-.1 3.6v.3l.3-.1zm-.9-3.8l-.4.1.3.3zm.1 2.8v.7l.7-.4z"/><path d="M235.1 64.2l.4-.3-.5-.2zm0-3.9l.3-.3-.4-.1zm-.6 1.1l.4-.3-.6-.3zm2.3-.3l.3.2.1-.4zm-1.7 4.2l.4-.2-.4-.3zm-1.1 2.2l.4-.2-.4-.3zm.6-9.3l.1.8.7-.2zm-.9 1.7l.3.3.2-.5zm4-.2l.2.9.8-.5zm-3.7-.4l.3.3.2-.4zm6.2 2.3l.5.2-.1-.5zm9.5-.3l.4.2V61zm-14.9 1l.7-.3-.7-.6zm-.6-4.1l-.4.7.8.1z"/><path d="M236.2 61.3l-.4-.1.1.4zm-2.4-2.4l-.4.2.4.3zm3.6.8l-.1.4.4-.1zm-2.6.4l-.7-.3v.8z"/><path d="M235.3 59h-.4l.2.4zm-1.5.3l-.1.3.4-.1zm3.3.4l-.5-.4-.1.7z"/></g><g fill="#964c38"><path d="M227 76.2v-.4l-.4.1zm-1.7-2.9l-.5.1.3.4z"/><path d="M225.2 73.4l-.5.6.8.2zm-.9-.1l-.6.2.5.5zm2.6 1.4l-.3.3.4.1zm-.9-.4l-.3.3.4.1z"/><path d="M226.6 75l-.2.3.4.1zm-2.2-.9l-.3.3.4.1z"/><path d="M223.9 73.9l-.4.4.7.3zm1.6 1.8l.3.1.1-.3zm1.2-1.3l-.1.2h.3zm.2 1l-.1.2h.3z"/><path d="M223.3 73.7l-.4.4.6.2zm.8 1.6h-.2l.1.2zm.6.8l-.1-.2-.2.1zm.7-2.4l.3-.3-.4-.1zm-1.1 0l-.3.2.4.1zm-.5.2l-.3-.1v.4z"/><path d="M223.8 73.9v-.3l-.3.1zm2.4.5l.2.3.2-.4zm-.4-.9l-.1.7.7-.2z"/><path d="M225.5 73.9l.3.3.1-.4zm-2.4 1l-.2.3h.3zm1.8-1.6l-.3-.1v.3zm-.6 1.8l.2.2.2-.3zm.8 1.2l-.2.3.4.1zm-2.1-2.1l-.2.3h.4z"/><path d="M223.9 76.3l-.3-.1.1.4zm-1.1-1.6h.3l-.2-.3z"/><path d="M222.5 75.9l.2-.1-.1-.3zm.2-1.1h.2l-.1-.3zm.7-.3v.3l.3-.2zm-1 .9h.4l-.2-.4zm.6.1v.3l.3-.2zm2-1.2l-.3.1.3.3zm1.4 1.5l.1.3.3-.2zm-2-2.2l.1.3.3-.2zm1 1.1l-.2-.3-.1.4z"/></g><path d="M238.3 68.1c-.1 0-.3 0-.4-.1-.3-.2-.4-.7-.2-1 .1-.1 1.7-2.5 5.3-2.2.4 0 .7.4.7.8s-.4.7-.8.7c-2.7-.2-3.9 1.5-3.9 1.6-.3.1-.5.2-.7.2zm14.8-2.1c-.1 0-.3 0-.4-.1-.8-.6-2-.2-2.1-.2-.4.1-.8-.1-.9-.5s.1-.8.5-.9c.1 0 1.9-.6 3.3.4.3.2.4.7.2 1-.2.2-.4.3-.6.3z" fill="#af361a"/><g fill="#4f2b23"><circle cx="241.9" cy="72" r="1.4"/><circle cx="252.3" cy="71.3" r="1.4"/></g><path d="M247.7 80.5c-.3 0-.6-.2-.7-.6s.2-.8.6-.8c0 0 1.1-.2 1.2-1.1s-.8-3.4-1.3-4.7c-.2-.4 0-.8.4-.9.4-.2.8 0 .9.4.2.4 1.5 3.8 1.4 5.4-.1 1.5-1.5 2.3-2.3 2.4-.1-.1-.2-.1-.2-.1z" fill="#b4603f"/><path d="M244.3 84.7h0a6.1 6.1 0 0 1-5.8-4.4c-.1-.4.1-.8.5-.9s.8.1.9.5a4.6 4.6 0 0 0 4.4 3.3c.4 0 .7.4.7.7 0 .5-.3.8-.7.8z" fill="#cf7653"/><g fill="#fff"><path d="M242.8 80.2c-2.8 0-5-3-5-6.6s2.3-6.6 5-6.6 5 3 5 6.6-2.3 6.6-5 6.6zm0-12.2c-2.2 0-4 2.5-4 5.6s1.8 5.6 4 5.6 4-2.5 4-5.6-1.8-5.6-4-5.6z"/><path d="M247.5 72.2l-.9-.5s.6-1 1.6-1 1.7.5 1.7.6l-.6.8s-.5-.4-1.1-.4c-.4-.1-.7.5-.7.5zm-16.94-.26l.17-1 7.5 1.3-.17 1z"/></g><path d="M227.8 48.5s-5-2-9 5c-4.4 7.8 1.3 18.1 1.3 18.1s1.7-2.5 5-2c2.7.4 3.5 1.9 4.3 2.8.8.8 4 .1 5.1-3.6.8-2.9.8-5.7-.2-7.7s-1.9-4.3-.5-3.3 3.8 2.3 7.5 2.9 10.8 1.2 14.4-1.9c3.6-3 3.8-5.6 3.7-7.7s-1.2-3.3-1.2-3.3-2 1.1-3 1.2-1.8.2-1.7-1.1c.2-3-1.5-4-1.5-4s-.7.9-1.5 1.4c-1.7 1-2.7 1.1-4.4.5-2.2-.7-4.5-2.7-9-2.8-3.2.1-6.8 1.8-9.3 5.5z" fill="#c94112"/><g fill="#ff593e"><path d="M248.8 46.2l1 .8.3-1.3-.7.3zm-9.6-2.8l.4 1.2 1-.9zm12.8.7l-.6.8 1 .1zm-3.9 3.5l-1.1.8 1.1.8zm-3.5-1.5l-.3.5.7.1zm-8.5-2.3l-.4.7.9.2zm.9.8l-.3.8.8.1zm-1.9.4l.9 1 .8-1.3z"/><path d="M238.5 45.1l-1.1.1.5 1.1zm-4.4-.9l1 .8.3-1.3zm15.5 4.8l-.4.3.4.3zm-3.6-2.1l-.4.3.5.3zm.9 1.1l.4-.5-.7-.2zm5 .6l-.4.3.5.2zm-1.3-1.2l-.5-.5-.3.8zm2.1-1.7l-.5-.5-.3.9z"/><path d="M247 48.5l-.6-.5-.3.9zm2.3-.3l-.5-.5-.3.9zm-2.3-1l-.5-.5-.3.8zm-.9-.4l.4-.7-.9-.1zm-2.6-1.6l-.6-.6-.3.9zm1.3.7l-.6-.5-.2.8zm-6.2-2l-.7-.6-.3 1zm-1.8.6l.7-.7-1-.4zm4.5-.3l-.5-.5-.3.9zm-3-.1l.7.8.6-1.1z"/><path d="M237.6 44.4l.6.9.6-1.2zm.8.6l.2 1 1-.7zm12.6 1.2l-.1-.9-.8.5zm-4.5.1l.4 1 .8-.8zm-1.8-.8l.3 1.1.8-.7zm-1.3-.7l.2 1.1.9-.6zm-8.5-1.5l.7.8.6-.9zm4.2.1l-.7-.2.1.7z"/><path d="M236.9 43.4l-.7-.2.1.8zm-1.8.2h-.7l.4.7zm13.6 7.8l-.3.3.4.2zm2.1-1.2l-.3-.2-.1.4zm-.7-1.7l.2.5.3-.4zm-4.8-2l.2.5.3-.5zm3.9 3.5l-.3.3.4.1zm-10.7.1l-.3.3.4.1zm10.6-3.6l-.7.6.9.5zm-.9 4.4l-.4-.2v.4zm.3-1l.3.1-.1-.4zm-2.7-.1l.6.1-.2-.7z"/><path d="M248.4 47.1l.3-.8-1 .1zm-3 3.2v.4l.4-.1zm2.2-2.6l.4-.6-.8-.2zm-5.6-2.6l.4-.6-.9-.3zm-4.4-1.1l.4-.6-.9-.1zm12 7.5v.4l.4-.1zm-2.3 0l-.5.1.3.3zm-7.2.7l-.5.1.3.4zm6 .2h-.4l.2.4zm5-4.8l.3.5.3-.6zm-6.8 4.2l.3-.5h-.6zm-3-7.7l-.9.1.5.9zm4.8 4.1l.4-.8h-1zm-6 .4l-.8.5.8.5zm2.9 1.3l-.7.4.7.4zm-2.7.6l.2.3.2-.4z"/><path d="M238.6 48l-.2.3h.4zm3.3 2.9l-.3-.1v.3zm-1.1-1.6l-.3.5.7.1zm2.5 3.7l-.3-.1.1.4zm-5.4-6.9l-.2 1 1.1-.4zm-.9 4l.2.8.7-.6zm5.6-5.3l-1.2.6 1 .9.4-.6zm-1 1.3l-.8.4.7.7.3-.6z"/><path d="M241.7 47.4l-.7-.4-.6.1.2 1.4zm-5.2 2.7l-.9.5 1 .5zm5.5-4.5l-1.6-.2.6 1.3zm-1.4-.9l-.6-.2-.7.2.6 1zm5.1 2.3l-1.3-.3.2 1.4z"/><path d="M246.2 47.9l-1.3-.3.2 1.4z"/><path d="M245.5 49.2l-.5-.8-.6.9zm-5.7-2l-.7-1-.6.5-.2.6zm-1.1.8l-.9-.5-.2 1.2zm-1-1.4l-.7-1-.8 1.2zm6.1 3l.4-.9-1.2-.1zm-2.1.1l.9-.4-.7-.8zm8.5-2.9l.7-.2-.6-.6zM236 50l.9-.3-.7-.8z"/><path d="M232.1 49.8l.7-.3-.5-.6zm18.9-4.6l.5.5.3-.8zm-9.6 3.9l-.2-.9-.9.6zm-.1-2.9l-1.3-.4.2 1.4zm3 .2l-1.3-.3.2 1.4zm-.3 1.5l-1.2-.3.1 1.4zm-1.5-.2l-.7.4.6.6zm-2.9 2.8l-.3-.3-.1.4z"/><path d="M239 49.3l-.5-.6-.3.9zm2.3-1.1l.2.5.4-.5zm1.8-2.5l-.1.5.5-.2zm1.4 2.6l-.3-.8-.7.7zm-3.8-.7l-.8-.3v1z"/><path d="M239.9 47.7l-.8-.4v1zm-1.8-.9l-.7-.3v.9zm5.9.5l-.1-.3-.4.3zm1.1 3.8v.5l.5-.2zm-1.6.7h-.4l.2.4zm.5-1.5v.4l.5-.2zm-1.2-1.9l.1-.5-.6.1zm.2-1.9l-.9.2-.1.4 1 .7zm-.4-.3l-.3.3h.4zm.8 2.2l-.2.3h.5zm-1.7 1.6l-.2.4h.4zm2.8-3.4l-.2-.2-.2.4zm3.3 3.1l.1-.5-.5.1zm-.9 1.1l.1-.4h-.5zm-9.5 1.4l.1-.5-.5.1zm9.2-3.6l.1.6.6-.4z"/><path d="M238.7 46l.6.7.4-1zm4.7 1.1l.1.5.5-.3zm3.6 2.7l-.2-.3-.2.4zm-10.4 3l-.3-.3-.2.4zm6.8-3.2l-.4.1.4.3zm-.6-.4l-.1-.4-.3.3zm-21.9 1.5l1.4.5-.1-1.7zm14.7.2l-.5.1.3.4zm-3.3-3.1l-1.1.2.8 1zm-2.9 2.8l-.3-.4-.3.4zm3.8.7l-.3-.6-.5.5zm-8.3-1.1v1l1.1-.4zm9.1-4.1v1l1-.4zm1.8-.1l-.1.6.7-.3zm-.2 1.2v.6l.6-.2zm-17 6.9l-.6 1.5 1.4-.1zm-.7 1.6l-.3 1.3 1.2-.6zm2.8 1.9v.6l.6-.2zm-1.4-.1v.5l.6-.2zm9.1-9.7l-.4.8h1zm-1.7 3.1l-.2-.4-.4.4zm-.3.9l-.4-.8-.6.7zm6.9-3.4l-.4.9h1.1zm-2.3 2.4v.5l.5-.2z"/><path d="M223.3 55.1v.4l.5-.1zm-.4 2.6l-.5-.1.1.5zm-2.6-2l-.1 1.1 1-.4zm-1.5 0v1.1l1-.4zm1.1 3.2l-.1.5.6-.2zm16.4-12.1l-.1 1.3 1.5-.5zm-2.2 1.4l1.1.4-.1-1.4zm-1.6-1.9l1 .4-.1-1.2zm3.2.1l-.8.1.5.8zm-13.8 10.8h.4l-.1-.4zm.4-2.3v.3l.3-.2zm4.3.8l-.3.2.3.2zm-4.5 3.7l-.3.2.3.2zm-1.6 1.1l-.2.2.3.2zm4-5.1l.1.3.3-.3zm-1.8.6l.2.5.4-.5zm4.4-.8l-.2.1.3.2zm8.1-6.1l-.4-.4-.2.6zm16.5-2.2l.5.4.1-.6zm3.1 2.4l.6.9.6-1-.7.1zm3.4-1.3l-.8.6.9.4zm-3.6 4.2l-.5.1.4.4zm2.4.1l-.5.2.4.4zm-.9-1.4l-.4-.7-.5.8zm2.4-1.1l-.4-.6-.5.7zm-3.9 1.5l-.4-.6-.5.7zm-1-1.7l-.4-.7-.4.8zm3.3 0v-.9l-.9.4zm-1.5 4l-.2-.3-.2.4zm-.1-1.8v.5l.5-.3zM254 53l-.4.2.4.3zm.6-3.7l-1 .1.5.9z"/><path d="M253.3 52.7l.3.2v-.4zm-.1-2.2l.3.2v-.5zm3.2.7l.2.6.4-.6zm-.6-1l.7-.1-.4-.7zm1.1-1.4l.4.6.5-.6zm.3 1.9l.4.5.3-.6zm-30-2.3l.1.9 1-.5zm-6.1 5l.3.5.3-.5zm-1-.7l.4.8.6-.9zm.3-1.4l.7.7.3-1.1zm11-4.9l-.2.4.5.1zm-.6-.2l-.2.5h.5zm5.3 2.1l-1-.2.3 1.1zm-.7 1.3l-.8-.2.2 1zm10.1.1l-.9-.2.3 1zm-14.1-3.5l.5-.7-1.1-.2z"/><path d="M231.5 47.3l-.6-.7-.4 1zm-.6-.9l-.3-.9-.8.7zm-.8 1l.5-.8-1-.2zm3.3-1.3l.5.1-.1-.6zm-.9.1l-.8-.3.1.9zm-.9-1.3l.1.6.6-.3zm3.6.1l-1.2.5 1 1zm-15.3 13.1v.4l.5-.1zm1.2-4.8h-.4l.2.4zm-2.4 6.1l-.4.1.3.3zm.6-.5l-.1-.4-.3.4zm0-4.1l.9.6.2-1.2zm3.6-1.8l.4.1v-.5zm-2.7-1.5l-.5.8 1.1.2zm1.3 3.8l-.1.7.8-.3zm.9-3.7l-.8-.1.2.9zm1.3 2.1l-.9.1.5.8zm-1.2-1.2l-.9.1.6.8zm2.1-2.2l-.8.1.5.8zm-5.9 3.5l1.4.2-.5-1.6zm-1.1 3.4l-.3 1.2 1.5-.3zm4.2-.9l-.6.2.5.6zm-2.5.7l.7.2-.1-.8zm1.2 1.9v.4l.4-.2zm-1.2.9l-.3.1.2.3zm8.7-9.3l-.5.4.6.3zm-.8-1.1l-.5.3.6.4zm-2-.3l-.8.6 1 .5z"/><path d="M228.6 48.9l-.4.3.4.3zm-2.1 1.8l-.4.3.5.3zm1.1-.2l.3.3.2-.4zm-6.9 3.7l.3.7.6-.6zm3.1-1.7l.2.3.2-.4zm7.2-3.6l.2.3.2-.4zm-1.4.2l.2.2.2-.3zm-.4-.8l.4.4.3-.6zm-5.2 3.1l.2.3.2-.4zm3.1-1.2l-.4.3.5.3zm-.8 0l.3-.6h-.8zm-.7-1l.3-.9h-1.1zm2.4.8l-.3-.2-.1.4zm-1.1 1.2l-.3.2.4.2zm-1.5-.3l-.3-.3-.1.5zm-6.4 9.9l.3-.3-.4-.2zm-1.3 1.8l.2-.2-.3-.2zm.3-1.4l.3-.3-.4-.1zm-.3 2.1l.3.3.1-.5zm.5-1.1l.5-.2-.5-.3z"/><path d="M219.3 61.8l.4-.2-.4-.3zm-1.9-2.9l.5.5.3-.7zm.4.6l-.5.8 1.2.1zm-.5 1.2v.9l.7-.4zm.4 2l-.2.3.4.1zm5.2-11l.6.5.3-.9z"/><path d="M223 49.1l-.4.9 1 .1zm.7 1.9l-.2.3.5.1zm-.7-.5l-.3.6.8.1zm3.5 1.6l-.7-.2.2.8zm-3.3 0l-.6-.1.1.7zm11-4.4l-.8-.2.2.9zm-1.4-.3l.5.2V47zm.3-3.4l.9.8.3-1.2zm-1.2 2.9l-.1.9.9-.3zm0-2.2l.8.7.4-1.1zm-3.2 2.9l1 .2-.3-1.1zm4.3.5l-.5-.1.1.5z"/><path d="M232 50.5l-.3-.1.1.5zm-7 1.6l-.3-.1.1.5zm1.1-3.8l.4.8.6-.8zm6.8-3.6l.7.6.3-.9zm-9.6 4.2l.9.8.4-1.3zm3.6 4.4l.3.4.2-.6zm6.7-3.2l.4.3.2-.4zm-3.7-1.7l.3.6.5-.5zm1-.8l-.4.5.7.1zm-1.1-.3l.3.6.5-.6zm-.9.6l.3.6.5-.5zm.3 1.7l-.4-.1.1.4zm1.6.5l-.4-.1.1.5zm-3.4 3.6l.3.3.2-.5zm-.1-1.4l-.1.3.4.1zm-1.9-.6l-.2-.4-.4.4z"/><path d="M225.9 54v.5l.5-.2zm-.9-2.2l-.4.4.5.3z"/><path d="M224.7 51.8l.2.3.2-.4zm-2.2 1.7l-.6.4.8.3zm1.5.4l.4.3.1-.5zm2.1-1.1l.4.3.1-.5zm-1.7 2.2l.3.3.2-.5zm.5-2.3l-.2.3h.5zm12.8-4.1l-.9-.3.2 1.1zm-6.7.6l-.4-.1.1.5zm-5.2 4.8l-.4-.1.1.5z"/></g><g fill="#af2500"><path d="M238.1 59.4l.4-.5-.7-.1zm7.4 1.8l.5-.7-.9-.2zm1.9 0l-.9-1.2-.9 1.2zm-3.4-.1l1.2.1-.3-1.2zm-7.2-2.7l.4-.2-.4-.3zm-.9-1.1l-.3.4.6.2zm-2.4-.1l.5.4.2-.6zm2.3 1l.5.6.4-.9z"/><path d="M236.7 58.5l-.6.6.9.4zm7.5 2.6l-.3-1-1 .9zm-6-1.2l-.2-1.1-.9.7zm2.1.5l-.4-1-.8.8zm-6.6-4.1l.3-.2-.3-.3zm3.8 2.6l-.2-.5-.4.4zm7-2.9l.4-.2-.4-.2zm-8.9-.1l.3.3.1-.4zm1.2.7l-.5-.1.1.6zm1.2 0v-.4l-.4.1zm-3.4-1.4h.4l-.2-.4zm7.8.5l.4-.1-.2-.4zm-4.2-.6h.4l-.2-.5zm.8.5l-.3.4.5.1zm2.3 5.1l.9.2-.2-1zm-4.5-3.6l-.5.8 1 .1zm5.4-.2l-.1-.3-.3.3zm1.9 1.6l.5-.5-.7-.2zm-2.5-2.4l.2.2.1-.3zm-.8-.9l.2.1v-.4zm4 4.9l.2-1-1.1.3zm-4.5.4l1 .1-.2-1.1-.6.2z"/><path d="M241.1 59.7l.8-.3-.6-.7-.4.5zm1 .9l.6.3.6-.1-.4-1.1zm.8-1.8l.7 1.1.6-.4.3-.7zm1.8-.9l.7.4.2-.9zm.3 1.7l.6 1.1.9-1.1zm-6.1-.5l-.7.8 1.1.3zm1.3-1.1l-1 .3.7.9zm6.7-1.3l-.6.2.4.5z"/><path d="M250.9 57l-.7.2.4.6zm-9.5 2.7l1.2.4v-1.4zm-6.6-1.3l1 .5-.1-.9zm5.6-.3l.8-.3-.6-.7zm2.4-.9l.3.3.2-.4zm-1.2.4l-.1-.4-.4.4zm-2 2.4v-.5l-.5.1zm-1.9-2.2l.2.8.7-.6z"/><path d="M241.4 58.3l.7.5.1-1zm1.1 0l.7.4.1-1zm2.1 1l.7.5.1-1zm-5.8-1.1l.1.4.3-.3zm1.4-.9l-.2.5.5-.1zm0 2.1l.9-.1.2-.4-1-.8z"/><path d="M240.1 59.5l.3-.2-.3-.1zm-.6-2.3l.2-.3h-.4zm1.1-1l.2-.3-.3-.1zm-2.4 2.7l.2.3.3-.4zm-3.1-1.8l-.1.5.5-.1zm2.6.5V57l-.6.3zm6.3 2.5l-.6-.8-.5 1zm-4.7-1.6V58l-.5.3zm-4.6-2.2l.2.4.2-.5zm11.4-.5l.2.4.2-.4zm-6.5.3l.4-.1-.3-.4zm.6.4l.1.4.3-.3zm-5.5 11.7l-1.4.3.9 1.3zm10.2-11.1h.5l-.3-.5zm5.7 2l1-.1-.6-.9zm2.9-3.8l.2.5.3-.4zm-3.4.4l.1.4.3-.3zm-18.6 15l-.5-1-.8.9zm17.1-10.2l.2-1-1.1.3zm-1.8-.1l.1-.5-.6.1zm.3-1.2l.2-.6-.7.2zm-11.9 4.9l-.3-1.6-1.2.8zm-.4-1.7l-.4-1.3-.7 1.1zm-3.3-.4l-.3-.5-.4.5zm1.3-.5l-.3-.5-.4.5zm-3.6 9.8l-.1-.9-.9.5zm.4-.5l.4.3.1-.6zm-.1-.8l.6.4.2-.9zm20.1-11.8l.3-.6h-.8zm2.5-2l.1-.5-.5.1zm-21.6 9.4l-.2-.5-.4.4zm-.9-2.5l.4-.2-.3-.4z"/><path d="M232.8 63.6l-.5-1-.7.8zm1.3-.8l-.5-1-.7.9zm-2.5-2.3l-.2-.4-.4.4zm14.8-1l.3-1.3-1.5.4zm2.4-1.1l-1.1-.5v1.4zm1.3 2l-.9-.4v1.1zm5.1-1.1l-.9-.5-.2 1.1zm-8.2.8h.8l-.4-.9zM230.6 63l-.3.2.3.3zm.9 2.2l-.2-.2-.1.3zm-4.2 1.4l.2-.3h-.4zm2.1-5.4l.2-.3h-.4zm.8-1.7l.2-.3-.4-.1zm-.9 6.4l-.3-.3-.1.5zm1.3-1.4l-.4-.3-.2.6zm-3.5 2.9l.2-.3h-.4zm20.7-10l.4.4.2-.6zm-17 15.2l-.4-.9-.7.8zm2.4-6.7l-.5-.3-.1.7zm1.3.2l-.8-.5-.1 1zm.3 1.4l-.9-.3.2 1.1zm16.4-7l.3-.4-.5-.1zm.6.2l.6-.2-.8-.3zm-5.1-2.4l.7.2-.1-.8z"/><path d="M247.7 56.9l.6.2-.1-.7zm-9.8.1l.8.3-.1-1zm13.3 2.5l.6.8.5-.9z"/><path d="M252.2 59l-.6.8 1 .2zm-2.9 1.6l-.6-.2.1.6zm.8.4l1.2-.2-.4-.8zm-2.6.2h1.2l-1-1.2zm-15.5 0l-.2-.4-.4.4zm1.3 4.8l.3-.2-.3-.3zm-.9-6.4l.3-.3-.5-.1zm-.3.7l.3.2.1-.4zm2 3.6l-1-.2.4 1.2zm-2.2 3.3l-.5.1.3.4zm3 0l.1-1-1.1.4zm-2.9-2.7l-.3-.7-.6.6zm1 3.7l.7-.3-.6-.7zm-2.2-1.3l.7-.5-.8-.5zm1.7.5l.6-.5-.8-.4zm-.9 3l.7-.5-.8-.5zm3.6-6l-1.4.6 1.3 1.1zm-.9-3.4l-.5-1.2-1 1.1zm-3.2 2.8l.5-.5-.7-.3zm1.9-1.9l-.7.2.6.7zm-1.9-1l-.3-.4-.2.4zm.5-1.4l.3-.3-.4-.1zm-4 10.9l.3-.6h-.7zm2.3 2l.2-.5h-.6zm1.8-.7l.5-.9H231zm-3.4-1l.2-.5h-.5zm1.5.2l.2-.4h-.5zm.4-1.9l-.4-.2.1.5zm3-4l-.7-.5-.2.9zm-1.9 3.1l-.3-.2v.4zM251.9 58l-.2-.3-.2.3zm1.4 0l-.2-.3-.2.3zm.3.8l-.3-.4-.4.5zm-21.9 10.3l-.4-.1v.4zm-2.2 2.6l.2-.5h-.5zm.7-.4l.1.7.7-.4z"/><path d="M231.5 71.5l.2.9.9-.6zm-2.3.4h.4l-.1-.4zm0-1.2l.2-.3h-.5zm1.5-.4h.4l-.2-.4zm.7-11.9l-.1.5.5-.1zm1.4-1.2l-.1.4.4-.1zm-.6 1.1l-.1.4.4-.1zm-.3-1.4l-.4-.1.1.4zm.3.7l-.2.4h.5zm1.3 3.6l-.2.3.5.1zm.1-1.7l-.6-.2.1.8zm-.1-.1l-.3-1-.9.7z"/><path d="M233.2 58.4v-.7l-.6.3zm-.7 9.9l-.8-.1.2.9z"/><path d="M233.7 70.6l-.1-1-1 .5zm-1.6-1.3v-.4l-.4.2zm.9.1v-.8l-.8.4zm-3.9.4l.8-.2-.6-.6zm2.9-1.7l.7-.2-.6-.6zm16.6-9.2l.8.3-.1-.9zm1.6.8l-.6-.3v.7zm.5.3l.3-.9-1.1.2zm3.3 0l-.9-.7v1zm-4.1-1.4l.4.2-.1-.6zm1.1-2.3l.4.1V56zM230.4 69l.4-.1-.3-.3zm1.3 3.4l-.6-.7-.4.9zm1.9-1.6l-1.2-.4.1 1.3zm-5.4-2l-.5-.1.2.5zm21.2-12.3l-.3-.3-.2.4zm6 2.7v-1.1l-1.1.6zm-1.5-1.2l.9.3v-.9z"/><path d="M254 57l-.6.3.6.5zm1 1.4l.8.3-.1-1zm.7-3.7l.3.3.1-.5zm-.6 2.3l.5-.2-.4-.4zm3.7-3.1l.2.3.3-.4zm-2.3 3.2l-.1-.6-.5.3zm2-1.3l.3-.7h-.8zm-2.4 2.7l.9-.9-1.4-.5zm1.9-2l-1.2-.2.3 1.3zm-.3-.6l.4.3.1-.6zm-2 .3l.7.1-.3-.8zm1.4-1l.6.1-.3-.7zm2-.6l-.4-.3-.1.5zm-6.2 4l-.1-.6-.6.5zm-1 .8l.4-.5-.7-.2zm1 .4l-.2-.6-.5.4zm.9-.6l-.1-.6-.6.5zm.3-2.9l.4.2V56zm-1.8.6l.3.1v-.5zm-24.7 11.8l-.5-.1.1.5zm.7 1.3v-.4l-.4.2zm2-.4l.4.2.1-.5zm-1.5-1.9l-.3-.4-.3.5zm2.7 1.4l.2-.5-.6-.1zm-.6 0l-.4-.2.1.5zm1.1-2.6l.2-.6-.7.1zm-1.5.4l-.5-.1.1.6zm-1.4 2l-.5-.1.2.5zm.5-2.7l-.5-.1.1.5zm.7 2.2l-.1-.3-.4.2zm3.5-10.5l.9.4-.1-.7zm18.2-.2l.3.1v-.4zm-23.1 10l.3-.1-.3-.4z"/></g><path d="M253.5 77.1c-1.8 0-3.3-2.5-3.3-5.3s1.5-5.3 3.3-5.3c.3 0 .7.1 1 .2v-1.1c-.3-.1-.6-.2-.9-.2-2.4 0-4.3 2.9-4.3 6.4s1.9 6.4 4.3 6.4h.4l.1-1c-.3-.2-.5-.1-.6-.1z" fill="#fff"/><path d="M257.8 71.7c0-3-1.4-5.6-3.4-6.2v1.1c1.3.7 2.3 2.7 2.3 5.1 0 2.6-1.2 4.8-2.8 5.2l-.1 1c2.3-.2 4-2.9 4-6.2z" fill="#ccc"/></svg>