<svg xmlns="http://www.w3.org/2000/svg" viewBox="0 0 480 480" xmlns:v="https://vecta.io/nano"><path d="M226.1 79l-7.5 24.5-2.2 5.7s3.2 4.1 10.8 5.7c5.2 1.1 8.7 1.2 11 1 1.9-.2 4.2-.6 3-4.1-1.7-5.2-1.1-8.5-1.1-8.5l2.7-14.7-16.7-9.6z" fill="#ea9d7d"/><linearGradient id="A" gradientUnits="userSpaceOnUse" x1="229.18" y1="95.91" x2="236.05" y2="87.07"><stop offset="0" stop-color="#bc5a32" stop-opacity="0"/><stop offset=".99" stop-color="#bc5a32"/></linearGradient><path d="M224.9 92.3a26.6 26.6 0 0 0 9.4 8.2c3.5 1.7 6 2.1 6 2.1l2.2-12.2L226 79l-.9 1.7-.7 2.8c0 .1-1.8 5.2.5 8.8z" fill="url(#A)"/><path d="M216.9 109.4h-.1c-.2-.1-.3-.3-.3-.5l4.7-14.4c.9-3 3.6-13.1 3.6-13.1.1-.2.3-.3.5-.3.2.1.3.3.3.5L222 94.7c-.8 2.7-4.7 14.3-4.7 14.3 0 .3-.2.4-.4.4z" fill="#cf7653"/><g fill="#a84d3b"><path d="M228.9 84.9l.2.4.4-.4z"/><path d="M228.9 84.2l-.3.9 1.1-.1zm5.3 3.9v1l1.1-.5zm-2.7-1.8l-.1 1.1 1.1-.4zm-1.5-1.1l-.2 1.1 1.2-.3z"/><path d="M228.2 83.2l-.4 1h1.2zm7.5 7.2l-.5-.6-.4.7zm-1.4-1.1l-.6-.8-.3.9zm4.1 2.2l-.7-.8-.2.9zm3 1l-.7-.8-.3.9zm-5.3-3.5l-.6-.3v.8zm1.4 3l-.5-.5-.3.7zm-3.9-4l-.6-.3-.1.8zm5.3 2.1l-1-.4.1 1.2zm1.9.3l-.8-.1.2 1zm1.3 1.6h-.8l.3.8zm-2.8-.2l-.3-.7-.5.8zm2.4 2.3l.1-.7-.8.2zm-.2 1.4l.1-.8-.8.2zm-1.7-.1l-.4.4.5.2zm.3-3.8l-.4.3.6.3zm2.3-.8l-.6-.1.2.7zm-1.9 5.8l-.4.3.6.3zm-9.9-10.4l-.4.3.5.3zm-3.4-4.6l-.4.3.5.3zm10.1 9.4l-.3-.3-.1.6zm-2.8-.8l.1-.4h-.5zm1.4.9l.2-.4h-.5zm2.1 2l.2.5.4-.4zm2.9-2l-.3.3.4.2z"/><path d="M241.1 90.6l-.5.4.6.4zm-1.2.4l-.4.3.4.2zm.4 7.1l-.4.3.4.2zm-1.1-1.1l.2.4.3-.4zm-.1-2.4l.2.4.3-.4zm1.9 1l-.3-.3-.1.5zm-13.9-4.8l.2.2.2-.3zm1.9-1.2l-.2.2h.3zm2 3.5l-.3-.1.1.4zm-1-1.7l-.2.4h.4zm6.9 3.2l-.1.6.6-.2zm-.9-4.5v.5l.5-.2zm0-1v.5l.6-.2zm-7.7-3.1v.6l.5-.3zm12 7.3l-.5.1.4.4zm-1.5 4.2l-.2-.4-.4.4zm.3-5.2l.3.5.3-.5zm1.6.6l.3.5.3-.5zm1-1.9l-.3.4.5.2zm-.6 3.2l-.4-.3v.6zm-11.3-8.9l-.6.5.7.3zm-2 .8l-.3-.2-.1.4zm-2-1l-.2-.2-.1.4zm-.5 3.1l.1-.4-.4.1z"/><path d="M229.1 86l.2.4.4-.4zm-1.2-1l.3.6.5-.5zm-.2-2.7l-.4.6.8.1zm3 4.8l-.3.2.4.3zm.8-.4l-.3.2.3.2zm.8.4l-.3.2.3.3zm-1.5 2.7l-.2-.2-.1.4zm-6-3.4l.2.3.3-.4zm2.3-2.3l-.3.2.4.2zm-.1 3.8l-.3-.2-.1.4zm.3-4.2l.2.4.3-.5zm1 .6l.2.4.3-.4zm-2.3-1.1l-.3.3.4.1zm.3-1l-.3-.2-.1.4zm5.3 5.5v.4l.5-.2zm1.9.8l-.4.1.3.4zm-.8-.7l-.4.1.3.3zm6.7 2.9l-.4.1.3.3zm-1.5-.6l-.3.1.2.3zm-4.7.7l-.1-.3-.3.3zm5.6 5l-.2-.3-.2.3zm-6.1-6l-.2-.3-.3.3zm2.6-.6v.5l.4-.2zm1.6.4v.4l.4-.2zm1.8.9l-.4.1.3.3zm-1.4 2l-.2-.3-.2.4zm-4.3-.1v.5l.4-.2zm1.9-1l-.3.1.2.3zm3.4.8l-.1-.3-.3.3z"/></g><path d="M250.4 55s2.9 4.7 3.4 6.9a20.1 20.1 0 0 1 .6 4.9c0 4.2-.3 10.1-.8 13.4-1 5.7-3.7 9.1-6.9 10.1s-9-1.1-12.9-3.1c-3.3-1.7-5.2-3.5-5.7-5.6-.5-2.2-1.5-5-1.5-5l.2-6.5 7.7-16.4 15.9 1.3z" fill="#ea9d7d"/><linearGradient id="B" gradientUnits="userSpaceOnUse" x1="241.43" y1="65.85" x2="238.43" y2="58.92"><stop offset="0" stop-color="#bc5a32" stop-opacity="0"/><stop offset=".99" stop-color="#bc5a32"/></linearGradient><path d="M230.6 73.1s5.8-6.5 9.5-7.9c7.1-2.9 14-2.6 14-2.6l-1.1-3.5-17.7-.9-7 10.8 2.3 4.1z" fill="url(#B)"/><ellipse cx="224.4" cy="75.5" rx="5.3" ry="5.7" fill="#ea9d7d"/><path d="M224.4 81.7c-3.2 0-5.8-2.8-5.8-6.1s2.6-6.1 5.8-6.1 5.8 2.8 5.8 6.1-2.6 6.1-5.8 6.1zm0-11.4c-2.7 0-4.9 2.4-4.9 5.3s2.2 5.3 4.9 5.3 4.9-2.4 4.9-5.3-2.2-5.3-4.9-5.3z" fill="#b76349"/><linearGradient id="C" gradientUnits="userSpaceOnUse" x1="224.49" y1="78.86" x2="224.82" y2="73.54"><stop offset="0" stop-color="#cc7a5e" stop-opacity="0"/><stop offset=".92" stop-color="#aa5f4b"/></linearGradient><ellipse cx="224.7" cy="75.5" rx="2.4" ry="2.5" fill="url(#C)"/><path d="M230.2 71.9l-1.7 1.5-.7 5.6.3 1.6s2.4-1.3 2.6-3.9-.5-4.8-.5-4.8z" fill="#ea9d7d"/><path d="M243.4 90.8c-1.1 0-2-.2-4-.7a26.5 26.5 0 0 1-10-5.5c-2.2-2.2-2-4.3-2-4.4 0-.2 0-.5.2-.5s.3.2.4.4c.1.4.1 2.1 1.9 3.9a25.8 25.8 0 0 0 9.6 5.3c3.1.7 3.7.9 6 .7 2.2-.2 3.5-1.1 3.5-1.1.3-.2.6-.3.4 0-.2.2-1.8 1.5-3.8 1.8l-2.2.1z" fill="#b76349"/><g fill="#f4b9a6"><path d="M243.7 75.6l.7-.5-.9-.4zm-8.8-.3l-.2-.5-.5.5zm11.7 1l.9.5.1-1.2zm-2.7-5.2l1.3.8.2-1.5z"/><path d="M243.9 70.4l1.3-.9-1.3-.9zm3 8.9l1.3-.8-1.3-.9zm1.3-1.6l.5-1.5-1.6.1zm-4.8-2.9l-.8.2.5.7zm.6-1.1l-.9.2.6.7zm-.2 4.3l.3.7.7-.6zm.4 1.5l.7.4.2-.9zm4.1 2.4l-.8.3.6.6zM245 64.8l-.3.6.9-.1zm.8 4.9l-.7-.1.3.8zm.7-2.5h-.7l.3.7zm-5.8 1.5l-.1.8.9-.3zm1.9-1.4l-.7.5.8.4zm-3.2 1.1l-.5.1.3.5zm7.5 13.5l-.7.2.5.6zm-.8-.4l-.7.2.5.6zm-6-4.4l-.7.1.4.6zm1.7 1.3l-.7.1.4.6zm-2.3-3.6l-.1.7.8-.3zm3.6-.7l-.2-.6-.6.5zm7.4 5.8l.3-.5h-.7zm-2.9-2.1l.4.1v-.4zm4.5-4.6v.5l.4-.2zm-2.1 2.3l.5.1-.1-.6z"/><path d="M252.3 74l.1-.4h-.5zm-14.6-3.8l-.3.4h.6zm6.5-3.2l.9-.3-.7-.7zm.9 10.2l1.8-.5-1.5-1.4zm-1.4-6.7l-.7-.2.2.8zm-5.2 4.8v-.7l-.8.4zm4-6.8l.1.8.8-.5zm-1.1 1.5l.1.8.9-.5zm1-.6v.8l.9-.5zm7.4-.9l.7.3V68zm-6 4.3l-.4-.5-.4.6zm3.4 8.3l-.6.2.5.6zm-3.1-4.3l-.2.5.7-.1zm.7 3.4l-.3-.5-.3.6zm1 .6l.5-.5-.7-.2zm.3-1.3l.5-.4-.7-.4z"/><path d="M246 78.7l.6-.4-.8-.3zm-.4-3l.5-.4-.7-.4zm-1.4.2l.5.4.2-.6zm6 4.8l-.6.1.5.5zM247 75l-.2.5h.7zm1.6 6.1l-.4-.4-.3.6zm-3.5 2.1l.1.6.6-.4zm-1.7-3.3l-.6.3.5.4zm-6.3-6.7l-.4-.4-.3.6zm6.7 8.2l.4.2.1-.6zm-1.8-1.1l.5.2v-.6zm-3.1.8l-.3.5h.7zm2.1 2.2l-.6-.1.2.6zm-2 .8l-.6-.1.1.6zm5.6-9.4l1.2-.4-1-.9zm-.9-2.8l.3.5.4-.6zm.1 1l.6 1 .8-1.1zm3.4-2l-.8.8 1.2.3zm-7.4 2v-.5l-.6.3zm6.3-.4l-.4.4.6.2zm-2.3-3.5l.7-.2-.5-.5zm4.5 1.5l.7-.2-.6-.5zm-4.8.1l.7-.2-.6-.5zm4.9-3.4l.7-.2-.5-.5zm-2.4-1.5l-.5.3.7.3zm-5.5 2.1v-.6l-.6.3zm.8 8.8l-.1.8.9-.3zm-1.1-.4l-.7.1.4.7zm1.5 3.1l-.1.7.8-.3zm1-3l.1.9.8-.5zm-.7 1.6l.1.8.9-.5zm-.9-2.3v-.5l-.6.3z"/><path d="M250 70.8l.7-.1-.5-.6zm-2.6-2.3l.3.5.4-.5zm5.2 8l.6-.2-.5-.4zm-10.8-8.8v-.6l-.6.3zm4.3 1.2l-.1.7.8-.3zm-.9-1.3l-.1.7.8-.3zm.5 6.6l1.2.8.4-1.4zm2.9.1l1.4-.5-1-1.2zm-3.2.6l.4.2-.1-.5zm-.6-2.8l-.2.5h.7zm1.2-1.5l-.7.1.4.7zm2.2.3l-.7.1.4.7z"/><path d="M245.5 72l1.5-.9-1.6-1zm2.2-5.8l.4-.7h-1zm-1.1 11.5l.4-.7-1-.1zm-1.3-3.8l1.3-.8-1.4-.8zm.9-5.9l.4.3.2-.5zm1.5 1.1l-.7 1 1.5.1zm1-1.5l-.3.5.7.1zm.7 4.4l.4.4.3-.6zm-1.9-5l-.3.5.7.1zm-8.9 5.9l-.7.3.6.5zm1.1-2.9l-.4.6h.8zm1.4-.1l-.1-.5-.5.4zm-.8 3.2l-.1-.5-.5.4z"/></g><g fill="#a84d3b"><path d="M243.3 61.3l-.2.5h.5zm.2 1.3l-.3-.4-.2.5zm3.8-.7l-.3-.4-.1.5zm3.4-1l.3.3.1-.5zm1.8-.5l.3.3.1-.5zm-.6.6l.4-.1-.4-.4zm-7.5.9l-.3-.3-.2.4zm4.6-.3l-.3-.3-.1.4zm-6.3.5l-.4-.3-.2.4zm-7.2-2.2V61l1-.6zm3.6.7l-.2.5h.6zm-1.6.4v.5l.6-.2zm-.2 1.9l-.1.5.6-.2zm-1.3-.2l-.1.5.6-.2zm4.5-1.4l-.4-.4-.2.5zm.3-.4l.1.7.7-.5z"/><path d="M246.2 61.3l.2.5.4-.5zm-3.8-.1l.3.5.4-.5zm-3.6.1l.2.8.7-.6zm8.8-.1l.3.5.4-.5zm-3.1.1l.2.7.7-.5zm-4.5.5l.2.4.3-.3zm-3.4 1.6l-.2.4h.5zm-.6.2l-.1.5.5-.1zm3.5-2.5l.2.3.2-.3zm2.2.3l.2.2.2-.3zm3.8.3l.1.2.2-.2zm-10 2.1l-.3.1.2.3zm1.9-2.3l.1.8.7-.4zm-1.6 2h-.4l.2.3z"/><path d="M235.5 63.5l-.1-.5-.5.3zm2.6-1.6l.4.2v-.5zm.3-.9h.4l-.2-.4zm-1.4.5v.3l.4-.1zm.9 1.2l.4.1-.1-.5zm-2.4 2.2l-.1.3.4-.1zm1.4-2.4l-.3.1.2.3zm-2.1 1.2l-.2.7.8-.2zm.1 1.2l.5-.2-.5-.3zm-.8 1.3l.3-.2-.3-.2zm.2-.7l.5-.3-.5-.4zm-.3 1.4l.2.2.2-.3zm.7-.9l.5-.2-.4-.3zm-1.4 2l.4-.2-.4-.3zm3.5-7.6v.8l.8-.2zm-1.2 1.5l.4.3.1-.4z"/><path d="M237.9 60.5l-.1.8.9-.1zm-1.7 1l.3.3.1-.4zm4.5 1.1l.4.1v-.5zm9-1.1l.4.1v-.5zm-14.3 1.4l.7-.2-.7-.6zm.9-2.5l-.4.7.9.1zm2 3.1l-.3-.1v.5zm-2.4-3.3l-.4.2.4.3zm.6-.2l-.1.3h.4zm-.4 1.4l-.7-.3v.9zm1.3-.2h-.3l.1.4zm-1.4.7l-.1.3h.4zm1.8-1.2l-.5-.4-.2.7z"/></g><g fill="#964c38"><path d="M226.9 76.1v-.4l-.4.1zm-1.7-3l-.4.1.3.4z"/><path d="M225.1 73.2l-.5.6.9.3zm-.9-.1l-.6.3.5.5zm2.6 1.5l-.3.3.4.1zm-.9-.4l-.3.2.4.2z"/><path d="M226.5 74.9l-.2.2.4.2zm-2.2-.9l-.3.3.5.1z"/><path d="M223.8 73.7l-.4.5.7.2zm1.7 1.8l.2.2.1-.3zm1.1-1.2l-.1.2h.3zm.2.9l-.1.3h.3z"/><path d="M223.2 73.6l-.4.4.6.2zm.8 1.5h-.2l.1.3zm.6.9l-.1-.3-.2.2zm.8-2.4l.2-.3-.3-.2zm-1.2-.1l-.3.3.4.1zm-.5.3l-.3-.1v.3z"/><path d="M223.7 73.8v-.3l-.3.1zm2.4.4l.2.3.2-.3zm-.4-.8l-.1.6.7-.2z"/><path d="M225.4 73.8l.3.3.1-.4zm-2.4 1l-.2.2.3.1zm1.8-1.7l-.3-.1.1.4zm-.6 1.8l.2.3.2-.4zm.8 1.3l-.1.2.3.1zm-2.1-2.1l-.2.2.4.1z"/><path d="M223.8 76.2l-.3-.1.1.3zm-1.1-1.6h.3l-.2-.3z"/><path d="M222.4 75.7h.2l-.1-.3zm.2-1h.2l-.1-.3zm.7-.3v.3l.3-.2zm-1 .9h.4l-.2-.4zm.6.1v.2l.3-.2zm2-1.2l-.3.1.3.2zm1.4 1.4l.1.4.3-.2zm-2-2.2l.1.4.3-.2zm1 1.1l-.2-.2-.1.3z"/></g><g fill="#4f2b23"><circle cx="241.8" cy="71.9" r="1.4"/><circle cx="252.2" cy="71.1" r="1.4"/></g><path d="M247.6 80.4c-.3 0-.6-.2-.7-.6s.2-.8.6-.8c0 0 1.1-.2 1.2-1.1s-.8-3.4-1.3-4.7c-.2-.4 0-.8.4-.9.4-.2.8 0 .9.4.2.4 1.5 3.8 1.4 5.4-.1 1.5-1.5 2.3-2.3 2.4-.1-.1-.2-.1-.2-.1z" fill="#b4603f"/><path d="M235.7 60.1s-.2 3.6-2.2 6.8-2.2 3.2-2.1 4.3l-.2 5c-.1 1.4-1.5 1.3-2 1.3-.1 0-.8-4.8-.8-4.8s-.4-3.5-4.8-3.2c-3.2.2-4.4 3.4-4.4 3.4s-2.2-8.7-2.9-10.7c-1.1-3.4.7-5.4 2.3-6.7 1.6-1.2 3.2-1.1 3.2-1.1s-.7-5 4.8-7.6c2.7-1.3 4.9-1 7.1-1.1s4.3-.4 6.1-.4c4.4.2 5.7 2.7 5.7 2.7s8.6-3.7 12.1.9c3.5 4.5-.4 9.9-5.3 11.3-3.6 1.2-8.8 1.6-16.6-.1z" fill="#321011"/><path d="M244.2 84.5h0a6.1 6.1 0 0 1-5.8-4.4c-.1-.4.1-.8.5-.9s.8.1.9.5a4.6 4.6 0 0 0 4.4 3.3c.4 0 .7.4.7.7 0 .5-.3.8-.7.8z" fill="#cf7653"/><g fill="#633535"><path d="M249.4 47.1l-.1.6.7.3.6-1.1zm4.8 5l-.4-.2v.6zm4.3 2.1l-.4-.2v.6zm-5-1v-.5l-.5.2zm-1-5.8l-.4.8.9.1zm3.6 5.1l-.4.4.6.2zm-7.1-5.3l-.9.2.7.9zm-1.4.3l-.8.5.8.6z"/><path d="M241.5 45.8l.2 1.2 1.1-.8-.7-.2zm-11.4.2l.6 1 .8-1zm13.9.8l-.2 1 .9-.4zm13.1 1.9l-.8-.3.1 1zm-4.7.9v-1.7l-1.3.7zm1.9-.5l-1-1.4-.7 1.4zm1.2.7v-.9l-.9.3zm.6.9l.6.9.6-1z"/><path d="M257.1 48.7l-.4 1.3h1.4zm-1.4 2.7l-.3.4.5.2zm-7.3-.2l-.2.4.5.1zm3.3 1.3l-.3.4.5.1zm-11.7-6l-.7 1.1 1.4.3zm-3.8 0l-.1.7.7-.2zm-8.9.8l-.1.8.9-.2zm1.1.4v.9l.8-.3zm-1.6 1.1l1.3.6.1-1.5zm3.3-1l-1 .6 1 .8z"/><path d="M225.6 48.6l1.2.2-.3-1.3zm16.9-.7l-.3.4.6.1zm-4.7-1.2l-.2.4.5.1zm1.3.6l.1-.6-.7.2zm17.2 3.8l-.4.3.5.2zm2.2 1.8l-.4.4.5.2zm-1.6 1.3l.2.4.3-.4zm1-1.6l.2.4.3-.4zm.1.9l-.4-.3-.1.6zm-8.8.2l.4.2v-.4zm-1.6-3.2l-.1.3.4-.1zm3.3 3l-.3-.1.2.4zm-1.6-1.4l-.1.3.5-.1zm3.8 2.7h-.3l.2.3zm1.3 2.7l-.1-.3-.3.2zm1.1-4.4l.1.6.6-.4zm.1-5.5l-.1 1.1 1.1-.6zm-7.7 1.2l.2.6.5-.5zm10.6 2l-.6.6.8.4zm-2.6 3.7l-.3-.3-.3.4z"/><path d="M257.4 50.3l.4.5.3-.7zm.1 1.3l.3.5.3-.7zm-.2-.6l.4.4.2-.6zm-3 .8l-.2.5h.5zm1.4.7l-.5-.2.1.6zm-10.8-4.8l-.2.4.5.1zm3.4.3l-.4-.1.1.5zm-5.4-.8l-.8-.2.1.9zm-3.5.6l-.8-.3.2.9zm2-.9l-.7-.3.1.9zm-2.5-.3l-.8-.3.1.9zm-1.2-.2l.1-.8-.8.3zm-2.9-.2l-.8-.3.1.9zm1.4.1l-.7-.3.1.9zm-6.5.4l-.9-.3.1 1.1zm-1.5 1l.3-.9-1.1.1zm4.2-1.5l-.7-.2.1.9zm-2.9.8l.9.5.1-1.3z"/><path d="M228.9 47.6l1 .5.1-1.2zm1.1.2l.6.9.6-1.2zm13.4-.4v-.9l-.9.3zm-5.4-1.8l.6.9.6-.9zm-1.9.2l.6.9.5-1zm-1.5.1l.6.9.6-1zm-8.6 1.4l.9.6.1-1.1zm20.9 2.1l.3.4.3-.5zm2.2-.3l.3.3.2-.5z"/><path d="M249 47.6l-.8 1 1.4.5zm-2.4.3l-.7.2.5.6zM229.9 46l-.7.2.4.6zm-2.2.6l-.7.2.5.6zm-1.6.6l-.6.4.6.4zm23.5 2.8l-.4-.1v.4zm-.3 1.2l.3.4.2-.6zm-7.2-1.5l-.2.4h.5zm2.2-1.4l-.4-.1.1.4zm-1.4-.6l.4.4.1-.6zm-5.9-1.1l.4.4.1-.6zm5.3 2.2l-.2.3h.5zm-9.2 5.2l-.2.4h.5zm7.6-8.3l-.4.9h1.1zm.7 3.8l-.4-.1.1.5zm-.1-1l.4-.1-.3-.4zm-2.4.9l.5-.1-.4-.5zm1-3l.3-.8h-.9z"/><path d="M238.7 50.1l.2.3.3-.3zm1-3.4l.1-.7-.8.2zm-6.3 0l.1-.7-.8.1zm-4.7.3l.1-.8-.9.3zm14.3 2.4l.2.4.3-.3zm-2.2.9l-.3.3.4.2zm-6.5 4.9l-.3.2.3.3zm5.8-3.6l-.3.3.4.2zm9.5-3.6l.3.9.7-.1v-.6zm3-1.1h-.9l-.1.5.4.5zm-1.2 0l-.8.6.3.5.6.1zm.8 3.1l-.6-.6-.3.9zm2 3l-.2-.3-.2.4zm-2.8-3.7l-.3-.2-.1.4zm3.1-2.1v1.1h.7l.1-.8zm-1.7 3.6l.1.5.5-.4z"/><path d="M253.1 46.9l-.3.5.7.3.6-.6zm2 3.9l.1.9.5-.8zm-1.2 4.3v.5l.5-.4zm-1.2-1.5l-.3.2.3.2zm3.5-4.5l-.3-.2-.1.4zm-.2 1.6l-.3-.3-.2.4zm-1.2 1.7l-.4.4.5.2zm-1.1-4.8l.3.7.5-.7zm2.8 8.3v.6l.6-.4zm-.4-2.3l.3.5.4-.6zm.9-1.4l.3.4.3-.6zm-.2 3.1l-.2-.3-.3.4zm1-.9l-.2-.3-.2.4zm-5.2-2.4l.1.5.4-.4zm1.9-2.3l-.6.4.7.5zm.1 4.1l-.3-.3-.1.4z"/><path d="M256.7 50.1l-.3-.3-.2.4zm-2.3-.9l-.8-.1.3 1zm.7-.7l-.9-.2.3.8zm-4.4 2.3l-.1-.5-.4.3zm-.6-1.8l-.6 1 1.2.2zm-.5-.1l-.1.3h.4zm1.7 1.6v.4l.3-.2zm.4-2.4l-.8.1-.1.5.4.1zm1 1.1l-.1-.4-.4.3zm-.2 1.5l-.1-.4-.4.3z"/><path d="M252.3 49.2l.3.5.3-.6zm2.6 1l1.2.3v-1zm-1.6.3l.9 1 .5-.9zm-5.6-.7l.5.2v-.6zm-3-.2l.5.3v-.7zm5.7-.5l.7 1 .6-1.1zm4.2.2l-.3.3.4.1zm-.8.5l-.9-.4.2 1z"/><path d="M254.8 51l-.3-.2v.5zm-3 .6l-.3.3.4.1zm3.4-1.4l-.3-.2v.5zm-1.3.8l-.3.4.5.1zm2.5 1.3l.1.5.5-.3zm.8.4l.1.4.4-.3zm.8-.8l-.4.2.3.3zm-.8-.2l-.2-.3-.2.5zm.3 2l-.3-.3-.1.5zm1.3-1.5l-.3-.3-.1.5zm-7.7-.7l-.3-.3-.2.4zm-12.8.3v-.5l-.5.2zm-5.9-5.7l-.8.5.8.6zm6.1 1.7v-.9l-.9.4zm-5.4 2.8l-.5.8.9.2zm3.2.1l-.4.6.8.1zm-2.3 1.6l.4.2v-.4zm-2.6-1.8l-.1.3.4-.1zm4.3 1.6l-.3-.1.2.4zm-1.6-1.1l-.1.6.7-.2zm3.8 2.4h-.3l.2.3zm-8-4.4l.3 1 .8-.8zm.8 3.7l.5.6.3-.8zm3.1-6.5l-.8 1 1.3.4.1-.7zm-.3 1.6l-.6.7.9.3.1-.7zm.6 1.1h-.8l-.5.3.7 1.2z"/><path d="M230.1 53l-.5.8h1zm3.5-5.9l-1.6.5 1.1 1zm-1.7-.2l-.6.1-.5.4 1 .7zm5.6 0l-1.2.2.7 1.3z"/><path d="M238.4 47.5l-1.3.3.8 1.2z"/><path d="M238.3 49l-.8-.5-.2 1.1zm-6 .5l-1.1-.6-.3.7.1.7zm-.8.9l-1.1-.1.4 1.2zm-1.7-1.1l-1.1-.7-.2 1.4zm7.1.8v-1l-1.1.4zm-1.9.9l.7-.7-1-.4zm.2 2.8l.5-.5-.8-.3zm-5.5-.8l.7-.6-.9-.4z"/><path d="M228.4 54.9l.5-.5-.7-.3zm5-1.7l.7.2v-.8zm1.1-2.6l-.6-.8-.6 1zm-1.3-2.6l-1.3.2.8 1.2zm2.8-1l-1.2.2.7 1.2zm.4 1.5l-1.2.2.7 1.2zm-1.4.4l-.6.6.9.3zm-1.7 3.4l-.3-.1v.4z"/><path d="M232.3 51.5l-.8-.4.1 1zm1.8-1.7l.3.4.2-.6zm.5-3l.2.5.4-.4zm2.4 1.8l-.6-.6-.3.9zm-3.7 1h-.8l.3.8zm-.7.4l-.8-.1.4.9zm.1 2.6h-.8l.4.8zm-2.2-3h-.9l.4.9zm5.7-1.7l-.3-.3-.1.5zm2.6 3l.1.5.4-.4zm-1.3 1.3l-.3.2.3.2zm-.1-1.6l.1.4.4-.4zm-1.9-1.2l-.1-.5-.5.3zm-.6-1.8l-.7.5.1.5 1.2.2zm-.5-.1l-.1.3.3-.1zm1.7 1.6v.4l.3-.2z"/><path d="M235.2 51.3v.4l.3-.1zm1.2-4.3l-.4-.1v.5zm4.1 1.5l-.1-.5-.4.4zm-.3 1.4l-.1-.4-.4.3zm-8.3 4.5l-.1-.4-.5.3zm7.2-6.5l.3.6.4-.6zm-8.5.7l.9.4v-1.1zm5-.7l.3.5.2-.5zM240 49l-.4-.2v.4zm-8.6 6.4l-.4-.3v.5zm5.2-5.2l-.3.3.4.1zm-.7-.1l-.3-.3-.2.4zM216 59.3l1.5-.1-.8-1.5zm13.7-5.2l-.4.3.5.2zm-3-1.9l-.9.7 1.2.5zm.5 3.8l-.3-.3-.2.5zm.2-1.3l-.5-.4-.2.7zm-8 2.4l.4 1 .8-.8zm6.7-7.1l.4.9.8-.8zm1.7-.5l.3.5.4-.4zm.4 1.2l.2.5.5-.5zm-11.5 12.7l.4 1.6 1.1-.9zm.4 1.7l.4 1.3.7-1.1zm2.6-.6l.2.5.4-.4zm-1.4.4l.2.6.5-.5zm3.5-11.3v.9l.9-.5zm-.5 3.5l-.4-.3-.1.6zm.1.9l-.7-.5-.3.8zm3.7-3.8l.9-.1-.5-.9zm.1 1l.2.5.3-.4zm-5.3 7.1l.2.4.4-.3zm1.8 1.4h-.4l.3.5z"/><path d="M217.5 64.1l.3 1 .8-.8zm1.9 1.9l.2.4.4-.4zm9.3-16l.4 1.3 1.1-1.1zm-1.7 1.9l1.3-.1-.7-1.2zm-2.3-1.4l1-.1-.5-1zm3.2-.6l-.7.4.9.5zm-8.3 14.9l.3-.1-.3-.3zm-.7-2.2l.2.2.1-.3zm4.3-1.1l-.2.3.3.1zm-1.5 4l-.2.3.4.1zm-1 1.7l-.1.2.3.1zm.4-5.1l.3.2.1-.4zm-1.4 1.2l.4.4.3-.6zm3.7-2.5l-.1.2h.3zm5-8.6l-.5-.1.1.6zm-3.7.8l.5.1-.1-.6z"/><path d="M221 54.7l.5.8.6-.9zm-3.2 6.6l.6.2-.1-.6zm-1.2.1l.8.3-.1-1zM216 60l.9.3-.1-1zm7.7-9v.5l.5-.2zm-.6.1v.5l.5-.2zm6 .3l-1 .2.7 1zm-.1 1.5l-.8.2.5.8z"/><path d="M238.5 49.5l-.9.2.6.7zm-14.9 1.4l.2-.9-1 .3zm.6 1l-.8-.4v1zm-1-.6l-.5-.8-.5 1z"/><path d="M223 52.5l.1-1-1 .3zm2.5-2.2l.6-.2-.4-.5zm-.8.1l-.9.1.5.8zm-1.4-.8l.3.5.4-.6zm3.4-1l-.8.9 1.3.5zm-7.6 16.6l.2.5.4-.4zm-1.3-4l-.3.3.3.2zm.8 5.7l-.3.2.4.2zm.3-.7l-.3-.3-.1.5zm-1.6-2.7l1.1-.1-.6-1.1zm1.4-3h.5l-.3-.5zm-2.8-.1l.2 1 1-.7zm2.5 2.8l.2.7.6-.5zm-.5-3.7l-.7.4.8.6zm1.8 1.4l-.7.5.8.5zm-.5-3.5l-.7.4.8.6z"/><path d="M216.5 63.2l1.2-.9-1.6-.7zm1 3.3l.3 1.3 1.2-.9zm1.6-2.5l-.5.5.7.3zm-1 2.3l.7-.2-.5-.7zm1.9-.6l.2.3.3-.3zm-.7 1.3l-.3.3.4.2zm3-10.8l-.2.5.6.1zm-1.1-.7l-.3.5.6.1z"/><path d="M219.2 56l-.5.9 1.2.1zm3-1.5l-.2.4.5.1zm-1.1 2.5l-.3.4.6.1zm.9-.6l.4.1v-.4zm-4 5.8l.7.4v-1zm1.3-2.5l.3.2v-.4zm5.1-6.2l.3.2v-.4zm-1.2.7l.3.2V54zm-.7-.5l.5.2.1-.7zm-3.4 4.9l.3.2v-.4zm2.3-2.3l-.2.4.5.1zm-.7.3v-.7l-.8.3zm-1.1-.5v-1l-1 .6zm2.5-.4h-.3l.1.4zm-.5 1.6l-.2.3h.5zm-1.5.3l-.3-.1.1.4zm-.7 10.5l.2-.4h-.5zm-.4 2.2l.1-.4h-.4zm-.3-1.5l.1-.3h-.4zm.6 2.1l.4.1-.1-.4zm0-1.2l.3-.4-.5-.1zm.8-.8l.3-.4-.5-.1z"/><path d="M218 68l.7.3-.1-.8zm.5.8l-.1 1 1.1-.4zm.5 1.6v.3l.4-.1zm-.8-11l.7.2-.1-1z"/><path d="M217.2 57v1l1-.4zm1.4 1.4v.4l.4-.2zm-.8-.1l-.1.7.8-.3zm3.8-.1l-.7.1.5.7zm5.3-6.8l-.8.1.6.8zm-1.4-.1h.5l-.3-.4zm-.9-2.8l1 .3-.2-1.2zm-.1 2.8l.2.8.7-.6z"/><path d="M223.5 49.3l1 .3-.1-1.2zm-1.7 4l1-.3-.8-.9zm4.1-1.3l-.5.1.4.4zm.1 2.5l-.3.1.2.4zm-5.7 4.3l-.4.1.3.4zm-.4-3.8l.6.7.4-1zm4.6-5.8l.9.2-.1-.9zm-7.1 7.5l1.2.4-.1-1.3zm5.1 2.5l.4.2v-.6zm4.9-5.4l.5.2-.1-.5zm-4.2-.3l.5.4.2-.7zm.5-1.2l-.1.7.7-.2zm-1.1.2l.5.5.2-.7zm-.5.9l.5.5.2-.7zm.9 1.4l-.3.1.2.4zm1.7-.1h-.4l.3.4z"/><path d="M223.1 59.4l.4.1V59zm-.7-1.3v.4l.5-.2zm-1.9.2l-.4-.3-.2.5zm1.3 2l.3.4.3-.4zm-1.7-1.7l-.2.5.6.1z"/><path d="M219.8 58.7l.4.2v-.4zm-.2.9l-.2.6h.7zm.5 1.3l.4.2v-.6zm1.5-1.8l.4.1v-.5zm-.7 2.6l.5.2-.1-.5zm-.5-2.3v.4l.4-.1zm10.3-8.4l-1 .2.6.9zm-6.2 2.8l-.4.1.3.3zm-2.8 6.5l-.3.1.2.4z"/></g><path d="M237.9 68.6c-.6-.4-.7-1.2-.4-1.6.1-.1 1.7-2.4 5.3-2.1.4 0 1.1.2 1.1 1.2 0 .6-.4.9-.8.9-2.7-.2-3.8 1.5-3.9 1.6-.3.2-.9.3-1.3 0zm15.3-2.1c-.1 0-.3 0-.4-.1-.8-.6-2-.2-2.1-.2-.4.1-.8-.1-.9-.4-.3-.8.2-1.3.5-1.4.1 0 1.9-.6 3.3.4.3.2.6.8.1 1.5 0 .1-.3.2-.5.2z" fill="#4f2b23"/></svg>