<svg xmlns="http://www.w3.org/2000/svg" viewBox="0 0 480 480" xmlns:v="https://vecta.io/nano"><path d="M226.3 79.1l-7.5 24.5-2.2 5.7s3.2 4.1 10.8 5.7c5.2 1.1 8.7 1.2 11 1 1.9-.2 4.2-.6 3-4.1-1.7-5.2-1.1-8.5-1.1-8.5l2.7-14.7-16.7-9.6z" fill="#ea9d7d"/><linearGradient id="A" gradientUnits="userSpaceOnUse" x1="229.45" y1="96" x2="236.32" y2="87.15"><stop offset="0" stop-color="#bc5a32" stop-opacity="0"/><stop offset=".99" stop-color="#bc5a32"/></linearGradient><path d="M225.1 92.3a26.6 26.6 0 0 0 9.4 8.2c3.5 1.7 6 2.1 6 2.1l2.3-12.2-16.4-11.3-.9 1.7-.7 2.8c-.2 0-2 5.1.3 8.7z" fill="url(#A)"/><path d="M217.1 109.4h-.1c-.2-.1-.3-.3-.3-.5l4.7-14.4c.9-3 3.6-13.1 3.6-13.1.1-.2.3-.3.5-.3.2.1.3.3.3.5l-3.6 13.1c-.8 2.7-4.7 14.3-4.7 14.3 0 .3-.2.4-.4.4z" fill="#cf7653"/><g fill="#a84d3b"><path d="M229 84.9l.3.4.4-.4z"/><path d="M229.1 84.2l-.3.9 1.1-.1zm5.3 3.9v1l1.1-.5zm-2.7-1.7l-.1 1 1.1-.3zm-1.5-1.2l-.2 1.1 1.2-.3z"/><path d="M228.4 83.3l-.4.9h1.2zm7.5 7.1l-.5-.6-.4.8zm-1.4-1.1l-.6-.8-.3.9zm4.1 2.2l-.7-.8-.2.9zm3 1l-.7-.8-.3.9zm-5.3-3.5l-.7-.3v.8zm1.4 3l-.5-.5-.3.7zm-3.9-4l-.6-.3-.1.8zm5.3 2.1l-1-.4.1 1.2zm1.9.4l-.8-.2.2 1zm1.3 1.5h-.8l.3.8zm-2.8-.2l-.4-.6-.4.7zm2.4 2.3l.1-.7-.8.3zm-.2 1.4l.1-.8-.8.2zm-1.7-.1l-.4.4.5.2zm.3-3.8l-.4.3.6.3zm2.2-.7l-.5-.1.2.6zm-1.8 5.7l-.4.4.6.2zm-9.9-10.4l-.4.3.5.3zm-3.4-4.6l-.4.3.5.3zm10.1 9.4l-.3-.2-.1.5zm-2.8-.7l.1-.5-.5.1zm1.4.9l.2-.4h-.5zm2.1 1.9l.2.5.4-.4zm2.9-2l-.3.3.4.2z"/><path d="M241.3 90.6l-.5.4.6.4zm-1.2.4l-.4.3.4.2zm.4 7.1l-.4.3.4.2zm-1.1-1.1l.1.4.4-.3zm-.1-2.4l.1.4.4-.3zm1.9 1l-.3-.3-.1.5zm-13.9-4.8l.2.3.2-.4zm1.9-1.2l-.2.2.3.1zm2 3.6l-.3-.1.1.3zm-1-1.8l-.2.4h.4zm6.9 3.3l-.1.5.6-.2zm-1-4.6v.5l.6-.2zm.1-1v.6l.6-.3zm-7.8-3v.5l.6-.2zm12.1 7.3l-.5.1.4.4zm-1.5 4.1l-.2-.4-.4.4zm.3-5.2l.3.5.3-.5zm1.6.6l.3.5.3-.5zm1-1.8l-.3.3.5.2zm-.6 3.1l-.4-.2v.5zM230 85.3l-.6.5.7.4zm-2 .8l-.3-.2-.1.4zm-2-1l-.2-.2-.1.4zm-.6 3.1l.2-.4-.4.1z"/><path d="M229.3 86l.2.4.4-.4zm-1.2-1l.3.6.5-.5zm-.2-2.7l-.4.6.8.1zm3 4.9l-.3.2.4.2zm.8-.4l-.3.2.3.2zm.7.4l-.3.2.4.2zm-1.4 2.6l-.2-.2-.1.4zm-6-3.4l.2.4.3-.4zm2.3-2.3l-.3.2.4.2zm-.1 3.8l-.3-.2-.1.4zm.3-4.2l.2.4.3-.4zm.9.6l.3.4.3-.4zm-2.2-1.1l-.3.3.4.1zm.3-1l-.3-.2-.1.5zm5.3 5.5v.4l.4-.2zm1.9.8l-.4.1.3.4zm-.8-.7l-.4.1.3.3zm6.6 3h-.3l.3.4zm-1.4-.7l-.3.1.2.3zm-4.7.8l-.1-.4-.3.4zm5.6 4.9l-.2-.3-.2.3zm-6.1-6l-.2-.3-.3.3zm2.6-.5v.4l.4-.2zm1.6.3v.5l.4-.2zm1.8.9l-.4.1.3.3zm-1.4 2l-.2-.3-.2.4zm-4.3-.1v.5l.4-.2zm1.9-1l-.3.1.2.3zm3.4.8l-.1-.3-.3.3z"/></g><path d="M250.5 55s2.9 4.7 3.4 6.9a20.1 20.1 0 0 1 .6 4.9c0 4.2-.3 10.1-.8 13.4-1 5.7-3.7 9.1-6.9 10.1s-9-1.1-12.9-3.1c-3.3-1.7-5.2-3.5-5.7-5.6-.5-2.2-1.5-5-1.5-5l.2-6.5 7.7-16.4 15.9 1.3z" fill="#ea9d7d"/><linearGradient id="B" gradientUnits="userSpaceOnUse" x1="241.51" y1="65.74" x2="238.35" y2="58.44"><stop offset="0" stop-color="#bc5a32" stop-opacity="0"/><stop offset=".99" stop-color="#bc5a32"/></linearGradient><path d="M230.7 73.2s5.8-6.5 9.5-7.9c7.1-2.9 14-2.6 14-2.6l-1.9-5.8-16.4.5-7.6 11.6 2.4 4.2z" fill="url(#B)"/><ellipse cx="224.5" cy="75.6" rx="5.3" ry="5.7" fill="#ea9d7d"/><path d="M217.1 109.4h-.1c-.2-.1-.3-.3-.3-.5l4.7-14.4c.9-3 3.6-13.1 3.6-13.1.1-.2.3-.3.5-.3.2.1.3.3.3.5l-3.6 13.1c-.8 2.7-4.7 14.3-4.7 14.3-.1.3-.2.4-.4.4z" fill="#cf7653"/><path d="M224.5 81.7c-3.2 0-5.8-2.8-5.8-6.1s2.6-6.1 5.8-6.1 5.8 2.8 5.8 6.1-2.6 6.1-5.8 6.1zm0-11.4c-2.7 0-4.9 2.4-4.9 5.3s2.2 5.3 4.9 5.3 4.9-2.4 4.9-5.3-2.2-5.3-4.9-5.3z" fill="#b76349"/><linearGradient id="C" gradientUnits="userSpaceOnUse" x1="224.59" y1="78.88" x2="224.93" y2="73.55"><stop offset="0" stop-color="#cc7a5e" stop-opacity="0"/><stop offset=".92" stop-color="#aa5f4b"/></linearGradient><ellipse cx="224.8" cy="75.6" rx="2.4" ry="2.5" fill="url(#C)"/><path d="M230.3 72l-1.7 1.5-.7 5.6.3 1.6s2.4-1.3 2.6-3.9-.5-4.8-.5-4.8z" fill="#ea9d7d"/><path d="M243.5 90.8c-1.1 0-2-.2-4-.7a26.5 26.5 0 0 1-10-5.5c-2.2-2.2-2-4.3-2-4.4 0-.2 0-.5.2-.5s.3.2.4.4c.1.4.1 2.1 1.9 3.9a25.8 25.8 0 0 0 9.6 5.3c3.1.7 3.7.9 6 .7 2.2-.2 3.5-1.1 3.5-1.1.3-.2.6-.3.4 0-.2.2-1.8 1.5-3.8 1.8-1 .1-1.6.1-2.2.1z" fill="#b76349"/><g fill="#f4b9a6"><path d="M243.8 75.7l.7-.6-.9-.4zm-8.7-.4l-.3-.5-.4.5zm11.6 1l1 .5v-1.1zm-2.7-5.2l1.3.9.3-1.6z"/><path d="M244 70.4l1.3-.8-1.3-1zm3 8.9l1.3-.8-1.3-.9zm1.3-1.6l.5-1.4h-1.6zm-4.7-2.9l-.9.2.5.7zm.5-1.1l-.9.2.6.7zM244 78l.3.8.7-.7zm.4 1.5l.7.4.1-.8zm4 2.4l-.8.3.6.7zm-3.3-17.1l-.2.7.8-.1zm.8 4.9h-.7l.3.7zm.7-2.5h-.7l.3.7zm-5.8 1.5l-.1.8.9-.3zm1.9-1.4l-.7.5.8.5zm-3.2 1.2h-.5l.3.5zm7.5 13.4l-.7.3.5.5zm-.8-.4l-.7.2.5.6zm-5.9-4.4l-.8.1.5.6zm1.6 1.3l-.7.2.4.6zm-2.3-3.6l-.1.7.8-.2zm3.6-.7l-.2-.6-.6.5zm7.4 5.8l.3-.4-.7-.1zm-2.9-2.1l.5.1-.1-.4zm4.5-4.5v.4l.5-.2zm-2.1 2.2l.6.1-.2-.5z"/><path d="M252.4 74l.1-.4h-.5zm-14.6-3.8l-.2.4h.5zm6.6-3.2l.8-.3-.7-.6zm.8 10.2l1.8-.5-1.4-1.4zm-1.4-6.7l-.7-.2.2.8zm-5.2 4.8v-.7l-.7.4zm4-6.8l.1.8.9-.5zm-1 1.5v.8l.9-.5zm.9-.6v.8l.9-.5zm7.4-.9l.7.3V68zm-6 4.3l-.4-.5-.4.7zm3.5 8.3l-.7.2.5.6zm-3.2-4.3l-.2.5.7-.1zm.8 3.4l-.3-.4-.4.5zm1 .6l.4-.4-.6-.2zm.2-1.3l.5-.4-.7-.3z"/><path d="M246.1 78.8l.6-.5-.7-.3zm-.4-3.1l.5-.4-.7-.3zm-1.3.3l.4.3.2-.5zm5.9 4.7l-.6.1.5.5zm-3.1-5.6l-.3.5.7-.1zm1.5 6l-.3-.4-.4.6zm-3.5 2.1l.1.7.7-.5zm-1.7-3.2l-.6.2.5.4zm-6.3-6.7l-.3-.5-.4.6zm6.7 8.1l.5.2V81zm-1.8-1.1l.5.2v-.6zm-3.1.8l-.3.5h.7zm2.1 2.2h-.6l.2.6zm-2 .8l-.6-.1.2.6zm5.6-9.4l1.2-.4-1-.9zm-.9-2.8l.4.5.3-.5z"/><path d="M243.9 72.9l.7 1 .7-1.1zm3.4-2l-.8.8 1.2.4zm-7.4 2.1v-.6l-.6.3zm6.3-.5l-.4.4.6.2zM244 69l.6-.1-.5-.6zm4.4 1.5l.7-.2-.5-.5zm-4.8.1l.7-.2-.5-.5zm4.9-3.4l.7-.2-.5-.5zm-2.4-1.5l-.4.4.6.2zm-5.5 2.1v-.6l-.6.3zm.8 8.8l-.1.8.9-.3zm-1.1-.3l-.7.1.5.6zm1.6 3l-.1.7.7-.2zm.9-2.9l.1.8.8-.5zm-.6 1.5v.8l.9-.5zm-1-2.2v-.6l-.6.3zm8.9-4.9l.7-.1-.5-.6zm-2.6-2.2l.3.4.4-.5zm5.3 7.9l.5-.2-.5-.4zM242 67.7v-.6l-.6.3zm4.2 1.2l-.1.7.8-.2zm-.9-1.3l-.1.7.8-.3zm.5 6.6l1.3.9.3-1.5zm2.9.1l1.4-.5-1-1.1zm-3.2.7l.5.1-.1-.5zm-.6-2.8l-.2.5h.7zm1.2-1.6l-.7.1.5.7zm2.2.3l-.7.1.5.7z"/><path d="M245.7 72l1.5-.9-1.7-1zm2.2-5.8l.3-.7h-1zm-1.2 11.5l.4-.7-1-.1zm-1.2-3.8l1.2-.7-1.4-.9zm.8-5.9l.4.4.2-.6zm1.5 1.1l-.6 1 1.4.1zm1-1.5l-.3.5.7.1zm.7 4.4l.4.4.3-.6zm-1.9-5l-.3.5.7.1zm-8.9 6l-.6.2.5.5zm1.1-3l-.4.6h.9zm1.4-.1l-.1-.5-.5.4zm-.7 3.3l-.2-.6-.5.5z"/></g><g fill="#a84d3b"><path d="M249.4 58.8l-.1.5.5-.2zm.5 1.1l-.4-.2-.1.5zM252 58l-.2-.4-.3.4zm-.9.9v.4l.5-.3zm1.7.8v.4l.4-.3zm-.9.1l.4.1v-.5zm-1.3-.7l-.4-.2v.5zm2 .1l-.2-.4-.3.5zm-3.6.4l-.4-.2-.1.5zm-6.8-2.5l-.2 1 1.2-.3zm3.4 1.5l-.3.4.6.1zm-1.5-.1l-.2.6.6-.1zm-.7 1.9l-.2.5.7-.1zm-1.3-.5l-.1.5.6-.1zm4.8-.9h-.6l.2.5zm0-.1l.3.6.6-.6zm4.1-.8l.2.5.5-.4zm-2.4.8l.3.4.3-.6zm-3.6.3v.5l.6-.3zm-9.7 1.5v.8l.8-.4z"/><path d="M252.1 58.1l-.4.6h.7zm-1.9.4l.6.4.2-.8zm-3.9 1.4v.4l.5-.2zm-3.7.8l-.2.4.4.1zm-.6.2l-.2.3.5.1zm4-1.8l.1.3.2-.2zm2 0l.2.2.1-.3zm1.9-.4l.1.2.2-.2zm-8.4 1.8l-.3-.1v.4zm2-1.4l-.1.8.8-.2zm-1.6 1.3l-.3-.2-.1.4zm-.5-.2l.2-.4h-.6z"/><path d="M244.4 59.6l.3.3.1-.5zm.5-.8l.4.1-.1-.5zm-1.4.1l-.2.4.5-.1zm.6 1.4l.4.2V60zm-3.2 1.1l-.3.2.4.2zm2.2-1.5h-.4l.2.4zm-2.1.1l-.5.5.7.3zm-.6 1.1l.5.1-.3-.5zm-1.4.6h.3l-.1-.3zm.5-.5l.6.1-.2-.6zm.8 1.1l.1.3.3-.1zm-5.6 1.8v.4l.4-.1zm-2.2 3.8v.3l.4-.1zm5.8-5.6v.4l.3-.2zm1.3-.4l.5.1-.1-.5zm-2.5.6l.4.2-.1-.5zm-.4-.8l-.3-.2v.4zm.5-.2l-.3-.2-.1.4zm.7.5l.2-.4h-.5zm-1.8.5l-.3.3.4.1z"/><path d="M236.2 61.2l-.5.4.8.3zm-.9 1h.5l-.2-.5zm1.3.7h.4l-.2-.3zm.5-.8h.5l-.2-.6zm-1.6 1.3v.3l.4-.1zm-.3-.5l.4.2-.1-.5zm-.4.9l.4.1-.1-.5zm8.6-5.9l-.1.7h.8zm-1.4 1.2l.2.4.3-.5zm2.5-.9l-.3.8h.9zm-1.9.6l.2.4.3-.5zm4.5 1.7h.5l-.1-.4z"/><path d="M238.4 61.9l.4.1-.1-.5zm13.1-3l.4.2.1-.4zm-10.3.8l.9.1-.4-.8zM243 58l-.5.6.8.3zm1.3 3.2l-.3-.1-.1.4zm-10 3.3l-.2.4h.5zm-1.8 1l-.2.6.7-.1zm.5.9l-.3.4h.5z"/><path d="M232.4 66.5l-.2.4.5.1zm-.2 0l-.3-.1v.3zm.1-.4l-.3-.2-.1.4zm-.5-.2l.2-.4h-.6zm1.6-.6l.4.1V65zm.1.3h-.4l.2.4zm-.8 1.8l-.3-.2-.1.5zm10-9.2l-.4.1.3.4zm.2 1.1l-.2.3h.4zm-.4-.6l-.6-.4-.2.8zm1.4.1l-.3-.1v.4zm-1.6.3l-.2.3.4.1zm2.1-.7l-.4-.5-.3.6z"/></g><g fill="#964c38"><path d="M227 76.1l.1-.4-.4.1zm-1.7-3l-.4.1.3.4z"/><path d="M225.2 73.3l-.5.5.9.3zm-.9-.2l-.6.3.5.5zm2.6 1.5l-.2.3.4.1zm-.9-.4l-.3.2.4.2z"/><path d="M226.7 74.9l-.3.3.4.1zm-2.3-.9l-.2.3.4.1zm-.4-.3l-.5.5.7.2zm1.6 1.9l.2.1.1-.3z"/><path d="M226.7 74.3l-.1.2h.3zm.2 1l-.1.2h.3zm-3.6-1.7l-.3.4.5.2zm.9 1.6h-.3l.2.2zm.5.8l-.1-.2-.2.1zm.8-2.4l.3-.3-.4-.1zm-1.2-.1l-.2.3.4.1zm-.5.3l-.3-.1v.3z"/><path d="M223.8 73.8l.1-.3-.4.1zm2.4.4l.2.3.2-.3zm-.4-.8l-.1.6.8-.2z"/><path d="M225.6 73.8l.2.3.2-.4zm-2.5 1l-.2.3h.4zm1.8-1.6l-.3-.1.1.3zm-.6 1.8l.2.2.2-.4zm.8 1.2l-.1.3h.3zm-2.1-2.1l-.1.2.3.1z"/><path d="M224 76.2l-.3-.1v.4zm-1.2-1.6h.3l-.1-.3z"/><path d="M222.5 75.8l.3-.1-.2-.3zm.2-1.1h.3l-.2-.3zm.7-.3v.3l.3-.2zm-.9.9h.3l-.1-.4zm.5.1v.3l.3-.2zm2-1.2l-.3.1.3.2zm1.4 1.5l.1.3.3-.2zm-2-2.3l.1.4.3-.2zm1 1.1l-.2-.2-.1.3z"/></g><path d="M238.3 68.6c-.1 0-.3 0-.4-.1-.3-.2-.4-.7-.2-1 .1-.1 1.7-2.5 5.3-2.2.4 0 .7.4.7.8s-.4.7-.8.7c-2.7-.2-3.9 1.5-3.9 1.6-.3 0-.5.2-.7.2zm14.8-2.2c-.1 0-.3 0-.4-.1-.8-.6-2-.2-2.1-.2-.4.1-.8-.1-.9-.5s.1-.8.5-.9c.1 0 1.9-.6 3.3.4.3.2.4.7.2 1-.1.2-.4.3-.6.3z" fill="#b4603f"/><g fill="#4f2b23"><circle cx="242" cy="71.9" r="1.4"/><circle cx="252.3" cy="71.1" r="1.4"/></g><path d="M247.7 80.4c-.3 0-.6-.2-.7-.6s.2-.8.6-.8c0 0 1.1-.2 1.2-1.1s-.8-3.4-1.3-4.7c-.2-.4 0-.8.4-.9.4-.2.8 0 .9.4.2.4 1.5 3.8 1.4 5.4-.1 1.5-1.5 2.3-2.3 2.4-.1-.1-.1-.1-.2-.1z" fill="#b4603f"/><path d="M244.3 84.9h0a6.1 6.1 0 0 1-5.8-4.4c-.1-.4.1-.8.5-.9s.8.1.9.5a4.6 4.6 0 0 0 4.4 3.3c.4 0 .7.4.7.7 0 .5-.3.8-.7.8z" fill="#cf7653"/><linearGradient id="D" gradientUnits="userSpaceOnUse" x1="236.75" y1="61.68" x2="228.93" y2="42.71"><stop offset=".01" stop-color="#974c36"/><stop offset=".98" stop-color="#b5674c"/></linearGradient><path d="M219 73.8s-2.5-.6-3.5-2.6c-1-1.9.7-4.7.7-4.7s-2.9-.5-2.8-4c.1-3 2.6-3.4 2.6-3.4s-1.7-2.6-.1-5.1 4.3-1.3 4.3-1.3-1.6-3.4 1.2-5.6c2.4-1.9 4.9.2 4.9.2s-.3-4.2 3.5-5.1 5.8 2.6 5.8 2.6.7-3.1 4.8-2.9c3.7.2 4.3 3.5 4.3 3.5s2-2.3 5-1.3c2.9.9 3.1 3.4 3.1 3.4s3.8-.3 5.1 4.6c1.7 6.1-4.2 9.6-4.2 9.6l-2-4s-1.7 1.4-4.7 1.4-4.9-1.4-4.9-1.4-.3 2.3-2.6 3.5-4.6-.7-4.6-.7 1.1 2-.4 3.9c-1.6 1.9-3.2 1-3.2 1s2.7 4.7.1 6.5c-2.9 2-2.8-1.5-5.7-1.9-3-.6-5.4.5-6.7 3.8z" fill="url(#D)"/><g fill="#c17959"><path d="M247 44l-.1.6.7.2.6-1zm4.9 6.2l-.4-.2-.1.5zm5.9 1.2l-.5-.6-.4.9zm-6.6-.1v-.5l-.5.2zm-1-5.8l-.4.8.9.1zm-1.4-1l-.4.8.9.1zm5 6l-.4.5.6.2zm-6.9-6.5l-.8.3.7.9z"/><path d="M245.9 44.5l-.8.6.9.5zm-4.5-2.5l.1 1.3 1.1-.9-.7-.2zm-13.6 2.1l.6 1 .8-1zm15.1-1.5l-.2 1 .9-.4zM238 44l-.2 1 .9-.4zm14.8 3.1l-.8-.3.1 1zm-2.8-.5v-1.7l-1.4.7zm2 .6l-1-1.4-.7 1.4z"/><path d="M251.9 46.9l.1-1-.9.4zm1.9 1.9l.6.9.6-1zm2.5.2l-.4 1.3 1.4-.1zm-2.7.5l-.6.7.8.3zm-5.6-1.1l-.3.4.5.1zm1.4 2.1l-.3.4.5.1zm-10.9-8.4l-.7 1.1 1.4.3z"/><path d="M239 43.3l-.6 1 1.2.2zm-4.5.3l-.1.6.7-.2zm-4.8-.6l-.1.8.8-.3zm-1.6.6l1 .4.1-1.1zm2.4-.4l-.1 1.1 1.2-.4z"/><path d="M230.5 42.5l-.1.8.9-.2zm-4.6 4.4l-1.4-.4V48zm.6-.9l-.1 1 1.2-.1zm-2 .4h-1.2l.4 1.2zm15.6-1.2l-.3.4.6.1zm-4.7-.7l-.3.4.6.1zm1.4.9l.1-.6-.7.2zm17.2 3.5l-.7.8 1 .4zm1.9 1.3l-.5.5.8.4zm-.2 2.2l.2.4.3-.5zm1.1-2.3l-.3.9 1-.2zm0 1.2l-.4-.3-.1.5zm-9.9-1.6l.4.2v-.4zm-1.6-1.1l-.1.3.3-.1zm3.3 3l-.3-.1.1.4zm-2.6-3.5l-.1.4.4-.2zm4.8 4.8h-.4l.3.3zm3.5-.3l-.2-.3-.2.2zm.1-1.7l.1.6.5-.4zm-3.4-6.4l-.1 1.1.8-.5zm-5.4 2.4l.2.6.4-.5zm10.5 2l-.5.6.8.4zm-2.5 2.9l-.3-.4-.3.5zm1.9-3.6v.6l.6-.1z"/><path d="M255.1 49.7l.4.5.3-.7z"/><path d="M254.8 49l.6.7.4-.9zm-2.9.9l-.1.5h.5zm1.5.6l-.5-.1.1.6zm-11.6-6l-.4.7.8.1zm3.6.8l-.4-.1.1.5zm-5-1.2l.1-1.5-1.7.7zm1.5-1.5l-1-.4.2 1.2zm-3.6 1.2l-.7-.3.1.9zm.3.1l.1-.8-.9.3zm-.2-1.3l-.7-.2-.4.2.5.7zm-1.8 2.1l-.8-.3.1.9zm-2-1.3l-.7-.5-.2.9zm-2.5-.1l-.8-.2.1.9zm1.1.2l-.8-.2.1.9zm-5.9 1.3l-.4-.2-.3.8zm3.1-1.7l.3-.9-1.1.1zm-.2.7l-1.2-.4.2 1.5zm-3 1.3l.9.5.1-1.3z"/><path d="M226.6 45.7l1 .5V45z"/><path d="M227.6 45.6l.6.9.6-1.1zm12.8-2.5v-1l-.9.4zm-1.8-1.1l.7.9.4-1zm-5.9 1l.7.9.5-1z"/><path d="M232.5 42.2l.1 1.1 1-.6zm-4.3.8l.9.6-.3-1.1zm16.3 2.6l.3.4.2-.5zm2 .8l.3.4.2-.6zm.1-1.7l-.9.9 1.4.5zm-2.9-.2l-.7.3.5.5z"/><path d="M242.7 42.8l-.9.3.6.8zm1.3.8l-.9.2.6.8zm-2.7-.4l-.8.4.8.7zm-1.3.9l-.8.5.8.6z"/><path d="M241.3 44.3l-.8-.5-.1 1zm-1.9.6l-.8-.5-.1 1zm2.5-1.2l-.3-.1v.5zm.2.9l-.4-.5-.4.7zm.6-1.3l-.8.9 1.2.3zm1.6.8l-.5.8 1 .2zm-4-.6l-.7.3.5.5zm-12.9.2l-.4.7.9.2zm2.2-1.4l-.6.2.9.6zm-1.5.7l-.6.6 1 .1zm19.2 5.1l-.4-.1v.4zm.5-.3l.4.3.1-.5zm-11-1l-.2.4h.4zm5-.9l-.3-.1.1.5zm2.5-.6l-.6-.1.2.6zm-3.8.1l.4.4.1-.6z"/><path d="M240.5 45.1h.8l-.4-.8zm1.5-.5l.7.6.2-.9zm-8.1-.7l.3.3.2-.5zm6 2.5l-.2.4h.5zm2.9-.7l-.2.4h.5zM228 51.2l-.2.3h.4zm12.7-8.4l.4-.9h-1zm-1.3 3l-.7-.1.1.8zm-.6-.3l.5-.1-.4-.5z"/><path d="M238.9 45.5l.7.4.1-.9zm-3.2.7l.5-.2-.4-.5zm1.4-2l.3-.8h-.9zm-.7 4l.1.3.3-.3z"/><path d="M236.9 44l-.4-.6-.5.8zm-5.9.8l.2-.7-.9.1zm.2-2l.3-.7-.9-.1zm9.4 4.3l.1.3.3-.3zm1.6.1l.1.4.3-.3zm-3.7.5l-.4.2.4.2zm-11.8 6.1l-.4.2.4.2zm12.9-6.2l-.3.2.4.3zM247 45l.4.9.6-.1.1-.6zm3-.9h-.9l-.1.5.4.5zm-.8-.3h-1l-.1.6.4.5zm.7 4.3l-.6-.6-.3.9z"/><path d="M248.5 47.3l-.6-.6-.3.9zm0-2.3l-.6-.6-.3.9zm1.5 2l-.6-.6-.3.9zm-3.2-.9l-.6-.5-.3.9zm5.1 5l-.2-.3-.3.4zm-2.9-3.7l-.2-.2-.2.4zm1.5 1.5l.1.5.4-.4zm.3-4.5l-.5-.2-.4.6.6.7zm1.9 4.7l1.1.5-.7-1.2zm1.3 2.2l.1.4.5-.3zm-3.6.4l-.4.2.4.2zm2.3-4.9l-.3-.2-.1.4zm1.1 2.1l.9-.5-1.1-.6zm-1.4 1.6l-.3.4.5.1zm-.7-5.3l-.5.7 1-.1zm3.9 5.9l.1.6.5-.4z"/><path d="M256.1 51.7l.4.5.2-.6zm-1.5-1.4l.4.4.3-.6zm.7 2l-.3-.3-.2.4zm2.7-.3l-.3-.4-.2.5zm-7.7-1.9l.1.5.4-.4zm1.9-2.3l-.6.4.7.5zm.1 4.1l-.3-.3-.2.4zm2.2-4.2l-.7-.2.1.8z"/><path d="M252.1 47.3l-.9-.1.4 1zm.5-.6l-.3-.9-.5.7zm-7.5.7l-.1-.5-.5.4zm2.6-1.6l-.6.9 1.2.3zm-.4 1.2l-.1.3h.3zm1.7 1.6l-.1.4.4-.2zm-.1-3.1h-.8l-.1.5.5.1zm1.4 1.8l-.1-.4-.4.3z"/><path d="M250.2 48.8l-.1-.4-.5.3zm-.3-1.5l.4.5.3-.6zm3.3 1.4l.5-1.2-1-.1zm1.1.3l1-.7-.7-.6zm-9.2-3.1l.5.3v-.7zm-4.9.6l.5.2V46zm8-.3l.6 1 .7-1.2zm4 1.2l-.2.3.4.1z"/><path d="M251.5 47.9l-.9-.4.2 1zm1 1.2l-.3-.2-.1.5zm-3.1.6l-.2.3.4.1zm3.7-1.4l-.7-.4v.9zm-1.6.8l-.2.4.5.1zm2.6 1.3l.1.5.5-.3zm.7.4l.1.4.5-.3zm.8-.8l-.3.2.3.3zm-.4-.2l-.7-.6-.3 1.1zm-.1 2l-.3-.3-.1.5zm1.4-1.5l-.3-.3-.1.5zm-7.8-.7l-.3-.3-.1.4zm-12.9-1.4l.1-.5-.6.2zm-5.7-4l-.8.4.8.7zm4.9 1.6l.2-.9-1 .3zm-4.4 1.6l-.5.8.9.2zm6.7-4.7l-.6.5.8.3zm-5.6 7.7l.3.2.1-.4zm-2.6-1.9l-.1.3h.4zm4.3 1.7l-.3-.1.1.4zm-2.1-2.2l-.1.6.7-.2zm-.1.8l-.1.6.7-.2zm4.2 1.1l-.3.1.2.3zm-8-3.7l.3 1 .8-.8zm-1.3 4.8l.5.7.4-.9zm5.7-8.9l-.9 1 1.4.4v-.7zm-.6 2.8l-.6.7.9.3.1-.7zm.2 1.1l-.8-.1-.5.3.7 1.3z"/><path d="M227.7 47.6l-.5.7 1 .1zm3.4-3.2l-1.6.6 1.1.9z"/><path d="M229.6 45h-.6l-.5.5 1 .7zm3.8-.1l-1.3.2.8 1.2zm1.8-.7l-1.3.2.8 1.2zm-.2 2l-.6-.4-.1.8z"/><path d="M230.1 47.4l-1.2-.6-.3.7.1.7zm-2.3-.5h-1.1l.4 1.1zm-.9.7l-1.1-.7-.3 1.4zm7.1-1v-1.1l-1.1.4zm-.7.3l.4-.4-.6-.3zm-6.5 2.1l.6-.6-.9-.4zm-.4 1.4l.5-.5-.7-.3zm5.5-2.6l-.6-.8-.6 1z"/><path d="M232.9 48.5l-.4-.6-.5.7zm-2 .7l-.5-.6-.5.7zm-.5-3.7l-1.2.2.7 1.2zm2.4-1.9l-1.3.2.7 1.2zm-.3 1.8l-1.2.3.7 1.2zm-.9 1l-.5.6.8.3zm-2.2 3.7l-.4-.2v.5zm-.6-1.3l-.5-.2v.6z"/><path d="M231.7 47.9l.4.4.1-.6zm-.6-3.7l.2.5.3-.4zm2 2.6l-.7-.6-.3.9zm-2.5 0h-.9l.4.8zm-.7 1.4h-.8l.4.8zm-2.4 1h-.4l.1.4zm1.1-2h-.8l.4.8zm5-1.7l-.2-.3-.2.4zm1.6 1l.2.4.4-.3zm-.2 2.1l-.4.3.4.2zm-1.1-1.4l.1.5.4-.4zm-1.8-2l-.2-.7-.6.5zm1-1.3l-.7.5.1.4 1.2.3zm.4.1l-.1.3.4-.1zm-.8 3l-.1.7.7-.2zm.2 2.4l-.1.4.4-.1z"/><path d="M234 45.1l-.3-.1v.5zm4.5.7l-.2-.8-.7.6zm0 1.1l-.1-.5-.4.3zm-11 3.9l-.1-.4-.5.3zm9.4-6.5l.5.7.4-.8z"/><path d="M236.8 45.6l1-.2-.6-.8zm-8.5 1.1l.9.4V46zm5.2-2.3l.3.4.3-.4zm4.3 1.7l-.3-.2v.5zm-10.6 6.3l-.4-.2v.5zm4.8-3.2l-.3.3.5.1zm1.5-1l-.3-.3-.1.4zm-18.2 7.9l1.5-.1-1.3-1.1zm10.6-3.6l-.4.3.5.3zm-2-4.2l-.9.7 1.2.5zm1.1 4.3l-.4-.3-.1.5zm.3-1.8l-.5-.4-.2.7z"/><path d="M217.3 54.2l.4.9.8-.8zm6.5-6.1l.4.9.8-.8zm1.7-.5l.2.5.5-.5zm.4 1.2l.2.5.4-.5zm-11.8 11.6l-.5 1.2h1.7zm.4 2.5l.2 1.7 1.2-1.2zm2.9-.3l.2.5.4-.4zm-3 2.1l.2.5.5-.5z"/><path d="M213.8 62.8l.2.5.5-.5zm2-.2l.1 1 1.2-.5zm4.5-10.7v.9l.9-.5zm-1.3 3.3l-.4-.3-.1.6zm0 .9l-.8-.7-.1 1zm.4 1.3l-.5-.5-.1.8zm3-6.3l.9-.1-.5-.9zm.5 2.2l.2.5.3-.4zm-5.3 7.1l.2.4.4-.3zm1.8 1.4h-.5l.3.5zm-1.4-.6l-.4.1.3.4zm-.7.6l-.5.1.3.4zm-3.8-.1l-.1 1.1 1.6-.4zm3.6 2.4l.2.4.4-.4zm-.2.2l-.5.5.7.2zm7.5-15.4l.3 1.3 1.2-1.1zm-2.4 1.2l1.3-.1-.7-1.2zm.4-1.5l1-.1-.5-1zm3.2-.6l-.7.4.8.5zm-8.3 14.9l.3-.1-.3-.3zm-1.2-2.6l.4.9.7-.9zm6.1-2.9l-.2.3.4.1zm-.2-1.1l-.2.2.4.1zm-2.6 7.3l-.2.3.3.1z"/><path d="M217.9 61.9l-.1.2.3.1zm.5 3.4l-.2.2.4.1zm.4-5.1l.3.2.1-.4zm-1.7 1.4l.5-.7-1-.2zm3.6-3.3l-.1.2h.3zm-.1-1.1l-.2.2h.4zm5.5-6.9l-.5-.2.1.7zm-2.8 1.4l.6.2-.1-.6zm-4.3.7l.3 1.1.6-.9zm-3.5 7l.4.4.2-.6zm-1 3.4l.9.3-.1-1zm-.3-2.5l.9.4-.1-1.1zm7.2-11.2v.5l.6-.2zm-.6.1v.5l.5-.2zm3.9 1.3l-1 .2.7 1zm-1.7.6l-.9.1.6.8z"/><path d="M223.8 49.6l-.5.1.3.5zm-2.5-.6l.2-.9-1 .3zm.6 1l-.9-.4.1 1zm-1-.6l-.6-.9-.4 1.1z"/><path d="M220.6 50.6l.2-1-.9.4zm2.6-2.3l.6-.1-.4-.5zm-.8.2l-.9.1.5.8zm-1.5-.8l.4.5.4-.6z"/><path d="M224.2 47.2l-.9.9 1.3.5zm-7.7 16.2l.2.7.6-.6zm-1-4.1l-.3.3.3.2zm.8 5.7l-.3.2.4.2zm.3-.7l-.3-.3-.1.5zm-1.6-2.7l1.1-.1-.7-1.1zm1-2.7h.8l-.5-.8zm-1.3 2.8l.2 1 1-.7z"/><path d="M215.7 61.2l.2 1.2 1-.9zm.6-3.5h-.8l.3.9zm.8 1.5l-.7.8.7.2zm-.2-3.9l-.8.9.7.5zm-3 9.5l1.1-1.1-1.6-.7zm.3.4l1 1 .5-1.4zm2.6-3.1l-.5.5.7.3zm-1.7 2.1l1 .6v-1z"/><path d="M217.7 63.8l.2.3.3-.3zm-.7 1.3l-.3.3.4.2zm3-10.8l-.2.5.6.1zm-1.7-1.1l-.3.6h.7zm-1.3.9l-.7 1.2 1.1.1zm2.9-1.5l-.2.4.5.1z"/><path d="M218.9 54.4l-1 .1.5.9zm.4-.9l.6.3V53zm-4.1 6.8l1 .5v-1.2zm1.3-2.6l.8.3-.1-1z"/><path d="M222.7 52.7l.3.1v-.4zm-1.8-.4l.3.2v-.4zm-.7-.5l.5.2v-.7zm-3.4 4.9l.5.7.3-1.1zm2.1-3.5l-.3.8h.8zm-1.1.9v-.7l-.7.4z"/><path d="M217.9 53.5l-.1-1-1 .5zm1.9.3h-.3l.1.4zm-.8.1l-.3.6h.9zm-1 1.4l-.9-.1.1 1zm-.9 10.9l.2-.4h-.5zm-.4 2.2l.1-.4h-.4zm-.6-2.2l.3-.9-1.1.1zm.9 2.8l.4.1-.1-.4z"/><path d="M216.5 67.4l.2-.4-.5-.1zm.3-.6l.3-.3-.5-.1zm-1.1-.7l.7.3-.1-.8zm.4.8l-.4 1h1.1zm-.5 1.1l-.3 1.1 1-.4zm-.3 2l.3 1.2.6-1z"/><path d="M215.6 68.8l.3 1.1.6-.9zm2.6-1.6l-.5.3.6.1zm-.8-.5l-.5.4.6.1zm-.7 1.8v.3l.4-.1zm-1.2-11l1.1.2-.1-1zm.6-3.6l-.5.9 1.1.1z"/><path d="M216.3 56.2l-.4 1.1 1-.1z"/><path d="M215.3 56.3l.1 1.1.8-.6zm3.6.2l-.7.1.5.7zm5.7-7.1l-.8.2.6.7zm-1.5 0h.5l-.2-.5zm-.9-2.7l.6.8.5-1.1zm1.1 3.3l.2.8.7-.6zm-2.2-2.5l1 .4v-1.1zm-1.2 4l1-.6-1.1-.6z"/><path d="M225.1 54l-.5.1.4.4zm-1.4-1.4l-.3.1.2.4zm-5.7 4.3l-.4.1.3.4zm-.2-4.2l.6.6.4-.9zm3.9-4.8l1.3.4-.2-1.4zM216 54l1.2.3-.2-1.3zm4.3 1.7l.5.2-.1-.5zm4.8-3.8l.5.2-.1-.5zm-4.2-.3l.5.4.2-.7zm.5-1.2l-.1.7.7-.2zm-1.1.2l.5.4.2-.7zm-.3 1l.4.4.3-.7zm.7 1.3l-.3.1.2.4zm1.3-.5h-.4l.2.4zm-2.4 4.9l.5.2-.1-.6zm-.3-2.5v.6l.7-.2z"/><path d="M218.2 56.4l-.5-.8-.4 1zm1.3 2l.3.4.3-.4zm-1.7-1.7l-.2.5.6.1z"/><path d="M217.5 56.8l.4.2v-.4zm0 .6l-.4.9 1-.2zm.3 1.6l.4.2v-.6zm1.4-2.8l.6.2-.1-.7zm-.6 3.6l.5.2-.1-.5zm-.5-2.3v.4l.4-.1zm4.3-7l-1-.2.3 1.1zm-.1 3h-.4l.3.4zm-2.9 4.9l-.3.1.2.4z"/></g></svg>