<svg xmlns="http://www.w3.org/2000/svg" xmlns:xlink="http://www.w3.org/1999/xlink" viewBox="0 0 480 480" xmlns:v="https://vecta.io/nano"><g fill="#fff"><path d="M207.6 249.45l-35.4-8.9c-2.6-.7-4.2-3.3-3.5-5.9l4.7-18.8c.7-2.6 3.3-4.2 5.9-3.5l35.4 8.9c2.9.7 4.6 3.6 3.9 6.5l-4.5 17.8c-.7 2.8-3.6 4.6-6.5 3.9zm31.7-162.4s.1-1.6 0-2.2c-.3-1.6-1.6-1.3-1.6-1.3s.7-1.2-.6-2.6c-1.1-.9-2 .3-2.4 1s-.4-.5-.2-2c.2-1.6 1-6.8.5-7.3-.6-.5-1.4-.7-2.2 1.6s-4.4 11.1-5.2 12.8c-.9 1.8-1.5.8-2.2-.1-.6-.9-.8-2.5-1.7-4.8s-2.4-1.5-2.4-1.5c.44 2.78.6 5.6.5 8.4 0 2.1 1 3.8.8 5.2s-.6 6-5.8 15.1c-1.17 2.03-3.18 5.23-5.56 8.9l1.57.9c5.97 3.1 8.74 4.14 13.55 7.1l9.14-27.5s.4-.8 1.6-2.4 2.7-3.6 3-6.4-.8-2.9-.8-2.9h0zm-13.43 40.4l.08.05c-.02-.02-.05-.03-.08-.04v-.01zm65.33 79c18.7 6.7 37.7 11.1 37.7 11.1s5.26 3.9 12.96 3.6c.6.1 1.36-.62 2.16-1.32.5-.4.17-1.08.47-1.68.2-.4 1.2.1 1.6-.4.5-.6 1.3-1.5.9-2-1.6-1.9.9-1.8 1.1-2.7.2-1.1-.4-1.9-.6-2-2-1-4.42-2.1-5.52-2.4-1-.2 2-.42 3.6-.72 1.8-.3 3.5-2.17.4-2.47s-5.6-1-6.5-1-4.1-.3-6.2.3c-1.5.4-3.1 1.5-6.4.3-5.2-2.1-22.4-12.8-30.7-18.1-4.2-2.2-18.4 14.7-5 19.5l.03-.01z"/><path d="M340.9 211.05c-.4 1.2 1 2.1 3 2.6 1.9.6 3.5.9 4-.5.5-1.5-1-2.1-3-2.6-2-.7-3.4-1.1-4 .5z"/><path d="M339.9 214.35c-.4 1.2 1 2.1 3 2.6 1.9.6 3.5.9 4-.5.5-1.5-1-2.1-3-2.6-1.9-.7-3.5-1-4 .5z"/><path d="M338.7 217.45c-.3 1 .9 1.7 2.5 2.3 1.6.5 3 .7 3.4-.5.4-1.3-.9-1.7-2.5-2.3-1.6-.5-2.9-.8-3.4.5zm-73.3-78.2c-.8-4.2-2.4-8.5-4.2-12.9-7.5-17.7-18.4-27.3-33.3-26.7-3.6.1-15 .3-21.4 26.6-.8 3.4-15.4 81.4-15.4 81.4h79.3l-5-68.4z"/><path d="M243.1 98.15l-1.2 4.3 9.1 7.8.4-7.4-8.3-4.7z"/><path d="M219.3 96.85l1.6-3.8c.2-.5.8-.8 1.3-.6l20.5 7 6.5 11.4-17.7-3.1-12.2-10.9z"/><path d="M248.8 109.45s8.4 12.3 8.6 35.5-.6 62.8-.6 62.8"/></g><circle cx="252.69" cy="196.55" r="1.5"/><circle cx="252.99" cy="172.75" r="1.5"/><circle cx="253.39" cy="150.25" r="1.5"/><circle cx="252.79" cy="130.45" r="1.5"/><path d="M335 213.2s1.65.05 3.85-1.56c1.8-1.32 2.9-3.25 2.9-3.25" fill="#fff"/><path d="M173.56 212.98h0c.03-.07.04-.13.06-.2l-.06.2zm139.54-15.13h0v.3-.3z"/><path d="M348.6 211.58c-.06-.17-.14-.34-.24-.5l-.18-.25c-.1-.1-.18-.2-.3-.27-.06-.03-.1-.07-.18-.1l-.33-.15-.45-.2c.37.15-.13-.1-.1-.12l-1.88-.82-.28-.1c-.04-.01-.08-.01-.12-.02-.08-.01-.16-.01-.22.02-.48-.2-.27-.17-.17-.2-.1 0-.23-.03-.43-.08l-.3-.08c-.01-.07.14-.07.2-.1-.03.02-.06.03-.08.05.3-.08.65-.12 1-.18l-.4-.1c.43-.04.47 0 .53.03.03.01.05.03.13.02a5.62 5.62 0 0 0 .57-.09l-.03-.1c.9-.1 1.64-.4 2.27-.9.35-.28.7-.85.5-1.4-.1-.27-.3-.5-.55-.68-.25-.13-.52-.27-.74-.32-.5-.13-.96-.15-1.38-.2l-1.3-.17-3.95-.67-.75-.06-.65-.01-2.72-.01c-.9.04-1.83.12-2.74.36l-2.48.76c-1.57.33-3.18-.07-4.56-.8l-.22-.2c-.05-.17-1.67-.6-1.83-.84l-.7-.3c-.18-.12-.56-.35-.2-.2l-1.1-.53-.62-.43c-6.34-3.73-6.9-2.77-5.7-2.14l.01.1c1.58.77 2.8 1.76 3.9 2.22 1.6.84.95.8 2.68 1.57l.6.43c.7.4.57.17 1.35.62-.08.03 1 .55.5.37 1.74 1 4.15 1.78 6.97 1 .27-.15.73-.33 1.15-.47l1-.3c.06-.02 2.57-.24 1.13-.02-.12.02-.34.04-.33.02l-.16.1 4.15-.1c-.45-.04-1.03-.06-.64-.1l1.37.06c-.08.02-.14.03-.26.05.57.01 1.27.2 1.94.32l-.27-.13c1 .23 1.32.43 2.5.5.53.02-.95-.26.13-.1l2.4.4c1 .18.94.32.77.48.04.01.08.02-.02.12-.08.1-.22.2-.4.3l-.08-.04c-.67.38-.83.3-1 .3-.1-.01-.17-.02-.34 0l-.33.04-.93.14-.52.17-1.4.3c-.2-.05-.44.04-.55.23l-.05.08c-.01.01-.01.01-.02.01a.54.54 0 0 0-.07.13c-.32.5-1.25 1.87-2.6 2.87-2 1.47-3.56 1.46-3.54 1.47-.3-.01-.5.2-.5.5a.49.49 0 0 0 .47.51h.05c.24 0 1.95-.06 4.13-1.66.47-.34.9-.72 1.26-1.1a1.65 1.65 0 0 0 .13 1.32c.1.2.27.38.44.55-.2.03-.4.08-.56.17-.48.23-.8.63-1 1.2-.16.47-.12.95.12 1.38a2.67 2.67 0 0 0 .36.47c-.7.05-1.34.36-1.67 1.23l-.01.04c-.5 1.67 1.8 2.54 2.83 2.92l1.06.3c-.06.04-.1.06-.05.1-.06.02-.1.02-.1.02h-.1c-2.2.14-3.95-.4-4.8-.26-1.05-.2-1.22-.34-1.75-.5l.25.05c-1.93-.52-2.47-.74-3.82-1.36-.68-.3-.87-.18-2-.9.4.17-.08-.1-.48-.37.13.08.2.13.22.12 0-.01-.02-.03-.07-.07-.04-.04-.1-.1-.3-.24l-.15-.04-.4-.05c0-.01-.03-.02-.01-.02-.83-.17-.7-.12-.3-.02-.02 0 .01.02.12.07l-2.46-.7-6.33-1.45c-.22-.12.28-.03.88.1l-1.46-.37c.03-.07.85.18 1.3.28-1.7-.58-3.6-.83-5.6-1.5l-.44-.06-.12-.04c0 .03-.47-.05-.77-.13-.27-.15.06-.15-.94-.43-.77-.3-2.25-.62-3.3-.88.55.17.36.16.12.1-.36-.1-.6-.2-.85-.3l2.74-7.9c-.23.24.04-.58.3-1.45l.15-.06c.88-3.33.64-1.12 1.55-4.4l.02-.62c.7-3 .75-1.5 1.47-4.86-.2.65-.3.78-.3.55 0-.1.03-.32.1-.6l.13-.46.2-.63c-.04.25-.03.36-.04.52l.22-.76c.1-.27.07-.47.1-.66.07-.2-.1-.34-.2-.5-.1-.15-.22-.3-.42-.46.4.24.42.35.32.12-.1-.1-.27-.26-.53-.48l-.36-.27-.38-.27.42.2.2.1c.1.05.23.14.34.22-.37-.28-.5-.32-.7-.45l-.57-.33-1.13-.63-4.88-3.37-4.42-2.78c.77.37-1.15-.95-.52-.7-1-.5-3.75-2.2-4.74-3.06l.2.13c-3.86-2.83-6.9-4.5-10.05-7.32.04.24-1.56-1.28-1.28-.78a12.55 12.55 0 0 1-1.12-1.07c-.16-.18-.3-.35-.43-.54-.14-.2-.27-.42-.4-.63-.5-.83-1-1.6-1.37-2.34-.8-1.44-1.37-2.6-1.98-3.2-.93-1.78-.9-2.22-1.3-3.17l.23.42c-1.57-3.43-1.95-4.47-2.98-7.1-.56-1.3-.9-1.4-1.73-3.8.4.73 0-.23-.33-1.12.23.56.33.72-.04-.47-.12-.2-.22-.4-.3-.63 0-.01-.01-.06.01-.04-.6-1.46-.53-1.2-.28-.5-.03-.03-.03.04.03.26-.46-1.58-1.65-4.27-1.57-4.52-1.8-4.42-3.28-7.5-5.04-11.05-.1-.44.36.36.9 1.4l-1.23-2.54c.13-.04.76 1.43 1.15 2.2-1.2-3.15-3.18-6.15-4.96-9.67-.02-.03-.04-.05-.06-.08a1.01 1.01 0 0 0-.07-.15c-.66-1.73-1.52-3.24-2.2-4.52-1.98-3.27-4.5-6.54-7.67-9.28a32.67 32.67 0 0 0-1.83-1.47l.2-3.57-9.13-5.17-.4 1.42-5.2-1.72c.04-.05.08-.1.1-.16.47-.64.92-1.2 1.5-2.1.27-.45.38-.75.53-1.13l.35-.86 2.3-1.2c.7-.35 1.2-.96 1.43-1.73.22-.74.14-1.54-.2-2.25l-7.62-14.53c-.02-.1-.04-.24-.08-.38-.03-.15-.12-.27-.2-.4-.06-.06-.13-.1-.2-.15l-2.7-5.14c-.35-.7-.96-1.2-1.73-1.43-.74-.22-1.54-.14-2.25.2l-8.6 4.5c-1.42.7-1.96 2.5-1.22 3.98l3.27 6.24c.52 0 1.25.3 1.77 1.63.22.55.4 1.1.6 1.68-.18-.5-.37-.98-.58-1.46-.27-.63-.6-1.12-.96-1.36-.36-.26-.72-.27-.96-.2-.07.01-.12.03-.17.05-.08-.26-.14-.37-.16-.22-.01.07-.02.17-.02.32a2.22 2.22 0 0 1-.16.12c-.12.1-.2.16-.2.2-.02.06.13.02.36-.07.04 1.1.23 3.7-.05 8.7l-.04-.17c.06.8.23 1.53.4 2.18a1.42 1.42 0 0 0-.5.13c-.36.17-.65.47-.78.82l-1.72 4.1c-.08 0-.17-.01-.28-.01-.16.02-.36.01-.63.03-.6-.06-1.3-.1-1.94-.1l-2.1.16c-3.83.5-6.55 1.98-8.95 3.84-2.4 1.9-4.57 4.32-7.02 7.94-2.2 3.16-3.4 5.26-4.57 7.4-1.2 2.14-2.26 4.38-3.78 8l-4.3 10.5c-.47 1.68-1.82 4.44-2.4 6.42l-.4.7c-.2.68-.44 1.48-.74 2.13l-.02-.05c-.28 1.03-.7 2.16-.82 2.67l-.02-.05-.37 1.25.02-.23c-.45 1.8-.94 3.68-1.28 5.36l.17-.1c-.8 3.56-.48 5.06-.48 8.28l-.04-.04c.32 2.05 0 3.6.25 5.27.25 1.65 1 3.43 2.07 5.38-.27-.48.03.25-.02.22.87 1.87 2.3 3.58 2.55 3.4.95 1.13.76.93.8 1.17.04-.05.3.15.65.45l.6.47c-.03.27-.1.7-.2 1.04-.24.45-.25-.1-.7 1.58-.46 1.3-.95 3.8-1.35 5.56.27-.93.25-.62.18-.2-.22.84-.46 1.3-.58 1.96l-.13.03c.08.15-.47 2.28-.48 2.58-.24.45.25-1.33.22-1.56l-1.32 5.07c-.36 1.83.23-.3.14.6-.4 1.6-.7 3.18-1.27 4.98l.3-.54c-.68 3.02-1.17 4.8-1.84 6.78l-1.2 5.8a5.31 5.31 0 0 0-.8.11c.2.1-.3.2-.74.42l-.1-.1c-.86.48-1 .58-1.2.6-.17.06-.42.07-1.04.83-.03.13-.07.26-.1.4-.42.76-.54.95-.72 1.15-.1.13-.18.28-.24.43-.06.2-.17.58-.16.95.13-.6.34-.22.1.52l-.07-.22c-.08.42-.07.57-.16.84 0-.26-.14-.17-.27.44l-.04-.45-.07 1.2c-.35.86-.54 2.3-.8 2.64 0 0-.56 1.9-.5 2.38-.02-.4-.32.63-.38.3 0 .53-.26 2.02-.54 2.57v-.12c-.68 2.14-.74 3.76-1.4 5.67.16-.05-.17.96.07.75-.08.52-.2 1-.33 1.44l-.2.66c-.07.24-.14.47-.17.7-.16.93.01 1.7.4 2.05.36 1.02.35 1.26.64 1.76l-.17-.2a6.02 6.02 0 0 0 1.61 1.65c.5.34.97.6 1.7.84.7.14.83-.12 1.97.24-.4.01.08.1.5.2-.28-.05-.37-.04.17.17.1-.01.2 0 .33.01 0 .01.02.02.01.03.72.14.6.08.28-.02.02-.01 0-.04-.1-.1.7.32 2.06.5 2.1.7 2.15.5 3.73.7 5.53 1.08.18.14-.26.12-.8.02l1.27.3c-.04.13-.75-.1-1.14-.18 1.45.6 3.16.57 4.88 1.2h.4l.1.04c.01-.06.42-.03.7.02.22.18-.08.26.8.47.66.28 1.98.44 2.9.6-.48-.14-.3-.16-.1-.15.44.1.66.28 1 .32v.16c-.14-.2 1.18.13 1.36.1.22.18-.7-.07-.83-.02l2.64.64c.96.12-.13-.2.35-.2.83.18 1.67.27 2.6.6l-.27-.2c1.58.28 2.5.53 3.5.93 2.54.4 4.1.56 5.02.6.8.52 1.44.48 1.7.4h-.1c.54-.27.37-.46 0-.6l.27.04c-.14-.14-.3-.27-.43-.4-.12-.14-.22-.2-.2-.22-.44-.56-.73-1.06-1-1.7-.26-.62-.5-1.4-.33-2.52.58-2.13 1.03-2.72 1.5-5.04.3-1.1.54-2.3.78-3.38-.08-.56.35-1.42.34-2.06l.18-.2c-.01-.22.02-.48.13-.67l.03.02c-.01-.33.13-.67.13-.84l.03.02.08-.38.03.08a6.05 6.05 0 0 1 .35-1.6h-.15c.42-1.02.23-1.47.66-2.38l.03.02c-.03-.65.15-1.1.34-1.57.2-.42.35-.78.44-1.35-.02.14.1-.02.12.01.2-.46.5-.88.28-1.07.24-.3.27-.17.38-.13-.1-.08.1-.35.3-.54l-.07.12a3.38 3.38 0 0 1 .63-.5l-.26-.12c.42-.17.23.18.57-.04l-.08-.18c.6-.2 1 .05 1.45.23l.18.04c.01 0 .12.07.18.08l.2.07.18.06c.23.1.46.2.67.4.43.32.78.8 1.03 1.35.5 1.13.48 2.44-.04 3.6l-.17.08c-.22 0 .13.78-.1.83l.02.32c-.06.07-.14.24-.15.08-.08.27-.05.3-.03.5l-.2.26c-.38 1.06-.36 2.05-.7 3.18-.6 1.3-1.02 3.95-1.26 5.48-.22 2.17-1.66 4.4-1.85 6.63-.05.06-.02.23 0 .24-.15.56-.4 1.08-.7 1.56 0 0-.27.45-.75.9-.47.47-1.17.87-1.74 1.03-.57.17-1.05.18-1 .45.03.1.2.34.68.5.46.16 1.27.28 2.32-.1l-.03.07c1.1-.54 1.66-1.2 1.95-1.97l.13-.16c.14-.05.25-.25.34-.48.1-.18.23-.37.32-.55.26-.5.4-1.08.5-1.47.12-.48.2-.94.28-1.4.04-.1.1-.17.14-.17.18-.86.5-1.97.6-2.78a5.25 5.25 0 0 1 .14-.48l.01.06c.14-1.45.9-2.83 1.05-4.23.01.06.08.1 0 .42.2-1 .5-2.35.67-2.38l.95-3.88c.14-.6.27-1.18.4-1.78 0 .01.01.02.01.04.35-.7.25-1.78.46-3-.2-.26-.17-.9-.37-1.07.1-.05-.32-1.23.07-.6.03.06.06.16.02.17l.14.05c.03-.8-.55-1.27-.94-1.9.1.2.25.46.07.33a4.45 4.45 0 0 0-.38-.58l.17.05a4.6 4.6 0 0 0-.7-.83l.03.2c-.35-.38-.4-.7-1.04-.83-.3-.03.38.37-.14.17-.15-.1-.32-.2-.52-.28.02 0-.01-.02-.01-.02l-.01-.02-.1-.06c-.15-.1-.3-.12-.46-.17-.5-.15-1-.17-1.47-.12.04.04.02.07-.01.1-.4-.13-.83-.26-1.3-.3-1.25-.35-2.7-.02-3.98-.5-.66-.02.6-.1-.35-.22.01-.16.46.01.25-.17-.93-.16-1.46-.54-2.62-.72l-.02-.13c-1.53-.15-2.74-.86-3.77-.9-1.54-.28-.93-.6-2.57-.78l-.57-.32c-.67-.2-.54.08-1.27-.2.07-.1-.93-.32-.46-.3-1.4-.5-2.95-.62-4.7-1.15 4.7.05 8.88-.16 13.95-.12 3.3.14 8.08.14 12.92.1l7.14-.1c2.37.04 4.62-.54 6.35-1.2 2.42-1 4.86-2.35 6.8-4.46.1-.1.2-.24.3-.35h1.6c5.8.23 15.9.1 23.43-.05.02.2.04.43.1.6a6.35 6.35 0 0 0 .93 2.27c.87 1.26 2.02 2.34 4.05 3l-.07.02c.66.15 1.3.16 1.9.15.52-.02 1.02-.03 1.5-.03l1.42.02 2.07.05.6.01.3.01c.07.02.05-.05.05-.1l-.01-.15-.1-1.2-.17-1.94a40.77 40.77 0 0 0-.45-3.2c.1.58.05-.26.1-.22l-.06-.5c2.98 1.05 6.2 1.96 10 3.52 1.1.16 3.4 1.1 4.23 1.2.1.13 4.75 1.6 2.02.9-.23-.06-.64-.2-.6-.22l-.36.01c2.62 1.12 4.94 1.5 7.6 2.37-.78-.28-1.84-.6-1.1-.46l2.5.8-.55-.06 1.85.6 2.12.66c-.3-.14-.64-.28-.74-.35l2.48.82c.28-.74.57-1.56.82-2.33.16-.47.3-1 .47-1.7.2-.95-.7 1.66-.14-.26.02-.06.05-.13.07-.2a7.32 7.32 0 0 1 .44.13c5.44 1.63 6.84 2.2 12.55 3.65 1.26.34 2.56.67 3.85.98l3.7.87c.15.1.3.2.44.28 1.2.64 3.3 1.74 4.85 2.12.2.1.37.18.56.25l1.7.4h-.04c.8.12 1.7.3 2.12.3l-.04.02c.33.03.66.08 1 .1l-.17.02 1.46.04h1.44l-.13-.01c.42.06.75-.06 1-.17.25-.12.44-.25.62-.38h-.15c.45-.3.77-.6 1.07-.85.34-.2.6-.5.77-.98a1.71 1.71 0 0 0 .06-.84h.15c.1 0 .23 0 .36-.01.32-.03.67-.16.9-.45.23-.27.46-.52.73-.88v.04c.14-.26.26-.44.36-.85a1.17 1.17 0 0 0-.22-1.02l-.02-.02c-.03-.1-.07-.2-.12-.28-.07-.12-.15-.23-.24-.34 0-.07.01-.12.05-.17.03-.02.05-.04.08-.06a2.03 2.03 0 0 0 .64-.36 2.04 2.04 0 0 0 .56-.4c.07-.1.14-.18.2-.27.04-.1.1-.2.13-.32.05-.27.05-.36.06-.55.03-.23-.03-.58-.15-.92v.08zm-169.67-1.2c2.6-8.68 3.4-13.3 6.06-23.77l2.26-8.04a31.78 31.78 0 0 0 .98.59l.16.1c.06.04.12.06.18.1.03.02.07.04.1.06l-.01-.01.66.35-3.2 13.85-2.28 9.75-1.16 4.7-.97 3.74h-.04c-.18 0-.1.05.01.1-.01.03-.02.06-.02.1-.04-.01-.07-.01-.13-.02l-2-.65c-.26-.08-.54-.14-.83-.18l.23-.77zm28.33 24.9c.02-.13-.01-.18-.15.06a.38.38 0 0 1 .03.16c-.01 0-.02.01-.03 0-.05.34 0 .3.05.14.01.01.04 0 .08-.04-.22.3-.24.97-.42.97-.2 1-.2 1.78-.36 2.63-.1.07-.15-.14-.12-.4l-.12.6c-.13-.04.01-.36.03-.55-.4.65-.16 1.5-.56 2.3l.06.2-.03.05c.06.01.08.2.07.34-.14.1-.26-.07-.36.34-.2.3-.18.92-.22 1.4.07-.25.12-.15.14-.03-.04.22-.18.33-.16.52h-.16c.16-.07.07.62.15.7-.13.12-.08-.36-.15-.43-.06.93-.06.47-.02 1.4.17.48.14-.1.3.12.07.42.24.8.3 1.3l.1-.2.47 1.04c-.72-.25-1.38-.45-1.38-.45-4.47-1.44-6.92-1.64-12.36-2.9-4.74-1.26-5.94-1.85-10.9-2.98l-7.18-1.73c-.55-.03-1.4-.22-2.05-.42-.6-.2-1.14-.54-1.57-.85-.07-.13-.14-.24-.18-.37-.28-.22-.53-.57-.6-.93l.04.01c-.3-.45-.32-1.06-.36-1.3l.03.02a4.47 4.47 0 0 1 .02-.63l.04.12c0-.4.16-1.05.3-1.63s.3-1.14.44-1.66l-.16.05c.55-1.7.63-2.63.96-3.87.22.37.5.72.85 1 2 1.7 12.8 4.4 24.1 7 1.9.4 3.2.7 3.7.9.6.2 1.2.3 1.9.3 1.9-.17 3.87-.9 5.5-2.5 0 .04-.02.12-.04.2h-.02zm.15-.22c-.01-.03-.02-.03-.02-.05l.04-.04c-.01.03-.01.05-.02.1v-.01zm-11.2-17.48l.2.2c.05.23 1.58.07 1.74.32l.66.06c.17.08.54.22.2.18.6.16.6.13 1.05.17l.6.3c2.3.68 4.33.93 6.75 1.6 1.1.38 2.58.78 4.18 1.17-.1.1-.17.22-.23.35.25-.25.3.08-.02.34l-.01-.16c-.14.2-.16.27-.28.38.04-.15-.1-.17-.3.1l.03-.28c-.08.22-.16.44-.22.66-.4.34-.6 1.13-.83 1.25 0 0-.1.24-.2.52s-.15.6-.1.74c-.07-.2-.23.28-.33.1.07.26 0 .98-.2 1.22v-.06c-.4.98-.25 1.8-.65 2.66.15-.01-.05.46.16.38-.06 1-.8 1.63-.33 2.1-.08.44-.26.48-.34.7v-.1l-.17.83c-2.2 3-5.15 3.6-7.38 2.97-.5-.1-1.9-.5-3.8-.9-6.5-1.5-21.6-5-23.7-6.8-.5-.44-.8-1.05-1-1.72.32-2.45 1.24-3.8 1.53-6.4-.04.34.1-.12.14-.1.26-1.23.57-2.54.3-2.63.23-.9.27-.7.4-.8-.1 0 0-.88.2-1.4-.03.1-.04.2-.05.28.17-.55.45-1.08.83-1.52l-.4.12c.34-.36.44-.34.52-.34s.13-.02.46-.3l-.13-.15c.55-.4 1.1-.53 1.6-.56s1 .05 1.55.2l.46.1 1.65.42 2.25.53 4.54 1.03c3.03.7 6 1.4 8.67 2.25v-.01zM243.4 98.9l7.47 4.23-.33 6.08-3.35-2.88-3.94-6.9.15-.52h0zm5.67 10.36l-.15.1-.26-.45.4.35zm-8.82-17.87c.03-.1.05-.2.07-.3l-.06.3h-.01 0zm-5.4-10.45c.08-.1.17-.2.27-.28.3-.3.93-.57 1.4-.48-.44-.1-.9.06-1.22.3a2.79 2.79 0 0 0-.44.4c.07-1.18.26-2.46.46-3.78l.01-.6.03-.17c-.03.01-.01-.64.02-1.06.04-.17.08-.2.1-.26l6.86 13.08c.23.47.3 1.02.14 1.5-.15.5-.47.9-.92 1.12l-1.28.67c.07-.2.12-.4.17-.6.01-.17.03-.35.04-.53.01-.01.01-.04.02-.02.1-1.2.03-1 0-.44-.01-.03-.02.02-.06.2.08-.47.13-1.1.03-1.74-.05-.32-.14-.63-.3-.9-.07-.14-.18-.27-.28-.38-.07-.07-.1-.1-.14-.1-.06-.01-.03-.06-.02-.1s.02-.05.03-.06c.01-.3.01-.58.01-.86-.01-.33 0-.64-.06-1-.07-.35-.2-.7-.4-1a1.56 1.56 0 0 0-.41-.4c-.08-.05-.16-.1-.25-.14l-.13-.05s-.03-.01-.04-.01a.81.81 0 0 0-.31 0c.02-.07.06-.18.06-.28 0-.05.01-.1 0-.17 0-.1-.01-.2-.02-.3a2.02 2.02 0 0 0-.14-.55c-.13-.35-.32-.66-.55-.93-.1-.1-.25-.3-.43-.4-.16-.1-.35-.2-.56-.23-.43-.08-.87.07-1.17.3-.16.1-.1 0 .12-.17.1-.1.3-.18.55-.23-.2.03-.4.1-.57.2-.27.16-.47.37-.65.6.02-.03.03-.07.03-.1v-.03zm-15.32-7.1c-.5-1-.15-2.17.78-2.63l8.6-4.5a2.03 2.03 0 0 1 .94-.22 2.24 2.24 0 0 1 .57.08 1.77 1.77 0 0 1 1.12.93l2.34 4.47c-.57.23-.82.68-1.02 1.03-.2.4-.34.8-.46 1.16.3-.76.24-.5.14-.16-.24.67-.44 1-.6 1.53l-.1.03c.2-.22-.57 1.74-.64 2-.2.35.34-1.03.36-1.22l-1.56 3.9c-.5 1.42.2-.22-.01.48-.48 1.23-.9 2.46-1.56 3.84l.26-.4c-.45 1.16-.83 2.1-1.2 2.9-.18.33-.36.64-.62.8l-7.34-14.03zm1.82 19.4a.55.55 0 0 1 .3-.3.5.5 0 0 1 .32-.02c.1.48.15.9.1 1.3-.13 1.08-.3 2.03-.5 3-.07-.01-.14-.01-.2-.02l-.1-.13c-.7.02-1.15.02-1.46 0l1.54-3.83zm13.55 5.17c-.1.2-.1.27-.13.36l-.1.28c-.12.37-.24.74-.37 1.08v-.05c-.28 1.03-.7 2.17-.84 2.68l-.01-.05-.4 1.24.04-.22a99.56 99.56 0 0 1-1.7 5.2l.13-.1c-1.23 3.4-1.47 4.72-2.6 7.78v-.05c-1 3.7-2.04 5.84-3.08 9.4-4.5-2.72-7.3-3.8-13.05-6.8l-1.17-.67 2.42-3.64c1.08-1.63 2.14-3.27 3.14-4.94.98-1.68 1.87-3.37 2.62-5.07.08-.16.15-.32.2-.48.07-.17.12-.32.1-.32.95-2.05 1.78-4.17 2.37-6.38 0 0 .14-.5.32-1.35.1-.42.18-.94.25-1.5l.06-.43c.02-.18.04-.35.04-.53a4.82 4.82 0 0 0-.13-1.07c-.3-1.38-.8-2.7-.72-4.1.03-1.5-.04-2.97-.15-4.24-.13-1.47-.33-2.66-.5-3.32.17-.01.42.01.6.14.26.16.5.56.68.98.17.44.33.94.43 1.27l.17.55c.25.86.43 1.68.76 2.55.1.22.18.44.32.66.03.05.06.12.13.2l.3.36c.13.17.25.33.5.57.28.26.63.44 1 .46s.72-.12 1-.37c.15-.1.26-.25.37-.4.1-.12.14-.2.2-.3.24-.4.38-.76.52-1.1l.84-2.04 3.75-9.75c.17-.47.3-.87.48-1.2.16-.34.4-.64.5-.7.03-.02.07-.02.1-.01.02.01.02 0 .06.03.01.01.03.02.04.03.02.03.02.03.03.1.01.14.02.3.01.45-.04 1.3-.22 2.52-.38 3.72-.15 1.22-.4 2.38-.5 3.92a4.7 4.7 0 0 0 .01.65c0 .06.02.14.03.23 0 .03.02.1.05.17s.02.1.16.3c.06.07.1.13.2.2.14.1.34.14.5.14.18-.01.2-.04.32-.08.08-.03.2-.1.22-.14.1-.08.17-.18.24-.28l.16-.27.14-.2c.1-.12.2-.24.3-.34.22-.2.36-.23.44-.2.03 0 .07.02.1.05.02.01.05.04.08.05.01.01.01 0 .02.01.1.12.24.28.32.43.08.14.14.3.18.46a.91.91 0 0 1 .03.23c0 .05.01.05 0 .14-.02.1-.02.2-.07.33l.42.6.45.58c.85.1.66.98.63 2.67.16.2.26.33.36.42l.16.18c.04.06.05.2.06.2.01.02.04.04.06.08.06.1.1.23.13.36.07.3.1.65.08 1.02a8.77 8.77 0 0 1-.34 2.16c-.16.8-.63 1.85-1.3 2.85-.65 1-1.5 2-2.04 2.93l-.5.66a3.15 3.15 0 0 1-.27.59l.03-.01zm.5 1.03l1.2-1.47c.01-.02.02-.03.03-.05l5.73 1.96 2.93 5.2-2.56-2.05c-.74-.58-1.66-1.06-2.56-1.6-1.13-.68-3.23-1.46-4.76-2h0zm18.23 107.52c-2.97-.04-6.03.64-9.12.5-1.47.14 1.3-.23-.9-.12-.07-.16 1.03-.1.46-.23-1.03.04-1.9 0-2.8-.03.35-.6.64-1.2.85-1.86.25-.72.37-1.35.56-2.03.18-.67.35-1.34.5-2 1.24-5.4 2.08-10.9 2.43-16.07.06-.33.08-1.2.06-1.2.34-3.14.6-6.3.87-9.43l.48-6.6.68-11.93c.16-3.55.22-6-.07-5.44-.1.18-.22.67-.38 1.52l.13-1.54.54-6.8-.04 6.18c.06 1.75.22 1.64.43.7.2-.93.43-2.68.6-4.2l.3-2.8c.53-5.13.76-9.03.82-13.2.03-2.08.04-4.23-.04-6.64-.07-2.4-.2-5.06-.6-8.17-.13-1.37-.4-2.6-.6-3.75l-.12-.5.66.12c2.2 4.06 7.4 15.53 7.54 33.57.18 21.1-.47 56.18-.58 61.97-.84-.05-1.74-.06-2.7 0l.04-.02zm9.35.05l-.12-.1-4.38.03 1.64.02c-.33.18-1.4.1-2.82.02l.58-62c-.18-20.67-6.93-32.9-8.4-35.32l1.95 1.67.01-.18c.4.74 1 1.78 1.5 2.48 1.75 2.32 3.55 5.45 4.66 7.98l.74 1.74.54 1.33c.3.7.5 1.04.56.78.02-.16 0-.56-.1-1.23l.36 1.16c.47 1.73.9 3.55 1.3 5.44a43.03 43.03 0 0 0-.5-1.7c-.48-1.46-.84-2.46-1.1-3.1-.53-1.28-.67-1.14-.6-.4.06.75.3 2.1.52 3.28a51.83 51.83 0 0 1 .4 2.17l1.67 10.2c.5 3.22 1.04 6.64 1.5 11.45.62 8.48.46 10.74.95 19.54l.48 12.8c.26 1.95.14 5.4.36 7.7l-.1.9c.08.8.14 1.73.1 2.53l-.04-.05c.12 1.2.1 2.53.16 3.13l-.04-.05.06 1.45-.06-.25c.15 2.08.22 4.22.26 6.1l.14-.16a12.41 12.41 0 0 0 .01.61l-2.2.02h.01zm78.9 2.1a4.05 4.05 0 0 0 .7.3c-.3-.08-.4-.1-.3-.03.03.02.1.04.17.07-.33-.01-.65.04-.94.16.14-.2.26-.36.37-.5h0zm2.22 10c-.17.5-.6.86-2.75.2-1.62-.6-2.34-1.15-2.2-1.67.3-.73.92-.76 2.75-.2l.26.1c1.7.63 2.15.9 1.94 1.57h0zm2.3-2.8c-.3.84-1.18.88-3.4.18-1.36-.34-2.3-.84-2.6-1.38-.1-.18-.12-.4-.05-.58.1-.3.26-.5.5-.62.17-.08.38-.12.6-.12.66 0 1.53.28 2.3.56 1.12.28 2.3.65 2.63 1.23.1.14.16.35.03.73h-.01zm1-3.3c-.3.83-1.18.88-3.4.18-1.36-.34-2.3-.84-2.6-1.38-.1-.2-.12-.37-.05-.57.4-1.04 1.15-.97 3.4-.18 1.12.28 2.3.65 2.63 1.23.08.13.15.34.02.72h0z"/><g fill="#fff"><path d="M238.62 112.52c.03.22.06.6.02.6l.14.3c.06-2.4-.55-4.37-1.36-6.57.16.5.23.85.05.4-.27-.78-.6-1.55-.94-2.3.13.13.2.28.3.43-.53-1.13-1.2-2.23-2.06-3.2l.25.5-.6-.76-.75 2.24c1.56 1.94 2.43 4.47 2.83 7.06.43 2.85.5 5.78.3 8.62-.06 1.43-.22 2.83-.4 4.22l-.63 4.07-.2.45c-.12.1-.15.83-.2 1.6-.06.77-.12 1.57-.25 1.76l-.13 1.26c-.1.34-.27 1.07-.2.44-.22 1.14-.18 1.18-.28 2.02l-.37 1.2c-.98 4.5-1.53 8.4-2.58 13.13-1.46 5.65-3.53 16.43-4.76 22.64-1.6 8.76-4.67 18.67-6.3 27.63-.1.28-.2 1.05-.17 1.05l-1.86 8.12-2.46 11c.5.13 1.4.52 1.8.84l.18-2v.2c1.12-4.42 1.78-7.22 2.24-10.34.4-.42.85-3.65 1.18-4.67v.1c.4-2.76 1.44-5.55 1.83-8.2 0 .1.06.18-.07.78.4-1.92.9-4.54 1.1-4.64.97-4.57 2.46-10.9 2.84-13.9v.2c.2-1.7.45-2.16.77-4.04.04-.1.08-.23.1-.2.22-1.85 1.13-5.3 1.38-6.78l.13-.07.76-3.62-.32 1.35c-.2-.53.78-2.7 1.15-5.36.56-2.45.45-5.1 1.13-7.63.12-1.25 0 1.12.28-.72.17-.03-.08.87.14.43.3-1.8.78-2.9 1.13-5.12l.14-.06c.37-2.92 1.28-5.4 1.45-7.36.48-3 .77-1.92 1.1-5.07l.38-1.18c.27-1.33-.03-1 .32-2.46.1.1.38-1.86.35-.98.3-1.68.57-3.4.7-5.26l.28-2.9c.07-1.07.17-2.14.3-3.2-.15-1-.05-3.28-.23-4 .12-.13-.32-4.6.1-2.04l-.01.01z"/><path d="M226.57 135.93l-.01-.14-1.76 6.36c-.37.2-.7 2.23-1 2.84v-.07c-.3 1.72-1.24 3.36-1.58 5 0-.07-.07-.13.05-.5-.34 1.17-.8 2.77-1 2.8l-2.8 8.36v-.14c-.2 1.06-.5 1.27-.86 2.4-.05.05-.1.12-.1.1-.13.57-.47 1.34-.83 2.06l-.9 1.84h-.13c-.36.66-.66 1.35-1.1 1.95.16-.23.35-.44.48-.7.08.22-.23.53-.6 1-.4.44-.84 1.06-1.3 1.74-.5.57-.85 1.3-1.3 1.96-.46.65-.9 1.35-1.57 1.82-.5.6.37-.6-.44.2-.13-.1.34-.42.04-.32-.4.38-.78.64-1.18.93-.4.28-.87.52-1.4.96l-.1-.07c-.33.3-.7.55-1.06.74l-1.07.54c-.7.3-1.36.5-1.86.85-.85.35-1.17.34-1.5.37-.32.04-.64.06-1.54.38-.25 0-.5 0-.75-.01-.8.08-.54.28-1.44.32.04-.08-1.13-.03-.6-.14-1-.02-2 .02-3.1-.06-.54-.07-1.1-.1-1.67-.27l-.77-.22c-2.8-.45-2.08 1.24-.82 1.64 1.82.6 3.67.84 5.46.92l.32.13c.07.1.57.01 1.07-.1.5-.13 1-.3 1.16-.2l.8-.2c.23-.01.72-.08.33.06.75-.16.76-.2 1.28-.38.28-.01.55-.06.82-.1 2.93-.8 5.13-2.26 7.64-4.14 1.6-1.03 3.54-3 5.16-5.24 1.65-2.24 2.72-4.85 3.5-6.68 1.95-5.26 4.87-11.1 6.24-16.68.08-.17.16-.65.14-.65l1.56-4.98s1.82-6.06 2.65-9.9c.82-3.84.85-5.38-2.57 3.6l.01.02zm-21.52-17.6l-.1.06c.02.01.04 0 .1-.06zm-16.4 24.17v.03-.03zm12.43-21.67h0l.02-.03-.02.03z"/><path d="M205.42 116.5l-.85.74-.6.5c-.38.34-.77.68-1.3 1.3-.55.56-1.08 1.2-1.57 1.8-.15.35-.66.75-.85 1.15l-.16.08c-.07.14-.16.28-.28.37v-.02c-.1.2-.28.37-.33.47l-.01-.02-.16.2v-.05c-.2.33-.44.65-.68.9l.1.03c-.54.53-.56.85-1.07 1.3l-.01-.02c-.33.8-.92 1-1.27 1.82.04-.1-.06.01-.08-.01-.22.34-.46.7-.33.8-.17.24-.18.17-.25.16.06.04-.06.27-.18.46l.04-.1-.35.56.2-.03c-.23.26-.2-.02-.35.27l.1.06c-.3.38-.6.52-.93.86-1.1 1.6-1.94 3.53-2.98 5l-.12.03c-.13-.03-.08.53-.22.53l-.05.2c-.05.04-.13.14-.1.03-.1.17-.08.18-.12.32l-.17.14c-.4.65-.56 1.3-.95 2-.6.78-1.23 2.5-1.57 3.5-.46 1.4-1.52 2.83-1.87 4.3-.03.04-.04.17-.03.18l-.48 1.3-.74 2.6c-.2 1.03-.08 1.46 1.2-.77l.02.04c.3-.7.46-1.13.48-1.66.2-.02.2-.58.33-.72l.01.02c.04-.47.44-.84.5-1.3.01.02.05.05.01.14.1-.3.22-.73.32-.7l.74-2.2.01.04c.01-.3.13-.34.2-.64.02-.01.03-.03.04-.02.03-.32.35-.82.4-1.06l.07.01.23-.56-.1.2c-.13-.15.3-.37.36-.82.2-.36.03-.9.3-1.26.02-.22.04.22.12-.08.1.03-.01.15.1.12.1-.3.3-.4.42-.75l.07.02c.1-.5.5-.76.53-1.1.17-.47.34-.2.47-.7l.2-.13c.12-.18-.03-.2.13-.4.05.04.2-.24.18-.1.36-.43.43-1.05.94-1.6-.03-.2.2-.48.2-.63.06.01.4-.62.28-.2-.01.04-.05.1-.06.07l.04.08c.34-.28.33-.68.57-1.02-.1.1-.17.23-.15.1l.2-.32.01.1.33-.46-.1.03c.18-.22.34-.23.42-.55.02-.15-.23.17-.1-.1l.9-1.1c-.1-.01-.02-.12.04-.23l.07.03c.2-.48.24-.06.45-.52v.07l-.05-.2c.13-.46.26-.1.38-.64-.1.17-.2-.02-.02-.2l.02.1c.06-.12.06-.18.13-.24-.01.1.06.1.17-.07v.16l.1-.38c.23-.2.43-.62.58-.65 0 0 .4-.47.4-.66-.02.14.2-.12.2.01.03-.18.26-.6.44-.7l-.01.03c.5-.5.65-1.02 1.13-1.46-.1-.03.16-.27.02-.27.3-.6.93-.78.82-1.18.18-.24.3-.22.4-.33l-.03.07.72-.9c.1-.18.01-.3.3-.56-.03.13.06.01.15-.1-.05.07-.05.1.1 0 0-.03.02-.07.04-.1 0 0 .01 0 .02.01.14-.2.1-.17.02-.1 0-.01-.02-.01-.05 0 .22-.13.44-.5.54-.46.45-.53.72-.97 1.08-1.42.1-.01.03.12-.07.26l.27-.3c.06.06-.13.2-.2.3.42-.27.6-.8 1.1-1.14l.04-.13.03-.02c-.03-.02.03-.15.1-.2.1-.01.1.12.3-.08.2-.1.45-.5.6-.68-.1.07-.1.02-.07-.04.07-.06.13-.03.16-.1l.04.1c-.03-.04 0-.1.04-.15s.1.01.12-.02c.04.1-.12-.02-.1.1.1 0 .15.06.18.06.05.02.1.05.3.15.3.08-.01-.1.16-.1.25.1.5.18.76.38l-.05-.12c.48.2.74.34 1 .58 3.66 1.2 1.15-.44 1.15-.44-.6-.44-1.12-.7-1.67-.94l-.88-.38c-.1-.03-.5-.24-.8-.38l-.24-.1-.06-.03-.15.15c-.18.1-.32.23-.46.37l-.01.06zm69.98 78.13v-.2c-.01 0-.02.05-.01.2h.01zm-6.36-49.93c-.01-.02-.01-.03-.02-.04.02.03.02.04.02.04zm6.68 42.1h0c.01.03.01.04.01.06l-.01-.06z"/><path d="M276.74 196.9l-.53-6.1-.5-3.98c-.2-.6-.2-1.68-.38-2.4l.04-.3c-.06-.24-.12-.53-.1-.78l.02.01c-.1-.36-.1-.78-.16-.97h.02l-.06-.45.04.07c-.13-.64-.2-1.3-.25-1.9l-.08.06c-.05-1.26-.28-1.7-.3-2.85l.02.01c-.4-1.4-.1-2.28-.5-3.72.05.18.04-.08.06-.07-.1-.68-.2-1.4-.37-1.4-.06-.5.01-.4.06-.48-.07.01-.16-.4-.2-.8l.05.17-.16-1.1-.1.23c-.03-.6.15-.17.05-.73l-.12.02c-.07-.8.05-1.3.04-2.1l-1.26-9.8.07-.15c.12-.08-.3-.8-.2-.94l-.1-.34c.01-.1.01-.3.06-.14-.04-.33-.06-.33-.13-.56l.03-.36c-.12-1.3-.43-2.37-.6-3.72-.1-1.65-.74-4.68-1.16-6.4-.64-2.43-.72-5.4-1.53-7.84a.67.67 0 0 0-.1-.28l-.55-2.3s-.7-2.77-1.36-4.42c-.32-.83-.63-1.38-.7-1.2-.1.2.04 1.1.38 3.24l-.04-.05c.28 1.24.47 2.02.83 2.84-.13.18.24 1.02.25 1.33h-.02c.32.73.26 1.6.55 2.3-.02-.03-.07-.03-.1-.2.15.53.34 1.25.25 1.3l.94 3.86-.04-.05c.2.45.13.6.28 1.12-.01.03-.01.07-.01.06.2.5.3 1.5.4 1.9l-.06.04.2 1.02-.05-.38c.2.1.02.8.27 1.5.1.7.6 1.35.63 2.1.14.33-.2-.28-.04.22-.1.03-.1-.23-.15-.1.12.5.04.84.2 1.46l-.07.04c.25.8.13 1.55.33 2.07.18.83-.14.6.12 1.45l-.05.35c.03.38.16.25.17.67-.07-.02.02.53-.07.3.03.95.4 1.9.38 3.16.16.25.16.9.28 1.08-.05.04.15 1.25-.06.57-.02-.06-.03-.17-.01-.16l-.08-.07c-.05.73.23 1.28.3 1.98 0-.2-.04-.5.03-.3l.07.65-.08-.13.08.97.06-.14c.02.48-.1.66.08 1.2.1.24.05-.46.13.04l.14 2.42c.08-.1.1.13.14.35l-.07.03c.2.85-.13.33.06 1.18l-.06-.07.18.2c.24.75-.1.43.2 1.27-.05-.34.14-.18.16.24l-.08-.1c.04.23.08.3.08.46-.05-.13-.1-.06-.06.28l-.12-.22.2.63c-.02.5.17 1.28.1 1.5 0 0 .07 1.07.2 1.3-.1-.2-.05.38-.15.23.1.27.27 1.07.22 1.4l-.02-.06c.05 1.22.35 2.05.37 3.15.08-.06.1.52.2.36.24 1.1.01 2.07.4 2.43.08.5-.01.6 0 .88l-.03-.12.24 1.94c.07.35.24.4.27 1.03-.1-.2-.05.06-.02.3-.03-.15-.05-.2-.06.12l.06.17s-.01.02-.01.01c.07.4.08.32.07.14.01.01.02-.01.03-.07-.04.42.13 1.15.03 1.2l.5 3.02c-.04.12-.12-.1-.17-.4l.1.7c-.08 0-.1-.4-.13-.6-.04.85.32 1.7.3 2.7l.1.2v.06c.03-.01.1.2.13.35-.05.15-.16.01-.1.5-.03.4.15 1.1.25 1.6-.02-.27.03-.2.07-.08.03.24-.03.4.02.58l-.1.03c.08-.1.16.62.2.7-.05.15-.1-.37-.16-.43l.17 1.46c.13.5.08-.1.2.14.07.46.18.9.18 1.43l.07-.18c.16.86.2 1.37.18 1.96 1.37 6.36 1.07 1.26 1.07 1.26-.08-2.56-.47-3.84-.86-6.85l-.03.04zm-70.48 17.35l.1.03c0-.01-.03-.02-.1-.03zm27.9-1.17l.02-.02-.02.02zm-23.56 2.32h0c-.02 0-.02.01-.03.01h.03z"/><path d="M204.9 215.34c1.5.03 1.9.2 3.43.12l2.24-.06c.34-.13.95-.01 1.35-.12l.16.07c.14-.04.3-.06.44-.02l-.01.02c.2-.06.44-.02.55-.05l-.01.02.25-.01-.04.03c.36-.06.74-.07 1.07-.04l-.03-.1c.7.1.96-.1 1.6.02v.02c.8-.23 1.27.15 2.1-.07-.1.03.04.04.04.07.38-.03.8-.04.8-.2.28 0 .23.05.26.12 0-.07.24-.1.46-.1l-.1.03.62-.03-.12-.14c.33.04.08.17.4.14v-.12c.46.02.73.2 1.17.28 1.84.04 3.8-.27 5.52-.07l.08.1c.03.13.47-.2.54-.07l.2-.06c.06.02.17.05.07.08.18 0 .2-.02.32-.06l.2.08c.7.07 1.38-.14 2.17-.16.97.05 2.73-.48 3.64-1 1.25-.7 2.98-1.13 4-2.27.05-.02.12-.13.1-.14l1-.9s.3-.28.65-.7c.36-.4.75-.95 1-1.4.24-.45.35-.82.18-.8-.17 0-.6.35-1.54 1.1v-.04c-.5.5-.8.8-1.05 1.23-.17-.06-.43.38-.6.45v-.02c-.22.4-.74.47-.98.82 0-.02-.02-.06.05-.12-.22.2-.54.45-.6.4-.56.44-1.44.87-1.8 1.2l.02-.04c-.2.2-.3.16-.54.33-.02 0-.04 0-.04-.01-.23.2-.77.3-.97.42l-.03-.06c-.17.08-.36.1-.54.17l.2-.04c-.02.2-.44 0-.8.2-.37.08-.7.5-1.1.5-.18.12.15-.16-.13-.05-.02-.1.12-.08.04-.14-.27.1-.46-.03-.8.05l-.02-.07c-.44.16-.84-.05-1.14.08-.48.06-.32-.22-.82-.07l-.2-.1c-.2-.02-.15.12-.4.08.01-.06-.3-.05-.16-.1-.53-.1-1.08.15-1.78-.02-.15.12-.5.05-.62.15-.02-.05-.7 0-.3-.12.03-.01.1-.01.1.01l.05-.07c-.4-.14-.73.08-1.12.06.12.02.27.02.17.07h-.37l.08-.06-.55-.03.08.08c-.27-.04-.36-.17-.66-.06-.14.06.25.1-.03.13l-1.35-.15c.04.1-.08.08-.2.1l-.01-.07c-.5.1-.18-.16-.66-.08l.04-.05-.13.16c-.43.15-.23-.15-.72.05.2-.01.1.16-.14.13l.06-.07c-.13.02-.17.05-.26.03.08-.04.04-.1-.15-.1l.13-.1-.36.13c-.28-.08-.72.02-.84-.08 0 0-.6-.05-.74.07.12-.07-.2-.1-.12-.18-.16.08-.6.15-.8.06h.03c-.68-.08-1.16.12-1.77.02.03.1-.3.04-.2.15-.63.1-1.15-.22-1.38.13-.3.02-.34-.08-.5-.1l.07-.02-1.1.03c-.2.03-.23.2-.6.16.12-.06-.03-.05-.16-.05.1-.01.1-.03-.06-.08-.02.02-.06.03-.1.04 0 0-.01-.01 0-.02-.22.02-.18.04-.08.05-.01.01 0 .02.04.04-.23-.08-.65.01-.67-.1-.67.03-1.15.14-1.7.2-.06-.06.07-.1.23-.13l-.4.02c0-.08.23-.05.35-.06-.47-.13-.97.14-1.53.02l-.1.06-.03-.01c0 .03-.12.08-.2.1-.08-.07 0-.16-.27-.16-.22-.07-.62.04-.9.08.15.01.1.05.04.08-.14 0-.22-.07-.32-.04l-.01-.1c.05.1-.36.1-.4.14-.08-.07.2-.06.25-.1l-.82.02c-.3.07.05.1-.1.17-.26.02-.5.1-.8.03l.1.08c-.5.07-.78.06-1.1-.02-3.62.7-.76.94-.76.94 1.38.15 2.12-.1 3.8-.18v-.04z"/></g><path d="M208.8 249.75h-.2c-2.2-.6-3.4-3.4-2.7-6.3l4.5-17.8c.7-2.9 3-4.7 5.2-4.2l.2.1c2.2.6 3.4 3.3 2.7 6.2l-4.5 17.8c-.6 2.8-3 4.7-5.2 4.2zm33-158.6l-2.62 1.37.54-4.94c-.42.2-1.13-5.15-2.6-6.63-1-1-3.14 2.28-2.8.6 1.8-8.93-.16-9.1-.4-9.6l-7.1 16.75-7.7-14.67c-.6-1.2-.2-2.7 1-3.3l8.6-4.5c1.2-.6 2.7-.2 3.3 1l10.8 20.6c.6 1.2.2 2.7-1 3.3z"/><g fill="#fff"><use xlink:href="#B"/><use xlink:href="#B" x="1.43" y="3.02"/><path d="M215.38 97.15l-.06-.03c.01.01.02.02.06.03zm-12.3 5.25h0zm10.04-6.22h0l.01-.01z"/><path d="M216.04 96.05c-.76-.03-.98-.2-1.77-.06a6.17 6.17 0 0 0-1.14.19c-.15.16-.48.1-.67.23l-.1-.06c-.06.05-.14.1-.22.06h0c-.1.07-.22.07-.26.1h0l-.12.04.01-.03c-.17.1-.35.15-.52.17l.04.08c-.37 0-.46.2-.8.18v-.02c-.32.35-.67.06-1 .4.04-.04-.04-.03-.04-.06-.18.1-.37.16-.3.33-.13.05-.12 0-.17-.06.03.07-.07.15-.17.2l.04-.05-.28.15.1.1c-.17.03-.1-.14-.24-.05l.05.1c-.22.07-.42-.04-.66-.02-.45.15-.83.48-1.23.73a9.12 9.12 0 0 1-1.2.68l-.08-.05c-.08-.1-.1.3-.2.2l-.05.1c-.04 0-.1.01-.07-.04-.08.05-.07.07-.1.14h-.13c-.34.16-.52.45-.83.68-.46.17-1.06.83-1.38 1.23-.37.63-1.32.84-1.68 1.5-.03.01-.04.08-.03.1l-.44.5s-.53.6-.76 1.06-.14.74 1.04.18v.03c.28-.22.43-.38.48-.66.15.1.2-.2.3-.23h.01c.04-.25.36-.26.43-.48 0 .02.04.05 0 .1.1-.12.2-.3.3-.23.24-.27.62-.58.67-.86l.01.03c.02-.17.1-.13.18-.27.01 0 .03 0 .03.01.02-.18.3-.3.35-.4l.05.05.2-.2-.1.06c-.1-.16.24-.05.32-.27.16-.1.06-.54.28-.6.02-.13.02.16.1.02.06.07-.01.1.06.13.08-.12.24-.07.33-.23l.05.06c.1-.26.4-.16.45-.36.16-.18.25.1.37-.16l.13.03c.1-.04-.01-.14.1-.17.03.06.15-.04.12.05.27-.05.35-.42.73-.44 0-.14.2-.16.2-.27.03.04.3-.16.2.04-.01.02-.04.03-.04.01v.07c.24.03.27-.23.45-.3-.06.01-.12.05-.1-.02l.16-.08v.07l.25-.1-.07-.05c.13-.03.23.07.3-.1.03-.1-.15-.03-.04-.12.17-.04.45-.06.66-.13-.05-.07 0-.1.05-.13l.04.07c.17-.2.14.12.32-.05v.06l-.01-.17c.13-.22.16.1.3-.18-.08.05-.1-.14.02-.15v.08c.05-.04.06-.08.1-.08-.02.05.02.1.1.06l-.02.1.1-.2c.15.03.32-.13.4-.05 0 0 .3-.05.32-.17-.03.08.13.06.1.15.05-.1.23-.23.34-.18h-.01c.33-.03.5-.26.8-.24-.03-.08.13-.07.06-.17.27-.18.6.08.62-.28.13-.05.18.05.25.05l-.03.02c.25-.07.32-.1.5-.1.1-.05.08-.2.26-.2-.05.07.02.05.1.04-.04.02-.05.04.04.07.01-.02.03-.04.04-.05.1-.02.08-.04.03-.04 0-.01 0-.02-.02-.04.12.06.3-.05.34.06.32-.06.54-.2.8-.27.03.05-.02.1-.1.14l.2-.04c0 .08-.1.06-.16.08.23.1.46-.16.73-.06l.05-.07h.02c0-.03.06-.08.1-.1.04.07 0 .16.13.15.1.06.3-.05.43-.08-.07-.01-.05-.05-.02-.08.07 0 .1.07.16.04v.1c-.03-.1.17-.1.2-.13.04.07-.1.06-.12.1l.4-.01c.14-.07-.02-.1.05-.17.13-.01.25-.07.4 0l-.04-.1c.24-.05.4-.03.54.07.92-.24 1.1-.4 1-.58-.13-.18-.5-.3-.5-.3-.77-.26-1.18-.04-2.05.01zm27.06-9.03a.5.5 0 0 1-.44-.27l-9.32-18.12c-1.76-3.63-3.4-3.44-4.6-2.87-1.52.7-9.62 4.9-9.7 4.96a.5.5 0 0 1-.67-.2c-.13-.25-.03-.55.2-.67l9.74-4.97c2.37-1.1 4.3-.01 5.94 3.34 1.82 3.74 9.23 17.95 9.3 18.1.13.25.03.55-.2.67-.07.03-.15.05-.23.05zm23.12 123.43l-.02.05c.02-.01.03-.02.02-.05zm8.63 3.7zm-8.85-1.67h0l-.02-.01z"/><path d="M265.03 210.35c.17.58.08.8.43 1.35a3.83 3.83 0 0 0 .53.78c.18.04.22.33.43.4l-.01.1c.07.02.13.06.14.13h-.02c.1.03.14.13.2.14l-.02.01a.27.27 0 0 0 .08.07l-.04.01a.94.94 0 0 1 .36.28l.05-.07c.15.28.36.2.5.44h-.02c.4.01.37.44.8.4-.05.01 0 .05-.01.07.16.05.32.1.38-.04.1.04.07.08.06.14.03-.07.13-.07.22-.05l-.05.01.25.05-.01-.15c.1.08-.02.18.12.18l.03-.1c.17.08.23.28.4.4.8.2 1.5-.1 2.16.16v.1c.01.13.2-.18.2-.06l.08-.05c.02.02.06.05.02.08.07.01.07-.01.13-.05l.07.08c.27.08.52-.07.8-.02.34.18 1 .05 1.4-.03.54-.18 1.15.34 1.7.12.02.02.06-.02.06-.04l.5.01s.6 0 1-.13c.38-.14.5-.4-.43-.9l.01-.03c-.27-.06-.44-.07-.62.07-.03-.17-.22-.02-.3-.07l.01-.01c-.16.13-.34-.1-.5.01.01-.01.01-.06.05-.06-.12.02-.27.06-.28-.04-.28.03-.66-.03-.84.13l.01-.03c-.1.1-.13.01-.24.07-.01-.01-.01-.02-.01-.03-.1.1-.32.01-.4.05v-.07l-.22.01.08.02c-.03.18-.16-.12-.32-.01-.15-.03-.32.37-.47.27-.08.08.07-.14-.04-.08 0-.1.05-.06.03-.14-.1.04-.17-.1-.3-.05v-.07c-.18.13-.32-.1-.45.01-.18.05-.1-.23-.3-.1l-.07-.1c-.08-.02-.06.12-.15.07.01-.06-.1-.06-.05-.1-.2-.1-.4.12-.67-.07-.07.12-.2.04-.24.13 0-.05-.27-.03-.1-.13.01-.01.04-.01.03.02l.02-.07c-.14-.15-.28.06-.42.02.04.03.1.03.06.07l-.14-.02.03-.06c-.07-.02-.14-.03-.2-.06l.02.08c-.1-.05-.1-.2-.2-.1-.05.05.07.12-.03.12-.12-.07-.28-.17-.42-.22-.01.1-.05.08-.1.08v-.07c-.18.05-.01-.18-.18-.14l.03-.05-.08.14c-.18.1-.02-.17-.24-.03.07.01-.03.16-.1.1l.04-.06c-.05 0-.07.03-.1 0 .04-.03.05-.1-.01-.1l.07-.07c-.05.03-.1.05-.16.07-.05-.1-.23-.1-.2-.2 0 0-.15-.13-.25-.05.07-.04-.01-.1.06-.17-.08.04-.24 0-.24-.1h.01c-.13-.2-.4-.12-.47-.34-.05.07-.1-.04-.15.06-.24-.07-.12-.42-.42-.25-.08-.06-.02-.14-.04-.2l.03.01c-.14-.13-.2-.16-.26-.28-.07-.04-.2.05-.24-.08.08 0 .04-.04.01-.08.03.02.05.01.05-.06-.02 0-.04 0-.05-.01-.05-.06-.06-.04-.05-.01-.01 0-.02.01-.03.03.02-.1-.14-.2-.05-.26-.14-.2-.33-.3-.45-.45.04-.05.1-.02.15.02l-.08-.12c.07-.03.08.05.1.1.05-.2-.26-.26-.24-.5l-.07-.01.01-.02a.12.12 0 0 1-.11-.04c.05-.05.15-.06.1-.15.03-.1-.1-.2-.18-.28.01.06-.03.05-.07.04-.02-.05.04-.1 0-.12l.1-.04c-.08.05-.13-.1-.17-.1.06-.05.08.06.14.05l-.1-.28c-.1-.08-.08.04-.17.02-.04-.1-.13-.16-.1-.28l-.07.05c-.1-.16-.12-.27-.07-.4-.47-.6-.7-.68-.83-.55-.13.15-.14.44-.14.44-.1.6.2.85.48 1.48z"/></g><defs ><path id="B" d="M221.9 73.78c-.1 0-.22-.01-.33-.04a1.04 1.04 0 0 1-.71-.61c-.12-.28-.14-.58-.07-.88.07-.3.28-.55.55-.7.2-.15.44-.15.54-.15.4 0 .85.25 1.07.58l.04.07c.27.67.03 1.35-.55 1.58a1.5 1.5 0 0 1-.55.11v.03z"/></defs></svg>