<svg xmlns="http://www.w3.org/2000/svg" viewBox="0 0 480 480" xmlns:v="https://vecta.io/nano"><g fill="#fff"><path d="M159.74 226.2l-10.8-1.5c-1.2-.1-2.1-1.2-1.8-2.5l1.5-10.5 16 3.9-2.5 9c-.3 1.1-1.4 1.8-2.4 1.6zm144.5-.16c2.24 1.76 12 5.67 12 5.67s4.68 4.86 12.3 5.47c.97.08 2.1.34 3-.16.5-.3.9-.47 1.1-1 .14-.4.08-1.04.48-1.44.12-.08 1.1-.13 1.75-.87.63-.7-.15-2.04-.12-2.07.14-.12 1.1-.26 1.3-.7.4-1-.22-2-.86-2.54l-3.95-2.77c-.9-.4 1.8-.6 3.4-.4 1.8 0 3.5-1.2.5-2.1-3-.8-5.4-1.9-6.2-2.1s-4-1-6.2-.8c-1.5.1-3.4.9-6.4-.8-4.8-3-4.84-3.2-6.13-4.5-2.32 3.74-3.52 5.9-5.95 11.12l-.02-.01z"/><path d="M315.74 218.8l-5.4 9.5c-.6 1.1-2 1.4-3 .8l-9.2-5.2 9.6-13.4 7.5 5.6c.9.5 1.1 1.7.5 2.7h0zm-153.67.5c-1.05-.2-12.12-2.63-12.5-1.9-.4.77-1.42 12.8-1.42 12.8s-3.3 6.3-1.8 13.9c0 .6.9 1.2 1.7 1.9.16.13.35.13.55.1.02 0 .03.01.05.01.43.07.75-.04 1-.26.07.01.14.03.2.06.4.1.2 1.2.6 1.4.6.3 1.7 1.1 2.1.6a.27.27 0 0 0 .07-.08c.24-.1.43-.26.6-.5.4-.22.68-.16.92.03.14.36.35.64.67.8.17.23.34.4.55.44 1.1.1 1.8-.7 1.9-.9.6-2.1 1.6-5.3 1.7-6.3.2-1 .65 3.05 1.05 4.55.6 1.7 2.54 3.33 2.34.23s.55-6.32.35-7.12c-.1-.8-.55-4.26-1.55-6.26-.6-1.3-1.9-2.9-1.2-6.3 1.3-5.5 1.9-6.64 2.13-7.2h-.01z"/></g><path d="M333.64 224.4h.01l.16-.05-.17.05z"/><path d="M337.2 223.9c-.08-.23-.24-.43-.44-.62-.5-.38-.8-.52-1.26-.7l-4.96-1.65-1.3-.45-1.34-.3-2.68-.42c-.9-.1-1.82-.14-2.74-.03-.92.12-1.7.3-2.52.26-1.48-.04-2.84-.62-4-1.5l.2-.18c.24-.3.67-.94.33-2.02l.07.03c-.14-.3-.33-.56-.55-.75-.1-.1-.26-.2-.24-.2l-.2-.15c-.27-.2-.54-.32-.85-.4.1-.3-.57-.46-.68-.66l.03-.01c-.4-.1-.62-.44-.9-.7l.05-.14c.56-1.06 1.1-2.52 1.48-3.86l.43-1.85.23-1.22s.06-.33.1-.86c-.02-.52.02-1.27-.08-2-.1-1.35-.56-2.82-.87-3.47.12.2.03-.2-.1-.6-.18-.48-.38-1-.13-.63-.33-.65-1.16-1.82-2.1-2.86l-2.57-2.5.24.18c-2.2-1.92-4.2-3.27-6.1-4.65l-5.63-4.35c.1.26-1.93-1.48-1.54-.93-4.18-3.16-6.8-6.6-8.48-7.57a28.65 28.65 0 0 1-1.62-1.83c-.33-.45-.56-.8-.95-1.27l.4.4c-2.9-3.33-3.6-4.42-5.5-7.1-.93-1.35-1.34-1.4-2.8-3.96.57.77-.05-.26-.6-1.2.37.6.52.77-.16-.52a10.1 10.1 0 0 1-.47-.67c0-.01-.02-.07 0-.05-.9-1.6-.78-1.3-.4-.55-.03-.03-.02.04.08.3-.4-.88-1.02-2.05-1.55-3.04-.5-1-.9-1.84-.86-1.98-2.46-4.97-4.15-8.58-5.85-12.9-.1-.52.36.46.87 1.7l-1.2-3.06c.14-.02.74 1.74 1.12 2.67-.58-1.87-1.38-3.72-2.1-5.7l-1.13-3.02a59.6 59.6 0 0 1-1-3.21l-.4-.87-.07-.27c-.05.03-.44-.93-.67-1.57-.1-.65.27-.04-.48-2.2-.25-.87-.66-2.1-1.16-3.36l-1.62-3.64c.47 1.2.25.84 0 .34-.42-1.07-.6-1.7-1.05-2.48l.07-.13c-.17-.1-1.44-2.7-1.7-3-.2-.64.9 1.54 1.1 1.77-1-2.1-1.36-2.55-1.63-3.06l-.55-.94c-.28-.42-.57-1.1-1.26-2.03-1.5-1.96.13.45-.66-.44-1.23-1.8-2.63-3.38-4.3-5.23l.47.65-2.03-1.9c-.64-.54-1.28-1-1.84-1.45-.55-.48-1.16-.8-1.73-1.18-.58-.36-1.12-.77-1.75-1.04-2.14-.9-4.1-1.3-5.78-1.4-3.02-.35-5.88.13-8.4 1.07l-.73.3c-.68.01-1.36.04-2.04.1-1.84.22-3.62.65-5.92 1.77l.04-.07c-.9.57-1.66 1.14-2.37 1.7a.61.61 0 0 1-.12.05c-.33 0-1.48.33-2.62.9-1.16.52-2.34 1.18-2.95 1.45l.1-.08c-2.97 1.8-6.3 3.42-8.95 5.44.08-.08.1-.17.5-.46-1.97 1.36-4.44 3.17-4.67 3.15-4.7 3.38-11.07 8.34-13.76 10.88l.17-.2c-1.52 1.47-2.1 1.75-3.85 3.32-.1.06-.25.16-.23.14-1.65 1.6-5.1 4.33-6.46 5.6l-.16-.01-3.44 3 1.3-1.1c-.25.62-2.75 2.12-5.05 4.53-2.33 2.07-4.1 4.82-6.45 7.02-.95 1.2.76-1.15-.73.6-.17-.05.66-.86.16-.5-1.48 1.7-2.65 2.6-4.4 4.8h-.17c-1.1 1.45-2.2 2.77-3.22 3.96-.97 1.23-1.9 2.3-2.5 3.37-2.07 3.14-1.8 1.83-3.7 5.28l-.95 1.2c-.87 1.44-.42 1.15-1.43 2.72-.07-.17-1.17 2.05-.76 1.03-.52.92-1 1.87-1.5 2.85l-1.32 3.1c-.85 2.16-1.73 4.48-2.64 7.13-.22 1.2-.94 3.92-1.02 4.83-.18.1-1 5.56-.66 2.4.03-.27.12-.75.14-.7l-.06-.4c-.4 1.56-.63 3-.68 4.46-.03.73-.1 1.45-.1 2.2l-.03 2.3c.06-.94.08-2.2.15-1.36-.03.98-.08 1.97 0 2.95l-.14-.6.1 2.2c.05.74.17 1.47.25 2.2l.04-.63.13 1.4.2 1.17c.07.38.14.77.25 1.2.13.44.32.92.55 1.5.44 1.03-.47-2.02.27.16.42 1.4 1.12 3.1 2.1 4.78.98 1.7 2.37 3.3 3.95 4.48-.1-.17.05-.1.35.1s.78.44 1.26.7l.06.17 1.24.46c.06.02.1.03.15.05-.01.3-.04.57-.15.87.15-.01.01.37.2.3.07.8-.57 1.36-.05 1.73-.02.36-.2.4-.25.58l-.02-.1-.07.8.01-.07c-.04.22-.08.44-.08.76.08.35.32.36.45.92-.16-.14-.08.1.04.28-.08-.12-.14-.15-.06.16.06.03.1.06.15.1-.01.01 0 .02-.02.02.26.3.25.2.15.06.02 0 .02-.03.02-.1.1.43.77.72.72.88a.67.67 0 0 0 .17.07l-.14 1.3-.3 3.5-.23.52c-.1.2-.17.42-.25.63-.4 1.3-1.17 3.58-1.3 5.2l-.16.6c-.05.55-.06 1.2-.15 1.75l-.02-.04c.01.83-.02 1.76.03 2.17l-.02-.03c.01.34.02.67.07 1l-.05-.17a37.01 37.01 0 0 0 .4 2.6v-.12c.03.6.32.9.5 1.14a5.01 5.01 0 0 0 .62.6l-.03-.14.67.6a1.89 1.89 0 0 0 .5.35c.2.08.43.1.64.06.13-.03.23-.06.32-.08a1.86 1.86 0 0 0 .58-.1c.05.03.06.1.08.15l.07.35c.05.2.12.4.26.56.1.15.38.28.48.34.1.07.23.14.35.2a6.79 6.79 0 0 0 .94.47h-.06c.52.16 1.1.05 1.4-.36.03-.04.06-.06.1-.1.02-.01.04-.01.05-.03a1.07 1.07 0 0 0 .3-.3c.03-.02.06-.04.08-.05.1-.04.17-.02.25.05.04.07.06.16.1.22a1.71 1.71 0 0 0 .35.36c.1.12.16.24.3.4a1.38 1.38 0 0 0 .6.37c.1.04.24.03.36.05.1 0 .2 0 .28-.01.2-.02.37-.05.55-.1.36-.1.7-.3 1-.56a2.08 2.08 0 0 0 .21-.21c.1-.1.17-.2.23-.33.12-.3.12-.4.17-.57l.24-1c-.1.4.1-.15.1-.1.4-1.42.82-2.95.65-3.02.02-.08.04-.14.06-.2l.17.93.06-.5c.18 1.27-.12.35.13 1.55l.1-.04c.1.45.1.8.27 1.25a5.97 5.97 0 0 0 .5 1.05c.18.3.47.7 1 1 .25.15.54.17.82.1.3-.08.5-.33.66-.62.1-.27.18-.56.18-.78a3.32 3.32 0 0 0 .02-.63l-.03-1.04c-.01-.67.01-1.36.06-2.05.04-.7.1-1.38.18-2.08l.1-1.07c.01-.38.07-.7-.03-1.24v.06c-.34-2.22-.72-4.46-1.7-6.52-.52-1-1-1.86-1.16-2.83-.18-.95-.1-1.94.1-2.86.04-.1.1-.17.14-.25.02-.01.03-.05.04-.1.42.04 1.02-.04 1.66-.55v.07c.2-.2.37-.43.5-.68.13-.23.2-.5.23-.62.08-.32.1-.62.08-.94.3-.02.23-.7.37-.87l.02.03c-.07-.58.48-1.03.43-1.6.02.03.1.06.06.18.03-.17.06-.37.1-.53.07 0 .13.01.2.01.67-.01 1.36-.02 2-.06l1.76-.16c.5-.07.9-.12 1.15-.12 0 0 .08-.01.2-.03.14-.02.33-.05.57-.1.47-.14 1.12-.24 1.8-.5.67-.25 1.36-.52 1.9-.84.56-.28 1-.58 1.22-.78-.8.64 1.58-.8 1-.27.25-.23.62-.55 1.06-.92.4-.42.9-.85 1.32-1.37l.65-.75.56-.76c.38-.47.64-.92.87-1.23l-.14.26c1.53-2.4 2.28-4.66 2.96-6.8l1.93-6.54c-.2.17.54-2.25.2-1.7.27-1.15.56-2.3.88-3.42.3-1.06.64-2 .92-2.86.34-.84.64-1.6.86-2.25.27-.64.44-1.2.5-1.65.43-1.02.85-1.54 1.12-1.98.3-.43.5-.76.84-1.2l-.26.46 1.42-2.2 1.2-1.58c.7-.97 1.46-1.75 2.47-2.9.33-.37.55-.66.77-.95l-.46 2.2-.25.53c-.26.2-.36 3.54-.65 3.98l-.2 1.5c-.12.4-.33 1.27-.23.53-.27 1.36-.24 1.4-.37 2.4l-.4 1.43c-1.14 5.34-1.77 9.94-2.9 15.57l-.56 2.6-.07.3-.03.16c-.01.05-.04.12.04.1l1.3.02 3.92.04 7.33-.02 13.9-.22c10.3-.3 22.23.5 32.83.18.35.43.87 1 1.8 1.92.3.45.65.87.98 1.3 1.2 1.3 1.03.78 2.34 2.25-.18.01 1.72 1.8.82 1.07a68.18 68.18 0 0 0 2.42 2.38c.84.78 1.76 1.53 2.7 2.33l1.42 1.2 1.52 1.22c1.04.83 2.08 1.76 3.25 2.66.58.3 1.45.9 2.3 1.5.83.6 1.7 1.08 2.12 1.3.04.08 1.3.9 2.17 1.47.9.53 1.43.86-.08.12-.25-.14-.68-.42-.63-.43l-.4-.1 1 .72 1.04.6c.7.4 1.37.74 2.06 1.1.68.36 1.42.62 2.13.94.6.24 1.2.53 1.82.78-.82-.35-1.57-.77-.86-.5.93.48 1.94.77 2.9 1.16l-.65-.13c.73.3 1.46.58 2.23.77s1.5.47 2.3.6c-.2-.08-.42-.14-.62-.25l2.73.58c.42.04.85.07 1.34.08l.8.01c.28-.01.6-.07.93-.12 1.2-.2-2.25.02.24-.23 1.57-.04 3.57-.48 5.47-1.4 1.9-.9 3.65-2.34 5-3.76-.35.16.38-.6 1.06-1.4l.18-.01c.14-.18.3-.36.44-.53.17.1.33.2.48.32.04-.14.35.12.36-.1.77.23 1.05 1.03 1.6.67.33.15.3.32.45.44l-.1-.02.67.33c.2.1.43.24.76.33.36.03.44-.2 1-.14-.18.1.05.1.27.06-.13.03-.18.08.12.1a.56.56 0 0 1 .15-.1c0 .01.02.01.01.02.35-.14.27-.15.1-.12 0-.02-.02-.03-.07-.05.22.03.46-.1.67-.2l2.36 1.07 3.6 1.54c.06.06.1.1.17.16 1.07.84 2.9 2.3 4.38 2.9l.5.34c.5.2 1.1.46 1.6.68l-.04.01c.77.26 1.63.55 2.02.65h-.04l.96.24-.17-.01c.7.16 1.4.25 2.1.36l1.97.23-.1-.1c.66.1 1.3.15 1.9.01a2.94 2.94 0 0 0 .83-.33c.2-.12.4-.23.62-.4s.46-.43.6-.73.16-.6.2-.8c.03-.22.1-.4.13-.44.02-.03.05-.07.1-.06.03 0 .03 0 .1-.01l.24-.06-.03.03c.56-.2 1.08-.5 1.45-.95.24-.27.36-.63.38-.92.03-.3-.01-.56-.06-.8l-.08-.3c-.01-.03-.02-.05-.02-.08.03-.01.06-.02.1-.02l.1-.02.04-.01.17-.07c.24-.1.62-.36.74-.7.5-1.2-.07-2.4-1-3.14.36.3-.1-.16-.12-.18-1.2-.8-2.47-1.7-2.58-1.56-.82-.58-.7-.54-.74-.65.47-.05.98-.06 1.45-.05l-.45-.15c1.24.07.25.16 1.5.2l-.02-.12c.43.01.86-.05 1.27-.16.4-.1.95-.35 1.17-.77.08-.15.1-.4.03-.63l-.05.05zm-181.05 17.7a.41.41 0 0 1 .11.01c.94.18.95 1 .73 2.98l-.07.56c-.18 1.14-.35 2.22-.84 2.57-.18.13-.42.17-.77.1a.89.89 0 0 1-.6-.34c-.24-.34-.46-1.14-.1-3 .22-1.4.63-2.4 1.12-2.76.14-.1.27-.13.4-.13h.02zm-2.7 2.94l-.03.2c-.18 1.14-.35 2.22-.84 2.57-.18.13-.42.16-.77.1a.89.89 0 0 1-.6-.34c-.24-.34-.46-1.14-.1-3 .22-1.4.63-2.4 1.12-2.76.12-.1.25-.13.38-.13a.41.41 0 0 1 .11.01c1 .2 1.06.88.7 3.33l.03.02zm-3.5-1.35c-.07 1.25-.28 2.03-.64 2.3-.1.08-.26.17-.58.12-.26-.04-.38-.16-.44-.25-.4-.55-.14-2-.05-2.53.06-1.1.37-2 .8-2.33a.48.48 0 0 1 .3-.12c.03 0 .07 0 .1.01h.03c.35.05.48.2.55.3.27.4.25 1.2-.07 2.5zm8.4-1.4c-.1.47-.1.64-.2.95.02-.17-.01-.18-.06-.04-.03-.52-.16-.98-.43-1.34l.8.23a2.97 2.97 0 0 1-.08.43l-.03-.23zm1-.96l-.06-.03a.83.83 0 0 0-.21-.06c-.01 0-.02.01-.03 0-.03-.02-.06-.04-.1-.04h-.01c.13-.01.28.01.35.06.07.04.1.06.12.1.05.05.06.07.05.07-.03-.03-.07-.06-.1-.1v-.01zm2.14-17.4l-.28 1.04c-.1.37-.44.77-.78.97-.33.2-.67.27-.65.53.01.07.07.17.2.26-.08 0-.17 0-.25-.01l-.37-.05c-.23.86-.3 1.82-.22 2.8.1 1.22.6 2.5 1.2 3.7.4.44.8 1.66.98 2.05 0 .07.6 2.6.17 1.16-.04-.12-.1-.34-.06-.33l-.12-.15c.2 1.34.56 2.44.74 3.74l.01.08c.01.04.02.14.01.26.01-.12 0-.22 0-.26l-.01-.07c-.03-.3-.05-.5.02-.23l.03.22.01.07c.03.18 0 .63-.04 1l-.04-.3c-.06.67-.17 1.37-.25 2.08l.1-.28c-.14 1.03-.3 1.4-.26 2.6.04.54.14-1 .12.12l-.05 1.18c0 .43.02.93-.01 1.2-.02.17-.03.2-.06.23-.02.04-.07.07-.1.05-.1-.05-.07-.02-.37-.4.02.16-.24-.15-.44-.53l.05-.08c-.1-.17-.17-.33-.18-.4-.03-.1-.06-.22-.07-.33-.03-.17-.02-.26-.02-.34.01-.17.02-.33-.17-1.24l.08.15-.24-.46c-.2-.8-.2-1.03-.23-1.28-.01-.12-.01-.25-.06-.45-.03-.13-.06-.26-.1-.38-.03-.08-.05-.17-.12-.32l-.05-.1c-.02-.03-.02-.04-.1-.14a1.06 1.06 0 0 0-.12-.1c-.03-.02-.02-.02-.1-.05-.07-.03-.14-.05-.22-.06-.1-.01-.18 0-.27.03-.52-.13-2.53-.7-4.17-1.66-1.8-1.06-2.7-3.67-2.7-3.7a.51.51 0 0 0-.63-.32.51.51 0 0 0-.32.63c.04.12 1.02 3 3.14 4.24a14.92 14.92 0 0 0 1.6.8 1.53 1.53 0 0 0-.56.27c-.25.18-.47.44-.65.73-.18-.7-.63-1.24-1.6-1.42h-.01a1.6 1.6 0 0 0-1.25.3c-.2.14-.36.32-.5.53a2.06 2.06 0 0 0-.31-.9c-.27-.4-.68-.65-1.23-.73a1.49 1.49 0 0 0-1.2.3c-.67.52-1.1 1.64-1.17 3-.1.53-.17 1.1-.17 1.62-.05-.04-.07-.04-.06.02-.12-.13-.15-.23-.16-.26l-.01-.1c-.44-2.05-.18-3.75-.46-4.53 0-1.1.16-1.28.22-1.83v.26c.2-2.02.36-2.6.74-4.05.18-.73.05-.9.55-2.16-.1.43.08-.1.28-.56-.1.3-.13.4.16-.2.02-.1.07-.23.1-.35.01 0 .02-.02.02-.01.04-.1.1-.18.12-.25l.02-.43v-.1c-.01.01-.02.1-.05.33-.01-.03-.02.01-.05.17l-.02.02.01-.02.06-.43c.02-.13.03-.26.05-.4l.08-.8c.05-.52.1-.93.16-.98l.18-2.3h.03c.34-.01.67-.03 1.02-.02.07.1-.1.16-.3.17l.5.03c-.02.13-.3.04-.44.04.56.3 1.22-.05 1.88.24l.15-.1.04.02c0-.06.17-.1.27-.1.08.13-.04.27.3.3.25.15.76.05 1.12.04-.2-.05-.12-.1-.03-.13.17.02.25.15.4.12v.16c-.05-.16.46-.1.53-.15.08.13-.27.06-.33.14l1.02.12c.38-.07-.05-.16.14-.27.32.01.65-.05 1 .1l-.1-.15c.6-.02.97.04 1.35.24 4.62-.5 1.15-1.4 1.15-1.4-1.72-.55-2.7-.27-4.8-.46-1.83-.33-2.3-.66-4.22-.82l-.66-.1a.84.84 0 0 1-.28-.06.82.82 0 0 1-.39-.32c-.2-.06-.17-.33-.15-.56l.02-.1c.01-.12 0-.24-.02-.36l.15-.18c-.04-.18-.05-.4.04-.55l.03.02c-.05-.27.04-.55.02-.7l.03.02.03-.3.04.06c-.03-.46.03-.92.13-1.32l-.15.01a2.22 2.22 0 0 0 .09-.37c.35.1.86.25 1.68.44h.7c3.42.55 1.75.73 5.6 1.1-1.5-.26-.66-.37 1.18-.04l-.5.05c1.03.13 1.38.14 2.06.23-.62-.01-.35.14 1.18.3l-1.04.03c.86.05 1.72.04 2.57.03-.07.27-.12.53-.14.8a.28.28 0 0 0 0 .22l-.42 1.56v.06zm174.3.98l-.06-.06c-.05.04-.26.1-.36.13-.12.03-.2.05-.3.05-.15.01-.22 0-.3-.03l-.1-.03c-.06-.01.02-.01-.1-.03-.2-.03-.47-.06-.95-.05l-.34.1c-.85.08-1.08.07-1.35.06-.13 0-.27 0-.5.04-.13.03-.25.04-.52.16-.07.04-.17.07-.32.24-.06.07-.1.15-.14.24-.04.1-.05.26-.02.38a.68.68 0 0 0 .12.26c.04.06.07.08.1.12.32.23.24.12.38.22-.04-.02-.07-.05-.1-.07-.04-.02.01 0-.06-.04-.04-.03-.1-.07-.14-.1-.05-.05-.1-.1-.13-.15-.1-.16-.1-.26-.1-.23 0-.01.08.18.17.24.07.07.16.13.26.16.03 0 .07.02.14.07a7.39 7.39 0 0 1 .46.31l-.22-.07c.4.27.56.34.8.53-.26-.13-.18 0 .4.4l-.44-.2 1.18.67c.4.33.96.72 1.45 1.06.35.24.6.66.62.8 0 0 .07.14.12.35a1.24 1.24 0 0 1-.02.64c-.03.06-.01.06-.18.15-.02.01-.1.04-.17.08a2.77 2.77 0 0 1-.2.08l-.2.08c.1-.08-.2 0-.4.15-.07.04-.1.1-.15.14l-.03.04h-.01l.1.05-.01.02-.02.05c-.02.06-.04.07-.04-.04-.01.1-.03.22-.04.35-.03.16.08.38.18.6l.08.23c.02.05.03.1.04.15.03.1.03.2.03.27-.01.07-.01.14-.04.17 0 .02-.03.03-.03.05l-.1.1c-.12.1-.27.2-.42.24l.08-.05c-.22.1-.42.17-.7.24-.57.04-.94.56-1.08 1.04-.12.38-.13.7-.17.88-.03.15-.06.22-.16.32s-.3.23-.55.37c-.18.1-.32.17-.53.2-.4.1-.9.05-1.44-.04.1.1-1.13-.08-.83.06-2.34-.1-4.07-1.02-4.96-.97-1-.36-1.14-.53-1.62-.78l.24.1c-1.8-.8-2.3-1.14-3.5-1.96-.6-.4-.82-.33-1.8-1.22.16.1.17.1.1.02-.1-.1-.27-.26-.45-.43l-.18-.08c.06.03.13.05.2.07.15.14.2.17.02-.03-.1-.05-.22-.1-.4-.2-.1-.02-.23-.06-.36-.1 0-.01-.03-.02-.01-.02-.78-.3-.65-.24-.3-.07-.02 0 0 .03.1.1-.77-.42-2.23-.97-2.28-1.12l-2.4-1.02c.08-.14.14-.3.2-.45a8.41 8.41 0 0 1 .36-.95c.12-.02.1.16.04.35l.2-.44c.1.07-.07.28-.12.43.48-.4.4-1.15.92-1.65v-.18l.04-.03c-.05-.03-.04-.2-.01-.3.15-.03.23.14.4-.16.23-.18.33-.7.45-1.03-.1.16-.14.07-.13-.02.08-.15.23-.18.25-.32l.15.06c-.16-.01.08-.46.05-.55.15-.03-.04.28.01.36l.5-.9c.08-.37-.16-.02-.2-.23.13-.3.2-.62.46-.9l-.18.03c.2-.58.4-.88.72-1.17 1.23-4.47-.9-1.6-.9-1.6-1.14 1.4-1.24 2.38-2.2 4.27-.98 1.58-1.46 1.87-2.3 3.6l-.34.6c-.05.1-.1.16-.16.23-.12.13-.3.23-.5.26-.1.1-.25.1-.38.06-.07-.02-.13-.05-.2-.08s-.25-.1-.37-.12l-.1-.2c-.18-.03-.38-.1-.5-.24l.03-.02c-.27-.05-.5-.24-.63-.26l.03-.03-.28-.14.07-.02c-.42-.14-.83-.34-1.2-.6l-.04.14c-.03-.03-.06-.04-.1-.06.3-.24.6-.48 1.78-2.1l.3-.7c1.96-3.1 1.43-1.42 3.4-5.02-.85 1.37-.62.5.45-1.16l-.15.5c.53-.97.68-1.3 1.06-1.93-.25.6-.01.4.7-1.02l-.35 1 .42-.97c.03.01.07.01.08.01l1.3 1s.1.07.26.2c.08.06.18.13.3.2.06.04.1.08.18.13.06.04.12.1.25.17.26.12.47.46.5.9.04.4-.05.8.2.85.07.01.2-.02.34-.1-.04.08-.07.16-.12.24l-.4.7c1.4.93 3.2 1.67 5.46 1.6.63-.17 1.9-.33 2.28-.4.06-.01 2.55.12 1.1.14-.12 0-.34-.01-.32-.03l-.17.07c1.4.18 2.63.18 4.05.5-.42-.12-1-.22-.6-.2.45.1.9.2 1.33.3l-.3-.01.5.13c.17.04.27.08.44.14l.94.37-.24-.17c.93.4 1.22.65 2.34.93.5.1-.88-.42.15-.08a29.77 29.77 0 0 0 2.3.8c.45.13.8.27 1.14.44.1.06.15.12.1.2.12-.01.08.1-.06.16h.01z"/><path d="M181.54 127.25l.15-.14-.15.14zm-31.2 91.88H150h.34zm113.36-89.98l.23.9c.02-.03-.03-.25-.23-.9zm42.95 95.35h-.01l-.14.32.15-.32z"/><g fill="#fff"><path d="M292.03 188.17c-.7.75-1.2 1.48-1.97 2.77l.28-.16c-.6.7-.95 1.4-1.38 2.08-.13.43.5-.43.08.38l-1.42 2.1c-.01-.14.5-.86.28-.73-.04.16-.75 1.22-.53 1.16l-.15-.06c-.14.3-.38.43-.6.78-.08.2-.1.35.17-.02-.44.75-1 1.86-1.47 2.35-.47.7-.45.4-.7.53-.13.22-.28.58-.23.6l-.07.07-.1.35c-1.13 1.3-1.65 2.8-2.65 3.88.2-.32.63-.86.53-.95l-.67 1.02c.25-.43.4-.8.23-.7l-2.74 4.5c-.2-.03-.8 1.1-1.32 1.6.08-.06.1-.08.12-.05.2-.25.3-.33-.07.25 0-.02-.02 0-.03 0-.05.1-.1.2-.12.3-.37.4-.35.32-.2.1-.23.34-.47.72-.36.37-.68.87-.5 1.1-.82 1.64l-1.88 2.8.1-.2c-.28.36-.5.4-1 1.15.07.9-1.3 1.9-2.25 3.6.3-.1-.34.68-.17.7-.6.72-1.05 1.44-1.5 2.18l-.7 1.13-.1.14-.03.03c-.03.03-.06.05-.1.08-.01 0-.01-.01-.02-.01-.1.04.02.12.1.16-.01-.02.12.07.2.13l.3.17.46.23c-.3-.06.48.57.1.45.45.1 1.9 1.22 1.9 1.22.2.34 1.4.96 2.03 1.5l1.04.37-.4-.06c.5.27.54.42.3.36.2.15.35.17.7.33l-.2.02c.58.38 1 .25.48.01 1.46.36.7.54 2 .9l.46-.07-.15.02c1.38.5.35.5 1.77.97l-.01.13c.36.13.7.3.64.1l1.7.84.42.2.3.16.23.17c.04-.02.08-.05.12-.08.15-.24-.12-.03-.1-.2v-.1l.07-.1c.1-.12.2-.24.3-.34l.7-.68-.24.1 1.06-1.3-.06.25.7-.9c.12-.3-.15.08-.4.35.76-.95 1.07-1.97 1.98-2.82l.01.2c-.02-.03-.13.12-.18.2-.56 1.1.63-.65.73-.65.08-.37.82-1.18.93-1.68 1.5-1.58 2.14-3.2 3.23-4.43-.16.4.37-.4.44-.3.48-.54.2-.53.58-1.04l.48-.4c.68-1.38.78-.73 1.53-2 .35-.9 1.38-1.72 2-3.03l.13.03c.52-.96 1.04-1.3 1.47-2.07.24-.12-.07.22.08.3.42-.8.1.34.3-.24.83-.96.98-2.37 1.7-3.36.57-1.18 1.6-1.83 1.5-2.2l-.4.54 1-1.5.12.02c.35-.64 1.44-1.98 1.8-2.83 0 .01.05-.03.1-.06.44-.8.7-.93 1.02-1.7l-.02.1c.3-.67.9-1.65 1.6-2.7l1.4-2.1c.02-.07.14-.14.06-.2.1-.02.04-.1-.07-.2l-.44-.35-.6-.44c.23.18.3.13.36.15-1.1-.64-2-1.8-3.23-2.38h.05c-.1-.1-.25-.2-.44-.32l-.3-.2-.38-.27c-.4-.3-.74-.57-.74-.76-1.35-.76-2.42-1.63-4.07-3.08l.1.03c-1.83-1.83-3.04-2.4-3.53-3.05l-.5-.4-1.5 1.84-1.2 2.16-.07.13zm-109.13 4.86l-2.33-.2c-.92-.34-1.76-.53-3.2-.7l.24.2c-.84-.27-1.6-.32-2.35-.44-.43.05.56.3-.3.23l-2.4-.47c.12-.07.95.13.75-.04-.16.03-1.35-.2-1.23-.03l-.01-.16c-.32-.01-.52-.18-.92-.25-.2 0-.35.03.08.15-.83-.1-2.02-.18-2.63-.42-.8-.16-.52-.26-.72-.42-.24-.03-.62-.03-.62.02l-.1-.04-.35.03c-1.56-.53-3.1-.4-4.42-.9.36.05 1 .24 1.03.1l-1.15-.2c.48.06.87.06.7-.07l-5-.74c-.04-.2-1.27-.3-1.92-.57.1.05.1.07.1.1.3.08.4.13-.25.03.01-.01-.01-.02-.01-.03-.1-.01-.2-.01-.3.01-.5-.18-.4-.2-.16-.16-.4-.08-.8-.15-.46-.18-1.02-.28-1.17-.04-1.76-.1l-3.17-.62.2.01c-.42-.12-.54-.3-1.38-.45-.78.42-2.17-.44-4.03-.64.2.23-.72-.04-.67.12-.87-.27-1.67-.4-2.5-.52l-1.27-.2-.67-.14-.14-.04-.05-.03.01-.01c-.03-.04-.07-.07-.1-.1-.02-.01-.05-.02-.06-.01v.08a.4.4 0 0 0 .03.15c.02.05.05.03.05.2-.08-.3-.3.64-.36.27.1.43-.3 2.15-.3 2.15-.23.3-.3 1.6-.56 2.4l.06 1.07-.1-.4c-.06.55-.18.64-.2.4-.06.25-.03.38-.05.75l-.1-.2c-.14.68.14.97.17.44.2 1.37-.24.77-.05 2.03l.25.37-.08-.12c.13 1.38-.32.5-.13 1.9l-.12.05c.04.37.05.72.2.6l.05 3.93c.07.3.1-.1.2.01.2.1-.08.18.25.32-.07-.06-.04-.1-.05-.14l1.43.34-.24.06 1.06.22c.32-.02-.13-.1-.46-.2 1.14.26 2.16.1 3.27.55l-.16.1c.02-.03-.15-.07-.26-.07-1.2-.03.82.28.86.38.36-.1 1.36.23 1.84.12 1.97.67 3.64.6 5.15 1.05-.42.02.5.18.43.27.67.2.54-.05 1.14.1l.53.27c1.48.04.94.42 2.34.6.93-.04 2.04.58 3.43.6l.02.13c1.05.1 1.54.42 2.4.5.2.17-.22.03-.22.2.87.05-.27.22.33.2 1.16.37 2.47-.07 3.6.18 1.26.03 2.23.72 2.5.46l-.63-.14 1.7.3v.12c.7.05 2.3.5 3.18.5-.01.01.05.03.1.06.9.07 1.1.27 1.9.23l-.1.03c.7 0 1.8.15 3 .35l1.8.32 1.1.2.1.01c.03.08.18.2.22.01l.1-.24.24-.66c-.1.26-.03.32-.03.37.27-1.2 1.1-2.34 1.28-3.63v.05c.25-.44.43-1.95.77-2.1.04-.37.1-.72.17-1.07a1.33 1.33 0 0 1 .1-.34l.08-.25.17-.52.84-2.52.02.1c.93-2.26.55-3.84.92-4.54l.15-.63-1.83-.38.02-.07zm14.64-24.85l.07-.16c-.01 0-.04.04-.07.16zM208 125.54v-.04.04zm-7.87 36.3h0v.05-.05z"/><path d="M198.16 170.46l1.26-5.2.7-3.42c-.01-.55.32-1.44.35-2.07l.12-.22c.01-.22.04-.47.13-.68l.02.02c.02-.33.13-.68.14-.84v.02l.08-.4v.07c.07-.55.18-1.1.33-1.63l-.1.02c.34-1.05.25-1.48.6-2.42v.02c.06-1.27.6-1.9.68-3.2-.01.16.06-.06.08-.04.1-.58.25-1.2.08-1.25.1-.42.13-.33.2-.37-.07-.01-.02-.4.06-.72v.16l.2-.95-.18.15c.16-.5.2-.1.28-.57l-.12-.02c.2-.68.46-1.05.7-1.7l2.06-8.33.12-.1c.14-.02 0-.76.15-.82l.02-.3c.04-.08.12-.25.1-.1.08-.27.06-.3.08-.5l.16-.28c.35-1.07.46-2.04.8-3.17.54-1.33 1.13-3.95 1.48-5.46.43-2.14 1.65-4.4 2.1-6.6.04-.06.06-.25.04-.26l.64-1.93 1.17-3.82c.4-1.47.35-2.14-1.4 1.24v-.06c-.42 1.04-.66 1.7-.76 2.48-.2.06-.3.87-.43 1.1v-.03c-.08.7-.53 1.3-.6 1.97-.01-.03-.05-.06 0-.2-.12.46-.28 1.1-.4 1.1-.3 1.1-.82 2.62-.87 3.37v-.06c-.02.43-.14.52-.22 1-.02.02-.04.05-.04.04-.03.47-.35 1.28-.4 1.65h-.07l-.24.87.1-.32c.14.16-.3.63-.36 1.3-.2.6.03 1.3-.23 1.9 0 .32-.06-.3-.12.16-.1-.01 0-.22-.1-.13-.08.44-.3.68-.37 1.23h-.08c-.06.73-.45 1.28-.45 1.78-.13.73-.34.42-.4 1.2l-.17.26c-.1.32.06.26-.08.6-.06-.04-.17.43-.17.2-.3.78-.3 1.66-.72 2.68.06.26-.15.77-.1.97-.06.01-.28 1.07-.24.44 0-.05.03-.14.05-.13l-.05-.1c-.3.57-.2 1.12-.37 1.7.07-.17.12-.4.13-.24l-.15.55-.03-.13-.24.82.1-.1c-.14.4-.3.5-.3 1 .01.22.2-.36.1.07l-.65 2c.1-.04.05.14.02.34h-.08c-.08.76-.23.23-.32.98l.03-.05.1.23c-.01.7-.24.32-.2 1.1.06-.3.2-.1.08.25l-.05-.1c-.03.2-.02.27-.06.4-.01-.13-.1-.1-.14.2l-.04-.2v.58c-.18.4-.24 1.1-.38 1.25 0 0-.26.9-.2 1.13-.02-.2-.17.3-.2.14.02.25-.08.96-.23 1.22v-.05c-.32 1-.3 1.8-.6 2.7.1-.02-.06.46.07.36-.1.98-.6 1.7-.36 2.12-.08.44-.2.5-.26.72l.01-.1-.35 1.67c-.03.3.1.4-.05.93-.02-.2-.06.04-.1.24.02-.13.01-.18-.1.08a.86.86 0 0 1 .01.16c-.01 0-.01.01-.02 0-.05.34-.02.3.02.13.01.01.02 0 .05-.05-.16.33-.2.98-.33 1l-.4 2.64c-.08.08-.08-.13-.05-.38l-.1.6c-.08-.02.03-.36.05-.55-.28.7-.2 1.5-.5 2.32l.02.2-.02.05c.03 0 .04.2.02.33-.1.1-.16-.04-.24.38-.14.32-.17.94-.22 1.38.06-.23.08-.15.1-.04-.04.2-.14.3-.14.48h-.1c.1-.06-.02.56 0 .65-.1.1.01-.34-.03-.4l-.25 1.26c-.02.46.1-.06.14.17-.07.4-.08.8-.23 1.24l.1-.13c-.1.75-.2 1.2-.38 1.68-.46 5.65.68 1.35.68 1.35.6-2.1.58-3.26 1.06-5.86l-.03-.02zm14.3 38.3l.34.03c-.01-.02-.1-.03-.34-.03zM223.34 166l-.04-.07c.02.05.03.06.04.07zm2.46 43.63h-.02l-.1.01.12-.01z"/><path d="M208.33 209.96c4.6-.08 5.8.05 10.56-.13l6.9-.2c1.05-.15 2.9-.06 4.15-.2l.48.06c.43-.04.93-.08 1.36-.05l-.03.02c.64-.06 1.36-.04 1.68-.08h-.03.78l-.13.03c1.12-.07 2.27-.1 3.28-.08l-.08-.1c2.17.08 2.96-.1 4.92 0l-.03.02c1.24-.1 2.2-.07 3.2-.01l1.5.08c.18.01.36.01.54.02l.75.04c.1-.01.37.12.17-.18l-.14-.3c-.03-.07.01-.06.01-.1 0-.07.1-.03.17-.03l.23.03c-.32-.04.14.02.1.02a.73.73 0 0 1 .24.07c.05 0 .04.12 0 .05l-.08-.1c-.1-.13-.1-.22-.15-.32l.18-.08c.1-.02.01-.07.37-.05-.68-.85-1.18-1.44-1.24-1.35-.5-.7-.37-.6-.38-.72-.06.05-.53-.53-.92-1.07l.2.23-1.14-1.53.1.4c-.56-.85-.01-.3-.6-1.08l-.1.08c-.8-1.15-1.12-1.93-1.83-3.1-3.17-4.66-6.7-9.6-9.16-14.25l-.04-.24c.06-.15-.9-1.15-.9-1.4l-.35-.5c-.06-.16-.22-.5-.04-.24-.27-.5-.3-.5-.53-.83l-.22-.57-1.52-2.8c-.52-.9-1.02-1.84-1.52-2.9l-2.28-4.98-2.3-5.18c-1.77-3.92-2.9-8.8-4.33-12.95-.02-.14-.17-.48-.18-.48l-1.04-3.88-.7-2.73-1.17-4.94c-.35-1.47-.6-2.48-.7-2.2s-.08 1.85.47 5.55l-.05-.1c.4 2.18.75 3.53 1.27 4.97-.12.28.45 1.76.54 2.27l-.03-.04c.48 1.27.67 2.7 1.15 3.92-.03-.04-.08-.06-.17-.34.3.9.73 2.12.66 2.22.7 2.15 1.72 5.15 2.4 6.45l-.06-.08c.4.74.38 1 .77 1.84.01.05.02.1.01.1.44.8.97 2.44 1.3 3.1l-.04.07.72 1.64-.25-.62c.27.14.4 1.3 1.07 2.43.5 1.1 1.36 2.1 1.84 3.26.34.5-.36-.4.1.36-.07.07-.24-.35-.2-.1.43.77.56 1.34 1.1 2.3l-.05.07c.78 1.2 1.17 2.42 1.72 3.2.76 1.25.28.97 1.15 2.23l.2.57c.3.58.33.35.66 1-.08-.01.42.82.15.48.73 1.48 1.8 2.8 2.8 4.73.35.34.87 1.3 1.13 1.54-.01.08 1.15 1.85.4.88-.06-.08-.16-.24-.14-.24l-.14-.08c.54 1.12 1.27 1.85 1.92 2.88-.18-.32-.44-.72-.23-.47l.6.96-.18-.16.9 1.43-.07-.24c.43.7.48 1.02 1.1 1.74.3.32-.35-.7.16 0l2.24 3.52c-.01-.16.2.16.45.46l-.04.08c.95 1.16.18.54 1.12 1.7l-.12-.08.36.23c.9 1 .3.68 1.34 1.76-.36-.47-.03-.32.37.28l-.17-.1c.25.3.36.4.5.63-.1-.08-.13-.1-.1-.02.01.03.04.1.1.16s.14.2.15.2c-.03.01-.14-.1-.25-.18.06.06.14.16.18.18l.08.05a3.15 3.15 0 0 1 .19.15l.02.06c.01.03.03.05.04.08.03.04.06.1.1.13 0-.03-.1-.03-.13-.04-.1-.01-.2-.03-.26-.07 0 0-.03 0-.07-.01-.02 0-.05 0-.08-.01-.12 0-.24-.01-.37-.01-.52-.02-1.1-.01-1.3.04.37-.06-.65-.1-.36-.18-.48.07-1.9.12-2.47.04l.1-.01c-2.1-.1-3.58.13-5.46.04.1.1-.9.05-.66.16-1.94.13-3.55-.18-4.24.18-.88.03-1.05-.06-1.5-.07l.2-.02-3.37.08c-.6.05-.7.2-1.8.2.35-.07-.1-.05-.5-.04.26-.02.34-.04-.2-.07a2.34 2.34 0 0 1-.3.05s-.03-.01-.02-.02c-.7.04-.57.05-.25.06-.02.01.01.02.1.04-.7-.07-2 .05-2.07-.06-2.06.07-3.54.22-5.25.3-.2-.05.2-.1.7-.14l-1.22.05c.01-.08.7-.06 1.07-.1-1.45-.1-3 .2-4.7.13l-.35.07h-.1c.01.03-.37.1-.63.1-.24-.06.01-.16-.83-.14-.67-.05-1.9.08-2.76.14.47 0 .32.04.12.07-.42.01-.67-.05-1-.01l-.04-.1c.17.08-1.1.13-1.25.17-.24-.06.65-.08.76-.13l-2.53.08c-.9.1.17.08-.26.18-.8.04-1.57.13-2.48.1l.3.08c-1.5.1-2.4.12-3.4.07-11.1 1.02-2.32 1-2.32 1 4.43.04 6.68-.27 11.9-.47l.03.04zm16.03-111.5l.16-.02c0-.02-.05-.02-.16.02zm33.2 14.64l.03.03c-.02-.03-.03-.03-.03-.03zm-27.1-14.63h0c-.02.01-.03.01-.05.01l.05-.01z"/><path d="M223 100.12c1.88-.7 2.44-.7 4.46-1.2l1.5-.27 1.5-.18c.45-.2 1.28-.08 1.83-.2l.22.07c.2-.04.4-.07.6-.04v.02c.28-.07.6-.03.75-.05l-.01.02h.35l-.06.03c.5-.04 1-.02 1.46.03l-.03-.1c.96.12 1.32.04 2.18.23l-.01.02c.56-.05 1 .03 1.42.12.42.12.83.23 1.4.25-.14-.01.05.06.03.08.5.12 1.02.25 1.1.1.36.1.27.15.3.23.02-.07.34.02.62.12h-.14l.8.3-.1-.2c.4.23.03.2.44.36l.04-.1c.56.28.8.6 1.27 1 2.13 1.25 4.36 2.85 5.82 4.7l.01.13c-.06.12.57.35.54.5l.22.17c.03.07.12.2.01.13.16.2.18.18.33.3l.1.26 1.83 2.24c.63 1.1 2.05 3 2.8 4.15 1.16 1.57 1.76 3.8 2.8 5.47.01.07.12.2.13.2l.74 1.65 1.46 3.24c.3.6.54 1.02.64.87s.06-.9-.32-2.56l.04.03c-.32-.96-.56-1.54-.97-2.12.12-.17-.32-.76-.37-1l.02.01c-.37-.5-.44-1.2-.8-1.67.02.01.07 0 .13.13-.2-.38-.5-.9-.43-.96-.5-.9-1.13-2.2-1.6-2.68l.05.03c-.28-.27-.26-.4-.5-.75 0-.03-.01-.06 0-.05-.3-.3-.63-1.02-.84-1.27l.05-.05-.45-.68.15.26c-.22.01-.22-.6-.66-1-.3-.47-.94-.72-1.2-1.23-.23-.17.25.1-.04-.18.07-.07.16.12.16-.01-.27-.3-.3-.6-.66-.95l.05-.06c-.5-.43-.67-1.03-1.05-1.28-.48-.47-.1-.5-.68-.93l-.1-.27c-.2-.24-.23-.08-.42-.36.06-.03-.24-.35-.07-.24-.45-.62-1.14-1.02-1.76-1.8-.24-.06-.55-.46-.74-.5.02-.06-.76-.66-.25-.38.04.02.1.08.1.1l.1-.01c-.34-.48-.83-.62-1.27-.97.12.12.3.25.15.2l-.4-.32.12.02-.6-.5.05.12c-.3-.24-.34-.43-.76-.58-.2-.06.25.3-.1.08-.38-.34-1.03-.77-1.6-1.12.02.1-.14.02-.3-.04l.01-.08c-.68-.2-.16-.26-.82-.48l.08-.02-.23.06c-.64-.1-.26-.27-.98-.33.26.1.06.2-.24.05l.1-.04c-.18-.05-.25-.05-.36-.1.12 0 .1-.08-.18-.15l.2-.03-.54-.02c-.37-.2-1-.27-1.15-.38 0 0-.85-.2-1.06-.14.18-.04-.28-.14-.14-.2-.23.05-.88.05-1.13-.06h.05c-.95-.17-1.64-.1-2.5-.22.03.1-.42.02-.3.14-.9.08-1.62-.3-1.94.04-.4.03-.48-.07-.7-.08h.1l-1.54.06c-.28.04-.3.2-.82.22.16-.08-.05-.05-.23-.03.12-.02.15-.05-.1-.07-.03.02-.1.04-.13.06-.32.04-.26.06-.12.05-.01.01.01.02.05.03-.33-.05-.9.1-.96-.01-.94.17-1.58.4-2.34.6-.1-.03.07-.14.3-.2-.18.03-.36.1-.54.15-.01-.08.3-.13.47-.18-.68.03-1.3.45-2.1.55l-.14.1h-.05c.01.03-.14.13-.25.18-.13-.03-.04-.16-.4-.03-.32.03-.82.32-1.17.52.2-.07.15-.01.08.05-.18.08-.3.06-.43.14l-.06-.08c.1.05-.43.28-.47.36-.13-.02.24-.2.27-.25l-1.04.53c-.34.25.1.04-.03.2-.32.17-.58.44-.97.6h.16c-.55.4-.86.66-1.3.85-.9.92-1.24 1.56-1.35 1.87-.1.3 0 .37.17.26.13-.06.4-.27.6-.43l.4-.3 1.93-1.4c.3-.22.62-.46 1-.67a7.35 7.35 0 0 1 1.28-.7z"/></g></svg>