<svg xmlns="http://www.w3.org/2000/svg" viewBox="0 0 480 480" xmlns:v="https://vecta.io/nano"><path d="M185.1 121.97s-9.6 3.45-24.5 11.95c-4.8 2.8-10.1 7-11.6 11.4-1.8 5.3-1.2 13.7 1 27.8 3.3 20.9 9.7 42.8 9.7 42.8s-1.1 7 2.8 13.6c3.9 6.7 4.2 8 5 8.7.93.73 2.3.6 2.4.02.03-.2.13-.16.25 0 .4.55.87 1.22 1.85 1.08.5-.08 1.06-.52 1.2-.85.17-.37.17-.28.55-.15.3.1.87.15 1.24-.3.6-.6.23-2.65-.4-5.5-.47-2.13-.6-7.5-.8-8.5s1.5 1.1 2.5 2.4c1.2 1.4 3.1 2 1.9-.9s-1.8-5.4-2.1-6.2c-.4-.8-1.6-3.8-3.1-5.4-1-1.1-3.3-2.4-3.8-5.8-1-5.8-.3-21.9.1-31.8.3-7.1.5-18.6 2.8-19.8 7.9-4.1 21.87-9.06 21.87-9.06l-8.87-25.5v.01z" fill="#fff"/><path d="M150.15 143.82l-.36.63c.02 0 .1-.16.36-.63zm19.17 22.56c0-.06 0-.13.01-.18-.02.12-.02.16-.01.18zm-20.12 6.32c0-.02 0-.03-.01-.04l-.04-.2.05.24zm49.3-64.87l.48-.12c-.02-.02-.14.01-.48.12zm-5.58 46.87l-.07-.1.07.1zm24.38-49.93h-.03l-.12.03.15-.03zm20.84 102.63l.84.06c-.02-.03-.23-.05-.84-.06zm-33.24-65.7l-.02.2.02-.2zm66.95 67.65h-.08l-.4.01.48-.01zm.25-18.95c.24.1.5.15.74.23-.01-.02-.2-.07-.74-.23zm17.3-23.3l-.2.03.2-.03zm12.58 18.78c-.02.01-.03.01-.04.02l-.2.1.23-.1.01-.02zm-75.56 21.48l.02.04c.02-.02.02-.03-.02-.04zm36.94-23.13v.03c.01 0 .01 0 0-.03zm-45.5-39.43l-.16-.52c-.02.02.01.16.16.52zm51.2 3.54c-.03.03-.07.05-.1.08.04-.02.07-.05.1-.08zm-55.62-23.84c0 .01 0 .02.01.03.01.04.03.1.04.13l-.05-.16zm25.35-26.6h0z"/><g fill="#fff"><path d="M361.98 146.8s1.5-1.28.9-2.48c-.6-1.1-1.73-.57-1.73-.57s.6-.97-.23-1.6c-.47-.36-2.82.58-5.24 1.78-1.94.97-6.9 2.8-7.8 3.3s.6-1.8 1.6-3.1c1-1.5.88-3.75-1.52-1.75s-4.68 3.24-5.28 3.84-3 2.8-4.1 4.8c-.7 1.3-1.2 3.2-4.3 4.7-5.2 2.2-24.9 6.7-34.5 8.9-4.8 1.1-15.1 3.5-16.8 1.6-3.54-3.92-9.38-12.58-13.2-18.43a10.32 10.32 0 0 0-.75.55c.01-.02-.08.03-.16.05-1.16.85-1.57.92-2.56 1.76l.1-.12c-1.76 1.43-5.95 4-8.9 5.92-.18-.08-1.85 1.05-3.08 1.87.4-.25.38-.34.44-.4-1.6 1.25-3.7 2.1-5.35 3.4l.05-.06c-.73.35-2.66 1.88-3.13 1.84l-.23.17c3.33 5.3 9.44 14.3 16.96 21.94 3.9 3.9 6.5 6.4 13.4 6.9 7.9.5 20.2-3.9 33.1-10 18-8.4 34.5-18.7 34.5-18.7s7-1 12.2-6.7 6-6.34 6.4-7.34c.7-1.7-.8-2.08-.8-2.08h.01z"/><path d="M329.3 157.22l5.6 11.1c.3.5.9.7 1.4.5l4.7-2.5c.5-.3.7-.9.5-1.4l-5.4-10.8c-.3-.5-.9-.7-1.4-.5l-4.9 2.2c-.5.2-.7.9-.5 1.4h0z"/></g><path d="M175.46 238.4c-.01.01-.02.01-.02.02l.02-.02zm-9.46-4.2h0l.18.23-.18-.23z"/><path d="M362.9 146.54l.08-.08.2-.3c.13-.2.26-.44.33-.72.2-.52.08-1.34-.4-1.84a2.16 2.16 0 0 0-.55-.42c-.2-.1-.5-.16-.47-.15-.06 0-.13.01-.18.03.03-.05.05-.12.06-.18v-.03l-.02-.16c-.02-.12-.06-.26-.12-.38-.1-.24-.3-.48-.53-.66-.27-.18-.6-.24-.92-.2l-.65.12a8.92 8.92 0 0 0-1.14.37l-2.14.92-2.05.98-2.1.9-3.3 1.38-.18.1c-.1.02-.04-.1-.02-.14.05-.12.12-.23.2-.35l.36-.54.67-.95c.23-.37.4-.78.5-1.2.1-.35.16-1.12-.2-1.56-.33-.5-1.08-.43-1.55-.22-.48.22-.75.45-1.08.7-1.13.95-2.33 1.8-3.55 2.6-.6.43-1.23.76-1.85 1.34l-1.55 1.54c-1 1.06-1.98 2.13-2.7 3.44l-.32.46c-.12.08-.4.85-.8 1.5-.17.28-.36.53-.55.74-.46-.5-1.2-.7-1.85-.45l-4.88 2.2c-.37.15-.66.47-.8.9a1.5 1.5 0 0 0-.08.63c-4.1 1.18-7.9 2.22-12.44 3.3l-12.4 2.86c-4.64 1.1-9.33 2.28-12.8 2.87a37.02 37.02 0 0 1-3.72.5c-1.23.08-2.6.15-3.66-.26-.26-.12-.36-.2-.6-.5l-.64-.75c-.43-.5-.82-1.04-1.24-1.56-.8-1.07-1.6-2.15-2.38-3.25-2.98-4.23-5.82-8.58-8.58-12.64 1.12-.74 2.47-1.53 3.1-2l.12.05 2.34-1.5-.9.54c.07-.23.54-.47 1.2-.8.44-.24 1.04-.58 1.64-.95.07-.05.17-.1.2-.14l-.14-.23c-.1-.15-.2-.3-.3-.47-.2-.32-.43-.64-.65-.95-1.02-1.7-2.6-2.92-3.55-4.67-.63-.7.64.57-.2-.55.1-.12.44.5.35.12-.8-1.12-1.08-2-2.1-3.35l.07-.13c-1.4-1.74-2.15-3.6-3.14-4.7-1.35-1.85-.54-1.48-2.06-3.33l-.38-.86c-.54-.86-.58-.5-1.14-1.47.13 0-.73-1.23-.28-.74-1.32-2.2-3.08-4.2-5-7.02-.62-.45-1.63-1.84-2.1-2.15.02-.14-2.28-2.56-.84-1.27.12.1.3.33.27.34l.24.1c-1.13-1.6-2.5-2.52-3.85-3.9.38.43.93.96.5.66-.42-.43-.85-.84-1.28-1.25l.34.18c-.63-.63-1.3-1.23-1.95-1.83l.2.34c-.95-.9-1.18-1.36-2.47-2.13-.6-.32.88.9-.24.08-1.34-1.13-3.48-2.7-5.5-3.76.12.23-.4-.07-1-.3v-.14c-1.13-.42-1.32-.56-1.5-.7-.18-.13-.34-.33-1.52-.64l-.46.03c-2.15-.34-1.06-.62-3.52-.74.95.13.4.32-.75.12l.3-.08c-.65-.07-.87-.03-1.3-.08.4-.04.22-.16-.74-.2l.65-.1c-.6.02-1.22.1-1.83.18-1.42-.12-3.6.38-4.2.4 0 0-.75.13-1.55.4-.82.22-1.66.64-1.95.83.5-.35-1.03.28-.65-.03-.68.42-2.65 1.6-3.46 2.04l.14-.1c-.72.46-1.4.86-2 1.34l-1.05.98c-.1 0-.2.01-.33.02-.14.06-.28.1-.42.15-.01-.01-.04-.01-.03-.02-.97.23-.8.23-.34.15-.02.02.02.03.17.03-1.04.04-2.8.6-2.96.45-2.9.72-4.87 1.5-7.22 2.2-.3-.02.24-.25.92-.48l-1.67.5c-.02-.13.94-.34 1.45-.5-2.05.33-4.08 1.4-6.45 2.03l-.44.27-.14.03c.03.05-.46.3-.8.46-.36.01-.07-.26-1.2.17-.93.25-2.5 1.04-3.64 1.6.63-.24.45-.1.2.05-.55.24-.92.27-1.33.5l-.12-.12c.27.04-1.4.77-1.56.92-.36.03.82-.47.92-.6-2.2 1-1.1.48-3.3 1.5-1.13.64.28.04-.23.42-1.03.5-1.98 1.07-3.2 1.54l.43-.05c-1.88 1-3.04 1.56-4.4 2.08l-2.9 1.77-3.42 1.8c-.07-.04-.1-.02-.12.06l-.23.12.26.47c-.46.43-.3.5.18.35h.02l.01.02c.28.8.83 2.14 1.72 4.12-3.3 1.5-6 2.87-8.8 4.38l-5.42 3.04c-1.94 1.1-4.12 2.4-6.43 4.18-2.05 1.55-3.6 3-4.83 4.46-1.2 1.46-2.15 2.94-2.65 4.6-1 3.26-1.2 6.7-.85 11.97.32 5.04 1.12 10.34 1.88 15.18.48 2.28 1.05 6.35 1.68 9.03l.13 1.06a40.52 40.52 0 0 1 .6 2.95l-.03-.05c.34 1.38.63 2.95.8 3.63l-.03-.05.38 1.68-.1-.28 1.65 7.07.04-.2c1.02 4.68 1.62 6.34 2.6 10.56l-.04-.05c.43 1.4.84 2.83 1.22 4.26l.97 3.7v.04l-.02.18-.04.35a16.46 16.46 0 0 0-.05.7c-.03.48-.03.97-.02 1.45a19.87 19.87 0 0 0 .33 3.2c-.13-.7 0 .3-.03.26.22 1.3.57 2.65.93 3.63.37.98.7 1.63.78 1.6.8 1.76.65 1.43.7 1.7.03-.03.25.34.56.85l1.07 1.8-.36-.57 2.07 3.67-.27-.8c1.03 2 .12.58 1.16 2.46l.1-.08c.37.7.64 1.32 1.12 1.9.56.58 1.24.82 1.98.85.35.03.9-.17.86-.23.02-.02.02-.05.03-.07.02-.03.06 0 .07.03l.1.17.05.07c.05.05.1.13.2.2.16.16.35.3.55.4.46.23.98.27 1.47.12.27-.1.53-.23.76-.4a2.33 2.33 0 0 0 .51-.53 2.41 2.41 0 0 0 .37.07c.47.06 1.07-.13 1.42-.55.44-.53.43-1 .46-1.4.01-.4-.02-.8-.07-1.17a31.55 31.55 0 0 0-.38-2.2c-.15-.73-.33-1.42-.43-2.1-.1-.7-.17-1.4-.24-2.13l-.3-3.85a2.6 2.6 0 0 0-.05-.39c0-.03-.02-.07 0-.1s.06 0 .08.01c.05.03.1.08.14.12.22.23.2.2.8.92.22.27.42.56.73.87.3.3.54.5 1 .77.5.26 1.07.4 1.5.1.4-.33.42-.9.32-1.45-.2-.9-.52-1.44-.76-2.1a35.38 35.38 0 0 1-.69-1.97l-.6-1.98-.3-1c-.03-.1-.04-.16-.1-.3l-.3-.7c-.56-1.25-1.14-2.5-1.9-3.65-.07-.17-.16-.33-.24-.5-.01-.12-.6-.83-1.28-1.35-.66-.52-1.27-1.05-1.35-1.25-.3-.3-.57-.62-.8-.97-.18-.3-.47-.98-.17-.44-.5-1.03-.47-1.07-.7-1.88-.06-.4-.08-.87-.1-1.3-.42-4.82-.47-9.03-.38-14.2l.84-24.66c.1-2.36.26-4.82.68-7.28.23-1.2.5-2.5 1.05-3.46.14-.23.3-.43.46-.5l.86-.42 1.74-.8c4.68-2.1 9.52-3.95 14-5.8a12.15 12.15 0 0 0 .64-.25c.08-.03.15-.07.22-.1.64 1.08 1.24 2.02 1.7 2.64l-.1-.1c.74.94.77 1.3 1.5 2.4.02.07.05.16.04.15.8 1.03 1.87 3.25 2.45 4.1l-.06.1 1.4 2.4-.55-1.03c.1.03.2.16.32.36s.33.64.55 1.1l.38.76c.02.1.1.06.16.02l.2-.1c.13-.07.27-.14.4-.2l.87-.48c.1-.07.23-.14.35-.2-.76 3.7-1.48 7.4-2.02 10.93-.1.34-.2 1.24-.17 1.24l-1.86 9.68s-6.18 32.4-3.4 23.1l-.32 1.65h7.15c-17.8.93.2 1.28.2 1.28 10.72.3 16.26-.1 29.02-.2 11.22.07 14.2.34 25.82.23h8.5l9.5-.06c.13-.02.34.03.4-.06-.01-.16-.03-.33-.04-.5l-.08-1.03-.12-1.72-.15-2.66c-.1-1.84-.2-3.73-.37-5.25l.05-1.2c-.12-1.04-.23-2.27-.23-3.33l.04.06c-.08-.8-.15-1.6-.2-2.4 1.02.38 2.08.66 3.16.83a22.21 22.21 0 0 0 5.55.27c2.02-.15 4.28-.52 6.98-1.2 5.16-1.27 10.44-3.26 15.17-5.28 2.2-1.05 6.2-2.7 8.74-4.05l1.04-.4a62.4 62.4 0 0 1 2.84-1.4l-.05.05c1.3-.7 2.82-1.42 3.47-1.78l-.05.05 1.6-.82-.26.17 6.72-3.56-.2.01c4.15-2.14 5.76-3.2 9.17-5.08a1.58 1.58 0 0 0 .94.31 1.64 1.64 0 0 0 .65-.13l4.72-2.5c.63-.38.93-1.1.76-1.8.13-.08.26-.15.4-.22l2.02-1.2.43-.08c.18-.04.37-.08.56-.13a14.56 14.56 0 0 0 1.13-.32c.76-.24 1.55-.54 2.36-.92-.68.32.3-.08.27-.04 1.2-.53 2.35-1.17 3.45-1.9.9-.63 1.47-1.13 1.43-1.22 1.57-1.26 1.28-1.03 1.54-1.14-.02-.02.28-.34.7-.8.45-.46.97-1.08 1.5-1.64l-.46.54 2.98-3.27-.7.54c1.62-1.7.53-.3 2.03-2l-.1-.06c.58-.65 1.15-1.2 1.53-1.93.17-.36.32-.74.3-1.2a1.71 1.71 0 0 0-.14-.67 1.81 1.81 0 0 0-.32-.46c-.06-.06-.12-.1-.2-.13-.02-.01.1-.1.15-.14l-.02-.07zM172 238.65c-.1.04-.23.04-.36.03-.12-.02-.22-.05-.33-.12l-.16-.13c-.06-.05-.1-.1-.25-.3-.1-.17-.25-.32-.4-.46l-3.16-8.9a.41.41 0 0 0-.08-.13c.6-.14 1.22-.32 1.94-.6l3.57 9.9c-.1.13-.1.18-.14.25-.03.08-.4.37-.63.43v.03zm12.16-88.02c.1-.05.14-.12.75-.36-1.94.78-4.56 1.9-4.74 1.88-2.3.98-5.04 2.17-7.52 3.43-.33.17-.58.28-.96.5a2.58 2.58 0 0 0-.82.97c-.35.66-.52 1.3-.67 1.9-.28 1.2-.4 2.23-.48 3.03v-.22c-.13 1.83-.27 2.36-.38 4.4l-.04.23-.3 7.4-.07.1-.14 3.94.07-1.47c.16.52-.24 2.98-.23 5.84-.12 2.68.18 5.44.02 8.22.05 1.33-.1-1.17-.1.8-.1.06-.04-.93-.13-.42 0 1.95-.17 3.2-.13 5.6l-.07.1c.1 3.13-.07 5.92.18 8.02l.16 2.74c.02.28.04.57.1 1 .08.43.18 1.04.56 1.86a7.44 7.44 0 0 0 .57 1.29c.43.65.65.83.86 1.03l1.03.98c-.06-.01.32.34.58.6s.42.47.1.2c1.1 1.2 1.94 2.84 2.78 4.6l.33.7c.07.12.15.4.23.63l.46 1.5 1.05 3.26c.12.23.27.55.42.9.06.16.15.35.2.5l.07.23.03.1c.03.12-.01.3-.14.28-.1 0-.2-.04-.27-.05.01-.01-.22-.16-.5-.4-.15-.13-.28-.28-.4-.43l-.4-.54-.58-.76c-.03-.05.03.01.16.15l.5.56c.15.18.4.5.37.5.07.06.15.1.23.16-.16-.2-.37-.52-.57-.77l-.3-.4-.53-.63c-.4-.44-.8-.88-1.14-1.07-.27-.13-.44-.18-.64-.15-.02 0-.03-.01-.05-.01 0 0-2.2.1-4.3-1.8-1.8-1.6-1.5-4.3-1.5-4.3.1-.3-.1-.6-.4-.6-.3-.1-.6.1-.6.4 0 .1-.4 3.2 1.9 5.2 1.7 1.55 3.46 1.96 4.36 2.06a1.75 1.75 0 0 0 .02.5l.1.86.1 1.2.07 1c-.03-.8-.1-1.85-.01-1.15l.16 2.5-.1-.52c.08 1.24.16 2.48.35 3.76v-.54c.1.95.24 1.57.34 2.18l.4 2.24c.17.88-.1-1.65.15.17a5.75 5.75 0 0 1 .01.83c-.01.27-.1.54-.15.56l-.03.03c-.1.1-.2.15-.4.13-.1-.01-.16-.03-.33-.1-.02-.01-.04-.02-.07-.03l-3.6-9.98 2.56-1.06c.2-.2.3-.5.2-.7-.2-.2-.5-.3-.7-.2-.1 0-.7.3-3.3 1.3-1.2.4-2.1.6-3.1.8-.2.1-.5.1-.8.2s-.5.3-.4.6c.1.2.3.4.5.4l.1.1c.3-.1.5-.1.8-.2a5.66 5.66 0 0 1 .4-.08c-.02.1-.02.18.01.27l3.05 8.58c-.01.01-.02.01-.03.02-.08.1-.18.2-.15.22l-.01.07h-.03c-.04.01-.1.02-.17.03.1.03.02.07-.18.08a1.7 1.7 0 0 1-.8-.22l-.02-.1c-.4-.25-.65-.78-.8-1.02-.14-.27-.2-.42-.24-.56-.1-.28-.2-.56-1-2l-.37-.46c-1.56-2.52-.63-1.48-2.44-4.23.67 1.12.14.6-.6-.78l.25.3c-.42-.75-.6-.98-.8-1.5.25.45.2.2-.3-.94.12.26.28.5.42.74-.2-.35-.37-.7-.52-1.07-.16-.36-.33-.73-.46-1.1-.27-.88-.53-2.05-.7-3.1-.17-1.04-.25-1.96-.2-2.34 0 0-.03-.56-.04-1.3 0-.37.01-.8.03-1.2l.04-.62c.01-.1.02-.2.02-.3.02-.14.03-.28.05-.4l-.24-.77c-.06-.2-.12-.34-.16-.44.3.77-.3-1.4-.04-.8-.36-1-1.24-3.98-1.47-5.2l.07.23c-1.1-4.47-2.08-7.6-2.93-11.65-.04.2-.5-1.93-.48-1.38-1.07-4.14-1.48-7.66-2.12-9.1-.42-1.9-.4-2.27-.56-3.26l.1.45-1.38-7.28c-.25-1.33-.45-1.5-.8-3.9.18.76.02-.2-.12-1.1.1.57.15.74.01-.44-.05-.22-.1-.43-.14-.65 0-.01 0-.06.01-.03-.24-1.5-.22-1.23-.13-.53-.01-.03-.02.03 0 .24-.15-1.56-.62-4.33-.53-4.53-.6-4.5-1.03-7.72-1.16-11.5.05-.42.1.46.17 1.55-.04-.9-.07-1.78-.07-2.67.08.02.04 1.53.1 2.35 0-1.6-.03-3.22.06-4.9.1-1.68.3-3.46.96-5.16l.22-.7.1-.2c-.04 0 .28-.76.57-1.22.34-.4.08.1 1.16-1.35.9-1.1 2.75-3.03 4.25-4.2-.8.63-.57.4-.25.1.72-.57 1.2-.83 1.75-1.27l.1.02c.05-.13 1.98-1.45 2.24-1.62.48-.22-1.18.82-1.33 1 3.1-2 1.54-1 4.76-2.86 1.7-1.03-.36.1.43-.44 1.53-.86 3-1.74 4.8-2.62l-.6.22c2.9-1.6 4.66-2.46 6.7-3.35l2.28-1.16.68 1.5-.1-.1c1.45 2.8 2.4 4.54 3.7 6.32-.08.44 1.25 2.27 1.53 2.96l-.05-.05c1.14 1.56 1.8 3.54 2.88 5.05-.06-.05-.14-.05-.36-.42.7 1.16 1.66 2.73 1.57 2.9l2.8 4.85c-1.85.55-3.6 1.17-5.2 1.88l-.03-.05zm145.6 5.93c.05-.14.13-.24.24-.3l4.88-2.2c.3-.1.6 0 .77.26l.46.93a1.36 1.36 0 0 0-.53.2l-4.2 2c-.38.2-.72.46-1 .8l-.63-1.25c-.04-.15-.04-.3.01-.45l-.01.02zm-5.84 17.32c-3.9 2.2-7.35 3.56-8.65 4.58-1.82.9-2.2 1-3.16 1.43l.43-.22-7.02 3.3c-1.28.6-1.42.85-3.76 1.8.73-.37-.22.04-1.1.4.56-.24.72-.34-.45.1-.2.1-.4.2-.63.3-.01 0-.06.01-.04 0-1.46.6-1.2.52-.5.26-.03.02.03.01.25-.06-1.55.55-4.27 1.65-4.5 1.6-4.46 1.62-7.7 2.67-11.57 3.44-.45.02.45-.2 1.57-.44-.9.2-1.82.38-2.74.5.01-.08 1.57-.3 2.4-.5-3.26.5-6.78 1.27-10.6.4-.26-.03-.53-.05-.8-.1l-.22-.07c0 .04-.85-.13-1.4-.3-.25-.12-.22-.16-.36-.25s-.44-.2-1.3-.62c-.65-.37-1.56-.9-2.46-1.58-.9-.67-1.8-1.46-2.54-2.14.77.75.5.54.14.24-.7-.67-1.05-1.12-1.6-1.63v-.1c-.14-.05-1.84-1.82-2.1-2.03-.33-.45 1.08 1.05 1.28 1.2l-2-2.13c-.3-.37-.67-.7-1.93-2.2-1.4-1.54.18.35-.53-.36-.6-.7-1.2-1.4-1.8-2.1a50.58 50.58 0 0 1-1.82-2.34l.34.58c-2.17-2.7-3.35-4.4-4.6-6.34l-3.28-4.62-.7-1.12.23-.17c.47.04 2.4-1.5 3.13-1.84l-.05.06c1.65-1.3 3.75-2.16 5.35-3.4-.05.06-.05.15-.44.4 1.23-.82 2.9-1.95 3.08-1.87 2.95-1.92 7.14-4.5 8.9-5.92l-.1.12c1-.84 1.4-.9 2.56-1.76.08-.02.17-.07.16-.05l.33-.26c.77 1.23 1.54 2.44 2.35 3.56-.08-.1-.15-.12-.54-.7 1.22 1.8 2.94 4.26 2.95 4.45l5.04 7.03c.88 1.16 1.75 2.25 2.57 3.2l.6.68c.1.12.17.2.3.34.15.14.3.23.45.32.6.3 1.12.33 1.57.37h-.25c1.02.08 1.64.04 2.3.02.66-.03 1.34-.07 2.4-.23.12 0 .27-.01.25-.01 2.07-.35 6-1.05 7.63-1.47l.12.04 4.03-.93-1.5.33c.48-.3 3.07-.58 5.97-1.38 2.74-.6 5.46-1.66 8.3-2.25 1.33-.4-1.16.42.85-.13.1.08-.93.3-.4.23 1.97-.52 3.28-.7 5.7-1.36l.12.05c3.15-.93 6.03-1.45 8.1-2.16l.73-.22.74 1.47c-.2.7-.2 1.44.14 2.1l2 4.2c.4.77 1.05 1.32 1.82 1.56l.4.8c-3.2 1.83-5.76 3.38-8.98 5.02.24 0-1.8 1.03-1.25.87l.08.03zm16.84-8l-4.65 2.48c-.3.1-.6 0-.77-.26l-.4-.78c.3-.01.6-.06.86-.24l4.2-2c.28-.14.52-.32.74-.5l.28.55c.1.3-.02.6-.28.76l.02-.01zm21.56-17.42l-.1.05c-.2.63-.57 1-.76 1.23-.22.24-.34.34-.45.44-.24.2-.47.4-1.6 1.68l.17-.26-.5.77c-2 2.36-1.25 1.14-3.42 3.77.9-.97.56-.33-.6.8.1-.1.16-.23.24-.34-.63.64-.85.85-1.3 1.23.4-.38.16-.25-.88.57l.64-.6c-.62.55-1.27 1.07-1.95 1.56-.83.5-1.94 1.08-2.95 1.53-1 .46-1.93.75-2.32.83l-.74.2-.77.2c-.14.03-.3.06-.44.1-.17.03-.23.05-.58.1l-1.44.9c-.4.26-.73.47-.9.6.27-.2.13-.13-.1-.01l-.07-.13c.05-.1.1-.2.14-.3.26-.77.2-1.6-.12-2.27l-2-4.2c-.45-.9-1.28-1.5-2.22-1.64l-.33-.67c.15-.15.35-.35.6-.63-.01.06.36-.37.6-.75.25-.37.4-.66.18-.2.27-.43.5-.88.7-1.3.2-.4.43-.8.68-1.16.52-.76 1.15-1.5 1.83-2.26.34-.37.7-.75 1.08-1.12l.58-.57a5.83 5.83 0 0 1 .6-.45l2.97-1.97c.4-.36 1.14-.96 1.78-1.5.75-.58.88-.56 1.03-.45 0 .03.04.1.01.32-.04.32-.2.8-.4 1.1-.18.3-.46.6-.5.65-.02.02-.01-.01.07-.13.06-.1.25-.34.35-.56.1-.16.23-.5.24-.47.01-.1.02-.2.02-.28a2.67 2.67 0 0 1-.36.74c-.13.2-.4.52-.57.78l-.3.42c-.16.25-.34.5-.5.77-.3.5-.6 1.03-.64 1.4-.03.18-.01.32.02.45.04.12.06.25.23.38.1.06.16.06.3.08h.2c.07 0 .22-.04.32-.06.2-.02.5-.16.8-.3a17.49 17.49 0 0 1 .83-.36l1.1-.45c-.5.16-2.62 1.07-1.36.48l2.65-1.06-.48.26 3.63-1.47-.53.15c1.82-.74 2.4-1 4.3-1.88.86-.4-1.67.55.14-.2.3-.1.62-.2.94-.28a2.43 2.43 0 0 1 .47-.08c.08 0 .13 0 .18.04.04.03.05.06.1.13.01.03.02.07.03.1 0 .03.01.05 0 .1l-.06.24c.07.1.12.18.16.25-.01 0-.02 0-.03.01l-8.03 4.55a.51.51 0 0 0-.2.68.5.5 0 0 0 .44.25c.08 0 .17-.02.25-.06l8.03-4.55c.07-.04.12-.1.17-.16.03.03.05.05.1.08.1-.04.23-.04.35-.02.03.01.07.02.1.04a.48.48 0 0 1 .16.12c.1.13.18.27.18.42a.97.97 0 0 1-.13.53c-.05.1-.1.2-.17.3l-.05.07a1.01 1.01 0 0 1-.13.16 1.89 1.89 0 0 1-.2.2l-7.02 4.3a.49.49 0 0 0-.17.67c0 .01.01.01.01.02a.52.52 0 0 0 .43.24.46.46 0 0 0 .26-.07l6.6-4.06c.03.08.06.18.1.3.05.03.1.07.16.1.06.04.1.07.1.07-.13-.2.3 0 .08.7l-.06.05z"/><g fill="#fff"><path d="M200.1 152.32l.06-.12c-.01-.01-.03.02-.06.12zm8.17-33.17v-.03.03zm-5.9 28.3h0v.04-.04z"/><path d="M200.8 154.16c.43-1.76.7-2.2 1.02-4.03l.54-2.67c-.04-.43.24-1.12.24-1.62l.1-.17c0-.17.02-.37.1-.53l.02.01c0-.26.1-.53.1-.66h.02l.06-.3.02.06c.04-.44.13-.9.24-1.27h-.1c.28-.82.17-1.16.44-1.9l.02.01c-.02-1 .48-1.48.48-2.5 0 .13.06-.04.07-.03.07-.46.17-.94 0-.98.07-.33.1-.26.18-.3-.07-.01-.04-.3.01-.56v.12l.14-.74-.17.12c.12-.38.2-.07.24-.45h-.12c.14-.54.38-.82.58-1.33l.63-3.33c.23-1.1.46-2.2.84-3.15l.1-.06c.13 0-.03-.6.1-.64V127c.04-.06.1-.2.1-.07.07-.2.05-.22.06-.4l.14-.2c.3-.82.37-1.58.68-2.44.48-1 1-3.02 1.33-4.18.38-1.66 1.55-3.3 2-5 .04-.05.05-.2.04-.2l.6-1.46c-.04-.01 3.08-7.03-.23-2.1l-.01-.05c-.4.78-.63 1.28-.72 1.9-.2.02-.3.66-.42.82v-.02c-.07.54-.5.98-.58 1.5-.01-.02-.05-.05 0-.16-.12.36-.26.85-.37.84-.3.84-.77 2-.82 2.58v-.05c-.01.34-.13.4-.2.76-.02.01-.03.04-.04.03-.02.37-.33.98-.38 1.27h-.07l-.2.67.1-.25c.14.15-.28.47-.33 1-.18.45.05 1.04-.18 1.5.01.25-.07-.24-.1.12-.1-.02-.01-.18-.1-.1-.06.35-.27.5-.34.94l-.08-.01c-.04.57-.4 1-.38 1.38-.1.57-.32.3-.35.93l-.16.2c-.08.24.07.2-.05.48-.06-.03-.14.34-.16.16-.26.6-.22 1.3-.58 2.1.08.2-.1.6-.04.77-.06.01-.2.84-.2.34 0-.04.02-.1.04-.1l-.06-.07c-.26.44-.12.88-.25 1.35.05-.14.1-.32.1-.2l-.1.44-.04-.1-.17.65.1-.08c-.1.3-.26.4-.23.78.02.17.17-.28.12.06l-.5 1.57c.1-.03.06.1.05.26h-.08c-.02.6-.2.18-.25.76l-.04-.06.12.18c.03.54-.2.25-.14.86.04-.23.18-.07.1.2l-.06-.08c-.02.16 0 .2-.04.3-.02-.1-.1-.07-.13.16l-.06-.17.04.45c-.15.3-.17.86-.3.97 0 0-.2.7-.13.88-.04-.16-.15.23-.2.1.04.2-.02.76-.15.96v-.04c-.26.8-.18 1.4-.44 2.1.1-.02-.04.36.1.28-.05.77-.52 1.3-.24 1.65-.06.34-.17.4-.22.56v-.08l-.26 1.3c-.02.24.13.3 0 .73-.03-.15-.06.03-.1.18.01-.1 0-.14-.1.06.01.03.01.08.02.13-.01 0-.01.01-.02 0-.04.27-.01.23.03.1.01.01.02 0 .05-.03-.14.26-.16.76-.27.77-.15.8-.16 1.4-.26 2.06-.07.06-.1-.1-.06-.3l-.08.47c-.08-.02.01-.28.03-.43-.25.53-.12 1.18-.38 1.8l.03.15-.02.04c.03.01.05.16.04.26-.1.08-.16-.04-.22.28-.12.24-.13.73-.16 1.08.05-.18.08-.1.08-.03-.03.16-.12.24-.12.37l-.1-.01c.1-.04 0 .44.03.5-.1.08 0-.26-.05-.32l-.2.98c-.01.36.1-.04.15.14-.05.3-.05.62-.18.96l.1-.1c-.06.6-.15.93-.3 1.3-.27 4.44.7 1.1.7 1.1.52-1.62.48-2.55.85-4.57l-.03.05zm37.7 13.6l-.15.05c.01.01.05.01.15-.05zm-21.22-23.43c-.01-.01-.01-.02-.02-.03.01.02.02.03.02.03zm15.6 25.43h0l.03-.03-.03.03z"/><path d="M239.5 165.9c-1.75 1-2.3 1.13-4.04 2.26l-2.57 1.6c-.08.1-.2.17-.32.25l-.35.22c-.05.01-.1.1-.15.08 0-.04.01-.07.02-.1-.02 0-.04 0-.06-.01-.06-.08-.12-.16-.16-.25h.02c-.2-.2-.35-.48-.45-.58h.02l-.2-.27.06.03c-.32-.37-.6-.8-.82-1.17l-.05.08c-.44-.84-.77-1.04-1.13-1.83h.02c-.77-.8-.76-1.54-1.53-2.37.1.1.01-.07.03-.08-.28-.43-.57-.9-.72-.82-.2-.32-.1-.3-.08-.37-.06.04-.25-.23-.4-.47l.1.1-.44-.7-.04.2c-.18-.4.1-.18-.14-.54l-.1.06c-.28-.55-.3-.95-.5-1.5l-1.85-3.3-1.58-3.28.04-.13c.1-.1-.44-.5-.37-.62l-.16-.22c-.01-.08-.05-.23.03-.12-.1-.23-.12-.22-.23-.37l-.04-.27c-.35-.9-.84-1.6-1.2-2.56-.16-.6-.5-1.4-.88-2.23l-1-2.27c-.44-.84-.68-1.83-.92-2.82l-.86-2.87c0-.07-.08-.2-.1-.2l-.46-1.7c-.07.03-1.83-8.33-1.47-1.75l-.04-.04c.14.97.26 1.57.6 2.18-.14.15.2.77.2 1l-.02-.02c.3.53.22 1.2.5 1.73-.02-.02-.07-.02-.1-.14.12.4.36.92.27.98.34.94.73 2.27 1.1 2.82l-.04-.03c.22.3.18.44.37.8 0 .03 0 .05-.01.05.24.33.42 1.07.58 1.36l-.05.04.3.73-.1-.28c.2.03.1.6.42 1.1.2.5.77.85.9 1.4.18.2-.22-.16-.01.18-.08.05-.13-.15-.16-.02.2.34.16.62.4 1.04l-.06.05c.36.52.4 1.12.68 1.44.32.56-.02.48.4 1.03l.02.28c.1.27.2.13.3.44-.07.01.12.4-.01.24.2.7.77 1.25 1.04 2.18.2.13.35.6.5.7-.04.05.42.86.07.43-.03-.04-.06-.1-.04-.12l-.1-.02c.12.55.52.84.75 1.32-.05-.15-.16-.34-.05-.23l.22.44-.1-.06.3.67.02-.13c.13.34.08.5.37.82.14.14-.07-.35.13-.03l.75 1.68c.05-.1.13.05.22.2l-.06.05c.4.52-.03.3.36.82l-.07-.02.22.07c.42.44.03.35.53.82-.14-.22.08-.2.2.1l-.1-.03c.1.14.16.18.2.3-.1-.07-.12.01.02.22l-.17-.1.36.36c.12.37.5.83.5 1.02 0 0 .38.72.57.82-.14-.1.07.3-.07.23.18.14.55.64.62.9l-.03-.03c.43.82.94 1.27 1.3 2.02.05-.08.25.3.3.16.56.66.68 1.42 1.14 1.5.12.16.16.26.2.35.03.1.04.15.14.3l-.1-.1.63.84c.06.07.1.2.18.1l.93-.55c.25-.2.18-.33.62-.55-.1.13.06.02.22-.07-.1.07-.1.1.1.02.03-.04.06-.07.1-.1.26-.16.2-.15.08-.1 0-.01-.02-.02-.06-.01.3-.1.74-.45.83-.38l1.88-1.34c.1 0-.02.14-.2.27l.45-.3c.04.07-.24.2-.37.3.6-.22 1.06-.8 1.76-1.07l.1-.13h.04c-.02-.03.1-.15.2-.22.13.01.08.14.4-.05.28-.1.7-.46 1-.68-.18.1-.15.03-.08-.04.16-.1.28-.1.4-.2l.06.07c-.1-.04.36-.33.4-.4.13.01-.2.2-.23.27l.95-.58c.3-.26-.1-.04.01-.2.3-.2.55-.43.92-.58h-.15c.53-.4.87-.6 1.3-.74 3.83-3.1.4-1.33.4-1.33-1.68.77-2.4 1.5-4.34 2.72l-.08-.04zm28.5 42.93c-.33-.2-4-.77-5.77-.63-4.92-.14-7.92-.64-12.04-.57-.47-.1.5-.18 1.73-.2l-2.98.03c.03-.13 1.7-.08 2.63-.1-3.55-.22-7.32.22-11.48.02l-.86.1-.25-.02c.01.06-.92.13-1.54.15-.6-.12.04-.27-2.02-.26-1.63-.1-4.63.06-6.76.12 1.15.02.78.08.28.13-1.03 0-1.62-.1-2.42-.06l-.08-.12c-.14.12-2.75.13-3.1.2-.6-.12 1.6-.1 1.86-.2l-6.2.02c-2.2.12.4.15-.65.3-1.95.03-3.84.14-6.08.05l.7.14c-3.66.1-5.84.1-8.3-.05-27.24 1.14-5.74 1.56-5.74 1.56 10.72.3 16.26-.1 29.02-.2 11.22.07 14.2.34 25.82.23l8.5-.02 3.08-.02c1.66-.02 3.06-.32 2.65-.58v-.02zM220.94 99.1l.14-.02c-.01-.02-.05-.02-.14.02zm31.84 6.6c.01.01.02.01.03.02-.02-.02-.03-.02-.03-.02zm-26.56-7.1h0l-.04.02z"/><path d="M219.98 100.78c1.55-.8 2.05-.8 3.72-1.45l1.26-.38 1.26-.33c.36-.22 1.1-.2 1.54-.38l.2.04c.16-.07.34-.1.5-.1h-.01c.24-.08.52-.07.64-.1l-.01.02.3-.04-.05.03c.42-.1.86-.15 1.25-.12l-.04-.1c.83.1 1.14-.14 1.9.01l-.01.02c.96-.2 1.5.2 2.47.1-.12.01.05.05.03.07.45.02.93.06.96-.1.32.06.26.1.3.17.01-.07.3-.05.55-.01l-.12.01.73.1-.1-.16c.38.1.06.18.44.23l.02-.12c.52.15.8.4 1.27.6 2.06.6 4.36 1.26 6.04 2.42l.04.12c-.03.13.58.1.6.25l.23.07c.05.05.15.14.04.1.2.1.2.1.35.15l.16.2c.7.5 1.4.78 2.1 1.34.8.76 2.47 1.93 3.4 2.67 1.37.98 2.34 2.74 3.6 3.9.02.05.15.14.16.13l.98 1.22 1.94 2.4c.75.9 1.28 1.13-.01-1.55l.05.01c-.47-.74-.8-1.18-1.28-1.56.08-.18-.44-.57-.52-.76l.02.01c-.44-.32-.62-.9-1.05-1.22.02.01.07-.02.15.07-.26-.27-.63-.62-.58-.7-.6-.65-1.47-1.57-2-1.86l.05.01c-.3-.15-.32-.28-.63-.5-.01-.02-.02-.05-.01-.05-.33-.17-.8-.68-1.03-.83l.03-.06-.55-.44.2.18c-.2.1-.33-.44-.8-.66-.36-.32-1-.3-1.34-.66-.24-.07.25.01-.07-.15.05-.08.17.05.14-.07-.3-.17-.4-.42-.8-.6l.03-.07c-.54-.2-.82-.68-1.2-.77-.52-.25-.2-.4-.8-.6l-.15-.2c-.22-.14-.22.01-.45-.17.05-.05-.3-.22-.12-.2-.52-.42-1.24-.5-1.93-1.03-.22.04-.6-.2-.75-.18 0-.06-.8-.36-.3-.27.04.01.1.04.1.06l.08-.04c-.4-.34-.86-.27-1.3-.46.13.07.3.14.17.14l-.42-.17.1-.02-.62-.27.06.1c-.3-.14-.37-.3-.76-.3-.18.01.27.2-.07.1-.4-.2-1-.45-1.56-.6.03.1-.12.06-.27.04v-.08c-.6-.04-.17-.22-.78-.27l.06-.04-.2.12c-.56.05-.26-.2-.88-.1.23.03.08.18-.2.1l.08-.06c-.16-.01-.22.01-.32-.03.1-.02.07-.1-.17-.12l.17-.06c-.15.02-.3.03-.46.07-.33-.1-.88-.08-1-.2 0 0-.73-.14-.9-.02.15-.06-.25-.1-.13-.18-.2.07-.77.1-1 .02l.04-.01c-.84-.14-1.43.13-2.2.03.04.1-.36.05-.26.16-.76.15-1.43-.1-1.67.26-.35.05-.42-.04-.6-.03l.08-.03-1.32.24c-.24.08-.25.22-.68.28.13-.1-.05-.04-.2-.01.1-.03.13-.06-.1-.06-.03.03-.07.05-.1.07-.27.07-.22.08-.1.06 0 .01.01.02.05.03-.3-.02-.77.18-.83.1-.8.24-1.32.52-1.95.78-.1-.03.04-.13.22-.22l-.45.2c-.02-.08.25-.14.38-.2-.6.1-1.08.5-1.74.7l-.1.12-.04.01c.02.03-.1.13-.2.2-.12-.02-.06-.15-.37-.01-.27.05-.66.38-.95.57.17-.08.14-.02.08.04-.15.08-.27.06-.36.16l-.06-.07c.1.04-.33.3-.36.38-.12-.01.2-.2.2-.26l-.85.55c-.26.27.1.04.01.2-.25.2-.47.4-.8.6h.14c-.43.4-.7.62-1.06.83-1.4 1.77-1.12 2.16-.87 1.96.25-.12.86-.67.86-.67 1.27-1.04 1.77-1.76 3.46-2.8z"/></g></svg>