<svg xmlns="http://www.w3.org/2000/svg" viewBox="0 0 480 480" xmlns:v="https://vecta.io/nano"><path d="M182.63 123s-6.5 2.06-21.4 10.56c-4.8 2.8-10.1 7-11.6 11.4-1.8 5.3-1.2 13.7 1 27.8 3.3 20.9 9.7 42.8 9.7 42.8s-1.1 7 2.8 13.6c3.9 6.7 4.2 8 5 8.7 1.4 1.1 2-.6 2-.6s1.1 1.9 2.5 1.7c1.2-.2 1.1-1.7 1.1-1.7s.9 1.1 1.9.4c.7-.5.3-2.9-.4-5.5-.6-2.1-.6-7.5-.8-8.5s1.5 1.1 2.5 2.4c1.2 1.4 3.1 2 1.9-.9s-1.8-5.4-2.1-6.2c-.4-.8-1.6-3.8-3.1-5.4-1-1.1-3.3-2.4-3.8-5.8-1-5.8-.3-21.9.1-31.8.3-7.1.5-18.6 2.8-19.8 7.9-4.1 23.3-10 23.3-10L182.63 123zm180 23.88s1.5-1.7.9-2.9c-.6-1.1-2-.5-2-.5s.7-1.2-.1-1.9c-.7-.5-2.9.6-5.1 2-1.8 1.2-6.9 2.8-7.8 3.3s.6-1.8 1.6-3.1c1-1.5 1-3.6-1.4-1.6s-4.7 3.3-5.3 3.9-3.1 2.6-4.2 4.6c-.7 1.3-1.2 3.2-4.3 4.7-5.2 2.2-24.9 6.7-34.5 8.9-4.8 1.1-15.1 3.5-16.8 1.6-2.26-2.5-7.6-10.17-13.17-18.45-.27.18-.53.37-.78.58.01-.02-.08.03-.16.05-1.16.85-1.57.92-2.56 1.76l.1-.12c-1.76 1.43-5.95 4-8.9 5.92-.18-.08-1.85 1.05-3.08 1.87.4-.25.38-.34.44-.4-1.6 1.25-3.7 2.1-5.35 3.4l.05-.06c-.68.33-2.37 1.65-3 1.8 5.75 8.7 11.95 17.42 16.6 22.14 3.9 3.9 6.5 6.4 13.4 6.9 7.9.5 20.2-3.9 33.1-10 18-8.4 34.5-18.7 34.5-18.7s7-1 12.2-6.7 6.4-6.3 6.8-7.3c.7-1.7-1.2-1.7-1.2-1.7h0z" fill="#fff"/><path d="M364.35 147.34a1.46 1.46 0 0 0-.35-.5c-.07-.07-.15-.12-.23-.17.01.01-.03-.02-.05-.03-.06-.04-.14-.06-.2-.07 0-.03.1-.12.14-.18l.07-.1c.03-.04.13-.22.2-.34.14-.28.25-.58.32-.9.1-.5.04-1.18-.36-1.67-.2-.25-.46-.44-.76-.55a2.18 2.18 0 0 0-.44-.11l-.13-.01c-.06 0-.13.02-.2.04.03-.06.05-.12.07-.18 0-.04.01-.02.01-.14 0-.16-.02-.32-.06-.47-.1-.35-.3-.66-.6-.9-.3-.2-.77-.24-1.02-.2-.3.02-.52.1-.76.16-.92.3-1.72.72-2.5 1.17l-2.25 1.34-2.37 1.05-2.46.95-.64.25-.2.1c-.05.02-.2.12-.17 0 .04-.14.12-.27.2-.4l.12-.2.33-.48c.23-.36.53-.67.78-1.15.22-.45.4-.84.45-1.6 0-.34-.07-.67-.3-.9-.2-.25-.56-.3-.87-.28-.3.02-.68.22-.9.34l-.6.42-2.04 1.6-2.1 1.47-1.07.77-.28.24-.22.2-.47.42c-1.27 1.15-2.53 2.33-3.47 3.83l-1.17 2.15c-.2.27-.4.53-.63.77a2.11 2.11 0 0 0-.71-.51c-.52-.24-1.12-.26-1.66-.05-.77.2-1.45.38-2 .83-.05-.01-.13.1-.12.12l-1.16.5-.8.37-.35.18-.47.26c-.4.27-.67.7-.7 1.2-.02.25.01.46.07.63l-2.1.64-1.6.34-16.8 4.2c-3.7.75-9 2.05-14.37 3.18-2.7.53-5.43 1.04-7.95 1.06-.62 0-1.24-.04-1.75-.18-.26-.07-.48-.17-.6-.3-.16-.16-.38-.43-.56-.64-.77-.87-1.43-1.77-2.06-2.57-2.36-3.1-4.7-6.5-7.05-9.98-.58-.7-1.43-1.7-1.6-1.64-.22.07.75 2 1.22 2.9l2.32 3.2-.18-.2c1.37 1.74 1.64 2.34 3.14 4.3.07.12.17.26.14.24l2.85 3.7.8.98c.13.16.24.3.46.5.2.15.4.25.6.33.8.27 1.48.3 1.98.3l.13.07c1.65.02 3.25-.2 4.84-.43l-1.8.22c.6-.23 3.64-.35 7.03-1.2 3.2-.66 6.35-1.83 9.66-2.5 1.55-.45-1.35.46.98-.15.1.08-1.08.3-.46.25 2.3-.58 3.8-.78 6.62-1.52l.13.05c3.67-1 7-1.6 9.42-2.34 3.75-1.03 2.64-.44 6.4-1.63.03.17.07.34.12.5.34 1.36 1.02 1.8 1.85 3.22.58 1.3.5 1.77 1.28 3.05.3.64.7 1.3 1.04 1.9.34.2.4.8.75 1.08l-.04.2c.1.08.18.18.2.3-1.32.78-2.86 1.66-3.7 2.06l.25-.15c-4.93 2.63-8.34 4.67-12.86 6.85.24-.02-2.14 1.13-1.5.93-4.6 2.4-8.62 3.9-10.2 4.96-2.15.98-2.6 1.05-3.72 1.52l.5-.23c-4.06 1.74-5.26 2.2-8.34 3.3l-1.8.72c-.6.24-1.34.52-2.75.92.9-.34-.25.04-1.3.32.67-.2.87-.27-.52.06-.2.07-.5.17-.77.25-.01 0-.07.01-.04-.01-1.77.44-1.46.4-.63.2-.04.02.03.01.3-.03l-3.3.67c-1.1.17-2 .3-2.1.25-2.7.34-5.03.3-7.22-.07-2.18-.35-4.18-1.08-6.04-2.36-.38-.35.48.27 1.64.86-.94-.48-1.82-1.08-2.65-1.75.07-.04 1.47 1.1 2.34 1.54-1.6-.97-3.1-2.25-4.6-3.68l-1.13-1.1-1.1-1.17-1.1-1.2-1.05-1.3-.65-.68-.16-.22c-.01.02-.18-.16-.4-.4a14.31 14.31 0 0 1-.71-.84c-.34-.55.15-.06-1.22-1.84l-2.08-2.8-2.33-3.12c.7 1.04.45.73.12.3-.65-.92-.96-1.5-1.5-2.2v-.1c-.14-.07-1.76-2.43-2-2.73-.3-.57 1.03 1.4 1.23 1.62l-3.56-5.28c.77-.4 2.03-1.36 2.6-1.64l-.05.06c1.65-1.3 3.75-2.16 5.35-3.4-.05.06-.05.15-.44.4 1.23-.82 2.9-1.95 3.08-1.87 2.95-1.92 7.14-4.5 8.9-5.92l-.1.12c1-.84 1.4-.9 2.56-1.76.08-.02.17-.07.16-.05l.3-.23.93-.65c1.13-.74 2.48-1.53 3.12-2l.12.05 2.34-1.5-.9.54c.07-.23.54-.47 1.2-.8.44-.24 1.04-.58 1.64-.95.07-.05.17-.1.2-.14l-.14-.23-.3-.47c-.2-.32-.43-.64-.65-.95-1.02-1.7-2.6-2.92-3.55-4.67-.63-.7.64.57-.2-.55.1-.12.44.5.35.12-.8-1.12-1.08-2-2.1-3.35l.07-.13c-1.4-1.74-2.15-3.6-3.14-4.7-1.35-1.85-.54-1.48-2.06-3.33l-.38-.86c-.54-.86-.58-.5-1.14-1.47.13 0-.73-1.23-.28-.74-1.32-2.2-3.08-4.2-5-7.02-.62-.45-1.62-1.84-2.1-2.15.02-.14-2.28-2.56-.84-1.27.12.1.3.33.27.34l.24.1c-1.13-1.6-2.5-2.52-3.85-3.9.38.43.93.96.5.66-.42-.43-.85-.84-1.28-1.25l.34.18c-.63-.63-1.3-1.23-1.95-1.83l.2.34c-.95-.9-1.18-1.36-2.47-2.13-.6-.32.88.9-.24.08-1.34-1.13-3.48-2.7-5.5-3.76.12.23-.4-.07-1-.3l-.01-.14c-1.13-.42-1.32-.56-1.5-.7-.18-.13-.34-.33-1.52-.64l-.46.03c-2.15-.34-1.06-.62-3.52-.74.95.13.4.32-.75.12l.3-.08c-.65-.07-.87-.03-1.3-.08.4-.04.22-.16-.74-.2l.65-.1c-.6.02-1.22.1-1.83.18-1.42-.12-3.6.38-4.2.4 0 0-.75.13-1.55.4-.82.22-1.66.64-1.95.83.5-.35-1.03.28-.65-.03-.68.42-2.65 1.6-3.46 2.04l.14-.1c-.72.46-1.4.86-2 1.34l-1.05.98c-.1 0-.2.01-.33.02-.14.06-.28.1-.42.15-.01-.01-.04-.01-.03-.02-.97.23-.8.23-.34.15-.02.02.02.03.17.03-1.04.04-2.8.6-2.96.45-2.9.72-4.87 1.5-7.22 2.2-.3-.02.24-.25.92-.48l-1.67.5c-.02-.13.94-.34 1.45-.5-2.05.33-4.08 1.4-6.45 2.03l-.44.27-.14.03c.03.05-.46.3-.8.46-.36.01-.07-.26-1.2.17-.93.25-2.5 1.04-3.64 1.6.63-.24.45-.1.2.05-.55.24-.92.27-1.33.5l-.12-.12c.27.04-1.4.77-1.56.92-.36.03.82-.47.92-.6-2.2 1-1.1.48-3.3 1.5-1.13.64.27.04-.23.42-1.03.5-1.98 1.07-3.2 1.54l.43-.05c-1.88 1-3.04 1.56-4.4 2.08l-2.9 1.77-3.42 1.8c-.07-.04-.1-.02-.12.06l-.23.12.26.47c-.46.43-.3.5.18.35h.03c.3.83.85 2.18 1.76 4.22l.43.95.58 1.26-.1-.1c1.45 2.8 2.4 4.54 3.7 6.32-.08.44 1.25 2.27 1.53 2.96l-.05-.05c1.14 1.56 1.8 3.54 2.88 5.05-.06-.05-.14-.05-.36-.42.7 1.16 1.66 2.73 1.57 2.9l2.53 4.4c-2.55 1.12-4.83 2.15-6.3 2.9l.23-.13c-1.94 1-2.57 1.15-4.76 2.2-.13.04-.3.1-.26.1-1.06.53-2.63 1.27-4.15 1.98l-1.1.55c-.36.2-.7.28-1.1.64-.62.66-.78 1.32-.94 1.8l-.1.1c-.47 1.57-.67 3.14-.85 4.72.07-.6.15-1.18.25-1.76.07.63-.6 3.56-.65 7-.2 3.2.1 6.5-.13 9.83.02 1.6-.08-1.4-.1.97-.1.07-.02-1.1-.12-.5-.05 2.33-.25 3.8-.3 6.68l-.08.1c.01 3.75-.3 7.06-.2 9.56.03 3.87-.26 2.6-.06 6.63v.3c-.27-.03-.53-.01-.53-.01-1.42 0-2.03.55-3.6 1-1.43.24-1.86.06-3.3.5-.7.13-1.44.36-2.1.54-.28.28-.9.2-1.24.46l-.17-.08c-.17-.68-.32-1.3-.4-1.73l.08.27c-1.25-5.36-2.33-9.13-3.27-13.98-.04.24-.53-2.33-.5-1.67-1.16-5-1.57-9.2-2.2-10.95-.4-2.3-.38-2.73-.54-3.92l.1.55c-.7-4.3-.86-5.56-1.26-8.77-.22-1.6-.42-1.83-.65-4.72.14.93.03-.25-.05-1.33.06.7.1.9.04-.52-.03-.2-.06-.5-.1-.8 0-.01 0-.07.01-.04-.12-1.8-.1-1.48-.1-.65-.01-.04-.02.03-.02.3-.05-1.87-.07-5.2.1-5.4.06-1.34.23-2.57.46-3.72.23-1.16.55-2.2 1.04-3.16 1-1.9 2.38-3.5 4.02-5.03.42-.3-.35.42-1.23 1.37.72-.76 1.5-1.48 2.3-2.16.02.07-1.36 1.2-2.03 1.92 2.75-2.55 5.94-5.06 9.96-7.06l.78-.5.24-.12c-.03-.02.84-.54 1.42-.86.6-.24.04.16 2-.88.75-.35 1.77-.9 2.85-1.47 1.12-.68 2.8-1.74 2.76-2.04-.03-.24-1.52.28-2.86.8l-8.36 4.34a46.61 46.61 0 0 0-5.32 3.24c-1.85 1.35-3.94 2.95-6 5.5-.96 1.22-1.86 2.6-2.34 4.2-.5 1.54-.74 3.12-.88 4.7-.25 3.14-.08 6.24.17 9.17.33 2.78.84 7.67 1.43 10.9l.12 1.27.6 3.56-.03-.07.8 4.37-.03-.07.38 2.02-.1-.34 1.75 8.5.04-.24c1.12 5.62 1.78 7.62 2.9 12.67l-.04-.06.8 2.95c-.02.01-.05.02-.07.04v-.04c-.13.06-.25.14-.36.23l.03-.08c-.44.4-.75.95-.88 1.54l.15-.01c-.08.27-.08.52-.05.74.02.1.05.2.08.3l.06.17c.08.2.16.42.13.74h-.04c.55.68.02 1.26.56 1.97-.07-.1-.06.06-.1.06.12.35.23.73.5.68.06.26-.04.23-.14.3.12-.03.22.2.28.4l-.07-.08.18.6v.06l.07-.1.12-.15v.1c-.01.3-.25.15-.06.52l.17-.1c.22.54.38 1.03 1.05 1.34.23.06.48.05.73.02.03.1.05.2.08.3l.52 1.76a5.96 5.96 0 0 1-.04.42l-.03.56c-.01.38-.02.76-.01 1.16-.02-.86-.05.37-.07.3.02 1.6.22 3.23.5 4.45.26 1.22.56 2.04.65 2.04.33 1.1.5 1.54.56 1.75s.02.2.04.35c.02-.02.24.43.56 1.08.3.65.8 1.5 1.24 2.24l-.43-.7 2.5 4.38-.35-.94c1.25 2.37.18.67 1.42 2.92l.1-.08c.44.82.76 1.56 1.27 2.27.28.36.65.64 1.12.77.24.06.52.07.77-.03a1.11 1.11 0 0 0 .34-.18l.1-.07.05-.04a1.56 1.56 0 0 0 .16-.2c.04.01.1.17.15.23l.1.13c.1.1.2.22.3.32.22.2.48.4.8.57.6.33 1.63.43 2.32-.33a2.04 2.04 0 0 0 .26-.39l.04-.1.01-.04c.02-.06.02-.13.03-.2.04.05.1.1.15.12.03.01.04.03.2.06.16.04.33.06.5.06.35-.01.68-.12.97-.32.32-.22.5-.64.57-.9.07-.3.08-.55.08-.8-.01-1-.2-1.9-.38-2.8s-.5-1.78-.6-2.6c-.14-.86-.22-1.76-.28-2.66l-.2-3.3-.03-.23c-.01-.03-.02-.1.03-.1.04.01.06.03.1.06.25.24.26.25 1 1.14.25.33.6.77 1 1.07.22.2.47.34.73.47.32.16.67.26.98.2a.87.87 0 0 0 .71-.58c.13-.3.1-.65.04-1-.1-.6-.3-1-.47-1.43a37.17 37.17 0 0 1-.92-2.49 74.07 74.07 0 0 1-.79-2.53l-.2-.65c-.03-.1-.07-.24-.14-.37l-.7-1.5c-.77-1.58-1.6-3.2-2.95-4.46-.78-.68-1.46-1.37-2-2.13.26-.17.5-.38.67-.66.14-.24.24-.5.28-.77.05-.25 0-.64 0-.83 0-.75 0-1.5-.3-2.16.02-.05-.06-.15-.1-.15l-.18-1.26s-.06-.38-.16-.88a13.15 13.15 0 0 1-.18-.86c-.12-.46-.5-.92-.94-1.08-.23-.1-.45-.1-.63-.1-.03-1.36-.05-1.44-.1-2.48l.07-1.6.36-17.06c.25-3.7.4-9.1.7-14.5.2-2.7.4-5.44 1.03-7.82.17-.58.4-1.15.67-1.53.17-.3.85-.52 1.34-.8 1.03-.53 2.03-1 2.94-1.43 4.13-1.97 8.62-3.9 13.2-5.84.74 1.25 1.43 2.37 1.95 3.07l-.1-.1c.74.94.77 1.3 1.5 2.4.02.07.05.16.04.15.8 1.03 1.87 3.25 2.45 4.1l-.06.1 1.4 2.4-.55-1.03c.1.03.2.16.32.36s.33.64.55 1.1l.38.76c.02.1.1.06.16.02l.2-.1c.13-.07.27-.14.4-.2l.87-.48c.1-.07.23-.14.35-.2-.76 3.7-1.48 7.4-2.02 10.93-.1.34-.2 1.24-.17 1.24l-1.86 9.68s-6.18 32.4-3.4 23.1l-.32 1.65h7.15c-17.8.93.2 1.28.2 1.28 10.72.3 16.26-.1 29.02-.2 11.22.07 14.2.34 25.82.23l8.5-.02 9.5-.06c.13-.02.34.03.4-.06-.01-.16-.03-.33-.04-.5l-.08-1.03-.12-1.72-.15-2.66c-.1-1.84-.2-3.73-.37-5.25l.05-1.2c-.12-1.04-.23-2.27-.23-3.33l.04.06c-.1-.78-.15-1.6-.2-2.33 1.47.5 3 .8 4.55.96 1.6.18 3.24.13 4.82-.03 3.18-.33 6.25-1.06 9.12-1.9 2.7-.9 7.46-2.46 10.5-3.83l1.23-.43 3.36-1.46-.06.05 4.1-1.9-.06.05 1.9-.9-.3.18 7.9-3.9-.24.02c5.23-2.56 7.02-3.72 11.68-6.14l-.05.05 4.8-2.77c.5.36 1.1.56 1.65.58l-.04-.14c.56.1.98-.2 1.22-.37.18-.13.36-.26.67-.32l.01.03c.5-.7 1.2-.34 1.73-1.04-.07.1.07.05.08.08.3-.2.64-.4.5-.67.24-.12.23-.02.32.06-.06-.1.12-.26.3-.37l-.06.1.56-.35a1.36 1.36 0 0 1-.27-.13c.4-.15.27.2.6-.1l-.14-.14c.46-.35.94-.6 1.12-1.3a1.7 1.7 0 0 0-.1-.63l.95-.6.97-.63-.14.1c-.04.03-.04.03-.02.02.04-.02.07-.04.1-.06.04-.03.04-.02.07-.03 0 .01.2-.02.17-.01 3.22-.62 6.27-2.3 6.22-2.47 2.03-1.14 1.67-.92 1.96-1.02-.06-.06 1.65-1.2 2.95-2.48l-.6.58c1.32-1.17 2.4-2.5 3.58-3.72l-.8.64c1.9-1.94.6-.4 2.37-2.28l-.1-.06c.93-.95 1.77-1.7 2.56-2.46.38-.36.82-.85 1-1.46.03-.2.1-.56-.06-.96l-.13-.18zm-34.2 10.2l.1-.02-.32-.64c-.03-.07-.03-.14-.04-.22h0c.01.07.01.15.04.22l.42.82a2.8 2.8 0 0 1-.2-.16zm-160.62 45.04c.07-.02.13-.03.2-.04.01.01.02.01.03.02-.08 0-.15-.01-.23.02l-.62.14.62-.14zm-.7.05v.1l-.2.04c.08-.06.14-.1.2-.14h0zm4.26 34.85c-.02.17-.04.33-.1.48-.04.1-.05.1-.08.15-.06.07-.1.12-.17.15-.12.08-.3.1-.5.04s-.42-.17-.63-.34c-.1-.1-.2-.18-.3-.28-.08-.1-.16-.18-.24-.28h0l-2.94-9.15c.6-.16 1.22-.35 1.8-.57.13-.05.24-.1.36-.15l2.95 9.87c-.05.02-.1.05-.16.08h0zm-3.12-35.6c-.01 0-.02.01-.04.01.01-.2.02-.3.04-.01zm.1 9.3c.12-.04.23-.08.34-.12.58.88 1.35 1.64 2.12 2.3.88.72 1.53 1.63 2.14 2.73.3.54.6 1.12.86 1.73l.4.93.2.47.13.44c.45 1.13 1.26 3.93 1.7 4.76 0 .04.13.4.32.87.18.45.36 1.03.32 1.08.01.2-.2.2-.2.17-.06-.03.13.02.1-.2-.01-.03-.01-.07-.02-.1-.01-.07-.04-.18-.03-.16l-.17-.28c.07.18.08.3.12.44 0 .02 0 .04-.01.06-.01.04-.05.05-.08.04-.02-.01-.03-.01-.05-.02a8.11 8.11 0 0 1-.36-.26c-.24-.2-.47-.44-.66-.7l-.75-.9c-.4-.46-.88-1.03-1.3-1.36-.17-.13-.3-.2-.45-.24-.08-.15-.23-.25-.44-.25 0 0-2.2.1-4.3-1.8-1.8-1.6-1.5-4.3-1.5-4.3.1-.3-.1-.6-.4-.6-.3-.1-.6.1-.6.4 0 .1-.4 3.2 1.9 5.2 1.8 1.63 3.65 2 4.5 2.07 0 .03-.01.05-.01.1 0 .2-.03.35 0 .58.1.95.1 1.58.12 2.03l-.1-.64c.07 1.52.12 2.98.26 4.5l.02-.63c.08 1.1.13 1.85.3 2.68l.64 2.67c.26 1.05-.26-1.98.16.2.07.56.15 1.22.07 1.8-.06.33-.08.34-.23.4-.1.04-.18.05-.26.04-.04 0-.1-.02-.14-.03l-.18-.1c-.07-.05-.15-.12-.23-.18-.06.02-.12.03-.17.04l-2.96-9.9 2.1-.87c.2-.2.3-.5.2-.7-.2-.2-.5-.3-.7-.2-.1 0-.7.3-3.3 1.3-1.2.4-2.1.6-3.1.8-.2.1-.5.1-.8.2s-.5.3-.4.6c.1.2.3.4.5.4l.1.1c.3-.1.5-.1.8-.2.17-.03.34-.07.5-.1l2.76 8.58c-.08.02-.2.04-.32.06.2 0 .13.02-.12.1-.03.07-.08.13-.13.2l-.04.06c0 .01-.01.02-.04.05l-.04.04c-.04.04-.08.05-.12.07-.07.03-.22.01-.43-.1v-.1c-.25-.14-.44-.46-.6-.7-.15-.25-.26-.46-.35-.63-.17-.33-.23-.5-.3-.67-.13-.33-.25-.67-1.22-2.37l-.43-.56c-.92-1.5-1.13-1.94-1.36-2.4-.22-.47-.54-1-1.5-2.62.72 1.32.12.74-.6-1 .08.14.17.27.26.4-.42-.94-.56-1.25-.76-1.9.23.57.18.28-.25-1.16.1.32.24.63.37.94-.34-.88-.6-1.8-.8-2.73-.14-1.02-.3-2.33-.32-3.53a22.7 22.7 0 0 1 .02-1.65c.02-.24.03-.47.06-.66.02-.2.04-.3.1-.62-.05-.18-.08-.32-.1-.36l-.52-1.9 1.13-.34c.88-.26 1.74-.48 2.6-.5l.1.13c.08.2.38-.4.5-.22l.17-.14c.06.03.18.04.1.1.18-.03.17-.06.3-.15l.22.1c.7-.04 1.24-.42 1.98-.52.46.04 1.1-.1 1.72-.27.3-.08.6-.2.9-.3l.04-.03zm164.9-42.12c.01-.01.02-.01.03-.02.01.01.02.02.02.03l-.05-.01zm28.24-20.57c-.1.2-.4.57-.75.93l-.14.03c-2.75 2.9-1.18.9-3.87 3.82l-.4.6c-1.17 1.37-1.52 1.7-1.9 2.04s-.76.76-2.22 2.02c1.18-.97.7-.28-.87.78l.35-.33c-.84.6-1.14.8-1.74 1.15.5-.36.24-.23-1.1.5l.86-.56c-.82.5-1.67.97-2.55 1.37-.6.2-1.27.46-2 .66l-1.07.3-.53.12c-.2.04-.26.06-.62.1l-1.4.85c-.28.16-.5.3-.68.38l-.68-1.13c-.47-.77-.9-1.55-1.1-2.36l.1-.13c.18-.12-.5-.26-.34-.4l-.17-.13c.01-.07 0-.18.08-.12-.07-.16-.1-.15-.22-.23l.03-.23c-.22-.67-.7-1.1-1-1.76-.13-.77-.83-1.86-1.38-2.66.05-.05.1-.1.16-.15.85-.9 1.34-2.16 1.83-3.1.55-.95 1.36-1.86 2.28-2.74.46-.45.95-.87 1.47-1.33l.37-.33c.12-.1.25-.2.38-.28l.88-.58c.48-.4 1.34-1 2.15-1.6.8-.6 1.58-1.25 1.9-1.55.02 0 .1-.07.22-.15.1-.06.3-.2.35-.2.08-.03.18-.07.26-.02.08.06.08.17.07.25-.02.12-.05.24-.1.35-.05.14-.1.23-.12.26s-.01-.01.03-.14c.02-.06.04-.15.07-.26.03-.1.03-.15.02-.2.01-.06-.04-.16-.03-.17-.04 0-.1.03-.1.06.06.02.05.1.04.14-.01.03-.02.07-.08.25-.05.15-.1.3-.2.43-.07.15-.14.25-.23.4l-.34.46c-.25.36-.36.5-.78 1.18-.36.58-.7 1.2-.75 1.6-.02.2-.01.36.04.5.03.07.05.15.15.24.08.06.1.06.17.08.1.02.26.07.48.04.3-.07.56-.12.9-.3.35-.16.65-.27.94-.38l.67-.25c-.3.1-.6.2-.88.32-.33.1-.76.3-1.02.4-.5.13-.62.15.01-.05.85-.37 1.6-.63 2-.77l1.42-.53-.57.28c1.42-.53 2.83-1.04 4.24-1.78-.2.08-.4.16-.62.23a16.85 16.85 0 0 0 1.33-.7l1.02-.57c.67-.34 1.38-.76 2.4-1.18.45-.16.03-.08-.3.02-.33.13-.52.13.47-.2.15-.04.3-.06.44-.06.1 0 .14.01.2.06a.54.54 0 0 1 .1.2c.01.05.02.1.02.18 0 .1-.05.34-.13.53l.13.2-8.8 5.18c-.3.2-.3.5-.2.7.1.1.2.2.4.2h.3l9-5.3c.02 0 .03 0 .03.01a2.32 2.32 0 0 1 .46-.07c.12.01.12.02.18.03a.53.53 0 0 1 .21.11c.13.1.2.25.22.45s-.04.45-.15.7c-.06.14-.12.27-.2.4-.02.03-.1.2-.2.33-.02.03-.05.06-.07.1-.13-.04-.27-.03-.4.03l-7.1 4.5c-.3.2-.3.5-.2.7.1.1.2.2.4.2.1 0 .2-.1.3 0l7-4.44c.07.1.17.24.32.54.15.03.33.06.43.12.03.02.05.03.06.05.03.03.03.04.04.07.01.06.02.22-.08.43.1-.08.1.06.01.27h-.03zM239.4 97.57h0l.23-.01-.23.01z"/><g fill="#fff"><path d="M227.9 160.1v-.1c-.01.01-.02.04 0 .1zm-8.78-18.13c-.01 0-.01-.01-.02-.01.01.01.01.01.02.01zm8.48 14.83h0z"/><path d="M229.3 160.5c-.43-.98-.4-1.3-.94-2.27-.22-.48-.5-.97-.74-1.42-.22-.16-.3-.6-.52-.82v-.13c-.08-.07-.15-.17-.16-.28h.02c-.1-.1-.16-.28-.2-.33h.02l-.1-.16h.04c-.16-.2-.28-.45-.36-.67l-.07.06c-.13-.5-.37-.58-.47-1.04h.02c-.46-.42-.25-.9-.7-1.32.06.05.03-.05.05-.05-.14-.23-.28-.5-.44-.42-.08-.18-.02-.17.03-.22-.07.03-.17-.1-.24-.25l.06.05-.22-.4-.1.14c-.07-.23.13-.13 0-.32l-.1.05c-.12-.3-.04-.55-.1-.88-.53-1.2-1.4-2.34-1.75-3.53l.06-.1c.1-.08-.32-.22-.23-.3l-.1-.1c0-.05-.01-.13.05-.08-.05-.12-.07-.1-.15-.18l.01-.16c-.17-.5-.5-.82-.7-1.33-.14-.66-.8-1.7-1.2-2.3-.6-.82-.65-2.08-1.3-2.9 0-.04-.07-.1-.1-.1l-.4-.85s-1.93-4.1-1.4-.54l-.04-.01c.16.5.3.8.57 1.04-.13.13.17.4.17.52h-.02c.26.22.18.63.42.85-.02 0-.06.01-.1-.05.12.2.28.44.2.5.25.46.53 1.14.82 1.37l-.03-.01c.18.13.12.22.26.38-.01.02-.01.03-.01.03.2.14.28.54.4.67l-.06.04.2.37-.05-.15c.2-.03.03.33.27.55.1.26.6.35.64.65.14.1-.18-.05-.03.1-.08.05-.1-.06-.14.02.13.16.06.34.23.54l-.06.04c.27.24.18.6.4.74.2.28-.1.3.2.56l-.03.17c.05.14.16.04.2.22-.06.02.05.2-.05.15.08.4.46.63.53 1.16.16.04.2.3.32.34-.04.04.2.46-.02.25-.02-.02-.04-.06-.02-.06h-.08c0 .32.3.43.4.7-.01-.1-.07-.18.01-.14l.1.24-.08-.02.14.37.05-.08c.05.2-.04.3.15.45.1.06.01-.2.12-.04.06.25.16.63.28.94.06-.06.1.02.15.1l-.06.04c.24.27-.1.2.13.46h-.06l.18.01c.27.2-.07.22.27.44-.07-.12.12-.13.16.04l-.08-.01c.05.08.1.1.1.15-.06-.03-.1.02-.04.14l-.12-.04.23.17c.02.2.24.46.2.57 0 0 .14.4.28.45-.1-.05-.02.18-.12.15.12.07.32.33.3.5h-.02c.13.47.47.7.56 1.13.07-.06.13.17.2.07.3.36.16.84.53.84.1.18.03.25.06.36l-.04-.04.36.7c.1.1.24.06.32.3-.1-.05-.04.04 0 .13-.04-.05-.06-.06-.05.07.03.01.05.03.07.05h-.01c.1.13.1.1.07.03.01 0 .02-.01.02-.04 0 .18.2.4.12.48.23.42.48.68.7 1.02-.03.06-.12 0-.2-.1l.14.25c-.07.03-.1-.13-.16-.2.03.36.42.57.48.98l.1.05v.03c.03-.02.1.04.15.1-.04.08-.15.07-.06.24.01.17.22.38.34.55-.04-.1.01-.1.06-.06.04.1.01.17.07.22l-.08.05c.06-.07.2.2.25.2-.04.08-.12-.1-.18-.1l.27.52c.16.16.06-.07.18-.02.1.16.23.3.28.5l.05-.1c.2.28.3.48.32.72 1.74 2.03 1.08.08 1.08.08-.3-1-.74-1.36-1.33-2.43h0zm-25.86-13.4l.06-.1c-.02-.01-.04.02-.06.1zm6.56-28.13v-.03.03zM205.52 143h0v.04-.04z"/><path d="M204.22 148.67c.35-1.48.6-1.85.86-3.4l.44-2.25c-.05-.37.2-.95.2-1.37l.1-.14c0-.15.01-.32.08-.45v.01c-.01-.22.08-.45.07-.56h.02l.05-.25.02.05c.02-.38.1-.75.2-1.07l-.1.01c.25-.68.13-.98.4-1.6l.02.01c-.04-.85.44-1.23.42-2.1 0 .1.05-.03.07-.02.06-.4.15-.8-.02-.84.07-.28.1-.2.18-.23-.07-.02-.05-.26 0-.48v.1l.12-.63-.17.1c.12-.32.2-.04.23-.37l-.12-.02c.13-.45.37-.67.56-1.1.5-1.8.7-3.85 1.3-5.5l.1-.05c.13 0-.07-.52.06-.55v-.2c.04-.05.1-.16.1-.06.05-.18.03-.2.02-.33l.13-.18c.24-.7.24-1.36.45-2.1.38-.87.65-2.63.8-3.64.15-1.44 1.04-2.94 1.18-4.4.03-.04.02-.17 0-.17l.33-1.3s1.6-6.3-.62-1.75l-.02-.04c-.24.7-.36 1.14-.35 1.67-.2.04-.16.58-.25.74h-.01c.02.47-.33.87-.3 1.32-.01-.02-.05-.04-.03-.14-.05.3-.12.74-.22.74-.15.74-.45 1.74-.4 2.25v-.04c.04.3-.07.35-.1.66-.02.01-.03.03-.03.03.03.32-.2.85-.2 1.1h-.07l-.13.58.07-.2c.16.12-.22.4-.2.86-.12.4.18.9-.01 1.27.04.2-.1-.2-.1.1-.1-.01-.03-.15-.12-.1-.03.3-.2.44-.23.8h-.08c.02.5-.3.84-.25 1.18-.06.5-.3.26-.27.8l-.14.17c-.07.2.08.18-.02.4-.06-.03-.12.28-.15.13-.23.5-.12 1.1-.46 1.76.08.18-.07.5-.01.65-.06.01-.18.7-.2.28 0-.04.02-.1.03-.1l-.06-.06c-.23.36-.1.74-.22 1.13.05-.1.08-.27.1-.15l-.1.36-.04-.1-.17.54.1-.06c-.1.26-.25.32-.22.65.03.15.16-.23.12.06l-.48 1.3c.1-.02.06.1.05.23h-.08c-.01.5-.2.14-.24.64l-.04-.05.12.16c.04.47-.2.2-.12.73.03-.2.18-.05.1.18l-.06-.08c-.02.13 0 .18-.03.27-.02-.1-.1-.06-.12.13l-.06-.15.04.4c-.14.26-.15.72-.27.82 0 0-.2.6-.1.75-.04-.14-.14.2-.2.08.04.17 0 .65-.13.8v-.04c-.24.66-.15 1.2-.4 1.78.1-.01-.03.3.1.25-.04.65-.48 1.1-.2 1.4-.05.3-.15.32-.2.47v-.07l-.22 1.1c-.01.2.14.27.02.62-.04-.13-.06.02-.1.15.01-.1-.01-.12-.1.05.01.04.02.07.02.1-.01 0-.01.01-.02 0-.03.23 0 .2.03.1.01.01.02 0 .05-.03-.13.2-.14.65-.25.65-.12.68-.1 1.18-.2 1.75-.07.05-.1-.1-.08-.26l-.06.4c-.08-.02 0-.24.01-.36-.23.45-.08 1-.3 1.53l.04.13-.02.03c.03.01.05.14.04.22-.08.06-.16-.04-.2.24-.1.2-.1.62-.12.92.04-.15.07-.1.08-.02-.03.14-.1.2-.1.3h-.1c.1-.04.02.38.05.44-.08.06-.01-.23-.06-.27l-.16.83c.01.3.1-.04.15.12-.04.26-.02.53-.14.82l.1-.08c-.04.5-.1.8-.26 1.1-.07 3.77.76.95.76.95.53-1.43.45-2.2.74-3.93l-.02-.02zm32.68 19.03c.83-.36 1.5-.77 2.57-1.58l-.3.02c.74-.36 1.26-.82 1.84-1.22.25-.32-.57.16.05-.37l1.9-1.23c-.03.12-.7.54-.47.52.08-.13 1.02-.74.82-.8l.12.1c.22-.2.46-.2.77-.42.13-.13.2-.26-.15-.05.62-.47 1.45-1.2 2-1.42.63-.4.52-.16.76-.17.18-.14.42-.38.4-.43l.1-.03.2-.26c1.38-.64 2.3-1.74 3.5-2.25-.27.2-.8.48-.75.6l.9-.6c-.35.27-.6.53-.42.52l3.78-2.76c.16.1 1.04-.62 1.64-.84-.1.02-.12.02-.12 0-.25.14-.35.17.14-.2 0 .01.02.01.02.01l.2-.2c.44-.2.4-.13.2.01.3-.2.63-.43.42-.17.86-.47.8-.74 1.22-1.08l2.5-1.64-.14.13c.36-.2.57-.13 1.2-.58.22-.82 1.72-1.1 3.07-2.2-.28-.04.5-.45.36-.53 1.5-.75 2.43-1.74 4.07-2.62l-.07.06c.5-.15 1.5-.92 1.8-1.25-.14.25.64-.2.43.08.22-.36 1.64-1.17 1.64-1.17.35-.03 1.3-.8 2-1.1l.7-.72-.2.3c.47-.33.43-.17.43-.1.1-.03.1-.1.18-.17l.06.1c.32-.14-.01-.28-.1-.2-.01-.05-.02-.07-.03-.1-.25-.15.25-.03-.22-.37l-.27-.1-.14-.05.14.05c-.83-1.03 0-.57-.86-1.6l.08-.1c-.2-.27-.4-.56-.45-.38l-.24-.4-.05-.1h-.01v-.05l-.08-.24-.2.04c-.05.02-.05 0-.16.05l-.36.18c-.64.44.3-.06.04.22-.6.6-.94.54-1.6.87h.24l-1.3.74.12-.2-.86.5c-.2.22.16-.01.45-.15-.94.54-1.5 1.3-2.56 1.7l.05-.17c.01.04.15-.05.22-.1.82-.74-.74.32-.83.27-.18.3-1.07.7-1.3 1.1-1.78.77-2.84 1.9-4.16 2.52.27-.28-.45.18-.47.07-.6.27-.33.38-.83.66l-.54.13c-1.02.92-.9.3-1.96 1.06-.6.63-1.76.88-2.7 1.74l-.1-.1c-.77.6-1.32.66-1.94 1.14-.24 0 .13-.16.02-.28-.62.5.04-.33-.34.07-1.03.46-1.62 1.62-2.55 2.15-.87.77-1.98.88-2 1.24l.52-.3-1.34.86-.1-.07c-.5.4-1.9 1.08-2.47 1.65 0-.01-.05.01-.1.01-.65.5-.9.5-1.44 1.03l.05-.1c-.95.9-3.37 2.3-5.05 3.4-.14-.1-1.08.55-1.78 1.02.22-.14.2-.22.23-.27-.88.78-2.17 1.1-3.06 1.9l.02-.04c-.44.16-1.5 1.12-1.82.98l-1 .8a1.7 1.7 0 0 1-.39.27c.05.08.1.17.14.27l.08.18.26.46-.1-.05 1.67 4.05.32.5 2.2-1.4 1.66-1.32-.02.06zm-45.23-18.82c.8.9 1.98 3.18 2.9 4.76-.12.13.45 1.02.85 1.68-.12-.2-.2-.2-.24-.22.7.83.9 2.04 1.62 2.9l-.04-.02c.12.4.97 1.4.8 1.72l.26.32.13.12a1.59 1.59 0 0 1 .2.24 2.21 2.21 0 0 1 .34-.18l.98-.5-.05.08.9-.35 1-4.82c-.02-.02-.03-.04-.05-.06-.28-.78-.63-1.42-1.33-2.42v.27c-.3-.7-.7-1.2-1.05-1.73-.3-.24.1.53-.36-.05l-1.04-1.78c.12.03.47.67.47.44-.12-.08-.64-.97-.7-.77l.12-.1c-.18-.2-.17-.43-.35-.73-.12-.12-.23-.2-.06.14-.4-.58-1.05-1.37-1.22-1.9-.35-.6-.1-.5-.1-.7-.12-.17-.34-.4-.4-.37l-.03-.08-.23-.2c-.52-1.3-1.52-2.17-1.92-3.3.18.25.4.77.53.7l-.52-.84c.23.33.47.58.47.4l-2.4-3.56c.12-.15-.52-.98-.7-1.55.01.08.01.1-.01.1.12.23.14.33-.17-.13.01 0 .01-.02.02-.02-.06-.07-.12-.14-.18-.18-.16-.42-.1-.38.03-.2-.17-.3-.37-.6-.13-.4-.4-.8-.66-.74-.96-1.15l-1.4-2.36.1.13c-.16-.34-.08-.53-.47-1.14-.78-.2-.94-1.62-1.9-2.9-.06.26-.4-.47-.48-.34-.6-1.4-1.5-2.3-2.23-3.84l.06.07c-.1-.47-.77-1.4-1.08-1.7.23.14-.14-.6.1-.4-.33-.2-1-1.55-1-1.55 0-.33-.7-1.2-.92-1.88l-.16-.17c-.03-.01-.05-.02-.08-.02-.05-.01-.1 0-.12.01.04-.03.08-.05.14-.06-.07-.08-.03-.23.04-.24-.03-.1-.08-.08-.14-.14h0c.02-.04.05-.07.07-.1-.01-.03-.02-.05-.03-.06-.2.12-.23.42-.13.34-.15.28-.13.22-.2.2-.04 0-.01-.06-.13 0a3.1 3.1 0 0 0-.46.35l-.1.26c-.97.73-.53-.05-1.5.72l-.1-.1c-.26.2-.53.34-.36.4l-.34.18h-.08l-.22.06c0 .05.01.12.02.2l.02.12.14.33c.38.6-.03-.3.22-.04.53.57.45.88.72 1.5l.02-.23.6 1.23-.18-.12.43.8c.2.2 0-.15-.1-.43.45.88 1.16 1.42 1.44 2.4l-.16-.04c.04-.01-.03-.14-.1-.2-.65-.77.25.7.2.78.27.17.6 1 .96 1.24.6 1.67 1.62 2.68 2.12 3.92-.26-.25.14.42.03.44.2.55.35.3.58.8l.1.5c.8.97.2.85.88 1.84.56.57.72 1.65 1.48 2.55l-.1.1c.52.72.54 1.24.95 1.83-.02.23-.15-.12-.27-.02.45.6-.32-.04.04.32.37.97 1.45 1.53 1.9 2.4.7.83.7 1.87 1.05 1.88l-.24-.5.73 1.26-.08.1c.35.48.9 1.78 1.4 2.33-.01 0 0 .05 0 .1.44.6.4.86.9 1.36l-.07-.06.12.02zm78.8 54.52l-.1-.96-.05-.38-.42.02-3.08.03h-1.94l-5.15-.03c-.2.05-.43.07-.65.06-5.63.37-12.03-.5-17.53-.17-3.9.15-10.7.4-14.3.12-3-.05-5.43.2-8.3.1l-.78-.13c-.52.06-.54.1-1.26.1.4-.05-.07-.1-.3-.13l-.78.1c-.26-.2-1.98.33-2.1.12l-.3-.15c-3.1-.16-6.4-.14-9.8-.08l-5.1.1-4.24.06-.17.88c-.23.84-.46 1.5-.68 2.2l-.32 1.04a4.76 4.76 0 0 0-.2.74l.23-.15c-.01.07-.01.13-.02.17.3.01-.2.18.47.24-.07-.06-.12-.15-.15-.24l1.96-.04-.4.05c.85-.01 1.8-.05 1.8-.18.14.1-.06.2 1.03.2.02-.3 1.63-.3 3.13-.34-.03.04.55.07.14.1 3.26-.36 5.1.3 8.27-.08l-.03.04c2.5.2 3.52-.1 6.3.07l-.1-.15c1.4.05 2.8.04 4.2-.05l-.17.05h1l-.03.04c.4-.04 1.33.01 2.15-.08l-.03.03c.55.07 1.2.03 1.74-.03l.62.12c1.6-.17 3.97.04 5.3-.17l8.83-.05c6.08-.1 7.63.18 13.5.27 6.67-.1 9.57-.5 15.17-.17 0 0 1.9.08 3.14.24-.08-.43-.16-.96-.24-1.56-.1-.6-.17-1.25-.26-1.95v-.02zm.76 4.57c-.02-.03-.04-.06-.05-.1-.03-.07-.06-.2-.1-.3-.64.12-1.66.25-3.18.4h3.33zm.3-.5a2.04 2.04 0 0 1-.13.5h.25l-.04-.53c-.03.01-.06.01-.08.02zM218.88 99.62l.13-.04c-.01-.02-.05-.01-.13.04zm31.46 3.42c.01 0 .02.01.03.01-.02-.01-.03-.01-.03-.01zm-26.42-4.67h0l-.03.02z"/><path d="M218.26 101.43c.7-.5 1.14-.8 1.62-1.05l.74-.43.97-.54c.36-.2.77-.36 1.16-.55l1.17-.5c.33-.23 1-.38 1.44-.57l.2.03c.15-.07.32-.14.5-.14v.02c.22-.1.5-.14.6-.2l-.01.02c.1-.02.2-.06.28-.07l-.04.04c.4-.12.83-.2 1.2-.22l-.04-.08c.8-.04 1.1-.22 1.84-.15l-.01.02c.46-.14.83-.13 1.2-.1.37.05.74.1 1.22.02-.12.02.05.05.04.07.44-.01.9 0 .93-.17.32.01.26.06.3.13 0-.07.3-.12.54-.07l-.12.01.72.08-.12-.16c.38.1.08.2.44.2l.01-.12c.52.1.8.32 1.3.48l3.17.73 1.53.52.73.28.66.37.04.12c-.02.13.57.06.6.2l.23.04c.05.05.16.13.05.1.2.1.2.08.36.1l.17.17c.7.45 1.4.68 2.16 1.14.82.7 2.56 1.7 3.52 2.36.72.4 1.32 1.07 1.96 1.7.6.66 1.22 1.3 1.87 1.82.03.05.15.12.16.1l1.04 1.12 2.03 2.2c.4.42.7.68.76.52s-.12-.77-.84-2.05h.05c-.5-.7-.86-1.1-1.36-1.45.07-.2-.46-.53-.57-.7h.02c-.46-.28-.67-.85-1.12-1.1.02 0 .06-.02.15.05-.28-.24-.68-.55-.63-.64-.65-.6-1.57-1.4-2.1-1.65h.05c-.32-.12-.32-.26-.64-.43l-.02-.04c-.34-.13-.82-.6-1.07-.73l.03-.06-.56-.4.2.17c-.17.1-.36-.4-.85-.58-.38-.28-1-.2-1.36-.55-.24-.06.24-.01-.08-.14.04-.1.17.04.13-.08-.3-.15-.43-.37-.83-.52l.02-.07c-.55-.15-.86-.6-1.24-.67-.52-.23-.24-.37-.84-.5l-.17-.2c-.22-.12-.22.03-.45-.13.04-.05-.3-.2-.13-.18-.27-.18-.58-.3-.9-.4-.33-.1-.7-.2-1.06-.44-.22.05-.6-.16-.75-.12 0-.06-.8-.3-.3-.25.04.01.1.03.1.05l.08-.05c-.4-.3-.85-.23-1.3-.35.13.06.3.1.18.12l-.43-.12.1-.04-.63-.2.07.1c-.3-.12-.38-.27-.76-.26-.17.02.27.18-.06.1-.4-.18-1.03-.36-1.57-.46.04.1-.1.07-.26.06l-.01-.08c-.6.02-.2-.2-.78-.2l.06-.04-.17.13c-.54.08-.26-.2-.86-.06.23 0 .1.17-.2.13l.08-.07c-.16.01-.2.04-.32.02.1-.04.06-.1-.17-.1l.16-.08-.45.12c-.33-.1-.87-.01-1-.12 0 0-.73-.08-.9.03.14-.07-.26-.1-.14-.17-.2.1-.74.2-.97.12l.04-.01c-.83-.04-1.4.2-2.14.22.05.08-.35.1-.24.2-.37.1-.72.1-1 .13-.3.04-.5.1-.6.3-.33.1-.42.02-.6.04l.08-.04-1.27.38c-.22.1-.2.27-.62.37.1-.1-.05-.04-.2.02.1-.04.12-.07-.1-.05-.02.03-.06.05-.1.08-.26.1-.2.1-.08.07 0 .01.01.02.05.02-.3.01-.7.3-.8.22-.37.17-.67.35-.96.5l-.82.55c-.1-.01.02-.13.18-.24l-.4.25c-.04-.07.22-.17.34-.26-.28.08-.53.25-.78.43-.24.2-.5.4-.8.53l-.08.13h-.04c.02.03-.08.15-.16.2-.12-.01-.1-.14-.35.06-.25.1-.57.48-.82.7.15-.1.13-.04.08.03-.13.1-.24.12-.32.22l-.07-.06c.1.03-.26.36-.28.43-.12.01.15-.2.15-.28-.5.45-.26.2-.73.68-.2.3.1.02.05.2-.2.24-.38.48-.66.7l.14-.03c-.34.48-.58.72-.88.98-1.05 1.93-.77 2.26-.54 2.05.25-.16.75-.8.75-.8 1.08-1.2 1.45-1.98 2.88-3.3z"/></g></svg>