<svg xmlns="http://www.w3.org/2000/svg" viewBox="0 0 480 480" xmlns:v="https://vecta.io/nano"><path d="M342.97 158.94c-.01-.08-.02-.17-.05-.26-.2-.5-.5-.73-.9-.8-.1-.4 1-.7 1-1.3v-1.02c-.03-.54-.13-1.02-.5-1.08a1.45 1.45 0 0 0-.93-.35.66.66 0 0 1-.3-.7c.3-.33.46-.7.42-1.14.07-.22.1-.42.02-.6-.5-1-1.5-1.2-1.7-1.2l-5.3 1.3c-.9.4.8-1.7 1.9-2.9 1.2-1.4 1.4-3.5-1.2-1.8s-5 2.7-5.7 3.3c-.7.5-3.4 2.3-4.7 4.1-.9 1.2-1.5 3.1-4.8 4.2-5.4 1.6-25.5 3.9-35.3 5-4.7.7-5.4 22.8 8.1 18.2 18.8-6.4 36.4-14.8 36.4-14.8s7.1-.3 12.9-5.3c.5-.3.6-1.4.8-2.4.03-.17-.04-.3-.15-.45h-.01zm-81.95-18.44c-.8-4.2-2.4-8.5-4.2-12.9-7.4-17.7-18.3-27.3-33.2-26.6-3.6.1-15 .3-21.4 26.6-.8 3.4-15.4 81.4-15.4 81.4h79.3c-.1-.1-4.9-67.6-5.1-68.5zm-115.8 40.4c-5.9 19-9.4 38.1-9.4 38.1s-4 5.9-3.2 13.6c-.1.6.7 1.3 1.5 2.1.4.5.6 1.1 1.2 1.4.4.2.6-.1 1.1.2.6.4 1.4 1.1 2.1 1.1 2.1-.1 1.8.5 2.7.7 1.1.2 1.9-.5 1.9-.7.9-2.1 1.8-4 2-5s.9 1.6 1.2 3.3c.4 1.8 2 3.2 2.1.1s.7-5.7.7-6.5.1-4.1-.6-6.2c-.5-1.4-1.6-3.1-.6-6.4 1.9-5.3 11.8-22.9 16.6-31.5 2.4-4.5-15.1-18-19.3-4.3h0z" fill="#fff"/><path d="M343.77 155.05c-.03-.24-.1-.48-.2-.7-.07-.14-.18-.3-.35-.42a1 1 0 0 0-.28-.17l-.02-.01c.08.05-.22-.17-.4-.24l-.15-.06-.07-.02.06-.12.08-.2c.05-.15.08-.3.1-.45.01-.08.01-.15.01-.23v-.03l-.01.03.02-.07c.02-.1.04-.18.04-.26.02-.17 0-.35-.04-.52-.03-.15-.16-.36-.22-.46l-.2-.3a2.95 2.95 0 0 0-1.14-.87c-.25-.1-.4-.16-.77-.22-.17-.03-.36 0-.5.05l-.26.07-1.1.27-1.16.3-.8.2-.08.03-.26.1c-.07.05-.1-.02-.05-.06l.07-.13.72-.82.6-.7a4.35 4.35 0 0 0 .48-.8 3.13 3.13 0 0 0 .3-1.12c.02-.43-.12-.82-.4-1.08-.3-.26-.7-.3-1.1-.28-.2.04-.4.1-.6.16-.17.06-.26.1-.4.17-.25.1-.45.25-.67.37l-.58.36-1.26.73-3.26 1.8c-.2.13-.4.24-.66.45l.05-.04c-1.06.73-2.17 1.55-3.18 2.47-.5.47-1 .96-1.44 1.52-.45.56-.78 1.17-1.1 1.65-.36.65-.87 1.22-1.48 1.64-.67.5-1.5.83-2.17 1.1l-.57.07c-.47.17-1.08.3-1.6.4l.03-.03-1.38.3-.32-1.05-.44-1.48c-.05-.2-.15-.54-.26-.74a4.68 4.68 0 0 0-.3-.54s-.23-.35-.76-.7c-.68-.44-1.5-.6-2.3-.44l-2.9.65c.82-.26-1.5.1-.86-.15-1.06.32-4.26.98-5.57 1.06l.24-.06c-4.8.65-8.12 1.52-12.43 1.97.22.12-2.06.35-1.47.46-4.42.8-8.13.62-9.68 1.3-2.06.17-2.33.05-3.1-.23.12.02.23.08.36.08-.72-.14-1.23-.53-1.63-.94-.4-.4-.7-.86-.98-1.3-.53-.9-.92-1.77-1.42-3.06-.55-1.28-.88-1.4-1.63-3.83.36.74.01-.23-.3-1.13.2.57.3.74-.02-.47-.1-.16-.2-.4-.3-.64 0-.01-.01-.06.01-.04-.54-1.5-.5-1.22-.26-.52-.03-.03-.03.04.02.26-.4-1.6-1.5-4.36-1.4-4.6-1.67-4.5-3.2-7.6-4.97-11.17-.1-.45.37.36.9 1.4l-1.26-2.54c.13-.04.8 1.43 1.18 2.2-1.24-3.16-3.28-6.15-5.14-9.65l-.52-.65-.1-.2c-.02.02-.17-.15-.35-.4l-.36-.93c-.63-1.27-1.17-2.6-1.95-3.8-2.8-5-7.22-9.15-12.1-11.55-.3-.2-1.14-.55-1.15-.5-.75-.37-1.52-.7-2.3-1-.48-.16-.94-.32-1.43-.45-1-.82-2-1.5-2.95-2.14-2.2-1.36-4.35-2.26-6.6-2.74-.3-.07-.63-.1-.95-.16-.7-.37-1.43-.72-2.27-1l.26.02c-2.7-.86-5.02-1-7.06-.96-2.04.08-3.85.34-5.7.8-.65-.2-4.4.85-5.65 1.2l.1-.06c-3.14 1.17-6.55 2.2-9.3 3.9.1-.08.12-.18.77-.54-2.08 1.1-4.77 2.83-5 2.8-2.36 1.5-5.07 3.47-7.48 5.4-2.4 1.95-4.5 3.86-5.7 5.16l.15-.2c-1.35 1.52-1.93 1.78-3.47 3.44-.1.07-.23.17-.2.15h0c-.73.83-1.87 1.97-2.94 3.1-1.1 1.1-2.13 2.2-2.7 2.87l-.16.01-2.93 3.26 1.1-1.2c-.14.64-2.37 2.33-4.28 4.88-1.96 2.24-3.38 5.03-5.37 7.38-.78 1.26.6-1.17-.64.65-.17-.04.54-.88.1-.5-1.25 1.77-2.26 2.75-3.68 5l-.17.02c-1.77 3-3.72 5.44-4.7 7.56-1.7 3.17-1.54 1.9-3.1 5.3l-.83 1.2c-.75 1.4-.34 1.12-1.22 2.66-.06-.15-1.06 1.98-.7 1-1.94 3.54-3.3 7.45-5.64 12.2-.26 1.14-1.36 3.57-1.5 4.44-.16.1-1.83 5.03-1 2.13.07-.25.23-.68.25-.64v-.38c-1.26 2.77-1.7 5.24-2.57 8.1.27-.85.63-1.98.47-1.2-.28.88-.53 1.78-.8 2.67l.06-.6a91.7 91.7 0 0 0-1.1 4.02l.26-.53c-.53 1.97-.9 2.63-1.13 4.93-.08 1.04.5-1.87.17.25l-.4 2.24-.2 1.27-.08.66-.04.34c-.01.15-.02.3-.01.48.03.65.27 1.33.7 1.85a3.38 3.38 0 0 0 1.65 1.1l2.55.73c-.13-.1.02-.1.3-.05-.33 1.35-.67 2.87-1.1 4.97l-.84 4.03-.73 3.87a.43.43 0 0 1-.07.1c-.62 1.2-1.7 3.28-2.05 4.82l-.24.56c-.13.53-.24 1.15-.4 1.67v-.04c-.1.8-.3 1.7-.3 2.1l-.02-.04a8.11 8.11 0 0 0-.09.98l-.02-.17c-.08 1.34-.01 2.72.06 3.95l.01-.18c-.02.12-.02.24-.01.36.02-.07.04-.13.08-.2-.01.48.18.77.3 1a3.45 3.45 0 0 0 .45.56c.3.32.55.56.8.8.34.27.55 1.08 1.46 1.58.33.2.93.1.9.13.03.01.08.03.13.06.1.08.2.16.32.24h-.04c.6.35 1.14.8 2 .9.06 0 .1.01.17 0h.3c.13.01.27 0 .4.02.25.02.48.06.65.14.16.05.28.2.66.42.35.18.73.26 1.12.25s.77-.1 1.12-.28c.2-.1.34-.2.54-.38.22-.2.34-.46.37-.75.08-.05.17-.32.25-.55-.13.37.1-.13.1-.1a32.61 32.61 0 0 0 .76-1.9c.1-.27.15-.45.14-.5 0-.07 0-.15-.03-.2.18-.48.15-.3.2-.2a1.31 1.31 0 0 1 .04-.4c.06-.1.12.03.15.08.04.07.07.16.1.25l-.07-.1c.06.15.1.3.16.48l.08.3.13.56.04-.47c.1.6.08.7.06.77 0 .1-.07.1.13.77l.1-.05c.15.46.27.8.56 1.2s.7.77 1.17.7c.48-.07.78-.5.95-1.04.15-.47.2-.88.24-1.3.07-1.7.3-3.4.54-5.16.05-.43.14-.9.12-1.4l-.02-1.34c-.03-.9-.08-1.8-.2-2.7s-.3-1.82-.68-2.67c-.35-.8-.63-1.56-.73-2.35-.22-1.6.23-3.15.94-4.55l.2-.22c.16-.06.55-1.68.77-1.85l.27-.7c.1-.18.33-.56.2-.22.3-.62.3-.64.48-1.1l.4-.63.68-1.33c.1.03.2.05.3.1-.58-.1-.34.1 1.05.44l-.97-.1 2.68.5.8.25c.3.1.5.16 1 .27.92.15 1.85-.13 2.54-.76a3.12 3.12 0 0 0 .73-1.03c.1-.25.22-.48.32-.7.2-.42.37-.74.5-.92l1.02-2.14c.53-1.13 1.12-2.37 1.27-2.87-.3.85.85-1.33.65-.64.4-1.1 1.92-4.17 2.72-5.3l-.1.23c2.6-4.35 4.2-7.6 6.88-11.3-.24.1 1.2-1.84.7-1.46 2.52-4 5.43-6.6 6.14-8.22 1.15-1.35 1.66-1.67 2.23-2.2-.7 2.55-1.38 5.18-2 8.5.17-.92-.17.37-.18.3-.77 3.38-1.6 6.98-1.33 7.1-.58 2.46-.55 1.98-.74 2.28.12.01-.32 2.16-.76 4.08l.16-.9-1.23 5.5.48-1.03c-.73 2.9-.45.68-1.03 3.48h.2c-.96 4.03-1.8 6.33-2.8 10.2l-5.42 25-2.1 10.03c-.07.3-.1.77.01 1.12a2.53 2.53 0 0 0 1.39 1.7c.33.17.8.23 1.08.22l.77.01 1.53.03 3.03.07 5.92.2.68.16c.3.22 4.28-.25 4.87-.04l1.8-.07c.5.05 1.57.1.68.14 1.67.03 1.7 0 2.9-.05l1.8.16c6.58.2 12.17.04 19.1.2 2.1.1 4.72 0 7.52-.37s5.85-1.07 8.78-2.3c1.44-.66 2.9-1.4 4.13-2.46.66-.47 1.18-1.12 1.73-1.7.44-.68.97-1.3 1.24-2.06.15-.36.34-.73.44-1.08l.3-1.03.55-1.98c.3-1.3.53-2.5.76-3.63 1.12-6.3 2.07-13.1 2.9-19.95.82-6.86 1.5-13.77 1.76-20.26a9.25 9.25 0 0 0 .05-.91c.01-.33 0-.6-.01-.6l.78-11.86.47-8.3.68-15c.16-4.46.2-7.56-.08-6.82-.1.23-.22.87-.38 1.96l.13-1.98.6-8.56-.08 7.75c.04 2.2.2 2.05.42.87.42-2.35.96-8.8.96-8.8.56-6.45.8-11.36.75-16.6-.03-2.63-.14-5.34-.45-8.37-.35-2.73-.74-5.8-2.18-9.12.88.74 2 1.8 3.18 3.06 2.54 2.72 5.13 6.58 6.58 9.8 1.5 3.2 2.17 5.6 2.28 4.95.01-.16-.02-.5-.12-1.08l-.1-.54a31.45 31.45 0 0 1 .46 1.55c.57 2.1 1.13 4.57 1.66 7.3l-.64-2.52-1.3-4c-.6-1.66-.76-1.5-.62-.53.1.96.43 2.7.73 4.2.16.74.25 1.45.35 1.96l.75 4.45.5 3.32 1 6.2 1.03 6.6 1.1 8.1 2.26 25.03 1.44 16.38c.42 2.48.54 6.9.94 9.86l-.03 1.16c.14 1 .27 2.2.28 3.24l-.04-.06c.2 1.52.28 3.24.38 4l-.04-.06.15 1.85-.07-.3c.28 2.6.5 5.2.63 7.8l.13-.2c.13 2.6.23 4.3.53 6.1.35 1.74.7 3.44 1.77 5.7l-.06-.04c.8 1.37 1.73 2.47 2.68 3.4.96.94 2 1.7 3.14 2.28s2.37 1.02 3.8 1.15c.78.05 1.35.02 2.06.01l2.4-.1c-1.3.05.57.07.5.1l.93-.01h.8c.04 0 .08.01.06-.05l-.34-1.8-.27-1.38-.2-.87c-.24-1.08-.45-1.8-.6-1.8-.36-2-.2-1.65-.15-1.93-.12.03-.5-1.7-.78-3.27l.18.7-.86-4.48-.07.92c-.37-2.4.17-.66-.3-2.93l-.2.06c-.57-3.3-.63-5.3-1.08-8.5-1.56-8.74-3.47-17.84-5.18-26.6.36-.1.8-.2 1.38-.37l1.38-.12c1.5-.3 1.02-.42 2.67-.72-.08.13 2.08-.4 1.15-.08 3.75-.7 7.44-2.06 12.33-3.17.98-.5 3.44-1.1 4.16-1.52.16.05 4.8-1.55 2.18-.48-.23.1-.64.22-.62.18l-.3.22c2.8-.66 4.9-1.8 7.56-2.74-.8.25-1.85.65-1.18.3a73.28 73.28 0 0 0 2.47-.92l-.47.3 3.66-1.43-.55.1c1.8-.68 2.5-.77 4.4-1.86.84-.5-1.72.63.1-.28 1.18-.5 2.64-1.2 4.16-2a20.81 20.81 0 0 0 1.14-.63l.6-.34a2.98 2.98 0 0 0 .74-.63c.42-.5.7-1.1.76-1.76.03-.33.02-.66-.05-.98a13.49 13.49 0 0 0-.2-.68c-.05.33-.3-.5-.6-1.36l.1-.14c-1.13-3.15-.17-1.42-1.14-4.26 2.83-1.14 5.68-2.32 8.24-3.65.17-.06.57-.3.56-.3l.2-.1.5-.04.6-.07 1.17-.2c.78-.15 1.54-.33 2.3-.55 0 0 1.44-.38 3.22-1.2 1.8-.8 3.87-2.12 5.28-3.44l-.06.05c.58-.46.58-.92.7-1.27.06-.3.1-.63.14-.95.01-.13.03-.25.04-.37.01-.06.01-.12.02-.17.01-.08.01-.15.01-.22.01 0 .02.02.03 0 .02-.1.05-.18.02-.54-.01-.18-.08-.36-.17-.55-.05-.1-.12-.2-.18-.28l-.03-.05c-.01-.02-.03-.03-.04-.04-.01-.02.03-.05.05-.06l.07-.03h0c.08-.07.15-.14.22-.22.16-.2.26-.4.3-.6.02-.1.04-.2.03-.3v-.16c0-.16.01-.26.01-.26.04-.32.04-.63 0-.95l.05.05zm-194.17 56.7l-.4.6c-.36.72-.13.57-.56 1.36-.04-.08-.5 1-.35.5-.9 1.76-1.74 4-1.18 6.87.25.6.74 1.88.94 2.2.04.03.5 2.47.14 1.1-.03-.12-.07-.33-.05-.32l-.1-.14c.18 1.38.45 2.57.46 4.03.02-.43-.01-1 .05-.63l.01 1.36-.06-.28-.03 1c-.02.27-.08.62-.13.95l.12-.27c-.18.98-.37 1.32-.4 2.47 0 .52.22-.95.1.13-.1.67-.23 1.52-.3 2.42-.04.46-.06.94-.12 1.27-.01.07-.03.2-.04.2l-.02.05c-.02.03-.04.06-.07.06.07.1-.05.15-.16.05l.03-.08c-.05-.01-.22-.3-.26-.42-.06-.14-.06-.2-.06-.28s-.01-.14-.03-.28c-.03-.1-.06-.4-.18-.84l-.17-.3c-.1-.33-.27-.93-.34-1.2l-.2-.72c-.13-.37-.25-.96-.98-1.05.36.06.33.2.27.2-.05 0-.1-.05-.25-.07-.18.04-.15.15-.27.26l.08-.2c-.18.24-.35.4-.53.86.06-.3.1-.32.02-.27-.06.12-.18.53-.4 1.12.07-.3.16-.58.23-.96-.12.5-.25.88-.38 1.27l-.24.75c-.2.37-.4.84-.6 1.3l-.58 1.3c-.03.05-.05.07-.08.07-.01 0 0 0-.13.1a1.78 1.78 0 0 1-.53.2c-.2.03-.4.02-.6-.02-.14-.03-.3-.14-.46-.2.22.1.1-.02-.16-.2-.25-.16-.55-.26-.3-.23-.42-.1-1.1-.13-1.72-.08-.3.06-.76-.24-1-.45l.1.06-.45-.33-.24-.17c-.08-.05-.15-.12-.32-.2-.24-.15-.7-.22-.93-.18h-.12c-.01 0-.02 0-.03-.01-.14-.06-.3-.23-.5-.5l-.32-.47-.1-.13c-.03-.05-.1-.13-.15-.17l-.2-.2c-.26-.25-.52-.5-.73-.74-.23-.23-.33-.55-.35-.54.01 0 0 0-.05 0l.04-.17c-.05-.24-.08-.92-.16-.68-.27-2.32.37-4.18.18-5.05.17-1.05.35-1.2.5-1.73l-.04.25c.5-1.9.73-2.45 1.3-3.8.3-.67.17-.87.86-2-.07.17-.06.18-.01.1.06-.1.18-.28.3-.48.02-.1.04-.2.05-.3-.02.13-.03.23-.04.3-.03.06-.03.07.02.01.02-.1.07-.25.14-.52 0-.1.01-.24.03-.37.01 0 .01-.03.02-.01.14-.83.1-.7.01-.3-.01-.02-.02.01-.06.12.24-.84.46-2.38.6-2.46l1.15-6.32c.1-.22.05.27-.06.87l.3-1.46c.08.03-.14.84-.22 1.3.36-1.2.56-2.5.84-3.87.01 0 .03.01.04.01l.07.15c3.57.78 1.22.6 4.75 1.42h.66c3.22.6 1.63.7 5.23 1.33-1.4-.35-.58-.44 1.1.07h-.46c.22.05.4.1.57.13-.62 1.32-.66.83-1.32 2.5l-.02-.04zm192.7-58.3h0zm-.01-.01h0zm-.27 1.17c.2.1.3.2.5.6.3.9-.3 1.4-2.5 2.3-1.9.8-2.7.6-3 .5a.78.78 0 0 1-.4-.4c-.4-.9.3-1.4 2.5-2.4 1-.4 2.3-.9 2.9-.6h0zm-1.6 6.1c-1.2.5-2.1.6-2.5.4-.2-.1-.2-.2-.3-.3-.2-.7.2-1 2.1-1.8.6-.3 1.4-.6 2-.6.1 0 .2 0 .4.1.1 0 .3.1.4.4.2.5-.1 1-2.1 1.8h0zm-2.7-8.7c1-.4 2.3-.9 2.9-.6.2.1.3.2.5.6.3.9-.3 1.4-2.5 2.3-1.9.8-2.7.6-3 .5a.78.78 0 0 1-.4-.4c-.3-1 .4-1.4 2.5-2.4h0zm-3.3.14c.27.01.6.01.9-.08.06-.02.1-.03.15-.05-.43.26-.8.56-1.04.93a5.06 5.06 0 0 0-.01-.8h0zm0-.02v-.04c.26-.03.64-.04.8-.12.08 0 .05.02-.04.05-.1.03-.26.08-.38.08-.16.01-.3.02-.38.03h0zm8.2 8.93c-.1.22-.23.5-.42.57l-.03.02c-.8.54-1.78 1.26-3.14 1.93l.1-.1c-2.33 1.28-3.93 1.8-5.66 2.46-.32-.07-2.13.5-2.77.5l.06-.02c-.22.06-.45.1-.68.13l-.34.04-.44.03-.92.4-.83.36c-.55.24-1.1.48-1.6.76.05-.04.06-.1.4-.25-1.05.5-2.48 1.2-2.6 1.13-1.12.52-2.44 1.1-3.7 1.65-1-2.6-.2-1.55-1.48-4.65.42 1.3-.08.7-.5-.92l.24.37c-.3-.88-.43-1.16-.6-1.75.22.5.25.23-.16-1.07l.4.83-.96-2.4c-.08-.33-.17-.7-.28-1.06a2.7 2.7 0 0 0 .53-.22c1.07-.23 1.3-.2 1.85-.3l-.25.07c1-.25 1.67-.43 2.25-.68a8.78 8.78 0 0 0 1.75-.97c.6-.54.65-.7 1.52-1.8-.2.4.12-.07.4-.5-.17.28-.2.38.2-.16.03-.1.1-.22.16-.33.01 0 .02-.02.02-.01.44-.67.36-.56.12-.27 0-.02-.03 0-.1.08.5-.66 1.56-1.77 1.72-1.75 1.1-1 2.08-1.76 3.06-2.5h.03c.55-.46 1.32-.85 2.04-1.26.24-.06-.18.2-.7.52l1.32-.73c.03.08-.74.45-1.14.68.82-.36 1.63-.82 2.45-1.34l1.26-.8c.43-.28.85-.56 1.27-.7.05-.04.1-.1.2-.13h.06c-.02-.05.34-.12.4.1-.02.1-.07.13-.1.2-.02.03-.03.06-.05.12a3.32 3.32 0 0 1-.1.29 5.75 5.75 0 0 1-.8 1.2l-.6.74c-.2.25-.52.67-.72.96.53-.67.4-.43.2-.16-.25.32-.44.57-.57.8-.3-.07-.76.1-.97.74-.03.1.4 3.2-1.8 5.1-2.2 2-3.9 1.7-4 1.7-.3-.1-.6.1-.6.4-.1.3.1.6.4.6h.4c.8 0 2.5-.2 4.4-2 1.14-1.04 1.7-2.28 2-3.37a6.95 6.95 0 0 0 .1.37c.2.5.5.8.9 1 .18.1.52.18.88.2-.5.52-.73 1.2-.38 2.1.2.5.5.8.9 1a1.59 1.59 0 0 0 .47.14c-.53.47-.8 1.08-.47 1.96.1.4.4.7.8.9.2.1.5.2.9.2.7 0 1.4-.2 2.4-.6.64-.27 1.54-.62 2.13-1.17-.06.2-.13.4-.2.6l-.02.01z"/><path d="M146.92 234.83h0l.08.15-.08-.15zm31.16-116.26l.13-.15-.13.15z"/><g fill="#fff"><path d="M264.92 215.4l-.02.14c.02-.01.03-.04.02-.14zm8.63 32c.01 0 .02 0 .03.01-.02-.01-.03-.01-.03-.01zm-9.38-26.5h0c-.01-.02-.01-.03-.01-.04l.01.04z"/><path d="M263.72 213.8c.1 1.87-.03 2.37.18 4.3l.26 2.8c.16.42.1 1.18.24 1.68l-.06.2c.05.17.1.37.07.55v-.01c.08.26.07.55.1.68h-.02l.04.32-.03-.05a7 7 0 0 1 .14 1.33l.08-.04c-.02.9.18 1.2.14 2l-.02-.01c.3 1-.02 1.6.3 2.62-.04-.13-.04.06-.06.05.07.48.13.98.3.98.03.35-.03.3-.1.34.07-.01.13.3.16.56l-.04-.12.1.78.13-.17c0 .42-.16.12-.1.5l.12-.02c.03.57-.1.92-.14 1.5.22 2.3.63 4.74 1.15 6.94l-.05.12c-.1.1.4.5.32.64l.15.22c0 .08.05.23-.03.12.1.22.13.22.24.35l.05.27c.38.9 1 1.48 1.64 2.25a6.57 6.57 0 0 0 1.75 1.59c.74.5 1.56.85 2.17 1.07l2.62 1.05c.98.4 2 .56 2.92.5.06.02.22-.01.22-.03l1.67.03s2.02-.05 3.25-.3c1.24-.26 1.66-.5-1.38-.8l.04-.03c-.9-.01-1.45-.01-2.06.15-.1-.17-.73-.01-.93-.07l.02-.01c-.54.13-1.1-.14-1.62-.07.02-.01.04-.06.15-.05-.37 0-.87-.04-.9-.14-.8-.1-2-.62-2.6-.65h.05c-.35-.01-.4-.14-.76-.22-.01-.02-.03-.04-.03-.04-.37-.04-.95-.42-1.22-.52l.02-.07c-.2-.1-.4-.23-.6-.34l.22.15c-.18.1-.4-.36-.87-.57-.36-.3-1-.3-1.3-.73-.23-.1.25.05-.05-.16.06-.08.16.08.15-.04-.28-.22-.33-.47-.64-.76l.05-.06c-.48-.34-.5-.9-.83-1.14-.32-.48.02-.44-.38-.9-.01-.08-.01-.16 0-.25-.08-.24-.18-.12-.24-.4.07-.01-.08-.35.04-.22l-.3-.94c-.1-.34-.24-.7-.22-1.12-.15-.16-.16-.6-.27-.7.04-.03-.1-.87.07-.4.01.04.02.12 0 .1l.08.05c.08-.5-.18-.9-.22-1.38-.01.15.02.34-.04.22l-.04-.46.07.1-.04-.68-.07.1c0-.34.12-.47-.03-.83-.08-.16-.07.33-.13-.02l-.02-1.7c-.08.06-.1-.1-.13-.25l.07-.03c-.16-.6.14-.24 0-.83l.06.05-.17-.14c-.2-.53.13-.3-.13-.9.03.24-.15.13-.15-.17l.08.07c-.03-.16-.07-.2-.06-.32.05.1.1.04.07-.2l.1.15-.17-.44c.04-.35-.1-.9-.01-1.05 0 0-.02-.75-.14-.9.08.14.07-.27.16-.16a2.22 2.22 0 0 1-.15-1l.01.04c.01-.86-.24-1.44-.2-2.2-.08.04-.07-.36-.17-.26-.17-.78.1-1.46-.26-1.7-.05-.36.05-.43.05-.62l.02.08-.13-1.36c-.05-.25-.2-.27-.2-.72.07.14.05-.04.04-.2.02.1.04.14.07-.1-.02-.03-.04-.08-.05-.12 0 0 .01-.01.02-.01-.04-.28-.06-.23-.06-.1-.01-.01-.02.01-.04.05.06-.3-.07-.8.04-.85l-.34-2.12c.05-.08.1.08.15.28l-.06-.5c.08 0 .07.28.1.43.1-.6-.22-1.2-.15-1.9l-.07-.14.01-.04c-.03 0-.1-.15-.1-.25.06-.1.16-.01.13-.35.05-.28-.1-.77-.15-1.12 0 .2-.04.13-.07.05-.02-.17.05-.27.01-.4l.1-.02c-.08.07-.13-.44-.17-.5.06-.1.08.26.14.3l-.1-1.03c-.1-.36-.08.07-.18-.1-.04-.32-.13-.63-.1-1l-.08.12c-.1-.6-.13-.97-.07-1.38-1-4.48-1-.9-1-.9-.08 1.8.23 2.7.45 4.82zm-76.12-45.14l.12-.05c-.01-.01-.04 0-.12.05zm26.2-18.6l.02-.02-.02.02zm-21.6 16.48h0l-.03.03z"/><path d="M187.1 170.47c1.34-1.03 1.8-1.18 3.13-2.32l1.98-1.6c.23-.34.85-.66 1.15-1.03l.2-.05c.1-.12.24-.26.4-.32v.02c.16-.2.4-.32.46-.4v.02l.22-.18v.05c.3-.3.63-.56.94-.76l-.08-.05c.7-.4.83-.72 1.48-1.06h0c.6-.73 1.25-.73 1.88-1.47-.08.1.07.01.07.03.34-.28.7-.55.6-.7.26-.18.24-.1.3-.08-.05-.06.16-.25.36-.4l-.08.1.56-.43-.2-.03c.33-.2.18.08.45-.15l-.07-.1c.44-.28.8-.32 1.24-.54 1.74-1.15 3.4-2.7 5.15-3.58l.12.03c.1.1.34-.46.47-.4l.16-.17c.07-.02.2-.07.1.02.18-.1.17-.13.27-.25l.23-.06c.72-.4 1.23-.9 1.98-1.35.96-.43 2.54-1.6 3.47-2.25.63-.5 1.4-.87 2.18-1.25.8-.36 1.58-.72 2.23-1.22a.33.33 0 0 0 .15-.13l1.3-.7 2.53-1.45c.93-.62 1.22-1.06-1.47-.26l.02-.04c-.76.32-1.22.55-1.66.93-.17-.12-.6.3-.8.36l.01-.02c-.37.36-.95.4-1.3.75.01-.02 0-.07.1-.12-.3.2-.7.46-.77.4-.72.43-1.75 1-2.13 1.4l.02-.04c-.2.25-.33.22-.6.44-.02 0-.05.01-.05 0-.23.26-.82.52-1.03.7l-.05-.05-.56.36.22-.12c.02.2-.5.16-.83.52-.4.22-.57.8-1 1-.14.2.1-.22-.15.01-.06-.07.1-.13-.01-.15-.25.2-.5.2-.8.48l-.05-.05c-.37.4-.9.45-1.1.75-.42.35-.42.02-.8.45l-.24.04c-.2.12-.08.2-.33.3-.02-.06-.3.15-.2.01-.56.26-.95.8-1.7 1.1-.08.2-.45.36-.5.52-.05-.03-.67.45-.36.1.03-.03.08-.07.1-.05v-.1c-.45.15-.64.54-1.02.78.12-.06.27-.16.2-.05l-.35.23.04-.1-.53.33h.1c-.27.14-.44.1-.66.38-.1.14.3-.08.05.12l-1.35.76c.1.04-.03.12-.13.22l-.06-.05c-.4.4-.26-.02-.66.37l.01-.07-.03.2c-.32.4-.3.03-.64.52.17-.14.18.07-.06.2l.01-.1c-.1.1-.13.15-.22.2.05-.08-.02-.1-.2.03l.07-.16-.26.35c-.3.12-.65.5-.82.5 0 0-.58.37-.64.55.07-.14-.25.07-.2-.06-.1.17-.48.53-.7.6l.03-.03c-.67.4-1 .88-1.6 1.22.08.05-.24.23-.1.27-.5.52-1.18.6-1.18 1.04-.25.2-.36.17-.5.26l.05-.06-.97.78c-.16.17-.1.3-.44.53.07-.13-.06-.02-.18.07.07-.07.08-.1-.1-.02-.01.03-.04.07-.06.1-.2.16-.15.15-.05.1 0 .01.02.01.06.01-.26.1-.58.46-.67.4-.6.5-.95.92-1.42 1.35-.1 0 0-.13.13-.26l-.34.3c-.05-.07.17-.2.27-.3-.5.23-.8.8-1.36 1.1l-.06.13-.04.02c.02.03-.06.15-.12.22-.1 0-.1-.13-.34.07-.23.1-.52.47-.75.7.14-.1.12-.03.08.03-.12.1-.23.1-.3.2l-.07-.06c.1.03-.26.33-.28.4-.1 0 .15-.2.15-.26l-.72.6c-.2.27.1.03.03.2-.22.2-.4.43-.7.6h.14c-.4.4-.65.6-1 .78-2.7 3.17-.07 1.27-.07 1.27 1.34-.95 1.83-1.67 3.28-2.94zm85.28 16.43v-.2c-.02.01-.02.06 0 .2zm-10.2-45.55c-.01-.01-.01-.03-.02-.04.02.03.02.04.02.04zm9.97 38.3h0c.01.03.01.04.02.05l-.02-.05z"/><path d="M273.86 188.9l-.94-5.6-.77-3.64c-.24-.53-.3-1.54-.55-2.17l.02-.27c-.08-.22-.16-.48-.17-.72h.02c-.12-.33-.17-.72-.23-.88l.02.01-.1-.4.04.06c-.18-.58-.3-1.18-.4-1.73l-.08.06c-.15-1.16-.4-1.55-.52-2.6l.02.01c-.5-1.26-.3-2.1-.8-3.4.06.16.03-.08.05-.07-.16-.6-.32-1.27-.5-1.24-.1-.45-.03-.38.02-.45-.07.02-.2-.37-.27-.72l.06.16-.25-1-.1.23c-.08-.54.14-.17-.01-.68l-.1.03c-.14-.74-.07-1.22-.15-1.95l-2.15-8.9.06-.14c.1-.08-.37-.7-.28-.85l-.14-.3c0-.1-.02-.3.05-.14-.07-.3-.1-.3-.18-.5v-.34c-.22-1.18-.62-2.14-.88-3.38-.2-1.52-1.02-4.26-1.5-5.84-.73-2.2-.87-4.95-1.65-7.2 0-.08-.1-.26-.1-.26l-.5-2.1s-2.44-10.24-1.58-2.2l-.04-.05c.2 1.17.38 1.9.7 2.66-.14.17.2.95.22 1.24h-.02c.3.67.25 1.48.53 2.13-.02-.02-.07-.03-.1-.18.14.5.34 1.16.25 1.22l1 3.55-.04-.05c.2.4.15.55.32 1.02-.01.03 0 .07-.01.06.22.44.35 1.37.5 1.74l-.06.04.24.93-.07-.35c.2.08.06.74.34 1.4.13.64.68 1.2.76 1.88.16.3-.2-.24-.02.2-.1.04-.1-.2-.16-.07.16.45.1.78.3 1.33l-.07.04c.3.7.25 1.42.5 1.9.25.75-.1.57.25 1.33l-.02.33c.07.35.18.22.22.6-.07-.01.07.5-.05.28.1.88.56 1.7.67 2.87.18.22.24.8.38.96-.05.04.26 1.14 0 .53-.02-.05-.04-.15-.02-.15l-.1-.06c.02.68.35 1.15.48 1.8-.02-.2-.1-.44 0-.3l.13.6-.1-.1.17.9.05-.14c.06.44-.03.62.2 1.08.1.2.01-.43.13.02l.35 2.22c.07-.1.1.1.17.3l-.07.04c.28.76-.1.32.16 1.08l-.07-.06.2.17c.3.67-.07.4.3 1.15-.08-.3.13-.18.18.2l-.1-.08c.06.2.1.27.12.4-.07-.12-.12-.04-.04.26l-.13-.2.26.56c.03.47.28 1.16.22 1.37 0 0 .16.98.32 1.18-.1-.18-.02.36-.13.23.13.23.35.96.34 1.28l-.02-.05c.15 1.12.5 1.86.62 2.87.08-.06.14.47.22.32.32 1 .17 1.9.58 2.2.1.46.03.57.07.8l-.04-.1.4 1.77c.1.32.26.34.34.92-.1-.18-.04.06 0 .28-.04-.14-.07-.18-.05.12.03.04.05.1.07.15 0 0-.01.02-.01.01.1.36.1.3.08.12.01.01.02-.01.03-.07 0 .4.22 1.05.12 1.1l.72 2.74c-.03.1-.13-.1-.2-.35l.15.64c-.08.01-.12-.36-.17-.56.02.8.43 1.56.5 2.48l.1.17v.06c.03-.01.12.18.15.32-.04.14-.16.02-.07.47 0 .36.22 1 .35 1.45-.04-.25.02-.18.06-.08.04.22 0 .36.06.53l-.1.04c.07-.1.2.56.26.64-.05.14-.12-.33-.2-.38l.26 1.34c.16.46.07-.1.2.1.1.42.24.82.27 1.3l.05-.17c.2.78.3 1.26.3 1.8 1.72 5.8 1.14 1.08 1.14 1.08-.22-2.33-.68-3.48-1.26-6.24zm-85.56-81.35l.14-.07c-.01-.01-.05 0-.14.07zm36.5-10.8h0zm-30.95 8.45h-.01l-.02.03z"/><path d="M187.5 109.54l3.82-2.65 2.53-1.68c.33-.36 1.1-.64 1.53-1l.22-.04c.15-.12.33-.26.5-.32v.02c.22-.2.5-.32.62-.4v.02l.3-.17-.04.05c.42-.27.87-.5 1.28-.67l-.07-.06c.9-.33 1.13-.67 1.97-.9v.02c.92-.63 1.65-.5 2.6-1.14-.12.08.07.02.07.04.46-.24 1-.4.94-.56.36-.12.3-.05.38 0-.03-.07.28-.2.55-.3l-.12.07.8-.3-.2-.08c.44-.1.16.13.56-.04l-.04-.1c.6-.16 1-.14 1.6-.18l3.7-.95 3.64-.52.1.08c.06.13.62-.23.72-.1l.26-.07c.08.02.24.03.1.07.25-.01.25-.03.43-.08l.27.06c.98.02 1.8-.24 2.85-.2.62.1 1.5.15 2.42.15l2.5.03c1.92.02 3.97.96 5.85 1.34a.41.41 0 0 0 .22.04l1.64.63 3.1 1.5c.58.3.96.53.98.35.01-.17-.38-.8-1.74-1.86h.05c-.86-.54-1.44-.8-2.13-.95-.04-.2-.76-.33-.96-.45h.03c-.62-.08-1.16-.5-1.76-.56.03-.01.05-.05.18-.01-.42-.1-1-.2-1-.32-1-.25-2.4-.54-3.07-.48l.05-.02c-.38.05-.48-.07-.9-.06-.02-.02-.05-.03-.04-.03-.42.07-1.18-.13-1.5-.1l-.02-.07-.8-.02.3.03c-.12.18-.6-.14-1.2-.04-.55-.04-1.12.34-1.68.23-.27.08.24-.13-.16-.08-.01-.1.2-.05.1-.13-.4.04-.65-.15-1.14-.05l-.02-.07c-.63.17-1.2-.03-1.63.13-.65.1-.46-.2-1.13-.01l-.28-.08c-.3 0-.2.14-.53.1.01-.06-.42-.03-.23-.1-.75-.04-1.47.35-2.46.32-.2.15-.7.16-.83.27-.03-.05-.97.14-.45-.06.05-.02.13-.03.13-.01l.05-.08c-.58-.06-1 .22-1.52.35.16-.01.37-.07.24.01l-.5.1.1-.1-.75.14.12.05c-.37.05-.53-.05-.9.16-.17.1.37.02-.01.13-.5.08-1.25.14-1.86.32.08.06-.08.1-.24.2l-.04-.07c-.6.3-.28-.08-.9.2l.04-.07-.12.2c-.53.33-.36-.05-.93.36.25-.1.17.12-.15.2l.05-.1c-.17.07-.2.12-.33.14.1-.07.02-.12-.23-.02l.14-.14-.43.28c-.4.04-.92.4-1.1.35 0 0-.8.27-.92.45.13-.13-.3.02-.22-.1-.17.15-.73.46-1 .48l.04-.03c-.9.27-1.4.8-2.22 1.06.07.06-.35.22-.2.27-.74.48-1.54.5-1.64.97-.34.2-.45.16-.64.25l.07-.06-1.3.77c-.22.17-.18.3-.62.54.1-.14-.06-.02-.22.08.1-.07.1-.1-.1-.02-.02.04-.06.07-.1.1-.26.18-.2.16-.08.1 0 .01.02.02.06.01-.3.1-.75.48-.84.4-.77.52-1.27.97-1.86 1.46-.1 0 .02-.14.2-.3l-.43.33c-.04-.07.23-.22.36-.33-.6.27-1.02.88-1.7 1.23l-.1.15-.04.02c.02.03-.1.17-.17.25-.13.01-.1-.13-.4.1-.28.13-.65.55-.94.82.17-.12.14-.05.1.03-.15.12-.28.13-.37.24l-.07-.06c.1.02-.32.4-.35.47-.13.02.2-.24.2-.3l-.86.74c-.26.3.1.02.02.2l-.82.75.15-.02c-.45.5-.76.76-1.15 1-1.57 1.97-1.5 2.35-1.16 2.18.33-.15 1.06-.78 1.06-.78 1.5-1.22 2.08-2.05 3.82-3.56zm-3.58 141.5l.27.04c-.01-.02-.07-.03-.27-.04zm53.43-22.2v-.06.06zm-42.98 23.58c-.04 0-.06.01-.08.01l.08-.01z"/><path d="M180.62 252.04l8.3.32 5.43.06c.83-.1 2.3.03 3.27-.06l.38.08c.34-.03.73-.05 1.07-.01l-.02.02c.5-.05 1.07-.01 1.32-.04l-.02.02h.6l-.1.03a28.06 28.06 0 0 1 2.59-.01l-.07-.1 3.88.05-.02.02c1.95-.24 3.08.16 5.1-.1-.25.03.1.04.1.06.93-.04 1.92-.07 1.93-.24.68-.02.55.03.64.1-.01-.07.58-.13 1.1-.15l-.24.04 1.5-.1-.3-.12c.8-.01.2.16.98.07l-.02-.12 2.87-.03c4.47-.65 9.17-2.52 12.33-5.53l.2-.1c.17.02.64-1.05.8-1.13.08-.15.17-.3.23-.46.1-.1.26-.37.16-.13.23-.42.24-.43.32-.77l.27-.45c.62-1.7.85-3.2 1.3-5 .7-2.14 1.33-6.3 1.64-8.68.4-3.37 1.5-7.2 1.74-10.66.03-.1.03-.4.02-.4l.44-3.14s.5-3.8.65-6.2c.14-2.4.01-3.32-1.2 2.4l-.02-.08c-.28 1.7-.43 2.8-.44 4-.2.17-.2 1.4-.3 1.8v-.04c-.01 1.07-.4 2.14-.43 3.17-.01-.04-.05-.07-.02-.3-.08.74-.2 1.75-.3 1.8-.23 1.76-.66 4.2-.68 5.34l-.01-.08c0 .66-.12.83-.2 1.55-.02.04-.03.1-.04.08-.01.7-.33 2.03-.4 2.6l-.07.02-.24 1.38.1-.5c.15.2-.3 1.02-.4 2.04-.2.93-.01 1.97-.32 2.92-.02.48-.05-.44-.14.27-.1 0 .01-.33-.1-.17-.1.7-.34 1.1-.5 1.92l-.08.02c-.13 1.12-.62 2-.72 2.73-.28 1.1-.4.67-.73 1.73l-.3.33c-.27.4-.1.35-.43.76-.03-.06-.48.48-.32.2-.84.84-1.67 1.86-3.16 2.57-.23.3-1 .6-1.2.82-.06-.01-1.52.67-.72.2.07-.04.2-.1.2-.07l.07-.1c-.9.26-1.53.74-2.43 1 .27-.06.62-.2.4-.06l-.83.25.15-.1a13.52 13.52 0 0 1-1.25.33l.2.03c-.63.12-.86.06-1.54.3-.3.13.6-.02-.04.14-.84.14-2.1.27-3.2.36.1.07-.18.1-.48.16l-.04-.07c-1.14.2-.44-.13-1.57.03l.1-.06-.3.18c-1.03.2-.57-.13-1.72.12.46-.03.22.16-.34.14l.14-.08c-.3.03-.42.06-.62.05.2-.05.1-.1-.36-.08l.3-.1-.87.15c-.67-.07-1.74.05-2.02-.05 0 0-1.45-.03-1.78.08.3-.07-.5-.1-.28-.18-.37.08-1.48.15-1.93.07l.08-.01c-1.64-.08-2.8.1-4.28 0 .07.1-.7.03-.52.15-1.53.1-2.78-.25-3.33.1-.7.01-.82-.1-1.18-.1l.17-.02c-1.3.01-1.68.01-2.65-.01-.48.03-.56.2-1.42.13.28-.06-.07-.05-.4-.06.2-.01.27-.03-.15-.08-.06.02-.15.03-.24.04 0-.01-.02-.01-.01-.02-.54.01-.45.03-.2.05-.01.01.01.02.1.04-.56-.1-1.56-.02-1.63-.13-1.62 0-2.8.08-4.14.1-.15-.06.17-.1.56-.12h-.96c.01-.08.55-.04.85-.05-1.14-.15-2.35.08-3.7-.07l-.28.06h-.08c0 .03-.3.07-.5.08-.2-.07.02-.16-.65-.17-.52-.08-1.5 0-2.18.02.37.02.25.06.1.08-.33-.01-.52-.08-.78-.06l-.03-.1c.13.1-.87.07-1 .1-.2-.07.52-.05.6-.1l-2-.04c-.7.05.13.1-.2.17-.63 0-1.24.05-1.95-.02l.23.1c-1.18.03-1.88 0-2.67-.1-8.77.43-1.87.88-1.87.88 3.42.27 5.2.08 9.3.1z"/></g></svg>