<svg xmlns="http://www.w3.org/2000/svg" viewBox="0 0 480 480" xmlns:v="https://vecta.io/nano"><path d="M362.6 208c-1.9-1.1-6.3-2.2-9.4-3.5-7.4-3.2-13.5-4.8-18.8-7.3-3-1.5-41.3-27.5-45.6-30.1-5.6-4.1-27.3-35.2-27.3-35.2l-31.5 16s28.7 38.3 34.5 42.7c6.7 5.3 17.2 8.2 31.4 12.3s26.5 6.7 37.5 9.5c1.7.4 3.3 1.3 5.6 1.6 1.9-3.8 5.8-6.4 10.3-6.4a11.61 11.61 0 0 1 11.6 11.6c0 .4 0 .9-.1 1.3-.1.9-.3 1.7-.6 2.5.1.2.3.4.5.5 3.7 1.8 4.9-13.9 1.9-15.5z" fill="#ea9d7d"/><path d="M361.3 224.1c-.3 0-1-.3-1.3-.5l.3-.9c.3.2 1 .4 1.1.3.7-.3 1.3-2.4 1.5-3.3.6-2.2.6-5.9.6-7.7 0-1.9-.2-3.6-3-4.4-3.2-.9-23.4-8-24.2-8.3l-.1-.1c-.1-.1-12.9-8.7-18.8-12.5l-16.6-11c-3.5-2.4-6.5-4.4-7.8-5.1l-.3-.2c-2.8-1.9-5.9-4-9.4-8.1-3.6-4.1-13.4-17.3-13.5-17.5l.8-.6c.1.1 9.9 13.3 13.5 17.4 3.4 4.1 6.5 6.1 9.2 7.9l.3.2 7.8 5.1 16.6 11 18.8 12.5 24.1 8.3c3.5 1 3.8 3.3 3.8 5.3s0 5.6-.6 8c-.5 2.1-1.1 3.6-2.1 4-.3.2-.5.2-.7.2z" fill="#cc7a5e"/><g fill="#ffbca4"><path d="M329.1 195.6l-.6.4.5.3zm2 .3v1.3l1.1-.6z"/><path d="M330 195.2v1.3l1.1-.6zm-1.2 1.1l-.6 1.2h1.2zm5.3 1.6l-.6-.3v.6zm-2.9-.7l1.1 1.6 1-1.4z"/><path d="M334.3 198.8l.6 1.4.9-1.1zm-1.6.1l.8 1.3.8-1.2zm-3.8-4.4l.2 1.6 1.2-.7zm7 6l.9.7.2-1zm2.5.4l-.7-.4v.7z"/></g><g fill="#da7f57"><path d="M324.9 209.2l1.7-.4-1.1-1.7zm1.6-4.5l.7-1.7h-1.9zm4.2 6.4l.7-1.7h-2zm4.7.2l.7-1-1.4-.3zm-1.9.8l.5-1.1-1.3-.1zm-4-5.2l.1-1.3-1.3.6zm-4.6.3l-1.1-.6v1.5zm-.2 3.1l-.5-1.9-1.6 1.5zm.4-3.3l1.4-1.3-2-.7zm10.6 5.1h.9l-.4-.9zm3.1.9l-.7.6.9.4zm-10.9-5.7l-.7.8 1.1.3z"/><path d="M339.1 211.7l-.6.6.9.3zm-1.1-2.2l-.6.6.9.4zm2.1.6l-.7.4.6.6zm-13.6.4l1.6-2.2-3-.5z"/><path d="M329 210.4l1.7.4-.4-2zm-3.7-.8l1.7.5-.3-2.1zm2.7.4l1.5-2.1-3-.6zm10.2 3.7l-.5-2-2 1.4z"/><path d="M332.6 212.2l-.5-2.1-2.1 1.5zm2.5.5l-.1-1.6-1.8 1zm-6.9-3.4l-1.5 1.4 2.5.6z"/></g><path d="M244.2 105.2s9.5 9.8 21.3 27.6c11.7 17.8 18 25.8 23.1 30.2 4.6 3.9 35.8 20.2 42.2 23.5.7.3.9 1.1.6 1.8L319.7 216c-.3.8-1.2 1.2-2 .9-6.6-2-35-11-54.5-21.9-13.4-7.5-46.1-53.4-46.1-53.4s-7.7-44.1 27.1-36.4z" fill="#642c1e"/><linearGradient id="A" gradientUnits="userSpaceOnUse" x1="280.67" y1="160.729" x2="253.128" y2="152.192"><stop offset="0" stop-color="#552828" stop-opacity="0"/><stop offset="1" stop-color="#441814"/></linearGradient><path d="M291.8 165.6s-4.2-2.8-8.2-7.4c-4.9-5.6-6.2-6.1-15.2-21.4-12-16.6-17.9-25-19.8-26.7 0 0 3.8 9.4.2 43.4-1.4 13.2-3 18.1-1 27.5 7.7 7.2 9.8 13.1 25.1 18.2 15.6.3 18.9-33.6 18.9-33.6z" fill="url(#A)"/><path d="M362.7 204.6c.4 1.1-1.2 3.1-5.9 3.5s-7-.9-10.4 0c-3.4.8-7 3.6-7 3.6s-1.2 1.3-3.9-.4-1.9-7.7 1-8.2c4.7-.9 9.6-2 12.5-1.4 6.2.9 12.8.6 13.7 2.9z" fill="#ea9d7d"/><path d="M340.3 211.8c-.2 0-.3-.1-.4-.2-.2-.2-.1-.5.1-.7l2.3-2c1.5-1.2 4.8-2.4 8.2-2.3 3.8.2 6.3.8 8.6.5 1.2-.2 2.2-.7 2.8-1.5a1.9 1.9 0 0 0 .3-.9s-.6-1.1-3.3-1.2c-1.7 0-3.9-.5-6.1-.9-2.1-.4-4-.8-5.1-.7h-7.6a.47.47 0 0 1-.5-.5c0-.3.3-.5.5-.5h7.5c1.2 0 3.2.3 5.3.8l6 .9c3.5.1 4.1 1.7 4.2 1.9.1.6 0 1.2-.4 1.8-.7 1-2 1.8-3.5 2-2.4.3-4.9-.2-8.7-.5-3.5-.2-6.6 1.1-7.8 2-1.3 1-2.2 2-2.2 2s-.1 0-.2 0z" fill="#cc7a5e"/><g fill="#33100c"><path d="M260.2 174.4l-.1 1.2 1-.6zm-3.9 1.4l.4-.5-.7-.2.1.4-.7-.4.1.7.6-.3v.5l.2-.3v.6l.7-.3zm2.1 8.3l-.7.1.4.6zm.5-1.4l.4.5.3-.6zm2.2-14l.5.3.1-.7zm-1.4 11.7v-.1l-.1.1h-.4l.8 1.6.8-1.6zm-6-2h-.5l.8 1.7.8-1.7zm0-1.7v.1l-.2.4 1.9-.3-1.3-1.2zm3.8 0h-.1v.1l-.1.3 1.6-.2-1.1-1.1zm2.5 10l-.8-.1.2.6zm3.5-12.4l.3-.5h-.8zm-.4 1.9l.3-.5-.4-.1zm-1.8 7.9l.4.2v-.2l.2.2.2-.6-.7.1.2.2zm3.9 2.2l-.3-.6.2-.2-.4-.1v.3l-.3.4zm3.6 9.4l-1.1.4.7.8zm2 1.3l-1 .8 1 .5zm-10.2-12.9l.7-1.1-1.2.2zm3.2 8.8h1.2l-.8-.9zm-9.1-6l-.1 1.3 1-.7zm0-14.8h-.2l.2.6.5-.6h-.3l.4-.9h-.6v-.7l-1.2.7 1.1.6zm7.8 20.8l-1.5.5.5-1.1 1-.2-1.1-1-.3.8-1.1.4.1-1.5 1.9-.9-2-.9v1.1l-2.1.8.1-1.6-1.3.5.7-2-2.6.3 1.5 1.5.4.3 1 1 1.8 1.4.5.4.7.6.5.5 1.5.9zm1.4 2.4l1.9 1-.4-2zm4.9-21.3l-.7-.1.3.6zm-2.2-1.5l-.7-.1.4.6zm-1.8 16.9l-.1 1.1.9-.3zm2.2-1.7l.7-.4-.7-.1zm-1.8 5.2l.7.3v-.9zm-11.5-7l-.4-.5.2-1.1.3-.2-.3-.1.1-.8-.7.2-.4-.8-.7.8.6.2-1.7.4 2.4 2.6.1-.6zm5.9-1.5l.3.5.4-.5zm6-9.6l.7.1-.3-.6zm-9.9 6.9l-.9-.1.5.7zm1-1.5l-.9-.1.4.7zm-1.2.5v-.3l-.2-.7-1 .9.4.1h-.1l.9.7v-.6h.1zm1.9-6.7v-.6l-.6.4z"/><path d="M255.5 176l-.6-.5v.7zm9.3-3l-.3-.3-.1.4zm-2 9.3h-.4l.2.4zm3.1 14l1.3.6v-1.6zm-6.4-6.8l-1.2-.5v1.1zm1.9 1.4l1.1.6.4.6.6-1.1-.8.1V190zm-4.4-20.2l.2-.5-.5.1zm2.9 17.2l.1.8.7-.5zm4.8.6l-.4.6.6.1zm-1.3-3l-.4-.6-.4.7zm-4.4.8l-.6.2.5.5zm4.3 4l.6-.4-.7-.2zm-5-7.4l-.7-.2.2.8zm3.4 2.9l-.7.3.5.4zm0-15.8l-.2.6.7-.1zm6.3-2l-.3-.2-.1.5zm-8.3 3.1l.5-.5-.7-.2zm1.1 2.1l.7-.8-1.2-.3zm-2.2-3l-.7-.2.3.7zm-1.5 1.4h-.2l.4 1.5.9-1.2-.4-.1v-.1l-.7-.1zm11.5 18.6l-.3-.8-.6.6zm-1.7-15l-.7.5.9.5zm-2.1 5.6l-.7.5.9.5zm2.5 5.9l.9-.3-.7-.5zm-7.6-.7h1.2l-.8-1zm7.3 4.2l-.6.4.5.4zm-3.9 2.9l.5-.8-1.3.1.5.8v1.3l1.7-.8zm2.9-.7l.6.2-.2-.8zm-.4 2.3l1 .7.2-1.4zm1.2-5.2l-.7.1.4.5zm1 1.7l.3-.6h-.7zm2.1-.1l-.7-.3.2.7zm.5 3.6l-.7-.2.2.6zm-19.6-11.4l1.8-.8-1.7-.8z"/><path d="M258.6 185.9l.7-1-.6.1.1-.5-.4.3.2.2h-.3zm-7-4.2l.3-.7-.7.2-.1-.1-.4-2 .6-.3-.7-.5 1.1-.7.1 1.1 1.2-.9-1.2-.3.2-.1-.2-.2.4-.7-1.1-.1.2.5-.7-.5.7-.5-1.3-.7 1.4-1.3 1-.2-.4 1 .6-.1-.6.8 1.3.3-.5-1.1h.5l.1.1.2-.7-.7.3-.4-.5.8-.2-1.5-1.2-.4 1.4-2-.3 2-1.4-1.4-.8h.7l.2.4.9-1.2h-1l.8-.4-1.4-.6v1.2l-.3.6-.9-.5.6.2.1.1v-.1l.3.1-.1-.4.2-1-1.2.3.3.4-.3.3-.3-.2-.2 3.7.8-.5.4 1.6-1.3-.7-.1 3.7-.5 2.4.3-.2-.4 1.1 2.1.4-.4-.4.8-.1-.4-.7 1 .5-.5.8-.1-.2-.3.8-.5.7 3.1.4-1.2-2 .4-.1zm-1.1-5.1l-.2 1.3-.7-.6.9-.7zm-.9 4.5l-1-.9 1.6-.8-1 .7.7.3-.3.7z"/><path d="M253 173.4l.6-1.1-1.2.3zm4.6 14v-.5l.7-.4-.7-.6h-.1l-.1.1-.9.8.1-2.2-.7.3.1-.7-1 .4.1-1.5-1.4.5 1.3 1.1v-.1l.5.5-.3.1-.4-.6-.4.8.4-.1-.7.3 1.3 1.2-.1.2h.4l.6.5-.1.3.7-.1-.5-.6.1-.3zm-4.4-1.1l.8 1 .5-1zm-.7-10l.6-1.1-1.2.3zm-3.5 5.8l.8.9.4-1.2zm4.8 1.1l-.2-.8-.5.6zm-2.4-3l1.7 1.1-.2-1.9zm4-7.2l-1.7-.8v1.7zm0 5.4l.1.7.5-.3.9.8.1-1.2-.9.3zm2.3.9l-.5.6.7.1zm.3 2.6v-.2l.9-.6-.9-.6v.7l-.6.3zm-.1-8.4l-.4.2.5.4zm2.7.4l.5.1-.3-.5zm-4.4 9.3l-.2.1 1.6.4-.7-1.4-.5.5-.4-.1zm1.3-1.8l-1.3-.6v.4l-.6-.2.1.7.5-.4v.8zm5.3 7.4l-1.5-.6.1 1.3z"/><path d="M259 187l-1.3.5 1.2 1zm-4.6-6.2l-1.8.7.3.2-.6-.2v.6l.6-.3 1.4 1.2zM262 155l1.1-.7-1-.6zm-1.2 5.1l.7.2-.2-.8zm.1-2l.6.2-.1-.7zm2.7-10.4l-.6.3.5.4zm-2.6 7.5l-.9.6-.4.3 1.7.8zm3 6.3l.2-.8-.7.4zm1.3-6.4l-.4-.1.1.5zm-1.5 2.3l-.1.4h.4zm3.7-.7l-.3.2.3.3zm-11.8 5.1l-.1 1.1 1.2-.4zm3.1.2l1.3.1-.7-1zm-1.5 4.5l1.3.1-.8-1zm1.6-9.6l.3.6-.2.6.6-.1-.1-.1.5-1zm3.4 5.7l.4-1.1h-1.1zm-1.6 2.5l.5-1.2-1.1.1zm-3.9-13.4l.4-1.2-1.1.1zm6.8 14.3l.2-.7-.7.2zm-12.5 3.2l1.6 1.2v-.3l.9.6-.1-1.3-.8.4-.1-1.6-1.6.8-.1-.2-1 1.5 1.7-.1zm7.7-7.1l.1.9.4-.4v.4l.4-.3-.4-.1.2-.2zm-.7 2.3l.5-.6-.7-.3zm-1.6 1.4l-.3.5h.7zm.2-1.1l.7.1-.3-.6zm1.2-6.2l-.7.3.5.4zm-.5 4.4l.2-.7-.6.3z"/><path d="M257.7 159.2l-.8.4.8.4zm-.9-1.3l.8.3v-.8zm2.5-5.1l-.7.4.7.2zm-2.5 2.8l.6-.3-.6-.4zm9.9-3.3l-.3-.2-.1.4zm-3 3.2l-.3.3.4.1zm-12.4 13.4l-.4-.3 1.5-.1-.4.3.3.1-.2.9 2.8-1.2-.1.5.7-.2-.6-.4v.1l-1.7-1.5.6-.2-.4-.4-.2.6-.2-.2v.1l-.8-.7-.2.9-.5-.9.7-.4v.3l1.4-.7-1.3-.6 1.5-.7.2.3.4-.7h-.3l-2-1.7-.2.6-.1-.2-.5 1.1h.3v.1h-.3l.2.4-.2.7-.3.1.1.2-1-.7h.3l-.6-1.1-.5 1.1h.5l-.4 2.7-.1-.1-.1 1.3-.2.2h.1l-.1 1.1 2.3-.7zm1.5-1.8l-.3 1.2-.4-.9.7-.3zm-1-2.3l.3-.2v1l-.5-.4.2-.4zm-2.3 2.4l1-.6-.7.9-.3-.3zm9.5-7.5l-.4.2.4.2v.2l1.4-.6-1.4-.7zm-.5-10.1l.4.5.2-.6zm-.1 18l-.5-.6-.2.7zm-.7 1.4h-.9l.5.7zm-4.7 2.7l.6.4-.1-.7zm4.3-7.8l-.1-.5h.1l-.6-.5v.7l-.2.2zm6.3-14.5l-.2.5.7-.1zm-1.5.6l-.7-.2.3.6zm.1 1.4l.5 1.1.7-.7z"/><path d="M260.5 149.6l-.7-.2.3.6zm-.8 1.5l-.7-.2v.1l-.2-.1.4 1.5.9-1.2-.5-.1zm-4.1 9.8l-.8.2.4.5zm-.2 4l-.6.7 1.1.1zm-1.5-2.8l.3-.7-.7.1zm1-9.3l.6-1.1-1.3.2zm-.5 2.9l.6-1.1-1.2.2zm-2.3 6.9l-1.2.2.7.9z"/><path d="M256.5 161.1l-.1.7.6-.2zm-5 1l-.4-.4h.8l-.4-.7 1.1.6-.3-2.1.6-.3-.7-.6 1.2-.6.1 1.1 1.3-.9-1.2-.4.2-.1-.2-.2.5-.7-1.1-.2.2.5-.7-.5.7-.5-1.2-.7 1.5-1.2 1.1-.2-.4.9h.6l-.7.7 1.2.3-.4-1.1h.5l.1.1.3-.7-.7.2-.4-.5.8-.1-1.4-1.2-.4 1.4-2-.4 1.8-1.1-2.5-1.6.6-.4-.6.5 1.2.3-.4-1 1.5-1-2-1.2.5.1.1.1v-.1h.3l-.3-.4.1-1-1.2.5.4.3-.2.4-.4-.3-.2 3.7.1-.1-.3 3.3 1.2-.7.4 1.6-1.3-.8-.2 3.7-.3 1.8v.5l-.3 2.5 1.8-1.1zm-.9-1.6l.6.3-.3.7-.9-1 1.6-.7-1 .7zm1.5-3.5l-.2 1.3-.7-.6.9-.7zm1.3 3.6l1.9-.1-1.2-1.5zm4-8.2l-1.8-.8v1.7zm-1.5 4.9l.3-.6 1.2.1-.7-1-.5.8-.7.2zm1.5 1.8l-.4-.5h.1l-.2-.1-.1-.2h-.1l-.5-.4-.3 1.3.4-.2-.1.1zm0-3.9l.6-.3v.4l.2-.2v.6l.7-.3-.7-.3.4-.4-.7-.3.1.5-.6-.5zm.4.9l.1.8.6-.3zm2.1-2.7l-.1-.5-.4.2zm3.1-.1l-.3-.4-.2.4zm-1.1 6.3l-.2.5h.5zm-6.3 9.5l-1.2.7 1.3.9zm-1.1-42.9l-1-.6v1.3zm-1.5-4l-1.3 1 1.7.7zm5.1 16.4l-1.1-.6v1.1zm-3.7 9.7l-.6-.6.9-.6-1.5-.5.2 1.2-.3.6z"/><path d="M252.2 146.6l-.7-1.1 1.5-.5-.4-.3h1.5l-.4.2.3.1-.3.8h.1l-.4.2-.1-1.1-1.7.8 1.8 1.4v-.6l.7.4-.2-1.2 2.6-1.1-.1.5.7-.2-.5-.4v.1l-1.7-1.6.6-.2-.4-.4-.2.6-.2-.2v.1l-.8-.7-.3.9-.5-.9.7-.4v.3l1.4-.7-1.3-.6 1.5-.6.2.3.4-.7-.3.1-1.8-1.7-.2.6-.1-.1-.5 1.1h.3v.1h-.3l.2.4-.3.7-.3.1.1.2-.9-.7h.3l-.6-1.1-.5 1.1h.5l-.5 2.7-.1-.1-.1 1.3-.1.2h.1l-.1 1.1.5-.1-.7 1.2 1.6-.3zm2.3-3.3l-.3 1.2-.4-.9.7-.3zm-1-2.3l.3-.1-.1 1-.5-.4.3-.5zm-2.3 2.3l1-.6-.7.9-.3-.3zm6.6-.8h.7l-.4-.6zm.4-1.7h.7l-.4-.5zm.6-5.5l.1-.7-.6.3z"/><path d="M258.9 138.3l-.6.3.5.4zm0-2.3l-.1-.7-.7.5zm-.3-2.5l-.7.5.7.3zm-5.7-6.6l-1.2-.7v1.6zm5.3 4.5l-.6-.4v.7zm1.8 12.3l-.4-.6-.2.7zm-.6 1.4h-.8l.5.7zm-3.7-24.9l-.3-.2v.5zm-.2 4.2l-1.3-.1.7 1zm-2.3-2.2l.3-.5h-.7l.4-.3-1.8-.6.1 1.7 1.3-.8zm-.8 5.7l1.3.1-.7-1zm3.3 4.1l1.3.3-.5-1 .5-.1.1.1.2-.7-.7.2-.5-.5-.3 1.1.5-.1zm1.1 5.1l-.7.2.4.5zm.1 4l-.6.8 1.2.1zm-1.7-2.7l.2-.7-.7.2zm.4-9.1l.4-1.2-1.1.4zm-.3 2.7l.5-1.2-1.2.4zm-1.9 7l-1.2.4.8.8zm4.3-1.8v.8l.6-.3zm.4 1.8v.7l-.2.2.8.1-.2-.5h.2zm-5.2-.7h.8l-.5-.7 1.2.5-.5-2.2-1.6 1.2.6.3-.2.7-1.1-.9-.5 2 2.2-.5zm1.7-1.4l1.9-.2-1.3-1.3zm-.9-12l-1.9-.5.3 1.6zm-1-5.3l.2.2.3-.5-.7-.1-1.2-.4.1 1.6zm-1.8-4.2v1.5l1.6-.9zm.7 12.8v2.6l2.1-1.6zm-.3 8.9l3-2-.4-.2.7-.5.1 1.1 1.2-.9-1.1-.3.1-.1-.2-.1.4-.8-1-.1.1.5-.9-.6-.2 1.3-1.4-.9 2-1.5-2.1-1.1v2.8zm5.6-3.6l.3-.7-.7.2zm1.6 1.7l-.4-.4-.1-.2-.2-.1-.6-.4-.2 1.3.4-.2v.1zm-3.8-6.5l.7-1.4-1.4.3zm-2.8-11.3l-.4.2.4.4zm.8 2.9h-.4l.1.4zm1.3-2.5l-.2.3h.4zm3.3 27.6l-1.1.7 1.3.8zm1.4 2.3l1.2-.1-.8-.9zm-1.1-.1h.7l-.5-.6zm0 5.9l-.8.1.3.5zm1.7-4.7l.6-.2-.5-.5zm-.9-3.7l-.6.6.8.2zm-1.1 4.7l-.1.6.7-.2z"/><path d="M257.2 147.1l-.6-.8-.5.9zm-.4 1.8l.4-.5-.7-.1.1.5-1.1-.8-.1-.3-.2.2-.1-.1v.1l-.2.2.2.1-.2 1.4-.3.3.3.1-.1.8h-1.2l.5 1.2.9-1.1-.1-.1 2.5-1.6zm14.4 25l-.7-.2.4.7zm-8.7 4.5l-.8-.1.4.6z"/></g><path d="M199.8 108.3h0z" fill="#f5b421"/><path d="M242.9 102.9c1.7 7.7 7.1 13.5 7.3 22.8.2 7.4-1.4 34.9-2.8 56.2v2.4l-1.8 24.5 7.1 2s-.1-27.4 1.7-63.4c.9-15.9 3.1-38.2-11.5-44.5z" fill="#884130"/><path d="M154.3 208.8l63.8-.2 19.6-.1h7.7s3.3-25.1 5.1-61.1c1-19.4 7.5-47.8-24.1-49.4-12.7-.7-26.7 7.9-40.7 36.2-8.9 17.9-28.7 61.4-33 72-.6 1.3.3 2.6 1.6 2.6z" fill="#fffadd"/><linearGradient id="B" gradientUnits="userSpaceOnUse" x1="228.525" y1="180.225" x2="166.209" y2="148.759"><stop offset=".364" stop-color="#7a3a2b"/><stop offset="1" stop-color="#af614e"/></linearGradient><path d="M221.4 200.4c7.6-23.4 20.8-74.9 22.5-85.3 1.3-7.8-5.5-12.9-8.3-14.8-2.4-1.7-5.5-2-9.2-2.2-12.7-.7-26.7 7.9-40.7 36.2-8.9 17.9-28.7 61.4-33 72-4.4 10.8-4.4 14.3-3 16.9 3.4 6.5 30.5 6.1 48.8-.1 16.6-5.7 20.4-15.1 22.9-22.7z" fill="url(#B)"/><g fill="#bf735c"><path d="M171 193.8l1-.7-.9-.6zm-1.9 4l-.5-1.7-1.1 1.1zm-8.9 4.2l-.6-1.5-1.1 1zm2.9 1.3l-.5-1.6-1.2 1zm-2-7.6l-1.4-1.7-.8 1.7z"/><path d="M160.6 194.4l-1.1-1.3-.6 1.4zm7-9.9l-.8-2-1.3 1.3z"/><path d="M166.2 183.9l-2-.4.3 1.8zm-.9 10.6l-2-.6.2 1.8zm2.4-6.4l-.7-2-1.3 1.3zM159 199l-.5-1.7-1.1 1.1zm4-10.4l1.2-1.8-1.8-.3zm-2.1 3.7l1-1.4-1.5-.3z"/><path d="M162.1 194.7l1-1.5-1.5-.2zm1.6-5.6l-.6-1.7-1.1 1.1zm4.4 1.8l-.7-1.9-1.3 1.1zm7 7.3l-1 .1.4.8zm-10.7-8.9l1.4.3-.2-1.2zm-1 1.9l.6-1.1h-1.1zm.4 5.7l-.8-.8-.4 1.1zm2.1-14.4l-.5-1.1-.7.8z"/><path d="M168 187.2l.2-1.6-1.5.3zm-6 9.6l.8-2.1-1.9.2zm-.4.4l-.9.1.5.7zm3.9-1.6l-.1.7.6-.2zm-5.6-3.1l.7.3-.1-.7zm8.7-5.4l.6 1.3.8-.9zm-3.8-5.6l1.1-.1-.6-1zm-2.5 9.3l.1-1-1 .2z"/><path d="M162.3 192.1l.1-1.5-1.1.5zm.9 6.7l-1.1-.4.1 1.1zm6.5-7.4l-.6 1 1 .1zm-9.5 8.6l1.5-1.3-1.5-.8zm-3.5-2.8l3-.7-1.6-2.4zm3.2-7.2l3-.6-1.5-2.6zm-1.5 3.5l3-.7-1.7-2.4zm3.1-6.9l3-.8-1.7-2.1zm1.1-3.1l3-.8-1.7-2.2zm1.4-3.2l1.9.7-.9-2.6zm-8.8 20.4l3-.8-1.7-2.2zm2.2 4.5l-.4-3.2-2.3 1.6zm3.9-.8l-.4-3.1-2.3 1.6zm9.5-14.7l1.2.2-.2-1.1zm-5.7.2l.5-1h-.9zm5.4 6.4l-.8-.6-.2.9z"/><path d="M170.7 194.8l1.2.2-.2-1.1zm-5.7.2l.5-1h-.9zm5.4 6.4l-.8-.6-.2.9zm-1.5-9.2l-.2-1.4-1.1.7zm2.2 6.3l-1.2-.1.3 1zm3.1-6.7l.9.1-1 1.1zm-9.9 12.5l-.4.9.8-.1zm1.2-4l.5.5.3-.7zm-5.8 2.7l.6-.4-.6-.3zm9.7-14.3l-.6-.5-.2.7zm-.1 8.3l-.6-.7-.4.8zm3.6 2.9l-.8.4.6.4zm-.1-7l.1.8.6-.4zm1.6.7l-.3.7 1-.4zm-2.2 4.5l.7.3.1-.6zm1.8-1.3l1-.3-.6-.7zm-9.1 11l1-.7-.9-.6zm-1.9 3.9l-.5-1.7-1.1 1.1zm-8.9 4.3l-.6-1.6-1.1 1.1zm-.2 4.1l-.5-1.6-1.2 1zm1.1-10.5l-1.4-1.7-.8 1.7z"/><path d="M154.5 208.3l-1.1-1.2-.6 1.3zm4.7.1l-2-.6.2 1.8zm-6.3 4.5l-.5-1.7-1.1 1.1zm4-10.4l1.2-1.8-1.8-.3z"/><path d="M154.8 206.3l1-1.4-1.5-.3zm1.2 2.3l1-1.4-1.5-.2zm1.6-5.6l-.6-1.7-1.1 1.1zm4.4 1.9l-.7-2-1.3 1.2zm7 7.2l-1 .1.4.8zm-10.7-8.9l1.4.3-.2-1.2zm-1 2l.6-1.1h-1.1zm.4 5.6l-.8-.8-.4 1.1zm-1.8-.1l.8-2.1-1.9.2zm10.2-8.4l-.9.2.5.6zm3.8-1.7v.8l.6-.3zm-5.7-2.9l.8.2-.1-.7zm-8.7 13.4l-.9.1.5.7zm3.9-1.6l-.1.7.6-.2zm-5.6-3l.7.3-.1-.7zm3.9-7V198l-1.1.5zm1.3 6.6l-1.2-.3.2 1zm6.2-7.3l-.6 1 1 .1zm-2.7 2.2l.6 1.3.8-.9zm-3.8-5.5l1.1-.1-.6-1zm-2.5 9.3l.1-1.1-1 .3z"/><path d="M156.2 206.1l.1-1.5-1.1.5zm.9 6.6l-1.1-.4.1 1.1zm6.5-7.3l-.6 1 1 .1zm-9.5 8.5l1.5-1.3-1.5-.8zm-3.1-2.5l2.9-1-1.8-2.2zm2.8-7.4l3-.7-1.5-2.6zm-1.5 3.5l3-.7-1.7-2.4zm-2.7 7.4l3-.8-1.7-2.2zm2.3 4.8l-.4-3.1-2.3 1.6zm.2 3.2l-.4-3.1-2.3 1.6zm12.6-19.3l1.2.2-.2-1.1zm-5.7.2l.5-1h-.9zm5.4 6.4l-.8-.6-.2.9zm.2-1.5l1.2.2-.2-1.1zm-5.7.2l.5-1h-.9zm5.4 6.5l-.8-.7-.2 1zm-1.5-9.2l-.2-1.4-1.1.7zm2.2 6.2l-1.2-.1.3 1zm4.9-8.6l-.4 1.2 1-.1zm-11.7 14.5l-.4.8h.8zm1.2-4.1l.5.5.3-.7zm-5.8 2.8l.6-.4-.6-.3zm9.7-14.4l-.6-.5-.2.7zm-3.5 9.2l-.6-.7-.4.8zm3.6 2.9l-.8.4.6.4zm-.1-7l.1.8.6-.4zm8.9-.9l-.3.7.8-.1zm-6.1 5.2l.7.3.1-.6zm4.9-7.9l.7.6.3-.8zm-3.9-2.4l.7-.5-.7-.4zm1 6.8l-.3-.7-.5.4zm-.2 2.2l1-.3-.6-.7z"/></g><linearGradient id="C" gradientUnits="userSpaceOnUse" x1="224.304" y1="182.917" x2="186.374" y2="136.539"><stop offset="0" stop-color="#552828" stop-opacity="0"/><stop offset="1" stop-color="#441814"/></linearGradient><path d="M192.5 158.1l-26.1 16.5s-6.9 27.4 24.2 31.6c13.1 1.8 29.6-6.3 29.6-6.3s3-7.8 7.1-23.6c4-14.3 6.3-14 6.6-25.6 7.3-30.4-3.5-39.6-3.5-39.6l-37.9 47z" fill="url(#C)"/><g fill="#542218"><path d="M187.5 196l-1.2.7-.1-1.2zm-2.2-3.3l-1.5-.1.7-1.1zm-1.5 4.6l-1 1.3-.7-1.3zm-.3-2.8l1.6.3-.9 1.2z"/><path d="M182.9 193.5l-1.2 1.1-.5-1.3zm.6-2.4l-1.3 1-.4-1.3zm1.6.3v1.6l-1.3-.5zm.2 1.8v1.6l-1.3-.5zM184 192l-.8 1.4-.9-1.1zm3.7 1.5l-.5 1.5-1-1z"/><path d="M188.3 193.2l-.3 1.5-1.2-.7zm-8.5 1l-1.4-.5 1-.8zm-2.5-1.5l-1.3-.6 1-.8zm-2.2-4.8l-1.2-.4.8-.8zm1.1-.8l-1.2-.3.8-.8zm12.2 8.1l-1.1.8-.2-1.2zm-9.7-2.3l-.9-.4.6-.6zm3.7 2.4l.1-.8.6.3zm-6.3 1.9l.7-.1-.1.6zm11.5 5.4l-.1.9-.6-.5zm1.8-4.1l-.8.1.2-.6zm3.1 5.6l-.3-.7.7.1zm-13.9-9l.7.6-.8.3zm-2.7-3.5l-.3.6-.5-.5zm6.6.2l-.8-.1.4-.6zm-1.6-1.3l-1.3-.6.9-.9z"/><path d="M180.6 190l-2.2.1.7-1.7zm-2.7-1.1l-1.4-.5 1-1zm4.3 3.3l-1.6 1.5-.6-1.8zm-1.6 5.6l-.4.8-.6-.6z"/><path d="M186.6 197.7l.8-.1-.2.7zm-8.6 0l-.8-.4.6-.4zm2.6-3.5h-.8l.3-.7zm-.2-2l.2-3 2.5 1.2z"/><path d="M183.2 193.2l-.3-2.9 2.6.8zm-5.2-3l-1 1.2-.6-1.2zm1.4-.9l-1 1.2-.7-1.2zm-2.9.5l.6-2.9 2.3 1.5z"/><path d="M176 190.4l.2-1.6 1.2.7zm-2.9-5.2l.8-1.3.8 1.1zm-.7-1.5l.6-1 .6.8zm.5 1.3l-.7-.9 1-.2zm1.6 1.2l-.8-.8 1-.3zm-.3 1.1l-1 .3.1-1zm-2.1-4.4l-.7-.8 1-.2zm3 5l.8-2.1 1.5 1.3z"/><path d="M174.4 186.5l.6-1.5.9 1zm11.6 7.4l-.7-2.9 2.8.5z"/><path d="M188.7 194.3l-1.2-2.8 2.8.1z"/><path d="M191.4 194.3l-1.3-2.7 2.8-.1zm-10.7.8l.9 1.1-1.2.3zm7.4.9l-.2 1.6-1.3-.8zm-.1-.5l1.6-.1-.4 1.3z"/><path d="M192.4 191.8h1.7l-.6 1.4zm-.2 1.8l1.7-.2-.5 1.4zm-2.5.1l1.6-.2-.5 1.3zm1.9 3.7l-.9-.4.6-.7zm3.5 2.5l.2-.8.5.4zm-6.3 1.6l.7-.1-.2.7zm5.1-5.4l-1.8.2.5-1.4zm2 .8l-1.7.3.5-1.4zm-6.2.4l-1.6.1.4-1.3zm-5.7 6.6l-.1-.8.7.2zm2.1-5.5l.7.7-.8.3zm-2.6-3.5l-.4.7-.5-.6zm6.6.4l-.8-.2.4-.5zm-.6-2.2l-.4 2.1-1.6-1zm-1.5-.8l-.5 1.5-1-.9zm2.9 2.3l.7 1.2-1.1.1z"/><path d="M181.9 199.9l.2.8-.7-.2zm4.6 3.5l.5.9-.9.1zm-1.6-4.6l-.6.6-.3-.7zm6.9 2.5l-.8-.5.7-.4zm2.6-6.3l-1-.9 1.1-.5zm-20.2-7.1l-.7.4v-.7zm-1.9 1.4l-.4-.5.5-.2zm3.1 1.3l.2-.7.4.5zm-3.1-9l-.9.3.1-.9zm-1.2-.9l-.4-.7h.7zm4.6 8l-.3-.8h.8zm-1 1.1l.4.6-.6.2zm-3.7 4.3l-.7.6-.2-.7zm3.9-2.1l-.6-.4.6-.4zm-1.2 6.3l.3-.7.5.5zm-4.1-15l.6-.3v.6zm1.7.9l-.4.7-.3-.6zm1.7 3.4l-.4.7-.5-.6zm-.1-1.5l-.5.9-.6-.9zm-.4-2.4l-.8-.3.6-.6zm1.4 5.9l.2-.9.7.6zm-2.8-2.6l-.6.3-.1-.5zm2.9-.8l-.4-.4.5-.1zm-1.8 4l.3-.5.3.5zm0 5.3l.4.9h-.8zm-1.3-4.3l-.5.6-.3-.7zm6.1 2.7l-.7-.4.6-.4z"/></g><path d="M239.7 95.6l-8.9 4.6c-1.2.6-2.8.2-3.4-1.1l-11.2-21.3c-.6-1.2-.2-2.8 1.1-3.4l8.9-4.6c1.2-.6 2.8-.2 3.4 1.1l11.2 21.3c.6 1.3.1 2.8-1.1 3.4z" fill="#212c36"/><path d="M218.6 75.9c.6-.3 1.3-.1 1.6.5s.1 1.3-.5 1.5-1.3.1-1.6-.5-.1-1.3.5-1.5z" fill="#4d565e"/><path d="M219.1 78.2c-.1 0-.3 0-.4-.1-.3-.1-.6-.3-.8-.6-.3-.6-.1-1.4.6-1.8.3-.2.7-.2 1-.1s.6.3.8.6c.3.6.1 1.4-.6 1.8-.1.1-.4.2-.6.2zm0-2.3c-.2 0-.3 0-.5.1s-.4.3-.5.6c-.1.2-.1.5.1.7.1.2.3.4.6.5.2.1.5.1.7-.1.2-.1.4-.3.5-.6.1-.2.1-.5-.1-.7-.1-.2-.3-.4-.6-.5 0 0-.1 0-.2 0z" fill="#141414"/><path d="M220.1 78.7c.6-.3 1.3-.1 1.6.5s.1 1.3-.5 1.5-1.3.1-1.6-.5-.1-1.2.5-1.5z" fill="#4d565e"/><path d="M220.6 81.1c-.1 0-.3 0-.4-.1-.3-.1-.6-.3-.8-.6-.3-.6-.1-1.4.6-1.8.3-.2.7-.2 1-.1s.6.3.8.6c.3.6.1 1.4-.6 1.8-.1.1-.4.2-.6.2zm0-2.3c-.2 0-.3 0-.5.1h0c-.2.1-.4.3-.5.6-.1.2-.1.5.1.7.1.2.3.4.6.5.2.1.5.1.7-.1.2-.1.4-.3.5-.6.1-.2.1-.5-.1-.7-.1-.2-.3-.4-.6-.5 0 0-.1 0-.2 0z" fill="#141414"/><g fill="#542218"><path d="M229.6 168.1l-.7-.8-.5 1.1zm-4.2-.2l-.6-.5.5-.3-.6-.4-.1.4-.4-.6-.2.7.6-.1v.5l.2-.2-.2.6zm1 4.7l-.6.3.5.4zm.6-1.2v-.7l-.6.4zm-2.8 10.5l-.7.2.4.5zm-5 .2l-.1.8.7-.4zm-5.9.7l-.8.7 1.2.4zm7.1-9.7l-.4 1 1.2-.1zm3.1-4.3l-.3-1.2-.8.6h-.7l.3.6.4-.4zm.6 4.7l-.8.7 1.2.4zm-2.8 3.8l-.8.8 1.1.4zm-7.6 5.5l.3 1.2.7-1zm11.2-13.5l.1.7-.4.5.7.2-.1-.2.7-.9zm1.5 6.5l.7-1-1-.3zm-2.2 1.9l.7-1-1-.3zM207 192.8l.8-1-1-.3zm-5.3 2.2l.7-.9-1-.3zm8.4-7l.1.2v-.2h.2l-.1-.2.3-1.4-1.6.4.3.3-.5 1.1-.1-.8-1.2.6-1.3-2-1.8 3 1.1-.2-.6.6-.7-.2.3 1.2.7-.9 1 .4-1.3.2 1.2 1.5.4-1.6.5.2-.1-.3 1.1-.1-.5-.9-.6 1-.4-1.2 1.4-.1-.1-.1 1 .7v-.9zm-2 3.3h.7l-.4-.6zm-11.2 5l-.3.6.7-.1zm-2.1.5l-.3.6h.8zm-2.3-.9h.8l-.5-.6zm.9 3.4l.5-.8-.9-.2zm2.2-3.4h.7l-.5-.6z"/><path d="M193.9 195l.5.9.7-1zm-.5 1.1l-1.1.5 1.2.8zm.1-2.9l-1.2.1.5.9zm7.7.3l1.3-.1-.8-.9zm-7.6.3l-.5.9h1.2zm6.1 0l.2-1 1.1.5.1-2.6 1.4.3-1.1 1 1.4.6-.3.1 1.2 1.4.4-1.7-.7.1-.4-1.3 1.4.4-.4.9h1.2l-.8-.9v-.1l1.3.2-.6-1.2-.7.8-.5-2.7-2.8 2.1v-.4l-2.9 1.4-2.9.8.2.2-1.9.3 1.3 1.8.1-.5.4.6.4-.7v1.2l1.6-1.2.5.4.2-.8 1.1.7-.9.6 1.3.7-.2-1.1.2.1v-.3l.8.1-.4-1-.3.2zm-3.8-.7v.7l-.7.1.4-1.2 1.4 1-1.1-.6zm2.7-.9l1.2.6-1.4.5.2-1.1zm8.6 3l-.5-.5-.3.6zm4.1-.7l.2-.8-.7.3z"/><path d="M197.6 197.6l-.6.3.5.4zm11.1-1.3l.1-.7-.6.3zm-12.6 3.1l.1-.7-.6.3zm16.8-17l-.4-1.2-.8.7zm-15.3 14l.6-1.7-1.6.1zm23.9-9.5l.4-.5h-.7zm2.3-1.2l.4-.6-.7.1zm-7.9-2.6h-1.1l.5.9zm10.7-3.7l.4-.6h-.7zm-13.7 1.9l.7-1.3h-.9l-.1-.5 1.4.3-.2-1 1.2 1.6v-.3l.7.8.2-1.2-.8.1.4-1.5-1.8.3v-.2l-1.2.9-.2-.7-1.4 1.2 1.7.7zm.1 3.2l.2-.6-1.6.3 1.2 1.4.2-.9h.2zm.2 4.5l.6-.5-.7-.3zm-2.7 2.6l-.4.5.8.1zm5.9.9l.3-.6-.7.1zm5.5-16.2l.7-.5-.6-.4zm-2.4 1.2l.7.3-.2-.7zm1.7-1.1l-.3-.7-.4.4zm2.3-5.8h-.8l.4.6z"/><path d="M222.1 174l-.7.1.3.5zm.7-2.1l.3-.7-.9.2zm.5-1.7l.2-.8-.9.2zm3.2-4.7l-.7.2.5.4zm-3 1.3l-.2.6h.6zm-15.6 20.9l.2-1 1 .3-.5-1.7 2.3.6-.3.7 1.2-.1-.8-.9-.1.3-.4-2 1-.1.1.4.4-.4v-.1l.9-1.1-1.8-.5.2.5-.3-.4 1.2-1.5-1.9-.5.5 1.6-.4-.7-1.8 3.1h.2l-1.3.9.5.1-1.2.9.2.1-.3.1zm-4.1 5.6l1.6 1.1-.1-1.8zm-37-8.1l1.6 1.1-.1-1.8zm47-5.1l-.3 1.1-.6.4 1.2.5-.2-.8 1.1-.2zm10.3-8.1l-.3.1.2.3-.1.2 1.6-.2-1.1-1zm2.9-9.2l.3-.4-.5-.1zm-10.8 20.3l.6-.3-.6-.3zm4.7-4.4l-.4.6.7.1zm-1.4 2.4l.6-.6-.8-.2zm-4.1.4l-.6.2.5.5zm5.9-6.4l.1-.1-.3-.6-.3.7-.3.1.8.4zm-2.3 4.3l-.4-.6v.1l-1.2-2h.6l-.3-.6-.4.6-.1-.2-.1.1-.6-.9-.5.8-.2-1 .8-.2-.1.2 1.5-.3-1.1-.9 1.6-.2.1.4.6-.6h-.3l-1.3-2.1-.4.6v-.2l-.8.9.3.1v.1l-.2-.1.1.4-.4.6h-.3l.1.2-.7-.9.2.1-.2-1.2-.8.9.5.1-1.2 2.5v-.1l-.5 1.2-.2.2h.1l-.4 1 2.3-.1-.2-.4 1.4.4-.4.1.2.2-.5.8 3-.3-.3.5.7-.2zm-2.3-4.9h.4l-.4.9-.4-.5.4-.4zm-2.9 1.6l1.1-.3-.9.7-.2-.4zm2.4 1l.8-.1-.7 1-.1-.9zm-6 11.9l-.8-.3v.8zm5.2-4l-.3-.8-.5.6.4.1-.2.5.7-.1-.3-.4zm14-21.7l.1.7.5-.3zm.4 3l1-.5-1.1-.7zm-1.1-3.5l-.6-.3v.6zm-1.3 1.2l-.6-.4v.1l-.2-.1-.1 1.6 1.3-.9-.4-.2zm-11.5 22l-.1.9.8-.5zm-5.6 3.1l1.2.5-.4-1.2zm10.9-4.4l-.1-.8-.9.6zm-1.7 1.2l.4-.8h-.8zm-24.3 15l.4-.5h-.7zm7.6-6.8l-.2.6.7-.1zm-2 .8l-.2.6.7-.1zm-1.1 2.6l.4-.9-.9-.1zm4-2.2l-.7.4.6.4zm-1.4 1.9l.1-.7-.6.4zm-.6 1.7l.3-.7-.7.1zm6.4-9.5v.6l.7-.4zm-1.6 1.3v.6l.7-.3zm-.3 2.8l.1-1-.8.2zm2.7-2.7l.6.2-.1-.7zm-.4 1l-.5.5.7.2zm0 2.5l.1-.7-.6.3zm6-8.4l-1-.3.2 1.2zm-2.4 2.6l-.1-1.8-1.5.7zm-1.8.9l-.6.3.5.4zm2.9-4.7l-.1.7.7-.3zm-.2 1.9l-.9.2.8.8zm1.8 4.5l.1-.9-.9.2zm-3.2-6.5l-.7.9 1.4.3zm4.4-.3l-.4.5.6.3zm-1.3 2.1l.6.1-.1-.7zm.5 1.9l.1-.7-.6.3zm-9.6 8.7l.5-.3-.3-.3zm-2.2 1.5l.5.1-.1-.4zm3.8 1l.2-.4h-.4zm-7.6-.1l.4-.3-.4-.2zm-2.3 1.5l.4.1-.1-.4zm3.7 1l.3-.4-.4.1zm-13.5-3.8l1.1-.5-.8-.7zm-4.9-1.1l-.5.4.7.3zm-2-.4l-.6.4.7.3zm-3.8-1.3l-.5.4.7.4zm2.1-.6l.7.3-.2-.7zm-.7 3.5l.8-.6-.7-.5zm-2.7 1.8l.9-.5-.7-.6zm-1.5-3l.8-.5-.7-.6zm7.7-.9l.7.3-.2-.7zm-1.1-1.5l.1 1 1-.6zm-.9.7h-1.3l.7 1.3zm1.4-2.5l-1.1-.5v1.1zm6.7 3.8l1.1.4-.2-1.1zm-6.9-3.3l-.9.7 1.1.5zm5.4 2.8l.6-.8.7.9 1.3-2.2 1.1.9-1.4.4 1 1.1-.3-.1.4 1.8 1.2-1.4-.7-.2.3-1.3 1.1 1-.8.6 1.1.5-.3-1.2v-.1l1.1.8v-1.3l-1 .4.9-2.6-3.4.6.2-.3-3.2-.1-2.9-.6.1.3-1.8-.6.4 2.2.4-.4v.7l.7-.4-.5 1 2-.4.3.6.5-.6.6 1.1-1.1.1.8 1.2.3-1.1.1.2.2-.2.7.4.2-1.1-.9.2zm-3-2.3l-.3.6-.7-.3.9-1 .8 1.6-.7-.9zm2.8.4l.8 1.1-1.5-.2.7-.9zm-3.4 4.4l-.7-.1.2.6zm-2.2.8l.5-.5-.8-.1zm2.7-1.9l1.4-1.2-1.5-.6zm-4.2 2.9l.6-.3-.6-.3zm-2.4 1.6l.7-.3-.7-.3zm12.3-4.2l-.4.4.7.2zm-2.1-.2l-.5.4.7.3zm-2.2 1.8l.8-.6-.8-.5zm4.5-.1h-.7l.3.6zm-2 1.1l.4-.6h-.8zm-1.4 1.1l.6-.4-.7-.2zm-3.6-.1l.6-.4-.6-.2zm5.4.6l.3.3.1-.4zm-3.9-1h.5l-.2-.4zm-2.7.3l.3.3.1-.4zm-2.2 2.2l.3.3.1-.4zm-9.1-12.5l-.6.1.4.6zm-1.6-1.3l-.7.1.5.6zm-.6-2.4l.5.6.2-.8zm-2.3 2.6h1l-.4-.8zm4.1-.1l.4.6.2-.7zm-.2-1.9l-.5 1 1.3-.1zm-1.2.2l-1.1-.6.1 1.5zm2.5-1.6l-.8-.9-.5 1zm-.5.4l-1 .2.7 1z"/><path d="M173.3 192l.9-.4.2 1.2 2.2-1.4.5 1.3-1.4-.4.3 1.4-.2-.2-.5 1.8 1.7-.6-.5-.5.8-1 .5 1.4-1 .2.7 1 .3-1.1.1-.1.6 1.2.6-1.2-1-.1 2-1.9-3.3-1.1.3-.2-2.8-1.6-2.3-1.9v.3l-1.3-1.4-.7 2.1.5-.2-.3.6h.8l-1 .7 2 .6v.6l.8-.3v1.3l-1-.4.2 1.4.8-.8v.2l.3-.1.4.7.6-.9-.8-.2zm-1.6-3.5l-.5.4-.5-.5 1.2-.4-.1 1.7-.1-1.2zm2.3 1.6l.2 1.3-1.2-.9 1-.4zm-5.1 2.3l-.6-.4-.1.7z"/><path d="M166.6 192.1l.7-.2-.7-.4zm3.3-.4l1.8-.5-1-1.2zm-5.1.6h.7l-.4-.5zm8.2 1.1l-.6.2.5.6zm-2.7.6l.9-.1-.5-.8zm-.1 2.4l.7-.1-.5-.5zm-1.6-1.4l.4.2v-.4zm-2.5-1l.1.4.3-.3zm17.6 9.9l.5-.2-.4-.1zm36.8-31.7l-.7-.1.2.6zm-1.3 3.7l-.8.5 1 .5zm-.7-3.1l.6-.6-.8-.1zm3.8-8.5l.9-1-1.2-.1zm-1.7 1.5l.4 1.1.9-1zm-3.9 7l-1.2-.2.3 1.1zm4.6-.2l-.3.7h.7z"/><path d="M217.2 172.3l-.3-.5.7.2-.2-.8.9.9.3-2.1.7-.1-.5-.7 1.3-.2-.2 1 1.5-.5-1-.7h.2l-.2-.2.7-.6-1-.5v.6l-.5-.7.8-.2-.9-1.1 1.8-.7 1.1.1-.7.8.6.1-.8.5 1.1.7-.1-1.1.5.1.1.1.5-.6h-.7l-.2-.6.8.1-.9-1.6-.8 1.2-1.8-1 2.4-.6-1-1.2.7.3v.5l1.3-.9-.9-.3.9-.1-1.1-1.1-.4 1.1-.5.4-.7-.8.5.3v.1-.1l.2.2v-.5l.5-.8-1.3-.1.2.5-.4.2-.2-.2-1.5 3.4.9-.2-.1 1.6-1-1.1-1.3 3.4-1.3 2.1h.3l-1.2 1.6 2.2.4zm-.5-1.9l.5.5-.5.6-.6-1.2 1.8-.2-1.2.3zm2.5-2.8l-.6 1.1-.5-.8 1.1-.3zm.5 2.4l-1.2 1.2 1.9.5z"/><path d="M223.4 163.3l-.6 1.6 2-.3zm-.8 7.1h.1l-.1-.1-.1-.3-.1.1-.4-.6-.6 1.2.4-.1h-.1l1.1.4zm1.3-1.4l.7-.1-.5-.6zm2.7-3.2l.3.5.1-.5zm-.3 2.8v.1l-.4.1 1.4 1.3.2-1.8-1.1.3zm3.5-1.9l-.3.2.3.2zm-5.9 8.4l-.4-.3.3-.1-.6-.4-.1.8.4-.2v.3zm3.1-1.7v-.6l-.3.4zm-13.7 20.4l.2-.5-.5.1zm2.5-.9l.5-.2-.4-.3zm-2.7-2.6l-.4.3.4.1zm3.7-9.2l-1.3.3 1 1.2zm.9.4l.3-1.4-1.3.2zm16.4-59.7l-.7-.9-.5 1.2zm-.7 27l-.5-.5.4-.3-.6-.4v.4l-.5-.6-.2.7.7-.1-.1.4.2-.1-.2.6zm-5 5.1l-.4 1h1.2z"/><path d="M230.5 149.1h-.7l.2.6.4-.5 1.1.5-.3-1.2zm1.7 5.2l-.9.7 1.2.5zm-2.9 3.9l-.8.7 1.2.5zm3.6-8l.2.6-.4.6.6.1-.1-.2.7-.8zm-1 7.1l.3 1.2.8-.9zm1.3-13.7l-1-.2.2 1.2zm-11.4 16.1l1.2 1.5.1-.2.6.7.3-1.1-.9.1.4-1.6-1.7.3v-.2l-1.4 1.1 1.6.4zm8.2-3.4l-.1.8.7-.4zm-2 1.6l-.5.5.7.2zm1.2-.6l-.2-.7-.5.4zm2.3-5.9l-.7.1.3.5zm-1.8 4.1l.4-.6h-.7z"/><path d="M230.9 152.8l.2-.8-.9.3zm.4-1.8l.2-.7-.8.2zm3.2-4.6l-.7.2.6.4zm-2.6 1.8l-.3-.6-.3.7zm-8.8 10.9l-.2-.4 1.4.4-.4.1.2.2-.5.8 3-.3-.3.5h.7l-.4-.6v.1l-1.2-2h.6l-.3-.6-.4.6-.1-.2-.1.1-.6-.9-.5.8-.2-1 .8-.2-.1.2 1.5-.3-1.1-.9 1.6-.2.1.4.6-.6h-.3l-1.3-2.1-.4.6v-.2l-.8.9.3.1v.1l-.2-.1.1.4-.4.6h-.3l.1.2-.7-.9.2.1-.2-1.2-.8.9.5.1-1.2 2.5v-.1l-.5 1.2-.2.2h.1l-.4 1 2.3-.3zm1.9-1.3l-.7 1-.2-.9.9-.1zm-.3-2.4h.4l-.4.9-.4-.5.4-.4zm-2.8 1.5l1.1-.3-.9.7-.2-.4zm10.5-4.7l-.2.7h-.4l.2.4-.1.2 1.6-.2zm2.9-9h-.5l.2.5zm-6.3 16.4l-.4.6.6.1zm-.8 1.8l-.9-.3.3.8zm-4.8 1l-.6.2.5.5zm6-6.5h.1l-.4-.7-.3.7-.3.1.8.5zm5.7-33.1l.9-.6-1-.6zm1.6 20.9l-.6-.4.1.7zm-1.3 1.2l-.6-.4.1.1-.3-.2v1.6l1.2-.9zm-6.8 8.2l-.8-.1.2.6zm-2.2 4.2l1.1.5-.3-1zm.2-3.7l.5-.5-.8-.1zm4.6-9.4l-1.2-.1.3 1zm-2.5 2.5l.3 1 .9-.9zm-3.9 6.9l-1.3-.1.4 1z"/><path d="M229.4 153.4l-.3.7h.6zm-4.2-.2l-.3-.5.7.2-.2-.8.9.9.3-2.1.7-.1-.5-.7 1.3-.2-.3 1.1 1.5-.5-1-.7h.2l-.2-.2.7-.6-1-.5v.6l-.5-.7.8-.2-.9-1.1 1.8-.7 1.1.1-.7.8.6.1-.8.5 1.1.7-.1-1.2.5.1.1.1.5-.6h-.7l-.2-.6.8.1-.9-1.6-.8 1.2-1.8-1 2.4-.6-1.6-1.9.7.5-.1-.8 2-.9-1.2-1 1.2.3-.4-.8 1.1-.3-1.3-.9-.2 1.1-.5.5-.8-.7.6.2.1.1v-.1l.3.1-.1-.5.4-.9-1.3.1.3.5-.4.3-.2-.2-.7 2.8-1.5 3.4.9-.2-.1 1.6-1-1.1-1.3 3.4-1.3 2.1h.3l-1.2 1.6 2.2.4zm-.4-1.9l.5.5-.5.6-.6-1.2 1.8-.2-1.2.3zm2.5-2.8l-.6 1.1-.5-.8 1.1-.3z"/><path d="M227.7 150.8l-1.1 1.3 1.8.4zm3.7-6.6l-.5 1.6 1.9-.3zm-.8 7.1h.1l-.2-.4h-.1l-.4-.6-.6 1.2h.3l1.1.3zm1.3-1.4l.7-.1-.4-.6zm-2.2-7.1l.1 1.3 1.2-.8-.1-.1 2.8-.8-.1.5.7-.1-.5-.5v.1l-1.8-2-.7 1.7-.3.2.2.1-.3.8zm4.9 3.9l.3.5.2-.6zm-3.1 9.4l.4-.2-.3-.2.2-.1-.6-.5-.1.9.5-.3zm-7.2 7.1v.2h-.1v.6l.7-.4-.3-.1.6-.7-.5-.1.1-.8-1.3.3zm1.8-2.3l-1.3.3.9 1.2zm8.2-39.8l-.6.5.6.2zm1.6 9.7l-.2 1 1.2-.2zm1.3-5.1h-.7l.3.6.4-.5 1.1.3-.5-1.2zm.3 9.2l-.7.8 1.2.2zm-7.2 2.6l1.5 1.3v-.3l.7.7.1-1.2-.8.3.1-1.6-1.6.6-.1-.2-1.2 1.2 1.7.1zm8.9-13.7v.4l-.6-.5-.1.8.7-.3v.5l.2-.2-.1.6.7-.2-.6-.4.4-.4zm-1.3 9v.9l.7-.6zm-2.1 2.4l.7.2-.3-.6zm.7-1.4l.7.1-.3-.6zm1.4-5.8l.3.5.4-.7zm-.5 4.1l.4-.7-.7.2zm.9-3.6l-.9.3.8.4zm.1-1.8l-.8.3.7.4zm-.8 1l-.1-.3-.1.1-.4-.5-.5 1.2.4-.1h-.1l1.2.2-.3-.5h.1zm-.2-4.5l-.7.3.6.3zm.6.8l-.1.7.6-.1zm-6.5 12.6l-.3-.4 1.5.1-.4.2.2.2-.4.8 2.9-.8-.2.5.7-.1-.5-.5v.1l-1.5-1.8.6-.1-.4-.5-.3.6-.2-.2-.1.1-.7-.8-.4.8-.3-1 .8-.3-.1.3 1.5-.5-1.2-.8 1.6-.5.2.4.5-.6h-.3l-1.6-1.9-.3.6-.1-.2-.6 1.1h.3v.1h-.3l.1.4-.3.7h-.3l.1.2-.9-.8h.3l-.5-1.2-.6 1.1.5.1-.8 2.6-.1-.1-.3 1.3-.2.2h.1l-.2 1 2.5-.4zm1.7-1.5l-.5 1.1-.3-.9.8-.2zm-.7-2.3l.4-.1-.2 1-.5-.5.3-.4zm-2.6 2l1.1-.5-.8.8-.3-.3zm4.1 6.1l-.7-.2.1.7zm3.7-4l-.3-.6-.3.6zm-.9 1.3l-.8-.2.4.8zm-4.4 1.7l-.6.3.6.4zm2.8-10l.3.6.4-.6zm-.7 4.5l1.1.3-.4-.9z"/><path d="M234 130.8l.5-.7-.8.1zm3-10l-1.2.2.6.9zm-.7 2.7l-1.3.1.6.9zm-4 7.5l-1.3.1.5 1zm4.3-.1l.7-.2-.5-.6zm.2 1.1l-.2.7-.2.1.8.3v-.5l.1-.1zm-4.1-1.5l-.4-.4.8.1-.3-.8 1 .7-.1-2.2.7-.2-.6-.6 1.2-.5-.1 1.1 1.3-.7-1.1-.5.2-.1-.2-.2.5-.6-1.1-.3.1.6-.8-.8-.5 1.6-.9-.9 1.8-.9-1.9-1.5-.5 2.8-1 2.8.3-.1-.9 1.8 2.5-.2zm-.7-1.7l.6.4-.4.6-.9-1.1 1.7-.6-1 .7zm2.7-1l-.9 1.4 2 .2zm0 10.2l-1.2.5 1.1 1zm1.5 2.5l-.7.8 1.2.3zm-3.4-17.8l.5 1.1.6-1zm2.1 17.8l-.4.4.7.2zm-2.3 6.1l-.7-.2.2.6zm3.8-4.1l-.3-.6-.3.6zm-.6-4.5l-.7.5.8.3zm-1.5 2.4l-.4-1-.7.7zm-18.5 49.3l.9-.6-.7-.4zm-3.7 2.3l-.6.5.8.4zm6.6 2.5l.6-.7h-.9zm1.8-5.3l.4-.6h-.7zm-8-.8l-.8.3.7.7zm-.7 6.1l.8-.4-.8-.4zm-22.2 6.8l-.5-.5-.3.6zm4.1-.7l.2-.8-.7.3zm-2.6 1.8l.1-.7-.6.3zm3.5 2.4l.2-.8-.6.4zm-3.7-4.4l.1-.7-.6.3zm-1.3 5.2l.2-.4h-.4zm4.6-5l.8-.4-.8-.4zm23.1-10.5l.7.2-.2-.9z"/></g><linearGradient id="D" gradientUnits="userSpaceOnUse" x1="216.485" y1="158.955" x2="172.64" y2="126.716"><stop offset=".364" stop-color="#7a3a2b"/><stop offset="1" stop-color="#af614e"/></linearGradient><path d="M216.7 101.1c-11.7-.2-23.3 8.7-36.9 29.3-13.6 20.7-17.4 31.7-16 41.3 1.5 9.6 3 13.5 11 18s18.2 6.4 26.4-1.4 17.5-22.2 23.7-38.3c6.7-17.4 9.3-30.6 7.2-38-2.2-7.3-10.2-10.8-15.4-10.9z" fill="url(#D)"/><path d="M218.4 84.8s1.5-.8 2.5 1.5c1 2.4 1.1 4 1.8 5s1.4 1.9 2.2.1 4.6-11.3 5.4-13.7 1.7-1.7 2.2-1.1c.6.6-.3 6.1-.4 7.5s-.3 2.8.1 2.1 1.5-2 2.5-.9c1.3 1.5.7 2.7.7 2.7s1.3-.3 1.7 1.4c.1.6 0 2.2 0 2.2s1.1.1.8 3-1.8 5-3.1 6.6l-2 2.4-10.5 31.8c-3.8 11.7-10 22.7-11.4 27.2s-24.7-13.7-24.7-13.7l25.3-38.2c5.9-8.3 7.6-10.2 7.8-11.7s-1.1-3.3-1.1-5.5c.2-2.3.7-5.7.2-8.7z" fill="#ea9d7d"/><linearGradient id="E" gradientUnits="userSpaceOnUse" x1="209.418" y1="128.115" x2="225.677" y2="137.466"><stop offset=".005" stop-color="#cc7a5e" stop-opacity="0"/><stop offset=".924" stop-color="#aa5f4b"/></linearGradient><path d="M180.3 166.9s17 2.4 23.4-1.7c5.4-3.4 9-7.5 12.7-14.9 2.8-6 5.4-12.2 9-23.6 3-8.4 5.9-17.7 7.5-22.5.5-1.4 2.6-2.7 4.3-6.4.4-.8 1.4-3.3.8-5.1-.4-1-.8-.7-.8-1.2 0-.6.4-1.9-.2-2.8-.5-.7-1.4-.6-1.6-.8-1.5-2.2-4.6-.9-7.1 5-2.6 5.9-13.2 24.7-22.5 41.5-7.5 13.3-10.5 27.2-25.5 32.5z" fill="url(#E)"/><g fill="#a84d3b"><path d="M224.6 124.5l1.3-.1-.7-.9zm1.8-3.2l-1.1.1.7 1-.6.3.9 1.1.5-1.7-.7.3zm-3.2-.8l-.3 1.1 1-.5zm3.6-.6l.9-.4-.8-.6zm2.1-6l.9-.5-.7-.6zm-1-3.6l-.1 1.1.9-.5zm-.1-3l-.9.3.8.8zm3.8-1l-.9.2.8.7zm-3-.5v.9l.9-.5zm.2 3l-.1.9 1-.4zm.2 7l.5-1.7-1.4.5zm-1 3l.5-1.8-1.4.5zm2.9-10.1l-.8-.3-.1.9.9-.5.3.3.5-1.7-1.4.6zm-1.1-2.7l-.2.3.4-.1zm-1.8.7l-.2.1.2.2zm2.1 1.4v.2l.2-.2zm-3.2 9.9l-.3.3h.4zm-1.9.1h-.3l.2.2zm1.6 2.2l-.3-.2v.2zm-8.3.1l-.1.4.3-.2zm3 2.1h-.3l.2.4zm3.3.7l-.3.3.4.1zm-4.8-1.9l-.1.3h.3zm7.9-9.3v.6l.5-.2zm0-3l-.4.4.4.1zm-2.8 3l-.4-.1.1.5zm-2.8 10.5l-.2-.5-.3.5zm.8-3.3l-.4.1.3.3zm-3.7 1.6l-.4-.2v.5zm10.2-9.7l-.1.5.5-.1zm-.5-2.7l.5.1-.1-.4zm-2.4 2.6l-.4-.1.1.5zm-.2 7.1v.6l.4-.2zm-1.9 3.6v.6l.4-.2zm3.5-6.7v.6l.5-.1zm1.9-4.4l.2-.5-.6.1zm-3.6 4.6l-.3.2.4.2zm-2.8 2.8h-.4l.2.5zm.8 1.5l-.2.5.5-.1zm1.1-2.8l-.5.1.4.3zm-4.1 1.4v.5l.4-.3zm5.3-4.2l-.6.2.5.3zm-2.7-1.2l-.4-.2v.5zm.5 3.7l-.3.4.5.1zm8.8-13v-1l-.8.3zm2.2-5l-.3.9 1-.2zm.9 1l.5-.8-.8-.2zm1.1-1.9l.3-.8h-.8zm-2.6 4l.6-.7-.8-.3zm-.9-.3l.5-.5-.6-.2zm-2 1.6l-.4.6h.7zm-1.7.6l-.4.6h.7zm6.9-7.2l.7-.1-.4-.6zm-.2 2.3l.3-.7h-.6zm.6-5l.5.6.1-.8zm-7.6 12.2l1-.2-.7-.6zm1.1-1.4l.2.8.7-.7z"/><path d="M232.4 105.3l.6-1.7-1.5.5zm1.1-2.4l1.2-1.3-1.6-.2zm1.8-2.3l.9-1.2h-1.3zm.7-3.4l-.4.1.2.3zm0-.6l.3-.2-.3-.2zm-1.2 1l-.3.2.4.1zm2.5-2.6h.3l-.2-.4zm-.3-1.1h-.2l.2.3z"/><path d="M235.9 93.4v.3l.2-.1zm-3.8 11.5h0l-.4.1-.1.1-.4.1.8.7v-.8l.1-.2zm.6-5.5v.4l.4-.1zm-1.7 3.3l-.4.2.4.1zm1.9-.6l-.1-.3-.2.2zm-1.7-.2h-.3l.2.2zm1.1 1.9l.3-.1-.3-.1zm2.1-5.5l-.3.2.3.1zm-1.7 0h-.2l.1.3zm1.2 1.7l-.1.2h.3zm-3.6 1.7l-.3-.1.1.3zm3.3-3.9l-.2.3h.3zm1.3-2.5l-.2.1.2.1zm-2.5 5.2v.5l.3-.2z"/></g><linearGradient id="F" gradientUnits="userSpaceOnUse" x1="221.571" y1="109.097" x2="212.653" y2="130.437"><stop offset="0" stop-color="#cc7a5e" stop-opacity="0"/><stop offset=".924" stop-color="#aa5f4b"/></linearGradient><path d="M221.6 100c8.9 6.8 10.5 6.7 10.5 6.7l-3.5 10.2-2.9 9-18.6-8.7s4.1-5.7 7.9-11.4c3.9-5.3 4.5-7.5 6.6-5.8z" fill="url(#F)"/><linearGradient id="G" gradientUnits="userSpaceOnUse" x1="208.54" y1="175.104" x2="191.448" y2="127.547"><stop offset="0" stop-color="#884130"/><stop offset=".98" stop-color="#af614e"/></linearGradient><path d="M232.6 129l-29.8-14.1s-23.7 29-31.1 45c-7.3 16-1.5 25.3 6.8 30.5 8.3 5.3 23 4.3 31.3-9 12.2-16.7 22.8-52.4 22.8-52.4z" fill="url(#G)"/><g fill="#bf735c"><path d="M207.4 129.8h1.1l-.5-1.1zm-2.5-3.2v-.3l-.3.3-.4-.6-.4.6h.8l-.3.3.7.2-.1-.5.7.1-.3-.7zm4.9-2.8l.1.7.6-.5zm-1 1.6l.1.8.5-.6zm-3.5 10.3l.3-.7-.6.1zm-1.8-9.2l-1.8-.1.6 1.4zm9.2-2.1l.3.7.3-.7zm-2.5 7.2l-.7.2.6.4zm.7-1.7l-.5.4.5.1zm0-2.7v.4h.1v.4l.5-.4-.3-.2zm2.8 2.6l-.3.1.2.3.1-.2.7.1-.5-.7zm11-3l.4 1.2.7-1.1zm-21.5-3.2l.2-.6-.6.1.4.6-.2.9 1.2-.3zm6.5 2.8l.3 1.2.7-1zm10.7 0l-.8.7 1.2.5zm-12.9-1.5l.2-.1-.5-.3-.2.6-.6.3.9.6zm4.7-4.1l.3-1.2-1.1.5zm9.6 3.5l.1 1.8 1.9-.9z"/><path d="M220.2 123.4l-1.7-.6-2.3-1.3v.1l-1.3-.7-2.4-1.1.6 2.5 1.7-1.3v1.4l1.4-.7-.1 2.2-.7.3 1.5 1.6.2-2.1 1.4-.6v1.2l-.6.5 1.3.7-.2-1.1.9-.7v1.5l1.9-.9-1.7-.8zm-.8 1.8l.3 1.2.6-.7 1 1.1.3-1.9-1.3.5zm-5 9.6v-.6l-.7.3zm-2.7.1v-.6l-.6.3zm6.7-6.8l-1 .4 1.1.5zm-2.2 3.9l.2-.7-.6.1zm4.4-3.4l.8-.3-.6-.5zm-9.3-3l-.6-.1.1.7zm.9 7.4l.6-.3-.6-.3zm-5-10.8l-.8-.2.4.8zm-1.9 1.3l.3.8.5-.6zm.6-.5l-.6-1.1-.3.5-.8-.5v.9l.8-.2-.3.5zm-1.5 7.8l-.2-1.5-1.1 1zm.5-2.3l-.7-.1.3.7zm-2.4-3.1h.7l-.3-.6zm7.6 8.1h.4l-.2-.4zm-.4-4.3l.4-.3-.5-.1zm14.2-3.9l-.1 1.6 1.4-1zm-8.3-2.9l-1 .4.8.8zm2.1 2.5l-.4 1.5 1-.4.2.8.8-1-.7-.1zm-8.5-1l-.8-1.3-.1.2h-.5l.3.4-.4.5zm-8 5.6l-.5.2.3.4zm13.7-4.3l.2-.8-.8.1zm1.6 3.5h.8l-.4-.5zm-3.2-.1l-.2-.8-.6.7zm4.3-1.1l.1-.7-.6.2zm-8.4-3.4l-.9.1.5.6zm3.5 2.2l-.1.7.7-.4zm-6.4 8l.7-.2-.6-.4zm3.8 5.1h.4l-.3-.5zm-4.9-7l-.6.3.7.2zm1-.6l1.2.3-.2-1zm-4-1.6l-.6.4.7.2zm-.6-3.4l-.7.4.7.2zm16.8 5.1h.8l-.5-.7zm-5.2 0l.3.9.7-.7zm2.2.1l-.6.4.7.4zm-3.2-7l-.7.8 1.1.4zm7.4 5l-.5-.4-.1.7zm-12.2-10.9l-.4-.5-.5 1h.9l.1.8.6-.4.2.3.2-.4.9-.6.6.2v-.5l.5-.3-3.3-1.3z"/><path d="M220.2 129.2l.8-.1-.4-.5zm2.3-1.9l1.1-.9-1.2-.4zm-4.5 2.4l.2.7.5-.5zm1.5 1.7l.4-.5-.7-.2zm1 1.4l.2-.6h-.7zm-13.9-15.1l-1.5.7 1.4 1.2zm6.2 4.1l-.1-.6-.2.1-.7-.3-.1-.4-.2.2-1.6-.8v.7l-.1-.3-.6.6.7.2v.3l-.7-.4h.1l-1.4-.8-.1 1.4 1.4-.5v1l.7-.3-.1.8 2-.9-.4 1.2h-.1l.1.1.8.5.2-.8.4-.2-1-.8.4-.2zm-2.1 2.3l.2.4-.3-.2-.1.5.4-.3.2.6.6-1zm-5.7-5l.1-.8-.6.3zm-.7-2.5l-.2 1.2.4-.2v.9l2.8-1.3-2.8-1.4v.9zm-1.6 1.3l-.7-.1.6 1.9 1.7-1.5-1.2-.2.8-.3-.7-.6.7.1-.4-.7.9-.8-1.1-.4.1.9-.5-1.1-1.3 1.6 1.4.3zm8 2.2l.8-.8-1.2-.4z"/><path d="M200.9 124.5l.3-1.3-1 .3zm6.2-4.6l-.4.7.8-.1zm-4 .6l1.9-.3-1.4-1.3zm-2.3 1.2h1.1l-.5.3 1 .6.1-.8h.3l-.1-.2 1.1.5-.4-1.5-.8.8-.5-1.3.5.1-.8-3.5-1.8 2.2v-.1l-2.2 3 3.2.5-.2-.6zm.9-1.6l-.9 1.6-.5-1.9 1.4.3zm3.4 5.4h.8l-.3-.7zm-.1 3.8l.4-.5-.6.1zm2.2-2.2l-.1-.4-.3.3zm.3 3.7l.4-.2-.4-.2zm-.2-7.7l-.7.3.1-.6-.6.1.3.5-.4.2 1.1 1.1zm8.5 3.9l.3-1.6-1.3.5zm-2.9-3.2l-.5-.2v.6l.5-.2 1.4-.6-1.4-.7zm-7-3.6l.1-.7-.6.2.4.5-.3-.2-.1 1.9 2-.8zm-23.5 45.9h1.2l-.5-1.1zm-2.2-3.5l-.1-.2-.3.3-.3-.6-.5.6h.8l-.3.3.7.2v-.5l.7.1-.4-.7zm5.1-1.6l.6-.6-.6-.2zm-1.2.8v.7l.6-.5zm-4.1 10l.3-.6h-.6zm-4.9-10.9l.5 1.5 1.4-1.2zm12.9.1l.3.7.3-.7zm-2.2 5.9v-.5l-.4.3zm.2-2.8h.5l-.4-.4zm2.6 2.8l.2-.4-.4.1zm-7.4-13.5l-.6.9 1.3.1zm-1.7 6.8l.2-.7-.7.2.4.6v.9l1.1-.4zm3.7-4.2v1.1l1.1-.4zm15.9-22.9v1.1l1.1-.4zm-2-7.3l-.6 1 1.5.1-.5-.8.8.5-.2-1.4h.3l-.2.1.9.9.2-1.3-.5.2-.6-1.8 1.9 1-.6 1.4h.2l-.5.7 1.9.3-.6-1h.8l-.5-.6.7-.1.4.6.3-.7h-.1l-.3-.3 1.1-.6-1.2-.5v1l-.4-.4-.3 1-.7-.8-.4-2.1-1.6 1.2-.4-1.3-2.2 2.8 1.5.4-.1.5zm1-.5l-.3.2-.6-.3.9.1zm-16.3 36.3l.8.7.3-1.1.2-.1-.5-.4-.2.6zm5.8-1.4l.3-1.1-1.1.4zm13.2-22.5l.3-1.2-1.2.6zm-23.9 26.8l-1.2.5.9.7zm26.8-26.5l.2-.7-.6.1z"/><path d="M183 143.7l.4-.3-.3-.1h.1-.2l-.8-.3v.5l-.5.1.9 1zm1 12.4l-.1-.8-.6.6zm.1-2.4l-.6.6.7.2zm-.2-2.9v.6l.6-.2zm-.7 1.8l-.1.7.7-.3zm-2.8 5.7l.2-.7-.6.1zm2-3.2l.3-.7-.7.1zm-1.7 2.5l.4-.6-.8-.2zm0 2l.2.5-.1.3.2-.1v.1l.5-.5zm-2.4 6.8l-.1.1.7.2.4.2v-1.6l-1.2 1zm1.7-1.8l-.6-.2.2.7zm-.8-3.2l-.3.6h.7zm5.6 8.6h.4l-.2-.4zm-.1-4.8l.1.5.3-.3zm-2.5-18.1l1.1-1.2.4.7.8-.9h-1.1l.3-.2-2-.1.9-.4-1.3-1.1v1.7l.2-.1zm.2 10.3l-.8 1.1 1.5.3zm-5 10.2l.3-.5-.6.1zm22.7-35.2l-.2.7.7-.3zm.8-1.8l-.8.3.7.4zm-2.2-3.6l.4-.5h-.7zM181 170.5l.7-.1-.6-.5zm-1-2l-.6.3.7.3zm1.1-.5l1.2.4-.1-1zm-2.5-.2l-.6.4.6.2zm.5-7.2l-1.3-.5.1 1-.4-.4-.3 1.1.7-.2.4.6.2-.7h-.1l-.3-.3zm1.1-6.4l-.7.2.5.6zm2.2-3.7v.9l1-.3zm-3.2 3.3l.1-.8-.6.2zm-3.1 8.7l-1.1.3.9.9zm-.1-4.3l.9.9.2-1.3zm2.7-8.1l-.4.1-.6-.5-.3 1.2.4-.2.6.6zm2.5 4.6l-.4.7.8-.1zm1.3-1.2l-.4.6h.8zm-4.8 2.1l1.8-.4-1.4-1.3zm1.7 2.2l.2-.1h.2l.5-.2-.9-.7v.1l-.2-.4-.5 1.2h.7zm1.6 3.2l-.5.6h.7z"/><path d="M172.5 165.3l1.7-.1v.2l.7-.5-.8-.3v.3l-.8-.9-.4-.7.9-.5-1.1-.4 2.5.2-.6-1.6h.1l-.3-.6-.3-.7-.1.1-.3-.6 1.4.5-.7.9 1.9.4-.9-1.7-.1.2-.6-1.6h1.4l-.4-.8h.7l-.5.3 1 .5.1-.9h.3l-.1-.2 1.2.4-.5-1.4-.7.9-.6-1.1h.8l-.3-.6 1.6-1.6-1.3-.2.8-.3-.6-.5 1.1-.1h.1l-.2.6 2.1-.2.4.5.1-.5h.1v-.3h-.1l-.9-1.6 1.4.3-.7-1.4-.7 1-.2-.3.1-.6h.3l-.2-.6 1.2-.6-.4.8 1.1-.1-.1.1h.2l-.2.6.6-.1-.4-.6 2.3-.2-1.5-2.7-.4.8h-.3l.1.4-1.1-.9h.5l-1.3-1.9-.6.9-.1-.1v.3l-.6.9v-.1l-1.8 2.6 2.1.3-.4.1.2.2-.5 1.1-.2-.2-.3 1.1-1.6-1.5-.6 1.9.9-.1-.2.7-.7-.1.5 1.4-1-2.2-1.7 3.3-1.2 2.4-1.5 3.2-1.3 3.4 2.8-.3-.3 1.3zm9.5-16.2l-.4-.7.9-.4-.5 1.1zm-2.1-2.1v1.6l-.5-1.6h.5zm-3.8 8.4l-.5 1.1-.5-1.1h1zm-1.6 2.4l-.9 1-.5-1h1.4zm-1.2 3.2l-.8 1.3h.1l.1.5-1.1-1.7 1.7-.1zm11-16.5l1.7.1v.2l.8-.4-.7-.4v.3l-.7-1-.3-.8 1-.4-1-.6 2.4.6-.3-1.7h.1l-.3-.4-.2-.8-.1.1-.2-.6 1.3.7-.8.8 1.8.7-.6-1.9-.2.1-.3-1.6 1.4.2-.2-.9.7.1-.5.2.9.7.2-.8h.3l-.1-.2 1.1.6-.2-1.5-.9.7-.4-1.2.8.1-.2-.7 1.8-1.3-1.2-.4.8-.2-.5-.6h1.2l-.3.6 2.1.2.3.5.1-.5h.1v-.1l.1-.2h-.1l-.6-1.7 1.3.5-.4-1.5-.9.9-.1-.3.2-.5.3.1-.1-.6 1.2-.4-.5.8 1.1.1-.1.1h.2l-.3.6h.6l-.3-.6 2.3.2-1-2.9-.5.8-.3-.1.1.4-.9-1.1h.5l-1.3-2.9-.9 1.1.5.3v.3l-1.3.4-.2.4-1.8 2.4 2.4.4h-.4l.1.2-.6 1-.2-.2-.5 1-1-2.3-1.2 1.7 1 .6-.3.7-.7-.2.3 1.4-.6-2.3-2.2 2.9-1.6 2.1-2 2.9-1.8 3.2 2.8.1-1 1.7zm12.2-14.5l-.3-.8.9-.3-.6 1.1zm-1.8-2.4l-.3 1.6-.2-1.6h.5zm-5.2 7.7l-.7 1-.3-1.1 1 .1zm-2 2.1l-1.1.8-.4-1.1 1.5.3zm-1.7 3l-1 1.2h.1v.5l-.8-1.9 1.7.2zM175 164.1v-1.5l-1.1.7zm1.5 8.1l.4-.4h-.6zm2.2-2.5l-.3.3.4.2zm.1 4.2l.4-.2-.3-.2zm-.3-15.2l.3-.4h-.5zm1.9-2.2l.4.2-.1-.5zm18.1-29.2l.7 1.1.4-.5.4.3.2-1 .3.2-.1-.7-.6.3.2.1-.2.1zm.6 2.7l1-1.2-1.6.1zm-29.7 44.7l-.6.8 1.2.3zm2.6-9.7l-.2.6-.8.9 1.4.4-.3-1 .8-.1z"/><path d="M169.7 165.4l-.3 1.7 1.4-.4zm1.8-.3l-.8-.5v.5l-.5.1.6 1 .6-.8.5-.1-.3-.2zm.5 8l.7-.2-.6-.4zm-.6 1.5l.6-.2-.6-.3zm-1.8 2.9l.4.6.2-.7zm.9-1l.3-.7-.6.1zm-.1 2.7l.5-.6-.8-.2zm0-12.2l-1.5 2.1 2.6-.1zm1.8 3.3l.7-.5-.9-.2zm4.2-3l-.6.3.6.4zm-1.3 6.3l.7-.1-.4-.5zm-.8-2.8l.7.6.2-.8zm-.3-4.4l-.8-.1.2.6zm-2.8 10.5l.2-.8-.6.1zm-1.9-3.5l-.6.2.5.6zm6.6-7.3l-.6.2.4.6z"/><path d="M170.6 172.1v.9l.9-.3zm-1.3 3.9l-.5.6h.9zm1.8-.6l-.4-.6-.5.6zm3.5-6.6l-1.3-.1.2-.2v.2l1-.3-.9-.7-.1.6-.5-.1.4-.4-2.3-.2.7 1.7.8-.8.2.6.3-.3.4 1.1zm-3.1 2.4l-.5-1.1-.1.2-1.4-1.2-.2 2.1h.1l-.7 1 1.4.4-.6-1.4 1.2-.5-.2.4-.1-.1-.3.6h.6v-.1h.7l-.1.1h1.5l-.7-1.4zm4.2-1.3l1.2-.2-.9-.9zm-.1-1.2l-.5-.4-.2.5zm3.1-5.2v-.7l-.6.2zm-1.9 5.5l.7-.1-.3-.5zm1 .7l.6-.5-.7-.4zm-3.2-2.8l.1-.7-.7.3zm5.1-1.6h.7l-.4-.6zm36.7-29.1l-.1-.6-.6.3zm-26.1 8.5l.6-.9-1.2-.2zm-4.2.2l-.2-.1.1.4-.7-.1.2.8.5-.7.1.4.5-.4-.5-.3.5-.5-.7-.1zm7.8 4.9l-.4-.6-.3.5zm-8.6-3.8l-1.2 1.4 1.6.4zm8-2.5l-.2.7.7-.2zm-1-1.5v.6l.4-.3zm-2.2-1.6l.3.3.1-.1.4.2-.1-.7-.4.2zm3.7-.7l-.1.2h.4l-.1-.1.5-.6-.9.1zm-5.1 1.2l1.2.5-.4-1.2zm6.1-8.7l.2 1.1 1-.7zm3.6 9.7l-.6-.3-.1.7zm-1.5 2.2l-.5-.3-.1.7zm-1.8-9.3l-.2 1.1 1-.6zm2 4.1l-.5-.5-.2.5zm-.3-5.5l.2-.9-.8.2zm-1.2 9.3l.1-.7-.6.4zm-6.3 5.1l-1.3-.8.2 1.6zm-1.5-1.7l-.6.4.8.2zm7-1.4l.2-.3-.4-.1z"/><path d="M191.1 142.5l-.1-.4-.3.3zm1-8.9l1 1.2.2-1.1.8.3-.4-1.2-.4.5zm2.5 3.1l.4-.6h-.6zm-2 2.6l-.8-.3.2.8zm1.6-4.1l-.5-.6-.2.7zm-3.9 3.2l.6.5v-.7zm3 9.8l.3-.6-.7.2zm6.4-.1l.2-.4h-.5zm-8.6-.1l-.1.7.6-.5zm.1-1.1l1-.8-1-.5zm7-9.9l.5-.6h-.9zm-2.9 4.3l.9.2-.2-1zm1.3-1.8v.7l.8-.3zm.8-4.6l-.6.3.5.5zm-.3-.9l.4-.7h-.7zm-.9 2.1l.7.2-.1-.7zm2.2-.3l-.1-.6-.6.4zm1.8 0l-.3-.5-.4.6zm-11.7 10.6l-.2-.6-.3.6zm-.6-3l-.4-.2.1.4zm3.2 1.9l.1-.5-.4.2zm1.6-9l-1.1-1.1-.4 1.3zm2.2 16.1l-.5-.5-.2.5zm5.8-11.3l-.6-.3-.1.7zM188.1 161l-.4-.6-.3.5zm-.6-6.3l-.2.7.7-.3zm-1-1.5v.5l.4-.2zm1.5-2.3l-.1.2h.4l-.1-.2.5-.5h-.9zm4.5 2.2l-.5-.3-.1.7zm-1.4 2.2l-.5-.3-.1.7zm-1.3-1.4l.1-.7-.6.3zm-.8 2l.2-.3-.4-.1z"/><path d="M185.3 153.7l-.1-.5-.3.4zm1.5-3.2l-.8-.4.2.9zm.7 8.9l.3-.6-.8.2zm6.3-.1l.3-.4h-.5zm-8.5-.1l-.1.7.6-.5zm.1-1.2l1-.8-1-.4zm4.1-5.5l.8.2-.1-1zm1.3-1.9v.8l.8-.4zm-5.5 5.9l.1-.5-.4.2zm3.8 7.1l-.5-.5-.2.5zm5.7-11.3l-.5-.3-.1.7zm2.9-26.9l.5-.6h-.6zm.9-7.2l1.5-1-1.8-.6zm5.5-4.5l.2-1.5-1.4.8zm-3.6 6.2l.5-.4-.6-.4zm-.5-3.9l-.1-.6-.6.5zm-3.1 4.1l.3-.4h-.6zm2.1 4.1h.7l-.5-.5zm-.7-1.5v-.6l-.7.3zm-.3-2.2l-.7.2.7.4zm0-2.8l.1-.6-.6.2zm-1.7-2.8l-1.1.1.7 1.1zm-.7-1.9l1.6 1.4-.8 1.2h.2l-.6.6 1.8.7-.4-1.1.8.1-.3-.7.6.1.2.6.5-.6h-.2l-.3-.4 1.2-.3-1-.8-.2.9-.4-.4-.5.9-.5-1v.1l.1-2.2zm-2.9.9l3 1-.3-3.6z"/><path d="M201.2 111.4l-.9.6-.3-1.5.4.2v.8l1.1-.5-1-.5v-1l1.1.7-.1-.9.5.9.6-1.4-.5.1-.5-.7-.3.6-.9.5v-2.1l-2.3 1.9v-.2l-2.8 2.4 3 1.1-.2-2.7 1.6.7-1.4 1.5.6.1-1.3 1.2.2.1-.1.1h-.3l.1.2-.1.1.2.1.4.7.5-1 1.6.6v-.4l.2.6-.3.9 1.2-.1-.8-.9.3-.5h-.6l-.1-1.1.1-.2.3.1v-.2l.9.6v.6l1.4-.6-1.3-.7-.2-.8zm-3.3 2.1v-.1l.3.1h-.3zm3 3.4l-.6.5.8.1-.4.2.7.4.1-.9-.4.3zm-5.7-2.1l-.4.2-.7-.5-.1.7-.9.9 1.5.4-.3-.9.7.7zm-6 17.7l-.5.5v-.3l-.3.2-.2-.6-.6.5.8.2-.4.2.6.3.1-.5.7.3zm4.9-.3l.6-.4-.5-.3zm-1.4 1.4l.6-.4-.5-.3zm-8.4-1.7l1.5-.9-1.7-.7zm6.1-7.5l-.7.8 1.2.3zm2.3 3.7l1.2-.2-.9-.9zm1.4-4.3l1.3-.2-1-.8zm9.2-6.1l.5-1.1-1.2.3zm-8.3 9.9l.6-1.1-1.3.3zm-10.4 7.7l.6-1.1-1.3.3zm12-8l.3-.6-.6-.1zm-3.1-12.3l.5-.2-.3-.1.1-.1h-.2l-.7-.4-.1.5-.5.1.7 1zm-.7 11.6l-.7.5.6.4zm.4-1.6l-.7.6.7.3zm.1-2.2l.7-.1-.5-.5zm-.3 1.6l-.6-.5-.1.6zm-2.9 3.7l-.6-.1.3.7zm1.2-1.8l.4-.7h-.7zm-1.3.9l.2.9.5-.5zm.6 3.3l-.8-.4.2.8zm-2.9 4.8l.5-.4-.6-.3zm-.1-3.2l.7.1-.3-.6zm3.3-2.9l1.4.5-.4-1.5zm6.1-11.8v-.8l-.6.3.1.1-.2.1-1.2-.2.3 1.2.6-.4.3.4.4-.9zm-1.8 5.5l.7-.1-.3-.5zm1.4-2.3l-.8.1.7.6zm-1.4-3.9l.6-.4-.7-.2zm-6.1 8.3l-.9-1-.7 1.5h1.3l.1.3.2-.3h.4l-.3-.4v-.1zm2.9-3.3l-.1.7-1.2.3.8.8.4-1v.1l1-.2z"/><path d="M183.7 132.2l.6 1.1.5-1.2zm2.4-3.3l.5-1.3-1.1.2zm4.1-3.2l-.5.6h.8zm1.5-1.1l-.5.6.8.1zm-4.7 7.6l.3-.7h-.1l-.3-.3 1.1-.5-1.1-.7-.1 1-.4-.4-.4 1 .7-.1zm2.5-4.6h0v-.5l-.3.2-.1-.2v.1l-.2-.4-.8 1 .7.2h.5l.5-.1zm-.3 4.4l.8.1-.2-.6zm2.2-.5l-.3.6-.6.1.7.8.4-.9.3-.1zm-9 1l1 1 .2-1.5zm4.5-3.2l.4-.4-.6-.1zm2.2 2l.3-.1v-.1l-.3-.2-.6-.5.3-.6-.7.1.4.6-.3.9.7-.1zm5.6-12.8l.3 1.2 1.2-1zm10.8-8.8l1.2.1-.7-1.1-.6.8-.1-.5-.3.3-.1-.2.9-.7-1.1-.4.1.8-1.3.9.3.1-.8.5 1.6 1.1-.1-1.2.8.4-.2-.6.5.2zm2.9-4.9l-1.6-1-.1 1.6zm2.5.1l.5.5.3-.8zm-.9-1.9l.9 1 .6-1.3z"/><path d="M206.4 115l.6-.3-.5-.4zm-3.6-.7l.5-.4-.6-.1zm1 .6l-.7.1.5.5zm.8-2.7l.2-.6-.7.1zm-2-3.3l.4 1.2.7-1.1zm5.6-3.2l-2 1.1 1 .7-.6-.1.4 1.1.6-.7.2.1.1-.2.7 1 .4-1.4-1.1.3zm-4.9 1.2l1 1.9.9-2.1-1.9.1.1-1.5-2.7 1.7 2.4 1.4zm3.4-3l-2.7 1.2 2 1.6zm3-.9l-2.4.7 1.5 1.5zm-4 6.9l.1.8.5-.5zm1.4-.9l.1.8-.7.7.4.1-.6.2.6.4v-.6l.8.2-.4-1.1.4-.4zm2-3.8l.7.3v-.7zM201 116l-.5.5.7.1zm1.1-.7l.4-.6-.8-.1zm0-4.8l.7-.2-.6-.4zm-.1.1v1.4l.6-.3.2.4.7-.7.2.2.2-.6-.7.1.1.1h-.2zm-24 23.1l-.7 1.7 1.5-.2zm1.8.1l-.7-.6-.1.5-.6-.1.5 1.2.7-.7.5-.1-.3-.2h.1zm-1.6 7.4l-.2.5h.7zm-2.9 6.3l.6-.5-.7-.4zm2.3-12l-2 1.8 2.7.3zm2.6-.8h.8l-.7-1-.3.7-1 .6 1.3.8.2.6.6-.6-.3-.1.3-.2-.7-.3.1.5-.2-.1zm3 2.9l.1-.8-.6.3zm-1.6 2.3l-.9.1.6.6z"/><path d="M183.9 135.6l-.7.1.4.6zm-7.3 5.8l1-.1-.8-.8zm-11 16.5l1.4.2-.4-1.5zm17.9-19.6l-.5.9.6.1-.1.3.7-.2-.1-.1h.2zm-1.9-.2h.7l-.4-.6zm1.6-3.9l-.7-.4v.3l-.7-1-.3-.8 1-.3-1-.6 2.4.6-.3-1.8h.1l-.2-.7-.1-.5v.1l-.2-.6 1.3.7-.8.8 1.8.7-.5-1.9-.2.1-.3-1.7 1.2.2-.2-.9.9.1-.5.2.9.7.2-.8h.3l-.1-.2 1.1.6-.2-1.5-.9.7-.5-1.7.9.2-.1-.2 1.8-1.2-.4-.1h.3l.4.7.3-.7h.2l.4.5.1-.5h.1v-.1l.1-.2h-.1l-.6-1.7 1.3.5-.5-1.5-.9.9-.1-.3.2-.5.3.1-.1-.7 1.2-.4-.5.8 1.1.1-.1.1h.2l-.3.6h.6l-.2-.6 2.3.2-1.1-2.8-.5.8-.3-.1.1.5-1.2-1.3h.8l-.5-1.1h.2l.5 1.7 1.3-1.1.2.8.9-.8-1-.2.2-.2-2-.3 1-.3-1.1-1.3-.5 1.7-.5-1-.8 1v.1l-.8 1h.1l-2.1 2.3 1.1.3-.3.7.5-.1.3.5-.2.5-.9-1.2-.9 1.8h.9l-.3.7-.7-.2v.1l-.4-1.4-2.3 2.9h.2l-2 2.5h.1l-2.1 2.9-1.9 3.1 2.8.2-.7 1.1 1.7.2v.2l.8-.6zm8.6-14l-.3-.8.9-.3-.6 1.1zm-1.7-2.5l-.3 1.8-.3-1.8h.6zm-2.3 5.4h0zm-1.4 1.6l-1.2 1.5-.5-1.8 1.7.3zm-2.4 2.5l-1.1.8-.3-1.1 1.4.3zm-1.7 2.8l-1.1 1.2h.1v.5l-.8-2 1.8.3zm4.9 2.8l-.6.2.5.5zm-2.5 5.2l-.4.6h.7z"/><path d="M184.3 139.4l.7-.3-.6-.5zm-2.4-3.9l-.7.1.4.5zm5.2 0l.6.1-.3-.6zm-6.7 1.8l-.6-.2.5-.4-2.1-.5.3 1.6-.8 1 1 .2v.1l.1-.1.3.1-.1-.2.5-.2-.7-.3-.2-.4.9-.6v.6l.4-.3.2 1.2v-.1l.1.7-1.2.4.8.7.4-1v.1l.9-.4-.9-.5 1.1-.8-1.2-.4.2-.1v.2l1-.1-.8-.9zm-11.6 18.5l-.7-1-.5.8-1-1.2-.7 1.9 2.2-.1-.4-.5zm.7-2.9l1.2-.3-1-.8zm13-12.3l1.2-.4-1-.6zm-6.9 10.3l.2-.7h-.6zm5.3-6.7l.7.2-.1-.8zm.9-2.3l-.4.4h-.1v.1l-.2.1h.1l-.3.3h.8l-.1-.1.2.1zm-.2-2.2l.7-.2-.6-.4zm-.7 1.2l-.1.6.7-.2zm-2.2 5.1l.3-.7h-.6zm1.3-2.6l.3-.7-.6.1zm-.9 1.9l.5-.5-.8-.3zm-.9 0l.5-.1-.8-.7h-.1l-.1-.3-.7 1.1h.7v.1l.3-.1h.2zm6.4-11.4l-.1-.7-.5.3zm-5.8 6.5l-.7.2.5.5zm-.7.3l-.7.1.4.6zm-12.8 20.1l1.2-.5-.8-.7zm9.1-15.2l.8.9.1-.6.2-.2h-.1l.1-.4zm4.4-2.7l-.4.7.8-.1zm.9-.5l.8-.1-.3-.6zM169.1 158l1.7-1.5-2.3-.5zm9-15.2l-.4-.3.1-.1h-.1l-1-.9-.5 1.6.9-.1v.2l.5-.1h.2l-.2-.1.1-.1zm-.4 5.2l.2-.8-.6.1z"/><path d="M174.5 146.9l.4-.4-.6-.1zm2.4-2v-.5l-.2-.6-.1-.2-.1-.4v-.1l-.6.5h.1l-.3.3-.5-1.1v-.1l-.2-.5.8.1-.8-2.1 1.2.6-.3-1.5 1.3-.3-.3.4-.1-.2-.4.6.6.1v-.1l.9.1-.4-1.5-.1.2-1.1-1.5-.3 1-.5-.4-.4 1.2.7-.3-.2.6h.1l-.9.8-.4-1.1-1.9 3.1h.1l-1.7 2.8h.1l-1.7 3.1-1.5 3.3 3.2-.2-.1-.3.7.2-.2.1.8.7.4-1.1-.7.2-.5-1.2-.6.8-1.3-2.5h1.9l-1 1.4 2.6.4-.5-1.7h.1l-.3-.7-.1-.5v.1l-.2-.6 1.5.6-.8 1 1.8.5-.7-1.8-.1.2-.5-1.6 1.1.1-.3-.8h.6l-.3.3h.2l.9.6.1-.8h.3l.1.4.3-.4.5.2h-.4l.4.7.2-.5v-.1zm-5.1 1.2l-.5-1.1 1.6.1-1.1 1zm1.3-3.9l1.9.1-1.1 1.8-.8-1.9zm1.8 2.2h0zm.8-.1h0zm1.1 4.3l.4-.2-.3-.2zm-8.9 2.9l-1.3 2.8 2.7-.1z"/></g></svg>