<svg xmlns="http://www.w3.org/2000/svg" viewBox="0 0 480 480" xmlns:v="https://vecta.io/nano"><path d="M309.2 331.6c-2.9-14-4.5-28.4-11.1-45.7-5.5-14.3-26.3-63.2-33.4-79.7h-6l-38.9 58.3s37.9 66.7 40.4 75c2.1 7 9.6 45.5 11.8 56.7.3 1.7 2 2.7 3.6 2.3l41.6-10.1c1.8-.4 2.9-2.2 2.6-4l-10.6-52.8z" fill="#913b24"/><path d="M287.4 416.7l-9.3-26.6 27.4-8 12.4 33.3-30.5 1.3z" fill="#ea9d7d"/><path d="M284.1 407.9c-.2 0-.3-.1-.4-.3l-5.8-16.3c-.1-.2 0-.5.3-.5.2-.1.5 0 .5.3l5.8 16.3c.1.2 0 .5-.3.5h-.1z" fill="#cc7a5e"/><linearGradient id="A" gradientUnits="userSpaceOnUse" x1="296.12" y1="400.37" x2="293.75" y2="391.69"><stop offset="0" stop-color="#cc7a5e" stop-opacity="0"/><stop offset=".92" stop-color="#aa5f4b"/></linearGradient><path d="M294.6 400.8c11.1-2.7 15.5-5.7 15.5-5.7l-5.4-15.7-27.4 8.5 4.6 13.9c.1-.1 4.8 1 12.7-1z" fill="url(#A)"/><g fill="#fff"><path d="M284.2 407.9s6.4 2.7 14.2.1 13.8-7.9 13.8-7.9l3.7 9s-1.8 4.6-14.3 8.1c-12.6 3.6-15.2-3.1-15.2-3.1l-2.2-6.2z"/><path d="M283.9 407.4s6.4 2.6 14.2-.1 13.7-8.2 13.7-8.2l3.9 9s-1.7 4.6-14.2 8.4-15.3-2.9-15.3-2.9l-2.3-6.2z"/></g><g fill="#ad5c49"><path d="M283.5 403.7l.3.8.5-.6-.8-.2zm12.1.7l.9-.2-.7-.8-.2 1zm-3-9v-.8l-.9.4.9.4zm-6.5 5.8l.2.9.6-.7-.8-.2zm15.4 3.2l.8-.2-.6-.7-.2.9zm-2.5-7.7v-.6l-.7.3.7.3zm-5.4 5.7l.5-.5-.6-.2.1.7zm-7.8 3.2l.2-.1-1.6-.5.1 1.4 1.1-.6.5.7.5-.8-.8-.1zm1.9-1.4l.2-1.4-1.3.7 1.1.7zm2.4-4.5l.3 1.3 1-.8-1.3-.5zm-5.3 4.4l1.7.4-.6-1.5-1.1 1.1zm4.5 1.5l1.1-.9-1.4-.2.3 1.1zm5.5-9.3l-1-1-.2 1.4 1.2-.4zm11.7-4.7l1 1 .3-1.2-1.3.2zm-10.1 4.2l1.1-.7-1.1-.7v1.4zm-8.9 12.2l.2-1.4-1.2.7 1 .7zm-2.5-.4l.7-1.2-1.4.2.7 1zm4.1-11.6l-.2 1.3 1.2-.4-1-.9zm3.2 8.3l1.2-.5-1.1-.9-.1 1.4zm-9-5.4l.3-1.1.9.5.2-1.1 1.1 1.5.7-2.5.6 2.2 1.7-1.4-.4-.1.8-1.7-2.1.5.7 1-1.3-.5.1-.3-5.5 1.3 2.2 1.7zm1.2-1.8l-.8.5.3-1.2.5.7zm7.3-2.6l-2.6.6 1.4 2.5 1.2-3.1zm-1.6 7l-1.5 1.1 1.4 1.2.1-2.3zm-9.2-3.6l.3.8.5-.6-.8-.2zm12.9.9l1-.2-.7-.8-.3 1zm7.8-5.2l1-.2-.7-.8-.3 1zm-6.4 3.9v-.8l-.9.4.9.4zm2 1.3v-.8l-.9.4.9.4zm1.4-4.3l-1.1.4.9.5.2-.9zm-10.2 5.4l.7-.6-.7-.3v.9zm.9-.5l-.5.6.9.1-.4-.7zm-6.2.3l1.7-.2-1.2-1.1-.5 1.3zm8 3.1l1-.8-1.4-.5.4 1.3z"/><path d="M284.5 403l-.2-.5 1.4-.2-1.2-1.1-.4 1-.2-.6-.6.6.6-1-.7.1.5-1-1 .2.2-1.3-1.2.7.9.6-.5.1.5.7h-.1l.6 1-.3.3 1.7.4zm2.9 1.5l-1.4.2.7 1 .7-1.2zm4.9-6l-.2 1.3 1.2-.4-1-.9zm12.1-4.9l.2-1.4-1.3.7 1.1.7zm-15.3 14.6l1-.8-1.3-.5.3 1.3zm7.4-14.7l-3.4.9 2.6 2.2.8-3.1zm2.4.7l.4-1.5-1.6.4 1.2 1.1zm2.9.5l-1 .2.7.6.3-.8zm-10.8 4.9l1.2-.5-1.1-.9-.1 1.4zm-3.7-1.2l-2.5 1.7h-.9l.6.8.3-.5 2.8.7.7.5.2-1.1-.9.5-.3-2.6z"/></g><path d="M83.7 322.7l36.5-9.7 6 28.5-44.1 11.7 1.6-30.5z" fill="#ea9d7d"/><linearGradient id="B" gradientUnits="userSpaceOnUse" x1="97.55" y1="333.71" x2="114.24" y2="329.6"><stop offset="0" stop-color="#cc7a5e" stop-opacity="0"/><stop offset=".92" stop-color="#aa5f4b"/></linearGradient><path d="M97.3 331.8c1.3 10.7 6.1 15.6 6.1 15.6l21.6-5.6-6.8-28.3-23 6.3c-.1.1 1 3.2 2.1 12z" fill="url(#B)"/><path d="M93 320.2s-3.6 6.2-1.7 14.2a43.7 43.7 0 0 0 6.6 14.5l-9.3 2.9s-4.4-2.2-6.7-15c-2.4-12.8 4.6-14.9 4.6-14.9l6.5-1.7z" fill="#fff"/><path d="M93.5 320.7c-.2 0-.4-.1-.4-.3-.1-.2.1-.5.3-.5l20.5-5.3c.2-.1.4.1.5.3s-.1.5-.3.5l-20.5 5.3c0-.1 0 0-.1 0z" fill="#cc7a5e"/><linearGradient id="C" gradientUnits="userSpaceOnUse" x1="69.67" y1="348.17" x2="87.93" y2="350.98"><stop offset="0" stop-color="#309191"/><stop offset="1" stop-color="#60b3b6"/></linearGradient><path d="M68.6 316.9L58 378.2c-.2 1.1.5 2.1 1.6 2.2 2.4.4 6.4.8 9.5-.1 3.8-1.2 17.6-22.9 21.4-29.2.6-.9.5-2.1-.2-3-2.1-2.4-6-8-5.1-15.9.7-6.5 2.7-9.9 4-11.4.5-.6.3-1.5-.4-1.9-2.5-1.3-8.2-3.6-17.9-3.8-1.2 0-2.1.7-2.3 1.8z" fill="url(#C)"/><g fill="#5cccc6"><path d="M75.3 356.7l.8-.5-.7-.4-.1.9zm-.2 4.4l.3-1.2-1.4.3 1.1.9zm15.8-10.9l-1.7-.3.9 1.5.8-1.2zm-1.5 2.5l.8-1.2-1.7-.3.9 1.5zm-9.5 12.5l-1.3-.2.9 1.4-.7.4 1.1.4-.2-1-.1.1.5-.7.2.5.7-1-1.4-.2.3.3zm6.2-22l-1.2 1.2 1.8.2-.6-1.4zm1 4.2l.2-1.4-1.6.4 1.4 1zm-2.3 7.3l-1.7.3 1.3 1.1-1.5.3 1.4 1.1.3-1.4h-.1l.3-1.4zm-6.3 14.1l.3-1.2-1.4.3 1.1.9zm4.7-8.7l-1.1-1.1-.5 1 .2-1.1-1 .3.8.9-.2.4 1.8-.4zm-2.9-16.7l.3 1.6 1.2-1.3-1.5-.3zm5.2-2.1L84 341l.3 1.6 1.2-1.3zm-6.3-3.5l1.2-1.3-1.5-.3.3 1.6zm3.3-3.4l-.7 1.5.5-.1v.8l.7-.6.2 1 1.2-1.3-1.1-.2-.8-1.1zm.2 1.3l.4-.1.1.3-.5-.2zm1.4 11.9l1.7-.4-1.1-1.1-.6 1.5zm-1 2.3l-.7 1.5 1.7-.4-1-1.1zm1.7-23l-1.2-.3.2 1.4 1-1.1zm-5.6 4.1l.9-1.1-1.2-.3.3 1.4zm6.9-7.7l-1.2-.3.3 1.4.9-1.1zm-5.9 40.2l-.8-.9-.6 1.3 1.4-.4zm-12.4 16.6l1.4-.3-.8-1-.6 1.3zm1.7.1l.9-1.2-1.2-.2.3 1.4zm2.8-5.1l1.4-.3-.8-1-.6 1.3zm-2.8-2.4l-.8-.2.3.8.5-.6zm1.3 1.1l.3.8.4-.6-.7-.2zm-1.6.8l-.6.5.7.3-.1-.8zm1 4.1v-.8l-.6.5.6.3zm12.9-16.8l.3-1.2-1.4.3 1.1.9zm-4.2-3.8l1.4 1.1.3-1.4-1.7.3zm-2.4 5.4l.3.9.6-.6-.9-.3zm-1.6 8.5l-.3.5-1.2.2 1.1 1 .2-.9.8-.1-.6-.7zm-3.3 5.4l.5-.6-.9-.2.4.8z"/><path d="M69.8 370.3v-.9l-.7.5.7.4zm8.8-28.2l.9-.8-1-.3.1 1.1zm.4 4.8l-.9.3.9.5v-.8zm-6.7-4.9l-.3.9.9-.2-.6-.7zm13.8 5.1v1.1l1-.7-1-.4zm-5-4.6l.4-1.1-1.1.1.7 1zm5.2 7.5l1-.7-1-.4v1.1zm.5 4.9l.2-.8-1 .2.8.6zm-6.6-5.1l-.4.9h.9l-.5-.9zm7.9-1.1l-.4.9h.9l-.5-.9zm-17.7-.6l-.3 1 1.2-.2-.9-.8zm6.4 1.2l.5-.9h-.9l.4.9zm-4.7 5.8l-.2-.8-.8.5 1 .3zm8.4-7.4l-.3 1 1.2-.2-.9-.8zm-.4-2.1l-.9-.7-.3 1 1.2-.3zm3.6-12.2l1.2-.2-.9-.7-.3.9zm.5 10.9l-1.4.7 1.4 1v-1.7zm-6.8-8.6l.1.4.3-.5h-.4l.5-.8-1.9-.1.8 1.9.6-.9zm-3.4 2.2l-.8.5 1 .2-.2-.7zm5.8-9.1l.1-1-.9.5.8.5zm.3 10.1l-.3.8 1-.1-.7-.7zm4.5-3.4l.1-.9-.9.5.8.4zm-1.7 6.7l-.9.5.7.4.2-.9zm2-13l.4-.7h-.7l.3.7zM83 341.5l.7.3-.2-.7-.5.4zm4.2 2l-.5-.3-.1.6.6-.3zm-4.9 1.5h-.6l.4.4.2-.4zm-5.3 9.8l-.3-.7-.4.6.7.1zm-1.4-4.3l.1.5.5-.3-.6-.2zm-4.7 9.2l.7.1-.2-.7-.5.6zm-.7-4.2l.1.3-.3.5h.7l-.2-.4.3-.2-.6-.2zm4.6 2.5l.5.4v-.6l-.5.2z"/><path d="M77.3 365.1l-.4.6.6.1-.2-.7zm-.5-3.3l-.6-.2.1.5.5-.3zm4.5 2.8v-.6l-.5.2.5.4zm-6.9 5.9l-.4.5.5.1-.1-.6zm-.8-2.6l.4-.3-.5-.2.1.5zm4 2l.1-.5-.4.2.3.3zm-.3-28.5l-.5.3.6.2-.1-.5zm0-8.4l-1.2.2.6.8.6-1zm2.6-4.2l1 .2-.4-.9-.6.7zM76.6 347l-1.2.2.6.8.6-1zm2.5-4.3l1 .2-.4-.9-.6.7zm2.5 6.8v1l.8-.6-.8-.4zm-2-25.9l-.7.7.8.3-.1-1zm2.6 1.9l.8.3-.1-1-.7.7zm3-3.4l-.1.7.7-.3-.6-.4zm-.2 3.2l.4.7.3-.8-.7.1zm-3.8 9.1l.6-.5-.7-.3.1.8zm-4.8 5.3l.3-.4.1.1.5-.8-1 .2.2.2H76l.4.7zm-2 2.5l.9-1.4-1.7.2.8 1.2zm2-5.8l-1 .2.5.6.5-.8zm5.9-8.2l-.7-1.5-.9 1.2 1.6.3zm5-8.3l-.9 1.2 1.6.4-.7-1.6zm-7 .8v.3l.2-.2.5.1-.2-.4.5-.5-.8-.2-.2-.3-.2.3H80v.1l-.7.8h1zm2.2-2l-.9 1.2 1.6.4-.7-1.6zm.3 9.7l-.9 1.2 1.4.3-1 1.8 2.5.2-1.3-1.9-.7-1.6zm-5.4 1.3v.6l.5-.4-.5-.2zm-2.9.5l-1.4.1.6.9.8-1zm3.9-5.4l-.7.7 1.1.3-.4-1zm1.5 9.6l1-.6-.9-.4-.1 1zm.3 24.9l-1 .6 1.2.4-.2-1zm-5.3 3.1l-.7-.6v1l.7-.4zm1-7.1l.4-.8-1 .1.6.7zm8.9 2.6l1.2.4-.2-1-1 .6zm-5.8 2.8v1l.8-.3-.8-.7zm2.2-7.3l-.5.1v-.6l-.5.2.5.4-.5.1.5.7.5-.9zm.8.8l-.3 1 1.2-.1-.9-.9zm3.9 1.9l-.9.1.8.6.1-.7.1.3.5-.9h-.9l.3.6zm-4.4 6.1l.3.1-.2-.8h.1l-.4-.7-.5.8.9-.1-.8.5.5.2-.8.5.8.3-.4.8 1.4-.3-.7-.9-.2-.4zm-6 2.5l-.1 1 .8-.3-.7-.7zm2.4-7.6l-1 .2.5.7.5-.9zm-.2 3.1l-.1 1.2 1-.7-.9-.5zm-.6 6.2l-1 .2.7.6.3-.8zm-5.5-6.3l-.4.9h.8l-.4-.9zm2.8 4.1l-.1 1 .8-.6-.7-.4zm-.5 5.5l.5-.2-.7-.6v.5l-.5.1.6.5.1-.3zm-4.5-5.7l-.4.8h.7l-.3-.8zm8.1 2.6l-.2 1 .9-.4-.7-.6zm-1.7 5.6l.3-.6h-.8l.5.6zm-3.3-6.7l-.5.7.7.1-.2-.8zm3.6-4.2l-1 .2.5.7.5-.9zm-.7 6.5l-.4 2.5 2.3-1.2-1.9-1.3zm8.7-13.4l2.3-1.2-1.9-1.3-.4 2.5zm-.5-13.3l1.3-2.2-2.2-.1.9 2.3z"/></g><path d="M112.2 340.7l-1.1.8.9.5-1 .8 2.3 1.2-.6-2.6-.5.5v-1.2zm-5.8 5.4l.9-.1-.6-.7-.3.8zm-5-12.2l-1.1-.2.3.9.8-.7zm1.7 9.9l1 .2-.5-1-.5.8zm-3.9-2.7l-1.5-.5.6 1.6.9-1.1zm6.4-.5l-1.1.8 1.1.6v-1.4zm-5.4-2.6l-.2 1.2 1.3-.3-1.1-.9zm5.7 5.9l.4-1.4-1.6.1 1.2 1.3zm-4.9-2.8l1.2.1-.5-1.4-.7 1.3zm7.1-9.7l.2 1.3 1.1-.8-1.3-.5zm-10.9 14.3v-1.4l-1.1.8 1.1.6zm9-6.7l-.2 1.2 1.3-.3-1.1-.9zm-7.3 8.2v-1.4l-1.1.8 1.1.6zm3.6-1.6l1.2.1-.5-1.4-.7 1.3zm8.5-9.2l-1.3-.5.2 1.2 1.1-.7zm-6.5 10.3l1.3-.5-1.3-1.2v1.7zm-2.4-10.6l.1 1.3 1.1-.7-1.2-.6zm8.2-3.3l-.3.2h.1l-1.5 1.9 2.8 1.2-.8-2.9v-.7l-.1.1v-.1l-.2.3zm.9 5.4l.2-1.9-1.9 1.2 1.7.7zm1.1 6.3l.9-.1-.6-.7-.3.8zm-5.2-11.8l-1-.2.2.9.8-.7zm1-9.3l-1-.3.2 1 .8-.7zm-1.2 8.2l.7.5v-1l-.7.5zm5.7 9.1l-.7-2.7-2.4 2.2 3.1.5zm-4.6-13.9l-1.6 1.2 2 1.2-.4-2.4zm.5 10.9l-.6 2.4 2.1-1-1.5-1.4zm-1 .7l.3-.7h-.9l.6.7zm-6.3 8.9l.9-1.1-1.5-.5.6 1.6zm-5.1-5.9v-1.1l-.9.6.9.5zm8.2-5l-.3 1.2 1.3-.3-1-.9zM100 344l-.5-1.3-.7 1.2 1.2.1zm7.3-9.3l-1.3-.5.2 1.2 1.1-.7zm-6.9 13.2v-1.4l-1.1.9 1.1.5zm.1-7.1l-.2 1.2 1.3-.3-1.1-.9zm9.5 4.9l1.7-.5-1.5-1.4-.2 1.9zm-1.1-2.4l-.1.3-.4.6.2-.6-1.6.1 1 1.1-.1.1 1.4.2-.2-.6h.3l-.5-1.2zm1.4-11.8l-.6-2.8-1.9 1.8 2.5 1zm-1.3-4.7l-.4-1.6-1.1 1 1.5.6zm-1.7 7.8l.3 2.4 2.1-1.3-2.4-1.1zm2.2 6.5l-.7.2-.9-.8-.2.9-.4-.5-.3.8.7-.2-.1.3.9-.2.6.7-.3.5 1 .2-.4-.8.1-1.1z" fill="#ad5c49"/><path d="M72.2 330.3h-.6l.2-1.7s3.4.3 7.7-3.2a16.4 16.4 0 0 0 5.1-8.1l1.6.5c-.1.2-1.3 5.4-5.7 8.9-3.9 3.2-7.2 3.6-8.3 3.6zm12.1 30.5l1.1-1.7-7.5-7.3c-.4-.4-1.1-.4-1.4 0-.4.4-.4 1.1 0 1.4l7.8 7.6zm3.9-6.1l1.1-1.7-7.7-7.5c-.4-.4-1.1-.4-1.4 0-.4.4-.4 1.1 0 1.4l7.7 7.5c0 .2.2.3.3.3z" fill="#fff"/><linearGradient id="D" gradientUnits="userSpaceOnUse" x1="319.08" y1="423.73" x2="316.11" y2="405.49"><stop offset="0" stop-color="#309191"/><stop offset="1" stop-color="#60b3b6"/></linearGradient><path d="M289.7 434.4l61.6-8.9c1.1-.2 1.8-1.2 1.6-2.2-.4-2.4-1.3-6.4-3.1-9-2.3-3.3-27.2-9.6-34.3-11.4-1.1-.3-2.1.2-2.8 1.2-1.6 2.8-5.8 8.2-13.6 9.8-6.4 1.4-10.3.5-12.1-.2-.8-.3-1.6.1-1.7 1-.5 2.7-.9 8.9 1.9 18.2.4 1 1.4 1.6 2.5 1.5z" fill="url(#D)"/><path d="M289.7 434.4l61.6-8.9c1.1-.2 1.8-1.2 1.6-2.2-.1-.8-.3-1.6-.5-2.6l-66 8.8a24.6 24.6 0 0 0 .9 3.4c.3 1 1.3 1.6 2.4 1.5z" fill="#236f77"/><g fill="#5cccc6"><path d="M324.5 415.9l.9-.2-.7-.6-.2.8zm4.7 0l.5-1.4-1.3.1.8 1.3zm-11.8-12.4l-1.7-.5.3 2.1 1.4-1.6zm3.1 2.4l1.2-1.3-1.4-.4.1.9h-.3l.1.3-.8.1.5.9.3-.9.1.4.1-.2.1.2zM309 409l-1.2 1 1.5.8-.3-1.8zm1.1-1.2l-1 1.1 1.6.6-.6-1.7zm2.9-.4l-1.4.2.9 1.4.5-1.6zm10.4-.5l-1.5.2.1.1-1.4.1.8 1.5.6-1.5.7 1.3.7-1.7zm12 3.4l.6-1.3-1.3.1.7 1.2zm-8.6-4.4l-.7 1.3 1.6.2-.9-1.5zm-15.4 9.2l1.4-.8-1.6-.7.2 1.5zm-2.1-3.6l-1.6-.7.1 1.5 1.5-.8zm-3 6.3l-1.6-.7.1 1.5 1.5-.8zm7-8.8l-.7 1.3.6.1-1.1.4 1.1 1.1.4-1.4h.5l-.8-1.5zm3.6 1.5l1.6.2-.9-1.5-.7 1.3zm-21.4 6l-1.3-.6.1 1.2 1.2-.6zm3.1 4.1l1.3-.7-1.3-.5v1.2zm-8.1-3.6l1.3-.7-1.3-.5v1.2zm40-8.1l-.6 1.1 1.4.2-.8-1.3zm18.8 5.5l-.6 1.1 1.4.1-.8-1.2zm-1.3-1.1l.2 1.2 1.1-.7-1.3-.5zm-5.5-.6l1.4.2-.8-1.2-.6 1zm0 4.4l.6-.5-.7-.2.1.7zm.7-2.4l.6-.6-.7-.2.1.8zm1.9 1.7l.1-.7-.8.3.7.4zm2.9-1.9v-.8l-.8.3.8.5zm-18.6-7.9l-1.2-.2.2 1.4 1-1.2zm-3 3.6l-1.4.1.8 1.5.6-1.6zm.2 10l-.3.3-.3-.2v.6l.3-.2.6.1-.3-.6zm.1-11.6l-1.2.2.6.8.6-1zm4.9 3.9l.8-.6-.8-.3v.9zm9.1-1.9l-.5.8.6.1.6 1.1.6-1.3h-.9l-.4-.7z"/><path d="M345.7 413.5l.7-.6-.7-.3v.9zm-5.7 4l.1-.8-.9.3.8.5zm-30.5-1v1.1l1-.5-1-.6zm6.2-.5l.2-1-.8.2.6.8zm-3.3 7.2h1l-.4-.7-.6.7zm.8-15.8l-.1 1.1 1.1-.4-1-.7zm-4.2 7.2l.5 1 .7-.9-1.2-.1zm5.6-7.8l-.1 1.1 1.1-.4-1-.7zm7.5-.2l.4-1-.8.1.4.9zm-4.6 6.6l1 .2-.3-.9-.7.7zm-2.6-7.1l-.3-.8-.6.7-1-1.6-1.2 1.9 2.5.3-.3-.6.9.1zm4 16.9h1l-.5-1.1-.5 1.1zm-1.7-5.8l.7-.6-1-.2.3.8zm7.1 2.5l.8.6v-1l-.8.4zm-8.8-6h1.1l-.6-1.1-.5 1.1zm-3.3-1.9l-.4 1.1h1l-.6-1.1zm-12.1 2.1l-.4 1.1 1-.1-.6-1zm4.8 6.3l.4-.3-.6-.2.1.4-.9-.2.5 1.8 1.6-1.3-1.1-.2zm3.1 2.6l.8.6-.1-1-.7.4zm-10.7-1.9l.2-.9-1 .2.8.7zm10.2-5.1l-.4.9h.9l-.5-.9zm-5-2.4l-.9.2.7.7.2-.9zm7.6.3l.2-.9-.9.1.7.8zm-13.7 1.4l-.8-.2.2.7.6-.5zm13.3-3.2l.5.3.1-.8-.6.5zm1.1-4.3l-.1.5.6-.1-.5-.4zm8.5 2l.3-.5h-.5l.2.5zm4.1 5l-.6.5.7.2-.1-.7zm-3.6 2.7l.4-.3-.4-.4v.7zm1-5.2l.2-.6-.6.2.4.4zm8.2 6.7l.8.2-.2-.7-.6.5zm-2.1-3l.3-.6-.6.1.3.5z"/><path d="M333.5 410.8l-.6.4.7.2-.1-.6zm-3.6 2.6l.4-.3-.4-.4v.7zm1.2-5.8l-.6.2.3.4.3-.6zm8.3 4.4l-.5.3.6.2-.1-.5zm-3.1 2.1l.4-.2-.4-.3v.5zm1.1-4.6l-.5.1.3.4.2-.5zm-26.6 8.9l-.5.2.4.4.1-.6zm-7.8 3.8l.5-.9-1.1-.2.6 1.1zm-6.3-2.5l.8.3-.1-1-.7.7zm7.4-4.4l-.8-.5.9-.5-1.6-.8.1 1.1-.7 1.2 1.6.2-.3-.5.8-.2zm-.8-.1l-.2-.4.2-.1v.5zm13.1 3.4l.5-.8-1.1-.2.6 1zm-5.4-2.2l-.1-1-.7.6.8.4zm5.8-5.3l-.1.9.9-.3-.8-.6zm-23.2 11.3v-.9l-.9.3.9.6zm.1-3.6v-.9l-.9.4.9.5zm-4.2-2.3l-.2.8.7-.1-.5-.7zm2.8-1l.3.6.5-.6h-.8zm9.5 1.1v.8l.7-.3-.7-.5zm9.4 5.5l.9-1.1-1.6-.4.7 1.5zm-4.8-.2l.4-.7-.9-.2.5.9zm2.1-2.3l-1-.2.5.9.2-.2.2.5.5-.6-.5-.2.1-.2zm-13.7-.5l1.4.5-.1-1.7-1.3 1.2zm-6.5-5l-1.3 1.2 1.4.5-.1-1.7zm.1 8.3l1.4.5-.1-1.6-1.3 1.1zm-1.5-2.4l1.3 1 .4-1.6-1.7.6zm11.9 2.1l.6-.2-.5-.3-.1.5zm2.1 2l.7-.9-1.2-.3.5 1.2zm-6.8-1.1l.9.4-.1-1.1-.8.7zm7.7-5.1l-.1 1 1-.3-.9-.7zm28.9-2.6l.9-.3-.5-.6-.4.9zm-7.2 1l.5-.7-.9-.2.4.9zm.1-11.1l-.9.4.9.8v-1.2zm3.7 4.5l-.1.1-.8.4.9.7v-.5l.5-.2-.5-.5zm-7.1 1.2l-.9-.2.4.9.5-.7zm-1.3-3.6l-.5 1.2 1-.1-.5-1.1zm8.3.6l.7.5-.4.5 1 .2-.4-.9-.1.1-.1-.9-.7.5zm1.5.3l.9.7v-.8l.9.1-.8-1.2-.6 1-.4.2zm4.3 4.9l1-.2-.6-.6-.4.8zm-7.9 0l.5.9.5-.7-1-.2zm3.2-1.8l-.2 1 1.1-.3-.9-.7zm6.7-.4l-.9.1.4.9.5-1zm-5.1 7.3l1 .1-.3-.8-.7.7zm3-3.9l1-.2-.8-.6-.2.8zm1.4 4.8l.8.1-.2-.7-.6.6zm.2-9.3l-.3.8 1-.1-.7-.7zm5.6.7l-.7-.1.3.8.4-.7zm-5.4 5.1l.8.3-.1-.7-.7.4zm-1.4-6.9l-.9-.3.7-.7-1.2-.3.2 1.4.1-.1.2 1.5 1.1-1.3.6.5v-1.2l-.9.5h.1zm4.6 3.9l-.4.9.5-.1.2.4.3-.8h-.3l-.3-.4zm-7.8 1.8l.5-.7-1-.2.5.9zm-41.2 6.7l1.7-.8-1.3-.6-.4 1.4zm47.7-11l-.6 2.2 2.5-.4-1.9-1.8zm-37 6.7l-.6-2.5-1.4 1.9-1.3 1.1 1.4.5-.1-1.4 2 .4zm7.4-6.1l-2.1 1.4 2.5.9-.4-2.3z"/></g><path d="M299.9 427.8s-.8-3.4-5.5-6.4c-4.1-2.7-9.1-2.4-9.2-2.4h-.1v-1.7c.2 0 5.6-.4 10.3 2.7 5.3 3.4 6.1 7.4 6.1 7.6l-1.6.2zm24.8-22.5l-4.7 9.4c-.2.5 0 1.1.5 1.4.1.1.3.1.4.1.4 0 .7-.2.9-.6l4.8-9.8-1.9-.5zm-6.9-1.8l-4.8 9.6c-.2.5 0 1.1.5 1.4.1.1.3.1.4.1.4 0 .8-.2.9-.6l5-10-2-.5z" fill="#fff"/><path d="M283.3 383.7c-.3 0-.5-.2-.6-.5-.1-.5-10.8-51.9-14.2-59l-27-57.6c-.1-.3 0-.6.3-.8.3-.1.6 0 .8.3.2.5 22.7 48.5 27 57.6 3.5 7.3 13.8 57.1 14.3 59.2.1.3-.1.6-.4.7l-.2.1z" fill="#68251a"/><linearGradient id="E" gradientUnits="userSpaceOnUse" x1="291.53" y1="285.79" x2="242.23" y2="262.69"><stop offset=".01" stop-color="#913b24" stop-opacity="0"/><stop offset=".99" stop-color="#510c10"/></linearGradient><path d="M264.8 207.1l3.7 8 26.3 63.1s-12.5 5.9-21.9 25.5-13.3 33.3-13.3 33.3l-34.5-64.7 39.7-65.2z" opacity=".7" fill="url(#E)" enable-background="new"/><linearGradient id="F" gradientUnits="userSpaceOnUse" x1="291.71" y1="341.64" x2="325.54" y2="341.64"><stop offset=".01" stop-color="#913b24" stop-opacity="0"/><stop offset=".99" stop-color="#510c10"/></linearGradient><path d="M284.4 376.9c3.9-15.3 8.9-46 10.4-59.5l3.3-31.5s5.9 15.9 9.3 35.8c2.8 16.7 10 51.9 12.3 62.7.4 1.8-.7 3.6-2.6 4l-37 8.9c-2.6.6-4.6-2.2-3.2-4.5 2.8-4.3 6-10.2 7.5-15.9z" fill="url(#F)"/><linearGradient id="G" gradientUnits="userSpaceOnUse" x1="164.96" y1="325.53" x2="166.26" y2="362.71"><stop offset=".01" stop-color="#913b24" stop-opacity="0"/><stop offset=".99" stop-color="#510c10"/></linearGradient><path d="M126.7 322.6c15.4 3.4 41.3 4.6 54.9 4.4 15.6-.3 42-4.8 42-4.8s-8.8 9.9-43.1 19.3l-59.2 16.3a3.9 3.9 0 0 1-4.9-2.9l-10.7-44.1c-.2 0 10.2 9.4 21 11.8z" fill="url(#G)"/><path d="M194.1 206.2L179 278.5c-1.1 5-57.5 23.4-71.4 27.8-1.7.5-2.8 2.4-2.3 4.1l11 44.4a3.9 3.9 0 0 0 4.9 2.9c15.6-4.1 72.8-19.2 87.1-25.8 15.2-7 21.8-13.6 30-39.9 7.3-23.3 26.2-74.5 30.5-85.9l-74.7.1z" fill="#a5472e"/><linearGradient id="H" gradientUnits="userSpaceOnUse" x1="111.69" y1="307.55" x2="122.38" y2="350.94"><stop offset=".01" stop-color="#ffa000"/><stop offset=".99" stop-color="#df7300"/></linearGradient><path d="M130.4 355.3l-9.2 2.5a3.9 3.9 0 0 1-4.9-2.9l-10.9-44.4c-.4-1.8.6-3.6 2.3-4.1l10-3.1 12.7 52z" fill="url(#H)"/><linearGradient id="I" gradientUnits="userSpaceOnUse" x1="273.49" y1="391.58" x2="313.57" y2="382.04"><stop offset=".01" stop-color="#ffa000"/><stop offset=".99" stop-color="#df7300"/></linearGradient><path d="M317.7 374l2 10.4c.3 1.8-.8 3.6-2.6 4l-41.7 10c-1.6.4-3.3-.6-3.6-2.3l-2.1-10.9 48-11.2z" fill="url(#I)"/><path d="M208.7 229.3h-.4c-.3 0-.6-.3-.6-.6s.2-.6.6-.6c.1 0 14 .2 21.4-7.6 6.4-6.7 6.4-12.8 6.4-12.9 0-.3.3-.6.6-.6s.6.3.6.6 0 6.6-6.7 13.7c-7.1 7.7-19.6 8-21.9 8z" fill="#6b2722"/><path d="M117.6 303.1l.97-.25 13.47 52.1-.97.25zm199.8 70l-47.7 11 .3 1.3 47.7-11-.3-1.3z" fill="#772e1f"/><g fill="#601f18"><path d="M247.9 270.4l1.5-1.1-1.1-.6 1.8-.2.3 2 1.5-1.1.1.8.4-.3 1.2.6.1-1.8-1.2.8-.7-.4v.2l-1.7-1 .8-.1-1.5-1.5-.3-1.2.2-.8-1.2.5.7.5-.2.2-.6-.7-1.1 3.3h.5l.5 1.9zm1.2 3.2l1.5-1.1-1.8-1v.1l-.6-.6 1.2.6.1-1.8-1.4 1-1.3-1.3-1.1 3.4 3.2-.3.2 1zm-.9 12.5l-1.8-1 .4 2.1 1.4-1.1zm.2-5.8l-.4 2 1.9-1-1.5-1zm-2.2 2.4l-.4 2.1 1.9-1-1.5-1.1zm6.1-5.4l.1-1.8-.4.3-.3-.9-.6.9.8.1-1 .6 1.4.8zm2.8-8.2l.1-1.8-1.5 1.1 1.4.7zm-4.6 8.8l-1.1.6.9.5.2-1.1zm1.2-6.1l-.3.9 1-.1-.7-.8zm5 8l.5-.9h-.9l.4.9zm4.8-2l.5-.9-1.2-.2.7 1.1zm-6-2.9l-.8.7.9.3-.1-1zm6.2-4l1-.4-.9-.5-.1.9zm-.9 20l.6-.9-1.2-.1.6 1zm-6-3l-.7.7.9.3-.2-1zm6.2-4l1-.3-.9-.5-.1.8zm-9.9 27l-1-.7v1.3l1-.6zm-4.6-5l-1 .2.6.7.4-.9zm7.3-.4l1 .1-.5-1-.5.9zm-3.2.5v1.3l1-.5-1-.8zm-3.8-4.2l-1 .3.6.7.4-1zm7.3-.5l1 .1-.5-.9-.5.8zm-9.4 1.7l-.2-1.2-.9.9 1.1.3zm6.3-1.3l.2-1-.9.2.7.8zm.4-16.2l-1 1-.1-.4-.9.9.4.1-.1.1 1.9.6-.2-2.3zm3.2-.5l1-.4-.9-.5-.1.9zm-5.3 6.4l-.7-.9-.4 1.2.7-.2.3 2.1 1.5-1.1-1.8-1 .4-.1zm-4.2-8.4l.2-1-.3.2.1-.3h-1l.4.5-.1.1.7.5zm4.9 5.3v-.2l-.4.2h-.1l-1.1.7 1.4.8.1-1 .6.8.6-1.3H250zm-.4-9.2l.1 1.3 1.2-.7-1.3-.6zm-8.7 20.6l1.1-.1-.7-1.1-.2.6-.8-1.3-.9 1.6 1.6.1-.1.2zm12.6-21.2l-.9.9 1.3.1-.4-1z"/><path d="M248.1 283.7l.7-.5-.9-.5.2 1zm.2-8.4l.2-1-1 .4.8.6zm-2.5 1.5l1.4.7.1-1.4 1-.1-1.1-1.3 1.3-1-1.8-1 .3 1.6-1.3-1.5-1.3 3.3 2.3-.1-.9.8zm3.5 2.2l-1-2.6-1.4 2.5 2.4.1zm-.4-3.8l-.1-.1.2 1.3.1-.1.1.3 1.9-1.5-2.4-1.3.2 1.4zm-6.8 15.1l.6 2.8 1.2-1 1.7 1h-1l.7 1.9.2-.3.1 3 2.7-2.1-2.5-1.4.6-1h-.1l.4-2.9-.1.1.4-.5-1.1-.1.7-1.2 1.4.8.3-2.3-2.4 1.1.6.4-1.8-.1.8 1.9.2-.4.3.6-.4.2-.7-.4.1.7-.8.3-2.1-1.1zm.3 12.5l1.8-1.1-1.4-.9.2-.3-3-.4 1.3 2.5 1.2-1.5-.1 1.7zm-.2-3l1.8-1.1-.9-.6 1.8-2.4-1.1-.1-2.6-.2 1.4 2.4-.1-.1-.3 2.1zm5.2-19.9l-1.5 1 1.4.8.1-1.8zm-3.6.9l1.4.8.1-1.5 1.7-.1-1.5-1.7 1.2-.9-1.9-1 .3 1.5-.8-.9-1.2 3.3 1.7-.1-1 .6zM257 272l.7 1 .5-.9-1.2-.1zm-.7-2.4l-.3 1 1-.3-.7-.7zm3.8 3.9l-.7.7.9.3-.2-1zm-18 12.9l1.5-1.2-1.3-.7 3.2-.2-2.7-3.1-1.2 3.3h.2l.3 1.9zm-.9 11.6l-.7-3.7.9-.7-.2-.1.4-.3-.6 2.2 2.6-1.1-1.7-1.4.5-.4-2.4-1.2.3 1.7-.6-.3.1.9-.5-.7-.9 2.1 1.3-.3-2 1.7 3.5 1.6zm-1.3-7.3l1.6.9.2-1.8h.9v.2l.3-.2h.6l-.2-.3 2-1.6-.6-.3 1.4-1.2-2.4-1.2.4 2.1-1.7-1 .1 2.4-.6-.7.6.1-.3-1.3-.6.8-.7-.9-1.2 3.3 1.6-.1-1.4.8zm3.9 16.4l1.2-1.5.3.5 1.5-2 .9 1.5 1.4-1.8-1.9-.2.1-.1-3.7-.3 1.3 2.2-2.2-.2 1.1 1.9zm2.3 4.4l1.5 2.6 1.7-2.2-3.2-.4zm2.1 4.1l1.2 2 1.3-1.8-2.5-.2zm-.6-4.8l1.4-1.8-2.5-.3.8-1.8-3.5.3 1.9 3.4.8-1.8 1.1 2zm2.3 1.8l-1.9 1.2 1.9.8v-2zm1.8 6.2v-2l-2 1.2 2 .8zm-3.1-19.1l-2.2 1 1-1.3h-.1v-1.9l-1.9 1.2 1.5.7-3.2-.3 1.8 3 .9-1.2 2 1.2.2-2.4zm1.5-.5l.1-1.1-.6.2.1-1.2-1.4.5 1.1.7-.3.1 1 .8zm-6.6 0l-.4 1 .9-.1-.5-.9zm3.8-6.3l.7-.7-1-.1.3.8zm5.4-10.5l-.4.4-.1-.2-.6.7 1 .1-.1-.2.5.1-.3-.9zm1.4-.9l1.8.2-.5-1.4-1.3 1.2zm-1.5 3.6l-.7.7h.6l.1.5.9-.5-.7-.4-.2-.3zm-1 7.3l.2-.8-.8.3.6.5zm6.2-10.5l1.5.3-.4-1.2-1.1.9zm-5.2-5.5l.7.7.4-1.1-1.1.4zm8.4-27.2l.1-1.8-1.5 1 1.4.8zm-4.2 1l.1-1.8-1.5 1 1.4.8z"/><path d="M261.6 251.1l1.5-1.1-1.8-1 .3 2.1zm-7.2 2.4l1.5-1.1-1.8-1 2.3-.2.2 1 1.5-1.2-1.8-1v.2l-2-2.1-1.1 3.4.9-.1.3 2.1zm.9-4.5l1.5-1.1-1.1-.6 1.7-.2.3 2 1.5-1.1-1.7-.9.8-.1-2.8-2.9-1.1 3.3h.5l.4 1.6zm-1.9 15.1l.4 2.1 1.5-1.2-1.9-.9zm2-4.8l-.4 2.1 1.9-1-1.5-1.1zm-2.5 4.4l1.9-1-1.5-1.1-.4 2.1zm6.4-7.3l.1-1.8-1.5 1 1.4.8zm3.3-10.5l-1.5 1 1.4.7.1-1.7zm-5.8 11.2l.9.5.2-1.2-1.1.7zm2-5.8l1.1-.1-.8-.8-.3.9zm5.3 7.1l.5-.9h-.9l.4.9zm4.8-2l.5-.9-1.2-.1.7 1zm-6.8-2.3l.9.3-.1-1-.8.7zm7-4.6l.9-.4-.9-.5v.9zm-1.4 20.4l.6-.9-1.2-.1.6 1zm-5.8-2l-.2-1-.7.8.9.2z"/><path d="M267.9 262.9l1-.3-.9-.5-.1.8zm-9.6 1.6l-.9.9-.1-.3-.9.9.4.1-.1.1 1.9.6-.3-2.3zm3.3-1.4v.9l1-.4-1-.5zm-9.4-1.3l.3-1-.4.1.1-.3h-1l.4.5-.2.1.8.6zm6.1 5.5h-1.6l1 1.3.6-1.3zm-1.4-8l1.2-.7-1.3-.6.1 1.3zm-2.2 11.5l-.9-.5.4 2.1 1.5-1.2-.3-.1h.6l-.5-1.2-.8.9zm6.1-13.7l-.8.9 1.3.1-.5-1zm-4.6 4.6l-.9-.5.2 1 .7-.5zm-.5-7.8l.2-1-1 .4.8.6zm-1.7 4l2.5.1-1-2.6-1.5 2.5zm2.5-2.7l1.9-1.5-2.4-1.3.5 2.8zm-5.6 4.5l1.4.8.1-1.4 1.9-.1-1.3.9 1.4.8.1-1.8-.1.1-1.6-1.8.9-.8.4.2.1-1.4h1.5L253 252l-1.3 3.3 1.9-.1-.9.6-.9-.5.2 1-.3-.4-1.3 3.3 1.4-.1-.9.6zm14.2-8l.5-1-1.2-.1.7 1.1zm-1.4-3.5l-.3 1 1-.3-.7-.7zm3.8 3.9l-.7.7.9.3-.2-1zm-8.2 2.4l-.3-1-.6.9.9.1zm-9.5 10.8l.5-.4.2.3.2-.6.1-.1.3 1.5-.7-.4.3 2.1 1.5-1.1-.3-.2 1.3-1.1-.4-.2.6-.4-1.8-1 .1.9-.6-.3.1-.1-1.5-.8 3.2-.1-2.6-3.1-1.3 3.3h.5l.3 1.8zm11.2-4.9l1.8.3-.5-1.4-1.3 1.1zm-1.6 4.5l.1.5.9-.5-.7-.4-.1-.3-.7.7h.5z"/><path d="M259.3 262.2l.5.1-.3-.8-.4.4-.1-.2-.6.7 1 .1-.1-.3zm5.5-1.2l1.4.2-.4-1.2-1 1zm-4.6-4.9l.4-1.1-1.1.4.7.7zm3.9-14.6l.1-1.8-1.5 1.1 1.4.7zm-4.2 1.1l.1-1.8-1.5 1.1 1.4.7zm5.9-.5l-.3-.8-.3.4-.9-.4.2 1.2.2 1 1.1-.9h.2l-.1-.1.2-.2-.3-.2zm-7.4-.7l1.5-1.1-.9-.5 1.5-.2.3 1.8 1.5-1.1-1.5-.8h.2l-2.2-2.3.3.2.3-1.2-1.1.5-.1-.1-1 3.4.9-.1.3 1.5zm.8 3.5l-1.4-.7.3 2.1 1.5-1.2-.4-.2 1.5-1.1-1.4-.7-2.3-2.7-1.2 3.3 3.2-.2.2 1.4zm6.4-6.7l-1.5 1.1 1.4.7.1-1.8zm-6 11.7l.9.5.2-1.2-1.1.7zm1.9-5.8l1.1-.1-.8-.7-.3.8zm5.9 6h-.9l.4 1 .5-1zm4.2-1.1l.5-.9-1.1-.1.6 1zm-6-2.9l-.8.7.9.3-.1-1zm6.1-4.9v.9l1-.4-1-.5zm-3 1.8l-1.2-.1.7 1 .5-.9zm-1.9-2.5l-.3 1 1-.3-.7-.7zm2.6 4.9l.9.3-.2-1-.7.7zm-3.7-9.5l-1.9-1 .4 2.1 1.5-1.1zm-2.4-1.3l1.9-1.1-1.5-1-.4 2.1zm5.4.8l-1.6 1.6 1.9.6-.3-2.2zm.5-6.5v.9l1-.4-1-.5zm1.9-2l-.8.9 1.3.1-.5-1zm-5.2 5.3l.4-.3.6-.4-1.5-1-.3 2.1.8-.4zm.1-8.4l.2-1-1 .4.8.6zm-7.2 22.8l.2 1.3.9-.6-1.1-.7zM241.7 303l.9 1.3 1-1.5-1.9.2zm25.7-71.9l-1.4 2.5h2.4l-1-2.5zm-1.8-13.8l-1.1 2.6 2.4-.2-1.3-2.4zm1.5-4.1l-1.1 2.6 2.4-.2-1.3-2.4zm.6 4.1l.2.9 1.3-1.2-1.2-.5.2-.4-.6.2h-.1v.1l-2 .6 1.7 1.7.5-1.4zm-2.7 3.5l1.7 1.7.6-1.6.7.4.1-1.8-.8.5-2.3.8zm.6 5.5h0l.3-.1-.2-.2.5-1.5-1.5.5-1.6-1.8-1.2 3.3 3.7-.2zm2.3-2.8l1.3-1.2-1.7-.8.4 2z"/><path d="M263.5 228.8l2.4.1-1-2.6-1.4 2.5zm6.7-9.3l-1-2.6-1.4 2.5 2.4.1z"/><path d="M264.7 220.3l-1.4 2.5 2.4.1-1-2.6zm-3.8 10.7l1.3.6h-.6l.7.8.3-.9h-.2l.1-1.4 1.9-.1-1.3.9 1.4.7.1-1.8-.1.1-1.6-1.8 1-.8-1.9-1 .2 1-.4-.4-1.2 3.3 1.4-.1-1.1.9zm-.7 5.2l.5-.4.3.3.2-.6.1-.1.3 1.5-.8-.4.4 2.1 1.4-1.2-.3-.2 1.3-1.1-.4-.2.5-.4-1.8-1 .1.9-.5-.3.1-.1-.8-.4 2-.1-2.7-3.1-1.2 3.3 1-.1.3 1.6zm9.2-2.5l-.7.7 1 .1-.3-.8zm-1.8-4.5l-.5-1.4-1.3 1.2 1.8.2zm2.2 5.8l-.7.7 1 .1-.3-.8zm23.2 81.3l-.3 1.1 1-.1-.7-1zm1.7-5l-1.6.6 1.4.9.2-1.5zm7.4 20.4l-2 .5 1.7 1.2.3-1.7zm-.3-10l1.6 1-.7 1.9 1.7-.7.6.4.2-1-.9.2-.9-.9.3-1.7-1.9.8zm2.3-3.3l-.8 2 1.9-.8-1.1-1.2zm-8.6-21.6l-.3.4h.1l-.1.2.3-.1-.3 1.1 1.1-.4-.7-.7.3-.1h.3l-.1-.1 1-.5-1.3-1.1-.3 1.3zm7.3 20.8l-2 .5 1.7 1.2.3-1.7zm-3-25.2l-1.6.6 1.3.8-.2.4-1.8-.6.2 1.7-.7.3 1.2 1-.4.6 1.8-.1-.3.3-.2-.2-.8 1.7 2-.1.1 1 1.6-1.6-1.8-.6 1.7.1-1.7-5.3-.6 1.1.2-1.1zm-1.5 2.8l.8-.8-.4.8h.4l-.8 1.2v-1.2zm2 3.3l-.9-1h.8l.1 1zm.5-3.1l-1 1.3-.7-1.3h1.7zm2.4 44.6l1.7-.7-1.6-1.3-.1 2zm2.2 7.1l-.1 1.9 1.7-.7-1.6-1.2zm-7.3-15.3l1.7-.8-1.7-1.2v2zm-13.2-49.1v-.2l-.2.1-.1-.1v.1l-.7.5.8.5.1.9 1.6-.8-1.5-1zm14 44.5l1.6-.8-1.7-1.2.1 2zm7.7 29.6l1.3-.6-1.3-1.1v1.7zm6-1v1.7l1.3-.5-1 1.2-.3-.2v1.7l1.4-.6-.2-.2.7.2-1.8 2.2 2.6.7-.6-2.9-.5-2.4-.2.2-1.4-1.1zm-11.2-45.9v1.7l1.3-.7-1.3-1zm-6.9-14.2l-.2-.8-.7.7.9.1zm5.4 20l-2 .6 1.7 1.1.3-1.7zm-13-1.5l.1 1 .7-.7-.8-.3zm15.6.3l.9-.6-1-.6.1 1.2zm-3.6-6.1l-.8.9h1.2l-.4-.9zm2.5 22l-.5 1.2h1.2l-.7-1.2zm5.3 11l-.5 1.2 1.3-.1-.8-1.1zm-4.8-13.6l-.5 1.3h1.3l-.8-1.3zm-6.7-1.8l.9-.7-1-.4.1 1.1zm11.2 8.3l-1.4-.1.4 1.1 1-1z"/><path d="M306.6 338l.9-1.1h-1.4l.5 1.1zm3.7-.4l-.3-2-1.5 1.5 1.8.5zm-5.7-5.4l1.4-1.4-1.6-.5.3-.3-1-.4v1.1l.3-.2.6 1.7zm-.2 3.4l.6 2 1.4-1.3-2-.7zm-2.7-14.7l1.4-1.3-1.9-.7.5 2zm-.9-10.5l1.4-1.4-2-.6.6 2zm-3.5-9.2l-.3.1.8.5.1-.8-.4.1 1.2-1.2-1.9-.6.5 1.9zm1.9 46.8l.1-1-1.1.5 1 .5zm8.8 10.8l-.3-1.1-.8.7.4.2-1.7.7 1.2 1.2.5-1.9.7.2zm-1.8-13.1l.8-.9h-1.2l.4.9zm7 8l-.4.7h.9l-1.1 1.3 1.4.4-.2-1.7-.4-.7.2.1-.2-1.3-.9 1 .7.2zm-19.7-30l.8.1-.4-.6-.4.5zm6.9-.9l-.7.3.5.4.2-.7zm-.3-15.9l.2.9.6-.6-.8-.3zm-2.3 3.8l-.3.6h.7l-.4-.6zm1.3-10l.5-.6-.6-.2.1.8z"/><path d="M297.2 303.2l-.3.4.6.1-.3-.5zm-11.5 37.2l.7.2-.2-.7-.5.5zm2.5-6.4l.3-.5h-.8l.5.5zm12.3 1.6l-.6 1h1.5l-.9-1zm5.8 5.2l-1.1.4.8.7.3-1.1zm.3-9.1l.2 1.1.9-.5-1.1-.6zm1.4 28.9l1 .6-.1-1.1-.9.5zm4-.1l-.9.5 1 .6-.1-1.1zm-9.3-27.3l-.7 1.5 2-.1-1.3-1.4zm-1.6 16.1h1.2l-.7-.9-.5.9zm1.9-2.7l-.7-.9-.1.2-.4-.5-.4.9h.6l-.2.3h1.2zm7.3 17.8l.6-1.9-1.8.8 1.2 1.1zm1.1-.7l1.3 1.2.5-1.9-1.8.7zm-.1-6.2l.5-1.9-1.8.7 1.3 1.2zm-11.1-44.1l1.1-.3-.7-.8-.4 1.1zm-1.3 7.9l-.9.5 1 .6-.1-1.1zm-.1-1.7l1.4-.4-1.2-.7-.2 1.1zm6.6 2.6l1 .4-.1-1.1-.9.7zm-.9-9.2l-1.2-.2.5 1 .7-.8zm-6.7-5.6l.2.5.7-.7-.3-.1-.6-.7-.1.4h-.1v.1l-.2.6.4-.1zm-2.3-12.1l1.2-.2-.9-1.1-.3 1.3zm-7.7-3.5l.1 1h-.2l.5.9.4-.9h-.5l.6-.5-.9-.5zm8.6 14.7l-.4 1.1 1-.1-.6-1zm-6-1l.4-.4.2.1v-.3l.1-.1h-.1l.1-.9-1 .6.2.1.1.9zm9.7-2.9l.8 1.1.6-1.1h-1.4zm-6.2 4.6l1.1.6-.2-1.2-.9.6zm23.1 64.1l-.2-.9-.6.6.8.3zm-23.2-95.9l-1.9 1.9-.9-.7 1.6-.4-1.7-1.4-.4 1.4-.1-.1-.4 1.9.8-.2 1.2 1.6-.6 1 2.2.1-1.2-1.7.6-1-1.9-.1 1.1-.2-.1-.1 1.9.2-.8 1.3 1.5.2-.5-1.4.7.1-1.1-2.4zm1.5 10.5l1.6.1-1.2 1.1 1 .2-1 .4 1 .6.1-.9 1.3.3-1.4 2.6h1.9l-1.4 1.7 2.7.1-.5-1.9h.1l-1.1-3.1-.2.4-.3-1.3h.1l-.2-.4-.1-.4h-.1l-.6-1.5-1.7 2zm10 41.8l-1.9-2.4-.7 2.9 2.6-.5zm-11.7-35.6l.6-1.1h-1.4l.1.2-.2-.1-.2-.3h.2l-.4-.7-.2.3-.2-.3-.5 3 2.6-.6-.4-.4zm-.6-.7l.4.5-.4-.5zm1.6 8.2v-.9l-.6.3-.5-.6-.2.9-.2 1 1.1-.3.3.2v-.2l.2-.1-.1-.3zm4.7 7.2l1.6-.3-1.2-1.5-.4 1.8zm-1.5-3.9l-.4 1.8 1.7-.3-1.3-1.5zm5 4.8l-1.2.9 1.5.3-.4.4 1.6.3-1.3 1.7.4.1v.6l-1.3-.1.8 1.1.5-.9v.4l1.3-.6-.4-.3 1.1.3-.7-3.1-.5.6-.3-1.4-.5.4-.1-.7 1.2.3-.6-3-1.9 2.3.8.4zm1.6 7.2l-.9.3.4.2v1.7l1.7-.7-.6-.5.2-.8 1 .3-.5-3-2 2.2.7.3z"/><path d="M304.2 318l.8.3.5.8.3-.5.9.3-2 2.2.3.1-.5.1 1 .6.1-.6 1.6.5-1-6-2 2.2zm2.5 6.6l-1.2.9-.5-.3.4 3 1.4-.9 1.3.6-1.4 1.1h.1l-1.1.9 1.9.7-.9 1.1 2.4.6-1.3 1.3 1.8.6-.3-2.1v.1l-.6-2.8-.9 1.1-.4-1.4 1.4.3-.3-1.4-.5-2.1-.7.6-1.6-.9 1.9.4-.3-1.1.6.2-.5-3-2 2.2 1.3.3z"/><path d="M307.5 336.9l2.2-1.4-2.7-1.5.5 2.9zm2.4 2.6l-.2-.8-.5.4h-.1l.2-.8-1.2.3-.2-.1v.2l-.7.2.8.5.1.6-.4-.3.2 1.2-.1.1h.1l.2 1.7 1.4-1 1 .5-.7.5-.2-.2v.4l-.6.5.6.1v.1l-.8.8 1.7.6-.6.8-1.8-2.2-.7 2.9 2.4-.5-.2.2 2.4.6-.9.9-.4-.3v1l-.2-.1.1.9v.2l.3 1.9 1.8-1.2-1.4 1.5.5.2.3.8-2.5.5 1.6 2.1 1.2-2.5.6-.2-1-.6 1 .3-.3-2.1-.2-.1-.3-1-.5.4-.4-.3.8-.3.4.1-.5-2.2-.6-2.9-.8 1-.2-.7.8-.3-.3-.3-.3-1.4.7.4-.5-2.5-.8.8-.6-.3.5-.3h.2v-.1l.5-.3-.7-.3zm7.1 32l-1.5 1.8 2 .5-.5-2.3zm-2.6-.6l-.5 2.3 2-.4-1.5-1.9zm-17.6-51.2l-.6-.2.2.9.4-.7.3.3.3-1.2-1.1.5.5.4zm5-4.3l.1.4-.4.2.9.8.2-.8.1-.1-.1-.1.1-.3-.4.2-.5-.3zm-7.9-1.9l1 .1-.3-.9-.7.8zm-13.8-65.1l-1.6.6 1.4.8.2-1.4zm10.8 50.5l-.1-.5-.7 1 1 .2-.1-.4h.2l-.3-.3zm6.2-.4l1.3-.1-1.1-1.2-.3.8-.4.2.3.2-.1.1h.3zm-7.3-7.4l-.3.5h.6l-.3-.5zm-7.6-33.2l.5-1.1h-1.4l.9 1.1zm-5.2-6.5l-.3 1.1 1.1-.4-.8-.7zm-1.8 10l1.1.6-.2-1.2-.9.6zm11-2.2l-.9.3.7.4-.3 1.1 1.9-.3-1.4-1.2v-.3zm-6.7 4.2l-.8-.3.1 1 .7-.7zm7.9 31.6l-.1.1-.8-1-.7 1.6 1-.2-.2.1 1.1.6-.3-1.2zm8 5.3l.3 1 .6-.6-.9-.4zm-7.5-2.1l-.6.9h1l-.4-.9zm.8-17.2l-2.3 1.3 2.6 1.7-.3-3zm-.1-3.5l-.1 1.2 1-.4-.9-.8zm0-6.1l-.9.6.9.3v-.9zm-5.5 2l1.4-.1-.6-1.1-.8 1.2zm-.7-.3l-1.3 1.3 1.7.2-.4-1.5z"/><path d="M286.7 272.3l-.7.6.8.4-.1-1zm-3.6-4l-.3.8.8-.2-.5-.6zm3.4 6.2l-1-1.8-1.1 1.6 1.6.2-.5.1.6.9.6-1.1-.2.1zm7.8 17.4l.2 1.2.9-.6-1.1-.6zm-12.3.3l.7-.4-.9-.6.2 1zm2.1-22.8l-1.3 1.8 2.1-.1-.8-1.7zm3 1l.9-2h-1.9l1 2zm2.1-.1l1.1 1.9.9-2-2 .1z"/><path d="M293.8 275.2l-.8-1.8-1.9 1.2 2.7.6zm-4.6-3.5l-.5 1.8 1.3-.3 2.9.2-1-2.6-1.5 1.8-1.2-.9zm-3.2-1l-.3 1.2-.9-.6v1.3l.4-.2.5.5.1-.4 1.7-.4-1.5-1.4zm.6 4.2l2.2-.5-1.7-1.4-.5 1.9zm-.7 4.2l.9-1.9h-1.9l1 1.9zm2.6-16.1l-.9-1.8-1.1 1.3 2 .5zm-1.9-4.6l-.8-1.8-1.1 1.3 1.9.5zm-2.6-3.5l-1.4-1.2-.5 1.6 1.8-.3.4 1.1.8-.7-1.1-.5zm-5.2-12.2l-.5 1.6 1.9-.4-1.4-1.2zm17.4 49.2l.7-1.5h-1.5l.8 1.5zm-5.6-11.7l-.1 1.9.6-.3-.1.9v.1l1.4 1.5h-.8l.8 1.6.7-1.6h-.7l.4-2.1-1.4.4.5-.3-.7-.5 1.4-.6-2-1zm-1.6-1.5h0l-.7.6.7.1v.5l-.3.1.3.2 1 .9v-1.3l1-.4-1.9-1.1-.1.4zm4.4 2.5l-.1 1.9 2-.9-.3 1.6-.5-.3-.2 1.9 2-.9-1.2-.6 1.9-.5-1.7-1.9-.1.6-1.5-.8 2.6.1-1-2.4-1.6 2.2h-.3zm6.6 19.3l-.6 1.3h1.7l-1.1-1.3zm.1 2.3l-1.4.5 1.3 1.1.1-1.6zm-3.7-11.3l-.8 1.7 2.2-.1-1.4-1.6z"/><path d="M301.5 300.9l-.7 1.4h2.1l-.6.7.1-.2-.6.2.3.3-1 1.2 1 .3-1 .3 1.4.9.2-1.1 1 .3-.6-3-.1.1-.9-1.1.7.3-.6-2.1-1.4 1.3.7.2zm7.1 48.9l.9-1.1-1.4-.1.5 1.2zm1.7 1.5h-1.2l-.3-.2.4-.4-1.9-.6.6 2 .5-.5v.1l.6-.3.5 1 .8-1.1zm-7.5.1h1.4l-.9-1.1-.5 1.1zm6 5.3l.3-1.1-1.1.4.8.7zm1.6-9.9l-1-.6.2 1.1.8-.5zm4.9 17.6l-1.1 1.2 1.6.5-1.3 1.4h.1l-.6 2.9 2.6-.5-1.9-2.4 1.6.5-.8-3.8-.4-2.1-1.3 1.6-.6-.1.2.8.4-.4 1.5.4zM292.8 286l.2.2-.4.5 1 .1.8.8-1.2 1.2 1.6.2-.1.3-.6.2 1.1.9-.5.2.4.4.1-.6.2.2v-1.1l1.4-.1-1.4-1.6-.5 1.2-.4-1.4.1-.7.8-.5-.6-.4.1-.5-2.1.5zm-8.7-27.2l.2-1.5-1.3.3 1.1 1.2zm7.5 29.7l.4-.6-.6-.1.1.5-1.2.3 1 1.1.3-1.2zm-3.6-3.2l-.1 1.5h.1l1.1-.4-.2-.2.3-.2-1.2-.7zm.1-1.3l-.8-.5-.1 1.1.9-.6zm4.3 3.2l-.1 1.1.9-.5-.8-.6zM287 275l1.2 1.9.6-1.7.2.9.7-.6-.9-.4.1-.3-1.9.2zm-3.1-6.5l2.2-.5-1.7-1.4-.5 1.9zm-11-2.6l.8-.5-.9-.5.1 1z"/><path d="M272 259.9l-.6.5.8.1-.2-.6zm-4.3 6.3l.3-.7h-.7l.4.7zm16.3 13.6l-.9.8 1 .4-.1-1.2zm4.2 10.7l-1.9-.7.5 1.9 1.4-1.2zm.2-23.5l-.3 1.6 1.6-.5-.3.6-.8 1.3 2.9-.1-1.2-2.7-.4.7-1.5-.9zm-4 18.6l-.3.2.2-.4h-.7l.5-.1-.4-.5-.3.7h.1l.3.6-.8.5 1.6.5-.2-1.5zm-.8-21.7l.6.5-.2-.1.4 1.1.5-.4-.3 1 1-.2-.6-.9.2-.2-.5-.2.3-.9-1.4.3zm-5-4h.6l-.4-.8-.4.6-.3-.1-.1 1.2 1-.6-.4-.3zm1.1 10.1l-.4-1.1-.7.8 1.1.3zm-5.5-7.3l-1-.2.5.9.5-.7zm-3.8-3.7l.7-.2-.4-.6-.3.8zm-1.3 5.7l-.6.3.6.5v-.8zm11.9-14.5l1-.1-.4-.8-.6.9zm-2.5 6.7l-.9.2.7.7.2-.9zm2.7-2.6l-1.2-.3.4 1.1.8-.8zm-3.6-5.9l-.5.9 1-.1-.5-.8zm-3.8 7.8v-.5l-.8.6.8.3-.3.2.9.6.1-1.2v-.3l-.7.3zm.1.2l.2.2-.2.1v-.3zm3.6-1.9l-1-1.2-.7 1.7 1.7-.5zm6.9-.8l-.9-2-1.3 1.4 2.2.6zm-2.9-6.6l-1.3 1.4 2.1.5-.8-1.9zm6.6 40.5l-1.2.6 1.2.9v-1.5zm-3.4 1.7l-1 .6.9.5.1-1.1zm-9.4-24l.9.1-.3-1-.6.9zm10.1 26.8l-.2.8.7-.4-.5-.4zm3.8-6l1-.1-.1-.1.9-.5-1.1-.6.1 1.1-.3-.5-.5.7zm-2.7 6.6l-.9.2.7.8.2-1zm-1.4-4.3l-.3-1.2-.7 1 1 .2zm-12-33.8l.8-.4-.6-.4-.2.8zm6.3-3.2l.1.7-1.1.4.8.7.3-1.2.1.4.9-.5-1.1-.5zm-1.1-6l-.7.7 1 .2-.3-.9zm-4.5 6.8h-.9l.5.9.4-.9zm20.5 49.8l-1.9-.8.5 1.9 1.4-1.1z"/><path d="M284.6 297.9l-.3 1.7 2-.6-1.7-1.1zm6 .3l-.1-1.5-1.4 1h.1l-.8.2.7.7.1-.9 1.4.5zm3.9 7.7l.3-1.2-1.4.2 1.1 1zm-6.4-5.5l-.1 1.2 1-.6-.9-.6zm.1 10.1l1.1.4-.4-1.1-.7.7zm-6.2-34.1l.5.8-.5-.1.4 1 .5-.9h-.3l.5-.6-1.1-.2zm-2.6-4.1l-.3.8.8-.2-.5-.6zm-2.1 6.8l.6.5v-.9l-.6.4zm5.5 24.2l.5.9.5-.6-1-.3zm-2.8-3.5l.8-.2-.4-.6-.4.8zm-1.3 6.5v-.8l-.6.3.6.5zm17-10.3l-1.2-.4.4 1.1.8-.7zM281 259.6l1-.1-.4-.8-.6.9zm9.9 34l-1 .6.9.6.1-1.2zm2 3.7l.4-1.9.4-.4-.8-.2.1.5-1.6.3 1.5 1.7zm-2.1 3.3l-1 .6.9.6.1-1.2zm-5.1 5.6l-.2-1-.6.8.8.2zm12.7-3.1l.8-.7-1.2-.4.4 1.1zm-16.7-37.2l.5 1.8 1.4-1.1-1.9-.7zm3.6-1l2-.6-1.6-1.1-.4 1.7zm-1.3-4.1l-.2-1.5-1.4 1 1.6.5zm-5.5 6.3h0l.1-.7-.9.2.5.5-1.1.2 1.1.9.3-1.1zm-6.9-4l-.1 1.2 1-.6-.9-.6zm.5 10.1l1.1.3-.4-1.1-.7.8zm10 8.1l-1.2-.4.4 1.1.8-.7zm-3.5-5.9l-.6.9 1-.1-.4-.8zm-3.1 7.6l-.9.2.7.7.2-.9zm6 11.7l.7-.8-1.2-.4.5 1.2zm-3.4-5.8l1-.1-.4-.7-.6.8zm-2.6 7.7l.2-1-.9.2.7.8zm14.5-30.2l-.9-1.7-1.3 1.8 2.2-.1zm-12.5-5l-1.2.6 1.3.9-.1-1.5zm-3.3 3l.1-1.2-1 .6.9.6zm-5.3 4.4l.9.2-.3-1-.6.8zm13.2-3.7l-1.2-.4.4 1.1.8-.7zm-6.8 2.4l.2-1-.3.1.4-.2-.6-.4-.1.7-.3.1.7.7zM294 315l-1.1.5.8.7.3-1.2zm4.5-2.5l.6-.5 1.7-.7-1.2-1.2-.6 1.8-.8-.3.3.9zm-7.6-3.5l-.6.8h1l-.4-.8zm1.8-4.8h-.2l.1-.4-.2.1-.5-.4-.2.8.2-.1.1.1-.6.1 1 1 .3-1.2zm-6.2-4h.6l-.4-.8-.5.6-.2-.2-.1 1.2 1-.6-.4-.2zm-3-37.7l2-.5-1.6-1.1-.4 1.6zm13.1 53.3l-.9.5 1 .6-.1-1.1 1 1 .4-1.2-1.4.2zm-5.3-4.6l-.1 1.2 1-.6-.9-.6z"/><path d="M291.3 321.4l1.1.4-.4-1.1-.7.7zm-5-12.3l.2.5-.5.5 1.1.4-.2-.7.3-.4-.9-.3zm-2.8-3.5l.8-.2-.4-.6-.4.8zm-1.3 6.4v-.8l-.6.3.6.5zm8.1 14.6l.5-.6-1-.2.5.8zm-2.7-5.1l-.4.7.8-.1-.4-.6zm-2 7.1l.1-.8-.7.3.6.5zm9.9-27.5l-.6.9 1-.1-.4-.8z"/><path d="M292 309.5l.2-1-.9.2.7.8zm2.9-3.3l-1.2-.4.4 1.2.8-.8zm-3.3-6.1l-.6.9h1l-.4-.9zm-3.5 8.4l.2-1-.9.2.7.8zm-.1 8.3l.9.2-.2-1-.7.8zm-2.2-9.4l-1.4.2 1 .9.4-1.1zm-6.7-4.3l-.1 1.2 1-.6-.9-.6zm0 10.1l1.1.4-.4-1.1-.7.7zm10-6.9l.8-.7-1.2-.4.4 1.1zm-6.1 1.4l.2-1-.9.2.7.8zm-7-61.6l-.7.9 1 .2-.3-1.1zm6.5 15.6l-.9.8 1 .4-.1-1.2zM286 279l1 .4-.1-1.2-.9.8zm-3.6-8.6l.2-1.5-1.3.7 1.1.8z"/></g><g fill="#db7c46"><path d="M186.1 260l-.1-1.8-1.4 1.2 1.5.6zm.8-1.2l1.3-1.2.2.8.4-.4 1.3.5-.1-1.8-1 .9-.7-.3.1.2-1.9-.8.4 2.1zm-1.7 17.1l1.3-1.3-2-.8.7 2.1zm.9-7.1l-.2 2.1 1.8-1.2-1.6-.9zm-2.1 4.8l1.8-1.3-1.6-.9-.2 2.2zm5.5-10l-.4.4-.4-.9-.5.9h.9l-.9.7 1.5.6-.2-1.7zm1.9-6.7l-.1-1.8-1.4 1.2 1.5.6zm-4.6 10l1 .4.1-1.2-1.1.8zm1.5-6.9l-.2.9 1-.2-.8-.7zm5.9 7.3l.4-1-.9.1.5.9zm3.7-3.5l.8 1 .4-1h-1.2zm-5.4-1.3l-.7.8.9.2-.2-1zm5.7-4.6l.9-.5-1-.4.1.9zm1.4 19.9l.5-1h-1.2l.7 1zm-6.3-2.2l-.6.8.9.2-.3-1zm5.7-4.7l.9-.4-.9-.5v.9z"/><path d="M196.1 290.7l.4-1h-1.2l.8 1zm-7-1.5l.9.2-.2-1-.7.8zm6.3-6.3l.1.9.9-.5-1-.4zm-1.5 4.3l.5-1-1.2-.1.7 1.1zm-6.9-1.5l.9.2-.3-1-.6.8zm6.3-5.5l.9-.5-1-.4.1.9zm-3.7-6.6l-.9 1.1-.2-.4-.7 1h.4l-.1.1 1.9.4-.4-2.2zm4.1-1.4l-1-.4.1.9.9-.5zm-9.7 7.9l.6-.6-1-.4.4 1zm5.8-3.7l-1.2.1v-.3l-.3.3h-.1l-1 .9 1.5.6v-1l.7.7.4-1.3zm-1.3-8.5l-1.4-.4.3 1.2 1.1-.8zm2.3-1.5l-.8 1 1.3-.1-.5-.9zm-4.6 5.8l.6-.6-.9-.4.3 1zm-.8-8.4l.1-1-.9.5.8.5zm-1 3.8l2.4-.2-1.3-2.4-1.1 2.6zm.3 16.1l.9-1.9-1.8.1.9 1.8zm.5-6.6l-1.8.2 1 1.8.8-2zm9.2-16.6l.4-1-1.2.1.8.9zm-1.8-3.2l-.2 1 1-.4-.8-.6zm3.6 4.1l.9.2-.3-1-.6.8zm-12.3-4.3l.5 1.8 1.4-1.2-1.6-.7 3.2-.7-.4-.4 1.3-1.3-.3-.1 1.2-1.2-.4-.2.5-.5-1.9-.7.2.8-.6-.2.1-.1-1.6-.6 3.1-.5-3-2.8-.9 3.4.5-.1.5 1.9.4-.5.3.3.2-.7.1-.1.5 1.5-.8-.3.6 2-1.6-1.3-.2-.5.1-.9-.9.5-.1-.1v.2h-.1l-.6 3.2.3.1zm-.2 28.7l.6-.6-.9-.4.3 1zm-1.6-8.8l.8.4.1-.6 1.6-1.7-2-.8.1-.2-.4-.1-1.4-.5 1.6-.3.1.4.3-.4 1.1-.2-.6-.5.5-.7-.8-.1.1-.8-.3.2.1-.4-1 .2.5.4-.1.1.3.2-.4-.1-.7-.6 1.1-.5.4.2-.1-1.1.1-.4 1.7-.3-1.2 1.1 1.5.5-.1-1.8-.1.1-1.8-1.6.9-.9-1.9-.7 1.4-.2-.4.5.8.2.7.3v-.3l.2.1-.3-.6v-.6l1.2-.2-1.4-1.3 1.1-1.1-1.6-.6 2-.4.2.8 1.3-1.3-1.9-.8.1.3-2.2-1.8-.6 3.5.9-.2.2.7-.8-.5.1.3-.4-.4-.9 3.4h.2l.3.9-.4-.4-.8 3.1-.4 2.3-.3 1.2-.1-.1-.1.9h.1l-.1.5h-.2l.8 2.7-.2-.5-.2.3-.5-.5-.2.7-.1-.1-.7 3.1v-.1l-2 1.5 1.9.5.1.5.6-.6-.4-.2-.1-.8 1.5.6v-1.4l.4-.1.6 1 .5-1.2.7-.1-.5-.4v-.1h-.1l-1.5-1.3.2-.1h.3v-.1l.2-.1-.3-.3v-.1l1.3-1.8.6 1.7-.8.6zm.3-7.9l-.5.5-.4-.3.9-.2zM179 280l-.1-.3.5-.1-.4.4zm1.6-6.4v.2l-.5-.1.5-.1zm10-3.2l-.4.4-.1-.2-.6.8h1l-.1-.2h.5l-.3-.8zm2.3-2.5l-1.1 1.3h1.7l-.6-1.3zm-2.2 5.2l-.1.2-.4.6h.6l.1.5.8-.6-.8-.3-.2-.4zm-1 7.5l-1.3-.5-.1-.2-.1.1-.4-.2.4-.2-.9-.7-.3 1.2.7-.3.2.6-.4.5h.5l.3 1 1.4-1.3zm1-.2l.1-.9-.8.5.7.4zm4.9-11.1l1.5.1-.6-1.1-.9 1zm-4.8-5.4l-1.1.5.8.6.3-1.1zm3.9-29.3l-1.4 1.2 1.5.6-.1-1.8zm-4 1.5l-1.4 1.2 1.5.6-.1-1.8z"/><path d="M188.9 241.5l1.3-1.3-1.9-.8.6 2.1zm.1-4.7l1.1-1-1.5-.6.4 1.6zm3.1 1.8l-1.9-.7.6 2 1.3-1.3zm-3.3-6.3l-.3 2.1 1.7-.6-1.4-1.5zm2.3 20.5l-1.9-.8.6 2.1 1.3-1.3zm-.6-5.7l-.2 2.1 1.8-1.2-1.6-.9zm-2 4.7l1.8-1.2-1.6-.9-.2 2.1zm5.5-8.1l-.1-1.8-1.4 1.2 1.5.6zm9.3 11.5l.7 1 .5-1h-1.2zm-5.3-.3l-.3-1-.6.8.9.2zm6.3-6.1l-.9-.4v.9l.9-.5zM194 252l-.8.9-.2-.3-.7 1h.4l-.1.2 1.9.4-.5-2.2zm3.2-1l.9-.5-1-.4.1.9zm-9.5-1l.1-1-.3.2.1-.4-1 .2.5.5-.1.1.7.4zm6.6 4.6l-1.6.2 1.2 1.2.4-1.4zM192 247l1.1-.8-1.4-.4.3 1.2z"/><path d="M191.8 257.7l-.6.9-1-.4.6 2.1 1.3-1.3-.3-.1h.6l-.6-1.2zm-5.7 7.2l.1-.1.1.3 1.7-1.8-2.6-1 .4 1.4-.1-.1.4 1.3zm9.5-20.6l-.7 1h1.3l-.6-1zm-4.9 4.8l.3 1 .6-.6-.9-.4zm-.4-8.4l-.9.5.8.4.1-.9zm-1.3 5.2l2.4-.2-1.3-2.4-1.1 2.6zm4.5-4.9l-.5.9h.9l-.4-.9zm-7.9 6.5l1.4-.2-.9.8 1.5.5-.1-1.4 1.9-.3-1.2 1 1.5.6-.1-1.8-.1.1-1.8-1.7.9-.8.4.1V243l1.4-.2-3-2.8-.9 3.4 1.8-.3-.8.7-.9-.4.3 1-.4-.4-.9 3.5zm2.5-10.8l-.4 2.4 2.7-.6-2.3-1.8zm6.9 12.1l-.4.4-.1-.2-.6.8h1l-.1-.2h.5l-.3-.8zm2.3-2.5l-1.1 1.3h1.8l-.7-1.3zm2.7 1.3l1.5.1-.6-1.1-.9 1zm-4 4.5l-.7-.3-.2-.3-.1.2-.5.6h.6l.2.5.7-.7zm-1-8.8l.2-1.2-1.1.5.9.7zm-4.2-14.8l-1.4 1.2 1.5.5-.1-1.7zm.2-1.2l-1 .2.8.7.2-.9z"/><path d="M192.1 234.7l.8-.8-1.2-.4.4 1.2zm-1.4-3l-1.5-.5.5 1.6 1-1.1zm2-.6l-1.1-.4.3 1.2.8-.8zm1.8 6.6v-1.2l-1 .8 1 .4zm.5-7.4l-.2.9 1-.2-.8-.7zm6.4 6.3l-.9.1.5.9.4-1zm-64.7 72.8l-.9.8 1.2.2-.3-1zm-4.6-.2l-1.5-.1.8 1.5.7-1.4zm-9.6-3.8H121l.6 1.3-1.5-.3.7 3 1.8-2.4-.8-.2.7-1.4zm1 4.9l.7-1.5h-1.5l.8 1.5zm27.2-9.1l1-1.8-1.7-.2.7 2zm-9.9-1.5l2 .4-1-1.7-1 1.3-1.7-.1.9 1.9.8-1.8zm-3.3-1.3l-1.1 1.4 2.1.4-1-1.8zm-7 7.2l.4-.2-.6-.6-.1.3-.7-1.2-1.1 1.4 1.6.3-.1.2.6-.2zm7.1-4.4h-1.7l.9 1.9.8-1.9zm-2.4-.9l-1-1.5-.4.7h-1.3l.7 1.6.2-.4 1.8-.4zm20.9-3.1l1.9-.2-.9-1.6-1 1.8zm10.4-3.6l-1-1.5-1 1.8 2-.3zm-18 9.9l1.9-.3-1-1.5-.9 1.8zm-3.6-2l-.9 1.8 1.9-.3-1-1.5zm25.1-17.3h0l-.6.5v-.2l-1.2.5 1.1.7.1-.9.8.2-.2-.8 1.4.9.2-1.5-1.6.6zm2.1 7l1.6-.3-.8-1.2-.8 1.5zm.3-7.6l-.8 1.5 1.6-.3-.8-1.2zm-44.3 19.9l1.7-.3-.9-1.2-.8 1.5zm7.1 1.8l.9-1.8-1.7-.1.8 1.9zm-.7 11.2l1-.2-.8-.6-.2.8zm-2.7-15.4l-.4 1.1 1.1-.4-.7-.7zm-4.9 4.5l1 .7-.1-1.2-.9.5zm23-5.2l-.2-1.2-1.1.8 1.3.4zm8.7-6.8l1.3.4-.2-1.3-1.1.9zm-12.6 6.3l1.3.4-.2-1.3-1.1.9zm-2 7.1l1.1-.2-.8-.8-.3 1zm8-11l1.1-.6-1.2-.8.1 1.4zm16.1-10.9l-.5 1.4.1-1.2-1.7.7-.1-.1-.1.1-.9.5.5.4-.2.5-.4-.6v-.2l-2 .9 1.2.8-.2.3.6-.1.2.1v-.1h.2l-.1.2.9-.3h.2l1.8-.7-1.1-1.1 1.1.8.1-.6.7-.5 1 2.3 1.8-2-2.7-.7-.4-.8zm-13.2 5.3l-2 .6 1.7 1.3.3-1.9zm-6.5 7.4l1.9-.9-1.5-1.2-.3 1.5-.6-.6-.3 1 .8-.1v.3zm5.1-1.4l1.9-.9-1.5-1.2-.4 2.1zm-15.7 4.2l-.4 2 1.9-.9-1.5-1.1zm-10.7 2.3l-.4 2 1.9-.9-1.5-1.1zm39.6-1.9l.3-1.1-1 .1.7 1zm9-11.2l.1-1.2-1 .6.9.6zm-13.5 4.2l.8-.6-1-.6.2 1.2zm-23.6 11.9l-.1.5h-.7l.6 1 .5-.8.3-.1-.6-.6zm4 2.6l.5.3v-.8l-.5.5zm-1.4-6.5l.3.7.4-.5-.7-.2zm-15.9 3.2l.8-.3-.7-.5-.1.8zm4 1.8l.6.2-.1-.8-.5.6zm-.9-5.8l.9.6.1-.7.5-.1.1 1 1-.9.5-.4-.9-.5v.8l-.2-.1-.8-1.2-.2.3.1-.7-2.9 1 1.8.9z"/><path d="M160.7 314.5l.1-.7-.7.2.6.5zm-7.3-1.3l.5-.5-.6-.2.1.7zm.8-12.5l1.1.5-.1-1.5-1 1zm5-5.4l.6-.9-1.2-.2.6 1.1zm-8.6-.5l-.6-.8-.4 1.1 1-.3zm27.9-7.1l.2-1.2-1 .6.8.6zm-.8-4.2l-1 .5.8.6.2-1.1zm-10 6.1l-.5-.3-.2 2 1.9-1-.6-.4h.1l-.4-.5.9-.6-1.2-.6.2 1.2-.2.2zm-16.4 8.8l1.6.6-.3-2-1.3 1.4zm15.6-1l1 .3-.2-1.2-.8.9zm-2.1-1l-.7.9.2.1-.4.5.9.3-.1-.6.3.1-.2-1.3zm13-5.9l.5-1.6-2 .3 1.5 1.3zm2.5-4.8l.5-1.7-2 .3 1.5 1.4zm-.8-3.7l1.9.5-.3-1.7-1.6 1.2zm-6 4.1l-2-.2 1.1 1.6.9-1.4zm-42.9 18l1.1.2-.5-1.1-.6.9zm10.2-.1l-1.1.3.6.8.5-1.1zm-2.7.7l-.6-1.3-.5 1.3h1.1zm-13.1 2.2l1.2.2-.5-1-.7.8zm10.1.8l.5-1.1-1.1.3.6.8zm11.3-8.6l-.8-2.2.5-.1-1.2-1.4.5-1.3 1.4 1.4v-.1l1.1 1 .5-2.1 1.1.7.4-2.6-2.9 1 1.4.9-1.5.7.1-1.4-1.6.5.1-.2-2 .7.8.8-.7 1.7.1-1.9-1.5.5.1-.6-2.9 1 1.9 1.3.5 1.1.5-1.1h-.3l.2-1.6 1.3 1.4-.2.5 1.9-.5-1.7 1.8 2.9.1zm-21.2 6.9l-.5-1.6-1.4 1.4 1.9.2zm.5-3.6l1.1 1.1.1-1.5.4.4.1-1.7-1.4.5.4.4-.7.2.2-1.2-2.9 1 2.5 1.6.2-.8zm7.1-4.3l-2.9 1 2.5 1.6.4-2.6zm3.1.5l.5-.4-.4-.2.1-1-2.9 1 2.5 1.6.2-1zm3-.3l.3.6.4-1.1h-.6l.1-.5.5.5.2-1.1-.7.2.1-1-2.9 1 2.5 1.6.1-.2zm12.3-4.3l2.8-.8.1 1.3 1-.6-1.1-.7h.1l-1.7-2-.7 1.8.1-1.5-1.9.8 1.7 1.1-.4.6zm-28.5 9.4l.5 1 .7-1.5h-1.1l.2-1.2-2.9 1 2.5 1.6.1-.9zm-3.5-.2l.8 3 1.8-2.4-2.6-.6zm15-.8l.3.4.6-1-.9-.1-.1-.1v.1h-.3l.2.4-.2.5.4-.2zm-1.8 7.7l.9.5-.1-1-.8.5zm32.8-20.7l.2 1.4 1-.6-1.2-.8zm2.8 5.7l1.1.4-.2-1.4-.9 1zm5.1-6.5l-1.2-.1.7 1 .5-.9zm-10.3 1.4l1.1-.4-.7-.7-.4 1.1zm-3.2 1.8l-1.2-1.3.6-1.6-2.4.8 1 .8-.2.4-.4-.4v-.2h-.1l-.4-.4-.3.7-.8.3.5.5v.1l-.8-.1.4 1.1-.1.3.2-.1.2.7.4-.9.6-.2-.2.5 1.1-.3.2.2.1-.3 1.6-.6z"/><path d="M162.7 287.2l-2.9 1.2.5.3-.1.2-1.4.5.7.6-.1.2h.4l.6.5v-.6h.1l.9.7.4-1.5.6.3-1.7 2.1 3 .1-1-2.2v-2.4zm-1.9 2.1l-.2-.4.5.3-.3.1zm13.5-5.1l.8-.2-.9-1v-.5l2.8 1.1-.2-2.7-2.7 1.5v-.1l-2.1 1.2 1.6.6-.2.4.6-.2h.2v-.1h.1zm-39.1 25.5l-1.3-.1.7 1 .6-.9zm-6.7 3.7l.9.5-.1-1-.8.5zm6.3-6.7l.8-1.1-1.2-.2.4 1.3zm-3.8 5.9h1.2l-.7-.9-.5.9zm10-1.3l.2-1.2-1 .5.8.7zm4.6.8l.8-.5-.7-.5-.1 1zm-4 2.8l.8.3-.2-.7-.6.4zm6.9 1.7l.4-.7h-.8l.4.7zm-11.6-1.4l.1-.9-.9.4.8.5z"/></g><g fill="#7a2517"><path d="M185.6 325.8l.2 1 1-.8-1.2-.2zM166.1 344l-.4-1.1.1-.3-.2.1-.2-.7-.5.9-.6.1.2-.5-1.2.3-.1-.1v.1l-1.6.4 1.3 1.5-.7 1.7 2.4-.7-1.1-.9.2-.4.3.4v.2h.1l.4.5.3-.7.8-.3-.5-.5.1-.1.9.1zm16.6-6.8l-.7-2-.9 1.7-2-.5.8 1.7-.3.7 1 .1-.3-.9.9-.9 1.5.1zm2.7.1l-2-.6.9 1.8 1.1-1.2zm0-3.4l-1.1 1.8 1.7.2-.6-2zm-20.2 4.1l-.2-.7-.4.8h-.7l.3.6-.2.4.4.1.3.6.3-.5.6.1-.2-.7.4-.6-.6-.1zm-9.4 4.5l1.1-1.7-1.9.1.2.4h-.6l.8 1.7.4-.6v.1zm16.7-8.6l.2-.4.6.7.4-1-.9.1.7-1.2-1.9.2.9 1.6zm43.9-18.1l.4.2-.8 2 2.9-.9-1-1.1.1-1.6-1.5 1.1v-.1l-.1.1-.7-.5-.2.9-.8.4 1.4 1.2.3-1.7zM148.1 344l1-1.4h-.8l-.6-1.2-1.1 1.3 1 .2.5 1.1zm.8 4.6l-1.7.1.6 1.2-1.3-.9.2-.3h-.6l-1 .1.6 1.3.2-.2-.1.7-2.4-1.6-.5 2.6 5.2-1.5-.2-.1 1-1.4zm44.8-15l-1.6.2.8 1.2.8-1.4zm11.8-8.9l.1 1 .8-.4-.9-.6zm-17.5-4.1l.3-.8-1 .2.7.6zm2.4 14.2l-1.2.3.6.8.6-1.1zm-18.2 1.5l1.2-.8-1.2-.4v1.2z"/><path d="M161.7 342.4l1.1-.8-1.3-.4.2 1.2zm12.9-7l.1 1.2-1-1.2-.3 2 1.6-.4-.3-.3 1.1-.8-1.2-.5zm3.4-5.6l.3-1-1.1.2.8.8zm-8.3 9.5l-1.1.5 1.1.9v-1.4zm-2.5 1.4l-1.1.6 1.1.8v-1.4zm-.5 4.4l2-.5-1.6-1.4-.4 1.9zm6.9-6.6l.3.3.3-1-1.2.2.3.3-1.6.6 1.5 1.3.4-1.7zm-5.5 1.1l1.4-.3-1.6-1.4-.3 1.3-1.3.5 1.5 1.3.3-1.4zm16.1-3.3l.6-2-2 .7 1.4 1.3zm11-4.1l-2 .7 1.5 1.3.5-2zm-39.7 2.5h1l-.6-1.1-.4 1.1zm-9.6 8.5l-.1.4-.9-1.7-1.1 1.3 1.9.4-.1.5h-1.1l.6 1.3 1-1.4h-.1l.5-.2-.6-.6zm12.5-1.7l1 .7-.1-1.2-.9.5zm-7.4 7.6l-.7-.3v.8l-1.3-1-.3 1.4 1.7-.4.7-.4v.2l1.3-.3-1.1-.8-.3.8zm28.3-21.2l.5-.4-.5-.3v.7zm1.2 5.3l-.4.5.7.1-.3-.6zm15.9-.4l.2-.8-.9.3.7.5zm-3.1 3l-.9-.6-.1.4-.6.1v-1.3l-1.1.9.9.4h-.4l.8 1.3.3-.5-.3 1.3 2.9-.9-1.5-1.1zm-31.4-14.4l.7-.2-.6-.5-.1.7zm7.3 1.6v-.8l-.5.5.5.3zm-2.2 12.9l1-.9-1.1-.5.1 1.4zm-4.2 4.2l-.6.9 1.1.2-.5-1.1zm9.6.7l-1.1.2.6.8.5-1zm-29.3 4.7l1.1-.2-.5-.9-.6 1.1zm.4 2.1l-.6 1 1.2-.2-.6-.8zm25.5-11.2l.2 2 1.3-1.4-1.5-.6zm-14.5 1.4l.5-.5.3.6 1.2-1.7-1.9.1.2.4-.3-.2v1.3zm-12.7 12l-.9-1.8-1.1 1.4 2 .4zm6.3-3.7l-1.1 1.3 1.9.4-.8-1.7zm42-13.5l.4 1.1.7-.7-1.1-.4zm.9 3.1l-1 .6.8.6.2-1.2zm22.5-9.4l1-.1-.6-1-.4 1.1zm-16.8 2l-1.1-.3.2 1 .9-.7zm4.1 3.4l-1 .9 1.1.5-.1-1.4zm-67.1 22.5l.9-.3-.6-.6-.3.9zm82.1-29.1l.2 1.5-1.3-1v2.4l-2.7-1 .3 2.3-2.4-1.2.4 2.7 2.4-1.2-.1-.1 2.7-1.3-.3-.1 1.1-.5v.1l.4-.2.3-.2 1.3-.9-2.3-1.3zm-6.8 5.2l1-.1-.9-1.4-.5 1.4-.4-.1.3-1.9-1.7.6-.4-.6-.8 1.4-.7-.3.5 1.7-.4-.2.2-.2-1.7-.4.2-.6.2.7 1-1.3-.9-.2-.1-.1.1-.4-.2.1-.5-.7-.3.9.6-.1-1.5.6-.1-.3-.4.9h.8l-.2-.4 1.1 1 .1.3-.6.2.6.4.1-.5.3 1.2-.9.3 1.9 1.2.2-1.7.3 1.8 2.4-1.2h-.1l2.5-1.4-1.1-.6zm-4.5 1.1l.5-.6.1.4-.6.2zm1.3-.2l1.2-1 .3 1.7-1.5-.7zm1.1-1.6l.1.4-1.3-.5 1.2-.2.9.6-.9-.3zm-28.5 7.4l-3-.4.8 2.5 2.2-2.1zm29.8-13.9l.1.8.2-.1.3.6.2-.3 1.2.3-.3-1.4-.1.2v-.2l.2-.3.1.2.6-.6-.3-.1.2-.3h-.8v-.6l-.9.5.3.1h-1.7l.7 1.2zm1.3.2h0l-.4.5.4-.5zm-10.9 8.2l-1.9-.3.5 1.6 1.4-1.3zm.4-.7l1.4-1.4-1.9-.3-.3-.8-.8 1.5 1.3.1.3.9zm-3 3.9l-1-1.1-.2 1.5-.4-.4-.2 1.7 1.4-.4-.4-.4.7-.2-.3 1.2 3-.9-2.5-1.7-.1.7zm-7 2.2l-.3-.9-.2.4-1.7.1.8 1.6.4-.6.9.1-.2 1 3-.7-2.4-1.8-.3.8zm-3.3.9l-.7.6.5.3-.2.9 3-.8-2.3-1.8-.3.8zm-2.9.7l-.2-.5-.5 1-.4-.4-.3 1 1.1-.2-.4-.4.6.1-.4 1.7 3-.8-2.4-1.8-.1.3zm-3.3 1.8l-1-1.1.2-.5-2.9.7 1 1.3-.4 1.4-1.3-1.4v.1l-1-1-.6 2-1.1-.9-.5 2.4-1.4-1.2-.4 1.9 2-.5-.1-.1 2.7-.8-1.2-.8 1.4-.5-.2 1.4 1.5-.4-.1.2 2-.8-.6-.6.8-1.7-.2 1.9 1.1-.3-.1.6 3-.7-2.4-1.8-.2 1.2zm-12.2 1.7l1.6 2.1 1.3-2.8-2.9.7zm-36 13l2.2-.7-1.9-1.3-.3 2zm2.6-3.4l-2.3-.3.6 2 1.7-1.7zm50.1-22.4l-.3.4v-.2l-.9.2.5.4.2.1v-.1l.5.1-.1.2 1.7.2-.8-2-.6 1.2-.2-.5zm3.9 5.3l-.2-.4-.8 1 .8.2.1.1v-.1l.4.1-.2-.4.2-.5h-.3zm1.7-7.1l.8-.4-.2-.2.6-.5-.5.9 1.5.1-.7-1.6-.3.5-1.3-.4.1.5-.1-.1.1 1.2zm45.3-33.7l1.1-1-1.6-.6.5 1.6zm-33.3 29.5l.4-.5h.1l-.7-1-.5.9h.5l.2.6zm7.1-3.2l.1.6.4-.4-.5-.2zm22.6-20.1l-.1 1.4 1.1-.4-1-1zm.3-7l-1 .6 1.1.4-.1-1zm-6.9 6.4l-1-.1.4 1.1.6-1zm3.8 9.8l.1-.9 1.4 1-.3-1.9-1 .5-.1-.2.9-.5-1.2-.7v.2l-.2-1-1.3 1.6 1.2.3-.2.5h.4l.1.1-.7.4.9.6zm4.3-3.9l-1.4.6 1.5 1.2v-1.8l.5-.4-.9-.3.3.7zm-30 21.9l-1 .4.6.6.4-1zm.7-8.1l.1 1 .8-.4-.9-.6zm17.9-6.2l.4-1.2-1.4.1 1 1.1zm-2-.8v.3l1.5-1-1.7-.6v.3l-1.1-.1.9 1.5.4-.4z"/><path d="M223.4 308.8l.6.4.2-.7-.8.3zM209 325.9l.4-1.2-1.1.4.7.8zm-1.8-7.4l-.7.7 1 .2-.1-.4.7.5.2-1-.9.3-.2-.3zm-.1-5.1l.4-1-1 .3.6.7zm16.2-1.6l.8-1.7-2.2.2 1.4 1.5zm2.3 4.4l2.1-.3-1-1.6-1.1 1.9zm-1.3 2.3l.1 2.2-1.6-.4-.1-.8.6.7.3-2.1-1.2.3h-.2v-.2l-.4.1-.5-.2.2-.2-.5-.2.3-.9-1.5.2-.2-.3-.2.3-.6 1.2.6-.1v.6l-1.4.2.4.5-.9.1v.1h-.1l-.8 1.1-1.2-.9-.2 1.4-.5.4.8.2.5.4.1-.3.3.1-.1-.7 2.1-.1-.6-1.4.4.4.3-.8.9 1.2.2-.7.4-.2.3 1.8 1.4-1.5.2.2v-.1l.8 1.7h-1.5l.6 1.3 1-1.2.2.5 1.5-1.9h-.1l1.6-1.4-1.7-.6zm-8 2.9h0v-.3h-.1v-.1l.4-.1-.3.5zm4.2-1.7h0zm.6.2l-.4-.1v-.2l.3-.2.3.3-.2.2z"/><path d="M225.3 316h0l.2-1.1-.4.1.2-.3-.3-.1-.2-.7-.4.5h-.1v.1l-.7.8h-.1l-.1.1.2.1.7.8 1.3 2.7 1.8-2.1-2.4-.4.3-.5zm-1.1-3.7l-1.1.5v-1.1l-1 .8.4.2v.6l.3-.1 1.4 1.1v-2zm-.9 1.7l.2-.2-1-.1.1.3-.6.2.3-1-1.9.2.6 1-.1.2-.5-.4-.2 1 .3-.1-.3.3h.5v.1l.6-.1h.1l-.7 1.3 1.8-.3-.6.7.9.3-.1-1 .3-.1-.6-.9h.2l-.1-.2.8.8v-2zm8.5-4.8l.8-1.8h-1.7l.9 1.8zm2.3-5l.6-1.9-1.8.2 1.2 1.7zm.5-4l-.2-1.8-1.4.9 1.5 1-.4 1.1 1.1-.1-.6-1.1zm4.2-12.6l-1.4.9 1.6 1-.2-1.9zm-19.1 34.1l-1.9.2 1.3 1.8h-1.2l.1-.4-1.9.2 1.3 1.8.3-.9.6 1.2 1.5-2h-.6l.3-1.1.8 2.5 1.8-1.6-2.5-1 .1-.7zm-18 9.2l.2 1.7 1.2-1.1-1.4-.6zm-1 .9l-.6-1.3.1-.5-1.1.6.5.3-.6.8h1.7v.1zm9.4-5l-1.9-.4.6 2.1 1.3-1.7zm-7.4 6.2l-1.4-.6.2 2.1-.7-.5h.2l-.3-.5-.2.3-1.2-.9-.2 1-.4-.9-.8 1.4 1.1.1-.2 1 3-.9-.2-.1 1-1-.2.7 2-.8-1.4-1.3-.3.9zm-47.2 11l-1.1.5 1.2.8-.1-1.3zm-6.8 1.5l-.5-1-.4.5-.8-.1.2.8.4-.3 1.1.1zm9.2-.4l-1.1.2.6.8.5-1zm-16.8 5.3l.1-.6-.8.3.4.4-.3 1.6-1.3-1-.3 1.7-1.5-1.2v.1l-3-.4.7 2.6 2.2-2.1-.3 1.6 5.9-1.6-1.8-1.4z"/><path d="M160.5 346.8l.5-.8 1.2-.4-1.4-1.5-.1 1h-.2l-.8-.7-.5 1.7-.8-.5 2-1.9-3-.4.7 2.2-.2-.1-.4 2.4-.9-.7.2-.3h-.5l-.2-.1v.1h-.2l.1-.2-.9.2h-.2l-1.9.2 1 1.2-1.1-.8v.2l-.8.4-.7-2.4-2 1.8 2.6 1 .2.6.6-1.2-.3 1.4 1.9-.5.1.1.1-.1 1-.4-.4-.4.3-.4.3.7-.1.2 1.9-.5 3-.9-.9-.6.5-.2.3.6zm71.8-45.3v1.5l1.2-.9-1.2-.6zm-19.2 15.9h0l.6 1 .1-.2.2.2.1-.3.7.1-.3-1-.1.1v-.1l-1.3.2zm.1 5.4l.3-.9-1.1.1.8.8zm19.9-27.6l-.2.3 1.1.2-.4-1.2-.5.7-1.1-.4.1 1 1-.6zm-10.8.7h-.9l.5.6.4-.6zm-6.1-1.3l-.3.8.8-.2-.5-.6zm-3.3 21.1l-.8-.5.1 1.6 1.3-.7-.3-.2h.4l-.3-.6.3.4.4-.6h-.9l.1.1-.3.5zm5.9-1.9l-1-.5v.4l-.4-.7-.3.9-.3-.4-.5.9 1-.1-.2-.3.7-.1v.5l1-.6zm9.8-2l-.9.5v-.9l-.7.6-.9-1.1-.8 2.1.8-.2 1.6.9-1.4.2 2 2.2 1.4-2.6-.8.1-.3-1.8zm-.7 1.8h-.2v-.6l.8.5-.6.1zm-.6-14.2l-.9.8 1.1.2-.1-.4.5.4.2-.9-.8.2v-.3zm-4.9-5.5l-.8.3.7.4.1-.7zm-6 4.3l.5-.6-.7-.2.2.8zm19.9-2.9l.2-.9-1 .3.8.6zm-7.9 2.3v1l.8-.6-.8-.4zm3.8-.8l-.4 1.1 1.1-.1-.7-1z"/><path d="M234.1 291.1l-1 .3.8.6.2-.9zm-4.1 4.5l.1-1.5-1.6.8 1.5.7zm5.7 4l.7-2-1.9.2 1.2 1.8zm1.5-4.8l.7-2-1.9.2 1.2 1.8zm-26.3 23.4l1.4-.3-.8-1.1-.6 1.4zm-3.9-1.5l.3-.6h-.9l.6.6zm7.1 1.9l.2 1 .7-.6-.9-.4zm-7.1-1.3l-.4-.8-.6.8h1zm3.9-2.3l1.1-.5-1.1-.5v1zm16.5-22.8l-.7.5.8.2-.1-.7zm9.3-2.8l-1 .1.6.7.4-.8zm-8.6 1.4l-.2 1 .9-.5-.7-.5zm-26.4 33.5l-1.8.6 1.2 1.4.2-.6.5-.5h.3l-.4-.9zm2.7-8.1l-1.7-.2.8 1.9.4-.9.4.9-.2-.2-.3 1.2 1.1-.4-.1-.1.8-1-1.7-.3.5-.9zm-1.1 5.8l-.1.5-.6.4 1.5.9-.4.5h1.9l.5.3v-.8l-.5.2-.6-1.5-.8 1v-1.9l-.5.4-.3-.2.3-.1-1.2-1.2v.1l-.4-.8-.5.9h.9l-.1 1.5.9-.2zm-5.3 3.6l-.9 1.1h.1l-.5.9 1 .1-.4-1 1 .2-.3-1.3z"/><path d="M202.1 320h-1.2l.7.9.5-.9zm-10.4 1.9l1.1-.5-.7-.7-.4 1.2zm27-12.9l.1-.7-.8.2.7.5zm-6.4 2.9l.6-.5-.7-.3.1.8zm-13.4 3l-.8.5.7.5.1-1zm3.4-2.4l.5-.5-.8-.3.3.8zm-6-1.6l-.3-.6-.5.6h.8zm33.9-8.8l.2-.9-1 .2.8.7zm-8 3.2l.8-.6-.8-.4v1zM207 321.8l-.3-.3.8-.3-.7-.7-.1 1-.5-.5-.4 1 1.2-.2zm-2.6 4.4l-.3-.5.5-.5-.9-.1-1-.1.3.9h-.2l-.2-.2v.3h-.2l.1.1-.1 1 1.1-.3-.2-.3.2-.2.9-.1zm-8.2-8.2l.9-.3-.8-.5-.1.8zm2.4 5.7l.4.7.3-.5v.6l.5-.4-.5-.3.1-.1h-.8zm-1.3 1.4l-.4-.8-.6.9 1-.1zm27.9-19.2l-1 1.4-.3-1.7-1.2 1.3 1.5.5-.1.2 1.8.3-.7-2zm6.2-2.7l-.3-.6-.2.5-.9-.1.8 1.5.7-.9h.1v-.1l.2-.2-.4-.1zm-10.3 1.7l.2 1.4 1-.6-1.2-.8zm-1.2-6.8l-.8.8 1.1.2-.3-1zm-5.4 7.7l-1 .1.6 1 .4-1.1zm2.2 6.1l.7-.1-.9-.8-.2.7-.5.5 1 .4-.1-.7zm3.3-5l.4.9.4-.5.5.9.1.8.8-.5.1 1 1.3-.8-1.4-.5v.2l-.8-.2.4-1h-.4l.3-.4-1-.3.2.7h-.1l-.8-.3zm-7.2.1l-.5-.7-.4.9.9-.2zm-7.9 6.3l.1-1.2-1 .6.9.6zm4.4-4.1l.6-.5-1-.4.4.9zm16.1-14.4l.3 1 1.1-1.1-.7-.3.3-.4h-1l.4.8h-.4zm.6-.2v.3h-.2l.2-.3zm4.1 18l.8-1.7-2.2.1 1.4 1.6zm-8-13.1h-.1.1l-.6-.8-.2.7-.3-.1.3 1 .8-.8zm-6.4-1.6l-1 .1.4.8.6-.9zm4.4 4.5l-.3-.1v1l.8-.6-.3-.2.5.1-.1-.5.7.6.1-1 .4.6.1-.2.3.5.1-.3h.4l-.2-.3.2-.4h-.4v-.1l-.3.1h-.3l-.2.1-1 .4.1.1-.6.2zm5.3 3.8h1.1l-.6-1.1-.5 1.1zm-38.6 20.2l1.2.2-.6-1.1-.6.9zm11.6-2.9l-.9 1.1 1.2.3-.3-1.4zm2.9-5.7l.6.9.2-.4v.6l.8-.5-.7-.4.1-.3-1 .1zm-9.6 1.2l.5.4-.1.3.3-.1.2.2.1-.3h.1l.4.3.1-1-.4.3-.1-.1.1-.2h-.2l-.3-.2-.1.3-.6.1zm38.8-14.6l-1.5.7 1.7 1.2-.2-1.9zm-39.4 20.1l.5-.9h-1.2l.7.9zm-9.6-.1l-.3 1.1 1.1-.4-.8-.7zm9.1-10.2l-.5.7.8-.1-.3-.6zm-13.6 9.5l-.8.5.7.5.1-1zm3.5-2.2l.5-.4-.8-.3.3.7zm-5.9-1.8l-.3-.6-.5.7.8-.1zm26.7 7.8l.7-.5-.3-.2.2-.2-3-.5.7 2.5v.6l.5-.4-.4-.2 1.5-1.4.1.3zm-8-3.3l1 .1-.3-.8-.7.7zm3.9 1.7l-1.1.4-.2-.2.6-.7-1.1-.3.4.9-.5 1.1 1.1-.3-.2-.2.6.6.4-1.3zm4.8-2l.8-.5-.9-.5.1 1zm-7.3-4.1l-.7.7 1 .1-.3-.8zm-.1-3l-.9 1.1 1.2.3-.3-1.4zm4.1-5.6h-1.2l.7.9.5-.9zm-10.1.8l-.3 1.2 1.1-.5-.8-.7zm7.7 9.3l.7.7.4-1.2-1.1.5zm-1.1-6.7l-.7.7 1 .2-.3-.9zm39.3-26.3l-1.2.2.6.9.6-1.1zm-6.2 16.6l.8-1h-1.2l.4 1zm-41.8 17l-.5-.1.6-.2-.8-.5-.1.6-.3-.1.2 1 .9-.7zm3.6 1.3l1.5.1-.6-1.6-.9 1.5zm-12.2 11l-.3 2 1.6-.5-1.3-1.5zm-6.3-2.6l-.6-2-.6 1-.4-.1.1.6-.2.2 1.7.3zm9.1.2l.5.1-.1.2 1.1-.1h.2l-.7-2-1 1.8zm-15.4 1.4l-1.9.1.8 1.6 1.1-1.7zm-4 6.7l-1.9.1.7 1.6 1.2-1.7zm-.7-18.5l-1.9.2.8 1.6 1.1-1.8zm12.6 6.1l-1.9.2.9 1.6 1-1.8zm4.6.4l-1.9.2.9 1.6 1-1.8zm-29.2 10.2l-1.7.1.7 1.3 1-1.4z"/><path d="M141.3 345.9l-.1-.2-.2.3h-.2l.1.2-.7 1 2 .4-.3-.6.6-.9-1.2-.2zm50.4-14l.6 1.2 1.1-1.3-1.5-.3.3-.5-.6.1.2-.4-.2.1v-.9l-.4.3v-.2l-1.1.9h.1l-.6.4.8.6.1-.8.2.1.7 1.2.3-.5zm.6-2.1l-.2-.1v.8l.6-.5-.2-.1.9-1.3-1.6.2.5 1zm22.7-7.5l-.1-.2-.2.2-.5-.3v.4h-.2l.1.2v.3l-.6.9-1.4-.9.2 1.6-.3-.1-.4-.6-.6 1.2-.3-.5-.2.4h.1l-.1.8.4-.1-1.1.9 1.7.4-.3-1.4.2-.1-.2-.2.9-.1.4 1.4 1.3-1.7-1.2-.3.4-.3.4.2v-.4l.4-.2h.7l.6.6.3-.6h.5l-.4-.8.4-.7h-.9zm-4.1 2.9l-.1-.1h.1v.1zm-4.2.5l.5 1-1-.1.4 1.2.9-1.1h-.1l.8-1.2-1.5.2zm.7-1.4l.8-.3-.7-.7-.1 1zm-19.2 6.7l-.2.3-.7.1-.3-.8-.5.9h-.2l.1.2-.4.7.8.1.3.6.4-.6h.2v-.1l1.1.1-.6-1.5zm-1.5-4.5l-1 1.8 1.7.1-.7-1.9zm.9 3.1l-.1-.4-.6-.8-.5 1.1.7-.1-.5.7h.2l-.2.2 1.2.3-.1-.3h.2l-.3-.7zm-.2-.3h0l.1-.1-.1.1zm2.5.4l-1.1.3.6.8.5-1.1zm3.8-2.7l1-.4-1-.7v1.1zm-5.5-17.3l-.8-.2.1.8.7-.6zm3.9.3l-.4.6.6.1-.2-.7zm-2.7-5l-.7.1.5.5.2-.6zm15.1 23.1l.2-.5.6.9.9-1.5h-.4l.1-.1h-.1l-.1-.2.1-.9-.4.2-.1-.2-.2.3-.4.2.2.1-.1.1-.5-.2.1.5h-.3l.2.3-.5.1.7.9zm-.7-7.3l-.1-1-.9.6 1 .4zm-43.3 14.9l.7-1.3-1.3.2.6 1.1zm6.4-2l1-.3-.8-.9-.2 1.2zm-6.4-7.1l-1 .6 1 .5v-1.1zm11.2 3.9l.1 1.2 1.1-.8-1.2-.4zm-10.6 6.3l.1 1.2 1.1-.7-1.2-.5zm13.3-4.8l1.1-.8-1.3-.4.2 1.2zm7.9.7l-.5 1 1 .1-.5-1.1zm-2.2 1.5l-.4-1.1-.5 1 .9.1zm-2.4-8.6l.3-1-1.1.2.8.8zm-12.9-4.1l-1 .6 1.1.8-.1-1.4zm1.5 8.2v1.2l1-.9-.9-.4.2-.2-1.2-.2.3 1 .6-.5zm5.5-8.5l-.4 1.1h1l-.6-1.1zm-2.5 13.5l-1.1.5 1.1.9v-1.4zm-2.6 1.3l-1 .5 1.1.9-.1-1.4zm-13.9-.6v.5l1-.9-.3-.2 1-.9-2.4-.4.6 2.2.1-.3zm2.8-6.3l-.4 1.1h1l-.6-1.1z"/><path d="M155.2 343.1l-.7-.8-.3 1.2 1-.4zm7.6-4.8l-.3 1.1 1.1-.4-.8-.7zm6.6-11.7l-.1-.9-.6.4.7.5zm4.2-.4h.6l-.3-.6-.3.6zm9.8-1.3l-.9.2.7.6.2-.8zm-4.4-2.3v.8l.5-.5-.5-.3zm.8 6.6l.7.2-.3-.7-.4.5zm11.5-10.4l.2-.8-.8.2.6.6zm-3.9-2.7l.4.4.3-.8-.7.1-.4-.2v.8l.4-.3zm.4 6.2l.7.2-.3-.7-.4.5zm7.5 5.1l.7.5.1-.8-.8.3zm-3.6-2.6v.7l.5-.5-.5-.2zm1.4 6.7l-.3-.7-.4.5.7.2zm7.2-2.6l-.4.4.6.1-.2-.5zm-20-19l-.5.8h.9l-.4-.8zm-6.2 5.3l-.6.2.5.6.1-.8zm5.9 3.9l.6-.3-.6-.3v.6zm-18.1-2.9l-.1.6.7-.2-.6-.4zm7.1 1.6l-.5.5.6.3-.1-.8zm-21.1 23l1.1.2-.4-1.1-.7.9zm9.7 1.2l.5-1.1-1.1.3.6.8zm4.6-6.9l1.1-.3-1-1.1-.1 1.4-.1-.2-.6.8 1.1.3-.4-.9zm9 1.8l.3-.6.5.1-.6-2-1.1 1.7.4.1.5.7zm-28 2.9l-.6 1 1.1-.2-.5-.8zm-.2 3.1l-.6 1 1.1-.1-.5-.9zm-2.4 2.2l-.8.3.7.7.1-1zm3.7 1.5l-.9-.3v.9l.9-.6zm8.1-6.6v.3l.1-.1.1.1.1-.2.7-.6-1.1-.5v.6h-.3l.4.4zm6.6-9l1.3-1.4-1.6-.7.3 2.1zm-4.9 2.3l.8-.8-.4-.2-.5-.8-.6 1 .6.1.1.7zm2.7.6l.9-.8-.2-.1.4-.5-.9-.4.1.6-.3-.1v1.3zm-11.5 5.1l-.2.6 1.1-.4-.7-.7-.2.5-.9-1.8-1.1 1.4 2 .4zm-7.1 9.3l-.8-1.8-1.1 1.4 1.9.4zm2.5-7.3l-1.1 1.3 2 .4-.9-1.7zm-.4 2.4l-1.1 1.3 2 .4-.9-1.7zm5.1-7.2l-.8.1.4.5.4-.6zm14.3-10.7l-1.2-.5.1 1.6 1.1-1.1zm5.3 6.3l-1.2.3.8 1 .4-1.3zm23.6-4.3l-1 .9 1.1.6-.1-1.5zm4.3-4.3v.3l.1-.1.1.2.3-.4.3-.2-.1-.1.1-.1-.6-.2-.3-.2v.1l-.2-.1.3.8zm-8.8-2l-.5 1 1.1-.2-.6-.8zm1.6 11.3l-1.1.9 1.1.6v-1.5zm5.1-4.6l-1.1-.3.4 1.1.7-.8zm-9.1-.8l-.5-.9-.5 1.1 1-.2zm2.8-.2l-1.2-.1.5 1.3.7-1.2zm-3.1 6.8l-.3 1 1.2-.2-.9-.8zm5.7-8.9l-.6-.9-.6 1 1.2-.1zm8.3-.1l1-.7-1.2-.3.2 1z"/><path d="M197.7 318.6l.3-.8-.9.2.6.6zm-.5 10.4l.8-.9-1.1-.1.3 1zm.5-6.8l-.4.1.6.5-.2.4 1.2.1-.5-.8.1-.7-.9.3.1.1zm-1 7.8l.2-.2-.2-.1v-.2l-.2.1v-.1l-.1.1-.6-.2.2.4-.2.1-1.1-1.3-.2 1.5-.4-.4-.2 1.6 1.4-.4-.4-.5.9-.3h-.1l.5.3.1.1v-.1l.4.2v-.6zm-4.7-6.5l-.6 1.1 1.2-.2-.6-.9zm-9.1 8.3l1 .6v-.5l.4 1.2.6-1.3-1.1-.1v-.7l-.9.8zm-7.9.8l-1.1.8 1 .6.1-1.4zm13.2-6.3l.4 1.2.7-.7-1.1-.5zm-7.9-1l-.5-.9-.6 1 1.1-.1zm-44.1 18l1-1.4-1.7.1.7 1.3zm-7.9-8l1 .6-.1-1.2-.9.6zm1.9 6.4l.7-.7-1-.1.3.8zm5-7.3l-.4.9h.9l-.5-.9zm1.8-1.9l-.9.5 1 .6-.1-1.1zm1.7 6.2l-.9-.2.2.8.7-.6zm4.4-6.5l-.4.9h.9l-.5-.9zm-9.3 17.3l.9-.3-.6-.6-.3.9zm92-47.8l-.4-1.1.3-.3-1.3-.4.3 1.5-.1.2 1.2.1zm-1.8 1.9l.9.5-.1-.9h1l-.4-.7-.6.7.1-.5-.9.1.3.3-.4.2-.1-.5-.7.4.9.5v-.1zm1.4 4.6l-.8-.2.2.7.6-.5zm3.6-5.6l-.3.8h.7l-.4-.8zm.2-1.4l1.2-1.2-1.7-.3.5 1.5zM175.1 332l.7 2.6 1-.9.4.7 1-1.8h-.2l.1-.1-3-.5zm-23.3 11.6l-.1-.1.6.5-.3.1.9.7-.9.5 1.1.8-.1-1.2.5.4.5-2-1.5.5v-1.2l-.9.5-.7-2.4-2 1.8 2.9 1.1zm5.6-6.3l-.3-.2.1.7v.4l.1-.1.6 2.1 2.2-2.1-2.5-.4.4-.4-.2-.1.3-.4.8.5-.1-1.2-.8.9-.7-.3.1.6zm-20.8 8.4l-3-.5.7 2.6 2.3-2.1zm59.4-30.3l.8 1 .1.2.5-.5-.4-.1.4-.8-1.4.2zm7.1-2.9v1.1l.9-.4-.9-.7zm-7.4-4.8l-1 .7 1.1.3-.1-1zm30.7 1.2v-.4l-.5.2-.4-.1v.3l-.9.4 1.1.8v.3l.2-.1.5.4v-.7l1.1-.7-1.1-.4zm.8-5.8l.9.2-.3-1-.6.8zm-7.3-3.1l-.1-.3-.6.8.3.1v.1l.5.1h.2l-.3-.8zm-9.1 15.5l-.3-1.8-.1.1-.9-1-.5 1.3-.2.6.8-.1-.2.2 1.4.7zm-1.4-1.3l.8-.1-.4.4-.4-.3zm-8.1-6.2l1.2-.3-.7-.5h.1l-.4-.8-.6.8h.5l-.1.8zm6.1 3.3v-1l-.8.6.8.4zm-.7-8.7l-1-.3.4.9.6-.6zm4.6 10.7l.1-2.2-1.8 1.3 1.7.9zm1.3 5.4l-1.7 1.3.8.4-.8 1.1h1.2l.6.3v-.6l-.4.2-.4-.8.6.3.1-2.2zm3.9 1l.2-1.4-1.2.6 1 .8zm-.4-11l.9-.8-1.3-.5.4 1.3zm-8.7 8.3l.9.8v-.2l1.1.9.3-2-.1.1h-1.1l.2.4-.5.2v-.6l-.8.4zm3.5-6v-1l-.4.1-.7-.2.2 1 .4-.3.5.4zm-4.5 4.5l.7.1-.3-.8-.4.7zm3.2-12.7l-1.1.5 1.1.9v-1.4zm7.1.3l-.5 1 1 .1-.5-1.1zm-17.6-1.7l-.3 1 1.2-.2-.9-.8zm5.7 4.5l.1-1-.8.6.7.4zm-.4-8.8l-1-.3.3 1 .7-.7zm7.1 2.4l-1 .3.9.9.1-1.2zm-.4 7.2l.9-.5-1-.3.1.8zm6.6-6.4l-.5.9.9.1-.4-1z"/></g><g fill="#c66d32"><path d="M279.2 369.2l.4-1.1-1 .1.6 1zm-1.8 5l1.6-.5-1.4-.9-.2 1.4zm-1.6 7.7l1.6-.5-1.4-.9-.2 1.4zm-5.7-28.5l2-.5-1.6-1.2-.4 1.7zm-.6 9.1l.6-2-1.9.8 1.1 1.1-.3 1.6 2-.6-1.5-.9zm-.5 4.3l.6-2-1.9.8 1.3 1.2zm4.9 7l.2.1-.1-.5v-.1l-.1-.4-.7.5.2.1-1.3.5 1.2 1.2.6-1.4zm-3.3-7.8l-.3 1.7 2-.6-1.7-1.1zm-1.5-20.9l-1.7.6 1.6 1.3.1-1.9zm-3.2-10.4l-1.5 1 1.8.9-.3-1.9zm8.3 20.6l-.1-1.9-1.6.8 1.7 1.1zm-2.5 3.4l1.7 1.2-.1-1.9-1.6.7zm-10.8-21.3l-.1-.5.1-.2h-.1l-.1-.6.9.4-1.1-2.9-1.6 1.6.6.3-1-.2 1.1-1.7h-.6l-.5-.7 2.3-1.1-2-1.7-.6 2.7-.6.3 1.4.5-1.2-.1.8 2 .5.9.6-.8.6.3-1 .7h-.2l.9 2 .7-1.2h.2zm-4.2-9.7l-.2-.7.1-.1h-.1l-.3-.8-1 .9h-.6l1-2.8-2.7.2 1.5 2.6h-.1l1.3 2.1.6-1.6.5.2zm6.7 1.4l-.3-1.6-1.2.9 1.5.7zm-6.3-1.1l-1.2.9 1.5.7-.3-1.6zm14.5 47.4v-1.7l-1.3.6 1.3 1.1zm.9-7.5l-.3 1.7 2-.6-1.7-1.1zm12.1 2.6l.8.3-.1-1-.7.7zm-13.9-2l-.2.8-.1.1.1.1-.1.3.4-.2.5.2-.1-.4.4-.2-.9-.7z"/><path d="M270.5 370.9l-.9.6 1.1.6-.2-1.2zm2.7 5.1l.3 1 .8-.9-1.1-.1zm-2.4-21.2l.5-1.2H270l.8 1.2zm-4.5-12.3l-1.3.1.8 1.2.5-1.3zm4.6 13.6h-1.3l.7 1.2.6-1.2zm-2.7 5.3l-1-.6-.1.4-1.5-.4 1.5-1.2.5.3-.3-1.9 1.6 1.9.6-2.9-2.3.5-.1-.5-1.4.9-1.4-.5 1.5-1.2h-.1l1.1-.9-1.9-.7.9-1.1-2.4-.6 1.3-1.3-1.8-.6.3 2h.1l.6 2.8.9-1.1.4 1.4-1.3-.3.3 1.5-.2-.1.6 2.1.7-.6 1.6.9-1.9-.4.3 1.6-.6-.2.6 3 1.5-1.8 1.4-.4zm8.8-2.3l-.9.7 1 .4-.1-1.1zm-10.2-9.3l-1 1 1.4.1-.4-1.1zm-.7-1.5l-.5-1.1-.9 1.1h1.4zm-2-.2l-1.8-.5.3 2 1.5-1.5zm3.9 4.6l-1.4 1.3 1.5.5-.6.5 1 .4v-.8l.2.1-.7-2zm-.8-5.2l-1.4 1.4 2 .6-.6-2zm4.7 18.8l-.6-2-1.4 1.3 2 .7zm.3 8.7l-1.4 1.3 1.9.7-.5-2zm-3-37.8l1-.8-1.1-.2.1 1zm-7.8-10.8l.5-.9h-.4l1.4-1.3-1.6-.7.1 2h-.7l.7.9zm5.3 13.9l-.4-.9-.7.9h1.1zm-9.5-8.5l.2-.8-.8.1.9-1.4-1.4-.2.6 1.6.5.6h-.2l.5 1.3.6-1.2h-.9zm21.6 29.6l-.7-.1.4.6.3-.5zm-6.7.3l-.2.7.7-.2-.5-.5zm0 16.5l.8.2-.2-.9-.6.7zm3.5-4.1h-.7l.4.6.3-.6zm-6.2.7l.7-.8-.7-.2v-.5l1 .1-.7-1.2-.3-.6-.6.8.8.1-.1.2-1.3.6.2.2-.7-.2.6 3 1.1-1.5zm16.6-30.3l.2.7.5-.5-.7-.2zm-2 6.6l-.3.5h.8l-.5-.5zm-11.2-2.9h-1.5l.9 1 .6-1zm-6.4-4.1l1.1-.4-.8-.7-.3 1.1zm-.4 9.1l-.2-1.1-.9.5 1.1.6zm-5.8-29.5l-1.2-.3.5 1 .7-.7zm-3.1.6l-1.2-.3.5 1.1.7-.8zm-3.2-2.5l-.5.9 1-.1-.5-.8zm16.4 28.6l-2.1.1 1.3 1.4.8-1.5z"/><path d="M270 333.7l-1.2.2.9.7.3-.9zm-.6 4.8l.7.9.1-.2.4.5.4-.9h-.6l.2-.3h-1.2zm-18-17.5l1 1.7.8-1.8-1.8.1zm6.9.6l-1.6-.7.1 2 1.5-1.3zm-.1 8.1l1.6-1.1-1.5-.9-.1 2zm13.6 42.6l.7.7.4-1.1-1.1.4zm2.2-8.3l.9-.5-1-.6.1 1.1zm0 2.8l.2-1.1-1.4.4 1.2.7zm.8 11l-1.1.3.7.7.4-1zm1.1-8.2l.9-.5-1-.6.1 1.1zm-2.3 9l-1.7.3 1.2 1.5.5-1.8zm-3.5-.9l1.3-1-1.5-.3.4-.3-1.6-.4.3 1.4.5-.4.2.8-1.4-.4.6 3 2-2.2-.8-.2zm-1.6-7.1l1.2-.3-.4-.3v-1.7l-1.6.8.6.4-.2 1-1.2-.3.6 3 2-2.2-1-.4zm-.4-3.4l-.6-.8-.3.5-.9-.3.6 3 2-2.2-.8-.2zm-.2-3l.5-.2-1-.6-.1.6-.6-.2.7-.6-1-.4.1 1-1.1-.3.6 3.1 2.1-2.4h-.2zm-3.1-16l-2.2 1.5 2.7 1.5-.5-3zm-2.5-2.5l.2.8.5-.4.1.1-.2.8 1.1-.3.3.2v-.2l.7-.2-.8-.6-.1-.6.5.3-.2-1.1.3-.2-.3-.1-.2-1.5-1.3.9-.9-.5.7-.5.2.2v-.4l.6-.5-.6-.1v-.1l.8-.7-1.8-.7.7-1.1-2.6-.5.9 3 .9-1.3.2.8-.8.3.3.3.3 1.4-.6-.4.5 2.5.7-.7.4.2-.5.3h-.2v.1l-.5.3.7.2zm8.2 35.1l1.2-.4-1.4-.9-.2 1.2-1.2-.3.6 3 2-2.2-1-.4z"/><path d="M270.1 384.1l2.8-.7-1.9-1.8-.9 2.5zm3.6-2.1l-1-.7-.3 1.5 1.2-.4-.2 1.1 3-.8-2.4-1.8-.3 1.1zm-9.3-40.5l.7-2.9-2.7.6 2 2.3zm11.2 25l1.1-.5-.6-.5-.2-.7-.6.6.5.1-.2 1zm3 6l.7-.8h-1l.3.8zm-16.1-37.8l-.7 1.3 1.4-.2-.7-1.1zm-.2-1.8l-.1-.1-.5.5-.6-.9-.6 1.2 1.2-.2.3.1-.3.5 2 .2-1-1.9-.4.6zm5.6-1l-1.4.3 1.1.9.3-1.2zm-7-3.9l-.1 1.2 1-.7-.9-.5zm1.6 10.3l-.4-1.1-.7.7 1.1.4zm16 32.2l1.1-.5-.8-.7-.3 1.2zm3 6l.6-.8h-1l.4.8zm-6.9-7.9l-.4 1.2 1.4-.2-1-1zm6.2 5.6l.1-1.2-1 .6.9.6zm-.6-9.4l.8-.7-1.1-.4.3 1.1zm1.2-5.7l1 .2-.4-.9-.6.7zm3.7 3.8l-.8.1.4.6.4-.7zm1.5-6.4l-.1.8.7-.2-.6-.6zm-3 13l.6-.8-.9-.2.3 1z"/></g><path d="M268.1 206.2l-31.8 90.2c-.1.3 0 .6.3.8h.2c.3 0 .5-.1.5-.4l32-90.6h-1.2z" fill="#5b1d16"/><path d="M212.8 206.5c-.3-.1-.6.2-.7.5-.1.4-9 46-12 59.9l-.9 4.5c-2.3 11.3-4.2 21-15.1 25.1-9.7 3.6-61.3 18.7-61.8 18.8-.3.1-.5.4-.4.7.1.2.3.4.6.4h.1c.5-.1 52.2-15.2 61.9-18.8 11.4-4.3 13.5-14.3 15.8-26l12.9-64.4c.2-.3-.1-.6-.4-.7z" fill="#772e1f"/><linearGradient id="J" gradientUnits="userSpaceOnUse" x1="226.2" y1="242.79" x2="228.88" y2="201.29"><stop offset=".01" stop-color="#913b24" stop-opacity="0"/><stop offset=".99" stop-color="#510c10"/></linearGradient><path d="M186.6 242.3s17.7-5.6 37-4.6 31.3 5.3 31.3 5.3l13.3-36.9h-74.1l-7.5 36.2z" fill="url(#J)"/><g fill="#601f18"><path d="M222 207.9l1.5 1.1.2-1.3.8 1.6-1.8 1 1.5 1.1-.7.4.4.3-.2 1.3 1.7-.5-1.1-.8.1-.8-.2.1.4-1.9.3.7 1-1.9 1-.6.8-.1-.9-1-.3.9-.2-.1.4-.9-3.5.1.2.5-1.4.8zm-.9 1.2l.4-.8-.2 1.4 1.7-.5-1.4-1.1.9-1.6-3.5.1 1.4 2.9-1 .5 1.6 1 .3-2-.2.1zm5.9 1.3l1.4.9.1-.5.6.4.3-2-.8.4.1-.6.1.1.3-1.7 1.2 2.9 2.1-3.5-3.5-.1.2.4-1.7.9.5.4-.2.3h.8l-1.4.8.1-.9-1.9 1 1.5 1 .2-.2zm-19.5.8l-1.9 1.1 1.6 1 .3-2.1zm4.7 2.2l.5-1.8-2.1.3 1.6 1.5zm-2.5-3.1l-2.1.3 1.6 1.5.5-1.8zm16 2.4l-.2 1.6 1.7-.5-1.5-1.1zm-19.7 3l-.3-.2v-.1l-1.1-.8-.3 1.6 1-.2-.5.9 1.4.1-.4-1.1.2-.2zm8.7-3.7l-.2 1.1 1.2-.2-1-.9zm6.7.9l.5-1h-.9l.4 1zm-5.5 6.4l1.1.2-.3-.9-.8.7zm3.4 3.8l1.1.2-.3-1.2-.8 1zm0-7.1v.9l.9-.4-.9-.5zm7.3 5.9l.2-1.1-.9.3.7.8zm-19.8 4.8l1.1.3-.3-1.2-.8.9zm-.1-7v.9l.9-.5-.9-.4zm7.3 5.8l.2-1-.8.2.6.8zm-20.5.6l1 .2-.2-1.2-.8 1zm.8-6.6l-.9-.5v.7l-1.7-1.2-.9 3.8 1.4-.7-.4 2.2 2.2-.4-1.7-1.8 2.1-1-1-.8.9-.3zm6.4 5.3l.2-1-.9.3.7.7zm-4.2-1.6l1.1.3-.2-1.2-.9.9zm-.2-7.1v.9l.9-.5-.9-.4zm7.4 5.8l.2-1-.9.2.7.8zm-8.8-5.8l.7-1-1.3.1.6.9zm5.6 3.2l.9-.6-.8-.4-.1 1zm6.2-2.2l2-1-1.2-.6.3-.3-1.1-.5.1.4-.1-.1v2.1zm4.3 2.7l.2-1.1-.9.3.7.8zm3.2-7.5l-1.2.5 1.1.9.1-1.4zm-19.9-1.1l.9.6.2-1.2-.5.3.3-1.5-1.8.6 1.1 1.2h-.2zm21.8 4.5l-1.1-.5.3 1.2.8-.7zm-6.7-3.3l.7.5.2-1-.9.5zm8.3-3.4l-.3.9 1-.1-.7-.8z"/><path d="M213.5 209.7l.7 2.3 2.1-1.8-2.8-.5zm-9.1.3l-.6-.6-.3.9.6-.1 2 1.2.4-2.7-2.1 1.3zm-11.1 4.5l2.1.4-.5-1.6.4-.1-2-2.3-.6 2.7 1.9-.3-1.3 1.2zm3.5-3.7l-1.6 1.3 2.1.4-.5-1.7zm14.2.1l1.7-.4-1.5-1.1-.2 1.5zm11.6 7.1l1 .2-.3-1.2-.7 1zm2.3-1.6l.4-.8h-1l.6.8zm-2.8 4.5l.9-.5-.9-.4v.9zM209.8 208l-.3.6-.1-.1-.3.9 1-.1-.3-.3h.4l-.4-1zm8.2 5.5l-.9-.7-.3 1.6 1.7-.5-.5-.4.8-.5-1-.3.2.8zm-15.8-3.5l1.2-2 .1.5 1.1-.7.6-.1 1.3.8.2-1.5 1.3 3 2-3.5-3.5-.1.1.2-1.4.7-.6-.6-.3.9-.5-.2.5-1-3.5-.1.6 1.5-1.2-1-.4 1.8 1.7-.4.7 1.8zm10.3.1l1.2-2 1.3.8.3-2.1-1.3.8.6-1-3.5-.1.6 1.6-1-.7-.2 1.6 1.4-.4.6 1.5zm-16.5-.6l1.9 2.1.7-2.1.6.3.4-2.7-1.5.9.1-.7-1.4.8.9-1.5-3.6-.1 1.4 3.6.5-.6zm1.9-.2v-.3l.4.2-2.4.1.6-1 1.4 1zm20.8-2.7l-3.5-.1.9 2.1-.9-.7-.3 1.6 1.4-.3.4 1 .9-1.5 1.3.9.3-2.1-1.5.8 1-1.7zm-19.4 8.6l-2.5-2.7-.7 3.4 1.5-.3.7 2.2 1.7-1.5-2.3-.7 1.6-.4zm2.7-2.9l.1-.8-.6.3-.6-.6.3-2.3-2.1 1.3v-.2l-.6.7 1 .3-.1-.3.8.4-.4 2-.3-1-1.6 1.3 2.1.4v-.2l2.9-.6-.9-.7zm-11.9 14l2.8-.6-2.2-2.4-.6 3zm14.3-13.8l-.5-1.7-1.6 1.3 2.1.4-.3 1.6 2.2-.4-1.8-1.9-.1.7zm-7.8 5.7l-2.5-2.7-.4 2.1-1.3-1.4-.5 2.4 1.7-.3-.1.6 2.5-.5-.3 1.8 2.2-.5-1.3-1.4v-.1zm5.6-2.1l.1-.4.3.4.5-1h-.6l-1.2-.5.4 1.3-.3-.1.1.5-.9.5 1.5 1.1.2-1.4.2-.1h-.3v-.3zm-.1-.6l.1.1-.5.3.4-.4zm-5.6-3l-.9.5.7.5.2-1zm17.3 6.5l1.2-.9-1.5-.8.3 1.7zm-4.5-2h0l-.7-.3.1.6-.5.2.8.6.2-.8.3-.2-.2-.1zm2.4-1.1l-.9-.4.2 1 .2-.2.1.6.7-.5-.5-.3.2-.2zm-9 2l-.3.7.9-.1-.6-.6zm11.8 4.6l1-.8-1.2-.6.2 1.4zm2.9-7.3h1.2l-.7-.9-.5.9zm28.9-1.9l1.7-.5-1.5-1.1-.2 1.6zm-2.1-5.2l-.2 1.6 1.7-.5-1.5-1.1zm2.3 5.3l-1.9 1.1 1.6 1 .3-2.1zm-1.9-5.6l1.5 1.1.2-1.2.8 1.6-1.8 1 1.5 1.1.3-1.9.3.7 1.9-3.6-3.5.1.2.5-1.4.6zm-1 1.3l1.3-2.6-3.5.1.4.8-1.9 1.1 1.6 1 .3-2 1 2.1-.9.5 1.6 1 .3-2h-.2zm-14.2 4l.3-2.1-1.9 1.1 1.6 1zm4.9 0l.5-1.8-2.1.3 1.6 1.5zm-2.9-1.2l.5-1.8-2.1.3 1.6 1.5zm7.8.5l-.3 1.6 1.7-.5-1.4-1.1zm9.2.2l-.3 1.6 1.7-.5-1.4-1.1zm-10.1.2l-1-.9-.2 1.1 1.2-.2zm5.7.1l.5-1h-.9l.4 1zm-5.4 6.3l1 .2-.3-.9-.7.7zm3.4 3.9l1.1.2-.3-1.2-.8 1zm-.1-7.1v.9l.9-.4-.9-.5zm7.4 5.8l.2-1-.9.3.7.7zm-20.4 4.6l1.1.2-.3-1.2-.8 1zm-.1-7v.9l.9-.5-.9-.4zm7.3 5.7l.2-1-.8.2.6.8zm-3-5.6l.2-1-.9.2.7.8zm-4.1-5l.1.4-.2-.1v2l2-1-1.1-.5.2-.2-1-.6z"/><path d="M226.8 216.5l1.4.2-.5-1.6-.9 1.4zm9.6-4.3l-1.1.5 1 .9.1-1.4zm-12.7 2.3l.2-1.1-1.9 1.1 1.5 1 .1-.3.1.5 1-.9-1-.3zm-6-4.3l-1.2.6.2.1-.3.2 2 1.3.4-2.7-1.2.7.1-.2zm19.9 5l.3 1.2.8-.7-1.1-.5zm-4.6-3.3l-.9.5.7.5.2-1zm7.1-2.1l1-.1-.7-.7-.3.8zm-4.3-.2l.7 2.3 2.1-1.7-2.8-.6zm5.3 2.7l.4-2.7-2.5 1.4 2.1 1.3zm4.1 5.7l1.1.2-.3-1.2-.8 1zm2.4-1.6l.4-.8h-1l.6.8zm-2.9 4.4l.9-.5-.9-.4v.9zm-12.6-13l-.3.6-.1-.1-.3.9 1-.1-.2-.3h.4l-.5-1zm8.5 5.7l.9-.6-1-.3.1.9zm-4.5-5.4l1 .6-.1.4 1.4-.3.5 1.4 2.1-3.5-3.5-.1.7 1.7-.8-.6.1-1-.9.5.3-.5-3.5-.1.5 1.3-.9-.7-.2 1.6 1.4-.4.7 1.7-1.3-1-.2 1.6 1.7-.4-.1-.1 1.1-2.1zm-.2 10.6l1.2-.9-1.5-.8.3 1.7z"/><path d="M231.4 216.7h0l-.7-.3.1.6-.5.2.8.6.2-.8.3-.2-.2-.1zm2.4-1.1l-.9-.4.2 1 .2-.2.1.5.7-.5-.5-.3.2-.1zm2.8 6.5l1-.8-1.2-.6.2 1.4zm2.9-7.2h1.2l-.7-.9-.5.9zm12.6-4.7l1.7-.5-1.5-1.1-.2 1.6zm2.7 3.6l-1 .6-.9.5 1.2.8.1.2.1-.1.2.1.1-.4.6-.6-.5-.2.1-.9zm-2-5.5l1.5 1.1.2-1 .7 1.4-1.7.9 1.5 1-.7.4.4.3-.2 1.4 1.7-.5-1.1-.8.1-.8-.2.1.3-1.6.1.2 1.4-2.9-.1.3 1.3-.1-.8-.9.1-.1-3.5.1.4.9-1.4.6zm3.5 1.8l1.6 1v-.4l1.5.9.1-.5.6.4.3-2-.8.4.1-.6.1.1.1-.9.8 1.8 2-3.5-3.5-.1.4 1-1.4.7.5.3-.2.3h.7l.1.1-1.4.8.1-.8-1.7 1zm.1 4.5l1.7-.5-1.5-1.1-.2 1.6zm-11.3-2.4l-.2 1.1 1.2-.2-1-.9zm6.6.8l.5-1h-.9l.4 1zm-5.3 6.5l1 .2-.3-.9-.7.7zm3.5 3.8l1.1.2-.3-1.2-.8 1zm-.2-7.1v.9l.9-.4-.9-.5zm7.4 5.7l.2-1.1-.9.3.7.8zm-3.5-3.5l1.1.2-.3-1.2-.8 1zm2.3-1.6l.4-.8h-1l.6.8zm-3.3 4.2l.9-.5-.9-.4v.9zm.6-14.4l-3.5-.1 1.2 3-1.2.7.3-1.6-1.9 1 1.6 1 .1-.4 1.5 1 .2-1.5 1.7-3.1zm14.4 2.2l.3-2.1-.9.5.2-.5h-3.5l.5 1.3-1-.7-.2 1.4-.2-.6-.3.6-.1-.1-.3.9 1-.1-.3-.3h.4l-.1-.2 1.3-.4.8 1.7-1.3-1-.2 1.6 1.7-.5-.1-.1 1.2-2.1 1.1.7zm-7 2.5l-1.9 1.1 1.6 1 .3-2.1zm2.7.4l1.6 1.4.5-1.8-2.1.4zm-2.6-1l1.6 1.5.4-1.8-2 .3zm0 4.9l.3-.2-1.1-.5.1.4-.2-.1v2l2-1-1.1-.6zm2 3.9l.2-1.1-.9.3.7.8zm-15.8-8.5l.9.6.2-1.3-1.1.7zm-54.2 3.2l-.2 1.5 1.7-.4-1.5-1.1zm70.6 1l2-1.8-2.8-.5.8 2.3zm-.3 1.5l.7-.5-.9-.4.2.9zm-2.1 4.5l1.2-.9-1.5-.8.3 1.7zm1-3.6l.7-.5-.9-.4.2.9z"/></g><path d="M68.6 316.9L58 378.2c-.2 1.1.5 2.1 1.6 2.2l2.6.3 12-65.5-3.5-.2c-1 .1-1.9.8-2.1 1.9z" fill="#236f77"/></svg>