<svg xmlns="http://www.w3.org/2000/svg" viewBox="0 0 480 480" xmlns:v="https://vecta.io/nano"><path d="M284.7 383.9l5 20.4c1.2 4.4 1.8 6.2 1.2 12.4s.3 7.1 1.5 8.6 2.4 2.7 10.9 1.5c8.6-1.2 54.3-8.6 54.3-8.6s2.1-4.4-.6-5.6-32.5-8.8-36.3-10.3c-3-1.2-6.5-19.8-6.5-19.8l-29.5 1.4zM132.9 303s-12.7 4.1-20.6 6.2c-4.4 1.2-8.3 3.1-13 1.5-5.9-2-6.9-1.8-8.6-1.1-1.8.7-3.2 1.5-4.6 10s-7.7 54.5-7.7 54.5 3.6 3.3 5.6 1.1c1.9-2.2 17.9-28.5 20.5-31.7 2-2.5 25.6-8.9 25.6-8.9l2.8-31.6z" fill="#eb9c79"/><path d="M228.4 206.2l-28.2 2.4-13.9 64.3c-1.7 5.9-3 5.9-9.7 8.4-5.8 2.2-52.4 18.7-62.9 22.5-1.5.5-2.7 2.5-2.4 4l10 40.5c.5 2 2.5 3.1 4.4 2.6 13.8-4 72-20.6 87.9-27.1 18.5-7.6 20.6-18.1 23.5-25.2 2.6-6.3 25.4-75.9 30.8-92.4h-39.5z" fill="#494f83"/><path d="M114.7 320.4l-.4-1.2c.5-.2 64.1-20.1 76.2-28.8 12.4-9 18.4-42.6 18.4-43l1.3.2c0 .1-1.5 8.7-4.6 18.3-4.1 13-9 21.6-14.3 25.5-12.3 8.8-74.4 28.3-76.6 29z" fill="#7780b7"/><linearGradient id="A" gradientUnits="userSpaceOnUse" x1="186.38" y1="282.8" x2="228.23" y2="260.26"><stop offset=".14" stop-color="#38315f" stop-opacity="0"/><stop offset="1" stop-color="#38315f"/></linearGradient><path d="M239.9 289.8l-41.8-69.1-10.2 47.1a45.1 45.1 0 0 1-2.1 7.3c1.1.5 8.5 4.5 16.6 18.5 8.8 15.3 7.2 31.2 7.2 31.2 20.6-6.4 26-18 30.3-35z" fill="url(#A)"/><linearGradient id="B" gradientUnits="userSpaceOnUse" x1="99.06" y1="359.61" x2="81.46" y2="355.06"><stop offset=".23" stop-color="#575d92"/><stop offset="1" stop-color="#313879"/></linearGradient><path d="M82.2 331.1l19.2 13.2c2.9 2.2 2.1 3.7-.3 7.6l-14.7 24.5c-1.4 1.9-3.3 3.1-5.7 2.6s-4.6-1.8-4.6-1.8l6.1-46.1z" fill="url(#B)"/><g fill="#adb7c1"><path d="M81.4 379.2l-1.5-.4 14.9-39.2 1.3 1z"/><path d="M79.66 343.9l.82-1.37 19.22 11.5-.82 1.37zm-2.26 12l.78-1.4 15.9 8.86-.78 1.4zm-1.3 10.94l.7-1.44 12.6 6.1-.7 1.44z"/></g><path d="M87.5 309.7l-10.3 68.1s.1 1.1-2.9.6c-2.1-.4-2.4-2.1-2.4-2.1l9.5-68.3c-.1-.1 1-1.3 3.6-.7 2.2.5 2.5 2.4 2.5 2.4z" fill="#441b18"/><linearGradient id="C" gradientUnits="userSpaceOnUse" x1="336.69" y1="402.44" x2="337.7" y2="420.58"><stop offset=".23" stop-color="#575d92"/><stop offset="1" stop-color="#313879"/></linearGradient><path d="M314.6 427.1s5.5-18.9 6.8-22.3 2.9-3.2 7.3-2c4.5 1.2 25.6 5.8 27.9 6.6 2.2.7 4 2.2 4.2 4.7.2 2.4-.3 4.9-.3 4.9l-45.9 8.1z" fill="url(#C)"/><g fill="#adb7c1"><path d="M360.7 414.9l-41.9-2.3.5-1.7 41.5 2.4z"/><path d="M325.95 425.3l5.12-21.8 1.56.37-5.12 21.8zm12.07-1.52l3.6-17.84 1.57.32-3.6 17.84zm10.98-1.83l2-13.85 1.58.23-1.98 13.86z"/></g><path d="M292.5 428.6l68-10.9s1.1-.4 1.5 2.5c.3 2.1-1.3 2.9-1.3 2.9l-68 11.7c-.1.2-1.6-.6-1.8-3.2 0-2.1 1.6-3 1.6-3z" fill="#441b18"/><linearGradient id="D" gradientUnits="userSpaceOnUse" x1="103.82" y1="326.49" x2="116.82" y2="323.47"><stop offset="0" stop-color="#cc7a5e" stop-opacity="0"/><stop offset="1" stop-color="#aa5f4b"/></linearGradient><path d="M111.8 309.5s-5 1.6-6.9 1.8c-1.2.1-5.1-.2-5.1-.2l6.5 31.1 4.1-1.8 8.3-2.5-6.9-28.4z" fill="url(#D)"/><linearGradient id="E" gradientUnits="userSpaceOnUse" x1="305.84" y1="408.08" x2="302.57" y2="395.61"><stop offset="0" stop-color="#cc7a5e" stop-opacity="0"/><stop offset="1" stop-color="#aa5f4b"/></linearGradient><path d="M288.8 401.1l1.9 6.5c.4 1.5.5 5.4.5 5.4l29-10.8-1.3-2.1-2-7-28.1 8z" fill="url(#E)"/><g fill="#848dd3"><path d="M192.6 258.9l-.1-1.7-1.2 1.1zm5.6-1h.5l-.6-1.1-.6.8-.9-.3.6 1.9 1.2-1.2zm-4.8-.2l1.3-1.1.2.7.3-.3 1.2.5-.1-1.7-.9.9-.7-.3v.2l-1.8-.8zm-1.6 16.1l1.2-1.2-1.8-.7zm.7-4.7l1.7-1.1-1.6-.9zm-1.9 2.5l1.7-1.1-1.6-.9zm5.3-9.3l-.5.3-.3-.8-.5.8.8.1-.8.7 1.3.5zm1.8-6.3l-.1-1.7-1.3 1.1zm-3.4 8.6l-1 .8.9.4zm.5-5.8l-.2.9 1-.2zm5.5 6.9l.4-.9-.8.1zm3.5-3.2l.7.9.5-.9zm-5.2-1.2l-.6.7.9.2zm5.4-4.4l.9-.4-.9-.4zm1.3 18.8l.4-.9h-1.1zm-5.9-2.1l-.6.7.8.2zm5.4-4.4l.8-.4-.9-.4zm-2.9 18.6l.4-.9h-1.1zm-6.5-1.4l.8.2-.2-.9zm6.8-5.5l-.9-.4.1.8zm-2.3 3.6l.4-.9-1.1-.1zm-6.5-1.4l.8.2-.2-1zm5.9-5.1l.9-.5-.9-.4zm-3.4-6.3l-.8 1-.2-.4-.7.9h.5l-.1.1 1.8.5zm3.8-1.3l-.9-.4.1.9zm-9.1 7.4l.6-.6-.9-.4zm-.8-7.9l.1-.9-.3.2.1-.4-1 .2.5.4-.2.1zm6.2 4.4l-1.1.1v-.2l-.3.3h-.1.1l-1 .8 1.4.6v-1l.6.7zm-2.2-7.2l1.1-.8-1.3-.4zm3.3-2.2l-.7.9h1.2zm-4.5 5.4l.7-.6-.9-.3zm-.6-7.9l.1-.9-.8.5zm-.7 18.7l.8-1.8-1.7.1zm.4-6.2l-1.7.2.9 1.7zm8.8-15.5l.4-.9h-1.2zm-1.6-3.1l-.3 1 .9-.4zm3.3 4l.8.1-.2-.9zm-11.6-4.2l.5 1.8 1.3-1.2-1.5-.6 3-.7-.4-.3 1.2-1.3-.3-.1 1.1-1.1-.4-.2.5-.5-1.8-.7.2.8-.6-.2.2-.1-1.5-.6 2.9-.5-2.8-2.6-.8 3.2.4-.1.5 1.8.4-.4.3.2.2-.6.1-.1.4 1.4-.7-.3.5 1.9-1.5-1.2-.1-.5.1-.7-.9.4-.1-.1-.1.2v.1l-.6 3zm-.3 27l.6-.6-.9-.3zm-1.23-8.25l.7.4.1-.6 1.5-1.6-1.8-.7h-.1l-.2-.1.1-.1-1.4-.6 1.3-.2.1.5.4-.6.7-.1-.4-.4.5-.7-1.7-.3-.6-.6 1.1-.6-.3-.2.6.3-.1-1.1 1.4-.3-.9.7 1.4.5-.1-1.7-.4.3-1.7-1.5 1-1 .7.2-.1-.3v-.8l1-.2-1.1 2.4 2.3-.2-1.2-2.2h.1l-1.4-1.4 1.2-1.2-1.5-.6 1.9-.4.2.8 1.3-1.2-1.8-.7.1.3-2.1-1.7-.6 3.2.8-.2.3.9-.9-.4.1.2-.2-.2-.8 3.2h.2l.4 1.3-.8-.8-.8 3.2h.1l-.1.8-.1-.1-.8 3.2.7-.1.1.4-.6-.1.6 2-.2.4-.4-.4v.1l-.52-.9-1.03 2.98-.54.92-.5 1h.3l-.5.4 1.8.4.2.7.6-.5-.4-.2-.3-1.4 1.7-.3-.4-.6h.1l1 1.6.6-1.6v-.1h-.1l-1.1-1.4.3-.1-.1-.1-.1-.4 1.2-1.7.5 1.6-.5.6zm1.8-13l.1.3-.1-.3zm-.7 2.1h0l-.3.3-.4-.2.7-.1zm-.82 3.45l-.68.66-.3-.2.98-.46zm-3.28 9.95v-.2l-.2.2-.2-.6h.7l-.3.6z"/><path d="M196.8 268.7l-.3.4-.1-.2-.6.8h1l-.2-.3h.6zm2.3-2.3l-1.1 1.2 1.7.1zm-2.2 4.8l-.1.2-.4.6h.5l.2.5.7-.6-.7-.4zm-.9 7.1l-1.2-.5-.1-.1-.1.1-.4-.2.4-.2-.8-.7-.3 1.2.7-.3.1.5-.3.5h.4l.3.9zm.9-.2l.1-.8-.7.4zm4.7-10.4l1.3.1-.5-1.1zm-4.5-5.2l-1 .5.7.6zM201 235l-1.3 1.1 1.4.6zm-3.8 1.4l-1.3 1.1 1.4.6zm-1.8 5.1l1.3-1.3-1.9-.7zm.2-4.4l1-.9-1.4-.7zm2.9 1.7l-1.8-.8.5 2zm-3.1-6l-.4 2 1.7-.6zm2 19.3l-1.8-.7.6 2zm-.5-5.4l-.2 2 1.7-1.1zm-1.9 4.4l1.7-1.1-1.5-.8zm5.2-7.5v-1.7l-1.3 1.1zm8.7 10.8l.7 1 .4-1zm-5.3-1.2l-.5.8.8.2zm6.3-4.8l-.9-.4v.8zm-9.7 2.9l-.7.9-.2-.3-.7.9h.4l-.1.2 1.8.4zm3-.8l.8-.5-.9-.4zm-9-1l.2-1-.3.2.1-.4-1 .2.4.4-.1.1zm6.3 4.4l-1.6.1 1.1 1.2zm-2.2-7.3l1.1-.7-1.3-.4zm-5.7 16.9l.2-.2.1.3 1.5-1.6-2.3-.9.4 1.2h-.2zm9.2-19.4l-.8.9h1.3zm-4.7 4.5l.2.9.6-.6zm-.3-7.9l-.9.5.8.4zm-1.3 4.9l2.3-.2-1.2-2.3z"/><path d="M199.7 241l-.4.8.9.1zm-7.4 6.1l1.3-.2-.8.7 1.4.6-.1-1.4 1.8-.2-1.2.9 1.4.6-.1-1.7-.1.1-1.7-1.6.8-.8.4.2V243l1.3-.2-2.7-2.7-.9 3.2 1.8-.2-.8.6-.8-.4.2.9-.3-.3zm2.4-10.2l-.5 2.3 2.5-.6zm6.4 11.4l-.3.4-.1-.1-.6.7h.9l-.1-.2h.6zm2.3-2.3l-1.1 1.2 1.7.1zm2.5 1.3l1.3.1-.5-1zm-4.5 3.9l-.2-.3-.1.1-.4.6h.5l.2.5.7-.6zm0-9l-1 .4.7.6zm-4.1-13l-1.3 1.1 1.4.6zm.3-1.2l-1 .2.7.7zm1.6 6.3l-1.1-.4.4 1.2zm-2-2.1l-1.4-.5.5 1.5zm2-.5l-1.1-.4.3 1.1zm1.6 6.3v-1.2l-.9.7zm.4-7l-.2.8 1-.2zm5.7 6.8l.3-.9-.8.1zM147.1 304l-.9.8 1.1.1zm-4.4-.2h-1.4l.8 1.4zm-8 1l.6-1.4h-1.4zm25.6-8.6l.9-1.7-1.6-.1zm-9.3-1.4l1.9.4-1-1.6-.9 1.1h-1.6l.9 1.8zm-3.2-1.2l-.9 1.3 1.9.4zm-6.6 6.8l.5-.1-.6-.6-.1.2-.7-1.1-1 1.3 1.5.3v.2l.4-.2.1.1zm6.8-4.1l-1.7-.1.9 1.8zm-2.3-.9l-.9-1.5-.3.7-1.2-.1.7 1.5.1-.4zm19.7-2.9l1.8-.2-.9-1.4zm9.7-3.4l-.4-.6 1.6-.9-1.5-1-.3 1.6-.3-.5-.9 1.7zm-16.9 9.3l1.9-.3-.9-1.5zm-3.4-1.9l-.9 1.7 1.8-.3zm22.6-14.8v-.1l-.4.4v-.6l-1.8.7.6.4-.2.1 1.1.6v-.1l.1.1.1-.9.6.1-.1-.7 1.4.8.1-1.4z"/><path d="M179.4 288.5l1.5-.3-.8-1.2zm-.82-6.16l1.6-.3-.6-.8.9.5v-.1l1.5-.4-.9-1.1-.5 1.2.2-1.5-2.2.8.7.4zM139 298.4l1.6-.2-.8-1.1zm6.7 1.7l.8-1.7-1.7-.1zm-.7 10.5l1-.2-.7-.5zm-2.6-14.5l-.4 1 1.1-.3zm-3.7 3.9l-.8.4.9.6zm20.8-4.5l-.1-1.1-1.1.8zm8.2-6.4l1.2.3-.2-1.1zm-11.8 5.9l1.2.4-.2-1.2zm-1.9 6.7l1-.2-.8-.8zm7.5-10.3l1-.6-1.1-.7zm2.7-5.4l-1.8.6 1.5 1.2zm-6.1 7.1l1.8-.8-1.4-1.1-.3 1.4-.5-.5-.3.9.8-.1zm4.8-1.4l1.8-.8-1.4-1.1zm-14.8 3.9l-.3 2 1.8-.8zm-10 2.2l-.4 1.9 1.8-.8zm37.2-1.7l.3-1.1-.9.1zm7.5-9V286l-.9.6zm-11.7 2.4l.8-.5-1-.6zm-22.2 11.2v.4h-.7l.6.9.5-.8.3-.1zm3.7 2.4l.5.3v-.8zm-1.2-6l.3.6.4-.6zm-15 2.9l.8-.3-.7-.4zm3.8 1.7l.5.2v-.6zm-.9-5.4v-.1l.8.6.1-.7.5-.1.1 1 1-.9h-.1l.5-.4-.8-.5v.8l-.2-.1-.7-1.1-.1.2.1-.7-2.8 1 1.6.9zm30.4 12.5l.1-.7-.7.3zm-6.8-1.3l.5-.5-.6-.2zm.7-11.7l1.1.4-.2-1.4zm4.7-5.1l.5-.8-1.1-.2zm-8.1-.5l-.6-.8-.4 1.1zm25.1-5.1l.2-1.1-.9.5zm-.7-4.2l-.9.6.8.5zm-23.7 12.7l1.5.5-.4-1.9zm12.7-1.9l-.7.8.3.1-.4.5.8.2-.1-.6.3.1zm11.2-4l.5-1.5-1.9.3zm2.3-4.5l.5-1.6-1.9.3zm-.8-3.5l1.8.5-.3-1.6zm-5.7 3.7l-1.8-.2 1 1.5zm-39.2 15.5l1.1.3-.5-1zm9.6 0l-1 .2.6.8zm-2.6.6l-.6-1.2-.5 1.2zm-12.3 2.1l1.1.2-.5-1zm9.5.8l.5-1-1.1.2zm10.7-8.27l-.7-2.1.4-.1-1.2-1.3.5-1.3 1.3 1.4v-.1l1 .8.5-2 1 .7.4-2.5-2.8 1 1.4.8-1.5.7.1-1.3-1.4.5.1-.2-2 .6.8.8-.7 1.6.2-1.8-1.5.5.1-.6-2.7 1 1.8 1.2.5 1 .4-1h-.3l.2-1.5 1.3 1.3-.2.5 1.8-.5-1.6 1.7zm-20 6.57l-.5-1.4-1.3 1.3zm.5-3.3l.9 1 .1-1 .1.1.1-.4.2.2.2-1.5-1.3.4.4.4-.4.2-.3.1.2-1.2-2.7.9 2.4 1.6zm-20.7 7.3l1 1 .1-1.1v.1l.1-.4.3.3.1-1.6-1.3.5.4.4h-.2l-.4.2.2-1.2-2.8 1 2.4 1.5z"/><path d="M143.4 293.3l-2.7.9 2.4 1.5zm3 .5l.5-.4-.4-.2.1-.9-2.7 1 2.4 1.5zm2.8-.3l.3.5.4-1h-.6v-.5l.5.4.3-.9-.7.1.1-.9-2.7 1 2.4 1.5zm11.6-4.1l2.6-.7.1 1.3 1-.6-1.1-.7h.1l-1.6-1.9-.7 1.7.1-1.5-1.8.8 1.6.9zm-26.9 9l.1.4.1-.2.3.6.7-1.4h-.4l-.6-.3.1-.8-2.7.9 2.3 1.5zm-1.1.3l-1.7-.4.1-.6-2.7 1 2.4 1.5v-.1l.2.8zm.3 2.8l.6-1.2-1.4-.1.6 1.2-1.4-.3.7 2.8 1.7-2.2zm42.5-18.6l.5 1.2-1.3-1.4-.2.3.2-.9-1 .5.7.6-.2.6-.8-1.2.1-.2-2 .9.3.1-.3.1v-.4l-2.8 1.1.5.3-.1.2-1.3.4.6.7-.1.2h.4l.5.5.1-.6h.8l-.6-1.3 1.5.9-1.6 2 2.8.1-.9-2.2.1-1 .7.6.3-1.2.3.2-.2.3.5-.1.2.1v-.1l.8-.1-.5 1.1 2.6-1 .5 1.1-.3-.3-.2.9.3-.1-.2.7.9-.6-.2-.6 1.4-1.7z"/><path d="M144.8 297.3l.2.4.6-.9-.8-.1-.1-.1v.1l-.4-.1.2.4-.1.5zm-1.8 7.3l.8.6-.1-1zm30.9-19.5l.2 1.4 1-.7zm1.2.4l.2 1.3 1-.7zm1.2 5.6l-.8 1 .4.1-.4.5.9.3-.1-.6.3.1zm4-5.1l-1.1-.1.6.9zm-11.6 1.4l-1.2-1.3.6-1.5-2.2.8.9.7-.1.3-.4-.4v-.2l-.1.1-.4-.5-.3.7-.7.3.4.4v.1l-.8-.1.4 1-.1.3h.2l.2.6.5-.8.5-.2-.2.5 1-.3.3.2.1-.3zm15.04-9.1l-2.6 1.5 2.7 1zm-38.04 26l-1.2-.1.7.9zm-6.3 3.4l.8.6-.1-1zm-9.3 2l.7-1.4h-1.4zm-8.3-4.9h-1.4l.6 1.2-1.5-.4.7 2.8 1.8-2.2-.8-.2zm-6.9-.5h-1.4l.7 1.2-1.5-.3.7 2.8 1.7-2.3-.8-.1zm7.8 5l.7-1.4H122zm-5.7-1.9l.7-1.5h-1.4zm12.3-2.5l.4-.1-.6-.6-.1.3-.7-1.2-.9 1.3 1.5.3-.1.2.4-.2.1.1zm-2.2-1.9l1.5-.3-.8-1.1zm-1.2 1.9l.9.7-.1-1.1zm.2-2.6l-.4 2 1.9-.8zm-1.6 2.2l.8-.3-.7-.4zm3.8 1.7l.5.3-.1-.7zm-12.6 2l.5.3v-.7zm11.4-7.5v-.1l.8.6.1-.7.5-.1.1 1 1-.9h-.1l.5-.4-.8-.5v.8l-.1-.1-.8-1.1-.1.2.1-.7-2.7 1 1.5.9zm-9.3 3.3h0l.8.5.1-.7.5-.1.1 1 .9-.9.5-.4-.8-.5v.8l-.2-.1-.7-1.1-.2.3.1-.8-2.7 1 1.5 1z"/><path d="M130.5 303.7l-.5-1-.6.8zm8.1.7l.5-1-1 .2zm-3.2-.4h1.1l-.6-1.2zm-11.2 2.1l1.1.2-.5-.9zm-6 .6l1.1.2-.5-1zm15.4.2l.5-1-1.1.3zm-9.2-1.6l-.5-1.5-1.3 1.3zm.3-3.6l1 1 .1-1.4.4.3.1-1.6-1.3.5.4.4-.6.3.1-1.2-2.7.9 2.4 1.5zm-2.7 1.1l.5.9.7-1.4h-1.1v-1.4l-3 1.1 2.8 1.7zm11.2 6.8l.6-.8-1.2-.1zm-5.8 2.7l.9.5-.1-1zm-9.4-2.6l.8.5-.1-.9zm-4.5.3l.8.5-.1-1zm31.8-8.6l.8-1-1.1-.2zm-3.6 5.6l1.1-.1-.6-.8zm9.5-1.3l.2-1.1-1 .5zm4.3.8l.7-.5-.6-.4zm-3.8 2.7l.8.2-.3-.7zm6.5 1.5l.4-.6h-.7zm-10.9-1.3l.1-.8-.9.3z"/></g><g fill="#303060"><path d="M181.8 321l.2.9.9-.6zm-18.4 17.5l-.4-1.1.2-.2h-.2l-.3-.6-.4.8-.6.1.2-.4-1.1.3-.1-.1v.1l-1.6.4 1.3 1.4-.7 1.6 2.3-.7-1-.9.2-.4.3.4v.2h.2l.3.4.3-.6.7-.3-.4-.4v-.1zm15.5-6.7l-.6-1.9-.9 1.5-1.9-.5.8 1.5-.4.7 1 .1-.3-.8.8-.9zm2.6.1l-1.9-.6.8 1.7zm0-3.2l-1 1.6 1.7.2zm-19.1 4.1l-.2-.6-.4.7h-.7l.3.6-.2.3.5.1.2.5.3-.5.6.1-.2-.7.3-.5zm-8.7 4.5l1-1.6-1.8.1.2.4h-.6l.7 1.5.4-.5zm14.7-10l.9 1.5.2-.4.6.7.3-.9-.8.1.6-1.2zm55.5-20l.1-1.5-1.5 1 .1-.1h-.1l-.7-.4-.2.8-.7.3 1.2 1.2.3-1.5.4.2-.8 1.9 2.8-.8zm-77.5 31.6l.9-1.3h-.8l-.5-1.1-1.1 1.3 1 .2zm.9 4.3l-1.6.2.6 1.1-1.2-.8.2-.3h-.6l-1 .1.7 1.2.1-.2-.1.7-2.2-1.5-.4 2.5 4.8-1.5-.2-.2zm42-14.7l-1.5.2.7 1.1zm-5.1-12.3l.3-.7-1 .1zm2 13.4l-1.1.2.6.8zm-17.2 1.5l1-.8-1.2-.4zm-9.8 6l1-.8-1.2-.4z"/><path d="M171.3 330.1l.1 1.1-1-1.1-.2 1.9 1.5-.4-.2-.3 1-.8zm3-5.2l.3-1-1.1.2zm-7.5 10.4V334l-1 .6zm-2.4.1l-1 .5 1.1.8zm-.4 4.1l1.9-.5-1.5-1.2zm6.3-6.4l.3.3.3-.9-1.1.1.3.3-1.5.6 1.4 1.2zm-6.7 1.3l1.4 1.2.2-1.3 1.4-.4-1.5-1.2-.3 1.2zm16.7-3.4l.6-1.9-1.9.6zm10.4-3.7l-1.8.6 1.3 1.3zm-37.5 2.6h1l-.6-1zm-8.8 8.3l-.2.4-.8-1.6-1 1.3 1.8.3-.1.5h-1l.6 1.3 1-1.4-.2.1.6-.2zm11.7-1.9l.9.6-.1-1.1zm19.8-13.4l.5-.4-.5-.3zm1 5l-.4.5.7.2zm15 0l.1-.8-.8.2zm-3 2.7h0l-.8-.5v.3l-.7.1v-1.2l-1 .8.9.4h-.4l.7 1.2.3-.4-.3 1.2 2.8-.8zm-29.8-14l-.1.6.6-.2zm6.8 2l-.1-.8-.5.5zm-1.8 12.3l.9-1-1-.4zm-3.9 4l-.5.8 1 .2zm9.1.5l-1 .2.5.8zm-27.5 5l1-.2-.5-.8zm.4 2l-.5.9 1.1-.1zm23.8-11.1l.2 1.9 1.3-1.4zm-13.4.7l-.4-.2.1 1.2.5-.5.3.5 1.1-1.6-1.9.1zm-12 12.5l-.9-1.6-.9 1.3zm5.9-3.7l-1 1.4 1.9.3zm39.5-13.2l.4 1 .6-.7zm.7 2.9l-.9.6.8.5zm4.7-6.2l.8-.7-1-.3zm4.7 2.6l-1 .8 1.1.5zm-63.4 22l1.3-.4-.6-.6zm83.36-27.64h.9l-.7-1.4-.6 1.2-.4-.2.5-1.7-1.6.4-.3-.6-.9 1.3-.6-.4.2 1.7-.4-.2.2-.2-1.6-.6.2-.6.1.7 1.1-1.1-.8-.3-.1-.1.1-.4h-.2l-.4-.8-.4.8h.6l-1.3.3v-.1l-.2.1-.1-.2-.3.4-.2.1-.7-.9-.3.5-.2-.2-.3 1.1 1-.4-.1-.1h.5l-.4.2.7.7.1-.4h.2l-.1-.3.9 1.1v.4l-.6.1.5.5.2-.4.2 1.1-.9.2.6.5-.5-.3-.2 1.3-1-1 .2-.5-2.7.8 1.1 1.2-.3 1.4-1.3-1.3v.1l-1-.9-.4 1.9-1.1-.7-.3 2.3-1.3-1-.2 1.4-.8-.8.6-1.6-1.3.4v-.1.1l-.3.1-.1-.1v.1l-.9.3.8.9-.1 1.6 2.2-.8v.2l1.9-.6-.1-.1 2.5-.9-1.2-.6 1.3-.6-.1 1.3 1.4-.5v.2l1.8-.9-.6-.5.6-1.6-.1 1.8 1-.4-.1.6 2.7-.9-.3-.2 2.4-.8h-.1l2.5-1.1-.7-1zm-3.9 0v.4l-.5.1.5-.5zm-.3 2.1l.4-1.4v1.7l-.4-.3zm1.1-1.7l1.2-.8v1.6l-1.2-.8zm1.2-1.3v.4l-1.2-.7 1.2-.1.8.6-.8-.2zM174.9 331.6l-2.8-.3.7 2.4zm41.3-18.2v.2l.6-.5-.3-.1.2-.3h-.7v-.6l-.8.5.3.1h-1.6l.5 1.1.1.7.2-.1.3.6.2-.3 1.1.4-.2-1.3-.1.1v-.2l.2-.3zm-.8 1.1l.4-.5h.1l-.5.5zM194 326.7l-1.8-.3.4 1.5zm.4-.7l1.4-1.3-1.8-.2-.3-.8-.8 1.4 1.3.1zm-2.9 3.6l-.9-1-.2 1.4-.4-.4-.2 1.6 1.3-.4-.4-.4.7-.2-.2 1.2 2.8-.8-2.3-1.7zm-6.7 2l-.3-.9-.2.4-1.6.1.8 1.5.4-.6.8.1-.3.9 2.8-.6-2.2-1.8zm-3.1.7l-.7.6.5.3-.2.8 2.8-.6-2.2-1.8zm-2.7.6l-.2-.5-.5.9-.3-.3-.3.9 1-.1-.4-.4h.6l-.4 1.6 2.8-.6-2.2-1.8zm-3 2l-.9-1 .2-.5-2.8.7 1 1.2-.4 1.4-1.2-1.3v.1l-1-.9-.5 1.8-1.1-.7-.4 2.3-1.3-1.1-.3 1.8 1.9-.6h-.1l2.5-.8-1.1-.8 1.3-.5-.1 1.3 1.4-.5v.2l1.8-.8-.6-.6.7-1.6-.2 1.8 1.1-.3-.2.6 2.8-.7-2.3-1.7zm-9.9 3.6l1.1-2.6-2.7.7zm-35 7.6l.6 1.8 1.5-1.6zm49.2-21.9l-.3.4.1-.2-.8.2.6.6v-.1l.5.1-.1.1 1.6.3-.7-1.9-.6 1.1zm3.6 5.1l-.2-.4-.8.9.8.1.1.2.1-.1h.3l-.2-.4.2-.4zm1.7-6.7l.8-.4-.2-.1.6-.4-.5.8 1.4.1-.6-1.5-.3.5-1.2-.4.1.5-.1-.1zm46-32.4l-1.5-.5.5 1.5zm-34.7 28.6l.5-.4h.1l-.7-.9-.5.8.5.1zm38-24.3l1.1-.5-1-.8zm-7.4-3.9l-.9.6 1 .4zm.7 3.3l.5-1h-.1l.4-.2-.2.3 1 .1-.4-1.1-.4.7-1-.4v.6h-.3zm4.5 8v-.8l1.5.8-.4-1.8-.9.5-.1-.1.8-.5-1.1-.7v.2l-.2-.9-1.2 1.6 1.1.3-.1.4h.4l.1.1-.4.2-1-.3v-.4l-.4.3-.4-.1v.3l-.7.3.1-.1-.7-.1.1-.3 1 .1-.8-1.8-.8 1.4-.3-1.7-1.1 1.3 1.4.4-.1.2h.4l-.4.2.6.4.2.5.3-.4 1 .7.1.3.1-.2.5.4v-.6l.6-.6zm3.6-4.6l.3.8-1.3.6 1.5 1.1V298l.4-.4zm-38.2 25.3l-.9.3.5.6zm.7-7.6l.1.9.7-.4zm28.2-11.4l-1.3.2.9 1zm-.7-.3l-1.7-.4.1.2h-1l.9 1.3.2-.4.1.3zm-11.2 13.1l.5-1-1.1.3zm-1.3-6.6l.6.4.2-.9-.8.2-.1-.1-.7.6.9.2zm-11.4-.1l.3-.9-.9.3zm26-6l.7-1.6-2 .2.9-.6-1.3-.4v.1l-.8-.1.4-1h-.4l.3-.3-.9-.3.2.7h-.1l-.8-.2.4.8.4-.5.5.8.1.8.7-.6.1 1 .2-.2zm2.3 4.1l2-.3-.9-1.5zm-.8 2.2v2.1l-1.5-.4-.1-.7.6.7.4-2-1.1.3h-.2v-.2l-.4.1-.5-.2.3-.2-.4-.2.2-.5.8.3-.2-.9.3-.1-.6-.8h.2l-.1-.2.7.7.3-1.9.2-.2-.9-.1.1.3-.5.2.3-1-1.8.2.6.9-.1.2-.5-.4-.2 1 .3-.1-.3.3h.5v.2l.5-.1h.1l-.6 1.3 1.7-.3-.5.6.1-.3-1.5.1-.2-.3-.2.3-.6 1.1.6-.1v.6l-1.3.1.4.5-.8.1h-.1l-.8 1-1.1-.9-.3 1.3-.5.4.7.2.5.4.1-.3.3.1-.1-.6h2l-.6-1.3.4.4.4-.8.8 1.2.2-.6.4-.2.2 1.7 1.4-1.4.2.2v-.1l.7 1.6-1.4-.1.5 1.3 1-1.1.2.1 1.08-1.08.34-.75 1.08-1.42-1.7-.25zm-7.6 2.5h0l.1-.3h-.1v-.1l.4-.1-.4.5zm3.9-1.5h0zm.5.2l-.4-.2v-.2l.3-.2.3.3-.2.3z"/><path d="M230.4 307.7h.1l-.1-.1.2-1-.4.1.2-.2-.3-.1-.1-.6-.4.5-.1-.1.1.1-.7.8v.1l-.1.1h.3l.6.7 1.3 2.5 1.6-2.1-2.2-.3zm-2.4-2.5l1.4 1-.1-2.1-1 .6-.1-1-.9.8.4.2v.7zm7.8-3.3l.7-1.7-1.6.1zm.6-6l1.1 1.5.5-1.8zm-.6-1.2h.1l.1 1.4 1-.9-.9-.5.7-.1-.6-.9 1.1 1.4.5-1.9-1.6.2-.2-1.4-1.3.9 1.5.8zm-1.6-7l-1.3.8 1.6.9zm-8.6 25.9l-1.8.2 1.1 1.7h-1.1l.1-.4-1.8.2.9 1.4-.7-.4.3 1.4-1.2-.9.1 2.2-2.6-.8.4 2.2-2.2-1.1.4 2.5 2.2-1.2-.1-.1 2.5-1.3-.3-.1 1-.5v.1l.6-.4h-.1l1.2-.9-.4-.3 1.4-1.7h-.6l.4-1 .4 2.2 1.7-1.4-2.1-.8.3-.8zm-2.4 3.2l.2-.6.4.9-.6-.3zM197 327.7l1.1-1-1.2-.6zm-1-.7l-.5-1.3v-.4l-1 .6.5.3-.6.7zm19.3-7.7l1.1-1.7-1.8-.3zm-17.5 8.8l-1.3-.6.1 2.1-.7-.6.3.1-.3-.5-.2.2-1.2-.8-.2.9-.3-.9-.8 1.4 1 .1-.2.9 2.8-.7-.1-.1.9-.9-.2.7 1.9-.7-1.2-1.3zm-44.4 10.6l-1 .6 1.1.7zm-6.3 1.6l-.6-1-.3.5-.8-.1.2.8.4-.4zM140 345v-.5l-.7.3.4.3-.3 1.5-1.2-.9-.3 1.6-1.5-1.1v.1l-2.8-.3.8 2.4 2-2-.3 1.5 1.8-.6 1.8-.5-.1-.1 2-.6zm-9.4 2.9l.1-.6-.8.3.4.3-.3 1.5-1.2-.9-.3 1.6-1.5-1.2v.1l-2.8-.4.7 2.4 2.1-1.9-.3 1.5 1.7-.5 1.9-.5h-.1l2-.6zm27.6-8.3l-.1.1-.8-.7-.4 1.5-.8-.5 1.9-1.9-2.8-.3.6 2.1-.1-.1v-.1l-1 .2.6.8.3-.7-.3 2-.9-.7.2-.3h-.5l-.1-.1-.1.2h-.2l.1-.2-.8.2h-.2v.1l-1.8.4 1 1.1-1-.7-.1.2-.7.4-.7-2.3-1.8 1.8 2.4.8.2.6-.9-.6-.1.7-.7-.2v.7l-1.2-.9-.3 1.4 1.5-.5v.1l.7-.4-.1.1 1.3-.3-.1-.1.5-1.1-.3 1.3 1.7-.5.1.1.1-.1v-.1l.9-.3-.4-.4.2-.5.4.7-.1.2 1.7-.6 2.9-.9-.9-.6.5-.2.4.7.4-.7 1.2-.4-1.4-1.4zm61.1-31h0l.6 1 .1-.2.2.2.2-.3.6.1-.3-1v.1zm-.1 5l.4-.8-1 .1zm7.1-23.7h-.8l.5.6zm-4-1.6l-.3.7.7-.2zm-3.8 18.2v1.5l1.3-.6-.3-.2.4.1-.2-.7.3.4.4-.5-.8-.1v.1l-.4.5zm5.4-1.7l-.1.3-.4-.6-.3.8-.2-.5-.5.8h.9l-.1-.3h.6v.5l1-.5zm9.6-1.3l-.8.4v-.8l-.7.6-.9-1-.7 2 .8-.3 1.6.8-1.3.2 1.9 2 1.2-2.5-.8.1-.3-1.5zm-.7 1.8h0-.2v-.6l.8.5-.6.1zm-1.7-12.4l-.7.8 1 .1-.1-.4.5.4.1-.9-.7.2zm-4.8-5l-.7.3.6.3zm-4 3l.1.8.5-.6zm9.7 1.7l.1-.7v.2l.5-.4.3.4.5-2-1.8.3.7.9-.2-.1v.6l-.8.2zm3.6-2.4l-.4 1.1 1-.1zm-5.8-1.5l-.9.4.8.5zm-11.9 19.2l-.6 1.3 1.3-.2zm-15.7 5l.3-.6h-.8zm18-3.2l.2.9.6-.5z"/><path d="M202.1 313.4l-.3-.8-.6.8zm15.2-7.1l1.1-.6-1-.4zm6.2-16.2l-.6.5.7.2zm8.6-3.1l-.9.1.6.7zm-8 1.7l-.1 1 .8-.5zM197 319.9h0l-1.7.5 1.1 1.4.2-.6.4-.4h.3l-.3-.8zm3.1-5.4l.8-.9-1.6-.4.4-.8-1.6-.2.7 1.8.5-.8.3.9-.1-.2-.3 1.1 1-.4zm-2.9 9.7v-.7l-.4.2-.6-1.4-.7.9.1-1.8-.5.4-.3-.2.3-.1-1.1-1.1.3.1-.3-1.3-.8 1h.1l-.2.3h.9l-.2 1.4.8-.2-.1.5-.6.4 1.4.8-.4.5 1.8.1.5.2zm-3.3-3.9h0l.1.1-.1-.1zm-.3.8l-.9 1h.1l-.5.9 1 .1-.4-1 .9.3zm3.9-5.2l-1.1-.1.6.9zm-9.5.5l-.3 1.1 1-.4zm36.3-14.5l.1-.7-.7.2zm-5.5 1.4l.6-.5-.6-.3zm-24.4 8.6l.1-.9-.7.5zm3.4-3.1l.5-.4-.7-.3zm-5.6-1.5l-.3-.7-.4.7z"/><path d="M234.2 294.5l-.9.2.8.6zm-7.6 3.2l.1 1 .7-.7zm-24.7 18.7l-.1.9-.5-.5-.3.9 1.1-.1-.3-.3.8-.2zm-3 4.3h0l-.9-.1.3.9h-.2l-.2-.2v.3h-.2l.1.1-.1.9 1.1-.3-.2-.3.2-.2.8-.1-.3-.5.5-.5h-.9zm-.6.9h0zm-6.3-7.7l.9-.3-.8-.5zm2.1 5.4l.4.7.3-.4v.6l.4-.4-.4-.3.1-.1zm-1.2 1.3l-.4-.8-.6.8zm41.8-23.2l.6-.9.2-.2-.3-.1-.4-.5-.2.5-.8-.1zm-8.9 2.2l.9-.7-1.1-.6zm-1.7-7.7l-.7.9h1zm-3.6 6.9h-1l.6 1zm2.2 3.8l-.2.6-.5.4.9.5v-.6l.6-.1zm-3.3-3.8l-.5-.7-.4.8zm-19.2 10.8l.2-1.1-1 .6zm15.9-8.9l.6-.5-.9-.4zm6-8h-.4l.3 1 1-1-.6-.3.3-.4h-.9l.3.7zm.2-.3v.3h-.2l.2-.3zm12.6 11.9l.6-1.7-2 .2zm-8.8-11.3v-1.3l-1.5.8.9.4v.2l-.4-.1.4 1 .8-.8h-.1zm-4.3-1.6h-1l.4.7zm4.2 3.8l-.2.1-.9.3.1.1-.5.4-.2-.1v.9l.7-.6-.2-.1.4.1-.1-.5.7.6v-1l.4.5.1-.2.3.5.1-.4h.4l-.3-.3.2-.4h-.4l-.3.1zm4.7 4.2l-.6-1.1-.4 1.1zm-46.5 22.4l-.6-1-.6.9zm12.9-7.6l.2.8.3-.5v.4l.8-.4-.5-.3.2-.2-.3-.1.1-.1h-.7l-.2-.1v.1h-.2zm-9 1.3l.3-.1.1.1.1-.2.1-.1.5.3.1-.9-.4.3-.1-.1.1-.2-.2.1-.3-.3-.1.3-.6.1.5.4zm46.3-18.1l-1.5.8 1.7 1zM187 319.9l.5-.8-1.1-.1zm-9-.3l-.3 1.1 1-.4zm8.7-9.4l-.4.7.7-.1zm-13.5 8.9l-.8.5.7.4zm3.9-2.2l.6-.4-.7-.3zm-6.5-2.1l-.5.6h.8zm18.5 4.8l1 .2-.3-.8zm3.7 1.8l-1 .4-.2-.3.6-.6-1.1-.3.4.8-.5 1 1.1-.3-.2-.2.6.6zm4.5-1.9l.7-.4-.8-.5zm-6.7-3.9l-.7.6.9.2zm-.1-2.8l-.8 1 1.1.3zm4-5.3h-1.1l.6.8zm-9.5.6l-.3 1.1 1-.4zm8.1 8.6l-1.1.3.7.7zm-2-6l-.7.7.9.2zm38.9-24.6l-1 .3.6.7zm3.1 11H232l.4.9zm-50.4 20.3l-.4-.1.6-.2-.8-.5-.1.6-.3-.1.1 1zm4.2-.1l-.7 1.3 1.3.2zM174 330.9l1.6-.5-1.3-1.4zm-7.3-4.4l1.6.2-.6-1.9-.6 1-.4-.1.1.5zm10.4.1l.5.1-.1.3 1-.2.2.1-.7-1.9zm-14.6 1.7l-1.9.1.8 1.5z"/><path d="M158.8 334.7l-1.8.1.7 1.6zm-1.1-17.4l-1.8.2.8 1.5zm11.1 7.2l1-1.8-1.8.3zm5.3-1.4l-1.8.2.8 1.5zm-27.3 10.2h-1.6l.7 1.3zm-6.7 7.5l-.1-.2-.2.2-.2.1.1.1-.7.9 1.9.4-.3-.7.6-.8zm47.4-13.9l.6 1.1 1-1.2-1.3-.3.3-.5h-.6l.2-.4-.2.1.1-.8-.4.3v-.1l-1.1.8-.5.4.8.5.1-.7.1.1.6 1.1zm-.1-3l.7 1.1-.2-.1v.7l.5-.4-.2-.1.8-1.3zm33.4-9.8v.3l-.6.8-1.3-.9.1 1.6-.3-.1-.4-.5-.7 1.1-.3-.5-.2.4h.1l-.1.7.4-.1-1 .8 1.5.4-.2-1.3.2-.1-.2-.2.8-.1.3 1.3.6-.7h.8l-.3-.5.2-.3-.4-.1-.7-.2.4-.2.4.2v-.4l.4-.2h.7l.5.6.3-.6h.5l-.4-.8.4-.7-.7.1-.1-.3-.2.2-.5-.4v.4h-.1l.1.3zm-3.2 2.3h0zm-3.6 1.2h-.1l.7-1.1-1.6.3.6.8h-.9l.5 1.1zm-.2-3.7l-.1.8-.7-.3v1l1-.6-.1-.1.6-.1zM184.3 326l-.3.3-.6.1-.3-.8-.4.8h-.2l.1.2-.4.7h.7l.4.7.3-.6.2.1v-.1l1 .1zm-1.4-4.3l-.9 1.7 1.6.2z"/><path d="M183.6 324.7l-.1-.4-.5-.8-.5 1 .7-.1-.5.7h.2l-.2.2 1.1.3-.1-.3h.2l-.3-.6zm-.1-.3h0zm2.4.4l-1.1.3.6.7zm3.6-2.5l.9-.4-.9-.7zm-4.9-16.3l-.7-.3.1.8zm3.6.3l-.3.6h.6zm-2.4-4.8l-.6.1.4.5zm12.6 23.4v-.1l.1-.1h-.1l-.1-.2.1-.8-.3.2-.1-.2-.2.3-.3.3.1.1v.1l-.5-.2.1.5-.3-.1.2.3h-.5l.6.9.3-.4.6.8.8-1.4zm.7-8.2v-.9l-.9.6zM158 330.8l.6-1.2-1.2.1zm6-2.1l.9-.2-.8-.9zm-6.2-5.5l-.1-1-.9.5zm10.7 3.5l1.1-.7-1.2-.4zm-10 5l.2 1.2 1-.7zM171 327l1-.8-1.2-.4zm7.1 1.5h.9l-.4-1zm-2-.7l-.5 1 .9.1zm-2.1-6.9l.2-.9-1 .2zm-12.3-3.6l-.9.6 1 .7zm1.6 7.7l.1 1.1.9-.9-.8-.4.2-.3-1.1-.1.3.9zm5-8.1l-.5 1h1zm-2 14l-.1-1.3-1 .5zm-2.4 0l-1 .6 1 .8zm-13.2-.2v.4l1-.9-.3-.1.8-.9-2.2-.4.5 2.1zm2.5-6.1l-.4 1.1 1-.1zm-1.1 13.6l1-.4-.7-.6zm8.1-5l-.3 1 .9-.3zm6-11.2l-.1-.8-.6.4zm4-1.1l-.1.7.5-.1zm9.6-.7l-.8.2.7.5zm-4.1-2.3v.7l.5-.4zm1 5.8l-.4.4.7.2zm10.6-9.1l.2-.8-.8.3zm-3.6-2.6l.4.4.3-.8-.7.1-.3-.2v.8zm.9 6l-.2-.7-.4.5zm7 5.2l.1-.7-.8.2zm-3.5-2.7l-.5-.3v.7zm.8 6.1l-.3-.7-.4.5zm6.7-2.4l-.3.4.6.1zM177.1 306l-.4.7h.8zm-5.9 4.9l-.6.1.4.6zm5.5 3.1v.6l.6-.3zm-17-2.4l-.1.7.6-.2zm5.9 2.2l-.5.4.5.3zm-18.3 22.3l-.5-1-.5.8zm8.1.6l.5-1-1 .2zm4.2-6.5l1-.4-1-.9-.1 1.2v-.1l-.6.8 1 .2zm8.5 1.5l.3-.7.4.1-.7-1.9-.9 1.7h.4zm37.1-12.4l.1 1.1-1-1.1-.1 2 1.5-.6-.3-.2 1-.8zm-4.2 5.5l-.1-1.3-1 .5zm3.4-2.4l.3.3.2-1-1.1.2.3.2-1.4.7 1.4 1.1zm-1.3 3.3l.4-1.1-1.1.4zm-2-4.6l.3-.1-.8-.6.1.6-.8-.3.4 2 1.1-1.5zm6.9.5l.6.4.2-1 .4-.1-.8-1-.3.7-2.1-.2.9 2.4zm-6-.6l.3-.6h.4l-.7-1.8-.9 1.7h.4zm-60.8 15l1.1-.2-.6-.8zm.4 2l-.5.9 1-.1zm-2.2 2l-.8.3.7.6zm3.6 1.4l-.9-.3.1.8zm7.4-6.4v.4l.1-.2.1.1.1-.2.6-.6-1-.5.1.6-.3.1zm6.1-8.6l1.2-1.4-1.5-.5zm-20.2 19.3l1.2-1.3-1.4-.6zm-5 1.4l1.2-1.4-1.5-.6zm-5.7 2l1.3-1.3-1.5-.6zm-2.7.6l1.2-1.4-1.5-.6zm29-21l.7-.8-.4-.1-.4-.8-.6.9.6.1zm2.5.4l.8-.7-.2-.1.4-.4-.8-.4v.6l-.3-.1zm-10.7 5.2l-.2.6 1-.4-.7-.7-.1.4-.9-1.6-.9 1.3zm-6.5 8.9l-.8-1.7-1 1.3z"/><path d="M125.9 346.9l-.8-1.7-1 1.3zm13.5-10.7l-1 1.3 1.9.3zm-.2 2.2l-1 1.3 1.8.4zm4.5-6.8l-.7.2.4.4zm13.3-10.5l-1.2-.4.2 1.5zm4.7 7.1l.4-1.2-1.2.3zm23-5.5l-1 .8 1 .6zm4.3-4.5l-.2-.2v.1h-.2l.2.6v.3l.1-.1.1.2.3-.4.3-.1-.1-.1.1-.1zm-8.5-1.5l-.5 1 1-.1zm1.3 10.7l-1 .8 1 .6zm4.3-3.6l.6-.7-1-.4zm-8.5-2.4l-.5 1 1-.2zm3.2.6l-1.1-.1.5 1.3zm-3 6.4l-.3.9 1.1-.1zm4.4-8.1l1.1-.1-.5-.9zm8.9-.1l.9-.7-1-.2z"/><path d="M193.4 314.5l.3-.7-.9.1zm-.7 9.8l.7-.8-1-.1zm.4-6.5l.2.1h-.4l.5.6-.2.3 1.2.1-.5-.7.1-.7zm-.9 7.4l.2-.2-.2-.1v-.2l-.1.2v-.1l-.2.1-.5-.2.1.3-.2.1-1-1.2-.3 1.4-.3-.3-.3 1.5 1.4-.3-.4-.5.8-.2.4.3.1.1.5.2zm-4.9-5.2l1.1-.2-.5-.8zm-8.1 6.6l.9.7.1-.5.4 1.1.6-1.2-1-.1v-.7zm-7.7.9l-1 .8.9.5zm12.8-5.9l.4 1.1.7-.8zm-7.4-1.1l-.5-.8-.6.9zm29.5-24.6l-.6.1.4.5zm.8 6.4v.6l.7-.3zm3.8 12.2l-1.2.1.8.8zm-2.3-4.4l.9-.2-.8-.6zm4.4 2.5l.6.4.1-.8zm-.5-6.8l-.8-.2.3.7zm.1 4.3l-.9-1.5-1.1 1.3zm-12.8-13.9v1l.9-.4zm8.7 14l-.4 1.1 1-.2zm-2.7-12.3l-.3 1.3 1.2-.6zm3.8 6.5l-1.1.1.4.8zm-5.4-.7l-.2.8.8-.4zm2 4.7l.5-.5h-.7zm4.7 3.6l.6.3.1-.6zm4.6-.2v-.7l-.3.2.3-.3-.5-.2.1.5-.1.1zm-4.4-17.3l-.6.1.4.6zm-.3 6.6l.6-.3-.6-.3zm-9.5-5.4l-.1-1.3-1.3.8zm8.3 18.1l.6-.8-1.1-.1zm-73.5 23.3l-1.6.2.7 1.2zm-8.5-6l.9.6-.1-1.1zm1.8 6l.7-.7-.9-.1zm-1.4 7.1l.7-.6-.9-.2zm6-14l-.3.8h.8zm-8.9 6.5l-.3.9h.7zm10.6-8.4l-.8.5 1 .5zm1.7 5.8l-.9-.2.2.8zm-13.1 7.3l-.9-.1.2.8zm17.1-13.5l-.4.8.8-.1zm-8.3 16.5l.8-.3-.6-.6zm95.2-50.8l.3 1.3-.1.2 1.2.1-.4-1.1.2-.3zm-.2 2.7l-.7.5.8.4v-.2l.9.5-.2-.9.9-.1-.4-.7-.5.8.1-.5-.8.2.3.3-.3.2zm4.7-.5l-.2.7h.6zm.1-1.3l1.1-1.2-1.5-.2zM171.6 327l.7 2.4.9-.9.4.6.9-1.7h-.2l.1-.1zm-21.7 11.4l-.1-.1.7.4-.4.2.9.6-.9.5 1.1.7-.1-1.1.5.4.4-1.9-1.4.6-.1-1.2-.8.5-.7-2.3-1.8 1.7zm5.2-6l-.3-.2.1.7v.5l.1-.1.6 2 2-2-2.3-.3.4-.4-.2-.1.3-.3.7.5-.1-1.1-.7.4-.7-.2zm-19.5 8.3l-2.8-.4.8 2.4zm-5.2 5.4l-2.8-.4.8 2.4zm61.5-34.7l.7 1v.1l.5-.4-.3-.2.3-.7zm6.7-2.6v1.1l.8-.4zm-7-4.7l-.9.7 1.1.3zm39.6-7.7l.9.1-.4-1zm-15.3 9.8l1.4.5-.3-1.7-.1.1-.8-.9-.5 1.2-.2.6.8-.1-.3.3zm0-.7l.7-.1-.4.4-.3-.3zm-19-.9l1.2-.3-.7-.4h.2l-.4-.8-.6.8h.5zm5.7 3.2l.1-1-.8.6zm-1.1-7.7l.6-.5-1-.3zm16.3 4.6l.2-2.1-1.8 1.1zm.5 7.6l.6.3v-.6l-.4.2-.4-.7.6.3.2-2.1-1.7 1.2.7.4-.8 1zm4.1-1.5l.3-1.3-1.1.6zm-.5-9.3l.9-.6-1.2-.6zm-7.1 7.1l1.1.9.3-2-.1.1h-1l.2.4-.4.2v-.6l-.9.4.8.8zm1.8-6.2l.4-.3.4.4.1-.9-.3.1-.7-.3zm-15 9.3l.6.1-.2-.7zm14.9-17l-1 .4 1 .9zm5.5 2.5l1 .1-.5-1zm-27 1.1l-.3.9 1.2-.2zm5.3 4.3l.1-.9-.8.5zm-.2-8.2l-1-.3.3.9zm18.3-2.7l-1 .2.9.9zm-.5 6.8l.8-.5-.9-.4zm5.9-3.9l-.1-.3h.2l.5.1h.1l-.3-.7-.1-.2-.4.6-.2-.4-.5.8zm-14.9 23.3l.5-.9h-1.1zm-.8-2.6l.1.8.6-.4-.2-.1.6-.8-1.2-.1.6.9zm-1.6-2.5v-.7l-.7.4zm3 1.8l.4-.5-.7-.1zm-4.2.2l-.4-.6-.4.7zm7 2l-.9-.2.3.9zm-5.9-2.5h-.8l.5.6zm1.5 0l-.1-.5v-.3l-.1.1v-.1l-.1.1-.5.2.2.1-.3.3zm-2.3 2.8l.2-1-1.1.3zm-1.2-1.1h.3l-.4-.6.4-.2-.8-.5-.1.8-.3-.2-.3 1 1.2-.3zm-.4-.3l-.2-.1.3-.1-.1.2zm2 1.9l-.3 1 1.2-.2-.1-.1v.1-.2l.8-1.1-1.7-.2.5.8-.1.2zm-2.5-3.8l-.1.8.9-.3zm-2.9-.4l.7-.8-.9-.3zm2.8 4.2l.6.6.2-.4.1.1v.1l.3.3h.1v.1l.2-.8.1-.2-.8.2.1-.3z"/></g><path d="M300.3 290.1c-6.6-19.2-26.1-63.1-35.6-84h-69.5c.5 8.1 3.4 24.1 16 44l34.1 54.3c6.3 10.5 15.6 39.1 19.8 56.3 3.1 12.9 10.8 36.2 12.4 40.8.5 1.4 2 2.1 3.4 1.7l39.9-10.9c2.2-.6 3.6-2.9 3.1-5.2-3.2-14.5-17.1-78-23.6-97z" fill="#575d92"/><path d="M273.6 339.3c-2.7-10.3-10.8-36.4-17.1-46.7L224.7 241c-8-13.1-12.3-28.1-13.9-34.8h-1.3c1.6 6.6 5.9 22.1 14.1 35.5l31.8 51.6c6.3 10.2 14.2 36.1 16.9 46.3 2.8 10.7 18.3 60.6 18.4 61l1.2-.4c-.1-.3-15.5-50.3-18.3-60.9z" fill="#7780b7"/><linearGradient id="F" gradientUnits="userSpaceOnUse" x1="238.77" y1="235.92" x2="234.58" y2="211.48"><stop offset=".14" stop-color="#38315f" stop-opacity="0"/><stop offset="1" stop-color="#38315f"/></linearGradient><path d="M270.3 219.2l-5.4-13h-69.5c.1 2.7-.1 6.2 3.6 18.6 2 5.1 3.1 9 5.5 13.3a339.3 339.3 0 0 0 4.2 7.5s15.4-7.2 32.9-9c14.4-1.5 36.1.1 36.1.1l-7.4-17.5z" fill="url(#F)"/><g fill="#ad5c49"><path d="M291.6 407.6l-.9-.1.4.7zm10.5-.1l.9-.3-.7-.7zm-9-2.5l.1.8.6-.6zm15.4 2l.8-.2-.6-.6zm-2.6-7.1v-.6l-.7.3zm-4.9 5.6l.5-.5-.7-.1zm-7.2 3.7h-1.1l.7.7zM291 416l1.5-.7-1.4-.7zm3.8-9.6l-1.1.7 1 .6zm3.8 3.9l.9-.8-1.3-.4zm-6.6-2.5l1.6.3-.7-1.4zm4.3 1.2l.9-.9-1.3-.1zm4.5-8.9l1.1-.4-1-.9zm11.9-5.4l1 .9.2-1.2zm-9.3 4.5l1-.8-1-.6zm-12.1 15.1l1.3-.6-1.3-.6zm.5-10.9l.8-.6.2.6.8-.8-1.3-.4.2.4-1.1-.4zm.1 8l.6-1.2-1.3.3zm.6-2.2l-1.5-.4.2 1.2zm6.5-1.6l1.1-.5-1.1-.8zm-7.6-5.9l.9.4.1-1.3-.9.6.2-.9-2.7.7 2.2 1.5zm6.8-.9h0l1.2-2.7-2.5.7 1.2 1.9-1.1-.3.4 1.2.8-.7zm-1.5-1.9l-1.5 1 1.4 1.1zm-7.7 3l.4.7.4-.6zm12.2.2l.9-.2-.7-.7zm7.3-6.2l-.2.9.9-.3zm-6.1 4.2l-.8.4.8.3zm1.2 1.5l.8.4v-.8zm-9.1-1.2l.2.7.5-.5v.7l1.1-.3-.7-.7h-.1l-.2-.2v.1l-.7-.2.1-.5-2.5.7 1.8 2.2zm10.9-2.6l-.9.4.8.5zm-9.2 5.6l.6-.6-.7-.3zm.3.1l.9.1-.4-.7zm-3.6 9l1.6-.3-1.1-1zm6.2 0v-1l-.9.6zm.7-7.3l-1.4-.4.5 1.2zm-7.3 1.3l-.6-1.3-.5.5.5-1-1.3.3.7.9-.3.2-.6-.1.3 1.3 1.1-.9zm2.8 7l.7-1.2-1.3.3zm4.2-10.3l1.1-.5-1-.8zm4.6-6.3l-.1 1.2 1.1-.4zm6.7-.2l.2-1.3-1.2.7z"/><path d="M296.2 411.4l.9-.8-1.3-.4zm-5.9-8l.8-.4-1-.8-.1 1.1h-.4l.6 1.5 1.3-1.3zm10.1-5.4l-1.4 1.1 1.4 1.1V398l2.3 1.9.7-2.9-3.2.9zm6.1-.3l.3-1.5-1.6.6zm1.8 1l.1-.9-.9.3zm-9.8 3l-.1 1.3 1.2-.5zm-3.6.4l-2.3 1.7h-.8l.6.8.3-.5 2.7.6zm-183.2-62.6h.8l-.5-.7zm-4.2-10.5l-1-.2.2.9zm6 7.2l-.5-.6-.3.9zm-9.8-13.1l.2.8.6-.6zm8.2-.8l-.5.3.5.4zm-2.7 6.6l-.2.7.6-.2zm-.1 9.5l.9.2-.5-.9zM105 343l1.2-.7-1.3-.9zm6.3-6.3l.1-1.3-1.1.8zm-5-3.7l-.2 1.1 1.2-.2zm4.3 4.3l1.1 1.2.4-1.3zm-1.9-3.1l-.3 1.3 1.1-.3zm4.9-8.3l.2 1.2 1-.8zm-1.6-13.1l-.9.8 1.3.5zm2.4 10.9l-1-.6-.2 1.2zm-8 18.3l1-.6-1.1-.8zm10.3-5.8l-.9-.7.5-.1-1-.9-.3 1.1.7-.1-.2 1zm-8.1 4.3l1.1.1-.5-1.3zm1.5-.1l1.2-.5-1.2-1.1zm-2-9.2l.1 1.2 1.1-.7zm8.1 5.7l.1.8-.7-1-.5 1.9 1.6-.3-.2-.3.9-.6zm1.8-1.8l-.6.6v-1l-1 .7.8.5-.8.8 2.4 1zm-1.3-3.4l.2-1.7-1.8 1.1zm.7 6.5l.8-.1-.5-.7zm-4.8-11.1l-1-.2.2.9zm.2-8.2l.7-.6-.9-.3zm.2 6.7l-.6.4.6.5zm-2-1.1l-.7.4.7.5zm4.1 12.2l-.3-.8.3-2.8-2.5.9 1.9 2-.3.5zm-2.4-14.3l.8.5-.1-1zm.6 10.3l.8-.4-.6-.5zm0-.9l-.8-.1.5.7zm-6.1 8.3l.8-1-1.4-.5zm-2.5-4.8l.1-1.1-.9.6zm5.2-4.8l-.2 1.2 1.2-.3zm6.6 1.4l.1-.1-.3-.1v-.1.1l-1-.3.3 1.1.6-.4-.2.7.7-.1-1.4 1.3 2.7.5-.6-2.5-.4.3zm-2-2.3h0l-.1.1-.2 1 1.3-.2-.9-.8h2.2l-.6-2.4zm-8.8 7.8l-.7 1.1 1.2.2zm7.1-8.4l-1.2-.5.2 1.2zm1.1-5.8l1-.7-1.2-.4zm-1.3-5.9v-1.4l-1 .8zm-6.2 19.4l1.2-.3-1-.8zm8.3 1.6l-.4-1.2-.6.9.2-.7-1.5.1.5.6-.2 1.4 1.3-.4-.4-.5.1-.3zm1.1-11.9l-1.8 1.1 1.5.6.3-1.7h.1l-.7-3.2-2.2 2.1zm-1.4-4.9l-.3-1.5-1.1.9zm-2.6-2.2l-.6.6.9.3zm1.8 10.5l-1.2-.5.1 1.2z"/></g><linearGradient id="G" gradientUnits="userSpaceOnUse" x1="294.71" y1="331.35" x2="333.63" y2="329.69"><stop offset=".14" stop-color="#38315f" stop-opacity="0"/><stop offset="1" stop-color="#38315f"/></linearGradient><path d="M320.6 392.5c2.3-.6 3.7-3 3.1-5.3L309.9 326l-6.3-24.7c-2.3-9.8-13.8-37.5-13.8-37.5s-8 15.9-8.9 29.2 14.3 106.1 14.3 106.1l25.4-6.6z" fill="url(#G)"/><g fill="#29295b"><path d="M222 219.7l.1-.9-1 .4zm22.8-12.2v1.1l-.2.2h.3v.7l.6-.7.6.1-.3.4h1.2v.1l.1-.1 1.5.1-.7-1.7 1.1-1.3h-2.4l.7 1.1-.3.4-.2-.6.1-.1h-.2l-.2-.6-.4.6h-.8l.3.6h-.1zm-16.9 2.8l.1 2 1.3-1.2 1.6 1.1-.3-1.7.5-.6-.8-.3v.8l-1 .6zm-1-1.6l-1.4.8 1.7 1.1zm-3.2 3.8l2.3-2.1-2.4-1.1zm21.4 2l-.1-.6.3-.3-.4-.1-.1-.6-.4.3-.6-.3v.8l-.5.4.5.1v.7l.7-.5zm8.9-2.2l-.5.4-.1-.1-1.4 1.2 1.8.4-.1-.4.5.2zm-17.8 3.7l-.3.3-.4-.8-.6.8.8.2-.9.9 1.8.3zm24.7-1.8l-.2-1-1.2 1 .7.2.3 1.2 1.3-.9zm-42.2-5.4l-2.1 1.8 2.6.6zm-16.1 5.1l-.8.1.5.8zm15.3 10.3l.9.1-.5-.8zm3.3-14.8l-.7.8 1.1.1zm15.9 4.5l-1.2.4 1 .8zm12-4.1l-2.6 1 2.2 1.6zm-14.4 4.3l.2-1 .6 1.3.8-1.7h-1.6l.1.3-1.2.4zm-4.5 4.2l-.5.8 1.1.1zm9.9-6.5l1.5-.3-1.1-1.5zm3.3-2.5l-.4 1.8 1.5-.4zm1.6-3l-2.4-.1 1.4 2zm-7.9 3.1l-.9 1.7-.3-.4-.7 1 1.3.2-.2-.4 2-.2zm4.8 3.1l1.3-.1-1-1.5-.6 1.1-1.3-.1 1 1.7zm-16.6-.2h1.9l-.8-1.6zm25.4 7.2l.3 1.1.6-.9zm11.8-5l.2-.3.3 1.7 1.4-.9-1.7-.9.3-.4.9.3-.2-1.4-1.3 1h.2l-.6.1zm-11.7-1.7l-.7-.8-.2 1.1zm8.6-6l.7.4.1-.7.9 1.2.7-1.2-1.6-.1-.7.2.1-.1h-1.2l.7.9zM228 220.4l.2-.7-.7.2zm.6-6.6l.1.7.5-.3zm-14.1-3.6l-.3.6h.8zm3.7-2.5h0l.6.8.1-.3.6.1-.3 1.2 1.2-.5-.7-.6h.3l-.2-1.3-.4.3.6-1.1h-2.9zm24 23l.3-.5h-.7z"/><path d="M236.2 227.5l.6-.3-.5-.4zm5.2-10.5l.3-1.4-1.2.6zm5-5.2l.1 1.1.8-.5zm-7.6-2.9l-.7.9h1zm26.8 4.3l-1.1-.1.3.9zm-25.3-.4l-1.5.9 1.2 1zm13.1 4.3l-.6.3-.1-.6-1.5 1.2 1.8.4-.1-.4.2.3zm7.5-7.6l.3 1.8 1.3-.9zm-41 1.6l-.8.5.9.6zm.8-3l-.5 1.1 1-.3zm-21.9 2.8l-1-.2.3 1zm13.2 4.9l.2-1-1 .3z"/><path d="M210.3 209.8l1.1-.5-.8-.7zm-2 .4l1.8-.7-1.3-1.2zm6.3 2.5l1.8-.7-1.3-1.1zm-18.5-4l1-.9.3.3-1.1 1.4h.1l-.3.3 1.4.4-.4-.5.8.2.1.7 1.3-.8.2.3-1.2.8 1.5.9.1-.9.4.4v.1l-.3.3h.2v.3l-.7.6 1.5.4-.2-.9.1-.1h-.1l.8.4v-.4l.1-.1v.3l.4-.2-.1.1.1.1v.2l-.4.8.4-.1v.2l.2-.2.4-.1-.1-.2.1-.1.4.3v-.5l.3.1-.1-.3.5.1-.2-.6.2-.1-.2-.1v-.1l1.2.2v.3l.7-.5-.6-.4v.4l-.4-1.3.1-.3.6.2-.3-.6-.3.4.3-1.1.9.2-1-1.9-1 1.3.6-1.6-2.5-.2v.1H199l.2.2h-.6v.1H196l.8.9-.8-.4.1 1.2zm4.6-.6h0zm1.5 1.3l-.6-.2.1-.4.5.6zm-1.2-.8h0zm-1.2-.4l-.5.1.4-.4.1.3zm0 2.3l.1-.8-.1.1.1-.4.5.1.6.5v.3l.2-.1.1.1-.4.4.2-.7-1.3.5zm.6 1.2h0l-.2-.1.2.1zm2.7-.4h0l.1.2-.1-.2zm.3.1h0zm.2-3.1l.5.1-.7.3.2-.4zm-.3.4l-.3.1 1.2 1.1-.4.4.2-.7-1.4.6.6.5v.1l-.1.2-.2-.5-.8.7-.3-.2v.4l-.4-1.3.1-.3.6.2-.2-.4.4-.3.4.5.4-1.6.2.5zm-1.3-2l.8 1.3-.7.1-.4-.7.3-.7zm-3 .3h0l.2 1.4-.7.1.5-1.5zm-.8 1.9l.2-.4.8 1.1-1.1-.4-.5-.9.6.6z"/><path d="M231.9 211l3 1.3v-2.9zm-33.7 5l-.3-.3 1.5.6v-1.2l.2-.7h-.2v-.7l-.3.2-.5-.5.9-.5.2.1-.1-.4.5-.1-.2.5h1l-.5-1-.1.2-.7-1.2-.8 1.6-.2-.1-.4-.5-.3.5h.4v.8l-.4-.5-.9 1.9 1-.2.1-.1h.1l-.1.1-.3.2v-.2l-.8.2.2.2-.3.2.6.3-.2.6h.9zm.6-1.8h0zm-.4.3h0zm15.5-6.2l-2.4 1.1 2.4 1.1zm1-.1l.6 1.4-.7 1.1 2.2-.1-1.1-1.8.3-.6.3.5.8-1.6h-1.6l.3.5h-.8l.7-1.1-3.3-.2 1.9 2.6zm7.5-.3v.9l.3-.2 1.5.3-.2-1.6-.6.4-.7-.3.5-.9-2.8-.2 1.5 2.4zm3.2.2l.8-.3-.4-.4.5-.8-2.9-.2 1.6 2.4zm2.7.3v.5l.8-.7.2.5.6-.8-1.1-.2.3.5-.5-.3.8-1.4-2.8-.2 1.5 2.4zm3.5-1l.6 1.2-.3.4 2.8.2-.6-1.5.8-1.2.7 1.7.1-.1.6 1.1 1.1-1.6.8 1 1-2 .9 1.4.8-1.6-1.9-.1.1.1h-2.7l.8 1.1-1.3.1.5-1.2h-1.5l.1-.1-2 .2.4.7-1.1 1.3.7-1.6h-1.1l.3-.6h-2.9l1.7 2.3zm11.2 1.7l-.9-2.3-1.9 2.2zm-17.5 7.9l-.3-.5-.2-.2v.1l-.4-.2.2-.2-1.5-.7.1 2 .9-.8.1.6.4-.3-.1.2zm-3-5.8l.1.4 1-.6-.7-.4-.1-.1-.1.1-.3-.2.1.4-.3.4zm-5.4 6.8l.4-.3 1 .7.1-.5v.1l.3-.9-.8.1.1.2-.7.2.7-.6-1.3-.6zm-11.7.4l-.5-.2.1-.5-.5.2h-.1l.2 1.1zm-7.5-1.3l-.5.3.3.3zm9.2-3.8h1l-.4-.7zm-5 6.3l-.8.1.6.8zm-1.4-6.1h1.1l-.4-.9zm-2.2 6l.9-.3-.8-.5v.5l-.4-.7-.6.8.9.1zm11.9-9.7l.1 1.3-.1.4 1-.2-.3-.5.7-.5zm-2.9-2.4l.5.4-1.3.7 1 .8.4-1.4.5.4.5-1.9.5.7-.2-.1v.5l.4-.2.8 1.2.4-.9.1 1 1.2-1.1-1-.3.5-.9-2.8-.1.1.1-1.2.6.4-.6-2 .1.8 1.6zm46.1 3.6l1.5-.3-1.1-1.4zm7.2 1.8l.4-.4.7.3v-.8l-.4.3-.9-.5zm-7.6-3l-.3-.9-.7.8zm-3.9-1l.4-.9.1.1.6.9.8-1.4.6.7-2.3 1.2 2.5 1.2v-2.2l.2.2 1-2 .6.9-.3.2.5.1.1.2.1-.1h.2l-.2.1.8.1h.2l1.8.1-.5-1.3.7 1 .1-.2.8-.2.1 2.4 2.2-1.1-2.1-1.6v-.6l-.8.9.6-1.2h-1.8l-.1-.1-.1.1-.9.1.2.5-.3.3-.1-.7.1-.2-1.8.1v-.1h-3l.7.9h-.6l-.1-.7-.7.6h-1.2zm-49.4 7l1.1-1-.6-.1.1-.2-.8-.1.1.2h-.2zm-.8 7l.7.4-.2-.8zm-.9-2.1v.8l.9-.5zm3.6-4.9h-1.2l.7.9zm4.9-.6l-.4.4-.6.3-.3-.2v.9l1.7.2zm-3.5 4.1l.1.8.8-.5-.8-.4.7-1.1-.9-.1.3-.5.7-.1-1-1.4.6-.2-1.7-.8-.3-.5-.3.7h.5v1.5l1-.5-.8 1.6.6-.1.2.2h-.3l.6 1.5z"/><path d="M210.1 216.3l.7-.6-.8-.5v1l-.8-.6-.2 1.3zm-6 3.3l-.7.6 1 .5zm8.1 3.8l.8-.9h-1.1zm-7.5 1.7l-.5.8.9-.2zm-1.2.3l-.6.2.5.5zm1.4 5.5l.7-.5-.7-.2zm-5.3-12.9l.4-.8.3.6.7-.7-1.1-.3.1.4-.8-.1zm4.4-2.8h0l.8.5.1-.9h.2l.1.3.2-.3h.2l-.1-.2.4-.8-1.1-.1.1.3-.2.1-.8-.3.1.5-.6.3.6.6zm.9-.6h0z"/><path d="M206.8 210.9h0l1.1-.6-1-.6.1-.2.4.1-.2-.3.1-.2h-.2l-.6-1-.8 1.2.4.1v.3l-.8.8.7.3-.1.9.9-.8zm-.2-1.5h0zm.1 14.7l.5.8.5-.7zm1.1-5.7v-.8l-.5.2.2-.5-.5.2.3.3-.1.1zm1.6-.8v.9l.9-.5zm-8.4 7.1l1.1-.1-.5-.8zm20.1-6l-1.1-.5.3 1.1zm-13-1.4l-.2 1.3 1.1-.6zm-3.1-5.7l-.4 2.3 2-1.1z"/><path d="M207.7 210.2l-.4 2.3 2-1zm-11.8.4l.3 2.3 1.6-1.6zm7.3 11.8l-.2-1.1-.3.3.2-.6-.9.1.5.7-.3.1zm8.1 2.4l.6.2-.3-.6.2-.2h-.3l-.1-.2-.1.2h-.2l-.3-.5-.4.8.5-.1v.1l-.1.2h.2l.1.4zm3.4-3.2l-.2-1-.8.5zm10.5.5l.6-.9-1.1.1zm-14.2 6.8v.6l.7-.3zm18.6-4.8l.8-.2-.4-.6zm-4.5 1.7l.1-.8-.6.2zm5.7 3.2l.6-.4-.7-.2zm-22.4-12.9l.4-2.4.2-.5-.6.1.3.4-1.8.6.1-.2-.9.1.3.3-.3.1zm3.2 4.2l.8-.3-.7-.5zm-.6-2.8l.8-.8-1-.1v.2l-.3-.8-.7.9 1.1.1v.3l-.7.3.8.7zm-6-.6l-.9.1.6.8zm4.7 5.5l-.1.8.8-.4zm-1.1 3.4l1.1-.6-.9-.7zm-5.7 3.3l1 .4-.2-1zm8.9 3.1l.7-.9h-1.1zm-3.3-11.9l-.8.9h1.1zm-1.1 6.3l-.1.8.9-.3zm13.1-3.5h-.6l.6.7.2-.5.3.2.1-1-1 .4zm-6.9-.1l1.2-1-1.2-.6zm18.7-10.4h-1.6l.8 1.7zm-2.1-3.7h-1.6l.8 1.7zm6.3 11.4l.8-.8.4.2v-.5l.2-.2-1.5-.7zm-9.6-5.1h0l-.2-.1.1 1.9 1.3-1.2-.4-.2.2-.3zm17 2.1l-1.4 1.2 1.7.5zm5.4-5l-1.4 1.2 1.7.5zm-5.6 18.2l1.7.3-.3-1.7zm-8.4-10.2l-1.4 1.4 1.8.3zm-5.4-.2l1.8.3-.4-1.7zm28.8-1.6l1.5.4-.2-1.4zm-39.3-4.8l.6-.2-.6-.7-.3.7-.1-.2-.2-1.2-.4.3-.2-1.3-1.4.9 1.2.7-.5.4.6.1-.3.3h.3l-.4.8.5-.2v.1l1.2-.4zm-3.5 1.3l-.6.2.1.1-1.2.9 1.4.5-.1-1.2.1.1zm7.6-1.4l-.7-.3-.1-.7-.5.5-.2-.1v.1l-.9-.5.1 1.6.3-.2.6.1v.8l.7-.6h.2v-.2zm-2.3 5.1l1.4-1.3-1.5-.7z"/><path d="M221.5 214.8v.3l-.2-.1.1.7v.4l.3.9.8-.8-.7-.1.7-.5-.2-.1.2-.1-1-.6zm-.1 1.2h0zm-1.4-2l-.7.8 1.1.1zm-6.8 3.4h-1l.6 1zm-1.3 17.4l.2-.7-.8.2zm-3.7-2.9l-.1.7.6-.4zm.3 6.1l.6.1-.2-.6zm-6.3-19.2l-.3.8 1-.2zm44.3-.3l1.2.2-.3-1.2zm-5.4-.9l-.9.1.5 1zm4 8.2l1.1-.3-.8-.7zm-10-7.2l1 .8.2-1.1zm12.3-3.3l-1.2.4 1 .7zm-13.4 2l-1.2.4 1 .7zm-7.1-2.8l.8-.8-.8-.4zm3.3-.3l-.9-.4.1 1.1zm-.8 8l-.5.8 1 .1zm10.5 7.1l1.1-.3-.8-1.1zm1-8.9l-1.1.6.6.6-.2.1.9.5.1-1-.6.3zm-7.3 7.3l.7-.8-.9-.3zm6-12.8l-.3 1.3 1.1-.2zm2.6-.6l-.3 1.3 1.1-.2zm12.1 5l-1.1.6.3.3-1.1.6 2 1 .1-2.2-.3.2zm-4.2 5.5l.7-.9-.9-.2zm4-12.6l.5.9.5-1zm-8.1 2.4l.6-1-1 .1zm-9 9.7l.6-.2-.5-.7zm-4.1-1l.4-.6-.6-.1zm-8.9-2.9l-.4.7h.8zm2.8 4.1l.3-.7-.6.3zm1.4-6.1l-.6-.4v.7zm-16.1 6.9l-.4.7.8.1zm5.2 1.9l-.5.7.7.1.2.3.2-.7-.4.2zm1.2-4.7l.5-.4-.5-.3zm-6.5-6l-.4-.8-.4.6zm2.1 3.6l.3-.7-.7.2zm2.9-7.8l.1.7.5-.4zm-7.2-.4l.1.6.5-.2zm12.2 23.5l.6-.5-.7-.3zm7.1-2.8h.6l-.3-.7zm-4.3-4.7l.2-.6-.7.1zm15.3 7.4l.3-.6h-.6zm-4.9-3.8l.6-.3-.4-.4zm24.8-15.4l-.9-.4.1 1zm-9.2-2.6h1.1l-.3-.9zm-5.2 3.2l.2.9h-1.1l.6 1.2.5-1.1v.1l.7-.6zm-7.5-3l-.4.5-.4-.2.1 2 1.3-1.3-.3-.2zm25.9 4.7l.8-.8-1.1-.1zm.7-3.8l.3 1 .8-.8zm0-2.7l.7.5.2-.8zm.5-2.9l-1.4.3 1.2 1zm-9.3 6.4l-.1.1-.1-.1-.1.2-.8.4.8.7.2-.6.2.1-.2-.5zm-8.7 8.7l.3-1.9-1.5.9zm5.3-2.8l-.9.5.3.3.2.8.9-.7-.6-.2zm-2.2-1.2l-1 .5.2.2-.5.3.7.6.1-.7.2.2zm12-2.2l-1.1.1.5.8.2-.3.3 1.8 1.4-1-1.7-.8zm-1.2 3.1h.7l-.2-.5zm-14.6 6.8l.3-1.5-1.3.7zm-4.1-7.9h1.2l-.4-1zm-22.2-4l-.4 1.3 1.1-.5zm-8.1 5.7l.1-.1.2.1v-.7l.1-.2h-.1v-.2l-.4.2-.3.1v.1h-.2l.5.4zm9.8 2.6l.8-.8-1-.1zm2-10.6l1.2-.4-.8-.9zm-5.1 2.2l-.8.5.9.6zm7 3.8l.3 1 .8-.8zm-1.6-1.5l-.9.9.9.4zm3.8-4.2l.6-.8-1.1-.2zm-7.4 7.1l.8-.7-1.1-.2zm-9.7-2.3l-1.1.2.8.7zm-3.9 5.1l-.4-.8-.5.6zm1.1-3.7l-.1-.1.4.1-.3-.7.3-.2-1-.6.2.9-.4.6zm5.4-6.8l.2.6-.9-.1h.1l-.2-.3v-.2l-.1.1v-.1l-.4-.4.5-.4-1.1-.5v-.8l-1.6.8 1.5.8v-.1l.1.8.5-.4-.3.5-.3.2.2.1-.1.2.2-.1v.1h.1l.5.3v-.3l.2.1.4 1.4.8-1.3.2.6.8-1.4zm-.3 6.8l.2.9.8-.6zm12.3-5.9l-.2.5-.1-1.2-.9 1 .9.4-.2.6 1.2-.4zm8.2 2.4l1.2-.4-.7-.9zm-13.9 1.8v-1.1l-.8.4zm6.9 4.2l.8-.7-.9-.3zm35.4 2.6l.6-.6-.8-.3zm-28.6-8.1v-2.5l-1.2.5-.1-.7-1.4 1.4h.2l-.1.1zm23.8-5.3v.1l-.5-.7h.4l-.7-1 1.1-.3-1-1.2-.2 1.3-.4-.6-1.1 2 1.7-.2-.3 1.3 1-.2v2.8l2.7-1.3zm-7.2 4.7l.2.1-.4.2-.5-.7-.3 1.1.9-.2.5.5.1-.6.2.2.2-.7v-.1l.1-.3h-.1v-2.1l-2.5 1.3 2.1 1zm12.9-8.3l.1.2h-.5l-.1-.8-.8.8.9.2.3.7.3-.5.2.3.4-.6.3-.3h-.1l.9-1.9h-2.8l1.4 1.9zm-56.5 17.1v-.1l-.6.2.3.3-.6.5 1.2.3zm-4.2-1.1l.5 1 .4-1zm1.9 9.1l1.1-.3-.9-.7zm-3.4-14.6l.3-.1-1.1-1-.4 1.6.2-.1.4 1.2 1-.9.4-.4-.8-.3zm-.8.3l.5-.2.2.4-.7-.2zm.7 3.9l.7.5.1-2-.7.6-.1-1 .1.2.8-.9h-1.1v.1l-1.1.6 1.4 1-.7.6.3.2v.3z"/></g><g fill="#303060"><path d="M295.1 315.4l-.6-.9-.3 1.1zm.9-5.6l-1.6.5 1.4.8zm7.9 19.5l-1.9.5 1.6 1.1zm.6-9l-.6 1.8 1.6-.6.6.3.1-.9-.8.2-.8-.8.3-1.5-1.9.5zm.5-4.1l-.6 1.9 1.8-.7zm-8.5-21.6l-.5 1.9.1-.1v.1l.9-.1-.2-.3.9-.5zm7 22.5l.2-1.6-1.8.6zm1.7 18.1l-.1 1.8 1.6-.6zm2.2 8.5v1.8l1.6-.7zm-7.4-16.1l.1 1.8 1.5-.7zm-13.9-45v-.2l-.2.1h-.1v.1l-.7.4.8.5v.8l1.5-.8zm14.5 40.7l.1 1.8 1.5-.7zm9.5 28.8l-1.3-1v1.6zm4.4-.5v1.5l1.2-.5-.9 1.2-.3-.2v1.6l1.3-.6-.3-.2.7.2-1.6 2.1 2.4.6-1.1-5-.2.2zm3.8 17.2l.1 1.5 1.2-.5-1 1.2-.2-.2v1.6l1.3-.6-.3-.2.7.2-1.7 2.1 2.5.6-1.1-5-.2.2zm-16.1-60.5l.1 1.6 1.2-.7zm-7.9-13.5l.9.1-.3-.8zm6.7 19l-1.8.6 1.6 1zm-11.5-.7l-.7-.3.1.9zm14-.5l.8-.6-1-.5zm-3.7-5.6l-.7.8h1.1zm4.1 22.1l-.7-1.1-.5 1.1zm4.6 9.1l-.5 1.1 1.2-.1zm-4.9-12.7l-.5 1.2h1.2zm-6.8-3l.1 1.1.8-.7zm9.5 5.1l-.9-.3.1 1 .3-.2.5 1.5 1.2-1.3-1.5-.4zm.8 4.9l.9-1h-1.4zm1.2 2.5l.9-1.1-1.4.1zm3.5-.5l-.4-1.9-1.4 1.4zm-5 .2l1.3-1.3-1.9-.6zm-4.6-18l.6 1.9 1.3-1.2zm-.5-8l1.2-1.3-1.8-.5z"/><path d="M298.2 300.2l-.3.1.7.4.1-.7-.3.1 1-1.1-1.8-.6zm3.4 43.6l-1 .5 1 .4zm8.3 9.7l-.7.7.4.1-1.6.7 1.2 1.1.5-1.8.6.2zm-1.1-12.1l-1.1.1.4.8zm6.2 8.2l-.3.7h.8l-1 1.2 1.3.4-.3-1.6-.4-.7.2.1-.3-1.3-.8 1zm-17.2-31.3l.5-.7.2.2.2-1.1-1 .5.5.4-.6-.1zm-2.1 2.9l.2-.4h-1.1l.5.6-.1.1.2.1h.5zm5.8-.2l.2-.6-.7.3zm.1-15.3l-.7-.1.2.8zm-2.8 3.4l-.2.6h.7zm5.6-.3h0l-.7.8h.4v.6h-1.2l.8 1.1.4-.9.1.4 1.2-.7-.4-.2 1.2.2-.7-2.8zm-4.6-9.2l.5-.5-.6-.1zm-1.7 2.5l-.3.4h.6zm-9.4 35.8l.6.2-.1-.7zm2.2-6.1l.3-.5h-.7zm16.2 6.3l.7.6.3-1zm1-9l.2 1 .8-.5zm3 26.7l-.8.5.9.6zm3 .3l-.9.5 1 .6zm-9.6-25.5l-.7 1.5 2-.1zm-.6 14.4l-.5.8h1.1zm.6-2.5l-.1.2-.5-.4-.3.8.6-.1-.2.3h1.2zm8.1 17.2l.5-1.8-1.7.8zm4.6 17.4l.5-1.8-1.7.7zm2.8 7.6l.5-1.8-1.7.7zm-4.5-21.5l.5-1.9-1.7.8zm2 9.6l.5-1.9-1.7.8zm2.7 14.4l.5-1.8-1.7.8zm-.1 4.1l.4-1.9-1.7.8zm-6.5-32.2l1.2 1 .5-1.8zm-.3-5.9l.4-1.8-1.7.8zm-11.7-42.6l-.4 1 1-.3z"/><path d="M300.3 320.1l-.1-1-.8.5zm-.2-2.6l1.2-.5-1.1-.6zm7.1 1.6l-.9.7 1 .3zm-1.9-8l-1.2-.2.6 1zm-6.5-5.1l.2.5.7-.7-.3-.1-.6-.6-.1.4h-.1v.1l-.1.6zm-2.7-11.5l1.1-.2-.8-1.1zm1.3 10.8l-.3 1 1-.1zm-5.6-.9l.4-.4.1.1.1-.2v-.1l.1-.8-1 .5.2.2zm9-2.9l.8 1 .5-1.1zm-4.9 3.9l-.8.6 1 .5zm23.2 60.7l-.3-.9-.6.6zm-23.2-80.5l1.5.1-1.2 1 .9.2-.8.3.9.6.1-.9 1.4.3-.3-1.5-.1-.3-.1-.4-.1.1-.5-1.4zm1.4 4l1.7.1-1.3 1.5 2.6.1-1.3-4.6zm2.7 3l.1-.9-1.5.6 1.2.7-.2.4-1.7-.6.2 1.6-.6.3 1.2 1-.4.6 1.7-.1-.2.3-.7 1.7 1.9-.2.2 1 1.4-1.6-1.8-.6.2 1-1-1.1 2.3.1-.7-2.5v.1l-.9-2.6-.7.8zm-1.3 1.8l.7-.7-.4.8h.4l-.7 1.1v-1.2zm1.6 1.3l-.7-1.3 1.6.1-.9 1.2zm4 30.3l2.4-.6-1.9-2.2zm-9-26.9l.2.2v-.2l.2-.1-.2-.2-.1-.9-.4.3-.5-.5-.2.8-.1 1zm4.9 6.3l1.5-.4-1.2-1.4zm-1.6-3.6l-.3 1.7 1.5-.4zm4.9 4.3l-1.2.9 1.5.3-.4.3 1.5.3-.3-1.3-.4.3-.2-.6 1.1.2-.6-2.7-1.8 2.2zm3.2 7.2l-.5-2.8-1.9 2.1.9.3-.9.3.3.2.1 1.6 1.6-.7-.7-.4.2-.8zm-1.6 2.5l.7.2.5.8.4-.5.8.2-1.8 2.1.3.1-.5.2.9.5.1-.5 1.6.4-.6-2.8-.5-2.8zm2.5 6.1l-1.1.9 1.9.3-.2-1.1.6.2-.6-2.8-1.8 2.1zm-1.2 1.1l.5 2.7 1.3-.9 1.3.5-1.4 1.2h.1l-1 .9 1.9.6-.9 1.1 2.3.5-1.2 1.2 1.8.5-.4-1.9-.1.1-.6-2.6-.8 1-.5-1.3 1.3.2-.3-1.5.1.1-.6-1.9-.7.6zm2.7 10.9l2-1.4-2.5-1.3zm2.4 2.4l-.2-.7-.5.4-.1-.1.2-.7-1.1.3-.2-.2v.2l-.7.2.8.5.1.6-.4-.3.2 1.2-.1.1h.1l.3 1.6 1.2-.9 1 .5-.6.4-.2-.2v.4l-.5.5.5.1v.1l-.7.7 1.5.6-.5.7-1.8-2-.5 2.8 2.1-.6-.2.2 2.2.5-.7.8-.3-.2v.5l-.1.2h.1v.2l-.2-.1.2.9v.1l.4 1.8 1.2-.8-.9 1 .5.1.4.7-2.3.7 1.6 1.9 1.1-2.4.6-.2-1.2-.7 1 .3-.3-1.8h.1l-.2-.1-.3-.9-.5.4-.4-.3.7-.3h.2l-.4-1.7-.7-2.9-.7.8-.1-.5.7-.3-.4-.2-.3-1.2.5.2-.6-2.3-.7.7-.4-.2.5-.3h.2l-.1-.1.5-.3zm9 39.3l-.3-.8-.4.4h-.1l.2-.8-1.1.3-.2-.2v.2l-.7.2.8.5.1.6-.5-.3.2 1.2-.1.1h.2l.2 1.6 1.2-.9 1 .5-.5.4-.3-.1v.3l-.5.5.5.1v.1l-.7.7 1.5.6-.6.7-1.7-2-.6 2.7 2.1-.4-.1.1 2.2.6-.8.8-.2-.2-.1.5-.1.2h.1v.2l-.1-.1.1.8v.2l.4 1.8 1.1-.8-.8.9.5.2.3.7-2.2.6 1.5 2 1.1-2.4.6-.2-1.2-.7 1.1.3-.4-1.8h.1l-.1-.1-.3-.9-.5.3-.4-.3.7-.2h.2l-.4-1.7-.6-2.9-.7.8-.1-.5.7-.3-.4-.3-.2-1.1.4.2-.5-2.3-.7.7-.4-.3.4-.3.2.1v-.2l.5-.3zm-1.4-9.3l-1.3 1.7 1.9.4zm-2.5-.5l-.4 2.2 1.8-.5zm-13.8-52.4v.4l-.4.2.9.7.2-.7.2-.1-.2-.1.1-.4-.4.2zm-6.9-2.3l-.7.7 1 .1zm-13.8-59.5l.2-1.4-1.5.5zm15.1 45.6l-.8-.7-.3 1.1 1.1-.4.4.4v.1l1.6-.2-1.1-1.1-.5 1.2.2-.7zm-6.8-6.2h.6l-.3-.5zm-6.4-31.7l.6-1-1.4-.1zm-4.7-6.4l-.4 1.1 1-.4zm8.4 7.7l-.9.3.6.4-.3 1 1.8-.3-1.3-1.1zm-7.2 3.3l.1 1 .6-.6zm8.2 31.4l-.2-1.1-.1.1-.8-.9-.7 1.5 1-.3-.2.2zm7.5 4.1l.4.9.5-.6zm-7-1.8l-.6.8h1zm-1.7-15.3l2.4 1.6-.3-2.8zm2.5-4.5l-.1 1.1-.7.6 1 .2-.2-.8.9-.3zm.1-5.7l-.8.5.9.3zm-5.5 5.3h-.3l.5-.6-.9-.2.4.8-.5-.1.3.9zm1.1-4.7l-.7 1.1 1.3-.1zm-1 2.3l-.4-1.4-1.3 1.1zm3.6-2.1l-.7.6.7.3zm2.6-3.3l-.8 1.2 2.8-.1-1.1-2.6z"/><path d="M285.2 269.2l1.9-.4-1.5-1.3-.5 1.5-.4.7.7-.1zm9.9 23.2l.9-.5-1-.6zm-5.8.5l.3-.8h-.4l.6-.5-.9-.4.1.9h-.2zm-5.2-1.7l-.9-.5.1.9zm1.9-21.1l-1.2 1.7 2-.1zm4.8.9l.9 1.9.9-1.8zm1.6 4.2l1.9 1-.4-2zm-1.7-2.9l-.6 1.8 1.3-.2 2.7.2-.8-2.5-1.5 1.7zm1.7 4.7l1.5-.3-1.5-1.3-.4 1.3-.2-.1-.5 1.7.8-.1.7 1.1-.6 1.2 2.1.1-.9-1.3.7-1.1-1.7-.1 1-.2-.1-.1 1.8.3-.8 1.2 1.3.2-.4-1.4.5.1-.8-2.2-1.8 1.7zm-5-4.5l-.8-.7v1.3l.4-.2.5.5.1-.4 1.6-.3-1.5-1.3zm.8 2.8l2.1-.4-1.6-1.3zm-.7 4l.9-1.9h-1.8zm2.2-14.9l-.7-1.7-1.1 1.2zm-1.6-4.5l-.7-1.7-1.2 1.2zm-2.3-3.4l-1.3-1.3-.5 1.5 1.7-.2.3 1 .7-.7-1-.3zm-7.4-10.8l.7-1.4h-1.8l.6 1.2-.4 1.3 1.8-.3zm18.4 45.6l.6-1.4H296zm-5.3-11.1l-.2 1.9.6-.3-.1.8v.2l.1-.1 1.3 1.5h-.8l.8 1.5.6-1.5h-.6l.3-2-1.3.3.4-.2-.7-.5 1.4-.6zm-1.2-.2l-.7.2 1.2 1v-.9l1.4-.5-1.8-1.1zm3.8 1.2l-.2 1.8 1.9-.8-.3 1.5-.5-.3-.1 1.8 1.9-.8-1.1-.6 1.8-.5-1.6-1.8-.1.6-1.4-.7 2.5.1-.8-2.1-1.7 1.9zm6.5 18.2l-.5 1.3 1.5-.1zm.3 2.2l-1.3.5 1.2 1zM297 291l-.7 1.6 2.1-.1zm-10.9-16.3l1.5.2v.1l-.4.1.5.8.6-1h-.2l-.9-1.6zm16 25.1l-.6 1.3 2-.1-.6.7.1-.2-.5.2.3.3-.9 1.1.9.2-.9.3 1.3.8.2-1 .9.3-.7-2.8-.1.1-.8-1 .6.2-.6-1.9-1.3 1.3zm8.4 46.2l.9-1h-1.3zm1.7 1.5h-1.1l-.3-.2.4-.4-1.9-.5.7 1.9.4-.5v.1l.6-.3.4.9zm-6.5-.7l-.6 1 1.4-.1zm5.2 5.7l.3-1-1 .4zm.3-9.8l.2 1.1.7-.5zm6.1 16.9l-1 1.2 1.6.4-1.2 1.4h.1l-.5 2.8 2.4-.6-1.9-2.2 1.5.4-.4-1.8-.5-1.8-.4-2-1.2 1.6-.6-.1.2.8.4-.4zm-23.8-73.9l.2.2-.4.5.9.1.7.7-1.1 1.2 1.5.1-.1.3-.6.3 1 .8-.5.2.4.4.1-.6.2.2.1-1.1 1.3-.1-1.4-1.5-.5 1.1-.4-1.3.1-.6.7-.5-.6-.3.1-.5zm-7.8-25.5l.3-1.4-1.2.3zm6.5 29l.3-1.1.3-.5-.5-.2.1.5-1.1.3zm-3.2-4.1l-.1 1.4h.1l1-.5-.2-.1.3-.1zm-.6-1.7l-.1 1 .8-.5zm4.8 3.4l-.1 1.1.8-.6zm-4.6-11.4l1 1.8.7-1.6.2.9.6-.6-.8-.3.1-.3zm-7.3-21.7l-1.1.4.7.7zm-6.7 11.9l.1.9.7-.4zm-1.2-4.2l.8.1-.2-.6zm-3.6 5.3l.3-.7h-.7zm15.5 14.4l-.1-1.2-.8.8zm2.6 10l1.3-1.1-1.8-.6zm1.1-21.9h-1.1l.9 1.8.9-1.8 1.1-.3-1.6-1zm-3.4 16.1l-.3.2.2-.4h-.7l.5-.1-.4-.5-.4.7h.2l.3.6-.8.4 1.5.5zm-5-15.8l-.7.7 1 .4zm-5.1-5.4l.4-.6-.9-.2z"/><path d="M272.4 260l.8-.1-.4-.6zm-1.3 5.3l-.6.2.6.6zm12.6-14.2l-.5.8.9-.1zm-3.3 7.9l.1-.9-.8.2zm2.7-3.1l-1.1-.4.3 1zm-3.6-5h.9l-.4-.8zm-1.8 5.4l1.6-.4-.9-1.2zm8.5-1l-.7-1.9-1.3 1.3zm-2.5-6.3l-1.3 1.3 2 .6zm4.4 38.8l1.1.8-.1-1.4zm-2.2 1.1l-1 .6.9.5zM277 266l.8.1-.3-.9zm9.6 25.5l-.2.8.7-.4zm3.5-5.7h1l-.1-.2.8-.5-.9-.6.1 1-.3-.5zm-2.5 6.3l-.8.2.7.7zm-1.3-4l-.3-1.2-.7.9zm-11.1-32.2l.6-.4-.5-.4zm6.4-2.9l.1 1.1.9-.5zm-.8-5.7l-.7.6 1 .2zm-4.5 6.2h-.9l.5.8zm19.1 47.5l-1.9-.7.5 1.8zm-9.3-3.5l-.3 1.5 1.9-.6zm5.4-1.3l-1.3.9 1.5.4zm4.1 8.5l.3-1.1-1.3.3zm-6.1-5l-.1 1.1.9-.5zm1 8.9l-.7.6 1.1.4zm-9-35.9l-.3.7.7-.2zm-1.5 6l-.6.3.6.5zm5 24.7l.5-.7-1-.1zm-3.3-4l.8-.2-.4-.5zm-1 6.2v-.8l-.6.3zm14.5-10.8l.4 1 .7-.7zm-2.4-5l-.2-.3-.5 2.8 2.4-.6-.2-.3.5-1h-1.3l.1.2-.2-.1-.2-.3h.2l-.4-.7-.2.3zm1 1l.4.5-.4-.5zm-3.7 5.9l-.8.3.7.6zm-6.3-36l-.5-.7-.5.8zm8 32.2l-.9.6.8.5zm1.8 3.5l.4-1.8.4-.4-.7-.2.1.5-1.5.3zm-1.6 3.5l-.9.6.8.5zm-4.6 5.3l-.3-.9-.5.8zm11.8-3.2l.7-.7-1.1-.4zm-6.9-3.2l-.2-.6-.1-.1-.1-.3-.1.1-.1-.3-.3.6h.3l-.4.5zm-9.3-32.1l.4 1.8 1.4-1zm3.7-2.4l-.3 1.4-.6-.2.2-.9-1.2.3.6.5.3 1 .4-.4-.3.9 1-.1-.6-.9.2-.1 1.9-.5zm-1.1-2.3l-.1-1.3-1.4.8zm-6.1 6l.9.9.3-1.1-.7.1.2-.9-.8.2.6.7zm-5.1-4.2l-.1 1.1.9-.5zm.2 9.5l1 .4-.3-1zm9.2 7.9l-1.1-.4.4 1.1zm-3.2-5.6l-.5.8.9-.1zm-3.2 7.9l.2-.9-.8.3zm5.5 10.5l.7-.7-1.1-.4zm-2.7-6.3l-.5.8.9-.1zm-2.9 8.1l.1-.9-.8.2zm-.9-38l.3.2.2-.9-.9.2.3.3-.5.3v-.9l-.7.6.7.3-.3.2.8.6zm14.3 9.6l-.7-1.6-1.3 1.6zm-12.5-4.6l-.1-1.1-.9.5 1 .6-.2.1 1.1.9v-1.4zm-2.2 2.3l.1-1.1-1 .6zm-5.1 4l.8.2-.3-.9zm12.5-3.1l-1.1-.4.3 1.1zm-3-5.8l-.5.6-.2-.1-.1 1.1.9-.6-.4-.2h.6zm-3.3 7l-.3.1.4-.2-.5-.5-.2.7-.2.1.6.7zm18.3 46.1l-1 .5.8.6zm4.2-2.5l.5-.5 1.6-.8-1.1-1.1-.5 1.8-.8-.4zm-7.3-3l-.6.7h1z"/><path d="M293.9 303.2h-.2v-.4l-.2.1-.5-.4-.2.8.2-.1.2.1-.6.1 1 .9zm-5.9-3.6h.5l-.3-.8-.5.7-.2-.2-.1 1.1.9-.6zm.9 9.5l-.3-.6.3-.4-.9-.2.3.4-.5.5zm-3.9-45.5l1.9-.4-1.4-1.1zm12.9 50.4v-.1l-.8.6.9.5-.1-1 .9.8.3-1.1zm-5.2-4.1l-.1 1 .9-.5zm1 8.8l-.7.6 1.1.4zm-8.4-13.9l.7-.3-.4-.5zm-1.7 5.6l.6.4v-.7zm9 14.4l.5-.6-.9-.2zm-2.7-4.7l-.3.6.7-.1zm-1.6 6.7v-.7l-.6.2zm8.1-26.6l-.5.8.9-.1zm-2.9 7.1l-.8.2.7.7zm1.8-1.7l.7-.7-1.1-.3zm-2.6-6.3l-.5.8 1-.1zm-3.7 7.4l.6.7.2-.9zm1.3 7.7l-.5.8.8.1zm-3.1-6.9l.3-1.1-1.3.2zm-6.1-5l-.1 1.2.9-.6zm.3 9.6l1.1.3-.4-1zm8.8-7.9l.3 1.1.8-.7zm-5.4 2.6l.2-.9-.8.2zm14.9 40.5l-.7-.3.1 1zm5.1-9.2l1 .9.3-1.1zm-5.2-3l.9-.6-.8-.5zm.4 8.4l1.1.4-.4-1.1zm-4.3-6.5l-1-.1.5.7zm-3.7-3.3l.7-.2-.4-.5zm-1 6.1v-.8l-.7.3zm11.1-4.5l.1-1.2-.9.6zm-4.8 3.3l-.5.7.8.2zm6.5-.1l.3-1.1-1.3.3zm-5.6-4.6h.6l-.4-.8-.5.6-.2-.1-.1 1.1.9-.6zm.1 8.3l.1-.1-.7-.3.2.8.4-.4.2.4-.5.5 1.1.3-.3-.6.3-.4zm-2.8-3.2l.7-.2-.4-.5zm-1.1 5.3l-.6.3.6.5zm6.1 10.6l-.4-.6-.3.7zm-1.9 5.4l-.7.3.6.5zm7.6-21.1l-1.1-.3.4 1zm-2.8-4.9l-.3-.4h.2l-.8-.9-.6.9h.8l-.3.5zm-3.4 6.4l-.8.3.7.6zm.5 8l-.5.8.8.1zm-2.8-8l-1.3.2 1 .9zm-6.4-3.9l-.1 1.1.9-.6zm.3 9.5l1.1.4-.4-1zm8.8-7.8l.3 1 .8-.6zm-5.3 2.6l.1-1-.8.2zm6 13.4l-.4.8h.8zm-3.6 11.8l1.1-.7-1.1-.5zm6.4 1.4l.9.3-.3-1.1zm-3.4-8.7l.6.9.5-.9zm7.5 4.1l-.3.8 1-.1zm4.2 2.8l-.6.4.6.4zm-.8-6.1l.2.7.5-.4zm-9.1 8.8l.7-.8-.9-.3zm2.9-6.5l.5.8.3-.9zm-5.7 4l1.2-.7-1.2-.5zm7.1.6l-.7.8.4.1-.6.3.6.5.3-.7.2.1zm-3-7.9h-.5l.2-.3-.9-.2.3.5h-.2l.4.6-.1.5.9-.2-.4-.3zm3.6 3.9l.1-.8-.7.4zm-1 10l.1-.8-.6.4zm5 1.9v-.8l-.6.4zm1.4 10.2l.1-.8-.7.4zm-5.4-28.7l-.8-.3.3.7zm-4.4-3.9l-.3.7.9-.1zm4.2 2.8l-.7.4.6.4zm-.1-5.9l-.7-.2.2.7zm1.1 22.2l1-.2-.7-.6zm8.2 9.1l1-.1-.7-.7zm-.1 6.2l.9-.1-.7-.7zm-8-4.3l.3-.9-.8.3zm5.6 1.7l.3-.9-.9.3zm-1.2-3.3l.9-.1-.6-.6zm1.8 9.9l.9-.1-.6-.6zm-1.8-16.5v-.8l-.6.4zm-.1-6.7l-.7-.2.3.7zm-18.5-21.6l.9-.1-.6-.7zm3.8 2.6l.5.4.1-.8zm-.2 15.7l-.5.9h1.2zm4.4 5.3l.2-1-.9.4zm.6-7.7l.6-.5-.8-.4zm-3.5-8.2l.5.7.3-.8zm5.7 7.5l1.1-.6-1.2-.5zm7 .7l-.7.8 1 .3zm3.6 5.8l-.7.9 1 .2zm1.4 1.7l-.7.9.9.2zm-1.1 4.1l.2 1.1.8-.5zm-1.3-9.3l.1 1.1.8-.5zm-5.5-10.2h-1.2l.7.8zm-6.7 9.2l-.5.9h1.2zm5.8-2.6l-.8-.6.1 1zm-18.2-33.3l.1 1.1 1.1-.6zm7.1 1.7l-.7.9.9.2zm-4.1-7.8l.7.9.4-.9zm2.6 8.7l-1-.2.3 1.1zm-3.5-1.7l1.1-.6-1.2-.5zm-2.1-1.9l-.5.9h1.2zm4.6 4.3l-.9.4.7.5zm.3-7.7l.1.9.7-.4zm-.2 2.3l-.5.9h1.2zm4.2 5.4l.2-.7h.3l-.3-1-.6.8.4.1-.6.2zm.8-7.7l.8-.4-.8-.5zM278 247.9l-.2.3v-.2l-.4.3v-.1l-1.2 1.7 2-.1-.5-.9h.2l.4.1zm5.9 16v-1.1l-.9.7zm3.7 15.2l.9.5-.1-1.2zm-3-9.5l-1.2.6 1 .8zm-13.5-42.8l.2-1.4-1.5.6zm2 7.7l.6-1-1.3-.1zm-4.1-5.6l-.7-.6-.3 1zm7.9 6.8l-.9.4.6.3-.3 1 1.8-.2-1.3-1.2zm-6.4 3.8l-.7-.3.1.9zm9.8 5.1l-.7 1.2 2.7-.1-1.1-2.5zm-1.3-5.1l-.8-1.7-1 1.2zm-1.8-4.5l-.7-1.7-1.1 1.2zm-2.3-3.4l-1.3-1.2-.5 1.5 1.7-.3.4 1.1.7-.7zm-8-10.9l-.5 1.5 1.8-.4zm8 14.7l.3-1.4-1.2.3zm0 7.3l-.4 1.5-.4.7.7-.2-.2-.3 1.9-.4zm-4.6-13.7l-1 .4.7.7zm-6.4 12l.1.9.7-.4zm-1.3-4.2l.8.2-.2-.7zm-3.5 5.4l.3-.7h-.7zm19.5 1.1l-1.6-1-.3 1.6zm-9.3 2.2l1.1.3-.4-1zm-4.1-6.6l-.9-.2.4.8zm-3.6-3.4l.8-.2-.5-.5zm-1.2 5.3l-.6.3.6.5zm11.7-13.7l1-.1-.4-.7zm-2.6 7.2l.2-.9-.8.2zm2.7-3.2l-1.1-.4.4 1.1zm-3.2-5.7l-.6.8 1-.1zm-3.2 8l.2-.9-.8.2.2.3-.4.3-.1-.9-.7.6.8.3-.4.2.9.6.1-.9zm1-1.8l1.6-.4-1-1.1zm8.5-1.1l-.8-1.9-1.2 1.3zm-2.6-6.2l-1.3 1.3 2 .5zm-6.4 17l.8.2-.2-.9zm-1.9-10.8l-.1.8.6-.4zm6.4-1.1l.9-.6-1-.6zm-1.1-6.8l-.6.6.9.2zm-4.4 6.2l-.9.1.5.8zm7.2 6.4l-.5.8.9-.1zm2.3 14.7l-1.8-.7.5 1.8zm.9-9l-.6-.2.3-.9-1.4.2.6.6.4 1 .5-.4-.3.9.9-.2-.6-.8.2-.2v.1l1.9-.6-1.6-.9zm-.9-3.7l-.1-1.4-1.4.9zm-5 6.9l.3-1-.7.1.1-.9-.8.2.7.7-.6.1zm-6.1-4.9l-.1 1.2.9-.6zm.4 9.6l1.1.3-.5-1zm16-6.4l-.8-1.6-1.2 1.7zm-12.6-4.3l-.2-1-.8.5 1 .5-.3.2 1.2.8-.1-1.4zm-2.2 2.4l.1-1.1-1 .6zm-5.1 4.1l.9.2-.3-.9zm5.8-2.6l-.1.7-.2.1.6.7.2-.9h-.3l.4-.2zm5.6-1.2l.4 1.1.7-.7zm-2.1-5.3l-.4.6-.2-.1-.1 1.1.9-.6-.3-.2h.6zm4.8 3.3l1.9-.5-1.5-1zm-7.4-15.5l-.6.8 1 .2zm6.2 14.7l-.8.7.9.4zm.9 6.7l-1.2.7 1 .8z"/></g><g fill="#848dd3"><path d="M278.4 365.6l.3-1-.9.1zM277 369l-.2 1.4 1.5-.6zm-1.3 7.3l-.2 1.4 1.6-.6zm-4.8-25.3l-1.6-1-.3 1.6zm-1.9 8.5l-.2 1.6 1.9-.7zm-.4 4.1l.5-1.9-1.7.9zm5.1 6.1l-.1-.4-.7.5.3.1-1.2.6 1.1 1.1.5-1.5.2.1-.1-.4zm-4.9-10.2l.5-1.9-1.7.9zm1.4 3.4l-.2 1.6 1.8-.6zm-2.7-19.2l-1.6.7 1.6 1.2zm-3.1-9.7l-1.6.7 1.7 1.1zm8.4 17.4l-1.6.8 1.7 1zm-1.7 4.5l1.7 1.1-.1-1.8zm-11.1-18h.1l-.3-1h-.1l-.1-.7-1.4 1zm-3.4-11.4l-.3-1.6-1.2.8.2.1h-.8l.9 2.1.8-1.6zm5.9.4l-1.2.6 1.3.9zm-5.7.1l-1.2.6 1.3.9zm14.6 44.7v-1.6l-1.2.6zm.7-7l-.2 1.6 1.8-.7zm12.1 2.4l-.1-1-.6.7zm-.8 29.8l-.1-1-.6.7zm2.8-1.9l-.1-.9-.7.6zm-7.2-2.7l-.1-1.1-.8.8zm-.1 7.8l-.1-1.1-.8.8zm1.1-4.4l-.1-1.2-.8.8zm1.8-5l-1.1-.2.5 1zm.6-4.2l-1.2-.3.5 1.1zm-5 4.2l-.2-1.2-.8.8zm2.8-2.8l-.2-1.2-.8.8zm-9.8-22.6l-.2.7-.1.2h.1l-.1.3.4-.1.5.2-.1-.4.4-.2zm-.1 2.1l-.8.6 1 .5zm2.6 4.8l.3.9.8-.9zm-3.9-20.4l.7 1.1.5-1.2zm-4.7-9l.4-1.2-1.2.2zm5.5 11.3l-1.2.1.8 1.1zm6.3 2.1l-.8.8.9.3zm-8.6-2.6l-.1-.8h.1l-.1-.1v-.1l-.6-1.7-1.2 1.4 1.6.4-.6.6zm-1.9-5.3l-.9 1h1.3zm-.8-1.5l-.5-1-.8 1.1zm-1.9 0l-1.7-.5.4 1.9zm2.9-.7l-1.2 1.3 1.9.5zm3.8 16.4l1.9.6-.6-1.9zm2.4 8.8l-1.3 1.2 1.9.7zm-4.1-35.4l.9-.7-1-.2zm-7.4-11.1l.5.9.6-.8h-.4l1.5-1.1-1.4-.8-.1 1.9zm3.9 13.9l-.6.9 1.1-.1zm-6.6-4l.6-.7 1.8 1.1-.7-2.6 1.2-.1-.6-1-.7 1-1.6 1.3.5.3-.8-.2 1-1.3-.5-.2-.5-.7 2.3-.8-1.7-1.8-.9 2.5-.6.2 1.3.6-1.2-.2.6 1.9.1-.1zm-1.3-4.2l.2-.7h-.7l.9-1.2-1.3-.3.4 1.5-.1.1.5.6h-.2l.3 1.2.8-1z"/><path d="M277.8 358.3l-.7-.1.4.6zm-6.3.4l-.2.7.7-.3zm.5 15.6l.7.2-.2-.9zm3.1-3.9h-.7l.4.5zm9.8-28.1l-.7-.1.2.7zm-2.4 6.2l-.3.5h.7zm-11.3-1.9l-1.4.1.8.9zm-6.3-3.5l1-.4-.8-.6zm-4.7-20.1l-1-.4.3 1zm-3 .3l-1-.4.3 1zm-1.7-2.4l-.4-.7-.6.8zm5.7 10.8l-.6.5.3.1-.3.5 1.8.4-.7-1.9-.4.6zm7.6 17l-1.9.1 1.3 1.3zm-.4-15.3l-1.2.1.7.7zm.1 4.1l-1.1.1.7.8.1-.3.6.6.4-.8-.9.1zm-16.1-17.6l.8 1.8.9-1.6z"/><path d="M259.2 320.6l-1.3-.9-.2 1.9zm-1.5 8.1l1.6-.9-1.3-1zm14.9 39.5l-1.1.4.7.6zm1.4-8.1l-1-.5.1 1zm-.7 3.2l.1-1.1-1.3.6zm1.3 10.6l-1.1.3.7.7zm.6-8.9l.1 1.1.8-.5zm-1.8 9.6l-1.5.4 1.1 1.4zm-3.3-.8l1.2-.9-1.4-.3.4-.3-1.5-.3 1.2-1.5-.7-.1-.1-.7 1 .1-.6-.8h.1l-.6-.9-.6.8h.8l-.1.2-1.2.7.6.4-1.2-.3.8 2.8.5-.6.3 1.2.5-.3.1.7-1.2-.4.8 2.9 1.8-2.1zm-1.7-6.6l1.1-.4-.5-.2-.1-1.6-1.5.8.7.4-.2.9-1.3-.3.7 2.9 1.8-2.4zm-.6-3.1l-.7-.8-.3.7-1-.1.7 2.8 2-2.5zm-.4-2.9l.5-.2-1-.5v.6l-.6-.1.7-.7-1-.3.2 1-1.2-.3 1.5-1.8 1-.4-1-.5v.3l-2.2-.4 1.4 5.7 2.1-2.3zm-2.4-4.4l.3 1.2.9-.7.7.4-.1-.8.1-.1h-.2l-.1-.9 1.5 1.8.5-2.8-2.1.5-.1-.4-1.3.9-1.2-.6 1.3-1-.1-.1.9-.9-2-.6.5 1.5-1.2-.3.3 1.3.6 2 .6-.6zm-1.4-9.9l-2 1.5 2.5 1.2zm-2.5-2.4l.2.8.5-.4h.1l-.2.8 1.1-.3.3.1v-.2l.6-.2-.8-.5-.1-.3.4.2-.3-1.2.3-.3-.4-.1-.3-1.2-1.2.9-.9-.4.6-.5.2.2v-.4l.5-.5-.5-.1v-.1l.7-.8-1.8-.5.7-1.1-2.5-.3 1 2.8.7-1.2.3.7-.7.3.3.2.4 1.3-.3-.2.6 2.3.5.2zm-.6-.3l.4-.4v.1l-.4.3zm.6-.4h-.2l.2-.2.2.1-.2.1zm3.7 7.8l.3.1-.2-1-.8.5.5.3-2-.5 1.2-1.2-1.8-.5.4 1.9h.1l.6 2.6zm9.2 30l-.2-.2.4.2-.1-.4 2.6-.5-1.8-1.6.5-.1v.2l.9-.4h.1l.9-.3-1.7-.9-.1.4-1.2-1.1-.2.8-1.2-.7-.2 1.4 1.3-.5-.4 1.4h.2l-.1.3.4-.2.3.1-.4 1.3-.1-.4-.6.4-1.2-1.1.7.2-.9-2.7-1.8 1.7 1.7.6-.7 2.2 2.9-.1zm.4-2.3h0zm-11.5-38.6l.4-2.7-2.4.7zm12.1 22.5l1-.5-.6-.5-.2-.7-.5.7.5.1zm2.9 5.6l.6-.8h-.9zm-16.1-34.2l-.6-1-.7 1.1zm-2.2.7l-1.9-.6.5 2.1zm6.1-2.9l-1.4.1.9.9zm-6.2-4.3l-.2 1.1 1-.5zm-3.6-5l-2.5-.1 1.2 2.7zm21.9 43.8l1-.5-.8-.7zm3.5 4.8h-.9l.3.7zm-6.3-5.6l-.9-.8-.4 1.1zm5 4.3l.2-1.2-1 .6zm-.1-9.6l-1-.3.4 1zm2.3 16.5l-1 .1.7.9zm-1.6 5.8l1.5-.6-1.4-.7z"/><path d="M277.3 383l.2.1-.1-.4v-.1l-.2-.4-.5.6.2.1-1.2.6 1.2 1zm-3 7l1.4-.6-1.3-.8zm-.4-6.1l1.4.8-.2-1.5zm4 1.2l-1.1.1.4.8zm-2.1-.8l-1.2 1.3 1.9.5zm.6 2.3l-.5.7.8.1zm2.2-2.8l.3-.6-.7.1zm-7.2-6.3h-.1l.5-.6-1-.3.8-.3-1.3-.8-.1 1-.8-.2.7 2.8 1.2-1.6zm6.9 20.5l-.1-.1.4-.6-1-.2.9-.3-1.4-.8-.1 1-.8-.2.7 2.8 1.2-1.6zm-2.1-16.8l-1 .4.8.6zm0-8.6l.2 1 .8-.5zm-2.3 10.2l-.8-1-.5 1zm4.3 5l.3-1-1 .4zm.7-8.8l.8-.6-1-.5zm-1.8 10.3l.3-1.7-1.5.4zm-3-2.4l1.1-.9-1.5-.2.4-.4-1.3-.2 1.2-1.6-2.5-.5.8 2.7.3-.4.3 1.1.5-.4.2.7-.8-.2.7 2.8 1.7-2.3zm2.4 7.2l1-1-1.4-.2.4-.3-1.4-.2 1.2-1.7-2.4-.5.7 2.8.4-.5.3 1.1.4-.4.2.7-.8-.1.8 2.7 1.6-2.2zm2-19.2l-.1 1.2.9-.5zm3.1 6.6l.6-.8-1 .1zm-.2-1.9l.9-.6-.8-.6zm3.2 5.4l.6-.8h-1zm-7-6.8l-.3 1.1 1.3-.3zm6.2 4.7l.1-1.1-.9.6zm-1.7-9.8l.4 1 .7-.7zm-1.4-17.7l-.5.7.9.1zm3.1 4.1l-.7.2.3.6zm1.2-6v.7l.7-.2zm-2.5 12.3l.6-.7-.8-.2zm-64.9-128.9l-.9.3.9.8zm-.5 6l1.3-.9-1.4-.5zm1.9 6.4l-1.5-.5.1 1.4zm-11.9-13.4l1.8-.8-1.8-.8zm.4 2.3l.1-2-1.5 1.2zm6.2 6.8l.1-1.6h.3l-.4-.8-.6.6.3.1-1.1.9zm-8.1-11.5l1.3.9.3-2zm3.5 5.2l1.7-1-1.9-.6zm-7.7-12.9l-1.5.9 1.8.9zm10.2 18.2l-1 .9 1.5.6zm-.3-4l1.7-1-1.8-.6zm12-2.8l-.5.7.8.1zm-13.6 2.2v.8l-.1.1h.1v.4l.3-.3.5.1-.1-.3.3-.3zm.8 3.1l-.4-1-.7.7zm3.7 3.9l.5-1-1 .2zm-6.9-17.5l-1.1.2.8 1zm-1.8 4.6l-1-.4v.3l-2.1-.2 1 2.7 1.1-1.9zm8.3-3.2l-.7.8 1 .2zm-3.5 6.7l-1.1-1.7-.9 1.5zm2.3 7.9l-1 1.6 2 .1zm1.2-8.6l.8-.7-.9-.4v.9l-.2-.4-.4.7.7.1zm1.9-4.1h-.7l.5.5zm-6.1 1.1l-.2.7.7-.4zm4.1 13.8l-.4.8h.7zm1.5-3.2l.2-.6-.7.2zm-3.6-1.3l-1 .5.8.5zm.5-8.2l-1-.4.2 1zm-.2 1.3l-1.1.8 1.3.3z"/><path d="M215.6 246.8l-.9.6.9.6zm-1.3-8.7l.4 1 .7-.7zm.5 9.7l-1.4.8 1.5 1zm-3.4.1l.9-1.2-1.4.1.3-.4-1.4.1.8-1.8h-1l-.2-.7 1.1-.2-.7-.6-.8-.8-.3.9.7-.1-.1.4-1 .9.3.2h-.5l1.3 2.5.3-.5.5 1 .3-.4.4.6h-.8l1.3 2.5 1.1-2.5zm-3-6.3l.7-.5-.5-.2-.5-1.5-1.2 1.1.7.3.1.7h-1.2l1.3 2.6 1.2-2.5zm-.9-2.8h-1.4l-.4-.5-.2.5h-.5l.3.4-.1.1h.1l1 2zm-2.4-.1l1.1-2.6h-.3l.4-.3-1-.3v.6h-.6l.6-.8-1-.1.3.9h-.9zm-2.2-6.7l.4 1.2.8-.7.7.3-.2-.8.1-.1-.2-.1-.2-.8 1.7 1.6.2-2.9-2 .8-.2-.4-1.2 1-1.3-.3 1.2-1.3h-.1l.9-1-2-.5.6 1.5-1.3-.1.6 1.4-.2-.1.8 1.9.6-.7zm10.2 18.6l.7-.5-1.4-.5.1 1h-.9l1.4 2.5 1.1-2.6zm4.3 4l-.2-.1.4.1-.2-.4 2.4-1.1-2.1-1.1.5-.2v.2l.8-.5.1-.1.6-.5.1.4 1.1-.6-1.2-.5v.7l-1.7-.5.1.5-1.5-.8v.8l-1.3-.4.2 1.4 1-.9v.8l-.3.5h.3l-.1.3.2-.1v.3l.5-.4h.1l.1-.2v1.7l-.2-.3-.5.6-1.4-.8.7.1-1.5-2.4-1.3 2.1 1.8.2-.2 2.3zm.4-13.5l.4-.8-.9.2zm-.6-3l.1 1.2.8-.7zm4.6 5.1l-1 .2.6.6zm-9-3.7l-.3 1.1 1.3-.3zm6.5 4.4l-.1-1.1-.8.7zm-1.2-9.4l-1-.3.4 1zm5 14l.9.7v-1.1zm1.1 6l1.3-1-1.5-.4zm-2.9 7.2l.2 1.4 1.2-1zm-.3-4.9v-1.6h.2l-.2-.3v-.1h-.1l-.2-.4-.4.7h.3l-1.1.9zm-1.3 5.9l1.2-1-1.5-.4zm-.3-5.4l-.5-1.4-1 .9zm2.1.8l.5-1-1 .3zm-1.7-1.3l-.8 1.6h1.9zm1.2 2.1l-.3.8.7-.1zm1.4-3.3l.1-.6-.6.2zm-3.2-2.2l-.8.7.8.4zm-1.8-7.3l.7-.8-1.1-.2zm-1 10.1l1.2-.3-1-.8zm6.6 2.4l-.8.6.8.5zm-1.5-7.7l.6-.7-1.1-.3zm.7 8.7l-1.5.8 1.6 1z"/><path d="M218.8 259.7l.8-1.1-1.4.1.3-.4-1.4.1.8-1.9-2.5.1 1.4 2.5.2-.5.6 1 .3-.4.3.5-.8.1 1.4 2.5 1.1-2.6zm1.9-12.5l-.9-.4.1 1.2zm4.1 4.3l-.9.2.6.7zm.1-1.4l-.9-.4.1 1.2zm4 4.3l-.9.3.5.7zm-2.2-2.3l-.6.8.9.3zm-3.2-7.1l.5-.9h-1.2zm-1.5-8.7h-.8l.4.9zm34.5 63.3l-.9.3.8.8zm-.4 6l1.4-.9-1.6-.4zm-2.3 8.9v1.4l1.2-.7-.2 1.5 2.7-.9-2.4-1.6-.1.8zm2.7.2l1.4-.8-1.5-.6zm-13-24.9l1.7-1-1.8-.6zm2.3 7.4l.2 1.6 1.6-1.1zm.6 4.1v-2l-1.5 1.3zm6.4 6.5l.1-1.5h.3l-.3-.4v-.1l-.2-.3-.5.6.3.1-1 .8zm-7.1-10.6l-.1-2-1.4 1.3zm2.3 4.6l1.6-1.1-1.8-.6zm3 13l1.4-.8-1.5-.6zm-12.5-31l1.8.6-.5-1.7zm-4-10l-1.3 1.1 1.8.7zm12.4 14.9l-1.2 1.2 1.8.6zm1.8 5.1l-.6-1.7-1.2 1.1zM231 278.7h.1l-.9-1.6-1 1.4 1.9.2zm-6.2-10.2l-.7-1.4-.8 1 .1.1-.8.2 1.5 1.8.3-1.8zm6.4.3l-.5-1.4-1 .9z"/><path d="M225.2 268.9l-1.1 1 1.6.5zm24.9 32.5l.1 1.6 1.7-1.1zm12-1.8l-.5.9h.8zm-13.5 2.8v.8l-.1.1.1.1.1.3.3-.3.5.1-.2-.3.3-.3zm.5 2.1l-.7.8 1.2.2zm4.3 4.7l.5-1-1.1.2zm-9.9-19.2l1 .9.1-1.3zm-7-7.6l.1-1.2-1.1.4zm8.6 10.6l.1-1.3-1.1.4zm6.6-.8l-.5.9.9.1zm-10.1-.2l.9.1-.3-.8h.1l-.1-.1v-.1l-1-1.4-.8 1.6h1.7zm-2.4-4.4l-.6 1.2 1.3-.4zm-3.1 1.8l.9 1.7.9-1.7zm-1.6-2.8l.9 1.8 1-1.8zm4.4-1.2l-.9 1.6h2zm8.2 14.5l2 .1-1.1-1.7zm5.6 9.5l-1-1.6-.9 1.5zm-14.3-34.5l.7-.9H238zm-2.7 3.5l-.5 1 1.1-.3zm-7.6-2.2l.5-.8 2 .5-1.3-2.3 1-.4-.8-.8-.4 1.1-1.2 1.7.6.2-.9-.1.7-1.5-.6.1-.6-.7 2-1.3-2.2-1.3-.2 2.6-.5.4 1.4.3h-1.1l1 1.8v-.2zm-2.3-3.7v-.8l-.7.3.6-1.5-1.4.1.8 1.4.6.5h-.2l.6 1.1.5-1.2zm26.1 25.8h.5l.1.9.8-.7-.7-.3-.3-.6zm2-4.6l-.7.2.6.4zm-5.9 2.1v.7l.5-.4zm4.8 15.4l-.4.7.7.1zm1.3-3.6l.5.5.2-.5zm-4.9 1.7l-.3-.2.7-1.3h.2l1.5.5-.5-1.5-1 .9-.9-.9-.1.6-.3-.9-1.1.9 1 .3h-1.3l1.3 2.6.4-.7zm7.4-32.8h-.7l.3.6zm-.7 6.5l-.2.6.7-.2zm-11.7 1.4l-1.3.4 1 .7zm-7-1.9l.9-.7-.9-.4zm2.3 8.3l-.4-1-.6.7z"/><path d="M226.9 265.1l.6-.8-1.2-.2zm-2.8 1l.6-.8-1.2-.1zm-3.1-1.8l.9-.3-.5-.6zm21.4 22.8l-1.8.7 1.6.9zm-4.2-14.8l-1.1.4.9.5zm.1 4.3l.9.6v-.2l.7.4.2-.9-.8.2.1-.4zm-9.4-10.8l-.7.1.8.8.3-1-.4.1 1.2-1.4-1.6-.5zm-8.4-1.5l.5-1.8-1.7.3zm3.4-2.2l.4 1.9 1.2-1.4zm2.6 8.3l1.3-1.3-1.5-.6zm25 34.3l-.9.6.8.4zm-.8-8.2l-1.1-.2.4.9zm.3 3.1l-.2-1-1.1.8zm-7.4-.3l.5-.9-1-.1zm4.2 7l1.2-.2-.8-.7zm6.9 5.9l.2-1.1-1 .5zm.3-9.5l-1-.4.3 1zm-1.1 9.3l-1.5.6 1.4 1.2zm-3.4-.3l1-1H250l.4-.4-1.6-.1.5 1.3.4-.4.2.6-.9-.1 1.1 2.7 1.4-2.5zm-3.1-7l.7-.5-.5-.2-.5-1.5-1.3 1.2.8.2.1.8h-1.2l1.4 2.5 1.1-2.5zm-1.7-2.7l-.8-.6-.1.6h-.8l1.4 2.5 1-2.6zm-1.3-2.6l.8-.6-1.1-.2.2.8-1.9.1 1.4 2.5 1-2.6zm-1.2-2.2h0l1-.7-1.1-.2.1.5-2.3.1 1.5 2.5zm-6.2-10.5l1.1-.3-.8-.8-.5 1.2.2-.1-1.6 1.9 2.9.6zm.2 4.2l1.4 2.5 1.1-2.6zm13.2 24.3l1.1 2.6 1.3-2.5zm2.8 2.1l-.3 2.4 2.7-.9zm-18.6-36.5l-.2-2.8-2.2 1.2zm22.1 23.1l.5-.9-1 .2zm-15.7-7.8l.3-.5.6 1 .7-.8.8.1-.4-.7.1-.2-.2.1-.3-.8 1.9 1.2-.2-2.8-2 1.1-.2-.4-.9 1.1-1.2-.1.6-.9-1.9.2.8 1.4.4-.6zm-.6-2.6l.9-1.6-2-.1zm-5.7-8.2h.1v.7l1-.5.3.1-.1-.2.5-.4-.8-.2-.3-.6.5.1-.5-.9.2-.3h-.3l-.7-1.3-.9 1.2-1-.2.5-.7.3.1-.1-.4.4-.6-.6.1v-.1l.5-.9-1.9-.1.4-1.3-2.5.3 1.7 2.5.4-1.3.4.6-.5.5.3.1.7 1.1-.7-.1 1.2 2.1.4-.9.5.1-.4.5h-.2l.1.1-.4.5.7.1.5.7zm-2.7-10.2l-.8-.9-.5 1.3zm-4.2 1.1l1 1.9.9-1.8zm3.2-4.3l-.2.6-.1-.1-.5.7h.3l-.2.5 1.9-.1zm4.2 0l-1.3.5 1.1.7zm-7-1.4l.8-.8-.9-.3zm-7.2-4.7l1.6 2.5.9-2.8zm35.1 36.2l.9-.7-.9-.4zm4.7 3.7l-.9.3.5.6zm-8.7-4.3v1.2l1.2-.6zm7 2.3l-.8.8.9.3zm-2.5-8.1h-1.1l.7.9zm-.6-5.4l-.3.8.9-.1zm4 3.2l-.7.3.6.5zm.4-5.9l-.7-.3.1.7zm.1 12.2l.3-.8h-.8z"/></g></svg>