<svg xmlns="http://www.w3.org/2000/svg" xmlns:xlink="http://www.w3.org/1999/xlink" viewBox="0 0 480 480" xmlns:v="https://vecta.io/nano"><g fill="#fff"><path d="M199.04 400.05l2.3-19.65 28.32 2.32-3.63 28.58z"/><path d="M198.1 373.5l-1 10.5c-.2 1.9 1.2 3.5 3.2 3.8l28.3 3.7c2.1.3 4-1.2 4.2-3.2l.7-8.9-35.4-5.9zm-21.657-105.168l9.965-4.162 10.56 25.282-9.965 4.162z"/><use xlink:href="#B"/><use xlink:href="#B" x="-277.12"/><path d="M396.84 380l-61.6-153.9c-1.1-2.8-4.2-4.1-7-3s-4.1 4.2-3 7l9.1 22.7-144.5 32.4c-.2 0-.3.1-.5.1h-.1c-.1 0-.2.1-.4.1h-.1c-.1.1-.3.1-.4.2l-.1.1c-.1.1-.2.1-.3.2 0 0-.1 0-.1.1l-.8.8c-.1.1-.2.2-.2.3l-76.3 93.1c-1.3 1.6-1.6 3.8-.7 5.7.8 1.8 2.6 2.9 4.5 3.1 3.58.43 56.4 9.08 101.33 16.52.45 4.43 2.14 8.48 4.73 11.8l-4.42 3.97-17.24-1.3c-2.8-.2-5.2 1.8-5.4 4.6s1.8 5.2 4.6 5.4l27.9 2.1c2.8.2 5.2-1.9 5.4-4.6.07-.97-.14-1.9-.55-2.7a22.94 22.94 0 0 0 7.85 1.39c12.7 0 23-10.3 23-23 0-5.04-1.63-9.7-4.38-13.5l5.3-4.76 15.8 6.26c2.6 1 5.5-.2 6.5-2.8 1-2.5-.2-5.5-2.8-6.5l-16.77-6.64 74.97-107.56 46.6 116.4c.8 2.1 2.9 3.4 5 3.4.7 0 1.3-.1 2-.4 2.9-1.2 4.2-4.3 3.1-7.1zm-272-.3l64.7-78.9 35.35 83.9c-3.44 2.54-6.15 6.03-7.75 10.07l-92.3-15.06zm101.67 8.82l3.53 8.38-8.82-1.46c1.22-2.7 3.03-5.06 5.3-6.92zm-6.73 17.68l11 1.82-7.38 6.62c-1.83-2.42-3.1-5.3-3.6-8.44zm1.76 15.52l1.6-1.44c.7.62 1.43 1.2 2.2 1.72l-3.8-.28zm36-18.52c0 10.5-8.5 19-19 19-4.74 0-9.07-1.75-12.4-4.62l9.27-8.33c.95.5 2.03.8 3.17.8a6.7 6.7 0 0 0 6.68-6.24l6.38-9.15 2.52-2.27c2.12 3.07 3.38 6.8 3.38 10.8zm-21.13-18.87a18.74 18.74 0 0 1 2.13-.13c2.3 0 4.48.43 6.5 1.17l-5.1 7.33-3.53-8.37zm18.44-13c-2.22-.34-4.56.85-5.4 3.08-.57 1.4-.4 2.98.3 4.26l-2.32 3.32c-2.73-1.15-5.73-1.78-8.88-1.78-1.27 0-2.52.1-3.74.3l-36.36-86.2 130.5-29.2-74.08 106.22z"/><path d="M251.6 327.7l-2.5 9.4c-.2 1.02.33 2.04 1.36 2.5l-2.63 7.5 25.9 17.1 4.52-16.73a1.87 1.87 0 0 0 1.95-1.27l3.6-10.1-32.2-8.4z"/><circle cx="348.64" cy="219" r="11.6"/><path d="M206.65 262.8l-13.95-1.92.03.2c-3.8-.38-.82-.25-4.77-.8l1.44.4-7.46-.93 1.2.12-5.5-.65c-.42-.18.2-.14-3.1-.75-.06.12-1.3-.02-3.12-.4-.9-.17-1.94-.44-3.04-.75-1.1-.35-2.25-.74-3.33-1.25.1.03-1.54-.8-.36-.3-2.82-1.25-5.05-2.8-6.9-4.53h-1.55c-4.8 0-12.5 2-12.5 10.4v4.2c0 7.4 7.5 10.4 12.5 9.8 6.8-.8 27.8-7 27.8-7h16.5c3.74 0 6.93-2.38 8.16-5.7-.7-.05-1.4-.1-2.06-.18z"/></g><path d="M366.75 350.2c.01-.01-.03-.08-.16-.25l.16.25zm-16.85 27.74c0-.02-.08-.04-.3-.06l.3.06zM121.2 342.2l-.06.3c.02 0 .04-.08.06-.3zm-48.4 35.74c0-.02-.08-.04-.3-.06l.3.06zm7.7 31.52c-.01-.01-.08.03-.25.16l.25-.16zm9.33-6.28l-.06.07.06-.07zm-.2-52.98c.01-.01-.03-.08-.16-.25l.16.25zm262.12-118.75h0l-.06.1zm-1.43-5.7h0l-.03.06z"/><path d="M349.5 212.87c-.28-.04-.57-.07-.86-.07h-.2c-.24-.12-.7-.25-1.5-.23l.02-.03c-.7.1-1.1.3-1.47.63-.15-.1-.5.27-.66.32v-.02c-.26.35-.76.45-.98.83 0-.02-.03-.06.04-.13-.2.23-.44.56-.53.52-.45.56-.96 1.46-.96 1.95l-.02-.04c.02.28-.1.32-.13.6-.02.01-.03.03-.03.03.02.3-.15.8-.14 1.03l-.07.01v.56-.2c.18.08-.14.42.01.82 0 .4.45.7.46 1.07.13.15-.18-.12-.04.13-.1.03-.1-.1-.15-.02.1.25.03.46.2.75l-.06.04c.3.35.26.8.53 1 .3.35-.02.4.38.7l.04.2c.13.17.2.03.3.23-.06.03.16.25.02.2.3.45.86.62 1.36 1.1.2-.02.46.2.6.16-.01.06.62.3.22.25-.03-.01-.1-.03-.08-.05l-.07.05c.3.3.7.2 1.07.33-.1-.05-.26-.1-.14-.1l.35.1-.1.04c.17.06.35.1.52.15l-.06-.1c.25.07.33.23.64.15.14-.05-.24-.12.04-.12.34.08.88.16 1.33.13-.05-.08.07-.1.2-.13l.03.07c.46-.18.2.15.66-.05l.06-.12c.37-.25.28.1.66-.26-.17.08-.14-.12.08-.17l-.03.1c.1-.06.14-.1.22-.12-.05.07.01.1.17.02l-.08.14.27-.27c.3-.04.6-.37.75-.34 0 0 .5-.3.55-.48-.04.13.22-.07.2.06.07-.16.36-.5.53-.6l-.02.03c.54-.44.63-.97 1.02-1.44-.1-.02.1-.28-.04-.26.18-.58.64-.98.36-1.3.05-.27.17-.3.2-.44l.01.07.1-1.06c-.03-.2-.17-.23-.15-.56.07.1.05-.03.04-.16.01.08.04.1.07-.07-.02-.02-.03-.06-.05-.1 0 0 .01-.01.02-.01-.04-.2-.06-.17-.05-.07-.01 0-.02.01-.04.04.05-.23-.1-.6.01-.65-.17-.63-.42-1.03-.68-1.5.02-.08.12.01.2.14l-.18-.33c.07-.03.14.18.2.28-.08-.48-.53-.78-.75-1.26l-.12-.05v-.03c-.03.02-.13-.04-.2-.1.01-.1.13-.1-.05-.3-.08-.2-.43-.4-.66-.56.1.1.04.1-.02.08-.1-.1-.1-.2-.2-.23l.05-.08c-.01.1-.33-.13-.4-.13-.02-.1.2.07.25.05-.43-.3-.2-.16-.66-.43-.27-.08 0 .1-.16.1-.22-.1-.46-.14-.7-.3l.05.1c-.44-.1-.68-.2-.95-.35-.25-.03-.48-.02-.68.01zm-209.7 205.7c-.01.01.03.08.16.25l-.16-.25z"/><path d="M470.62 375.35l-.8-5.16-.45-2.36-.53-2.17c-1.92-7.78-5.1-15.94-9.54-23.46-4.46-7.5-10.3-14.3-16.73-19.43-.2-.2-.57-.5-.9-.73l-.44-.3c-.1-.08-.2-.12-.2-.12-3.92-3.13-8.14-5.9-12.58-8.23 0 0-1-.54-2.7-1.36l-3.05-1.37-3.88-1.52c-5.62-2.05-12.88-3.65-18.5-4.12-2.82-.23-5.2-.3-6.77-.23-1.56.04-2.3.13-1.83.26.24.07.78.15 1.66.24.23.03.5.05.77.08l-2.43-.06a77.63 77.63 0 0 0-10.62.74c1.1-.2 2.12-.34 3.05-.48l3.88-.45 2.64-.22c2.75-.25 2.54-.37 1.06-.5-1.5-.08-4.32-.15-6.75.04-1.22.04-2.34.17-3.15.27l-1.33.15c-4.07.53-7.64 1.24-10.92 2.22l-.6.18-1-2.48-.28-.7-2.28-5.6-.8-1.95-.4-.98-1.22-3-3.87-9.58-13.4-33.98-6-15.18-.35-.87c1.06-.4 2.02-.84 3.2-1.25.48-.13 1.06-.32 1.7-.54.06-.02.12-.05.18-.07.28.05.57.1.87.17-.2-.1-.48-.15-.27-.2l.64.18-.16.07c.32.1.64.2.97.27l-.1-.15c.47.13.62.4 1.2.26.26-.1-.45-.2.07-.2.64.14 1.62.27 2.47.2-.1-.13.13-.16.35-.22l.04.12c.85-.32.38.25 1.22-.1l.1-.2c.7-.44.5.15 1.23-.47-.32.14-.25-.2.17-.3l-.06.15c.2-.1.27-.17.42-.22-.1.12 0 .2.3.02l-.15.24.5-.5c.53-.1 1.1-.7 1.4-.64 0 0 .24-.14.48-.33s.5-.4.54-.56c-.1.24.4-.14.35.08.13-.3.68-.93 1-1.1l-.03.06c.98-.83 1.18-1.8 1.9-2.66-.15-.02.18-.52-.05-.47.18-.55.46-1 .64-1.38.2-.4.28-.73.05-1 .1-.5.3-.56.36-.82v.13c.1-.97.15-1.24.18-1.97-.04-.36-.28-.42-.26-1.05.12.2.08-.06.07-.3.02.15.07.2.12-.12a.67.67 0 0 1-.08-.17c.01 0 .01-.02.03-.01-.07-.4-.1-.32-.1-.14-.02-.01-.03.01-.06.07.1-.42-.18-1.13-.01-1.2-.3-1.17-.75-1.93-1.24-2.77.04-.14.2.03.37.28l-.34-.62c.12-.06.25.33.36.52-.17-.87-.96-1.46-1.4-2.34l-.2-.1-.02-.06c-.04.04-.23-.1-.33-.2 0-.18.22-.16-.12-.52-.1-.18-.28-.38-.5-.56l-.7-.48c.2.2.08.2-.03.14-.18-.16-.2-.34-.4-.4l.08-.14c-.02.17-.6-.25-.7-.25-.04-.18.36.14.46.1-.8-.57-.4-.3-1.23-.8-.5-.17.01.18-.27.17-.4-.2-.85-.27-1.27-.58l.1.2c-.8-.2-1.26-.4-1.78-.65-1.58-.1-2.42.17-2.8.35s-.37.35-.15.47c.4.26 1.46.44 1.45.47 1.03.28 1.77.54 2.6.77.8.3 1.7.6 2.72 1.38.4.4.73.73.97 1.06.26.32.44.63.63.94.37.62.7 1.25 1.2 2.3.4 1.02.7 2.17.76 3.25.13.25.14.6.1.98-.01.37-.05.75-.02 1.07l-.15.22c.04.22.03.47-.1.66l-.03-.02c0 .33-.12.66-.14.82l-.03-.02-.12.37-.02-.08c-.08.56-.34 1.07-.6 1.5l.15.03c-.68.85-.66 1.35-1.45 1.98l-.02-.03c-.57 1.2-1.55 1.18-2.4 2.14.1-.12-.1-.03-.1-.07-.46.37-1.05.6-.93.88-.4.2-.36.06-.45-.02.05.1-.3.3-.6.42l.13-.1c-.3.14-.6.22-.93.32l.25.18c-.53.07-.2-.25-.67-.06l.05.2c-.74.08-1.2-.14-1.88-.27-1.4.01-2.88-.12-4.27-.6-1.38-.46-2.65-1.25-3.5-2.3l.02-.18c.1-.17-.72-.3-.65-.52l-.28-.16c-.02-.1-.1-.27.03-.17-.16-.23-.2-.22-.37-.34l-.07-.32c-.52-.97-1.17-1.7-1.5-2.86-.05-.72-.3-1.7-.35-2.73-.08-.5-.03-1.03-.06-1.53.05-.48.03-.95.1-1.33.07-1.1.68-2.2 1.4-3.13.73-.94 1.57-1.72 2.3-2.57.07-.03.18-.2.16-.2.54-.4 1.1-.77 1.7-1.08l.37-.18a6.56 6.56 0 0 1 .92-.4c.74-.32 1.7-.55 2.47-.75.76-.15 1.3-.33 1.18-.57-.14-.2-.97-.67-3.18-.6l.04-.06c-.92.15-1.57.38-2.12.72-2.45.45-3.87 1.04-6.85 2.1l-3.24 1.13c-.9.35-1.82.72-3.2 1.5-1.33.7-2.68 1.62-3.8 2.6-.45.56-1.47 1.32-1.9 2.1l-.27.2c-.14.27-.3.57-.5.8l-.01-.03c-.17.42-.45.84-.5 1.06v-.03l-.2.5v-.1c-.26.75-.4 1.55-.53 2.2l.1-.04c-.08.35-.13.66-.17.93l-.03.76-.06 1.6-.02-.02c.26 1.63.03 2.64.62 4.26-.08-.2-.02.1-.05.1.2.76.5 1.54.65 1.5.17.54.1.46.06.55.07-.03.28.42.44.83l-.1-.18c.15.4.34.77.52 1.15l.03-.28c.24.62-.1.23.22.8l.1-.06c.4.84.5 1.4.9 2.2l.4.6.27.38.36.47.1.12c.03.04.06.1.1.06h.01l.9 2.24 4.9 12.16-17.3 3.93-5.58 1.34c-.13-3.12-.47-6.16-1-8.8-1.15-5.94-3.18-9.7-2.96-8.65.03.34.3 1.18.7 2.66-.3-.9-.6-1.76-.93-2.56-1.37-3.3-3.45-6.4-6.15-9.18.8.78 1.5 1.53 2.13 2.24a34.05 34.05 0 0 1 3.96 5.74c1.37 2.6 1.38 2.35.9.85l-.52-1.37c-.22-.5-.5-1.07-.77-1.65-.6-1.14-1.34-2.38-2.13-3.44a19.3 19.3 0 0 0-1.14-1.49 15.1 15.1 0 0 0-1.01-1.18l-.7-.78-.28-.28c-1.54-1.6-3.15-2.96-4.76-4.12a40.69 40.69 0 0 0-4.84-3.04c-1.6-.88-3.25-1.6-4.87-2.26-1.6-.65-3.2-1.26-4.84-1.87-6.54-2.4-13.55-4.62-23.4-7.4l-8.38-2.37-6.94-1.86-11.38-.1c-3.98-.02-8.5-.03-14.4.01l-27.04.07c-4.12.2-11.4 0-16.28.18l-1.9-.12c-1.68.06-3.65.1-5.34.04l.1-.03c-2.5.1-5.34.04-6.6.08l.1-.04-3.05.02.52-.05-4.1.06-.56 2-.33 1.2a76.26 76.26 0 0 0-.61 2.39c-.4 1.58-.73 3.13-1.04 4.6l.2-.3a54.42 54.42 0 0 0-1.23 10.01c-.06 2.85-.03 5.6.56 9.5l-.05-.1c1.1 4.9 2.8 8.56 5.13 11.83a28.21 28.21 0 0 0 2.19 2.65 8.05 8.05 0 0 1-.86.03c.46.02 1 .02.64.1-.44 0-.93 0-1.4.02.1-.04.2-.08.3-.12a24.7 24.7 0 0 0-2.1.15l.3.1c-1.02.1-1.44-.05-2.52.43-.48.23 1-.08-.05.23-1.34.28-3.36 1.02-4.8 2.24.23 0-.16.3-.5.68l-.13-.04c-.6.8-.77.88-.92 1s-.36.2-.8 1.1v.4c-.3.84-.4 1.04-.53 1.27-.1.23-.33.5-.3 1.47.12-.75.33-.3.1.6l-.08-.25c-.08.5-.03.68-.07 1-.05-.3-.17-.18-.2.57l-.12-.5c.05.47.08.98.16 1.4-.13 1 .03 2.62-.14 3.03 0 0 0 .14-.01.35s-.01.5.01.84a14.55 14.55 0 0 0 .09.99c.05.3.15.54.2.67-.2-.46.01.87-.2.52.1.3.4.88.62 1.47.3.57.57 1.17.73 1.5l-.1-.1c.68 1.24 1.6 2.05 2.48 2.75.94.64 1.87 1.18 2.95 1.72-.05-.15 1.1.34.88.06 2.32.66 4.37 1.2 5.25.6 1.1-.1 1.3-.02 1.85-.05l-.25.07c1.97-.36 2.5-.5 3.95-.8.7-.2.75-.5 2.03-.73-.4.2.13.06.6-.05-.3.1-.38.15.25.07.08-.05.2-.1.33-.15.01.01.03.01.02.02.78-.23.64-.23.27-.15.01-.02-.02-.03-.14-.03.85-.06 2.28-.57 2.42-.42 2.36-.64 4-1.27 5.93-1.86.24.03-.2.23-.75.42l1.38-.4c.02.13-.78.3-1.2.43 1.6-.22 3.1-1 4.9-1.4.42 1.18.7 1.92 1.18 2.67-.1.2.38.96.45 1.26v-.02c.42.66.5 1.5.9 2.15-.02-.02-.07-.02-.14-.17.23.5.55 1.16.47 1.23.52 1.18 1.17 2.86 1.64 3.57l-.05-.04c.28.4.25.56.5 1.02 0 .03.01.07 0 .07.3.43.6 1.38.8 1.74l-.05.05.4.94-.13-.36c.22.05.2.76.6 1.4.18.5.6.9.87 1.36l-15.86 19.4c1.38-1.75-.66.7-.58.53l-7.3 9.03-1.07 1.35c-2.72-1.9-5.54-3.64-8.48-5.2 0 0-1-.54-2.7-1.36l-3.05-1.37-3.88-1.52c-5.62-2.05-12.88-3.65-18.5-4.12-2.82-.23-5.2-.3-6.77-.23-1.56.04-2.3.13-1.83.26.24.07.78.15 1.66.24.23.03.5.05.77.08l-2.43-.06a77.63 77.63 0 0 0-10.62.74c1.1-.2 2.13-.34 3.05-.48l3.88-.45 2.64-.22c2.75-.25 2.54-.37 1.06-.5-1.5-.08-4.32-.15-6.75.04-1.22.04-2.34.17-3.15.27l-1.33.15c-4.07.53-7.64 1.24-10.92 2.22-3.3.92-6.3 2.08-9.35 3.4-6.02 2.75-12.22 6.2-19.7 12.5-6.54 5.56-10.07 9.76-13.4 14.16-.8 1.1-1.64 2.23-2.4 3.45l-1.2 1.85-1.17 2.02c-.84 1.37-1.57 2.92-2.43 4.57-.77 1.7-1.65 3.53-2.4 5.62-1.55 3.96-2.87 8.17-3.74 12.46a85.26 85.26 0 0 0-1.6 12.76c.03 1 .02 2.16.01 3.44 0 1.28.07 2.66.1 4.07.06 1.4.2 2.83.3 4.2.15 1.36.36 2.65.54 3.8.02.6.12 1.2.18 1.8l.5 2.5a56.9 56.9 0 0 1 .54 2.5l-.06-.1a81.65 81.65 0 0 0 .96 3.47c.3 1.08.57 2.02.8 2.57l-.07-.08.95 2.76-.2-.46c1.5 3.9 3.28 7.84 5.04 11.2l-.02-.35c1.9 3.6 3.4 5.92 4.98 8.08.78 1.08 1.55 2.15 2.45 3.26l1.4 1.78 1.64 1.97-.1-.05c3.23 3.32 5.8 5.9 8.6 8.32 2.8 2.4 5.75 4.73 9.92 7.06-1.03-.6.4.33.3.3 3.77 2.27 8.1 4.15 8.26 3.92l2.3 1.07c.27.14.2.17.38.3.04-.13 2.6.9 5 1.64l-1.1-.32c2.25.78 4.54 1.42 6.85 2-.44-.17-.87-.37-1.3-.58 3.64.98.86.5 4.4 1.3l-.01-.2 3.5.7c1.08.22 2.1.36 3.12.55 1 .2 2.03.32 3.1.45s2.22.3 3.5.33c10.56.43 21.6-1.48 31.58-5.5 10.02-3.97 18.93-9.95 26.1-16.64l.73-.5c.46-.08 3.56-4.1 4.14-4.58l1.42-1.8c.43-.48 1.3-1.52.63-.6 1.3-1.67 1.35-1.7 2.17-2.98l1.42-1.77c4.78-6.86 7.73-13.42 10.4-21.76.44-1.3.87-2.8 1.28-4.4l4.27.72c-.33 1.38-.6 2.78-.8 4.18 0 0-.22 1.58-.3 3.67a46.24 46.24 0 0 0-.03 3.35c.02.57.03 1.14.08 1.7l.06.8c.03.27.02.5.1.86.25.96.88 1.56 1.45 1.86-.02.01-.04.02-.07.02l-.06-.06c-.5.24-.6.26-.7.26-.1.01-.23 0-.67.33-.04.07-.08.13-.1.2-.35.35-.46.43-.6.5-.13.08-.27.18-.53.67.26-.35.24-.06-.08.34l.02-.15c-.16.24-.17.35-.28.5.06-.17-.06-.14-.24.26.01-.1.02-.2.05-.3-.1.27-.17.53-.2.8-.3.57-.34 1.58-.4 1.83-.05-.01.02 1.37.27 1.63-.14-.25.04.5-.1.3.17.33.7 1.23.9 1.6l-.06-.06c.9 1.32 2.04 1.77 3.34 2.18-.04-.08.67.08.5-.06 1.34.02 2.32.4 2.8.1.58.03.68.13.98.17h-.14c1.08.05 1.4.07 2.2.14.4 0 .48-.16 1.2-.06-.24.05.06.06.33.08-.17 0-.23.02.12.1.05-.02.13-.02.2-.03 0 .01.02.01.01.02.45.01.37-.01.17-.04.01-.01-.01-.02-.07-.04.46.12 1.3.1 1.35.2 1.35.08 2.32.04 3.45.08.12.07-.14.1-.47.1l.8.04c-.01.08-.46.01-.7.01.94.2 1.97.02 3.07.22l.24-.05.07.02c0-.03.25-.06.42-.06.15.08-.02.16.53.2.43.1 1.24.06 1.8.06-.3-.03-.2-.07-.07-.08.28.02.43.1.64.1l.02.1c-.1-.1.73-.04.83-.07.15.08-.43.03-.5.08l1.66.1c.6-.03-.1-.1.2-.16.52.02 1.03-.01 1.63.1l-.18-.1c.98.01 1.57.06 2.22.2 7.33-.13 1.6-.82 1.6-.82-2.85-.4-4.35-.27-7.77-.46-3-.27-3.78-.5-6.9-.66l-4.52-.3c-.7.07-1.9-.14-2.73-.1l-.3-.1a3.33 3.33 0 0 1-.89-.05l.02-.02c-.42.02-.9-.05-1.1-.03l.02-.02-.5-.03.1-.02c-.74-.01-1.52-.02-2.04-.18l.03.1c-.6-.2-1-.35-1.35-.56-.35-.2-.7-.44-1.02-.9h.03c-.54-.48-.77-1.05-.88-1.6-.1-.56-.14-1.13-.16-1.88 0 .2.05-.07.07-.05.05-.68.38-1.34.23-1.43.26-.45.25-.33.34-.36-.06-.03.16-.42.43-.72l-.1.16c.24-.3.53-.55.84-.77-.1 0-.18.01-.27.02.54-.32.22.04.7-.28l-.06-.1c.8-.36 1.34-.3 2.13-.25.4.01.88.05 1.34.08l1.42.1 2.84.15c1.9.1 3.74.22 5.46.45l.15.1c.06.13.96-.12 1.1.01l.4-.03c.1.03.35.07.14.1.37.03.38.01.65-.01l.4.1c1.46.17 2.7.1 4.24.26 1.83.3 5.32.4 7.33.48.7.01 1.44.06 2.18.13.78.07 1.44.15 2.07.46 1.25.6 2.1 1.7 2.54 2.9 0 .08.1.28.1.28.14.77.13 1.6-.13 2.32 0 0-.2.7-.77 1.44-.57.75-1.6 1.4-2.46 1.64s-1.54.24-1.4.4c.08.06.36.2.96.23.6.03 1.55-.04 2.7-.72l-.04.07c1.3-.9 1.83-1.9 2-2.98.1-.06.2-.38.22-.73.05-.35.01-.72.04-.9l.02.03c-.08-.45-.13-.92-.23-1.4.45.13.9.25 1.37.36l-.37-.24c1.07.32.23.24 1.28.47v-.12c1.52.26 2.4.6 3.9.73 3.08.14 6.3-.44 9.2-1.6.75.01 1.52.12 1.9.1l-.04.03 1 .08-.18.03c1.43.04 2.9.16 4.2.33l-.1-.15c2.75.42 3.8.2 6.27.63l-.04.03a23.99 23.99 0 0 1 1.2 0c.53 0 1.03-.13 1.47-.36.88-.45 1.5-1.38 1.53-2.4v.08c.16-1.27.3-2.58.05-4.25.06.42.07-.18.1-.15-.1-1.56-.42-3.24-.72-3.2-.24-1.12-.13-.93-.05-1.1-.06.02-.17-.2-.3-.55l-.24-.57c-.08-.2-.25-.52-.4-.7.05.04.1.1.14.17-.5-.8-1.1-1.27-1.68-1.8.08.16.15.33.22.5-.6-.57-.5-.62-.56-.75.13-.35.25-.7.38-1.08.48-1.48 1.06-3.7 1.04-6l.03-.86-.05-.85-.12-1.66-.27-1.53c-.07-.5-.17-.94-.3-1.34-.6-2.3-1.52-4.7-2.8-6.96-.2-.35-.42-.68-.64-1.02 1.1-1.02 2.23-2.17 3.74-3.35.2-.3.7-.72 1.08-1.1.26.1.53.17.8.27.1.1-.17.05-.48-.05l.75.27c-.04.07-.44-.13-.68-.2.84.47 1.87.6 2.86 1.12l.24.03.06.03c.01-.03.26.02.42.07.12.12-.07.15.45.35.38.22 1.16.42 1.7.6-.28-.12-.18-.12-.04-.1.26.1.38.22.6.27v.1c-.07-.12.7.18.8.18.12.12-.42-.1-.5-.08l1.55.6c.57.15-.07-.12.23-.1.5.17 1 .3 1.52.57l-.15-.15c.93.3 1.47.52 2.06.85 7.03 2.05 1.77-.3 1.77-.3-2.6-1.23-4.07-1.55-7.27-2.75-2.78-1.15-3.46-1.6-6.38-2.68-1.38-.56-2.86-1.1-4.22-1.62-.7-.14-1.77-.7-2.57-.9l-.27-.18c-.27-.07-.6-.17-.84-.3l.02-.01c-.4-.1-.84-.3-1.04-.36l.02-.01-.48-.18h.1c-.7-.22-1.44-.47-1.9-.77v.1c-.5-.36-.84-.63-1.12-.93-.27-.3-.53-.63-.7-1.17l.03.01c-.38-.62-.43-1.23-.4-1.8.05-.57.18-1.1.4-1.83-.05.18.07-.05.1-.03.25-.63.76-1.15.64-1.3.38-.35.34-.24.43-.24-.05-.05.28-.36.63-.56l-.14.12c.32-.2.67-.36 1.03-.5-.1-.03-.17-.04-.26-.06.6-.15.2.1.76-.06l-.03-.1c.86-.1 1.38.1 2.1.37l2.58.98 2.67 1c1.77.66 3.5 1.32 5.07 2.05l.1.14c.01.14.95.17 1.03.33l.4.1c.1.06.3.17.1.13.34.14.36.12.62.2l.34.22c1.34.6 2.55.9 3.97 1.5 1.66.83 4.95 1.97 6.84 2.63.67.2 1.36.48 2.04.77.72.3 1.33.57 1.83 1.05 1 .94 1.5 2.27 1.58 3.54a.78.78 0 0 0 .03.3c-.08.77-.35 1.55-.8 2.18 0 0-.38.6-1.15 1.15-.76.55-1.92.85-2.83.82s-1.54-.23-1.45-.03c.05.08.3.3.85.5.56.2 1.48.43 2.8.13l-.06.05c1.52-.47 2.32-1.3 2.8-2.26.27-.05.6-1.14.73-1.5l.01.04c.13-.95.37-2 0-2.9.02.03.07.04.13.25-.07-.32-.2-.66-.32-.95a5.38 5.38 0 0 1 .64.29l-.05.02c.8.22 1.63.6 2.03.72l-.04.02.93.35-.18-.02c1.36.44 2.73.98 3.92 1.5l-.05-.17c2.52 1.18 3.57 1.28 5.83 2.38l-.04.02a12.85 12.85 0 0 1 1.09.33c.5.17 1.03.22 1.5.15.95-.14 1.8-.68 2.26-1.54.13-.25.17-.36.24-.52l.2-.46a9.94 9.94 0 0 0 .35-.96 12.11 12.11 0 0 0 .52-2.24c-.06.42.12-.16.14-.12.35-1.52.5-3.22.2-3.26.1-1.14.14-.93.26-1.07-.06 0-.1-.25-.13-.6-.04-.4-.04-.77-.18-1.38.05.16.1.34.14.5-.18-1.12-.67-1.8-1.1-2.55l.05.55c-.64-1.18.08-.46-.68-1.5l-.15.12c-1.02-1.5-1.47-2.52-2.5-3.97-4.68-5.63-10.53-10.78-15.08-15.77l-.1-.3c.06-.24-1.55-1.08-1.6-1.4l-.63-.48c-.13-.18-.44-.53-.12-.3-.23-.23-.37-.35-.48-.45l25.8-37.42 15.93-22.92 15.77-22.26.25.67 2.72 6.9 3.64 9.16 7.23 17.8c.17.47.52 1.3.82 2l.4.92a8.43 8.43 0 0 0 .17.37l1.78 4.45c-5 2.5-10.25 5.74-16.36 10.88-6.54 5.56-10.07 9.76-13.4 14.16-.8 1.1-1.64 2.23-2.4 3.45l-1.2 1.85-1.17 2.02c-.84 1.37-1.57 2.92-2.43 4.57-.77 1.7-1.65 3.53-2.4 5.62-1.55 3.96-2.87 8.17-3.74 12.46a85.26 85.26 0 0 0-1.6 12.76c.03 1 .02 2.16.01 3.44 0 1.28.07 2.66.1 4.07.06 1.4.2 2.83.3 4.2.15 1.36.36 2.65.54 3.8.02.6.12 1.2.18 1.8l.5 2.5a56.9 56.9 0 0 1 .54 2.5l-.06-.1a81.65 81.65 0 0 0 .96 3.47c.3 1.08.57 2.02.8 2.57l-.07-.08.95 2.76-.2-.46c1.5 3.9 3.28 7.84 5.04 11.2l-.02-.35c1.9 3.6 3.4 5.92 4.98 8.08.78 1.08 1.55 2.15 2.45 3.26l1.4 1.78 1.64 1.97-.1-.05c3.23 3.32 5.8 5.9 8.6 8.32 2.8 2.4 5.75 4.73 9.92 7.06-1.03-.6.4.33.3.3 3.77 2.27 8.1 4.15 8.26 3.92l2.3 1.07c.27.14.2.17.38.3.04-.13 2.6.9 5 1.64l-1.1-.32c2.25.78 4.54 1.42 6.85 2-.44-.17-.87-.37-1.3-.58 3.64.98.86.5 4.4 1.3l-.01-.2 3.5.7c1.08.22 2.1.36 3.12.55 1 .2 2.03.32 3.1.45s2.22.3 3.5.33c10.56.43 21.6-1.48 31.58-5.5 10.02-3.97 18.93-9.95 26.1-16.64l.73-.5c.46-.08 3.56-4.1 4.14-4.58l1.42-1.8c.43-.48 1.3-1.52.63-.6 1.3-1.67 1.35-1.7 2.17-2.98l1.42-1.77c4.78-6.86 7.73-13.42 10.4-21.76 1.68-5 3.3-12.5 3.48-20.23.2-3.96-.06-7.84-.42-11.46zm-219.97-108l.96.24c.27.1.62.2.82.3.08.06.16.07.26.15l.32.33c.23.2.38.47.58.7a6.37 6.37 0 0 1 .35.63l-4.02.93-1.18-3.64c.65.1 1.28.23 1.9.36zm-79.9 3.73l-7.83 2.06c-1.15.48-3.32.77-4.7 1.2l-.57-.02c-.47.14-1.03.26-1.52.27l.03-.04c-.67.17-1.44.1-1.78.14l.03-.03-.83-.06.15-.04a8.88 8.88 0 0 1-3.42-.84l.03.17c-1.06-.53-1.72-.96-2.36-1.38-.32-.2-.6-.47-.9-.74-.25-.32-.6-.62-.82-1.1h.04c-.9-.94-1.25-2-1.36-3.02-.1-.5-.06-1.04-.1-1.6-.02-.6-.03-1.3-.13-2.03.05.38.07-.16.1-.13l-.08-1.95c-.04-.54-.08-.86-.23-.9.05-.95.14-.76.27-.87-.1 0-.08-.84.15-1.53l-.06.33.3-1c.13-.32.3-.63.43-.94l-.4.26c.56-.98.37-.12.9-1.04l-.17-.1c.98-1.22 1.9-1.57 3.23-2.18 1.34-.7 2.87-1.2 4.45-1.5.8-.13 1.6-.23 2.4-.26l2.54-.06h.2c1.64 1.38 3.58 2.62 5.93 3.66-1.18-.52.46.3.36.3 1.08.5 2.24.9 3.33 1.25 1.1.3 2.14.57 3.04.75 1.8.37 3.05.5 3.12.4l1.7.33c1.08.22 1.12.27 1.25.35.01.01.02.01.03.02.01 0 .01.01.02.01.02.01.05.03.1.04 0-.12 2.9.3 5.5.65l-1.2-.12 7.46.93-1.44-.4c3.95.54.97.4 4.77.8l-.03-.2c5.47.65 8.66 1.26 13.95 1.92.36.04.72.07 1.08.1a7.04 7.04 0 0 1-.63 1.26c-.86 1.46-2.57 2.82-4.1 3.38-1.53.58-2.74.62-2.45.9.1.06.33.14.73.2-.24.02-.48.06-.73.06h-3.45c8.57-.93-.1-1.28-.1-1.28-2.58-.15-4.54-.13-6.62-.05l-3.3.14-1.9.07-1.12.03c-.32 0-.6.16-.75.18-.18.06-.36.1-.54.17-5.2 1.4-6.65 1.54-12 3.1zm16.97-1.8c-.1-.04-.34-.08-.07-.16.03.05.05.1.07.16zm-10.5 2.14c.01 0 .02 0 .03-.01 0 .01.01.02.01.04l-.04-.03zm5.97 11.8c-1.13-2.2-1.76-5.04-2.93-7.28-.01-.08-.13-.26-.15-.26l-.87-2.14-1.07-2.48c.08-.08.4-.23.64-.3.3.04.05.27 1-.01.8-.1 2.13-.67 3.1-1-.54.14-.38.02-.17-.08.48-.14.78-.1 1.14-.27l.1.14c-.06-.02.01-.07.06-.1a.45.45 0 0 1 .12-.06.69.69 0 0 1 .2-.02c.37-.03.8-.05.88-.08.28.12-.77.1-.9.2l3-.02c.25-.03.36-.05.4-.07l.98 2.25c.35.5.64 1.54 1.02 2.15l.04.28a2.67 2.67 0 0 1 .32.71l-.03-.01c.2.32.32.7.42.87l-.03-.01.18.4-.06-.06a14.86 14.86 0 0 1 .76 1.72l.06-.08c.4 1.18.73 1.53 1.06 2.6l-.03-.01c.72 1.15.73 2.03 1.37 3.2l-4.1.92c-.17.02-.35.07-.37.08s-.05.02-.08.02h-.04c-.07 0-.23.02-.3.04l-.15.05c-.03.03-.05.01-.05.02-.13.04-.24.08-.35.13-.14-.05-.24.04-.35.07-.04-.01-.02.07-.07.08-.07-.01-.13.03-.2.1l-.1.1c-.02.02-.03.03-.05.04l-.07.04c-.01.01-.03.02-.04.03a1.1 1.1 0 0 0-.28.18.74.74 0 0 0-.16.2l-.42.4-.27.26c-.04.05-.1.1-.2.2-.04.06-.1.15-.18.3l-.82.98c-.6-1.45-1.44-3.22-2-4.38zm6.05 2.28h0zm-.72.3l-.01-.01.01.01zm-.55 1.27h-.03l.03-.08v.08zm-.03-1.08v-.01.01zm-39.66 46.96c-.48-.3-1.04-.72-2.96-1.83-2.28-1.23.36.3-.75-.23-1.98-1.13-4-2.03-6.38-3.14l.72.4c-3.95-1.63-6.4-2.35-9.15-3.2-3.88-.9-6.97-1.2-9.3-1.4l-3-.1-2.03.04c-2.1.08-1.96.2-.8.27 1.14.1 3.26.17 5.08.4.9.07 1.75.2 2.36.3l1 .14c3.04.5 5.7 1.08 8.15 1.82 2.46.7 4.73 1.53 7.03 2.47 2.96 1.28 6 2.8 9.34 4.96l-6.96 8.55 1.85-1.9c-4.56 5.46-1.37 1.22-5.64 6.52l.2.06c-6.27 7.6-10.16 11.86-16.3 19.14l-1.7 2.08c.01-.07.03-.14.04-.2v.1c.25-1.8.17-3.08.42-4.7-.1.07.03-.78-.1-.58.05-1.68.5-3.02.22-3.65.05-.76.16-.9.22-1.28v.18l.25-2.9c.02-.53-.13-.63-.01-1.57.03.3.06-.08.1-.43-.01.23.01.3.1-.16-.01-.07-.02-.17-.02-.26.01 0 .01-.02.02-.01.03-.6 0-.5-.03-.22-.01-.01-.02.01-.05.1.14-.6.15-1.7.27-1.77.14-1.78.15-3.05.24-4.53.07-.16.1.2.07.62l.08-1.05c.08.02-.01.6-.02.93.25-1.23.1-2.58.36-4.03l-.04-.3.02-.1c-.03 0-.05-.33-.04-.55.1-.2.16.03.22-.7.12-.57.12-1.63.15-2.38-.05.4-.08.27-.08.1.03-.36.12-.56.12-.85l.1-.03c-.1.13-.01-.95-.03-1.1.1-.2.01.57.05.66l.2-2.18c0-.78-.1.13-.15-.25.05-.68.04-1.36.17-2.14l-.1.24c.05-1.3.14-2.06.3-2.9.2-9.63-.74-2.1-.74-2.1-.53 3.75-.47 5.7-.82 10.2-.4 3.94-.67 4.97-.98 9.06l-.5 5.93c.04.92-.23 2.5-.22 3.58l-.1.4c0 .37-.01.8-.1 1.17l-.02-.03c0 .56-.1 1.17-.1 1.45l-.02-.02-.05.67-.02-.12c-.03.97-.12 1.95-.23 2.82l.1-.06c-.27 1.85-.15 2.55-.43 4.22l-.02-.02c.01.94-.07 1.7-.18 2.43l-2.7 3.3c-.1 0-.18-.01-.27-.01-.1 0-.22.01-.33.02-.36-.18-1.07-.37-2.24-.38l-.1-1.28.07-.2c.12-.1-.3-1.23-.2-1.4l-.1-.52c.01-.15 0-.46.06-.2-.04-.5-.07-.5-.14-.84l.03-.53c-.13-1.92-.44-3.54-.6-5.56-.08-2.44-.68-6.98-1.02-9.6-.56-3.67-.47-8.02-1.06-11.78a1.57 1.57 0 0 0-.08-.44l-.32-3.46s-1.6-16.8-1.4-3.93l-.04-.08c.12 1.9.22 3.1.5 4.4-.15.22.14 1.56.12 2v-.04c.25 1.14.12 2.4.35 3.5-.02-.04-.07-.06-.1-.32.1.8.25 1.92.16 2 .22 1.94.44 4.65.72 5.87l-.04-.08c.18.7.1.9.24 1.7-.01.04-.01.1-.02.1.18.76.24 2.25.35 2.87l-.06.05.17 1.53-.04-.58c.2.18 0 1.17.23 2.27.08 1.04.6 2.08.6 3.17.14.5-.18-.44-.04.32-.1.03-.1-.35-.15-.15.12.75.03 1.25.18 2.18l-.07.05c.26 1.2.13 2.3.34 3.1.2 1.25-.14.86.14 2.16l-.05.52c.04.56.16.4.18 1-.07-.03.03.8-.07.43.02.62.1 1.27.2 1.94-.56.16-1 .4-1.38.7-.22-.26-.4-.5-.45-.62 0 0-.98-1.26-1.3-1.46.26.2-.28-.5-.06-.35-.32-.27-1.15-1.16-1.4-1.6l.07.06c-1.1-1.44-2.06-2.3-3.02-3.6-.02.1-.53-.58-.48-.34-1.16-1.22-1.78-2.5-2.43-2.74-.5-.57-.52-.75-.76-1.06l.13.13-1.88-2.22c-.36-.4-.54-.35-1.12-1.1.24.2-.01-.1-.24-.37.15.17.22.2-.05-.18-.06-.04-.13-.1-.2-.17 0-.01-.01-.02 0-.02-.4-.44-.35-.35-.18-.13-.02 0-.01.02.03.1-.33-.52-1.1-1.3-1.07-1.44-1.16-1.35-2.06-2.26-3.04-3.37-.06-.16.2.07.5.4l-.7-.8c.07-.04.42.43.64.67-.7-1.05-1.75-1.9-2.6-3.1l-.24-.2-.05-.07c-.02.02-.27-.2-.42-.36-.08-.2.13-.1-.34-.65-.32-.48-1.07-1.23-1.58-1.8.25.32.14.24.01.13-.23-.28-.3-.48-.52-.68l.05-.1c.02.17-.68-.67-.8-.75-.08-.2.4.4.5.43l-1.4-1.67c-.55-.55.02.17-.28-.07-.45-.52-.93-1-1.4-1.63l.1.25c-.88-.95-1.36-1.55-1.85-2.27-6.67-6.94-2-.96-2-.96 2.28 3.02 3.72 4.37 6.65 7.8 2.5 3.07 3.05 3.98 5.72 7.1l3.85 4.55c.68.62 1.6 1.93 2.38 2.7l.2.37c.26.26.56.58.77.9h-.03c.4.4.77.9.97 1.08h-.03l.44.5-.1-.07c.66.7 1.3 1.46 1.84 2.15l.02-.1c1.12 1.5 1.7 1.9 2.7 3.28h-.03c1.47 1.43 2 2.6 3.42 4.04-.1.06-.17.12-.24.14l.01-.03c-.44.58-1.28.76-1.64 1.4 0-.03-.05-.1.06-.22-.33.4-.73.94-.88.87-.42.52-.86 1.2-1.18 1.86l-1-.86-.1-.2c.01-.15-1.1-.65-1.14-.85l-.44-.3c-.1-.1-.32-.33-.1-.2-.37-.32-.4-.3-.7-.5l-.35-.4c-1.44-1.28-2.8-2.2-4.34-3.52-1.77-1.68-5.4-4.5-7.48-6.1-2.98-2.22-5.98-5.37-9.04-7.62-.08-.1-.36-.27-.36-.25l-2.67-2.23s-12.95-10.8-3.77-1.8l-.08-.03c1.42 1.27 2.34 2.04 3.44 2.77.05.27 1.2 1 1.5 1.34l-.04-.02c.98.64 1.77 1.6 2.7 2.23-.04-.02-.1 0-.3-.16.64.5 1.53 1.2 1.5 1.3 1.52 1.22 3.58 3 4.64 3.66l-.08-.03c.62.37.72.57 1.37 1.04.02.04.06.08.05.08.67.4 1.75 1.43 2.26 1.8l-.01.08 1.2.97-.43-.38c.27-.01.83.83 1.76 1.45.8.7 1.88 1.06 2.66 1.82.45.26-.44-.18.2.26-.04.1-.32-.18-.2 0 .62.45.9.87 1.66 1.42l-.02.08c1.03.68 1.72 1.55 2.43 1.97 1 .76.5.7 1.62 1.44l.33.4c.42.37.4.16.84.6-.07.02.57.54.25.36.55.52 1.17 1 1.84 1.52-.01.08-.03.17-.03.24l-.03-.07c.03.43-.14.53-.2.9-.52-.05-1-.08-1.17-.16 0 0-1.58-.2-1.96-.12.32-.04-.55-.15-.3-.2-.42.04-1.64-.01-2.12-.13h.1c-1.8-.25-3.08-.16-4.7-.4.07.1-.78-.03-.58.1-1.68-.04-3.02-.5-3.65-.22-.76-.05-.9-.16-1.28-.22h.18l-2.9-.24c-.53-.01-.63.14-1.57.01.3-.04-.08-.06-.43-.1.23.01.3-.01-.16-.1-.07.01-.17.02-.26.02 0-.01-.02-.01-.01-.02-.6-.03-.5 0-.22.03-.01.01.01.02.1.05-.6-.14-1.7-.15-1.77-.27-1.78-.14-3.05-.14-4.53-.23-.16-.07.2-.1.62-.07l-1.05-.08c.02-.08.6.01.93.02-1.23-.24-2.58-.1-4.03-.36l-.3.04-.1-.02c0 .03-.33.05-.55.04-.2-.1.03-.16-.7-.22-.57-.12-1.63-.1-2.38-.15.4.05.27.08.1.08-.36-.03-.56-.12-.85-.1l-.03-.1c.13.1-.95.01-1.1.04-.2-.1.57-.01.66-.05l-2.18-.2c-.78 0 .13.1-.25.15-.7-.04-1.36-.04-2.14-.17l.24.1c-1.3-.05-2.06-.13-2.92-.3-9.63-.2-2.1.75-2.1.75 3.75.53 5.72.46 10.2.8 3.94.4 4.97.66 9.06.97l5.94.5c.92-.04 2.5.23 3.58.22l.4.1c.37 0 .8.01 1.17.08l-.03.02c.56 0 1.17.08 1.45.08l-.02.02.67.05-.12.02a34.03 34.03 0 0 1 2.82.22l-.06-.1c1.86.27 2.55.15 4.23.42l-.02.02c2.15-.03 3.35.46 5.56.45-.28 0 .1.06.1.07.06 0 .12.01.2.01-.05.27-.1.53-.1.7h-.1c-.02.3-.02.63-.03.94l.04-.35c.3.13-.24.7.01 1.38-.02.32.2.62.4.9.18.3.37.57.38.9.2.26-.3-.2-.07.2-.15.06-.15-.18-.24-.04.1.26.1.5.16.75l-2.2.16-.2-.07c-.1-.12-1.23.3-1.4.2l-.52.1c-.15-.01-.46 0-.2-.06-.5.04-.5.06-.84.13l-.53-.03c-1.92.12-3.54.42-5.56.58-2.44.07-7 .64-9.6.98-3.68.54-8.02.43-11.78 1-.12-.01-.44.06-.44.08l-3.46.3s-16.8 1.53-3.94 1.4l-.08.04c1.9-.1 3.1-.2 4.4-.47.22.15 1.56-.13 2-.1l-.04.02c1.14-.24 2.4-.1 3.5-.34-.04.02-.06.07-.32.1.8-.1 1.92-.24 2-.15 1.94-.2 4.65-.42 5.87-.7l-.08.04c.7-.17.9-.1 1.7-.23.04.01.1.01.1.02.76-.18 2.25-.23 2.87-.33l.05.06 1.53-.16-.58.04c.18-.2 1.17.01 2.27-.22 1.04-.07 2.08-.58 3.17-.6.5-.13-.44.18.32.04.03.1-.35.1-.15.15.75-.12 1.25-.02 2.18-.17l.05.07c1.2-.25 2.3-.12 3.1-.32 1.25-.18.86.14 2.16-.13l.52.05c.56-.04.4-.16 1.02-.17-.03.07.8-.02.43.07.97-.02 1.98-.2 3.1-.3.1.24.18.47.26.68-.54.43-1.1.96-1.35 1.05 0 0-1.26.98-1.46 1.3.2-.26-.5.28-.35.06-.27.32-1.16 1.15-1.6 1.4l.06-.07c-1.44 1.1-2.3 2.06-3.6 3.02.1.02-.58.53-.34.48-1.22 1.16-2.5 1.78-2.74 2.43-.57.5-.75.52-1.06.75l.13-.13-2.22 1.88c-.4.36-.35.54-1.1 1.12.2-.24-.1.01-.37.24.17-.15.2-.22-.18.05-.04.06-.1.13-.17.2-.01 0-.02.01-.02 0-.44.4-.35.35-.13.18 0 .02.02.01.1-.03-.52.33-1.3 1.1-1.44 1.07-1.35 1.16-2.26 2.06-3.37 3.04-.16.06.07-.2.4-.5l-.8.7c-.04-.07.43-.42.67-.64-1.05.7-1.9 1.75-3.1 2.6l-.2.24-.07.05c.03.02-.2.27-.36.42-.2.08-.1-.13-.65.34-.48.32-1.23 1.07-1.8 1.58.32-.25.24-.14.13-.01-.28.23-.48.3-.68.52l-.1-.05c.17-.02-.67.68-.75.8-.2.08.4-.4.43-.5l-1.67 1.4c-.55.55.17-.02-.07.28-.52.45-1 .93-1.63 1.4l.25-.1c-.95.88-1.55 1.36-2.27 1.85-6.94 6.67-.96 2-.96 2 3.02-2.28 4.37-3.72 7.8-6.65 3.07-2.5 3.98-3.05 7.1-5.72l4.55-3.85c.62-.68 1.93-1.6 2.7-2.38l.37-.2c.26-.26.58-.56.9-.77v.03c.4-.4.9-.77 1.08-.97v.03l.5-.44-.07.1c.7-.66 1.46-1.3 2.15-1.84l-.1-.02c1.5-1.12 1.9-1.7 3.28-2.7v.03c1.5-1.54 2.7-2.04 4.25-3.62-.2.2.12-.04.12-.01l.43-.38c.02.15.05.3.4.55l.06.36c.2.28.32.05.52.4-.1.05.27.42.04.32.52.75 1.44 1.04 2.28 1.86.2-.02.42.1.63.2a54.29 54.29 0 0 1-1.54 1.77l-.2.1c-.15-.01-.65 1.1-.85 1.14l-.3.44c-.1.1-.33.32-.2.1-.32.37-.3.4-.5.7l-.4.35c-1.28 1.44-2.2 2.8-3.52 4.34-1.68 1.77-4.5 5.4-6.1 7.48-2.22 2.98-5.37 5.98-7.62 9.04-.1.08-.27.36-.25.36l-2.23 2.67s-10.8 12.95-1.8 3.77l-.03.08c1.27-1.42 2.04-2.34 2.77-3.44.27-.05 1-1.2 1.34-1.5l-.02.04c.64-.98 1.6-1.77 2.23-2.7-.02.04 0 .1-.16.3.5-.64 1.18-1.53 1.3-1.5 1.22-1.52 3-3.58 3.66-4.64l-.03.08c.37-.62.57-.72 1.04-1.37.04-.02.08-.06.08-.05.4-.66 1.43-1.75 1.8-2.26l.08.01.97-1.2-.38.43c-.01-.27.83-.83 1.45-1.76.7-.8 1.06-1.88 1.82-2.66.26-.45-.18.44.26-.2.1.04-.18.32 0 .2.45-.62.87-.9 1.42-1.66l.08.02c.68-1.03 1.55-1.72 1.97-2.43.76-1 .7-.5 1.44-1.62l.4-.33c.37-.42.16-.4.6-.84.02.07.54-.57.36-.26.64-.67 1.2-1.46 1.88-2.3a2 2 0 0 0 .53.15c.08.02.17.03.25.04-.08.68-.1 1.46-.2 1.7 0 0-.2 1.58-.12 1.96-.04-.32-.15.55-.2.3.04.42-.01 1.64-.13 2.12v-.1c-.25 1.8-.16 3.08-.4 4.7.1-.07-.03.78.1.58-.04 1.68-.5 3.02-.22 3.65-.05.76-.16.9-.22 1.28v-.18l-.24 2.9c-.01.53.14.63.01 1.57-.04-.3-.06.08-.1.43.01-.23-.01-.3-.1.16.01.07.02.17.02.26-.01 0-.01.02-.02.01-.03.6 0 .5.03.22.01.01.02-.01.05-.1-.14.6-.15 1.7-.26 1.77-.14 1.78-.14 3.05-.23 4.53-.07.16-.1-.2-.07-.62l-.08 1.05c-.08-.02.01-.6.02-.93-.24 1.23-.1 2.58-.36 4.03l.04.3v.1c.03 0 .05.33.04.55-.1.2-.16-.03-.22.7-.12.57-.1 1.63-.15 2.38.05-.4.08-.27.08-.1-.03.36-.12.56-.1.85l-.1.03c.1-.13.01.95.04 1.1-.1.2-.01-.57-.05-.66l-.2 2.18c0 .78.1-.13.15.25-.04.7-.04 1.36-.17 2.14l.1-.24c-.05 1.3-.13 2.06-.3 2.92-.2 9.63.75 2.1.75 2.1.53-3.75.46-5.72.8-10.2.4-3.94.66-4.97.97-9.06l.5-5.94c-.04-.92.23-2.5.22-3.58l.1-.4c0-.37.01-.8.08-1.17l.02.03c0-.56.08-1.17.08-1.45l.02.02.05-.67.02.12a34.03 34.03 0 0 1 .22-2.82l-.1.06c.27-1.86.15-2.55.42-4.23l.02.02c-.03-2.15.46-3.35.44-5.56 0 .28.06-.1.07-.1.01-.22.03-.44.04-.65.2.06.38.12.57.16l-.1-.14c.42.12.56.4 1.08.24.23-.1-.4-.2.06-.2.57.14 1.47.27 2.23.22-.1-.13.12-.16.32-.22l.04.12c.76-.3.35.25 1.1-.08l.06-.12.16 2.26-.07.2c-.12.1.3 1.23.2 1.4l.1.52c-.01.15 0 .46-.06.2.04.5.06.5.13.84l-.03.53c.12 1.92.42 3.54.58 5.56.07 2.44.64 7 .98 9.6.54 3.68.43 8.02 1 11.78-.01.12.06.44.08.44l.3 3.46s1.53 16.8 1.4 3.94l.04.08c-.1-1.9-.2-3.1-.47-4.4.15-.22-.13-1.56-.1-2v.04c-.24-1.14-.1-2.4-.34-3.5.02.04.07.06.1.32-.1-.8-.24-1.92-.15-2-.2-1.94-.42-4.65-.7-5.87l.04.08c-.17-.7-.1-.9-.23-1.7.01-.04.01-.1.02-.1-.18-.76-.23-2.25-.33-2.87l.06-.05-.16-1.53.04.58c-.2-.18.01-1.17-.22-2.27-.07-1.04-.58-2.08-.6-3.17-.13-.5.18.44.04-.32.1-.03.1.35.15.15-.12-.75-.02-1.25-.17-2.18l.07-.05c-.25-1.2-.12-2.3-.32-3.1-.18-1.25.14-.86-.13-2.16l.05-.52c-.04-.56-.16-.4-.17-1.02.07.03-.02-.8.07-.43-.02-1.02-.2-2.05-.32-3.25.03-.02.04-.03.07-.06-.04.02-.05.01-.08.01-.01-.06-.01-.13-.01-.2a.45.45 0 0 1 .23-.11l-.05.15c.2-.1.24-.16.37-.2-.07.1-.02.15.14.1.02.03.04.06.07.08l-.05.08.06-.06c.43.55.98 1.14 1.07 1.38 0 0 .98 1.26 1.3 1.47-.26-.2.28.5.06.35.32.27 1.15 1.16 1.4 1.6l-.07-.07c1.1 1.44 2.06 2.3 3 3.6.02-.1.53.58.48.34 1.15 1.22 1.78 2.5 2.43 2.74.5.57.52.75.75 1.06l-.13-.13 1.87 2.22c.36.4.54.35 1.12 1.1-.24-.2.01.1.24.37-.15-.17-.22-.2.05.18.06.04.13.1.2.17 0 .01.01.02 0 .02.4.44.34.35.18.13.02 0 .01-.02-.03-.1.33.53 1.1 1.32 1.06 1.44 1.16 1.35 2.06 2.26 3.03 3.38.06.16-.2-.07-.5-.4l.7.8c-.07.04-.42-.44-.64-.67.7 1.05 1.75 1.9 2.6 3.1l.24.2.05.07c.02-.02.27.2.42.36.08.2-.13.1.33.65.3.5 1.07 1.23 1.58 1.8-.25-.32-.14-.24-.01-.13.23.28.3.48.52.68l-.05.1c-.02-.17.68.67.8.75.08.2-.4-.4-.5-.43l1.4 1.67c.55.55-.02-.17.28.07.45.52.93 1 1.4 1.63l-.1-.25c.87.95 1.36 1.55 1.85 2.27 6.66 6.96 2 .96 2 .96-2.27-3.03-3.7-4.37-6.63-7.8-2.5-3.07-3.04-3.98-5.7-7.1l-3.84-4.56c-.68-.62-1.6-1.93-2.37-2.7l-.2-.37c-.26-.26-.56-.58-.77-.9h.03c-.4-.4-.77-.9-.96-1.1h.03l-.44-.5.1.07c-.66-.7-1.3-1.47-1.84-2.16l-.02.1c-1.12-1.5-1.7-1.9-2.7-3.3h.03c-1.54-1.5-2.04-2.7-3.6-4.25.2.2-.04-.12-.01-.12l-.48-.55c.27-.16.5-.33.65-.3 0 0 .86-.52.9-.8-.08.22.36-.1.33.1.1-.28.6-.86.9-1l-.03.05c.06-.05.1-.1.17-.16l2.67.43c.3.2.93.52.97.67l.45.3c.1.1.33.33.1.18.37.3.4.3.7.5l.35.4c1.45 1.27 2.8 2.2 4.36 3.5 1.78 1.67 5.42 4.46 7.5 6.07 3 2.2 6 5.34 9.08 7.58.08.1.36.26.36.25l2.68 2.22s13 10.73 3.78 1.78l.08.03c-1.43-1.26-2.35-2.03-3.45-2.75-.05-.27-1.2-1-1.5-1.33l.04.02c-.98-.63-1.78-1.6-2.72-2.22.04.02.1 0 .3.16-.64-.5-1.53-1.18-1.5-1.3-1.52-1.2-3.6-2.97-4.66-3.64l.08.03c-.62-.37-.72-.57-1.37-1.03-.03-.04-.06-.08-.05-.08-.67-.4-1.76-1.42-2.27-1.78l.01-.08-1.2-.97.44.38c-.27.02-.83-.83-1.77-1.45-.8-.68-1.88-1.05-2.67-1.8-.46-.26.44.18-.2-.26.04-.1.32.18.2 0-.62-.45-.9-.87-1.67-1.4v-.08c-1.03-.67-1.72-1.54-2.44-1.96-1.02-.75-.5-.7-1.62-1.43l-.08-.1 17.05 2.73 27.2 4.4c-.08.3-.17.62-.25.9l-.57 1.95V402l-.7 2.08.1-.37a53.73 53.73 0 0 1-3.73 8.47l.2-.17c-1.53 2.66-2.63 4.44-3.8 6.1-.57.83-1.14 1.65-1.82 2.5l-1.07 1.34-1.3 1.44.03-.07c-2.24 2.68-4.28 4.58-6.44 6.34-2.18 1.74-4.44 3.42-7.46 5.4.75-.5-.35.17-.3.1-2.82 1.77-6.06 3.2-6.04 3.4-2.2 1-1.84.72-2.15.8.02.03-.46.25-1.16.55-.7.32-1.65.63-2.54.94l.82-.3c-1.7.6-3.44 1.12-5.2 1.58a13.01 13.01 0 0 0 1.07-.13c-2.8.66-.75.01-3.43.68l.06.1c-3.92.74-6.28.8-10.1.9-7.98.27-16.3-1.04-23.92-4-7.62-2.92-14.44-7.45-19.72-12.68l-.4-.52c-.14-.26-3-2.8-3.25-3.35l-1.18-1.27c-.28-.4-.9-1.22-.34-.56-.97-1.27-1.05-1.26-1.74-2.18l-.93-1.44c-3.48-5.24-6.03-10.03-8-16.38-1.1-3.83-2.3-9.48-2.52-15.3-.16-2.9 0-5.85.22-8.6.18-1.36.28-2.7.52-3.92l.3-1.8.36-1.66c1.25-5.96 3.85-12.13 7.37-17.72 3.54-5.6 8.03-10.57 12.73-14.64l.67-.56c.24-.2.43-.38.43-.38a59.98 59.98 0 0 1 9.54-6.2s.76-.4 2.04-1.03l2.3-1.05 2.93-1.16c4.24-1.58 9.72-2.86 13.98-3.35 2.13-.24 3.94-.4 5.14-.44 1.2-.08 1.76-.15 1.4-.22-.36-.04-1.66-.17-4.2-.1-2.53.06-6.33.32-11.52 1.55l.27-.1c-6.13 1.63-9.83 3.3-13.62 5.46-.34.1-1.48.74-2.68 1.46l-3.04 2 .1-.1c-3.1 2.3-6.4 4.78-8.93 7.54.07-.08.1-.16.35-.45-1.86 1.9-3.96 4.4-4.14 4.5a60.34 60.34 0 0 0-6.02 8.89c-1.75 3.15-3.04 6.2-3.7 8.2l.08-.28c-.4 1.1-.6 1.86-.88 2.6a26.92 26.92 0 0 0-.85 2.84c-.05.14-.1.3-.1.28-.16.62-.34 1.4-.52 2.24-.2.84-.4 1.74-.55 2.64-.36 1.78-.57 3.53-.68 4.57l-.08.13-.23 3.2c.16.67-.3 3.9.07 7.6.2 3.5 1.14 6.97 1.94 10.48.5 1.65-.5-1.43.2 1.04-.08.1-.38-1.14-.28-.48.73 2.42 1.03 4.03 2.23 6.92l-.02.15c1.62 3.74 3.14 7.03 4.65 9.3 1.17 1.75 1.48 2.4 1.88 3a17.57 17.57 0 0 0 .71 1.07c.3.46.75 1.05 1.47 1.88l.98 1.4c1.23 1.42.95.96 2.32 2.52-.13-.05 1.78 1.94.9 1.1 3.22 3.46 7.1 6.43 12.3 9.84.62.28 1.6.83 2.53 1.36.96.48 1.88.95 2.35 1.14.05.08 1.48.7 2.5 1.18 1 .45 1.6.7-.04.08-.28-.12-.76-.34-.72-.34l-.4-.1c3.18 1.6 6 2.4 9.36 3.34-1-.3-2.33-.68-1.42-.48 1.05.3 2.08.63 3.14.85l-.68-.1 2.36.57c.8.18 1.6.3 2.38.46l-.65-.2c1.16.24 1.95.4 2.78.52.83.12 1.7.28 3.05.3 1.2.03-2.23-.27.27-.1 3.15.33 7.93.4 11.96-.07-.4-.04.7-.17 1.8-.33l.14.06c4.22-.87 1.6-.04 5.75-1.07l-.36.14c.35-.14.7-.26 1.06-.42 3.66-1.2 2.06-.38 6.04-2-1.58.6-.8.14 1.15-.6l-.46.26 2.1-.9c-.6.32-.3.25 1.25-.46l-1 .55c.95-.48 1.92-.95 2.84-1.5 2.28-.98 5.54-3.18 6.44-3.66 0 0 .3-.17.7-.47l1.6-1.13c1.2-.9 2.46-1.92 2.9-2.35-.76.75 1.47-1.15.9-.54 1.05-.9 3.9-3.8 5.06-4.96l-.2.23c2.07-2.2 3.7-4.22 5.1-6.28 1.45-2.04 2.68-4.13 4.04-6.47-.2.18 1.16-2.34.74-1.76 2.42-5.03 4-9.4 4.2-11.42 0-.02.01-.03.01-.05l6.22 1.02c-.01.03-.03.07-.06.14-.7 2.7-1.33 4.4-2.52 7.6l-.12.1c-1.52 4.24-3.63 7.65-5.05 10.27-1.23 1.96-1.67 2.6-2.2 3.22-.25.3-.5.63-.86 1.12-.35.5-.8 1.16-1.54 2.12l-1.24 1.4c-1.37 1.53-.85 1.22-2.43 2.87.05-.14-2.03 2.05-1.15 1.04-3.65 3.63-7.6 7.27-13.5 10.7-.6.42-1.66 1.05-2.68 1.64l-2.52 1.36-2.76 1.22c-1.12.47-1.78.72-.03-.08.3-.15.83-.38.8-.35l.4-.26c-3.58 1.47-6.48 2.77-10.2 3.75 1.1-.3 2.55-.7 1.6-.38-1.15.3-2.28.68-3.45.9l.7-.23-2.6.58c-.87.18-1.74.3-2.6.47l.73-.05-1.67.26-1.4.14c-.92.08-1.86.24-3.32.38-1.32.16 2.46-.08-.27.15-3.47.26-8.7.17-13.1-.4.4.14-.78-.02-2-.15l-.13-.1c-4.64-.73-1.7-.38-6.24-1.33-.28-.03-.56-.05-.83-.1-4.1-1.02-2.15-.72-6.63-2.08 1.74.64.75.48-1.36-.4l.56.15c-1.18-.45-1.6-.56-2.35-.93.7.27.4.07-1.3-.7l1.17.43c-1.08-.44-2.17-.86-3.22-1.38-2.42-1.22-6.1-3.45-6.96-4.15 0 0-.3-.2-.76-.53l-1.75-1.25-3.26-2.46c.93.7-1.48-1.4-.74-.87-1.24-.86-4.46-3.95-5.6-5.33l.24.24c-2.2-2.46-4-4.62-5.6-6.84-1.63-2.2-3.02-4.46-4.4-7.07.05.28-1.34-2.52-1.08-1.8-2.87-5.45-3.94-10.44-4.85-12.47-.38-1.34-.5-2.17-.64-2.8a38.76 38.76 0 0 1-.32-1.84l.13.65-.6-3.27-.32-2.48c-.1-.75-.15-1.47-.2-2.24-.04-.77-.15-1.6-.16-2.56-.07-1.93-.3-2.24-.15-5.72.05 1.13.02-.3.14-1.6-.05.83-.05 1.1.12-.6a18.44 18.44 0 0 1 .03-.96c.01-.01.02-.08.02-.05.18-2.16.16-1.8.01-.8 0-.04-.02 0-.04.15l.52-3.8c.24-1.3.43-2.36.5-2.48.65-3.2 1.33-5.92 2.17-8.44.8-2.55 1.75-4.9 2.87-7.37.3-.53-.18.65-.8 2.1.53-1.17 1.02-2.36 1.63-3.5.03.03-.2.53-.53 1.15l-.87 1.95c1.98-4.13 4.15-8.52 7.44-12.8.2-.32.42-.6.63-.92l.2-.25c-.02 0 .15-.25.38-.58l.78-1.05c.55-.54.1.14 1.83-1.87.7-.78 1.76-1.85 2.83-3 1.13-1.1 2.3-2.3 3.34-3.18-1.13.97-.8.62-.33.18 1-.88 1.62-1.33 2.43-1.98h.12c.05-.08.6-.54 1.24-1.06.78-.62 1.7-1.26 1.9-1.43.66-.38-1.66 1.23-1.88 1.5l3.26-2.33c.57-.34 1.1-.77 3.4-2.12 2.44-1.48-.5.18.65-.57a54.48 54.48 0 0 1 7.05-3.52l-.87.3c4.34-1.94 7.1-2.73 10.2-3.5 2.98-.83 5.53-1.3 7.7-1.65a68.43 68.43 0 0 1 9.11-.63c.66 0 1.3.02 1.97.04l2.7.25 2.36.27 2.88.45c1.05.18 2.18.44 3.42.7 1.22.3 2.55.62 3.96 1.03l-.3-.06c6.7 1.92 10.7 3.76 15.03 5.88.3.27 1.53.98 2.86 1.75l2.68 1.7-.2.27-3.64 4.5.76-1-.84.98zm31.7 67.62h.02c-.05.27-.04.17-.02 0zm-.26.72c-.07.05.08-.56.1-.74.02 0 .04.01.06.01l-.17.73zm17.62 18.13c-.07-.05-.14-.1-.2-.15.1.05.22.1.34.13-.04.01-.08.02-.13.02zm14.45-15.34c.32-.05-6.3-1.12-3.36-.74l-37.88-6.24c-3.27-.33-10.75-1.67-13.2-1.92-.4-.15-15.04-2.47-6.58-1.3.73.1 2 .3 1.9.34l1.02.04c-8.47-1.62-15.47-2.4-23.88-3.8 2.5.45 5.8.98 3.58.7l-7.8-1.3 1.64.16-11.64-1.96 1.6.4-1.98-.35c-.3-.05-.6-.1-.87-.16-.25-.03-.47-.1-.7-.16-.87-.27-1.56-.73-2.08-1.32-.26-.3-.47-.62-.65-1a4.22 4.22 0 0 1-.38-1.28c-.13-.9.01-2.03.75-3.1.84-1.1-.12-.12-.48.52-.2.35-.3.65-.3.55.02-.04.05-.2.18-.46.06-.14.15-.3.27-.5.12-.2.27-.4.53-.7l18.66-22.36c-.7.62 1-1.43 2.7-3.55l.3-.17c6.5-8.2 2.64-2.8 9.1-10.9l1.02-1.52c5.74-7.4 3.4-3.74 9.73-12-2.6 3.2-1.44 1.32 1.8-2.56l-.72 1.07 3.5-4.36c-1 1.33-.42.8 2.17-2.4l-1.63 2.23 4.76-6.16 11.52-13.84 10-12.36c-1.56 2.08 3-3.4 1.8-1.75l1.53-1.97-.77-.75c.04 0 .16.03.44.24l.27.22.13.12.04-.04.8-.83.03-.03.04-.02a1.33 1.33 0 0 0 .3-.23c.13-.01.3-.06.4-.1h.05c.1-.01.22-.04.33-.07v.01l.27-.06c3.87-.92 8.34-1.93 10.7-2.37l-.73.18 37.26-8.38c-.62-.01 6.18-1.45 4.46-1.26l12.7-2.85c.1.9 0 1.84-.13 2.78-.2 1.28-.52 2.57-.86 3.84-.26.97-.55 1.94-.83 2.9-.7.15-1.25.25-1.56.27 0 0-5.36 1.12-6.55 1.57 1.05-.35-1.9.26-1.1-.06-1.36.44-5.43 1.46-7.1 1.7l.3-.08c-6.1 1.22-10.32 2.5-15.8 3.56.28.1-2.6.65-1.86.67-5.58 1.44-10.34 1.93-12.24 2.94-2.55.6-3.06.55-4.4.82l.6-.17-5.74 1.33 2.4 5.67c.76 1.66 1.1 1.82 2.32 4.85-.5-.93.03.3.5 1.4-.32-.7-.45-.92.1.58.12.2.27.5.4.8 0 .02.02.08-.01.05.83 1.86.72 1.52.36.65.03.04.02-.04-.07-.32.7 2 2.3 5.43 2.23 5.74l6.34 14.26c.14.56-.4-.5-1-1.85l1.44 3.32c-.14.02-.88-1.9-1.34-2.9 1.47 4.05 3.65 8.1 5.43 12.83l.5.92.1.28c.05-.04.56.98.86 1.66.17.7-.27.06.7 2.36.66 1.87 2.23 5.15 3.3 7.52-.52-1.3-.3-.9-.02-.37.5 1.15.66 1.86 1.08 2.73l-.08.13c.17.1 1.42 3.02 1.63 3.4.17.7-.85-1.75-1.05-2l2.94 6.92c1.15 2.42-.05-.5.57.62.95 2.16 1.94 4.24 2.9 6.78l-.2-.84c1.82 4.05 2.84 6.5 3.87 9.3l.75 1.62c-2 .3-3.55.88-5.13 1.53-1.15.56-2.33 1.2-3.62 2.1-1.06-2.4-2.25-4.94-3.35-8.02-.62-.93-1.5-3.32-1.95-4.02.03-.16-1.97-4.7-.68-2.15.1.22.28.62.23.6l.25.27c-.9-2.75-2.15-4.78-3.23-7.42.3.8.74 1.83.37 1.17l-1-2.45.3.47-1.48-3.66.1.55c-.7-1.8-.75-2.52-1.77-4.45-.48-.87.55 1.75-.28-.1l-3.55-9.1c-.01.34-.35-.48-.73-1.3l.07-.15c-1.52-3.16-.25-1.3-1.72-4.44l-.4-.5c-1.44-2.8-.42-1.66-2.08-4.74.55 1.26 0 .7-.6-.88l.28.35c-.4-.85-.56-1.12-.78-1.7.28.5.28.2-.28-1.06l.5.8-1.22-2.32c-.66-1.9-2.05-4.78-2.22-5.6 0 0-1.6-4.02-2.16-4.86.44.76-.44-1.46-.05-.9-.56-.98-1.94-4-2.33-5.27l.1.23c-.9-2.3-1.75-4.2-2.58-6.06l-1.23-2.78-.6-1.43-1.1-2.7c.03.23-.24-.36-.53-1-.63.8-1.3 1.66-.93 1.37l-1.62 2.04-1 1.2-1.85 2.13c-1.12 1.3-1.97 2.34-2.27 3.16-1.3 1.62-1.66 1.8-2.36 2.62l.3-.4-4.97 6.13c-.87 1.15-.8 1.5-2.5 3.44.45-.7-.2.12-.82.86.38-.5.47-.66-.4.28-.1.16-.25.38-.4.6-.01 0-.05.04-.04.01-1 1.27-.8 1.07-.3.5-.01.04.04 0 .2-.16-1.16 1.2-2.95 3.6-3.2 3.65-3.04 3.77-5.1 6.56-7.6 9.72-.36.3.17-.5.9-1.42l-1.8 2.23c-.1-.1.98-1.32 1.52-2.02-2.33 2.5-4.28 5.56-6.96 8.52l-.44.7-.16.17c.05.03-.46.77-.82 1.24-.45.36-.18-.2-1.43 1.33-1.08 1.14-2.77 3.47-4.02 5.1.7-.84.54-.52.27-.13-.62.77-1.07 1.13-1.52 1.75l-.14-.02c0 .18-1.57 2.12-1.73 2.4-.45.36.9-1.25.98-1.5l-3.75 4.6c-1.25 1.7.36-.2-.18.67-1.16 1.46-2.23 2.94-3.66 4.54l.54-.44c-2.14 2.78-3.48 4.4-5.1 6.13l-3.4 4.57-3.86 4.7c.23-.2.44-.35.56-.4 0 0 .24-.18.52-.42l-.7 1.02c-1.05-.06-1.28.03-.24.37-.94 1.5-.44 1.15.53.16 1.7.5 5.26 1.34 11.5 2.7l-.24.01c5.1.95 8.3 1.5 11.85 1.84.5.38 4.2.72 5.37 1h-.12c3.15.3 6.4 1.23 9.42 1.53-.12 0-.2.07-.9-.04 2.2.32 5.2.75 5.33.94 5.23.8 12.5 2.08 15.9 2.36l-.24.01c1.94.13 2.47.38 4.62.64.1.04.26.08.24.08 2.1.16 6.07.96 7.76 1.16l.1.13 4.14.65-1.54-.28c.58-.2 3.1.7 6.13 1 2.8.5 5.8.3 8.7.93 1.4.1-1.26.03.83.26.04.17-1-.06-.47.15.64.08 1.2.18 1.76.3-.8 2.18-1.24 4.6-1.3 6.84a8.64 8.64 0 0 1 0 1.02c0 .38.04.8.05 1.2.01.1.01.2.02.3-.64-.08-1.58-.23-3.1-.5zm33.98-23.5c1.1-1.36 1.2-1.56 1.36-1.7.12-.16.34-.27.97-1.83l-.2-.04c.23-.55.43-1.08.6-1.6-.04.3-.06.6.01.73-.07-.28-.1.48-.18.27.06.37.3 1.37.4 1.78l-.04-.07c.03.1.07.2.1.3l-1.9 2.8-.33-.12c-.3-.12-.62-.2-.94-.3l.23.02c.3-.36.6-.74.85-1.13-.3.3-.58.63-.94.9zm-30.18 8.06c.04.15-.65-.02-.5.2-1.4 0-2.46-.7-3.03-.2-.63-.05-.72-.23-1.04-.3l.15-.01c-1.18-.1-1.52-.15-2.4-.27-.44 0-.55.25-1.32.1.27-.07-.05-.1-.35-.13.2.01.25-.02-.12-.14-.06.03-.14.03-.22.04 0-.01-.02-.02-.01-.03-.5-.03-.4.02-.2.06-.01.01 0 .04.07.08-.5-.2-1.4-.17-1.44-.36-1.47-.15-2.54-.1-3.76-.2-.12-.1.17-.15.53-.14l-.87-.08c.03-.13.5-.01.78 0-.5-.18-1.07-.2-1.57-.2-.44-.03-.96-.15-1.3-.52l-.23-.04-.03-.05c-.03.04-.26-.04-.37-.15-.01-.2.2-.16-.1-.54-.1-.35-.5-.9-.52-1.43-.02.27-.08.2-.13.07.01-.25.14-.4.1-.65l.16-.01c-.16.1-.08-.8-.14-.92.13-.16.06.47.14.56l.1-1.12c.04.01.08.03.12.04l1.72.55 1.8.5c1.23.37 2.6.7 4.17 1.1l-.1.01 10.54 1.73c1.7.23 3.44.44 5.3.6l-.58.6c-.6.6-1.07 1.2-1.53 1.8-.02-.01-.04-.01-.06-.02l.08-.01c-1.47-.35-2.57-.15-3.87-.5zm-3.02 1.87l-.02.03.55.06-.1.04a13.2 13.2 0 0 1 2.33.25l-.04-.15c1.24.3 1.87.2 2.8.36a21.67 21.67 0 0 0-1.37 2.7c-3.98-.82-10.12-1.8-15.9-2.65l.17-1.9c.38.05.78.1 1.24.14 1.6.23 3.33.4 4.9.57.77-.1 2.06.27 2.97.2l.33.16c.3-.02.67-.01.97.1l-.02.03c.45-.05.96.07 1.2.06zm-12.63-.75c-.1.18 0-.52-.04-.6l-.2 1.82-5.9-.86a63.01 63.01 0 0 0 .18-3.39c.1-2.05.05-4.1-.06-6.12.2.1.42.22.6.32l1.62.66a63.11 63.11 0 0 1-.11 2.42c-.1 1.06.16 2 .55 2.68.4.7.9 1.22 1.46 1.62.55.38 1.16.65 1.9.8 0 .25-.03.6-.01.66zm-24.42-8.58c.07 1.02.08-.27-.03-1.45.07.75.1.98.03-.57-.04-.22-.07-.55-.1-.87 0-.01 0-.08.01-.04-.2-1.96-.23-1.6-.1-.7-.01-.04-.02.03-.01.32-.07-1.02-.25-2.44-.42-3.62-.2-1.18-.38-2.15-.35-2.28-.62-2.9-1.3-5.36-2.13-7.63-.78-2.3-1.72-4.38-2.77-6.6-.18-.53.34.5.95 1.8-.5-1.06-.95-2.13-1.5-3.16.04 0 .28.44.58 1l.8 1.76c-1.58-3.87-4-7.62-6.8-11.62-.2-.27-.45-.5-.67-.77l-.17-.24c-.02.03-.73-.8-1.2-1.36-.4-.57.16-.07-1.43-1.9-.48-.6-1.2-1.35-2-2.15l3.82-4.64c2.07 2.05 4.45 4.8 4.5 5.03 2.28 2.73 4.7 6.27 6.62 9.7 1.93 3.44 3.4 6.77 4.27 8.88l-.14-.28c.55 1.18.78 2 1.07 2.83.3.83.55 1.7.97 3.1.03.16.08.36.07.33.24.67.45 1.52.67 2.44s.46 1.9.62 2.9c.4 1.97.6 3.9.76 5.03l-.05.15c.17 1.88.35 3.75.37 5.64-.02-.7-.01-1.4-.05-2.1.2.7.1 4.12-.06 8.1l-6-1.1c.01-.24.03-.48.03-.74 0-1.75-.1-2.03-.16-5.18zm-9.58-4.33l.08-.04c-1.9.12-3.1.22-4.4.5-.22-.15-1.56.14-2 .12h.04c-1.14.25-2.4.12-3.5.35.04-.02.06-.07.32-.1-.8.1-1.92.25-2 .16-1.94.22-4.65.44-5.87.72l.08-.04c-.7.18-.9.1-1.7.24-.04-.01-.1-.01-.1-.02-.76.18-2.25.24-2.87.35L144 379l-1.53.17.58-.04c-.18.2-1.17 0-2.27.23-1.04.08-2.08.6-3.17.6-.5.14.44-.18-.32-.04-.03-.1.35-.1.15-.15-.75.12-1.25.03-2.18.18l-.05-.07c-.98.2-1.9.17-2.63.26l-6.1-.78c1.26-1.33 2.95-3.28 3.58-4 1-.83 1.76-1.6 2.8-2.36-.1-.02.58-.53.34-.48 1.22-1.15 2.5-1.78 2.74-2.43.57-.5.75-.5 1.06-.75l-.13.13 2.22-1.87c.4-.36.35-.54 1.1-1.12-.2.24.1-.01.37-.24-.17.15-.2.22.18-.05.04-.06.1-.13.17-.2.01 0 .02-.01.02 0 .44-.4.35-.34.13-.18 0-.02-.02-.01-.1.03.53-.33 1.32-1.1 1.44-1.06 1.35-1.16 2.26-2.06 3.38-3.03.16-.06-.07.2-.4.5l.8-.7c.04.07-.44.42-.67.64 1.05-.7 1.9-1.75 3.1-2.6l.2-.24.07-.05c-.02-.02.2-.27.36-.42.2-.08.1.13.65-.33.5-.3 1.23-1.07 1.8-1.58-.32.25-.24.14-.13.01.28-.23.48-.3.68-.52l.1.05c-.17.02.67-.68.75-.8.2-.08-.4.4-.43.5l1.67-1.4c.55-.55-.17.02.07-.28.52-.45 1-.93 1.63-1.4l-.25.1c.95-.87 1.55-1.36 2.27-1.85 6.96-6.66.96-2 .96-2-3.03 2.27-4.37 3.7-7.8 6.63-3.07 2.5-3.98 3.04-7.1 5.7l-4.56 3.84c-.62.68-1.93 1.6-2.7 2.37l-.37.2c-.26.26-.58.56-.9.77v-.03c-.14.14-.3.27-.43.4 3.9-4.75 7.03-8.95 12.6-15.87l9.7-11.46c2.37 2.44 4.05 4.62 5.65 6.84.6.85 1.2 1.7 1.76 2.62l.9 1.4.87 1.52a58.6 58.6 0 0 1 3.66 7.63c1.15 2.97 2.16 6.13 2.83 9.34.68 3.2 1.1 6.46 1.28 9.57a72.86 72.86 0 0 1 .12 2.59c.02.96-.03 2-.06 3.07-.01.1-.02.22-.02.33-5.18-.97-10.37-1.93-15.28-2.55-.33-.08-1.2-.16-1.2-.13l-9.33-1.56-12-1.9c.02 0 .04 0 .06-.01 2.44-.08 6.98-.68 9.6-1.02 3.67-.56 8.02-.47 11.78-1.06a1.57 1.57 0 0 0 .44-.08l3.46-.32c.03.02 16.8-1.6 3.96-1.4zm-3.88-40.43l.47.45c-.1-.07-.16-.13-.5-.43l.02-.02zm20.14 5.78c-3.4-5.72-7.6-11-12.27-15.47l3.93-4.87c1.4-2.04 4.33-5.28 6.04-7.65l.8-.8c.6-.82 1.3-1.76 2-2.5v.07c.88-1.22 2-2.5 2.44-3.1l-.01.07 1.15-1.42-.16.27 2.14-2.73.77-.95.22-.25.06.18c.02-.08.04-.16.05-.25.03.1.06.2.1.28l.04.12.1.24.6 1.42 1.06 2.43c.68 1.53 1.33 3 2.13 5.16l-.06-.04c1.06 2.12 1.8 3.93 2.5 5.7l-.13.77c-.68 3.6-1.75 7.28-2.85 10.96l-3.24 10.9c-.37 1.72-1 4.05-1.57 6.5-.37 1.56-.68 3.16-.9 4.66-1.4-3.3-3.03-6.55-4.9-9.7zm34.28 65.27l.05.22-.32-1.92c-.08-.5-.06-.96-.1-1.6-.06-.65-.27-.75-.15-1.92.04.38.06-.1.08-.53 0 .28.01.37.1-.2-.02-.08-.02-.2-.03-.33.01 0 .01-.03.02-.01.04-.73.04-.6-.04-.27-.01-.02-.03.01-.05.1.18-.74.3-2.1.42-2.16.46-2.13.83-3.68 1.6-5.35.14-.16 0 .25-.2.73l.54-1.18c.07.05-.28.7-.44 1.06.76-1.33 1.3-2.92 2.5-4.3l.17-.34.07-.08c-.03-.02.18-.37.33-.6.22-.15.1.12.7-.55.27-.24.6-.62.94-1.02l1.1-1.1c-.38.33-.28.2-.14.03.33-.3.56-.43.83-.65l.1.05c-.2.04.88-.78 1-.9.24-.1-.52.47-.58.58 1.43-1.08.7-.55 2.23-1.5.78-.56-.2.01.16-.3.72-.46 1.47-.83 2.37-1.2-.1.01-.2.04-.3.05 1.47-.66 2.38-1 3.46-1.14.36-.1.7-.22 1-.33l.92-.2.65-.15c1.02-.14 2.05-.23 3.1-.23.22 0 .44.02.66.02a18.08 18.08 0 0 0 .92.16 29.35 29.35 0 0 0 .8.12l.96.23 1.15.27c.4.12.84.28 1.3.43h-.1c1.14.28 2 .7 2.8.97.8.32 1.5.66 2.25.94.13.3 1.65 1 2.06 1.37h-.05c.6.38 1.2.82 1.73 1.3a17.42 17.42 0 0 0 .63.6c-.36.34-.7.67-.83.84.28-.35-.64.44-.43.15-.2.23-.6.65-1.04 1.06-.05-.04-.1-.08-.14-.12l.13.13c-.01.01-.03.02-.04.04-.02-.01-.04-.02-.06-.04-.28-.26-.4-.46-.66-.6l.03-.1c.07.16-.86-.53-1-.58-.13-.2.5.3.62.32-1.24-.92-.6-.47-1.93-1.27-.74-.36.08.15-.3.02-.63-.36-1.3-.56-2.02-.98.07.06.14.13.2.2l-2.9-1-.87-.16-.8-.06c-.5-.03-.92-.07-1.28-.07-.74.04-1.25.08-1.57.12-.66.1-.6.2-.25.28.35.1 1 .18 1.55.24.28.02.53.08.72.1l.3.06c1.02.18 1.87.4 2.68.66-1.45 2.16-2.67 4.03-3.4 5.26-.74-2.1-1.97-5.2-2.48-6.5.5-.08.78-.16.64-.24-.1-.07-.52-.13-1.32-.2-.4-.05-.9-.04-1.5 0l-1 .06-1.17.2.08-.05c-1 .18-1.76.52-2.47.76-.68.3-1.27.64-1.86 1-.27-.03-1.44.82-1.85 1.07l.03-.04c-.45.43-1 .76-1.5 1.15-.48.4-1 .78-1.36 1.26.02-.03.01-.07.08-.16-.57.63-1.25 1.42-1.34 1.4l-1 1.35c-.32.5-.62 1-.92 1.5-.52 1.03-.97 2-1.1 2.65l.01-.1c-.14.75-.37.9-.5 1.75-.02.04-.05.1-.05.1-.04.42-.23.98-.3 1.56-.1.57-.2 1.12-.22 1.45l-.07.04c-.04.54-.05 1.1-.08 1.63l.05-.6c.1.1.04.42-.02.85s-.04.98.04 1.57c-.01.56.2 1.1.36 1.65.1.27.17.54.24.82.1.27.17.54.22.82.22.5-.25-.43.01.34-.1.05-.15-.35-.17-.13.22.77.27 1.3.67 2.2l-.06.07c.6 1.14.92 2.28 1.5 2.95.55.82.46.93.76 1.34-.54.4-1.34 1.2-2.03 1.9-.68-.87-1.27-1.73-1.8-2.77-.04.12-.45-.84-.44-.56-.24-.45-.47-.9-.64-1.3l-.4-1.2c-.26-.73-.4-1.3-.66-1.63-.24-.9-.23-1.1-.28-1.57zm29.06-13.6c.13 0-.78.75-.5.64-1.22 1.2-2.42 2.07-3.13 2.78-.2-.1-.43-.14-.64-.3l.05.12c-.47-.12-.73-.22-1.03-.38-.92-.06-1.4.1-1.62.22-.23.1-.2.2-.1.28.24.15.84.26.84.28 1.15.4 1.83.38 3.06 1.24.48.45.7.8.92 1.15.2.36.4.72.7 1.32.23.6.4 1.25.44 1.87.15.3.01.82.05 1.18l-.1.12c.02.13.02.27-.05.38l-.02-.01c0 .2-.07.38-.08.47l-.02-.01-.07.2-.02-.05c-.04.32-.2.62-.34.87l.1.02c-.4.48-.38.78-.84 1.14l-.01-.02c-.32.7-.9.67-1.38 1.23.06-.07-.06-.02-.06-.04-.27.2-.6.35-.53.52-.23.1-.2.03-.26-.01.03.07-.16.17-.35.25l.08-.06c-.17.08-.35.13-.53.18l.14.1c-.3.04-.12-.15-.4-.04l.03.1c-.42.04-.7-.1-1.08-.17-.8 0-1.66-.07-2.46-.34-.8-.26-1.53-.72-2-1.33l.01-.1c.07-.1-.42-.18-.37-.3l-.16-.1c-.01-.05-.06-.15.02-.1-.1-.13-.1-.12-.2-.2l-.04-.2c-.3-.56-.68-.98-.86-1.64-.1-.8-.36-2.3-.17-3.22.04-.64.4-1.27.8-1.8.42-.54.9-1 1.32-1.48.04-.02.1-.1.1-.12.3-.24.64-.44 1-.62 0 0 .08-.04.2-.1.13-.07.3-.15.53-.23.43-.2.98-.32 1.42-.44.44-.1.76-.2.68-.34-.08-.1-.56-.4-1.84-.36l.03-.04c-.74.12-1.2.33-1.58.68-.15-.1-.54.3-.7.35l.01-.02c-.3.37-.82.5-1.05.9 0-.02-.03-.07.04-.14-.2.25-.47.6-.56.56-.5.6-1.03 1.56-1.04 2.1v-.04c.01.3-.12.34-.14.66-.02.01-.03.03-.03.03.01.3-.17.86-.15 1.1l-.07.01v.6l.03-.22c.18.08-.15.45.01.9.01.42.46.76.48 1.16.13.17-.18-.13-.04.13-.1.03-.1-.12-.15-.03.1.27.04.5.23.8l-.06.04c.07.08.1.17.15.26l-1.04.98c-1.44-.27-3.4-.6-6.95-1.08l-3.8-.78c-.06-.47-.1-.95-.1-1.43a8.57 8.57 0 0 1-.03-1.34l.04-1.3c.13-.83.15-1.63.33-2.27.15-.93.45-1.87.85-2.8 1.27.16 2.48.37 3.6.58l2 .37 1.14.17c.46.06.9.12 1.28.15l1.6.25c.05.01.12.03.16.02l-.06-.15c-.04-.1-.07-.18-.1-.27-.07-.17-.13-.33-.18-.48-.22-.58-.34-.98-.48-1.4l-.24-.7a31.11 31.11 0 0 0-.28-.73 21.38 21.38 0 0 0-.82-1.76l-.38-1.35c-.55-1.38-.62-.97-1.16-2.4.35-.26.7-.53 1.07-.75.5-.3 1-.62 1.5-.88 0 0 .24-.1.63-.3l.7-.34c.27-.1.58-.22.9-.34 1.3-.54 2.98-.88 4.28-1.12.02 0 .04-.01.07-.01l3.4 6.95c-.56.98-.58 1.22.2.37 1.03 1.88.9 1.18.37-.42.83-.96 2.25-2.72 4.37-5.46l.78.27c1.4.6 2.87 1.27 4.63 2.68.08.07.14.13.2.2-.1.1-.22.18-.3.24l.1-.1c-1.96 1.6-3.14 2.94-4.87 4.36zm-19.88-3.7l.4-.38c.13.27.22.48.25.62-.08 0-.17 0-.28-.03l.15-.1c-.3-.01-.4.03-.57-.02.06-.02.1-.05.06-.1zm.07 1.87c.01-.12.55-.1 1.02-.05l-.22.02.52.05c.13.38.27.8.01.3.5 1.23.55 1.24.98 2.1l.1.34c.03.1.08.26.07.26a.54.54 0 0 1 0 .18l.07.2c.01.05.1.17-.02.12a6.13 6.13 0 0 1-.42-.07l-3.43-.5-2.24-.33c.2-.36.42-.72.66-1.07.4-.57.8-1.1 1.24-1.64.58.04 1.07.03 1.1-.17.6.08.5.15.55.27zm-4.5 29.22l-.32-.02.3.03-.06.05c-.3-.01-.87-.2-1.54-.17-.8-.08-1.64.26-2.46.1h-.02l3.62-3.37c4.1-3.62 5.28-4.47 9.46-8.3l2.46-2.22c.02.12.01.2.26.4l.04.22c.14.18.2.04.33.25-.06.03.17.27.03.2.28.4.74.62 1.2.98-3.14 2.76-6.63 5.55-9.52 8.38-.14.1-.44.43-.43.44l-3.36 3.02zm2.82-1.1c.01 0 .01-.01.02-.02l-.02.02zm6.9 4.08c-.01-.02-.02-.04-.03-.05.02.02.05.02.1.07-.02-.01-.05-.02-.07-.02zm27.16-31.93c.62 1.16 1.18 2.24 1.5 2.95l-.06-.1c.38.8.46 1.04.73 1.98 0 .06.01.12 0 .1.15.45.4 1.1.48 1.78.1.67.2 1.3.27 1.7l-.06.06c.06.63.08 1.26.12 1.9l-.02-.7c.1.12.1.48.08.98s-.13 1.14-.1 1.83l-.05 1.97-.04 1a5.94 5.94 0 0 1-.24.99c-.08.65.01-.58-.17.37-.1.01.05-.45-.08-.23a6.98 6.98 0 0 1-.36 1.22 13.53 13.53 0 0 0-.5 1.34l-.1.02c-.44 1.45-1.25 2.55-1.7 3.45-.75 1.37-.73.76-1.57 2.15l-.46.44c-.48.5-.24.45-.8.98-.02-.08-.7.68-.43.3l-1.97 1.82c-.74.58-1.52 1.25-2.56 1.73-.18.18-.52.4-.86.62-.35.18-.7.35-.84.47-.04-.01-.56.24-.93.4-.38.16-.6.22-.03-.08.1-.06.27-.14.27-.1l.1-.13c-.6.24-1.15.42-1.7.66-.53.24-1.07.48-1.7.6.37-.07.86-.2.55-.07l-1.16.3.23-.12c-.57.15-1.15.28-1.74.33l.25.04c-.87.07-1.18.05-2.14.22-.44.08.83.06-.08.13-.58-.01-1.3.04-2.07-.01-.76-.08-1.57-.1-2.3-.22.13.1-.27.04-.68 0l-.04-.08c-1.57-.15-.55-.2-2.07-.5l.14-.02-.44.05c-1.26-.2-.83-.3-1.82-.56-.35-.57-.94-1.14-.92-1.23-.6-.56-1.48-1.1-2.38-1.3-.44-.1-.9-.15-1.25-.16-.27-.01-.5 0-.7.01-.14-.1-.3-.22-.46-.35-.43-.33-.93-.66-1.13-.77.2.13-.02-.1-.15-.27.62-.65 1.34-1.24 2.04-1.83.7.54 1.45 1.08 2.33 1.7.22.06.53.24.83.4.3.14.6.28.78.3.01.04.46.25.78.42.32.15.5.24-.03.08-.1-.03-.24-.1-.23-.12l-.15.01c.48.33 1 .46 1.48.6.5.16 1 .28 1.54.4-.32-.1-.75-.2-.45-.2l1 .27-.23.01c.5.15 1 .28 1.52.35l-.2-.1c.74.14 1 .36 1.86.3.4-.04-.7-.14.1-.12.5.04 1.14.14 1.8.15.67-.02 1.38.01 2.03-.07-.13-.07.22-.12.57-.2l.05.07c1.34-.33.54.13 1.86-.3l.2-.16c1.15-.45.7-.01 1.93-.66-.5.2-.3-.07.34-.26l-.13.12.67-.3c-.18.13-.06.15.42-.1l-.3.24.87-.57c.77-.24 1.75-1.05 2.1-1.1 0 0 .1-.05.23-.15.13-.1.32-.23.5-.37.38-.3.8-.6.9-.78-.2.28.5-.33.36-.1.28-.36 1.2-1.27 1.6-1.63l-.06.08c1.4-1.36 1.97-2.66 2.93-4.1-.1.03.33-.77.13-.62.17-.42.36-.8.53-1.16l.42-1.02c.28-.62.4-1.14.3-1.5.17-.8.34-.9.4-1.32l-.01.2c.2-1.5.3-1.94.32-3.07-.01-.57-.13-.65-.16-1.65.08.32.05-.1.03-.46.02.24.05.3.07-.18-.02-.07-.04-.17-.06-.27l.01-.02c-.07-.62-.1-.5-.06-.22-.01-.01-.02.01-.03.1 0-.65-.27-1.8-.17-1.9a18.04 18.04 0 0 0-1.68-4.48c-.03-.18.18.13.4.53l-.5-1c.08-.03.32.56.48.86-.34-.96-.93-1.86-1.57-2.8l.52-.35c.6-.5.33-.46 1-1 0 .08.84-.7.5-.3.1-.08.18-.16.28-.23.37.52.7 1.1 1.05 1.63zm-11.16 6.86c.1.05-.33.38-.08.25.52-.5.98-.84 1.5-1.3l-2.8 3.94c0-.04.01-.07.03-.08-.12-.47-.3-.82-.47-1.16.44-.5.9-1 1.42-1.4.5-.55-.36.52.4-.24zm6.6-5.57a2.47 2.47 0 0 0 .29-.22c.52.83 1.03 1.8 1.63 3.18.73 1.8 1.17 3.86 1.27 5.76.04.22.07.5.1.8.01.3-.02.6-.03.94l-.05.97c-.03.3-.07.6-.08.88l-.13.4c-.01.37-.07.8-.2 1.15l-.01-.03c-.01.07-.03.15-.04.22-2.8-1.86-5.83-3.56-8.82-5.2l6.08-8.85zm4.94-9.75c.05.02.1.04.14.06-.16-.05-.22-.05.1.12.05 0 .13.02.2.03.43.16.36.12.17.03.01-.01 0-.02-.05-.06.4.25 1.2.47 1.22.6.48.18.9.32 1.3.46-1.67 1.52-3.32 3-4.92 4.34l-.26.12c-.18-.02-1.16 1.3-1.42 1.37l-.5.53c-.17.12-.5.4-.25.13-.5.45-.5.47-.84.83l-.6.42c-2.02 1.73-3.6 3.36-5.7 5.2a67.45 67.45 0 0 0-2.23 1.91c-.18-.25-.4-.5-.55-.8l-.12-.06v-.03c-.03.02-.14-.05-.2-.1 0-.1.13-.1-.07-.3-.1-.22-.46-.44-.7-.6.1.1.04.1-.02.08-.07-.06-.1-.12-.14-.17l.64-.6-.1.13a61.42 61.42 0 0 1 2.89-2.64h-.13c2-1.65 2.57-2.42 4.4-3.9l-.01.04c2.04-2.14 3.57-3 5.7-5.2-.26.27.15-.08.14-.04.8-.77 1.66-1.54 1.94-1.9zm-8.76-3.9c.43.47.94.86 1.5 1.25-.02-.1.6.27.5.1 1.27.4 2.1 1.08 2.65.94.54.2.6.33.88.45l-.13-.03c1.02.37 1.3.5 2.06.8.04.01.07.01.1.02l-.15.17c-.8.63-1.95 1.78-2.33 2 0 0-.12.1-.3.26-.3-.26-.57-.52-.88-.75-.1-.13-.47-.32-.47-.32-.6-.43-1.17-.93-1.8-1.3s-1.25-.8-1.92-1.14l-.8-.4c-.1-.04-.2-.1-.3-.14.44-.62.9-1.23 1.4-1.88zm1.78-8.7c-.14.03-.3.1-.7.48.35-.26.25.02-.18.3l.06-.14c-.23.18-.26.28-.42.4.1-.14-.02-.15-.3.17.04-.1.08-.2.14-.27-.16.23-.32.46-.45.7-.3.27-.52.74-.7 1.1.3-.97.54-1.88.78-2.78.05-.2.1-.4.14-.58l1.68.6c-.01 0-.03 0-.05.01zm25.98-22.8l-.14.2c-.07.03-.1.32-.15.64-.02 0-.05 0-.07.01-.22.05-.44.1-.65.2a4.34 4.34 0 0 0-.57.28c-.3.18-.58.34-.87.5-.6.3-1.2.6-1.9.83-1.66.5-4.07 1.1-6.58 1.22-2.5.13-5.06-.26-6.87-.8-3.58-.98-7.4-3.1-9.75-6.1-.17-.24-.4-.42-.63-.57.04-.1.06-.17.06-.17a66.82 66.82 0 0 0 1.3-4.18 1.09 1.09 0 0 1 .11.06l-.08.03a17.29 17.29 0 0 0 1.2.41c.1.2.53.4.53.4.8.42 1.3.3 2.3.54.87.3 1.06.52 2 .72.43.14.9.24 1.34.34.24-.06.56.16.83.13l.07.1c.1-.01.2-.01.27.05l-.01.02c.14-.02.27.05.34.05h-.01l.15.03-.03.02c.23.01.45.07.64.15l.01-.06.2.06c.06.02.1.04.17.05l.45.12c.04.02.08.03.12.06l-.01.02c.1-.01.16 0 .23.01l.24.06c.24.1.44.27.8.23-.07.01.01.05 0 .07.2.04.4.08.5-.02a.77.77 0 0 0 .15.02c.02.03.01.06.01.1.02-.07.17-.06.3-.03h-.07l.37.08-.02-.1h.07c.03.06-.03.1.12.13l.03-.1c.27.1.38.3.6.47 1.07.36 2.32.4 3.27.9l.02.1c-.02.13.33-.1.34.02l.13-.02c.03.03.1.08.02.1.1.04.12.02.2 0l.1.1c.4.18.82.14 1.26.3.5.3 1.56.47 2.17.55.88.06 1.7.83 2.6.86a.09.09 0 0 0 .11-.01l.77.24s1.48.45 1.94.32c.02.01.04.03.06.05-.04.07-.06.15-.08.22zm.92-1.9c-.06.03-.13.06-.22.07-.02-.04-.3-.16-.07-.15-.36-.1-.38-.08-.65-.1l-.35-.24c-1.4-.5-2.67-.6-4.15-1.07-1.72-.77-5.16-1.48-7.15-1.9-2.83-.47-5.76-2.18-8.67-2.63-.08-.05-.34-.06-.34-.03l-2.55-.75-1.8-.5-1.6-.4c-.37-.1-.68-.35-.88-.6-.4-.54-.36-1.17-.64-1.08-.07.03-.2.16-.3.4 0-.15 0-.3.03-.45l.5-1.87c-.28 4.07.77 1.56 1.13.6 2.65 1.34 5.55 2.43 8.52 3.3 7.56 2.24 15.53 3.06 21.54 2.84a54.97 54.97 0 0 1-.82 2.47l-.5 1.28c-.1.25-.13.3-.2.4-.08.1-.17.16-.27.22a.64.64 0 0 1-.14-.08c-.07-.08-.1.04-.2.15-.08.1-.22.2-.25.1zm3.07 4.1c-.1.15-.2.3-.3.45l-.47-.48-.37-.35c-.1-.1-.32-.3-.5-.44-.4-.28-.86-.46-1.33-.55.1-.3.2-.62.27-.94.07-.01.14-.02.24-.02-.01.15.88-.22.52.03.8-.23 1.47-1.03 1.66-1.84.16-.57.34-1.18.7-1.8-.1-.36.27-1 .2-1.26.1-.01.5-1.35.4-.53-.01.07-.05.18-.08.16l.08.13c.3-.42.38-.87.46-1.32.6-.04 1.2-.1 1.8-.2l1.64-.22c.57-.17 1.17-.23 1.7-.5l.2-.1c-1.92 2.65-4.37 6.03-6.85 9.77zm22.62-53.73c.06-.27.13-.77.2-1.2l.07-.55c.01-.14.02-.23.01-.23.87-5.2 1.83-10.3 3.1-15.43l.2-.83c.13-.53.28-1.32.47-2.3s.42-2.16.6-3.48c.13-.75.24-1.56.35-2.4l9.4-2.18 5.37-1.2 2.16-.47 1-.2-2.13 2.9-.5.48c-.35.12-2.2 3.7-2.7 4.1l-.96 1.55c-.32.4-.97 1.26-.5.5-.97 1.37-.96 1.43-1.6 2.46l-1.14 1.4c-3.88 5.38-6.9 10.14-10.92 15.83l-2.82 3.88.36-2.6zm45.77-7.1c.15.32.3.47 1.08 2.4L345 277.17l-4.64-11.55-13 18.7-9.28 13.64.36-.6c-3.15 4.84-4.25 6.15-7.87 11.5-.22.28-.5.64-.46.58-3.45 5.26-10.47 15.07-13.32 19.3l-.28.2-.08.12c.67-1.9 1.26-3.8 1.85-5.7.66-2.2 1.27-4.42 1.87-6.64.58-2.2 1.2-4.43 1.66-6.67.55-2.53 1-5.04 1.4-7.53.73-1.22 1.5-2.42 2.35-3.56.9-1.55-.7 1.42.73-.83.18.02-.63 1.08-.13.6 1.44-2.2 2.6-3.43 4.35-6.14l.18-.04c2.22-3.6 4.68-6.43 6.1-8.85 2.4-3.62 1.97-2.18 4.36-6.03l1.14-1.35c1.13-1.57.62-1.26 1.92-2.97.01.17 1.62-2.18.98-1.1.77-1.02 1.5-2.08 2.25-3.17l3.78-5.53-6.4 1.46c-1.34.3-2.75.58-4.25.85-1.3.5-4.48 1.1-5.46 1.47-.2-.05-6.3 1.4-2.82.42.3-.08.84-.2.8-.16l.4-.2c-1.5.24-2.86.55-4.2.9.3-2.9.47-6.1.42-9.3l5.15-1.17c-2.4.65.66-.06 3.47-.7-1.8.42-2.34.58 1.37-.18.5-.15 1.3-.35 2.06-.53.03 0 .18-.03.1 0 4.68-1.1 3.86-.94 1.68-.46.1-.04-.08-.02-.76.1 1.7-.33 3.86-.8 5.97-1.27l6.5-1.44-.93-2.4c-.15-.42-.24-.7-.25-.78l-5.45-13.33 2.28-.9c1.74-.68 3.45-1.34 5.1-1.82l.17.03c.1.1.82-.5.98-.43l.2-.1.8 1.96 6.37 15.86 1.02 2.26.25.67c.02-.03.3.57.65 1.38l1.13 2.65c.52 1.6-.3-.01 1.9 5.46 1.63 4.37 4.98 12.3 7.3 17.93-1.2-3.06-.75-2.1-.2-.8 1.1 2.74 1.62 4.36 2.52 6.45l-.03.25c.26.34 3.04 7.25 3.47 8.16.52 1.6-1.8-4.2-2.15-4.86l6.6 16.46c2.46 5.82-.3-1.12.96 1.63l6.5 16.14-.62-1.93 8.8 22.1 1.22 2.9a23.2 23.2 0 0 0 .37.88l.87 2.08.33.78 1.1 2.6a2.29 2.29 0 0 0 .1.23l.92 2.2.32.76.74 1.77.23.54 1.7 4.03.38.9.42 1 .35.83.65 1.53 1 2.34.27.63.77 1.8c-.01.06-.03.12-.04.1 0 .05-.01.1-.01.14h-.16l.01.04.1.22 2.55 6.37c.55 1.4.5 2.87-.05 4.14 0 .01-.01.01-.01.02-.08.18-.2.34-.28.5-.22.35-.47.7-.8 1.03-.83.8-2.08 1.55-3.58 1.6-1.5.07-3.24-.58-4.36-2.06-.28-.36-.5-.77-.67-1.23l-.55-1.47-1.2-3.16-5.94-15.68.3.63-13.4-33.23c-.36-1.67-4.7-11.8-5.95-15.2l.15.3c-3.73-8.68-7.07-18.1-10.63-26.46zm108.86 98.7c-.28 3.8-.46 7.8-1.54 11.68-.37 1.87.28-1.66-.37 1.1-.1.07.3-1.3.03-.6-.7 2.7-1.33 4.4-2.52 7.6l-.12.1c-1.52 4.24-3.63 7.65-5.05 10.27-1.23 1.96-1.67 2.6-2.2 3.22-.25.3-.5.63-.86 1.12-.35.5-.8 1.16-1.54 2.12l-1.24 1.4c-1.37 1.53-.85 1.22-2.43 2.87.05-.14-2.03 2.05-1.15 1.04-3.65 3.63-7.6 7.27-13.5 10.7-.6.42-1.66 1.05-2.68 1.64l-2.52 1.36-2.76 1.22c-1.12.47-1.78.72-.03-.08.3-.15.83-.38.8-.35l.4-.26c-3.58 1.47-6.48 2.77-10.2 3.75 1.1-.3 2.55-.7 1.6-.38-1.15.3-2.28.68-3.45.9l.7-.23-2.6.58c-.87.18-1.74.3-2.6.47l.73-.05-1.67.26-1.4.14c-.92.08-1.86.24-3.32.38-1.32.16 2.46-.08-.27.15-3.47.26-8.7.17-13.1-.4.4.14-.78-.02-2-.15l-.13-.1c-4.64-.73-1.7-.38-6.24-1.33-.28-.03-.56-.05-.83-.1-4.1-1.02-2.15-.72-6.63-2.08 1.74.64.75.48-1.36-.4l.56.15c-1.18-.45-1.6-.56-2.35-.93.7.27.4.07-1.3-.7l1.17.43c-1.08-.44-2.17-.86-3.22-1.38-2.42-1.22-6.1-3.45-6.96-4.15 0 0-.3-.2-.76-.53l-1.75-1.25-3.26-2.46c.93.7-1.48-1.4-.74-.87-1.24-.86-4.46-3.95-5.6-5.33l.24.24c-2.2-2.46-4-4.62-5.6-6.84-1.63-2.2-3.02-4.46-4.4-7.07.05.28-1.34-2.52-1.08-1.8-2.87-5.45-3.94-10.44-4.85-12.47-.38-1.34-.5-2.17-.64-2.8a38.76 38.76 0 0 1-.32-1.84l.13.65-.6-3.27-.32-2.48c-.1-.75-.15-1.47-.2-2.24-.04-.77-.15-1.6-.16-2.56-.07-1.93-.3-2.24-.15-5.72.05 1.13.02-.3.14-1.6-.05.83-.05 1.1.12-.6a18.44 18.44 0 0 1 .03-.96c.01-.01.02-.08.02-.05.18-2.16.16-1.8.01-.8 0-.04-.02 0-.04.15l.52-3.8c.24-1.3.43-2.36.5-2.48.65-3.2 1.33-5.92 2.17-8.44.8-2.55 1.75-4.9 2.87-7.37.3-.53-.18.65-.8 2.1.53-1.17 1.02-2.36 1.63-3.5.03.03-.2.53-.53 1.15l-.87 1.95c1.98-4.13 4.15-8.52 7.44-12.8.2-.32.42-.6.63-.92l.2-.25c-.02 0 .15-.25.38-.58l.78-1.05c.55-.54.1.14 1.83-1.87.7-.78 1.76-1.85 2.83-3 1.13-1.1 2.3-2.3 3.34-3.18-1.13.97-.8.62-.33.18 1-.88 1.62-1.33 2.43-1.98h.12c.05-.08.6-.54 1.24-1.06.78-.62 1.7-1.26 1.9-1.43.66-.38-1.66 1.23-1.88 1.5l3.26-2.33c.57-.34 1.1-.77 3.4-2.12 2.44-1.48-.5.18.65-.57a63.75 63.75 0 0 1 2.95-1.61l2.36 5.9-1.2.66c-.34.1-1.48.74-2.68 1.46l-3.04 2 .1-.1c-3.1 2.3-6.4 4.78-8.93 7.54.07-.08.1-.16.35-.45-1.86 1.9-3.96 4.4-4.14 4.5a60.34 60.34 0 0 0-6.02 8.89c-1.75 3.15-3.04 6.2-3.7 8.2l.08-.28c-.4 1.1-.6 1.86-.88 2.6a26.92 26.92 0 0 0-.85 2.84c-.05.14-.1.3-.1.28-.16.62-.34 1.4-.52 2.24-.2.84-.4 1.74-.55 2.64-.36 1.78-.57 3.53-.68 4.57l-.08.13-.23 3.2c.16.67-.3 3.9.07 7.6.2 3.5 1.14 6.97 1.94 10.48.5 1.65-.5-1.43.2 1.04-.08.1-.38-1.14-.28-.48.73 2.42 1.03 4.03 2.23 6.92l-.02.15c1.62 3.74 3.14 7.03 4.65 9.3 1.17 1.75 1.48 2.4 1.88 3a17.57 17.57 0 0 0 .71 1.07c.3.46.75 1.05 1.47 1.88l.98 1.4c1.23 1.42.95.96 2.32 2.52-.13-.05 1.78 1.94.9 1.1 3.22 3.46 7.1 6.43 12.3 9.84.62.28 1.6.83 2.53 1.36.96.48 1.88.95 2.35 1.14.05.08 1.48.7 2.5 1.18 1 .45 1.6.7-.04.08-.28-.12-.76-.34-.72-.34l-.4-.1c3.18 1.6 6 2.4 9.36 3.34-1-.3-2.33-.68-1.42-.48 1.05.3 2.08.63 3.14.85l-.68-.1 2.36.57c.8.18 1.6.3 2.38.46l-.65-.2c1.16.24 1.95.4 2.78.52.83.12 1.7.28 3.04.3 1.2.03-2.23-.27.27-.1 3.15.33 7.93.4 11.96-.07-.4-.04.7-.17 1.8-.33l.14.06c4.22-.87 1.6-.04 5.75-1.07l-.36.14c.35-.14.7-.26 1.06-.42 3.66-1.2 2.06-.38 6.04-2-1.58.6-.8.14 1.15-.6l-.46.26 2.1-.9c-.6.32-.3.25 1.25-.46l-1 .55c.95-.48 1.92-.95 2.84-1.5 2.28-.98 5.54-3.18 6.44-3.66 0 0 .3-.17.7-.47l1.6-1.13c1.2-.9 2.46-1.92 2.9-2.35-.76.75 1.47-1.15.9-.54 1.05-.9 3.9-3.8 5.06-4.96l-.2.23c2.07-2.2 3.7-4.22 5.1-6.28 1.45-2.04 2.68-4.13 4.04-6.47-.2.18 1.16-2.34.74-1.76 2.42-5.03 4-9.4 4.2-11.42l.65-2.54c.16-.58.3-1 .4-1.65l-.1.6.5-2.98.28-2.26c.1-.68.13-1.34.2-2.04.04-.7.14-1.45.15-2.33 0-1.77-.1-2.04-.16-5.2.07 1.02.08-.27-.03-1.45.07.75.1.98.03-.57-.04-.22-.07-.55-.1-.87 0-.01 0-.08.01-.04-.2-1.96-.23-1.6-.1-.7-.01-.04-.02.03-.01.32-.07-1.02-.25-2.44-.42-3.62-.2-1.18-.38-2.15-.35-2.28-.62-2.9-1.3-5.36-2.13-7.63-.78-2.3-1.72-4.38-2.77-6.6-.18-.53.34.5.95 1.8-.5-1.06-.95-2.13-1.5-3.16.04 0 .28.44.58 1l.8 1.76c-1.58-3.87-4-7.62-6.8-11.62-.2-.27-.45-.5-.67-.77l-.17-.24c-.02.03-.73-.8-1.2-1.36-.4-.57.16-.07-1.43-1.9-.6-.75-1.56-1.7-2.57-2.73-1.05-.97-2.16-2-3.13-2.8 1 .9.66.64.2.28-.9-.8-1.4-1.3-2.15-1.85l-.03-.1c-.08-.02-.6-.42-1.2-.87a36.93 36.93 0 0 0-1.77-1.22c-.52-.45 1.57 1.02 1.83 1.2l-2.97-2.1c-.52-.3-1-.7-3.1-1.92-2.28-1.23.36.3-.75-.23-1.98-1.13-4-2.03-6.38-3.14l.72.4c-3.95-1.63-6.4-2.35-9.15-3.2-3.88-.9-6.96-1.2-9.3-1.4l-3-.1-2.03.04c-2.1.08-1.96.2-.8.27 1.14.1 3.26.17 5.08.4.9.07 1.75.2 2.36.3l1 .14c3.04.5 5.7 1.08 8.15 1.82 2.46.7 4.73 1.53 7.03 2.47 4.55 1.97 9.3 4.4 15 9.1 4.9 4.23 7.48 7.48 9.9 10.83.6.85 1.2 1.7 1.76 2.62l.9 1.4.87 1.52a58.6 58.6 0 0 1 3.66 7.63c1.15 2.97 2.16 6.13 2.83 9.34.68 3.2 1.1 6.46 1.28 9.57a72.86 72.86 0 0 1 .12 2.59c.02.96-.03 2-.06 3.07-.05 1.06-.16 2.13-.22 3.16l-.3 2.88c-.07.45-.2.9-.3 1.33l-.3 1.9a39.59 39.59 0 0 1-.45 1.87v-.08c-.16.9-.42 1.82-.65 2.63l-.57 1.95v-.08l-.7 2.08.1-.37a53.73 53.73 0 0 1-3.73 8.47l.2-.17c-1.53 2.66-2.63 4.44-3.8 6.1-.57.83-1.14 1.65-1.82 2.5l-1.07 1.34-1.3 1.44.03-.07c-2.24 2.68-4.28 4.58-6.44 6.34-2.18 1.74-4.44 3.42-7.46 5.4.75-.5-.35.17-.3.1-2.82 1.77-6.06 3.2-6.04 3.4-2.2 1-1.84.72-2.15.8.02.03-.46.25-1.16.55-.7.32-1.65.63-2.54.94l.82-.3c-1.7.6-3.44 1.12-5.2 1.58a13.01 13.01 0 0 0 1.07-.13c-2.8.66-.75.01-3.43.68l.06.1c-3.92.74-6.28.8-10.1.9-7.98.27-16.3-1.04-23.92-4-7.62-2.92-14.44-7.45-19.72-12.68l-.4-.52c-.14-.26-3-2.8-3.25-3.35l-1.18-1.27c-.28-.4-.9-1.22-.34-.56-.97-1.27-1.05-1.26-1.74-2.18l-.93-1.44c-3.48-5.24-6.03-10.03-8-16.38-1.1-3.83-2.3-9.48-2.52-15.3-.16-2.9 0-5.85.22-8.6.18-1.36.28-2.7.52-3.92l.3-1.8.36-1.66c1.25-5.96 3.85-12.13 7.37-17.72 3.54-5.6 8.03-10.57 12.73-14.64l.67-.56c.24-.2.43-.38.43-.38a59.98 59.98 0 0 1 9.54-6.2l.3-.16 1.34 3.36 7.36 18.34 4.26 10.55c-.18-.25-.25-.4-.4-.62l.13.13-1.88-2.22c-.36-.4-.54-.35-1.12-1.1.24.2-.01-.1-.24-.37.15.17.22.2-.05-.18-.06-.04-.13-.1-.2-.17 0-.01-.01-.02 0-.02-.4-.44-.35-.35-.18-.13-.02 0-.01.02.03.1-.33-.52-1.1-1.3-1.07-1.44-1.16-1.35-2.06-2.26-3.04-3.37-.06-.16.2.07.5.4l-.68-.83c.07-.04.42.43.64.67-.7-1.05-1.75-1.9-2.6-3.1l-.24-.2-.05-.07c-.02.02-.27-.2-.42-.36-.08-.2.13-.1-.34-.65-.32-.48-1.07-1.23-1.58-1.8.25.32.14.24.01.13-.23-.28-.3-.48-.52-.68l.05-.1c.02.17-.68-.67-.8-.75-.08-.2.4.4.5.43l-1.4-1.67c-.55-.55.02.17-.28-.07-.45-.52-.93-1-1.4-1.63l.1.25c-.88-.95-1.36-1.55-1.85-2.27-6.67-6.94-2-.96-2-.96 2.28 3.02 3.72 4.37 6.65 7.8 2.5 3.07 3.05 3.98 5.72 7.1l3.85 4.55c.68.62 1.6 1.93 2.38 2.7l.2.37c.26.26.56.58.77.9h-.03c.4.4.77.9.97 1.08h-.03l.44.5-.1-.07c.3.33.6.67.9 1l1.18 2.9 3.12 7.67a10.32 10.32 0 0 0-1.12 1.78l-1-.86-.1-.2c.01-.15-1.1-.65-1.14-.85l-.44-.3c-.1-.1-.32-.33-.1-.2-.37-.32-.4-.3-.7-.5l-.35-.4c-1.44-1.28-2.8-2.2-4.34-3.52-1.77-1.68-5.4-4.5-7.48-6.1-2.98-2.22-5.98-5.37-9.04-7.62-.08-.1-.36-.27-.36-.25l-2.67-2.23s-12.95-10.8-3.77-1.8l-.08-.03c1.42 1.27 2.34 2.04 3.44 2.77.05.27 1.2 1 1.5 1.34l-.04-.02c.98.64 1.77 1.6 2.7 2.23-.04-.02-.1 0-.3-.16.64.5 1.53 1.2 1.5 1.3 1.52 1.22 3.58 3 4.64 3.66l-.08-.03c.62.37.72.57 1.37 1.04.02.04.06.08.05.08.66.4 1.75 1.43 2.26 1.8l-.01.08 1.2.97-.43-.38c.27-.01.83.83 1.76 1.45.8.7 1.88 1.06 2.66 1.82.45.26-.44-.18.2.26-.04.1-.32-.18-.2 0 .6.45.9.87 1.66 1.42l-.02.08c1.03.68 1.72 1.55 2.43 1.97 1 .76.5.7 1.62 1.44l.33.4c.42.37.4.16.84.6-.07.02.57.54.26.36.55.52 1.17 1 1.84 1.52-.01.08-.03.17-.03.24l-.03-.07c.03.43-.14.53-.2.9-.52-.05-1-.08-1.17-.16 0 0-1.58-.2-1.96-.12.32-.04-.55-.15-.3-.2-.42.04-1.64-.01-2.12-.13h.1c-1.8-.25-3.08-.16-4.7-.4.07.1-.78-.03-.58.1-1.68-.04-3.02-.5-3.66-.22-.76-.05-.9-.16-1.28-.22h.18l-2.9-.24c-.53-.01-.63.14-1.57.01.3-.04-.08-.06-.43-.1.23.01.3-.01-.16-.1-.07.01-.17.02-.26.02 0-.01-.02-.01-.01-.02-.6-.03-.5 0-.22.03-.01.01.01.02.1.05-.6-.14-1.7-.15-1.77-.27-1.78-.14-3.05-.14-4.53-.23-.16-.07.2-.1.62-.07l-1.05-.08c.02-.08.6.01.93.02-1.23-.24-2.58-.1-4.03-.36l-.3.04-.1-.02c0 .03-.33.05-.55.04-.2-.1.03-.16-.7-.22-.57-.12-1.63-.1-2.38-.15.4.05.27.08.1.08-.36-.03-.56-.12-.85-.1l-.03-.1c.13.1-.95.01-1.1.04-.2-.1.57-.01.66-.05l-2.18-.2c-.78 0 .13.1-.25.15-.7-.04-1.36-.04-2.14-.17l.24.1c-1.3-.05-2.06-.13-2.92-.3-9.63-.2-2.1.75-2.1.75 3.75.53 5.72.46 10.2.8 3.94.4 4.97.66 9.06.97l5.94.5c.92-.04 2.5.23 3.58.22l.4.1c.37 0 .8.01 1.17.08l-.03.02c.56 0 1.17.08 1.45.08l-.02.02.67.05-.12.02a34.03 34.03 0 0 1 2.82.22l-.06-.1c1.86.27 2.55.15 4.23.42l-.02.02c2.15-.03 3.35.46 5.56.45-.28 0 .1.06.1.07.06 0 .12.01.2.01-.05.27-.1.53-.1.7h-.1c-.02.3-.02.63-.03.94l.04-.35c.3.13-.24.7.01 1.38-.02.32.2.62.4.9.18.3.37.57.38.9.2.26-.3-.2-.07.2-.15.06-.15-.18-.24-.04.1.26.1.5.16.75l-2.2.16-.2-.07c-.1-.12-1.23.3-1.4.2l-.52.1c-.15-.01-.46 0-.2-.06-.5.04-.5.06-.84.13l-.53-.03c-1.92.12-3.54.42-5.56.58-2.44.07-7 .64-9.6.98-3.68.54-8.02.43-11.78 1-.12-.01-.44.06-.44.08l-3.46.3s-16.8 1.53-3.94 1.4l-.08.04c1.9-.1 3.1-.2 4.4-.47.22.15 1.56-.13 2-.1l-.04.02c1.14-.24 2.4-.1 3.5-.34-.04.02-.06.07-.32.1.8-.1 1.92-.24 2-.15 1.94-.2 4.65-.42 5.87-.7l-.08.04c.7-.17.9-.1 1.7-.23.04.01.1.01.1.02.76-.18 2.25-.23 2.87-.33l.05.06 1.53-.16-.58.04c.18-.2 1.17.01 2.28-.22 1.04-.07 2.08-.58 3.17-.6.5-.13-.44.18.32.04.03.1-.35.1-.15.15.75-.12 1.25-.02 2.18-.17l.05.07c1.2-.25 2.3-.12 3.1-.32 1.25-.18.86.14 2.16-.13l.52.05c.56-.04.4-.16 1.02-.17-.03.07.8-.02.43.07.97-.02 1.98-.2 3.1-.3.1.24.18.47.26.68-.54.43-1.1.96-1.35 1.05 0 0-1.26.98-1.46 1.3.2-.26-.5.28-.35.06-.27.32-1.16 1.15-1.6 1.4l.06-.07c-1.44 1.1-2.3 2.06-3.6 3.02.1.02-.58.53-.34.48-1.22 1.16-2.5 1.78-2.74 2.43-.57.5-.75.52-1.06.75l.13-.13-2.22 1.88c-.4.36-.35.54-1.1 1.12.2-.24-.1.01-.37.24.17-.15.2-.22-.18.05-.04.06-.1.13-.17.2-.01 0-.02.01-.02 0-.44.4-.35.35-.13.18 0 .02.02.01.1-.03-.52.33-1.3 1.1-1.44 1.07-1.35 1.16-2.26 2.06-3.37 3.04-.16.06.07-.2.4-.5l-.8.7c-.04-.07.43-.42.67-.64-1.05.7-1.9 1.75-3.1 2.6l-.2.24-.07.05c.03.02-.2.27-.36.42-.2.08-.1-.13-.65.34-.48.32-1.23 1.07-1.8 1.58.32-.25.24-.14.13-.01-.28.23-.48.3-.68.52l-.1-.05c.17-.02-.67.68-.75.8-.2.08.4-.4.43-.5l-1.67 1.4c-.55.55.17-.02-.07.28-.52.45-1 .93-1.63 1.4l.25-.1c-.95.88-1.55 1.36-2.27 1.85-6.94 6.67-.96 2-.96 2 3.02-2.28 4.37-3.72 7.8-6.65 3.07-2.5 3.98-3.05 7.1-5.72l4.55-3.85c.62-.68 1.93-1.6 2.7-2.38l.37-.2c.26-.26.58-.56.9-.77v.03c.4-.4.9-.77 1.08-.97v.03l.5-.44-.07.1c.7-.66 1.46-1.3 2.15-1.84l-.1-.02c1.5-1.12 1.9-1.7 3.28-2.7v.03c1.5-1.54 2.7-2.04 4.25-3.62-.2.2.12-.04.12-.01l.43-.38c.02.15.05.3.4.55l.06.36c.2.28.32.05.52.4-.1.05.27.42.04.32.52.75 1.44 1.04 2.28 1.86.2-.02.42.1.63.2a54.29 54.29 0 0 1-1.54 1.77l-.2.1c-.15-.01-.65 1.1-.85 1.14l-.3.44c-.1.1-.33.32-.2.1-.32.37-.3.4-.5.7l-.4.35c-1.28 1.44-2.2 2.8-3.52 4.34-1.68 1.77-4.5 5.4-6.1 7.48-2.22 2.98-5.37 5.98-7.62 9.04-.1.08-.27.36-.25.36l-2.23 2.67s-10.8 12.95-1.8 3.77l-.03.08c1.27-1.42 2.04-2.34 2.77-3.44.27-.05 1-1.2 1.34-1.5l-.02.04c.64-.98 1.6-1.77 2.23-2.7-.02.04 0 .1-.16.3.5-.64 1.18-1.53 1.3-1.5 1.22-1.52 3-3.58 3.66-4.64l-.03.08c.37-.62.57-.72 1.04-1.37.04-.02.08-.06.08-.05.4-.66 1.43-1.75 1.8-2.26l.08.01.97-1.2-.38.43c-.01-.27.83-.83 1.45-1.76.7-.8 1.06-1.88 1.82-2.66.26-.45-.18.44.26-.2.1.04-.18.32 0 .2.45-.62.87-.9 1.42-1.66l.08.02c.68-1.03 1.55-1.72 1.97-2.43.76-1 .7-.5 1.44-1.62l.4-.33c.37-.42.16-.4.6-.84.02.07.54-.57.36-.26.64-.67 1.2-1.46 1.88-2.3a2 2 0 0 0 .53.15c.08.02.17.03.25.04-.08.68-.1 1.46-.2 1.7 0 0-.2 1.58-.12 1.96-.04-.32-.15.55-.2.3.04.42-.01 1.64-.13 2.12v-.1c-.25 1.8-.16 3.08-.4 4.7.1-.07-.03.78.1.58-.04 1.68-.5 3.02-.22 3.65-.05.76-.16.9-.22 1.28v-.18l-.24 2.9c-.01.53.14.63.01 1.57-.04-.3-.06.08-.1.43.01-.23-.01-.3-.1.16.01.07.02.17.02.26-.01 0-.01.02-.02.01-.03.6 0 .5.03.22.01.01.02-.01.05-.1-.14.6-.15 1.7-.27 1.77-.14 1.78-.14 3.05-.23 4.53-.07.16-.1-.2-.07-.62l-.08 1.05c-.08-.02.01-.6.02-.93-.24 1.23-.1 2.58-.36 4.03l.04.3-.02.1c.03 0 .05.33.04.55-.1.2-.16-.03-.22.7-.12.57-.1 1.63-.15 2.38.05-.4.08-.27.08-.1-.03.36-.12.56-.1.85l-.1.03c.1-.13.01.95.04 1.1-.1.2-.01-.57-.05-.66l-.2 2.18c0 .78.1-.13.15.25-.04.7-.04 1.36-.17 2.14l.1-.24c-.05 1.3-.13 2.06-.3 2.92-.2 9.63.75 2.1.75 2.1.53-3.75.46-5.72.8-10.2.4-3.94.66-4.97.97-9.06l.5-5.94c-.04-.92.23-2.5.22-3.58l.1-.4c0-.37.01-.8.08-1.17l.02.03c0-.56.08-1.17.08-1.45l.02.02.05-.67.02.12a34.03 34.03 0 0 1 .22-2.82l-.1.06c.27-1.86.15-2.55.42-4.23l.02.02c-.03-2.15.46-3.35.44-5.56 0 .28.06-.1.07-.1.01-.22.03-.44.04-.65.2.06.38.12.57.16l-.1-.14c.42.12.56.4 1.08.24.23-.1-.4-.2.06-.2.57.14 1.47.27 2.24.22-.1-.13.12-.16.32-.22l.04.12c.76-.3.35.25 1.1-.08l.06-.12.16 2.26-.07.2c-.12.1.3 1.23.2 1.4l.1.52c-.01.15 0 .46-.06.2.04.5.06.5.13.84l-.03.53c.12 1.92.43 3.54.58 5.56.06 2.44.64 7 .98 9.6.54 3.68.43 8.02 1 11.78-.01.12.06.44.08.44l.3 3.46s1.53 16.8 1.4 3.94l.04.08c-.1-1.9-.2-3.1-.47-4.4.15-.22-.13-1.56-.1-2l.02.04c-.24-1.14-.1-2.4-.34-3.5.02.04.07.06.1.32-.1-.8-.24-1.92-.15-2-.2-1.94-.42-4.65-.7-5.87l.04.08c-.17-.7-.1-.9-.23-1.7.01-.04.01-.1.02-.1-.18-.76-.23-2.25-.33-2.87l.06-.05-.16-1.53.04.58c-.2-.18.01-1.17-.22-2.27-.07-1.04-.58-2.08-.6-3.17-.13-.5.18.44.04-.32.1-.03.1.35.15.15-.12-.75-.02-1.25-.17-2.18l.07-.05c-.25-1.2-.12-2.3-.32-3.1-.18-1.25.14-.86-.13-2.16l.05-.52c-.04-.56-.16-.4-.17-1.02.07.03-.02-.8.07-.43-.02-1.02-.2-2.05-.32-3.25.03-.02.04-.03.07-.06-.04.02-.05.01-.08.01-.01-.06-.01-.13-.01-.2a.45.45 0 0 1 .23-.11l-.05.15c.2-.1.24-.16.37-.2-.07.1-.02.15.14.1a.27.27 0 0 0 .07.08l-.05.08.06-.06c.43.55.98 1.14 1.07 1.38 0 0 .98 1.26 1.3 1.47-.26-.2.28.5.06.35.32.27 1.15 1.16 1.4 1.6l-.07-.07c1.1 1.44 2.06 2.3 3 3.6.02-.1.53.58.48.34 1.15 1.22 1.78 2.5 2.43 2.74.5.57.5.75.75 1.06l-.13-.13 1.87 2.22c.36.4.54.35 1.12 1.1-.24-.2.01.1.24.37-.15-.17-.22-.2.05.18.06.04.13.1.2.17 0 .01.01.02 0 .02.4.44.34.35.18.13.02 0 .01-.02-.03-.1.33.53 1.1 1.32 1.06 1.44 1.16 1.35 2.06 2.26 3.03 3.38.06.16-.2-.07-.5-.4l.7.8c-.07.04-.42-.44-.64-.67.7 1.05 1.75 1.9 2.6 3.1l.24.2.05.07c.02-.02.27.2.42.36.08.2-.13.1.33.65.3.5 1.07 1.23 1.58 1.8-.25-.32-.14-.24-.01-.13.23.28.3.48.52.68l-.05.1c-.02-.17.68.67.8.75.08.2-.4-.4-.5-.43l1.4 1.67c.55.55-.02-.17.28.07.45.52.93 1 1.4 1.63l-.1-.25c.87.95 1.36 1.55 1.85 2.27 6.66 6.96 2 .96 2 .96-2.27-3.03-3.7-4.37-6.63-7.8-2.5-3.07-3.04-3.98-5.7-7.1l-3.84-4.56c-.68-.62-1.6-1.93-2.37-2.7l-.2-.37c-.26-.26-.56-.58-.77-.9h.03c-.4-.4-.77-.9-.96-1.1h.03l-.44-.5.1.07c-.66-.7-1.3-1.47-1.84-2.16v.1c-1.12-1.5-1.7-1.9-2.7-3.3h.03c-1.54-1.5-2.04-2.7-3.6-4.25.2.2-.04-.12-.01-.12l-.48-.55c.27-.16.5-.33.65-.3 0 0 .86-.52.9-.8-.08.22.36-.1.33.1.1-.28.6-.86.9-1l-.03.05c.53-.44.8-.92 1.06-1.4l1.5 1.3.1.2c-.01.15 1.1.65 1.15.85l.45.3c.1.1.33.33.1.18.37.3.4.3.7.5l.35.4c1.45 1.27 2.8 2.2 4.36 3.5 1.78 1.67 5.42 4.46 7.5 6.07 3 2.2 6 5.34 9.08 7.58.08.1.36.26.36.25l2.68 2.22s13 10.73 3.78 1.78l.08.03c-1.43-1.26-2.35-2.03-3.45-2.75-.05-.27-1.2-1-1.5-1.33l.04.02c-.98-.63-1.78-1.6-2.72-2.22.04.02.1 0 .3.16-.64-.5-1.53-1.18-1.5-1.3-1.52-1.2-3.6-2.97-4.66-3.64l.08.03c-.62-.37-.72-.57-1.37-1.03-.03-.04-.06-.08-.05-.08-.67-.4-1.76-1.42-2.27-1.78v-.08l-1.2-.97.44.38c-.27.02-.83-.83-1.77-1.45-.8-.68-1.88-1.05-2.67-1.8-.46-.26.44.18-.2-.26.04-.1.32.18.2 0-.62-.45-.9-.87-1.67-1.4l.02-.08c-1.03-.67-1.72-1.54-2.44-1.96-1.02-.75-.5-.7-1.62-1.43l-.33-.4c-.42-.37-.4-.16-.84-.6.07-.03-.58-.54-.26-.35-.64-.6-1.37-1.13-2.15-1.74.02-.02.03-.04.05-.06-.15-.03.16-.47-.07-.43a3.84 3.84 0 0 1 .27-.65c.66.07 1.4.1 1.63.2 0 0 1.58.2 1.95.12-.32.04.55.15.3.2.42-.04 1.64.01 2.12.14h-.1c1.8.25 3.08.17 4.7.42-.07-.1.78.03.58-.1 1.68.05 3.02.5 3.65.22.76.05.9.16 1.28.22h-.18c1.42.1 1.84.14 2.9.25.53.02.63-.13 1.57-.01-.3.03.08.06.43.1-.23-.01-.3.01.16.1.07-.01.17-.02.26-.02 0 .01.02.01.01.02.6.03.5 0 .22-.03.01-.01-.01-.02-.1-.05.6.14 1.7.15 1.77.27 1.78.14 3.05.15 4.53.24.16.07-.2.1-.62.07l1.05.08c-.02.08-.6-.01-.93-.02 1.23.25 2.58.1 4.03.36l.3-.04.1.02c0-.03.33-.05.55-.04.2.1-.03.16.7.22.57.12 1.63.12 2.38.15-.4-.05-.27-.08-.1-.08.36.03.56.12.85.12l.03.1c-.13-.1.95-.01 1.1-.03.2.1-.57.01-.66.05l2.18.2c.78 0-.13-.1.25-.15.7.05 1.36.04 2.14.17l-.24-.1c1.3.05 2.06.14 2.9.3 9.63.2 2.1-.74 2.1-.74-3.75-.53-5.7-.47-10.2-.82-3.94-.4-4.97-.67-9.06-.98l-5.93-.5c-.92.04-2.5-.23-3.58-.22l-.4-.1c-.37 0-.8-.01-1.17-.1l.03-.02c-.56 0-1.17-.1-1.45-.1v-.02l-.67-.05.12-.02c-.97-.03-1.95-.12-2.82-.23l.06.1c-1.85-.27-2.55-.15-4.22-.43l.02-.02c-2.15.03-3.35-.47-5.56-.46.28 0-.1-.06-.1-.07l-.4-.03c-.01-.12-.04-.24-.14-.34.08-.45.28-.5.34-.73l.01.12c.1-.88.13-1.13.16-1.78-.04-.33-.28-.38-.26-.95.1.18.08-.05.07-.27.02.14.06.18.12-.1-.03-.04-.06-.1-.08-.15.01 0 .01-.01.03-.01-.07-.36-.1-.3-.1-.12-.02-.01-.03.01-.06.06.06-.25-.02-.6-.04-.83l1.9-.14.2.07c.1.12 1.23-.3 1.4-.2l.52-.1c.15.01.46 0 .2.06.5-.04.5-.07.84-.14l.53.03c1.92-.13 3.54-.44 5.56-.6 2.44-.08 6.98-.68 9.6-1.02 3.67-.56 8.02-.47 11.78-1.06a1.57 1.57 0 0 0 .44-.08l3.46-.32s16.8-1.6 3.93-1.4l.08-.04c-1.9.12-3.1.22-4.4.5-.22-.15-1.56.14-2 .12l.04-.02c-1.14.25-2.4.12-3.5.35.04-.02.06-.07.32-.1-.8.1-1.92.25-2 .16-1.94.22-4.65.44-5.87.72l.08-.04c-.7.18-.9.1-1.7.24-.04-.01-.1-.01-.1-.02-.76.18-2.25.24-2.87.35l-.05-.06-1.53.17.58-.04c-.18.2-1.17 0-2.27.23-1.04.08-2.08.6-3.17.6-.5.14.44-.18-.32-.04-.03-.1.35-.1.15-.15-.75.12-1.25.03-2.18.18l-.05-.07c-1.2.26-2.3.13-3.1.34-1.25.2-.86-.14-2.16.14l-.52-.05c-.56.04-.4.16-1 .18.03-.07-.8.03-.43-.07-.85.02-1.7.17-2.65.3-.17-.4-.35-.78-.55-1.13.46-.38.92-.8 1.12-.86 0 0 1.26-.98 1.47-1.3-.2.26.5-.28.35-.06.27-.32 1.16-1.15 1.6-1.4l-.06.07c1.44-1.1 2.3-2.06 3.6-3-.1-.02.58-.53.34-.48 1.22-1.15 2.5-1.78 2.74-2.43.57-.5.75-.5 1.06-.75l-.13.13 2.22-1.87c.4-.36.35-.54 1.1-1.12-.2.24.1-.01.37-.24-.17.15-.2.22.18-.05.04-.06.1-.13.18-.2.01 0 .02-.01.02 0 .44-.4.35-.34.13-.18 0-.02-.02-.01-.1.03.53-.33 1.3-1.1 1.44-1.06 1.35-1.16 2.26-2.06 3.38-3.03.16-.06-.07.2-.4.5l.8-.7c.04.07-.44.42-.67.64 1.05-.7 1.9-1.75 3.1-2.6l.2-.24.07-.05c-.03-.02.2-.27.36-.42.2-.08.1.13.65-.33.5-.3 1.23-1.07 1.8-1.58-.32.25-.24.14-.13.01.28-.23.48-.3.68-.52l.1.05c-.17.02.67-.68.75-.8.2-.08-.4.4-.43.5l1.67-1.4c.55-.55-.17.02.07-.28.52-.45 1-.93 1.63-1.4l-.25.1c.95-.87 1.55-1.36 2.27-1.85 6.96-6.66.96-2 .96-2-3.03 2.27-4.37 3.7-7.8 6.63-3.07 2.5-3.98 3.04-7.1 5.7l-4.56 3.84c-.62.68-1.93 1.6-2.7 2.37l-.37.2c-.26.26-.58.56-.9.77v-.03c-.4.4-.9.77-1.1.96v-.03l-.5.44.07-.1c-.7.66-1.47 1.3-2.16 1.84l.1.02c-1.5 1.12-1.9 1.7-3.3 2.7v-.03c-1.5 1.54-2.7 2.04-4.25 3.6.17-.17-.03-.03-.1 0-.28-.38-.62-.75-.84-1.22l-.2-.08v-.05c-.04.04-.22-.07-.3-.17.01-.17.2-.16-.1-.5-.08-.17-.25-.35-.46-.5l-.65-.42c.17.18.07.17-.04.14-.16-.14-.18-.32-.35-.38l.08-.14c-.02.17-.56-.22-.66-.2-.03-.17.33.12.43.08l-.46-.33c.3-.36.6-.72.92-1.06l.2-.1c.15.01.65-1.1.85-1.15l.3-.45c.1-.1.33-.33.18-.1.3-.37.3-.4.5-.7l.4-.35c1.27-1.45 2.2-2.8 3.5-4.36 1.67-1.78 4.46-5.42 6.07-7.5 2.2-3 5.34-6 7.58-9.08.1-.08.26-.36.25-.36l2.22-2.68s10.73-13 1.78-3.78l.03-.08c-1.26 1.43-2.03 2.35-2.75 3.45-.27.05-1 1.2-1.33 1.5l.02-.04c-.63.98-1.6 1.78-2.22 2.72.02-.04 0-.1.16-.3-.5.64-1.18 1.53-1.3 1.5-1.2 1.52-2.97 3.6-3.64 4.66l.03-.08c-.37.62-.57.72-1.03 1.37-.04.03-.08.06-.08.05-.4.67-1.42 1.76-1.78 2.27l-.08-.01-.97 1.2.38-.44c.02.27-.83.83-1.45 1.77-.68.8-1.05 1.88-1.8 2.67-.26.46.18-.44-.26.2-.1-.04.18-.32 0-.2-.45.62-.87.9-1.4 1.67l-.08-.02c-.67 1.03-1.54 1.72-1.96 2.44-.75 1.02-.7.5-1.43 1.62l-.4.33c-.37.42-.16.4-.6.84-.03-.07-.54.58-.35.26-.55.6-1.05 1.27-1.6 1.98-.3-.1-.6-.2-.87-.4l.08.2a8.22 8.22 0 0 1-.43-.12c-.01-.03-.02-.06-.03-.08.05-.56.1-1.12.17-1.3 0 0 .2-1.58.12-1.95.04.33.15-.55.2-.3-.04-.42.01-1.64.14-2.12v.1c.25-1.8.17-3.08.42-4.7-.1.07.03-.78-.1-.58.05-1.68.5-3.02.22-3.65.05-.76.16-.9.22-1.28v.18l.25-2.9c.02-.53-.13-.63-.01-1.57.03.3.06-.08.1-.43-.01.23.01.3.1-.16-.01-.07-.02-.17-.02-.26.01 0 .01-.02.02-.01.03-.6 0-.5-.03-.22-.01-.01-.02.01-.05.1.14-.6.15-1.7.27-1.77.14-1.78.15-3.05.24-4.53.07-.16.1.2.07.62l.08-1.05c.08.02-.01.6-.02.93.25-1.23.1-2.58.36-4.03l-.04-.3.02-.1c-.03 0-.05-.33-.04-.55.1-.2.16.03.22-.7.12-.57.12-1.63.15-2.38-.05.4-.08.27-.08.1.03-.36.12-.56.12-.85l.1-.03c-.1.13-.01-.95-.03-1.1.1-.2.01.57.05.66l.2-2.18c0-.78-.1.13-.15-.25.05-.68.04-1.36.17-2.14l-.1.24c.05-1.3.14-2.06.3-2.9.2-9.63-.74-2.1-.74-2.1-.53 3.75-.47 5.7-.82 10.2-.4 3.94-.67 4.97-.98 9.06l-.5 5.93c.04.92-.23 2.5-.22 3.58l-.1.4c0 .37-.01.8-.1 1.17l-.02-.03c0 .56-.1 1.17-.1 1.45l-.02-.02-.05.67v-.12c-.03.97-.12 1.95-.23 2.82l.1-.06c-.27 1.85-.15 2.55-.43 4.22l-.02-.02c.02 1.43-.2 2.44-.33 3.6-.01-.01-.01-.03-.02-.04l-.34-.88c-.06-.17-.13-.33-.2-.5l-.18-.46c-.06-.15-.1-.3-.17-.45l-.2-.55c-.04-.1-.08-.2-.1-.3l-.72-1.86c0-.01-.01-.02-.01-.03l-.3-.75c-.04-.1-.07-.2-.1-.3l-.26-.66c-.01-.04-.03-.08-.04-.1l-.3-.75c0-.01-.01-.02-.01-.03-.05-.14-.1-.27-.15-.4l-.22-.57c-.05-.12-.1-.24-.14-.36a10.2 10.2 0 0 0-.12-.31l-.32-.8-.27-.7-.15-.4-1.5-3.87c-.07-.2-.15-.38-.22-.56l-1.45-3.7c-.01-.02-.01-.04-.02-.06-.42-3.45-.4-7.37-.94-10.8a1.57 1.57 0 0 0-.08-.44l-.32-3.46s-1.6-16.8-1.4-3.93l-.04-.08c.12 1.9.22 3.1.5 4.4-.15.22.14 1.56.12 2l-.02-.04c.25 1.14.12 2.4.35 3.5-.02-.04-.07-.06-.1-.32.1.8.25 1.92.16 2l.4 3.7-3.44-8.64c-.04-.1-.07-.2-.1-.28l-1.04-2.6c-.01-.03-.03-.07-.04-.1l-2.14-5.3-.2-.5-.87-2.16-.2-.46-1.03-2.55c2.97-.78 6.03-1.4 8.65-1.7 2.13-.24 3.94-.4 5.14-.44 1.2-.08 1.76-.15 1.4-.22-.36-.04-1.66-.17-4.2-.1-2.5.06-6.25.32-11.37 1.52 0-.01-.01-.02-.01-.02l.12-.05a.93.93 0 0 0-.13.04l-2.47-6.07c5.75-1.6 11.8-2.47 18.05-2.47.73 0 1.46.03 2.2.06.67.05 1.48.12 2.48.23l2.36.27 2.88.45c1.05.18 2.18.44 3.42.7 1.22.3 2.55.62 3.96 1.03l-.3-.06c6.7 1.92 10.7 3.76 15.03 5.88.3.27 1.53.98 2.86 1.75 1.3.83 2.72 1.67 3.35 2.2l-.13-.08c3.6 2.3 6.88 5.42 9.82 8.26-.13-.1-.2-.15-.88-.8 2.15 2.07 4.83 5.16 4.87 5.4 2.28 2.73 4.7 6.27 6.62 9.7 1.93 3.44 3.4 6.77 4.27 8.88l-.14-.28c.55 1.18.78 2 1.07 2.83.3.83.55 1.7.97 3.1.03.16.08.36.07.33.24.67.45 1.52.67 2.44s.46 1.9.62 2.9c.4 1.97.6 3.9.76 5.03l-.05.15c.17 1.88.35 3.75.37 5.64-.02-.7-.01-1.4-.05-2.1.17.77.06 4.32-.1 8.42z"/><g fill="#fff"><path d="M193.96 216.93h0l.03.04zm62.84 20.03h0z"/><path d="M276.9 263.85l.07-.88c-.04-.97-.18-.68-.23-1.75.07.06-.08-1.35.04-.74-.22-2.43-.87-4.86-1.8-7.95-.4-.6-.88-2.15-1.25-2.56 0-.05-.36-.78-.6-1.3-.27-.5-.43-.8.08-.04.08.14.2.38.18.38l.16.16c-.72-1.72-1.77-2.86-2.88-4.3.32.44.75 1.02.42.66-.32-.47-.7-.9-1.08-1.3l.28.22-.84-.95-.92-.88.2.3-1.06-1.04a11 11 0 0 0-1.31-.93c-.55-.32.9.78-.18.03a23.34 23.34 0 0 0-5.57-2.76c.16.15-.37-.04-.92-.22l-.04-.1c-2.14-.53-.73-.4-2.83-.94-.14 0-.27-.01-.4-.01-1.94-.36-1-.42-3.15-.78.84.2.35.25-.67-.03l.28-.01-1.15-.24c.35.04.2-.06-.64-.25l.58.05-1.62-.25c-1.2-.38-3.18-.7-3.66-.9l-1.4-.32-1.87-.3c.55.04-.9-.3-.48-.28-.7-.07-2.74-.42-3.54-.66l.16.02-7.84-1.5c.1.1-1.3-.2-.98-.03-2.8-.4-5.05-1.17-6.13-1-1.28-.2-1.5-.35-2.15-.5l.3.04-4.85-.86c-.9-.13-1.06 0-2.63-.32.52.03-.13-.08-.72-.18.38.06.5.06-.27-.13-.1 0-.28-.02-.44-.04-.01-.01-.04-.02-.02-.02-1-.16-.82-.1-.37-.01-.02.01.01.02.15.07l-2.96-.64-7.6-1.22c-.27-.1.32-.05 1.04.07l-1.76-.3c.03-.08 1.02.14 1.56.23-2.06-.52-4.33-.67-6.73-1.3l-.5-.05-.14-.04c0 .03-.55-.05-.9-.12-.32-.15.06-.15-1.13-.42l-3.86-1.08c.65.2.43.18.14.12-.6-.17-.88-.4-1.33-.54v-.1c.2.17-1.5-.5-1.74-.55-.3-.2.9.3 1.07.3l-1.5-.6c.05 0 .08.01.14.01v.03c.3-.07.45-.15.55-.37.1.14.2-.1.3-.1h0c.08-.2.37-.1.45-.28 0 .02.02.06-.01.08.1-.08.22-.2.28-.12.23-.18.6-.36.67-.6v.03c.03-.15.1-.1.17-.2.01.01.02.01.03.01.04-.15.27-.2.32-.3l.04.05.18-.15-.08.04c-.08-.17.2-.01.28-.2.14-.07.02-.5.2-.52.01-.12.03.15.08.03.06.07-.01.08.06.12.06-.1.2-.04.28-.18l.05.05c.06-.22.33-.15.34-.33.1-.17.24.1.3-.15h.12c.07-.05-.04-.13.07-.16.04.05.12-.04.12.04.23-.08.23-.4.55-.48-.04-.13.1-.18.07-.28.04.03.2-.2.18 0 0 .02-.02.03-.04.02l.04.06c.22-.02.15-.26.27-.38-.05.02-.1.07-.1.01l.1-.1.03.06.18-.15-.08-.03c.1-.06.23 0 .23-.17-.01-.08-.15.01-.1-.1.14-.08.33-.2.46-.35-.08-.04-.05-.08-.03-.13l.06.04c.04-.22.18.03.23-.18l-.07-.1c-.03-.23.18.01.12-.27-.03.07-.16-.06-.08-.12l.05.06c.02-.05 0-.08.03-.1.02.05.08.07.1 0l.05.1-.03-.2c.13-.05.14-.26.25-.25 0 0 .17-.2.1-.3.04.08.13-.03.18.05-.04-.1 0-.3.1-.3v.02c.2-.2.12-.47.32-.65-.08-.03.02-.12-.1-.14.01-.28.4-.33.13-.55.03-.1.13-.1.17-.14v.03c.06-.2.08-.27.15-.42 0-.1-.14-.16-.05-.28.04.07.05.01.07-.04 0 .04.02.05.08 0-.01-.02-.02-.04-.03-.05h.02c.01-.1-.01-.08-.04-.05-.01-.01-.02-.01-.04 0 .1-.06.08-.24.2-.22.07-.26.02-.48.05-.7.06-.01.1.06.1.13l.03-.16c.08.03.02.1.02.15.18-.14 0-.4.17-.6l-.05-.06.01-.01c-.03-.01-.06-.07-.06-.1.08-.01.16.04.18-.06.1-.07.03-.25.02-.37-.03.06-.06.03-.08 0 .01-.05.1-.07.07-.12l.1.02c-.1 0-.06-.16-.1-.2.07-.02.04.1.1.12l.06-.33c-.05-.13-.1 0-.16-.07 0-.1-.05-.22.03-.32l-.1.02c-.03-.2 0-.3.1-.43-.24-.76-.5-.8-.64-.73-.15.06-.24.32-.24.32-.25.48-.06.8-.14 1.43-.18.53-.37.63-.5 1.2l-.24.8c.07.17-.13.33-.1.5l-.1.03c.01.06.01.13-.05.16l-.02-.01c.02.1-.05.16-.04.2l-.02-.01-.03.1v-.03c-.01.15-.06.28-.14.38l.08.03c-.2.2-.1.36-.3.52l-.02-.01c.05.38-.37.34-.34.72 0-.05-.05-.01-.06-.02-.06.13-.13.27.01.36-.06.1-.1.04-.15.02.06.04.04.13 0 .2v-.05l-.1.2.14.04c-.1.08-.16-.07-.2.05l.1.07c-.12.13-.33.1-.5.18-.45.5-.74 1.25-1.37 1.54l-.08-.05c-.1-.1 0 .26-.1.2l-.02.1c-.03 0-.08.01-.07-.04-.06.04-.04.06-.06.12l-.1-.01c-.25.13-.32.4-.58.55-.37.1-.8.6-1.08.88-.34.47-1.14.37-1.5.84-.02-.01-.04.05-.04.06l-.44.23c.01.01-.84.43-.97.77l-1.03-.52c-1.2-.53.17.2-.43-.02l-1.5-.88-.77-.48-.74-.6.28.33-1.2-.9c-.36-.27-.64-.58-.92-.85l-.78-.8-.65-.86c-2.65-3.1-3.07-5.5-3.3-6.58-.13-1.15-.18-1.03-.3-.46-.1.7.02 1.85.3 2.83.1.5.3.92.4 1.24a3.98 3.98 0 0 0 .21.51c1.44 3.1 3.35 4.94 5.5 6.5 2.18 1.53 4.68 2.88 8.33 4.18l4.12 1.32 3.3.83 7.68 1.5 9.95 1.78c1.54.15 4.2.76 6 .98l.68.2 1.97.34h-.04l2.43.4h-.04l1.12.2h-.2l4.73.85-.1-.1 7.06 1.4-.04.01c3.6.48 5.58 1.28 9.26 1.88-.46-.07.18.1.14.1 1.68.33 3.46.77 3.53.6 1.22.3.98.3 1.12.4.01-.08 1.07.15 2.02.4l-.44-.1 2.7.7-.5-.28c1.42.44.32.27 1.68.64l.02-.12 2.47.9 2.33 1.06c1.88.74 3.6 1.9 5.13 3.24.8.65 1.47 1.44 2.17 2.2l1.8 2.52c.6.85 1 1.8 1.48 2.7l1.1 2.84.45 1.43.33 1.45c.25.95.34 1.92.48 2.86l-.03.34c-.08.15.4 2.06.32 2.36l.12.88c-.01.25-.02.77-.06.34l.1 1.42-.07.88c-.07 3.22-.23 5.97-.78 9.34-.8 4.04-2.08 11.7-2.9 16.1-1.04 6.2-3.1 13.25-4.3 19.58a5.25 5.25 0 0 0-.13.74l-1.34 5.74-2.6 11.28c-.97 4.32-1.1 6.07 2-4.36v.15c.82-3.12 1.3-5.1 1.68-7.3.25-.3.62-2.58.84-3.3v.07c.3-1.95 1-3.93 1.3-5.8 0 .07.04.13-.06.55.28-1.36.65-3.2.77-3.3.7-3.23 1.7-7.74 1.96-9.85v.15c.14-1.2.3-1.53.5-2.87.03-.07.05-.16.06-.15.15-1.3.74-3.76.9-4.82l.08-.05.48-2.57-.2.96c-.12-.37.5-1.92.7-3.8.35-1.74.27-3.6.66-5.42.06-.88.01.8.16-.52.1-.03-.04.62.1.3.17-1.28.46-2.07.6-3.67l.08-.05c.03-.52.1-1.03.16-1.5l.14-1.4c.1-.9.2-1.7.13-2.4-.04-2.2.28-1.48.05-3.73zm-27.73 27.23l-.1.13c.02.01.05-.03.1-.13zm-8 36.12l.02.03c-.01-.02-.02-.03-.02-.03zm4.8-31.05h0c.01-.02.01-.03.01-.05l-.01.05z"/><path d="M248.84 288.98c-.78 1.87-1.13 2.3-1.82 4.3l-1.05 2.86c-.05.48-.45 1.2-.55 1.76l-.14.17a1.6 1.6 0 0 1-.19.57l-.02-.02c-.05.28-.2.57-.2.7l-.02-.02-.1.33-.01-.07a8.81 8.81 0 0 1-.47 1.37h.1c-.42.87-.37 1.26-.77 2.03l-.02-.02c-.16 1.1-.73 1.58-.9 2.7.02-.14-.06.04-.08.02-.15.5-.32 1.03-.16 1.1-.13.36-.15.27-.23.3.07.02-.01.34-.1.62l.02-.14-.25.8.2-.1c-.18.4-.2.05-.3.47l.1.03c-.22.58-.5.87-.77 1.42-.83 2.36-1.37 5.02-1.95 7.32l-.1.1c-.13.03.1.68-.03.75v.28c-.03.07-.08.23-.1.1-.04.25-.03.26 0 .45l-.1.27a10.2 10.2 0 0 0-.07 1.45l.07 1.5c-.01.32.01.72.05 1.15.06.43.17.9.27 1.36.28.92.66 1.82 1.04 2.42 1 1.7 2.3 3.7 4.2 4.65a.46.46 0 0 0 .22.09c.52.33 1.06.6 1.6.88l1.16.52a18.4 18.4 0 0 0 2.15.76c.65.18 1.13.24 1.07.06s-.66-.57-2.06-1.43l.05-.01c-.86-.43-1.4-.7-2.06-.85-.02-.2-.7-.37-.86-.53h.03c-.58-.16-.97-.7-1.45-.9.03 0 .06-.03.16.04-.32-.2-.78-.55-.73-.64-.76-.6-1.57-1.62-2.02-2.04l.05.02c-.27-.24-.27-.36-.5-.68 0-.03-.01-.05 0-.05-.13-.14-.27-.4-.38-.63l-.26-.63.05-.04c-.1-.23-.17-.47-.25-.7l.07.28c-.2-.05-.08-.58-.3-1.1-.08-.5-.58-.98-.53-1.54-.1-.25.16.22.06-.17.1-.02.08.18.14.07-.1-.38.03-.63-.03-1.1l.07-.02c-.07-.3-.05-.6-.03-.86.04-.26.1-.5.03-.7-.01-.64.23-.4.16-1.07l.14-.24c.06-.28-.1-.22 0-.52.06.03.1-.38.14-.2.17-.68.14-1.44.48-2.3-.08-.23.13-.66.07-.83.06-.01.26-.9.23-.37 0 .05-.03.12-.04.1l.05.08c.28-.48.17-.95.36-1.46-.07.14-.13.35-.13.2l.16-.47.03.12.26-.7-.1.07c.15-.33.3-.42.33-.84 0-.2-.2.3-.1-.08l.72-1.7c-.1.03-.04-.13-.01-.3h.08c.1-.66.23-.18.36-.82l.03.07-.1-.2c.05-.6.25-.25.27-.93-.07.25-.2.06-.06-.23l.04.1c.04-.17.03-.24.1-.34 0 .1.08.1.15-.16l.03.2.03-.5c.2-.33.3-.93.45-1.04 0 0 .32-.75.28-.96.01.18.2-.24.22-.1 0-.22.14-.83.3-1.04l-.01.05c.4-.84.43-1.52.8-2.26-.1.01.1-.4-.04-.32.2-.84.75-1.38.54-1.8.12-.37.24-.4.32-.6l-.02.1.5-1.4c.06-.26-.07-.36.14-.8 0 .17.06-.02.13-.2-.03.1-.02.15.1-.05-.01-.04 0-.1.01-.14.01 0 .01-.01.02 0 .1-.3.05-.25-.01-.12-.01-.01-.02 0-.05.03.2-.26.3-.82.42-.82l.66-2.23c.08-.06.07.12.01.34l.18-.5c.07.03-.07.3-.1.46.35-.55.35-1.28.74-1.93v-.17l.03-.04c-.03-.01-.01-.18.02-.3.1-.07.15.07.28-.28.17-.25.27-.8.38-1.16-.1.2-.1.1-.1.02.07-.17.17-.25.2-.4h.1c-.1.04.1-.5.08-.56.1-.07-.05.3-.02.35l.4-1.04c.08-.4-.1.03-.12-.17.1-.33.18-.68.38-1.03l-.12.1c.18-.64.34-1 .58-1.38 1.2-4.8-.48-1.3-.48-1.3-.93 1.73-1.08 2.75-1.86 4.92zm-33.34-26.96l.1.05c0-.02-.02-.03-.1-.05zm23.9 2.8h.02c-.01-.01-.02 0-.02 0zm-20.36-1.23h0-.03z"/><path d="M214.23 262.97c1.26.2 1.58.4 2.9.47l1.9.17c.3-.1.8.1 1.16.02l.13.1c.12-.02.26-.03.38.02v.02c.18-.03.38.02.47 0l-.01.02h.22l-.04.03c.3-.02.63.01.9.07l-.01-.1c.6.17.83.01 1.36.2v.02c.7-.15 1.07.28 1.8.14-.1.02.03.05.02.07.33.01.67.04.7-.13.24.03.2.08.2.14.01-.07.2-.08.4-.07l-.1.02.53.03-.1-.15c.28.07.06.18.33.18l.01-.12c.4.07.6.26.96.38 1.54.2 3.25.1 4.67.48l.05.1c.01.13.42-.14.46-.01l.18-.04c.04.03.14.07.05.08.15.02.16 0 .28-.02l.16.1c.6.14 1.15.06 1.8.17.75.26 2.23.3 3.08.34 1.2-.03 2.5.67 3.75.63.04.02.14 0 .15-.02l1.1.18s5.35.83 1.43-.82l.03-.02c-.6-.16-.98-.23-1.4-.15-.04-.18-.5-.1-.63-.16v-.01c-.4.08-.75-.22-1.12-.15.02-.01.03-.06.1-.05-.26-.02-.62-.03-.63-.13-.62-.06-1.48-.23-1.9-.12l.03-.02c-.24.08-.3-.02-.56-.01-.01-.01-.03-.02-.03-.03-.26.07-.72-.08-.93-.06v-.07l-.5-.05.18.04c-.1.17-.36-.17-.73-.1-.33-.07-.73.3-1.06.15-.18.06.16-.12-.1-.1 0-.1.12-.04.07-.13-.25.01-.4-.15-.7-.12v-.08c-.4.08-.72-.2-1-.1-.4.01-.24-.25-.68-.16l-.15-.12c-.18-.04-.14.1-.34.03.02-.06-.25-.08-.12-.13-.44-.16-.93.03-1.5-.2-.14.1-.43 0-.54.08-.01-.06-.6-.08-.25-.16.03-.01.08 0 .08.02l.05-.07c-.32-.18-.63.01-.96-.05.1.04.23.04.14.08l-.3-.04.07-.05-.46-.08.06.08c-.22-.06-.3-.2-.56-.12-.12.05.2.13-.04.12-.3-.1-.75-.2-1.14-.26.03.1-.08.08-.2.08l-.01-.08c-.42.06-.14-.18-.55-.14l.04-.05-.12.14c-.38.1-.2-.18-.6-.02.16.01.06.17-.13.12l.06-.07c-.1 0-.15.03-.22.01.07-.03.04-.1-.12-.1l.12-.08-.32.1c-.23-.1-.6-.05-.7-.16 0 0-.5-.1-.63-.01.1-.06-.17-.12-.08-.2-.14.06-.53.08-.68-.02h.03c-.57-.15-1 0-1.5-.16.02.1-.25.01-.2.13-.55.05-.95-.34-1.18-.02-.24-.01-.28-.1-.4-.14h.06l-.93-.08c-.17.01-.22.17-.5.1.1-.05-.02-.05-.13-.07.07 0 .1-.02-.05-.08-.02.02-.06.03-.1.03-.2-.02-.16 0-.07.02-.01.01 0 .02.03.04-.2-.1-.55-.06-.56-.17-.57-.04-1 .03-1.47.01-.05-.06.07-.1.2-.1l-.34-.02c.01-.08.2-.02.3-.03-.38-.17-.84.03-1.3-.14l-.1.05-.03-.01c0 .03-.1.07-.18.07-.06-.08.02-.16-.2-.18-.18-.1-.52-.03-.77-.02.13.03.08.06.02.08-.12-.01-.17-.1-.27-.07v-.1c.04.1-.3.06-.36.1-.06-.08.2-.04.22-.1l-.7-.07c-.26.04.03.1-.1.16-.22-.01-.44.03-.7-.05l.07.1c-.42.02-.66-.02-.93-.14-3.15.33-.76.85-.76.85 1.13.37 1.78.2 3.23.3zm35.33 105.8l-.24-.24c.88.45 1.7.66 2.5.95.48.04-.57-.4.37-.16l2.54 1c-.14.04-1.02-.33-.83-.13.18 0 1.45.5 1.34.3l-.02.16c.34.08.54.3.97.45.22.04.4.04-.07-.16.9.3 2.18.62 2.8 1 .84.33.53.37.73.57.26.08.67.17.68.1l.1.06.4.04c1.63.86 3.33 1.08 4.7 1.86-.4-.12-1.05-.45-1.1-.33l1.23.45c-.5-.17-.94-.25-.8-.1l5.37 1.82c.02.2 1.35.58 2 1-.1-.07-.1-.1-.08-.1-.3-.14-.42-.22.28.02-.02.01 0 .02.01.03.12.03.24.06.33.06.5.28.42.28.15.2.4.16.87.33.47.28 1.08.5 1.27.3 1.9.48l3.38 1.3-.22-.06c.45.2.55.43 1.44.75.9-.25 2.3.9 4.3 1.5-.18-.27.8.2.75.03 1.8.9 3.42 1.2 5.46 2.15l-.1-.03c.5.35 1.97.82 2.5.9-.34.01.66.46.25.42.5 0 2.3.8 2.3.8.3.3 1.7.7 2.52 1.15l1.2.24-.45-.02c.6.22.67.36.4.33.26.13.4.14.82.27l-.23.04c.4.2.5.14.58.1.06-.06.03-.12-.12-.15.4-.07.47-.1.6-.08.1.02.3.03.44-.3-.03-.1-.07-.2-.13-.27l.05.08c.04-.1.06-.2.08-.27l.1-.27c.07-.13.13-.18.2-.24.06-.05.1-.1.18-.24a2.39 2.39 0 0 0 .1-.26c0-.03 0-.06-.01-.1l.14-.01c.01-.1.05-.2-.15-.1-.02-.04-.08-.07-.13-.1.04 0-.23-.12-.4-.2l-.53-.26-1.9-.94c-.88-.32.3.24-.17.16-1-.2-1.2-.53-2-.93l.18.2-1.65-.75h.27l-1.12-.48c-.35-.05.13.13.47.32-1.2-.53-2.33-.6-3.47-1.33l.2-.05c-.03.03.16.1.27.13 1.3.32-.85-.48-.87-.6-.4 0-1.44-.56-1.98-.56-2.04-1.14-3.87-1.46-5.44-2.3.46.08-.5-.3-.42-.37-.7-.37-.6-.08-1.23-.37l-.53-.4c-1.6-.4-.95-.64-2.45-1.14-1.02-.2-2.13-1.06-3.63-1.43v-.13c-1.12-.35-1.6-.8-2.5-1.1-.18-.2.24.03.27-.13-.94-.27.33-.15-.32-.26-1.2-.65-2.7-.54-3.9-1.07-1.37-.35-2.3-1.27-2.64-1.08l.66.3-1.8-.7v-.12c-.75-.23-2.4-1.07-3.37-1.27.01 0-.05-.04-.1-.08-.95-.3-1.14-.53-2.02-.7h.12c-1.54-.34-4.65-1.7-6.9-2.6-.01-.18-1.32-.65-2.27-1 .3.12.36.06.42.06-1.37-.35-2.63-1.3-4.06-1.65h.06c-.48-.3-2.14-.7-2.27-1.07-.8-.2-1.55-.45-2.36-.78l-.62-.26-.25-.12-.28-.15c-.07.01-.08.16-.13.25l-.03-.08c-.05.1-.1.2-.16.28l-.04.08-.06.16-.12.3-.45 1.1-.2.48a1.33 1.33 0 0 0-.12.37 1.48 1.48 0 0 0 .03.7c.1.33.25.56.4.75.18.14.37.26.6.34l2.93 1.17 2.52.7c.96.52 1.85.9 3.38 1.4z"/><path d="M281.78 355c-.26.1-.4-.02-.63.18-.13.05-.24.16-.35.24 0 .14-.15.08-.17.2l-.06-.05c-.01.04-.02.08-.06.06v-.02c-.01.07-.06.06-.07.1h-.01l-.04.03-.01-.03c-.03.08-.1.12-.16.12l.05.07c-.16-.02-.12.16-.28.1l-.01-.02c-.02.27-.28-.03-.3.24 0-.03-.03-.04-.04-.05-.05.06-.1.1-.03.25-.05.02-.06-.03-.1-.08.04.07.01.1-.02.14v-.03l-.1.08.1.1c-.07-.01-.1-.14-.13-.1l.06.1c-.1.02-.2-.1-.33-.15-.32.12-.5.55-.88.52l-.05-.07c-.07-.1.01.2-.05.1v.07c-.02-.02-.05-.03-.05-.06-.03.01-.02.03-.03.08l-.07-.05c-.15.01-.18.2-.32.24-.23-.06-.44.22-.56.38-.14.3-.65-.02-.78.3-.02-.01-.02.03-.01.05l-.22.1s-1.06.5.23 1.03v.03c.15 0 .23-.03.24-.2.1.15.1-.04.16 0h0c.01-.16.2.02.2-.12 0 .01.02.06.01.07.04-.05.1-.12.14-.03.1-.1.3-.14.3-.32l.01.03c-.01-.12.05-.04.07-.12.01.01.02.01.02.02 0-.12.13-.1.15-.15l.03.06.1-.06h-.04c-.07-.17.13.06.14-.08.08-.01-.05-.4.06-.36-.01-.1.04.14.05.05.05.08.01.06.05.13.03-.07.12.04.15-.04l.04.06c.01-.16.2.01.18-.13.05-.1.16.17.17 0l.08.07c.04 0-.03-.12.03-.1.03.06.07.02.08.08.13.04.1-.22.3-.13-.03-.12.06-.1.03-.18.03.05.12-.05.1.08 0 .01-.01.02-.02 0l.03.07c.13.1.08-.13.16-.15-.03-.01-.05.01-.06-.05l.06-.02.02.06.1-.02-.05-.06c.06.01.14.12.14 0-.01-.07-.1-.07-.06-.1.08.01.2.04.3.02-.05-.07-.03-.08-.01-.1l.04.06c.03-.13.1.13.15.01l.02.05-.05-.15c0-.17.1.12.1-.1-.03.03-.1-.14-.04-.13v.07c.01-.02.01-.06.03-.05.01.04.04.1.07.07v.1-.15c.08.04.1-.08.18 0 0 0 .12-.01.1-.12.01.07.08.07.1.15-.01-.08.03-.18.1-.12h0c.15.02.13-.2.28-.17-.05-.07.03-.06-.04-.15.05-.15.3.1.17-.22.04-.04.1.04.13.04h0c.07-.07.1-.1.17-.12.02-.05-.05-.2.02-.2.01.07.03.04.05.03-.01.02 0 .04.05.06-.01-.02 0-.03 0-.05.04-.03.02-.04 0-.04 0-.01-.01-.02-.02-.03.08.05.1-.06.16.03.1-.08.12-.22.2-.3.04.04.04.1.02.13l.06-.05c.04.07-.02.06-.03.1.14.07.1-.2.24-.14l-.01-.07.01.01c-.02-.03-.02-.08-.01-.1.05.05.08.14.12.1.07.04.08-.08.1-.14-.03 0-.04-.04-.04-.06.02-.01.07.04.07 0l.05.08c-.05-.07.01-.12 0-.15.05.05-.01.07.01.12.1-.06.04-.03.13-.08.01-.1-.05-.07-.07-.16.03-.04.04-.12.12-.1l-.05-.07c.05-.1.1-.12.2-.07.27-.92-.32-.9-.32-.9-.3-.04-.3.24-.56.45zm4 3.46c-.26.1-.4-.01-.6.18-.12.05-.23.15-.34.24.01.14-.15.08-.16.2l-.06-.05c0 .04-.02.08-.06.06l-.01-.02c-.01.07-.06.06-.06.1l-.01-.02-.04.03-.01-.03c-.03.08-.1.12-.15.12l.05.07c-.16-.02-.1.16-.27.1l-.01-.02c-.02.27-.28-.03-.3.24 0-.03-.03-.04-.04-.05-.05.06-.1.1-.03.25-.05.02-.06-.03-.1-.08.04.07.01.1-.02.14v-.03l-.1.08.1.1c-.07-.01-.1-.14-.13-.1l.06.1c-.08.02-.2-.1-.32-.15-.32.12-.5.55-.86.52l-.05-.07c-.07-.1.02.2-.05.1v.07c-.02-.02-.05-.03-.05-.06-.03.01-.02.03-.02.08l-.07-.05c-.15.01-.17.2-.3.24-.23-.06-.43.22-.54.38-.13.3-.64-.01-.76.3-.02-.01-.02.03-.01.05l-.22.1s-1.04.5.25 1.02l.01.03c.15 0 .23-.03.24-.2.1.14.1-.04.16 0v.01c.01-.15.2.02.2-.12 0 .01.03.06.01.07.04-.05.1-.12.14-.03.1-.1.3-.14.3-.32l.01.03c-.01-.12.05-.04.07-.12.01.01.02.01.02.02-.01-.12.13-.1.14-.15l.03.06.1-.06-.04.01c-.08-.17.13.06.14-.08.07-.01-.06-.4.05-.36-.01-.1.04.14.05.05.05.08.01.06.06.12.02-.06.12.04.15-.04l.04.06c.01-.16.2.01.17-.13.05-.1.16.17.17-.01l.08.07c.04 0-.04-.12.03-.1.03.06.07.02.08.08.13.04.1-.22.3-.13-.04-.12.06-.1.03-.18.03.05.12-.05.1.08 0 .01-.01.02-.02 0l.03.07c.13.1.08-.13.15-.15-.03-.01-.05.01-.06-.04l.06-.02.02.06.1-.02-.05-.06c.06.01.14.12.14-.01-.01-.06-.1-.07-.06-.1.08.01.2.04.3.02-.05-.07-.03-.08-.02-.1l.04.06c.03-.13.1.13.14.01v.05l-.05-.15c0-.17.1.12.1-.1-.02.03-.1-.14-.04-.13l.03.07c.01-.02.01-.06.03-.05.01.04.04.1.07.07l.02.1-.01-.15c.08.04.1-.08.17 0 0 0 .12-.01.1-.12.01.07.08.07.1.14-.01-.08.03-.18.1-.12h0c.15.01.13-.2.28-.17-.05-.07.03-.06-.04-.15.05-.15.3.1.16-.22.04-.04.1.04.13.04h0a.51.51 0 0 1 .16-.12c.02-.05-.06-.2.02-.2.01.07.03.04.05.03-.01.02 0 .04.05.06-.01-.02-.01-.03 0-.05.03-.03.02-.04 0-.04 0-.01-.01-.02-.02-.03.08.05.1-.06.16.03.1-.08.12-.22.2-.3.04.04.04.1.02.13l.05-.05c.04.07-.01.06-.03.1.14.07.1-.2.24-.14l-.01-.07.01.01c-.02-.03-.02-.08-.01-.1.05.05.08.14.12.1.07.04.08-.08.1-.14-.03 0-.04-.04-.04-.06.02-.01.07.04.07 0l.05.08c-.05-.07.01-.12 0-.15.05.05 0 .07.02.12.08-.06.04-.03.13-.08.01-.1-.05-.07-.07-.16.03-.04.04-.12.12-.1l-.06-.07c.05-.1.1-.12.2-.07.25-.92-.33-.88-.33-.88-.38 0-.38.28-.62.48zm-39.77-7.2c.37.35.36.56.8.86.17.18.4.34.57.5.17-.01.22.23.4.26l-.02.1c.06.01.1.04.1.1h-.02c.1.02.1.1.16.1h-.02l.06.06-.03.01a.57.57 0 0 1 .25.26l.06-.06c.07.24.27.2.3.45v.01c.34.1.12.43.44.56-.04-.02-.03.04-.05.04.1.1.17.2.32.12.05.08-.01.1-.06.13.06-.04.14.02.17.08l-.04-.02.12.18.1-.1c.01.12-.14.1-.06.18l.1-.05c.05.15-.07.3-.08.48.2.57.7 1.1.6 1.73l-.08.04c-.12.04.22.12.1.16l.07.06c-.02.02-.04.07-.07.04.01.06.03.06.07.1l-.07.08c-.02.25.15.44.16.7-.13.33.06.9.15 1.24.2.5-.33 1.03-.14 1.53-.02.01.02.06.03.06l-.06.45c.03-.01-.36 2.18.95.65l.03.02c.1-.25.13-.42.01-.6.17-.01.04-.2.1-.27v.01c-.12-.17.14-.32.02-.48.01.01.06.01.06.05-.02-.1-.05-.27.05-.27-.01-.27.04-.64-.12-.82l.03.01c-.1-.1-.02-.13-.07-.23.01-.01.02-.01.03-.01-.1-.1-.02-.3-.07-.4l.07-.01v-.2l-.01.08c-.2-.02.1-.17-.02-.3.01-.15-.4-.26-.33-.4-.1-.06.14.05.07-.05.1-.01.06.04.14.01-.05-.1.08-.18 0-.3h.07c-.16-.15.06-.33-.1-.42-.1-.16.2-.15.02-.3l.1-.1c0-.08-.13-.03-.1-.13.06-.01.03-.12.1-.08.05-.22-.23-.36-.13-.66-.13-.02-.1-.17-.2-.18.05-.02-.07-.26.1-.15.01.01.02.03 0 .04h.08c.1-.2-.15-.24-.18-.4-.01.05.02.1-.04.08l-.04-.13.07.01-.04-.2-.06.05c0-.1.1-.2-.04-.26-.08-.02-.06.13-.12.04 0-.14 0-.37-.06-.53-.07.05-.1.01-.13-.03l.06-.04c-.17-.12.12-.13-.04-.26l.05-.01-.16.03c-.2-.08.1-.15-.16-.22.05.06-.13.1-.14.02l.07-.02c-.04-.03-.07-.03-.08-.07.05.01.1-.04.05-.1h.1l-.18-.05c.01-.13-.15-.22-.1-.3 0 0-.07-.22-.2-.2.08 0 .04-.12.12-.13-.1-.01-.25-.1-.22-.2h0c-.07-.26-.34-.3-.4-.53-.06.06-.1-.06-.17.03-.23-.12-.1-.48-.4-.32-.08-.07-.02-.15-.04-.2h.03a1.49 1.49 0 0 1-.28-.29c-.08-.03-.2.07-.26-.05.08-.01.03-.04 0-.08.03.02.05.01.04-.07-.02.01-.04.01-.06 0-.06-.05-.07-.03-.05 0-.01.01-.01.02-.02.04 0-.12-.17-.17-.1-.25-.2-.15-.4-.2-.57-.3.02-.06.1-.06.15-.04l-.12-.08c.06-.06.1.02.13.04-.04-.22-.35-.14-.42-.36l-.07.02v-.02c-.02.03-.08.03-.1.02.02-.07.1-.12.03-.18-.02-.1-.2-.12-.3-.15.04.04 0 .06-.04.07-.04-.03-.02-.1-.07-.1l.05-.08c-.04.08-.16 0-.2.02.02-.07.1 0 .14-.04l-.25-.17c-.13-.01-.04.08-.13.12-.08-.04-.2-.04-.25-.15l-.02.1c-.18-.05-.26-.12-.3-.25-.73-.08-.9.13-.9.3-.01.16.15.34.15.34.26.36.6.3 1.1.6zm.92-3.85l-.05.01c.01.01.03.01.05-.01zm-4.52 9.62zm2.6-8.94h0z"/><path d="M246.38 346.34c-.4.44-.62.47-.93 1-.18.23-.32.5-.46.76.03.18-.2.32-.2.5h-.1c0 .07-.01.13-.07.16l-.02-.01c0 .1-.07.16-.07.2l-.02-.01-.04.1-.02-.03a.71.71 0 0 1-.18.38l.08.03c-.23.2-.1.37-.33.54l-.02-.01c.05.4-.38.37-.33.77-.01-.05-.05 0-.07-.02-.04.15-.1.3.05.37-.05.1-.1.06-.15.04.07.03.06.13.03.2l-.01-.05-.08.23h.15c-.1.1-.17-.04-.2.1l.1.05c-.1.15-.3.18-.45.3-.33.65-.33 1.47-.75 2.03h-.1c-.13-.03.12.24 0 .22l.03.1c-.03.01-.07.05-.08 0-.03.07-.01.08.01.14l-.1.05c-.15.25-.1.53-.2.8-.27.3-.32.98-.34 1.38.03.57-.62 1.06-.54 1.66-.02.01.01.07.02.07l-.13.5s-.15.6-.1 1 .27.57.97-.22h.02c.12-.25.17-.4.08-.63.17.01.07-.2.14-.26l.01.01c-.1-.2.2-.3.1-.5.01.01.06.02.05.06.01-.12.01-.28.1-.27.04-.28.2-.64.08-.85h.02c-.08-.13.02-.13 0-.26.01 0 .02-.01.03-.01-.07-.14.07-.32.06-.42l.07.01.05-.22-.04.08c-.17-.08.16-.13.1-.32.06-.14-.27-.4-.14-.53-.06-.1.1.1.08-.02.1.03.04.07.12.06-.01-.12.15-.14.13-.3h.07c-.07-.2.2-.28.1-.44 0-.2.25-.04.17-.27l.12-.04c.04-.07-.1-.1-.02-.16.06.03.1-.1.13-.02.16-.15.01-.44.26-.62-.1-.1.02-.2-.05-.27.05.01.1-.25.16-.06 0 .02-.01.04-.02.03l.06.04c.18-.1.03-.28.1-.42-.04.03-.05.1-.1.03l.06-.13.05.05.1-.18h-.08c.08-.08.2-.06.15-.2-.04-.07-.13.05-.1-.06a2.39 2.39 0 0 0 .34-.41c-.1-.02-.06-.06-.06-.1l.07.03c-.02-.2.18.01.18-.2l.04.04-.12-.1c-.07-.2.18-.01.07-.27-.02.07-.16-.04-.1-.1l.06.05c.01-.05-.01-.08.02-.1.02.04.1.06.1-.01l.06.08-.06-.18c.12-.06.1-.25.2-.25 0 0 .14-.18.07-.28.04.07.12-.03.18.04-.04-.1-.02-.27.1-.3v.02c.2-.18.1-.44.3-.6-.08-.03.02-.12-.1-.14.03-.26.4-.26.16-.5.04-.1.14-.07.18-.1v.03c.08-.2.1-.24.2-.36.01-.08-.1-.18-.01-.27.03.07.05.02.08-.02-.01.03 0 .05.08.02-.01-.02-.01-.04-.01-.05.04-.07.01-.07-.02-.04-.01-.01-.02-.01-.04-.01.12-.03.13-.2.23-.16.12-.22.14-.43.22-.63.06.01.07.08.05.15l.07-.13c.06.05-.01.1-.03.14.2-.07.1-.37.33-.47l-.03-.07h.02c-.03-.02-.04-.1-.03-.12.07.02.13.1.2.02.1-.02.12-.2.15-.3-.04.04-.06 0-.07-.04.03-.04.1-.02.1-.07l.08.06c-.08-.04.01-.16-.01-.2.07.02 0 .1.03.14l.2-.25c.02-.13-.08-.04-.1-.14.05-.1.06-.2.18-.25l-.1-.03c.07-.18.16-.26.3-.3.2-.74.14-.96-.05-1-.2-.02-.44.15-.44.15-.53.32-.55.7-.92 1.27zm-.88 73.96c.1.01.02.16.7-.17-.01-.02.01-.05.04-.1l-3.96-.37c.46-.05-.56-.14-.5-.24-.77-.16-.6.1-1.3-.01l-.62-.23c-1.66.07-1.1-.34-2.67-.4-1.03.1-2.34-.42-3.9-.35l-.03-.13c-1.18-.01-1.76-.3-2.7-.34-.23-.15.24-.04.23-.2-.97.01.28-.24-.38-.16-1.07-.23-2.18.06-3.24.1 1.36 1.12 2.94 2.07 4.7 2.7 2.35.87 4.9 1.22 7.35 1.16 1.18.06 1.92.1 3.14-.07l-.03-.1c.82-.25.2.05 1.08-.13l-.35-.05c.54-.15 1.08-.27 1.6-.5l-.24.12c.53-.2 1.13-.47 1.1-.53zm16.64 1.46c-.03.02-.06.04-.1.08l-.17-.06-1.1-.18-2.1-.36c-.94-.06.34.15-.12.2-1 .08-1.3-.17-2.18-.33l.24.15-1.8-.25.26-.08-1.02-.12c-.03.02-.06.05-.1.07l.44.08-.48-.04a26.17 26.17 0 0 1-3.14 2.26c.02 0 .04.01.07.01h-.1c.6.2 2.1.23 2.62.15-.32.1.76.25.36.33.47-.14 2.44.12 2.44.12.36.2 1.84.18 2.75.4l1.2-.1-.44.1c.63.04.74.16.48.2.28.05.43.01.86.03l-.2.1.26.03c.05 0 .1 0 .14-.02.08-.02.13-.06.15-.1.04-.08-.01-.12-.17-.1.38-.2.4-.26.53-.26.1-.01.27-.05.25-.36a.91.91 0 0 0-.23-.17l.1.05c-.02-.01-.01-.2-.01-.33s.01-.23.03-.3c.03-.15.07-.23.1-.3a.74.74 0 0 0 .1-.3 2.45 2.45 0 0 0 .02-.27c0-.03-.01-.08-.03-.12l.13-.06c-.03-.1-.03-.16-.08-.13zm-61.82-6.78a18.96 18.96 0 0 1-2.48-.08l-.6-.06-.26-.04c-.08 0-.23-.07-.28-.03l-.03.3-.05-.07-.07.32-.06.67-.12 1.2c-.12.68.03 1.14.28 1.53.2.28.4.47.6.6.07.03.13.05.2.07.36-.04.73-.07 1.1-.03l1.3.17c.57.02-.2-.08.07-.12.62-.06.8.08 1.33.16l-.15-.1 1.1.12-.16.05.74.07c.2-.03-.1-.05-.33-.1.8.08 1.47-.08 2.26.12l-.1.07c.01-.02-.1-.03-.18-.03-.8.06.58.12.62.17.24-.08.94.05 1.25-.05 1.4.27 2.52.12 3.58.3-.28.04.35.07.3.13.47.08.36-.06.78-.02l.38.13c1-.07.67.2 1.63.2.63-.08 1.43.2 2.37.15l.02.08c.26 0 .47.02.67.05l.6-.58c.33-.4-.63.43.12-.34l2.25-2c-.06.12-.86.83-.6.7.1-.15 1.23-1.17 1.02-1.1l.1.04.2-.2-.37-.5c-.27-.01-.5-.02-.72 0 .01-.01-.06-.03-.1-.05-1-.01-1.24-.2-2.14-.1l.1-.04c-1.58.1-4.95-.32-7.37-.53-.06-.17-1.45-.25-2.47-.32.32.03.36-.05.4-.06-1.4.05-2.9-.5-4.36-.44l.05-.02c-.5-.16-2.22-.08-2.45-.4z"/></g><defs ><path id="B" d="M391.74 323.2c33.4 0 60.6 27.2 60.6 60.6s-27.2 60.6-60.6 60.6-60.6-27.2-60.6-60.6 27.2-60.6 60.6-60.6m0-7c-37.3 0-67.6 30.3-67.6 67.6s30.3 67.6 67.6 67.6 67.6-30.3 67.6-67.6-30.3-67.6-67.6-67.6h0z"/></defs></svg>