<svg xmlns="http://www.w3.org/2000/svg" viewBox="0 0 480 480" xmlns:v="https://vecta.io/nano"><path d="M393.13 244.9l.01.1-.01-.1zm-276-109.4l.01.1c-.01-.06-.01-.08-.01-.1zM215 69.42l-.04.35c.02-.01.04-.1.04-.35zm33.1-20.96l-.07-.04.07.04zM219.35 82.7l-.01-.02-.1-.05zM203.3 50.43c-.14.12-.3.22-.44.32.02.01.15-.05.44-.32zm8.13 26.73l-.07-.1c.05.08.07.1.07.1zM185.1 59.52c.01-.01.01-.02.01-.03l.06-.14-.07.17zm28.48-5.32l.08-.1c-.03 0-.05.02-.08.1zm8.8-1.7c0 .01-.01.02-.01.03.01-.02.01-.03.01-.03zm-5.32-1.28h0c-.01.02-.01.02-.01.03l.01-.03z"/><path d="M252.93 52.36c-3.5-4.5-8.4-7.76-13.4-7.96-3.46-.27-7.22.26-11.2 2.45-.06-.06-1.7-1.5-2.3-2.1-.26-.26-1.03-.5-2.2-.3-.88-1.56-2.6-3.3-5.9-3.5-5.6-.4-9.6.7-13.2 6.7-2.3 3.8-6.1 5.2-11.2 6.5-4.2 1.1-9.1 4.8-8.6 12.1.6 7.3 0 11.2-3.9 14.5s-8.7 16.6 5.4 25.3c12.7 7.9 26.2 2.97 30.3-7.93 4-10.5-2.92-17.12-6.32-24.32-4.38-7.05-1.22-16.3 2.67-18.97.42-.5.82-.67 1.2-.7-.76 2.3-.04 3.4-.04 3.4l2.4 1.6c-.88 1.86-1.58 3.9-2.1 6.2-1.85 12.98 8.24 18.9 10.07 19.85l-5.57 18.2-2.2 5.7s3.2 4.1 10.8 5.7c5.2 1.1 8.7 1.2 11 1 1.9-.2 4.2-.6 3-4.1-1.7-5.2-1.1-8.5-1.1-8.5l2.4-13c1.46.24 2.82.25 3.9-.1 3.2-1 6.2-4 7.3-10 .7-4 1.1-9.1 1.1-12.9 0-2.13-.22-5.1-.22-5.1l-.82-.2c2.13.2 3.48-.01 3.84-.64.6-.4-1.8-4.6-5.1-8.9zM228.2 79.8c.01.02.01.04.01.05l-.05-.03c.01 0 .03-.01.04-.02zm7.85-16.88c.28-2.72.48-4.7.96-5.25l-.96 5.25zm-18.78-5.03c-.01.03-.03.05-.04.08a.3.3 0 0 1 .04-.08zm8.57 23.1c.02 0 .04-.01.06-.02l-.27.88.2-.86zm11.68-23.6c1.1-.22 3 1 7.88 2.52-2.75-.75-6.62-2.08-7.88-2.52z" fill="#fff"/><path d="M258.8 60.16c-.1-.3-.17-.42-.25-.6l-.24-.48-1.07-1.9c-.68-1.37-1.9-3.18-3.26-4.92-1.37-1.78-3.06-3.36-4.4-4.36-1.9-1.37-4-2.8-6.47-3.68-1.22-.44-2.55-.7-3.82-.77-1.24-.1-2.53-.07-3.72.15-.16-.02-.56.1-.55.13-1.47.2-2.9.56-4.3 1.08 0 0-1 .35-2.3 1.03-.15-.12-.28-.23-.4-.25.03-.03-.2-.24-.3-.36-.08-.1-.12-.16.1-.1.02 0 .12.1.1.1l.14-.02c-.12-.18-.16-.24-.23-.3s-.15-.1-.23-.15c-.17-.1-.35-.15-.48-.3.06.1.18.2.06.2l-.26-.26h.12l-.3-.32c.05.04-.07-.08-.08-.07l-.08-.07c.02.06.02.1.04.17-.3-.33-.47-.6-.92-.57-.2.03.3.25-.1.17-.3-.14-.73-.24-1.15-.27-.43-.7-.87-1.17-.87-1.17-.65-.72-1.42-1.25-2.2-1.66a9.11 9.11 0 0 0-2.35-.74l-1.13-.13-1.04-.04a24.54 24.54 0 0 0-2.1.06c-1.42.12-2.92.42-4.46 1.13-1.54.7-3.06 1.87-4.4 3.47-.6.7-1.1 1.36-1.52 2l-.6.9-.52.72a9.9 9.9 0 0 1-2.31 2.11c-1.7 1.1-3.7 1.87-7.1 2.82-.78.18-1.8.48-2.64.86-.88.37-1.7.88-2.5 1.43-1.56 1.14-2.85 2.65-3.65 4.32-.34.8-.73 1.95-.97 3.16-.27 1.2-.26 2.48-.15 3.48l-.06.74c.1.64.18 1.38.16 2.02l-.03-.04c.12.94.07 2 .1 2.47l-.03-.04-.05 1.13-.03-.2c-.03 1.6-.34 3.23-1 4.46l.16-.05c-.7 1.33-1.35 2.12-2.04 2.85-.66.64-1.65 1.52-2.54 2.8v-.05c-.93 1.78-1.52 3.2-1.96 4.7-.46 1.5-.73 3.12-.47 5.14-.08-.5-.05.22-.08.18.1 1.9.76 3.8 1.02 3.75.43 1.27.28 1.07.25 1.27.08-.04.65 1 1.13 1.92l-.25-.4c.2.46.5.86.8 1.27l.87 1.22.3.25c.02.1.05.2.57.75l.1-.13c.68.86 1.3 1.44 1.9 2.07.3.3.57.66.92.94l1.13.92c1.78 1.3 3.8 2.3 5.9 3.13 2.14.7 4.35 1.32 6.6 1.42l.84.07.84-.02 1.67-.05c1.1-.14 2.2-.24 3.27-.54 1.08-.2 2.08-.63 3.1-.96.96-.47 1.95-.84 2.82-1.42l.38-.1c.1.02.6-.3 1-.75.42-.43.84-.87 1.02-.9.24-.2.44-.47.64-.72.2-.17.64-.56.33-.18.62-.65.65-.65 1-1.2l.68-.7c1.12-1.38 1.84-2.88 2.44-4.4.3-.77.5-1.58.74-2.4.15-.85.4-1.7.46-2.63.4-2.2.14-5.58-1.16-8.55-1.2-3.02-3.03-5.66-4.23-7.62l-1.27-2.1c-.44-.74-.72-1.43-1.18-2.3-.82-1.42-1.32-3.06-1.5-4.72-.4-3.34.35-6.74 1.64-9.58.06-.08.14-.25.2-.4l.1-.27c.5-.82 1.08-1.56 1.74-2.18l.52-.4c-.03.1-.1.2-.07.3l-.14.01c.12-.05.14.4.2.45-.1.1-.1-.23-.17-.27.03.62 0 .3.1.94.17.3.12-.1.27.04a2.69 2.69 0 0 0 .2.43c.07.15.15.3.28.42v-.15c.53.25.7.38.92.67l.54.17c-.74 1.73-1.36 3.64-1.93 6.3l-.06.23c-.04.12-.04.23-.05.3l-.05.44-.1.83-.14 1.47.03 2.56c.2 1.62.36 3.35 1.52 5.77 1.02 2.34 2.7 4.54 4.5 6.22.5.32 1.08.88 1.74 1.4a11.72 11.72 0 0 0 1 .74l.5.32.6.33.7.5-5.3 17.27-2.3 5.96.17.22c.14.17 3.4 4.26 11.1 5.88 3.44.73 6.48 1.1 9.08 1.1a22.56 22.56 0 0 0 2.07-.09c1.28-.13 2.7-.37 3.4-1.45.5-.8.52-1.88.03-3.3-1.63-5-1.1-8.22-1.08-8.25l2.3-12.53a11.6 11.6 0 0 0 1.53.11c.76 0 1.47-.1 2.12-.3 2.27-.7 6.3-3 7.64-10.4.67-3.84 1.1-8.94 1.1-13 0-1.44-.1-3.28-.17-4.32a6.62 6.62 0 0 0 1.4-.08c.15-.03.25-.06.45-.1s.36-.15.54-.23c.2-.07.33-.2.47-.32.15-.1.26-.27.37-.42.37-.47.24-1.06.06-1.6zm-42.98-1.53l.42.1c0 .05.01.1.01.13l-.02.06-.4-.3zm-.5-1.8a1.23 1.23 0 0 0-.15-.08c0 .01-.01.01-.02.02-.02.01-.03.02-.06.02-.01.06-.07-.08-.1-.18-.07-.22-.15-.5-.13-.84.1-.6.28-1 .47-1.36a23.24 23.24 0 0 0 .66-1.4c.33-.58.67-1.23 1.04-1.8.03-.37.52-.72.65-1.12l.18-.05c.04-.14.1-.28.24-.35l.02.03c.06-.2.25-.34.3-.44l.02.03.15-.2v.06c.17-.3.4-.6.65-.77l-.1-.07c.57-.37.57-.73 1.14-1l.01.03c.37-.75 1.06-.55 1.5-1.22-.06.08.07.04.08.07.28-.2.6-.4.5-.62.23-.1.22-.01.3.06-.05-.1.13-.24.32-.3l-.07.07.52-.22-.17-.16c.3-.04.15.22.4.1l-.05-.17c.42-.07.7.16 1.04.28.37.01.77.1.83.15l1.22.97c.17.1.38.27.46.4-.12.06-.26.12-.4.14l-.14-.06c-.1-.05-.04 0-.01.06.03.07.04.15-.04.1l-.1.2c-.07.01-.18.05-.13-.05-.15.1-.14.13-.2.26l-.23.02c-.64.37-1 .93-1.63 1.38-.87.4-2.06 1.7-2.68 2.52-.8 1.17-2.5 1.87-3.15 3.25-.05.02-.08.15-.06.17-.3.34-.54.72-.8 1.07 0 0-.25.32-.5.8-.2.33-.4.73-.56 1.12-.04-.04-.07-.06-.07-.06-.26-.25-.5-.45-.74-.6-.1-.1-.23-.18-.35-.25zm24.7 46.27c-.03.14-.6 3.5 1.12 8.75.38 1.1.4 1.93.07 2.45-.45.7-1.6.88-2.64 1-2.9.25-6.55-.08-10.85-1-6.34-1.33-9.56-4.47-10.33-5.3l2.1-5.45 6.78-22.16c.57-.16 1.1-.4 1.6-.73.1.32.17.65.24.96.53 2.22 2.42 4.1 5.96 5.93 1.7.87 5.03 2.43 8.23 3.05l-2.3 12.5zm14.63-33.3c-.1-.08-.2-.12-.34-.12-.3 0-1.2.01-2.2.4-.05.03-.1.07-.15.1a1.33 1.33 0 0 0-.26.21c-.01.01-.02.03-.04.04a1.4 1.4 0 0 0-.36.93c0 .77.63 1.4 1.4 1.4s1.4-.63 1.4-1.4a1.35 1.35 0 0 0-.2-.7c.15-.01.3-.01.4-.01a.52.52 0 0 0 .31-.1c-.16 3.2-.52 6.64-1 9.4-.93 5.1-3.4 8.5-6.96 9.6-3.64 1.14-10.2-1.98-12.12-2.97-3.2-1.66-5-3.38-5.44-5.27a33.87 33.87 0 0 0-.45-1.72l-.22-.76-.6.52c-.87.76-1.9 1.17-3.03 1.17-2.65 0-4.8-2.33-4.8-5.2s2.15-5.2 4.8-5.2c1.42 0 2.77.68 3.68 1.87l.08.1.13.05c.1.04 2.54.98 4.57-.17 1.26-.72 2.06-2.06 2.38-4l1.8-10.14c1.67.58 6.67 2.3 9.23 2.84l7.84 1.73c.06.86.2 3.06.2 4.7.01.85-.01 1.74-.05 2.64zm-29.52 2.6c-1.6 0-2.9 1.35-2.9 3s1.3 3 2.9 3 2.9-1.35 2.9-3-1.3-3-2.9-3zm0 5c-1.05 0-1.9-.9-1.9-2s.85-2 1.9-2 1.9.9 1.9 2-.85 2-1.9 2zm14.7-9c.4-.4 1.2-1.8 3.9-1.6.4 0 .8-.3.8-.7s-.25-.74-.7-.8c-3.6-.3-5.18 2-5.3 2.2a.78.78 0 0 0 .2 1c.26.18.87.12 1.1-.1zm11.5-3.7c-.4.06-.68.5-.6.9.1.42.5.6.9.6.44 0 .96-.05 1.63.38.36.22.8.1.97-.18.2-.3.18-.77-.1-1-1.32-1.07-2.46-.76-2.8-.7zm-3.4 9.7c-.3.2-.3.6-.1.9s.7 1.2.5 1.8-.7.6-.9.6c-.3 0-.7.2-.7.6 0 .3.2.7.6.7h.2c.6 0 1.7-.3 2.1-1.5.4-1.4-.7-2.8-.8-3-.2-.3-.6-.3-.9-.1zm-3.5-3.4a.47.47 0 0 0-.5-.5c-.3 0-1.4-.02-2.38.46a1.04 1.04 0 0 0-.42.38 1.36 1.36 0 0 0-.3.86c0 .77.63 1.4 1.4 1.4s1.4-.63 1.4-1.4c0-.25-.07-.48-.18-.68.2-.02.37-.02.48-.02a.47.47 0 0 0 .5-.5zm-.23 11.97c-3.6-.2-4.35-3.17-4.4-3.3-.14-.42-.5-.6-.9-.5s-.6.5-.5.9c.4 1.5 2 4.2 5.8 4.4.4 0 .7-.3.7-.8 0-.3-.3-.7-.7-.7z"/></svg>