<svg xmlns="http://www.w3.org/2000/svg" viewBox="0 0 480 480" xmlns:v="https://vecta.io/nano"><path d="M393.13 244.9l.01.1-.01-.1zM212.43 62.22l.03.14-.03-.14zm-95.3 73.28l.01.1c-.01-.06-.01-.08-.01-.1z"/><path d="M255.07 61.64c-.4-2.9-1.1-5.3-3.3-8.1-3.9-4.9-16.2-7.8-24.6-2.2-8.06 5.4-6.4 16.73-5.6 20.4-1 1.04-1.6 2.48-1.6 4.1 0 3.15 2.37 5.7 5.3 5.7.37 0 .72-.05 1.07-.13l-6.87 22.43-2.2 5.7s3.2 4.1 10.8 5.7c5.2 1.1 8.7 1.2 11 1 1.9-.2 4.2-.6 3-4.1-1.7-5.2-1.1-8.5-1.1-8.5l2.45-13.3c1.4.18 2.7.15 3.78-.18 3.2-1 6.08-3.83 7.28-9.46.9-3.9.9-9.44.9-13.64 0-1.1-.1-3.4-.3-5.4zm-26.42 18.6c.01.03.02.06.02.1l-.08-.05c.02-.02.04-.03.06-.04z" fill="#fff"/><path d="M255.56 61.57c-.4-2.92-1.13-5.45-3.4-8.34h0c-2.05-2.57-6.24-4.57-10.94-5.22-5.32-.73-10.4.3-14.33 2.92-8.08 5.42-6.66 16.66-5.85 20.68a6.44 6.44 0 0 0-1.58 4.24c0 3.42 2.6 6.2 5.8 6.2.12 0 .24-.01.36-.02L219 103.66l-2.3 5.96.17.22c.14.17 3.4 4.26 11.1 5.88 3.44.73 6.48 1.1 9.08 1.1a22.56 22.56 0 0 0 2.07-.09c1.28-.13 2.7-.37 3.4-1.45.5-.8.52-1.88.03-3.3-1.63-5-1.1-8.22-1.08-8.25l2.36-12.85a11.76 11.76 0 0 0 1.17.06c.85 0 1.65-.1 2.35-.32 2.7-.84 6.2-3.23 7.62-9.82.9-3.93.9-9.55.9-13.65v-.1c.01-1.17-.1-3.48-.3-5.46zm-15.08 41.98c-.03.14-.6 3.5 1.12 8.75.38 1.1.4 1.93.07 2.45-.45.7-1.6.88-2.64 1-2.9.25-6.55-.08-10.85-1-6.34-1.33-9.56-4.47-10.33-5.3l2.1-5.45 6.78-22.15c.58-.16 1.13-.42 1.63-.75.08.3.16.6.22.88.53 2.22 2.42 4.1 5.96 5.93 2.47 1.27 5.5 2.42 8.3 2.86l-2.35 12.8zm6.56-13.9c-3.13.98-8.45-.83-12.05-2.67-3.2-1.66-5-3.38-5.44-5.27a24.44 24.44 0 0 0-.35-1.35l-.25-1.25c-.88 1.16-2.2 1.92-3.7 1.92-2.65 0-4.8-2.33-4.8-5.2s2.15-5.2 4.8-5.2c1.67 0 3.14.93 4 2.33l.75-.67c-1.05-1.6-2.8-2.65-4.75-2.65-1.25 0-2.4.43-3.36 1.16-.78-4.24-1.7-14.2 5.54-19.04 8.3-5.53 20.24-2.54 23.93 2.1 2.14 2.72 2.8 5.02 3.2 7.84.2 1.93.3 4.2.3 5.35v.1l-.01 2.76a.48.48 0 0 0-.41-.21c-.3 0-1.2.01-2.2.4-.05.03-.1.07-.15.1a1.33 1.33 0 0 0-.26.21c-.01.01-.02.03-.04.04a1.4 1.4 0 0 0-.36.93c0 .77.63 1.4 1.4 1.4s1.4-.63 1.4-1.4a1.35 1.35 0 0 0-.2-.7c.15-.01.3-.01.4-.01a.48.48 0 0 0 .41-.21c-.04 3.43-.2 7.24-.87 10.1-1.3 6.12-4.5 8.32-6.95 9.08zm-21.47-16.8c-1.6 0-2.9 1.35-2.9 3s1.3 3 2.9 3 2.9-1.35 2.9-3-1.3-3-2.9-3zm0 5c-1.05 0-1.9-.9-1.9-2s.85-2 1.9-2 1.9.9 1.9 2-.85 2-1.9 2zm14.38-9.44c.4-.4 1.2-1.8 3.9-1.6.4 0 .8-.3.8-.7s-.25-.74-.7-.8c-3.6-.3-5.18 2-5.3 2.2a.78.78 0 0 0 .2 1c.25.18.87.12 1.1-.1zm13.43-1.83c.36.22.8.1.97-.18.2-.3.18-.77-.1-1-1.32-1.07-2.46-.75-2.8-.7-.4.06-.68.5-.6.9.1.42.5.6.9.6.44 0 .95-.04 1.63.38zm-5.33 7.83c-.3.2-.3.6-.1.9s.7 1.2.5 1.8-.7.6-.9.6c-.3 0-.7.2-.7.6 0 .3.2.7.6.7h.2c.6 0 1.7-.3 2.1-1.5.4-1.4-.7-2.8-.8-3-.2-.3-.6-.3-.9-.1zm-3.5-3.4a.47.47 0 0 0-.5-.5c-.3 0-1.4-.02-2.38.46a1.04 1.04 0 0 0-.42.38 1.36 1.36 0 0 0-.3.86c0 .77.63 1.4 1.4 1.4s1.4-.63 1.4-1.4c0-.25-.07-.48-.18-.68.2-.02.37-.02.48-.02a.47.47 0 0 0 .5-.5zm-.23 11.97c-3.6-.2-4.35-3.17-4.4-3.3-.14-.42-.5-.6-.9-.5s-.6.5-.5.9c.4 1.5 2 4.2 5.8 4.4.4 0 .7-.3.7-.8 0-.3-.3-.7-.7-.7z"/></svg>