<svg xmlns="http://www.w3.org/2000/svg" viewBox="0 0 480 480" xmlns:v="https://vecta.io/nano"><path d="M393.13 244.9l.01.1-.01-.1zm-276-109.4l.01.1c-.01-.06-.01-.08-.01-.1z"/><path d="M256.92 69.98c-.5-5.8-1.42-11.16-4.12-15.46-2.4-3.9-5.5-8.3-9.6-8.9-1.8-.2-3.84 1.17-4.05 1.1-2-.8-5.65-2.8-9.35-1.5-4.4 1.5-9.8 5.7-15.1 16s-6.4 17.1-7.3 28.8l-2.2 26.7c-.2 2.7 1.9 5 4.6 5h7.9s.02-.06.05-.16l35.45-.64c2.2-.1 3.9-1.9 3.8-4-.4-11.3.34-42.03-.08-46.94zM220 51.1l-.1.15v-.02c.03-.05.06-.1.1-.13z" fill="#fff"/><path d="M257.74 94.25l.08-6.86s.1-8.3-.12-13.5c-.07-1.68-.2-3.03-.34-3.64l.02-.35c.2.75.3.6.35 0 .05-.7.01-2-.1-3.1l-.22-2.07c-.48-3.78-1.33-6.68-2.86-9.47-.8-1.4-1.66-2.65-2.7-4.1-1.07-1.4-2.3-3-4.18-4.47-.82-.65-1.66-1.18-2.52-1.53-.43-.16-.84-.33-1.28-.4l-.66-.13a4.18 4.18 0 0 0-.7-.02c-.88.05-1.62.27-2.28.52l-.94.38-.08.03h-.02c-.01 0-.03-.01-.04-.02-.02-.01.03.01-.06-.03l-.2-.1-.43-.2-.9-.4c-.63-.26-1.3-.52-2.06-.73-1.5-.4-3.43-.73-5.7-.04-4.07 1.24-7.4 4.24-9.9 7.2-1.08 1.5-3.1 4.05-4.04 6l-.5.67c-.33.67-.72 1.44-1.12 2.08l-.01-.06-1.25 2.6-.01-.05-.56 1.22.06-.23-2.15 5.25.17-.1c-1.4 3.5-1.48 4.9-2.36 8.17l-.02-.05c-.47 4.25-1.27 6.64-1.35 11.02.01-.55-.1.23-.1.18-.12 2-.28 4.13-.03 4.18-.12 1.45-.18 1.18-.3 1.36.1 0 .05 1.27-.03 2.4v-.53l-.23 3.25.26-.62c-.2 1.72-.3.42-.37 2.07l.17-.01c-.23 2.38-.6 3.76-.92 6.05l-.53 6.54-.23 3.3c-.02.3-.04.53-.05.85-.02.33.01.65.05.98a5.55 5.55 0 0 0 .6 1.83 5.31 5.31 0 0 0 2.82 2.48c.6.22 1.23.35 1.86.35l1.64-.01 6.35.03.53.01.06-.16h2.12l.4.12c.18.2 2.46-.32 2.8-.16l1.04-.1c.3.03.9.05.4.1.96-.01 1-.04 1.68-.1l1.04.1c3.8.02 7.03-.26 11.03-.3 2.4.08 5.87.02 9.38-.1l5.2-.2c2.02-.16 3.56-1.6 4.06-3.06.18-.5.26-1.07.24-1.6l-.05-1.42c-.04-.94-.04-1.9-.04-2.87 0-1.94.05-3.92.1-5.9.1-3.98.25-7.98.1-11.72 0-.22-.06-.86-.08-.85zM252.8 72.8c.77 0 1.4-.63 1.4-1.4 0-.25-.07-.48-.2-.7.15-.01.3-.01.4-.01a.52.52 0 0 0 .31-.1c-.16 3.2-.52 6.64-1 9.4-.93 5.1-3.4 8.5-6.96 9.6-3.64 1.14-10.2-1.98-12.12-2.97-3.2-1.65-5-3.38-5.44-5.27a33.87 33.87 0 0 0-.45-1.72l-.22-.76-.6.52c-.87.76-1.9 1.17-3.03 1.17-2.65 0-4.8-2.33-4.8-5.2s2.15-5.2 4.8-5.2c1.42 0 2.77.68 3.68 1.87l.1.1c.05.04 1.26.95 2.5.73.64-.1 1.17-.48 1.58-1.1 1.48-2.3 3.18-4.6 5.7-7.72 4.47-5.56 8.1-7.43 8.98-7.82.77.42 3.6 2.1 5.33 5.05.93 1.57 2.04 3.87 2.04 5.9a59.62 59.62 0 0 1-.06 2.62c-.1-.08-.2-.12-.34-.12-.3 0-1.2.01-2.2.4-.05.03-.1.07-.15.1a1.33 1.33 0 0 0-.26.21c-.01.01-.02.03-.04.04a1.4 1.4 0 0 0-.36.93c0 .8.62 1.42 1.4 1.42zm-33.23 30.74l6.78-22.16c.57-.16 1.1-.4 1.6-.73.1.32.17.65.24.96.53 2.22 2.42 4.1 5.96 5.93 1.7.87 5.03 2.43 8.23 3.05l-2.3 12.5c-.03.14-.6 3.5 1.12 8.75.38 1.1.4 1.93.07 2.45-.45.7-1.6.88-2.64 1-2.9.25-6.55-.08-10.85-1-6.34-1.33-9.56-4.47-10.33-5.3l2.1-5.45z"/><path d="M225.2 72.4c-1.6 0-2.9 1.35-2.9 3s1.3 3 2.9 3 2.9-1.35 2.9-3-1.3-3-2.9-3zm0 5c-1.05 0-1.9-.9-1.9-2s.85-2 1.9-2 1.9.9 1.9 2-.86 2-1.9 2zm14.7-9c.4-.4 1.2-1.8 3.9-1.6.4 0 .8-.3.8-.7s-.25-.74-.7-.8c-3.6-.3-5.18 2-5.3 2.2a.78.78 0 0 0 .2 1c.25.18.87.12 1.1-.1zm13.43-1.83c.36.22.8.1.97-.18.2-.3.18-.77-.1-1-1.32-1.07-2.46-.75-2.8-.7-.4.06-.68.5-.6.9.1.42.5.6.9.6.44 0 .95-.04 1.63.38zM248 74.4c-.3.2-.3.6-.1.9s.7 1.2.5 1.8-.7.6-.9.6c-.3 0-.7.2-.7.6 0 .3.2.7.6.7h.2c.6 0 1.7-.3 2.1-1.5.4-1.4-.7-2.8-.8-3-.2-.3-.6-.3-.9-.1zm-3.5-3.4a.47.47 0 0 0-.5-.5c-.3 0-1.4-.02-2.38.46a1.04 1.04 0 0 0-.42.38 1.36 1.36 0 0 0-.3.86c0 .77.63 1.4 1.4 1.4s1.4-.63 1.4-1.4c0-.25-.07-.48-.18-.68.2-.02.37-.02.48-.02a.47.47 0 0 0 .5-.5zm-.23 11.97c-3.6-.2-4.35-3.17-4.4-3.3-.14-.42-.5-.6-.9-.5s-.6.5-.5.9c.4 1.5 2 4.2 5.8 4.4.4 0 .7-.3.7-.8 0-.3-.3-.7-.7-.7z"/></svg>