<svg xmlns="http://www.w3.org/2000/svg" viewBox="0 0 480 480" xmlns:v="https://vecta.io/nano"><path d="M393.13 244.9l.01.1-.01-.1zM212.43 62.22l.03.14-.03-.14zm-95.3 73.28l.01.1c-.01-.06-.01-.08-.01-.1z"/><path d="M254 53.54c-2.38-3.62-13.9-13.04-27.05-4.83-11.82 6.43-11.5 18.02-10.84 22.55l-.34-.1s-1.1.12-2.4 2.1c-1.4 2.17-1.97 3.66-2.2 3.5l1.53.56c-2.34 1.05-7.1 3.72-8.43 8.64-1 3.7-1.7 8.83 3.4 13 2.8 2.28 8.48 3.76 12.28 3.07l-.42 1.37-2.2 5.7s3.2 4.1 10.8 5.7c5.2 1.1 8.7 1.2 11 1 1.9-.2 4.2-.6 3-4.1-1.7-5.2-1.1-8.5-1.1-8.5l2.4-13c.72.12 1.4.18 2.05.17h.1c.26-.01.5-.03.75-.06l.2-.03c.27-.04.54-.1.8-.17 1.4-.44 2.76-1.26 3.94-2.54 1.52-1.65 2.74-4.08 3.36-7.46.18-1 .33-2.07.47-3.17a93.98 93.98 0 0 0 .47-5.03c.1-1.66.16-3.27.16-4.7a19.38 19.38 0 0 0-.03-1.07c0-.1-.01-.17-.02-.26a15.86 15.86 0 0 0-.29-2.18c-.02-.07-.03-.14-.05-.2-.08-.35-.17-.7-.3-1.04.98 1.6 1.3 2.58 1.3 2.58s.7-.6.8-2.6c.1-2.2-.8-5.3-3.14-8.87zm-17.25 10.6l3.5-2.65-1.1.87-1.23.96c-.18.14-.37.3-.57.47-.07.06-.14.12-.2.18l-.43.38c-.08.07-.17.15-.25.23l-.43.4c-.1.08-.18.17-.26.25l-.46.44c-.08.08-.17.16-.25.25l-.5.48-.92.92-.6.6c-.03.03-.06.06-.1.1l-.66.68c1.75-2 3.45-3.78 4.45-4.57zm-8.1 15.68l.02-.02c.02.01.02.03.02.04l-.04-.02z" fill="#fff"/><path d="M202.53 91.8c-.01-.03-.01-.05-.02-.07l.02.07zm15.87-36.04c.06-.1.14-.17.22-.25-.02-.01-.1.04-.22.25z"/><path d="M222.04 74.4h0zm36.04-12.85l-.04-.5c.01.27.03 1.15-.06.6 0-.33-.03-.43-.04-.65l-.07-.56.12.22c-.06-.56-.16-1.12-.3-1.66l-.05.25c-.16-.8-.07-1.14-.54-1.93-.23-.35.14.76-.2-.01a19.03 19.03 0 0 0-1.62-3.67c-.04.17-.23-.14-.45-.44l.07-.1c-1.02-1.12-.12-.65-1.2-1.68l-.3-.1c-1.1-.74-.32-.7-1.62-1.4.45.35.05.35-.45-.13l.2.03-.63-.45c.22.1.2-.05-.28-.37l.4.12-.98-.47c-.62-.56-1.8-1.13-2.04-1.4 0 0-1.54-.9-2-.88.37.05-.52-.37-.22-.37-.24-.03-.67-.18-1.13-.3s-.9-.27-1.15-.4l.1.02-.7-.25-.68-.14-1.3-.22-2.57-.24c.08.13-.9.07-.65.23-.47.05-.92.05-1.34.04l-1.16.08c-.7.06-1.27.1-1.54.47-.8.24-1 .14-1.43.23l.2-.08-.97.3-.7.3-1.36.54c-.53.25-.48.56-1.42 1 .25-.24-.1-.02-.45.16.2-.13.26-.2-.22-.01-.05.06-.14.13-.22.2-.01 0-.03 0-.02-.01-.55.34-.44.3-.17.18-.01.02.03.02.12 0-.65.22-1.6 1-1.75.9l-1.14.77c-.34.26-.63.57-.93.83l-1.3 1.2-.4.46c-.18.08.02-.26.34-.62l-.78.87c-.08-.1.4-.54.64-.82-.54.44-1 1-1.48 1.58-.48.57-.84 1.28-1.4 1.87l-.12.33-.07.07c.03.02-.1.36-.2.58-.2.15-.2-.14-.58.58-.2.26-.42.66-.6 1.1l-.43 1.34c.2-.4.18-.25.14-.06-.14.37-.34.55-.4.85l-.14-.01c.17-.1-.16 1.05-.15 1.2-.16.2.1-.62.04-.74L216 61.5c-.06.2-.12.4-.25 1.18-.06.86.16-.13.2.3-.14.74-.12 1.48-.3 2.32l.15-.26-.06 1.76-.1 1.42c.12.97.27 1.76.43 2.4-.16.02.14.16-.03.2-.32-.13-.6.14-.94.2l.15.06c-.43.33-.62.5-.96.63-.5.82-.54 1.35-.53 1.63.02.28.15.35.3.3.16-.03.34-.17.5-.28l.26-.2.6-.47.38-.34c-.01-.03 0-.1.05-.12.24.04.65.13 1.03.23 1.3.5 1.63.83 2.9 1.2a6.77 6.77 0 0 0-.23 1.7c0 1.5.5 2.87 1.32 3.94-.5-.16-.98-.2-1.5-.44-.76-.53-2.42-.9-3.37-1.13-.65-.1-1.26-.42-1.88-.76l-.93-.5c-.1-.04-.2-.1-.28-.13-.04-.01-.08-.02-.14-.01-.04 0-.08.01-.12.01.02-.02-.1 0-.1.02l-.1-.04c.01.01.06-.03.08-.06.05-.06.08-.12.12-.18l.24-.46.67-1.44c.36-.87.23-1.46-1.67.2l-.02-.05c-.22.28-.4.52-.5.75l-.23.5c-.08.16.66.4.55.52-.03.06-.22.4-.36.55l-.13.06c.03.02.07-.01.12-.05-.01.01-.03.04-.04.04h.01c-.02.01-.03.02-.05.02-.01.01-.02 0-.03 0h-.03l-.68.2c.04.03.07.04.1.06a10.94 10.94 0 0 0-1.89 1.22 19.4 19.4 0 0 0-2.87 2.88l-1.18 1.5c-.34.44-.57.87-.8 1.3-.26.42-.4.9-.62 1.46-.2.55-.3 1.12-.45 1.88-.3 1.43-.42 3.04-.24 4.5.22.68.3 1.94.75 2.68l.02.34c.15.25.3.55.4.83h-.04l.6.95h-.04l.3.43-.08-.05 1.42 1.64.05-.13c.9 1.08 1.47 1.24 2.48 2.05l-.03.02c1.54.5 2.17 1.36 3.84 1.57-.2-.02.06.1.04.1.73.2 1.5.34 1.58.1.52.12.4.16.46.28.02-.1.5-.06.9 0h-.2l1.2.12-.2-.23c.63.12.14.27.75.27v-.17c.87.1 1.4.36 2.3.42.03 0 .06-.01.1-.01l-.06.2-2.3 5.96.17.22c.14.17 3.4 4.26 11.1 5.88 3.44.73 6.48 1.1 9.08 1.1a22.56 22.56 0 0 0 2.07-.09c1.28-.13 2.7-.37 3.4-1.45.5-.8.52-1.88.03-3.3-1.63-5-1.1-8.22-1.08-8.25l2.3-12.53a11.6 11.6 0 0 0 1.53.11c.76 0 1.47-.1 2.12-.3 2.27-.7 6.3-3 7.64-10.4.67-3.85 1.1-8.94 1.1-13a15.88 15.88 0 0 0-.04-1.16c.06-.02.1-.04.15-.04.03-.01.05 0 .07 0s.03.02.1-.06a.75.75 0 0 0 .2-.3c.03.02.4-.34.6-.7s.33-.56.07.16c-.05.12-.16.28-.17.22l-.05.26c.45-.35.75-1.07.87-1.95.06-.44.07-.9.07-1.38.05-.2.04-.44.03-.68zm-17.55 41.56c-.03.14-.6 3.5 1.12 8.75.38 1.1.4 1.93.07 2.45-.45.7-1.6.88-2.64 1-2.9.25-6.55-.08-10.85-1-6.34-1.33-9.56-4.47-10.33-5.3l2.1-5.45 6.2-20.25h.01l.3-.86-.03.01.1-.32c.1-.14.15-.3.17-.57l.05-.16c.57-.16 1.1-.4 1.6-.73.1.32.17.65.24.96.53 2.22 2.42 4.1 5.96 5.93 1.7.87 5.03 2.43 8.23 3.05l-2.3 12.5zm14.64-33.3c-.1-.08-.2-.12-.34-.12-.3 0-1.2.01-2.2.4-.05.03-.1.07-.15.1a1.33 1.33 0 0 0-.26.21c-.01.01-.02.03-.04.04a1.4 1.4 0 0 0-.36.93c0 .77.63 1.4 1.4 1.4s1.4-.63 1.4-1.4a1.35 1.35 0 0 0-.2-.7c.15-.01.3-.01.4-.01a.52.52 0 0 0 .31-.1c-.16 3.2-.52 6.64-1 9.4-.93 5.1-3.4 8.5-6.96 9.6-3.65 1.14-10.2-1.98-12.12-2.97-3.2-1.66-5-3.38-5.44-5.27a33.87 33.87 0 0 0-.45-1.72l-.22-.76-.6.52c-.85.75-1.93 1.17-3.03 1.17-2.65 0-4.8-2.33-4.8-5.2s2.15-5.2 4.8-5.2c1.42 0 2.77.68 3.68 1.87l.36.47.4-.44c.05-.05 4.05-4.4 6.93-7.04.02-.01.03-.01.03-.01.02-.03.06-.06.08-.1.52-.48 1-.9 1.42-1.22l9.7-7.47c.94.43 4.32 2.1 6.04 5.02 1.03 1.74 1.24 4.18 1.24 5.9.01.86-.02 1.75-.05 2.65zm-29.54 2.6c-1.6 0-2.9 1.35-2.9 3s1.3 3 2.9 3 2.9-1.35 2.9-3-1.3-3-2.9-3zm0 5c-1.05 0-1.9-.9-1.9-2s.85-2 1.9-2 1.9.9 1.9 2-.86 2-1.9 2zm14.7-9c.4-.4 1.2-1.8 3.9-1.6.4 0 .8-.3.8-.7s-.25-.74-.7-.8c-3.6-.3-5.18 2-5.3 2.2a.78.78 0 0 0 .2 1c.25.18.87.12 1.1-.1zm11.5-3.7c-.4.06-.68.5-.6.9.1.42.5.6.9.6.44 0 .96-.05 1.63.38.36.22.8.1.97-.18.2-.3.18-.77-.1-1-1.32-1.07-2.47-.76-2.8-.7zm-3.4 9.7c-.3.2-.3.6-.1.9s.7 1.2.5 1.8-.7.6-.9.6c-.3 0-.7.2-.7.6 0 .3.2.7.6.7h.2c.6 0 1.7-.3 2.1-1.5.4-1.4-.7-2.8-.8-3-.2-.3-.6-.3-.9-.1zm-3.5-3.4a.47.47 0 0 0-.5-.5c-.3 0-1.4-.02-2.38.46a1.04 1.04 0 0 0-.42.38 1.36 1.36 0 0 0-.3.86c0 .77.63 1.4 1.4 1.4s1.4-.63 1.4-1.4c0-.25-.07-.48-.18-.68.2-.02.37-.02.48-.02a.47.47 0 0 0 .5-.5zm-.23 11.97c-3.6-.2-4.35-3.17-4.4-3.3-.14-.42-.5-.6-.9-.5s-.6.5-.5.9c.4 1.5 2 4.2 5.8 4.4.4 0 .7-.3.7-.8 0-.3-.3-.7-.7-.7z"/></svg>