<svg xmlns="http://www.w3.org/2000/svg" viewBox="0 0 480 480" xmlns:v="https://vecta.io/nano"><path d="M393.13 244.9l.01.1-.01-.1zm-276-109.4l.01.1c-.01-.06-.01-.08-.01-.1z"/><path d="M253.6 59.03c1 1 2.1 3.3 2.1 3.3s1.14-1.16.44-3.86c-1-4.1-4.08-7.95-9.94-9.72-3.23-1.15-7.2-2.3-12.68-.68 2.2-.78 3.66-1.05 3.66-1.05s-.8-1.07-1.43-1.85l.05-.03s1.25-2.72-.05-4.02c-1.8-1.8-3.95.42-3.95.42s1.87-3.1-.53-5.2c-2.3-2-5.37.6-5.37.6s.1-3.4-3.6-3.7c-3.7-.2-3.8 3.8-3.8 3.8s-2.1-3.7-5.4-1.5c-3.6 2.4-.7 5.8-.7 5.8s-3.8-1.8-5.6 1.4c-1.9 3.4 2.1 5.3 2.1 5.3s-3.85 1.27-2.65 4.97 5.35 1.63 5.35 1.63-1.95 2.33-.25 3.93c1.23 1.23 2.9.76 3.45.55l1.48 1.9a31.78 31.78 0 0 1 2.94-3.71c-3.82 4.52-4.84 9.65-3.6 16.17 1.72 9.06 8.58 11.68 9.2 11.9l-5.5 18-2.2 5.7s3.2 4.1 10.8 5.7c5.2 1.1 8.7 1.2 11 1 1.9-.2 4.2-.6 3-4.1-1.7-5.2-1.1-8.5-1.1-8.5l2.4-13c1.46.24 2.82.25 3.9-.1 3.2-1 6.2-4 7.3-10 .7-4 1.1-9.1 1.1-12.9 0-2.13-.22-5.1-.22-5.1s-.56-2.6-4.24-3.38a9.72 9.72 0 0 0-.37-.06c1.57 0 2.6.08 2.9.4zm-9.37-.33l-3 .1-1.62.05c1.4-.16 3-.17 4.62-.16zM228.5 79.8c.01.02.01.04.01.05l-.05-.03c.01 0 .03-.01.04-.02zm-13.92-10.1c-.02.01-.04.1-.04.36l.04-.36zm-8.96-16.6l-.02-.3c-.03 0-.03.08.02.3z" fill="#fff"/><path d="M245.82 47.47h0l.15-.03z"/><path d="M256 63.32l.33-.4c.42-.52.74-1.14.94-2.06l-.13-1.65c-.04-.3-.13-.6-.18-.86-.06-.2-.1-.3-.17-.4.1-.1-.74-2.22-.13-1.04.05.1.1.3.08.3l.15.12c-.23-1.36-1-2.24-1.7-3.35.2.34.45.8.22.53-.2-.35-.44-.7-.67-1.02l.22.15a14.35 14.35 0 0 0-1.12-1.45l.1.26c-.56-.7-.67-1.06-1.55-1.6-.4-.22.55.66-.2.08a14.26 14.26 0 0 0-3.73-2.44c.08.17-.3.01-.7-.12l-.01-.12c-1.5-.37-.5-.42-1.94-.8l-.3.06c-1.4-.2-.65-.46-2.24-.57.6.13.22.3-.5.08l.2-.06c-.4-.08-.56-.05-.83-.13.26-.01.16-.13-.46-.22l.43-.05c-.4-.02-.8 0-1.2.02-.44-.13-1.04-.14-1.56-.17-.52 0-.98 0-1.17-.07l-.33.01a3.24 3.24 0 0 1-.24-.31l.2.3h-.08l-.5-.67.2.12-.7-1-.02.15a1.64 1.64 0 0 1-.14-.32c.02-.03.03-.06.05-.1.17-.36.36-.86.3-1.45.05-.53-.13-1.13-.5-1.6-.38-.48-.84-.73-1.27-1.03-.53-.1.52-.01-.26-.22.02-.14.4.06.23-.13-.37-.12-.7-.2-1.03-.23-.43-.01-.5-.01-.68.07-.03.02-.07.03-.1.06l.04-.12-.6.44c.14-.24.3-.5.2-.57l.02-.15a.74.74 0 0 1 .19-.36c.03.02.05-.16.06-.3 0-.17-.03-.4-.12-.7.01-.2.04-.4.01-.6-.2-.62-.3-.36-.6-1 .1-.02-.47-.75-.15-.48-.44-.64-1.2-1.17-2.1-1.37-.9-.22-1.84-.1-2.8.1a3.62 3.62 0 0 1-.61.37c-.13.08-.14.1-.2.16-.02.03-.05.06-.07.1 0-.06-.15.07-.2.05.01-.1.02-.16.07-.17.03-.04.05-.06.04-.01l.07-.17c0-.03-.01-.04 0-.07.02-.08 0-.06-.04-.07-.01 0-.03-.01-.05-.02h-.01c.01.02.01.04-.01-.01l-.1-.18c-.13-.24-.27-.48-.44-.72.2.3.4.73.18.48-.17-.32-.38-.63-.63-.9l.23.1c-.35-.45-.8-.8-1.3-1.1l.15.22c-.67-.42-.92-.7-1.8-.7-.4.03.68.25-.1.17-.48-.12-1.14-.14-1.85-.04a3.92 3.92 0 0 0-1.96 1.05c.2-.01-.1.25-.3.58l-.12-.03-.32.6c-.03.03-.06.04-.1.03-.08.01-.12-.06-.1.05l-.05-.1a1.63 1.63 0 0 1 .13.32c.04.26.01.26-.02.2-.06-.15-.04-.2-.12-.1.07.07.1.43-.1.16.02-.03.04-.06.05-.1-.07-.05-.13-.03-.18-.1.04 0 .06-.04.06-.08 0-.02-.01-.04-.02-.06s-.02-.03-.15-.12c.15.06.2.05.23.01-.03 0-.02.03-.1-.01l-.24-.1c-.17-.06-.33-.14-.5-.18-.34-.23-.87-.43-1.37-.47-.5-.05-.92-.01-1.1-.04 0 0-.48.05-.93.25-.47.18-.9.5-1 .66.2-.3-.55.24-.4-.01-.33.3-1.17 1.38-1.48 1.9l.03-.1c-.4.66-.5 1.42-.44 2.05a3.98 3.98 0 0 0 .16.87l.08.14c.04.07.08.15.04.15l.2.16c.01.02-.01.02.16.15-.07.01-.25-.05-.4-.1l-.24-.08c.04-.01-.15-.02-.24-.02-.1 0-.22-.01-.33 0-.42.03-.76.17-.93.4-.75.28-.94.27-1.32.5l.15-.14c-.64.48-.96.88-1.2 1.25-.25.36-.42.7-.63 1.24-.1.58.02.7.02 1.7-.1-.33-.1.1.01.47-.07-.23-.13-.3-.06.2l.15.25c-.01.01 0 .03-.02.02.3.58.28.45.16.18.02.01.03-.02.01-.12.1.68 1.03 1.47.92 1.57.17.15.26.2.4.28a3.91 3.91 0 0 0 .41.2c-.13.07-.27.18-.43.3l-.27.26-.45.47c-.17.08-.01-.26.32-.56a3.98 3.98 0 0 0-.72.81c-.1-.08.34-.55.6-.77-.55.36-.98.97-1.2 1.68-.22.7-.24 1.46-.2 2.23.04.1.1.2.16.3v.1c.05-.02.18.3.28.48-.01.23-.25.07.08.76.06.15.15.3.27.5.13.17.3.33.5.5a3.42 3.42 0 0 0 1.27.6c-.4-.16-.25-.17-.07-.13.36.1.56.25.86.24l.02.14c-.07-.07.18-.08.46-.1.17-.01.22-.03.3-.05.07-.02.13-.03.15-.05.04.04-.04.08-.14.1l-.15.04c-.07.01-.15.02-.17.04.23 0 .23-.01.3-.02l.14-.02c.07-.01.1-.02.15-.03.08-.02.16-.03.47-.15.5-.28.12-.15.48-.4l.18-.08c-.14.2-.28.5-.47.9l-.05.1.13-.14.07-.07-.02.06c-.1.4-.15.9-.1 1.34.05.43.22.8.44 1.16.88.83 1.86.86 2.45.74.45-.1.77-.24 1-.38a2.12 2.12 0 0 1 .22.42l1.4 1.1c-.1.3-.1.48.07.48-.6 1.4-.88 2.67-1.1 4.05-.12.18-.1-.24-.02-.76l-.23 1.26c-.13-.03.07-.73.14-1.13-.55 1.47-.3 3.14-.44 4.9l.1.36-.01.1c.05-.01.12.4.17.64-.08.26-.24 0-.15.87-.02.35.05.84.17 1.34l.38 1.47c-.1-.48 0-.34.08-.14.1.42.06.7.18 1l-.12.08c.05-.1.13.17.25.48l.3.72c-.02.27-.3-.62-.4-.7.6 1.67.23.86.95 2.48.47.82.05-.2.34.15l1.33 2.2v-.24l2.2 2.7c2 1.56 3.46 2.03 4.26 2.2l-5.6 18.33-2.3 5.96.17.22c.14.17 3.4 4.26 11.1 5.88 3.44.73 6.48 1.1 9.08 1.1a22.56 22.56 0 0 0 2.07-.09c1.28-.13 2.7-.37 3.4-1.45.5-.8.52-1.88.03-3.3-1.63-5-1.1-8.22-1.08-8.25l2.3-12.53a11.6 11.6 0 0 0 1.53.11c.76 0 1.47-.1 2.12-.3 2.27-.7 6.3-3 7.64-10.4.67-3.85 1.1-8.94 1.1-13 0-1.2-.07-2.72-.14-3.8.05.01.07 0 .13-.08zm-40.34-5.1c-.03-.05-.02.01-.07-.02-.01 0-.01-.01-.02-.02l-.01-.02a.48.48 0 0 1 .05-.11l.25-.54c.18-.38.42-.78.73-1.24 1.25-1.48 1.77-1.7 3.14-3.15.7-.64 1.46-1.34 2.2-1.94.25-.4.98-.75 1.34-1.17l.23-.03c.12-.15.28-.3.46-.36l.01.03c.18-.23.47-.34.56-.45l.01.03.27-.2-.03.07a4.38 4.38 0 0 1 1.17-.77l-.1-.1c.87-.35 1.05-.72 1.88-.96v.03c.8-.76 1.6-.5 2.48-1.18-.1.1.08.04.08.07.45-.2.95-.38.88-.63.35-.1.3-.01.38.07-.03-.1.26-.23.53-.32l-.1.08c.26-.1.52-.15.77-.22l-.2-.17c.43-.04.16.22.55.1l-.03-.17c.58-.07 1 .16 1.42.3.14.01.16.03.22.08l.16.17.25.28.25.3c.08.1.07.07.1.1.1.1.3.28.4.42-.01.01-.03.01-.05.02-.17-.03-.63 0-.43-.12-.24.1-.72.27-1.22.4-.3.1-.6.18-.86.24-.03-.01-.06 0-.1.02a2.61 2.61 0 0 1-.33.06l.1-.05c-2.16.56-3.46 1.5-5.25 2.27.12.05-.67.46-.52.52-.36.22-.72.45-1.07.7-.43.25-.85.47-1.2.7-.66.38-1.14.73-1.28 1.15-.7.57-.95.53-1.33.82l.15-.16-.7.6c-.72.5-1.44 1.02-1.92 1.72a.44.44 0 0 0-.13.2c-.43.42-.9.82-1.28 1.3 0 0-1.27 1.4-1.95 2.58l-.14-.24a7.11 7.11 0 0 0-.68-1.08zm24.7 44.9c-.03.14-.6 3.5 1.12 8.75.38 1.1.4 1.93.07 2.45-.45.7-1.6.88-2.64 1-2.9.25-6.55-.08-10.85-1-6.34-1.33-9.56-4.47-10.33-5.3l2.1-5.45 6.45-21.06.53-1.15a5.8 5.8 0 0 0 1.42-.68c.1.32.17.65.24.96.53 2.22 2.42 4.1 5.96 5.93 1.7.87 5.03 2.43 8.24 3.05l-2.3 12.5zM255 69.82c-.1-.08-.2-.12-.34-.12-.3 0-1.2.01-2.2.4-.05.03-.1.07-.15.1a1.33 1.33 0 0 0-.26.21c-.01.01-.02.03-.04.04a1.4 1.4 0 0 0-.36.93c0 .77.63 1.4 1.4 1.4s1.4-.63 1.4-1.4a1.35 1.35 0 0 0-.2-.7c.15-.01.3-.01.4-.01a.52.52 0 0 0 .31-.1c-.16 3.2-.52 6.64-1 9.4-.93 5.1-3.4 8.5-6.96 9.6-3.65 1.14-10.2-1.98-12.12-2.97-3.2-1.66-5-3.38-5.44-5.27a33.87 33.87 0 0 0-.45-1.72l-.22-.76-.6.52c-.85.75-1.93 1.17-3.03 1.17-2.65 0-4.8-2.33-4.8-5.2s2.15-5.2 4.8-5.2c1.42 0 2.77.68 3.75 1.94.1.1 2.68 2.32 4.8 1.38 1.53-.67 2.34-2.75 2.42-6.18.05-2.27.01-3.46-.02-4.25-.03-.9-.04-1.2.12-1.96.34-1.63.8-1.7 4.9-1.8h.15l3.08-.12c2.7-.12 5.53-.24 6.63 0 3.13.66 3.77 2.7 3.85 2.97.03.37.22 3.1.22 5.04a59.72 59.72 0 0 1-.06 2.63zm-29.56 2.58c-1.6 0-2.9 1.35-2.9 3s1.3 3 2.9 3 2.9-1.35 2.9-3-1.3-3-2.9-3zm0 5c-1.05 0-1.9-.9-1.9-2s.85-2 1.9-2 1.9.9 1.9 2-.85 2-1.9 2zm14.7-9c.4-.4 1.2-1.8 3.9-1.6.4 0 .8-.3.8-.7s-.25-.74-.7-.8c-3.6-.3-5.18 2-5.3 2.2a.78.78 0 0 0 .2 1c.26.18.87.12 1.1-.1zm11.5-3.7c-.4.06-.68.5-.6.9.1.42.5.6.9.6.44 0 .96-.05 1.63.38.36.22.8.1.97-.18.2-.3.18-.77-.1-1-1.32-1.07-2.46-.76-2.8-.7z"/><path d="M248.23 74.4c-.3.2-.3.6-.1.9s.7 1.2.5 1.8-.7.6-.9.6c-.3 0-.7.2-.7.6 0 .3.2.7.6.7h.2c.6 0 1.7-.3 2.1-1.5.4-1.4-.7-2.8-.8-3-.2-.3-.6-.3-.9-.1zm-3.5-3.4a.47.47 0 0 0-.5-.5c-.3 0-1.4-.02-2.38.46a1.04 1.04 0 0 0-.42.38 1.36 1.36 0 0 0-.3.86c0 .77.63 1.4 1.4 1.4s1.4-.63 1.4-1.4c0-.25-.07-.48-.18-.68.2-.02.37-.02.48-.02a.47.47 0 0 0 .5-.5zm-.23 11.97c-3.6-.2-4.35-3.17-4.4-3.3-.14-.42-.5-.6-.9-.5s-.6.5-.5.9c.4 1.5 2 4.2 5.8 4.4.4 0 .7-.3.7-.8 0-.3-.3-.7-.7-.7zm-28.26-27.34c.43-.88.82-1.37 1.18-1.87l1.36-1.8 2-2.13c.2-.46.97-.77 1.3-1.23l.23-.03c.12-.15.3-.3.47-.35l.01.03c.2-.22.47-.36.57-.46l.01.03.28-.18-.03.07c.38-.3.8-.6 1.2-.73l-.1-.1c.9-.3 1.1-.67 1.96-.83v.03c.9-.7 1.65-.34 2.63-.88-.13.07.07.05.07.1.48-.15 1-.24.98-.5.37-.05.3.04.37.12-.02-.1.3-.2.6-.22l-.13.05.82-.1-.17-.2c.44.05.12.25.54.2v-.17c.6.03.96.32 1.48.5.4.07.94.2.96.25l.2.2.26.28.26.3c.1.12.08.08.13.14.12.12.34.3.4.45l-.57.15-.6.14-.7.16-.14-.1c-.1-.17-.55.48-.7.35l-.24.18c-.1 0-.26.02-.14-.07-.25.08-.24.1-.4.23l-.3-.01c-1 .3-1.7.85-2.7 1.26-1.27.35-3.35 1.7-4.42 2.63-.76.64-1.66 1.2-2.6 1.76-.88.62-1.83 1.2-2.42 2.06-.07.03-.15.2-.13.2l-1.32 1.3-.85 1c-.5.55-.98 1.33-1.33 1.94-.7 1.25-.65 1.8 1.92-.36l.01.06c.7-.68 1.12-1.1 1.4-1.76.24.08.57-.56.8-.66v.03c.3-.55.97-.75 1.27-1.26 0 .03.03.1-.06.18.3-.3.7-.7.8-.6.7-.7 1.87-1.45 2.24-2.03v.06c.2-.35.37-.3.66-.58.03 0 .06 0 .06.01.25-.35.96-.66 1.2-.9l.07.07.67-.42-.27.13c-.05-.28.6-.15 1-.6.48-.23.7-1 1.27-1.15.18-.24-.12.3.2.02.07.12-.13.16.01.22.32-.25.64-.14 1.04-.43l.06.1c.5-.45 1.14-.35 1.46-.68.57-.32.52.13 1.07-.3l.3.05c.28-.07.13-.24.46-.28.01.1.4-.06.26.08.36-.04.7-.2 1.06-.36.25-.1 1.05-.4 2.03-.45.16-.2 1-.3 1.17-.43-.02-.03-.05-.05-.07-.08.13.03-.93-1.3-.13-.5.07.07.15.2.1.17l.24.14c-.14-.37-.48-.78-.82-1.14l-.96-1.1c.15.25.4.54.16.37l-.44-.58.14.03-.46-.65-.01.16c-.07-.1-.1-.2-.15-.3a1.63 1.63 0 0 0-.06-.13 1.58 1.58 0 0 0-.13-.18c-.15-.1-.33-.28-.62-.32-.32-.04.46.37-.14.15-.6-.32-1.37-.53-2.07-.62.06.13-.13.12-.32.13l-.02-.1c-.73.12-.26-.25-1-.12l.06-.08-.18.23c-.62.25-.36-.2-1.05.15.28-.04.15.22-.2.22l.07-.12c-.18.05-.24.1-.37.1.1-.07.04-.16-.24-.1l.17-.16-.5.27c-.42-.03-1.02.23-1.22.13 0 0-.87.16-1 .37.14-.15-.33-.04-.24-.2-.18.18-.78.5-1.08.46l.04-.03c-.97.25-1.5.8-2.35 1.07.1.1-.36.24-.18.33-.7.6-1.6.54-1.6 1.16-.32.25-.47.17-.66.27l.07-.08-1.25.95c-.2.22-.1.4-.5.7.06-.18-.08-.03-.23.1.08-.1.1-.14-.14-.02a.37.37 0 0 1-.07.14c-.01 0-.02 0-.02-.01-.22.24-.16.22-.04.13 0 .02.03.02.08.01-.34.12-.66.64-.8.56-.66.7-.98 1.34-1.4 2-.12.02-.06-.17.05-.38l-.32.47c-.1-.07.14-.3.23-.46-.57.42-.68 1.23-1.25 1.8v.2l-.04.03c.04.02.01.2-.03.32-.15.04-.2-.13-.4.22-.23.23-.38.8-.48 1.2.1-.2.13-.1.12 0-.08.18-.22.24-.24.4l-.14-.04c.14-.02-.06.53-.04.62-.14.07.03-.3-.02-.4l-.4 1.12c-.03.43.15-.03.2.2-.1.38-.08.68-.27 1.17l.16-.14-.05.5c0 .15.17.24.22.35.17.23.26.4.35.62 3.87 3.34 1.73-.01 1.73-.01a11.46 11.46 0 0 0-.74-1.12l-.1-.12c-.03-.04-.01-.01-.01-.02v.01c-.01.01-.03.01-.04 0 0-.01-.01.01-.01-.02l.06-.42.12-.6.5-1.36z"/><g fill="#fff"><path d="M233.15 47.5l.24-.18c.14.13.58-.52.7-.35l.14.1c.24-.04.47-.1.7-.16l.6-.14c.2-.04.4-.1.57-.15-.07-.15-.3-.33-.4-.45-.05-.05-.03-.02-.13-.14l-.26-.3-.26-.28-.2-.2c-.02-.04-.54-.18-.96-.25-.53-.2-.87-.48-1.48-.5v.17c-.42.06-.1-.14-.54-.2l.17.2c-.27.01-.55.06-.82.1l.13-.05c-.3.02-.6.1-.6.22-.06-.1 0-.17-.37-.12.03.25-.5.34-.98.5 0-.03-.2-.02-.07-.1-.98.54-1.74.2-2.63.9v-.03c-.85.16-1.06.54-1.96.83l.1.1c-.4.15-.83.43-1.2.73l.03-.07-.28.18-.01-.03c-.1.1-.38.24-.57.46v-.03c-.2.06-.35.2-.47.35l-.23.03c-.32.46-1.1.77-1.3 1.23-.7.63-1.38 1.4-2 2.13l-1.36 1.8c-.36.5-.76 1-1.18 1.87a9.1 9.1 0 0 0-.44 1.39l-.12.6-.06.42c0 .03.01.01.01.02.02.01.03 0 .04 0h.01c.01.01-.01-.02.01.02l.1.12a10.36 10.36 0 0 1 .74 1.12l.17.28c.33-.56.75-1.2 1.18-1.7l.85-1c.4-.48.88-.87 1.32-1.3-.02-.01.06-.18.13-.2.6-.86 1.54-1.44 2.42-2.06.94-.55 1.84-1.12 2.6-1.76 1.07-.93 3.15-2.28 4.42-2.63 1-.4 1.7-.97 2.7-1.26l.3.01c.16-.12.15-.15.4-.23-.13.06.04.03.13.04zm-16.9 12.94c-.17-.1-.36-.26-.6-.44l.52.67c.01-.06.03-.14.07-.23z"/><path d="M216.36 60.92l.1.14.17-.24c-.12.05-.2.1-.28.1z"/></g></svg>