<svg xmlns="http://www.w3.org/2000/svg" viewBox="0 0 480 480" xmlns:v="https://vecta.io/nano"><path d="M393.13 244.9l.01.1-.01-.1zm-276-109.4l.01.1c-.01-.06-.01-.08-.01-.1z"/><path d="M199.6 88.2l.02.1-.02-.1zm56.04-33.82c-.8-1.6-6.7-13.06-23.4-9.46-13.63 2.94-14.16 16.24-13.9 21.03l-.34-.27c-.02-.02-.04-.02-.06-.03.24-1.27.26-2.7-.34-3.97-1.2-2.7-5.06-4.98-6.46-5.48-.3-.1-.6 0-.7.3-.4 1.3-1.76 5.25-.66 7.95.08.2.17.38.26.56-.18-.02-.35-.04-.54-.04-3.43-.01-6.3 2.6-7.4 3.5-.43.36-.46.84-.26 1.04 1.42 1.42 3.67 2.6 6.45 2.93-1.82 1.17-3.65 2.76-5 4.93-3.5 5.6-4.9 14.64 3.8 21.84 3.25 2.72 8 4.1 12.36 4.07l-.03.1-2.2 5.7s3.2 4.1 10.8 5.7c5.2 1.1 8.7 1.2 11 1 1.9-.2 4.2-.6 3-4.1-1.7-5.2-1.1-8.5-1.1-8.5l2.4-13c1.46.24 2.82.25 3.9-.1 3.2-1 6.2-4 7.3-10 .7-4 1.1-9.1 1.1-12.9a43.5 43.5 0 0 0-.19-3.86c.45-.2 1.16-.66 1.23-1.7.1-1.5-.24-5.65-1.04-7.25zm-18.16 4.1zm-16.34-7.05l.22-.22c-.02-.01-.08.04-.22.22z" fill="#fff"/><path d="M257.62 60.3c-.02.33-.01.77-.1.47l-.02-1.02.1.2-.06-1.5-.1.22c-.02-.74.14-1.02-.14-1.83-.15-.36-.04.72-.2-.05-.05-.5-.1-1.12-.27-1.8-.07-.34-.2-.7-.35-1.07l-.44-.9c-.05.17-.2-.14-.43-.42l.07-.1c-.87-1.06-.07-.56-.96-1.6l-.27-.1c-.92-.8-.23-.67-1.37-1.47.37.38 0 .34-.42-.16l.2.04c-.27-.24-.4-.28-.56-.47.2.1.2-.03-.2-.4l.35.15-.88-.54c-.27-.28-.67-.6-1.03-.86s-.7-.46-.8-.62L249 46c-.4-.24-.9-.44-1.1-.46.35.06-.46-.4-.18-.38-.43-.14-1.68-.48-2.12-.78l.1.02c-.87-.4-1.7-.5-2.47-.7l-2.38-.37c.06.1-.82-.01-.6.17-.88.05-1.66-.07-2.32-.12-.65 0-1.17.04-1.46.3-.78.08-.94-.06-1.35-.05l.18-.04-2.95.5c-.53.14-.56.42-1.52.6.28-.16-.1-.06-.45.05.22-.1.28-.14-.2-.05-.06.05-.15.1-.24.14-.01-.01-.03 0-.02-.02-.57.23-.46.22-.2.14-.01.02.02.03.1.02-.65.06-1.65.65-1.8.53-1.68.8-2.72 1.7-3.85 2.72-.18.06.03-.26.37-.55-.3.22-.55.5-.82.73-.07-.1.43-.48.68-.7-1.16.7-1.88 1.96-2.92 3.08l-.1.3-.07.07c.04.03-.1.34-.2.54-.2.13-.2-.14-.6.5-.4.47-.77 1.53-1.02 2.27.18-.38.18-.23.14-.05-.14.35-.3.5-.37.8l-.14-.01c.16-.1-.2.98-.18 1.12-.17.17.1-.58.06-.7l-.62 2.18c-.08.8.16-.1.2.3-.14.7-.16 1.38-.36 2.16l.16-.23-.17 1.9c-.03-.3.08-.6.01-.93-.74-1.56-2.27-2.38-3.2-3.47l.03-.14c.1-.17-.48-.01-.42-.18l-.18-.03c-.02-.05-.08-.14.01-.13-.12-.1-.14-.07-.27-.08l-.07-.2c-.46-.4-1-.5-1.55-.83-.16-.15-.28-.26-.72-.46-.4-.18-.82-.32-1.2-.24-.93.14-1.05 1.2-1.17 1.78-.06 1.14-1.1 2.27-.93 3.54-.03.04.02.14.04.15a9.97 9.97 0 0 0-.09 1.11s-.02.34.03.8c.04.45.18 1 .38 1.4.01.02.02.04.04.06-.72.03-1.43.25-2.08.52l-2.08.86-.12-.08c-.12-.15-.2.43-.33.3l-.1.16c-.06 0-.16.02-.1-.06-.13.07-.12.1-.18.2l-.2-.01c-.55.26-.82.74-1.32 1.08-.18.07-.37.2-.57.33l-.2.16-.24.22c-.17.15-.3.32-.4.5-.2.37-.24.8-.12 1.17.05.2.18.3.3.44.13.12.22.25.36.33.4.27.6.43.84.63l.7.64c.48.42 1.02.8 1.64.9.03.04.14.02.15 0l1.02.38s.02.01.03.01a22.92 22.92 0 0 0-1.78 1.78c-1.34 1.43-2 2.5-2.64 3.57-.6 1.08-1.17 2.25-1.63 4.23-.5 1.88-.6 4-.35 5.88.15.44.2 1.06.37 1.68l.22.93.34.8.04.43c.15.34.4.7.5 1.06l-.04-.01c.3.47.52 1.04.7 1.24h-.04l.35.56-.1-.07 1.65 2.23.05-.13a12.21 12.21 0 0 0 1.43 1.56c.46.38.9.74 1.45 1.35l-.04.01c.93.53 1.57 1.03 2.26 1.5.7.46 1.43.9 2.48 1.15-.26-.06.08.1.05.12.93.34 1.95.6 2.03.36.68.2.54.22.6.34.03-.1.63.01 1.17.1h-.26l1.56.23-.28-.24c.82.16.18.28.98.32l.01-.17c.6.08 1.1.2 1.58.3l-2.02 5.24.17.22c.14.17 3.4 4.26 11.1 5.88 3.44.73 6.48 1.1 9.08 1.1a22.56 22.56 0 0 0 2.07-.09c1.28-.13 2.7-.37 3.4-1.45.5-.8.52-1.88.03-3.3-1.63-5-1.1-8.22-1.08-8.25l2.3-12.53a11.6 11.6 0 0 0 1.53.11c.76 0 1.47-.1 2.12-.3 2.27-.7 6.3-3 7.64-10.4.67-3.84 1.1-8.94 1.1-13 0-1.3-.08-2.5-.14-3.27a2.65 2.65 0 0 0 .75-.54c.3-.35.52-.58.1.1-.08.1-.26.26-.27.23l-.08.2c.7-.37 1.15-1.2 1.2-1.9.1-.7-.02-1.1-.01-1.7zm-40.1 6.27c.08-.08.2-.1.3-.17l-.02.04c.15-.1.1.04.28.1 0 .02.01.04 0 .05.23.03.47.28.66.44.05.14.1.27.13.37.26.6.4.54.45.17.01-.03.01-.08.02-.12.1.12.18.4.46.46.27.26.93.03 1.15.37.22.01-.25.06.02.15-.08.12-.15-.01-.17.12.25.1.25.4.57.52l-.06.1c.46.1.54.62.9.65.13.07.17.13.2.2-1.56.94-2.67 2.62-2.9 4.6-.02-.02-.05-.04-.07-.07l-.14.01-.02-.03c-.03.04-.16.03-.23-.01 0-.13.15-.2-.06-.33-.1-.2-.5-.3-.73-.42.1.1.03.12-.04.1-.1-.07-.1-.2-.2-.22l.07-.12c-.04.13-.35-.1-.42-.07 0-.13.2.05.28 0l-.63-.44c-.28-.08-.04.13-.22.15-.2-.12-.46-.18-.63-.42v.15c-.42-.2-.63-.37-.8-.65-.36-.13-.64-.22-.9-.28.02-.01.04-.02.05-.03l-.6-.46a.61.61 0 0 1-.12-.16c.02-.18.07-.4.26-.53l-.03.07c.2-.13.42-.3.68-.53v.05c.43-.52.67-.87.73-1.37.25.07.3-.46.46-.55v.02c.01-.06.04-.1.06-.16h.01l.1-.1c.02-.02.16-.2.32-.48.03-.03.04-.08.06-.1.03-.06.06-.12.08-.2.01.02.06.06.02.14.12-.26.27-.63.4-.57.05-.1.1-.2.16-.3.04-.03.05-.08.1-.12zm-3.85-1a7.64 7.64 0 0 1-.49-1.16c-.3-.93-.28-2.62-.17-3.42.65.4 2 1.4 2.45 2.3.44.9.62 1.62.67 2.23-.06.08-.12.16-.18.25l-.34.46c-.12.17-.22.34-.3.52-.15-.12-.3-.24-.4-.37l-.07.1c-.35-.5-.68-.42-1-.86l.02-.02c-.07-.02-.12-.04-.18-.05zm.65 2.98c-.1.2-.3.5-.47.84-.53.35-1.45.66-3.12.58h-.03c-1 0-2.62-.78-3.3-1.2.6-.5 2.14-1.34 3.12-1.4 2.34-.13 3.4.7 3.8 1.18zM210 61.8c.25-.05.05-.43.14-.56l.02.01c-.17-.34.23-.65.1-.98.02.02.1.03.08.1 0-.23 0-.55.15-.54.06-.55.3-1.3.2-1.7l.03.03c-.1-.24.05-.26.04-.5.02-.01.04-.02.04-.01-.06-.35.1-.4.08-.56l.08.07c.01-.07.03-.15.1-.2-.03.01-.05.02-.07.03-.16-.32.22.05.3-.1.07.05.13-.1.26-.17.12-.1.3-.13.4 0 .2-.04-.2.12.03.14-.06.13-.13.03-.13.16.23.04.25.3.53.34l-.04.1c.4 0 .5.46.8.43.35.12.02.4.45.44l.03.2c.1.1.2-.08.3.08-.06.07.14.2 0 .2.22.35.77.34 1 .87.2-.06.32.2.48.16-.05.07.35.38.03.3-.03-.01-.06-.04-.03-.06l-.1.05c.06.34.44.3.6.54-.03-.1-.1-.16 0-.16l.16.2-.1.02a3.72 3.72 0 0 1 .19.34l.06-.1c.07.2-.05.34.2.43.12.03.03-.23.17-.08.08.25.15.63.22.9.1-.07.13 0 .2.07l-.1.05c.25.24-.17.18.02.43l-.08-.01.24.02c.27.24-.17.18.16.45-.03-.13.23-.1.2.07l-.1-.03c.03.1.08.1.07.17-.06-.05-.16-.01-.12.1l-.14-.07c.08.07.15.15.2.23-.1.2.05.5-.12.58 0 0-.08.38.04.5-.01 0-.02.01-.04.01s-.04 0-.06.02c-.02 0-.03.01-.05.01-.1-.6-.32-1.26-.7-2-.67-1.34-2.7-2.7-3.26-2.94l-.2-.04c-.6 0-.75.3-.8.5-.22.74-.3 3.04.1 4.32-.3-.1-.6-.2-.7.04-.22-.08-.16-.13-.16-.24-.03.1-.24.08-.42.04.03-.01.06-.02.1-.02-.18-.03-.36-.05-.54-.07l.06.22c-.26-.1-.03-.26-.3-.26l-.02.17c-.2-.03-.36-.13-.53-.24.1-.25.2-.68.4-1.34l.04.02c.05-.5.07-.82-.13-1.2zm-4.16 9.33l.02-.02c-.37.07-.55-.38-.9-.35.02-.01.05-.07.12-.05-.2-.07-.5-.15-.45-.3-.5-.2-1.05-.65-1.45-.67l.04-.02c-.23.02-.24-.16-.4-.18.01-.02.01-.03.02-.04-.2.02-.28-.2-.38-.25l.1-.03c-.03-.06-.04-.13-.02-.2-.02.02-.03.05-.04.08-.16-.02-.1-.07-.01-.12s.2-.07.16-.16c.07-.04 0-.16 0-.33.02-.2.08-.38.24-.43.04-.2.03.24.14.02.1.1-.02.13.1.18.13-.2.37-.1.52-.35l.08.08c.15-.37.6-.27.68-.56.25-.27.37.13.56-.24l.2.05c.14-.06 0-.2.18-.24.04.1.22-.04.18.08.4-.06.6-.57 1.15-.54.03-.22.3-.2.33-.36.04.07.47-.16.27.1-.02.02-.06.03-.07 0l.01.1c.32.1.44-.26.7-.3-.1-.02-.2.03-.14-.07.08-.02.17-.03.25-.05l-.03.1.37-.03-.07-.1c.2.02.28.2.46.02.08-.1-.2-.13 0-.2.25.04.63.13.9.2-.02-.13.06-.12.14-.14v.1c.32-.13.08.23.4.17l-.04.07.12-.2c.32-.15.1.23.47.04-.13-.02.01-.25.15-.16l-.07.1c.1.01.13-.03.18.01-.07.04-.07.14.05.16l-.12.1c.1-.04.2-.08.3-.1.1.14.32.16.42.25-.36-.03-.75-.04-1.18-.01-1.44.1-3.57 1.38-4 1.94-.18.18-.22.38-.22.5 0 .13.04.32.26.54.58.47 2.77 1.6 4.2 1.6.2.01.38.01.55.01.85 0 1.52-.1 2.07-.27v.07c-.04.02-.08.04-.13.04v.12h-.03c.03.04-.02.15-.06.2-.1-.06-.1-.2-.28-.12-.18-.02-.36.24-.53.36.1-.02.1.04.07.1-.1.04-.18-.03-.24.03l-.06-.13c.08.1-.2.23-.2.3-.1-.08.12-.13.1-.2l-.56.2c-.18.16.07.12 0 .26-.17.1-.35.2-.58.16l.1.1c-.34.17-.57.17-.83.07-.52.22-.87.4-1.1.54l-.25-.02c0-.01.01-.02 0-.03-.01-.04-.04-.1-.07-.14.04-.03.08-.06.12-.08h-.03c-.06-.01-.12-.02-.18-.02-.18-.2-.52-.45-1.07-.83l.03-.04c-.5-.2-.8-.3-1.2-.2.02-.2-.4-.1-.5-.23zm34.6 31.97c-.03.14-.6 3.5 1.12 8.75.38 1.1.4 1.93.07 2.45-.45.7-1.6.88-2.64 1-2.9.25-6.55-.08-10.85-1-6.34-1.33-9.56-4.47-10.33-5.3l2.1-5.45 6.78-22.16c.57-.16 1.1-.4 1.6-.73.1.32.17.65.24.96.53 2.22 2.42 4.1 5.96 5.93 1.7.87 5.03 2.43 8.23 3.05l-2.3 12.5zm14.63-33.3c-.1-.08-.2-.12-.34-.12-.3 0-1.2.01-2.2.4-.05.03-.1.07-.15.1a1.33 1.33 0 0 0-.26.21c-.01.01-.02.03-.04.04a1.4 1.4 0 0 0-.36.93c0 .77.63 1.4 1.4 1.4s1.4-.63 1.4-1.4c0-.25-.07-.48-.2-.7.15-.01.3-.01.4-.01a.52.52 0 0 0 .31-.1c-.16 3.2-.52 6.64-1 9.4-.93 5.1-3.4 8.5-6.96 9.6-3.64 1.14-10.2-1.98-12.12-2.97-3.2-1.66-5-3.38-5.44-5.27a33.87 33.87 0 0 0-.45-1.72l-.22-.76-.6.52c-.85.75-1.93 1.17-3.03 1.17-2.65 0-4.8-2.33-4.8-5.2s2.15-5.2 4.8-5.2c1.42 0 2.77.68 3.68 1.87l.18.24.3-.05c.22-.04 5.5-.95 6.53-4.45 1.18-4.02 1.67-6.98 1.94-8.57l.12-.7c.3.1.75.3 1.23.53a59.37 59.37 0 0 0 9.39 3.39c2.9.8 5.4 1.05 6.37 1.12a42.66 42.66 0 0 1 .17 3.6 59.92 59.92 0 0 1-.06 2.65z"/><path d="M254.75 50.9h0l.13.05zm-29.2 21.5c-1.6 0-2.9 1.35-2.9 3s1.3 3 2.9 3 2.9-1.35 2.9-3-1.3-3-2.9-3zm0 5c-1.05 0-1.9-.9-1.9-2s.85-2 1.9-2 1.9.9 1.9 2-.85 2-1.9 2zm14.7-9c.4-.4 1.2-1.8 3.9-1.6.4 0 .8-.3.8-.7s-.25-.74-.7-.8c-3.6-.3-5.18 2-5.3 2.2a.78.78 0 0 0 .2 1c.26.18.87.12 1.1-.1zm11.5-3.7c-.4.06-.68.5-.6.9.1.42.5.6.9.6.44 0 .96-.05 1.63.38.36.22.8.1.97-.18.2-.3.18-.77-.1-1-1.32-1.07-2.46-.76-2.8-.7zm-3.4 9.7c-.3.2-.3.6-.1.9s.7 1.2.5 1.8-.7.6-.9.6c-.3 0-.7.2-.7.6 0 .3.2.7.6.7h.2c.6 0 1.7-.3 2.1-1.5.4-1.4-.7-2.8-.8-3-.2-.3-.6-.3-.9-.1zm-3.5-3.4a.47.47 0 0 0-.5-.5c-.3 0-1.4-.02-2.38.46a1.04 1.04 0 0 0-.42.38 1.36 1.36 0 0 0-.3.86c0 .77.63 1.4 1.4 1.4s1.4-.63 1.4-1.4c0-.25-.07-.48-.18-.68.2-.02.37-.02.48-.02a.47.47 0 0 0 .5-.5zm-.24 11.97c-3.6-.2-4.35-3.17-4.4-3.3-.14-.42-.5-.6-.9-.5s-.6.5-.5.9c.4 1.5 2 4.2 5.8 4.4.4 0 .7-.3.7-.8 0-.3-.3-.7-.7-.7z"/></svg>