<svg xmlns="http://www.w3.org/2000/svg" viewBox="0 0 480 480" xmlns:v="https://vecta.io/nano"><path d="M393.13 244.9l.01.1-.01-.1zm-276-109.4l.01.1c-.01-.06-.01-.08-.01-.1z"/><path d="M259.7 60.17c-.9-.9-4.95-8.16-11.75-12.06-5.65-3.2-11.24-1.48-13.08-.76l-1.9-4.13-.46.2c.43-1 1.18-3.44.04-6.63-1.7-5-9.05-6.98-14.65-4.88-4.6 1.7-8.32 7.56-7.12 12.56.9 4.04 3.8 5.7 5.47 6.34l1.9 3.8.16.82s-5.72 5.27-4.5 15.65c1.33 11.32 10.5 14.78 10.5 14.78l1.85-4.9c.02 0 .03-.01.05-.02l-6.87 22.43-2.2 5.7s3.2 4.1 10.8 5.7c5.2 1.1 8.7 1.2 11 1 1.9-.2 4.2-.6 3-4.1-1.7-5.2-1.1-8.5-1.1-8.5l2.4-13c1.46.24 2.82.25 3.9-.1 3.2-1 6.2-4 7.3-10 .7-4 1.1-9.1 1.1-12.9 0-2-.2-5.72-.24-6.2 2.85-.04 4.8-.5 4.4-.83zm-46.14 3.3c-.02 0-.07.12-.16.46l.16-.46zM234.1 38.1l-.12-.18v.01z" fill="#fff"/><path d="M225.43 72.4c-1.6 0-2.9 1.35-2.9 3s1.3 3 2.9 3 2.9-1.35 2.9-3-1.3-3-2.9-3zm0 5c-1.05 0-1.9-.9-1.9-2s.85-2 1.9-2 1.9.9 1.9 2-.85 2-1.9 2zm18.7-13.62c-3.6-.3-5.18 2-5.3 2.2a.78.78 0 0 0 .2 1c.26.18.88.12 1.1-.1.4-.4 1.2-1.8 3.9-1.6.4 0 .8-.3.8-.7s-.25-.74-.7-.8zm7.8.9c.44 0 .96-.05 1.63.38.36.22.8.1.97-.18.2-.3.18-.77-.1-1-1.32-1.07-2.46-.75-2.8-.7-.4.06-.68.5-.6.9.08.42.5.6.9.6zm-3.53 9.72c-.3.2-.3.6-.1.9s.7 1.2.5 1.8-.7.6-.9.6c-.3 0-.7.2-.7.6 0 .3.2.7.6.7h.2c.6 0 1.7-.3 2.1-1.5.4-1.4-.7-2.8-.8-3-.2-.3-.6-.3-.9-.1zm-4.17-3.9c-.3 0-1.4-.02-2.38.46a1.04 1.04 0 0 0-.42.38 1.36 1.36 0 0 0-.3.86c0 .77.63 1.4 1.4 1.4s1.4-.63 1.4-1.4c0-.25-.07-.48-.18-.68.2-.02.37-.02.48-.02a.5.5 0 1 0 0-1zm.27 12.32c-3.6.1-4.6-2.78-4.67-2.92a.72.72 0 0 0-.94-.41c-.4.13-.55.55-.42.94.53 1.46 2.35 4 6.16 3.9.4-.03.67-.36.63-.86-.03-.3-.36-.67-.76-.64zm15.75-22.64c-.02-.1-.1-.24-.18-.37-.08-.14-.1-.26-.24-.4l-1.26-1.87c-.33-.5-.66-.95-1-1.3-1.32-1.54-.57-1.3-2.12-2.76l-.44-.7c-.62-.67-.57-.36-1.24-1.1.1-.02-.87-.94-.38-.6-.8-.84-1.72-1.57-2.77-2.28-1.05-.72-2.2-1.42-3.6-2.2-.36-.04-.9-.23-1.4-.4-.52-.14-1.03-.27-1.3-.27-.03-.05-.8-.2-1.35-.3-.55-.07-.87-.13.02-.13.15.01.42.06.4.1l.23-.07c-1.76-.5-3.27-.2-5-.04.52-.03 1.2-.1.76.02l-1.6.2.32-.15c-.8.1-1.6.28-2.4.5l.35.02-.72.16-.14-.26-.15-.23c-.1-.13-.2-.2-.33-.15-.12-.27-.03-.25.04-.33-.1.05-.25-.17-.35-.37l.08.08-.3-.6-.13.2c-.1-.34.2-.2.01-.47l-.15.08c-.12-.3-.17-.6-.24-.95l.06-.17a9.1 9.1 0 0 0 .27-.99c-.16.17-.04-.4-.01-.98l.12-.06.05-1.54c.04-.2.13-.43-.14-1.52l-.24-.35-.5-1.5c-.07-.3-.15-.66-.9-1.54.25.38.25.5.13.4-.06-.05-.15-.15-.26-.3a5.34 5.34 0 0 1-.44-.52l.26.15c-.4-.47-.57-.57-.84-.86.3.2.26.01-.43-.57.2.08.35.2.53.3-.44-.36-.96-.6-1.44-.88-1-.85-2.95-1.4-3.4-1.62 0 0-.65-.2-1.4-.32-.74-.12-1.57-.17-1.88-.1.55-.1-.94-.16-.52-.27l-3.57.5.15-.05c-1.5.28-2.8.87-3.85 1.63-1.06.75-1.96 1.6-2.9 2.63.17-.02-.76 1.1-.4.9-1.5 2.35-2.48 4.62-2.1 5.72l-.16 2.2-.05-.3c.12 1.24.4 1.98.6 2.65.26.66.5 1.25 1 2.02a3.63 3.63 0 0 0 .76.76l1.18 1.06c-.46-.26.05.16.54.5-.32-.2-.45-.25.18.25a3.7 3.7 0 0 1 .4.2c0 .01.03.03.01.03.9.47.76.33.35.12.03 0 0-.04-.1-.13.2.17.5.32.8.46l.63 1.3s.84 1.72 1.5 2.53l.08.28-.3.38-.46.62-.84 1.3c-.18.16-.04-.2.25-.7l-.76 1.24c-.1-.07.44-.9.74-1.34-1.35 1.62-1.93 3.8-2.7 6.05l-.02.5-.05.14c.06.01-.01.54-.05.9-.15.32-.23-.07-.4 1.1-.12.46-.13 1.13-.16 1.84l.12 2.05c-.01-.66.07-.45.1-.17.05.58-.03.93.05 1.38l-.13.07c.06-.12.1.26.2.7l.24 1.02c-.05.35-.24-.9-.34-1.03.42 2.34.13 1.2.76 3.48.47 1.18.05-.26.34.3l.64 1.54.75 1.62-.07-.42a40.17 40.17 0 0 0 2.62 3.89c1.4 1.35 2.65 2.16 3.64 2.7.9.48 1.56.73 2.04.87l.08.06c-.1.48-.03.6.26.2l-5.4 17.64-2.3 5.96.17.22c.14.17 3.4 4.26 11.1 5.88 3.44.73 6.48 1.1 9.08 1.1a22.56 22.56 0 0 0 2.07-.09c1.28-.13 2.7-.37 3.4-1.45.5-.8.52-1.88.03-3.3-1.63-5-1.1-8.22-1.08-8.25l2.3-12.53a11.6 11.6 0 0 0 1.53.11c.76 0 1.47-.1 2.12-.3 2.27-.7 6.3-3 7.64-10.4l.3-2c1.6-.9 2.72-3.2 2.72-5.92 0-2.26-.76-4.2-1.92-5.33-.01-1.77-.16-4.6-.22-5.6a4.64 4.64 0 0 0 .4-.03c.05.14-.58.1-.25.2.6-.06 1.12-.06 1.66-.1l.42-.03c.2-.02.4-.05.63-.1.43-.07.9-.2 1.23-.45l.16.02a.99.99 0 0 0 .25-.32c.1-.13 0-.2-.03-.32zm-17.3 6.95c-2.38 0-4.45 2.33-4.9 5.35l-5.44-.94c1.36-.55 2.82-1.52 3.72-3.23 1.85-3.53 1.94-8.5 1.9-10.4 1.88.68 7 2.47 9.9 2.7 2.95.24 5.7.62 6.68.77l.2 4.82a3.14 3.14 0 0 0-1.35-.31c-2.2 0-3.95 2.33-4.24 5.44-.2-.06-.45-.1-.77-.1a1.91 1.91 0 0 0-1 .31c-.7-2.56-2.58-4.43-4.7-4.43zm4 6.6c0 3.1-1.8 5.6-4 5.6s-4-2.5-4-5.6 1.8-5.6 4-5.6 4 2.5 4 5.6zm-28.6-18.7h0l.1.2-.1-.2zm22 48.07c-.03.14-.6 3.5 1.12 8.75.38 1.1.4 1.93.07 2.45-.45.7-1.6.88-2.64 1-2.9.25-6.55-.08-10.85-1-6.34-1.33-9.56-4.47-10.33-5.3l2.1-5.45 6.8-22.17a5.91 5.91 0 0 0 1.6-.72c.1.32.17.65.24.96.53 2.22 2.42 4.1 5.96 5.93 1.7.87 5.03 2.43 8.24 3.05l-2.3 12.5zm13.6-23.1c-.93 5.1-3.4 8.5-6.96 9.6-3.65 1.14-10.2-1.98-12.12-2.97-3.2-1.66-5-3.38-5.44-5.27-.12-.55-.28-1.14-.45-1.72l-.22-.76-.6.52c-.85.75-1.93 1.17-3.03 1.17-2.65 0-4.8-2.33-4.8-5.2s2.15-5.2 4.8-5.2c1.42 0 2.77.68 3.68 1.87l.15.2h.25c.05 0 .4-.01.95-.08l7.8 1.3c0 .08-.01.16-.01.25 0 3.6 2.2 6.6 5 6.6 2.7 0 5-3 5-6.6a8.76 8.76 0 0 0-.07-1.03c.18-.17.46-.4.76-.4.3-.03.55.04.74.13.06 3.48 1.9 6.2 4.28 6.2.17 0 .34-.02.5-.05l-.24 1.45zm1.03-10.2c-.1-.08-.2-.12-.34-.12-.3 0-1.2.01-2.2.4-.05.03-.1.07-.15.1a1.33 1.33 0 0 0-.26.21c-.01.01-.02.03-.04.04a1.4 1.4 0 0 0-.36.93c0 .77.63 1.4 1.4 1.4s1.4-.63 1.4-1.4a1.35 1.35 0 0 0-.2-.7c.15-.01.3-.01.4-.01a.52.52 0 0 0 .31-.1 85.84 85.84 0 0 1-.62 6.9 2.01 2.01 0 0 1-.65.1c-1.78 0-3.3-2.45-3.3-5.35s1.5-5.35 3.3-5.35c.48 0 .94.2 1.36.5l-.06 2.4zm1.04-1.27c.58.97.94 2.28.94 3.7 0 1.86-.62 3.53-1.53 4.5a88.94 88.94 0 0 0 .6-8.2z"/><path d="M219.74 53.72c.36-.1.62-.27 1-.66l-.15-.04c.3-.12.48-.35.7-.53.05-.2-.27.01-.07-.26l.72-.52c.01.08-.25.25-.13.3.01-.08.38-.34.25-.4l.1.1c.07-.1.2-.06.32-.15.04-.07.05-.15-.1-.07.22-.22.5-.58.75-.63.25-.17.24-.01.37.03.07-.06.14-.2.1-.23l.04-.01.05-.15c.6-.18.87-.8 1.42-.9-.1.1-.34.17-.3.28l.36-.25c-.14.12-.23.25-.13.3.5-.36.9-.78 1.62-1.1.1.14.47-.15.76-.1-.04-.01-.06-.03-.06-.04-.1.03-.16.01.06-.1 0 .01.01.01.01.02.03-.03.07-.06.08-.1.2 0 .2.04.1.08.14-.05.3-.1.2.02.4-.07.35-.3.54-.4l1.13-.38-.06.05c.16-.02.26.1.55-.01.1-.55.78-.24 1.4-.57-.13-.13.23-.16.17-.27.34-.01.62-.13.9-.24l.44-.17.23-.06c.01 0 .02.01.04.02v.01c.1.1.16-.01.03-.1.1.1.23.1.33.18-.04-.03-.06-.06-.06-.07-.08-.07-.06-.12-.06-.12.08 0 .07-.04.04-.08-.03-.06-.04-.05-.03-.18l-.34-.27.18.07c-.1-.18-.03-.26.06-.2-.02-.1-.08-.12-.16-.24l.12.01c-.06-.25-.34-.24-.24-.06-.5-.35.01-.34-.4-.67l-.18-.02c-.33-.42.17-.28-.2-.7l.1-.06c-.05-.04-.05-.06-.15.02 0-.12.04-.23-.3-.3-.28.04.1.1-.03.2-.3.17-.4-.02-.66-.06l.08.1c-.18 0-.36-.01-.55 0l.07-.1-.37.03c-.1.1.06.06.18.08-.4.02-.67.4-1.1.27l.02-.12c0 .03.06.02.1 0 .36-.25-.3-.04-.35-.1-.08.15-.46.14-.56.36-.76-.05-1.18.48-1.74.54.1-.13-.2 0-.2-.1-.25.02-.12.2-.33.26l-.24-.06c-.38.4-.4-.05-.82.26-.2.3-.74.2-1.06.62l-.07-.1c-.28.26-.55.18-.78.4-.13-.05.03-.1-.05-.2-.22.25-.05-.24-.17-.03-.45.1-.5.85-.9 1.04-.3.38-.85.22-.78.5l.2-.1-.52.35-.07-.07c-.18.2-.76.4-.93.7 0-.01-.03 0-.05-.01-.22.24-.37.18-.52.47l.01-.05c-.3.47-1.24 1.03-1.85 1.5-.05-.05-.16 0-.3.1-.06.04-.13.1-.2.16-.05.05-.05.05-.07.08.02-.02-.02-.08-.03-.1-.01.1-.1.12-.22.16-.2.02-.1.15.03.22h-.03c-.03.04.05.1.1.15.05.06.14.27.04.34.42.38.62.83.88 1.57l-.05-.01c.16.92.2 1.5.17 1.82l.1.2.84-.6c.24-.24.4-.46.63-.73z" fill="#fff"/></svg>