<svg xmlns="http://www.w3.org/2000/svg" viewBox="0 0 480 480" xmlns:v="https://vecta.io/nano"><path d="M393.13 244.9l.01.1-.01-.1zm-276-109.4l.01.1c-.01-.06-.01-.08-.01-.1zM258 102.78h-.03c-.05 0-.1.01-.16.01l.2-.01z"/><path d="M273.28 95.5c-.2-3.9-2.7-6.2-5.2-8.1-2.5-1.8-3.2-4.9-1.7-7.9s2.2-5.5-1-9.2-4.7-5.5-4.7-10.9-3.2-6.2-5-6.9-3-3.2-3.9-4.5c-1.3-2-3.9-3.5-7.4-2.3-2.7.9-5 0-6.7-1.5s-5.5-1.8-7.9-.8-3.2 3-4.2 4.4-3.4 2.9-6.4 3.4-5.7 2.2-7 4.7-.3 6.2-.2 8.4c.2 2.2-.3 4.2-4.2 5.9s-5.7 6.4-4.4 9.9 2 5.7.8 7.7-3.7 2.9-5.7 5.5c-1.3 1.8-2 7.7 3 8.4h17.92l-.52 1.7-2.2 5.7s3.2 4.1 10.8 5.7c5.2 1.1 8.7 1.2 11 1 1.9-.2 4.2-.6 3-4.1-1.7-5.2-1.1-8.5-1.1-8.5l.28-1.5h26.42c3.9 0 6.4-2.3 6.2-6.2z" fill="#fff"/><path d="M274.1 94.27l-.1.18c-.26-2.08-1.1-3.37-1.9-4.42-.85-1.05-1.8-1.9-3.12-3.06l.06.01c-.5-.34-.85-.55-1.16-.85-.3-.3-.57-.6-.77-.95-.4-.67-.6-1.4-.62-2.14-.03-.74.1-1.48.36-2.25.23-.72.77-1.64 1.1-2.8-.17.58.15-.22.16-.17.37-1.05.5-2.32.35-3.24-.16-.93-.47-1.5-.6-1.45-.63-1.5-.5-1.22-.5-1.46-.08.05-.86-1.1-1.67-1.98l.4.4-2.16-2.53.24.63c-1.02-1.4-.1-.5-1.08-1.8l-.13.1c-.64-1-.93-1.9-1.1-2.78-.17-.9-.22-1.8-.22-2.93-.06-1.13.02-2.5-.3-3.86-.3-1.35-1.03-2.76-2.2-3.66-.58-.46-1.22-.8-1.85-1.05-.6-.26-1.3-.45-1.65-.67-.87-.5-1.6-1.52-2.26-2.53l-1.06-1.6a7.11 7.11 0 0 0-1.45-1.5c-1.1-.85-2.5-1.33-3.85-1.34-.68-.01-1.35.06-2 .2l-.92.26-.78.2c-1.05.18-2.1.04-3.02-.37-.1-.08-.2-.17-.27-.26-.03-.1-.55-.3-1.07-.56a6.87 6.87 0 0 1-.72-.45l-.54-.44c-.37-.2-.75-.36-1.14-.47-.3-.16-.96-.4-.4-.26-1.05-.3-1.1-.26-1.86-.3l-1.14-.2c-1.06-.04-2.1.1-3.1.4-1 .32-1.93.87-2.68 1.6s-1.3 1.58-1.8 2.4l-.75 1.14a5.1 5.1 0 0 1-.94.91c-.9.64-2.18 1.27-3.65 1.67l-1.14.25-1.36.3a11.92 11.92 0 0 0-2.66 1.14c-1.7 1-3.12 2.5-3.84 4.32-.65 1.87-.45 3.58-.3 4.93l.4 2.84c.1.96.14 1.86-.16 2.66s-.9 1.45-1.66 1.96c-.37.27-.8.5-1.23.7l-1.4.64c-2.03 1.02-3.58 2.88-4.32 5-.37 1.06-.55 2.18-.5 3.3l.1.83.18.8.27.77.27.67c.06.24.33.82.35.8.37 1.1.7 2.18.77 3.2a3.64 3.64 0 0 1-.85 2.71l-.15.17a8.53 8.53 0 0 1-.74.73L199.52 91c-.55.5-1.1 1.06-1.6 1.72-.58.78-.8 1.62-.98 2.45-.3 1.66-.12 3.43.7 4.75.18.34.45.6.67.87.28.22.5.48.78.6.52.34 1.03.46 1.42.57.75.1 1.1.08.96-.04l.65.13c-4.2.54 4.6.75 4.6.75 4.63.16 7.92.1 11.8 0l-.12.4-2.3 5.96.17.22c.14.17 3.4 4.26 11.1 5.88 3.44.73 6.48 1.1 9.08 1.1a22.56 22.56 0 0 0 2.07-.09c1.28-.13 2.7-.37 3.4-1.45.5-.8.52-1.88.03-3.3-1.63-5-1.1-8.22-1.08-8.25l.08-.42 4.96-.02 12.06-.06c1.84-.2 5.1 0 7.26-.16l.84.1 1.2-.06c.45-.01.9-.06 1.32-.08l-.05.04c1.24-.23 2.62-.84 3.12-1.3l-.03.06c.45-.3.83-.7 1.2-1.1l-.16.24c.78-.9 1.24-2.03 1.42-3.12.2-1.1.16-2.16.02-3.13zm-61.44-28.2l-.04.05c.01-.07.02-.15.02-.2l.02.16zm12 14.54c-2.65 0-4.8-2.33-4.8-5.2s2.15-5.2 4.8-5.2c1.42 0 2.77.68 3.68 1.87l.33.42.73-.64c.04-.04 4.04-4.1 8.85-7.44 4.95-3.5 9.2-5.7 10.27-6.23.68.46 2.7 1.93 3.95 3.83h0c1.03 1.57 2.1 3.2 2.1 5.2a59.62 59.62 0 0 1-.06 2.62c-.1-.08-.2-.12-.34-.12-.3 0-1.2.01-2.2.4-.05.03-.1.07-.15.1a1.33 1.33 0 0 0-.26.21c-.01.01-.02.03-.04.04a1.4 1.4 0 0 0-.36.93c0 .77.63 1.4 1.4 1.4s1.4-.63 1.4-1.4a1.35 1.35 0 0 0-.2-.7c.15-.01.3-.01.4-.01a.52.52 0 0 0 .31-.1c-.16 3.2-.52 6.64-1 9.4-.93 5.1-3.4 8.5-6.96 9.6-3.65 1.14-10.2-1.98-12.12-2.97-3.2-1.65-5-3.38-5.44-5.27a33.87 33.87 0 0 0-.45-1.72l-.22-.76-.6.52c-.86.77-1.93 1.2-3.03 1.2zM241 111.86c.38 1.1.4 1.93.07 2.45-.45.7-1.6.88-2.64 1-2.9.25-6.55-.08-10.85-1-6.34-1.33-9.56-4.47-10.33-5.3l2.1-5.45 6.78-22.16c.57-.16 1.1-.4 1.6-.73.1.32.17.65.24.96.53 2.22 2.42 4.1 5.96 5.93 1.7.87 5.03 2.43 8.24 3.05l-2.3 12.5c-.03.14-.6 3.48 1.12 8.75zM224.98 72.4c-1.6 0-2.9 1.35-2.9 3s1.3 3 2.9 3 2.9-1.35 2.9-3-1.3-3-2.9-3zm0 5c-1.05 0-1.9-.9-1.9-2s.85-2 1.9-2 1.9.9 1.9 2-.85 2-1.9 2zm14.7-9c.4-.4 1.2-1.8 3.9-1.6.4 0 .8-.3.8-.7s-.25-.74-.7-.8c-3.6-.3-5.18 2-5.3 2.2a.78.78 0 0 0 .2 1c.26.18.87.12 1.1-.1zm11.8-2.2c.44 0 .96-.05 1.63.38.36.22.8.1.97-.18.2-.3.18-.77-.1-1-1.32-1.07-2.46-.75-2.8-.7-.4.06-.68.5-.6.9s.5.6.9.6zm-4.3 12.8h.2c.6 0 1.7-.3 2.1-1.5.4-1.4-.7-2.8-.8-3-.2-.3-.6-.3-.9-.1s-.3.6-.1.9.7 1.2.5 1.8-.7.6-.9.6c-.3 0-.7.2-.7.6 0 .3.2.7.6.7zm-2.9-8a.47.47 0 0 0-.5-.5c-.3 0-1.4-.02-2.38.46a1.04 1.04 0 0 0-.42.38 1.36 1.36 0 0 0-.3.86c0 .77.63 1.4 1.4 1.4s1.4-.63 1.4-1.4c0-.25-.07-.48-.18-.68.2-.02.37-.02.48-.02a.47.47 0 0 0 .5-.5zm-.23 13.47c.4 0 .7-.3.7-.8 0-.3-.3-.7-.7-.7-3.6-.2-4.35-3.17-4.4-3.3-.14-.42-.5-.6-.9-.5s-.6.5-.5.9c.4 1.5 2 4.2 5.8 4.4z"/></svg>