<svg xmlns="http://www.w3.org/2000/svg" viewBox="0 0 480 480" xmlns:v="https://vecta.io/nano"><path d="M393.13 244.9l.01.1-.01-.1zm-276-109.4l.01.1c-.01-.06-.01-.08-.01-.1z"/><path d="M253.45 47.52c-3.7-4.7-10.2-5.3-13.7-4.7-3.4.7-7.6 2.1-9.6 6.9 0 0-5.5-1-9.6 2.5-4 3.5-3.7 8.4-2.5 12.4.9 2.95 2.2 5.9 2.84 7.24a5.94 5.94 0 0 0-1.24 3.66c0 3.15 2.37 5.7 5.3 5.7a4.68 4.68 0 0 0 1.07-.13l-6.88 22.43-2.2 5.7s3.2 4.1 10.8 5.7c5.2 1.1 8.7 1.2 11 1 1.9-.2 4.2-.6 3-4.1-1.7-5.2-1.1-8.5-1.1-8.5l2.38-12.97c1.6.3 3.08.33 4.22-.03 3.2-1 5.9-4.4 6.9-10.1s.86-16.07.86-16.07-.65-.1-1.7-.3c2.84.2 4.67-.3 5.35-1.23 1.2-1.5-1.5-10.4-5.2-15.1zM227.6 80.44c.2-.13.42-.28.62-.44-.2.16-.4.3-.62.44zm-.64.33c.13-.06.25-.1.37-.18a2.53 2.53 0 0 1-.37.18zm8.27 6.9a6.52 6.52 0 0 0 .26.12l-.26-.12zm.98.46a2.72 2.72 0 0 0 .25.11c-.1-.04-.17-.08-.25-.1zm1.2.5c.01.01.02.01.04.02-.01-.01-.03-.02-.04-.02zm2.24.83c.02.01.05.02.07.02-.03 0-.05-.01-.07-.02z" fill="#fff"/><path d="M217.9 59.57l-.06.32c.02-.01.04-.1.06-.32zm34.66-12.07l-.06-.05c.04.04.06.05.06.05zm-32.64 24.85l-.01-.02-.05-.07z"/><path d="M259.83 61.33c.01-.3-.04-.57-.07-.85-.16-1.1-.44-2.12-.73-3.26-.27-1.4-.94-3.32-1.86-5.16-.9-1.85-2.05-3.62-3.05-4.8-1.44-1.68-3.33-3.22-5.52-4.2s-4.63-1.46-6.88-1.24c-.15-.02-.53.05-.52.07-.67.05-1.4.1-2.07.27l-1.97.5-.78.27a13 13 0 0 0-1.88.86c-1.47.77-3.04 2.23-3.82 3.6-.32.55-.55 1.05-.68 1.44-.44-.13-1.03-.23-1.58-.27-.68-.06-1.26-.03-1.26-.03-2.3.05-4.08.65-5.7 1.65-1.6 1.04-3.16 2.5-4.26 5.1-.96 2.28-1 3.88-1 5.4.05 1.53.3 3.1 1.1 5.36.7 2.16 1.67 4.35 2.62 6.32.01.02.03.04.04.06-.5.92-.8 1.98-.8 3.13 0 3.42 2.6 6.2 5.8 6.2.12 0 .24-.02.36-.03l-6.63 21.65-2.3 5.96.17.22c.14.17 3.4 4.26 11.1 5.88 3.44.73 6.48 1.1 9.08 1.1a22.56 22.56 0 0 0 2.07-.09c1.28-.13 2.7-.37 3.4-1.45.5-.8.52-1.88.03-3.3-1.63-5-1.1-8.22-1.08-8.25l2.3-12.5a12.56 12.56 0 0 0 1.88.16c.76 0 1.46-.1 2.08-.28 3.63-1.14 6.27-4.96 7.24-10.5.88-5.02.88-13.45.86-15.64.08-.01.16 0 .2.02l.63-.16c.2 0 .58-.04.26.06.6-.1.62-.17 1.03-.36.23-.05.46-.1.7-.2.3-.15.62-.37.87-.65.23-.2.55-.83.56-1.1a4.79 4.79 0 0 0 .07-.51l.02-.45zm-19.67 41.9c-.03.14-.6 3.5 1.12 8.75.38 1.1.4 1.93.07 2.45-.45.7-1.6.88-2.65 1-2.9.25-6.55-.08-10.85-1-6.34-1.33-9.56-4.47-10.33-5.3l2.1-5.45 6.78-22.15a5.26 5.26 0 0 0 1.53-.69c.08.3.16.6.22.9.53 2.22 2.42 4.1 5.96 5.93 2.53 1.3 5.58 2.52 8.33 3.08l-2.28 12.48zm13.5-23.1c-.9 5.15-3.3 8.7-6.56 9.7-3 .94-8.62-1.07-12.52-3.07-3.2-1.65-5-3.38-5.44-5.27a28.79 28.79 0 0 0-.43-1.65l-.2-.75-.6.5c-.85.73-1.88 1.1-2.95 1.1-2.65 0-4.8-2.33-4.8-5.2s2.15-5.2 4.8-5.2c1.6 0 3.1.87 4 2.32l.3.48.44-.34c.16-.12 3.9-3.1 5.28-6.56 1.5-3.86 1.6-7.15 1.5-8.85 1.5 1.13 4.76 3.3 9.14 4.92 3.78 1.4 7.65 2.1 8.92 2.3.01 2 .01 10.6-.85 15.55zm-28.4-7.6c-1.6 0-2.9 1.35-2.9 3s1.3 3 2.9 3 2.9-1.35 2.9-3-1.3-3-2.9-3zm0 5c-1.05 0-1.9-.9-1.9-2s.85-2 1.9-2 1.9.9 1.9 2-.85 2-1.9 2zm14.2-9.2c.12-.13 1.2-1.8 3.9-1.6.4 0 .8-.3.8-.7s-.3-.8-.7-.8c-3.6-.3-5.2 2.1-5.3 2.2-.2.3-.18.75.15 1 .5.4.92.17 1.15-.1zm11.03-3.6a.73.73 0 0 0-.52.9c.1.4.5.54.9.5.15-.02 1.24-.35 2.1.14.14.08.3.16.4.16.2 0 .5-.1.6-.3a.78.78 0 0 0-.2-1c-1.4-1-3.13-.44-3.28-.4z"/><circle cx="242.35" cy="71.92" r="1.4"/><circle cx="252.51" cy="71.12" r="1.4"/><path d="M248.35 72.32c-.4.1-.6.5-.4.9.5 1.3 1.4 3.8 1.3 4.7s-.85 1-1.2 1.1c-.45.12-.75.45-.65.9.12.58.65.63.95.6.8-.1 2.2-.9 2.3-2.4.1-1.6-1.2-5-1.4-5.4-.1-.4-.5-.6-.9-.4zm-4 10.4c-3.6-.2-4.35-3.17-4.4-3.3-.14-.42-.5-.6-.9-.5s-.6.5-.5.9c.4 1.5 2 4.2 5.8 4.4.4 0 .7-.3.7-.8 0-.3-.3-.7-.7-.7z"/></svg>