<svg xmlns="http://www.w3.org/2000/svg" viewBox="0 0 480 480" xmlns:v="https://vecta.io/nano"><path d="M393.13 244.9l.01.1-.01-.1zm-276-109.4l.01.1c-.01-.06-.01-.08-.01-.1z"/><path d="M254.43 52.76c-2.7-3.48-8.8-5.9-18.25-5.9s-14.97 3.67-16.32 12.26.3 13.57.3 13.57.22-.76 1-1.48l.06.3c-1 1.04-1.6 2.48-1.6 4.1 0 3.15 2.37 5.7 5.3 5.7.37 0 .72-.05 1.07-.13l-6.87 22.43-2.2 5.7s3.2 4.1 10.8 5.7c5.2 1.1 8.7 1.2 11 1 1.9-.2 4.2-.6 3-4.1-1.7-5.2-1.1-8.5-1.1-8.5l2.4-13.1c1.63.3 3.14.35 4.3-.01 3.2-1 5.9-4.4 6.9-10.1.5-3.3.8-9.2.8-13.4 0-.7-.04-1.86-.12-3.13l.13 1.27s1.06-1.16 1.35-2.5c.3-1.37.8-6.2-1.92-9.67zm-26.15 27.22c.01.03.02.06.02.1l-.08-.05c.02-.01.04-.02.06-.04z" fill="#fff"/><path d="M230.24 73.36c-.17.01-.33.01-.48-.02 0 .03.1.08.48.02zm-9.5-3.24v.01l.01-.02zm4.47 2.48c-1.6 0-2.9 1.35-2.9 3s1.3 3 2.9 3 2.9-1.35 2.9-3-1.3-3-2.9-3zm0 5c-1.05 0-1.9-.9-1.9-2s.85-2 1.9-2 1.9.9 1.9 2-.85 2-1.9 2zM243 64.82c-3.6-.3-5.2 2-5.3 2.1-.3.4-.27 1.2.3 1.66.44.36 1.13.17 1.4-.06.1-.1 1.2-1.8 3.9-1.6.4 0 .8-.3.8-.9 0-1-.7-1.2-1.1-1.2zm10.8-.1c-1.42-.98-3.2-.44-3.3-.4-.42.17-.86.57-.57 1.38a1.01 1.01 0 0 0 .97.56c.1-.01 1.2-.18 2.1.2.46.2.9-.1 1.02-.33.38-.7.07-1.2-.22-1.4zm-6.32 20.16h0l-.02.05z"/><circle cx="242.34" cy="71.92" r="1.4"/><circle cx="252.34" cy="71.12" r="1.4"/><path d="M256.75 58.95c-.17-.6.25.52.08-.38.14-.04.12.42.2.17-.14-.9 0-1.5-.37-2.58l.1-.07c-.58-1.35-.9-2.7-1.65-3.42-1.02-1.14-.4-1.07-1.73-2l-.4-.5c-.56-.4-.5-.16-1.1-.6.1-.06-.78-.56-.36-.4-1.44-1-3.2-1.3-5.25-2.1-.5.04-1.56-.3-1.94-.22-.04-.1-2.17-.38-.92-.35.1 0 .3.04.27.07l.16-.08c-1.2-.4-2.27-.24-3.5-.36.36.07.84.1.5.14l-1.14-.1.24-.07-1.7-.15.23.12c-.83-.1-1.12-.28-2.06-.14-.42.08.78.16-.1.18l-2-.1-2.25.12c.15.1-.24.16-.63.24l-.06-.1c-1.5.43-.6-.15-2.1.32l-.22.23c-1.26.6-.8-.01-2.15.83.57-.23.35.1-.34.38l.13-.18c-.36.2-.47.3-.73.42.2-.16.04-.2-.5.1l.3-.3c-.33.22-.6.52-.9.78-.85.38-1.82 1.48-2.17 1.66 0 0-.38.33-.7.78l-.48.66c-.12.22-.2.4-.23.52.12-.4-.48.5-.42.2l-.5 1.2-.57 1.2.03-.1c-.9 2.03-.87 3.66-1.26 5.5.13-.07-.05.92.14.7-.06 1.95-.6 3.55-.1 4.27.02.9-.1 1.06-.13 1.52l-.03-.2.3 3.4c.18.84.37.9.65 2.16.03.03.07.06.1.1-.3-.06 0 .1.2.28-.07-.04-.1-.03-.02.05-.44.88-.7 1.88-.7 2.94 0 3.42 2.6 6.2 5.8 6.2.12 0 .24-.02.36-.03l-6.63 21.65-2.3 5.96.17.22c.14.17 3.4 4.26 11.1 5.88 3.44.73 6.48 1.1 9.08 1.1a22.56 22.56 0 0 0 2.07-.09c1.28-.13 2.7-.37 3.4-1.45.5-.8.52-1.88.03-3.3-1.63-5-1.1-8.22-1.08-8.25l2.32-12.6c.68.1 1.35.18 1.96.18.76 0 1.46-.1 2.08-.28 3.63-1.13 6.27-4.96 7.24-10.5.52-3.46.8-9.52.8-13.47 0-.37-.01-.85-.03-1.4l.03-.03a8.03 8.03 0 0 0 .48-.62c-.14.2-.3.37-.46.56-.02-.12.1-.28.28-.48l.07.02c0-.03-.01-.06-.01-.1.36-.4.9-1 1.06-1.97.4-1.34-.17-2.6-.1-3.85zM240.1 103.3c-.03.14-.6 3.5 1.12 8.75.38 1.1.4 1.93.07 2.45-.45.7-1.6.88-2.64 1-2.9.25-6.55-.08-10.85-1-6.34-1.33-9.56-4.47-10.33-5.3l2.1-5.45 6.78-22.16c.58-.16 1.13-.4 1.63-.75.08.3.16.6.22.88.53 2.22 2.42 4.1 5.96 5.93 2.5 1.3 5.52 2.5 8.25 3.06l-2.3 12.6zm5.3-22.38l.02-.02c.01 0 .03 0 .04-.01l-.06.03zm8.3-.8a20.8 20.8 0 0 1-.52 2.23c-.16-.3-.36-.5-.55-.75.02-.07.1-.02.2.06l-.17-.22c.07-.04.13.1.2.17-.07-.36-.5-.48-.7-.82h-.1l-.01-.02c-.02.03-.12.01-.16-.02 0-.1.1-.13-.06-.23-.08-.15-.38-.2-.57-.26.1.06.04.08-.01.08-.08-.04-.1-.12-.18-.12l.03-.1c0 .1-.26-.01-.3.02-.02-.1.15 0 .2-.04-.35-.13-.17-.06-.53-.17-.2.01.01.1-.1.15-.17-.02-.34 0-.5-.1l.04.1c-.16.01-.3 0-.4-.03.57-.4 1.08-1.03 1.14-1.9.1-1.6-1.2-5-1.4-5.4-.1-.4-.5-.6-.9-.4-.4.1-.6.5-.4.9.5 1.3 1.4 3.8 1.3 4.7s-.85 1-1.2 1.1c-.4.1-.65.37-.66.74-.12-.04-.25-.08-.4-.13l.02-.03c-.46-.03-.76 0-1.05.2-.08-.16-.37.05-.5.02l.01-.02c-.24.2-.6.03-.83.22.01-.02 0-.06.06-.08-.2.08-.43.2-.48.1-.45.17-1.1.43-1.3.74v-.03c-.1.18-.2.14-.33.3-.02 0-.03 0-.03-.01-.1.2-.44.38-.52.54l-.06-.04-.25.3c.03-.04.07-.07.1-.1.1.15-.3.15-.36.47-.18.24.07.66-.07.88.06.15-.12-.14-.1.07-.1-.01-.05-.1-.13-.07 0 .03 0 .06-.01.1-1.38-.72-1.93-1.94-1.98-2.03-.2-.4-.6-.5-.97-.33-.38.17-.5.6-.34.97.65 1.4 2.7 3.8 6.47 3.34.2-.03.34-.13.44-.28.16-.01.3-.1.5-.1-.07-.02-.17-.02-.1-.07h.23l-.05.06.34.04-.05-.08c.17.04.22.17.4.06.08-.06-.16-.1.02-.13.22.05.55.13.83.15-.03-.1.05-.08.13-.1l.01.07c.3-.1.1.16.4.08l.05-.1c.27-.15.14.16.44-.05-.12.01-.06-.16.1-.13l-.04.07c.08-.02.1-.05.16-.03-.05.04-.03.1.1.1l-.08.1.22-.13c.17.08.44-.02.52.08 0 0 .37.05.46-.06-.07.07.13.1.07.18.1-.08.38-.14.5-.06l-.02.01c.42.08.7-.1 1.1-.01-.02-.1.2-.04.14-.15.4-.1.8.18.9-.2.17-.05.24 0 .33.01-1.22 2.76-3.04 4.63-5.27 5.33-3 .94-8.62-1.07-12.52-3.07-3.2-1.66-5-3.38-5.44-5.27a24.44 24.44 0 0 0-.35-1.35l-.25-1.25c-.88 1.16-2.2 1.92-3.7 1.92-2.65 0-4.8-2.33-4.8-5.2 0-1.96 1.02-3.65 2.5-4.54.1-.06.2-.12.33-.16.36-.16.74-.26 1.1-.34a6.86 6.86 0 0 1 1.28-.13c.3.03.6.08.88.17-.13 0-.32-.01-.53-.01.36.03.7.1 1.04.2-.04.1-.6-.13-.93-.13.6.18 1.2.33 1.76.66.27.17.53.37.76.63l.03.03c.1.13.22.27.32.43.07.1.14.23.22.34.1.12.17.27.3.38.14.1.3.15.47.16.03.06.1.03.13.05.01-.02.54-.13.86-.26.33-.02.08.28.97-.15.36-.14.87-.46 1.23-1.05.17-.3.3-.65.32-1 .02-.32 0-.52 0-.75-.04.47-.1.3-.12.1.02-.42.13-.66.1-.98l.14-.03c-.14.16-.1-1.1-.15-1.26.1-.24.07.65.14.76l.05-2.52c-.1-.9-.13.16-.25-.27-.02-.8-.1-1.56-.04-2.47l-.12.3c-.14-1.5-.1-2.34-.25-3.42-.6-1.28-1.2-2.16-1.63-2.87-.43-.7-.72-1.2-.9-1.57l-.1-.4c.07.12.14.14.18.06s.06-.23.1-.48c.02-.1.06-.32.2-.34l.26.13c.06.04.12.1.18.14.65.6 1.76 1.3 3.3 2.36l-.1-.01 1.3.76.6.33.38.2c.14.1.32.1.48.1.22 0 .44-.01.66-.01l.57-.03c.37-.03.74-.06 1.12-.1.24.25 1.8.03 2.3.1l-.05.02c1.33-.2 2.74.16 4.03-.01-.05.02-.08.1-.37.1.94-.03 2.22-.1 2.3.06l3.08-.02 1.53-.03.7-.03c.08-.01.15-.03.22-.04.04.04.08.07.12.1.02.02.04.03.07.06l.13.14-.1-.06c.08.08.14.15.2.2.03.04.05.07.07.1.05.1.1.2.12.33.06.24.1.5.24.93-.01.05-.01.1-.02.1.32.82.4 2.52.55 3.22l-.1.06.12 1.05.12 1.06c.01.28.01.54.01.75 0 3.9-.28 9.9-.8 13.3z"/><path d="M229.37 46.57h0l.1-.1z"/></svg>