<svg xmlns="http://www.w3.org/2000/svg" viewBox="0 0 480 480" xmlns:v="https://vecta.io/nano"><path d="M393.13 244.9l.01.1-.01-.1zm-276-109.4l.01.1c-.01-.06-.01-.08-.01-.1z"/><path d="M257.43 42.03c-3.4-3.8-7.2-.7-7.2-.7s1.9-5-2.3-6.7c-5-2-6.9 3.2-6.9 3.2s.47-5.98-5.27-5.6c-4.82.32-3.73 6.3-3.73 6.3s-3.03-4.5-7.24-2.1c-4.23 2.43-.76 7.5-.76 7.5s-4.1-3.4-7 .4c-3 4 1.9 7.1 1.9 7.1s-6.2-.2-5.8 5.5c.44 5 5.17 4.38 6.34 4.16-.16.44-.57 1.92-.24 5.04.4 3.7 1.5 4.8 1.5 4.8s.03-.02.04-.03l.06.13.1-.1.12.58c-1 1.04-1.6 2.48-1.6 4.1 0 3.15 2.37 5.7 5.3 5.7.37 0 .72-.05 1.07-.13l-6.87 22.43-2.2 5.7s3.2 4.1 10.8 5.7c5.2 1.1 8.7 1.2 11 1 1.9-.2 4.2-.6 3-4.1-1.7-5.2-1.1-8.5-1.1-8.5l2.4-13.1c1.63.3 3.14.35 4.3-.01 3.2-1 5.9-4.4 6.9-10.1.5-3.3.8-9.2.8-13.4a51.13 51.13 0 0 0-.1-2.84 25.96 25.96 0 0 1 .56 1.67c1.42-1.82.55-4.65-.07-6.12.1-.23.97-2.62.6-5.28-.32-2.22-1.07-3.36-1.37-3.74 3-.4 6.2-4.92 2.97-8.45zm-29.3 37.95c.01.03.02.06.02.1l-.08-.05c.02-.01.04-.02.06-.04z" fill="#fff"/><path d="M248.74 35.84l-.3-.27c-.02.02.05.1.3.27zm-12.17-4.7h.03c.05 0 .1-.01.14-.01l-.17.01zM225.04 72.6c-1.6 0-2.9 1.35-2.9 3s1.3 3 2.9 3 2.9-1.35 2.9-3-1.3-3-2.9-3zm0 5c-1.05 0-1.9-.9-1.9-2s.85-2 1.9-2 1.9.9 1.9 2-.85 2-1.9 2zm14.24-9.28c.12-.13 1.2-1.8 3.9-1.6.4 0 .8-.3.8-.7s-.3-.8-.7-.8c-3.6-.3-5.2 2.1-5.3 2.2-.2.3-.18.75.15 1 .5.4.92.17 1.15-.1zm11.02-3.6a.73.73 0 0 0-.52.9c.1.4.5.54.9.5.15-.02 1.24-.35 2.1.14.14.08.3.16.4.16.2 0 .5-.1.6-.3a.78.78 0 0 0-.2-1c-1.4-1-3.13-.44-3.28-.4z"/><circle cx="242.18" cy="71.92" r="1.4"/><circle cx="252.18" cy="71.12" r="1.4"/><path d="M248.18 72.32c-.4.1-.6.5-.4.9.5 1.3 1.4 3.8 1.3 4.7s-.85 1-1.2 1.1c-.45.12-.75.45-.65.9.12.58.65.63.95.6.8-.1 2.2-.9 2.3-2.4.1-1.6-1.2-5-1.4-5.4-.1-.4-.5-.6-.9-.4zm-4 10.4c-3.6-.2-4.35-3.17-4.4-3.3-.14-.42-.5-.6-.9-.5s-.6.5-.5.9c.4 1.5 2 4.2 5.8 4.4.4 0 .7-.3.7-.8 0-.3-.3-.7-.7-.7zm-6.8-21.17l.08-.08c-.06.05-.08.07-.08.08zm20.9-20.35c-.87-.94-2.14-1.8-3.72-2.05a6.32 6.32 0 0 0-2.44.17c-.28.08-.22.07-.26.1l-.1.05c-.07.04-.14.1-.2.15-.04.02.01-.08.01-.13l.05-.23.01-.05.01-.24v-.56c-.02-.74-.2-1.45-.47-2.08-.56-1.3-1.6-2.16-2.65-2.63-1.03-.44-2.18-.78-3.6-.6-.7.07-1.42.35-2.1.76-.34.2-.66.46-.97.75-.12.1-.1.1-.1.12l-.01.03c-.01.01-.02.02-.02.04 0-.02 0-.04-.01-.07v-.03l-.1-.23-.2-.44c-.13-.3-.35-.56-.53-.84-.23-.25-.43-.52-.7-.73-1.05-.9-2.4-1.25-3.56-1.3-.8.07-2 .1-3.18.76-.6.3-1.07.8-1.44 1.32-.34.53-.56 1.07-.66 1.55l-.28.72c-.03.3-.01.27-.01.32.01.04.01.1.01.13s-.01.07-.03.08l-.02-.07a2.23 2.23 0 0 1 .06.26c-.05-.06-.1-.14-.14-.13l-.01-.04-.05-.06-.1-.06c.01-.01.03-.02.04-.03-.03-.01-.04-.01-.1-.04-.18-.12-.38-.22-.57-.33-.4-.2-.8-.4-1.24-.5-.86-.25-1.8-.32-2.6-.17l.16.1c-.44.02-.8.2-1.17.28l-.92.44-.76.54c-.23.2-.43.43-.63.64-.77.9-1.15 2.13-1.1 3.67l-.03-.04c.2.98.3 1.06.37 1.26l.2.46c-.2-.17-.38-.3-.53-.37-.05-.03-.1-.05-.16-.07l-.04-.01-.1-.02c-.15-.03-.3-.07-.44-.07-.6-.08-1.28-.02-1.96.2.5-.15-.24-.02-.2-.03-.48.15-.9.4-1.3.67-.35.3-.7.58-.9.88-.48.55-.63 1.05-.54 1.1-.35.54-.42.83-.5.92-.08.1-.1.07-.2.14.05.01.02.32-.05.74a5.7 5.7 0 0 0 .07 1.52l-.1-.48c.1 1.03.56 1.95 1.13 2.7l-.14-.58c.38.64.42.74.4.8-.01.05-.02.13.23.33l.2-.02.53.52-1.05-.05h-.2c-.06 0-.08-.01-.28.03-.32.1-.66.17-1 .34a5.15 5.15 0 0 0-2.75 3.25c-.38 1.42-.26 2.82.23 4.18.1.35.33.66.5.98.22.3.45.6.74.85.55.53 1.24.84 1.92 1.06.97.27 1.98.3 2.9.2-.15.87-.24 2.24-.03 4.27.16 1.44.4 2.5.68 3.27.05.35.2 1 .43 1.47.14.28.3.53.42.74-.82 1.07-1.32 2.44-1.32 3.93 0 3.42 2.6 6.2 5.8 6.2.12 0 .24-.02.36-.03l-6.63 21.65-2.3 5.96.17.22c.14.17 3.4 4.26 11.1 5.88 3.44.73 6.48 1.1 9.08 1.1a22.56 22.56 0 0 0 2.07-.09c1.28-.13 2.7-.37 3.4-1.45.5-.8.52-1.88.03-3.3-1.63-5-1.1-8.22-1.08-8.25l2.32-12.6c.68.1 1.35.18 1.96.18.76 0 1.46-.1 2.08-.28 3.63-1.14 6.27-4.96 7.24-10.5.52-3.42.8-9.4.8-13.35l.6-.8a4.83 4.83 0 0 0 .9-2.24s.14-.77-.03-1.87c-.08-.55-.23-1.18-.45-1.85a6.95 6.95 0 0 0-.4-1c-.02-.04-.03-.07-.05-.1.28-.96.7-2.83.4-4.9-.2-1.32-.53-2.27-.85-2.94a4.7 4.7 0 0 0 1.44-.61c.9-.56 1.47-1.26 1.47-1.26 1.13-1.25 1.68-2.82 1.62-4.33-.08-1.53-.84-2.87-1.76-3.82zM236.38 54c8.36-2.58 16.25-3.1 17.73-3.17.2.26.57.86.88 1.86-5.07.47-10.8 1.56-17.08 3.25-5.96 1.58-11.93 4.12-17.76 7.53.02-.83.07-1.64.16-2.42A85.39 85.39 0 0 1 236.38 54zm-16.45 7.27c.06-.04.14-.08.24-.14-.13.84-.22 1.67-.26 2.48-.1.06-.2.1-.3.17.02-1.44.23-2.23.32-2.5zm-.01 6.08a25.12 25.12 0 0 1-.2-1.28l-.1-1.15c.08-.05.16-.1.24-.14a29.43 29.43 0 0 0 .08 2.54c-.01.01-.03.02-.04.03zm.27-.17c-.04-.72-.06-1.56-.06-2.54 5.92-3.53 11.98-6.13 18.04-7.73 6.28-1.7 12-2.77 17.07-3.23.04.2.08.4.1.62a7.82 7.82 0 0 1 .08 1.35c-2.25.12-8.33.67-16.92 3.1-6.18 1.74-12.18 4.5-18.32 8.44zm.66 3.05a6.87 6.87 0 0 1-.49-1.12l-.1-.8c6.22-4.04 12.27-6.86 18.5-8.6 8.38-2.36 14.3-2.92 16.6-3.05-.1 1.07-.35 1.94-.5 2.38-1.45.04-7.14.37-16.37 2.8-8.14 2.1-15.82 7.13-17.66 8.4zm19.1 33.06c-.03.14-.6 3.5 1.12 8.75.38 1.1.4 1.93.07 2.45-.45.7-1.6.88-2.64 1-2.9.25-6.55-.08-10.85-1-6.34-1.33-9.56-4.47-10.33-5.3l2.1-5.45 6.78-22.16c.58-.16 1.13-.4 1.63-.75.08.3.16.6.22.88.53 2.22 2.42 4.1 5.96 5.93 2.5 1.3 5.52 2.5 8.25 3.06l-2.3 12.6zm13.6-23.2c-.9 5.15-3.3 8.7-6.56 9.7-3 .94-8.62-1.07-12.52-3.07-3.2-1.66-5-3.38-5.44-5.27a24.44 24.44 0 0 0-.35-1.35l-.25-1.25c-.88 1.16-2.2 1.92-3.7 1.92-2.65 0-4.8-2.33-4.8-5.2s2.15-5.2 4.8-5.2c1.67 0 3.14.93 4 2.33l.05-.05.5-.42a.74.74 0 0 1-.2.23c-.03.02-.1.08-.16.14l-.1.08c0-.01.01.02.03.04a.72.72 0 0 1 .1.18l.23.47c.16.34.33.7.56 1.1.07.12.17.3.3.46.14.16.3.32.48.44.36.25.83.4 1.3.32.47-.06.93-.32 1.26-.72.34-.37.52-1.02.54-1.42.1-1.3.2-2.6.5-3.9.53-2.6 1.9-4.98 3.32-6.37.04-.05.1-.1.14-.15l1.15-.33c5.2-1.37 9.28-2.07 12.1-2.42l.77.55c.56.42 1.1.85 1.4 1.28a3.63 3.63 0 0 0 .34.51c.37.76.67 1.6.95 2.46.03.63.04 1.2.04 1.6-.01 3.92-.28 9.93-.8 13.32z"/></svg>