<svg xmlns="http://www.w3.org/2000/svg" viewBox="0 0 480 480" xmlns:v="https://vecta.io/nano"><path d="M393.13 244.9l.01.1-.01-.1zm-276-109.4l.01.1c-.01-.06-.01-.08-.01-.1z"/><path d="M258.6 49.3c-3.5-4.6-12.1-.9-12.1-.9s-1.3-2.5-5.7-2.7c-1.8 0-3.9.3-6.1.4s-4.4-.2-7.1 1.1c-5.5 2.6-4.8 7.6-4.8 7.6s-1.6-.1-3.2 1.1c-1.6 1.3-3.4 3.3-2.3 6.7.7 2 2.55 9.83 2.55 9.83s.44-.62 1.26-1.28l.08.37c-1 1.04-1.6 2.48-1.6 4.1 0 3.15 2.37 5.7 5.3 5.7.37 0 .72-.05 1.07-.13l-6.87 22.43-2.2 5.7s3.2 4.1 10.8 5.7c5.2 1.1 8.7 1.2 11 1 1.9-.2 4.2-.6 3-4.1-1.7-5.2-1.1-8.5-1.1-8.5l1.98-10.8c2.4.66 4.56.93 6.14.78 4.2-.4 6.2-3 6.6-6.3.2-1.7.4-4.4.3-6 0-1.3-.9-1.7-.9-1.7-.1.6-.3 1.6-.3 1.6a9.94 9.94 0 0 1-.44.18c.07-.33.16-.64.22-.98.5-3.3.8-9.2.8-13.4 0-1.1-.1-3.4-.3-5.4a39.57 39.57 0 0 0-.2-1.23c4.3-1.86 7.33-6.74 4.12-10.87zm-30.33 30.7c.01.03.02.06.02.1l-.08-.05c.02-.01.04-.02.06-.04z" fill="#fff"/><path d="M249.33 46.8c.04-.01.08-.03.12-.04-.1.02-.12.03-.12.04zm4.87 40.24v-.14.14zM221.63 71.1l-.06-.3a8.73 8.73 0 0 0-.88.7l.1.46a6.2 6.2 0 0 1 .84-.86zm7.82 11.9a5.05 5.05 0 0 1-.1-1c-.07-.17-.13-.35-.17-.52l-.5-1.9c-.25.28-.53.53-.83.74l.36 1.4c.32 1.34 1.15 2.56 2.52 3.72-.68-.97-1.15-1.87-1.27-2.44z"/><path d="M225.18 72.6c-1.6 0-2.9 1.35-2.9 3s1.3 3 2.9 3 2.9-1.35 2.9-3-1.3-3-2.9-3zm0 5c-1.05 0-1.9-.9-1.9-2s.85-2 1.9-2 1.9.9 1.9 2-.85 2-1.9 2zm35.6-25.3c-.1-.98-.5-2-1.06-2.9-.53-.9-1.42-1.72-2.34-2.26-1.93-1.02-3.88-.97-5-.8l.15-.05c-1.28.24-1.67.15-3.05.53-.08 0-.18.01-.17 0l-2.4.8c-.08.02-.18.1-.24.06-.05-.08-.1-.15-.15-.2l-.06-.07-.14-.15c-.1-.1-.2-.18-.3-.27l-.52-.4v-.12c-.82-.57-1.74-.92-2.67-1.13a7.14 7.14 0 0 1 1.02.33c-.22.06-.7-.16-1.44-.36-.7-.2-1.74-.36-2.7-.2-1.85.06-3.64.9-5.53.82-.9.14.78-.22-.55-.1-.04-.14.62-.1.28-.2-1.3.1-2.2-.18-3.87.2l-.1-.1c-1.1.3-2.1.65-2.96 1.08-.88.4-1.63.9-2.14 1.47l-1.4 1.42c-.26.32-.6.64-.95 1.86-.16.3-.3.6-.42.9-.12.48-.1.7-.1.9v.53c0 .02-.01.05-.01.1-.04-.03-.05.03-.07.08-.13-.02-.23-.02-.17-.08l-.08-.01h-.06c-.02 0-.04 0-.15.03a4.07 4.07 0 0 0-.5.13 5.93 5.93 0 0 0-.98.4 7.13 7.13 0 0 0-.92.59c-.3.23-.53.46-.78.7-1 .98-2 2.35-2.3 4.2.04.42.07 1.1.2 1.7.1.62.33 1.2.46 1.4-.03.08.86 3.1.22 1.4-.05-.15-.13-.4-.1-.4l-.16-.18c.3 1.8.96 3.17 1.37 4.94-.1-.53-.28-1.22-.1-.78l.4 1.64-.17-.32.8 3.54-.06-.74.26 1.34.1.53c-.1.48-.17.97-.17 1.48 0 3.42 2.6 6.2 5.8 6.2.12 0 .24-.03.36-.03l-6.63 21.65-2.3 5.96.17.22c.14.17 3.4 4.26 11.1 5.88 3.44.73 6.48 1.1 9.08 1.1a22.56 22.56 0 0 0 2.07-.09c1.28-.13 2.7-.37 3.4-1.45.5-.8.52-1.88.03-3.3-1.63-5-1.1-8.22-1.08-8.25l1.83-10c1.22.27 2.33.54 3.3.68 1.13.16 2.1.13 2.62-.17 1.38-.2 1.67-.2 2.4-.4a3.09 3.09 0 0 1-.32.14 7.57 7.57 0 0 0 2.65-1.51c.6-.54 1.08-1.1 1.57-2 .2-.47.25-.77.33-1.15.06-.4.18-.85.33-1.7 0 .58.12-.15.17-.76-.03.4-.01.53.14-.28-.02-.12-.02-.3-.02-.46.01-.01.02-.04.02-.02.06-1.04.01-.86-.04-.38-.01-.03-.03.01-.07.16.22-1.06.18-3 .32-3.13 0-.33 0-.64-.02-.95s-.02-.57-.08-.96a2.8 2.8 0 0 0-.39-.98c0-.01 0-.02.01-.03h-.02c-.2-.3-.5-.57-.87-.75l-.08-.04c.4-3.53.62-8.56.62-12 0-1.18-.1-3.5-.3-5.47-.03-.22-.07-.43-.1-.65.35-.17.66-.34.86-.44l-.06.06c.88-.62 1.8-1.25 2.57-2.05.78-.8 1.44-1.73 1.76-2.76 0 .1.04.16-.17.6.36-.7.56-1.64.67-2.4l.05-.97c.04-.26.05-.42.08-.45zm-7.1 27.82c-.04.23-.1.45-.14.68-.56.24-1.24.46-1.9.6-.3-.03.27-.2.95-.4-.55.17-1.13.28-1.7.38 0-.1.98-.22 1.5-.4-2 .32-4.26.8-6.68.2-.17.01-.35 0-.52-.01l-.14-.05c0 .05-.56 0-.92-.1-.3-.2.08-.2-1.08-.57-.87-.4-2.55-.96-3.63-1.62.58.36.36.3.1.18-.53-.32-.74-.62-1.16-.85l.04-.15c.1.26-1.33-.88-1.52-1.02-.18-.3.76.58.94.6-.94-.78-1.15-1-1.36-1.22-.2-.22-.45-.42-1.23-1.35-.9-.96.05.27-.44-.15-.72-.9-1.46-1.83-1.9-3.07 0 .14.03.3.05.43-.26-.48-.43-.94-.42-1.37.01-.4.26-.77.46-1.1.43-.67.86-1.24 1.32-1.85a13.98 13.98 0 0 0 1.76-4.62c.23-1.2.25-2.06.23-2.6-.02-.2-.04-.36-.06-.5l.54-.1c.16.14.8.43 2.07.82 1.28.38 3.2.9 6.02 1.26l-.15.03c3.35.25 5.55.05 7.8-.7.22.08.88-.1 1.6-.37.01 0 .02-.01.03-.01l.06.35c.2 1.93.3 4.2.3 5.35-.01 3.9-.28 9.92-.8 13.3zm-28.8.68c-2.65 0-4.8-2.33-4.8-5.2a5.46 5.46 0 0 1 .68-2.62 8.73 8.73 0 0 1 .31-.38c.22-.25.45-.47.7-.72.27-.24.02-.15-.3.12-.02.02-.03.03-.05.04a5.44 5.44 0 0 1 .49-.47c.6-.4 1.4-.76 2.26-.9.9-.15 1.93-.08 2.7.24-.01-.02 0-.02.01-.03a4.97 4.97 0 0 1 2.01 1.85l.05-.05c.08.1.17.25.3.42-.05-.04-.1-.07-.15-.1.15.1.3.2.43.32.08.12.1.1.1.15s0 .04-.02.14l-.08.28c-.05.16-.1.27-.16.4-.1.27-.2.63-.27 1.65.16-.88.3-.37.06.7l-.05-.3c-.1.6-.08.8-.17 1.2.01-.37-.13-.22-.24.68l-.04-.62a39.17 39.17 0 0 0-.03 1.54l-.06-.28c-.86 1.15-2.18 1.9-3.68 1.9zm15.2 22.5c-.03.14-.6 3.5 1.12 8.75.38 1.1.4 1.93.07 2.45-.45.7-1.6.88-2.64 1-2.9.25-6.55-.08-10.85-1-6.34-1.33-9.56-4.47-10.33-5.3l2.1-5.45 6.8-22.17a5.56 5.56 0 0 0 1.88-.95l.23.13c-.02-.1-.04-.17-.07-.25.03-.02.07-.04.1-.07a12.22 12.22 0 0 0-.03 1.21c.03.8.1 1.48.17 1.9l.18.5a8.19 8.19 0 0 0 .52 1.01c.42.72.98 1.42 1.25 1.63-.45-.4.54.88.16.6l1.4 1.3c.58.52 1.22 1 1.58 1.3a3.72 3.72 0 0 1-.16-.1c1.43.98 2.63 1.5 3.88 2.03 1.24.5 2.45.95 3.8 1.45-.05-.08.33.02.65.1l-1.8 9.94zm3.34-38.08c-3.6-.3-5.2 2.1-5.3 2.2-.2.3-.18.75.15 1 .5.38.92.16 1.15-.1.12-.13 1.2-1.8 3.9-1.6.4 0 .8-.3.8-.7s-.3-.8-.7-.8zm7-.5a.73.73 0 0 0-.52.9c.1.4.5.54.9.5.15-.02 1.24-.35 2.1.14.14.08.3.16.4.16.2 0 .5-.1.6-.3a.78.78 0 0 0-.2-1c-1.4-1-3.13-.44-3.28-.4z"/><circle cx="242.32" cy="71.92" r="1.4"/><circle cx="252.32" cy="71.12" r="1.4"/><path d="M248.32 72.32c-.4.1-.6.5-.4.9.5 1.3 1.4 3.8 1.3 4.7s-.85 1-1.2 1.1c-.45.12-.75.45-.65.9.12.58.65.63.95.6.8-.1 2.2-.9 2.3-2.4.1-1.6-1.2-5-1.4-5.4-.1-.4-.5-.6-.9-.4zm-3.75 8.64l.47.16c0-.03-.12-.08-.47-.16z"/><path d="M243.8 86c.4-.05.66-.38.6-.88-.04-.3-.38-.66-.78-.6-3.6.23-4.7-2.63-4.76-2.77-.2-.4-.57-.53-.95-.38-.4.15-.54.57-.4.95.57 1.45 2.48 3.94 6.28 3.7z" fill="#fff"/></svg>