<svg xmlns="http://www.w3.org/2000/svg" viewBox="0 0 480 480" xmlns:v="https://vecta.io/nano"><path d="M393.13 244.9l.01.1-.01-.1zm-276-109.4l.01.1c-.01-.06-.01-.08-.01-.1z"/><path d="M258.55 48.7c-3.5-4.6-12.1-.9-12.1-.9s-1.3-2.5-5.7-2.7c-1.8 0-3.9.3-6.1.4s-4.4-.2-7.1 1.1c-5.5 2.6-4.8 7.6-4.8 7.6s-1.6-.1-3.2 1.1c-1.6 1.3-3.4 3.3-2.3 6.7.7 2 2.56 10.3 2.56 10.3s.5-.66 1.36-1.33l.1.54c-1 1.04-1.6 2.48-1.6 4.1 0 3.15 2.37 5.7 5.3 5.7.37 0 .72-.05 1.07-.13l-6.87 22.43-2.2 5.7s3.2 4.1 10.8 5.7c5.2 1.1 8.7 1.2 11 1 1.9-.2 4.2-.6 3-4.1-1.7-5.2-1.1-8.5-1.1-8.5l2.4-13.1c1.63.3 3.14.35 4.3-.01 3.2-1 5.9-4.4 6.9-10.1.5-3.3.8-9.2.8-13.4 0-1.1-.1-3.4-.3-5.4-.1-.64-.2-1.25-.32-1.84 4.3-1.87 7.3-6.74 4.1-10.87zm-30.2 31.3c.01.03.02.06.02.1l-.08-.05c.02-.01.04-.02.06-.04z" fill="#fff"/><path d="M232.3 77.83c-.17.05-.34.07-.5.07.01.01.15.05.5-.07zm-8.63-9.23h.02l.1-.03-.12.03zm-1.95 2.5l-.1-.47a8.73 8.73 0 0 0-.88.69l.14.65a5.25 5.25 0 0 1 .83-.87zm3.56 1.5c-1.6 0-2.9 1.35-2.9 3s1.3 3 2.9 3 2.9-1.35 2.9-3-1.3-3-2.9-3zm0 5c-1.05 0-1.9-.9-1.9-2s.85-2 1.9-2 1.9.9 1.9 2-.86 2-1.9 2zm18.08-10.68c.4 0 .8-.3.8-.9 0-1-.7-1.2-1.1-1.2-3.6-.3-5.2 2-5.3 2.1-.3.4-.27 1.2.3 1.66.44.36 1.13.17 1.4-.06.1-.1 1.2-1.8 3.9-1.6zm10.5-2.2c-1.42-.98-3.2-.44-3.3-.4-.42.17-.86.57-.57 1.38a1.01 1.01 0 0 0 .97.56c.1-.01 1.2-.18 2.1.2.46.2.9-.1 1.02-.33.38-.7.08-1.2-.22-1.4z"/><circle cx="242.41" cy="71.92" r="1.4"/><circle cx="252.42" cy="71.12" r="1.4"/><path d="M248.4 72.32c-.4.1-.6.5-.4.9.5 1.3 1.4 3.8 1.3 4.7s-.85 1-1.2 1.1c-.45.12-.75.45-.65.9.12.58.65.63.95.6.8-.1 2.2-.9 2.3-2.4.1-1.6-1.2-5-1.4-5.4-.1-.4-.5-.6-.9-.4zm-2.73 11c-3.6.14-4.63-2.75-4.7-2.9-.18-.4-.55-.54-.94-.4s-.55.55-.4.94c.54 1.46 2.38 4 6.2 3.84.4-.04.67-.36.62-.86-.04-.3-.38-.67-.77-.63zm-23.7-32h0l-.03-.16z"/><path d="M260.28 50.9c-.15-.7-.46-1.3-.65-1.63l.06-.1-.55-.8c-.2-.26-.45-.5-.67-.74l.5.56c-.2-.01-.4-.3-.73-.73-.38-.35-.9-.84-1.6-1.03-1.26-.58-2.65-.14-3.9-.24-.6.14.53-.22-.38-.1-.04-.14.43-.1.18-.2-.9.1-1.52-.03-2.6.27l-.07-.1c-.6.2-1.2.35-1.73.48l-.78.2-.33.1-.15.06a.94.94 0 0 0-.18.12c-.02.01-.04.03-.05 0l-.15-.2-.06-.1-.12-.18-.2-.3c-.16-.2-.4-.44-1.05-.72-.16-.16-.34-.3-.52-.44-.66-.3-.54-.06-1.27-.36.08-.1-.95-.3-.48-.3-.85-.26-1.82-.34-2.77-.24l-2.98.16c-.45.22-1.53.2-1.86.35-.07-.06-2.12.06-.94-.14.1-.02.28-.02.27.01l.14-.1c-1.17-.15-2.2.1-3.5.2.4 0 .9-.03.56.06l-1.2.1.24-.12c-.6.05-1.2.15-1.8.3l.27.04c-.87.2-1.27.1-2.12.7-.37.28.82-.23 0 .2l-.9.4-1 .6c-.65.47-1.32 1.03-1.8 1.67.2-.03-.1.28-.3.67l-.12.01c-.38.76-.44.9-.6 1-.12.1-.26.23-.46 1.06l.07.33c-.05.65-.1.88-.17 1.07-.03.1-.06.18-.08.3l-.01.1c0 .02.01.04.02.07l.1.17c-.02-.13.16-.03.2.2-.03 0-.08.01-.14 0 0-.03 0-.07-.01-.1-.07.01-.1.04-.15.06a.39.39 0 0 1-.13.02c.05-.04.05-.08.01-.1-.03-.01-.01-.03-.12-.01-.1.02-.24.04-.4.1.13-.1.27-.16.42-.24-.42.16-.8.35-1.18.58-.47.14-1.04.48-1.48.84l-.93.76s-.38.35-.73.83c-.36.47-.65 1.08-.66 1.34.07-.45-.42.66-.4.3-.04.3-.16.86-.18 1.44-.04.58 0 1.15-.02 1.5l-.03-.12c.03.6.18 1.18.34 1.65l.4 1.22c.26.8.5 1.6.65 2.54.1-.1.27.86.37.6.3.92.43 1.8.56 2.52.06.36.13.68.22.94l.18.47c.07.17.15.3.24.4.32 1.27.27 1.7.42 2.5l-.1-.3.13.53c.02.04.03.05.05.08a6.77 6.77 0 0 0-.23 1.7c0 3.42 2.6 6.2 5.8 6.2.12 0 .24-.02.36-.03l-6.63 21.65-2.3 5.96.17.22c.14.17 3.4 4.26 11.1 5.88 3.44.73 6.48 1.1 9.08 1.1a22.56 22.56 0 0 0 2.07-.09c1.28-.13 2.7-.37 3.4-1.45.5-.8.52-1.88.03-3.3-1.63-5-1.1-8.22-1.08-8.25l2.32-12.6c.68.1 1.35.18 1.96.18.76 0 1.46-.1 2.08-.28 3.63-1.14 6.27-4.96 7.25-10.5.52-3.45.8-9.52.8-13.47 0-1.18-.1-3.5-.3-5.47-.05-.37-.13-.72-.2-1.08 1.1-.53 2.32-1.35 3.25-2.35.95-1 1.54-2.15 1.74-2.93l-.01.1c.17-.9.4-1.12.43-2.15.02-.05.03-.13.04-.1-.05-.52-.1-1.25-.26-1.93zm-20.1 52.4c-.03.14-.6 3.5 1.12 8.75.38 1.1.4 1.93.07 2.45-.45.7-1.6.88-2.64 1-2.9.25-6.55-.08-10.85-1-6.34-1.33-9.56-4.47-10.33-5.3l2.1-5.45 6.78-22.16c.58-.16 1.13-.4 1.63-.75.08.3.16.6.22.88.53 2.22 2.42 4.1 5.96 5.93 2.5 1.3 5.52 2.5 8.25 3.06l-2.3 12.6zm13.6-23.2c-.9 5.15-3.3 8.7-6.56 9.7-3 .94-8.62-1.07-12.52-3.07-3.2-1.66-5-3.38-5.44-5.27a24.44 24.44 0 0 0-.35-1.35l-.24-1.26c-.88 1.16-2.2 1.92-3.7 1.92-2.65 0-4.8-2.33-4.8-5.2s2.15-5.27 4.8-5.2c1.97.05 2.87.33 4.1 1.63l.5.17a.7.7 0 0 1 .08.1 12.01 12.01 0 0 1 .11.49c.48.86.77 1.86.77 2.94a5.81 5.81 0 0 1-.2 1.52c.01.04.02.08.04.12a.85.85 0 0 0 .26.33c.17.12.32.18.48.24.18.01.36 0 .52-.03h.15c-.01-.04.53-.2.8-.42.16-.06.2-.01.3-.05.08-.05.35-.17.54-.8.18-.5.14-.92.16-1.43l-.01-1.48c-.05.47-.1.32-.12.1.03-.42.15-.66.12-1l.14-.04c-.14.16-.06-1.12-.1-1.27.12-.24.04.66.1.77l.08-1.28c.01-.1.01-.22.02-.4-.02-.22-.03-.38.03-.75.06-.8-.16.12-.2-.28.14-.73.36-1.48.84-2.24l-.24.2 1.37-3.15c.5-2.8.24-4.35.1-5.08-.04-.15-.07-.26-.1-.35l.55-.15c.2.25 1.65.92 5.3 1.9l-.1.02c2.2.44 3.6.6 5.16.5.23.27 1.85.1 2.38.15h-.05c1.36-.22 2.9-.02 4.2-.58-.05.03-.05.1-.36.2.46-.13.98-.32 1.42-.48.05.3.12.6.16.9.2 1.93.3 4.2.3 5.35.02 3.9-.26 9.9-.78 13.3z"/></svg>