<svg xmlns="http://www.w3.org/2000/svg" viewBox="0 0 480 480" xmlns:v="https://vecta.io/nano"><path d="M393.13 244.9l.01.1-.01-.1zm-276-109.4l.01.1c-.01-.06-.01-.08-.01-.1z"/><path d="M259.18 51.86c-1.3-4.9-5.1-4.6-5.1-4.6s-.2-2.5-3.1-3.4c-3-1-5 1.3-5 1.3s-.6-3.3-4.3-3.5c-4.1-.2-4.8 2.9-4.8 2.9s-2-3.5-5.8-2.6-3.5 5.1-3.5 5.1-2.5-2.1-4.9-.2c-2.8 2.2-1.2 5.6-1.2 5.6s-2.7-1.2-4.3 1.3.1 5.1.1 5.1-2.5.4-2.6 3.4c-.1 3.5 2.8 4 2.8 4s-1.7 2.8-.7 4.7c1 2 2.9 2.28 2.9 2.28.38-.96.84-1.7 1.38-2.26l.1.53c-1 1.04-1.6 2.48-1.6 4.1 0 3.15 2.37 5.7 5.3 5.7.37 0 .72-.05 1.07-.13l-6.87 22.43-2.2 5.7s3.2 4.1 10.8 5.7c5.2 1.1 8.7 1.2 11 1 1.9-.2 4.2-.6 3-4.1-1.7-5.2-1.1-8.5-1.1-8.5l2.4-13.1c1.63.3 3.14.35 4.3-.01 3.2-1 5.9-4.4 6.9-10.1.5-3.3.8-9.2.8-13.4 0-1.1-.1-3.4-.3-5.4-.04-.3-.1-.58-.14-.87l.47.93c0 0 5.9-3.5 4.2-9.6zm-30.95 28.12c.01.03.02.06.02.1l-.08-.05c.02-.01.04-.02.06-.04z" fill="#fff"/><path d="M215.86 56.26a3.32 3.32 0 0 1 .06-.44c-.02.01-.07.12-.06.44zm21.22 5.24l.03.06c-.02-.04-.03-.05-.03-.06zm-12.9-14.23l-.07.03.07-.03zm.97 25.33c-1.6 0-2.9 1.35-2.9 3s1.3 3 2.9 3 2.9-1.35 2.9-3-1.3-3-2.9-3zm0 5c-1.05 0-1.9-.9-1.9-2s.85-2 1.9-2 1.9.9 1.9 2-.85 2-1.9 2zm14.25-9.28c.12-.13 1.2-1.8 3.9-1.6.4 0 .8-.3.8-.7s-.3-.8-.7-.8c-3.6-.3-5.2 2.1-5.3 2.2-.2.3-.18.75.15 1 .5.4.9.17 1.15-.1zm11-3.6a.73.73 0 0 0-.52.9c.1.4.5.54.9.5.15-.02 1.24-.35 2.1.14.14.08.3.16.4.16.2 0 .5-.1.6-.3a.78.78 0 0 0-.2-1c-1.4-1-3.12-.44-3.28-.4z"/><circle cx="242.29" cy="71.92" r="1.4"/><circle cx="252.29" cy="71.12" r="1.4"/><path d="M248.3 72.32c-.4.1-.6.5-.4.9.5 1.3 1.4 3.8 1.3 4.7s-.85 1-1.2 1.1c-.45.12-.75.45-.65.9.12.58.65.63.95.6.8-.1 2.2-.9 2.3-2.4.1-1.6-1.2-5-1.4-5.4-.1-.4-.5-.6-.9-.4zm-4 10.4c-3.6-.2-4.35-3.17-4.4-3.3-.14-.42-.5-.6-.9-.5s-.6.5-.5.9c.4 1.5 2 4.2 5.8 4.4.4 0 .7-.3.7-.8 0-.3-.3-.7-.7-.7zm4.43-40.16h.02l.15-.1-.17.1z"/><path d="M260.47 53.45c.05-1.6-.6-2.74-1.32-4.1.22.42.46.97.23.63-.2-.42-.44-.85-.74-1.24l.25.2c-.38-.62-.92-1.18-1.53-1.63l.2.27c-.42-.35-.72-.6-1.07-.8-.35-.2-.75-.36-1.4-.4-.56-.02.98.35-.14.17-.02-.01-.04-.01-.07-.02-.05-.02-.1-.03-.15-.04 0-.06 0-.12-.01-.17l-.01-.06a1.36 1.36 0 0 0-.07-.22c-.05-.16-.12-.32-.2-.47a4.99 4.99 0 0 0-.56-.9 5 5 0 0 0-1.61-1.34c.1.2-.35-.07-.83-.2l-.02-.12-1.32-.36a.86.86 0 0 0-.38-.11c-.2-.03-.5-.04-1 .05l-.35.22-1.27.44c-.2.04-.63.23-.6.3l-.07.13c.15-.13.1.2-.18.4l.1-.22a.55.55 0 0 0-.07.09c-.03-.06-.06-.1-.08-.2.06.03.1-.1.05-.22-.01-.02-.01-.03-.03-.06.04.02.05.01.08 0 .02 0 .04-.01.06-.02h-.04c-.03 0-.1-.05-.14-.1l-.4-.46c-.3-.5-.87-1.02-1.45-1.35-.6-.32-1.13-.5-1.34-.62l-.38-.1c-.23-.05-.55-.08-.9-.12-.65-.02-1.4.07-1.65.2.47-.2-.87.04-.52-.15-.3.13-.9.38-1.48.76-.3.18-.55.4-.78.6l-.32.3-.13.13c-.04.04-.02 0-.04.01.01-.02-.01 0 0-.03l-.05.04c-.03.03-.05.05-.06.1-.02-.01-.05-.04-.08-.06.13.14-.6-.53-1.16-.84-.58-.36-1.25-.65-2-.85.1.1-1.22-.1-.9.1-1.27.03-2.38.28-3.26.76-.87.48-1.4 1.16-1.4 1.67-.55.98-.68 1.16-.88 1.7.01-.1.03-.18.05-.27-.12.47-.1.43-.1.55-.01.1-.01.17-.01.23v.18l-.04-.03-.17-.1-.18-.1c-.07-.03-.08-.04-.4-.14-.4-.1-.65-.05-.96-.02-.32.04-.7.06-1.4.2.43-.2-.16-.07-.64.17.3-.16.4-.25-.28.02l-.3.27c-.01 0-.04.01-.03-.01-.7.56-.52.5-.22.24-.01.02.03.02.15-.03-.4.22-.86.66-1.17 1.1-.32.44-.48.86-.6.88-.23.6-.32 1.18-.32 1.72l.06.8c.03.2.05.24.1.38.05.18.17.42.23.6a1.91 1.91 0 0 0-.57-.08h-.25l-.44.04c-.13-.02-.06-.08.1-.12a2.44 2.44 0 0 1 .31-.06c.06-.01.12-.02.2-.02a4.09 4.09 0 0 0-1.28.19c-.01-.05.2-.16.5-.2.3-.06.66-.05.68-.06-.06-.01-.06-.03-.17-.03h-.35c-.25.02-.5.07-.75.16-.5.17-.96.46-1.34.83-.73.77-1.2 1.7-1.5 2.77l.03.46-.02.13c.04 0 .1.48.15.78-.05.3-.3.01-.03 1.05.01.12.05.25.1.4.02.06.03.1.06.16.03.08.12.2.16.28a1.34 1.34 0 0 0-.26.14l-.24.18c-.14.1-.26.2-.37.3.5-.37.38-.2.2-.01-.4.34-.7.54-.9.93l-.15-.03c.1-.06-.06.27-.18.66s-.18.84-.17.94c-.17.28.07-.83.1-.98-.34 1.07-.25 1.34-.3 1.6.03.26-.06.53.18 1.6.45 1.07.05-.23.33.25a4.17 4.17 0 0 0 .78 1.25c.17.18.36.35.57.5s.44.32.57.4l-.15-.22c.1.05.17.08.26.12.2.08.42.15.62.2.1-.01-.01.08-.01.12l-.07.15-.14.3-.4.9-.32.96c-.08.82.05 1.57.38 2.12.3.55.7.94 1.06 1.22.7.5 1.27.65 1.65.7-.07.3-.05.46.08.38.03-.01.06-.05.1-.1-.32.77-.5 1.63-.5 2.53 0 3.42 2.6 6.2 5.8 6.2.12 0 .24-.02.36-.03l-6.63 21.65-2.3 5.96.17.22c.14.17 3.4 4.26 11.1 5.88 3.44.73 6.48 1.1 9.08 1.1a22.56 22.56 0 0 0 2.07-.09c1.28-.13 2.7-.37 3.4-1.45.5-.8.52-1.88.03-3.3-1.63-5-1.1-8.22-1.08-8.25l2.32-12.6c.68.1 1.35.18 1.96.18.76 0 1.46-.1 2.08-.28 3.63-1.13 6.27-4.96 7.24-10.5.52-3.46.8-9.52.8-13.47 0-1-.08-2.8-.22-4.52.35-.2.75-.44.35-.1.32-.2.66-.4 1-.68l.4-.33.28-.27c.37-.36.7-.76 1.04-1.2.65-.88 1.26-1.9 1.78-3.17a18.78 18.78 0 0 1 .17-1.25c.05-.46.05-.92 0-1.14.06-.04 0-.7-.01-1.2-.07-.47-.1-.75.13-.02.02.13.04.36.01.35l.15.16zm-20.4 49.85c-.03.14-.6 3.5 1.12 8.75.38 1.1.4 1.93.07 2.45-.45.7-1.6.88-2.64 1-2.9.25-6.55-.08-10.85-1-6.34-1.33-9.56-4.47-10.33-5.3l2.1-5.45 6.78-22.16c.58-.16 1.13-.4 1.63-.75.08.3.16.6.22.88.53 2.22 2.42 4.1 5.96 5.93 2.5 1.3 5.52 2.5 8.25 3.06l-2.3 12.6zm13.6-23.2c-.9 5.15-3.3 8.7-6.56 9.7-3 .94-8.62-1.07-12.52-3.07-3.2-1.66-5-3.38-5.44-5.27a24.44 24.44 0 0 0-.35-1.35l-.25-1.25c-.88 1.16-2.2 1.92-3.7 1.92-2.65 0-4.8-2.33-4.8-5.2s2.15-5.2 4.8-5.2c1.67 0 3.14.93 4 2.33l.03-.02c.13.16.3.34.5.53.24.23.63.46 1.02.55a2.62 2.62 0 0 0 .93.01l-.07.04c.54-.15.9-.4 1.3-.63.38-.25.8-.6 1.06-1 .56-.82.73-1.76.65-2.56.02.06.1.1.08.48.07-1.23-.3-2.72-.2-2.84a12.24 12.24 0 0 0-.18-.71l-.06-.2-.05-.15c-.01-.05-.07-.13.01-.08.08.03.17.04.26.03.02 0 .1-.02.13-.02l.38-.12a5.08 5.08 0 0 0 .7-.35 4.33 4.33 0 0 0 1.01-.93c.55-.68.78-1.44.83-2l.01.14c.01-.15.02-.27.02-.4v-.25c0-.08-.01-.15-.01-.23-.01-.15-.01-.27-.14-.56.01 0 .01-.01.02.01l-.05-.08c.01-.05.3.14.52.23l.3.12c.1.03.42.1.6.14a3.49 3.49 0 0 0 1.11.02l.07.1c.8-.1 1.55-.47 2.14-.9-.23.17-.48.3-.73.43.06-.2.45-.34.95-.68.5-.33 1.1-.88 1.4-1.65.16-.27.16-.33.2-.46.03-.15.04-.34.05-.57.1-.02.25.04.43.07.1.03.23.05.33.08.16.04.3.1.45.13.3.1.6.18.9.3.7.04-.65.05.4.2 0 .15-.5-.03-.26.14 1.02.17 1.68.46 3 .32l.06.1c.73-.13 1.4-.25 2.05-.4.32-.08.62-.16.9-.27.13-.04.3-.13.38-.16.05-.03.1-.05.15-.1.06-.05.13-.1.2-.17a.55.55 0 0 1 .09-.07c.1.03.13.22.16.3.05.18 0 .23.04.4.08.23.22.53.57 1.06l.08.33.05.17.1.27c.23.47.36.68.47.8.18 1.9.28 4.03.28 5.14-.01 3.9-.3 9.9-.8 13.3z"/></svg>