<svg xmlns="http://www.w3.org/2000/svg" viewBox="0 0 480 480" xmlns:v="https://vecta.io/nano"><path d="M242.9 392.4l1.5 22.2c.4 4.8.7 6.8-1 13.1-1.7 6.4-1 7.4 0 9.2s2 3.2 11.1 3.5 58.3 1 58.3 1 3-4.2.4-5.9c-2.5-1.7-32.3-15.1-36-17.4-2.9-1.8-3.2-21.8-3.2-21.8l-31.1-3.9z" fill="#eb9c79"/><linearGradient id="A" gradientUnits="userSpaceOnUse" x1="293.653" y1="421.328" x2="291.394" y2="440.44"><stop offset=".233" stop-color="#575d92"/><stop offset=".995" stop-color="#313879"/></linearGradient><path d="M266.1 443l11.1-22c1.9-3.3 3.6-2.8 8-.8s25.7 10.8 27.9 11.9c2.2 1.2 3.8 3.1 3.6 5.6s-1.2 5-1.2 5l-49.4.3z" fill="url(#A)"/><g fill="#adb7c1"><path d="M316.5 438.7l-43.3-10 .8-1.8 42.9 10.1z"/><path d="M278.28 443.235l9.3-21.795 1.563.668-9.3 21.795zm12.952.585l7.03-17.974 1.583.62-7.03 17.974zm9.708-.27l4.587-14.072 1.616.527-4.587 14.072z"/></g><path d="M242.8 440.5l72.9 1s1.2-.2 1.1 2.9c-.1 2.3-1.8 2.4-1.8 2.4l-73-.1c-.1.2-1.5-.5-1.3-3.3.2-2.3 2.1-2.9 2.1-2.9z" fill="#441b18"/><linearGradient id="B" gradientUnits="userSpaceOnUse" x1="260.521" y1="421.576" x2="259.407" y2="407.872"><stop offset="0" stop-color="#cc7a5e" stop-opacity="0"/><stop offset="1" stop-color="#aa5f4b"/></linearGradient><path d="M244 411.2l.8 7.2c.1 1.6-.4 5.7-.4 5.7l32.2-6-.9-2.4-.8-7.7-30.9 3.2z" fill="url(#B)"/><g fill="#a05a3c"><path d="M247.8 414.2l-.9-.8 1.3-.5zm-2.2 5.6l-.6.5-.3-.9zm12.4 1.7l-.9.1.4-1zm-2.6-9.9l-.1.8-.8-.5zm-7.3 5.7l.8.4-.8.5zm16.6 4.9h-.8l.3-.8zm-2.2-8.5l-.1.7-.7-.4zm-6.2 4.9l.6.3-.6.4zm-8.2 3.2l-.6.7-.5-.8zm-4.9 6.6l.4-1.5 1.3 1zm6.1-7.9l-.9-.8 1.3-.6zm4.7 2.7l-1.1.7-.2-1.3zm-7.5-3.2l1.1-.9.5 1.5zm4.2 2.1l-.2-1.2 1.4.4zm7.6-8.7l-1.2.3.3-1.3zm13.5-3.3l-.5 1.2-.8-1.1zm-11.6 1.7l1 .8-1.3.6zm-16.4 14.8l.3-1.2 1.2.8zm5.3-11.6l-1 .6-.2-1.3z"/><path d="M248.1 414.8l-1 .7-.2-1.3zm-3 8.9l-.5-1.1h1.4zm6.8-9.9l-1.2.3.4-1.3zm-7.2 8.4v-1.4l1.5.8zm10.4-1.4l-1.3.3.3-1.3zm-8.7-5.9l-1.2.3.3-1.3zm1.1-2.7l-1 2.2-1.9-2.1zm6.7 1.9l-.9-2.5 2.6-.3zm2.4-.5l-1.3-1.3 1.7-.9zm-4 .2l-1.3-1.3 1.7-.9zm-7.3-.1l-.6.5-.3-.8zm12.8 2l-1 .1.4-.9zm8.4-4.2l-1 .1.3-1zm-7.7 2.4l-.2.8-.7-.5zm1.8 1.6l-.1.8-.8-.5zm-12.5-3.5l2.7-.3-1.2 2.9z"/><path d="M248.1 416l-.6.8-.5-.9zm14.2-3.9l-.2.9-.8-.6zm-10.6 3.2l.7.4-.7.5zm.3 1.1l.6-.5.3.8zm-5.5 8.7l.8-1.3 1 1.3zm6.5 1.2l-.7-.6 1-.5zm2-7.5l-1 .6-.3-1.3zm-3.4-5.9l-1.1.6-.2-1.3zm2.7 1l-1.1.7-.2-1.3zm-8.6 4.3l1.2-.9.4 1.5zm3.3 8.4l-.6-1.1h1.4zm7.4-10.2l-1.2.2.3-1.3zm5.6-4.5l-1.2.3.4-1.3zm6.1 0l-.9-.7 1.3-.6zm-16.8 12l-1.1.7-.1-1.3zm-6.5-7.3l-.3-1.8 1.9.6z"/><path d="M246.1 418l-.5-1.1h1.4zm14.2-7.1l-1.1 2.9-2.4-2.5zm3.7-.2l-.6 1.4-1.1-1.1zm1.4 2l-.3.8-.7-.7zm-20.6 6.5l-.1-1.4 1.6.6zm10.5-3.3l-1.2.4.3-1.4zm-4.7-1.3v2.8l-3-1.2z"/></g><path d="M172 392.1l-5.1 22.2c-1.5 5.8-3.5 9.3-4.8 13.5-1.9 6.3-1 7.4 0 9.2s2 3.2 11.1 3.5c9.2.3 58.3 1 58.3 1s3-4.2.4-5.9c-2.5-1.7-29.7-14.1-33.4-16.4-2.9-1.8 4-22.8 4-22.8l-30.5-4.3z" fill="#eb9c79"/><linearGradient id="C" gradientUnits="userSpaceOnUse" x1="212.452" y1="421.331" x2="210.194" y2="440.442"><stop offset=".233" stop-color="#575d92"/><stop offset=".995" stop-color="#313879"/></linearGradient><path d="M184.9 443l11.1-22c2-3.3 3.6-2.8 8-.8s25.7 10.8 27.9 11.9c2.2 1.2 3.8 3.1 3.6 5.6s-1.2 5-1.2 5l-49.4.3z" fill="url(#C)"/><g fill="#adb7c1"><path d="M235.3 438.7l-43.3-10 .8-1.8 42.8 10.1z"/><path d="M197.067 443.213l9.3-21.795 1.563.668-9.3 21.795zm12.94.595l7.03-17.974 1.583.62-7.03 17.974zm9.684-.18l4.587-14.072 1.616.527-4.587 14.072z"/></g><path d="M161.6 440.5l72.9 1s1.2-.2 1.1 2.9c-.1 2.3-1.8 2.4-1.8 2.4l-73-.2c-.1.2-1.5-.5-1.3-3.3.2-2.2 2.1-2.8 2.1-2.8z" fill="#441b18"/><linearGradient id="D" gradientUnits="userSpaceOnUse" x1="181.989" y1="420.315" x2="184.516" y2="406.718"><stop offset="0" stop-color="#cc7a5e" stop-opacity="0"/><stop offset="1" stop-color="#aa5f4b"/></linearGradient><path d="M168.9 405.8l-1.6 7.4c-.3 1.6-1.5 5.1-1.5 5.1l32.6 2.7s-.6-2.3-.7-4.6c-.1-1.4 1-5.6 1-5.6l-29.8-5z" fill="url(#D)"/><g fill="#a05a3c"><path d="M171.8 409.3l-.7-1 1.4-.2zm-3.9 4.8l-.7.3v-.8zm11.1 4.7l-.9-.1.6-.8zm.1-10.2l-.3.7-.6-.7zm-8.5 3.6l.6.5-.8.4zm15.4 9.2l-.8-.1.5-.8zm.1-8.7l-.3.5-.5-.5zm-7.3 3l.5.5-.7.3zm-9.4.8l-.8.6-.3-1zm-5.1 5.5l.8-1.3 1 1.3zm6.6-6.5l-.7-.9 1.4-.2zm4.5 4.1l-1.2.3.1-1.3zm-7.1-5.2l1.3-.6.1 1.6zm4.3 3.2l.1-1.1 1.1.7zm9.5-6.3l-1.2-.1.7-1.2zm13.9.4l-.7.9-.6-1.3z"/><path d="M184.4 410.1l.7 1.1-1.3.2zm-19.1 9.8l.6-1.2.9 1.2zm7.6-9.6l-1.2.4.1-1.4z"/><path d="M172 409.9l-1.2.4.1-1.3zm-5.5 8l-.2-1.3 1.4.4zm9-8.1l-1.3-.1.7-1.2zm-9 6.4l.4-1.3 1.3 1.1zm10.6 1.3h-1.3l.6-1.2zm-6.8-7.9H169l.6-1.3zm1.6-2.3l-1.5 1.8-1.4-2.5zm6.1 3.5l-.2-2.6 2.6.4zm2.4.2l-.8-1.6 1.8-.4zm-3.9-.9l-.8-1.6 1.8-.4zm-7-2l-.7.3v-.9zm11.8 5.3l-1-.1.6-.9zm9.2-1.9l-1-.1.7-.9zm-8.1.3l-.3.7-.6-.6zm1.4 2l-.3.8-.6-.7zm-11.2-6.5l2.7.4-1.9 2.4z"/><path d="M171.6 411.1l-.7.5-.3-.9zm14.8 0l-.5.7-.6-.8zm-11.1.3l.6.5-.9.3zm0 1.1l.7-.4.1.9zm-7.6 6.9l1.1-1 .6 1.5zm5.9 2.9l-.5-.8 1.1-.2zm4-6.8l-1.2.4.1-1.3zm-1.8-6.5l-1.2.3.1-1.3zm2.4 1.7l-1.3.3.2-1.3zm-10.2 1.7l1.4-.6v1.6zm1.6 9.1l-.2-1.2 1.4.4zm9.9-7.9l-1.2-.1.6-1.1zm6.6-2.8l-1.2-.1.6-1.2zm5.9 1.6l-.7-1 1.4-.1zm-19.4 7.2l-1.2.3.2-1.3zm-4.5-8.7l.1-1.8 1.8 1z"/><path d="M168.4 412.3l-.2-1.2 1.4.4zm16.4-3l-1.9 2.5-1.6-3zm3.5.8l-.9 1.3-.7-1.5zm.9 2.3l-.5.8-.5-.9zm-21.9.9l.3-1.4 1.4 1.1zm11.3-.4h-1.3l.6-1.2zm-4.2-2.5l-.8 2.7-2.5-2z"/></g><path d="M274.8 290.8c-1.2-39.4-4.5-74.4-5.6-84.6h-56.9l21.1 203.7c.2 1.8 1.8 3.1 3.6 3l37.5-3.4c2-.2 3.6-1.9 3.5-4l-1.5-61.9-1.7-52.8z" fill="#494f83"/><path d="M194 206.2c-1.2 7-3.3 23.3-6.1 43.4-1.8 12.8-5 48.3-6 55.5-1.6 12-14.5 77.3-18.1 95.5-.5 2.6 1.2 5.1 3.8 5.5l34.7 6.3c2.2.4 4.3-.9 5-3l26.6-85.4c4.8-16.4 26.6-99.1 26.6-99.1s4.7-3.1 4.8-6.1l.5-12.5-71.8-.1z" fill="#575d92"/><path d="M244.3 412.4c-.1-.6-7-63.4-10.8-87.1l1.3-.2c3.9 23.7 10.8 86.6 10.8 87.2l-1.3.1z" fill="#7780b7"/><linearGradient id="E" gradientUnits="userSpaceOnUse" x1="203.248" y1="342.924" x2="231.837" y2="362.361"><stop offset=".139" stop-color="#38315f" stop-opacity="0"/><stop offset=".995" stop-color="#38315f"/></linearGradient><path d="M206.9 409.4l16.1-50.5 3.7-12.9 16.8-62.5s-23.8 40.1-34.6 55.5l-41.8 60.4c-1.9 2.8-.3 6.7 3 7.3l31.7 5.8c2.4.4 4.5-1 5.1-3.1z" fill="url(#E)"/><g fill="#848dd3"><path d="M180.2 382.9l.8-.9-1-.4zm-3.9 3.8l1.7.3-.8-1.5zm-4.8 6.6l1.7.2-.8-1.5zm-3.2 3.9l1.7.2-.8-1.5zm4.6-32.6l1.3-.5-1.5-1.6-.3 1.7-1.1-.8-.3 1.7zm-1.6 3.9l1.1-.2.5.7.3-.9h.1l-.1-.1.3-1 .6 2.5 1.8-2.5-2.3-.5.1-.6-1.9.4-.9-1-.3 2.3 1-.3zm7.6-6l-1 1.4 2 .5zm-3.9 11.1l-1.1-1.7-1 1.4zm-4.2.4l.6 1.7 1.4-1.7zm2.4-3.9l.6 1.7 1.4-1.7zm.4 5.9l-1 1.4 2 .4zm-6.7 13.7l1.6.2-.8-1.5 1.4-.8-1.1-.9 1.9-.3-1.2-1.1.5-.1-1.1-.9 1.7-1.1-.5-.4.3-.7.9.5-.2-1.4-.4.3-.1-1.1-.9.4.9.7h-1.4l.5 1-1.2-.9-.5 3.2.7-.4-.3 1.2.6-.2-.3 1.2-.9-.6-.4 3.2 1.1-.7zm11.6-34.3l1 1.9.9-1.8zm2.1-11.3l1.1 1.9.7-1.9zm-.1 23.4l.8-1.8h-1.8zm-2.5 2l1 1.9.8-1.9z"/><path d="M175 344l1.3 1.6.1.1.2-1.2.2-.8zm3.9-11.8l.6-1.6-1.5.1.2.2-.8-.5-.3 2.6 1.6-1.1zm5.1 3.7l-1.4.1.8 1.5zm-5.8-1.3l.6-1.7-1.4.1zm-7.5 50.6l.7-1.6h-1.5zm4.1-6.6l-1.1 1.4 2.1.4zm10.4 8.5l.4-.9-.9.3zm-12.3-8.8l-.6.8-.4.1.1.2h.1l.4.6.1-.5h.7zm-1.5 3.3l.3-1.2-1 .2zm.4 4.9l-.2 1 1.2-.4zm6.1-20.9l1-.9-1.1-.6zm-.1-14.3l.1 1.4 1-.9zm-1.4 16.6l1-1-1.2-.5zm-3.3 2.2l-.6-1-.2.3-1.8-1.5-.6 3.1 2-1zm8.3 2.5l.7.8.4-1.1zm-5.4-12.5l.1-1.2-1.4.6zm-2.9-5.5l-.6 2.1 2-.7zm1.2 8.3l1.3 1.2-.9.3.7.8.4-.9v.1-.2l.1-.1.2-1.9zm2.7-3.9l.3-2.2-1.8.7zm-2.3 17.8l.4-2.2-1.8.7zm-3.7 10.4l.4-2.1-1.8.6zm13.8-39.3l1.2-.2-.9-.8zm-4.6.9l-1.1.5 1.1.5zm-4.4-7.5l.9-.3 1.2 1.9.6-2.9 1.2.4-.1-1.2-1.1.6-2.2.5.4.6-.7-.7 1.6-.8-.5-.4v-.9l2.5.4-.8-2.7-2 2-.7-.1.9 1.3-.9-.8-.4 2.2.2-.1z"/><path d="M176.6 336.5l.6-.6-.8-.4 1.6-.7-1.2-1-.4 1.7.1.9-.1-.1-.3 1.4 1.1-.7zm5.8 38.5l.1.7.5-.3zm-5.5-2.4l-.5.5.8.1zm-7.1 15.4l.6.6.3-.9zm4.9-2.1l-.6-.4.1.7zm22.3-22.8l.7-.3-.5-.5zm-4.5 4.6l-.5.4.7.4zm-11.2-7l1-.7-1.4-.7zm-2.4-8.4l-.8.9 1.2.1zm-4.8 9.5l.3-1.1-1.1.1zm9-30.6l1-.2-.7-1zm-2.8-1.5l1-.2-.8-.9zm-3.3 30.4l.7 1.9 1.2-1zm9.5-14.4l-1.1-.6.3 1.2zm-3 3.6l.3 1.1.1-.1.3.7-.3-.4-.4.6.8.1-.1-.2.8-.6-.9-.4.5-.3zm-4.5-23.8l1.7-1.1-.3-.2.6-.3-2.1-1.7-.5 3.2.6-.4zm4.1 1l-1.2 1.8 2-.2zm-3.3 7l-1.2 1.7h2zm-6.9 48.8l-1.2-.1.3.9zm5.3-7.2l-.7-1.1-.4 1.1zm-1.5 1.8l-1.4-.2.8 1.2zm-4.2 12.1l-1.2-.2.3 1.1zm5-8.4l-.5 1.1h1.1zm-7.7 10.1l1.2-1.6-1.6-.4zm.3-11.5l1.1.2-.6-1.2.4-1h-1.8l.7 1.3-.2.3-1.2-1.2-.8 3.2 2.8-1.3zm-3.1 21.7l-1.2-1 .5-.2-1.1-1 1.8-.8-.7-.6.4-.7.9.5-.2-1.4-.5.3h-1.4l.4.9-.9-.9-.8 3.1.8-.3-.3 1.3.6-.1-.2.7-.7-.7-.9 3.1 2.8-1.2-.7-.8zm.8-1.2l.7-1.6H167zm-1.1.5l1.4 1.5.4-2.2zm.8 2.9l.3-.9-.8.3zm3.8-2.4l.5-.3-.6-.4zm-2.6 3.7l.9-.9-1.2-.2zm5.5-8.2h1l-.6-1.1zm-3.8-20.8l-.2-.8-.4.3-.6-.6-.8 3.2 2.8-1.3z"/><path d="M171.7 372.7l.6.1-.7-1-.3.5-.6-.4 1-.3-.7-.8-.3 1-.8-.7-.7 3.2 2.7-1.4zm3.3-16.2l1 .6v-1.3l-1.2.6.1.1-2.5.4 1.8 2.6zm-1-4l-.2-.1v.1l-.6.1.5.7-.2.8.7-.1.1.2-.2.3.5.2.4.5.2-.4.9.1-.7-1.2.1-.1.3.5.3-1.3.7-.1-.5-.5.3-1.2-1.6.3-.6-.9.8-.2.2.3.1-.4.8-.2-.5-.4.1-.1 1-.3-1.4-1.5 1.2-.7-2.2-1.7-.4 3.3 1.3-.8-.2.9-.7-.1.2.4-.3 1.5-.5-.7-.5 2.6.9-.3.3.4zm0 9.3l-1.9-1.7 1.7-.6-1.4-1.4-.6 2.1h.1l-.6 2.9zm-7.9 27.8l-.7 3.1 2.7-1.3zm1.1 3l-1.9 1.9 2.8 1zm4.5 2.4l-1-3-.6.6-.7-1.3-.9 1.3 1.5.2-1.2 1.1zm5.6-44.8l1.8-2.5-2.6-.6zm1.5 27.9l.2-.8-.8.3.3.4-.6.8 1.2.1zm-.8 6.8l-.1 1 .9-.5zm1.6-42.9l-1.3.7 1.3.6zm-4.2-.7l-.6 2.2 2-.7zm5.7-1.3l-.7.3.1-.2-.8.2.2.2-.5.3 1.5 1.4zm3.2 3.1l-1.3-.6.4 1.4zm-4.4-6.5h1.2l-.5-1zm0-8.4l1.9.5-1.2-2.9-.4.5v-.8l-.9.4.9.5-1.1 1.2-.9-.8-.5 3.3 2.7-1.6zm-.9 55.6h1.2l-.4-1zm-6 .3l.1.3-1.4-.1.6 1.7 1.1-1.2.2.2.1-.5.1-.1h-.1l.1-.4zm5.9 6.7l1-.4-.9-.5zm-2.8-10.4l-.9.8 1.3.5zm3.7 7.1l-1.2.1.5.9zm3-8.1l1-.3-.9-1zm3.9-5.2l.8.6v-1zm1.1 5.7l.6-.5-.8-.2zm4.3-5.2l.7.1-.3-.8zm-7.7 9.3l-.2 1 .9-.4zm7.2-70.9l.2 1.2.8-.9zm-.9 4.8l.3-.1-.8-.5v-.1l-.9 1.3 1.8.1zm-7.3 7.1l-1.1 1.2 3 .9-1.2-2.9-.5.6-.9-1.2-.7 1.3zm2.4-.9l-.8 1.3 1.7.1zm-2.6-28.8l-.3 1.8 2-.6-.3-.3 1.2-.4-1.5-1.4 1.4-.8-.2-.2.2-1.1-.9.2.5.8-1.7-1.4-.5 3.2 1-.6-.1 1.4zm8.3.4l-1.1-1.8-1 1.5zm-5.4 8l-.9 1.5 2.1.2zm-2.2 4l1.3-1.7-2 .1zm1.9-4.3l1.3-1.7-2 .1zm.3 4.4l-.9 1.6 2.1.2zm-4.7 14.6l-.9-1.5-.8 1.3zm8.2-35.6l1.1 1.9.8-1.9zm3.1-11.6l-1.8.1 1 1.8zm-1 23.8l.7-1.9h-1.8zm.1 2.2l.2.2v-1l-.8.4.3.3H190l1.2 1.8zm-5.5-24.1h.1l.2-1.1h-.1l.2-.9-1.8.4zm1.9-13.2l.4-1.7-1.4.2.1.2-.8-.4v2.6l1.4-1.2zm4.9 4.9l.6-1.6-1.5.1z"/><path d="M188.2 264.5l-1.5.1.9 1.5zm-4.6 52.9l.6-1.7-1.5.2zm3.7-6.9l-1 1.5 2.1.2zm9.5 8l.3-1-.9.4zm-12-7.4l-.1.1-.2.4.5-.1.3.5.1-.5h.5l-.6-1.1zm-.8 2.6l.3-1.2-1 .2zm.8 4.9l-.1 1 1.1-.5zm5.7-22.6l-1.2-.5.2 1.5zm-1.6-11.8l1-1-1.3-.4zm-.8 15.2l1-1.1-1.2-.4zm5.8 4.3l-1.2.3.8.8zm-7.8-12.6l1.3.6-.1-1.3zm-2.5-1.2l-.4 2.1 1.9-.9zm.5-3.5l-.4 2.1 1.9-.9zm1.7 8.1l1.4 1.2-.9.3.7.8.4-.9v-.2l.2-2zm2.7-6.2l-1.7.8 1.6 1.4zm-1 18.1l-1.8.8 1.6 1.4zm-3.4 13l.2-2.2-1.8.7zm11.3-41.4l-.3 1 1.2-.3zm-4.4 3.2l-.1-1.1-1 .6zm-5.4-8.4l1-.3 1.2 1.9.5-3 1.1.4v-1.2l-1.1.7-2.2.5.4.6-.7-.7 1.5-.8-.4-.4-.1-.9 2.5.3-.8-2.7-2 2.1-.7-.1 1 1.3-1-.8-.3 2.2.1-.1z"/><path d="M186.3 268l.6-.6-.8-.3 1.5-.9-1.2-.9-.3 1.8-.1-.1.2.9-.2-.1-.2 1.4 1.2-.7zm8.7 38.9l.5-.4-.7-.3zm-5.8-2.7l-.5.6h.8zm-6.2 16.1l.6.5.2-.9zm4.2-2.1l.5-.5-.7-.3zm19.2-25.1l-.2.8.7-.3zm-8 3.1l.8.4-.2-.7zm-6.2-5.6l.4 1.2-.5-.6-.3.8h1l-.1-.1.9-.7zm-3.1-5.9h1.1v.1l.1-.1v-.1l.4-.5-.6-.1v.2l-.2-.5zm2.5-22.9l1-.2-.8-1zm-2.9-1.2l.9-.3-.7-1-.1.3-1.8-1.2-.4 3.3 2.1-1.5zm.4 32.9l1.2-1.2-1.9-.7zm5.3-12.1l.2.8.8-.6-.9-.4.4-.3-1.1-.5.4 1.2zm-.1-18.8l-1 1.9-.5-.4v1.2l.9-.5-.4-.3 2-.3zm-7-8.3l-.1 2.1 1.6-1.2zm3 4.6l1.9-.2-.9-1.6zm-2 7.8l1.9-.2-.8-1.6zm-3.6 47.4l.4 1 .7-.9zm4.9-7.4l1-.1-.7-1zm-.3 1.8l-1.4-.1.9 1.2zm-4.4 13.5l.8-.9-1.2-.1zm5.8-8.7l-.6-1-.4 1.2zm-7.6 9.6l1.1-1.6-1.6-.3zm-2-3.8l1.4-.4-1.2-.9.9-.3-1.3-.9 1.7-.9-.6-.5.3-.8.9.5-.3-1.5-.1.1-.2-1-.8.5.9.6-.2.2-1.4.1.5.9-1-.8-.6 3.1.7-.4-.2 1.3h.2l-.1.7-.8-.7-.6 3.2 2.7-1.4z"/><path d="M182.8 311.5h.9l-.5-.9.4-1.4-1.8.2.7 1.1-.3.5-.9-.9-.7 3.2 2.7-1.4zm.1-3.9l-.3-.9-.4.3-.6-.5-.5 3.2 2.6-1.5zm1.1-2.9h.6l-.8-1-.3.6-.5-.3 1-.4-.8-.8-.3 1.1-.8-.6-.4 3.2 2.6-1.6zm-1.2-4.9l-.5 3.2 2.1-1.2h.6l-.2-.3h.1l-.3-.3-.3-.4-.1.2-.9-.8.9-.2.6.7.2-.9.1-.1-.1-.1.2-.9.7 2.5 1.7-2.6-2.3-.5.1-.5-1.7.4-.8-.7-.2 2.2.6-.2-.2.8zm3.3-11.6l1.1.4-.1-1.2-1.2.7h.2l-2.5.6 1.9 2.5zm-1.1-4.1l-.2-.1v.2l-.6.2.5.6-.1.8.6-.2.2.2-.3.4.6.1.4.5.1-.4 1 .1-.7-1.2v-.1l.3.5.3-1.3.6-.2-.5-.5.3-1.2-1.6.4-.6-.8.8-.3.1.3.2-.4.7-.3-.5-.3.1-.1 1-.4-1.5-1.4 1.2-.8-2.3-1.5-.3 3.3 1.3-.9-.1.9h-.8l.2.4-.2 1.4-.5-.6-.4 2.6 1-.4.3.4zm3.1-2.4l1.7-2.6-2.6-.5zm3.3 27.9l.2-.9-.8.4.4.4-.6.8h1.2zm-.3 6.8v1l.9-.5zm-1.6-41.7l-.1-1.3-1.2.7zm-3.6-1.7l-.5 2.3 2-.8zm3.3-.8l1.6 1.3.1-2.2-.6.3v-.1l-.9.1.3.4zm3.7 1.6l.4 1.3.9-.8zm-2.1-5.9l-.5-.9-.7 1zm1.7 46.4l-.7 1h1.2zm-6.7 1.8l.2.3h-1.4l.6 1.6 1.1-1.2.2.2.1-.5v-.1l.1-.5zm6.5 6.3l.9-.5-.9-.5zm-3.4-10.4l-.8 1 1.3.3zm4.2 6.9l-1.1.1.5.9zm2.5-9.6l-.1 1.2 1-.4zm-3.3-3.5l.1.8.7-.6zm4.7-5.3l-.4.7h.8zm-2.3-14.8l.3 1 .7-1.1h-.3l.1-.1-.6-.7-.1.6h-.1zm1-4.8v-.7l-.7.4zm-2.1-19.9l.2-.8-.7.2zm1.4 7.8l.7-.3-.7-.4zm5.4 21.9l.3-1-1 .5zm-4-1.2l-1.3-.4.2 1.3zm5.8 1.6l1 .1-.4-1.1zm-4.8-9.2l.8.9.3-1.1zm-.7-5.9l-.1.6-1-.4.3 1.1.7-.5-.1.1 1-.3zm4.3 3.1l.6.3v-.9zm-.8-6.5l.5-.6-.8-.2zm-5-21.3l-1.8-.1.9 1.9zm1.2-9.5l.7-1.9h-1.8zm-5.7-.1l.1.1.2-1.2h-.1l.2-.9-1.8.4 1.4 1.7zm6.9-8.3l.5-1.6-1.4.1zm-5.6-2.7l.6-1.6-1 .1.9-.8.1.1v-.2l.3-.2-.2-.1.3-1.2-.5.1v-.2l-1 .2.2.1h-.2l.4.6-.9-.5v2.6l.3-.2zm.8 17.8l1.1-.9-1.2-.5zm-2 7.3v-1.2l-1.3.5zm-1.2-3.7l1.2.7.1-1.3zm-1.4-2l-.6 2.1 2-.7zm4 2.5l-1.8.6 1.4 1.6zm5.2-8.1l-.8-.9-.4.9zm-2.3 1.2v-1.1l-1 .5zm-5-8.3l.9-.3 1.2 1.9.6-3 1.1.5-.1-1.3-1.1.7-2.1.6.3.5-.7-.7 1.6-.8-.5-.3-.1-1 2.5.3-.8-2.7-2 2.1-.6-.1.9 1.3-.9-.8-.4 2.2.2-.1zm.6-4.8l.6-.6-.8-.3 1.5-.9-1.2-.9-.3 1.8.1.8-.1-.1-.3 1.4 1.2-.7zm6.3 23.2l-1.3-.7.3 1.4zm-4-6.8l1.1.1v.1l.1-.1.4-.5-.6-.2.1.3-.3-.6zm-3.9 7.4h-.7v-.1l-.9.5.9.4v-.3l.4.6zm7.5-29.3l1-.3-.8-.9zm-2.7-2.4l-.2 1.2 1-.3zm5.2 22.3l.8-.6-1.1-.5zm2.1-5.7l-1.1-.5.3 1.2zm-4.3 6l.3 1.1.8-.6zm1.8-20l-.9 1.8-.6-.4v1.2l.9-.5-.3-.3 1.9-.3z"/><path d="M193.6 220.6l-1.4-.9 1-.5-.6-.5.6-.6-.7-.4 1.5-.7-1.1-1-.4 1.7h-.1l.1.9-.1-.2-.3 1.4v2zm1.6 3.7l2-.4-1-1.5zm-.6 6.9l-.8-1.6-1.1 1.7zm-4.5 21.4l-2.6.4 1.7 2.6zm-1.2-4.4l-.2-.1v.2l-.6.1.4.6-.2.9.6-.2.1.2-.3.3.6.1.4.6.1-.4 1 .2-.6-1.3v-.1l.3.5.3-1.2.6-.2-.5-.5.3-1.2-1.6.3-.6-1 .6-.2.1.3.2-.3.7-.2-.5-.4v-.1l1.1-.3-1.2-1.3.8-.5.7 3 1.9-2.5-2.3-.6-2.2-1.6-.3 3.3.3-.2.1.3-.2 1.1-.2-.3-.6 2.6 1-.3.3.4h-.4zm1.2-4.4l-.1.4h-.5l.6-.4zm3.8-4.5V238l-1.2.7zm-4-1.8l-.5 2.3 2-.8zm3.7-.7l1.6 1.4.1-2.3-.6.3v-.1l-.8.2.2.3zm3.7 1.6l.5 1.3.8-.8zm-2.1-5.9l-.5-.9-.7 1zm-3.7-9l-.2 3.3 2.5-1.8zm7 27l.8-.1-.5-.8zm.7-5.1l.6.4.1-.7zm-.4-20l-.7.2.5.6zm-2.9-9.6l-1.3 1.6 2 .1zm-1.7 5.5l-.9.8-.1-.5-.8.6.6.2-1.1 1 2.9.6zm6 4.1l-1.3-.6.4 1.4zm-3.1-6.5l-.5-1-.7 1zm2.4 13.9v.7l.6-.4zm-.9 2.9l-.1.9.9-.3zm4.3 3.1l.6.4v-.9zm-1.1-7.2l.3.8.5-.6zm-12.9 90l-.7.3.7.3zm-2-19.3l.5.6.1-.8zm1.5 7.8l.7-.4-.7-.2zm.3 17.9l.7-1.1-.8-.1-.5-.6-.2.9.5-.2zm-3.1 5.4h1l-.7-.8v.2l-.8-1.5-1.1 1.8-.5-.4v1.2l.2-.1v.9l.8-.6-.7-.4.6-.3-.4-.3 1.8-.2zm8.6-1.5l.2-1-.9.4zm-4-1.1l-1.3-.4.2 1.3zm6.4.4l-.6 1 1 .1zm-4.4-8.2l-1.2.2.9.8zm2.3-2.8l.6.4v-.9zm-.4-7l-.8-.2.3.8zm-6.3 24.3l.1-.9-.7.3zm.5 4.3h-.1l.1-.1-1-.7-.2 1.1.5-.1v.2zm4.2-4.8l-.4.7h.7zm-4.7 12.3l.6-.2-.6-.6zm-4.4 5.8l.7.2-.1-.7zm5.9-17.3h1l-.5-1.2zm1.7-6.9l.8.7.2-.9zm-3.1 3.2l1.3.1-.4-1.2zm-5.9-.4h-1.1l.7 1.1zm4.9 12.1l-.9.4.9.5zm9-30.4l-.2 1.1.9-.5z"/></g><g fill="#303060"><path d="M242.4 393.4l.5-1.1h-1zm-5.8-18.4l2-.3-1.5-1.4zm-2.7 14.1l.9-2-1.9.6zm.9-4.6l-.4 1.8 2-.5-1.5-1.2.8-2-1.9.6zm.8 3.8l-.4 1.7 2-.4zm.8-22.2l-1.8.5 1.5 1.5zm2.4 9.9l1.6 1.5.1-2zm.3 6.2l.1-2-1.7.6zm-7 13.4l.1 2.2 2.1-1.9zm5.4-5.1l-.5 1.8 2-.5zm2.5 3.4l-.7.6.7.4zm-4.9-1.5l1.3-.5-.8-.9zm.1 1l-.9.5 1 .8zm1.3-18.2l.6 1.3.6-1.1zm-3.4-10.5l.7-1.3-1.2-.1zM237 378l-1.3-.1.6 1.3z"/><path d="M233.8 383.2l-1-.7v.3l-1.5-.6 1.6-1.1.5.4-.1-2.1 1.3 2.2 1-3-2.3.3v-.6l-1.5.8-1.4-.7 1.7-1.1h-.1l1.2-.9-1.8-1 .9-1-2.2-1 1.4-1.2-1.8-.8.2 2.2.3 3 1-1.1.3 1.6-1.3-.5.1 1.7-.1-.1.4 2.3.7-.6 1.5 1.2-1.8-.6.2 1.7-.6-.3.3 3.3 1.7-1.8zm8.9-1.3l-.9.7.9.5zm-8.1-4.9l.1-.9.2.1-.4-2.2-1.5 1.3 1.4.7-.7.4zm-.6-4.9l-.4-1.3-1 1zm-2.9-3.4l-1.8-.8.2 2.2zm3.5 1.9l-.4-2.2-1.4 1.3zm1.9 16.1l-1.5 1.2 1.9 1zm1.1-29.8l-.2 1.1 1.2-.4zm-8.1 1.7l1.1-.4-1-.6zm9.1-7.8l-.1 1 1.2-.4zm-6-2.1l-.2 1 1.2-.4zm.6 12.3l1.2.1-.3-1zm7.8 26.8l-.6.6.7.3zm2.8-2.8l.4-.5-.7-.2zm-6.2-1l-.3.7.7-.2zm15.7-15.8l.6-.5-.7-.3zm-3.2 6.5l.8.1-.4-.6zm-10.4-4.8l-1.4-.2.7 1.2zm-4.8-5.4l-.7-.9-.4 1.2zm-2.5 9.9v-1.2l-.9.5zm2.3-16l.2-.3-1.2-.1.6.9.1-.2.4.6.5-.9zm2.3 13.5l-2.1-.2 1.2 1.7zm-2.3-16.7l.6 1 .5-.8zm-.6-.8l-1.2-.2.6 1zm-.4-7.1l-1.2-.2.6 1zm-1.7 9.9l-1.7-.2.9 1.5zm5.5 37.6l-1.1.2.6.9zm1.8-8.4l.9-.4-.9-.8zm-.3 3.1l.3-1.2-1.4.3zm-6.1-4.5l-.9-.5v1.2zm.2 9.8l1.2.3-.5-1.1zm3.8 2.8l-2.1-2.3-1 2.6z"/><path d="M233.4 392.9l1-.3-.4-.3.1-1.8-1.7.7.6.5-.2.9-1.1-.4.3 3.2 2.2-2.2zm.4-3.3l-.7-.3-.5-.9-.4.5-.8-.4 2.1-2.2-.3-.1.5-.1-.9-.8-.2.7-1.6-.7.3 3.2h.1l.2 3.3zm3.4 8.9l-1.9.7 1.1 1.4zm-.3 2.8l-.4 1.8 2-.4zm-3.5 7.3l.1 2.3 2.1-1.9zm3.5-4.6l-.5 1.5 1.3-.5zm-.3 3.7l-.1-1.2-.9.5zm1.6 1.2l.5-1.1-1.1.3zm2.3-9.4l1-.5-1-.7zm-.6 3.6l.2-1.2-1.4.3zm-6.2-4.5l-.9-.5v1.2zm1.5 10.2l-.5-1.1-.7.7zm-.1 2.1l3-.2-2-2.4zm-.5-5l1-.2-.3-.3.1-1.8-1.7.6.6.5-.3 1-1-.5.3 3.3 2.2-2.2zm-.3-3.6l-.5-.9-.3.6-.9-.4.3 3.2 2.2-2.2zm-2.5-33l1.2.2-.4-1.2-.8.8v-.2l-2.4 1.3 2.5 1.9zm-2.3-3l.1.8.6-.3h.1l-.3.8 1.1-.1.3.2v-.2l.7-.1-.7-.7-.1-.7.5.4-.1-1.2.3-.2-.3-.2-.1-1.7-1.4.8-.9-.7.6-.4.2.2.1-.3.6-.5-.5-.2v-.1l.9-.7-1.6-.9.7-.7 1.5 2.5 1-3-2.3.3.2-.2-2.2-.9 1.4-1.3-1.7-.8 1.5-1.5-1.6-.7 2.5-2.2-3-1.4 2.8-1.3-.2-.2 1-.4-1-.7-.1 1-1.7-1.8-.9 3.5.1-.1.2 3.9.1-.1.2 1.9h-.1l.2 2.1v-.1l.3 3.4.8-.9.1.7-.7.2.3.3.1 1.3-.4-.3.3 2.7.8-.7.3.3-.5.3-.2-.1v.2l-.5.3z"/><path d="M229.3 343.8l-.8 3.2 2-.9-.4 1.8 1.8-.3-1.2-1.6.5-.2-.4-.4.4-.3.4 1.2.2-.3.6.7.5-1.2-1 .4 1.1-1.4.2.3.6-.8-1.2-.1.1.1-1.7-.5.1-.3.8-.4-.2-.2h.1l-1.3-1.7-.1.5-.4-.4-.8 3.2.7-.3-.2.7-.4-.8zm.8-.4l.3-.1.2.1.2.5-.1 1.4-.8-.8.8-.2-.6-.9zm2.1 10.1l-1.7 1.7 2.3.4zm14.9 28.9l.9.3-.3-.9zm2.7 5.2l.5-.8-.8.1zm2.6-6.5l.7-.2-.6-.7zm-4.1 12.1l.7-.8-.9-.3zm5.3-94.7l-.7 1 1 .2zm.4-4.8l-1.6-.7.1 1.6zm-9.2-4.8l-.4-.4-.4 1.5 1.6-.3-.4-.4 1.6-.2-1.2-1.1.8-.2-1.8-2.5-.8 3.1 1.2-.2zm-1.1 25.5l.3 1.8 1.7-1.1zm.1-11.7v.2l-.9-.3.1 1 .8-.5.2 1.4-1.2 1.1 1.8 1-.5-2.1 1.7-1zm-.2-2.6l-1.3 1.2 1.8 1zm5.2-8.6l-1.3 1.2 1.3.7-.2.1.6.6.1-.4h.1l-.1-.1.2-.5-.3.1zm-3.7 9.7l1.8-1-1.9-.8zm.4-15.1l1.5-.9-.9-.3 1.1-.3-.9-1.3.2-.3-.5-.2-.4-.6 2 .2-.6-1.5.8-.3-1.4-1.4-.7 2.1.7-.2-.9 1v-.1l-.9 3.2.9-.2zm2.4-5.8l.2-1.1 2 .2-.7-1.9-.2.2-.3-.4 1.8.2-.4-.6 1.3-1.1-.7-.3.3-1.8-1.8.6-.2-.4 1.3-.7-1.5-.7.1 1.1-.7-1.2-.7 3-.1-.2-.7 2.8h1.7l-1.8.6 1.1 1.7zm2.1-4.9l-.2-.4.4.5v1.3l-.8-1.4-.8 1.5-.9-1.3 2.3-.2zm-.9 2.5l-.9 1.1.2-1.1h.7z"/><path d="M242.1 323.2v-2.1l-1.7 1.3zm-3.1 9.5l.1-2.1-1.7 1.2zm9.3-20.3l-1.7 1.1 1.6.9zm-.6-2.8l.2-2.1-1.8 1.1zm-4.4-16.3l1 .6.1.4h-.8l.6.9.4-.6.9-1.1h-.9l.1-.6.7-.2-.6-.9-1.2-1.6-.8 3.1.8-.2zm3.6-.2l.2-1.8-1.4 1zm7.3-17.8l-.2.9.9-.1zm-10.9 22.1l-.7.4 1.6.9.1-1.7.4-.3-.9-.4.8-.2-1.9-2.5-.7 3.1 1.2-.2zm2.4-1.3l.2-1.3-1.1.6zm3.1-7l-.4 1h1.2zm-3.9 25.2l-.5-1.3-.7 1.3zm-6.2 11.4l-.5-1.3-.8 1.1zm4.7-14.2l1.2.1-.5-1.4zm7.6-3.1l.2-1.2-1 .4zm-10.8 9.6l.5-1.1h-1.4zm-1.4 2.8l.5-1.2H238zm-1.7-5.9l2.4-.6-.9-1.2 2-.7-1.2-1.1.8-.2-1.6-1.4-.4 1.8.9-.2-.6 1.7-.8-1.3-.8 3v-.1l-.5 2.2 1.9-.5zm-1.2 3.1l-.4 2.2 1.8-.6zm5.6-3l.7-2.1-.1.1v-.9l-1 .4.7.6-1.6.4zm-.4 3.4l-2 .6 1.3 1.5zm3.3-17l1.3 1.6.7-2.1zm3.9-11.7l-2 .6 1.3 1.5zm2.8-8.1l-.9-.4v.8l.9-.4.7-2.1-2 .6zm-5.9 50.4l1.1-.5-1.1-.6zm-6.3-3.9l-1.2-.1.7 1zm-7.7 7.7l-.3 1.3 1.1-.2zm21.3-29.6h.7l-.3-.6zm-5.9-.7l.5-.5-.7-.3zm1.1-17.1l.5.7.3-.9zm2.9 3.9l-.5.6h.8zm-1.2-11.5l.2-.8-.6.2zm1.8 2.8l-.4.5h.6z"/><path d="M245.5 318.9l-1 1.1 1.5.1zm-6.2 5.1l.3 1.3.8-.7zm0-8.5l.2-1.2-1 .6zm3.5 13.6l-.7.8 1.1.1zm-1.2-11.7l2 .2-.6-1.6zm1.2 14.8l-.7.9 1.2.1zm-1.1-6.1l-.8.8 1.2.1zm.4-24.8l.9-1.1h-1.5zm5.5-6.6l-.8.7 1.1.5zm.6 10.9l1.1-.6-.9-.6zm.5-4.9l-1.3.6 1.3.6zm-6.8 3.3l-.8-.8-.2 1.2zm8.6-4.9l1-.7-.8-.6zm2.2-24.8l-.9 1.2 1.2.2zm15-10.6l-.6.9 1.2.2zm-17 24.5l1 .2-.3-1.2zm6.5-1.9v.1-.1l.2.2.1-.3.6-.5-1.1-.7.1.6-.4.2zm-9.8-1.7l.5-.8v.9l1.3-1.1-1.3-.6v.4h-1.1zm4.6-6.1l1.1.5-.3-1.2.3.2-.1-.3h.2l-.3-.4-.3-1.5-1.3 1.2 1 .5-.1.2h.3l.3.1zm1.2 10.5l1.1-.5-.9-.7zm-.6-26l-.2-2.4 1.3-.3-1.5-2.2 2.1-.4-1.4-2.1 2.3-.5-2.1-1.9-.4 2.2-.1-.2-.8 3-.7 2.7.9-.2-1.5 1.5zm1.4-13.2l-.6 2.4 2.6-.4zm-3 22.2l-1.6-2.2h1.9l-1.4-2.9 1.4-.2v1.1l1-.6-1-.5.9-.1-1.6-1.7 2.3-.4h-.1l1.4.8v-2.1l-1.8.9-1.5-1.6-.6 2.1-.1-.1-.5 1.9-1.1 3.3h.3l-.6 2.4zm-2.2 15.3l-.4-2-1.3 1.5zm-7.9 12.9l2.6-.6-1.8-2.5-.8 3.1-.8 3.2 2.6-.6z"/><path d="M241 310.6l.1-.5 2.2.6-.5-3.1-1.6 1.9.4-2-1.3-1.2 1.4-.3v.2l1-.6-1.1-.5v.6l-1.5-2.3-.9 3.2.8-.2-.4 1.5 1.8-.3-1.6.8-.8-.7-.7 2.1 1.2-.4zm-2.3 5.8l-2.8 1.4 2.1 1.7zm11.5-14.8l-.2.1.3.3.1.4.1-.1.1.1.1-.2.5-.5-1-.6zm-4.4-4.3l-.3-.2v.3l-.3.1.4.4.1.6.9-.8-.6-.3.1-.3zm8.4-1.4l-.6-1-.4.9zm11.2-45.5l.7-1.6-1.7.4zm-9.8 24.8l-.8.2.5.7zm2.3 4.8l-.3-.6-.4.6zm-6.5-1.5l-.4-.8-1.1 1.2 1.4.2v.1l.1-.1h.2l-.1-.2.3-.2zm5.3-9.9l.1-.8-.6.1zm2 3.3l-.2-.5-.4.5zm-5.5-1.4l.2.7.4-.4zm13.9-11.2l-.9-.7v.3l-.9-1.1-.5 1.3 1.4-.1-.1.8zm-4.2-5.2l-.4.1.3-.7-1.3.3.8 1.3v-.3l.2.2zm7.4-.7l-.5.7.9.2zm-8.1 13.8l.1-1.5-1.1.8zm.9-8.9l-.3 1.1 1.2-.3zm5.8 7.8l.5 1.2.6-1.2zM253 281l-.9.4.6.6zm7.1-1.2h1l-.6-.9zm-4.4-25.6l-.5 2.2 2-1.1-.9-.7.5-2.1-2 1zm7.7-20.1l1.5.3-.4-1.8zm3.5-2.3l.7-.4-.7-.3zm-2.2-1.3h.8l-.4-.6zm.2 2.4l.7-.1-.3-.7zm-.3 6.2l-.7-1.8-.9 1.8zm-2.8-5.4l-.6 2 .3-.1.3 1.3 1.4-1.2-.9-.2.5-.1zm1.1-5.2l.5-.5 1.3.5-.1-1.9-1.2 1.1h-.5l-2.2-2.2-.7 2.7 2.6-.4zm1.2 1.5l-1-.1.3.9zm-3.6 3.7l1.5-1.3h-.1l.8-.6-.6 1.8 1.6-.3-1-1.6.7-.5-2-.6.3 1.7-1.7-.4.4 1.7-1.5-1.3 2.1-.9h-.1l.4-.1-.8-1.3.7-.2.4.5.4-2.2-1.6.5-.5-.4-.4 2 .8-.2-.3.7-.6-.5-.6 2-.1-.1-.6 2.8 2.9-.7zm-2.9 2.5l-.8 2.7 3-.4zm.9 6.1l.1-.1 1.2 1.2.2-2.3-1.2.5 1-2.2-2.7.1 1.3 2.7-1.7-2-1 2.6 3-.2zm-1.3 4.8l1.5-.1-.9-1.8-1 1.5-1.7-1.6-.6 2.8 3-.6zm3.2-12.3l-2.6.7 1.9 2.5z"/><path d="M255.1 259.8l.1-.2.8 2.8 1.8-2.8-2.4-.3 1.4-2.3-2.6-.3zm1.5-13.6l.2-.2v.1-.1l.7-.3-.5-.2.5-1.7-1.9.4 1 1.4zm6.8 3.7l.7.8.1-1.1zm0-2.5l-.6 1.1h1.1zm-1.4-5.8l-.9-.2.2.9zm7.4 3.8v-1.1l-.8.5zm-5.9-1.5l-.1 1.3 1.3-.5zm2 2l1.5-1-.7-.3.8-.3-.9-.6v.9l-.9-.4zm-3.5-.6l.2-.4.1-.3h.5l-.5-1.3-.5 1-.7-1-1 2 1.7-.3zm1 1.7l-.5.1 1.4-.9-1.6-1.1-.3 2.1-.2.1 1 .8zm4.7-38.4l1.5-.7-1.4-1.2zm0 9.6l1.5-.7-1.4-1.2zm.2-7.6l1.2-1.7-2.1.1.8 1.6-1.8-.9 1.7-1.4-1.8-.8-.1 2.1v3l2.8-1.7zm.4 4.3l-.2-3.2-2.3 1.4zm-2.6 12.9l.8.6-.4.5h1.4l-.4-.8.3-1.1zm3.8-7.2l-.7-.4.1.9zm-.4-4.9l.6-.4-.7-.4zm-2.3 5.3l1.4-1.1-1.7-1 .1.5-1.1-.9-.4 2.1 1.6-.5zm2.4 4.7v-.7l-.7.3zm-1.8-8.8l.1-1.3-.5.2 1.5-.7-2.8-1.5v2.8l.5-.2zm.9 10.9v-.8l-.7.4zm-.2-4.8l.9-.4-.9-.7zm-2.4-6.5l-.1 1.8 2-.6zm1.8 8.8l1-.3-.9-.7z"/><path d="M263.7 226.2l1-.1.3.5h.1l.1.1v-.1l1.3.5-.1-1.4 1.1-.1-1.5-1.6-.5 1.7-1.3-1.4-.5 1.6-.6-1.9h1.4l1.1.4-.1-1.8.4.1.3 1.1 1.3-1.8-1.8-.3-.6-1.1-1 1.6-.1-.1-1.1 1.4v-.1l-2 1.8 3 1.3-.2-.3zm2-.4l-.3.3-.6-.1.8-.1-.1-.1h.2zm-.3-3.1l-.9.8-.5-1.2 1.4.4zM254 273.3l.2-1.2-1.1.6zm6.7-.1l-.8-.1.3 1zm1.4-29.9l2-.8-1.9-1.2zm-7.2 7l1.7-1.6-1.8-.7zm2.7 1.7l-.5.6 1.1.2-.2-.8h.4l-.9-1.8-.1.1-.7-1.3-1.3 1.8h1.6l-.8 1.2zm3.4-4l-.9-1.8-1.3 1.8zm.8 1.4l-1.7.8 1.6 1.6zm2.2 6.4l-1.3.9 1.4.9zm-9.6 13.1l-.5-1.2-1.4 1.6 1.7.2v1.2l1.3-1.1-1-.5-.1-.2 1.7-.1-1.2-1.3.8-.9h.5l-.3-.3.5-.5-1.8-.6v.6l-.5.4.7.5.1.8zm2.1-12.3h2.2l-.9-1.8zm-3.8 5l2 1.1v-2.1zm-5.2 20.2l1.6.2-.5-1.5zm11.8-27.9l-.7-1.4-1.2 1.6-.8-.3.2 1 .6-.5h1l.5 1.2.8-1.6zm-6.5 19.7l-.6-1.8.7-1.3-1.5-.1.5 1.4-1.3 1.6zM235.2 332l.9 1.2.5-1.2zm-.5 4l.5-1.1.6.4v-.2l.5.6.7-2.1-2 .6.4.4-.3.2-1.2-.1z"/><path d="M233 332.7l-.6-.6-.4 1.2.4-.1-.2.1 1.8 1.5.6-3.2-.5.3v-.5h.1l-.1-.2v-.6l-.3.2-.7-1 2.3-.5-.1-.2 2.2.6-.5-3.2-.6.7-.8-1h.1l-.2-.2v-.7l-.4.3-.6-.6 1.3-.6 1.2 1.1.6-3.2-.5.3.1-.6.8-.5-.7-.2v-.2l-.3.1-1.1-.4.1.9h-.1l-.5-.5-.2.8-.7.3.5.4v.2h.2l.5.4-.4.2-.7-.8-.7 2.6-.3 1.3 1 .5-.3.8-.9-1.3-.8 3.3-.5 2 .2-.1.9.4-.2.5zm3.2-5.1l-1.1 1.3-.5-.7 1.6-.6zm-.9 11.8h-1.4l.9 1.2zm-1.9 3.9l.5-1.1v.1l.5.3v-.1l.4.6.7-2.1-1.4.4.1-.2-1.1.4.5.6-1.2-.1 1 1.2zm.7-1.3h0zm-3.2-1.4l1.8 1.5.6-3.2-.5.4v-.9l.2.3 1.7-2.1-2.4-.8.4-.8.5-.1-1.4-1.7-.5 2.2 1.1-.3-1.1.6.6.3.8 2.1-1.5 1.1.9.5-.4.4-.6-.6-.5 1.1.5-.1zm30.5-83.3l-.6-.8-.3.9h.6l-1.4.5 1.5 1.7-.6.4 1.4.9-.2-1.8-.6.5.3-2.2v-.2zm-3.8 7.7l.3-2.3-1.8.7zm8.3-2.8l-1.2.5 1 1.2zm-.6-5.8l1.5 1.6.3-2.4-1.8.7-.4-.5-.4 1 1.1-.1zm-1.8 5.8l-.4.9h1zm-3.6-21.5l2.2-.4-.7-.9 1.1-.7-1.5-.7v.8l-.1-.1zm8.2 11.2l-1.2.3.9.8zm.9 3.8l.8-.3-.7-.5zm-10.8 4.4l-.7 1 1 .2zm5.5-1.8l.7.7v-.7l.7.1-.3-1.2-.7.8zm2.3-6.4l.5-1-1.1-.1zm4 9l-1.2 1.8 1.8.2zm-.4-3.3l1.1-1.4h-1.8zm-5-6.3l-.9-.4v.9z"/><path d="M271 256.6l.2-1.1-.8.3zm-4.6-3v-.1.1h-.3l.1.2-.7 1.8 1.8-.3-.4-.7.4-1zm1.4 6.2l-1.3.1.8 1.4zm3.7.9l.5-1h-1.2zm-1.1-5.7l-.6-.7-.3.8zm-12.5 19.2l-.3-1.2-.7 1zm-1.6-7.5l.1.9.8-.5zm7.6 5.5l.1-1.1-.8.3zm5.6-14.2l.4 1.2.8-.8zm-1.8-18h-1.2l.8 1zm-1.4-2.7l.4 1.3.7-.9zm-12.6 45.2l1.4 1.3.6-2zm16.3-12.9l-1.7-.1.6 1.5zM252.9 286l.2.9h-.2l.2.3.5.5.5-1.1h-.2l.3-.2zm6.8-4.2l-.9.6 1 .7zm-1.6 11.1l1.1-.3-.7-.8zm-4.1-16.8l-1.2.3.7.9zm2.9-5l-.5-.9-.4.8zm2.4 7.3l.1 1 .7-.7zm6.8-11.3l.8 1 .4-1zm1 2l-1.8.7 1.5 1.6zm-6-7.2l-1.7.8 1.5 1.6zm-3.6 4l2.2.2-.8-1.9zm2.9 4.7l-.9.9 1.3.2zm-.9-3.1l-1.3 1.6 2 .1zm-.2-9.2l-1.3 1.6 2 .1zm-3 13.1l-1.8.8 1.6 1.6zm-2.2 9.3l1.1.4-.2-1.1-.1-.9-.5.5-.5-.2-.1.9-.2.3h.2v.3zm17.2-7.6h-1.2l.7 1zm-.3 2.9l-.2.7.8-.1zm-21.9 7.2l.6.6-.8 1 1.6.4-.3-2-.1.2.2-.6zm7.5 1.9l-.9-.2.2 1zm12.6-12.5l.8-.9-1.1-.4zm-.4-24.1l.5-1h-1.2zm.3 1.2l-1.3.1.8 1.4zm-15.3 48.6l.8-.7-1-.6zm2.7-6.6l1 .1-.6-.9zm.3-15.2l-.7 1.9 1.9-.6zm-8.5 21.5l-1.3-.5.2 1.8 1.8-1-.2-.1.6-.6-1.3-.3zm5.8-4.3l.9.6v-1.2zm-.8 10.5l1.1-.4-.7-.8zm-3.3-15.3l.3.1-.2-.4.2-.5-.2.1-.2-.4-.6.7h-.1l.7.8zm2.7-6.7l-.4.8.9.1zm3 8.1l.1 1 .7-.7zm.9-9.6l-.5.8 1 .1zm3 9.2l.7-.7-.9-.3zm9 .5l-.5.7 1 .3zm-9.7-6.7l-1.2.6.9.9zm1.8-6h1.2l-.7-1zm6.1 7.4l-.7.7v.1l-.8-.2.3 1.2.7-1 .5.3zm-.2-4.4l.8-.3-.7-.5zm1.9 13.3l.6-.7-.9-.3zm-3.6-9.4l.4-1.5-1.3.6zm2.6-8.5l-.4 1h1.1zm5.2 9.2l-.7-.1.2-.5-.8.1.3.5.2 1zm-31.5 49.2l-1.7-.1.7 1.4zm-4 5l.2-2.4-1.8.8zm-1.7 5l.8 1.1.4-1.1zm11.6-4.3l-.3.7.8-.1zm-8 .4l.4 1.2.7-.8zm3.2 14l1 .3-.5-1zm-7.7-5.3l.4-1.4-1.3.6zm2.6-8.4l-.4 1h1.1zm4.2 9l.2 1.2.8-1z"/><path d="M239.1 349.6l-.7.7.7.4zm-.1-5.2l-.1.8.8-.3zm5.2 5.7l.2-.9-.7.1zm-8.1 8.8l-.7.8.8.3zm-.3-5.1v.7l.8-.3zm5.4 5.4l.2-.8-.7.1zm-2.3 3.9l-.9-.4.3 1zm2.1-14.4l.3-1.4-1.2.6zm2.5-8.4l-.4 1h1.1zm4.5 10.2l.7-1-1-.2zm16.5-97.6l-1.1-.3.4 1.2zm-4.1-1.6l.4 1.3.8-.9zm4.5-11l-1.5-.2.8 1.4zm-6 9.5v-1l1 1.6.7-2.3-1.9.3.2.3-.8.6zm5.6 88.5l-.5-1.2-.5 1.1zm2-6.2l-1.7.4 1.2 1.1zm4 22.9l-2.1.1 1.4 1.6zm1.3-10.7l1.5 1.5.6-1.7zm2.1-2.9l-.5 1-1.8-1.1.2 2.2 1.5-1.1-.5 1 2-.5zm-2.5 6.3l1.8-.3.6.5.3-1-.9.1-.7-1.2zm-.6-32.3l-.8 1.3-.4.3.2.1-.1.2h.3l-.6 1 1.1-.1-.5-.9.3-.1.3.1v-.1l1.1-.2zm2.6 24.9l-2.1.2 1.5 1.5zm.2-26.7l.8.9-.3.4-1.4-1-.2 1.9-.7.1.9 1.4-.5.5 1.5.3-.2.2-.1-.2-1.2 1.6 1.9.4-.1 1.1 1.7-1.2-.8-.7.6.2v-2.9l-.1-3 .1-.2-1.9.2zm-.5 2.3l.3-.2-.4.4.5.2-.9.8.5-1.2zm.9 3.7l-.3-.8.4.2-.1.6zm.2-2l-.2-1.1 1 .4-.8.7zm-4.6 46.3l1.8-.3-1.3-1.6zm.8 8l-.4 2 1.8-.4zm-3.6-19.6l-.2 2 1.7-.5zm1.5-4.7l-.2 2 1.7-.4zm7.4 37.2l-.1.6-.2 1.1 1.4-.3-.2-.2.6.3-1.6 1.5-.8-.8-.1 1.2.6-.2-.3.2 2.4 1.3v-3.1h.1l-.1-2.7-1.4 1.4zm1.7-1.4v-1.9l-1.3 1.1zm-7.4-2.9l-.4 1.7 1.5-.3zm5.7 1.9l-.3 1.8 1.4-.4zm-6.4-67v-1l-.8.6zm1.1 24.1l.5-1.8-2 .3zm2.6-2.5l.9-.4-.9-.8zm-1.9-7.1l-.9.8 1.1.3zm-1 23.5l-.8 1.2 1.2.2zm2.7 12.7l-.8 1.1 1.3.3zm-1.9-15.3l-.7 1.2 1.2.2zm-6.2-3.1l.9-.6-.8-.5zm7.8 5.4l-.2 1.2.4-.2.2 1.8 1.6-1.2-1.5-.8.3-.2zm.7 6.2l1.1-.9-1.4-.3zm3.8-2.2l-1.7 1.3 1.7.9zm-.3 5.9v-2.2L275 362zm-4.7-1.2l1.6-1.1-1.8-1.1zm1.5-30.6l-1.8-1 .2 1.9-.4-.4-.8 1.8-.7-.5.1 1 .6-.4 1.7-.4v.6l1.4-.5-1.2-1.3-.2 1-.4-.7zm-2.9-11.6v2.2h-.3l.6.7.3-.8-.4.1 1-.6-.1.7.6-.5-.4-.3.4-.2zm-5.6 52l.2-1-1.2.3zm5.7 13l-.1-1.3-.9.6.4.3-1.9.3 1 1.6.9-1.9zm1.7-14.8l-1.2-.3.2 1zm4.7 9.3l-1.1.9.7.4-.4.7.8.2-.2-.8h.1zM266.7 342l.6-.5.2.2.4-1.2-1.1.3.4.6-.6-.4zm-3 2.6l-.4.5.7.2zm6.6.6l-.8.2.4.5zm1.5-15.6l.7-.6-.7-.3zm-2.6 3.3l-.3-.7-.4.5zm5.5.1h0l-.8.7.3.2v.7l-1.3-.3.6 1.3.6-.8v.4l1.4-.4-.4-.4 1.2.5-.1-3.2z"/><path d="M269.3 324.5l-.2-.6-.4.3zm-1.4 34.3l-.8.9 1.4.4zm4.6 6.6l-1.2.2.7.9zm2.1-8.2l1-.4-.9-.8zm-3.4 29l-.9.3.8.9zm2.9 2.3l.1-1.2-1 .3zm.6 3.1l.9-.5-1-.4zm-4.8-33.5l2 .3-1.1-1.8zm-4.2 15.1l1.2.3-.5-1.1zm2.5-2.4l-.6-1-.1.2-.3-.6-.6.8.6.1-.2.3zm3.6 20.1l.9-1.9-1.9.4zm1.2-.5l1 1.5.9-1.9zm.1-8l1 1.5.9-1.9zm-2.3-46.9l1.2-.2-.6-.9zm-2.5 8.1l-1 .3.9.9zm.5-3l-.4 1.2 1.5-.2zm5.7 5.1l.9.6.1-1.2zm-.5-10.3l.4 1.1.8-.7zm-7.1 1.9l-1 .5 1 .8zm3.5-22.1l1.2.1-.5-1.4zm3.1-7l.4-1-1.2.1zm-9.5 1.2l-.2 1h-.1l.2 1 .7-.9-.5-.1.7-.4zm4.6 18.8l-.4-1.2-.7 1zm-5.3-4.3l.1.1.1-.3h.1l.3-.9-1.1.3.1.2-.1.8z"/><path d="M266.1 327.4v.3l.2-.1.2.3.1-.5.5-.3-.5-.3.1-.2v.1l.5-1.1h-1.4l.8 1-.2.1-.4-.3v.4l-.3.1zm9.1-26.3l-.2-2.5-2.3 1.5zm-.3 6.7l.1-2.4-2 1.2 1.9 1.3-1.9 2.3 1.4.6-1.4 1.4 2 .9v-2.9l.1-2.6zm-5.3 3.9l-.2-.3.8-.9-1.3-.4.1.2-.2-.1-.2-.3h.2l-.2-.9-.2.2-.2-.3-1.3 2.9 2.7-.1zm-.5-1.2l.2.7-.2-.7zm-1.1 9.1l.2.3.1-.3.2.1-.1-.4.2-.9-.6.1-.4-.7-.3.9-.5.9zm4.5 6.7l-.7 1.9 1.7-.1zm-2.3-.5l1.7-.1-1-1.8zm5.8 4.9l-.2-3.2-2.2 2 .7.4-1.4.7 1.5.6-.5.3 1.6.7-.1-1.6-.6.4v-.9zm-1.3 7.1l-1 .1.4.3-.3 1.8 1.7-.4-.5-.7.3-.8.9.5v-3.3l-2.3 2zm-.7 3.2l.7.4.4.9.5-.5.8.5-2.3 1.9.3.2-.6.1.9.8.2-.6 1.5.8V339zm.2 6.6l1.5.9-.9.5 1.9.7-.1-1.8-.1.1v-2.3zm-.2 13.9l-.8-.2.3 1.2 1-.9h-.2l2.2-1-2.3-2.1zm-.3 7.3l-1.3 2.9h2.7zm-.5-70.7l1.3.7V297zm-.3 40.1l-.5.1.7 1 .4-.8.2-.1-.1-.1.1-.3-.5.1-.4-.4zm-6.8-4.6l-.7.7.9.3zm5.4-71.9l-1.7.1 1.1 1.4zm-.4 57.2l1.3.3-.7-1.5-.6.7-.4.1.2.3-.1.1h.2l.1.1zm-5.5-9.3l.6.2-.2-.6zm-3.8 3.3l.8.9.2-1.3-.2.1-.5-1.3-1.1 1.5h1zm7.1 7.4v1l.8-.4zm-7.4-3.7l1 .3-.2-1zm6.2-18l-2.5.7 2 2.4zm3.8-10.1l-1 .3.8.6zm-7.3 3.9l-.8-.4.1 1.1zm2.8-8.8l.8.1-.2-.7zm.6 7.1l.3 1.1.9-.9h-.2l-.4-2.2-1.6 1.3 1.5.7v.1zm2.5 21.9l1-.3-.9-.9zm2.1-25l.4 2.4 1.5-1.8zm2.5 4.4l-1.9.5 1.6 1.7zm-2.7-3.1l-1.1 1.7 1.3.2 2.7 1.2-.1-3-2 1.4zm.2 5.6l1.6.2-1.1-1.9-.8 1.3-.3-.5-1 1.7.8.1.6 2-.9.8 2.1.9-.6-2.1.8-.9-1.7-.6 1 .1h-.1l2.6 1.3-.1-2.7-2.4 1.3z"/><path d="M268.6 288l-.6-1-.4 1.3h.5l.1.2v.1l.2.3.2-.3h.2l-.2.1.6.6.2-.6 1 .1-1.2-1.9zm2.1 3.6l-1.1-2-1.1 1.7zm-4.7 1.1l.4 2.4 1.4-1.7zm6.6-14.2l1.7 1.1-.2-2.1zm1.2-7.9l-2.2 1.4.4.2h-.6l.6 1.5.5-1.1 1.4.8-1.5 1 1.2.7-.9 1.3 1.5.9-.5-2.1.4.3-.2-2 .2.1zm-.7-1l-.9-1.7-1 1.5 1.8.2.1 1.2.9-.4zm-1.4 40.5l.3 1.8 1.1-1.3zm-1.8-11.9l-.7 2 .7-.1-.4.9v.1l1 2-.9-.3.4 1.9 1.1-1.4-.6-.2.9-2.1h-1.5l.6-.2-.6-.7 1.5-.2zm-.2-2.5h.5l-.6-1.1-.4 1.2h.1l-.8.4.6.3-.2.5h-.3l.8 1.6.5-1.3 1.1-.1zm1.9 6.3l2-.3-.6 1.6-.4-.4-.7 1.9 1.9-.3 1.3.7-.1-2.5-.4.3-.7-1.9-.2.5-1.4-1.5-.7 1.9zm2.2 1.4l-.4.3-.3-.3h.7zm-.5 18.4l-1 1.1 1.6.5zm-.4 4.1l.2-1.1.2.6.4-.4.3.5.3-.6-.6.1.5-.5-1-.3-.4-.1.1.2-1 .2z"/><path d="M272.4 311.6l-1.3 1.6 2.2.5zm2.2 11.1l-1 1.2 1.8.5-1.9 1.7 1 .4-1.3.3 1.2 1.2.4-1.3 1.1.6-.1-3.3-.2.2-.4-1.1.6.5v-2.3l-1.8.9zm1.9 27.1l-.6.5-1.9-1.6v2.1l-1.3-2.3-1.1 2.9 2.4-.1-.1.5 1.4-.6 1.3.8-1.6.9.8.3-1.1.8 1.1.7-1.2 1.1 2.4 1.2-.1-3.2-.5.4v-.7l.5.2-.1-1.8zm-2.4 24.6l-1.3-.4.2 1.3zm-.8 3.9l1.1-1-1.2-.2-.2-.3.5-.4-1.8-1 .2 2.2.6-.4-.1.1.7-.2zm-5.4-3.1l-.8 1 1.5.3zm3.4 6.8l.7.9.5-1.1zm3.3-9.8l-.1 1.2 1-.4zm2.8 17.4l-1.8 1.6 1.4.8-1.2 1 1.6.8-.1-1.7.1.1zm-1.2 8.3l-.2.7-.2 1.1 1.5-.4-.2-.2.6.3-2.1 2 2.4 1.2-.1-3.1-.1-2.6-1.4 1.4zm-5.6-2.1l-.3 1.8 1.5-.4zm1.6 3.9l-1 .3.9.9zm2.9 2.2l.1-1.3-1 .4zm-2.2 2.4l.9-1.9-1.9.5zm1.2-.5l1 1.5.9-2zm3.3-9.7l-3 .2 1.3 2.5z"/><path d="M267.5 391.3l1.4.3-.7-1.3zm5.5 5.4l-1.1.3.6.9zm5 8.5v-.1l-.1-2.3-1.5 1.4-.6-.2.1.9.4-.3 1.5.7-1.3 1.1.9.7.5-1.7h.1zm-1.9-35.4l.7-.1-.3-.4V368l.3.4v-2.7l-.8.6-.9-.9.3-.1 1 .5-.1-.9.2-.1-.2-.1v-.8l-.5.3-.1-.1.3-.7h-1l-.8-.7-.1.8h-.2l.2.2-.1 2.1v.1h.1l-.1 1.8 1.4-.6.9.8-.6.4-.2-.3-.1.4-.7.4.6.2-.2.7-.7.4 1.5 1-1.2 1.1 2.1 1.1-.9.7-.3-.3-.1.6-.2.1.2.1-.1.2-.1-.2-.1 1v.2l-.1 2.1 1.4-.6-1.1.8.5.3.1.6-2.5.1 1.2 2.5 1.7-2.4h.6l-.3-.3.4.2.1-2.1h.1l-.1-.1v-.1h-.1l-.1-1.1-.6.3-.3-.4.8-.1.2.1v-5.4l-.9.7zm-5.7-64.7l-.5.4.9.4.5 1-1.5.9 1.5.7-.2.2-.6.1.7 1.3h-.6l.3.5.3-.5.2.2.4-1.1 1.3.3-.9-2.1-.8 1-.1-1.5.3-.6.8-.3-.4-.6.2-.5h-1.9zm-2.4 3.2l.6-1.2.5-.4-.5-.4-.1.5h-1.2zm-2.5-4.1h0l1.1-.1-.1-.2.3-.1-.8-1.1-.6 1.5zm.3-3.5l-.4 1.1 1-.3zm3.8 5.3l-.4 1 1-.3zm-.7-14.5l.5 2.3 1.1-1.5v1l.8-.4-.7-.6.2-.3zm.7-9.7l-1.1 1.6 2.2.4zm-.5-15.4l.7-1.1-1.2.1zm-.7 35.7l-.2 1.2 1-.2zm-6.3-.5l.7-.8-.9-.3.2.8-.2-.5-.5.7h.7zm1.5-5.7l-1.1.6.8.7zm-.5 13l1.6-.7-1.6-1.3zm9.9-25.2l-.7 1.1-1.7-.7.2 2.4 1.5-1.6-.2.3 1.7.1-1.8 1.5 2.8.9-.1-3.1-.7.5zm-10.6 18.2l-1.7.6 1.4 1zm4.4-31.2l.5-.9-.9-.1zm-3.1 28.2l-.2.1-.1-.1v.1l-.8.3.6.7-.2.9 1.8-.3-1.2-1.4zm7.8-37l1.9 1.3-.2-2.3zm-2.1 7.8l-.2-2.2-1.7 1zm-4.3 37l.4-1.6-1.3.3zm-3.5-.8l-1.1.4.7.8z"/><path d="M261.2 309.8l.8-.2-.4-.6zm5.7-5.9l1 .2-.2-.9zm-4.4 6h-.9l.5 1zm-1.1-5.3l.9.5v-1.3zm5.8 18l-1.7-1.2.1 2.1zm-5.8-2.8l-.3 1.3 1-.5zm-1.6 10.7l1 .6-.2-1.2zm9.6-15.2l.1 1.2.9-.5zm-6.1 1.4l.4-.9 1.2.9.3-1.6-1.7.6.1.1h-.8zm3.2-4.6l-1.1.4.7.8zm.8 4.4l1-1.8.5-.4-.7-.4v.6l-1.6-.2zm-3.7 5.3l.4-1.2-1.1.4zm1.8 2.2l-.3-.4.2-.5h-.9l.4.8-.2.4zm5.6-1.2l.1 1.3.9-.5zm-6.9-5l1 .5v-.4h.1l-.1-.4v-.5zm3.1-35.8l1.7-.6-1.6-1.4zm4.3-3.1l-.8 1.5 2 .1zm-.3-3.2l.4-1.6-1.7.5zm3.4 8l-.1-2-1.9 1.3zm-9.4 52.2l-1.1.4.7.8zm4.5-58.5l2.1.2-1.2-1.7zm-.7 59.8h-1.4l.9 1.2zm-5.8-5.7l-.4 1.3 1.1-.5zm-1.7 10.7l1.1.6-.2-1.2zm9.2-13.3l-.5-.4-.5-.8-.6 1.2.6-.2.2.8zm-2.9-6.2l1 .1-.3-.9zm-3.8 6.5h-.8l-.8.7 1 .2-.2-.7.4.7zm1.1-8.2l-.3-.9-.7.8zm-4.8 6.4l-.9.1.6.9zm-1.3 9.4l.8.4-.1-1.1zm9.4-78.8l-1 .7.9.6zm-.4 18.7l.8.8.3-1.3zm-.4 17.8l-1.1.5.8.8zm3-35.1l2.6 1.2-.2-2.6zm-1.7-35.2l-1.7.1 1.1 1.3zm3.8 39.7l-.1-.7-.8.6.8.2-1.7 1.3 2.7 1-1.6 1 1.9 1.3-.2-2.3h-.1l-.2-2.9z"/><path d="M270.3 252.1l1.4-1.7-1.8-.5.4 2.2-.6-.9-1 1.7 1.5.1-.2.1 2.5 1.1-1.8.6 1.1 1.1-.3.5-.9-1.4-.8 1.3-.3-.4-1 1.7 2.2.2-.6-1 1.1.1-.1.1 1.9.2-.6-1.1.2-1.9h.2l-.2-2.9-1.9 1.4zm-4.4-1.1h.1l.2.3.2-.3 1.8.1-1.2-1.9-.8 1.3-.4.1.2.3zm.5 2.7l2.2.2-1.2-1.9zm3.9-12.7l1.7 1.1-.2-2.1zm1.3-4.2l-.2-2.1-1.5.9zm-2-6.5l-1 1.5 1.9.3zm.5 8.5l1.9.3-.9-1.7zm-.7-20.8l-.9 1.4 1.9.3zm-.6 16.6l.6 1.5.7-1.4zm-2 19.3l.5 2.3 1.1-1.5v.9l.8-.4-.7-.6.1-.2zm-.7-8.1l2.2.3-1.1-2zm1.1-18H266l.5 1zm3.3 18.1l-.6 1.2-1.7-.7.3 2.4 1.1-1.3h1.7l-1.7 1.5 2.8.9-.2-3.2-.7.6zm.7-14.7l-.2-2.3-1.7 1zm-.4-5.6l-.2-2.3-1.7 1zm-.2 17.1l-1.2-1.6-.8 1.5zm-2-4.6l.4-1.6-1.7.5zm1.5 7.1l2 .7-.2-2.1zm-2.5-5.6l2 .1-1.1-1.6zm-.6-1.2l-1.1.5.7.8z"/></g><path d="M226.036 348.693l33.488-125.51 1.353.36-33.488 125.51z" fill="#7780b7"/><g fill="#303060"><path d="M198.2 397.2l.8-1-1-.2zm8.5-16.1l2 .7-.3-1.8zm3.3 13.8l-1.8-1 .5 2.2zm-1.9-5.5l.4 2.1-1.7.8 1.9.9-.1-1.8 1.2-1zm-1 5.5l-1.8 1 1.9.8zm3.3-19.6l1.7-1.2-1.6-.8zm3-10.9l-.2 2.1 1.8-1.2zm-8.7 17l-.2 2.1 1.8-1.1zm.4 4.9l-.3 2 1.8-1.1zm17.6-26.3l.4-1.7-1.5.4zm-7.8-4.1l-.1 1.8 1.4-1zm-8.9 36.9l-.1-1.5-1.5.8zm-1.1 3.9l-1.7.9 1.9.9zm.4-1.7l-.7-.7-.3 1.2zm2.6-11.8l.8-1.2-1.3-.1zm5.9-11.9l.4 1.3.9-1.1zm-5.7 14.7l.8-1.2-1.2-.2zm2.4 6.6l-1.1.6.6.2-.4.1 1.7 2.5-2.6.5 1.2 1.8h-.2l-1.5-.9v.1l-.2-.2-.1.5-2.3-.8.1 1.3.2 1.8 1.8-1.7-.6 1.9.6-.2 1.3 1.4-1.6.3v-.4l-1.1.6 1.1.5 1.3 2 1-3.1-.6.1.6-1.6-1.9.2 1.7-.8.6.8.9-2.1-.3.1.6-2.1.9-3-1.7.3zm-9.2-5.4l-.1 1.2.9-.3zm11-8.8l-.6 1.1 1.5.1zm1.4-2.6l-.5 1.1 1.3.1zm1.9 5.9l-2.4.4.8 1.3-2 .5 1 1.1h-.2l1.4 1.4-1.5.4-1.2-1.1-.1.5-2.3-.8.4 3.1 1.7-1.8-.5 2 .5-.2 1.4 1.4-1.6.3-.1-.4-1 .6 1.1.4 1.3 2.1.9-3.1-.5.1.6-1.6-1.9.1 1.7-.7.6.7.8-2.1-.2.1.6-1.6-1.4.1.6-1.4.8 1.3.8-2.9.1.1.6-2.1-1.9.3zm1.3-3l.6-2.1-1.9.4zm-5.7 2.6l-.9 2h.2l-.1.8 1-.3-.6-.6 1.6-.3z"/><path d="M211.4 378l2-.5-1.3-1.6zm-4.8 15.2l-.8 2 2-.5zm.2-28.8l-1.1.4 1 .6zm7.1 3.7l-.5.8 1.1.1zm-12.2 26l.8-.1-.6-.7zm-1.5-4.7h-.8l.3.6zm6 1.7l-.2-.7-.5.4zM193.7 371l-.7.1.5.7zm1.4 7.2l-.5.5.8.1zm13.4-2l-1.5-.2.5 1.2zm5.4-3.7l-.3-1.2-.8.6zm-.5 8.5l-.3 1.1 1.1-.5zm5.1-29.9l-1.2.5.8.7zm4.8-.9l1 .1-.6-.9zm-1.7 10.1l-.4.1-.5-3-.4.6-.3-1.9-1.2 1-.3.1-.1-.6-.8.6 1 .6v-.2l.3.3.2-.4 1.1.6-1.5 1.7h.2l-.8.9 2.4.8-.5.9 1.5-.8-.6-.2-.4-1 .3.1.7 1.1.4-1.4-.2.1.5-.7-.9-.1zm-12.1 7.5l.4-.4.1.2.8-.8-1.2-.2.2.4-.7-.1zm1.3 11.2l-2-.3.6 1.7zm-.8-15.7h-1.2l.4.9zm6.2-11.7h-.1l-.2.1-1.2.8 1.6 1.2-.5.1.7.8.5-1.1-.7.2zm9.2-5l1 1.6-1.6.2 1 1.8.8-2h-.1l.6-1.8zm-4.9 3.8l-.1-2.1h-.1l.1-.1h-1l.2.6-.7.4zm7.8-14.8v-.1.1l-.5.5.3.1-.1.4h1l.6.3-.5-2zm2.3-5.1l1.6-.3-1.2-1zm.7 3.7l.7-1.7-2 .1zm-34.6 53.3l.1 1.2 1.2-.5zm7.9-2.1l-1 .3.8.8zm-3.6 8.9l-.6.9h1.2zm26.9-50.8l.4-.9-.9.1zm-13.8 36.6l2.8-1.2-2-1.9zm14.5-38.6l.8-2.3-2 .3zm-1-.7l-1.8-.9-.1 2.4zm-11.5 24.3l1.4.1-.8-1.2zm1.1-2.8l-.5-.4-.1.1-.4-.5-.8 2 1.2-.2-.3.4 1 .1-.3-.7h.4l-.4-.5.3-.2 1.2.1-.7-1.2zm3 .1l.8 1.1-1.1-1.1-.6 2v.2l-.3.9.2-.1v.2l-.1.1.1.1-.1.6.3-.2.7 1-2.4.3.2.2-2.2-.7.3 3.1 2-2 .6.8-1.7.5.5.6v.6l-.6.1.5.5v.5l.3-.2.6.6-1 .5-1.2-1.1-.4 1.6-.3.1.3.3-.3.9-.9.6 1.1.4-.1.6.7-.4.3.1v-.2l.4-.2.4.5.3-.8.7-.4-.5-.4.1-.1h-.2l-.5-.4.4-.2.7.8.7-2.5-.7.3.5-1.4.3-.2-.6-.4.4-.8.6 1 1-3.1.6-2-.2.1-.7-.4.5-.3.4.5.4-1h.1l.1-.1h-.1l.6-2z"/><path d="M212.3 362.4l1-1-1.5-.1zm5.4 5.1l1-.4-.7-.7zm7.1-15.1l-.7.1v-.1l-.1.1-1 .1.7-.4-1.3-.8.2 1.2-.3.1.2.3-.8-.1.3-.9-1.1.4.4.4h-.4l.5 1.7 1.2-1.3 1.3 2.1-.6.1-1.1-.7-.1.9h-.2l.1.2v.7l.3-.3.4.8-1.8-.3.5 1.8.2-.2v.3l1.4-1.1-.4-.2.2-.2.4.7.8-2.5.4-1.3h.3l-.2-.3.4-1.2.1.1.8-2.4-2.1.2zm-28.3 33.7l-.5.8 1-.1zm-3.2 5.2l.5-.6-.8-.3zm-1.2-7.7l-.7.5.7.3zm3.2 9.7l.5.9.3-1zm-.8 15.3l.8-1-1-.2zm11.8-2.1l-1.7-1 .4 2.1zm-1.8-5.6l.4 2.1-1.7.9 1.9.9-.1-1.8 1.3-1zm-2.9 6.5l1.9.8v-1.8zm2.6 3.6l1.8-1.1-1.5-.9zm-2.7-13.2l-.2 2 1.8-1zm.8 5l-1.5.8 1.6.7zm-2.9 6.3l2 .9-.1-1.8zm2.6.7l1.2.7-.2-1.4zm-.3-3.3l-.8-.7-.3 1.2zm5.2-2.3l-1.1.5.5.3h-.3l1.6 2.6-2.6.5 1.6 2.3 1-2.8.1.1.9-3.1-1.7.3zm-9.1-5.5l-.2 1.2 1-.3zm4.3 8l2.1-.5-1.3-1.5zm-4.1-1.1l.8-.1-.5-.8zm-1.9-4.2l.5-.5-.7-.1zm6.4.5l-.6.4.7.3zm-9.3-3v1.2l1.3-.6zm7.9-2l-1 .2.8.9zm-4.4 9.8l1.2-.1-.5-.9zm-3.7-9.3l-.5.9 1-.1zm-3.3 5.2l.5-.6-.8-.2zm-1.1-6.9v-.8l-.7.5zm3.6 9.8l.3-1-.9.1zm35.4-106.4l-.8.8.9.4zm3.9-3.8l-1.7-.3.8 1.5zm2.1 24.7l.5-1.7-2 .3zm1-3.9l.4-1.7-2 .3zm-3.6 12l-2-.6.9 1.9zm-4.7-9.2l-.3.4.6.2.1.2 1.1-1.3-2-.6zm7.6-9.9l-2-.4 1 1.8zm-.5-2.9l1.1-1.4-2.1-.5zm6.8-12.2l.9-1.2-1.7-.4zm-15.4 32.7l1.8.2-.8-2zm3.4 7.4l1.8.3-.8-2.1zm-4.6.5l-.4.7-.7.7.3.1-.2.2 1.8.3zm-10.3-12.2l-.9 1.8 1.8.2zm11.1-5.9l1.8.1-1-1.9zm2.8-3.9l1.8.2-.9-2zm1.4 26.8l-.8-2-1 1.7zm-3.9 8.7l-.9 1.5 1.4.2zm-3.9-5.6l-.9 1.6 1.5.1zm18.3-41.8l-.7-1.6-.3.6-1-.8v.6l.1 1.5v.7l.9-.4-.6-.5.2-.1h1.4zm-1.2-.7h0zm-.3-1.5l-.7-1.6-.8 1.6zm7.3-20.7l-.5-1.8-.9 1.4zm-.6-3.7l-1.6.4.9 1.2zm-2.6 9.3h1.4l-.7-1.6zm-3.4-3.3l-1 .2.8.7zm2.5 1.9l.2-.9-.9.2zm-1-2.1l-.2 1 .9-.4zm3.9-.9v.4l-.7.2.5.4.3.2.1-.4.5-.3zm-7.5 23.7l.2.4-.8 1.6 1.8.2-.3-.8.8-1zm-3.6.7l1-1.4-2-.5zm8.4-18.7l.7 1.3-.3.8 1.1-.1-.4-.9.6-.8zm-7 17.9l.5 1.1.9-1.1zm1.7-.9l1-.2-.6-1zm.2-7.1l-1.1.4 1 .6zm-17.5-4l-.7.6.7.4z"/><path d="M221.4 287.5l-.8-.2.4.7zm-6.4-.7l-.3.7.7-.2zm21.1-3.8l-.9-.4.1 1.1zm-11.5 46.2l-.6 1.2 1.3.1zm2.7-6.5l-1.1.1.9.9zm-9.7 2.7l-.1 1.2 1-.7zm10.4-7.2l-.1-1.4-1.1.8zm-.5 11.6l-1.1.8 1.2.6zm2.1-13.7v-1.5l-1.1.9zm6-6.4l-1.1-.2.4.7h-.1l.6.9.5-1.2-.5.2zm-1 2.6l-1.2-.2.5 1zm-9.2-3.6l-.5 1.1 1.2-.3zm4.9 8.6l-.5 1.1 1.2-.2zm-14.7 2.6l1.3-.6-1.2-.7zm4.8-7.5l-1.2-.1.6 1zm8.6 11l1.3-.5-.9-.6v-.7l-1.3.4 1 .7zm1.1 2.5l-1.2-.7-.1 1.2zm-.5-1l1.3 1.4.7-2zm-11.4 6.3l-1.1-.1.6 1zm2.1 15.3l.2-1.2-.9.2.2.4-1.9-.2.6 1.7 1.3-1.5zm4.7-14v1l1.1-.4zm4.7-2.7l-1 .2.7.9zm-8.1-12l.9-.4-.9-.4zm3.1-4.8l-.8-.1.4.7zm3.6-8.7l.8-.3-.6-.6zm-3.6 1.4l-.5.3.6.5zm5.4 3.4l.5-.5-.7-.1zm-3.1-16.7l-.2.9.8-.3zm-3.7 3v-.5l.6-.1-.6-.7-.3.7-.3.2zm5.4 2.7l.5-.5-.8-.1zm8.5-4.6l-.3.8.8-.3zm-3.8 3v-.8l-.6.3zm5.4 2.7l.5-.6-.7-.1zm.9-11.9l.1-.1.7.6.3-1.1-.7.1-.2-.3-.1.3-.4.1.3.2zm-3 1.3l-.4.2.5.4zm4.3 2.7l.5-.5h-.6zm-25.9 6.5l-.9-.1.4.9zm0 9.1l.8-.1-.6-.6zm6.7-3.7l.1-.8-.7.4zM210.4 318l-.7.2.5.5zm4.6-4.4l.5-.4-.6-.4zm6.1 22.4l-.4.2-.2-1.4-1.7 1.9 2.2.7-.1-.2.4.2zm1.7 8.6l.8-.8-1.1-.2zm.5-22.9l-.1-.4-.8.9 1 .3-.1-.6 1 .7-.2-1.5zm3.3 7.2l-1.1-.3.3 1.1zm4.8-8.3l-.4 1.1h1zm-9 30.7l.4-.8.5.4-.2-2.1-1.4.9.6.5h-.4zm-.2 3.1l.9-.2-.7-.7zm2.1-15.1l-.3.9h.9zm-4.2-12.1l-1.4 1 1.8 1zm-.5 6.5l-.3.2h-1l.5 1.1.4-.5.6.4zm1.9-2.1l-.2.1-.1-.6-.8.5.6.3-.3.2 1 .7zm-.5 19.7l-1.9-.2.5 1.7zm2.2-6l.3 1.1-.7 1.3 2-.3-.6-1 .9-.9zm-5.9-.3l.6-.1-.4-.7zm-1.1-19.6l-1 .8 1.4.8zm9 .1l-.8-1.2-.4 1.3zm8.5-23.8l1-.6-1.2-.8zm-1.4-8.6l-.8.8 1.2.2zm-5.5 7.7h-1l.6 1zm9.5 6.4l1-.6-1.2-.8zm-1.3-8.6l-.9.8 1.1.2zm-5.6 7.7h-1l.6 1zm1.4-2.7l-.8 1 1.5.3z"/><path d="M236 292.1l-.9.8 1.2.2zm-5.6 8h-1l.5 1.1zm3.4-1l-.1-1.5-1 1zm4.2-5.9l.6-.8-1.2-.3zm-9.5-1.6l-.5 1.1 1.2-.2zm6.3 1.1l-.1-1.2-.9.8zm3-5.8l.3.6-.5.4 1.1.2-.1-.7.2-.3zm-7.4-.4l-.4.9 1-.2zm8.6 5.9l-.6 1 .9.2zm2.9-4.3l.4-.8h-1zm-8 .3l-.2 1 .9-.4zm5.7 7.4l1.1-.6-1.2-.9.1 1.1-2 .3 1.2 1-.5.2 1.2 1.1.5-1.5-.7.1.3-.9zm-7.2.4l.5-1.1h-1zm1.5 10.3l.1 1.4 1.1-.6zm-8.2 21.6l.2-1.2-1.3.3zm6.5-28.2l1.2.4-.2-1.1zm-5.5 7.6l.5-1-1-.1zm-8.1 48.9l-.7-1.7-.8 1.5zm-7.5 4.2l.8-.5-.8-.5zm-3.4-2.9l-.1 1.1 1.1-.5zm5.4 2.8l.8.3-.1-1zm-2-7.4l.5-.8h-1zm-1.2-2.5l1-.6-1-.5zm3.5-5.8l.5-.7-1-.1zm14.3-10.3l-.4-2.1-2 2.4 2 .6v.2l.2-.2.3.1v-.2l.6-.4zm-8.3 29l-1.4.4 1.2.9zm-2.2-20.4l.6 1 .4-1zm22.7-55l-2 2.3 2.5.8zm-7.9 25l-2 2.4.4.1v1.2l1.1-.6-.5-.4 1.6.6zm-4.9 29.7l-.1-.1 1-.3-1.2-.8-.1 1-2.4-.7.4 2.8.5-.4-.1 1.6 2.6-2-1.2-.6z"/></g><g fill="#29295b"><path d="M242.6 217.6l-1.6.9 1.4.8zm13.2-.3l.5-1.5-1.5.6zm1.5-5.1l1.4-.1-.8-1.3zm4.4-3l2.9-1.2-1.1-1.6zm-4.8 5.2l.6-1.2-1.6.1zm-18.3 4.8l1.4 1.4.6-1.5zm-17.5 4.4l.7-1.6-2 .2zm32.1-10.2v-.5l-.7.4.2-.8.1.5.7-.6-.8-.4.1-.9-.4.1-.3-.2-.1.4-.6.1.3-1.2-1.5.6 1 .7-1.3.4 2.6 1.8v-.4l1.1 1.1.6-1.2zm-3.4.8h-1.6l1.1 1.2zm-7.7 16.3l.9.2-.2-1zm-.2-5.9l.1.7.8-.3zm6.7 4.8l.2-.9-.8.2zm-18.4.7l1 .2-.2-1zm.7-5.5l-.8-.4v.7zm5.8 4.4l.2-.9-.8.2zm-3.8-1.3l.9.2-.2-1zm-.2-6v.8l.8-.4zm6.6 4.8l.2-.8-.8.2zm2.7-4l1.8-.9-1-.4.2-.2-1-.4.1.2h-.2zm3.7 2.1l.2-.9-.7.3zm-7.1-3.8h-1.1l.7.8zm-1.5-2.5l.6.4.2-.9zm3.1 3.9l1.3.2-.5-1.4zm9.8-.2l.7-.6-1-.4zm-4.4-3.7l-.8.4.7.5zm6.5-2.5l-.3.6h.9zm-.8.7l.4-1.4-1.5.5zm2.3-3.5l1.5-.5-1.4-.9zm.4 1.9l.4 1 .6-.7zm-.9 3.6l.1-.8-.8.4zm-8.4-3.6l-.2.5-.1-.1-.3.7.9-.1-.2-.2h.3zm4.5 2.1l-.1-.9-.7.6zm-7.3-1.1l.3-1.5.2.2.2-1.8-1.6.9 1 .6-1.5.8zm2.5-4.6l-2.2 1.2 1.8 1.1zm-14.9 7.9l-.4 1.8 2.1-.5zm7.8 3.2l.8-.6-1.1-.4zm-4.4-3.7l-.8.4.7.4zm6.3-1.8l.9-.2-.7-.6zm-23.4-4.6l.9-.1-.7-.6zm30.3 9.9l.6-.5-.8-.3zm2.2 1.8l1.1-.8-1.4-.7zm-4.5-1.1l.6-.5-.8-.4zm-5.5.2l-.2.6h.7zm-34.9 8l1 .2-.2-1.1zm-.1-5.2l.8-.4-.8-.4zm6.6 4l.2-.9-.8.3zm-6.7-8.6l.1 1.7 1.8-.9zm3.9 3.9l.1-.9-.7.2zm-7.2-3.8l-1-.1.6.9zm2 .6l.2 1.1.8-.6zm-4.3-1.8l.1-.9-.8.5zm4 .4l-.8 1.1 1.3.1zm5.6 1.3l.2.8.6-.4zm3.5 1.8l-1.4-.7.3 1.5zm-5.6-.3l.6-.5-.8-.3zm-5.7.9l.7-.1-.5-.5zm21.3 5.9l.9.2-.2-1zm-.2-5.9v.7l.8-.3zm6.8 3.9l-.8.2.6.6zm-15.9-.8l.9.2-.2-1.1zm6.6-2.1l-.7.2.6.7zm4.3-4l-1.8-.8v1.6zm-14.7-.1l1.8-.8-1.9-.8zm16.9 2.2l-.8.2.6.7z"/><path d="M216.7 221.3l.5-.8h-1.1zm3.9 13.6l.7-.7-1-.3zM216 232l.2-.8-.8.4zm6.4-2.7h.9l-.6-.7zm2.2-7.4l.6-.5-.7-.4zm1.9.3l.3 1.4 1.1-.7zm-4.4-.5l.3.8.5-.5zm-5.5 1.7l.8-.1-.5-.5zm-10.1-2.7l.5-1.5-1.6.5zm2.8.5l1.5 1.4.5-1.2v.8l.8-.4-.8-.4.4-.9zm25.8-1.5l1.4.2-.5-1.5zm-7.3 8.7l.2-1.4-1.2.4zm-12.6-7h-1.7l1.1 1.3zm14.9-5.1l1.4 1.8.8-1.8zm-7.5 10.9l1.3-.6-1.4-.5zm-14.5 2.2l1-.9-1.3-.2zm12.8-9.9l-.7-.6.4-.2-2-1.3-.3 2 .5-.1-.1.5zm3.8 6.3l.9-.8-1.3-.4zm-8.8-2.1l-1.8 1.1 1.6.9zm9.4-5l-.1 1.9 1.7-.7zm-1.5 1l-1.8.7 1.8 1zm7.5-1.8l-1.9.7 1.8 1zm-32.7 2l1.7-1-1.5-.9zm-2-1.6l1.8-1-1.6-.9zm36.5-1.1l-.4-.2v.7l.4-.1-.1.6 1.8-1.1-1.6-.8zm12.5-2.1l-.2 1.9.6-.4.1.8.6-.4-.7-.4 1.1-.7zm-2.3 3.5l-.2 1.2 1.2-.6zm7.6-5.5v.5l-.1-.1v.8l.1-.1.2.7 1.1-.8-.6-.2.3-.2zm-33.7 9.5l1.2-.7-1.1-.5zm-15.7-4.6h.2l.3.1v-.1h.1v.2l-1.1.7 1.5.8.2-1.6h.1l-.1-.1v-.2l.2-.1-.3-.1.7-.4v1l1.1-.5h.3l-.9.5.8.5-1.6.6 1.8 1 .1-1.4 1.1.6.3-2.7-.9.5-.3-.8-.5.7v-.1l-.3-.3-.1.2-.3-.2.3-.2-2.4-.7.1.5-1.5.9 1.1.6zm-2.2-.6v-.2l.1.2.2-.4.4.7 1.7-2.2-2.3.1v-.1l-.1.1h-.5l.1.2-1.3.8 1.7.8zm.1-1l.1.1h-.1v-.1zm-3.8-1.5l1.5.9.1-.6.1.1-.1.4 2.8-.4-.7-.6.4-.2v.3l1.1-.6-.5-.1-1.5-.9-.1 1-1.2-1.2.9-.5-1.6-.8-.1.5-1.4-1.5.1 3.4 2.4-.3-.3.9-.3.1.1-.9zm19.6 3.1l-.8 1.7 1.8-.1zm-2.4-.9l1.1.6v.2l.1-.1 1 .5.3-2.6zm45.9-7.9l-2.1.6 1.9 1.3.1-1 1 .8.5-1.5-1.5.6zm2.6 1l.2-2-2.1.6zm-26.7 6.7l1.9 1 .2-2.3zM216 227.5l1.2-.1-.9-.8zm14.4.1l1.1-.9-1.4-.6zm-6.2-5.4l-1.1.6.9.6zm9-2.5l1.3-.1-.9-.9zm24.3-13.3h-1.8l1 2.1zm-1.3 4.7l-.3-.2v.3l-.3.1.2-1.2-1 .3-.8-.2.2.4-.6.1 1.3.9h-.1l1 .9v.2l1.5-.7-1-.8v-.2zm1.5-3.7l.9.8.5-1.4-.7.2-.6-.6-.5 1zm-.2 1.1l-1.6.1.1.1-.8.4.7.4.1-.8.9 1zm-18.6 5.9h0-.3l.4.4.1.6.2-.2.7.6.6-1.5zm15.3-5.9l-1.6.1 1 1.2zm-21.3 14.4l.9.2-.2-1zm6.4-1.1l.2-.9-.8.2zm3.5-5.4l.2-.2-1-.4.1.3-.2-.1.1.5-1.5-.7-.2 1.9 1.7-1.1v1.1l1.8-.8zm-5.3-.4l.7.9.4-.9zm.2-2.1l.2-.8-.8.4zm12.3 3.4l.7-.7-1-.4zm-4.4-3.8l-.8.5.7.4zm-.9-3.3l-.2.4-.1-.1-.3.7h.9l-.2-.3h.3zm3.7 1.8l.8.2-.1-.8zm-7.9-1.7l1.4.8.1-.3.7.8.7-1.6-1.3.1.1-.7zm-.9 1.1l-2.2 1.2 1.8 1.1zm-3.9-1.1l-.4 2.3 2.7-.6z"/><path d="M236.1 213.7l.6-.2-1.4-.9-1.6-1-.1 1.1-1.5.8 1.3.7-.1.3.4-.1.3.1v-.2l1.4-.4-.4 1.7 2.7-.7zm12.1 5l-.6.2 1 .8v-.7l.8-.6-1.4-.6zm-4.4-.6l.6-.5-.8-.3zm-38.9-5.4l-.6-.7-.3.8zm3.8 2.9l-2.4 1.4 1.1.6v.4l.3-.2.7.4zm3.4 6.2l-.7.8.4.1-.7.1 1.3 1 .3-1.3-.4.1zm5.2-1l.6.6v-.3l1.2.6.1-1.7-1.8.8zm-.1-5.1h-1.1l.6.8zm7.3.6l.1.8.6-.5zm2.8 1.5v-.3l-.3.2-.5-.3.1.5-1 .7 1.5.8.1-.8.7-.5zm-4.9 0l.5-.5-.8-.3zm-5.5.3l-.3.5h.8zm-9.9-3.7l-1.6.5 1.1 1zm2.3 2l1.5 1.4.5-1.1v.7l.8-.4-.8-.4.4-.9zm19.1-2.2l-1.6 2.2 2.5.3zm-15.7 3.5l-1.6.3.7.6-1.1.3.1-.4-1.6.4.1-.9-1 .4.9.8v-.3l1.3 1 .2-.9 1.5 1.3.8-2.1-.5.1zm-10-4.6l-1.7 1 1.5.9zm24.4 1.5l.2-1.9-1.7 1.1zm-7.9.7l-1.9.7 1.8 1zm-14.4.3l.1-1.5 1.1.6.2-2.3 1.5-.7-1.8-.8v1.3l-2.1 1.3.8.5-1.6.6zm27.2.6l1.8-1.1-1.6-.8zm19.9-7.4l-1-.5-.1 1.2zm-34.6 7.8l-.1 1.2 1.2-.7zm-21.7-6.4l1.5.8.2-1.5h.3l-.3-.3v-.1.1l-2.7-2.7.2 3.4 1.6-.2zm67.6-3.8h-4l1.1 2zm3.9 5.8l1.4-.1-.8-1.3zm-.3 2.2l.5-1.2-1.6.1zm.6-8h-1.9l1 2.1zm.1 1l1 .8.4-1.4-.6.2-.7-.6-.5 1zm-.7 2.3l.5-1.2-1.6.1zm-40.2 7.3l-1.4-.6.4 1.4zm-.4-9.4l1.4.4-.3-1.5zm21.8-1.3h-3.6l2 1.7zm-7.3 2.5l-.8.4.6.4zm12.9-.9v.3l1.5-.5-.7-.4.4-.3-.2.4.9-.1-.5-.5.7-.4H253l.2 1.8zm-35.8-.4l-.6 1.2h1.6zm22.4.9l1.8 1 .3-1.7h.5l-.4-.5h-.1v-.1l.7-.8-3.1.1 1.4 1.4zm-.4 3.9l.3 1 .7-.6h-.1l.2-.2.1.1v-.1l1.1-.7-1.6-.8-.1.7h-.1l.1.2v.6zm-4.1-2.7l-.8.4.6.4zm13.8 3.1l-.8-.4.2.8zm-21.5-.4l-.7-.3.1.8zm-22.5-3.5l-1.8 1 1.6.9zM222 211l-1.9.7 1.8 1zm22.7-2.2l.1.1-1 .5 1.4.9.1-1.1.7.5v.8l-.4-.2-.2 1.5-.6-.3.1.3-.2-.1.1 1.7 1.5-.7-.2 2 3.1-1-2.8-1.7-.1.5-.7-.4 1.2-.7.8.9.5-1.2h-1l-.9-.5.6-.3 1.1.7.2-1 .1.1.1-.5 1 1 .5-1.2-1.5.1.1-.3-.3.2.2-1.1 2.1 1.5.2-2.1 1.9 1.3.3-2.6-2.6.7.5-.8-2.7.1.8 1.2-.5.2v-.1l-3.3 1 .1-.1-1.1-.5-.1 1.2z"/><path d="M244.8 207.5l-1.5-.8-.2 1.9.9-.5zm-44.2 0l1.5.9v-.1l1 .9.4-.8 1.3.7v-.6l.1.3 1.4-.8.7.9-.4.3.8.5-1.6.6 1.8 1 .1-1.5 1 .6.3-2.7-.4.3 1.6-1.7-5.1.1.6.8-1.1-.4.1.6-.9.5.8-1.5H200l1 .8zm-2.7 1.2l-.7 2.3 2.5-.3.1.1-.1.1h-.2v-.1l-.1.1h-.5l.1.2-1.3.8 1.6.8.1-1 .7 1.2.2-.3 1.6.8.1-.6v.3l.1-.1v.1l.1-.1 1.8-1.1-2.3-.8.1.5-1.5.8 1.4-1.8h-.1l.6-.4.5-.1-.2-.1.4-.2.2.9 1-.6-1.1-.3-1.6-.8v.2l-.7-.7.4-.3-1.6-.8-.2 1.8-.5.3-.9-.8zm3.4 1.7h.1v.2h-.3l.4-.3-.2.1zm-1.2-1.5l.5-.3-.6 2-.1-.1.2-1.6zm-.2 1.7h0zm18.1-1.7l-.8 1.8 1.8-.2z"/><path d="M209.2 208.1l.8 2.7-.6.4.3-1-1.5.5.8.7-1.4.8 1 .5-2.1-.4 1 3.3 1.3-1 .6.4.5.5.1-.8.4.3v.4l1.1-.5.7.6.2-.6.2.2v-.1l1.6.9.2-1.8.2.2-.2.5 1.7-.2-.7-1.3v-.1h-.1l-.1-.2-.1.3-.5.1v-.2l1.3-.4-1.7-1 .2-.5-.7.2-.6-.4-.1.6-1 .3.8.8-.1.6-1.9.6-.1-.1.1-.3-.4.1h-.1l-1 .2.7-.6v.3l.6-.5-.8-.4v.2h-.2l.2-2.1.1.5 1.8-1.5 1.3 1 .2-.9 1.5 1.4.2-.6 1.9 1.1.3-2.7-1.2.7 1.6-3.1 1.5 1.8.7-.8-.6 1.4H218l1.2 2.3h-.7l.6.8.4-.8h-.2l1.8-2.1.4.1-.4 1.5.8-.1-.2.2 1.2.3v.3h-.1l.1 1.6.4-.2.1.2-.9.1-.2-.2v.2h-.2l.1.2v.7l-1.7-1 .1-.1-1-.5-.1 1.3.7-.4-.2 1.3-1.3-1.2.1-.8-.7.3.1-.9-2.5 1.5 2.2 1.2.1-1.2.4.3-.4 1.5 1.8-.3v.6h.1v.4h-.1l.1 1.4h-.6l1.3 1.4.2 1.8 1.9-1 1.3-.5-1.6-1.3-.1 1.7-1.5-.6.6-1.5h-.9l1.3-.6-.7-.3.6-.3 1.5.8.1-1.7-1.7.6-1.2-.4h.1l1.6-.5v.2l1.1-.5.2.2.1-.3.2-.1-.1-.1.1-.2.5.9.6-.9-.1 1.8 1.6-.7-1.5-1.2.7-1.2-1.9.1.8-.4-.7-.3.6-.3 1.5.8.1-1.7-1.7.6-1.2-.4 1.7-.5v.2l1.6-.7-1.6-1.3v1.1l-1.8-1.2.8-1.2-1.5.1.4-.7-2.2-.1 1.3 1.8.5-.9.6 1-.2 1.6-.1-.1-.1-.3-.1.1-.8-.7-.2-1.2-1 1h-.1l-.8-1.7 1-1.2H218v-.1h-4.5l-3.2.1 1.6 2.2-2.7-.7zm3.5 6l.1-.2 1.6-.5-.5.3-1.2.7v-.3zm-3.2.2l.2.1-.2.1v-.2zm-.7.2l.4-.3.1.1-.5.2zm6.7-4.6l.1.2-.2.2.1-.4zm-3.3-1.2l1-1.9 1.8 2.6-1.6.5.1-.3-1.4.3 1.2-.9-1.1-.3zm17.1-.4l.3.4-.7.4-.2-.2-.2.4-.2.1.1.1-.1.3-.3-.2-.1 2 1.6-.7-1.1-.9h.5l.8.4.1-1.2.9 1.1-1.3 1.9 2 .2h-1.2l.7.8-.9.3h-.1l.2-.1-2.1-1.3-.2 2 1.5-.4v.1l.1.7-.1-.1-.4 1.8 2.1-.5-1.6-1.2.5-.3 1.1.6.1-1.4.5.6.8-1.7h-.5l-.2-.4 2.1-.5-1.7-1.3-.4 1.8-.4-1 .7-1.3 1.8 1 .1-1.4.5.6.8-1.7H234l1-1.6 1.2 2.2-.2 1.6 2-.6-.3 1.7 2.7-.6-1.3-.9.1-.5.2-.1-.1-.1.3-2.7-1.1.3.2-.4h-3.6v-.1l-3.8.6.3-.6h-4l1.8 2h-.1zm4.5.5l.1.1-.2.1.1-.2zm-1.1 0l.4.4-.8.3.4-.7zm-1.3-1.5l.5.6-.8.2.3-.8z"/><path d="M226.4 208.4l1.1 2 1.5-2.2zm-27.2-1.9l-4.4-.1 2.7 2.2zm28.1-.1l-3.6-.1 1.7 2.1zM203 233.2l1.3.2-.4-1.3zm-.5-7.6l.1 1 .9-.5zm8.7 5.7l.2-1.1-1 .4zm5.9 5.2l1.3.2-.4-1.3zm-.5-7.6v1l1-.5zm8.6 5.7l.2-1.1-.9.4zm.8-2.1l1.5.2-.5-1.4zm-.6-7.9l1.2-.6-1.3-.5zm10.4 5.7l.2-1.3-1.2.4z"/></g><linearGradient id="F" gradientUnits="userSpaceOnUse" x1="278.745" y1="315.859" x2="241.51" y2="297.823"><stop offset=".139" stop-color="#38315f" stop-opacity="0"/><stop offset=".995" stop-color="#38315f"/></linearGradient><path d="M269.1 206.2h-3.9l.3 12.3-.5 2.2-4.8 3.6-1.5 6.5-31.5 117.9 5 49.6 14.5-1.7s3.2-19.5 7.5-35.5c6-22.1 21-47.7 21-47.7l-3.9-80.1-2.2-27.1z" fill="url(#F)"/><path d="M264.7 206.2c0 3.2-.1 10.1-.3 11.9-.1 1.3-2.1 3-3.8 4v-16h-1.4v18.3l1-.5c.5-.3 5.3-3 5.5-5.7.2-1.9.3-8.8.3-12 .1 0-1.3 0-1.3 0zm-57.8 0L191 309.8l-20.9 97 1.3.3c.2-.7 15.7-73.8 20.9-97 3.8-17.4 14.4-93.1 15.9-103.8h-1.3v-.1z" fill="#7780b7"/><linearGradient id="G" gradientUnits="userSpaceOnUse" x1="229.617" y1="247.679" x2="230.895" y2="204.642"><stop offset=".139" stop-color="#38315f" stop-opacity="0"/><stop offset=".995" stop-color="#38315f"/></linearGradient><path d="M187.1 255.2s37.5-11.4 56.1-13.3c15.3-1.6 28.9-.6 28.9-.6l-2.8-35.1h-75.5l-6.7 49z" fill="url(#G)"/></svg>