<svg xmlns="http://www.w3.org/2000/svg" xmlns:xlink="http://www.w3.org/1999/xlink" viewBox="0 0 480 480" xmlns:v="https://vecta.io/nano"><path d="M247.4 307.7s-3.7 23.7 1.2 45l10.7 47.8 4.9 25.2 14 7.9 17-9.1s-4.6-5.8-5-11.4l-5.1-90.5.6-20.3-38.3 5.4z" fill="#eb9c79"/><linearGradient id="A" gradientUnits="userSpaceOnUse" x1="270.785" y1="369.294" x2="307.998" y2="366.807"><stop offset="0" stop-color="#bc5a32" stop-opacity="0"/><stop offset=".99" stop-color="#bc5a32"/></linearGradient><path d="M263.5 309.3l4.3 50.5c1.3 20.2 8.6 69.6 8.6 69.6l16.5-7.8s-3.3-3.4-3.6-18c-.3-14.7-3.9-66.5-4.1-74.2s0-19.7 0-19.7l-21.7-.4z" fill="url(#A)"/><linearGradient id="B" gradientUnits="userSpaceOnUse" x1="266.496" y1="327.656" x2="265.73" y2="312.989"><stop offset="0" stop-color="#bc5a32" stop-opacity="0"/><stop offset=".99" stop-color="#bc5a32"/></linearGradient><path d="M260.6 328.1c11.4-.8 24.7 1.4 24.7 1.4s-.3-6.6-.2-10.8l.6-16.3-39.1 7.8s-.3 5.3-.3 7.9l-.1 13.9s6.2-3.3 14.4-3.9z" fill="url(#B)"/><path d="M263.3 427.1l-.8-10.4 27.8-2.7.7 2.5c.5 1.8 2.2 4.1 2.2 4.1s-7.7 11.3-14.7 11.1-14.4-1.1-15.2-4.6z" fill="#fff"/><g fill="#a05a3c"><path d="M254.7 337.6l1 .6.1-1.3zm7.8 0h-.9l.4 1zm-15.3-4.6l-.2.9 1-.2zm25.6.8l-.3.9 1-.2zm-16.9.5l.2-.9-1 .2zm8 2.7l.6.9.6-1.1zm7 3.4l-.8-.4-.1 1zm-20.6-3.4l-.9-.2.2 1.1zm16.6-1.7l.3-1.1-1.2.1zm-7-.5l.8.1-.3-1zm-11.1 0l.9-.1-.6-.9zm3.5 3.6l1.2-.3-.8-1.2zm6.7-6l-.8.6 1 .6zm-2.7 7l.9.7.2-1.3z"/><path d="M259 332.6l-.3.9 1-.1zm5 7.6l-.9-.1.3 1zm4.7-2.1l.5-1h-1.3zm-6.9-1.1l.8.1-.2-1zm21-3.2l.5-.9-1.1-.1zm-31.16-5.7l.42 1.68 1.32-1.2zm-3.26-3.9l-.1 1.6 1.66-.7zm-.68 7.97l1.5 1.2.46-2.14zm1.97-2.03l.38-1.93-2.07.64zm-3.83-1.84l1.4 1.2.55-2.24z"/><path d="M261.38 325.35l1.2 1.43.87-1.97zm-15.62 1.75l1.5 1.2.56-2.15zm2.74-2.5l1.84.48-.35-2.18zm-.4 2.94l1.73.38-.34-2.08z"/><path d="M246.42 326.45l1.56.8.16-2.1zm4.28-.6l1.48 1.1.47-2.04z"/><path d="M251.86 325.38l1.67.9.05-2.2zm.7 1.66l.5 1.57 1.32-1.3zm4.53 4.9l-.13 1 .98-.26zm-10.3 1.8l.93.44.02-1.2zm6.48-2.14l.24-.9-1 .26zm-6.98.77l.06.9.87-.55zm3-9.32l-3.46.63 2.13 3.37z"/><path d="M251.98 322.57l-3.36.72 2.03 3.38zm4.15-.77l-3.47.53 1.94 3.48z"/><path d="M259.4 321.17l-3.47.54 2.03 3.47zm-12.27 11.33l1.02-1.17-1.64-.6zm5.33-2.65l1.66.8-.05-2.2zm17.4-6.65l1.57 1 .25-2.22z"/><path d="M267.6 326.94l1.56.8.16-2zm-12.3 1.72l.37-1.93-2.07.54zm5.3-5.86l.27-1.92-1.96.53zm-.5 2.74l.37-1.93-2.07.44zm-3.1.3l.37-1.93-2.08.44zm.94 1.96l-.65.84 1.13.43zm6.23 3.38l-.83-.45-.02 1.1zm4.68 1l-.55.74 1 .13zm-9.65-6.37l-.38 1.93 2.17-.55zm1.5 3l-.27 1.93 1.96-.63zm-6.02-.3l-.38 1.93 2.07-.54zm19.02-3.26l-.37 1.92 1.97-.53zm-20.02 7.94l.64-.94-1.12-.33zm-6.32-3.18l.82.35.04-1zm7.6-4.92l-.14.9.98-.27zm10.33 3.12l.26.9.76-.66z"/><path d="M252.78 325.62l2.17.96.1-2.8zm-2.13-1.96l1.47 1.1.36-2.12zm6.05 3.6l1.48-.3-1-1.44zm-7.25 5.5l.46.97.73-1.05zm11.57-9.9l-1.25.9 1.47 1zm1.93-1.03l.2 1.6 1.44-.9z"/><path d="M263.58 322.3l-1.34.9 1.57 1z"/><path d="M264.8 324.12l.94-2.37-2.7.08z"/><path d="M263.05 323.24l.7-2.76-3.17.52zm.3 1.78l1.75.7-.14-2.2zm2.84-1.2l1.74.5-.24-2.1zm-.45.93l.2 1.6 1.54-1zm-.53-3.46l.01 1.7 1.55-.9zm-3.95 6.87l.88-.36-.85-.65z"/><path d="M266.84 319.98l-3.38.42 2.04 3.58zm9.6-.14l-.03 1 1.06-.58zm-1.57.5l1.52.3-.4-1.68zm-2.7.08l1.34.6-.02-1.8z"/><path d="M275.47 321.7l1.23.42-.2-1.5zm-2.2 3.06l-.1-1.7-1.64 1zm2.33-1.26l-.1-1.7-1.64.9zm-6.14 1.32l-.01-1.8-1.75.82zm-.7 4.55l.55-.84-1.12-.22zm-6.14-2l.82.25-.06-.9zm6.25-5.42l-.04.9.88-.36zm6.2 10.3l.64-.94-1.12-.23z"/><path d="M269.2 329.74l.82.25-.06-.9zm6.58-4.94l-.04.9.88-.36zm-3.04 7.1l.44-.93-1-.13zm-6.14-1.88l.82.24-.16-1zm6.15-5.52l-.05.8.88-.36zm.75-3.96l.3 1.28 1.13-.97z"/><path d="M271.45 321.58l1.2 1.62 1.08-1.98z"/><path d="M271.36 321.68l.2 1.3 1.15-.77zm-2.03-1.98l.2 1.5 1.33-1z"/><path d="M269.1 322.23l.8-.25-.55-.76zm.6-2.93l-3.17.5 1.52 3.3zm2.87-.5l-2.78.38 1.6 2.8zm2.87-.6l-2.77.48 1.68 2.7zm2.26-.55l-2.28.46 1.45 2.2zm-1.4 6.1l.2 1.7 1.44-1zm1.17-3.6l.1 1.6 1.55-.8z"/><path d="M276.62 320.93l.1 1.6 1.54-.9zm1.08 2.44l1.65.8.06-2.2zm4.5-1.6l1.74.48-.24-2.1zm-1.83-.17l.1 1.6 1.54-1zm-.6-1.78l.1 1.6 1.55-.8zm-.5 6.25l.14-.9-.98.36z"/><path d="M281.17 316.92l-3.37.63 2.14 3.46zm-5.15 11.58l-.57 1.94 2.08-.34zm1.38-2.1l-.58 1.85 2.08-.34zm-9.34 4.42l.16.9.86-.66z"/><path d="M277.07 332.13l.8.14-.26-.88zm5.7-6l.05.8.78-.45zm1.46-9.72l-3.17.6 1.33 3.42z"/></g><g fill="#ffbca4"><path d="M268.9 386.3l.4-1.1-1 .1zm.3 4.8l-1.4-1-.2 1.6zm-5.1 9.6l-1.4-1-.2 1.5zm3.6-1.3l-1.4-1-.3 1.6zm-12-26.8l-2-.4.3 1.7zm1.4 3.6l-2-.5.3 1.8zm4.5 18.7l-2-.6.3 1.8z"/><path d="M260.5 394.1l-1.6-.4.3 1.5zm-6.3-31.2l-1.7-1.3-.4 1.7zm7.7 6.5l-1.7-1.2-.4 1.7zm-1 11.1l-1.7-1.2-.3 1.8z"/><path d="M259.4 381.9l-1.9.8 1.2 1.3zm4.9 9.4l-1.9.8 1.1 1.3zm-4.3-13.9l-1.9.8 1.2 1.3zm2 6.8l-1.7-1.2-.3 1.8zm-.2 14.5l-1.4-1-.2 1.5zm-2.8-11.3v-2.1l-1.6.9zm-.8-24.2l.1-2-1.7.7zm-6.3-4.6l.1-2-1.7.6zm3.9-5.2l.1-2-1.7.7zm8 18.6v-2l-1.7.7zm-.5 4.7v-2l-1.7.7zm-12.9-23.5v-2l-1.7.7zm-1.7-9.4V342l-1.3.7zm-1 3.5l1.2-1.2-1.4-.6zm7.4-.2l.2-1.7-1.4.5zm-6.2-1.1l.1-1.8-1.4.5z"/><path d="M259.6 392.3v-1.8l-1.4.6zm2.2 1.2v-1.8l-1.4.7zm-1.9-6l-1.4-1-.3 1.5zm4.1-1.3l-1.7-1.2-.3 1.8zm10.8 1.4l-.7.7.8.3zm-14.2-.4l1.3-.6-1-.8zm.2 2.6l-.2-1.2-.9.6zm3.6 4.4l-1.1-.1.3 1zm-4-22.8l.6-1.2-1.2-.1zm-5.1-11.5l.5-1.2h-1.3zm4.7 14.2l.6-1.3h-1.3zm-1.8 6.9l-.9-.6-.2 1zm-.1-2.8l-1.1-.7-.1 1zm8.7-2.1l-.8.7.9.4zm-9-5.1l-.9.7.9.5zm-2.4-3.7l1.4.1-.5-1.2zm-1.5-2.5l1.4.1-.5-1.2zm-2-16.1l1.5.9-.5-1.2zm.7 20.3l1.4-1.7-1.9-.4zm-1-3.4l1.5-1.6-1.9-.6z"/><path d="M258 371.4l-.5-2.1-1.4 1.4zm-1-5.6l-.6-2.1-1.4 1.4zm4.6 17.6l-.5-2.1-1.4 1.4zm1.3 11.7l-.5-2.1-1.4 1.4zm.2-42.5l-1.1-.5v1zm-9.5-10l.3 1.2.8-.7zm-4.3-1.2l.4 1.1.8-.8zm1.7-7.7l.3 1.2.8-.8zm-2 2.7l.3 1.2.8-.8zm5.8 19.9l1.2-.1-.5-.9zm-6.5-5.8l.3 1.2.9-.7zm4.7 9.4l.4 1.1.8-.6zm-3.9-10.4l.9-1.1-1.1-.3zm16.6 32.5l-.6.6.7.3zm2.1-3.6l.4.6.3-.6zm-6.1.9l.7-.2-.5-.5z"/><path d="M262.8 395.7l-.6.7.7.2zm2.2-3.6l.4.7.3-.6zm-6.2.9l.8-.2-.5-.5zm16.6-31.5l.5-.5-.7-.2zm-1.3 6.9l-.5-.6-.3.6zm-13.6-3.8l.8 1.1.7-1zm-4.8-4.5l1.1-.4-.8-.7zm-.6 9.6l-.1-1.1-.9.5zm-2.9-30.5l.3 1.1.9-.6zm-5.1-7.5l.3 1.2.8-.7zm1.8 7.6l.3 1.1.8-.6zm0 9l.4-.9h-.8zm3.8 1.3l-.1-.9-.8.4zm6.1 4.3l.7.9.4-.9zm-1.1 13l1.3 1.6.8-1.6zm1.2-16.1l.7.9.5-.9z"/><path d="M258.3 353.6l.7.9.5-.9zm-4-11.4l1.6-1.1-1.4-1.1zm-7.6-3.7l1.6-1.1-1.4-1zm3 7.7l1.8-.6-1.2-1.4zm8.2 38.8l-.8-1.2-.7 1zm4.6 4.6l-1.1.4.7.7zm1-9.5l.1 1.1.9-.5zm-1.1 3.4l1.2.7.2-1.2zm-6.1-2.4l.8-.7-.9-.4zm3.1 9.2l-.6-1.1-.6.9z"/><path d="M259.9 391.1l-.7-1.2-.7 1.1zm4.5 4.8l-1.1.3.7.8zm1-9.9l.1 1.2.8-.6zm-6.9-9.4l.8-3-2.6.5zm4.8 22.2l.4-1.9-1.6.3zm-4.2-.4l2-2.4-2.5-.8zm-1.6-7.6l2-2.4-2.6-.7zm.8 3.5l2-2.4-2.6-.8z"/><path d="M256.5 387l2-2.4-2.5-.7zm-.6-3.4l1.9-2.4-2.5-.7zm-.8-3.2l2-2.4-2.6-.8zm2.2-3.8l-.4-3.1-2.2 1.5zm-2.7-8.8l-.4-3.1-2.2 1.5zm-1.1-4.6l-.4-3.1-2.2 1.5zm-.3 9l1.9-2.4-2.5-.7zm6.4 29.5l2-2.4-2.5-.8z"/><path d="M263.1 402.4l-2-2.3-1 2.6zm3.2-.3l-2-2.4-1 2.6zm-17.8-52.5l3-.5-1.5-2.3zm5.1 8l.5-3.1-2.6.7zm11.8 25.9l1-.5-.8-.7zm-4.4 3.6l-.2-1-.7.6zm8 1.9h-1l.3.9zm-15.2-15.3l.4 2.3 1.6-1.2z"/><path d="M254.6 370.8l.5 2.1 1.5-1.3zm-1.8-13.1l-2-.4.4 1.8zm.6 3.8l-2-.4.3 1.8zm-1.9-9.6h1.4l-.5-1.1zm.6-1.2h1.3l-.5-1.2zm-3 3.4l1.4-1.7-1.9-.6zm-.8-4.2l1.4-1.6-1.8-.6zm6.8 2l-.6-2.1-1.3 1.5zm1.9-.7l.8 1.2.7-1.1zm-4.5-4.7l1.1-.4-.7-.7zm-.9 9.8l-.1-1.2-.9.5zm2.4 5.5l-.4-3.2-2.1 1.5z"/><path d="M251.5 352.3l-.5-3.2-1.9 1.4zm-1.6 5.3l1.9-2.5-2.6-.7zm-2.8-15.5l2.2-2.3-2.5-1zm-.7-6l1.7-1.6-1.8-.9z"/><path d="M247.2 345l1.7-1.8-1.9-.8zm3.1 13.8l.4 2.6 1.5-1.5zm.3-2.6l.6 2.3 1.5-1.4zm17.4 31.9l1.1-.5-.8-.8zm-4.3 3.6l-.2-1-.7.5zm7.9 1.9h-1l.4.8zm.4 11.8l-1.4-1-.2 1.5zm-5.2 9.3l-1.4-1-.2 1.6zm3.5-1.2l-1.3-1-.3 1.5zm-6.1-4.6l-2-.5.3 1.8z"/><path d="M263.2 408.2l-1.7-.5.3 1.6zm3.7-2.8l-1.8.8 1.1 1.3zm-2.5 7.4l-1.3-1-.3 1.5zm-2.2-6.5v-1.8l-1.3.7zm2.2 1.2v-1.8l-1.3.7zm2.7.7l-1.1-.1.3 1.1zm-1.5 1l-.5-2.1-1.5 1.3zm-.1.6l-.6.6.7.3zm2.2-3.6l.3.6.4-.6zm-6.2.9l.7-.3-.5-.5zm-.2-8l-.8-1.2-.7 1.1zm4.5 4.7l-1.1.4.7.8zm1.2-9.5v1.2l.9-.5zm-1.2 3.4l1.2.8.2-1.2zm-6.1-2.4l.9-.8-1-.4zm3 9.2l-.6-1-.6.7z"/><path d="M263.2 405.3l-.7-1.2-.7 1.1zm4.4 4.8l-1.1.4.7.8zm1.1-9.8l.1 1.2.9-.6zm-2.8 12.6l.5-2-1.7.3zm-4.1-.5l2-2.3-2.5-.8zm-1.5-7.5l2-2.4-2.5-.8zm.6 3.4l2-2.3-2.5-.8zm1.4 7.4l2-2.3-2.5-.9zm3.5.8l-2.1-2.4-1 2.6zm3.2-.4l-2-2.3-1.1 2.5zm2.4-13.7l1-.5-.7-.7zM267 406l-.2-1.1-.7.6zm7.9 2l-1-.1.3.9zm-9.6-21.2l-1-1-.3 1.2zm5.4 3.6l-1 .6.8.7zm-1.1-9.8l.3 1.2.8-.8zm2.2-4.1l-.4-1-.5.7zm2.6 3.8l-.7.1.4.7zm1.7-6.7l-.1.8.7-.2zm-2.8 13.1l.6-.8-.8-.2z"/></g><linearGradient id="C" gradientUnits="userSpaceOnUse" x1="293.634" y1="440.23" x2="293.4" y2="421.833"><stop offset="0" stop-color="#911319"/><stop offset=".98" stop-color="#ba3024"/></linearGradient><use xlink:href="#M" fill="url(#C)"/><path d="M263 446.5l62 .4c1.1 0 1.9-.9 2-1.9l-.1-2.6-66.3-1.1.4 3.4c0 1 .9 1.8 2 1.8z" fill="#ffd570"/><g fill="#c4412c"><path d="M300 433.5l.9-.1-.6-.7zm5.3-.6l-1.2-.1.5 1.3zM293.7 420l-1.2-.6-.1 1.8zm16.1 7.8l.6.6.2-1.2-1 .4h.1l-.8-.3.4-.4-1.1-.4v1.3l.4-.2v1.3zm-22.6-3.5l-1.2.8 1.4.9zm2.7-1l-1.4.1.6 1.5zm9.4 2.7l.9-1.5-1.4-.1v.1l-1.4-.1.6 1.6.8-1.3zm11.7 2.2l.5 1.4.8-1.3zm-7.7-2.9l.3.8.4-.6.4.1-.2-.5.2-.2-.3-.1-.3-.8-.6.8h-.1l-.2.4zm-16.1 5.4l1.5-.6-1.5-.9zm-1.6-3.9l-1.4-.9-.1 1.5zm-3.8 5.8l-1.4-.9-.2 1.5zm-3.9-2.6l1.6.4-.2-.5.7-.1-.7-.7.9-.3-1.5-.9v1.1l-.8 1zm1.2-.4l-.1-.4.3-.1-.2.5zm10.8-4.7l-.8 1.2.6.2-1.2.2 1 1.3.6-1.4.5.1zm4.7 2.3l-.7-1.6-.9 1.2zm-24.6 3l1.3-.5-1.2-.7zm3.8 4l1.4-.5-1.3-.7zm-7.5-4.7l1.4-.5-1.3-.7zm40.6-2.1l-.8 1 1.3.3zm17.7 8.2l-.8 1 1.4.4zm-1.1-1.2v1.2l1.2-.6zm-5.3-1.4l1.3.3-.6-1.3zm-.6 4.2l.7-.4-.7-.4zm.9-2.2l.7-.5-.7-.3zm1.7 2l.2-.7-.8.2zm3.1-1.5l.1-.7-.8.1zm-20.7-7.4l-1.4-.1.5 1.6zm-1.3 9.9l-.3.3-.3-.3-.1.6.3-.1.6.2zm1.9-11.3h-1.1l.4.8zm4.2 4.4l.9-.5-.7-.5zm9.3-.5l-.7.7.6.2.4 1.1.8-1.2h-.9zm4.5 3.5l.8-.5-.7-.3zm-6.2 3.2l.2-.8-.9.2zm-29.9-5.5l-.1 1.1 1.1-.4zm5.7-.4l.4.8.4-.9zm-3.8 7.4l1 .1-.3-.8zm2.8-14.4l1.2-.2-.9-.8zm-3.7 5.7l-1.2-.3.3 1zm5.4-7.1l-.2 1 1.1-.2zm7.9 0h-.8l.3.9zm-2.9-.7l.3.9.4-.7v.5l.3-.3.6-.4h-.1l.5-.4-1.2-.6-.1.7v.3zm-2.3 6.9l-.8.5 1 .3zm-.8 10.4l1 .2-.4-1.2zm-.8-6l.8-.5-.9-.3zm7.3 4.2l.1-1-.8.3zm-8.6-8.1l1 .1-.5-1.1zm-3.4-1.1l1 .1-.4-1.1zm-11.6-.8l-.6 1.1h1zm3.7 7l.4-.3-.6-.2v.4l-.8-.3.3 1.8 1.7-1.1zm3.4 3.7l.1-1-.8.3zm-10.9-4.1l.3-.9-.9.1zm10.8-3.6l-.6.8.9.1zm-4.7-3.1h-.9l.7.9zm7.5 1.4l.3-.8h-.9zm-14.5-.9l.1.7.7-.4zm14.3-.9l.5.4.2-.7zm1.8-4.1l-.2.6.6-.1zm8.4 2.7l-.5-.1.1.7zm3 6.1l-.7.4.7.3zm-4 2l.5-.1-.4-.5zm1.8-4.9l.3-.5-.6.1zm7.1 7.8l.6.4v-.7zm-1.6-3.2l.3-.6-.6.1zm7.2-4l-.7.3.7.3z"/><path d="M305.6 431.7l.5-.1-.3-.5zm1.8-4.9l.3-.5h-.6zm7.8 5l-.5.2.5.3zm-3.3 1.6l.4-.2-.4-.3zm1.7-4.4h-.5l.2.4zm-27.5 4.8l-.5.2.4.5zm-8.3 2.7l.7-.8-1.1-.4zm-5.7-3.5l.7.5.1-1zm19.5 1.9l.7-.7-1.1-.5zm-5-3l.1-1-.8.6zm6.3-3.5l.9-.2-.7-.7zm-24.3 6.9l.1-.9-.9.2zm.6-3.6l.2-.8-1 .2zm-3.6-2.2h.8l-.4-.7zm3.5-1l-.8-.2.2.7zm8.4 2.2l-.2.7.8-.1zm8.4 6.9l1-1-1.4-.7zm-4.7-1l.6-.6-.9-.3zm2.5-1.9l-.9-.3.4.9.1-.1.2.5.5-.6-.4-.2zm-19.1-8.4l-1.4.9 1.3.7zm-2.7 5.8l1.3.7.1-1.6zm13.5 7.7l.8-.7-1.1-.6zm-5.4-3.7l.1-1.1-.9.5zm7.6-4.4l-.3.9 1.1-.1zm28.6 2l.9-.1-.4-.7zm-7.3-.1l.6-.6-.9-.3zm1.8-10.9l-.9.3.7.9zm3 5l-.1.1-.8.4.7.8.1-.5h.6zm-7.8.8l.6-.7-.9-.2zm-.3-4.5l-.6 1.1.9.1zm8.3 1.9l.5.7-.4.3.9.4-.3-.9-.1.1.1-.9zm2.1 1.4l.2-.8.8.2-.6-1.3-.7.9-.5.2zm3.3 3.8l-.5.8 1-.1zm-7.4 0l-.9-.3.3.9zm2.5-1.6l-.3 1 1.1-.1zm6.6.5h-.8l.3.9zm-6.1 6.5l1 .2-.2-.8zm3.5-3.4l1-.1-.7-.8zm.8 4.9l.8.3-.1-.8zm1.1-8.4l1 .1-.5-.8zm5.8.8l-.7-.2.2.8zm-6 4.3l.7.3v-.7zm3.6-2.5l-.6.8.6-.1.1.5.5-.7h-.3zm-8 .6l.6-.6-.9-.4zm-40.8 1.4v-.6l-.4.3-.6-.4-.1.9-.3.2.3.1v.1h.1l.9.5v-.9l.4-.1zm47.8-4.7l-.8 2h2.4zm-21.6-7.4l.8.2-.1-.8-.7.6-.7-1.7-1.4 1.7 2.4.7zm-15.7 8.6l-.3-2.6-1.7 1.7-1.4.9 1.3.7.1-1.4zm8.9-2.9l-2.4-.9.2 2.2z"/></g><g fill="#fff"><use xlink:href="#N"/><path d="M289.8 430.6c-.2 0-.3-.1-.5-.2-.4-.3-.6-.9-.3-1.4l6.1-8.8c.6.3 1.3.4 1.9.8l-6.3 9.1c-.2.4-.6.5-.9.5zm6.7 2.6c-.2 0-.3-.1-.5-.2-.4-.3-.6-.9-.3-1.4l6-8.6 1.9.8-6.2 8.9c-.2.4-.6.6-.9.5zm-36 8.732l.023-1.4 66.293 1.087-.023 1.4z"/></g><path d="M279 246.4a497.09 497.09 0 0 1-8.7-40.3h-77.8c.4 9 2.6 21.6 9.7 36.3l38.2 82 47.2-8.8c2.6-.6 4.3-3.1 3.9-5.7-1.9-11.8-7.1-42.8-12.5-63.5z" fill="#911229"/><path d="M244.154 268.506l.99-.148 6.34 42.33-.99.148z" fill="#750e29"/><linearGradient id="D" gradientUnits="userSpaceOnUse" x1="244.685" y1="317.169" x2="298.853" y2="307.345"><stop offset="0" stop-color="#f25779"/><stop offset=".975" stop-color="#cb1e3a"/></linearGradient><path d="M241.4 324.2l46.2-8.5c2.6-.6 4.4-3.2 3.8-5.9l-1.4-7.3-57.18 10.65 3.68 8.66c1 2 2.8 2.9 4.9 2.4z" fill="url(#D)"/><path d="M238.9 310.66l51.06-9.44.32 1.37-51.06 9.43z" fill="#750e29"/><linearGradient id="E" gradientUnits="userSpaceOnUse" x1="254.997" y1="262.897" x2="308.818" y2="249.549"><stop offset=".01" stop-color="#6e0c27" stop-opacity="0"/><stop offset=".985" stop-color="#6e0c27"/></linearGradient><path d="M287.6 315.6c2.6-.6 4.3-3.1 3.9-5.8-2-11.7-7.2-41.9-10-53.3-3.8-15.1-11.5-49.9-11.5-49.9l-31.5-.4 27.8 114.2 21.3-4.8z" fill="url(#E)"/><g fill="#750e29"><path d="M263.9 236.9l-.6-1.1-.4 1.2zm.8-4.8l.2-1.6-1.6.7zm8.2 20.5l-2.1.5 1.7 1.3zm.8-10l-.7 2 1.7-.7.7.4.1-1-.8.2-.9-.9.3-1.7-2 .5zm.7-4.6l-.7 2.1 1.8-.8zm-5.2-6.9l-.7-.4.2 1 .6-.5 1.7-.8-1.2-1.2zm-4.7-15.8l1.9-.8-1.1-1.3zm8.5 21.9l-2 .6 1.7 1.2zm-2.7-26.7l-2 .3 1.5 1.2zm-1.3 2.8l-1.5 1.3.1-1.2 1.8-1.1-2.1-1.2-.1 2-1 .3 1.2 1.2-.4.4 2.6.4-.5-1.5 2.2.4-2.1 1.9-.5-.7-1.2 1.7 2.3.3v1.1l2.1-1.4-.9-.5 1.3.2-.4-2.4-.7-3.5-2.1 2.5-.1-.2zm.9 3.9l-.5-.7.5.1v.6zm5.8 43.4l-1.6-1.3-.1 2.1zm1.2 8.4v2l1.7-.7zm-8.1-18.4l.1 2.1 1.6-.8zm.7-4.8l.1 2.1 1.7-.9zm9.9 32.7l-1.3-1.1v1.7zm4.9-.8v1.8l1.3-.6-1 1.3-.3-.2v1.8l1.4-.7-.3-.2 1 .3-.6-2.6-.2.2z"/><path d="M271.6 229.1v1.7l1.3-.7zm-8.8-16.1l-.7.7 1 .1zm7.4 22.1l-2 .7 1.7 1.1zm2.6-1.2l.8-.6-1-.7zm-3.4-5.4l-.3-1-.9.9zm3.5 23.9l-.7-1.3-.6 1.3zm5.1 10.4l-.5 1.3 1.3-.1zm-5.4-14.4l-.5 1.3h1.3zm-7.1-3.5l.1 1.2.9-.8zm10 5.9l-1-.4.1 1.2.3-.3.5 1.8 1.4-1.4-1.6-.6zm1.7 4.4h-1.5l.5 1.1zm.7 4l.9-1.1h-1.4zm7 15l-1.5-.9.5.9-2.5.7 1.7 2.2 1.1-2.7zm-3.2-15.9l-.4-2.2-1.5 1.6zm-6.5-1.6l.7 2.1 1.3-1.5zm-3.2-16.1l1.4-1.4-2-.7z"/><path d="M271 229.5l1.3-1.4-2-.7zm-3.2-9.9l-.3.1.8.6.1-.9-.3.2 1.2-1.2-1.9-.8zm2.4 49.2l-1.1.6 1 .5zm7.2-1.4l.7-1-1.1.1zm7.5 6.8l-.8 1.1.8.2-.3.8h.8l-1.1 1.4 1.4.4-.3-1.8-.4-.7h.2zm-18.3-34.1l.6-.7.2.2.3-1.2-1.1.5.5.5-.7-.2zm-2.6 3.6l.1.2.1-.2.4.1-.3-.4.3-.5h-1.2l.5.7v.1zm6.7-1.1l-.7.3.5.4zm.3-16.2l-.8-.2.2.9zm-3 3.8l-.3.6h.8zm1.6-11l.5-.5-.6-.3zm-2.4 3l.6.1-.3-.6zm-8.1 32.9l.3-.5h-.8zm18.5 7.1l-1.1.5.8.7zm.2-9.6l.1 1.2.9-.6zm2.7 30l-.9.6 1 .6zm3.1.4l-.9.5 1 .6zm1.2 3.1l.2.9.7-.7zm-12-30.3l2-.1-1.3-1.5zm-.3 14.5l-.5.9h1.2z"/><path d="M273.2 267.4l-.1.3-.4-.5-.5.9.7-.1-.1.3h1.1zm5.6 14.3l.1.6.6-.5-.7-.3.1-.6.7.3-.3-1.2-.8.8.4.1-1.7.8 1.2 1.3zm9.2 9.1l-.4-2.1-.3-1.6.2.1-.6-2.6-1.5 2.1 1.5.3-1 1.3 1.7.4-1.2 1.6zm-6-3.8l.5-2-1.8.8zm2.9-1.6l-1.8.9 1.2 1.2zm-2.1-5.7l.4-2-1.7.8zm-12-48.1l-.4 1.1 1.1-.3zm-1.6 9.5l-.9.5 1 .7zm.1-3l-.2 1.2 1.3-.5zm7.3 3.1l-.9.8 1 .4zm-1.8-8.9l-1.3-.2.6 1zm-6.8-5.6v.1l.2-.1.5-.2-.1-.2.3-.2-.9-.4-.3-.1.2.5-.3.8zm-1 8.9l-.9.6 1.1.6zm-2.6-23.6l-.4 1.4 1.3-.2zm1.7 14.3h1l-.6-1.1zm4.4-4.9l.7 1.2.6-1.1z"/><path d="M264.9 225.2l-.9.5 1 .8zm23.6 68l-.6.6.9.4zm-17.4-82.8l-.7-3.4-2.4 2.8zm-2.6-2.9l-3.3-.4 1.8 3.3zm4.9 41.4l2.6-.6-2-2.4zm-3.6-24.9l-.4 2 1.7-.4zm-2.2-.6l1.7-.3-1.2-1.6zm6.9 4l-.7-3.2-1.9 2.5.8.2-1.1.9 1.3.3-.2.2 1.4.3-1.5 1.9.7.2v.8h-1.2l.8 1.2.4-.8v.1l1.3-.7-.2-.2.7.2-.6-3.2-.3.4-.2-1.1h.5zm-.9.2l-.1-.4.5.1-.4.3zm.9 6.7l-.8.3.3.2v1.8l1.7-.8-.6-.4.1-.9.8.3-.5-3.2-2 2.4zm-.1 3.2l.8.3.6.8.3-.5.9.3-2 2.3.4.1-.6.2 1 .6.1-.6 1.6.5-.5-3.2v.1l-.6-3.2zm2.5 7l-1.1.9 2 .4-.2-1.1.8.3-.5-3.2-2 2.4zm-.9 1.1l.4 3.1 1.4-.9 1.4.5-1.5 1.2.2.1-1.1 1.1 1.9.7-.9 1.2 2.4.6-1.2 1.4 1.8.5-.4-2.1h-.1l-.6-2.9-.9 1.2-.5-1.6 1.4.3-.4-1.6h.2l-.6-2.1-.7.6zm2.7 12.5l2.2-1.6-2.7-1.6zm2.7 2.2l-.2-.8-.5.4-.2-.1.1-.3-.5.1-.8-.4.1.6-.8.2 1 .8-.5-.3.3 1.6-.3.3.4.1.2 1.2 1.3-1 1 .6-.6.5-.2-.2v.4l-.6.5.6.1v.1l-.8.9 1.6.6-.6.8-1.8-2.3-.6 3.2 2.2-.6-.1.2 2.3.6-.8.8-.3-.2v.6l-.1.2h.1v1.2h.2l.4 2.4 1.2-1-.9 1.1 1.8.5-.4-2h.1l-.1-.1-.4-1.1-.5.5-.7-.6.9-.3h.2l-.4-2-.7-3.2-.7.9-.2-.6.7-.3-.3-.3-.3-1.2.4.2-.6-2.6-.7.8-.4-.3.5-.3h.2l-.1-.2.5-.3zm-9.4-25.5l.1.4-.4.2.9.9.2-.9.2-.1-.1-.1.1-.3-.5.2zm-7.9-1.9h1l-.3-.9z"/><path d="M263.1 212.5l-.7-.2.1.9zm-2.8 4.3l-.4-.7-.4.6zm.2 5.9l.1.1v.9l.5-.4.2.1v-.3l.1-.1.2-.9zm5.6-3.1l.7-.6-.9-.5zm-8.1-3l1 .1-.1-.1.4.1-.1-1.5-1.5 1 .5.1zm12.5 2.5l-.8 1.3 1.7.1zm-.2 4.1l.2-1.7-1.4.4zm1.6-3.5l-.7 1.4 2 .1-.4.5v-.1l-.6.2.2.3-1.1 1.2 1 .3-1 .4 1.4.9.1-1.1.48.6-.5-3.2.05.1-.23-1.3.2.1-.5-2.2-1.5 1.2zm8.3 52l.9-1.2h-1.4zm1.8 1.6h-1.2l-.4-.2.5-.5-2-.6.7 2.2.4-.6.1.2.6-.4.4 1zm-6.8-1.3l-.6 1.1h1.4zm5.8 5.3l-1.1.5.8.7zm1-9.2l-1-.6.2 1.2zm2.4 15.7l2.6.6-.7-3.2zm-21.3-61.9l1.4-1.2-1.9-.8zm1.5 3l.4-1.3-1.4.3z"/><path d="M258.2 220.4l1-.7-.9-.6zm1 8.7l-.8.7 1.2.4zm.3-17.6l-1 .7.9.6zm2.4 1.8l-1.9.4 1.4 1.8zm1.5 5.5l-.1-.3h.3l-.3-.3v-.9l-.6.2-.5-.5-.1.9-.2 1 1.2-.3zm-2.6 1.8l.2-1.2-1 .6zm1 2.6l.6-.4.2.3.3-1-.9.2.2.3-.2-.3zm6.9-1.4l.9-.7-1.2-.5zm-2.1-7.4l-.6.9h.7l-.2.2-.1-.1-.3.6-.4.2.5.5v-.2l1.6.2-1-1.4h.2zm-7 2.6l-.7 1 1 .2zm4.4 18.7l.2-1.2-1 .5zm-3.5-6.6h1l-.4-.9zm7.3 7.2l.4-1.3-1.4.3zm-6.4-4.5l.9-.6-.8-.6zm.2 9.4l1.1.4-.3-1.1zm4.7-20.9l-.3-.8-.6.8zm-4.4 7.8l.3-1-.9.1zm5.5 45.4l.7-.7-.8-.4zm7.7-11.2l-1.4.3 1 1zm-6.9-3.2l1-.7-.8-.6zm1 8.7l-.7.7 1.1.4zm-5.2-6.7l-.9-.2.4.9zm-3.5-4.6l-.3.8.7-.2zm-1.5 7.4l.5 1.2.9-1-1.4-.2v-.6l-.6.3.6.6zm12.1-5.8l-1.1.6.9.6zm-5.1 5.8l-.3-1-.6.9zm6.6-.9l.4-1.2-1.4.2zm-5.3 4.6l.3-.4-.9-.2.1-.1-.8-.3.2.8.4-.4.3.5-.5.5 1.1.4zm-3.1-5.1l-.4.9.8-.3zm6.5 22.6l.5.9.5-.6zm-4.2 3.1l.1-.9-.7.3zm8.6-24.4l-1.1-.4.3 1.2z"/><path d="M272.2 258.3l-.1-.3h.5l-.9-1.1-.6 1.1h.3l-.2.3zm-3.7 7.1l-.8.2.7.8zm.5 8.9l-.6.7-.4-.5-.2 1 .8-.2v-.1l.6.2zm-2.9-9l-1.4.2 1.1 1zm-5.8-3.9l-.9-.6-.1 1.2zm0 9.3l-.8.8 1.2.4zm9-6.7l.8-.7-1.1-.5zm-2.3-7.2l-.5.7-.2-.2-.2 1.2 1-.6-.4-.2h.7zm-3.7 8.8l.2-1-.9.2zm6.5 16.2l-.4-.9-.1.3-.3-.5-.3.4-.3-.5-.4.8.6-.1.6.1-.2.3zm-.6 11.4l1.2-.7-1.3-.6zm6.7 1.7l1 .2-.3-1.2zm-3.6-9.8l.8.9.4-.9zm12.4 8.6l.1-.8-.7.4zm-11.1 2l.7-1-1-.3zm3.7-7.1l.5.8.3-1zm-6 4.4l1.2-.8-1.2-.5zm7.5.7l-.8.9.4.2-.5.2.6.6.2-.8.3.1zm-3.1-8.8h-1.2l.5.6-.2.5.9-.1-.3-.4zm3.7 4.3l.1-.9-.7.5zm-7.7-10.7l-.3.9 1-.2zm4.4 3.2l-.7.5.6.4zm0-6.6l-.8-.3.2.8zm-9.5-1.6l-.7.4.6.5zm2.6 17.3l-.6.9h1.3zm4.5 5.9l.3-1.1-.9.4zm.6-9.2l-.7-.3v1.2l.8-.4.8-.5-.9-.5zm-6.3-8l-.8.1.5.9zm13.1 9.7l-.6.7-.3-.2-.2.9 1-.2-.2-.2.5.2zm-3.6-7.9l.5-1h-1.2zm-4 9.3h1.3l-.7-1zm5.9-3.5l.8-.5-.9-.6zm-20.2-36.7l-1.2-.6v1.3zm6.4 2.8l-.2-1.2-.8.9zm-3.2-10.1h-1.1l.7.9zm1.4 9.8l-1-.3.2 1.3zm4 .1l-.2-1.2-.8.9.4.1-.6.3.7.6.2-.8zm-9.1-3.3l-.4-.6.6.1-.5-1.1-.6.8v.1l-.3.7zm4.1 4l-1 .4.7.6zm.4-8.7l.1 1.1.7-.5zm.4 3.6l-.7-1-.5 1zm4.7-3.4l.8-.5-.9-.6zm-4.7 29.8l-.6 1 1 .1zm-1.1-4.1l.4-.1-.1-.1.5-.4-.8-.3v-.7l-.6.3.4.4-.7-.2.3 1.5zm-12.5 15l1.9-.5-1.2-.9 1.1-.4-2.1-2.2-.4 3.2.8-.3zm7.4 6.9l-2.1-.4.5 1.7zm-5.8-13.5l1.9.6-.8-2zm2.4-2.3l.4 1.7 1.6-1.3zm.7 24.2l-.2-2.1-1.5 1.5.8.3-1.3-.2.4 1.2 1-1zm4.6-11.1l-1.7 1.4 1.7.6zm-1.3-4.7l-1.6 1.3 1.6.7zm-6.3-14.3l1.4.6v-.1l.4.6.6-1.3-1 .2-.1-.8h.2l-.2-.2v-.1l-.5-.5-1.4-1.5-.4 3.2 1.7-.6zm3-.6v-1.8l-1.3 1.1zm-2.9 4.8l-.6.5 1.7.7-.1-1.8.3-.3-.9-.2.9-.4-2.1-2.2-.4 3.2 1-.4zm5.3 1.2l1.6-1.2-2-.6zm12.4-4.1l-.8.4.8.7zm-15.6 2.2l.1.4-.1.1.2.1.3.9.8-1-.5-.1.1-.5-.5.3zm.2-2.2l-1 .7.9.6zm3-5.5l-.3 1.1 1.1-.2zm-1.2 24l-.6 1.3 1.2-.1zm-4.2 13.3l-.6-1.3-.7 1.3zm2.7-14.7l1.3-.1-.6-1.3zm-2.9-7.9l.9-.7-.5-.1.3-.2-2.1-2.2.8-.3.4.5.5-.9.8-.3-2.2-2.2-.6 6.4 1.5-.6zm.4 1.6l.2 1 .6-.4 1.7.6-.8-2 1.5-1.2-2-.5.4 1.7-.8 1z"/><path d="M261.9 285.3v-1.2l-.9.5zm-8.3 6.2l-.1-1.2-.9.5.3.2-1.5.7 1.4 1.3.4-1.8zm-1 3.6l-1.4.2 1 1.1zm-1.6 4.2l.4-1.2-1.4.2zm-2.7-5.8l2.3-.8-.9-1.1 1.9-.9-1.2-1 .2-.1-1.6-1.1 1.4-.7 1.4.9v-.4l2.5.5-.8-3.1-1.7 2.4.3-2.5-2.2 1.4-.7-.6-.5 2.3.2-.1-.3 1.6 1.4-.4-.4 1.7-1-1.2-.4 3h-.1l-.3 2.1 1.9-.6zm-.9 3.5l-.3 2.1 1.8-.6zm5.8-.4l-1.9.8 1.4 1.3zm2.1-16.3l.4-2.1-1.9.9zm0-11.2l.5-2.2-1.9.9zm2.9 39.3l1-.6-1.1-.4zm-6.5-.9l.4-1-1.2.1zm11.8-24.6l-.1-.1.5-.8-1.2.1.3.4-.2.5.4-.1.1.1v-.1zm-6.7.1l.5-.6-.7-.2zm-1-17.5l-.8.3.7.6zm2.5 3.8l-.4.6.8-.1zm-2.6-11.6l-.6.3.6.5zm2.7 3.5l-.3-.5-.3.7zm-5 .1l-.6-.1.3.6zm18 39.5l.7-.2-.6-.6zm-2.2-6.9l.4-.6-.7.1zm-11.5 3.7l-.7-1-.8 1.1h.2l-.1.3 1-.1-.2-.2zm-5.9 5.8l.8-.7-1.1-.4zm-1.1-10.7l-1 .6.9.6zm5.7 14.2l-.4.5-.1-.2-.6.9h1.1l-.1-.3.6-.1zm-.8-11.4l-.8-1.5-1.2 1.5zm-2.5 13.3l1.2-.1-.6-.9zm2.1-36.7l1.1.2-.5-1zm2.8 9.7l.9-.7-.9-.5zm-.2-4.2l-1.2.8 1.4.4zm-7.1 4.9l.9-.5-.9-.7zm1.9-9.5l.5-1.1-1.1.3zm5.8-7.1l-.4-1.2-.7.9z"/><path d="M259.8 274.5v.1l-1.2-.1.5 1.2.7-.8v.8l.9-.7zm-3.8-11.2l-1.1 1.7 1.6.2zm1.4-2.7l-1 1.8h1.7zm-4.8 6l-.1.8-.5-.4-.2 1.6 1.6-.5-.5-.4 1.5-.4-1.2-.9.7-.3-2-2.1 1.1-.5.2 1 1.3-1-.8-.3.5-.2-2.2-2.2-.2 3.2-.4 3z"/><path d="M250.1 298.2l.4-3.1-2.6 1.7zm-2.8 12h0v-.6l-.3.2-1-1.1 2.3-.7 2.3.4-.8-3-1.7 2.4-.7-.8 1.7-.8-.8-.7-.1-.1.6-.2-.6-.5v-.4l-.3.2-.7-.6 1-.6 1.5 1 .2-1.7.1-.1h-.1l.1-1.4-.4.3v-.6l.8-.6-.7-.2v-.2l-.2.2-1.2-.3.2.9-.6-.4-.1.9-.7.4.6.3-.1.2.2-.1.5.4-.6.4-.9-.8-.4 2.6.8-.5-.3 1.5-.3.2.8.3-.2.7-1-1.2-.5 3.3h.2l-.5 2.1.4-.2-.2.2m13.8-33.1l.3 1.3.2-.3.6.7.1-1-.6.2.5-.5zm2.5-6.5l-.3.8 1-.1zm-8.3-12l.7-.4-.9-.7v.9l-.2-.3-1.1 2 2.2-.3zm.5.6l1.6-.2-.9-1.3zm1.4 2.6l1-1.4-1.4-.2zm7.2 12.2l.8-.7-1.1-.5z"/><path d="M257.7 271.2l.2-1.1-.8.4-.7-1.8-1.1 1.3 1.8.7zm8-3.4l-.7-.8-.3.9zm-.6 2.2l.9-.4-.8-.8-.2.8-.8.6 1.1.6zm-.3 9.5l-.3 1.2 1.1-.5zm-9.5-35.1l-.5-.4-.2 1.5 1.6-.5-.5-.3 1.5-.4-1.2-.9.7-.3-2.1-2.3-.4 3.2 1.2-.4zm.1 10.4l-1.1 1.4 1.9.6zm2.7-7.8l1.9.7-.8-2.1zm-1.1 8.7l1.6-1.4-2-.4zm.3-15.3l-1.6-.4.3 1.4zm-3 7.7l1.4.6v-.5l.3.6-.1.1.6.6v-.8l.4-.8-1 .1.2-.8-.5.2v-.1l.4-.1-.7-.8-1.4-1.5-.4 3.3 1.2-.5zm3.2-.7v-1.7l-1.3 1.1zm-3.1 4.9l-.5.5 1.7.6-.1-1.7.3-.4-1-.2.9-.4-2.1-2.1-.4 3.2 1-.4z"/><path d="M259.3 251.6l.4 1.8 1.7-1.2zm-2.6-2.3l-1 .7.9.6zm2.9-4.4l1.1-.1-.8-.9zm-1.5 1.2l.4-2.2-1.9.9zm2.7.7l.3.5.5-.6-.2-.1-.3-.4-.2.3h-.3l.2.2-.1.2zm-2.3-11.4v-.7l-.6.3zm2.3 2.3l-.2.6.6-.1zm-5.2.5l.3.5.3-.4zm5.1 19.3v1.1l.9-.7zm-.3-3l-1.1.8 1.4.4zm-5.1-4.6l.4-1.1-1.2.3zm4.8-7.3l1.1.3-.5-1.2zm2.5 10.1l.9-.7-.9-.5zm-4.9-10.8l.6.1-.3.7h-.2l.6.7.1-.8h.2l-.3-.6.9.2-.5-1.9zm2.5-4.4l-1 1.8 1.7.1zm-7.4 17.9l.8-.4.4.6.5-.9.7-.3-2.2-2.2-.6 6.4 2.5-1z"/><path d="M263.2 255.1l-1.2-.5.4 1.3zm-6.2-3.4l-.5-.1.1.4h-.1l.2.1.3.9.8-1-.4-.1v-.5zm7.2-2.7l1-.2-.8-.7zm-8.2-13.2l-1.1 2 2.2-.4zm2.5.8l-.1-.1.7.2-.2-1-.6.7-.6-1-.9 1.5zm-.9-3.4l-1.5-.3.4 1.7zm3 17.4l.8-.3-.3-.2.2-.1-1.2-.3-.5-.2.4 1.5.1-.1.5-.2.3 1.2.7-.9zm3.3-5.7l-.7-.8-.3.9zm1.5 14l-.9.7 1.1.5zm.5 26.7l.6.7.4-.9zm5.3 1.7l.1.8.5-.6zm-12.1 9.7l-.2-1.2-.8.7zm-.7 9.9l1.1-.4-.8-.8zm6.3-6.7l.5.7.4-.9zm3.6-4.1l-.4-.7-.4.6zm1.6 6.8l.6-.6-.7-.3zm-12.4-5.2l.2 1.2.8-.6zm5.4 5.5l.8-.3-.6-.7zm-6.7-.5l1-1-1.4-.2zm6.2-4.9l-.2-1.2-.2.2-.5-.7-.4.9h.7l-.4.3zm-.7 9.9l1-.4-.7-.7zm-7.1-3.2l.3-1.3-1.1.5zm6.1 1.3l.6-.8-.9-.2zm-1.1-2.3l.2-1.2-1.1.6zm6.1 1.2l.6-.9-.9-.1zm2.1 1.1l.5-.9-.8-.1zm2-17.3l-1.2.7 1.3.6zm-7.3 2.7l-.2 1.3 1-.4zm3.6-9.2l-1.2.1.5.9zm-.8 10.8l.3.9.6-.7-.9-.3.1-1-1 .3.8.9zm2.3-4.3l-1.2.7 1.3.6zm2.1-1.1l-.6 1 1.2-.1zm-5.4-3.3l-.8.6.7.5zm.4 2.6l-.6 1 1.2-.1zm-4 6.4l.7-.7-.7-.2.5-.2-.9-.8-.1 1.2.2-.1zm-1.5-9.5l-.8.6.8.4z"/></g><path d="M197.7 302.9s-8.9 22.1-8.8 44.1l-.2 49.1-.8 25.7 11.8 11.2 18.6-4.5s-3.2-6.8-2.3-12.3l15.2-89.2 5.1-19.6-38.6-4.5z" fill="#eb9c79"/><linearGradient id="F" gradientUnits="userSpaceOnUse" x1="206.223" y1="368.53" x2="245.637" y2="375.353"><stop offset="0" stop-color="#bc5a32" stop-opacity="0"/><stop offset=".99" stop-color="#bc5a32"/></linearGradient><path d="M213.1 308.5l-7 50.2c-3.2 19.9-7.1 69.8-7.1 69.8l17.8-3.4s-2.4-4.1.5-18.4c3-14.3 11-65.6 12.5-73.2s4.3-19.2 4.3-19.2l-21-5.8z" fill="url(#F)"/><linearGradient id="G" gradientUnits="userSpaceOnUse" x1="211.842" y1="326.838" x2="214.498" y2="312.725"><stop offset="0" stop-color="#bc5a32" stop-opacity="0"/><stop offset=".99" stop-color="#bc5a32"/></linearGradient><path d="M206 326c11.3 2 23.7 7.5 23.7 7.5S231 327 232 323s4.2-15.7 4.2-15.7l-39.7-2.2s-1.5 5.1-2 7.6l-3.2 13.4s6.6-1.6 14.7-.1z" fill="url(#G)"/><path d="M186.6 427.2l1.5-10.6 27.7.3s-.1.8 0 2.6c.2 1.9 1.2 4.6 1.2 4.6s-11.3 10-18 8.1c-6.6-1.9-12.3-1.4-12.4-5z" fill="#fff"/><g fill="#a05a3c"><path d="M198.3 333.8l.8.7.3-1.1zm7.5 1.9l-.9-.2.2 1zm10.9-1.1l-.5.8 1 .1zm-9.4.9l.3 1 .9-.9zm5.7-4.2l-.7.5.9.5zm.3 9.2l-.6-.6-.3 1zm-19.2-8.4l-.8-.4-.1 1zm16.4 2.4l.6-.9-1.2-.2zm-6.7-2.1l.9.2-.2-1zm-8.1 1.5l1.2.1-.5-1.4zm23.2-.6l.8-.6-.9-.6zm-2.1-1.1l.7-.7-1-.5zm-17.4 3.7l.7.9.5-1.2zm7.3 2.7l-.9-.3.1 1.1zm5-.8l.7-.9-1.2-.3zm-6.5-2.9l.8.4v-1.1zm21.2 2.2l.6-.8-1-.3zm-5.6-3.3l.7.4.1-.9zm-23.63-8.1l.02 1.7 1.64-.8zm-2.32-4.66l-.4 1.64 1.68-.32zm-2.4 7.6l1.1 1.52.98-1.87zm2.4-1.47l.7-1.75-2.1.14zm-3.42-1.76l1.1 1.53.97-1.97zm15.84.1l.9 1.64 1.2-1.78z"/><path d="M191.9 323.62l1.2 1.52.96-1.97zm3.08-2.08l1.57.9.15-2.2z"/><path d="M193.86 324.22l1.67.9.05-2.2zm-1.4-1.52l1.4 1.3.56-2.04zm4.24.62l1.2 1.43.97-1.88z"/><path d="M197.9 323.14l1.48 1.2.56-2.04zm.42 1.78l.2 1.6 1.54-.9zm3.4 5.88l-.45.83 1 .03zm-10.48-.8l.75.65.3-1.22zm6.78-.45l.45-.83-1-.04zm-6.18 1.92l-.44.84 1 .03zm-.8-2.95l-.04.9.88-.36zm4.95-8.36l-3.42-.16 1.26 3.82z"/><path d="M198.72 320.48l-3.43-.27 1.27 3.83zm4.22.22l-3.53-.36 1.16 3.83z"/><path d="M206.26 320.87l-3.52-.26 1.26 3.82zm-14.4 8l1.25-.9-1.47-.9zm5.73-1.3l1.48 1.2.46-2.13zm18.4-2.05l1.3 1.3.77-2.06z"/><path d="M213 328.53l1.28 1.2.57-1.94zm-12.42-1.36l.78-1.76-2-.06zm6.52-4.35l.68-1.76-2.1.05zm-1.14 2.48l.8-1.76-2-.06zm-3.04-.5l.78-1.75-2.1-.06zm.45 2.18l-.76.65.95.64zm5.33 4.85l-.64-.66-.33 1.12zm-8.53 2.57l.34-.92-1 .07zm4.9-9.14l-.77 1.96 2.2-.05zm.84 3.34l-.78 1.76 2.2-.05zm-5.85-1.8l-.78 1.76 2.1-.04zm19.25 1.6l-.78 1.75 2.1-.04zm-21.26 2.75l.85-.76-1.04-.53zm-5.44-4.75l.74.65.23-1.02zm8.54-2.78l-.45.83 1-.06zm9.3 5.58l.06.9.87-.46z"/><path d="M198.93 323.57l1.9 1.48.62-2.75zm-1.77-2.47l1.2 1.42.87-1.86zm5.14 5.05h1.5l-.72-1.66zm-9.2 7.45l.9.04-.46-.97zm.94-3.88l.26.98.85-.76zm9.56 3.36l-.97.46.95.74zm3.9-10.08l-1.47.5 1.2 1.32zm2.08-.55l-.2 1.5 1.68-.4z"/><path d="M210.12 323l-1.47.6 1.2 1.32z"/><path d="M210.87 325.16l1.46-2.1-2.75-.5z"/><path d="M209.18 323.6l1.33-2.5-3.12-.2zm.12 1.97l1.58 1.1.35-2.13zm2.97-.4l1.66.9.16-2.12zm-.55.73l-.2 1.7 1.66-.7zm.18-3.4l-.3 1.62 1.66-.5zm-5.34 5.66l.9-.16-.65-.75z"/><path d="M213.83 321.55l-3.44-.36 1.17 3.93zm9.27 2.28l-.13 1 1.1-.28zm-1.6.2l1.35.6.08-1.7zm-2.64-.72l1.26.9.3-1.62z"/><path d="M221.9 325.4l.94.64.2-1.42zm-2.93 2.52l.28-1.82-1.86.62zm2.46-.67l.38-1.73-1.87.43zm-6.13-.38l.28-1.73-1.77.43zm-1.72 4.33l.65-.74-.93-.44zm-5.54-3.44l.83.45.03-1zm7.26-3.7l-.14.8.9-.16zm-1.4 7.5l.74.55.14-.9z"/><path d="M221.42 328.55l-.25.72.9-.06zm-10.04 2.7l.73.45.03-1zm7.15-3.9l-.14.9.9-.16zm1.57-3.52l.08 1.3 1.26-.7z"/><path d="M218.02 324.27l.73 1.86 1.5-1.6z"/><path d="M217.73 324.4l-.1 1.32 1.37-.5zm-1.47-2.4l-.1 1.4 1.47-.5z"/><path d="M215.52 324.35l.8-.06-.36-.88zm1.22-2.7l-3.23-.38.85 3.65zm2.92.2l-2.83-.3.92 3.14zm2.9.1l-2.82-.2 1 3.04zm2.33.14l-2.32-.14.87 2.45zm-2.74 5.6l-.1 1.5 1.57-.5zm2-3.24l-.3 1.52 1.68-.3z"/><path d="M223.08 324.93l-.2 1.62 1.67-.52zm.58 2.67l1.4 1.2.55-2.15zm4.68-.52l1.57 1 .25-2.12zm-1.74-.58l-.2 1.6 1.66-.6zm-.14-1.9l-.4 1.63 1.78-.42zm-1.9 6.04l.34-.92-1.1.07z"/><path d="M228.4 322.26l-3.43-.26 1.37 3.9zm-24.8 11.02l-.55.74 1 .13zm17.27-1.08l-1 1.67 2.1.16zm1.78-1.83l-.98 1.77 2.1.16z"/><path d="M212.66 332.36l-.14.9.98-.37zm15.28-.84l-.15.8.9-.26zm3.5-9.06l-3.12-.2.55 3.67z"/></g><g fill="#ffbca4"><path d="M201.2 384.7l.6-1-1-.2zm-.8 4.7l-1.1-1.3-.6 1.5zm-7 8l-1.1-1.3-.7 1.4zm3.7-.3l-1.1-1.3-.6 1.4zm-5.7-29.1l-1.8-.9-.1 1.8zm.6 3.8l-1.9-.9-.1 1.8zm.2 19.3l-1.9-1-.1 1.8z"/><path d="M191.3 390.2l-1.5-.9-.1 1.6zm.8-32l-1.3-1.6-.8 1.5zm6 8.3l-1.3-1.6-.8 1.6zm-3.4 10.5l-1.4-1.5-.7 1.6z"/><path d="M192.9 378l-2 .3.9 1.6zm2.7 10.4l-2 .3.8 1.5zm-1.1-14.7l-2 .4.9 1.5zm.5 7.2l-1.4-1.6-.7 1.6zm-3.5 14l-1.1-1.3-.6 1.4zm-.1-11.6l.4-2.1-1.8.4zm4.5-23.7l.6-2-1.8.2zm-5.1-6.1l.6-2-1.8.2zm5-4.1l.5-2-1.8.3zm3.6 20.1l.4-2-1.7.3zm-1.5 4.4l.4-2-1.8.4zm-7.4-26.1l.5-1.9-1.7.2zm.5-9.5l.4-1.7-1.4.3zm-1.8 3.1l1.5-.9-1.2-.9zm7.3 1.7l.6-1.7-1.5.2zm-5.8-2.7l.5-1.7-1.4.2z"/><path d="M190.8 388.1l.4-1.7-1.5.3zm1.9 1.7l.4-1.7-1.4.3zm-.5-6.3l-1.2-1.3-.6 1.5zm4.2-.2l-1.3-1.5-.8 1.6zm10.2 4.1l-.8.5.7.5zm-13.7-4l1.4-.2-.7-1.1zm-.4 2.6l.1-1.2-.9.3zm2.6 5.2l-1.1-.4.1 1.1zm1.2-23.2l.8-1-1.2-.4zm-2.5-12.4l.8-1-1.2-.4zm1.5 15l.8-1.1-1.2-.3zm-3.3 6.2l-.8-.8-.4.9zm.4-2.7l-.8-1-.3 1zm9.1.1l-1.1.5.9.6zm-7.7-7.2l-1.1.5.9.7zm-1.5-4.2l1.3.4-.1-1.2z"/><path d="M191.4 360l1.3.4-.2-1.2zm1.7-16.1l1.2 1.2-.3-1.2zm-3.8 19.9l1.6-1.3-1.7-.9zm-.4-3.7l1.9-1-1.7-1.1zm5 7.3v-2.2l-1.7 1.1zm.3-5.6l-.1-2.2-1.7 1zm.6 18.3l-.1-2.2-1.7 1zm-1.4 11.7v-2.3l-1.7 1zm9.7-41.4l-1-.7-.3 1zm-7.1-12l.1 1.2.9-.5zm-3.8-2.3l.1 1.2.9-.6zm3.3-7l.1 1.2.9-.6zm-2.6 2.1l.1 1.2.9-.5zm1.2 20.7l1.2.3-.2-1zm-5-7.2l.1 1.2.9-.5zm2.5 10.3l.1 1.2.9-.4zm-1.4-11.1l1.1-.8-1.1-.6zm8.8 35.7l-.7.5.7.5zm2.9-2.9l.2.7.5-.5zm-6.2-.6l.7-.1-.3-.6zm-2.5 16.2l-.8.5.7.4zm2.9-3l.2.8.5-.5zm-6.2-.6l.8-.1-.4-.6zm23.1-26.5l.6-.4-.6-.4z"/><path d="M210.2 368.6l-.3-.7-.4.5zm-12.3-7.2l.5 1.3.9-.8zm-3.8-5.5l1.2-.1-.6-.9zm-2.6 9.2l.1-1.2-1 .4zm4-30.4v1.2l.9-.4zm-3.3-8.5v1.2l.9-.5zm0 7.7v1.3l1-.5zm-1.9 8.8l.5-.8-.8-.2zm3.3 2.3l.1-1-.8.2zm4.9 5.7l.6.9.6-.7zm-3.9 12.3l.9 1.8 1.1-1.3zm4.8-15.4l.5 1.1.7-.8z"/><path d="M198.1 350.2l.5 1.1.7-.8zm-1.3-12.1l1.8-.7-1.1-1.3zm-6.6-5.4l1.8-.7-1.1-1.4zm1.2 8.2l1.9-.2-.8-1.6zm-.6 39.7l-.5-1.4-.9.9zm3.4 5.7l-1.1.1.5.8zm3.2-9.1l-.2 1.2 1-.3zm-1.9 3.1l1 1 .4-1.1zm-5.4-3.8l1-.5-.9-.7zm.9 9.6l-.3-1.1-.8.6z"/><path d="M191.4 387l-.5-1.3-.8.9zm3.3 5.8l-1.1.1.5 1zm3.1-9.4l-.1 1.3.9-.4zm-4.5-10.7l1.3-2.9-2.6-.1zm-.4 22.7l.9-1.8-1.7-.1zm-3.9-1.5l2.5-1.7-2.3-1.5zm.1-7.7l2.5-1.8-2.3-1.5zm0 3.6l2.5-1.8-2.3-1.5z"/><path d="M189 382.3l2.5-1.9-2.3-1.4zm.1-3.5l2.5-1.8-2.3-1.5zm0-3.3l2.5-1.9-2.3-1.4zm2.9-3.1l.4-3.2-2.5.9zm-.6-9.3l.3-3.1-2.5.9zm0-4.7l.3-3.2-2.5.9zM189 367l2.5-1.8-2.3-1.4zm-.3 30.3l2.5-1.8-2.3-1.5z"/><path d="M192 398.8l-1.5-2.7-1.6 2.2zm3.2.5l-1.5-2.8-1.6 2.3zm-5.7-55.4l3 .2-.9-2.6zm3.2 9l1.2-2.9-2.7.1zm5.7 28.2l1.1-.3-.6-.9zm-5 2.4v-1.1l-.8.4zm7.2 3.8l-.9-.3.1 1zm-11.3-18.6l-.1 2.2 1.8-.7z"/><path d="M190.7 365.9l.1 2.3 1.7-.9zm1.2-13l-1.8-1-.1 1.8zm-.3 3.8l-1.8-.9-.1 1.8zm.3-9.8l1.4.3-.2-1.2zm.8-1.1l1.4.3-.2-1.2zm-3.6 2.6l1.7-1.2-1.7-1.2zm.2-4.3l1.7-1.2-1.6-1zm6.1 3.7l-.1-2.2-1.6 1.1zm2.1-.2l.5 1.3.8-.9zm-3.4-5.7l1.2-.1-.6-1zm-3 9.2l.2-1.2-1 .3zm1.1 6l.3-3.2-2.4 1z"/><path d="M191.8 347.2l.3-3.2-2.2.9zM189 352l2.5-2-2.4-1.3zm.9-15.8l2.6-1.7-2.2-1.6zm.5-6l2.1-1.1-1.6-1.3z"/><path d="M189.3 339.1l2.1-1.4-1.8-1.2zm-.1 14.1l-.1 2.7 1.7-1zm.9-2.3l.1 2.3 1.7-1zm9.9 35.3l1.1-.3-.6-.9zm-5.1 2.4l.1-1-.8.3zm7.3 3.8l-.9-.3.1 1zM200 404l-1.1-1.4-.6 1.5zm-7.2 7.7l-1.1-1.3-.6 1.4zm3.7-.3l-1-1.3-.7 1.5zm-2.2 4.2l-1.1-1.3-.6 1.5zm-4.1.7l-1.1-1.3-.6 1.4zm1.4-10.8l-1.8-1.1-.1 1.9z"/><path d="M190.8 404.5l-1.5-.9-.1 1.6zm4.3-1.8l-2.1.3.9 1.5zm-4.1 6.5l-1.1-1.3-.6 1.5zm-.7-6.8l.3-1.7-1.4.3zm1.9 1.7l.3-1.7-1.4.3zm2.4 1.4l-1.1-.3.1 1zm-1.7.6l-.1-2.2-1.6.9zm-.3.5l-.7.5.7.4zm3-2.9l.2.7.5-.5zm-6.2-.7l.7-.1-.3-.6zm1.5-7.8l-.5-1.4-.8.9zm3.4 5.7l-1.2.1.5.9zm3.2-8.9l-.2 1.1 1-.3zm-1.9 3l1 1 .5-1.1zm-5.4-3.9l1.1-.5-.9-.7zm.9 9.6l-.3-1.1-.8.6z"/><path d="M191.5 401.7l-.5-1.4-.9.9zm3.2 5.8l-1.2.1.5.9zm3.2-9.3l-.2 1.2 1-.3zm-5.5 11.5l.9-1.8-1.7-.1zm-4-1.4l2.5-1.8-2.3-1.5zm.3-7.7l2.5-1.8-2.3-1.4zm-.2 3.5l2.5-1.8-2.3-1.5zm-.3 7.5l2.5-1.8-2.3-1.4zm3.3 1.6l-1.5-2.8-1.6 2.2z"/><path d="M194.5 413.7l-1.4-2.7-1.6 2.2zm-3.6.7l-2.6-1.3-.1 2.8zm2.2 2.2l-1.7-2.7-1.4 2.4zm6.9-15.7l1.2-.2-.6-.9zm-5 2.4v-1.1l-.8.4zm7.2 3.9l-.9-.3.1 1zm-4.6-23l-.7-1.2-.7 1.1zm4.4 4.9l-1.1.4.7.8zm1.2-9.9v1.3l.9-.5zm3-3.4l-.2-1-.6.5zm1.7 4.4h-.8l.3.6zm3.1-6.1l-.2.8.7-.1zm-5.6 12l.8-.6-.8-.5z"/></g><linearGradient id="H" gradientUnits="userSpaceOnUse" x1="293.634" y1="440.226" x2="293.4" y2="421.829"><stop offset="0" stop-color="#911319"/><stop offset=".98" stop-color="#ba3024"/></linearGradient><use xlink:href="#M" x="-76.9" fill="url(#H)"/><path d="M186.1 446.5l62 .4c1.1 0 1.9-.9 2-1.9l-.1-2.6-66.3-1.1.4 3.4c0 1 .9 1.8 2 1.8z" fill="#ffd570"/><g fill="#c4412c"><path d="M223.1 433.5l.9-.1-.6-.7zm5.4-.6l-1.3-.1.5 1.3zM216.8 420l-1.2-.6-.1 1.8zm16.1 7.8l.6.6.2-1.2-1 .4h.1l-.7-.3.4-.4-1.2-.4v1.3l.4-.2v1.3zm-22.6-3.5l-1.2.8 1.4.9zm2.7-1l-1.4.1.6 1.5zm9.4 2.7l.9-1.5-1.5-.1.1.1-1.4-.1.6 1.6.8-1.3zm11.8 2.2l.4 1.4.8-1.3zm-7.7-2.9l.2.8.4-.6.4.1-.2-.5.2-.2-.3-.1-.3-.8-.9 1.2zm-16.3 5.4l1.6-.6-1.5-.9zm-1.4-3.9l-1.5-.9-.1 1.5zm-3.9 5.8l-1.4-.9-.1 1.5zM201 430l1.6.4-.2-.5.7-.1-.7-.7.9-.3-1.5-.9v1.1l-.8 1zm1.2-.4l-.1-.4.3-.1-.2.5zm10.8-4.7l-.8 1.2.6.2-1.2.2 1 1.3.6-1.4.5.1zm4.7 2.3l-.7-1.6-.9 1.2zm-24.5 3l1.2-.5-1.1-.7z"/><path d="M196.9 434.2l1.3-.5-1.2-.7zm-7.4-4.7l1.3-.5-1.2-.7zm40.5-2.1l-.8 1 1.3.3zm17.7 8.2l-.8 1 1.4.4zm-1.1-1.2v1.2l1.3-.6zm-5.3-1.4l1.3.3-.5-1.3zm-.6 4.2l.7-.4-.7-.4zm.9-2.2l.7-.5-.7-.3zm1.7 2l.1-.7-.7.2zm3.1-1.5l.1-.7-.8.1zm-20.7-7.4l-1.4-.1.6 1.6zm-1.2 9.9l-.5.3-.2-.3-.1.6.3-.1.6.2zm1.9-11.3h-1.2l.4.8zm4.2 4.4l.8-.5-.7-.5zm9.2-.5l-.7.7.6.2.4 1.1.8-1.2h-.9zm4.5 3.5l.8-.5-.7-.3zm-6.2 3.2l.2-.8-.9.2zm-29.9-5.5l-.1 1.1 1.1-.4zm5.7-.4l.4.8.4-.9zm-3.8 7.4l1 .1-.3-.8zm2.9-14.4l1-.2-.8-.8zm-3.8 5.7l-1.2-.3.3 1zm5.5-7.1l-.3 1 1.1-.2zm7.9 0h-.9l.3.9zm-3-.7l.3.9.5-.7-.1.5.4-.3.5-.4h-.1l.5-.4-1.2-.6v.7h-.1l.1.3zm-2.3 6.9l-.7.5.8.3zm-.8 10.4l1 .2-.4-1.2zm-.8-6l.8-.5-.9-.3zm7.3 4.2l.1-1-.8.3zm-8.6-8.1l1 .1-.4-1.1zm-3.4-1.1l1 .1-.5-1.1zm-11.6-.8l-.6 1.1h1zm3.7 7l.4-.3-.5-.2v.4l-.9-.3.3 1.8 1.7-1.1zm3.4 3.7l.1-1-.8.3zm-10.9-4.1l.3-.9-.9.1zm10.8-3.6l-.6.8.9.1zm-4.7-3.1h-.9l.7.9zm7.5 1.4l.3-.8h-1zm-14.5-.9l.1.7.7-.4zm14.4-.9l.4.4.2-.7zm1.7-4.1l-.2.6.6-.1zm8.4 2.7l-.5-.1.2.7zm2.9 6.1l-.6.4.7.3zm-3.9 2l.5-.1-.4-.5zm1.8-4.9l.3-.5-.6.1zm7.1 7.8l.6.4-.1-.7zm-1.6-3.2l.3-.6-.6.1zm7.2-4l-.6.3.6.3z"/><path d="M228.7 431.7l.5-.1-.3-.5zm1.8-4.9l.3-.5h-.6zm7.8 5l-.5.2.5.3zm-3.4 1.6l.5-.2-.4-.3zm1.8-4.4h-.5l.2.4zm-27.5 4.8l-.5.2.4.5zm-8.3 2.7l.7-.8-1.1-.4zm-5.7-3.5l.7.5.1-1zm19.5 1.9l.7-.7-1.1-.5zm-5-3l.1-1-.8.6zm6.3-3.5l.9-.2-.7-.7zm-24.3 6.9l.1-.9-.9.2zm.6-3.6l.2-.8-.9.2zm-3.6-2.2h.8l-.4-.7zm3.5-1l-.8-.2.2.7zm8.4 2.2l-.2.7.8-.1zm8.5 6.9l.9-1-1.5-.7zm-4.8-1l.6-.6-.9-.3zm2.5-1.9l-.9-.3.3.9.2-.1.2.5.6-.6-.6-.2zm-19.1-8.4l-1.4.9 1.3.7zm-2.7 5.8l1.2.7.2-1.6zm13.5 7.7l.8-.7-1.1-.6zm-5.4-3.7l.1-1.1-.9.5zm7.6-4.4l-.3.9 1.1-.1zm28.6 2l.9-.1-.4-.7zm-7.3-.1l.6-.6-.9-.3zm1.8-10.9l-.9.3.7.9zm3 5l-.1.1-.9.4.8.8.1-.5h.6zm-7.8.8l.6-.7-.9-.2zm-.3-4.5l-.6 1.1.9.1zm8.2 1.9l.6.7-.4.3.9.4-.3-.9-.1.1.1-.9zm2.2 1.4l.1-.8.9.2-.6-1.3-.7.9-.5.2zm3.3 3.8l-.5.8 1-.1zm-7.4 0l-.9-.3.3.9zm2.5-1.6l-.3 1 1.1-.1zm6.7.5h-.9l.3.9zm-6.2 6.5l1 .2-.2-.8zm3.5-3.4l1-.1-.7-.8zm.8 4.9l.8.3-.1-.8zm1.1-8.4l1 .1-.6-.8zm5.8.8l-.7-.2.2.8zm-6 4.3l.7.3v-.7zm3.6-2.5l-.6.8.6-.1.1.5.5-.7h-.3zm-8 .6l.6-.6-.9-.4zm-40.8 1.4v-.6l-.4.3-.6-.4-.1.9-.3.2.3.1v.1h.1l.9.5.1-.9.2-.1zm47.9-4.7l-1 2h2.5zm-21.7-7.4l.8.2-.1-.8-.7.6-.7-1.7-1.4 1.7 2.3.7zm-15.8 8.6l-.2-2.6-1.7 1.7-1.4.9 1.3.7.1-1.4zm9-2.9l-2.4-.9.2 2.2z"/></g><g fill="#fff"><use xlink:href="#N" x="-76.9"/><path d="M212.9 430.6c-.2 0-.3-.1-.5-.2-.4-.3-.6-.9-.3-1.4l6.1-8.8c.6.3 1.3.4 1.9.8l-6.3 9.1c-.2.4-.5.5-.9.5zm6.7 2.6c-.2 0-.3-.1-.5-.2-.4-.3-.6-.9-.3-1.4l6-8.6 1.9.8-6.2 8.9c-.2.4-.6.6-.9.5zm-36 8.733l.023-1.4 66.293 1.087-.023 1.4z"/></g><path d="M193 206.1l-7 108.8c-.2 2.5 1.7 4.7 4.2 4.8l49.2 3.3c2 .1 4-1.3 4.3-3.3 1.2-7 3.8-23.6 5.9-41.3 3.4-29.5 7.9-61.4 9.5-72.3H193z" fill="#bd2641"/><g fill="#890320"><path d="M195.017 314l6.306-91.988 1.397.096-6.306 91.988z"/><path d="M201.4 236.2s11.2-1.7 19-10.3c7.7-8.7 6-19.5 6-19.5h-23.6c0-.1-2.1 27-1.4 29.8z"/></g><linearGradient id="I" gradientUnits="userSpaceOnUse" x1="207.973" y1="324.211" x2="229.319" y2="293.696"><stop offset="0" stop-color="#f25779"/><stop offset=".975" stop-color="#cb1e3a"/></linearGradient><path d="M190.45 319.8l50.05 3c1.5.1 2.8-1 3-2.4l1.5-9.5-58.73-3.14-.47 7.54c0 2.5 2.25 4.4 4.65 4.5z" fill="url(#I)"/><path d="M186.385 308.295l.076-1.398 58.712 3.187-.076 1.398z" fill="#890320"/><g fill="#db3e67"><path d="M191.4 259.7l1.5.3-.3-1.7zm5.4-2l.9 1.9 1.1-1.5h-.3l.6-.1-.8-1.1-.5 1zm-2.1-.4l.4.7.3-.4 1.3.3-.4-1.7-.9 1-.8-.1.1.2-2-.5.9 1.9zm-.4 11.3l.2 2.1 1.6-1.4zm2.2 4.8l1.6-1.5-1.8-.6zm-.8-9l1.6.4-.4-1.8-.4.5-.5-.9-.3 1 .8-.1zm.5-8.6l1.5.3-.4-1.7zm-.4 11.2l-.1-1.2-.9.9zm-.6-7.4v.9l.9-.3zm7.2 5.3l-.9.2.6.8zm4-3.2l-1.2.2.9.8zm-6.8-.2l-.5.9h.9zm4.7-6.3l.2.9.8-.6zm4.7 20.3l.3-1.1-1.2.2zm-6.5-1.3l-.5.9.9.1zm5.7-6l-1-.3.2.9zm-5.9 2.7l-1-.3.2.9zm-3.7-5.3l-.6 1 1.3-.2zm-4.1 5.5l.4.9.6-.7zm-1.6-7.2l-.1-1-.8.6zm-.4 3.9l2.3-.6-1.6-2.2zm8.8-8.6l.2-1-1.2.2zm-2.4-1.9l.9-.5-.8-.5zm4.3 2.6h.8l-.4-.9zm-13.5 6.6l-.3 3.5 1.3-.5-.7.9 1.6.3-.4-1.3 1.8-.7-1 1.3 1.5.3-.3-1.7-.2.1-2-1.3.8-1.1-2-.4 1.5-.5-.5.6 1.5.3-.2-1.2 1.2-.3-1.6-1.1.9-1.3-1.7-.4 1.9-.8.4.8 1.1-1.5-2-.4.1.3-2.4-1.5-.1 3.5.8-.3.6 1.3-1.4-.9-.3 3.5.1-.1.5.9zm.7-9l.8 1.7 1.1-1.4-1.6-.4 3-1.2-.5-.3 1.1-1.5-.4-.1 1-1.3-.5-.1.4-.6-2-.4.4.7-.6-.1.1-.1-1.7-.4 3-1-3.4-2.3-.3 3.5.5-.1.8 1.8.4-.6.3.3v-.8h.1l.7 1.4-.8-.2.9 1.9-1.7-1-.3-.5-.1-.8-.7.6-.2-.1v.3l-.1 3.2zm8.6 12.1l-.3.5-.2-.2-.4.8 1-.1-.2-.2.6-.1zm1.9-2.8l-.9 1.4 1.8-.2zm-3.3-33.1l-1.1 1.4 1.5.3zm-3.3 3.8l-.4-1.7-1.2 1.4zm-1.5 3.9l1.2-1.5-2.1-.5zm-.5-4.6l.9-1.1-1.5-.4z"/><path d="M195.6 238.1l-2-.5.9 1.9zm-2.6-4.5l-1.6-1.2v2.1zm3.8 18.6l-2.1-.5 1 2zm-1.3-3.5l1.6-1.4-1.8-.6zm-1.3 2.8l1.5-1.4-1.7-.7zm4.1-8.7l-.4-1.8-1.2 1.4zm10.8 9.9l.9.8.3-1zm-5.2.5l-.4-.9-.5.8zm5.3-7l-1-.3.2.9zm-10.8 6.6l2 .1-.8-2-.6 1-.3-.2-.5 1 .3-.1zm4.1-3.3l.8-.6-1-.3zm-9.5.5v-1.1l-.3.3v-.4l-.9.3.5.4-.1.1zm7.2 3.5l-1.5.4 1.3 1zm-2.4-8.2l-1.5-.2.5 1.2zm-4.1 19.5l.2-.1.1.2 1.4-1.9-2.7-.6.7 1.3h-.2zm6.3-21.7l-.6 1.1 1.2-.3z"/><path d="M196.8 248.8l-1-.3.4.9zm-2.6-8.4l-.8.6.8.4zm-.5 5.2l2.3-.5-1.6-2.2zm3.3-4.5l.9-.1-.6-.8z"/><path d="M190.6 247.8l1.3-.4-.7.9 1.5.3-.3-1.4 1.8-.6-1 1.3 1.5.3-.4-1.7-.1.1-2-1.4.7-.9.5.1-.3-1.4 1.4-.5-3.4-2.2-.3 3.4 1.7-.5-.6.8-1-.3.5.9-.5-.3zm.8-11l-.1 2.4 2.5-1zm8.3 11.3l-.1-.2-.5.9 1-.2-.2-.2.6-.1-.5-.7zm2.2-3.3l-.8 1.5 1.7-.3zm-1.3 5.4l-.2.2-.3.7.6-.1.2.5.7-.8-.8-.2zm4.9-5.6l-.7 1.1 1.4-.1zm-6.3-3.5l-1 .7 1 .5zm-6.4-12.8l-1.2 1.4 1.6.3zm0-1.3l-1 .4.9.5zm2.2 7.2l.7-.9-1.3-.3zm-1.8-2.7l-1.6-.4.7 1.5zm1.9-.9l-1.1-.2.5 1.1zm-1.2 60.7l-.9 1.1-.8-.2.1.3-2-.6.9 2.1 1.1-1.5.3.8.3-.5 1.3.4zM189 295l1.5.4-.4-1.9zm7.1-1.7l.6-.1-.8-1.1-.5 1.1-1-.3.9 2.1 1.1-1.6zm-4.2 13.4l1.6-1.5-1.7-.7zm2.1-7.7l-.5-.9-.3 1.1.8-.1-.8.9 1.6.5-.4-1.9zm.9-9.6l-1.1 1.5 1.5.4zm-1.7 12.1l-.9 1 1 .3zm-.5-6.5v.9l1-.4zm6.9 6.7l.3-1.1-.9.2zm4.1-3.3l.3-1.1-1.2.2zm-6.2-.4l-.3-1-.6.9zm4.4-7.7l.2 1 .9-.6zm-12 13.3l2.4-.6-1.6-2.3zm.6 1l-2-1.5.8-1.1-2-.5 1.5-.5-.5.6 1.5.4-.2-1.2 1.2-.4-1.6-1.2.9-1.3-1.6-.5 1.9-.7.3.8 1.1-1.6-1.9-.5.1.3-2.4-1.6-.2 3.8.8-.4.6 1.4-1.3-1-.4 3.7h.1l.4.9-.4-.3-.3 3.7 1.3-.5-.7 1 1.5.3-.3-1.5 1.8-.6-1.1 1.3 1.5.4-.3-1.9zm8.6-11.1l-1.2.2.9.9zm-2.6-.9l.9-.6-.8-.5zm4.2 2.7h.9l-.4-.9zm-12.7-2.6l.7 1.8 1.2-1.5-1.6-.5 3-1.2-.5-.3 1.1-1.6-.3-.1.9-1.4-.4-.1.4-.6-2-.5.3.8-.6-.1.1-.2-1.6-.4 3-1-3.4-2.5-.3 3.7.4-.1.8 1.9.4-.6.3.3.1-.8.1-.1.6 1.5-.8-.2.9 2.1-1.7-1.2-.3-.5v-.9l-.8.8-.2-.1v.2l-.1 3.5zm8.4 12.8l-.3.6-.1-.2-.5.9 1-.2-.2-.2.6-.1zm1.1-1.3l1.7-.3-.8-1.3z"/><path d="M190.6 275.6l1.1-1.6-2-.5zm2.8-3.5l-1.9-.5.1-.7-1 .4.9.6v-.2l.8 1.9zm1 15l-2-.5.9 2.1zm.4-5.3l-1.8-.6.2 2.2zm-3 4.5l1.6-1.5-1.7-.7zm3.9-11l-1.2 1.4 1.5.4zm11.9 13.3l.4-1.1-1.2.2zm-6.5-1.4l-.5 1h.9zm4.8-6.6l.2.9.8-.6zm-7.8 7.3l-.9-2.2-.6 1.1-.2-.3-.6 1.1h.4l-.1.2zm1.9-4.5l.2.9.8-.6zm-9.3 1.3v-1.1l-.3.2v-.4l-1 .4.6.4-.1.1zm7.2 3.8l-1.6.4 1.3 1.1zm-3.8-8.9l.4 1.2 1-1zm-2.8 20.9l.1-.2.1.3 1.4-2.1-2.7-.6.7 1.3h-.2zm6.4-23.1l-.6 1.2 1.3-.3z"/><path d="M194.5 283.4l-1-.2.4 1zm-2.5-8.9l-.9.7.9.4zm-.6 5.6l2.4-.6-1.6-2.3zm3.7-5.8l-.4 1 1-.1zm-6.8 8l1.3-.4-.7 1 1.5.3-.3-1.5 1.8-.5-1.1 1.2 1.6.4-.3-1.8-.1.1-2-1.5.7-1 .4.1-.2-1.4 1.3-.5-3.3-2.5-.4 3.7 1.8-.6-.7.8-.9-.2.4 1-.4-.4zm.9-11.7l-.1 2.6 2.5-1zm8.5 11.6l-.3.6-.1-.2-.5.9 1-.2-.2-.2.6-.1zm2-2.9l-1 1.5 1.8-.2zm3.5-.2l-.7 1.2 1.4-.1zm-4.8 6.3l-.2-.4-.1.3v-.1.1l-.4.6.6-.1.3.6.6-.8zm-1.4-10l-1 .6.9.6z"/></g><linearGradient id="J" gradientUnits="userSpaceOnUse" x1="225.772" y1="262.115" x2="280.472" y2="270.037"><stop offset=".01" stop-color="#9a0c10" stop-opacity="0"/><stop offset=".985" stop-color="#9a0c10"/></linearGradient><path d="M239.6 323.1c2.2.1 4.1-1.4 4.4-3.5l6.5-45.9 8.6-67.5h-28.4l-14.3 115.3 23.2 1.6z" fill="url(#J)"/><g fill="#750e29"><path d="M219.1 219.4l.2-1.1-1.2.5zm25.3-12.1v1.2l-.2.2h.2v.7l.8-.7.6.1-.4.4 1.3.1.1.1.1-.1h1.7l-.8-1.8 1.2-1.4h-2.6l.8 1.2-.4.4-.2-.5.1-.2h-.2l-.2-.6-.5.6h-.9l.3.6-.1.1zm-18.7 2.1v2.1l1.5-1.3 1.7 1.2-.2-1.8.6-.6-1-.4.1.9-1.2.6zm-1.1-1.7l-1.6.8 1.8 1.2zm-2.7 4l1.6-1.4-1.6-.7zm22.8 2.1l-.1-.6.3-.3-.4-.2-.1-.6-.4.3-.7-.3v.8l-.5.5.6.1v.8l.7-.6zm9.9-2.4l-.5.5-.1-.2-1.6 1.4 2 .4-.1-.4.6.1zm-19.7 4l-.4.4-.4-.9-.7.8 1 .2-1.1 1 2 .3zm27.5-1.9l-.3-1.1-1.4 1.1.9.1.2 1.4 1.5-1zm-47-3.7l-.4-1.4-1.3 1.1zm-17.9 3.5l-.9.1.6.8zm17.1 10.8l1 .1-.5-.8zm3.6-15.7l-.8.9 1.2.1zm17.7 4.8l-1.3.5 1.1.7zm12.2-3l-1.3.5 1.1.8zm-14.9 3.3l.2-1.2.7 1.4.9-1.8h-1.8l.1.3-1.2.5zm-4.9 4.3l-.6.9 1.1.1zm10.9-6.8l1.2-.3-.9-1.1zm3.3-2l-.4 1.3 1.2-.2zm1.7-2.9h-2.1l1.2 1.7zm-8.2 3.2l-.8 1.4-.2-.4-.6.9 1.1.2-.2-.3 1.8-.2zm5.2 2.4l1.5-.1-1.1-1.6-.7 1.2-1.5-.1 1.2 1.8zm-18.5-.2h2.2l-1-1.7zm28.3 7.6l.3 1.1.8-.9zm13.1-5.3l.2-.4.4 1.9 1.5-1-1.9-.9.3-.4 1.1.2-.3-1.4-1.4 1h.1l-.6.1zm-13-1.8l-.8-.9-.2 1.2zm9.68-5.37l.8.4.1-.8 1 1.4.8-1.3-1.8-.1-.8.2.1-.1-1.4-.1.8 1.1zM225.7 220l.3-.7-.7.3zm.8-6.9v.8l.6-.4zm-15.7-3.8l-.4.7h.9zm4.1-1.5h0l.7.8.2-.3.6.1-.4 1.2 1.4-.4-.8-.8.4.1-.3-1.4-.5.4.7-1.2-3.2-.1 1.2 1.5zm26.7 23.2l.3-.6h-.8z"/><path d="M234.9 227.6l.7-.4-.5-.4zm5.7-11.2l.4-1.4-1.3.6zm5.5-5.4l.3 1.1.8-.6zm-8.3-3.1l-.8.9 1.1.1zm29.7 4.5l-1.2-.2.3 1zm-28.1-.4l-1.7 1 1.4 1zm14.6 4.5l-.7.4-.1-.7-1.6 1.3 1.9.5-.1-.5.3.2zm8.3-8l.3 1.9 1.5-1zm-45.4 2.9l-.1-1.1-.9.4zm.7-4.2l-.5 1 1.1-.2zm-23.8 3l-1-.2.3 1.1zm14.2 5l.2-1-1.1.3zm-2-6.2l1.4-.6-1-.8zm-13-.6l1.1-1 .3.3-1.2 1.5h.1l-.4.3 1.6.4-.5-.5.9.2.1.7 1.4-.8.2.3-1.4.9 1.7 1 .1-.9.4.4v.1l-.3.3h.3v.3l-.8.6 1.7.4-.2-.9.1-.1h-.1l.9.4v-.4h.2v.3l.4-.2h.1l-.1.1.1.1v.2l-.4.8.5-.1v.2l.3-.2.5-.1-.1-.2.1-.1.4.3v-.5l.3.1-.1-.3.5.1-.2-.6.2-.1-.2-.1v-.1l1.3.2v.3l.8-.5-.7-.4v.4l-.5-1.4.1-.3.7.2-.3-.7-.3.4.3-1.2.9.2-1.1-2-1.1 1.4.7-1.7-2.8-.1v.1h-3l.2.2h-.6v.1h-3l.9.9-1-.4v1.2zm5.1-.6h0zm1.7 1.4l-.6-.2.1-.4.5.6zm-1.3-.8h0-.1.1zm-1.4-.5l-.6.1.4-.4.2.3zm0 2.5l.1-.9-.1.1.1-.4.6.1.6.5v.3l.2-.1.1.1-.5.5.2-.7-1.3.5zm.7 1.2h0l-.2-.1.2.1zm3-.3h0l.1.2-.1-.2zm.4.1h-.1.1zm.1-3.4l.6.1-.7.3.1-.4zm-.3.5l-.3.1 1.4 1.2-.5.5.2-.7-1.6.6.7.6v.1l-.2.2-.2-.5-.9.7-.3-.2v.4l-.5-1.4.1-.3.7.2-.2-.4.4-.3.5.6.4-1.7.3.3zm-1.4-2.2l.9 1.3-.7.1-.4-.8.2-.6zm-3.4.3l.1.1.1 1.4-.8.1.6-1.6zm-.9 2.1l.2-.4.9 1.1-1.2-.4-.5-.9.6.6zm34.6 2.1l2.8 1.2v-2.6zm-19.8-1.8l-1.9.9 1.8.8zm1.9-1.1l.5 1.3-.7 1 2.2-.1-1-1.6.3-.6.2.5.8-1.5h-1.5l.2.5h-.8l.7-1.1-3.2-.1 1.9 2.4zm7.4-.1l.1.9.3-.3 1.7.4-.3-1.7-.6.4-.8-.3.6-.9-3.2-.2 1.7 2.4zm3.5.2l1-.3-.5-.5.5-.8-3.1-.2 1.7 2.4zm3 .2l.1.6.8-.8.3.5.6-.8-1.1-.2.2.5-.5-.3.9-1.4-3.2-.2 1.8 2.4zm3.9-.9l.7 1.2-.4.5 3.1.1-.7-1.5.9-1.3.9 1.7v-.1l.7 1.3 1.2-1.8.9 1.1 1.1-2.2 1 1.5 1-1.7H238l.1.1h-3l1 1.1-1.6.2.6-1.3h-1.7l.1-.1-2.2.2.5.8-1.2 1.3.7-1.7h-1.2l.3-.6h-3.1l1.8 2.4zm12.6 1.8l-1-2.5-2.1 2.3zm-19.4 7.4l-.3-.5-.2-.2v.1l-.5-.3.2-.1-1.6-.7.1 2.1.9-1 .2.7.4-.3-.1.2zm-3.3-6.1l.1.5 1-.7-.7-.4-.1-.2-.1.1-.3-.2v.5l-.3.3zm-6 7.2l.4-.4 1.1.8.1-.6.1.2.3-1-.9.1.1.2-.7.3.7-.7-1.4-.6zm-13 .4l-.5-.2.1-.5-.6.2h-.1l.2 1.2zm1.9-5.4h1.1l-.4-.8zm-7.2.3l1.3-.1-.5-.9zm10.8-3.9l.2 1.3-.2.4 1.2-.2-.4-.5.8-.5zm-1.5-1.6l.6.5-1.5.6 1.2 1 .4-1.6.6.5.5-2.1.6.8-.3-.1.1.6.3-.2.9 1.2.6-.9.1 1 1.2-1.1-1-.4.5-.9-3.2-.1.1.1-1.2.6.4-.6-2.2.1.9 1.7zm50 3l1.3-.3-.9-1zm7.5 1.5l.5-.4.8.4v-.8l-.5.2-1.1-.5zm-8.4-3.1l-.4-1-.8.9z"/><path d="M249.55 208.74l.3-.8h.2l.6.9 1-1.4.6.7-2.5 1.4 2.8 1.2v-2.3l.1.2 1.1-2.2.7 1-.3.2.6.1.1.2.1-.1h.2l-.2.2h1l.1.1v-.1l2.1.1-.6-1.4.8 1.1.1-.2.8-.2.1 2.5 2.5-1.2-2.3-1.6-.1-.7-.9 1 .7-1.3h-2v-.1l-.2.1-1 .1.3.6-.4.3-.2-.7.2-.2h-5.3l.7.9h-.6l-.1-.8-.8.6-1.3.1zm-54.95 6.56l1.2-1.1-.6-.1.1-.2h-.9l.1.1h-.2zm2 0h-1.2l.8.9zm5.5-.7l-.4.5-.7.3-.3-.2v.9l-.1.1h.1l1.9.1zm-5.2 8.8l.2-2.1-.8.6-.1-1 .1.2.9-.9h-.4l.3-.9-1 .1.5.7h-.7l.1.1-1.2.7 1.5 1-.8.6zm2.3-4.1l-.9-.3.8-1.3-.9-.1.3-.5.7-.2-1.1-1.4.7-.3-1.9-.8-.3-.5-.4.7h.5v1.6l1.2-.5-.8 1.7.6-.1.2.2h-.3l.6 1.6.1-.1v.8zm6.7-3.6l.8-.6-.9-.5v1.1l-.9-.6-.2 1.3 1.2-.6zm-6.6 3.6l-.9.6 1.1.5zm9 3.9l.8-.9h-1.2zm-8.4 1.9l-.5.8 1-.2zm-1.3.4l-.7.2.6.5zm1.6 5.7l.7-.4-.8-.3zm-5.5-14.4l.3.6.8-.7-1.3-.4.2.5-.9-.1.4.9zm4.4-2.1h0l.9.5.1-.9h.2l.1.3.2-.3h.2l-.1-.2.5-.8-1.2-.1.1.3-.2.1-.9-.3.1.6-.7.3.7.5zm1-.7h0zm2.1 10l.5.9.5-.8zm1.2-6l-.1-.8-.5.2.3-.5-.7.1.4.4-.2.1zm1.8-.8v.9l.9-.5zm-9.1 7.4l1.2-.2-.6-.9zm22-6.3l-1.2-.5.3 1.2zm-14.4-1.4l-.3 1.3 1.3-.6zm-5.4 5.3l-.2-1.1-.4.3.2-.6-.9.1.5.7-.3.1zm9 2.6l.6.2-.3-.6.2-.3h-.3l-.1-.2-.2.2h-.1l-.3-.4-.6.8.6-.1v.1l-.1.2h.2l.2.4zm3.7-3.4l-.2-1.1-.9.6zm11.7.5l.7-.9-1.3.1zm-15.8 7.2l.1.7.7-.4zm20.7-5.1l.9-.2-.5-.7zm-4.9 1.8v-.8l-.7.2zm6.2 3.4l.7-.5-.8-.2zM204 215.6l.4-2.5.3-.6-.7.2.3.3-2 .7.1-.3-.9.2.3.3-.4.1zm3.6 4.4l.9-.3-.8-.5zm-.6-3l.8-.8-1.2-.2.1.3-.3-.8-.8.9 1.2.1.1.3-.9.4 1 .7zm-6.8-.6l-.9.2.6.8zm5.3 5.8l-.1.9.9-.4zm-1.3 3.6l1.3-.6-1-.7zm-6.2 3.5l1.1.5-.3-1.1zm9.9 3.3l.7-.9h-1.2zm-3.8-12.6l-.8 1h1.2zm-1.1 6.7l-.2.9 1-.4zm14.4-3.7h-.6l.6.7.3-.5.3.1.1-1-1.1.4zm-7.6-.1l1.4-1.1-1.4-.6zm20.8-11.1h-1.8l.8 1.8zm4.6 8.1l1-.8.4.3v-.6l.2-.2-1.6-.7zm-10.7-5.4h0l-.2-.1.1 2.1 1.5-1.3-.5-.2.2-.2zm19 2.3l-1.6 1.2 1.9.5zm6-5.4l-1.7 1.4 1.9.4zm-6.3 19.3l2 .3-.4-1.7zm-9.3-10.7l-1.5 1.4 1.9.3zm-6-.3l2 .3-.4-1.8zm32-1.7l1.7.4-.3-1.4zm-45.8-5.6l.7.1-.3.4h.2l-.3.7.5-.1 1.3-.4.7-.2-.6-.8-.4.7-.1-.2-.3-1.3-.4.3-.2-1.3-1.5.9 1.3.8zm-1.8 2l-.7.2.2.2-1.4.8 1.7.6-.2-1.3.2.2zm8.5-1.5l-.8-.3-.1-.7-.5.4-.3-.1v.1l-1-.4.1 1.7.3-.3.7.2.1.8.7-.7.2.1v-.2zm-2.6 5.4l1.6-1.4-1.7-.7zm.3-4.2v.3l-.2-.1.1.7v.4l.3 1 .9-.8-.7-.1.8-.5-.2-.1.2-.1-1.2-.7zm-.1 1.4h0zm-1.5-2.1l-.8.8 1.2.1zm-7.5 3.5h-1.1l.6 1.1zm-1.4 18.5l.2-.8-.9.2zm-4.2-3.1v.8l.6-.5zm.4 6.4l.7.2-.3-.7zm-7.3-19.4l1.1-.1-.8-.8zm49.4-1.3l1.4.2-.4-1.2zm-5.9-.9l-1.1.1.6 1zm4.4 8.6l1.2-.2-.9-.8zm-11.2-7.5l1.2.8.2-1.2zm13.7-3.6l-1.3.5 1.1.7zm-14.8 2.2l-1.4.4 1.2.8zm-7.9-3l.9-.8-1-.4zm3.6-.3l-.9-.4v1.2zm-.8 8.4l-.6.9 1.1.2zm11.7 7.5l1.1-.3-.9-1.1zm1.1-9.4l-1.3.7.7.6-.3.2 1.1.5v-1.1l-.5.3zm-8.2 7.8l.8-.9-1-.3zm6.7-13.6l-.4 1.4 1.2-.2zm2.9-.6l-.4 1.4 1.2-.3zm13.4 5.3l-1.2.6.3.3-1.2.6 2.2 1.1.1-2.3-.3.1zm-4.6 5.8l.7-1-1-.2zm4.4-13.3l.5.9.6-1zm-9 2.5l.7-1-1.2.1zm-10.1 10.2l.8-.2-.6-.7zm-4.5-1l.5-.6-.6-.2zm-9.9-3l-.3.7.8.1zm3.2 4.3l.3-.7-.7.3zm1.5-6.5l-.7-.4.1.8zm-17.8 7.4l-.5.7.9.1zm5.7 2.1l-.5.6.7.1.3.4.3-.8-.5.2zm1.4-5.1l.5-.4-.6-.4zM208 216l-.4-.8-.5.6zm2.3 3.8l.4-.7-.8.2zm3.3-8.3v.8l.6-.4zm-8-.3l.1.6.5-.3zm13.5 24.8l.8-.6-.8-.2zm7.9-3.1l.7.1-.3-.7zm-4.8-4.9l.2-.6-.7.1zm17.1 7.8l.3-.6h-.7zm-5.5-4l.7-.4-.5-.4zm27.5-16.3l-1-.5.2 1.1zm-10.2-2.8l1.2.1-.3-1zm-5.7 3.4l.1 1h-1.2l.7 1.3.5-1.2.1.1.8-.6zm-8.4-3.2l-.4.6-.5-.2.1 2.1 1.5-1.4-.4-.2zm28.8 4.9l.8-.8-1.1-.1zm.8-3.9l.3 1 .8-.9zm-.1-2.9l.9.5.1-.8zm0-2.5l-1 .2.8.6zm-9.7 6.2l-.2.1v-.1l-.2.2-.9.5 1 .7.1-.6h.3l-.2-.4zm-9.7 9.2l.4-2-1.7 1zm6-2.9l-1.1.5.4.3.2.9.9-.8-.6-.2zm-2.6-1.3l-1 .6.2.1-.6.3.8.6.1-.6.3.2zm13.4-2.3l-1.2.1.5.8.3-.3.3 1.9 1.5-1-1.8-1zm-1.4 3.2l.9.1-.3-.7zm-16.1 7.2l.3-1.6-1.4.8zm-4.6-8.3h1.3l-.4-1.1zm-24.7-4.1l-.4 1.4 1.2-.6z"/><path d="M208.2 221.4v-.1l.2.1.1-.7v-.5l-.5.3h-.4l.1.1-.2.1.5.4zm10.9 2.7l.8-.8-1.1-.2zm2.1-11.2l1.3-.5-.8-.9zm-5.6 2.3l-.9.5 1 .7zm7.8 4.1l.2 1 1-.9zm-1.9-1.7l-1 1.1 1.1.4zm4.3-4.4l.6-.9-1.2-.1zm-8.3 7.6l1-.9-1.2-.2zm-10.7-2.5l-1.2.3.9.7zm-4.4 5.5l-.3-.9-.6.6zm1.3-4l-.1-.1.4.1-.3-.7.4-.3-1.1-.6.1 1-.4.6zm5.9-7.2l.3.6-1-.1h.1l-.2-.2v-.3l-.1.1-.2-.2-.2-.3.5-.4-1.3-.6.1-.8-1.9.8 1.8.9v-.1l.1.9.5-.5-.3.6-.3.1.2.2-.1.1h.3l.5.4v-.3l.3.1.5 1.5.8-1.4.2.5 1-1.3zm-.3 7.2l.2 1 1-.7zm13.7-6.2l-.2.5-.1-1.3-1 1 1 .4-.3.7 1.3-.4zm9.1 2.5l1.3-.5-.8-.9zm-15.4 1.9v-1.2l-1 .5zm7.7 4.4l.9-.8-1.1-.2zm39.3 2.7l.7-.7-.9-.2zm-31.9-8.6v-2.6l-1.2.6-.2-.7-1.5 1.4.2.1h-.1zm26.5-4.7v.2l-.5-.7h.4l-.6-.9 1-.3-.9-1-.3 1.1-.3-.5-1.1 1.8 1.7-.2-.3 1.2.9-.2.1 2.5 2.4-1.1zm-7.9 4.1l.2.1-.5.2-.6-.7-.3 1.2 1-.3.6.5.1-.6.2.2.2-.7v-.1l.1-.4-.1.1v-2.2l-2.8 1.3 2.4 1.1zm14.2-7.8v.2h-.4l-.3-.9-.7.9.9.2.3.7.4-.5.2.3.4-.6h.1l.2-.3h-.1l1.1-2h-3.2l1.7 2zM202 225.4v-.2l-.7.2.3.3-.7.5 1.4.4zm-4.7-1.3l.5 1.1.5-1.1zm2.1 8.3l1.2-.3-.9-.8zm-3.5-13.3h0l.4-.5-.8-.2.3-.1-1.2-1-.5 1.7.2-.1.5 1.2 1.1-1zm-.6-.6l.2.5-.8-.2.6-.3zm-1.2-6.5l.6-.1-.3.6 1.1-.1-.6-1-.1.2-.8-1.3-1 1.9h.2l1 .3z"/></g><linearGradient id="K" gradientUnits="userSpaceOnUse" x1="225.734" y1="230.96" x2="222.973" y2="201.332"><stop offset=".01" stop-color="#9a0c10" stop-opacity="0"/><stop offset=".975" stop-color="#730c2d"/></linearGradient><path d="M190.8 240.1s13.8-8.4 32.7-9.2c17.4-.7 31.7 1.6 31.7 1.6l4.02-26.4h-66.6l-1.82 34z" fill="url(#K)"/><defs ><path id="M" d="M263 446.5l62 .4c1.1 0 1.9-.9 2-1.9 0-2.4-.3-6.4-1.7-9.3-1.8-3.6-25.4-13.5-32.2-16.3-1-.4-2.2-.1-2.9.7-2 2.5-6.9 7.2-14.8 7.7-6.5.4-10.2-1-11.9-2-.7-.4-1.6-.1-1.8.7-.9 2.6-2.2 8.6-.8 18.2.1 1 1 1.8 2.1 1.8z"/><path id="N" d="M274.1 441.3s-.2-3.4-4.4-7.1c-3.8-3.4-8.2-3.6-9-3.6l.2-1.5c.2 0 5.5.4 9.6 4.1 4.6 4.1 4.9 7.9 4.8 8l-1.2.1z"/></defs></svg>