<svg xmlns="http://www.w3.org/2000/svg" xmlns:xlink="http://www.w3.org/1999/xlink" viewBox="0 0 480 480" xmlns:v="https://vecta.io/nano"><path d="M188.45 249.7c12.1 28.7 21.46 54.75 21.5 56.92.12 4.8-3.44 25.34-4.97 37.45-1.85 15.43-1.34 26.44-3.26 45.53-.13 1.27-2.86 9.22-3.57 10.28-1.4 2.12-1.9 4.1-2.8 6.23-1.48 3.52.62 5.6.62 5.6l54.98 9.98.08-1.44c.1-1.8-1.43-3.58-2.74-4.8l-23.05-15.26c-2-1.86-3.8-5.3-3.23-7.98 2.4-11.03 6.57-25.35 11.14-41.96 7.42-26.93 13.1-52.3 11.53-61.68-1.35-8.08-14.6-54.32-14.6-54.32s-32.65 7.43-41.64 15.44z" fill="#e79a7a"/><linearGradient id="A" gradientUnits="userSpaceOnUse" x1="223.0101" y1="349.7091" x2="247.0503" y2="355.6745"><stop offset="0" stop-color="#cc7a5e" stop-opacity="0"/><stop offset=".9241" stop-color="#aa5f4b"/></linearGradient><path d="M224.57 399.92c-3.92-5.13-2.57-9.06-.5-16.16 2.12-7.32 4.65-16.42 5.96-21.96 6.06-21.3 8.26-30.56 9.86-37.7 2.26-10.1 3.65-13.75 4.25-21.84.23-3.16-1.83-14.24-6.32-9.48-3.3 3.5-9.2 24.08-14.2 31.53-13.23 19.74-15.24 81.1-15.24 81.1l11.7 5.92 4.52-11.4z" fill="url(#A)"/><g fill="#f4aa90"><path d="M207.7 353.92l1 .26-.2-1.05zm-2.5 1.33l.98.25-.18-1.13zm.88-3.85v-.6l-.54.26zm3.32 4l.7-1.05-1.34-.26zm-4.08 3l.74-.85-1.45-.24zm-.52 2.65l.73-1.02-1.36-.24zm.23-6.15l.7-.88-1.34-.25zm1.6-.2l.8-.96-1.34-.34zm-.34 2.1l.8-.96-1.34-.34zm.76-5.23l.7-.97-1.25-.25zm-.43 1.3l.7-.88-1.26-.43zm.83 13.32l.64-1.02-1.46-.32zm.9-4.38l-1.2-.34.2 1.3zm-1 2l-1.2-.34.2 1.38zm.75-5.23l1 .27-.36-1.1zm.48-5.73l1 .26-.2-1.05zm.26 14l1 .18-.18-1.12zm-1.33-6.64l.73.1-.16-.86zm.17-4.57l-.04.6.7-.3zm4.83 3.2l-.52.13.4.4zm2.4-1.5l.2-.72-.8.15zm-4.67-.07l.63.03-.32-.67zm3.3-4.73l.23.6.4-.47zm-9.26 36.23l.72.15-.3-.78zm-.5-4.52v.6l.62-.28zm2.22 2.55l.8.07-.3-.7zm-.57-4.43l.2.6.43-.54zm-1.35-.67l.46.52.34-.63zm2.75-3.73l-.44.53.63.07zm2.12 5.43l-.55-.33.02.7zm.3-18l1.36.07-.65-1.35zm2.55-2.9l.14.6.6-.4z"/><path d="M209.78 368.28l-.58-.48-.1.8zm.02-3.06l-.4-.6-.3.82zm-2.75 3.72l.4-.47-.73-.12zm-2.13-5.34l.64.12.04-.62zm5.38 3.24l.2-.9-1.14.27zm-6.23.66l.8-.07-.42-.84zm3.5-6.93l.42.76.57-.66zm1.36 21.1l.6-.7-.98-.15zm-5.26-2.48l.64.33.06-.78zm6.34-3.66l-.16.7.8-.2zm-.84 3.06l.47.3.03-.8zm3-3.04l.62-.05-.3-.6zm-6.05 11l.1.43.52-.54zm4.36-26.75l-.57-.4-.32.55zm-2.86 3.73l.32-.46-.63-.13zm-2.1-5.35l.64.2-.05-.7zm-.6 1.62l1 .18-.17-1.03zm1.07 1.14l1.67-.48-1.18-1.3zm1.03-1.92l.9-1.2-1.82-.3zm-1 7.96l.9-1.3-1.82-.3zm.14 3.95l.8-1.3-1.72-.2zm-.22 2.9l-.57-1.53-1.24 1.32zm2.58-3.46l-1.04.35.7 1zm-3.7 11.05l-.48-1.03-.86.98zm2.72-14.48l-1.15.18.8 1.08zm-1.7 12.8l-.56-1.03-.78.9zm-.85-7.66l.9-1.2-1.82-.4zm.58-9.7l1.17.08-.44-1.1zm-1.25.27l1.1.18-.35-1.1zm7.43-7.55l.18-.7-.8.18zm-.9-1.56l-.54-.26-.17.6zm2.07 2l.53.1-.18-.53z"/><path d="M205.37 363.55l.05-.53-.62.14zm2.73-5.3l.52-.2-.4-.5zm-3.85 8.2l.74-.93-1.3-.34z"/><path d="M203.7 363.4v2.36l2.26-.96zm-.12 3.86l-.17 2.3 2.35-.9zm.27-6.66l-.1 2.2 2.36-.8zm-.7 12.43l-.1 2.28 2.34-1.06zm1.44 12.44l-2.1-1.25-.2 2.63zm-.68-27.85l-.2 2.2 2.36-.8zm.1-3l-.17 2.27 1.6-1.23zm.43-2.7l-.35 2.36 2.5-.9z"/><path d="M204.83 372.63l.65-.92-1.37-.25zm-1.15-3.17l1.3.34-.37-1.28zm.37 7.96l-1.03.6 1.05.88zm-1.2 1.64l-.2 1.84 1.77-.5zm.25-3.56l-.13 1.84 1.66-.56zm-.33 6.8l-.22 1.75 1.32-.56zm2.7-2.44l-.2 2.2 2.13-.67zm-.7-4.6l-.18 2.3 2.1-.78z"/><path d="M205.07 375.6l2.3-.35-1.13-1.84zm.33-7.06l1.3-1.77-2.28-.43zm.14 3.96l2.2.53-.24-2zm-3.52 14.97l-.22 1.84 1.78-.48zm-.28 2.8l-.14 1.3 1.33-.3zm1.58-4.24l-.32 1.5 1.5-.4zm2.06-2.86l-.04 1.58 1.42-.48zm-3.04 6.12l.75 1.2.77-1.07z"/><path d="M206.55 380.27l.66 1.1.78-1.07zm1.15-4.37l.72 1.08.82-.94zm-4.46-3.05l1.02-.7-.96-.7zm3.73-6.1l1.64.4-.28-1.38zm.26 7.8l1.46.32-.2-1.47zm-1 7.12l.66 1.3 1.04-1zm-2.32.23l-.2 2.2 2.13-.67zm5 .3l.53-.45-.9-.24zm-4.17-1.97l.55.25-.1-.6zm5.02-2.93l-.08.53.72-.02zm.8-14.95l-.3-.4-.32.46zm1.6-1.45l-.52-.83-.63 1z"/><path d="M210.97 364.07l-.3-.32-.32.55zm-.65-1.44l-.3-.5-.32.47zm-.17 6.94l.73-.94-1.36-.24zm-.55 4.43l.64-1.02-1.28-.33z"/><path d="M211 368l.48.3-.13-.5zm3.38-7.35l-.6-.65-.5.65zM211 364.5l.32-.47-.73-.1zm-2-6.23l.65.3-.05-.7zm.54-17.8l.9.3-.07-1.22zm-2.54 1.2l.92.38-.07-1.22zm4.15.3l.92-1.02-1.36-.36zm-4.13 2.5l.78-.97-1.38-.28zm-.88 1.8l.8-1.06-1.34-.25zm.68-4.75l.93-.93-1.46-.44zm1.68-.28l.75-.9-1.36-.36zm-.46 1.98l.78-.97-1.37-.2zm.26-3.9l.75-.92-1.27-.27zm.02 12.26l.7-.96-1.26-.35zm.96-4.1l-1.08-.43.1 1.3zm-.8 1.75l-1.16-.43.1 1.4zm.96-4.98l1.07.34-.27-1.22zm.84-4.85l.9.2-.07-1.13zm-.96 7l.82.08-.17-.68zm-.02-4.58l.06.52.6-.25zm5.07 3.1l-.54.07.33.48zm-4.17 6.13l1.16.08-.45-1.3z"/><path d="M212.77 348.48l.1.52.62-.35zm-2.05 2.28l-.53-.6-.36.7zm-3.1 3.5l.44-.44-.63-.26zm-1.72-5.5l.62.26v-.7zm5.28 3.72l.18-.97-1.08.27zm-6.25.22l.7-.1-.36-.7zm3.97-6.66l.36.78.62-.7zm1.32 8.44l-.6-.66-.3.8zm-3.32 4.55l.4-.64-.83-.2zm-2.68-6.7l.65.3.03-.8zm7.55-7l-.45-.52-.36.7zm-3.02 3.6l.35-.53-.54-.26zm-1.65-5.58l.45.26.08-.7zm-.88 1.74l.9.17-.1-.96zm1.08 1.14l1.7-.27-1.17-1.48zm1.24-2.1l.9-1.23-1.7-.34zm-1.64 8.2l.98-1.3-1.88-.43zm-.13-4.62l1 .25-.1-1.13zm-1.34.27l1.08.25-.28-1.22zm7.13-7.9l-.46-.32.03.6z"/><path d="M206.42 348.95v-.6l-.53.27zm3.18-5.7l.54-.01-.28-.6zm-3.97 8.32l.8-.88-1.34-.34zm-.9-3.23l-.25 2.27 1.78-1.14zm.43-2.88l-.34 2.53 2.14-1.4zm.25-2.54l-.35 2.2 2.5-.72z"/><path d="M205.6 341.64v2.2l2.4-1zm.3-2.84l-.37 2.26 2.45-.68zm5.7 9.34l-.36-.44-.26.53zm1.7-1.4l-.63-.7-.7.88z"/><path d="M211.97 349.88l-.45-.43-.26.52zm-.54-1.58l-.45-.35-.27.44z"/><path d="M215.44 346.54l-.45-.6-.53.7zm-3.64 3.7l.45-.53-.63-.17zm-1.47-6.28l.54.26-.01-.7zm-.01-8.6l1 .1-.25-1.12zm-2.52 1.2l1.1.2-.24-1.04zm.75-3.9l.14-.62-.7.2zm3.55 4l.75-1-1.45-.27zm-4.42-.36l.85-.92-1.37-.36zm1.7-.35l.75-.92-1.27-.28zm-.67 2.47l.76-.92-1.28-.36zm.85-5.55l.65-1-1.26-.27zm-.47 1.25l.67-.82-1.27-.37z"/><path d="M211.05 334.17l1 .3-.16-1.22zm1.7 4.63l.53-.12-.2-.5zm.67-3.98l-.56-.32.04.7zm-7.1 1.18l-.23 2.3 2.64-.85zm.2-2.8l-.15 2.1 2.84-.6zm1.98-5.9l.77-1-1.35-.3zm2.3 5.48l.74-1-1.27-.28zm.22-2.78l-1.18-.48.15 1.48z"/><path d="M212.68 335.9l-.4-.76-.4.9zm-3.5 4.32l.4-.55-.73-.22zm-2.27-6.78l.74.3-.05-.78zm-4.26 47.72l-.05 1.14 1.15-.47zm6.76-56.42l.9.5.14-1.05zm0 2.54l1.5-.32-1.04-1.54zm-1.37-3.36l1.85-.68-1.55-.9zm1.3 9.65l.9-1.28-1.73-.43z"/><path d="M209.28 328.77l1.08.22-.3-1.13zm-1.34.13l1 .23-.12-1.05zm1.1.75l-.01-.44-.54.02zm-.94 3.2l.75-1-1.27-.36z"/><path d="M207.16 329.54l-.2 2.2 2.4-.6zm.44-2.8l-.36 2.2 2.57-.7zm.26-2.63l-.3 1.67 2.03-.7z"/></g><g fill="#c9755b"><path d="M219.56 391.87l-1.5-.2.48 1.27zm-2.03-1.2l-.62 1.08 1.12.1zm-3.06 3.83l.22-.77-.7.22zm6.03-16.07l-.63 1.17 1.1.1zm2.05 2.33l-.54 1.2 1.1.1zm-2.73-1.38l-1.52-.1.38 1.24zm3.33 4.46l-1.5-.2.48 1.27zm-.45 2.68l-1.45.01.38 1.24z"/><path d="M224.47 380.57l-1.62-.14.55 1.4zm-1.6-.97l-1.52-.12.45 1.37zm-.5 2.57l-1.5-.2.48 1.27zm1.53-3.9l-1.53-.08.4 1.24zm-5.43 10.8l.6-1.4-1.46.01zm.3 2.27l.6-1.4-1.45.01zm-.32-8.2l-.64 1.17 1.12.1zm1.8-5.62l-.7 1.16h1.23zm-1.54 7.67l-.24.86.6.07zm.98-3.88l.6.47.2-.67zm-5.48 2.52l.62-.35-.53-.35zm-1.32-3.48l-.75-.3-.02.82zm4.08 1.04l-.48.6.68.2zm-2.62-5.5l.35.6.38-.62zm-6.3 12.87l-.84-.34-.02.83zm3.98 1l-.48.6.58.16z"/><path d="M209.43 384.27l.47.55.23-.46zm3.47 3.25l.47.54.35-.52zm3.9-2.54l-.3-.8-.64.44zm1.44 3.82l-.76.1.25.6zm3.03-5.28l-.3.74.65-.13zm.2 1.82l-.6 1.08 1.2.23zm-.04-2.08l-2-.25.56 1.7zm-4.14-3.5l-.8-.5v.82z"/><path d="M218.57 379.26l.08-.7-.66.14zm-3.67.2l-.54.48.68.18zm4.2 3.25l-.64.44.65.3zm1.68 2.55l2.36 1.6.58-2.43zm.75-2.7l2.3 1.78.67-2.4zm1-3.26l2.16 1.95.72-2.6zm-6.78 8.7l-.22-.7-.43.4zm-1.1 1.77l-.1-.75-.52.37z"/><path d="M215.9 388.25l-.13-.66-.52.38zm6.07-15.35l-.7 1.06 1.1.18zm1.85 2.45l-.62 1.2 1.12.08zm2.23-3.45l-.5-.44-.28.65zm-5 2.12l-1.62-.1.5 1.27zm4.77 1.13l-1.62-.1.6 1.3zm-1.53-.9l-1.6-.2.5 1.27zm-.62 2.83l-1.4-.15.37 1.33zm1.72-6.27l-1.6-.2.4 1.24zm-.2 1.6l-1.4-.15.4 1.24zm-3.58-.92l-.7 1.06 1.2.2zm4.82-12.28l.43 1.14 1.2-.2zm-6.54 20.62l-.3.74.82.02zm1.1-3.95l.52.35.26-.55zm-5.56 2.5l.64-.45-.53-.35zm-.98-3.17l-.82-.42.01.72z"/><path d="M218.52 376.26l-.56.57.58.15zm-2.6-5.53l.48.54.35-.53zm2.43 3l-.73-.4-.07.7zm1.4-.67l.27-.65-.65.14zm-3.7.7l-.47.6.58.15zm7.35 2.74l2.36 1.64.53-2.44z"/><path d="M223.83 374.12l2.3 1.83.63-2.42zm4.82-8.26l-1.4-.16.38 1.34zm-4.52 4.3l-1.53-.08.38 1.34zm.17-1.8l.7-1.48-1.34-.03zm.24 1.82l.64-1.28-1.33-.04zm-3.58-1.75l-1.15 1.25 1.43.47zm1.6-4.14l.43.73.37-.62zm.47-1l-.1-.85-.7.33z"/><path d="M224.5 367.16l-.7-.08.14.66zm3.1-5.3l-.27.66.6.05zm-6.95 12.56l-.14-1.07-.85.5zm1.75 4.8l-.92-.03.3.8zm3.74-6.47l-.22.87.82.01zm-2.7-6.28l-1.64 1.13 1.52.9zm4.73-6.3l-.5 1.52 1.63-.7zm-1.3 2.64l-.35 1.36 1.2-.2zm.55-2.12l-1.38-.25.3 1.2zm-.5 3.9l-1.7 1 1.6 1.03zm3.02-3.25l-1.9.96 1.5 1zm-4.35 10.03l-1.9-.28.5 1.68z"/><path d="M225.68 366.95l-.7 1.16 1.1.08zm1.35.75l-.7 1.16 1.1.18zm-.28 1.5l-.6-.46-.15.58zm.05 2.17l-1.5-.18.4 1.24z"/><path d="M224.9 370.36l2.24 1.72.65-2.52zm.9-3.06l2.14 1.7.65-2.5zm.82-2.8l2.15 1.7.62-2.42zm-5.32 3.4l-.12-.76-.5.4zm3.98-2.2l-.3-1.2-.9.7zm-4.75 2.8l-.12-.75-.5.38zm16.97-53.04l-.5 1.13h1.12zm-8.67 42.08l-.6 1.2h1.24zm-2.75-1.34l-1.62-.1.5 1.27zm4.67 1.1l-1.62-.1.47 1.37zm-1.6-.92l-1.53-.1.47 1.37zm-2.96 2.22l-1.5-.18.5 1.27zm14.55-44.07l-1.53.03.6 1.22zm-3.67-.47l-.5 1.12 1.1.01zm-11.96 48l-.32.84.7.08zm.9-3.9l.6.47.08-.7z"/><path d="M220.56 360.77l.6-.35-.53-.35zm-1.18 2.18l-.72-.4-.1.8zm4.12.85l-.5.7.6.06zm-2.75-5.35l.38.5.37-.63zm2.7-2.4l-.8-.5v.82zm12.06-40.14l.04-.8-.54.2zm-14.53 39.7l-.47.6.58.15zm6.86 3.85l2.24 1.72.72-2.4zm.94-3.27L231 358l.65-2.52zm2.53-17.73l-.7 1.06 1.1.18zm2.24 2.47l-.72 1.16 1.22.1zm-2.9-1.6l-1.62-.1.4 1.24zm3.35 4.6l-1.5-.18.4 1.24zm-.4 3.1l-1.43-.06.4 1.24zm1.73-6.27l-1.5-.18.38 1.33zm-1.5-1l-1.63-.1.5 1.27zm-.54 2.44l-1.6-.2.47 1.36zm1.25-4.36l-1.53-.08.4 1.24zm-5.45 11.5l.67-1.38-1.43-.06zm.22 2.33l.66-1.38-1.43-.06zm-.06-8.18l-.6 1.2 1.14-.02zm1.8-6.56l-.8 1.14 1.2.1zm-1.7 8.24l-.33.84.7.08zm1-3.88l.7.5.07-.7zm-5.48 2.4l.6-.36-.53-.34zm-1.17-3.5l-.82-.42-.01.82zm3.95 1.13l-.46.6.68.18zm-2.47-5.6l.36.6.44-.5zm-6.2 16.8l-.73-.4-.1.8zm3.94 1.12l-.44.5.56.25zm-2.47-5.6l.48.54.32-.44zm8.65 4.1l-1.13 1.16 1.45.38zm-5.45-4.5l.36.6.47-.6zm3.5 3.7l-.2-.88-.63.46zm1.36 3.88l-.7-.08.24.68zm3.2-5.18l-.27.65.72-.01zm-5.66 2.36l-1.06-.7-.16 1zm5.03 2.12l-.7.65.85.32zm-2.32-7.83l.4.83.58-.67zm-1-1.37l-.18-.87-.64.46z"/><path d="M229.13 349.18h-.83l.27.58zm3.1-5.18l-.28.65.63-.04zm.25 1.8l-.7 1.07 1.2.2zm-1.18-.22l-1.76 1.2 1.52.9zm1.1-1.85l-2-.3.6 1.7zm-1.94 4.32l-.7 1.16 1.2.1zm1.24.83l-.6 1.1 1.1.18zm-3.76-9.85l-.8-.52v.83z"/><path d="M229.18 338.63l.2-.78-.68.24zm-3.6-.01l-.54.48.65.27zm6 11.88l-.62-.37-.06.6zm-1.68-7.45l-.64.45.65.27zm.07 8.5l2.34 1.74.56-2.55zm1.03-2.8l2.1 1.86.55-2.54z"/><path d="M229.62 353.72l2.04 1.54.75-2.37zm2.18-8.08l2.1 1.8.62-2.42zm.68-3.04l2.1 1.9.82-2.37zm.92-3.16l2 1.98.75-2.5zm-7 8.7l-.14-.66-.5.38zm-.56-1.8l-.3-1.22-.78.63z"/><path d="M223.06 351.5l-.02-.72-.5.38zm3.57-3l-.14-.65-.5.28zm-.73.84l-.26-1-.75.53zm1.87 4.3l-.92-.03.36.6zm3.16-6.2l-.32.85.75-.1zm1.9-15l-.68 1.06 1.1.18zm1.86 2.75l-.7 1.06 1.2.2zm2.44-3.4l-.5-.44-.24.56zm-5.18 1.66l-1.6-.2.38 1.34zm4.84 1.66l-1.58-.3.48 1.36zm-1.64-1.25l-1.6-.2.5 1.27zm-.73 2.8l-1.4-.16.28 1.3zm2.07-5.98l-1.47-.27.28 1.3zm-.2 1.6l-1.48-.27.38 1.33zm-3.7-1.36l-.7 1.06 1.2.2zm4.7-11.8l.43 1.23 1.2-.24z"/><path d="M230.75 339.75l-.42.83h.82zm1.12-3.95l.5.44.24-.56zm-5.6 2.5l.64-.46-.63-.37zm-.67-6.15l-.83-.4.04.73zm4.04 1.13l-.53.5.57.23zm-2.4-5.58l.37.6.33-.54zm2.04 5.37l-.72-.4-.08.7zm1.4-.57l.27-.65-.65.14zm-3.66.6l-.54.48.6.15zm7.1 3.43l2.06 1.84.68-2.5zm.74-2.63l1.93 1.9.72-2.4zm4.6-8l-1.5-.14.44 1.23zm-4.37 3.92l-1.5-.18.38 1.34zm.03-1.54l.65-1.5h-1.34zm.18 1.9l.63-1.4h-1.34zm-3.58-1.85l-1.1 1.28 1.44.44z"/><path d="M233.35 324.28l.37.6.45-.6zm.55-1.1l-.12-.84-.7.35zm1.37 3.92l-.7-.06.16.65zm3.15-5.24l-.26.66.6.03zm-6.82 12.24l-.13-1.07-.76.52zm1.6 4.95l-.9-.13.2.78zm4-6.3l-.33.84.33-.5zm-3-6.32l-1.58 1.07 1.52.97zm4.82-6.28l-.46 1.54 1.6-.76zm-1.34 2.67l-.4 1.34 1.26-.12zm.52-2.24l-1.3-.2.22 1.28zm-.48 3.9l-1.7 1.15 1.52.96zm2.7-2.75l-1.58.7 1.14 1.25zm-3.74 9.45l-1.88-.3.4 1.66zm-.08-4.1l-.68 1.18 1.1.15zm1.25.8l-.68 1.18 1.1.15z"/><path d="M237.62 329.37l-.52-.43-.23.57zm.28 1.9l-1.48-.28.38 1.34z"/><path d="M235.88 330.37l1.8 2 .75-2.5zm.72-2.87l1.93 1.65.55-2.44zm.8-3l1.8 1.9.65-2.42zm-5.27 3.3l-.14-.75-.5.4zm3.87-2.1l-.24-1.18-.86.62zm-4.64 2.75l-.2-.87-.52.5zm8.27-10.65l-.54 1.22h1.12zm-2.7-1.33l-1.63.01.5 1.2zm4.58 1.05l-1.6-.1.57 1.32zm-1.56-.9l-1.63.01.6 1.23zm-2.82 1.96l-1.58-.26.5 1.35zm-1.2 3.42l-.3.86.7.06zm.9-3.9l.7.48.06-.7zm-5.42 2.56l.6-.38-.54-.33zm-1.2 2.08l-.73-.37-.1.8zm4.08 1.04l-.45.62.6.13z"/><path d="M231.65 318.25l.38.6.33-.54zm2.55-1.87l-.83-.46.05.82zm-2.4-.24l-.5.5.57.2zm6.54 3.62l2.1 1.77.58-2.44zm.76-3.26l1.86 1.82.67-2.52zm-1-7.3l-.63 1.2 1.2.02zm2.12 2.33l-.6 1.1 1.2.1zm1.68-3.26l-.57-.3-.2.58zm-4.52 2.13h-1.63l.6 1.22zm4.76.67l-1.53.02.58 1.23zm-1.6-.8h-1.62l.68 1.25zm-.01 3.1l-1.5-.08.47 1.3zm.5-6.06l-1.5-.04.52 1.2z"/><path d="M241.3 308.37l-1.43.04.5 1.2zm-3.87 0l-.5 1.14 1.1.07zM241 296.1l.88.8.73-.7zm-4.03 20.93l-.36.85.82-.05zm.63-4.05l.64.42.12-.7zm-5.22 3l.6-.5-.67-.23zm-1.88-.76l-.85-.36.07.73zm4.12.78l-.52.6.7.13zm-2.9-5.33l.42.5.3-.56zm2.92-.37l-.87-.26.07.72z"/><path d="M236 309.63l.15-.8-.66.3zm-3.64.97l-.52.6.7.13zm7.24 2.9l2.15 1.64.46-2.57zm.58-3.4l2.44 1.67.45-2.46zm3.46-8.05l-1.4.17.67 1.1zm-3.94 4.75l-1.53.07.62 1.2zm.36-1.33l.24-1.6-1.2.38zm.44 1.46l.43-1.45-1.33.1z"/><path d="M241.14 293.84l-.85 1.2 1.28.17zm-3.8 8.26l.6.5.2-.7zm1.12-1.7l-.25-.82-.64.56zm2.28 3.46l-.7.15.26.52zm1.88-5.8l-.15.7.6-.06zm-5.58 13.08l-.2-1.15-.83.66zm2.1 4.66l-.92.03.38.68zm3.37-6.7l-.26.87.84-.15zm-3.7-5.16l-1.34 1.47 1.8.54zm3.93-7.67l-.1 1.6 1.47-1.1zm-.68 2.43l-.08 1.4 1.16-.35zm.05-1.77l-1.3.1.53 1.14zm.33 3.54l-1.48 1.32 1.62.72zm2.17-3.57l-1.8 1.3 1.76.7zm-3.23 10.88l-2.03-.02.76 1.64zm-.27-3.98l-.43 1.3 1.1-.17zm1.4.42l-.33 1.3 1.1-.18z"/><path d="M242.53 305.53l-.66-.3-.1.6zm.07 2.14l-1.5-.04.52 1.2z"/><path d="M240.67 307.06l2.5 1.4.3-2.5zm.75-3.3l2.3 1.34.36-2.64zm.42-3.4l2.44 1.42.23-2.6zm-4.7 5.44l-.38-.6-.32.5zm3.17-3.03l-.57-1.1-.62.9zm-4.17 2.77l-.3-.66-.47.43zm5.05-14.24l-.54.92.96.1zm1.6 2.5l-.4 1 1.04.05zm.9-3.2l-.6-.17v.52zm-3.56 2.24l-1.42.16.56 1.03zm4.4.5l-1.4.08.56 1.03zm-1.5-.53l-1.4.07.66.96zm.17-2.87l-1.3.06.52 1zm.08 1.37l-1.3.27.7.95zm-3.38.13l-.24 1.04 1.03-.2zm-.53-.03l.17-.58-.57.1z"/><path d="M242.47 295.68l2.2 1.08.13-2.25zm.05-2.56l2.35.93-.03-2.17zm1.18-7.78l-1.22.5.87.8zm-1.7 4.22l-1.32.23.6 1z"/><path d="M241.24 289.3l-.2-1.38-1 .63zm.96 1.25l-.1-1.32-1 .63zm-2.5 6.32l-1.4 1.52 1.76.6zm1.8-16.1l1.2.47-.57-1.42z"/><path d="M241.1 283.75l.24 1.2.93-.63zm.7 1.27l-.85 1.5 1.6.1zm1-3.76l-1.05 1.58 1.53.1zm.55 9.1l-1.73.28.88 1.28zm-1.65-2.7l-.04 1.18.87-.42zm1.25.02l-.04 1.17.96-.44z"/><path d="M243.43 288.78l-.65-.1.16.58zm1.05 1.35l-1.22.07.52 1z"/><path d="M242.53 290.48l2.34.47-.42-2.3zm-.36-3.02l2.38.4-.53-2.2zm-.57-2.66l2.38.4-.6-2.08zm-2.32 3.3l-.2-.63-.4.5zm1.76-1.52l-.68-.74-.44.88z"/></g><linearGradient id="B" gradientUnits="userSpaceOnUse" x1="222.5945" y1="315.3585" x2="221.1834" y2="287.0796"><stop offset="0" stop-color="#cc7a5e" stop-opacity="0"/><stop offset=".9241" stop-color="#aa5f4b"/></linearGradient><path d="M217.53 317.7c18.16 6.9 24.47-3.36 24.47-3.36.43.05 3.24-20.1 2.9-25.1-1.07-6.94-8.6-32.65-8.6-32.65l-39.53 14.48 13.2 34.8c-.01.1 1.06 8.88 7.57 11.84z" fill="url(#B)"/><g fill="#441b18"><path d="M193.66 416.32c-.23 1.48.78 2.75 2.17 2.97l56.03 8.67c1.48.23 2.75-.78 2.97-2.17l.27-2.4-60.98-10.05-.46 2.97z"/><path d="M196.85 402.44c-.45-.37-1.38-.22-1.57.36-.4 1.25-.86 2.9-1.14 4.68-.36 2.98-.02 5.97-.02 5.97l60.94 9.03s.4-3.18-3.78-6.87c-4.1-3.48-28.4-19.12-28.4-19.12s-1.24-.5-2.42 1.24c-1.1 1.85-1.05 3.48.06 4.77 1.2 1.3 4.87 5.72 4.87 5.72s-1.17 1.64-2.6.5c-1.43-1.24-4.1-3.48-4.92-3.5-.7-.01-5.3 1.6-10.44 1.4-4.9-.45-8.88-2.8-10.58-4.18z"/></g><path d="M194.17 413.06l61 9.34-.05 1-61.1-9.35zM232.8 403s-.87 3-3.72 5.7c-1.07 1.05-2.33 1.96-3.36 2.7-1.14.83-.9 2.5.46 2.9 2.4.88 6.03 1.55 10.96 2.42l17.43 3.13s-.62-2.53-3.27-4.36c-2.46-1.8-18.5-12.5-18.5-12.5z" fill="#cf8580"/><g fill="#823d3d"><path d="M212.34 406.28l2.05-.18-.62 2.03zm2.38-.33l2.2-.47-.54 1.54zm7.63-1.55l-1.45-1.75 1.56-.26zm1.63 1.88l-1.46-1.64 1.57-.36z"/><path d="M225.36 407.8l-1.38-1.53 1.57-.36zm-5.04-5.94l-.54-1.1 1.3.2zm-.6-1.4l.17-1.1 1.02.56zm-9.77 6.16l2.17-.27-.85 2.2zm-2.53.01l2.13-.07-.93 2.08zm-2.78-.33l2.18.25-1.4 1.9zm-5.42-2.27l1.8.9-1.63.65zm2.83 1.35l2.12.64-1.68 1.05z"/><path d="M211.44 408.17l.7-.6.35.96zm-.58 1.13l.24-.87.7.7zm-1.06-1.6l.72-.7.34 1.06zm-2.7 1.1l.18-1.18 1.1.68zm-1.63-.66l.2-1.18 1 .66zm.93 1.76l-1.14-.48 1.04-.85zm-1.65-1.67l-1.03-.56.85-.88zm-2.5-.8l-1.15.22.2-1.18z"/><path d="M200.72 406.2l-1 .45.12-1.4zm2.88 2.16l-.7.7-.57-.9zm.36-1.56l-.53.83-.57-.9zm-1.62-1.27l-.64.8-.47-.88zm5.28 4.37l-1.13-.48 1.04-.85zm-3.77.22l-1.23-.6.95-.86zm10.5-1.8l-.04-1.02.97.25zm2.9-1.67l-.25-.95 1.07.26zm-1.34 1.5l.64-.82.47.9zm-2.85 1.98l-.1-.62.8.12zm-1.97-.3l-.55-.4.56-.32zm-1.58-.33l-.66-.3.77-.4zm-.02-1.13l-.66-.3.67-.4zm-2.24-.57l-.74-.42.78-.48zm5.74.2l-.64-.4.78-.5zm1.64 1.17l-.64-.4.57-.42z"/><path d="M216.18 408.9l-.53-.5.47-.43zm1.82-1.23l-.64-.4.77-.4zm5.47-3.3l-.84-.43 1-.66zm-.87-.85l-.16-.93.97.25zm-1.7-.77l-.57-.9 1.03-.14zm-3.57 7.84l-.54-.4.68-.5zm2.3-4.3l-.65.3-.08-.82zm-.94-.44l-.64.2.01-.7zm1.56 4.9l-.6-.6.75-.3zm4.76-4.62l-.82-.53.9-.57zm1.04 2.5l-.68-.82 1.05-.24zm-5.74-.9l-.46.34-.02-.5zm1.77-5.4l-.56.32-.1-.63zm4.65 4.56l-.56.32-.01-.6zm-1.88-2.2l-.45.23-.1-.62zm-7.26 8.88l-.55.22-.1-.62zm-17.82-3.9l-.45.33-.2-.63zm15.9-2.58l-.53-.5.66-.3zm-10.22 1.95l-.65-.4.58-.4zm-4.5-1.62l-.55-.4.77-.38zm-3.83-4.73l1.54 1.15-1.6.56z"/><path d="M198.45 405.12l-1.23.1.6-1.22zm-3.2 2.34l-.96.35.07-1.1zm.02-1.42l-.72.1.06-1zm3.2.3l-.5-.6.74-.2zm-1.92-1.92l-.43-.47.64-.2zm-1.1.54l-.63-.5.66-.3zm19.62 6.6l-.57-.3.66-.3zm-2.28-.37l-.44-.37.45-.34zm10.02-9.76v.8l-.65-.4zm-1.92-1.2l-.2.68-.43-.48zm.82.63l-.04.9-.73-.52zm3.68 2.3l.35.36-.46.33z"/><path d="M223.92 401.52l-.08.5-.46-.27zm-2.1-.84l-.44.24-.04-.4zm.1.62l-.34-.36.54-.22zm-1.16-1.6l-.25-.35.42-.13zm3.74 3.93l-.08.5-.46-.28zm-3.23-5.26l-.08.5-.46-.27zM199.32 408l-.45-.37.46-.34zm5.33 3.46l-.47-.28.45-.23zm-3.4-1.66l-.35-.35.36-.35zm9.7 1.43l-.26.36-.24-.44zm-6.28-1.9l-.28.46-.32-.56zm4.12.14l-.27.46-.22-.54zm-1.9 2.42l-.25.37-.22-.54zm2.6-1l-.26.36-.33-.45zm-1.97-.4l-.36.35-.3-.56zm-7.73-3.55l-.38.45-.2-.64zm-3.66.65l-.27.46-.34-.46zm-1.47.98l-.54.22v-.6zm.43 1.08l-.54.22.2-.58zm3.23-3.14l-.47.43-.22-.54zm-1.77-.28l-.38.45-.22-.54zm-1.33.1l-.28.46-.32-.55zm1.9-1.22l-.26.36-.34-.45zm-1.12.03l.35.36-.53.12zm-.5-.7l.35.36-.54.22zm.12-.8l-.26.37-.33-.46zm1.58-.37l-.25.27-.43-.48zm-1.94 2.04l-.27.46-.12-.53zm3.6-.96l-.36.35-.23-.44z"/></g><path d="M176.7127 268.3305l9.9652-4.1623 10.56 25.282-9.9652 4.1623z" fill="#595959"/><linearGradient id="C" gradientUnits="userSpaceOnUse" x1="186.3814" y1="281.8469" x2="183.4917" y2="265.5476"><stop offset="0" stop-color="#151e28" stop-opacity="0"/><stop offset=".9975" stop-color="#151e28"/></linearGradient><path d="M183.1 283.2l-6.3-14.8 9.9-4.2 6.6 16.1z" fill="url(#C)"/><g fill="#595959"><path d="M401.36 456.77l-6.9-73.67.01-.07 6.9-74.3 1.5.14-6.9 74.23 6.9 73.53zm-18.8 3.3l-1.5-.14 7-76.83-7-70.93 1.5-.14 7 71.07-.01.07z"/><path d="M467.53 395.25l-74.23-6.9-73.53 6.9-.14-1.5 73.67-6.9h.07l74.3 6.9zm-74.23-13.3h-.07l-77-6.9.13-1.5 76.93 6.9 70.93-6.9.15 1.5z"/><path d="M348.58 443.18l-1.16-.96 47.3-57.1 57.4-47.6.96 1.16-57.35 47.55zm-16.8-11.9l-.96-1.16 59.25-49.45 45.25-55.05 1.16.96-45.4 55.2z"/><path d="M449.82 429.28l-57.1-47.2-47.6-57.5 1.16-.96 47.55 57.45 56.95 47.05zm-12.1 16.6l-49.46-59.25-55.04-45.25.95-1.16 55.2 45.4 49.5 59.3z"/></g><circle cx="392" cy="383.7" r="10.4" fill="#283749"/><use xlink:href="#Q" fill="#333"/><use xlink:href="#R" fill="#ffa015"/><g fill="#595959"><path d="M124.46 456.77l-6.9-73.67.01-.07 6.9-74.3 1.5.14-6.9 74.23 6.9 73.53zm-18.8 3.3l-1.5-.14 7-76.83-7-70.93 1.5-.14 7 71.07-.01.07z"/><path d="M190.63 395.25l-74.23-6.9-73.53 6.9-.14-1.5 73.67-6.9h.07l74.3 6.9zm-74.23-13.3h-.07l-77-6.9.13-1.5 76.93 6.9 70.93-6.9.15 1.5z"/><path d="M71.68 443.18l-1.16-.96 47.3-57.1 57.4-47.6.96 1.16-57.35 47.55zm-16.8-11.9l-.96-1.16 59.25-49.45 45.25-55.05 1.16.96-45.4 55.2z"/><path d="M172.92 429.28l-57.1-47.2-47.6-57.5 1.16-.96 47.56 57.45 56.94 47.05zm-12.1 16.6l-49.46-59.25-55.04-45.25.95-1.16 55.2 45.4 49.5 59.3z"/></g><circle cx="115.1" cy="383.7" r="10.4" fill="#283749"/><use xlink:href="#Q" x="-276.9" fill="#333"/><use xlink:href="#R" x="-276.9" fill="#ffa015"/><path d="M200.8 268.7h-16.5s-21 6.2-27.8 7c-5 .6-12.5-2.4-12.5-9.8v-4.2c0-8.4 7.7-10.4 12.5-10.4h44.3c4.8 0 8.7 3.9 8.7 8.7h0c0 4.8-3.9 8.7-8.7 8.7z" fill="#ffb031"/><path d="M397.1 380l-61.6-153.9c-1.1-2.8-4.2-4.1-7-3s-4.1 4.2-3 7l9.1 22.7-144.5 32.4c-.2 0-.3.1-.5.1h-.1c-.1 0-.2.1-.4.1h-.1c-.1.1-.3.1-.4.2l-.1.1c-.1.1-.2.1-.3.2 0 0-.1 0-.1.1l-.8.8c-.1.1-.2.2-.2.3l-76.3 93.1c-1.3 1.6-1.6 3.8-.7 5.7.8 1.8 2.6 2.9 4.5 3.1 4.2.5 76 12.3 123.5 20.2h1.6c.1 0 .3 0 .4-.1.1 0 .2 0 .2-.1.1 0 .2-.1.4-.1.1 0 .2-.1.3-.1s.2-.1.3-.1.2-.1.3-.2c.1 0 .2-.1.3-.2s.2-.1.3-.2.2-.1.2-.2c.1-.1.2-.1.2-.2l.5-.5c.1-.1.1-.2.2-.2h0l97.1-139.3L387 384.1c.8 2.1 2.9 3.4 5 3.4.7 0 1.3-.1 2-.4 2.9-1.2 4.2-4.3 3.1-7.1zm-282.4 8.9h0zm10.4-9.2l64.7-78.9 40.5 96.1-105.2-17.2zm115.1 13l-41.5-98.4 130.5-29.2-89 127.6z" fill="#3aaaa7"/><path d="M346.3 208s-20.9 3.5-22.9 13.1c-1.8 8.8 3.8 15.7 3.8 15.7l19.1-7V208z" fill="#595959"/><linearGradient id="D" gradientUnits="userSpaceOnUse" x1="330.1416" y1="223.8525" x2="358.3971" y2="226.9442"><stop offset="0" stop-color="#151e28" stop-opacity="0"/><stop offset=".9975" stop-color="#151e28"/></linearGradient><path d="M333.7 212l8.8.7 3.5 17.2-17.3 6.3-.6-6.2c-.1-14.8 5.6-18 5.6-18z" fill="url(#D)"/><linearGradient id="E" gradientUnits="userSpaceOnUse" x1="361.5062" y1="311.5" x2="371.0298" y2="308.4421"><stop offset=".1305" stop-color="#093f5c" stop-opacity="0"/><stop offset="1" stop-color="#093f5c" stop-opacity=".6"/></linearGradient><path d="M338.2 233l58.9 147s2.2 4.9-3 7c-4.8 1.9-7-3-7-3L333 234.9l5.2-1.9z" fill="url(#E)"/><linearGradient id="F" gradientUnits="userSpaceOnUse" x1="157.7185" y1="268.7243" x2="195.8902" y2="252.9193"><stop offset=".252" stop-color="#e46c26" stop-opacity="0"/><stop offset="1" stop-color="#e46c26"/></linearGradient><path d="M156.5 275.7c6.8-.8 27.8-7 27.8-7h16.5c4.8 0 8.7-3.9 8.7-8.7s-3.9-8.7-8.7-8.7h-44.3c-.5 0-1.1 0-1.7.1 3.5 3 6.8 7.6 3.1 13.1-2.9 4.2-7.5 6.2-11.8 7.2 2.5 3.1 7 4.4 10.4 4z" fill="url(#F)"/><linearGradient id="G" gradientUnits="userSpaceOnUse" x1="216.0357" y1="352.7692" x2="223.9341" y2="350.1204"><stop offset=".1305" stop-color="#093f5c" stop-opacity="0"/><stop offset="1" stop-color="#093f5c" stop-opacity=".6"/></linearGradient><path d="M199 294.2l44.8 107.5s2.3 4.8-2.9 7c-4.8 2-7-2.9-7-2.9l-40.1-109.6 5.2-2z" fill="url(#G)"/><linearGradient id="H" gradientUnits="userSpaceOnUse" x1="148.6763" y1="340.1843" x2="154.601" y2="345.7338"><stop offset=".1305" stop-color="#093f5c" stop-opacity="0"/><stop offset="1" stop-color="#093f5c" stop-opacity=".6"/></linearGradient><path d="M189.6 300.3l-70.5 86.5s-3.2 4.3-7.6.8c-4-3.2-.8-7.6-.8-7.6l76.6-85.9 2.3 6.2z" fill="url(#H)"/><linearGradient id="I" gradientUnits="userSpaceOnUse" x1="176.5922" y1="381.5879" x2="165.5391" y2="407.6733"><stop offset=".1305" stop-color="#093f5c" stop-opacity="0"/><stop offset="1" stop-color="#093f5c" stop-opacity=".6"/></linearGradient><path d="M232 407.8l-117.7-18.9s-5.3-.5-4.5-6.1c.7-5.1 6.1-4.5 6.1-4.5l114.4 18.9 1.7 10.6z" fill="url(#I)"/><linearGradient id="J" gradientUnits="userSpaceOnUse" x1="289.0023" y1="333.0003" x2="294.7122" y2="337.1091"><stop offset=".1305" stop-color="#093f5c" stop-opacity="0"/><stop offset="1" stop-color="#093f5c" stop-opacity=".6"/></linearGradient><path d="M340.5 267.6l-96.2 138.1-4.6-6.6 97.5-134.4c0-.1 3.9-1.7 3.3 2.9z" fill="url(#J)"/><linearGradient id="K" gradientUnits="userSpaceOnUse" x1="262.7589" y1="274.4785" x2="265.1755" y2="285.2996"><stop offset=".1305" stop-color="#093f5c" stop-opacity="0"/><stop offset="1" stop-color="#093f5c" stop-opacity=".6"/></linearGradient><path d="M198.8 294.3l130.4-29.2s3.2-5.2-6.6-3.4c-9.8 1.9-118.5 26.5-123.2 27.8s-.6 4.8-.6 4.8z" fill="url(#K)"/><path d="M238.8 384.2c10.5 0 19 8.5 19 19s-8.5 19-19 19-19-8.5-19-19 8.6-19 19-19m0-4c-12.7 0-23 10.3-23 23s10.3 23 23 23 23-10.3 23-23-10.3-23-23-23h0z" fill="#333"/><path d="M212.3 429.5c-.55 0-1.1-.22-1.5-.66-.74-.82-.67-2.1.15-2.82l54.5-48.9c.82-.74 2.1-.67 2.82.15.74.82.67 2.1-.15 2.82l-54.5 48.9c-.37.34-.85.5-1.33.5z" fill="#595959"/><g fill="#283749"><path d="M226.1 432.1l-27.9-2.1c-2.8-.2-4.8-2.6-4.6-5.4h0c.2-2.8 2.6-4.8 5.4-4.6l27.9 2.1c2.8.2 4.8 2.6 4.6 5.4h0c-.2 2.7-2.6 4.8-5.4 4.6zm52.4-40.9l-26-10.3c-2.6-1-3.8-4-2.8-6.5h0c1-2.6 4-3.8 6.5-2.8l26 10.3c2.6 1 3.8 4 2.8 6.5h0c-1 2.6-3.9 3.8-6.5 2.8z"/><circle cx="238.8" cy="403.2" r="6.7"/><circle cx="348.9" cy="219" r="11.6"/></g><circle cx="348.9" cy="219" r="6.2" fill="#ffb031"/><path d="M155.87 208.14s-3.78 7.1-5.16 15.22c-1 5.9-.14 12.42 1.5 16.74 5.52 11.83 10.75 10.52 21.46 11.48 19.8 2.97 87.6 10.65 89.8 13.1 1.64 1.64-1.4 14.06-3.4 26.1-2.45 15.34-2.38 26.36-5.05 45.36-.18 1.26-2.23 8.93-2.98 9.96-1.5 2.06-3.93 4.22-4.9 6.32-1.6 3.46.06 4 .06 4l50.93 22.3-1.8-2.56c.17-1.8.4-2.04-.85-3.32l-20-19.33c-1.92-1.94-1.56-9.07-.87-11.7 2.82-10.92 8.5-27.7 13.72-44.12 8.47-26.6 14.3-45.5 11.2-54.5-2.18-6.32-13.43-10.7-23.33-14.8-18.16-7.45-46.73-20.6-46.73-20.6l-73.58.38z" fill="#e79a7a"/><linearGradient id="L" gradientUnits="userSpaceOnUse" x1="279.0217" y1="300.47" x2="308.7313" y2="309.1013"><stop offset="0" stop-color="#cc7a5e" stop-opacity="0"/><stop offset=".9241" stop-color="#aa5f4b"/></linearGradient><path d="M274.6 351.64c-1.77-5.3.62-13.45 2.96-20.46 2.4-7.23 5.3-16.23 6.82-21.7 6.75-20.18 10.18-31.16 12.06-38.23 2.66-10 2.93-12 3.85-20.07.36-3.14-.73-14.94-5.4-10.36-3.44 3.37-10.15 23.7-15.45 30.94-14 19.2-20.52 87.56-20.52 87.56l18.75 6.72-3.06-14.4z" fill="url(#L)"/><linearGradient id="M" gradientUnits="userSpaceOnUse" x1="283.2493" y1="274.6595" x2="274.7608" y2="258.6107"><stop offset="0" stop-color="#cc7a5e" stop-opacity="0"/><stop offset=".9241" stop-color="#aa5f4b"/></linearGradient><path d="M273.67 296.25c14.17-1.5 13.48-3.14 16.8-5.86 11-30.1 9.8-43.8 9.8-43.8l-38.67 32.8-1.47 12c-.05.1 5.5 6.22 13.55 4.88z" fill="url(#M)"/><g fill="#f4aa90"><path d="M262.38 300.7l.98.3-.15-1.05zm-2.54 1.24l.97.3-.14-1.14zm1.02-3.8l.02-.6-.54.24zm3.17 4.12l.75-1.02-1.33-.3zm-4.2 2.83l.77-.82-1.44-.3zm-.63 2.65l.77-1-1.35-.3zm.47-6.15l.74-.85-1.33-.3zm1.6-.12l.84-.93-1.33-.4zm-.43 2.1l.84-.94-1.33-.4zm1-5.2l.74-.94-1.24-.3zm-.5 1.3l.74-.85-1.24-.48zm.3 13.33l.68-1-1.44-.38zm1.1-4.32l-1.18-.4.14 1.3zm-1.1 1.96l-1.18-.4.15 1.4zm.95-5.2l1 .3-.3-1.13zm.7-5.7l.97.3-.14-1.05zm-.27 14l1 .23-.14-1.13zm-1.07-6.7l.72.14-.12-.87zm.36-4.55l-.07.6.7-.3zm4.68 3.4l-.53.1.37.42zm2.46-1.4l.24-.7-.8.12zm-4.66-.24l.63.06-.3-.7zm3.5-4.6l.2.6.43-.46zm-10.7 35.83l.72.2-.26-.8zm-.3-4.53v.6l.63-.25zm2.1 2.63l.8.1-.26-.7zm-.4-4.46l.17.62.45-.52zm-1.33-.7l.44.53.37-.6zm2.9-3.64l-.45.52.63.1zm1.9 5.53l-.53-.36-.01.7zm1.02-17.97l1.34.12-.6-1.38zm2.67-2.82l.1.6.6-.37z"/><path d="M263.9 315.15l-.56-.5-.15.8zm.14-3.07l-.4-.6-.32.8zm-2.9 3.62l.42-.45-.72-.15zm-1.92-5.44l.64.15.06-.6zm5.24 3.47l.23-.9-1.15.22zm-6.26.4l.8-.03-.4-.86zm3.77-6.78l.4.77.6-.64zm.53 21.14l.63-.7-.98-.2zm-5.16-2.68l.62.36.1-.78zm6.48-3.42l-.2.7.8-.17zm-.96 3.03l.46.33.06-.8zm3.1-2.93h.62l-.3-.6zm-6.47 10.77l.08.44.54-.52zm5.4-26.55l-.55-.42-.34.54zm-3 3.6l.34-.45-.63-.15zm-1.9-5.43l.63.24-.02-.7zm-.66 1.6l1 .22-.13-1.04zm1.03 1.18l1.7-.42-1.13-1.35zm1.1-1.88l.94-1.17-1.8-.37zm-1.3 7.92l.94-1.26-1.8-.37zm-.02 3.95l.85-1.26-1.7-.28zm-.34 2.9l-.5-1.56-1.3 1.28zm2.74-3.34l-1.06.3.66 1.02zm-4.14 10.87l-.44-1.06-.9.95zm3.3-14.35l-1.16.13.76 1.1zm-2.22 12.7l-.52-1.05-.82.86zm-.55-7.7l.94-1.17-1.8-.45zm.97-9.66l1.17.13-.4-1.12zm-1.25.22l1.08.22-.3-1.12zm7.7-7.25l.2-.7-.8.15zm-.84-1.6l-.53-.28-.2.6zm1.98 2.08l.53.1-.16-.53z"/><path d="M259.67 310.24l.07-.53-.62.12zm2.93-5.18l.53-.2-.38-.5zm-4.16 8.04l.77-.9-1.27-.38z"/><path d="M258.02 310.03l-.1 2.37 2.3-.88zm-.28 3.85l-.27 2.28 2.38-.8zm.53-6.66l-.18 2.2 2.4-.7zm-1.17 12.4l-.18 2.28 2.38-.96zm.94 12.5L256 330.8l-.3 2.6zm.4-27.86l-.27 2.2 2.4-.7zm.23-2.98l-.25 2.26 1.65-1.17zm.54-2.68l-.44 2.35 2.53-.8z"/><path d="M258.77 319.3l.68-.9-1.35-.3zm-1.02-3.2l1.27.38-.32-1.3zm.05 7.95l-1.05.57 1.02.92zm-1.26 1.6l-.3 1.83 1.8-.42zm.36-3.56l-.2 1.84 1.68-.5zm-.57 6.8l-.3 1.74 1.34-.5zm2.8-2.33l-.3 2.18 2.15-.58zm-.52-4.62l-.27 2.3 2.12-.7z"/><path d="M258.9 322.26l2.32-.26-1.06-1.88zm.6-7.03l1.36-1.7-2.26-.53zm0 3.95l2.17.6-.17-2zM255.38 334l-.3 1.83 1.8-.4zm-.38 2.8l-.2 1.3 1.35-.25zm1.73-4.17l-.37 1.48 1.52-.33zm2.17-2.77l-.1 1.57 1.44-.42zm-3.28 6l.7 1.23.82-1.04z"/><path d="M260.2 327l.6 1.14.82-1.04zm1.3-4.32l.67 1.1.86-.9zm-4.33-3.23l1.05-.66-.93-.75zm3.97-5.95l1.63.46-.24-1.4zm-.04 7.8l1.45.38-.15-1.48zm-1.28 7.08l.6 1.32 1.08-.95zm-2.32.15l-.3 2.18 2.15-.58zm5 .5l.54-.44-.9-.27zm-4.1-2.15l.54.27-.1-.6zm5.13-2.73l-.1.52.72.01zm1.37-14.9l-.3-.43-.34.45zm1.66-1.38l-.5-.85-.67 1z"/><path d="M265.25 311l-.3-.34-.33.53zm-.6-1.48l-.3-.5-.34.45zm-.45 6.92l.77-.9-1.36-.3zm-.7 4.42l.67-1-1.26-.4z"/><path d="M265.13 314.92l.46.33-.1-.52zm3.65-7.22l-.56-.68-.5.63zm-3.52 3.72l.34-.45-.72-.15zm-1.76-6.32l.64.33-.02-.7zm1.25-17.76l.9.33-.03-1.22zm-2.58 1.1l.9.42-.03-1.22zm4.13.45l.97-.98-1.35-.4zm-4.23 2.35l.82-.94-1.37-.33zm-.95 1.75l.84-1.02-1.33-.3zm.88-4.72l.97-.9-1.44-.5zm1.7-.2l.8-.9-1.35-.4zm-.56 1.94l.82-.95-1.36-.23zm.42-3.86l.8-.9-1.26-.33zm-.46 12.24l.74-.94-1.23-.4zm1.1-4.08l-1.06-.47.05 1.3zm-.85 1.73l-1.15-.48.04 1.4zm1.15-4.93l1.06.38-.23-1.23zm1.03-4.82l.9.24-.02-1.13zm-1.23 6.96l.82.1-.15-.7zm.17-4.57l.04.53.6-.23zm4.93 3.28l-.54.05.3.5zm-4.42 5.97l1.16.12-.4-1.32z"/><path d="M267.66 295.47l.07.53.64-.33zm-2.13 2.2l-.52-.62-.38.68zm-3.25 3.4l.46-.42-.6-.28zm-1.5-5.56l.62.3v-.7zm5.13 3.94l.2-.96-1.08.23zm-6.25-.04l.72-.07-.33-.7zm4.25-6.5l.33.8.65-.68zm.97 8.5l-.56-.68-.33.8zm-3.5 4.4l.43-.63-.82-.23zm-2.4-6.8l.64.32.06-.8zm7.82-6.7l-.43-.54-.38.7zm-3.16 3.47l.38-.5-.53-.28zm-1.42-5.64l.44.28.1-.7zm-.95 1.72l.9.2-.06-.96zm1.03 1.17l1.7-.2-1.1-1.53zm1.32-2.05l.93-1.2-1.68-.4zm-1.97 8.15l1.03-1.28-1.86-.5zm.07-4.62l.97.3-.05-1.14zm-1.35.2l1.06.3-.22-1.23zm7.43-7.6l-.45-.34.01.6z"/><path d="M261.3 295.7l.02-.6-.54.24zm3.4-5.57l.53.02-.24-.62zm-4.3 8.17l.83-.85-1.33-.4zm-.78-3.27l-.34 2.26 1.82-1.08zm.55-2.87l-.45 2.52 2.2-1.32zm.35-2.52l-.43 2.17 2.52-.6z"/><path d="M260.76 288.36l-.1 2.2 2.44-.9zm.4-2.83l-.45 2.24 2.47-.6zm5.34 9.57l-.34-.45-.3.5zm1.75-1.35l-.6-.72-.74.85z"/><path d="M266.8 296.84l-.44-.45-.28.52zm-.48-1.6l-.43-.36-.28.43z"/><path d="M270.4 293.64l-.42-.62-.56.68zm-3.78 3.56l.46-.5-.62-.2zm-1.22-6.35l.53.28.02-.7zm.33-8.6l.98.16-.2-1.13zm-2.58 1.1l1.08.24-.2-1.04zm4.3.27l.8-.97-1.44-.33zm-4.4-.52l.88-.9-1.35-.4zm1.7-.3l.8-.9-1.26-.33zm-.75 2.46l.8-.9-1.26-.42zm.54-4.3l.7-.8-1.26-.42zm1.96.13l1 .33-.1-1.22zm1.53 4.7l.53-.1-.2-.52z"/><path d="M268.85 281.85l-.54-.34.01.7zm-7.15.9l-.3 2.28 2.67-.75zm-5.45 44.97l-.1 1.14 1.16-.43z"/></g><g fill="#c9755b"><path d="M269.7 341.38l-.65 1.05 1.07.24zm2.6.3l-.4 1.2 1.2-.22zm1.23-1.48l-.7-.44-.08.6zm.02 4.56l-1.5.32.8 1.1zm-.2 3.34l-.94 1.3 1.43.23zm1.27-7.47l-1.4.32.8 1.1zm-1.9-1.53l-1.5-.27.43 1.3zm-1.13 4.4l-.38 1.2 1.2-.32zm-.86-5.68l-.65 1.05 1.1.15zm-.94 9.7l-.08.9.8-.22zm-.27-4.1l.7.2v-.6zm-4.43 4.18l.5-.6-.7-.2zm7.38-.93l-.28 1.3 1.2-.32zm-6.1-4.77l-.8-.47-.06.82zm1.17-.37l.24-.77-.7.2zm-3.92.42l-.6.54.66.2zm5.94 3.27l-.4.6.6.1zm2.74-1.72l1.7 1.1.32-1.76zm1.9-17.8l-.68 1.14 1.1.15zm1.96 2.42l-.6 1.18 1.1.14zm-2.66-1.5l-1.52-.17.33 1.26zm3.13 4.57l-1.5-.26.43 1.3zm-.53 2.68l-1.45-.05.33 1.26zm2-5.88l-1.62-.2.5 1.42z"/><path d="M276.53 326.98l-1.52-.18.4 1.4zm-.6 2.52l-1.5-.26.43 1.3zm1.68-3.82l-1.52-.15.36 1.26zm-5.85 10.58l.65-1.36-1.45-.05zm.22 2.28l.65-1.37-1.46-.05zm.01-8.2l-.7 1.14 1.1.15zm2.02-5.55l-.75 1.13 1.23.06zm-1.84 7.6l-.28.86.6.1zm1.14-3.84l.57.5.2-.66zm-5.6 2.3l.63-.33-.5-.37zm-1.16-3.53l-.73-.34-.06.82zm4.02 1.2l-.5.57.66.22zm-2.4-5.6l.32.63.4-.6zm-6.8 12.63l-.82-.37-.06.82zm3.93 1.15l-.5.57.57.2zm-2.4-5.6l.45.56.24-.44zm3.33 3.4l.45.56.37-.5zm3.53 2.75l-.13-.88-.66.42zm1.37 3.9l-.7-.12.2.7zm3.14-5.2l-.2.67.63-.01zm-5.87 6.07l-.52-1.1-.58.9zm3.27 3.96l-1 .2.5.6zm1.5-7.44l.01.9.7-.3zm-2.9-6.46l-.26-.82-.66.42z"/><path d="M271.53 335.98l-.76.07.23.6zm3.23-5.16l-.34.73.67-.1zm.14 1.84l-.65 1.05 1.17.27zm.05-2.1l-2-.33.5 1.74zm-1.85 4.45l-.68 1.14 1.14.05zm1.2.8l-.65 1.06 1.2.17zm-3.34-8.92l-.78-.54-.04.82zm1.28-.43l.1-.7-.67.1z"/><path d="M268.57 326.5l-.55.46.67.2zm5.63 10.97l-.57-.5-.12.7zm-1.56-7.54l-.66.42.63.3zm1.58 9.75l-1.48-.26.4 1.38zm-.82-1.18l1.68 1.32.45-1.88zm-.04-2.98l2.26 1.78.6-2.54zm.84-2.98l2.3 1.68.67-2.4zm.87-2.67l2.23 1.88.77-2.38zm1.13-3.2l2.07 2.03.83-2.57zm-7.12 8.43l-.2-.7-.44.38z"/><path d="M267.9 336.8l-.07-.76-.53.35zm1.3-1.46l-.1-.66-.53.35zm6.7-15.1l-.73 1.04 1.08.22zm1.74 2.5l-.67 1.16 1.12.13zm2.36-3.36l-.5-.46-.3.65zm-5.06 1.92l-1.62-.17.45 1.28zm4.72 1.32l-1.62-.17.54 1.3zm-1.5-.97l-1.6-.27.45 1.3zm-.74 2.8l-1.4-.2.32 1.35zm1.97-6.2l-1.6-.27.36 1.26zm-.27 1.6l-1.4-.2.35 1.26zm-3.53-1.07l-.73 1.03 1.18.25zm5.3-12.08l.38 1.16 1.2-.16zm-7.35 20.35l-.34.73.83.06zm1.25-3.9l.5.37.28-.54zm-5.66 2.27l.66-.4-.5-.38z"/><path d="M268.3 322.25l-.8-.45v.72zm4 1.2l-.58.55.57.18zm-2.37-5.63l.46.56.36-.52zm2.3 3.1l-.7-.42-.1.7zm1.43-.6l.3-.64-.66.1zm-3.7.55l-.5.58.57.18zm7.24 3l2.3 1.74.63-2.42z"/><path d="M277.7 321.53l2.23 1.93.73-2.4zm5.14-8.06l-1.4-.2.32 1.35zm-4.7 4.13l-1.52-.14.32 1.35zm.23-1.82l.75-1.44-1.33-.1zm.18 1.82l.7-1.25-1.33-.1zm-3.5-1.88l-1.2 1.2 1.4.53zm1.74-4.07l.4.75.4-.6zm.5-1l-.05-.86-.72.3z"/><path d="M278.63 314.6l-.7-.1.12.66zm3.33-5.15l-.3.64.6.07zm-7.46 12.27l-.1-1.08-.87.47zm1.57 4.86l-.92-.07.28.8zm4-6.32l-.26.86.83.04zm-2.46-6.38l-1.68 1.06 1.48.97zm4.98-6.13l-.56 1.5 1.66-.65zm-1.42 2.6l-.4 1.35 1.2-.17zm.64-2.1l-1.37-.3.26 1.23zm-.65 3.88l-1.74.93 1.55 1.1zm3.15-3.13l-1.94.88 1.46 1.06zm-4.75 9.85l-1.88-.36.43 1.7zm.28-4.4l-.76 1.13 1.1.13zm1.32.82l-.76 1.13 1.08.22z"/><path d="M280.8 316.72l-.58-.5-.17.58zm-.02 2.18l-1.5-.24.35 1.25z"/><path d="M278.92 317.82l2.17 1.8.75-2.5zm1-3.02l2.08 1.77.75-2.5zm.94-2.76l2.07 1.77.72-2.4zm-5.45 3.16l-.08-.75-.53.36zm4.06-2l-.26-1.23-.93.66zm-4.86 2.6l-.1-.76-.53.36zm19.08-52.34l-.56 1.1 1.12.05zm-10.35 41.7l-.66 1.15 1.24.06zm-2.7-1.44l-1.6-.18.44 1.3zm4.63 1.27l-1.62-.17.42 1.38zm-1.58-.98l-1.52-.15.42 1.38zm-3.04 2.1l-1.5-.24.45 1.28zm16.28-43.47l-1.53-.04.54 1.25zm-3.64-.62l-.56 1.1 1.12.04zm-13.87 47.48l-.35.83.7.1zm1.07-3.86l.58.5.1-.7z"/><path d="M274.96 308.07l.62-.34-.5-.36zm-1.26 2.13l-.7-.42-.13.8zm4.07 1l-.52.68.6.08zm-2.53-5.45l.36.53.4-.6zm2.78-2.3l-.78-.55-.03.82zm13.64-39.63l.08-.8-.56.2zm-16.1 39.1l-.5.58.57.17zm6.7 4.1l2.17 1.8.82-2.37zm1.08-3.23l2.14 1.9.75-2.5zm3.2-17.62l-.73 1.04 1.1.22zm2.14 2.57l-.76 1.12 1.2.16zm-2.8-1.72l-1.62-.18.36 1.26zm3.15 4.74l-1.5-.24.35 1.26zm-.5 3.1l-1.43-.12.35 1.25zm1.96-6.2l-1.5-.24.33 1.35zm-1.45-1.06l-1.6-.18.44 1.3zm-.62 2.42l-1.6-.27.42 1.38zm1.4-4.32l-1.52-.15.35 1.26zm-5.9 11.3l.72-1.35-1.43-.12zm.13 2.32l.72-1.35-1.43-.1zm.27-8.17l-.67 1.16 1.14.03zm2.06-6.48l-.85 1.1 1.2.16zm-2.05 8.16l-.35.83.7.1zm1.15-3.83l.68.52.1-.7zm-5.56 2.2l.62-.34-.52-.36zm-1.02-3.56l-.8-.45-.04.82zm3.88 1.28l-.48.58.67.2zm-2.24-5.7l.33.62.46-.5zm-6.86 16.52l-.7-.42-.14.8zm3.9 1.28l-.46.5.55.27zm-2.25-5.7l.46.56.33-.43zm8.48 4.43l-1.17 1.1 1.43.44zm-5.26-4.7l.33.62.5-.6zm3.33 3.82l-.15-.88-.65.43zm1.23 3.92l-.7-.1.2.7zm3.4-5.04l-.3.65.73.01zm-5.76 2.14l-1.03-.72-.2.98zm4.94 2.32l-.7.62.84.35zm-2-7.92l.37.85.62-.65zm-.94-1.4l-.16-.9-.65.43z"/><path d="M283.98 296.82l-.83-.03.24.6zm3.3-5.06l-.3.64.63-.02zm.18 1.84l-.73 1.03 1.18.25zm-1.16-.3l-1.8 1.13 1.5.97zm1.16-1.8l-1.97-.38.52 1.72zm-2.1 4.24l-.76 1.13 1.2.16zm1.2.88l-.63 1.07 1.08.22zm-3.35-10l-.77-.55-.04.83z"/><path d="M284.45 286.28l.23-.77-.7.2zm-3.62-.15l-.55.46.64.3zm5.55 12.1l-.6-.4-.08.6zm-1.38-7.52l-.65.43.64.3zm-.27 8.48l2.27 1.83.65-2.52zm1.13-2.75l2.18 1.8.65-2.52z"/><path d="M284.3 301.37l2.17 1.8.65-2.52zm2.5-7.97l2.17 1.8.72-2.4zm.8-3l2 1.97.92-2.34zm1.03-3.14l2.12 2 .84-2.46zm-7.33 8.4l-.1-.66-.53.36zm-.5-1.82l-.26-1.23-.8.6z"/><path d="M277.82 298.9l.01-.73-.52.36zm3.68-2.85l-.1-.67-.5.27zm-.76.8l-.22-1-.78.5zm1.7 4.38l-.92-.07.33.62zm3.4-6.08l-.35.83.76-.08zm2.5-14.9l-.73 1.03 1.08.22zm1.75 2.83l-.73 1.03 1.18.25zm2.57-3.3l-.5-.46-.27.55zm-5.24 1.45l-1.6-.27.32 1.36zm4.77 1.86l-1.56-.37.42 1.38zm-1.6-1.32l-1.6-.27.45 1.3zm-.83 2.78l-1.4-.2.23 1.32zm2.3-5.9l-1.47-.33.23 1.32zm-.27 1.6l-1.47-.33.33 1.35zm-3.62-1.5l-.73 1.04 1.18.25zm5.15-11.6l.4 1.24 1.2-.2z"/><path d="M285.97 287.47l-.45.8.82.04zm1.28-3.9l.48.46.27-.54zm-5.7 2.26l.66-.44-.62-.4zm-.45-6.17l-.8-.42v.72zm4.02 1.3l-.55.47.55.26zm-2.2-5.66l.35.6.35-.53zm1.83 5.43l-.7-.42-.1.7zm1.4-.5l.3-.64-.66.1zm-3.7.45l-.56.46.58.18zm7.2 3.53l2.27 1.83.75-2.5z"/><path d="M290.3 281.77l2.12 2 .8-2.37zm4.9-7.8l-1.5-.2.4 1.24zm-4.52 3.74l-1.5-.24.32 1.35zm.1-1.53l.7-1.46-1.34-.05zm.1 1.9l.7-1.37-1.34-.05zm-3.5-2l-1.16 1.24 1.42.5zm1.8-3.98l.35.62.47-.6zm.6-1.07l-.08-.85-.7.33z"/><path d="M291 275l-.7-.1.14.66zm3.34-5.1l-.28.65.6.06zm-7.3 11.94l-.1-1.08-.77.5zm1.4 5.02l-.9-.17.18.8zm4.25-6.14l-.36.83.86-.05zm-2.77-6.42l-1.62 1 1.48 1.02zm5.07-6.1l-.5 1.52 1.64-.7zm-1.43 2.62l-.46 1.32 1.26-.07zm.6-2.22l-1.28-.24.17 1.28zm-.63 3.87l-1.75 1.08 1.48 1.02zm3.18-2.97l-1.98.8 1.46 1.12zm-4.48 9.62l-1.88-.35.34 1.66zm.08-4.08l-.73 1.15 1.1.2zm1.22.86l-.73 1.15 1.1.2z"/><path d="M293.24 277.36l-.5-.44-.25.55zm.2 1.92l-1.47-.34.33 1.35z"/><path d="M291.58 278.2l2.14 1.9.85-2.46zm.72-2.75l2.22 1.74.66-2.4zm.92-2.95l2.1 1.8.75-2.4zm-5.4 3.08l-.1-.76-.5.38zm3.94-1.93l-.2-1.2-.88.6zm-4.73 2.55l-.18-.87-.54.47zm8.67-10.33l-.58 1.2 1.1.05zm-2.65-1.42l-1.62-.06.44 1.23zm4.55 1.23l-1.6-.16.52 1.35zm-1.53-.96l-1.63-.06.54 1.25zm-2.9 1.85l-1.57-.33.46 1.37zm-1.33 3.37l-.33.84.7.08zm1.06-3.86l.7.5.1-.7zm-5.52 2.32l.62-.35-.53-.35zm-1.28 2.05l-.72-.4-.1.8zm4.03 1.2l-.47.6.58.16z"/><path d="M287.72 266.02l.35.6.35-.52zm2.6-1.78l-.8-.5.02.83zm4.23 3.46l2.3 1.68.68-2.4zm.84-3.14l2.15 1.82.77-2.5zm1.15-4.92l-.66 1.08 1.2.17zm1.8-3.2l-.55-.3-.2.57zm.13 2.8l-1.53-.03.54 1.25zm-1.55-.85l-1.62-.06.63 1.27z"/><path d="M296.8 261.5l-1.5-.14.42 1.33zm-3.13-3.07l-1.02 1.12 1.24.4zm1.66-2.03l-1 1.28 1.24.4zm2.43.13l-1.43-.02.44 1.23z"/><path d="M296 261.57l2.4 1.57.48-2.56zm.56-3.37l2.37 1.76.55-2.44zm3.7-9.97l-2 3.88 1.88.55zm-2.4 7.7l-2.02-.1.7 1.67z"/><path d="M299.1 252.43l-.4 1.28 1.12-.13zm-.66 1.9l-.74-1.57-.9 1.48zm.64 1.54l-1.5-.1.47 1.2z"/><path d="M297.17 255.2l2.46 1.5.4-2.47z"/></g><linearGradient id="N" gradientUnits="userSpaceOnUse" x1="217.5257" y1="298.4638" x2="227.8996" y2="212.28"><stop offset="0" stop-color="#874130"/><stop offset="1" stop-color="#531700"/></linearGradient><path d="M259.6 220.9c-15.68-7.44-29.8-13.03-29.8-13.03h-73.4s-5.9 8.03-7.67 22.07c-2.24 17.74 11.18 21.67 16.67 21.67 4.27 0 18.9 1.14 21.05 3.64 16.38 19 12.5 42.24 21.27 41.98 22.76-.68 65.67-18.5 83.33-35.96 5.78-5.7 10.66-14.47 9.82-16.8-3.73-10.4-22.57-14.7-41.26-23.57z" fill="url(#N)"/><g fill="#491913"><path d="M183.1 213.97l-1.6.4.2-1.4zm-2.2-3.4l-1.7.4.3-1.5zm4.9-1.5l.4.9h-.9zm-4.1 5.4l-.3 2-1.5-1zm-4.4-5.6l-.3 1.9-1.5-.9zm-3.8-.6l-.3 2-1.5-1zm8.2 0l-.4 2-1.4-1zm.6 2.3l-.3 2-1.5-1zm-3.1-.2l-.4 1.9-1.4-.9zm7.8.1l-.3 1.9-1.5-1zm-2-.4l-.4 1.9-1.4-1zm-18.8 2.4l-.3 1.9-1.5-.9zm3 .6l2-.3-.5 1.7zm-2.9-1.2l2-.3-.5 1.7zm10.3 3l-1.6.5.3-1.5zm8.2-.1l-1.6.5.2-1.5zm-18.1 1.9l-1.6.4.2-1.5zm7.3-2.8l-1.2.2.2-1zm5.3.1l-.4-.9h.9zm-5.1 6l.7-.6.3.9zm4 2.8l.2 1.1-1-.2zm0-5.4l-.8.4-.1-.8zm6.1 5.1l-.7-.7.9-.3zm-18 3.7l.2 1.2-1-.3zm0-5.3l-.8.4v-.8zm6.1 5l-.6-.7.8-.2zm-19.8-1v1.1l-.9-.4zm1.4-5.2l-.9.2.2-.8zm4.6 6.5l-.4-.9h.9zm-.1-3.3l.2 1.1-1-.2zm0-5.4l-.9.5v-.9zm6.1 5.1l-.6-.8.8-.2z"/><path d="M156.2 215.97l-.8.8-.4-1zm4.6-2.8l-.9-.5.8-.5zm-1.1 7.8l.3-.9.6.6zm7.7-3.9l-1.9.9v-1.9zm2.1 3.4l-.6-.7.8-.2zm-6.7-4.4h1.1l-.5.9zm4.7-.3l1 .4-.8.7zm-4.4-3.1l-.2.9-.7-.4z"/><path d="M170.6 210.57l-.9.1.3-.8zm-4.3 5.7l.5 1.5-1.3-.2zm-.9-7.1l-1.1.7-.2-1.1zm9 5.7l-1-.9 1.1-.5zm-13 2l1.2.9-1.1.6zm-4.2-5.1l-.5 1.1-.7-.8zm9.7-.1l-1.1-.2.5-.9zm6.4 4.5l1 .5-.7.7z"/><path d="M168.9 213.07l-.2 1-.6-.5zm7.7-2l-1 .1.3-.8zm-1.7-.7l-1.7.4.3-1.4zm-.4 1.1l-1.9 1.7-.7-2.2zm2.5-.6l-.4 2.6-2-1.2zm-9.7-.8l-.4 2.6-1.9-1.2zm-5 .2l-.4 2.5-2-1.2zm-5 .5l2.6-.2-.8 2.2z"/><path d="M159.1 214.57l1.4-1.2.5 1.6zm-4.8.3l1.7-.8.1 1.7zm9-1.6l1.4-1.3.5 1.7zm-6.7-.1l1.8-.8v1.7zm4.1-4.6l-.4 2.5-1.9-1.1zm10.5 3.1l-1.7.4.3-1.4zm-.6-1.9l-1.6.5.2-1.5zm10.6 8.1l.3 1.1-1-.2zm.9-1.4l1 .1-.4.7zm-1.2 4.6l-.9.4v-.8zm-12.5-11.7l.4.9h-.9zm8.5 4.6l-.7.6-.2-.8zm-11.4-6l-.3 2-1.4-1z"/><path d="M166.6 211.37l-1.4-3.4 3.3.1zm-3.5 0l-1.4-3.5 3.3.1zm7.8 0l-1.4-3.4h3.3zm-12.8 0l-1.4-3.4 3.4.1zm-7.4 9.2l1.1-2.2 1.4 1.7zm24.2-9.2l-1.4-3.4 3.3.1zm3.6.1l-1.5-3.4h3.3zm4.1-.1l-1.5-3.3 3.3-.1z"/><path d="M159.4 208.77l-.3 1.9-1.5-1zm3.3.9l-1.9.5.3-1.8zm-6.3 2.8l-.9-1.7 1.7-.2zm0 1.8l-2.5-.2 1.3-2.4zm-2.3 4.1l-2.1-.1 1-2.1zm5.5-2.4l-2.4.5.5-2.5zm4.1-1.7l-3 .6.6-3.2zm-11.1 8.6l-1.4-.1.7-1.2z"/><path d="M158 219.97l-1.2.2.3-1.2zm9-5.3l-2.1.5.5-2.3zm-5.9 2.5l-1.6 1.4-.8-2.1zm-5.2 1.4l-2-.2 1-1.8z"/><path d="M161.2 217.87l.9.8-.9.4zm-3.5-4l-.4.8-.5-.6zm7.9-.2l-.9-.1.4-.7zm4.1 3.2l.8.4-.6.5z"/><path d="M171.9 218.17l1.4.8-1.1.8zm-4.7-.6l.9.4-.7.5zm2.2-1.1l.8.4-.6.6zm-5.3 2.9h-.8l.3-.6z"/><path d="M172.6 221.67l1.1.6-.9.8zm-4.7-3.8l-.2 1.1-.8-.6zm8.7-1.7h-1.1l.4-.9zm27.9-2.3l-1.7.5.3-1.5zm-2.3-3.4l-1.6.5.3-1.5zm.9 4l-.3 2-1.5-1zm-4.4-5.6l-.3 1.9-1.5-.9zm-4.1-.7l-.3 1.9-1.5-.9z"/><path d="M203.1 208.27l-.4 2-1.4-1zm.6 2.3l-.4 1.9-1.4-1zm-3.2-.2l-.3 1.9-1.4-1zm5.8-.4l-.3 1.9-1.4-.9zm3.5 1.7l-1.9.6.3-1.8zm-.9-2.3l1.9.1-.7 1.6zm-21.7 2.9l-.3 1.9-1.5-.9zm2.9.5l2-.3-.5 1.7zm-2.7-1.1l1.9-.3-.4 1.7zm10.1 2.9l-1.6.5.3-1.5zm8.7.2l-1.6.5.2-1.5zm1.9-1.2l-1.6.5.2-1.5zm-12.7.3l-1.2.2.2-1zm5.3.1l-.4-.9h.8zm-5.1 6l.7-.6.3.8zm4 2.7l.2 1.2-1-.2zm0-5.3l-.8.4-.1-.8zm6.1 5.1l-.7-.8.9-.2zm1.6-.9l.3 1.1-1-.2zm.1-5.3l-.9.4v-.9zm6 5l-.6-.7.8-.3zm-26.2 4.6l.2 1.2-1-.3zm0-5.3l-.8.4-.1-.9zm6.1 5l-.6-.7.8-.2zm-5-8.8l-1.9.9v-1.9zm2.1 3.4l-.6-.7.8-.3z"/><path d="M186.5 215.57l1 .4-.7.7zm-4.4-3.2l-.1 1-.7-.5zm7.6-2l-.9.1.3-.8zm-4.3 5.7l.5 1.5-1.4-.2zm-.9-7.1l-1 .7-.2-1.1zm8.9 5.7l-.9-.8 1.1-.5zm-12.2.7l1.3.5-.9.9zm-5.4-3.9l-.2 1.2-.8-.7z"/><path d="M185.3 208.97l-1.2.1.3-1zm9.4 7.2l1 .5-.8.7zm-4.4-3.1l-.2.9-.7-.5zm7.6-2h-.9l.3-.8zm-2.1-1l-1.7.4.3-1.5zm-.3 1.3l-1.9 1.7-.7-2.2zm2.9-.5l-.4 2.6-2-1.2zm-12-1l-.4 2.6-1.9-1.2zm5.8 1.7l-1.6.4.2-1.5zm-.5-1.9l-1.6.4.2-1.4zm10.9 8.2l.3 1.1-1-.2zm5-.7l.3 1.1-.9-.2zm-4.1-.7h1l-.4.8zm5.9-.9h1l-.4.8zm-7.1 5.4l-.9.5v-.9zm-12.8-11.7l.4.9-.9-.1z"/><path d="M198.3 213.97l-.8.6-.1-.8zm-11.5-5.6l-.3 1.9-1.5-.9z"/><path d="M187.8 211.47l-1.3-3.4 3.3.1zm4.2 0l-1.3-3.4 3.3.1zm3.9 0l-1.3-3.5 3.3.1zm11.9-.9l-2.2-2.7 3.4.1z"/><path d="M211.4 210.57l-2.1-2.7 3.3.1zm-11.5.8l-1.6-3.3 3.3-.1zm4.1 0l-1.6-3.3 3.3-.1zm-13.4 5.1l.8.5-.6.5z"/><path d="M192.8 217.87l1.4.8-1.1.8zm-4.7-.6l.9.4-.7.5zm2.2-1.1l.8.4-.6.5zm3.2 5.2l1.1.6-.9.8z"/><path d="M188.8 217.57l-.3 1-.7-.5zm8.7-1.7h-1.1l.4-.9zm22.4-1.6l-1.6.5.2-1.5zm-2.2-3.4l-1.7.5.3-1.4zm4.9-1.5l.4.9h-.9zm-4 5.5l-.3 2-1.5-1zm-.2-6.2l-.3 2-1.4-1zm.7 2.3l-.3 1.9-1.5-1zm-3.6-.5l-.3 2-1.5-1zm-1.5-1.8l-.3 1.9-1.5-.9zm9.8 2l-.3 2-1.5-1zm-2.1-.3l-.2 1.9-1.5-.9zm0 4.8l-1.6.4.2-1.4zm-11.4-1l-1.1.2.2-1zm5.4 0l-.5-.9.9-.1zm-5 6.1l.7-.7.2.8z"/><path d="M211.6 212.07l-1.1.3.2-1zm5.4.1l-.5-.9.9-.1zm-5 6.1l.7-.7.2.8zm2.7 4.6l.2 1.1-1-.1zm-.1-5.3l-.8.4v-.9zm6.2 4.9l-.7-.7.9-.2zm-2.7-4.2l.3 1.1-1-.2zm.9-1.4h1l-.4.8zm-1.7 4.3l-.8.5v-.9zm-2.2-9.8l-1.4-3.4 3.4.1zm4.6-.6l-2.1-2.8h3.5zm4.3 1.7l-.2 2-1.5-.9zm3.4.7l1.9-.6-.2 1.8zm2.8-1.4l1.9-.6-.2 1.8zm-5.5.6l1.9-.3-.4 1.7zm1.9 2.6l-1.9.9v-1.8z"/><path d="M234.7 213.57l-1.7.9v-1.7zm-8.6 6.7l-.7-.8.9-.2zm-3.7-3.1l1 .4-.7.7zm-4.4-3.1l-.2 1-.7-.5zm7.6-2.1l-1 .1.3-.8zm8.8 8.6l.9-.6.3 1zm-2.3-3.3l.9-.6.2 1zm3.1-1.3l.8.6-.8.4zm-4.7-1.1l-.4.8-.6-.6zm-8.6.1l1.4.5-1 .9zm-8.7-2.7l-.2 1.2-.9-.6zm8.8-2.5l-1.2.1.3-1zm-67.1 6.1h-1.7l.6-1.4zm73.6-.5l-1.5 1.3-.5-1.7zm1.5-7l1.7 1.9-2.1.8zm-1.4 3.2l-1.6.4.2-1.4zm-.5-1.9l-1.6.5.2-1.5z"/><path d="M226.3 209.47l.4.9h-.9zm-2.7-.8l-.3 1.9-1.5-.9z"/><path d="M224.1 211.47l-1.4-3.4h3.3zm3.7-.2l-1.5-3.4h3.4zm-1.7 5.4l.8.4-.6.5zm-.8 4.2l1.5.8-1.1.9zm4.6-4.3l1.4.8-1.1.9zm-2.6 1.7l.9.4-.6.5z"/></g><linearGradient id="O" gradientUnits="userSpaceOnUse" x1="205.6317" y1="227.2475" x2="203.8875" y2="194.4766"><stop offset="0" stop-color="#330900" stop-opacity="0"/><stop offset=".9975" stop-color="#330900"/></linearGradient><path d="M230.45 207.9l-74.25-.04s-4.2 7.1-6.6 16.24c-1.66 7.63-.37 15.83-.37 15.83s22.67-8.97 54.57-2.27c48.46 1.34 58.84-14.87 58.84-14.87l-32.2-14.9z" fill="url(#O)"/><g fill="#441b18"><path d="M242.97 363.7c-.55 1.4.16 2.86 1.46 3.38l52.75 20.8c1.4.55 2.86-.16 3.38-1.46l.8-2.27-57.27-23.24-1.1 2.8z"/><path d="M249.13 350.86c-.35-.46-1.3-.52-1.62.01-.66 1.13-1.48 2.64-2.14 4.3-1 2.83-1.34 5.82-1.34 5.82l57.45 22.24s1.1-3-2.18-7.53c-3.24-4.3-23.47-24.9-23.47-24.9s-1.1-.76-2.63.68c-1.48 1.56-1.8 3.16-1 4.66.9 1.54 3.5 6.66 3.5 6.66s-1.5 1.34-2.66-.08c-1.12-1.52-3.24-4.3-4.02-4.5-.7-.16-5.53.4-10.5-.93-4.66-1.55-8.03-4.7-9.4-6.44z"/></g><path d="M244.2 360.63l57.43 22.55-.28.97-57.52-22.6zm39.87-1.3s-1.5 2.73-4.9 4.73c-1.28.78-2.7 1.4-3.88 1.9-1.3.56-1.42 2.23-.2 2.93 2.14 1.4 5.54 2.84 10.15 4.78l16.3 6.9s-.05-2.6-2.23-4.97c-1.98-2.3-15.26-16.27-15.26-16.27z" fill="#cf8580"/><g fill="#823d3d"><path d="M263.4 358.02l2.04.28-1.05 1.84zm2.4.2l2.24.03-.87 1.38zm7.78.18l-1.03-2.02 1.58.1zm1.17 2.2l-1.06-1.93h1.6z"/><path d="M275.76 362.4l-1-1.8h1.62zm-3.6-6.93l-.3-1.2 1.2.48zm-.26-1.5l.4-1.02.87.77zm-10.9 3.86l2.18.2-1.32 1.96zm-2.47-.55l2.1.4-1.37 1.82zm-2.63-.94l2.08.72-1.8 1.54zm-4.8-3.4l1.54 1.25-1.72.3zm2.47 1.94l1.93 1.1-1.87.65z"/><path d="M262.1 359.66l.82-.43.13 1.02zm-.8.97l.43-.8.52.85zm-.7-1.78l.85-.52.1 1.1zm-2.88.47l.44-1.1.94.9zm-1.42-1l.44-1.1.84.87zm.5 1.93l-1-.72 1.2-.6zm-1.24-2l-.87-.77 1.02-.68zm-2.26-1.33l-1.17-.03.45-1.12z"/><path d="M252.08 355.37l-1.05.22.42-1.34zm2.35 2.76l-.85.52-.36-1zm.67-1.45l-.7.68-.36-1zm-1.3-1.6l-.8.65-.26-.96zm4.2 5.42l-1-.72 1.2-.6zm-3.73-.6l-1.06-.85 1.1-.64zm10.63.55l.18-1 .9.46zm3.2-1l-.04-1 1 .5zm-1.65 1.17l.8-.65.26.97zm-3.2 1.3l.04-.63.74.3zm-1.84-.74l-.45-.5.6-.2zm-1.47-.68l-.57-.44.83-.2zm.22-1.1l-.57-.45.74-.24zm-2.05-1.03l-.63-.57.87-.3zm5.55 1.44l-.54-.53.87-.3zm1.35 1.5l-.54-.53.65-.28z"/><path d="M266.57 361.43l-.4-.6.55-.32zm2.03-.8l-.54-.54.83-.2zm6.07-2l-.72-.6 1.13-.4zm-.67-1.02l.05-.95.9.47zm-1.5-1.13l-.35-1 1.04.1zm-5.18 6.87l-.45-.5.78-.34zm3.18-3.7l-.7.16.1-.82zm-.82-.65l-.67.06.17-.7zm.44 5.13l-.46-.72.8-.12zm5.68-3.45l-.7-.7 1-.36zm.45 2.65l-.5-.94 1.08-.01zm-5.4-2.13l-.52.22.1-.5zm2.9-4.88l-.62.2.04-.63zm3.52 5.48l-.6.18.13-.6zm-1.34-2.57l-.48.13.03-.63zm-9.04 7.07l-.58.1.04-.63zm-16.52-7.73l-.52.22-.05-.67zm16.07 1l-.4-.6.7-.15zm-10.4-.36l-.54-.54.65-.28zm-4.05-2.57l-.44-.5.83-.2zm-2.66-5.47l1.25 1.46-1.7.2z"/><path d="M250.1 353.83l-1.23-.16.85-1.06zm-3.63 1.57l-1.02.14.32-1.06zm.33-1.37l-.72-.08.28-.96zm3.05 1l-.37-.7.76-.02zm-1.45-2.3l-.32-.55.67-.06zm-1.2.28l-.5-.63.7-.15zm17.68 10.78l-.48-.4.7-.15zm-2.13-.85l-.36-.46.52-.23zm11.93-7.33l-.2.78-.54-.53zm-1.62-1.6l-.35.62-.32-.56zm.64.8l-.23.87-.6-.66zm3.1 3.05l.26.43-.52.22z"/><path d="M275.74 355.92l-.18.47-.4-.37zm-1.86-1.27l-.48.13.05-.4zm-.03.63l-.27-.43.58-.1zm-.8-1.82l-.17-.4.45-.03zm2.78 4.66l-.18.46-.4-.37zm-1.98-5.85l-.2.47-.4-.37zm-23.54 4.55l-.35-.46.52-.23zm4.44 4.55l-.4-.37.48-.13zm-2.94-2.34l-.27-.43.43-.26zm9.14 3.5l-.33.3-.13-.48zm-5.7-3.24l-.37.4-.2-.6zm4 1.06l-.37.4-.1-.58zm-2.4 1.96l-.34.3-.1-.57zm2.74-.42l-.33.3-.22-.52zm-1.82-.83l-.42.26-.2-.6zM251 355.9l-.47.35-.05-.67zm-3.7-.17l-.37.4-.22-.5zm-1.64.64l-.57.1.12-.6zm.2 1.15l-.58.1.32-.53zm3.85-2.35l-.56.32-.1-.58zm-1.7-.67l-.46.35-.1-.58zm-1.3-.2l-.37.4-.18-.62zm2.13-.76l-.34.3-.22-.52zm-1.1-.22l.26.42-.54.01zm-.33-.78l.27.43-.58.1zm.3-.74l-.33.3-.23-.52zm1.6 0l-.3.2-.32-.56zm-2.33 1.54l-.37.4v-.54zm3.7-.14l-.42.26-.13-.48z"/></g><defs ><path id="Q" d="M392 320.3c35 0 63.4 28.5 63.4 63.4s-28.5 63.4-63.4 63.4-63.4-28.5-63.4-63.4 28.4-63.4 63.4-63.4m0-15c-43.3 0-78.4 35.1-78.4 78.4s35.1 78.4 78.4 78.4 78.4-35.1 78.4-78.4-35.1-78.4-78.4-78.4h0z"/><path id="R" d="M392 323.2c33.4 0 60.6 27.2 60.6 60.6s-27.2 60.6-60.6 60.6-60.6-27.2-60.6-60.6 27.2-60.6 60.6-60.6m0-7c-37.3 0-67.6 30.3-67.6 67.6s30.3 67.6 67.6 67.6 67.6-30.3 67.6-67.6-30.3-67.6-67.6-67.6h0z"/></defs></svg>