<svg xmlns="http://www.w3.org/2000/svg" viewBox="0 0 480 480" xmlns:v="https://vecta.io/nano"><g fill="#fff"><path d="M319.2 100.64l-3.93 2.93a7.58 7.58 0 0 0 .63-.93c.8-1.3.1-2.9.1-2.9s-6.2 2.3-7.7 3.7-3.5 3.3-3.9 5.7c-.4 2-1.9 7.4-2.5 8.6-1.2 2.5-16 18.7-16 18.7l10.9 10.4 14.75-21.64 1.05-.86 5.3-4.6c1.3-1.2 8.63-16.6 8.63-16.6l-7.33-2.5z"/><path d="M324.3 99.74c-.8-.6-3-1.3-3.7 0-.43.95.5 2.5 1.9 3.42l-.8-.22c-1.1-.3-3.7-.5-4.2.9-.3.76.27 1.6 1.27 2.2-1.23.26-2.73.98-2.87 2-.06.72.6 1.47 1.55 2.02-1.2.2-2.87.8-2.95 1.78-.2 1 1.5 2.1 3.3 2.2 1.8.2 2.8-.3 3-1.8.08-.6-.2-1.05-.6-1.4 1.77-.06 3.02-.46 3.3-2 .12-.7-.28-1.28-.85-1.72 1.52.15 2.6-.1 3.15-1.38.3-.68-.2-1.23-.95-1.66 1 .13 1.7-.23 2.25-1.24.8-1.4-2-2.6-2.8-3.1h0zM153.43 208.58l78.2-.3s7.05-22.07 16.2-59.48c.93-19.08-1.07-48.2-23.14-49.08-11.8-.7-25.3 7.3-40.46 36.77-8.9 17.3-28.32 59.1-32.32 69.52-.55 1.3.3 2.57 1.5 2.57h.02zm207.9-.45c-1.9-1.1-4.07-4-7.42-4.3-9.2-.88-16.5-1.65-21.8-4.15-3-1.5-46.97-24.56-51.27-28.3-5.6-4.1.22 27.3 14.42 31.4s26.5 6.7 37.5 9.5c1.64.4 3.3 1.23 5.56 1.56 1.9-3.77 5.82-6.36 10.34-6.36a11.6 11.6 0 0 1 11.6 11.6c0 .08-.01.17-.01.25s.01.17.01.25c0 1.1-.2 2.2-.5 3.3.1.2.2.4.4.5 1.8.85 2.5-2.54 2.97-6.13s.7-7.35-1.8-9.1v-.02z"/></g><path d="M363.7 211.34c-.14-.66-.37-1.26-.63-1.76-.28-.5-.58-.88-.88-1.13-.58-.5-.93-.62-.78-.44.1.2.83.7 1.34 2.1.52 1.4.52 3.64-.02 6.7l-.01-.17-.88 4.6c-.2.6-.4 1.22-.73 1.56-.16.18-.3.24-.46.24-.15.01-.3-.04-.4-.18 0-.08.04-.1.1-.34.1-.32.18-.72.24-1.15.14-.84.12-1.8.14-2.22l.01.08c-.08-1.18-.18-2.4-.5-3.58-.33-1.17-.8-2.3-1.5-3.22.06.07.12.08.4.54l-.75-1.1c-.26-.37-.56-.7-.83-1l-1-1.07c-1.53-1.3-3.75-2.44-5.97-2.73-2.2-.36-4.28.01-5.47.48l.16-.08c-1.34.56-1.8.63-3.15 1.52-.08.04-.18.1-.17.08-.63.48-1.52 1.2-2.26 2.04-.37.4-.7.85-.98 1.25-.26.38-.53.85-.55.93-.02-.01-.04-.01-.06-.02l-.04.08-.08-.01-.17-.03-.7-.15-1.43-.4 1.06.33c-.2.04-.74-.14-1.48-.43-.73-.28-1.72-.7-2.82-.88-2-.53-4.14-.64-6.2-1.23-1-.16.9.07-.6-.22-.03-.1.7.1.34-.06l-4.17-1.04-.06-.1c-2.37-.43-4.4-1.15-5.98-1.4-2.43-.53-1.57-.6-4.1-1.08l-.95-.34c-1.07-.3-.8-.07-1.97-.42.1-.04-1.5-.43-.78-.3l-8.96-2.4c-.57-.06-1.6-.37-2.4-.57l.2-.48 2.52-6.27 2.95-7.1 3.54-7.98-2.28-1.72-1.7-1.3-3.38-2.6-6.65-4.98a4.31 4.31 0 0 0-.59-.44l-.4-.25-3.03-2.43.83-1.07c-.73.83-.55.2.4-.77l-.14.33.97-1.16c-.25.38-.02.3.7-.56l-.37.66 1.2-1.73c1.14-1.15 2.62-3.25 3.16-3.67l1.14-1.44c.6-.77 1.2-1.64 1.36-2.02-.32.63.85-.88.64-.37.43-.8 1.88-3.03 2.6-3.82l-.1.17 2.28-3.35 1-1.6c.6-.92.47-2.26-.36-3l-1.7-1.82c0 .08-.18-.07-.4-.27l2.03-2.87.2-.14c.16-.01.67-1.3.88-1.4l.3-.54c.12-.13.34-.42.2-.15.33-.47.32-.5.5-.85l.4-.46 3.62-5.42 1.36-1.88 1.5-2.22.57-.48.63-.55 3.33-3.05 1.23-1.12c.2-.2.42-.34.64-.63.23-.27.34-.5.52-.75l1.8-3.04 3.18-6.18c.08-.12.2-.48.2-.48l1.04-2.1c.45-.27.82-.68 1.1-1.3.15-.34.16-.7.05-1.03l.38-.8c.3-.24.6-.56.85-1.03.2-.37.26-.77.15-1.16-.28-1-1.58-1.76-2.5-2.27l3.92-5.52c.4-.53.47-1.23.2-1.83s-.8-1-1.42-1.06l-3.8-.6c-.68-.13-1.32.04-1.9.5l-5.83 7.6-3.15 1.32-2.95 1.4c-1.04.52-1.97 1-2.65 1.65l-1.72 1.65c-.52.58-1.04 1.2-1.5 2.02a6.66 6.66 0 0 0-.6 1.43c-.1.27-.14.58-.2.84l-.17.8-1.84 6.62c-.06.25-.14.55-.26.82-.13.27-.28.53-.5.83l-1.25 1.7-.36.33c-.24.35-.54.76-.85 1.07v-.03c-.37.53-.86 1.06-1.05 1.32v-.03l-.5.6.06-.12c-.68.9-1.44 1.77-2.13 2.52h.12l-3.3 3.7v-.03c-.74 1 .8 1 4.24-2.82-.12.01.57-.72.32-.6 1.2-1.55 2.5-2.56 2.7-3.33.56-.7.74-.76 1.04-1.1l-.12.18 2.1-2.72c.3-.57.33-.75.73-1.8-.07.37.1-.07.22-.47-.08.26-.08.34.14-.17.01-.08.03-.2.06-.3.01 0 .02-.02.02-.01.2-.67.13-.56.03-.26 0-.02-.02 0-.07.1.3-.66.57-1.93.7-1.98.54-2 .82-3.5 1.12-5.2.1-.16.05.2-.02.7.08-.4.14-.77.27-1.13.06.03-.15.63-.2 1 .33-1.3.9-2.7 2.12-3.86l.2-.3.08-.06c-.03-.02.2-.32.37-.5.22-.12.1.12.7-.46l.96-.76 1.2-.76c-.42.2-.3.1-.14-.02.37-.2.62-.24.9-.4l.08.07c-.2-.01.95-.55 1.08-.64.25-.03-.57.32-.64.4l2.32-1.02c.8-.4-.2-.02.18-.26l.86-.38.43-.18c-.08.14-.06.4-.06.4-.06.6.23.9.1 1.56-.1.25-.3.4-.44.58s-.3.34-.5.64l-.7.8c-.04.2-.33.3-.42.52l-.1-.01c-.03.07-.08.14-.15.15l-.01-.02c-.05.1-.16.15-.18.2l-.01-.02-.1.08v-.04c-.1.16-.26.26-.4.33l.06.06c-.34.1-.35.33-.7.4v-.02c-.23.4-.62.17-.9.55.05-.05-.04-.03-.06-.05l-.45.28c-.01.1.01.18.06.22-.08.2-.1.14-.18.13.07.04.02.25-.01.33v-.06l-.1.3.15-.01c-.1.14-.18-.02-.2.14l.1.04c-.1.2-.32.27-.5.46-.4.86-.5 1.92-1.04 2.64h-.1c-.12-.04.08.3-.04.28v.12c-.03.02-.08.06-.1 0-.04.08-.02.1-.02.17l-.1.06c-.2.3-.2.66-.4 1-.33.33-.5.83-.9 1.77.04.07.07.14.1.2.08.13.07.32.2.3.13.06.27.2.46.44l.22.14.12.1.22.18c.15.12.3.22.5.3.01.03.08.03.1.02l.48.42s.57.54 1 .83c.42.28.78.27.28-1.02l.03-.01c-.22-.32-.4-.5-.68-.57.08-.16-.23-.22-.27-.32l.02-.01c-.27-.05-.32-.4-.6-.43.02-.01.05-.04.1-.01-.15-.08-.38-.18-.34-.27l-.3-.15-.15-.07-.04-.01a.65.65 0 0 0-.31.04l.04-.02h-.04c-.07.02-.1.02-.1.02-.01-.01.03-.04 0-.05.02-.01.03-.02.04-.02-.07-.01-.02-.08.01-.14.02-.04.05-.07.04-.1l.07.01.05-.13-.04.04c-.17-.07.17-.08.18-.34.03-.05.03-.1.03-.18l4.43 1.14c.18.06.36.1.53.1.5 0 1.02-.25 1.53-.77l.07-.1a5.4 5.4 0 0 0 2.56.81c.25.03.5.04.72.04.93 0 1.62-.24 2.1-.7l-2.68 5.12.03-.1c-.3.66-.64.72-1.28 1.37-.05.02-.1.06-.1.05-.6.67-1.98 1.74-2.5 2.25l-.08-.02-1.34 1.2.52-.43c-.03.14-.27.32-.62.58l-.6.43-.33.25-.38.33-.15.25c-.7 1-1.08 2.26-1.87 3.26-.27.55.18-.52-.27.27-.1-.03.2-.38-.01-.23-.46.76-.9 1.15-1.46 2.1h-.1c-.7 1.26-1.6 2.17-2.03 3.03-.78 1.25-.74.7-1.48 2.04l-.42.44c-.38.53-.16.46-.6 1.03-.03-.07-.56.73-.37.35-.8 1.03-1.46 2.2-2.36 3.5-2.52-2.4-4.15-4.78-5.43-5.3-1.17-1.16-1.27-1.5-1.84-2.12l.3.26-2.17-2.17c-.56-.7-2.08-1.48-3.35-.34l.05-.05-.6.5c-.84.77-.8 1.1-2.45 2.32.45-.5-.2.04-.8.52.37-.32.47-.44-.36.13l-.4.4c-.01 0-.05.02-.04 0-.98.8-.8.7-.3.35-.01.03.04.02.2-.07l-3.17 2.2-4.1 3.05-1.9 1.27c-.63.36-1.3.7-2.02.9-.36-.01.32-.23 1.1-.6-.65.28-1.32.52-2.02.64-.01-.13 1.18-.3 1.76-.62-1.2.36-2.45.65-3.8.7s-2.8-.2-4.2-.8l-.14-.03-.98-1.93c-2.32-4.65-4.13-8.16-6.17-11.85-2.07-3.67-4.2-7.6-7.7-12.84-.74-1.17-1.5-2.18-2.16-3.14-.72-.92-1.34-1.8-2-2.57a48.02 48.02 0 0 0-3.82-4.12c-.68-.6-1.33-1.24-2.1-1.8-.78-.55-1.52-1.2-2.44-1.75-.9-.55-1.87-1.17-3.03-1.65-1.1-.58-2.43-.95-3.87-1.4-2.8-.7-5.84-.76-8.74-.24l-1.26.3c-.14.02-.28.03-.42.05-4.17.7-8.04 2.48-11.36 4.74-3.34 2.27-6.2 4.97-8.8 7.7l-.54.4c-.17.04-.8.88-1.44 1.74s-1.22 1.82-1.48 1.97l-1 1.44c-.34.36-.97 1.17-.5.44-.94 1.3-.93 1.37-1.54 2.36l-1.1 1.34c-3.6 5.25-6 10.1-9.1 15.98-3.9 6.98-10.2 20.58-13.78 28.45-4.92 11.1-11.66 23.56-16.3 35.12-.12.27-.24.54-.34.8-.1.3-.2.54-.18.54l-4.46 10.48-.85 2.13c-.53 1.33-1.28 3.18-2.04 5.32-.38 1.07-.82 2.18-1.2 3.36l-1.14 3.6c-.3 1.25-.62 2.46-.84 3.7-.17 1.28-.1 2.56.22 3.7s.88 2.12 1.56 2.83c.67.72 1.46 1.14 2.1 1.33.65.2 1.15.17 1.42.13.27-.03.3-.1.12-.16-.2-.08-.63-.13-1.27-.4-.16-.07-.34-.17-.52-.28.55.27 1.15.43 1.78.43l8.25-.04c-20.52 1.03.23 1.28.23 1.28 12.38.24 18.74-.18 33.5-.38a28.58 28.58 0 0 0 8.43-1.4c2.34-.77 4.27-1.75 6.12-2.9 1.86-1.14 3.56-2.56 5.3-4.4a26.16 26.16 0 0 0 4.85-7.44c.37-.76.64-1.56.92-2.36.3-.82.5-1.57.75-2.37l1.4-4.73 1.15-3.96 8.63-.05 4.8-.05h.47l-.16-.77c.01.04.03.1.04.14.13.28.35.67.63 1.08.3.37.62.82.98 1.14.35.34.67.65.93.85l.4.33c1.8 1.4 3.5 2.18 5.17 2.83.83.32 1.67.58 2.54.82.44.12.9.23 1.35.32.23.05.48.1.72.14.08.02.33.05.55.07s.44.05.66.07c.33-.04.67-.05.95-.22.3-.15.54-.43.7-.73.15-.3.24-.67.27-1.06a12.02 12.02 0 0 0 .02-.6l-.03-.44c-.1-1-.3-1.95-.55-3-1.46-6.2-1.88-7.73-3.06-14-.2-1.4-.36-2.78-.5-4.18.43 0 1-.04 2.14-.34l1.15-.07c.04-.01.05-.01.1-.02l1.36.7 8.73 4.3.44.36c.13.3 3.3 1.1 3.65 1.5l1.38.48c.36.2 1.14.57.46.33 1.24.54 1.28.52 2.2.82l1.3.67c4.9 2.1 9.25 3.43 14.56 5.23 1.47.56 3.27 1.16 5.25 1.78l3.1.92 4.14 1.13 1.84-4.46.85-2.1c.03.01.05.02.08.02l10.14 2.8.36.18c.13.17 2.43.42 2.74.62l1.02.2c.28.1.87.26.36.17.93.24.96.22 1.64.35l.98.32c3.67.96 6.83 1.55 10.7 2.5 2.3.64 5.68 1.45 9.02 2.3l2.5.8a14.34 14.34 0 0 0 1.29.33l.7.14.52.08c.16.01.38.12.42-.1l.44-.8.3-.5c.2-.32.42-.62.64-.9.45-.57.92-1.05 1.38-1.47a10.53 10.53 0 0 1 4.79-2.44c1.83-.38 3.78-.26 5.58.3 1.8.6 3.4 1.6 4.7 2.97 1.26 1.35 2.22 2.96 2.72 4.66.04.23.24.8.24.8.2 1.06.2 2.17.2 3.26a12.48 12.48 0 0 1-.23 1.61l-.23.97c-.08.23.07.44.18.64.12.2.28.4.5.47 0-.01.2.1.57.18.35.1 1-.08 1.37-.5.77-.84 1.08-2.07 1.37-3.43.27-1.37.46-2.87.6-4.4.2-1.38.2-2.93-.07-4.26l.06-.04zm-42.67-100.08c.36-.04.7-.1 1-.2-.3.6-.62 1.3-.83 1.66.03-.13.07-.26.08-.4.07-.4-.03-.75-.26-1.05l.01-.01zm1-.02c.01-.04 0-.07.04-.18.02-.01.04-.01.06-.02-.04.07-.07.14-.1.2zm1.72-3.47c-.03-.04-.08-.08-.1-.12.06 0 .1-.01.17-.02a1.96 1.96 0 0 1-.06.14h-.01zm-2.68-7.8c.12-.22.32-.36.6-.42.77-.17 1.87.24 2.38.62a11.46 11.46 0 0 0 .52.3c.7.38 2 1.1 2.17 1.74a.47.47 0 0 1-.06.4c-.36.67-.8 1.07-1.67.98-.64-.35-1.43-.63-2.24-.87-.75-.5-1.37-1.2-1.64-1.88-.14-.34-.17-.65-.07-.86l.01-.01zm-3.1 4.06V104c.2-.58 1.1-.78 2-.78.58 0 1.16.08 1.6.2l.18.05.57.16c.2.14.44.26.67.36.5.24 1.1.48 1.7.57.3.2.54.4.64.6.06.12.06.24 0 .38-.5 1.13-1.43 1.35-3.88.9-1.68-.2-2.97-1.02-3.4-1.7-.13-.27-.17-.5-.1-.72l.02.01zm-.14 9.52c-1.23-.07-2.27-.63-2.67-1.14-.1-.12-.2-.3-.16-.46v-.06c.01-.17.08-.3.2-.4.35-.3 1.03-.38 1.62-.38.22 0 .43.01.6.04l.33.04c.62.06 2.08.2 2.47.7.07.1.1.18.07.3-.14.96-.6 1.56-2.5 1.36h.04zm1.86-3.2c-1.83-.3-3.33-1.48-3.28-2.25.04-.27.2-.48.46-.65.64-.4 1.77-.4 2.34-.2a7.47 7.47 0 0 0 .66.1c.85.13 2.62.4 3.07 1.02a.42.42 0 0 1 .08.39c-.2 1.17-1.1 1.6-3.33 1.6h0zm-87.2 98.63c-.56-.53-.74-.6-.74-.4l-.4-1.88c-.01.02-.02.03-.02.01-.05.17-.1.32-.12.44-.02.08-.03.14-.05.2l-.03.17c0 .04.06-.1.13-.3.01.03.04.01.1-.13-.05.12-.1.25-.16.38-.03.05-.03.15-.1.16h-1.6c-1.06 0-1.92 0-2.03-.1l-8.87.23 1-3.45c.63-2.9 2.3-7.9 3.1-11.32l.5-1.28c.28-1.18.63-2.56 1.02-3.7l.01.08c.4-1.76 1.02-3.7 1.22-4.6l.01.08.58-2.12-.05.38.87-3.3c1.25 1.15 2.48 2.34 3.83 3.4 1.32 1.1 2.7 2.14 4.13 3.12-.18 1.1-.34 2.17-.45 3.23a2.4 2.4 0 0 0-.05.7l-.88 5.45s-1 6.6-1.3 10.77c-.07 1.04-.1 1.92-.07 2.52.01.13.02.26.04.4l.03.15c.01.07.04.2.07.27.07.17.1.13.14.14.03-.01.04-.04.05-.1-.03-.26.1-.44.18-.76.03-.08.06-.2.1-.3-.05.55-.07.88-.05.92.68 1.04 1.66 1.95 2.78 2.76a14.76 14.76 0 0 1-2.92-2.17v-.03zm29.9-68.1l.43.7c-.02-.01-.05-.02-.07-.03l-.36-.67zm.8 1.45l-.42-.77.42.77z"/><path d="M311.38 187.9c-1.63-.73-5.24-1.4-3.47-.44.93.46 1.15.4 2.78 1.32-.56-.23.12.12.73.45-.4-.2-.53-.25.26.22.12.04.3.13.47.2 0 .01.03.03.01.03 1.04.53.87.42.4.15.03 0-.01-.03-.14-.12l3.05 1.75 7.96 4.02c.26.2-.36-.07-1.12-.45l1.84.95c-.05.06-1.07-.5-1.64-.8 2.12 1.26 4.55 2.25 7.05 3.7l.56.22.15.1c.01-.03.6.22 1 .4.35.24-.12.16 1.2.76 1.03.55 3.07 1.14 4.53 1.46-.78-.2-.5-.2-.17-.12l1.63.44.05.1c-.26-.14 1.86.3 2.13.3.4.15-1.1-.14-1.3-.13l4.26.7c1.53.15-.26-.13.47-.1l4.2.48-.48-.14 5.73.6c2.36.06 3.96 1.23 5.1 2l2.45 1.7c1.1.54 1.1.4.53 0-.5-.36-1.4-1.2-2.25-1.94-.84-.75-1.68-1.3-1.68-1.3-.82-.55-1.7-.98-2.6-1.2-.44-.13-.94-.2-1.33-.23l-1.17-.12-4.46-.42c-2.96-.3-6.13-.55-10.38-1.5-1.85-.47-3.33-1-4.58-1.54-1.23-.55-2.3-1.2-3.4-1.78l-8-4.24-10.37-5.48z"/><g fill="#fff"><path d="M204.27 149.52l.02.1c.02-.01.02-.04-.02-.1zm15.27 21.5c.01 0 .01.01.02.01-.01-.01-.02-.01-.02-.01zm-14.3-17.36l-.03-.03.03.03z"/><path d="M202.72 148.9c.62 1.27.66 1.67 1.42 2.92.32.62.73 1.25 1.08 1.83.27.22.45.78.73 1.05l.01.16c.1.1.2.22.23.35h-.02c.15.14.23.35.3.42h-.02l.13.2-.05-.02c.23.26.42.57.56.85l.06-.07c.26.62.54.74.77 1.3h-.02c.6.52.5 1.1 1.13 1.64-.08-.07-.01.06-.04.06.22.3.45.6.6.5.14.22.07.2.04.27.06-.04.2.13.33.3l-.08-.06.36.47.05-.18c.15.28-.1.16.1.4l.1-.07c.23.37.23.68.4 1.07.98 1.44 2.4 2.75 3.3 4.1l-.02.1c-.08.1.43.22.38.34l.17.1c.02.05.07.16-.01.1.1.13.13.12.24.2l.06.2c.4.56.9.9 1.35 1.46.45.76 1.64 1.88 2.34 2.52 1.03.85 1.7 2.33 2.77 3.17.02.04.12.1.13.1l.84.9s1.02 1.1 1.76 1.68c.75.58 1.16.66-.03-1.34h.04c-.42-.53-.7-.85-1.12-1.1.07-.17-.37-.4-.43-.57h.02c-.38-.2-.5-.7-.86-.9.02 0 .06-.02.13.04-.2-.2-.5-.46-.45-.54-.5-.5-1.1-1.23-1.52-1.45h.04c-.25-.1-.23-.23-.46-.4 0-.02-.01-.04 0-.04-.26-.13-.55-.58-.73-.72l.04-.06-.38-.4.12.16c-.18.07-.2-.4-.54-.6-.23-.3-.8-.3-.97-.66-.2-.08.2.03-.02-.13.07-.07.13.06.14-.05-.2-.17-.22-.4-.5-.6l.05-.06c-.4-.24-.46-.68-.75-.82-.34-.3-.03-.37-.44-.63l-.04-.2c-.12-.16-.2-.03-.3-.23.06-.03-.14-.25-.01-.2-.25-.45-.77-.68-1.06-1.3-.18-.03-.33-.33-.47-.36.03-.05-.4-.52-.08-.3.03.02.06.06.04.07l.08-.01c-.12-.38-.5-.47-.7-.78.05.1.14.2.04.17l-.2-.28.1.02-.28-.43-.02.1c-.12-.22-.07-.37-.32-.53-.12-.07.06.25-.12.05l-.6-1.1c-.05.08-.1-.01-.2-.1l.05-.05c-.35-.3.04-.23-.3-.55h.07l-.2-.01c-.35-.25 0-.26-.42-.53.1.14-.1.16-.18-.04h.1c-.08-.1-.13-.1-.16-.2.07.04.1-.03 0-.17l.14.05-.3-.2c-.08-.26-.4-.55-.36-.7 0 0-.26-.5-.43-.55.12.06-.02-.22.1-.2-.14-.08-.43-.4-.45-.6l.03.02c-.27-.58-.68-.86-.88-1.4-.06.07-.18-.22-.23-.1-.4-.45-.37-1.04-.77-1.05-.15-.22-.1-.32-.15-.45l.05.05-.54-.87c-.12-.14-.27-.1-.4-.4.1.06.03-.05-.03-.16.05.06.08.07.04-.1-.03-.01-.06-.04-.08-.06-.1-.18-.1-.14-.07-.05-.01 0-.02.01-.02.05-.04-.23-.3-.52-.22-.6l-.94-1.32c.02-.08.12.01.22.13l-.2-.32c.07-.04.14.16.2.26-.1-.45-.56-.74-.7-1.25l-.1-.06v-.03c-.03.02-.12-.06-.17-.13.03-.1.14-.07.02-.3-.04-.2-.3-.5-.46-.7.06.13 0 .1-.05.07-.06-.1-.03-.2-.1-.3l.08-.05c-.06.1-.24-.25-.3-.28.03-.1.15.15.2.15l-.37-.68c-.2-.2-.06.1-.2.01-.13-.2-.3-.4-.37-.66l-.03.12c-.27-.38-.38-.63-.44-.94-1.07-1.37-1.35-1.44-1.38-1.15-.02.3.22.93.22.93.45 1.35 1 1.86 1.8 3.25l-.04.04zm34.85 37.02v.04c.01-.01.02-.02 0-.04zm5.5 4.03h0zm-5.36-2.45h0z"/><path d="M236.67 186.6c.27.25.25.44.6.6.14.12.3.2.46.3.14-.05.2.13.33.1l-.01.08c.05-.01.1-.01.1.05l-.01.02c.07-.01.1.05.14.04h-.01l.05.03-.03.02c.1.01.18.06.23.12l.05-.07c.08.18.24.07.3.25l-.01.02c.3-.07.16.3.45.25-.04.01-.02.04-.03.06.1.03.18.08.28-.05.05.04.01.08-.02.13.04-.06.1-.05.15-.02l-.04.01.14.07.06-.13c.04.08-.1.15 0 .17l.07-.1c.08.08.02.27.06.4.33.3.9.34 1.1.76l-.04.08c-.07.1.2-.1.15.02h.07c0 .03.01.06-.03.07.03.03.05.01.1 0v.1c.1.15.32.12.45.25.08.26.5.4.75.46.13.01.15.05.15.12-.03.07-.08.12-.1.15a.41.41 0 0 0 .08.32c-.02.01.03.04.04.04l.02.32s.14 1.53 1.05.24h.03c.05-.18.05-.3-.1-.4.17-.04 0-.14.05-.2h.01c-.15-.1.08-.23-.05-.32.01 0 .06 0 .07.02-.03-.07-.08-.17.02-.18l-.1-.6c-.1-.06-.22-.1-.34-.1h.03c-.16.02-.12-.07-.25-.1 0-.01 0-.02.01-.03-.13.04-.18-.1-.25-.1l.04-.06-.12-.07.03.04c-.12.14-.02-.16-.17-.12-.06-.08-.38.2-.4.06-.1.04.12-.1.02-.08.05-.08.06-.03.1-.1-.08 0-.03-.15-.14-.14l.04-.06c-.17.04-.1-.2-.25-.14-.13-.02.07-.22-.1-.18l.02-.1c-.03-.04-.1.08-.12 0 .04-.05-.03-.08.03-.1-.04-.16-.3-.04-.33-.28-.1.08-.13-.03-.2.03.03-.05-.13-.1.01-.15.01 0 .02.01.01.02l.05-.05c0-.17-.2-.04-.25-.12.01.04.04.05-.01.08l-.07-.06.05-.04-.1-.1-.03.07c-.03-.07.03-.2-.1-.14-.06.03-.01.12-.08.1a1.41 1.41 0 0 0-.17-.32c-.04.08-.06.06-.1.05l.04-.06c-.16.01.06-.16-.08-.16l.04-.04-.12.1c-.17.06.05-.16-.17-.06.04.02-.08.15-.1.1l.05-.05c-.03-.01-.06.01-.07-.01.04-.02.07-.08.03-.1l.08-.05-.15.06c-.01-.1-.15-.1-.1-.2 0 0-.1-.13-.18-.06.06-.04.02-.1.08-.16-.08.04-.2.03-.2-.07h.01c-.08-.17-.3-.07-.35-.24-.05.07-.08-.01-.13.1-.2 0-.1-.35-.34-.1-.07-.03-.02-.1-.04-.15h.02c-.1-.03-.16-.08-.23-.14-.06 0-.16.12-.2.04.06-.03.02-.05 0-.07.02 0 .04-.01.03-.07-.02.01-.03.02-.04.02-.05-.02-.05 0-.04.02-.01.01-.01.02-.02.04 0-.1-.13-.1-.07-.18-.15-.08-.3-.05-.44-.1.02-.05.08-.08.12-.07l-.1-.04c.05-.06.07 0 .1 0-.01-.17-.27-.03-.3-.2l-.06.03c-.02.03-.07.05-.1.04.03-.07.1-.13.04-.17 0-.1-.14-.06-.22-.07.02.03-.01.06-.04.07-.03-.02 0-.1-.04-.08l.05-.08c-.04.08-.13.03-.16.05.03-.07.08-.02.1-.06l-.17-.1c-.1.02-.04.08-.12.13-.06-.02-.15-.01-.17-.1l-.03.08c-.13-.02-.18-.07-.2-.18-1.1.03-.7.64-.7.64.22.34.5.25.88.44l-.08-.05zm32.13-39.28v.08c.01 0 .01-.03-.02-.08h.02zm13.62 14.84c.01 0 .01 0 .02.01-.01-.01-.02-.01-.02-.01zm-12.67-11.66h0-.02.02z"/><path d="M267.35 147.17c.6.9.64 1.23 1.37 2.1.32.43.7.86 1.04 1.26.25.1.43.53.7.7l.02.13c.1.06.2.13.22.23h-.02c.14.08.22.23.3.27l-.02.01.12.14h-.04c.2.17.4.37.52.57l.05-.07c.26.45.5.48.72.9h-.02c.56.3.5.8 1.05 1.1-.07-.04-.01.05-.03.06.2.2.4.4.54.3.13.15.07.16.04.22.06-.05.2.06.3.17l-.07-.03.32.32.05-.16c.13.2-.1.16.1.3l.08-.08c.2.26.2.52.36.8.87 1.02 2.08 1.82 2.8 2.84l-.02.1c-.07.1.38.1.33.22l.14.06c.01.04.06.12-.01.1.1.1.1.08.2.12l.05.16c.33.4.76.6 1.14 1 .37.58 1.4 1.3 2 1.72.88.53 1.44 1.68 2.37 2.18.01.04.1.06.12.05l.72.62c-.01.03 3.6 2.86 1.5-.1l.04-.01c-.36-.37-.6-.6-.96-.7.07-.17-.32-.28-.37-.4h.02c-.33-.1-.43-.5-.73-.6.02 0 .05-.03.1.01-.18-.13-.44-.3-.38-.38-.42-.32-.94-.84-1.3-.94l.04-.01c-.2-.05-.2-.15-.4-.25 0-.02-.01-.03 0-.04-.23-.06-.47-.4-.62-.47l.04-.06-.32-.27.1.12c-.16.1-.15-.3-.46-.4-.2-.2-.68-.1-.83-.38-.16-.03.2-.02-.01-.1.06-.07.1.02.12-.07-.18-.1-.18-.3-.4-.43l.04-.06c-.34-.13-.38-.5-.63-.56-.3-.2-.01-.32-.37-.46l-.03-.17c-.1-.12-.16.01-.25-.14.05-.04-.12-.2 0-.16-.2-.34-.65-.45-.88-.92-.17.01-.3-.22-.4-.2.03-.05-.35-.37-.06-.25.02.01.05.04.04.06l.08-.03c-.1-.3-.42-.32-.6-.54.04.08.12.15.04.13l-.18-.2h.08l-.25-.3-.02.1c-.1-.16-.05-.3-.28-.4-.1-.03.05.2-.1.07-.14-.22-.34-.56-.55-.8-.04.08-.1.01-.17-.04l.05-.06c-.3-.18.04-.2-.26-.4l.06-.01-.18.04c-.32-.13 0-.23-.38-.35.1.1-.08.16-.17.01l.08-.02c-.07-.06-.12-.06-.15-.12.07.02.1-.05 0-.14h.13l-.27-.1c-.08-.2-.36-.37-.33-.5 0 0-.25-.36-.4-.36.1.02-.03-.18.08-.18-.13-.03-.4-.24-.42-.4v.01c-.25-.42-.63-.56-.83-.96-.05.07-.17-.14-.2-.02-.38-.28-.35-.78-.72-.7-.15-.15-.1-.24-.15-.33l.04.03a5.84 5.84 0 0 1-.51-.59c-.12-.1-.25-.01-.38-.23.1.03.03-.05-.03-.12.05.04.08.04.03-.08-.03 0-.05-.02-.08-.03-.1-.12-.1-.1-.07-.02-.01 0-.02.02-.02.04-.04-.18-.3-.36-.22-.44-.3-.36-.62-.56-.9-.86.02-.07.1-.02.2.05l-.2-.2c.07-.05.13.1.2.16-.1-.35-.53-.48-.66-.87l-.1-.03-.01-.03c-.03.02-.12-.02-.16-.06.02-.1.13-.1.01-.25-.04-.16-.3-.34-.43-.48.05.1 0 .1-.05.07-.06-.08-.03-.16-.1-.2l.07-.06c-.05.08-.23-.15-.28-.16.02-.1.14.1.2.08l-.35-.47c-.18-.13-.05.08-.18.05-.12-.14-.28-.25-.35-.46l-.03.1c-.25-.25-.36-.43-.42-.67-1-.9-1.25-.93-1.3-.68-.02.25.2.73.2.73.43.96.94 1.27 1.7 2.24l.01-.03zm-106.1 91.55l.22.03c0-.01-.06-.03-.22-.03zm50.76-12.4c.01-.02.01-.03.02-.05-.02.04-.02.05-.02.05zm-42.2 13.58h0c-.03 0-.05.01-.07.01h.07z"/><path d="M158.56 239.8l6.8.14 4.44-.04c.68-.13 1.87 0 2.67-.1l.3.07c.28-.04.6-.06.88-.02l-.02.02c.4-.05.88-.02 1.08-.05v.02l.5-.01-.1.03a18.4 18.4 0 0 1 2.1-.04l-.05-.1c1.4.1 1.9-.08 3.17.03l-.02.02c1.6-.23 2.52.16 4.16-.06-.2.03.1.04.07.07.76-.02 1.56-.04 1.58-.2.55 0 .45.05.52.12 0-.07.48-.1.9-.1l-.2.03 1.23-.03-.24-.14c.65.04.16.18.8.12l-.01-.12c.9-.02 1.45.13 2.34.18 3.7-.2 7.56-1.3 10.76-2.6l.17.01c.12.08.76-.62.93-.58l.33-.24c.1-.03.33-.13.17-.01.33-.17.33-.2.54-.36.13-.04.26-.08.38-.14.62-.4 1.17-.8 1.72-1.23s1.02-.95 1.62-1.44c.4-.26.8-.66 1.2-1.13.42-.46.9-.94 1.28-1.5s.82-1.1 1.12-1.66l.85-1.5c1.22-2.5 2.8-5.45 3.35-8.26a.96.96 0 0 0 .06-.33l.7-2.5s.85-3.04 1.25-4.95c.4-1.92.35-2.7-1.43 1.77l-.01-.07c-.44 1.35-.7 2.2-.8 3.18-.2.1-.32 1.12-.47 1.42v-.03c-.1.87-.6 1.7-.7 2.5 0-.03-.04-.07.01-.25-.14.6-.37 1.38-.48 1.4-.2.7-.52 1.48-.78 2.23-.3.73-.56 1.4-.7 1.85v-.07c-.14.5-.3.6-.5 1.15-.03.02-.05.06-.05.05-.14.57-.84 1.43-1.03 1.85h-.07c-.18.33-.4.63-.63.93l.26-.33c.06.22-.6.62-1 1.34-.5.57-.76 1.4-1.36 1.95-.2.33.14-.33-.22.1-.08-.06.16-.22-.01-.18-.4.4-.75.53-1.22 1.04l-.07-.04c-.56.74-1.4.93-1.8 1.4-.73.57-.6.2-1.37.78l-.38.1c-.37.18-.2.25-.62.42 0-.07-.53.23-.32.05-.46.22-.94.42-1.45.66-.5.23-1.07.47-1.73.64-.25.2-.93.3-1.12.44-.05-.04-1.33.34-.6.03.06-.03.17-.05.17-.03l.07-.1c-.78.04-1.32.5-2.1.54.23-.01.53-.06.34.02l-.7.1.14-.08-1.06.12.16.05c-.52.04-.72-.06-1.28.13-.26.1.5.03-.04.13-.7.05-1.75-.03-2.64 0 .1.08-.15.1-.4.12l-.03-.07c-.94.14-.34-.14-1.3-.03l.08-.05-.25.16c-.86.15-.46-.15-1.42.05.38-.01.18.16-.3.13l.12-.07c-.26.02-.34.05-.5.03.15-.04.08-.1-.3-.1l.25-.1-.7.13c-.55-.08-1.43.02-1.65-.08 0 0-1.2-.05-1.46.06.24-.07-.42-.1-.23-.18-.3.08-1.22.14-1.58.06l.07-.01c-1.35-.1-2.3.12-3.5.01.06.1-.58.04-.42.15-1.25.1-2.28-.23-2.73.12-.57.02-.67-.08-.97-.1h.14c-.72.03-1.44.03-2.16.02-.4.03-.46.2-1.16.15.23-.06-.06-.05-.32-.05.17-.01.22-.03-.13-.08-.05.02-.12.03-.2.04 0 0-.02-.01-.01-.02-.44.02-.36.04-.16.05-.01.01.01.02.07.04-.46-.08-1.28.01-1.33-.1-1.33.03-2.28.14-3.38.18-.12-.06.13-.1.45-.13h-.78c.01-.08.45-.05.7-.06-.93-.13-1.92.13-3.02.01l-.23.06-.07-.01c0 .03-.24.08-.4.1-.15-.07.01-.16-.53-.16-.43-.07-1.22.03-1.78.07.3.01.2.05.07.08-.27 0-.43-.07-.64-.04l-.03-.1c.1.1-.7.1-.8.13-.15-.07.42-.06.5-.1l-1.63.01c-.58.07.1.1-.17.17-.5.02-1 .08-1.6.03l.2.08c-.96.07-1.54.06-2.18-.03-7.16.68-1.5.93-1.5.93 2.82.24 4.28-.01 7.63-.07l-.07-.04zm75.02-28.4v.06c.01-.01.01-.03 0-.06zm.52 2.1h0z"/><path d="M232.38 211.66c.37.54.38.8.92 1.23.24.23.52.43.8.6.2-.01.34.24.54.26l.02.1c.07.01.14.02.18.1l-.01.02c.1 0 .18.08.23.08l-.01.02.1.05-.03.02c.17.03.3.1.42.2l.03-.08c.23.22.4.1.6.33h-.01c.4-.05.44.37.85.3-.05.01 0 .05-.01.07.16.04.33.1.4-.07.1.04.07.1.06.15.02-.07.13-.06.22-.04l-.05.02.26.05-.01-.15c.12.08-.02.17.12.18l.03-.1c.18.08.23.28.4.42.75.25 1.63.1 2.28.43l.02.1c-.01.13.22-.16.23-.03l.1-.04c.02.03.06.06.02.08.07.02.08 0 .14-.03l.07.1c.3.1.56-.01.87.07.35.2 1.1.16 1.5.1.6-.13 1.23.44 1.85.24.02.02.07-.02.07-.04l.56.02s.7.01 1.15-.23c.1-.06.2-.13.27-.22.07-.1.1-.2.01-.23-.18-.04-.38-.16-.87-.38v-.03c-.27-.04-.44-.05-.63.1-.03-.17-.23-.01-.3-.07l.01-.01c-.18.13-.35-.12-.52-.01.01-.01.01-.06.05-.06-.12.01-.3.04-.3-.06-.3.01-.7-.08-.9.07v-.03c-.12.1-.14 0-.27.04-.01-.01-.01-.02-.01-.03-.13.1-.34-.02-.44.01v-.07h-.24l.1.03c-.05.18-.16-.14-.35-.04-.16-.04-.37.34-.53.22-.1.07.1-.13-.04-.08.01-.1.06-.05.04-.13-.12.03-.18-.12-.33-.08v-.07c-.2.1-.34-.15-.48-.04-.2.03-.1-.24-.32-.12l-.06-.1c-.08-.03-.08.1-.17.05.02-.06-.1-.07-.05-.12-.2-.13-.46.07-.7-.15-.08.1-.2.02-.27.1 0-.05-.27-.07-.1-.15.01-.01.04 0 .03.02l.03-.07c-.13-.17-.3.01-.44-.04.04.03.1.04.05.08l-.14-.04.04-.05-.2-.08.01.08c-.1-.06-.1-.2-.24-.1-.07.05.07.12-.04.12-.13-.07-.3-.22-.47-.3-.01.1-.05.07-.1.07v-.07c-.2.05-.02-.18-.22-.15l.03-.04-.1.13c-.2.1-.04-.17-.28-.04.08.01-.02.17-.1.1l.05-.06c-.05 0-.08.02-.1-.01.04-.03.05-.1-.02-.1l.08-.07-.18.07c-.07-.1-.27-.08-.27-.2 0 0-.2-.13-.3-.05.07-.05-.04-.12.03-.18-.1.05-.27.03-.3-.08h.02c-.2-.2-.46-.1-.62-.3-.03.08-.12-.02-.14.1-.27-.03-.27-.42-.52-.18-.1-.04-.07-.14-.1-.18h.03a1.4 1.4 0 0 1-.36-.23c-.08-.02-.2.1-.28-.01.08-.02.02-.05-.02-.08.03.01.06 0 .03-.07-.02.01-.04.01-.06.01-.07-.05-.07-.02-.05.01-.01.01-.01.02-.01.04-.02-.12-.2-.16-.14-.25-.2-.15-.44-.18-.62-.32.02-.06.1-.06.15-.03l-.12-.1c.06-.06.1.03.14.05-.03-.22-.37-.17-.42-.42l-.08.01v-.02c-.02.02-.1.02-.12 0 .03-.07.12-.1.05-.18 0-.1-.18-.16-.27-.23.03.05-.02.06-.05.06-.03-.04 0-.1-.04-.12l.07-.06c-.06.07-.16-.05-.2-.05.04-.06.1.03.15.01l-.2-.25c-.12-.06-.06.07-.16.07-.07-.08-.18-.13-.2-.26l-.05.08c-.15-.14-.2-.25-.2-.4-.62-.5-.84-.6-.96-.43-.1.2-.03.53-.03.53.1.64.5.83 1 1.4l.01-.03zM200.3 109.1l.15-.1c-.02-.01-.06.01-.15.1zm40.72-5.1c.01.01.02.01.04.02-.03-.01-.04-.02-.04-.02zm-34.78 1.5h-.01l-.03.04z"/><path d="M199.57 111.4l3.96-3.64 2.7-2.24c.36-.42 1.17-.9 1.65-1.32l.25-.07c.16-.15.36-.3.57-.4v.03c.24-.22.57-.4.7-.5v.03l.33-.22-.04.06c.46-.34.98-.6 1.44-.83l-.08-.06c1-.44 1.28-.8 2.26-1.07v.02c1.07-.7 1.87-.66 3.04-1.2-.15.07.08.02.07.05.56-.2 1.16-.4 1.13-.57.42-.13.35-.05.42 0-.02-.07.34-.17.68-.24l-.15.06.95-.2-.2-.1c.52-.05.16.15.64.02l-.03-.1c.7-.1 1.14-.03 1.84.05l2.16-.13c.73-.02 1.46.04 2.2.06l1.1.05 1.06.2 2 .47.1.12c.01.14.75.04.8.18l.3.04c.08.05.24.13.1.1.27.1.28.07.5.1l.27.17c.54.17 1 .4 1.5.58l1.54.63c.58.43 1.5.9 2.4 1.43l2.43 1.56c1.9 1.17 3.34 3.36 4.96 4.9.03.07.2.2.2.17l1.27 1.6.85 1.16 1.5 2.13c.45.63.76 1.06.83.88s-.1-1-.94-2.77l.05.03c-.6-1-1-1.6-1.6-2.15.06-.2-.55-.77-.7-1l.03.01c-.56-.45-.84-1.2-1.4-1.6.03.01.07-.01.18.1-.36-.35-.85-.8-.8-.9l-1.4-1.36c-.5-.43-.94-.84-1.3-1l.06.01c-.4-.2-.45-.34-.86-.6-.01-.03-.03-.05-.03-.05-.43-.22-1.08-.85-1.43-1l.02-.07-.78-.52.28.2c-.2.1-.52-.5-1.15-.77-.55-.33-1.3-.3-1.84-.7-.3-.08.3.01-.13-.16.03-.1.22.05.15-.07-.42-.2-.62-.45-1.18-.6l.01-.08c-.74-.17-1.25-.65-1.76-.73-.74-.2-.42-.37-1.23-.48l-.27-.2c-.32-.12-.27.04-.62-.12.04-.05-.45-.2-.22-.18-.8-.38-1.75-.23-2.83-.63-.26.08-.8-.1-1-.01-.02-.06-1.14-.1-.5-.16.06-.01.15 0 .14.02l.08-.07c-.64-.18-1.2-.01-1.83-.07.2.04.44.05.27.1l-.6-.05.13-.05c-.3-.02-.6-.1-.9-.07l.12.07c-.43-.02-.6-.14-1.08 0-.22.07.42.08-.04.13l-2.2-.01c.08.07-.12.1-.32.16l-.03-.07c-.76.25-.3-.1-1.07.1l.06-.06-.18.2c-.67.27-.4-.08-1.14.26.3-.07.18.13-.2.17l.08-.1c-.2.05-.26.1-.4.13.1-.07.04-.12-.26-.02l.18-.15-.53.3c-.45.06-1.1.36-1.32.32l-.5.14c-.26.07-.54.2-.62.3.16-.14-.35.04-.24-.1-.2.17-.86.52-1.17.56l.05-.03c-.52.18-.95.38-1.35.6-.4.24-.77.47-1.23.66.08.06-.4.26-.23.3-.85.55-1.73.73-1.85 1.22-.38.27-.5.23-.7.34l.08-.07-1.45 1c-.24.22-.18.38-.67.7.1-.16-.07-.01-.24.12.1-.1.12-.13-.13 0-.02.04-.06.1-.1.13 0 0-.02 0-.02-.01-.27.23-.2.2-.07.12 0 .01.02.01.07 0-.35.16-.82.63-.92.58l-1.97 1.92c-.1.03 0-.16.2-.34-.16.14-.3.3-.45.45-.05-.06.23-.3.37-.43-.64.42-1.05 1.16-1.78 1.68l-.1.17-.04.03c.03.02-.08.2-.16.3-.14.04-.1-.12-.4.2-.3.2-.66.73-.95 1.08.18-.17.15-.08.1.01-.15.16-.3.2-.38.35l-.08-.05c.12 0-.3.5-.34.58-.14.05.18-.3.18-.37l-.87 1c-.26.4.12 0 .04.22-.26.32-.46.68-.8 1l.16-.06c-.45.63-.74 1-1.13 1.35-1.5 2.5-1.36 2.9-1.03 2.64.34-.25 1.05-1.1 1.05-1.1l3.77-4.77z"/></g></svg>