<svg xmlns="http://www.w3.org/2000/svg" viewBox="0 0 480 480" xmlns:v="https://vecta.io/nano"><path d="M202.65 207.38l.87.05c-.01-.03-.23-.05-.87-.05zm-21.22-61.86c-.03.06-.06.12-.08.2l.08-.2zm53.5 59.22c-.01.02-.01.03-.01.04a1.74 1.74 0 0 0-.05.22l.06-.26z"/><path d="M362.3 207.84c-1.9-1.1-4.07-4-7.42-4.3-9.2-.88-16.5-1.65-21.8-4.15-3-1.5-10.35 9.8.65 12.6 1.64.4 3.3 1.23 5.56 1.56 1.9-3.77 5.82-6.36 10.34-6.36a11.6 11.6 0 0 1 11.6 11.6c0 .08-.01.17-.01.25s.01.17.01.25c0 1.1-.25 2.2-.55 3.3.1.2.25.4.45.5 1.8.85 2.5-2.54 2.97-6.13s.7-7.36-1.8-9.1v-.02z" fill="#fff"/><path d="M348.16 203.28l-.27-.07c0 .02.07.04.27.07zm-10.38-3c.04 0 .06.01.08.01l-.08-.01z"/><path d="M327.9 195.04l-4.45 14.13c-.07.63.13 1.16.67 1.4l8.14 2.42c.63.07 1.16-.13 1.4-.67l4.5-13.77c.07-.63-.13-1.16-.67-1.4l-8.07-2.83c-.72-.1-1.3.17-1.54.72h.02z" fill="#fff"/><path d="M326.3 202.5l-.1.1c.03.01.06-.01.1-.1zm11.05-4.53h-.02.02zm-14.52 9h0v-.05.05zM226.28 98h0zm34.6 35.6l.02-.04c-.02-.01-.03 0-.02.04zm-43.58 32.42h0l.26.27-.26-.27zm91.2 41.3l.16-.3c-.03 0-.08.08-.16.3zm-18.6-5.2v.08c.01-.05.01-.07.01-.08h-.01zm24.36-6.88h0l-.02.1.02-.1z"/><path d="M364.97 213.2c0-1.33-.24-3.07-1-4.22-.36-.57-.8-.96-1.1-1.16s-.48-.24-.44-.12c.03.14.32.4.7 1 .36.6.74 1.6.78 3.03l-.04-.07c.12 1.7-.03 2.8 0 4.03-.2.17-.2 1.44-.3 1.85l-.01-.04c-.02 1.1-.45 2.18-.6 3.17 0-.04-.04-.07.01-.3-.14.73-.48 1.64-.6 1.6-.17.35-.44.6-.6.63-.1-.01-.24-.03-.28-.06-.04-.04-.13-.1-.1-.18l.13-.6.13-.7c.07-.45.1-.85.07-1.16v.1c-.06-.72.02-.9-.06-1.67.01-.04.01-.1.02-.1-.1-.75-.28-2.18-.5-2.76l.05-.06c-.13-.48-.33-.95-.5-1.4l.2.53c-.23-.1-.3-1.12-.97-2-.5-.9-1.5-1.45-2.14-2.23-.42-.27.42.2-.17-.26.05-.1.3.2.2 0-.56-.47-.85-.87-1.64-1.34v-.08c-1.06-.54-1.95-1.14-2.75-1.3-.6-.17-.78-.24-.98-.35-.2-.1-.4-.2-1.06-.2l-.48-.18c-.55-.05-.4.1-1 .02.04-.08-.78-.05-.42-.12-1.4-.06-2.82.37-4.56.92-.33.25-1.18.6-1.38.85-.1-.05-1.54 1-.75.33.07-.06.2-.15.2-.12l.06-.13c-.97.46-1.5 1.2-2.24 1.92.23-.2.5-.5.36-.27l-.67.7.08-.2c-.33.35-.64.72-.93 1.1l.18-.1-.54.64c-.08.1-.16.2-.23.33-.02.05-.1.18-.08.17v.07c-.01.14.17-.1.08.13-.03.1-.15-.01-.2-.02l-.75-.2-1.63-.56c.07.1-.2.02-.52-.07v-.08c-.88-.2-.66-.28-.98-.42.48-1.74.82-3.56 1.6-5.03l.17-.04c.22.03-.12-.65.1-.66l-.02-.26c.06-.05.14-.18.15-.05.08-.2.05-.23.04-.4l.2-.2c.38-.8.37-1.6.7-2.5.13-.2.25-.48.36-.77.5.1.4.06.17-.01.01-.01 0-.02-.08-.06.55.22 1.58.37 1.63.48 1.66.33 2.87.4 4.25.57.15.08-.18.08-.6.04l.98.12c-.02.08-.57-.03-.88-.06 1.15.3 2.43.22 3.8.5l.3-.03.08.02c0-.03.3-.04.52-.03.2.1-.03.16.65.23.53.13 1.53.13 2.24.16-.38-.05-.25-.08-.1-.08.34.03.53.12.8.12l.02.1c-.12-.1.9-.01 1.03-.03.2.1-.53.01-.62.05l2.05.2c.73 0-.12-.1.23-.15.63.05 1.24.1 1.9.4l-.2-.15c1.14.35 1.75.8 2.36 1.32 3.7 2.62 4.3 2.45 3.8 2.02l-1.73-1.57c-1.3-1.2-2.52-2.1-4.02-2.6-.38-.13-.77-.22-1.2-.3l-1.25-.1-2.78-.2-8.43-1.2-4.6-.9c.01-.04.02-.08.04-.13l.28-1.18c.03-.13.15-.53.1-.8-.01-.3-.07-.52-.16-.75-.2-.47-.6-.93-1.08-1.14l-.06-.02c-1.38-.5-2.7-1.52-4.16-1.7-.04-.05-.2-.03-.2-.01l-1.5-.56-1.07-.36c-.01 0-.02 0-.02-.01a18.82 18.82 0 0 0-.42-4.5c-.8-3.5-2.64-6.72-5.15-9.03-.3-.32-1.14-1.03-1.17-.98-1.53-1.3-3.27-2.32-5.17-3.03l-5.34-2.02-20.9-8.1c-3.98-1.58-6.66-2.8-6.14-2.25.17.17.7.53 1.63 1.08-.65-.3-1.23-.6-1.75-.85-2.65-1.35-4.94-2.88-7-4.6a44.31 44.31 0 0 0 2.1 1.5c1.97 1.25 3.42 1.96 4.4 2.35 1.93.8 1.9.57.92-.05-.93-.63-2.7-1.7-4.13-2.77s-2.55-2.06-2.55-2.06c-2.23-2-3.96-4-5.5-5.98s-2.86-3.96-4.17-6.06c-2.6-4.2-5.23-8.82-8.84-15.28-3.1-5.72-5.1-9.34-7.34-12.93-1.12-1.8-2.38-3.56-3.88-5.5-1.54-1.92-3.33-4.07-5.85-6.46-2.37-2.3-5.14-4.42-8.26-5.96-3.1-1.55-6.62-2.4-9.96-2.3-.8-.01-1.72.18-2.74.32-.68.05-1.37.23-2.07.42-2.03.23-4 .7-5.86 1.35l-.62.1c-.15-.03-1.05.34-1.88.9-.84.53-1.7 1.07-1.97 1.1l-1.3.94c-.4.2-1.2.7-.57.22-.63.4-.92.62-1.17.84l-.85.74-1.33.86c-4.47 3.7-7.47 7.62-11.03 12.44-2.24 2.84-5.03 7.24-7.58 11.84-2.5 4.63-4.82 9.42-6.46 12.94-4.54 9.93-10.74 21.03-15.1 31.32-.1.16-.22.46-.32.72s-.18.48-.17.48l-4.3 9.28s-5.18 11.26-7.94 18.46l-.7 1.9-.1.3c-.04.12-.08.23-.1.35-.27 1.02.16 1.98.72 2.42.56.47 1.13.5 1.4.46s.28-.1.13-.16c-.17-.07-.63-.13-1.1-.6-.12-.12-.23-.27-.3-.45.3.47.8.8 1.4.8l7.4-.03c-18.43 1 .2 1.28.2 1.28 11.1.27 16.85-.16 30.07-.32 11.63.03 14.7.3 26.76.13l8.8-.05 5.84-.06c.12-.08.12-.3.2-.45l.15-.48.45-1.48.6-2.05c.58-2.62 2.1-7.08 2.8-10.17l.3-.78 1.78 1.46c6.44 5.2 13.62 9.07 20.38 12.34l.54.4c.18.32 3.95 1.3 4.4 1.72l1.67.53c.44.2 1.4.6.57.35 1.5.57 1.55.58 2.67.9l1.6.68c6 2.14 11.3 3.33 17.83 4.82 3.9 1 9.57 2.1 15.5 2.72 5.97.58 12.28-.67 16.1-3.27 1.7-1.13 3.28-2.65 4.4-4.5.4.1.73.1 1.2.37l-.02.03c1.06-.1 1.42.7 2.5.64-.13.01.03.1.01.12.46.1.95.22 1.04-.05.33.1.24.16.25.28.03-.12.33-.1.6-.02l-.13.01.74.18-.08-.27c.38.18-.01.3.43.37l.04-.2c.38.1.67.17 1 .2.43.03.86-.1 1.2-.4a1.96 1.96 0 0 0 .36-.54l.02-.04.01-.03c.03.01.05.02.1.03l.03-.1c1.06.37 1.63.8 2.7 1.17.62.17.98.26 2.15.44.28-.3.55-.96.65-1.1l.45-.7c.63-.92 1.4-1.75 2.28-2.44 1.74-1.4 3.93-2.18 5.96-2.2l.18.08c.04.07.32 0 .6-.05.3-.03.6-.07.67-.01.16-.01.32-.03.48-.03.13.04.4.1.17.1.43.07.44.05.76.06.15.04.3.12.44.18 1.63.47 3.04 1 4.45 2.14.78.76 1.86 1.9 2.64 3.3.8 1.38 1.24 2.95 1.4 4.13.08.82.16 1.74.02 2.6-.07.45-.16.9-.3 1.32l-.23.8-.04.27c.03.1.08.17.12.25a1.89 1.89 0 0 0 .34.46c.14.14.32.22.52.3.15.07.33.1.52.1.18.03.37-.04.56-.08.17-.07.33-.16.47-.26.52-.43.77-.93.97-1.4.4-.95.57-1.9.7-2.8a1.43 1.43 0 0 0 .04-.42c.18-1.1.34-2.17.45-3.27.01.06.14-.93.13-2.28l-.01-.03zM299 169.52s6.18 1.9 9.37 3.38c4.04 1.78 9.63 3.9 9.63 3.9s0 .04-.02.1l-19-7.34.02-.04zm-4.4 47.63c2.44.46 4.82.85 7.14 1.18l-3.13-.34-4-.84zm38.75-6.97l-.07-.12-.27.62.15-.05c-.16.3-.4.33-.35.74.04.2.26-.24.2.1l-.3.54.04-.1c-.04.04-.1-.01-.07.01-.03-.04-.03-.07-.07-.06.05.14.01.14-.05.18l-.02-.12c-.1.1-.1.02-.08-.06 0-.04.02-.07.01-.1-.05-.04-.13-.06-.28-.07l-.15.14c-.58.08-.2-.33-.87-.18.23.05.03.3-.23.16l.1-.1c-.16-.02-.23.01-.32-.04.1-.04.1-.15-.13-.2l.2-.1-.5.1c-.3-.22-.86-.22-.94-.42 0 0-.68-.3-.9-.16.17-.07-.2-.23-.05-.32-.22.07-.8.01-.97-.2h.04c-.37-.18-.7-.24-1.04-.3.13-.35.26-.7.35-1.06l2.76-9.08a20.06 20.06 0 0 0 1.07-4.25c.27.08.54.12.82.1 0 .3.67.27.84.42l-.03.02c.58-.03.98.54 1.54.52-.03.01-.06.1-.18.05.37.1.88.2.85.37.86.26 2.02.75 2.66.68l-.05.03c.08-.01.14-.01.2-.01.04.02.06.06.14.08-.01.02-.02.03-.03.04.1 0 .17.13.17.3s-.03.2-.06.4l-.1-.02-.2.7.1-.25c.26.18-.35.45-.32 1-.2.45.3 1.13 0 1.56.06.27-.16-.27-.16.1-.16-.04-.04-.2-.2-.14-.04.36-.33.5-.37.94l-.12-.02c.04.6-.5.96-.4 1.4-.08.6-.47.26-.43.9l-.23.17c-.1.24.14.24-.03.5-.1-.05-.2.32-.24.13-.36.57-.2 1.33-.72 2.06.14.24-.1.6-.01.8-.1-.01-.28.82-.32.3 0-.04.02-.1.06-.1l-.1-.1c-.37.4-.16.9-.34 1.34.08-.12.13-.3.17-.16l-.16.4-.01-.02z"/><g fill="#fff"><path d="M209.27 149.06l.03.15c.01 0 .01-.04-.03-.15zm19.7 33.2c.01.01.02.01.03.02-.02-.01-.03-.02-.03-.02zM210.63 155h0l-.03-.03.03.03z"/><path d="M207.54 147.77c.76 1.92.83 2.5 1.76 4.42l1.32 2.8c.32.38.56 1.2.9 1.65l.03.23c.1.16.24.35.28.54h-.02c.17.24.3.54.37.66h-.02l.16.3-.05-.04c.27.43.5.9.68 1.32l.06-.07c.35.92.67 1.16.96 2h-.02c.7.9.67 1.64 1.4 2.56-.1-.1-.01.08-.04.07.26.46.55.95.7.88.18.34.1.3.07.38.06-.04.25.24.4.5l-.1-.1.43.75.04-.22c.18.42-.1.18.14.55l.1-.06c.3.56.3.97.54 1.55 1.17 2.27 2.96 4.42 4.2 6.44v.14c-.08.1.55.4.5.55l.2.2c.03.08.1.22 0 .13.15.2.17.2.3.32l.1.27c.56.84 1.22 1.4 1.84 2.27.67 1.1 2.3 2.85 3.26 3.85 1.4 1.35 2.48 3.4 3.96 4.73.05.07.1.12.18.15l1.2 1.36 2.48 2.56c1.02.9 1.55 1.13-.3-1.68l.05.01c-.62-.77-1.02-1.25-1.58-1.66.06-.2-.53-.62-.64-.83l.03.01c-.5-.36-.74-1-1.22-1.36.02.01.07-.01.16.08-.3-.3-.7-.7-.65-.8l-2.1-2.23.05.02c-.32-.2-.32-.35-.63-.63 0-.03-.02-.05-.01-.05-.34-.24-.77-.9-1-1.1l.04-.06-.52-.6.18.24c-.2.04-.3-.54-.76-.9-.32-.44-1-.62-1.28-1.1-.24-.16.26.1-.05-.17.07-.07.17.1.16-.02-.3-.28-.33-.57-.68-.9l.05-.06c-.5-.42-.66-1-1.02-1.26-.44-.5-.1-.48-.6-.94l-.08-.27c-.16-.24-.22-.1-.38-.38.06-.02-.2-.36-.04-.24-.35-.65-.98-1.12-1.4-2-.22-.1-.42-.55-.6-.62.03-.05-.53-.8-.13-.42.03.03.08.1.06.1h.1c-.2-.53-.62-.78-.88-1.25.06.15.18.33.06.23l-.25-.43.1.06-.36-.65v.13c-.16-.33-.1-.5-.4-.8-.14-.13.08.36-.13.03l-.78-1.7c-.05.1-.13-.06-.23-.2l.06-.05c-.42-.53.02-.3-.36-.83l.07.03-.22-.08c-.4-.46-.02-.36-.5-.85.14.23-.1.2-.2-.1l.1.04c-.1-.15-.15-.2-.2-.3.08.08.12 0-.02-.23l.16.1-.35-.38c-.12-.37-.48-.87-.46-1.06 0 0-.34-.76-.52-.87.14.12-.05-.3.08-.22-.17-.15-.52-.68-.55-.95l.03.04c-.34-.88-.82-1.38-1.1-2.18-.06.07-.22-.35-.27-.2-.48-.74-.5-1.53-.93-1.66-.2-.35-.13-.46-.2-.65l.06.08-.66-1.35c-.15-.23-.3-.2-.48-.67.12.12.03-.06-.05-.23.06.1.1.13.03-.1-.03-.02-.06-.07-.1-.1-.14-.28-.13-.22-.08-.1-.01 0-.02.01-.02.06-.06-.32-.37-.8-.3-.9l-1.13-2.08c.02-.1.13.04.24.24l-.24-.5c.08-.03.17.27.25.42-.14-.65-.66-1.17-.85-1.92l-.12-.12v-.05c-.03.02-.14-.12-.2-.22.02-.13.15-.06 0-.4-.06-.3-.36-.77-.55-1.1.07.2.01.15-.05.08-.08-.17-.05-.3-.14-.42l.08-.05c-.05.1-.28-.42-.34-.47.02-.13.17.25.24.27l-.45-1.04c-.22-.35-.05.1-.2-.05-.15-.32-.35-.62-.45-1.02l-.03.15c-.3-.6-.45-.97-.54-1.43-1.23-2.2-1.52-2.38-1.54-2-.01.4.3 1.34.3 1.34.53 1.86 1.14 2.72 2.1 4.86l-.05-.02zm-40.84 60.6l.2.04c-.01-.02-.05-.03-.2-.04zm49.9.42c.02 0 .03 0 .05-.01-.04 0-.05 0-.05.01zm-42.24.82h0c-.03 0-.05 0-.06.01l.06-.01z"/><path d="M164.3 209.42l6.07.2h3.97c.6-.12 1.67.01 2.4-.1l.28.07c.25-.03.54-.06.78-.02l-.02.02c.37-.05.78-.02.97-.04l-.02.02.45-.01-.08.03a14.9 14.9 0 0 1 1.89-.02l-.05-.1c1.25.1 1.7-.07 2.83.06l-.02.02c1.43-.22 2.25.18 3.72-.03-.18.03.08.05.06.07.68-.02 1.4-.03 1.4-.2.5.01.4.06.46.12 0-.08.43-.1.8-.1l-.18.03 1.1-.02-.22-.14c.58.05.15.17.7.14l-.01-.12c.8.03 1.28.2 2.06.3l9.77.04.13.1c.06.13.84-.18.95-.06l.35-.06c.1.02.3.05.13.08.33.01.33-.01.57-.05l.35.08c1.28.07 2.38-.07 3.73-.03 1.62.18 4.68.05 6.44-.02 2.48-.17 5.35.37 7.88.17a.7.7 0 0 0 .29-.03l2.32.04s11.24.15 2.7-1l.06-.03c-1.27-.08-2.07-.1-2.94.03-.14-.17-1.04-.03-1.34-.1l.03-.01c-.78.13-1.6-.12-2.34-.01.03-.01.05-.06.22-.06-.54.02-1.3.05-1.33-.05-1.3.02-3.1-.05-3.94.1l.06-.03c-.48.1-.6.01-1.14.06-.03-.01-.07-.02-.06-.03-.52.1-1.5 0-1.92.05l-.03-.07-1.03.01.38.02c-.13.18-.78-.12-1.52-.01-.7-.03-1.42.37-2.14.27-.35.08.3-.14-.2-.08-.02-.1.24-.06.1-.14-.5.04-.83-.1-1.46-.05v-.07c-.82.13-1.54-.1-2.08.01-.84.05-.56-.23-1.44-.1l-.34-.1c-.38-.02-.27.12-.7.07.03-.06-.53-.06-.28-.1-.94-.1-1.9.12-3.15-.05-.27.12-.9.04-1.1.13-.03-.05-1.25-.02-.55-.13.06-.01.17-.01.16.01l.08-.07c-.7-.14-1.3.07-1.98.04.2.03.48.02.3.07l-.65-.02.14-.06-.97-.04.13.08c-.47-.04-.64-.17-1.17-.07-.24.06.45.1-.05.13l-2.4-.17c.08.1-.14.08-.37.1l-.03-.07c-.86.1-.3-.17-1.17-.1l.08-.05-.23.15c-.77.14-.4-.16-1.27.04.34-.01.16.17-.26.13l.1-.07c-.23.01-.3.04-.46.03.14-.04.07-.1-.27-.1l.23-.1-.64.13c-.5-.08-1.28.01-1.48-.1 0 0-1.06-.06-1.3.05.2-.07-.37-.1-.2-.18-.28.08-1.1.13-1.4.05h.06c-1.2-.1-2.06.1-3.14-.01.05.1-.52.03-.38.15-1.12.1-2.03-.24-2.44.1-.5.01-.6-.1-.86-.1l.12-.02-1.94.01c-.35.03-.4.2-1.04.15.2-.06-.05-.05-.3-.05.15-.01.2-.03-.1-.08-.04.02-.1.03-.17.04 0-.01-.02-.01-.01-.02-.4.02-.33.04-.14.05-.01.01.01.02.06.04-.4-.1-1.14 0-1.2-.1l-3.03.15c-.1-.06.12-.1.4-.12h-.7c.01-.08.4-.04.62-.06-.83-.14-1.72.1-2.7-.01l-.2.06-.06-.01c0 .03-.22.08-.36.1-.14-.07.01-.16-.47-.16-.38-.07-1.1.02-1.6.06.27.01.18.05.07.08-.24 0-.38-.07-.57-.04v-.1c.1.1-.63.1-.72.13-.14-.07.38-.06.44-.1h-1.46c-.52.07.1.1-.16.17-.46.01-.9.08-1.43.02l.17.1c-.86.06-1.37.04-1.95-.05-6.4.63-1.36.92-1.36.92 2.52.17 3.83-.06 6.83-.1h.05zm140.34 9l.67.1c.1 0 .26.06.34 0l.1-.38.22-.9-.22.23c.36-.84.48-1.6.68-2.37-.01-.45-.35.55-.2-.34l.72-2.4c.05.13-.22.97-.04.78-.02-.17.34-1.37.15-1.26l.16.01c.05-.32.23-.52.35-.92.02-.2 0-.37-.15.07.2-.85.4-2.06.7-2.66.24-.8.3-.5.5-.7.06-.24.1-.63.04-.64l.05-.1v-.37c.7-1.56.72-3.15 1.35-4.46-.08.36-.34 1-.2 1.05l.32-1.17c-.1.48-.15.9 0 .73l1.25-5.08c.2-.03.43-1.28.77-1.92-.06.1-.08.1-.1.08-.1.3-.17.4-.01-.26.01.01.02 0 .03-.01.02-.1.03-.23.02-.3.23-.5.24-.4.18-.15.12-.4.23-.82.23-.46.38-1.03.16-1.2.28-1.8l.9-3.22-.03.2c.15-.43.36-.54.57-1.4-.36-.83.6-2.2.95-4.1-.24.18.1-.74-.07-.7.66-1.75.72-3.25 1.33-5.2l-.01.1c.07-.13.13-.3.18-.5l.07-.3v-.07c0-.04-.02-.08-.04-.1-.03-.01-.1.01-.13.03.17-.08.03-.18.16-.25l-.08.03c-.01 0-.02.01-.04.01l-.16-.05-.7-.26-.9-.38c-.26-.3-1.58-.65-2.33-1.1l-1.12-.2.42.01c-.55-.2-.6-.35-.37-.32-.24-.12-.38-.13-.76-.25l.22-.04c-.65-.32-1.05-.17-.5.03-1.5-.25-.74-.48-2.08-.76l-.3.06-.16.03.16-.03c-1.37-.45-.35-.5-1.75-.9l.01-.13c-.36-.12-.7-.25-.64-.07l-3.76-1.62c-.83-.24.27.2-.15.17-.46-.06-.75-.16-1-.3l-.4-.2-.34-.18c.02.05 0 .1.03.14l-.16-.08c-.05-.02-.13-.1-.14-.02-.02-.05-.04-.1-.05-.17l-.1.3c.05.12.08-.02.14-.06-.01.03-.02.06-.02.1-.01.05.01.01-.03.2l-.16.82c-.1.55-.24 1.1-.52 1.64l-.08-.17c.03.02.1-.15.1-.26.16-1.22-.37.82-.48.85.05.38-.38 1.37-.32 1.88-.9 1.97-1 3.7-1.62 5.2.03-.43-.23.5-.32.4-.3.66-.01.56-.22 1.17l-.33.5c-.2 1.52-.52.92-.84 2.35-.06.96-.8 2.04-1 3.46l-.13.01c-.2 1.07-.6 1.53-.78 2.4-.2.18 0-.23-.16-.24-.15.9-.2-.3-.22.32-.5 1.16-.22 2.54-.6 3.68-.18 1.3-.98 2.2-.76 2.52l.22-.63-.5 1.7h-.12c-.14.7-.78 2.3-.86 3.2-.01-.01-.04.05-.07.1-.18.9-.4 1.1-.46 1.93l-.02-.1c-.16 1.45-1.14 4.43-1.75 6.6-.18.02-.5 1.27-.73 2.18.08-.28.01-.33.01-.4-.05.33-.13.65-.23.96l-.17.48c-.06.16-.07.14-.1.23l-.18.42c.1.05.3.06.44.04l-.03.02c.04.03.12.05.2.06l.7.12c.48.1.9.2 1 .35 1.52.1 2.87.4 4.98.98l-.1.02 4.6 1.78.62.12 2.78.3 2.54-.03.73.17-.07.02zm-97.44-115l.16-.07c-.01-.02-.05 0-.16.07zm39.72 3.7c.01.01.02.01.03.02-.02-.02-.03-.02-.03-.02zm-33.44-6.03h-.01l-.03.02z"/><path d="M206.2 105.53c1.8-1.35 2.4-1.54 4.3-2.82l1.47-.83 1.48-.78c.42-.32 1.28-.6 1.8-.9l.25-.01c.18-.1.4-.2.62-.24l-.01.02c.28-.15.62-.24.76-.32v.02l.35-.13-.05.05c.5-.25 1.05-.34 1.53-.45l-.06-.07c1.05-.16 1.38-.45 2.35-.44v.02c.58-.2 1.06-.22 1.54-.25.48-.02.97.04 1.58-.1-.15.03.07.04.06.06.57-.04 1.18-.07 1.2-.24.42-.01.34.07.4.13 0-.08.36-.07.7-.05l-.15.02.93.06-.17-.16c.5.1.1.18.6.2l.01-.12c.34.04.6.12.87.2l.82.34 2.05.42c.7.15 1.36.4 2.04.57l1 .3c.33.1.64.27.96.4l1.8.88.06.13c-.02.14.7.18.74.33l.3.1c.06.06.2.17.06.12.24.14.25.12.45.2l.22.2 2.7 1.67 2.1 1.7 2.17 1.76c1.66 1.35 2.96 3.5 4.43 5.07a.46.46 0 0 0 .19.17l1.16 1.6 2.2 3.22c.43.62.74 1.03.8.85.07-.17-.1-.97-.86-2.7l.05.03c-.53-.98-.92-1.56-1.48-2.1.07-.2-.52-.75-.63-1l.03.01c-.5-.47-.77-1.17-1.26-1.6.03.01.07-.01.17.1-.3-.36-.75-.84-.7-.92l-1.25-1.4c-.44-.45-.87-.84-1.18-1.05l.05.02c-.37-.22-.4-.37-.75-.67-.01-.03-.03-.06-.02-.06-.4-.23-.98-.88-1.28-1.1l.03-.07-.68-.6.24.24c-.2.05-.43-.54-1.02-.85-.47-.4-1.2-.47-1.64-.93-.3-.1.3.04-.1-.17.04-.1.2.07.16-.06-.4-.2-.54-.5-1.03-.74v-.07c-.67-.28-1.05-.86-1.54-.98-.67-.3-.32-.43-1.06-.68l-.2-.23c-.28-.18-.26-.01-.56-.23.05-.05-.38-.27-.17-.22-.7-.48-1.6-.57-2.52-1.18-.26.01-.74-.27-.95-.22-.01-.06-1.04-.35-.42-.27.05.01.14.04.13.06l.1-.05c-.55-.33-1.1-.28-1.7-.5.17.08.4.15.23.15l-.54-.2.13-.02c-.27-.1-.53-.22-.8-.28l.1.1c-.4-.12-.5-.28-1-.27-.22.01.36.18-.07.1l-2.04-.6c.05.1-.14.07-.34.07l-.01-.08c-.77.03-.26-.2-1.02-.18l.07-.05-.2.14c-.7.1-.36-.2-1.12-.06.3.01.13.18-.23.1l.1-.06h-.4c.12-.04.07-.1-.23-.1l.2-.1-.57.15c-.44-.07-1.13.05-1.3-.05h-.5c-.26.01-.55.03-.65.1.18-.1-.34-.05-.2-.15-.24.1-.94.27-1.24.23l.05-.02c-.53.04-1 .1-1.42.23-.42.13-.83.26-1.3.32.06.07-.44.15-.3.23-.93.3-1.8.3-2.02.73-.4.16-.53.1-.75.16l.1-.05-1.57.65c-.27.16-.25.32-.77.5.14-.13-.06-.03-.25.06.12-.06.14-.1-.12-.03a1.27 1.27 0 0 1-.12.1s-.02 0-.01-.01c-.3.16-.24.15-.1.1 0 .01.01.02.07.01-.36.07-.88.47-.97.4-.9.5-1.5.96-2.2 1.47-.1 0 .03-.15.23-.3l-.5.34c-.04-.07.27-.23.43-.34-.68.3-1.22.9-1.97 1.3l-.1.15-.05.02c.02.03-.1.17-.2.26-.14.01-.1-.14-.43.1-.32.13-.74.6-1.06.9.2-.14.16-.06.1.02-.16.13-.3.15-.4.28l-.08-.06c.12.02-.37.42-.4.5-.14.02.22-.25.23-.32l-.96.83c-.3.35.12.01.01.22-.3.28-.54.57-.9.85l.16-.04a7.7 7.7 0 0 1-1.24 1.15c-1.7 2.23-1.6 2.65-1.25 2.42.34-.2 1.12-.94 1.12-.94 1.58-1.35 2.22-2.28 4.16-3.94z"/></g></svg>