<svg xmlns="http://www.w3.org/2000/svg" viewBox="0 0 480 480" xmlns:v="https://vecta.io/nano"><path d="M309.22 430.5c.4 1.4 1.8 2.2 3.2 1.8l54.4-14.7c1.4-.4 2.2-1.8 1.8-3.2l-.8-2.8-59.4 16 .8 2.9z" fill="#fff"/><path d="M291.08 376.24l.01-.04c-.02-.02-.02-.01-.01.04zm-14.78-32.9l-.4-1 .4 1z"/><path d="M368.24 411.48l-59.3 16.1" fill="#fff"/><path d="M361.35 412.24c-2.06.5-2.67.37-4.75 1.05l-3.05.9c-.4.33-1.3.35-1.8.68l-.25-.06c-.17.1-.4.2-.6.2v-.04c-.26.16-.6.2-.73.28v-.04l-.34.1.05-.06c-.47.23-.98.37-1.44.45l.08.13c-1 .1-1.28.5-2.2.54v-.04c-1 .67-1.8.22-2.85.88.13-.08-.08-.06-.08-.1-.5.18-1.06.35-1 .63-.38.1-.33 0-.4-.1.03.12-.28.26-.58.35l.12-.08-.84.27.23.18c-.47.06-.2-.25-.6-.07l.06.2c-.63.13-1.08-.05-1.72-.03-2.53.6-5.1 1.82-7.53 2.12l-.14-.1c-.1-.2-.56.48-.7.3l-.25.17c-.1-.02-.26-.01-.14-.1-.25.06-.25.1-.4.2l-.3-.06c-1.02.17-1.8.65-2.85.88-1.33.08-3.62.96-4.94 1.47-1.83.83-4.27.6-6.14 1.5-.07-.01-.22.1-.2.12l-1.8.46s-8.7 2.28-1.64 2.2l-.03.06c1-.16 1.63-.3 2.25-.7.18.25.8-.2 1.07-.16l-.02.03c.54-.38 1.28-.16 1.8-.5-.02.03-.01.1-.14.15.4-.15.97-.37 1.04-.2 1-.3 2.4-.62 2.98-1.05l-.03.06c.32-.27.47-.15.85-.35.03.02.06.02.06.03.35-.28 1.16-.34 1.46-.5l.05.1.8-.24-.3.06c.02-.32.65.02 1.18-.33.55-.1.93-.9 1.53-.92.23-.2-.17.3.2.07.05.15-.16.15-.02.24.37-.18.7-.02 1.14-.25l.05.1c.57-.4 1.23-.17 1.6-.5.62-.28.53.24 1.15-.18l.3.1c.3-.05.15-.26.5-.26.01.1.43-.03.27.12.77-.04 1.42-.63 2.45-.62.15-.26.67-.27.78-.46.05.08.97-.25.48.1-.04.03-.13.05-.13.01l-.03.14c.6.07.96-.4 1.5-.5-.17 0-.38.07-.26-.05l.5-.12-.08.13.76-.15-.14-.1c.38-.04.57.14.93-.15.16-.15-.4-.07-.02-.2l1.9-.25c-.1-.12.07-.16.24-.24l.05.1c.62-.35.3.2.94-.1l-.04.1.1-.3c.53-.4.4.16.96-.34-.26.1-.2-.23.14-.27l-.05.14c.17-.07.22-.14.34-.15-.1.1-.01.18.25.1l-.14.2.44-.35c.42.02.98-.3 1.18-.18 0 0 .84-.14.98-.37-.13.16.33.08.24.24.18-.18.78-.46 1.07-.4l-.04.03c.97-.12 1.54-.62 2.42-.68-.08-.13.4-.17.23-.32.82-.4 1.67-.06 1.83-.7.38-.14.5 0 .7-.02l-.1.05 1.5-.44c.26-.13.23-.4.74-.47-.13.14.06.07.25.02-.1.05-.14.1.12.1.03-.04.07-.07.12-.1 0 .01.02.01.01.02.3-.12.23-.14.1-.1 0-.02-.01-.03-.07-.05.35.05.88-.25.97-.08.9-.3 1.5-.65 2.26-.92.1.07-.05.2-.26.3l.53-.18c.03.13-.3.16-.45.23.7.03 1.27-.57 2.08-.58l.13-.14h.05c-.02-.05.13-.17.24-.22.14.08.06.26.44.15.33.03.83-.28 1.2-.45-.2.04-.16-.04-.08-.1.2-.05.32.03.46-.06l.06.15c-.1-.12.45-.3.5-.37.14.08-.26.18-.3.27l1.12-.33c.37-.22-.1-.12.04-.3.35-.13.66-.33 1.1-.34l-.17-.1c.64-.3 1.04-.38 1.52-.36 4.65-2.44.63-1.78.63-1.78-2.05.2-2.95.88-5.24 1.6zM160.85 357l.45-1.08c-.02.02-.14.3-.45 1.08zm6.53 35.3l-.13.24.13-.24z"/><path d="M131.74 415.48c-.8 2.7 3.3 3.9 4.8 4.6l25 12c.7.3 1.4.4 2.1.4l25.1-.2c1.4.2 2.7-1 2.8-2.4l.2-2.9-27.6-.1-31.5-14.1-.9 2.7z" fill="#fff"/><path d="M155.16 423.68l-.08-.02c.05.02.07.03.08.02zm3.62 8.45l-.01-.01-.1-.03zm-4.28-60.07l.03-.02c0-.02-.01-.02-.03.02zm12.9-31.86l.48-1.14-.48 1.14zm-.12.14l.36-.83-.36.83zm-5.93 70.08l.06.08c-.04-.06-.06-.07-.06-.08zm-7.07 13.36l-.02-.01-.1-.03zm28.66 3.9l-.16-.06c0 .03.04.05.16.06zm-6.22-1.98h0c.02-.01.03-.01.05-.01h-.05zm-11.15-6.44l-.14.1c.01.01.05-.01.14-.1zm.16 4.9h-.06.06zm16-107.4c-.01.02-.02.04-.03.05l-.16.26.2-.3zm102.18 44l-.48-1.12c-.01.02.1.3.48 1.12z"/><path d="M369.52 414.4l-.06-.5-.07-.48-.43-1.52c.05-.02.13-.03.1-.08l-.08-.2-.3-.7-.16-.57c-.04.01-.1.02-.13.04l-.15-.27.04.3-.1.03c-.23-.46-.28-.6-.27-.68-.01-.06-.01-.1-.1-.24-.04-.06-.1-.15-.2-.25-.06-.08-.14-.17-.26-.3l-.13.14-1.65-1.7c-.54-.5-1.12-.94-1.9-1.38-1.73-.8-3.55-1.1-5.3-1.44l-5.27-.9c-3.5-.57-6.94-1.12-10.1-1.83l-.26-.2c-.1-.23-1.8.02-2.02-.22l-.76-.03c-.2-.07-.63-.2-.26-.17-.68-.12-.7-.1-1.2-.1l-.7-.25c-2.7-.55-5.03-.67-7.87-1.18-.42-.1-.9-.2-1.4-.3-.1-.02-.37-.07-.57-.1-.22-.02-.46.04-.7.1-.37.12-.7.35-.97.6-.15-.07-.33-.16-.3-.15-.34-.16-.73-.33-1.08-.6-.37-.24-.63-.56-.9-1.02-.53-.86-1-1.92-1.4-2.95-.85-2.07-1.54-4.14-1.98-5.35l.01-.18c-.68-2-1.33-4.02-1.95-6.04l.7 2.27c-.43-.73-1.33-4.62-2.7-9.02-1.17-4.15-2.72-8.33-3.78-12.7-.62-2.05.6 1.8-.26-1.3.07-.13.43 1.43.3.6-.84-3.03-1.2-5-2.2-8.75l.03-.17c-1.36-4.87-2.17-9.28-3.05-12.52-1.23-5.06-.57-3.45-1.9-8.7l-.36-2.08c-.5-2.27-.48-1.6-1-4.12.1.14-.66-3.2-.27-1.73-1.17-5.7-2.7-11.52-4.3-19.03-.5-1.6-1.35-5.37-1.75-6.55.02-.22-2-7.5-.74-3.33.1.36.28 1 .24.96l.2.48c-.5-2.14-1.04-4.07-1.66-5.96l-1.9-5.82c.36 1.23.88 2.86.5 1.78l-.95-3.03.06-.03 1.37-.8 1.23-.76.3-.2c.1-.06.27-.2.38-.3.24-.2.46-.44.66-.7.4-.54.67-1.23.7-2 .02-.38-.03-.8-.14-1.16l-.25-.9.05.06c-2.36-6.06-2.98-9.84-5.6-16.02.33.77-.05-.36 0-.3-1.1-2.88-2.28-5.96-2.56-5.9-.8-2.1-.57-1.74-.57-2.05-.12.06-.85-1.75-1.5-3.37l.34.73-1.9-4.66.15 1c-.93-2.5.02-.74-1-3.08l-.17.1c-1.36-3.43-1.9-5.53-3.2-8.88-2.96-6.83-6.54-13.65-10.13-20.3l-2.7-4.95-1.35-2.44-.8-1.43-.26-.46c-.02-.04-.04-.1-.07-.1h-.4l-1 .01-10.68.04-.6-.14c-.27-.2-3.8.37-4.32.18l-1.6.12c-.45-.03-1.4-.06-.6-.12-1.48.01-1.52.05-2.58.13l-1.6-.1c-5.85-.02-10.8.3-16.96.35-3.48-.08-8.4-.02-13.48.1l-15.15.43.07 2.32c.16 5.6-.4 11.66-1.2 17.7-.8 6.05-1.84 12.1-2.75 17.76-.05.18-.1.5-.14.8s-.07.52-.05.52l-1.1 5.14-1.2 5.12-.53 2.02c-.36 1.25-.87 3-1.57 4.95-1.37 3.9-3.45 8.62-5.2 12.14-1.74 3.53-3.06 5.94-2.5 5.5.17-.14.54-.58 1.1-1.38l-.88 1.5c-.6.9-.4 2.2.4 2.9.75.7 1.86 1.65 3.37 2.72-.66-.4-1.26-.82-1.8-1.2-.44-.32-.85-.6-1.2-.9-.35-.3-.72-.52-1-.9-.52-.7-.6-1.48-.5-2.05.04-.3.12-.54.22-.75l.2-.44c.1-.23.14-.36.12-.4-.02-.1-.25.1-.6.5-.5.6-.84 1.77-.44 2.93.1.3.24.58.43.85.2.28.45.5.58.64.33.3.64.64.98.93 1.32 1.18 2.55 2.03 2.55 2.03 2.4 1.72 4.68 3 6.9 4 1.16.55 2.3 1.03 3.45 1.47l-2 4.2c-1.6 2.53-2.05 2.9-2.96 4.15l.4-.6-6.74 9.32c-1.18 1.74-1.25 2.1-3.37 5.2.62-1.05-.22.24-1 1.42.5-.76.6-1-.43.52-.12.23-.33.58-.53.9-.01.01-.06.07-.04.03-1.25 2-1 1.67-.42.74-.02.05.04-.02.24-.3-1.4 2-3.54 5.8-3.78 6-3.52 6.13-5.76 10.7-8 16.12-.23.44-.02-.16.37-1.14l-1.14 2.7c-.02-.02.1-.4.32-.9-1.62 3.85-3.03 8-4.78 12.44l-.37 1.15-.13.32c.02 0-.08.3-.2.7-.15.4-.32.92-.46 1.32-.36.74-.13-.1-1.17 2.57-.9 2.08-2.4 6-3.6 8.7.67-1.46.5-.97.23-.33-.6 1.3-.98 2.04-1.44 3.05l-.1.07c-.02.2-1.56 3.5-1.77 3.94-.43.7.94-2.02 1.03-2.38l-1.9 3.88c-.32.65-.64 1.3-1.98 3.83-1.37 2.75.34-.45-.27.9l-4 7.5.54-.83c-2.36 4.53-3.85 7.2-5.75 10.06-.32.52-.63 1-.95 1.48-.17-.07-.36-.13-.55-.13-.33-.02-.64.04-.92.13-.55.18-1 .5-1.4.82-.56.46-1.1.96-1.1.96-2.12 1.94-3.02 4.26-3.4 6.4-.1.53-.2 1.06-.27 1.62l-.12.86-.06.5c-.04.27-.07.55-.1.82l-.06.82c.01.06-.05.16.03.18l.13.06-.14.53-.1.4c-.1.5-.13.85-.07.98s.2.04.47-.34c.13-.2.3-.46.5-.8.07-.12.14-.24.22-.36l.97.4 2 .84c4.9 2.3 6.1 3.14 11.28 5.36 2.44 1.13 5.07 2.25 7.47 3.3 1.22.32 3.14 1.42 4.55 1.86l.47.34c.5.15 1.05.36 1.48.63l-.04.02c.73.23 1.48.63 1.85.75l-.04.02.85.37-.16-.02.27.1.42.17 1.1-.03.86-.01c.57 0 1.13.01 1.65.03l-.1-.15c2.57.17 3.5-.13 5.82.07l-.03.04c.6-.08 1.17-.1 1.7-.1l.2.06c.27.01.4-.02.5-.06.42.01.82.03 1.23.05.08.02.1.04-.04.07.64.07 1.3.05 1.97.02.45 0 .93-.02 1.44-.05.18 0 .35-.01.53 0 .07.02.25.04.23.06l.7-.02c.2.02.42.03.64.06.47-.2 1.56-.08 1.92-.23.06.1 2.2.02.96.2-.1.02-.3.01-.28-.02l-.15.12c1.24.24 2.25-.12 3.47-.08-.36-.04-.85-.03-.52-.12l1.14.02-.24.1 1.66.07c-.01-.04-.14-.1-.2-.13.22.01.23.03.25.06.03.02.04.05.05.07.02.04.02.07.1.04.01.01.03.01.06.02.1.05.2-.36.22-.12-.03.1-.06.2-.1.3l-.15 1.02c-.03.16-.05.42-.07.5-.02.1-.06.2-.1.3-.1.2-.22.38-.36.52.16.03 0 .22-.18.38l-.1-.1c-.33.3-.45.2-.52.14-.04-.03-.07-.06-.13-.08-.02-.01-.03 0-.05-.01h-.03c-.03 0-.06 0-.1-.01-.06 0-.12-.01-.18-.01-.03 0-.07 0-.1.01-.07.01-.16.01-.25.02l-.26.18c-1.34.26-.73-.25-2.22.1.6-.03.28.27-.45.22l.18-.12c-.4.03-.54.08-.8.06.24-.07.13-.18-.47-.15l.4-.15-1.12.23c-.86-.12-2.23.05-2.6-.12 0 0-1.86-.07-2.28.12.37-.12-.65-.15-.36-.3-.48.13-1.9.25-2.47.12l.1-.02c-2.1-.13-3.6.22-5.5.07.1.14-.9.07-.66.26-1.95.2-3.56-.35-4.27.23-.9.04-1.05-.13-1.5-.15l.2-.03c-.87.04-1.25.03-1.67-.05s-.66-.18-1.25-.48c-.58-.22-.78-.02-1.75-.55.37.06-.05-.12-.42-.3.25.1.33.1-.13-.2-.08 0-.2-.04-.3-.07 0-.01-.02-.02 0-.03-.64-.26-.54-.18-.26-.03-.02.01-.01.04.07.1-.6-.43-1.8-.86-1.8-1.06-1.9-.86-3.3-1.33-4.9-2.02-.14-.17.26-.07.73.12l-1.12-.5c.07-.12.67.23 1.02.37-1.22-.83-2.8-1.1-4.26-2.03l-.36-.06-.08-.06c-.02.05-.4-.04-.63-.14-.17-.2.13-.24-.64-.6-.56-.4-1.74-.77-2.56-1.1.42.22.25.22.05.16-.38-.18-.55-.4-.87-.5l.03-.16c.1.2-1.07-.33-1.23-.34-.17-.2.64.2.77.16l-2.3-1.08c-.87-.28.1.2-.36.14-.73-.32-1.5-.56-2.27-1.04l.2.25c-1.4-.58-2.24-.92-3.1-1.45-1.3-.44-2.3-.9-2.9-1.56-.62-.63-.73-1.4-.74-1.82-.01-.9-.16-.8-.4-.47-.1.26-.28.64-.28 1.14-.03.5.13 1.04.34 1.48.12.2.24.4.35.56l.33.4c.2.2.33.32.33.32 1.03.93 2 1.36 2.88 1.74l1.2.5 1.2.53c1.64.7 3.4 1.4 5.78 2.5 4.13 2.06 5.12 2.84 9.5 4.8 2.05 1 4.27 2 6.3 2.94.52.13 1.18.45 1.86.78.18.1.3.16.54.26.24.1.45.17.67.22.44.1.87.15 1.24.14.2.05.37.1.57.14.43-.06.94-.1 1.37-.05l-.03.04c.64-.1 1.37-.05 1.7-.1l-.03.04.78-.02-.13.05c1.12-.1 2.28-.12 3.3-.08l-.1-.14c2.18.14 2.98-.16 4.95.01l-.03.04c2.5-.4 3.94.23 6.5-.15-.32.05.14.07.1.1 1.18-.05 2.45-.08 2.46-.37.86 0 .7.08.82.2-.01-.12.74-.18 1.4-.2l-.3.05 1.93-.06-.38-.23c.5.03.58.1.64.16.12.04-.06.12.66.08l-.03-.2c.88-.06 1.52-.4 2.08-.82.53-.45 1.03-1.05 1.2-2.02l.1-1.46.16-2.53h-.27l-.03-.3c-.05-.27-.13-.67-.2-.9-.6-1.78-1.72-3.36-3.1-4.57-.33-.32-.7-.6-1.07-.87s-.87-.56-1.28-.73c-.86-.38-1.7-.64-2.53-.88-1-.3-2.53-1.17-3.5-1.48 2.54 1.04-3.38-1.14-4.06-1.6l-1.56-.78c.02-.24-1.55-.6-1.6-.94l-.6-.33c-.13-.15-.4-.45-.12-.26-.47-.42-.5-.4-.9-.65-.07-.1-.1-.17-.15-.26l-.17-.3c-1.6-2.05-3.2-3.65-4.9-5.84-.47-.7-1.08-1.5-1.76-2.38l-.06-.07c-.04-.05-.1-.1-.13-.15-.08-.1-.17-.17-.26-.25a2.255 2.255 0 0 0-.36-.24c-.06-.13-.14-.26-.2-.38-.16-.34-.32-.68-.44-1-.06-.16-.1-.3-.14-.45-.03-.13-.04-.15-.01-.22l.77-1.87-.1.32c1.1-2.56 1.6-3.24 3.08-6 .1-.14.22-.33.2-.3 1.43-2.7 4.6-7.66 5.92-9.76l.14-.1c1.08-1.72 2.22-3.4 3.33-5.1l-1.27 1.9c.28-.76 2.64-3.8 5.04-7.5 2.37-3.4 4.48-7.12 7.07-10.57 1.12-1.72-.94 1.55.8-.98.14-.03-.78 1.2-.26.6 1.7-2.48 2.98-3.94 5.1-7l.15-.08c2.78-3.98 5.52-7.3 7.38-9.94 2.98-4.02 2.2-2.55 5.25-6.76l1.32-1.54c1.37-1.75.87-1.34 2.43-3.26-.04.16 1.97-2.42 1.12-1.25 3.54-4.3 6.88-9.08 11.7-14.56 1-1.28 3.38-4.15 4.02-5.17.2-.1 4.4-6.03 2.05-2.56-.2.3-.58.8-.57.76l-.24.45c2.56-3.27 4.32-6.2 6.36-9.75.18 0 .35 0 .54.01h3.65l4.3-.22c6-.33 12.35-1.2 18.08-2.44l.56-.16.93 1.96-.35-.66c1.35 2.6 2.2 4.3 2.9 5.85l.5 1.14c.16.37.27.74.4 1.12.22.8.4 1.74.63 2.8.5 2.13.72 2.43 1.57 6.26-.35-1.22.02.34.37 1.76-.23-.9-.33-1.18.1.7.08.26.2.66.3 1.04 0 .02.01.1 0 .06.63 2.37.54 1.95.27.85.02.05.01-.04-.06-.4.53 2.5 1.84 6.84 1.83 7.16 2.08 7.06 3.9 12 6.16 17.7.16.52-.17-.2-.63-1.32l1.2 3.05c-.08-.01-.98-2.3-1.45-3.55.85 2.45 1.88 4.9 3 7.46l3.62 7.9.6 1.1.14.33c.01-.02.17.28.37.68l.65 1.3c.3.8-.17.01 1.1 2.73.94 2.18 2.88 6.1 4.23 8.9-.7-1.52-.43-1.05-.1-.4.64 1.36.94 2.17 1.46 3.2v.13c.15.16 1.77 3.6 2 4.03.3.8-1.04-2.08-1.25-2.4l3.84 8.16c1.42 2.88-.17-.57.56.8 1.2 2.56 2.44 5.03 3.73 8.02l-.35-.97c1.13 2.4 2.02 4.34 2.7 6.12.65 1.8 1.2 3.4 1.74 5.1.84 2.32 1.5 4.42 1.88 6.33.2.95.28 1.87.23 2.72l-.1 1.27c-.14 0-.28.02-.4.06-.4.1-.74.32-1.03.63s-.54.75-.57 1.34v.1c0 1 .13 1.92.13 1.92.17 1.42.42 2.6.83 3.78.4 1.14.9 2.14 1.46 3.13l.45.74.33.53.44.66c.06.1.13.18.2.27l.06.18c.08.26.16.5.2.6.06.14.1.27.16.4.2.5.38.83.5.9.13.1.2-.07.2-.56.01-.3-.03-.82-.07-1.34h.01l1.37-.4 4.04-1.22c5.45-1.4 6.97-1.52 12.57-3.15 2.7-.7 5.54-1.54 8.16-2.27 1.2-.54 3.45-.93 4.88-1.5l.6-.04c.5-.2 1.08-.4 1.6-.47l-.02.04c.74-.3 1.6-.47 1.97-.62l-.02.04.92-.26-.15.1c1.3-.45 2.66-.82 3.88-1.1l-.14-.1c1.23-.25 2.07-.5 2.87-.75h.12c.24-.05.36-.12.45-.17.25-.08.5-.15.78-.22.23-.02.68-.13.4.03 1.6-.26 3.1-1.08 5.24-1.37.1-.07.22-.14.37-.2.84-.18 1.7-.4 2.68-.75.01.02-.08.07-.33.2-.1.04-.27.1-.27.05l-.1.16c1.23-.1 2.1-.7 3.27-.98-.3.05-.7.15-.6.07.15-.05.3-.1.43-.14l.72-.18-.2.16 1.62-.38-.25-.06c.4-.07.7-.08.97-.1.06.03.06.03.18-.1.17-.15-.14-.14.13-.25h.05c.01.1.01.2.02.32 0 .06 0 .08.01.15.03.16.07.33.1.5.07.34.15.68.23 1 .04.2.04.4.01.58.15-.06.14.16.08.4l-.13-.02c-.1.42-.25.44-.34.44-.1 0-.18.01-.5.24l.02-.1c-.02.1-.05.22-.1.32-1.1.56-.72-.07-2.03.64.55-.17.34.2-.37.33l.14-.16c-.38.13-.5.2-.75.26.2-.12.07-.2-.48-.03l.34-.25-1 .5c-.85.1-2.1.6-2.5.53 0 0-1.78.4-2.14.68.32-.2-.66.01-.42-.2-.42.25-1.74.72-2.32.73l.1-.04c-2.03.4-3.36 1.1-5.2 1.43.12.12-.85.3-.56.4-1.8.68-3.48.55-4 1.28-.83.26-1.04.14-1.48.23l.2-.08-3.2.9c-.57.2-.6.5-1.66.7.3-.2-.1-.06-.5.05.25-.08.3-.14-.22-.07-.06.05-.17.1-.27.15-.01-.01-.03-.01-.02-.02-.65.2-.52.2-.2.15-.01.02.02.03.12.04-.72.05-1.9.52-2.02.37-1.96.57-3.32 1.13-4.94 1.64-.2-.04.15-.22.62-.4l-1.15.35c-.03-.13.65-.25 1-.38-1.44.17-2.8.98-4.48 1.23l-.3.2-.1.01c.02.05-.32.22-.56.3-.26-.05-.06-.26-.86-.04-.67.06-1.8.54-2.6.83.45-.1.33 0 .14.1-.4.1-.66.06-.96.2l-.08-.14c.2.1-1 .44-1.14.54-.26-.05.6-.27.67-.38l-2.4.67c-.83.35.2.1-.18.35-.75.23-1.46.54-2.36.7l.3.06c-1.4.5-2.26.7-3.26.83-.65.23-1.2.52-1.72.6-.53.1-1.02 0-1.42-.16-.8-.34-1.23-.9-1.48-1.24-.45-.73-.55-.58-.57-.18 0 .54.43 1.57 1.2 2.15.37.3.78.5 1.08.6.3.1.5.13.5.13.4.08.8.1 1.18.04.18-.02.4-.07.52-.1.12-.03.24-.05.36-.08l1.36-.34c.87-.23 1.68-.48 2.5-.74 1.67-.53 3.42-1.14 5.9-1.86 4.4-1.12 5.63-1.17 10.14-2.5 2.17-.56 4.46-1.25 6.57-1.85.95-.48 2.78-.75 3.92-1.25l.5-.01c.4-.17.86-.34 1.3-.4l-.02.04c.6-.25 1.3-.4 1.58-.5l-.02.04.74-.22-.1.08c1.04-.38 2.14-.68 3.12-.9l-.12-.12c2.1-.4 2.8-.9 4.7-1.22l-.02.04c2.26-1 3.8-.76 6.14-1.77-.3.13.15.04.14.08 1.1-.34 2.3-.7 2.24-.97.82-.22.7-.1.83-.02-.04-.12.66-.36 1.3-.54l-.28.13.9-.27.45-.13a4.127 4.127 0 0 0 .55-.21c-.17 0-.35-.03-.5-.06.57-.16.66-.18.76-.16.08.01.2.04.64-.4l-.15-.13c.62-.56.97-1.18 1.16-1.86.18-.3.22-.67.2-1.06zM138.87 401.3c-.45.03-1 .36-1.43.8-.25.25-.56.53-.9.88l.62-.78c.6-.8 1.2-1.3 1.9-1.35.04 0 .07.01.1.01-.1.16-.2.3-.3.45zm.85.43c.01-.02.02-.04.04-.05.04.07.08.16.13.24-.06-.06-.1-.13-.17-.2zm89.5-95.84c-2.77 4.07-5.73 7.88-8.94 11.46l-8.73 10.87-.56.57c-.32.2-2.92 4.02-3.42 4.5l-1.23 1.7c-.38.45-1.15 1.42-.54.58-1.2 1.53-1.2 1.58-2.02 2.7l-1.32 1.6c-4.66 6.04-8.44 11.32-13.17 17.8-5.84 7.7-16.06 22.72-21.3 31.8-1.88 3.25-3.83 6.62-5.44 10.35-.13.25-.08.58-.04.8.05.2.1.4.17.58.1.25.2.5.3.73-.22.01-.43.05-.62.12-.94.34-1.45 1.07-1.8 1.4-.4.44-.85.9-1.27 1.45-.4.55-.8 1.26-.9 2.05-.1.8.07 1.48.32 2.08.22.46.32.54.46.8l.38.6.52.8.43.7c.16.26.3.54.44.8l.1.18.04.1c.03.03.02.06-.02.08-.13.08-.3.12-.44.12-.32-.02-.6-.2-.75-.42-.06-.08-1.13-1.52-2-2.56l-.37-.42c-.12-.13-.26-.28-.5-.5-.43-.4-1.14-.5-1.58-.43-.6.02-1.26.02-1.9.03-.16-.04-.6-.01-.6.02-1.54-.14-3.08-.38-4.55-.76 0 0-.35-.08-.87-.24-.53-.15-1.24-.45-2.02-.85-.77-.4-1.57-.95-2.23-1.62-.67-.66-1.2-1.45-1.66-2.2s-.93-1.46-1.4-1.82c-.06-.05-.1-.07-.15-.1.88-1.24 1.65-2.46 2.37-3.67 1.6-2.7 3-5.28 4.4-7.95 2.76-5.35 5.92-10.94 9.6-19.1 3.26-7.16 5.03-11.8 6.84-16.5 1.83-4.7 3.46-9.52 6.83-16.85 3.33-6.93 7.5-14.08 11.62-20.4 1.84-3.08 5.6-8.17 8.06-11.64l1.04-1.3 2.7-3.82-.04.1c1.24-1.84 2.42-4.1 2.86-5.1l-.02.1c.18-.36.35-.73.52-1.1l1.96.68c4.48 1.43 9.33 2.57 16.15 3.6 3 .43 5.44.8 7.64 1l3.12.33c1 .1 1.96.14 2.93.2l2.96.2c.42.02.85.03 1.28.03-1.18 1.94-2.4 3.87-3.68 5.75zm4.16-4.44c.26-.43.5-.88.75-1.32h.1c-.6 1.04-1.34 2.23-.84 1.32zm99.38 108.36c-.02.04-.03.07-.05.1-.15.3-.5.5-.84.44-.34-.07-.62-.22-.87-.3l-.17-.07c-.04-.02-.02-.01-.1-.04l-.26-.08-1.06-.3c-.36-.1-.72-.18-1.1-.25-.2-.04-.4-.06-.6-.1-.1 0-.28-.02-.43-.01-.15.02-.3.02-.46.06-.3.05-.6.27-.8.42l-.44.33-.82.64-1.58 1.24c-.16.07-.5.37-.47.4-1.35.88-2.75 1.65-4.2 2.3l-.88.37c-.55.2-1.3.5-2.22.7-1.8.45-4.14.6-5.93.5-1.8-.08-3-.3-2.8.01.07.1.32.25.74.44-.3-.06-.57-.13-.8-.2-.6-.2-1.3.4-1.3 1 .04.52.12 1.13.23 1.75-.2-.68-.33-1.27-.43-1.74h0 0c.02-1.3 1.23-1.64 1.7-1.52.34 0 .42-.08.32-.2-.07-.06-.1-.1-.3-.2.05-.46.08-.56.14-1.02.04-.44.08-.8.06-1.03v-.37c-.1-2.1-.6-3.9-1.07-5.6-.5-1.7-1.05-3.3-1.6-4.82l-.8-2.25c-.28-.76-.58-1.52-.9-2.23-.62-1.45-1.27-2.86-1.93-4.3l-9.54-20.1-7.74-16.88-3.4-7.55c-1.2-2.77-2.44-5.98-3.9-9.93-2.73-7.56-5.15-15.8-6.96-23.46-.5-1.8-1.06-4.32-1.63-6.94l-.43-1.97c-.05-.32-.18-.67-.3-1-.12-.33-.23-.7-.37-.98l-.8-1.75-.8-1.57-.7-1.58-1.63-3.1 3.47-.83c1.9-.54 3.9-1.02 5.45-1.6l1.25-.27c1.06-.4 2.32-.82 3.4-1.16l-.06.06c1.57-.65 3.4-1.24 4.14-1.6l-.05.06 1.9-.77-.3.18c1.36-.58 2.7-1.23 4.06-1.8l3.84-1.8-.26-.03c1.37-.63 2.5-1.2 3.48-1.75l2.77 8.73c2.8 9.84 4.92 19.72 6.88 28.87l.1.83c-.05.38 1.3 5 1.35 5.72l.53 2.1c.1.6.37 1.87.1.8.44 1.97.47 2 .83 3.42l.4 2.13c1.7 7.77 3.45 14.3 5.5 22.42 1.18 4.9 3.02 11.9 5.1 18.95 1.05 3.53 2.14 7.06 3.28 10.35.57 1.64 1.14 3.22 1.73 4.7.6 1.48 1.17 2.86 1.9 4.1.14.2.26.43.43.64.2.2.4.43.6.57.43.33.9.56 1.35.78.02.01.05.02.07.03-.3.52-.46 1.08-.55 1.64-.1.73-.1 1.47.1 2.25.18.77.62 1.55 1.22 2.1.6.57 1.4.87 1.88 1.07l2.82 1.2c.27.08.58.2.88.34l.44.2.2.1c0-.03-.01.01-.03.05zm7-7.5c-.01-.07-.01-.12-.01-.12l7.76 1.43-7.75-1.3zm26.6 6.7c-1-.94-2.48-1.93-4.7-2.6-.52-.15-1.27-.33-2.2-.53l2.2.43c3.2.6 4.7 2.7 4.7 2.7 0-.01 0 0 0 0z"/><path d="M188.34 431.04h0l.13-.1z"/><path d="M169.8 414c-.35.36-.62.7-1.03 1.33l.15-.06c-.33.3-.53.65-.78.95-.08.22.3-.17.04.22l-.85.9c0-.07.3-.38.17-.35-.02.08-.44.54-.32.54l-.08-.05c-.1.14-.22.18-.36.33-.05.1-.07.17.1.01-.26.34-.6.85-.86 1.05-.28.3-.26.15-.4.2-.08.1-.17.27-.15.3l-.04.03-.07.17c-.33.27-.6.58-.85.88l-.2.2c-.04.06-.08.1-.12.16l-.2.3c.01-.12.18-.3.12-.36-.08.13-.14.26-.17.4.02-.16.06-.32-.02-.28-.27.63.14 1.18.85 1.65-.04.12.48.32.75.46-.04-.03-.04-.04-.03-.05-.13-.05-.17-.08.1-.02-.01.01 0 .01 0 .02h.07c.06.01.07 0 .1 0 .22.08.2.1.07.1.18.03.38.06.2.1.48.13.58-.05.86-.05.58.07.82.07 1.63.1l-.1.01c.22.03.3.14.73.14.36-.33 1.12.05 2.08-.02-.12-.12.37-.05.33-.14.9.14 1.65-.04 2.67.08l-.05.01c.27.1.97.05 1.2-.03-.14.08.35.12.17.18.2-.1 1.1-.03 1.1-.03.17.1.84.02 1.26.1l.55-.12-.2.1c.3-.01.34.06.22.1.13.02.2-.01.4-.02l-.1.07c.35.04.5-.13.22-.13.73-.2.42.1 1.08-.03l.13-.1.06-.05-.06.05c.73-.07.26.2 1 .1v.08c.2-.01.38-.01.3-.1l2.04.18c.43-.02-.16-.07.05-.13.46-.1.6.03 1 .07l-.1-.08.83.05-.12.06.55.02c.16-.05-.08-.04-.25-.07.6.03 1.1-.18 1.7-.04l-.07.07c.01-.02-.08-.02-.14-.01-.6.1.44.08.47.13.17-.1.7-.01.93-.14.5.1 1 .07 1.35.05.1-.02.13-.06.27-.02.01 0 .03.01.03.01.1.1.06-.01.14.03.01-.1-.17-.13-.18-.2.03-.02.05-.05.06-.1-.04-.03-.06-.05-.08-.06-.03-.03-.06-.1-.08-.13-.04-.08-.06-.14-.07-.2-.02-.13-.04-.25-.27-.52-.36-.28-.55-.9-1.13-1.27l.04-.07c-.4-.3-.52-.58-.88-.8-.04-.13.1.03.15-.05-.38-.2.2-.06-.1-.17-.45-.44-1.18-.36-1.7-.65-.6-.18-.97-.68-1.16-.56l.3.15-.8-.36v-.07c-.34-.1-1.07-.53-1.52-.6.01 0-.02-.02-.04-.04-.43-.13-.5-.26-.92-.3h.06c-.7-.13-2.12-.75-3.16-1.1 0-.1-.6-.3-1.04-.43.14.05.17.01.2 0-.63-.1-1.2-.57-1.87-.66h.03c-.22-.14-1-.23-1.08-.46-.8-.2-1.4-.57-2.28-1.26l.06.01c-.93-.88-1.4-1.48-1.62-1.82l-.25-.22s-.1.48-.6 1.34l-.48 1.05zm169.98-10.23c.04.36.06.8.06 1.3-.15.53-.23 1-.35 1.8l.12-.13c-.16.47-.2.9-.33 1.3 0 .25.2-.3.12.2-.3.88-.14.45-.5 1.3-.02-.07.18-.52.06-.43.01.1-.27.73-.15.68h-.1c-.05.17-.17.26-.26.47-.03.1-.03.2.1-.02-.17.45-.4 1.1-.62 1.38-.22.4-.23.24-.36.32-.06.12-.12.33-.1.34l-.04.04-.04.2c-.14.18-.27.38-.38.56-.08.16-.13.3-.13.46-.03.3.07.56.16.83-.1-.1-.14-.38-.2-.37.03.16.12.3.2.43-.13-.15-.23-.3-.25-.2.16.34.46.57.8.66.17.05.35.07.54.04l.73-.1c.06.1.72-.06 1.1-.04-.05-.01-.07-.02-.06-.03-.17.02-.23.01.12-.07 0 .01.01.01.01.01.06-.02.12-.04.15-.07.3 0 .25.03.1.06.22-.04.45-.1.27.01.58-.06.6-.23.92-.32l1.76-.37-.1.04c.24-.03.35.05.8-.07.3-.4 1.2-.27 2.2-.62-.15-.08.37-.15.3-.23 1-.13 1.73-.52 2.84-.7l-.05.02c.32.01 1.04-.23 1.27-.37-.13.12.4.01.23.13.2-.16 1.17-.35 1.17-.35.2.05.9-.2 1.36-.25l.55-.27-.18.14c.3-.1.38-.04.26.03.14-.02.2-.07.4-.13l-.08.1c.38-.06.5-.27.2-.2.73-.4.48-.01 1.14-.33l.1-.13.06-.07-.06.07c.75-.27.32.1 1.08-.18l.04.07c.2-.07.4-.1.3-.18l2.2-.38c.45-.13-.2-.02.02-.13.46-.22.64-.14 1.08-.2l-.14-.04.9-.18-.1.1.6-.14c.16-.1-.1-.02-.3 0 .64-.14 1.1-.47 1.8-.5l-.06.1c0-.02-.1 0-.15.02-.6.27.5-.05.53 0 .16-.14.74-.2.96-.38l.5-.06c.07-.02.13-.04.16-.06.07-.01-.02-.07-.06-.1-.04-.04-.06-.06-.08-.1.1.02-.01-.07.03-.12-.1-.14-.2-.04-.43-.23l-.2-.25c-.73-.26-.38-.4-1.1-.66-.5-.07-1.02-.5-1.78-.5l-.01-.08c-.6-.04-.86-.24-1.33-.28-.1-.1.12-.02.13-.12-.5-.02.15-.13-.18-.1-.65-.2-1.38.06-2.02-.08-.7-.01-1.24-.42-1.4-.26l.35.08-.95-.16-.01-.07c-.4-.03-1.28-.3-1.78-.27.01 0-.03-.02-.05-.04-.5-.04-.6-.15-1.06-.13h.06c-.8.01-2.45-.34-3.64-.54-.02-.1-.7-.2-1.2-.27.16.03.18-.02.2-.03-.7-.01-1.4-.4-2.15-.4h.03c-.26-.1-1.12-.1-1.22-.3-.83-.01-1.56-.16-2.7-.45l.06-.02-2.48-.93-.35-.07s.04.66 0 1.64z" fill="#fff"/></svg>