<svg xmlns="http://www.w3.org/2000/svg" viewBox="0 0 480 480" xmlns:v="https://vecta.io/nano"><path d="M149.15 172.47l.04.23c0-.02 0-.03-.01-.04 0-.06-.02-.13-.03-.2zm26.3 65.97l.03-.04c-.01.01-.02.01-.02.02-.01.01-.01.01-.01.02zm23.08-130.6l.48-.12c-.02-.02-.14.01-.48.12zm-5.6 46.87l-.07-.1c.05.07.06.1.07.1zm78.44 54.66l.5-.01h-.08l-.4.01zM362 146.8s1.5-1.28.9-2.48c-.6-1.1-1.73-.57-1.73-.57s.6-.97-.23-1.6c-.47-.36-2.82.58-5.24 1.78-1.94.97-6.9 2.8-7.8 3.3s.6-1.8 1.6-3.1c1-1.5.88-3.75-1.52-1.75s-4.68 3.24-5.28 3.84-3 2.8-4.1 4.8c-.5.95-.92 2.23-2.33 3.44l-.17-.34c-.3-.5-.9-.7-1.4-.5l-4.9 2.2c-.5.2-.7.9-.5 1.4l.07.14c-8.06 2.34-21.97 5.52-29.57 7.26-4.8 1.1-15.1 3.5-16.8 1.6-3.65-4.05-9.77-13.15-13.57-19l7.57-4.8s-9.4-15-16.4-24.9c-9.5-12.8-24.4-25.6-39.7-16.5-1.3.77-2.46 1.6-3.46 2.47-4.3.67-8.73 1.95-12.94 3.13-12.4 3.5-30.4 13.3-30.4 13.3l3.07 5.42c-4.18 1.93-9.82 4.73-16.57 8.58-4.8 2.8-10.1 7-11.6 11.4-1.8 5.3-1.2 13.7 1 27.8 3.3 20.9 9.7 42.8 9.7 42.8s-1.1 7 2.8 13.6c3.9 6.7 4.2 8 5 8.7.93.73 2.3.6 2.4.02.03-.2.13-.16.25 0 .4.55.87 1.22 1.85 1.08.5-.08 1.06-.52 1.2-.85.17-.37.17-.28.55-.15.3.1.87.15 1.24-.3.6-.6.23-2.65-.4-5.5-.47-2.13-.6-7.5-.8-8.5s1.5 1.1 2.5 2.4c1.2 1.4 3.1 2 1.9-.9s-1.8-5.4-2.1-6.2c-.4-.8-1.6-3.8-3.1-5.4-1-1.1-3.3-2.4-3.8-5.8-1-5.8-.3-21.9.1-31.8.3-7.1.5-18.6 2.8-19.8 5.4-2.8 13.65-6 18.32-7.76l7.28 12.86 3.1-1.74-9.2 48.24h79.3l-1-18.1c1.77.84 3.87 1.38 6.7 1.6 7.9.5 20.2-3.9 33.1-10 9.6-4.5 18.8-9.5 25.27-13.22a1.13 1.13 0 0 0 1.33.42l4.7-2.5c.5-.3.7-.9.5-1.4l-.14-.27 2.84-1.73s7-1 12.2-6.7 6-6.34 6.4-7.34c.7-1.72-.8-2.1-.8-2.1zm-60.24 39.18l.23-.1c-.02.01-.03.01-.04.02-.07.02-.13.06-.2.08z" fill="#fff"/><path d="M362.9 146.54l.08-.08.2-.3c.13-.2.26-.44.33-.72.2-.52.08-1.34-.4-1.84-.15-.16-.33-.3-.55-.42-.2-.1-.5-.16-.47-.15-.06 0-.13.01-.18.03.03-.05.05-.12.06-.18v-.03l-.02-.16c-.02-.12-.06-.26-.12-.38-.1-.24-.3-.48-.53-.66-.27-.18-.6-.24-.92-.2a5.06 5.06 0 0 0-.65.12 9.51 9.51 0 0 0-1.14.37l-2.14.92-2.05.98-2.1.9-3.3 1.38-.18.1c-.1.02-.04-.1-.02-.14.05-.12.12-.23.2-.35l.36-.54.67-.95a4.16 4.16 0 0 0 .49-1.2c.1-.35.16-1.12-.2-1.56-.33-.5-1.08-.43-1.55-.22-.48.22-.75.45-1.08.7-1.13.95-2.33 1.8-3.55 2.6-.6.43-1.23.76-1.85 1.34l-1.55 1.54c-1 1.06-1.98 2.13-2.7 3.44l-.32.46c-.12.08-.4.85-.8 1.5-.17.28-.36.53-.55.74-.46-.5-1.2-.7-1.85-.45l-4.88 2.2c-.37.15-.66.47-.8.9-.07.2-.1.42-.08.63-4.1 1.18-7.9 2.22-12.44 3.3l-12.4 2.86c-4.64 1.1-9.33 2.28-12.8 2.87-1.2.22-2.46.4-3.72.5-1.23.08-2.6.15-3.66-.26-.26-.12-.36-.2-.6-.5l-.64-.75c-.43-.5-.82-1.04-1.24-1.56a113.08 113.08 0 0 1-2.38-3.25c-1.6-2.25-3.14-4.54-4.66-6.8-.94-1.2-2.1-2.62-2.37-2.5-.24.12.54 1.65 1.3 3 .58.86 1 1.52 1.02 1.6 1.5 2.15 3.28 4.72 5.04 7.03.88 1.16 1.75 2.25 2.57 3.2.2.23.4.46.6.68.1.12.16.2.3.34s.3.23.45.32c.6.3 1.12.33 1.57.37h-.25c1.02.08 1.64.04 2.3.02.66-.03 1.34-.07 2.4-.23.12 0 .27-.01.25-.01 2.07-.35 6-1.05 7.63-1.47l.12.04 4.03-.93-1.5.33c.48-.3 3.07-.58 5.97-1.38 2.74-.6 5.46-1.66 8.3-2.25 1.33-.4-1.16.42.85-.13.1.08-.93.3-.4.23 1.97-.52 3.28-.7 5.7-1.36l.12.05c3.15-.93 6.03-1.45 8.1-2.16l.73-.22.74 1.47c-.2.7-.2 1.44.14 2.1l2 4.2c.4.77 1.05 1.32 1.82 1.56l.4.8c-3.2 1.83-5.76 3.38-8.98 5.02.22-.02-1.83 1.02-1.27.85-3.9 2.2-7.35 3.56-8.65 4.58-1.82.9-2.2 1-3.16 1.43l.43-.22-7.02 3.3c-1.28.6-1.42.85-3.76 1.8.73-.37-.22.04-1.1.4.56-.24.72-.34-.45.1a6.36 6.36 0 0 1-.63.3c-.01 0-.06.01-.04 0-1.46.6-1.2.52-.5.26-.03.02.03.01.25-.06-1.55.55-4.27 1.65-4.5 1.6-4.46 1.62-7.7 2.67-11.57 3.44-.45.02.45-.2 1.57-.44-.9.2-1.82.38-2.74.5.01-.08 1.57-.3 2.4-.5-3.26.5-6.78 1.27-10.6.4-.26-.03-.53-.05-.8-.1l-.22-.07c0 .04-.85-.13-1.4-.3-.25-.12-.22-.16-.36-.25s-.44-.2-1.3-.62c-.65-.37-1.56-.9-2.46-1.58-.9-.67-1.8-1.46-2.54-2.14.77.75.5.54.14.24-.7-.67-1.05-1.12-1.6-1.63v-.1c-.14-.05-1.84-1.82-2.1-2.03-.33-.45 1.08 1.05 1.28 1.2-1.35-1.4-1.66-1.77-2-2.13-.3-.37-.67-.7-1.93-2.2-1.4-1.54.18.35-.53-.36a76.18 76.18 0 0 1-1.79-2.11c-.6-.72-1.2-1.5-1.82-2.34l.34.58c-2.17-2.7-3.35-4.4-4.6-6.34l-4.03-5.7c.1-.07.18-.13.26-.2.47.04 2.4-1.5 3.13-1.84l-.05.06c1.65-1.3 3.75-2.16 5.35-3.4-.05.06-.05.15-.44.4 1.23-.82 2.9-1.95 3.08-1.87 2.95-1.92 7.14-4.5 8.9-5.92l-.1.12c1-.84 1.4-.9 2.56-1.76.08-.02.17-.07.16-.05 1.1-.9 3.44-2.2 4.35-2.88l.12.05 2.34-1.5-.9.54c.07-.23.54-.47 1.2-.8.44-.24 1.04-.58 1.64-.95.07-.05.17-.1.2-.14l-.14-.23c-.1-.15-.2-.3-.3-.47-.2-.32-.43-.64-.65-.95-1.02-1.7-2.6-2.92-3.55-4.67-.63-.7.64.57-.2-.55.1-.12.44.5.35.12-.8-1.12-1.08-2-2.1-3.35l.07-.13c-1.4-1.74-2.15-3.6-3.14-4.7-1.35-1.85-.54-1.48-2.06-3.33l-.38-.86c-.54-.86-.58-.5-1.14-1.47.13 0-.73-1.23-.28-.74-1.32-2.2-3.08-4.2-5-7.02-.62-.45-1.63-1.84-2.1-2.15.02-.14-2.28-2.56-.84-1.27.12.1.3.33.27.34l.24.1c-1.13-1.6-2.5-2.52-3.85-3.9.38.43.93.96.5.66-.42-.43-.85-.84-1.28-1.25l.34.18c-.63-.63-1.3-1.23-1.95-1.83l.2.34c-.95-.9-1.18-1.36-2.47-2.13-.6-.32.88.9-.24.08-1.34-1.13-3.48-2.7-5.5-3.76.12.23-.4-.07-1-.3v-.14c-1.13-.42-1.32-.56-1.5-.7-.18-.13-.34-.33-1.52-.64l-.46.03c-2.15-.34-1.06-.62-3.52-.74.95.13.4.32-.75.12l.3-.08c-.65-.07-.87-.03-1.3-.08.4-.04.22-.16-.74-.2l.65-.1c-.6.02-1.22.1-1.83.18-1.42-.12-3.6.38-4.2.4 0 0-.75.13-1.55.4-.82.22-1.66.64-1.95.83.5-.35-1.03.28-.65-.03-.68.42-2.65 1.6-3.46 2.04l.14-.1c-.72.46-1.4.86-2 1.34l-1.05.98c-.1 0-.2.01-.33.02a2.52 2.52 0 0 1-.42.15c-.01-.01-.04-.01-.03-.02-.97.23-.8.23-.34.15-.02.02.02.03.17.03-1.04.04-2.8.6-2.96.45-2.9.72-4.87 1.5-7.22 2.2-.3-.02.24-.25.92-.48l-1.67.5c-.02-.13.94-.34 1.45-.5-2.05.33-4.08 1.4-6.45 2.03l-.44.27-.14.03c.03.05-.46.3-.8.46-.36.01-.07-.26-1.2.17-.93.25-2.5 1.04-3.64 1.6.63-.24.45-.1.2.05-.55.24-.92.27-1.33.5l-.12-.12c.27.04-1.4.77-1.56.92-.36.03.82-.47.92-.6-2.2 1-1.1.48-3.3 1.5-1.13.64.28.04-.23.42-1.03.5-1.98 1.07-3.2 1.54l.43-.05c-1.88 1-3.04 1.56-4.4 2.08-3.3 1.98-5.13 3.2-6 3.88-.4-.5-.56-.48-.34.28-.55.5-.38.57.1.4.01 0 .01 0 .02-.01.38 1.1 1.24 3.12 2.77 6.44l-.1-.1c1.45 2.8 2.4 4.54 3.7 6.32-.08.44 1.25 2.27 1.53 2.96l-.05-.05c1.14 1.56 1.8 3.54 2.88 5.05-.06-.05-.14-.05-.36-.42.7 1.16 1.66 2.73 1.57 2.9l2.8 4.85c-1.74.63-3.5 1.24-5.08 1.95.1-.05.14-.12.75-.36-1.94.78-4.56 1.9-4.74 1.88-2.3.98-5.04 2.17-7.52 3.43-.33.17-.58.28-.96.5-.42.3-.65.64-.82.97-.35.66-.52 1.3-.67 1.9-.28 1.2-.4 2.23-.48 3.03v-.22c-.13 1.83-.27 2.36-.38 4.4l-.04.23c-.05 2-.3 5.8-.3 7.4l-.07.1-.14 3.94.07-1.47c.16.52-.24 2.98-.23 5.84-.12 2.68.18 5.44.02 8.22.05 1.33-.1-1.17-.1.8-.1.06-.04-.93-.13-.42 0 1.95-.17 3.2-.13 5.6l-.08.1c.1 3.13-.07 5.92.18 8.02l.16 2.74c.02.28.04.57.1 1 .08.43.18 1.04.56 1.86a7.79 7.79 0 0 0 .57 1.29c.43.65.65.83.86 1.03l1.03.98c-.06-.01.32.34.58.6s.42.47.1.2c1.1 1.2 1.94 2.84 2.78 4.6l.33.7c.07.12.15.4.23.63l.46 1.5 1.05 3.26c.12.23.27.55.42.9.06.16.15.35.2.5l.07.23.03.1c.03.12-.01.3-.14.28-.1 0-.2-.04-.27-.05.01-.01-.22-.16-.5-.4a3.33 3.33 0 0 1-.4-.43l-.4-.54-.58-.76c-.03-.05.03.01.15.15l.5.56c.15.18.4.5.37.5a1.38 1.38 0 0 0 .23.16c-.16-.2-.37-.52-.57-.77l-.3-.4-.53-.63c-.4-.44-.8-.88-1.14-1.07-.27-.13-.44-.18-.64-.15-.02 0-.03-.01-.05-.01 0 0-2.2.1-4.3-1.8-1.8-1.6-1.5-4.3-1.5-4.3.1-.3-.1-.6-.4-.6-.3-.1-.6.1-.6.4 0 .1-.4 3.2 1.9 5.2 1.7 1.55 3.46 1.96 4.36 2.06-.01.14-.02.3.02.5l.1.86.1 1.2.07 1c-.03-.8-.1-1.85-.01-1.15l.16 2.5-.1-.52c.08 1.24.16 2.48.35 3.76v-.54c.1.95.24 1.57.34 2.18l.4 2.24c.17.88-.1-1.65.15.17a5.75 5.75 0 0 1 .01.83c-.01.27-.1.54-.15.56l-.03.03c-.1.1-.2.15-.4.13-.1-.01-.16-.03-.33-.1-.02-.01-.04-.02-.07-.03l-3.6-9.98 2.56-1.06c.2-.2.3-.5.2-.7-.2-.2-.5-.3-.7-.2-.1 0-.7.3-3.3 1.3-1.2.4-2.1.6-3.1.8-.2.1-.5.1-.8.2s-.5.3-.4.6c.1.2.3.4.5.4l.1.1c.3-.1.5-.1.8-.2a5.66 5.66 0 0 1 .4-.08c-.02.1-.02.18.01.27l3.05 8.58c-.01.01-.02.01-.03.02-.08.1-.18.2-.15.22l-.01.07-.03.01c-.04.01-.1.02-.17.03.1.03.02.07-.18.08-.2 0-.53-.06-.8-.22l-.02-.1c-.4-.25-.65-.78-.8-1.02-.14-.27-.2-.42-.24-.56-.1-.28-.2-.56-1-2l-.37-.46c-1.56-2.52-.63-1.48-2.44-4.23.67 1.12.14.6-.6-.78l.25.3c-.42-.75-.6-.98-.8-1.5.25.45.2.2-.3-.94.12.26.28.5.42.74-.2-.35-.37-.7-.52-1.07-.16-.36-.33-.73-.46-1.1-.27-.88-.53-2.05-.7-3.1-.17-1.04-.25-1.96-.2-2.34 0 0-.03-.56-.04-1.3 0-.37.01-.8.03-1.2.01-.2.03-.42.04-.62.01-.1.02-.2.02-.3.02-.14.03-.28.05-.4l-.24-.77a5.98 5.98 0 0 0-.16-.44c.3.77-.3-1.4-.04-.8-.36-1-1.24-3.98-1.47-5.2l.07.23c-1.1-4.47-2.08-7.6-2.93-11.65-.04.2-.5-1.93-.48-1.38-1.07-4.14-1.48-7.66-2.12-9.1-.42-1.9-.4-2.27-.56-3.26l.1.45-1.38-7.28c-.25-1.33-.45-1.5-.8-3.9.18.76.02-.2-.12-1.1.1.57.15.74.01-.44a9.94 9.94 0 0 1-.14-.65c0-.01 0-.06.01-.03-.24-1.5-.22-1.23-.13-.53-.01-.03-.02.03 0 .24-.15-1.56-.62-4.33-.53-4.53-.6-4.5-1.03-7.72-1.16-11.5.05-.42.1.46.17 1.55-.04-.9-.07-1.78-.07-2.67.08.02.04 1.53.1 2.35 0-1.6-.03-3.22.06-4.9.1-1.68.3-3.46.96-5.16l.22-.7.1-.2c-.04 0 .28-.76.57-1.22.34-.4.08.1 1.16-1.35.9-1.1 2.75-3.03 4.25-4.2-.8.63-.57.4-.25.1.72-.57 1.2-.83 1.75-1.27l.1.02c.05-.13 1.98-1.45 2.24-1.62.48-.22-1.18.82-1.33 1 3.1-2 1.54-1 4.76-2.86 1.7-1.03-.36.1.43-.44 1.53-.86 3-1.74 4.8-2.62l-.6.22 2.86-1.53c1.16-.7 2.3-1.47 2.24-1.7-.15-.44-5.3 2.27-5.3 2.27a207.63 207.63 0 0 0-5.42 3.04c-1.94 1.1-4.12 2.4-6.43 4.18-2.05 1.55-3.6 3-4.83 4.46-1.2 1.46-2.15 2.94-2.65 4.6-1 3.26-1.2 6.7-.85 11.97.32 5.04 1.12 10.34 1.88 15.18.48 2.28 1.05 6.35 1.68 9.03l.13 1.06c.22.92.45 2 .6 2.95l-.03-.05c.34 1.38.63 2.95.8 3.63l-.03-.05.38 1.68-.1-.28 1.65 7.07.04-.2c1.02 4.68 1.62 6.34 2.6 10.56l-.04-.05a122.31 122.31 0 0 1 1.22 4.26l.97 3.7-.01.04-.02.18-.04.35a16.46 16.46 0 0 0-.05.7 17.35 17.35 0 0 0-.02 1.45c.02 1 .12 2.05.33 3.2-.13-.7 0 .3-.03.26.22 1.3.57 2.65.93 3.63.37.98.7 1.63.78 1.6.8 1.76.65 1.43.7 1.7.03-.03.25.34.56.85.3.5.7 1.17 1.07 1.8l-.36-.57 2.07 3.67-.27-.8c1.03 2 .12.58 1.16 2.46l.1-.08c.37.7.64 1.32 1.12 1.9.56.58 1.24.82 1.98.85.35.03.9-.17.86-.23.02-.02.02-.05.03-.07.02-.03.06 0 .07.03l.1.17.05.07c.05.05.1.13.2.2a2.34 2.34 0 0 0 .55.39 2 2 0 0 0 1.47.12 2.75 2.75 0 0 0 .76-.4 2.16 2.16 0 0 0 .51-.53 2.41 2.41 0 0 0 .37.07c.47.06 1.08-.13 1.42-.55.44-.53.43-1 .46-1.4.01-.4-.02-.8-.07-1.17-.1-.75-.23-1.47-.38-2.2-.15-.73-.33-1.42-.43-2.1-.1-.7-.17-1.4-.24-2.13l-.3-3.85a2.6 2.6 0 0 0-.05-.39c0-.03-.02-.07 0-.1s.06 0 .08.01c.05.03.1.08.14.12.22.23.2.2.8.92.22.27.42.56.73.87.3.3.54.5 1 .77.5.26 1.07.4 1.5.1.4-.33.42-.9.32-1.45-.2-.9-.52-1.44-.76-2.1a35.38 35.38 0 0 1-.69-1.97l-.6-1.98-.3-1c-.03-.1-.04-.16-.1-.3l-.1-.23-.2-.46c-.56-1.25-1.14-2.5-1.9-3.65-.07-.17-.16-.33-.24-.5-.01-.12-.6-.83-1.28-1.35-.66-.52-1.27-1.05-1.35-1.25-.3-.3-.57-.62-.8-.97-.18-.3-.47-.98-.17-.44-.5-1.03-.47-1.07-.7-1.88-.06-.4-.08-.87-.1-1.3-.42-4.82-.47-9.03-.38-14.2l.84-24.66c.1-2.36.26-4.82.68-7.28.23-1.2.5-2.5 1.05-3.46.14-.23.3-.43.46-.5l.86-.42a54.94 54.94 0 0 1 1.74-.81c4.68-2.1 9.52-3.95 14-5.8a8.92 8.92 0 0 0 .64-.25c.08-.03.15-.07.22-.1.64 1.08 1.24 2.02 1.7 2.64l-.1-.1c.74.94.77 1.3 1.5 2.4.02.07.05.16.04.15.8 1.03 1.87 3.25 2.45 4.1l-.06.1 1.4 2.4-.55-1.03c.1.03.2.16.32.36.12.2.33.64.55 1.1l.38.76c.02.1.1.06.16.02l.2-.1c.13-.07.27-.14.4-.2l.87-.48c.1-.07.23-.14.35-.2-.76 3.7-1.48 7.4-2.02 10.93-.1.34-.2 1.24-.17 1.24l-1.86 9.68s-8.95 46.95-.46 11.6v.25c1.1-5.28 1.77-8.62 2.23-12.32.4-.53.85-4.35 1.18-5.58v.12c.4-3.27 1.44-6.63 1.83-9.8 0 .12.06.2-.07.92.4-2.28.92-5.4 1.1-5.54.98-5.44 2.5-13 2.88-16.52v.25c.2-2 .46-2.57.8-4.8.04-.12.1-.27.1-.25.26-2.2 1.1-6.3 1.32-8.06l.13-.1c.12-.7.22-1.44.37-2.15l.46-2.12-.38 1.58c-.1-.3.14-1.1.45-2.2.33-1.1.65-2.53 1.02-4.06.44-1.4.64-2.9 1-4.38.4-1.46.73-2.97 1.4-4.36.03-.08.07-.2.1-.32-.02.14-.03.27-.05.38 0 0 4.06-10.46 6.58-11.17.06-.02.1-.01.17.02.67-.67 1.42-1.26 2.53-1.96l-.01.05c1.4-1.23 2.76-1.87 4.13-2.4 1.4-.5 2.8-.9 4.64-1.37-.46.1.2.04.18.08 1.7-.3 3.58-.26 3.62-.52 1.3.1 1.04.17 1.2.3 0-.12 1.13-.05 2.1.17l-.46-.04a16.82 16.82 0 0 1 1.41.3c.47.1.93.24 1.4.4l-.47-.4c1.45.56.3.36 1.7.84l.05-.2c1.98.84 2.97 1.7 4.66 2.87 7.26 4.58 13.85 11.6 18.07 18.54l.08.38c-.1.25 1.53 1.7 1.54 2.06l.6.74c.12.24.4.74.1.37.48.74.53.73.93 1.23l.4.86c1.83 2.95 3.66 5.3 5.6 8.4.54.96 1.23 2.1 2 3.35l1.22 1.93.64 1 .2.3c-.03.17-.08.12-.92.7l-1.94 1.3-3.42 2.3c-5.5 3.86-12.54 7.32-18.15 11.3-.2.1-.66.46-.64.48l-5.33 3.34s-9.56 6.02-12.4 8.28c-.6-1.38-1.82-3.62-1.82-3.62-1.56-3.03-2.82-5.28-4.18-7.66s-2.8-4.9-4.6-8.52c-1.5-3.22-2.3-5.32-3.1-7.44 0 0-3.3-8.45-3.84-8.32s2.12 9.45 2.12 9.45l.3.47.05.15c.05-.03.35.5.53.85.04.4-.26.08.27 1.3.2.57.57 1.36.98 2.16.3.6.65 1.2.93 1.72-.3-.67-.14-.5.04-.22.3.6.35 1 .6 1.42l-.1.13c.02-.3.9 1.48 1.07 1.67.06.4-.54-.87-.7-.98 1.2 2.36.58 1.2 1.8 3.53.75 1.2.02-.3.45.24.6 1.1 1.26 2.1 1.84 3.42l-.1-.46c1.2 2 1.85 3.24 2.5 4.68 2.33 3.57 3.74 5.5 4.5 6.42-.48.43-.48.6.28.3.55.6.62.4.42-.12 0-.01-.01-.02-.01-.03 1.14-.47 3.3-1.55 6.9-3.46l-.1.12c2.54-1.5 4.25-2.54 5.87-3.73l.8 1.3c2.68 4.33 4.96 7.46 7.5 10.7 2.57 3.2 5.35 6.56 9.68 10.82 1.86 1.86 3.56 3.34 5.34 4.3.07.83.18 1.5.37 2 .15 2.15.01 2.56.05 3.68l-.06-.5.5 8.2c.07.75.17 1.18.27 1.76.05.3.1.62.13 1.04l.04.5c0 .15.01.3.02.5-.07-.3-.1-.26-.1-.12.05.1-.13.05-.22.06h-.36c.16-.01.25-.02.22-.04-.01-.01-.06-.02-.13-.04-.04-.01-.08-.01-.13-.02-.03 0-.05-.01-.08-.01-.07 0-.15-.01-.23-.01-.2.03-.47.05-.74.07-.01-.01-.06-.01-.04-.03-1.68.04-1.4.07-.6.08-.04.02.03.04.27.07-1.74-.14-4.86.01-5.07-.17-5.05.04-8.66.23-12.86.3-.47-.1.5-.18 1.73-.2l-2.98.03c.03-.13 1.7-.08 2.63-.1-3.55-.22-7.32.22-11.48.02l-.86.1-.25-.02c.01.06-.92.13-1.54.15-.6-.12.04-.27-2.02-.26-1.63-.1-4.63.06-6.76.12 1.15.02.78.08.28.13-1.03 0-1.62-.1-2.42-.06l-.08-.12c-.14.12-2.75.13-3.1.2-.6-.12 1.6-.1 1.86-.2l-6.2.02c-2.2.12.4.15-.65.3-1.95.03-3.84.14-6.08.05l.7.14c-3.66.1-5.84.1-8.3-.05-27.24 1.14-5.74 1.56-5.74 1.56 10.72.3 16.26-.1 29.02-.2 11.22.07 14.2.34 25.82.23l8.5-.02 9.5-.06c.13-.02.34.03.4-.06-.01-.16-.03-.33-.04-.5l-.08-1.03-.12-1.72-.15-2.66c-.1-1.84-.2-3.73-.37-5.25l.05-1.2c-.12-1.04-.23-2.27-.23-3.33l.04.06a55.84 55.84 0 0 1-.2-2.41 16.96 16.96 0 0 0 3.16.83c1.72.3 3.52.42 5.55.27 2.02-.15 4.28-.52 6.98-1.2 5.16-1.27 10.44-3.26 15.17-5.28 2.2-1.05 6.2-2.7 8.74-4.05l1.04-.4c.88-.46 1.92-.98 2.84-1.4l-.05.05c1.3-.7 2.82-1.42 3.47-1.78l-.05.05 1.6-.82-.26.17 6.72-3.56h-.2c4.15-2.14 5.76-3.2 9.17-5.08a1.58 1.58 0 0 0 .94.31 1.71 1.71 0 0 0 .65-.13l4.72-2.5c.63-.38.93-1.1.76-1.8.13-.08.26-.15.4-.22l2.02-1.2.43-.08c.18-.04.37-.08.56-.13a12.86 12.86 0 0 0 1.13-.32c.76-.24 1.55-.54 2.36-.92-.68.32.3-.08.27-.04a23.76 23.76 0 0 0 3.45-1.89c.9-.63 1.47-1.13 1.43-1.22 1.57-1.26 1.28-1.03 1.54-1.14-.02-.02.28-.34.7-.8.45-.46.97-1.08 1.5-1.64l-.46.54 2.98-3.27-.7.54c1.62-1.7.53-.3 2.03-2l-.1-.06c.58-.65 1.15-1.2 1.53-1.93.17-.36.32-.74.3-1.2a1.79 1.79 0 0 0-.14-.67 1.85 1.85 0 0 0-.32-.46c-.06-.06-.12-.1-.2-.13-.05-.1.08-.17.12-.22zm-190.88 92.1c-.1.04-.23.04-.36.03-.12-.02-.22-.05-.33-.12-.05-.04-.1-.08-.16-.13s-.1-.1-.25-.3a2.32 2.32 0 0 0-.4-.46l-3.16-8.9c-.02-.05-.05-.1-.08-.13.6-.14 1.22-.32 1.94-.6l3.57 9.9c-.1.13-.1.18-.14.25-.04.08-.4.37-.63.43zm38.62-126.13c-1.7 3.1-3.2 8.3-4.46 13.25l-.8 3.73-.38 1.83-.28 1.8-1 6.4c-.98 6.22-2.5 12.97-3.9 19.67l-.9.52-.48.27-.18.1-.12.08c-.04.03-.1.08-.1.01l-.16-.24-1.08-1.8-1.96-3.23c-3.3-5.2-6.08-11.83-9.5-17.13a2.81 2.81 0 0 0-.41-.61l-2.8-5.03s-4.98-8.86-6.98-11.64c1.3-.5 3.35-1.46 3.35-1.46 5.7-2.53 8.4-4.33 15.17-7.36 3-1.23 4.97-1.88 6.94-2.5 1.98-.64 3.96-1.2 7.23-2.15l6.32-1.62c-.12.15-.24.3-.37.44l-.64.95c.2-.04-.73 1.32-.36 1.06-.63 1.46-1.58 2.6-1.88 3.77a3.1 3.1 0 0 0-.17.7.67.67 0 0 0-.11.18zM329.76 157c-.05-.13-.05-.3 0-.45.05-.14.13-.24.24-.3l4.88-2.2a.65.65 0 0 1 .77.26l.46.93c-.2.03-.37.1-.53.2l-4.2 2a3.2 3.2 0 0 0-.99.79l-.62-1.25zm3.1 8.2l-2-4.2c-.46-.93-.02-2.13.97-2.62l4.26-2.04c.17-.12.48-.12.72-.12.75 0 1.4.42 1.75 1.1l2 4.2c.22.44.25 1 .07 1.52-.15.44-.54.86-1.04 1.1l-4.26 2.04c-.17.1-.34.12-.72.12-.75 0-1.4-.42-1.75-1.12zm7.9.67l-4.65 2.48a.65.65 0 0 1-.77-.26l-.4-.78c.3-.01.6-.06.86-.24l4.2-2c.28-.14.52-.32.74-.5l.28.55a.65.65 0 0 1-.28.76zm21.56-17.42l-.1.05c-.2.63-.57 1-.76 1.23-.22.24-.34.34-.45.44-.24.2-.47.4-1.6 1.68l.17-.26-.5.77c-2 2.36-1.25 1.14-3.42 3.77.9-.97.56-.33-.6.8.1-.1.16-.23.24-.34-.63.64-.85.85-1.3 1.23.4-.38.16-.25-.88.57l.64-.6c-.62.55-1.27 1.07-1.95 1.56-.83.5-1.94 1.08-2.95 1.53-1 .46-1.93.75-2.32.83l-.74.2c-.22.06-.5.13-.77.2-.14.03-.3.06-.44.1-.17.03-.23.05-.58.1l-1.44.9c-.4.26-.73.47-.9.6.27-.2.13-.13-.1-.01l-.07-.13c.05-.1.1-.2.14-.3.26-.77.2-1.6-.12-2.27l-2-4.2c-.45-.9-1.28-1.5-2.22-1.64l-.33-.67c.15-.15.35-.35.6-.63-.01.06.36-.37.6-.75.25-.37.4-.66.18-.2.27-.43.5-.88.7-1.3a9.75 9.75 0 0 1 .68-1.16c.52-.76 1.15-1.5 1.83-2.26.34-.37.7-.75 1.08-1.12l.58-.57c.15-.13.37-.3.6-.45l2.97-1.97c.4-.36 1.14-.96 1.78-1.5.75-.58.88-.56 1.03-.45 0 .03.04.1.01.32-.04.32-.2.8-.4 1.1-.18.3-.46.6-.5.65-.02.02-.01-.01.07-.13.06-.1.25-.34.35-.56.1-.16.23-.5.24-.47.01-.1.02-.2.02-.28a2.83 2.83 0 0 1-.36.74c-.13.2-.4.52-.57.78l-.3.42c-.16.25-.34.5-.5.77-.3.5-.6 1.03-.64 1.4-.03.18-.01.32.02.45.04.12.06.25.23.38.1.06.16.06.3.08l.2.02c.07 0 .22-.04.32-.06.2-.02.5-.16.8-.3s.56-.25.83-.36l1.1-.45c-.5.16-2.62 1.07-1.36.48l2.65-1.06-.48.26c1.2-.47 2.42-.95 3.63-1.47l-.53.15c1.82-.74 2.4-1 4.3-1.88.86-.4-1.67.55.14-.2.3-.1.62-.2.94-.28a2.89 2.89 0 0 1 .47-.08c.08 0 .13 0 .18.04.04.03.05.06.1.13a1.26 1.26 0 0 1 .03.1c0 .03.01.05 0 .1l-.06.24c.07.1.12.18.16.25-.01 0-.02 0-.03.01l-8.03 4.55c-.24.14-.33.44-.2.68a.5.5 0 0 0 .44.25c.08 0 .17-.02.25-.06l8.03-4.55c.07-.04.12-.1.17-.16.03.03.05.05.1.08a.73.73 0 0 1 .35-.02c.03.01.07.02.1.04a.45.45 0 0 1 .16.12c.1.13.18.27.18.42a1.03 1.03 0 0 1-.13.53c-.05.1-.1.2-.17.3l-.05.07a1.53 1.53 0 0 1-.13.16c-.06.07-.13.14-.2.2l-7.02 4.3a.49.49 0 0 0-.16.69c.1.15.26.24.43.24.1 0 .18-.02.26-.07l6.6-4.06c.03.08.06.18.1.3.06.04.1.07.16.1.06.04.1.07.1.07-.13-.2.3 0 .08.7z"/><path d="M238.8 97.9h.23zm121.87 87.77h.06l.3-.01-.37.01zM329 187.65l-.3.01.3-.01z"/></svg>