<svg xmlns="http://www.w3.org/2000/svg" viewBox="0 0 480 480" xmlns:v="https://vecta.io/nano"><path d="M346.65 111.43c.16-.5.1-.95-.36-1.4-.35-.38-.72-.5-1.1-.5l-.87-.98c.05-.4-.06-.76-.42-1.12-.4-.44-.84-.57-1.3-.5-.26-.2-.45-.27-.5-.2l-4.4 3.1c-.7.7.1-1.9.8-3.4.6-1.7 0-3.7-1.8-1.2s-3.7 4.4-4.1 5.1-2.3 3.4-2.9 5.5c-.4 1.4-.3 3.4-3 5.7-4.5 3.4-22.3 12.9-31.1 17.4-.75.4-1.65.82-2.6 1.24l-1.54-2.93-7.43 3.58c-1.15.24-2.23.28-3.02-.1-3-1.4-7.3-7-24.3-26-9.36-10.46-16.65-13.73-22.28-13.84-.68-.18-1.37-.32-2.07-.44.12-.23.57-1 1.56-2.32.82-1.1 1.78-2.4 2.4-4l2.3-1.2c1.2-.6 1.6-2.1 1-3.3l-7.65-14.6c-.02-.3-.06-.52-.15-.6a2.61 2.61 0 0 0-.27-.19l-2.73-5.2c-.6-1.2-2.1-1.6-3.3-1l-8.6 4.5c-1.2.6-1.6 2.1-1 3.3l3.48 6.63c-.67-.35-1.28-.03-1.28-.03.5 2.9.6 6.4.5 8.4 0 2.1 1 3.8.8 5.2-.04.3-.1.72-.2 1.3-.92-.06-1.88-.1-2.9-.1-15.3 0-21.7 9.9-28.4 23a44.64 44.64 0 0 0-1.74 3.87 165.87 165.87 0 0 0-2.23 5.15c-3.32 7.97-6.1 15.66-7.63 22.32l-7-.65-8.4 54.7c-1.3 12.2-1.9 29.7 35.6 33.9 33.7 3.8 40-6.4 42.4-24.7l.8-6.7h30.2l-.9-15.5h.3l-.8-12.9h-.3l-.27-3.9c7.36 2.73 13.6 2.94 19.27.7 3.76-1.48 8.13-4.2 11.68-6.64l.02.04 7.2-4.77-3.48-6.63c2.3-1.77 4.62-3.64 6.97-5.6 15.2-12.8 28.6-26.9 28.6-26.9s6.5-2.8 10.1-9.6c.74-.94-.25-3-1.64-4.98zM223.2 89.8c-.35-.14-.67-.6-1.02-1.06-.4-.62-.64-1.57-1.03-2.84l2.05 3.9z" fill="#fff"/><path d="M316.17 127.06l-.15.1c.01-.01.02-.01.03-.01.04-.03.08-.06.12-.08zm-60.72-14.7l.4.5c.01-.03-.1-.16-.4-.5zM161.5 223.5l.12.23c-.01-.02-.01-.03-.02-.04l-.1-.2zm18.55-87.9l-.05.17c0-.01.01-.02.01-.03.02-.05.03-.1.04-.14zm121.73 34.02l.01-.12zM219.76 76c.56-.47.86-1.34.45-2.02-.4-.7-1.4-1.13-2.2-.67a1.88 1.88 0 0 0-.76.93c-.16.44-.13.9.1 1.25.32.53.86.82 1.47.82a1.83 1.83 0 0 0 .55-.1c-.6.46-.94 1.36-.53 2.04.2.4.53.7.93.84a1.45 1.45 0 0 0 .47.08c.26 0 .52-.06.77-.2l.03-.02c.7-.4 1.13-1.4.67-2.2-.37-.63-1.22-1.05-1.95-.78zm-.7-.73c-.36.1-.7-.02-.86-.3-.08-.14-.04-.3-.01-.4a.83.83 0 0 1 .34-.42c.05-.03.12-.05.2-.05.22 0 .5.15.63.38.13.22-.02.6-.3.8zm1.8 2.4a.76.76 0 0 1-.32.4c-.17.08-.33.1-.46.05-.14-.05-.26-.16-.37-.37-.13-.22.03-.64.33-.8.05-.03.12-.05.2-.05.22 0 .5.15.63.38.07.13.03.3 0 .4z"/><path d="M349 115.45c-.02-.4-.13-.73-.23-1.04-.22-.62-.5-1.13-.76-1.56-.3-.5-.56-.84-.77-1.1.3-.7.3-1.43-.36-2.12-.12-.12-.24-.22-.38-.32-.17-.15-.38-.28-.6-.37a2.18 2.18 0 0 0-.34-.09l-.05-.01c-.02-.02-.01-.02-.03-.04l-.23-.28-.2-.23c.02.1-.01-.38-.1-.57-.07-.2-.14-.3-.14-.3a2.82 2.82 0 0 0-.94-1c-.2-.13-.45-.23-.7-.27a2.47 2.47 0 0 0-.34-.03h-.03s.02.01-.07-.04a1.29 1.29 0 0 0-.28-.12c-.07-.02-.15-.05-.3-.05-.13 0-.4.03-.64.26l.1-.08-2.9 1.95c.03-.01-.04.08-.04.01l.03-.1.08-.22.17-.44.18-.44c.1-.25.14-.42.2-.62a4.13 4.13 0 0 0 .1-1.31c-.06-.6-.33-1.3-.94-1.5-.6-.22-1.28.22-1.7.64-.3.32-.6.7-.8 1.03l-1.58 2.06-1.68 1.94c-.25.3-.53.6-.75 1l-.56.87c-.75 1.15-1.4 2.2-1.93 3.34-.26.57-.5 1.2-.65 1.87-.14.64-.25 1.23-.47 1.8-.42 1.14-1.25 2.36-2.74 3.4-2.98 2.02-6.43 4-9.55 5.8-1.43.96-4.14 2.3-5.87 3.37l-.73.3c-.6.36-1.3.78-1.94 1.08l.03-.04c-.9.54-1.95 1.07-2.4 1.34l.03-.04-1.12.6.18-.13c-.5.3-1 .57-1.53.85-.58.43-4.1 3.05-3.94 3.2.1.1 1.3-.46 2.43-1 .02-.02.01-.03-.06-.02 2.75-1.57 5.2-2.5 6.06-3.35 1.26-.7 1.54-.74 2.2-1.08l-.3.18 4.8-2.65c.86-.52.92-.73 2.5-1.57-.48.34.16-.03.74-.36-.37.22-.47.3.32-.1.1-.08.26-.18.4-.28.01 0 .04-.01.03 0 .96-.58.78-.5.33-.25.02-.02-.03-.01-.17.05 1.05-.5 2.8-1.63 2.98-1.6 1.45-.87 2.67-1.65 3.8-2.42 1.12-.78 2.28-1.52 3.2-2.67.2-.17 0 .16-.4.6.37-.38.7-.78 1-1.23.07.06-.47.75-.92 1.22.83-.8 1.52-1.83 1.86-3.03.2-.65.28-1.32.42-1.94.14-.6.4-1.2.7-1.8l.2-.53.1-.14c-.04-.01.2-.57.4-.93.26-.3.1.1.83-1.06a12.37 12.37 0 0 0 .53-.8c.2-.35.35-.6.6-.92l1.48-1.86c-.5.58-.38.36-.18.1.44-.53.75-.8 1.06-1.23l.12.01c-.23.17 1.04-1.5 1.14-1.72.3-.27-.58.9-.65 1.06.84-1.14 1-1.35 1.23-1.58.07-.06.13-.12.26-.2.07-.02.16-.06.26 0 .1.07.15.2.17.37.05.53.04.56.08.4.03-.14.07-.38.1-.06a4.01 4.01 0 0 1-.14.9c-.07.26-.24.6-.35.9-.2.55-.58 1.52-.7 2.3a4.89 4.89 0 0 1 .19-.58 4.12 4.12 0 0 0-.12.85v.07c-.43-.73-.9.6-.8.68 0 0 1.5 2.8.1 5.4s-3.1 3-3.2 3c-.3.1-.5.3-.4.6s.3.5.6.4c.1 0 2.3-.4 3.9-3.5.72-1.34.8-2.7.66-3.83.03.04.06.1.1.13.3.4.7.6 1.2.6h.1c.23 0 .48-.06.76-.16-.3.7-.3 1.43.34 2.16.3.4.7.6 1.2.6h.1c.13 0 .3-.04.44-.08-.34.64-.38 1.33.26 2.08.3.3.7.5 1.2.5.8 0 1.7-.5 2.8-1.5.53-.48 1.22-1.15 1.57-1.88.08.44.08.98-.2 1.3h0l-.03.04c-.52.82-1.14 1.8-2 2.8l.07-.14c-1.1 1.38-2.13 2.38-3.1 3.24-.97.86-1.9 1.58-2.88 2.3-.14.01-.45.2-.84.4l-.63.35-.34.18-.42.2-.58.62c-.16.16-.3.3-.4.4l.05-.07c-1.43 1.67-3.24 3.15-4.65 4.72.05-.07.05-.13.4-.48-1.07 1.1-2.55 2.6-2.7 2.6l-7.97 7.82.1-.13c-.9 1-1.26 1.2-2.33 2.25l-.14.1c-1 1.07-3.15 2.88-4 3.7h-.1l-2.18 1.94.83-.7c-.17.38-1.72 1.38-3.26 2.83-1.5 1.27-2.8 2.88-4.47 4.1-.7.68.58-.65-.5.32-.1-.04.5-.48.15-.3-1.04.9-1.84 1.36-3.1 2.4-.16-.33-.1-.5-.2-.72l.1.1a26.53 26.53 0 0 1-.99-1.8c-.17-.23-.35-.25-.54-.5-.07-.12-.13-.24-.2-.36.2.14.05-.1-.07-.3.1.13.15.16.06-.16a.87.87 0 0 1-.15-.13c.01-.01.01-.02.02-.02-.23-.35-.22-.27-.15-.1-.02 0-.03.02-.03.1-.08-.45-.57-1.07-.44-1.2-.32-.56-.63-1.02-.93-1.46l-.72-1.26c.08.05.18.16.28.3l-.38-.64c.12-.06.27.34.4.53-.16-.66-.65-1.17-1.02-1.8 0-.04.02-.05.1.03a6.99 6.99 0 0 1-.22-.31c-.07-.14-.14-.28-.2-.43l-.17-.12c-.01-.02-.02-.03-.03-.05l-.01-.03c-.1-.12-.18-.25-.26-.38.06-.07.1-.13-.06-.45-.1-.4-.6-1-.9-1.44.1.2.04.22-.03.16-.05-.1-.1-.18-.14-.27-.03-.13-.05-.24-.14-.33l.13-.1c-.04.07-.13-.02-.22-.15-.06-.13-.13-.24-.2-.37.08.1.18.25.24.26l-.74-1.36c-.08-.1-.13-.14-.16-.15-.4-.74-.8-1.45-1.2-2.12-.02-.04-.05-.08-.07-.12l-.66-1.13c-.1-.15-.17-.3-.26-.45l-1.5-2.7c-1 .62-2.36 1.37-2.77 1.52.03.01.01.04-.03.08l-.52.13.03-.07c-1.26.48-2.04.83-2.77 1.44-.13-.1-.38.02-.64.16l-.54.3a10.62 10.62 0 0 1-.88.14c-.62.1-1.1.03-1.5.01-.17-.06-.32-.05-.5-.1-.18-.05-.35-.08-.52-.1-1.3-.84-1.38-1.25-1.98-1.8l.3.24c-2.23-2.07-2.82-2.8-4.38-4.5-.8-.82-1.14-.78-2.47-2.37.52.43-.05-.2-.57-.77.34.36.47.45-.15-.36-.12-.1-.28-.24-.43-.38 0-.01-.02-.05 0-.04-.9-.95-.76-.76-.37-.3-.03-.01-.01.04.1.2-.8-1.1-2.5-2.8-2.46-3.05-2.6-2.9-4.6-4.86-6.8-7.24-.17-.33.4.18 1.05.86l-1.56-1.7c.1-.07.94.94 1.43 1.45-1.67-2.2-3.9-4.1-5.94-6.6l-.54-.42-.12-.15c-.03.05-.6-.43-.93-.77-.23-.4.22-.17-.9-1.32-.42-.48-1.26-.63-1.98-1.25-.36-.3-.83-.68-1.2-1-.38-.3-1.63-.82-1.97-1.07.7.58.83 1.1.5.88-.63-.5 1.08 1.7 1.08 1.7l2 1.95c1.07 1.12 1.96 2.16 2.88 3.17l6.68 7.55 8.7 9.73c1.48 1.35 3.66 4.12 5.47 5.7l.57.75c.64.54 1.37 1.2 2.04 1.78h-.07a13.58 13.58 0 0 0 1.78 1.08c.76.3 1.4.35 1.76.35l-.06.04.88-.04.27-.04c.08.16.15.32.23.48.1.18.16.27.26.4-.03-.02-.1 0-.2-.15.3.5.72 1.16.6 1.28.67 1.2 1.5 2.94 2.14 3.6l-.07-.03c.4.36.32.56.67 1.02-.01.04 0 .08-.01.08.4.4.76 1.4 1.03 1.76l-.1.08.53.96-.17-.37c.34-.02.2.82.75 1.43.3.67 1.26 1.04 1.48 1.8.3.26-.36-.18 0 .26-.13.1-.2-.18-.25 0 .32.44.26.86.66 1.4l-.1.08c.6.66.6 1.52 1.07 1.93.5.74-.05.7.6 1.4l.02.4c.16.37.3.16.45.6-.1.03.18.53-.03.35.3.96 1.14 1.7 1.5 2.98.3.16.5.8.75.92-.06.07.6 1.18.08.6-.04-.05-.1-.15-.06-.16l-.15-.02c.14.77.74 1.15 1.05 1.82-.07-.2-.2-.47-.05-.33l.3.62-.16-.08.42.94.05-.18c.17.48.06.73.5 1.15.2.18-.07-.5.2-.05l.23.54c-2.13 1.42-4.32 2.83-6.6 4.1-2.35 1.3-4.76 2.48-7.3 3.06s-5.2.7-7.73.37c-2.55-.33-5-1.02-7.25-1.92l-.07-.06-.01.45-.08-.95-.2.5c-.02-1.28.26-.34.12-1.56l-.2.03c-.08-1.76.14-2.82.17-4.53l-.23-3.46h-.17c0-.07-.01-.15-.01-.2 0-.13 0-.2.01-.26.01-.1.04-.1.07-.16-.07.01-.17-.88-.24-1.68l.06.37-.2-2.3-.1.46c-.05-1.22.15-.32.02-1.5l-.12.02c-.1-1.7-.01-2.7-.05-4.33l-.1-1.43h.1c.03-.04-.01-.13-.01-.2-.04-.26-.07-.52-.1-.76-.03-.23-.07-.43-.1-.6V153c-.1-.56-.2-.9-.3-.9-.1-1.04.01-.83.1-.98-.12.02-.26-.84-.34-1.6l.08.35-.26-2.2-.2.46c-.05-1.18.26-.33.1-1.45l-.2.03c-.12-1.63.08-2.6.07-4.2-.03-.4-.14-.83-.2-1.25l-.34-1.77c.04-.36-.07-.54-.25-.62l-.05-.23-.13-.55-.28-1.1a49.06 49.06 0 0 0-.63-2.16 82.36 82.36 0 0 0-1.46-4.19l-.78-2c-.1-.26-.2-.52-.32-.8h.23c.05 0 .13.01.16-.01l-.24-.48-.65-1.27c-1-2-1.34-2.54-1.96-3.7a18.4 18.4 0 0 0-1.19-2.32c-.5-.85-1.05-1.76-1.68-2.62l-.93-1.3-.97-1.22-.92-1.13-.87-.96c-.4-.4-.77-.83-1.14-1.27-.4-.42-.8-.85-1.2-1.3-.77-.9-1.64-1.76-2.48-2.65-.87-.86-1.8-1.7-2.74-2.44-1-.7-1.95-1.43-3.02-1.9a1.47 1.47 0 0 0-.5-.22l-.9-.54c-.3-.17-.64-.3-.95-.47-.64-.3-1.27-.64-1.93-.9l-.8-.3c-.5-.16-1.2-.48-2.03-.65-.55-.1-1.15-.26-1.75-.38.01-.01.01-.02.02-.03.27-.4.5-.74.74-1.06.47-.64.92-1.2 1.5-2.1.27-.45.38-.75.53-1.13l.35-.86 2.3-1.2c.7-.35 1.2-.96 1.43-1.73.22-.74.14-1.54-.2-2.25l-7.62-14.53c-.02-.1-.04-.24-.08-.38-.03-.15-.12-.27-.2-.4-.06-.06-.13-.1-.2-.15l-2.7-5.14c-.7-1.42-2.5-1.97-3.98-1.22l-8.6 4.5c-.7.35-1.2.96-1.43 1.73-.22.74-.14 1.54.2 2.25l3.27 6.24c.52 0 1.25.3 1.77 1.63.24.6.43 1.16.6 1.68-.2-.53-.4-1.03-.58-1.45-.27-.63-.6-1.12-.96-1.36-.36-.26-.72-.27-.96-.2-.07.01-.12.03-.17.05-.08-.26-.14-.37-.16-.22-.01.07-.02.17-.02.32a2.22 2.22 0 0 1-.16.12c-.12.1-.2.16-.2.2-.02.06.13.02.36-.07.04 1.1.23 3.7-.05 8.7l-.04-.17c.15 1.94.9 3.4.72 4.5l-.03.2-1.4-.03.25-.04-1.57.02-1.57.1c-1.04.01-2.05.17-3 .27l.18.12c-1.02.06-1.85.3-2.6.46-.76.15-1.4.4-2.04.63-.64.22-1.26.45-1.9.77-.66.3-1.4.6-2.2 1.04l.03-.06c-1.96 1.3-3.37 2.47-4.8 3.64-1.35 1.26-2.7 2.58-3.96 4.6.32-.5-.2.16-.2.1-1.1 1.52-2.1 3.2-2.24 3.75l-.93 1.35c-1 1.47-1.76 2.75-2.5 4.02-1.24 2.16-2.44 4.4-4 8.07-1.54 3.5-3.02 7.25-4.3 10.74-.43 1.72-1.7 4.58-2.18 6.63l-.36.73c-.16.7-.4 1.52-.65 2.2l-.02-.05c-.23 1.06-.62 2.2-.7 2.74l-.02-.05-.33 1.27V149l-.35 1.63c-7.52-.52-8.66-.08-.28 1.33l-.52 2.47.17-.1c-.4 1.8-.52 3.06-.6 4.28-.05 1.22-.1 2.42-.1 4.1l-.04-.04c.3 2.1.43 3.76.75 5.45.32 1.67.78 3.42 2 5.32-.3-.48.05.25-.01.23.27.45.57.88.85 1.3a36.48 36.48 0 0 0 .87 1.08c.57.58 1 .95 1.1.86 1.06 1.04.8.9.87 1.12.1-.1 1.07.74 2.02 1.37l-.46-.27c.8.57 1.6 1.1 2.45 1.56l.04.12c.4.28.78.55 1.18.8l.18.26c.01.12.44.28.9.37.46.08.92.16 1 .3a4.48 4.48 0 0 0 .72.11c.2.1.6.23.23.2.65.16.67.17 1.16.17l.7.24c2.62.44 4.88.02 7.52-.57a17.19 17.19 0 0 0 5.94-2.36c.53-.3 1-.68 1.48-1 .24-.17.48-.35.7-.52a36.81 36.81 0 0 0 .64-.57l1.2-1.08.97-1.05c.42-.46.84-.92 1.22-1.43l1.24-1.5c.75-1.06 1.63-2.1 2.3-3.25 1.4-2.24 2.7-4.57 3.57-6.9.1-.13.2-.54.18-.55.63-1.37 1.23-2.75 1.8-4.14l.68-1.7c2.83.24 5.44.43 7.1.45l-.23.03c1.87-.01 2.4.2 4.5.3.1.03.26.06.23.06.2 0 .45.01.7.02.04.3.12.24.22.01l1.63.12c-.13.7-.24 1.57-.24 1.57-.46 3.3-.36 5-.63 8.95-.34 3.45-.58 4.35-.82 7.94l-.4 5.2c.06.8-.2 2.2-.17 3.14l-.1.36c.01.33 0 .7-.07 1.03l-.02-.02c.01.5-.07 1.03-.07 1.27l-.02-.02-.04.6v-.1c-.02.85-.1 1.7-.2 2.48l.1-.06c-.25 1.62-.13 2.24-.38 3.7v-.02c.06 1.88-.44 2.93-.4 4.87 0-.24-.05.1-.07.08-.06.9-.14 1.83.03 1.86-.07.64-.1.52-.18.6.08 0 .05.57 0 1.07l-.01-.23-.12 1.44.17-.27c-.12.76-.2.18-.23.9h.12c-.13 1.05-.37 1.66-.57 2.67-.52 4.24-.65 8.85-1.64 12.68l-.12.15c-.14.05-.06 1.1-.2 1.22l-.05.46c-.05.12-.14.38-.1.15-.1.4-.08.43-.1.73l-.2.4c-.28.78-.44 1.54-.7 2.27-.27.72-.48 1.5-.87 2.27-.27.45-.57 1-.88 1.63l-1.16 1.86-1.36 1.77c-.48.52-.96.98-1.35 1.4-.54.58-1.26 1-1.94 1.5-.7.45-1.52.8-2.28 1.18-.8.32-1.63.6-2.42.9-.8.26-1.63.48-2.4.77a1.21 1.21 0 0 0-.36.14c-.98.22-1.97.38-2.95.57 0 0-.22.06-.6.1l-3.3.4c-1.15-.06-2.4-.1-2.88-.06.84-.05-1.44-.27-.78-.36-1.08.06-4.26-.15-5.5-.46h.24c-4.63-.7-7.97-.95-11.98-2.16.15.2-1.96-.47-1.5-.15-4.26-1-7.23-3.04-8.85-3.25-1.73-.92-1.95-1.26-2.76-1.85l.4.23c-1.54-.96-2.43-1.73-3.22-2.4-.78-.7-1.42-1.38-2.27-2.4-.82-1.04-1.26-1-2.34-3.18.47.63-.05-.2-.4-1.04.25.52.36.66-.06-.44-.1-.14-.2-.38-.3-.6 0-.01-.01-.06.01-.04-.54-1.4-.45-1.16-.27-.48-.03-.03-.03.03.02.25-.2-.76-.5-1.8-.68-2.7-.17-.9-.28-1.65-.2-1.75-.3-2.25-.38-4.22-.36-6.1.03-1.88.14-3.68.34-5.6.15-.42.1.5.03 1.6l.28-2.73c.13.04-.1 1.57-.18 2.4.57-3.2.66-6.72 1.4-10.5l.01-.8.05-.22c-.06 0-.01-.86.06-1.43.2-.52.26.08.54-1.8.33-1.47.6-4.24.83-6.2-.18 1.05-.2.7-.16.24.14-.94.34-1.47.4-2.2l.13-.05c-.1-.15.26-2.53.25-2.86.2-.52-.13 1.48-.08 1.73l.87-5.67c.2-2.03-.2.34-.2-.64.25-1.78.42-3.54.84-5.56l-.24.62c.43-3.36.76-5.36 1.26-7.58 2.9-25.07-.7-5.5-.7-5.5-1.9 9.75-2.3 14.88-4 26.57l-1.95 11.66c-.52 3.3-1.13 6.62-1.6 12.07-.23 2.6-.32 5.35 0 8.1.3 2.74 1.06 5.46 2.24 7.85.66 1.08 1.55 2.6 2.68 3.98 1.1 1.42 2.5 2.65 3.7 3.5l.83.78 2.7 1.7h-.07l2 1.02c.63.3 1.17.58 1.52.7l-.07.01 1.67.7-.3-.08c2.44.88 4.97 1.68 7.22 2.3l-.15-.2c2.4.7 4.07 1 5.68 1.27.8.15 1.6.24 2.47.4l2.9.48-.07.03c2.83.2 5.03.44 7.28.7 2.24.23 4.52.43 7.45.25-.73.05.3.07.25.1 2.7-.03 5.58-.3 5.6-.58 1.95-.2 1.6-.1 1.87 0-.03-.12 1.67-.38 3.17-.7l-.7.2c1.44-.3 2.9-.63 4.3-1.12l-.9.04c2.24-.68.67.15 2.76-.73l-.1-.17c1.5-.6 2.7-1.13 3.83-1.77 1.15-.6 2.23-1.35 3.42-2.46 2.4-2.4 4.02-5.53 5.06-8.73 1.06-3.2 1.6-6.52 2.03-9.78l.72-6.3c.37-.01.73-.03 1.06-.06l.67.12c.6-.06 1.3-.1 1.9-.04l-.04.03c.9-.1 1.9-.04 2.34-.08l-.04.04 1.1-.02-.2.05c1.56-.1 3.16-.1 4.58-.06l-.12-.15c3.02.16 4.13-.14 6.86.05l-.04.04c3.45-.38 5.46.26 9-.1-.44.05.2.07.15.1l2.5-.05c.15 0 .3-.01.45-.01l.2-.01c.03 0 .07 0 .1-.01v-.1c-.1-1.15-.23-1.88-.38-1.9-.03-.5-.03-.64-.03-.8 0-.15.01-.24.03-.3.03-.1.08-.1.13-.18-.12.01-.24-1.02-.3-1.95l.07.43-.2-2.67-.2.54c-.01-1.42.27-.38.13-1.73l-.2.03c-.08-1.96.15-3.12.2-5.03l-.08-1.48-.06-1.27-.04-.65c-.03-.2.05-.5-.24-.43-.02-.1-.03-.22-.05-.37-.04-.35-.08-.8-.1-1.24l.05.4-.18-2.5-.1.5c-.04-1.32.15-.35.04-1.6l-.12.02c-.1-1.83.02-2.9 0-4.68l-.08-1.38-.06-.98-.04-.6c.02-.07-.05-.06-.1-.06h-.1c-.02-.7.06-.55.14-.72-.03.01-.07-.12-.1-.23-.03-.1-.06-.24-.08-.4l-.07-.5c.84.28 1.7.53 2.64.74 1.7.4 3.53.75 5.63 1.05.93-.1 3.06 0 3.74-.22.06.07 1.12-.06 1.88-.14.75-.1 1.2-.17.02.14-.2.04-.57.08-.55.04l-.27.16c2.47-.07 4.37-.97 6.56-1.86-.65.26-1.55.58-.98.28.68-.27 1.37-.55 2.03-.86l-.37.3a49.65 49.65 0 0 0 2.94-1.41l-.46.1c1.43-.7 2.02-.78 3.45-1.86.64-.5-1.37.63.04-.27a75.69 75.69 0 0 0 3.41-2.02l.03.06 1.52-.92c-.06-.03-.03-.08.03-.15l.54-.36.05.04c.12-.1.2-.17.27-.23.06-.04.1-.07.15-.1.08-.04.14-.03.2-.02.1.02.22.03.56-.27l.04-.23c.54-.66.5-.03 1.08-.8-.16.12-.22.06-.18-.05l.08.03a2.49 2.49 0 0 1 .19-.15h0c.02-.01.02-.02.03-.03.13-.1.24-.2.35-.28-.08.13.03.2.32-.03l-.12.26.44-.56c.5-.18 1.1-.77 1.38-.75.03-.02.14-.07.7-.44.47-.3.96-.67 1.03-.83-.12.16.2.01.45-.1-.02-.1-.02-.2.1-.06-.22-.27-.53-.75-.8-1.2-.14-.23-.27-.47-.37-.7-.07-.14-.1-.24-.1-.34l.04.05c-.47-1.2-1.2-1.84-1.57-2.93-.1.1-.3-.46-.4-.24-.44-.6-.6-1.25-.8-1.7l1.83-1.44c3.74-2.72 10.22-8.52 13.83-11.97 5.07-4.86 11.3-10.16 16.2-15.44.1-.08.23-.23.35-.37s.22-.25.2-.26l2.43-2.48.26-.12.35-.18c.23-.12.46-.24.68-.37a17.76 17.76 0 0 0 1.31-.81s.34-.22.9-.62 1.3-1 2.13-1.75c1.66-1.5 3.47-3.76 4.6-5.98l-.05.07c.3-.36.36-.84.34-1.23zm-1.9-3.4c.02.03.03.06.05.1.05.1.1.2.15.3-.13-.06-.26-.1-.4-.1.08-.1.14-.2.2-.3zm-9.3-1.15c-.1-.27-.2-.5-.27-.66-.02-.08-.05-.14-.07-.2.12-.02.2-.12.27-.18l1.2-.87c.14-.1.27-.18.4-.27-.7.65-1.35 1.4-1.54 2.18zm1.8 1.24c-.2 0-.4 0-.5-.2-.7-.7-.2-1.4 1.5-3 .7-.7 1.7-1.6 2.4-1.6.1 0 .4.1.7.3.6.6.2 1.4-1.5 3-1.4 1.3-2.2 1.5-2.6 1.5zm2.3 2.6c-.2 0-.4 0-.5-.2-.66-.66-.24-1.32 1.13-2.8.13-.1.24-.18.37-.3a11.67 11.67 0 0 0 1-.92c.5-.38 1-.68 1.4-.68.2 0 .4.1.7.4.6.6.2 1.4-1.5 3-1.4 1.3-2.2 1.5-2.6 1.5zm4.2 1.4c-.9.9-1.7 1.3-2.2 1.3-.2 0-.3-.1-.4-.2-.5-.6-.2-1.1 1.3-2.5.6-.7 1.5-1.4 2-1.4.1 0 .3.1.6.3.4.5.3 1-1.3 2.5zm-78.77 62.2c-.04-.05-.1-.14-.13-.2.03.3.05.25.07.34.02.06.03.1.02.17-.07-.14-.18-.12-.15.08-.06-.1-.1-.16-.17-.22.03.05.07.1.1.18-.02.04-.06.1-.12.13-.05-.02-.1-.03-.14-.04-.03 0-.03-.01-.08-.01l-.24-.01h-.96c-.62 0-1.16 0-1.38-.08 0 0-2.32-.08-2.85.1.47-.12-.8-.16-.45-.3-.6.13-2.38.24-3.1.1l.13-.02c-2.63-.14-4.5.2-6.85.02.1.14-1.14.07-.83.25-2.44.18-4.45-.38-5.33.2-.72.02-1.05-.04-1.36-.1l.5-6.56c.18-1.42.36-3.14.53-5 .04 0 .07-.01.12-.01l.74.17c.82.03.6-.2 1.5-.12-.06.1 1.15.08.62.2 2.06.17 4.18-.24 6.88.04.6-.2 1.95-.08 2.4-.24.07.1 2.73.01 1.2.2-.13.02-.36.01-.35-.02l-.18.12c1.54.23 2.8-.13 4.34-.1-.45-.04-1.06-.03-.65-.1h1.42l-.3.1 2.12.06-.3-.13c.52.03.87.1 1.23.14a5.28 5.28 0 0 0 .59.03h.08.04c.02-.01.05-.03.08-.05.08-.05.06-.1.02-.13-.03-.04-.07-.06.12-.08.04.01.1.02.14.03-.01.1-.03.23-.04.36-.01-.01 0 .26 0 .45 0 .2.01.4.01.6.01.82.04 1.67.07 2.46.13-.17.16.3.22.8l-.12.07c.3 1.86-.23.7.04 2.55l.2.3c.36 1.66-.2.92.27 2.76-.07-.77.25-.38.26.5zm-2.72-32.9l-.12.07c.34 1.7-.2.66.1 2.34l.2.28c.4 1.5-.18.85.33 2.53-.1-.67.24-.34.27.5l-.14-.2c.07.46.14.6.14.9-.05-.13-.1-.17-.12-.08-.01.04-.02.1-.02.22.01.14 0 .17.01.2-.03-.02-.05-.04-.08-.06-.03 0-.06-.13-.1-.18l.04.16c.01.04.02.03.03.05.02.02.04.05.06.08.04.06.1.14.13.24l-.03.1-.14-.02c-.1-.01-.17 0-.25 0h-.27c-.13 0-.25-.01-.36-.01-.22-.01-.4-.03-.5-.07 0 0-2.14-.08-2.63.1.43-.12-.75-.16-.4-.3-.55.13-2.2.24-2.84.1l.12-.02c-2.42-.14-4.14.2-6.32.02.1.14-1.05.07-.77.25-2.25.18-4.1-.38-4.9.2-1.02.03-1.2-.13-1.74-.16l.24-.03-3.9.04c-.7.06-.82.32-2.1.26.4-.1-.1-.1-.58-.1.3-.02.4-.06-.23-.13-.1.03-.22.05-.35.07-.01-.01-.03-.01-.02-.03-.8.04-.66.07-.3.08-.02.02.01.04.13.07-.83-.14-2.3.01-2.4-.17l-.86.02c.72-4.53 1.03-7.94 1.35-12.37h2.06l.04.1c1.64-.23 3.1.16 4.2-.05 1.7-.1 1.14.37 2.9.13l.7.17c.76.03.54-.2 1.38-.12-.05.1 1.06.08.57.2 1.9.17 3.85-.24 6.35.04.54-.2 1.8-.08 2.2-.24.07.1 2.52.01 1.1.2-.12.02-.34.01-.32-.02l-.17.12c1.42.23 2.6-.13 4-.1-.42-.04-.97-.03-.6-.1l1.3.02-.27.1 1.95.06-.27-.13c.48.03.8.1 1.14.14h.1l.02.01c.01.01.02.01.04 0 .03 0 .06-.02.15-.07.05.01.1-.1.07-.13s-.02-.1.12-.05v.38l.15 1.16c.08.8.1 1.7.16 2.52.13-.18.17.25.24.7zm-3.97-17.64c.03.07.07.15.1.22l.43.96a17.21 17.21 0 0 1 .79 2.18c.3.42.6 1.53.8 1.85-.02.07.7 2.2.2 1-.04-.1-.1-.3-.08-.28l-.12-.12c.27 1.28.78 2.23 1.08 3.48-.07-.38-.2-.86-.07-.55l.3 1.16-.12-.23.2.87c.03.13.06.3.08.42h-.05l-1.46.02-5.03.1c-3.34.07-6.62.1-9.67-.06l-.27-.15c-.12-.2-1.68.32-1.9.12l-.7.1c-.2-.04-.62-.08-.27-.13-.66-.01-.67.03-1.14.1l-.7-.13c-2.6-.1-4.78.15-7.5.1h-.07l.4-5.53.46-5.58c.12.02.23.03.35.05 5.78.08 12-.4 17.37-.07l.24.15c.1.2 1.48-.32 1.7-.12l.63-.1c.18.04.55.08.23.13.58.01.6-.03 1-.1l.64.13h2.18zm-25.2-25.67c.76.26 1.45.45 2.2.6.1.37 1.62.8 2.05 1.1h-.05c.66.2 1.2.62 1.78 1l.85.57c.27.2.55.38.84.52-.05-.01-.12.04-.37-.13.8.5 1.9 1.2 1.83 1.4 1.8 1.34 4.04 3.56 5.2 4.48l-.1-.04c.7.5.77.75 1.42 1.4.02.05.05.1.04.1.36.3.8.8 1.2 1.3s.74 1.02 1 1.3l-.06.1c.36.48.75.94 1.1 1.44-.12-.2-.24-.38-.37-.56.4 0 .6 1.24 1.5 2.2.64 1.04 1.85 1.8 2.38 2.97.42.47-.46-.36.07.4-.13.1-.3-.33-.3-.06.5.75.56 1.36 1.17 2.3l-.1.1c.1.15.2.3.28.45.07.13.1.16.14.25.07.15.12.3.16.42.02.06.03.12.05.17.01.05.07.13-.03.1-.13 0-.22.01-.3.07-.34.05-.52-.04-.62-.12-.26-.07-.53-.13-1.3-.01l-.6-.17c-.67-.03-.48.2-1.22.12.04-.1-.93-.08-.5-.2-1.67-.17-3.4.24-5.6-.04-.48.2-1.6.08-1.95.24-.06-.1-2.22-.01-.98-.2.1-.02.3-.01.28.02l.15-.12c-1.26-.23-2.28.13-3.53.1.37.04.86.03.53.1l-1.16-.02.24-.1-1.72-.06.24.13c-.84-.07-1.14-.28-2.1-.1-.43.1.8.17-.1.2l-2.67-.18.1-1.87c.12-2.7.2-5.45-.22-9.82-.2-2.1-.5-4.28-1.13-6.42-.6-2.05-1.5-4.07-2.84-5.76a9.76 9.76 0 0 1 .23-.54c.1.03.2.05.3.08l-.1.02c1.04.35 1.9.54 2.67.8zm1.6-8.94c.03-.1.05-.2.07-.3l-.06.3-.01.01zm-5.4-10.45a2.3 2.3 0 0 1 .27-.28c.3-.3.93-.57 1.4-.48-.44-.1-.9.06-1.22.3-.17.12-.3.25-.44.4.07-1.18.26-2.46.46-3.78l.01-.6.03-.17c-.03.01-.01-.64.02-1.06.04-.17.08-.2.1-.26l6.86 13.08c.23.47.3 1.02.14 1.5-.15.5-.47.9-.92 1.12l-1.28.67a7.53 7.53 0 0 0 .17-.61c.01-.17.03-.35.04-.53.01-.01.01-.04.02-.02.1-1.2.03-1 0-.44-.01-.03-.02.02-.05.2.08-.47.13-1.1.03-1.74-.05-.32-.14-.63-.3-.9-.07-.14-.18-.27-.28-.38-.07-.07-.1-.1-.14-.1-.06-.01-.03-.06-.02-.1s.02-.05.03-.06v-.86c-.01-.33 0-.64-.06-1-.07-.35-.2-.7-.4-1a1.56 1.56 0 0 0-.41-.4 3.14 3.14 0 0 0-.25-.14l-.13-.05s-.03-.01-.04-.01a.81.81 0 0 0-.31 0c.02-.07.06-.18.06-.28 0-.05.01-.1 0-.17 0-.1-.01-.2-.02-.3-.02-.2-.07-.37-.14-.55-.13-.35-.32-.66-.55-.93-.1-.1-.24-.3-.43-.4-.16-.1-.35-.2-.56-.23a1.5 1.5 0 0 0-1.17.31c-.16.1-.1 0 .12-.17.1-.1.3-.18.55-.23-.2.03-.4.1-.57.2-.27.16-.47.37-.65.6.01-.05.02-.1.02-.12zm-15.3-7.1c-.23-.47-.3-1.02-.14-1.5.15-.5.47-.9.93-1.12l8.6-4.5a2.12 2.12 0 0 1 .94-.22c.7 0 1.37.37 1.7 1l2.34 4.47c-.58.23-.82.68-1.02 1.03-.2.4-.34.8-.46 1.16.3-.76.24-.5.14-.16-.24.67-.44 1-.6 1.53l-.1.03c.2-.22-.57 1.74-.64 2-.2.35.34-1.03.36-1.22l-1.55 3.92c-.5 1.42.2-.22-.01.48-.48 1.23-.9 2.46-1.56 3.84l.26-.4c-.45 1.16-.83 2.1-1.2 2.9-.18.33-.36.64-.62.8l-7.33-14zm2.5 20.6h0zm.84 56.58l-.01-.12c-.96 2.25-1.54 3.67-1.97 5.32-.36.14-.8 1.84-1.12 2.33v-.06c-.4 1.46-1.42 2.72-1.86 4.1 0-.06-.05-.12.08-.42-.42.96-1 2.26-1.2 2.25-.55 1.1-1.27 2.42-1.93 3.6-.34.6-.72 1.1-1 1.6l-.75 1.27.03-.1c-.43.8-.72.9-1.28 1.74-.05.02-.1.07-.1.05-.28.4-.78.9-1.27 1.4-.48.5-1.04.86-1.3 1.15l-.1-.05c-.48.44-1 .8-1.53 1.17l.6-.4c-.01.2-.35.36-.8.6-.23.1-.48.26-.76.4-.28.14-.57.3-.86.52-.3.15-.56.34-.83.55-.28.18-.56.38-.84.58s-.57.4-.88.57c-.3.15-.64.27-.98.34-.6.34.48-.4-.42.01-.08-.14.4-.24.13-.28-.44.2-.83.25-1.25.3-.42.04-.85.15-1.43.28l-.07-.12c-.74.2-1.46.28-2.12.24-.33 0-.64-.01-.93-.01-.3-.02-.56-.02-.82.02-.8.03-1.04-.13-1.3-.24-.25-.13-.52-.16-1.32-.25l-.56-.3c-.64-.2-.52.04-1.2-.28.04-.04-.18-.14-.34-.23-.15-.1-.26-.18-.05-.13-.1-.06-.2-.13-.32-.2l.03-.16c-.16-.13-.42-.3-1.28-.73l.22.03-.56-.07a16.33 16.33 0 0 1-1.06-.71v.2c-.66-.43-.4-.54-1.98-1.43.72.58.17.5-.7-.3l.3.1c-.5-.38-.67-.52-.96-.83.33.2.25.03-.4-.63a5.95 5.95 0 0 0 .53.34c-.46-.35-.9-.75-1.32-1.15-.17-.3-.4-.6-.63-.93l-.63-1c-.36-.68-.67-1.28-.68-1.58 0 0-.3-.66-.53-1.44-.28-.76-.5-1.64-.68-1.94.23.55-.05-1.05.18-.62-.33-.7-.7-2.96-.6-3.88l.03.17c-.04-1.7-.1-3.1-.02-4.5.07-1.4.2-2.76.57-4.25-.17.1.2-1.47-.05-1.1.44-3.18 1.74-5.56 1.52-6.83.4-1.4.63-1.62.9-2.33l-.08.34c.8-2.62 1.06-3.37 1.75-5.3.3-.98.1-1.22.8-2.9-.1.6.13-.12.38-.75-.14.4-.15.55.23-.26.02-.13.07-.32.12-.5.01 0 .03-.04.03-.01.38-1.08.27-.9.07-.42-.01-.03-.04 0-.13.15.55-1.05 1.2-3.07 1.43-3.14 1.26-3.2 2.04-5.52 3.17-8.14.22-.25.02.4-.3 1.16l.8-1.85c.1.07-.42 1.08-.65 1.66 1.18-2.1 1.93-4.57 3.45-6.95.06-.2.12-.38.2-.56l.1-.14c-.05-.02.2-.6.4-.97.3-.28.22.16.92-1.04.32-.44.76-1.1 1.17-1.8.4-.72.86-1.45 1.27-2.04-.48.6-.38.37-.22.08.4-.56.74-.8 1.02-1.27l.16.04c-.3.1 1.04-1.48 1.15-1.72.34-.22-.62.88-.66 1.07 1.8-2.1.85-1.1 2.78-3.06.95-1.13-.3.08.1-.52.46-.46.95-.88 1.45-1.34.48-.47 1.06-.87 1.7-1.25l-.47.16 1.36-1c.44-.27.86-.48 1.25-.7.4-.2.76-.4 1.14-.55.4-.13.78-.25 1.18-.37 2.08-.98 3.86-1.36 5.22-1.6.68-.17 1.27-.2 1.76-.25s.9-.1 1.2-.15c1.1-.15 1.17-.26.74-.4.9-.02 1.72.01 2.45.08.3.01.57.03.83.04-.04.2-.07.4-.1.58-2.28-.46-3.85-.32-3.45-.1.2.17.97.3 2.37.77l.84.3c-.28.55-.9 2.77-1.27 3.5v-.08c-.7 2.12-1.96 4.14-2.88 6.08.03-.08.01-.14.23-.58-.7 1.4-1.76 3.26-1.9 3.3-1.3 2.23-3.1 5-4.46 7.2-1 1.93-2.28 4.42-2.15 4.46.2.05 2.78-3.6 3.52-4.65l1.58-2.38c1.08-1.63 2.14-3.27 3.14-4.94.98-1.68 1.87-3.37 2.62-5.07a4.8 4.8 0 0 0 .21-.48c.07-.18.12-.32.1-.32.95-2.05 1.78-4.17 2.37-6.38 0 0 .14-.5.32-1.35.1-.42.18-.94.25-1.5l.06-.43a4.39 4.39 0 0 0 .04-.53 4.82 4.82 0 0 0-.13-1.07c-.3-1.38-.8-2.7-.72-4.1.03-1.5-.04-2.97-.15-4.24-.13-1.47-.33-2.66-.5-3.32.17-.01.42.01.6.14.26.16.5.56.68.98.17.44.33.94.43 1.27l.17.55c.25.86.43 1.68.76 2.55.1.22.18.44.32.66.03.05.06.12.13.2l.1.12.2.24c.13.17.25.33.5.57.28.26.63.44 1 .46s.72-.12 1-.37c.15-.1.26-.25.37-.4.1-.12.14-.2.2-.3.24-.4.38-.76.52-1.1l.84-2.04 3.75-9.75c.17-.47.3-.87.48-1.2.16-.34.4-.64.5-.7.03-.02.07-.02.1-.01.02.01.02 0 .06.03.01.01.03.02.04.03.02.03.02.03.03.1.01.14.02.3.01.45-.04 1.3-.22 2.52-.38 3.72-.15 1.22-.4 2.38-.5 3.92a4.81 4.81 0 0 0 .01.65c0 .06.02.14.03.23 0 .03.02.1.05.17.03.07.02.1.16.3.06.07.1.13.2.2.14.1.34.14.5.14.18-.01.2-.04.32-.08.08-.03.2-.1.22-.14a1.56 1.56 0 0 0 .24-.28l.16-.27.14-.2a2.02 2.02 0 0 1 .3-.34c.22-.2.36-.23.44-.2.03 0 .07.02.1.05.02.01.05.04.08.05.01.01.01 0 .02.01.1.12.24.28.32.43a1.63 1.63 0 0 1 .18.46.91.91 0 0 1 .03.23c0 .05.01.05-.01.14-.02.1-.02.2-.07.33l.42.6.45.58c.85.1.66.98.63 2.67.16.2.26.33.36.42l.16.18c.04.05.05.2.06.2.01.02.04.04.06.08a1.14 1.14 0 0 1 .13.36c.07.3.1.65.08 1.02a8.62 8.62 0 0 1-.34 2.16c-.16.8-.63 1.85-1.3 2.85-.65 1-1.5 2-2.04 2.93l-.5.66c-.1.18-.2.36-.3.54-.1.2-.1.27-.13.36l-.1.28c-.12.37-.24.74-.37 1.08l-.01-.05c-.28 1.03-.7 2.17-.84 2.68l-.01-.05-.4 1.24.04-.22c-.53 1.8-1.13 3.6-1.7 5.2l.13-.1c-1.23 3.4-1.47 4.72-2.6 7.78v-.05c-1.08 4-2.2 6.15-3.33 10.25.14-.5-.1.2-.12.15-.6 1.88-1.25 3.85-1.1 3.93-.46 1.34-.44 1.07-.56 1.22.06.01-.24.97-.6 1.92l.04-.18c-.02.05-.04.1-.06.16-.65-.43-1.1-.9-1.58-.7-.5-.24-.5-.43-.73-.6l.13.04c-.92-.46-1.18-.6-1.84-1-.36-.14-.54.06-1.1-.32.24.02-.01-.1-.23-.23.15.07.2.06-.04-.17-.06.01-.13-.01-.2-.03 0-.01-.01-.02 0-.03-.4-.18-.34-.1-.18 0-.02.01-.01.04.03.1-.32-.33-1.08-.6-1.04-.78-1.14-.6-2.03-.87-3-1.33-.06-.14.2-.1.5.03l-.68-.34c.07-.1.42.14.63.24-.68-.63-1.73-.72-2.55-1.4h-.24l-.05-.05c-.02.05-.27 0-.4-.06-.07-.17.14-.23-.32-.48-.3-.3-1.05-.52-1.56-.73.25.16.13.17 0 .14-.23-.12-.3-.3-.5-.35l.05-.15c.02.18-.67-.2-.8-.18-.07-.17.4.1.5.07l-.74-.4-.95-.2c-.44-.2-.9-.35-1.34-.7l.1.2c-.86-.36-1.34-.64-1.82-1.07-1.3-.47-2.18-.73-2.73-.84.13-.45-.05-.56-.75-.04-.03.01-.05.03-.07.05-.45.35-1.1.95-2.03 1.88v-.08c-.43.54-.77.98-1.04 1.4-.14.2-.26.42-.36.63l-.23.48c-.1-.05-.2-.1-.3-.16-.4.44-.8.92-1.18 1.38l-.42.5-.3.37c-.6 1.06-2.02 2.6-2.7 3.85l-.42.37c-.23.43-.52.92-.85 1.28l-.01-.04c-.34.64-.83 1.3-1 1.62l-.01-.04-.47.74.04-.15s-1.3 3.08-2.24 6.2c0 .01-.78 3.28-.54 3.3.74.1 1.67-3.56 2.86-5.27-.17.01.46-.9.16-.75.95-1.94 2.4-3.1 2.36-4.05.52-.83.77-.88 1.08-1.27l-.1.2c1-1.52 1.33-1.95 2.16-3.02.37-.57.22-.82 1.03-1.73-.16.37.13-.03.42-.38-.17.24-.2.33.23-.1.04-.1.04-.13.07-.2.01 0 .02 0 .02.01.06-.1.1-.15.12-.2.27.16.52.33.77.5.35.25.7.5 1.1.62-.04 0-.1.06-.26-.02.53.26 1.26.6 1.2.77 1.24.65 2.9 1.7 3.8 1.9l-.08.01c.53.1.6.3 1.13.5.02.03.05.06.04.07.57.12 1.43.78 1.86.94l-.03.1.98.53-.35-.23c.28-.2.63.58 1.43.8.01.01.03.01.05.02.06.04.12.08.2.12.55.44 1.7.94 2.57 1.35.18.15.4.3.7.4l-.04.12c.12.03.23.08.34.13v.01c.68.3 1.1.84 1.65.93.84.36.35.62 1.3.88l.24.33c.34.22.35-.04.7.26-.08.08.45.35.17.3.8.65 1.9.82 2.93 1.72.35-.04.88.4 1.14.38-.01.1 1.17.68.4.48-.06-.02-.16-.08-.14-.1l-.14.06c.55.58 1.27.58 1.9.98-.17-.15-.44-.28-.22-.26l.6.36-.18.02.88.57-.06-.18c.4.3.46.6 1.05.72.28.04-.34-.4.15-.16l1.38.92-2.3 4.65zm4.5-12.6c.16.13.16.2.24.27-.06.1-.06.14-.02.3-.02-.07-.07-.02-.12 0-.27.68-.6 1.4-.33 1.52-.23.48-.27.35-.4.37.1.05-.04.5-.2.87l.04-.2-.47 1.1.3-.1c-.33.54-.33.02-.53.6l.18.08c-.34.65-.58.8-.75.82-.86-.64-2-1.36-2-1.36-4.08-2.7-6.47-3.6-11.57-6.4-4.4-2.6-5.44-3.52-10.08-6.06l-3.36-1.9c-.28-.15-.55-.3-.82-.46l.9-1.36c.54-.84 1.18-1.88 1.63-2.72.06-.12.12-.23.17-.34.44.38 1 .75 1 .75 2.22 1.6 3.65 1.93 6.53 3.4 2.45 1.45 2.98 2.06 5.6 3.4 1.22.7 2.56 1.38 3.78 2.03.67.13 1.58.88 2.34 1.1l.2.25c.26.08.55.2.76.38l-.03.02c.4.1.76.38.95.44h-.03l.43.22h-.1c.65.25 1.28.6 1.8.94l.03-.15c1.1.8 1.67.78 2.64 1.54l-.03.02c.5.16.9.38 1.28.62zm-31.38-8.9c-.01.01-.03.02-.05.04 0-.02-.02-.03-.08-.01.02-.01.05-.04.07-.06l.06.03zm29.98 21.48c-.17-.01.16-.7-.1-.37-.3.95-.67 1.63-1.04 2.5l-.94-.1a69.27 69.27 0 0 0 1.6-4.89c.14-.5.25-.95.33-1.33.08.05.15.1.23.15l.9-1.7c-.17.03.01-.35.16-.73l.12.03c.24-.9.4-.2.66-1.08l-.1-.22c.13-.86.42-.3.5-1.27-.14.34-.32.04-.08-.34l.06.15c.08-.24.07-.33.17-.47 0 .16.12.15.26-.2l.03.3.1-.72c.17-.2.3-.53.44-.8.05-.1.1-.2.14-.3.05-.1.1-.2.15-.3.1-.18.2-.33.28-.4 0 0 .28-.54.54-1.1-.48-.26-1-.52-1.24-.56.46.13-.5-.46-.13-.4-.15-.04-.35-.12-.57-.22a6.93 6.93 0 0 1-.41-.16c-.27-.12-.54-.28-.66-.43l.07.02c-1.06-.76-2.03-.9-2.97-1.63-.01.07-.13.03-.24-.01.1-.26.2-.6.34-1.08-.33.93-.3.38.13-.75l-.04.3c.22-.64.27-.85.43-1.27-.1.4.03.24.34-.7l-.13.66.48-1.8c.52-1.33 1.14-3.52 1.43-4.04 0 0 1-2.9 1.13-3.6-.13.6.43-1 .36-.5.18-.78.86-3.04 1.23-3.9l-.05.17c1.18-3.28 1.76-5.7 2.85-8.63-.13.1.44-1.45.2-1.1.04-.12.07-.23.1-.35.32.63.62 1.3.68 1.67l-.04-.07c.9 2 .78 4.33.97 6.4-.02-.08-.1-.13-.1-.6.1 1.52 0 3.64-.18 3.73-.1 1.83-.47 4.03-.82 6.05l-.94 5.07v-.17c-.18 1.36-.4 1.72-.75 3.2-.04.07-.1.17-.1.16-.23 1.48-1.23 4.17-1.55 5.33l-.13.04-.94 2.8.4-1.04c.16.46-.92 2.05-1.5 4.14-.75 1.87-.86 4.06-1.74 5.97-.22.94.1-.95-.33.5zm9.6 1.74c-.01.1-.03.22-.04.32h.03l-.05 1.1c-2.93-.2-5.96-.5-9.06-.85l.28-.72c.97-2.15 2.18-5.3 3.35-8.56 1.15-3.26 2.15-6.63 2.82-9.1.88-3.5 1.98-7.24 2.77-11.1.78-3.86 1.28-7.92.54-11.72-.01-.25-.17-.88-.2-.87-.26-1.14-.53-2.3-1-3.4-.3-.83-.73-1.6-1.2-2.35.42-1.18.8-2.2 1.03-3 .47.77.38.6.17.13.03.02.02-.03-.03-.2.5 1.12 1.42 3.15 1.26 3.36 1.03 3.46 1.4 6.1 1.67 9.2-.08.35-.2-.37-.28-1.26l.15 2.18c-.13-.01-.14-1.25-.2-1.92-.05 2.6.4 5.36.13 8.43l.08.64-.03.18c.06-.01.1.68.1 1.14-.14.43-.27-.04-.33 1.48-.2 1.2-.14 3.4-.22 5 .1-.85.13-.57.14-.2-.06.76-.2 1.2-.2 1.78l-.13.05c.1.1-.05 2.03-.02 2.3-.16.42.01-1.2-.06-1.38l-.4 4.56c-.05 1.63.18-.28.24.5-.1 1.44-.17 2.84-.44 4.48l.2-.5c-.2 2.7-.42 4.3-.8 6.1l-.28 4.2zm1.2 1.52c-.17-.01-.35-.03-.53-.04.25-.7.4-1.04.5-1.17l4.88-.06c1.22-.2 3.37 0 4.8-.18l.56.12c.5-.06 1.08-.1 1.58-.04l-.03.03c.74-.1 1.58-.04 1.95-.08l-.03.04.9-.02-.15.05c1.3-.1 2.63-.1 3.8-.06l-.1-.15c2.5.16 3.43-.14 5.7.05l-.03.04c2.87-.38 4.53.26 7.5-.1-.18.02-.14.04-.06.06.04.02.33.03.28.05l1.1-.02.04 1 .14 2.63c.07-.16.1.3.16.75l-.07.06c.24 1.77-.1.67.1 2.43l-.06-.15.2.45c.27 1.6-.1.87.25 2.63-.07-.7.14-.34.17.52l-.1-.2c.05.43.1.62.1.87-.04-.04-.06-.04-.07 0l-2.16.02-2.4.04-4.8.1c-3.18.05-6.3.07-9.2-.1l-.3-.15c-.13-.2-1.82.32-2.08.12l-.77.1c-.22-.04-.67-.08-.3-.13h-.33l.43-5.6.18-2.53c.28-.7-.56-.47-1-.57l-1.4-.12-3.4-.26-5.96-.42zM210.7 239.3c.06-.01.12-.02.17-.02h-.03-.14zm29.62-45.54c-.1-.1-.3 2.05-.3 1.1-.52 3.67-.5 7.5-1.32 12.32.08 1.07-.3 3.5-.26 4.3-.1.12-.62 4.87-.48 2.12.01-.24.07-.65.1-.62l-.08-.34c-.56 2.73-.5 5-1.1 7.64.22-.77.4-1.83.34-1.1-.17.82-.34 1.64-.55 2.45l.03-.53c-.32 1.2-.64 2.4-1.06 3.55l.28-.44c-.63 1.7-1.06 2.2-1.78 4.07-.33.85.94-1.42.1.27-.6 1.03-1.42 2.28-2.5 3.4a18.01 18.01 0 0 1-3.58 2.97c.3-.05-.34.44-1.08.85l-.15-.06c-1.37.83-1.7.86-2 .9-.3.02-.57.12-2.07.67l.24-.17-.73.5c-1.38.5-1.78.55-2.22.58-.45.02-.9.13-2.5.53 1.28-.22.65.18-.95.36a3.39 3.39 0 0 0 .39-.18c-.88.15-1.17.2-1.76.26.52-.13.26-.18-1.04-.06.3-.07.57-.14.86-.23-.8.16-1.63.27-2.45.4-.57-.01-1.24 0-1.9.01 1-.28 2.08-.42 3-.8-.03.02-.04.08-.26.14l1.1-.35c.32-.13.57-.22.6-.18 1.63-.62 3.84-1.73 4.64-2.54l-.05.07c.46-.46.66-.5 1.2-.96.04-.01.08-.04.08-.03.47-.52 1.48-1.4 1.85-1.8l.07.02.87-1.08-.34.4c-.01-.13.17-.3.43-.57.27-.25.6-.6.8-1.06.53-.78.7-1.78 1.17-2.6.13-.45-.05.42.2-.22.1.02-.1.3.06.2.26-.62.6-.95.82-1.76h.08c.13-.53.34-1 .53-1.43.17-.44.3-.83.35-1.2.25-1.1.46-.65.6-1.82l.2-.42c.13-.48-.04-.38.13-.9.05.05.2-.67.2-.34.35-1.2.36-2.5.76-4.1-.07-.37.12-1.18.06-1.45.07-.04.22-1.64.22-.7 0 .08-.02.22-.04.2l.06.12c.25-.9.12-1.7.25-2.6-.06.27-.1.63-.1.38l.1-.85.04.18.18-1.26-.1.17c.1-.62.26-.82.23-1.53-.03-.32-.17.58-.12-.08l.5-3.1c-.1.1-.06-.2-.05-.5l.08-.03c.01-1.13.2-.4.24-1.52l-.08-.2c-.05-1.02.2-.53.12-1.67-.03.44-.18.2-.1-.35l.06.14c.01-.3-.01-.4.03-.6.02.18.1.1.13-.34l.06.3-.05-.85c.14-.64.14-1.67.27-1.93 0 0 .18-1.38.1-1.7.04.3.14-.48.2-.25-.04-.37 0-1.44.12-1.86v.08c.23-1.57.14-2.7.37-4.1-.1.06.02-.7-.1-.5.02-1.47.47-2.65.18-3.2.04-.67.15-.78.2-1.12v.16l.2-2.54c.01-.47-.14-.55-.03-1.38.04.27.06-.07.08-.38-.01.2.01.26.1-.14-.01-.06-.02-.15-.02-.23.01 0 .01-.02.02-.01.02-.52 0-.43-.03-.2-.01-.01-.02.01-.05.08.13-.53.13-1.5.24-1.55.1-1.56.1-2.68.17-3.98.07-.14.1.17.08.54l.06-.92c.08.01 0 .53-.01.82.22-1.08.07-2.27.3-3.54l-.04-.27.02-.08c-.03 0-.05-.3-.05-.48.1-.18.16.03.2-.6.1-.5.1-1.43.1-2.1-.04.35-.07.24-.08.08.02-.32.1-.5.1-.74l.1-.02c-.1.12-.03-.84-.05-.96.1-.17.02.5.06.58l.15-1.9c-.01-.7-.1.12-.15-.22.03-.6.02-1.2.13-1.87l-.1.2c.03-1.13.1-1.8.24-2.56 0-1.64-.02-2.7-.07-3.37l4.53.4.1.12 3.8.32-1.28-.14c.22-.13 1.25.01 1.6.1.04.03.16-.01.14.07-.01.07-.03.15-.04.23l-.04.23-.02.1-.02.18c-.07.66-.12 1.36-.13 2.1-.26 2.73.18 5.6-.2 8.44.03 1.37-.13-1.2-.2.82-.16.05-.02-.95-.2-.44-.1 2-.44 3.25-.54 5.7l-.13.1c-.05 3.22-.7 6.02-.67 8.17-.2 3.3-.57 2.18-.64 5.64l-.3 1.32c-.12 1.47.15 1.08-.1 2.7zm28.66 12l-.13-.25c.06.55.12.74.12 1.1-.04-.16-.1-.2-.12-.1-.01.03-.02.18-.03.22s-.01.08 0 .14a.55.55 0 0 0-.16-.15c.06.07.2.28.2.46-.3-.06-.22-.06-1.14-.05-.7 0-1.28 0-1.53-.08 0 0-2.57-.08-3.16.1.52-.12-.9-.16-.5-.3-.67.13-2.64.24-3.42.1l.15-.02c-2.92-.14-5 .2-7.6.02.12.14-1.26.07-.92.25-2.7.18-4.94-.38-5.9.2-1.23.03-1.46-.13-2.1-.16l.3-.03-2.42.04 1.22-10.54.2-.5c.17-.15.1-1.72.13-2.8.36.08.72.14 1.8.01l.83.17c.9.03.65-.2 1.66-.12-.06.1 1.27.08.68.2 2.28.17 4.63-.24 7.64.04.65-.2 2.17-.08 2.65-.24.08.1 3.03.01 1.33.2-.15.02-.4.01-.4-.02l-.2.12c1.7.23 3.1-.13 4.8-.1-.5-.04-1.17-.03-.72-.1l1.58.02-.33.1 2.35.06-.32-.13c.57.03.96.1 1.37.14a6.46 6.46 0 0 0 .65.03c.06 0 .1 0 .18-.01h.03c.03-.01.06-.03.1-.05.08-.05.06-.1.01-.13-.04-.04-.1-.06.13-.08.05.03.15-.01.14.07a1.64 1.64 0 0 0-.02.23v.1c0 .02 0 .02-.01.06v.18l.01.75.07 3.05c.13-.2.16.34.22.87l-.12.07c.3 2.06-.23.78.03 2.83l.2.35c.35 1.84-.2 1.02.26 3.06-.1-.82.23-.4.23.6zm-.2-14.14h-.05l-.03-.08a.22.22 0 0 0 .01.08l-2.86.02-6.05.1c-4.02.07-7.97.1-11.64-.06l-.32-.15c-.14-.2-2.02.32-2.3.12l-.85.1c-.24-.04-.75-.08-.32-.13-.8-.01-.8.03-1.38.1l-.7-.1v-.53c.07-.38.2-1.2.18-.5.13-1.28.1-1.3.12-2.23l.26-1.36c.24-2.14.4-4.15.54-6.16.26-.01.52 0 .76.03l-.03.03c.8-.1 1.7-.04 2.1-.08l-.03.04.98-.02-.17.05c1.4-.1 2.85-.1 4.13-.06l-.1-.15c2.73.16 3.72-.14 6.18.05l-.03.04c3.1-.38 4.92.26 8.12-.1-.4.05.17.07.14.1l1.8-.05.73-.03.01.26c.01.23.01.46.02.7l.1 2.85c.08-.18.1.32.15.82l-.07.06c.22 1.93-.12.72.08 2.64l.12.33c.26 1.73-.1.94.22 2.86-.05-.7.12-.4.17.42zm27.1-47.25c-.01-.02-.02-.03-.04-.05 0-.01-.01-.01-.01-.02l.05.07zm7.82 18.3c.08.14.16.28.23.42l-.32-.5.66 1.2c.03.07.06.14.08.22h-.04c.1.12.2.24.28.35l.1.17c.02.03.04.06.05.1l-.08.07-.17.14c.1-.02.2-.04.3-.07 0 .02.02.05.02.06-.12.04-.23.06-.3.1-.02.01-.03.02-.06.04a6.25 6.25 0 0 0-.14.11c-.07-.01-.18.02-.9.6h0c-.4.3-.77.6-.8.8-.14.1-.28.2-.4.28-.03-.02-.05-.04-.1-.06.02.03-.01.1-.06.16-.95.62-1.8 1.1-2.78 1.66-.01-.01-.03-.01-.03-.02v-.03a2.25 2.25 0 0 0-.16-.31l-.58-1.05-1.32-2.3c-.87-1.53-1.7-3.04-2.3-4.54l.06-.2c.16-.15-.7-.64-.57-.84l-.26-.3c-.01-.1-.08-.33.05-.18-.15-.3-.2-.3-.36-.5l-.05-.4c-.54-1.26-1.3-2.16-1.9-3.46-.55-1.65-2.27-4.4-3.26-6-.75-1.1-1.28-2.4-1.83-3.73-.27-.66-.55-1.33-.85-1.96-.15-.32-.3-.63-.48-.93l-.06-.1h-.02l-.04-.05c1.65-.52 3.13-1.22 4.48-1.87l-.2-.05c.95-.46.82-.38 1-.5l1.22 2.12a47.34 47.34 0 0 1 1.73 3.3l-.05-.03c2.57 3.93 3.3 6.62 5.93 10.68-.33-.5.06.26 0 .24.95 1.67 1.94 3.44 2.36 3.82h-.01l.23.4-.08-.05c.22.3.42.64.6.97 0 .07-.03.1-.02.18.03-.02.12.08.23.23.06.12.13.24.18.36l.04-.04c.12.18.24.4.38.62.12.24.25.45.37.65z"/></svg>