<svg xmlns="http://www.w3.org/2000/svg" viewBox="0 0 480 480" xmlns:v="https://vecta.io/nano"><path d="M182.2 121.94l.17-.12c-.13.08-.16.1-.17.12zm182.36 66.5l-5.2-1.5c-1-.2 1.5-1.1 3.1-1.5 1.7-.6 2.9-2.3-.2-2.1s-5.7-.1-6.5 0-4.1.3-6.1 1.2c-1.4.6-2.9 1.9-6.3 1.3l-.6-.15c-.1-.8-.64-1.52-1.4-1.75l-4.77-1.55c.28-3.27.05-6.44-1.13-9.05-3.5-7.7-11.2-8-27.4-14.2s-29.4-15.6-48.3-41.5-33.8-24.1-41.7-17.6c-2.25 1.86-4.1 3.83-5.53 5.95-11.66 4.95-26.87 14.47-38.67 22.25-14.4 9.5-33 23.9-41.4 44.1s-1.4 31.7 3.7 34.1l1.05.48-1.35 4.92c-.4 1.18.28 2.35 1.44 2.68l-1.34 5.42s-4.1 5.8-3.6 13.5c-.1.6.7 1.3 1.4 2.1.14.17.33.2.55.18.02.01.03.02.05.02.44.14.8.06 1.07-.14.04.01.1.02.13.04.4.2 0 1.2.4 1.5.6.4 1.5 1.3 2 .9.02-.02.04-.03.05-.04.33-.05.6-.23.82-.5a.71.71 0 0 1 .72.2c.08.42.27.76.62.97.14.24.3.43.48.48 1.1.2 1.9-.5 2-.6.9-2 1.9-4 2.2-5s.9 1.7 1.1 3.3c.4 1.8 1.9 3.2 2.1.1s.9-5.6.8-6.5c0-.8.3-4.1-.4-6.2-.4-1.4-1.5-3.1-.4-6.4a4.73 4.73 0 0 1 .13-.34c1 .13 1.9-.37 2.27-1.36l1.86-4.45c3.3.52 6.52.58 9.24-.25 7.9-2.4 10.1-8.3 15.9-22.4 3.54-8.72 9.82-14.88 22-22.4l-2.4 12.6-5.5 28.4h79.3c.1-.1-.13-5.05-.6-12.3 8.5 5.18 17.83 9.58 27.5 12.3 24.2 6.7 31.9-3.3 34.2-8.6a29.2 29.2 0 0 0 .53-1.27l5.57 1.07c1.2.3 2.4-.5 2.6-1.7l.01-.08 6.5.58s6.3 3.3 13.8 1.7c.6 0 1.44-.2 2.14-1 .4-.5 1.04-1.04 1.03-1.86-.15-.68-.6-1.17-.6-1.27s1.46-.44 1.52-2.16c.06-.7-.6-1.2-1.04-1.43-.12-.07-.1-.24.02-.3.5-.18 1.36-.56 1.42-.98.18-1.4-.7-1.8-.9-1.9zm-17.2 10.12l.13.05c-.01 0-.02-.01-.02-.01l-.1-.04zm-86.33-80.45l.5.78c.01-.02-.1-.22-.5-.78z" fill="#fff"/><path d="M136.9 219.18h0l.03.1zm2.46-10l-.34-.05.34.05zM360.1 185.4l.25-.15-.25.15z"/><path d="M365.1 191.5l.1-.03.04-.02.16-.1c.24-.14.67-.53.7-.96l.02-.32-.01-.27a3.11 3.11 0 0 0-.11-.58c-.12-.4-.4-.8-.76-1.04.43.33-.15-.2-.1-.16-.1-.06-.22-.13-.38-.2l-.3-.08-.5-.13-.93-.24c-.55-.14-.94-.2-.98-.13l-.8-.28c-.04-.03-.02-.06-.03-.1-.01.08-.44-.03-.85-.12.08.02.16.02.24.03-.07-.03-.2-.01-.23-.1.04-.07.12-.1.2-.16a3.61 3.61 0 0 1 .49-.21 2.33 2.33 0 0 0-.39-.01c.4-.13.46-.1.5-.08.03.03.13.01.68-.17l-.05-.1.6-.15a1.57 1.57 0 0 0 .32-.09l.28-.1c.38-.16.67-.3 1.05-.6.37-.3.75-.78.64-1.3-.1-.55-.7-.83-1.38-.95-1.07-.07-1.83.06-2.73.05a58.31 58.31 0 0 1-2.64-.02l-1.35-.03-.73.02-.68.08-2.7.38c-.9.17-1.8.38-2.66.72-.88.35-1.6.83-2.37 1.1-1.4.56-2.97.54-4.37.13 0-.37-.1-.83-.42-1.35l.07.01c-.2-.24-.43-.43-.67-.56-.25-.14-.5-.2-.62-.25a3 3 0 0 0-.94-.12c-.01-.3-.7-.26-.86-.4l.03-.02c-.58.04-1-.52-1.57-.5.03-.02.06-.1.18-.05l-.67-.18v-.44c.1-1.2.12-2.8-.1-4.2-.07-.7-.23-1.36-.36-1.9-.1-.55-.23-.97-.3-1.23l-.3-.83c-.2-.5-.54-1.12-.9-1.8-.73-1.2-1.78-2.35-2.37-2.77.2.1-.08-.18-.38-.5-.35-.38-.77-.7-.38-.5-.6-.4-1.78-1.14-3.02-1.74l-3.22-1.5.28.1c-2.7-1.14-5.05-1.85-7.3-2.56l-6.82-2.34c.17.22-2.34-.78-1.78-.38-5.05-1.64-8.72-3.97-10.66-4.32-2.14-1.08-2.45-1.44-3.5-2.07.17.1.33.18.5.26-1.94-1.1-3.2-1.83-4.27-2.56l-1.6-1.06-1.78-1.3c-1.4-.9-1.73-.9-4.04-2.8.82.53-.15-.22-.98-.96.55.45.74.57-.32-.44-.18-.1-.43-.3-.67-.5 0-.01-.04-.06-.01-.05-1.43-1.2-1.2-.97-.57-.38-.04-.02 0 .05.18.24-1.35-1.4-3.97-3.66-4-3.98-4-3.92-6.8-6.84-9.84-10.4-.26-.47.5.33 1.4 1.35l-2.14-2.54c.12-.06 1.27 1.42 1.94 2.2-2.35-3.18-5.33-6.17-7.94-10.03l-.66-.7-.15-.23c-.04.04-.72-.74-1.15-1.3-.3-.6.25-.12-1.17-1.96-.52-.76-1.32-1.8-2.2-2.85-.9-1.04-1.92-2.08-2.72-2.97.83 1 .5.72.12.33-.76-.87-1.1-1.47-1.78-2.06l.03-.15c-.2-.04-2.27-2.12-2.6-2.35-.38-.56 1.34 1.2 1.6 1.36l-1.7-1.7-.83-.72c-.45-.37-.86-.8-2.67-2.28-2.08-1.4.27.4-.77-.2-.9-.62-1.75-1.3-2.73-1.86l-1.48-.88c-.5-.3-1-.65-1.58-.92.22.16.45.3.65.48l-2.55-1.16c-.77-.37-1.54-.55-2.22-.8l-1.02-.36-1-.24-1-.25c-.33-.1-.67-.17-1-.2-3.87-.32-6.82.56-8.84 1.48l-1.38.7c-.4.25-.76.5-1.08.72-.67.42-1.12.87-1.5 1.2-1.46 1.36-1.23 1.45-.3.82.47-.25 1.08-.7 1.8-1.1.73-.38 1.5-.83 2.3-1.1.4-.15.74-.33 1.1-.42l.93-.26.63-.18c.15-.05.24-.06.24-.06 2.72-.58 5.2-.37 7.47.12 2.3.43 4.35 1.34 6.43 2.3 4.1 2.12 8.18 5.18 12.97 10.33l2.76 3.24c.8 1.02 1.5 2 2.2 2.9 1.35 1.8 2.52 3.44 3.7 5.08 2.38 3.27 4.85 6.56 9.17 11.48 4.08 4.74 8.8 9.5 13.55 13.4l2.04 1.52c.74.6 1.56 1.2 2.4 1.8 1.67 1.25 3.48 2.42 4.98 3.27l1.1.8c1.04.58 2.3 1.2 3.32 1.82h-.08l4.2 2h-.08l1.98.85-.36-.1c2.87 1.16 5.85 2.26 8.46 3.24l-.17-.2c5.55 2.16 7.77 2.45 12.7 4.43l-.08.01c1.6.5 3 1.02 4.2 1.67 1.23.62 2.28 1.35 3.2 2.2 1.75 1.66 3.03 3.82 3.78 6.85-.02.05.03.62 0 .57.52 3 .02 6.36.3 6.43-.33 2.28-.4 1.83-.54 2.1.13.01-.18 2-.66 3.73l.17-.8a67.1 67.1 0 0 1-1.45 4.97l.54-.9c-.95 2.6-.48.57-1.33 3.07l.2.04c-1.42 3.56-2.55 5.47-5.17 7.82-2.64 2.5-6.17 4.1-9.93 4.75-3.76.68-7.7.57-11.53.1-7.68-1.14-15.06-3.65-21.5-6.7l-.5-.4c-.15-.32-3.7-1.36-4.1-1.82l-1.52-.68c-.4-.25-1.25-.74-.5-.4-1.36-.72-1.4-.7-2.4-1.18l-1.37-.93c-5.2-3.1-9.66-5.7-14.76-9.56-3-2.38-7.3-5.85-11.47-9.6-4.2-3.73-8.12-7.82-10.93-10.9-3.37-3.6-6.7-7.7-9.86-12-.9-.88-2.64-2.53-2.97-2.42-.32.1 1.26 2.82 2.24 4.43 1.7 2.15 3.28 4.03 4.42 5.22l-.2-.18c1.58 1.63 1.9 2.23 3.6 4.1.07.12.18.26.16.24 1.74 1.75 4.8 5.35 6.24 6.74l.01.17 3.5 3.46c-.44-.42-.87-.86-1.3-1.3.33.12.95.8 1.85 1.74.9.94 2.05 2.14 3.46 3.24 2.45 2.27 5.53 3.92 8.14 6.17 1.4.9-1.3-.7.73.7-.03.18-.98-.6-.55-.13 2 1.4 3.06 2.55 5.58 4.16l.03.17c3.16 1.96 5.77 4.02 8.03 5.2l-.04 9.5-.06-.24.02.95c0 .12-.01.24-.01.36-.01.05.01.13-.03.15l-.17-.01c-.1 0-.22-.01-.32-.01l-3.17-.02a92.69 92.69 0 0 0-5.63.18c-.6-.3-4.43-.03-5.7-.12h.12c-3.3.22-6.78-.18-9.95.01.12-.02.2-.1.92-.1-2.3.04-5.47.1-5.64-.07-5.52.04-13.22-.03-16.76.23l.24-.05c-2 .18-2.6.03-4.86.12-.12-.02-.28-.03-.26-.04-2.2.18-6.4.03-8.18.1l-.1-.1-4.37.03 1.63.02c-.57.3-3.3-.2-6.48.01-1.48-.02-3 .14-4.5.28l-2.3.18c-.38.02-.77.03-1.15.04-.37 0-.68 0-1-.02-.7.07-.35.01-.1-.05.12-.03.2-.06.17-.08-.02-.01-.07-.01-.18-.01-.07-.03-.37.1-.26-.16.05-.05.07-.03.08.01.01.01-.01.06.03.06.04-.01.08-.01.12-.02.15-.02.24-.04.14-.1l-.12.01c-.02-.02 0-.07.01-.1l.04-.22.1-.43.3-1.22a37.3 37.3 0 0 0 .64-3.22l.14-.08c.44-3.45 1.4-6.4 1.63-8.7.58-3.53.82-2.3 1.3-6l.44-1.4c.33-1.56.02-1.16.43-2.88.08.13.5-2.18.4-1.14.93-3.9 1.3-8.03 2.55-13.16.01-1.16.62-3.75.62-4.62.1-.12 1-5.23.63-2.26-.03.25-.12.7-.15.66l.06.37c.78-2.92.87-5.4 1.45-8.3-.2.86-.4 2.02-.34 1.23l.52-2.72v.58l.8-4.04-.23.54c.42-1.97.76-2.63 1-4.9.08-1.03-.5 1.85-.17-.25l1-4.7.28-1.27.14-.62a2.56 2.56 0 0 0 .05-.27l.03-.17.05-.33.45-2.6c-.2.3-.04-.6.1-1.55l.14-.08c.52-3.58.5-1.25 1.12-4.8l.02.33-.05-.98c.46-2.84.64-1.93 1.1-4.14.01.03.01.05.02.08l.38-2.23c0-.01.01-.03.01-.05l.66-3.9v-.15c.03-2.1.37-4.44 1.16-6.6.5-1.44 1.8-4.28 4.05-6.54l.54-.38c-.26.1 1.12-1.86 1.78-2.5.8-.8 1.14-1.24.8-1.1-.17.07-.5.28-1.05.66-.56.36-1.26.95-2.18 1.76-.46.4-.92.92-1.46 1.46-.26.3-.52.6-.8.93-2.32.93-4.65 1.85-6.7 3.02.1-.07.13-.16.57-.4-2.14 1.1-4.82 2.57-5.05 2.52-5.1 2.74-12.06 6.84-15.06 9.02l.2-.17c-1.7 1.26-2.3 1.46-4.25 2.8-.12.05-.27.13-.25.1-1.84 1.38-5.63 3.64-7.13 4.73l-.16-.03-3.8 2.55 1.44-.93c-.32.58-3 1.76-5.58 3.86-2.57 1.77-4.7 4.25-7.3 6.14-1.1 1.08.9-1.04-.8.5-.16-.08.76-.77.23-.48-1.7 1.5-2.97 2.23-4.98 4.18l-.17-.02c-1.3 1.3-2.55 2.46-3.7 3.5-1.13 1.1-2.17 2.05-2.92 3-2.46 2.85-2.02 1.6-4.35 4.76-.37.36-.75.7-1.1 1.08-1.04 1.32-.57 1.08-1.77 2.52-.04-.17-1.43 1.88-.9.92a76.38 76.38 0 0 0-1.85 2.63c-.57.93-1.13 1.9-1.7 2.9-.6.98-1.1 2.1-1.72 3.2-.63 1.1-1.17 2.3-1.82 3.54-.37 1.16-1.43 3.77-1.62 4.66-.2.08-1.68 5.4-.96 2.3.06-.27.2-.73.23-.68l-.01-.4c-.58 1.5-1 2.9-1.24 4.34-.13.72-.3 1.43-.38 2.17s-.2 1.5-.32 2.28c.18-.93.36-2.17.32-1.33-.15.97-.33 1.94-.38 2.93l-.06-.63-.2 2.2c-.05.74-.02 1.48-.03 2.22l.12-.6-.05 1.42.04 1.18c.02.4.04.78.1 1.24.06.45.2.95.34 1.55.3 1.08-.2-2.07.25.2.22 1.44.7 3.22 1.46 5.02.76 1.8 1.9 3.58 3.3 4.97-.16-.36.55.4 1.48 1.02l.03.18c.47.27.87.47 1.17.64.08.04.14.06.2.1-.05.27-.1.53-.25.8.15.01-.03.37.17.33-.03.8-.74 1.27-.27 1.7-.06.35-.24.37-.32.54v-.1l-.16.73c-.04.2-.13.43-.17.78.04.36.28.4.34.96-.14-.16-.08.08 0 .28-.06-.13-.12-.16-.08.15.05.03.1.08.14.12-.01.01-.01.02-.02.02.22.32.22.23.14.08.02 0 .03-.02.03-.08.05.43.67.8.6.96.16.12.33.2.5.27-.1.53-.17.95-.06.98-.16.65-.18.52-.27.6.07.01-.04.6-.16 1.1l.03-.24-.33 1.46.2-.25c-.23.76-.22.16-.36.9h.12l-.06.22c-.5.68-1 1.23-1.5 2.07-1.8 3.54-2.5 7.8-2.3 11.6l.01-.1c-.07.52.15.88.3 1.14.17.27.36.5.53.7l.06.2c-.02.07.2.25.43.43.07.05.07.05.2.17a1.07 1.07 0 0 0 .39.21c.23.07.43.05.4.08.01 0 .02-.02.04-.01 0-.01.08.01.17.02a.34.34 0 0 1 .1.01c.1.02.18.02.26.03s.17.01.17.02c.01.01.04.02-.03.04.07 0 .06-.01.1-.01.06-.01.07-.1.17-.1.03.06 0 .14-.02.2l-.01.1c0-.03 0 .18.03.3.02.13.06.25.1.37.1.23.34.4.5.5l.34.25c.24.17.5.35.82.5.16.08.35.16.62.18.13.01.3.01.44-.05a.74.74 0 0 0 .22-.1l.02-.03c-.02 0 .22-.06.38-.15a.86.86 0 0 0 .21-.13l.05-.04c.04-.08.14-.07.2-.03.04.1.07.2.13.3.06.1.13.24.22.34.1.14.3.3.3.28.02.03-.02-.01.08.12.07.1.16.2.26.3.2.2.46.25.72.28.43.04.82-.01 1.2-.14a2.73 2.73 0 0 0 .55-.25c.17-.1.34-.2.57-.43.1-.1.14-.26.2-.36l.1-.23.2-.45.75-1.76.17-.4c.04-.1.1-.2.13-.32.04-.12.08-.23.1-.34l.1-.3c.04-.08.03-.27.14-.25.13.15.16.37.2.58l.05.3.08.56.08.66c.02.1.01.23.05.4.03.12.05.25.1.37.07.25.16.5.27.73a2.88 2.88 0 0 0 .6.84c.27.25.6.4.96.38a1.11 1.11 0 0 0 .84-.57c.4-.74.4-1.28.46-1.73l.06-1.3a1.38 1.38 0 0 0 .01-.4c.13-1.03.3-2.05.5-3.1l.08-.5c.04-.33.14-.73.1-1.4v.06c.02-.86.07-2.06 0-3.13-.06-1.08-.25-2.1-.47-2.66-.23-.57-.38-.7-.35-.15s.12 1.8-.12 4.02l-.03-.08c-.04.76-.1 1.37-.1 2v.06c.02.54-.1 1.23-.1 1.87-.2.16-.25 1.4-.36 1.8l-.01-.04c-.03 1.05-.37 2.2-.34 3.18-.01-.04-.06-.06-.04-.28-.04.85-.17 1-.26.9-.05.03-.12.01-.16-.03-.06-.05-.07-.06-.15-.2-.2-.36-.36-.8-.4-1.2-.04-.25-.1-.5-.13-.72l-.18-.8c-.16-.68-.35-1.2-.53-1.45.02.01.04.03.06.05-.1-.14-.18-.24-.25-.32.4-.17.34-.75-.02-.9 0 0-2.7-1.6-2.9-4.5s1-4.2 1.1-4.2c.2-.2.2-.5 0-.7s-.5-.2-.7 0c-.1 0-1.7 1.6-1.5 5 .1 1.5.72 2.66 1.4 3.52-.1-.04-.2-.1-.3-.12-.4-.2-.9-.1-1.3.1-.2.13-.4.3-.58.5-.14-.67-.54-1.2-1.42-1.5-.4-.2-.9-.1-1.3.1-.16.1-.3.24-.44.38-.07-.7-.4-1.3-1.26-1.58-.4-.1-.8-.1-1.2.1-.7.4-1.3 1.3-1.7 2.8-.1.42-.24.94-.32 1.47-.06-.1-.1-.17-.1-.17h.01l-.01-.15c-.03-.62-.1-1.28.03-2-.13-.36.02-1.18-.04-1.46.03-.04.24-1.64.2-.7 0 .08-.03.22-.05.2l.06.12c.26-.9.2-1.68.43-2.58-.1.26-.16.62-.16.37a11.23 11.23 0 0 1 .22-.83l.01.2a17.38 17.38 0 0 1 .4-1.22l-.13.14c.23-.6.43-.75.58-1.45.06-.32-.3.52-.1-.1.36-.77.95-1.88 1.5-2.8-.12.04.02-.2.16-.47l.08.01c.15-.3.22-.4.38-.6.04-.1.07-.18.1-.25.03-.04.05-.08.07-.12.05-.1.1-.26.17-.66l-.05-.22c.1-1.05.28-.5.37-1.7-.1.45-.2.17-.04-.37l.04.16c.06-.3.06-.42.12-.6-.01.2.08.12.18-.33l.01.32.08-.88c.03-.1.06-.2.1-.3.23.02.45.04.7.08.05.1-.13.15-.33.13l.48.1c-.04.13-.3 0-.45-.02.5.37 1.22.1 1.83.5l.16-.06.04.03c.01-.05.18-.1.28-.08.06.14-.08.26.25.34.23.18.75.15 1.1.18-.18-.07-.1-.12-.01-.13.17.04.23.18.37.17l-.03.16c-.03-.16.47-.04.55-.08.06.14-.28.03-.34.1l1 .25c.38-.02-.02-.16.18-.25.32.06.65.03.98.22l-.08-.17c.6.06.96.17 1.3.4 4.64.1 1.33-1.25 1.33-1.25-1.63-.77-2.62-.62-4.7-1.08-1.77-.56-2.18-.96-4.06-1.36l-.63-.18a1.02 1.02 0 0 1-.28-.11.8.8 0 0 1-.36-.39c-.13-.05-.15-.2-.13-.33.01-.07.03-.14.05-.24.02-.12.05-.28.04-.4l.17-.15c-.01-.2 0-.4.1-.54l.03.02c-.02-.28.1-.54.1-.68l.03.02.07-.3.03.07a4.42 4.42 0 0 1 .3-1.3l-.15-.01c.06-.12.1-.23.13-.33.33.15.8.35 1.56.63l.7.1c3.32 1 1.65.95 5.4 1.82-1.45-.45-.6-.45 1.17.1l-.5-.01 2 .5c-.62-.1-.36.1 1.13.44l-1.03-.1c.87.16 1.75.27 2.62.38-.1.27-.2.55-.25.83-.05.04-.05.2-.02.2l-.66 1.5s-.05.1-.13.3c-.04.1-.08.2-.14.34-.04.1-.1.23-.14.36-.14.36-.46.67-.86.8-.38.16-.78.18-.76.44.01.07.06.18.18.28-.04-.01-.1 0-.13-.01-.04.1-.07.17-.1.26l.16-.18c-.34 1.14-.46 1.83-.6 2.63.02 1.12.33 1.94.58 2.53.26.6.5.98.64 1.25.3.54.36.46.35.14-.02-.36-.2-.95-.3-1.4-.12-.47-.2-.84-.2-.84-.23-1.5.01-2.66.37-3.9.01-.04.02-.07.04-.1.4.07.93.03 1.56-.34l-.01.07c.5-.37.77-.9.88-1.22a2.7 2.7 0 0 0 .19-.92c.3.02.3-.66.48-.82l.01.03c0-.58.6-.96.62-1.52.01.03.08.07.04.18.05-.17.1-.37.18-.53.04.01.08.01.12.02.66.08 1.35.15 2 .2l1.77.08c.5-.01.9 0 1.15.03 0 0 .3.01.8-.04.48-.07 1.15-.1 1.84-.26 1.4-.3 2.82-.84 3.3-1.18-.88.53 1.67-.6 1.02-.13.28-.2.7-.46 1.18-.77.46-.35 1-.73 1.5-1.18l.74-.66c.24-.23.45-.46.66-.68.43-.42.76-.83 1.03-1.1l-.17.24c1.84-2.18 2.87-4.33 3.82-6.36l2.76-6.24c-.2.15.83-2.17.42-1.66a67.67 67.67 0 0 1 1.32-3.28c.44-1 .9-1.9 1.3-2.72.45-.8.84-1.5 1.14-2.12.35-.6.6-1.12.7-1.57.56-.96 1.04-1.42 1.37-1.82.35-.4.6-.68 1-1.1-.1.14-.22.27-.32.42l1.7-2 1.38-1.4c.83-.87 1.68-1.54 2.83-2.57.58-.5.88-.85 1.3-1.27.42-.44 1-.94 2.14-1.73-.66.62.24-.07 1.08-.7-.53.4-.67.55.48-.2.14-.13.38-.32.6-.5.01 0 .06-.02.05 0 1.42-1 1.15-.86.47-.42.02-.04-.04-.01-.27.1.95-.57 2.3-1.46 3.27-2.06L196 179.62l-.25.53c-.26.2-.36 3.54-.65 3.98l-.2 1.5c-.12.4-.33 1.27-.23.53-.27 1.36-.24 1.4-.37 2.4l-.4 1.43c-1.14 5.34-1.77 9.94-2.9 15.57l-.43 2-.13.6-.07.3-.03.16c-.01.05-.04.12.04.1l1.3.02 3.92.04 7.33-.02 13.9-.22c10.52-.32 22.75.53 33.5.17.35.03 1.26-.04 1.25-.06l9.85.03 6.9-.01 1.77-.01c.47.04.77-.1 1.1-.2.08-.03.17-.05.24-.08l.08-.25.15-.52c.08-.37.02-.86.02-1.3l-.04-.82-.1-1.63-.45-6.14-.1-1c1.26.74 1.75 1.07 2.24 1.43.58.4 1.15.84 3.07 1.7l1.37.9c1.6.83 1.22.45 3 1.36-.16.04 2.25 1.15 1.15.74 2 1.07 4.16 1.86 6.45 2.78l7.65 2.7c1.28.25 4.2 1.02 5.16 1.1.1.22 5.94 1.1 2.56.72-.3-.04-.8-.13-.76-.16l-.42.05c1.67.4 3.2.72 4.77.77l2.35.15 2.47.03c-1-.06-2.36-.1-1.46-.15 1.06 0 2.1.13 3.17.02l-.66.14 2.38-.12c.8-.02 1.58-.2 2.37-.3l-.67-.02 1.52-.17a34.52 34.52 0 0 0 1.25-.25c.4-.1.83-.2 1.3-.32a22.85 22.85 0 0 0 1.58-.67c1.1-.52-2.15.64.16-.3.74-.26 1.53-.7 2.4-1.1.8-.5 1.7-1 2.5-1.7 1.66-1.3 3.15-3 4.18-4.8-.32.26.26-.68.7-1.72l.17-.07c.05-.12.08-.22.13-.33.5.05.94.03 1.42.24 0-.15.37 0 .3-.2.8-.03 1.32.64 1.72.13.36.04.4.2.56.27l-.1.01.74.1c.2.03.45.1.8.1.35-.07.37-.32.92-.43-.14.16.08.07.28-.03-.12.07-.15.13.15.07.02-.05.07-.1.1-.14.01.01.02.01.02.02.3-.24.2-.23.07-.14 0-.02-.02-.03-.08-.02.42-.08.75-.7.9-.65a2.28 2.28 0 0 0 .24-.53l1.97.18 3.77.3c.18.08.34.15.5.23 1.28.45 3.5 1.26 5.1 1.4l.6.18c.55.03 1.18.1 1.73.18l-.04.02c.82.03 1.74.06 2.14.04l-.03.02 1-.05-.17.04c.7-.05 1.43-.16 2.13-.26l1.03-.18c.12-.02.08-.02.13-.02a3.02 3.02 0 0 0 .3-.02c.2-.02.4-.06.58-.1l-.15-.05a3.3 3.3 0 0 0 1.76-1.08c.3-.37.65-.72.9-1.23.12-.26.2-.53.23-.87.03-.17-.04-.4-.08-.52a3.12 3.12 0 0 0-.15-.39l-.14-.28c-.03-.04.06-.05.08-.07.06-.03.05-.01.15-.08l-.02.04c.6-.5.97-1.24 1.05-1.9.01-.17.03-.3.04-.5a1.67 1.67 0 0 0-.11-.59 1.93 1.93 0 0 0-.27-.47l-.1-.12-.04-.04c-.04-.05-.1-.08-.13-.12.04-.16.16-.15.2-.18zm-220.45 41.63c.01.01.02.01.03.01-.06.1-.14.23-.23.4-.01-.22-.04-.44-.1-.65.12.1.23.18.3.23zm-4.2 2c.6-2 1.2-2.5 1.5-2.7.1-.1.2-.1.3-.1 0 0 .1 0 .3.1 1 .3.9 1.2.3 3.4-.3 1.1-.7 2.4-1.3 2.7-.2 0-.4.1-.8 0-.9-.3-.9-1.1-.3-3.4zm-3.4-1c.6-2 1.2-2.5 1.5-2.7.1-.1.2-.1.3-.1s.1 0 .3.1c.77.23.88.82.63 2.07-.15.37-.3.77-.43 1.23-.12.45-.27 1-.36 1.54-.23.6-.5 1.1-.84 1.26l-.04-.03c-.03.02-.05.03-.08.05-.17.02-.36.07-.67-.01-.9-.3-.9-1.1-.3-3.4zm-2.7-1.6c.3-1.2.8-2 1.2-2.2 0-.1.1-.1.2-.1s.1 0 .2.1c.7.3.8.8.2 2.8-.17.74-.4 1.55-.76 1.98-.05 0-.1 0-.16-.01l-.03.02c-.12.06-.28.14-.37.14-.06-.01-.1-.03-.13-.05-.1-.03-.12.01-.26-.08-.08.01-.14.03-.2.04-.34-.3-.38-.95.1-2.64zm57.44-62.28l-4.05 3.27-2.18 1.95c-.67.68-1.3 1.35-1.84 1.95-.32.27-.62.58-.93.87l-1.12 1.4c-.36.5-.74.98-1.1 1.42l.01-.08c-.5.7-.94 1.47-1.37 2.14-.44.66-.76 1.27-.94 1.65v-.08c-.3.6-.67 1.2-.93 1.83l.1-.34-3.24 7.8.22-.14-2.6 5.9c-.76 1.62-1.5 3.2-2.94 5.12v-.07c-1.57 2.6-3.5 4.06-5.7 4.93-1.1.47-2.26.77-3.48 1-1.26.17-2.62.33-4.2.3.78-.02-.33-.1-.26-.12-2.9-.13-5.96-.88-6.07-.62-2.1-.5-1.67-.54-1.92-.7-.02.13-1.84-.33-3.44-.88l.75.2c-1.53-.5-3.05-1.05-4.56-1.64l.8.57c-2.37-1.02-.5-.5-2.8-1.4l-.05.2c-.8-.37-1.57-.7-2.12-1.1-.3-.17-.56-.4-.8-.63-.26-.22-.5-.44-.7-.7-.9-.96-1.58-2.12-2.32-3.58-.84-1.5-1.34-3.17-1.8-4.85-.36-1.72-.63-3.48-.67-5.27-.12-3.58.37-7.2 1.24-10.7 1.87-7 5.02-13.55 8.93-18.9l.45-.4c.16-.04.6-.84 1.08-1.67.5-.8 1.04-1.63 1.27-1.77l.86-1.3c.3-.32.93-1 .46-.37.93-1.1.92-1.14 1.53-1.97.37-.36.7-.74 1.1-1.08 3.83-4.13 7.13-7.65 11.7-11.45 2.8-2.22 6.88-5.38 11.15-8.4 4.26-3.04 8.7-6 11.95-8.18 4.53-3.1 9.64-6.1 14.87-8.97a330.04 330.04 0 0 1 14.62-7.54c-.7 1.2-1.37 2.6-1.88 4.26l.03-.3c-.87 2.98-.95 5.56-.8 7.83-.44 1.25-.43.98-.6 1.18.1.02-.35 1.8-.77 3.4l.15-.74c-.4 1.52-.8 3.05-1.12 4.58l.43-.85c-.6 2.42-.43.55-.87 2.9h.2l-2 8.56-4.75 26.83c-2.4 1.53-4.77 3.12-6.98 4.75zm173.02 19.9c0 .04-.03.07-.07.1-.05.04-.1.08-.2.13a4.59 4.59 0 0 1-.5.24 1.23 1.23 0 0 0-.62.47c-.08.1-.12.3-.08.42-.02-.34-.1.02-.04.16.03.18.24.5.02.3.07.08.17.2.37.32.17.1.36.23.48.34.06.06.1.1.13.15.06.12.08.1.06.37-.02.42-.2.72-.36.86l.05-.08a2.39 2.39 0 0 1-.22.23c-.03.03-.1.07-.14.1l-.37.22c-.28.14-.3.38-.4.5l-.02.03v.01c-.03-.01.06.02-.06-.01h0v.02c0 .03-.01.05-.01.07 0 .05 0 .1.01.15.02.1.04.22.1.33.06.12.14.23.2.35.07.1.14.26.15.28a2.14 2.14 0 0 1 .12.28c.02.07.02.02.01.1-.01.07-.02.15-.05.22-.1.3-.46.7-.8 1.1-.28.3-.65.56-1.08.64.05.03-.15.1-.35.13-.05.01-.1.01-.16.02-.05 0-.1.01-.13.02-.06.01-.1.02-.1.03-.06.02-.08.04 0 .06-2.3.58-4.23.18-5.08.5-1.07-.06-1.26-.18-1.8-.27l.25.02c-1.98-.25-2.55-.4-3.97-.83-.7-.2-.9-.07-2.1-.6.42.1-.1-.08-.53-.3.14.06.23.1.23.08s-.03-.03-.1-.06c-.06-.04-.12-.07-.35-.2-.03 0-.06-.01-.1-.01-.15 0-.3.01-.43.01-.01-.01-.03-.01-.02-.02-.84-.04-.7-.01-.3.03-.02.01.01.02.13.05-.87-.15-2.44-.2-2.54-.32l-2.67-.2c0-.22 0-.45.02-.68.1-.06.16.1.15.32l.06-.5c.13.03.02.3.02.45.33-.54.02-1.23.35-1.86l-.08-.16.03-.04c-.06-.01-.1-.17-.1-.28.13-.07.26.06.32-.28.16-.24.1-.76.1-1.12-.06.18-.1.1-.13.02.03-.17.16-.24.14-.38l.16.01c-.16.04-.07-.47-.12-.54.13-.07.05.28.13.34l.18-1c-.05-.38-.16.04-.26-.16.03-.32-.02-.65.15-1l-.16.1c.01-.6.1-.97.3-1.34-.25-4.64-1.34-1.23-1.34-1.23-.65 1.68-.42 2.66-.72 4.76-.43 1.8-.8 2.25-1.05 4.16l-.13.64c-.02.1-.04.18-.08.26a.84.84 0 0 1-.39.4c-.05.13-.2.17-.33.16-.07 0-.14-.01-.23-.03a1.87 1.87 0 0 0-.41 0l-.17-.15c-.18.03-.4.03-.55-.07l.02-.03c-.27.04-.55-.07-.7-.05l.02-.03-.3-.04.06-.04c-.47.01-.93-.07-1.32-.2v.15c-.4-.16-.7-.18-1-.2a2.32 2.32 0 0 1 .14-.23c.2-.33.42-.64 1.04-2.6l.07-.77c.46-1.8.64-2.27.85-2.78.2-.52.43-1.1.72-3.15-.37 1.6-.4.7.03-1.26l.02.52.33-2.2c-.03.6.1.42.27-.82.02.01.04.01.06.02 0 .22-.01.44 0 .65.02-.2.02-.43.03-.65.27.08.54.14.8.18.05.05.2.03.22 0l1.54.53 1.03.32c.32.08.67.43.85.83.2.38.25.76.5.72.07-.02.17-.08.27-.2 0 .06 0 .12-.01.18 1.7.4 3.76.35 5.87-.6.5-.4 1.64-.9 2-1.06.06-.02 2.52-.6 1.12-.17-.12.04-.33.08-.32.06l-.15.1c1.43-.22 2.6-.57 4.1-.7-.45.02-1.03.1-.64 0l.7-.06.36-.04c.1-.01.18-.01.3-.01-.1.02-.17.05-.23.07.55-.02 1.3.04 1.98.07l-.28-.1c1.02.07 1.38.22 2.55.1.53-.06-.98-.1.1-.13.67.03 1.6.01 2.43.01.1 0 .2 0 .3.01.07.01.22.02.2.02.04.01.1.03.1.06.06.07-.01.15-.07.2.05.01.05.04.02.1-.06.06-.24.2-.4.3l-.08-.04a2.7 2.7 0 0 1-.42.21c-.03.02-.2.06-.28.07-.18.04-.27.04-.36.05a1.56 1.56 0 0 0-.36.05c-.2.06-.3.06-1.2.42-.16.1-.3.2-.43.3-.6.3-.8.5-.9.65a1.19 1.19 0 0 0-.24.34c-.02.06-.04.12-.03.22.01.08.03.13.07.18s.1.12.2.2c.06.05.17.1.27.16a7.4 7.4 0 0 0 .53.15c-.6-.18-.53-.27-.38-.22l.5.13a6.81 6.81 0 0 1 .88.23l-.4-.04c.36.1.62.16.84.22.14.03.26.07.4.12-.3-.05-.18.05.52.26l-.5-.06 1.36.27c.25.1.54.2.84.28l.46.13.22.06c.03.01.02.01.08.04.35.2.44.53.4.7a.73.73 0 0 0 .01.13c0 .07-.01.3-.02.32z"/></svg>