<svg xmlns="http://www.w3.org/2000/svg" viewBox="0 0 480 480" xmlns:v="https://vecta.io/nano"><path d="M186.82 246.08l-.34-.15c0 .03.08.07.34.15z"/><path d="M346.5 158.6c-.01-.08-.02-.17-.05-.26-.2-.5-.5-.73-.9-.8-.1-.4 1-.7 1-1.3v-1.02c-.03-.54-.13-1.02-.5-1.08a1.43 1.43 0 0 0-.93-.35c-.33-.24-.36-.54-.28-.86.17-.22.26-.47.3-.74.14-.32.24-.62.12-.85-.5-1-1.5-1.2-1.7-1.2l-5.3 1.3c-.9.4.8-1.7 1.9-2.9 1.2-1.4 1.4-3.5-1.2-1.8s-5 2.7-5.7 3.3c-.7.5-3.4 2.3-4.7 4.1-.9 1.2-1.5 3.1-4.8 4.2-1.04.3-2.64.65-4.6 1l-1.1-3.6c-.2-.8-1.1-1.4-1.9-1.2-5.6 1-25.6 4.5-35 5.1-7.52.48-5.75-15.66-19.93-38.3-2.83-6.57-7.05-10.86-10.9-13.55l.22-4.04-8.3-4.7-.38 1.34-.02-.04-20.5-7c-.5-.2-1.1.1-1.3.6l-1.57 3.73c-.01 0-.03 0-.04.01-1.7.3-3.53.7-5.5 1.26-11.8 3.3-24.8 12.2-41.4 31.3-9.2 10.6-16.6 20.5-26.1 42.2-6.7 15.2-8.1 25.7-8.4 29.5 0 .9.5 1.7 1.4 1.9l3.8 1.02c-1.88 8.16-2.9 13.78-2.9 13.78s-4 5.9-3.2 13.6c-.1.6.7 1.3 1.5 2.1.4.5.6 1.1 1.2 1.4.4.2.6-.1 1.1.2.6.4 1.4 1.1 2.1 1.1 2.1-.1 1.8.5 2.7.7 1.1.2 1.9-.5 1.9-.7.9-2.1 1.8-4 2-5s.9 1.6 1.2 3.3c.4 1.8 2 3.2 2.1.1s.7-5.7.7-6.5.1-4.1-.6-6.2c-.5-1.4-1.6-3.1-.6-6.4.6-1.67 2-4.56 3.77-8l5.23 1.4c.9.2 1.8-.2 2.2-1.1 1.4-3.3 5.1-11.5 11.8-21.9 5.26-8 9.82-13.97 18.6-20.9L181.48 214l-3.03-.76c-2.6-.7-5.2.9-5.9 3.5l-4.7 18.8c-.7 2.6.9 5.2 3.5 5.9l35.4 8.9c.22.05.43.1.65.1.15.07.3.15.45.2h.2c2.02.46 4.1-1.1 4.98-3.53a4.04 4.04 0 0 0 .22-.67l4.5-17.8c.7-2.9-.5-5.6-2.7-6.2l-.2-.1c-.2-.05-.4-.05-.6-.06-.14-.04-.26-.1-.4-.14l-30.23-7.6h43.03c4.33 0 9.75-2.3 12.5-5.9h26.18c0 .1.01.2.01.3.1 3.1 2.7 5.6 5.9 5.6h4.9l-1.97-18.2c.94-.01 1.9-.1 2.87-.3 29.9-6.1 43.4-13.7 47.1-16a1.76 1.76 0 0 0 .7-1.9l-2.07-6.82 10.17-4.58s7.1-.3 12.9-5.3c.5-.3.6-1.4.8-2.4.03-.16-.04-.3-.15-.44zm-19.4-3.63l-.06.1.01-.02zm-65.16-33.87l.37.7c.02-.02-.07-.2-.37-.7zm-123.37 97.4l.06-.12zm42.96-100l.13-.15-.13.15zm36.92 107.2c-.02-.07-.04-.1-.04-.1l.04.1z" fill="#fff"/><path d="M347.3 154.7c-.03-.2-.07-.42-.2-.7-.07-.13-.17-.3-.34-.42a1 1 0 0 0-.28-.17l-.03-.01c.1.06-.24-.2-.42-.26a3.29 3.29 0 0 0-.27-.1c0-.01.01-.02.03-.06.05-.12.1-.24.12-.36l.04-.18c.01-.06 0-.03.01-.04 0-.01-.01.03.01-.03l.06-.17a2.25 2.25 0 0 0 .11-.49c.02-.18 0-.37-.06-.54-.04-.16-.18-.37-.23-.45-.27-.42-.65-.78-1.1-1a3.3 3.3 0 0 0-.7-.28c-.1-.03-.33-.07-.5-.07-.1 0-.18.02-.27.04l-1.28.32-1.2.3-.63.16-.35.1-.26.1c-.02.01-.06.04-.07.01 0-.02.01-.04.02-.06.02-.04.05-.08.08-.13l.74-.84.6-.7c.18-.26.35-.52.48-.8.14-.25.28-.7.3-1.14.02-.43-.14-.8-.45-1.07-.3-.25-.7-.27-1.12-.23l-.6.17-.37.17-.66.37-.58.36-1.26.73-3.27 1.8c-.2.12-.4.24-.63.43l.05-.04c-1.06.73-2.18 1.56-3.2 2.5-.5.47-1 .97-1.44 1.53-.45.57-.78 1.17-1.1 1.65a4.81 4.81 0 0 1-1.49 1.64c-.68.5-1.5.83-2.17 1.08l-.57.07c-.47.17-1.08.3-1.6.4l.03-.03c-.45.13-.93.22-1.33.3l-.34-1.1-.44-1.48-.16-.62c-.08-.26-.18-.48-.25-.63 0 0-.2-.4-.76-.78a2.54 2.54 0 0 0-1.09-.44c-.22-.04-.48-.04-.73-.01l-.5.1-2.9.63c.83-.26-1.5.1-.86-.15-1.07.32-4.27.97-5.58 1.05l.24-.06c-4.8.65-8.13 1.52-12.45 1.97.22.12-2.06.36-1.48.46-4.42.8-8.14.65-9.7 1.36-1 .08-1.65.13-2.05.08-.4-.04-.7-.12-1.06-.26.12.03.24.07.37.07-.72-.13-1.23-.5-1.65-.9s-.72-.85-1-1.28c-.53-.88-.92-1.76-1.43-3.06-.55-1.28-.88-1.4-1.63-3.83.36.74.01-.23-.3-1.14.2.57.3.74-.02-.47-.1-.16-.2-.4-.3-.65 0-.01-.01-.06.01-.04-.54-1.5-.5-1.22-.26-.52-.03-.03-.03.04.02.26-.4-1.6-1.5-4.36-1.4-4.6-1.67-4.5-3.2-7.6-4.97-11.2-.1-.45.37.36.9 1.4l-1.26-2.55c.13-.04.8 1.43 1.18 2.2-1.24-3.17-3.28-6.16-5.14-9.66l-.4-.5c-.66-1.68-1.5-3.14-2.16-4.4-1.98-3.27-4.5-6.54-7.67-9.28-.6-.52-1.22-1-1.85-1.48l.2-3.58-9.1-5.1-.42 1.45-19.98-6.85c-.8-.3-1.7.1-2 .9l-1.3 3.1-.92.22c-.66-.2-4.4.95-5.63 1.3l.1-.06c-3.13 1.17-6.55 2.2-9.3 3.9.1-.08.12-.18.77-.54-2.08 1.1-4.78 2.83-5 2.8-2.36 1.5-5.08 3.47-7.5 5.4-2.4 1.96-4.5 3.86-5.7 5.16l.15-.2c-1.35 1.52-1.93 1.78-3.47 3.45-.1.07-.23.17-.2.15-.73.83-1.87 1.97-2.94 3.1-1.1 1.1-2.14 2.2-2.7 2.87l-.16.01-2.93 3.27 1.1-1.2c-.14.64-2.37 2.33-4.28 4.9-1.97 2.24-3.4 5.03-5.37 7.4-.78 1.26.6-1.17-.64.65-.17-.04.54-.88.1-.5-1.25 1.77-2.26 2.75-3.7 5.02l-.16.02c-1.77 3-3.72 5.44-4.7 7.56-1.7 3.17-1.55 1.9-3.1 5.32l-.83 1.2c-.75 1.42-.34 1.12-1.22 2.66-.06-.15-1.06 1.98-.7 1-1.94 3.54-3.3 7.46-5.65 12.22-.27 1.14-1.38 3.57-1.53 4.44-.16.1-1.84 5.03-1.02 2.14.07-.25.23-.68.25-.64v-.38c-1.26 2.78-1.7 5.25-2.57 8.12.28-.85.62-1.98.47-1.2-.28.9-.52 1.8-.78 2.68l.06-.6c-.4 1.33-.75 2.67-1.08 4.02l.25-.53c-.52 1.97-.88 2.64-1.1 4.94-.07 1.05.5-1.88.17.25-.14.67-.27 1.43-.4 2.24a42.05 42.05 0 0 0-.19 1.26l-.08.66-.04.34a2.03 2.03 0 0 0-.01.5c.04.64.27 1.32.77 1.87.25.27.56.5.9.65.17.08.34.13.5.17l.33.1 2.56.73c-.12-.1-.01-.1.2-.06l-1.06 4.8-.84 4.03-.73 3.87c-.02.04-.05.08-.07.1-.62 1.2-1.7 3.28-2.05 4.82l-.24.56c-.13.53-.24 1.15-.4 1.67l-.01-.04c-.1.8-.3 1.7-.3 2.1l-.02-.04a10.49 10.49 0 0 0-.09.98l-.02-.17c-.08 1.34-.01 2.72.06 3.95l.01-.18a1.47 1.47 0 0 0-.01.36c.02-.07.04-.13.08-.2-.01.48.18.77.3 1a3.43 3.43 0 0 0 .45.56c.3.32.55.56.8.8.34.27.55 1.08 1.46 1.58.33.2.93.1.9.13.03.01.08.03.13.06a8.89 8.89 0 0 0 .32.24H140c.6.35 1.14.8 2 .9.06 0 .1.01.17 0h.3c.13.01.27 0 .4.02.25.02.48.06.65.14.16.05.28.2.66.42a2.26 2.26 0 0 0 1.12.25 2.65 2.65 0 0 0 1.12-.28c.2-.1.34-.2.54-.38.22-.2.34-.46.37-.75.08-.05.17-.32.25-.55-.13.37.1-.13.1-.1.28-.66.57-1.35.76-1.9.1-.27.15-.45.14-.5 0-.07 0-.15-.03-.2.18-.48.15-.3.2-.2-.01-.08 0-.22.04-.4.06-.1.12.03.15.08.04.07.07.16.1.25l-.07-.1c.06.15.1.3.16.48l.08.3.13.56.04-.47c.1.6.08.7.06.77 0 .1-.07.1.13.77l.1-.05c.15.46.27.8.56 1.2s.7.77 1.17.7c.48-.07.78-.5.95-1.04.15-.47.2-.88.24-1.3.07-1.7.3-3.4.54-5.16.05-.43.14-.9.12-1.4l-.02-1.34c-.03-.9-.08-1.8-.2-2.7-.12-.9-.3-1.82-.68-2.67-.35-.8-.63-1.56-.73-2.35-.22-1.6.23-3.15.94-4.55l.2-.22c.16-.06.55-1.68.77-1.85l.27-.7c.1-.18.33-.56.2-.22.3-.62.3-.64.48-1.1l.4-.63c.22-.4.4-.8.6-1.2.13.03.27.07.43.12-.58-.1-.34.1 1.05.44l-.97-.1 2.68.5c.53.17 1.02.33 1.73.5.9.18 1.95-.13 2.58-.8.16-.17.3-.34.4-.53.1-.18.2-.4.25-.5l.3-.7c.2-.42.36-.74.5-.92l1-2.14c.53-1.13 1.12-2.37 1.26-2.88-.3.86.85-1.33.65-.64.4-1.1 1.92-4.18 2.72-5.3l-.1.24c2.6-4.35 4.2-7.6 6.9-11.3-.24.1 1.2-1.85.7-1.46 2.52-4 5.43-6.6 6.14-8.23 1.13-1.33 1.64-1.66 2.2-2.17l-10.26 38.9c-.15.06-.35.13-.54.22l-.1-.1c-.86.48-1 .58-1.2.6-.17.06-.42.07-1.04.83-.03.13-.07.26-.1.4-.42.76-.54.95-.72 1.15a1.99 1.99 0 0 0-.24.43c-.06.2-.17.58-.16.95.13-.6.34-.22.1.52l-.07-.22c-.08.42-.07.57-.16.84 0-.26-.14-.17-.27.44l-.04-.45-.07 1.2c-.35.86-.54 2.3-.8 2.64 0 0-.56 1.9-.5 2.38-.02-.4-.32.63-.38.3 0 .53-.26 2.02-.54 2.57v-.12c-.68 2.14-.74 3.76-1.4 5.67.16-.05-.17.96.07.75-.08.52-.2 1-.33 1.44l-.2.66c-.07.24-.14.47-.17.7-.16.93.01 1.7.4 2.05.36 1.02.35 1.26.64 1.76l-.17-.2a6.15 6.15 0 0 0 1.61 1.65c.5.34.97.6 1.7.84.7.14.83-.12 1.97.24-.4.01.08.1.5.2-.28-.05-.37-.04.17.17.1-.01.2 0 .33.01 0 .01.02.02.01.03.72.14.6.08.28-.02.02-.01 0-.04-.1-.1.7.32 2.06.5 2.1.7 2.15.5 3.73.7 5.53 1.08.18.14-.26.12-.8.02l1.27.3c-.04.13-.75-.1-1.14-.18 1.45.6 3.16.57 4.88 1.2l.4-.01.1.04c.01-.06.42-.03.7.02.22.18-.08.26.8.47.66.28 1.98.44 2.9.6-.48-.14-.3-.16-.1-.15.44.1.66.28 1 .32v.16c-.14-.2 1.18.13 1.36.1.22.18-.7-.07-.83-.02l2.64.64c.96.12-.13-.2.35-.2.83.18 1.67.27 2.6.6l-.27-.2c1.58.28 2.5.53 3.5.93 2.64.4 4.23.58 5.12.6.8.52 1.44.48 1.7.4l-.1-.02c.54-.27.37-.46 0-.6l.27.04c-.14-.14-.3-.27-.43-.4-.12-.14-.22-.2-.2-.22-.44-.56-.73-1.06-1-1.7a4.48 4.48 0 0 1-.33-2.51c.58-2.13 1.03-2.72 1.5-5.04.3-1.1.54-2.3.78-3.37-.08-.56.35-1.42.34-2.06l.18-.2c-.01-.22.02-.48.13-.67l.03.02c-.01-.33.13-.67.13-.84l.03.02.08-.38.03.08c.04-.57.18-1.13.35-1.6l-.15.01c.42-1.02.23-1.47.66-2.38l.03.02c-.03-.65.15-1.1.34-1.57.2-.43.35-.8.44-1.35-.02.14.1-.02.12.01.2-.46.5-.88.28-1.07.24-.3.27-.17.38-.13-.1-.08.1-.36.3-.54l-.07.12a3.74 3.74 0 0 1 .63-.5l-.26-.12c.42-.16.23.18.57-.04l-.08-.18c.6-.2 1 .05 1.45.22l.2.04c.03.03.28.12.36.14l.18.06c.23.1.46.2.67.38.43.3.8.8 1.03 1.34.5 1.12.5 2.44-.03 3.6l-.17.08c-.22 0 .13.78-.1.83l.02.32c-.06.07-.14.24-.15.08-.08.27-.05.3-.03.5l-.2.26c-.37 1.06-.36 2.04-.7 3.17-.6 1.3-1.02 3.95-1.26 5.47-.22 2.17-1.66 4.4-1.85 6.62-.05.06-.03.23 0 .23-.17.56-.42 1.1-.74 1.57 0 0-.27.46-.75.92-.47.48-1.15.9-1.72 1.05-.56.17-1.04.18-1 .45.03.1.2.34.68.5.46.16 1.27.28 2.32-.1l-.03.07c1.16-.6 1.7-1.28 1.97-2.1.01-.01.02-.02.02-.03.23.01.4-.46.54-.8.04-.07.1-.13.12-.2.01-.02.02-.05.03-.07v.01c0-.01 0-.02.01-.03.23-.5.37-1 .46-1.38.01-.03.01-.05.02-.08.03-.1.05-.2.06-.3l.06-.27c.03.03.07.07.04.2.08-.47.18-1.1.35-1.1.22-1.03.63-2.4.62-3.2 0-.01.01-.03.01-.04l.01.06c.14-1.45.9-2.83 1.05-4.23.01.06.08.1 0 .42.2-1 .5-2.35.67-2.38l.95-3.88.2-.9.03-.04c.03-.1.03-.16.02-.2.04-.16.07-.32.1-.48.06-.1.12-.27.15-.12.18-.38.23-.77.3-1.32.03-.52.07-1.05.17-1.7-.2-.26-.17-.9-.37-1.07.1-.05-.32-1.23.07-.6.03.06.06.16.02.17l.14.05c.03-.8-.55-1.26-.94-1.9.1.2.25.46.07.33-.1-.2-.24-.4-.38-.58l.17.05c-.15-.23-.34-.45-.54-.66l1.77-6.9 6.92-.1c2.37.04 4.62-.53 6.35-1.18 2.42-1 4.86-2.34 6.8-4.45.08-.1.15-.2.23-.28h1.8c3.46.14 8.44.14 13.5.1l9.75-.15c.02.18.04.36.07.52.18.88.5 1.62.93 2.27.87 1.26 2.02 2.34 4.05 3h-.07c.66.15 1.3.16 1.9.15.52-.02 1.02-.03 1.5-.03l1.42.02 2.07.05h.6l.3.01c.07.02.05-.05.05-.1l-.01-.15-.1-1.2-.17-1.94c-.1-1-.24-2.03-.45-3.2.1.58.05-.26.1-.22-.27-2.17-.54-4.5-.83-4.5-.17-1.58-.05-1.3.03-1.52-.12.02-.33-1.35-.47-2.58l.1.56-.45-3.54-.15.72c-.04-.47-.04-.74-.03-.9h.1c.3-.04.57-.06.8-.08.45-.03.75-.03 1.06-.03.64.01 1.2-.1 2.93-.58l1.38-.12c1.5-.3 1.02-.42 2.67-.72-.08.13 2.1-.4 1.15-.08 3.75-.68 7.44-2.07 12.34-3.18.98-.52 3.44-1.1 4.17-1.52.16.04 4.82-1.55 2.18-.5-.23.1-.64.22-.62.18l-.3.22c2.8-.66 4.9-1.8 7.56-2.76-.8.26-1.85.66-1.18.32l2.47-.93-.47.3 3.66-1.44-.55.1c1.8-.7 2.5-.77 4.4-1.87.84-.52-1.72.65.1-.28 1.18-.52 2.64-1.2 4.16-2l1.14-.62.57-.33.14-.08c.06-.03.16-.1.23-.15.14-.1.28-.23.4-.36.47-.53.73-1.2.73-1.9a3.17 3.17 0 0 0-.05-.53l-.06-.26-.04-.15-.17-.6c-.05.33-.3-.5-.6-1.36l.1-.14c-1.13-3.14-.18-1.43-1.13-4.23 2.83-1.14 5.67-2.32 8.22-3.64.17-.06.57-.3.56-.3l.2-.1.5-.04.6-.07 1.17-.2c.78-.15 1.54-.33 2.3-.55 0 0 1.44-.38 3.22-1.2 1.8-.8 3.88-2.12 5.28-3.44l-.06.05c.58-.46.58-.92.7-1.27a12.22 12.22 0 0 0 .14-.95c.01-.13.03-.25.04-.37.01-.06.01-.12.02-.17.01-.08.01-.15.01-.22.01 0 .02.02.03 0 .02-.08.05-.18.02-.52-.01-.17-.07-.36-.16-.54a1.61 1.61 0 0 0-.17-.28c-.05-.07-.03-.05-.04-.07-.03-.04-.08-.06.01-.1l.07-.03h.03c.01 0 .13-.1.2-.2.16-.2.27-.4.3-.6.05-.2.03-.4.04-.46 0-.17.01-.26.01-.26 0-.23.02-.55-.03-.96zm-9.34-2.92c.26.01.56.02.84-.07.08-.03.13-.04.2-.06-.43.26-.8.56-1.04.93a7.01 7.01 0 0 0 0-.8zm.76-.18c.08 0 .05.02-.04.05-.1.04-.25.07-.37.07-.14.01-.25.02-.35.02v-.04c.25-.01.6-.02.76-.1zm7 1.44h0zm.01.02h0zm.2 4.08c-.01-.01-.03-.01-.04-.01a5.72 5.72 0 0 0 .3-.22c-.1.08-.18.16-.26.23zm-4.7-5.5c1-.4 2.3-.9 2.9-.6.2.1.3.2.5.6.3.9-.3 1.4-2.5 2.3-1.9.8-2.7.6-3 .5a.78.78 0 0 1-.4-.4c-.3-1 .4-1.4 2.5-2.4zm1.3 3.2c1-.4 2.3-.9 2.9-.6.2.1.3.2.5.6.3.9-.3 1.4-2.5 2.3-1.9.8-2.7.6-3 .5a.78.78 0 0 1-.4-.4c-.3-.9.4-1.4 2.5-2.4zm.6 3.8c.6-.3 1.4-.6 2-.6.2 0 .3 0 .4.1.1 0 .3.1.4.4.2.5-.1 1-2.1 1.8-1.2.5-2.1.6-2.5.4-.2-.1-.2-.2-.3-.3-.2-.7.2-1 2.1-1.8zm-93.1-54.6l-.1 2.3c-.01-.01-.02-.02-.04-.03l-.02 1.15-.13 2.66-3.82-3.3c-.02-.03-.03-.06-.05-.1l-.27-.43c.08.06.17.12.25.18l-3.4-6.06.18-.6 7.4 4.2zm-29.5-9.8c.1-.3.4-.4.7-.3l20.3 6.9 1.27 2.22a10.71 10.71 0 0 0-.72-.58 24.36 24.36 0 0 0-2.45-1.69c-1.8-1.1-4.06-2.15-7.02-2.65-.23-.04-.47-.06-.7-.1-.65-.33-1.33-.64-2.1-.9l.26.02c-2.7-.84-5.03-.96-7.07-.88-1.23.06-2.37.2-3.48.4l1-2.44zm-67.42 117.14l-.4.6c-.36.72-.13.57-.56 1.36-.04-.08-.5 1-.35.5-.9 1.76-1.74 4-1.18 6.87.25.6.74 1.88.94 2.2.04.03.5 2.47.14 1.1-.03-.12-.07-.33-.05-.32l-.1-.14c.18 1.38.45 2.57.46 4.03.02-.43-.01-1 .05-.63l.01 1.36-.06-.28-.03 1c-.02.27-.08.62-.13.95l.12-.27c-.18.98-.37 1.32-.4 2.47 0 .52.22-.95.1.13-.1.67-.23 1.52-.3 2.42-.04.46-.06.94-.12 1.27-.01.07-.03.2-.04.2l-.02.05c-.02.03-.04.06-.07.06.07.1-.05.15-.16.05l.03-.08c-.05-.01-.22-.3-.26-.42-.06-.14-.06-.2-.06-.28s-.01-.14-.03-.28c-.03-.1-.06-.4-.18-.84l-.17-.3c-.1-.33-.27-.93-.34-1.2l-.2-.72c-.13-.37-.25-.96-.98-1.05.35.06.33.2.27.2-.05 0-.1-.05-.25-.07-.18.04-.15.15-.27.26l.08-.2c-.18.24-.35.4-.53.86.06-.3.1-.32.02-.27-.06.12-.18.53-.4 1.12.07-.3.16-.58.23-.96a15.28 15.28 0 0 1-.38 1.27l-.24.75c-.2.37-.4.84-.6 1.3l-.58 1.3c-.03.05-.05.07-.08.07-.01 0 0 0-.13.1-.12.07-.32.16-.53.2a1.72 1.72 0 0 1-.61-.02c-.14-.03-.3-.14-.46-.2.22.1.1-.02-.16-.2-.25-.16-.55-.26-.3-.23-.42-.1-1.1-.13-1.72-.08-.3.06-.76-.24-1-.45l.1.06c-.16-.12-.3-.23-.46-.33l-.24-.17c-.08-.05-.15-.12-.32-.2-.24-.15-.7-.22-.93-.18l-.12.01c-.01 0-.02 0-.03-.01-.14-.06-.3-.23-.5-.5l-.32-.47-.1-.13c-.03-.05-.1-.13-.15-.17l-.2-.2c-.26-.25-.52-.5-.73-.74-.23-.23-.33-.55-.35-.54.01 0 0 0-.04 0l.04-.17c-.05-.24-.08-.92-.16-.68-.27-2.32.37-4.18.18-5.05.17-1.05.35-1.2.5-1.73l-.04.25c.5-1.9.73-2.45 1.3-3.8.3-.67.17-.87.86-2-.07.17-.06.18-.01.1.06-.1.18-.28.3-.48a2.5 2.5 0 0 0 .05-.29c-.02.13-.03.23-.04.3-.03.06-.03.07.02.01.02-.1.07-.25.14-.52 0-.1.01-.24.03-.37.01 0 .01-.03.02-.01.14-.83.1-.7.01-.3-.01-.02-.02.01-.06.12.24-.84.46-2.38.6-2.46l1.15-6.32c.1-.22.05.27-.06.87l.3-1.46c.08.03-.14.84-.22 1.3.34-1.15.54-2.4.8-3.7.05.01.1.02.13.03l.08.15c3.57.78 1.23.6 4.76 1.42h.66c3.22.6 1.64.7 5.23 1.32-1.4-.35-.6-.44 1.1.07h-.46c.16.04.3.07.43.1-.57 1.14-.62.75-1.26 2.34zm30.13-38.13l.02-.07c-1 1.24-2.23 2.55-2.7 3.2v-.07c-.4.5-.82 1-1.2 1.5l.16-.3c-1.65 2.24-3.27 4.57-4.7 6.6l.24-.1c-1.55 2.17-2.5 3.73-3.4 5.25l-3 5.02v-.07c-1.34 2.74-2.52 4.84-3.67 6.98-.57 1.07-1.14 2.16-1.7 3.34a37.16 37.16 0 0 0-.83 1.87l-.4 1.02c-.07.17-.13.35-.2.53l-.1.27c-.02.05-.03.1-.06.14.16-.37-.15.1-.17.05-.2.25-.53.37-.88.3l-1.86-.45c-1.1-.25-1.87-.38-1.93-.24-2.02-.55-1.63-.53-1.86-.7-.02.12-1.8-.3-3.37-.7l.74.15-4.54-1.17.83.47c-2.38-.7-.54-.44-2.85-1l-.02.2c-1.65-.46-2.95-.9-4.23-1.34l-1.95-.68-1-.34a.77.77 0 0 1-.39-.34c-.1-.14-.18-.43-.17-.6l.12-1.24c.1-.85.2-1.7.34-2.55.26-1.7.6-3.42.96-5.13.76-3.42 1.7-6.82 2.8-10.14 2.2-6.64 5.05-12.96 7.96-18.66l.38-.44c.3-.13 1.27-3.3 1.7-3.65l.6-1.37c.22-.36.68-1.1.37-.44.66-1.2.64-1.25 1.06-2.16l.83-1.23c2.75-4.67 4.96-8.72 8.37-13.3a335.06 335.06 0 0 1 8.46-10.37c3.26-3.83 6.66-7.62 9.23-10.3 7.16-7.66 17.13-14.94 26.74-19.27.16-.05.44-.18.68-.3s.44-.2.43-.22c3-1.14 6.16-1.98 9.32-2.56l1.9-.3c1.2-.15 2.87-.3 4.75-.25 1.88.04 3.96.4 5.85 1.14 1.15.13 2.26.46 3.26.85.23.17.46.32.68.5.82.68 1.57 1.44 2.26 2.3.95.7 1.7 1.52 2.33 2.46 2.8 4.5 2.5 12.5-1.1 26.7l-20.9 81.8c-.07 0-.13 0-.2.01-2.85-.04-5.77.64-8.73.5-1.4.14 1.24-.23-.87-.12-.07-.16.98-.1.44-.23-2.07.08-3.4-.16-5.95-.06l-.1-.12c-3.33.23-6.28-.16-8.5.05-3.43.1-2.3-.37-5.88-.13l-1.4-.17c-1.23-.02-1.2.12-2.03.14l-.07-.02.27-.04-1.65-.47c.07-.33.15-.66.23-1l.6-2.77c.42-1.9.9-3.93 1.56-6.15.06-1.12.77-3.56.8-4.4.12-.1 1.2-4.96.73-2.13-.04.24-.15.66-.17.63l.04.36c.9-2.75 1.1-5.13 1.8-7.9-.24.8-.5 1.9-.4 1.16l.64-2.57-.03.56.98-3.83-.25.5c.52-1.86.9-2.48 1.22-4.64.13-.98-.6 1.74-.16-.25l2.53-9.43c-.2.27 0-.6.2-1.5l.15-.07c.62-3.3.57-1.38 1.17-4.2l.77-.6c-.62.62.22-.08 1.04-.66-.5.4-.64.54.46-.18.13-.14.35-.32.55-.5.01 0 .06-.03.04 0 1.33-1 1.07-.87.44-.42.02-.04-.04-.01-.25.1 1.48-.9 3.96-2.77 4.24-2.74l9.47-6.3c4.87-3.63 13.98-10.5 13.47-10.6-.23-.05-1.85.88-3.9 2.13-.48.36-.96.7-1.45 1.03l-2.2 1.55c-.75.53-1.6 1-2.46 1.56l-2.82 1.78-3.4 2.1c-4.76 2.9-9.72 6.2-14.08 9.52-1.95 1.73-5.66 4.47-7.76 6.75l-.95.75c-.73.73-1.54 1.7-2.33 2.4zm32.22 48.3c-.01-.01-.02-.01-.03-.02.12.04-.3-.25-.6-.27-.48-.14-1-.16-1.46-.12.04.05.02.1-.03.12-.4-.14-.86-.28-1.37-.33-1.25-.35-2.7-.02-3.98-.5-.66-.02.6-.1-.35-.22.01-.16.46.01.25-.17-.93-.16-1.46-.54-2.62-.72l-.02-.13c-1.53-.15-2.74-.86-3.77-.9-1.54-.28-.93-.6-2.57-.78l-.57-.32c-.67-.2-.54.08-1.27-.2.07-.1-.93-.32-.46-.3-1.4-.5-2.95-.62-4.72-1.15 4.73.05 8.93-.16 14-.12 2.9.12 6.9.14 11.1.1l-1.53 6zm-26.85-50.84a19.43 19.43 0 0 1 .49-.44c.86-.78 1.63-1.47 2.8-2.4.04-.04.08-.07.12-.1-.7 2.58-1.37 4.32-2.16 7.04l-6.9 29.5-1.16 4.72-.95 3.68h-.04c-.18 0-.1.05.01.1-.01.03-.02.06-.02.1-.04-.01-.07-.01-.13-.02l-2-.65c-.3-.1-.63-.16-.96-.2l10.9-41.3zm-5.86 42.55c.01-.02.01-.04.02-.06l.13.12a.47.47 0 0 0-.15-.06zm23.6 22.95c.02.04.03.1.03.16-.01 0-.02.01-.03 0-.05.34 0 .3.05.14.01.01.04 0 .08-.04-.22.3-.24.97-.42.97-.2 1-.2 1.78-.36 2.63-.1.07-.15-.14-.12-.4l-.12.6c-.13-.04.01-.36.03-.55-.4.65-.16 1.5-.56 2.3l.06.2-.03.05c.06.01.08.2.07.34-.14.1-.26-.07-.36.34-.2.3-.18.92-.22 1.4.07-.25.12-.15.14-.03-.04.22-.18.33-.16.52h-.16c.16-.07.07.62.15.7-.13.12-.08-.36-.15-.43-.06.93-.06.47-.02 1.4.17.48.14-.1.3.12.07.42.24.8.3 1.3l.1-.2.48 1.08c-.77-.27-1.5-.5-1.5-.5-4.47-1.44-6.92-1.64-12.36-2.9-4.74-1.26-5.94-1.85-10.9-2.98-2.35-.6-4.87-1.18-7.18-1.73-.55-.03-1.4-.22-2.05-.42-.6-.2-1.14-.54-1.57-.85-.07-.13-.14-.24-.18-.37-.28-.22-.53-.57-.6-.93l.04.01c-.3-.45-.32-1.06-.36-1.3l.03.02c-.01-.2 0-.42.02-.63l.04.12c0-.4.16-1.05.3-1.63.14-.58.3-1.14.44-1.66l-.16.05c.57-1.75.64-2.68 1-3.98.23.42.52.8.92 1.1 2 1.7 12.8 4.4 24.1 7 1.9.4 3.2.7 3.7.9.6.2 1.2.3 1.9.3 1.84-.17 3.82-.9 5.53-2.55-.03.05-.05.16-.08.27.04-.16.02-.2-.12.04zm.25-.36c.02-.02.05-.04.07-.07-.01.05-.01.08-.03.14-.01-.05-.02-.07-.04-.07zm3.98-12.73l-.01-.16c-.14.2-.16.27-.27.38.04-.15-.1-.17-.3.1l.03-.28c-.08.22-.16.44-.22.66-.4.34-.6 1.13-.83 1.25 0 0-.1.24-.2.52-.1.28-.15.6-.08.73-.07-.2-.23.28-.33.1.07.26 0 .98-.2 1.22v-.06c-.4.98-.25 1.8-.65 2.66.15-.01-.05.46.16.38-.06 1-.8 1.63-.33 2.1-.08.44-.26.48-.34.7v-.1l-.17.82c-2.2 3-5.15 3.6-7.38 2.97-.5-.1-1.9-.5-3.8-.9-6.5-1.5-21.6-5-23.7-6.8-.56-.5-.88-1.2-1.07-1.98.35-2.28 1.2-3.63 1.5-6.15-.04.34.1-.12.14-.1.26-1.23.57-2.54.3-2.63.23-.9.27-.7.4-.8-.1 0 0-.88.2-1.4-.03.1-.04.2-.05.28.17-.55.45-1.08.83-1.52l-.4.12c.34-.36.44-.34.52-.34s.13-.02.46-.3l-.13-.15c.55-.4 1.1-.53 1.6-.56.5-.03 1 .05 1.55.2l.46.1.55.14 1.1.28 2.25.53 4.54 1.03c3 .68 5.96 1.4 8.65 2.24l.2.2c.05.23 1.58.07 1.74.32l.66.06c.17.08.54.22.2.18.6.16.6.13 1.05.17l.6.3c2.3.68 4.33.93 6.75 1.6 1.1.4 2.63.8 4.26 1.2-.06.07-.13.17-.22.33.25-.22.3.1-.02.37zm42.4-15.2c-2.97-.04-6.03.64-9.12.5-1.47.14 1.3-.23-.9-.12-.07-.16 1.03-.1.46-.23-1.1.04-2 0-2.95-.04.36-.6.67-1.24.9-1.93.26-.73.37-1.35.56-2.03.17-.67.36-1.34.5-2 1.24-5.4 2.06-10.9 2.4-16.08.06-.33.08-1.2.06-1.2.33-3.14.6-6.3.85-9.44l.46-6.6.66-11.93c.16-3.55.22-6-.08-5.44-.3.58-.94 4.2-1.96 12.87l-.03-.24c-.46 5.16-.72 8.4-.76 11.97-.33.54-.37 4.23-.58 5.43l-.01-.12c-.05 3.16-.8 6.44-.98 9.47-.01-.1-.06-.17-.02-.64-.23 2.17-.57 4.95-.76 5.1a102.01 102.01 0 0 1-1.56 8.53c-.32 1.48-.6 2.63-1.2 3.6-.56.98-1.24 1.76-1.8 2.34l.13-.18c-.6.68-1.1 1.04-1.6 1.4a28.59 28.59 0 0 1-1.99 1.18c-.1.03-.25.08-.23.06-.87.53-2.26 1.08-3.66 1.38-1.4.33-2.75.36-3.6.4l-.1-.1-4.2.03 1.57.02c-.4.23-1.95.01-3.96-.03l20.95-81.26c3.8-14.98 4-23.08.8-28.18l.97.8c.28.25.58.68.87 1.02.2.16.4.35.55.56l.1.2c.02-.03.62.6.86 1.13.1.55-.2.06.53 1.8.52 1.4 1.26 4.1 1.6 6.1-.12-1.08-.01-.74.1-.28.12.97.1 1.54.22 2.28l-.12.1c.12.13.35 2.6.4 2.92-.08.56-.18-1.5-.3-1.75.18 1.95.13 2.45.17 2.94.02.5.06.98.07 2.95.13 2.1.15-.38.3.62.03 1.86.1 3.68-.07 5.8l.17-.67c-.01 3.5-.16 5.6-.45 7.95l-.16 11.9c.06 1.75.22 1.64.43.7.2-.93.43-2.68.6-4.2l.3-2.8c.53-5.13.76-9.04.82-13.2.03-2.1.04-4.24-.04-6.64-.07-2.4-.2-5.07-.6-8.17-.13-1.37-.4-2.6-.6-3.76-.3-1.14-.52-2.2-.9-3.17-.03-.1-.08-.22-.12-.33l1.2 1.04-.6.46c.1.1 8.3 12.5 8.5 35.2.18 21.18-.5 56.54-.6 62.06a20.49 20.49 0 0 0-2.47.02zm21.87 4.73c.07.65.06.53.1.68.02.06.04.12.05.16-.03.02-.05.03-.06.06.05-.06-.08-.1-.16-.14-.1-.04-.13-.1-.12-.15 0 .02-.01.03-.03.05l-.52.04c-.4.03-.83.05-1.28.06l-1.3.01c-.22 0-.4-.01-.52-.03-.14-.02-.27-.03-.37-.07.05 0 .1.01.16 0-1.54-.23-2.75-1-3.5-2.03a4.35 4.35 0 0 1-.77-1.76c-.1-.58-.1-1.5-.1-2.35-.14.16-.13-1.68-.3-1.22-.3-3.6.18-6.58-.42-7.87-.07-1.64.1-1.95.1-2.8l.04.4-.18-6.25c-.08-1.14-.35-1.3-.34-3.36.12.66.08-.18.06-.94.03.5.07.64.12-.37-.04-.14-.06-.36-.1-.56.01-.01.01-.05.03-.03-.07-1.28-.1-1.05-.1-.46-.02-.03-.04.02-.06.2.1-1.33-.1-3.7.06-3.86-.17-3.84-.45-6.57-.67-9.76.08-.36.2.38.27 1.3l-.13-2.26c.13.01.13 1.3.2 2 .1-2.7-.48-5.55-.46-8.72l-.15-.65v-.2c-.06.01-.18-.7-.23-1.16.1-.45.27.01.16-1.55.04-1.25-.3-3.5-.52-5.12.05.87-.03.6-.1.23-.07-.78.01-1.24-.1-1.84l.12-.07c-.12-.1-.32-2.07-.42-2.33.07-.46.23 1.2.33 1.4l-.5-4.7c-.3-1.66-.12.32-.34-.46-.2-1.47-.5-2.9-.63-4.58l-.07.55c-.46-2.74-.76-4.38-.9-6.26-.63-2.52-1.1-4.47-1.6-5.94-.48-1.46-.84-2.46-1.1-3.1-.53-1.28-.67-1.14-.6-.4.06.75.3 2.1.52 3.28a56.66 56.66 0 0 1 .4 2.17l1.67 10.2c.5 3.22 1.04 6.64 1.5 11.45.62 8.48.46 10.74.95 19.54l.48 12.8c.26 1.95.14 5.4.36 7.7l-.1.9c.08.8.14 1.73.1 2.53l-.04-.05c.12 1.2.1 2.53.16 3.13l-.04-.05.06 1.45-.06-.25c.15 2.08.22 4.22.26 6.1l.14-.16v.7l-2 .02-.12-.1-4.38.03 1.64.02c-.34.18-1.48.08-3.03.01l.5-62.1c-.1-20.1-6.46-32.25-8.18-35.13l1.03.9v.05c.6.68 1.44 1.66 2.3 2.83 1.75 2.32 3.55 5.45 4.66 7.98l.74 1.74.54 1.33c.3.7.5 1.04.56.78.03-.25-.03-1.1-.42-2.73s-1.14-4-2.74-7.14l.13.14c-1.72-3-3.2-4.9-4.9-6.55l.04-.72a22.14 22.14 0 0 1 1.4 1.12c.45.34.83.74 1.22 1.1.38.37.8.7 1.1 1.05.65.7 1.28 1.28 1.72 1.77l-.14-.1c1 1.1 1.24 1.5 2.17 2.88.03.1.08.2.06.18a13.47 13.47 0 0 1 .83 1.2l.78 1.52c.56 1.02.9 2.08 1.2 2.68l-.07.12c.45 1 .75 2.04 1.06 3.08l-.33-1.18c.4.33.58 2.4 1.27 4.7.24 1.1.65 2.17 1.06 3.26.4 1.1.74 2.2.9 3.37.37 1.06-.43-.92.02.7-.15.1-.26-.74-.3-.3.4 1.6.4 2.66.86 4.62l-.1.1c.7 2.55.76 4.9 1.25 6.6.56 2.66-.06 1.86.66 4.6v1.1c.16 1.2.34.82.47 2.16-.12-.06.18 1.7-.04.93.32 3.02 1.17 6.06 1.47 10.06.34.83.48 2.84.73 3.47-.07.12.54 4 .04 1.8-.04-.2-.1-.53-.05-.5l-.16-.25c.1 2.3.7 4.1.95 6.34-.05-.67-.17-1.55-.01-.97l.26 2.08-.16-.42.35 3.1.07-.44c.14 1.53-.02 2.1.38 3.78.2.76-.01-1.46.23.14l.68 7.7c.1-.26.2.44.3 1.15l-.1.1c.5 2.73-.15 1.04.3 3.76l.23.46c.53 2.44-.1 1.36.54 4.06-.14-1.08.22-.54.3.8l-.16-.32c.1.74.18.98.2 1.47-.1-.43-.2-.2-.06.87l-.23-.7.44 2.03c.04 1.6.47 4.1.37 4.76.04-.01.12.84.2 1.8zm49.1-33.77c-.08.16-.22.3-.34.35l-.94.5c-5.6 3.2-11.83 5.82-18.07 8.06-6.25 2.24-12.57 4-18.5 5.26l-.56-.02c-.28-.16-3.18 1.08-3.68.98l-1.36.4c-.4.05-1.22.18-.55-.01-1.28.27-1.3.3-2.2.57-.46.05-.94.13-1.37.12-.6.1-1.22.16-1.8.18-.2-2.37-.13-3.9-.28-6.3-1.18-10.45-3.2-21.58-4.36-31.3l.08-.45c.18-.22-.73-2.62-.6-3.02l-.27-1.1c-.01-.32-.1-1 .06-.44-.17-1.04-.2-1.06-.4-1.8l-.06-1.14c-.58-4.12-1.48-7.55-2.27-11.86-.2-1.3-.5-2.88-.83-4.6l-.46-2.05a132.32 132.32 0 0 1 1.86 3.92c2.1 4.75 3.96 9.96 5.6 14.84.5 1.13 1.02 2.73 1.67 4.4.65 1.65 1.45 3.43 2.7 4.63.26.35.6.68.95 1 .56.3 1.22.6 1.9.7.34.07.68.1 1 .08.35.01.6-.01.85-.01l-.06.04 3.9-.44-.06.04 1.8-.22-.3.08 7.56-1.06-.2-.12c5-.57 6.78-1.16 11.3-1.7l-.06.04c2.8-.65 5.05-.97 7.3-1.3l3.5-.54c.13-.05.43.07.6.28.04.06.05.08.1.18.06.16.1.33.17.5l.37 1.02c-.26-.7.02.32-.03.27.83 2.6 1.7 5.37 1.98 5.34.57 1.9.38 1.57.35 1.85.12-.05.67 1.6 1.12 3.07l-.25-.67 1.33 4.24-.03-.9c.62 2.27-.1.65.6 2.8l.18-.08a65.97 65.97 0 0 1 1.03 4.07l.1.47.05.24.03.12v.06c.02.16-.02.34-.1.5zm21.76-17.64l-.03.02c-.8.54-1.78 1.26-3.15 1.93l.1-.1c-2.33 1.28-3.93 1.8-5.66 2.46-.32-.07-2.13.5-2.77.5l.06-.02c-.22.06-.45.1-.68.13l-.34.04-.44.03-.92.4-.84.36c-.55.24-1.1.48-1.6.76.05-.04.06-.1.4-.25-1.05.5-2.48 1.2-2.6 1.13l-3.7 1.65c-1.03-2.66-.2-1.57-1.5-4.7.4 1.3-.08.7-.5-.93l.24.37c-.3-.88-.43-1.16-.6-1.76.22.5.25.23-.16-1.07l.4.83-.96-2.4c-.07-.3-.17-.66-.27-1 .2-.06.35-.13.48-.2 1.07-.23 1.3-.2 1.85-.3l-.25.07c2.02-.5 2.66-.75 4-1.64.6-.54.66-.7 1.53-1.8-.22.4.12-.07.4-.5-.17.28-.2.38.2-.17.03-.1.1-.22.16-.33.01 0 .02-.02.02-.01.44-.68.35-.56.12-.27 0-.02-.03 0-.1.08.5-.67 1.55-1.77 1.7-1.76 1.1-1 2.1-1.77 3.08-2.52l.02-.01h.01c.54-.45 1.3-.84 2.02-1.25.24-.06-.18.2-.7.52l1.32-.72c.03.08-.74.45-1.14.68.82-.36 1.63-.82 2.45-1.33l1.26-.8c.43-.28.85-.56 1.27-.72.07-.05.12-.1.2-.13h.06c-.02-.05.34-.14.42.1-.01.1-.06.13-.1.2-.04.08-.03.1-.14.4-.16.32-.4.74-.8 1.2l-.6.74c-.18.24-.5.66-.7.95.53-.67.4-.43.2-.16-.28.36-.5.64-.63.9-.3-.12-.94.55-.94.7 0 .1.4 3.2-1.8 5.1-2.2 2-3.9 1.7-4 1.7-.3-.1-.6.1-.6.4-.1.3.1.6.4.6h.4c.8 0 2.5-.2 4.4-2 1.14-1.04 1.7-2.28 2-3.37.03.12.06.24.1.37.2.5.5.8.9 1 .16.08.46.16.78.2-.5.52-.73 1.2-.38 2.1.2.5.5.8.9 1 .12.06.32.12.55.16-.52.47-.8 1.08-.45 1.94.1.4.4.7.8.9.2.1.5.2.9.2.6 0 1.4-.2 2.4-.6.64-.27 1.54-.62 2.13-1.17-.06.2-.12.4-.2.62-.07.23-.2.5-.4.58z"/><path d="M273.05 197.45h0l-.12-.23zm-122.6 37.02l.01.01.08.15zm-3-26.93h0-.33z"/><circle cx="251.85" cy="197.44" r="1.5"/><circle cx="252.15" cy="173.64" r="1.5"/><circle cx="252.65" cy="151.14" r="1.5"/><circle cx="252.05" cy="131.34" r="1.5"/><path d="M172.72 213.87c.03-.07.04-.13.06-.2-.03.06-.05.12-.06.2z"/></svg>