<svg xmlns="http://www.w3.org/2000/svg" viewBox="0 0 480 480" xmlns:v="https://vecta.io/nano"><path d="M344.72 88.63l-3.44-.67c-.83-.15-1.66.23-2.4.98L332.7 96c-.14-.1-.33-.15-.5-.08a.47.47 0 0 0-.23.21c-1.32.4-6.18 1.97-7.56 3.1-1.6 1.3-3.7 3-4.3 5.4-.5 1.9-2.3 7.2-3 8.4-1.12 1.92-11.44 12-15.53 16l-.67-.8c-.4-.5-1.2-.6-1.7-.2-2.5 1.9-9.5 6.9-13.6 8.8-3.9 1.8-9.4 1-15-4.4-2.17-2.05-5.03-5.58-7.74-9.16-5.33-16.03-18.67-21.18-20.66-21.94l2.03 1.62c-2.18-1.56-4.5-2.78-6.94-3.63-4.76-4.65-12.18-5.8-23.6-2.6-11.9 3.3-18.4 12.7-33.2 36.1-6.8 10.7-10.7 16.3-15.8 25.3l-8.9 15.5c-.2.5-.1 1.1.3 1.4l1.26 1.03c-10.1 16.6-18.06 27.57-18.06 27.57s-5.7-.2-11.5.7c-5.3.8-11 3-11.6 4.2-.5 1 .7 1.3.7 1.3s-5.2 1.5-5.8 3.1c-.2.7-.1 1.3-.1 1.3s-1 0-1 1.9c0 2.3 6 1.9 6 1.9s0 1 .4 1.5c.8.8 10-.3 14.4-1.1 2.7-.5 2 .1 2 .1s-6.2 2.1-5.8 3.8c0 .3 2 .2 7.1-.2 4.8-.4 9.8-2.7 10.7-4.5 2-3.8 3.8-5.5 5.6-8.5 2.6-3.94 12.55-15.02 19.72-22.7.4.3 1 .3 1.28-.1 1.2-1.3 4.7-5 13.4-13l8.77-8.25-11.67 48.55h45.2c4.33 0 9.75-2.3 12.5-5.9h26.28c0 .1.01.2.01.3.1 3.1 2.7 5.6 5.9 5.6h4.9s-2.03-20.9-5.22-43.87c4.3 1.77 8.4.9 16.32-4.43 11.5-7.7 21.2-20.2 23.6-23.4.3-.4.3-1.1-.1-1.5l-.1-.12 14.8-19.06 1.3-.93s4.2-3.1 5.6-4.3c1.4-1.1 10.5-15.7 10.5-15.7l-.38-.16.03-.03c-.01-.01-.03-.02-.05-.03a4.41 4.41 0 0 0 .3-.39c.84-1.3-1.47-2.53-2.43-3.18l4.63-5.72c.6-.78.2-1.98-.8-2.18zm-90.57 24.88c-.26-.4-.53-.78-.8-1.16l.8 1.16zm88.87-13.38l.01.04-.03-.01c0-.01.01-.02.02-.03zm-10.77 5.42a2.99 2.99 0 0 1-.32-.53 2.67 2.67 0 0 0 .32.53zm3.07-2.42a2.88 2.88 0 0 0 .21.06h0a2.88 2.88 0 0 1-.21-.06zm3-3.38h0l.16-.2-.16.2zm2.4-3.32a2.5 2.5 0 0 0 .17.12 2.5 2.5 0 0 1-.17-.12zm-68.64 36.35c.1.13.22.24.34.36.01-.03-.08-.12-.34-.36zm-145.6 71.02l-.15.04c.01 0 .02 0 .03-.01l.12-.03zm68.14-93.32l.1-.14-.1.14zm110.5 41.14l.07-.2z" fill="#fff"/><path d="M346.14 89.33c-.23-.56-.7-.85-1-.92-.3-.07-.45-.01-.38.07.05.1.37.2.63.65.12.2.2.5.15.84-.03.16-.1.33-.2.47-.08.12-.3.3-.5.5l.02-.06c-.88.97-1.4 1.6-1.86 2.4-.22 0-.7.82-.93 1.03l.01-.03c-.2.35-.48.65-.76.95l-.38.4-.32-.2a5.65 5.65 0 0 0-1.24-.53c-.43-.12-.9-.2-1.4-.15-.5.04-1.1.3-1.46.74-.18.2-.35.5-.42.77-.08.28-.1.54-.08.8.04.5.2.9.4 1.28a1.74 1.74 0 0 0 .11.18c-.4-.05-.82-.08-1.27-.04-.62.06-1.4.18-2.04.88-.16.17-.26.38-.36.6-.1.25-.1.5-.1.76.06.5.3.9.54 1.22l.3.33c-.6.04-1.22.16-1.8.6-.3.23-.55.58-.68.95-.15.36-.14.85-.04 1.2.1.36.26.67.45.94.07.1.03.05.04.07.01.01-.01.01-.02.02h-.05l-.24.03c-.47.08-1.05.2-1.6.74-.27.27-.44.68-.5 1.04a1.85 1.85 0 0 0 .25 1.19l.07.1v.01c0 .01-.01.02-.03.03l-.03.01-.16.03c-.12.02-.25.02-.38.01-.12 0-.25-.02-.4-.06l.02-.01c-.01 0-.01.01-.02.01-.43-.1-.98-.33-1.47-.48l-2.2-.73c-.01 0-.03-.01-.04-.01-.01-.03.02-.06.03-.08.05-.1.13-.22.26-.4.04-.06.1-.1.13-.2l.08-.2.12-.28.54-1.2.03-.06.22-.38.8-1.4c-.08 0 .12-.33.1-.4.03-.02-.01-.01.1-.08l.6-.28 1.52-1-.02.04 1.84-1.36-.02.04c.3-.23.58-.52.82-.8a.99.99 0 0 1-.11.17c.44-.52.82-1.13 1.04-1.8a4.15 4.15 0 0 0 .2-1.05v-.33l-.03-.38-.07-.33.05-.07.25-.33.5-.65c.12-.05 0 .16-.18.4l.46-.56c.06.06-.24.34-.37.52.66-.56 1.07-1.42 1.82-2.1l.1-.2.05-.04c-.03-.02.1-.22.18-.34.15-.06.1.12.44-.26.3-.25.7-.87 1.02-1.28-.2.2-.16.1-.1 0 .16-.2.3-.25.4-.42l.1.05c-.13.01.36-.56.4-.65.14-.06-.2.33-.2.42l.98-1.14c.3-.45-.13.01-.02-.24.28-.37.58-.7 1.05-.9-.06 0-.12 0-.18.01.72-.5 1.3-.46 1.83-.23 6.6.6 1.54-.65 1.54-.65l-1.74-.4c-.77-.13-1.5.1-2.04.44-.28.17-.53.38-.76.6-.27.25-.42.48-.6.7l-1.3 1.6-4.23 4.64-.23.26-.1.03h.05c-.02.03-.05.05-.07.08l-1.22.36-.83.27-1.42.52-2.98 1.18.02-.03-1.06.62c-.35.2-.67.5-.92.7l-1.56 1.3c-.97.9-2.03 1.98-2.5 3.8.1-.45-.1.18-.1.14-.38 1.5-.9 3.05-.74 3.13-.36 1.07-.34.85-.45.97.07.02-.2.95-.5 1.78l.1-.4-.9 2.34.32-.4c-.27.6-.35.65-.42.7-.08.05-.07.12-.4.6l.1.05c-1.1 1.4-2.04 2.07-3.3 3.3l-6.73 6.9c-.5.73-1.14 1.73-.96 1.94.15.18.95-.37 1.67-.93l1-1.04c-.36.32-.8.77-.54.44l1.07-1.05-.18.26 1.6-1.55-.27.16c.8-.75 1.16-.92 1.94-1.88.35-.44-.8.67-.01-.17l3.92-3.9c-.18.07.16-.3.5-.7h.1c.6-.8.76-.9.92-1.07.08-.07.15-.14.3-.3.14-.16.3-.5.48-.95l.05-.38c.52-1.72.5-.84 1-2.77-.25.74-.27.3.07-.6v.25l.32-1c-.07.3.05.2.28-.55l-.08.53.33-1.45c.2-.53.42-1.24.6-1.88.14-.57.38-1.03.53-1.2 0 0 .26-.5.65-1l1.03-1.25c-.3.37.66-.5.45-.18.2-.23.63-.66 1.1-1.07l.36-.3c.1-.07.2-.15.3-.22.23-.13.43-.24.6-.3l-.1.07 3.32-1.4 1.6-.6 1.17-.36c0 .02.01.05.01.07.01.1 0 .18 0 .26-.02.18-.05.36-.1.54-.1.36-.3.72-.5 1.04-.2.53-1.02 1.15-1.54 1.58l-.27.1c-.2.16-.43.33-.66.43v-.03c-.3.24-.68.42-.83.53v-.03l-.4.23.05-.06-.44.28-.22.13-.4.22-.3.58-.22.38h.1l-.1.16-.64 1.1c-.1.17-.2.36-.3.48-.17.2-.35.46-.5.7l-.01-.02-.4 1-.2.42-.17.33a2.64 2.64 0 0 0-.3.34c-.06.1-.14.16-.2.47-.04.14.02.5.2.64.15.15.25.18.3.2l.01.01.03.01c.27.1.57.17.9.24-.2-.04.06.07.04.08.67.2 1.38.43 1.45.27.48.17.38.18.42.27.01-.03.08-.02.18-.01l1.1.36c.23.08.52.15.8.2.05.01.12.02.23.03h0c.05 0 .1.02.16.02.34-.01.62-.03.96-.15.04-.01.07 0 .1-.01.2-.05.4-.1.63-.3.04-.04.06-.05.1-.08.66.45 1.54.76 2.47.9.3.1.6.1.9.1 1.1 0 2.3-.4 2.7-2.2.1-.36.01-.7-.15-1h.05c.5 0 1.02-.05 1.5-.2l-2.14 3.45c-.32.17-1.34 1.97-1.8 2.5l.03-.06c-.45.75-1.02 1.52-1.58 2.1l-2.05 1.6c.04-.05.04-.1.35-.35l-2.43 1.82-1.4 1.1-.76.56-.84.6-1.9 2.48-1.36 1.9.06-.12c-.58.93-.85 1.12-1.55 2.12-.05.04-.1.1-.1.1-.64 1-2.1 2.74-2.66 3.53h-.1l-1.44 1.87.55-.7c-.04.35-1.2 1.34-2.14 2.77-1 1.25-1.7 2.8-2.78 4.06-.42.68.32-.64-.36.34-.1-.03.3-.47.04-.28l-.24.3a3.4 3.4 0 0 0-.33-.29c.44.34-.5-.82-.12-.6-.55-.45-1.98-1.95-2.4-2.68l.1.1-5.2-6.07c-.03.2-.9-.97-.82-.57l-.73-.8-.33-.4-.16-.2c-.08-.1-.17-.2-.27-.3-.8-.75-2.03-.74-2.76-.17-.9.62-1.47 1.06-1.73 1.58-1.03.78-1.32.78-1.88 1.14l.23-.2-4.03 2.78c-.72.53-.7.84-2.1 1.62.38-.36-.16 0-.67.3.32-.2.4-.3-.3.04-.08.08-.2.2-.34.28-.01 0-.04.01-.03-.01-.84.52-.68.46-.27.25-.01.03.03.02.17-.02-.95.4-2.53 1.36-2.7 1.2-1.27.55-2.47.77-3.63.8a10.74 10.74 0 0 1-3.44-.47c-.23-.17.34-.07 1 .08l-1.62-.5c.06-.1.94.28 1.45.38-1.84-.72-3.97-1.38-5.77-3.04l-.45-.24-.1-.1c-.03.05-.5-.24-.78-.48-.17-.32.2-.17-.7-1-.2-.26-.5-.57-.85-.9-.8-.6-2.1-1.5-2.26-1.3-.2.23 3.2 4.38 4.87 6.37.7.52 1.45 1.02 2.35 1.5 1.2.6 2.64 1.23 4.56 1.52.9.15 1.86.2 2.82.13.96-.1 1.92-.28 2.83-.6.94-.36 1.7-.78 2.47-1.2l2.2-1.3c1.23-1 3.65-2.3 5.06-3.5l.65-.3c.5-.4 1.07-.87 1.63-1.2v.05l1.96-1.53-.01.05.58-.45c.02-.02.04-.03.06-.04-.01.02-.01.04-.01.06.04-.06.12-.08.2-.06.04.01.07.03.1.06l.4.45 1.5 1.8.03-.2 4.64 5.52h-.05c1.68 1.6 2.67 3.03 3.8 4.46.08.1.08.25.02.37l-.45.65-.53.82c.25-.4-.18.1-.2.06-1.02 1.37-2.17 2.8-1.96 3-.8.96-.72.73-.9.78.1.07-.56.93-1.2 1.68l.26-.37-1.82 2.12.54-.25c-1.05 1.05-.47.1-1.38 1.17l.16.12c-1.42 1.48-2.47 2.14-3.96 3.44-2.94 2.86-6.05 5.77-9.36 8.32-3.3 2.5-6.84 4.8-10.34 5.96l-.35-.04c-.1-.08-.54.14-1 .38-.47.18-.98.36-1.13.3-.27.1-.53.12-.8.18-.23-.03-.7-.04-.3-.1-.37.03-.56.02-.73.02-.16.01-.3.01-.58.02-.26-.05-.52-.16-.77-.26-.5-.13-1-.3-1.47-.47l-1.87-13.23.08-.45c.18-.22-.74-2.64-.6-3.04l-.28-1.12c-.02-.32-.1-1 .05-.45-.17-1.05-.2-1.07-.4-1.8l-.06-1.14c-.3-2.07-.67-3.97-1.08-5.9l-1.24-6.04c-.2-1.3-.48-2.9-.86-4.64l-1.33-5.5c-1-3.84-2.8-7.48-4.37-9.95-2-3.1-4.5-6.25-7.48-8.97-3-2.7-6.48-4.98-10.2-6.32l-4.78-1.73c-.33-.14-.66-.3-1-.42-.86-.83-1.93-1.7-3.33-2.4l.2.05c-2.06-1-3.9-1.46-5.55-1.63-.83-.13-1.62-.1-2.4-.13-.77.02-1.52.1-2.3.17-.25-.12-1.16-.05-2.14.06-.97.15-2 .36-2.52.4l.1-.04c-2.6.72-5.45 1-7.9 2.08.06-.04.1-.1.32-.22-.8.3-1.7.7-2.42 1.03-.82.42-1.45.7-1.55.67a33.57 33.57 0 0 0-6.11 4.47c-1.82 1.75-3.34 3.48-4.16 4.68l.1-.18c-.9 1.38-1.36 1.64-2.4 3.15-.08.07-.17.16-.16.14-.97 1.5-3.07 4.2-3.82 5.42l-.14.01-1.97 2.93.75-1.08c.01.56-1.66 2.1-2.9 4.36-1.35 1.98-2.1 4.42-3.57 6.43-.5 1.08.36-1-.5.55-.17-.04.36-.75.01-.44-.87 1.5-1.66 2.32-2.72 4.2l-.15.01c-1.3 2.48-2.98 4.35-3.8 6.03-1.48 2.48-1.36 1.42-2.78 4.08l-.77.9c-.72 1.07-.32.9-1.16 2.05-.04-.13-1.04 1.48-.68.72-1.87 2.65-3.28 5.7-5.66 9.24-.28.9-1.45 2.7-1.66 3.38-.13.05-2.15 3.7-1.12 1.53.1-.2.27-.5.3-.46l.04-.3c-1.4 2-2.08 3.88-3.3 5.94.4-.6.85-1.42.6-.83l-1.12 1.92.14-.45-1.7 2.85.34-.33c-.87 1.38-1.34 1.76-2.1 3.44-.33.77.9-1.25.1.26l-.13.2a2.05 2.05 0 0 0-.19.36c-.1.26-.16.54-.16.83-.01.58.22 1.2.74 1.63l2.33 2.03 2.35 2c-.1-.27.46.2 1.08.66l-.01.15c2.4 1.72.66.9 3 2.63l.5.2c2.2 1.47.94 1.1 3.42 2.68-.9-.7-.25-.56.82.38l-.36-.13c.16.12.3.22.4.3-1.4 1.52-2.72 2.98-3.45 3.92l.08-.12c-.72.95-1.03 1.15-1.88 2.17-.06.04-.13.1-.12.1-.8 1.03-2.53 2.82-3.2 3.64l-.1.01-1.7 1.94.65-.7c-.1.37-1.38 1.4-2.52 2.88-1.17 1.3-2.04 2.94-3.26 4.3-.5.72.38-.68-.4.36-.1-.03.34-.5.07-.3-.77 1.02-1.4 1.56-2.3 2.87h-.1l-.84 1.27c-.25.4-.5.8-.76 1.14-.5.7-1 1.33-1.34 1.92-1.2 1.75-1.04 1-2.15 2.95l-.54.7c-.5.82-.25.65-.8 1.56-.02-.02-.17.22-.3.36-.16.16-.27.27-.12.06-.7.7-1.7 1.34-2.8 1.9-1.12.55-2.4 1.04-3.9 1.32-.6.3-2.13.5-2.6.62-.06-.02-3.1.25-1.37 0 .15-.02.42-.04.4-.02l.2-.1c-1.77 0-3.2.33-4.95.4.5 0 1.2-.05.75.03l-.8.04-.72.02c0-.02.15-.04.25-.07h-.26-.08c-.04-.01-.12 0-.1-.07 0-.05.03-.1.06-.13-.04.01-.1.03-.14.06.05-.07.1-.1.16-.13.02-.01.01 0 .04-.02l.12-.08.24-.15 1.22-.76c.5-.33-1 .42.05-.17a29.93 29.93 0 0 1 3.26-1.26l.14-.04.07-.08c.13-.13.22-.2.3-.52.03-.2-.02-.4-.15-.57a.81.81 0 0 0-.29-.23c-.3-.13-.4-.1-.56-.13-.27-.01-.5 0-.7.02-.44.04-.85.1-1.24.17.2.05-.33.15-.88.25l-.08-.06c-2.1.43-.8-.03-2.9.35l.18-.08-.54.23c-1.9.4-1.04-.01-3.14.42.84-.1.4.13-.62.2l.25-.1c-.57.07-.76.12-1.14.14.34-.07.17-.12-.67-.04l.55-.14-1.58.25c-.6 0-1.4.04-2.08.02-.34-.01-.65-.03-.88-.07-.05-.01-.12-.02-.15-.03s-.02-.01-.04-.02c-.02-.02-.03-.03-.04-.05s-.01.02-.06-.14c-.02-.05-.03-.1-.05-.17-.02-.08-.02-.1-.05-.3-.04-.33-.04-.72-.07-1.08l-.94.05-.67.03a7.74 7.74 0 0 0-.68.04c.52-.04-.9-.14-.5-.2-.33.02-1 0-1.6-.13-.63-.1-1.2-.4-1.32-.6l.07.06c-.13-.15-.23-.25-.23-.36-.03-.05-.02-.4.01-.6.03-.22.1-.4.16-.53.03-.06.07-.1.1-.12.02-.1.2-.3.3-.4l7.5-1.73c1.84-.36 7.5-1.2 7.5-1.2.2-.1.5-.4.4-.6s-.3-.4-.6-.4c0 0-5.64.73-7.5 1.1-1.74.34-6.88 1.7-6.88 1.7 0-.02-.02-.02-.02-.03.01-.1.04-.22.04-.25.06-.1.17-.3.4-.48.42-.35 1-.66 1.6-.93-.1-.02.33-.2.6-.36.53-.22 1.04-.4 1.44-.56l.3-.1c1.3-.5 8.6-2.1 8.7-2.1.3-.1.5-.3.4-.6s-.3-.5-.6-.4c-.24 0-4.9 1.04-7.48 1.7l-.1-.03c-.08-.03-.24-.1-.28-.15-.05-.04-.07-.1-.08-.14s0-.1.02-.15c.02-.08.08-.1.1-.17.27-.3.7-.56.88-.8 1.08-.6 1.36-.56 1.95-.8l-.27.13c2.17-.9 2.84-1.06 4.53-1.53.84-.24.93-.45 2.5-.73-.5.16.14.02.72-.08-.37.07-.48.1.3.03a2.8 2.8 0 0 1 .42-.11c.01 0 .04 0 .02.01.97-.16.8-.16.34-.1.02-.01-.02-.02-.16-.02 1.02-.1 2.83-.36 2.96-.26 2.94-.3 5.07-.47 7.53-.5.28.06-.3.1-1.02.12l.87-.01 1.07.01c0 .02-.1.03-.25.03h-1.5l.78.04 1.06.03c.45-.62.62-.88.86-1.24l.7-1.06c.48-.72.98-1.46 1.54-2.2l.24-.46.1-.12c-.03-.01.24-.5.44-.8.25-.25.12.1.8-.9.6-.76 1.5-2.3 2.17-3.36-.4.56-.3.35-.16.1.33-.5.6-.76.82-1.17h.1c-.2.15.8-1.38.9-1.6.25-.25-.47.82-.5.98l2-3.07c.65-1.13-.2.15.07-.42.6-.98 1.16-1.95 1.92-3.04l-.3.3c.8-1.34 1.4-2.28 1.97-3.14.6-1.1 1.87-3.52 1.74-3.63-.18-.14-2.98 3.87-2.98 3.87l-.02-.01-6.18 9.9-3.72 5.34-3.14 4.38h-.96l-1.56.03c-3.3.06-6.83.37-10.04 1-1.5.4-4.17.96-5.86 1.7l-.7.18-1.86.8.03-.04c-.85.47-1.82.94-2.25 1.63l.02-.06c-.3.38-.4 1.04-.14 1.54-.01.01-.03.01-.04.01 0-.01-.01-.01-.01-.02 0 .01.01.01.01.02-.86.3-1.7.62-2.47.98l.15.02c-.82.37-1.5.74-2.05 1.25-.14.13-.27.3-.4.44l-.03.06c-.08.1-.18.2-.24.28-.34.6-.45 1.04-.36 1.4-.05.05-.1.1-.14.15-.2.24-.32.5-.4.76-.1.27-.12.53-.16.8-.01.14-.02.26-.02.43.02.2.04.4.1.58-.02-.01-.03-.03-.04-.05.1.2.23.43.37.58.15.13.3.3.46.4.3.2.62.32.9.43.6.2 1.14.3 1.67.38.53.07 1.05.13 1.57.16l1 .04c0 .05 0 .1.01.16.03.13.06.27.1.4.02.07.05.14.08.22.04.08.1.2.15.28.17.38.73.54 1.02.58.3.04.58.05.86.05-.5 0 .2.06.16.07 1.77.01 3.57-.2 3.6-.36 1.24-.1 1-.04 1.18.01-.01-.07 1.06-.2 2.02-.33l-.44.08 2.75-.37-.56-.07c1.46-.16.4.12 1.8-.1l-.03-.1c.78-.1 1.43-.18 2.06-.24-.32.15-.64.28-.96.44-.54.28-1.07.58-1.58.96-.14.1-.24.18-.4.33a3.12 3.12 0 0 0-.49.55c-.27.4-.38.8-.3 1.2.04.05 0 .14.1.16.02.06.06.1.1.16.06.1.17.14.28.2.24.1.54.12.85.13h.47l.3-.01.57-.03 2.26-.16c1.5-.14 3-.2 4.5-.47 1.5-.26 2.92-.66 4.3-1.16 1.37-.5 2.7-1.1 3.88-1.96.1-.05.23-.1.34-.16.1-.01.54-.4.86-1 .28-.57.44-1.02.6-1.13l.4-.78c.14-.2.44-.62.23-.24.43-.68.43-.7.72-1.2l.56-.67c.94-1.28 1.85-2.48 2.67-3.8.4-.67.8-1.3 1.23-1.9.46-.62.94-1.26 1.48-1.9l10.5-12.24c1.93-2.28 4.16-4.6 6.43-6.93.12.05.23.1.37.13-.36-.05-.47-.07-.26.05.18.08.85.35 1.67-.2a1.95 1.95 0 0 1-1.22.48c.63.01 1.23-.27 1.6-.78.25-.3.3-.38.43-.55l.34-.44c1.24-1.12 3.02-3.12 3.64-3.48 0 0 2.65-2.46 3.13-3.17-.45.6 1.03-.76.7-.27.6-.74 2.54-2.72 3.45-3.37l-.14.15c3.13-2.68 5.02-5 7.8-7.38-.16.01.6-.68.8-.97-.63 2.2-1.25 3.86-1.96 6.32l-6.9 29.5-1.16 4.7-1.34 5.16-.4 1c-.05.08-.1.27-.18.53.37.01.95-.01 1.58-.04l.98-.05.5-.03.32-.03c.75-.07 1.44-.12 1.64-.03l1.44-.1c.4.04 1.25.08.54.13 1.33.01 1.36-.03 2.32-.1l1.42.13c5.24.1 9.7-.15 15.2-.1 3.3.14 8.08.14 12.92.1l7.14-.1c2.37.04 4.62-.54 6.35-1.2 2.42-1 4.86-2.35 6.8-4.46.07-.08.14-.17.2-.25H241c5.92.23 16.28.08 23.9-.05.04.43.12.84.24 1.2.27.86.7 1.56 1.18 2.17 1 1.17 2.28 2.13 4.37 2.58l-.06.03c.34.04.67.03 1 .03l.83-.03a40.1 40.1 0 0 1 1.52-.03l1.6.02 1.8.03h.3c.07.02.06-.04.05-.1l-.01-.15-.3-3.83c-.1-1-.24-2.05-.45-3.23.1.6.05-.26.1-.22-.27-2.18-.55-4.52-.84-4.52-.17-1.6-.06-1.3.03-1.53-.12.02-.33-1.36-.48-2.6l.1.57-.45-3.56-.15.73c-.15-1.9.23-.5-.03-2.32l-.2.05c-.27-2.62-.16-4.18-.32-6.73-.6-5.37-1.44-10.9-2.26-16.35.38.13.6.22.84.32.37.18.8.3 2 .25l.95.12c.53-.01.7-.1.9-.18.2-.08.4-.16.95-.23-.03.16 1.4-.3.8-.02 2.53-.58 4.63-2.13 7.5-3.57.47-.56 1.9-1.3 2.23-1.75.12.03 2.66-1.85 1.28-.65-.12.1-.35.26-.35.22l-.1.22c.82-.43 1.48-.94 2.1-1.5.63-.55 1.24-1.1 1.94-1.68-.44.3-.98.77-.67.4l1.3-1.05-.2.3c.66-.5 1.3-1.04 1.94-1.57l-.34.13c.97-.75 1.44-.88 2.32-1.95.4-.5-.97.66-.05-.24 1.26-1.03 3.1-2.66 4.56-4.13-.24.04.15-.36.53-.8l.14.04c1.4-1.72.76-.4 2.14-2.1l.13-.4c1.1-1.65.9-.62 2.08-2.5-.55.67-.47.13.26-.64l-.08.28c.37-.46.45-.65.72-.94-.17.3.02.26.55-.43l-.26.54.87-1.4c.9-.9 2-2.6 2.46-2.9 0 0 .05-.06.13-.17.05-.06.1-.14.18-.23a2.46 2.46 0 0 0 .28-.45c.3-.63.24-1.6-.26-2.25 2.46-2.96 6.3-8.15 8.58-11.2.84-1.16 1.75-2.34 2.7-3.53l2.86-3.53.9-.6a20.11 20.11 0 0 0 .94-.67l1.85-1.37 1.8-1.38.87-.7c.3-.24.57-.43.87-.8.18-.15.43-.58.43-.58 1.12-1.44 2.1-2.9 3.1-4.4l2.76-4.27c1.46-2.3 3.1-5 3.83-6.4l.2-.4-.18-.06.03-.03c.1-.16.25-.36.3-.66.07-.3.02-.62-.08-.92-.23-.57-.62-.97-.97-1.3a9.42 9.42 0 0 0-.95-.74c-.07-.05-.14-.1-.2-.13a12.47 12.47 0 0 0 .32-.45c.07-.05.17-.25.16-.26l1.52-1.85 1.05-1.3.94-1.2c.5-.5.56-1.3.3-1.84zm-153.77 78.1l.1-.1c-.01.03-.01.05-.02.08-.02 0-.03 0-.07.01zm72.44 39.63l.1-.13v.13h-.1zm8.52-15.2l-.1.1c.5 2.75-.15 1.05.3 3.78l.23.46c.53 2.46-.1 1.37.55 4.1-.14-1.1.22-.55.3.8l-.16-.33c.1.74.2.98.22 1.48-.1-.44-.2-.2-.06.88l-.23-.72.45 2.04c.04 1.6.48 4.12.37 4.8l.17 1.82.08.72c.03.23.06.53.07.5.03.1.07.2.12.3-.07-.14-.1-.07-.15-.06-.1-.04-.17-.1-.2-.15.01.03-.01.06-.06.1l-.02.01-.14.01c-.1.01-.2.01-.32.02l-.67.03c-.9.02-1.85.02-2.34-.06l.18-.01c-1.62-.07-2.87-.7-3.76-1.66-.44-.48-.77-1.05-.96-1.68-.1-.3-.15-.64-.16-1-.02-.36-.01-.83-.01-1.25-.14.17-.13-1.7-.3-1.23-.32-3.62.17-6.62-.43-7.92-.07-1.65.1-1.96.1-2.82l.04.4-.18-6.3c-.08-1.15-.35-1.32-.34-3.38.12.66.08-.18.06-.95.03.5.07.64.12-.37-.04-.14-.06-.36-.1-.57.01-.01.01-.05.03-.03-.07-1.28-.1-1.06-.1-.46-.02-.03-.04.02-.06.2.1-1.34-.1-3.72.06-3.9-.17-3.86-.45-6.62-.66-9.83.08-.37.2.38.27 1.3l-.13-2.28c.13.01.13 1.3.2 2 .1-2.73-.48-5.6-.45-8.8l-.15-.65v-.2c-.06.01-.18-.7-.23-1.17.1-.46.27.01.16-1.56.04-1.26-.3-3.54-.5-5.16.05.88-.03.6-.1.23-.07-.8.01-1.25-.1-1.85l.12-.07c-.12-.1-.32-2.1-.42-2.34.07-.46.23 1.2.33 1.4l-.5-4.73c-.3-1.67-.12.32-.34-.47-.2-1.48-.5-2.9-.63-4.62l-.07.56c-.45-2.77-.77-4.4-.9-6.3-.63-2.54-1.1-4.5-1.6-5.98s-.84-2.48-1.1-3.12c-.53-1.3-.67-1.15-.6-.4.06.76.3 2.13.53 3.3.25 1.17.4 2.18.4 2.18l1.68 10.3c.5 3.24 1.04 6.7 1.5 11.53.6 8.54.46 10.82.95 19.68l.48 12.9c.26 1.96.14 5.44.36 7.77l-.1.9c.08.8.14 1.74.1 2.55l-.04-.05c.12 1.2.1 2.55.16 3.15l-.04-.05.06 1.46-.06-.25c.15 2.08.23 4.22.26 6.12l-2.37.02-.12-.1-4.4.03 1.65.02c-.57.3-3.33-.2-6.53.01-3-.04-6.07.64-9.18.5-1.48.14 1.3-.23-.9-.12-.07-.16 1.03-.1.46-.23-.9.03-1.65.01-2.42-.02.37-.62.7-1.28.9-1.98.25-.72.37-1.34.57-2.02.18-.67.36-1.33.5-2 1.27-5.4 2.12-10.9 2.48-16.07.06-.33.1-1.2.06-1.2l.88-9.44.47-6.6.64-11.93c.14-3.55.2-6-.1-5.44-.3.58-.9 4.2-1.92 12.87l-.03-.24c-.46 5.15-.72 8.4-.76 11.97-.33.54-.38 4.23-.6 5.42l-.01-.12c-.06 3.16-.82 6.43-1 9.46-.01-.1-.06-.17-.02-.64-.23 2.17-.6 4.95-.78 5.08-.37 2.6-.94 5.7-1.6 8.52-.17.68-.3 1.46-.5 2-.07.3-.2.58-.3.84-.1.27-.24.53-.4.77-.55 1-1.23 1.76-1.78 2.34l.13-.18c-.6.68-1.1 1.04-1.6 1.4-.52.34-1.08.68-2 1.2-.1.03-.25.08-.23.06-.86.53-2.26 1.08-3.66 1.38-1.4.33-2.75.37-3.6.4l-.1-.1-4.2.03H224c-.54.3-3.17-.2-6.2.01-2.85-.04-5.77.64-8.73.5-1.4.14 1.24-.23-.87-.12-.07-.16.98-.1.44-.23-2.07.08-3.4-.16-5.95-.06l-.1-.12c-3.33.23-6.28-.16-8.5.05-3.43.1-2.3-.37-5.88-.13l-1.4-.17c-1.53-.03-1.1.2-2.8.12-.35-.1-.84-.08-.54-.2l-.18-.03c.03-.1.06-.2.08-.28l.23-1.03.6-2.78c.42-1.9.9-3.95 1.56-6.18.06-1.12.77-3.56.8-4.4.12-.1 1.2-4.96.73-2.13-.04.24-.15.66-.17.63l.04.36c.9-2.75 1.1-5.12 1.8-7.9-.24.8-.5 1.9-.4 1.16l.64-2.57-.03.56.98-3.83-.25.5c.52-1.86.88-2.47 1.22-4.64.13-.98-.6 1.74-.16-.25l2.53-9.42c-.2.27 0-.6.2-1.5l.15-.07c.58-3.07.58-1.62 1.05-3.68 1.7-1.43 3.1-2.48 3.56-3.38 1.3-1.15 1.66-1.22 2.36-1.78l-.3.3c2.47-2.1 3.2-2.7 5.1-4.18.92-.78.9-1.12 2.65-2.38-.5.5.2-.04.84-.53-.4.33-.5.45.38-.13.1-.12.27-.27.43-.42.01 0 .05-.02.04 0 1.05-.85.85-.73.34-.36.02-.03-.04-.02-.2.08 1.2-.73 3.13-2.34 3.37-2.3 3.25-2.4 5.5-4.3 8.14-6.43.35-.17-.2.4-.98 1.02.65-.48 1.25-1 1.87-1.53.06.1-1 .96-1.6 1.4 2.4-1.62 4.5-3.87 7.1-6.02l.45-.55.16-.12c-.04-.03.45-.6.8-.98.42-.25.16.22 1.34-.97.74-.58 1.7-1.73 2.58-2.82 1.63-2.83 3.47-6.12 3.26-6.22-.36-.18-3.18 3.38-3.18 3.38-.72.85-1.42 1.58-2.04 2.27-.6.7-1.23 1.3-1.82 1.85-1.17 1.12-2.18 2.1-3.3 3.02-1.1.92-2.14 1.9-3.46 2.93-1.3 1.04-2.73 2.27-4.6 3.65l-5.48 4.06-5.4 4.1c-1.53 1.42-4.55 3.53-6.35 5.23l-.82.5c-.62.58-1.35 1.26-2.05 1.76l.02-.06c-.9.88-2.03 1.8-2.48 2.23l.02-.06-1.15 1.03.17-.2c-1.6 1.54-3.27 3.1-4.76 4.43l.22-.01c-3.23 2.82-4.12 4.14-7.1 6.6l.01-.06c-3.32 3.6-5.84 5.07-9.17 8.9.4-.48-.24.14-.23.08l-1.62 1.72-.68.77-.28.33-.12.15-.03.06c-.05.15-.14.26-.13.35-.43.07-.52-.22-.55-.25-.1-.13-.05-.15-.1-.26-.07.1-1.24-.78-2.27-1.6l.5.35-2.95-2.35.43.65c-1.5-1.32-.2-.54-1.73-1.7l-.1.17c-2.12-1.78-3.2-3.03-5.18-4.84l-2-1.64c-.14-.12-.18-.27-.03-.5l.96-1.7 1.92-3.43 3.83-6.88c2.54-4.56 5.05-9 7.74-12.92l.37-.3c.28-.05 1.26-2.58 1.64-2.8l.57-1.07c.22-.26.64-.84.35-.3.6-.93.6-.97.98-1.68l.76-.93c2.47-3.63 4.3-6.93 6.8-10.8 1.6-2.28 3.76-5.64 5.94-9.06 2.2-3.4 4.44-6.84 6.18-9.28 2.38-3.46 5.4-6.92 8.93-9.7 1.78-1.36 3.64-2.6 5.64-3.5 2-.9 4-1.63 6.08-2.2a4.5 4.5 0 0 0 .95-.31c2.54-.57 5.1-.98 7.67-1.07l1.54-.02 1.7.1c.63.1 1.34.16 2.07.3 1.47.28 3.05.84 4.5 1.6 1.46.76 2.68 1.87 3.65 2.9l.7.76.57.74c.37.45.66.87.88 1.2.08.12.15.2.22.3l.47.2c-.04-.16-.1-.37-.22-.67l-.32-.8c-.1-.16-.18-.33-.28-.52l.96.6 1.13.8 1.1.9c.28.25.58.68.87 1.02.2.16.38.36.55.56l.1.2c.02-.03.62.6.86 1.13.1.55-.2.06.53 1.8.52 1.4 1.26 4.1 1.6 6.1-.12-1.08-.01-.74.1-.28.12.97.1 1.54.2 2.28l-.12.1c.12.13.35 2.6.4 2.92-.08.56-.18-1.5-.3-1.75.18 1.95.13 2.45.17 2.94.02.5.06.98.07 2.95.13 2.1.15-.38.3.62.03 1.86.1 3.68-.07 5.8l.17-.67c-.01 3.5-.16 5.6-.45 7.94l-.16 11.9c.06 1.75.22 1.64.43.7.2-.93.43-2.68.6-4.2l.3-2.8c.53-5.13.76-9.03.82-13.2.03-2.08.04-4.23-.04-6.64-.07-2.4-.2-5.06-.6-8.17-.13-1.37-.4-2.6-.6-3.75-.3-1.14-.52-2.2-.9-3.17-.25-.82-.62-1.57-.97-2.3 1.04.97 2.06 1.98 3 3.03l.98 1.12c.6.7 1.4 1.7 2.26 2.9 1.7 2.37 3.4 5.58 4.47 8.16l1.23 3.12c.3.72.5 1.05.55.8.04-.26-.02-1.12-.4-2.75-.36-1.63-1.04-4.06-2.58-7.26l.14.14c-2-3.7-3.73-5.8-5.86-7.77-.04-.28-.64-.9-1.3-1.53.93.66 1.85 1.37 2.7 2.1l1.25 1.1 1.1 1.08c.73.65 1.26 1.32 1.76 1.77l-.15-.1c.56.5.87.9 1.16 1.32.3.42.6.86 1.13 1.52.04.1.08.2.07.2.48.66 1.17 1.66 1.7 2.7.5 1.05 1.03 2.04 1.3 2.66l-.07.12c.38 1.02.87 2 1.17 3.06-.1-.4-.22-.8-.37-1.17.1.07.22.26.3.53.08.28.16.65.26 1.07.17.86.47 1.9.82 3.08.46 2.2 1.7 4.32 2 6.67.37 1.07-.43-.92.02.7-.15.1-.26-.75-.3-.3.4 1.6.4 2.68.9 4.65l-.1.1c.7 2.57.76 4.95 1.28 6.65.56 2.68-.06 1.87.66 4.64l.02 1.12c.18 1.2.34.83.48 2.18-.12-.06.18 1.7-.04.93.32 3.05 1.2 6.1 1.5 10.13.34.84.5 2.86.74 3.5-.07.12.54 4.03.04 1.8-.04-.2-.1-.53-.05-.52l-.16-.25c.08 2.3.7 4.12.96 6.38-.05-.67-.18-1.56-.01-.98l.26 2.1-.16-.42.35 3.13.07-.45c.14 1.54-.01 2.1.4 3.8.2.77-.01-1.47.23.14l.7 7.75c.14-.26.22.45.33 1.16zm65.5-92.72c-.4-.3-.7-.62-.95-.92-.1-.1-.18-.23-.25-.36-.1-.17-.16-.35-.2-.52-.1-.2-.1-.6 0-.8.2-.2.3-.3.5-.4.36-.1.85 0 1.3.18.23.1.46.2.68.33l.2.12.32.22.62.44c.02-.03.05-.06.07-.1.7.4 1.74 1.06 1.84 1.7 0 .2 0 .3-.1.5-.47.78-1.07 1.13-2.17.76-.4-.22-.83-.43-1.3-.62-.07-.04-.13-.1-.2-.15l.06-.08-.4-.33zm-2.42 3.7l.03-.04-.32-.15-.17-.15-.24-.2c-.5-.33-.97-.64-1.32-1.02-.33-.37-.5-.73-.3-1.02.02-.03.05-.06.07-.08.25-.23.83-.4 1.56-.38.38.01.8.05 1.2.13a4.14 4.14 0 0 1 .56.15l.63.2.4.13.1-.13c1.5.65 2.74 1.6 2.52 2.23-.4 1.07-1.22 1.16-2.92.84-.5-.2-1.14-.37-1.8-.5zm5.62-1.2c-.03-.08-.08-.16-.13-.24a2.39 2.39 0 0 0 1.11-.54c-.25.32-.54.72-.9 1.2a.87.87 0 0 0-.09-.41zm-8.7 8.3c-.74-.07-1.43-.37-1.95-.74l-.32-.4-.02-.02c-.48-.46-.52-.8-.25-1.05.14-.14.43-.25.74-.3.34-.05.54-.08 1.3-.01h.01c.07.01.15.03.2.04 2.4.35 2.76.72 2.8 1.25.01 1-.72 1.44-2.52 1.24zm2.1-3.2c-.57-.1-1.17-.3-1.7-.58l-.4-.27c-.6-.4-1.1-1.08-1.03-1.55.08-.52.7-.8 1.36-.8l.13.08c.04.1.75-.2.85-.04.1 0 .2-.01.32 0 .08.04.23.1.1.1.1.03.27.08.34.08l.46.06.1-.16c1.4.32 2.56.96 2.8 1.38.1.1.1.2.1.4-.12.8-.72 1.7-3.42 1.3zm4.42-1.56c-.02-.24-.08-.47-.18-.65a3.19 3.19 0 0 0 .77-.16l-.6.8z"/><path d="M264.37 151.55l-.03.02c.01.01.02.01.03-.02zm9.15 44.2h0l-.1-.24zm-68.36 2.32h-.01l-.14.01z"/><path d="M232.4 168.43c-.12-.4-.26-.37-.4-.12-.72-.2-1.88-.45-3.65-.75l.08-.04c-1.82-.16-2.97-.2-4.24-.01-.2-.3-1.5-.07-1.93-.17l.04-.02c-1.12.2-2.3-.24-3.37-.07.04-.02.07-.1.3-.1-.78.02-1.86.06-1.9-.1-1.87 0-4.48-.14-5.68.1l.08-.04c-.7.16-.88.01-1.65.08l-.1-.04c-.75.16-2.17-.03-2.77.04l-.04-.1-1.48-.01.55.04c-.1.15-.38.1-.77.02l-1.02-.1h-.78c-.01.02-.01.05-.01.08l-.02.33a7.47 7.47 0 0 0-.11 1.16v.28l.02.2.05.4c.06.53.1 1.07-.04 1.57.06.5-.16-.47-.17.28-.16 0-.05-.36-.2-.2-.04.73-.35 1.16-.37 2.07l-.13.02c.05 1.2-.5 2.17-.4 2.98-.07 1.22-.48.75-.4 2.04l-.23.46c-.1.53.15.4-.01 1-.1-.05-.18.74-.24.38-.34 1.33-.12 2.77-.58 4.53.17.4-.05 1.3.08 1.6-.1.04-.16 1.82-.28.78-.01-.1.01-.24.04-.23l-.1-.13c-.3 1.02-.02 1.88-.05 2.98.04-.32.03-.75.12-.46l.01 1-.12-.2c.03.5.02 1.02.12 1.53l.1-.23c.04.37.01.64.03.9.04.27.1.55.33.94.2.34-.05-.74.22.01.25.97.92 2.43 1.87 3.4.01-.2.26.07.54.3l-.05.12c1.2.7.22.6 1.46 1.2l.3-.02c.6.18.7.3.85.42.14.12.3.27.98.33-.5-.16-.13-.34.44-.07l-.2.06.68.18c-.22.01-.16.14.34.26l-.38.05 1 .05c.7.3 1.9.35 2.16.54l.83.13c.44.03.93.05 1.1-.03-.33.1.54.2.3.32.42-.1 1.62-.16 2.1-.03h-.1c1.8.15 3.06-.3 4.7-.36-.1-.13.76-.2.52-.35 1.6-.48 3.1-.4 3.47-1.18.7-.3.9-.23 1.27-.4l-.15.1.8-.46.6-.4c.37-.22.66-.48 1.1-.82.38-.4.26-.66.95-1.34-.1.32.12-.01.34-.3-.13.2-.15.28.2-.07.01-.08.07-.17.1-.26.01 0 .02-.01.03 0 .28-.56.2-.48.04-.24-.01-.02-.04-.01-.1.05.2-.24.47-.62.6-.97.15-.35.27-.63.37-.63.15-.45.22-.88.3-1.28l.1-1.1.2-2.08c.12-.14.15.2.1.6l.13-1c.13.03-.01.6-.04.9.4-1.16.17-2.5.56-3.86l-.06-.3.03-.08c-.06 0-.1-.33-.08-.54.14-.18.26.05.35-.64.2-.53.15-1.57.17-2.3-.07.38-.12.25-.14.08.04-.35.18-.53.16-.8h.16c-.16.12-.05-.93-.1-1.06.14-.18.03.55.1.65l.22-2.1c-.03-.76-.16.12-.26-.25.05-.66.01-1.3.2-2.05l-.17.22c.03-1.24.12-1.98.35-2.8l-.24-3.9c.62-.17.7-.35-.04-.6zm-1 2.35c-.68 3.57-.47 5.47-.88 9.76l-1.45 8.57-.52 2.64c-.26.76-.57 1.5-1.08 2.1-.3.74-1.46 1.48-2.18 2.08-.12.03-.25.05-.38.07-.26.2-.57.43-.9.5v-.04c-.4.27-.95.43-1.17.54l.01-.04-.57.2.08-.08c-.8.34-1.7.54-2.5.62l.1.13c-1.72.08-2.34.43-3.92.25l.02-.04c-2 .37-3.13-.32-5.16-.28.25 0-.1-.1-.07-.13-.92-.12-1.87-.37-1.96-.1-.66-.18-.5-.25-.55-.38-.03.1-.6-.02-1.1-.22.08.02.15.04.24.05-.45-.2-.93-.37-1.34-.63l.13.36c-.65-.48-.03-.35-.7-.7l-.1.17c-.86-.7-1.1-1.36-1.57-2.22-1.12-1.7-1.5-3.92-1.36-6.25.1-2.35.33-4.7.77-6.8l.17-.17c.22-.05-.16-1.23.06-1.37l-.03-.5c.06-.14.14-.43.15-.17.07-.46.04-.48.02-.82l.2-.48c.36-1.8.34-3.4.68-5.3.16-.57.3-1.26.43-2.03l.17-1.02.02-.15.01-.08c.02-.01.05 0 .07-.01-.07-.03 1.12-.03 1.87-.05l2.2-.07c3.57-.23 7.7.72 11.35.44a.89.89 0 0 0 .42-.05l3.34.1s4.98.15 7.32-.08c-.2.76-.34 1.7-.34 1.7zm-20.07-74.26l.36-.14-.36.14zm-47.06 86.76h0l-.25-.1z"/></svg>