<svg xmlns="http://www.w3.org/2000/svg" viewBox="0 0 480 480" xmlns:v="https://vecta.io/nano"><path d="M156.57 219.93l.02.12v-.02zm12.1-15.26l-.1.13c.02.01.06-.02.1-.13zm4.9-88.2l.77-.3c-.02-.01-.22.06-.77.3zm95.35 92.46l.5-.01h-.08l-.4.01zm90.64-62.15s1.5-1.7.9-2.9c-.6-1.1-2-.5-2-.5s.7-1.2-.1-1.9c-.7-.5-2.9.6-5.1 2-1.8 1.2-6.9 2.8-7.8 3.3s.6-1.8 1.6-3.1c1-1.5 1-3.6-1.4-1.6s-4.7 3.3-5.3 3.9-3.1 2.6-4.2 4.6c-.7 1.3-1.2 3.2-4.3 4.7l-.43.18c-.72-1.1-2.13-1.62-3.47-1.18l-3.2 1.18c-2.58-4.16-5.08-5.2-8.3-6.48-9.2-3.6-32.1 9.6-38.4 4.9-5.7-4.2-15.7-25.6-19.7-31.3-9.5-12.9-18-29.2-39.9-22-1.25.74-2.35 1.57-3.33 2.47-4.3.67-8.75 1.95-12.97 3.13-12.5 3.5-56.4 19.8-62.7 39.2-3.38 10.2-4.26 22.82-3.2 33.16.06.78.13 1.5.2 2.14a69.46 69.46 0 0 0 .68 3.87c.04.22.1.43.13.65.52 2.53 1 4.3 1 4.3h.13c.9 2.9 1.62 7.23 6.47 9.9 1.77 1 3.92 1.72 6.24 2.17l.46 3.73c.2 1.6 1.6 2.7 3.2 2.5l.5-.05 2.1 7.75s-1.1 7 2.8 13.6c3.9 6.7 4.2 8 5 8.7 1.4 1.1 2-.6 2-.6s1.1 1.9 2.5 1.7c1.2-.2 1.1-1.7 1.1-1.7s.9 1.1 1.9.4c.7-.5.47-2.8.05-5.44-.42-2.52-1.05-7.56-1.25-8.56s1.5 1.1 2.5 2.4c1.2 1.4 3.1 2 1.9-.9s-1.8-5.4-2.1-6.2c-.4-.8-1.6-3.8-3.1-5.4-1-1.1-3.3-2.4-3.8-5.8a27.14 27.14 0 0 1-.22-1.5 2.88 2.88 0 0 0 1.42-2.7l-.22-3.25c.82-.37 1.57-.78 2.22-1.25 2-1.6 4.1-6.1 5-10 1.8-8.4 2.9-19.7 4.3-22.2.8-1.35 9.86-5.35 19.5-9.68l-.24 1.3-.18.17a2.77 2.77 0 0 0 .16-.06l-9.42 49.17h79.3l-.37-6.83c19.6-.9 43.28-11.33 54.17-17.27 6.62-3.6 8.85-7.3 8.4-12.33l3.7-1.67c1.46-.58 2.05-2.2 1.54-3.66l5.86-3.44s7-1 12.2-6.7 6.4-6.3 6.8-7.3c.7-1.7-1.2-1.7-1.2-1.7zm-7.65 11.9l.08-.07h-.02zm-23.02-5.27l.16.06c0-.03-.04-.06-.16-.06zm-54.77 47.64l-.93.05c.02.03.26.02.93-.05z" fill="#fff"/><path d="M337.32 167.4l.08.08-.08-.08zm-130.08-46.78v-.01l-.08-.36zm108.7 63.68h0l.06-.13zm-163.06 24.45c-.04.02-.07.04-.1.05l.1-.05zm12.33-6.85l-.55.13c.18-.03.37-.08.55-.13zm150.2-54.2c.17.03.34.05.5.1l-.5-.1z"/><path d="M361.23 146.94c-.16-.27-.56-.5-.5-.48l-.01-.01.02-.01h-.22c-.03-.02.04-.1.07-.15l.12-.2.25-.5c.15-.35.27-.73.26-1.18a1.89 1.89 0 0 0-.56-1.33c-.2-.18-.44-.33-.7-.4-.13-.04-.26-.07-.4-.07-.04 0-.05 0-.08.01-.06.01-.12.04-.2.08.1-.05.02-.04.06-.07h-.01c.02-.04.04-.1.04-.16v-.1c0-.13-.02-.26-.05-.4-.07-.25-.16-.48-.32-.65-.3-.36-.6-.38-.62-.33-.6-.15-.75-.04-.86-.08-.1 0-.08-.04-.15-.06 0 .06-.73.28-1.3.56l.26-.14c-.57.24-1.1.53-1.64.83l.38-.05c-.86.43-.3-.04-1.08.45l.07.1c-1.16.7-1.82.9-3 1.3l-3.7 1.46-.54.22-.3.14c-.05.02-.1.08-.17.06-.03-.05 0-.1.02-.15a2.1 2.1 0 0 1 .15-.3c.07-.13.07-.14.28-.45l.56-.8c.22-.28.4-.64.54-.96a4.12 4.12 0 0 0 .18-.53c.05-.23.1-.47.1-.73.01-.5-.23-.97-.7-1.1-.43-.15-.97.1-1.34.3-.66.4-1.08.8-1.58 1.14l-.22.06c-.15-.04-.95.95-1.17.96l-.43.37c-.14.07-.43.24-.22.06-.43.3-.43.32-.72.56l-.5.25c-.45.3-.85.54-1.3.95l-1.05 1-2.16 2.27c-.46.5-1 1.2-1.4 2.03-.4.8-.77 1.57-1.36 2.22-.57.65-1.3 1.2-2.05 1.6-.1.05-.2.1-.3.14-.24-.2-.48-.37-.75-.52-.02-.13.17-.1.38.02-.16-.1-.3-.2-.48-.3.07-.12.32.1.47.2-.2-.3-.55-.44-.9-.53s-.72-.1-1.1-.25l-.17.1-.05-.02c0 .06-.17.13-.28.15-.1-.1 0-.27-.4-.22-.16-.03-.38.02-.6.13-.2.1-.34.22-.5.3.17-.04.14.04.08.1-.15.06-.27-.02-.36.07l-.07-.14c.1.12-.33.3-.36.37-.12-.08.2-.18.2-.27l-.87.35c-.27.23.1.12 0 .3-.2.1-.36.22-.57.3l-.95-1.42.1.1c-1.2-1.47-2.68-2.88-4.4-3.86-.85-.5-1.72-.9-2.57-1.25-.8-.36-1.84-.68-2.76-.78.1.01.2-.03.6.03-1.38-.28-2.87-.28-4.04-.22l-.48.01-1.07.07-.34.03c-.06 0-.1-.01-.13-.02l-.5.1-.62.06c-.93.12-1.84.32-2.7.57l-6.1 1.6-8.02 2.54.24-.1c-2.08.75-2.75.78-5.12 1.38l-.28.01c-1.15.3-2.87.6-4.5.55-.8 0-1.58-.16-2.2-.35-.3-.12-.6-.22-.8-.38-.23-.1-.44-.3-.6-.45l-.02-.16c-1.14-.94-2.1-2.23-3.07-3.47l1.06 1.4c-.63-.28-2.04-2.94-4-5.8-1.68-2.78-3.93-5.36-5.45-8.4-.9-1.35.9 1.13-.37-.93.1-.15.63.94.44.33-1.22-2.04-1.73-3.5-3.24-6l.05-.16c-2.05-3.23-3.36-6.45-5.1-8.42-2.4-3.14-1.23-2.36-3.82-5.57l-.8-1.4c-1.03-1.44-.9-.9-2.04-2.5.16.03-1.48-2-.68-1.17-1.33-1.8-2.87-3.5-4.68-5.2a40.57 40.57 0 0 0-6.48-4.97c-.32-.1-.72-.28-1.16-.5l-1.43-.6-1.4-.5c-.43-.12-.8-.2-1.04-.23-.06-.08-1.54-.47-2.6-.63-1.06-.17-1.7-.3.02-.14.3.02.8.1.77.15l.43-.03c-1.7-.46-3.3-.6-4.86-.52-1.58.04-3.12.27-4.8.52 1-.12 2.33-.27 1.45-.1-1.05.1-2.07.3-3.1.5l.62-.22c-1.55.28-3 .67-4.57 1.13.3-.04.45-.05.7-.07l-.4.1c-.1.03-.27.06-.5.14l-.7.4c-.4.22-.76.4-1.1.65-.34.24-.7.48-1.07.8-.26.24-.56.52-.87.84-2.8.5-3.97.83-6.44 1.43-1.42.42-1.57.74-4.13 1.38.8-.33-.24-.02-1.2.24.6-.2.78-.28-.5.01-.17.08-.43.18-.7.27-.01 0-.06 0-.04-.01-1.58.5-1.3.46-.55.25-.03.03.04.03.27-.01-1.7.34-4.55 1.45-4.8 1.35-4.68 1.64-7.93 3.1-11.72 4.7-.46.1.4-.36 1.5-.83l-2.7 1.13c-.03-.13 1.53-.7 2.35-1.07-3.32 1.1-6.56 2.94-10.34 4.48l-.72.46-.23.1c.04.05-.76.5-1.3.78-.57.15-.08-.26-1.9.64-1.5.6-4.03 2.1-5.84 3.17 1-.53.7-.3.3-.03-.88.5-1.45.68-2.1 1.1l-.13-.07c-.07.17-2.27 1.48-2.53 1.7-.56.2 1.3-.88 1.48-1.08l-2.6 1.57c-.43.28-.88.52-2.57 1.64-1.75 1.28.4-.1-.38.6-1.58 1.08-3.03 2.25-4.84 3.5l.64-.3c-2.8 2.26-4.38 3.68-6.23 5.26-2.28 2.46-3.74 4.64-4.66 6.38-.94 1.73-1.34 3.03-1.55 3.87-.42 1.7-.18 1.66.22.77.22-.4.5-1 .8-1.65.38-.62.73-1.33 1.14-1.95.43-.6.77-1.2 1.1-1.6l.5-.64a45.05 45.05 0 0 1 4.68-5.01c1.54-1.45 3.08-2.74 4.7-4.03 3.28-2.55 6.9-5.13 12.28-8.18 4.8-2.6 7.95-4 11.15-5.42l11.7-4.9c5.04-1.93 10.44-3.9 15.5-5.32 2.08-.78 5.64-1.6 8.4-2.28-.65.8-1.3 1.7-1.86 2.68-.87 1.5-1.54 3.2-2.02 4.84-.04.1-.1.18-.13.27-1.7 3.1-3.33 7.9-4.58 12.85l-.8 3.73-.38 1.83-.28 1.8-1 6.4c-.87 5.55-2.17 11.52-3.43 17.5l-.44 2.1c-.95 4.52-1.85 9-2.5 13.3-.1.34-.2 1.24-.17 1.24l-1.86 9.68s-8.95 46.95-.46 11.6v.25c1.1-5.28 1.77-8.62 2.23-12.32.4-.53.85-4.35 1.18-5.58v.12c.4-3.27 1.44-6.63 1.83-9.8 0 .12.06.2-.07.92.4-2.28.92-5.4 1.1-5.54.98-5.44 2.5-13 2.88-16.52v.25c.2-2 .46-2.57.8-4.8.04-.12.1-.27.1-.25.26-2.2 1.1-6.3 1.32-8.06l.13-.1c.12-.7.22-1.44.37-2.15l.46-2.12-.38 1.58c-.1-.3.14-1.1.45-2.2.33-1.1.65-2.53 1.02-4.06.44-1.4.64-2.9 1-4.38.24-.9.47-1.83.77-2.73 0 0 4.18-10.26 7.16-12.22.62-.67 1.3-1.3 2-1.88.37-.27.72-.57 1.1-.83l.58-.38c.2-.12.43-.3.45-.28 1.73-.57 3.63-1.07 5.48-1.4 1.87-.3 3.76-.43 5.63-.33 3.74.18 7.36 1.4 10.4 3.4 3.08 1.98 5.62 4.6 7.8 7.33l.28.56c.02.32 2.65 2.83 2.8 3.4l1.05 1.26c.24.4.78 1.2.26.57.88 1.24.93 1.25 1.62 2.1l.84 1.4c.84 1.24 1.7 2.43 2.53 3.57.76 1.1 1.5 2.3 2.2 3.5 1.43 2.4 2.84 4.9 4.34 7.7 1.73 3.4 4.33 8.24 7.42 12.94 1.58 2.34 3.17 4.7 5.3 6.58.3.23.5.48.86.67.33.2.67.4 1.02.5.7.27 1.38.38 2.03.44 1.3.1 2.47 0 3.53-.14 2.73-.42 5.45-1.14 8.2-1.9.1.8.37 1.82.37 1.82.8 3.63 1.77 5.33 3.2 9.5 1.1 3.72 1.14 4.78 2.44 8.6.55 1.84 1.22 3.77 1.8 5.55.47.8.74 2.35 1.22 3.3v.43c.17.33.33.72.38 1.1l-.04-.01c.25.5.38 1.1.5 1.33l-.04-.01.2.62-.08-.1c.37.87.67 1.8.88 2.63l.12-.1c.06.23.1.43.15.62.07.22.13.43.18.62l.3.93-3.5 1.42c-4.4 1.72-9.1 3.5-15.84 5.26-5.96 1.44-9.8 1.92-13.7 2.24-1.94.14-3.9.25-6.15.2-2.24-.03-4.8-.16-7.8-.75-2.87-.6-5.75-1.6-8.27-3.14-.66-.35-1.23-.82-1.82-1.25-.6-.4-1.1-.95-1.65-1.43-.54-.46-1.04-1.07-1.55-1.62l-1.5-1.66c-1.03-.97-2.24-2.5-3.54-4.02l-3.58-4.5-.67-1.1c-.73-.9-1.57-1.95-2.16-2.94l.07.04c-1.06-1.36-2.1-2.98-2.6-3.68l.07.04-1.16-1.73.24.27c-1.72-2.45-3.33-5.1-4.67-7.46l-.01.27-3.74-6.68c.01.14.01.23.01.23s-4.66-9.73-5.62-10.4c-.75-.54 2.84 8.7 4.02 11.68l3.5 6.23c.01-.27 1.3 2.08 1.13 1.4 2.86 4.4 4.8 8.33 6.36 9.56 1.4 1.94 1.5 2.42 2.2 3.42l-.36-.44c2.68 3.6 3.5 4.6 5.56 7.23 1.12 1.24 1.47 1.28 3.36 3.58-.73-.65.1.25.85 1.07-.5-.52-.67-.66.26.48.16.13.4.35.6.56 0 .01.04.06.01.05 1.28 1.36 1.08 1.1.5.44.04.02.01-.05-.15-.26.56.78 1.6 1.72 2.45 2.5.93.7 1.68 1.28 1.72 1.43 2.43 1.58 4.76 2.43 7 3.07 1.13.28 2.22.55 3.34.7 1.1.22 2.24.3 3.4.42.52.16-.58.1-1.95-.02 1.1.12 2.2.28 3.32.3-.02.07-.5.06-1.1.02l-1.84-.2c2.57.48 5.27.47 8.1.33l.08 1.64c.07.75.17 1.18.27 1.76.05.3.1.62.13 1.04l.04.5c0 .15.01.3.02.5-.07-.3-.1-.26-.1-.12.05.1-.13.05-.22.06h-.36c.16-.01.25-.02.22-.04-.01-.01-.06-.02-.13-.04-.04-.01-.08-.01-.13-.02-.03 0-.05-.01-.08-.01-.07 0-.15-.01-.23-.01-.2.03-.47.05-.74.07-.01-.01-.06-.01-.04-.03-1.68.04-1.4.07-.6.08-.04.02.03.04.27.07-1.74-.14-4.86.01-5.07-.17-5.05.04-8.66.23-12.86.3-.47-.1.5-.18 1.73-.2l-2.98.03c.03-.13 1.7-.08 2.63-.1-3.55-.22-7.32.22-11.48.02l-.86.1-.25-.02c.01.06-.92.13-1.54.15-.6-.12.04-.27-2.02-.26-1.63-.1-4.63.06-6.76.12 1.15.02.78.08.28.13-1.03 0-1.62-.1-2.42-.06l-.08-.12c-.14.12-2.75.13-3.1.2-.6-.12 1.6-.1 1.86-.2l-6.2.02c-2.2.12.4.15-.65.3-1.95.03-3.84.14-6.08.05l.7.14c-3.66.1-5.84.1-8.3-.05-27.24 1.14-5.74 1.56-5.74 1.56 10.72.3 16.26-.1 29.02-.2 11.22.07 14.2.34 25.82.23l8.5-.02 9.5-.06c.13-.02.34.03.4-.06-.01-.16-.03-.33-.04-.5l-.08-1.03-.12-1.72-.23-4.1 2.72-.16.94-.22.28-.02c-.02-.05 1-.25 1.68-.36.66.01-.01.27 2.25-.1.9-.08 2.16-.36 3.5-.64 1.3-.33 2.7-.66 3.84-1-1.24.3-.86.12-.33-.05 1.1-.28 1.78-.3 2.6-.6l.1.1c.12-.15 2.9-.9 3.25-1.1.66-.06-1.67.6-1.93.74 4.4-1.28 2.2-.6 6.57-2 2.28-.9-.46 0 .6-.5 2.03-.72 3.97-1.5 6.3-2.3l-.78.15 8.52-3.38c4.5-2.16 7.57-3.85 9.62-5.07.4-.1.8-.2 1.3-.36l1.93-.93c.24-.1.45-.24.68-.36l.17-.1c.04-.04.16-.04.1-.12l-.04-.2c.05-.02.08-.04.13-.06.3-.14.66-.3 1.06-.5l1.37-.8c.52-.3 1.04-.74 1.66-1.2.55-.53 1.23-1.05 1.8-1.8 1.2-1.43 2.23-3.63 2.3-6.3l.04.3c0-.2-.01-.4-.01-.6a1.84 1.84 0 0 1 .42-.09c.08-.26.5-.3.55-.5.06.07.74-.32.4.05-.03.03-.1.06-.1.02v.13c.5.03.7-.45 1.12-.6-.14.02-.3.1-.22-.03l.4-.16-.04.13.6-.2-.13-.08c.28-.06.52.1.86-.3.13-.2-.42.05-.07-.2.5-.2 1.24-.73 1.6-1.4-.16 0-.07-.17-.02-.36l.12.02c.05-.77.37-.2.37-1-.05-.05-.1-.1-.16-.15-.1-.34-.05-.42 0-.52s.1-.23-.14-.56c.05.23-.14.2-.22-.02l.63-.38 4.62-2.57c-.06.01.2-.03.33-.05.16-.03.32-.06.48-.1.33-.07.66-.16 1.02-.25.7-.2 1.5-.47 2.4-.85a21.98 21.98 0 0 0 5.7-3.35c.37-.35.88-.82 1.42-1.3.5-.5 1.05-1.05 1.4-1.5l.36-.28c.24-.32.54-.67.84-.94v.03c.36-.47.85-.93 1.03-1.16v.03l.5-.52-.06.1c.68-.78 1.43-1.54 2.12-2.18l-.12-.01c.74-.68 1.24-1.13 1.68-1.84.2-.38.33-.73.35-1.25.06-.3-.02-.6-.2-.9zm-40.33 35.32c-.04.01-.1.02-.14.03h-.07c-.01 0-.04.01-.12.04l-.83.32-1.7.7c.16.08-.13.22-.4.4l-.1-.1c-1.06.7-.54-.04-1.6.63l-.12.25c-.9.72-.66.03-1.64.9.44-.24.33.14-.24.36l.1-.18c-.3.17-.37.26-.6.33.16-.14.02-.2-.42.02l.24-.27-.76.57c-.72.17-1.7.78-2.04.74 0 0-1.45.55-1.7.86.24-.23-.56.07-.4-.15-.3.28-1.36.85-1.85.92l.08-.05c-.1.04-.2.07-.3.1l-.15.06c-.04.02-.02.01-.04.01-.03.01-.05.02-.07.03-.04.01-.1.12-.13.06-.03-.03-.07-.08-.1-.15l-.14-.47c-.05-.18-.1-.37-.13-.57-.12.1-.3-.7-.4-.46-.66-1.5-.53-2.97-1.26-3.36-.25-.7-.14-.88-.22-1.26l.08.16c-.46-1.32-.6-1.7-.9-2.7-.2-.48-.5-.48-.7-1.38.2.26.06-.1-.05-.43.08.2.14.26.07-.2-.05-.05-.1-.14-.14-.22.01-.01.01-.03.02-.02-.2-.54-.2-.44-.14-.18-.02-.01-.03.02-.04.1-.05-.62-.5-1.6-.36-1.72-.56-1.65-1.1-2.8-1.6-4.15.04-.18.22.12.38.5l-.34-.97c.13-.03.25.54.37.84-.16-1.24-.96-2.35-1.2-3.78l-.2-.25v-.1c-.05.02-.22-.26-.3-.46.05-.23.26-.07.04-.74-.06-.57-.53-1.5-.8-2.2.1.4 0 .28-.1.13-.1-.34-.06-.57-.2-.82l.14-.08c-.1.18-.43-.84-.53-.95.05-.23.26.5.37.56l-.66-2.04c-.34-.7-.1.18-.34-.13-.23-.63-.53-1.23-.67-2l-.06.27c-.48-1.17-.7-1.9-.8-2.75-.77-1.72-1.32-2.8-1.7-3.45l.3-.1-.22-.7s.2-.06.54-.17c.7 0 2-.13 4.15-.46l-.07.07c1.82-.42 2.95-.7 4.12-1.28.27.22 1.48-.37 1.9-.37l-.03.03c1.03-.47 2.3-.33 3.32-.72-.04.03-.05.1-.3.16.76-.2 1.82-.42 1.9-.26.4-.07.84-.14 1.3-.2l.34-.04c.06 0 .14-.02.2-.01l.3.87c.18.5.35.92.52 1.23l-.07-.07c.37.62.28.86.6 1.58-.01.05 0 .1-.02.1.4.68.67 2.12.92 2.68l-.1.07.47 1.44-.15-.55c.35.1.16 1.15.68 2.14.27 1 1.24 1.8 1.42 2.85.3.44-.36-.35-.02.33-.14.07-.2-.3-.27-.08.3.7.22 1.22.6 2.06l-.1.07c.6 1.07.56 2.2 1 2.9.48 1.14-.1.9.54 2.05l-.01.53c.14.53.32.3.43.92-.1 0 .16.76-.05.45.27 1.36 1.08 2.6 1.36 4.42.32.32.47 1.23.7 1.46-.07.07.52 1.76.04.83-.04-.08-.08-.23-.05-.23l-.15-.08c.08 1.06.67 1.76.92 2.75-.04-.3-.17-.7-.01-.45l.25.92-.15-.16.32 1.37.07-.22.03.24c0 .03-.01.04-.02.06-.02.03-.04.05-.06.07-.05.03 0 .05.01.13.02.12.37.03.2.16zm8.8-8.2c-.3 2.16-1.48 4.06-2.88 5.4-.7.66-1.37 1.3-2.04 1.75l-.9.68c-.3.2-.55.37-.78.53-.03.02-.05.04-.08.06-.1-.4-.2-.84-.3-1.2-.35-1.2-.74-2.36-1.13-3.52-.77-2.32-1.54-4.6-2.06-6.77l.08-.23c.18-.15-.68-1.07-.54-1.3l-.25-.46c-.01-.15-.06-.45.06-.22-.14-.46-.18-.46-.35-.77l-.03-.53c-.5-1.83-1.24-3.27-1.8-5.17-.5-2.35-2.08-6.54-2.95-8.97-.32-.8-.58-1.64-.8-2.5l-.32-1.33c-.01-.03-.02-.07-.02-.1 1.04.01 2.04.1 2.95.37.6.16 1.36.5 2.02.75a20.16 20.16 0 0 1 1.93.89c.14.1.43.26.66.4s.43.26.44.24c1.34 1 2.43 2.32 3.34 3.8.92 1.48 1.67 3.07 2.37 4.73 0 0 .34.74.85 2a52.22 52.22 0 0 1 1.82 5c.58 2 1.06 4.3.72 6.46zm5.8-6.58c-.14.42-.53.52-.83.66-.1.12-.24.22-.37.33-.15.1-.27.16-.54.3l-1.43.76c-.34.18-.68.35-1.02.5a16.97 16.97 0 0 0-.32-1.72c-.3-1.27-.66-2.4-1.02-3.44-.76-2.1-1.6-3.9-2.53-5.74 0-.35-.5-1.5-1.15-2.68-.04-.06-.07-.13-.1-.2a19.91 19.91 0 0 1 1.59-.78c.2-.06.38-.1.55-.17.1-.01.2-.03.3-.02a2.01 2.01 0 0 1 .52.09c.3.1.6.23.97.52.07.1.15.17.2.27.08.1.1.15.2.4l.55 1.15c.35.28.42 1 .77 1.34l-.04.2c.12.12.23.28.23.45h-.04c.18.18.23.45.32.54h-.04l.13.26-.07-.03c.25.34.42.73.53 1.1l.12-.08c.16.8.56.96.66 1.7h-.04c.7.7.32 1.43 1.03 2.16-.1-.1-.05.07-.1.08.2.4.4.8.66.68.08.23-.03.22-.13.27.12-.04.23.16.25.35-.02-.03-.04-.05-.06-.08a2.47 2.47 0 0 1 .05.54c.08-.03.17-.06.24-.1-.1.3-.28.05-.28.33l.22.03zm24.48-19c-.3.47-.85 1-1.43 1.5.12 0-.57.62-.33.54-1.2 1.35-2.48 2.2-2.68 2.92-.55.6-.73.66-1.03.96l.12-.16c-1.03 1.16-1.32 1.48-2.12 2.25-.4.38-.34.6-1.15 1.2.22-.25-.1.01-.4.24.18-.16.23-.22-.2.05-.04.06-.12.14-.2.2-.01 0-.02.01-.02 0-.5.37-.4.33-.16.17-.01.02.02.01.1-.02-.57.32-1.5 1-1.64.94-1.6.97-2.8 1.6-4.3 2.17-.2 0 .15-.15.57-.34-.34.14-.7.26-1.05.38-.02-.08.6-.24.9-.38-.53.14-1.06.32-1.6.5-.28.08-.55.18-.84.26-.14.04-.3.08-.44.1-.16.04-.25.06-.53.1l-.42.24c-.12.06-.23.12-.36.2l-.25.22-.1.04c.02.03-.26.25-.46.37-.23.05-.07-.15-.74.25-.57.26-1.5.92-2.18 1.36.38-.2.28-.1.13.01-.26.15-.45.23-.64.34-.07-.3-.3-.64-.22-.8 0 0-.2-.66-.42-.74.16.08.05-.28.22-.23-.2-.1-.5-.55-.45-.8l.03.03c-.17-.77-.7-1.15-.8-1.85-.12.1-.2-.28-.33-.13-.45-.6-.17-1.35-.8-1.37-.16-.3-.03-.4-.07-.58l.06.06c-.28-.55-.36-.7-.52-1.13-.14-.2-.4-.12-.5-.52.15.08.07-.07.01-.2.05.08.1.1.1-.12-.04-.01-.08-.05-.1-.08.01 0 .01-.01.02-.02-.13-.22-.15-.17-.1-.05-.02 0-.03.02-.04.06.02-.3-.3-.67-.14-.77-.05-.1-.12-.24-.2-.37l.06.03c.52-.27 1-.58 1.47-.95-.17.13-.35.26-.54.37.07-.26 1.2-.64 1.9-1.77.78-.96.73-2.3 1.48-3.18.25-.5-.17.47.26-.23.1.04-.18.34.01.22.44-.67.88-.97 1.53-1.72l.08.02c.4-.5.88-.9 1.3-1.27a9.62 9.62 0 0 0 1.1-1c1.04-.83.86-.33 1.94-1.26l.5-.23c.5-.34.3-.35.87-.7.01.08.72-.48.44-.2a10.08 10.08 0 0 0 .94-.71c.3-.26.6-.53.88-.73l.2-.14.07-.05c.05-.02.12-.05.18-.02s.07.1.06.17c-.01.07-.02.1-.1.27.02.2-.1.5-.24.74-.1.23-.36.52-.4.68-.05.02-.32.4-.58.75-.32.46-.55.78-.07-.04.08-.14.17-.27.2-.25l.02-.16c-.1.1-.18.2-.3.4-.14.2-.3.42-.42.63-.26.42-.47.84-.56 1.17-.07.33-.03.54.05.73.02.1.17.27.25.26a2.43 2.43 0 0 0 .26.05c-.14-.04-.2-.06-.27-.1-.08-.06-.1-.1.03-.03.2.02.4.14.97-.04l-.37.16c.35-.04.8-.25 1.26-.43l1.04-.37h-.23c.73-.23 1.03-.2 1.8-.6.35-.2-.72.16.03-.15.98-.33 2.45-.8 3.7-1.44-.16-.01.18-.18.5-.4l.08.04c1.1-.8.5-.13 1.62-.87l-.08.1.23-.3c1-.67.64-.2 1.75-.84-.47.2-.27-.1.32-.22l-.13.1c.3-.1.42-.14.55-.12-.12.05-.01.08.1.12-.05.01-.08.03-.1.06.07-.03.15-.05.26.13v.17a1.66 1.66 0 0 1-.14.53c.07.1.12.2.16.26l-8.72 5.14c-.3.2-.3.5-.2.7.1.1.2.2.4.2h.3l9-5.3c.17-.03.3-.04.4-.02.1 0 .28.03.43.2.18.15.2.44.23.6-.03-.25-.16.4-.2.2 0 .1-.03.26-.1.46-.04.1-.07.18-.14.32-.07.1-.15.22-.22.32-.14-.04-.27-.02-.38.04l-7.1 4.5c-.3.2-.3.5-.2.7.1.1.2.2.4.2.1 0 .2-.1.3 0l6.98-4.43c.07.1.15.27.3.56.12.02.2.05.32.07.03.01.04 0 .1.04l.02.01h.02c.02.02.05.03.05.05.01.02.03.03.03.1-.01.2-.1.5-.22.7zm-.6-1.47l-.04-.06h.01c0 .02.02.04.03.06z"/><path d="M181.4 166.52l6.82-3.5-.13-.14s7.05-3.2 6.95-3.93c-.1-.68-6.64 2.03-7.57 2.42l-5.5 2.57-.57.14c-.16-.03-.9.45-1.68 1.06-.38.3-.8.64-1.17 1.22l-.4.86c-.15.52-.25 1.02-.35 1.52l-.25.77h-.03c0-.04.01-.1.03-.24l-.05.24c-.84-.13-1.94-.18-1.94-.18-3.82-.27-5.78.15-10.32.3-4-.03-5.05-.3-9.2-.14-1.97 0-4.08.08-6 .13-.9.22-2.53.03-3.6.2l-.42-.12c-.37.06-.8.1-1.2.05l.02-.03c-.56.1-1.2.05-1.46.1l.02-.04h-.68l.12-.05c-.97.1-1.97.12-2.86.1l.07.14c-.94-.07-1.6-.03-2.2.01l-.47.02c-.2 0-.4.01-.6.01v-.54s-.01-2.9.27-6.68c.26-3.78.93-8.43 1.67-11.94l.52-2.4.42-1.8c.2-.98.26-1.46.05-1.2-.2.26-.68 1.24-1.4 3.25-.7 2-1.62 5.06-2.45 9.48l-.01-.24c-.78 5.15-.92 8.5-.72 12.07-.05 0-.1 0-.16-.01-.04 0-.1-.02-.13.01v.13l-.04-.07.15 1.4.07 1.1c.02.46 0 .9-.01 1.32-.03.87-.05 1.74.2 2.85-.06-.28-.07.12-.1.1.1.9.2 1.87.4 2.07l.06.68c-.03.04-.07.04-.1.1.05-.01.1.1.14.25.17 1.82.38 3.63.82 5.32v.16c-.04-.08-.1-.2-.16-.45.05.25.1.5.17.75.01.16.01.3.02.48.12.6.26 1.22.4 1.84l.3 1.12.2.77.1.4c.02.05.02.15.07.17h.1c.35 1.18.73 2.54 1.34 3.9.66 1.5 1.65 2.92 2.85 4.03 1.2 1.12 2.58 1.87 3.8 2.4.6.28 1.22.46 1.75.66.55.15 1.05.27 1.5.38l-.25-.03c.6.1 1.08.2 1.5.3-.01.08 0 .15-.02.23.23.15.15.56.32.67-.1.03.08.8-.16.38-.02-.04-.03-.1.01-.1l-.13-.04c-.17.48.23.8.25 1.25.02-.14-.01-.3.1-.2l.03.42-.1-.07.02.62.12-.1c-.03.27-.23.52.07.93.15.17.06-.4.2-.02.05.53.36 1.36.9 1.87.05-.15.18-.02.36.08l-.06.1c.36.16.4.23.4.33s.05.2.44.3c.07-.04.13-.07.2-.1.36 0 .42.06.5.14.08.07.2.14.58.01-.3-.01-.1-.27.22-.2l-.1.12c.2-.02.25-.07.38-.06-.08.05-.06.12.05.14.01.04.02.1.03.13l-.03.03c.01-.01.02-.01.03-.02.26 1 .58 2.16 1 3.6l.83 3-.04.44-.04.6c-.02.4-.03.8-.02 1.18 0 .78.05 1.55.12 2.3.2 1.2.47 3.35 1.02 4.7l.1.56c.18.47.43 1 .57 1.48l-.03-.02c.35.66.66 1.45.88 1.75l-.03-.02.44.8-.1-.12c.68 1.08 1.33 2.18 1.86 3.2l.03-.12c1.1 2.18 1.64 2.87 2.62 4.9l-.03-.02c.18.25.35.5.56.75a2.47 2.47 0 0 0 .79.61c.28.15.67.26 1.06.2.2-.03.37-.1.53-.2.07-.04.15-.1.2-.14-.02.02.02-.01.02-.02a.38.38 0 0 0 .1-.13c.03.01.06.1.1.15l.05.07.23.23c.2.18.4.36.66.5.5.3 1.28.53 2.03.14-.48.23.23-.04.2-.03.23-.13.42-.34.56-.54.06-.1.14-.24.16-.3l.02-.06c.01-.07.01-.15.01-.23.05.04.1.07.17.06.04-.01.13-.01.14-.05.57.17.9.03 1 .03.12-.03.12.01.22 0-.01-.01.04-.06.15-.14a1.27 1.27 0 0 0 .38-.43c.23-.4.27-.85.3-1.26 0 .13 0 .25-.01.38.1-.8.02-1.53-.05-2.26l-.1.44c-.07-1.16.15-.3-.01-1.4l-.1.03c-.2-1.65-.15-2.4-.24-3.6-.17-1.3-.38-2.6-.6-3.97l-.16-1.03c-.01-.03-.02-.08.02-.1.03 0 .05.02.08.04a.49.49 0 0 1 .13.12c.1.08.18.18.27.28l.28.33.38.47c.25.34.6.68.95.94.1.07.2.13.3.2.1.07.28.15.4.22.3.1.6.2.87.15.28-.03.54-.2.67-.46.12-.25.16-.55.12-.85-.06-.65-.24-.96-.38-1.37-.6-1.44-1.06-2.9-1.44-4.3v-.27c.08-.16-.6-1.47-.67-1.83l-.34-.6c-.06-.2-.2-.57-.04-.27-.27-.6-.3-.6-.53-1l-.25-.66c-.58-1.15-1.22-2.2-2.15-3.1-.93-.85-1.83-1.5-2.5-2.56-.37-.64-.72-1.45-.9-2.43-.06-.38-.13-.8-.18-1.2.28-.13.5-.38.66-.65.2-.32.33-.66.56-1l-.04-.2.03-.04c-.05-.02-.08-.2-.07-.3.14-.08.26.07.33-.32.07-.15.08-.37.03-.6-.04-.24-.12-.4-.16-.56-.01.17-.08.12-.12.05-.01-.16.1-.25.04-.37l.16-.03c-.14.07-.2-.4-.26-.45.1-.1.12.23.2.27l-.08-.93c-.14-.32-.14.07-.3-.08-.04-.2-.1-.4-.12-.63.8-.33 1.66-.8 2.48-1.5 1.24-1.1 1.87-2.52 2.45-3.92.56-1.4 1-2.86 1.54-4.28.3-1.43-.15 1.3.38-.82.18-.02-.2 1 .1.5l.35-1.34h.34c.04-.08.05-.2.07-.3l.26-1.26.34-1.6c.2-1 .35-1.97.42-2.93.05-.12.04-.45.01-.45l.63-3.45s.57-3.27.88-5.85c.2-.74.4-1.18.68-3.32l.48-1.3c.2-.72.24-.96.28-1.24.02-.15.06-.26.12-.43.08-.2.04-.17.38-.4-.02.07.38-.2.74-.4.34-.2.6-.33.22-.04zm-25.85 40.22c.1-.06-.06-.07-.05-.1-.42.1-.9.17-.84.44-.25.02-.2-.08-.23-.2.01.13-.2.18-.4.15l.1-.04a2.18 2.18 0 0 1-.51-.09c0 .1.01.17.02.26-.26-.18.03-.3-.23-.35l-.1.17c-.36-.25-.34-.65-.4-.98a2.77 2.77 0 0 1-.37-1.03l-.3-1.58c-.06-.32-.1-.63-.15-.94a17.31 17.31 0 0 0 1.35.15c.12.04.28.07.25.07 1.1.05 2.7.1 4.24.1 1.55-.03 3.04-.15 3.9-.3l.13.1c.9-.13 1.8-.33 2.7-.56.24-.2 1-.36 2.02-.65.1.47.2 1 .28 1.64 0 .2.01.42 0 .56a1.31 1.31 0 0 1-.06.31c-.06.18-.14.33-.22.45-.2.24-.36.46-.76.74-.1.05-.22.1-.34.13-.14.04-.2.06-.44.1l-1.25.2c-.36.25-1.07.12-1.5.35l-.2-.1c-.15.08-.33.14-.5.1l.01-.04c-.22.12-.5.1-.6.15l.01-.04-.28.05.04-.05c-.4.14-.82.2-1.2.2l.05.14c-.82-.07-1.07.26-1.8.15l.01-.04c-.9.53-1.5-.05-2.4.4zm14.62 30.68c0 .12-.03.2-.05.3-.01.1-.07.2-.08.22-.03.06-.07.1-.1.15-.07.08-.16.13-.26.16-.2.05-.42 0-.5-.07 0 0-.17-.05-.4-.2-.22-.18-.4-.26-.77-.76l-2.94-9.08a17.38 17.38 0 0 0 1.81-.57l.6-.25 2.77 10.04-.1.06zm-2.8-27.44c-.08.08-.25-.42-.22-.14.48.9.77 1.56 1.7 2.43l-.02.1c.63.53 1.22 1.02 1.6 1.5.4.5.72 1.02 1.05 1.42.86 1.37.35 1.03 1.23 2.5l.2.64c.15.34.23.45.32.57.07.08.13.17.23.58-.07-.03.25 1 .05.56.22.9.52 1.8.88 2.76l.57 1.5c.2.5.44 1.1.53 1.56.03.04.06.1.08.15.01.02.03.04.04.07a.31.31 0 0 1 .01.19c-.06.14-.22.07-.28.1-.01-.02-.05-.04-.12-.1a4.97 4.97 0 0 1-.46-.37c-.27-.27-.4-.44.06-.06.08.07.22.17.2.18.05.01.1.02.15.02a7.8 7.8 0 0 1-.57-.59c-.2-.23-.4-.47-.6-.7l-.96-1.07c-.38-.4-.77-.8-1.1-.94.4.2 1.03.93.62.57-.26-.26-.48-.4-.68-.5a.46.46 0 0 0-.47-.33s-2.2.1-4.3-1.8c-1.8-1.6-1.5-4.3-1.5-4.3.1-.3-.1-.6-.4-.6-.3-.1-.6.1-.6.4 0 .1-.4 3.2 1.9 5.2 1.9 1.72 3.86 2.03 4.62 2.1l.06.6.02-.2c.1.96.03 1.23.23 2.44.1.55-.03-.88.1.2l.42 5c.07-.17.1.3.18.75l-.07.06c.34 1.63-.06.63.2 2.23l-.07-.14.2.4c.13.72.08.9.05 1.12-.02.1-.03.2-.05.37-.01.16-.02.42-.06.64.06-.16.1-.26.13-.15.01.1.01.3-.17.37.03-.05.03-.07.03-.1-.15.13-.28.2-.43.16.08-.01.1-.05.05-.06-.02-.01-.05-.02-.1-.03-.03-.02-.15-.01-.44-.25.26.2.44.17.47.16-.03.01-.23 0-.5-.24-.08.03-.15.05-.22.07l-2.76-10 1.86-.77c.2-.2.3-.5.2-.7-.2-.2-.5-.3-.7-.2-.1 0-.7.3-3.3 1.3-1.2.4-2.1.6-3.1.8-.2.1-.5.1-.8.2s-.5.3-.4.6c.1.2.3.4.5.4 0 0 .1 0 .1.1.3-.1.5-.1.8-.2.17-.03.34-.07.5-.1l2.78 8.6c-.13.01-.2 0-.08-.05-.1.02-.2.05-.34.07-.04.08-.1.16-.14.25l-.04.06-.07.07c-.03.03-.05.05-.08.06-.04.03-.1.04-.23 0-.28-.1-.48-.35-.6-.6l.06.08c-.52-.87-1-1.85-1.5-2.68-.5-.85-.96-1.68-1.44-2.63-.03.13-.54-.87-.5-.58-.58-.93-1.05-1.83-1.42-2.55-.18-.36-.34-.67-.5-.94-.14-.27-.3-.48-.45-.62-.43-.88-.35-1.1-.53-1.57l.1.2c-.62-1.7-.75-2.23-1-3.56-.14-.66-.34-.74-.43-1.96.1.4.03-.1 0-.56.03.3.06.38.06-.22-.02-.08-.05-.2-.06-.33 0-.01.01-.03.01-.02-.05-.76-.06-.63-.06-.27-.01-.02-.02.01-.04.12.03-.8 0-2.2.13-2.3l.03-.5c.01-.17.02-.27.06-.55l-1.5-4.8c0-.22.16.2.33.74l-.38-1.32c.08-.01.25.75.38 1.15-.16-.84-.42-1.67-.7-2.55.05.01.1.01.13.04 0 0 .7.01.82-.2-.12.13.26.13.17.28.16-.15.67-.3.9-.2l-.04.02c.78.05 1.3-.34 2-.25-.05-.14.32-.1.2-.28.7-.26 1.34.23 1.53-.37.32-.07.4.1.57.1l-.07.04c.6-.1.78-.14 1.23-.18.22-.08.22-.35.63-.33-.12.12.04.08.2.06-.1.03-.12.07.1.12.02-.04.06-.06.1-.08 0 .01.01.01.01.03.25-.07.2-.1.08-.1 0-.02-.01-.04-.05-.06.28.1.73-.1.78.1.34-.05.82-.2 1.12-.38.02-.01.04-.03.06-.04.05.18.08.36.14.54.2.7.43 1.37.67 2.05.4.63-.35-.47.14.45zm-.02-3.35c0-.03-.01-.07-.01-.1.07-.06.15-.12.22-.2.07.08-.08.2-.2.3zm4.98-12.86c-.46.98-1 1.98-1.6 2.9-.32.45-.66.9-1.02 1.25l-.26.23-.34.22c-.23.15-.45.3-.7.44-2 1.1-4.35 1.73-6.57 2.1-2.23.36-4.35.44-6.14.4-2.5-.05-5.13-.45-7.63-1.32-1.23-.46-2.45-1-3.53-1.75a10.02 10.02 0 0 1-2.72-2.71c-1.04-1.5-1.58-3.28-2.1-5.14l.58-.03 1.9-.1c2.5-.13 4.97-.23 7.26-.12l.2.14c.1.2 1.25-.35 1.43-.15l.53-.1c.15.03.47.07.2.12.5 0 .5-.04.86-.1l.53.12c1.95.06 3.6-.24 5.63-.24 2.46.2 7.06-.15 9.72-.35.93-.1 1.9-.13 2.9-.13l2.47.06a32.92 32.92 0 0 1-1.61 4.3zm5.74-22.63c-.32.65-.8 1.9-1.46 4.05l-.03-.1c-.44 1.87-.66 3.06-.66 4.4-.32.16-.3 1.55-.47 1.97l-.02-.05c.02 1.2-.6 2.34-.6 3.5-.02-.05-.1-.1-.05-.34-.1.82-.23 1.93-.4 1.97l-.15.98c.02.1-.08.08-.16.1-.13.01-.26.01-.38.02-1.1.05-2.1.12-2.72.27l.1-.05c-.72.2-.93.05-1.73.16-.04-.02-.1-.03-.1-.04-.78.2-2.28.08-2.9.17l-.04-.1-1.56.06h.58c-.2.3-1.18-.16-2.3.06-1.06-.01-2.13.7-3.23.56-.52.16.45-.24-.32-.1-.03-.16.36-.1.16-.23-.77.1-1.27-.13-2.2 0l-.04-.12c-1.23.26-2.33-.1-3.15.13-1.27.13-.86-.35-2.18-.07l-.52-.16c-.57-.01-.4.22-1.03.15.04-.1-.8-.06-.43-.17-1.43-.13-2.88.3-4.76.07-.4.22-1.35.12-1.65.28-.05-.1-1.9.03-.84-.2.1-.02.25-.02.24.02l.12-.13c-1.07-.2-1.94.18-3 .17.3.03.73.01.45.1l-.98.01.2-.1-.37-.01h-.16l-.16-.04c-.02.04-.03.1-.03.13-.1-.01-.02-.17 0-.22.01-.03.02-.05.01-.08-.01-.02-.01 0-.04-.06-.03-.08-.07-.16-.1-.26-.18-.33-.01.7-.22-.03l-.5-3.55c-.12.14-.18-.18-.27-.5l.12-.06c-.4-1.23.18-.5-.17-1.74l.1.1-.3-.3c-.4-1.1.13-.65-.34-1.83.08.48-.25.27-.26-.36l.13.14c-.06-.34-.12-.45-.1-.68.08.2.18.1.12-.4l.18.32-.3-.93c.07-.75-.16-1.9-.01-2.22 0 0 0-1.6-.2-1.96.13.32.13-.57.28-.32-.07-.2-.15-.6-.2-1.03v-.15-.03-.06c.01-.04.02-.06.06-.05l.02.02c.02-.06.07-.04.1-.05.02 0 .04-.01.07-.02-.03 0 .13-.01.2-.02h.28c.75-.05 1.48-.1 2.3-.02-.08-.14.8-.07.57-.26 1.7-.2 3.08.35 3.7-.23.77-.04.9.13 1.3.15l-.18.03c1.44-.06 1.86-.07 2.93-.07.53-.06.6-.33 1.57-.27-.3.1.08.1.44.08-.23.02-.3.06.17.12.07-.03.17-.05.26-.07 0 .01.02.01.01.03.6-.04.5-.07.22-.1.01-.02-.01-.04-.1-.07.62.13 1.73-.03 1.8.15 1.8-.06 3.08-.26 4.57-.34.17.1-.18.18-.6.22l1.06-.04c-.01.13-.6.08-.93.1 1.26.2 2.6-.24 4.08-.06l.3-.1.1.02c-.01-.06.33-.14.55-.16.2.1-.01.27.72.26.58.1 1.65-.07 2.4-.14-.4-.02-.28-.08-.1-.12.37-.01.58.1.86.05l.04.16c-.15-.15.96-.17 1.1-.23.2.1-.57.1-.66.2l2.2-.04c.78-.13-.14-.15.23-.3.7-.04 1.37-.15 2.16-.07l-.25-.14c1.3-.12 2.08-.1 2.95.02 1.84-.23 3.05-.44 3.8-.6-.02.1-.04.2-.05.3l.9-.01c.03.03-.01.25-.07.6z"/></svg>