<svg xmlns="http://www.w3.org/2000/svg" viewBox="0 0 480 480" xmlns:v="https://vecta.io/nano"><path d="M214.1 110.9s-19.4 12.7-35.9 24.6c-5.8 3.5-9.4 7.3-12.2 11-3.3 4.5-5.4 12.7-7.6 26.8-3.3 20.9-4 43.7-4 43.7s-3.2 6.3-1.5 13.8c1.6 7.6 1.5 8.9 2.1 9.8 1 1.5 2.1 0 2.1 0s.5 2.1 1.9 2.4c1.2.2 1.6-1.3 1.6-1.3s.5 1.3 1.7 1c.8-.3 1.2-2.7 1.3-5.4.1-2.2 1.7-7.3 1.9-8.3.1-1 1.1 1.5 1.6 3.1.7 1.7 2.3 2.9 2.1-.3-.2-3.1 0-5.7-.1-6.5-.1-.9-.4-4.1-1.3-6.1-.6-1.4-2.4-3.3-1.8-6.7.8-5.8 6.5-20.9 9.9-30.2 2.5-6.7 5.4-16.1 7.8-18.9 10-8.8 42-31.2 42-31.2l-11.6-21.3z" fill="#ea9d7d"/><linearGradient id="A" gradientUnits="userSpaceOnUse" x1="171.194" y1="172.309" x2="193.346" y2="181.238"><stop offset="0" stop-color="#cc7a5e" stop-opacity="0"/><stop offset=".924" stop-color="#aa5f4b"/></linearGradient><path d="M199 151.5l-.1-13.5s0-1.2-10.5 2.2c-9.3 5.3-17.7 15.8-19.5 19-2.1 4-7.6 32.6-9.4 43.5-1.6 9.8-2.2 8.2 2.4 10.4 1.9.9 4.2 2.7 4.2 2.7l.1-4.7 13-38.7c.7-1.8 2.3-6.4 3.3-7.5 2.7-4.1 16.5-13.4 16.5-13.4z" fill="url(#A)"/><linearGradient id="B" gradientUnits="userSpaceOnUse" x1="179.078" y1="149.479" x2="201.29" y2="141.501"><stop offset="0" stop-color="#cc7a5e" stop-opacity="0"/><stop offset=".924" stop-color="#aa5f4b"/></linearGradient><path d="M168.6 143.6l3.6 6.1c5.5 9.9 10.2 14.4 10.2 14.4l17.2-13.2-15.3-19.1c-2.6.7-12.2 7.7-15.7 11.8z" fill="url(#B)"/><path d="M159.2 231.4c-.9 0-1.7-.1-2.4-.2-.4 0-.7-.1-1.1-.1-.3 0-.5-.3-.5-.5 0-.3.3-.5.5-.5.4 0 .8.1 1.1.1l2.9.2 3.5-.2c.3 0 .5.1.6.4s-.1.5-.4.6c0 0-.7.1-3.6.2h-.6z" fill="#cc7a5e"/><g fill="#ffc1a6"><path d="M169.9 145l.7.1-.4.8zm-2 4.7l.3-.5.5.4zm6.4-1.2l-.5-.4.7-.3zm-7.7 2.6l.5.6-.8.2zm-1.6.8l.6.6-.9.3zm-2.3 3.5l1-.5v1.2zm-1 4.4l-.4-1h1.2zm2.3-1.8l-.6-1.3 1.6-.1zm-3.6 5.2l.3-1.5 1.4.9zm6.5-17.8l1.6-1.3.6 2.1zm4.5-4.7l2.1-1.8.8 2.9zm-8.1 11.5l.6-.2v.7zm4.3 4.4l-.2-.5.7.1zm-2.6-5.5l-.2-.7.8.1zm7.2-2.8l-.2.9-.7-.6zm-4.6-2.2l.6.3-.6.4z"/><path d="M168.3 152.5l.4-.5.4.7zm2.4-11.1l.5 2.1-2.3-.4zm4.8-3.9l.1 1.5-1.4-.6zm3.5-2.2l.1 1.5-1.6-.6zm-12.2 12.8l-.3.7-.5-.7zm.8-1.8l-.4.7-.5-.6zm4.4-5.1l-.2.8-.7-.5zm4.2 1.1l.6.4-.6.4zm-6.7 6l.4-.4.3.7zm4.6-4.5l.5-.4.3.7zm2.4-2.2h-.8l.3-.8zm4-5.2l-.2.7-.5-.5zm-10.1 7l-.2 1.3-1.3-.8zm3.6-.6l-1.1.1.4-1.1zm-2.2 4.7h-.7l.2-.7zm3-8.3l.6.2-.6.5zm-2.4 13.5l-.2.4-.4-.4zm-2.4-2.3l.3.3-.4.2zm-.8 4.1l.4-.2.1.4zm-4.8 3.9l-.2-.5.6.1zm3.3-.2l-.4-.1.2-.4zm-2.6-3.4v.4l-.4-.2zm.4 11.5l-.3-.2.4-.3zm2.7-1.9l-.4.2v-.4zm-3.9-1.6l.2.5h-.5zm10.3-6l.4-.1-.1.5zm4.1-12l-.7.4v-.9zm-1.1-5l.2.7-.8-.2zm-4.6 4.7h.7l-.4.7zm-2.3 5.3h-.8l.3-.8zm-1.3-4.3l.2.6-.7-.2zm-4.2 2.4l.7 1.2-1.6.3z"/><path d="M164 150.6l.8 1.2-1.6.4zm-1.2 2.6l1.3 1.5-2 .7zm5.5-6.1l1.2.9-1.5.7zm-2.4 2.7l1.4-.4-.3 1.7zm4.7-4.3l1.4-.8.1 1.7zm9.7-5.9l-.7-.1.4-.7zm-2.1-1.7h-.8l.6-.8zm3.5.4h.6l-.3.6zm-5.7 4.1l.5.1-.3.5zm1.5-3.8l-1.2.6-.1-1.5zm2.1 2.6l-.6.2v-.7zm-6.8 5.3l-.6.2.1-.7zm5.8 3.2l-.7.1.3-.6zm4.4-10.4v.5l-.5-.2zm-6 2.6l.5.1-.2.5zm-15.1 15.2l.6-.4.2.9zm1.7 4.9l-.2-.7.8.2zm3.9-5.3l-.6.1.2-.7zm-2.6 1.4l.7-.4.1.9zm1.8 4.9l-.2-.7h.7zm3.9-5.3h-.6l.2-.6zm-1 1.2l-.4.6-.5-.7zm-3.7-3.6l.5.4-.7.2zm-1.3 6.3l.5-.3.2.7zm-3.3 5.4l.5-.4.3.9zm1.8 4.8l-.2-.6.7.1zm3.8-5.2h-.7l.4-.6zm-5.5 4.6l.6-.4.2.9zm1.8 4.8l-.2-.6.7.1zm3.8-5.1h-.7l.3-.7zm-3.6-10.7l.6-.5.2.9zm1.2-6l.6-.4.2.8z"/><path d="M162.3 165.4l.6-.6.3.9zm-.1 8.3v-.7l.8.4zm3.3-26.1l.8-1.3.9 1.5zm0 17.3l-.3-.6h.7zm3.5-5.5l-.6.2.1-.7zm1.6-9.6l.8-.2v.9zm3-5.3l.8-.2-.1.8zm-5.5 9.9l.7-.3-.1.9zm-2.8 7.9l.3-.7.6.6zm12.7-24.2l.3-.7.6.7zm-6.8 16.8l-.1-.6.7.2zm5-4l-.6-.2.4-.6z"/></g><g fill="#af6b56"><path d="M184.1 150.4l.5.5-.7.2zm-3.4 2.6l.5-.3.1.5zm4.9 1.8l-.2-.5h.6zm-6.2.4l.3.2-.5.2zm-2.2 1.2l.2-.2v.4zm2.8 1.5l-.1-.3.4.1zm6.7-15l.4.5-.7.1zm.9.1l.9 1.3h-1.4zm-5.4 21.8l-1 1.3-.5-1.3zm-4 5.1l-1 .7-.1-1.3zm-.6 5l-.8-1 1.2-.2zm1-2.4l-.8-1 1.2-.2zm-5.2 12.9l-.6-.7 1-.1zm2.3-16.5l.6.7.2-.9zm-1.1 2l.7.6.2-.8zm-1.1 3.8v1l.8-.5zm1.4-.2l.7.5.2-.8zm-1.3 6.9l-.1.9.8-.3zm1.7-4.1v.9l.7-.5zm-2 .9v.7l.6-.3zm-.4-5.1l-.1.7.7-.3zm2.9-6.4v.8l.7-.4zm3.7-.9l.3 1 .6-.7zm-1 3.1l.1.9.7-.4zm1.6-2.2l.6.6.3-.7zm-2.1-1.1l.7.6.1-.8z"/><path d="M178.6 165.9l.4 1.1-1.1-.3zm-.1-1.1l-.8.6-.2-1zm4.8-1.7l-.8.4.1-.8zm-6.3.3l-.7.6-.1-.8zm3.3 1.7l-.8.1.3-.7z"/><path d="M180 164.7l.3 1-1-.2zm-1.1 2.9l.1 1.1-1-.5zm13-18.8l.8 1.3-1.4.1zm1.7 2.4l.8 1.2-1.5.1zm-3 1.9l.4 1.4-1.4-.4zm-2.9 6.7l-.2-1.5 1.3.6zm-4.6 3.5l-.2-1.2 1.2.4zm4-6.6l-.3-1.3 1.2.3z"/><path d="M189.4 158.5l-.3-1.3 1.6.3zm-.1-3.9l-.5-1.2 1.2.1zm2.1 2.6l-.2-1.4 1.2.6zm1.4-2.7l-.3 1.3-.9-.8zm-8.4-16.2l.8 1.3-1.4.1zm-3-4.2l.7 1.3-1.4.1zm.3 2.7l1.5.3-.9 1.1zm-2.6 3.8l1.1.2-.7.9zm-1.3-3.1l.9.2-.6.7zm1.1-1.9l1 .2-.7.7zm1.1 2.9l.9.1-.6.7zm1.2 6.8l1.1.1-.6.7zm2.9 2.8l.7-.7.3.9zm-1.5 2.9l.7-.7.3.9zm1.2 4.5l.8-.9.4 1.2z"/><path d="M184.9 155.9l.8-.8.3.9zm-.4 3.1l.8-.8.4.9zm-3.5-3l.8-.8.3.9zm-3.6-10.8l.9-.5.2.8zm-2.5 1.7l.8-.7.2.7zm5.8 10.9l.7-.7.2.7zm2.7 3.9l.7-.7.3.8zm-2.8 2.7l.8-.6.2.8zm1.8-4.1l.6-.7.4.8zm-2.2 2.1l.1-.9.7.3zm5.4-1.1l-.1-1 .8.3zm-4.1-.9l-.7-.7.7-.4zm-1.8-1.3l-.7-.7.7-.4zm-3.3.7l-.6-.6.6-.2zm1.9 2l-.8.2.1-.7zm1.9-5.3l-.8.2.1-.7zm6.7-4.6l-.8.1.1-.6zm-3.9-9.3l1.5.2-1 1.2zm1.5-2.7l1.2.3-.8.8zm1.3 1.8l1.2.1-.7.8zm2.3 3.1l1.1.2-.7.8zm-2.5 0l.6.9-.9.2zm-5.1-9.5l.7.9h-1.1zm1.6 8.5l1.1.1-.6.9zm4.6 4.2l1.1.1-.5.8zm3.8.1l1 .1-.6.9zm0 2.2l.7.8-.9.2zm2.5 2.3l.7.8-.9.2zm-5.7-1.7l.7.8-1 .2zm-3.5-3.3l.7.8-1 .2zm4 2l.7.8-.9.2zm-1.9-3.4l.7-.9.3 1zm2.5.9l1.2.1-.7.8zm3.7 3.2l1.1.1-.7.8z"/><path d="M189.9 146.2l.9 1.2-1.4.2zm-4.9-3.7l.6-.2-.1.6z"/><path d="M190.1 148.1l-.1-.6.5.2zm-6.1-7.7l-.4.5-.4-.6zm-2.8-3.1l.3.4-.6.1zm-1.4 5l.5-.1v.6zm-.5 6.4l-.1-.4.4.1zm2.7 0l-.4-.1.1-.3zm-1.9-2.8v.3l-.4-.2zm-8.7 16.8l-.1-.4h.3zm3.3-2l-.2.1.1-.4zm-2.7-1.9l-.1.2-.2-.1zm1.6-6.3l-.4-.4.5-.2zm2.5-5l-.3.3-.1-.5zm-4.8-.2l.2.4h-.4zm6.2 6.3l-.2-.3.4-.1zm2-3.8l-.3.2v-.3zm-3.6 0l.1.2h-.3zm4 10l-.3.3-.1-.4zm-4.1.4l.2.3-.4.1zm2 3.8l-.3.2v-.4zm5.5-3l-.1.3-.3-.2zm-3.5 2.1l.3.2-.3.2zm-.9 2.6l.1.3-.3-.1zm-1.8 2.4h.2l-.2.3zm5.6-18.7l-.4-.2.4-.2zm2.1-4.1l-.3.3-.1-.4zm-4.1-.1l.2.3h-.4zm1.8 1.5l-.3.2-.1-.5zm-2.8-3.7v.3h-.4zm-1.8 3.6h.3l-.2.4zm.2 2.6l-.4.2v-.6zm-3.5-4.4l.2.4-.5-.1zm-2 4.3l.3-.1-.1.5z"/><path d="M177.9 153.8l.1.3-.4.1zm-3.8 2.8l.3-.1v.4zm3.6 1.9v-.3h.3zm13.7-9.6l-.3.5-.3-.5zm-2.3-2.5l.3.4-.5.1zm-1.1 4.2l.4-.3v.5zm-2-2.6l-.5-.1.4-.5zm1.8-2.9l-.3.4-.2-.5zm-4.3.2l.3.2-.5.3zm4.5 1.8h-.5l.2-.5zm-3.4-1.7l.4.2-.3.3zm3.6 8.2l-.5-.1.3-.6zm1.4-3.1l-.2.3-.4-.3zm-4.3.6l.3.3-.4.2zm7.3 3.4l-.6-.2.5-.4zm-.1-4.1l-.3.3-.2-.4zm-2.1 1l.2.4h-.4zm-5.1-7.3l-.5.1.2-.6zm.6-3.4l-.1.5-.4-.3zm-4 1.9l.4.1-.3.4zm.9-3.6l-.5.1.1-.5zm-1-3.3l-.1.5-.4-.3zm-2.4 1.7l.4.3-.4.2zm3.4 4.2l-.5.1.3-.5zm.6-3.4v.6l-.5-.4zm-3.9 1.8l.3.2-.3.3zm11.6 11.8l.7-.2-.2.7zm0 4.1v-.6l.5.3zm3.6-2.8l-.4-.1.3-.5zm-6-4l.1-.5.5.4zm-11.1-9.8h.6l-.3.6zm-1.1 4l.1-.5.5.4zm5-1.6l-.5-.2.5-.4zm-.9-1.5h.6l-.3.7zm-1.1 4l.1-.6.5.5zm5-1.6l-.5-.3.6-.4zm-3.2 12.7l.2-.6.5.5zm3.2 2.5l-.4-.3.5-.3zm.4-5.3l-.4.4-.1-.6zm-1.2 4v-.6l.6.2zm4.1.8l-.6-.2.3-.4zm-2-4.9l-.2.4-.4-.4zm-8.1 15.2l-.1.4.4-.1zm2.9-.1h-.4l.2.3zm-2 3.1l-.1-.3-.3.2zm8.5-15.7l.2.4.3-.5zm1.7-1.9l-.3.2.4.2zm.8 3.1l-.3-.1v.3zm-5.3 5.1l.4-.1-.2-.4zm-1.1-2.7l.1.4.3-.3zm3.6.6l-.2.3.3.2zm-9.5 7.2l.2-.1-.2-.2zm1-1.9l-.1.3h.2zm-3.9 15.2l.3-.1-.3-.1zm-1.2-3l.2.2.1-.2zm2.9.2l-.2.2.3.1zm-1-1.2l.3.1-.1-.5zm1.2-3.8v.3l.4-.2zm-4.8 2.7h.4l-.1-.3zm1.3-3.8v.3l.3-.2zm2.5 2.4l-.3.2.2.1zm-6.8 10.6l.5.1-.2-.5zm1.5-4.5l.1.3.3-.2zm3 2.9l-.3.1.2.2zm-2-13.1l.3.1-.1-.3zm1-3l.2.2.1-.1zm2.1 1.9l-.2.1.1.2zm-1.6-.1v.2l.3-.2zm3.1-.3h-.1l.2.2zm-.8 2.5l-.2-.2-.1.3zm6.4-3.4l.3.3.1-.4zm1.1-2.5l-.1.4.3-.1zm-6.7 1.8l.2-.3h-.4z"/></g><linearGradient id="C" gradientUnits="userSpaceOnUse" x1="170.022" y1="223.913" x2="174.846" y2="225.982"><stop offset="0" stop-color="#cc7a5e" stop-opacity="0"/><stop offset=".924" stop-color="#aa5f4b"/></linearGradient><path d="M165.7 211.2l-.1 4.2s1.2 1.5 2.3 4.3 1.4 10.6 1.6 12.4c.2 1.7-.4 1.8-.9 1.9-.5.2-1.1-.5-1.4-1.2s-1.6-4.5-1.6-4.5-3.1-1.3-4.1-4.5c-.9-3 1.1-6.2 1.1-6.2l3.1-6.4z" fill="url(#C)"/><linearGradient id="D" gradientUnits="userSpaceOnUse" x1="157.582" y1="225.798" x2="165.766" y2="222.597"><stop offset="0" stop-color="#cc7a5e" stop-opacity="0"/><stop offset=".924" stop-color="#aa5f4b"/></linearGradient><path d="M161.08 220.7s-3.1-1.8-5.1.5c-1.8 2-1.2 4.8-.6 6.1 1 2.2 4.6 3.2 6.6 2.4 2.1-.7 2.1-1.7 2.1-1.7s-2-1.3-2.8-3.1c-1.1-2.4-.2-4.2-.2-4.2z" fill="url(#D)"/><g fill="#cc7a5e"><path d="M158.9 243.3c-1.93-.14-1.7-2.6-1.7-2.9a.47.47 0 0 1 .5-.5c.3 0 .53.2.5.5-.1 1.02.3 1.87.8 1.9.64.03 1.03-1.06 1.03-1.26.1-.2.86.56.86.56a.85.85 0 0 0 .36.48c.26.14.55.07.8-.05.38-.26.56-1.12.86-3.82.4-3.6 2.1-9.8 2.2-10.1.1-.2.3-.4.5-.4s.4.2.5.4c.4 1.7 1.3 5.2 2 5.3 1.16.1.52-3.8.5-4.6-.07-2.9.1-6.9-1.3-9.3-1.3-2.5-2.2-4.1-2.1-6 .1-1.8.3-2.8 7.8-24.7 7.3-21.4 8.9-23.6 9-23.7.4-.8 1.8-2.4 2-2.3.2.2-.6 1.8-1.2 2.9-.1.1-1.8 2.6-8.8 23.4-7.3 21.6-7.7 22.7-7.7 24.4 0 1.6.7 3.1 2 5.5 1.5 2.7 1.4 6.8 1.4 9.8v3.5c.1 1.22-.45 1.98-.75 2.18-.4.2-1.1.16-1.5-.14-.8-.6-1.33-2.36-1.62-3.93-.5 2.2-1.33 5.6-1.63 7.9-.4 3.1-.8 4.32-1.83 4.7-.6.24-1.13.17-1.4.02-.14-.07-.4-.38-.5-.55-.52.7-.98.85-1.55.8z"/><path d="M160.4 242h0c-.3 0-.5-.3-.5-.5l.9-10.6c0-.3.3-.5.5-.5.3 0 .5.3.5.5l-.9 10.6a.47.47 0 0 1-.5.5zm-2.7-1.2h0a.47.47 0 0 1-.5-.5l.5-9.2a.5.5 0 1 1 1 0l-.5 9.2a.47.47 0 0 1-.5.5zm7.9-12.1h-.1c-.1 0-2.5-.7-4.2-3.5-1.5-2.7-.2-5.4-.2-5.6.1-.2.4-.4.7-.2.2.1.4.4.2.7 0 0-1.1 2.4.1 4.6 1.4 2.4 3.6 3 3.6 3 .3.1.4.3.3.6.1.3-.2.4-.4.4z"/></g><linearGradient id="E" gradientUnits="userSpaceOnUse" x1="228.437" y1="144.817" x2="199.776" y2="111.232"><stop offset="0" stop-color="#ed89ae"/><stop offset="1" stop-color="#f4c0ca"/></linearGradient><path d="M175.3 125.9s16.5-12.2 28.3-17.4c11.9-5.2 25.6-11.5 34.7.7 9.8 12.9-1.4 28.4-11.6 37.1-8.5 7.2-22.3 17.6-22.3 17.6l-29.1-38z" fill="url(#E)"/><linearGradient id="F" gradientUnits="userSpaceOnUse" x1="194.439" y1="165.024" x2="190.375" y2="121.185"><stop offset=".007" stop-color="#ff9f00"/><stop offset=".983" stop-color="#ffd86b"/></linearGradient><path d="M209.4 160.1l-29.2-37.8-4.9 3.8 28.8 38.2z" fill="url(#F)"/><linearGradient id="G" gradientUnits="userSpaceOnUse" x1="244.666" y1="154.951" x2="184.987" y2="153.104"><stop offset="0" stop-color="#ed89ae"/><stop offset="1" stop-color="#f4c0ca"/></linearGradient><path d="M191.2 207.9h79.3s-2.8-54-4.6-65.8C263.2 124 248.4 99 228 99.9c-4.1.1-18.1.3-23.6 38.1-2 11.7-13.2 69.9-13.2 69.9z" fill="url(#G)"/><linearGradient id="H" gradientUnits="userSpaceOnUse" x1="226.657" y1="168.545" x2="284.66" y2="140.057"><stop offset=".01" stop-color="#bc547a" stop-opacity="0"/><stop offset=".985" stop-color="#bc547a"/></linearGradient><path d="M211.3 115.2s-5.1 17 6.5 61.3c5.3 20.4 17.8 31.4 17.8 31.4h34.9l-1.4-23.4-22.3-27.2-35.5-42.1z" fill="url(#H)"/><g fill="#ffcce1"><path d="M190.6 119.5l.4 1.1.9-1.1zm-1.4-1.4l.4 1 .8-1zm1.7-1.5l.4 1 .8-.9zm-.5 1.1l.5 1 .7-1zm-1 3.9l1.2-.1-.6-1.3zm-2.7-1.8h1.2l-.6-1.4zm-2.7 1.3h1.2l-.6-1.4zm6.5-5.4l-1.3.9 1.6 1zm1.5 2.8l1.2-.1-.6-1.3zm-3.6 1.4l1.2-.1-.6-1.2zm4.8-3l1.3-.1-.6-1.2zm-7.8 7.3l-.7-1.2-.9 1.1zm-3.1-1.5l-.5-1.3-1 1.2zm3.8-1.3l.5 1 .7-1.1zm7-3.8l.6 1 .7-1zm-.8-1.9l.4 1 .8-.9z"/><path d="M183.3 124.8l.2.6.6-.6zm4.1-2.7l-.6.3.7.5zm0 6.1l-.4-.3-.2.6zm.1-.9l-.3.6h.7zm2-3.2l-.2.7.8-.1zm6.2-3.5l-.5.6.7.2zm4.2 2.5l-.6-.4v.7zm-6.7 1.7l-.5-.2v.7zm1.2 1l.1-.6-.7.2zm1.8-1h-.7l.3.6zm-.4 3h-.6l.3.6zm-11-7.5l.6.9.7-.9z"/><path d="M184.4 121.7l1.5.9.2-1.9zm2.7-.1l1.7-.1-.8-1.6zm-4.1 1l.7.9.6-1.1zm-1.1-.8l.5 1 .7-1.1z"/><path d="M193.8 120.8l-.1-.7-.6.4zm-11.6 2.4l.4-.5-.6-.3zm6-2l.4.4.2-.7zm-4.1-1.2l-2 1.4 2.3 1.4zm2.5-1.8l-2.1 1.4 2.4 1.4zm2.5-1.7l-2.2 1.5 2.4 1.3zm3.4-2l-2 1.2 2.2 1.6zm-5.7 11.7l.1-.6-.7.2zm-.5-1.8l.2-1-1.2.4zm3-1.6l.1-.6-.7.2zm-3.5 5l.1-.6-.7.2zm11.7-10.7v.8l.8-.3zm5-5.9l-.3.6.8.1zm3.2.2l-.6-.1.2.7zm2.5-2.9l-.6-.1.1.6zm2.3-2.2l-.6-.2.1.8z"/><path d="M200.4 117.3v-.6l-.7.3zm-.5-2.7v-.7l-.7.3zm.8-2.9l-.1 1.4 1.4-.5zm3.5 4.3l-.7.1.5.5zm5.1-8.4l-.6.2.4.5zm2-1.9l-.7.2.5.6zm-8.7 9.4l.5-.4-.6-.3zm0-2l.6-.3-.7-.4zm-5.5 6.7l.4-.3-.5-.4zm-10.7 6.3l.1-.5-.6.2zm14.3-16.1l.3.7.5-.6zm-2 2.6l1 .1-.3-1.1zm-2.2.4l1.1.1-.4-1.1zm5.1-3.5l.7.5.2-.9zm-3.7 6.5l-.5-1.2-.9 1zm-2.3.8l-.4-1.1-.9 1z"/><path d="M196.2 119.8l.1-.7-.7.2zm-4.4.2h.6l-.3-.6zm2.8-4.8l.2.5.4-.4zm2.6-2.3l.5.8.6-.8z"/><path d="M196.4 114l1.1.7.2-1.5zm-.5.3l.4.9.6-.7zm-1.5-.7l.4 1 .7-.9zm.4 1.7l.5-.4-.6-.3z"/><path d="M194.4 113.6l-1.9 1.1 1.9 1.7zm2-1.4l-1.7 1 1.6 1.4zm2-1.1l-1.5.9 1.5 1.2zm5.7-2.8l-1.4.6 1.2 1.2zm-3.8 1.8l-1.4.8 1.3 1.1zm6.5-2.5l-.2.5h.7zm-1.5 1.9l-.1 1.1 1.1-.5zm3.6-3l-.1 1.1 1.2-.5z"/><path d="M204.4 109.4l.9.1-.3-.9zm1.6-1.9l-1.3.5 1.2 1zm2.3-1l-.9.5.8.7zm-1.1 44.4l1.4.4-.2-1.6zm-3.5 1.7l1.4.4-.2-1.6zm1.2-5.5l.1-.8-.9.2zm4.6 5.8l1-1.3-1.8-.5zm-6.4 3.4l1.3-1.4-2-.7z"/><path d="M202 160.1l1.3-1.4-2-.6zm1.6-7.9l1.1-1.2-1.8-.6zm2.2-.3l1.1-1.3-1.8-.6zm-.5 2.6l1.3-1.4-2-.7zm.9-7.1l1.1-1.3-1.8-.5zm-.6 1.9l1-1.3-1.7-.5zm-.6 19.4l1.3-1.3-2.1-.8zm2.4-6.5l-1.7-.8-.1 2.2zm-2 2.8l-1.7-.8-.1 2.2zm2.2-7.8l1.5.6-.2-1.8zm.7-7.8l1.3.4-.2-1.6zm-1.3 20.9l1.5.5-.1-1.8zm-.6-10.8l1 .4v-1.3zm1.2-7.2l-.1.9 1-.2zm6.8 6.2l-1 .1.6.9zm2.5-2.3l.3-.9-1.1.1zm-6.4-.7l.8.1-.2-.9zm5.1-6.2l.2.8.8-.5zm4.1 21l.5-1H219zm-7.1-1.3l.9.2-.3-1zm6.3-6.7v.9l.9-.4zm-2.3 21.3l.4-1h-1.3zm-7.2-1.3l.9.2-.3-1zm6.2-6.7l.1.9.9-.5zm-1.4 4.4l.5-1h-1.3zm-7.1-1.2l.9.1-.3-1zm6.2-6.8l.1 1 .9-.6zm-7 12.7l1-.4-.9-.9zm-4.3-5.8l.5.7.5-.9zm9.2-.6l-.6.7 1 .3zm-3.2-10.2l2 .4-.6-2.2zm4.5-3.8l.1 1 .9-.6z"/><path d="M208.2 172.6l-.9-.7-.3 1.2zm.7-4.6l-.5-1-.8 1zm-5.1 5.1l.7-.7-1-.3zm-1.9-8.9l.8.4.1-1z"/><path d="M209.2 170.5l.5-1.4-1.7.2zm-9.7-.3h1.3l-.5-1.3zm7.1-10.1l.3 1.2 1.2-.9zm1 13.1l-.7-1.2-.8 1.4zm-6.1 6.6l.8-.9-1.3-.4zm-2.7-11.1l1 .5V168zm12.2-8.9l-.6-1-.7 1.1zm-5.2 5.1l.7-.7-1-.3zm-1.8-9l.8.4.1-1zm-1.6 2.4l1.5.5-.1-1.8z"/><path d="M203.9 160.3l2.4-.3-1.4-2.4zm1.8-2.7l1.7-1.9-2.7-.8zm-3.1 12.2l1.6-1.9-2.6-.8zm-.9 5.4l1.7-1.9-2.7-.8zm.8.9l-2.2-1.2-.3 2.8zm3-1.4l-1.8.2 1 1.8z"/><path d="M205 170l-1.9.2 1 1.8zm-5.4 6.5l1.7-1.8-2.7-.9zm3.5-14l1.5.5-.1-1.8zm-2.1.2l1.6.5-.2-1.8zm12.9-10.1l.3-1-1.2.1zm-2.4-2.1l-.7-.5-.1.9zm4.2 3l.9.1-.3-1zm-13.3 10.9l.2-.9-1.1.2zm5.2-8h.9l-.4-.9zm-6.9 12.1l1.3-1.4-1.9-.7z"/><path d="M199.9 163.7l-.8 3.5 3.9-.8zm-1.1 5.4l-.8 3.6 3.9-.8zm1.9-10.3l-.7 3.5 3.9-.8zm-2.9 17.2l-.7 3.6 3.9-.9z"/><path d="M201.7 154.7l-.8 3.5 3.9-.8zm.5-3.6l-.6 3.5 3.9-1zm.8-3.6l-.3 3.2 3.3-1.1zm-4.1 29.7l1.3-1.4-2-.7zm-1.3-2.7l1.8.6-.1-2.1zm-.5 5.6l1.8.7-.1-2.1zm.1.8l.3 1.9 1.8-1.2zm2.8-.1l1.5 1 .3-2zm-1.7 3.1l1.6 1 .3-2zm10.5-10.1l-.5-1-.8 1.1zm-5.1 5.1l.7-.6-1-.4zm-1.9-8.9l.8.4.1-1zm8.9-6.3l-.4-.8-.6.8zm2.6-2l-.7-1.4-1.1 1.4z"/><path d="M210.9 166.5l-.4-.8-.6.9zm-.6-2.5l-.5-.8-.5.8zm-1.9 10.8l1.3-1.3-2-.7zm1.6-2l.7.4.1-.9z"/><path d="M216.9 161.7l-.6-1.1-.9 1.1zm-6.2 5.4l.8-.7-1.1-.5zm-1.5-10.3l.9.6.2-1.2zm-2.2-24.1l1.3.5v-1.6zm-.9 3.5l1.1-1.3-1.8-.5zM205 140l1.1-1.3-1.9-.5zm1.9-7.8l1.3-1.1-1.8-.8zm2.2 0l1.3-1.1-1.7-.8z"/><path d="M207.7 134.6l1.1-1.3-1.8-.5zm.9-4.6l1-1.1-1.5-.6zm-.6 17.4l1-1.3-1.8-.5zm1.6-5.7l-1.6-.6.1 1.9zm-1.4 2.5l-1.5-.7v1.9zm1.4-6.9l1.3.4-.2-1.5zm.9 9.5l1.8.2-.7-1.9z"/><path d="M211.4 146.6l-.5-.8-.6.9zm-4.3 4.7l.6-.6-.9-.3zm-2.1-7.7l.8.3v-.9zm6.7 5.2l.3-1.3-1.5.3zm-8.5.1h1l-.5-1.1zm5.7-9.1l.4 1 .9-.8zm1.9 11.7l-.7-1-.7 1.2zm-5.2 5.9l.6-.8-1.1-.3z"/><path d="M202.9 147.7l.9.5.1-1.1zm-4.3 31.6l1.3-1.4-2-.7zm-1.3 3.9l1.3-1.4-2.1-.7zm2.8 8.8l1.3-1.4-2-.7zm2.5-6.6l-1.7-.9-.1 2.2zm-1.9 2.9l-1.7-.9-.2 2.2zm2.3-7.8l1.5.7-.1-1.8zm-.9 13.1l1.5.6v-1.9zm-.4-10.8l1 .4.1-1.2zm1.5-7.2l-.2.9 1.1-.2zm6.6 6.5l-1 .1.5.9zm4.1-1.6l.5-1h-1.3zm-7.1-1.4l.9.1-.2-1zm6.4-6.6l.1 1 .9-.5zm1.6 21.4l.5-1h-1.2zm-7.1-1.4l1 .1-.3-1zm6.5-6.6v.9l.9-.4zm-11 5.5l1.9.5-.5-2.3zm4.6-3.6v.9l1-.5zm-4.6 8.1l-.9-.7-.3 1.2z"/><path d="M204.1 191.3l-.6-1-.7 1zm-5.3 5l.7-.6-1-.4zm-1.7-9l.8.5.1-1zm7.2 6.6l.5-1.4-1.7.1z"/><path d="M194.6 193.3h1.3l-.5-1.3zm7.4-9.9l.3 1.2 1.1-.8zm2.9 11.6l-.6-1.1-.9 1.2zm-6.4 6.3l.8-.8-1.2-.5zm-2.2-11.2l1 .6.2-1.3zm9.9-7.2l-.5-1-.8 1.1zm-5.1 5.1l.6-.7-.9-.3zm-1.9-9l.8.4.1-1z"/><path d="M197.6 181.4l1.6.5-.1-1.8zm1.5 2l2.5-.3-1.4-2.4zm1.9-2.7l1.7-1.8-2.7-.9zm-3.3 12.3l1.7-1.8-2.6-1zm-1 5.3l1.7-1.8-2.6-.9zm1 1.2l-2.1-1.3-.4 2.8zm2.8-1.5l-1.8.1.9 1.9zm-.4-4.8l-1.9.1 1 1.9z"/><path d="M194.6 199.6l1.7-1.8-2.7-.9zm3.7-14l1.5.5-.1-1.8zm-2.1.2l1.6.5-.2-1.8zm1.4 1.7l.2-.9-1.1.2zm5.5-7.7h.9l-.4-1zm-7.2 11.8l1.3-1.4-1.9-.7z"/><path d="M195.7 186.2l-.9 3.5 4-.7zm-1.3 6.2l-.9 3.5 4-.7zm2.1-10.7l-.8 3.6 3.9-.9zm-3.4 16.1l-.6 3.5 3.9-.9z"/><path d="M197.2 177.7l-.8 3.5 3.9-.8zm-3.1 22.7l1.4-1.3-2-.8zm-.6-4.1l1.8.8-.1-2.1zm12.4-9.2l-.4-.8-.6.8z"/><path d="M208.6 185.2l-.6-1.4-1.2 1.3zm-2.5 4.7l-.4-.8-.6.8zm-.6-2.5l-.5-.8-.5.8zm-2.1 10.7l1.4-1.3-2.1-.7z"/><path d="M205.1 196.1l.6.5.1-.9zm7.1-10.8l-.6-1.2-.9 1.1zm-6.3 5.2l.8-.7-1.1-.5zm-1.2-10.3l.8.6.3-1.2zm2.5-6l-.7-1.2-.9 1.3zm-6.4 6.3l.8-.7-1.2-.5zm-2.3-11.1l1 .6.1-1.3zm14.5-30.5l-.6-.8-.6.9zm-4.3 4.8l.5-.6-.8-.3zm-2.1-7.8l.7.3.1-.9zm-1.6 2.6l1.4.4-.2-1.6zm1.6 1.6l2.2-.4-1.4-2.1zm1.7-2.8l1.3-1.7-2.3-.7zm-2.4 11.2l1.4-1.7-2.4-.7zm.1-6.5l1.4.4-.2-1.6zm-1.8.3l1.4.4-.3-1.6z"/><path d="M205.4 143.7l.2-.8-.9.2zm4.4-7.5l.9-.1-.5-.8zm-5.6 11.2l1.1-1.3-1.8-.5z"/><path d="M203.7 142.7l-.5 3.1 3.4-.9zm.6-3.7l-.5 3.1 3.4-.9zm.7-3.8l-.5 3.2 3.4-.9zm.8-3.6l-.7 3.1 3.5-.7zm.4-3.1l-.5 2.7 3-.7zm6.4 14.4l-.4-.7-.5.7z"/><path d="M213 145.3l-.4-.7-.5.8zm-.8-2.2l-.4-.6-.5.7zm-5.3-17.1l1.2.3-.3-1.4zm2.4-3.5l.2-.7-.8.1zm-.3 4.8l1.2-.8-1.4-.9z"/><path d="M209.3 128.8l1-1-1.5-.6z"/><path d="M206.8 125.8l-.5 2.8 3-.8zm.7-2.5l-.3 1.7 1.8-.3zm.9 0l1.1-.9-1.4-.8z"/></g><g fill="#c65d80"><path d="M248.8 173.4l-1.1.7 1.3.8zm1.1-3.9l-1.2.5 1 1zm-4.5 2.8l-.1 1.5 1.6-.6zm-4.1-3.6l-.1 1.5 1.6-.6zm-3.3 1l-1.4.5 1.2 1.3zm-6.5 1.4l1.3.8.3-1.7zm12.9-5l-.1 1.5 1.6-.6zm1.5 2.6l-.1 1.5 1.6-.6z"/><path d="M241.4 166.6l-.1 1.6 1.7-.7zm-4 .7l-.1 1.6 1.6-.7zm10.4-.7v1.6l1.6-.7zm-2.5-3.2l.4 1.5 1.4-1.1zm4.3 6.4l.3 1.5 1.4-1zm-1.5 1.2l.2 1.5 1.5-1zm-.6-2.3v1.5l1.6-.6zm2.2 4.4l-.2 1.5 1.7-.5z"/><path d="M250.4 173.1l.1 1.6 1.5-.8zm-5.9-5.6l-1.2.4 1.1 1.1zm5.1 6.9l-.8 1 1.4.3zm-5.5-8.5l-.8.3.6.8zm3.2 5.4l-.4-.6-.5.7zm-7.6-.5l.5-.6-.8-.3zm-1.5 3.5l.3.8.7-.7zm4.9-3.4l-.6.4.7.5zm-.1 7.7l-.5-.5-.3.8zm-2.9-3.3l.9.1-.4-1zm-1.4-6l.1.8.7-.6zm7 2.6l-.7.3.7.5zm1.9-7.4l-1.1.5 1 1.1zm-2-.6l-1.4 1.5 2.1.8zm-15.4 4.3l-1.5.5 1.2 1.3zm15.3-1.4v2l2.1-.9zm-1.5-3.4l-1.1.8 1.3.7zm1.1-.9l-1.1.7 1.2.8zm-1.8 11.9l.3.8.7-.7zm3.4 2.3l.8-.2-.6-.6z"/><path d="M241.6 174.9l-.6.4.7.4zm3.4-6.4l-.6.5.8.3zm2.4-4.3l-1.4-2.3-2 2.4zm1.9 2.9l-1.6-2.5-1.8 2.7zm1.8 2.8l-1.6-2.4-1.7 2.7zm-20.5 0l-.1 1.5 1.6-.5zm22.4 2.6l-1.7-2.4-1.7 2.7z"/><path d="M254.6 174.8l-1.7-2.4-1.7 2.7z"/><path d="M256.3 177l-1.8-2.4-1.6 2.9zm-12.2-5.5l1.2.2-.4-1.4zm-3.9.6l1.2.1-.4-1.4zm-11.4-4.3l1.3-.1-.8-1.2z"/><path d="M247.8 174.5v1.6l1.6-.8zm1.8 2.5l1.5-.5-1.2-1.3zm6.2 1.7l1.5-.4-1.1-1.4zm-2.1.7l1.5-.4-1.2-1.4zm-1.4-2.3l1.4-.5-1.1-1.3zm-1.2 1.7l-.9-.2.2 1zm.3 5.9l-.1-.8-.8.4zm-6.5-3.8l.7-.2-.5-.7zm-9.1-6.7l-.1.9 1-.3zm5.9-.6h-.8l.5.8zm-3.3 6.6l-.3-.6-.6.5zm14.8-1.3l-1.5.5 1.3 1.3zm-9.7.7l-.5-.6-.4.7zm2.4-2.4l.9.2-.2-1zm0-6.2v.8l.8-.3zm6.3 4.5l-.7.2.5.6z"/><path d="M222.4 164.9l.6.7.4-.9zm3.4-4.8l-.5.6.9.1zm2.8 6.9l-.7-.2v.8zm-4.4 2.3l.6.7.4-1zm3.4-4.9l-.5.6.9.2zm2.7 6.7l-.8-.2.1.8zm2.2 3.5l.5.7.5-1zm3.5-5l-.5.6.8.2zm2.6 7.4l-.7-.3v.8zm11 12l.8-.2-.6-.8zm-1-7.2l.8-.2-.6-.8zm-2 2.1l.4.7.5-.7zm7.5.4l-.6.5.8.3zm-3.4-10.4l.2 2 2-1.1zm.5-1.8l-.2 1.5 1.7-.5zm0 5.4l.8.9.6-1.4zm-7.5-.1l.6.4.1-.9zm-3.6 2.9l.7.7.4-1.1zm3.5-5.7l-.4.8 1 .1zm3.6 7.7l-.8-.3.1 1zm8.8-3.2l-1.2-.6v1.4zm1.5.9l-1 .8 1.2.7z"/><path d="M257.5 180.7l-1.2-.6-.1 1.5z"/><path d="M256.8 182.4l2-.3-1.3-1.9z"/><path d="M256.5 180.5l2.2-.4-1.7-2.1zm-1 1.1l.2 1.5 1.5-.9zm2.1 1.7l.4 1.5 1.4-1.2zm-.8.1l-1 .8 1.3.6zm2-1.9l-1 .7 1.2.8zm-6.4-.1l.6.4.1-.8z"/><path d="M260.4 182.1l-1.8-2.1-1.5 2.9zm5.4 6.4l-.6.7 1 .2zm-1.5-.6l.6 1.1.8-1.1zm-2-2.1l.4 1.2 1-.9z"/><path d="M264.1 188.9l.5.9.7-.8zm-4-.1l1.1-.9-1.4-.8zm2.1.8l1-.9-1.4-.7zm-3.8-3.6l1.2-.8-1.4-.8zm-3.4 1.5h.8l-.4-.9zm-1.4-5.2l.2.7.6-.5zm6.5 2.1l-.6.3.6.5zm-2.2 10.2l.9-.1-.5-.8zm-2-4.9l.2.6.6-.5zm6.6 1.2l-.5.4.7.4zm1 7.8l1.1-.2-.6-1.1zm-4.1-5.5l.3.6.5-.5zm6.6 1.2l-.5.4.7.4zm-12.2-3.1h.8l-.4-.8zm-1.4-5.2l.2.7.6-.5zm6.4 2.1l-.6.4.7.4zm-2.5 3.7l-.2.9 1.1-.2zm5.9-.3h-.7l.4.8zm-3.7 6.5l-.2-.7-.6.5zm0 2l-.8.5.9.5zm-10.9-3.2l-.3.8.9-.1zm5.3.4l-.7-.1.3.7zm-.5-2.6l-.3.7h.9zm5.3 1.1l-.7-.2.2.8zm-4.8 4.8v-.7l-.7.4zm-15.1-18.2l.8-.2-.6-.8zm8.3 5.6l.8-.1-.4-.8zm-2.1-4.9l.3.6.5-.6zm3.6 3.5l.2.6.6-.6zm-5.6-1.9h.8l-.4-.9zm2.5.6l-.2.9 1-.2zm2.2 6.2l-.2-.7-.6.5zm3.2.6l-.8.5.9.5zm-14.1-1.8l-.3.8.9-.1zm5.3.3h-.7l.3.7zm-1.1 9l-.2-.7-.6.4zm.6-11.6l-.3.8h.9zm5.3 1.1l-.7-.1.1.8zm-4.8 4.9v-.7l-.7.3zm21.8-7.3l-.6.9 1.2.2z"/><path d="M261.2 186l-.4 1.6 1.8-.4z"/><path d="M261.3 186l-.8.7 1.1.5zm.5-2.3l-.9.8 1.2.6z"/><path d="M260 184.7l.5.4.2-.7zm2.1-.7l-1.7-2.1-1.6 2.6zm1.7 1.7l-1.6-1.8-1 2.3zm1.9 1.6l-1.8-1.5-.5 2.3zm1.6 1.2l-1.6-1.1-.4 2.2zm-3.9 1.8l-1.1 1.5 2 .4zm1.9 5.9l-1 1.5 1.9.4zm-12-12.3l.3 1.7 1.6-1.1zm-9.2-9.4l.3 1.8 1.7-1.2zm22.2 14.8l-.8 1 1.4.4z"/><path d="M265.3 189.3l-.7 1.1 1.4.2zm-.5 2.1l.7 1.4 1.1-1.4zm2 1.7l.9 1.3.9-1.5zm-.4-.2l-.8 1.1 1.5.2zm.7 3.5l-.8 1.1 1.5.2zm-13-15.8l-.7 1 1.4.3zm-4.2 1.8l-.8 1.1 1.5.2zm8.6 7.7l-1 1.5 2.1.4zm4.2 2.3l-.7 1.1 1.5.2zm4.8 1.8l-.7 1 1.4.3zm.5-3.9l-.8 1 1.4.4zm-3.7 5l.6-.5-.7-.3z"/><path d="M269.5 190l-2.2-1.5-.6 3.2zm-1.4 5.8l.9-1.1-1.5-.5zm-25.6-22.6l.1-.8-.9.2zm-5.3.6l.7-.1-.3-.6zm3.2-6.2l.2.7.6-.5zm2.6-1.6l.3 1 .9-.8z"/><path d="M239.8 165.8l.7 1 .7-1.1zm.9 2l.5-.4-.6-.4z"/><path d="M239.9 165.8l-1.9 1.1 1.8 1.6zm2.2-1.4l-2 1.2 2.2 1.5zm-7.3 4.7l-1.9 1.1 1.8 1.6zm2.2-1.5l-2 1.2 2.1 1.5z"/><path d="M244 163.2l-2 1.2 2.1 1.5zm25.7 32.7l-2 1.1 2.1 1.6zm-.2-5.1l-2.1 1.2 2.1 1.6z"/><path d="M269.6 193.4l-2 1.2 2.1 1.5zm-4.3 5.8l.6 1.4 1.2-1.3zm-18.2-20.4l.7 1.4 1.1-1.4zm1.7-.4l1.5.5-.3-1.8zm2.3 4.7l1.4.5-.2-1.7zm9.1 7.2l1.5.5-.2-1.8zm3 5.9l1.5.5-.2-1.8zm-7.1-9.5l.7 1.4 1.1-1.4zm-2.1 1.4l-1.1 1.2 1.7.5zm8.2 7.2l-1.1 1.1 1.7.6zm-7.7-1.1l.2 1.5 1.5-1zm12.9 4.4l.9 1.3.9-1.5z"/><path d="M269.9 198.7l-2 1.1 2.1 1.6z"/></g><g fill="#d87390"><path d="M201.2 135.1l-1.3-.2.3 1.4zm3.4-1.9l-1.2-.5.1 1.4zm-5.2-1.3l-1.2 1 1.6.9zm5.8-2.1l-1.1 1 1.6.7z"/><path d="M205.5 125.7l-.7 1.3 1.7.3zm-1.3 7.5l-.8 1.2 1.7.3zm-1.9-.2l-.9 1.2 1.7.3zm1.3-2l-1.1 1 1.5.7zm-1.7 4.5l-1.2.9 1.5.8z"/><path d="M202.3 136l-1 1.2 1.6.5zm.1-7.6l-1.2-.6-.1 1.4zm-1.5 7.9l-1.3.1.8 1.3zm2.3-9.3l-.8-.4-.1 1zm-1.6 5.6l.2-.7-.9.1zm-4.8-5.5h.7l-.3-.8zm-3.6.8l-.4.8 1 .1zm5.5 1.6l-.7-.2.2.8zm.3-.8l.5.7.4-.9zm2.9-4.9l-.4.6.8.1zm3.2 6.5l-.7-.2.1.8zm1.5-2.3l-1.2-.6v1.4zm-1.2-1.7h-2l.9 2zm2.5-6.8l-1.4-.6-.1 1.7zm-4.4 9l-1.5 1.4 2 .9zm1.1-3.7l-1.3-.2.5 1.4zm1.5-.5l-1.3-.2.5 1.3zm-9.6 7.4l-.4.8h1zm.6 4l.7.3v-.8zm-2-4.9l-.8-.1.2.8z"/><path d="M201.9 129.3h-.8l.3.8zm4.8-2.7l.7-2.8-3.2.5zm-.9 4.4l.6-2.8-3.1.6zm-.6 3.2l.5-2.8-3.1.7zm0-13.3L204 122l1.6.6z"/><path d="M207.3 123.3l1-2.7-3.2.2zm1.2-3.9l.8-2.3-2.7.3zm1-3.2l.5-1.5-1.8.1zm-4.9 21.3l.6-2.8-3.2.7zm-.6 3l.6-2.8-3.1.7z"/><path d="M203.4 143.3l.6-2.9-3.1.8zm-4.3-12.6l.8 1.1.7-1.3zm.4 4.2l-1.2 1.1 1.6.7zm-.4 3.1l1.3.8.2-1.7z"/><path d="M201.6 143.6l1.3.7.1-1.7zm-1.6-.9l1.3.7.2-1.7zm.8-2.6l1.4.7.1-1.8zm-2.1 0l-.5-.7-.6.8zm-7-13.8l-.8.5.9.4zm4.3 3.7l-.6-.5-.1.8zm4 11.8l-1.4-.8-.1 1.8zm-3.6-6.2l.4.8.6-.8zm4.3-3.9l-.5.6.7.3zm1.2 7.2l-.6-.4-.1.8zm-1.7-21.4l-.3.8 1-.1zm5.8.4l-.8-.2.3.8zm-4.4 5.8l-.2-.7-.7.5zm7.5-10l-1-.6-.2 1.3zm.7-1.2l-.9-.2.2 1.1z"/><path d="M210 114.3l.9-2.1-1.5.1zm-1.8.9l-1 .7 1 .7zm2.8-3.5l.9-1.5-1.4.3zm1.3-2.6l.8-1.7-1.5.6zm.9-2.3l.6-1.2-.9.6zm-6.6 3.2l-.4.6h.8zm3 .2l-.5-.1v.6zm2.1-.8l-.6-.1.2.6zm.6-2l-.6-.2.2.6zm-5.7 7.9l-.1-.6-.5.3zm-6.2 21.5l-.7.2.5.6zm1.6 0l-1.3 1.5 2.2.7zm1.6-.9l-1.2.9 1.5.8zm-3.8 3.6v1.3l1.3-.6zm-5.1-5.5l.1.7.7-.5zm1.9-1.9l-.8.2.6.7zm5.5 12.4l-.5-1.2-1 1.1zm-.6 3.4l-.4-1.2-1.1 1.1z"/><path d="M202.2 146.6l-.5-1.2-1 1.1zm-1.6 1l1.7 1.1.4-2.3z"/><path d="M201.2 145.6l1.7 1.1.4-2.3zm-3.5-3.3l.1.7.6-.5zm4.4 8.4l.5-2.2-1.8-.3zm-5-9l1.3.4-.1-1.6zm1.9-4.3l-.4.6.7.1zm2.1 6.4l-.6-.3v.8zm-3.5-7.1l-.4.6.7.1zm2.1 6.4l-.6-.4v.8z"/><path d="M200.5 146l.4-2.3-2.5.6z"/></g><path d="M194 145.1l.5-.7-.9-.2zm-.8 3.1l.4-.5-.8-.2zm2.8-4.1l-.4-.5-.3.7zm2.4 7.6l-.9 1.2 1.6.3zm1-1.7l-.8 1.4 1.6.1zm-2.1-2.1l-.8-1-.7 1.3zm-2.9 3.4l.9-1.6-2.1-.2zm2 2.7l.8-1.6-2-.2zm5.1-4l-1.2-.5.2 1.4zm-2.6-2.8l-.7 1 1.5.2zm-3.6-2.1l1.5.2-.5-1.5zm-1.8-2.4l.2.8.7-.7zm-1.3 2.9l.3.8.6-.7zm-.6-4.1l.7.6.3-.9zm6.4 8.1l-1 .2.5 1zm-.3-3.9l-1.4.7 1.4 1.1zm-2.2.3l-1.1-.1.4 1.2zm6 7.9l-1.2-.3.3 1.3zm-1.7-1.5l-.1.7.8-.3zm2 .9l.3-1.9-2.1.2zm-2.8 3.8l1.9-1.2-2.1-1.4z" fill="#ffa124"/><linearGradient id="I" gradientUnits="userSpaceOnUse" x1="268.335" y1="204.652" x2="188.935" y2="204.779"><stop offset=".007" stop-color="#ff9f00"/><stop offset=".983" stop-color="#ffd86b"/></linearGradient><path d="M270.6 208.1l-79.4-.2 1.2-6.6h77.7z" fill="url(#I)"/><path d="M235.9 149.5l25.8 34.4c1.9 2.6 10.4 11.9 21.2 21.3 14.9 13.1 31 24.1 31 24.1s3.7 6 11 8.5 8.3 3.3 9.4 3.3c1.8 0 1.1-1.8 1.1-1.8s2.2.7 3-.3-.3-2-.3-2 1.4.2 1.7-.9c.2-.8-1.7-2.4-3.9-3.9-1.8-1.2-5.3-5.2-6.2-5.8-.8-.6 1.9-.2 3.5.2 1.8.3 3.7-.5.9-1.9s-4.9-3-5.7-3.3-3.6-1.8-5.9-2c-1.5-.1-3.4.2-6-2.1-4.1-3.9-16.1-20.1-22-28-2.9-4-10.6-14.1-12.2-17.8-6.8-10.1-23.3-38-23.3-38l-23.1 16z" fill="#ea9d7d"/><linearGradient id="J" gradientUnits="userSpaceOnUse" x1="291.096" y1="199.769" x2="271.6" y2="215.292"><stop offset=".005" stop-color="#cc7a5e" stop-opacity="0"/><stop offset=".924" stop-color="#aa5f4b"/></linearGradient><path d="M262.2 184.6c4.5 5.2 11.2 12.5 20.6 20.7 4.7 4 9.2 7.8 13.5 11 9.8 7.7 17.5 13.1 17.5 13.1s3.7 6 11 8.5 8.3 3.3 9.4 3.3c.6-.1.9-.2 1.1-.5-2.6-3.4-9.9-10.5-13.4-13.4-4.8-3.9-20.8-25.9-34.2-39-6.9-6.7-27.7-25.5-29.1-37.1-1.2 2.3-13.2 7.7-13.9 9.6.8 1.7 10.3 14.5 17.5 23.8z" fill="url(#J)"/><linearGradient id="K" gradientUnits="userSpaceOnUse" x1="263.116" y1="165.529" x2="251.662" y2="145.261"><stop offset="0" stop-color="#cc7a5e" stop-opacity="0"/><stop offset=".924" stop-color="#aa5f4b"/></linearGradient><path d="M262.6 185s.4-6 4.7-10.9c7.4-8.5 12.1-6.8 12.1-6.8l-12.2-20.2-21.8 14c4.4 8 10.6 15.2 17.2 23.9z" fill="url(#K)"/><g fill="#cc7a5e"><path d="M337.5 239.8c-.9 0-1.9-.5-2.1-.6s-.3-.4-.2-.7c.1-.2.4-.3.7-.2.7.4 1.8.7 2.1.3.2-.4-.3-1.1-.4-1.3s-.2-.4 0-.6c.1-.2.4-.2.6-.2.1 0 .4.1.7 0a.55.55 0 0 0 .3-.5c.1-.5-.7-1.2-2.7-2.8-2.9-2.2-7.4-6.8-7.6-7a.47.47 0 0 1-.1-.6c.1-.2.4-.3.6-.2 1.7.5 4.7 1.2 5.6.9.1 0 .2-.1.2-.2 0 0 0-.2-.2-.4-.1-.1-.4-.2-.7-.4-.5-.3-1.2-.6-2-1.2l-.6-.4c-2.4-1.5-6.1-3.9-9.2-4-3-.1-4.2-.6-5.8-1.6-1.2-.7-5.5-6.2-11.5-13.9l-2.3-3c-13.8-17.8-21.4-29.3-21.5-29.4-.2-.2-.1-.5.1-.7s.5-.1.7.1c.1.1 7.6 11.5 21.4 29.3l2.3 3c4.5 5.8 10 13 11.2 13.7 1.5.9 2.6 1.4 5.3 1.4 3.3.1 7 2.5 9.7 4.2l.6.4c.8.5 1.5.9 2 1.1.5.3.8.4.9.6.4.4.6.8.5 1.2-.1.6-.6.8-.8.9-.9.3-2.9 0-4.4-.4 1.6 1.6 4.2 4.1 6.2 5.6 2.3 1.9 3.4 2.7 3.1 3.9a1.99 1.99 0 0 1-.9 1.2c-.1.1-.3.1-.4.1.2.5.2 1.1-.1 1.6a1.37 1.37 0 0 1-1.3.8z"/><path d="M338.1 237.6c-.1 0-.2 0-.3-.1l-8.5-6.1c-.2-.2-.3-.5-.1-.7s.5-.3.7-.1l8.5 6.1c.2.2.3.5.1.7-.1.1-.2.2-.4.2zm-2.4 1.6c-.1 0-.2 0-.3-.1l-7.1-4.7c-.2-.2-.3-.5-.1-.7s.5-.3.7-.1l7.1 4.7c.2.2.3.5.1.7-.1.2-.3.2-.4.2z"/></g><path d="M313.1 213.4l-7.9 9.6c-.3.5-.3 1.1.1 1.5l4.2 3.3c.5.3 1.1.3 1.5-.1l7.8-9.2c.3-.5.3-1.1-.1-1.5l-4-3.6c-.5-.5-1.2-.4-1.6 0zM167 207.6l-12.4-.3c-.6 0-1 .5-1.1 1v5.3c0 .6.5 1 1 1.1l12 .5c.6 0 1-.5 1.1-1l.4-5.4c.1-.6-.5-1.1-1-1.2z" fill="#ffcce1"/><g fill="#af6b56"><path d="M254.7 171.9l.3-.7.6.6zm3.8 3l-.5-.4.7-.3zm.6-6.2l-.5.4-.2-.7zm2.7 7.1l.5-.5.3.8zm5.2-1.4l-.6.3.1-.7zm-8.4-19l.7.3-.7.5zm.1 19.9l.7.3-.7.5zm-2.5-.5l.7.4-.7.5zm-6.4-8.5l.6.3-.6.5zm2 2.7l.7.3-.7.6zm13.4-18.2l.6.3-.6.5zm-10 8.2l.5-.5.2.7zm6.1 1l-.3-.5.7-.1zm-2.4-1.5l-.3-.5.7-.1zm-.8-2.3l-.4-.5.7-.1zm-3.4 5.8l-.1.7-.7-.6zm-4.3-2.1l.5.3-.5.4zm2.7 11.1l.6.3-.6.4zm.5-3.6l-.1.6-.5-.4zm3.8 3.4l-.1.6-.6-.3zm-6.5-4.6l.4-.4.3.6zm12 3.9l.4.2-.4.4zm-2 2.4l.2-.3.2.4zm3.9.5l-.2-.3.5-.2zm-2.9 9.8l-.3-.3.4-.2zm2.4-2l-.2.4-.2-.6zm-3.6-1.2l.1.3h-.5zm8.5 7.9l-.4-.2.5-.3zm2.4-1.9l-.2.3-.2-.6zm-3.7-1.3l.2.4-.5-.1zm4-27.8l-.2.4-.3-.4zm-5-1.9l.3.2-.5.2z"/><path d="M267.2 159.3l.3-.3.1.5zm10.9 21.8l.2.3h-.5zm-1.4 4.4h.4l-.2.3zm-11.2-27.6l.3.4-.6.1zm-.5 6.6l.4-.1v.4zm-7.8-.6l.2.8-.9-.2zm-7.3 4.3l1.9-.4-.5 2.2zm5.6 7.5l2-.4-.5 2.2zm-3.2-5.7l.8-1.2 1 1.4zm-.5-3l.8-1.3.5 1.4zm2.6-2.2l.8-1.2.6 1.3zm1.9 9.5l.8-1.3.6 1.3zm-.1-4.2l.8-1.2.6 1.2zm.4-11.4l.8-1.3.6 1.3zm-.4-1.3l-.1-1.5 1.2.8zm3.8 0v-1.5l1.2.7zm1.9-3.5v-1.5l1.2.7zm1.7 1.1v-1.5l1.2.7zm4.1-4.4v-1.5l1.1.7zm-4.6 7.7l-1-.8 1.1-.4zm-.9 15.2l.7-1.4.7 1.2zm-3.1 5l-1.1-1.1 1.4-.2zm4.3-1.3l-1.5-.2.9-1.1zm3.8 3l-1.4-.1.8-1zm-2.1-1.2l-.3 1.4-1-1zm-4.3 1.5l-.6 1.4-.9-1.1zm.8-1.5l1.2 1-1.2.4zm-.3 4.1l.9-.6 1.3.3-.9 1.9zm1.6 2.3l.9-.5.8.6-.5 1.1zm6.8.1l-1.5.1.7-1.3zm-.6 5.7l-.3-1.5 1.3.5zm1.7 1.3l-.2-1.5 1.2.5z"/><path d="M265.7 185.3l-.5-1.3 1.3.3zm4 7.4l-1.1-1.1 1.4-.3zm-4.2-4.6l-1-1.1 1.3-.3zm6.2 6.7l-1.1-1.1 1.4-.3zm-16.2-19.3l-1-1.2 1.4-.2zm3.5-2.5l-.9-1.1 1.4-.1zm.9 3.1l.8-1.3.6 1.2zm-5.8-5.2l.8-1.2.6 1.2zm2.6-10.4l.8-1.2.6 1.2zm2.9 2.2l.6-.8.4.9zm-7.5 1l-.2-1.5 1.2.6zm-1.7 2.3l-.1-1.5 1.2.6zm4.4 1.4l.9-1.1.5 1.2zm-6.8-3.5l.8-1.3.6 1.3zm.3-2.7l1.6-1.1v1.8zm5-.8l1.6-1 .1 1.8zm-5.4 4.9l1.9-.3-.6 2.1zm5.1 7.2l2-.4-.5 2.1zm4.8 6.1l1.9-.3-.6 2.2zm8.3 9.8l1.9-.1-.4 2zm6 6.7l1.7-.1-.4 1.7zm2.2.3l1.1-.1-.3 1.2zm7.9 8.8l1.1-.3-.3 1.2zm4.6 2l.8.8-1.2.5zm3.3 3.4l.7.9-1.2.4zm4.1 3.5l.7.9-1.1.4zm2.6 1.7l-.3 1.1-1-.8zm-2.7-3.5l-.3.9-.8-.6zm-4.4-3l-.2.9-.8-.5zm-6.6-6.5l-.3 1-.8-.6zm-3.7-1l-.3.9-.8-.6zm-1.7-2.6l-.1.8-.9-.6z"/><path d="M275.7 197.6l-.3.8-.7-.5zm-.1-3.8l-.2.9-.9-.6zm6.7 5.4l-.2.9-.7-.6zm9.7 8.9l-.8.4-.1-1zm-4.4-3.7l-.8.5-.1-1zm10.8 8.7l-.8.5-.1-1zm.2 4.1l-.8.4-.1-.9zm5 4.1l-.7.2-.2-.8zm-2.6-2.4l-.8.4-.1-1zm0-2v1l-1-.5zm12.05 10.94v.87l-.67-.66zm1.35 1.26l1 .4-.8.8zm-11.5-9.5l.9.4-.7.7zm-16.5-12.1l.9.2-.8.8zm6 5l.8.4-.6.7zm21.8 16.1l-.2.8-.7-.5zm4.5 3.8l.1.9-.9-.3zm2.8 2.4l.7.5-.9.5zm3 1.6l-.5.8-.5-.8zm.8 1l.04.53-.9-.33zm-2-2l-.4.8-.6-.8zM322 233l-.3.5-.4-.6zm-1.4-.5l-.6.2.2-.7zm.6-1.6l-.7.2.2-.7zm4.8 5.9l-.6.2.1-.7zm1.1 1.4l-.7.1.2-.7zm-7.6-8.1l.6.6-.8.5zm-4.5.6l.8.02-.07.8zm-18-14.9l.9.4-.8.7zm-22.9-23.7l-.5-1.2h1.4zm3.5 8.5l-.9-.9 1.4-.4zm7.3 6.3l-1.4-1.1 1.4-.4z"/><path d="M291.2 212.1l-1.4-1 1.4-.5zm4.5 3.5l-1.4-1.1 1.3-.3zm6.5 5.3l-1.4-1.1 1.4-.5zm-2.4-1.8l-1.4-1 1.4-.5zm4.9 3.6l-1.4-1 1.4-.5zm12.73 10.37l-1.2-1 1.07-.37zm2.57 2.23l-1.4-1 1.4-.5zm3.37 1.9l-1.3-.8 1.13-.3zm-42.27-33.5l-1.4-1.1 1.4-.5zm-35.5-41.4l2.1-.3-.7 2.2zm8.8-5.4l.2 2-2.1-.8zm4.6-2.7l.1 2-2.1-.8zm8.2-5l.1 1.8-1.9-.7zm-15.4 9.4l.1 2-2.1-.8zm.6 5h.5l-.3.6zm2.6 5.3l.2-.6.5.4zm-1.9-7.8l-.4.7-.4-.7zm-2.1 1.2l-.2.7-.6-.6zm-3.2-.7l.5.4-.6.3zm1.1 3l.4-.4.2.6zm18.1-12.9l.3-.4.2.5zm-.2.9l-.1.6-.6-.4zm-1.9-.9l-.1.6-.6-.4zm-4.6 2.2l-.1.6-.6-.5zm3.7-1.6l.4.2-.4.4zm-1.3 0l.5.2-.5.3zm1.2 3.6l.3-.3.3.5zm1.4-3.3l.4.5-.7.2zm-3.6 1.6l.5-.2v.6zm4.1 2.9l.1-.6.4.2z"/><path d="M262.4 153.7l.1.5-.7-.1zm-2.4 1l.5.1-.3.5zm.9-1.2h.5l-.3.5zm-.1 4.3l.2-.5.4.4zm-8.6 1.4l.1-.5.5.4zm2.2 6.8l.1-.5.5.4zm7-9.7l.2-.5.4.4zm-4.3.6l.1.6-.6-.2zm-1.6 0l.1.6-.7-.1zm2.3 4.8l.2.6-.7-.2zm1.9 3.9l.1.6-.7-.2zm-6.4-7.1h.5l-.3.6zm2.3 2.6l.2-.5.4.4zm7.4-.3l.1.6-.7-.2zm-4-.3h.5l-.3.5zm2.4 4.5l.2-.5.4.4zm1.6 13.5l.6-.5.2.9zm1.9 4.5l-.2-.5.7-.1zm3.5-5.1h-.6l.2-.6zm0 3.2v-.7l.8.3zm4.8 1.2l-.7-.1.5-.7zm-2-5.8l-.4.5-.4-.6zm-5.3 10.7l-.3-.7h.9zm4.8-1l-.6.1.1-.7zm-4.4-4.3v.5l-.6-.3zm19.1 22.1l.4-.1v.5zm.4 3.3l-.1-.4.5.2zm2.7-2.3h-.4l.2-.4zm.3.3l.4-.2-.1.6zm.1 3.5v-.4l.5.1zm3.5-2.6l-.5-.1.4-.4zm-4.9 2.3l.2-.3.4.3zm2.3 1.3l-.3-.2.4-.2zm.2-2.6l-.2.2-.1-.3zm-16.4-12.9l.4-.4.2.6zm1.7 3l-.3-.4.5-.1zm2.1-3.8l-.5.1.1-.5zm-1.1 5.3l.5-.1-.1.6zm6.2 4.4l-.1-.4.5.2zm-2.6-3.5l-.3-.2.2-.3zm.2-6.4l.3.4-.6.2zm-3.1 1.4l.3-.2v.5zm3.5 2.3v-.4l.5.2zm-.1-12.4l.4.4-.6.2zm-3 1.4l.4-.2v.4zm3.6 2.3l-.1-.4.5.1zm-4.7-.5l-.3.3-.4-.5zm-2.3-2.6l.3.3-.5.2zm-1.1 4.2l.3-.3.1.5zm5.8 6.3l.2.2-.3.2zm-2 .8l.3-.1v.3zm2.3 1.5v-.2l.4.1zm1.2 4h-.3l.1-.4zm.6-2v.2l-.3-.2zm-2.6.7l.2.1-.2.1zm5.3 4.4l-.3.1.2-.4zm.7-2l-.1.3-.3-.3zm-2.7.7l.2.2h-.2zm-2.3-11.2h-.3l.2-.4zm.8-2.1l-.1.3-.3-.2zm-2.8.8l.3.1-.3.1zm40.7 38.7l-.3.1v-.4zm-.1-2.1v.2l-.2-.1zm-2.2 1.6h.2l-.1.3zm-15.9-12.4l-.4-.1.2-.3zm.6-2.1l-.1.3-.2-.2zm-2.7.7l.3.1-.3.2zm-25.1-21.1l-.4-.1.2-.3zm.7-2.1l-.1.3-.2-.3zm-2.7.6l.2.2-.2.2zm19.1 11.3l-.3-.1.2-.3zm-.2-3.8l-.1.3-.2-.3zm-2.9 1.7l.3.1-.3.1zm.2-2.5l-.4.3v-.4zm-2.7-2.6l.1.3-.3-.1zm-1.1 3.1l.3-.1-.2.3zm6.3-2.8l-.2.1-.1-.3zm-2.6-2.8l.1.3h-.3zm-1.1 3.1h.3l-.1.3zm9.1 7.5l-.2.2-.2-.4zm-2.7-2.7l.1.2h-.2zm-1 3.1l.3-.1-.1.4zm9.3 2.5l-.2.2-.1-.4zm-2.5-2.7v.2h-.3zm-1.1 3h.2l-.1.3zm.8 1.5l-.1.2-.3-.2zm-3.8.1l.2.1-.2.2zm1.6 2.9l.1-.2.2.3zm4.4-7.3v.3h-.3zm-3.5 1.5h.3l-.1.3zm2.5 2.2l.1-.3.2.2zm-10.8-17.9l-.3.1v-.3zm-2.6-2.8v.3h-.3zm-1.2 3.1h.3l-.1.2zm11.6 19.2l-.3.2v-.4zm-2.6-2.7v.3l-.2-.1zm-1.2 3h.3v.4zm-6.2-20.5l.1.4-.3-.1zm-3.5 1.3h.2l-.1.3zm2.3 2.4l.1-.4.2.2zm1.1 1.7l.1.4-.4-.2zm-3.6 1.3l.3.1-.1.2zm2.4 2.4l.1-.3.2.2zm1.3 1.3h.4l-.2.3zm.3 3.8l.1-.3.2.2zm2.9-1.6l-.3-.2.2-.1zm-11.5-13.7l-.1.5-.5-.3zm-3.1-1.6l.5.3-.5.3zm.5 4.3l.3-.3.2.4zm-6.6-2.1l.1-.5.4.5zm12.8 1l-.4-.1.4-.3zm.9 10.8l-.3.3-.2-.4zm22.6 18.1v-.6l.5.3zm11 7.1l-.5-.1.3-.4zm-9.2-10.5l-.1.4-.4-.4zm-9.1-5.7l.2-.5.3.4zm2.8 1.8l-.4-.2.4-.2zm0-4.3l-.3.3-.1-.5zm13.5 19.1l-.1-.6.6.2zm2.7.6l-.4-.1.2-.4zm-1-.2l-.2.3-.3-.3zm-15.9-11.4v-.5l.5.2zm-2.7-2.9v-.6l.5.2zm5 5.5v-.5l.5.2zm3.7 2.6l-.4-.2.6-.4zm-11.8-12.2l-.4-.4.5-.3zm9.2 7.7l-.4-.1.2-.4zm-1.6-4l-.1.4-.4-.4zm-2.4.7l.1-.5.5.5zm2.8 2l-.3-.3.4-.3zm.1-4.4l-.3.3-.2-.4zm-32-20.5l-.2-.5.5-.1zm3.2-1.2l-.3.1v-.5zm-3.4-2.6l.1.4-.5-.2zm34.3 30.7l-.4-.3.5-.3zm2.4-2.4l-.4.3-.1-.5zm-4.2-.9l.2.4h-.4z"/></g><g fill="#ffb7a4"><path d="M295.5 193.8v-.4l-.5.2zm-9.7-13.6l-.4-.2v.5zm17 22.3l.3-.1-.2-.2zm-9.7-12.5v-.3l-.4.1zm-3.1-1.1h.3l-.2-.2zm.6-1.8l.2.3.2-.2zm-1.8-.8l.2-.2-.4-.2zm-2.6-3.1l.3.1.1-.3zm.8 5.9l.2-.3-.4-.2zm-3.6-3.5l.2.1v-.3zm3.3-.8l-.1.3.4-.1zm6.7 10.5l.2-.2-.3-.2zm-1.8-3.2l.3.1v-.3zm2.6-.7v.3l.3-.1zm1.6 9.6l.2-.2-.4-.1zm-2.6-2.5l.3.2v-.4zm3.4-.8l-.1.3.3-.1zm1.4 1.1h.3l-.2-.4zm-4.8 1.7l.3.2.1-.4zm2.1-3.3l-.1.2h.3zm1.9 2.8l-.3.1.1.2zm-11.5-12.2l.2-.2-.4-.2zm-5.5-5l.3.1v-.2zm3-1.3l-.1.2h.4zm-1.9 3.1l.4.2-.1-.4zm2-1.3h-.3l.2.3zm1.8 1.3l.3.2v-.5zm1.6-3v.4l.2-.1zm2.3 2.2h-.3l.1.3zm1.2 1.6v.2h.4zm1.9 3.4l-.1-.1-.2.2zm15.3 19.2h-.6l.3.6z"/><path d="M308 210.7l-.1-.4-.4.2zm-4-2.1l.3-.2-.3-.4zm-3.3-9.3l-.6.2.5.4zm-2.1-2.2l-.6.2.4.4zm-.5-1.6l-1-1.2-.7 1.5zm4.3 5.7l-1.3-1.7-.2 1.5zm4 5.1l-1.2-1.8-.3 1.6zm-10.5-13.7l-1-1.2-.8 1.6zm-4-5.6l-1-1.2-.8 1.5zm-4.1-5.9l-.9-1.2-.9 1.5zm3.9 7.8l-1 .2.6.9zm-2.5-.7l-.7.1.4.7zm1.2 3.5l-.1.7.8-.1zm7.1 7.9l-.2.7.9-.2zm.3-3.7l-.1.7.8-.2zm6.4 7.8l-.1.7.8-.3zm-8-10.1l-.2.7.8-.2zm-3.1-1l-.1.7.8-.2zm1.1-2.2l-1 .1.6 1.1zm1 4h-1l.6 1zm-7.5-12.3l-.4.9h1.2zm-.5 2.6l.5.7.5-.7zm9.7 11.2l-.1.8.9-.3zm1.9 4.8l-.1.9.8-.3zm-1.9-2.6l.6.5.3-.9zm1.7-.3l.7.5.2-.9zm-6.5-6.6l.8-.1-.4-.9zm0-2.4l.8-.1-.5-.9zm-2.8-1.8h.9l-.4-.8zm10.3 11.2l-.1.9 1-.3zm3.3 5.5l-.1 1.2 1.2-.5zm3.9 3.1l-.3 1.2h1.3zm1.8 2.1l-.2 1.2 1.2.1zm-6.4-7.4l-.1.8.9-.3zm-13.1-16.9l.3.7.7-.7zm11.7 17.2l-.3-.4-.3.5zm-3.4.2l.4-.2-.5-.3zm12.4 9.3v-.4l-.4.3zm-4-2.1l.5-.1-.4-.4zm-1.4-3.5v-.5l-.5.2zm-3.3-2.6l.4-.2-.3-.4zm2.6.4l-.2-.4-.3.4zm-4 .8l.4-.3-.5-.2zm5.8 2.5l-.3-.5-.3.5zm-2.8 1.5l.4-.3-.5-.3zm-.5-3.4l.4.3.1-.5z"/></g><linearGradient id="L" gradientUnits="userSpaceOnUse" x1="250.295" y1="154.677" x2="234.304" y2="99.748"><stop offset="0" stop-color="#ed89ae"/><stop offset="1" stop-color="#f4c0ca"/></linearGradient><path d="M231.8 170.6s-11.6-19.1-16-32.4c-4.5-13.4-9.8-28.9 4.7-37.4 15.3-9.1 30.2 3.7 39.7 16.5 7 9.9 16.4 24.9 16.4 24.9l-44.8 28.4z" fill="url(#L)"/><linearGradient id="M" gradientUnits="userSpaceOnUse" x1="228.4" y1="153.85" x2="276.6" y2="153.85"><stop offset=".007" stop-color="#ff9f00"/><stop offset=".983" stop-color="#ffd86b"/></linearGradient><path d="M232 170.6l44.6-28.4-3.3-5.1-44.9 27.8z" fill="url(#M)"/><g fill="#d87390"><path d="M228.8 153l-.1-1.9-1.5.7zm-4.9-1.6l-.5-1.8-1.3 1.1zm4.4-1.5l1.7-1.5-1.8-.9zm-8.1-.9l1.7-1.5-1.8-.9z"/><path d="M218.2 143.7l2.2-.6-1.2-1.5zm3.9 9.1l2.1-1-1.6-1.3zm2.4-1l2-1-1.5-1.3zm-1.7-1.9l1.6-1.5-1.8-.9zm3.8 5l1.6-1.5-1.9-.8z"/><path d="M225.8 155.8l1.9-1.2-1.7-1.1zm-.7-11.4l-.6-1.9-1.2 1.2z"/><path d="M229.1 154.8l.4-1.8-1.6.3zm-5.3-11.5l-.4-1.3-.9.7zm2.7 5.4l-1.1.1.4.9zm3.7-8.2l-.3 1 1-.1zm4 1l1.2-.5-.8-.8zm-5.2 3.2l-.1-1.1-.8.5zm8.6 2.9l-1.1-.2.3 1zm-11.7-7.3l.7 1.2.7-1zm-4.1-4.6l1.1-.3-.6-.7zm-1.3 9l-.1-1.1-.8.4z"/><path d="M220.1 145.2l-.6-1.8-1.2 1.1zm1.2-.5l.8-2.9-2.6.5zm-6.3-9.3l1.2-2-2-.2zm7 12l2.2-1.9-2.3-1.2zm-.5-5.9l.3-1.9-1.7.5zm-2.2-.3l.3-1.9-1.6.4zm12.7 6l1.2-.4-.7-.9zm0 3.8l.3 1 .7-.7z"/><path d="M234.9 144.9l-.1-1.1-.9.5zm-9.9.6l.1-1.1-1 .3zm-5.3-6h-3.5l1.2 2.9zm1.7 5.9l-2.8.2 1.2 2.3zm1.8 3.8l-2.9.2 1.2 2.3zm-7-10.2l1.8-1.3-1.7-1zm-.4-8.2l-2.4-.3.6 2.1zm9.5 22.1l-3.1.2 1.3 2.4zm2.2 3.4l-3.5.3 1.5 2.9z"/><path d="M229.7 159.1l-4.2.3 1.7 3.4zm-3.4-13.3l1.3 1.3.6-1.5zm3.2 7.6l1.8-1.3-1.7-1zm-.5.5l.8 2.1 1.5-1.4z"/><path d="M227.4 162.6l.9 2.1 1.3-1.5zm2.1-2.5l.8 2.1 1.4-1.4zm-2.4-2.8l.8 2.1 1.5-1.4zm9.8-18.7l.9-.9-1.1-.4zm-3.4 5.2l-.5-1-.6.8zm9-1l-1 .3.6.7zm-8.7 18.1l-.7-2.3-1.6 1.4zm5.1-12.6l-1.1.1.4.9zm-6.9 2.9l1.1.7.3-1.1zm-5.5-2.7l.9-.7-.9-.4zm2.2 8.8l-.5-1-.6.7zm-9.3-29.5l1.3.1-.4-1.1zm-6.1.9l.4-1.1-1 .1zm6.7 6.1l-.9-.6-.1 1zm15.8 19.7l1.3.3-.3-1.2zm-3.6.1l1.3.3-.3-1.2zm13-8.4l1 .2-.2-.8zM237 158l1.4.3-.2-1.3zm-3.5-2.9l1.5.3-.3-1.3zm10.9-14l1 .2-.2-.8zm-14.7 13.4l.4-1h-.9zm-3.3 2.9l2.5-1.6-2.2-1.5zm-1.9-1.3l1.6-1.6-1.8-.7zm5.1 2l1.8.2-.5-1.6zm5.1-9.3l1 .4-.1-1zm5.3-1.9l1.5.2-.4-1.3zm-6.9.7l.5-1.2-1.1.1zm7.2 7.2l-1-.7-.2 1.1zm-8.9 8.3l-1.7-.6-.1 1.7zm2.4-2.5l1 .4-.1-1zm3.1-9.1l.7-.9-1-.3zm-2.5 5l-.6-.8-.5.8zm8-1.8l-1 .4.7.6zm-5.7 2l-1.9.3 1 1.4zm11.6-12.4l.8-1-1.1-.2zm-2.5 4.9l-.6-.8-.4.8zm8-1.8l-.9.4.6.6zm-10.2 1.1l.2-1.2-1.1.3zm.2 5.5l-.9-.4v1zm6.1-5.4l-.6.8.8.2zm-13.8 11.3l-1.4-1.8-1 1.7z"/></g><g fill="#ffa124"><path d="M248.7 154.4l-1-.8-.3 1.1zm-9 6.1l-1 .7.9.5zm7.3-1.3l-.1 1.8 1.3-.8zm1.9-4.2l.9.2-.2-.8zm5.9-3.1l1 .2-.2-.8zm-10.5 4.2l1.5.3-.3-1.3zm6.5-2.2l1.5.3-.3-1.3zm-15.2 8.6l-.8-.7-.3.9zm-1.6 4.3l-1.8.6 1.2 1.2zm-1.4-.2l-1.6-1-.2 1.7z"/><path d="M230.2 167.7l1.6 2.7 1.5-2.2z"/><path d="M228.6 165.1l1.6 2.9 1.3-2.4z"/><path d="M233.6 165.9l-1.6-1.7-.8 1.9zm4.1-2.5l-1.3-1.7-1 1.7zm-.5 1.8l-1.5-1.1-.4 1.6z"/><path d="M236.1 165.3l-1.8.6 1.1 1.3z"/><path d="M233.2 165l.9 4 3.1-1.9zm15.8-6.5l-1.3.1.6 1zm-2.4 1.6l-1-1.5-.9 1.4zm-2.7 2.1l-1.1-1.3-.7 1.4z"/><path d="M246.7 158.9l-.8-1.3-.7 1.1zm-8.4 1.4l2-.5-1.2-1.5zm-1.3 1.6l2-.5-1.2-1.4zm-5.4 1.1l1.4.9.3-2.1zm12.4-3h-1.6l.6 1.3z"/><path d="M242.8 160.6l-2.2-.8.1 2.1zm-2.3.1l-1.5.3.8 1.1zm0 2.9l-1.7.3.9 1.3zm-1.8.4l-.2-1-.7.5z"/><path d="M236.3 163.3l.9 3.7 3.1-1.8zm3.9-1.5l.6 3.3 2.5-1.7zm3.2-2l.7 3.1 2.5-1.6zm8.1-1.5l-1.9-.6.1 1.6zm-8.4-1l-1.9.3 1 1.4zm17.3-6l-1.2.1.6 1zm-2.4 1.6l-.9-1.5-.9 1.3zm-2.6 2.1l-1.2-1.4-.7 1.5z"/><path d="M258.1 151.6l-.7-1.2-.8 1.1zm-2.7 1.2h-1.5l.5 1.2zm-10 4.2l-1.3-.4.1 1.2zm6.1-.6l-1.7-.6.1 1.6zm0-1.7l.5 3.1 2.6-1.5zm4-1.6l.5 2.3 1.9-1.3zm7.4-2l-1.9-.7.2 1.7zm-15.4 4.3l-1.1.1.6.9zm1.8 1.1l-1.9.3 1 1.4zm-14 6.6l-1.9.3 1 1.4z"/></g><g fill="#ffcce1"><path d="M219.4 101.8l1.2.4-.1-1.4zm20.3 5.5l-.7.1.5.7zm7.9-2.9l-.8.1.5.7zm-10.5 5.4l-.4-.7-.6.7zm-12.3-9.9v.9l1-.3zm13.7 2.2l-.1.9 1-.3zm2.6-1.4l-.2.9 1-.3zm-23.2 1.9l-1.3 1 1.7.9z"/><path d="M215 105.6l-1.1 1.3 1.8.4zm1.2-1.4l-.1 1.3 1.3-.5zm-.4 3.7l-.1.9 1-.3zm-2.3-.3v.9l.9-.3zm17.9-9.7l-.7.1.5.7zm-4.5 2.6l-.6-1.3-1 1.2zm2.8-.5l-.4-.7-.6.7zm3.9 1.3l.8.4v-1zm.6-3.1l.3.8.8-.6zm-1.4 4.1l-.2.7.8-.2zm-11.6 4.9l-.1.7.9-.2zm-3.2.6l-.1.7.8-.2zm-2.8 1.5l-.1.7.8-.2zm-.8.6l-.1.7.8-.2zm27.8-5.1l-.1.8.8-.3zm2.1-1.2l-.2.7.9-.2zm-4.7 1l.7.4v-.9zm-2.9-2.8l.6.4.1-.9zm3.5-1h-.8l.4.8zm-21.2 9.8h.5l-.2-.6zm.6-3.8l.1.5.4-.4zm6.8 1.6l-.4.2.4.4zm-3.3-.7l.2.5.5-.4zm7.3.9l-.4.3.5.2zm13.6.9l-.5.3.5.2zm-9.9 1.8l-.3-.3-.2.5zm4.4 1.9l-.3-.2-.2.5zm-5.3 5.2l-.4-.3-.1.6zm.8-13.8l.6.7.4-1zm-6.2-6.5l1.1 1.4.9-1.8zm-8.9 6.2l.6.7.4-1zm18.2-5.7l-.4.6.8.1z"/><path d="M239.7 105.8l-.7-.2.1.8zm-6.3-5.5l1.4.3-.3-1.5zm1.8.7l.9.2-.2-1zm.1-1.7l.9.1-.3-1zm-5.3 4.4l.1.8.8-.4zm9.7-4.2l-1.2-.4.2 1.4zm-25.3 9.1v.8l.8-.4zm4.4-5.6l-.5.2.3.6zm-6.3 7.6l-.6.1.4.6zm1-.8l-.2-.6-.5.6zm3.6-3.5l.7.3v-.8zm-2.1.6l.8.8.5-1.2zm2.9-1l.7.2-.1-.8zm2.8-2.1l.7.3v-.9zm-1.6-1.7l-.4 1.4 1.6-.3zm-3.7 3.4l-.1.6.6-.2zm6.7-.8l-.6.1.3.6zm-5.2 2.9l.7.2-.2-.8zm-3 4.5v.6l.6-.3zm1.2-4.8l-.6.1.4.6zm.6 4.2l.7.2-.1-.8zm3.3.6v.7l.6-.3zm-7.4-.2v.6l.6-.3zm5.4 1.6l-.6.2.4.5zm-3.8-1.4l.5-.4-.7-.3zm-2.5 3.6l.4-.4-.6-.3zm.6-2.3l.4-.4-.6-.2zm-.6 3.4l.5.4.2-.6zm.2 2.6l.4.5.3-.7zm.7-4.3l.6-.4-.6-.5zm2.8-1.9l.4.5.2-.7zm-.5 2.4l-.3.5.7.2zm-.1 2.3l-.3.5.7.1zm-2.9 4.3l.4.5.3-.7zm4.4-2.4l-.3.6h.7zm0 3.9l-.3.6.7.1zm5.4-22.9l1.8 1.3.5-2.5zm2.8-.8l-.3.6h.8zm-1.9 2l-.3.5.7.1zm4.5 1l-.6-.1.1.7zm11.6.7l-.6-.2.1.7zm-13.5-1.2l-.6-.2.1.7zm2.3-3.9l.5.5.3-.8zm.8 4.8l.5.6.3-.8zm-3.1-4.3l1.1 1 .6-1.6zm6.4 2.7l.6.5.2-.8zm4.2 5.1l.5.5.3-.8zm-.2 6.3l-.7.1.5.7zm-2.6 2.5l-.3-.7-.6.6zm-2.9 1.5l-.4-.4-.2.6zm.6-4.4l.5.5.3-.8zm-3.3 2.8l.6.5.3-.8zm-2.5 4.1l.5.5.3-.8zm-6.4-3.2l.6.5.2-.8zm14.6-18.2l-.4.6.7.1zm-1.2.4l-.6-.2.2.7zm2.5.9l-.6-.2.2.8zm8.8 3.8l.8.4v-1zm-.8 1l-.2.8.8-.2zm3.8-.5l.7.4.1-.9zm-2.6 2.8l.6.7.4-1zm-.2-4.7l1 .2-.3-1zm1.4 1.1l.9.3-.2-1.1zm2.5 2.7l-.6-.2.1.7z"/><path d="M241.1 103.3l-.6-.2.1.7zm-13.3 1.9l.5.5.3-.8zm1-3.7l-.3.6h.7zm3 4.6l-.6-.2.2.8zm1.9-8.2l-1.1-.1.5 1.2zm-6 2.6l-.7.3.7.6zm.9-1.5l-.7.3.7.6zm-4.4 6l-.5-.6-.3.8zm-1.7-1.8l-.2 1.4 1.4-.5zm-1.2 0l.2.5.4-.3zm3.6.9l.2.6.4-.5zm-1-2.9h-.6l.3.6zm2.1.2l-.5-.6-.4.8zm.8 2.2l-.5-.6-.4.7z"/><path d="M228.3 106.8l-.5-.6-.4.8zm-3.3-4.9l1.2.6.1-1.5zm6.3-1.3l.9-.1-.5-.9zm.5 3.6l1-.1-.5-.9zm-12.6 1.6l.9-.1-.4-.8zm2.2 3.4h.9l-.4-.9zm2-6.2l.6.3.1-.8zm5.3-2.9l-.1.6.6-.1zm-1 1.9h-.6l.3.6zm2.6.3l-.6-.1.3.7zm-4 3l-.2.6.8-.1zm-3.8 11l-.2.4.5.1zm3.6-1.8l-.2.4h.6zm-2.7-4.1l.5.6.4-.7zm5.7.5l.7.2-.1-.9zm-6.9 1.9l.7.2-.2-.9zm4-1.2l-.6.2.4.5zm-5.3 2l.2.6.5-.5zm9.4-12.8h-.6l.3.7zm7 2.4v.7l.8-.3zm-2.8-.4l.5.5.3-.8zm3.4-1.5l.5.5.4-.8zm-1.8-.4l-.3.6.7.1zm-1.1.4h-.6l.2.6zm2.6.4h-.6l.3.7zm.1-1.4h-.6l.2.6zm-12.5 5.3l-.6-.1.1.7zm8.2-2.8l-.1 1.6 1.6-.6z"/><path d="M230.9 99.4l-.2 1.6 1.7-.6zm5.9 1l.9.1-.3-1zm-5.1 5.3l1.7.9.1-2.1zm-4.9-5.6l1.6.9.2-2.1zm-4.2.7l1.8.3-.5-2zm8.2-1.5l1.6.9.3-2zm1.3 2.2l1.6.9.2-2.1zm-3.3 0l1.6.9.2-2.1zm5 .3l1.3 1.4.8-1.9z"/><path d="M234.5 101.2l1.4 1.2.5-2zm-8.2 2.8l-.2 1.6 1.6-.6zm8.6-1.1l.3 1.6 1.4-1zm-10.5.7l-.1 1.1 1.1-.3zm7-.5l-.9.1.5.9zm-4.3 7.8l-.3-.8-.7.7zm2.6 3.5l1 .1-.3-1.2zm-.5-7.1v.9l.9-.4zm7.7 4.3l-.8.3.7.7zm-8.8-3.8l.4-1h-1.2zm-6.9-1.4l.9.2-.3-1zm6.2-6.4l.1.9.8-.4zm-3.3-.6l-.2 1.5 1.7-.5zm-1.4 2l.8 2.3 2-1.9zm-7.9 5.1l.7 1.7 1.5-1.4zm11.2-3.9l2.1 1.1.2-2.6zm-4.8.3l.4 1.5 1.4-1zm-1.2-1.5l.4 1.5 1.3-1.1zm12.6 7.7l1 .1-.4-1.2zm2.2-1.8l.4-.8-1.1.1z"/><path d="M232.2 111l.1.9.8-.5zm-4.7-6.9l.3.9.7-.7zm-3.7-4.1l-3.3 1.2 2.6 2.8zm3.6-1.9l-3.2 1.2 2.7 2.8zm4.2-.4l-2.7.1 1.3 2.7zm-12.8 7.2l1.9.1-.8-1.9z"/><path d="M220.4 101.4l-2.9 2 3.2 2.1zm15.5-3.1l-2.3-.5.5 2.6zm-5.6 8.4l.8-1.3-1.7-.3zm14.9 4l-1.3.8 1.4 1z"/><path d="M246.6 106.7l-1.4.8 1.5 1zm-2.6 4.9l.6 1.7 1.5-1.4zm.2-7l.7 1.7 1.4-1.5zm-3.5-2.6l1.1 1.5 1-1.8z"/><path d="M249.4 106.6l.2 1.8 1.8-1.1zm-3.8 2.3l.1 1.8 1.9-1zm-.6-1.9l.7 1.7 1.4-1.5zm5.3 3.3l.2 1.9 1.8-1.1zm-16.6-5.7l1.3 1.3.7-2zm4.5 1.8l1-1.5-2-.4z"/><path d="M237.2 105l.8-1.7h-2.1zm5.7 2.5l-.8 1.4 1.7.1zm3.5 4.8l-1.4.8 1.4 1zm-6.4-7.2l-.8.6 1 .6zm5.5 4.4l-.7-.6-.3 1zm-8.4 2.8l.3-.9h-1zm1.7 4.3l.6.8.6-1zm2.2-5.6l-.6.7 1 .3z"/><path d="M246 119.5l-.9-.3v1zm-15.4-2.6l.9.6.2-1.2zm.2-6.6l-.3.8 1-.1zm7.5 7.1l-.8-.1.3 1zm-4-10l-.3 2 2.1-.7zm3.8 4.2l-.8.1.5.9z"/><path d="M234.5 108.4l.9-.6-1-.6zm-5.1-4.7l.7.6.3-1zm8.6-2.2l-.4.8h1zm-17.4 10l1-.5-1-.7zm-4.7-5.3l.6.7.5-.9zm8.9-1.3l-.5.8 1 .1zm13.4 5.2l1-.2-.6-1zm-2.6-6.6l.3.9.7-.8zm8.7 1.8l-.7.5.8.5zm-1.5-2.9l-.8 1.3 1.8.2zm-2.1 1.3l-.2 2.4 2.6-.9zm1.4 2.5l1 2.2 1.8-2zm-6.7-4.6l1.9 1.4.6-2.7zm3.4.9l-.8 1.4 1.7.2zm.6-1.9l-.5 1.5 1.8-.3zm5.1 14.1l.7.8.5-1.1z"/><path d="M245.8 114.5l.9-.4-.8-.6zm-2.9 1.4l-.6.7 1 .2zm-5.1-14l.9.2-.2-1zm4.6 6.4l-.4.8h1.1zm-20.2-3.3l1.3 1.4.8-1.9zm16.9-5.8l-2.6-.7.4 3zm4 2l-2.6-1.4-.2 2.9zm3.6 2.3l-2.9-2-.1 3.1zm3 2.3l-2.5-2-.2 2.9zm3.6 3.4l-2.1-2-1 2.4zm-14.7.6l.8-.4-.8-.6zm-1 2.4l1.5-.4-1.2-1.3z"/><path d="M236 110.2l.7-.4-.8-.6zm2.4-.8l.7-.5-.8-.5zm14.9 6.6l-1.3.8 1.4 1zm.4-3.7l-1.3.8 1.5 1zm4.2 4l.6.8.5-.9zm-7.9.1l.3 1.8 1.8-1.1zm4.2-4l.2 1.9 1.8-1.1zm-.6 1.7l.2 1.8 1.8-1z"/><path d="M250.8 111.9l.3 1.8 1.7-1.1zm5.7 5.3l.2 1.9 1.7-1zm-1.1-1.9l.2 1.8 1.8-1zm-2.1 2.1l-1.3.8 1.4 1zm-8.3-8.2l-.9.5.9.8zm6.8 5.4l-.6-.7-.4.9zm-8.7 1.3l.4-.8-1-.1zm-1.9 4.2l.5.9.7-.9zm5.4-4.5l-.7.6.9.4zm1 8.8l-.7-.5-.2 1zm-.4-5l.5.9.7-1zm3.3.4l.9-.2-.6-.8zm-5.9.8l-.7.6 1 .4zm11.2-8.7l-2.2-2.4-.9 2.5zm2.5 3.1l-2.1-2.5-.8 2.6zm5.8 16.4l-1.4.7 1.4 1.1zm1.7-2.3l-1.4.6 1.4 1.2zm2.5 2.5l-1.4.8 1.4 1zm-1.6-.5l-1.4.7 1.4 1.1zm-5.6-1.4l.1 1.8 1.9-1z"/><path d="M263.5 126l.1 1.8 1.8-.9zm-1.4-3.5v1.8l1.9-.8zm7.5 9l-1.4-1.9-1.4 2.4zm-3.9 1.7v1.8l1.9-.9zm-2.4-5.3l.1 1.9 1.8-.9zm4.4 7.6l.3 1.8 1.7-1.1zm-12.6-16.9l.2 1.9 1.8-1.1zm3.5 5.2l1.7-.8-1.6-1.4zm-.8-2.6l1.7-.7-1.6-1.4zm3.4 3.9l-1.3.8 1.5 1zm5.5 10.4l-1.3.9 1.5.9zm2.7-1.9l-1.4.7 1.4 1.1zm-13.4-13l-1 .4.7.9zm3.8 6l-.5-.7-.6.8z"/><path d="M250.7 126.3l.6-.6-1-.4zm3.9-7.3l-1.5 1.3 2 .9zm-.9 7.8l-.7-.5-.2 1zm-4.4-2l1.1.2-.3-1.2zm-.5-7l.1.9.8-.5zm7.8 4.2l-.9.3.7.7zm-12.6-1.2l1 .3-.1-1.2zm-1.5-7.1l-.1.9 1-.3zm9.1 5.7l-.9.1.6.9zm11.2 4l-1.4.7 1.4 1.1z"/><path d="M260.8 122.7l-1.2 2.1 2.7.3zm0 4l.5 2.4 2.2-1.5zm-5-10.5l.4 2.4 2.3-1.4zm4.3 4.8l-1.4.8 1.4 1.1zm1.1-1.6l-1.3.8 1.4 1zm1.3 17.7l.9-.3-.7-.7z"/><path d="M259.3 119.7l.5.7.5-.9zm2.3 8.4l-.5.7 1 .1zm-.3-8.9l-1.9-2.8-1.3 2.8zm2.3 3.6l-1.8-3-2.2 3.2zm2.3 3.2l-2-2.9-2 3.2zm2.4 3.6l-2.1-3.3-1.9 3.4zm3.1 4.7l-1.8-2.8-2.2 3.2zm-16.1-8.5l.8.2-.2-1z"/><path d="M258.1 125.1l1.4.4-.3-1.7zm1 4.4l1 .2-.3-1.1zm-6-5.2l.8.2-.2-1zm2.3 1l.8.1-.2-.9zm2.7 2.7l1.3-1-1.6-1zm10.2 10.9l1.5-.8-1.5-1.2zm-4.3 1.2l1 .1-.3-1zm-.9-6.3l.1.9.8-.5zm7.3 3.4l-.7.3.7.6zm-16.5-2l1 .1-.3-1zm-.9-6.3l.1.9.8-.5zm7.5 3.3l-.7.3.7.6z"/><path d="M261.2 141.1l1 .3-.1-1.1zm.5-6.4l-.1.8.9-.3zm6.4 4.8l-.8.2.5.7zm2.2-2l.5.6.4-.8zm2.7-.6l-1.8-2.6-2.1 2.8z"/></g></svg>