<svg xmlns="http://www.w3.org/2000/svg" xmlns:xlink="http://www.w3.org/1999/xlink" viewBox="0 0 480 480" xmlns:v="https://vecta.io/nano"><path d="M282.87 381.94l-26-10.3c-2.5-1-5.5.2-6.5 2.8-1 2.5.2 5.5 2.8 6.5l6.08 2.4-3.77 3.4c-4.14-4.02-9.78-6.5-16-6.5-12.7 0-23 10.3-23 23 0 5.33 1.82 10.23 4.86 14.13l-4.42 3.97-17.24-1.3c-2.8-.2-5.2 1.8-5.4 4.6s1.8 5.2 4.6 5.4l27.9 2.1c2.8.2 5.2-1.9 5.4-4.6.07-.97-.14-1.88-.54-2.67 2.45.9 5.08 1.37 7.84 1.37 12.7 0 23-10.3 23-23 0-5.04-1.63-9.7-4.38-13.5l5.3-4.76 15.8 6.26c2.6 1 5.5-.2 6.5-2.8 1-2.5-.2-5.5-2.8-6.5zm-62.4 21.3c0-10.5 8.6-19 19-19 5.04 0 9.6 1.98 13.02 5.18l-9.32 8.36c-1.05-.7-2.3-1.1-3.66-1.1-3.7 0-6.7 3-6.7 6.7 0 1.1.27 2.12.73 3.03l-9.2 8.27c-2.42-3.2-3.86-7.15-3.86-11.45zm2 18.5l1.6-1.44c.68.62 1.4 1.2 2.16 1.72l-3.76-.28zm36-18.5c0 10.5-8.5 19-19 19-4.74 0-9.07-1.75-12.4-4.62l9.27-8.33c.94.5 2.02.8 3.17.8 3.7 0 6.7-3 6.7-6.7 0-.9-.18-1.75-.5-2.52l9.38-8.43c2.13 3.06 3.38 6.78 3.38 10.8z" fill="#fff"/><path d="M313.2 379.94v-.4.4z"/><g fill="#fff"><use xlink:href="#B"/><use xlink:href="#B" x="-277.13"/></g><path d="M360.07 287.74l.01-.07c-.02-.03-.03-.03-.01.07z"/><g fill="#fff"><circle cx="349.63" cy="219.04" r="11.6"/><path d="M200.65 398.6l1.77-15.94 23.03 2.83-.77 9.6c-.2-.03-11.9 22.22-24.03 3.52z"/></g><path d="M214.46 405.84c-.02.01-.03.02-.05.02.03-.01.05-.02.05-.02zm-7.34-3.74h-.1.1zm31.02 22.46h-.02l-.1.01.13-.01zm75-44.62v-.4.4z"/><path d="M201.47 251.34h-44.3c-4.8 0-12.5 2-12.5 10.4v4.2c0 7.4 7.5 10.4 12.5 9.8 4.33-.5 14.42-3.2 21.17-5.1l9.6 23 9.97-4.16-8.67-20.74h12.22c4.8 0 8.7-3.9 8.7-8.7 0-4.8-3.9-8.7-8.7-8.7z" fill="#fff"/><path d="M369.36 309.07l3.83-1c4.93-1.4 8.9-2 11.9-2.47l3.88-.45 2.64-.22c2.75-.25 2.54-.37 1.06-.5-1.5-.08-4.32-.15-6.75.04-1.22.04-2.34.17-3.15.27l-1.33.15c-4.08.53-7.64 1.24-10.92 2.22l-1.75.53.6 1.44zM189.7 390.95c-.06-.01-.13-.01-.2-.02l.2.02zm157.87-134.37l-.84-2.25c-.01.02.04.18.17.53l.67 1.72zm-36.5 52.88l.3-.47-.3.47zm5.03-53.58l.72-.18-.72.18z"/><path d="M397.77 380.04l-58.93-147.22-10.1 3.7 6.54 16.32-144.5 32.4c-.2 0-.3.1-.5.1h-.1c-.1 0-.2.1-.4.1h-.1c-.1.1-.3.1-.4.2l-.1.1c-.1.1-.2.1-.3.2 0 0-.1 0-.1.1l-.8.8c-.1.1-.2.2-.2.3l-76.3 93.1c-1.3 1.6-1.6 3.8-.7 5.7.8 1.8 2.6 2.9 4.5 3.1 4.2.5 76 12.3 123.5 20.2h1.6c.1 0 .3 0 .4-.1.1 0 .2 0 .2-.1.1 0 .2-.1.4-.1.1 0 .2-.1.3-.1s.2-.1.3-.1.2-.1.3-.2c.1 0 .2-.1.3-.2s.2-.1.3-.2.2-.1.2-.2c.1-.1.2-.1.2-.2l.5-.5c.1-.1.1-.2.2-.2l97.1-139.3 46.6 116.4c.8 2.1 2.9 3.4 5 3.4.7 0 1.3-.1 2-.4 2.9-1.2 4.2-4.3 3.1-7.1zm-272-.3l64.7-78.9 40.5 96.1-105.2-17.2zm115.1 13l-41.5-98.4 130.5-29.2-89 127.6z" fill="#fff"/><path d="M346.52 225.96c0-.02 0-.03-.01-.05a.175.175 0 0 1 .01.05zM261.2 397.28l-.03-.08c.02.06.02.08.03.08zm-45.4 4.82h0v-.1zm4.93-3.98l.01-.07c-.01.05-.01.06-.01.07zm36.97 4.24v-.02-.08.1zm-33.05 11.44l.33-.25c-.02 0-.1.06-.33.25zm13.42-5.46l-.07.07c.06-.05.07-.07.07-.07zm-.83-4.24h-.02l-.07.08zm-22.94 27.54l-.22-.05c.01.01.06.03.22.05zm-8.63-1.84h0zm39.4-30.87l.04.1c.02 0 .01-.04-.04-.1zm-12.46 2.57v-.03.03zm12.84 1.6h0l-.01-.02z"/><path d="M252.7 345.5l6.32-26.38 23.2 7.3-5.88 22.24c-.2-.05-13.7 16.8-23.63-3.15z" fill="#fff"/><path d="M122.18 342.24l-.06.3c.02 0 .04-.08.06-.3zm-13 84.4l.06-.3c-.02 0-.04.07-.06.3zm48.73-35.7l-.3-.06c.01.02.08.04.3.06zm-84.4-13l.3.06c0-.02-.07-.04-.3-.06zm76.62-18.72l-.25.16c.02.01.08-.03.25-.16zm-9.34 59.42c-.01.02.03.08.16.25l-.16-.25zm-59.54-8.96l.25-.16c-.01-.01-.08.03-.25.16zm9.4-59.42c.01-.01-.03-.08-.16-.25l.16.25zm-36.83 16.3l-.05.24.05-.24zm2.94 1.16c.01-.03.02-.07.06-.23l-.06.23zm118.66 13.24l-.02-.25.02.3v-.05zm-101.5-49.7h-.04c0 .02 0 .02.04 0zM54.6 382.4l.07-1.92-.07 1.92zm106.08 42.98s-.01 0 0 0l-.2.23.2-.23zm14.05-103.3l.15-.2-.03.03-.12.17zm175.87 55.85l.3.06c0-.02-.08-.04-.3-.06zm7.76 31.74l.25-.16c-.01-.01-.08.03-.25.16zm-26.56-29.18l-.07 1.92.07-1.92zm106 44.87s-.01 0 0 0l-.2.23.2-.23zm-38.5-83.1l-.06.3c.02 0 .04-.08.06-.3zm-13 84.4l.06-.3c-.02 0-.04.07-.06.3zm48.7-35.7l-.3-.06c0 .02.08.04.3.06zm-7.76-31.73l-.25.16c.02.01.08-.03.25-.16zm-9.18 59.67l-.16-.25c-.01.02.03.08.16.25zM367.58 350l.16.25c.02-.01-.02-.08-.16-.25zm44.12 59.34l-.07-.06.01.01z"/><path d="M401.47 376.97c.02-.02.02-.07-.06-.18l.06.18zm70.13-1.57l-.8-5.16-.45-2.36-.53-2.17c-1.92-7.78-5.1-15.94-9.54-23.46-4.46-7.5-10.3-14.3-16.73-19.43-.2-.2-.57-.5-.9-.73l-.44-.3c-.1-.08-.2-.12-.2-.12a79.826 79.826 0 0 0-12.58-8.23s-1-.54-2.7-1.36l-3.05-1.37-3.88-1.52c-5.62-2.05-12.88-3.65-18.5-4.12-2.82-.23-5.2-.3-6.77-.23-1.56.04-2.3.13-1.83.26.24.07.78.15 1.66.24.24.03.52.06.8.08l-2.46-.06c-3.4 0-6.76.23-10.06.65l2.48-.4 3.88-.45 2.64-.22c2.75-.25 2.54-.37 1.06-.5-1.5-.08-4.32-.15-6.75.04-1.22.04-2.34.17-3.15.27l-1.33.15c-4.08.53-7.64 1.24-10.92 2.22l-.63.2-9.88-24.32-13.4-33.98-6-15.18-.33-.83c1.06-.4 2.02-.84 3.2-1.25.48-.13 1.06-.32 1.7-.54.08-.03.17-.06.25-.1.27.05.54.1.83.17-.2-.1-.48-.15-.27-.2l.64.18-.16.07c.32.1.64.2.97.27l-.1-.15c.47.13.62.4 1.2.26.26-.1-.45-.2.07-.2.64.14 1.62.27 2.47.2-.1-.13.13-.16.35-.22l.04.12c.85-.32.4.24 1.2-.1l.1-.2c.7-.44.5.15 1.23-.47-.32.14-.25-.2.17-.3l-.06.15c.2-.1.27-.17.42-.22-.1.12 0 .2.3.02l-.15.24.5-.5c.53-.1 1.1-.7 1.4-.64 0 0 .24-.14.48-.33s.5-.4.54-.56c-.1.24.4-.14.35.08.13-.3.68-.93 1-1.1l-.03.06c.98-.83 1.18-1.8 1.9-2.66-.15-.02.18-.52-.05-.47.18-.55.46-1 .64-1.38.2-.4.28-.73.05-1 .1-.5.3-.56.36-.82l.01.13c.1-.97.15-1.24.18-1.97-.04-.36-.28-.42-.26-1.05.12.2.08-.06.07-.3.02.15.07.2.12-.12-.03-.04-.06-.1-.08-.17.01 0 .01-.02.03-.01-.07-.4-.1-.32-.1-.14-.02-.01-.03.01-.06.07.1-.42-.18-1.13-.01-1.2-.3-1.17-.75-1.93-1.24-2.77.04-.14.2.03.37.28l-.34-.62c.12-.06.25.33.36.52-.17-.87-.96-1.46-1.4-2.34l-.2-.1v-.06c-.04.04-.23-.1-.33-.2 0-.18.22-.16-.12-.52-.1-.18-.28-.38-.5-.56l-.7-.48c.2.2.08.2-.03.14-.18-.16-.2-.34-.4-.4l.08-.14c-.02.17-.6-.25-.7-.25-.04-.18.36.14.46.1-.8-.57-.4-.3-1.23-.8-.5-.17.01.18-.27.17-.4-.2-.85-.27-1.27-.58l.1.2c-.8-.2-1.26-.4-1.78-.65-1.58-.1-2.42.17-2.8.35s-.37.35-.15.47c.4.26 1.46.44 1.45.47 1.03.28 1.77.54 2.6.77.82.26 1.7.57 2.75 1.35.4.4.73.73.97 1.06.26.32.44.63.63.94.37.62.7 1.25 1.2 2.3.4 1.02.7 2.17.76 3.25.13.25.14.6.1.98-.01.37-.05.75-.02 1.07l-.15.22c.04.22.03.47-.1.66l-.03-.02c0 .33-.12.66-.14.82l-.03-.02-.12.37-.02-.08c-.08.56-.34 1.07-.6 1.5l.15.03c-.68.85-.66 1.35-1.45 1.98v-.03c-.57 1.2-1.55 1.18-2.4 2.14.1-.12-.1-.03-.1-.07-.46.37-1.05.6-.93.88-.4.2-.36.06-.45-.02.05.1-.3.3-.6.42l.13-.1c-.3.14-.6.22-.93.32l.25.18c-.53.07-.2-.25-.67-.06l.05.2c-.74.08-1.2-.14-1.87-.27-1.4.01-2.88-.12-4.27-.6-1.38-.46-2.65-1.25-3.5-2.3l.02-.18c.1-.17-.72-.3-.65-.52l-.28-.16c-.02-.1-.1-.27.03-.17-.16-.23-.2-.22-.37-.34l-.07-.32c-.52-.97-1.17-1.7-1.5-2.86-.05-.72-.3-1.7-.35-2.73-.08-.5-.03-1.03-.06-1.53.05-.48.03-.95.1-1.33.07-1.1.68-2.2 1.4-3.13.73-.94 1.57-1.72 2.3-2.57.07-.03.18-.2.16-.2a11.717 11.717 0 0 1 1.71-1.08l.37-.18c.22-.12.55-.27.92-.4.74-.32 1.7-.55 2.47-.75.76-.15 1.3-.33 1.18-.57-.14-.2-.97-.67-3.18-.6l.04-.06c-.92.15-1.58.38-2.13.73-2.48.45-3.9 1.04-6.9 2.1l-3.24 1.13c-.9.35-1.82.72-3.2 1.5-1.33.7-2.68 1.62-3.8 2.6-.45.56-1.47 1.32-1.9 2.1l-.27.2c-.14.27-.3.57-.5.8v-.03c-.17.42-.45.84-.5 1.06l-.01-.03-.2.5.01-.1c-.26.75-.4 1.55-.53 2.2l.1-.04c-.08.35-.13.66-.17.93l-.03.76-.06 1.6-.02-.02c.26 1.63.03 2.64.62 4.26-.08-.2-.02.1-.05.1.2.76.5 1.54.65 1.5.17.54.1.46.06.55.07-.03.27.42.44.83l-.1-.18c.15.4.34.77.52 1.15l.03-.28c.24.62-.1.23.22.8l.1-.06c.4.84.5 1.4.9 2.2l.4.6.26.38.36.47.1.12c.03.04.06.1.1.06l.03-.01.9 2.22 4.9 12.16-17.3 3.93c-2.43.62-5.5 1.33-8.85 2.1.23-3.78.18-7.38-.34-11-.3-2.06-.72-4.13-1.42-6.2-.68-2.06-1.6-4.15-2.9-6.14-.78-1.2-1.73-2.47-2.93-3.7-1.2-1.2-2.6-2.38-4.14-3.46-3.1-2.17-6.76-3.92-10.5-5.47-7.53-3-15.38-5.2-21.13-6.74l-25.7-6.54-6.64-1.56-.83-.2-.42-.1c-.2-.07-.54-.06-.63-.06h-1.7c-1.13 0-2.25 0-3.38-.01l-13.18.15c-.28-.01-.78 0-1.2.02l-.55.03c-.14.01-.23.02-.23.03l-15.65.05s-52.18.2-37.12 1.13h-2.58s-1.15 4.77-1.98 10.88l.34-3.1.95-6.82c.46-2.87.27-2.68-.22-1.2-.5 1.53-1.17 4.38-1.64 6.9-.48 2.5-.78 4.64-.78 4.64-.63 4.26-.92 8.06-.85 11.7.05 1.82.18 3.6.48 5.35.2.88.3 1.76.6 2.64l.4 1.3c.1.34.23.5.32.7l.3.6c.78 1.58 1.75 3.14 2.9 4.66 1.08 1.38 2.47 2.7 4.17 3.68-.8.05-1.57.16-2.46.15.46.02 1 .02.64.1l-1.4.02.3-.12a24.699 24.699 0 0 0-2.1.15l.3.1c-1.02.1-1.44-.05-2.52.43-.48.23 1-.08-.05.23-1.34.28-3.36 1.02-4.8 2.24.23 0-.16.3-.5.68l-.13-.04c-.6.8-.77.88-.92 1s-.36.2-.8 1.1v.4c-.3.84-.4 1.04-.53 1.27-.1.23-.33.5-.3 1.47.12-.75.33-.3.1.6l-.08-.25c-.08.5-.03.68-.07 1-.05-.3-.17-.18-.2.57l-.12-.5c.05.47.08.98.16 1.4-.13 1 .03 2.62-.14 3.03 0 0 0 .14-.01.35s-.01.5.01.84c.02.33.05.7.1 1s.15.54.2.67c-.2-.46.01.87-.2.52.1.3.4.88.62 1.47.3.57.57 1.17.73 1.5l-.1-.1c.68 1.24 1.6 2.05 2.48 2.75.94.64 1.87 1.18 2.95 1.72-.05-.15 1.1.34.88.06 2.32.66 4.37 1.2 5.25.6 1.1-.1 1.3-.02 1.85-.05l-.25.07c1.97-.36 2.5-.5 3.95-.8.7-.2.75-.5 2.03-.73-.4.2.13.06.6-.05-.3.1-.38.15.25.07.08-.05.2-.1.33-.15.01.01.03.01.02.02.78-.23.64-.23.27-.15.01-.02-.02-.03-.14-.03.85-.06 2.28-.57 2.42-.42 2.36-.64 4-1.27 5.93-1.86.24.03-.2.23-.75.42l1.38-.4c.02.13-.78.3-1.2.43 1.6-.22 3.12-1 4.92-1.4.4 1.16.7 1.9 1.16 2.63-.1.2.38.96.45 1.26l-.02-.02c.42.66.5 1.5.9 2.15-.02-.02-.07-.02-.14-.17.23.5.55 1.16.47 1.23.52 1.18 1.17 2.86 1.64 3.57l-.05-.04c.28.4.25.56.5 1.02 0 .03.01.07 0 .07.3.43.6 1.38.8 1.74l-.05.05.4.94-.13-.36c.22.05.2.76.6 1.4.2.48.6.88.86 1.34l-15.86 19.4c1.38-1.75-.66.7-.58.53l-7.3 9.03-1.06 1.34c-2.7-1.88-5.5-3.6-8.4-5.14 0 0-1-.54-2.7-1.36l-3.05-1.37-3.88-1.52c-5.62-2.05-12.88-3.65-18.5-4.12-2.82-.23-5.2-.3-6.77-.23-1.57.01-2.3.1-1.83.23.24.07.78.15 1.66.24a14.302 14.302 0 0 0 .82.08l-2.48-.06c-3.64 0-7.2.27-10.7.75l3.17-.5 3.88-.45 2.64-.22c2.75-.25 2.54-.37 1.06-.5-1.5-.08-4.32-.15-6.75.04-1.22.04-2.34.17-3.15.27l-1.33.15c-4.08.53-7.64 1.24-10.92 2.22-3.3.92-6.3 2.08-9.35 3.4-6.02 2.75-12.22 6.2-19.7 12.5-6.54 5.56-10.07 9.76-13.4 14.16-.8 1.1-1.64 2.23-2.4 3.45l-1.2 1.85-1.17 2.02c-.84 1.37-1.57 2.92-2.43 4.57-.77 1.7-1.65 3.53-2.4 5.62-1.55 3.96-2.87 8.17-3.74 12.46-.88 4.3-1.4 8.6-1.6 12.76.03 1 .02 2.16.01 3.44 0 1.28.07 2.66.1 4.07.06 1.4.2 2.83.3 4.2.15 1.36.36 2.65.54 3.8.02.6.12 1.2.18 1.8l.5 2.5c.2.85.4 1.7.54 2.5l-.06-.1c.3 1.17.64 2.4.96 3.47.3 1.08.57 2.02.8 2.57l-.07-.08.95 2.76-.2-.46c1.5 3.9 3.28 7.84 5.04 11.2l-.02-.35c1.9 3.6 3.4 5.92 4.98 8.08.78 1.08 1.55 2.15 2.45 3.26l1.4 1.78 1.64 1.97-.1-.05c3.23 3.32 5.8 5.9 8.6 8.32 2.8 2.4 5.75 4.73 9.92 7.06-1.03-.6.4.33.3.3 3.77 2.27 8.1 4.15 8.26 3.92l2.3 1.07c.27.14.2.17.38.3.04-.13 2.6.9 5 1.64l-1.1-.32c2.25.78 4.54 1.42 6.85 2-.44-.17-.87-.37-1.3-.58 3.64.98.86.5 4.4 1.3v-.2l3.5.7c1.08.22 2.1.36 3.12.55 1 .2 2.03.32 3.1.45s2.22.3 3.5.33c10.56.43 21.6-1.48 31.58-5.5 10.02-3.97 18.93-9.95 26.1-16.64l.73-.5c.46-.08 3.56-4.1 4.14-4.58l1.42-1.8c.43-.48 1.3-1.52.63-.6 1.3-1.67 1.35-1.7 2.17-2.98l1.42-1.77c4.78-6.86 7.73-13.42 10.4-21.76.44-1.3.87-2.8 1.28-4.4l3.5.6c0 .02-.01.05-.01.07-.06.17-.07.64-.05.64-.3 1.65-.5 3.32-.64 4.98 0 0-.14 1.52-.17 3.5-.02 1-.01 2.1.05 3.2l.1 1.62.07.77c.02.17.03.34.05.5.08.16.17.36.24.48.23.4.5.73.8 1-.1.01-.24.02-.66.34l.05-.1c-.06.1-.1.2-.15.3-.35.35-.46.43-.6.5-.13.08-.27.18-.53.67.26-.35.24-.06-.08.34l.02-.15c-.16.24-.17.35-.28.5.06-.17-.06-.14-.24.26.01-.1.02-.2.05-.3-.1.27-.17.53-.2.8-.3.57-.34 1.58-.4 1.83-.05-.01.02 1.37.27 1.63-.14-.25.04.5-.1.3.17.33.7 1.23.9 1.6l-.06-.06c.9 1.32 2.04 1.77 3.34 2.18-.04-.08.67.08.5-.06 1.34.02 2.32.4 2.8.1.58.03.68.13.98.17h-.14c1.08.05 1.4.07 2.2.14.4 0 .48-.16 1.2-.06-.24.05.06.06.33.08-.17 0-.23.02.12.1.05-.02.13-.02.2-.03 0 .01.02.01.01.02.45.01.37-.01.17-.04.01-.01-.01-.02-.07-.04.46.12 1.3.1 1.35.2 1.35.08 2.32.04 3.45.08.12.07-.14.1-.47.1l.8.04c-.01.08-.46.01-.7.01.94.2 1.97.02 3.07.22l.24-.05.07.02c0-.03.25-.06.42-.06.15.08-.02.16.53.2.43.1 1.24.06 1.8.06-.3-.03-.2-.07-.07-.08.28.02.43.1.64.1v.1c-.1-.1.73-.04.83-.07.15.08-.43.03-.5.08l1.66.1c.6-.03-.1-.1.2-.16.52.02 1.03-.01 1.63.1l-.18-.1c.98.01 1.57.06 2.22.2 7.33-.13 1.6-.82 1.6-.82-2.9-.38-4.4-.25-7.82-.44-3-.27-3.78-.5-6.9-.66l-4.52-.3c-.7.07-1.9-.14-2.73-.1l-.3-.1c-.28.02-.6.01-.9-.05l.02-.02c-.42.02-.9-.05-1.1-.03l.02-.02-.5-.03.1-.02c-.74-.01-1.52-.02-2.04-.18l.03.1c-.6-.2-1-.35-1.35-.56-.35-.2-.7-.44-1.02-.9h.03c-.54-.48-.77-1.05-.88-1.6-.1-.56-.14-1.13-.16-1.88 0 .2.05-.07.07-.05.05-.68.38-1.34.23-1.43.26-.45.25-.33.34-.36-.06-.03.16-.42.43-.72l-.1.16c.24-.3.53-.55.84-.77-.1 0-.18.01-.27.02.54-.32.22.04.7-.28l-.06-.1c.28-.13.52-.2.76-.23.01 0 .02.01.02.01.62.18.9.07.77-.06l.58.03c.4.01.88.05 1.34.08l1.42.1 2.84.15c1.9.1 3.74.22 5.46.45l.15.1c.06.13.96-.12 1.1.01l.4-.03c.1.03.35.07.14.1.37.03.38.01.65-.01l.4.1c1.46.17 2.7.1 4.24.26 1.83.3 5.32.4 7.33.48.7.01 1.44.06 2.2.13.78.07 1.44.15 2.07.46 1.25.6 2.1 1.7 2.54 2.9 0 .08.1.28.1.28.14.77.13 1.6-.13 2.32 0 0-.2.7-.77 1.44-.57.75-1.6 1.4-2.46 1.64s-1.54.24-1.4.4c.08.06.36.2.96.23s1.55-.04 2.7-.72l-.04.07c1.3-.9 1.83-1.9 2-2.98.1-.06.2-.38.22-.73.05-.35.01-.72.04-.9l.02.03c-.07-.43-.13-.9-.23-1.34.42.12.85.23 1.27.34l-.37-.24c1.07.32.23.24 1.28.47l.01-.12c1.52.26 2.4.6 3.9.73 3.12.14 6.37-.45 9.3-1.64l.5.03-.17.04c1.37.01 2.78.1 4.02.25l-.1-.15c1.32.18 2.23.22 3.1.25l1.34.07c.26.01.4.05.85.06.4 0 .8-.08 1.22-.26l-.03.05c.5-.3.9-.7 1.16-1.16.13-.24.23-.5.3-.74s.06-.55.06-.7l.1-1.86c.06-1.24.1-2.52-.3-4.1.1.4.05-.18.1-.16-.08-.53-.2-1.05-.33-1.53.92-1.6 1.56-3.2 2.2-5.12.48-1.48 1.06-3.7 1.04-6l.03-.86.01-.87c-.04-.57-.07-1.12-.13-1.66l-.27-1.53c-.07-.5-.17-.94-.3-1.34-.6-2.3-1.52-4.7-2.8-6.96-.2-.34-.42-.67-.64-1 1.1-1.02 2.23-2.16 3.74-3.35.2-.3.68-.72 1.07-1.08.27.1.53.17.8.27.1.1-.17.05-.48-.05l.75.27c-.04.07-.44-.13-.68-.2.84.47 1.87.6 2.86 1.12l.24.03.06.03c.01-.03.26.02.42.07.12.12-.07.15.44.35.38.22 1.16.42 1.7.6-.28-.12-.18-.12-.04-.1.26.1.38.22.6.27l-.01.1c-.07-.12.7.18.8.18.12.12-.42-.1-.5-.08l1.55.6c.57.15-.07-.12.23-.1.5.17 1 .3 1.52.57l-.15-.15c.93.3 1.47.52 2.06.85 7.03 2.05 1.77-.3 1.77-.3-2.6-1.26-4.07-1.58-7.27-2.77-2.78-1.15-3.46-1.6-6.38-2.68-1.38-.56-2.86-1.1-4.22-1.62-.7-.14-1.77-.7-2.57-.9l-.27-.18c-.27-.07-.6-.17-.84-.3l.02-.01c-.4-.1-.84-.3-1.04-.36h.02l-.48-.18h.1c-.7-.22-1.44-.47-1.9-.77v.1c-.5-.36-.84-.63-1.12-.93-.27-.3-.53-.63-.7-1.17l.03.01c-.38-.62-.43-1.23-.4-1.8.05-.57.18-1.1.4-1.83-.05.18.07-.05.1-.03.25-.63.76-1.15.64-1.3.38-.35.34-.24.43-.24-.05-.05.28-.36.63-.56l-.14.12c.32-.2.67-.36 1.03-.5-.1-.03-.17-.04-.26-.06.07-.02.12-.03.17-.03l5.93 2.12c5.2 2.14 6.5 2.94 11.96 4.98l7.9 3.05c1.28.28 3.32 1.3 4.8 1.7l.3.2c.58.83.9 1.83.94 2.8-.02.08.02.3.03.3-.08.77-.35 1.55-.8 2.18 0 0-.38.6-1.15 1.15-.76.55-1.92.85-2.83.82s-1.54-.23-1.45-.03c.05.08.3.3.85.5.56.2 1.48.43 2.8.13l-.06.05c1.52-.47 2.32-1.3 2.8-2.26.27-.05.6-1.14.73-1.5v.04c.13-.95.37-2 0-2.9.02.03.07.04.13.25-.06-.3-.17-.6-.3-.86.02.01.05.02.07.03l-.04.02c.76.2 1.57.58 1.95.68l-.04.02.9.34h-.17c1.3.42 2.63.93 3.77 1.43l-.04-.17c1.2.57 2.07.87 2.9 1.16l1.26.47c.25.1.37.17.8.3.37.1.8.16 1.24.12l-.04.04c.57-.13 1.06-.4 1.45-.76.2-.2.36-.4.5-.63.13-.22.22-.5.27-.64l.65-1.75c.43-1.16.84-2.37.94-4-.02.4.1-.16.13-.12.23-1.5.2-3.16-.1-3.18v-.63c-.02-.18-.03-.28-.02-.36 0-.14.06-.14.1-.24-.06.02-.2-.23-.36-.57-.18-.32-.4-.73-.64-1.1l.24.32c-.42-.72-.9-1.36-1.38-2l.08.52c-.7-1.06.04-.43-.73-1.37l-.15.13c-1.04-1.4-1.48-2.36-2.48-3.72-4.57-5.3-10.2-10.22-14.55-15l-.1-.3s-.01-.01-.01-.02l26.65-38.64 15.93-22.92 15.77-22.26.25.67.9 2.3 1.82 4.62 3.64 9.16 7.23 17.8c.17.47.52 1.3.82 2l.4.92c.1.23.17.37.17.37l1.8 4.5c-5 2.5-10.23 5.74-16.3 10.86-6.54 5.56-10.07 9.76-13.4 14.16-.8 1.1-1.64 2.23-2.4 3.45l-1.2 1.85-1.17 2.02c-.84 1.37-1.57 2.92-2.43 4.57-.77 1.7-1.65 3.53-2.4 5.62-1.55 3.96-2.87 8.17-3.74 12.46-.88 4.3-1.4 8.6-1.6 12.76.03 1 .02 2.16.01 3.44 0 1.28.07 2.66.1 4.07.06 1.4.2 2.83.3 4.2.15 1.36.36 2.65.54 3.8.02.6.12 1.2.18 1.8l.5 2.5c.2.85.4 1.7.54 2.5l-.06-.1c.3 1.17.64 2.4.96 3.47.3 1.08.57 2.02.8 2.57l-.07-.08.95 2.76-.2-.46c1.5 3.9 3.28 7.84 5.04 11.2l-.02-.35c1.9 3.6 3.4 5.92 4.98 8.08.78 1.08 1.55 2.15 2.45 3.26l1.4 1.78 1.64 1.97-.1-.05c3.23 3.32 5.8 5.9 8.6 8.32 2.8 2.4 5.75 4.73 9.92 7.06-1.03-.6.4.33.3.3 3.77 2.27 8.1 4.15 8.26 3.92l2.3 1.07c.27.14.2.17.38.3.04-.13 2.6.9 5 1.64l-1.1-.32c2.25.78 4.54 1.42 6.85 2-.44-.17-.87-.37-1.3-.58 3.64.98.86.5 4.4 1.3v-.2l3.5.7c1.08.22 2.1.36 3.12.55 1 .2 2.03.32 3.1.45s2.22.3 3.5.33c10.56.43 21.6-1.48 31.58-5.5 10.02-3.97 18.93-9.95 26.1-16.64l.73-.5c.46-.08 3.56-4.1 4.14-4.58l1.42-1.8c.43-.48 1.3-1.52.63-.6 1.3-1.67 1.35-1.7 2.17-2.98l1.42-1.77c4.78-6.86 7.73-13.42 10.4-21.76 1.68-5 3.3-12.5 3.48-20.23.2-3.87-.07-7.75-.43-11.37zM306 269.44c.36-.07.48-.08.03.07l-.04.01c0-.03.01-.06.01-.08zm-1.18 6.8l.3-.86c.18-.2.4-2.17.6-3.87l2.73-.64 10.94-2.53 5.37-1.2 2.16-.47 1-.2-2.13 2.9-.5.48c-.35.12-2.2 3.7-2.7 4.1l-.96 1.55c-.32.4-.97 1.26-.5.5-.97 1.37-.96 1.43-1.6 2.46l-1.14 1.4c-3.88 5.38-6.9 10.14-10.92 15.83-3.1 4.16-7.68 10.77-11.92 17 3.66-12.44 6.85-24.87 9.28-36.4zm-46.98-10.48a11.605 11.605 0 0 1 1.12.3c.17.06.36.1.5.17l.13.05c.01 0 .03.02.04.03 0 .04.06.05.1.24l.08.22.05.3c.08.37.1.82.12 1.2l-.04-.1.03.4-1.17.27.9-.25-12.7 2.93c-.5-2.4-1.18-5.26-1.97-8.33 3.67.6 7.9 1.4 11.05 2l1.75.57zm-86.16 5.36l-7.83 2.06c-1.15.48-3.32.77-4.7 1.2l-.57-.02c-.47.14-1.03.26-1.52.27l.03-.04c-.66.17-1.44.1-1.78.14l.03-.03-.83-.06.15-.04c-1.2-.04-2.44-.37-3.42-.84l.03.17c-1.06-.53-1.72-.96-2.36-1.38-.32-.2-.6-.47-.9-.74-.25-.32-.6-.62-.82-1.1h.04c-.9-.94-1.25-2-1.36-3.02-.1-.5-.06-1.04-.1-1.6-.02-.6-.03-1.3-.13-2.03.05.38.07-.16.1-.13l-.08-1.95c-.04-.54-.08-.86-.23-.9.05-.95.14-.76.27-.87-.1 0-.08-.84.15-1.53l-.06.33.3-1c.13-.32.3-.63.43-.94l-.4.26c.56-.98.37-.12.9-1.04l-.17-.1c.98-1.22 1.9-1.57 3.23-2.18 1.34-.7 2.87-1.2 4.45-1.5.8-.13 1.6-.23 2.4-.26l2.54-.06c2.44-.05 4.84-.08 7.16-.03.95.1 1.93.16 2.92.23h.03c.04.07.25.05.5.01l3.15.2c1.08.06 2.1.28 3.1.4l2.9.44 5.15.78 8.83 1.35 15.7 2.3c.33 1.16.37 2.38.15 3.56 0 0 0 .08-.04.22s-.1.35-.16.6c-.17.5-.4 1.2-.87 1.92-.86 1.46-2.57 2.82-4.1 3.38-1.53.58-2.74.62-2.45.9.1.06.32.14.7.2-.22.02-.45.03-.68.03h-3.04c7.9-.9-.48-1.24-.48-1.24-2.58-.15-4.54-.13-6.62-.05l-3.3.14-1.9.07-1.12.03c-.32 0-.6.16-.75.18-.2.01-.38.07-.56.13-5.2 1.42-6.66 1.56-12.02 3.12zm17-1.76c-.1-.04-.36-.1-.08-.17.04.06.06.12.08.17zm-4.54 13.88c-1.13-2.2-1.76-5.04-2.93-7.28-.01-.08-.13-.26-.15-.26l-.87-2.14-1.05-2.44c.1-.08.4-.22.62-.3.3.04.05.27 1-.01.8-.1 2.13-.67 3.1-1-.54.14-.38.02-.17-.08.48-.14.78-.1 1.14-.27l.1.14c-.06-.02.01-.07.06-.1.03-.02.08-.05.12-.06.03-.01.1-.02.2-.02.37-.03.8-.05.88-.08.28.12-.77.1-.9.2h3c.26-.03.37-.05.42-.07l.94 2.16c.36.55.66 1.58 1.03 2.2l.04.28c.13.2.26.47.32.7H191c.2.32.32.7.42.87l-.03-.01.18.4-.06-.06c.3.57.56 1.18.76 1.72l.06-.08c.4 1.18.73 1.53 1.06 2.6h-.03c.72 1.16.73 2.05 1.38 3.2l-4.08.92c-.17.02-.35.07-.37.08s-.05.02-.08.02h-.04c-.07 0-.23.02-.3.04l-.15.05c-.03.03-.05.01-.05.02-.13.04-.24.08-.35.13-.14-.05-.24.04-.35.07-.04-.01-.02.07-.07.08-.07-.01-.13.03-.2.1l-.1.1c-.02.02-.03.03-.05.04l-.07.04c-.01.01-.03.02-.04.03-.1.04-.2.1-.28.18-.07.06-.12.13-.16.2l-.42.4-.27.26c-.04.05-.1.1-.2.2-.04.06-.1.15-.18.3l-.82.98c-.6-1.48-1.44-3.24-2-4.4zm4.78 3.78v.08h-.03l.03-.08zm-10.7 121.3l-.12.1c-1.52 4.24-3.63 7.65-5.05 10.27-1.23 1.96-1.67 2.6-2.2 3.22-.25.3-.5.63-.86 1.12-.35.5-.8 1.16-1.54 2.12l-1.24 1.4c-1.37 1.53-.85 1.22-2.43 2.87.05-.14-2.03 2.05-1.15 1.04-3.65 3.63-7.6 7.27-13.5 10.7-.6.42-1.66 1.05-2.68 1.64l-2.52 1.36-2.76 1.22c-1.12.47-1.78.72-.03-.08.3-.15.83-.38.8-.35l.4-.26c-3.58 1.47-6.48 2.77-10.2 3.75 1.1-.3 2.55-.7 1.6-.38-1.15.3-2.28.68-3.45.9l.7-.23-2.6.58c-.87.18-1.74.3-2.6.47l.73-.05-1.67.26-1.4.14c-.92.08-1.86.24-3.32.38-1.32.16 2.46-.08-.27.15-3.47.26-8.7.17-13.1-.4.4.14-.78-.02-2-.15l-.13-.1c-4.64-.73-1.7-.38-6.24-1.33-.28-.03-.56-.05-.83-.1-4.1-1.02-2.15-.72-6.63-2.08 1.74.64.75.48-1.36-.4l.56.15c-1.18-.45-1.6-.56-2.35-.93.7.27.4.07-1.3-.7l1.17.43c-1.08-.44-2.17-.86-3.22-1.38-2.42-1.22-6.1-3.45-6.96-4.15 0 0-.3-.2-.76-.53l-1.7-1.2-3.26-2.46c.93.7-1.48-1.4-.74-.87-1.24-.86-4.46-3.95-5.6-5.33l.24.24c-2.2-2.46-4-4.62-5.6-6.84-1.63-2.2-3.02-4.46-4.4-7.07.05.28-1.34-2.52-1.08-1.8-2.87-5.45-3.94-10.44-4.85-12.47-.38-1.34-.5-2.17-.64-2.8-.13-.65-.2-1.13-.32-1.84l.13.65-.6-3.27-.32-2.48c-.1-.75-.15-1.47-.2-2.24-.04-.77-.15-1.6-.16-2.56-.07-1.93-.3-2.24-.15-5.72.05 1.13.02-.3.14-1.6-.05.83-.05 1.1.12-.6 0-.24.01-.6.03-.96.01-.01.02-.08.02-.05.18-2.16.16-1.8.01-.8 0-.04-.02 0-.04.15l.52-3.8c.24-1.3.43-2.36.5-2.48.65-3.2 1.33-5.92 2.17-8.44.8-2.55 1.75-4.9 2.87-7.37.3-.53-.18.65-.8 2.1.53-1.17 1.02-2.36 1.63-3.5.03.03-.2.53-.53 1.15l-.87 1.95c1.98-4.13 4.15-8.52 7.44-12.8.2-.32.42-.6.63-.92l.2-.25h0c.06-.04.24-.26.68-.8l-.67.8c.03-.06.17-.27.37-.55l.78-1.05c.55-.54.1.14 1.83-1.87.7-.78 1.76-1.85 2.83-3 1.13-1.1 2.3-2.3 3.34-3.18-1.13.97-.8.62-.33.18 1-.88 1.62-1.33 2.43-1.98h.12c.05-.08.6-.54 1.24-1.06.78-.62 1.7-1.26 1.9-1.43.66-.38-1.66 1.23-1.88 1.5l3.26-2.33c.57-.34 1.1-.77 3.4-2.12 2.44-1.48-.5.18.65-.57 2.17-1.28 4.37-2.4 7.05-3.52l-.87.3c4.34-1.94 7.1-2.73 10.2-3.5 2.86-.8 5.33-1.27 7.44-1.6 3.06-.42 6.17-.66 9.35-.66.65 0 1.3.02 1.93.04l2.73.25 2.36.27 2.88.45c1.05.18 2.18.44 3.42.7 1.22.3 2.55.62 3.96 1.03l-.3-.06c6.7 1.92 10.7 3.76 15.03 5.88.3.27 1.53.98 2.86 1.75l2.62 1.67c-.07.1-.15.18-.22.28l-3.62 4.47-.01-.01.75-.96-.77.94c-.47-.3-1.06-.73-2.9-1.8-2.28-1.23.36.3-.75-.23-1.98-1.13-4-2.03-6.38-3.14l.72.4c-3.95-1.63-6.4-2.35-9.15-3.2-3.88-.9-6.96-1.2-9.3-1.4l-3-.1-2.03.04c-2.1.1-1.96.22-.8.3 1.14.1 3.26.17 5.08.4.9.07 1.75.2 2.36.3l1 .14c3.04.5 5.7 1.08 8.15 1.82 2.46.7 4.73 1.53 7.03 2.47 2.94 1.27 5.98 2.77 9.28 4.92l-6.98 8.58 1.85-1.9c-4.56 5.46-1.37 1.22-5.64 6.52l.2.06c-6.27 7.6-10.16 11.86-16.3 19.14l-1.58 1.93c.24-1.76.17-3.04.4-4.63-.1.07.03-.78-.1-.58.05-1.68.5-3.02.22-3.65.05-.76.16-.9.22-1.28v.18c.1-1.42.14-1.84.25-2.9.02-.53-.13-.63-.01-1.57.03.3.06-.08.1-.43-.01.23.01.3.1-.16-.01-.07-.02-.17-.02-.26.01 0 .01-.02.02-.01.03-.6 0-.5-.03-.22-.01-.01-.02.01-.05.1.14-.6.15-1.7.27-1.77.14-1.78.15-3.05.24-4.53.07-.16.1.2.07.62l.08-1.05c.08.02-.01.6-.02.93.25-1.23.1-2.58.36-4.03l-.04-.3.02-.1c-.03 0-.05-.33-.04-.55.1-.2.16.03.22-.7.12-.57.12-1.63.15-2.38-.05.4-.08.27-.08.1.03-.36.12-.56.12-.85l.1-.03c-.1.13-.01-.95-.03-1.1.1-.2.01.57.05.66l.2-2.18c0-.78-.1.13-.15-.25.05-.68.04-1.36.17-2.14l-.1.24c.05-1.3.14-2.06.3-2.9.2-9.63-.74-2.1-.74-2.1-.53 3.75-.47 5.7-.82 10.2-.4 3.94-.67 4.97-.98 9.06l-.5 5.93c.04.92-.23 2.5-.22 3.58l-.1.4c0 .37-.01.8-.1 1.17l-.02-.03c0 .56-.1 1.17-.1 1.45h-.02l-.05.67-.02-.12c-.03.97-.12 1.95-.23 2.82l.1-.06c-.27 1.85-.15 2.55-.43 4.22l-.02-.02c.01.9-.07 1.63-.17 2.34l-2.78 3.4c-.06 0-.13-.01-.2-.01-.1 0-.2.01-.32.02-.37-.18-1.07-.36-2.23-.38l-.1-1.3.07-.2c.12-.1-.3-1.23-.2-1.4l-.1-.52c.01-.15 0-.46.06-.2-.04-.5-.07-.5-.14-.84l.03-.53c-.13-1.92-.44-3.54-.6-5.56-.08-2.44-.68-6.98-1.02-9.6-.56-3.67-.47-8.02-1.06-11.78.01-.12-.07-.44-.08-.44l-.32-3.46s-1.6-16.8-1.4-3.93l-.04-.08c.08 1.9.2 3.1.46 4.4-.15.22.14 1.56.12 2v-.04c.25 1.14.12 2.4.35 3.5-.02-.04-.07-.06-.1-.32.1.8.25 1.92.16 2 .22 1.94.44 4.65.72 5.87l-.04-.08c.18.7.1.9.24 1.7-.01.04-.01.1-.02.1.18.76.24 2.25.35 2.87l-.06.05.17 1.53-.04-.58c.2.18 0 1.17.23 2.27.08 1.04.6 2.08.6 3.17.14.5-.18-.44-.04.32-.1.03-.1-.35-.15-.15.12.75.03 1.25.18 2.18l-.07.05c.26 1.2.13 2.3.34 3.1.2 1.25-.14.86.14 2.16l-.05.52c.04.56.16.4.18 1-.07-.03.03.8-.07.43.02.63.1 1.28.2 1.95-.57.17-1 .4-1.4.73-.2-.26-.4-.48-.44-.6 0 0-.98-1.26-1.3-1.46.26.2-.28-.5-.06-.35-.32-.27-1.15-1.16-1.4-1.6l.07.06c-1.1-1.44-2.06-2.3-3.02-3.6-.02.1-.53-.58-.48-.34-1.16-1.22-1.78-2.5-2.43-2.74-.5-.57-.52-.75-.75-1.06l.13.13-1.88-2.22c-.36-.4-.54-.35-1.12-1.1.24.2-.01-.1-.24-.37.15.17.22.2-.05-.18-.06-.04-.13-.1-.2-.17 0-.01-.01-.02 0-.02-.4-.44-.35-.35-.18-.13-.02 0-.01.02.03.1-.33-.52-1.1-1.3-1.07-1.44-1.16-1.35-2.06-2.26-3.04-3.37-.06-.16.2.07.5.4l-.7-.8c.07-.04.42.43.64.67-.7-1.05-1.75-1.9-2.6-3.1l-.24-.2-.05-.07c-.02.02-.27-.2-.42-.36-.08-.2.13-.1-.34-.65-.32-.48-1.07-1.23-1.58-1.8.25.32.14.24.01.13-.23-.28-.3-.48-.52-.68l.05-.1c.02.17-.68-.67-.8-.75-.08-.2.4.4.5.43l-1.4-1.67c-.55-.55.02.17-.28-.07-.45-.52-.93-1-1.4-1.63l.1.25c-.88-.95-1.36-1.55-1.85-2.27-6.67-6.94-2-.96-2-.96 2.27 3 3.7 4.34 6.64 7.75 2.5 3.07 3.05 3.98 5.72 7.1l3.85 4.55-.06-.05.07.06c.68.62 1.6 1.92 2.37 2.68l.2.37c.26.26.56.58.77.9h-.03c.4.4.77.9.97 1.08h-.03l.44.5-.1-.07c.66.7 1.3 1.46 1.84 2.15l.02-.1c1.12 1.5 1.7 1.9 2.7 3.28h-.03c1.47 1.42 2 2.58 3.42 4.04-.08.06-.16.1-.22.12l.01-.03c-.44.58-1.28.76-1.64 1.4 0-.03-.05-.1.06-.22-.33.4-.73.94-.88.87-.42.52-.85 1.2-1.17 1.84l-1-.86-.1-.2c.01-.15-1.1-.65-1.14-.85l-.44-.3c-.1-.1-.32-.33-.1-.2-.37-.32-.4-.3-.7-.5l-.35-.4c-1.44-1.28-2.8-2.2-4.34-3.52-1.77-1.68-5.4-4.5-7.48-6.1-2.98-2.22-5.98-5.37-9.04-7.62-.08-.1-.36-.27-.36-.25l-2.67-2.23c-.05.02-13-10.78-3.82-1.8l-.08-.03c1.42 1.27 2.34 2.04 3.44 2.77.05.27 1.2 1 1.5 1.34l-.04-.02c.98.64 1.77 1.6 2.7 2.23-.04-.02-.1 0-.3-.16.64.5 1.53 1.2 1.5 1.3 1.52 1.22 3.58 3 4.64 3.66l-.08-.03c.62.37.72.57 1.37 1.04.02.04.06.08.05.08.66.4 1.75 1.43 2.26 1.8l-.01.08 1.2.97-.43-.38c.27-.01.83.83 1.76 1.45.8.7 1.88 1.06 2.66 1.82.45.26-.44-.18.2.26-.04.1-.32-.18-.2 0 .62.45.9.87 1.66 1.42l-.02.08c1.03.68 1.72 1.55 2.43 1.97 1 .76.5.7 1.62 1.44l.33.4c.42.37.4.16.84.6-.07.02.57.54.26.36.55.52 1.17 1 1.83 1.5-.02.1-.03.18-.03.27l-.03-.07c.03.42-.14.53-.2.9-.5-.04-1-.08-1.17-.15 0 0-1.58-.2-1.96-.12.32-.04-.55-.15-.3-.2-.42.04-1.64-.01-2.12-.13h.1c-1.8-.25-3.08-.16-4.7-.4.07.1-.78-.03-.58.1-1.68-.04-3.02-.5-3.65-.22-.76-.05-.9-.16-1.28-.22h.18l-2.9-.24c-.53-.01-.63.14-1.57.01.3-.04-.08-.06-.43-.1.23.01.3-.01-.16-.1-.07.01-.17.02-.26.02 0-.01-.02-.01-.01-.02-.6-.03-.5 0-.22.03-.01.01.01.02.1.05-.6-.14-1.7-.15-1.77-.27-1.78-.14-3.05-.14-4.53-.23-.16-.07.2-.1.62-.07l-1.05-.08c.02-.08.6.01.93.02-1.23-.24-2.58-.1-4.03-.36l-.3.04-.1-.02c0 .03-.33.05-.55.04-.2-.1.03-.16-.7-.22-.57-.12-1.63-.1-2.38-.15.4.05.27.08.1.08-.36-.03-.56-.12-.85-.1l-.03-.1c.13.1-.95.01-1.1.04-.2-.1.57-.01.66-.05l-2.18-.2c-.78 0 .13.1-.25.15-.7-.04-1.36-.04-2.14-.17l.24.1c-1.3-.05-2.06-.13-2.92-.3-9.63-.2-2.1.75-2.1.75 3.76.53 5.73.46 10.22.8 3.94.4 4.97.66 9.06.97l5.94.5c.92-.04 2.5.23 3.58.22l.4.1c.37 0 .8.01 1.17.08l-.03.02c.56 0 1.17.08 1.45.08l-.02.02.67.05-.12.02c.97.03 1.96.12 2.82.22l-.06-.1c1.86.27 2.55.15 4.23.42h-.02c2.15-.03 3.35.46 5.56.45-.28 0 .1.06.1.07.06 0 .12.01.2.01-.05.27-.1.52-.1.68l-.1.01c-.02.3-.02.63-.03.94l.04-.35c.3.13-.24.7.01 1.38-.02.32.2.62.4.9.18.3.37.57.38.9.2.26-.3-.2-.07.2-.15.06-.15-.18-.24-.04.1.26.1.5.16.75l-2.23.16-.2-.07c-.1-.12-1.23.3-1.4.2l-.52.1c-.15-.01-.46 0-.2-.06-.5.04-.5.06-.84.13l-.53-.03c-1.92.12-3.54.42-5.56.58-2.44.07-7 .64-9.6.98-3.68.54-8.02.43-11.78 1-.12-.01-.44.06-.44.08l-3.46.3s-16.8 1.53-3.94 1.4l-.08.04c1.9-.1 3.1-.2 4.4-.47.23.16 1.56-.12 2-.1l-.04.02c1.14-.24 2.4-.1 3.5-.34-.04.02-.06.07-.32.1.8-.1 1.92-.24 2-.15 1.94-.2 4.65-.42 5.87-.7l-.08.04c.7-.17.9-.1 1.7-.23.04.01.1.01.1.02.76-.18 2.25-.23 2.87-.33l.05.06 1.53-.16-.58.04c.18-.2 1.17.01 2.27-.22 1.04-.07 2.08-.58 3.17-.6.5-.13-.44.18.32.04.03.1-.35.1-.15.15.75-.12 1.25-.02 2.18-.17l.05.07c1.2-.25 2.3-.12 3.1-.32 1.25-.18.86.14 2.16-.13l.52.05c.56-.04.4-.16 1.02-.17-.03.07.8-.02.43.07.98-.02 2-.2 3.14-.3.1.24.18.48.27.7-.54.42-1.1.96-1.35 1.06 0 0-1.26.98-1.46 1.3.2-.26-.5.28-.35.06-.27.32-1.16 1.15-1.6 1.4l.06-.07c-1.44 1.1-2.3 2.06-3.6 3.02.1.02-.58.53-.34.48-1.22 1.16-2.5 1.78-2.74 2.43-.57.5-.75.52-1.06.75l.13-.13-2.22 1.88c-.4.36-.35.54-1.1 1.12.2-.24-.1.01-.37.24.17-.15.2-.22-.18.05-.04.06-.1.13-.17.2-.01 0-.02.01-.02 0-.44.4-.35.35-.13.18 0 .02.02.01.1-.03-.52.33-1.3 1.1-1.44 1.07-1.35 1.16-2.26 2.06-3.37 3.04-.16.06.07-.2.4-.5l-.8.7c-.04-.07.43-.42.67-.64-1.05.7-1.9 1.75-3.1 2.6l-.2.24-.07.05c.03.02-.2.27-.36.42-.2.08-.1-.13-.65.34-.48.32-1.23 1.07-1.8 1.58.32-.25.24-.14.13-.01-.28.23-.48.3-.68.52l-.1-.05c.17-.02-.67.68-.75.8-.2.08.4-.4.43-.5L76.1 414c-.55.55.17-.02-.07.28-.52.45-1 .93-1.63 1.4l.25-.1c-.95.88-1.55 1.36-2.27 1.85-6.94 6.67-.96 2-.96 2 3.02-2.28 4.37-3.72 7.8-6.65 3.07-2.5 3.98-3.05 7.1-5.72l4.52-3.84-.05.06.06-.07c.62-.68 1.92-1.6 2.68-2.37l.37-.2c.26-.26.58-.56.9-.77v.03c.4-.4.9-.77 1.08-.97v.03l.5-.44-.07.1c.7-.66 1.46-1.3 2.15-1.84l-.1-.02c1.5-1.12 1.9-1.7 3.28-2.7v.03c1.5-1.54 2.7-2.04 4.25-3.62-.2.2.12-.04.12-.01l.43-.38c.02.15.06.28.4.53l.06.36c.2.28.32.05.52.4-.1.05.27.42.04.32.52.75 1.44 1.04 2.28 1.86.2-.02.42.1.64.2l-1.55 1.78-.2.1c-.15-.01-.65 1.1-.85 1.14l-.3.44c-.1.1-.33.32-.2.1-.32.37-.3.4-.5.7l-.4.35c-1.28 1.44-2.2 2.8-3.52 4.34-1.68 1.77-4.5 5.4-6.1 7.48-2.22 2.98-5.37 5.98-7.62 9.04-.1.08-.27.36-.25.36l-2.23 2.67s-10.8 12.95-1.8 3.77l-.03.08c1.27-1.42 2.04-2.34 2.77-3.44.27-.05 1-1.2 1.34-1.5l-.02.04c.64-.98 1.6-1.77 2.23-2.7-.02.04 0 .1-.16.3.5-.64 1.18-1.53 1.3-1.5 1.22-1.52 3-3.58 3.66-4.64l-.03.08c.37-.62.57-.72 1.04-1.37.04-.02.08-.06.08-.05.4-.66 1.43-1.75 1.8-2.26l.08.01.97-1.2-.38.43c-.01-.27.83-.83 1.45-1.76.7-.8 1.06-1.88 1.82-2.66.26-.45-.18.44.26-.2.1.04-.18.32 0 .2.45-.62.87-.9 1.42-1.66h.08c.68-1.03 1.55-1.72 1.97-2.43.76-1 .7-.5 1.44-1.62l.4-.33c.37-.42.16-.4.6-.84.02.07.54-.57.36-.26.64-.67 1.2-1.45 1.86-2.27.18.08.36.13.55.16.08.02.16.03.24.04-.07.67-.1 1.43-.2 1.66 0 0-.2 1.58-.12 1.96-.04-.32-.15.55-.2.3.04.42-.01 1.64-.13 2.12v-.1c-.25 1.8-.16 3.08-.4 4.7.1-.07-.03.78.1.58-.04 1.68-.5 3.02-.22 3.65-.05.76-.16.9-.22 1.28v-.18l-.24 2.9c-.01.53.14.63.01 1.57-.04-.3-.06.08-.1.43.01-.23-.01-.3-.1.16.01.07.02.17.02.26-.01 0-.01.02-.02.01-.03.6 0 .5.03.22.01.01.02-.01.05-.1-.14.6-.15 1.7-.27 1.77-.14 1.78-.14 3.05-.23 4.53-.07.16-.1-.2-.07-.62l-.08 1.05c-.08-.02.01-.6.02-.93-.24 1.23-.1 2.58-.36 4.03l.04.3-.02.1c.03 0 .05.33.04.55-.1.2-.16-.03-.22.7-.12.57-.1 1.63-.15 2.38.05-.4.08-.27.08-.1-.03.36-.12.56-.1.85l-.1.03c.1-.13.01.95.04 1.1-.1.2-.01-.57-.05-.66l-.2 2.18c0 .78.1-.13.15.25-.04.7-.04 1.36-.17 2.14l.1-.24c-.05 1.3-.13 2.06-.3 2.92-.2 9.63.75 2.1.75 2.1.53-3.75.46-5.72.8-10.2.4-3.94.66-4.97.97-9.06l.5-5.94c-.04-.92.23-2.5.22-3.58l.1-.4c0-.37.01-.8.08-1.17v.03c0-.56.08-1.17.08-1.45v.02l.05-.67.02.12c.03-.97.12-1.96.22-2.82l-.1.06c.27-1.86.15-2.55.42-4.23h.02c-.03-2.15.46-3.35.45-5.56 0 .28.06-.1.07-.1l.04-.62c.2.06.38.12.57.16l-.1-.14c.42.12.56.4 1.08.24.23-.1-.4-.2.06-.2.57.14 1.47.27 2.23.22-.1-.13.12-.16.32-.22l.04.12c.76-.3.35.25 1.1-.08l.06-.12.16 2.28-.07.2c-.12.1.3 1.23.2 1.4l.1.52c-.01.15 0 .46-.06.2.04.5.06.5.13.84l-.03.53c.12 1.92.42 3.54.58 5.56.07 2.44.64 7 .98 9.6.54 3.68.43 8.02 1 11.78-.01.12.06.44.08.44l.3 3.46s1.53 16.8 1.4 3.94l.04.08c-.1-1.9-.2-3.1-.47-4.4.15-.22-.13-1.56-.1-2l.02.04c-.24-1.14-.1-2.4-.34-3.5.02.04.07.06.1.32-.1-.8-.24-1.92-.15-2-.2-1.94-.42-4.65-.7-5.87l.04.08c-.17-.7-.1-.9-.23-1.7.01-.03.01-.06.01-.07v.04-.06c-.18-.76-.23-2.25-.33-2.87l.06-.05-.16-1.53.04.58c-.2-.18.01-1.17-.22-2.27-.07-1.04-.58-2.08-.6-3.17-.13-.5.18.44.04-.32.1-.03.1.35.15.15-.12-.75-.02-1.25-.17-2.18l.07-.05c-.25-1.2-.12-2.3-.32-3.1-.18-1.25.14-.86-.13-2.16l.05-.52c-.04-.56-.16-.4-.17-1.02.07.03-.02-.8.07-.43-.02-1.02-.2-2.06-.33-3.25.03-.02.05-.03.08-.06-.04.02-.05.01-.08.01-.01-.06-.01-.13-.01-.2.05-.05.13-.1.23-.1l-.05.15c.2-.1.24-.16.37-.2-.07.1-.01.15.17.08a.304.304 0 0 1 .05.07l-.06.1.08-.08c.42.54.96 1.1 1.05 1.35 0 0 .98 1.26 1.3 1.47-.26-.2.28.5.06.35.32.27 1.15 1.16 1.4 1.6l-.07-.07c1.1 1.44 2.06 2.3 3 3.6.02-.1.53.58.48.34 1.15 1.22 1.78 2.5 2.43 2.74.5.57.5.75.75 1.06l-.13-.13 1.87 2.22c.36.4.54.35 1.12 1.1-.24-.2.01.1.24.37-.15-.17-.22-.2.05.18.06.04.13.1.2.17 0 .01.01.02 0 .02.4.44.34.35.18.13.02 0 .01-.02-.03-.1.33.53 1.1 1.32 1.06 1.44 1.16 1.35 2.06 2.26 3.03 3.38.06.16-.2-.07-.5-.4l.7.8c-.07.04-.42-.44-.64-.67.7 1.05 1.75 1.9 2.6 3.1l.24.2.05.07c.02-.02.27.2.42.36.08.2-.13.1.33.65.3.5 1.07 1.23 1.58 1.8-.25-.32-.14-.24-.01-.13.23.28.3.48.52.68l-.05.1c-.02-.17.68.67.8.75.08.2-.4-.4-.5-.43l1.4 1.67c.55.55-.02-.17.28.07.45.52.93 1 1.4 1.63l-.1-.25c.87.95 1.36 1.55 1.85 2.27 6.66 6.96 2 .96 2 .96-2.27-2.97-3.7-4.3-6.63-7.74-2.5-3.07-3.04-3.98-5.7-7.1l-3.8-4.53.03.03-.06-.06c-.68-.62-1.6-1.93-2.37-2.7l-.2-.37c-.26-.26-.56-.58-.77-.9h.03c-.4-.4-.77-.9-.96-1.1h.03l-.44-.5.1.07c-.66-.7-1.3-1.47-1.84-2.16l-.02.1c-1.12-1.5-1.7-1.9-2.7-3.3h.03c-1.54-1.5-2.04-2.7-3.6-4.25.2.2-.04-.12-.01-.12l-.45-.52c.25-.16.48-.3.62-.28 0 0 .86-.52.9-.8-.08.22.36-.1.33.1.1-.28.6-.86.9-1l-.03.05c.07-.06.13-.12.2-.18l2.6.42c.28.2.98.56 1.03.72l.45.3c.1.1.33.33.1.18.37.3.4.3.7.5l.35.4c1.45 1.27 2.8 2.2 4.36 3.5 1.78 1.67 5.42 4.46 7.5 6.07 3 2.2 6 5.34 9.08 7.58.08.1.36.26.36.25l2.68 2.22c.02-.02 13.02 10.7 3.8 1.76l.08.03c-1.43-1.26-2.35-2.03-3.45-2.75-.05-.27-1.2-1-1.5-1.33l.04.02c-.98-.63-1.78-1.6-2.72-2.22.04.02.1 0 .3.16-.64-.5-1.53-1.18-1.5-1.3-1.52-1.2-3.6-2.97-4.66-3.64l.08.03c-.62-.37-.72-.57-1.37-1.03-.03-.04-.06-.08-.05-.08-.67-.4-1.76-1.42-2.27-1.78l.01-.08-1.2-.97.44.38c-.27.02-.83-.83-1.77-1.45-.8-.68-1.88-1.05-2.67-1.8-.46-.26.44.18-.2-.26.04-.1.32.18.2 0-.62-.45-.9-.87-1.67-1.4l.02-.08c-1.03-.67-1.72-1.54-2.44-1.96-1.02-.75-.5-.7-1.62-1.43l-.1-.13 17.02 2.72 27.25 4.4c-.08.32-.17.63-.25.93l-.57 1.95v-.08l-.7 2.08.1-.37c-1 3-2.35 5.96-3.73 8.47l.2-.17c-1.53 2.66-2.63 4.44-3.8 6.1-.57.83-1.14 1.65-1.82 2.5l-1.07 1.34-1.3 1.44.03-.07c-2.24 2.68-4.28 4.58-6.44 6.34-2.18 1.74-4.44 3.42-7.46 5.4.75-.5-.35.17-.3.1-2.82 1.77-6.06 3.2-6.04 3.4-2.2 1-1.84.72-2.15.8.02.03-.46.25-1.16.55-.7.32-1.65.63-2.54.94l.82-.3c-1.7.6-3.44 1.12-5.2 1.58.36-.03.7-.07 1.07-.13-2.8.66-.75.01-3.43.68l.06.1c-3.92.74-6.28.8-10.1.9-7.98.27-16.3-1.04-23.92-4-7.62-2.92-14.44-7.45-19.72-12.68l-.4-.52c-.14-.26-3-2.8-3.25-3.35l-1.2-1.28c-.28-.4-.9-1.22-.34-.56-.97-1.27-1.05-1.26-1.74-2.18l-.93-1.44c-3.48-5.24-6.03-10.03-8-16.38-1.1-3.83-2.3-9.48-2.52-15.3-.16-2.9 0-5.85.22-8.6.18-1.36.28-2.7.52-3.92l.3-1.8.36-1.66c1.25-5.96 3.85-12.13 7.37-17.72 3.54-5.6 8.03-10.57 12.73-14.64l.67-.56c.24-.2.43-.38.43-.38 2.97-2.36 6.17-4.44 9.54-6.2 0 0 .76-.4 2.04-1.03l2.3-1.05 2.93-1.16c4.24-1.58 9.72-2.86 13.98-3.35 2.13-.24 3.94-.4 5.14-.44 1.2-.08 1.76-.15 1.4-.22-.36-.04-1.66-.17-4.2-.1-2.53.06-6.33.32-11.52 1.55l.27-.1c-6.13 1.63-9.83 3.3-13.62 5.46-.34.1-1.48.74-2.68 1.46l-3.04 2 .1-.1c-3.1 2.3-6.4 4.78-8.93 7.54.07-.08.1-.16.35-.45-1.86 1.9-3.96 4.4-4.14 4.5-2.07 2.5-4.28 5.73-6.02 8.9-1.75 3.15-3.04 6.2-3.7 8.2l.08-.28c-.4 1.1-.6 1.86-.88 2.6-.27.75-.53 1.55-.85 2.84-.05.14-.1.3-.1.28-.16.62-.34 1.4-.52 2.24-.2.84-.4 1.74-.55 2.64-.36 1.78-.57 3.53-.68 4.57l-.08.13-.23 3.2c.16.67-.3 3.9.07 7.6.2 3.5 1.14 6.97 1.94 10.48.5 1.65-.5-1.43.2 1.04-.08.1-.38-1.14-.28-.48.73 2.42 1.03 4.03 2.23 6.92l-.02.15c1.62 3.74 3.14 7.03 4.65 9.3 1.17 1.75 1.48 2.4 1.88 3l.7 1.07c.3.46.75 1.05 1.47 1.88l.98 1.4c1.23 1.42.95.96 2.32 2.52-.13-.05 1.78 1.94.9 1.1 3.22 3.46 7.1 6.43 12.3 9.84.62.28 1.6.83 2.53 1.36.96.48 1.88.95 2.35 1.14.05.08 1.48.7 2.5 1.18 1 .45 1.6.7-.04.08-.28-.12-.76-.34-.72-.34l-.4-.1c3.18 1.6 6 2.4 9.36 3.34-1-.3-2.33-.68-1.42-.48 1.05.3 2.08.63 3.14.85l-.68-.1 2.36.57c.8.18 1.6.3 2.38.46l-.65-.2c1.16.24 1.95.4 2.78.52s1.7.28 3.04.3c1.2.03-2.23-.27.27-.1 3.15.33 7.93.4 11.96-.07-.4-.04.7-.17 1.8-.33l.14.06c4.22-.87 1.6-.04 5.75-1.07l-.36.14c.35-.14.7-.26 1.06-.42 3.66-1.2 2.06-.38 6.04-2-1.58.6-.8.14 1.15-.6l-.46.26 2.1-.9c-.6.32-.3.25 1.25-.46l-1 .55c.95-.48 1.92-.95 2.84-1.5 2.28-.98 5.54-3.18 6.44-3.66 0 0 .3-.17.7-.47l1.6-1.13c1.2-.9 2.46-1.92 2.9-2.35-.76.75 1.47-1.15.9-.54 1.05-.9 3.9-3.8 5.06-4.96 1.97-2.1 3.53-4.07 4.9-6.05 1.45-2.04 2.68-4.13 4.04-6.47-.2.18 1.16-2.34.74-1.76 2.42-5.03 4-9.4 4.2-11.42l.03-.14 6.2 1.02c-.01.03-.03.07-.06.14-.7 2.7-1.33 4.4-2.52 7.6zm-58.17-40.17v.04h-.01c0-.02 0-.04.01-.05zm60.66 33.17c-.08.05.1-.57.1-.75.02 0 .04.01.07.01-.05.17-.1.4-.18.74zm.27-.73h.02c-.06.3-.05.18-.02 0zm31.74 3.5c.32-.05-6.3-1.12-3.36-.74l-37.88-6.24c-3.27-.33-10.75-1.67-13.2-1.92-.4-.15-15.04-2.47-6.58-1.3.73.1 2 .3 1.9.34l1.02.04c-8.47-1.62-15.47-2.4-23.88-3.8 2.5.45 5.8.98 3.58.7l-7.8-1.3 1.64.16-11.64-1.96 1.6.4-1.98-.35-.35-.06v-.15c0-.06-.01-.1-.01-.08-.01.17-.01.03-.01.03-.01.25 0-.26-.01.08v-.15l-.01.22v-.08s0 .01-.01.02v-.08s-.01-.08-.01.1c0-.12-.03-.12-.03.06v.01h-.01c0-.05-.01-.13-.01-.02v-.16c0-.2-.01.32-.01.12v-.07c-.01-.1-.02.15-.03.1-.01-.2-.03-.1-.04.01-.01 0-.03 0-.04-.01-.01-.12-.02-.23-.03-.05 0-.03 0 .02 0 .05h-.03c-.08-.01-.16-.03-.23-.04-.25-.03-.47-.1-.7-.16-.87-.27-1.56-.73-2.08-1.32a4.166 4.166 0 0 1-.65-1.01c-.2-.4-.32-.8-.38-1.28-.13-.9.01-2.03.75-3.1.84-1.1-.12-.12-.48.52-.2.35-.3.65-.3.55.02-.04.05-.2.18-.46.06-.14.15-.3.27-.5s.27-.4.53-.7l18.66-22.36c-.7.62 1-1.43 2.7-3.55l.3-.17c6.5-8.2 2.64-2.8 9.1-10.9l1.02-1.52c5.74-7.4 3.4-3.74 9.73-12-2.6 3.2-1.44 1.32 1.8-2.56l-.72 1.07 3.5-4.36c-1 1.33-.42.8 2.17-2.4l-1.63 2.23 4.76-6.16L175.32 304l9.76-12.05c-.76 1.08 3.14-3.6 2.04-2.06l1.53-1.97-.77-.75c.04 0 .16.03.44.24l.27.22.13.12.04-.04.26-.27.54-.56.03-.03.04-.02c.1-.06.2-.14.3-.23.13-.01.3-.06.4-.1h.05c.1-.01.22-.04.33-.07h0l.27-.06c3.87-.92 8.34-1.93 10.7-2.37l-.73.18 37.26-8.38c-.62-.01 6.18-1.45 4.46-1.26 6.44-1.53 12.35-2.77 17.27-3.83-.05 1.57-.2 3.03-.26 3.82l-.02-.1c-.1 1-.22 1.98-.35 2.96l.02-.52c-.12 1.07-.27 2.14-.43 3.2-2.5.47-5.93 1.37-6.9 1.43 0 0-5.36 1.12-6.55 1.57 1.05-.35-1.9.26-1.1-.06-1.36.44-5.42 1.46-7.1 1.7l.3-.08c-6.1 1.22-10.32 2.5-15.8 3.56.28.1-2.6.65-1.86.67-5.58 1.44-10.34 1.93-12.24 2.94-2.55.6-3.06.55-4.4.82l.6-.17-5.74 1.33 2.4 5.67c.76 1.66 1.1 1.82 2.32 4.85-.5-.93.03.3.5 1.4-.32-.7-.45-.92.1.58.12.2.27.5.4.8 0 .02.02.08-.01.05.83 1.86.72 1.52.36.65.03.04.02-.04-.07-.32.7 2 2.3 5.43 2.23 5.74l6.34 14.26c.14.56-.4-.5-1-1.85l1.44 3.32c-.14.02-.88-1.9-1.34-2.9 1.47 4.05 3.65 8.1 5.43 12.83l.5.92.1.28c.05-.04.56.98.86 1.66.17.7-.27.06.7 2.36.66 1.87 2.23 5.15 3.3 7.52-.52-1.3-.3-.9-.02-.37.5 1.15.66 1.86 1.08 2.73l-.08.13c.17.1 1.42 3.02 1.63 3.4.17.7-.85-1.75-1.05-2l2.94 6.92c1.15 2.42-.05-.5.57.62.95 2.16 1.94 4.24 2.9 6.78l-.2-.84c1.82 4.05 2.84 6.5 3.87 9.3l.75 1.6c-1.97.3-3.52.87-5.1 1.53-1.16.56-2.33 1.2-3.62 2.1-1.07-2.4-2.26-4.95-3.36-8.05-.62-.93-1.5-3.32-1.95-4.02.03-.16-1.97-4.7-.68-2.15.1.22.28.62.23.6l.25.27c-.9-2.75-2.15-4.78-3.23-7.42.3.8.74 1.83.37 1.17l-1-2.45.3.47-1.48-3.66.1.55c-.7-1.8-.75-2.52-1.77-4.45-.48-.87.55 1.75-.28-.1l-3.55-9.1c-.01.34-.35-.48-.73-1.3l.07-.15c-1.52-3.16-.25-1.3-1.72-4.44l-.4-.5c-1.44-2.8-.42-1.66-2.08-4.74.55 1.26 0 .7-.6-.88l.28.35c-.4-.85-.56-1.12-.78-1.7.28.5.28.2-.28-1.06l.5.8-1.22-2.32c-.66-1.9-2.05-4.78-2.22-5.6 0 0-1.6-4.02-2.16-4.86.44.76-.44-1.46-.05-.9-.56-.98-1.94-4-2.33-5.27l.1.23c-.9-2.3-1.75-4.2-2.58-6.06l-1.23-2.78-.6-1.43-1.1-2.7c.03.23-.24-.36-.53-1-.63.8-1.3 1.66-.93 1.37l-1.62 2.04-1 1.2-1.85 2.13c-1.12 1.3-1.97 2.34-2.27 3.16-1.3 1.62-1.66 1.8-2.36 2.62l.3-.4-4.97 6.13c-.87 1.15-.8 1.5-2.5 3.44.45-.7-.2.12-.82.86.38-.5.47-.66-.4.28-.1.16-.25.38-.4.6-.01 0-.05.04-.04.01-1 1.27-.8 1.07-.3.5-.01.04.04 0 .2-.16-1.16 1.2-2.95 3.6-3.2 3.65-3.04 3.77-5.1 6.56-7.6 9.72-.36.3.17-.5.9-1.42l-1.8 2.23c-.1-.1.98-1.32 1.52-2.02-2.33 2.5-4.28 5.56-6.96 8.52l-.44.7-.16.17c.01.01-.01.07-.07.16-.1.1-.22.24-.4.46l.37-.4c-.16.26-.47.7-.7 1-.45.36-.18-.2-1.43 1.33-1.08 1.14-2.77 3.47-4.02 5.1.7-.84.54-.52.27-.13-.62.77-1.07 1.13-1.52 1.75l-.14-.02c0 .18-1.57 2.12-1.73 2.4-.45.36.9-1.25.98-1.5l-3.75 4.6c-1.25 1.7.36-.2-.18.67-1.16 1.46-2.23 2.94-3.66 4.54l.54-.44c-2.14 2.78-3.48 4.4-5.1 6.13l-3.8 5.1-3.38 4.2c.23-.2.44-.35.56-.4 0 0 .12-.1.28-.22l-.53.8c-1.05-.06-1.28.03-.24.37-.94 1.5-.44 1.15.53.16 1.7.5 5.26 1.34 11.5 2.7l-.24.01c5.1.95 8.3 1.5 11.85 1.84.5.38 4.2.72 5.37 1h-.12c3.15.3 6.4 1.23 9.42 1.53-.12 0-.2.07-.9-.04 2.2.32 5.2.75 5.33.94 5.23.8 12.5 2.08 15.9 2.36l-.24.01c1.94.13 2.47.38 4.62.64.1.04.26.08.24.08 2.1.16 6.07.96 7.76 1.16l.1.13 4.14.65-1.54-.28c.6-.2 3.1.7 6.13 1 2.8.5 5.8.3 8.7.93 1.4.1-1.26.03.83.26.04.17-1-.06-.47.15l1.83.3c-.82 2.2-1.26 4.64-1.34 6.9.01.3.01.64 0 1.02 0 .38.04.8.05 1.2 0 .1.01.2.02.3-.72-.1-1.65-.25-3.16-.5zm13.3-18.95l-.02-.05.48-.4c.2-.07-.24.26-.46.46zm-26.88-11.5c-.3 2.63-.45 4.64-.58 6.46l-.1 1.34c-.05.56.06 1.2.3 1.73.48 1.1 1.6 1.94 2.9 2.03h-.07c.03 0 .07.01.1.02-.02.47-.05.95-.16 1.45l.04.22-.02.06c.03 0 .05.23.05.4-.1.14-.16-.03-.2.48-.1.4-.1 1.14-.1 1.66.04-.28.07-.2.08-.06-.03.25-.1.4-.1.6h-.1c.1-.1.02.67.05.77-.1.14-.02-.4-.06-.47l-.08.73c.01 0 .02 0 .04.01l-6.32-.92c.1-1.13.15-2.26.18-3.4.17-3.86-.1-7.74-.46-11.35-.27-1.8-.44-3.54-.8-5.16l-.45-2.36-.53-2.17c-1.92-7.78-5.1-15.94-9.54-23.46-3.4-5.74-7.64-11.04-12.32-15.52l3.92-4.85c1.4-2.04 4.33-5.28 6.04-7.65l.8-.8c.6-.82 1.3-1.76 2-2.5l-.01.07c.88-1.22 2-2.5 2.44-3.1l-.01.07 1.15-1.42-.16.27 2.14-2.73.77-.95.22-.25.06.18c.02-.08.04-.16.05-.25.03.1.06.2.1.28l.04.12.1.24.6 1.42 1.06 2.43c.68 1.53 1.33 3 2.13 5.16l-.06-.04c2.6 5.2 3.32 8.56 5.98 13.93-.33-.67.06.32 0 .28.72 1.63 1.45 3.33 1.96 4.32l-.36 5.77c-.02 3.4-.7 9.36-.83 13.38l-.24 1.54c-.05 1.38-.14 3-.32 4.4l-.03-.1c-.08 2.07-.33 4.4-.37 5.42l-.03-.1-.2 2.5v-.43c-.2 3.6-.52 7.3-.84 10.57l.17-.27zm-22.6 7.57c.07 1.02.08-.27-.03-1.45.07.75.1.98.03-.57-.04-.22-.07-.55-.1-.87 0-.01 0-.08.01-.04-.2-1.96-.23-1.6-.1-.7-.01-.04-.02.03-.01.32-.07-1.02-.25-2.44-.42-3.62-.2-1.18-.38-2.15-.35-2.28-.62-2.9-1.3-5.36-2.13-7.63-.78-2.3-1.72-4.38-2.77-6.6-.18-.53.34.5.95 1.8-.5-1.06-.95-2.13-1.5-3.16.04 0 .28.44.58 1l.8 1.76c-1.58-3.87-4-7.62-6.8-11.62-.2-.27-.45-.5-.67-.77l-.17-.24-.02-.02c-.03-.06-.18-.27-.57-.76l.55.75c-.15-.14-.75-.84-1.15-1.33-.4-.57.16-.07-1.43-1.9-.48-.62-1.23-1.38-2.04-2.2l3.8-4.63c2.08 2.05 4.5 4.84 4.53 5.07 2.28 2.73 4.7 6.27 6.62 9.7 1.93 3.44 3.4 6.77 4.27 8.88l-.14-.28c.55 1.18.78 2 1.07 2.83.3.83.55 1.7.97 3.1.02.1.04.18.05.25-.02-.05-.03-.1-.05-.16.03.1.04.14.06.18.01.04.02.07.01.06.24.67.45 1.52.67 2.44s.46 1.9.62 2.9c.4 1.97.6 3.9.76 5.03l-.05.15c.17 1.88.35 3.75.37 5.64-.02-.7-.01-1.4-.05-2.1.2.7.1 4.13-.06 8.1l-5.98-1.1c.02-.24.03-.48.03-.74 0-1.77-.1-2.04-.16-5.2zm-9.6-4.32l.08-.04c-1.9.12-3.1.22-4.4.5-.22-.15-1.56.14-2 .12l.04-.02c-1.14.25-2.4.12-3.5.35.04-.02.06-.07.32-.1-.8.1-1.92.25-2 .16-1.94.22-4.65.44-5.87.72l.08-.04c-.7.18-.9.1-1.7.24-.04-.01-.1-.01-.1-.02-.76.18-2.25.24-2.87.35l-.05-.06-1.53.17.58-.04c-.18.2-1.17 0-2.27.23-1.04.08-2.08.6-3.17.6-.5.14.44-.18-.32-.04-.03-.1.35-.1.15-.15-.75.12-1.25.03-2.18.18l-.05-.07c-.98.2-1.88.17-2.6.26l-6.2-.8c1.17-1.24 2.7-3 3.43-3.83 1.1-.9 1.9-1.72 3-2.53-.1-.02.58-.53.34-.48 1.22-1.15 2.5-1.78 2.74-2.43.57-.5.75-.5 1.06-.75l-.13.13 2.22-1.87c.4-.36.35-.54 1.1-1.12-.2.24.1-.01.37-.24-.17.15-.2.22.18-.05.04-.06.1-.13.17-.2.01 0 .02-.01.02 0 .44-.4.35-.34.13-.18 0-.02-.02-.01-.1.03.53-.33 1.32-1.1 1.44-1.06 1.35-1.16 2.26-2.06 3.38-3.03.16-.06-.07.2-.4.5l.8-.7c.04.07-.44.42-.67.64 1.05-.7 1.9-1.75 3.1-2.6l.2-.24.07-.05c-.02-.02.2-.27.36-.42.2-.08.1.13.65-.33.5-.3 1.23-1.07 1.8-1.58-.32.25-.24.14-.13.01.28-.23.48-.3.68-.52l.1.05c-.17.02.67-.68.75-.8.2-.08-.4.4-.43.5l1.67-1.4c.55-.55-.17.02.07-.28.52-.45 1-.93 1.63-1.4l-.25.1c.95-.87 1.55-1.36 2.27-1.85 6.96-6.66.96-2 .96-2-3.03 2.27-4.37 3.7-7.8 6.63-3.07 2.5-3.98 3.04-7.1 5.7l-4.56 3.84c-.62.68-1.93 1.6-2.7 2.37l-.37.2c-.26.26-.58.56-.9.77v-.03c-.16.16-.33.3-.5.46l12.64-15.93 9.72-11.5c2.4 2.46 4.08 4.65 5.7 6.88.6.85 1.2 1.7 1.76 2.62l.9 1.4.87 1.52c1.2 2.1 2.43 4.52 3.66 7.63 1.15 2.97 2.16 6.13 2.83 9.34.68 3.2 1.1 6.46 1.28 9.57.05.74.1 1.62.12 2.6.02.96-.03 2-.06 3.07 0 .12-.02.23-.02.35-5.2-.97-10.4-1.93-15.35-2.56-.33-.08-1.2-.16-1.2-.13l-9.33-1.56-11.87-1.88c2.45-.1 7-.7 9.6-1.04 3.67-.56 8.02-.47 11.78-1.06.12.01.44-.07.44-.08l3.46-.32s16.8-1.6 3.93-1.4zM163 336.43l.02-.02.5.5c-.1-.08-.17-.14-.53-.47zm39.3 53.33c.17-1.37.32-2.24.46-3.1l.17-1.25 2.68.44-.1.02c6.2.6 10.32 1.5 15.7 2.27-.35.4-.67.82-.98 1.22-.88 1.16-1.7 2.44-2.57 4.46-3.9-.8-9.83-1.75-15.5-2.6.03-.45.07-.92.12-1.46zm19.86 31.54l-.07.06c-.3-.03-.87-.2-1.5-.17-.8-.08-1.64.26-2.46.1-.02 0-.03 0-.05.01l3.62-3.38c4.1-3.62 5.28-4.47 9.46-8.3l2.5-2.25c.02.12.01.2.27.4l.04.22c.14.18.2.04.33.25-.06.03.17.27.03.2.28.4.74.6 1.2.97-3.15 2.78-6.66 5.58-9.56 8.42-.14.1-.44.43-.43.44l-3.35 3-.3-.02.28.03zm3.75-24.47l2 .37 1.14.17c.46.06.9.12 1.28.15l1.6.25c.05.01.12.03.16.02l-.06-.15a4.676 4.676 0 0 1-.1-.27 7.476 7.476 0 0 1-.18-.48c-.22-.58-.34-.98-.48-1.4l-.24-.7c-.08-.22-.17-.45-.28-.73-.17-.42-.4-.96-.82-1.76l-.38-1.35c-.55-1.38-.62-.97-1.15-2.4.34-.26.68-.52 1.05-.74.5-.3 1-.62 1.5-.88 0 0 .24-.1.63-.3l.7-.34.9-.34c1.3-.54 2.98-.88 4.28-1.12.03 0 .05-.01.08-.01l3.4 6.94c-.56.98-.58 1.22.2.37 1.03 1.88.9 1.18.37-.42.83-.96 2.24-2.72 4.37-5.45l.8.27c1.4.6 2.87 1.27 4.63 2.68.08.08.15.14.22.2-.12.1-.23.2-.32.25l.1-.1c-1.9 1.6-3.1 2.93-4.83 4.35.13 0-.78.75-.5.64-1.18 1.16-2.35 2.02-3.06 2.7-.2-.1-.45-.14-.68-.3l.05.12c-.47-.12-.73-.22-1.03-.38-.9-.06-1.4.1-1.62.22-.23.1-.2.2-.1.28.24.15.84.26.84.28 1.13.44 1.8.42 3.04 1.28.48.45.7.8.92 1.15.2.36.4.72.7 1.32.23.6.4 1.25.44 1.87.15.3.01.82.05 1.18l-.1.12c.02.13.02.27-.05.38l-.02-.01c0 .14-.04.27-.06.37l-.3.45.1.06c-.07.22-.16.43-.27.6l.1.02c-.4.48-.38.78-.84 1.14l-.01-.02c-.32.7-.9.67-1.38 1.23.06-.07-.06-.02-.06-.04-.27.2-.6.35-.53.52-.23.1-.2.03-.26-.01.03.07-.16.17-.35.25l.08-.06c-.17.08-.35.13-.53.18l.14.1c-.3.04-.12-.15-.4-.04l.03.1c-.42.04-.7-.1-1.08-.17-.8 0-1.66-.07-2.46-.34-.8-.26-1.53-.72-2-1.33l.01-.1c.07-.1-.42-.18-.37-.3l-.16-.1c-.01-.05-.06-.15.02-.1-.1-.13-.1-.12-.2-.2l-.04-.2c-.3-.56-.68-.98-.86-1.65-.1-.8-.36-2.3-.17-3.22.04-.64.4-1.27.8-1.8.42-.54.9-1 1.32-1.48.04-.02.1-.1.1-.12.3-.24.64-.44 1-.62l.2-.1c.13-.07.3-.15.53-.23.43-.2.98-.32 1.42-.44.44-.1.76-.2.68-.34-.08-.1-.56-.4-1.84-.36l.03-.04c-.74.12-1.2.33-1.58.68-.15-.1-.54.3-.7.35l.01-.02c-.3.37-.82.5-1.05.9 0-.02-.03-.07.04-.14-.2.25-.47.6-.56.56-.5.6-1.03 1.56-1.04 2.1l-.01-.04c.01.3-.12.34-.14.66-.02.01-.03.03-.03.03.01.3-.17.86-.15 1.1h-.07l-.02.6.03-.22c.18.08-.15.45.01.9.01.42.46.76.48 1.16.13.17-.18-.13-.04.13-.1.03-.1-.12-.15-.03.1.27.04.5.23.8l-.06.04c.06.08.1.16.15.25l-1.08 1.02c-1.44-.27-3.4-.58-6.95-1.08l-3.8-.8c-.06-.46-.1-.93-.12-1.4-.04-.45-.06-.9-.03-1.34l.04-1.3c.13-.83.15-1.63.33-2.27.15-.94.46-1.9.86-2.8 1.26.16 2.47.36 3.57.58zm-2.77-2.16c.2-.36.4-.7.64-1.05.2-.3.4-.57.6-.85l-.08 1.07c-.01.06-.01.12-.02.2-.32.17-.6.38-.87.66h-.02c-.08-.01-.17-.02-.26-.04zm2.5-2.7c.08-.3.1-.57.1-.84.4-.46.83-.9 1.25-1.32.15.32.26.6.26.7l.65 1.28c.12.4.4 1.2.1.55.5 1.23.55 1.24.98 2.1l.1.34c-.07-.03-.15-.05-.26-.1l-.6-.46c-.73-.53-1.78-.75-2.78-.6l.03-.2c-.1-.3.03-.94-.05-1.16.06-.03.1-1.3.17-.56 0 .06-.01.17-.03.17l.08.1zm6.32 32.32c-.02-.03-.04-.07-.06-.1.02.02.07.02.15.13-.03 0-.06-.01-.1-.02zm27.08-31.97c.62 1.16 1.18 2.24 1.5 2.95l-.06-.1c.38.8.46 1.04.73 1.98 0 .06.01.12 0 .1.15.45.4 1.1.48 1.78l.27 1.7-.06.06c.06.63.08 1.26.12 1.9l-.02-.7c.1.12.1.48.08.98s-.13 1.14-.1 1.83l-.05 1.97-.04 1c-.05.33-.13.66-.24 1-.08.65.01-.58-.17.37-.1.01.05-.45-.08-.23-.1.46-.2.83-.36 1.22-.16.38-.33.8-.5 1.34l-.1.02c-.44 1.45-1.25 2.55-1.7 3.45-.75 1.37-.73.76-1.57 2.15l-.46.44c-.48.5-.24.45-.8.98-.02-.08-.7.68-.43.3l-1.97 1.82c-.74.58-1.52 1.25-2.56 1.73-.18.18-.52.4-.86.62-.35.18-.7.35-.84.47-.04-.01-.56.24-.93.4-.38.16-.6.22-.03-.08.1-.06.27-.14.27-.1l.1-.13c-.6.24-1.15.42-1.7.66-.53.24-1.07.48-1.7.6.37-.07.86-.2.55-.07l-1.16.3.23-.12c-.57.15-1.15.28-1.74.33l.25.04c-.87.07-1.18.05-2.14.22-.44.08.83.06-.08.13-.58-.01-1.3.04-2.07-.01-.76-.08-1.57-.1-2.3-.22.13.1-.27.04-.68 0l-.04-.08c-1.57-.15-.55-.2-2.07-.5l.14-.02-.44.05c-1.2-.18-.86-.3-1.7-.53-.34-.6-.98-1.2-.96-1.3-.6-.56-1.48-1.1-2.38-1.3-.44-.1-.9-.15-1.25-.16s-.66 0-.9.02l.07-.02c-.46.06-.65-.01-1.06-.02l-1.12-.9c.2-.2.4-.37.54-.47l-.03.05c.63-.67 1.36-1.27 2.07-1.87.7.54 1.45 1.08 2.32 1.7.22.06.53.24.83.4.3.14.6.28.78.3.01.04.46.25.78.42.32.15.5.24-.03.08-.1-.03-.24-.1-.23-.12l-.15.01c.48.33 1 .46 1.48.6.5.16 1 .28 1.54.4-.32-.1-.75-.2-.45-.2l1 .27-.23.01c.5.15 1 .28 1.52.35l-.2-.1c.74.14 1 .36 1.86.3.4-.04-.7-.14.1-.12.5.04 1.14.14 1.8.15.67-.02 1.38.01 2.03-.07-.13-.07.22-.12.57-.2l.05.07c1.34-.33.54.13 1.86-.3l.2-.16c1.15-.45.7-.01 1.92-.66-.5.2-.3-.07.34-.26l-.13.12.67-.3c-.18.13-.06.15.42-.1l-.3.24.87-.57c.77-.24 1.75-1.05 2.1-1.1 0 0 .1-.05.23-.15s.32-.23.5-.37c.38-.3.8-.6.9-.78-.2.28.5-.33.36-.1.28-.36 1.2-1.27 1.6-1.63l-.06.08c1.4-1.36 1.97-2.66 2.93-4.1-.1.03.33-.77.13-.62.17-.42.36-.8.53-1.16l.42-1.02c.28-.62.4-1.14.3-1.5.17-.8.34-.9.4-1.32l-.01.2c.2-1.5.3-1.94.32-3.07-.01-.57-.13-.65-.16-1.65.08.35.05-.06.03-.43.02.24.05.3.07-.18-.02-.07-.04-.17-.06-.27l.01-.02c-.07-.62-.1-.5-.06-.22-.01-.01-.02.01-.03.1 0-.65-.27-1.8-.17-1.9-.44-1.84-.96-3.1-1.68-4.48-.03-.18.18.13.4.53l-.5-1c.08-.03.32.56.48.86-.34-.96-.93-1.85-1.57-2.8l.52-.35c.6-.5.33-.46 1-1 0 .08.84-.7.5-.3.1-.07.18-.15.27-.23.35.53.68 1.1 1.02 1.64zm-11.13 6.87c.1.05-.33.38-.08.25.5-.5.94-.82 1.45-1.24l-2.7 3.8c0-.03.01-.06.03-.07-.12-.46-.28-.8-.46-1.14.43-.5.88-.96 1.4-1.37.47-.54-.4.53.37-.24zm8.4 11.35c-.22-.16-.43-.33-.65-.5l.23.47c-.97-.8-.1-.43-1.1-1.1l-.1.17c-1.4-1.02-2.1-1.8-3.47-2.82-1.34-.84-2.73-1.63-4.14-2.4l7.4-10.72c.1-.07.22-.15.34-.25.5.83 1.02 1.8 1.62 3.17.73 1.8 1.17 3.86 1.27 5.76.04.22.07.5.1.8.01.3-.02.6-.03.94l-.05.97c-.03.3-.07.6-.08.88l-.13.4c-.01.37-.07.8-.2 1.15l-.01-.03c-.1.55-.25 1.15-.33 1.4l-.01-.03-.22.63.01-.12c-.1.42-.25.83-.42 1.22zm3.1-26.67c.05.02.1.04.16.06-.16-.05-.22-.05.1.12.05 0 .13.02.2.03 0 .01.01.01 0 .02.43.14.36.1.17.01.01-.01 0-.02-.05-.06.4.25 1.2.47 1.22.6l1.3.45-4.9 4.3-.26.12c-.18-.02-1.16 1.3-1.42 1.37l-.5.53c-.17.12-.5.4-.25.13-.5.45-.5.47-.84.83l-.6.42c-2.02 1.73-3.6 3.36-5.7 5.2-.63.5-1.38 1.17-2.2 1.88-.18-.26-.4-.5-.56-.83l-.12-.06-.01-.03c-.03.02-.14-.05-.2-.1 0-.1.13-.1-.07-.3-.1-.22-.46-.44-.7-.6.1.1.04.1-.02.08-.06-.05-.1-.1-.12-.15l.57-.53-.1.13c.98-.96 2-1.88 2.9-2.66h-.13c2-1.65 2.57-2.42 4.4-3.9l-.01.04c2.04-2.14 3.57-3 5.7-5.2-.26.27.15-.08.14-.04.8-.73 1.63-1.5 1.92-1.88zm-8.75-3.88c.43.47.94.86 1.5 1.25-.02-.1.6.27.5.1 1.27.4 2.1 1.08 2.65.94.54.2.6.33.88.45l-.13-.03c1.02.37 1.3.5 2.06.8.03.01.06.01.1.02l-.15.16c-.8.63-1.95 1.78-2.34 2l-.26.23c-.3-.26-.6-.52-.9-.75-.1-.13-.47-.32-.47-.32-.6-.43-1.17-.93-1.8-1.3s-1.25-.8-1.92-1.14l-.8-.4c-.1-.04-.2-.1-.3-.14l1.4-1.84zM253 346.1l-.33-.62c-.2-.35-.3-.67-.76-1.27-.32-.45-.75-.76-1.3-.82-.53-.06-1.05.13-1.48.47-.22.17-.42.38-.6.6-.14.18-.25.3-.35.43-.2.28-.42.55-.6.84-.76 1.12-1.4 2.28-1.9 3.44-.1.15-.26.6-.24.6-.76 1.5-1.45 3.02-2.1 4.57 0 0-.6 1.4-1.2 3.3-.3.95-.63 2-.9 3.08-.14.53-.27 1.06-.38 1.58a20.549 20.549 0 0 1-.16.76l-.1.5c.03.18.05.4.1.53.23 1.08.83 1.88 1.36 2.24.55.36.85.33.75.16-.05-.12-.3-.33-.53-.73.2.2.4.38.65.5l3.34 1.32c-8.63-2.42-.4 1.22-.4 1.22 2.42 1.12 4.3 1.85 6.33 2.57-.1.06-.26.18-.48.4.35-.26.25.02-.18.3l.06-.14c-.23.18-.26.28-.42.4.1-.14-.02-.15-.3.17.04-.1.08-.2.14-.27-.16.23-.32.46-.45.7-.47.45-.8 1.4-.94 1.63-.05-.02-.38 1.33-.2 1.65-.07-.28-.1.48-.18.27.06.37.3 1.37.4 1.78l-.04-.07c.03.1.07.2.1.3l-1.9 2.78-.34-.12c-1.65-.66-3.83-1.04-5.5-1.2-1.67-.07-2.82-.01-2.54.15.14.08.63.2 1.58.34.24.04.5.08.8.12l.96.23 1.15.27c.4.12.84.28 1.3.43h-.1c1.14.28 2 .7 2.8.97.8.32 1.5.66 2.25.94.13.3 1.65 1 2.06 1.37l-.05-.02c.6.38 1.2.82 1.73 1.3.2.2.43.4.64.6-.37.34-.72.68-.84.85.28-.35-.64.44-.43.15-.2.22-.6.64-1.02 1.04l-.15-.12c.07.06.1.1.13.14-.01.01-.03.02-.04.03-.02-.01-.04-.02-.06-.04-.28-.26-.4-.46-.66-.6l.03-.1c.07.16-.86-.53-1-.58-.13-.2.5.3.62.32-1.24-.92-.6-.47-1.93-1.27-.74-.36.08.15-.3.02-.63-.36-1.3-.56-2.02-.98.07.06.14.13.2.2l-2.9-1-.87-.16-.8-.06c-.5-.03-.92-.07-1.28-.07-.74.04-1.25.08-1.57.12-.68.1-.63.2-.27.28.35.1 1 .18 1.55.24.28.02.53.08.72.1l.3.06c1.02.18 1.87.4 2.67.66l-3.4 5.25c-.74-2.1-1.96-5.2-2.48-6.48.5-.08.76-.16.63-.24-.1-.07-.52-.13-1.32-.2-.4-.05-.9-.04-1.5 0l-1 .06-1.17.2.08-.05c-1 .18-1.76.52-2.47.76-.68.3-1.27.64-1.86 1-.27-.03-1.44.82-1.85 1.07l.03-.04c-.45.43-1 .76-1.5 1.15-.48.4-1 .78-1.36 1.26.02-.03.01-.07.08-.16-.57.63-1.25 1.42-1.34 1.4l-1 1.35c-.32.5-.62 1-.92 1.5-.52 1.03-.97 2-1.1 2.65l.01-.1c-.14.75-.37.9-.5 1.75l-.05.1c-.04.42-.23.98-.3 1.56-.1.57-.2 1.12-.22 1.45l-.07.04c-.04.54-.05 1.1-.08 1.63l.05-.6c.1.1.04.42-.02.85a8.946 8.946 0 0 0 .07 1.58c-.01.56.2 1.1.36 1.65.1.27.17.54.24.82.1.27.17.54.22.82.22.5-.25-.43.01.34-.1.05-.15-.35-.17-.13.22.77.27 1.3.67 2.2l-.06.07c.6 1.14.92 2.28 1.5 2.95.54.8.46.92.74 1.32l-.01.01c-.54.4-1.33 1.2-2 1.87-.68-.87-1.27-1.73-1.8-2.76-.04.12-.45-.84-.44-.56-.24-.45-.47-.9-.64-1.3l-.4-1.2c-.26-.73-.4-1.3-.66-1.63-.24-.9-.23-1.1-.27-1.57l.05.22-.32-1.92c-.08-.5-.06-.96-.1-1.6-.06-.65-.27-.75-.15-1.92.04.38.06-.1.08-.53 0 .28.01.37.1-.2-.02-.08-.02-.2-.03-.33.01 0 .01-.03.02-.01.04-.73.04-.6-.04-.27-.01-.02-.03.01-.05.1.18-.74.3-2.1.42-2.16.46-2.13.83-3.68 1.6-5.35.14-.16 0 .25-.2.73l.54-1.18c.07.05-.28.7-.44 1.06.76-1.33 1.3-2.92 2.5-4.3l.17-.34.07-.08c-.03-.02.18-.37.33-.6.22-.15.1.12.7-.55.24-.2.52-.54.82-.88l2.54-2.23c1.23-.93.64-.5 2.1-1.4.78-.56-.2.01.16-.3.72-.46 1.47-.83 2.37-1.2-.1.01-.2.04-.3.05 1.47-.66 2.38-1 3.46-1.14.36-.1.7-.22 1-.33l.92-.2c.12-.03.23-.05.34-.08l1.02-.14c-.01-.02-.02-.05-.03-.07.06-.01.14-.03.2-.04.9-.12 1.5-.2 1.9-.3.8-.15.75-.22.3-.3-.45-.05-1.28-.06-2-.06-.25-.01-.47.01-.68.03l-.9-2.2.55-2.52-.5 1.13c.78-3.2.46-.75 1.1-3.83h-.2c1.02-4.42 1.88-6.96 2.95-11.22 3.93-17.83 7.5-37.12 10.58-53.85l.27-.72c.27-.32.37-4.65.68-5.37l-.12-2.05c.03-.57.06-1.76.12-.76-.02-1.87-.02-1.92-.23-3.23l-.06-1.98-.25-2.68-.4-2.57-.64-3.66c1.66-.36 3.43-.78 5.42-1.33-.9.25.4-.02.34.04l3.12-.74c-.07.36-.12.73-.2 1.08a181.931 181.931 0 0 1-1.35 6.06l.2-.3c-2.03 8.16-2.47 11.23-4.44 18.57l-.01-.1c-.95 4.7-1.9 8.4-2.9 12.1l-1.5 5.72-.76 3.13-.38 1.7c-.07.3-.13.6-.2.92l-.1.52a2.308 2.308 0 0 0-.03.37c-.01-.22.02-.33 0-.34-.01-.02-.05.15-.05.4-.05.48.3 1.13.25 1.06.25.42.66.75 1.12.94.28.1.36.12.5.16l.4.1 1.63.45 2.94.8.87.22-.27 1.18c-.1.7.12-.1.12.24-.13.6-.2 1.22-.43 1.9l.13-.2c-.2 1.15-.38 1.83-.65 2.58-.37 2.35-.5 3.57-.5 4.1-.1-.1-.16-.13-.17-.05-.02.08.02.3.15.7zm22.8 2.17l-.4.4c-.43.05-.85.2-1.24.42-1.1.68-2.17 1.3-3.47 1.74-1.58.46-3.87.96-6.26.86-2.38-.06-4.8-.7-6.47-1.35-.9-.33-1.8-.8-2.6-1.4l-.36-.5-1.06-1.62c-.3-.5-.55-.9-.75-1.16.3-.48.8-2.32.8-2.32.83-2.8 1.1-4.54 1.7-7.45.64.14 1.04.2 1.08.12 3.2.92 2.58.83 2.96 1.05.02-.12 2.82.62 5.32 1.33l-1.17-.28 7.17 2-1.33-.63c3.77 1.15.88.55 4.53 1.53l.01-.2 3.26 1-.04.32-.2.44c-.5 1.67-.74 3.15-1.24 4.92-.07.24-.16.5-.24.76zm75-58.47c.15.32.3.47 1.08 2.4l-5.95-15.03-4.64-11.55-13 18.7-9.28 13.64.36-.6c-3.15 4.84-4.25 6.15-7.87 11.5l-.46.58c-3.45 5.26-10.47 15.07-13.32 19.3l-.28.2-7.14 10.3 2.7-3.83c-.68 1.5-5.57 7.66-10.6 15.22l-1.28 1.86c-.1-.1-.17-.17-.17-.23l-.6-.46c-.12-.18-.4-.52-.1-.3-.5-.5-.53-.48-.93-.78l-.44-.62c-.55-.73-1.5-1.26-2.5-1.4.04-.04.07-.1.1-.14v-.01c.05-.53.02.5.15-.28.1-.01-.03.35.1.18.13-.68.38-1.07.54-1.9l.08-.01c.15-1.1.63-2 .7-2.75.2-1.02.38-.77.53-1.6l2.4.8 1.53.5c.2.07.64.24 1.05.22.4 0 .83-.1 1.2-.3s.7-.5.95-.85c.12-.18.23-.38.3-.57l.17-.45.65-1.76c2.5-7.2 4.93-14.67 7.2-22.16 0-.01.01-.01.01-.02l.17-.05 3.02-4.37-1.15 1.6c.14-.74 2.45-3.18 4.5-6.45 2.1-2.93 3.66-6.36 5.92-9.34.9-1.55-.7 1.42.73-.83.18.02-.63 1.08-.13.6 1.44-2.2 2.6-3.43 4.35-6.14l.18-.04c2.22-3.6 4.68-6.43 6.1-8.85 2.4-3.62 1.97-2.18 4.36-6.03l1.14-1.35c1.13-1.57.62-1.26 1.92-2.97.01.17 1.62-2.18.98-1.1.77-1.02 1.5-2.08 2.25-3.17l3.78-5.53-6.4 1.44c-1.34.3-2.75.58-4.25.85-1.3.5-4.48 1.1-5.46 1.47-.2-.05-6.3 1.4-2.82.42.3-.08.84-.2.8-.16l.4-.2c-3.08.5-5.6 1.28-8.46 1.98.03-.17.06-.3.1-.38l.25-2.38c.12-.66.34-2.06.24-.87.28-2.2.26-2.25.34-3.85l.28-2c1.88-.5 3.87-1.05 8.64-2.08-2.4.65.66-.06 3.47-.7-1.8.42-2.34.58 1.37-.18.5-.15 1.3-.35 2.06-.53.03 0 .18-.03.1 0 4.68-1.1 3.86-.94 1.68-.46.1-.04-.08-.02-.76.1 1.7-.33 3.86-.8 5.97-1.27l6.5-1.44-.93-2.4c-.18-.43-.27-.7-.27-.8l-5.44-13.3 2.27-.9c1.74-.68 3.45-1.34 5.1-1.82l.17.03c.1.1.82-.5.98-.43l.2-.1.8 1.93 6.37 15.86 1.02 2.26.25.67c.02-.03.3.57.65 1.38l1.13 2.65c.52 1.6-.3-.01 1.9 5.46 1.63 4.37 4.98 12.3 7.3 17.93-1.2-3.06-.75-2.1-.2-.8 1.1 2.74 1.62 4.36 2.52 6.45l-.03.25c.26.34 3.04 7.25 3.47 8.16.52 1.6-1.8-4.2-2.15-4.86l6.6 16.46c2.46 5.82-.3-1.12.96 1.63l6.5 16.14-.62-1.93 8.8 22.1 11.74 27.85c-.01.03-.01.05-.02.05 0 .05-.01.1-.01.15h-.15l.1.26 2.55 6.37c.4 1.05.5 2.13.27 3.15-.2.8-.64 1.76-1.48 2.56-.83.8-2.08 1.55-3.58 1.6-1.5.07-3.24-.58-4.36-2.06-.28-.36-.5-.77-.67-1.23l-.55-1.47-1.2-3.16-5.94-15.68.3.63-13.4-33.23c-.36-1.67-4.7-11.8-5.95-15.2l.15.3c-3.7-8.67-7.03-18.1-10.6-26.46zm41.92 161.62c-37.3 0-67.6-30.3-67.6-67.6 0-26.4 15.17-49.26 37.25-60.4l2.43 6.1-1.16.64c-.34.1-1.48.74-2.68 1.46l-3.04 2 .1-.1c-3.1 2.3-6.4 4.78-8.93 7.54.07-.08.1-.16.35-.45-1.86 1.9-3.96 4.4-4.14 4.5-2.07 2.5-4.28 5.73-6.02 8.9-1.75 3.15-3.04 6.2-3.7 8.2l.08-.28c-.4 1.1-.6 1.86-.88 2.6-.27.75-.53 1.55-.85 2.84-.04.1-.08.24-.1.27.01-.03.02-.08.05-.2-.02.06-.04.13-.05.2 0 .01-.01.01-.01.01-.16.62-.34 1.4-.52 2.24-.2.84-.4 1.74-.55 2.64-.36 1.78-.57 3.53-.68 4.57l-.08.13-.23 3.2c.16.67-.3 3.9.07 7.6.2 3.5 1.14 6.97 1.94 10.48.5 1.65-.5-1.43.2 1.04-.08.1-.38-1.14-.28-.48.73 2.42 1.03 4.03 2.23 6.92l-.02.15c1.62 3.74 3.14 7.03 4.65 9.3 1.17 1.75 1.48 2.4 1.88 3l.7 1.07c.3.46.75 1.05 1.47 1.88l.98 1.4c1.23 1.42.95.96 2.32 2.52-.13-.05 1.78 1.94.9 1.1 3.22 3.46 7.1 6.43 12.3 9.84.62.28 1.6.83 2.53 1.36.96.48 1.88.95 2.35 1.14.05.08 1.48.7 2.5 1.18 1 .45 1.6.7-.04.08-.28-.12-.76-.34-.72-.34l-.4-.1c3.18 1.6 6 2.4 9.36 3.34-1-.3-2.33-.68-1.42-.48 1.05.3 2.08.63 3.14.85l-.68-.1 2.36.57c.8.18 1.6.3 2.38.46l-.65-.2c1.16.24 1.95.4 2.78.52s1.7.28 3.04.3c1.2.03-2.23-.27.27-.1 3.15.33 7.93.4 11.96-.07-.4-.04.7-.17 1.8-.33l.14.06c4.22-.87 1.6-.04 5.75-1.07l-.36.14c.35-.14.7-.26 1.06-.42 3.66-1.2 2.06-.38 6.04-2-1.58.6-.8.14 1.15-.6l-.46.26 2.1-.9c-.6.32-.3.25 1.25-.46l-1 .55c.95-.48 1.92-.95 2.84-1.5 2.28-.98 5.54-3.18 6.44-3.66 0 0 .3-.17.7-.47l1.6-1.13c1.2-.9 2.46-1.92 2.9-2.35-.76.75 1.47-1.15.9-.54 1.05-.9 3.9-3.8 5.06-4.96 1.97-2.1 3.53-4.07 4.9-6.05 1.45-2.04 2.68-4.13 4.04-6.47-.2.18 1.16-2.34.74-1.76 2.42-5.03 4-9.4 4.2-11.42l.65-2.54c.16-.58.3-1 .4-1.65l-.1.6.5-2.98.28-2.26c.1-.68.13-1.34.2-2.04.04-.7.14-1.45.15-2.33 0-1.8-.1-2.1-.16-5.24.07 1.02.08-.27-.03-1.45.07.75.1.98.03-.57-.04-.22-.07-.55-.1-.87 0-.01 0-.08.01-.04-.2-1.96-.23-1.6-.1-.7-.01-.04-.02.03-.01.32-.07-1.02-.25-2.44-.42-3.62-.2-1.18-.38-2.15-.35-2.28-.62-2.9-1.3-5.36-2.13-7.63-.78-2.3-1.72-4.38-2.77-6.6-.18-.53.34.5.95 1.8-.5-1.06-.95-2.13-1.5-3.16.04 0 .28.44.58 1l.8 1.76c-1.58-3.87-4-7.62-6.8-11.62-.2-.27-.45-.5-.67-.77l-.17-.24s-.01 0-.01-.01c-.01-.04-.17-.25-.57-.77l.56.77c-.08-.05-.74-.82-1.17-1.35-.4-.57.16-.07-1.43-1.9-.6-.75-1.56-1.7-2.57-2.73-1.05-.97-2.16-2-3.13-2.8 1 .9.66.64.2.28-.9-.8-1.4-1.3-2.15-1.85l-.03-.1c-.08-.02-.6-.42-1.2-.87-.73-.54-1.58-1.1-1.77-1.22-.52-.45 1.57 1.02 1.83 1.2l-2.97-2.1c-.52-.3-1-.7-3.1-1.92-2.28-1.23.36.3-.75-.23-1.98-1.13-4-2.03-6.38-3.14l.72.4c-3.95-1.63-6.4-2.35-9.15-3.2-3.88-.9-6.96-1.2-9.3-1.4l-3-.1-2.03.04c-2.1.08-1.96.2-.8.27 1.14.1 3.26.17 5.08.4.9.07 1.75.2 2.36.3l1 .14c3.04.5 5.7 1.08 8.15 1.82 2.46.7 4.73 1.53 7.03 2.47 4.55 1.97 9.3 4.4 15 9.1 4.9 4.23 7.48 7.48 9.9 10.83.6.85 1.2 1.7 1.76 2.62l.9 1.4.87 1.52c1.2 2.1 2.43 4.52 3.66 7.63 1.15 2.97 2.16 6.13 2.83 9.34.68 3.2 1.1 6.46 1.28 9.57.05.74.1 1.62.12 2.6.02.96-.03 2-.06 3.07-.05 1.06-.16 2.13-.22 3.16l-.3 2.88c-.07.45-.2.9-.3 1.33l-.3 1.9c-.14.64-.3 1.28-.45 1.87v-.08c-.16.9-.42 1.82-.65 2.63l-.57 1.95v-.08l-.7 2.08.1-.37c-1 3-2.35 5.96-3.73 8.47l.2-.17c-1.53 2.66-2.63 4.44-3.8 6.1-.57.83-1.14 1.65-1.82 2.5l-1.07 1.34-1.3 1.44.03-.07c-2.24 2.68-4.28 4.58-6.44 6.34-2.18 1.74-4.44 3.42-7.46 5.4.75-.5-.35.17-.3.1-2.82 1.77-6.06 3.2-6.04 3.4-2.2 1-1.84.72-2.15.8.02.03-.46.25-1.16.55-.7.32-1.65.63-2.54.94l.82-.3c-1.7.6-3.44 1.12-5.2 1.58.36-.03.7-.07 1.07-.13-2.8.66-.75.01-3.43.68l.06.1c-3.92.74-6.28.8-10.1.9-7.98.27-16.3-1.04-23.92-4-7.62-2.92-14.44-7.45-19.72-12.68l-.4-.52c-.14-.26-3-2.8-3.25-3.35l-1.18-1.27c-.28-.4-.9-1.22-.34-.56-.97-1.27-1.05-1.26-1.74-2.18l-.93-1.44c-3.48-5.24-6.03-10.03-8-16.38-1.1-3.83-2.3-9.48-2.52-15.3-.16-2.9 0-5.85.22-8.6.18-1.36.28-2.7.52-3.92l.3-1.8.36-1.66c1.25-5.96 3.85-12.13 7.37-17.72 3.54-5.6 8.03-10.57 12.73-14.64l.67-.56c.24-.2.43-.38.43-.38 2.97-2.36 6.17-4.44 9.54-6.2 0 0 .1-.05.26-.14l1.34 3.35 7.36 18.34 4.2 10.38c-.1-.16-.16-.28-.28-.44l.13.13-1.88-2.22c-.36-.4-.54-.35-1.12-1.1.24.2-.01-.1-.24-.37.15.17.22.2-.05-.18-.06-.04-.13-.1-.2-.17 0-.01-.01-.02 0-.02-.4-.44-.35-.35-.18-.13-.02 0-.01.02.03.1-.33-.52-1.1-1.3-1.07-1.44-1.16-1.35-2.06-2.26-3.04-3.37-.06-.16.2.07.5.4l-.7-.8c.07-.04.42.43.64.67-.7-1.05-1.75-1.9-2.6-3.1l-.24-.2-.05-.07c-.02.02-.27-.2-.42-.36-.08-.2.13-.1-.34-.65-.32-.48-1.07-1.23-1.58-1.8.25.32.14.24.01.13-.23-.28-.3-.48-.52-.68l.05-.1c.02.17-.68-.67-.8-.75-.08-.2.4.4.5.43l-1.4-1.67c-.55-.55.02.17-.28-.07-.45-.52-.93-1-1.4-1.63l.1.25c-.88-.95-1.36-1.55-1.85-2.27-6.67-6.94-2-.96-2-.96 2.28 3.02 3.72 4.37 6.65 7.8 2.5 3.07 3.05 3.98 5.72 7.1 1.22 1.5 2.57 3.04 3.8 4.48h0c.02.02.04.05.06.07.68.62 1.6 1.93 2.38 2.7l.2.37c.26.26.56.58.77.9h-.03c.4.4.77.9.97 1.08h-.03l.44.5-.1-.07a36.238 36.238 0 0 1 .83.92l1.2 2.96 3.16 7.77c-.38.5-.77 1.1-1.06 1.68l-1-.87-.1-.2c.01-.15-1.1-.65-1.14-.85l-.44-.3c-.1-.1-.32-.33-.1-.2-.37-.32-.4-.3-.7-.5l-.35-.4c-1.44-1.28-2.8-2.2-4.34-3.52-1.77-1.68-5.4-4.5-7.48-6.1-2.98-2.22-5.98-5.37-9.04-7.62-.08-.1-.36-.27-.36-.25l-2.67-2.23c-.05.02-13-10.78-3.82-1.8l-.08-.03c1.42 1.27 2.34 2.04 3.44 2.77.05.27 1.2 1 1.5 1.34l-.04-.02c.98.64 1.77 1.6 2.7 2.23-.04-.02-.1 0-.3-.16.64.5 1.53 1.2 1.5 1.3 1.52 1.22 3.58 3 4.64 3.66l-.08-.03c.62.37.72.57 1.37 1.04.02.04.06.08.05.08.66.4 1.75 1.43 2.26 1.8v.08l1.2.97-.43-.38c.27-.01.83.83 1.76 1.45.8.7 1.88 1.06 2.66 1.82.45.26-.44-.18.2.26-.04.1-.32-.18-.2 0 .62.45.9.87 1.66 1.42l-.02.08c1.03.68 1.72 1.55 2.43 1.97 1 .76.5.7 1.62 1.44l.33.4c.42.37.4.16.84.6-.07.02.57.54.26.36.54.52 1.17 1 1.83 1.5-.02.1-.04.22-.04.32l-.03-.07c.03.4-.13.52-.2.86-.5-.04-1-.08-1.17-.15 0 0-1.58-.2-1.96-.12.32-.04-.55-.15-.3-.2-.42.04-1.64-.01-2.12-.13h.1c-1.8-.25-3.08-.16-4.7-.4.07.1-.78-.03-.58.1-1.68-.04-3.02-.5-3.65-.22-.76-.05-.9-.16-1.28-.22h.18l-2.9-.24c-.53-.01-.63.14-1.57.01.3-.04-.08-.06-.43-.1.23.01.3-.01-.16-.1-.07.01-.17.02-.26.02 0-.01-.02-.01-.01-.02-.6-.03-.5 0-.22.03-.01.01.01.02.1.05-.6-.14-1.7-.15-1.77-.27-1.78-.14-3.05-.14-4.53-.23-.16-.07.2-.1.62-.07l-1.05-.08c.02-.08.6.01.93.02-1.23-.24-2.58-.1-4.03-.36l-.3.04h-.1c0 .03-.33.05-.55.04-.2-.1.03-.16-.7-.22-.57-.12-1.63-.1-2.38-.15.4.05.27.08.1.08-.36-.03-.56-.12-.85-.1l-.03-.1c.13.1-.95.01-1.1.04-.2-.1.57-.01.66-.05l-2.18-.2c-.78 0 .13.1-.25.15-.7-.04-1.36-.04-2.14-.17l.24.1c-1.3-.05-2.06-.13-2.92-.3-9.63-.2-2.1.75-2.1.75 3.76.53 5.73.46 10.22.8 3.94.4 4.97.66 9.06.97l5.94.5c.92-.04 2.5.23 3.58.22l.4.1c.37 0 .8.01 1.17.08l-.03.02c.56 0 1.17.08 1.45.08v.02l.67.05-.12.02c.97.03 1.96.12 2.82.22l-.06-.1c1.86.27 2.55.15 4.23.42l-.02.02c2.15-.03 3.35.46 5.56.45-.28 0 .1.06.1.07.06 0 .12.01.2.01-.06.28-.1.55-.1.73l-.1.01c-.02.3-.02.63-.03.94l.04-.35c.3.13-.24.7.01 1.38-.02.32.2.62.4.9.18.3.37.57.38.9.2.26-.3-.2-.07.2-.15.06-.15-.18-.24-.04.1.24.1.47.15.7l-2.2.15-.2-.07c-.1-.12-1.23.3-1.4.2l-.52.1c-.15-.01-.46 0-.2-.06-.5.04-.5.06-.84.13l-.53-.03c-1.92.12-3.54.42-5.56.58-2.44.07-7 .64-9.6.98-3.68.54-8.02.43-11.78 1-.12-.01-.44.06-.44.08l-3.46.3s-16.8 1.53-3.94 1.4l-.08.04c1.9-.1 3.1-.2 4.4-.47.23.16 1.56-.12 2-.1h-.04c1.14-.24 2.4-.1 3.5-.34-.04.02-.06.07-.32.1.8-.1 1.92-.24 2-.15 1.94-.2 4.65-.42 5.87-.7l-.08.04c.7-.17.9-.1 1.7-.23.04.01.1.01.1.02.76-.18 2.25-.23 2.87-.33l.05.06 1.53-.16-.58.04c.18-.2 1.17.01 2.27-.22 1.04-.07 2.08-.58 3.17-.6.5-.13-.44.18.32.04.03.1-.35.1-.15.15.75-.12 1.25-.02 2.18-.17l.05.07c1.2-.25 2.3-.12 3.1-.32 1.25-.18.86.14 2.16-.13l.52.05c.56-.04.4-.16 1.02-.17-.03.07.8-.02.43.07.98-.02 1.98-.2 3.1-.3.1.25.18.5.27.7-.53.42-1.1.95-1.33 1.04 0 0-1.26.98-1.46 1.3.2-.26-.5.28-.35.06-.27.32-1.16 1.15-1.6 1.4l.06-.07c-1.44 1.1-2.3 2.06-3.6 3.02.1.02-.58.53-.34.48-1.22 1.16-2.5 1.78-2.74 2.43-.57.5-.75.52-1.06.75l.13-.13-2.22 1.88c-.4.36-.35.54-1.1 1.12.2-.24-.1.01-.37.24.17-.15.2-.22-.18.05-.04.06-.1.13-.17.2-.01 0-.02.01-.02 0-.44.4-.35.35-.13.18 0 .02.02.01.1-.03-.52.33-1.3 1.1-1.44 1.07-1.35 1.16-2.26 2.06-3.37 3.04-.16.06.07-.2.4-.5l-.8.7c-.04-.07.43-.42.67-.64-1.05.7-1.9 1.75-3.1 2.6l-.2.24-.07.05c.03.02-.2.27-.36.42-.2.08-.1-.13-.65.34-.48.32-1.23 1.07-1.8 1.58.32-.25.24-.14.13-.01-.28.23-.48.3-.68.52l-.1-.05c.17-.02-.67.68-.75.8-.2.08.4-.4.43-.5l-1.67 1.4c-.55.55.17-.02-.07.28-.52.45-1 .93-1.63 1.4l.25-.1c-.95.88-1.55 1.36-2.27 1.85-6.94 6.67-.96 2-.96 2 3.02-2.28 4.37-3.72 7.8-6.65 3.07-2.5 3.98-3.05 7.1-5.72l4.52-3.84-.05.06.06-.07c.62-.68 1.92-1.6 2.68-2.37l.37-.2c.26-.26.58-.56.9-.77v.03c.4-.4.9-.77 1.08-.97v.03l.5-.44-.07.1c.7-.66 1.46-1.3 2.15-1.84l-.1-.02c1.5-1.12 1.9-1.7 3.28-2.7v.03c1.5-1.54 2.7-2.04 4.25-3.62-.2.2.12-.04.12-.01l.42-.36c.02.16.04.3.4.56l.06.36c.2.28.32.05.52.4-.1.05.27.42.04.32.52.75 1.44 1.04 2.28 1.86.18-.02.4.1.6.2-.5.6-1 1.18-1.5 1.74l-.2.1c-.15-.01-.65 1.1-.85 1.14l-.3.44c-.1.1-.33.32-.2.1-.32.37-.3.4-.5.7l-.4.35c-1.28 1.44-2.2 2.8-3.52 4.34-1.68 1.77-4.5 5.4-6.1 7.48-2.22 2.98-5.37 5.98-7.62 9.04-.1.08-.27.36-.25.36l-2.23 2.67s-10.8 12.95-1.8 3.77l-.03.08c1.27-1.42 2.04-2.34 2.77-3.44.27-.05 1-1.2 1.34-1.5l-.02.04c.64-.98 1.6-1.77 2.23-2.7-.02.04 0 .1-.16.3.5-.64 1.18-1.53 1.3-1.5 1.22-1.52 3-3.58 3.66-4.64l-.03.08c.37-.62.57-.72 1.04-1.37.04-.02.08-.06.08-.05.4-.66 1.43-1.75 1.8-2.26l.08.01.97-1.2-.38.43c-.01-.27.83-.83 1.45-1.76.7-.8 1.06-1.88 1.82-2.66.26-.45-.18.44.26-.2.1.04-.18.32 0 .2.45-.62.87-.9 1.42-1.66h.08c.68-1.03 1.55-1.72 1.97-2.43.76-1 .7-.5 1.44-1.62l.4-.33c.37-.42.16-.4.6-.84.02.07.54-.57.36-.26.63-.66 1.18-1.42 1.83-2.23.18.1.38.14.57.17.08.02.17.03.25.04-.07.66-.1 1.4-.2 1.6 0 0-.2 1.58-.12 1.96-.04-.32-.15.55-.2.3.04.42-.01 1.64-.13 2.12v-.1c-.25 1.8-.16 3.08-.4 4.7.1-.07-.03.78.1.58-.04 1.68-.5 3.02-.22 3.65-.05.76-.16.9-.22 1.28v-.18l-.24 2.9c-.01.53.14.63.01 1.57-.04-.3-.06.08-.1.43.01-.23-.01-.3-.1.16.01.07.02.17.02.26-.01 0-.01.02-.02.01-.03.6 0 .5.03.22.01.01.02-.01.05-.1-.14.6-.15 1.7-.27 1.77-.14 1.78-.14 3.05-.23 4.53-.07.16-.1-.2-.07-.62l-.08 1.05c-.08-.02.01-.6.02-.93-.24 1.23-.1 2.58-.36 4.03l.04.3-.02.1c.03 0 .05.33.04.55-.1.2-.16-.03-.22.7-.12.57-.1 1.63-.15 2.38.05-.4.08-.27.08-.1-.03.36-.12.56-.1.85l-.1.03c.1-.13.01.95.04 1.1-.1.2-.01-.57-.05-.66l-.2 2.18c0 .78.1-.13.15.25-.04.7-.04 1.36-.17 2.14l.1-.24c-.05 1.3-.13 2.06-.3 2.92-.2 9.63.75 2.1.75 2.1.53-3.75.46-5.72.8-10.2.4-3.94.66-4.97.97-9.06l.5-5.94c-.04-.92.23-2.5.22-3.58l.1-.4c0-.37.01-.8.08-1.17l.02.03c0-.56.08-1.17.08-1.45l.02.02.05-.67.02.12c.03-.97.12-1.96.22-2.82l-.1.06c.27-1.86.15-2.55.42-4.23h.02c-.03-2.15.46-3.35.45-5.56 0 .28.06-.1.07-.1.01-.2.02-.38.04-.57.2.06.37.12.56.16l-.1-.14c.42.12.56.4 1.08.24.23-.1-.4-.2.06-.2.57.14 1.47.27 2.23.22-.1-.13.12-.16.32-.22l.04.12c.76-.3.35.25 1.1-.08l.07-.14.16 2.25-.07.2c-.12.1.3 1.23.2 1.4l.1.52c-.01.15 0 .46-.06.2.04.5.06.5.13.84l-.03.53c.12 1.92.42 3.54.58 5.56.07 2.44.64 7 .98 9.6.54 3.68.43 8.02 1 11.78-.01.12.06.44.08.44l.3 3.46s1.53 16.8 1.4 3.94l.04.08c-.1-1.9-.2-3.1-.47-4.4.15-.22-.13-1.56-.1-2v.04c-.24-1.14-.1-2.4-.34-3.5.02.04.07.06.1.32-.1-.8-.24-1.92-.15-2-.2-1.94-.42-4.65-.7-5.87l.04.08c-.17-.7-.1-.9-.23-1.7.01-.04.01-.1.02-.1-.18-.76-.23-2.25-.33-2.87l.06-.05-.16-1.53.04.58c-.2-.18.01-1.17-.22-2.27-.07-1.04-.58-2.08-.6-3.17-.13-.5.18.44.04-.32.1-.03.1.35.15.15-.12-.75-.02-1.25-.17-2.18l.07-.05c-.25-1.2-.12-2.3-.32-3.1-.18-1.25.14-.86-.13-2.16l.05-.52c-.04-.56-.16-.4-.17-1.02.07.03-.02-.8.07-.43-.02-1-.2-2.03-.32-3.2.02-.02.04-.03.06-.05-.03.01-.04 0-.07.01-.01-.06-.01-.13-.01-.2.05-.04.13-.08.22-.1l-.05.15c.2-.1.24-.16.37-.2-.08.1 0 .16.2.07.01.02.03.03.04.05l-.08.14.1-.1c.42.53.94 1.1 1.03 1.32 0 0 .98 1.26 1.3 1.47-.26-.2.28.5.06.35.32.27 1.15 1.16 1.4 1.6l-.07-.07c1.1 1.44 2.06 2.3 3 3.6.02-.1.53.58.48.34 1.15 1.22 1.78 2.5 2.43 2.74.5.57.5.75.75 1.06l-.13-.13 1.87 2.22c.36.4.54.35 1.12 1.1-.24-.2.01.1.24.37-.15-.17-.22-.2.05.18.06.04.13.1.2.17 0 .01.01.02 0 .02.4.44.34.35.18.13.02 0 .01-.02-.03-.1.33.53 1.1 1.32 1.06 1.44 1.16 1.35 2.06 2.26 3.03 3.38.06.16-.2-.07-.5-.4l.7.8c-.07.04-.42-.44-.64-.67.7 1.05 1.75 1.9 2.6 3.1l.24.2.05.07c.02-.02.27.2.42.36.08.2-.13.1.33.65.3.5 1.07 1.23 1.58 1.8-.25-.32-.14-.24-.01-.13.23.28.3.48.52.68l-.05.1c-.02-.17.68.67.8.75.08.2-.4-.4-.5-.43l1.4 1.67c.55.55-.02-.17.28.07.45.52.93 1 1.4 1.63l-.1-.25c.87.95 1.36 1.55 1.85 2.27 6.66 6.96 2 .96 2 .96-2.27-2.97-3.7-4.3-6.63-7.74-2.5-3.07-3.04-3.98-5.7-7.1l-3.84-4.56c-.68-.62-1.6-1.93-2.37-2.7l-.2-.37c-.26-.26-.56-.58-.77-.9h.03c-.4-.4-.77-.9-.96-1.1h.03l-.44-.5.1.07c-.66-.7-1.3-1.47-1.84-2.16l-.02.1c-1.12-1.5-1.7-1.9-2.7-3.3h.03c-1.54-1.5-2.04-2.7-3.6-4.25.2.2-.04-.12-.01-.12l-.42-.48c.24-.15.46-.3.6-.27 0 0 .86-.52.9-.8-.08.22.36-.1.33.1.1-.28.6-.86.9-1l-.03.05c.54-.45.8-.94 1.08-1.44l1.52 1.3.1.2c-.01.15 1.1.65 1.15.85l.45.3c.1.1.33.33.1.18.37.3.4.3.7.5l.35.4c1.45 1.27 2.8 2.2 4.36 3.5 1.78 1.67 5.42 4.46 7.5 6.07 3 2.2 6 5.34 9.08 7.58.08.1.36.26.36.25l2.68 2.22c.01-.03 13 10.7 3.78 1.75l.08.03c-1.43-1.26-2.35-2.03-3.45-2.75-.05-.27-1.2-1-1.5-1.33l.04.02c-.98-.63-1.78-1.6-2.72-2.22.04.02.1 0 .3.16-.64-.5-1.53-1.18-1.5-1.3-1.52-1.2-3.6-2.97-4.66-3.64l.08.03c-.62-.37-.72-.57-1.37-1.03-.03-.04-.06-.08-.05-.08-.67-.4-1.76-1.42-2.27-1.78l.01-.08-1.2-.97.44.38c-.27.02-.83-.83-1.77-1.45-.8-.68-1.88-1.05-2.67-1.8-.46-.26.44.18-.2-.26.04-.1.32.18.2 0-.62-.45-.9-.87-1.67-1.4l.02-.08c-1.03-.67-1.72-1.54-2.44-1.96-1.02-.75-.5-.7-1.62-1.43l-.33-.4c-.42-.37-.4-.16-.84-.6.07-.03-.58-.54-.26-.35-.64-.6-1.37-1.13-2.14-1.74.01-.01.01-.01.01-.02-.15-.03.16-.47-.07-.43.1-.28.2-.52.32-.74.66.07 1.4.1 1.62.2 0 0 1.58.2 1.95.12-.33.04.55.15.3.2.42-.04 1.64.01 2.12.14h-.1c1.8.25 3.08.17 4.7.42-.07-.1.78.03.58-.1 1.68.05 3.02.5 3.65.22.76.05.9.16 1.28.22h-.18c1.42.1 1.84.14 2.9.25.53.02.63-.13 1.57-.01-.3.03.08.06.43.1-.23-.01-.3.01.16.1.07-.01.17-.02.26-.02 0 .01.02.01.01.02.6.03.5 0 .22-.03.01-.01-.01-.02-.1-.05.6.14 1.7.15 1.77.27 1.78.14 3.05.15 4.53.24.16.07-.2.1-.62.07l1.05.08c-.02.08-.6-.01-.93-.02 1.23.25 2.58.1 4.03.36l.3-.04.1.02c0-.03.33-.05.55-.04.2.1-.03.16.7.22.57.12 1.63.12 2.38.15-.4-.05-.27-.08-.1-.08.36.03.56.12.85.12l.03.1c-.13-.1.95-.01 1.1-.03.2.1-.57.01-.66.05l2.18.2c.78 0-.13-.1.25-.15.68.05 1.36.04 2.14.17l-.24-.1c1.3.05 2.06.14 2.9.3 9.6.23 2.1-.72 2.1-.72-3.75-.53-5.7-.47-10.2-.82-3.94-.4-4.97-.67-9.06-.98l-5.93-.5c-.92.04-2.5-.23-3.58-.22l-.4-.1c-.37 0-.8-.01-1.17-.1l.03-.02c-.56 0-1.17-.1-1.45-.1h.02l-.67-.05.12-.02c-.97-.03-1.95-.12-2.82-.23l.06.1c-1.85-.27-2.55-.15-4.22-.43h.02c-2.15.03-3.35-.47-5.56-.46.28 0-.1-.06-.1-.07l-.44-.03c-.02-.1-.05-.17-.12-.25.08-.45.28-.5.34-.73l.01.12c.1-.88.13-1.13.16-1.78-.01-.4-.25-.46-.22-1.02.1.18.08-.05.07-.27.02.14.06.18.12-.1-.03-.04-.06-.1-.08-.15.01 0 .01-.01.03-.01-.07-.36-.1-.3-.1-.12-.02-.01-.03.01-.06.06.06-.24-.02-.57-.04-.8l1.9-.14.2.07c.1.12 1.23-.3 1.4-.2l.52-.1c.15.01.46 0 .2.06.5-.04.5-.07.84-.14l.53.03c1.92-.13 3.54-.44 5.56-.6 2.44-.08 6.98-.68 9.6-1.02 3.67-.56 8.02-.47 11.78-1.06.12.01.44-.07.44-.08l3.46-.32s16.8-1.6 3.93-1.4l.08-.04c-1.9.12-3.1.22-4.4.5-.22-.2-1.56.1-2 .1h.04c-1.14.25-2.4.12-3.5.35.04-.02.06-.07.32-.1-.8.1-1.92.25-2 .16-1.94.22-4.65.44-5.87.72l.08-.04c-.7.18-.9.1-1.7.24-.04-.01-.1-.01-.1-.02-.76.18-2.25.24-2.87.35l-.05-.06-1.53.17.58-.04c-.18.2-1.17 0-2.27.23-1.04.08-2.08.6-3.17.6-.5.14.44-.18-.32-.04-.03-.1.35-.1.15-.15-.75.12-1.25.03-2.18.18l-.05-.07c-1.2.26-2.3.13-3.1.34-1.25.2-.86-.14-2.16.14l-.52-.05c-.56.04-.4.16-1 .18.03-.07-.8.03-.43-.07-.85.02-1.7.17-2.65.3-.17-.43-.36-.8-.57-1.16.46-.38.9-.77 1.1-.85 0 0 1.26-.98 1.47-1.3-.2.26.5-.28.35-.06.27-.32 1.16-1.15 1.6-1.4l-.07.07c1.44-1.1 2.3-2.06 3.6-3-.1-.02.58-.53.34-.48 1.22-1.15 2.5-1.78 2.74-2.43.57-.5.75-.5 1.06-.75l-.13.13 2.22-1.87c.4-.36.35-.54 1.1-1.12-.2.24.1-.01.37-.24-.17.15-.2.22.18-.05.04-.06.1-.13.17-.2.01 0 .02-.01.02 0 .44-.4.35-.34.13-.18 0-.02-.02-.01-.1.03.53-.33 1.32-1.1 1.44-1.06 1.35-1.16 2.26-2.06 3.38-3.03.16-.06-.07.2-.4.5l.8-.7c.04.07-.44.42-.67.64 1.05-.7 1.9-1.75 3.1-2.6l.2-.24.07-.05c-.02-.02.2-.27.36-.42.2-.08.1.13.65-.33.5-.3 1.23-1.07 1.8-1.58-.32.25-.24.14-.13.01.28-.23.48-.3.68-.52l.1.05c-.17.02.67-.68.75-.8.2-.08-.4.4-.43.5l1.67-1.4c.55-.55-.17.02.07-.28.52-.45 1-.93 1.63-1.4l-.25.1c.95-.87 1.55-1.36 2.27-1.85 6.96-6.66.96-2 .96-2-3.03 2.27-4.37 3.7-7.8 6.63-3.07 2.5-3.98 3.04-7.1 5.7l-4.5 3.84.05-.06-.06.07c-.62.68-1.92 1.6-2.68 2.36l-.37.2c-.26.26-.58.56-.9.77v-.03c-.4.4-.9.77-1.1.96v-.03l-.5.44.07-.1c-.7.66-1.47 1.3-2.16 1.84l.1.02c-1.5 1.12-1.9 1.7-3.3 2.7v-.03c-1.5 1.54-2.7 2.04-4.25 3.6.14-.15.01-.06-.07-.01-.28-.38-.62-.75-.83-1.22l-.2-.08V377c-.04.04-.22-.07-.3-.17.01-.17.2-.16-.1-.5-.08-.17-.25-.35-.46-.5l-.65-.42c.17.18.07.17-.04.14-.16-.14-.18-.32-.35-.38l.08-.14c-.02.17-.56-.22-.66-.2-.03-.17.33.12.43.08l-.45-.32.92-1.06.2-.1c.15.01.65-1.1.85-1.15l.3-.45c.1-.1.33-.33.18-.1.3-.37.3-.4.5-.7l.4-.35c1.27-1.45 2.2-2.8 3.5-4.36 1.67-1.78 4.46-5.42 6.07-7.5 2.2-3 5.34-6 7.58-9.08.1-.08.26-.36.25-.36l2.22-2.68s10.73-13 1.78-3.78l.03-.08c-1.26 1.43-2.03 2.35-2.75 3.45-.27.05-1 1.2-1.33 1.5v-.04c-.63.98-1.6 1.78-2.22 2.72.02-.04 0-.1.16-.3-.5.64-1.18 1.53-1.3 1.5-1.2 1.52-2.97 3.6-3.64 4.66l.03-.08c-.37.62-.57.72-1.03 1.37-.04.03-.08.06-.08.05-.4.67-1.42 1.76-1.78 2.27l-.08-.01-.97 1.2.38-.44c.02.27-.83.83-1.45 1.77-.68.8-1.05 1.88-1.8 2.67-.26.46.18-.44-.26.2-.1-.04.18-.32 0-.2-.45.62-.87.9-1.4 1.67h-.08c-.67 1.03-1.54 1.72-1.96 2.44-.75 1.02-.7.5-1.43 1.62l-.4.33c-.37.42-.16.4-.6.84-.06-.08-.57.57-.38.25-.56.58-1.05 1.27-1.6 1.98-.3-.1-.6-.2-.88-.4l.08.2c-.17-.04-.32-.08-.46-.12.06-.6.1-1.18.18-1.38 0 0 .2-1.58.12-1.95.04.33.15-.55.2-.3-.04-.42.01-1.64.14-2.12v.1c.25-1.8.17-3.08.42-4.7-.1.07.03-.78-.1-.58.05-1.68.5-3.02.22-3.65.05-.76.16-.9.22-1.28v.18c.1-1.42.14-1.84.25-2.9.02-.53-.13-.63-.01-1.57.03.3.06-.08.1-.43-.01.23.01.3.1-.16-.01-.07-.02-.17-.02-.26.01 0 .01-.02.02-.01.03-.6 0-.5-.03-.22-.01-.01-.02.01-.05.1.14-.6.15-1.7.27-1.77.14-1.78.15-3.05.24-4.53.07-.16.1.2.07.62l.08-1.05c.08.02-.01.6-.02.93.25-1.23.1-2.58.36-4.03l-.04-.3.02-.1c-.03 0-.05-.33-.04-.55.1-.2.16.03.22-.7.12-.57.12-1.63.15-2.38-.05.4-.08.27-.08.1.03-.36.12-.56.12-.85l.1-.03c-.1.13-.01-.95-.03-1.1.1-.2.01.57.05.66l.2-2.18c0-.78-.1.13-.15-.25.05-.68.04-1.36.17-2.14l-.1.24c.05-1.3.14-2.06.3-2.9.2-9.63-.74-2.1-.74-2.1-.53 3.75-.47 5.7-.82 10.2-.4 3.94-.67 4.97-.98 9.06l-.5 5.93c.04.92-.23 2.5-.22 3.58l-.1.4c0 .37-.01.8-.1 1.17l-.02-.03c0 .56-.1 1.17-.1 1.45l-.02-.02-.05.67-.02-.12c-.03.97-.12 1.95-.23 2.82l.1-.06c-.27 1.85-.15 2.55-.43 4.22l-.02-.02c.02 1.48-.2 2.5-.35 3.73l-4.38-11.3-3.15-8.06c-.44-3.5-.4-7.47-.95-10.95.01-.12-.07-.44-.08-.44l-.32-3.46s-1.6-16.8-1.4-3.93l-.04-.08c.14 1.9.25 3.1.5 4.4-.15.22.14 1.56.12 2v-.04c.25 1.14.12 2.4.35 3.5-.02-.04-.07-.06-.1-.32.1.8.25 1.92.16 2l.4 3.87-9.13-22.74c2.98-.8 6.08-1.4 8.7-1.7 2.13-.24 3.94-.4 5.14-.44 1.2-.08 1.76-.15 1.4-.22-.36-.04-1.66-.17-4.2-.1-2.5.06-6.3.32-11.43 1.53 0-.01 0-.01-.01-.01l.18-.07c-.07.02-.13.04-.2.05l-2.48-6.07c5.77-1.6 11.83-2.48 18.1-2.48 37.3 0 67.6 30.3 67.6 67.6.02 37.28-30.28 67.58-67.58 67.58z"/><path d="M352.72 231.5h-.01l-.05.1.06-.1zm-2.32-18.6c-.25-.03-.5-.05-.77-.05-.06 0-.1.01-.17.01-.23-.12-.7-.26-1.54-.25l.02-.03c-.7.1-1.1.3-1.47.63-.15-.1-.5.27-.66.32v-.02c-.26.35-.76.45-.98.83 0-.02-.03-.06.04-.13-.2.23-.44.56-.53.52-.45.56-.96 1.46-.96 1.95l-.02-.04c.02.28-.1.32-.13.6-.02.01-.03.03-.03.02.02.3-.15.8-.14 1.03H343l-.02.56.02-.2c.18.08-.14.42.01.82 0 .4.45.7.46 1.07.13.15-.18-.12-.04.13-.1.03-.1-.1-.15-.02.1.25.03.46.2.75l-.06.04c.3.35.26.8.53 1 .3.35-.02.4.38.7l.04.2c.13.17.2.03.3.23-.06.03.16.25.02.2.3.45.86.62 1.36 1.1.2-.02.46.2.6.16-.01.06.62.3.22.25-.03-.01-.1-.03-.08-.05l-.07.05c.3.3.7.2 1.07.33-.1-.05-.26-.1-.14-.1l.35.1-.1.04c.17.06.35.1.52.15l-.06-.1c.25.07.33.23.64.15.14-.05-.24-.12.04-.13.34.08.88.16 1.33.13-.05-.08.07-.1.2-.13l.03.07c.46-.18.2.15.66-.05l.06-.12c.37-.25.28.1.66-.26-.17.08-.14-.12.08-.17l-.03.1c.1-.06.14-.1.22-.12-.05.07.01.1.17.02l-.08.14.27-.27c.3-.04.6-.37.75-.34 0 0 .5-.3.55-.48-.04.13.22-.07.2.06.07-.16.36-.5.53-.6l-.02.03c.54-.44.63-.97 1.02-1.44-.1-.02.1-.28-.04-.26.18-.58.64-.98.36-1.3.05-.27.17-.3.2-.44l.01.07.1-1.06c-.03-.2-.17-.23-.15-.56.07.1.05-.03.04-.16.01.08.04.1.07-.07-.02-.02-.03-.06-.05-.1 0 0 .01-.01.02-.01-.04-.2-.06-.17-.05-.07-.01 0-.02.01-.04.04.05-.23-.1-.6.01-.65-.17-.63-.42-1.03-.68-1.5.02-.08.12.01.2.14l-.18-.33c.07-.03.14.18.2.28-.08-.48-.53-.78-.75-1.26l-.12-.05c-.03.02-.13-.04-.2-.1.01-.1.13-.1-.05-.3-.08-.2-.43-.4-.66-.56.1.1.04.1-.02.08-.1-.1-.1-.2-.2-.23l.05-.08c-.01.1-.33-.13-.4-.13-.02-.1.2.07.25.05-.43-.3-.2-.16-.66-.43-.27-.08 0 .1-.16.1-.22-.1-.46-.14-.7-.3l.05.1c-.44-.1-.68-.2-.95-.35-.32-.02-.56 0-.77.03z"/><g fill="#fff"><path d="M219.74 372.1v-.1c-.36.05-.1-.18-.45-.15l.04-.05-.1.14c-.33.1-.14-.18-.5-.02.14.01.04.17-.12.12l.05-.07c-.1 0-.13.03-.2 0 .06-.03.04-.1-.1-.1l.1-.08-.27.1c-.2-.1-.5-.05-.58-.16 0 0-.42-.1-.53-.01.1-.06-.13-.12-.06-.2-.12.06-.45.08-.57-.02h.03c-.47-.15-.83 0-1.25-.16.01.1-.2.01-.17.13-.46.05-.78-.34-1-.02-.2-.01-.23-.1-.33-.15h.05l-.77-.1c-.15.01-.2.17-.44.1.1-.05-.01-.05-.1-.07.06 0 .08-.02-.03-.08-.02.02-.05.03-.08.03v-.02c-.16 0-.14.02-.06.04-.01.01 0 .02.02.04-.15-.1-.46-.06-.46-.17-.48-.04-.83.02-1.23.01-.04-.06.06-.1.18-.1l-.28-.02c.01-.08.17-.02.25-.03-.3-.18-.7.03-1.08-.14l-.1.05v-.01c0 .03-.1.07-.16.07-.05-.08.03-.16-.17-.18-.14-.1-.44-.03-.64-.02.1.03.07.06.02.08-.1-.01-.14-.1-.22-.07v-.1c.03.1-.27.06-.3.1-.04-.08.16-.04.2-.1l-.58-.07c-.22.04.02.1-.1.16-.18-.01-.37.03-.57-.05l.05.1c-.35.02-.55-.02-.77-.14-2.64.32-.67.85-.67.85.98.33 1.53.16 2.73.26 1.04.2 1.3.4 2.4.48.52.1 1.08.13 1.6.18.26-.1.67.1.97.03l.1.1c.1-.02.22-.03.32.02v.02c.15-.03.32.02.4.01v.02l.18.02-.03.03c.26-.02.53.01.76.07v-.1c.48.17.7.01 1.12.2v.02c.6-.15.87.28 1.5.15-.08.02.02.05.02.07.27.01.56.04.6-.13.2.03.15.08.17.14.01-.07.18-.08.34-.06h-.07l.44.04-.07-.15c.23.07.03.18.26.18v-.12c.32.07.48.27.78.4.3.06.64.1.96.12l-.53-1.27-.65-.2c.01.1-.07.1-.16.1zm14.7 2.2h.03c-.5-.14-.8-.2-1.18-.1-.02-.1-.16-.1-.3-.12l.48 1.14c.9.12 3.73.42.96-.9zm16.76-5.02l-.22-.24c.82.43 1.6.6 2.34.88.45.03-.53-.4.36-.17l2.38.92c-.13.04-.96-.3-.78-.1.17 0 1.36.46 1.26.26l-.02.16c.32.07.5.27.9.42.2.04.37.03-.06-.16.84.26 2.05.56 2.63.9.8.3.5.35.68.55.24.08.63.15.64.1l.1.05.37.03c1.52.8 3.12.98 4.4 1.72-.36-.1-1-.42-1.04-.3l1.15.42c-.48-.15-.9-.22-.74-.06l5.03 1.67c.01.2 1.26.54 1.88.93-.08-.06-.1-.1-.08-.1-.3-.13-.4-.2.26.01-.01.01 0 .02 0 .03.1.03.23.05.3.05.48.27.4.27.14.2.38.15.8.3.44.27 1 .47 1.2.26 1.8.43l3.16 1.2-.2-.05c.42.2.5.4 1.35.7.87-.27 2.16.84 4.04 1.4-.16-.26.74.18.7.01 1.7.85 3.2 1.1 5.1 2l-.1-.03c.48.34 1.84.76 2.33.82-.32.02.62.44.23.4.46-.02 2.16.74 2.16.74.27.3 1.6.64 2.35 1.08l1.12.2-.42-.01c.56.2.62.34.38.3.12.06.22.1.33.12l.26.03c-.04.04-.08.06-.13.1.46.13.57-.23.28-.18.36-.18.38-.22.5-.2.08.01.25-.02.22-.27-.06 0-.1-.12-.1-.24v-.01l-.03-.17.03.17v.01c.22-.9.35-.92.46-1.04.13-.14.2-.15.17-.28l.15-.04c.04-.12-.07-.14-.2-.03l-.14-.1-1-.5-1.77-.9c-.82-.3.27.23-.16.16-.93-.2-1.12-.5-1.86-.88l.17.2-1.54-.7h.26l-1.04-.45c-.33-.05.12.13.44.3-1.12-.5-2.2-.56-3.24-1.24l.18-.06c-.03.03.15.1.25.13 1.2.3-.8-.46-.8-.56-.38.01-1.35-.52-1.86-.5-1.9-1.1-3.62-1.37-5.07-2.15.43.07-.47-.28-.38-.36-.64-.35-.56-.07-1.15-.34l-.5-.38c-1.5-.36-.88-.6-2.28-1.08-.96-.16-1.98-1-3.4-1.35l.01-.13c-1.05-.32-1.5-.76-2.33-1.03-.17-.2.23.02.26-.14-.88-.24.32-.16-.3-.26-1.1-.62-2.53-.48-3.65-.98-1.28-.32-2.13-1.2-2.46-1l.6.28-1.67-.66v-.12c-.7-.2-2.25-1-3.15-1.2.01 0-.04-.04-.08-.08-.9-.27-1.06-.5-1.9-.66h.1c-1.45-.3-4.35-1.6-6.46-2.42 0-.18-1.23-.62-2.12-.95.28.1.33.05.4.05-1.28-.32-2.45-1.24-3.8-1.55h.05c-.44-.28-2-.65-2.12-1-.74-.18-1.47-.42-2.2-.7-.13-.05-.27-.1-.43-.2l-.06-.03-.02.06-.05.12-.12.28-.03-.06c-.03.05-.04.06-.08.14l-.12.27-.23.52-.42.92-.01.04c-.3.47-.28 1-.16 1.44.1.37.27.64.4.85.17.16.35.3.54.4l2.74 1.08 2.37.64c.83.44 1.66.8 3.1 1.24z"/><path d="M247.86 351.7c.42.4.44.6.92.94.2.2.44.37.65.55.18 0 .25.25.43.3l-.01.1c.06.01.12.04.13.1h-.02c.1.02.13.1.18.12l-.02.01.07.07h-.03c.13.07.22.18.28.3l.06-.06c.1.26.3.24.33.5l-.02.01c.37.12.13.48.48.63-.04-.02-.03.04-.05.04.1.1.17.24.33.16.05.1-.01.1-.06.14.07-.04.14.03.18.1h-.04c.05.06.08.13.13.2l.1-.1c.02.13-.14.1-.06.2l.1-.05c.05.17-.06.33-.08.52.22.64.7 1.3.65 2l-.08.05c-.12.04.22.14.1.2l.07.06c-.02.03-.03.08-.07.04.01.07.03.07.08.1l-.06.1c-.01.28.18.5.2.78-.1.37.1 1 .22 1.4.23.54-.26 1.2-.04 1.74-.02.02.02.07.04.06l-.02.5s-.02.62.07 1c.02.1.05.17.1.2.01 0 .03 0 .04.01l.15.06.06.03h.01.01l-.17-.07.02.01a.09.09 0 0 0 .05.01c.14.06.38-.17.66-.63l.03.01c.08-.3.1-.47-.04-.68.17-.03.02-.24.08-.3v.01c-.13-.18.1-.37-.01-.53.01.01.06.01.06.05-.02-.12-.07-.3.03-.3-.03-.3 0-.72-.18-.9l.03.01c-.1-.1-.02-.14-.1-.26h.02c-.12-.1-.04-.34-.1-.43h.07l-.04-.23-.01.1c-.2-.01.1-.2-.04-.35.01-.16-.42-.28-.35-.45-.1-.07.15.05.07-.06.1-.02.07.05.14.01-.06-.1.07-.2-.02-.34l.07-.02c-.16-.16.04-.37-.1-.47-.1-.18.2-.17.01-.34l.08-.1c0-.1-.13-.03-.1-.14.06-.01.02-.13.1-.1.06-.23-.24-.4-.14-.72-.13-.03-.1-.2-.2-.2.05-.02-.07-.28.08-.16.01.01.02.04 0 .04h.08c.1-.2-.15-.27-.2-.43-.01.05.02.1-.04.1l-.04-.15.07.01-.04-.23-.06.06c0-.12.1-.2-.04-.28-.08-.03-.06.14-.12.03-.01-.16-.01-.4-.07-.58-.07.05-.1 0-.13-.04l.07-.04c-.18-.14.12-.14-.04-.3h.05l-.16.02c-.2-.1.1-.16-.18-.25.05.06-.13.1-.15.01l.08-.01c-.04-.04-.07-.04-.08-.08.05.01.1-.03.05-.1h.1l-.2-.07c.01-.14-.17-.25-.1-.35 0 0-.1-.24-.22-.23.1.01.03-.13.12-.14-.1-.02-.26-.14-.24-.25h.02c-.1-.28-.37-.34-.46-.6-.06.06-.1-.07-.17.02-.25-.13-.13-.52-.46-.36-.1-.07-.03-.16-.06-.2l.03.01c-.17-.15-.2-.2-.32-.32-.08-.03-.2.07-.28-.06.08-.01.03-.05-.01-.08.03.02.06.01.03-.07-.02.01-.04 0-.06 0 0 0 0-.01.01-.01-.08-.05-.08-.02-.06.01-.01.01-.01.02-.02.04-.01-.12-.2-.18-.12-.27-.22-.17-.44-.2-.64-.33.02-.06.1-.06.15-.03l-.13-.1c.05-.06.1.03.15.05-.06-.23-.38-.17-.48-.4l-.08.02v-.02c-.02.03-.1.03-.12.02.02-.07.1-.12.01-.2-.03-.1-.22-.13-.33-.17.04.05 0 .07-.03.07-.05-.03-.03-.1-.08-.1l.05-.08c-.04.08-.17-.01-.2.01.02-.07.1 0 .15-.03l-.28-.2c-.14-.01-.04.08-.13.12-.1-.05-.2-.05-.28-.17l-.02.1c-.2-.06-.3-.13-.35-.28-.8-.12-.97.04-.97.22s.2.4.2.4c.37.47.73.44 1.3.78zm24.7 7.24c.34-.18.5-.1.8-.37.16-.1.3-.24.45-.36 0-.15.2-.14.22-.28l.07.04c.01-.05.03-.1.08-.08h.01c.01-.07.08-.08.1-.12h.01l.05-.04.01.03c.04-.1.12-.16.2-.18l-.05-.07c.2-.02.16-.2.35-.2l.01.02c.04-.3.36-.05.4-.35-.01.04.03.03.04.05.07-.07.15-.14.05-.3.06-.04.08.01.12.06-.04-.06-.01-.12.03-.16v.04l.12-.1-.1-.1c.1-.01.1.13.16.06l-.07-.1c.1-.05.26.06.4.07.4-.22.66-.75 1.14-.82l.07.06c.08.1-.01-.22.07-.14l.01-.08c.02.01.06.01.06.05.04-.02.03-.04.04-.1l.1.04c.2-.05.23-.27.4-.35.28 0 .56-.36.72-.58.2-.36.82-.16 1-.55.02.01.02-.04.01-.05l.3-.17s1.36-.86-.25-1.06v-.03c-.2.05-.3.1-.32.28-.1-.13-.13.07-.2.05h0c-.02.17-.25.04-.27.2 0-.01-.03-.05-.01-.07-.05.06-.12.15-.18.07-.14.13-.38.23-.4.43l-.01-.03c0 .13-.06.06-.1.15-.01-.01-.02-.01-.02-.02 0 .13-.17.13-.2.2l-.04-.05-.1.1.05-.02c.1.16-.16-.03-.18.13-.1.04.05.43-.1.4.01.1-.04-.14-.07-.04-.06-.08 0-.07-.06-.12-.03.08-.15-.01-.2.1l-.04-.06c-.02.18-.24.04-.23.2-.07.12-.2-.14-.2.05l-.1-.06c-.05.02.04.12-.04.12-.03-.05-.1 0-.1-.07-.17-.01-.15.27-.4.23.04.12-.08.1-.05.2-.03-.04-.15.1-.14-.06 0-.01.02-.02.03 0L276 355c-.16-.06-.1.17-.2.2.04 0 .07-.02.07.03l-.08.04-.02-.06-.14.05.06.05c-.08.01-.17-.1-.17.04.01.07.1.05.06.1-.1.01-.26.02-.37.06.06.07.03.08.01.1l-.04-.06c-.04.15-.13-.1-.18.03l-.02-.05.06.15c-.01.18-.14-.1-.12.14.03-.04.1.12.04.13l-.03-.07c-.02.03-.01.06-.04.06-.01-.04-.05-.1-.08-.06v-.1.16c-.1-.02-.14.12-.22.05 0 0-.15.04-.12.16-.01-.07-.1-.05-.12-.13.01.1-.05.2-.14.16v-.01c-.2.03-.18.26-.37.26.05.07-.04.07.04.16-.07.18-.37-.02-.22.3-.05.06-.12-.02-.16-.01h0c-.1.1-.13.12-.22.17-.02.06.06.2-.04.2-.01-.07-.04-.04-.06-.02.01-.02.01-.04-.06-.05.01.02 0 .04 0 .05v-.01c-.03.05-.02.06.01.05 0 .01.01.02.03.03-.1-.03-.13.1-.2.01-.13.12-.17.28-.26.4-.04-.04-.04-.1-.02-.14l-.07.07c-.04-.07.02-.07.04-.1-.17-.04-.13.25-.3.23l.01.07h-.01c.02.03.02.08.01.1-.06-.05-.1-.13-.14-.1-.08-.03-.1.12-.15.2.04-.01.05.03.05.06-.03.02-.08-.03-.1.01l-.06-.08c.06.07-.02.13-.01.17-.06-.05.01-.08-.01-.13-.1.1-.06.04-.17.13-.02.1.06.07.08.16-.04.05-.06.14-.15.14l.07.06c-.07.12-.13.16-.25.13-.38 1.08.36.88.36.88.38-.04.4-.35.72-.64z"/><path d="M276.7 363.16c.34-.18.52-.1.8-.38.17-.1.3-.24.46-.36 0-.15.2-.14.23-.3l.07.04c.01-.05.03-.1.08-.08h.01c.01-.08.08-.08.1-.12h.01l.05-.04.01.03c.05-.1.12-.16.2-.18l-.05-.07c.2-.02.16-.2.36-.2l.01.02c.04-.3.36-.06.42-.36-.01.04.03.03.04.05.07-.08.15-.15.05-.3.06-.04.08.01.12.06-.04-.06-.01-.12.04-.16v.04l.12-.1-.1-.1c.1-.01.1.13.16.06l-.07-.1c.1-.05.27.06.4.07.42-.23.68-.76 1.16-.84l.07.06c.08.1-.01-.23.07-.14l.01-.08c.02.01.06.01.06.05.04-.02.03-.04.04-.1l.1.04c.2-.05.24-.27.42-.36.3 0 .57-.37.74-.6.2-.36.83-.18 1-.57.02.01.02-.04.01-.06l.3-.18s1.4-.88-.24-1.06l-.01-.03c-.2.05-.3.1-.32.3-.1-.13-.14.07-.2.05h0c-.02.17-.26.04-.28.2 0-.01-.03-.05-.01-.07-.05.06-.12.16-.18.08-.14.13-.4.24-.4.44l-.01-.03c0 .13-.07.06-.1.15-.01-.01-.02-.01-.02-.02 0 .13-.17.14-.2.2l-.04-.05-.12.1h.05c.1.16-.16-.03-.18.13-.1.04.04.43-.1.42.01.1-.04-.14-.07-.04-.06-.08 0-.07-.06-.12-.04.08-.16-.01-.2.1l-.04-.06c-.02.18-.24.05-.23.2-.07.12-.2-.14-.22.06l-.1-.06c-.05.02.04.12-.04.12-.03-.05-.1 0-.1-.07-.17 0-.15.27-.4.24.04.12-.08.1-.05.2-.03-.04-.16.1-.14-.06 0-.01.02-.02.03 0l-.03-.07c-.16-.06-.1.17-.2.2.04 0 .07-.03.07.03l-.08.05-.02-.06-.14.05.06.05c-.08.01-.17-.1-.18.05 0 .07.1.05.06.1-.1.01-.26.02-.38.07.06.07.03.08.01.1l-.05-.06c-.05.16-.13-.1-.2.03l-.02-.05.06.15c-.01.2-.14-.1-.13.14.03-.04.1.12.04.13l-.03-.07c-.02.03-.01.06-.04.06-.01-.04-.05-.1-.08-.05l-.02-.1v.16c-.1-.02-.14.12-.23.05 0 0-.16.05-.12.16-.01-.07-.1-.05-.12-.13.01.1-.05.2-.14.16v-.01c-.2.03-.18.27-.37.27.05.07-.04.08.04.16-.07.18-.37-.02-.23.3-.05.06-.12-.02-.16-.01v-.02c-.1.1-.13.13-.22.18-.02.06.06.2-.04.2-.01-.07-.04-.04-.06-.02.01-.02.01-.04-.06-.05.01.02 0 .04 0 .05h-.01c-.04.05-.02.06.01.05 0 .01.01.02.03.03-.1-.03-.14.1-.2.01-.13.12-.17.28-.27.4-.04-.04-.04-.1-.02-.14l-.07.07c-.04-.07.02-.07.04-.1-.17-.04-.14.25-.32.23v.07h-.01c.02.03.02.08.01.1-.06-.05-.1-.13-.15-.1-.08-.02-.1.12-.15.2.04-.01.05.03.05.06-.03.02-.08-.02-.1.02l-.06-.08c.06.07-.02.13-.01.17-.06-.05.01-.08-.01-.13-.1.1-.06.04-.17.13-.02.1.06.07.08.16-.05.05-.06.14-.16.14l.07.06c-.07.12-.14.16-.25.14-.4 1.1.36.88.36.88.44-.1.46-.4.78-.7zM220.2 309h0l.04.1z"/><path d="M215.7 360.8v.08c.01-.04.01-.07.01-.1l-.86-2.05c-.3 3.6-.84 11.1.83 2.08zm1.92-25.8c-.05-.48.1.42.1-.28.1-.01.03.33.12.16.01-.7.2-1.12.2-1.97l.08-.03c-.04-1.12.27-2.08.2-2.83.03-1.15.28-.75.23-1.95l.14-.45c.06-.5-.1-.37 0-.93.06.04.1-.7.14-.37.2-1.27.06-2.6.36-4.27-.1-.38.04-1.22-.03-1.5.06-.04.13-1.7.18-.74 0 .08-.01.23-.03.22l.06.12c.2-.95.05-1.75.14-2.7-.04.28-.07.66-.1.4l.07-.88.05.2.13-1.3-.1.18c.1-.64.23-.86.17-1.6-.04-.33-.14.6-.12-.08l.37-3.24c-.1.1-.07-.2-.07-.5l.08-.03c-.04-1.17.2-.42.17-1.58l-.1-.2c-.1-1.05.2-.56.05-1.73-.02.46-.17.2-.12-.36l.07.15c0-.3-.03-.42 0-.63.03.2.1.1.1-.36l.08.3-.1-.88c.1-.67.05-1.74.14-2.03l.02-.78c.01-.4-.02-.86-.1-1.03.1.3.06-.52.15-.3-.1-.38-.25-1.5-.2-1.96l.02.08c-.16-1.66-.5-2.8-.7-4.26-.07.08-.18-.7-.25-.48-.38-1.48-.4-2.77-.85-3.23-.18-.67-.1-.82-.18-1.17l.06.16-.06-.2-1.2.27c.1.25.17.52.2.77l-.02-.02c.17.47.27 1.03.35 1.26l-.03-.02.15.6-.05-.1c.27.83.43 1.7.56 2.48l.07-.08c.25 1.67.48 2.25.6 3.76l-.02-.02c.44 1.88.13 3 .3 4.95-.02-.25-.05.1-.07.08-.01.92-.04 1.9.13 1.9-.03.67-.08.54-.15.62.08 0 .08.58.05 1.1l-.02-.24-.06 1.5.16-.3c-.1.8-.18.2-.2.95h.12c-.08 1.1-.3 1.73-.46 2.78-.34 4.4-.4 9.17-.93 13.25l-.1.17c-.13.07.1 1.15-.03 1.3l.02.48c-.03.13-.08.4-.1.17-.04.44-.02.45-.01.77l-.12.47c-.2 1.74-.17 3.23-.36 5.06-.07.46-.14 1.02-.2 1.62l.86 2.03c.07-.87-.2-1.8-.03-2.7zm-5.77-61.32l2 6.38 1.18-.27-.04-.1c.02 0 .05.04.08.1l.05-.01c-.3-.88-.72-1.76-.97-2.8l-.15-.24v-.08c-.03.01-.17-.25-.25-.44 0-.2.16-.04-.06-.66-.1-.52-.5-1.4-.78-2.02.1.35.04.25-.04.1-.1-.3-.1-.5-.22-.74l.08-.06c-.04.15-.38-.78-.46-.88 0-.2.23.46.3.52l-.7-1.86c-.3-.64-.04.15-.23-.14l-.7-1.82v.24c-.48-1.07-.7-1.73-.9-2.5-1.9-3.94.37 3.45 1.8 7.27zm47.65 49.45c1.1.36 1.34.6 2.5.87l1.67.44c.3-.05.7.2 1.03.2l.1.1c.1 0 .24.01.33.07l-.01.02c.17-.01.33.07.42.07h-.01l.2.05-.04.02c.28.02.56.1.8.2v-.1c.5.25.74.13 1.17.38l-.01.02c.66-.05.9.42 1.57.4-.08 0 .02.05.01.07.3.06.6.13.65-.03.2.06.15.1.16.17.02-.07.2-.05.37-.01l-.08.01.47.1-.05-.16c.23.1.01.18.26.22l.03-.1c.33.12.48.35.78.53 1.34.44 2.9.58 4.1 1.15l.03.1c-.01.13.4-.08.42.05l.16-.01c.03.03.1.08.03.1.13.04.14.03.25.02l.12.12c.52.22 1.02.2 1.57.4.63.35 1.95.58 2.7.7 1.1.12 2.15.96 3.27 1.06.03.03.13.01.13 0l.96.3s4.68 1.42 1.4-.65h.03c-.5-.22-.84-.33-1.25-.3-.01-.18-.43-.14-.54-.23l.02-.01c-.36.03-.64-.3-.98-.28.02-.01.04-.05.1-.04-.23-.05-.55-.1-.54-.2-.55-.13-1.3-.4-1.7-.35l.03-.02c-.23.05-.26-.06-.5-.07-.01-.02-.02-.03-.02-.03-.25.04-.63-.17-.82-.17v-.07l-.43-.1.16.06c-.1.16-.3-.2-.64-.18-.3-.1-.7.2-.98.02-.17.04.17-.1-.07-.1.02-.1.12-.03.08-.12-.22-.02-.32-.2-.6-.2l.01-.07c-.38.03-.62-.28-.88-.22-.37-.04-.17-.28-.58-.25l-.1-.14c-.15-.06-.15.1-.3-.01.03-.06-.2-.1-.1-.14-.37-.2-.84-.1-1.3-.4-.15.1-.4-.06-.5 0 0-.06-.52-.16-.2-.2.03 0 .07.01.06.03l.06-.06c-.26-.22-.56-.08-.84-.2.08.05.2.08.1.1l-.27-.1.07-.04-.4-.15.03.1c-.2-.1-.22-.24-.47-.2-.12.03.16.15-.06.12l-.96-.44c.01.1-.08.06-.18.05l.01-.07c-.4 0-.1-.2-.46-.22l.05-.04-.14.12c-.36.05-.13-.2-.54-.1.14.03.02.18-.14.1l.06-.06c-.1-.01-.14.01-.2-.03.07-.02.06-.1-.1-.12l.12-.06-.3.05c-.18-.13-.54-.14-.6-.26 0 0-.43-.18-.56-.1.1-.04-.13-.14-.04-.2-.14.04-.5 0-.6-.12h.03c-.48-.23-.9-.14-1.3-.37 0 .1-.23-.03-.2.1-.5-.03-.8-.46-1.05-.18-.22-.04-.23-.15-.33-.2h.06l-.82-.2c-.16-.01-.22.14-.48.02.1-.04-.01-.06-.1-.08.07.01.1-.01-.03-.1-.02.01-.06.02-.08.02v-.02c-.17-.03-.15 0-.07.03-.01.01 0 .02.02.05-.15-.13-.48-.13-.47-.24-.5-.12-.9-.12-1.3-.2-.03-.07.08-.1.2-.07l-.3-.07c.02-.08.18 0 .28.02-.3-.23-.76-.08-1.13-.32l-.1.04-.02-.02c-.01.03-.1.05-.18.04-.04-.08.05-.15-.15-.2-.14-.1-.46-.1-.68-.12.1.04.06.07.01.08-.1-.03-.14-.1-.23-.1l.02-.1c.01.1-.3.02-.34.04-.04-.08.17-.01.2-.06l-.6-.16c-.24.01.01.1-.1.15-.2-.04-.4-.03-.6-.15l.05.1c-.38-.04-.6-.1-.8-.27-2.87-.12-.82.73-.82.73.96.45 1.57.37 2.84.68zM214.53 258l.08.05c0-.02-.02-.03-.08-.05zm22.07 3.7h0zm-18.88-1.97h-.03.03z"/><path d="M213.3 258.9c1.16.24 1.44.45 2.66.6l1.76.25c.3-.08.74.12 1.08.07l.1.1c.12-.02.25-.02.35.04l-.01.02c.17-.03.35.04.44.02l-.01.02h.2l-.04.02c.3-.01.6.04.84.1l-.01-.1c.54.2.77.05 1.25.24h-.01c.67-.12.97.32 1.66.22-.1.01.03.05.02.07.3.03.62.07.66-.1.22.04.17.08.2.15.01-.07.2-.07.38-.05l-.08.02.5.06-.07-.16c.25.08.04.18.3.2l.02-.12c.35.08.53.3.87.44 1.43.3 3.03.26 4.33.7l.04.1c0 .13.4-.13.43 0l.17-.03c.04.03.13.07.05.1.14.03.15.01.26-.01l.14.1c.56.16 1.07.1 1.66.22.7.28 2.07.36 2.86.4 1.13 0 2.3.72 3.47.7.03.02.13 0 .14-.02l1.02.2s4.96.9 1.36-.8l.03-.02c-.55-.16-.9-.24-1.3-.16-.03-.18-.46-.1-.58-.17h.01c-.36.07-.7-.23-1.04-.17.02-.01.03-.06.1-.05-.24-.02-.58-.04-.58-.14-.58-.07-1.37-.25-1.77-.16l.03-.02c-.23.07-.27-.03-.52-.02-.01-.02-.03-.02-.02-.03-.25.07-.67-.1-.86-.08v-.07l-.46-.06.17.04c-.1.17-.33-.17-.67-.1-.3-.07-.7.27-1 .13-.17.06.16-.12-.08-.1.01-.1.12-.04.07-.13-.23.01-.35-.16-.64-.14v-.08c-.38.07-.67-.2-.93-.12-.38 0-.2-.26-.62-.18l-.13-.12c-.16-.04-.14.1-.32.02.02-.06-.22-.1-.1-.13-.4-.17-.87 0-1.4-.26-.14.1-.4-.02-.5.06-.01-.06-.55-.1-.22-.17.03 0 .07 0 .07.02l.05-.07c-.3-.2-.58-.02-.9-.1.1.04.2.05.12.1l-.3-.06.07-.05-.42-.1.05.1c-.2-.07-.26-.2-.5-.15-.12.04.18.14-.04.12l-1.03-.33c.02.1-.08.07-.18.07v-.08c-.4.04-.1-.2-.5-.17l.04-.05-.13.14c-.36.1-.16-.18-.57-.05.15.01.04.17-.14.1l.06-.06c-.1 0-.14.02-.2 0 .07-.03.05-.1-.1-.1l.12-.07-.3.08c-.2-.1-.57-.08-.64-.2 0 0-.46-.13-.6-.04.1-.05-.15-.12-.06-.2-.13.06-.5.06-.63-.05h.03c-.52-.17-.93-.04-1.4-.22.01.1-.24 0-.2.12-.5.02-.86-.37-1.1-.07-.23-.02-.25-.12-.37-.16h.06l-.86-.12c-.16.01-.2.16-.5.07.1-.05-.02-.05-.12-.07.07 0 .1-.02-.04-.08-.02.02-.05.02-.08.03h0c-.18-.01-.15.02-.07.04-.01.01 0 .02.02.04-.17-.1-.5-.08-.5-.2-.53-.06-.92-.02-1.37-.05-.04-.06.07-.1.2-.1l-.3-.03c.02-.08.2-.02.28-.02-.35-.2-.78 0-1.2-.2l-.1.05-.02-.01c0 .03-.1.06-.17.06-.05-.08.03-.16-.18-.2-.16-.1-.5-.05-.72-.05.12.03.07.06.02.08-.1-.02-.16-.1-.25-.08l.01-.1c.03.1-.3.05-.34.08-.05-.08.18-.03.2-.08l-.65-.1c-.24.03.03.1-.1.16-.2-.02-.4.02-.64-.08l.06.1c-.4 0-.62-.05-.86-.17-2.95.2-.75.82-.75.82 1.07.38 1.68.24 3.02.4zm-20.62-33.4c6.06 1.48 7.65 2 14 3.28l9.2 1.87c1.43.16 3.88.8 5.56 1.03l.63.2c.58.08 1.25.2 1.82.35l-.04.01c.86.12 1.82.35 2.25.4l-.04.01 1.04.2-.18-.01c1.5.25 3.03.56 4.38.87l-.1-.1c2.87.7 3.96.74 6.54 1.4l-.04.01c3.34.5 5.16 1.28 8.58 1.84-.43-.07.17.08.13.1 1.56.34 3.22.72 3.28.56 1.13.28.9.28 1.04.38.01-.07 1 .14 1.88.35l-.4-.07 2.53.62-.46-.26c1.32.4.3.25 1.58.55l.01-.12c1.84.52 2.87 1 4.6 1.6 3.66 1.1 7.45 2.3 10.98 3.9 1.74.83 3.44 1.76 4.77 2.98 1.3 1.2 2.14 2.9 2.6 4.52v.32c-.05.08.15.5.3 1 .14.47.28.97.25 1.1l.15.8c0 .23.03.7-.04.3.1.74.07.77.14 1.3l-.04.8c-.02 2.98-.1 5.55-.5 8.7l-2.3 15c-.86 5.78-2.66 12.36-3.7 18.25-.06.2-.12.7-.1.7l-1.2 5.34-2.55 10.42c-.5 2-.94 3.32-.7 3.05.26-.25 1.2-2.2 2.72-7.03l-.01.14c.82-2.9 1.25-4.74 1.6-6.8.24-.28.56-2.4.77-3.08v.07c.26-1.82.9-3.66 1.14-5.42 0 .07.04.12-.04.5.24-1.26.56-3 .67-3.07.58-3.02 1.44-7.22 1.65-9.18v.14c.1-1.12.25-1.43.42-2.67.03-.06.05-.15.05-.14.12-1.22.62-3.5.75-4.5l.08-.05.4-2.4-.16.9c-.13-.34.42-1.8.58-3.56.28-1.63.14-3.37.44-5.06.02-.82.04.73.14-.5.1-.03-.02.57.1.27.12-1.2.33-1.95.44-3.43l.08-.05c.05-1.94.4-3.65.28-4.95-.04-2 .25-1.35 0-3.45v-.83c-.08-.9-.2-.63-.33-1.63.04.02-.01-.3-.05-.55-.05-.25-.1-.43.02-.15-.25-1.13-.64-2.27-1.3-3.37-.6-1.1-1.5-2.25-2.66-3.27-.3-.14-.76-.45-1.2-.75-.44-.27-.88-.5-1.1-.6-.02-.14-2.67-1.4-1.1-.74.13.06.36.18.34.2l.2.03c-1.46-.9-2.8-1.3-4.35-1.94.45.2 1.06.45.64.33l-1.44-.6.32.06c-.7-.3-1.44-.56-2.15-.84l.27.18c-1.04-.43-1.4-.66-2.63-.96-.56-.12.98.44-.16.08-1.4-.52-3.55-1.24-5.4-1.78.15.13-.35-.01-.86-.13l-.04-.1c-2-.43-.67-.37-2.65-.8l.2-.01-.56.02c-1.8-.3-.9-.4-2.93-.7.78.18.33.25-.62-.02l.26-.01c-.53-.12-.72-.13-1.06-.23.32.04.2-.07-.6-.24l.54.04-1.5-.22c-1.12-.35-2.95-.67-3.4-.87 0 0-2.44-.6-3.03-.62.5.04-.84-.28-.44-.28-.65-.07-2.54-.4-3.28-.65l.14.02c-2.76-.68-4.78-.9-7.26-1.52.1.1-1.2-.2-.9-.04-2.6-.43-4.67-1.2-5.67-1.05-1.18-.22-1.38-.36-1.98-.5l.28.04-4.5-.9c-.82-.13-.98 0-2.44-.34.5.04-.1-.08-.66-.2.35.06.46.06-.25-.13-.1 0-.26-.02-.4-.04-.01-.01-.03-.02-.02-.02-.92-.17-.76-.1-.34-.02-.02.01.01.02.14.07-.93-.27-2.64-.54-2.74-.67l-7.03-1.3c-.24-.1.3-.04.97.08l-1.62-.33c.03-.08.94.15 1.44.25-1.9-.54-4-.73-6.23-1.35l-.48-.04-.13-.04c0 .03-.52-.04-.85-.1-.3-.14.06-.15-1.06-.4-.87-.27-2.5-.54-3.67-.8.62.16.4.15.14.1-.56-.13-.86-.28-1.3-.35l-.03-.1c.2.14-1.48-.26-1.7-.27-.3-.14.87.15 1.02.13-2.22-.55-1.13-.22-3.3-.83-1.17-.3.18.15-.4.05-1.03-.3-2.03-.63-3.1-1.22l.3.26c-1.83-.84-2.83-1.57-3.82-2.5-1.47-1.17-2.38-2.36-2.97-3.3-.6-.97-.88-1.7-1.06-2.2-.3-1.04-.33-.92-.36-.38.01.66.3 1.7.7 2.57.4.86.84 1.52.84 1.52.88 1.32 1.86 2.34 2.9 3.12 1.02.8 2.1 1.4 3.22 1.95.57.26 1.16.47 1.77.72.6.22 1.27.4 1.94.6 1.36.38 2.87.67 4.58 1.08z"/></g><path d="M222 421.37l.4.1c0-.03-.1-.06-.4-.1zm-4.18-.32l.34.08c-.01-.02-.1-.05-.34-.08zm13.2 2.97h-.1zm26.97-1.16l-.08-.16c.02.05.05.1.08.16z"/><path d="M258 422.87h0v-.01zm-13.74-.5h0l-.1.08zm-13.1 1.72c.01.01.02.03.03.04h.1l-.13-.04zm-5.94-2.6h0z"/><path d="M217.48 417.22l-.08.01c.06 0 .08 0 .08-.01zm30.14 3.06l-.16.1c.03.01.06.01.1.02l.18-.1c-.06 0-.12-.02-.1-.04zm12.34-.58l-.14-.03c-.66-.2-1.82-.4-2.33-.5l-1.3-.12c-.67.7-1.38 1.38-2.13 2 .2.02.44.03.74 0 .43-.06-.77-.24.1-.2l1.96.33 1.1.17.16.06c.1-.14.2-.15.2-.03l-.13.08c.08.12.01.14-.08.32-.07.15-.2.2-.13 1.13.06.1.12.22.18.2.1.23-.05.3-.13.32-.1.02-.12.07-.4.34.27-.14.27.24-.2.26.04-.05.07-.08.1-.13-.1.03-.18.04-.26.05-.12 0-.22 0-.35-.02.24-.05.14-.16-.45-.2l.4-.12-1.13.14c-.85-.2-2.23-.14-2.57-.33 0 0-1.85-.22-2.28-.07.14-.03.1-.07-.02-.1-1.22.7-2.5 1.3-3.86 1.76l.47.07-.03.03c2.5-.2 3.9.56 6.5.4-.32.02.13.08.1.12 1.18.05 2.44.12 2.48-.16.84.07.74.14.88.25-.01-.1 1.08-.2 1.76-.87l-.3.3c.37-.24.7-.6.9-1 .1-.2.18-.44.2-.67.04-.22.02-.52.01-.6-.08.08-.15.27-.24.43l.07-.53c.03-.08.06-.1.1-.13.06-.06.1-.1.1-.57h-.2l.14-1.24.07-.65.03-.34c.06-.1.01-.1-.04-.1zm-32.5 2.43c-.18-.1-.3-.2-.38-.28 0 0-.1-.06-.25-.18l-.57-.43c-.43-.33-.93-.66-1.13-.77.33.2-.44-.53-.16-.4l-.34-.25-.96.86 1.43 1.26 2.36.18z"/><g fill="#fff"><path d="M227.07 417.62h0l.01.01c0-.01 0-.01-.01-.01z"/><path d="M227.34 417.38h0l-.27.24zm19.62 2.65c-.36.12-1.44-.1-1.93.06-2.13-.48-3.86-.23-5.48-.55.43-.06-.53-.13-.47-.23-.72-.15-.55.1-1.2.01l-.58-.22c-1.55.1-1.02-.32-2.5-.36-.97.13-2.2-.38-3.63-.28l-.03-.13c-1.1.01-2.3-.34-2.33-.5-.9.03 5.9 3.73 10.63 3.73 3.07 0 4.7.07 7.26-1.22-.4-.04.28-.26.26-.3zm5.16 3.2c.02-.01 1.04.15 1.04.15.34.2 1.72.14 2.57.33l1.13-.14-.4.12c.6.02.7.14.45.2.13.02.23.02.35.02.08-.01.15-.02.26-.05-.03.05-.06.08-.1.13.48-.01.48-.4.2-.26.3-.28.3-.32.4-.34.08-.02.23-.1.13-.32-.05.02-.12-.1-.18-.2-.06-.92.06-.98.13-1.13.1-.18.16-.2.08-.32l.13-.08c.01-.12-.1-.1-.2.03l-.16-.06-1.1-.17c-.72-.12-1.28-.1-1.5-.13.4-.34-1.65 1.3-3.26 2.23zm-31.92-5.66l-.44-.33c-.73.01-1.35-.12-2.27-.03.01-.01-.05-.03-.1-.05-.93.01-1.16-.17-2-.06l.1-.04c-1.47.13-4.62-.23-6.9-.4-.06-.17-1.36-.23-2.3-.28.3.02.33-.05.4-.07-1.32.08-2.7-.46-4.08-.36l.05-.02c-.5-.14-2.1-.03-2.32-.34-.76.05-1.53.03-2.3-.03-.14-.01-.3-.03-.47-.06h-.07v.06l-.01.13-.03.3-.05-.05-.04.16-.03.3-.06.56-.12 1v.04c-.14.54 20.75 2.26 20.75 2.26l2.7-2.63-.4-.05z"/></g><path d="M434.74 390.93l-.3-.06c0 .02.08.04.3.06zm32.6-27.73l-.1-.28c.05.2.08.26.1.28zm-24.85-19.5l.6.85c.02-.03-.13-.25-.6-.85zm12.05 37.06v-.05c-.01-.08-.01-.18-.03-.26.02.1.02.2.03.3zm2.67-14.66l-.08-.24.08.24zm-17.14-20.36l.58.8c.01-.02-.14-.22-.58-.8zM452.25 381v-.05l-.02-.25.02.3z"/><defs ><path id="B" d="M392.73 323.24c33.4 0 60.6 27.2 60.6 60.6s-27.2 60.6-60.6 60.6-60.6-27.2-60.6-60.6 27.2-60.6 60.6-60.6m0-7c-37.3 0-67.6 30.3-67.6 67.6s30.3 67.6 67.6 67.6 67.6-30.3 67.6-67.6-30.3-67.6-67.6-67.6h0z"/></defs></svg>