<svg xmlns="http://www.w3.org/2000/svg" xmlns:xlink="http://www.w3.org/1999/xlink" viewBox="0 0 480 480" xmlns:v="https://vecta.io/nano"><path d="M434.24 390.56l-.3-.06c0 .02.08.04.3.06zm-11.34-2.23h0zm1.36-9.93h.07c-.05 0-.07.01-.07.01zm2.2-19.58l-.25.16c.02.01.08-.03.25-.16z"/><path d="M429.86 335.67l.01.03c.02 0 .02 0-.01-.03zm4.6 54.9l-.3-.06c0 .02.08.04.3.06zm-11.33-2.23h0zm1.35-9.93h.07c-.05 0-.07.01-.07.01zm2.2-19.58l-.25.16c.02.01.08-.03.25-.16zm3.4-23.15l.01.03c.02 0 .02 0-.01-.03z"/><path d="M203.55 340.6c-.24 17.2-1.45 25.02-2.42 46.02-.14 3.08-1.04 5.82-1.45 7.02-.82 2.4-1.64 6.47-1.96 8.76-.54 3.78 1.25 6.2 1.25 6.2l55.95 4.63-.3-1.42c-.36-1.76-1.48-3.28-3.06-4.13l-25.65-13.82c-2.4-1.3-1.66-4.53-1.77-7.25-.48-11.27 9.22-27.1 9.45-44.32.34-27.93-27.63-15.98-30.05-1.7z" fill="#fff"/><path d="M202 378.07l-.07.67c.01-.01.03-.18.07-.67zm-5.13 25.8v-.04c-.01-.06-.01-.13-.01-.2l.01.23zm16 16.2l.33.1c0-.03-.1-.06-.33-.1zm7.4-3.37h-.08c.06 0 .08 0 .08-.01zm5.54 6.4h-.1z"/><path d="M255.14 413.23l-56.1-4.6c-1.4-.1-2.7.98-2.8 2.38l-.24 2.9 61.4 4.93.24-2.9c-.1-1.42-1.1-2.7-2.5-2.72z" fill="#fff"/><path d="M236.35 412.42l-.33-.1c0 .03.08.06.33.1zm.77 4.03l.08-.01-.08.01zm-13.72-7.05h.12z"/><path d="M248.43 404.45l-2.6-1.22c-.88 2.14-3.1 3.66-5.52 3.66-3.52.1-6.4-2.63-6.52-6.15-.03-.9.16-2 .53-2.77l-2.6-1.22c-.5-.14-1.1-.1-1.34.4l-7.3 13.25 25.32 2.07.58-7.08c.03-.28-.23-.7-.52-.93z" fill="#fff"/><path d="M239.3 407.58l-.2-.08c0 .02.05.05.2.08zm1.65 3.54c.02 0 .03-.01.05-.01-.03 0-.04 0-.05.01zm-5.75-9.24v.01l.02.03zm8.7 2.7l.1-.01c-.02-.01-.05-.02-.1.01zm-8.63-1.27c.01 0 .01 0 .02.01-.01-.01-.02-.01-.02-.01zm10.75-1.4h0c.03.01.04.01.06.01h-.06z"/><path d="M176.8832 267.982l9.9652-4.1623 10.56 25.282-9.9652 4.1623z" fill="#fff"/><path d="M331.53 334.85l-.82.95c.04 0 .25-.23.82-.95zm-18.9 44.72v-.4.4zm17.7-13.17l.05-.24-.05.24zm-6.42 13.8v-.35.35zm-133.96-17.36l-.1-.28.1.28z"/><path d="M200.97 268.37h-16.5s-21 6.2-27.8 7c-5 .6-12.5-2.4-12.5-9.8v-4.2c0-8.4 7.7-10.4 12.5-10.4h44.3c4.8 0 8.7 3.9 8.7 8.7h0c0 4.8-3.9 8.7-8.7 8.7z" fill="#fff"/><path d="M331.17 382.03l.07-1.92-.07 1.92zm-141.97 8.55c-.06-.01-.13-.01-.2-.02l.2.02zM347.07 256.2l-.84-2.25c-.01.02.04.18.17.53l.67 1.72zm-36.5 52.9l.3-.47-.3.47zm5.03-53.6l.72-.18-.72.18zm30.42-29.9c0-.02 0-.03-.01-.05a.175.175 0 0 1 .01.05zm-148.6 185.92h0l.08.13zm23.93-22.74l-.25.27c.02.01.1-.06.25-.27zm39.34 8.12l-.03-.08c.02.06.02.08.03.08zm-45.4 4.84v-.02-.1zm38.84-11l.16.27c.01-.01-.03-.1-.16-.27zm-33.9 7.02l.01-.07c-.01.05-.01.06-.01.07zM257.2 402v-.02-.08.1zm-32.07-12.9l.12-.13-.12.13zm18.63 32.9h0l-.1.08zm-19.6-8.56l.33-.25c-.02 0-.1.06-.33.25zm13.42-5.47l-.07.07c.06-.05.07-.07.07-.07zm-.83-4.25l-.02.01-.07.08zm-9.78 18.04c-.18-.1-.3-.2-.38-.28 0 0-.1-.06-.25-.18l-.57-.43c-.43-.33-.93-.66-1.13-.77.33.2-.44-.53-.16-.4l-.34-.25-.96.86 1.43 1.26 2.36.18zm3.7 1.97c.01.01.02.03.03.04h.1l-.13-.04z"/><path d="M213.8 431.27l-.22-.05c.01.01.06.03.22.05zm10.92-10.13h0zm-19.55 8.3h0zm61.76-42.74l-.2-.1c0 .01.04.04.2.1zm13.37-6.43c.02 0 .03.01.05.01l-.05-.01zm-21.05 2.1h.01c.02 0 .04.01.06.01l-.07-.01z"/><path d="M397.27 379.67l-58.93-147.22-10.1 3.7 6.54 16.32-144.5 32.4c-.2 0-.3.1-.5.1h-.1c-.1 0-.2.1-.4.1h-.1c-.1.1-.3.1-.4.2l-.1.1c-.1.1-.2.1-.3.2 0 0-.1 0-.1.1l-.8.8c-.1.1-.2.2-.2.3l-76.3 93.1c-1.3 1.6-1.6 3.8-.7 5.7.8 1.8 2.6 2.9 4.5 3.1 3.58.43 56.4 9.08 101.32 16.52.44 4.43 2.15 8.48 4.75 11.8l-4.42 3.97-17.24-1.3c-2.8-.2-5.2 1.8-5.4 4.6s1.8 5.2 4.6 5.4l27.9 2.1c2.8.2 5.2-1.9 5.4-4.6.07-.97-.14-1.88-.54-2.67 2.45.9 5.08 1.37 7.84 1.37 12.7 0 23-10.3 23-23 0-5.04-1.63-9.7-4.38-13.5l5.3-4.76 15.8 6.26c2.6 1 5.5-.2 6.5-2.8 1-2.5-.2-5.5-2.8-6.5l-16.77-6.64 74.97-107.56 46.6 116.4c.8 2.1 2.9 3.4 5 3.4.7 0 1.3-.1 2-.4 2.9-1.2 4.2-4.3 3.1-7.1zm-207.3-79.2l35.35 83.9c-3.45 2.54-6.15 6.03-7.75 10.07l-92.3-15.06 64.7-78.9zm50.4 91.9l-3.53-8.37c.7-.08 1.4-.13 2.13-.13 2.3 0 4.48.43 6.5 1.17l-5.1 7.33zm-9.9 4.2l-8.82-1.46c1.22-2.7 3.03-5.06 5.3-6.9l3.53 8.37zm-10.24 9.3l10.97 1.82-7.38 6.62c-1.83-2.42-3.1-5.3-3.6-8.44zm1.75 15.52l1.6-1.44c.68.62 1.4 1.2 2.16 1.72l-3.76-.28zm36-18.52c0 10.5-8.5 19-19 19-4.74 0-9.07-1.75-12.4-4.62l9.27-8.33c.94.5 2.02.8 3.17.8 3.54 0 6.43-2.75 6.68-6.23l6.38-9.16 2.52-2.27c2.13 3.07 3.38 6.8 3.38 10.8zM255.3 371c-2.22-.34-4.56.85-5.42 3.08-.57 1.4-.4 2.98.3 4.26l-2.3 3.32c-2.73-1.14-5.73-1.78-8.88-1.78-1.27 0-2.52.1-3.74.3l-36.36-86.2 130.5-29.2L255.3 371z" fill="#fff"/><path d="M261.63 379.4h0l.08-.14zm-17.05 19.16l.04.1c.02 0 .01-.04-.04-.1zm-12.46 2.57v-.03.03zm12.84 1.6v-.01l-.01-.02z"/><path d="M259.5 290.5c-2.45 15.34-2.38 26.37-5.05 45.36-.18 1.26-1.45 5.13-2.2 6.17-1.5 2.06-4.04 5.7-5.02 7.8-1.6 3.46-.6 6.3-.6 6.3l52.18 20.7.14-1.44c.17-1.8-.46-3.57-1.73-4.84l-20.52-20.68c-1.92-1.94-3.34-5.74-2.65-8.38 2.82-10.92 8.5-27.7 13.72-44.12 8.46-26.6-26.26-18.92-28.27-6.88z" fill="#fff"/><path d="M245.8 351.86c0-.02.01-.03.01-.04l.03-.2-.04.23zm-11.6 22.38h0v-.43zm23.2-3.18l.3.18c.01-.03-.06-.08-.3-.18zm8.08-1.03l-.08-.02c.05.02.07.02.08.02zm3.4 7.75l-.02-.01-.1-.02z"/><path d="M299.82 377.02l-52.25-20.98c-1.3-.52-2.86.14-3.38 1.44l-1.08 2.7 57.2 22.86 1.08-2.7c.34-1.37-.23-2.9-1.57-3.32z" fill="#fff"/><path d="M282.1 370.7l-.3-.18c-.01.03.06.08.3.18zm-.45 4.07l.08.02c-.05-.02-.07-.02-.08-.02zm-11.02-10.8l.01.01.1.02zm25.9 11.16h0l.26.05zm-10.16-8.2l-.17-.14c-.01.02.03.06.17.14zm.54 3.86a.09.09 0 0 1 .05.01c-.03-.01-.04-.01-.05-.01zm-2.78-10.52v.01l.02.04z"/><path d="M287.47 366.45c2.4.75 4.88-.1 6.35-1.87l-9.3-8.48c-.6.72-1.04 1.52-1.32 2.5-1.07 3.46.88 6.93 4.28 7.86z" fill="#fff"/><path d="M291.63 365.42l.1.02c-.01-.02-.04-.04-.1-.02zm-7.86-3.75l.02.01c-.01-.01-.02-.01-.02-.01zm10.68 1.83h0c.02.01.03.02.05.03l-.05-.03zm-57.68 58.23l2.2.14.5-.02c-.7-.02-1.42-.06-2.2-.2.05.1-.27.07-.5.08zm-11-.06l-.9-.65c-.46-.01-.34.03-.06.07-.02.01.01.04.1.07-.7-.2-1.96-.15-2.03-.34-.1-.01-.18-.01-.27-.01l-.63.57 3.8.3zm86.97-42.1v-.4.4z"/><g fill="#fff"><use xlink:href="#B"/><use xlink:href="#B" x="-277.12"/></g><path d="M189.3 390.58c-.06-.01-.13-.01-.2-.02l.2.02zm170.32-103.2l.01-.07c-.02-.03-.03-.03-.01.07z"/><circle cx="349.18" cy="218.67" r="11.6" fill="#fff"/><path d="M293.73 370.4c-.01-.01-.02-.01-.04-.02.03.02.04.03.04.02zm58.54-139.27h-.01l-.05.1.06-.1zm-2.32-18.6c-.25-.03-.5-.05-.77-.05-.06 0-.1.01-.17.01-.23-.12-.7-.26-1.54-.25l.02-.03c-.7.1-1.1.3-1.47.63-.15-.1-.5.27-.66.32v-.02c-.26.35-.76.45-.98.83 0-.02-.03-.06.04-.13-.2.23-.44.56-.53.52-.45.56-.96 1.46-.96 1.95l-.02-.04c.02.28-.1.32-.13.6-.02.01-.03.03-.03.02.02.3-.15.8-.14 1.03l-.07.01-.02.56.02-.2c.18.08-.14.42.01.82 0 .4.45.7.46 1.07.13.15-.18-.12-.04.13-.1.03-.1-.1-.15-.02.1.25.03.46.2.75l-.06.04c.3.35.26.8.53 1 .3.35-.02.4.38.7l.04.2c.13.17.2.03.3.23-.06.03.16.25.02.2.3.45.86.62 1.36 1.1.2-.02.46.2.6.16-.01.06.62.3.22.25-.03-.01-.1-.03-.08-.05l-.07.05c.3.3.7.2 1.07.33-.1-.05-.26-.1-.14-.1l.35.1-.1.04c.17.06.35.1.52.15l-.06-.1c.25.07.33.23.64.15.14-.05-.24-.12.04-.13.34.08.88.16 1.33.13-.05-.08.07-.1.2-.13l.03.07c.46-.18.2.15.66-.05l.06-.12c.37-.25.28.1.66-.26-.17.08-.14-.12.08-.17l-.03.1c.1-.06.14-.1.22-.12-.05.07.01.1.17.02l-.08.14.27-.27c.3-.04.6-.37.75-.34 0 0 .5-.3.55-.48-.04.13.22-.07.2.06.07-.16.36-.5.53-.6l-.02.03c.54-.44.63-.97 1.02-1.44-.1-.02.1-.28-.04-.26.18-.58.64-.98.36-1.3.05-.27.17-.3.2-.44v.07l.1-1.06c-.03-.2-.17-.23-.15-.56.07.1.05-.03.04-.16.01.08.04.1.07-.07-.02-.02-.03-.06-.05-.1 0 0 .01-.01.02-.01-.04-.2-.06-.17-.05-.07-.01 0-.02.01-.04.04.05-.23-.1-.6.01-.65-.17-.63-.42-1.03-.68-1.5.02-.08.12.01.2.14l-.18-.33c.07-.03.14.18.2.28-.08-.48-.53-.78-.75-1.26l-.12-.05-.01-.03c-.03.02-.13-.04-.2-.1.01-.1.13-.1-.05-.3-.08-.2-.43-.4-.66-.56.1.1.04.1-.02.08-.1-.1-.1-.2-.2-.23l.05-.08c-.01.1-.33-.13-.4-.13-.02-.1.2.07.25.05-.43-.3-.2-.16-.66-.43-.27-.08 0 .1-.16.1-.22-.1-.46-.14-.7-.3l.05.1c-.44-.1-.68-.2-.95-.35-.32-.02-.56 0-.77.03zM121.73 341.87l-.06.3c.02 0 .04-.08.06-.3zm-13 84.4l.06-.3c-.02 0-.04.07-.06.3zm48.72-35.7l-.3-.06c.01.02.08.04.3.06zm-84.4-13l.3.06c0-.02-.07-.04-.3-.06zm76.63-18.73l-.25.16c.02.01.08-.03.25-.16zm-9.34 59.43c-.01.02.03.08.16.25l-.16-.25zM80.8 409.3l.25-.16c-.01-.01-.08.03-.25.16zm9.38-59.43c.01-.01-.03-.08-.16-.25l.16.25zm-36.82 16.3l-.05.24.05-.24zm2.94 1.17c.01-.03.02-.07.06-.23l-.06.23zm118.65 13.23l-.02-.25.02.3v-.05zm-101.5-49.7h-.04c0 .02 0 .02.04 0zm-19.3 51.15l.07-1.92-.07 1.92zM160.23 425c-.01 0-.01 0 0 0l-.2.23.2-.23zm14.05-103.3l.15-.2-.03.03-.12.17zm175.88 55.85l.3.06c0-.02-.08-.04-.3-.06zm7.74 31.75l.25-.16c-.01-.01-.08.03-.25.16zm-26.55-29.2l-.07 1.92.07-1.92zm106 44.88c-.01 0-.01 0 0 0l-.2.23.2-.23zm-38.5-83.1l-.06.3c.02 0 .04-.08.06-.3zm-13 84.4l.06-.3c-.02 0-.04.07-.06.3zm48.72-35.7l-.3-.06c0 .02.08.04.3.06zm-7.76-31.74l-.25.16c.02.01.08-.03.25-.16zm-9.2 59.68l-.16-.25c-.01.02.03.08.16.25zm-50.47-68.88l.16.25c.02-.01-.02-.08-.16-.25zm44.12 59.35l-.07-.06.01.01zm-10.23-32.37c.02-.02.02-.07-.06-.18l.06.18z"/><path d="M471.16 375.02l-.8-5.16-.45-2.36-.53-2.17c-1.92-7.78-5.1-15.94-9.54-23.46-4.46-7.5-10.3-14.3-16.73-19.43-.2-.2-.57-.5-.9-.73l-.44-.3c-.1-.08-.2-.12-.2-.12a79.826 79.826 0 0 0-12.58-8.23s-1-.54-2.7-1.36l-3.05-1.37-3.88-1.52c-5.62-2.05-12.88-3.65-18.5-4.12-2.82-.23-5.2-.3-6.77-.23-1.56.04-2.3.13-1.83.26.24.07.78.15 1.66.24.24.03.52.06.8.08l-2.46-.06c-3.4 0-6.76.23-10.06.65l2.48-.4 3.88-.45 2.64-.22c2.75-.25 2.54-.37 1.06-.5-1.5-.08-4.32-.15-6.75.04-1.22.04-2.34.17-3.15.27l-1.33.15c-4.08.53-7.64 1.24-10.92 2.22-.23.06-.44.13-.67.2l-9.9-24.33-13.4-33.98-6-15.18-.33-.82c1.08-.4 2.05-.85 3.24-1.26.48-.13 1.06-.32 1.7-.54.08-.03.17-.06.25-.1.27.05.54.1.83.17-.2-.1-.48-.15-.27-.2l.64.18-.16.07c.32.1.64.2.97.27l-.1-.15c.47.13.62.4 1.2.26.26-.1-.45-.2.07-.2.64.14 1.62.27 2.47.2-.1-.13.13-.16.35-.22l.04.12c.85-.32.4.24 1.2-.1l.1-.2c.7-.44.5.15 1.23-.47-.32.14-.25-.2.17-.3l-.06.15c.2-.1.27-.17.42-.22-.1.12 0 .2.3.02l-.15.24.5-.5c.53-.1 1.1-.7 1.4-.64 0 0 .24-.14.48-.33s.5-.4.54-.56c-.1.24.4-.14.35.08.13-.3.68-.93 1-1.1l-.03.06c.98-.83 1.18-1.8 1.9-2.66-.15-.02.18-.52-.05-.47.18-.55.46-1 .64-1.38.2-.4.28-.73.05-1 .1-.5.3-.56.36-.82v.13c.1-.97.15-1.24.18-1.97-.04-.36-.28-.42-.26-1.05.12.2.08-.06.07-.3.02.15.07.2.12-.12-.03-.04-.06-.1-.08-.17.01 0 .01-.02.03-.01-.07-.4-.1-.32-.1-.14-.02-.01-.03.01-.06.07.1-.42-.18-1.13-.01-1.2-.3-1.17-.75-1.93-1.24-2.77.04-.14.2.03.37.28l-.34-.62c.12-.06.25.33.36.52-.17-.87-.96-1.46-1.4-2.34l-.2-.1-.02-.06c-.04.04-.23-.1-.33-.2 0-.18.22-.16-.12-.52-.1-.18-.28-.38-.5-.56l-.7-.48c.2.2.08.2-.03.14-.18-.16-.2-.34-.4-.4l.08-.14c-.02.17-.6-.25-.7-.25-.04-.18.36.14.46.1-.8-.57-.4-.3-1.23-.8-.5-.17.01.18-.27.17-.4-.2-.85-.27-1.27-.58l.1.2c-.8-.2-1.26-.4-1.78-.65-1.58-.1-2.42.17-2.8.35s-.37.35-.15.47c.4.26 1.46.44 1.45.47 1.03.28 1.77.54 2.6.77.82.26 1.7.57 2.75 1.35.4.4.73.73.97 1.06.26.32.44.63.63.94.37.62.7 1.25 1.2 2.3.4 1.02.7 2.17.76 3.25.13.25.14.6.1.98-.01.37-.05.75-.02 1.07l-.15.22c.04.22.03.47-.1.66l-.03-.02c0 .33-.12.66-.14.82l-.03-.02-.12.37-.02-.08c-.08.56-.34 1.07-.6 1.5l.15.03c-.68.85-.66 1.35-1.45 1.98v-.03c-.57 1.2-1.55 1.18-2.4 2.14.1-.12-.1-.03-.1-.07-.46.37-1.05.6-.93.88-.4.2-.36.06-.45-.02.05.1-.3.3-.6.42l.13-.1c-.3.14-.6.22-.93.32l.25.18c-.53.07-.2-.25-.67-.06l.05.2c-.74.08-1.2-.14-1.87-.27-1.4.01-2.88-.12-4.27-.6-1.38-.46-2.65-1.25-3.5-2.3l.02-.18c.1-.17-.72-.3-.65-.52l-.28-.16c-.02-.1-.1-.27.03-.17-.16-.23-.2-.22-.37-.34l-.07-.32c-.52-.97-1.17-1.7-1.5-2.86-.05-.72-.3-1.7-.35-2.73-.08-.5-.03-1.03-.06-1.53.05-.48.03-.95.1-1.33.07-1.1.68-2.2 1.4-3.13.73-.94 1.57-1.72 2.3-2.57.07-.03.18-.2.16-.2a11.717 11.717 0 0 1 1.71-1.08l.37-.18c.22-.12.55-.27.92-.4.74-.32 1.7-.55 2.47-.75.76-.15 1.3-.33 1.18-.57-.14-.2-.97-.67-3.18-.6l.04-.06c-.92.15-1.58.38-2.13.73-2.48.45-3.9 1.04-6.9 2.1l-3.24 1.13c-.9.35-1.82.72-3.2 1.5-1.33.7-2.68 1.62-3.8 2.6-.45.56-1.47 1.32-1.9 2.1l-.27.2c-.14.27-.3.57-.5.8v-.03c-.17.42-.45.84-.5 1.06l-.01-.03-.2.5.01-.1c-.26.75-.4 1.55-.53 2.2l.1-.04c-.08.35-.13.66-.17.93l-.03.76-.06 1.6-.02-.02c.26 1.63.03 2.64.62 4.26-.08-.2-.02.1-.05.1.2.76.5 1.54.65 1.5.17.54.1.46.06.55.07-.03.27.42.44.83l-.1-.18c.15.4.34.77.52 1.15l.03-.28c.24.62-.1.23.22.8l.1-.06c.4.84.5 1.4.9 2.2l.4.6.26.38.36.47.1.12c.03.04.06.07.1.06l.9 2.2 4.9 12.16-17.3 3.93c-2.38.6-5.38 1.3-8.64 2.04.28-4.16.15-8.1-.48-12.03-.73-4.05-1.98-8.24-4.77-12.1-1.6-2.36-4.14-4.8-7.26-6.84-3.13-2.05-6.77-3.77-10.5-5.26-7.5-2.93-15.3-5.1-21.02-6.6l-25.53-6.47-6.6-1.55-.86-.2c-.12-.03-.24-.04-.36-.03h-.65l-1.68-.01c-1.12 0-2.24 0-3.35-.01l-13.1.15c-.28-.01-.77 0-1.2.02l-.55.03c-.14.01-.23.02-.23.03l-15.55.05s-51.85.2-36.88 1.13l-2.57.01s-1.15 4.74-1.97 10.84l.34-3.1c.4-3.17.74-5.35.95-6.77.45-2.85.27-2.67-.22-1.2-.5 1.52-1.16 4.35-1.63 6.84-.48 2.5-.78 4.6-.78 4.6-.63 4.23-.93 8-.87 11.6.04.9.06 1.8.13 2.68.1.9.17 1.76.32 2.64.2.88.28 1.75.58 2.62l.4 1.3.1.35c.1.2.13.26.18.37l.3.6.6 1.18.7 1.16c.44.8 1 1.54 1.55 2.3 1.13 1.44 2.53 2.84 4.33 3.87-.87.04-1.7.17-2.67.16.46.02 1 .02.64.1l-1.4.02c.1-.04.2-.08.3-.12a24.699 24.699 0 0 0-2.1.15l.3.1c-1.02.1-1.44-.05-2.52.43-.48.23 1-.08-.05.23-1.34.28-3.36 1.02-4.8 2.24.23 0-.16.3-.5.68l-.13-.04c-.6.8-.77.88-.92 1s-.36.2-.8 1.1v.4c-.3.84-.4 1.04-.53 1.27-.1.23-.33.5-.3 1.47.12-.75.33-.3.1.6l-.08-.25c-.08.5-.03.68-.07 1-.05-.3-.17-.18-.2.57l-.12-.5c.05.47.08.98.16 1.4-.13 1 .03 2.62-.14 3.03 0 0 0 .14-.01.35s-.01.5.01.84c.02.33.05.7.1 1 .05.3.15.54.2.67-.2-.46.01.87-.2.52.1.3.4.88.62 1.47.3.57.57 1.17.73 1.5l-.1-.1c.68 1.24 1.6 2.05 2.48 2.75.94.64 1.87 1.18 2.95 1.72-.05-.15 1.1.34.88.06 2.32.66 4.37 1.2 5.25.6 1.1-.1 1.3-.02 1.85-.05l-.25.07c1.97-.36 2.5-.5 3.95-.8.7-.2.75-.5 2.03-.73-.4.2.13.06.6-.05-.3.1-.38.15.25.07.08-.05.2-.1.33-.15.01.01.03.01.02.02.78-.23.64-.23.27-.15.01-.02-.02-.03-.14-.03.85-.06 2.28-.57 2.42-.42 2.36-.64 4-1.27 5.93-1.86.24.03-.2.23-.75.42l1.38-.4c.02.13-.78.3-1.2.43 1.6-.22 3.12-1 4.92-1.4.4 1.16.7 1.9 1.16 2.63-.1.2.38.96.45 1.26l-.02-.02c.42.66.5 1.5.9 2.15-.02-.02-.07-.02-.14-.17.23.5.55 1.16.47 1.23.52 1.18 1.17 2.86 1.64 3.57l-.05-.04c.28.4.25.56.5 1.02 0 .03.01.07 0 .07.3.43.6 1.38.8 1.74l-.05.05.4.94-.13-.36c.22.05.2.76.6 1.4.2.48.6.88.86 1.34l-15.86 19.4c1.38-1.75-.66.7-.58.53l-7.3 9.03-1.04 1.32c-2.7-1.87-5.48-3.6-8.38-5.12 0 0-1-.54-2.7-1.36l-3.05-1.37-3.88-1.52c-5.62-2.05-12.88-3.65-18.5-4.12-2.82-.23-5.2-.3-6.77-.23-1.57.01-2.3.1-1.83.23.24.07.78.15 1.66.24a14.302 14.302 0 0 0 .82.08l-2.48-.06c-3.64 0-7.2.27-10.7.75l3.17-.5 3.88-.45 2.64-.22c2.75-.25 2.54-.37 1.06-.5-1.5-.08-4.32-.15-6.75.04-1.22.04-2.34.17-3.15.27l-1.33.15c-4.08.53-7.64 1.24-10.92 2.22-3.3.92-6.3 2.08-9.35 3.4-6.02 2.75-12.22 6.2-19.7 12.5-6.54 5.56-10.07 9.76-13.4 14.16-.8 1.1-1.64 2.23-2.4 3.45l-1.2 1.85-1.17 2.02c-.84 1.37-1.57 2.92-2.43 4.57-.77 1.7-1.65 3.53-2.4 5.62-1.55 3.96-2.87 8.17-3.74 12.46-.88 4.3-1.4 8.6-1.6 12.76.03 1 .02 2.16.01 3.44 0 1.28.07 2.66.1 4.07.06 1.4.2 2.83.3 4.2.15 1.36.36 2.65.54 3.8.02.6.12 1.2.18 1.8l.5 2.5c.2.85.4 1.7.54 2.5l-.06-.1c.3 1.17.64 2.4.96 3.47.3 1.08.57 2.02.8 2.57l-.07-.08.95 2.76-.2-.46c1.5 3.9 3.28 7.84 5.04 11.2l-.02-.35c1.9 3.6 3.4 5.92 4.98 8.08.78 1.08 1.55 2.15 2.45 3.26l1.4 1.78 1.64 1.97-.1-.05c3.23 3.32 5.8 5.9 8.6 8.32 2.8 2.4 5.75 4.73 9.92 7.06-1.03-.6.4.33.3.3 3.77 2.27 8.1 4.15 8.26 3.92l2.3 1.07c.27.14.2.17.38.3.04-.13 2.6.9 5 1.64l-1.1-.32c2.25.78 4.54 1.42 6.85 2-.44-.17-.87-.37-1.3-.58 3.64.98.86.5 4.4 1.3l-.01-.2 3.5.7c1.08.22 2.1.36 3.12.55 1 .2 2.03.32 3.1.45s2.22.3 3.5.33c10.56.43 21.6-1.48 31.58-5.5 10.02-3.97 18.93-9.95 26.1-16.64l.73-.5c.46-.08 3.56-4.1 4.14-4.58l1.42-1.8c.43-.48 1.3-1.52.63-.6 1.3-1.67 1.35-1.7 2.17-2.98l1.42-1.77c4.78-6.86 7.73-13.42 10.4-21.76.44-1.3.87-2.8 1.28-4.4l4.6.78c-.02.28-.04.57-.03.86.06 1.1.27 2.66.95 4.12l.06.12c-.3.1-.46.15-.54.16-.1.02-.12-.03-.2-.05.06.1-.75.62-1.16 1.37.05-.12.1-.23.18-.35-.24.32-.43.7-.54 1.1-.05.2-.1.4-.1.6l-.03.5.27-.35c-.15 1-.3.23-.33 1.2h.2l-.12.93c-.1-.01-.24-.01-.35-.02-.04 2.62.05 3.33.23 3.63.1.1.2-.01.36-.45.02-.06.04-.14.07-.2l-.03.68c-.08.98.45 1.9 1.25 2.4-.28-.13-.52-.3-.72-.46-.64-.6-.87-1.24-.98-1.66-.17-.85-.3-.73-.47-.37-.2.53-.1 1.66.4 2.44.15.24.3.44.47.6-.05.04-.1.07-.17.12l.05-.1c-.06.1-.1.2-.15.3-.35.35-.46.43-.6.5-.13.08-.27.18-.53.67.26-.35.24-.06-.08.34l.02-.15c-.16.24-.17.35-.28.5.06-.17-.06-.14-.24.26.01-.1.02-.2.05-.3-.1.27-.17.53-.2.8-.3.57-.34 1.58-.4 1.83-.05-.01.02 1.37.27 1.63-.14-.25.04.5-.1.3.17.33.7 1.23.9 1.6l-.06-.06c.9 1.32 2.04 1.77 3.34 2.18-.04-.08.67.08.5-.06 1.34.02 2.32.4 2.8.1.58.03.68.13.98.17l-.14.01c1.08.05 1.4.07 2.2.14.4 0 .48-.16 1.2-.06-.24.05.06.06.33.08-.17 0-.23.02.12.1.05-.02.13-.02.2-.03 0 .01.02.01.01.02.45.01.37-.01.17-.04.01-.01-.01-.02-.07-.04.46.12 1.3.1 1.35.2 1.35.08 2.32.04 3.45.08.12.07-.14.1-.47.1l.8.04c-.01.08-.46.01-.7.01.94.2 1.97.02 3.07.22l.24-.05.07.02c0-.03.25-.06.42-.06.15.08-.02.16.53.2.43.1 1.24.06 1.8.06-.3-.03-.2-.07-.07-.08.28.02.43.1.64.1l.02.1c-.1-.1.73-.04.83-.07.15.08-.43.03-.5.08l1.66.1c.6-.03-.1-.1.2-.16.52.02 1.03-.01 1.63.1l-.18-.1c.98.01 1.57.06 2.22.2 7.33-.13 1.6-.82 1.6-.82-2.9-.38-4.4-.25-7.82-.44-3-.27-3.78-.5-6.9-.66l-4.52-.3c-.7.07-1.9-.14-2.73-.1l-.3-.1c-.28.02-.6.01-.9-.05l.02-.02c-.42.02-.9-.05-1.1-.03l.02-.02-.5-.03.1-.02c-.74-.01-1.52-.02-2.04-.18l.03.1c-.6-.2-1-.35-1.35-.56-.35-.2-.7-.44-1.02-.9h.03c-.54-.48-.77-1.05-.88-1.6-.1-.56-.14-1.13-.16-1.88 0 .2.05-.07.07-.05.05-.68.38-1.34.23-1.43.26-.45.25-.33.34-.36-.06-.03.16-.42.43-.72l-.1.16c.24-.3.53-.55.84-.77-.1 0-.18.01-.27.02.54-.32.22.04.7-.28l-.06-.1c.8-.36 1.34-.3 2.13-.25.4.01.88.05 1.34.08l1.42.1 2.84.15c1.9.1 3.74.22 5.46.45l.15.1c.06.13.96-.12 1.1.01l.4-.03c.1.03.35.07.14.1.37.03.38.01.65-.01l.4.1c1.46.17 2.7.1 4.24.26 1.83.3 5.32.4 7.33.48.7.01 1.44.06 2.2.13.78.07 1.44.15 2.07.46 1.25.6 2.1 1.7 2.54 2.9 0 .08.1.28.1.28.14.77.13 1.6-.13 2.32 0 0-.2.7-.77 1.44-.57.75-1.6 1.4-2.46 1.64s-1.54.24-1.4.4c.08.06.36.2.96.23.6.03 1.55-.04 2.7-.72l-.04.07c1.3-.9 1.83-1.9 2-2.98.1-.06.2-.38.22-.73.05-.35.01-.72.04-.9l.02.03c-.07-.43-.13-.9-.23-1.34.42.12.85.23 1.27.34l-.37-.24c1.07.32.23.24 1.28.47l.01-.12c1.52.26 2.4.6 3.9.73 3.14.14 6.4-.46 9.37-1.66.1-.04.2-.1.28-.13.17 0 .34 0 .53-.01-.32.02.13.1.1.12 1.16.05 2.4.13 2.44-.15.84.07.68.15.78.26 0-.12.74-.12 1.4-.07l-.3.02 1.4.1c.16.01.4.02.6-.01-.17-.06-.32-.15-.46-.23.6.05.7.06.77.12.08.03.17.1.73-.15l-.1-.17c.77-.32 1.3-.76 1.73-1.3.2-.28.38-.6.5-.98.04-.17.08-.34.13-.5.03-.16.07-.3.1-.47l.12-1.38h.02l.07-.97.07-.85h-.01l.07-.96.05-.9c1.37-2 2.17-3.94 2.98-6.35.48-1.48 1.06-3.7 1.04-6l.03-.86v-.87c-.04-.57-.07-1.12-.13-1.66l-.27-1.53c-.07-.5-.17-.94-.3-1.34-.6-2.3-1.52-4.7-2.8-6.96-.2-.34-.42-.67-.64-1 1.1-1.02 2.23-2.16 3.74-3.35.2-.3.68-.72 1.07-1.08.26.1.53.17.8.27.1.1-.17.05-.48-.05l.75.27c-.04.07-.44-.13-.68-.2.84.47 1.87.6 2.86 1.12l.24.03.06.03c.01-.03.26.02.42.07.12.12-.07.15.44.35.38.22 1.16.42 1.7.6-.28-.12-.18-.12-.04-.1.26.1.38.22.6.27l-.01.1c-.07-.12.7.18.8.18.12.12-.42-.1-.5-.08l1.55.6c.57.15-.07-.12.23-.1.5.17 1 .3 1.52.57l-.15-.15c.93.3 1.47.52 2.06.85 7.03 2.05 1.77-.3 1.77-.3-2.6-1.26-4.07-1.58-7.27-2.77-2.78-1.15-3.46-1.6-6.38-2.68-1.38-.56-2.86-1.1-4.22-1.62-.7-.14-1.77-.7-2.57-.9l-.27-.18c-.27-.07-.6-.17-.84-.3h.02c-.4-.1-.84-.3-1.04-.36l.02-.01-.48-.18h.1c-.7-.22-1.44-.47-1.9-.77v.1c-.5-.36-.84-.63-1.12-.93-.27-.3-.53-.63-.7-1.17l.03.01c-.38-.62-.43-1.23-.4-1.8.05-.57.18-1.1.4-1.83-.05.18.07-.05.1-.03.25-.63.76-1.15.64-1.3.38-.35.34-.24.43-.24-.05-.05.28-.36.63-.56l-.14.12c.32-.2.67-.36 1.03-.5-.1-.03-.17-.04-.26-.06.56-.14.26.07.66-.03 3.64 1.55 4.78 2.27 8.93 3.82 2.07.85 4.3 1.7 6.35 2.47 1.04.2 2.67 1.07 3.87 1.36l.4.3c.42.1.9.25 1.26.47h-.04c.62.15 1.26.47 1.57.54l-.04.02.72.27h-.14c1.06.32 2.12.74 3.03 1.15l-.02-.17c1.93.95 2.77.96 4.5 1.86l-.04.02.12.03c.53.8.82 1.76.87 2.68-.02.08.02.3.03.3-.08.77-.35 1.55-.8 2.18 0 0-.38.6-1.15 1.15-.76.55-1.92.85-2.83.82s-1.54-.23-1.45-.03c.05.08.3.3.85.5.56.2 1.48.43 2.8.13l-.06.05c1.52-.47 2.32-1.3 2.8-2.26.27-.05.6-1.14.73-1.5l.01.04c.13-.95.37-2 0-2.9.02.03.07.04.13.25-.06-.3-.2-.62-.3-.9 1.37.57 2.43 1.28 4.23 1.72-.3-.07.1.12.06.14 1.1.4 2.25.84 2.37.58.78.32.6.34.67.48.04-.12.74.1 1.36.35l-.3-.07.9.33.44.17c.15.05.37.14.56.17-.14-.1-.26-.24-.37-.36.56.23.64.27.7.34.06.06.14.15.75.07l-.04-.2c.83-.08 1.47-.34 2.04-.74.28-.2.54-.46.77-.8l.27-.45.24-.42.52-1.28s.01 0 .01.01l.35-.9c.1-.26.2-.52.32-.8h-.01l.35-.9.34-.92c.1-.26.1-.46.12-.65s.02-.38.01-.57c-.04-.75-.3-1.43-.7-1.92-.37-.5-.84-.76-1.18-.87-.34-.1-.54-.08-.55 0-.03.08.14.2.4.5.52.5 1.48 2.07-.13 4.2l-.01-.1-.1.2-.04.08-.07.13c-.04.08-.08.16-.12.23-.12-.06-.22-.1-.32-.14-.2-.07-.38-.14-.57-.2a13.055 13.055 0 0 0-1.59-.46c-.1-.36-1.65-.7-2.1-.97h.05c-1.32-.3-2.47-1.2-3.74-1.48.05 0 .1-.07.38.04-.88-.3-2.1-.73-2.1-.9-2.1-.8-4.95-2-6.37-2.3l.1-.01c-.82-.13-1-.37-1.87-.62-.04-.04-.1-.07-.08-.08-.9-.16-2.4-.93-3.1-1.13v-.12l-1.65-.63.6.27c-.33.2-1.17-.67-2.43-.97-1.1-.48-2.5-.3-3.6-.9-.6-.1.57-.02-.3-.25.03-.16.42.06.26-.14-.84-.25-1.27-.68-2.3-.98l.01-.13c-1.4-.3-2.4-1.13-3.34-1.28-1.38-.44-.76-.7-2.25-1.04l-.48-.37c-.6-.26-.5.02-1.14-.32.08-.08-.8-.4-.38-.35-1.44-.75-3.14-1-5-2.05-.5.02-1.46-.5-1.83-.48-.02-.1-2-.8-.8-.55.1.02.27.1.25.12l.18-.06c-1.04-.66-2.1-.7-3.2-1.18.32.17.76.34.43.3l-1.03-.43.25-.01-1.52-.67.17.2c-.73-.36-.92-.67-1.84-.84-.42-.06.65.45-.16.16l-1.75-.86-.9-.43c-.05-.03-.1-.07-.13-.1-.08.05-.14.07-.2.06-.01-.02 0-.06 0-.1l.15-.04c-.03-.15.02-.1.16-.25.12-.1.24-.2.45-.9l-.06-.3c.07-.52.2-.5.32-.56.13-.05.2-.1.53-.46-.3.2-.32-.2.2-.3l-.1.15a4.283 4.283 0 0 0 .25-.1c.08.03.15.07.23.1l.22.1c-.05.03-.1.05-.15.08.07-.03.15-.04.23-.05l.3.12 1.02.4a44.118 44.118 0 0 0 1.52.57c.06.03.38.17.76.32l.48.23.9.32c.15.1.36.25.18.26.3.03.88.2 1.4.4h-.03c.1.04.2.07.3.1.24.1.46.2.6.3l-.1-.02c1.86.9 3.35 1.14 5 2-.01-.1.24 0 .45.05l4 1.6-.12-.14c3.94 1.67 5.46 2.08 9 3.6h-.06l1.8.65c0 .08.12.1.27.1 3.4 1.3 5.8 2.5 9.8 3.9-.6-.2.23.14.18.14 2.05.8 4.2 1.63 4.5 1.6.07.03.13.05.2.08a.09.09 0 0 0 .05.01l.12.06c.6.3 1.2.6 1.8.88.15.06.3.13.45.2l.62.24c.53.2 1.05.38 1.53.52.07.04.18.08.27.1.01-.03.01-.05.02-.08l2 .78-.64-.4c1.86.78.37.33 2.25 1.04v-.13l1.34.55.1-.9c1.9.35 1.13-.24.1-.8l.03-.26c.06-.5.07-1.02.01-1.53-.1-1-.44-2.05-1.2-3.1-.5-.62-1-1.06-1.5-1.58l-.07-.07c.1-.3.2-.62.27-.9l.04-.15.04-.13c.02-.06.02-.1.03-.17.02-.2-.01-.36-.04-.5-.07-.26-.17-.43-.27-.56-.2-.27-.4-.3-.44-.17-.04.1-.03.26-.05.5-.05-.12-.1-.25-.17-.34l-1.24-1.12c.18.1.35.2.5.28.42.22.72.35.94.4.43.13.5-.02.42-.26-.1-.25-.35-.6-.58-.88-.12-.15-.23-.27-.3-.36-.05-.07-.22-.23-.2-.2-.6-.62-1.2-1.2-1.76-1.73-.04.05-.1.1-.13.14-.2-.2-.37-.34-.5-.34l-.01-.17c-.12-.03-.24-.08-.27-.2l.03-.02c-.18-.04-.27-.2-.36-.2l.03-.02-.15-.12.06-.01c-.27-.1-.48-.3-.63-.5l-.08.12c-.28-.48-.63-.38-.85-.85l.03-.02c-.7-.12-.53-.83-1.23-.98.1.02.03-.08.05-.1-.24-.16-.48-.35-.67-.14-.15-.14-.07-.18-.01-.28-.08.1-.25.01-.38-.1l.1.01-.37-.28-.1.24c-.14-.22.15-.25-.07-.37l-.13.15c-.23-.26-.18-.6-.32-.94-.24-.25-.5-.47-.8-.7-.14-.1-.28-.2-.43-.32-.17-.12-.23-.16-.5-.38l-.17-.14c.01-.01.02-.03.03-.04-.04-.05-.08-.08-.13-.12l.07.01-.6-.54.16.08-.7-.56-.58-.5c-.24-.2-.46-.42-.66-.63l-.06.14c-.1-.12-.2-.22-.3-.32-.06-.06-.28-.28-.44-.35-.24-.14-.47-.2-.7-.25l26.63-38.6 15.93-22.92 15.77-22.26.25.67.9 2.3 1.82 4.62 3.64 9.16 7.23 17.8c.17.47.52 1.3.82 2l.4.92c.1.23.17.37.17.37l1.8 4.52c-4.98 2.5-10.2 5.73-16.28 10.84-6.54 5.56-10.07 9.76-13.4 14.16-.8 1.1-1.64 2.23-2.4 3.45l-1.2 1.85-1.17 2.02c-.84 1.37-1.57 2.92-2.43 4.57-.77 1.7-1.65 3.53-2.4 5.62-1.55 3.96-2.87 8.17-3.74 12.46-.88 4.3-1.4 8.6-1.6 12.76.03 1 .02 2.16.01 3.44 0 1.28.07 2.66.1 4.07.06 1.4.2 2.83.3 4.2.15 1.36.36 2.65.54 3.8.02.6.12 1.2.18 1.8l.5 2.5c.2.85.4 1.7.54 2.5l-.06-.1c.3 1.17.64 2.4.96 3.47.3 1.08.57 2.02.8 2.57l-.07-.08.95 2.76-.2-.46c1.5 3.9 3.28 7.84 5.04 11.2l-.02-.35c1.9 3.6 3.4 5.92 4.98 8.08.78 1.08 1.55 2.15 2.45 3.26l1.4 1.78 1.64 1.97-.1-.05c3.23 3.32 5.8 5.9 8.6 8.32 2.8 2.4 5.75 4.73 9.92 7.06-1.03-.6.4.33.3.3 3.77 2.27 8.1 4.15 8.26 3.92l2.3 1.07c.27.14.2.17.38.3.04-.13 2.6.9 5 1.64l-1.1-.32c2.25.78 4.54 1.42 6.85 2-.44-.17-.87-.37-1.3-.58 3.64.98.86.5 4.4 1.3l-.01-.2 3.5.7c1.08.22 2.1.36 3.12.55 1 .2 2.03.32 3.1.45s2.22.3 3.5.33c10.56.43 21.6-1.48 31.58-5.5 10.02-3.97 18.93-9.95 26.1-16.64l.73-.5c.46-.08 3.56-4.1 4.14-4.58l1.42-1.8c.43-.48 1.3-1.52.63-.6 1.3-1.67 1.35-1.7 2.17-2.98l1.42-1.77c4.78-6.86 7.73-13.42 10.4-21.76 1.68-5 3.3-12.5 3.48-20.23.13-3.83-.15-7.7-.5-11.33zm-175.8-2.6s.4-.95.8-2.06l.5.53c.94.93 1.5 2.2 1.6 3.44.05-.22.12.27.1.8-.46-.23-.82-.4-.82-.4-.97-.47-1.83-.85-2.66-1.2l.48-1.13zm-10.98-14.05l.2-.16c.02-.1.04-.22.1-.32.02-.05.05-.1.08-.14.05-.1.14-.2.2-.27l.02.04c.1-.2.26-.4.4-.6l7.5 6.83-.03.03c-.15.17-.3.34-.45.48l-.3.27c-.24.2-.5.4-.78.57-.58.34-1.3.67-2.32.67-1.04-.1-1.73-.5-2.27-.85-.54-.4-1.07-.8-1.72-1.66-.55-.86-.9-1.93-.9-2.96-.2-.53.16-1.33.25-1.93zm21.37-89.34c.1-.01.1 0 0 .04-.01-.01 0-.03 0-.04zm-.97 5.6l.3-.86c.14-.16.3-1.38.44-2.7l2.44-.57 10.94-2.53 5.37-1.2 2.16-.47 1-.2-2.13 2.9-.5.48c-.35.12-2.2 3.7-2.7 4.1l-.96 1.55c-.32.4-.97 1.26-.5.5-.97 1.37-.96 1.43-1.6 2.46l-1.14 1.4c-3.88 5.38-6.9 10.14-10.92 15.83-3 4.03-7.4 10.35-11.5 16.38 3.68-12.63 6.9-25.3 9.3-37.03zm-49.83-10l1.76.52c.5.1 1.04.23 1.57.37.26.07.5.15.75.23.1.04.23.1.3.12.01 0 .04.02.05.04 0 .03.01.04.05.1l.1.3c.06.2.08.5.13.73l-.05-.08c.07.37.1.78.14 1.2l-1.42.32.9-.25-12.48 2.88c-.5-2.4-1.17-5.23-1.96-8.3l10.18 1.83zm-83.77 6.1l-7.83 2.06c-1.15.48-3.32.77-4.7 1.2l-.57-.02c-.47.14-1.03.26-1.52.27l.03-.04c-.66.17-1.44.1-1.78.14l.03-.03-.83-.06.15-.04c-1.2-.04-2.44-.37-3.42-.84l.03.17c-1.06-.53-1.72-.96-2.36-1.38-.32-.2-.6-.47-.9-.74-.25-.32-.6-.62-.82-1.1h.04c-.9-.94-1.25-2-1.36-3.02-.1-.5-.06-1.04-.1-1.6-.02-.6-.03-1.3-.13-2.03.05.38.07-.16.1-.13l-.08-1.95c-.04-.54-.08-.86-.23-.9.05-.95.14-.76.27-.87-.1 0-.08-.84.15-1.53l-.06.33.3-1c.13-.32.3-.63.43-.94l-.4.26c.56-.98.37-.12.9-1.04l-.17-.1c.98-1.22 1.9-1.57 3.23-2.18 1.34-.7 2.87-1.2 4.45-1.5.8-.13 1.6-.23 2.4-.26l2.54-.06c2.54-.05 5.04-.1 7.44-.03.85.08 1.72.15 2.6.2l.07.04c.04.08.3.05.6 0l2.94.2c1.1.06 2.07.23 3.08.4l2.88.44 5.12.78 8.77 1.34 15.97 2.33c.33 1.17.4 2.4.16 3.6 0 0 0 .08-.04.22s-.1.35-.16.6c-.17.5-.4 1.2-.87 1.92-.86 1.46-2.57 2.82-4.1 3.38-1.53.58-2.74.62-2.45.9.1.06.32.14.7.2-.22.02-.45.03-.68.03l-3.65.07c8.92-.95.13-1.3.13-1.3-2.58-.15-4.54-.13-6.62-.05l-3.3.14-1.9.07-1.12.03c-.32 0-.6.16-.75.18-.2.01-.38.07-.56.13-5.2 1.42-6.66 1.56-12.02 3.12zm17-1.76c-.1-.04-.36-.1-.08-.17.03.06.06.12.08.17zm-4.55 13.88c-1.13-2.2-1.76-5.04-2.93-7.28-.01-.08-.13-.26-.15-.26l-.87-2.14s-.5-1.2-1.05-2.44c.1-.08.4-.22.62-.3.3.04.05.27 1-.01.8-.1 2.13-.67 3.1-1-.54.14-.38.02-.17-.08.48-.14.78-.1 1.14-.27l.1.14c-.06-.02.01-.07.06-.1.03-.02.08-.05.12-.06.03-.01.1-.02.2-.02.37-.03.8-.05.88-.08.28.12-.77.1-.9.2l3-.02c.26-.03.37-.05.42-.07l.94 2.16c.36.55.66 1.58 1.03 2.2l.04.28c.13.2.26.47.32.7l-.03-.01c.2.32.32.7.42.87l-.03-.01.18.4-.06-.06c.3.57.56 1.18.76 1.72l.06-.08c.4 1.18.73 1.53 1.06 2.6l-.03-.01c.72 1.16.73 2.04 1.38 3.2l-4.08.92c-.17.02-.35.07-.37.08s-.05.02-.08.02h-.04c-.07 0-.23.02-.3.04l-.15.05c-.03.03-.05.01-.05.02-.13.04-.24.08-.35.13-.14-.05-.24.04-.35.07-.04-.01-.02.07-.07.08-.07-.01-.13.03-.2.1l-.1.1c-.02.02-.03.03-.05.04l-.07.04c-.01.01-.03.02-.04.03-.1.04-.2.1-.28.18-.07.06-.12.13-.16.2l-.42.4-.27.26c-.04.05-.1.1-.2.2-.04.06-.1.15-.18.3l-.82.98c-.6-1.47-1.43-3.24-2-4.4zm4.78 3.78v.08h-.03l.03-.08zm-10.64 121.3l-.12.1c-1.52 4.24-3.63 7.65-5.05 10.27-1.23 1.96-1.67 2.6-2.2 3.22-.25.3-.5.63-.86 1.12-.35.5-.8 1.16-1.54 2.12l-1.24 1.4c-1.37 1.53-.85 1.22-2.43 2.87.05-.14-2.03 2.05-1.15 1.04-3.65 3.63-7.6 7.27-13.5 10.7-.6.42-1.66 1.05-2.68 1.64l-2.52 1.36-2.76 1.22c-1.12.47-1.78.72-.03-.08.3-.15.83-.38.8-.35l.4-.26c-3.58 1.47-6.48 2.77-10.2 3.75 1.1-.3 2.55-.7 1.6-.38-1.15.3-2.28.68-3.45.9l.7-.23-2.6.58c-.87.18-1.74.3-2.6.47l.73-.05-1.67.26-1.4.14c-.92.08-1.86.24-3.32.38-1.32.16 2.46-.08-.27.15-3.47.26-8.7.17-13.1-.4.4.14-.78-.02-2-.15l-.13-.1c-4.64-.73-1.7-.38-6.24-1.33-.28-.03-.56-.05-.83-.1-4.1-1.02-2.15-.72-6.63-2.08 1.74.64.75.48-1.36-.4l.56.15c-1.18-.45-1.6-.56-2.35-.93.7.27.4.07-1.3-.7l1.17.43c-1.08-.44-2.17-.86-3.22-1.38-2.42-1.22-6.1-3.45-6.96-4.15 0 0-.3-.2-.76-.53l-1.75-1.25-3.26-2.46c.93.7-1.48-1.4-.74-.87-1.24-.86-4.46-3.95-5.6-5.33l.24.24c-2.2-2.46-4-4.62-5.6-6.84-1.63-2.2-3.02-4.46-4.4-7.07.05.28-1.34-2.52-1.08-1.8-2.87-5.45-3.94-10.44-4.85-12.47-.38-1.34-.5-2.17-.64-2.8-.13-.65-.2-1.13-.32-1.84l.13.65-.6-3.27-.32-2.48c-.1-.75-.15-1.47-.2-2.24-.04-.77-.15-1.6-.16-2.56-.07-1.93-.3-2.24-.15-5.72.05 1.13.02-.3.14-1.6-.05.83-.05 1.1.12-.6 0-.24.01-.6.03-.96.01-.01.02-.08.02-.05.18-2.16.16-1.8.01-.8 0-.04-.02 0-.04.15l.52-3.8c.24-1.3.43-2.36.5-2.48.65-3.2 1.33-5.92 2.17-8.44.8-2.55 1.75-4.9 2.87-7.37.3-.53-.18.65-.8 2.1.53-1.17 1.02-2.36 1.63-3.5.03.03-.2.53-.53 1.15l-.87 1.95c1.98-4.13 4.15-8.52 7.44-12.8.2-.32.42-.6.63-.92l.2-.25v-.01c.06-.04.24-.26.68-.8l-.67.8c.03-.06.17-.27.37-.55l.78-1.05c.55-.54.1.14 1.83-1.87.7-.78 1.76-1.85 2.83-3 1.13-1.1 2.3-2.3 3.34-3.18-1.13.97-.8.62-.33.18 1-.88 1.62-1.33 2.43-1.98h.12c.05-.08.6-.54 1.24-1.06.78-.62 1.7-1.26 1.9-1.43.66-.38-1.66 1.23-1.88 1.5l3.26-2.33c.57-.34 1.1-.77 3.4-2.12 2.44-1.48-.5.18.65-.57 2.17-1.28 4.37-2.4 7.05-3.52l-.87.3c4.34-1.94 7.1-2.73 10.2-3.5 2.86-.8 5.33-1.27 7.44-1.6 3.06-.42 6.17-.66 9.35-.66.65 0 1.3.02 1.93.04l2.73.25 2.36.27 2.88.45c1.05.18 2.18.44 3.42.7 1.22.3 2.55.62 3.96 1.03l-.3-.06c6.7 1.92 10.7 3.76 15.03 5.88.3.27 1.53.98 2.86 1.75l2.6 1.65-.24.3-3.6 4.46-.01-.01.73-.94-.75.93c-.47-.3-1.07-.73-2.87-1.8-2.28-1.23.36.3-.75-.23-1.98-1.13-4-2.03-6.38-3.14l.72.4c-3.95-1.63-6.4-2.35-9.15-3.2-3.88-.9-6.96-1.2-9.3-1.4l-3-.1-2.03.04c-2.1.1-1.96.22-.8.3 1.14.1 3.26.17 5.08.4.9.07 1.75.2 2.36.3l1 .14c3.04.5 5.7 1.08 8.15 1.82 2.46.7 4.73 1.53 7.03 2.47 2.94 1.27 5.96 2.76 9.26 4.9l-7 8.6 1.85-1.9c-4.56 5.46-1.37 1.22-5.64 6.52l.2.06c-6.27 7.6-10.16 11.86-16.3 19.14l-1.53 1.87c.23-1.73.16-3 .4-4.57-.1.07.03-.78-.1-.58.05-1.68.5-3.02.22-3.65.05-.76.16-.9.22-1.28v.18c.1-1.42.14-1.84.25-2.9.02-.53-.13-.63-.01-1.57.03.3.06-.08.1-.43-.01.23.01.3.1-.16-.01-.07-.02-.17-.02-.26.01 0 .01-.02.02-.01.03-.6 0-.5-.03-.22-.01-.01-.02.01-.05.1.14-.6.15-1.7.27-1.77.14-1.78.15-3.05.24-4.53.07-.16.1.2.07.62l.08-1.05c.08.02-.01.6-.02.93.25-1.23.1-2.58.36-4.03l-.04-.3.02-.1c-.03 0-.05-.33-.04-.55.1-.2.16.03.22-.7.12-.57.12-1.63.15-2.38-.05.4-.08.27-.08.1.03-.36.12-.56.12-.85l.1-.03c-.1.13-.01-.95-.03-1.1.1-.2.01.57.05.66l.2-2.18c0-.78-.1.13-.15-.25.05-.68.04-1.36.17-2.14l-.1.24c.05-1.3.14-2.06.3-2.9.2-9.63-.74-2.1-.74-2.1-.53 3.75-.47 5.7-.82 10.2-.4 3.94-.67 4.97-.98 9.06l-.5 5.93c.04.92-.23 2.5-.22 3.58l-.1.4c0 .37-.01.8-.1 1.17v-.03c0 .56-.1 1.17-.1 1.45l-.02-.02-.05.67-.02-.12c-.03.97-.12 1.95-.23 2.82l.1-.06c-.27 1.85-.15 2.55-.43 4.22l-.02-.02c.01.87-.06 1.6-.16 2.28l-2.83 3.46c-.05 0-.1-.01-.15-.01-.1 0-.2.01-.32.02-.37-.18-1.07-.36-2.23-.38l-.1-1.3.07-.2c.12-.1-.3-1.23-.2-1.4l-.1-.52c.01-.15 0-.46.06-.2-.04-.5-.07-.5-.14-.84l.03-.53c-.13-1.92-.44-3.54-.6-5.56-.08-2.44-.68-6.98-1.02-9.6-.56-3.67-.47-8.02-1.06-11.78.01-.12-.07-.44-.08-.44l-.32-3.46s-1.6-16.8-1.4-3.93l-.04-.08c.08 1.9.2 3.1.46 4.4-.15.22.14 1.56.12 2l-.02-.04c.25 1.14.12 2.4.35 3.5-.02-.04-.07-.06-.1-.32.1.8.25 1.92.16 2 .22 1.94.44 4.65.72 5.87l-.04-.08c.18.7.1.9.24 1.7-.01.04-.01.1-.02.1.18.76.24 2.25.35 2.87l-.06.05.17 1.53-.04-.58c.2.18 0 1.17.23 2.27.08 1.04.6 2.08.6 3.17.14.5-.18-.44-.04.32-.1.03-.1-.35-.15-.15.12.75.03 1.25.18 2.18l-.07.05c.26 1.2.13 2.3.34 3.1.2 1.25-.14.86.14 2.16l-.05.52c.04.56.16.4.18 1-.07-.03.03.8-.07.43.02.63.1 1.28.2 1.95-.57.17-1 .4-1.4.73-.2-.26-.4-.48-.44-.6 0 0-.98-1.26-1.3-1.46.26.2-.28-.5-.06-.35-.32-.27-1.15-1.16-1.4-1.6l.07.06c-1.1-1.44-2.06-2.3-3.02-3.6-.02.1-.53-.58-.48-.34-1.16-1.22-1.78-2.5-2.43-2.74-.5-.57-.52-.75-.75-1.06l.13.13-1.88-2.22c-.36-.4-.54-.35-1.12-1.1.24.2-.01-.1-.24-.37.15.17.22.2-.05-.18-.06-.04-.13-.1-.2-.17 0-.01-.01-.02 0-.02-.4-.44-.35-.35-.18-.13-.02 0-.01.02.03.1-.33-.52-1.1-1.3-1.07-1.44-1.16-1.35-2.06-2.26-3.04-3.37-.06-.16.2.07.5.4l-.7-.8c.07-.04.42.43.64.67-.7-1.05-1.75-1.9-2.6-3.1l-.24-.2-.05-.07c-.02.02-.27-.2-.42-.36-.08-.2.13-.1-.34-.65-.32-.48-1.07-1.23-1.58-1.8.25.32.14.24.01.13-.23-.28-.3-.48-.52-.68l.05-.1c.02.17-.68-.67-.8-.75-.08-.2.4.4.5.43l-1.4-1.67c-.55-.55.02.17-.28-.07-.45-.52-.93-1-1.4-1.63l.1.25c-.88-.95-1.36-1.55-1.85-2.27-6.67-6.94-2-.96-2-.96 2.27 3 3.7 4.34 6.64 7.75 2.5 3.07 3.05 3.98 5.72 7.1l3.85 4.55-.06-.05.07.06c.68.62 1.6 1.92 2.37 2.68l.2.37c.26.26.56.58.77.9h-.03c.4.4.77.9.97 1.08h-.03l.44.5-.1-.07c.66.7 1.3 1.46 1.84 2.15l.02-.1c1.12 1.5 1.7 1.9 2.7 3.28h-.03c1.47 1.42 2 2.58 3.42 4.04-.08.06-.16.1-.22.12l.01-.03c-.44.58-1.28.76-1.64 1.4 0-.03-.05-.1.06-.22-.33.4-.73.94-.88.87-.42.52-.85 1.2-1.17 1.84l-1-.86-.1-.2c.01-.15-1.1-.65-1.14-.85l-.44-.3c-.1-.1-.32-.33-.1-.2-.37-.32-.4-.3-.7-.5l-.35-.4c-1.44-1.28-2.8-2.2-4.34-3.52-1.77-1.68-5.4-4.5-7.48-6.1-2.98-2.22-5.98-5.37-9.04-7.62-.08-.1-.36-.27-.36-.25L77.5 355c-.05.02-13-10.78-3.82-1.8l-.08-.03c1.42 1.27 2.34 2.04 3.44 2.77.05.27 1.2 1 1.5 1.34l-.04-.02c.98.64 1.77 1.6 2.7 2.23-.04-.02-.1 0-.3-.16.64.5 1.53 1.2 1.5 1.3 1.52 1.22 3.58 3 4.64 3.66l-.08-.03c.62.37.72.57 1.37 1.04.02.04.06.08.05.08.66.4 1.75 1.43 2.26 1.8l-.01.08 1.2.97-.43-.38c.27-.01.83.83 1.76 1.45.8.7 1.88 1.06 2.66 1.82.45.26-.44-.18.2.26-.04.1-.32-.18-.2 0 .62.45.9.87 1.66 1.42l-.02.08c1.03.68 1.72 1.55 2.43 1.97 1 .76.5.7 1.62 1.44l.33.4c.42.37.4.16.84.6-.07.02.57.54.26.36.55.52 1.17 1 1.83 1.5-.02.1-.03.18-.03.27l-.03-.07c.03.42-.14.53-.2.9-.5-.04-1-.08-1.17-.15 0 0-1.58-.2-1.96-.12.32-.04-.55-.15-.3-.2-.42.04-1.64-.01-2.12-.13h.1c-1.8-.25-3.08-.16-4.7-.4.07.1-.78-.03-.58.1-1.68-.04-3.02-.5-3.65-.22-.76-.05-.9-.16-1.28-.22h.18l-2.9-.24c-.53-.01-.63.14-1.57.01.3-.04-.08-.06-.43-.1.23.01.3-.01-.16-.1-.07.01-.17.02-.26.02 0-.01-.02-.01-.01-.02-.6-.03-.5 0-.22.03-.01.01.01.02.1.05-.6-.14-1.7-.15-1.77-.27-1.78-.14-3.05-.14-4.53-.23-.16-.07.2-.1.62-.07l-1.05-.08c.02-.08.6.01.93.02-1.23-.24-2.58-.1-4.03-.36l-.3.04-.1-.02c0 .03-.33.05-.55.04-.2-.1.03-.16-.7-.22-.57-.12-1.63-.1-2.38-.15.4.05.27.08.1.08-.36-.03-.56-.12-.85-.1l-.03-.1c.13.1-.95.01-1.1.04-.2-.1.57-.01.66-.05l-2.18-.2c-.78 0 .13.1-.25.15-.7-.04-1.36-.04-2.14-.17l.24.1c-1.3-.05-2.06-.13-2.92-.3-9.63-.2-2.1.75-2.1.75 3.76.53 5.73.46 10.22.8 3.94.4 4.97.66 9.06.97l5.94.5c.92-.04 2.5.23 3.58.22l.4.1c.37 0 .8.01 1.17.08h-.03c.56 0 1.17.08 1.45.08h-.02l.67.05-.12.02c.97.03 1.96.12 2.82.22l-.06-.1c1.86.27 2.55.15 4.23.42l-.02.02c2.15-.03 3.35.46 5.56.45-.28 0 .1.06.1.07.06 0 .12.01.2.01-.05.27-.1.52-.1.68l-.1.01c-.02.3-.02.63-.03.94l.04-.35c.3.13-.24.7.01 1.38-.02.32.2.62.4.9.18.3.37.57.38.9.2.26-.3-.2-.07.2-.15.06-.15-.18-.24-.04.1.26.1.5.16.75l-2.23.16-.2-.07c-.1-.12-1.23.3-1.4.2l-.52.1c-.15-.01-.46 0-.2-.06-.5.04-.5.06-.84.13l-.53-.03c-1.92.12-3.54.42-5.56.58-2.44.07-7 .64-9.6.98-3.68.54-8.02.43-11.78 1-.12-.01-.44.06-.44.08l-3.46.3s-16.8 1.53-3.94 1.4l-.08.04c1.9-.1 3.1-.2 4.4-.47.23.16 1.56-.12 2-.1l-.04.02c1.14-.24 2.4-.1 3.5-.34-.04.02-.06.07-.32.1.8-.1 1.92-.24 2-.15 1.94-.2 4.65-.42 5.87-.7l-.08.04c.7-.17.9-.1 1.7-.23.04.01.1.01.1.02.76-.18 2.25-.23 2.87-.33l.05.06 1.53-.16-.58.04c.18-.2 1.17.01 2.27-.22 1.04-.07 2.08-.58 3.17-.6.5-.13-.44.18.32.04.03.1-.35.1-.15.15.75-.12 1.25-.02 2.18-.17l.05.07c1.2-.25 2.3-.12 3.1-.32 1.25-.18.86.14 2.16-.13l.52.05c.56-.04.4-.16 1.02-.17-.03.07.8-.02.43.07.98-.02 2-.2 3.14-.3.1.24.18.48.27.7-.54.42-1.1.96-1.35 1.06 0 0-1.26.98-1.46 1.3.2-.26-.5.28-.35.06-.27.32-1.16 1.15-1.6 1.4l.06-.07c-1.44 1.1-2.3 2.06-3.6 3.02.1.02-.58.53-.34.48-1.22 1.16-2.5 1.78-2.74 2.43-.57.5-.75.52-1.06.75l.13-.13-2.22 1.88c-.4.36-.35.54-1.1 1.12.2-.24-.1.01-.37.24.17-.15.2-.22-.18.05-.04.06-.1.13-.17.2-.01 0-.02.01-.02 0-.44.4-.35.35-.13.18 0 .02.02.01.1-.03-.52.33-1.3 1.1-1.44 1.07-1.35 1.16-2.26 2.06-3.37 3.04-.16.06.07-.2.4-.5l-.8.7c-.04-.07.43-.42.67-.64-1.05.7-1.9 1.75-3.1 2.6l-.2.24-.07.05c.03.02-.2.27-.36.42-.2.08-.1-.13-.65.34-.48.32-1.23 1.07-1.8 1.58.32-.25.24-.14.13-.01-.28.23-.48.3-.68.52l-.1-.05c.17-.02-.67.68-.75.8-.2.08.4-.4.43-.5l-1.67 1.4c-.55.55.17-.02-.07.28-.52.45-1 .93-1.63 1.4l.25-.1c-.95.88-1.55 1.36-2.27 1.85-6.94 6.67-.96 2-.96 2 3.02-2.28 4.37-3.72 7.8-6.65 3.07-2.5 3.98-3.05 7.1-5.72l4.52-3.84-.05.06.06-.07c.62-.68 1.92-1.6 2.68-2.37l.37-.2c.26-.26.58-.56.9-.77v.03c.4-.4.9-.77 1.08-.97v.03l.5-.44-.07.1c.7-.66 1.46-1.3 2.15-1.84l-.1-.02c1.5-1.12 1.9-1.7 3.28-2.7v.03c1.5-1.54 2.7-2.04 4.25-3.62-.2.2.12-.04.12-.01l.43-.38c.02.15.06.28.4.53l.06.36c.2.28.32.05.52.4-.1.05.27.42.04.32.52.75 1.44 1.04 2.28 1.86.2-.02.42.1.64.2l-1.55 1.78-.2.1c-.15-.01-.65 1.1-.85 1.14l-.3.44c-.1.1-.33.32-.2.1-.32.37-.3.4-.5.7l-.4.35c-1.28 1.44-2.2 2.8-3.52 4.34-1.68 1.77-4.5 5.4-6.1 7.48-2.22 2.98-5.37 5.98-7.62 9.04-.1.08-.27.36-.25.36l-2.23 2.67s-10.8 12.95-1.8 3.77l-.03.08c1.27-1.42 2.04-2.34 2.77-3.44.27-.05 1-1.2 1.34-1.5l-.02.04c.64-.98 1.6-1.77 2.23-2.7-.02.04 0 .1-.16.3.5-.64 1.18-1.53 1.3-1.5 1.22-1.52 3-3.58 3.66-4.64l-.03.08c.37-.62.57-.72 1.04-1.37.04-.02.08-.06.08-.05.4-.66 1.43-1.75 1.8-2.26l.08.01.97-1.2-.38.43c-.01-.27.83-.83 1.45-1.76.7-.8 1.06-1.88 1.82-2.66.26-.45-.18.44.26-.2.1.04-.18.32 0 .2.45-.62.87-.9 1.42-1.66l.08.02c.68-1.03 1.55-1.72 1.97-2.43.76-1 .7-.5 1.44-1.62l.4-.33c.37-.42.16-.4.6-.84.02.07.54-.57.36-.26.64-.67 1.2-1.45 1.86-2.27.18.08.36.13.55.16.08.02.16.03.24.04-.07.67-.1 1.43-.2 1.66 0 0-.2 1.58-.12 1.96-.04-.32-.15.55-.2.3.04.42-.01 1.64-.13 2.12v-.1c-.25 1.8-.16 3.08-.4 4.7.1-.07-.03.78.1.58-.04 1.68-.5 3.02-.22 3.65-.05.76-.16.9-.22 1.28v-.18l-.24 2.9c-.01.53.14.63.01 1.57-.04-.3-.06.08-.1.43.01-.23-.01-.3-.1.16.01.07.02.17.02.26-.01 0-.01.02-.02.01-.03.6 0 .5.03.22.01.01.02-.01.05-.1-.14.6-.15 1.7-.27 1.77-.14 1.78-.14 3.05-.23 4.53-.07.16-.1-.2-.07-.62l-.08 1.05c-.08-.02.01-.6.02-.93-.24 1.23-.1 2.58-.36 4.03l.04.3-.02.1c.03 0 .05.33.04.55-.1.2-.16-.03-.22.7-.12.57-.1 1.63-.15 2.38.05-.4.08-.27.08-.1-.03.36-.12.56-.1.85l-.1.03c.1-.13.01.95.04 1.1-.1.2-.01-.57-.05-.66l-.2 2.18c0 .78.1-.13.15.25-.04.7-.04 1.36-.17 2.14l.1-.24c-.05 1.3-.13 2.06-.3 2.92-.2 9.63.75 2.1.75 2.1.53-3.75.46-5.72.8-10.2.4-3.94.66-4.97.97-9.06l.5-5.94c-.04-.92.23-2.5.22-3.58l.1-.4c0-.37.01-.8.08-1.17l.02.03c0-.56.08-1.17.08-1.45l.02.02.05-.67.02.12c.03-.97.12-1.96.22-2.82l-.1.06c.27-1.86.15-2.55.42-4.23l.02.02c-.03-2.15.46-3.35.45-5.56 0 .28.06-.1.07-.1.01-.2.03-.42.04-.62.2.06.38.12.57.16l-.1-.14c.42.12.56.4 1.08.24.23-.1-.4-.2.06-.2.57.14 1.47.27 2.23.22-.1-.13.12-.16.32-.22l.04.12c.76-.3.35.25 1.1-.08l.06-.12.16 2.28-.07.2c-.12.1.3 1.23.2 1.4l.1.52c-.01.15 0 .46-.06.2.04.5.06.5.13.84l-.03.53c.12 1.92.42 3.54.58 5.56.07 2.44.64 7 .98 9.6.54 3.68.43 8.02 1 11.78-.01.12.06.44.08.44l.3 3.46s1.53 16.8 1.4 3.94l.04.08c-.1-1.9-.2-3.1-.47-4.4.15-.22-.13-1.56-.1-2l.02.04c-.24-1.14-.1-2.4-.34-3.5.02.04.07.06.1.32-.1-.8-.24-1.92-.15-2-.2-1.94-.42-4.65-.7-5.87l.04.08c-.17-.7-.1-.9-.23-1.7.01-.03.01-.06.01-.07l.01.04v-.06c-.18-.76-.23-2.25-.33-2.87l.06-.05-.16-1.53.04.58c-.2-.18.01-1.17-.22-2.27-.07-1.04-.58-2.08-.6-3.17-.13-.5.18.44.04-.32.1-.03.1.35.15.15-.12-.75-.02-1.25-.17-2.18l.07-.05c-.25-1.2-.12-2.3-.32-3.1-.18-1.25.14-.86-.13-2.16l.05-.52c-.04-.56-.16-.4-.17-1.02.07.03-.02-.8.07-.43-.02-1.02-.2-2.06-.33-3.25.03-.02.05-.03.08-.06-.04.02-.05.01-.08.01-.01-.06-.01-.13-.01-.2.05-.05.13-.1.23-.1l-.05.15c.2-.1.24-.16.37-.2-.07.1-.01.15.17.08a.304.304 0 0 1 .05.07l-.06.1.08-.08c.42.54.96 1.1 1.05 1.35 0 0 .98 1.26 1.3 1.47-.26-.2.28.5.06.35.32.27 1.15 1.16 1.4 1.6l-.07-.07c1.1 1.44 2.06 2.3 3 3.6.02-.1.53.58.48.34 1.15 1.22 1.78 2.5 2.43 2.74.5.57.5.75.75 1.06l-.13-.13 1.87 2.22c.36.4.54.35 1.12 1.1-.24-.2.01.1.24.37-.15-.17-.22-.2.05.18.06.04.13.1.2.17 0 .01.01.02 0 .02.4.44.34.35.18.13.02 0 .01-.02-.03-.1.33.53 1.1 1.32 1.06 1.44 1.16 1.35 2.06 2.26 3.03 3.38.06.16-.2-.07-.5-.4l.7.8c-.07.04-.42-.44-.64-.67.7 1.05 1.75 1.9 2.6 3.1l.24.2.05.07c.02-.02.27.2.42.36.08.2-.13.1.33.65.3.5 1.07 1.23 1.58 1.8-.25-.32-.14-.24-.01-.13.23.28.3.48.52.68l-.05.1c-.02-.17.68.67.8.75.08.2-.4-.4-.5-.43l1.4 1.67c.55.55-.02-.17.28.07.45.52.93 1 1.4 1.63l-.1-.25c.87.95 1.36 1.55 1.85 2.27 6.66 6.96 2 .96 2 .96-2.27-2.97-3.7-4.3-6.63-7.74-2.5-3.07-3.04-3.98-5.7-7.1l-3.8-4.53.03.03-.06-.06c-.68-.62-1.6-1.93-2.37-2.7l-.2-.37c-.26-.26-.56-.58-.77-.9h.03c-.4-.4-.77-.9-.96-1.1h.03l-.44-.5.1.07c-.66-.7-1.3-1.47-1.84-2.16l-.02.1c-1.12-1.5-1.7-1.9-2.7-3.3h.03c-1.54-1.5-2.04-2.7-3.6-4.25.2.2-.04-.12-.01-.12l-.45-.52c.25-.16.48-.3.62-.28 0 0 .86-.52.9-.8-.08.22.36-.1.33.1.1-.28.6-.86.9-1l-.03.05c.07-.06.13-.12.2-.18l2.62.42c.3.2.97.55 1.02.7l.45.3c.1.1.33.33.1.18.37.3.4.3.7.5l.35.4c1.45 1.27 2.8 2.2 4.36 3.5 1.78 1.67 5.42 4.46 7.5 6.07 3 2.2 6 5.34 9.08 7.58.08.1.36.26.36.25l2.68 2.22c.02-.02 13.02 10.7 3.8 1.76l.08.03c-1.43-1.26-2.35-2.03-3.45-2.75-.05-.27-1.2-1-1.5-1.33l.04.02c-.98-.63-1.78-1.6-2.72-2.22.04.02.1 0 .3.16-.64-.5-1.53-1.18-1.5-1.3-1.52-1.2-3.6-2.97-4.66-3.64l.08.03c-.62-.37-.72-.57-1.37-1.03-.03-.04-.06-.08-.05-.08-.67-.4-1.76-1.42-2.27-1.78V401l-1.2-.97.44.38c-.27.02-.83-.83-1.77-1.45-.8-.68-1.88-1.05-2.67-1.8-.46-.26.44.18-.2-.26.04-.1.32.18.2 0-.62-.45-.9-.87-1.67-1.4l.02-.08c-1.03-.67-1.72-1.54-2.44-1.96-1.02-.75-.5-.7-1.62-1.43l-.1-.12 16.97 2.7 27.3 4.4c-.08.32-.17.63-.25.93l-.57 1.95v-.08l-.7 2.08.1-.37c-1 3-2.35 5.96-3.73 8.47l.2-.17c-1.53 2.66-2.63 4.44-3.8 6.1-.57.83-1.14 1.65-1.82 2.5l-1.07 1.34-1.3 1.44.03-.07c-2.24 2.68-4.28 4.58-6.44 6.34-2.18 1.74-4.44 3.42-7.46 5.4.75-.5-.35.17-.3.1-2.82 1.77-6.06 3.2-6.04 3.4-2.2 1-1.84.72-2.15.8.02.03-.46.25-1.16.55-.7.32-1.65.63-2.54.94l.82-.3c-1.7.6-3.44 1.12-5.2 1.58.36-.03.7-.07 1.07-.13-2.8.66-.75.01-3.43.68l.06.1c-3.92.74-6.28.8-10.1.9-7.98.27-16.3-1.04-23.92-4-7.62-2.92-14.44-7.45-19.72-12.68l-.4-.52c-.14-.26-3-2.8-3.25-3.35l-1.18-1.27c-.28-.4-.9-1.22-.34-.56-.97-1.27-1.05-1.26-1.74-2.18l-.93-1.44c-3.48-5.24-6.03-10.03-8-16.38-1.1-3.83-2.3-9.48-2.52-15.3-.16-2.9 0-5.85.22-8.6.18-1.36.28-2.7.52-3.92l.3-1.8.36-1.66c1.25-5.96 3.85-12.13 7.37-17.72 3.54-5.6 8.03-10.57 12.73-14.64l.67-.56c.24-.2.43-.38.43-.38 2.97-2.36 6.17-4.44 9.54-6.2 0 0 .76-.4 2.04-1.03l2.3-1.05 2.93-1.16c4.24-1.58 9.72-2.86 13.98-3.35 2.13-.24 3.94-.4 5.14-.44 1.2-.08 1.76-.15 1.4-.22-.36-.04-1.66-.17-4.2-.1-2.53.06-6.33.32-11.52 1.55l.27-.1c-6.13 1.63-9.83 3.3-13.62 5.46-.34.1-1.48.74-2.68 1.46l-3.04 2 .1-.1c-3.1 2.3-6.4 4.78-8.93 7.54.07-.08.1-.16.35-.45-1.86 1.9-3.96 4.4-4.14 4.5-2.07 2.5-4.28 5.73-6.02 8.9-1.75 3.15-3.04 6.2-3.7 8.2l.08-.28c-.4 1.1-.6 1.86-.88 2.6-.27.75-.53 1.55-.85 2.84-.05.14-.1.3-.1.28-.16.62-.34 1.4-.52 2.24-.2.84-.4 1.74-.55 2.64-.36 1.78-.57 3.53-.68 4.57l-.08.13-.23 3.2c.16.67-.3 3.9.07 7.6.2 3.5 1.14 6.97 1.94 10.48.5 1.65-.5-1.43.2 1.04-.08.1-.38-1.14-.28-.48.73 2.42 1.03 4.03 2.23 6.92l-.02.15c1.62 3.74 3.14 7.03 4.65 9.3 1.17 1.75 1.48 2.4 1.88 3 .2.3.4.62.7 1.07.3.46.75 1.05 1.47 1.88l.98 1.4c1.23 1.42.95.96 2.32 2.52-.13-.05 1.78 1.94.9 1.1 3.22 3.46 7.1 6.43 12.3 9.84.62.28 1.6.83 2.53 1.36.96.48 1.88.95 2.35 1.14.05.08 1.48.7 2.5 1.18 1 .45 1.6.7-.04.08-.28-.12-.76-.34-.72-.34l-.4-.1c3.18 1.6 6 2.4 9.36 3.34-1-.3-2.33-.68-1.42-.48 1.05.3 2.08.63 3.14.85l-.68-.1 2.36.57c.8.18 1.6.3 2.38.46l-.65-.2c1.16.24 1.95.4 2.78.52.83.12 1.7.28 3.04.3 1.2.03-2.23-.27.27-.1 3.15.33 7.93.4 11.96-.07-.4-.04.7-.17 1.8-.33l.14.06c4.22-.87 1.6-.04 5.75-1.07l-.36.14c.35-.14.7-.26 1.06-.42 3.66-1.2 2.06-.38 6.04-2-1.58.6-.8.14 1.15-.6l-.46.26 2.1-.9c-.6.32-.3.25 1.25-.46l-1 .55c.95-.48 1.92-.95 2.84-1.5 2.28-.98 5.54-3.18 6.44-3.66 0 0 .3-.17.7-.47l1.6-1.13c1.2-.9 2.46-1.92 2.9-2.35-.76.75 1.47-1.15.9-.54 1.05-.9 3.9-3.8 5.06-4.96 1.97-2.1 3.53-4.07 4.9-6.05 1.45-2.04 2.68-4.13 4.04-6.47-.2.18 1.16-2.34.74-1.76 2.42-5.03 4-9.4 4.2-11.42.01-.05.02-.1.03-.13l6.2 1.02c-.01.03-.03.07-.06.14-.74 2.68-1.36 4.37-2.55 7.6zm2.5-7c-.07.05.08-.55.1-.74.02 0 .04.01.07.01-.05.17-.1.4-.18.73zm.26-.72h.02c-.05.28-.04.18-.02 0zm-9.54-3.48c-3.27-.33-10.75-1.67-13.2-1.92-.4-.15-15.04-2.47-6.58-1.3.73.1 2 .3 1.9.34l1.02.04c-8.47-1.62-15.47-2.4-23.88-3.8 2.5.45 5.8.98 3.58.7l-7.8-1.3 1.64.16-11.64-1.96 1.6.4-1.98-.35-.3-.06v-.15c0-.06-.01-.1-.01-.08-.01.17-.01.03-.01.03-.01.25 0-.26-.01.08v-.15l-.01.22v-.08s0 .01-.01.02v-.08s-.01-.08-.01.1c0-.12-.03-.12-.03.06v.02h-.01c0-.04-.01-.14-.01-.02v-.16c0-.2-.01.32-.01.12v-.07c-.01-.1-.02.15-.03.1-.01-.2-.03-.1-.04.02-.01 0-.03 0-.04-.01-.01-.12-.02-.24-.03-.06 0-.03 0 .03 0 .06l-.02-.02s-.01 0-.01.02c-.1-.02-.18-.03-.27-.05-.25-.03-.47-.1-.7-.16-.87-.27-1.56-.73-2.08-1.32a4.166 4.166 0 0 1-.65-1.01c-.2-.4-.32-.8-.38-1.28-.13-.9.01-2.03.75-3.1.84-1.1-.12-.12-.48.52-.2.35-.3.65-.3.55.02-.04.05-.2.18-.46.06-.14.15-.3.27-.5.12-.2.27-.4.53-.7l18.66-22.36c-.7.62 1-1.43 2.7-3.55l.3-.17c6.5-8.2 2.64-2.8 9.1-10.9l1.02-1.52c5.74-7.4 3.4-3.74 9.73-12-2.6 3.2-1.44 1.32 1.8-2.56l-.72 1.07 3.5-4.36c-1 1.33-.42.8 2.17-2.4l-1.63 2.23 4.76-6.16 11.52-13.84 9.76-12.05c-.76 1.08 3.14-3.6 2.04-2.06l1.53-1.97-.77-.75c.04 0 .16.03.44.24l.27.22.13.12.04-.04.26-.27.54-.56.03-.03.04-.02c.1-.06.2-.14.3-.23.13-.01.3-.06.4-.1h.05c.1-.01.22-.04.33-.07v.01l.27-.06c3.87-.92 8.34-1.93 10.7-2.37l-.73.18 37.26-8.38c-.62-.01 6.18-1.45 4.46-1.26 6.54-1.56 12.53-2.8 17.5-3.88v.18c-.04 1.13-.13 2.1-.17 2.7l-.03-.1c-.08.98-.2 1.96-.3 2.94l.02-.5c-.14 1.38-.34 2.77-.56 4.15-2.5.46-6.12 1.4-7.14 1.47 0 0-5.36 1.12-6.55 1.57 1.05-.35-1.9.26-1.1-.06-1.36.44-5.42 1.46-7.1 1.7l.3-.08c-6.1 1.22-10.32 2.5-15.8 3.56.28.1-2.6.65-1.86.67-5.58 1.44-10.34 1.93-12.24 2.94-2.55.6-3.06.55-4.4.82l.6-.17-5.74 1.33 2.4 5.67c.76 1.66 1.1 1.82 2.32 4.85-.5-.93.03.3.5 1.4-.32-.7-.45-.92.1.58.12.2.27.5.4.8 0 .02.02.08-.01.05.83 1.86.72 1.52.36.65.03.04.02-.04-.07-.32.7 2 2.3 5.43 2.23 5.74l6.34 14.26c.14.56-.4-.5-1-1.85l1.44 3.32c-.14.02-.88-1.9-1.34-2.9 1.47 4.05 3.65 8.1 5.43 12.83l.5.92.1.28c.05-.04.56.98.86 1.66.17.7-.27.06.7 2.36.66 1.87 2.23 5.15 3.3 7.52-.52-1.3-.3-.9-.02-.37.5 1.15.66 1.86 1.08 2.73l-.08.13c.17.1 1.42 3.02 1.63 3.4.17.7-.85-1.75-1.05-2l2.94 6.92c1.15 2.42-.05-.5.57.62.95 2.16 1.94 4.24 2.9 6.78l-.2-.84c1.82 4.05 2.84 6.5 3.87 9.3l.75 1.6c-1.97.3-3.52.87-5.1 1.53-1.16.56-2.33 1.2-3.62 2.1-1.07-2.4-2.26-4.95-3.36-8.05-.62-.93-1.5-3.32-1.95-4.02.03-.16-1.97-4.7-.68-2.15.1.22.28.62.23.6l.25.27c-.9-2.75-2.15-4.78-3.23-7.42.3.8.74 1.83.37 1.17l-1-2.45.3.47-1.48-3.66.1.55c-.7-1.8-.75-2.52-1.77-4.45-.48-.87.55 1.75-.28-.1l-3.55-9.1c-.01.34-.35-.48-.73-1.3l.07-.15c-1.52-3.16-.25-1.3-1.72-4.44l-.4-.5c-1.44-2.8-.42-1.66-2.08-4.74.55 1.26 0 .7-.6-.88l.28.35c-.4-.85-.56-1.12-.78-1.7.28.5.28.2-.28-1.06l.5.8-1.22-2.32c-.66-1.9-2.05-4.78-2.22-5.6 0 0-1.6-4.02-2.16-4.86.44.76-.44-1.46-.05-.9-.56-.98-1.94-4-2.33-5.27l.1.23c-.9-2.3-1.75-4.2-2.58-6.06l-1.23-2.78-.6-1.43-1.1-2.7c.03.23-.24-.36-.53-1-.63.8-1.3 1.66-.93 1.37l-1.62 2.04-1 1.2-1.85 2.13c-1.12 1.3-1.97 2.34-2.27 3.16-1.3 1.62-1.66 1.8-2.36 2.62l.3-.4-4.97 6.13c-.87 1.15-.8 1.5-2.5 3.44.45-.7-.2.12-.82.86.38-.5.47-.66-.4.28-.1.16-.25.38-.4.6-.01 0-.05.04-.04.01-1 1.27-.8 1.07-.3.5-.01.04.04 0 .2-.16-1.16 1.2-2.95 3.6-3.2 3.65-3.04 3.77-5.1 6.56-7.6 9.72-.36.3.17-.5.9-1.42l-1.8 2.23c-.1-.1.98-1.32 1.52-2.02-2.33 2.5-4.28 5.56-6.96 8.52l-.44.7-.16.17c.02.01-.05.13-.15.3-.08.08-.17.2-.3.32l.24-.25c-.17.26-.42.6-.62.87-.45.36-.18-.2-1.43 1.33-1.08 1.14-2.77 3.47-4.02 5.1.7-.84.54-.52.27-.13-.62.77-1.07 1.13-1.52 1.75l-.14-.02c0 .18-1.57 2.12-1.73 2.4-.45.36.9-1.25.98-1.5l-3.75 4.6c-1.25 1.7.36-.2-.18.67-1.16 1.46-2.23 2.94-3.66 4.54l.54-.44c-2.14 2.78-3.48 4.4-5.1 6.13l-4.17 5.65-2.95 3.66c.23-.2.44-.35.56-.4 0 0 .08-.06.2-.15l-.48.72c-1.05-.06-1.28.03-.24.37-.94 1.5-.44 1.15.53.16 1.7.5 5.26 1.34 11.5 2.7l-.24.01c5.1.95 8.3 1.5 11.85 1.84.5.38 4.2.72 5.37 1h-.12c3.15.3 6.4 1.23 9.42 1.53-.12 0-.2.07-.9-.04 2.2.32 5.2.75 5.33.94 5.23.8 12.5 2.08 15.9 2.36l-.24.01c1.94.13 2.47.38 4.62.64.1.04.26.08.24.08 2.1.16 6.07.96 7.76 1.16l.1.13 4.14.65-1.54-.28c.6-.2 3.1.7 6.13 1 2.8.5 5.8.3 8.7.93 1.4.1-1.26.03.83.26.04.17-1-.06-.47.15.67.1 1.25.2 1.83.3-.82 2.2-1.26 4.64-1.34 6.9.01.3.01.64 0 1.02 0 .38.04.8.05 1.2 0 .1.01.2.02.3-.7-.1-1.63-.25-3.15-.52.32-.05-6.3-1.12-3.36-.74l-37.9-6.25zm54.53-11.96l-.02-.05c.22-.18.43-.36.48-.4.2-.08-.24.26-.46.46zm-26.66-11.5c-.3 2.63-.45 4.64-.58 6.46l-.1 1.34c-.05.56.06 1.2.3 1.73.36.82 1.08 1.5 1.96 1.83v.03c-.1 1.7-.1 3.52-.63 5.75-.01.05-.03.1-.04.16l-5.43-.8c.1-1.13.15-2.26.18-3.4.17-3.86-.1-7.74-.46-11.35-.27-1.8-.44-3.54-.8-5.16l-.45-2.36-.53-2.17c-1.92-7.78-5.1-15.94-9.54-23.46-3.4-5.75-7.65-11.06-12.34-15.54l3.9-4.83c1.4-2.04 4.33-5.28 6.04-7.65l.8-.8c.6-.82 1.3-1.76 2-2.5l-.01.07c.88-1.22 2-2.5 2.44-3.1l-.01.07 1.15-1.42-.16.27 2.14-2.73.77-.95.22-.25.06.18c.02-.08.04-.16.05-.25.03.1.06.2.1.28l.04.12.1.24.6 1.42 1.06 2.43c.68 1.53 1.33 3 2.13 5.16l-.06-.04c2.6 5.2 3.32 8.56 5.98 13.93-.33-.67.06.32 0 .28.82 1.85 1.66 3.8 2.16 4.7l-.34 5.4c-.02 3.4-.7 9.36-.83 13.38l-.24 1.54c-.05 1.38-.14 3-.32 4.4l-.03-.1c-.08 2.07-.33 4.4-.37 5.42l-.03-.1-.2 2.5-.01-.43c-.2 3.6-.52 7.3-.84 10.57l.16-.28zm-22.78 7.56c.07 1.02.08-.27-.03-1.45.07.75.1.98.03-.57-.04-.22-.07-.55-.1-.87 0-.01 0-.08.01-.04-.2-1.96-.23-1.6-.1-.7-.01-.04-.02.03-.01.32-.07-1.02-.25-2.44-.42-3.62-.2-1.18-.38-2.15-.35-2.28-.62-2.9-1.3-5.36-2.13-7.63-.78-2.3-1.72-4.38-2.77-6.6-.18-.53.34.5.95 1.8-.5-1.06-.95-2.13-1.5-3.16.04 0 .28.44.58 1l.8 1.76c-1.58-3.87-4-7.62-6.8-11.62-.2-.27-.45-.5-.67-.77l-.17-.24-.02-.02c-.03-.06-.18-.27-.57-.76l.55.75c-.15-.14-.75-.84-1.15-1.33-.4-.57.16-.07-1.43-1.9-.5-.62-1.24-1.4-2.06-2.22l3.8-4.63c2.1 2.05 4.5 4.86 4.55 5.1 2.28 2.73 4.7 6.27 6.62 9.7 1.93 3.44 3.4 6.77 4.27 8.88l-.14-.28c.55 1.18.78 2 1.07 2.83.3.83.55 1.7.97 3.1.02.1.04.18.05.25-.02-.05-.03-.1-.05-.16.03.1.04.14.06.18.01.04.02.07.01.06.24.67.45 1.52.67 2.44s.46 1.9.62 2.9c.4 1.97.6 3.9.76 5.03l-.05.15c.17 1.88.35 3.75.37 5.64-.02-.7-.01-1.4-.05-2.1.2.7.1 4.13-.06 8.12l-5.98-1.1c.01-.24.03-.5.03-.75 0-1.77-.1-2.04-.16-5.2zm-9.6-4.32l.08-.04c-1.9.12-3.1.22-4.4.5-.22-.15-1.56.14-2 .12l.04-.02c-1.14.25-2.4.12-3.5.35.04-.02.06-.07.32-.1-.8.1-1.92.25-2 .16-1.94.22-4.65.44-5.87.72l.08-.04c-.7.18-.9.1-1.7.24-.04-.01-.1-.01-.1-.02-.76.18-2.25.24-2.87.35l-.05-.06-1.53.17.58-.04c-.18.2-1.17 0-2.27.23-1.04.08-2.08.6-3.17.6-.5.14.44-.18-.32-.04-.03-.1.35-.1.15-.15-.75.12-1.25.03-2.18.18l-.05-.07c-1 .2-1.9.17-2.63.26-2.52-.36-4.77-.66-6.2-.8 1.12-1.18 2.58-2.85 3.33-3.72 1.17-.94 2-1.8 3.15-2.64-.1-.02.58-.53.34-.48 1.22-1.15 2.5-1.78 2.74-2.43.57-.5.75-.5 1.06-.75l-.13.13 2.22-1.87c.4-.36.35-.54 1.1-1.12-.2.24.1-.01.37-.24-.17.15-.2.22.18-.05.04-.06.1-.13.17-.2.01 0 .02-.01.02 0 .44-.4.35-.34.13-.18 0-.02-.02-.01-.1.03.53-.33 1.32-1.1 1.44-1.06 1.35-1.16 2.26-2.06 3.38-3.03.16-.06-.07.2-.4.5l.8-.7c.04.07-.44.42-.67.64 1.05-.7 1.9-1.75 3.1-2.6l.2-.24.07-.05c-.02-.02.2-.27.36-.42.2-.08.1.13.65-.33.5-.3 1.23-1.07 1.8-1.58-.32.25-.24.14-.13.01.28-.23.48-.3.68-.52l.1.05c-.17.02.67-.68.75-.8.2-.08-.4.4-.43.5l1.67-1.4c.55-.55-.17.02.07-.28.52-.45 1-.93 1.63-1.4l-.25.1c.95-.87 1.55-1.36 2.27-1.85 6.96-6.66.96-2 .96-2-3.03 2.27-4.37 3.7-7.8 6.63-3.07 2.5-3.98 3.04-7.1 5.7l-4.56 3.84c-.62.68-1.93 1.6-2.7 2.37l-.37.2c-.26.26-.58.56-.9.77v-.03c-.2.2-.43.4-.64.58 3.95-4.82 7.1-9.04 12.74-16.05l9.74-11.52c2.4 2.47 4.1 4.67 5.72 6.9.6.85 1.2 1.7 1.76 2.62l.9 1.4.87 1.52c1.2 2.1 2.43 4.52 3.66 7.63 1.15 2.97 2.16 6.13 2.83 9.34.68 3.2 1.1 6.46 1.28 9.57.05.74.1 1.62.12 2.6.02.96-.03 2-.06 3.07 0 .12-.02.24-.02.36-5.2-.98-10.44-1.94-15.4-2.57-.33-.08-1.2-.16-1.2-.13l-9.33-1.56-11.85-1.88h.02c2.45-.1 7-.7 9.6-1.04 3.67-.56 8.02-.47 11.78-1.06.12.01.44-.07.44-.08l3.46-.32c-.01 0 16.78-1.6 3.92-1.4zm-3.97-40.48l.02-.02.54.5c-.1-.08-.18-.14-.56-.5zm38.83 51.72c.08-.33.08.23-.01 1.02.1-.68.17-1.36.2-2.04.1.03-.05 1.4-.16 2.16.14-.72.23-1.46.27-2.2l.06-1.8c1.1.16 2.27.35 3.64.6l-.1.02c6.13.58 10.22 1.5 15.5 2.24-.36.42-.7.84-1 1.25-.88 1.16-1.7 2.44-2.57 4.46-4.08-.84-10.4-1.84-16.32-2.72.2-.97.4-1.94.48-2.97zm13.8 21.08l.14-.04c-1.1.01-2.24-.08-3.24-.2l.07.15c-2.12-.34-2.93-.1-4.84-.45l.03-.03c-2.47.18-3.83-.58-6.37-.42.32-.02-.13-.1-.1-.12-.58-.03-1.18-.06-1.64-.05-.06 0-.1.01-.16.01-.06-.12-.12-.25-.17-.38-.23-.52-.4-.82-.53-1.24s-.3-.98-.33-2.02c.1.65.02-.13.07-.88 0 .34-.01.46.05.01l5.3.9 1.58.4c.58.3 7.93 1.1 10.6 1.57l.06.26.01.54c.05.23.1.5.15.74.07.25.13.5.17.74l-.03-.02c.07.2.13.4.18.6-.1 0-.18-.01-.25 0l.03-.03-.76-.05zm.78 5.8c.05-.1-.9-.16-.47-.22-1.6-.3-3.3-.03-5.4-.48-.4.14-1.23.02-1.68.05-.13 0-.25-.01-.38-.01-.48-.08-1.77-.16-.75-.24.1-.01.3.01.27.04l.15-.1c-1.2-.33-2.2-.05-3.4-.18.35.07.83.1.5.15l-1.1-.1.24-.08-1.65-.2.22.15c-.8-.13-1.07-.37-2-.26-.42.07.75.23-.1.2l-1.92-.3-1-.15c-.05-.02-.1-.04-.16-.06-.06.08-.1.1-.17.12-.01-.02-.02-.06-.03-.1l.13-.08c-.08-.14-.01-.1.08-.3.08-.13.17-.25.16-1l-.15-.27c-.08-.52.05-.53.14-.63.1-.08.15-.16.37-.6-.24.28-.36-.1.1-.35l-.04.17c.2-.17.28-.24.45-.28-.13.12-.02.17.32.08-.07.07-.13.12-.2.2.1-.07.18-.12.3-.16.1-.05.18-.08.4-.1.83.2 2.2.15 2.52.34 0 0 1.8.23 2.24.08-.37.08.62.2.33.32.48-.1 1.88-.08 2.43.1l-.1.01c2.05.3 3.54.1 5.37.42-.07-.15.9.01.67-.2 1.86-.02 3.34.6 4.1.2.44 1.15 1.02 2.28 1.48 3.3l.04-.13c.17.32.33.6.48.86-.2-.05-.5-.08-1.03-.04l-.57-.2c-.65-.07-.48.18-1.2.04zm.8-3.8c.01 0 .01 0 .02-.01l.04.1-.06-.08zm4.95 10.1l-.07.06c-.3-.03-.87-.2-1.5-.17-.8-.08-1.64.26-2.46.1-.02 0-.03 0-.05.01l3.62-3.38c4.1-3.62 5.28-4.47 9.46-8.3l2.5-2.25c.02.12.01.2.27.4l.04.22c.14.18.2.04.33.25-.06.03.17.27.03.2.28.4.74.6 1.2.97-3.15 2.78-6.66 5.58-9.56 8.42-.14.1-.44.43-.43.44l-3.35 3-.3-.02.28.03zm6.82-26.83l.1.34c.03.1.08.26.07.26.01.04 0 .06 0 .1l-1.4-.77c-.58-.33-1.23-.63-1.6-.97-.4-.37-.65-.86-.78-1.42v-.45c.52-.6 1.06-1.18 1.6-1.72.15.32.26.6.26.7l.65 1.28c.12.4.4 1.2.1.55.52 1.23.56 1.24 1 2.1zm-3.33.03c.46.3.82.47 1.22.68.03.02.07.04.1.06l-1.6-.24-2.22-.32c.2-.36.4-.7.64-1.05.2-.28.4-.56.6-.83.07.2.15.37.25.56.22.44.6.83 1 1.14zm.26 2.33l2 .37 1.14.17c.46.06.9.12 1.28.15l1.6.25c.05.01.12.03.16.02l-.06-.15c-.04-.1-.07-.18-.1-.27a7.476 7.476 0 0 1-.18-.48c-.22-.58-.34-.98-.48-1.4l-.24-.7c-.08-.22-.17-.45-.28-.73-.17-.42-.4-.96-.82-1.76l-.38-1.35c-.55-1.38-.62-.97-1.15-2.4.34-.26.68-.52 1.05-.74.5-.3 1-.62 1.5-.88 0 0 .24-.1.63-.3l.7-.34c.27-.1.58-.22.9-.34 1.3-.54 2.98-.88 4.28-1.12.03 0 .05-.01.08-.01l3.4 6.94c-.56.98-.58 1.22.2.37 1.03 1.88.9 1.18.37-.42.83-.96 2.24-2.72 4.37-5.45l.8.27c1.4.6 2.87 1.27 4.63 2.68.08.08.15.14.22.2-.12.1-.23.2-.32.25l.1-.1c-1.9 1.6-3.1 2.93-4.83 4.35.13 0-.78.75-.5.64-1.18 1.16-2.35 2.02-3.06 2.7-.2-.1-.45-.14-.68-.3l.05.12c-.47-.12-.73-.22-1.03-.38-.9-.06-1.4.1-1.62.22-.23.1-.2.2-.1.28.24.15.84.26.84.28 1.13.44 1.8.42 3.04 1.28.48.45.7.8.92 1.15.2.36.4.72.7 1.32.23.6.4 1.25.44 1.87.15.3.01.82.05 1.18l-.1.12c.02.13.02.27-.05.38l-.02-.01c0 .2-.07.38-.08.47l-.02-.01-.07.2-.02-.05c-.04.32-.2.62-.34.87l.1.02c-.4.48-.38.78-.84 1.14l-.01-.02c-.32.7-.9.67-1.38 1.23.06-.07-.06-.02-.06-.04-.27.2-.6.35-.53.52-.23.1-.2.03-.26-.01.03.07-.16.17-.35.25l.08-.06c-.17.08-.35.13-.53.18l.14.1c-.3.04-.12-.15-.4-.04l.03.1c-.42.04-.7-.1-1.08-.17-.8 0-1.66-.07-2.46-.34-.8-.26-1.53-.72-2-1.33l.01-.1c.07-.1-.42-.18-.37-.3l-.16-.1c-.01-.05-.06-.15.02-.1-.1-.13-.1-.12-.2-.2l-.04-.2c-.3-.56-.68-.98-.86-1.65-.1-.8-.36-2.3-.17-3.22.04-.64.4-1.27.8-1.8.42-.54.9-1 1.32-1.48.04-.02.1-.1.1-.12.3-.24.64-.44 1-.62 0 0 .08-.04.2-.1.13-.07.3-.15.53-.23.43-.2.98-.32 1.42-.44.44-.1.76-.2.68-.34-.08-.1-.56-.4-1.84-.36l.03-.04c-.74.12-1.2.33-1.58.68-.15-.1-.54.3-.7.35l.01-.02c-.3.37-.82.5-1.05.9 0-.02-.03-.07.04-.14-.2.25-.47.6-.56.56-.5.6-1.03 1.56-1.04 2.1l-.01-.04c.01.3-.12.34-.14.66-.02.01-.03.03-.03.03.01.3-.17.86-.15 1.1l-.07.01-.02.6.03-.22c.18.08-.15.45.01.9.01.42.46.76.48 1.16.13.17-.18-.13-.04.13-.1.03-.1-.12-.15-.03.1.27.04.5.23.8l-.06.04c.06.08.1.16.15.25l-1.08 1.02c-1.44-.27-3.4-.58-6.95-1.08l-3.8-.8c-.06-.46-.1-.93-.1-1.4-.04-.45-.06-.9-.03-1.34l.04-1.3c.13-.83.15-1.63.33-2.27.15-.94.46-1.9.86-2.8 1.27.15 2.47.36 3.57.57zm22 2.37c.1.05-.33.38-.08.25.5-.5.94-.82 1.45-1.24l-2.7 3.8c0-.03.01-.06.03-.07-.12-.46-.28-.8-.46-1.14.43-.5.88-.96 1.4-1.37.47-.54-.4.53.37-.24zm6.9-5.78c.5.83 1.02 1.8 1.62 3.17.73 1.8 1.17 3.86 1.27 5.76.04.22.07.5.1.8.01.3-.02.6-.03.94l-.05.97c-.03.3-.07.6-.08.88l-.13.4c-.01.37-.07.8-.2 1.15v-.03c-.1.55-.25 1.15-.33 1.4l-.01-.03-.22.63.01-.12c-.24.94-.7 1.83-1.1 2.6l.1-.02c-.07.1-.13.2-.2.3-.08-.47-.14-.8-.28-1.2-.28-.83-.73-1.68-1.5-2.46-.53-.53-1.25-.97-1.85-1.28l-1.72-.93c0-.12 0-.24-.01-.35l-.01-.16v-.13c0-.07-.01-.1-.02-.17-.04-.2-.1-.34-.18-.45-.14-.23-.3-.36-.43-.46-.28-.2-.46-.17-.46-.03-.01.1.05.26.1.48-.08-.1-.17-.2-.26-.28l-1.5-.7c.2.05.4.1.56.1.46.08.8.12 1 .1.45-.01.48-.17.32-.37s-.5-.47-.8-.67c-.16-.1-.3-.2-.4-.26-.02-.01-.04-.02-.06-.04l6.43-9.34c.1-.06.22-.14.34-.24zm-.22 19.46h-.14c-.08-.01-.14-.02-.2-.03-.24-.03-.35-.06-.48-.1-.25-.06-.55-.13-1.95-.2l-.52.06c-.74-.02-1.17-.05-1.48-.08l.18-2s.12-1.4.17-2.82c.15.08.28.16.44.25.56.33 1.2.65 1.7 1.02 1.04.76 1.8 1.95 2.07 3.15.02-.12.06-.02.12.2.03.1.07.27.12.45l-.08-.02c.01.05.02.1.03.13zm-7.9.84c.16.02.33.03.5.05l.67.05c.57.03 1.12.05 1.62.05.08.02.2.02.3.01-.01-.12-.02-.24-.03-.25v-.05l2.05.16-.73-.2c2 .2.5.2 2.4.34l-.01-.12 1.1.1c-.32.5-.68.95-1.25 1.53V415c-.83 1.15-1.65 1.77-2.6 2.44-.83-.1-1.65-.28-2.44-.22.05-.02.08-.1.38-.08-.93-.04-2.2-.08-2.27-.25l-3.26-.23c-.05-.07-.25-.06-.5-.03-.78-.05-1.5-.08-2.12-.08-.37-.03-.45 0-.8.03l-.03-.01.05-.02c-.03 0-.05.01-.08.01l-.52-.16c-2.2-.28-4.08-.17-6.38-.4-.82-.15-1.86-.26-3-.36.33-.3.58-.5.64-.48l3.28-2.98c.3.01.6.03.9.07 1.58.4 4.6.4 6.35.4.47.03.92.04 1.36.05.82.07 1.65.22 2.5.37.62.1 1.28.22 1.93.3zm-23.97-6.1l1.33.22-.2.4-.8 1.56c-.27-.01-.54-.03-.83-.05-.14-.33-.27-.68-.38-1.05l-.28-1.37c1.25.22 3.07.56 1.17.3zm.82 4c-.1.05.25.07.6.1-.26 0-.34.03.18.14.08-.03.2-.04.3-.04 0 .01.02.02.01.03.68.02.56-.02.25-.06.02-.01-.01-.04-.1-.07.6.17 1.6.16 1.92.27-.43.4-.88.8-1.37 1.2l-.27.33-.1.07c.03.02-.23.3-.44.5l-.2-.38c-.44-.72-.86-1.4-1.24-2.1.17-.01.3 0 .46.01zm8.42 12.68c-.02-.03-.04-.07-.06-.1.02.02.07.02.15.13-.03 0-.06-.01-.1-.02zm27.07-31.97c.62 1.16 1.18 2.24 1.5 2.95l-.06-.1c.38.8.46 1.04.73 1.98 0 .06.01.12 0 .1.15.45.4 1.1.48 1.78l.27 1.7-.06.06c.06.63.08 1.26.12 1.9l-.02-.7c.1.12.1.48.08.98s-.13 1.14-.1 1.83l-.05 1.97-.04 1c-.05.33-.13.66-.24 1-.08.65.01-.58-.17.37-.1.01.05-.45-.08-.23-.1.46-.2.83-.36 1.22-.16.38-.33.8-.5 1.34l-.1.02c-.44 1.45-1.25 2.55-1.7 3.45-.75 1.37-.73.76-1.57 2.15l-.46.44c-.48.5-.24.45-.8.98-.02-.08-.7.68-.43.3l-1.97 1.82c-.74.58-1.52 1.25-2.56 1.73-.18.18-.52.4-.86.62-.35.18-.7.35-.84.47-.04-.01-.56.24-.93.4-.38.16-.6.22-.03-.08.1-.06.27-.14.27-.1l.1-.13c-.6.24-1.15.42-1.7.66-.53.24-1.07.48-1.7.6.37-.07.86-.2.55-.07l-1.16.3.23-.12c-.57.15-1.15.28-1.74.33l.25.04c-.87.07-1.18.05-2.14.22-.44.08.83.06-.08.13-.58-.01-1.3.04-2.07-.01-.76-.08-1.57-.1-2.3-.22.13.1-.27.04-.68 0l-.04-.08c-1.57-.15-.55-.2-2.07-.5l.14-.02-.44.05c-1.2-.18-.86-.3-1.7-.53-.34-.6-.98-1.2-.96-1.3-.6-.56-1.48-1.1-2.38-1.3-.44-.1-.9-.15-1.25-.16s-.66 0-.9.02l.07-.02c-.46.06-.65-.01-1.06-.02-.38-.3-.76-.6-1.12-.9.2-.2.4-.37.54-.47l-.03.05c.63-.67 1.35-1.27 2.07-1.87.7.55 1.45 1.08 2.32 1.7.22.06.53.24.83.4.3.14.6.28.78.3.01.04.46.25.78.42.32.15.5.24-.03.08-.1-.03-.24-.1-.23-.12l-.15.01c.48.33 1 .46 1.48.6.5.16 1 .28 1.54.4-.32-.1-.75-.2-.45-.2l1 .27-.23.01c.5.15 1 .28 1.52.35l-.2-.1c.74.14 1 .36 1.86.3.4-.04-.7-.14.1-.12.5.04 1.14.14 1.8.15.67-.02 1.38.01 2.03-.07-.13-.07.22-.12.57-.2l.05.07c1.34-.33.54.13 1.86-.3l.2-.16c1.15-.45.7-.01 1.92-.66-.5.2-.3-.07.34-.26l-.13.12.67-.3c-.18.13-.06.15.42-.1l-.3.24.87-.57c.77-.24 1.75-1.05 2.1-1.1 0 0 .1-.05.23-.15s.32-.23.5-.37c.38-.3.8-.6.9-.78-.2.28.5-.33.36-.1.28-.36 1.2-1.27 1.6-1.63l-.06.08c1.4-1.36 1.97-2.66 2.93-4.1-.1.03.33-.77.13-.62.17-.42.36-.8.53-1.16l.42-1.02c.28-.62.4-1.14.3-1.5.17-.8.34-.9.4-1.32l-.01.2c.2-1.5.3-1.94.32-3.07-.01-.57-.13-.65-.16-1.65.08.35.05-.06.03-.43.02.24.05.3.07-.18-.02-.07-.04-.17-.06-.27l.01-.02c-.07-.62-.1-.5-.06-.22-.01-.01-.02.01-.03.1 0-.65-.27-1.8-.17-1.9-.44-1.84-.96-3.1-1.68-4.48-.03-.18.18.13.4.53l-.5-1c.08-.03.32.56.48.86-.34-.96-.93-1.85-1.57-2.8l.52-.35c.6-.5.33-.46 1-1 0 .08.84-.7.5-.3.1-.07.18-.15.27-.23.36.54.7 1.1 1.02 1.64zm.4-8.44c.05.02.1.04.16.06-.16-.05-.22-.05.1.12.05 0 .13.02.2.03 0 .01.01.01 0 .02.43.14.36.1.17.01.01-.01 0-.02-.05-.06.4.25 1.2.47 1.22.6l1.3.45c-1.66 1.5-3.3 2.97-4.9 4.3l-.26.12c-.18-.02-1.16 1.3-1.42 1.37l-.5.53c-.17.12-.5.4-.25.13-.5.45-.5.47-.84.83l-.6.42c-2.02 1.73-3.6 3.36-5.7 5.2-.63.5-1.38 1.17-2.2 1.88-.18-.26-.4-.5-.56-.83l-.12-.06-.01-.03c-.03.02-.14-.05-.2-.1 0-.1.13-.1-.07-.3-.1-.22-.46-.44-.7-.6.1.1.04.1-.02.08-.06-.05-.1-.1-.12-.15l.57-.53-.1.13c.98-.96 2-1.88 2.9-2.66h-.13c2-1.65 2.57-2.42 4.4-3.9l-.01.04c2.04-2.14 3.57-3 5.7-5.2-.26.27.15-.08.14-.04.8-.74 1.63-1.5 1.92-1.88zm-8.76-3.9c.43.47.94.86 1.5 1.25-.02-.1.6.27.5.1 1.27.4 2.1 1.08 2.65.94.54.2.6.33.88.45l-.13-.03c1.02.37 1.3.5 2.06.8.03.01.06.01.1.02l-.15.16c-.8.63-1.95 1.78-2.34 2l-.26.23c-.3-.26-.6-.52-.9-.75-.1-.13-.47-.32-.47-.32-.6-.43-1.17-.93-1.8-1.3s-1.25-.8-1.92-1.14l-.8-.4c-.1-.04-.2-.1-.3-.14.46-.58.92-1.2 1.4-1.84zm-4.37-27.8c-.1.55-.16 1.2-.16 1.94 0 .36.01.74.06 1.13.01.1.03.2.04.3-.3.15-.9.4-1.35.84.08-.1.18-.2.27-.28-.33.24-.6.54-.84.88-.1.17-.2.36-.28.55l-.17.45.36-.26c-.44.9-.36.13-.67 1.04l.2.06-.4.86-.33-.12c-.8 2.5-.93 3.2-.86 3.54.05.13.2.05.48-.32.04-.05.08-.12.12-.18l-.23.64c-.36.9-.14 1.93.46 2.65-.2-.2-.4-.4-.53-.63-.44-.75-.46-1.44-.45-1.87.1-.86-.08-.8-.34-.5-.34.45-.6 1.56-.33 2.46.22.9.8 1.52.8 1.52.26.3.56.57.9.77.15.1.38.2.5.25l.34.15 1.3.55c.83.34 1.63.63 2.45.92l4.97 1.74c-.04.01-.07.02-.1.03-.14.03-.3.1-.7.48.35-.26.25.02-.18.3l.06-.14c-.23.18-.26.28-.42.4.1-.14-.02-.15-.3.17.04-.1.08-.2.14-.27-.16.23-.32.46-.45.7-.47.45-.8 1.4-.94 1.63-.05-.02-.38 1.33-.2 1.65-.07-.28-.1.48-.18.27.06.37.3 1.37.4 1.78l-.04-.07c.03.1.07.2.1.3l-1.9 2.78-.34-.12c-1.65-.66-3.83-1.04-5.5-1.2-1.67-.07-2.82-.01-2.54.15.14.08.63.2 1.58.34.24.04.5.08.8.12l.96.23 1.15.27c.4.12.84.28 1.3.43h-.1c1.14.28 2 .7 2.8.97.8.32 1.5.66 2.25.94.13.3 1.65 1 2.06 1.37l-.05-.02c.6.38 1.2.82 1.73 1.3.2.2.43.4.64.6-.37.34-.72.68-.84.85.28-.35-.64.44-.43.15-.2.22-.6.64-1.02 1.04l-.15-.12c.07.06.1.1.13.14a.138.138 0 0 1-.04.03c-.02-.01-.04-.02-.06-.04-.28-.26-.4-.46-.66-.6l.03-.1c.07.16-.86-.53-1-.58-.13-.2.5.3.62.32-1.24-.92-.6-.47-1.93-1.27-.74-.36.08.15-.3.02-.63-.36-1.3-.56-2.02-.98.07.06.14.13.2.2l-2.9-1-.87-.16-.8-.06c-.5-.03-.92-.07-1.28-.07-.74.04-1.25.08-1.57.12-.68.1-.63.2-.27.28.35.1 1 .18 1.55.24.28.02.53.08.72.1l.3.06c1.02.18 1.87.4 2.67.66l-3.4 5.25c-.74-2.1-1.96-5.2-2.48-6.48.5-.08.76-.16.63-.24-.1-.07-.52-.13-1.32-.2-.4-.05-.9-.04-1.5 0l-1 .06-1.17.2.08-.05c-1 .18-1.76.52-2.47.76-.68.3-1.27.64-1.86 1-.27-.03-1.44.82-1.85 1.07l.03-.04c-.45.43-1 .76-1.5 1.15-.48.4-1 .78-1.36 1.26.02-.03.01-.07.08-.16-.57.63-1.25 1.42-1.34 1.4l-1 1.35c-.32.5-.62 1-.92 1.5-.52 1.03-.97 2-1.1 2.65l.01-.1c-.14.75-.37.9-.5 1.75-.02.04-.05.1-.05.1-.04.42-.23.98-.3 1.56-.1.57-.2 1.12-.22 1.45l-.07.04c-.04.54-.05 1.1-.08 1.63l.05-.6c.1.1.04.42-.02.85a8.946 8.946 0 0 0 .07 1.58c-.01.56.2 1.1.36 1.65.1.27.17.54.24.82.1.27.17.54.22.82.22.5-.25-.43.01.34-.1.05-.15-.35-.17-.13.22.77.27 1.3.67 2.2l-.06.07c.6 1.14.92 2.28 1.5 2.95.54.8.46.92.74 1.32l-.01.01c-.3.22-.68.57-1.07.95l-.9-.03c-.26 0-.52-.02-.78-.03a16.168 16.168 0 0 1-1.08-1.78c-.04.12-.45-.84-.44-.56-.24-.45-.47-.9-.64-1.3l-.4-1.2c-.26-.73-.4-1.3-.66-1.63-.24-.9-.23-1.1-.27-1.57l.05.22-.32-1.92c-.08-.5-.06-.96-.1-1.6-.06-.65-.27-.75-.15-1.92.04.38.06-.1.08-.53 0 .28.01.37.1-.2-.02-.08-.02-.2-.03-.33.01 0 .01-.03.02-.01.04-.73.04-.6-.04-.27-.01-.02-.03.01-.05.1.18-.74.3-2.1.42-2.16.46-2.13.83-3.68 1.6-5.35.14-.16 0 .25-.2.73l.54-1.18c.07.05-.28.7-.44 1.06.76-1.33 1.3-2.92 2.5-4.3l.17-.34.07-.08c-.03-.02.18-.37.33-.6.22-.15.1.12.7-.55.24-.22.53-.55.85-.9l2.5-2.2c1.23-.93.64-.5 2.1-1.4.78-.56-.2.01.16-.3.72-.46 1.47-.83 2.37-1.2-.1.01-.2.04-.3.05 1.47-.66 2.38-1 3.46-1.14.36-.1.7-.22 1-.33l.92-.2c.12-.03.23-.05.34-.08.34-.05.67-.1 1.02-.14-.01-.02-.02-.05-.03-.07.06-.01.14-.03.2-.04.9-.12 1.5-.2 1.9-.3.8-.15.75-.22.3-.3-.45-.05-1.28-.06-2-.06-.25-.01-.47.01-.68.03l-.76-1.85.62-2.87-.5 1.13c.78-3.2.47-.75 1.1-3.83h-.2c1.02-4.42 1.88-6.96 2.95-11.22 3.94-17.83 7.5-37.12 10.58-53.85l.27-.72c.27-.32.37-4.65.68-5.37l-.12-2.05c.03-.57.06-1.76.12-.76-.02-1.87-.02-1.92-.24-3.23l-.06-1.98-.25-2.68-.4-2.57-.65-3.7c1.6-.35 3.3-.76 5.2-1.28-.9.25.4-.02.34.04l3.37-.8c-.01.04-.01.1-.02.13l-.15.77-.04.2c-.03.1-.04.25-.04.3l-.05.4-.2 1.55-.4 3 .2-.3c-1.26 8.26-1.42 11.33-2.74 18.77l-.02-.1c-.54 4.74-1.2 8.46-1.9 12.2l-2.2 12.34c.2-1.2-.18.5-.2.4l-.2.87-.05.24c-.02.12-.04.25-.04.37-.01.25.03.5.1.72.15.47.46.87.86 1.14.2.13.42.24.65.3l.4.1 1.4.36c-.01.05-.01.1-.02.16-.05.4-.16.82-.28 1.28a33.977 33.977 0 0 1-.97 2.98c-.2.5-.4 1-.65 1.44-.06.12-.1.17-.18.3l-.75 1.05c-.66.94-1.32 1.9-1.95 2.87s-1.25 1.95-1.8 2.98c-.6 1-1.08 2.15-1.3 3.3zm33.96 2.23l-.01-.04c-.74 1.25-1.78 1.36-2.57 2.62.1-.16-.1 0-.12-.03-.45.5-.95 1-.76 1.2-.35.33-.35.2-.47.18.1.1-.18.42-.45.7l.1-.16-.75.78.32.02c-.46.35-.3-.1-.66.32l.14.13c-.6.53-1.15.64-1.8 1.07-.57.52-1.12 1.07-1.67 1.64l-1.23 1.25c-.96-.34-2.12-.9-3.04-1.12l-.4-.3c-.42-.1-.9-.25-1.26-.47l.04-.02c-.62-.15-1.26-.47-1.57-.54l.04-.02-.72-.27h.14c-1.06-.32-2.12-.74-3.03-1.15l.02.17c-1.93-.95-2.77-.96-4.5-1.86l.04-.02c-2.4-.56-3.5-1.68-5.96-2.28.3.08-.1-.12-.06-.14-.55-.2-1.1-.4-1.55-.53-.57-.2-1.04-.13-1.05.01h-.03c-.07-.3-.13-.57-.17-.87-.05-.44-.1-1.02.1-2.05-.04.68.04-.17.27-.92-.12.48-.15.63.2-.33.03-.14.08-.36.16-.55.01-.01.03-.04.03-.02.5-1.2.43-1 .14-.45 0-.03-.03.01-.12.17.6-1.2 1.9-3.35 2.1-3.44 1.1-1.7 2.07-3.14 3-4.52.48-.8.73-1.55 1.02-2.33.27-.78.52-1.56.75-2.4.16-.36 0 .43-.3 1.38.25-.77.48-1.55.67-2.35.08.05-.3 1.38-.54 2.1.25-.68.48-1.38.65-2.13.05-.24.08-.47.12-.7.1.02.2.05.28.07 1.74.43 2.95.7 3.03.56 3.2.88 2.57.8 2.95 1.02.02-.12 2.8.6 5.3 1.27l-1.16-.27 7.15 1.93-1.33-.6c2.53.74 2.06.73 2.58.93-.01.06-.03.12-.04.2-.13.35-.27.76-.36 1.2-.1.7-.03.95 0 1.22l.17 1.3c-.13-.07.4 1.85.12 1.02.43 1.65 1.22 3.23 2.54 4.62 1.16 1.15 2.4 2.36 3.7 3.76-.1.02-.13.04-.16.07zm70.55-64.6c.15.32.3.47 1.08 2.4l-5.95-15.03-4.64-11.55-13 18.7-9.28 13.64.36-.6c-3.15 4.84-4.25 6.15-7.87 11.5-.22.28-.5.64-.46.58-3.45 5.26-10.47 15.07-13.32 19.3l-.28.2-7.14 10.3 2.7-3.83c-.68 1.5-5.57 7.66-10.6 15.22l-1.7 2.48-.1-.1-2.86-2.9c-.9-.9-1.56-2-2.02-3.14-.03-.15-.06-.3-.08-.44.03-.1-.26-.72-.46-1.4-.2-.67-.3-1.38-.25-1.57a6.856 6.856 0 0 1 0-1.11c.07-.28.27-.95.16-.38l.18-.7.9.24.01-.2c2.6.74 4.66 1.4 6.68 2.05.23.1.67.2 1.05.18.4-.01.77-.13 1.1-.32s.65-.47.87-.8c.23-.33.35-.74.44-.95l1.27-3.37c2.35-6.8 4.62-13.8 6.76-20.84l2.9-4.18-1.15 1.6c.14-.74 2.45-3.18 4.5-6.45 2.1-2.93 3.66-6.36 5.92-9.34.9-1.55-.7 1.42.73-.83.18.02-.63 1.08-.13.6 1.44-2.2 2.6-3.43 4.35-6.14l.18-.04c2.22-3.6 4.68-6.43 6.1-8.85 2.4-3.62 1.97-2.18 4.36-6.03l1.14-1.35c1.13-1.57.62-1.26 1.92-2.97.01.17 1.62-2.18.98-1.1.77-1.02 1.5-2.08 2.25-3.17l3.78-5.53-6.4 1.44c-1.34.3-2.75.58-4.25.85-1.3.5-4.48 1.1-5.46 1.47-.2-.05-6.3 1.4-2.82.42.3-.08.84-.2.8-.16l.4-.2c-3 .47-5.46 1.24-8.23 1.92.1-.73.17-1.3.25-1.52.1-.8.16-1.58.22-2.37.12-.66.33-2.05.24-.87.28-2.18.2-2.25.3-3.83l.1-.88c1.83-.5 3.84-1.04 8.48-2.03-2.4.65.66-.06 3.47-.7-1.8.42-2.34.58 1.37-.18.5-.15 1.3-.35 2.06-.53.03 0 .18-.03.1 0 4.68-1.1 3.86-.94 1.68-.46.1-.04-.08-.02-.76.1 1.7-.33 3.86-.8 5.97-1.27l6.5-1.44-.93-2.4c-.18-.43-.27-.7-.27-.8l-5.44-13.3 2.3-.9c1.74-.68 3.45-1.34 5.1-1.82l.17.03c.1.1.82-.5.98-.43l.16-.1.78 1.9 6.37 15.86 1.02 2.26.25.67c.02-.03.3.57.65 1.38l1.13 2.65c.52 1.6-.3-.01 1.9 5.46 1.63 4.37 4.98 12.3 7.3 17.93-1.2-3.06-.75-2.1-.2-.8 1.1 2.74 1.62 4.36 2.52 6.45l-.03.25c.26.34 3.04 7.25 3.47 8.16.52 1.6-1.8-4.2-2.15-4.86l6.6 16.46c2.46 5.82-.3-1.12.96 1.63l6.5 16.14-.62-1.93 8.8 22.1 11.76 27.9c0 .05-.01.1-.01.14h-.15l.1.26 2.55 6.37c.27.7.4 1.4.38 2.08l-.03.3c0 .06-.01.1-.02.17-.02.18-.06.36-.1.55-.2.82-.64 1.78-1.5 2.6-.83.8-2.08 1.55-3.58 1.6-1.5.07-3.24-.58-4.36-2.06-.28-.36-.5-.77-.67-1.23l-.55-1.47-1.2-3.16-5.94-15.68.3.63-13.4-33.23c-.36-1.67-4.7-11.8-5.95-15.2l.15.3c-3.7-8.67-7.02-18.1-10.6-26.46zm27.18 72.52c-.04-.07-.1-.14-.15-.22l.1.1c.02.04.04.08.05.12zm14.8 89.1c-37.3 0-67.6-30.3-67.6-67.6 0-26.37 15.16-49.24 37.22-60.37l2.43 6.1c-.37.2-.75.4-1.12.62-.34.1-1.48.74-2.68 1.46l-3.04 2 .1-.1c-3.1 2.3-6.4 4.78-8.93 7.54.07-.08.1-.16.35-.45-1.86 1.9-3.96 4.4-4.14 4.5-2.07 2.5-4.28 5.73-6.02 8.9-1.75 3.15-3.04 6.2-3.7 8.2l.08-.28c-.4 1.1-.6 1.86-.88 2.6-.27.75-.53 1.55-.85 2.84-.04.1-.08.24-.1.27.01-.03.02-.08.05-.2-.02.06-.04.13-.05.2 0 .01-.01.01-.01.01-.16.62-.34 1.4-.52 2.24-.2.84-.4 1.74-.55 2.64-.36 1.78-.57 3.53-.68 4.57l-.08.13-.23 3.2c.16.67-.3 3.9.07 7.6.2 3.5 1.14 6.97 1.94 10.48.5 1.65-.5-1.43.2 1.04-.08.1-.38-1.14-.28-.48.73 2.42 1.03 4.03 2.23 6.92v.15c1.62 3.74 3.14 7.03 4.65 9.3 1.17 1.75 1.48 2.4 1.88 3 .2.3.4.62.7 1.07.3.46.75 1.05 1.47 1.88l.98 1.4c1.23 1.42.95.96 2.32 2.52-.13-.05 1.78 1.94.9 1.1 3.22 3.46 7.1 6.43 12.3 9.84.62.28 1.6.83 2.53 1.36.96.48 1.88.95 2.35 1.14.05.08 1.48.7 2.5 1.18 1 .45 1.6.7-.04.08-.28-.12-.76-.34-.72-.34l-.4-.1c3.18 1.6 6 2.4 9.36 3.34-1-.3-2.33-.68-1.42-.48 1.05.3 2.08.63 3.14.85l-.68-.1 2.36.57c.8.18 1.6.3 2.38.46l-.65-.2c1.16.24 1.95.4 2.78.52.83.12 1.7.28 3.04.3 1.2.03-2.23-.27.27-.1 3.15.33 7.93.4 11.96-.07-.4-.04.7-.17 1.8-.33l.14.06c4.22-.87 1.6-.04 5.75-1.07l-.36.14c.35-.14.7-.26 1.06-.42 3.66-1.2 2.06-.38 6.04-2-1.58.6-.8.14 1.15-.6l-.46.26 2.1-.9c-.6.32-.3.25 1.25-.46l-1 .55c.95-.48 1.92-.95 2.84-1.5 2.28-.98 5.54-3.18 6.44-3.66 0 0 .3-.17.7-.47l1.6-1.13c1.2-.9 2.46-1.92 2.9-2.35-.76.75 1.47-1.15.9-.54 1.05-.9 3.9-3.8 5.06-4.96 1.97-2.1 3.53-4.07 4.9-6.05 1.45-2.04 2.68-4.13 4.04-6.47-.2.18 1.16-2.34.74-1.76 2.42-5.03 4-9.4 4.2-11.42l.65-2.54c.16-.58.3-1 .4-1.65l-.1.6.5-2.98.28-2.26c.1-.68.13-1.34.2-2.04.04-.7.14-1.45.15-2.33 0-1.8-.1-2.1-.16-5.24.07 1.02.08-.27-.03-1.45.07.75.1.98.03-.57-.04-.22-.07-.55-.1-.87 0-.01 0-.08.01-.04-.2-1.96-.23-1.6-.1-.7-.01-.04-.02.03-.01.32-.07-1.02-.25-2.44-.42-3.62-.2-1.18-.38-2.15-.35-2.28-.62-2.9-1.3-5.36-2.13-7.63-.78-2.3-1.72-4.38-2.77-6.6-.18-.53.34.5.95 1.8-.5-1.06-.95-2.13-1.5-3.16.04 0 .28.44.58 1l.8 1.76c-1.58-3.87-4-7.62-6.8-11.62-.2-.27-.45-.5-.67-.77l-.17-.24s-.01 0-.01-.01c-.01-.04-.17-.25-.57-.77l.56.77c-.08-.05-.74-.82-1.17-1.35-.4-.57.16-.07-1.43-1.9-.6-.75-1.56-1.7-2.57-2.73-1.05-.97-2.16-2-3.13-2.8 1 .9.66.64.2.28-.9-.8-1.4-1.3-2.15-1.85l-.03-.1c-.08-.02-.6-.42-1.2-.87-.73-.54-1.58-1.1-1.77-1.22-.52-.45 1.57 1.02 1.83 1.2l-2.97-2.1c-.52-.3-1-.7-3.1-1.92-2.28-1.23.36.3-.75-.23-1.98-1.13-4-2.03-6.38-3.14l.72.4c-3.95-1.63-6.4-2.35-9.15-3.2-3.88-.9-6.96-1.2-9.3-1.4l-3-.1-2.03.04c-2.1.08-1.96.2-.8.27 1.14.1 3.26.17 5.08.4.9.07 1.75.2 2.36.3l1 .14c3.04.5 5.7 1.08 8.15 1.82 2.46.7 4.73 1.53 7.03 2.47 4.55 1.97 9.3 4.4 15 9.1 4.9 4.23 7.48 7.48 9.9 10.83.6.85 1.2 1.7 1.76 2.62l.9 1.4.87 1.52c1.2 2.1 2.43 4.52 3.66 7.63 1.15 2.97 2.16 6.13 2.83 9.34.68 3.2 1.1 6.46 1.28 9.57.05.74.1 1.62.12 2.6.02.96-.03 2-.06 3.07-.05 1.06-.16 2.13-.22 3.16l-.3 2.88c-.07.45-.2.9-.3 1.33l-.3 1.9c-.14.64-.3 1.28-.45 1.87v-.08c-.16.9-.42 1.82-.65 2.63l-.57 1.95v-.08l-.7 2.08.1-.37c-1 3-2.35 5.96-3.73 8.47l.2-.17c-1.53 2.66-2.63 4.44-3.8 6.1-.57.83-1.14 1.65-1.82 2.5l-1.07 1.34-1.3 1.44.03-.07c-2.24 2.68-4.28 4.58-6.44 6.34-2.18 1.74-4.44 3.42-7.46 5.4.75-.5-.35.17-.3.1-2.82 1.77-6.06 3.2-6.04 3.4-2.2 1-1.84.72-2.15.8.02.03-.46.25-1.16.55-.7.32-1.65.63-2.54.94l.82-.3c-1.7.6-3.44 1.12-5.2 1.58.36-.03.7-.07 1.07-.13-2.8.66-.75.01-3.43.68l.06.1c-3.92.74-6.28.8-10.1.9-7.98.27-16.3-1.04-23.92-4-7.62-2.92-14.44-7.45-19.72-12.68l-.4-.52c-.14-.26-3-2.8-3.25-3.35l-1.18-1.27c-.28-.4-.9-1.22-.34-.56-.97-1.27-1.05-1.26-1.74-2.18l-.93-1.44c-3.48-5.24-6.03-10.03-8-16.38-1.1-3.83-2.3-9.48-2.52-15.3-.16-2.9 0-5.85.22-8.6.18-1.36.28-2.7.52-3.92l.3-1.8.36-1.66c1.25-5.96 3.85-12.13 7.37-17.72 3.54-5.6 8.03-10.57 12.73-14.64l.67-.56c.24-.2.43-.38.43-.38 2.97-2.36 6.17-4.44 9.54-6.2 0 0 .1-.05.23-.12l1.33 3.33 7.36 18.34 4.05 10.03c-.9-1.04-1.17-1.37-1.84-2.18-.36-.4-.54-.35-1.12-1.1.24.2-.01-.1-.24-.37.15.17.22.2-.05-.18-.06-.04-.13-.1-.2-.17 0-.01-.01-.02 0-.02-.4-.44-.35-.35-.18-.13-.02 0-.01.02.03.1-.33-.52-1.1-1.3-1.07-1.44-1.16-1.35-2.06-2.26-3.04-3.37-.06-.16.2.07.5.4l-.7-.8c.07-.04.42.43.64.67-.7-1.05-1.75-1.9-2.6-3.1l-.24-.2-.05-.07c-.02.02-.27-.2-.42-.36-.08-.2.13-.1-.34-.65-.32-.48-1.07-1.23-1.58-1.8.25.32.14.24.01.13-.23-.28-.3-.48-.52-.68l.05-.1c.02.17-.68-.67-.8-.75-.08-.2.4.4.5.43l-1.4-1.67c-.55-.55.02.17-.28-.07-.45-.52-.93-1-1.4-1.63l.1.25c-.88-.95-1.36-1.55-1.85-2.27-6.67-6.94-2-.96-2-.96 2.28 3.02 3.72 4.37 6.65 7.8 2.5 3.07 3.05 3.98 5.72 7.1 1.22 1.5 2.57 3.04 3.8 4.48h0c.02.02.04.05.06.07.68.62 1.6 1.93 2.38 2.7l.2.37c.26.26.56.58.77.9h-.03c.4.4.77.9.97 1.08h-.03l.44.5-.1-.07c.26.27.5.55.75.84l1.23 3.04 3.17 7.8c-.37.48-.75 1.07-1.03 1.64l-1-.87-.1-.2c.01-.15-1.1-.65-1.14-.85l-.44-.3c-.1-.1-.32-.33-.1-.2-.37-.32-.4-.3-.7-.5l-.35-.4c-1.44-1.28-2.8-2.2-4.34-3.52-1.77-1.68-5.4-4.5-7.48-6.1-2.98-2.22-5.98-5.37-9.04-7.62-.08-.1-.36-.27-.36-.25L354.6 355c-.05.02-13-10.78-3.82-1.8l-.08-.03c1.42 1.27 2.34 2.04 3.44 2.77.05.27 1.2 1 1.5 1.34l-.04-.02c.98.64 1.77 1.6 2.7 2.23-.04-.02-.1 0-.3-.16.64.5 1.53 1.2 1.5 1.3 1.52 1.22 3.58 3 4.64 3.66l-.08-.03c.62.37.72.57 1.37 1.04.02.04.06.08.05.08.66.4 1.75 1.43 2.26 1.8l-.01.08 1.2.97-.43-.38c.27-.01.83.83 1.76 1.45.8.7 1.88 1.06 2.66 1.82.45.26-.44-.18.2.26-.04.1-.32-.18-.2 0 .62.45.9.87 1.66 1.42l-.02.08c1.03.68 1.72 1.55 2.43 1.97 1 .76.5.7 1.62 1.44l.33.4c.42.37.4.16.84.6-.07.02.57.54.26.36.54.52 1.17 1 1.83 1.5-.02.1-.04.22-.04.32l-.03-.07c.03.4-.13.52-.2.86-.5-.04-1-.08-1.17-.15 0 0-1.58-.2-1.96-.12.32-.04-.55-.15-.3-.2-.42.04-1.64-.01-2.12-.13h.1c-1.8-.25-3.08-.16-4.7-.4.07.1-.78-.03-.58.1-1.68-.04-3.02-.5-3.65-.22-.76-.05-.9-.16-1.28-.22h.18l-2.9-.24c-.53-.01-.63.14-1.57.01.3-.04-.08-.06-.43-.1.23.01.3-.01-.16-.1-.07.01-.17.02-.26.02 0-.01-.02-.01-.01-.02-.6-.03-.5 0-.22.03-.01.01.01.02.1.05-.6-.14-1.7-.15-1.77-.27-1.78-.14-3.05-.14-4.53-.23-.16-.07.2-.1.62-.07l-1.05-.08c.02-.08.6.01.93.02-1.23-.24-2.58-.1-4.03-.36l-.3.04-.1-.02c0 .03-.33.05-.55.04-.2-.1.03-.16-.7-.22-.57-.12-1.63-.1-2.38-.15.4.05.27.08.1.08-.36-.03-.56-.12-.85-.1l-.03-.1c.13.1-.95.01-1.1.04-.2-.1.57-.01.66-.05l-2.18-.2c-.78 0 .13.1-.25.15-.7-.04-1.36-.04-2.14-.17l.24.1c-1.3-.05-2.06-.13-2.92-.3-9.63-.2-2.1.75-2.1.75 3.76.53 5.73.46 10.22.8 3.94.4 4.97.66 9.06.97l5.94.5c.92-.04 2.5.23 3.58.22l.4.1c.37 0 .8.01 1.17.08h-.03c.56 0 1.17.08 1.45.08h-.02l.67.05-.12.02c.97.03 1.96.12 2.82.22l-.06-.1c1.86.27 2.55.15 4.23.42l-.02.02c2.15-.03 3.35.46 5.56.45-.28 0 .1.06.1.07.06 0 .12.01.2.01-.06.28-.1.55-.1.73l-.1.01c-.02.3-.02.63-.03.94l.04-.35c.3.13-.24.7.01 1.38-.02.32.2.62.4.9.18.3.37.57.38.9.2.26-.3-.2-.07.2-.15.06-.15-.18-.24-.04.1.24.1.47.15.7l-2.2.15-.2-.07c-.1-.12-1.23.3-1.4.2l-.52.1c-.15-.01-.46 0-.2-.06-.5.04-.5.06-.84.13l-.53-.03c-1.92.12-3.54.42-5.56.58-2.44.07-7 .64-9.6.98-3.68.54-8.02.43-11.78 1-.12-.01-.44.06-.44.08l-3.46.3s-16.8 1.53-3.94 1.4l-.08.04c1.9-.1 3.1-.2 4.4-.47.23.16 1.56-.12 2-.1l-.04.02c1.14-.24 2.4-.1 3.5-.34-.04.02-.06.07-.32.1.8-.1 1.92-.24 2-.15 1.94-.2 4.65-.42 5.87-.7l-.08.04c.7-.17.9-.1 1.7-.23.04.01.1.01.1.02.76-.18 2.25-.23 2.87-.33l.05.06 1.53-.16-.58.04c.18-.2 1.17.01 2.27-.22 1.04-.07 2.08-.58 3.17-.6.5-.13-.44.18.32.04.03.1-.35.1-.15.15.75-.12 1.25-.02 2.18-.17l.05.07c1.2-.25 2.3-.12 3.1-.32 1.25-.18.86.14 2.16-.13l.52.05c.56-.04.4-.16 1.02-.17-.03.07.8-.02.43.07.98-.02 1.98-.2 3.1-.3.1.25.18.5.27.7-.53.42-1.1.95-1.33 1.04 0 0-1.26.98-1.46 1.3.2-.26-.5.28-.35.06-.27.32-1.16 1.15-1.6 1.4l.06-.07c-1.44 1.1-2.3 2.06-3.6 3.02.1.02-.58.53-.34.48-1.22 1.16-2.5 1.78-2.74 2.43-.57.5-.75.52-1.06.75l.13-.13-2.22 1.88c-.4.36-.35.54-1.1 1.12.2-.24-.1.01-.37.24.17-.15.2-.22-.18.05-.04.06-.1.13-.17.2-.01 0-.02.01-.02 0-.44.4-.35.35-.13.18 0 .02.02.01.1-.03-.52.33-1.3 1.1-1.44 1.07-1.35 1.16-2.26 2.06-3.37 3.04-.16.06.07-.2.4-.5l-.8.7c-.04-.07.43-.42.67-.64-1.05.7-1.9 1.75-3.1 2.6l-.2.24-.07.05c.03.02-.2.27-.36.42-.2.08-.1-.13-.65.34-.48.32-1.23 1.07-1.8 1.58.32-.25.24-.14.13-.01-.28.23-.48.3-.68.52l-.1-.05c.17-.02-.67.68-.75.8-.2.08.4-.4.43-.5l-1.67 1.4c-.55.55.17-.02-.07.28-.52.45-1 .93-1.63 1.4l.25-.1c-.95.88-1.55 1.36-2.27 1.85-6.94 6.67-.96 2-.96 2 3.02-2.28 4.37-3.72 7.8-6.65 3.07-2.5 3.98-3.05 7.1-5.72l4.52-3.84-.05.06.06-.07c.62-.68 1.92-1.6 2.68-2.37l.37-.2c.26-.26.58-.56.9-.77v.03c.4-.4.9-.77 1.08-.97v.03l.5-.44-.07.1c.7-.66 1.46-1.3 2.15-1.84h-.1c1.5-1.12 1.9-1.7 3.28-2.7v.03c1.5-1.54 2.7-2.04 4.25-3.62-.2.2.12-.04.12-.01l.42-.36c.02.16.04.3.4.56l.06.36c.2.28.32.05.52.4-.1.05.27.42.04.32.52.75 1.44 1.04 2.28 1.86.18-.02.4.1.6.2-.5.6-1 1.18-1.5 1.74l-.2.1c-.15-.01-.65 1.1-.85 1.14l-.3.44c-.1.1-.33.32-.2.1-.32.37-.3.4-.5.7l-.4.35c-1.28 1.44-2.2 2.8-3.52 4.34-1.68 1.77-4.5 5.4-6.1 7.48-2.22 2.98-5.37 5.98-7.62 9.04-.1.08-.27.36-.25.36l-2.23 2.67s-10.8 12.95-1.8 3.77l-.03.08c1.27-1.42 2.04-2.34 2.77-3.44.27-.05 1-1.2 1.34-1.5l-.02.04c.64-.98 1.6-1.77 2.23-2.7-.02.04 0 .1-.16.3.5-.64 1.18-1.53 1.3-1.5 1.22-1.52 3-3.58 3.66-4.64l-.03.08c.37-.62.57-.72 1.04-1.37.04-.02.08-.06.08-.05.4-.66 1.43-1.75 1.8-2.26l.08.01.97-1.2-.38.43c-.01-.27.83-.83 1.45-1.76.7-.8 1.06-1.88 1.82-2.66.26-.45-.18.44.26-.2.1.04-.18.32 0 .2.45-.62.87-.9 1.42-1.66l.08.02c.68-1.03 1.55-1.72 1.97-2.43.76-1 .7-.5 1.44-1.62l.4-.33c.37-.42.16-.4.6-.84.02.07.54-.57.36-.26.63-.66 1.18-1.42 1.83-2.23.18.1.38.14.57.17.08.02.17.03.25.04-.07.66-.1 1.4-.2 1.6 0 0-.2 1.58-.12 1.96-.04-.32-.15.55-.2.3.04.42-.01 1.64-.13 2.12v-.1c-.25 1.8-.16 3.08-.4 4.7.1-.07-.03.78.1.58-.04 1.68-.5 3.02-.22 3.65-.05.76-.16.9-.22 1.28v-.18l-.24 2.9c-.01.53.14.63.01 1.57-.04-.3-.06.08-.1.43.01-.23-.01-.3-.1.16.01.07.02.17.02.26-.01 0-.01.02-.02.01-.03.6 0 .5.03.22.01.01.02-.01.05-.1-.14.6-.15 1.7-.27 1.77-.14 1.78-.14 3.05-.23 4.53-.07.16-.1-.2-.07-.62l-.08 1.05c-.08-.02.01-.6.02-.93-.24 1.23-.1 2.58-.36 4.03l.04.3-.02.1c.03 0 .05.33.04.55-.1.2-.16-.03-.22.7-.12.57-.1 1.63-.15 2.38.05-.4.08-.27.08-.1-.03.36-.12.56-.1.85l-.1.03c.1-.13.01.95.04 1.1-.1.2-.01-.57-.05-.66l-.2 2.18c0 .78.1-.13.15.25-.04.7-.04 1.36-.17 2.14l.1-.24c-.05 1.3-.13 2.06-.3 2.92-.2 9.63.75 2.1.75 2.1.53-3.75.46-5.72.8-10.2.4-3.94.66-4.97.97-9.06l.5-5.94c-.04-.92.23-2.5.22-3.58l.1-.4c0-.37.01-.8.08-1.17l.02.03c0-.56.08-1.17.08-1.45l.02.02.05-.67.02.12c.03-.97.12-1.96.22-2.82l-.1.06c.27-1.86.15-2.55.42-4.23l.02.02c-.03-2.15.46-3.35.45-5.56 0 .28.06-.1.07-.1.01-.2.02-.38.04-.57.2.06.37.12.56.16l-.1-.14c.42.12.56.4 1.08.24.23-.1-.4-.2.06-.2.57.14 1.47.27 2.23.22-.1-.13.12-.16.32-.22l.04.12c.76-.3.35.25 1.1-.08l.07-.14.16 2.25-.07.2c-.12.1.3 1.23.2 1.4l.1.52c-.01.15 0 .46-.06.2.04.5.06.5.13.84l-.03.53c.12 1.92.42 3.54.58 5.56.07 2.44.64 7 .98 9.6.54 3.68.43 8.02 1 11.78-.01.12.06.44.08.44l.3 3.46s1.53 16.8 1.4 3.94l.04.08c-.1-1.9-.2-3.1-.47-4.4.15-.22-.13-1.56-.1-2l.02.04c-.24-1.14-.1-2.4-.34-3.5.02.04.07.06.1.32-.1-.8-.24-1.92-.15-2-.2-1.94-.42-4.65-.7-5.87l.04.08c-.17-.7-.1-.9-.23-1.7.01-.04.01-.1.02-.1-.18-.76-.23-2.25-.33-2.87l.06-.05-.16-1.53.04.58c-.2-.18.01-1.17-.22-2.27-.07-1.04-.58-2.08-.6-3.17-.13-.5.18.44.04-.32.1-.03.1.35.15.15-.12-.75-.02-1.25-.17-2.18l.07-.05c-.25-1.2-.12-2.3-.32-3.1-.18-1.25.14-.86-.13-2.16l.05-.52c-.04-.56-.16-.4-.17-1.02.07.03-.02-.8.07-.43-.02-1-.2-2.03-.32-3.2.02-.02.04-.03.06-.05-.03.01-.04 0-.07.01-.01-.06-.01-.13-.01-.2.05-.04.13-.08.22-.1l-.05.15c.2-.1.24-.16.37-.2-.08.1 0 .16.2.07.01.02.03.03.04.05l-.08.14.1-.1c.42.53.94 1.1 1.03 1.32 0 0 .98 1.26 1.3 1.47-.26-.2.28.5.06.35.32.27 1.15 1.16 1.4 1.6l-.07-.07c1.1 1.44 2.06 2.3 3 3.6.02-.1.53.58.48.34 1.15 1.22 1.78 2.5 2.43 2.74.5.57.5.75.75 1.06l-.13-.13 1.87 2.22c.36.4.54.35 1.12 1.1-.24-.2.01.1.24.37-.15-.17-.22-.2.05.18.06.04.13.1.2.17 0 .01.01.02 0 .02.4.44.34.35.18.13.02 0 .01-.02-.03-.1.33.53 1.1 1.32 1.06 1.44 1.16 1.35 2.06 2.26 3.03 3.38.06.16-.2-.07-.5-.4l.7.8c-.07.04-.42-.44-.64-.67.7 1.05 1.75 1.9 2.6 3.1l.24.2.05.07c.02-.02.27.2.42.36.08.2-.13.1.33.65.3.5 1.07 1.23 1.58 1.8-.25-.32-.14-.24-.01-.13.23.28.3.48.52.68l-.05.1c-.02-.17.68.67.8.75.08.2-.4-.4-.5-.43l1.4 1.67c.55.55-.02-.17.28.07.45.52.93 1 1.4 1.63l-.1-.25c.87.95 1.36 1.55 1.85 2.27 6.66 6.96 2 .96 2 .96-2.27-2.97-3.7-4.3-6.63-7.74-2.5-3.07-3.04-3.98-5.7-7.1l-3.84-4.56c-.68-.62-1.6-1.93-2.37-2.7l-.2-.37c-.26-.26-.56-.58-.77-.9h.03c-.4-.4-.77-.9-.96-1.1h.03l-.44-.5.1.07c-.66-.7-1.3-1.47-1.84-2.16l-.02.1c-1.12-1.5-1.7-1.9-2.7-3.3h.03c-1.54-1.5-2.04-2.7-3.6-4.25.2.2-.04-.12-.01-.12l-.42-.48c.24-.15.46-.3.6-.27 0 0 .86-.52.9-.8-.08.22.36-.1.33.1.1-.28.6-.86.9-1l-.03.05c.54-.45.8-.94 1.08-1.44l1.52 1.3.1.2c-.01.15 1.1.65 1.15.85l.45.3c.1.1.33.33.1.18.37.3.4.3.7.5l.35.4c1.45 1.27 2.8 2.2 4.36 3.5 1.78 1.67 5.42 4.46 7.5 6.07 3 2.2 6 5.34 9.08 7.58.08.1.36.26.36.25l2.68 2.22c.01-.03 13 10.7 3.78 1.75l.08.03c-1.43-1.26-2.35-2.03-3.45-2.75-.05-.27-1.2-1-1.5-1.33l.04.02c-.98-.63-1.78-1.6-2.72-2.22.04.02.1 0 .3.16-.64-.5-1.53-1.18-1.5-1.3-1.52-1.2-3.6-2.97-4.66-3.64l.08.03c-.62-.37-.72-.57-1.37-1.03-.03-.04-.06-.08-.05-.08-.67-.4-1.76-1.42-2.27-1.78V401l-1.2-.97.44.38c-.27.02-.83-.83-1.77-1.45-.8-.68-1.88-1.05-2.67-1.8-.46-.26.44.18-.2-.26.04-.1.32.18.2 0-.62-.45-.9-.87-1.67-1.4l.02-.08c-1.03-.67-1.72-1.54-2.44-1.96-1.02-.75-.5-.7-1.62-1.43l-.33-.4c-.42-.37-.4-.16-.84-.6.07-.03-.58-.54-.26-.35-.64-.6-1.37-1.13-2.14-1.74.01-.01.01-.01.01-.02-.15-.03.16-.47-.07-.43.1-.28.2-.52.32-.74.66.07 1.4.1 1.62.2 0 0 1.58.2 1.95.12-.33.04.55.15.3.2.42-.04 1.64.01 2.12.14h-.1c1.8.25 3.08.17 4.7.42-.07-.1.78.03.58-.1 1.68.05 3.02.5 3.65.22.76.05.9.16 1.28.22h-.18c1.42.1 1.84.14 2.9.25.53.02.63-.13 1.57-.01-.3.03.08.06.43.1-.23-.01-.3.01.16.1.07-.01.17-.02.26-.02 0 .01.02.01.01.02.6.03.5 0 .22-.03.01-.01-.01-.02-.1-.05.6.14 1.7.15 1.77.27 1.78.14 3.05.15 4.53.24.16.07-.2.1-.62.07l1.05.08c-.02.08-.6-.01-.93-.02 1.23.25 2.58.1 4.03.36l.3-.04.1.02c0-.03.33-.05.55-.04.2.1-.03.16.7.22.57.12 1.63.12 2.38.15-.4-.05-.27-.08-.1-.08.36.03.56.12.85.12l.03.1c-.13-.1.95-.01 1.1-.03.2.1-.57.01-.66.05l2.18.2c.78 0-.13-.1.25-.15.68.05 1.36.04 2.14.17l-.24-.1c1.3.05 2.06.14 2.9.3 9.6.23 2.1-.72 2.1-.72-3.75-.53-5.7-.47-10.2-.82-3.94-.4-4.97-.67-9.06-.98l-5.93-.5c-.92.04-2.5-.23-3.58-.22l-.4-.1c-.37 0-.8-.01-1.17-.1h.03c-.56 0-1.17-.1-1.45-.1l.02-.02-.67-.05.12-.02c-.97-.03-1.95-.12-2.82-.23l.06.1c-1.85-.27-2.55-.15-4.22-.43l.02-.02c-2.15.03-3.35-.47-5.56-.46.28 0-.1-.06-.1-.07l-.44-.03c-.02-.1-.05-.17-.12-.25.08-.45.28-.5.34-.73l.01.12c.1-.88.13-1.13.16-1.78-.01-.4-.25-.46-.22-1.02.1.18.08-.05.07-.27.02.14.06.18.12-.1-.03-.04-.06-.1-.08-.15.01 0 .01-.01.03-.01-.07-.36-.1-.3-.1-.12-.02-.01-.03.01-.06.06.06-.24-.02-.57-.04-.8l1.9-.14.2.07c.1.12 1.23-.3 1.4-.2l.52-.1c.15.01.46 0 .2.06.5-.04.5-.07.84-.14l.53.03c1.92-.13 3.54-.44 5.56-.6 2.44-.08 6.98-.68 9.6-1.02 3.67-.56 8.02-.47 11.78-1.06.12.01.44-.07.44-.08l3.46-.32s16.8-1.6 3.93-1.4l.08-.04c-1.9.12-3.1.22-4.4.5-.22-.2-1.56.1-2 .1l.04-.02c-1.14.25-2.4.12-3.5.35.04-.02.06-.07.32-.1-.8.1-1.92.25-2 .16-1.94.22-4.65.44-5.87.72l.08-.04c-.7.18-.9.1-1.7.24-.04-.01-.1-.01-.1-.02-.76.18-2.25.24-2.87.35l-.05-.06-1.53.17.58-.04c-.18.2-1.17 0-2.27.23-1.04.08-2.08.6-3.17.6-.5.14.44-.18-.32-.04-.03-.1.35-.1.15-.15-.75.12-1.25.03-2.18.18l-.05-.07c-1.2.26-2.3.13-3.1.34-1.25.2-.86-.14-2.16.14l-.52-.05c-.56.04-.4.16-1 .18.03-.07-.8.03-.43-.07-.85.02-1.7.17-2.65.3-.17-.43-.36-.8-.57-1.16.46-.38.9-.77 1.1-.85 0 0 1.26-.98 1.47-1.3-.2.26.5-.28.35-.06.27-.32 1.16-1.15 1.6-1.4l-.07.07c1.44-1.1 2.3-2.06 3.6-3-.1-.02.58-.53.34-.48 1.22-1.15 2.5-1.78 2.74-2.43.57-.5.75-.5 1.06-.75l-.13.13 2.22-1.87c.4-.36.35-.54 1.1-1.12-.2.24.1-.01.37-.24-.17.15-.2.22.18-.05.04-.06.1-.13.17-.2.01 0 .02-.01.02 0 .44-.4.35-.34.13-.18 0-.02-.02-.01-.1.03.53-.33 1.32-1.1 1.44-1.06 1.35-1.16 2.26-2.06 3.38-3.03.16-.06-.07.2-.4.5l.8-.7c.04.07-.44.42-.67.64 1.05-.7 1.9-1.75 3.1-2.6l.2-.24.07-.05c-.02-.02.2-.27.36-.42.2-.08.1.13.65-.33.5-.3 1.23-1.07 1.8-1.58-.32.25-.24.14-.13.01.28-.23.48-.3.68-.52l.1.05c-.17.02.67-.68.75-.8.2-.08-.4.4-.43.5l1.67-1.4c.55-.55-.17.02.07-.28.52-.45 1-.93 1.63-1.4l-.25.1c.95-.87 1.55-1.36 2.27-1.85 6.96-6.66.96-2 .96-2-3.03 2.27-4.37 3.7-7.8 6.63-3.07 2.5-3.98 3.04-7.1 5.7l-4.5 3.84.05-.06-.06.07c-.62.68-1.92 1.6-2.68 2.36l-.37.2c-.26.26-.58.56-.9.77v-.03c-.4.4-.9.77-1.1.96v-.03l-.5.44.07-.1c-.7.66-1.47 1.3-2.16 1.84l.1.02c-1.5 1.12-1.9 1.7-3.3 2.7v-.03c-1.5 1.54-2.7 2.04-4.25 3.6.14-.15.01-.06-.07-.01-.28-.38-.62-.75-.83-1.22l-.2-.08-.02-.05c-.04.04-.22-.07-.3-.17.01-.17.2-.16-.1-.5-.08-.17-.25-.35-.46-.5l-.65-.42c.17.18.07.17-.04.14-.16-.14-.18-.32-.35-.38l.08-.14c-.02.17-.56-.22-.66-.2-.03-.17.33.12.43.08l-.45-.32.92-1.06.2-.1c.15.01.65-1.1.85-1.15l.3-.45c.1-.1.33-.33.18-.1.3-.37.3-.4.5-.7l.4-.35c1.27-1.45 2.2-2.8 3.5-4.36 1.67-1.78 4.46-5.42 6.07-7.5 2.2-3 5.34-6 7.58-9.08.1-.08.26-.36.25-.36l2.22-2.68s10.73-13 1.78-3.78l.03-.08c-1.26 1.43-2.03 2.35-2.75 3.45-.27.05-1 1.2-1.33 1.5l.02-.04c-.63.98-1.6 1.78-2.22 2.72.02-.04 0-.1.16-.3-.5.64-1.18 1.53-1.3 1.5-1.2 1.52-2.97 3.6-3.64 4.66l.03-.08c-.37.62-.57.72-1.03 1.37-.04.03-.08.06-.08.05-.4.67-1.42 1.76-1.78 2.27l-.08-.01-.97 1.2.38-.44c.02.27-.83.83-1.45 1.77-.68.8-1.05 1.88-1.8 2.67-.26.46.18-.44-.26.2-.1-.04.18-.32 0-.2-.45.62-.87.9-1.4 1.67h-.08c-.67 1.03-1.54 1.72-1.96 2.44-.75 1.02-.7.5-1.43 1.62l-.4.33c-.37.42-.16.4-.6.84-.06-.08-.57.57-.38.25-.56.58-1.05 1.27-1.6 1.98-.3-.1-.6-.2-.88-.4l.08.2c-.17-.04-.32-.08-.46-.12.06-.6.1-1.18.18-1.38 0 0 .2-1.58.12-1.95.04.33.15-.55.2-.3-.04-.42.01-1.64.14-2.12v.1c.25-1.8.17-3.08.42-4.7-.1.07.03-.78-.1-.58.05-1.68.5-3.02.22-3.65.05-.76.16-.9.22-1.28v.18c.1-1.42.14-1.84.25-2.9.02-.53-.13-.63-.01-1.57.03.3.06-.08.1-.43-.01.23.01.3.1-.16-.01-.07-.02-.17-.02-.26.01 0 .01-.02.02-.01.03-.6 0-.5-.03-.22-.01-.01-.02.01-.05.1.14-.6.15-1.7.27-1.77.14-1.78.15-3.05.24-4.53.07-.16.1.2.07.62l.08-1.05c.08.02-.01.6-.02.93.25-1.23.1-2.58.36-4.03l-.04-.3.02-.1c-.03 0-.05-.33-.04-.55.1-.2.16.03.22-.7.12-.57.12-1.63.15-2.38-.05.4-.08.27-.08.1.03-.36.12-.56.12-.85l.1-.03c-.1.13-.01-.95-.03-1.1.1-.2.01.57.05.66l.2-2.18c0-.78-.1.13-.15-.25.05-.68.04-1.36.17-2.14l-.1.24c.05-1.3.14-2.06.3-2.9.2-9.63-.74-2.1-.74-2.1-.53 3.75-.47 5.7-.82 10.2-.4 3.94-.67 4.97-.98 9.06l-.5 5.93c.04.92-.23 2.5-.22 3.58l-.1.4c0 .37-.01.8-.1 1.17l-.02-.03c0 .56-.1 1.17-.1 1.45v-.02l-.05.67-.02-.12c-.03.97-.12 1.95-.23 2.82l.1-.06c-.27 1.85-.15 2.55-.43 4.22l-.02-.02c.02 1.5-.22 2.56-.36 3.82l-4.4-11.4-3.08-7.9c-.46-3.52-.42-7.58-.97-11.12.01-.12-.07-.44-.08-.44l-.32-3.46s-1.6-16.8-1.4-3.93l-.04-.08c.14 1.9.25 3.1.5 4.4-.15.22.14 1.56.12 2l-.02-.04c.25 1.14.12 2.4.35 3.5-.02-.04-.07-.06-.1-.32.1.8.25 1.92.16 2l.43 4.02-9.18-22.9c3-.8 6.1-1.4 8.74-1.7 2.13-.24 3.94-.4 5.14-.44 1.2-.08 1.76-.15 1.4-.22-.36-.04-1.66-.17-4.2-.1-2.52.06-6.3.32-11.47 1.54v-.01l.22-.1-.23.06-2.48-6.07c5.78-1.6 11.86-2.5 18.14-2.5 37.3 0 67.6 30.3 67.6 67.6-.01 37.3-30.3 67.6-67.6 67.6z"/><path d="M251.33 412.2h0l.26-.03zm-59.2-131.9l-.02.04c.02.02.03.01.02-.04zm53.06 78.03h0l.03.15zm-37.57-19.43h0l.2.25z"/><g fill="#fff"><path d="M194.03 225.5c6.32 1.5 7.98 2.03 14.58 3.36l9.58 1.94c1.48.17 4.04.82 5.8 1.07l.65.2c.6.1 1.3.2 1.9.37l-.04.01c.9.13 1.9.37 2.34.43h-.04l1.08.2-.2-.01c1.56.26 3.16.6 4.56.9l-.1-.1c2.98.73 4.12.8 6.8 1.5l-.04.01c3.47.53 5.36 1.36 8.92 2-.44-.08.18.1.14.1 1.62.37 3.34.8 3.4.64 1.17.3.94.3 1.08.4.01-.07 1.04.16 1.95.4l-.43-.1 2.62.7-.47-.28c1.37.44.3.27 1.63.62l.02-.12c1.9.58 2.96 1.1 4.74 1.8 1.88.65 3.78 1.34 5.63 2.15 1.84.8 3.7 1.7 5.23 2.9 1.55 1.17 2.52 2.9 3.1 4.73.56 1.83.7 3.74.68 5.57l-.08.32c-.1.14.16 2.02.02 2.3.01.3.02.57.01.86-.04.24-.1.74-.1.32-.07.8-.05.8-.06 1.38-.05.28-.1.56-.17.84-.4 3.1-.7 5.77-1.33 9.03l-3.27 15.48c-1.2 5.97-3.3 12.76-4.5 18.88-.06.2-.14.7-.13.7l-1.3 5.55s-6.33 26.93-.52 6.7v.14c.78-3.03 1.24-4.94 1.6-7.07.25-.3.6-2.5.82-3.2v.07c.3-1.9 1-3.8 1.3-5.6 0 .07.03.12-.06.53.28-1.3.66-3.1.78-3.17.7-3.12 1.76-7.45 2.07-9.48v.14c.16-1.16.33-1.47.57-2.76.03-.07.06-.15.06-.14.2-1.26.82-3.62 1-4.63l.08-.05.55-2.47-.22.92c-.1-.36.53-1.85.8-3.67.38-1.68.35-3.5.78-5.22.08-.85 0 .76.17-.5.1-.02-.05.6.08.3.18-1.24.5-2 .68-3.53l.08-.05c.22-2 .7-3.74.75-5.1.17-2.08.42-1.36.45-3.54l.17-.84c.07-.93-.1-.68 0-1.7.07.07.08-1.3.14-.7.1-2.36-.17-4.8-1.1-7.88l-.7-1.32c-.28-.48-.58-.92-.75-1.12 0-.05-.52-.7-.9-1.13-.42-.4-.66-.63.06-.06.13.1.3.32.28.32l.2.12c-1.2-1.5-2.6-2.12-4.1-3.02.44.3 1.04.64.62.44-.46-.3-.94-.55-1.43-.8l.33.1c-.7-.4-1.43-.76-2.17-1.1l.27.2c-1.06-.53-1.4-.8-2.67-1.2-.58-.17 1 .5-.16.07-1.45-.6-3.64-1.47-5.55-2.08.15.14-.36-.02-.9-.17l-.04-.1c-2.06-.52-.7-.38-2.74-.9h.2-.58c-1.87-.36-.95-.42-3.03-.78.8.2.34.26-.65-.03h.27c-.55-.13-.74-.15-1.1-.25.34.05.2-.06-.6-.25l.56.05-1.56-.26c-1.16-.37-3.06-.74-3.52-.94 0 0-2.54-.65-3.15-.67.53.05-.87-.3-.45-.3-.68-.08-2.65-.45-3.4-.7l.15.02c-2.88-.73-4.98-.96-7.56-1.62.1.1-1.26-.23-.95-.05-2.7-.46-4.86-1.24-5.9-1.1-1.23-.23-1.44-.38-2.07-.52l.3.04-4.67-.93c-.86-.14-1.02-.01-2.54-.36.5.04-.12-.08-.7-.2.37.06.48.07-.26-.13-.1 0-.27-.02-.43-.05-.01-.01-.03-.02-.02-.02-.96-.17-.8-.12-.35-.02-.02 0 .01.02.14.07-.97-.28-2.75-.56-2.85-.7l-7.32-1.35c-.26-.1.3-.04 1 .08l-1.7-.34c.03-.07.98.16 1.5.26-1.98-.55-4.17-.75-6.5-1.4l-.5-.04-.14-.04c0 .03-.54-.04-.9-.1-.32-.14.06-.15-1.1-.4-.9-.27-2.62-.56-3.83-.8.64.16.43.15.14.1-.58-.13-.9-.28-1.35-.36l-.03-.1c.2.14-1.54-.27-1.76-.3-.3-.15.9.16 1.07.14l-3.48-.82c-1.25-.22.2.14-.4.08-.55-.1-1.07-.28-1.63-.43-.56-.14-1.1-.35-1.7-.62l.35.23c-2-.68-3.1-1.37-4.2-2.23-1.64-1.07-2.7-2.2-3.37-3.17-.68-.97-1-1.74-1.18-2.27-.3-1.1-.32-.97-.36-.4 0 .72.32 1.8.8 2.7.25.43.47.83.68 1.1l.32.44c1.02 1.32 2.18 2.22 3.32 2.95l.86.52c.3.15.58.3.88.43.58.3 1.17.53 1.78.75 2.36.97 5.04 1.36 8.6 2.22zm18.43 139.77l-.4 3.33s-1.96 16.17.55 4l.02.1.44-4.24c.2-.18.2-1.5.3-1.92l.01.04c0-1.13.38-2.28.38-3.37.01.04.05.07.03.32l.26-1.9.35-3.2-.82-1.95-1.1 8.38c-.03.13-.02.44-.01.44zm6.52-47.62h0l.04.1zm-8.38-47.38l3.37 9.26c0 .01 0 .01.01.02l.96-.22c-.05-.2-.08-.4-.17-.58l.08-.06c-.04.16-.38-.84-.45-.95 0-.2.23.5.3.57l-.68-2c-.3-.7-.04.16-.23-.16l-.7-1.95v.26c-.47-1.15-.72-1.86-.93-2.68-1.93-4.24-2.38-4.57-2.25-3.9.1.67.7 2.4.7 2.4zm6.35 65.77c.25-1.35.16-2.77.5-4.54-.08-.4.1-1.3.03-1.6.06-.04.2-1.8.2-.78 0 .1-.02.24-.04.23l.06.13c.25-1 .12-1.86.24-2.87-.06.3-.1.7-.1.42l.1-.94.04.2.18-1.4-.1.18c.1-.68.26-.9.24-1.7-.02-.35-.17.64-.12-.1l.5-3.43c-.1.1-.06-.2-.05-.54l.08-.03c.02-1.25.2-.44.25-1.67l-.08-.23c-.04-1.12.2-.58.13-1.84-.03.5-.2.2-.1-.38l.06.16.03-.67c.02.2.1.1.13-.38l.06.34-.05-.94c.14-.7.15-1.84.28-2.13 0 0 .18-1.53.1-1.9.04.3.14-.53.2-.28-.05-.4-.01-1.58.1-2.05v.1c.2-1.75.1-2.98.25-4.58-.1.07-.02-.77-.14-.56l-.05-2.2c-.02-.62-.04-1.1-.26-1.38-.1-.73-.03-.88-.06-1.27l.04.17-.45-2.8c-.13-.5-.28-.55-.42-1.46.12.28.03-.1-.04-.42.06.2.1.28.04-.18-.03-.06-.06-.15-.1-.24 0 0 0-.02.01-.02-.14-.56-.14-.46-.1-.2-.01-.01-.02.01-.02.1-.05-.6-.35-1.63-.26-1.72l-.28-1.04-1.2.27.84 3.56c.3.83.44 2.36.7 3.36l-.02.4c.08.34.16.75.16 1.1l-.02-.02c.13.52.15 1.1.2 1.37l-.02-.02.05.63-.04-.1.13 1.37-.04 1.3.1-.07-.26 4.06h-.02c.06 2.07-.4 3.23-.38 5.36 0-.27-.06.1-.07.1-.07.98-.15 2.02.02 2.05-.07.7-.1.57-.18.66.08 0 .05.62 0 1.18l-.01-.26-.13 1.6.17-.3c-.12.84-.2.2-.24 1h.12c-.14 1.16-.38 1.83-.58 2.95-.5 4.4-.73 9.1-1.32 13.25l.84 1.98v-.02c.05.07.13-.72.15-.36zm-1.85-77.72l.08.05c0-.02-.02-.04-.08-.05zm21.43 3.18h0zm-18.3-1.53h-.03.03z"/><path d="M213.92 259.24c1.13.2 1.4.42 2.6.53.56.1 1.16.15 1.7.2.28-.1.72.1 1.04.05l.1.1c.1-.02.24-.03.34.03v.02c.17-.03.34.03.42.01l-.01.02.2.02-.04.02c.28-.02.57.02.82.1l-.01-.1c.52.18.74.03 1.2.2l-.01.02c.65-.14.94.3 1.6.18-.08.02.03.05.02.07.3.02.6.05.64-.12.2.03.16.08.18.15.01-.07.2-.08.36-.06H225l.48.05-.07-.15c.25.08.04.18.28.18v-.12c.34.07.52.28.84.42 1.4.26 2.93.2 4.2.6l.04.1c.01.13.4-.13.42-.01l.16-.04c.04.03.12.07.05.08.14.03.15.01.25-.02l.14.1c.54.14 1.03.06 1.6.18.67.27 2 .3 2.78.34 1.1-.03 2.25.66 3.37.6.03.02.13 0 .13-.02l1 .17s4.82.77 1.3-.83l.03-.02c-.53-.15-.88-.22-1.27-.13-.03-.18-.44-.08-.56-.16v-.01c-.35.08-.67-.2-1-.14.01-.01.03-.06.1-.05-.24-.01-.56-.02-.56-.13-.56-.06-1.33-.22-1.7-.1l.03-.02c-.22.08-.27-.02-.5 0-.01-.01-.03-.02-.02-.03-.24.07-.65-.08-.84-.06v-.07l-.44-.05.16.04c-.08.17-.32-.16-.65-.1-.3-.07-.66.3-.96.15-.16.06.15-.12-.08-.1.01-.1.1-.04.07-.13-.22.01-.34-.15-.62-.13v-.08c-.37.08-.65-.2-.9-.1-.37.01-.2-.26-.6-.17l-.13-.12c-.16-.04-.13.1-.3.03.02-.06-.22-.08-.1-.13-.4-.16-.84.02-1.35-.23-.13.1-.4-.01-.5.07-.01-.06-.54-.1-.22-.16.03-.01.07 0 .07.02l.05-.07c-.28-.18-.56-.01-.86-.07.1.04.2.05.12.1l-.28-.05.07-.05-.4-.1.05.08c-.2-.07-.25-.2-.5-.14-.1.04.18.13-.04.12l-1-.3c.02.1-.07.07-.17.08v-.08c-.38.05-.1-.18-.5-.16l.04-.05-.12.14c-.35.1-.16-.18-.55-.03.15.01.04.17-.13.1l.06-.06c-.1 0-.14.03-.2 0 .06-.03.05-.1-.1-.1l.1-.07-.3.1c-.2-.1-.55-.06-.62-.18 0 0-.45-.12-.57-.02.1-.05-.15-.12-.06-.2-.13.06-.5.07-.62-.03l.03-.01c-.5-.16-.9-.02-1.35-.2.01.1-.23.01-.2.12-.5.04-.84-.35-1.06-.04-.22-.01-.25-.12-.36-.15h.05l-.83-.1c-.16.01-.2.16-.47.1.1-.05-.02-.05-.12-.07.07 0 .1-.02-.04-.08-.02.02-.05.02-.08.03 0-.01-.01-.01 0-.02-.17 0-.15.02-.07.04-.01.01 0 .02.02.04-.16-.1-.5-.07-.5-.18-.5-.05-.9.01-1.33-.02-.04-.06.07-.1.2-.1l-.3-.02c.01-.08.18-.02.27-.02-.34-.18-.76.02-1.16-.16l-.1.05-.02-.01c0 .03-.1.06-.17.07-.05-.08.03-.16-.18-.2-.15-.1-.47-.04-.7-.03.1.03.07.06.02.08-.1-.01-.15-.1-.24-.07v-.1c.03.1-.3.05-.33.1-.05-.08.17-.04.2-.08l-.63-.08c-.23.04.03.1-.1.16-.2-.01-.4.03-.62-.06l.06.1c-.38.01-.6-.03-.83-.15-2.85.26-.72.84-.72.84 1.04.33 1.63.17 2.93.3z"/></g><defs ><path id="B" d="M392.28 322.87c33.4 0 60.6 27.2 60.6 60.6s-27.2 60.6-60.6 60.6-60.6-27.2-60.6-60.6 27.2-60.6 60.6-60.6m0-7c-37.3 0-67.6 30.3-67.6 67.6s30.3 67.6 67.6 67.6 67.6-30.3 67.6-67.6-30.3-67.6-67.6-67.6h0z"/></defs></svg>